500 0 14 0           
7 Unknown 11 ACIS 5.0 NT 24 Thu Mar 25 21:53:00 1999 
-1 9.9999999999999995e-007 1e-010 
body $-1 $14 $-1 $15 #
body $-1 $16 $-1 $17 #
body $-1 $18 $-1 $19 #
body $-1 $20 $-1 $21 #
body $-1 $22 $-1 $23 #
body $-1 $24 $-1 $25 #
body $-1 $26 $-1 $27 #
body $-1 $28 $-1 $29 #
body $-1 $30 $-1 $31 #
body $-1 $32 $-1 $33 #
body $-1 $34 $-1 $35 #
body $-1 $36 $-1 $37 #
body $-1 $38 $-1 $39 #
body $-1 $40 $-1 $41 #
lump $-1 $-1 $42 $0 #
transform $-1 1 0 0 0 1 0 0 0 1 48.153324991607413 19.741878636196653 7.3711970633426303 1 rotate no_reflect no_shear #
lump $-1 $-1 $43 $1 #
transform $-1 1 0 0 0 1 0 0 0 1 48.153324991607413 19.741878636196653 7.3711970633426303 1 rotate no_reflect no_shear #
lump $-1 $-1 $44 $2 #
transform $-1 1 0 0 0 1 0 0 0 1 48.153324991607413 19.741878636196653 7.3711970633426303 1 rotate no_reflect no_shear #
lump $-1 $-1 $45 $3 #
transform $-1 1 0 0 0 1 0 0 0 1 48.153324991607413 19.741878636196653 7.3711970633426303 1 rotate no_reflect no_shear #
lump $-1 $-1 $46 $4 #
transform $-1 1 0 0 0 1 0 0 0 1 48.153324991607413 19.741878636196653 7.3711970633426303 1 rotate no_reflect no_shear #
lump $-1 $-1 $47 $5 #
transform $-1 1 0 0 0 1 0 0 0 1 48.153324991607413 19.741878636196653 7.3711970633426303 1 rotate no_reflect no_shear #
lump $-1 $-1 $48 $6 #
transform $-1 1 0 0 0 1 0 0 0 1 48.153324991607413 19.741878636196653 7.3711970633426303 1 rotate no_reflect no_shear #
lump $-1 $-1 $49 $7 #
transform $-1 1 0 0 0 1 0 0 0 1 48.153324991607413 19.741878636196653 7.3711970633426303 1 rotate no_reflect no_shear #
lump $-1 $-1 $50 $8 #
transform $-1 1 0 0 0 1 0 0 0 1 48.153324991607413 19.741878636196653 7.3711970633426303 1 rotate no_reflect no_shear #
lump $-1 $-1 $51 $9 #
transform $-1 1 0 0 0 1 0 0 0 1 48.153324991607413 19.741878636196653 7.3711970633426303 1 rotate no_reflect no_shear #
lump $-1 $-1 $52 $10 #
transform $-1 1 0 0 0 1 0 0 0 1 48.153324991607413 19.741878636196653 7.3711970633426303 1 rotate no_reflect no_shear #
lump $-1 $-1 $53 $11 #
transform $-1 1 0 0 0 1 0 0 0 1 48.153324991607413 19.741878636196653 7.3711970633426303 1 rotate no_reflect no_shear #
lump $-1 $-1 $54 $12 #
transform $-1 1 0 0 0 1 0 0 0 1 48.153324991607413 19.741878636196653 7.3711970633426303 1 rotate no_reflect no_shear #
lump $-1 $-1 $55 $13 #
transform $-1 1 0 0 0 1 0 0 0 1 48.153324991607413 19.741878636196653 7.3711970633426303 1 rotate no_reflect no_shear #
shell $-1 $-1 $-1 $56 $-1 $14 #
shell $-1 $-1 $-1 $57 $-1 $16 #
shell $-1 $-1 $-1 $58 $-1 $18 #
shell $-1 $-1 $-1 $59 $-1 $20 #
shell $-1 $-1 $-1 $60 $-1 $22 #
shell $-1 $-1 $-1 $61 $-1 $24 #
shell $-1 $-1 $-1 $62 $-1 $26 #
shell $-1 $-1 $-1 $63 $-1 $28 #
shell $-1 $-1 $-1 $64 $-1 $30 #
shell $-1 $-1 $-1 $65 $-1 $32 #
shell $-1 $-1 $-1 $66 $-1 $34 #
shell $-1 $-1 $-1 $67 $-1 $36 #
shell $-1 $-1 $-1 $68 $-1 $38 #
shell $-1 $-1 $-1 $69 $-1 $40 #
face $-1 $70 $71 $42 $-1 $72 forward single #
face $-1 $73 $74 $43 $-1 $75 forward single #
face $-1 $76 $77 $44 $-1 $78 reversed single #
face $-1 $79 $80 $45 $-1 $81 forward single #
face $-1 $82 $83 $46 $-1 $84 forward single #
face $-1 $85 $86 $47 $-1 $87 reversed single #
face $-1 $88 $89 $48 $-1 $90 forward single #
face $-1 $91 $92 $49 $-1 $93 forward single #
face $-1 $94 $95 $50 $-1 $96 reversed single #
face $-1 $97 $98 $51 $-1 $99 forward single #
face $-1 $100 $101 $52 $-1 $102 forward single #
face $-1 $103 $104 $53 $-1 $105 reversed single #
face $-1 $106 $107 $54 $-1 $108 forward single #
face $-1 $109 $110 $55 $-1 $111 forward single #
face $-1 $112 $113 $42 $-1 $114 reversed single #
loop $-1 $-1 $115 $56 #
plane-surface $-1 0 0 7.3711970633426303 0 0 1 1 0 0 forward_v I I I I #
face $-1 $116 $117 $43 $-1 $118 reversed single #
loop $-1 $-1 $119 $57 #
plane-surface $-1 0 -16.529310428477597 -1.2608593691318279 0 0 1 1 0 0 forward_v I I I I #
face $-1 $120 $121 $44 $-1 $122 reversed single #
loop $-1 $-1 $123 $58 #
plane-surface $-1 45.776340707996717 -2.1168505585252877 140.27701667714186 0 1 0 0.69465837861970381 0 0.71933979245794832 forward_v I I I I #
face $-1 $124 $125 $45 $-1 $126 forward single #
loop $-1 $127 $128 $59 #
cone-surface $-1 46.112071560784258 -0.31422790192543815 5.3757235045725889 -0.69465837861970381 0 -0.71933979245794832 0.17983494811448708 0 -0.17366459465492595 1 I I 0 1 0.25 forward I I I I #
face $-1 $129 $130 $46 $-1 $131 forward single #
loop $-1 $132 $133 $60 #
cone-surface $-1 46.112071560784258 2.3897060829743424 5.3757235045725889 -0.69465837861970381 0 -0.71933979245794832 0.17983494811448708 0 -0.17366459465492595 1 I I 0 1 0.25 forward I I I I #
face $-1 $134 $135 $47 $-1 $136 reversed single #
loop $-1 $-1 $137 $61 #
plane-surface $-1 -111.33617303327733 -13.316742220758542 75.374277504785397 0 1 0 -0.6560590369687036 0 0.75470957328743171 forward_v I I I I #
face $-1 $138 $139 $48 $-1 $140 forward single #
loop $-1 $141 $142 $62 #
cone-surface $-1 -44.854988086519789 -11.335926702496488 4.3336035560368913 0.6560590369687036 0 -0.75470957328743171 0.37735478664371586 0 0.3280295184843518 1 I I 0 1 0.5 forward I I I I #
face $-1 $143 $144 $49 $-1 $145 forward single #
loop $-1 $146 $147 $63 #
cone-surface $-1 -44.854988086519789 -8.3647034251034071 4.3336035560368913 0.6560590369687036 0 -0.75470957328743171 0.37735478664371586 0 0.3280295184843518 1 I I 0 1 0.5 forward I I I I #
face $-1 $148 $149 $50 $-1 $150 reversed single #
loop $-1 $-1 $151 $64 #
plane-surface $-1 -111.33617303327733 -2.2972019351068131 75.374277504785397 0 1 0 -0.6560590369687036 0 0.75470957328743171 forward_v I I I I #
face $-1 $152 $153 $51 $-1 $154 forward single #
loop $-1 $155 $156 $65 #
cone-surface $-1 -44.854988086519789 -0.31638641684475743 4.3336035560368913 0.6560590369687036 0 -0.75470957328743171 0.37735478664371586 0 0.3280295184843518 1 I I 0 1 0.5 forward I I I I #
face $-1 $157 $158 $52 $-1 $159 forward single #
loop $-1 $160 $161 $66 #
cone-surface $-1 -44.854988086519789 2.6548368605483219 4.3336035560368913 0.6560590369687036 0 -0.75470957328743171 0.37735478664371586 0 0.3280295184843518 1 I I 0 1 0.5 forward I I I I #
face $-1 $162 $163 $53 $-1 $164 reversed single #
loop $-1 $-1 $165 $67 #
plane-surface $-1 -111.33617303327733 8.7223383505449164 75.374277504785397 0 1 0 -0.6560590369687036 0 0.75470957328743171 forward_v I I I I #
face $-1 $166 $167 $54 $-1 $168 forward single #
loop $-1 $169 $170 $68 #
cone-surface $-1 -44.854988086519789 10.703153868806972 4.3336035560368913 0.6560590369687036 0 -0.75470957328743171 0.37735478664371586 0 0.3280295184843518 1 I I 0 1 0.5 forward I I I I #
face $-1 $171 $172 $55 $-1 $173 forward single #
loop $-1 $174 $175 $69 #
cone-surface $-1 -44.854988086519789 13.674377146200051 4.3336035560368913 0.6560590369687036 0 -0.75470957328743171 0.37735478664371586 0 0.3280295184843518 1 I I 0 1 0.5 forward I I I I #
face $-1 $176 $177 $42 $-1 $178 reversed single #
loop $-1 $-1 $179 $70 #
plane-surface $-1 0 0 -7.3711970633426303 0 0 1 1 0 0 forward_v I I I I #
coedge $-1 $180 $181 $182 $183 forward $71 $-1 #
face $-1 $184 $185 $43 $-1 $186 reversed single #
loop $-1 $-1 $187 $73 #
plane-surface $-1 0 -16.529310428477597 -5.1308109387196223 0 0 1 1 0 0 forward_v I I I I #
coedge $-1 $188 $189 $190 $191 reversed $74 $-1 #
face $-1 $192 $193 $44 $-1 $194 reversed single #
loop $-1 $-1 $195 $76 #
plane-surface $-1 -21.123880619638619 1.0377390905244539 70.999811065895827 0.69465837861970381 0 0.71933979245794832 0.71933979245794832 0 -0.69465837861970381 forward_v I I I I #
coedge $-1 $196 $197 $198 $199 reversed $77 $-1 #
face $-1 $-1 $200 $45 $-1 $201 forward single #
loop $-1 $202 $203 $79 #
cone-surface $-1 45.677910074146943 -0.31422790192543815 4.926136134286371 -0.69465837861970381 0 -0.71933979245794832 0.08991747405724354 0 -0.086832297327462976 1 I I -0.70710678118654746 0.70710678118654746 0.125 forward I I I I #
loop $-1 $-1 $204 $59 #
coedge $-1 $128 $128 $205 $206 reversed $80 $-1 #
face $-1 $-1 $207 $46 $-1 $208 forward single #
loop $-1 $209 $210 $82 #
cone-surface $-1 45.677910074146943 2.3897060829743424 4.926136134286371 -0.69465837861970381 0 -0.71933979245794832 0.08991747405724354 0 -0.086832297327462976 1 I I -0.70710678118654746 0.70710678118654746 0.125 forward I I I I #
loop $-1 $-1 $211 $60 #
coedge $-1 $133 $133 $212 $213 reversed $83 $-1 #
face $-1 $214 $215 $47 $-1 $216 reversed single #
loop $-1 $-1 $217 $85 #
plane-surface $-1 -48.153324991607398 -9.8503150637999468 2.69072679121129 -0.6560590369687036 0 0.75470957328743171 0.75470957328743171 0 0.6560590369687036 forward_v I I I I #
coedge $-1 $218 $219 $220 $221 reversed $86 $-1 #
face $-1 $-1 $222 $48 $-1 $223 forward single #
loop $-1 $224 $225 $88 #
cone-surface $-1 -44.084768930710901 -11.335926702496488 3.447567791474957 0.6560590369687036 0 -0.75470957328743171 0.18867739332185793 0 0.1640147592421759 1 I I -0.70710678118654813 0.70710678118654691 0.25 forward I I I I #
loop $-1 $-1 $226 $62 #
coedge $-1 $142 $142 $227 $228 reversed $89 $-1 #
face $-1 $-1 $229 $49 $-1 $230 forward single #
loop $-1 $231 $232 $91 #
cone-surface $-1 -44.084768930710901 -8.3647034251034071 3.447567791474957 0.6560590369687036 0 -0.75470957328743171 0.18867739332185793 0 0.1640147592421759 1 I I -0.70710678118654813 0.70710678118654691 0.25 forward I I I I #
loop $-1 $-1 $233 $63 #
coedge $-1 $147 $147 $234 $235 reversed $92 $-1 #
face $-1 $236 $237 $50 $-1 $238 reversed single #
loop $-1 $-1 $239 $94 #
plane-surface $-1 -48.153324991607398 1.1692252218517822 2.69072679121129 -0.6560590369687036 0 0.75470957328743171 0.75470957328743171 0 0.6560590369687036 forward_v I I I I #
coedge $-1 $240 $241 $242 $243 reversed $95 $-1 #
face $-1 $-1 $244 $51 $-1 $245 forward single #
loop $-1 $246 $247 $97 #
cone-surface $-1 -44.084768930710901 -0.31638641684475743 3.447567791474957 0.6560590369687036 0 -0.75470957328743171 0.18867739332185793 0 0.1640147592421759 1 I I -0.70710678118654813 0.70710678118654691 0.25 forward I I I I #
loop $-1 $-1 $248 $65 #
coedge $-1 $156 $156 $249 $250 reversed $98 $-1 #
face $-1 $-1 $251 $52 $-1 $252 forward single #
loop $-1 $253 $254 $100 #
cone-surface $-1 -44.084768930710901 2.6548368605483219 3.447567791474957 0.6560590369687036 0 -0.75470957328743171 0.18867739332185793 0 0.1640147592421759 1 I I -0.70710678118654813 0.70710678118654691 0.25 forward I I I I #
loop $-1 $-1 $255 $66 #
coedge $-1 $161 $161 $256 $257 reversed $101 $-1 #
face $-1 $258 $259 $53 $-1 $260 reversed single #
loop $-1 $-1 $261 $103 #
plane-surface $-1 -48.153324991607398 12.188765507503511 2.69072679121129 -0.6560590369687036 0 0.75470957328743171 0.75470957328743171 0 0.6560590369687036 forward_v I I I I #
coedge $-1 $262 $263 $264 $265 reversed $104 $-1 #
face $-1 $-1 $266 $54 $-1 $267 forward single #
loop $-1 $268 $269 $106 #
cone-surface $-1 -44.084768930710901 10.703153868806972 3.447567791474957 0.6560590369687036 0 -0.75470957328743171 0.18867739332185793 0 0.1640147592421759 1 I I -0.70710678118654813 0.70710678118654691 0.25 forward I I I I #
loop $-1 $-1 $270 $68 #
coedge $-1 $170 $170 $271 $272 reversed $107 $-1 #
face $-1 $-1 $273 $55 $-1 $274 forward single #
loop $-1 $275 $276 $109 #
cone-surface $-1 -44.084768930710901 13.674377146200051 3.447567791474957 0.6560590369687036 0 -0.75470957328743171 0.18867739332185793 0 0.1640147592421759 1 I I -0.70710678118654813 0.70710678118654691 0.25 forward I I I I #
loop $-1 $-1 $277 $69 #
coedge $-1 $175 $175 $278 $279 reversed $110 $-1 #
face $-1 $280 $281 $42 $-1 $282 reversed single #
loop $-1 $-1 $283 $112 #
plane-surface $-1 0 -19.741878636196653 0 0 1 0 0 0 1 forward_v I I I I #
coedge $-1 $284 $285 $286 $287 forward $113 $-1 #
coedge $-1 $288 $115 $289 $290 forward $71 $-1 #
coedge $-1 $115 $288 $291 $292 forward $71 $-1 #
coedge $-1 $293 $294 $115 $183 reversed $295 $-1 #
edge $-1 $296 -19.741878636196653 $297 19.741878636196653 $182 $298 forward 7 unknown #
face $-1 $299 $300 $43 $-1 $301 reversed single #
loop $-1 $-1 $302 $116 #
plane-surface $-1 0 -13.316742220758542 -3.1958351539257253 0 -1 0 0 0 -1 forward_v I I I I #
coedge $-1 $303 $304 $305 $306 reversed $117 $-1 #
coedge $-1 $307 $119 $308 $309 forward $74 $-1 #
coedge $-1 $119 $307 $310 $311 reversed $74 $-1 #
coedge $-1 $312 $313 $119 $191 forward $314 $-1 #
edge $-1 $315 5.0520870065197432 $316 11.477223421957854 $190 $317 forward 7 unknown #
face $-1 $318 $319 $44 $-1 $320 forward single #
loop $-1 $-1 $321 $120 #
plane-surface $-1 45.776340707996717 4.1923287395741955 140.27701667714186 0 -1 0 -0.69465837861970381 0 -0.71933979245794832 forward_v I I I I #
coedge $-1 $322 $323 $324 $325 reversed $121 $-1 #
coedge $-1 $197 $123 $326 $327 reversed $77 $-1 #
coedge $-1 $123 $196 $322 $328 reversed $77 $-1 #
coedge $-1 $324 $329 $123 $199 forward $330 $-1 #
edge $-1 $331 62.767311275228302 $332 66.038918600310453 $198 $333 forward 7 unknown #
loop $-1 $-1 $205 $124 #
plane-surface $-1 -21.123880619638619 1.0377390905244539 70.999811065895827 0.69465837861970381 0 0.71933979245794832 0.71933979245794832 0 -0.69465837861970381 forward_v I I I I #
loop $-1 $-1 $334 $79 #
coedge $-1 $203 $203 $204 $335 reversed $125 $-1 #
coedge $-1 $204 $204 $203 $335 forward $127 $-1 #
coedge $-1 $205 $205 $128 $206 forward $200 $-1 #
edge $-1 $336 0 $336 6.2831853071796004 $205 $337 forward 7 unknown #
loop $-1 $-1 $212 $129 #
plane-surface $-1 -21.123880619638619 1.0377390905244539 70.999811065895827 0.69465837861970381 0 0.71933979245794832 0.71933979245794832 0 -0.69465837861970381 forward_v I I I I #
loop $-1 $-1 $338 $82 #
coedge $-1 $210 $210 $211 $339 reversed $130 $-1 #
coedge $-1 $211 $211 $210 $339 forward $132 $-1 #
coedge $-1 $212 $212 $133 $213 forward $207 $-1 #
edge $-1 $340 0 $340 6.2831853071796004 $212 $341 forward 7 unknown #
face $-1 $342 $343 $47 $-1 $344 reversed single #
loop $-1 $-1 $345 $134 #
plane-surface $-1 -111.33617303327733 -6.3838879068413519 75.374277504785397 0 -1 0 0.6560590369687036 0 -0.75470957328743171 forward_v I I I I #
coedge $-1 $346 $347 $348 $349 reversed $135 $-1 #
coedge $-1 $219 $137 $350 $351 reversed $86 $-1 #
coedge $-1 $137 $218 $346 $352 reversed $86 $-1 #
coedge $-1 $348 $353 $137 $221 forward $354 $-1 #
edge $-1 $355 7.5147615250312541 $356 12.899026542073116 $220 $357 forward 7 unknown #
loop $-1 $-1 $227 $138 #
plane-surface $-1 -48.153324991607398 -9.8503150637999468 2.69072679121129 -0.6560590369687036 0 0.75470957328743171 0.75470957328743171 0 0.6560590369687036 forward_v I I I I #
loop $-1 $-1 $358 $88 #
coedge $-1 $225 $225 $226 $359 reversed $139 $-1 #
coedge $-1 $226 $226 $225 $359 forward $141 $-1 #
coedge $-1 $227 $227 $142 $228 forward $222 $-1 #
edge $-1 $360 0 $360 6.2831853071796004 $227 $361 forward 7 unknown #
loop $-1 $-1 $234 $143 #
plane-surface $-1 -48.153324991607398 -9.8503150637999468 2.69072679121129 -0.6560590369687036 0 0.75470957328743171 0.75470957328743171 0 0.6560590369687036 forward_v I I I I #
loop $-1 $-1 $362 $91 #
coedge $-1 $232 $232 $233 $363 reversed $144 $-1 #
coedge $-1 $233 $233 $232 $363 forward $146 $-1 #
coedge $-1 $234 $234 $147 $235 forward $229 $-1 #
edge $-1 $364 0 $364 6.2831853071796004 $234 $365 forward 7 unknown #
face $-1 $366 $367 $50 $-1 $368 forward single #
loop $-1 $-1 $369 $148 #
plane-surface $-1 -111.33617303327733 4.6356523788103772 75.374277504785397 0 -1 0 0.6560590369687036 0 -0.75470957328743171 forward_v I I I I #
coedge $-1 $370 $371 $372 $373 reversed $149 $-1 #
coedge $-1 $241 $151 $374 $375 reversed $95 $-1 #
coedge $-1 $151 $240 $370 $376 reversed $95 $-1 #
coedge $-1 $372 $377 $151 $243 forward $367 $-1 #
edge $-1 $378 7.5147615250312541 $379 12.899026542073116 $242 $380 forward 7 unknown #
loop $-1 $-1 $249 $152 #
plane-surface $-1 -48.153324991607398 1.1692252218517822 2.69072679121129 -0.6560590369687036 0 0.75470957328743171 0.75470957328743171 0 0.6560590369687036 forward_v I I I I #
loop $-1 $-1 $381 $97 #
coedge $-1 $247 $247 $248 $382 reversed $153 $-1 #
coedge $-1 $248 $248 $247 $382 forward $155 $-1 #
coedge $-1 $249 $249 $156 $250 forward $244 $-1 #
edge $-1 $383 0 $383 6.2831853071796004 $249 $384 forward 7 unknown #
loop $-1 $-1 $256 $157 #
plane-surface $-1 -48.153324991607398 1.1692252218517822 2.69072679121129 -0.6560590369687036 0 0.75470957328743171 0.75470957328743171 0 0.6560590369687036 forward_v I I I I #
loop $-1 $-1 $385 $100 #
coedge $-1 $254 $254 $255 $386 reversed $158 $-1 #
coedge $-1 $255 $255 $254 $386 forward $160 $-1 #
coedge $-1 $256 $256 $161 $257 forward $251 $-1 #
edge $-1 $387 0 $387 6.2831853071796004 $256 $388 forward 7 unknown #
face $-1 $389 $390 $53 $-1 $391 forward single #
loop $-1 $-1 $392 $162 #
plane-surface $-1 -111.33617303327733 15.655192664462106 75.374277504785397 0 -1 0 0.6560590369687036 0 -0.75470957328743171 forward_v I I I I #
coedge $-1 $393 $394 $395 $396 reversed $163 $-1 #
coedge $-1 $263 $165 $397 $398 reversed $104 $-1 #
coedge $-1 $165 $262 $393 $399 reversed $104 $-1 #
coedge $-1 $395 $400 $165 $265 forward $390 $-1 #
edge $-1 $401 7.5147615250312541 $402 12.899026542073116 $264 $403 forward 7 unknown #
loop $-1 $-1 $271 $166 #
plane-surface $-1 -48.153324991607398 12.188765507503511 2.69072679121129 -0.6560590369687036 0 0.75470957328743171 0.75470957328743171 0 0.6560590369687036 forward_v I I I I #
loop $-1 $-1 $404 $106 #
coedge $-1 $269 $269 $270 $405 reversed $167 $-1 #
coedge $-1 $270 $270 $269 $405 forward $169 $-1 #
coedge $-1 $271 $271 $170 $272 forward $266 $-1 #
edge $-1 $406 0 $406 6.2831853071796004 $271 $407 forward 7 unknown #
loop $-1 $-1 $278 $171 #
plane-surface $-1 -48.153324991607398 12.188765507503511 2.69072679121129 -0.6560590369687036 0 0.75470957328743171 0.75470957328743171 0 0.6560590369687036 forward_v I I I I #
loop $-1 $-1 $408 $109 #
coedge $-1 $276 $276 $277 $409 reversed $172 $-1 #
coedge $-1 $277 $277 $276 $409 forward $174 $-1 #
coedge $-1 $278 $278 $175 $279 forward $273 $-1 #
edge $-1 $410 0 $410 6.2831853071796004 $278 $411 forward 7 unknown #
face $-1 $412 $413 $42 $-1 $414 reversed single #
loop $-1 $-1 $415 $176 #
plane-surface $-1 -48.153324991607413 0 0 1 0 0 0 0 -1 forward_v I I I I #
coedge $-1 $416 $291 $417 $418 forward $177 $-1 #
coedge $-1 $419 $179 $416 $420 forward $113 $-1 #
coedge $-1 $179 $419 $421 $422 forward $113 $-1 #
coedge $-1 $294 $293 $179 $287 reversed $295 $-1 #
edge $-1 $423 -19.741878636196653 $424 19.741878636196653 $286 $425 forward 7 unknown #
coedge $-1 $181 $180 $426 $427 forward $71 $-1 #
coedge $-1 $428 $429 $180 $290 reversed $413 $-1 #
edge $-1 $297 -48.153324991607413 $430 48.153324991607413 $289 $431 forward 7 unknown #
coedge $-1 $283 $432 $181 $292 reversed $177 $-1 #
edge $-1 $433 -48.153324991607413 $296 48.153324991607413 $291 $434 forward 7 unknown #
coedge $-1 $286 $182 $432 $435 forward $295 $-1 #
coedge $-1 $182 $286 $428 $436 reversed $295 $-1 #
loop $-1 $-1 $293 $412 #
vertex $-1 $183 $437 #
vertex $-1 $183 $438 #
straight-curve $-1 48.153324991607413 0 7.3711970633426303 0 1 0 I I #
face $-1 $439 $440 $43 $-1 $441 reversed single #
loop $-1 $-1 $442 $184 #
plane-surface $-1 -48.153324991607413 0 0 1 0 0 0 0 -1 forward_v I I I I #
coedge $-1 $443 $308 $313 $444 reversed $185 $-1 #
coedge $-1 $445 $187 $446 $447 reversed $117 $-1 #
coedge $-1 $187 $445 $443 $448 forward $117 $-1 #
coedge $-1 $313 $312 $187 $306 forward $314 $-1 #
edge $-1 $449 -11.477223421957854 $450 -5.0520870065197432 $305 $451 forward 7 unknown #
coedge $-1 $189 $188 $442 $452 reversed $74 $-1 #
coedge $-1 $302 $453 $188 $309 reversed $185 $-1 #
edge $-1 $315 -48.153324991607413 $454 48.153324991607413 $308 $455 forward 7 unknown #
coedge $-1 $456 $457 $189 $311 forward $440 $-1 #
edge $-1 $316 -48.153324991607413 $458 48.153324991607413 $310 $459 forward 7 unknown #
coedge $-1 $305 $190 $457 $460 forward $314 $-1 #
coedge $-1 $190 $305 $302 $444 forward $314 $-1 #
loop $-1 $-1 $190 $439 #
vertex $-1 $191 $461 #
vertex $-1 $460 $462 #
straight-curve $-1 48.153324991607413 -8.2646552142387986 -1.2608593691318279 0 -1 0 I I #
face $-1 $-1 $330 $44 $-1 $463 reversed single #
loop $-1 $-1 $464 $192 #
plane-surface $-1 0 0 7.3711970633426303 0 0 1 1 0 0 forward_v I I I I #
coedge $-1 $465 $466 $467 $468 reversed $193 $-1 #
coedge $-1 $469 $195 $197 $328 forward $121 $-1 #
coedge $-1 $195 $469 $465 $470 forward $121 $-1 #
coedge $-1 $467 $198 $195 $325 forward $330 $-1 #
edge $-1 $332 -2.6357201037875146 $471 3.6734591943119685 $324 $472 forward 7 unknown #
coedge $-1 $473 $474 $196 $327 forward $319 $-1 #
edge $-1 $475 21.877306154582438 $331 25.265154637609054 $326 $476 forward 7 unknown #
edge $-1 $332 -96.306649983214839 $475 -91.596986318633583 $197 $477 forward 7 unknown #
coedge $-1 $198 $467 $473 $478 reversed $330 $-1 #
loop $-1 $-1 $467 $318 #
vertex $-1 $478 $479 #
vertex $-1 $199 $480 #
straight-curve $-1 48.153324991607413 -2.1168505585252877 70.138508338570929 0 0 -1 I I #
coedge $-1 $334 $334 $-1 $481 reversed $202 $-1 #
edge $-1 $482 0 $482 6.2831853071796004 $203 $483 forward 7 unknown #
vertex $-1 $206 $484 #
ellipse-curve $-1 46.459400750094098 -0.31422790192543815 5.735393400801553 0.69465837861970381 0 0.71933979245794832 0.17983494811448708 0 -0.17366459465492595 1 I I #
coedge $-1 $338 $338 $-1 $485 reversed $209 $-1 #
edge $-1 $486 0 $486 6.2831853071796004 $210 $487 forward 7 unknown #
vertex $-1 $213 $488 #
ellipse-curve $-1 46.459400750094098 2.3897060829743424 5.735393400801553 0.69465837861970381 0 0.71933979245794832 0.17983494811448708 0 -0.17366459465492595 1 I I #
face $-1 $-1 $354 $47 $-1 $489 forward single #
loop $-1 $-1 $490 $214 #
plane-surface $-1 -48.153324991607413 0 0 1 0 0 0 0 -1 forward_v I I I I #
coedge $-1 $491 $492 $493 $494 reversed $215 $-1 #
coedge $-1 $495 $217 $219 $352 forward $135 $-1 #
coedge $-1 $217 $495 $491 $496 forward $135 $-1 #
coedge $-1 $493 $220 $217 $349 forward $354 $-1 #
edge $-1 $356 -8.3915846888585683 $497 -1.4587303749413785 $348 $498 forward 7 unknown #
coedge $-1 $499 $500 $218 $351 forward $343 $-1 #
edge $-1 $501 -34.996411961181423 $355 -30.315941689050067 $350 $502 forward 7 unknown #
edge $-1 $356 -7.1342211727732323 $501 1.888283279974768e-014 $219 $503 forward 7 unknown #
coedge $-1 $220 $493 $499 $504 forward $354 $-1 #
loop $-1 $-1 $493 $342 #
vertex $-1 $351 $505 #
vertex $-1 $221 $506 #
straight-curve $-1 -55.668086516638667 -13.316742220758542 7.3711970633426276 1 0 0 I I #
coedge $-1 $358 $358 $-1 $507 reversed $224 $-1 #
edge $-1 $508 0 $508 6.2831853071796004 $225 $509 forward 7 unknown #
vertex $-1 $228 $510 #
ellipse-curve $-1 -45.461192483086485 -11.335926702496488 5.0309619272769508 -0.6560590369687036 0 0.75470957328743171 0.37735478664371586 0 0.3280295184843518 1 I I #
coedge $-1 $362 $362 $-1 $511 reversed $231 $-1 #
edge $-1 $512 0 $512 6.2831853071796004 $232 $513 forward 7 unknown #
vertex $-1 $235 $514 #
ellipse-curve $-1 -45.461192483086485 -8.3647034251034071 5.0309619272769508 -0.6560590369687036 0 0.75470957328743171 0.37735478664371586 0 0.3280295184843518 1 I I #
face $-1 $-1 $515 $50 $-1 $516 reversed single #
loop $-1 $-1 $242 $236 #
plane-surface $-1 0 0 7.3711970633426303 0 0 1 1 0 0 forward_v I I I I #
coedge $-1 $517 $518 $519 $520 reversed $237 $-1 #
coedge $-1 $521 $239 $241 $376 forward $149 $-1 #
coedge $-1 $239 $521 $517 $522 forward $149 $-1 #
coedge $-1 $519 $242 $239 $373 forward $367 $-1 #
edge $-1 $379 -2.8818145460327043 $523 4.0510397678844861 $372 $524 forward 7 unknown #
coedge $-1 $525 $526 $240 $375 forward $515 $-1 #
edge $-1 $527 -34.996411961181423 $378 -30.315941689050067 $374 $528 forward 7 unknown #
edge $-1 $379 -7.1342211727732323 $527 1.888283279974768e-014 $241 $529 forward 7 unknown #
coedge $-1 $242 $519 $525 $530 forward $367 $-1 #
vertex $-1 $243 $531 #
vertex $-1 $243 $532 #
straight-curve $-1 -55.668086516638667 -2.2972019351068131 7.3711970633426276 1 0 0 I I #
coedge $-1 $381 $381 $-1 $533 reversed $246 $-1 #
edge $-1 $534 0 $534 6.2831853071796004 $247 $535 forward 7 unknown #
vertex $-1 $250 $536 #
ellipse-curve $-1 -45.461192483086485 -0.31638641684475743 5.0309619272769508 -0.6560590369687036 0 0.75470957328743171 0.37735478664371586 0 0.3280295184843518 1 I I #
coedge $-1 $385 $385 $-1 $537 reversed $253 $-1 #
edge $-1 $538 0 $538 6.2831853071796004 $254 $539 forward 7 unknown #
vertex $-1 $257 $540 #
ellipse-curve $-1 -45.461192483086485 2.6548368605483219 5.0309619272769508 -0.6560590369687036 0 0.75470957328743171 0.37735478664371586 0 0.3280295184843518 1 I I #
face $-1 $-1 $541 $53 $-1 $542 reversed single #
loop $-1 $-1 $264 $258 #
plane-surface $-1 0 0 7.3711970633426303 0 0 1 1 0 0 forward_v I I I I #
coedge $-1 $543 $544 $545 $546 reversed $259 $-1 #
coedge $-1 $547 $261 $263 $399 forward $163 $-1 #
coedge $-1 $261 $547 $543 $548 forward $163 $-1 #
coedge $-1 $545 $264 $261 $396 forward $390 $-1 #
edge $-1 $402 2.6279555967931607 $549 9.5608099107103506 $395 $550 forward 7 unknown #
coedge $-1 $551 $552 $262 $398 forward $541 $-1 #
edge $-1 $553 -34.996411961181423 $401 -30.315941689050067 $397 $554 forward 7 unknown #
edge $-1 $402 -7.1342211727732323 $553 1.888283279974768e-014 $263 $555 forward 7 unknown #
coedge $-1 $264 $545 $551 $556 forward $390 $-1 #
vertex $-1 $265 $557 #
vertex $-1 $265 $558 #
straight-curve $-1 -55.668086516638667 8.7223383505449164 7.3711970633426276 1 0 0 I I #
coedge $-1 $404 $404 $-1 $559 reversed $268 $-1 #
edge $-1 $560 0 $560 6.2831853071796004 $269 $561 forward 7 unknown #
vertex $-1 $272 $562 #
ellipse-curve $-1 -45.461192483086485 10.703153868806972 5.0309619272769508 -0.6560590369687036 0 0.75470957328743171 0.37735478664371586 0 0.3280295184843518 1 I I #
coedge $-1 $408 $408 $-1 $563 reversed $275 $-1 #
edge $-1 $564 0 $564 6.2831853071796004 $276 $565 forward 7 unknown #
vertex $-1 $279 $566 #
ellipse-curve $-1 -45.461192483086485 13.674377146200051 5.0309619272769508 -0.6560590369687036 0 0.75470957328743171 0.37735478664371586 0 0.3280295184843518 1 I I #
face $-1 $-1 $295 $42 $-1 $567 reversed single #
loop $-1 $-1 $428 $280 #
plane-surface $-1 0 19.741878636196653 0 0 -1 0 0 0 -1 forward_v I I I I #
coedge $-1 $568 $426 $429 $569 forward $281 $-1 #
coedge $-1 $432 $283 $284 $420 reversed $177 $-1 #
coedge $-1 $426 $568 $283 $418 reversed $281 $-1 #
edge $-1 $433 -7.3711970633426303 $570 7.3711970633426303 $417 $571 forward 7 unknown #
coedge $-1 $285 $284 $568 $572 forward $113 $-1 #
edge $-1 $424 -48.153324991607413 $570 48.153324991607413 $416 $573 forward 7 unknown #
coedge $-1 $429 $428 $285 $422 reversed $413 $-1 #
edge $-1 $574 -48.153324991607413 $423 48.153324991607413 $421 $575 forward 7 unknown #
vertex $-1 $287 $576 #
vertex $-1 $435 $577 #
straight-curve $-1 48.153324991607413 0 -7.3711970633426303 0 -1 0 I I #
coedge $-1 $415 $417 $288 $427 reversed $281 $-1 #
edge $-1 $430 -19.741878636196653 $433 19.741878636196653 $426 $578 forward 7 unknown #
coedge $-1 $421 $289 $294 $436 forward $413 $-1 #
coedge $-1 $289 $421 $415 $569 reversed $413 $-1 #
vertex $-1 $290 $579 #
straight-curve $-1 0 19.741878636196653 7.3711970633426303 -1 0 0 I I #
coedge $-1 $291 $416 $293 $435 reversed $177 $-1 #
vertex $-1 $427 $580 #
straight-curve $-1 0 -19.741878636196653 7.3711970633426303 1 0 0 I I #
edge $-1 $296 -7.3711970633426303 $424 7.3711970633426303 $293 $581 forward 7 unknown #
edge $-1 $297 -7.3711970633426303 $423 7.3711970633426303 $294 $582 forward 7 unknown #
point $-1 48.153324991607413 -19.741878636196653 7.3711970633426303 #
point $-1 48.153324991607413 19.741878636196653 7.3711970633426303 #
face $-1 $-1 $314 $43 $-1 $583 reversed single #
loop $-1 $-1 $310 $299 #
plane-surface $-1 0 -19.741878636196653 0 0 1 0 0 0 1 forward_v I I I I #
coedge $-1 $584 $585 $307 $452 forward $300 $-1 #
coedge $-1 $453 $302 $304 $448 reversed $185 $-1 #
edge $-1 $450 -3.5328933617567597 $315 0.33705820783103468 $313 $586 forward 7 unknown #
coedge $-1 $304 $303 $587 $588 reversed $117 $-1 #
coedge $-1 $457 $456 $303 $447 forward $440 $-1 #
edge $-1 $589 -48.153324991607413 $449 48.153324991607413 $446 $590 forward 7 unknown #
edge $-1 $591 -48.153324991607413 $450 48.153324991607413 $443 $592 forward 7 unknown #
vertex $-1 $447 $593 #
vertex $-1 $306 $594 #
straight-curve $-1 48.153324991607413 -8.2646552142387986 -5.1308109387196223 0 1 0 I I #
edge $-1 $458 -11.477223421957854 $454 -5.0520870065197432 $442 $595 forward 7 unknown #
coedge $-1 $308 $443 $584 $596 reversed $185 $-1 #
vertex $-1 $452 $597 #
straight-curve $-1 0 -13.316742220758542 -1.2608593691318279 -1 0 0 I I #
coedge $-1 $446 $310 $585 $598 forward $440 $-1 #
coedge $-1 $310 $446 $312 $460 reversed $440 $-1 #
vertex $-1 $598 $599 #
straight-curve $-1 0 -19.741878636196653 -1.2608593691318279 -1 0 0 I I #
edge $-1 $316 1.2608593691318279 $449 5.1308109387196223 $312 $600 forward 7 unknown #
point $-1 48.153324991607413 -13.316742220758542 -1.2608593691318279 #
point $-1 48.153324991607413 -19.741878636196653 -1.2608593691318279 #
plane-surface $-1 48.153324991607413 0 0 -1 0 0 0 0 1 forward_v I I I I #
coedge $-1 $474 $473 $466 $601 forward $319 $-1 #
coedge $-1 $466 $321 $323 $470 reversed $193 $-1 #
coedge $-1 $321 $465 $464 $601 reversed $193 $-1 #
coedge $-1 $329 $324 $321 $468 forward $330 $-1 #
edge $-1 $471 -66.038918600310453 $602 -62.767311275228302 $467 $603 forward 7 unknown #
coedge $-1 $323 $322 $474 $604 reversed $121 $-1 #
edge $-1 $605 91.596986318633583 $471 96.306649983214839 $465 $606 forward 7 unknown #
vertex $-1 $325 $607 #
straight-curve $-1 48.153324991607413 0.51886954526222695 4.0995897382604909 0 1 0 I I #
coedge $-1 $464 $326 $329 $478 forward $319 $-1 #
coedge $-1 $326 $464 $469 $604 forward $319 $-1 #
vertex $-1 $327 $608 #
straight-curve $-1 22.888170353998358 -2.1168505585252877 7.3711970633426347 1 0 0 I I #
straight-curve $-1 -21.123880619638619 -2.1168505585252877 70.999811065895827 -0.71933979245794832 0 0.69465837861970381 I I #
edge $-1 $331 -2.1168505585252877 $602 4.1923287395741955 $329 $609 forward 7 unknown #
point $-1 48.153324991607413 -2.1168505585252877 7.3711970633426303 #
point $-1 48.153324991607413 -2.1168505585252877 4.0995897382604767 #
edge $-1 $610 1 $610 0 $334 $-1 forward 7 unknown #
vertex $-1 $335 $611 #
ellipse-curve $-1 45.764742371474405 -0.31422790192543815 5.0160536083436149 0.69465837861970381 0 0.71933979245794832 0.17983494811448708 0 -0.17366459465492595 1 I I #
point $-1 46.639235698208594 -0.31422790192543815 5.561728806146637 #
edge $-1 $612 1 $612 0 $338 $-1 forward 7 unknown #
vertex $-1 $339 $613 #
ellipse-curve $-1 45.764742371474405 2.3897060829743424 5.0160536083436149 0.69465837861970381 0 0.71933979245794832 0.17983494811448708 0 -0.17366459465492595 1 I I #
point $-1 46.639235698208594 2.3897060829743424 5.561728806146637 #
plane-surface $-1 0 0 7.3711970633426303 0 0 1 1 0 0 forward_v I I I I #
coedge $-1 $500 $499 $492 $614 forward $343 $-1 #
coedge $-1 $492 $345 $347 $496 reversed $215 $-1 #
coedge $-1 $345 $491 $490 $614 reversed $215 $-1 #
coedge $-1 $353 $348 $345 $494 forward $354 $-1 #
edge $-1 $497 -12.899026542073116 $615 -7.5147615250312541 $493 $616 forward 7 unknown #
coedge $-1 $347 $346 $500 $617 reversed $135 $-1 #
edge $-1 $618 -1.888283279974768e-014 $497 7.1342211727732323 $491 $619 forward 7 unknown #
vertex $-1 $349 $620 #
straight-curve $-1 -42.769059974565558 -4.9251575318999734 7.3711970633426311 0 1 0 I I #
coedge $-1 $490 $350 $353 $504 reversed $343 $-1 #
coedge $-1 $350 $490 $495 $617 forward $343 $-1 #
vertex $-1 $351 $621 #
straight-curve $-1 -48.153324991607413 -13.316742220758542 37.687138752392698 0 0 1 I I #
straight-curve $-1 -48.153324991607398 -13.316742220758542 2.69072679121129 -0.75470957328743171 0 -0.6560590369687036 I I #
edge $-1 $615 6.3838879068413519 $355 13.316742220758542 $499 $622 forward 7 unknown #
point $-1 -48.153324991607413 -13.316742220758542 7.3711970633426303 #
point $-1 -42.76905997456555 -13.316742220758542 7.3711970633426303 #
edge $-1 $623 1 $623 0 $358 $-1 forward 7 unknown #
vertex $-1 $359 $624 #
ellipse-curve $-1 -44.248783689953079 -11.335926702496488 3.6362451847968145 -0.6560590369687036 0 0.75470957328743171 0.37735478664371586 0 0.3280295184843518 1 I I #
point $-1 -45.083837696442785 -11.335926702496488 5.358991445761319 #
edge $-1 $625 1 $625 0 $362 $-1 forward 7 unknown #
vertex $-1 $363 $626 #
ellipse-curve $-1 -44.248783689953079 -8.3647034251034071 3.6362451847968145 -0.6560590369687036 0 0.75470957328743171 0.37735478664371586 0 0.3280295184843518 1 I I #
point $-1 -45.083837696442785 -8.3647034251034071 5.358991445761319 #
loop $-1 $-1 $374 $366 #
plane-surface $-1 -48.153324991607413 0 0 1 0 0 0 0 -1 forward_v I I I I #
coedge $-1 $518 $369 $371 $522 reversed $237 $-1 #
coedge $-1 $369 $517 $627 $628 reversed $237 $-1 #
coedge $-1 $377 $372 $369 $520 forward $367 $-1 #
edge $-1 $523 -12.899026542073116 $629 -7.5147615250312541 $519 $630 forward 7 unknown #
coedge $-1 $371 $370 $526 $631 reversed $149 $-1 #
edge $-1 $632 -1.888283279974768e-014 $523 7.1342211727732323 $517 $633 forward 7 unknown #
vertex $-1 $373 $634 #
straight-curve $-1 -42.769059974565558 0.58461261092589112 7.3711970633426311 0 1 0 I I #
coedge $-1 $627 $374 $377 $530 reversed $515 $-1 #
coedge $-1 $374 $627 $521 $631 forward $515 $-1 #
vertex $-1 $375 $635 #
straight-curve $-1 -48.153324991607413 -2.2972019351068131 37.687138752392698 0 0 1 I I #
straight-curve $-1 -48.153324991607398 -2.2972019351068131 2.69072679121129 -0.75470957328743171 0 -0.6560590369687036 I I #
edge $-1 $629 -4.6356523788103772 $378 2.2972019351068131 $525 $636 forward 7 unknown #
point $-1 -48.153324991607413 -2.2972019351068131 7.3711970633426303 #
point $-1 -42.76905997456555 -2.2972019351068131 7.3711970633426303 #
edge $-1 $637 1 $637 0 $381 $-1 forward 7 unknown #
vertex $-1 $382 $638 #
ellipse-curve $-1 -44.248783689953079 -0.31638641684475743 3.6362451847968145 -0.6560590369687036 0 0.75470957328743171 0.37735478664371586 0 0.3280295184843518 1 I I #
point $-1 -45.083837696442785 -0.31638641684475743 5.358991445761319 #
edge $-1 $639 1 $639 0 $385 $-1 forward 7 unknown #
vertex $-1 $386 $640 #
ellipse-curve $-1 -44.248783689953079 2.6548368605483219 3.6362451847968145 -0.6560590369687036 0 0.75470957328743171 0.37735478664371586 0 0.3280295184843518 1 I I #
point $-1 -45.083837696442785 2.6548368605483219 5.358991445761319 #
loop $-1 $-1 $397 $389 #
plane-surface $-1 -48.153324991607413 0 0 1 0 0 0 0 -1 forward_v I I I I #
coedge $-1 $544 $392 $394 $548 reversed $259 $-1 #
coedge $-1 $392 $543 $641 $642 reversed $259 $-1 #
coedge $-1 $400 $395 $392 $546 forward $390 $-1 #
edge $-1 $549 -12.899026542073116 $643 -7.5147615250312541 $545 $644 forward 7 unknown #
coedge $-1 $394 $393 $552 $645 reversed $163 $-1 #
edge $-1 $646 -1.888283279974768e-014 $549 7.1342211727732323 $543 $647 forward 7 unknown #
vertex $-1 $396 $648 #
straight-curve $-1 -42.769059974565558 6.0943827537517556 7.3711970633426311 0 1 0 I I #
coedge $-1 $641 $397 $400 $556 reversed $541 $-1 #
coedge $-1 $397 $641 $547 $645 forward $541 $-1 #
vertex $-1 $398 $649 #
straight-curve $-1 -48.153324991607413 8.7223383505449164 37.687138752392698 0 0 1 I I #
straight-curve $-1 -48.153324991607398 8.7223383505449164 2.69072679121129 -0.75470957328743171 0 -0.6560590369687036 I I #
edge $-1 $643 -15.655192664462106 $401 -8.7223383505449164 $551 $650 forward 7 unknown #
point $-1 -48.153324991607413 8.7223383505449164 7.3711970633426303 #
point $-1 -42.76905997456555 8.7223383505449164 7.3711970633426303 #
edge $-1 $651 1 $651 0 $404 $-1 forward 7 unknown #
vertex $-1 $405 $652 #
ellipse-curve $-1 -44.248783689953079 10.703153868806972 3.6362451847968145 -0.6560590369687036 0 0.75470957328743171 0.37735478664371586 0 0.3280295184843518 1 I I #
point $-1 -45.083837696442785 10.703153868806972 5.358991445761319 #
edge $-1 $653 1 $653 0 $408 $-1 forward 7 unknown #
vertex $-1 $409 $654 #
ellipse-curve $-1 -44.248783689953079 13.674377146200051 3.6362451847968145 -0.6560590369687036 0 0.75470957328743171 0.37735478664371586 0 0.3280295184843518 1 I I #
point $-1 -45.083837696442785 13.674377146200051 5.358991445761319 #
plane-surface $-1 48.153324991607413 0 0 -1 0 0 0 0 1 forward_v I I I I #
coedge $-1 $417 $415 $419 $572 reversed $281 $-1 #
edge $-1 $430 -7.3711970633426303 $574 7.3711970633426303 $429 $655 forward 7 unknown #
vertex $-1 $572 $656 #
straight-curve $-1 -48.153324991607413 -19.741878636196653 0 0 0 -1 I I #
edge $-1 $570 -19.741878636196653 $574 19.741878636196653 $568 $657 forward 7 unknown #
straight-curve $-1 0 -19.741878636196653 -7.3711970633426303 -1 0 0 I I #
vertex $-1 $422 $658 #
straight-curve $-1 0 19.741878636196653 -7.3711970633426303 1 0 0 I I #
point $-1 48.153324991607413 19.741878636196653 -7.3711970633426303 #
point $-1 48.153324991607413 -19.741878636196653 -7.3711970633426303 #
straight-curve $-1 -48.153324991607413 0 7.3711970633426303 0 -1 0 I I #
point $-1 -48.153324991607413 19.741878636196653 7.3711970633426303 #
point $-1 -48.153324991607413 -19.741878636196653 7.3711970633426303 #
straight-curve $-1 48.153324991607413 -19.741878636196653 0 0 0 -1 I I #
straight-curve $-1 48.153324991607413 19.741878636196653 0 0 0 -1 I I #
plane-surface $-1 48.153324991607413 0 0 -1 0 0 0 0 1 forward_v I I I I #
coedge $-1 $587 $442 $453 $596 forward $300 $-1 #
coedge $-1 $442 $587 $456 $598 reversed $300 $-1 #
straight-curve $-1 48.153324991607413 -13.316742220758542 -1.5979175769628626 0 0 1 I I #
coedge $-1 $585 $584 $445 $588 forward $300 $-1 #
edge $-1 $591 5.0520870065197432 $589 11.477223421957854 $587 $659 forward 7 unknown #
vertex $-1 $447 $660 #
straight-curve $-1 0 -19.741878636196653 -5.1308109387196223 1 0 0 I I #
vertex $-1 $588 $661 #
straight-curve $-1 0 -13.316742220758542 -5.1308109387196223 1 0 0 I I #
point $-1 48.153324991607413 -19.741878636196653 -5.1308109387196223 #
point $-1 48.153324991607413 -13.316742220758542 -5.1308109387196223 #
straight-curve $-1 -48.153324991607413 -8.2646552142387986 -1.2608593691318279 0 1 0 I I #
edge $-1 $454 -0.33705820783103468 $591 3.5328933617567597 $584 $662 forward 7 unknown #
point $-1 -48.153324991607413 -13.316742220758542 -1.2608593691318279 #
edge $-1 $458 1.2608593691318279 $589 5.1308109387196223 $585 $663 forward 7 unknown #
point $-1 -48.153324991607413 -19.741878636196653 -1.2608593691318279 #
straight-curve $-1 48.153324991607413 -19.741878636196653 0 0 0 -1 I I #
edge $-1 $602 -25.265154637609054 $605 -21.877306154582438 $464 $664 forward 7 unknown #
vertex $-1 $601 $665 #
straight-curve $-1 48.153324991607413 4.1923287395741955 70.138508338570929 0 0 1 I I #
edge $-1 $605 -3.6734591943119685 $475 2.6357201037875146 $474 $666 forward 7 unknown #
vertex $-1 $604 $667 #
straight-curve $-1 -21.123880619638619 4.1923287395741955 70.999811065895827 0.71933979245794832 0 -0.69465837861970381 I I #
point $-1 48.153324991607413 4.1923287395741955 4.0995897382604767 #
point $-1 44.765476508580797 -2.1168505585252877 7.3711970633426276 #
straight-curve $-1 48.153324991607413 0 7.3711970633426303 0 1 0 I I #
vertex $-1 $481 $668 #
point $-1 45.944577319588895 -0.31422790192543815 4.8423890136886882 #
vertex $-1 $485 $669 #
point $-1 45.944577319588895 2.3897060829743424 4.8423890136886882 #
edge $-1 $615 30.315941689050067 $618 34.996411961181423 $490 $670 forward 7 unknown #
vertex $-1 $504 $671 #
straight-curve $-1 -55.668086516638667 -6.3838879068413519 7.3711970633426276 -1 0 0 I I #
edge $-1 $618 1.4587303749413785 $501 8.3915846888585683 $500 $672 forward 7 unknown #
vertex $-1 $617 $673 #
straight-curve $-1 -48.153324991607398 -6.3838879068413519 2.69072679121129 0.75470957328743171 0 0.6560590369687036 I I #
point $-1 -42.76905997456555 -6.3838879068413519 7.3711970633426303 #
point $-1 -48.153324991607413 -13.316742220758542 2.6907267912112776 #
straight-curve $-1 -48.153324991607413 0 7.3711970633426303 0 -1 0 I I #
vertex $-1 $507 $674 #
point $-1 -43.871428903309358 -11.335926702496488 3.9642747032811663 #
vertex $-1 $511 $675 #
point $-1 -43.871428903309358 -8.3647034251034071 3.9642747032811663 #
coedge $-1 $526 $525 $518 $628 forward $515 $-1 #
edge $-1 $629 30.315941689050067 $632 34.996411961181423 $627 $676 forward 7 unknown #
vertex $-1 $530 $677 #
straight-curve $-1 -55.668086516638667 4.6356523788103772 7.3711970633426276 -1 0 0 I I #
edge $-1 $632 -4.0510397678844861 $527 2.8818145460327043 $526 $678 forward 7 unknown #
vertex $-1 $631 $679 #
straight-curve $-1 -48.153324991607398 4.6356523788103772 2.69072679121129 0.75470957328743171 0 0.6560590369687036 I I #
point $-1 -42.76905997456555 4.6356523788103772 7.3711970633426303 #
point $-1 -48.153324991607413 -2.2972019351068131 2.6907267912112776 #
straight-curve $-1 -48.153324991607413 0 7.3711970633426303 0 -1 0 I I #
vertex $-1 $533 $680 #
point $-1 -43.871428903309358 -0.31638641684475743 3.9642747032811663 #
vertex $-1 $537 $681 #
point $-1 -43.871428903309358 2.6548368605483219 3.9642747032811663 #
coedge $-1 $552 $551 $544 $642 forward $541 $-1 #
edge $-1 $643 30.315941689050067 $646 34.996411961181423 $641 $682 forward 7 unknown #
vertex $-1 $556 $683 #
straight-curve $-1 -55.668086516638667 15.655192664462106 7.3711970633426276 -1 0 0 I I #
edge $-1 $646 -9.5608099107103506 $553 -2.6279555967931607 $552 $684 forward 7 unknown #
vertex $-1 $645 $685 #
straight-curve $-1 -48.153324991607398 15.655192664462106 2.69072679121129 0.75470957328743171 0 0.6560590369687036 I I #
point $-1 -42.76905997456555 15.655192664462106 7.3711970633426303 #
point $-1 -48.153324991607413 8.7223383505449164 2.6907267912112776 #
straight-curve $-1 -48.153324991607413 0 7.3711970633426303 0 -1 0 I I #
vertex $-1 $559 $686 #
point $-1 -43.871428903309358 10.703153868806972 3.9642747032811663 #
vertex $-1 $563 $687 #
point $-1 -43.871428903309358 13.674377146200051 3.9642747032811663 #
straight-curve $-1 -48.153324991607413 19.741878636196653 0 0 0 -1 I I #
point $-1 -48.153324991607413 -19.741878636196653 -7.3711970633426303 #
straight-curve $-1 -48.153324991607413 0 -7.3711970633426303 0 1 0 I I #
point $-1 -48.153324991607413 19.741878636196653 -7.3711970633426303 #
straight-curve $-1 -48.153324991607413 -8.2646552142387986 -5.1308109387196223 0 -1 0 I I #
point $-1 -48.153324991607413 -19.741878636196653 -5.1308109387196223 #
point $-1 -48.153324991607413 -13.316742220758542 -5.1308109387196223 #
straight-curve $-1 -48.153324991607413 -13.316742220758542 -1.5979175769628626 0 0 -1 I I #
straight-curve $-1 -48.153324991607413 -19.741878636196653 0 0 0 -1 I I #
straight-curve $-1 22.888170353998358 4.1923287395741955 7.3711970633426347 -1 0 0 I I #
point $-1 48.153324991607413 4.1923287395741955 7.3711970633426303 #
straight-curve $-1 44.765476508580804 0.51886954526222695 7.3711970633426276 0 -1 0 I I #
point $-1 44.765476508580797 4.1923287395741955 7.3711970633426276 #
point $-1 45.591077776819482 -0.31422790192543815 4.8362186602291271 #
point $-1 45.591077776819482 2.3897060829743424 4.8362186602291271 #
straight-curve $-1 -48.153324991607413 -6.3838879068413519 37.687138752392698 0 0 -1 I I #
point $-1 -48.153324991607413 -6.3838879068413519 7.3711970633426303 #
straight-curve $-1 -48.153324991607413 -4.9251575318999734 2.6907267912112749 0 -1 0 I I #
point $-1 -48.153324991607413 -6.3838879068413519 2.6907267912112776 #
point $-1 -43.920754171468722 -11.335926702496488 3.2588903981530994 #
point $-1 -43.920754171468722 -8.3647034251034071 3.2588903981530994 #
straight-curve $-1 -48.153324991607413 4.6356523788103772 37.687138752392698 0 0 -1 I I #
point $-1 -48.153324991607413 4.6356523788103772 7.3711970633426303 #
straight-curve $-1 -48.153324991607413 0.58461261092589112 2.6907267912112749 0 -1 0 I I #
point $-1 -48.153324991607413 4.6356523788103772 2.6907267912112776 #
point $-1 -43.920754171468722 -0.31638641684475743 3.2588903981530994 #
point $-1 -43.920754171468722 2.6548368605483219 3.2588903981530994 #
straight-curve $-1 -48.153324991607413 15.655192664462106 37.687138752392698 0 0 -1 I I #
point $-1 -48.153324991607413 15.655192664462106 7.3711970633426303 #
straight-curve $-1 -48.153324991607413 6.0943827537517556 2.6907267912112749 0 -1 0 I I #
point $-1 -48.153324991607413 15.655192664462106 2.6907267912112776 #
point $-1 -43.920754171468722 10.703153868806972 3.2588903981530994 #
point $-1 -43.920754171468722 13.674377146200051 3.2588903981530994 #
End-of-ACIS-data 