500 0 10 0           
7 Unknown 11 ACIS 5.0 NT 24 Thu Mar 25 16:39:27 1999 
-1 9.9999999999999995e-007 1e-010 
body $-1 $10 $-1 $11 #
body $-1 $12 $-1 $13 #
body $-1 $14 $-1 $15 #
body $-1 $16 $-1 $17 #
body $-1 $18 $-1 $19 #
body $-1 $20 $-1 $21 #
body $-1 $22 $-1 $23 #
body $-1 $24 $-1 $25 #
body $-1 $26 $-1 $27 #
body $-1 $28 $-1 $29 #
lump $-1 $-1 $30 $0 #
transform $-1 1 0 0 0 1 0 0 0 1 74.800866725669124 40.222444271562004 12.926494625741864 1 rotate no_reflect no_shear #
lump $-1 $-1 $31 $1 #
transform $-1 1 0 0 0 1 0 0 0 1 74.800866725669124 40.222444271562004 12.926494625741864 1 rotate no_reflect no_shear #
lump $-1 $-1 $32 $2 #
transform $-1 1 0 0 0 1 0 0 0 1 74.800866725669124 40.222444271562004 12.926494625741864 1 rotate no_reflect no_shear #
lump $-1 $-1 $33 $3 #
transform $-1 1 0 0 0 1 0 0 0 1 74.800866725669124 40.222444271562004 12.926494625741864 1 rotate no_reflect no_shear #
lump $-1 $-1 $34 $4 #
transform $-1 1 0 0 0 1 0 0 0 1 74.800866725669124 40.222444271562004 12.926494625741864 1 rotate no_reflect no_shear #
lump $-1 $-1 $35 $5 #
transform $-1 1 0 0 0 1 0 0 0 1 74.800866725669124 40.222444271562004 12.926494625741864 1 rotate no_reflect no_shear #
lump $-1 $-1 $36 $6 #
transform $-1 1 0 0 0 1 0 0 0 1 74.800866725669124 40.222444271562004 12.926494625741864 1 rotate no_reflect no_shear #
lump $-1 $-1 $37 $7 #
transform $-1 1 0 0 0 1 0 0 0 1 74.800866725669124 40.222444271562004 12.926494625741864 1 rotate no_reflect no_shear #
lump $-1 $-1 $38 $8 #
transform $-1 1 0 0 0 1 0 0 0 1 74.800866725669124 40.222444271562004 12.926494625741864 1 rotate no_reflect no_shear #
lump $-1 $-1 $39 $9 #
transform $-1 1 0 0 0 1 0 0 0 1 74.800866725669124 40.222444271562004 12.926494625741864 1 rotate no_reflect no_shear #
shell $-1 $-1 $-1 $40 $-1 $10 #
shell $-1 $-1 $-1 $41 $-1 $12 #
shell $-1 $-1 $-1 $42 $-1 $14 #
shell $-1 $-1 $-1 $43 $-1 $16 #
shell $-1 $-1 $-1 $44 $-1 $18 #
shell $-1 $-1 $-1 $45 $-1 $20 #
shell $-1 $-1 $-1 $46 $-1 $22 #
shell $-1 $-1 $-1 $47 $-1 $24 #
shell $-1 $-1 $-1 $48 $-1 $26 #
shell $-1 $-1 $-1 $49 $-1 $28 #
face $-1 $50 $51 $30 $-1 $52 forward single #
face $-1 $53 $54 $31 $-1 $55 reversed single #
face $-1 $56 $57 $32 $-1 $58 reversed single #
face $-1 $59 $60 $33 $-1 $61 reversed single #
face $-1 $62 $63 $34 $-1 $64 forward single #
face $-1 $65 $66 $35 $-1 $67 forward single #
face $-1 $68 $69 $36 $-1 $70 reversed single #
face $-1 $71 $72 $37 $-1 $73 forward single #
face $-1 $74 $75 $38 $-1 $76 forward single #
face $-1 $77 $78 $39 $-1 $79 forward single #
face $-1 $80 $81 $30 $-1 $82 reversed single #
loop $-1 $-1 $83 $40 #
plane-surface $-1 0 0 12.926494625741864 0 0 1 1 0 0 forward_v I I I I #
face $-1 $84 $85 $31 $-1 $86 reversed single #
loop $-1 $-1 $87 $41 #
plane-surface $-1 0 -31.765813690493346 7.7474545321823562 0 0 1 1 0 0 forward_v I I I I #
face $-1 $88 $89 $32 $-1 $90 reversed single #
loop $-1 $-1 $91 $42 #
plane-surface $-1 -71.677197268712831 24.393096134840384 0 0 1 0 0 0 1 forward_v I I I I #
face $-1 $92 $93 $33 $-1 $94 reversed single #
loop $-1 $-1 $95 $43 #
plane-surface $-1 -156.27981153671834 -10.030091824527558 131.60386840342733 0 1 0 -0.54463904215088732 0 0.83867056331134215 forward_v I I I I #
face $-1 $96 $97 $34 $-1 $98 forward single #
loop $-1 $99 $100 $44 #
cone-surface $-1 -69.078059446163437 -7.7886911664888885 8.7687630898234161 0.54463904215088732 0 -0.83867056331134215 0.41933528165567108 0 0.27231952107544366 1 I I 0 1 0.5 forward I I I I #
face $-1 $101 $102 $35 $-1 $103 forward single #
loop $-1 $104 $105 $45 #
cone-surface $-1 -69.078059446163437 -4.4265901794308888 8.7687630898234161 0.54463904215088732 0 -0.83867056331134215 0.41933528165567108 0 0.27231952107544366 1 I I 0 1 0.5 forward I I I I #
face $-1 $106 $107 $36 $-1 $108 reversed single #
loop $-1 $-1 $109 $46 #
plane-surface $-1 100.5846203310459 9.7342603791975613 213.24690815920914 0 -1 0 -0.78801076186113728 0 -0.61566146476048833 forward_v I I I I #
face $-1 $110 $111 $37 $-1 $112 forward single #
loop $-1 $113 $114 $47 #
cone-surface $-1 70.492086420317804 -1.0520088151275928 7.6761556456976061 -0.78801076186113728 0 -0.61566146476048833 0.61566146476048833 0 -0.78801076186113728 1 I I 0 1 1 forward I I I I #
face $-1 $115 $116 $38 $-1 $117 forward single #
loop $-1 $118 $119 $48 #
cone-surface $-1 70.492086420317804 2.9928421327443431 7.6761556456976061 -0.78801076186113728 0 -0.61566146476048833 0.61566146476048833 0 -0.78801076186113728 1 I I 0 1 1 forward I I I I #
face $-1 $120 $121 $39 $-1 $122 forward single #
loop $-1 $123 $124 $49 #
cone-surface $-1 70.492086420317804 7.037693080616279 7.6761556456976061 -0.78801076186113728 0 -0.61566146476048833 0.61566146476048833 0 -0.78801076186113728 1 I I 0 1 1 forward I I I I #
face $-1 $125 $126 $30 $-1 $127 reversed single #
loop $-1 $-1 $128 $50 #
plane-surface $-1 0 0 -12.926494625741864 0 0 1 1 0 0 forward_v I I I I #
coedge $-1 $129 $130 $131 $132 forward $51 $-1 #
face $-1 $133 $134 $31 $-1 $135 reversed single #
loop $-1 $-1 $136 $53 #
plane-surface $-1 0 -23.309183109424687 10.33697457896211 0 -1 0 0 0 -1 forward_v I I I I #
coedge $-1 $137 $138 $139 $140 reversed $54 $-1 #
face $-1 $141 $142 $32 $-1 $143 forward single #
loop $-1 $-1 $144 $56 #
plane-surface $-1 -68.553527811756538 32.307770203201194 0 -1 0 0 0 0 1 forward_v I I I I #
coedge $-1 $145 $146 $147 $148 reversed $57 $-1 #
face $-1 $149 $150 $33 $-1 $151 reversed single #
loop $-1 $-1 $152 $59 #
plane-surface $-1 -74.800866725669124 -6.1076406729598958 6.1372983374402139 -0.54463904215088732 0 0.83867056331134215 0.83867056331134215 0 0.54463904215088732 forward_v I I I I #
coedge $-1 $153 $154 $155 $156 reversed $60 $-1 #
face $-1 $-1 $157 $34 $-1 $158 forward single #
loop $-1 $159 $160 $62 #
cone-surface $-1 -68.446315057157733 -7.7886911664888885 7.7959620572279427 0.54463904215088732 0 -0.83867056331134215 0.20966764082783554 0 0.13615976053772183 1 I I -0.70710678118654746 0.70710678118654746 0.25 forward I I I I #
loop $-1 $-1 $161 $44 #
coedge $-1 $100 $100 $162 $163 reversed $63 $-1 #
face $-1 $-1 $164 $35 $-1 $165 forward single #
loop $-1 $166 $167 $65 #
cone-surface $-1 -68.446315057157733 -4.4265901794308888 7.7959620572279427 0.54463904215088732 0 -0.83867056331134215 0.20966764082783554 0 0.13615976053772183 1 I I -0.70710678118654746 0.70710678118654746 0.25 forward I I I I #
loop $-1 $-1 $168 $45 #
coedge $-1 $105 $105 $169 $170 reversed $66 $-1 #
face $-1 $171 $172 $36 $-1 $173 reversed single #
loop $-1 $-1 $174 $68 #
plane-surface $-1 -17.303155621689939 2.992842132744336 121.14288581185009 0.78801076186113728 0 0.61566146476048833 0.61566146476048833 0 -0.78801076186113728 forward_v I I I I #
coedge $-1 $175 $176 $177 $178 reversed $69 $-1 #
face $-1 $-1 $179 $37 $-1 $180 forward single #
loop $-1 $181 $182 $71 #
cone-surface $-1 69.56735758291785 -1.0520088151275928 6.953678316586906 -0.78801076186113728 0 -0.61566146476048833 0.30783073238024417 0 -0.39400538093056864 1 I I -0.70710678118654746 0.70710678118654746 0.5 forward I I I I #
loop $-1 $-1 $183 $47 #
coedge $-1 $114 $114 $184 $185 reversed $72 $-1 #
face $-1 $-1 $186 $38 $-1 $187 forward single #
loop $-1 $188 $189 $74 #
cone-surface $-1 69.56735758291785 2.9928421327443431 6.953678316586906 -0.78801076186113728 0 -0.61566146476048833 0.30783073238024417 0 -0.39400538093056864 1 I I -0.70710678118654746 0.70710678118654746 0.5 forward I I I I #
loop $-1 $-1 $190 $48 #
coedge $-1 $119 $119 $191 $192 reversed $75 $-1 #
face $-1 $-1 $193 $39 $-1 $194 forward single #
loop $-1 $195 $196 $77 #
cone-surface $-1 69.56735758291785 7.037693080616279 6.953678316586906 -0.78801076186113728 0 -0.61566146476048833 0.30783073238024417 0 -0.39400538093056864 1 I I -0.70710678118654746 0.70710678118654746 0.5 forward I I I I #
loop $-1 $-1 $197 $49 #
coedge $-1 $124 $124 $198 $199 reversed $78 $-1 #
face $-1 $200 $201 $30 $-1 $202 reversed single #
loop $-1 $-1 $203 $80 #
plane-surface $-1 0 -40.222444271562004 0 0 1 0 0 0 1 forward_v I I I I #
coedge $-1 $204 $205 $206 $207 forward $81 $-1 #
coedge $-1 $208 $83 $209 $210 forward $51 $-1 #
coedge $-1 $83 $208 $211 $212 forward $51 $-1 #
coedge $-1 $213 $214 $83 $132 reversed $215 $-1 #
edge $-1 $216 -40.222444271562004 $217 40.222444271562004 $131 $218 forward 7 unknown #
face $-1 $219 $220 $31 $-1 $221 reversed single #
loop $-1 $-1 $222 $84 #
plane-surface $-1 -74.800866725669124 0 0 1 0 0 0 0 -1 forward_v I I I I #
coedge $-1 $223 $224 $225 $226 reversed $85 $-1 #
coedge $-1 $227 $87 $228 $229 reversed $54 $-1 #
coedge $-1 $87 $227 $223 $230 forward $54 $-1 #
coedge $-1 $225 $231 $87 $140 forward $232 $-1 #
edge $-1 $233 -24.339537426315331 $234 -7.4262762641780142 $139 $235 forward 7 unknown #
face $-1 $236 $237 $32 $-1 $238 reversed single #
loop $-1 $-1 $239 $88 #
plane-surface $-1 0 0 12.926494625741864 0 0 1 1 0 0 forward_v I I I I #
coedge $-1 $240 $241 $242 $243 forward $89 $-1 #
coedge $-1 $242 $91 $244 $245 reversed $57 $-1 #
coedge $-1 $91 $242 $239 $246 reversed $57 $-1 #
coedge $-1 $247 $248 $91 $148 forward $249 $-1 #
edge $-1 $250 -12.926494625741864 $251 12.926494625741864 $147 $252 forward 7 unknown #
face $-1 $253 $254 $33 $-1 $255 reversed single #
loop $-1 $-1 $256 $92 #
plane-surface $-1 -156.27981153671834 -2.1851895213922337 131.60386840342733 0 -1 0 0.54463904215088732 0 -0.83867056331134215 forward_v I I I I #
coedge $-1 $257 $258 $259 $260 reversed $93 $-1 #
coedge $-1 $154 $95 $261 $262 reversed $60 $-1 #
coedge $-1 $95 $153 $257 $263 reversed $60 $-1 #
coedge $-1 $259 $264 $95 $156 forward $265 $-1 #
edge $-1 $266 3.3390390426900467 $267 13.793484344765503 $155 $268 forward 7 unknown #
loop $-1 $-1 $162 $96 #
plane-surface $-1 -74.800866725669124 -6.1076406729598958 6.1372983374402139 -0.54463904215088732 0 0.83867056331134215 0.83867056331134215 0 0.54463904215088732 forward_v I I I I #
loop $-1 $-1 $269 $62 #
coedge $-1 $160 $160 $161 $270 reversed $97 $-1 #
coedge $-1 $161 $161 $160 $270 forward $99 $-1 #
coedge $-1 $162 $162 $100 $163 forward $157 $-1 #
edge $-1 $271 0 $271 6.2831853071796004 $162 $272 forward 7 unknown #
loop $-1 $-1 $169 $101 #
plane-surface $-1 -74.800866725669124 -6.1076406729598958 6.1372983374402139 -0.54463904215088732 0 0.83867056331134215 0.83867056331134215 0 0.54463904215088732 forward_v I I I I #
loop $-1 $-1 $273 $65 #
coedge $-1 $167 $167 $168 $274 reversed $102 $-1 #
coedge $-1 $168 $168 $167 $274 forward $104 $-1 #
coedge $-1 $169 $169 $105 $170 forward $164 $-1 #
edge $-1 $275 0 $275 6.2831853071796004 $169 $276 forward 7 unknown #
face $-1 $277 $278 $36 $-1 $279 reversed single #
loop $-1 $-1 $280 $106 #
plane-surface $-1 100.5846203310459 -3.7485761137088893 213.24690815920914 0 1 0 0.78801076186113728 0 0.61566146476048833 forward_v I I I I #
coedge $-1 $281 $282 $283 $284 reversed $107 $-1 #
coedge $-1 $176 $109 $285 $286 reversed $69 $-1 #
coedge $-1 $109 $175 $281 $287 reversed $69 $-1 #
coedge $-1 $283 $288 $109 $178 forward $289 $-1 #
edge $-1 $290 -24.508556560146175 $291 -16.952442862382355 $177 $292 forward 7 unknown #
loop $-1 $-1 $184 $110 #
plane-surface $-1 -17.303155621689939 2.992842132744336 121.14288581185009 0.78801076186113728 0 0.61566146476048833 0.61566146476048833 0 -0.78801076186113728 forward_v I I I I #
loop $-1 $-1 $293 $71 #
coedge $-1 $182 $182 $183 $294 reversed $111 $-1 #
coedge $-1 $183 $183 $182 $294 forward $113 $-1 #
coedge $-1 $184 $184 $114 $185 forward $179 $-1 #
edge $-1 $295 0 $295 6.2831853071796004 $184 $296 forward 7 unknown #
loop $-1 $-1 $191 $115 #
plane-surface $-1 -17.303155621689939 2.992842132744336 121.14288581185009 0.78801076186113728 0 0.61566146476048833 0.61566146476048833 0 -0.78801076186113728 forward_v I I I I #
loop $-1 $-1 $297 $74 #
coedge $-1 $189 $189 $190 $298 reversed $116 $-1 #
coedge $-1 $190 $190 $189 $298 forward $118 $-1 #
coedge $-1 $191 $191 $119 $192 forward $186 $-1 #
edge $-1 $299 0 $299 6.2831853071796004 $191 $300 forward 7 unknown #
loop $-1 $-1 $198 $120 #
plane-surface $-1 -17.303155621689939 2.992842132744336 121.14288581185009 0.78801076186113728 0 0.61566146476048833 0.61566146476048833 0 -0.78801076186113728 forward_v I I I I #
loop $-1 $-1 $301 $77 #
coedge $-1 $196 $196 $197 $302 reversed $121 $-1 #
coedge $-1 $197 $197 $196 $302 forward $123 $-1 #
coedge $-1 $198 $198 $124 $199 forward $193 $-1 #
edge $-1 $303 0 $303 6.2831853071796004 $198 $304 forward 7 unknown #
face $-1 $305 $306 $30 $-1 $307 reversed single #
loop $-1 $-1 $308 $125 #
plane-surface $-1 -74.800866725669124 0 0 1 0 0 0 0 -1 forward_v I I I I #
coedge $-1 $309 $211 $310 $311 forward $126 $-1 #
coedge $-1 $312 $128 $309 $313 forward $81 $-1 #
coedge $-1 $128 $312 $314 $315 forward $81 $-1 #
coedge $-1 $214 $213 $128 $207 reversed $215 $-1 #
edge $-1 $316 -40.222444271562004 $317 40.222444271562004 $206 $318 forward 7 unknown #
coedge $-1 $130 $129 $319 $320 forward $51 $-1 #
coedge $-1 $321 $322 $129 $210 reversed $306 $-1 #
edge $-1 $217 -74.800866725669124 $323 74.800866725669124 $209 $324 forward 7 unknown #
coedge $-1 $203 $325 $130 $212 reversed $126 $-1 #
edge $-1 $326 -74.800866725669124 $216 74.800866725669124 $211 $327 forward 7 unknown #
coedge $-1 $206 $131 $325 $328 forward $215 $-1 #
coedge $-1 $131 $206 $321 $329 reversed $215 $-1 #
loop $-1 $-1 $213 $305 #
vertex $-1 $132 $330 #
vertex $-1 $132 $331 #
straight-curve $-1 74.800866725669124 0 12.926494625741864 0 1 0 I I #
face $-1 $332 $333 $31 $-1 $334 forward single #
loop $-1 $-1 $228 $133 #
plane-surface $-1 0 -40.222444271562004 0 0 1 0 0 0 1 forward_v I I I I #
coedge $-1 $335 $336 $337 $338 forward $134 $-1 #
coedge $-1 $337 $136 $138 $230 reversed $85 $-1 #
coedge $-1 $136 $337 $339 $340 reversed $85 $-1 #
coedge $-1 $341 $139 $136 $226 forward $232 $-1 #
edge $-1 $234 2.5789672427013013 $342 7.7580073362608086 $225 $343 forward 7 unknown #
coedge $-1 $138 $137 $335 $344 reversed $54 $-1 #
coedge $-1 $345 $346 $137 $229 forward $220 $-1 #
edge $-1 $347 -74.800866725669124 $233 74.800866725669124 $228 $348 forward 7 unknown #
edge $-1 $349 -74.800866725669124 $234 74.800866725669124 $223 $350 forward 7 unknown #
coedge $-1 $139 $341 $345 $351 forward $232 $-1 #
loop $-1 $-1 $225 $332 #
vertex $-1 $229 $352 #
vertex $-1 $140 $353 #
straight-curve $-1 74.800866725669124 -15.882906845246673 7.7474545321823562 0 1 0 I I #
face $-1 $354 $355 $32 $-1 $356 reversed single #
loop $-1 $-1 $357 $141 #
plane-surface $-1 0 40.222444271562004 0 0 -1 0 0 0 -1 forward_v I I I I #
coedge $-1 $358 $359 $146 $246 forward $142 $-1 #
coedge $-1 $360 $144 $361 $362 reversed $89 $-1 #
coedge $-1 $144 $360 $358 $363 reversed $89 $-1 #
coedge $-1 $146 $145 $144 $243 reversed $57 $-1 #
edge $-1 $364 -12.926494625741864 $365 12.926494625741864 $144 $366 forward 7 unknown #
coedge $-1 $367 $361 $145 $245 forward $355 $-1 #
edge $-1 $365 32.714929177400123 $250 38.962268091312708 $244 $368 forward 7 unknown #
edge $-1 $251 -38.962268091312708 $364 -32.714929177400123 $239 $369 forward 7 unknown #
coedge $-1 $370 $147 $359 $371 reversed $249 $-1 #
coedge $-1 $147 $370 $367 $372 reversed $249 $-1 #
loop $-1 $-1 $147 $354 #
vertex $-1 $372 $373 #
vertex $-1 $148 $374 #
straight-curve $-1 -74.800866725669124 24.393096134840384 0 0 0 1 I I #
face $-1 $-1 $265 $33 $-1 $375 forward single #
loop $-1 $-1 $376 $149 #
plane-surface $-1 -74.800866725669124 0 0 1 0 0 0 0 -1 forward_v I I I I #
coedge $-1 $377 $378 $379 $380 reversed $150 $-1 #
coedge $-1 $381 $152 $154 $263 forward $93 $-1 #
coedge $-1 $152 $381 $377 $382 forward $93 $-1 #
coedge $-1 $379 $155 $152 $260 forward $265 $-1 #
edge $-1 $267 -6.97627148804761 $383 0.86863081508771423 $259 $384 forward 7 unknown #
coedge $-1 $385 $386 $153 $262 forward $254 $-1 #
edge $-1 $387 -59.66463586427345 $266 -52.875439575971797 $261 $388 forward 7 unknown #
edge $-1 $267 -12.465496894034207 $387 0 $154 $389 forward 7 unknown #
coedge $-1 $155 $379 $385 $390 forward $265 $-1 #
loop $-1 $-1 $379 $253 #
vertex $-1 $262 $391 #
vertex $-1 $156 $392 #
straight-curve $-1 -78.139905768359171 -10.030091824527558 12.926494625741867 1 0 0 I I #
coedge $-1 $269 $269 $-1 $393 reversed $159 $-1 #
edge $-1 $394 0 $394 6.2831853071796004 $160 $395 forward 7 unknown #
vertex $-1 $163 $396 #
ellipse-curve $-1 -69.573644074631403 -7.7886911664888885 9.5318964815910334 -0.54463904215088732 0 0.83867056331134215 0.41933528165567108 0 0.27231952107544366 1 I I #
coedge $-1 $273 $273 $-1 $397 reversed $166 $-1 #
edge $-1 $398 0 $398 6.2831853071796004 $167 $399 forward 7 unknown #
vertex $-1 $170 $400 #
ellipse-curve $-1 -69.573644074631403 -4.4265901794308888 9.5318964815910334 -0.54463904215088732 0 0.83867056331134215 0.41933528165567108 0 0.27231952107544366 1 I I #
face $-1 $-1 $289 $36 $-1 $401 forward single #
loop $-1 $-1 $402 $171 #
plane-surface $-1 74.800866725669124 0 0 -1 0 0 0 0 1 forward_v I I I I #
coedge $-1 $403 $404 $405 $406 reversed $172 $-1 #
coedge $-1 $407 $174 $176 $287 forward $107 $-1 #
coedge $-1 $174 $407 $403 $408 forward $107 $-1 #
coedge $-1 $405 $177 $174 $284 forward $289 $-1 #
edge $-1 $291 -8.2378393128253933 $409 5.2449971800810573 $283 $410 forward 7 unknown #
coedge $-1 $411 $412 $175 $286 forward $278 $-1 #
edge $-1 $413 -103.36834422049034 $290 -93.696959453862704 $285 $414 forward 7 unknown #
edge $-1 $291 137.32857014607376 $413 149.60173345133828 $176 $415 forward 7 unknown #
coedge $-1 $177 $405 $411 $416 forward $289 $-1 #
loop $-1 $-1 $405 $277 #
vertex $-1 $286 $417 #
vertex $-1 $178 $418 #
straight-curve $-1 50.292310165522949 9.7342603791975613 12.926494625741867 -1 0 0 I I #
coedge $-1 $293 $293 $-1 $419 reversed $181 $-1 #
edge $-1 $420 0 $420 6.2831853071796004 $182 $421 forward 7 unknown #
vertex $-1 $185 $422 #
ellipse-curve $-1 71.022809876787207 -1.0520088151275928 8.0908022424280759 0.78801076186113728 0 0.61566146476048833 0.61566146476048833 0 -0.78801076186113728 1 I I #
coedge $-1 $297 $297 $-1 $423 reversed $188 $-1 #
edge $-1 $424 0 $424 6.2831853071796004 $189 $425 forward 7 unknown #
vertex $-1 $192 $426 #
ellipse-curve $-1 71.022809876787207 2.9928421327443431 8.0908022424280759 0.78801076186113728 0 0.61566146476048833 0.61566146476048833 0 -0.78801076186113728 1 I I #
coedge $-1 $301 $301 $-1 $427 reversed $195 $-1 #
edge $-1 $428 0 $428 6.2831853071796004 $196 $429 forward 7 unknown #
vertex $-1 $199 $430 #
ellipse-curve $-1 71.022809876787207 7.037693080616279 8.0908022424280759 0.78801076186113728 0 0.61566146476048833 0.61566146476048833 0 -0.78801076186113728 1 I I #
face $-1 $-1 $215 $30 $-1 $431 reversed single #
loop $-1 $-1 $321 $200 #
plane-surface $-1 0 40.222444271562004 0 0 -1 0 0 0 -1 forward_v I I I I #
coedge $-1 $432 $319 $322 $433 forward $201 $-1 #
coedge $-1 $325 $203 $204 $313 reversed $126 $-1 #
coedge $-1 $319 $432 $203 $311 reversed $201 $-1 #
edge $-1 $326 -12.926494625741864 $434 12.926494625741864 $310 $435 forward 7 unknown #
coedge $-1 $205 $204 $432 $436 forward $81 $-1 #
edge $-1 $317 -74.800866725669124 $434 74.800866725669124 $309 $437 forward 7 unknown #
coedge $-1 $322 $321 $205 $315 reversed $306 $-1 #
edge $-1 $438 -74.800866725669124 $316 74.800866725669124 $314 $439 forward 7 unknown #
vertex $-1 $207 $440 #
vertex $-1 $328 $441 #
straight-curve $-1 74.800866725669124 0 -12.926494625741864 0 -1 0 I I #
coedge $-1 $308 $310 $208 $320 reversed $201 $-1 #
edge $-1 $323 -40.222444271562004 $326 40.222444271562004 $319 $442 forward 7 unknown #
coedge $-1 $314 $209 $214 $329 forward $306 $-1 #
coedge $-1 $209 $314 $308 $433 reversed $306 $-1 #
vertex $-1 $210 $443 #
straight-curve $-1 0 40.222444271562004 12.926494625741864 -1 0 0 I I #
coedge $-1 $211 $309 $213 $328 reversed $126 $-1 #
vertex $-1 $320 $444 #
straight-curve $-1 0 -40.222444271562004 12.926494625741864 1 0 0 I I #
edge $-1 $216 -12.926494625741864 $317 12.926494625741864 $213 $445 forward 7 unknown #
edge $-1 $217 -12.926494625741864 $316 12.926494625741864 $214 $446 forward 7 unknown #
point $-1 74.800866725669124 -40.222444271562004 12.926494625741864 #
point $-1 74.800866725669124 40.222444271562004 12.926494625741864 #
face $-1 $-1 $232 $31 $-1 $447 reversed single #
loop $-1 $-1 $339 $219 #
plane-surface $-1 0 0 12.926494625741864 0 0 1 1 0 0 forward_v I I I I #
coedge $-1 $448 $222 $227 $344 forward $134 $-1 #
coedge $-1 $222 $448 $449 $450 reversed $134 $-1 #
coedge $-1 $224 $223 $222 $338 reversed $85 $-1 #
edge $-1 $451 -7.7580073362608086 $349 -2.5789672427013013 $222 $452 forward 7 unknown #
coedge $-1 $449 $453 $224 $340 forward $333 $-1 #
edge $-1 $342 -74.800866725669124 $451 74.800866725669124 $339 $454 forward 7 unknown #
coedge $-1 $231 $225 $453 $455 reversed $232 $-1 #
vertex $-1 $226 $456 #
straight-curve $-1 74.800866725669124 -23.309183109424687 5.168487289481055 0 0 1 I I #
edge $-1 $349 7.4262762641780142 $347 24.339537426315331 $335 $457 forward 7 unknown #
coedge $-1 $458 $228 $231 $351 reversed $220 $-1 #
coedge $-1 $228 $458 $448 $459 forward $220 $-1 #
vertex $-1 $229 $460 #
straight-curve $-1 0 -40.222444271562004 7.7474545321823562 1 0 0 I I #
vertex $-1 $344 $461 #
straight-curve $-1 0 -23.309183109424687 7.7474545321823562 1 0 0 I I #
edge $-1 $462 -12.926494625741864 $233 -7.7474545321823562 $231 $463 forward 7 unknown #
point $-1 74.800866725669124 -40.222444271562004 7.7474545321823562 #
point $-1 74.800866725669124 -23.309183109424687 7.7474545321823562 #
face $-1 $-1 $249 $32 $-1 $464 reversed single #
loop $-1 $-1 $244 $236 #
plane-surface $-1 0 0 -12.926494625741864 0 0 1 1 0 0 forward_v I I I I #
coedge $-1 $465 $466 $360 $467 forward $237 $-1 #
coedge $-1 $468 $239 $241 $363 forward $142 $-1 #
coedge $-1 $239 $468 $247 $371 forward $142 $-1 #
coedge $-1 $241 $240 $357 $467 reversed $89 $-1 #
coedge $-1 $244 $469 $240 $362 forward $355 $-1 #
edge $-1 $470 -24.068559169961407 $365 -8.239211033239787 $361 $471 forward 7 unknown #
edge $-1 $364 8.239211033239787 $472 24.068559169961407 $358 $473 forward 7 unknown #
vertex $-1 $246 $474 #
vertex $-1 $245 $475 #
straight-curve $-1 -68.553527811756538 24.393096134840384 0 0 0 -1 I I #
coedge $-1 $469 $244 $248 $372 forward $355 $-1 #
straight-curve $-1 -35.838598634356416 24.393096134840384 -12.926494625741864 -1 0 0 I I #
straight-curve $-1 -35.838598634356416 24.393096134840384 12.926494625741864 1 0 0 I I #
coedge $-1 $248 $247 $476 $477 forward $249 $-1 #
edge $-1 $478 -40.222444271562004 $251 -24.393096134840384 $247 $479 forward 7 unknown #
edge $-1 $250 24.393096134840384 $480 40.222444271562004 $248 $481 forward 7 unknown #
point $-1 -74.800866725669124 24.393096134840384 -12.926494625741864 #
point $-1 -74.800866725669124 24.393096134840384 12.926494625741864 #
plane-surface $-1 0 0 12.926494625741864 0 0 1 1 0 0 forward_v I I I I #
coedge $-1 $386 $385 $378 $482 forward $254 $-1 #
coedge $-1 $378 $256 $258 $382 reversed $150 $-1 #
coedge $-1 $256 $377 $376 $482 reversed $150 $-1 #
coedge $-1 $264 $259 $256 $380 forward $265 $-1 #
edge $-1 $383 -13.793484344765503 $483 -3.3390390426900467 $379 $484 forward 7 unknown #
coedge $-1 $258 $257 $386 $485 reversed $93 $-1 #
edge $-1 $486 0 $383 12.465496894034207 $377 $487 forward 7 unknown #
vertex $-1 $260 $488 #
straight-curve $-1 -64.346421423593668 -3.0538203364799479 12.926494625741862 0 1 0 I I #
coedge $-1 $376 $261 $264 $390 reversed $254 $-1 #
coedge $-1 $261 $376 $381 $485 forward $254 $-1 #
vertex $-1 $262 $489 #
straight-curve $-1 -74.800866725669124 -10.030091824527558 65.801934201713664 0 0 1 I I #
straight-curve $-1 -74.800866725669124 -10.030091824527558 6.1372983374402139 -0.83867056331134215 0 -0.54463904215088732 I I #
edge $-1 $483 2.1851895213922337 $266 10.030091824527558 $385 $490 forward 7 unknown #
point $-1 -74.800866725669124 -10.030091824527558 12.926494625741864 #
point $-1 -64.346421423593668 -10.030091824527558 12.926494625741864 #
edge $-1 $491 1 $491 0 $269 $-1 forward 7 unknown #
vertex $-1 $270 $492 #
ellipse-curve $-1 -68.582474817695456 -7.7886911664888885 8.0056296980557775 -0.54463904215088732 0 0.83867056331134215 0.41933528165567108 0 0.27231952107544366 1 I I #
point $-1 -69.154308792975741 -7.7886911664888885 9.8042160026664984 #
edge $-1 $493 1 $493 0 $273 $-1 forward 7 unknown #
vertex $-1 $274 $494 #
ellipse-curve $-1 -68.582474817695456 -4.4265901794308888 8.0056296980557775 -0.54463904215088732 0 0.83867056331134215 0.41933528165567108 0 0.27231952107544366 1 I I #
point $-1 -69.154308792975741 -4.4265901794308888 9.8042160026664984 #
plane-surface $-1 0 0 12.926494625741864 0 0 1 1 0 0 forward_v I I I I #
coedge $-1 $412 $411 $404 $495 forward $278 $-1 #
coedge $-1 $404 $280 $282 $408 reversed $172 $-1 #
coedge $-1 $280 $403 $402 $495 reversed $172 $-1 #
coedge $-1 $288 $283 $280 $406 forward $289 $-1 #
edge $-1 $409 16.952442862382355 $496 24.508556560146175 $405 $497 forward 7 unknown #
coedge $-1 $282 $281 $412 $498 reversed $107 $-1 #
edge $-1 $499 -149.60173345133828 $409 -137.32857014607376 $403 $500 forward 7 unknown #
vertex $-1 $284 $501 #
straight-curve $-1 67.244753027905304 1.496421066372168 12.926494625741881 0 -1 0 I I #
coedge $-1 $402 $285 $288 $416 reversed $278 $-1 #
coedge $-1 $285 $402 $407 $498 forward $278 $-1 #
vertex $-1 $286 $502 #
straight-curve $-1 74.800866725669124 9.7342603791975613 106.62345407960457 0 0 1 I I #
straight-curve $-1 -17.303155621689939 9.7342603791975613 121.14288581185009 0.61566146476048833 0 -0.78801076186113728 I I #
edge $-1 $496 -3.7485761137088893 $290 9.7342603791975613 $411 $503 forward 7 unknown #
point $-1 74.800866725669124 9.7342603791975613 12.926494625741864 #
point $-1 67.244753027905304 9.7342603791975613 12.926494625741881 #
edge $-1 $504 1 $504 0 $293 $-1 forward 7 unknown #
vertex $-1 $294 $505 #
ellipse-curve $-1 69.961362963848416 -1.0520088151275928 7.2615090489671505 0.78801076186113728 0 0.61566146476048833 0.61566146476048833 0 -0.78801076186113728 1 I I #
point $-1 71.638471341547685 -1.0520088151275928 7.302791480566925 #
edge $-1 $506 1 $506 0 $297 $-1 forward 7 unknown #
vertex $-1 $298 $507 #
ellipse-curve $-1 69.961362963848416 2.9928421327443431 7.2615090489671505 0.78801076186113728 0 0.61566146476048833 0.61566146476048833 0 -0.78801076186113728 1 I I #
point $-1 71.638471341547685 2.9928421327443431 7.302791480566925 #
edge $-1 $508 1 $508 0 $301 $-1 forward 7 unknown #
vertex $-1 $302 $509 #
ellipse-curve $-1 69.961362963848416 7.037693080616279 7.2615090489671505 0.78801076186113728 0 0.61566146476048833 0.61566146476048833 0 -0.78801076186113728 1 I I #
point $-1 71.638471341547685 7.037693080616279 7.302791480566925 #
plane-surface $-1 74.800866725669124 0 0 -1 0 0 0 0 1 forward_v I I I I #
coedge $-1 $310 $308 $312 $436 reversed $201 $-1 #
edge $-1 $323 -12.926494625741864 $438 12.926494625741864 $322 $510 forward 7 unknown #
vertex $-1 $436 $511 #
straight-curve $-1 -74.800866725669124 -40.222444271562004 0 0 0 -1 I I #
edge $-1 $434 -40.222444271562004 $438 40.222444271562004 $432 $512 forward 7 unknown #
straight-curve $-1 0 -40.222444271562004 -12.926494625741864 -1 0 0 I I #
vertex $-1 $315 $513 #
straight-curve $-1 0 40.222444271562004 -12.926494625741864 1 0 0 I I #
point $-1 74.800866725669124 40.222444271562004 -12.926494625741864 #
point $-1 74.800866725669124 -40.222444271562004 -12.926494625741864 #
straight-curve $-1 -74.800866725669124 0 12.926494625741864 0 -1 0 I I #
point $-1 -74.800866725669124 40.222444271562004 12.926494625741864 #
point $-1 -74.800866725669124 -40.222444271562004 12.926494625741864 #
straight-curve $-1 74.800866725669124 -40.222444271562004 0 0 0 -1 I I #
straight-curve $-1 74.800866725669124 40.222444271562004 0 0 0 -1 I I #
plane-surface $-1 74.800866725669124 0 0 -1 0 0 0 0 1 forward_v I I I I #
coedge $-1 $336 $335 $346 $459 reversed $134 $-1 #
coedge $-1 $514 $339 $336 $450 forward $333 $-1 #
edge $-1 $451 23.309183109424687 $515 40.222444271562004 $336 $516 forward 7 unknown #
vertex $-1 $450 $517 #
straight-curve $-1 -74.800866725669124 -23.309183109424687 5.168487289481055 0 0 -1 I I #
coedge $-1 $339 $514 $341 $455 forward $333 $-1 #
straight-curve $-1 0 -23.309183109424687 12.926494625741864 -1 0 0 I I #
edge $-1 $462 -40.222444271562004 $342 -23.309183109424687 $341 $518 forward 7 unknown #
point $-1 74.800866725669124 -23.309183109424687 12.926494625741864 #
straight-curve $-1 -74.800866725669124 -15.882906845246673 7.7474545321823562 0 -1 0 I I #
coedge $-1 $346 $345 $514 $519 reversed $220 $-1 #
edge $-1 $515 -12.926494625741864 $347 -7.7474545321823562 $448 $520 forward 7 unknown #
point $-1 -74.800866725669124 -40.222444271562004 7.7474545321823562 #
point $-1 -74.800866725669124 -23.309183109424687 7.7474545321823562 #
vertex $-1 $455 $521 #
straight-curve $-1 74.800866725669124 -40.222444271562004 0 0 0 -1 I I #
plane-surface $-1 -74.800866725669124 0 0 1 0 0 0 0 -1 forward_v I I I I #
coedge $-1 $476 $357 $469 $522 reversed $237 $-1 #
coedge $-1 $357 $476 $468 $523 reversed $237 $-1 #
edge $-1 $472 -12.926494625741864 $470 12.926494625741864 $357 $524 forward 7 unknown #
coedge $-1 $359 $358 $466 $523 forward $142 $-1 #
coedge $-1 $361 $367 $465 $522 forward $355 $-1 #
vertex $-1 $467 $525 #
straight-curve $-1 -68.553527811756538 16.153885101600597 -12.926494625741864 0 -1 0 I I #
vertex $-1 $523 $526 #
straight-curve $-1 -68.553527811756538 16.153885101600597 12.926494625741864 0 1 0 I I #
point $-1 -68.553527811756538 24.393096134840384 12.926494625741864 #
point $-1 -68.553527811756538 24.393096134840384 -12.926494625741864 #
coedge $-1 $466 $465 $370 $477 reversed $237 $-1 #
edge $-1 $478 -12.926494625741864 $480 12.926494625741864 $476 $527 forward 7 unknown #
vertex $-1 $523 $528 #
straight-curve $-1 -74.800866725669124 0 12.926494625741864 0 -1 0 I I #
vertex $-1 $522 $529 #
straight-curve $-1 -74.800866725669124 0 -12.926494625741864 0 1 0 I I #
edge $-1 $483 52.875439575971797 $486 59.66463586427345 $376 $530 forward 7 unknown #
vertex $-1 $390 $531 #
straight-curve $-1 -78.139905768359171 -2.1851895213922337 12.926494625741867 -1 0 0 I I #
edge $-1 $486 -0.86863081508771423 $387 6.97627148804761 $386 $532 forward 7 unknown #
vertex $-1 $485 $533 #
straight-curve $-1 -74.800866725669124 -2.1851895213922337 6.1372983374402139 0.83867056331134215 0 0.54463904215088732 I I #
point $-1 -64.346421423593668 -2.1851895213922337 12.926494625741864 #
point $-1 -74.800866725669124 -10.030091824527558 6.1372983374402139 #
straight-curve $-1 -74.800866725669124 0 12.926494625741864 0 -1 0 I I #
vertex $-1 $393 $534 #
point $-1 -68.163139536039779 -7.7886911664888885 8.2779492191312212 #
vertex $-1 $397 $535 #
point $-1 -68.163139536039779 -4.4265901794308888 8.2779492191312212 #
edge $-1 $496 93.696959453862704 $499 103.36834422049034 $402 $536 forward 7 unknown #
vertex $-1 $416 $537 #
straight-curve $-1 50.292310165522949 -3.7485761137088893 12.926494625741867 1 0 0 I I #
edge $-1 $499 -5.2449971800810573 $413 8.2378393128253933 $412 $538 forward 7 unknown #
vertex $-1 $498 $539 #
straight-curve $-1 -17.303155621689939 -3.7485761137088893 121.14288581185009 -0.61566146476048833 0 0.78801076186113728 I I #
point $-1 67.244753027905304 -3.7485761137088893 12.926494625741881 #
point $-1 74.800866725669124 9.7342603791975613 3.2551098591142278 #
straight-curve $-1 74.800866725669124 0 12.926494625741864 0 1 0 I I #
vertex $-1 $419 $540 #
point $-1 70.577024428608908 -1.0520088151275928 6.4734982871060129 #
vertex $-1 $423 $541 #
point $-1 70.577024428608908 2.9928421327443431 6.4734982871060129 #
vertex $-1 $427 $542 #
point $-1 70.577024428608908 7.037693080616279 6.4734982871060129 #
straight-curve $-1 -74.800866725669124 40.222444271562004 0 0 0 -1 I I #
point $-1 -74.800866725669124 -40.222444271562004 -12.926494625741864 #
straight-curve $-1 -74.800866725669124 0 -12.926494625741864 0 1 0 I I #
point $-1 -74.800866725669124 40.222444271562004 -12.926494625741864 #
coedge $-1 $453 $449 $458 $519 forward $333 $-1 #
vertex $-1 $450 $543 #
straight-curve $-1 -74.800866725669124 0 12.926494625741864 0 -1 0 I I #
point $-1 -74.800866725669124 -23.309183109424687 12.926494625741864 #
straight-curve $-1 74.800866725669124 0 12.926494625741864 0 1 0 I I #
edge $-1 $515 -74.800866725669124 $462 74.800866725669124 $458 $544 forward 7 unknown #
straight-curve $-1 -74.800866725669124 -40.222444271562004 0 0 0 -1 I I #
point $-1 74.800866725669124 -40.222444271562004 12.926494625741864 #
edge $-1 $480 -74.800866725669124 $470 -68.553527811756538 $465 $545 forward 7 unknown #
edge $-1 $472 68.553527811756538 $478 74.800866725669124 $466 $546 forward 7 unknown #
straight-curve $-1 -68.553527811756538 40.222444271562004 0 0 0 -1 I I #
point $-1 -68.553527811756538 40.222444271562004 -12.926494625741864 #
point $-1 -68.553527811756538 40.222444271562004 12.926494625741864 #
straight-curve $-1 -74.800866725669124 40.222444271562004 0 0 0 -1 I I #
point $-1 -74.800866725669124 40.222444271562004 12.926494625741864 #
point $-1 -74.800866725669124 40.222444271562004 -12.926494625741864 #
straight-curve $-1 -74.800866725669124 -2.1851895213922337 65.801934201713664 0 0 -1 I I #
point $-1 -74.800866725669124 -2.1851895213922337 12.926494625741864 #
straight-curve $-1 -74.800866725669124 -3.0538203364799479 6.1372983374402166 0 -1 0 I I #
point $-1 -74.800866725669124 -2.1851895213922337 6.1372983374402139 #
point $-1 -68.31015529662001 -7.7886911664888885 7.5862944164001069 #
point $-1 -68.31015529662001 -4.4265901794308888 7.5862944164001069 #
straight-curve $-1 74.800866725669124 -3.7485761137088893 106.62345407960457 0 0 -1 I I #
point $-1 74.800866725669124 -3.7485761137088893 12.926494625741864 #
straight-curve $-1 74.800866725669124 1.496421066372168 3.2551098591142349 0 1 0 I I #
point $-1 74.800866725669124 -3.7485761137088893 3.2551098591142278 #
point $-1 69.173352201987285 -1.0520088151275928 6.6458475842066616 #
point $-1 69.173352201987285 2.9928421327443431 6.6458475842066616 #
point $-1 69.173352201987285 7.037693080616279 6.6458475842066616 #
point $-1 -74.800866725669124 -40.222444271562004 12.926494625741864 #
straight-curve $-1 0 -40.222444271562004 12.926494625741864 1 0 0 I I #
straight-curve $-1 0 40.222444271562004 -12.926494625741864 1 0 0 I I #
straight-curve $-1 0 40.222444271562004 12.926494625741864 -1 0 0 I I #
End-of-ACIS-data 