500 0 10 0           
7 Unknown 11 ACIS 5.0 NT 24 Fri Mar 26 02:15:40 1999 
-1 9.9999999999999995e-007 1e-010 
body $-1 $10 $-1 $11 #
body $-1 $12 $-1 $13 #
body $-1 $14 $-1 $15 #
body $-1 $16 $-1 $17 #
body $-1 $18 $-1 $19 #
body $-1 $20 $-1 $21 #
body $-1 $22 $-1 $23 #
body $-1 $24 $-1 $25 #
body $-1 $26 $-1 $27 #
body $-1 $28 $-1 $29 #
lump $-1 $-1 $30 $0 #
transform $-1 1 0 0 0 1 0 0 0 1 66.696371349223313 37.706135168269512 17.919591316899421 1 rotate no_reflect no_shear #
lump $-1 $-1 $31 $1 #
transform $-1 1 0 0 0 1 0 0 0 1 66.696371349223313 37.706135168269512 17.919591316899421 1 rotate no_reflect no_shear #
lump $-1 $-1 $32 $2 #
transform $-1 1 0 0 0 1 0 0 0 1 66.696371349223313 37.706135168269512 17.919591316899421 1 rotate no_reflect no_shear #
lump $-1 $-1 $33 $3 #
transform $-1 1 0 0 0 1 0 0 0 1 66.696371349223313 37.706135168269512 17.919591316899421 1 rotate no_reflect no_shear #
lump $-1 $-1 $34 $4 #
transform $-1 1 0 0 0 1 0 0 0 1 66.696371349223313 37.706135168269512 17.919591316899421 1 rotate no_reflect no_shear #
lump $-1 $-1 $35 $5 #
transform $-1 1 0 0 0 1 0 0 0 1 66.696371349223313 37.706135168269512 17.919591316899421 1 rotate no_reflect no_shear #
lump $-1 $-1 $36 $6 #
transform $-1 1 0 0 0 1 0 0 0 1 66.696371349223313 37.706135168269512 17.919591316899421 1 rotate no_reflect no_shear #
lump $-1 $-1 $37 $7 #
transform $-1 1 0 0 0 1 0 0 0 1 66.696371349223313 37.706135168269512 17.919591316899421 1 rotate no_reflect no_shear #
lump $-1 $-1 $38 $8 #
transform $-1 1 0 0 0 1 0 0 0 1 66.696371349223313 37.706135168269512 17.919591316899421 1 rotate no_reflect no_shear #
lump $-1 $-1 $39 $9 #
transform $-1 1 0 0 0 1 0 0 0 1 66.696371349223313 37.706135168269512 17.919591316899421 1 rotate no_reflect no_shear #
shell $-1 $-1 $-1 $40 $-1 $10 #
shell $-1 $-1 $-1 $41 $-1 $12 #
shell $-1 $-1 $-1 $42 $-1 $14 #
shell $-1 $-1 $-1 $43 $-1 $16 #
shell $-1 $-1 $-1 $44 $-1 $18 #
shell $-1 $-1 $-1 $45 $-1 $20 #
shell $-1 $-1 $-1 $46 $-1 $22 #
shell $-1 $-1 $-1 $47 $-1 $24 #
shell $-1 $-1 $-1 $48 $-1 $26 #
shell $-1 $-1 $-1 $49 $-1 $28 #
face $-1 $50 $51 $30 $-1 $52 forward single #
face $-1 $53 $54 $31 $-1 $55 forward single #
face $-1 $56 $57 $32 $-1 $58 reversed single #
face $-1 $59 $60 $33 $-1 $61 forward single #
face $-1 $62 $63 $34 $-1 $64 reversed single #
face $-1 $65 $66 $35 $-1 $67 forward single #
face $-1 $68 $69 $36 $-1 $70 reversed single #
face $-1 $71 $72 $37 $-1 $73 forward single #
face $-1 $74 $75 $38 $-1 $76 reversed single #
face $-1 $77 $78 $39 $-1 $79 forward single #
face $-1 $80 $81 $30 $-1 $82 reversed single #
loop $-1 $-1 $83 $40 #
plane-surface $-1 0 0 17.919591316899421 0 0 1 1 0 0 forward_v I I I I #
face $-1 $84 $85 $31 $-1 $86 reversed single #
loop $-1 $-1 $87 $41 #
plane-surface $-1 -59.71127451296136 0 0.78462320329089152 0 0 1 1 0 0 forward_v I I I I #
face $-1 $88 $89 $32 $-1 $90 reversed single #
loop $-1 $-1 $91 $42 #
plane-surface $-1 -52.726177676699407 -135.26341241235053 96.170695168408486 1 0 0 0 0.73135370988377701 -0.68199835119979291 forward_v I I I I #
face $-1 $92 $93 $33 $-1 $94 forward single #
loop $-1 $95 $96 $43 #
cone-surface $-1 -37.840727502465427 -28.028849961545681 8.0657687508145077 0 0.73135370988377701 -0.68199835119979291 3 0 0 1 I I 0 1 3 forward I I I I #
face $-1 $97 $98 $34 $-1 $99 reversed single #
loop $-1 $-1 $100 $44 #
plane-surface $-1 36.925471000755351 -135.26341241235053 96.170695168408486 1 0 0 0 0.73135370988377701 -0.68199835119979291 forward_v I I I I #
face $-1 $101 $102 $35 $-1 $103 forward single #
loop $-1 $104 $105 $45 #
cone-surface $-1 51.810921174989332 -28.028849961545681 8.0657687508145077 0 0.73135370988377701 -0.68199835119979291 3 0 0 1 I I 0 1 3 forward I I I I #
face $-1 $106 $107 $36 $-1 $108 reversed single #
loop $-1 $-1 $109 $46 #
plane-surface $-1 -52.726177676699407 83.832368382597892 151.32373884979461 1 0 0 0 -0.73135370988377701 -0.68199835119979291 forward_v I I I I #
face $-1 $110 $111 $37 $-1 $112 forward single #
loop $-1 $113 $114 $47 #
cone-surface $-1 -37.840727502465427 28.028849961545681 8.0657687508145148 0 -0.73135370988377701 -0.68199835119979291 3 0 0 1 I I 0 1 3 forward I I I I #
face $-1 $115 $116 $38 $-1 $117 reversed single #
loop $-1 $-1 $118 $48 #
plane-surface $-1 36.925471000755351 83.832368382597892 151.32373884979461 1 0 0 0 -0.73135370988377701 -0.68199835119979291 forward_v I I I I #
face $-1 $119 $120 $39 $-1 $121 forward single #
loop $-1 $122 $123 $49 #
cone-surface $-1 51.810921174989332 28.028849961545681 8.0657687508145148 0 -0.73135370988377701 -0.68199835119979291 3 0 0 1 I I 0 1 3 forward I I I I #
face $-1 $124 $125 $30 $-1 $126 reversed single #
loop $-1 $-1 $127 $50 #
plane-surface $-1 0 0 -17.919591316899421 0 0 1 1 0 0 forward_v I I I I #
coedge $-1 $128 $129 $130 $131 forward $51 $-1 #
face $-1 $132 $133 $31 $-1 $134 reversed single #
loop $-1 $-1 $135 $53 #
plane-surface $-1 -59.71127451296136 0 -8.5555269508680283 0 0 1 1 0 0 forward_v I I I I #
coedge $-1 $136 $137 $138 $139 forward $54 $-1 #
face $-1 $140 $141 $32 $-1 $142 reversed single #
loop $-1 $-1 $143 $56 #
plane-surface $-1 -37.840727502465427 -37.706135168269483 5.1970645860496774 0 -0.73135370988377701 0.68199835119979291 1 0 0 forward_v I I I I #
coedge $-1 $144 $145 $146 $147 reversed $57 $-1 #
face $-1 $-1 $148 $33 $-1 $149 forward single #
loop $-1 $150 $151 $59 #
cone-surface $-1 -37.840727502465427 -23.186508101028693 3.5502120233547743 0 0.73135370988377701 -0.68199835119979291 1.5 0 0 1 I I -0.70710678118654757 0.70710678118654757 1.5 forward I I I I #
loop $-1 $-1 $152 $43 #
coedge $-1 $96 $96 $153 $154 reversed $60 $-1 #
face $-1 $155 $156 $34 $-1 $157 reversed single #
loop $-1 $-1 $158 $62 #
plane-surface $-1 51.810921174989332 -37.706135168269483 5.1970645860496774 0 -0.73135370988377701 0.68199835119979291 1 0 0 forward_v I I I I #
coedge $-1 $159 $160 $161 $162 reversed $63 $-1 #
face $-1 $-1 $163 $35 $-1 $164 forward single #
loop $-1 $165 $166 $65 #
cone-surface $-1 51.810921174989332 -23.186508101028693 3.5502120233547743 0 0.73135370988377701 -0.68199835119979291 1.5 0 0 1 I I -0.70710678118654757 0.70710678118654757 1.5 forward I I I I #
loop $-1 $-1 $167 $45 #
coedge $-1 $105 $105 $168 $169 reversed $66 $-1 #
face $-1 $170 $171 $36 $-1 $172 reversed single #
loop $-1 $-1 $173 $68 #
plane-surface $-1 -37.840727502465427 -13.724908861483158 60.3501082674358 0 0.73135370988377701 0.68199835119979291 1 0 0 forward_v I I I I #
coedge $-1 $174 $175 $176 $177 reversed $69 $-1 #
face $-1 $-1 $178 $37 $-1 $179 forward single #
loop $-1 $180 $181 $71 #
cone-surface $-1 -37.840727502465427 23.186508101028693 3.5502120233547814 0 -0.73135370988377701 -0.68199835119979291 1.5 0 0 1 I I -0.70710678118654757 0.70710678118654757 1.5 forward I I I I #
loop $-1 $-1 $182 $47 #
coedge $-1 $114 $114 $183 $184 reversed $72 $-1 #
face $-1 $185 $186 $38 $-1 $187 forward single #
loop $-1 $-1 $188 $74 #
plane-surface $-1 51.810921174989332 -13.724908861483158 60.3501082674358 0 0.73135370988377701 0.68199835119979291 1 0 0 forward_v I I I I #
coedge $-1 $189 $190 $191 $192 reversed $75 $-1 #
face $-1 $-1 $193 $39 $-1 $194 forward single #
loop $-1 $195 $196 $77 #
cone-surface $-1 51.810921174989332 23.186508101028693 3.5502120233547814 0 -0.73135370988377701 -0.68199835119979291 1.5 0 0 1 I I -0.70710678118654757 0.70710678118654757 1.5 forward I I I I #
loop $-1 $-1 $197 $49 #
coedge $-1 $123 $123 $198 $199 reversed $78 $-1 #
face $-1 $200 $201 $30 $-1 $202 reversed single #
loop $-1 $-1 $203 $80 #
plane-surface $-1 0 -37.706135168269512 0 0 1 0 0 0 1 forward_v I I I I #
coedge $-1 $204 $205 $206 $207 forward $81 $-1 #
coedge $-1 $208 $83 $209 $210 forward $51 $-1 #
coedge $-1 $83 $208 $211 $212 forward $51 $-1 #
coedge $-1 $213 $214 $83 $131 reversed $215 $-1 #
edge $-1 $216 -37.706135168269512 $217 37.706135168269512 $130 $218 forward 7 unknown #
face $-1 $219 $220 $31 $-1 $221 reversed single #
loop $-1 $-1 $222 $84 #
plane-surface $-1 -52.726177676699407 0 -3.8854518737885684 -1 0 0 0 0 1 forward_v I I I I #
coedge $-1 $223 $224 $225 $226 forward $85 $-1 #
coedge $-1 $227 $87 $228 $229 reversed $54 $-1 #
coedge $-1 $87 $227 $230 $231 reversed $54 $-1 #
coedge $-1 $222 $232 $87 $139 reversed $133 $-1 #
edge $-1 $233 -37.706135168269512 $234 37.706135168269512 $138 $235 forward 7 unknown #
face $-1 $236 $237 $32 $-1 $238 forward single #
loop $-1 $-1 $239 $88 #
plane-surface $-1 -22.955277328231446 -135.26341241235053 96.170695168408486 -1 0 0 0 -0.73135370988377701 0.68199835119979291 forward_v I I I I #
coedge $-1 $240 $241 $242 $243 reversed $89 $-1 #
coedge $-1 $145 $91 $244 $245 reversed $57 $-1 #
coedge $-1 $91 $144 $240 $246 reversed $57 $-1 #
coedge $-1 $242 $247 $91 $147 forward $248 $-1 #
edge $-1 $249 30.165756267304822 $250 42.888282998154594 $146 $251 forward 7 unknown #
loop $-1 $-1 $153 $92 #
plane-surface $-1 -37.840727502465427 -37.706135168269483 5.1970645860496774 0 -0.73135370988377701 0.68199835119979291 1 0 0 forward_v I I I I #
loop $-1 $-1 $252 $59 #
coedge $-1 $151 $151 $152 $253 reversed $93 $-1 #
coedge $-1 $152 $152 $151 $253 forward $95 $-1 #
coedge $-1 $153 $153 $96 $154 forward $148 $-1 #
edge $-1 $254 -5.1540586054447217e-016 $254 6.2831853071795996 $153 $255 forward 7 unknown #
face $-1 $256 $257 $34 $-1 $258 forward single #
loop $-1 $-1 $161 $97 #
plane-surface $-1 0 -37.706135168269512 0 0 1 0 0 0 1 forward_v I I I I #
coedge $-1 $259 $260 $261 $262 reversed $98 $-1 #
coedge $-1 $160 $100 $263 $264 reversed $63 $-1 #
coedge $-1 $100 $159 $259 $265 reversed $63 $-1 #
coedge $-1 $261 $266 $100 $162 forward $156 $-1 #
edge $-1 $267 30.165756267304822 $268 42.888282998154594 $161 $269 forward 7 unknown #
loop $-1 $-1 $168 $101 #
plane-surface $-1 51.810921174989332 -37.706135168269483 5.1970645860496774 0 -0.73135370988377701 0.68199835119979291 1 0 0 forward_v I I I I #
loop $-1 $-1 $270 $65 #
coedge $-1 $166 $166 $167 $271 reversed $102 $-1 #
coedge $-1 $167 $167 $166 $271 forward $104 $-1 #
coedge $-1 $168 $168 $105 $169 forward $163 $-1 #
edge $-1 $272 -5.1540586054447217e-016 $272 6.2831853071795996 $168 $273 forward 7 unknown #
face $-1 $274 $275 $36 $-1 $276 reversed single #
loop $-1 $-1 $277 $106 #
plane-surface $-1 -22.955277328231446 83.832368382597892 151.32373884979461 -1 0 0 0 0.73135370988377701 0.68199835119979291 forward_v I I I I #
coedge $-1 $278 $279 $280 $281 reversed $107 $-1 #
coedge $-1 $175 $109 $282 $283 reversed $69 $-1 #
coedge $-1 $109 $174 $278 $284 reversed $69 $-1 #
coedge $-1 $280 $285 $109 $177 forward $286 $-1 #
edge $-1 $287 4.2100490230294341 $288 16.07399684509447 $176 $289 forward 7 unknown #
loop $-1 $-1 $183 $110 #
plane-surface $-1 -37.840727502465427 -13.724908861483158 60.3501082674358 0 0.73135370988377701 0.68199835119979291 1 0 0 forward_v I I I I #
loop $-1 $-1 $290 $71 #
coedge $-1 $181 $181 $182 $291 reversed $111 $-1 #
coedge $-1 $182 $182 $181 $291 forward $113 $-1 #
coedge $-1 $183 $183 $114 $184 forward $178 $-1 #
edge $-1 $292 1.9925444429933746e-016 $292 6.2831853071796004 $183 $293 forward 7 unknown #
face $-1 $294 $295 $38 $-1 $296 reversed single #
loop $-1 $-1 $191 $115 #
plane-surface $-1 0 0 17.919591316899421 0 0 1 1 0 0 forward_v I I I I #
coedge $-1 $297 $298 $299 $300 reversed $116 $-1 #
coedge $-1 $190 $118 $301 $302 reversed $75 $-1 #
coedge $-1 $118 $189 $297 $303 reversed $75 $-1 #
coedge $-1 $299 $304 $118 $192 forward $186 $-1 #
edge $-1 $305 4.2100490230294341 $306 16.07399684509447 $191 $307 forward 7 unknown #
loop $-1 $-1 $198 $119 #
plane-surface $-1 51.810921174989332 -13.724908861483158 60.3501082674358 0 0.73135370988377701 0.68199835119979291 1 0 0 forward_v I I I I #
loop $-1 $-1 $308 $77 #
coedge $-1 $196 $196 $197 $309 reversed $120 $-1 #
coedge $-1 $197 $197 $196 $309 forward $122 $-1 #
coedge $-1 $198 $198 $123 $199 forward $193 $-1 #
edge $-1 $310 1.9925444429933746e-016 $310 6.2831853071796004 $198 $311 forward 7 unknown #
face $-1 $312 $313 $30 $-1 $314 reversed single #
loop $-1 $-1 $315 $124 #
plane-surface $-1 -66.696371349223313 0 0 1 0 0 0 0 -1 forward_v I I I I #
coedge $-1 $316 $211 $317 $318 forward $125 $-1 #
coedge $-1 $319 $127 $316 $320 forward $81 $-1 #
coedge $-1 $127 $319 $321 $322 forward $81 $-1 #
coedge $-1 $214 $213 $127 $207 reversed $215 $-1 #
edge $-1 $323 -37.706135168269512 $324 37.706135168269512 $206 $325 forward 7 unknown #
coedge $-1 $129 $128 $326 $327 forward $51 $-1 #
coedge $-1 $328 $329 $128 $210 reversed $313 $-1 #
edge $-1 $217 -66.696371349223313 $330 66.696371349223313 $209 $331 forward 7 unknown #
coedge $-1 $203 $332 $129 $212 reversed $125 $-1 #
edge $-1 $333 -66.696371349223313 $216 66.696371349223313 $211 $334 forward 7 unknown #
coedge $-1 $206 $130 $332 $335 forward $215 $-1 #
coedge $-1 $130 $206 $328 $336 reversed $215 $-1 #
loop $-1 $-1 $213 $312 #
vertex $-1 $131 $337 #
vertex $-1 $131 $338 #
straight-curve $-1 66.696371349223313 0 17.919591316899421 0 1 0 I I #
face $-1 $339 $340 $31 $-1 $341 reversed single #
loop $-1 $-1 $342 $132 #
plane-surface $-1 0 -37.706135168269512 0 0 1 0 0 0 1 forward_v I I I I #
coedge $-1 $225 $138 $343 $344 reversed $133 $-1 #
coedge $-1 $345 $135 $342 $346 reversed $85 $-1 #
coedge $-1 $135 $345 $347 $348 reversed $85 $-1 #
coedge $-1 $232 $222 $135 $226 reversed $133 $-1 #
edge $-1 $349 -37.706135168269512 $350 37.706135168269512 $225 $351 forward 7 unknown #
coedge $-1 $137 $136 $352 $353 reversed $54 $-1 #
coedge $-1 $354 $355 $136 $229 forward $356 $-1 #
edge $-1 $357 -36.840734092742636 $234 -22.870540420218727 $228 $358 forward 7 unknown #
coedge $-1 $359 $343 $137 $231 forward $220 $-1 #
edge $-1 $233 22.870540420218727 $360 36.840734092742636 $230 $361 forward 7 unknown #
coedge $-1 $138 $225 $354 $362 reversed $133 $-1 #
vertex $-1 $231 $363 #
vertex $-1 $229 $364 #
straight-curve $-1 -52.726177676699407 0 0.78462320329089152 0 1 0 I I #
face $-1 $-1 $248 $32 $-1 $365 reversed single #
loop $-1 $-1 $366 $140 #
plane-surface $-1 0 0 17.919591316899421 0 0 1 1 0 0 forward_v I I I I #
coedge $-1 $367 $368 $369 $370 reversed $141 $-1 #
coedge $-1 $371 $143 $145 $246 forward $89 $-1 #
coedge $-1 $143 $371 $367 $372 forward $89 $-1 #
coedge $-1 $369 $146 $143 $243 forward $248 $-1 #
edge $-1 $250 -33.805813925466694 $373 -4.0349135769987328 $242 $374 forward 7 unknown #
coedge $-1 $375 $376 $144 $245 forward $237 $-1 #
edge $-1 $377 -41.789518859970812 $249 -29.925571037905755 $244 $378 forward 7 unknown #
edge $-1 $250 -4.1469026767552634e-014 $377 17.395859977071204 $145 $379 forward 7 unknown #
coedge $-1 $146 $369 $375 $380 reversed $248 $-1 #
loop $-1 $-1 $369 $236 #
vertex $-1 $380 $381 #
vertex $-1 $147 $382 #
straight-curve $-1 -52.726177676699407 -37.706135168269512 48.085347584204243 0 0 -1 I I #
coedge $-1 $252 $252 $-1 $383 reversed $150 $-1 #
edge $-1 $384 0 $384 6.2831853071796004 $151 $385 forward 7 unknown #
vertex $-1 $154 $386 #
ellipse-curve $-1 -37.840727502465427 -31.774161257236983 11.558327951474533 0 -0.73135370988377701 0.68199835119979291 3 0 0 1 I I #
face $-1 $-1 $387 $34 $-1 $388 reversed single #
loop $-1 $-1 $263 $155 #
plane-surface $-1 0 0 17.919591316899421 0 0 1 1 0 0 forward_v I I I I #
coedge $-1 $389 $158 $160 $265 forward $98 $-1 #
coedge $-1 $158 $389 $390 $391 reversed $98 $-1 #
coedge $-1 $392 $161 $158 $262 forward $156 $-1 #
edge $-1 $268 11.020010413260685 $393 40.790910761728647 $261 $394 forward 7 unknown #
coedge $-1 $395 $396 $159 $264 forward $257 $-1 #
edge $-1 $397 -41.789518859970812 $267 -29.925571037905755 $263 $398 forward 7 unknown #
edge $-1 $268 -4.1469026767552634e-014 $397 17.395859977071204 $160 $399 forward 7 unknown #
coedge $-1 $161 $392 $395 $400 reversed $156 $-1 #
vertex $-1 $400 $401 #
vertex $-1 $162 $402 #
straight-curve $-1 36.925471000755351 -37.706135168269512 48.085347584204243 0 0 -1 I I #
coedge $-1 $270 $270 $-1 $403 reversed $165 $-1 #
edge $-1 $404 0 $404 6.2831853071796004 $166 $405 forward 7 unknown #
vertex $-1 $169 $406 #
ellipse-curve $-1 51.810921174989332 -31.774161257236983 11.558327951474533 0 -0.73135370988377701 0.68199835119979291 3 0 0 1 I I #
face $-1 $-1 $286 $36 $-1 $407 forward single #
loop $-1 $-1 $408 $170 #
plane-surface $-1 0 37.706135168269512 0 0 -1 0 0 0 -1 forward_v I I I I #
coedge $-1 $409 $410 $411 $412 reversed $171 $-1 #
coedge $-1 $413 $173 $175 $284 forward $107 $-1 #
coedge $-1 $173 $413 $409 $414 forward $107 $-1 #
coedge $-1 $411 $176 $173 $281 forward $286 $-1 #
edge $-1 $288 -33.805813925466694 $415 -4.0349135769987328 $280 $416 forward 7 unknown #
coedge $-1 $417 $418 $174 $283 forward $275 $-1 #
edge $-1 $419 -70.464804838847627 $287 -57.742278107997883 $282 $420 forward 7 unknown #
edge $-1 $288 58.016410359467812 $419 75.412270336539009 $175 $421 forward 7 unknown #
coedge $-1 $176 $411 $417 $422 forward $286 $-1 #
loop $-1 $-1 $411 $274 #
vertex $-1 $283 $423 #
vertex $-1 $177 $424 #
straight-curve $-1 -52.726177676699407 41.916184191298946 17.919591316899414 0 -1 0 I I #
coedge $-1 $290 $290 $-1 $425 reversed $180 $-1 #
edge $-1 $426 0 $426 6.2831853071796004 $181 $427 forward 7 unknown #
vertex $-1 $184 $428 #
ellipse-curve $-1 -37.840727502465427 31.77416125723699 11.558327951474546 0 0.73135370988377701 0.68199835119979291 3 0 0 1 I I #
face $-1 $-1 $429 $38 $-1 $430 reversed single #
loop $-1 $-1 $431 $185 #
plane-surface $-1 66.696371349223313 0 0 -1 0 0 0 0 1 forward_v I I I I #
coedge $-1 $432 $188 $190 $303 forward $116 $-1 #
coedge $-1 $188 $432 $431 $433 reversed $116 $-1 #
coedge $-1 $434 $191 $188 $300 forward $186 $-1 #
edge $-1 $306 11.020010413260685 $435 40.790910761728647 $299 $436 forward 7 unknown #
coedge $-1 $437 $438 $189 $302 forward $429 $-1 #
edge $-1 $439 -70.464804838847627 $305 -57.742278107997883 $301 $440 forward 7 unknown #
edge $-1 $306 58.016410359467812 $439 75.412270336539009 $190 $441 forward 7 unknown #
coedge $-1 $191 $434 $437 $442 forward $186 $-1 #
vertex $-1 $302 $443 #
vertex $-1 $192 $444 #
straight-curve $-1 36.925471000755351 41.916184191298946 17.919591316899414 0 -1 0 I I #
coedge $-1 $308 $308 $-1 $445 reversed $195 $-1 #
edge $-1 $446 0 $446 6.2831853071796004 $196 $447 forward 7 unknown #
vertex $-1 $199 $448 #
ellipse-curve $-1 51.810921174989332 31.77416125723699 11.558327951474546 0 0.73135370988377701 0.68199835119979291 3 0 0 1 I I #
face $-1 $-1 $215 $30 $-1 $449 reversed single #
loop $-1 $-1 $328 $200 #
plane-surface $-1 0 37.706135168269512 0 0 -1 0 0 0 -1 forward_v I I I I #
coedge $-1 $450 $326 $329 $451 forward $201 $-1 #
coedge $-1 $332 $203 $204 $320 reversed $125 $-1 #
coedge $-1 $326 $450 $203 $318 reversed $201 $-1 #
edge $-1 $333 -17.919591316899421 $452 17.919591316899421 $317 $453 forward 7 unknown #
coedge $-1 $205 $204 $450 $454 forward $81 $-1 #
edge $-1 $324 -66.696371349223313 $452 66.696371349223313 $316 $455 forward 7 unknown #
coedge $-1 $329 $328 $205 $322 reversed $313 $-1 #
edge $-1 $456 -66.696371349223313 $323 66.696371349223313 $321 $457 forward 7 unknown #
vertex $-1 $207 $458 #
vertex $-1 $335 $459 #
straight-curve $-1 66.696371349223313 0 -17.919591316899421 0 -1 0 I I #
coedge $-1 $315 $317 $208 $327 reversed $201 $-1 #
edge $-1 $330 -37.706135168269512 $333 37.706135168269512 $326 $460 forward 7 unknown #
coedge $-1 $321 $209 $214 $336 forward $313 $-1 #
coedge $-1 $209 $321 $315 $451 reversed $313 $-1 #
vertex $-1 $210 $461 #
straight-curve $-1 0 37.706135168269512 17.919591316899421 -1 0 0 I I #
coedge $-1 $211 $316 $213 $335 reversed $125 $-1 #
vertex $-1 $327 $462 #
straight-curve $-1 0 -37.706135168269512 17.919591316899421 1 0 0 I I #
edge $-1 $216 -17.919591316899421 $324 17.919591316899421 $213 $463 forward 7 unknown #
edge $-1 $217 -17.919591316899421 $323 17.919591316899421 $214 $464 forward 7 unknown #
point $-1 66.696371349223313 -37.706135168269512 17.919591316899421 #
point $-1 66.696371349223313 37.706135168269512 17.919591316899421 #
face $-1 $-1 $356 $31 $-1 $465 reversed single #
loop $-1 $-1 $466 $219 #
plane-surface $-1 -66.696371349223313 0 0 1 0 0 0 0 -1 forward_v I I I I #
coedge $-1 $343 $359 $223 $346 forward $220 $-1 #
coedge $-1 $230 $342 $222 $344 forward $220 $-1 #
edge $-1 $350 -6.6128010139737441 $233 2.7273491401851757 $343 $467 forward 7 unknown #
coedge $-1 $224 $223 $466 $468 reversed $85 $-1 #
edge $-1 $469 -36.840734092742636 $350 -22.870540420218727 $342 $470 forward 7 unknown #
coedge $-1 $355 $354 $224 $348 forward $356 $-1 #
edge $-1 $349 22.870540420218727 $471 36.840734092742636 $347 $472 forward 7 unknown #
vertex $-1 $348 $473 #
vertex $-1 $346 $474 #
straight-curve $-1 -52.726177676699407 0 -8.5555269508680283 0 -1 0 I I #
coedge $-1 $475 $476 $227 $353 forward $340 $-1 #
edge $-1 $360 -37.706135168269512 $357 37.706135168269512 $352 $477 forward 7 unknown #
coedge $-1 $347 $228 $232 $362 forward $356 $-1 #
coedge $-1 $228 $347 $475 $478 reversed $356 $-1 #
loop $-1 $-1 $347 $339 #
vertex $-1 $478 $479 #
straight-curve $-1 -29.85563725648068 37.706135168269512 0.78462320329089152 1 0 0 I I #
coedge $-1 $342 $230 $476 $480 forward $220 $-1 #
vertex $-1 $480 $481 #
straight-curve $-1 -29.85563725648068 -37.706135168269512 0.78462320329089152 -1 0 0 I I #
edge $-1 $234 -2.7273491401851757 $349 6.6128010139737441 $354 $482 forward 7 unknown #
point $-1 -52.726177676699407 -37.706135168269512 0.78462320329089152 #
point $-1 -52.726177676699407 37.706135168269512 0.78462320329089152 #
plane-surface $-1 0 -37.706135168269512 0 0 1 0 0 0 1 forward_v I I I I #
coedge $-1 $376 $375 $368 $483 forward $237 $-1 #
coedge $-1 $368 $239 $241 $372 reversed $141 $-1 #
coedge $-1 $239 $367 $366 $483 reversed $141 $-1 #
coedge $-1 $247 $242 $239 $370 forward $248 $-1 #
edge $-1 $373 -42.888282998154594 $484 -30.165756267304822 $369 $485 forward 7 unknown #
coedge $-1 $241 $240 $376 $486 reversed $89 $-1 #
edge $-1 $487 -17.395859977071204 $373 4.1469026767552634e-014 $367 $488 forward 7 unknown #
vertex $-1 $243 $489 #
straight-curve $-1 -18.920363751232713 -37.706135168269512 5.1970645860496436 1 0 0 I I #
coedge $-1 $366 $244 $247 $380 forward $237 $-1 #
coedge $-1 $244 $366 $371 $486 forward $237 $-1 #
vertex $-1 $245 $490 #
straight-curve $-1 -52.726177676699407 -67.631706206175267 17.919591316899421 0 -1 0 I I #
straight-curve $-1 -52.726177676699407 -37.706135168269483 5.1970645860496774 0 0.68199835119979291 0.73135370988377701 I I #
edge $-1 $249 -52.726177676699407 $484 -22.955277328231446 $247 $491 forward 7 unknown #
point $-1 -52.726177676699407 -37.706135168269512 17.919591316899421 #
point $-1 -52.726177676699407 -37.706135168269512 5.1970645860496472 #
edge $-1 $492 1 $492 0 $252 $-1 forward 7 unknown #
vertex $-1 $253 $493 #
ellipse-curve $-1 -37.840727502465427 -24.283538665854358 4.5732095501544636 0 -0.73135370988377701 0.68199835119979291 3 0 0 1 I I #
point $-1 -34.840727502465427 -31.774161257237004 11.558327951474551 #
loop $-1 $-1 $390 $256 #
plane-surface $-1 66.696371349223313 0 0 -1 0 0 0 0 1 forward_v I I I I #
coedge $-1 $260 $259 $396 $494 reversed $98 $-1 #
coedge $-1 $495 $496 $260 $391 forward $387 $-1 #
edge $-1 $393 -10.957314774681684 $497 6.4385452023895642 $390 $498 forward 7 unknown #
coedge $-1 $266 $261 $496 $499 reversed $156 $-1 #
vertex $-1 $262 $500 #
straight-curve $-1 25.905460587494666 -37.706135168269512 5.1970645860496436 1 0 0 I I #
coedge $-1 $501 $263 $266 $400 forward $257 $-1 #
coedge $-1 $263 $501 $389 $494 forward $257 $-1 #
vertex $-1 $264 $502 #
straight-curve $-1 36.925471000755351 -67.631706206175267 17.919591316899421 0 -1 0 I I #
straight-curve $-1 36.925471000755351 -37.706135168269483 5.1970645860496774 0 0.68199835119979291 0.73135370988377701 I I #
edge $-1 $267 36.925471000755351 $503 66.696371349223313 $266 $504 forward 7 unknown #
point $-1 36.925471000755351 -37.706135168269512 17.919591316899421 #
point $-1 36.925471000755351 -37.706135168269512 5.1970645860496472 #
edge $-1 $505 1 $505 0 $270 $-1 forward 7 unknown #
vertex $-1 $271 $506 #
ellipse-curve $-1 51.810921174989332 -24.283538665854358 4.5732095501544636 0 -0.73135370988377701 0.68199835119979291 3 0 0 1 I I #
point $-1 54.810921174989332 -31.774161257237004 11.558327951474551 #
plane-surface $-1 0 0 17.919591316899421 0 0 1 1 0 0 forward_v I I I I #
coedge $-1 $418 $417 $410 $507 forward $275 $-1 #
coedge $-1 $410 $277 $279 $414 reversed $171 $-1 #
coedge $-1 $277 $409 $408 $507 reversed $171 $-1 #
coedge $-1 $285 $280 $277 $412 forward $286 $-1 #
edge $-1 $415 -16.07399684509447 $508 -4.2100490230294341 $411 $509 forward 7 unknown #
coedge $-1 $279 $278 $418 $510 reversed $107 $-1 #
edge $-1 $511 -75.412270336539009 $415 -58.016410359467812 $409 $512 forward 7 unknown #
vertex $-1 $281 $513 #
straight-curve $-1 -18.920363751232713 25.842187346204479 17.919591316899417 1 0 0 I I #
coedge $-1 $408 $282 $285 $422 reversed $275 $-1 #
coedge $-1 $282 $408 $413 $510 forward $275 $-1 #
vertex $-1 $283 $514 #
straight-curve $-1 -52.726177676699407 37.706135168269512 75.661869424897304 0 0 1 I I #
straight-curve $-1 -52.726177676699407 -13.724908861483158 60.3501082674358 0 0.68199835119979291 -0.73135370988377701 I I #
edge $-1 $508 22.955277328231446 $287 52.726177676699407 $417 $515 forward 7 unknown #
point $-1 -52.726177676699407 37.706135168269512 17.919591316899421 #
point $-1 -52.726177676699407 25.842187346204476 17.919591316899421 #
edge $-1 $516 1 $516 0 $290 $-1 forward 7 unknown #
vertex $-1 $291 $517 #
ellipse-curve $-1 -37.840727502465427 24.283538665854358 4.5732095501544707 0 0.73135370988377701 0.68199835119979291 3 0 0 1 I I #
point $-1 -34.840727502465427 31.774161257237004 11.558327951474558 #
loop $-1 $-1 $301 $294 #
plane-surface $-1 0 37.706135168269512 0 0 -1 0 0 0 -1 forward_v I I I I #
coedge $-1 $518 $519 $298 $433 forward $295 $-1 #
coedge $-1 $298 $297 $438 $520 reversed $116 $-1 #
edge $-1 $435 31.267589965879949 $521 48.663449942951154 $431 $522 forward 7 unknown #
coedge $-1 $304 $299 $519 $523 forward $186 $-1 #
vertex $-1 $523 $524 #
straight-curve $-1 25.905460587494666 25.842187346204479 17.919591316899417 1 0 0 I I #
coedge $-1 $525 $301 $304 $442 reversed $429 $-1 #
coedge $-1 $301 $525 $432 $520 forward $429 $-1 #
vertex $-1 $302 $526 #
straight-curve $-1 36.925471000755351 37.706135168269512 75.661869424897304 0 0 1 I I #
straight-curve $-1 36.925471000755351 -13.724908861483158 60.3501082674358 0 0.68199835119979291 -0.73135370988377701 I I #
edge $-1 $527 -66.696371349223313 $305 -36.925471000755351 $437 $528 forward 7 unknown #
point $-1 36.925471000755351 37.706135168269512 17.919591316899421 #
point $-1 36.925471000755351 25.842187346204476 17.919591316899421 #
edge $-1 $529 1 $529 0 $308 $-1 forward 7 unknown #
vertex $-1 $309 $530 #
ellipse-curve $-1 51.810921174989332 24.283538665854358 4.5732095501544707 0 0.73135370988377701 0.68199835119979291 3 0 0 1 I I #
point $-1 54.810921174989332 31.774161257237004 11.558327951474558 #
plane-surface $-1 66.696371349223313 0 0 -1 0 0 0 0 1 forward_v I I I I #
coedge $-1 $317 $315 $319 $454 reversed $201 $-1 #
edge $-1 $330 -17.919591316899421 $456 17.919591316899421 $329 $531 forward 7 unknown #
vertex $-1 $454 $532 #
straight-curve $-1 -66.696371349223313 -37.706135168269512 0 0 0 -1 I I #
edge $-1 $452 -37.706135168269512 $456 37.706135168269512 $450 $533 forward 7 unknown #
straight-curve $-1 0 -37.706135168269512 -17.919591316899421 -1 0 0 I I #
vertex $-1 $322 $534 #
straight-curve $-1 0 37.706135168269512 -17.919591316899421 1 0 0 I I #
point $-1 66.696371349223313 37.706135168269512 -17.919591316899421 #
point $-1 66.696371349223313 -37.706135168269512 -17.919591316899421 #
straight-curve $-1 -66.696371349223313 0 17.919591316899421 0 -1 0 I I #
point $-1 -66.696371349223313 37.706135168269512 17.919591316899421 #
point $-1 -66.696371349223313 -37.706135168269512 17.919591316899421 #
straight-curve $-1 66.696371349223313 -37.706135168269512 0 0 0 -1 I I #
straight-curve $-1 66.696371349223313 37.706135168269512 0 0 0 -1 I I #
plane-surface $-1 0 37.706135168269512 0 0 -1 0 0 0 -1 forward_v I I I I #
coedge $-1 $476 $475 $345 $468 forward $340 $-1 #
straight-curve $-1 -52.726177676699407 -37.706135168269512 -1.9427259368942842 0 0 1 I I #
edge $-1 $471 -37.706135168269512 $469 37.706135168269512 $466 $535 forward 7 unknown #
vertex $-1 $346 $536 #
straight-curve $-1 -29.85563725648068 -37.706135168269512 -8.5555269508680283 1 0 0 I I #
vertex $-1 $348 $537 #
straight-curve $-1 -29.85563725648068 37.706135168269512 -8.5555269508680283 -1 0 0 I I #
point $-1 -52.726177676699407 37.706135168269512 -8.5555269508680283 #
point $-1 -52.726177676699407 -37.706135168269512 -8.5555269508680283 #
coedge $-1 $466 $352 $355 $478 forward $340 $-1 #
coedge $-1 $352 $466 $359 $480 reversed $340 $-1 #
straight-curve $-1 -66.696371349223313 0 0.78462320329089152 0 1 0 I I #
edge $-1 $357 -0.78462320329089152 $471 8.5555269508680283 $355 $538 forward 7 unknown #
point $-1 -66.696371349223313 37.706135168269512 0.78462320329089152 #
edge $-1 $360 -0.78462320329089152 $469 8.5555269508680283 $476 $539 forward 7 unknown #
point $-1 -66.696371349223313 -37.706135168269512 0.78462320329089152 #
straight-curve $-1 -52.726177676699407 37.706135168269512 -1.9427259368942842 0 0 -1 I I #
edge $-1 $484 29.925571037905755 $487 41.789518859970812 $366 $540 forward 7 unknown #
vertex $-1 $483 $541 #
straight-curve $-1 -22.955277328231446 -37.706135168269512 48.085347584204243 0 0 1 I I #
edge $-1 $487 4.0349135769987328 $377 33.805813925466694 $376 $542 forward 7 unknown #
vertex $-1 $486 $543 #
straight-curve $-1 -22.955277328231446 -37.706135168269483 5.1970645860496774 0 -0.68199835119979291 -0.73135370988377701 I I #
point $-1 -22.955277328231446 -37.706135168269512 5.1970645860496472 #
point $-1 -52.726177676699407 -25.842187346204454 17.919591316899421 #
straight-curve $-1 0 -37.706135168269512 17.919591316899421 1 0 0 I I #
vertex $-1 $383 $544 #
point $-1 -34.840727502465427 -24.283538665854358 4.5732095501544636 #
edge $-1 $497 -40.790910761728647 $397 -11.020010413260685 $396 $545 forward 7 unknown #
coedge $-1 $496 $390 $501 $546 reversed $387 $-1 #
coedge $-1 $390 $495 $392 $499 forward $387 $-1 #
vertex $-1 $391 $547 #
straight-curve $-1 66.696371349223313 -30.233264558359473 13.210737396877418 0 0.68199835119979291 0.73135370988377701 I I #
edge $-1 $503 -17.919591316899421 $393 -5.1970645860496472 $496 $548 forward 7 unknown #
point $-1 66.696371349223313 -37.706135168269512 5.1970645860496472 #
coedge $-1 $396 $395 $495 $546 forward $257 $-1 #
point $-1 36.925471000755351 -25.842187346204454 17.919591316899421 #
vertex $-1 $546 $549 #
straight-curve $-1 0 -37.706135168269512 17.919591316899421 1 0 0 I I #
vertex $-1 $403 $550 #
point $-1 54.810921174989332 -24.283538665854358 4.5732095501544636 #
edge $-1 $508 57.742278107997883 $511 70.464804838847627 $408 $551 forward 7 unknown #
vertex $-1 $422 $552 #
straight-curve $-1 -22.955277328231446 41.916184191298946 17.919591316899414 0 1 0 I I #
edge $-1 $511 4.0349135769987328 $419 33.805813925466694 $418 $553 forward 7 unknown #
vertex $-1 $510 $554 #
straight-curve $-1 -22.955277328231446 -13.724908861483158 60.3501082674358 0 -0.68199835119979291 0.73135370988377701 I I #
point $-1 -22.955277328231446 25.842187346204476 17.919591316899421 #
point $-1 -52.726177676699407 37.706135168269505 5.1970645860496774 #
straight-curve $-1 0 37.706135168269512 17.919591316899421 -1 0 0 I I #
vertex $-1 $425 $555 #
point $-1 -34.840727502465427 24.283538665854358 4.5732095501544707 #
coedge $-1 $519 $431 $525 $556 reversed $295 $-1 #
coedge $-1 $431 $518 $434 $523 reversed $295 $-1 #
edge $-1 $521 -40.790910761728647 $439 -11.020010413260685 $438 $557 forward 7 unknown #
vertex $-1 $433 $558 #
straight-curve $-1 66.696371349223313 4.5177425434831555 40.787259237570481 0 0.68199835119979291 -0.73135370988377701 I I #
edge $-1 $435 25.842187346204476 $527 37.706135168269512 $519 $559 forward 7 unknown #
point $-1 66.696371349223313 25.842187346204476 17.919591316899421 #
coedge $-1 $438 $437 $518 $556 forward $429 $-1 #
point $-1 36.925471000755351 37.706135168269505 5.1970645860496774 #
vertex $-1 $523 $560 #
straight-curve $-1 0 37.706135168269512 17.919591316899421 -1 0 0 I I #
vertex $-1 $445 $561 #
point $-1 54.810921174989332 24.283538665854358 4.5732095501544707 #
straight-curve $-1 -66.696371349223313 37.706135168269512 0 0 0 -1 I I #
point $-1 -66.696371349223313 -37.706135168269512 -17.919591316899421 #
straight-curve $-1 -66.696371349223313 0 -17.919591316899421 0 1 0 I I #
point $-1 -66.696371349223313 37.706135168269512 -17.919591316899421 #
straight-curve $-1 -66.696371349223313 0 -8.5555269508680283 0 -1 0 I I #
point $-1 -66.696371349223313 -37.706135168269512 -8.5555269508680283 #
point $-1 -66.696371349223313 37.706135168269512 -8.5555269508680283 #
straight-curve $-1 -66.696371349223313 37.706135168269512 0 0 0 -1 I I #
straight-curve $-1 -66.696371349223313 -37.706135168269512 0 0 0 -1 I I #
straight-curve $-1 -22.955277328231446 -67.631706206175267 17.919591316899421 0 1 0 I I #
point $-1 -22.955277328231446 -37.706135168269512 17.919591316899421 #
straight-curve $-1 -18.920363751232713 -25.842187346204451 17.919591316899421 -1 0 0 I I #
point $-1 -22.955277328231446 -25.842187346204454 17.919591316899421 #
point $-1 -37.840727502465427 -22.089477536203027 2.5272144965550849 #
straight-curve $-1 25.905460587494666 -25.842187346204451 17.919591316899421 -1 0 0 I I #
edge $-1 $503 -37.706135168269512 $497 -25.842187346204454 $495 $562 forward 7 unknown #
point $-1 66.696371349223313 -25.842187346204454 17.919591316899421 #
straight-curve $-1 66.696371349223313 -37.706135168269512 0 0 0 -1 I I #
point $-1 66.696371349223313 -37.706135168269512 17.919591316899421 #
point $-1 51.810921174989332 -22.089477536203027 2.5272144965550849 #
straight-curve $-1 -22.955277328231446 37.706135168269512 75.661869424897304 0 0 -1 I I #
point $-1 -22.955277328231446 37.706135168269512 17.919591316899421 #
straight-curve $-1 -18.920363751232713 37.706135168269512 5.1970645860496703 -1 0 0 I I #
point $-1 -22.955277328231446 37.706135168269505 5.1970645860496774 #
point $-1 -37.840727502465427 22.089477536203027 2.527214496555092 #
edge $-1 $527 -17.919591316899421 $521 -5.1970645860496774 $518 $563 forward 7 unknown #
straight-curve $-1 25.905460587494666 37.706135168269512 5.1970645860496703 -1 0 0 I I #
point $-1 66.696371349223313 37.706135168269505 5.1970645860496774 #
straight-curve $-1 66.696371349223313 0 17.919591316899421 0 1 0 I I #
point $-1 66.696371349223313 37.706135168269512 17.919591316899421 #
point $-1 51.810921174989332 22.089477536203027 2.527214496555092 #
straight-curve $-1 66.696371349223313 0 17.919591316899421 0 1 0 I I #
straight-curve $-1 66.696371349223313 37.706135168269512 0 0 0 -1 I I #
End-of-ACIS-data 