600 0 6 0           
107 GICL ACIS Healer - Source: /gicl/data5/repository/Drexel/CICIRELLO-THESISDATA/Part10017.smdg.feat.sat - 6 0 18 ACIS 6.0.3 Solaris 24 Fri Apr 12 10:32:14 2002 
1 9.999999999999999547e-07 1.000000000000000036e-10 
body $-1 $6 $-1 $-1 #
body $-1 $7 $-1 $-1 #
body $-1 $8 $-1 $-1 #
body $-1 $9 $-1 $-1 #
body $-1 $10 $-1 $-1 #
body $-1 $11 $-1 $-1 #
lump $-1 $-1 $12 $0 #
lump $-1 $-1 $13 $1 #
lump $-1 $-1 $14 $2 #
lump $-1 $-1 $15 $3 #
lump $-1 $-1 $16 $4 #
lump $-1 $-1 $17 $5 #
shell $-1 $-1 $-1 $18 $-1 $6 #
shell $-1 $-1 $-1 $19 $-1 $7 #
shell $-1 $-1 $-1 $20 $-1 $8 #
shell $-1 $-1 $-1 $21 $-1 $9 #
shell $-1 $-1 $-1 $22 $-1 $10 #
shell $-1 $-1 $-1 $23 $-1 $11 #
face $-1 $24 $25 $12 $-1 $26 forward single #
face $-1 $27 $28 $13 $-1 $29 forward single #
face $-1 $30 $31 $14 $-1 $32 forward single #
face $-1 $33 $34 $15 $-1 $35 forward single #
face $-1 $36 $37 $16 $-1 $38 forward single #
face $-1 $39 $40 $17 $-1 $41 forward single #
face $-1 $42 $43 $12 $-1 $44 reversed single #
loop $-1 $-1 $45 $18 #
plane-surface $-1 71.42551957762383097 47.94252991089384608 34.82260237065564468 0 0 1 1 0 0 forward_v I I I I #
face $-1 $46 $47 $13 $-1 $48 reversed single #
loop $-1 $-1 $49 $19 #
plane-surface $-1 7.588669419267940697 22.9876591122217917 34.82260237065564468 0 0 1 1 0 0 forward_v I I I I #
face $-1 $50 $51 $14 $-1 $52 reversed single #
loop $-1 $-1 $53 $20 #
plane-surface $-1 206.1786502407720718 15.16027319457143463 335.5203377275990988 0.6156614830463592591 0 0.788010747574649173 0.788010747574649173 0 -0.6156614830463592591 forward_v I I I I #
face $-1 $54 $55 $15 $-1 $56 forward single #
loop $-1 $57 $58 $21 #
cone-surface $-1 133.2908668295404766 15.16027319457143463 26.53897087677264111 -0.6156614830463592591 0 -0.788010747574649173 1.576021495149298346 0 -1.231322966092718518 1 I I 0 1 2 forward I I I I #
face $-1 $59 $60 $16 $-1 $61 reversed single #
loop $-1 $-1 $62 $22 #
plane-surface $-1 206.1786502407720718 63.10280310546528426 335.5203377275990988 0.6156614830463592591 0 0.788010747574649173 0.788010747574649173 0 -0.6156614830463592591 forward_v I I I I #
face $-1 $63 $64 $17 $-1 $65 forward single #
loop $-1 $66 $67 $23 #
cone-surface $-1 133.2908668295404766 63.10280310546528426 26.53897087677264111 -0.6156614830463592591 0 -0.788010747574649173 1.576021495149298346 0 -1.231322966092718518 1 I I 0 1 2 forward I I I I #
face $-1 $68 $69 $12 $-1 $70 reversed single #
loop $-1 $-1 $71 $24 #
plane-surface $-1 71.42551957762383097 47.94252991089384608 0 0 0 1 1 0 0 forward_v I I I I #
coedge $-1 $72 $73 $74 $75 forward $25 $-1 #
face $-1 $76 $77 $13 $-1 $78 reversed single #
loop $-1 $-1 $79 $27 #
plane-surface $-1 7.588669419267940697 22.9876591122217917 0 0 0 1 1 0 0 forward_v I I I I #
coedge $-1 $80 $81 $82 $83 forward $28 $-1 #
face $-1 $84 $85 $14 $-1 $86 reversed single #
loop $-1 $-1 $87 $30 #
plane-surface $-1 30.28288499870545536 15.16027319457143463 110.3840294145147425 0.6156614830463592591 0 0.788010747574649173 0.788010747574649173 0 -0.6156614830463592591 forward_v I I I I #
coedge $-1 $88 $89 $90 $91 forward $31 $-1 #
face $-1 $-1 $92 $15 $-1 $93 forward single #
loop $-1 $-1 $94 $33 #
plane-surface $-1 134.9240692310675911 15.16027319457143463 28.62937458206855723 0.6156614830463592591 0 0.788010747574649173 -0.788010747574649173 0 0.6156614830463592591 forward_v I I I I #
loop $-1 $-1 $95 $21 #
coedge $-1 $58 $58 $94 $96 reversed $34 $-1 #
face $-1 $97 $98 $16 $-1 $99 reversed single #
loop $-1 $-1 $100 $36 #
plane-surface $-1 30.28288499870545536 63.10280310546528426 110.3840294145147425 0.6156614830463592591 0 0.788010747574649173 0.788010747574649173 0 -0.6156614830463592591 forward_v I I I I #
coedge $-1 $101 $102 $103 $104 forward $37 $-1 #
face $-1 $-1 $105 $17 $-1 $106 forward single #
loop $-1 $-1 $107 $39 #
plane-surface $-1 134.9240692310675911 63.10280310546528426 28.62937458206855723 0.6156614830463592591 0 0.788010747574649173 -0.788010747574649173 0 0.6156614830463592591 forward_v I I I I #
loop $-1 $-1 $108 $23 #
coedge $-1 $67 $67 $107 $109 reversed $40 $-1 #
face $-1 $110 $111 $12 $-1 $112 reversed single #
loop $-1 $-1 $113 $42 #
plane-surface $-1 71.42551957762383097 0 17.41130118532782234 0 1 0 0 0 1 forward_v I I I I #
coedge $-1 $114 $115 $116 $117 forward $43 $-1 #
coedge $-1 $118 $45 $119 $120 forward $25 $-1 #
coedge $-1 $45 $118 $121 $122 forward $25 $-1 #
coedge $-1 $123 $124 $45 $75 reversed $125 $-1 #
edge $-1 $126 -47.94252991089384608 $127 47.94252991089384608 $74 $128 forward 7 unknown #
face $-1 $129 $130 $13 $-1 $131 reversed single #
loop $-1 $-1 $132 $46 #
plane-surface $-1 7.588669419267940697 20.91941949298135484 17.41130118532782234 0 1 0 0 0 1 forward_v I I I I #
coedge $-1 $133 $134 $135 $136 forward $47 $-1 #
coedge $-1 $137 $49 $138 $139 forward $28 $-1 #
coedge $-1 $49 $137 $140 $141 forward $28 $-1 #
coedge $-1 $142 $143 $49 $83 reversed $144 $-1 #
edge $-1 $145 -2.068239619240436866 $146 2.068239619240436866 $82 $147 forward 7 unknown #
face $-1 $148 $149 $14 $-1 $150 reversed single #
loop $-1 $-1 $151 $50 #
plane-surface $-1 118.2307676197387707 5.420918039938271704 222.9521835710569349 0 1 0 0.6156614830463592591 0 0.788010747574649173 forward_v I I I I #
coedge $-1 $152 $153 $154 $155 forward $51 $-1 #
coedge $-1 $156 $53 $157 $158 forward $31 $-1 #
coedge $-1 $53 $156 $159 $160 forward $31 $-1 #
coedge $-1 $161 $162 $53 $91 reversed $163 $-1 #
edge $-1 $164 -9.739355154633162925 $165 9.739355154633162925 $90 $166 forward 7 unknown #
loop $-1 $167 $168 $54 #
cone-surface $-1 131.0420029449670096 15.16027319457143463 23.66055642390207936 -0.6156614830463592591 0 -0.788010747574649173 0.788010747574649173 0 -0.6156614830463592591 1 I I -0.7071067811865472397 0.7071067811865479058 1 forward I I I I #
coedge $-1 $94 $94 $58 $96 forward $55 $-1 #
coedge $-1 $95 $95 $168 $169 forward $57 $-1 #
edge $-1 $170 0 $170 6.283185307179586232 $94 $171 forward 7 unknown #
face $-1 $172 $173 $16 $-1 $174 reversed single #
loop $-1 $-1 $175 $59 #
plane-surface $-1 118.2307676197387707 53.36344795083212489 222.9521835710569349 0 1 0 0.6156614830463592591 0 0.788010747574649173 forward_v I I I I #
coedge $-1 $176 $177 $178 $179 forward $60 $-1 #
coedge $-1 $180 $62 $181 $182 forward $37 $-1 #
coedge $-1 $62 $180 $183 $184 forward $37 $-1 #
coedge $-1 $185 $186 $62 $104 reversed $187 $-1 #
edge $-1 $188 -9.739355154633159373 $189 9.739355154633159373 $103 $190 forward 7 unknown #
loop $-1 $191 $192 $63 #
cone-surface $-1 131.0420029449670096 63.10280310546528426 23.66055642390207936 -0.6156614830463592591 0 -0.788010747574649173 0.788010747574649173 0 -0.6156614830463592591 1 I I -0.7071067811865472397 0.7071067811865479058 1 forward I I I I #
coedge $-1 $107 $107 $67 $109 forward $64 $-1 #
coedge $-1 $108 $108 $192 $193 forward $66 $-1 #
edge $-1 $194 0 $194 6.283185307179586232 $107 $195 forward 7 unknown #
face $-1 $196 $197 $12 $-1 $198 reversed single #
loop $-1 $-1 $199 $68 #
plane-surface $-1 0 47.94252991089384608 17.41130118532782234 1 0 0 0 0 -1 forward_v I I I I #
coedge $-1 $200 $121 $201 $202 forward $69 $-1 #
coedge $-1 $203 $71 $200 $204 forward $43 $-1 #
coedge $-1 $71 $203 $205 $206 forward $43 $-1 #
coedge $-1 $124 $123 $71 $117 reversed $125 $-1 #
edge $-1 $207 -47.94252991089384608 $208 47.94252991089384608 $116 $209 forward 7 unknown #
coedge $-1 $73 $72 $210 $211 forward $25 $-1 #
coedge $-1 $212 $213 $72 $120 reversed $197 $-1 #
edge $-1 $127 -71.42551957762383097 $214 71.42551957762383097 $119 $215 forward 7 unknown #
coedge $-1 $113 $216 $73 $122 reversed $69 $-1 #
edge $-1 $217 -71.42551957762383097 $126 71.42551957762383097 $121 $218 forward 7 unknown #
coedge $-1 $116 $74 $216 $219 forward $125 $-1 #
coedge $-1 $74 $116 $212 $220 reversed $125 $-1 #
loop $-1 $-1 $123 $196 #
vertex $-1 $75 $221 #
vertex $-1 $75 $222 #
straight-curve $-1 142.8510391552476619 47.94252991089384608 34.82260237065564468 0 1 0 I I #
face $-1 $223 $224 $13 $-1 $225 reversed single #
loop $-1 $-1 $226 $76 #
plane-surface $-1 0 22.9876591122217917 17.41130118532782234 1 0 0 0 0 -1 forward_v I I I I #
coedge $-1 $227 $140 $228 $229 forward $77 $-1 #
coedge $-1 $230 $79 $227 $231 forward $47 $-1 #
coedge $-1 $79 $230 $232 $233 forward $47 $-1 #
coedge $-1 $143 $142 $79 $136 reversed $144 $-1 #
edge $-1 $234 -2.068239619240436866 $235 2.068239619240436866 $135 $236 forward 7 unknown #
coedge $-1 $81 $80 $237 $238 forward $28 $-1 #
coedge $-1 $239 $240 $80 $139 reversed $224 $-1 #
edge $-1 $146 -7.588669419267940697 $241 7.588669419267940697 $138 $242 forward 7 unknown #
coedge $-1 $132 $243 $81 $141 reversed $77 $-1 #
edge $-1 $244 -7.588669419267940697 $145 7.588669419267940697 $140 $245 forward 7 unknown #
coedge $-1 $135 $82 $243 $246 forward $144 $-1 #
coedge $-1 $82 $135 $239 $247 reversed $144 $-1 #
loop $-1 $-1 $142 $223 #
vertex $-1 $83 $248 #
vertex $-1 $83 $249 #
straight-curve $-1 15.17733883853588139 22.9876591122217917 34.82260237065564468 0 1 0 I I #
face $-1 $250 $251 $14 $-1 $252 reversed single #
loop $-1 $-1 $253 $84 #
plane-surface $-1 -106.905540693345614 15.16027319457143463 398.8479488131235939 0.788010747574649173 0 -0.6156614830463592591 -0.6156614830463592591 0 -0.788010747574649173 forward_v I I I I #
coedge $-1 $254 $159 $255 $256 forward $85 $-1 #
coedge $-1 $257 $87 $254 $258 forward $51 $-1 #
coedge $-1 $87 $257 $259 $260 forward $51 $-1 #
coedge $-1 $162 $161 $87 $155 reversed $163 $-1 #
edge $-1 $261 -9.739355154633162925 $262 9.739355154633162925 $154 $263 forward 7 unknown #
coedge $-1 $89 $88 $264 $265 forward $31 $-1 #
coedge $-1 $266 $267 $88 $158 reversed $251 $-1 #
edge $-1 $165 -285.7020783104953807 $268 285.7020783104953239 $157 $269 forward 7 unknown #
coedge $-1 $151 $270 $89 $160 reversed $85 $-1 #
edge $-1 $271 -285.7020783104953239 $164 285.7020783104953807 $159 $272 forward 7 unknown #
coedge $-1 $154 $90 $270 $273 forward $163 $-1 #
coedge $-1 $90 $154 $266 $274 reversed $163 $-1 #
loop $-1 $-1 $161 $250 #
vertex $-1 $91 $275 #
vertex $-1 $91 $276 #
straight-curve $-1 431.3149585538565134 15.16027319457143463 159.6245724855324966 0 1 0 I I #
loop $-1 $-1 $277 $54 #
coedge $-1 $168 $168 $95 $169 reversed $92 $-1 #
edge $-1 $278 0 $278 6.283185307179586232 $168 $279 forward 7 unknown #
vertex $-1 $96 $280 #
ellipse-curve $-1 134.9240692310675911 15.16027319457143463 28.62937458206855723 0.6156614830463592591 0 0.788010747574649173 1.576021495149298346 0 -1.231322966092718518 1 I I #
face $-1 $281 $282 $16 $-1 $283 reversed single #
loop $-1 $-1 $284 $97 #
plane-surface $-1 -106.905540693345614 63.10280310546528426 398.8479488131235939 0.788010747574649173 0 -0.6156614830463592591 -0.6156614830463592591 0 -0.788010747574649173 forward_v I I I I #
coedge $-1 $285 $183 $286 $287 forward $98 $-1 #
coedge $-1 $288 $100 $285 $289 forward $60 $-1 #
coedge $-1 $100 $288 $290 $291 forward $60 $-1 #
coedge $-1 $186 $185 $100 $179 reversed $187 $-1 #
edge $-1 $292 -9.739355154633159373 $293 9.739355154633159373 $178 $294 forward 7 unknown #
coedge $-1 $102 $101 $295 $296 forward $37 $-1 #
coedge $-1 $297 $298 $101 $182 reversed $282 $-1 #
edge $-1 $189 -285.7020783104953807 $299 285.7020783104953239 $181 $300 forward 7 unknown #
coedge $-1 $175 $301 $102 $184 reversed $98 $-1 #
edge $-1 $302 -285.7020783104953239 $188 285.7020783104953807 $183 $303 forward 7 unknown #
coedge $-1 $178 $103 $301 $304 forward $187 $-1 #
coedge $-1 $103 $178 $297 $305 reversed $187 $-1 #
loop $-1 $-1 $185 $281 #
vertex $-1 $104 $306 #
vertex $-1 $104 $307 #
straight-curve $-1 431.3149585538565134 63.10280310546528426 159.6245724855324966 0 1 0 I I #
loop $-1 $-1 $308 $63 #
coedge $-1 $192 $192 $108 $193 reversed $105 $-1 #
edge $-1 $309 0 $309 6.283185307179586232 $192 $310 forward 7 unknown #
vertex $-1 $109 $311 #
ellipse-curve $-1 134.9240692310675911 63.10280310546528426 28.62937458206855723 0.6156614830463592591 0 0.788010747574649173 1.576021495149298346 0 -1.231322966092718518 1 I I #
face $-1 $-1 $125 $12 $-1 $312 reversed single #
loop $-1 $-1 $212 $110 #
plane-surface $-1 71.42551957762383097 95.88505982178769216 17.41130118532782234 0 -1 0 0 0 -1 forward_v I I I I #
coedge $-1 $313 $210 $213 $314 forward $111 $-1 #
coedge $-1 $216 $113 $114 $204 reversed $69 $-1 #
coedge $-1 $210 $313 $113 $202 reversed $111 $-1 #
edge $-1 $217 -17.41130118532782234 $315 17.41130118532782234 $201 $316 forward 7 unknown #
coedge $-1 $115 $114 $313 $317 forward $43 $-1 #
edge $-1 $208 -71.42551957762383097 $315 71.42551957762383097 $200 $318 forward 7 unknown #
coedge $-1 $213 $212 $115 $206 reversed $197 $-1 #
edge $-1 $319 -71.42551957762383097 $207 71.42551957762383097 $205 $320 forward 7 unknown #
vertex $-1 $117 $321 #
vertex $-1 $219 $322 #
straight-curve $-1 142.8510391552476619 47.94252991089384608 0 0 -1 0 I I #
coedge $-1 $199 $201 $118 $211 reversed $111 $-1 #
edge $-1 $214 -47.94252991089384608 $217 47.94252991089384608 $210 $323 forward 7 unknown #
coedge $-1 $205 $119 $124 $220 forward $197 $-1 #
coedge $-1 $119 $205 $199 $314 reversed $197 $-1 #
vertex $-1 $120 $324 #
straight-curve $-1 71.42551957762383097 95.88505982178769216 34.82260237065564468 -1 0 0 I I #
coedge $-1 $121 $200 $123 $219 reversed $69 $-1 #
vertex $-1 $211 $325 #
straight-curve $-1 71.42551957762383097 0 34.82260237065564468 1 0 0 I I #
edge $-1 $126 -17.41130118532782234 $208 17.41130118532782234 $123 $326 forward 7 unknown #
edge $-1 $127 -17.41130118532782234 $207 17.41130118532782234 $124 $327 forward 7 unknown #
point $-1 142.8510391552476619 0 34.82260237065564468 #
point $-1 142.8510391552476619 95.88505982178769216 34.82260237065564468 #
face $-1 $-1 $144 $13 $-1 $328 reversed single #
loop $-1 $-1 $239 $129 #
plane-surface $-1 7.588669419267940697 25.05589873146222857 17.41130118532782234 0 -1 0 0 0 -1 forward_v I I I I #
coedge $-1 $329 $237 $240 $330 forward $130 $-1 #
coedge $-1 $243 $132 $133 $231 reversed $77 $-1 #
coedge $-1 $237 $329 $132 $229 reversed $130 $-1 #
edge $-1 $244 -17.41130118532782234 $331 17.41130118532782234 $228 $332 forward 7 unknown #
coedge $-1 $134 $133 $329 $333 forward $47 $-1 #
edge $-1 $235 -7.588669419267940697 $331 7.588669419267940697 $227 $334 forward 7 unknown #
coedge $-1 $240 $239 $134 $233 reversed $224 $-1 #
edge $-1 $335 -7.588669419267940697 $234 7.588669419267940697 $232 $336 forward 7 unknown #
vertex $-1 $136 $337 #
vertex $-1 $246 $338 #
straight-curve $-1 15.17733883853588139 22.9876591122217917 0 0 -1 0 I I #
coedge $-1 $226 $228 $137 $238 reversed $130 $-1 #
edge $-1 $241 -2.068239619240436866 $244 2.068239619240436866 $237 $339 forward 7 unknown #
coedge $-1 $232 $138 $143 $247 forward $224 $-1 #
coedge $-1 $138 $232 $226 $330 reversed $224 $-1 #
vertex $-1 $139 $340 #
straight-curve $-1 7.588669419267940697 25.05589873146222857 34.82260237065564468 -1 0 0 I I #
coedge $-1 $140 $227 $142 $246 reversed $77 $-1 #
vertex $-1 $238 $341 #
straight-curve $-1 7.588669419267940697 20.91941949298135484 34.82260237065564468 1 0 0 I I #
edge $-1 $145 -17.41130118532782234 $235 17.41130118532782234 $142 $342 forward 7 unknown #
edge $-1 $146 -17.41130118532782234 $234 17.41130118532782234 $143 $343 forward 7 unknown #
point $-1 15.17733883853588139 20.91941949298135484 34.82260237065564468 #
point $-1 15.17733883853588139 25.05589873146222857 34.82260237065564468 #
face $-1 $-1 $163 $14 $-1 $344 reversed single #
loop $-1 $-1 $266 $148 #
plane-surface $-1 118.2307676197387707 24.89962834920459755 222.9521835710569349 0 -1 0 -0.6156614830463592591 0 -0.788010747574649173 forward_v I I I I #
coedge $-1 $345 $264 $267 $346 forward $149 $-1 #
coedge $-1 $270 $151 $152 $258 reversed $85 $-1 #
coedge $-1 $264 $345 $151 $256 reversed $149 $-1 #
edge $-1 $271 -142.8510391552476335 $347 142.8510391552476904 $255 $348 forward 7 unknown #
coedge $-1 $153 $152 $345 $349 forward $51 $-1 #
edge $-1 $262 -285.7020783104953239 $347 285.7020783104953239 $254 $350 forward 7 unknown #
coedge $-1 $267 $266 $153 $260 reversed $251 $-1 #
edge $-1 $351 -285.7020783104953239 $261 285.7020783104953239 $259 $352 forward 7 unknown #
vertex $-1 $155 $353 #
vertex $-1 $273 $354 #
straight-curve $-1 255.4191933117898259 15.16027319457143463 -65.51173582755188818 0 -1 0 I I #
coedge $-1 $253 $255 $156 $265 reversed $149 $-1 #
edge $-1 $268 -9.739355154633162925 $271 9.739355154633162925 $264 $355 forward 7 unknown #
coedge $-1 $259 $157 $162 $274 forward $251 $-1 #
coedge $-1 $157 $259 $253 $346 reversed $251 $-1 #
vertex $-1 $158 $356 #
straight-curve $-1 206.1786502407720718 24.89962834920459755 335.5203377275990988 -0.788010747574649173 0 0.6156614830463592591 I I #
coedge $-1 $159 $254 $161 $273 reversed $85 $-1 #
vertex $-1 $265 $357 #
straight-curve $-1 206.1786502407720718 5.420918039938271704 335.5203377275990988 0.788010747574649173 0 -0.6156614830463592591 I I #
edge $-1 $164 -142.8510391552476904 $262 142.8510391552476335 $161 $358 forward 7 unknown #
edge $-1 $165 -142.8510391552476904 $261 142.8510391552476335 $162 $359 forward 7 unknown #
point $-1 431.3149585538565134 5.420918039938271704 159.6245724855324966 #
point $-1 431.3149585538565134 24.89962834920459755 159.6245724855324966 #
coedge $-1 $277 $277 $-1 $360 reversed $167 $-1 #
vertex $-1 $169 $361 #
ellipse-curve $-1 131.6576644280133621 15.16027319457143463 24.44856717147672853 0.6156614830463592591 0 0.788010747574649173 1.576021495149298346 0 -1.231322966092718518 1 I I #
point $-1 136.5000907262168823 15.16027319457143463 27.39805161597583805 #
face $-1 $-1 $187 $16 $-1 $362 reversed single #
loop $-1 $-1 $297 $172 #
plane-surface $-1 118.2307676197387707 72.84215826009844363 222.9521835710569349 0 -1 0 -0.6156614830463592591 0 -0.788010747574649173 forward_v I I I I #
coedge $-1 $363 $295 $298 $364 forward $173 $-1 #
coedge $-1 $301 $175 $176 $289 reversed $98 $-1 #
coedge $-1 $295 $363 $175 $287 reversed $173 $-1 #
edge $-1 $302 -142.8510391552476335 $365 142.8510391552476904 $286 $366 forward 7 unknown #
coedge $-1 $177 $176 $363 $367 forward $60 $-1 #
edge $-1 $293 -285.7020783104953239 $365 285.7020783104953239 $285 $368 forward 7 unknown #
coedge $-1 $298 $297 $177 $291 reversed $282 $-1 #
edge $-1 $369 -285.7020783104953239 $292 285.7020783104953239 $290 $370 forward 7 unknown #
vertex $-1 $179 $371 #
vertex $-1 $304 $372 #
straight-curve $-1 255.4191933117898259 63.10280310546528426 -65.51173582755188818 0 -1 0 I I #
coedge $-1 $284 $286 $180 $296 reversed $173 $-1 #
edge $-1 $299 -9.739355154633159373 $302 9.739355154633159373 $295 $373 forward 7 unknown #
coedge $-1 $290 $181 $186 $305 forward $282 $-1 #
coedge $-1 $181 $290 $284 $364 reversed $282 $-1 #
vertex $-1 $182 $374 #
straight-curve $-1 206.1786502407720718 72.84215826009844363 335.5203377275990988 -0.788010747574649173 0 0.6156614830463592591 I I #
coedge $-1 $183 $285 $185 $304 reversed $98 $-1 #
vertex $-1 $296 $375 #
straight-curve $-1 206.1786502407720718 53.36344795083212489 335.5203377275990988 0.788010747574649173 0 -0.6156614830463592591 I I #
edge $-1 $188 -142.8510391552476904 $293 142.8510391552476335 $185 $376 forward 7 unknown #
edge $-1 $189 -142.8510391552476904 $292 142.8510391552476335 $186 $377 forward 7 unknown #
point $-1 431.3149585538565134 53.36344795083212489 159.6245724855324966 #
point $-1 431.3149585538565134 72.84215826009844363 159.6245724855324966 #
coedge $-1 $308 $308 $-1 $378 reversed $191 $-1 #
vertex $-1 $193 $379 #
ellipse-curve $-1 131.6576644280133621 63.10280310546528426 24.44856717147672853 0.6156614830463592591 0 0.788010747574649173 1.576021495149298346 0 -1.231322966092718518 1 I I #
point $-1 136.5000907262168823 63.10280310546528426 27.39805161597583805 #
plane-surface $-1 142.8510391552476619 47.94252991089384608 17.41130118532782234 -1 0 0 0 0 1 forward_v I I I I #
coedge $-1 $201 $199 $203 $317 reversed $111 $-1 #
edge $-1 $214 -17.41130118532782234 $319 17.41130118532782234 $213 $380 forward 7 unknown #
vertex $-1 $317 $381 #
straight-curve $-1 0 0 17.41130118532782234 0 0 -1 I I #
edge $-1 $315 -47.94252991089384608 $319 47.94252991089384608 $313 $382 forward 7 unknown #
straight-curve $-1 71.42551957762383097 0 0 -1 0 0 I I #
vertex $-1 $206 $383 #
straight-curve $-1 71.42551957762383097 95.88505982178769216 0 1 0 0 I I #
point $-1 142.8510391552476619 95.88505982178769216 0 #
point $-1 142.8510391552476619 0 0 #
straight-curve $-1 0 47.94252991089384608 34.82260237065564468 0 -1 0 I I #
point $-1 0 95.88505982178769216 34.82260237065564468 #
point $-1 0 0 34.82260237065564468 #
straight-curve $-1 142.8510391552476619 0 17.41130118532782234 0 0 -1 I I #
straight-curve $-1 142.8510391552476619 95.88505982178769216 17.41130118532782234 0 0 -1 I I #
plane-surface $-1 15.17733883853588139 22.9876591122217917 17.41130118532782234 -1 0 0 0 0 1 forward_v I I I I #
coedge $-1 $228 $226 $230 $333 reversed $130 $-1 #
edge $-1 $241 -17.41130118532782234 $335 17.41130118532782234 $240 $384 forward 7 unknown #
vertex $-1 $333 $385 #
straight-curve $-1 0 20.91941949298135484 17.41130118532782234 0 0 -1 I I #
edge $-1 $331 -2.068239619240436866 $335 2.068239619240436866 $329 $386 forward 7 unknown #
straight-curve $-1 7.588669419267940697 20.91941949298135484 0 -1 0 0 I I #
vertex $-1 $233 $387 #
straight-curve $-1 7.588669419267940697 25.05589873146222857 0 1 0 0 I I #
point $-1 15.17733883853588139 25.05589873146222857 0 #
point $-1 15.17733883853588139 20.91941949298135484 0 #
straight-curve $-1 0 22.9876591122217917 34.82260237065564468 0 -1 0 I I #
point $-1 0 25.05589873146222857 34.82260237065564468 #
point $-1 0 20.91941949298135484 34.82260237065564468 #
straight-curve $-1 15.17733883853588139 20.91941949298135484 17.41130118532782234 0 0 -1 I I #
straight-curve $-1 15.17733883853588139 25.05589873146222857 17.41130118532782234 0 0 -1 I I #
plane-surface $-1 343.367075932823127 15.16027319457143463 47.05641832899030419 -0.788010747574649173 0 0.6156614830463592591 0.6156614830463592591 0 0.788010747574649173 forward_v I I I I #
coedge $-1 $255 $253 $257 $349 reversed $149 $-1 #
edge $-1 $268 -142.8510391552476335 $351 142.8510391552476904 $267 $388 forward 7 unknown #
vertex $-1 $349 $389 #
straight-curve $-1 -106.905540693345614 5.420918039938271704 398.8479488131235939 -0.6156614830463592591 0 -0.788010747574649173 I I #
edge $-1 $347 -9.739355154633162925 $351 9.739355154633162925 $345 $390 forward 7 unknown #
straight-curve $-1 30.28288499870545536 5.420918039938271704 110.3840294145147425 -0.788010747574649173 0 0.6156614830463592591 I I #
vertex $-1 $260 $391 #
straight-curve $-1 30.28288499870545536 24.89962834920459755 110.3840294145147425 0.788010747574649173 0 -0.6156614830463592591 I I #
point $-1 255.4191933117898259 24.89962834920459755 -65.51173582755188818 #
point $-1 255.4191933117898259 5.420918039938271704 -65.51173582755188818 #
straight-curve $-1 -18.9576580723122845 15.16027319457143463 511.4161029696657579 0 -1 0 I I #
point $-1 -18.9576580723122845 24.89962834920459755 511.4161029696657579 #
point $-1 -18.9576580723122845 5.420918039938271704 511.4161029696657579 #
straight-curve $-1 343.367075932823127 5.420918039938271704 47.05641832899030419 -0.6156614830463592591 0 -0.788010747574649173 I I #
straight-curve $-1 343.367075932823127 24.89962834920459755 47.05641832899030419 -0.6156614830463592591 0 -0.788010747574649173 I I #
edge $-1 $392 1 $392 0 $277 $-1 forward 7 unknown #
point $-1 133.2336859231626818 15.16027319457143463 23.21724420538400935 #
plane-surface $-1 343.367075932823127 63.10280310546528426 47.05641832899030419 -0.788010747574649173 0 0.6156614830463592591 0.6156614830463592591 0 0.788010747574649173 forward_v I I I I #
coedge $-1 $286 $284 $288 $367 reversed $173 $-1 #
edge $-1 $299 -142.8510391552476335 $369 142.8510391552476904 $298 $393 forward 7 unknown #
vertex $-1 $367 $394 #
straight-curve $-1 -106.905540693345614 53.36344795083212489 398.8479488131235939 -0.6156614830463592591 0 -0.788010747574649173 I I #
edge $-1 $365 -9.739355154633159373 $369 9.739355154633159373 $363 $395 forward 7 unknown #
straight-curve $-1 30.28288499870545536 53.36344795083212489 110.3840294145147425 -0.788010747574649173 0 0.6156614830463592591 I I #
vertex $-1 $291 $396 #
straight-curve $-1 30.28288499870545536 72.84215826009844363 110.3840294145147425 0.788010747574649173 0 -0.6156614830463592591 I I #
point $-1 255.4191933117898259 72.84215826009844363 -65.51173582755188818 #
point $-1 255.4191933117898259 53.36344795083212489 -65.51173582755188818 #
straight-curve $-1 -18.9576580723122845 63.10280310546528426 511.4161029696657579 0 -1 0 I I #
point $-1 -18.9576580723122845 72.84215826009844363 511.4161029696657579 #
point $-1 -18.9576580723122845 53.36344795083212489 511.4161029696657579 #
straight-curve $-1 343.367075932823127 53.36344795083212489 47.05641832899030419 -0.6156614830463592591 0 -0.788010747574649173 I I #
straight-curve $-1 343.367075932823127 72.84215826009844363 47.05641832899030419 -0.6156614830463592591 0 -0.788010747574649173 I I #
edge $-1 $397 1 $397 0 $308 $-1 forward 7 unknown #
point $-1 133.2336859231626818 63.10280310546528426 23.21724420538400935 #
straight-curve $-1 0 95.88505982178769216 17.41130118532782234 0 0 -1 I I #
point $-1 0 0 0 #
straight-curve $-1 0 47.94252991089384608 0 0 1 0 I I #
point $-1 0 95.88505982178769216 0 #
straight-curve $-1 0 25.05589873146222857 17.41130118532782234 0 0 -1 I I #
point $-1 0 20.91941949298135484 0 #
straight-curve $-1 0 22.9876591122217917 0 0 1 0 I I #
point $-1 0 25.05589873146222857 0 #
straight-curve $-1 -106.905540693345614 24.89962834920459755 398.8479488131235939 -0.6156614830463592591 0 -0.788010747574649173 I I #
point $-1 -194.8534233143789436 5.420918039938271704 286.2797946565813731 #
straight-curve $-1 -194.8534233143789436 15.16027319457143463 286.2797946565813731 0 1 0 I I #
point $-1 -194.8534233143789436 24.89962834920459755 286.2797946565813731 #
vertex $-1 $360 $398 #
straight-curve $-1 -106.905540693345614 72.84215826009844363 398.8479488131235939 -0.6156614830463592591 0 -0.788010747574649173 I I #
point $-1 -194.8534233143789436 53.36344795083212489 286.2797946565813731 #
straight-curve $-1 -194.8534233143789436 63.10280310546528426 286.2797946565813731 0 1 0 I I #
point $-1 -194.8534233143789436 72.84215826009844363 286.2797946565813731 #
vertex $-1 $378 $399 #
point $-1 130.4263414619206571 15.16027319457143463 22.87254567632743019 #
point $-1 130.4263414619206571 63.10280310546528426 22.87254567632743019 #
End-of-ACIS-data 