500 0 17 0           
7 Unknown 11 ACIS 5.0 NT 24 Thu Mar 25 17:27:03 1999 
-1 9.9999999999999995e-007 1e-010 
body $-1 $17 $-1 $18 #
body $-1 $19 $-1 $20 #
body $-1 $21 $-1 $22 #
body $-1 $23 $-1 $24 #
body $-1 $25 $-1 $26 #
body $-1 $27 $-1 $28 #
body $-1 $29 $-1 $30 #
body $-1 $31 $-1 $32 #
body $-1 $33 $-1 $34 #
body $-1 $35 $-1 $36 #
body $-1 $37 $-1 $38 #
body $-1 $39 $-1 $40 #
body $-1 $41 $-1 $42 #
body $-1 $43 $-1 $44 #
body $-1 $45 $-1 $46 #
body $-1 $47 $-1 $48 #
body $-1 $49 $-1 $50 #
lump $-1 $-1 $51 $0 #
transform $-1 1 0 0 0 1 0 0 0 1 78.56318857387005 47.243888452863096 19.885197325485922 1 rotate no_reflect no_shear #
lump $-1 $-1 $52 $1 #
transform $-1 1 0 0 0 1 0 0 0 1 78.56318857387005 47.243888452863096 19.885197325485922 1 rotate no_reflect no_shear #
lump $-1 $-1 $53 $2 #
transform $-1 1 0 0 0 1 0 0 0 1 78.56318857387005 47.243888452863096 19.885197325485922 1 rotate no_reflect no_shear #
lump $-1 $-1 $54 $3 #
transform $-1 1 0 0 0 1 0 0 0 1 78.56318857387005 47.243888452863096 19.885197325485922 1 rotate no_reflect no_shear #
lump $-1 $-1 $55 $4 #
transform $-1 1 0 0 0 1 0 0 0 1 78.56318857387005 47.243888452863096 19.885197325485922 1 rotate no_reflect no_shear #
lump $-1 $-1 $56 $5 #
transform $-1 1 0 0 0 1 0 0 0 1 78.56318857387005 47.243888452863096 19.885197325485922 1 rotate no_reflect no_shear #
lump $-1 $-1 $57 $6 #
transform $-1 1 0 0 0 1 0 0 0 1 78.56318857387005 47.243888452863096 19.885197325485922 1 rotate no_reflect no_shear #
lump $-1 $-1 $58 $7 #
transform $-1 1 0 0 0 1 0 0 0 1 78.56318857387005 47.243888452863096 19.885197325485922 1 rotate no_reflect no_shear #
lump $-1 $-1 $59 $8 #
transform $-1 1 0 0 0 1 0 0 0 1 78.56318857387005 47.243888452863096 19.885197325485922 1 rotate no_reflect no_shear #
lump $-1 $-1 $60 $9 #
transform $-1 1 0 0 0 1 0 0 0 1 78.56318857387005 47.243888452863096 19.885197325485922 1 rotate no_reflect no_shear #
lump $-1 $-1 $61 $10 #
transform $-1 1 0 0 0 1 0 0 0 1 78.56318857387005 47.243888452863096 19.885197325485922 1 rotate no_reflect no_shear #
lump $-1 $-1 $62 $11 #
transform $-1 1 0 0 0 1 0 0 0 1 78.56318857387005 47.243888452863096 19.885197325485922 1 rotate no_reflect no_shear #
lump $-1 $-1 $63 $12 #
transform $-1 1 0 0 0 1 0 0 0 1 78.56318857387005 47.243888452863096 19.885197325485922 1 rotate no_reflect no_shear #
lump $-1 $-1 $64 $13 #
transform $-1 1 0 0 0 1 0 0 0 1 78.56318857387005 47.243888452863096 19.885197325485922 1 rotate no_reflect no_shear #
lump $-1 $-1 $65 $14 #
transform $-1 1 0 0 0 1 0 0 0 1 78.56318857387005 47.243888452863096 19.885197325485922 1 rotate no_reflect no_shear #
lump $-1 $-1 $66 $15 #
transform $-1 1 0 0 0 1 0 0 0 1 78.56318857387005 47.243888452863096 19.885197325485922 1 rotate no_reflect no_shear #
lump $-1 $-1 $67 $16 #
transform $-1 1 0 0 0 1 0 0 0 1 78.56318857387005 47.243888452863096 19.885197325485922 1 rotate no_reflect no_shear #
shell $-1 $-1 $-1 $68 $-1 $17 #
shell $-1 $-1 $-1 $69 $-1 $19 #
shell $-1 $-1 $-1 $70 $-1 $21 #
shell $-1 $-1 $-1 $71 $-1 $23 #
shell $-1 $-1 $-1 $72 $-1 $25 #
shell $-1 $-1 $-1 $73 $-1 $27 #
shell $-1 $-1 $-1 $74 $-1 $29 #
shell $-1 $-1 $-1 $75 $-1 $31 #
shell $-1 $-1 $-1 $76 $-1 $33 #
shell $-1 $-1 $-1 $77 $-1 $35 #
shell $-1 $-1 $-1 $78 $-1 $37 #
shell $-1 $-1 $-1 $79 $-1 $39 #
shell $-1 $-1 $-1 $80 $-1 $41 #
shell $-1 $-1 $-1 $81 $-1 $43 #
shell $-1 $-1 $-1 $82 $-1 $45 #
shell $-1 $-1 $-1 $83 $-1 $47 #
shell $-1 $-1 $-1 $84 $-1 $49 #
face $-1 $85 $86 $51 $-1 $87 forward single #
face $-1 $88 $89 $52 $-1 $90 reversed single #
face $-1 $91 $92 $53 $-1 $93 reversed single #
face $-1 $94 $95 $54 $-1 $96 forward single #
face $-1 $97 $98 $55 $-1 $99 forward single #
face $-1 $100 $101 $56 $-1 $102 reversed single #
face $-1 $103 $104 $57 $-1 $105 forward single #
face $-1 $106 $107 $58 $-1 $108 forward single #
face $-1 $109 $110 $59 $-1 $111 reversed single #
face $-1 $112 $113 $60 $-1 $114 forward single #
face $-1 $115 $116 $61 $-1 $117 forward single #
face $-1 $118 $119 $62 $-1 $120 reversed single #
face $-1 $121 $122 $63 $-1 $123 forward single #
face $-1 $124 $125 $64 $-1 $126 forward single #
face $-1 $127 $128 $65 $-1 $129 reversed single #
face $-1 $130 $131 $66 $-1 $132 forward single #
face $-1 $133 $134 $67 $-1 $135 forward single #
face $-1 $136 $137 $51 $-1 $138 reversed single #
loop $-1 $-1 $139 $68 #
plane-surface $-1 0 0 19.885197325485922 0 0 1 1 0 0 forward_v I I I I #
face $-1 $140 $141 $52 $-1 $142 reversed single #
loop $-1 $-1 $143 $69 #
plane-surface $-1 0 -34.252835089683913 8.0778797131283966 0 0 1 1 0 0 forward_v I I I I #
face $-1 $144 $145 $53 $-1 $146 reversed single #
loop $-1 $-1 $147 $70 #
plane-surface $-1 -208.82686013744444 -10.286229207739453 96.641246360936222 0 -1 0 0.82903758062907751 0 -0.55919289150049634 forward_v I I I I #
face $-1 $148 $149 $54 $-1 $150 forward single #
loop $-1 $151 $152 $71 #
cone-surface $-1 -74.165614049133396 -18.12590957828608 13.891879415768102 0.82903758062907751 0 -0.55919289150049634 0.27959644575024817 0 0.41451879031453875 1 I I 0 1 0.5 forward I I I I #
face $-1 $153 $154 $55 $-1 $155 forward single #
loop $-1 $156 $157 $72 #
cone-surface $-1 -74.165614049133396 -13.422101355958105 13.891879415768102 0.82903758062907751 0 -0.55919289150049634 0.27959644575024817 0 0.41451879031453875 1 I I 0 1 0.5 forward I I I I #
face $-1 $158 $159 $56 $-1 $160 reversed single #
loop $-1 $-1 $161 $73 #
plane-surface $-1 -208.82686013744444 -4.1353641816627693 96.641246360936222 0 1 0 -0.82903758062907751 0 0.55919289150049634 forward_v I I I I #
face $-1 $162 $163 $57 $-1 $164 forward single #
loop $-1 $165 $166 $74 #
cone-surface $-1 -74.165614049133396 -0.99949203344412041 13.891879415768102 0.82903758062907751 0 -0.55919289150049634 0.27959644575024817 0 0.41451879031453875 1 I I 0 1 0.5 forward I I I I #
face $-1 $167 $168 $58 $-1 $169 forward single #
loop $-1 $170 $171 $75 #
cone-surface $-1 -74.165614049133396 3.7043161888838512 13.891879415768102 0.82903758062907751 0 -0.55919289150049634 0.27959644575024817 0 0.41451879031453875 1 I I 0 1 0.5 forward I I I I #
face $-1 $172 $173 $59 $-1 $174 reversed single #
loop $-1 $-1 $175 $76 #
plane-surface $-1 -208.82686013744444 12.991053363179187 96.641246360936222 0 1 0 -0.82903758062907751 0 0.55919289150049634 forward_v I I I I #
face $-1 $176 $177 $60 $-1 $178 forward single #
loop $-1 $179 $180 $77 #
cone-surface $-1 -74.165614049133396 16.126925511397836 13.891879415768102 0.82903758062907751 0 -0.55919289150049634 0.27959644575024817 0 0.41451879031453875 1 I I 0 1 0.5 forward I I I I #
face $-1 $181 $182 $61 $-1 $183 forward single #
loop $-1 $184 $185 $78 #
cone-surface $-1 -74.165614049133396 20.830733733725801 13.891879415768102 0.82903758062907751 0 -0.55919289150049634 0.27959644575024817 0 0.41451879031453875 1 I I 0 1 0.5 forward I I I I #
face $-1 $186 $187 $62 $-1 $188 reversed single #
loop $-1 $-1 $189 $79 #
plane-surface $-1 -208.82686013744444 30.117470908021144 96.641246360936222 0 1 0 -0.82903758062907751 0 0.55919289150049634 forward_v I I I I #
face $-1 $190 $191 $63 $-1 $192 forward single #
loop $-1 $193 $194 $80 #
cone-surface $-1 -74.165614049133396 33.253343056239792 13.891879415768102 0.82903758062907751 0 -0.55919289150049634 0.27959644575024817 0 0.41451879031453875 1 I I 0 1 0.5 forward I I I I #
face $-1 $195 $196 $64 $-1 $197 forward single #
loop $-1 $198 $199 $81 #
cone-surface $-1 -74.165614049133396 37.957151278567757 13.891879415768102 0.82903758062907751 0 -0.55919289150049634 0.27959644575024817 0 0.41451879031453875 1 I I 0 1 0.5 forward I I I I #
face $-1 $200 $201 $65 $-1 $202 reversed single #
loop $-1 $-1 $203 $82 #
plane-surface $-1 128.54962263806027 19.452816126601483 217.17461656820478 0 -1 0 -0.84804810408105047 0 -0.52991925155115449 forward_v I I I I #
face $-1 $204 $205 $66 $-1 $206 forward single #
loop $-1 $207 $208 $83 #
cone-surface $-1 71.908497041446552 14.357652959717882 9.8675149769035873 -0.84804810408105047 0 -0.52991925155115449 0.52991925155115449 0 -0.84804810408105047 1 I I 0 1 1 forward I I I I #
face $-1 $209 $210 $67 $-1 $211 forward single #
loop $-1 $212 $213 $84 #
cone-surface $-1 71.908497041446552 17.414750859848048 9.8675149769035873 -0.84804810408105047 0 -0.52991925155115449 0.52991925155115449 0 -0.84804810408105047 1 I I 0 1 1 forward I I I I #
face $-1 $214 $215 $51 $-1 $216 reversed single #
loop $-1 $-1 $217 $85 #
plane-surface $-1 0 0 -19.885197325485922 0 0 1 1 0 0 forward_v I I I I #
coedge $-1 $218 $219 $220 $221 forward $86 $-1 #
face $-1 $222 $223 $52 $-1 $224 reversed single #
loop $-1 $-1 $225 $88 #
plane-surface $-1 0 -21.261781726504729 13.981538519307161 0 -1 0 0 0 -1 forward_v I I I I #
coedge $-1 $226 $227 $228 $229 reversed $89 $-1 #
face $-1 $230 $231 $53 $-1 $232 forward single #
loop $-1 $-1 $233 $91 #
plane-surface $-1 -78.563188573870008 -15.774005467122091 8.7772931926939179 -0.82903758062907751 0 0.55919289150049634 0.55919289150049634 0 0.82903758062907751 forward_v I I I I #
coedge $-1 $234 $235 $236 $237 reversed $92 $-1 #
face $-1 $-1 $238 $54 $-1 $239 forward single #
loop $-1 $240 $241 $94 #
cone-surface $-1 -73.306967983481854 -18.12590957828608 13.31271534957116 0.82903758062907751 0 -0.55919289150049634 0.13979822287512408 0 0.20725939515726938 1 I I -0.70710678118655002 0.70710678118654502 0.25 forward I I I I #
loop $-1 $-1 $242 $71 #
coedge $-1 $152 $152 $243 $244 reversed $95 $-1 #
face $-1 $-1 $245 $55 $-1 $246 forward single #
loop $-1 $247 $248 $97 #
cone-surface $-1 -73.306967983481854 -13.422101355958105 13.31271534957116 0.82903758062907751 0 -0.55919289150049634 0.13979822287512408 0 0.20725939515726938 1 I I -0.70710678118655002 0.70710678118654502 0.25 forward I I I I #
loop $-1 $-1 $249 $72 #
coedge $-1 $157 $157 $250 $251 reversed $98 $-1 #
face $-1 $252 $253 $56 $-1 $254 reversed single #
loop $-1 $-1 $255 $100 #
plane-surface $-1 -78.563188573870008 1.3524120777198689 8.7772931926939179 -0.82903758062907751 0 0.55919289150049634 0.55919289150049634 0 0.82903758062907751 forward_v I I I I #
coedge $-1 $256 $257 $258 $259 reversed $101 $-1 #
face $-1 $-1 $260 $57 $-1 $261 forward single #
loop $-1 $262 $263 $103 #
cone-surface $-1 -73.306967983481854 -0.99949203344412041 13.31271534957116 0.82903758062907751 0 -0.55919289150049634 0.13979822287512408 0 0.20725939515726938 1 I I -0.70710678118655002 0.70710678118654502 0.25 forward I I I I #
loop $-1 $-1 $264 $74 #
coedge $-1 $166 $166 $265 $266 reversed $104 $-1 #
face $-1 $-1 $267 $58 $-1 $268 forward single #
loop $-1 $269 $270 $106 #
cone-surface $-1 -73.306967983481854 3.7043161888838512 13.31271534957116 0.82903758062907751 0 -0.55919289150049634 0.13979822287512408 0 0.20725939515726938 1 I I -0.70710678118655002 0.70710678118654502 0.25 forward I I I I #
loop $-1 $-1 $271 $75 #
coedge $-1 $171 $171 $272 $273 reversed $107 $-1 #
face $-1 $274 $275 $59 $-1 $276 reversed single #
loop $-1 $-1 $277 $109 #
plane-surface $-1 -78.563188573870008 18.478829622561825 8.7772931926939179 -0.82903758062907751 0 0.55919289150049634 0.55919289150049634 0 0.82903758062907751 forward_v I I I I #
coedge $-1 $278 $279 $280 $281 reversed $110 $-1 #
face $-1 $-1 $282 $60 $-1 $283 forward single #
loop $-1 $284 $285 $112 #
cone-surface $-1 -73.306967983481854 16.126925511397836 13.31271534957116 0.82903758062907751 0 -0.55919289150049634 0.13979822287512408 0 0.20725939515726938 1 I I -0.70710678118655002 0.70710678118654502 0.25 forward I I I I #
loop $-1 $-1 $286 $77 #
coedge $-1 $180 $180 $287 $288 reversed $113 $-1 #
face $-1 $-1 $289 $61 $-1 $290 forward single #
loop $-1 $291 $292 $115 #
cone-surface $-1 -73.306967983481854 20.830733733725801 13.31271534957116 0.82903758062907751 0 -0.55919289150049634 0.13979822287512408 0 0.20725939515726938 1 I I -0.70710678118655002 0.70710678118654502 0.25 forward I I I I #
loop $-1 $-1 $293 $78 #
coedge $-1 $185 $185 $294 $295 reversed $116 $-1 #
face $-1 $296 $297 $62 $-1 $298 reversed single #
loop $-1 $-1 $299 $118 #
plane-surface $-1 -78.563188573870008 35.605247167403782 8.7772931926939179 -0.82903758062907751 0 0.55919289150049634 0.55919289150049634 0 0.82903758062907751 forward_v I I I I #
coedge $-1 $300 $301 $302 $303 reversed $119 $-1 #
face $-1 $-1 $304 $63 $-1 $305 forward single #
loop $-1 $306 $307 $121 #
cone-surface $-1 -73.306967983481854 33.253343056239792 13.31271534957116 0.82903758062907751 0 -0.55919289150049634 0.13979822287512408 0 0.20725939515726938 1 I I -0.70710678118655002 0.70710678118654502 0.25 forward I I I I #
loop $-1 $-1 $308 $80 #
coedge $-1 $194 $194 $309 $310 reversed $122 $-1 #
face $-1 $-1 $311 $64 $-1 $312 forward single #
loop $-1 $313 $314 $124 #
cone-surface $-1 -73.306967983481854 37.957151278567757 13.31271534957116 0.82903758062907751 0 -0.55919289150049634 0.13979822287512408 0 0.20725939515726938 1 I I -0.70710678118655002 0.70710678118654502 0.25 forward I I I I #
loop $-1 $-1 $315 $81 #
coedge $-1 $199 $199 $316 $317 reversed $125 $-1 #
face $-1 $318 $319 $65 $-1 $320 reversed single #
loop $-1 $-1 $321 $127 #
plane-surface $-1 -4.7011036032048139 15.886201909782962 133.9103243911299 0.84804810408105047 0 0.52991925155115449 0.52991925155115449 0 -0.84804810408105047 forward_v I I I I #
coedge $-1 $322 $323 $324 $325 reversed $128 $-1 #
face $-1 $-1 $326 $66 $-1 $327 forward single #
loop $-1 $328 $329 $130 #
cone-surface $-1 70.836525105567986 14.357652959717882 9.1976725903562304 -0.84804810408105047 0 -0.52991925155115449 0.26495962577557725 0 -0.42402405204052523 1 I I -0.70710678118654746 0.70710678118654746 0.5 forward I I I I #
loop $-1 $-1 $330 $83 #
coedge $-1 $208 $208 $331 $332 reversed $131 $-1 #
face $-1 $-1 $333 $67 $-1 $334 forward single #
loop $-1 $335 $336 $133 #
cone-surface $-1 70.836525105567986 17.414750859848048 9.1976725903562304 -0.84804810408105047 0 -0.52991925155115449 0.26495962577557725 0 -0.42402405204052523 1 I I -0.70710678118654746 0.70710678118654746 0.5 forward I I I I #
loop $-1 $-1 $337 $84 #
coedge $-1 $213 $213 $338 $339 reversed $134 $-1 #
face $-1 $340 $341 $51 $-1 $342 reversed single #
loop $-1 $-1 $343 $136 #
plane-surface $-1 0 -47.243888452863096 0 0 1 0 0 0 1 forward_v I I I I #
coedge $-1 $344 $345 $346 $347 forward $137 $-1 #
coedge $-1 $348 $139 $349 $350 forward $86 $-1 #
coedge $-1 $139 $348 $351 $352 forward $86 $-1 #
coedge $-1 $353 $354 $139 $221 reversed $355 $-1 #
edge $-1 $356 -47.243888452863096 $357 47.243888452863096 $220 $358 forward 7 unknown #
face $-1 $359 $360 $52 $-1 $361 reversed single #
loop $-1 $-1 $362 $140 #
plane-surface $-1 -78.56318857387005 0 0 1 0 0 0 0 -1 forward_v I I I I #
coedge $-1 $363 $364 $365 $366 reversed $141 $-1 #
coedge $-1 $367 $143 $368 $369 reversed $89 $-1 #
coedge $-1 $143 $367 $370 $371 forward $89 $-1 #
coedge $-1 $372 $373 $143 $229 forward $374 $-1 #
edge $-1 $375 -30.11747090802114 $376 -4.1353641816627729 $228 $377 forward 7 unknown #
face $-1 $378 $379 $53 $-1 $380 forward single #
loop $-1 $-1 $381 $144 #
plane-surface $-1 0 -21.261781726504729 13.981538519307161 0 -1 0 0 0 -1 forward_v I I I I #
coedge $-1 $382 $383 $384 $385 reversed $145 $-1 #
coedge $-1 $235 $147 $386 $387 reversed $92 $-1 #
coedge $-1 $147 $234 $382 $388 reversed $92 $-1 #
coedge $-1 $384 $389 $147 $237 forward $390 $-1 #
edge $-1 $391 28.435425854982189 $392 39.543329987774257 $236 $393 forward 7 unknown #
loop $-1 $-1 $243 $148 #
plane-surface $-1 -78.563188573870008 -15.774005467122091 8.7772931926939179 -0.82903758062907751 0 0.55919289150049634 0.55919289150049634 0 0.82903758062907751 forward_v I I I I #
loop $-1 $-1 $394 $94 #
coedge $-1 $241 $241 $242 $395 reversed $149 $-1 #
coedge $-1 $242 $242 $241 $395 forward $151 $-1 #
coedge $-1 $243 $243 $152 $244 forward $238 $-1 #
edge $-1 $396 0 $396 6.2831853071796004 $243 $397 forward 7 unknown #
loop $-1 $-1 $250 $153 #
plane-surface $-1 -78.563188573870008 -15.774005467122091 8.7772931926939179 -0.82903758062907751 0 0.55919289150049634 0.55919289150049634 0 0.82903758062907751 forward_v I I I I #
loop $-1 $-1 $398 $97 #
coedge $-1 $248 $248 $249 $399 reversed $154 $-1 #
coedge $-1 $249 $249 $248 $399 forward $156 $-1 #
coedge $-1 $250 $250 $157 $251 forward $245 $-1 #
edge $-1 $400 0 $400 6.2831853071796004 $250 $401 forward 7 unknown #
face $-1 $402 $403 $56 $-1 $404 forward single #
loop $-1 $-1 $405 $158 #
plane-surface $-1 -208.82686013744444 6.8401883371025072 96.641246360936222 0 -1 0 0.82903758062907751 0 -0.55919289150049634 forward_v I I I I #
coedge $-1 $406 $407 $408 $409 reversed $159 $-1 #
coedge $-1 $257 $161 $410 $411 reversed $101 $-1 #
coedge $-1 $161 $256 $406 $412 reversed $101 $-1 #
coedge $-1 $408 $413 $161 $259 forward $403 $-1 #
edge $-1 $414 25.85024149485217 $415 33.342617203336971 $258 $416 forward 7 unknown #
loop $-1 $-1 $265 $162 #
plane-surface $-1 -78.563188573870008 1.3524120777198689 8.7772931926939179 -0.82903758062907751 0 0.55919289150049634 0.55919289150049634 0 0.82903758062907751 forward_v I I I I #
loop $-1 $-1 $417 $103 #
coedge $-1 $263 $263 $264 $418 reversed $163 $-1 #
coedge $-1 $264 $264 $263 $418 forward $165 $-1 #
coedge $-1 $265 $265 $166 $266 forward $260 $-1 #
edge $-1 $419 0 $419 6.2831853071796004 $265 $420 forward 7 unknown #
loop $-1 $-1 $272 $167 #
plane-surface $-1 -78.563188573870008 1.3524120777198689 8.7772931926939179 -0.82903758062907751 0 0.55919289150049634 0.55919289150049634 0 0.82903758062907751 forward_v I I I I #
loop $-1 $-1 $421 $106 #
coedge $-1 $270 $270 $271 $422 reversed $168 $-1 #
coedge $-1 $271 $271 $270 $422 forward $170 $-1 #
coedge $-1 $272 $272 $171 $273 forward $267 $-1 #
edge $-1 $423 0 $423 6.2831853071796004 $272 $424 forward 7 unknown #
face $-1 $425 $426 $59 $-1 $427 forward single #
loop $-1 $-1 $428 $172 #
plane-surface $-1 -208.82686013744444 23.966605881944464 96.641246360936222 0 -1 0 0.82903758062907751 0 -0.55919289150049634 forward_v I I I I #
coedge $-1 $429 $430 $431 $432 reversed $173 $-1 #
coedge $-1 $279 $175 $433 $434 reversed $110 $-1 #
coedge $-1 $175 $278 $429 $435 reversed $110 $-1 #
coedge $-1 $431 $436 $175 $281 forward $426 $-1 #
edge $-1 $437 25.85024149485217 $438 33.342617203336971 $280 $439 forward 7 unknown #
loop $-1 $-1 $287 $176 #
plane-surface $-1 -78.563188573870008 18.478829622561825 8.7772931926939179 -0.82903758062907751 0 0.55919289150049634 0.55919289150049634 0 0.82903758062907751 forward_v I I I I #
loop $-1 $-1 $440 $112 #
coedge $-1 $285 $285 $286 $441 reversed $177 $-1 #
coedge $-1 $286 $286 $285 $441 forward $179 $-1 #
coedge $-1 $287 $287 $180 $288 forward $282 $-1 #
edge $-1 $442 0 $442 6.2831853071796004 $287 $443 forward 7 unknown #
loop $-1 $-1 $294 $181 #
plane-surface $-1 -78.563188573870008 18.478829622561825 8.7772931926939179 -0.82903758062907751 0 0.55919289150049634 0.55919289150049634 0 0.82903758062907751 forward_v I I I I #
loop $-1 $-1 $444 $115 #
coedge $-1 $292 $292 $293 $445 reversed $182 $-1 #
coedge $-1 $293 $293 $292 $445 forward $184 $-1 #
coedge $-1 $294 $294 $185 $295 forward $289 $-1 #
edge $-1 $446 0 $446 6.2831853071796004 $294 $447 forward 7 unknown #
face $-1 $448 $449 $62 $-1 $450 forward single #
loop $-1 $-1 $451 $186 #
plane-surface $-1 -208.82686013744444 41.093023426786417 96.641246360936222 0 -1 0 0.82903758062907751 0 -0.55919289150049634 forward_v I I I I #
coedge $-1 $452 $453 $454 $455 reversed $187 $-1 #
coedge $-1 $301 $189 $456 $457 reversed $119 $-1 #
coedge $-1 $189 $300 $452 $458 reversed $119 $-1 #
coedge $-1 $454 $459 $189 $303 forward $449 $-1 #
edge $-1 $460 25.85024149485217 $461 33.342617203336971 $302 $462 forward 7 unknown #
loop $-1 $-1 $309 $190 #
plane-surface $-1 -78.563188573870008 35.605247167403782 8.7772931926939179 -0.82903758062907751 0 0.55919289150049634 0.55919289150049634 0 0.82903758062907751 forward_v I I I I #
loop $-1 $-1 $463 $121 #
coedge $-1 $307 $307 $308 $464 reversed $191 $-1 #
coedge $-1 $308 $308 $307 $464 forward $193 $-1 #
coedge $-1 $309 $309 $194 $310 forward $304 $-1 #
edge $-1 $465 0 $465 6.2831853071796004 $309 $466 forward 7 unknown #
loop $-1 $-1 $316 $195 #
plane-surface $-1 -78.563188573870008 35.605247167403782 8.7772931926939179 -0.82903758062907751 0 0.55919289150049634 0.55919289150049634 0 0.82903758062907751 forward_v I I I I #
loop $-1 $-1 $467 $124 #
coedge $-1 $314 $314 $315 $468 reversed $196 $-1 #
coedge $-1 $315 $315 $314 $468 forward $198 $-1 #
coedge $-1 $316 $316 $199 $317 forward $311 $-1 #
edge $-1 $469 0 $469 6.2831853071796004 $316 $470 forward 7 unknown #
face $-1 $471 $472 $65 $-1 $473 reversed single #
loop $-1 $-1 $474 $200 #
plane-surface $-1 128.54962263806027 12.31958769296444 217.17461656820478 0 1 0 0.84804810408105047 0 0.52991925155115449 forward_v I I I I #
coedge $-1 $475 $476 $477 $478 reversed $201 $-1 #
coedge $-1 $323 $203 $479 $480 reversed $128 $-1 #
coedge $-1 $203 $322 $475 $481 reversed $128 $-1 #
coedge $-1 $477 $482 $203 $325 forward $483 $-1 #
edge $-1 $484 -14.288377254839915 $485 -2.2748899576689467 $324 $486 forward 7 unknown #
loop $-1 $-1 $331 $204 #
plane-surface $-1 -4.7011036032048139 15.886201909782962 133.9103243911299 0.84804810408105047 0 0.52991925155115449 0.52991925155115449 0 -0.84804810408105047 forward_v I I I I #
loop $-1 $-1 $487 $130 #
coedge $-1 $329 $329 $330 $488 reversed $205 $-1 #
coedge $-1 $330 $330 $329 $488 forward $207 $-1 #
coedge $-1 $331 $331 $208 $332 forward $326 $-1 #
edge $-1 $489 0 $489 6.2831853071796004 $331 $490 forward 7 unknown #
loop $-1 $-1 $338 $209 #
plane-surface $-1 -4.7011036032048139 15.886201909782962 133.9103243911299 0.84804810408105047 0 0.52991925155115449 0.52991925155115449 0 -0.84804810408105047 forward_v I I I I #
loop $-1 $-1 $491 $133 #
coedge $-1 $336 $336 $337 $492 reversed $210 $-1 #
coedge $-1 $337 $337 $336 $492 forward $212 $-1 #
coedge $-1 $338 $338 $213 $339 forward $333 $-1 #
edge $-1 $493 0 $493 6.2831853071796004 $338 $494 forward 7 unknown #
face $-1 $495 $496 $51 $-1 $497 reversed single #
loop $-1 $-1 $498 $214 #
plane-surface $-1 -78.56318857387005 0 0 1 0 0 0 0 -1 forward_v I I I I #
coedge $-1 $499 $351 $500 $501 forward $215 $-1 #
coedge $-1 $502 $217 $499 $503 forward $137 $-1 #
coedge $-1 $217 $502 $504 $505 forward $137 $-1 #
coedge $-1 $354 $353 $217 $347 reversed $355 $-1 #
edge $-1 $506 -47.243888452863096 $507 47.243888452863096 $346 $508 forward 7 unknown #
coedge $-1 $219 $218 $509 $510 forward $86 $-1 #
coedge $-1 $511 $512 $218 $350 reversed $496 $-1 #
edge $-1 $357 -78.56318857387005 $513 78.56318857387005 $349 $514 forward 7 unknown #
coedge $-1 $343 $515 $219 $352 reversed $215 $-1 #
edge $-1 $516 -78.56318857387005 $356 78.56318857387005 $351 $517 forward 7 unknown #
coedge $-1 $346 $220 $515 $518 forward $355 $-1 #
coedge $-1 $220 $346 $511 $519 reversed $355 $-1 #
loop $-1 $-1 $353 $495 #
vertex $-1 $221 $520 #
vertex $-1 $221 $521 #
straight-curve $-1 78.56318857387005 0 19.885197325485922 0 1 0 I I #
face $-1 $522 $523 $52 $-1 $524 forward single #
loop $-1 $-1 $368 $222 #
plane-surface $-1 0 -47.243888452863096 0 0 1 0 0 0 1 forward_v I I I I #
coedge $-1 $525 $526 $364 $527 forward $223 $-1 #
coedge $-1 $370 $225 $372 $528 reversed $141 $-1 #
coedge $-1 $225 $370 $362 $527 reversed $141 $-1 #
coedge $-1 $529 $530 $225 $366 forward $523 $-1 #
edge $-1 $531 -78.56318857387005 $532 78.56318857387005 $365 $533 forward 7 unknown #
coedge $-1 $227 $226 $525 $534 reversed $89 $-1 #
coedge $-1 $535 $536 $226 $369 forward $360 $-1 #
edge $-1 $537 -78.56318857387005 $375 78.56318857387005 $368 $538 forward 7 unknown #
coedge $-1 $364 $363 $227 $371 reversed $141 $-1 #
edge $-1 $539 -78.56318857387005 $376 78.56318857387005 $370 $540 forward 7 unknown #
coedge $-1 $541 $228 $363 $528 forward $374 $-1 #
coedge $-1 $228 $541 $535 $542 forward $374 $-1 #
loop $-1 $-1 $372 $522 #
vertex $-1 $369 $543 #
vertex $-1 $229 $544 #
straight-curve $-1 78.56318857387005 -17.126417544841956 8.0778797131283966 0 1 0 I I #
face $-1 $-1 $390 $53 $-1 $545 reversed single #
loop $-1 $-1 $546 $230 #
plane-surface $-1 0 0 19.885197325485922 0 0 1 1 0 0 forward_v I I I I #
coedge $-1 $547 $548 $383 $549 forward $231 $-1 #
coedge $-1 $550 $233 $235 $388 forward $145 $-1 #
coedge $-1 $233 $550 $381 $549 reversed $145 $-1 #
coedge $-1 $551 $236 $233 $385 forward $390 $-1 #
edge $-1 $392 2.3992264741784073 $552 13.374778992943684 $384 $553 forward 7 unknown #
coedge $-1 $554 $546 $234 $387 forward $379 $-1 #
edge $-1 $555 -33.342617203336971 $391 -25.85024149485217 $386 $556 forward 7 unknown #
edge $-1 $392 -7.685582356959255e-014 $555 13.398553204745287 $235 $557 forward 7 unknown #
coedge $-1 $236 $551 $554 $558 reversed $390 $-1 #
loop $-1 $-1 $384 $378 #
vertex $-1 $558 $559 #
vertex $-1 $237 $560 #
straight-curve $-1 -78.56318857387005 -10.286229207739453 48.320623180468111 0 0 -1 I I #
coedge $-1 $394 $394 $-1 $561 reversed $240 $-1 #
edge $-1 $562 0 $562 6.2831853071796004 $241 $563 forward 7 unknown #
vertex $-1 $244 $564 #
ellipse-curve $-1 -74.817000719627643 -18.12590957828608 14.331245259089901 -0.82903758062907751 0 0.55919289150049634 0.27959644575024817 0 0.41451879031453875 1 I I #
coedge $-1 $398 $398 $-1 $565 reversed $247 $-1 #
edge $-1 $566 0 $566 6.2831853071796004 $248 $567 forward 7 unknown #
vertex $-1 $251 $568 #
ellipse-curve $-1 -74.817000719627643 -13.422101355958105 14.331245259089901 -0.82903758062907751 0 0.55919289150049634 0.27959644575024817 0 0.41451879031453875 1 I I #
face $-1 $-1 $569 $56 $-1 $570 reversed single #
loop $-1 $-1 $258 $252 #
plane-surface $-1 0 0 19.885197325485922 0 0 1 1 0 0 forward_v I I I I #
coedge $-1 $571 $572 $573 $574 reversed $253 $-1 #
coedge $-1 $575 $255 $257 $412 forward $159 $-1 #
coedge $-1 $255 $575 $571 $576 forward $159 $-1 #
coedge $-1 $573 $258 $255 $409 forward $403 $-1 #
edge $-1 $415 -4.8115702205227038 $577 6.1639822982425727 $408 $578 forward 7 unknown #
coedge $-1 $579 $580 $256 $411 forward $569 $-1 #
edge $-1 $581 -39.543329987774257 $414 -28.435425854982189 $410 $582 forward 7 unknown #
edge $-1 $415 -13.398553204745287 $581 7.685582356959255e-014 $257 $583 forward 7 unknown #
coedge $-1 $258 $573 $579 $584 forward $403 $-1 #
vertex $-1 $259 $585 #
vertex $-1 $259 $586 #
straight-curve $-1 -104.41343006872222 -4.1353641816627693 19.885197325485919 1 0 0 I I #
coedge $-1 $417 $417 $-1 $587 reversed $262 $-1 #
edge $-1 $588 0 $588 6.2831853071796004 $263 $589 forward 7 unknown #
vertex $-1 $266 $590 #
ellipse-curve $-1 -74.817000719627643 -0.99949203344412041 14.331245259089901 -0.82903758062907751 0 0.55919289150049634 0.27959644575024817 0 0.41451879031453875 1 I I #
coedge $-1 $421 $421 $-1 $591 reversed $269 $-1 #
edge $-1 $592 0 $592 6.2831853071796004 $270 $593 forward 7 unknown #
vertex $-1 $273 $594 #
ellipse-curve $-1 -74.817000719627643 3.7043161888838512 14.331245259089901 -0.82903758062907751 0 0.55919289150049634 0.27959644575024817 0 0.41451879031453875 1 I I #
face $-1 $-1 $595 $59 $-1 $596 reversed single #
loop $-1 $-1 $280 $274 #
plane-surface $-1 0 0 19.885197325485922 0 0 1 1 0 0 forward_v I I I I #
coedge $-1 $597 $598 $599 $600 reversed $275 $-1 #
coedge $-1 $601 $277 $279 $435 forward $173 $-1 #
coedge $-1 $277 $601 $597 $602 forward $173 $-1 #
coedge $-1 $599 $280 $277 $432 forward $426 $-1 #
edge $-1 $438 3.7516385518982744 $603 14.727191070663551 $431 $604 forward 7 unknown #
coedge $-1 $605 $606 $278 $434 forward $595 $-1 #
edge $-1 $607 -39.543329987774257 $437 -28.435425854982189 $433 $608 forward 7 unknown #
edge $-1 $438 -13.398553204745287 $607 7.685582356959255e-014 $279 $609 forward 7 unknown #
coedge $-1 $280 $599 $605 $610 forward $426 $-1 #
vertex $-1 $281 $611 #
vertex $-1 $281 $612 #
straight-curve $-1 -104.41343006872222 12.991053363179187 19.885197325485919 1 0 0 I I #
coedge $-1 $440 $440 $-1 $613 reversed $284 $-1 #
edge $-1 $614 0 $614 6.2831853071796004 $285 $615 forward 7 unknown #
vertex $-1 $288 $616 #
ellipse-curve $-1 -74.817000719627643 16.126925511397836 14.331245259089901 -0.82903758062907751 0 0.55919289150049634 0.27959644575024817 0 0.41451879031453875 1 I I #
coedge $-1 $444 $444 $-1 $617 reversed $291 $-1 #
edge $-1 $618 0 $618 6.2831853071796004 $292 $619 forward 7 unknown #
vertex $-1 $295 $620 #
ellipse-curve $-1 -74.817000719627643 20.830733733725801 14.331245259089901 -0.82903758062907751 0 0.55919289150049634 0.27959644575024817 0 0.41451879031453875 1 I I #
face $-1 $-1 $621 $62 $-1 $622 reversed single #
loop $-1 $-1 $302 $296 #
plane-surface $-1 0 0 19.885197325485922 0 0 1 1 0 0 forward_v I I I I #
coedge $-1 $623 $624 $625 $626 reversed $297 $-1 #
coedge $-1 $627 $299 $301 $458 forward $187 $-1 #
coedge $-1 $299 $627 $623 $628 forward $187 $-1 #
coedge $-1 $625 $302 $299 $455 forward $449 $-1 #
edge $-1 $461 12.314847324319253 $629 23.290399843084526 $454 $630 forward 7 unknown #
coedge $-1 $631 $632 $300 $457 forward $621 $-1 #
edge $-1 $633 -39.543329987774257 $460 -28.435425854982189 $456 $634 forward 7 unknown #
edge $-1 $461 -13.398553204745287 $633 7.685582356959255e-014 $301 $635 forward 7 unknown #
coedge $-1 $302 $625 $631 $636 forward $449 $-1 #
vertex $-1 $303 $637 #
vertex $-1 $303 $638 #
straight-curve $-1 -104.41343006872222 30.117470908021144 19.885197325485919 1 0 0 I I #
coedge $-1 $463 $463 $-1 $639 reversed $306 $-1 #
edge $-1 $640 0 $640 6.2831853071796004 $307 $641 forward 7 unknown #
vertex $-1 $310 $642 #
ellipse-curve $-1 -74.817000719627643 33.253343056239792 14.331245259089901 -0.82903758062907751 0 0.55919289150049634 0.27959644575024817 0 0.41451879031453875 1 I I #
coedge $-1 $467 $467 $-1 $643 reversed $313 $-1 #
edge $-1 $644 0 $644 6.2831853071796004 $314 $645 forward 7 unknown #
vertex $-1 $317 $646 #
ellipse-curve $-1 -74.817000719627643 37.957151278567757 14.331245259089901 -0.82903758062907751 0 0.55919289150049634 0.27959644575024817 0 0.41451879031453875 1 I I #
face $-1 $-1 $483 $65 $-1 $647 forward single #
loop $-1 $-1 $648 $318 #
plane-surface $-1 78.56318857387005 0 0 -1 0 0 0 0 1 forward_v I I I I #
coedge $-1 $649 $650 $651 $652 reversed $319 $-1 #
coedge $-1 $653 $321 $323 $481 forward $201 $-1 #
coedge $-1 $321 $653 $649 $654 forward $201 $-1 #
coedge $-1 $651 $324 $321 $478 forward $483 $-1 #
edge $-1 $485 -11.509715171710003 $655 -4.3764867380729591 $477 $656 forward 7 unknown #
coedge $-1 $657 $658 $322 $480 forward $472 $-1 #
edge $-1 $659 -107.92771013423757 $484 -88.702110958616473 $479 $660 forward 7 unknown #
edge $-1 $485 134.45596601999628 $659 157.12637714774007 $323 $661 forward 7 unknown #
coedge $-1 $324 $651 $657 $662 forward $483 $-1 #
loop $-1 $-1 $651 $471 #
vertex $-1 $480 $663 #
vertex $-1 $325 $664 #
straight-curve $-1 64.274811319030135 19.452816126601483 19.885197325485919 -1 0 0 I I #
coedge $-1 $487 $487 $-1 $665 reversed $328 $-1 #
edge $-1 $666 0 $666 6.2831853071796004 $329 $667 forward 7 unknown #
vertex $-1 $332 $668 #
ellipse-curve $-1 72.556444925284566 14.357652959717882 10.272397737675348 0.84804810408105047 0 0.52991925155115449 0.52991925155115449 0 -0.84804810408105047 1 I I #
coedge $-1 $491 $491 $-1 $669 reversed $335 $-1 #
edge $-1 $670 0 $670 6.2831853071796004 $336 $671 forward 7 unknown #
vertex $-1 $339 $672 #
ellipse-curve $-1 72.556444925284566 17.414750859848048 10.272397737675348 0.84804810408105047 0 0.52991925155115449 0.52991925155115449 0 -0.84804810408105047 1 I I #
face $-1 $-1 $355 $51 $-1 $673 reversed single #
loop $-1 $-1 $511 $340 #
plane-surface $-1 0 47.243888452863096 0 0 -1 0 0 0 -1 forward_v I I I I #
coedge $-1 $674 $509 $512 $675 forward $341 $-1 #
coedge $-1 $515 $343 $344 $503 reversed $215 $-1 #
coedge $-1 $509 $674 $343 $501 reversed $341 $-1 #
edge $-1 $516 -19.885197325485922 $676 19.885197325485922 $500 $677 forward 7 unknown #
coedge $-1 $345 $344 $674 $678 forward $137 $-1 #
edge $-1 $507 -78.56318857387005 $676 78.56318857387005 $499 $679 forward 7 unknown #
coedge $-1 $512 $511 $345 $505 reversed $496 $-1 #
edge $-1 $680 -78.56318857387005 $506 78.56318857387005 $504 $681 forward 7 unknown #
vertex $-1 $347 $682 #
vertex $-1 $518 $683 #
straight-curve $-1 78.56318857387005 0 -19.885197325485922 0 -1 0 I I #
coedge $-1 $498 $500 $348 $510 reversed $341 $-1 #
edge $-1 $513 -47.243888452863096 $516 47.243888452863096 $509 $684 forward 7 unknown #
coedge $-1 $504 $349 $354 $519 forward $496 $-1 #
coedge $-1 $349 $504 $498 $675 reversed $496 $-1 #
vertex $-1 $350 $685 #
straight-curve $-1 0 47.243888452863096 19.885197325485922 -1 0 0 I I #
coedge $-1 $351 $499 $353 $518 reversed $215 $-1 #
vertex $-1 $510 $686 #
straight-curve $-1 0 -47.243888452863096 19.885197325485922 1 0 0 I I #
edge $-1 $356 -19.885197325485922 $507 19.885197325485922 $353 $687 forward 7 unknown #
edge $-1 $357 -19.885197325485922 $506 19.885197325485922 $354 $688 forward 7 unknown #
point $-1 78.56318857387005 -47.243888452863096 19.885197325485922 #
point $-1 78.56318857387005 47.243888452863096 19.885197325485922 #
face $-1 $-1 $374 $52 $-1 $689 reversed single #
loop $-1 $-1 $365 $359 #
plane-surface $-1 0 0 19.885197325485922 0 0 1 1 0 0 forward_v I I I I #
coedge $-1 $690 $362 $367 $534 forward $223 $-1 #
coedge $-1 $362 $690 $529 $691 reversed $223 $-1 #
edge $-1 $532 -12.894428065832345 $539 -1.0871104534748159 $362 $692 forward 7 unknown #
edge $-1 $376 1.0871104534748159 $531 12.894428065832345 $372 $693 forward 7 unknown #
coedge $-1 $694 $365 $526 $691 forward $523 $-1 #
coedge $-1 $365 $694 $541 $695 forward $523 $-1 #
vertex $-1 $528 $696 #
vertex $-1 $691 $697 #
straight-curve $-1 0 -21.261781726504729 19.885197325485922 -1 0 0 I I #
edge $-1 $539 4.1353641816627729 $537 30.11747090802114 $525 $698 forward 7 unknown #
coedge $-1 $699 $368 $373 $542 reversed $360 $-1 #
coedge $-1 $368 $699 $690 $700 forward $360 $-1 #
vertex $-1 $369 $701 #
straight-curve $-1 0 -47.243888452863096 8.0778797131283966 1 0 0 I I #
vertex $-1 $534 $702 #
straight-curve $-1 0 -21.261781726504729 8.0778797131283966 1 0 0 I I #
coedge $-1 $373 $372 $530 $695 reversed $374 $-1 #
edge $-1 $703 -19.885197325485922 $375 -8.0778797131283966 $373 $704 forward 7 unknown #
point $-1 78.56318857387005 -47.243888452863096 8.0778797131283966 #
point $-1 78.56318857387005 -21.261781726504729 8.0778797131283966 #
plane-surface $-1 -78.56318857387005 0 0 1 0 0 0 0 -1 forward_v I I I I #
coedge $-1 $386 $705 $550 $706 forward $379 $-1 #
coedge $-1 $548 $381 $705 $707 reversed $231 $-1 #
coedge $-1 $381 $547 $551 $708 reversed $231 $-1 #
edge $-1 $552 -24.123245769348454 $709 -10.724692564603092 $381 $710 forward 7 unknown #
coedge $-1 $383 $382 $546 $706 reversed $145 $-1 #
coedge $-1 $389 $384 $548 $708 forward $390 $-1 #
vertex $-1 $708 $711 #
straight-curve $-1 -78.56318857387005 -7.8870027335610455 8.7772931926938611 0 -1 0 I I #
coedge $-1 $705 $386 $389 $558 forward $379 $-1 #
vertex $-1 $387 $712 #
straight-curve $-1 -104.41343006872222 -10.286229207739453 19.885197325485919 -1 0 0 I I #
straight-curve $-1 -78.563188573870008 -10.286229207739453 8.7772931926939179 0.55919289150049634 0 0.82903758062907751 I I #
edge $-1 $391 10.286229207739453 $713 21.261781726504729 $389 $714 forward 7 unknown #
point $-1 -78.56318857387005 -10.286229207739453 19.885197325485922 #
point $-1 -78.56318857387005 -10.286229207739453 8.777293192693854 #
edge $-1 $715 1 $715 0 $394 $-1 forward 7 unknown #
vertex $-1 $395 $716 #
ellipse-curve $-1 -73.51422737863912 -18.12590957828608 13.452513572446284 -0.82903758062907751 0 0.55919289150049634 0.27959644575024817 0 0.41451879031453875 1 I I #
point $-1 -74.537404273877428 -18.12590957828608 14.74576404940446 #
edge $-1 $717 1 $717 0 $398 $-1 forward 7 unknown #
vertex $-1 $399 $718 #
ellipse-curve $-1 -73.51422737863912 -13.422101355958105 13.452513572446284 -0.82903758062907751 0 0.55919289150049634 0.27959644575024817 0 0.41451879031453875 1 I I #
point $-1 -74.537404273877428 -13.422101355958105 14.74576404940446 #
loop $-1 $-1 $410 $402 #
plane-surface $-1 -78.56318857387005 0 0 1 0 0 0 0 -1 forward_v I I I I #
coedge $-1 $572 $405 $407 $576 reversed $253 $-1 #
coedge $-1 $405 $571 $719 $720 reversed $253 $-1 #
coedge $-1 $413 $408 $405 $574 forward $403 $-1 #
edge $-1 $577 -33.342617203336971 $721 -25.85024149485217 $573 $722 forward 7 unknown #
coedge $-1 $407 $406 $580 $723 reversed $159 $-1 #
edge $-1 $724 -7.685582356959255e-014 $577 13.398553204745287 $571 $725 forward 7 unknown #
vertex $-1 $409 $726 #
straight-curve $-1 -71.07081286538525 0.67620603885993447 19.885197325485926 0 1 0 I I #
coedge $-1 $719 $410 $413 $584 reversed $569 $-1 #
coedge $-1 $410 $719 $575 $723 forward $569 $-1 #
vertex $-1 $411 $727 #
straight-curve $-1 -78.56318857387005 -4.1353641816627693 48.320623180468111 0 0 1 I I #
straight-curve $-1 -78.563188573870008 -4.1353641816627693 8.7772931926939179 -0.55919289150049634 0 -0.82903758062907751 I I #
edge $-1 $721 -6.8401883371025072 $414 4.1353641816627693 $579 $728 forward 7 unknown #
point $-1 -78.56318857387005 -4.1353641816627693 19.885197325485922 #
point $-1 -71.07081286538525 -4.1353641816627693 19.885197325485922 #
edge $-1 $729 1 $729 0 $417 $-1 forward 7 unknown #
vertex $-1 $418 $730 #
ellipse-curve $-1 -73.51422737863912 -0.99949203344412041 13.452513572446284 -0.82903758062907751 0 0.55919289150049634 0.27959644575024817 0 0.41451879031453875 1 I I #
point $-1 -74.537404273877428 -0.99949203344412041 14.74576404940446 #
edge $-1 $731 1 $731 0 $421 $-1 forward 7 unknown #
vertex $-1 $422 $732 #
ellipse-curve $-1 -73.51422737863912 3.7043161888838512 13.452513572446284 -0.82903758062907751 0 0.55919289150049634 0.27959644575024817 0 0.41451879031453875 1 I I #
point $-1 -74.537404273877428 3.7043161888838512 14.74576404940446 #
loop $-1 $-1 $433 $425 #
plane-surface $-1 -78.56318857387005 0 0 1 0 0 0 0 -1 forward_v I I I I #
coedge $-1 $598 $428 $430 $602 reversed $275 $-1 #
coedge $-1 $428 $597 $733 $734 reversed $275 $-1 #
coedge $-1 $436 $431 $428 $600 forward $426 $-1 #
edge $-1 $603 -33.342617203336971 $735 -25.85024149485217 $599 $736 forward 7 unknown #
coedge $-1 $430 $429 $606 $737 reversed $173 $-1 #
edge $-1 $738 -7.685582356959255e-014 $603 13.398553204745287 $597 $739 forward 7 unknown #
vertex $-1 $432 $740 #
straight-curve $-1 -71.07081286538525 9.2394148112809127 19.885197325485926 0 1 0 I I #
coedge $-1 $733 $433 $436 $610 reversed $595 $-1 #
coedge $-1 $433 $733 $601 $737 forward $595 $-1 #
vertex $-1 $434 $741 #
straight-curve $-1 -78.56318857387005 12.991053363179187 48.320623180468111 0 0 1 I I #
straight-curve $-1 -78.563188573870008 12.991053363179187 8.7772931926939179 -0.55919289150049634 0 -0.82903758062907751 I I #
edge $-1 $735 -23.966605881944464 $437 -12.991053363179187 $605 $742 forward 7 unknown #
point $-1 -78.56318857387005 12.991053363179187 19.885197325485922 #
point $-1 -71.07081286538525 12.991053363179187 19.885197325485922 #
edge $-1 $743 1 $743 0 $440 $-1 forward 7 unknown #
vertex $-1 $441 $744 #
ellipse-curve $-1 -73.51422737863912 16.126925511397836 13.452513572446284 -0.82903758062907751 0 0.55919289150049634 0.27959644575024817 0 0.41451879031453875 1 I I #
point $-1 -74.537404273877428 16.126925511397836 14.74576404940446 #
edge $-1 $745 1 $745 0 $444 $-1 forward 7 unknown #
vertex $-1 $445 $746 #
ellipse-curve $-1 -73.51422737863912 20.830733733725801 13.452513572446284 -0.82903758062907751 0 0.55919289150049634 0.27959644575024817 0 0.41451879031453875 1 I I #
point $-1 -74.537404273877428 20.830733733725801 14.74576404940446 #
loop $-1 $-1 $456 $448 #
plane-surface $-1 -78.56318857387005 0 0 1 0 0 0 0 -1 forward_v I I I I #
coedge $-1 $624 $451 $453 $628 reversed $297 $-1 #
coedge $-1 $451 $623 $747 $748 reversed $297 $-1 #
coedge $-1 $459 $454 $451 $626 forward $449 $-1 #
edge $-1 $629 -33.342617203336971 $749 -25.85024149485217 $625 $750 forward 7 unknown #
coedge $-1 $453 $452 $632 $751 reversed $187 $-1 #
edge $-1 $752 -7.685582356959255e-014 $629 13.398553204745287 $623 $753 forward 7 unknown #
vertex $-1 $455 $754 #
straight-curve $-1 -71.07081286538525 17.802623583701891 19.885197325485926 0 1 0 I I #
coedge $-1 $747 $456 $459 $636 reversed $621 $-1 #
coedge $-1 $456 $747 $627 $751 forward $621 $-1 #
vertex $-1 $457 $755 #
straight-curve $-1 -78.56318857387005 30.117470908021144 48.320623180468111 0 0 1 I I #
straight-curve $-1 -78.563188573870008 30.117470908021144 8.7772931926939179 -0.55919289150049634 0 -0.82903758062907751 I I #
edge $-1 $749 -41.093023426786417 $460 -30.117470908021144 $631 $756 forward 7 unknown #
point $-1 -78.56318857387005 30.117470908021144 19.885197325485922 #
point $-1 -71.07081286538525 30.117470908021144 19.885197325485922 #
edge $-1 $757 1 $757 0 $463 $-1 forward 7 unknown #
vertex $-1 $464 $758 #
ellipse-curve $-1 -73.51422737863912 33.253343056239792 13.452513572446284 -0.82903758062907751 0 0.55919289150049634 0.27959644575024817 0 0.41451879031453875 1 I I #
point $-1 -74.537404273877428 33.253343056239792 14.74576404940446 #
edge $-1 $759 1 $759 0 $467 $-1 forward 7 unknown #
vertex $-1 $468 $760 #
ellipse-curve $-1 -73.51422737863912 37.957151278567757 13.452513572446284 -0.82903758062907751 0 0.55919289150049634 0.27959644575024817 0 0.41451879031453875 1 I I #
point $-1 -74.537404273877428 37.957151278567757 14.74576404940446 #
plane-surface $-1 0 0 19.885197325485922 0 0 1 1 0 0 forward_v I I I I #
coedge $-1 $658 $657 $650 $761 forward $472 $-1 #
coedge $-1 $650 $474 $476 $654 reversed $319 $-1 #
coedge $-1 $474 $649 $648 $761 reversed $319 $-1 #
coedge $-1 $482 $477 $474 $652 forward $483 $-1 #
edge $-1 $655 2.2748899576689467 $762 14.288377254839915 $651 $763 forward 7 unknown #
coedge $-1 $476 $475 $658 $764 reversed $201 $-1 #
edge $-1 $765 -157.12637714774007 $655 -134.45596601999628 $649 $766 forward 7 unknown #
vertex $-1 $478 $767 #
straight-curve $-1 66.549701276699068 7.9431009548914808 19.885197325485919 0 -1 0 I I #
coedge $-1 $648 $479 $482 $662 reversed $472 $-1 #
coedge $-1 $479 $648 $653 $764 forward $472 $-1 #
vertex $-1 $480 $768 #
straight-curve $-1 78.56318857387005 19.452816126601483 108.58730828410239 0 0 1 I I #
straight-curve $-1 -4.7011036032048139 19.452816126601483 133.9103243911299 0.52991925155115449 0 -0.84804810408105047 I I #
edge $-1 $762 12.31958769296444 $484 19.452816126601483 $657 $769 forward 7 unknown #
point $-1 78.56318857387005 19.452816126601483 19.885197325485922 #
point $-1 66.549701276699082 19.452816126601483 19.885197325485919 #
edge $-1 $770 1 $770 0 $487 $-1 forward 7 unknown #
vertex $-1 $488 $771 #
ellipse-curve $-1 71.260549157608509 14.357652959717882 9.4626322161318068 0.84804810408105047 0 0.52991925155115449 0.52991925155115449 0 -0.84804810408105047 1 I I #
point $-1 73.086364176835744 14.357652959717882 9.4243496335943178 #
edge $-1 $772 1 $772 0 $491 $-1 forward 7 unknown #
vertex $-1 $492 $773 #
ellipse-curve $-1 71.260549157608509 17.414750859848048 9.4626322161318068 0.84804810408105047 0 0.52991925155115449 0.52991925155115449 0 -0.84804810408105047 1 I I #
point $-1 73.086364176835744 17.414750859848048 9.4243496335943178 #
plane-surface $-1 78.56318857387005 0 0 -1 0 0 0 0 1 forward_v I I I I #
coedge $-1 $500 $498 $502 $678 reversed $341 $-1 #
edge $-1 $513 -19.885197325485922 $680 19.885197325485922 $512 $774 forward 7 unknown #
vertex $-1 $678 $775 #
straight-curve $-1 -78.56318857387005 -47.243888452863096 0 0 0 -1 I I #
edge $-1 $676 -47.243888452863096 $680 47.243888452863096 $674 $776 forward 7 unknown #
straight-curve $-1 0 -47.243888452863096 -19.885197325485922 -1 0 0 I I #
vertex $-1 $505 $777 #
straight-curve $-1 0 47.243888452863096 -19.885197325485922 1 0 0 I I #
point $-1 78.56318857387005 47.243888452863096 -19.885197325485922 #
point $-1 78.56318857387005 -47.243888452863096 -19.885197325485922 #
straight-curve $-1 -78.56318857387005 0 19.885197325485922 0 -1 0 I I #
point $-1 -78.56318857387005 47.243888452863096 19.885197325485922 #
point $-1 -78.56318857387005 -47.243888452863096 19.885197325485922 #
straight-curve $-1 78.56318857387005 -47.243888452863096 0 0 0 -1 I I #
straight-curve $-1 78.56318857387005 47.243888452863096 0 0 0 -1 I I #
plane-surface $-1 78.56318857387005 0 0 -1 0 0 0 0 1 forward_v I I I I #
coedge $-1 $526 $525 $536 $700 reversed $223 $-1 #
edge $-1 $532 21.261781726504729 $778 47.243888452863096 $526 $779 forward 7 unknown #
straight-curve $-1 -78.56318857387005 -21.261781726504729 6.9907692596535806 0 0 -1 I I #
straight-curve $-1 78.56318857387005 -21.261781726504729 6.9907692596535806 0 0 1 I I #
coedge $-1 $530 $529 $699 $780 forward $523 $-1 #
edge $-1 $703 -47.243888452863096 $531 -21.261781726504729 $541 $781 forward 7 unknown #
point $-1 78.56318857387005 -21.261781726504729 19.885197325485926 #
point $-1 -78.56318857387005 -21.261781726504729 19.885197325485926 #
straight-curve $-1 -78.56318857387005 -17.126417544841956 8.0778797131283966 0 -1 0 I I #
coedge $-1 $536 $535 $694 $780 reversed $360 $-1 #
edge $-1 $778 -19.885197325485922 $537 -8.0778797131283966 $690 $782 forward 7 unknown #
point $-1 -78.56318857387005 -47.243888452863096 8.0778797131283966 #
point $-1 -78.56318857387005 -21.261781726504729 8.0778797131283966 #
vertex $-1 $695 $783 #
straight-curve $-1 78.56318857387005 -47.243888452863096 0 0 0 -1 I I #
coedge $-1 $546 $554 $547 $707 forward $379 $-1 #
edge $-1 $709 -13.374778992943684 $555 -2.3992264741784073 $546 $784 forward 7 unknown #
edge $-1 $713 -78.56318857387005 $709 -71.07081286538525 $705 $785 forward 7 unknown #
edge $-1 $552 1.7865239330402733 $713 12.894428065832345 $551 $786 forward 7 unknown #
vertex $-1 $549 $787 #
straight-curve $-1 -65.073641019730971 -21.261781726504729 28.776370502235125 0.55919289150049634 0 0.82903758062907751 I I #
point $-1 -78.56318857387005 -21.261781726504729 8.777293192693854 #
point $-1 -71.07081286538525 -10.286229207739453 19.885197325485922 #
vertex $-1 $708 $788 #
straight-curve $-1 -78.56318857387005 0 19.885197325485922 0 -1 0 I I #
vertex $-1 $561 $789 #
point $-1 -73.234630932888876 -18.12590957828608 13.867032362760822 #
vertex $-1 $565 $790 #
point $-1 -73.234630932888876 -13.422101355958105 13.867032362760822 #
coedge $-1 $580 $579 $572 $720 forward $569 $-1 #
edge $-1 $721 28.435425854982189 $724 39.543329987774257 $719 $791 forward 7 unknown #
vertex $-1 $584 $792 #
straight-curve $-1 -104.41343006872222 6.8401883371025072 19.885197325485919 -1 0 0 I I #
edge $-1 $724 -6.1639822982425727 $581 4.8115702205227038 $580 $793 forward 7 unknown #
vertex $-1 $723 $794 #
straight-curve $-1 -78.563188573870008 6.8401883371025072 8.7772931926939179 0.55919289150049634 0 0.82903758062907751 I I #
point $-1 -71.07081286538525 6.8401883371025072 19.885197325485922 #
point $-1 -78.56318857387005 -4.1353641816627693 8.777293192693854 #
straight-curve $-1 -78.56318857387005 0 19.885197325485922 0 -1 0 I I #
vertex $-1 $587 $795 #
point $-1 -73.234630932888876 -0.99949203344412041 13.867032362760822 #
vertex $-1 $591 $796 #
point $-1 -73.234630932888876 3.7043161888838512 13.867032362760822 #
coedge $-1 $606 $605 $598 $734 forward $595 $-1 #
edge $-1 $735 28.435425854982189 $738 39.543329987774257 $733 $797 forward 7 unknown #
vertex $-1 $610 $798 #
straight-curve $-1 -104.41343006872222 23.966605881944464 19.885197325485919 -1 0 0 I I #
edge $-1 $738 -14.727191070663551 $607 -3.7516385518982744 $606 $799 forward 7 unknown #
vertex $-1 $737 $800 #
straight-curve $-1 -78.563188573870008 23.966605881944464 8.7772931926939179 0.55919289150049634 0 0.82903758062907751 I I #
point $-1 -71.07081286538525 23.966605881944464 19.885197325485922 #
point $-1 -78.56318857387005 12.991053363179187 8.777293192693854 #
straight-curve $-1 -78.56318857387005 0 19.885197325485922 0 -1 0 I I #
vertex $-1 $613 $801 #
point $-1 -73.234630932888876 16.126925511397836 13.867032362760822 #
vertex $-1 $617 $802 #
point $-1 -73.234630932888876 20.830733733725801 13.867032362760822 #
coedge $-1 $632 $631 $624 $748 forward $621 $-1 #
edge $-1 $749 28.435425854982189 $752 39.543329987774257 $747 $803 forward 7 unknown #
vertex $-1 $636 $804 #
straight-curve $-1 -104.41343006872222 41.093023426786417 19.885197325485919 -1 0 0 I I #
edge $-1 $752 -23.290399843084526 $633 -12.314847324319253 $632 $805 forward 7 unknown #
vertex $-1 $751 $806 #
straight-curve $-1 -78.563188573870008 41.093023426786417 8.7772931926939179 0.55919289150049634 0 0.82903758062907751 I I #
point $-1 -71.07081286538525 41.093023426786417 19.885197325485922 #
point $-1 -78.56318857387005 30.117470908021144 8.777293192693854 #
straight-curve $-1 -78.56318857387005 0 19.885197325485922 0 -1 0 I I #
vertex $-1 $639 $807 #
point $-1 -73.234630932888876 33.253343056239792 13.867032362760822 #
vertex $-1 $643 $808 #
point $-1 -73.234630932888876 37.957151278567757 13.867032362760822 #
edge $-1 $762 88.702110958616473 $765 107.92771013423757 $648 $809 forward 7 unknown #
vertex $-1 $662 $810 #
straight-curve $-1 64.274811319030135 12.31958769296444 19.885197325485919 1 0 0 I I #
edge $-1 $765 4.3764867380729591 $659 11.509715171710003 $658 $811 forward 7 unknown #
vertex $-1 $764 $812 #
straight-curve $-1 -4.7011036032048139 12.31958769296444 133.9103243911299 -0.52991925155115449 0 0.84804810408105047 I I #
point $-1 66.549701276699082 12.31958769296444 19.885197325485919 #
point $-1 78.56318857387005 19.452816126601483 0.65959814986482002 #
straight-curve $-1 78.56318857387005 0 19.885197325485922 0 1 0 I I #
vertex $-1 $665 $813 #
point $-1 71.790468409159672 14.357652959717882 8.6145841120507569 #
vertex $-1 $669 $814 #
point $-1 71.790468409159672 17.414750859848048 8.6145841120507569 #
straight-curve $-1 -78.56318857387005 47.243888452863096 0 0 0 -1 I I #
point $-1 -78.56318857387005 -47.243888452863096 -19.885197325485922 #
straight-curve $-1 -78.56318857387005 0 -19.885197325485922 0 1 0 I I #
point $-1 -78.56318857387005 47.243888452863096 -19.885197325485922 #
vertex $-1 $691 $815 #
straight-curve $-1 -78.56318857387005 0 19.885197325485922 0 -1 0 I I #
edge $-1 $778 -78.56318857387005 $703 78.56318857387005 $699 $816 forward 7 unknown #
straight-curve $-1 78.56318857387005 0 19.885197325485922 0 1 0 I I #
straight-curve $-1 -78.56318857387005 -47.243888452863096 0 0 0 -1 I I #
point $-1 78.56318857387005 -47.243888452863096 19.885197325485922 #
straight-curve $-1 -71.07081286538525 -7.8870027335610455 19.885197325485926 0 1 0 I I #
straight-curve $-1 0 -21.261781726504729 19.885197325485922 1 0 0 I I #
straight-curve $-1 -78.56318857387005 -21.261781726504729 6.9907692596535806 0 0 1 I I #
point $-1 -71.07081286538525 -21.261781726504729 19.885197325485922 #
point $-1 -78.56318857387005 -21.261781726504729 19.885197325485926 #
point $-1 -73.099708588324589 -18.12590957828608 13.172917126696037 #
point $-1 -73.099708588324589 -13.422101355958105 13.172917126696037 #
straight-curve $-1 -78.56318857387005 6.8401883371025072 48.320623180468111 0 0 -1 I I #
point $-1 -78.56318857387005 6.8401883371025072 19.885197325485922 #
straight-curve $-1 -78.56318857387005 0.67620603885993447 8.7772931926938611 0 -1 0 I I #
point $-1 -78.56318857387005 6.8401883371025072 8.777293192693854 #
point $-1 -73.099708588324589 -0.99949203344412041 13.172917126696037 #
point $-1 -73.099708588324589 3.7043161888838512 13.172917126696037 #
straight-curve $-1 -78.56318857387005 23.966605881944464 48.320623180468111 0 0 -1 I I #
point $-1 -78.56318857387005 23.966605881944464 19.885197325485922 #
straight-curve $-1 -78.56318857387005 9.2394148112809127 8.7772931926938611 0 -1 0 I I #
point $-1 -78.56318857387005 23.966605881944464 8.777293192693854 #
point $-1 -73.099708588324589 16.126925511397836 13.172917126696037 #
point $-1 -73.099708588324589 20.830733733725801 13.172917126696037 #
straight-curve $-1 -78.56318857387005 41.093023426786417 48.320623180468111 0 0 -1 I I #
point $-1 -78.56318857387005 41.093023426786417 19.885197325485922 #
straight-curve $-1 -78.56318857387005 17.802623583701891 8.7772931926938611 0 -1 0 I I #
point $-1 -78.56318857387005 41.093023426786417 8.777293192693854 #
point $-1 -73.099708588324589 33.253343056239792 13.172917126696037 #
point $-1 -73.099708588324589 37.957151278567757 13.172917126696037 #
straight-curve $-1 78.56318857387005 12.31958769296444 108.58730828410239 0 0 -1 I I #
point $-1 78.56318857387005 12.31958769296444 19.885197325485922 #
straight-curve $-1 78.563188573870036 7.9431009548914808 0.65959814986480581 0 1 0 I I #
point $-1 78.56318857387005 12.31958769296444 0.65959814986482002 #
point $-1 70.412501053527464 14.357652959717882 8.932712964580654 #
point $-1 70.412501053527464 17.414750859848048 8.932712964580654 #
point $-1 -78.56318857387005 -47.243888452863096 19.885197325485922 #
straight-curve $-1 0 -47.243888452863096 19.885197325485922 1 0 0 I I #
End-of-ACIS-data 