500 0 7 0           
7 Unknown 11 ACIS 5.0 NT 24 Fri Mar 26 19:15:20 1999 
-1 9.9999999999999995e-007 1e-010 
body $-1 $7 $-1 $8 #
body $-1 $9 $-1 $10 #
body $-1 $11 $-1 $12 #
body $-1 $13 $-1 $14 #
body $-1 $15 $-1 $16 #
body $-1 $17 $-1 $18 #
body $-1 $19 $-1 $20 #
lump $-1 $-1 $21 $0 #
transform $-1 1 0 0 0 1 0 0 0 1 52.594378490554519 34.30969811050749 13.82387546508234 1 rotate no_reflect no_shear #
lump $-1 $-1 $22 $1 #
transform $-1 1 0 0 0 1 0 0 0 1 52.594378490554519 34.30969811050749 13.82387546508234 1 rotate no_reflect no_shear #
lump $-1 $-1 $23 $2 #
transform $-1 1 0 0 0 1 0 0 0 1 52.594378490554519 34.30969811050749 13.82387546508234 1 rotate no_reflect no_shear #
lump $-1 $-1 $24 $3 #
transform $-1 1 0 0 0 1 0 0 0 1 52.594378490554519 34.30969811050749 13.82387546508234 1 rotate no_reflect no_shear #
lump $-1 $-1 $25 $4 #
transform $-1 1 0 0 0 1 0 0 0 1 52.594378490554519 34.30969811050749 13.82387546508234 1 rotate no_reflect no_shear #
lump $-1 $-1 $26 $5 #
transform $-1 1 0 0 0 1 0 0 0 1 52.594378490554519 34.30969811050749 13.82387546508234 1 rotate no_reflect no_shear #
lump $-1 $-1 $27 $6 #
transform $-1 1 0 0 0 1 0 0 0 1 52.594378490554519 34.30969811050749 13.82387546508234 1 rotate no_reflect no_shear #
shell $-1 $-1 $-1 $28 $-1 $7 #
shell $-1 $-1 $-1 $29 $-1 $9 #
shell $-1 $-1 $-1 $30 $-1 $11 #
shell $-1 $-1 $-1 $31 $-1 $13 #
shell $-1 $-1 $-1 $32 $-1 $15 #
shell $-1 $-1 $-1 $33 $-1 $17 #
shell $-1 $-1 $-1 $34 $-1 $19 #
face $-1 $35 $36 $21 $-1 $37 forward single #
face $-1 $38 $39 $22 $-1 $40 forward single #
face $-1 $41 $42 $23 $-1 $43 reversed single #
face $-1 $44 $45 $24 $-1 $46 forward single #
face $-1 $47 $48 $25 $-1 $49 forward single #
face $-1 $50 $51 $26 $-1 $52 reversed single #
face $-1 $53 $54 $27 $-1 $55 forward single #
face $-1 $56 $57 $21 $-1 $58 reversed single #
loop $-1 $-1 $59 $28 #
plane-surface $-1 0 0 13.82387546508234 0 0 1 1 0 0 forward_v I I I I #
face $-1 $60 $61 $22 $-1 $62 reversed single #
loop $-1 $-1 $63 $29 #
plane-surface $-1 -44.894302243308346 0 7.9124168882726487 0 0 1 1 0 0 forward_v I I I I #
face $-1 $64 $65 $23 $-1 $66 reversed single #
loop $-1 $-1 $67 $30 #
plane-surface $-1 -18.435824714790066 -120.47528428338819 70.017702804530842 1 0 0 0 0.81915205242281985 -0.57357642473473569 forward_v I I I I #
face $-1 $68 $69 $24 $-1 $70 forward single #
loop $-1 $71 $72 $31 #
cone-surface $-1 -11.169480813907747 -31.478844918997652 10.786601476941335 0 0.81915205242281985 -0.57357642473473569 1 0 0 1 I I 0 1 1 forward I I I I #
face $-1 $73 $74 $25 $-1 $75 forward single #
loop $-1 $76 $77 $32 #
cone-surface $-1 -0.26996496258426816 -31.478844918997652 10.786601476941335 0 0.81915205242281985 -0.57357642473473569 1 0 0 1 I I 0 1 1 forward I I I I #
face $-1 $78 $79 $26 $-1 $80 reversed single #
loop $-1 $-1 $81 $33 #
plane-surface $-1 6.6431681926840547 79.075722639243708 124.63168681863327 1 0 0 0 -0.80901700255871778 -0.5877852410284794 forward_v I I I I #
face $-1 $82 $83 $27 $-1 $84 forward single #
loop $-1 $85 $86 $34 #
cone-surface $-1 15.287585476649795 29.514447395229297 8.7972540647510442 0 -0.80901700255871778 -0.5877852410284794 1.5 0 0 1 I I 0 1 1.5 forward I I I I #
face $-1 $87 $88 $21 $-1 $89 reversed single #
loop $-1 $-1 $90 $35 #
plane-surface $-1 0 0 -13.82387546508234 0 0 1 1 0 0 forward_v I I I I #
coedge $-1 $91 $92 $93 $94 forward $36 $-1 #
face $-1 $95 $96 $22 $-1 $97 reversed single #
loop $-1 $-1 $98 $38 #
plane-surface $-1 -44.894302243308346 0 2.5547422741405441 0 0 1 1 0 0 forward_v I I I I #
coedge $-1 $99 $100 $101 $102 forward $39 $-1 #
face $-1 $103 $104 $23 $-1 $105 reversed single #
loop $-1 $-1 $106 $41 #
plane-surface $-1 -5.7197228882460109 -34.309698110507497 9.6839116530153504 0 -0.81915205242281985 0.57357642473473569 1 0 0 forward_v I I I I #
coedge $-1 $107 $108 $109 $110 reversed $42 $-1 #
face $-1 $-1 $111 $24 $-1 $112 forward single #
loop $-1 $113 $114 $44 #
cone-surface $-1 -11.169480813907747 -29.687832592092477 9.5325211824664589 0 0.81915205242281985 -0.57357642473473569 0.5 0 0 1 I I -0.70710678118654746 0.70710678118654746 0.5 forward I I I I #
loop $-1 $-1 $115 $31 #
coedge $-1 $72 $72 $116 $117 reversed $45 $-1 #
face $-1 $-1 $118 $25 $-1 $119 forward single #
loop $-1 $120 $121 $47 #
cone-surface $-1 -0.26996496258426816 -29.687832592092477 9.5325211824664589 0 0.81915205242281985 -0.57357642473473569 0.5 0 0 1 I I -0.70710678118654746 0.70710678118654746 0.5 forward I I I I #
loop $-1 $-1 $122 $32 #
coedge $-1 $77 $77 $123 $124 reversed $48 $-1 #
face $-1 $125 $126 $26 $-1 $127 reversed single #
loop $-1 $-1 $128 $50 #
plane-surface $-1 15.287585476649795 -6.0237702364905203 62.803287943005948 0 0.80901700255871778 0.5877852410284794 1 0 0 forward_v I I I I #
coedge $-1 $129 $130 $131 $132 reversed $51 $-1 #
face $-1 $-1 $133 $27 $-1 $134 forward single #
loop $-1 $135 $136 $53 #
cone-surface $-1 15.287585476649795 26.486355541525491 6.5972166187438628 0 -0.80901700255871778 -0.5877852410284794 0.75 0 0 1 I I -0.70710678118654757 0.70710678118654757 0.75 forward I I I I #
loop $-1 $-1 $137 $34 #
coedge $-1 $86 $86 $138 $139 reversed $54 $-1 #
face $-1 $140 $141 $21 $-1 $142 reversed single #
loop $-1 $-1 $143 $56 #
plane-surface $-1 0 -34.30969811050749 0 0 1 0 0 0 1 forward_v I I I I #
coedge $-1 $144 $145 $146 $147 forward $57 $-1 #
coedge $-1 $148 $59 $149 $150 forward $36 $-1 #
coedge $-1 $59 $148 $151 $152 forward $36 $-1 #
coedge $-1 $153 $154 $59 $94 reversed $155 $-1 #
edge $-1 $156 -34.30969811050749 $157 34.30969811050749 $93 $158 forward 7 unknown #
face $-1 $159 $160 $22 $-1 $161 reversed single #
loop $-1 $-1 $162 $60 #
plane-surface $-1 -37.194225996062173 0 5.2335795812065964 -1 0 0 0 0 1 forward_v I I I I #
coedge $-1 $163 $164 $165 $166 forward $61 $-1 #
coedge $-1 $167 $63 $168 $169 reversed $39 $-1 #
coedge $-1 $63 $167 $170 $171 reversed $39 $-1 #
coedge $-1 $162 $172 $63 $102 reversed $96 $-1 #
edge $-1 $173 -34.30969811050749 $174 34.30969811050749 $101 $175 forward 7 unknown #
face $-1 $176 $177 $23 $-1 $178 forward single #
loop $-1 $-1 $179 $64 #
plane-surface $-1 6.9963789382980437 -120.47528428338819 70.017702804530842 -1 0 0 0 -0.81915205242281985 0.57357642473473569 forward_v I I I I #
coedge $-1 $180 $181 $182 $183 reversed $65 $-1 #
coedge $-1 $108 $67 $184 $185 reversed $42 $-1 #
coedge $-1 $67 $107 $180 $186 reversed $42 $-1 #
coedge $-1 $182 $187 $67 $110 forward $188 $-1 #
edge $-1 $189 21.184975937183083 $190 25.32493974925006 $109 $191 forward 7 unknown #
loop $-1 $-1 $116 $68 #
plane-surface $-1 -5.7197228882460109 -34.309698110507497 9.6839116530153504 0 -0.81915205242281985 0.57357642473473569 1 0 0 forward_v I I I I #
loop $-1 $-1 $192 $44 #
coedge $-1 $114 $114 $115 $193 reversed $69 $-1 #
coedge $-1 $115 $115 $114 $193 forward $71 $-1 #
coedge $-1 $116 $116 $72 $117 forward $111 $-1 #
edge $-1 $194 -2.8981343250492278e-016 $194 6.2831853071796004 $116 $195 forward 7 unknown #
loop $-1 $-1 $123 $73 #
plane-surface $-1 -5.7197228882460109 -34.309698110507497 9.6839116530153504 0 -0.81915205242281985 0.57357642473473569 1 0 0 forward_v I I I I #
loop $-1 $-1 $196 $47 #
coedge $-1 $121 $121 $122 $197 reversed $74 $-1 #
coedge $-1 $122 $122 $121 $197 forward $76 $-1 #
coedge $-1 $123 $123 $77 $124 forward $118 $-1 #
edge $-1 $198 -2.8981343250492278e-016 $198 6.2831853071796004 $123 $199 forward 7 unknown #
face $-1 $200 $201 $26 $-1 $202 reversed single #
loop $-1 $-1 $203 $78 #
plane-surface $-1 23.932002760615536 79.075722639243708 124.63168681863327 -1 0 0 0 0.80901700255871778 0.5877852410284794 forward_v I I I I #
coedge $-1 $204 $205 $206 $207 reversed $79 $-1 #
coedge $-1 $130 $81 $208 $209 reversed $51 $-1 #
coedge $-1 $81 $129 $204 $210 reversed $51 $-1 #
coedge $-1 $206 $211 $81 $132 forward $212 $-1 #
edge $-1 $213 5.2281632091143635 $214 9.9760064361012155 $131 $215 forward 7 unknown #
loop $-1 $-1 $138 $82 #
plane-surface $-1 15.287585476649795 -6.0237702364905203 62.803287943005948 0 0.80901700255871778 0.5877852410284794 1 0 0 forward_v I I I I #
loop $-1 $-1 $216 $53 #
coedge $-1 $136 $136 $137 $217 reversed $83 $-1 #
coedge $-1 $137 $137 $136 $217 forward $85 $-1 #
coedge $-1 $138 $138 $86 $139 forward $133 $-1 #
edge $-1 $218 9.5806859045751217e-016 $218 6.2831853071796013 $138 $219 forward 7 unknown #
face $-1 $220 $221 $21 $-1 $222 reversed single #
loop $-1 $-1 $223 $87 #
plane-surface $-1 -52.594378490554519 0 0 1 0 0 0 0 -1 forward_v I I I I #
coedge $-1 $224 $151 $225 $226 forward $88 $-1 #
coedge $-1 $227 $90 $224 $228 forward $57 $-1 #
coedge $-1 $90 $227 $229 $230 forward $57 $-1 #
coedge $-1 $154 $153 $90 $147 reversed $155 $-1 #
edge $-1 $231 -34.30969811050749 $232 34.30969811050749 $146 $233 forward 7 unknown #
coedge $-1 $92 $91 $234 $235 forward $36 $-1 #
coedge $-1 $236 $237 $91 $150 reversed $221 $-1 #
edge $-1 $157 -52.594378490554519 $238 52.594378490554519 $149 $239 forward 7 unknown #
coedge $-1 $143 $240 $92 $152 reversed $88 $-1 #
edge $-1 $241 -52.594378490554519 $156 52.594378490554519 $151 $242 forward 7 unknown #
coedge $-1 $146 $93 $240 $243 forward $155 $-1 #
coedge $-1 $93 $146 $236 $244 reversed $155 $-1 #
loop $-1 $-1 $153 $220 #
vertex $-1 $94 $245 #
vertex $-1 $94 $246 #
straight-curve $-1 52.594378490554519 0 13.82387546508234 0 1 0 I I #
face $-1 $247 $248 $22 $-1 $249 reversed single #
loop $-1 $-1 $250 $95 #
plane-surface $-1 0 -34.30969811050749 0 0 1 0 0 0 1 forward_v I I I I #
coedge $-1 $165 $101 $251 $252 reversed $96 $-1 #
coedge $-1 $253 $98 $250 $254 reversed $61 $-1 #
coedge $-1 $98 $253 $255 $256 reversed $61 $-1 #
coedge $-1 $172 $162 $98 $166 reversed $96 $-1 #
edge $-1 $257 -34.30969811050749 $258 34.30969811050749 $165 $259 forward 7 unknown #
coedge $-1 $100 $99 $260 $261 reversed $39 $-1 #
coedge $-1 $262 $263 $99 $169 forward $264 $-1 #
edge $-1 $265 -30.147227368900346 $174 -14.747074874408 $168 $266 forward 7 unknown #
coedge $-1 $267 $251 $100 $171 forward $160 $-1 #
edge $-1 $173 14.747074874408 $268 30.147227368900346 $170 $269 forward 7 unknown #
coedge $-1 $101 $165 $262 $270 reversed $96 $-1 #
vertex $-1 $171 $271 #
vertex $-1 $169 $272 #
straight-curve $-1 -37.194225996062173 0 7.9124168882726487 0 1 0 I I #
face $-1 $-1 $188 $23 $-1 $273 reversed single #
loop $-1 $-1 $274 $103 #
plane-surface $-1 0 0 13.82387546508234 0 0 1 1 0 0 forward_v I I I I #
coedge $-1 $275 $276 $277 $278 reversed $104 $-1 #
coedge $-1 $279 $106 $108 $186 forward $65 $-1 #
coedge $-1 $106 $279 $275 $280 forward $65 $-1 #
coedge $-1 $277 $109 $106 $183 forward $188 $-1 #
edge $-1 $190 -15.57596327066706 $281 9.8562403824210492 $182 $282 forward 7 unknown #
coedge $-1 $283 $284 $107 $185 forward $177 $-1 #
edge $-1 $285 -28.826777812818737 $189 -25.927944031186605 $184 $286 forward 7 unknown #
edge $-1 $190 1.2806143724965335e-014 $285 5.0539625699797108 $108 $287 forward 7 unknown #
coedge $-1 $109 $277 $283 $288 reversed $188 $-1 #
loop $-1 $-1 $277 $176 #
vertex $-1 $288 $289 #
vertex $-1 $110 $290 #
straight-curve $-1 -18.435824714790066 -34.30969811050749 35.008851402265421 0 0 -1 I I #
coedge $-1 $192 $192 $-1 $291 reversed $113 $-1 #
edge $-1 $292 0 $292 6.2831853071796004 $114 $293 forward 7 unknown #
vertex $-1 $117 $294 #
ellipse-curve $-1 -11.169480813907747 -32.860281219691423 11.75389355904885 0 -0.81915205242281985 0.57357642473473569 1 0 0 1 I I #
coedge $-1 $196 $196 $-1 $295 reversed $120 $-1 #
edge $-1 $296 0 $296 6.2831853071796004 $121 $297 forward 7 unknown #
vertex $-1 $124 $298 #
ellipse-curve $-1 -0.26996496258426816 -32.860281219691423 11.75389355904885 0 -0.81915205242281985 0.57357642473473569 1 0 0 1 I I #
face $-1 $-1 $212 $26 $-1 $299 forward single #
loop $-1 $-1 $300 $125 #
plane-surface $-1 0 34.30969811050749 0 0 -1 0 0 0 -1 forward_v I I I I #
coedge $-1 $301 $302 $303 $304 reversed $126 $-1 #
coedge $-1 $305 $128 $130 $210 forward $79 $-1 #
coedge $-1 $128 $305 $301 $306 forward $79 $-1 #
coedge $-1 $303 $131 $128 $207 forward $212 $-1 #
edge $-1 $214 -1.0006245456408429 $307 16.288210022290638 $206 $308 forward 7 unknown #
coedge $-1 $309 $310 $129 $209 forward $201 $-1 #
edge $-1 $311 -55.026813714425224 $213 -48.491967944234297 $208 $312 forward 7 unknown #
edge $-1 $214 60.541882708291688 $311 68.619396221014966 $130 $313 forward 7 unknown #
coedge $-1 $131 $303 $309 $314 forward $212 $-1 #
loop $-1 $-1 $303 $200 #
vertex $-1 $209 $315 #
vertex $-1 $132 $316 #
straight-curve $-1 6.6431681926840547 39.537861319621854 13.823875465082338 0 -1 0 I I #
coedge $-1 $216 $216 $-1 $317 reversed $135 $-1 #
edge $-1 $318 0 $318 6.2831853071796004 $136 $319 forward 7 unknown #
vertex $-1 $139 $320 #
ellipse-curve $-1 15.287585476649795 31.935776497014068 10.556452579986869 0 0.80901700255871778 0.5877852410284794 1.5 0 0 1 I I #
face $-1 $-1 $155 $21 $-1 $321 reversed single #
loop $-1 $-1 $236 $140 #
plane-surface $-1 0 34.30969811050749 0 0 -1 0 0 0 -1 forward_v I I I I #
coedge $-1 $322 $234 $237 $323 forward $141 $-1 #
coedge $-1 $240 $143 $144 $228 reversed $88 $-1 #
coedge $-1 $234 $322 $143 $226 reversed $141 $-1 #
edge $-1 $241 -13.82387546508234 $324 13.82387546508234 $225 $325 forward 7 unknown #
coedge $-1 $145 $144 $322 $326 forward $57 $-1 #
edge $-1 $232 -52.594378490554519 $324 52.594378490554519 $224 $327 forward 7 unknown #
coedge $-1 $237 $236 $145 $230 reversed $221 $-1 #
edge $-1 $328 -52.594378490554519 $231 52.594378490554519 $229 $329 forward 7 unknown #
vertex $-1 $147 $330 #
vertex $-1 $243 $331 #
straight-curve $-1 52.594378490554519 0 -13.82387546508234 0 -1 0 I I #
coedge $-1 $223 $225 $148 $235 reversed $141 $-1 #
edge $-1 $238 -34.30969811050749 $241 34.30969811050749 $234 $332 forward 7 unknown #
coedge $-1 $229 $149 $154 $244 forward $221 $-1 #
coedge $-1 $149 $229 $223 $323 reversed $221 $-1 #
vertex $-1 $150 $333 #
straight-curve $-1 0 34.30969811050749 13.82387546508234 -1 0 0 I I #
coedge $-1 $151 $224 $153 $243 reversed $88 $-1 #
vertex $-1 $235 $334 #
straight-curve $-1 0 -34.30969811050749 13.82387546508234 1 0 0 I I #
edge $-1 $156 -13.82387546508234 $232 13.82387546508234 $153 $335 forward 7 unknown #
edge $-1 $157 -13.82387546508234 $231 13.82387546508234 $154 $336 forward 7 unknown #
point $-1 52.594378490554519 -34.30969811050749 13.82387546508234 #
point $-1 52.594378490554519 34.30969811050749 13.82387546508234 #
face $-1 $-1 $264 $22 $-1 $337 reversed single #
loop $-1 $-1 $338 $159 #
plane-surface $-1 -52.594378490554519 0 0 1 0 0 0 0 -1 forward_v I I I I #
coedge $-1 $251 $267 $163 $254 forward $160 $-1 #
coedge $-1 $170 $250 $162 $252 forward $160 $-1 #
edge $-1 $258 -0.062047516462754082 $173 5.2956270976693505 $251 $339 forward 7 unknown #
coedge $-1 $164 $163 $338 $340 reversed $61 $-1 #
edge $-1 $341 -30.147227368900346 $258 -14.747074874408 $250 $342 forward 7 unknown #
coedge $-1 $263 $262 $164 $256 forward $264 $-1 #
edge $-1 $257 14.747074874408 $343 30.147227368900346 $255 $344 forward 7 unknown #
vertex $-1 $256 $345 #
vertex $-1 $254 $346 #
straight-curve $-1 -37.194225996062173 0 2.5547422741405441 0 -1 0 I I #
coedge $-1 $347 $348 $167 $261 forward $248 $-1 #
edge $-1 $268 -34.30969811050749 $265 34.30969811050749 $260 $349 forward 7 unknown #
coedge $-1 $255 $168 $172 $270 forward $264 $-1 #
coedge $-1 $168 $255 $347 $350 reversed $264 $-1 #
loop $-1 $-1 $255 $247 #
vertex $-1 $350 $351 #
straight-curve $-1 -22.447151121654173 34.30969811050749 7.9124168882726487 1 0 0 I I #
coedge $-1 $250 $170 $348 $352 forward $160 $-1 #
vertex $-1 $352 $353 #
straight-curve $-1 -22.447151121654173 -34.30969811050749 7.9124168882726487 -1 0 0 I I #
edge $-1 $174 -5.2956270976693505 $257 0.062047516462754082 $262 $354 forward 7 unknown #
point $-1 -37.194225996062173 -34.30969811050749 7.9124168882726487 #
point $-1 -37.194225996062173 34.30969811050749 7.9124168882726487 #
plane-surface $-1 0 -34.30969811050749 0 0 1 0 0 0 1 forward_v I I I I #
coedge $-1 $284 $283 $276 $355 forward $177 $-1 #
coedge $-1 $276 $179 $181 $280 reversed $104 $-1 #
coedge $-1 $179 $275 $274 $355 reversed $104 $-1 #
coedge $-1 $187 $182 $179 $278 forward $188 $-1 #
edge $-1 $281 -25.32493974925006 $356 -21.184975937183083 $277 $357 forward 7 unknown #
coedge $-1 $181 $180 $284 $358 reversed $65 $-1 #
edge $-1 $359 -5.0539625699797108 $281 -1.2806143724965335e-014 $275 $360 forward 7 unknown #
vertex $-1 $183 $361 #
straight-curve $-1 -2.8598614441230055 -34.30969811050749 9.6839116530153628 1 0 0 I I #
coedge $-1 $274 $184 $187 $288 forward $177 $-1 #
coedge $-1 $184 $274 $279 $358 forward $177 $-1 #
vertex $-1 $185 $362 #
straight-curve $-1 -18.435824714790066 -60.237642141694096 13.823875465082338 0 -1 0 I I #
straight-curve $-1 -18.435824714790066 -34.309698110507497 9.6839116530153504 0 0.57357642473473569 0.81915205242281985 I I #
edge $-1 $189 -18.435824714790066 $356 6.9963789382980437 $187 $363 forward 7 unknown #
point $-1 -18.435824714790066 -34.30969811050749 13.82387546508234 #
point $-1 -18.435824714790066 -34.30969811050749 9.6839116530153611 #
edge $-1 $364 1 $364 0 $192 $-1 forward 7 unknown #
vertex $-1 $193 $365 #
ellipse-curve $-1 -11.169480813907747 -30.097408618303888 9.8193093948338266 0 -0.81915205242281985 0.57357642473473569 1 0 0 1 I I #
point $-1 -10.169480813907747 -32.860281219691416 11.753893559048844 #
edge $-1 $366 1 $366 0 $196 $-1 forward 7 unknown #
vertex $-1 $197 $367 #
ellipse-curve $-1 -0.26996496258426816 -30.097408618303888 9.8193093948338266 0 -0.81915205242281985 0.57357642473473569 1 0 0 1 I I #
point $-1 0.73003503741573184 -32.860281219691416 11.753893559048844 #
plane-surface $-1 0 0 13.82387546508234 0 0 1 1 0 0 forward_v I I I I #
coedge $-1 $310 $309 $302 $368 forward $201 $-1 #
coedge $-1 $302 $203 $205 $306 reversed $126 $-1 #
coedge $-1 $203 $301 $300 $368 reversed $126 $-1 #
coedge $-1 $211 $206 $203 $304 forward $212 $-1 #
edge $-1 $307 -9.9760064361012155 $369 -5.2281632091143635 $303 $370 forward 7 unknown #
coedge $-1 $205 $204 $310 $371 reversed $79 $-1 #
edge $-1 $372 -68.619396221014966 $307 -60.541882708291688 $301 $373 forward 7 unknown #
vertex $-1 $207 $374 #
straight-curve $-1 7.6437927383248976 29.561854883520645 13.823875465082345 1 0 0 I I #
coedge $-1 $300 $208 $211 $314 reversed $201 $-1 #
coedge $-1 $208 $300 $305 $371 forward $201 $-1 #
vertex $-1 $209 $375 #
straight-curve $-1 6.6431681926840547 34.30969811050749 62.315843409316635 0 0 1 I I #
straight-curve $-1 6.6431681926840547 -6.0237702364905203 62.803287943005948 0 0.5877852410284794 -0.80901700255871778 I I #
edge $-1 $369 -23.932002760615536 $213 -6.6431681926840547 $309 $376 forward 7 unknown #
point $-1 6.6431681926840547 34.30969811050749 13.82387546508234 #
point $-1 6.6431681926840547 29.561854883520638 13.823875465082338 #
edge $-1 $377 1 $377 0 $216 $-1 forward 7 unknown #
vertex $-1 $217 $378 #
ellipse-curve $-1 15.287585476649795 27.09311829344453 7.0380555495152226 0 0.80901700255871778 0.5877852410284794 1.5 0 0 1 I I #
point $-1 16.787585476649795 31.935776497014068 10.556452579986868 #
plane-surface $-1 52.594378490554519 0 0 -1 0 0 0 0 1 forward_v I I I I #
coedge $-1 $225 $223 $227 $326 reversed $141 $-1 #
edge $-1 $238 -13.82387546508234 $328 13.82387546508234 $237 $379 forward 7 unknown #
vertex $-1 $326 $380 #
straight-curve $-1 -52.594378490554519 -34.30969811050749 0 0 0 -1 I I #
edge $-1 $324 -34.30969811050749 $328 34.30969811050749 $322 $381 forward 7 unknown #
straight-curve $-1 0 -34.30969811050749 -13.82387546508234 -1 0 0 I I #
vertex $-1 $230 $382 #
straight-curve $-1 0 34.30969811050749 -13.82387546508234 1 0 0 I I #
point $-1 52.594378490554519 34.30969811050749 -13.82387546508234 #
point $-1 52.594378490554519 -34.30969811050749 -13.82387546508234 #
straight-curve $-1 -52.594378490554519 0 13.82387546508234 0 -1 0 I I #
point $-1 -52.594378490554519 34.30969811050749 13.82387546508234 #
point $-1 -52.594378490554519 -34.30969811050749 13.82387546508234 #
straight-curve $-1 52.594378490554519 -34.30969811050749 0 0 0 -1 I I #
straight-curve $-1 52.594378490554519 34.30969811050749 0 0 0 -1 I I #
plane-surface $-1 0 34.30969811050749 0 0 -1 0 0 0 -1 forward_v I I I I #
coedge $-1 $348 $347 $253 $340 forward $248 $-1 #
straight-curve $-1 -37.194225996062173 -34.30969811050749 2.6167897906032982 0 0 1 I I #
edge $-1 $343 -34.30969811050749 $341 34.30969811050749 $338 $383 forward 7 unknown #
vertex $-1 $254 $384 #
straight-curve $-1 -22.447151121654173 -34.30969811050749 2.5547422741405441 1 0 0 I I #
vertex $-1 $256 $385 #
straight-curve $-1 -22.447151121654173 34.30969811050749 2.5547422741405441 -1 0 0 I I #
point $-1 -37.194225996062173 34.30969811050749 2.5547422741405441 #
point $-1 -37.194225996062173 -34.30969811050749 2.5547422741405441 #
coedge $-1 $338 $260 $263 $350 forward $248 $-1 #
coedge $-1 $260 $338 $267 $352 reversed $248 $-1 #
straight-curve $-1 -52.594378490554519 0 7.9124168882726487 0 1 0 I I #
edge $-1 $265 -7.9124168882726487 $343 -2.5547422741405441 $263 $386 forward 7 unknown #
point $-1 -52.594378490554519 34.30969811050749 7.9124168882726487 #
edge $-1 $268 -7.9124168882726487 $341 -2.5547422741405441 $348 $387 forward 7 unknown #
point $-1 -52.594378490554519 -34.30969811050749 7.9124168882726487 #
straight-curve $-1 -37.194225996062173 34.30969811050749 2.6167897906032982 0 0 -1 I I #
edge $-1 $356 25.927944031186605 $359 28.826777812818737 $274 $388 forward 7 unknown #
vertex $-1 $355 $389 #
straight-curve $-1 6.9963789382980437 -34.30969811050749 35.008851402265421 0 0 1 I I #
edge $-1 $359 -9.8562403824210492 $285 15.57596327066706 $284 $390 forward 7 unknown #
vertex $-1 $358 $391 #
straight-curve $-1 6.9963789382980437 -34.309698110507497 9.6839116530153504 0 -0.57357642473473569 -0.81915205242281985 I I #
point $-1 6.9963789382980437 -34.30969811050749 9.6839116530153611 #
point $-1 -18.435824714790066 -31.410864328875359 13.82387546508234 #
straight-curve $-1 0 -34.30969811050749 13.82387546508234 1 0 0 I I #
vertex $-1 $291 $392 #
point $-1 -10.169480813907747 -30.097408618303888 9.8193093948338266 #
vertex $-1 $295 $393 #
point $-1 0.73003503741573184 -30.097408618303888 9.8193093948338266 #
edge $-1 $369 48.491967944234297 $372 55.026813714425224 $300 $394 forward 7 unknown #
vertex $-1 $314 $395 #
straight-curve $-1 23.932002760615536 39.537861319621854 13.823875465082338 0 1 0 I I #
edge $-1 $372 -16.288210022290638 $311 1.0006245456408429 $310 $396 forward 7 unknown #
vertex $-1 $371 $397 #
straight-curve $-1 23.932002760615536 -6.0237702364905203 62.803287943005948 0 -0.5877852410284794 0.80901700255871778 I I #
point $-1 23.932002760615536 29.561854883520638 13.823875465082338 #
point $-1 6.6431681926840547 34.30969811050749 7.2890296948914113 #
straight-curve $-1 0 34.30969811050749 13.82387546508234 -1 0 0 I I #
vertex $-1 $317 $398 #
point $-1 16.787585476649795 27.09311829344453 7.0380555495152226 #
straight-curve $-1 -52.594378490554519 34.30969811050749 0 0 0 -1 I I #
point $-1 -52.594378490554519 -34.30969811050749 -13.82387546508234 #
straight-curve $-1 -52.594378490554519 0 -13.82387546508234 0 1 0 I I #
point $-1 -52.594378490554519 34.30969811050749 -13.82387546508234 #
straight-curve $-1 -52.594378490554519 0 2.5547422741405441 0 -1 0 I I #
point $-1 -52.594378490554519 -34.30969811050749 2.5547422741405441 #
point $-1 -52.594378490554519 34.30969811050749 2.5547422741405441 #
straight-curve $-1 -52.594378490554519 34.30969811050749 0 0 0 -1 I I #
straight-curve $-1 -52.594378490554519 -34.30969811050749 0 0 0 -1 I I #
straight-curve $-1 6.9963789382980437 -60.237642141694096 13.823875465082338 0 1 0 I I #
point $-1 6.9963789382980437 -34.30969811050749 13.82387546508234 #
straight-curve $-1 -2.8598614441230055 -31.410864328875359 13.82387546508234 -1 0 0 I I #
point $-1 6.9963789382980437 -31.410864328875359 13.82387546508234 #
point $-1 -11.169480813907747 -29.278256565881065 9.2457329700990911 #
point $-1 -0.26996496258426816 -29.278256565881065 9.2457329700990911 #
straight-curve $-1 23.932002760615536 34.30969811050749 62.315843409316635 0 0 -1 I I #
point $-1 23.932002760615536 34.30969811050749 13.82387546508234 #
straight-curve $-1 7.6437927383248976 34.30969811050749 7.2890296948914184 -1 0 0 I I #
point $-1 23.932002760615536 34.30969811050749 7.2890296948914113 #
point $-1 15.287585476649795 25.879592789606452 6.156377687972503 #
End-of-ACIS-data 