500 0 4 0           
7 Unknown 11 ACIS 5.0 NT 24 Thu Mar 25 21:36:02 1999 
-1 9.9999999999999995e-007 1e-010 
body $-1 $4 $-1 $5 #
body $-1 $6 $-1 $7 #
body $-1 $8 $-1 $9 #
body $-1 $10 $-1 $11 #
lump $-1 $-1 $12 $0 #
transform $-1 1 0 0 0 1 0 0 0 1 57.824030274361398 31.711893259477577 14.72971810146174 1 rotate no_reflect no_shear #
lump $-1 $-1 $13 $1 #
transform $-1 1 0 0 0 1 0 0 0 1 57.824030274361398 31.711893259477577 14.72971810146174 1 rotate no_reflect no_shear #
lump $-1 $-1 $14 $2 #
transform $-1 1 0 0 0 1 0 0 0 1 57.824030274361398 31.711893259477577 14.72971810146174 1 rotate no_reflect no_shear #
lump $-1 $-1 $15 $3 #
transform $-1 1 0 0 0 1 0 0 0 1 57.824030274361398 31.711893259477577 14.72971810146174 1 rotate no_reflect no_shear #
shell $-1 $-1 $-1 $16 $-1 $4 #
shell $-1 $-1 $-1 $17 $-1 $6 #
shell $-1 $-1 $-1 $18 $-1 $8 #
shell $-1 $-1 $-1 $19 $-1 $10 #
face $-1 $20 $21 $12 $-1 $22 forward single #
face $-1 $23 $24 $13 $-1 $25 forward single #
face $-1 $26 $27 $14 $-1 $28 reversed single #
face $-1 $29 $30 $15 $-1 $31 reversed single #
face $-1 $32 $33 $12 $-1 $34 reversed single #
loop $-1 $-1 $35 $16 #
plane-surface $-1 0 0 14.72971810146174 0 0 1 1 0 0 forward_v I I I I #
face $-1 $36 $37 $13 $-1 $38 forward single #
loop $-1 $-1 $39 $17 #
plane-surface $-1 -28.637990178099301 66.424534059324273 127.83662503788383 1 0 0 0 -0.69465837861970381 -0.71933979245794832 forward_v I I I I #
face $-1 $40 $41 $14 $-1 $42 reversed single #
loop $-1 $43 $44 $18 #
cone-surface $-1 -23.794535311734883 23.922280555845855 7.1747054232679002 0 -0.69465837861970381 -0.71933979245794832 1 0 0 1 I I 0 1 1 forward I I I I #
face $-1 $45 $46 $15 $-1 $47 reversed single #
loop $-1 $48 $49 $19 #
cone-surface $-1 -16.529353012188245 23.922280555845855 7.1747054232679002 0 -0.69465837861970381 -0.71933979245794832 1 0 0 1 I I 0 1 1 forward I I I I #
face $-1 $50 $51 $12 $-1 $52 reversed single #
loop $-1 $-1 $53 $20 #
plane-surface $-1 0 0 -14.72971810146174 0 0 1 1 0 0 forward_v I I I I #
coedge $-1 $54 $55 $56 $57 forward $21 $-1 #
face $-1 $58 $59 $13 $-1 $60 forward single #
loop $-1 $-1 $61 $23 #
plane-surface $-1 -20.161944161961564 -13.911360171964844 44.646373164601343 0 0.69465837861970381 0.71933979245794832 1 0 0 forward_v I I I I #
coedge $-1 $62 $63 $64 $65 reversed $24 $-1 #
face $-1 $66 $67 $14 $-1 $68 forward single #
loop $-1 $69 $70 $26 #
cone-surface $-1 -23.794535311734883 23.107164127745968 6.3306276718650967 0 -0.69465837861970381 -0.71933979245794832 0.5 0 0 1 I I -0.70710678118654746 0.70710678118654746 0.5 forward I I I I #
loop $-1 $-1 $71 $18 #
coedge $-1 $44 $44 $72 $73 reversed $27 $-1 #
face $-1 $74 $75 $15 $-1 $76 reversed single #
loop $-1 $77 $78 $29 #
cone-surface $-1 -16.529353012188245 23.107164127745968 6.3306276718650967 0 -0.69465837861970381 -0.71933979245794832 0.5 0 0 1 I I -0.70710678118654746 0.70710678118654746 0.5 forward I I I I #
loop $-1 $-1 $79 $19 #
coedge $-1 $49 $49 $80 $81 reversed $30 $-1 #
face $-1 $82 $83 $12 $-1 $84 reversed single #
loop $-1 $-1 $85 $32 #
plane-surface $-1 0 -31.711893259477577 0 0 1 0 0 0 1 forward_v I I I I #
coedge $-1 $86 $87 $88 $89 forward $33 $-1 #
coedge $-1 $90 $35 $91 $92 forward $21 $-1 #
coedge $-1 $35 $90 $93 $94 forward $21 $-1 #
coedge $-1 $95 $96 $35 $57 reversed $97 $-1 #
edge $-1 $98 -31.711893259477577 $99 31.711893259477577 $56 $100 forward 7 unknown #
face $-1 $101 $102 $13 $-1 $103 forward single #
loop $-1 $-1 $104 $36 #
plane-surface $-1 -11.685898145823826 66.424534059324273 127.83662503788383 -1 0 0 0 0.69465837861970381 0.71933979245794832 forward_v I I I I #
coedge $-1 $105 $106 $107 $108 reversed $37 $-1 #
coedge $-1 $63 $39 $106 $109 forward $24 $-1 #
coedge $-1 $39 $62 $110 $111 reversed $24 $-1 #
coedge $-1 $112 $107 $39 $65 forward $102 $-1 #
edge $-1 $113 -16.14402469986792 $114 -1.5003737701845594 $64 $115 forward 7 unknown #
face $-1 $116 $117 $14 $-1 $118 forward single #
loop $-1 $-1 $119 $40 #
plane-surface $-1 -28.637990178099301 66.424534059324273 127.83662503788383 1 0 0 0 -0.69465837861970381 -0.71933979245794832 forward_v I I I I #
loop $-1 $-1 $120 $26 #
coedge $-1 $70 $70 $71 $121 forward $41 $-1 #
coedge $-1 $71 $71 $70 $121 reversed $43 $-1 #
coedge $-1 $72 $72 $44 $73 forward $117 $-1 #
edge $-1 $122 1.9386277394169668e-015 $122 6.2831853071796022 $72 $123 forward 7 unknown #
face $-1 $124 $125 $15 $-1 $126 reversed single #
loop $-1 $127 $128 $45 #
cone-surface $-1 -23.794535311734883 23.922280555845855 7.1747054232679002 0 -0.69465837861970381 -0.71933979245794832 1 0 0 1 I I 0 1 1 forward I I I I #
loop $-1 $-1 $129 $29 #
coedge $-1 $78 $78 $79 $130 forward $46 $-1 #
coedge $-1 $79 $79 $78 $130 reversed $48 $-1 #
coedge $-1 $80 $80 $49 $81 forward $131 $-1 #
edge $-1 $132 1.9386277394169668e-015 $132 6.2831853071796022 $80 $133 forward 7 unknown #
face $-1 $134 $135 $12 $-1 $136 reversed single #
loop $-1 $-1 $137 $50 #
plane-surface $-1 -57.824030274361398 0 0 1 0 0 0 0 -1 forward_v I I I I #
coedge $-1 $138 $93 $139 $140 forward $51 $-1 #
coedge $-1 $141 $53 $138 $142 forward $33 $-1 #
coedge $-1 $53 $141 $143 $144 forward $33 $-1 #
coedge $-1 $96 $95 $53 $89 reversed $97 $-1 #
edge $-1 $145 -31.711893259477577 $146 31.711893259477577 $88 $147 forward 7 unknown #
coedge $-1 $55 $54 $148 $149 forward $21 $-1 #
coedge $-1 $150 $151 $54 $92 reversed $135 $-1 #
edge $-1 $99 -57.824030274361398 $152 57.824030274361398 $91 $153 forward 7 unknown #
coedge $-1 $85 $154 $55 $94 reversed $51 $-1 #
edge $-1 $155 -57.824030274361398 $98 57.824030274361398 $93 $156 forward 7 unknown #
coedge $-1 $88 $56 $154 $157 forward $97 $-1 #
coedge $-1 $56 $88 $150 $158 reversed $97 $-1 #
loop $-1 $-1 $95 $134 #
vertex $-1 $57 $159 #
vertex $-1 $57 $160 #
straight-curve $-1 57.824030274361398 0 14.72971810146174 0 1 0 I I #
face $-1 $161 $162 $13 $-1 $163 reversed single #
loop $-1 $-1 $164 $58 #
plane-surface $-1 0 0 14.72971810146174 0 0 1 1 0 0 forward_v I I I I #
coedge $-1 $165 $166 $164 $167 reversed $59 $-1 #
coedge $-1 $168 $61 $166 $169 reversed $37 $-1 #
coedge $-1 $61 $168 $62 $109 reversed $37 $-1 #
coedge $-1 $64 $164 $61 $108 forward $102 $-1 #
edge $-1 $170 1.6049260648430437 $113 18.557018097118519 $107 $171 forward 7 unknown #
edge $-1 $113 43.06671593393061 $172 63.423786518955154 $62 $173 forward 7 unknown #
coedge $-1 $174 $175 $63 $111 forward $176 $-1 #
edge $-1 $114 49.188594417480175 $172 63.329804063520193 $110 $177 forward 7 unknown #
coedge $-1 $178 $64 $175 $179 forward $102 $-1 #
vertex $-1 $108 $180 #
vertex $-1 $179 $181 #
straight-curve $-1 -28.637990178099301 33.212267029662137 14.729718101461742 0 1 0 I I #
face $-1 $182 $183 $14 $-1 $184 forward single #
loop $-1 $185 $72 $66 #
plane-surface $-1 -20.161944161961564 -13.911360171964844 44.646373164601343 0 0.69465837861970381 0.71933979245794832 1 0 0 forward_v I I I I #
coedge $-1 $186 $187 $188 $189 reversed $67 $-1 #
coedge $-1 $120 $120 $-1 $190 forward $69 $-1 #
edge $-1 $191 0 $191 6.2831853071796004 $70 $192 forward 7 unknown #
vertex $-1 $73 $193 #
ellipse-curve $-1 -23.794535311734883 24.390067794635893 7.6591132784417306 0 -0.69465837861970381 -0.71933979245794832 1 0 0 1 I I #
face $-1 $194 $195 $15 $-1 $196 forward single #
loop $-1 $197 $198 $74 #
cone-surface $-1 -23.794535311734883 23.107164127745968 6.3306276718650967 0 -0.69465837861970381 -0.71933979245794832 0.5 0 0 1 I I -0.70710678118654746 0.70710678118654746 0.5 forward I I I I #
loop $-1 $-1 $199 $45 #
coedge $-1 $128 $128 $200 $201 reversed $75 $-1 #
coedge $-1 $129 $129 $-1 $202 forward $77 $-1 #
edge $-1 $203 0 $203 6.2831853071796004 $78 $204 forward 7 unknown #
loop $-1 $205 $80 $194 #
vertex $-1 $81 $206 #
ellipse-curve $-1 -16.529353012188245 24.390067794635893 7.6591132784417306 0 -0.69465837861970381 -0.71933979245794832 1 0 0 1 I I #
face $-1 $-1 $97 $12 $-1 $207 reversed single #
loop $-1 $-1 $150 $82 #
plane-surface $-1 0 31.711893259477577 0 0 -1 0 0 0 -1 forward_v I I I I #
coedge $-1 $208 $148 $151 $209 forward $83 $-1 #
coedge $-1 $154 $85 $86 $142 reversed $51 $-1 #
coedge $-1 $148 $208 $85 $140 reversed $83 $-1 #
edge $-1 $155 -14.72971810146174 $210 14.72971810146174 $139 $211 forward 7 unknown #
coedge $-1 $87 $86 $208 $212 forward $33 $-1 #
edge $-1 $146 -57.824030274361398 $210 57.824030274361398 $138 $213 forward 7 unknown #
coedge $-1 $151 $150 $87 $144 reversed $135 $-1 #
edge $-1 $214 -57.824030274361398 $145 57.824030274361398 $143 $215 forward 7 unknown #
vertex $-1 $89 $216 #
vertex $-1 $157 $217 #
straight-curve $-1 57.824030274361398 0 -14.72971810146174 0 -1 0 I I #
coedge $-1 $137 $139 $90 $149 reversed $83 $-1 #
edge $-1 $152 -31.711893259477577 $155 31.711893259477577 $148 $218 forward 7 unknown #
coedge $-1 $143 $91 $96 $158 forward $135 $-1 #
coedge $-1 $91 $143 $137 $209 reversed $135 $-1 #
vertex $-1 $92 $219 #
straight-curve $-1 0 31.711893259477577 14.72971810146174 -1 0 0 I I #
coedge $-1 $93 $138 $95 $157 reversed $51 $-1 #
vertex $-1 $149 $220 #
straight-curve $-1 0 -31.711893259477577 14.72971810146174 1 0 0 I I #
edge $-1 $98 -14.72971810146174 $146 14.72971810146174 $95 $221 forward 7 unknown #
edge $-1 $99 -14.72971810146174 $145 14.72971810146174 $96 $222 forward 7 unknown #
point $-1 57.824030274361398 -31.711893259477577 14.72971810146174 #
point $-1 57.824030274361398 31.711893259477577 14.72971810146174 #
face $-1 $223 $224 $13 $-1 $225 reversed single #
loop $-1 $-1 $226 $101 #
plane-surface $-1 0 0 -14.72971810146174 0 0 1 1 0 0 forward_v I I I I #
coedge $-1 $107 $227 $104 $167 forward $102 $-1 #
coedge $-1 $166 $104 $228 $229 reversed $59 $-1 #
coedge $-1 $104 $165 $105 $169 forward $59 $-1 #
edge $-1 $230 1.5003737701845594 $170 16.14402469986792 $164 $231 forward 7 unknown #
coedge $-1 $106 $105 $174 $232 reversed $37 $-1 #
edge $-1 $233 -63.423786518955154 $170 -43.06671593393061 $166 $234 forward 7 unknown #
vertex $-1 $108 $235 #
straight-curve $-1 -10.080972080980782 17.068242329794217 14.729718101461742 -1 0 0 I I #
vertex $-1 $232 $236 #
straight-curve $-1 -28.637990178099301 -13.911360171964844 44.646373164601343 0 0.71933979245794832 -0.69465837861970381 I I #
coedge $-1 $228 $110 $168 $232 forward $176 $-1 #
coedge $-1 $110 $237 $112 $179 reversed $176 $-1 #
loop $-1 $-1 $228 $238 #
straight-curve $-1 -28.637990178099301 31.711893259477577 63.918312518941917 0 0 -1 I I #
coedge $-1 $239 $112 $240 $241 forward $102 $-1 #
edge $-1 $114 28.637990178099301 $242 57.824030274361398 $175 $243 forward 7 unknown #
point $-1 -28.637990178099301 17.068242329794217 14.729718101461742 #
point $-1 -28.637990178099301 31.711893259477577 14.72971810146174 #
face $-1 $244 $245 $14 $-1 $246 forward single #
loop $-1 $-1 $247 $116 #
plane-surface $-1 -11.685898145823826 66.424534059324273 127.83662503788383 -1 0 0 0 0.69465837861970381 0.71933979245794832 forward_v I I I I #
loop $-1 $-1 $248 $66 #
coedge $-1 $187 $119 $249 $250 forward $67 $-1 #
coedge $-1 $119 $186 $251 $252 reversed $67 $-1 #
coedge $-1 $253 $254 $119 $189 forward $245 $-1 #
edge $-1 $255 -16.14402469986792 $256 -1.5003737701845594 $188 $257 forward 7 unknown #
edge $-1 $258 1 $258 0 $120 $-1 forward 7 unknown #
vertex $-1 $121 $259 #
ellipse-curve $-1 -23.794535311734883 23.454493317055821 6.6902975680940706 0 0.69465837861970381 0.71933979245794832 1 0 0 1 I I #
point $-1 -22.794535311734883 24.39006779463589 7.6591132784417297 #
face $-1 $260 $131 $15 $-1 $261 forward single #
loop $-1 $-1 $262 $124 #
plane-surface $-1 -28.637990178099301 66.424534059324273 127.83662503788383 1 0 0 0 -0.69465837861970381 -0.71933979245794832 forward_v I I I I #
loop $-1 $-1 $263 $74 #
coedge $-1 $198 $198 $199 $264 forward $125 $-1 #
coedge $-1 $199 $199 $198 $264 reversed $127 $-1 #
coedge $-1 $200 $200 $128 $201 forward $205 $-1 #
edge $-1 $265 1.9386277394169668e-015 $265 6.2831853071796022 $200 $266 forward 7 unknown #
edge $-1 $267 1 $267 0 $129 $-1 forward 7 unknown #
vertex $-1 $130 $268 #
ellipse-curve $-1 -16.529353012188245 23.454493317055821 6.6902975680940706 0 0.69465837861970381 0.71933979245794832 1 0 0 1 I I #
loop $-1 $269 $200 $194 #
point $-1 -15.529353012188245 24.39006779463589 7.6591132784417297 #
plane-surface $-1 57.824030274361398 0 0 -1 0 0 0 0 1 forward_v I I I I #
coedge $-1 $139 $137 $141 $212 reversed $83 $-1 #
edge $-1 $152 -14.72971810146174 $214 14.72971810146174 $151 $270 forward 7 unknown #
vertex $-1 $212 $271 #
straight-curve $-1 -57.824030274361398 -31.711893259477577 0 0 0 -1 I I #
edge $-1 $210 -31.711893259477577 $214 31.711893259477577 $208 $272 forward 7 unknown #
straight-curve $-1 0 -31.711893259477577 -14.72971810146174 -1 0 0 I I #
vertex $-1 $144 $273 #
straight-curve $-1 0 31.711893259477577 -14.72971810146174 1 0 0 I I #
point $-1 57.824030274361398 31.711893259477577 -14.72971810146174 #
point $-1 57.824030274361398 -31.711893259477577 -14.72971810146174 #
straight-curve $-1 -57.824030274361398 0 14.72971810146174 0 -1 0 I I #
point $-1 -57.824030274361398 31.711893259477577 14.72971810146174 #
point $-1 -57.824030274361398 -31.711893259477577 14.72971810146174 #
straight-curve $-1 57.824030274361398 -31.711893259477577 0 0 0 -1 I I #
straight-curve $-1 57.824030274361398 31.711893259477577 0 0 0 -1 I I #
face $-1 $238 $274 $13 $-1 $275 reversed single #
loop $-1 $-1 $276 $161 #
plane-surface $-1 0 -31.711893259477577 0 0 1 0 0 0 1 forward_v I I I I #
coedge $-1 $277 $278 $279 $280 forward $162 $-1 #
coedge $-1 $164 $281 $282 $283 forward $102 $-1 #
coedge $-1 $282 $174 $165 $229 forward $176 $-1 #
edge $-1 $233 -63.329804063520193 $230 -49.188594417480175 $228 $284 forward 7 unknown #
vertex $-1 $229 $285 #
straight-curve $-1 -11.685898145823826 33.212267029662137 14.729718101461742 0 -1 0 I I #
edge $-1 $172 -18.557018097118519 $233 -1.6049260648430437 $174 $286 forward 7 unknown #
vertex $-1 $232 $287 #
straight-curve $-1 -11.685898145823826 -13.911360171964844 44.646373164601343 0 -0.71933979245794832 0.69465837861970381 I I #
point $-1 -11.685898145823826 17.068242329794217 14.729718101461742 #
point $-1 -28.637990178099301 31.711893259477577 0.58850845542172436 #
coedge $-1 $175 $288 $289 $290 reversed $176 $-1 #
face $-1 $291 $176 $13 $-1 $292 reversed single #
coedge $-1 $281 $178 $293 $294 forward $102 $-1 #
coedge $-1 $289 $295 $178 $241 reversed $274 $-1 #
edge $-1 $242 -31.711893259477577 $296 31.711893259477577 $240 $297 forward 7 unknown #
vertex $-1 $179 $298 #
straight-curve $-1 0 31.711893259477577 14.72971810146174 -1 0 0 I I #
face $-1 $299 $300 $14 $-1 $301 reversed single #
loop $-1 $-1 $302 $182 #
plane-surface $-1 0 0 14.72971810146174 0 0 1 1 0 0 forward_v I I I I #
coedge $-1 $303 $304 $302 $305 reversed $183 $-1 #
coedge $-1 $306 $249 $254 $307 reversed $185 $-1 #
coedge $-1 $248 $308 $186 $250 reversed $185 $-1 #
edge $-1 $255 43.06671593393061 $309 63.423786518955154 $186 $310 forward 7 unknown #
coedge $-1 $311 $312 $187 $252 forward $313 $-1 #
edge $-1 $256 49.188594417480175 $309 63.329804063520193 $251 $314 forward 7 unknown #
coedge $-1 $315 $188 $312 $316 forward $245 $-1 #
coedge $-1 $188 $302 $248 $307 forward $245 $-1 #
vertex $-1 $307 $317 #
vertex $-1 $316 $318 #
straight-curve $-1 -28.637990178099301 33.212267029662137 14.729718101461742 0 1 0 I I #
vertex $-1 $190 $319 #
point $-1 -22.794535311734883 23.454493317055821 6.6902975680940706 #
face $-1 $320 $321 $15 $-1 $322 forward single #
plane-surface $-1 -20.161944161961564 -13.911360171964844 44.646373164601343 0 0.69465837861970381 0.71933979245794832 1 0 0 forward_v I I I I #
coedge $-1 $323 $324 $325 $326 reversed $195 $-1 #
coedge $-1 $263 $263 $-1 $327 forward $197 $-1 #
edge $-1 $328 0 $328 6.2831853071796004 $198 $329 forward 7 unknown #
vertex $-1 $201 $330 #
ellipse-curve $-1 -23.794535311734883 24.390067794635893 7.6591132784417306 0 -0.69465837861970381 -0.71933979245794832 1 0 0 1 I I #
vertex $-1 $202 $331 #
point $-1 -15.529353012188245 23.454493317055821 6.6902975680940706 #
loop $-1 $-1 $332 $194 #
straight-curve $-1 -57.824030274361398 31.711893259477577 0 0 0 -1 I I #
point $-1 -57.824030274361398 -31.711893259477577 -14.72971810146174 #
straight-curve $-1 -57.824030274361398 0 -14.72971810146174 0 1 0 I I #
point $-1 -57.824030274361398 31.711893259477577 -14.72971810146174 #
loop $-1 $-1 $289 $223 #
plane-surface $-1 -57.824030274361398 0 0 1 0 0 0 0 -1 forward_v I I I I #
coedge $-1 $333 $293 $295 $334 forward $224 $-1 #
coedge $-1 $335 $226 $333 $336 forward $162 $-1 #
coedge $-1 $226 $335 $288 $337 forward $162 $-1 #
coedge $-1 $338 $339 $226 $280 reversed $340 $-1 #
edge $-1 $341 -31.711893259477577 $342 31.711893259477577 $279 $343 forward 7 unknown #
coedge $-1 $227 $239 $344 $345 forward $102 $-1 #
coedge $-1 $346 $228 $227 $283 reversed $176 $-1 #
edge $-1 $347 -57.824030274361398 $230 11.685898145823826 $282 $243 forward 7 unknown #
straight-curve $-1 -11.685898145823826 31.711893259477577 63.918312518941917 0 0 1 I I #
point $-1 -11.685898145823826 31.711893259477577 14.72971810146174 #
straight-curve $-1 -10.080972080980782 31.711893259477577 0.58850845542172792 1 0 0 I I #
point $-1 -11.685898145823826 31.711893259477577 0.58850845542172436 #
coedge $-1 $237 $346 $278 $337 reversed $176 $-1 #
coedge $-1 $348 $240 $237 $290 forward $274 $-1 #
edge $-1 $242 -14.72971810146174 $349 14.72971810146174 $237 $350 forward 7 unknown #
face $-1 $-1 $340 $13 $-1 $351 reversed single #
plane-surface $-1 0 31.711893259477577 0 0 -1 0 0 0 -1 forward_v I I I I #
coedge $-1 $276 $352 $239 $294 reversed $224 $-1 #
edge $-1 $296 -57.824030274361398 $353 57.824030274361398 $293 $354 forward 7 unknown #
coedge $-1 $240 $348 $276 $334 reversed $274 $-1 #
vertex $-1 $241 $355 #
straight-curve $-1 -57.824030274361398 0 14.72971810146174 0 -1 0 I I #
point $-1 -57.824030274361398 31.711893259477577 14.72971810146174 #
face $-1 $356 $357 $14 $-1 $358 reversed single #
loop $-1 $-1 $359 $244 #
plane-surface $-1 0 0 -14.72971810146174 0 0 1 1 0 0 forward_v I I I I #
coedge $-1 $254 $360 $247 $305 forward $245 $-1 #
coedge $-1 $304 $247 $361 $362 reversed $183 $-1 #
coedge $-1 $247 $303 $306 $363 forward $183 $-1 #
edge $-1 $364 1.5003737701845594 $365 16.14402469986792 $302 $366 forward 7 unknown #
coedge $-1 $308 $248 $304 $363 reversed $185 $-1 #
edge $-1 $365 1.6049260648430437 $255 18.557018097118519 $254 $367 forward 7 unknown #
coedge $-1 $249 $306 $311 $368 reversed $185 $-1 #
vertex $-1 $368 $369 #
straight-curve $-1 -28.637990178099301 -13.911360171964844 44.646373164601343 0 0.71933979245794832 -0.69465837861970381 I I #
coedge $-1 $361 $251 $308 $368 forward $313 $-1 #
coedge $-1 $251 $370 $253 $316 reversed $313 $-1 #
loop $-1 $-1 $361 $371 #
straight-curve $-1 -28.637990178099301 31.711893259477577 63.918312518941917 0 0 -1 I I #
coedge $-1 $372 $253 $373 $374 forward $245 $-1 #
edge $-1 $256 28.637990178099301 $375 57.824030274361398 $312 $376 forward 7 unknown #
point $-1 -28.637990178099301 17.068242329794217 14.729718101461742 #
point $-1 -28.637990178099301 31.711893259477577 14.72971810146174 #
point $-1 -23.794535311734883 22.759834938436114 5.9709577756361227 #
face $-1 $377 $378 $15 $-1 $379 forward single #
loop $-1 $-1 $380 $260 #
plane-surface $-1 -11.685898145823826 66.424534059324273 127.83662503788383 -1 0 0 0 0.69465837861970381 0.71933979245794832 forward_v I I I I #
coedge $-1 $324 $262 $381 $382 forward $195 $-1 #
coedge $-1 $262 $323 $383 $384 reversed $195 $-1 #
coedge $-1 $385 $386 $262 $326 forward $378 $-1 #
edge $-1 $387 -16.14402469986792 $388 -1.5003737701845594 $325 $389 forward 7 unknown #
edge $-1 $390 1 $390 0 $263 $-1 forward 7 unknown #
vertex $-1 $264 $391 #
ellipse-curve $-1 -23.794535311734883 23.454493317055821 6.6902975680940706 0 0.69465837861970381 0.71933979245794832 1 0 0 1 I I #
point $-1 -22.794535311734883 24.39006779463589 7.6591132784417297 #
point $-1 -16.529353012188245 22.759834938436114 5.9709577756361227 #
coedge $-1 $392 $381 $386 $393 reversed $269 $-1 #
coedge $-1 $352 $276 $277 $336 reversed $224 $-1 #
edge $-1 $296 -14.72971810146174 $394 14.72971810146174 $295 $395 forward 7 unknown #
coedge $-1 $278 $277 $348 $396 forward $162 $-1 #
edge $-1 $342 -57.824030274361398 $394 57.824030274361398 $333 $397 forward 7 unknown #
edge $-1 $349 -57.824030274361398 $341 57.824030274361398 $288 $398 forward 7 unknown #
coedge $-1 $344 $279 $346 $399 reversed $340 $-1 #
coedge $-1 $279 $344 $352 $400 forward $340 $-1 #
loop $-1 $-1 $339 $291 #
vertex $-1 $280 $401 #
vertex $-1 $400 $402 #
straight-curve $-1 57.824030274361398 0 -14.72971810146174 0 -1 0 I I #
coedge $-1 $339 $338 $281 $345 reversed $340 $-1 #
edge $-1 $353 -31.711893259477577 $347 31.711893259477577 $344 $403 forward 7 unknown #
coedge $-1 $288 $282 $338 $399 forward $176 $-1 #
vertex $-1 $345 $404 #
coedge $-1 $295 $289 $335 $396 reversed $274 $-1 #
vertex $-1 $337 $405 #
straight-curve $-1 -57.824030274361398 31.711893259477577 0 0 0 -1 I I #
plane-surface $-1 57.824030274361398 0 0 -1 0 0 0 0 1 forward_v I I I I #
coedge $-1 $293 $333 $339 $400 reversed $224 $-1 #
vertex $-1 $345 $406 #
straight-curve $-1 0 -31.711893259477577 14.72971810146174 1 0 0 I I #
point $-1 -57.824030274361398 -31.711893259477577 14.72971810146174 #
face $-1 $371 $407 $14 $-1 $408 reversed single #
loop $-1 $-1 $409 $299 #
plane-surface $-1 0 -31.711893259477577 0 0 1 0 0 0 1 forward_v I I I I #
coedge $-1 $410 $411 $412 $413 forward $300 $-1 #
coedge $-1 $302 $414 $415 $416 forward $245 $-1 #
coedge $-1 $415 $311 $303 $362 forward $313 $-1 #
edge $-1 $417 -63.329804063520193 $364 -49.188594417480175 $361 $418 forward 7 unknown #
edge $-1 $417 -63.423786518955154 $365 -43.06671593393061 $304 $419 forward 7 unknown #
vertex $-1 $362 $420 #
vertex $-1 $307 $421 #
straight-curve $-1 -11.685898145823826 33.212267029662137 14.729718101461742 0 -1 0 I I #
straight-curve $-1 -10.080972080980782 17.068242329794217 14.729718101461742 -1 0 0 I I #
edge $-1 $309 -18.557018097118519 $417 -1.6049260648430437 $311 $422 forward 7 unknown #
point $-1 -28.637990178099301 31.711893259477577 0.58850845542172436 #
coedge $-1 $312 $423 $424 $425 reversed $313 $-1 #
face $-1 $426 $313 $14 $-1 $427 reversed single #
coedge $-1 $414 $315 $428 $429 forward $245 $-1 #
coedge $-1 $424 $430 $315 $374 reversed $407 $-1 #
edge $-1 $375 -31.711893259477577 $431 31.711893259477577 $373 $432 forward 7 unknown #
vertex $-1 $316 $433 #
straight-curve $-1 0 31.711893259477577 14.72971810146174 -1 0 0 I I #
face $-1 $434 $435 $15 $-1 $436 reversed single #
loop $-1 $-1 $437 $320 #
plane-surface $-1 0 0 14.72971810146174 0 0 1 1 0 0 forward_v I I I I #
coedge $-1 $438 $439 $437 $440 reversed $321 $-1 #
coedge $-1 $332 $441 $323 $382 reversed $269 $-1 #
edge $-1 $387 43.06671593393061 $442 63.423786518955154 $323 $443 forward 7 unknown #
coedge $-1 $444 $445 $324 $384 forward $446 $-1 #
edge $-1 $388 49.188594417480175 $442 63.329804063520193 $383 $447 forward 7 unknown #
coedge $-1 $448 $325 $445 $449 forward $378 $-1 #
coedge $-1 $325 $437 $332 $393 forward $378 $-1 #
vertex $-1 $393 $450 #
vertex $-1 $449 $451 #
straight-curve $-1 -28.637990178099301 33.212267029662137 14.729718101461742 0 1 0 I I #
vertex $-1 $327 $452 #
point $-1 -22.794535311734883 23.454493317055821 6.6902975680940706 #
coedge $-1 $441 $332 $439 $453 reversed $269 $-1 #
edge $-1 $454 1.6049260648430437 $387 18.557018097118519 $386 $455 forward 7 unknown #
vertex $-1 $396 $456 #
straight-curve $-1 -57.824030274361398 -31.711893259477577 0 0 0 -1 I I #
edge $-1 $394 -31.711893259477577 $349 31.711893259477577 $348 $457 forward 7 unknown #
straight-curve $-1 0 -31.711893259477577 -14.72971810146174 -1 0 0 I I #
straight-curve $-1 0 31.711893259477577 -14.72971810146174 1 0 0 I I #
edge $-1 $347 -14.72971810146174 $341 14.72971810146174 $338 $458 forward 7 unknown #
edge $-1 $353 -14.72971810146174 $342 14.72971810146174 $339 $459 forward 7 unknown #
point $-1 57.824030274361398 31.711893259477577 -14.72971810146174 #
point $-1 57.824030274361398 -31.711893259477577 -14.72971810146174 #
straight-curve $-1 57.824030274361398 0 14.72971810146174 0 1 0 I I #
point $-1 57.824030274361398 31.711893259477577 14.72971810146174 #
point $-1 -57.824030274361398 31.711893259477577 -14.72971810146174 #
point $-1 57.824030274361398 -31.711893259477577 14.72971810146174 #
loop $-1 $-1 $424 $356 #
plane-surface $-1 -57.824030274361398 0 0 1 0 0 0 0 -1 forward_v I I I I #
coedge $-1 $460 $428 $430 $461 forward $357 $-1 #
coedge $-1 $462 $359 $460 $463 forward $300 $-1 #
coedge $-1 $359 $462 $423 $464 forward $300 $-1 #
coedge $-1 $465 $466 $359 $413 reversed $467 $-1 #
edge $-1 $468 -31.711893259477577 $469 31.711893259477577 $412 $470 forward 7 unknown #
coedge $-1 $360 $372 $471 $472 forward $245 $-1 #
coedge $-1 $473 $361 $360 $416 reversed $313 $-1 #
edge $-1 $474 -57.824030274361398 $364 11.685898145823826 $415 $376 forward 7 unknown #
vertex $-1 $368 $475 #
straight-curve $-1 -11.685898145823826 31.711893259477577 63.918312518941917 0 0 1 I I #
straight-curve $-1 -11.685898145823826 -13.911360171964844 44.646373164601343 0 -0.71933979245794832 0.69465837861970381 I I #
point $-1 -11.685898145823826 31.711893259477577 14.72971810146174 #
point $-1 -11.685898145823826 17.068242329794217 14.729718101461742 #
straight-curve $-1 -10.080972080980782 31.711893259477577 0.58850845542172792 1 0 0 I I #
coedge $-1 $370 $473 $411 $464 reversed $313 $-1 #
coedge $-1 $476 $373 $370 $425 forward $407 $-1 #
edge $-1 $375 -14.72971810146174 $477 14.72971810146174 $370 $478 forward 7 unknown #
face $-1 $-1 $467 $14 $-1 $479 reversed single #
plane-surface $-1 0 31.711893259477577 0 0 -1 0 0 0 -1 forward_v I I I I #
coedge $-1 $409 $480 $372 $429 reversed $357 $-1 #
edge $-1 $431 -57.824030274361398 $481 57.824030274361398 $428 $482 forward 7 unknown #
coedge $-1 $373 $476 $409 $461 reversed $407 $-1 #
vertex $-1 $374 $483 #
straight-curve $-1 -57.824030274361398 0 14.72971810146174 0 -1 0 I I #
point $-1 -57.824030274361398 31.711893259477577 14.72971810146174 #
face $-1 $484 $485 $15 $-1 $486 reversed single #
loop $-1 $-1 $487 $377 #
plane-surface $-1 0 0 -14.72971810146174 0 0 1 1 0 0 forward_v I I I I #
coedge $-1 $386 $488 $380 $440 forward $378 $-1 #
coedge $-1 $439 $380 $489 $490 reversed $321 $-1 #
coedge $-1 $380 $438 $392 $453 forward $321 $-1 #
edge $-1 $491 1.5003737701845594 $454 16.14402469986792 $437 $492 forward 7 unknown #
coedge $-1 $381 $392 $444 $493 reversed $269 $-1 #
vertex $-1 $493 $494 #
straight-curve $-1 -28.637990178099301 -13.911360171964844 44.646373164601343 0 0.71933979245794832 -0.69465837861970381 I I #
coedge $-1 $489 $383 $441 $493 forward $446 $-1 #
coedge $-1 $383 $495 $385 $449 reversed $446 $-1 #
loop $-1 $-1 $489 $496 #
straight-curve $-1 -28.637990178099301 31.711893259477577 63.918312518941917 0 0 -1 I I #
coedge $-1 $497 $385 $498 $499 forward $378 $-1 #
edge $-1 $388 28.637990178099301 $500 57.824030274361398 $445 $501 forward 7 unknown #
point $-1 -28.637990178099301 17.068242329794217 14.729718101461742 #
point $-1 -28.637990178099301 31.711893259477577 14.72971810146174 #
point $-1 -23.794535311734883 22.759834938436114 5.9709577756361227 #
edge $-1 $502 -63.423786518955154 $454 -43.06671593393061 $439 $503 forward 7 unknown #
vertex $-1 $393 $504 #
straight-curve $-1 -10.080972080980782 17.068242329794217 14.729718101461742 -1 0 0 I I #
point $-1 -57.824030274361398 -31.711893259477577 -14.72971810146174 #
straight-curve $-1 -57.824030274361398 0 -14.72971810146174 0 1 0 I I #
straight-curve $-1 57.824030274361398 31.711893259477577 0 0 0 -1 I I #
straight-curve $-1 57.824030274361398 -31.711893259477577 0 0 0 -1 I I #
coedge $-1 $480 $409 $410 $463 reversed $357 $-1 #
edge $-1 $431 -14.72971810146174 $505 14.72971810146174 $430 $506 forward 7 unknown #
coedge $-1 $411 $410 $476 $507 forward $300 $-1 #
edge $-1 $469 -57.824030274361398 $505 57.824030274361398 $460 $508 forward 7 unknown #
edge $-1 $477 -57.824030274361398 $468 57.824030274361398 $423 $509 forward 7 unknown #
coedge $-1 $471 $412 $473 $510 reversed $467 $-1 #
coedge $-1 $412 $471 $480 $511 forward $467 $-1 #
loop $-1 $-1 $466 $426 #
vertex $-1 $413 $512 #
vertex $-1 $511 $513 #
straight-curve $-1 57.824030274361398 0 -14.72971810146174 0 -1 0 I I #
coedge $-1 $466 $465 $414 $472 reversed $467 $-1 #
edge $-1 $481 -31.711893259477577 $474 31.711893259477577 $471 $514 forward 7 unknown #
coedge $-1 $423 $415 $465 $510 forward $313 $-1 #
vertex $-1 $472 $515 #
point $-1 -11.685898145823826 31.711893259477577 0.58850845542172436 #
coedge $-1 $430 $424 $462 $507 reversed $407 $-1 #
vertex $-1 $464 $516 #
straight-curve $-1 -57.824030274361398 31.711893259477577 0 0 0 -1 I I #
plane-surface $-1 57.824030274361398 0 0 -1 0 0 0 0 1 forward_v I I I I #
coedge $-1 $428 $460 $466 $511 reversed $357 $-1 #
vertex $-1 $472 $517 #
straight-curve $-1 0 -31.711893259477577 14.72971810146174 1 0 0 I I #
point $-1 -57.824030274361398 -31.711893259477577 14.72971810146174 #
face $-1 $496 $518 $15 $-1 $519 reversed single #
loop $-1 $-1 $520 $434 #
plane-surface $-1 0 -31.711893259477577 0 0 1 0 0 0 1 forward_v I I I I #
coedge $-1 $521 $522 $523 $524 forward $435 $-1 #
coedge $-1 $437 $525 $526 $527 forward $378 $-1 #
coedge $-1 $526 $444 $438 $490 forward $446 $-1 #
edge $-1 $502 -63.329804063520193 $491 -49.188594417480175 $489 $528 forward 7 unknown #
vertex $-1 $490 $529 #
straight-curve $-1 -11.685898145823826 33.212267029662137 14.729718101461742 0 -1 0 I I #
edge $-1 $442 -18.557018097118519 $502 -1.6049260648430437 $444 $530 forward 7 unknown #
point $-1 -28.637990178099301 31.711893259477577 0.58850845542172436 #
coedge $-1 $445 $531 $532 $533 reversed $446 $-1 #
face $-1 $534 $446 $15 $-1 $535 reversed single #
coedge $-1 $525 $448 $536 $537 forward $378 $-1 #
coedge $-1 $532 $538 $448 $499 reversed $518 $-1 #
edge $-1 $500 -31.711893259477577 $539 31.711893259477577 $498 $540 forward 7 unknown #
vertex $-1 $449 $541 #
straight-curve $-1 0 31.711893259477577 14.72971810146174 -1 0 0 I I #
vertex $-1 $493 $542 #
straight-curve $-1 -11.685898145823826 -13.911360171964844 44.646373164601343 0 -0.71933979245794832 0.69465837861970381 I I #
point $-1 -11.685898145823826 17.068242329794217 14.729718101461742 #
vertex $-1 $507 $543 #
straight-curve $-1 -57.824030274361398 -31.711893259477577 0 0 0 -1 I I #
edge $-1 $505 -31.711893259477577 $477 31.711893259477577 $476 $544 forward 7 unknown #
straight-curve $-1 0 -31.711893259477577 -14.72971810146174 -1 0 0 I I #
straight-curve $-1 0 31.711893259477577 -14.72971810146174 1 0 0 I I #
edge $-1 $474 -14.72971810146174 $468 14.72971810146174 $465 $545 forward 7 unknown #
edge $-1 $481 -14.72971810146174 $469 14.72971810146174 $466 $546 forward 7 unknown #
point $-1 57.824030274361398 31.711893259477577 -14.72971810146174 #
point $-1 57.824030274361398 -31.711893259477577 -14.72971810146174 #
straight-curve $-1 57.824030274361398 0 14.72971810146174 0 1 0 I I #
point $-1 57.824030274361398 31.711893259477577 14.72971810146174 #
point $-1 -57.824030274361398 31.711893259477577 -14.72971810146174 #
point $-1 57.824030274361398 -31.711893259477577 14.72971810146174 #
loop $-1 $-1 $532 $484 #
plane-surface $-1 -57.824030274361398 0 0 1 0 0 0 0 -1 forward_v I I I I #
coedge $-1 $547 $536 $538 $548 forward $485 $-1 #
coedge $-1 $549 $487 $547 $550 forward $435 $-1 #
coedge $-1 $487 $549 $531 $551 forward $435 $-1 #
coedge $-1 $552 $553 $487 $524 reversed $554 $-1 #
edge $-1 $555 -31.711893259477577 $556 31.711893259477577 $523 $557 forward 7 unknown #
coedge $-1 $488 $497 $558 $559 forward $378 $-1 #
coedge $-1 $560 $489 $488 $527 reversed $446 $-1 #
edge $-1 $561 -57.824030274361398 $491 11.685898145823826 $526 $501 forward 7 unknown #
straight-curve $-1 -11.685898145823826 31.711893259477577 63.918312518941917 0 0 1 I I #
point $-1 -11.685898145823826 31.711893259477577 14.72971810146174 #
straight-curve $-1 -10.080972080980782 31.711893259477577 0.58850845542172792 1 0 0 I I #
coedge $-1 $495 $560 $522 $551 reversed $446 $-1 #
coedge $-1 $562 $498 $495 $533 forward $518 $-1 #
edge $-1 $500 -14.72971810146174 $563 14.72971810146174 $495 $564 forward 7 unknown #
face $-1 $-1 $554 $15 $-1 $565 reversed single #
plane-surface $-1 0 31.711893259477577 0 0 -1 0 0 0 -1 forward_v I I I I #
coedge $-1 $520 $566 $497 $537 reversed $485 $-1 #
edge $-1 $539 -57.824030274361398 $567 57.824030274361398 $536 $568 forward 7 unknown #
coedge $-1 $498 $562 $520 $548 reversed $518 $-1 #
vertex $-1 $499 $569 #
straight-curve $-1 -57.824030274361398 0 14.72971810146174 0 -1 0 I I #
point $-1 -57.824030274361398 31.711893259477577 14.72971810146174 #
point $-1 -11.685898145823826 31.711893259477577 0.58850845542172436 #
point $-1 -57.824030274361398 -31.711893259477577 -14.72971810146174 #
straight-curve $-1 -57.824030274361398 0 -14.72971810146174 0 1 0 I I #
straight-curve $-1 57.824030274361398 31.711893259477577 0 0 0 -1 I I #
straight-curve $-1 57.824030274361398 -31.711893259477577 0 0 0 -1 I I #
coedge $-1 $566 $520 $521 $550 reversed $485 $-1 #
edge $-1 $539 -14.72971810146174 $570 14.72971810146174 $538 $571 forward 7 unknown #
coedge $-1 $522 $521 $562 $572 forward $435 $-1 #
edge $-1 $556 -57.824030274361398 $570 57.824030274361398 $547 $573 forward 7 unknown #
edge $-1 $563 -57.824030274361398 $555 57.824030274361398 $531 $574 forward 7 unknown #
coedge $-1 $558 $523 $560 $575 reversed $554 $-1 #
coedge $-1 $523 $558 $566 $576 forward $554 $-1 #
loop $-1 $-1 $553 $534 #
vertex $-1 $524 $577 #
vertex $-1 $576 $578 #
straight-curve $-1 57.824030274361398 0 -14.72971810146174 0 -1 0 I I #
coedge $-1 $553 $552 $525 $559 reversed $554 $-1 #
edge $-1 $567 -31.711893259477577 $561 31.711893259477577 $558 $579 forward 7 unknown #
coedge $-1 $531 $526 $552 $575 forward $446 $-1 #
vertex $-1 $559 $580 #
coedge $-1 $538 $532 $549 $572 reversed $518 $-1 #
vertex $-1 $551 $581 #
straight-curve $-1 -57.824030274361398 31.711893259477577 0 0 0 -1 I I #
plane-surface $-1 57.824030274361398 0 0 -1 0 0 0 0 1 forward_v I I I I #
coedge $-1 $536 $547 $553 $576 reversed $485 $-1 #
vertex $-1 $559 $582 #
straight-curve $-1 0 -31.711893259477577 14.72971810146174 1 0 0 I I #
point $-1 -57.824030274361398 -31.711893259477577 14.72971810146174 #
vertex $-1 $572 $583 #
straight-curve $-1 -57.824030274361398 -31.711893259477577 0 0 0 -1 I I #
edge $-1 $570 -31.711893259477577 $563 31.711893259477577 $562 $584 forward 7 unknown #
straight-curve $-1 0 -31.711893259477577 -14.72971810146174 -1 0 0 I I #
straight-curve $-1 0 31.711893259477577 -14.72971810146174 1 0 0 I I #
edge $-1 $561 -14.72971810146174 $555 14.72971810146174 $552 $585 forward 7 unknown #
edge $-1 $567 -14.72971810146174 $556 14.72971810146174 $553 $586 forward 7 unknown #
point $-1 57.824030274361398 31.711893259477577 -14.72971810146174 #
point $-1 57.824030274361398 -31.711893259477577 -14.72971810146174 #
straight-curve $-1 57.824030274361398 0 14.72971810146174 0 1 0 I I #
point $-1 57.824030274361398 31.711893259477577 14.72971810146174 #
point $-1 -57.824030274361398 31.711893259477577 -14.72971810146174 #
point $-1 57.824030274361398 -31.711893259477577 14.72971810146174 #
point $-1 -57.824030274361398 -31.711893259477577 -14.72971810146174 #
straight-curve $-1 -57.824030274361398 0 -14.72971810146174 0 1 0 I I #
straight-curve $-1 57.824030274361398 31.711893259477577 0 0 0 -1 I I #
straight-curve $-1 57.824030274361398 -31.711893259477577 0 0 0 -1 I I #
End-of-ACIS-data 