500 0 5 0           
7 Unknown 11 ACIS 5.0 NT 24 Fri Mar 26 00:09:01 1999 
-1 9.9999999999999995e-007 1e-010 
body $-1 $5 $-1 $6 #
body $-1 $7 $-1 $8 #
body $-1 $9 $-1 $10 #
body $-1 $11 $-1 $12 #
body $-1 $13 $-1 $14 #
lump $-1 $-1 $15 $0 #
transform $-1 1 0 0 0 1 0 0 0 1 54.644001586962489 32.054634605049003 13.675678881946563 1 rotate no_reflect no_shear #
lump $-1 $-1 $16 $1 #
transform $-1 1 0 0 0 1 0 0 0 1 54.644001586962489 32.054634605049003 13.675678881946563 1 rotate no_reflect no_shear #
lump $-1 $-1 $17 $2 #
transform $-1 1 0 0 0 1 0 0 0 1 54.644001586962489 32.054634605049003 13.675678881946563 1 rotate no_reflect no_shear #
lump $-1 $-1 $18 $3 #
transform $-1 1 0 0 0 1 0 0 0 1 54.644001586962489 32.054634605049003 13.675678881946563 1 rotate no_reflect no_shear #
lump $-1 $-1 $19 $4 #
transform $-1 1 0 0 0 1 0 0 0 1 54.644001586962489 32.054634605049003 13.675678881946563 1 rotate no_reflect no_shear #
shell $-1 $-1 $-1 $20 $-1 $5 #
shell $-1 $-1 $-1 $21 $-1 $7 #
shell $-1 $-1 $-1 $22 $-1 $9 #
shell $-1 $-1 $-1 $23 $-1 $11 #
shell $-1 $-1 $-1 $24 $-1 $13 #
face $-1 $25 $26 $15 $-1 $27 forward single #
face $-1 $28 $29 $16 $-1 $30 forward single #
face $-1 $31 $32 $17 $-1 $33 forward single #
face $-1 $34 $35 $18 $-1 $36 reversed single #
face $-1 $37 $38 $19 $-1 $39 reversed single #
face $-1 $40 $41 $15 $-1 $42 reversed single #
loop $-1 $-1 $43 $20 #
plane-surface $-1 0 0 13.675678881946563 0 0 1 1 0 0 forward_v I I I I #
face $-1 $44 $45 $16 $-1 $46 forward single #
loop $-1 $-1 $47 $21 #
plane-surface $-1 -49.689194019571232 -23.827240680724323 0 1 0 0 0 0 -1 forward_v I I I I #
face $-1 $48 $49 $17 $-1 $50 forward single #
loop $-1 $-1 $51 $22 #
plane-surface $-1 -38.965901605452125 96.559287190066968 116.90018259284065 1 0 0 0 -0.87461971476443456 -0.48480960649040278 forward_v I I I I #
face $-1 $52 $53 $18 $-1 $54 reversed single #
loop $-1 $55 $56 $23 #
cone-surface $-1 -32.760991830666711 28.808924981738556 9.8570031409797743 0 -0.87461971476443456 -0.48480960649040278 1.5 0 0 1 I I 0 1 1.5 forward I I I I #
face $-1 $57 $58 $19 $-1 $59 reversed single #
loop $-1 $60 $61 $24 #
cone-surface $-1 -23.453627168488591 28.808924981738556 9.8570031409797743 0 -0.87461971476443456 -0.48480960649040278 1.5 0 0 1 I I 0 1 1.5 forward I I I I #
face $-1 $62 $63 $15 $-1 $64 reversed single #
loop $-1 $-1 $65 $25 #
plane-surface $-1 0 0 -13.675678881946563 0 0 1 1 0 0 forward_v I I I I #
coedge $-1 $66 $67 $68 $69 forward $26 $-1 #
face $-1 $70 $71 $16 $-1 $72 forward single #
loop $-1 $-1 $73 $28 #
plane-surface $-1 -47.751093185680574 -15.599846756399643 0 0 -1 0 0 0 -1 forward_v I I I I #
coedge $-1 $74 $75 $76 $77 reversed $29 $-1 #
face $-1 $78 $79 $17 $-1 $80 forward single #
loop $-1 $-1 $81 $31 #
plane-surface $-1 -28.107309499577649 0.97384502691409125 63.91630877996819 0 0.87461971476443456 0.48480960649040278 1 0 0 forward_v I I I I #
coedge $-1 $82 $83 $84 $85 reversed $32 $-1 #
face $-1 $86 $87 $18 $-1 $88 forward single #
loop $-1 $89 $90 $34 #
cone-surface $-1 -32.760991830666711 26.523227926325852 8.5900206212804981 0 -0.87461971476443456 -0.48480960649040278 0.75 0 0 1 I I -0.70710678118654757 0.70710678118654757 0.75 forward I I I I #
loop $-1 $-1 $91 $23 #
coedge $-1 $56 $56 $92 $93 reversed $35 $-1 #
face $-1 $94 $95 $19 $-1 $96 reversed single #
loop $-1 $97 $98 $37 #
cone-surface $-1 -23.453627168488591 26.523227926325852 8.5900206212804981 0 -0.87461971476443456 -0.48480960649040278 0.75 0 0 1 I I -0.70710678118654757 0.70710678118654757 0.75 forward I I I I #
loop $-1 $-1 $99 $24 #
coedge $-1 $61 $61 $100 $101 reversed $38 $-1 #
face $-1 $102 $103 $15 $-1 $104 reversed single #
loop $-1 $-1 $105 $40 #
plane-surface $-1 0 -32.054634605049003 0 0 1 0 0 0 1 forward_v I I I I #
coedge $-1 $106 $107 $108 $109 forward $41 $-1 #
coedge $-1 $110 $43 $111 $112 forward $26 $-1 #
coedge $-1 $43 $110 $113 $114 forward $26 $-1 #
coedge $-1 $115 $116 $43 $69 reversed $117 $-1 #
edge $-1 $118 -32.054634605049003 $119 32.054634605049003 $68 $120 forward 7 unknown #
face $-1 $121 $122 $16 $-1 $123 forward single #
loop $-1 $-1 $124 $44 #
plane-surface $-1 -45.812992351789916 -23.827240680724323 0 -1 0 0 0 0 1 forward_v I I I I #
coedge $-1 $125 $126 $127 $128 reversed $45 $-1 #
coedge $-1 $129 $47 $130 $131 reversed $29 $-1 #
coedge $-1 $47 $129 $132 $133 reversed $29 $-1 #
coedge $-1 $126 $125 $47 $77 forward $45 $-1 #
edge $-1 $134 -13.675678881946563 $135 13.675678881946563 $76 $136 forward 7 unknown #
face $-1 $137 $138 $17 $-1 $139 forward single #
loop $-1 $-1 $140 $48 #
plane-surface $-1 -17.248717393703174 96.559287190066968 116.90018259284065 -1 0 0 0 0.87461971476443456 0.48480960649040278 forward_v I I I I #
coedge $-1 $141 $142 $143 $144 reversed $49 $-1 #
coedge $-1 $83 $51 $142 $145 forward $32 $-1 #
coedge $-1 $51 $82 $146 $147 reversed $32 $-1 #
coedge $-1 $148 $143 $51 $85 forward $138 $-1 #
edge $-1 $149 -19.456963697926636 $150 -16.225008989984481 $84 $151 forward 7 unknown #
face $-1 $152 $153 $18 $-1 $154 forward single #
loop $-1 $-1 $155 $52 #
plane-surface $-1 -38.965901605452125 96.559287190066968 116.90018259284065 1 0 0 0 -0.87461971476443456 -0.48480960649040278 forward_v I I I I #
loop $-1 $-1 $156 $34 #
coedge $-1 $90 $90 $91 $157 forward $53 $-1 #
coedge $-1 $91 $91 $90 $157 reversed $55 $-1 #
coedge $-1 $92 $92 $56 $93 forward $153 $-1 #
edge $-1 $158 -2.2500401119499019e-016 $158 6.2831853071796004 $92 $159 forward 7 unknown #
face $-1 $160 $161 $19 $-1 $162 reversed single #
loop $-1 $163 $164 $57 #
cone-surface $-1 -32.760991830666711 28.808924981738556 9.8570031409797743 0 -0.87461971476443456 -0.48480960649040278 1.5 0 0 1 I I 0 1 1.5 forward I I I I #
loop $-1 $-1 $165 $37 #
coedge $-1 $98 $98 $99 $166 forward $58 $-1 #
coedge $-1 $99 $99 $98 $166 reversed $60 $-1 #
coedge $-1 $100 $100 $61 $101 forward $167 $-1 #
edge $-1 $168 -2.2500401119499019e-016 $168 6.2831853071796004 $100 $169 forward 7 unknown #
face $-1 $170 $171 $15 $-1 $172 reversed single #
loop $-1 $-1 $173 $62 #
plane-surface $-1 -54.644001586962489 0 0 1 0 0 0 0 -1 forward_v I I I I #
coedge $-1 $174 $113 $175 $176 forward $63 $-1 #
coedge $-1 $177 $65 $174 $178 forward $41 $-1 #
coedge $-1 $65 $177 $179 $180 forward $41 $-1 #
coedge $-1 $116 $115 $65 $109 reversed $117 $-1 #
edge $-1 $181 -32.054634605049003 $182 32.054634605049003 $108 $183 forward 7 unknown #
coedge $-1 $67 $66 $184 $185 forward $26 $-1 #
coedge $-1 $186 $187 $66 $112 reversed $171 $-1 #
edge $-1 $119 -54.644001586962489 $188 54.644001586962489 $111 $189 forward 7 unknown #
coedge $-1 $105 $190 $67 $114 reversed $63 $-1 #
edge $-1 $191 -54.644001586962489 $118 54.644001586962489 $113 $192 forward 7 unknown #
coedge $-1 $108 $68 $190 $193 forward $117 $-1 #
coedge $-1 $68 $108 $186 $194 reversed $117 $-1 #
loop $-1 $-1 $115 $170 #
vertex $-1 $69 $195 #
vertex $-1 $69 $196 #
straight-curve $-1 54.644001586962489 0 13.675678881946563 0 1 0 I I #
face $-1 $197 $198 $16 $-1 $199 reversed single #
loop $-1 $-1 $130 $70 #
plane-surface $-1 0 0 13.675678881946563 0 0 1 1 0 0 forward_v I I I I #
coedge $-1 $200 $201 $202 $203 reversed $71 $-1 #
coedge $-1 $76 $73 $204 $205 reversed $45 $-1 #
coedge $-1 $73 $76 $206 $207 reversed $45 $-1 #
coedge $-1 $201 $200 $73 $128 forward $71 $-1 #
edge $-1 $208 -13.675678881946563 $209 13.675678881946563 $127 $210 forward 7 unknown #
coedge $-1 $75 $74 $211 $212 reversed $29 $-1 #
coedge $-1 $204 $213 $74 $131 forward $122 $-1 #
edge $-1 $214 -20.141014264686842 $134 -3.6862264160374814 $130 $215 forward 7 unknown #
coedge $-1 $216 $206 $75 $133 forward $217 $-1 #
edge $-1 $135 3.6862264160374814 $218 20.141014264686842 $132 $219 forward 7 unknown #
vertex $-1 $131 $220 #
vertex $-1 $133 $221 #
straight-curve $-1 -49.689194019571232 -15.599846756399643 0 0 0 -1 I I #
face $-1 $222 $223 $17 $-1 $224 forward single #
loop $-1 $-1 $225 $78 #
plane-surface $-1 0 0 13.675678881946563 0 0 1 1 0 0 forward_v I I I I #
coedge $-1 $226 $227 $225 $228 reversed $79 $-1 #
coedge $-1 $229 $81 $227 $230 reversed $49 $-1 #
coedge $-1 $81 $229 $82 $145 reversed $49 $-1 #
coedge $-1 $84 $225 $81 $144 forward $138 $-1 #
edge $-1 $231 3.1950626439143495 $149 24.912246855663298 $143 $232 forward 7 unknown #
edge $-1 $149 57.442828065627552 $233 64.109269210098006 $82 $234 forward 7 unknown #
coedge $-1 $235 $236 $83 $147 forward $237 $-1 #
edge $-1 $150 44.774412414473758 $233 50.6050132667444 $146 $238 forward 7 unknown #
coedge $-1 $239 $84 $236 $240 forward $138 $-1 #
vertex $-1 $144 $241 #
vertex $-1 $240 $242 #
straight-curve $-1 -38.965901605452125 48.279643595033484 13.675678881946567 0 1 0 I I #
face $-1 $243 $244 $18 $-1 $245 forward single #
loop $-1 $246 $92 $86 #
plane-surface $-1 -28.107309499577649 0.97384502691409125 63.91630877996819 0 0.87461971476443456 0.48480960649040278 1 0 0 forward_v I I I I #
coedge $-1 $247 $248 $249 $250 reversed $87 $-1 #
coedge $-1 $156 $156 $-1 $251 forward $89 $-1 #
edge $-1 $252 0 $252 6.2831853071796004 $90 $253 forward 7 unknown #
vertex $-1 $93 $254 #
ellipse-curve $-1 -32.760991830666711 30.438657251077927 10.760378455811244 0 -0.87461971476443456 -0.48480960649040278 1.5 0 0 1 I I #
face $-1 $255 $256 $19 $-1 $257 forward single #
loop $-1 $258 $259 $94 #
cone-surface $-1 -32.760991830666711 26.523227926325852 8.5900206212804981 0 -0.87461971476443456 -0.48480960649040278 0.75 0 0 1 I I -0.70710678118654757 0.70710678118654757 0.75 forward I I I I #
loop $-1 $-1 $260 $57 #
coedge $-1 $164 $164 $261 $262 reversed $95 $-1 #
coedge $-1 $165 $165 $-1 $263 forward $97 $-1 #
edge $-1 $264 0 $264 6.2831853071796004 $98 $265 forward 7 unknown #
loop $-1 $266 $100 $255 #
vertex $-1 $101 $267 #
ellipse-curve $-1 -23.453627168488591 30.438657251077927 10.760378455811244 0 -0.87461971476443456 -0.48480960649040278 1.5 0 0 1 I I #
face $-1 $-1 $117 $15 $-1 $268 reversed single #
loop $-1 $-1 $186 $102 #
plane-surface $-1 0 32.054634605049003 0 0 -1 0 0 0 -1 forward_v I I I I #
coedge $-1 $269 $184 $187 $270 forward $103 $-1 #
coedge $-1 $190 $105 $106 $178 reversed $63 $-1 #
coedge $-1 $184 $269 $105 $176 reversed $103 $-1 #
edge $-1 $191 -13.675678881946563 $271 13.675678881946563 $175 $272 forward 7 unknown #
coedge $-1 $107 $106 $269 $273 forward $41 $-1 #
edge $-1 $182 -54.644001586962489 $271 54.644001586962489 $174 $274 forward 7 unknown #
coedge $-1 $187 $186 $107 $180 reversed $171 $-1 #
edge $-1 $275 -54.644001586962489 $181 54.644001586962489 $179 $276 forward 7 unknown #
vertex $-1 $109 $277 #
vertex $-1 $193 $278 #
straight-curve $-1 54.644001586962489 0 -13.675678881946563 0 -1 0 I I #
coedge $-1 $173 $175 $110 $185 reversed $103 $-1 #
edge $-1 $188 -32.054634605049003 $191 32.054634605049003 $184 $279 forward 7 unknown #
coedge $-1 $179 $111 $116 $194 forward $171 $-1 #
coedge $-1 $111 $179 $173 $270 reversed $171 $-1 #
vertex $-1 $112 $280 #
straight-curve $-1 0 32.054634605049003 13.675678881946563 -1 0 0 I I #
coedge $-1 $113 $174 $115 $193 reversed $63 $-1 #
vertex $-1 $185 $281 #
straight-curve $-1 0 -32.054634605049003 13.675678881946563 1 0 0 I I #
edge $-1 $118 -13.675678881946563 $182 13.675678881946563 $115 $282 forward 7 unknown #
edge $-1 $119 -13.675678881946563 $181 13.675678881946563 $116 $283 forward 7 unknown #
point $-1 54.644001586962489 -32.054634605049003 13.675678881946563 #
point $-1 54.644001586962489 32.054634605049003 13.675678881946563 #
face $-1 $284 $217 $16 $-1 $285 reversed single #
loop $-1 $-1 $202 $121 #
plane-surface $-1 0 -32.054634605049003 0 0 1 0 0 0 1 forward_v I I I I #
coedge $-1 $127 $124 $286 $287 reversed $71 $-1 #
coedge $-1 $124 $127 $288 $289 reversed $71 $-1 #
coedge $-1 $290 $291 $124 $203 forward $198 $-1 #
edge $-1 $292 -13.675678881946563 $293 13.675678881946563 $202 $294 forward 7 unknown #
coedge $-1 $286 $130 $125 $205 forward $122 $-1 #
edge $-1 $134 -25.813647426730945 $208 -21.937445758949629 $204 $295 forward 7 unknown #
coedge $-1 $132 $288 $126 $207 forward $217 $-1 #
edge $-1 $209 21.937445758949629 $135 25.813647426730945 $206 $296 forward 7 unknown #
vertex $-1 $205 $297 #
vertex $-1 $207 $298 #
straight-curve $-1 -45.812992351789916 -15.599846756399643 0 0 0 -1 I I #
coedge $-1 $299 $300 $129 $212 forward $301 $-1 #
edge $-1 $218 -13.675678881946563 $214 13.675678881946563 $211 $302 forward 7 unknown #
coedge $-1 $130 $303 $299 $304 forward $122 $-1 #
vertex $-1 $212 $305 #
straight-curve $-1 -49.689194019571232 -11.913620340362161 13.675678881946563 0 1 0 I I #
coedge $-1 $306 $132 $300 $307 forward $217 $-1 #
loop $-1 $-1 $132 $197 #
vertex $-1 $307 $308 #
straight-curve $-1 -49.689194019571232 -11.913620340362161 -13.675678881946563 0 -1 0 I I #
point $-1 -49.689194019571232 -15.599846756399643 13.675678881946563 #
point $-1 -49.689194019571232 -15.599846756399643 -13.675678881946563 #
face $-1 $309 $310 $17 $-1 $311 forward single #
loop $-1 $-1 $312 $137 #
plane-surface $-1 -49.689194019571232 -23.827240680724323 0 1 0 0 0 0 -1 forward_v I I I I #
coedge $-1 $143 $313 $140 $228 forward $138 $-1 #
coedge $-1 $227 $140 $314 $315 reversed $79 $-1 #
coedge $-1 $140 $226 $141 $230 forward $79 $-1 #
edge $-1 $316 16.225008989984481 $231 19.456963697926636 $225 $317 forward 7 unknown #
coedge $-1 $142 $141 $235 $318 reversed $49 $-1 #
edge $-1 $319 -64.109269210098006 $231 -57.442828065627552 $227 $320 forward 7 unknown #
vertex $-1 $144 $321 #
straight-curve $-1 -14.053654749788825 28.822679897106848 13.675678881946567 -1 0 0 I I #
vertex $-1 $318 $322 #
straight-curve $-1 -38.965901605452125 0.97384502691409125 63.91630877996819 0 0.48480960649040278 -0.87461971476443456 I I #
coedge $-1 $314 $146 $229 $318 forward $237 $-1 #
coedge $-1 $146 $323 $148 $240 reversed $237 $-1 #
loop $-1 $-1 $314 $324 #
straight-curve $-1 -38.965901605452125 32.054634605049003 58.450091296420325 0 0 -1 I I #
coedge $-1 $325 $148 $326 $327 forward $138 $-1 #
edge $-1 $150 38.965901605452125 $328 54.644001586962489 $236 $329 forward 7 unknown #
point $-1 -38.965901605452125 28.822679897106848 13.675678881946567 #
point $-1 -38.965901605452125 32.054634605049003 13.675678881946563 #
face $-1 $330 $331 $18 $-1 $332 forward single #
loop $-1 $-1 $333 $152 #
plane-surface $-1 -17.248717393703174 96.559287190066968 116.90018259284065 -1 0 0 0 0.87461971476443456 0.48480960649040278 forward_v I I I I #
loop $-1 $-1 $334 $86 #
coedge $-1 $248 $155 $335 $336 forward $87 $-1 #
coedge $-1 $155 $247 $337 $338 reversed $87 $-1 #
coedge $-1 $339 $340 $155 $250 forward $331 $-1 #
edge $-1 $341 -19.456963697926636 $342 -16.225008989984481 $249 $343 forward 7 unknown #
edge $-1 $344 1 $344 0 $156 $-1 forward 7 unknown #
vertex $-1 $157 $345 #
ellipse-curve $-1 -32.760991830666711 27.179192712399178 8.9536278261483009 0 0.87461971476443456 0.48480960649040278 1.5 0 0 1 I I #
point $-1 -31.260991830666711 30.438657251077935 10.760378455811248 #
face $-1 $346 $167 $19 $-1 $347 forward single #
loop $-1 $-1 $348 $160 #
plane-surface $-1 -38.965901605452125 96.559287190066968 116.90018259284065 1 0 0 0 -0.87461971476443456 -0.48480960649040278 forward_v I I I I #
loop $-1 $-1 $349 $94 #
coedge $-1 $259 $259 $260 $350 forward $161 $-1 #
coedge $-1 $260 $260 $259 $350 reversed $163 $-1 #
coedge $-1 $261 $261 $164 $262 forward $266 $-1 #
edge $-1 $351 -2.2500401119499019e-016 $351 6.2831853071796004 $261 $352 forward 7 unknown #
edge $-1 $353 1 $353 0 $165 $-1 forward 7 unknown #
vertex $-1 $166 $354 #
ellipse-curve $-1 -23.453627168488591 27.179192712399178 8.9536278261483009 0 0.87461971476443456 0.48480960649040278 1.5 0 0 1 I I #
loop $-1 $355 $261 $255 #
point $-1 -21.953627168488591 30.438657251077935 10.760378455811248 #
plane-surface $-1 54.644001586962489 0 0 -1 0 0 0 0 1 forward_v I I I I #
coedge $-1 $175 $173 $177 $273 reversed $103 $-1 #
edge $-1 $188 -13.675678881946563 $275 13.675678881946563 $187 $356 forward 7 unknown #
vertex $-1 $273 $357 #
straight-curve $-1 -54.644001586962489 -32.054634605049003 0 0 0 -1 I I #
edge $-1 $271 -32.054634605049003 $275 32.054634605049003 $269 $358 forward 7 unknown #
straight-curve $-1 0 -32.054634605049003 -13.675678881946563 -1 0 0 I I #
vertex $-1 $180 $359 #
straight-curve $-1 0 32.054634605049003 -13.675678881946563 1 0 0 I I #
point $-1 54.644001586962489 32.054634605049003 -13.675678881946563 #
point $-1 54.644001586962489 -32.054634605049003 -13.675678881946563 #
straight-curve $-1 -54.644001586962489 0 13.675678881946563 0 -1 0 I I #
point $-1 -54.644001586962489 32.054634605049003 13.675678881946563 #
point $-1 -54.644001586962489 -32.054634605049003 13.675678881946563 #
straight-curve $-1 54.644001586962489 -32.054634605049003 0 0 0 -1 I I #
straight-curve $-1 54.644001586962489 32.054634605049003 0 0 0 -1 I I #
face $-1 $360 $301 $16 $-1 $199 reversed single #
plane-surface $-1 0 0 -13.675678881946563 0 0 1 1 0 0 forward_v I I I I #
coedge $-1 $361 $204 $200 $287 forward $122 $-1 #
edge $-1 $208 3.6862264160374814 $292 20.141014264686842 $286 $362 forward 7 unknown #
coedge $-1 $206 $363 $201 $289 forward $217 $-1 #
edge $-1 $293 -20.141014264686842 $209 -3.6862264160374814 $288 $364 forward 7 unknown #
coedge $-1 $365 $202 $363 $366 reversed $198 $-1 #
coedge $-1 $202 $365 $361 $367 reversed $198 $-1 #
vertex $-1 $367 $368 #
vertex $-1 $203 $369 #
straight-curve $-1 -45.812992351789916 -32.054634605049003 0 0 0 -1 I I #
straight-curve $-1 -23.875546592840287 -15.599846756399643 13.675678881946563 1 0 0 I I #
straight-curve $-1 -23.875546592840287 -15.599846756399643 -13.675678881946563 -1 0 0 I I #
point $-1 -45.812992351789916 -15.599846756399643 13.675678881946563 #
point $-1 -45.812992351789916 -15.599846756399643 -13.675678881946563 #
coedge $-1 $370 $211 $213 $304 reversed $301 $-1 #
coedge $-1 $211 $370 $216 $307 reversed $301 $-1 #
loop $-1 $-1 $211 $284 #
straight-curve $-1 -49.689194019571232 -32.054634605049003 0 0 0 1 I I #
coedge $-1 $213 $371 $372 $373 forward $122 $-1 #
edge $-1 $374 -54.644001586962489 $214 -49.689194019571232 $299 $375 forward 7 unknown #
point $-1 -49.689194019571232 -32.054634605049003 13.675678881946563 #
coedge $-1 $376 $216 $377 $378 forward $217 $-1 #
edge $-1 $218 49.689194019571232 $379 54.644001586962489 $300 $380 forward 7 unknown #
point $-1 -49.689194019571232 -32.054634605049003 -13.675678881946563 #
face $-1 $381 $382 $17 $-1 $383 forward single #
loop $-1 $-1 $384 $222 #
plane-surface $-1 -47.751093185680574 -15.599846756399643 0 0 -1 0 0 0 -1 forward_v I I I I #
coedge $-1 $385 $386 $387 $388 reversed $223 $-1 #
coedge $-1 $225 $389 $390 $391 forward $138 $-1 #
coedge $-1 $390 $235 $226 $315 forward $237 $-1 #
edge $-1 $319 -50.6050132667444 $316 -44.774412414473758 $314 $392 forward 7 unknown #
vertex $-1 $315 $393 #
straight-curve $-1 -17.248717393703174 48.279643595033484 13.675678881946567 0 -1 0 I I #
edge $-1 $233 -24.912246855663298 $319 -3.1950626439143495 $235 $394 forward 7 unknown #
vertex $-1 $318 $395 #
straight-curve $-1 -17.248717393703174 0.97384502691409125 63.91630877996819 0 -0.48480960649040278 0.87461971476443456 I I #
point $-1 -17.248717393703174 28.822679897106848 13.675678881946567 #
point $-1 -38.965901605452125 32.054634605049003 7.8450780296759248 #
coedge $-1 $236 $396 $397 $398 reversed $237 $-1 #
face $-1 $399 $237 $17 $-1 $400 reversed single #
coedge $-1 $401 $239 $402 $403 forward $138 $-1 #
coedge $-1 $397 $404 $239 $327 reversed $405 $-1 #
edge $-1 $328 -32.054634605049003 $406 32.054634605049003 $326 $407 forward 7 unknown #
vertex $-1 $240 $408 #
straight-curve $-1 0 32.054634605049003 13.675678881946563 -1 0 0 I I #
face $-1 $409 $410 $18 $-1 $411 forward single #
loop $-1 $-1 $412 $243 #
plane-surface $-1 0 0 13.675678881946563 0 0 1 1 0 0 forward_v I I I I #
coedge $-1 $413 $414 $412 $415 reversed $244 $-1 #
coedge $-1 $416 $335 $340 $417 reversed $246 $-1 #
coedge $-1 $334 $418 $247 $336 reversed $246 $-1 #
edge $-1 $341 57.442828065627552 $419 64.109269210098006 $247 $420 forward 7 unknown #
coedge $-1 $421 $422 $248 $338 forward $423 $-1 #
edge $-1 $342 44.774412414473758 $419 50.6050132667444 $337 $424 forward 7 unknown #
coedge $-1 $425 $249 $422 $426 forward $331 $-1 #
coedge $-1 $249 $412 $334 $417 forward $331 $-1 #
vertex $-1 $417 $427 #
vertex $-1 $426 $428 #
straight-curve $-1 -38.965901605452125 48.279643595033484 13.675678881946567 0 1 0 I I #
vertex $-1 $251 $429 #
point $-1 -31.260991830666711 27.179192712399178 8.9536278261483009 #
face $-1 $430 $431 $19 $-1 $432 forward single #
plane-surface $-1 -28.107309499577649 0.97384502691409125 63.91630877996819 0 0.87461971476443456 0.48480960649040278 1 0 0 forward_v I I I I #
coedge $-1 $433 $434 $435 $436 reversed $256 $-1 #
coedge $-1 $349 $349 $-1 $437 forward $258 $-1 #
edge $-1 $438 0 $438 6.2831853071796004 $259 $439 forward 7 unknown #
vertex $-1 $262 $440 #
ellipse-curve $-1 -32.760991830666711 30.438657251077927 10.760378455811244 0 -0.87461971476443456 -0.48480960649040278 1.5 0 0 1 I I #
vertex $-1 $263 $441 #
point $-1 -21.953627168488591 27.179192712399178 8.9536278261483009 #
loop $-1 $-1 $442 $255 #
straight-curve $-1 -54.644001586962489 32.054634605049003 0 0 0 -1 I I #
point $-1 -54.644001586962489 -32.054634605049003 -13.675678881946563 #
straight-curve $-1 -54.644001586962489 0 -13.675678881946563 0 1 0 I I #
point $-1 -54.644001586962489 32.054634605049003 -13.675678881946563 #
face $-1 $443 $444 $16 $-1 $445 reversed single #
coedge $-1 $446 $286 $291 $367 forward $122 $-1 #
straight-curve $-1 -45.812992351789916 -11.913620340362161 13.675678881946563 0 -1 0 I I #
coedge $-1 $288 $447 $290 $366 forward $217 $-1 #
straight-curve $-1 -45.812992351789916 -11.913620340362161 -13.675678881946563 0 1 0 I I #
coedge $-1 $291 $290 $448 $449 reversed $198 $-1 #
edge $-1 $450 -54.644001586962489 $293 45.812992351789916 $290 $380 forward 7 unknown #
edge $-1 $292 -45.812992351789916 $451 54.644001586962489 $291 $375 forward 7 unknown #
point $-1 -45.812992351789916 -32.054634605049003 13.675678881946563 #
point $-1 -45.812992351789916 -32.054634605049003 -13.675678881946563 #
coedge $-1 $300 $299 $452 $453 forward $301 $-1 #
coedge $-1 $303 $446 $454 $455 forward $122 $-1 #
coedge $-1 $456 $452 $303 $373 reversed $444 $-1 #
edge $-1 $457 -32.054634605049003 $374 32.054634605049003 $372 $458 forward 7 unknown #
vertex $-1 $373 $459 #
straight-curve $-1 0 -32.054634605049003 13.675678881946563 1 0 0 I I #
coedge $-1 $447 $306 $460 $461 forward $217 $-1 #
coedge $-1 $452 $456 $306 $378 reversed $444 $-1 #
edge $-1 $379 -32.054634605049003 $462 32.054634605049003 $377 $463 forward 7 unknown #
vertex $-1 $378 $464 #
straight-curve $-1 0 -32.054634605049003 -13.675678881946563 -1 0 0 I I #
face $-1 $465 $466 $17 $-1 $467 reversed single #
loop $-1 $-1 $468 $309 #
plane-surface $-1 -45.812992351789916 -23.827240680724323 0 -1 0 0 0 0 1 forward_v I I I I #
coedge $-1 $469 $470 $471 $472 reversed $310 $-1 #
coedge $-1 $473 $312 $401 $474 reversed $223 $-1 #
coedge $-1 $312 $473 $475 $476 reversed $223 $-1 #
coedge $-1 $470 $469 $312 $388 forward $310 $-1 #
edge $-1 $477 -13.675678881946563 $478 13.675678881946563 $387 $479 forward 7 unknown #
coedge $-1 $313 $480 $481 $482 forward $138 $-1 #
coedge $-1 $483 $314 $313 $391 reversed $237 $-1 #
edge $-1 $484 -54.644001586962489 $316 17.248717393703174 $390 $329 forward 7 unknown #
straight-curve $-1 -17.248717393703174 32.054634605049003 58.450091296420325 0 0 1 I I #
point $-1 -17.248717393703174 32.054634605049003 13.675678881946563 #
straight-curve $-1 -14.053654749788825 32.054634605049003 7.8450780296759248 1 0 0 I I #
point $-1 -17.248717393703174 32.054634605049003 7.8450780296759248 #
coedge $-1 $323 $483 $485 $486 reversed $237 $-1 #
coedge $-1 $487 $326 $323 $398 forward $405 $-1 #
edge $-1 $328 -13.675678881946563 $488 13.675678881946563 $323 $489 forward 7 unknown #
face $-1 $-1 $490 $17 $-1 $491 reversed single #
plane-surface $-1 0 32.054634605049003 0 0 -1 0 0 0 -1 forward_v I I I I #
coedge $-1 $492 $325 $385 $474 forward $138 $-1 #
coedge $-1 $493 $494 $325 $403 reversed $495 $-1 #
edge $-1 $406 -54.644001586962489 $496 -49.689194019571232 $402 $497 forward 7 unknown #
coedge $-1 $326 $487 $493 $498 reversed $405 $-1 #
loop $-1 $-1 $397 $499 #
vertex $-1 $327 $500 #
straight-curve $-1 -54.644001586962489 0 13.675678881946563 0 -1 0 I I #
point $-1 -54.644001586962489 32.054634605049003 13.675678881946563 #
face $-1 $501 $502 $18 $-1 $503 forward single #
loop $-1 $-1 $504 $330 #
plane-surface $-1 -49.689194019571232 -23.827240680724323 0 1 0 0 0 0 -1 forward_v I I I I #
coedge $-1 $340 $505 $333 $415 forward $331 $-1 #
coedge $-1 $414 $333 $506 $507 reversed $244 $-1 #
coedge $-1 $333 $413 $416 $508 forward $244 $-1 #
edge $-1 $509 16.225008989984481 $510 19.456963697926636 $412 $511 forward 7 unknown #
coedge $-1 $418 $334 $414 $508 reversed $246 $-1 #
edge $-1 $510 3.1950626439143495 $341 24.912246855663298 $340 $512 forward 7 unknown #
coedge $-1 $335 $416 $421 $513 reversed $246 $-1 #
vertex $-1 $513 $514 #
straight-curve $-1 -38.965901605452125 0.97384502691409125 63.91630877996819 0 0.48480960649040278 -0.87461971476443456 I I #
coedge $-1 $506 $337 $418 $513 forward $423 $-1 #
coedge $-1 $337 $515 $339 $426 reversed $423 $-1 #
loop $-1 $-1 $506 $516 #
straight-curve $-1 -38.965901605452125 32.054634605049003 58.450091296420325 0 0 -1 I I #
coedge $-1 $517 $339 $518 $519 forward $331 $-1 #
edge $-1 $342 38.965901605452125 $520 54.644001586962489 $422 $521 forward 7 unknown #
point $-1 -38.965901605452125 28.822679897106848 13.675678881946567 #
point $-1 -38.965901605452125 32.054634605049003 13.675678881946563 #
point $-1 -32.760991830666711 25.867263140252525 8.2264134164126954 #
face $-1 $522 $523 $19 $-1 $524 forward single #
loop $-1 $-1 $525 $346 #
plane-surface $-1 -17.248717393703174 96.559287190066968 116.90018259284065 -1 0 0 0 0.87461971476443456 0.48480960649040278 forward_v I I I I #
coedge $-1 $434 $348 $526 $527 forward $256 $-1 #
coedge $-1 $348 $433 $528 $529 reversed $256 $-1 #
coedge $-1 $530 $531 $348 $436 forward $523 $-1 #
edge $-1 $532 -19.456963697926636 $533 -16.225008989984481 $435 $534 forward 7 unknown #
edge $-1 $535 1 $535 0 $349 $-1 forward 7 unknown #
vertex $-1 $350 $536 #
ellipse-curve $-1 -32.760991830666711 27.179192712399178 8.9536278261483009 0 0.87461971476443456 0.48480960649040278 1.5 0 0 1 I I #
point $-1 -31.260991830666711 30.438657251077935 10.760378455811248 #
point $-1 -23.453627168488591 25.867263140252525 8.2264134164126954 #
coedge $-1 $537 $526 $531 $538 reversed $355 $-1 #
face $-1 $539 $540 $16 $-1 $541 reversed single #
loop $-1 $-1 $456 $360 #
plane-surface $-1 -54.644001586962489 0 0 1 0 0 0 0 -1 forward_v I I I I #
coedge $-1 $371 $361 $542 $543 forward $122 $-1 #
coedge $-1 $363 $376 $544 $545 forward $217 $-1 #
coedge $-1 $544 $542 $365 $449 forward $546 $-1 #
edge $-1 $451 -13.675678881946563 $450 13.675678881946563 $448 $547 forward 7 unknown #
vertex $-1 $449 $548 #
vertex $-1 $543 $549 #
coedge $-1 $372 $377 $370 $453 reversed $444 $-1 #
edge $-1 $374 -13.675678881946563 $379 13.675678881946563 $452 $550 forward 7 unknown #
coedge $-1 $551 $552 $371 $455 reversed $540 $-1 #
edge $-1 $553 -54.644001586962489 $457 54.644001586962489 $454 $554 forward 7 unknown #
coedge $-1 $377 $372 $552 $555 forward $444 $-1 #
vertex $-1 $455 $556 #
straight-curve $-1 -54.644001586962489 0 13.675678881946563 0 -1 0 I I #
point $-1 -54.644001586962489 -32.054634605049003 13.675678881946563 #
coedge $-1 $552 $551 $376 $461 reversed $540 $-1 #
edge $-1 $462 -54.644001586962489 $557 54.644001586962489 $460 $558 forward 7 unknown #
vertex $-1 $461 $559 #
straight-curve $-1 -54.644001586962489 0 -13.675678881946563 0 1 0 I I #
point $-1 -54.644001586962489 -32.054634605049003 -13.675678881946563 #
face $-1 $560 $561 $17 $-1 $562 reversed single #
loop $-1 $-1 $563 $381 #
plane-surface $-1 0 -32.054634605049003 0 0 1 0 0 0 1 forward_v I I I I #
coedge $-1 $564 $565 $563 $566 reversed $382 $-1 #
coedge $-1 $387 $384 $492 $567 reversed $310 $-1 #
coedge $-1 $384 $387 $568 $569 reversed $310 $-1 #
coedge $-1 $565 $564 $384 $472 forward $382 $-1 #
edge $-1 $570 -13.675678881946563 $571 13.675678881946563 $471 $572 forward 7 unknown #
coedge $-1 $386 $385 $494 $573 reversed $223 $-1 #
edge $-1 $496 -20.141014264686842 $477 -3.6862264160374814 $401 $574 forward 7 unknown #
coedge $-1 $575 $568 $386 $476 forward $561 $-1 #
edge $-1 $478 3.6862264160374814 $576 20.141014264686842 $475 $577 forward 7 unknown #
vertex $-1 $474 $578 #
vertex $-1 $476 $579 #
straight-curve $-1 -49.689194019571232 -15.599846756399643 0 0 0 -1 I I #
coedge $-1 $389 $580 $581 $582 forward $138 $-1 #
coedge $-1 $583 $584 $389 $482 reversed $490 $-1 #
edge $-1 $585 -32.054634605049003 $484 32.054634605049003 $481 $586 forward 7 unknown #
coedge $-1 $396 $390 $584 $587 forward $237 $-1 #
vertex $-1 $482 $588 #
coedge $-1 $589 $590 $396 $486 forward $561 $-1 #
edge $-1 $488 -54.644001586962489 $591 54.644001586962489 $396 $592 forward 7 unknown #
coedge $-1 $404 $397 $590 $593 reversed $405 $-1 #
vertex $-1 $486 $594 #
straight-curve $-1 -54.644001586962489 32.054634605049003 0 0 0 -1 I I #
loop $-1 $-1 $583 $399 #
plane-surface $-1 54.644001586962489 0 0 -1 0 0 0 0 1 forward_v I I I I #
coedge $-1 $580 $401 $469 $567 forward $138 $-1 #
coedge $-1 $595 $402 $404 $498 forward $495 $-1 #
coedge $-1 $402 $595 $473 $573 forward $495 $-1 #
loop $-1 $-1 $494 $560 #
vertex $-1 $573 $596 #
straight-curve $-1 0 -32.054634605049003 13.675678881946563 1 0 0 I I #
edge $-1 $406 -13.675678881946563 $597 13.675678881946563 $404 $598 forward 7 unknown #
face $-1 $324 $405 $17 $-1 $599 reversed single #
point $-1 -54.644001586962489 -32.054634605049003 13.675678881946563 #
face $-1 $600 $601 $18 $-1 $602 forward single #
loop $-1 $-1 $603 $409 #
plane-surface $-1 -47.751093185680574 -15.599846756399643 0 0 -1 0 0 0 -1 forward_v I I I I #
coedge $-1 $604 $605 $606 $607 reversed $410 $-1 #
coedge $-1 $412 $608 $609 $610 forward $331 $-1 #
coedge $-1 $609 $421 $413 $507 forward $423 $-1 #
edge $-1 $611 -50.6050132667444 $509 -44.774412414473758 $506 $612 forward 7 unknown #
edge $-1 $611 -64.109269210098006 $510 -57.442828065627552 $414 $613 forward 7 unknown #
vertex $-1 $507 $614 #
vertex $-1 $417 $615 #
straight-curve $-1 -17.248717393703174 48.279643595033484 13.675678881946567 0 -1 0 I I #
straight-curve $-1 -14.053654749788825 28.822679897106848 13.675678881946567 -1 0 0 I I #
edge $-1 $419 -24.912246855663298 $611 -3.1950626439143495 $421 $616 forward 7 unknown #
point $-1 -38.965901605452125 32.054634605049003 7.8450780296759248 #
coedge $-1 $422 $617 $618 $619 reversed $423 $-1 #
face $-1 $620 $423 $18 $-1 $621 reversed single #
coedge $-1 $622 $425 $623 $624 forward $331 $-1 #
coedge $-1 $618 $625 $425 $519 reversed $626 $-1 #
edge $-1 $520 -32.054634605049003 $627 32.054634605049003 $518 $628 forward 7 unknown #
vertex $-1 $426 $629 #
straight-curve $-1 0 32.054634605049003 13.675678881946563 -1 0 0 I I #
face $-1 $630 $631 $19 $-1 $632 forward single #
loop $-1 $-1 $633 $430 #
plane-surface $-1 0 0 13.675678881946563 0 0 1 1 0 0 forward_v I I I I #
coedge $-1 $634 $635 $633 $636 reversed $431 $-1 #
coedge $-1 $442 $637 $433 $527 reversed $355 $-1 #
edge $-1 $532 57.442828065627552 $638 64.109269210098006 $433 $639 forward 7 unknown #
coedge $-1 $640 $641 $434 $529 forward $642 $-1 #
edge $-1 $533 44.774412414473758 $638 50.6050132667444 $528 $643 forward 7 unknown #
coedge $-1 $644 $435 $641 $645 forward $523 $-1 #
coedge $-1 $435 $633 $442 $538 forward $523 $-1 #
vertex $-1 $538 $646 #
vertex $-1 $645 $647 #
straight-curve $-1 -38.965901605452125 48.279643595033484 13.675678881946567 0 1 0 I I #
vertex $-1 $437 $648 #
point $-1 -31.260991830666711 27.179192712399178 8.9536278261483009 #
coedge $-1 $637 $442 $635 $649 reversed $355 $-1 #
edge $-1 $650 3.1950626439143495 $532 24.912246855663298 $531 $651 forward 7 unknown #
face $-1 $-1 $546 $16 $-1 $652 reversed single #
loop $-1 $-1 $551 $443 #
plane-surface $-1 0 32.054634605049003 0 0 -1 0 0 0 -1 forward_v I I I I #
coedge $-1 $448 $653 $446 $543 reversed $546 $-1 #
edge $-1 $451 -32.054634605049003 $553 32.054634605049003 $542 $654 forward 7 unknown #
coedge $-1 $653 $448 $447 $545 reversed $546 $-1 #
edge $-1 $557 -32.054634605049003 $450 32.054634605049003 $544 $655 forward 7 unknown #
loop $-1 $-1 $448 $539 #
straight-curve $-1 54.644001586962489 -32.054634605049003 0 0 0 -1 I I #
point $-1 54.644001586962489 -32.054634605049003 -13.675678881946563 #
point $-1 54.644001586962489 -32.054634605049003 13.675678881946563 #
straight-curve $-1 -54.644001586962489 -32.054634605049003 0 0 0 -1 I I #
coedge $-1 $460 $454 $653 $656 forward $540 $-1 #
coedge $-1 $454 $460 $456 $555 reversed $540 $-1 #
vertex $-1 $543 $657 #
straight-curve $-1 0 32.054634605049003 13.675678881946563 -1 0 0 I I #
edge $-1 $457 -13.675678881946563 $462 13.675678881946563 $552 $658 forward 7 unknown #
point $-1 -54.644001586962489 32.054634605049003 13.675678881946563 #
vertex $-1 $545 $659 #
straight-curve $-1 0 32.054634605049003 -13.675678881946563 1 0 0 I I #
point $-1 -54.644001586962489 32.054634605049003 -13.675678881946563 #
face $-1 $499 $495 $17 $-1 $467 reversed single #
loop $-1 $-1 $475 $465 #
plane-surface $-1 0 0 -13.675678881946563 0 0 1 1 0 0 forward_v I I I I #
coedge $-1 $660 $581 $468 $566 forward $466 $-1 #
coedge $-1 $471 $468 $580 $661 reversed $382 $-1 #
coedge $-1 $468 $471 $662 $663 reversed $382 $-1 #
edge $-1 $664 -13.675678881946563 $665 13.675678881946563 $563 $666 forward 7 unknown #
edge $-1 $477 -25.813647426730945 $570 -21.937445758949629 $492 $667 forward 7 unknown #
coedge $-1 $475 $662 $470 $569 forward $561 $-1 #
edge $-1 $571 21.937445758949629 $478 25.813647426730945 $568 $668 forward 7 unknown #
vertex $-1 $567 $669 #
vertex $-1 $569 $670 #
straight-curve $-1 -45.812992351789916 -15.599846756399643 0 0 0 -1 I I #
edge $-1 $576 -13.675678881946563 $496 13.675678881946563 $494 $671 forward 7 unknown #
straight-curve $-1 -49.689194019571232 -11.913620340362161 13.675678881946563 0 1 0 I I #
coedge $-1 $590 $475 $595 $672 forward $561 $-1 #
vertex $-1 $672 $673 #
straight-curve $-1 -49.689194019571232 -11.913620340362161 -13.675678881946563 0 -1 0 I I #
point $-1 -49.689194019571232 -15.599846756399643 13.675678881946563 #
point $-1 -49.689194019571232 -15.599846756399643 -13.675678881946563 #
coedge $-1 $480 $492 $564 $661 forward $138 $-1 #
coedge $-1 $563 $674 $480 $582 reversed $466 $-1 #
edge $-1 $664 -45.812992351789916 $585 54.644001586962489 $581 $497 forward 7 unknown #
coedge $-1 $675 $481 $674 $676 forward $490 $-1 #
coedge $-1 $481 $675 $483 $587 reversed $490 $-1 #
vertex $-1 $482 $677 #
straight-curve $-1 54.644001586962489 0 13.675678881946563 0 1 0 I I #
edge $-1 $484 -13.675678881946563 $591 13.675678881946563 $584 $678 forward 7 unknown #
point $-1 54.644001586962489 32.054634605049003 13.675678881946563 #
coedge $-1 $679 $485 $675 $680 forward $561 $-1 #
coedge $-1 $485 $575 $487 $593 forward $561 $-1 #
vertex $-1 $680 $681 #
straight-curve $-1 0 32.054634605049003 -13.675678881946563 1 0 0 I I #
edge $-1 $597 -32.054634605049003 $488 32.054634605049003 $487 $682 forward 7 unknown #
point $-1 -54.644001586962489 32.054634605049003 -13.675678881946563 #
coedge $-1 $494 $493 $575 $672 reversed $495 $-1 #
point $-1 -49.689194019571232 -32.054634605049003 13.675678881946563 #
vertex $-1 $593 $683 #
straight-curve $-1 -54.644001586962489 -32.054634605049003 0 0 0 -1 I I #
plane-surface $-1 -54.644001586962489 0 0 1 0 0 0 0 -1 forward_v I I I I #
face $-1 $684 $685 $18 $-1 $686 reversed single #
loop $-1 $-1 $687 $501 #
plane-surface $-1 -45.812992351789916 -23.827240680724323 0 -1 0 0 0 0 1 forward_v I I I I #
coedge $-1 $688 $689 $690 $691 reversed $502 $-1 #
coedge $-1 $692 $504 $622 $693 reversed $410 $-1 #
coedge $-1 $504 $692 $694 $695 reversed $410 $-1 #
coedge $-1 $689 $688 $504 $607 forward $502 $-1 #
edge $-1 $696 -13.675678881946563 $697 13.675678881946563 $606 $698 forward 7 unknown #
coedge $-1 $505 $699 $700 $701 forward $331 $-1 #
coedge $-1 $702 $506 $505 $610 reversed $423 $-1 #
edge $-1 $703 -54.644001586962489 $509 17.248717393703174 $609 $521 forward 7 unknown #
vertex $-1 $513 $704 #
straight-curve $-1 -17.248717393703174 32.054634605049003 58.450091296420325 0 0 1 I I #
straight-curve $-1 -17.248717393703174 0.97384502691409125 63.91630877996819 0 -0.48480960649040278 0.87461971476443456 I I #
point $-1 -17.248717393703174 32.054634605049003 13.675678881946563 #
point $-1 -17.248717393703174 28.822679897106848 13.675678881946567 #
straight-curve $-1 -14.053654749788825 32.054634605049003 7.8450780296759248 1 0 0 I I #
coedge $-1 $515 $702 $705 $706 reversed $423 $-1 #
coedge $-1 $707 $518 $515 $619 forward $626 $-1 #
edge $-1 $520 -13.675678881946563 $708 13.675678881946563 $515 $709 forward 7 unknown #
face $-1 $-1 $710 $18 $-1 $711 reversed single #
plane-surface $-1 0 32.054634605049003 0 0 -1 0 0 0 -1 forward_v I I I I #
coedge $-1 $712 $517 $604 $693 forward $331 $-1 #
coedge $-1 $713 $714 $517 $624 reversed $715 $-1 #
edge $-1 $627 -54.644001586962489 $716 -49.689194019571232 $623 $717 forward 7 unknown #
coedge $-1 $518 $707 $713 $718 reversed $626 $-1 #
loop $-1 $-1 $618 $719 #
vertex $-1 $519 $720 #
straight-curve $-1 -54.644001586962489 0 13.675678881946563 0 -1 0 I I #
point $-1 -54.644001586962489 32.054634605049003 13.675678881946563 #
face $-1 $721 $722 $19 $-1 $723 forward single #
loop $-1 $-1 $724 $522 #
plane-surface $-1 -49.689194019571232 -23.827240680724323 0 1 0 0 0 0 -1 forward_v I I I I #
coedge $-1 $531 $725 $525 $636 forward $523 $-1 #
coedge $-1 $635 $525 $726 $727 reversed $431 $-1 #
coedge $-1 $525 $634 $537 $649 forward $431 $-1 #
edge $-1 $728 16.225008989984481 $650 19.456963697926636 $633 $729 forward 7 unknown #
coedge $-1 $526 $537 $640 $730 reversed $355 $-1 #
vertex $-1 $730 $731 #
straight-curve $-1 -38.965901605452125 0.97384502691409125 63.91630877996819 0 0.48480960649040278 -0.87461971476443456 I I #
coedge $-1 $726 $528 $637 $730 forward $642 $-1 #
coedge $-1 $528 $732 $530 $645 reversed $642 $-1 #
loop $-1 $-1 $726 $733 #
straight-curve $-1 -38.965901605452125 32.054634605049003 58.450091296420325 0 0 -1 I I #
coedge $-1 $734 $530 $735 $736 forward $523 $-1 #
edge $-1 $533 38.965901605452125 $737 54.644001586962489 $641 $738 forward 7 unknown #
point $-1 -38.965901605452125 28.822679897106848 13.675678881946567 #
point $-1 -38.965901605452125 32.054634605049003 13.675678881946563 #
point $-1 -32.760991830666711 25.867263140252525 8.2264134164126954 #
edge $-1 $739 -64.109269210098006 $650 -57.442828065627552 $635 $740 forward 7 unknown #
vertex $-1 $538 $741 #
straight-curve $-1 -14.053654749788825 28.822679897106848 13.675678881946567 -1 0 0 I I #
plane-surface $-1 54.644001586962489 0 0 -1 0 0 0 0 1 forward_v I I I I #
coedge $-1 $542 $544 $551 $656 reversed $546 $-1 #
straight-curve $-1 54.644001586962489 0 13.675678881946563 0 1 0 I I #
straight-curve $-1 54.644001586962489 0 -13.675678881946563 0 -1 0 I I #
edge $-1 $553 -13.675678881946563 $557 13.675678881946563 $653 $742 forward 7 unknown #
point $-1 54.644001586962489 32.054634605049003 13.675678881946563 #
straight-curve $-1 -54.644001586962489 32.054634605049003 0 0 0 -1 I I #
point $-1 54.644001586962489 32.054634605049003 -13.675678881946563 #
coedge $-1 $674 $563 $679 $743 reversed $466 $-1 #
edge $-1 $570 3.6862264160374814 $664 20.141014264686842 $580 $744 forward 7 unknown #
coedge $-1 $568 $679 $565 $663 forward $561 $-1 #
edge $-1 $665 -20.141014264686842 $571 -3.6862264160374814 $662 $745 forward 7 unknown #
vertex $-1 $582 $746 #
vertex $-1 $566 $747 #
straight-curve $-1 -45.812992351789916 -32.054634605049003 0 0 0 -1 I I #
straight-curve $-1 -23.875546592840287 -15.599846756399643 13.675678881946563 1 0 0 I I #
straight-curve $-1 -23.875546592840287 -15.599846756399643 -13.675678881946563 -1 0 0 I I #
point $-1 -45.812992351789916 -15.599846756399643 13.675678881946563 #
point $-1 -45.812992351789916 -15.599846756399643 -13.675678881946563 #
straight-curve $-1 -49.689194019571232 -32.054634605049003 0 0 0 1 I I #
edge $-1 $576 49.689194019571232 $597 54.644001586962489 $595 $748 forward 7 unknown #
point $-1 -49.689194019571232 -32.054634605049003 -13.675678881946563 #
coedge $-1 $581 $660 $583 $676 reversed $466 $-1 #
coedge $-1 $584 $583 $589 $680 reversed $490 $-1 #
edge $-1 $585 -13.675678881946563 $749 13.675678881946563 $583 $750 forward 7 unknown #
point $-1 54.644001586962489 -32.054634605049003 13.675678881946563 #
straight-curve $-1 54.644001586962489 32.054634605049003 0 0 0 -1 I I #
coedge $-1 $662 $589 $660 $743 forward $561 $-1 #
edge $-1 $591 -32.054634605049003 $749 32.054634605049003 $675 $751 forward 7 unknown #
point $-1 54.644001586962489 32.054634605049003 -13.675678881946563 #
straight-curve $-1 -54.644001586962489 0 -13.675678881946563 0 1 0 I I #
point $-1 -54.644001586962489 -32.054634605049003 -13.675678881946563 #
face $-1 $752 $753 $18 $-1 $754 reversed single #
loop $-1 $-1 $755 $600 #
plane-surface $-1 0 -32.054634605049003 0 0 1 0 0 0 1 forward_v I I I I #
coedge $-1 $756 $757 $755 $758 reversed $601 $-1 #
coedge $-1 $606 $603 $712 $759 reversed $502 $-1 #
coedge $-1 $603 $606 $760 $761 reversed $502 $-1 #
coedge $-1 $757 $756 $603 $691 forward $601 $-1 #
edge $-1 $762 -13.675678881946563 $763 13.675678881946563 $690 $764 forward 7 unknown #
coedge $-1 $605 $604 $714 $765 reversed $410 $-1 #
edge $-1 $716 -20.141014264686842 $696 -3.6862264160374814 $622 $766 forward 7 unknown #
coedge $-1 $767 $760 $605 $695 forward $753 $-1 #
edge $-1 $697 3.6862264160374814 $768 20.141014264686842 $694 $769 forward 7 unknown #
vertex $-1 $693 $770 #
vertex $-1 $695 $771 #
straight-curve $-1 -49.689194019571232 -15.599846756399643 0 0 0 -1 I I #
coedge $-1 $608 $772 $773 $774 forward $331 $-1 #
coedge $-1 $775 $776 $608 $701 reversed $710 $-1 #
edge $-1 $777 -32.054634605049003 $703 32.054634605049003 $700 $778 forward 7 unknown #
coedge $-1 $617 $609 $776 $779 forward $423 $-1 #
vertex $-1 $701 $780 #
point $-1 -17.248717393703174 32.054634605049003 7.8450780296759248 #
coedge $-1 $781 $782 $617 $706 forward $753 $-1 #
edge $-1 $708 -54.644001586962489 $783 54.644001586962489 $617 $784 forward 7 unknown #
coedge $-1 $625 $618 $782 $785 reversed $626 $-1 #
vertex $-1 $706 $786 #
straight-curve $-1 -54.644001586962489 32.054634605049003 0 0 0 -1 I I #
loop $-1 $-1 $775 $620 #
plane-surface $-1 54.644001586962489 0 0 -1 0 0 0 0 1 forward_v I I I I #
coedge $-1 $772 $622 $688 $759 forward $331 $-1 #
coedge $-1 $787 $623 $625 $718 forward $715 $-1 #
coedge $-1 $623 $787 $692 $765 forward $715 $-1 #
loop $-1 $-1 $714 $752 #
vertex $-1 $765 $788 #
straight-curve $-1 0 -32.054634605049003 13.675678881946563 1 0 0 I I #
edge $-1 $627 -13.675678881946563 $789 13.675678881946563 $625 $790 forward 7 unknown #
face $-1 $516 $626 $18 $-1 $791 reversed single #
point $-1 -54.644001586962489 -32.054634605049003 13.675678881946563 #
face $-1 $792 $793 $19 $-1 $794 forward single #
loop $-1 $-1 $795 $630 #
plane-surface $-1 -47.751093185680574 -15.599846756399643 0 0 -1 0 0 0 -1 forward_v I I I I #
coedge $-1 $796 $797 $798 $799 reversed $631 $-1 #
coedge $-1 $633 $800 $801 $802 forward $523 $-1 #
coedge $-1 $801 $640 $634 $727 forward $642 $-1 #
edge $-1 $739 -50.6050132667444 $728 -44.774412414473758 $726 $803 forward 7 unknown #
vertex $-1 $727 $804 #
straight-curve $-1 -17.248717393703174 48.279643595033484 13.675678881946567 0 -1 0 I I #
edge $-1 $638 -24.912246855663298 $739 -3.1950626439143495 $640 $805 forward 7 unknown #
point $-1 -38.965901605452125 32.054634605049003 7.8450780296759248 #
coedge $-1 $641 $806 $807 $808 reversed $642 $-1 #
face $-1 $809 $642 $19 $-1 $810 reversed single #
coedge $-1 $811 $644 $812 $813 forward $523 $-1 #
coedge $-1 $807 $814 $644 $736 reversed $815 $-1 #
edge $-1 $737 -32.054634605049003 $816 32.054634605049003 $735 $817 forward 7 unknown #
vertex $-1 $645 $818 #
straight-curve $-1 0 32.054634605049003 13.675678881946563 -1 0 0 I I #
vertex $-1 $730 $819 #
straight-curve $-1 -17.248717393703174 0.97384502691409125 63.91630877996819 0 -0.48480960649040278 0.87461971476443456 I I #
point $-1 -17.248717393703174 28.822679897106848 13.675678881946567 #
straight-curve $-1 54.644001586962489 32.054634605049003 0 0 0 -1 I I #
edge $-1 $749 -54.644001586962489 $665 45.812992351789916 $660 $748 forward 7 unknown #
straight-curve $-1 -45.812992351789916 -11.913620340362161 13.675678881946563 0 -1 0 I I #
straight-curve $-1 -45.812992351789916 -11.913620340362161 -13.675678881946563 0 1 0 I I #
point $-1 -45.812992351789916 -32.054634605049003 13.675678881946563 #
point $-1 -45.812992351789916 -32.054634605049003 -13.675678881946563 #
straight-curve $-1 0 -32.054634605049003 -13.675678881946563 -1 0 0 I I #
vertex $-1 $676 $820 #
straight-curve $-1 54.644001586962489 -32.054634605049003 0 0 0 -1 I I #
straight-curve $-1 54.644001586962489 0 -13.675678881946563 0 -1 0 I I #
face $-1 $719 $715 $18 $-1 $686 reversed single #
loop $-1 $-1 $694 $684 #
plane-surface $-1 0 0 -13.675678881946563 0 0 1 1 0 0 forward_v I I I I #
coedge $-1 $821 $773 $687 $758 forward $685 $-1 #
coedge $-1 $690 $687 $772 $822 reversed $601 $-1 #
coedge $-1 $687 $690 $823 $824 reversed $601 $-1 #
edge $-1 $825 -13.675678881946563 $826 13.675678881946563 $755 $827 forward 7 unknown #
edge $-1 $696 -25.813647426730945 $762 -21.937445758949629 $712 $828 forward 7 unknown #
coedge $-1 $694 $823 $689 $761 forward $753 $-1 #
edge $-1 $763 21.937445758949629 $697 25.813647426730945 $760 $829 forward 7 unknown #
vertex $-1 $759 $830 #
vertex $-1 $761 $831 #
straight-curve $-1 -45.812992351789916 -15.599846756399643 0 0 0 -1 I I #
edge $-1 $768 -13.675678881946563 $716 13.675678881946563 $714 $832 forward 7 unknown #
straight-curve $-1 -49.689194019571232 -11.913620340362161 13.675678881946563 0 1 0 I I #
coedge $-1 $782 $694 $787 $833 forward $753 $-1 #
vertex $-1 $833 $834 #
straight-curve $-1 -49.689194019571232 -11.913620340362161 -13.675678881946563 0 -1 0 I I #
point $-1 -49.689194019571232 -15.599846756399643 13.675678881946563 #
point $-1 -49.689194019571232 -15.599846756399643 -13.675678881946563 #
coedge $-1 $699 $712 $756 $822 forward $331 $-1 #
coedge $-1 $755 $835 $699 $774 reversed $685 $-1 #
edge $-1 $825 -45.812992351789916 $777 54.644001586962489 $773 $717 forward 7 unknown #
coedge $-1 $836 $700 $835 $837 forward $710 $-1 #
coedge $-1 $700 $836 $702 $779 reversed $710 $-1 #
vertex $-1 $701 $838 #
straight-curve $-1 54.644001586962489 0 13.675678881946563 0 1 0 I I #
edge $-1 $703 -13.675678881946563 $783 13.675678881946563 $776 $839 forward 7 unknown #
point $-1 54.644001586962489 32.054634605049003 13.675678881946563 #
coedge $-1 $840 $705 $836 $841 forward $753 $-1 #
coedge $-1 $705 $767 $707 $785 forward $753 $-1 #
vertex $-1 $841 $842 #
straight-curve $-1 0 32.054634605049003 -13.675678881946563 1 0 0 I I #
edge $-1 $789 -32.054634605049003 $708 32.054634605049003 $707 $843 forward 7 unknown #
point $-1 -54.644001586962489 32.054634605049003 -13.675678881946563 #
coedge $-1 $714 $713 $767 $833 reversed $715 $-1 #
point $-1 -49.689194019571232 -32.054634605049003 13.675678881946563 #
vertex $-1 $785 $844 #
straight-curve $-1 -54.644001586962489 -32.054634605049003 0 0 0 -1 I I #
plane-surface $-1 -54.644001586962489 0 0 1 0 0 0 0 -1 forward_v I I I I #
face $-1 $845 $846 $19 $-1 $847 reversed single #
loop $-1 $-1 $848 $721 #
plane-surface $-1 -45.812992351789916 -23.827240680724323 0 -1 0 0 0 0 1 forward_v I I I I #
coedge $-1 $849 $850 $851 $852 reversed $722 $-1 #
coedge $-1 $853 $724 $811 $854 reversed $631 $-1 #
coedge $-1 $724 $853 $855 $856 reversed $631 $-1 #
coedge $-1 $850 $849 $724 $799 forward $722 $-1 #
edge $-1 $857 -13.675678881946563 $858 13.675678881946563 $798 $859 forward 7 unknown #
coedge $-1 $725 $860 $861 $862 forward $523 $-1 #
coedge $-1 $863 $726 $725 $802 reversed $642 $-1 #
edge $-1 $864 -54.644001586962489 $728 17.248717393703174 $801 $738 forward 7 unknown #
straight-curve $-1 -17.248717393703174 32.054634605049003 58.450091296420325 0 0 1 I I #
point $-1 -17.248717393703174 32.054634605049003 13.675678881946563 #
straight-curve $-1 -14.053654749788825 32.054634605049003 7.8450780296759248 1 0 0 I I #
coedge $-1 $732 $863 $865 $866 reversed $642 $-1 #
coedge $-1 $867 $735 $732 $808 forward $815 $-1 #
edge $-1 $737 -13.675678881946563 $868 13.675678881946563 $732 $869 forward 7 unknown #
face $-1 $-1 $870 $19 $-1 $871 reversed single #
plane-surface $-1 0 32.054634605049003 0 0 -1 0 0 0 -1 forward_v I I I I #
coedge $-1 $872 $734 $796 $854 forward $523 $-1 #
coedge $-1 $873 $874 $734 $813 reversed $875 $-1 #
edge $-1 $816 -54.644001586962489 $876 -49.689194019571232 $812 $877 forward 7 unknown #
coedge $-1 $735 $867 $873 $878 reversed $815 $-1 #
loop $-1 $-1 $807 $879 #
vertex $-1 $736 $880 #
straight-curve $-1 -54.644001586962489 0 13.675678881946563 0 -1 0 I I #
point $-1 -54.644001586962489 32.054634605049003 13.675678881946563 #
point $-1 -17.248717393703174 32.054634605049003 7.8450780296759248 #
point $-1 54.644001586962489 -32.054634605049003 -13.675678881946563 #
coedge $-1 $835 $755 $840 $881 reversed $685 $-1 #
edge $-1 $762 3.6862264160374814 $825 20.141014264686842 $772 $882 forward 7 unknown #
coedge $-1 $760 $840 $757 $824 forward $753 $-1 #
edge $-1 $826 -20.141014264686842 $763 -3.6862264160374814 $823 $883 forward 7 unknown #
vertex $-1 $774 $884 #
vertex $-1 $758 $885 #
straight-curve $-1 -45.812992351789916 -32.054634605049003 0 0 0 -1 I I #
straight-curve $-1 -23.875546592840287 -15.599846756399643 13.675678881946563 1 0 0 I I #
straight-curve $-1 -23.875546592840287 -15.599846756399643 -13.675678881946563 -1 0 0 I I #
point $-1 -45.812992351789916 -15.599846756399643 13.675678881946563 #
point $-1 -45.812992351789916 -15.599846756399643 -13.675678881946563 #
straight-curve $-1 -49.689194019571232 -32.054634605049003 0 0 0 1 I I #
edge $-1 $768 49.689194019571232 $789 54.644001586962489 $787 $886 forward 7 unknown #
point $-1 -49.689194019571232 -32.054634605049003 -13.675678881946563 #
coedge $-1 $773 $821 $775 $837 reversed $685 $-1 #
coedge $-1 $776 $775 $781 $841 reversed $710 $-1 #
edge $-1 $777 -13.675678881946563 $887 13.675678881946563 $775 $888 forward 7 unknown #
point $-1 54.644001586962489 -32.054634605049003 13.675678881946563 #
straight-curve $-1 54.644001586962489 32.054634605049003 0 0 0 -1 I I #
coedge $-1 $823 $781 $821 $881 forward $753 $-1 #
edge $-1 $783 -32.054634605049003 $887 32.054634605049003 $836 $889 forward 7 unknown #
point $-1 54.644001586962489 32.054634605049003 -13.675678881946563 #
straight-curve $-1 -54.644001586962489 0 -13.675678881946563 0 1 0 I I #
point $-1 -54.644001586962489 -32.054634605049003 -13.675678881946563 #
face $-1 $890 $891 $19 $-1 $892 reversed single #
loop $-1 $-1 $893 $792 #
plane-surface $-1 0 -32.054634605049003 0 0 1 0 0 0 1 forward_v I I I I #
coedge $-1 $894 $895 $893 $896 reversed $793 $-1 #
coedge $-1 $798 $795 $872 $897 reversed $722 $-1 #
coedge $-1 $795 $798 $898 $899 reversed $722 $-1 #
coedge $-1 $895 $894 $795 $852 forward $793 $-1 #
edge $-1 $900 -13.675678881946563 $901 13.675678881946563 $851 $902 forward 7 unknown #
coedge $-1 $797 $796 $874 $903 reversed $631 $-1 #
edge $-1 $876 -20.141014264686842 $857 -3.6862264160374814 $811 $904 forward 7 unknown #
coedge $-1 $905 $898 $797 $856 forward $891 $-1 #
edge $-1 $858 3.6862264160374814 $906 20.141014264686842 $855 $907 forward 7 unknown #
vertex $-1 $854 $908 #
vertex $-1 $856 $909 #
straight-curve $-1 -49.689194019571232 -15.599846756399643 0 0 0 -1 I I #
coedge $-1 $800 $910 $911 $912 forward $523 $-1 #
coedge $-1 $913 $914 $800 $862 reversed $870 $-1 #
edge $-1 $915 -32.054634605049003 $864 32.054634605049003 $861 $916 forward 7 unknown #
coedge $-1 $806 $801 $914 $917 forward $642 $-1 #
vertex $-1 $862 $918 #
coedge $-1 $919 $920 $806 $866 forward $891 $-1 #
edge $-1 $868 -54.644001586962489 $921 54.644001586962489 $806 $922 forward 7 unknown #
coedge $-1 $814 $807 $920 $923 reversed $815 $-1 #
vertex $-1 $866 $924 #
straight-curve $-1 -54.644001586962489 32.054634605049003 0 0 0 -1 I I #
loop $-1 $-1 $913 $809 #
plane-surface $-1 54.644001586962489 0 0 -1 0 0 0 0 1 forward_v I I I I #
coedge $-1 $910 $811 $849 $897 forward $523 $-1 #
coedge $-1 $925 $812 $814 $878 forward $875 $-1 #
coedge $-1 $812 $925 $853 $903 forward $875 $-1 #
loop $-1 $-1 $874 $890 #
vertex $-1 $903 $926 #
straight-curve $-1 0 -32.054634605049003 13.675678881946563 1 0 0 I I #
edge $-1 $816 -13.675678881946563 $927 13.675678881946563 $814 $928 forward 7 unknown #
face $-1 $733 $815 $19 $-1 $929 reversed single #
point $-1 -54.644001586962489 -32.054634605049003 13.675678881946563 #
edge $-1 $887 -54.644001586962489 $826 45.812992351789916 $821 $886 forward 7 unknown #
straight-curve $-1 -45.812992351789916 -11.913620340362161 13.675678881946563 0 -1 0 I I #
straight-curve $-1 -45.812992351789916 -11.913620340362161 -13.675678881946563 0 1 0 I I #
point $-1 -45.812992351789916 -32.054634605049003 13.675678881946563 #
point $-1 -45.812992351789916 -32.054634605049003 -13.675678881946563 #
straight-curve $-1 0 -32.054634605049003 -13.675678881946563 -1 0 0 I I #
vertex $-1 $837 $930 #
straight-curve $-1 54.644001586962489 -32.054634605049003 0 0 0 -1 I I #
straight-curve $-1 54.644001586962489 0 -13.675678881946563 0 -1 0 I I #
face $-1 $879 $875 $19 $-1 $847 reversed single #
loop $-1 $-1 $855 $845 #
plane-surface $-1 0 0 -13.675678881946563 0 0 1 1 0 0 forward_v I I I I #
coedge $-1 $931 $911 $848 $896 forward $846 $-1 #
coedge $-1 $851 $848 $910 $932 reversed $793 $-1 #
coedge $-1 $848 $851 $933 $934 reversed $793 $-1 #
edge $-1 $935 -13.675678881946563 $936 13.675678881946563 $893 $937 forward 7 unknown #
edge $-1 $857 -25.813647426730945 $900 -21.937445758949629 $872 $938 forward 7 unknown #
coedge $-1 $855 $933 $850 $899 forward $891 $-1 #
edge $-1 $901 21.937445758949629 $858 25.813647426730945 $898 $939 forward 7 unknown #
vertex $-1 $897 $940 #
vertex $-1 $899 $941 #
straight-curve $-1 -45.812992351789916 -15.599846756399643 0 0 0 -1 I I #
edge $-1 $906 -13.675678881946563 $876 13.675678881946563 $874 $942 forward 7 unknown #
straight-curve $-1 -49.689194019571232 -11.913620340362161 13.675678881946563 0 1 0 I I #
coedge $-1 $920 $855 $925 $943 forward $891 $-1 #
vertex $-1 $943 $944 #
straight-curve $-1 -49.689194019571232 -11.913620340362161 -13.675678881946563 0 -1 0 I I #
point $-1 -49.689194019571232 -15.599846756399643 13.675678881946563 #
point $-1 -49.689194019571232 -15.599846756399643 -13.675678881946563 #
coedge $-1 $860 $872 $894 $932 forward $523 $-1 #
coedge $-1 $893 $945 $860 $912 reversed $846 $-1 #
edge $-1 $935 -45.812992351789916 $915 54.644001586962489 $911 $877 forward 7 unknown #
coedge $-1 $946 $861 $945 $947 forward $870 $-1 #
coedge $-1 $861 $946 $863 $917 reversed $870 $-1 #
vertex $-1 $862 $948 #
straight-curve $-1 54.644001586962489 0 13.675678881946563 0 1 0 I I #
edge $-1 $864 -13.675678881946563 $921 13.675678881946563 $914 $949 forward 7 unknown #
point $-1 54.644001586962489 32.054634605049003 13.675678881946563 #
coedge $-1 $950 $865 $946 $951 forward $891 $-1 #
coedge $-1 $865 $905 $867 $923 forward $891 $-1 #
vertex $-1 $951 $952 #
straight-curve $-1 0 32.054634605049003 -13.675678881946563 1 0 0 I I #
edge $-1 $927 -32.054634605049003 $868 32.054634605049003 $867 $953 forward 7 unknown #
point $-1 -54.644001586962489 32.054634605049003 -13.675678881946563 #
coedge $-1 $874 $873 $905 $943 reversed $875 $-1 #
point $-1 -49.689194019571232 -32.054634605049003 13.675678881946563 #
vertex $-1 $923 $954 #
straight-curve $-1 -54.644001586962489 -32.054634605049003 0 0 0 -1 I I #
plane-surface $-1 -54.644001586962489 0 0 1 0 0 0 0 -1 forward_v I I I I #
point $-1 54.644001586962489 -32.054634605049003 -13.675678881946563 #
coedge $-1 $945 $893 $950 $955 reversed $846 $-1 #
edge $-1 $900 3.6862264160374814 $935 20.141014264686842 $910 $956 forward 7 unknown #
coedge $-1 $898 $950 $895 $934 forward $891 $-1 #
edge $-1 $936 -20.141014264686842 $901 -3.6862264160374814 $933 $957 forward 7 unknown #
vertex $-1 $912 $958 #
vertex $-1 $896 $959 #
straight-curve $-1 -45.812992351789916 -32.054634605049003 0 0 0 -1 I I #
straight-curve $-1 -23.875546592840287 -15.599846756399643 13.675678881946563 1 0 0 I I #
straight-curve $-1 -23.875546592840287 -15.599846756399643 -13.675678881946563 -1 0 0 I I #
point $-1 -45.812992351789916 -15.599846756399643 13.675678881946563 #
point $-1 -45.812992351789916 -15.599846756399643 -13.675678881946563 #
straight-curve $-1 -49.689194019571232 -32.054634605049003 0 0 0 1 I I #
edge $-1 $906 49.689194019571232 $927 54.644001586962489 $925 $960 forward 7 unknown #
point $-1 -49.689194019571232 -32.054634605049003 -13.675678881946563 #
coedge $-1 $911 $931 $913 $947 reversed $846 $-1 #
coedge $-1 $914 $913 $919 $951 reversed $870 $-1 #
edge $-1 $915 -13.675678881946563 $961 13.675678881946563 $913 $962 forward 7 unknown #
point $-1 54.644001586962489 -32.054634605049003 13.675678881946563 #
straight-curve $-1 54.644001586962489 32.054634605049003 0 0 0 -1 I I #
coedge $-1 $933 $919 $931 $955 forward $891 $-1 #
edge $-1 $921 -32.054634605049003 $961 32.054634605049003 $946 $963 forward 7 unknown #
point $-1 54.644001586962489 32.054634605049003 -13.675678881946563 #
straight-curve $-1 -54.644001586962489 0 -13.675678881946563 0 1 0 I I #
point $-1 -54.644001586962489 -32.054634605049003 -13.675678881946563 #
edge $-1 $961 -54.644001586962489 $936 45.812992351789916 $931 $960 forward 7 unknown #
straight-curve $-1 -45.812992351789916 -11.913620340362161 13.675678881946563 0 -1 0 I I #
straight-curve $-1 -45.812992351789916 -11.913620340362161 -13.675678881946563 0 1 0 I I #
point $-1 -45.812992351789916 -32.054634605049003 13.675678881946563 #
point $-1 -45.812992351789916 -32.054634605049003 -13.675678881946563 #
straight-curve $-1 0 -32.054634605049003 -13.675678881946563 -1 0 0 I I #
vertex $-1 $947 $964 #
straight-curve $-1 54.644001586962489 -32.054634605049003 0 0 0 -1 I I #
straight-curve $-1 54.644001586962489 0 -13.675678881946563 0 -1 0 I I #
point $-1 54.644001586962489 -32.054634605049003 -13.675678881946563 #
End-of-ACIS-data 