500 0 12 0           
7 Unknown 11 ACIS 5.0 NT 24 Fri Mar 26 00:10:50 1999 
-1 9.9999999999999995e-007 1e-010 
body $-1 $12 $-1 $13 #
body $-1 $14 $-1 $15 #
body $-1 $16 $-1 $17 #
body $-1 $18 $-1 $19 #
body $-1 $20 $-1 $21 #
body $-1 $22 $-1 $23 #
body $-1 $24 $-1 $25 #
body $-1 $26 $-1 $27 #
body $-1 $28 $-1 $29 #
body $-1 $30 $-1 $31 #
body $-1 $32 $-1 $33 #
body $-1 $34 $-1 $35 #
lump $-1 $-1 $36 $0 #
transform $-1 1 0 0 0 1 0 0 0 1 77.414471877193506 52.689659380193305 21.000769691191216 1 rotate no_reflect no_shear #
lump $-1 $-1 $37 $1 #
transform $-1 1 0 0 0 1 0 0 0 1 77.414471877193506 52.689659380193305 21.000769691191216 1 rotate no_reflect no_shear #
lump $-1 $-1 $38 $2 #
transform $-1 1 0 0 0 1 0 0 0 1 77.414471877193506 52.689659380193305 21.000769691191216 1 rotate no_reflect no_shear #
lump $-1 $-1 $39 $3 #
transform $-1 1 0 0 0 1 0 0 0 1 77.414471877193506 52.689659380193305 21.000769691191216 1 rotate no_reflect no_shear #
lump $-1 $-1 $40 $4 #
transform $-1 1 0 0 0 1 0 0 0 1 77.414471877193506 52.689659380193305 21.000769691191216 1 rotate no_reflect no_shear #
lump $-1 $-1 $41 $5 #
transform $-1 1 0 0 0 1 0 0 0 1 77.414471877193506 52.689659380193305 21.000769691191216 1 rotate no_reflect no_shear #
lump $-1 $-1 $42 $6 #
transform $-1 1 0 0 0 1 0 0 0 1 77.414471877193506 52.689659380193305 21.000769691191216 1 rotate no_reflect no_shear #
lump $-1 $-1 $43 $7 #
transform $-1 1 0 0 0 1 0 0 0 1 77.414471877193506 52.689659380193305 21.000769691191216 1 rotate no_reflect no_shear #
lump $-1 $-1 $44 $8 #
transform $-1 1 0 0 0 1 0 0 0 1 77.414471877193506 52.689659380193305 21.000769691191216 1 rotate no_reflect no_shear #
lump $-1 $-1 $45 $9 #
transform $-1 1 0 0 0 1 0 0 0 1 77.414471877193506 52.689659380193305 21.000769691191216 1 rotate no_reflect no_shear #
lump $-1 $-1 $46 $10 #
transform $-1 1 0 0 0 1 0 0 0 1 77.414471877193506 52.689659380193305 21.000769691191216 1 rotate no_reflect no_shear #
lump $-1 $-1 $47 $11 #
transform $-1 1 0 0 0 1 0 0 0 1 77.414471877193506 52.689659380193305 21.000769691191216 1 rotate no_reflect no_shear #
shell $-1 $-1 $-1 $48 $-1 $12 #
shell $-1 $-1 $-1 $49 $-1 $14 #
shell $-1 $-1 $-1 $50 $-1 $16 #
shell $-1 $-1 $-1 $51 $-1 $18 #
shell $-1 $-1 $-1 $52 $-1 $20 #
shell $-1 $-1 $-1 $53 $-1 $22 #
shell $-1 $-1 $-1 $54 $-1 $24 #
shell $-1 $-1 $-1 $55 $-1 $26 #
shell $-1 $-1 $-1 $56 $-1 $28 #
shell $-1 $-1 $-1 $57 $-1 $30 #
shell $-1 $-1 $-1 $58 $-1 $32 #
shell $-1 $-1 $-1 $59 $-1 $34 #
face $-1 $60 $61 $36 $-1 $62 forward single #
face $-1 $63 $64 $37 $-1 $65 reversed single #
face $-1 $66 $67 $38 $-1 $68 reversed single #
face $-1 $69 $70 $39 $-1 $71 forward single #
face $-1 $72 $73 $40 $-1 $74 forward single #
face $-1 $75 $76 $41 $-1 $77 reversed single #
face $-1 $78 $79 $42 $-1 $80 forward single #
face $-1 $81 $82 $43 $-1 $83 forward single #
face $-1 $84 $85 $44 $-1 $86 reversed single #
face $-1 $87 $88 $45 $-1 $89 forward single #
face $-1 $90 $91 $46 $-1 $92 forward single #
face $-1 $93 $94 $47 $-1 $95 forward single #
face $-1 $96 $97 $36 $-1 $98 reversed single #
loop $-1 $-1 $99 $48 #
plane-surface $-1 0 0 21.000769691191216 0 0 1 1 0 0 forward_v I I I I #
face $-1 $100 $101 $37 $-1 $102 reversed single #
loop $-1 $-1 $103 $49 #
plane-surface $-1 0 -39.769061927161061 12.22757910325701 0 0 1 1 0 0 forward_v I I I I #
face $-1 $104 $105 $38 $-1 $106 reversed single #
loop $-1 $-1 $107 $50 #
plane-surface $-1 -212.83091850093413 -19.404396402146752 92.522762032250768 0 1 0 -0.87461971476443456 0 0.48480960649040278 forward_v I I I I #
face $-1 $108 $109 $39 $-1 $110 forward single #
loop $-1 $111 $112 $51 #
cone-surface $-1 -75.841731081262282 -16.992165233297342 18.902636436591056 0.87461971476443456 0 -0.48480960649040278 0.48480960649040278 0 0.87461971476443456 1 I I 0 1 1 forward I I I I #
face $-1 $113 $114 $40 $-1 $115 forward single #
loop $-1 $116 $117 $52 #
cone-surface $-1 -75.841731081262282 -13.373818480023225 18.902636436591056 0.87461971476443456 0 -0.48480960649040278 0.48480960649040278 0 0.87461971476443456 1 I I 0 1 1 forward I I I I #
face $-1 $118 $119 $41 $-1 $120 reversed single #
loop $-1 $-1 $121 $53 #
plane-surface $-1 -212.83091850093413 20.36466552501431 92.522762032250768 0 1 0 -0.87461971476443456 0 0.48480960649040278 forward_v I I I I #
face $-1 $122 $123 $42 $-1 $124 forward single #
loop $-1 $125 $126 $54 #
cone-surface $-1 -75.841731081262282 22.776896693863719 18.902636436591056 0.87461971476443456 0 -0.48480960649040278 0.48480960649040278 0 0.87461971476443456 1 I I 0 1 1 forward I I I I #
face $-1 $127 $128 $43 $-1 $129 forward single #
loop $-1 $130 $131 $55 #
cone-surface $-1 -75.841731081262282 26.395243447137844 18.902636436591056 0.87461971476443456 0 -0.48480960649040278 0.48480960649040278 0 0.87461971476443456 1 I I 0 1 1 forward I I I I #
face $-1 $132 $133 $44 $-1 $134 reversed single #
loop $-1 $-1 $135 $56 #
plane-surface $-1 73.593074642253185 -3.4968272713874597 226.22549717528659 0 -1 0 -0.69465837861970381 0 -0.71933979245794832 forward_v I I I I #
face $-1 $136 $137 $45 $-1 $138 forward single #
loop $-1 $139 $140 $57 #
cone-surface $-1 69.66739782610496 -10.789662724981788 13.473964950047483 -0.69465837861970381 0 -0.71933979245794832 0.35966989622897416 0 -0.3473291893098519 1 I I 0 1 0.5 forward I I I I #
face $-1 $141 $142 $46 $-1 $143 forward single #
loop $-1 $144 $145 $58 #
cone-surface $-1 69.66739782610496 -8.0548494298839159 13.473964950047483 -0.69465837861970381 0 -0.71933979245794832 0.35966989622897416 0 -0.3473291893098519 1 I I 0 1 0.5 forward I I I I #
face $-1 $146 $147 $47 $-1 $148 forward single #
loop $-1 $149 $150 $59 #
cone-surface $-1 69.66739782610496 -5.3200361347860436 13.473964950047483 -0.69465837861970381 0 -0.71933979245794832 0.35966989622897416 0 -0.3473291893098519 1 I I 0 1 0.5 forward I I I I #
face $-1 $151 $152 $36 $-1 $153 reversed single #
loop $-1 $-1 $154 $60 #
plane-surface $-1 0 0 -21.000769691191216 0 0 1 1 0 0 forward_v I I I I #
coedge $-1 $155 $156 $157 $158 forward $61 $-1 #
face $-1 $159 $160 $37 $-1 $161 reversed single #
loop $-1 $-1 $162 $63 #
plane-surface $-1 0 -26.848464474128814 16.614174397224112 0 -1 0 0 0 -1 forward_v I I I I #
coedge $-1 $163 $164 $165 $166 reversed $64 $-1 #
face $-1 $167 $168 $38 $-1 $169 reversed single #
loop $-1 $-1 $170 $66 #
plane-surface $-1 -77.414471877193478 -15.18299185666028 17.460202737361698 -0.87461971476443456 0 0.48480960649040278 0.48480960649040278 0 0.87461971476443456 forward_v I I I I #
coedge $-1 $171 $172 $173 $174 reversed $67 $-1 #
face $-1 $-1 $175 $39 $-1 $176 forward single #
loop $-1 $177 $178 $69 #
cone-surface $-1 -74.81296454644216 -16.992165233297342 18.332381855660451 0.87461971476443456 0 -0.48480960649040278 0.24240480324520139 0 0.43730985738221728 1 I I -0.70710678118654746 0.70710678118654746 0.5 forward I I I I #
loop $-1 $-1 $179 $51 #
coedge $-1 $112 $112 $180 $181 reversed $70 $-1 #
face $-1 $-1 $182 $40 $-1 $183 forward single #
loop $-1 $184 $185 $72 #
cone-surface $-1 -74.81296454644216 -13.373818480023225 18.332381855660451 0.87461971476443456 0 -0.48480960649040278 0.24240480324520139 0 0.43730985738221728 1 I I -0.70710678118654746 0.70710678118654746 0.5 forward I I I I #
loop $-1 $-1 $186 $52 #
coedge $-1 $117 $117 $187 $188 reversed $73 $-1 #
face $-1 $189 $190 $41 $-1 $191 reversed single #
loop $-1 $-1 $192 $75 #
plane-surface $-1 -77.414471877193478 24.586070070500782 17.460202737361698 -0.87461971476443456 0 0.48480960649040278 0.48480960649040278 0 0.87461971476443456 forward_v I I I I #
coedge $-1 $193 $194 $195 $196 reversed $76 $-1 #
face $-1 $-1 $197 $42 $-1 $198 forward single #
loop $-1 $199 $200 $78 #
cone-surface $-1 -74.81296454644216 22.776896693863719 18.332381855660451 0.87461971476443456 0 -0.48480960649040278 0.24240480324520139 0 0.43730985738221728 1 I I -0.70710678118654746 0.70710678118654746 0.5 forward I I I I #
loop $-1 $-1 $201 $54 #
coedge $-1 $126 $126 $202 $203 reversed $79 $-1 #
face $-1 $-1 $204 $43 $-1 $205 forward single #
loop $-1 $206 $207 $81 #
cone-surface $-1 -74.81296454644216 26.395243447137844 18.332381855660451 0.87461971476443456 0 -0.48480960649040278 0.24240480324520139 0 0.43730985738221728 1 I I -0.70710678118654746 0.70710678118654746 0.5 forward I I I I #
loop $-1 $-1 $208 $55 #
coedge $-1 $131 $131 $209 $210 reversed $82 $-1 #
face $-1 $211 $212 $44 $-1 $213 reversed single #
loop $-1 $-1 $214 $84 #
plane-surface $-1 -33.96014838957062 -8.0548494298839159 114.85087690852248 0.69465837861970381 0 0.71933979245794832 0.71933979245794832 0 -0.69465837861970381 forward_v I I I I #
coedge $-1 $215 $216 $217 $218 reversed $85 $-1 #
face $-1 $-1 $219 $45 $-1 $220 forward single #
loop $-1 $221 $222 $87 #
cone-surface $-1 68.841654928926943 -10.789662724981788 12.618883168035545 -0.69465837861970381 0 -0.71933979245794832 0.17983494811448708 0 -0.17366459465492595 1 I I -0.70710678118654746 0.70710678118654746 0.25 forward I I I I #
loop $-1 $-1 $223 $57 #
coedge $-1 $140 $140 $224 $225 reversed $88 $-1 #
face $-1 $-1 $226 $46 $-1 $227 forward single #
loop $-1 $228 $229 $90 #
cone-surface $-1 68.841654928926943 -8.0548494298839159 12.618883168035545 -0.69465837861970381 0 -0.71933979245794832 0.17983494811448708 0 -0.17366459465492595 1 I I -0.70710678118654746 0.70710678118654746 0.25 forward I I I I #
loop $-1 $-1 $230 $58 #
coedge $-1 $145 $145 $231 $232 reversed $91 $-1 #
face $-1 $-1 $233 $47 $-1 $234 forward single #
loop $-1 $235 $236 $93 #
cone-surface $-1 68.841654928926943 -5.3200361347860436 12.618883168035545 -0.69465837861970381 0 -0.71933979245794832 0.17983494811448708 0 -0.17366459465492595 1 I I -0.70710678118654746 0.70710678118654746 0.25 forward I I I I #
loop $-1 $-1 $237 $59 #
coedge $-1 $150 $150 $238 $239 reversed $94 $-1 #
face $-1 $240 $241 $36 $-1 $242 reversed single #
loop $-1 $-1 $243 $96 #
plane-surface $-1 0 -52.689659380193305 0 0 1 0 0 0 1 forward_v I I I I #
coedge $-1 $244 $245 $246 $247 forward $97 $-1 #
coedge $-1 $248 $99 $249 $250 forward $61 $-1 #
coedge $-1 $99 $248 $251 $252 forward $61 $-1 #
coedge $-1 $253 $254 $99 $158 reversed $255 $-1 #
edge $-1 $256 -52.689659380193305 $257 52.689659380193305 $157 $258 forward 7 unknown #
face $-1 $259 $260 $37 $-1 $261 reversed single #
loop $-1 $-1 $262 $100 #
plane-surface $-1 -77.414471877193506 0 0 1 0 0 0 0 -1 forward_v I I I I #
coedge $-1 $263 $264 $265 $266 reversed $101 $-1 #
coedge $-1 $267 $103 $268 $269 reversed $64 $-1 #
coedge $-1 $103 $267 $263 $270 forward $64 $-1 #
coedge $-1 $265 $271 $103 $166 forward $272 $-1 #
edge $-1 $273 -32.805128416612774 $274 -6.9639335105482836 $165 $275 forward 7 unknown #
face $-1 $276 $277 $38 $-1 $278 forward single #
loop $-1 $-1 $279 $104 #
plane-surface $-1 -212.83091850093413 -10.961587311173808 92.522762032250768 0 -1 0 0.87461971476443456 0 -0.48480960649040278 forward_v I I I I #
coedge $-1 $280 $281 $282 $283 reversed $105 $-1 #
coedge $-1 $172 $107 $284 $285 reversed $67 $-1 #
coedge $-1 $107 $171 $280 $286 reversed $67 $-1 #
coedge $-1 $282 $287 $107 $174 forward $277 $-1 #
edge $-1 $288 29.00098737327356 $289 30.963555610260244 $173 $290 forward 7 unknown #
loop $-1 $-1 $180 $108 #
plane-surface $-1 -77.414471877193478 -15.18299185666028 17.460202737361698 -0.87461971476443456 0 0.48480960649040278 0.48480960649040278 0 0.87461971476443456 forward_v I I I I #
loop $-1 $-1 $291 $69 #
coedge $-1 $178 $178 $179 $292 reversed $109 $-1 #
coedge $-1 $179 $179 $178 $292 forward $111 $-1 #
coedge $-1 $180 $180 $112 $181 forward $175 $-1 #
edge $-1 $293 0 $293 6.2831853071796004 $180 $294 forward 7 unknown #
loop $-1 $-1 $187 $113 #
plane-surface $-1 -77.414471877193478 -15.18299185666028 17.460202737361698 -0.87461971476443456 0 0.48480960649040278 0.48480960649040278 0 0.87461971476443456 forward_v I I I I #
loop $-1 $-1 $295 $72 #
coedge $-1 $185 $185 $186 $296 reversed $114 $-1 #
coedge $-1 $186 $186 $185 $296 forward $116 $-1 #
coedge $-1 $187 $187 $117 $188 forward $182 $-1 #
edge $-1 $297 0 $297 6.2831853071796004 $187 $298 forward 7 unknown #
face $-1 $299 $300 $41 $-1 $301 forward single #
loop $-1 $-1 $302 $118 #
plane-surface $-1 -212.83091850093413 28.807474615987253 92.522762032250768 0 -1 0 0.87461971476443456 0 -0.48480960649040278 forward_v I I I I #
coedge $-1 $303 $304 $305 $306 reversed $119 $-1 #
coedge $-1 $194 $121 $307 $308 reversed $76 $-1 #
coedge $-1 $121 $193 $303 $309 reversed $76 $-1 #
coedge $-1 $305 $310 $121 $196 forward $300 $-1 #
edge $-1 $311 29.00098737327356 $312 30.963555610260244 $195 $313 forward 7 unknown #
loop $-1 $-1 $202 $122 #
plane-surface $-1 -77.414471877193478 24.586070070500782 17.460202737361698 -0.87461971476443456 0 0.48480960649040278 0.48480960649040278 0 0.87461971476443456 forward_v I I I I #
loop $-1 $-1 $314 $78 #
coedge $-1 $200 $200 $201 $315 reversed $123 $-1 #
coedge $-1 $201 $201 $200 $315 forward $125 $-1 #
coedge $-1 $202 $202 $126 $203 forward $197 $-1 #
edge $-1 $316 0 $316 6.2831853071796004 $202 $317 forward 7 unknown #
loop $-1 $-1 $209 $127 #
plane-surface $-1 -77.414471877193478 24.586070070500782 17.460202737361698 -0.87461971476443456 0 0.48480960649040278 0.48480960649040278 0 0.87461971476443456 forward_v I I I I #
loop $-1 $-1 $318 $81 #
coedge $-1 $207 $207 $208 $319 reversed $128 $-1 #
coedge $-1 $208 $208 $207 $319 forward $130 $-1 #
coedge $-1 $209 $209 $131 $210 forward $204 $-1 #
edge $-1 $320 0 $320 6.2831853071796004 $209 $321 forward 7 unknown #
face $-1 $322 $323 $44 $-1 $324 reversed single #
loop $-1 $-1 $325 $132 #
plane-surface $-1 73.593074642253185 -12.612871588380372 226.22549717528659 0 1 0 0.69465837861970381 0 0.71933979245794832 forward_v I I I I #
coedge $-1 $326 $327 $328 $329 reversed $133 $-1 #
coedge $-1 $216 $135 $330 $331 reversed $85 $-1 #
coedge $-1 $135 $215 $326 $332 reversed $85 $-1 #
coedge $-1 $328 $333 $135 $218 forward $334 $-1 #
edge $-1 $335 -40.617934556066913 $336 -26.427943058936066 $217 $337 forward 7 unknown #
loop $-1 $-1 $224 $136 #
plane-surface $-1 -33.96014838957062 -8.0548494298839159 114.85087690852248 0.69465837861970381 0 0.71933979245794832 0.71933979245794832 0 -0.69465837861970381 forward_v I I I I #
loop $-1 $-1 $338 $87 #
coedge $-1 $222 $222 $223 $339 reversed $137 $-1 #
coedge $-1 $223 $223 $222 $339 forward $139 $-1 #
coedge $-1 $224 $224 $140 $225 forward $219 $-1 #
edge $-1 $340 0 $340 6.2831853071796004 $224 $341 forward 7 unknown #
loop $-1 $-1 $231 $141 #
plane-surface $-1 -33.96014838957062 -8.0548494298839159 114.85087690852248 0.69465837861970381 0 0.71933979245794832 0.71933979245794832 0 -0.69465837861970381 forward_v I I I I #
loop $-1 $-1 $342 $90 #
coedge $-1 $229 $229 $230 $343 reversed $142 $-1 #
coedge $-1 $230 $230 $229 $343 forward $144 $-1 #
coedge $-1 $231 $231 $145 $232 forward $226 $-1 #
edge $-1 $344 0 $344 6.2831853071796004 $231 $345 forward 7 unknown #
loop $-1 $-1 $238 $146 #
plane-surface $-1 -33.96014838957062 -8.0548494298839159 114.85087690852248 0.69465837861970381 0 0.71933979245794832 0.71933979245794832 0 -0.69465837861970381 forward_v I I I I #
loop $-1 $-1 $346 $93 #
coedge $-1 $236 $236 $237 $347 reversed $147 $-1 #
coedge $-1 $237 $237 $236 $347 forward $149 $-1 #
coedge $-1 $238 $238 $150 $239 forward $233 $-1 #
edge $-1 $348 0 $348 6.2831853071796004 $238 $349 forward 7 unknown #
face $-1 $350 $351 $36 $-1 $352 reversed single #
loop $-1 $-1 $353 $151 #
plane-surface $-1 -77.414471877193506 0 0 1 0 0 0 0 -1 forward_v I I I I #
coedge $-1 $354 $251 $355 $356 forward $152 $-1 #
coedge $-1 $357 $154 $354 $358 forward $97 $-1 #
coedge $-1 $154 $357 $359 $360 forward $97 $-1 #
coedge $-1 $254 $253 $154 $247 reversed $255 $-1 #
edge $-1 $361 -52.689659380193305 $362 52.689659380193305 $246 $363 forward 7 unknown #
coedge $-1 $156 $155 $364 $365 forward $61 $-1 #
coedge $-1 $366 $367 $155 $250 reversed $351 $-1 #
edge $-1 $257 -77.414471877193506 $368 77.414471877193506 $249 $369 forward 7 unknown #
coedge $-1 $243 $370 $156 $252 reversed $152 $-1 #
edge $-1 $371 -77.414471877193506 $256 77.414471877193506 $251 $372 forward 7 unknown #
coedge $-1 $246 $157 $370 $373 forward $255 $-1 #
coedge $-1 $157 $246 $366 $374 reversed $255 $-1 #
loop $-1 $-1 $253 $350 #
vertex $-1 $158 $375 #
vertex $-1 $158 $376 #
straight-curve $-1 77.414471877193506 0 21.000769691191216 0 1 0 I I #
face $-1 $377 $378 $37 $-1 $379 forward single #
loop $-1 $-1 $268 $159 #
plane-surface $-1 0 -52.689659380193305 0 0 1 0 0 0 1 forward_v I I I I #
coedge $-1 $380 $381 $382 $383 forward $160 $-1 #
coedge $-1 $382 $162 $164 $270 reversed $101 $-1 #
coedge $-1 $162 $382 $384 $385 reversed $101 $-1 #
coedge $-1 $386 $165 $162 $266 forward $272 $-1 #
edge $-1 $274 3.9204919046449547 $387 12.693682492579157 $265 $388 forward 7 unknown #
coedge $-1 $164 $163 $380 $389 reversed $64 $-1 #
coedge $-1 $390 $391 $163 $269 forward $260 $-1 #
edge $-1 $392 -77.414471877193506 $273 77.414471877193506 $268 $393 forward 7 unknown #
edge $-1 $394 -77.414471877193506 $274 77.414471877193506 $263 $395 forward 7 unknown #
coedge $-1 $165 $386 $390 $396 forward $272 $-1 #
loop $-1 $-1 $265 $377 #
vertex $-1 $269 $397 #
vertex $-1 $166 $398 #
straight-curve $-1 77.414471877193506 -19.884530963580531 12.22757910325701 0 1 0 I I #
face $-1 $-1 $399 $38 $-1 $400 reversed single #
loop $-1 $-1 $173 $167 #
plane-surface $-1 0 0 21.000769691191216 0 0 1 1 0 0 forward_v I I I I #
coedge $-1 $401 $402 $403 $404 reversed $168 $-1 #
coedge $-1 $405 $170 $172 $286 forward $105 $-1 #
coedge $-1 $170 $405 $401 $406 forward $105 $-1 #
coedge $-1 $403 $173 $170 $283 forward $277 $-1 #
edge $-1 $289 -11.812900473816612 $407 -3.3700913828436683 $282 $408 forward 7 unknown #
coedge $-1 $409 $410 $171 $285 forward $399 $-1 #
edge $-1 $411 -28.801178278763736 $288 -25.260611324934167 $284 $412 forward 7 unknown #
edge $-1 $289 -4.0481215939468207 $411 5.7280945706229527e-014 $172 $413 forward 7 unknown #
coedge $-1 $173 $403 $409 $414 forward $277 $-1 #
vertex $-1 $285 $415 #
vertex $-1 $174 $416 #
straight-curve $-1 -106.41545925046707 -19.404396402146752 21.000769691191216 1 0 0 I I #
coedge $-1 $291 $291 $-1 $417 reversed $177 $-1 #
edge $-1 $418 0 $418 6.2831853071796004 $178 $419 forward 7 unknown #
vertex $-1 $181 $420 #
ellipse-curve $-1 -76.433187758700157 -16.992165233297342 19.230486214276443 -0.87461971476443456 0 0.48480960649040278 0.48480960649040278 0 0.87461971476443456 1 I I #
coedge $-1 $295 $295 $-1 $421 reversed $184 $-1 #
edge $-1 $422 0 $422 6.2831853071796004 $185 $423 forward 7 unknown #
vertex $-1 $188 $424 #
ellipse-curve $-1 -76.433187758700157 -13.373818480023225 19.230486214276443 -0.87461971476443456 0 0.48480960649040278 0.48480960649040278 0 0.87461971476443456 1 I I #
face $-1 $-1 $425 $41 $-1 $426 reversed single #
loop $-1 $-1 $195 $189 #
plane-surface $-1 0 0 21.000769691191216 0 0 1 1 0 0 forward_v I I I I #
coedge $-1 $427 $428 $429 $430 reversed $190 $-1 #
coedge $-1 $431 $192 $194 $309 forward $119 $-1 #
coedge $-1 $192 $431 $427 $432 forward $119 $-1 #
coedge $-1 $429 $195 $192 $306 forward $300 $-1 #
edge $-1 $312 8.0716304897639191 $433 16.514439580736862 $305 $434 forward 7 unknown #
coedge $-1 $435 $436 $193 $308 forward $425 $-1 #
edge $-1 $437 -28.801178278763736 $311 -25.260611324934167 $307 $438 forward 7 unknown #
edge $-1 $312 -4.0481215939468207 $437 5.7280945706229527e-014 $194 $439 forward 7 unknown #
coedge $-1 $195 $429 $435 $440 forward $300 $-1 #
vertex $-1 $196 $441 #
vertex $-1 $196 $442 #
straight-curve $-1 -106.41545925046707 20.36466552501431 21.000769691191216 1 0 0 I I #
coedge $-1 $314 $314 $-1 $443 reversed $199 $-1 #
edge $-1 $444 0 $444 6.2831853071796004 $200 $445 forward 7 unknown #
vertex $-1 $203 $446 #
ellipse-curve $-1 -76.433187758700157 22.776896693863719 19.230486214276443 -0.87461971476443456 0 0.48480960649040278 0.48480960649040278 0 0.87461971476443456 1 I I #
coedge $-1 $318 $318 $-1 $447 reversed $206 $-1 #
edge $-1 $448 0 $448 6.2831853071796004 $207 $449 forward 7 unknown #
vertex $-1 $210 $450 #
ellipse-curve $-1 -76.433187758700157 26.395243447137844 19.230486214276443 -0.87461971476443456 0 0.48480960649040278 0.48480960649040278 0 0.87461971476443456 1 I I #
face $-1 $-1 $334 $44 $-1 $451 forward single #
loop $-1 $-1 $452 $211 #
plane-surface $-1 77.414471877193506 0 0 -1 0 0 0 0 1 forward_v I I I I #
coedge $-1 $453 $454 $455 $456 reversed $212 $-1 #
coedge $-1 $457 $214 $216 $332 forward $133 $-1 #
coedge $-1 $214 $457 $453 $458 forward $133 $-1 #
coedge $-1 $455 $217 $214 $329 forward $334 $-1 #
edge $-1 $336 -0.53059744355449823 $459 8.5854468734384142 $328 $460 forward 7 unknown #
coedge $-1 $461 $462 $215 $331 forward $323 $-1 #
edge $-1 $463 -105.81509471094463 $335 -92.111978896452086 $330 $464 forward 7 unknown #
edge $-1 $336 135.10253400212747 $463 154.82894375438701 $216 $465 forward 7 unknown #
coedge $-1 $217 $455 $461 $466 forward $334 $-1 #
loop $-1 $-1 $455 $322 #
vertex $-1 $331 $467 #
vertex $-1 $218 $468 #
straight-curve $-1 36.796537321126593 -3.4968272713874597 21.000769691191223 -1 0 0 I I #
coedge $-1 $338 $338 $-1 $469 reversed $221 $-1 #
edge $-1 $470 0 $470 6.2831853071796004 $222 $471 forward 7 unknown #
vertex $-1 $225 $472 #
ellipse-curve $-1 70.319476128628068 -10.789662724981788 14.149211783944946 0.69465837861970381 0 0.71933979245794832 0.35966989622897416 0 -0.3473291893098519 1 I I #
coedge $-1 $342 $342 $-1 $473 reversed $228 $-1 #
edge $-1 $474 0 $474 6.2831853071796004 $229 $475 forward 7 unknown #
vertex $-1 $232 $476 #
ellipse-curve $-1 70.319476128628068 -8.0548494298839159 14.149211783944946 0.69465837861970381 0 0.71933979245794832 0.35966989622897416 0 -0.3473291893098519 1 I I #
coedge $-1 $346 $346 $-1 $477 reversed $235 $-1 #
edge $-1 $478 0 $478 6.2831853071796004 $236 $479 forward 7 unknown #
vertex $-1 $239 $480 #
ellipse-curve $-1 70.319476128628068 -5.3200361347860436 14.149211783944946 0.69465837861970381 0 0.71933979245794832 0.35966989622897416 0 -0.3473291893098519 1 I I #
face $-1 $-1 $255 $36 $-1 $481 reversed single #
loop $-1 $-1 $366 $240 #
plane-surface $-1 0 52.689659380193305 0 0 -1 0 0 0 -1 forward_v I I I I #
coedge $-1 $482 $364 $367 $483 forward $241 $-1 #
coedge $-1 $370 $243 $244 $358 reversed $152 $-1 #
coedge $-1 $364 $482 $243 $356 reversed $241 $-1 #
edge $-1 $371 -21.000769691191216 $484 21.000769691191216 $355 $485 forward 7 unknown #
coedge $-1 $245 $244 $482 $486 forward $97 $-1 #
edge $-1 $362 -77.414471877193506 $484 77.414471877193506 $354 $487 forward 7 unknown #
coedge $-1 $367 $366 $245 $360 reversed $351 $-1 #
edge $-1 $488 -77.414471877193506 $361 77.414471877193506 $359 $489 forward 7 unknown #
vertex $-1 $247 $490 #
vertex $-1 $373 $491 #
straight-curve $-1 77.414471877193506 0 -21.000769691191216 0 -1 0 I I #
coedge $-1 $353 $355 $248 $365 reversed $241 $-1 #
edge $-1 $368 -52.689659380193305 $371 52.689659380193305 $364 $492 forward 7 unknown #
coedge $-1 $359 $249 $254 $374 forward $351 $-1 #
coedge $-1 $249 $359 $353 $483 reversed $351 $-1 #
vertex $-1 $250 $493 #
straight-curve $-1 0 52.689659380193305 21.000769691191216 -1 0 0 I I #
coedge $-1 $251 $354 $253 $373 reversed $152 $-1 #
vertex $-1 $365 $494 #
straight-curve $-1 0 -52.689659380193305 21.000769691191216 1 0 0 I I #
edge $-1 $256 -21.000769691191216 $362 21.000769691191216 $253 $495 forward 7 unknown #
edge $-1 $257 -21.000769691191216 $361 21.000769691191216 $254 $496 forward 7 unknown #
point $-1 77.414471877193506 -52.689659380193305 21.000769691191216 #
point $-1 77.414471877193506 52.689659380193305 21.000769691191216 #
face $-1 $-1 $272 $37 $-1 $497 reversed single #
loop $-1 $-1 $384 $259 #
plane-surface $-1 0 0 21.000769691191216 0 0 1 1 0 0 forward_v I I I I #
coedge $-1 $498 $262 $267 $389 forward $160 $-1 #
coedge $-1 $262 $498 $499 $500 reversed $160 $-1 #
coedge $-1 $264 $263 $262 $383 reversed $101 $-1 #
edge $-1 $501 -12.693682492579157 $394 -3.9204919046449547 $262 $502 forward 7 unknown #
coedge $-1 $499 $503 $264 $385 forward $378 $-1 #
edge $-1 $387 -77.414471877193506 $501 77.414471877193506 $384 $504 forward 7 unknown #
coedge $-1 $271 $265 $503 $505 reversed $272 $-1 #
vertex $-1 $266 $506 #
straight-curve $-1 77.414471877193506 -26.848464474128814 8.3070871986120558 0 0 1 I I #
edge $-1 $394 6.9639335105482836 $392 32.805128416612774 $380 $507 forward 7 unknown #
coedge $-1 $508 $268 $271 $396 reversed $260 $-1 #
coedge $-1 $268 $508 $498 $509 forward $260 $-1 #
vertex $-1 $269 $510 #
straight-curve $-1 0 -52.689659380193305 12.22757910325701 1 0 0 I I #
vertex $-1 $389 $511 #
straight-curve $-1 0 -26.848464474128814 12.22757910325701 1 0 0 I I #
edge $-1 $512 -21.000769691191216 $273 -12.22757910325701 $271 $513 forward 7 unknown #
point $-1 77.414471877193506 -52.689659380193305 12.22757910325701 #
point $-1 77.414471877193506 -26.848464474128814 12.22757910325701 #
loop $-1 $-1 $284 $276 #
plane-surface $-1 -77.414471877193506 0 0 1 0 0 0 0 -1 forward_v I I I I #
coedge $-1 $402 $279 $281 $406 reversed $168 $-1 #
coedge $-1 $279 $401 $514 $515 reversed $168 $-1 #
coedge $-1 $287 $282 $279 $404 forward $277 $-1 #
edge $-1 $407 -30.963555610260244 $516 -29.00098737327356 $403 $517 forward 7 unknown #
coedge $-1 $281 $280 $410 $518 reversed $105 $-1 #
edge $-1 $519 -5.7280945706229527e-014 $407 4.0481215939468207 $401 $520 forward 7 unknown #
vertex $-1 $283 $521 #
straight-curve $-1 -75.451903640206808 -7.59149592833014 21.000769691191216 0 1 0 I I #
coedge $-1 $514 $284 $287 $414 reversed $399 $-1 #
coedge $-1 $284 $514 $405 $518 forward $399 $-1 #
vertex $-1 $285 $522 #
straight-curve $-1 -77.414471877193506 -19.404396402146752 46.261381016125384 0 0 1 I I #
straight-curve $-1 -77.414471877193478 -19.404396402146752 17.460202737361698 -0.48480960649040278 0 -0.87461971476443456 I I #
edge $-1 $516 10.961587311173808 $288 19.404396402146752 $409 $523 forward 7 unknown #
point $-1 -77.414471877193506 -19.404396402146752 21.000769691191216 #
point $-1 -75.451903640206822 -19.404396402146752 21.000769691191216 #
edge $-1 $524 1 $524 0 $291 $-1 forward 7 unknown #
vertex $-1 $292 $525 #
ellipse-curve $-1 -75.250274403824378 -16.992165233297342 18.574786658905651 -0.87461971476443456 0 0.48480960649040278 0.48480960649040278 0 0.87461971476443456 1 I I #
point $-1 -75.948378152209784 -16.992165233297342 20.105105929040892 #
edge $-1 $526 1 $526 0 $295 $-1 forward 7 unknown #
vertex $-1 $296 $527 #
ellipse-curve $-1 -75.250274403824378 -13.373818480023225 18.574786658905651 -0.87461971476443456 0 0.48480960649040278 0.48480960649040278 0 0.87461971476443456 1 I I #
point $-1 -75.948378152209784 -13.373818480023225 20.105105929040892 #
loop $-1 $-1 $307 $299 #
plane-surface $-1 -77.414471877193506 0 0 1 0 0 0 0 -1 forward_v I I I I #
coedge $-1 $428 $302 $304 $432 reversed $190 $-1 #
coedge $-1 $302 $427 $528 $529 reversed $190 $-1 #
coedge $-1 $310 $305 $302 $430 forward $300 $-1 #
edge $-1 $433 -30.963555610260244 $530 -29.00098737327356 $429 $531 forward 7 unknown #
coedge $-1 $304 $303 $436 $532 reversed $119 $-1 #
edge $-1 $533 -5.7280945706229527e-014 $433 4.0481215939468207 $427 $534 forward 7 unknown #
vertex $-1 $306 $535 #
straight-curve $-1 -75.451903640206808 12.293035035250391 21.000769691191216 0 1 0 I I #
coedge $-1 $528 $307 $310 $440 reversed $425 $-1 #
coedge $-1 $307 $528 $431 $532 forward $425 $-1 #
vertex $-1 $308 $536 #
straight-curve $-1 -77.414471877193506 20.36466552501431 46.261381016125384 0 0 1 I I #
straight-curve $-1 -77.414471877193478 20.36466552501431 17.460202737361698 -0.48480960649040278 0 -0.87461971476443456 I I #
edge $-1 $530 -28.807474615987253 $311 -20.36466552501431 $435 $537 forward 7 unknown #
point $-1 -77.414471877193506 20.36466552501431 21.000769691191216 #
point $-1 -75.451903640206822 20.36466552501431 21.000769691191216 #
edge $-1 $538 1 $538 0 $314 $-1 forward 7 unknown #
vertex $-1 $315 $539 #
ellipse-curve $-1 -75.250274403824378 22.776896693863719 18.574786658905651 -0.87461971476443456 0 0.48480960649040278 0.48480960649040278 0 0.87461971476443456 1 I I #
point $-1 -75.948378152209784 22.776896693863719 20.105105929040892 #
edge $-1 $540 1 $540 0 $318 $-1 forward 7 unknown #
vertex $-1 $319 $541 #
ellipse-curve $-1 -75.250274403824378 26.395243447137844 18.574786658905651 -0.87461971476443456 0 0.48480960649040278 0.48480960649040278 0 0.87461971476443456 1 I I #
point $-1 -75.948378152209784 26.395243447137844 20.105105929040892 #
plane-surface $-1 0 0 21.000769691191216 0 0 1 1 0 0 forward_v I I I I #
coedge $-1 $462 $461 $454 $542 forward $323 $-1 #
coedge $-1 $454 $325 $327 $458 reversed $212 $-1 #
coedge $-1 $325 $453 $452 $542 reversed $212 $-1 #
coedge $-1 $333 $328 $325 $456 forward $334 $-1 #
edge $-1 $459 26.427943058936066 $543 40.617934556066913 $455 $544 forward 7 unknown #
coedge $-1 $327 $326 $462 $545 reversed $133 $-1 #
edge $-1 $546 -154.82894375438701 $459 -135.10253400212747 $453 $547 forward 7 unknown #
vertex $-1 $329 $548 #
straight-curve $-1 63.224480380062658 -4.027424714941958 21.000769691191216 0 -1 0 I I #
coedge $-1 $452 $330 $333 $466 reversed $323 $-1 #
coedge $-1 $330 $452 $457 $545 forward $323 $-1 #
vertex $-1 $331 $549 #
straight-curve $-1 77.414471877193506 -3.4968272713874597 113.1127485876433 0 0 1 I I #
straight-curve $-1 -33.96014838957062 -3.4968272713874597 114.85087690852248 0.71933979245794832 0 -0.69465837861970381 I I #
edge $-1 $543 -12.612871588380372 $335 -3.4968272713874597 $461 $550 forward 7 unknown #
point $-1 77.414471877193506 -3.4968272713874597 21.000769691191216 #
point $-1 63.224480380062658 -3.4968272713874597 21.000769691191209 #
edge $-1 $551 1 $551 0 $338 $-1 forward 7 unknown #
vertex $-1 $339 $552 #
ellipse-curve $-1 69.015319523581866 -10.789662724981788 12.798718116150033 0.69465837861970381 0 0.71933979245794832 0.35966989622897416 0 -0.3473291893098519 1 I I #
point $-1 70.679146024857019 -10.789662724981788 13.801882594635082 #
edge $-1 $553 1 $553 0 $342 $-1 forward 7 unknown #
vertex $-1 $343 $554 #
ellipse-curve $-1 69.015319523581866 -8.0548494298839159 12.798718116150033 0.69465837861970381 0 0.71933979245794832 0.35966989622897416 0 -0.3473291893098519 1 I I #
point $-1 70.679146024857019 -8.0548494298839159 13.801882594635082 #
edge $-1 $555 1 $555 0 $346 $-1 forward 7 unknown #
vertex $-1 $347 $556 #
ellipse-curve $-1 69.015319523581866 -5.3200361347860436 12.798718116150033 0.69465837861970381 0 0.71933979245794832 0.35966989622897416 0 -0.3473291893098519 1 I I #
point $-1 70.679146024857019 -5.3200361347860436 13.801882594635082 #
plane-surface $-1 77.414471877193506 0 0 -1 0 0 0 0 1 forward_v I I I I #
coedge $-1 $355 $353 $357 $486 reversed $241 $-1 #
edge $-1 $368 -21.000769691191216 $488 21.000769691191216 $367 $557 forward 7 unknown #
vertex $-1 $486 $558 #
straight-curve $-1 -77.414471877193506 -52.689659380193305 0 0 0 -1 I I #
edge $-1 $484 -52.689659380193305 $488 52.689659380193305 $482 $559 forward 7 unknown #
straight-curve $-1 0 -52.689659380193305 -21.000769691191216 -1 0 0 I I #
vertex $-1 $360 $560 #
straight-curve $-1 0 52.689659380193305 -21.000769691191216 1 0 0 I I #
point $-1 77.414471877193506 52.689659380193305 -21.000769691191216 #
point $-1 77.414471877193506 -52.689659380193305 -21.000769691191216 #
straight-curve $-1 -77.414471877193506 0 21.000769691191216 0 -1 0 I I #
point $-1 -77.414471877193506 52.689659380193305 21.000769691191216 #
point $-1 -77.414471877193506 -52.689659380193305 21.000769691191216 #
straight-curve $-1 77.414471877193506 -52.689659380193305 0 0 0 -1 I I #
straight-curve $-1 77.414471877193506 52.689659380193305 0 0 0 -1 I I #
plane-surface $-1 77.414471877193506 0 0 -1 0 0 0 0 1 forward_v I I I I #
coedge $-1 $381 $380 $391 $509 reversed $160 $-1 #
coedge $-1 $561 $384 $381 $500 forward $378 $-1 #
edge $-1 $501 26.848464474128814 $562 52.689659380193305 $381 $563 forward 7 unknown #
vertex $-1 $500 $564 #
straight-curve $-1 -77.414471877193506 -26.848464474128814 8.3070871986120558 0 0 -1 I I #
coedge $-1 $384 $561 $386 $505 forward $378 $-1 #
straight-curve $-1 0 -26.848464474128814 21.000769691191216 -1 0 0 I I #
edge $-1 $512 -52.689659380193305 $387 -26.848464474128814 $386 $565 forward 7 unknown #
point $-1 77.414471877193506 -26.848464474128814 21.000769691191213 #
straight-curve $-1 -77.414471877193506 -19.884530963580531 12.22757910325701 0 -1 0 I I #
coedge $-1 $391 $390 $561 $566 reversed $260 $-1 #
edge $-1 $562 -21.000769691191216 $392 -12.22757910325701 $498 $567 forward 7 unknown #
point $-1 -77.414471877193506 -52.689659380193305 12.22757910325701 #
point $-1 -77.414471877193506 -26.848464474128814 12.22757910325701 #
vertex $-1 $505 $568 #
straight-curve $-1 77.414471877193506 -52.689659380193305 0 0 0 -1 I I #
coedge $-1 $410 $409 $402 $515 forward $399 $-1 #
edge $-1 $516 25.260611324934167 $519 28.801178278763736 $514 $569 forward 7 unknown #
vertex $-1 $414 $570 #
straight-curve $-1 -106.41545925046707 -10.961587311173808 21.000769691191216 -1 0 0 I I #
edge $-1 $519 3.3700913828436683 $411 11.812900473816612 $410 $571 forward 7 unknown #
vertex $-1 $518 $572 #
straight-curve $-1 -77.414471877193478 -10.961587311173808 17.460202737361698 0.48480960649040278 0 0.87461971476443456 I I #
point $-1 -75.451903640206822 -10.961587311173808 21.000769691191216 #
point $-1 -77.414471877193506 -19.404396402146752 17.460202737361648 #
straight-curve $-1 -77.414471877193506 0 21.000769691191216 0 -1 0 I I #
vertex $-1 $417 $573 #
point $-1 -74.765464797333976 -16.992165233297342 19.449406373670087 #
vertex $-1 $421 $574 #
point $-1 -74.765464797333976 -13.373818480023225 19.449406373670087 #
coedge $-1 $436 $435 $428 $529 forward $425 $-1 #
edge $-1 $530 25.260611324934167 $533 28.801178278763736 $528 $575 forward 7 unknown #
vertex $-1 $440 $576 #
straight-curve $-1 -106.41545925046707 28.807474615987253 21.000769691191216 -1 0 0 I I #
edge $-1 $533 -16.514439580736862 $437 -8.0716304897639191 $436 $577 forward 7 unknown #
vertex $-1 $532 $578 #
straight-curve $-1 -77.414471877193478 28.807474615987253 17.460202737361698 0.48480960649040278 0 0.87461971476443456 I I #
point $-1 -75.451903640206822 28.807474615987253 21.000769691191216 #
point $-1 -77.414471877193506 20.36466552501431 17.460202737361648 #
straight-curve $-1 -77.414471877193506 0 21.000769691191216 0 -1 0 I I #
vertex $-1 $443 $579 #
point $-1 -74.765464797333976 22.776896693863719 19.449406373670087 #
vertex $-1 $447 $580 #
point $-1 -74.765464797333976 26.395243447137844 19.449406373670087 #
edge $-1 $543 92.111978896452086 $546 105.81509471094463 $452 $581 forward 7 unknown #
vertex $-1 $466 $582 #
straight-curve $-1 36.796537321126593 -12.612871588380372 21.000769691191223 1 0 0 I I #
edge $-1 $546 -8.5854468734384142 $463 0.53059744355449823 $462 $583 forward 7 unknown #
vertex $-1 $545 $584 #
straight-curve $-1 -33.96014838957062 -12.612871588380372 114.85087690852248 -0.71933979245794832 0 0.69465837861970381 I I #
point $-1 63.224480380062658 -12.612871588380372 21.000769691191209 #
point $-1 77.414471877193506 -3.4968272713874597 7.2976538766986607 #
straight-curve $-1 77.414471877193506 0 21.000769691191216 0 1 0 I I #
vertex $-1 $469 $585 #
point $-1 69.374989419810845 -10.789662724981788 12.451388926840179 #
vertex $-1 $473 $586 #
point $-1 69.374989419810845 -8.0548494298839159 12.451388926840179 #
vertex $-1 $477 $587 #
point $-1 69.374989419810845 -5.3200361347860436 12.451388926840179 #
straight-curve $-1 -77.414471877193506 52.689659380193305 0 0 0 -1 I I #
point $-1 -77.414471877193506 -52.689659380193305 -21.000769691191216 #
straight-curve $-1 -77.414471877193506 0 -21.000769691191216 0 1 0 I I #
point $-1 -77.414471877193506 52.689659380193305 -21.000769691191216 #
coedge $-1 $503 $499 $508 $566 forward $378 $-1 #
vertex $-1 $500 $588 #
straight-curve $-1 -77.414471877193506 0 21.000769691191216 0 -1 0 I I #
point $-1 -77.414471877193506 -26.848464474128814 21.000769691191213 #
straight-curve $-1 77.414471877193506 0 21.000769691191216 0 1 0 I I #
edge $-1 $562 -77.414471877193506 $512 77.414471877193506 $508 $589 forward 7 unknown #
straight-curve $-1 -77.414471877193506 -52.689659380193305 0 0 0 -1 I I #
point $-1 77.414471877193506 -52.689659380193305 21.000769691191216 #
straight-curve $-1 -77.414471877193506 -10.961587311173808 46.261381016125384 0 0 -1 I I #
point $-1 -77.414471877193506 -10.961587311173808 21.000769691191216 #
straight-curve $-1 -77.414471877193506 -7.59149592833014 17.460202737361634 0 -1 0 I I #
point $-1 -77.414471877193506 -10.961587311173808 17.460202737361648 #
point $-1 -74.375654689059942 -16.992165233297342 18.08997705241525 #
point $-1 -74.375654689059942 -13.373818480023225 18.08997705241525 #
straight-curve $-1 -77.414471877193506 28.807474615987253 46.261381016125384 0 0 -1 I I #
point $-1 -77.414471877193506 28.807474615987253 21.000769691191216 #
straight-curve $-1 -77.414471877193506 12.293035035250391 17.460202737361634 0 -1 0 I I #
point $-1 -77.414471877193506 28.807474615987253 17.460202737361648 #
point $-1 -74.375654689059942 22.776896693863719 18.08997705241525 #
point $-1 -74.375654689059942 26.395243447137844 18.08997705241525 #
straight-curve $-1 77.414471877193506 -12.612871588380372 113.1127485876433 0 0 -1 I I #
point $-1 77.414471877193506 -12.612871588380372 21.000769691191216 #
straight-curve $-1 77.414471877193506 -4.027424714941958 7.2976538766986749 0 1 0 I I #
point $-1 77.414471877193506 -12.612871588380372 7.2976538766986607 #
point $-1 68.667990334272019 -10.789662724981788 12.439048219921057 #
point $-1 68.667990334272019 -8.0548494298839159 12.439048219921057 #
point $-1 68.667990334272019 -5.3200361347860436 12.439048219921057 #
point $-1 -77.414471877193506 -52.689659380193305 21.000769691191216 #
straight-curve $-1 0 -52.689659380193305 21.000769691191216 1 0 0 I I #
End-of-ACIS-data 