500 0 20 0           
7 Unknown 11 ACIS 5.0 NT 24 Thu Mar 25 16:57:28 1999 
-1 9.9999999999999995e-007 1e-010 
body $-1 $20 $-1 $21 #
body $-1 $22 $-1 $23 #
body $-1 $24 $-1 $25 #
body $-1 $26 $-1 $27 #
body $-1 $28 $-1 $29 #
body $-1 $30 $-1 $31 #
body $-1 $32 $-1 $33 #
body $-1 $34 $-1 $35 #
body $-1 $36 $-1 $37 #
body $-1 $38 $-1 $39 #
body $-1 $40 $-1 $41 #
body $-1 $42 $-1 $43 #
body $-1 $44 $-1 $45 #
body $-1 $46 $-1 $47 #
body $-1 $48 $-1 $49 #
body $-1 $50 $-1 $51 #
body $-1 $52 $-1 $53 #
body $-1 $54 $-1 $55 #
body $-1 $56 $-1 $57 #
body $-1 $58 $-1 $59 #
lump $-1 $-1 $60 $0 #
transform $-1 1 0 0 0 1 0 0 0 1 52.49671926023133 26.468330929118622 10.517863806935873 1 rotate no_reflect no_shear #
lump $-1 $-1 $61 $1 #
transform $-1 1 0 0 0 1 0 0 0 1 52.49671926023133 26.468330929118622 10.517863806935873 1 rotate no_reflect no_shear #
lump $-1 $-1 $62 $2 #
transform $-1 1 0 0 0 1 0 0 0 1 52.49671926023133 26.468330929118622 10.517863806935873 1 rotate no_reflect no_shear #
lump $-1 $-1 $63 $3 #
transform $-1 1 0 0 0 1 0 0 0 1 52.49671926023133 26.468330929118622 10.517863806935873 1 rotate no_reflect no_shear #
lump $-1 $-1 $64 $4 #
transform $-1 1 0 0 0 1 0 0 0 1 52.49671926023133 26.468330929118622 10.517863806935873 1 rotate no_reflect no_shear #
lump $-1 $-1 $65 $5 #
transform $-1 1 0 0 0 1 0 0 0 1 52.49671926023133 26.468330929118622 10.517863806935873 1 rotate no_reflect no_shear #
lump $-1 $-1 $66 $6 #
transform $-1 1 0 0 0 1 0 0 0 1 52.49671926023133 26.468330929118622 10.517863806935873 1 rotate no_reflect no_shear #
lump $-1 $-1 $67 $7 #
transform $-1 1 0 0 0 1 0 0 0 1 52.49671926023133 26.468330929118622 10.517863806935873 1 rotate no_reflect no_shear #
lump $-1 $-1 $68 $8 #
transform $-1 1 0 0 0 1 0 0 0 1 52.49671926023133 26.468330929118622 10.517863806935873 1 rotate no_reflect no_shear #
lump $-1 $-1 $69 $9 #
transform $-1 1 0 0 0 1 0 0 0 1 52.49671926023133 26.468330929118622 10.517863806935873 1 rotate no_reflect no_shear #
lump $-1 $-1 $70 $10 #
transform $-1 1 0 0 0 1 0 0 0 1 52.49671926023133 26.468330929118622 10.517863806935873 1 rotate no_reflect no_shear #
lump $-1 $-1 $71 $11 #
transform $-1 1 0 0 0 1 0 0 0 1 52.49671926023133 26.468330929118622 10.517863806935873 1 rotate no_reflect no_shear #
lump $-1 $-1 $72 $12 #
transform $-1 1 0 0 0 1 0 0 0 1 52.49671926023133 26.468330929118622 10.517863806935873 1 rotate no_reflect no_shear #
lump $-1 $-1 $73 $13 #
transform $-1 1 0 0 0 1 0 0 0 1 52.49671926023133 26.468330929118622 10.517863806935873 1 rotate no_reflect no_shear #
lump $-1 $-1 $74 $14 #
transform $-1 1 0 0 0 1 0 0 0 1 52.49671926023133 26.468330929118622 10.517863806935873 1 rotate no_reflect no_shear #
lump $-1 $-1 $75 $15 #
transform $-1 1 0 0 0 1 0 0 0 1 52.49671926023133 26.468330929118622 10.517863806935873 1 rotate no_reflect no_shear #
lump $-1 $-1 $76 $16 #
transform $-1 1 0 0 0 1 0 0 0 1 52.49671926023133 26.468330929118622 10.517863806935873 1 rotate no_reflect no_shear #
lump $-1 $-1 $77 $17 #
transform $-1 1 0 0 0 1 0 0 0 1 52.49671926023133 26.468330929118622 10.517863806935873 1 rotate no_reflect no_shear #
lump $-1 $-1 $78 $18 #
transform $-1 1 0 0 0 1 0 0 0 1 52.49671926023133 26.468330929118622 10.517863806935873 1 rotate no_reflect no_shear #
lump $-1 $-1 $79 $19 #
transform $-1 1 0 0 0 1 0 0 0 1 52.49671926023133 26.468330929118622 10.517863806935873 1 rotate no_reflect no_shear #
shell $-1 $-1 $-1 $80 $-1 $20 #
shell $-1 $-1 $-1 $81 $-1 $22 #
shell $-1 $-1 $-1 $82 $-1 $24 #
shell $-1 $-1 $-1 $83 $-1 $26 #
shell $-1 $-1 $-1 $84 $-1 $28 #
shell $-1 $-1 $-1 $85 $-1 $30 #
shell $-1 $-1 $-1 $86 $-1 $32 #
shell $-1 $-1 $-1 $87 $-1 $34 #
shell $-1 $-1 $-1 $88 $-1 $36 #
shell $-1 $-1 $-1 $89 $-1 $38 #
shell $-1 $-1 $-1 $90 $-1 $40 #
shell $-1 $-1 $-1 $91 $-1 $42 #
shell $-1 $-1 $-1 $92 $-1 $44 #
shell $-1 $-1 $-1 $93 $-1 $46 #
shell $-1 $-1 $-1 $94 $-1 $48 #
shell $-1 $-1 $-1 $95 $-1 $50 #
shell $-1 $-1 $-1 $96 $-1 $52 #
shell $-1 $-1 $-1 $97 $-1 $54 #
shell $-1 $-1 $-1 $98 $-1 $56 #
shell $-1 $-1 $-1 $99 $-1 $58 #
face $-1 $100 $101 $60 $-1 $102 forward single #
face $-1 $103 $104 $61 $-1 $105 forward single #
face $-1 $106 $107 $62 $-1 $108 reversed single #
face $-1 $109 $110 $63 $-1 $111 forward single #
face $-1 $112 $113 $64 $-1 $114 reversed single #
face $-1 $115 $116 $65 $-1 $117 forward single #
face $-1 $118 $119 $66 $-1 $120 forward single #
face $-1 $121 $122 $67 $-1 $123 forward single #
face $-1 $124 $125 $68 $-1 $126 reversed single #
face $-1 $127 $128 $69 $-1 $129 forward single #
face $-1 $130 $131 $70 $-1 $132 forward single #
face $-1 $133 $134 $71 $-1 $135 forward single #
face $-1 $136 $137 $72 $-1 $138 reversed single #
face $-1 $139 $140 $73 $-1 $141 forward single #
face $-1 $142 $143 $74 $-1 $144 forward single #
face $-1 $145 $146 $75 $-1 $147 forward single #
face $-1 $148 $149 $76 $-1 $150 reversed single #
face $-1 $151 $152 $77 $-1 $153 forward single #
face $-1 $154 $155 $78 $-1 $156 forward single #
face $-1 $157 $158 $79 $-1 $159 forward single #
face $-1 $160 $161 $60 $-1 $162 reversed single #
loop $-1 $-1 $163 $80 #
plane-surface $-1 0 0 10.517863806935873 0 0 1 1 0 0 forward_v I I I I #
face $-1 $164 $165 $61 $-1 $166 reversed single #
loop $-1 $-1 $167 $81 #
plane-surface $-1 0 -26.468330929118622 0 0 1 0 0 0 1 forward_v I I I I #
face $-1 $168 $169 $62 $-1 $170 reversed single #
loop $-1 $-1 $171 $82 #
plane-surface $-1 -128.02267922744153 -1.0208296069365659 74.882464657331582 0 1 0 -0.71933980857756763 0 0.69465836192734942 forward_v I I I I #
face $-1 $172 $173 $63 $-1 $174 forward single #
loop $-1 $175 $176 $83 #
cone-surface $-1 -47.668275491645204 2.2101325820592166 5.5660881805736455 0.71933980857756763 0 -0.69465836192734942 0.69465836192734942 0 0.71933980857756763 1 I I 0 1 1 forward I I I I #
face $-1 $177 $178 $64 $-1 $179 reversed single #
loop $-1 $-1 $180 $84 #
plane-surface $-1 47.314733886056828 -4.7440470632223963 150.04392933578688 0 -1 0 -0.68199836817093118 0 -0.7313536940579346 forward_v I I I I #
face $-1 $181 $182 $65 $-1 $183 forward single #
loop $-1 $184 $185 $85 #
cone-surface $-1 47.180007633653354 -9.7624159483933823 5.48127318436 -0.68199836817093118 0 -0.7313536940579346 0.3656768470289673 0 -0.34099918408546559 1 I I 0 1 0.5 forward I I I I #
face $-1 $186 $187 $66 $-1 $188 forward single #
loop $-1 $189 $190 $86 #
cone-surface $-1 47.180007633653354 -7.8805276164542626 5.48127318436 -0.68199836817093118 0 -0.7313536940579346 0.3656768470289673 0 -0.34099918408546559 1 I I 0 1 0.5 forward I I I I #
face $-1 $191 $192 $67 $-1 $193 forward single #
loop $-1 $194 $195 $87 #
cone-surface $-1 47.180007633653354 -5.9986392845151428 5.48127318436 -0.68199836817093118 0 -0.7313536940579346 0.3656768470289673 0 -0.34099918408546559 1 I I 0 1 0.5 forward I I I I #
face $-1 $196 $197 $68 $-1 $198 reversed single #
loop $-1 $-1 $199 $88 #
plane-surface $-1 47.314733886056828 5.6600789342246109 150.04392933578688 0 -1 0 -0.68199836817093118 0 -0.7313536940579346 forward_v I I I I #
face $-1 $200 $201 $69 $-1 $202 forward single #
loop $-1 $203 $204 $89 #
cone-surface $-1 47.180007633653354 0.64171004905362139 5.48127318436 -0.68199836817093118 0 -0.7313536940579346 0.3656768470289673 0 -0.34099918408546559 1 I I 0 1 0.5 forward I I I I #
face $-1 $205 $206 $70 $-1 $207 forward single #
loop $-1 $208 $209 $90 #
cone-surface $-1 47.180007633653354 2.5235983809927447 5.48127318436 -0.68199836817093118 0 -0.7313536940579346 0.3656768470289673 0 -0.34099918408546559 1 I I 0 1 0.5 forward I I I I #
face $-1 $210 $211 $71 $-1 $212 forward single #
loop $-1 $213 $214 $91 #
cone-surface $-1 47.180007633653354 4.4054867129318609 5.48127318436 -0.68199836817093118 0 -0.7313536940579346 0.3656768470289673 0 -0.34099918408546559 1 I I 0 1 0.5 forward I I I I #
face $-1 $215 $216 $72 $-1 $217 reversed single #
loop $-1 $-1 $218 $92 #
plane-surface $-1 47.314733886056828 16.064204931671615 150.04392933578688 0 -1 0 -0.68199836817093118 0 -0.7313536940579346 forward_v I I I I #
face $-1 $219 $220 $73 $-1 $221 forward single #
loop $-1 $222 $223 $93 #
cone-surface $-1 47.180007633653354 11.045836046500625 5.48127318436 -0.68199836817093118 0 -0.7313536940579346 0.3656768470289673 0 -0.34099918408546559 1 I I 0 1 0.5 forward I I I I #
face $-1 $224 $225 $74 $-1 $226 forward single #
loop $-1 $227 $228 $94 #
cone-surface $-1 47.180007633653354 12.927724378439748 5.48127318436 -0.68199836817093118 0 -0.7313536940579346 0.3656768470289673 0 -0.34099918408546559 1 I I 0 1 0.5 forward I I I I #
face $-1 $229 $230 $75 $-1 $231 forward single #
loop $-1 $232 $233 $95 #
cone-surface $-1 47.180007633653354 14.809612710378865 5.48127318436 -0.68199836817093118 0 -0.7313536940579346 0.3656768470289673 0 -0.34099918408546559 1 I I 0 1 0.5 forward I I I I #
face $-1 $234 $235 $76 $-1 $236 reversed single #
loop $-1 $-1 $237 $96 #
plane-surface $-1 47.314733886056828 20.195369822654886 150.04392933578688 0 1 0 0.68199836817093118 0 0.7313536940579346 forward_v I I I I #
face $-1 $238 $239 $77 $-1 $240 forward single #
loop $-1 $241 $242 $97 #
cone-surface $-1 47.180007633653354 21.449962043947629 5.48127318436 -0.68199836817093118 0 -0.7313536940579346 0.3656768470289673 0 -0.34099918408546559 1 I I 0 1 0.5 forward I I I I #
face $-1 $243 $244 $78 $-1 $245 forward single #
loop $-1 $246 $247 $98 #
cone-surface $-1 47.180007633653354 23.331850375886752 5.48127318436 -0.68199836817093118 0 -0.7313536940579346 0.3656768470289673 0 -0.34099918408546559 1 I I 0 1 0.5 forward I I I I #
face $-1 $248 $249 $79 $-1 $250 forward single #
loop $-1 $251 $252 $99 #
cone-surface $-1 47.180007633653354 25.213738707825868 5.48127318436 -0.68199836817093118 0 -0.7313536940579346 0.3656768470289673 0 -0.34099918408546559 1 I I 0 1 0.5 forward I I I I #
face $-1 $253 $254 $60 $-1 $255 reversed single #
loop $-1 $-1 $256 $100 #
plane-surface $-1 0 0 -10.517863806935873 0 0 1 1 0 0 forward_v I I I I #
coedge $-1 $257 $258 $259 $260 forward $101 $-1 #
face $-1 $261 $262 $61 $-1 $263 reversed single #
loop $-1 $-1 $264 $103 #
plane-surface $-1 0 0 -10.517863806935873 0 0 1 1 0 0 forward_v I I I I #
coedge $-1 $265 $266 $267 $268 forward $104 $-1 #
face $-1 $269 $270 $62 $-1 $271 reversed single #
loop $-1 $-1 $272 $106 #
plane-surface $-1 -52.496719260231302 2.2101325820592166 1.9478946415871263 -0.71933980857756763 0 0.69465836192734942 0.69465836192734942 0 0.71933980857756763 forward_v I I I I #
coedge $-1 $273 $274 $275 $276 reversed $107 $-1 #
face $-1 $-1 $277 $63 $-1 $278 forward single #
loop $-1 $279 $280 $109 #
cone-surface $-1 -46.618123232264836 2.2101325820592166 4.551967955922116 0.71933980857756763 0 -0.69465836192734942 0.34732918096367471 0 0.35966990428878381 1 I I -0.70710678118654746 0.70710678118654746 0.5 forward I I I I #
loop $-1 $-1 $281 $83 #
coedge $-1 $176 $176 $282 $283 reversed $110 $-1 #
face $-1 $284 $285 $64 $-1 $286 reversed single #
loop $-1 $-1 $287 $112 #
plane-surface $-1 -24.290619853553693 -7.8805276164542626 73.256590222001876 0.68199836817093118 0 0.7313536940579346 0.7313536940579346 0 -0.68199836817093118 forward_v I I I I #
coedge $-1 $288 $289 $290 $291 reversed $113 $-1 #
face $-1 $-1 $292 $65 $-1 $293 forward single #
loop $-1 $294 $295 $115 #
cone-surface $-1 46.446943162503587 -9.7624159483933823 4.6951578005419048 -0.68199836817093118 0 -0.7313536940579346 0.18283842351448365 0 -0.17049959204273279 1 I I -0.70710678118654624 0.70710678118654879 0.25 forward I I I I #
loop $-1 $-1 $296 $85 #
coedge $-1 $185 $185 $297 $298 reversed $116 $-1 #
face $-1 $-1 $299 $66 $-1 $300 forward single #
loop $-1 $301 $302 $118 #
cone-surface $-1 46.446943162503587 -7.8805276164542626 4.6951578005419048 -0.68199836817093118 0 -0.7313536940579346 0.18283842351448365 0 -0.17049959204273279 1 I I -0.70710678118654624 0.70710678118654879 0.25 forward I I I I #
loop $-1 $-1 $303 $86 #
coedge $-1 $190 $190 $304 $305 reversed $119 $-1 #
face $-1 $-1 $306 $67 $-1 $307 forward single #
loop $-1 $308 $309 $121 #
cone-surface $-1 46.446943162503587 -5.9986392845151428 4.6951578005419048 -0.68199836817093118 0 -0.7313536940579346 0.18283842351448365 0 -0.17049959204273279 1 I I -0.70710678118654624 0.70710678118654879 0.25 forward I I I I #
loop $-1 $-1 $310 $87 #
coedge $-1 $195 $195 $311 $312 reversed $122 $-1 #
face $-1 $313 $314 $68 $-1 $315 reversed single #
loop $-1 $-1 $316 $124 #
plane-surface $-1 -24.290619853553693 2.5235983809927447 73.256590222001876 0.68199836817093118 0 0.7313536940579346 0.7313536940579346 0 -0.68199836817093118 forward_v I I I I #
coedge $-1 $317 $318 $319 $320 reversed $125 $-1 #
face $-1 $-1 $321 $69 $-1 $322 forward single #
loop $-1 $323 $324 $127 #
cone-surface $-1 46.446943162503587 0.64171004905362139 4.6951578005419048 -0.68199836817093118 0 -0.7313536940579346 0.18283842351448365 0 -0.17049959204273279 1 I I -0.70710678118654624 0.70710678118654879 0.25 forward I I I I #
loop $-1 $-1 $325 $89 #
coedge $-1 $204 $204 $326 $327 reversed $128 $-1 #
face $-1 $-1 $328 $70 $-1 $329 forward single #
loop $-1 $330 $331 $130 #
cone-surface $-1 46.446943162503587 2.5235983809927447 4.6951578005419048 -0.68199836817093118 0 -0.7313536940579346 0.18283842351448365 0 -0.17049959204273279 1 I I -0.70710678118654624 0.70710678118654879 0.25 forward I I I I #
loop $-1 $-1 $332 $90 #
coedge $-1 $209 $209 $333 $334 reversed $131 $-1 #
face $-1 $-1 $335 $71 $-1 $336 forward single #
loop $-1 $337 $338 $133 #
cone-surface $-1 46.446943162503587 4.4054867129318609 4.6951578005419048 -0.68199836817093118 0 -0.7313536940579346 0.18283842351448365 0 -0.17049959204273279 1 I I -0.70710678118654624 0.70710678118654879 0.25 forward I I I I #
loop $-1 $-1 $339 $91 #
coedge $-1 $214 $214 $340 $341 reversed $134 $-1 #
face $-1 $342 $343 $72 $-1 $344 reversed single #
loop $-1 $-1 $345 $136 #
plane-surface $-1 -24.290619853553693 12.927724378439748 73.256590222001876 0.68199836817093118 0 0.7313536940579346 0.7313536940579346 0 -0.68199836817093118 forward_v I I I I #
coedge $-1 $346 $347 $348 $349 reversed $137 $-1 #
face $-1 $-1 $350 $73 $-1 $351 forward single #
loop $-1 $352 $353 $139 #
cone-surface $-1 46.446943162503587 11.045836046500625 4.6951578005419048 -0.68199836817093118 0 -0.7313536940579346 0.18283842351448365 0 -0.17049959204273279 1 I I -0.70710678118654624 0.70710678118654879 0.25 forward I I I I #
loop $-1 $-1 $354 $93 #
coedge $-1 $223 $223 $355 $356 reversed $140 $-1 #
face $-1 $-1 $357 $74 $-1 $358 forward single #
loop $-1 $359 $360 $142 #
cone-surface $-1 46.446943162503587 12.927724378439748 4.6951578005419048 -0.68199836817093118 0 -0.7313536940579346 0.18283842351448365 0 -0.17049959204273279 1 I I -0.70710678118654624 0.70710678118654879 0.25 forward I I I I #
loop $-1 $-1 $361 $94 #
coedge $-1 $228 $228 $362 $363 reversed $143 $-1 #
face $-1 $-1 $364 $75 $-1 $365 forward single #
loop $-1 $366 $367 $145 #
cone-surface $-1 46.446943162503587 14.809612710378865 4.6951578005419048 -0.68199836817093118 0 -0.7313536940579346 0.18283842351448365 0 -0.17049959204273279 1 I I -0.70710678118654624 0.70710678118654879 0.25 forward I I I I #
loop $-1 $-1 $368 $95 #
coedge $-1 $233 $233 $369 $370 reversed $146 $-1 #
face $-1 $371 $372 $76 $-1 $373 reversed single #
loop $-1 $-1 $374 $148 #
plane-surface $-1 -24.290619853553693 23.331850375886752 73.256590222001876 0.68199836817093118 0 0.7313536940579346 0.7313536940579346 0 -0.68199836817093118 forward_v I I I I #
coedge $-1 $375 $376 $377 $378 reversed $149 $-1 #
face $-1 $-1 $379 $77 $-1 $380 forward single #
loop $-1 $381 $382 $151 #
cone-surface $-1 46.446943162503587 21.449962043947629 4.6951578005419048 -0.68199836817093118 0 -0.7313536940579346 0.18283842351448365 0 -0.17049959204273279 1 I I -0.70710678118654624 0.70710678118654879 0.25 forward I I I I #
loop $-1 $-1 $383 $97 #
coedge $-1 $242 $242 $384 $385 reversed $152 $-1 #
face $-1 $-1 $386 $78 $-1 $387 forward single #
loop $-1 $388 $389 $154 #
cone-surface $-1 46.446943162503587 23.331850375886752 4.6951578005419048 -0.68199836817093118 0 -0.7313536940579346 0.18283842351448365 0 -0.17049959204273279 1 I I -0.70710678118654624 0.70710678118654879 0.25 forward I I I I #
loop $-1 $-1 $390 $98 #
coedge $-1 $247 $247 $391 $392 reversed $155 $-1 #
face $-1 $-1 $393 $79 $-1 $394 forward single #
loop $-1 $395 $396 $157 #
cone-surface $-1 46.446943162503587 25.213738707825868 4.6951578005419048 -0.68199836817093118 0 -0.7313536940579346 0.18283842351448365 0 -0.17049959204273279 1 I I -0.70710678118654624 0.70710678118654879 0.25 forward I I I I #
loop $-1 $-1 $397 $99 #
coedge $-1 $252 $252 $398 $399 reversed $158 $-1 #
face $-1 $400 $401 $60 $-1 $402 reversed single #
loop $-1 $-1 $403 $160 #
plane-surface $-1 0 -26.468330929118622 0 0 1 0 0 0 1 forward_v I I I I #
coedge $-1 $404 $405 $406 $407 forward $161 $-1 #
coedge $-1 $408 $163 $409 $410 forward $101 $-1 #
coedge $-1 $163 $408 $411 $412 forward $101 $-1 #
coedge $-1 $413 $414 $163 $260 reversed $415 $-1 #
edge $-1 $416 -26.468330929118622 $417 26.468330929118622 $259 $418 forward 7 unknown #
face $-1 $419 $420 $61 $-1 $421 reversed single #
loop $-1 $-1 $422 $164 #
plane-surface $-1 -43.66296244910194 -37.788488797567837 0 0 1 0 0 0 1 forward_v I I I I #
coedge $-1 $423 $424 $266 $425 forward $165 $-1 #
coedge $-1 $426 $167 $427 $428 reversed $104 $-1 #
coedge $-1 $167 $426 $264 $425 reversed $104 $-1 #
coedge $-1 $429 $430 $167 $268 reversed $420 $-1 #
edge $-1 $431 -10.517863806935873 $432 10.517863806935873 $267 $433 forward 7 unknown #
face $-1 $434 $435 $62 $-1 $436 reversed single #
loop $-1 $-1 $437 $168 #
plane-surface $-1 -128.02267922744153 5.4410947710549991 74.882464657331582 0 -1 0 0.71933980857756763 0 -0.69465836192734942 forward_v I I I I #
coedge $-1 $438 $439 $440 $441 reversed $169 $-1 #
coedge $-1 $274 $171 $442 $443 reversed $107 $-1 #
coedge $-1 $171 $273 $438 $444 reversed $107 $-1 #
coedge $-1 $440 $445 $171 $276 forward $446 $-1 #
edge $-1 $447 11.514620353489434 $448 19.790543180478551 $275 $449 forward 7 unknown #
loop $-1 $-1 $282 $172 #
plane-surface $-1 -52.496719260231302 2.2101325820592166 1.9478946415871263 -0.71933980857756763 0 0.69465836192734942 0.69465836192734942 0 0.71933980857756763 forward_v I I I I #
loop $-1 $-1 $450 $109 #
coedge $-1 $280 $280 $281 $451 reversed $173 $-1 #
coedge $-1 $281 $281 $280 $451 forward $175 $-1 #
coedge $-1 $282 $282 $176 $283 forward $277 $-1 #
edge $-1 $452 0 $452 6.2831853071796004 $282 $453 forward 7 unknown #
face $-1 $454 $455 $64 $-1 $456 forward single #
loop $-1 $-1 $457 $177 #
plane-surface $-1 47.314733886056828 -11.017008169686129 150.04392933578688 0 1 0 0.68199836817093118 0 0.7313536940579346 forward_v I I I I #
coedge $-1 $458 $459 $460 $461 reversed $178 $-1 #
coedge $-1 $289 $180 $462 $463 reversed $113 $-1 #
coedge $-1 $180 $288 $458 $464 reversed $113 $-1 #
coedge $-1 $460 $465 $180 $291 forward $455 $-1 #
edge $-1 $466 -28.839352317202916 $467 -19.331058822261006 $290 $468 forward 7 unknown #
loop $-1 $-1 $297 $181 #
plane-surface $-1 -24.290619853553693 -7.8805276164542626 73.256590222001876 0.68199836817093118 0 0.7313536940579346 0.7313536940579346 0 -0.68199836817093118 forward_v I I I I #
loop $-1 $-1 $469 $115 #
coedge $-1 $295 $295 $296 $470 reversed $182 $-1 #
coedge $-1 $296 $296 $295 $470 forward $184 $-1 #
coedge $-1 $297 $297 $185 $298 forward $292 $-1 #
edge $-1 $471 0 $471 6.2831853071796004 $297 $472 forward 7 unknown #
loop $-1 $-1 $304 $186 #
plane-surface $-1 -24.290619853553693 -7.8805276164542626 73.256590222001876 0.68199836817093118 0 0.7313536940579346 0.7313536940579346 0 -0.68199836817093118 forward_v I I I I #
loop $-1 $-1 $473 $118 #
coedge $-1 $302 $302 $303 $474 reversed $187 $-1 #
coedge $-1 $303 $303 $302 $474 forward $189 $-1 #
coedge $-1 $304 $304 $190 $305 forward $299 $-1 #
edge $-1 $475 0 $475 6.2831853071796004 $304 $476 forward 7 unknown #
loop $-1 $-1 $311 $191 #
plane-surface $-1 -24.290619853553693 -7.8805276164542626 73.256590222001876 0.68199836817093118 0 0.7313536940579346 0.7313536940579346 0 -0.68199836817093118 forward_v I I I I #
loop $-1 $-1 $477 $121 #
coedge $-1 $309 $309 $310 $478 reversed $192 $-1 #
coedge $-1 $310 $310 $309 $478 forward $194 $-1 #
coedge $-1 $311 $311 $195 $312 forward $306 $-1 #
edge $-1 $479 0 $479 6.2831853071796004 $311 $480 forward 7 unknown #
face $-1 $481 $482 $68 $-1 $483 reversed single #
loop $-1 $-1 $484 $196 #
plane-surface $-1 47.314733886056828 -0.61288217223912156 150.04392933578688 0 1 0 0.68199836817093118 0 0.7313536940579346 forward_v I I I I #
coedge $-1 $485 $486 $487 $488 reversed $197 $-1 #
coedge $-1 $318 $199 $489 $490 reversed $125 $-1 #
coedge $-1 $199 $317 $485 $491 reversed $125 $-1 #
coedge $-1 $487 $492 $199 $320 forward $493 $-1 #
edge $-1 $494 -28.839352317202916 $495 -19.331058822261006 $319 $496 forward 7 unknown #
loop $-1 $-1 $326 $200 #
plane-surface $-1 -24.290619853553693 2.5235983809927447 73.256590222001876 0.68199836817093118 0 0.7313536940579346 0.7313536940579346 0 -0.68199836817093118 forward_v I I I I #
loop $-1 $-1 $497 $127 #
coedge $-1 $324 $324 $325 $498 reversed $201 $-1 #
coedge $-1 $325 $325 $324 $498 forward $203 $-1 #
coedge $-1 $326 $326 $204 $327 forward $321 $-1 #
edge $-1 $499 0 $499 6.2831853071796004 $326 $500 forward 7 unknown #
loop $-1 $-1 $333 $205 #
plane-surface $-1 -24.290619853553693 2.5235983809927447 73.256590222001876 0.68199836817093118 0 0.7313536940579346 0.7313536940579346 0 -0.68199836817093118 forward_v I I I I #
loop $-1 $-1 $501 $130 #
coedge $-1 $331 $331 $332 $502 reversed $206 $-1 #
coedge $-1 $332 $332 $331 $502 forward $208 $-1 #
coedge $-1 $333 $333 $209 $334 forward $328 $-1 #
edge $-1 $503 0 $503 6.2831853071796004 $333 $504 forward 7 unknown #
loop $-1 $-1 $340 $210 #
plane-surface $-1 -24.290619853553693 2.5235983809927447 73.256590222001876 0.68199836817093118 0 0.7313536940579346 0.7313536940579346 0 -0.68199836817093118 forward_v I I I I #
loop $-1 $-1 $505 $133 #
coedge $-1 $338 $338 $339 $506 reversed $211 $-1 #
coedge $-1 $339 $339 $338 $506 forward $213 $-1 #
coedge $-1 $340 $340 $214 $341 forward $335 $-1 #
edge $-1 $507 0 $507 6.2831853071796004 $340 $508 forward 7 unknown #
face $-1 $509 $510 $72 $-1 $511 reversed single #
loop $-1 $-1 $512 $215 #
plane-surface $-1 47.314733886056828 9.7912438252078822 150.04392933578688 0 1 0 0.68199836817093118 0 0.7313536940579346 forward_v I I I I #
coedge $-1 $513 $514 $515 $516 reversed $216 $-1 #
coedge $-1 $347 $218 $517 $518 reversed $137 $-1 #
coedge $-1 $218 $346 $513 $519 reversed $137 $-1 #
coedge $-1 $515 $520 $218 $349 forward $521 $-1 #
edge $-1 $522 -28.839352317202916 $523 -19.331058822261006 $348 $524 forward 7 unknown #
loop $-1 $-1 $355 $219 #
plane-surface $-1 -24.290619853553693 12.927724378439748 73.256590222001876 0.68199836817093118 0 0.7313536940579346 0.7313536940579346 0 -0.68199836817093118 forward_v I I I I #
loop $-1 $-1 $525 $139 #
coedge $-1 $353 $353 $354 $526 reversed $220 $-1 #
coedge $-1 $354 $354 $353 $526 forward $222 $-1 #
coedge $-1 $355 $355 $223 $356 forward $350 $-1 #
edge $-1 $527 0 $527 6.2831853071796004 $355 $528 forward 7 unknown #
loop $-1 $-1 $362 $224 #
plane-surface $-1 -24.290619853553693 12.927724378439748 73.256590222001876 0.68199836817093118 0 0.7313536940579346 0.7313536940579346 0 -0.68199836817093118 forward_v I I I I #
loop $-1 $-1 $529 $142 #
coedge $-1 $360 $360 $361 $530 reversed $225 $-1 #
coedge $-1 $361 $361 $360 $530 forward $227 $-1 #
coedge $-1 $362 $362 $228 $363 forward $357 $-1 #
edge $-1 $531 0 $531 6.2831853071796004 $362 $532 forward 7 unknown #
loop $-1 $-1 $369 $229 #
plane-surface $-1 -24.290619853553693 12.927724378439748 73.256590222001876 0.68199836817093118 0 0.7313536940579346 0.7313536940579346 0 -0.68199836817093118 forward_v I I I I #
loop $-1 $-1 $533 $145 #
coedge $-1 $367 $367 $368 $534 reversed $230 $-1 #
coedge $-1 $368 $368 $367 $534 forward $232 $-1 #
coedge $-1 $369 $369 $233 $370 forward $364 $-1 #
edge $-1 $535 0 $535 6.2831853071796004 $369 $536 forward 7 unknown #
face $-1 $537 $538 $76 $-1 $539 forward single #
loop $-1 $-1 $377 $234 #
plane-surface $-1 52.49671926023133 0 0 -1 0 0 0 0 1 forward_v I I I I #
coedge $-1 $540 $541 $542 $543 reversed $235 $-1 #
coedge $-1 $376 $237 $544 $545 reversed $149 $-1 #
coedge $-1 $237 $375 $540 $546 reversed $149 $-1 #
coedge $-1 $542 $547 $237 $378 forward $372 $-1 #
edge $-1 $548 64.504100860957564 $549 73.370728185502102 $377 $550 forward 7 unknown #
loop $-1 $-1 $384 $238 #
plane-surface $-1 -24.290619853553693 23.331850375886752 73.256590222001876 0.68199836817093118 0 0.7313536940579346 0.7313536940579346 0 -0.68199836817093118 forward_v I I I I #
loop $-1 $-1 $551 $151 #
coedge $-1 $382 $382 $383 $552 reversed $239 $-1 #
coedge $-1 $383 $383 $382 $552 forward $241 $-1 #
coedge $-1 $384 $384 $242 $385 forward $379 $-1 #
edge $-1 $553 0 $553 6.2831853071796004 $384 $554 forward 7 unknown #
loop $-1 $-1 $391 $243 #
plane-surface $-1 -24.290619853553693 23.331850375886752 73.256590222001876 0.68199836817093118 0 0.7313536940579346 0.7313536940579346 0 -0.68199836817093118 forward_v I I I I #
loop $-1 $-1 $555 $154 #
coedge $-1 $389 $389 $390 $556 reversed $244 $-1 #
coedge $-1 $390 $390 $389 $556 forward $246 $-1 #
coedge $-1 $391 $391 $247 $392 forward $386 $-1 #
edge $-1 $557 0 $557 6.2831853071796004 $391 $558 forward 7 unknown #
loop $-1 $-1 $398 $248 #
plane-surface $-1 -24.290619853553693 23.331850375886752 73.256590222001876 0.68199836817093118 0 0.7313536940579346 0.7313536940579346 0 -0.68199836817093118 forward_v I I I I #
loop $-1 $-1 $559 $157 #
coedge $-1 $396 $396 $397 $560 reversed $249 $-1 #
coedge $-1 $397 $397 $396 $560 forward $251 $-1 #
coedge $-1 $398 $398 $252 $399 forward $393 $-1 #
edge $-1 $561 0 $561 6.2831853071796004 $398 $562 forward 7 unknown #
face $-1 $563 $564 $60 $-1 $565 reversed single #
loop $-1 $-1 $566 $253 #
plane-surface $-1 -52.49671926023133 0 0 1 0 0 0 0 -1 forward_v I I I I #
coedge $-1 $567 $411 $568 $569 forward $254 $-1 #
coedge $-1 $570 $256 $567 $571 forward $161 $-1 #
coedge $-1 $256 $570 $572 $573 forward $161 $-1 #
coedge $-1 $414 $413 $256 $407 reversed $415 $-1 #
edge $-1 $574 -26.468330929118622 $575 26.468330929118622 $406 $576 forward 7 unknown #
coedge $-1 $258 $257 $577 $578 forward $101 $-1 #
coedge $-1 $579 $580 $257 $410 reversed $564 $-1 #
edge $-1 $417 -52.49671926023133 $581 52.49671926023133 $409 $582 forward 7 unknown #
coedge $-1 $403 $583 $258 $412 reversed $254 $-1 #
edge $-1 $584 -52.49671926023133 $416 52.49671926023133 $411 $585 forward 7 unknown #
coedge $-1 $406 $259 $583 $586 forward $415 $-1 #
coedge $-1 $259 $406 $579 $587 reversed $415 $-1 #
loop $-1 $-1 $413 $563 #
vertex $-1 $260 $588 #
vertex $-1 $260 $589 #
straight-curve $-1 52.49671926023133 0 10.517863806935873 0 1 0 I I #
face $-1 $590 $591 $61 $-1 $592 reversed single #
loop $-1 $-1 $267 $261 #
plane-surface $-1 -46.170500529286343 -32.128409863343229 0 1 0 0 0 0 -1 forward_v I I I I #
coedge $-1 $593 $594 $595 $596 forward $262 $-1 #
coedge $-1 $597 $264 $598 $599 forward $165 $-1 #
coedge $-1 $264 $597 $429 $600 forward $165 $-1 #
edge $-1 $431 -46.170500529286343 $601 -41.155424368917537 $264 $602 forward 7 unknown #
coedge $-1 $266 $265 $603 $604 forward $104 $-1 #
coedge $-1 $605 $606 $265 $428 forward $607 $-1 #
edge $-1 $608 41.155424368917537 $432 46.170500529286343 $427 $609 forward 7 unknown #
coedge $-1 $595 $267 $424 $600 reversed $420 $-1 #
coedge $-1 $267 $595 $605 $610 reversed $420 $-1 #
vertex $-1 $425 $611 #
vertex $-1 $610 $612 #
straight-curve $-1 -46.170500529286343 -26.468330929118622 0 0 0 1 I I #
face $-1 $-1 $446 $62 $-1 $613 forward single #
loop $-1 $-1 $614 $269 #
plane-surface $-1 -52.49671926023133 0 0 1 0 0 0 0 -1 forward_v I I I I #
coedge $-1 $615 $616 $617 $618 reversed $270 $-1 #
coedge $-1 $619 $272 $274 $444 forward $169 $-1 #
coedge $-1 $272 $619 $615 $620 forward $169 $-1 #
coedge $-1 $617 $275 $272 $441 forward $446 $-1 #
edge $-1 $448 -2.1258958979661742 $621 4.3360284800253908 $440 $622 forward 7 unknown #
coedge $-1 $623 $624 $273 $443 forward $435 $-1 #
edge $-1 $625 -35.493337687078693 $447 -26.92336852172992 $442 $626 forward 7 unknown #
edge $-1 $448 -11.913658973351023 $625 4.0986872755225882e-014 $274 $627 forward 7 unknown #
coedge $-1 $275 $617 $623 $628 forward $446 $-1 #
loop $-1 $-1 $617 $434 #
vertex $-1 $443 $629 #
vertex $-1 $276 $630 #
straight-curve $-1 -64.011339613720764 -1.0208296069365659 10.517863806935871 1 0 0 I I #
coedge $-1 $450 $450 $-1 $631 reversed $279 $-1 #
edge $-1 $632 0 $632 6.2831853071796004 $280 $633 forward 7 unknown #
vertex $-1 $283 $634 #
ellipse-curve $-1 -48.358757846736772 2.2101325820592166 6.2328792242614846 -0.71933980857756763 0 0.69465836192734942 0.69465836192734942 0 0.71933980857756763 1 I I #
face $-1 $-1 $635 $64 $-1 $636 reversed single #
loop $-1 $-1 $290 $284 #
plane-surface $-1 0 0 10.517863806935873 0 0 1 1 0 0 forward_v I I I I #
coedge $-1 $637 $638 $639 $640 reversed $285 $-1 #
coedge $-1 $641 $287 $289 $464 forward $178 $-1 #
coedge $-1 $287 $641 $637 $642 forward $178 $-1 #
coedge $-1 $639 $290 $287 $461 forward $455 $-1 #
edge $-1 $467 0.80378325499526504 $643 7.0767443614589975 $460 $644 forward 7 unknown #
coedge $-1 $645 $646 $288 $463 forward $635 $-1 #
edge $-1 $647 -73.370728185502102 $466 -64.504100860957564 $462 $648 forward 7 unknown #
edge $-1 $467 91.992487582230723 $647 104.99343852046268 $289 $649 forward 7 unknown #
coedge $-1 $290 $639 $645 $650 forward $455 $-1 #
vertex $-1 $291 $651 #
vertex $-1 $291 $652 #
straight-curve $-1 23.657366943028414 -4.7440470632223963 10.517863806935878 -1 0 0 I I #
coedge $-1 $469 $469 $-1 $653 reversed $294 $-1 #
edge $-1 $654 0 $654 6.2831853071796004 $295 $655 forward 7 unknown #
vertex $-1 $298 $656 #
ellipse-curve $-1 47.742572512760376 -9.7624159483933823 6.0845501446635986 0.68199836817093118 0 0.7313536940579346 0.3656768470289673 0 -0.34099918408546559 1 I I #
coedge $-1 $473 $473 $-1 $657 reversed $301 $-1 #
edge $-1 $658 0 $658 6.2831853071796004 $302 $659 forward 7 unknown #
vertex $-1 $305 $660 #
ellipse-curve $-1 47.742572512760376 -7.8805276164542626 6.0845501446635986 0.68199836817093118 0 0.7313536940579346 0.3656768470289673 0 -0.34099918408546559 1 I I #
coedge $-1 $477 $477 $-1 $661 reversed $308 $-1 #
edge $-1 $662 0 $662 6.2831853071796004 $309 $663 forward 7 unknown #
vertex $-1 $312 $664 #
ellipse-curve $-1 47.742572512760376 -5.9986392845151428 6.0845501446635986 0.68199836817093118 0 0.7313536940579346 0.3656768470289673 0 -0.34099918408546559 1 I I #
face $-1 $-1 $493 $68 $-1 $665 forward single #
loop $-1 $-1 $666 $313 #
plane-surface $-1 52.49671926023133 0 0 -1 0 0 0 0 1 forward_v I I I I #
coedge $-1 $667 $668 $669 $670 reversed $314 $-1 #
coedge $-1 $671 $316 $318 $491 forward $197 $-1 #
coedge $-1 $316 $671 $667 $672 forward $197 $-1 #
coedge $-1 $669 $319 $316 $488 forward $493 $-1 #
edge $-1 $495 -4.3982797437282386 $673 1.8746813627354939 $487 $674 forward 7 unknown #
coedge $-1 $675 $676 $317 $490 forward $482 $-1 #
edge $-1 $677 -73.370728185502102 $494 -64.504100860957564 $489 $678 forward 7 unknown #
edge $-1 $495 91.992487582230723 $677 104.99343852046268 $318 $679 forward 7 unknown #
coedge $-1 $319 $669 $675 $680 forward $493 $-1 #
loop $-1 $-1 $669 $481 #
vertex $-1 $490 $681 #
vertex $-1 $320 $682 #
straight-curve $-1 23.657366943028414 5.6600789342246109 10.517863806935878 -1 0 0 I I #
coedge $-1 $497 $497 $-1 $683 reversed $323 $-1 #
edge $-1 $684 0 $684 6.2831853071796004 $324 $685 forward 7 unknown #
vertex $-1 $327 $686 #
ellipse-curve $-1 47.742572512760376 0.64171004905362139 6.0845501446635986 0.68199836817093118 0 0.7313536940579346 0.3656768470289673 0 -0.34099918408546559 1 I I #
coedge $-1 $501 $501 $-1 $687 reversed $330 $-1 #
edge $-1 $688 0 $688 6.2831853071796004 $331 $689 forward 7 unknown #
vertex $-1 $334 $690 #
ellipse-curve $-1 47.742572512760376 2.5235983809927447 6.0845501446635986 0.68199836817093118 0 0.7313536940579346 0.3656768470289673 0 -0.34099918408546559 1 I I #
coedge $-1 $505 $505 $-1 $691 reversed $337 $-1 #
edge $-1 $692 0 $692 6.2831853071796004 $338 $693 forward 7 unknown #
vertex $-1 $341 $694 #
ellipse-curve $-1 47.742572512760376 4.4054867129318609 6.0845501446635986 0.68199836817093118 0 0.7313536940579346 0.3656768470289673 0 -0.34099918408546559 1 I I #
face $-1 $-1 $521 $72 $-1 $695 forward single #
loop $-1 $-1 $696 $342 #
plane-surface $-1 52.49671926023133 0 0 -1 0 0 0 0 1 forward_v I I I I #
coedge $-1 $697 $698 $699 $700 reversed $343 $-1 #
coedge $-1 $701 $345 $347 $519 forward $216 $-1 #
coedge $-1 $345 $701 $697 $702 forward $216 $-1 #
coedge $-1 $699 $348 $345 $516 forward $521 $-1 #
edge $-1 $523 -9.6003427424517405 $703 -3.327381635988008 $515 $704 forward 7 unknown #
coedge $-1 $705 $706 $346 $518 forward $510 $-1 #
edge $-1 $707 -73.370728185502102 $522 -64.504100860957564 $517 $708 forward 7 unknown #
edge $-1 $523 91.992487582230723 $707 104.99343852046268 $347 $709 forward 7 unknown #
coedge $-1 $348 $699 $705 $710 forward $521 $-1 #
loop $-1 $-1 $699 $509 #
vertex $-1 $518 $711 #
vertex $-1 $349 $712 #
straight-curve $-1 23.657366943028414 16.064204931671615 10.517863806935878 -1 0 0 I I #
coedge $-1 $525 $525 $-1 $713 reversed $352 $-1 #
edge $-1 $714 0 $714 6.2831853071796004 $353 $715 forward 7 unknown #
vertex $-1 $356 $716 #
ellipse-curve $-1 47.742572512760376 11.045836046500625 6.0845501446635986 0.68199836817093118 0 0.7313536940579346 0.3656768470289673 0 -0.34099918408546559 1 I I #
coedge $-1 $529 $529 $-1 $717 reversed $359 $-1 #
edge $-1 $718 0 $718 6.2831853071796004 $360 $719 forward 7 unknown #
vertex $-1 $363 $720 #
ellipse-curve $-1 47.742572512760376 12.927724378439748 6.0845501446635986 0.68199836817093118 0 0.7313536940579346 0.3656768470289673 0 -0.34099918408546559 1 I I #
coedge $-1 $533 $533 $-1 $721 reversed $366 $-1 #
edge $-1 $722 0 $722 6.2831853071796004 $367 $723 forward 7 unknown #
vertex $-1 $370 $724 #
ellipse-curve $-1 47.742572512760376 14.809612710378865 6.0845501446635986 0.68199836817093118 0 0.7313536940579346 0.3656768470289673 0 -0.34099918408546559 1 I I #
face $-1 $-1 $725 $76 $-1 $726 reversed single #
loop $-1 $-1 $544 $371 #
plane-surface $-1 0 0 10.517863806935873 0 0 1 1 0 0 forward_v I I I I #
coedge $-1 $727 $374 $376 $546 forward $235 $-1 #
coedge $-1 $374 $727 $728 $729 reversed $235 $-1 #
coedge $-1 $730 $377 $374 $543 forward $372 $-1 #
edge $-1 $549 8.5294446347115098 $731 14.802405741175246 $542 $732 forward 7 unknown #
coedge $-1 $733 $734 $375 $545 forward $538 $-1 #
edge $-1 $735 19.331058822261006 $548 28.839352317202916 $544 $736 forward 7 unknown #
edge $-1 $549 -104.99343852046268 $735 -91.992487582230723 $376 $737 forward 7 unknown #
coedge $-1 $377 $730 $733 $738 reversed $372 $-1 #
vertex $-1 $738 $739 #
vertex $-1 $378 $740 #
straight-curve $-1 52.49671926023133 20.195369822654886 75.021964667893442 0 0 -1 I I #
coedge $-1 $551 $551 $-1 $741 reversed $381 $-1 #
edge $-1 $742 0 $742 6.2831853071796004 $382 $743 forward 7 unknown #
vertex $-1 $385 $744 #
ellipse-curve $-1 47.742572512760376 21.449962043947629 6.0845501446635986 0.68199836817093118 0 0.7313536940579346 0.3656768470289673 0 -0.34099918408546559 1 I I #
coedge $-1 $555 $555 $-1 $745 reversed $388 $-1 #
edge $-1 $746 0 $746 6.2831853071796004 $389 $747 forward 7 unknown #
vertex $-1 $392 $748 #
ellipse-curve $-1 47.742572512760376 23.331850375886752 6.0845501446635986 0.68199836817093118 0 0.7313536940579346 0.3656768470289673 0 -0.34099918408546559 1 I I #
coedge $-1 $559 $559 $-1 $749 reversed $395 $-1 #
edge $-1 $750 0 $750 6.2831853071796004 $396 $751 forward 7 unknown #
vertex $-1 $399 $752 #
ellipse-curve $-1 47.742572512760376 25.213738707825868 6.0845501446635986 0.68199836817093118 0 0.7313536940579346 0.3656768470289673 0 -0.34099918408546559 1 I I #
face $-1 $-1 $415 $60 $-1 $753 reversed single #
loop $-1 $-1 $579 $400 #
plane-surface $-1 0 26.468330929118622 0 0 -1 0 0 0 -1 forward_v I I I I #
coedge $-1 $754 $577 $580 $755 forward $401 $-1 #
coedge $-1 $583 $403 $404 $571 reversed $254 $-1 #
coedge $-1 $577 $754 $403 $569 reversed $401 $-1 #
edge $-1 $584 -10.517863806935873 $756 10.517863806935873 $568 $757 forward 7 unknown #
coedge $-1 $405 $404 $754 $758 forward $161 $-1 #
edge $-1 $575 -52.49671926023133 $756 52.49671926023133 $567 $759 forward 7 unknown #
coedge $-1 $580 $579 $405 $573 reversed $564 $-1 #
edge $-1 $760 -52.49671926023133 $574 52.49671926023133 $572 $761 forward 7 unknown #
vertex $-1 $407 $762 #
vertex $-1 $586 $763 #
straight-curve $-1 52.49671926023133 0 -10.517863806935873 0 -1 0 I I #
coedge $-1 $566 $568 $408 $578 reversed $401 $-1 #
edge $-1 $581 -26.468330929118622 $584 26.468330929118622 $577 $764 forward 7 unknown #
coedge $-1 $572 $409 $414 $587 forward $564 $-1 #
coedge $-1 $409 $572 $566 $755 reversed $564 $-1 #
vertex $-1 $410 $765 #
straight-curve $-1 0 26.468330929118622 10.517863806935873 -1 0 0 I I #
coedge $-1 $411 $567 $413 $586 reversed $254 $-1 #
vertex $-1 $578 $766 #
straight-curve $-1 0 -26.468330929118622 10.517863806935873 1 0 0 I I #
edge $-1 $416 -10.517863806935873 $575 10.517863806935873 $413 $767 forward 7 unknown #
edge $-1 $417 -10.517863806935873 $574 10.517863806935873 $414 $768 forward 7 unknown #
point $-1 52.49671926023133 -26.468330929118622 10.517863806935873 #
point $-1 52.49671926023133 26.468330929118622 10.517863806935873 #
face $-1 $-1 $607 $61 $-1 $769 forward single #
loop $-1 $-1 $770 $419 #
plane-surface $-1 -41.155424368917537 -32.128409863343229 0 -1 0 0 0 0 1 forward_v I I I I #
coedge $-1 $771 $422 $597 $772 reversed $262 $-1 #
coedge $-1 $422 $771 $773 $774 reversed $262 $-1 #
coedge $-1 $430 $429 $422 $596 reversed $420 $-1 #
edge $-1 $775 -10.517863806935873 $776 10.517863806935873 $595 $777 forward 7 unknown #
coedge $-1 $424 $423 $593 $772 forward $165 $-1 #
coedge $-1 $603 $770 $423 $599 reversed $591 $-1 #
edge $-1 $601 -5.6600789342246109 $778 5.6600789342246074 $598 $779 forward 7 unknown #
edge $-1 $776 -5.6600789342246074 $431 5.6600789342246109 $429 $780 forward 7 unknown #
vertex $-1 $599 $781 #
straight-curve $-1 0 -26.468330929118622 -10.517863806935873 1 0 0 I I #
coedge $-1 $782 $598 $426 $604 reversed $591 $-1 #
edge $-1 $608 -10.517863806935873 $601 10.517863806935873 $603 $783 forward 7 unknown #
coedge $-1 $773 $427 $430 $610 forward $607 $-1 #
coedge $-1 $427 $773 $782 $784 forward $607 $-1 #
loop $-1 $-1 $427 $590 #
vertex $-1 $428 $785 #
straight-curve $-1 0 -26.468330929118622 10.517863806935873 -1 0 0 I I #
edge $-1 $432 -5.6600789342246109 $775 5.6600789342246074 $430 $786 forward 7 unknown #
point $-1 -46.170500529286343 -26.468330929118618 -10.517863806935873 #
point $-1 -46.170500529286343 -26.468330929118618 10.517863806935873 #
plane-surface $-1 0 0 10.517863806935873 0 0 1 1 0 0 forward_v I I I I #
coedge $-1 $624 $623 $616 $787 forward $435 $-1 #
coedge $-1 $616 $437 $439 $620 reversed $270 $-1 #
coedge $-1 $437 $615 $614 $787 reversed $270 $-1 #
coedge $-1 $445 $440 $437 $618 forward $446 $-1 #
edge $-1 $621 -19.790543180478551 $788 -11.514620353489434 $617 $789 forward 7 unknown #
coedge $-1 $439 $438 $624 $790 reversed $169 $-1 #
edge $-1 $791 -4.0986872755225882e-014 $621 11.913658973351023 $615 $792 forward 7 unknown #
vertex $-1 $441 $793 #
straight-curve $-1 -44.220796433242214 1.1050662910296083 10.517863806935875 0 1 0 I I #
coedge $-1 $614 $442 $445 $628 reversed $435 $-1 #
coedge $-1 $442 $614 $619 $790 forward $435 $-1 #
vertex $-1 $443 $794 #
straight-curve $-1 -52.49671926023133 -1.0208296069365659 37.441232328665791 0 0 1 I I #
straight-curve $-1 -52.496719260231302 -1.0208296069365659 1.9478946415871263 -0.69465836192734942 0 -0.71933980857756763 I I #
edge $-1 $788 -5.4410947710549991 $447 1.0208296069365659 $623 $795 forward 7 unknown #
point $-1 -52.49671926023133 -1.0208296069365659 10.517863806935873 #
point $-1 -44.220796433242214 -1.0208296069365659 10.517863806935873 #
edge $-1 $796 1 $796 0 $450 $-1 forward 7 unknown #
vertex $-1 $451 $797 #
ellipse-curve $-1 -46.977793136553622 2.2101325820592166 4.8992971368857905 -0.71933980857756763 0 0.69465836192734942 0.69465836192734942 0 0.71933980857756763 1 I I #
point $-1 -47.664099484809441 2.2101325820592166 6.9522190328390687 #
loop $-1 $-1 $462 $454 #
plane-surface $-1 52.49671926023133 0 0 -1 0 0 0 0 1 forward_v I I I I #
coedge $-1 $638 $457 $459 $642 reversed $285 $-1 #
coedge $-1 $457 $637 $798 $799 reversed $285 $-1 #
coedge $-1 $465 $460 $457 $640 forward $455 $-1 #
edge $-1 $643 19.331058822261006 $800 28.839352317202916 $639 $801 forward 7 unknown #
coedge $-1 $459 $458 $646 $802 reversed $178 $-1 #
edge $-1 $803 -104.99343852046268 $643 -91.992487582230723 $637 $804 forward 7 unknown #
vertex $-1 $461 $805 #
straight-curve $-1 42.988425765289421 -3.9402638082271313 10.517863806935878 0 -1 0 I I #
coedge $-1 $798 $462 $465 $650 reversed $635 $-1 #
coedge $-1 $462 $798 $641 $802 forward $635 $-1 #
vertex $-1 $463 $806 #
straight-curve $-1 52.49671926023133 -4.7440470632223963 75.021964667893442 0 0 1 I I #
straight-curve $-1 -24.290619853553693 -4.7440470632223963 73.256590222001876 0.7313536940579346 0 -0.68199836817093118 I I #
edge $-1 $800 -11.017008169686129 $466 -4.7440470632223963 $645 $807 forward 7 unknown #
point $-1 52.49671926023133 -4.7440470632223963 10.517863806935873 #
point $-1 42.988425765289421 -4.7440470632223963 10.517863806935871 #
edge $-1 $808 1 $808 0 $469 $-1 forward 7 unknown #
vertex $-1 $470 $809 #
ellipse-curve $-1 46.617442754546317 -9.7624159483933823 4.877996224056389 0.68199836817093118 0 0.7313536940579346 0.3656768470289673 0 -0.34099918408546559 1 I I #
point $-1 48.108249359789347 -9.7624159483933823 5.7435509605781441 #
edge $-1 $810 1 $810 0 $473 $-1 forward 7 unknown #
vertex $-1 $474 $811 #
ellipse-curve $-1 46.617442754546317 -7.8805276164542626 4.877996224056389 0.68199836817093118 0 0.7313536940579346 0.3656768470289673 0 -0.34099918408546559 1 I I #
point $-1 48.108249359789347 -7.8805276164542626 5.7435509605781441 #
edge $-1 $812 1 $812 0 $477 $-1 forward 7 unknown #
vertex $-1 $478 $813 #
ellipse-curve $-1 46.617442754546317 -5.9986392845151428 4.877996224056389 0.68199836817093118 0 0.7313536940579346 0.3656768470289673 0 -0.34099918408546559 1 I I #
point $-1 48.108249359789347 -5.9986392845151428 5.7435509605781441 #
plane-surface $-1 0 0 10.517863806935873 0 0 1 1 0 0 forward_v I I I I #
coedge $-1 $676 $675 $668 $814 forward $482 $-1 #
coedge $-1 $668 $484 $486 $672 reversed $314 $-1 #
coedge $-1 $484 $667 $666 $814 reversed $314 $-1 #
coedge $-1 $492 $487 $484 $670 forward $493 $-1 #
edge $-1 $673 19.331058822261006 $815 28.839352317202916 $669 $816 forward 7 unknown #
coedge $-1 $486 $485 $676 $817 reversed $197 $-1 #
edge $-1 $818 -104.99343852046268 $673 -91.992487582230723 $667 $819 forward 7 unknown #
vertex $-1 $488 $820 #
straight-curve $-1 42.988425765289421 1.2617991904963723 10.517863806935878 0 -1 0 I I #
coedge $-1 $666 $489 $492 $680 reversed $482 $-1 #
coedge $-1 $489 $666 $671 $817 forward $482 $-1 #
vertex $-1 $490 $821 #
straight-curve $-1 52.49671926023133 5.6600789342246109 75.021964667893442 0 0 1 I I #
straight-curve $-1 -24.290619853553693 5.6600789342246109 73.256590222001876 0.7313536940579346 0 -0.68199836817093118 I I #
edge $-1 $815 -0.61288217223912156 $494 5.6600789342246109 $675 $822 forward 7 unknown #
point $-1 52.49671926023133 5.6600789342246109 10.517863806935873 #
point $-1 42.988425765289421 5.6600789342246109 10.517863806935871 #
edge $-1 $823 1 $823 0 $497 $-1 forward 7 unknown #
vertex $-1 $498 $824 #
ellipse-curve $-1 46.617442754546317 0.64171004905362139 4.877996224056389 0.68199836817093118 0 0.7313536940579346 0.3656768470289673 0 -0.34099918408546559 1 I I #
point $-1 48.108249359789347 0.64171004905362139 5.7435509605781441 #
edge $-1 $825 1 $825 0 $501 $-1 forward 7 unknown #
vertex $-1 $502 $826 #
ellipse-curve $-1 46.617442754546317 2.5235983809927447 4.877996224056389 0.68199836817093118 0 0.7313536940579346 0.3656768470289673 0 -0.34099918408546559 1 I I #
point $-1 48.108249359789347 2.5235983809927447 5.7435509605781441 #
edge $-1 $827 1 $827 0 $505 $-1 forward 7 unknown #
vertex $-1 $506 $828 #
ellipse-curve $-1 46.617442754546317 4.4054867129318609 4.877996224056389 0.68199836817093118 0 0.7313536940579346 0.3656768470289673 0 -0.34099918408546559 1 I I #
point $-1 48.108249359789347 4.4054867129318609 5.7435509605781441 #
plane-surface $-1 0 0 10.517863806935873 0 0 1 1 0 0 forward_v I I I I #
coedge $-1 $706 $705 $698 $829 forward $510 $-1 #
coedge $-1 $698 $512 $514 $702 reversed $343 $-1 #
coedge $-1 $512 $697 $696 $829 reversed $343 $-1 #
coedge $-1 $520 $515 $512 $700 forward $521 $-1 #
edge $-1 $703 19.331058822261006 $830 28.839352317202916 $699 $831 forward 7 unknown #
coedge $-1 $514 $513 $706 $832 reversed $216 $-1 #
edge $-1 $833 -104.99343852046268 $703 -91.992487582230723 $697 $834 forward 7 unknown #
vertex $-1 $516 $835 #
straight-curve $-1 42.988425765289421 6.4638621892198742 10.517863806935878 0 -1 0 I I #
coedge $-1 $696 $517 $520 $710 reversed $510 $-1 #
coedge $-1 $517 $696 $701 $832 forward $510 $-1 #
vertex $-1 $518 $836 #
straight-curve $-1 52.49671926023133 16.064204931671615 75.021964667893442 0 0 1 I I #
straight-curve $-1 -24.290619853553693 16.064204931671615 73.256590222001876 0.7313536940579346 0 -0.68199836817093118 I I #
edge $-1 $830 9.7912438252078822 $522 16.064204931671615 $705 $837 forward 7 unknown #
point $-1 52.49671926023133 16.064204931671615 10.517863806935873 #
point $-1 42.988425765289421 16.064204931671615 10.517863806935871 #
edge $-1 $838 1 $838 0 $525 $-1 forward 7 unknown #
vertex $-1 $526 $839 #
ellipse-curve $-1 46.617442754546317 11.045836046500625 4.877996224056389 0.68199836817093118 0 0.7313536940579346 0.3656768470289673 0 -0.34099918408546559 1 I I #
point $-1 48.108249359789347 11.045836046500625 5.7435509605781441 #
edge $-1 $840 1 $840 0 $529 $-1 forward 7 unknown #
vertex $-1 $530 $841 #
ellipse-curve $-1 46.617442754546317 12.927724378439748 4.877996224056389 0.68199836817093118 0 0.7313536940579346 0.3656768470289673 0 -0.34099918408546559 1 I I #
point $-1 48.108249359789347 12.927724378439748 5.7435509605781441 #
edge $-1 $842 1 $842 0 $533 $-1 forward 7 unknown #
vertex $-1 $534 $843 #
ellipse-curve $-1 46.617442754546317 14.809612710378865 4.877996224056389 0.68199836817093118 0 0.7313536940579346 0.3656768470289673 0 -0.34099918408546559 1 I I #
point $-1 48.108249359789347 14.809612710378865 5.7435509605781441 #
loop $-1 $-1 $728 $537 #
plane-surface $-1 0 26.468330929118622 0 0 -1 0 0 0 -1 forward_v I I I I #
coedge $-1 $541 $540 $734 $844 reversed $235 $-1 #
coedge $-1 $845 $846 $541 $729 forward $725 $-1 #
edge $-1 $731 -71.130483745449979 $847 -58.129532807218027 $728 $848 forward 7 unknown #
coedge $-1 $547 $542 $846 $849 reversed $372 $-1 #
vertex $-1 $543 $850 #
straight-curve $-1 52.496719260231323 11.665925187943376 1.6512364823913472 0 1 0 I I #
coedge $-1 $851 $544 $547 $738 forward $538 $-1 #
coedge $-1 $544 $851 $727 $844 forward $538 $-1 #
vertex $-1 $545 $852 #
straight-curve $-1 23.657366943028414 20.195369822654886 10.517863806935878 1 0 0 I I #
straight-curve $-1 -24.290619853553693 20.195369822654886 73.256590222001876 -0.7313536940579346 0 0.68199836817093118 I I #
edge $-1 $548 20.195369822654886 $853 26.468330929118622 $547 $854 forward 7 unknown #
point $-1 52.49671926023133 20.195369822654886 10.517863806935873 #
point $-1 52.49671926023133 20.195369822654886 1.6512364823913401 #
edge $-1 $855 1 $855 0 $551 $-1 forward 7 unknown #
vertex $-1 $552 $856 #
ellipse-curve $-1 46.617442754546317 21.449962043947629 4.877996224056389 0.68199836817093118 0 0.7313536940579346 0.3656768470289673 0 -0.34099918408546559 1 I I #
point $-1 48.108249359789347 21.449962043947629 5.7435509605781441 #
edge $-1 $857 1 $857 0 $555 $-1 forward 7 unknown #
vertex $-1 $556 $858 #
ellipse-curve $-1 46.617442754546317 23.331850375886752 4.877996224056389 0.68199836817093118 0 0.7313536940579346 0.3656768470289673 0 -0.34099918408546559 1 I I #
point $-1 48.108249359789347 23.331850375886752 5.7435509605781441 #
edge $-1 $859 1 $859 0 $559 $-1 forward 7 unknown #
vertex $-1 $560 $860 #
ellipse-curve $-1 46.617442754546317 25.213738707825868 4.877996224056389 0.68199836817093118 0 0.7313536940579346 0.3656768470289673 0 -0.34099918408546559 1 I I #
point $-1 48.108249359789347 25.213738707825868 5.7435509605781441 #
plane-surface $-1 52.49671926023133 0 0 -1 0 0 0 0 1 forward_v I I I I #
coedge $-1 $568 $566 $570 $758 reversed $401 $-1 #
edge $-1 $581 -10.517863806935873 $760 10.517863806935873 $580 $861 forward 7 unknown #
vertex $-1 $758 $862 #
straight-curve $-1 -52.49671926023133 -26.468330929118622 0 0 0 -1 I I #
edge $-1 $756 -26.468330929118622 $760 26.468330929118622 $754 $863 forward 7 unknown #
straight-curve $-1 0 -26.468330929118622 -10.517863806935873 -1 0 0 I I #
vertex $-1 $573 $864 #
straight-curve $-1 0 26.468330929118622 -10.517863806935873 1 0 0 I I #
point $-1 52.49671926023133 26.468330929118622 -10.517863806935873 #
point $-1 52.49671926023133 -26.468330929118622 -10.517863806935873 #
straight-curve $-1 -52.49671926023133 0 10.517863806935873 0 -1 0 I I #
point $-1 -52.49671926023133 26.468330929118622 10.517863806935873 #
point $-1 -52.49671926023133 -26.468330929118622 10.517863806935873 #
straight-curve $-1 52.49671926023133 -26.468330929118622 0 0 0 -1 I I #
straight-curve $-1 52.49671926023133 26.468330929118622 0 0 0 -1 I I #
plane-surface $-1 0 0 10.517863806935873 0 0 1 1 0 0 forward_v I I I I #
coedge $-1 $598 $782 $771 $865 forward $591 $-1 #
coedge $-1 $594 $593 $770 $865 reversed $262 $-1 #
edge $-1 $778 -2.5075380801844034 $776 2.5075380801844034 $593 $866 forward 7 unknown #
coedge $-1 $606 $605 $594 $774 forward $607 $-1 #
edge $-1 $775 -2.5075380801844034 $867 2.5075380801844034 $594 $868 forward 7 unknown #
vertex $-1 $610 $869 #
vertex $-1 $600 $870 #
straight-curve $-1 -46.170500529286343 -37.788488797567837 0 0 0 -1 I I #
vertex $-1 $865 $871 #
straight-curve $-1 -41.155424368917537 -32.128409863343229 -10.517863806935873 0 -1 0 I I #
straight-curve $-1 -46.170500529286343 -32.128409863343229 -10.517863806935873 0 1 0 I I #
point $-1 -41.155424368917537 -26.468330929118618 -10.517863806935873 #
coedge $-1 $770 $603 $606 $784 reversed $591 $-1 #
straight-curve $-1 -41.155424368917537 -26.468330929118622 0 0 0 -1 I I #
edge $-1 $867 -5.6600789342246074 $608 5.6600789342246109 $782 $872 forward 7 unknown #
point $-1 -41.155424368917537 -26.468330929118618 10.517863806935873 #
straight-curve $-1 -46.170500529286343 -32.128409863343229 10.517863806935873 0 -1 0 I I #
edge $-1 $788 26.92336852172992 $791 35.493337687078693 $614 $873 forward 7 unknown #
vertex $-1 $628 $874 #
straight-curve $-1 -64.011339613720764 5.4410947710549991 10.517863806935871 -1 0 0 I I #
edge $-1 $791 -4.3360284800253908 $625 2.1258958979661742 $624 $875 forward 7 unknown #
vertex $-1 $790 $876 #
straight-curve $-1 -52.496719260231302 5.4410947710549991 1.9478946415871263 0.69465836192734942 0 0.71933980857756763 I I #
point $-1 -44.220796433242214 5.4410947710549991 10.517863806935873 #
point $-1 -52.49671926023133 -1.0208296069365659 1.9478946415870968 #
straight-curve $-1 -52.49671926023133 0 10.517863806935873 0 -1 0 I I #
vertex $-1 $631 $877 #
point $-1 -46.283134774626269 2.2101325820592166 5.6186369454633578 #
coedge $-1 $646 $645 $638 $799 forward $635 $-1 #
edge $-1 $800 64.504100860957564 $803 73.370728185502102 $798 $878 forward 7 unknown #
vertex $-1 $650 $879 #
straight-curve $-1 23.657366943028414 -11.017008169686129 10.517863806935878 1 0 0 I I #
edge $-1 $803 -7.0767443614589975 $647 -0.80378325499526504 $646 $880 forward 7 unknown #
vertex $-1 $802 $881 #
straight-curve $-1 -24.290619853553693 -11.017008169686129 73.256590222001876 -0.7313536940579346 0 0.68199836817093118 I I #
point $-1 42.988425765289421 -11.017008169686129 10.517863806935871 #
point $-1 52.49671926023133 -4.7440470632223963 1.6512364823913401 #
straight-curve $-1 52.49671926023133 0 10.517863806935873 0 1 0 I I #
vertex $-1 $653 $882 #
point $-1 46.983119601575289 -9.7624159483933823 4.5369970399709239 #
vertex $-1 $657 $883 #
point $-1 46.983119601575289 -7.8805276164542626 4.5369970399709239 #
vertex $-1 $661 $884 #
point $-1 46.983119601575289 -5.9986392845151428 4.5369970399709239 #
edge $-1 $815 64.504100860957564 $818 73.370728185502102 $666 $885 forward 7 unknown #
vertex $-1 $680 $886 #
straight-curve $-1 23.657366943028414 -0.61288217223912156 10.517863806935878 1 0 0 I I #
edge $-1 $818 -1.8746813627354939 $677 4.3982797437282386 $676 $887 forward 7 unknown #
vertex $-1 $817 $888 #
straight-curve $-1 -24.290619853553693 -0.61288217223912156 73.256590222001876 -0.7313536940579346 0 0.68199836817093118 I I #
point $-1 42.988425765289421 -0.61288217223912156 10.517863806935871 #
point $-1 52.49671926023133 5.6600789342246109 1.6512364823913401 #
straight-curve $-1 52.49671926023133 0 10.517863806935873 0 1 0 I I #
vertex $-1 $683 $889 #
point $-1 46.983119601575289 0.64171004905362139 4.5369970399709239 #
vertex $-1 $687 $890 #
point $-1 46.983119601575289 2.5235983809927447 4.5369970399709239 #
vertex $-1 $691 $891 #
point $-1 46.983119601575289 4.4054867129318609 4.5369970399709239 #
edge $-1 $830 64.504100860957564 $833 73.370728185502102 $696 $892 forward 7 unknown #
vertex $-1 $710 $893 #
straight-curve $-1 23.657366943028414 9.7912438252078822 10.517863806935878 1 0 0 I I #
edge $-1 $833 3.327381635988008 $707 9.6003427424517405 $706 $894 forward 7 unknown #
vertex $-1 $832 $895 #
straight-curve $-1 -24.290619853553693 9.7912438252078822 73.256590222001876 -0.7313536940579346 0 0.68199836817093118 I I #
point $-1 42.988425765289421 9.7912438252078822 10.517863806935871 #
point $-1 52.49671926023133 16.064204931671615 1.6512364823913401 #
straight-curve $-1 52.49671926023133 0 10.517863806935873 0 1 0 I I #
vertex $-1 $713 $896 #
point $-1 46.983119601575289 11.045836046500625 4.5369970399709239 #
vertex $-1 $717 $897 #
point $-1 46.983119601575289 12.927724378439748 4.5369970399709239 #
vertex $-1 $721 $898 #
point $-1 46.983119601575289 14.809612710378865 4.5369970399709239 #
edge $-1 $847 -14.802405741175242 $735 -8.5294446347115098 $734 $899 forward 7 unknown #
coedge $-1 $846 $728 $851 $900 reversed $725 $-1 #
coedge $-1 $728 $845 $730 $849 forward $725 $-1 #
vertex $-1 $729 $901 #
straight-curve $-1 0.47517721286861381 26.468330929118622 50.162110323997183 -0.7313536940579346 0 0.68199836817093118 I I #
edge $-1 $853 -10.517863806935873 $731 -1.6512364823913555 $730 $902 forward 7 unknown #
point $-1 52.49671926023133 26.468330929118622 1.6512364823913555 #
coedge $-1 $734 $733 $845 $900 forward $538 $-1 #
point $-1 42.988425765289421 20.195369822654886 10.517863806935871 #
vertex $-1 $738 $903 #
straight-curve $-1 52.49671926023133 0 10.517863806935873 0 1 0 I I #
vertex $-1 $741 $904 #
point $-1 46.983119601575289 21.449962043947629 4.5369970399709239 #
vertex $-1 $745 $905 #
point $-1 46.983119601575289 23.331850375886752 4.5369970399709239 #
vertex $-1 $749 $906 #
point $-1 46.983119601575289 25.213738707825868 4.5369970399709239 #
straight-curve $-1 -52.49671926023133 26.468330929118622 0 0 0 -1 I I #
point $-1 -52.49671926023133 -26.468330929118622 -10.517863806935873 #
straight-curve $-1 -52.49671926023133 0 -10.517863806935873 0 1 0 I I #
point $-1 -52.49671926023133 26.468330929118622 -10.517863806935873 #
edge $-1 $867 -10.517863806935873 $778 10.517863806935873 $770 $907 forward 7 unknown #
straight-curve $-1 -43.66296244910194 -37.788488797567837 -10.517863806935873 -1 0 0 I I #
vertex $-1 $784 $908 #
straight-curve $-1 -43.66296244910194 -37.788488797567837 10.517863806935873 1 0 0 I I #
point $-1 -46.170500529286343 -37.788488797567837 10.517863806935873 #
point $-1 -46.170500529286343 -37.788488797567837 -10.517863806935873 #
point $-1 -41.155424368917537 -37.788488797567837 -10.517863806935873 #
straight-curve $-1 -41.155424368917537 -32.128409863343229 10.517863806935873 0 1 0 I I #
straight-curve $-1 -52.49671926023133 5.4410947710549991 37.441232328665791 0 0 -1 I I #
point $-1 -52.49671926023133 5.4410947710549991 10.517863806935873 #
straight-curve $-1 -52.49671926023133 1.1050662910296083 1.9478946415870941 0 -1 0 I I #
point $-1 -52.49671926023133 5.4410947710549991 1.9478946415870968 #
point $-1 -46.258453327976049 2.2101325820592166 4.2046387749584415 #
straight-curve $-1 52.49671926023133 -11.017008169686129 75.021964667893442 0 0 -1 I I #
point $-1 52.49671926023133 -11.017008169686129 10.517863806935873 #
straight-curve $-1 52.496719260231323 -3.9402638082271313 1.6512364823913472 0 1 0 I I #
point $-1 52.49671926023133 -11.017008169686129 1.6512364823913401 #
point $-1 46.276443570460856 -9.7624159483933823 4.5123193770274206 #
point $-1 46.276443570460856 -7.8805276164542626 4.5123193770274206 #
point $-1 46.276443570460856 -5.9986392845151428 4.5123193770274206 #
straight-curve $-1 52.49671926023133 -0.61288217223912156 75.021964667893442 0 0 -1 I I #
point $-1 52.49671926023133 -0.61288217223912156 10.517863806935873 #
straight-curve $-1 52.496719260231323 1.2617991904963723 1.6512364823913472 0 1 0 I I #
point $-1 52.49671926023133 -0.61288217223912156 1.6512364823913401 #
point $-1 46.276443570460856 0.64171004905362139 4.5123193770274206 #
point $-1 46.276443570460856 2.5235983809927447 4.5123193770274206 #
point $-1 46.276443570460856 4.4054867129318609 4.5123193770274206 #
straight-curve $-1 52.49671926023133 9.7912438252078822 75.021964667893442 0 0 -1 I I #
point $-1 52.49671926023133 9.7912438252078822 10.517863806935873 #
straight-curve $-1 52.496719260231323 6.4638621892198742 1.6512364823913472 0 1 0 I I #
point $-1 52.49671926023133 9.7912438252078822 1.6512364823913401 #
point $-1 46.276443570460856 11.045836046500625 4.5123193770274206 #
point $-1 46.276443570460856 12.927724378439748 4.5123193770274206 #
point $-1 46.276443570460856 14.809612710378865 4.5123193770274206 #
straight-curve $-1 42.988425765289421 11.665925187943376 10.517863806935878 0 -1 0 I I #
edge $-1 $853 -52.49671926023133 $847 -42.988425765289421 $845 $909 forward 7 unknown #
point $-1 42.988425765289421 26.468330929118618 10.517863806935871 #
straight-curve $-1 52.49671926023133 26.468330929118622 0 0 0 -1 I I #
point $-1 52.49671926023133 26.468330929118622 10.517863806935873 #
point $-1 46.276443570460856 21.449962043947629 4.5123193770274206 #
point $-1 46.276443570460856 23.331850375886752 4.5123193770274206 #
point $-1 46.276443570460856 25.213738707825868 4.5123193770274206 #
straight-curve $-1 -41.155424368917537 -37.788488797567837 0 0 0 -1 I I #
point $-1 -41.155424368917537 -37.788488797567837 10.517863806935873 #
straight-curve $-1 0 26.468330929118622 10.517863806935873 -1 0 0 I I #
End-of-ACIS-data 