500 0 8 0           
7 Unknown 11 ACIS 5.0 NT 24 Fri Mar 26 03:27:32 1999 
-1 9.9999999999999995e-007 1e-010 
body $-1 $8 $-1 $9 #
body $-1 $10 $-1 $11 #
body $-1 $12 $-1 $13 #
body $-1 $14 $-1 $15 #
body $-1 $16 $-1 $17 #
body $-1 $18 $-1 $19 #
body $-1 $20 $-1 $21 #
body $-1 $22 $-1 $23 #
lump $-1 $-1 $24 $0 #
transform $-1 1 0 0 0 1 0 0 0 1 76.059450056459241 39.598406211986301 16.644696445781722 1 rotate no_reflect no_shear #
lump $-1 $-1 $25 $1 #
transform $-1 1 0 0 0 1 0 0 0 1 76.059450056459241 39.598406211986301 16.644696445781722 1 rotate no_reflect no_shear #
lump $-1 $-1 $26 $2 #
transform $-1 1 0 0 0 1 0 0 0 1 76.059450056459241 39.598406211986301 16.644696445781722 1 rotate no_reflect no_shear #
lump $-1 $-1 $27 $3 #
transform $-1 1 0 0 0 1 0 0 0 1 76.059450056459241 39.598406211986301 16.644696445781722 1 rotate no_reflect no_shear #
lump $-1 $-1 $28 $4 #
transform $-1 1 0 0 0 1 0 0 0 1 76.059450056459241 39.598406211986301 16.644696445781722 1 rotate no_reflect no_shear #
lump $-1 $-1 $29 $5 #
transform $-1 1 0 0 0 1 0 0 0 1 76.059450056459241 39.598406211986301 16.644696445781722 1 rotate no_reflect no_shear #
lump $-1 $-1 $30 $6 #
transform $-1 1 0 0 0 1 0 0 0 1 76.059450056459241 39.598406211986301 16.644696445781722 1 rotate no_reflect no_shear #
lump $-1 $-1 $31 $7 #
transform $-1 1 0 0 0 1 0 0 0 1 76.059450056459241 39.598406211986301 16.644696445781722 1 rotate no_reflect no_shear #
shell $-1 $-1 $-1 $32 $-1 $8 #
shell $-1 $-1 $-1 $33 $-1 $10 #
shell $-1 $-1 $-1 $34 $-1 $12 #
shell $-1 $-1 $-1 $35 $-1 $14 #
shell $-1 $-1 $-1 $36 $-1 $16 #
shell $-1 $-1 $-1 $37 $-1 $18 #
shell $-1 $-1 $-1 $38 $-1 $20 #
shell $-1 $-1 $-1 $39 $-1 $22 #
face $-1 $40 $41 $24 $-1 $42 forward single #
face $-1 $43 $44 $25 $-1 $45 reversed single #
face $-1 $46 $47 $26 $-1 $48 forward single #
face $-1 $49 $50 $27 $-1 $51 forward single #
face $-1 $52 $53 $28 $-1 $54 forward single #
face $-1 $55 $56 $29 $-1 $57 reversed single #
face $-1 $58 $59 $30 $-1 $60 forward single #
face $-1 $61 $62 $31 $-1 $63 forward single #
face $-1 $64 $65 $24 $-1 $66 reversed single #
loop $-1 $-1 $67 $32 #
plane-surface $-1 0 0 16.644696445781722 0 0 1 1 0 0 forward_v I I I I #
face $-1 $68 $69 $25 $-1 $70 reversed single #
loop $-1 $-1 $71 $33 #
plane-surface $-1 -26.258608427405179 -150.85112815300891 111.16078800595936 -1 0 0 0 -0.73135370988377701 0.68199835119979291 forward_v I I I I #
face $-1 $72 $73 $26 $-1 $74 forward single #
loop $-1 $75 $76 $34 #
cone-surface $-1 -44.141666771073233 -34.016529520244369 10.837725766641169 0 0.73135370988377701 -0.68199835119979291 1 0 0 1 I I 0 1 1 forward I I I I #
face $-1 $77 $78 $27 $-1 $79 forward single #
loop $-1 $80 $81 $35 #
cone-surface $-1 -37.435519892197718 -34.016529520244369 10.837725766641169 0 0.73135370988377701 -0.68199835119979291 1 0 0 1 I I 0 1 1 forward I I I I #
face $-1 $82 $83 $28 $-1 $84 forward single #
loop $-1 $85 $86 $36 #
cone-surface $-1 -30.729373013322203 -34.016529520244369 10.837725766641169 0 0.73135370988377701 -0.68199835119979291 1 0 0 1 I I 0 1 1 forward I I I I #
face $-1 $87 $88 $29 $-1 $89 reversed single #
loop $-1 $-1 $90 $37 #
plane-surface $-1 59.134498912269464 79.626792814584874 168.07175311965418 1 0 0 0 -0.6560590369687036 -0.75470957328743171 forward_v I I I I #
face $-1 $91 $92 $30 $-1 $93 forward single #
loop $-1 $94 $95 $38 #
cone-surface $-1 63.970199239180829 29.645398093057455 7.6745499916683251 0 -0.6560590369687036 -0.75470957328743171 1 0 0 1 I I 0 1 1 forward I I I I #
face $-1 $96 $97 $31 $-1 $98 forward single #
loop $-1 $99 $100 $39 #
cone-surface $-1 71.223749729547876 29.645398093057455 7.6745499916683251 0 -0.6560590369687036 -0.75470957328743171 1 0 0 1 I I 0 1 1 forward I I I I #
face $-1 $101 $102 $24 $-1 $103 reversed single #
loop $-1 $-1 $104 $40 #
plane-surface $-1 0 0 -16.644696445781722 0 0 1 1 0 0 forward_v I I I I #
coedge $-1 $105 $106 $107 $108 forward $41 $-1 #
face $-1 $109 $110 $25 $-1 $111 reversed single #
loop $-1 $-1 $112 $43 #
plane-surface $-1 -37.435519892197711 -39.598406211986273 7.4159489426229612 0 -0.73135370988377701 0.68199835119979291 1 0 0 forward_v I I I I #
coedge $-1 $113 $114 $115 $116 reversed $44 $-1 #
face $-1 $-1 $117 $26 $-1 $118 forward single #
loop $-1 $119 $120 $46 #
cone-surface $-1 -44.141666771073233 -32.371949005442545 9.3041296634801007 0 0.73135370988377701 -0.68199835119979291 0.5 0 0 1 I I -0.70710678118654746 0.70710678118654746 0.5 forward I I I I #
loop $-1 $-1 $121 $34 #
coedge $-1 $76 $76 $122 $123 reversed $47 $-1 #
face $-1 $-1 $124 $27 $-1 $125 forward single #
loop $-1 $126 $127 $49 #
cone-surface $-1 -37.435519892197718 -32.371949005442545 9.3041296634801007 0 0.73135370988377701 -0.68199835119979291 0.5 0 0 1 I I -0.70710678118654746 0.70710678118654746 0.5 forward I I I I #
loop $-1 $-1 $128 $35 #
coedge $-1 $81 $81 $129 $130 reversed $50 $-1 #
face $-1 $-1 $131 $28 $-1 $132 forward single #
loop $-1 $133 $134 $52 #
cone-surface $-1 -30.729373013322203 -32.371949005442545 9.3041296634801007 0 0.73135370988377701 -0.68199835119979291 0.5 0 0 1 I I -0.70710678118654746 0.70710678118654746 0.5 forward I I I I #
loop $-1 $-1 $135 $36 #
coedge $-1 $86 $86 $136 $137 reversed $53 $-1 #
face $-1 $138 $139 $29 $-1 $140 forward single #
loop $-1 $-1 $141 $55 #
plane-surface $-1 67.596974484364353 -20.172186298234848 53.266162926480021 0 0.6560590369687036 0.75470957328743171 1 0 0 forward_v I I I I #
coedge $-1 $142 $143 $144 $145 reversed $56 $-1 #
face $-1 $-1 $146 $30 $-1 $147 forward single #
loop $-1 $148 $149 $58 #
cone-surface $-1 63.970199239180829 28.185568127728203 5.9952077554933147 0 -0.6560590369687036 -0.75470957328743171 0.5 0 0 1 I I -0.70710678118654746 0.70710678118654746 0.5 forward I I I I #
loop $-1 $-1 $150 $38 #
coedge $-1 $95 $95 $151 $152 reversed $59 $-1 #
face $-1 $-1 $153 $31 $-1 $154 forward single #
loop $-1 $155 $156 $61 #
cone-surface $-1 71.223749729547876 28.185568127728203 5.9952077554933147 0 -0.6560590369687036 -0.75470957328743171 0.5 0 0 1 I I -0.70710678118654746 0.70710678118654746 0.5 forward I I I I #
loop $-1 $-1 $157 $39 #
coedge $-1 $100 $100 $158 $159 reversed $62 $-1 #
face $-1 $160 $161 $24 $-1 $162 reversed single #
loop $-1 $-1 $163 $64 #
plane-surface $-1 0 -39.598406211986301 0 0 1 0 0 0 1 forward_v I I I I #
coedge $-1 $164 $165 $166 $167 forward $65 $-1 #
coedge $-1 $168 $67 $169 $170 forward $41 $-1 #
coedge $-1 $67 $168 $171 $172 forward $41 $-1 #
coedge $-1 $173 $174 $67 $108 reversed $175 $-1 #
edge $-1 $176 -39.598406211986301 $177 39.598406211986301 $107 $178 forward 7 unknown #
face $-1 $179 $180 $25 $-1 $181 reversed single #
loop $-1 $-1 $182 $68 #
plane-surface $-1 -48.612431356990243 -150.85112815300891 111.16078800595936 1 0 0 0 0.73135370988377701 -0.68199835119979291 forward_v I I I I #
coedge $-1 $183 $184 $185 $186 reversed $69 $-1 #
coedge $-1 $114 $71 $187 $188 reversed $44 $-1 #
coedge $-1 $71 $113 $183 $189 reversed $44 $-1 #
coedge $-1 $185 $190 $71 $116 forward $191 $-1 #
edge $-1 $192 35.827157864518156 $193 44.433103928282172 $115 $194 forward 7 unknown #
loop $-1 $-1 $122 $72 #
plane-surface $-1 -37.435519892197711 -39.598406211986273 7.4159489426229612 0 -0.73135370988377701 0.68199835119979291 1 0 0 forward_v I I I I #
loop $-1 $-1 $195 $46 #
coedge $-1 $120 $120 $121 $196 reversed $73 $-1 #
coedge $-1 $121 $121 $120 $196 forward $75 $-1 #
coedge $-1 $122 $122 $76 $123 forward $117 $-1 #
edge $-1 $197 -5.9776333289801244e-016 $197 6.2831853071795996 $122 $198 forward 7 unknown #
loop $-1 $-1 $129 $77 #
plane-surface $-1 -37.435519892197711 -39.598406211986273 7.4159489426229612 0 -0.73135370988377701 0.68199835119979291 1 0 0 forward_v I I I I #
loop $-1 $-1 $199 $49 #
coedge $-1 $127 $127 $128 $200 reversed $78 $-1 #
coedge $-1 $128 $128 $127 $200 forward $80 $-1 #
coedge $-1 $129 $129 $81 $130 forward $124 $-1 #
edge $-1 $201 -5.9776333289801244e-016 $201 6.2831853071795996 $129 $202 forward 7 unknown #
loop $-1 $-1 $136 $82 #
plane-surface $-1 -37.435519892197711 -39.598406211986273 7.4159489426229612 0 -0.73135370988377701 0.68199835119979291 1 0 0 forward_v I I I I #
loop $-1 $-1 $203 $52 #
coedge $-1 $134 $134 $135 $204 reversed $83 $-1 #
coedge $-1 $135 $135 $134 $204 forward $85 $-1 #
coedge $-1 $136 $136 $86 $137 forward $131 $-1 #
edge $-1 $205 -5.9776333289801244e-016 $205 6.2831853071795996 $136 $206 forward 7 unknown #
face $-1 $207 $208 $29 $-1 $209 reversed single #
loop $-1 $-1 $144 $87 #
plane-surface $-1 0 0 16.644696445781722 0 0 1 1 0 0 forward_v I I I I #
coedge $-1 $210 $211 $212 $213 reversed $88 $-1 #
coedge $-1 $143 $90 $214 $215 reversed $56 $-1 #
coedge $-1 $90 $142 $210 $216 reversed $56 $-1 #
coedge $-1 $212 $217 $90 $145 forward $139 $-1 #
edge $-1 $218 0.21499019530613594 $219 17.857405539474072 $144 $220 forward 7 unknown #
loop $-1 $-1 $151 $91 #
plane-surface $-1 67.596974484364353 -20.172186298234848 53.266162926480021 0 0.6560590369687036 0.75470957328743171 1 0 0 forward_v I I I I #
loop $-1 $-1 $221 $58 #
coedge $-1 $149 $149 $150 $222 reversed $92 $-1 #
coedge $-1 $150 $150 $149 $222 forward $94 $-1 #
coedge $-1 $151 $151 $95 $152 forward $146 $-1 #
edge $-1 $223 3.2682576161730042e-015 $223 6.283185307179604 $151 $224 forward 7 unknown #
loop $-1 $-1 $158 $96 #
plane-surface $-1 67.596974484364353 -20.172186298234848 53.266162926480021 0 0.6560590369687036 0.75470957328743171 1 0 0 forward_v I I I I #
loop $-1 $-1 $225 $61 #
coedge $-1 $156 $156 $157 $226 reversed $97 $-1 #
coedge $-1 $157 $157 $156 $226 forward $99 $-1 #
coedge $-1 $158 $158 $100 $159 forward $153 $-1 #
edge $-1 $227 3.2682576161730042e-015 $227 6.283185307179604 $158 $228 forward 7 unknown #
face $-1 $229 $230 $24 $-1 $231 reversed single #
loop $-1 $-1 $232 $101 #
plane-surface $-1 -76.059450056459241 0 0 1 0 0 0 0 -1 forward_v I I I I #
coedge $-1 $233 $171 $234 $235 forward $102 $-1 #
coedge $-1 $236 $104 $233 $237 forward $65 $-1 #
coedge $-1 $104 $236 $238 $239 forward $65 $-1 #
coedge $-1 $174 $173 $104 $167 reversed $175 $-1 #
edge $-1 $240 -39.598406211986301 $241 39.598406211986301 $166 $242 forward 7 unknown #
coedge $-1 $106 $105 $243 $244 forward $41 $-1 #
coedge $-1 $245 $246 $105 $170 reversed $230 $-1 #
edge $-1 $177 -76.059450056459241 $247 76.059450056459241 $169 $248 forward 7 unknown #
coedge $-1 $163 $249 $106 $172 reversed $102 $-1 #
edge $-1 $250 -76.059450056459241 $176 76.059450056459241 $171 $251 forward 7 unknown #
coedge $-1 $166 $107 $249 $252 forward $175 $-1 #
coedge $-1 $107 $166 $245 $253 reversed $175 $-1 #
loop $-1 $-1 $173 $229 #
vertex $-1 $108 $254 #
vertex $-1 $108 $255 #
straight-curve $-1 76.059450056459241 0 16.644696445781722 0 1 0 I I #
face $-1 $-1 $191 $25 $-1 $256 forward single #
loop $-1 $-1 $257 $109 #
plane-surface $-1 0 -39.598406211986301 0 0 1 0 0 0 1 forward_v I I I I #
coedge $-1 $258 $259 $260 $261 reversed $110 $-1 #
coedge $-1 $262 $112 $114 $189 forward $69 $-1 #
coedge $-1 $112 $262 $258 $263 forward $69 $-1 #
coedge $-1 $260 $115 $112 $186 forward $191 $-1 #
edge $-1 $193 7.5408484813063232 $264 29.894671410891387 $185 $265 forward 7 unknown #
coedge $-1 $266 $267 $113 $188 forward $180 $-1 #
edge $-1 $268 -48.164445060356748 $192 -38.935697557197955 $187 $269 forward 7 unknown #
edge $-1 $193 -12.618719750017192 $268 4.1469026767552634e-014 $114 $270 forward 7 unknown #
coedge $-1 $115 $260 $266 $271 forward $191 $-1 #
loop $-1 $-1 $260 $179 #
vertex $-1 $188 $272 #
vertex $-1 $116 $273 #
straight-curve $-1 -26.258608427405179 -75.425564076504457 16.644696445781719 0 1 0 I I #
coedge $-1 $195 $195 $-1 $274 reversed $119 $-1 #
edge $-1 $275 0 $275 6.2831853071796004 $120 $276 forward 7 unknown #
vertex $-1 $123 $277 #
ellipse-curve $-1 -44.141666771073233 -35.29543318010429 12.030322694202329 0 -0.73135370988377701 0.68199835119979291 1 0 0 1 I I #
coedge $-1 $199 $199 $-1 $278 reversed $126 $-1 #
edge $-1 $279 0 $279 6.2831853071796004 $127 $280 forward 7 unknown #
vertex $-1 $130 $281 #
ellipse-curve $-1 -37.435519892197718 -35.29543318010429 12.030322694202329 0 -0.73135370988377701 0.68199835119979291 1 0 0 1 I I #
coedge $-1 $203 $203 $-1 $282 reversed $133 $-1 #
edge $-1 $283 0 $283 6.2831853071796004 $134 $284 forward 7 unknown #
vertex $-1 $137 $285 #
ellipse-curve $-1 -30.729373013322203 -35.29543318010429 12.030322694202329 0 -0.73135370988377701 0.68199835119979291 1 0 0 1 I I #
face $-1 $-1 $286 $29 $-1 $287 reversed single #
loop $-1 $-1 $214 $138 #
plane-surface $-1 0 39.598406211986301 0 0 -1 0 0 0 -1 forward_v I I I I #
coedge $-1 $288 $141 $143 $216 forward $88 $-1 #
coedge $-1 $141 $288 $289 $290 reversed $88 $-1 #
coedge $-1 $291 $144 $141 $213 forward $139 $-1 #
edge $-1 $219 25.336011670087288 $292 42.260962814277065 $212 $293 forward 7 unknown #
coedge $-1 $294 $295 $142 $215 forward $208 $-1 #
edge $-1 $296 -82.727498123209614 $218 -67.391180114045369 $214 $297 forward 7 unknown #
edge $-1 $219 55.820382644077931 $296 79.196812423972631 $143 $298 forward 7 unknown #
coedge $-1 $144 $291 $294 $299 forward $139 $-1 #
vertex $-1 $215 $300 #
vertex $-1 $145 $301 #
straight-curve $-1 59.134498912269464 39.813396407292437 16.644696445781719 0 -1 0 I I #
coedge $-1 $221 $221 $-1 $302 reversed $148 $-1 #
edge $-1 $303 0 $303 6.2831853071796004 $149 $304 forward 7 unknown #
vertex $-1 $152 $305 #
ellipse-curve $-1 63.970199239180829 30.777198539902336 8.9765374411996 0 0.6560590369687036 0.75470957328743171 1 0 0 1 I I #
coedge $-1 $225 $225 $-1 $306 reversed $155 $-1 #
edge $-1 $307 0 $307 6.2831853071796004 $156 $308 forward 7 unknown #
vertex $-1 $159 $309 #
ellipse-curve $-1 71.223749729547876 30.777198539902336 8.9765374411996 0 0.6560590369687036 0.75470957328743171 1 0 0 1 I I #
face $-1 $-1 $175 $24 $-1 $310 reversed single #
loop $-1 $-1 $245 $160 #
plane-surface $-1 0 39.598406211986301 0 0 -1 0 0 0 -1 forward_v I I I I #
coedge $-1 $311 $243 $246 $312 forward $161 $-1 #
coedge $-1 $249 $163 $164 $237 reversed $102 $-1 #
coedge $-1 $243 $311 $163 $235 reversed $161 $-1 #
edge $-1 $250 -16.644696445781722 $313 16.644696445781722 $234 $314 forward 7 unknown #
coedge $-1 $165 $164 $311 $315 forward $65 $-1 #
edge $-1 $241 -76.059450056459241 $313 76.059450056459241 $233 $316 forward 7 unknown #
coedge $-1 $246 $245 $165 $239 reversed $230 $-1 #
edge $-1 $317 -76.059450056459241 $240 76.059450056459241 $238 $318 forward 7 unknown #
vertex $-1 $167 $319 #
vertex $-1 $252 $320 #
straight-curve $-1 76.059450056459241 0 -16.644696445781722 0 -1 0 I I #
coedge $-1 $232 $234 $168 $244 reversed $161 $-1 #
edge $-1 $247 -39.598406211986301 $250 39.598406211986301 $243 $321 forward 7 unknown #
coedge $-1 $238 $169 $174 $253 forward $230 $-1 #
coedge $-1 $169 $238 $232 $312 reversed $230 $-1 #
vertex $-1 $170 $322 #
straight-curve $-1 0 39.598406211986301 16.644696445781722 -1 0 0 I I #
coedge $-1 $171 $233 $173 $252 reversed $102 $-1 #
vertex $-1 $244 $323 #
straight-curve $-1 0 -39.598406211986301 16.644696445781722 1 0 0 I I #
edge $-1 $176 -16.644696445781722 $241 16.644696445781722 $173 $324 forward 7 unknown #
edge $-1 $177 -16.644696445781722 $240 16.644696445781722 $174 $325 forward 7 unknown #
point $-1 76.059450056459241 -39.598406211986301 16.644696445781722 #
point $-1 76.059450056459241 39.598406211986301 16.644696445781722 #
plane-surface $-1 0 0 16.644696445781722 0 0 1 1 0 0 forward_v I I I I #
coedge $-1 $267 $266 $259 $326 forward $180 $-1 #
coedge $-1 $259 $182 $184 $263 reversed $110 $-1 #
coedge $-1 $182 $258 $257 $326 reversed $110 $-1 #
coedge $-1 $190 $185 $182 $261 forward $191 $-1 #
edge $-1 $264 -44.433103928282172 $327 -35.827157864518156 $260 $328 forward 7 unknown #
coedge $-1 $184 $183 $267 $329 reversed $69 $-1 #
edge $-1 $330 -4.1469026767552634e-014 $264 12.618719750017192 $258 $331 forward 7 unknown #
vertex $-1 $186 $332 #
straight-curve $-1 -18.717759946098855 -30.992460148222285 16.644696445781722 -1 0 0 I I #
coedge $-1 $257 $187 $190 $271 reversed $180 $-1 #
coedge $-1 $187 $257 $262 $329 forward $180 $-1 #
vertex $-1 $188 $333 #
straight-curve $-1 -26.258608427405179 -39.598406211986301 55.580394002979681 0 0 1 I I #
straight-curve $-1 -26.258608427405179 -39.598406211986273 7.4159489426229612 0 -0.68199835119979291 -0.73135370988377701 I I #
edge $-1 $327 -48.612431356990243 $192 -26.258608427405179 $266 $334 forward 7 unknown #
point $-1 -26.258608427405179 -39.598406211986301 16.644696445781722 #
point $-1 -26.258608427405179 -30.992460148222285 16.644696445781722 #
edge $-1 $335 1 $335 0 $195 $-1 forward 7 unknown #
vertex $-1 $196 $336 #
ellipse-curve $-1 -44.141666771073233 -32.737625860384433 9.6451288390799981 0 -0.73135370988377701 0.68199835119979291 1 0 0 1 I I #
point $-1 -43.141666771073233 -35.295433180104304 12.030322694202342 #
edge $-1 $337 1 $337 0 $199 $-1 forward 7 unknown #
vertex $-1 $200 $338 #
ellipse-curve $-1 -37.435519892197718 -32.737625860384433 9.6451288390799981 0 -0.73135370988377701 0.68199835119979291 1 0 0 1 I I #
point $-1 -36.435519892197718 -35.295433180104304 12.030322694202342 #
edge $-1 $339 1 $339 0 $203 $-1 forward 7 unknown #
vertex $-1 $204 $340 #
ellipse-curve $-1 -30.729373013322203 -32.737625860384433 9.6451288390799981 0 -0.73135370988377701 0.68199835119979291 1 0 0 1 I I #
point $-1 -29.729373013322203 -35.295433180104304 12.030322694202342 #
loop $-1 $-1 $289 $207 #
plane-surface $-1 76.059450056459241 0 0 -1 0 0 0 0 1 forward_v I I I I #
coedge $-1 $211 $210 $295 $341 reversed $88 $-1 #
coedge $-1 $342 $343 $211 $290 forward $286 $-1 #
edge $-1 $292 30.735437811087959 $344 54.111867590982669 $289 $345 forward 7 unknown #
coedge $-1 $217 $212 $343 $346 forward $139 $-1 #
vertex $-1 $346 $347 #
straight-curve $-1 33.798487242182176 21.955990867818358 16.644696445781726 1 0 0 I I #
coedge $-1 $348 $214 $217 $299 reversed $208 $-1 #
coedge $-1 $214 $348 $288 $341 forward $208 $-1 #
vertex $-1 $215 $349 #
straight-curve $-1 59.134498912269464 39.598406211986301 84.035876559827088 0 0 1 I I #
straight-curve $-1 59.134498912269464 -20.172186298234848 53.266162926480021 0 0.75470957328743171 -0.6560590369687036 I I #
edge $-1 $350 -76.059450056459241 $218 -59.134498912269464 $294 $351 forward 7 unknown #
point $-1 59.134498912269464 39.598406211986301 16.644696445781722 #
point $-1 59.134498912269464 21.955990867818365 16.644696445781719 #
edge $-1 $352 1 $352 0 $221 $-1 forward 7 unknown #
vertex $-1 $222 $353 #
ellipse-curve $-1 63.970199239180829 28.513597646212556 6.3725625421370307 0 0.6560590369687036 0.75470957328743171 1 0 0 1 I I #
point $-1 64.970199239180829 30.777198539902358 8.9765374411996195 #
edge $-1 $354 1 $354 0 $225 $-1 forward 7 unknown #
vertex $-1 $226 $355 #
ellipse-curve $-1 71.223749729547876 28.513597646212556 6.3725625421370307 0 0.6560590369687036 0.75470957328743171 1 0 0 1 I I #
point $-1 72.223749729547876 30.777198539902358 8.9765374411996195 #
plane-surface $-1 76.059450056459241 0 0 -1 0 0 0 0 1 forward_v I I I I #
coedge $-1 $234 $232 $236 $315 reversed $161 $-1 #
edge $-1 $247 -16.644696445781722 $317 16.644696445781722 $246 $356 forward 7 unknown #
vertex $-1 $315 $357 #
straight-curve $-1 -76.059450056459241 -39.598406211986301 0 0 0 -1 I I #
edge $-1 $313 -39.598406211986301 $317 39.598406211986301 $311 $358 forward 7 unknown #
straight-curve $-1 0 -39.598406211986301 -16.644696445781722 -1 0 0 I I #
vertex $-1 $239 $359 #
straight-curve $-1 0 39.598406211986301 -16.644696445781722 1 0 0 I I #
point $-1 76.059450056459241 39.598406211986301 -16.644696445781722 #
point $-1 76.059450056459241 -39.598406211986301 -16.644696445781722 #
straight-curve $-1 -76.059450056459241 0 16.644696445781722 0 -1 0 I I #
point $-1 -76.059450056459241 39.598406211986301 16.644696445781722 #
point $-1 -76.059450056459241 -39.598406211986301 16.644696445781722 #
straight-curve $-1 76.059450056459241 -39.598406211986301 0 0 0 -1 I I #
straight-curve $-1 76.059450056459241 39.598406211986301 0 0 0 -1 I I #
edge $-1 $327 38.935697557197955 $330 48.164445060356748 $257 $360 forward 7 unknown #
vertex $-1 $271 $361 #
straight-curve $-1 -48.612431356990243 -75.425564076504457 16.644696445781719 0 -1 0 I I #
edge $-1 $330 -29.894671410891387 $268 -7.5408484813063232 $267 $362 forward 7 unknown #
vertex $-1 $329 $363 #
straight-curve $-1 -48.612431356990243 -39.598406211986273 7.4159489426229612 0 0.68199835119979291 0.73135370988377701 I I #
point $-1 -48.612431356990243 -30.992460148222285 16.644696445781722 #
point $-1 -26.258608427405179 -39.598406211986301 7.415948942622931 #
straight-curve $-1 0 -39.598406211986301 16.644696445781722 1 0 0 I I #
vertex $-1 $274 $364 #
point $-1 -43.141666771073233 -32.737625860384433 9.6451288390799981 #
vertex $-1 $278 $365 #
point $-1 -36.435519892197718 -32.737625860384433 9.6451288390799981 #
vertex $-1 $282 $366 #
point $-1 -29.729373013322203 -32.737625860384433 9.6451288390799981 #
edge $-1 $344 -42.260962814277065 $296 -25.336011670087288 $295 $367 forward 7 unknown #
coedge $-1 $343 $289 $348 $368 reversed $286 $-1 #
coedge $-1 $289 $342 $291 $346 reversed $286 $-1 #
vertex $-1 $290 $369 #
straight-curve $-1 76.059450056459241 -1.2403382873902231 36.808958176935562 0 0.75470957328743171 -0.6560590369687036 I I #
edge $-1 $292 21.955990867818365 $350 39.598406211986301 $343 $370 forward 7 unknown #
point $-1 76.059450056459241 21.955990867818365 16.644696445781719 #
coedge $-1 $295 $294 $342 $368 forward $208 $-1 #
point $-1 59.134498912269464 39.598406211986308 1.308378436617474 #
vertex $-1 $346 $371 #
straight-curve $-1 0 39.598406211986301 16.644696445781722 -1 0 0 I I #
vertex $-1 $302 $372 #
point $-1 64.970199239180829 28.513597646212556 6.3725625421370307 #
vertex $-1 $306 $373 #
point $-1 72.223749729547876 28.513597646212556 6.3725625421370307 #
straight-curve $-1 -76.059450056459241 39.598406211986301 0 0 0 -1 I I #
point $-1 -76.059450056459241 -39.598406211986301 -16.644696445781722 #
straight-curve $-1 -76.059450056459241 0 -16.644696445781722 0 1 0 I I #
point $-1 -76.059450056459241 39.598406211986301 -16.644696445781722 #
straight-curve $-1 -48.612431356990243 -39.598406211986301 55.580394002979681 0 0 -1 I I #
point $-1 -48.612431356990243 -39.598406211986301 16.644696445781722 #
straight-curve $-1 -18.717759946098855 -39.598406211986301 7.4159489426229319 1 0 0 I I #
point $-1 -48.612431356990243 -39.598406211986301 7.415948942622931 #
point $-1 -44.141666771073233 -32.006272150500656 8.9631304878802034 #
point $-1 -37.435519892197718 -32.006272150500656 8.9631304878802034 #
point $-1 -30.729373013322203 -32.006272150500656 8.9631304878802034 #
straight-curve $-1 33.798487242182176 39.598406211986301 1.3083784366174811 -1 0 0 I I #
edge $-1 $350 -16.644696445781722 $344 -1.308378436617474 $342 $374 forward 7 unknown #
point $-1 76.059450056459241 39.598406211986308 1.308378436617474 #
straight-curve $-1 76.059450056459241 0 16.644696445781722 0 1 0 I I #
point $-1 76.059450056459241 39.598406211986301 16.644696445781722 #
point $-1 63.970199239180829 27.85753860924385 5.6178529688495988 #
point $-1 71.223749729547876 27.85753860924385 5.6178529688495988 #
straight-curve $-1 76.059450056459241 39.598406211986301 0 0 0 -1 I I #
End-of-ACIS-data 