500 0 8 0           
7 Unknown 11 ACIS 5.0 NT 24 Fri Mar 26 02:24:38 1999 
-1 9.9999999999999995e-007 1e-010 
body $-1 $8 $-1 $9 #
body $-1 $10 $-1 $11 #
body $-1 $12 $-1 $13 #
body $-1 $14 $-1 $15 #
body $-1 $16 $-1 $17 #
body $-1 $18 $-1 $19 #
body $-1 $20 $-1 $21 #
body $-1 $22 $-1 $23 #
lump $-1 $-1 $24 $0 #
transform $-1 1 0 0 0 1 0 0 0 1 73.049104281746878 48.401636035384215 14.243821404522933 1 rotate no_reflect no_shear #
lump $-1 $-1 $25 $1 #
transform $-1 1 0 0 0 1 0 0 0 1 73.049104281746878 48.401636035384215 14.243821404522933 1 rotate no_reflect no_shear #
lump $-1 $-1 $26 $2 #
transform $-1 1 0 0 0 1 0 0 0 1 73.049104281746878 48.401636035384215 14.243821404522933 1 rotate no_reflect no_shear #
lump $-1 $-1 $27 $3 #
transform $-1 1 0 0 0 1 0 0 0 1 73.049104281746878 48.401636035384215 14.243821404522933 1 rotate no_reflect no_shear #
lump $-1 $-1 $28 $4 #
transform $-1 1 0 0 0 1 0 0 0 1 73.049104281746878 48.401636035384215 14.243821404522933 1 rotate no_reflect no_shear #
lump $-1 $-1 $29 $5 #
transform $-1 1 0 0 0 1 0 0 0 1 73.049104281746878 48.401636035384215 14.243821404522933 1 rotate no_reflect no_shear #
lump $-1 $-1 $30 $6 #
transform $-1 1 0 0 0 1 0 0 0 1 73.049104281746878 48.401636035384215 14.243821404522933 1 rotate no_reflect no_shear #
lump $-1 $-1 $31 $7 #
transform $-1 1 0 0 0 1 0 0 0 1 73.049104281746878 48.401636035384215 14.243821404522933 1 rotate no_reflect no_shear #
shell $-1 $-1 $-1 $32 $-1 $8 #
shell $-1 $-1 $-1 $33 $-1 $10 #
shell $-1 $-1 $-1 $34 $-1 $12 #
shell $-1 $-1 $-1 $35 $-1 $14 #
shell $-1 $-1 $-1 $36 $-1 $16 #
shell $-1 $-1 $-1 $37 $-1 $18 #
shell $-1 $-1 $-1 $38 $-1 $20 #
shell $-1 $-1 $-1 $39 $-1 $22 #
face $-1 $40 $41 $24 $-1 $42 forward single #
face $-1 $43 $44 $25 $-1 $45 reversed single #
face $-1 $46 $47 $26 $-1 $48 reversed single #
face $-1 $49 $50 $27 $-1 $51 forward single #
face $-1 $52 $53 $28 $-1 $54 forward single #
face $-1 $55 $56 $29 $-1 $57 forward single #
face $-1 $58 $59 $30 $-1 $60 reversed single #
face $-1 $61 $62 $31 $-1 $63 forward single #
face $-1 $64 $65 $24 $-1 $66 reversed single #
loop $-1 $-1 $67 $32 #
plane-surface $-1 0 0 14.243821404522933 0 0 1 1 0 0 forward_v I I I I #
face $-1 $68 $69 $25 $-1 $70 reversed single #
loop $-1 $-1 $71 $33 #
plane-surface $-1 -67.049550369016089 -26.035702241851965 0 0 1 0 0 0 1 forward_v I I I I #
face $-1 $72 $73 $26 $-1 $74 reversed single #
loop $-1 $-1 $75 $34 #
plane-surface $-1 49.544622172651124 49.845169317273516 181.30533577973353 1 0 0 0 -0.55919291073839883 -0.82903756765294845 forward_v I I I I #
face $-1 $76 $77 $27 $-1 $78 forward single #
loop $-1 $79 $80 $35 #
cone-surface $-1 54.245518594470283 41.523707394667099 8.9532840205198951 0 -0.55919291073839883 -0.82903756765294845 1 0 0 1 I I 0 1 1 forward I I I I #
face $-1 $81 $82 $28 $-1 $83 forward single #
loop $-1 $84 $85 $36 #
cone-surface $-1 61.296863227198997 41.523707394667099 8.9532840205198951 0 -0.55919291073839883 -0.82903756765294845 1 0 0 1 I I 0 1 1 forward I I I I #
face $-1 $86 $87 $29 $-1 $88 forward single #
loop $-1 $89 $90 $37 #
cone-surface $-1 68.348207859927726 41.523707394667099 8.9532840205198951 0 -0.55919291073839883 -0.82903756765294845 1 0 0 1 I I 0 1 1 forward I I I I #
face $-1 $91 $92 $30 $-1 $93 reversed single #
loop $-1 $-1 $94 $38 #
plane-surface $-1 69.225238614584498 -149.88998071534411 112.77417588761004 -1 0 0 0 -0.69465837861970381 0.71933979245794832 forward_v I I I I #
face $-1 $95 $96 $31 $-1 $97 forward single #
loop $-1 $98 $99 $39 #
cone-surface $-1 58.703613716289141 -43.588596033801849 9.4971331252701976 0 0.69465837861970381 -0.71933979245794832 2 0 0 1 I I 0 1 2 forward I I I I #
face $-1 $100 $101 $24 $-1 $102 reversed single #
loop $-1 $-1 $103 $40 #
plane-surface $-1 0 0 -14.243821404522933 0 0 1 1 0 0 forward_v I I I I #
coedge $-1 $104 $105 $106 $107 forward $41 $-1 #
face $-1 $108 $109 $25 $-1 $110 reversed single #
loop $-1 $-1 $111 $43 #
plane-surface $-1 -67.049550369016089 -19.913993226338349 0 0 -1 0 0 0 -1 forward_v I I I I #
coedge $-1 $112 $113 $114 $115 reversed $44 $-1 #
face $-1 $116 $117 $26 $-1 $118 forward single #
loop $-1 $-1 $119 $46 #
plane-surface $-1 61.296863227198997 -31.851913183012229 60.184432313801494 0 0.55919291073839883 0.82903756765294845 1 0 0 forward_v I I I I #
coedge $-1 $120 $121 $122 $123 reversed $47 $-1 #
face $-1 $-1 $124 $27 $-1 $125 forward single #
loop $-1 $126 $127 $49 #
cone-surface $-1 54.245518594470283 40.438079249882165 7.3437741371781655 0 -0.55919291073839883 -0.82903756765294845 0.5 0 0 1 I I -0.70710678118654746 0.70710678118654746 0.5 forward I I I I #
loop $-1 $-1 $128 $35 #
coedge $-1 $80 $80 $129 $130 reversed $50 $-1 #
face $-1 $-1 $131 $28 $-1 $132 forward single #
loop $-1 $133 $134 $52 #
cone-surface $-1 61.296863227198997 40.438079249882165 7.3437741371781655 0 -0.55919291073839883 -0.82903756765294845 0.5 0 0 1 I I -0.70710678118654746 0.70710678118654746 0.5 forward I I I I #
loop $-1 $-1 $135 $36 #
coedge $-1 $85 $85 $136 $137 reversed $53 $-1 #
face $-1 $-1 $138 $29 $-1 $139 forward single #
loop $-1 $140 $141 $55 #
cone-surface $-1 68.348207859927726 40.438079249882165 7.3437741371781655 0 -0.55919291073839883 -0.82903756765294845 0.5 0 0 1 I I -0.70710678118654746 0.70710678118654746 0.5 forward I I I I #
loop $-1 $-1 $142 $37 #
coedge $-1 $90 $90 $143 $144 reversed $56 $-1 #
face $-1 $145 $146 $30 $-1 $147 reversed single #
loop $-1 $-1 $148 $58 #
plane-surface $-1 58.703613716289141 -48.401636035384215 7.6799208610683962 0 -0.69465837861970381 0.71933979245794832 1 0 0 forward_v I I I I #
coedge $-1 $149 $150 $151 $152 reversed $59 $-1 #
face $-1 $-1 $153 $31 $-1 $154 forward single #
loop $-1 $155 $156 $61 #
cone-surface $-1 58.703613716289141 -41.479456571168193 7.3130553252867898 0 0.69465837861970381 -0.71933979245794832 1 0 0 1 I I -0.70710678118654779 0.70710678118654713 1 forward I I I I #
loop $-1 $-1 $157 $39 #
coedge $-1 $99 $99 $158 $159 reversed $62 $-1 #
face $-1 $160 $161 $24 $-1 $162 reversed single #
loop $-1 $-1 $163 $64 #
plane-surface $-1 0 -48.401636035384215 0 0 1 0 0 0 1 forward_v I I I I #
coedge $-1 $164 $165 $166 $167 forward $65 $-1 #
coedge $-1 $168 $67 $169 $170 forward $41 $-1 #
coedge $-1 $67 $168 $171 $172 forward $41 $-1 #
coedge $-1 $173 $174 $67 $107 reversed $175 $-1 #
edge $-1 $176 -48.401636035384215 $177 48.401636035384215 $106 $178 forward 7 unknown #
face $-1 $179 $180 $25 $-1 $181 reversed single #
loop $-1 $-1 $182 $68 #
plane-surface $-1 -61.049996456285299 -22.974847734095157 0 -1 0 0 0 0 1 forward_v I I I I #
coedge $-1 $183 $184 $185 $186 forward $69 $-1 #
coedge $-1 $187 $71 $188 $189 reversed $44 $-1 #
coedge $-1 $71 $187 $190 $191 reversed $44 $-1 #
coedge $-1 $192 $193 $71 $115 forward $194 $-1 #
edge $-1 $195 -14.243821404522933 $196 14.243821404522933 $114 $197 forward 7 unknown #
face $-1 $198 $199 $26 $-1 $200 reversed single #
loop $-1 $-1 $122 $72 #
plane-surface $-1 0 0 14.243821404522933 0 0 1 1 0 0 forward_v I I I I #
coedge $-1 $201 $202 $203 $204 reversed $73 $-1 #
coedge $-1 $121 $75 $205 $206 reversed $47 $-1 #
coedge $-1 $75 $120 $201 $207 reversed $47 $-1 #
coedge $-1 $203 $208 $75 $123 forward $117 $-1 #
edge $-1 $209 -23.479051376747456 $210 -11.335257474144704 $122 $211 forward 7 unknown #
loop $-1 $-1 $129 $76 #
plane-surface $-1 61.296863227198997 -31.851913183012229 60.184432313801494 0 0.55919291073839883 0.82903756765294845 1 0 0 forward_v I I I I #
loop $-1 $-1 $212 $49 #
coedge $-1 $127 $127 $128 $213 reversed $77 $-1 #
coedge $-1 $128 $128 $127 $213 forward $79 $-1 #
coedge $-1 $129 $129 $80 $130 forward $124 $-1 #
edge $-1 $214 -1.986652303068577e-015 $214 6.2831853071795987 $129 $215 forward 7 unknown #
loop $-1 $-1 $136 $81 #
plane-surface $-1 61.296863227198997 -31.851913183012229 60.184432313801494 0 0.55919291073839883 0.82903756765294845 1 0 0 forward_v I I I I #
loop $-1 $-1 $216 $52 #
coedge $-1 $134 $134 $135 $217 reversed $82 $-1 #
coedge $-1 $135 $135 $134 $217 forward $84 $-1 #
coedge $-1 $136 $136 $85 $137 forward $131 $-1 #
edge $-1 $218 -1.986652303068577e-015 $218 6.2831853071795987 $136 $219 forward 7 unknown #
loop $-1 $-1 $143 $86 #
plane-surface $-1 61.296863227198997 -31.851913183012229 60.184432313801494 0 0.55919291073839883 0.82903756765294845 1 0 0 forward_v I I I I #
loop $-1 $-1 $220 $55 #
coedge $-1 $141 $141 $142 $221 reversed $87 $-1 #
coedge $-1 $142 $142 $141 $221 forward $89 $-1 #
coedge $-1 $143 $143 $90 $144 forward $138 $-1 #
edge $-1 $222 -1.986652303068577e-015 $222 6.2831853071795987 $143 $223 forward 7 unknown #
face $-1 $224 $225 $30 $-1 $226 reversed single #
loop $-1 $-1 $227 $91 #
plane-surface $-1 48.181988817993783 -149.88998071534411 112.77417588761004 1 0 0 0 0.69465837861970381 -0.71933979245794832 forward_v I I I I #
coedge $-1 $228 $229 $230 $231 reversed $92 $-1 #
coedge $-1 $150 $94 $232 $233 reversed $59 $-1 #
coedge $-1 $94 $149 $228 $234 reversed $59 $-1 #
coedge $-1 $230 $235 $94 $152 forward $236 $-1 #
edge $-1 $237 26.54335432228784 $238 33.340472157424642 $151 $239 forward 7 unknown #
loop $-1 $-1 $158 $95 #
plane-surface $-1 58.703613716289141 -48.401636035384215 7.6799208610683962 0 -0.69465837861970381 0.71933979245794832 1 0 0 forward_v I I I I #
loop $-1 $-1 $240 $61 #
coedge $-1 $156 $156 $157 $241 reversed $96 $-1 #
coedge $-1 $157 $157 $156 $241 forward $98 $-1 #
coedge $-1 $158 $158 $99 $159 forward $153 $-1 #
edge $-1 $242 8.7685996555267595e-017 $242 6.2831853071796004 $158 $243 forward 7 unknown #
face $-1 $244 $245 $24 $-1 $246 reversed single #
loop $-1 $-1 $247 $100 #
plane-surface $-1 -73.049104281746878 0 0 1 0 0 0 0 -1 forward_v I I I I #
coedge $-1 $248 $171 $249 $250 forward $101 $-1 #
coedge $-1 $251 $103 $248 $252 forward $65 $-1 #
coedge $-1 $103 $251 $253 $254 forward $65 $-1 #
coedge $-1 $174 $173 $103 $167 reversed $175 $-1 #
edge $-1 $255 -48.401636035384215 $256 48.401636035384215 $166 $257 forward 7 unknown #
coedge $-1 $105 $104 $258 $259 forward $41 $-1 #
coedge $-1 $260 $261 $104 $170 reversed $245 $-1 #
edge $-1 $177 -73.049104281746878 $262 73.049104281746878 $169 $263 forward 7 unknown #
coedge $-1 $163 $264 $105 $172 reversed $101 $-1 #
edge $-1 $265 -73.049104281746878 $176 73.049104281746878 $171 $266 forward 7 unknown #
coedge $-1 $166 $106 $264 $267 forward $175 $-1 #
coedge $-1 $106 $166 $260 $268 reversed $175 $-1 #
loop $-1 $-1 $173 $244 #
vertex $-1 $107 $269 #
vertex $-1 $107 $270 #
straight-curve $-1 73.049104281746878 0 14.243821404522933 0 1 0 I I #
face $-1 $271 $272 $25 $-1 $273 forward single #
loop $-1 $-1 $274 $108 #
plane-surface $-1 0 0 -14.243821404522933 0 0 1 1 0 0 forward_v I I I I #
coedge $-1 $275 $276 $187 $277 forward $109 $-1 #
coedge $-1 $278 $111 $274 $279 reversed $69 $-1 #
coedge $-1 $111 $278 $280 $281 reversed $69 $-1 #
coedge $-1 $276 $275 $111 $186 reversed $109 $-1 #
edge $-1 $282 -14.243821404522933 $283 14.243821404522933 $185 $284 forward 7 unknown #
coedge $-1 $113 $112 $182 $277 reversed $44 $-1 #
coedge $-1 $285 $286 $112 $189 forward $180 $-1 #
edge $-1 $287 27.525221271777255 $195 39.524329097238834 $188 $288 forward 7 unknown #
coedge $-1 $289 $290 $113 $191 forward $272 $-1 #
edge $-1 $196 -39.524329097238834 $291 -27.525221271777255 $190 $292 forward 7 unknown #
coedge $-1 $293 $114 $290 $294 reversed $194 $-1 #
coedge $-1 $114 $293 $285 $295 reversed $194 $-1 #
loop $-1 $-1 $293 $271 #
vertex $-1 $295 $296 #
vertex $-1 $115 $297 #
straight-curve $-1 -73.049104281746878 -26.035702241851965 0 0 0 1 I I #
face $-1 $-1 $298 $26 $-1 $299 reversed single #
loop $-1 $-1 $300 $116 #
plane-surface $-1 73.049104281746878 0 0 -1 0 0 0 0 1 forward_v I I I I #
coedge $-1 $301 $119 $121 $207 forward $73 $-1 #
coedge $-1 $119 $301 $300 $302 reversed $73 $-1 #
coedge $-1 $303 $122 $119 $204 forward $117 $-1 #
edge $-1 $210 18.896190559051625 $304 42.400672668147379 $203 $305 forward 7 unknown #
coedge $-1 $306 $307 $120 $206 forward $298 $-1 #
edge $-1 $308 -84.599939054319407 $209 -76.40884648534383 $205 $309 forward 7 unknown #
edge $-1 $210 82.155209815902793 $308 96.803272070768415 $121 $310 forward 7 unknown #
coedge $-1 $122 $303 $306 $311 forward $117 $-1 #
vertex $-1 $206 $312 #
vertex $-1 $123 $313 #
straight-curve $-1 49.544622172651124 24.922584658636758 14.243821404522933 0 -1 0 I I #
coedge $-1 $212 $212 $-1 $314 reversed $126 $-1 #
edge $-1 $315 0 $315 6.2831853071796004 $127 $316 forward 7 unknown #
vertex $-1 $130 $317 #
ellipse-curve $-1 54.245518594470283 42.329739084082831 10.148275120035148 0 0.55919291073839883 0.82903756765294845 1 0 0 1 I I #
coedge $-1 $216 $216 $-1 $318 reversed $133 $-1 #
edge $-1 $319 0 $319 6.2831853071796004 $134 $320 forward 7 unknown #
vertex $-1 $137 $321 #
ellipse-curve $-1 61.296863227198997 42.329739084082831 10.148275120035148 0 0.55919291073839883 0.82903756765294845 1 0 0 1 I I #
coedge $-1 $220 $220 $-1 $322 reversed $140 $-1 #
edge $-1 $323 0 $323 6.2831853071796004 $141 $324 forward 7 unknown #
vertex $-1 $144 $325 #
ellipse-curve $-1 68.348207859927726 42.329739084082831 10.148275120035148 0 0.55919291073839883 0.82903756765294845 1 0 0 1 I I #
face $-1 $-1 $236 $30 $-1 $326 forward single #
loop $-1 $-1 $327 $145 #
plane-surface $-1 0 -48.401636035384215 0 0 1 0 0 0 1 forward_v I I I I #
coedge $-1 $328 $329 $330 $331 reversed $146 $-1 #
coedge $-1 $332 $148 $150 $234 forward $92 $-1 #
coedge $-1 $148 $332 $328 $333 forward $92 $-1 #
coedge $-1 $330 $151 $148 $231 forward $236 $-1 #
edge $-1 $238 -39.873431756439928 $334 -18.830181959849213 $230 $335 forward 7 unknown #
coedge $-1 $336 $337 $149 $233 forward $225 $-1 #
edge $-1 $338 -48.707167082736625 $237 -42.143266539282088 $232 $339 forward 7 unknown #
edge $-1 $238 -9.4491058417766478 $338 0 $150 $340 forward 7 unknown #
coedge $-1 $151 $330 $336 $341 forward $236 $-1 #
loop $-1 $-1 $330 $224 #
vertex $-1 $233 $342 #
vertex $-1 $152 $343 #
straight-curve $-1 69.225238614584498 -74.944990357672054 14.243821404522933 0 1 0 I I #
coedge $-1 $240 $240 $-1 $344 reversed $155 $-1 #
edge $-1 $345 0 $345 6.2831853071796004 $156 $346 forward 7 unknown #
vertex $-1 $159 $347 #
ellipse-curve $-1 58.703613716289141 -45.003077117815813 10.961871132795666 0 -0.69465837861970381 0.71933979245794832 2 0 0 1 I I #
face $-1 $-1 $175 $24 $-1 $348 reversed single #
loop $-1 $-1 $260 $160 #
plane-surface $-1 0 48.401636035384215 0 0 -1 0 0 0 -1 forward_v I I I I #
coedge $-1 $349 $258 $261 $350 forward $161 $-1 #
coedge $-1 $264 $163 $164 $252 reversed $101 $-1 #
coedge $-1 $258 $349 $163 $250 reversed $161 $-1 #
edge $-1 $265 -14.243821404522933 $351 14.243821404522933 $249 $352 forward 7 unknown #
coedge $-1 $165 $164 $349 $353 forward $65 $-1 #
edge $-1 $256 -73.049104281746878 $351 73.049104281746878 $248 $354 forward 7 unknown #
coedge $-1 $261 $260 $165 $254 reversed $245 $-1 #
edge $-1 $355 -73.049104281746878 $255 73.049104281746878 $253 $356 forward 7 unknown #
vertex $-1 $167 $357 #
vertex $-1 $267 $358 #
straight-curve $-1 73.049104281746878 0 -14.243821404522933 0 -1 0 I I #
coedge $-1 $247 $249 $168 $259 reversed $161 $-1 #
edge $-1 $262 -48.401636035384215 $265 48.401636035384215 $258 $359 forward 7 unknown #
coedge $-1 $253 $169 $174 $268 forward $245 $-1 #
coedge $-1 $169 $253 $247 $350 reversed $245 $-1 #
vertex $-1 $170 $360 #
straight-curve $-1 0 48.401636035384215 14.243821404522933 -1 0 0 I I #
coedge $-1 $171 $248 $173 $267 reversed $101 $-1 #
vertex $-1 $259 $361 #
straight-curve $-1 0 -48.401636035384215 14.243821404522933 1 0 0 I I #
edge $-1 $176 -14.243821404522933 $256 14.243821404522933 $173 $362 forward 7 unknown #
edge $-1 $177 -14.243821404522933 $255 14.243821404522933 $174 $363 forward 7 unknown #
point $-1 73.049104281746878 -48.401636035384215 14.243821404522933 #
point $-1 73.049104281746878 48.401636035384215 14.243821404522933 #
face $-1 $-1 $194 $25 $-1 $364 reversed single #
loop $-1 $-1 $280 $179 #
plane-surface $-1 0 0 14.243821404522933 0 0 1 1 0 0 forward_v I I I I #
coedge $-1 $286 $285 $183 $279 forward $180 $-1 #
coedge $-1 $185 $182 $286 $365 reversed $109 $-1 #
coedge $-1 $182 $185 $289 $366 reversed $109 $-1 #
edge $-1 $291 -14.243821404522933 $287 14.243821404522933 $182 $367 forward 7 unknown #
coedge $-1 $184 $183 $293 $368 reversed $69 $-1 #
edge $-1 $369 -39.524329097238834 $283 -27.525221271777255 $274 $370 forward 7 unknown #
coedge $-1 $290 $289 $184 $281 forward $272 $-1 #
edge $-1 $282 27.525221271777255 $371 39.524329097238834 $280 $372 forward 7 unknown #
vertex $-1 $281 $373 #
vertex $-1 $279 $374 #
straight-curve $-1 -61.049996456285299 -19.913993226338349 0 0 0 -1 I I #
coedge $-1 $274 $188 $193 $295 forward $180 $-1 #
coedge $-1 $188 $274 $275 $365 forward $180 $-1 #
vertex $-1 $189 $375 #
straight-curve $-1 -33.524775184508044 -26.035702241851965 -14.243821404522933 -1 0 0 I I #
coedge $-1 $280 $190 $276 $366 forward $272 $-1 #
coedge $-1 $190 $280 $192 $294 forward $272 $-1 #
vertex $-1 $191 $376 #
straight-curve $-1 -33.524775184508044 -26.035702241851965 14.243821404522933 1 0 0 I I #
coedge $-1 $193 $192 $278 $368 forward $194 $-1 #
edge $-1 $371 19.913993226338349 $196 26.035702241851965 $192 $377 forward 7 unknown #
edge $-1 $195 -26.035702241851965 $369 -19.913993226338349 $193 $378 forward 7 unknown #
point $-1 -73.049104281746878 -26.035702241851965 -14.243821404522933 #
point $-1 -73.049104281746878 -26.035702241851965 14.243821404522933 #
loop $-1 $-1 $205 $198 #
plane-surface $-1 0 48.401636035384215 0 0 -1 0 0 0 -1 forward_v I I I I #
coedge $-1 $379 $380 $202 $302 forward $199 $-1 #
coedge $-1 $202 $201 $307 $381 reversed $73 $-1 #
edge $-1 $304 52.124639557387724 $382 66.772701812253331 $300 $383 forward 7 unknown #
coedge $-1 $208 $203 $380 $384 forward $117 $-1 #
vertex $-1 $384 $385 #
straight-curve $-1 30.648431613599499 36.257842132781462 14.243821404522933 1 0 0 I I #
coedge $-1 $386 $205 $208 $311 reversed $298 $-1 #
coedge $-1 $205 $386 $301 $381 forward $298 $-1 #
vertex $-1 $206 $387 #
straight-curve $-1 49.544622172651124 48.401636035384215 90.652667889866763 0 0 1 I I #
straight-curve $-1 49.544622172651124 -31.851913183012229 60.184432313801494 0 0.82903756765294845 -0.55919291073839883 I I #
edge $-1 $388 -73.049104281746878 $209 -49.544622172651124 $306 $389 forward 7 unknown #
point $-1 49.544622172651124 48.401636035384215 14.243821404522933 #
point $-1 49.544622172651124 36.257842132781462 14.243821404522933 #
edge $-1 $390 1 $390 0 $212 $-1 forward 7 unknown #
vertex $-1 $213 $391 #
ellipse-curve $-1 54.245518594470283 40.717675705251366 7.7582929210046396 0 0.55919291073839883 0.82903756765294845 1 0 0 1 I I #
point $-1 55.245518594470283 42.329739084082831 10.148275120035152 #
edge $-1 $392 1 $392 0 $216 $-1 forward 7 unknown #
vertex $-1 $217 $393 #
ellipse-curve $-1 61.296863227198997 40.717675705251366 7.7582929210046396 0 0.55919291073839883 0.82903756765294845 1 0 0 1 I I #
point $-1 62.296863227198997 42.329739084082831 10.148275120035152 #
edge $-1 $394 1 $394 0 $220 $-1 forward 7 unknown #
vertex $-1 $221 $395 #
ellipse-curve $-1 68.348207859927726 40.717675705251366 7.7582929210046396 0 0.55919291073839883 0.82903756765294845 1 0 0 1 I I #
point $-1 69.348207859927726 42.329739084082831 10.148275120035152 #
plane-surface $-1 0 0 14.243821404522933 0 0 1 1 0 0 forward_v I I I I #
coedge $-1 $337 $336 $329 $396 forward $225 $-1 #
coedge $-1 $329 $227 $229 $333 reversed $146 $-1 #
coedge $-1 $227 $328 $327 $396 reversed $146 $-1 #
coedge $-1 $235 $230 $227 $331 forward $236 $-1 #
edge $-1 $334 -33.340472157424642 $397 -26.54335432228784 $330 $398 forward 7 unknown #
coedge $-1 $229 $228 $337 $399 reversed $92 $-1 #
edge $-1 $400 0 $334 9.4491058417766478 $328 $401 forward 7 unknown #
vertex $-1 $231 $402 #
straight-curve $-1 29.35180685814457 -41.604518200247412 14.243821404522933 -1 0 0 I I #
coedge $-1 $327 $232 $235 $341 reversed $225 $-1 #
coedge $-1 $232 $327 $332 $399 forward $225 $-1 #
vertex $-1 $233 $403 #
straight-curve $-1 69.225238614584498 -48.401636035384215 56.387087943805021 0 0 1 I I #
straight-curve $-1 69.225238614584498 -48.401636035384215 7.6799208610683962 0 -0.71933979245794832 -0.69465837861970381 I I #
edge $-1 $397 48.181988817993783 $237 69.225238614584498 $336 $404 forward 7 unknown #
point $-1 69.225238614584498 -48.401636035384215 14.243821404522933 #
point $-1 69.225238614584498 -41.604518200247412 14.243821404522933 #
edge $-1 $405 1 $405 0 $240 $-1 forward 7 unknown #
vertex $-1 $241 $406 #
ellipse-curve $-1 58.703613716289141 -42.174114949787892 8.0323951177447377 0 -0.69465837861970381 0.71933979245794832 2 0 0 1 I I #
point $-1 60.703613716289141 -45.003077117815806 10.961871132795659 #
plane-surface $-1 73.049104281746878 0 0 -1 0 0 0 0 1 forward_v I I I I #
coedge $-1 $249 $247 $251 $353 reversed $161 $-1 #
edge $-1 $262 -14.243821404522933 $355 14.243821404522933 $261 $407 forward 7 unknown #
vertex $-1 $353 $408 #
straight-curve $-1 -73.049104281746878 -48.401636035384215 0 0 0 -1 I I #
edge $-1 $351 -48.401636035384215 $355 48.401636035384215 $349 $409 forward 7 unknown #
straight-curve $-1 0 -48.401636035384215 -14.243821404522933 -1 0 0 I I #
vertex $-1 $254 $410 #
straight-curve $-1 0 48.401636035384215 -14.243821404522933 1 0 0 I I #
point $-1 73.049104281746878 48.401636035384215 -14.243821404522933 #
point $-1 73.049104281746878 -48.401636035384215 -14.243821404522933 #
straight-curve $-1 -73.049104281746878 0 14.243821404522933 0 -1 0 I I #
point $-1 -73.049104281746878 48.401636035384215 14.243821404522933 #
point $-1 -73.049104281746878 -48.401636035384215 14.243821404522933 #
straight-curve $-1 73.049104281746878 -48.401636035384215 0 0 0 -1 I I #
straight-curve $-1 73.049104281746878 48.401636035384215 0 0 0 -1 I I #
plane-surface $-1 -73.049104281746878 0 0 1 0 0 0 0 -1 forward_v I I I I #
edge $-1 $283 8.4265693592907702 $287 14.548278374804386 $286 $411 forward 7 unknown #
edge $-1 $291 -14.548278374804386 $282 -8.4265693592907702 $289 $412 forward 7 unknown #
straight-curve $-1 -61.049996456285299 -26.035702241851965 0 0 0 -1 I I #
edge $-1 $371 -14.243821404522933 $369 14.243821404522933 $293 $413 forward 7 unknown #
vertex $-1 $368 $414 #
straight-curve $-1 -33.524775184508044 -19.913993226338349 -14.243821404522933 1 0 0 I I #
vertex $-1 $294 $415 #
straight-curve $-1 -33.524775184508044 -19.913993226338349 14.243821404522933 -1 0 0 I I #
point $-1 -61.049996456285299 -19.913993226338349 14.243821404522933 #
point $-1 -61.049996456285299 -19.913993226338349 -14.243821404522933 #
point $-1 -61.049996456285299 -26.035702241851965 -14.243821404522933 #
point $-1 -61.049996456285299 -26.035702241851965 14.243821404522933 #
straight-curve $-1 -73.049104281746878 0 14.243821404522933 0 -1 0 I I #
straight-curve $-1 -73.049104281746878 0 -14.243821404522933 0 1 0 I I #
coedge $-1 $380 $300 $386 $416 reversed $199 $-1 #
coedge $-1 $300 $379 $303 $384 reversed $199 $-1 #
edge $-1 $382 -42.400672668147379 $308 -18.896190559051625 $307 $417 forward 7 unknown #
vertex $-1 $302 $418 #
straight-curve $-1 73.049104281746878 -6.9554422606619166 43.391550319808459 0 0.82903756765294845 -0.55919291073839883 I I #
edge $-1 $304 36.257842132781462 $388 48.401636035384215 $380 $419 forward 7 unknown #
point $-1 73.049104281746878 36.257842132781462 14.243821404522933 #
coedge $-1 $307 $306 $379 $416 forward $298 $-1 #
point $-1 49.544622172651124 48.401636035384215 6.0527288355473559 #
vertex $-1 $384 $420 #
straight-curve $-1 0 48.401636035384215 14.243821404522933 -1 0 0 I I #
vertex $-1 $314 $421 #
point $-1 55.245518594470283 40.717675705251366 7.7582929210046396 #
vertex $-1 $318 $422 #
point $-1 62.296863227198997 40.717675705251366 7.7582929210046396 #
vertex $-1 $322 $423 #
point $-1 69.348207859927726 40.717675705251366 7.7582929210046396 #
edge $-1 $397 42.143266539282088 $400 48.707167082736625 $327 $424 forward 7 unknown #
vertex $-1 $341 $425 #
straight-curve $-1 48.181988817993783 -74.944990357672054 14.243821404522933 0 -1 0 I I #
edge $-1 $400 18.830181959849213 $338 39.873431756439928 $337 $426 forward 7 unknown #
vertex $-1 $399 $427 #
straight-curve $-1 48.181988817993783 -48.401636035384215 7.6799208610683962 0 0.71933979245794832 0.69465837861970381 I I #
point $-1 48.181988817993783 -41.604518200247412 14.243821404522933 #
point $-1 69.225238614584498 -48.401636035384215 7.6799208610683962 #
straight-curve $-1 0 -48.401636035384215 14.243821404522933 1 0 0 I I #
vertex $-1 $344 $428 #
point $-1 60.703613716289141 -42.174114949787892 8.0323951177447377 #
straight-curve $-1 -73.049104281746878 48.401636035384215 0 0 0 -1 I I #
point $-1 -73.049104281746878 -48.401636035384215 -14.243821404522933 #
straight-curve $-1 -73.049104281746878 0 -14.243821404522933 0 1 0 I I #
point $-1 -73.049104281746878 48.401636035384215 -14.243821404522933 #
straight-curve $-1 -61.049996456285299 -11.487423867047578 -14.243821404522933 0 -1 0 I I #
straight-curve $-1 -61.049996456285299 -11.487423867047578 14.243821404522933 0 1 0 I I #
straight-curve $-1 -73.049104281746878 -19.913993226338349 0 0 0 -1 I I #
point $-1 -73.049104281746878 -19.913993226338349 -14.243821404522933 #
point $-1 -73.049104281746878 -19.913993226338349 14.243821404522933 #
edge $-1 $388 -14.243821404522933 $382 -6.0527288355473559 $379 $429 forward 7 unknown #
straight-curve $-1 30.648431613599499 48.401636035384222 6.0527288355473452 -1 0 0 I I #
point $-1 73.049104281746878 48.401636035384215 6.0527288355473559 #
straight-curve $-1 73.049104281746878 0 14.243821404522933 0 1 0 I I #
point $-1 73.049104281746878 48.401636035384215 14.243821404522933 #
point $-1 54.245518594470283 40.158482794512963 6.9292553533516914 #
point $-1 61.296863227198997 40.158482794512963 6.9292553533516914 #
point $-1 68.348207859927726 40.158482794512963 6.9292553533516914 #
straight-curve $-1 48.181988817993783 -48.401636035384215 56.387087943805021 0 0 -1 I I #
point $-1 48.181988817993783 -48.401636035384215 14.243821404522933 #
straight-curve $-1 29.35180685814457 -48.401636035384215 7.6799208610683927 1 0 0 I I #
point $-1 48.181988817993783 -48.401636035384215 7.6799208610683962 #
point $-1 58.703613716289141 -40.784798192548493 6.5937155328288419 #
straight-curve $-1 73.049104281746878 48.401636035384215 0 0 0 -1 I I #
End-of-ACIS-data 