500 0 6 0           
7 Unknown 11 ACIS 5.0 NT 24 Thu Mar 25 20:06:55 1999 
-1 9.9999999999999995e-007 1e-010 
body $-1 $6 $-1 $7 #
body $-1 $8 $-1 $9 #
body $-1 $10 $-1 $11 #
body $-1 $12 $-1 $13 #
body $-1 $14 $-1 $15 #
body $-1 $16 $-1 $17 #
lump $-1 $-1 $18 $0 #
transform $-1 1 0 0 0 1 0 0 0 1 77.914975432599874 41.250685210950024 13.428409190332976 1 rotate no_reflect no_shear #
lump $-1 $-1 $19 $1 #
transform $-1 1 0 0 0 1 0 0 0 1 77.914975432599874 41.250685210950024 13.428409190332976 1 rotate no_reflect no_shear #
lump $-1 $-1 $20 $2 #
transform $-1 1 0 0 0 1 0 0 0 1 77.914975432599874 41.250685210950024 13.428409190332976 1 rotate no_reflect no_shear #
lump $-1 $-1 $21 $3 #
transform $-1 1 0 0 0 1 0 0 0 1 77.914975432599874 41.250685210950024 13.428409190332976 1 rotate no_reflect no_shear #
lump $-1 $-1 $22 $4 #
transform $-1 1 0 0 0 1 0 0 0 1 77.914975432599874 41.250685210950024 13.428409190332976 1 rotate no_reflect no_shear #
lump $-1 $-1 $23 $5 #
transform $-1 1 0 0 0 1 0 0 0 1 77.914975432599874 41.250685210950024 13.428409190332976 1 rotate no_reflect no_shear #
shell $-1 $-1 $-1 $24 $-1 $6 #
shell $-1 $-1 $-1 $25 $-1 $8 #
shell $-1 $-1 $-1 $26 $-1 $10 #
shell $-1 $-1 $-1 $27 $-1 $12 #
shell $-1 $-1 $-1 $28 $-1 $14 #
shell $-1 $-1 $-1 $29 $-1 $16 #
face $-1 $30 $31 $18 $-1 $32 reversed single #
face $-1 $33 $34 $19 $-1 $35 forward single #
face $-1 $36 $37 $20 $-1 $38 reversed single #
face $-1 $39 $40 $21 $-1 $41 forward single #
face $-1 $42 $43 $22 $-1 $44 forward single #
face $-1 $45 $46 $23 $-1 $47 forward single #
face $-1 $48 $49 $18 $-1 $50 forward single #
loop $-1 $-1 $51 $24 #
plane-surface $-1 0 -41.250685210950024 0 0 1 0 0 0 1 forward_v I I I I #
face $-1 $52 $53 $19 $-1 $54 reversed single #
loop $-1 $-1 $55 $25 #
plane-surface $-1 0 -41.250685210950024 0 0 1 0 0 0 1 forward_v I I I I #
face $-1 $56 $57 $20 $-1 $58 reversed single #
loop $-1 $-1 $59 $26 #
plane-surface $-1 -65.396208522680581 121.57826820881607 166.20126293294362 1 0 0 0 -0.81915205242281985 -0.57357642473473569 forward_v I I I I #
face $-1 $60 $61 $21 $-1 $62 forward single #
loop $-1 $63 $64 $27 #
cone-surface $-1 -59.509510632121135 38.438993544661464 10.392131789962994 0 -0.81915205242281985 -0.57357642473473569 1 0 0 1 I I 0 1 1 forward I I I I #
face $-1 $65 $66 $22 $-1 $67 forward single #
loop $-1 $68 $69 $28 #
cone-surface $-1 -50.679463796281951 38.438993544661464 10.392131789962994 0 -0.81915205242281985 -0.57357642473473569 1 0 0 1 I I 0 1 1 forward I I I I #
face $-1 $70 $71 $23 $-1 $72 forward single #
loop $-1 $73 $74 $29 #
cone-surface $-1 -41.849416960442781 38.438993544661464 10.392131789962994 0 -0.81915205242281985 -0.57357642473473569 1 0 0 1 I I 0 1 1 forward I I I I #
face $-1 $75 $76 $18 $-1 $77 reversed single #
loop $-1 $-1 $78 $30 #
plane-surface $-1 0 0 13.428409190332976 0 0 1 1 0 0 forward_v I I I I #
coedge $-1 $79 $80 $81 $82 reversed $31 $-1 #
face $-1 $83 $84 $19 $-1 $85 reversed single #
loop $-1 $-1 $86 $33 #
plane-surface $-1 0 0 -13.428409190332976 0 0 1 1 0 0 forward_v I I I I #
coedge $-1 $87 $88 $89 $90 forward $34 $-1 #
face $-1 $91 $92 $20 $-1 $93 reversed single #
loop $-1 $-1 $94 $36 #
plane-surface $-1 -50.679463796281951 -6.070155871359475 76.820876849092812 0 0.81915205242281985 0.57357642473473569 1 0 0 forward_v I I I I #
coedge $-1 $95 $96 $97 $98 reversed $37 $-1 #
face $-1 $-1 $99 $21 $-1 $100 forward single #
loop $-1 $101 $102 $39 #
cone-surface $-1 -59.509510632121135 36.684205202984131 9.1634158022431027 0 -0.81915205242281985 -0.57357642473473569 0.5 0 0 1 I I -0.70710678118654746 0.70710678118654746 0.5 forward I I I I #
loop $-1 $-1 $103 $27 #
coedge $-1 $64 $64 $104 $105 reversed $40 $-1 #
face $-1 $-1 $106 $22 $-1 $107 forward single #
loop $-1 $108 $109 $42 #
cone-surface $-1 -50.679463796281951 36.684205202984131 9.1634158022431027 0 -0.81915205242281985 -0.57357642473473569 0.5 0 0 1 I I -0.70710678118654746 0.70710678118654746 0.5 forward I I I I #
loop $-1 $-1 $110 $28 #
coedge $-1 $69 $69 $111 $112 reversed $43 $-1 #
face $-1 $-1 $113 $23 $-1 $114 forward single #
loop $-1 $115 $116 $45 #
cone-surface $-1 -41.849416960442781 36.684205202984131 9.1634158022431027 0 -0.81915205242281985 -0.57357642473473569 0.5 0 0 1 I I -0.70710678118654746 0.70710678118654746 0.5 forward I I I I #
loop $-1 $-1 $117 $29 #
coedge $-1 $74 $74 $118 $119 reversed $46 $-1 #
face $-1 $120 $121 $18 $-1 $122 reversed single #
loop $-1 $-1 $123 $48 #
plane-surface $-1 0 0 -13.428409190332976 0 0 1 1 0 0 forward_v I I I I #
coedge $-1 $124 $125 $126 $127 forward $49 $-1 #
coedge $-1 $128 $51 $129 $130 reversed $31 $-1 #
coedge $-1 $51 $128 $131 $132 forward $31 $-1 #
coedge $-1 $133 $123 $51 $82 forward $76 $-1 #
edge $-1 $134 -77.914975432599874 $135 77.914975432599874 $51 $136 forward 7 unknown #
face $-1 $137 $138 $19 $-1 $139 reversed single #
loop $-1 $-1 $140 $52 #
plane-surface $-1 -68.29052275559701 -58.934261264301099 0 0 1 0 0 0 1 forward_v I I I I #
coedge $-1 $141 $142 $88 $143 forward $53 $-1 #
coedge $-1 $144 $55 $145 $146 reversed $34 $-1 #
coedge $-1 $55 $144 $86 $143 reversed $34 $-1 #
coedge $-1 $147 $148 $55 $90 reversed $138 $-1 #
edge $-1 $149 -13.428409190332976 $150 13.428409190332976 $89 $151 forward 7 unknown #
face $-1 $152 $153 $20 $-1 $154 forward single #
loop $-1 $-1 $155 $56 #
plane-surface $-1 -35.96271906988332 121.57826820881607 166.20126293294362 -1 0 0 0 0.81915205242281985 0.57357642473473569 forward_v I I I I #
coedge $-1 $156 $157 $158 $159 reversed $57 $-1 #
coedge $-1 $96 $59 $160 $161 reversed $37 $-1 #
coedge $-1 $59 $95 $156 $162 reversed $37 $-1 #
coedge $-1 $158 $163 $59 $98 forward $153 $-1 #
edge $-1 $164 19.538448893458011 $165 22.47140759510328 $97 $166 forward 7 unknown #
loop $-1 $-1 $104 $60 #
plane-surface $-1 -50.679463796281951 -6.070155871359475 76.820876849092812 0 0.81915205242281985 0.57357642473473569 1 0 0 forward_v I I I I #
loop $-1 $-1 $167 $39 #
coedge $-1 $102 $102 $103 $168 reversed $61 $-1 #
coedge $-1 $103 $103 $102 $168 forward $63 $-1 #
coedge $-1 $104 $104 $64 $105 forward $99 $-1 #
edge $-1 $169 -2.6203992691551346e-015 $169 6.2831853071795978 $104 $170 forward 7 unknown #
loop $-1 $-1 $111 $65 #
plane-surface $-1 -50.679463796281951 -6.070155871359475 76.820876849092812 0 0.81915205242281985 0.57357642473473569 1 0 0 forward_v I I I I #
loop $-1 $-1 $171 $42 #
coedge $-1 $109 $109 $110 $172 reversed $66 $-1 #
coedge $-1 $110 $110 $109 $172 forward $68 $-1 #
coedge $-1 $111 $111 $69 $112 forward $106 $-1 #
edge $-1 $173 -2.6203992691551346e-015 $173 6.2831853071795978 $111 $174 forward 7 unknown #
loop $-1 $-1 $118 $70 #
plane-surface $-1 -50.679463796281951 -6.070155871359475 76.820876849092812 0 0.81915205242281985 0.57357642473473569 1 0 0 forward_v I I I I #
loop $-1 $-1 $175 $45 #
coedge $-1 $116 $116 $117 $176 reversed $71 $-1 #
coedge $-1 $117 $117 $116 $176 forward $73 $-1 #
coedge $-1 $118 $118 $74 $119 forward $113 $-1 #
edge $-1 $177 -2.6203992691551346e-015 $177 6.2831853071795978 $118 $178 forward 7 unknown #
face $-1 $179 $180 $18 $-1 $181 reversed single #
loop $-1 $-1 $182 $75 #
plane-surface $-1 -77.914975432599874 0 0 1 0 0 0 0 -1 forward_v I I I I #
coedge $-1 $81 $183 $184 $185 forward $76 $-1 #
coedge $-1 $186 $78 $187 $188 forward $49 $-1 #
coedge $-1 $78 $186 $128 $189 forward $49 $-1 #
coedge $-1 $129 $190 $78 $127 reversed $191 $-1 #
edge $-1 $192 -41.250685210950024 $193 41.250685210950024 $126 $194 forward 7 unknown #
coedge $-1 $80 $79 $125 $189 reversed $31 $-1 #
coedge $-1 $184 $126 $79 $130 forward $191 $-1 #
edge $-1 $192 -13.428409190332976 $134 13.428409190332976 $129 $195 forward 7 unknown #
coedge $-1 $196 $197 $80 $132 reversed $121 $-1 #
edge $-1 $198 -13.428409190332976 $135 13.428409190332976 $131 $199 forward 7 unknown #
coedge $-1 $183 $81 $197 $200 forward $76 $-1 #
vertex $-1 $130 $201 #
vertex $-1 $200 $202 #
straight-curve $-1 0 -41.250685210950024 -13.428409190332976 -1 0 0 I I #
face $-1 $203 $204 $19 $-1 $205 reversed single #
loop $-1 $-1 $89 $83 #
plane-surface $-1 -71.569575780122022 -50.092473237625562 0 1 0 0 0 0 -1 forward_v I I I I #
coedge $-1 $206 $207 $208 $209 forward $84 $-1 #
coedge $-1 $210 $86 $211 $212 forward $53 $-1 #
coedge $-1 $86 $210 $147 $213 forward $53 $-1 #
edge $-1 $149 -71.569575780122022 $214 -65.011469731071998 $86 $215 forward 7 unknown #
coedge $-1 $88 $87 $216 $217 forward $34 $-1 #
coedge $-1 $218 $219 $87 $146 forward $220 $-1 #
edge $-1 $221 65.011469731071998 $150 71.569575780122022 $145 $222 forward 7 unknown #
coedge $-1 $208 $89 $142 $213 reversed $138 $-1 #
coedge $-1 $89 $208 $218 $223 reversed $138 $-1 #
vertex $-1 $143 $224 #
vertex $-1 $223 $225 #
straight-curve $-1 -71.569575780122022 -41.250685210950024 0 0 0 1 I I #
face $-1 $-1 $226 $20 $-1 $227 reversed single #
loop $-1 $-1 $97 $91 #
plane-surface $-1 0 0 13.428409190332976 0 0 1 1 0 0 forward_v I I I I #
coedge $-1 $228 $229 $230 $231 reversed $92 $-1 #
coedge $-1 $232 $94 $96 $162 forward $57 $-1 #
coedge $-1 $94 $232 $228 $233 forward $57 $-1 #
coedge $-1 $230 $97 $94 $159 forward $153 $-1 #
edge $-1 $165 -40.056476624539606 $234 -10.622987171742345 $158 $235 forward 7 unknown #
coedge $-1 $236 $237 $95 $161 forward $226 $-1 #
edge $-1 $238 -73.86092152617374 $164 -69.672222276138839 $160 $239 forward 7 unknown #
edge $-1 $165 77.387912868267705 $238 82.501370421900049 $96 $240 forward 7 unknown #
coedge $-1 $97 $230 $236 $241 forward $153 $-1 #
vertex $-1 $161 $242 #
vertex $-1 $98 $243 #
straight-curve $-1 -65.396208522680581 60.789134104408035 13.428409190332971 0 -1 0 I I #
coedge $-1 $167 $167 $-1 $244 reversed $101 $-1 #
edge $-1 $245 0 $245 6.2831853071796004 $102 $246 forward 7 unknown #
vertex $-1 $105 $247 #
ellipse-curve $-1 -59.509510632121135 39.784205860127393 11.334059565315519 0 0.81915205242281985 0.57357642473473569 1 0 0 1 I I #
coedge $-1 $171 $171 $-1 $248 reversed $108 $-1 #
edge $-1 $249 0 $249 6.2831853071796004 $109 $250 forward 7 unknown #
vertex $-1 $112 $251 #
ellipse-curve $-1 -50.679463796281951 39.784205860127393 11.334059565315519 0 0.81915205242281985 0.57357642473473569 1 0 0 1 I I #
coedge $-1 $175 $175 $-1 $252 reversed $115 $-1 #
edge $-1 $253 0 $253 6.2831853071796004 $116 $254 forward 7 unknown #
vertex $-1 $119 $255 #
ellipse-curve $-1 -41.849416960442781 39.784205860127393 11.334059565315519 0 0.81915205242281985 0.57357642473473569 1 0 0 1 I I #
face $-1 $-1 $191 $18 $-1 $256 reversed single #
loop $-1 $-1 $257 $120 #
plane-surface $-1 0 41.250685210950024 0 0 -1 0 0 0 -1 forward_v I I I I #
coedge $-1 $197 $196 $258 $259 forward $121 $-1 #
coedge $-1 $123 $133 $260 $261 forward $76 $-1 #
coedge $-1 $190 $129 $123 $185 reversed $191 $-1 #
edge $-1 $262 -41.250685210950024 $134 41.250685210950024 $184 $263 forward 7 unknown #
coedge $-1 $125 $124 $196 $264 forward $49 $-1 #
coedge $-1 $257 $258 $124 $188 reversed $180 $-1 #
edge $-1 $193 -77.914975432599874 $265 77.914975432599874 $187 $266 forward 7 unknown #
edge $-1 $198 -77.914975432599874 $192 77.914975432599874 $128 $267 forward 7 unknown #
coedge $-1 $126 $184 $257 $268 reversed $191 $-1 #
loop $-1 $-1 $129 $179 #
vertex $-1 $127 $269 #
vertex $-1 $127 $270 #
straight-curve $-1 77.914975432599874 0 13.428409190332976 0 1 0 I I #
straight-curve $-1 77.914975432599874 -41.250685210950024 0 0 0 -1 I I #
coedge $-1 $182 $131 $186 $264 reversed $121 $-1 #
coedge $-1 $131 $182 $133 $200 reversed $121 $-1 #
vertex $-1 $264 $271 #
straight-curve $-1 -77.914975432599874 -41.250685210950024 0 0 0 -1 I I #
edge $-1 $135 -41.250685210950024 $272 41.250685210950024 $197 $273 forward 7 unknown #
point $-1 77.914975432599874 -41.250685210950024 -13.428409190332976 #
point $-1 -77.914975432599874 -41.250685210950024 -13.428409190332976 #
face $-1 $-1 $220 $19 $-1 $274 forward single #
loop $-1 $-1 $275 $137 #
plane-surface $-1 -65.011469731071998 -50.092473237625562 0 -1 0 0 0 0 1 forward_v I I I I #
coedge $-1 $276 $140 $210 $277 reversed $84 $-1 #
coedge $-1 $140 $276 $278 $279 reversed $84 $-1 #
coedge $-1 $148 $147 $140 $209 reversed $138 $-1 #
edge $-1 $280 -13.428409190332976 $281 13.428409190332976 $208 $282 forward 7 unknown #
coedge $-1 $142 $141 $206 $277 forward $53 $-1 #
coedge $-1 $216 $275 $141 $212 reversed $204 $-1 #
edge $-1 $214 -8.8417880266755375 $283 8.8417880266755375 $211 $284 forward 7 unknown #
edge $-1 $281 -8.8417880266755375 $149 8.8417880266755375 $147 $285 forward 7 unknown #
vertex $-1 $212 $286 #
straight-curve $-1 0 -41.250685210950024 -13.428409190332976 1 0 0 I I #
coedge $-1 $287 $211 $144 $217 reversed $204 $-1 #
edge $-1 $221 -13.428409190332976 $214 13.428409190332976 $216 $288 forward 7 unknown #
coedge $-1 $278 $145 $148 $223 forward $220 $-1 #
coedge $-1 $145 $278 $287 $289 forward $220 $-1 #
loop $-1 $-1 $145 $203 #
vertex $-1 $146 $290 #
straight-curve $-1 0 -41.250685210950024 13.428409190332976 -1 0 0 I I #
edge $-1 $150 -8.8417880266755375 $280 8.8417880266755375 $148 $291 forward 7 unknown #
point $-1 -71.569575780122022 -41.250685210950024 -13.428409190332976 #
point $-1 -71.569575780122022 -41.250685210950024 13.428409190332976 #
loop $-1 $-1 $160 $152 #
plane-surface $-1 0 41.250685210950024 0 0 -1 0 0 0 -1 forward_v I I I I #
coedge $-1 $229 $155 $157 $233 reversed $92 $-1 #
coedge $-1 $155 $228 $292 $293 reversed $92 $-1 #
coedge $-1 $163 $158 $155 $231 forward $153 $-1 #
edge $-1 $234 -22.47140759510328 $294 -19.538448893458011 $230 $295 forward 7 unknown #
coedge $-1 $157 $156 $237 $296 reversed $57 $-1 #
edge $-1 $297 -82.501370421900049 $234 -77.387912868267705 $228 $298 forward 7 unknown #
vertex $-1 $159 $299 #
straight-curve $-1 -25.339731898140975 38.317726509304755 13.428409190332978 1 0 0 I I #
coedge $-1 $292 $160 $163 $241 reversed $226 $-1 #
coedge $-1 $160 $292 $232 $296 forward $226 $-1 #
vertex $-1 $161 $300 #
straight-curve $-1 -65.396208522680581 41.250685210950024 83.10063146647181 0 0 1 I I #
straight-curve $-1 -65.396208522680581 -6.070155871359475 76.820876849092812 0 0.57357642473473569 -0.81915205242281985 I I #
edge $-1 $294 35.96271906988332 $164 65.396208522680581 $236 $301 forward 7 unknown #
point $-1 -65.396208522680581 41.250685210950024 13.428409190332976 #
point $-1 -65.396208522680581 38.317726509304755 13.428409190332985 #
edge $-1 $302 1 $302 0 $167 $-1 forward 7 unknown #
vertex $-1 $168 $303 #
ellipse-curve $-1 -59.509510632121135 37.093781229195542 9.4502040146104704 0 0.81915205242281985 0.57357642473473569 1 0 0 1 I I #
point $-1 -58.509510632121135 39.784205860127386 11.334059565315517 #
edge $-1 $304 1 $304 0 $171 $-1 forward 7 unknown #
vertex $-1 $172 $305 #
ellipse-curve $-1 -50.679463796281951 37.093781229195542 9.4502040146104704 0 0.81915205242281985 0.57357642473473569 1 0 0 1 I I #
point $-1 -49.679463796281951 39.784205860127386 11.334059565315517 #
edge $-1 $306 1 $306 0 $175 $-1 forward 7 unknown #
vertex $-1 $176 $307 #
ellipse-curve $-1 -41.849416960442781 37.093781229195542 9.4502040146104704 0 0.81915205242281985 0.57357642473473569 1 0 0 1 I I #
point $-1 -40.849416960442781 39.784205860127386 11.334059565315517 #
plane-surface $-1 77.914975432599874 0 0 -1 0 0 0 0 1 forward_v I I I I #
coedge $-1 $260 $187 $190 $268 forward $180 $-1 #
coedge $-1 $187 $260 $182 $259 reversed $180 $-1 #
edge $-1 $265 -13.428409190332976 $272 13.428409190332976 $258 $308 forward 7 unknown #
coedge $-1 $258 $257 $183 $261 reversed $180 $-1 #
edge $-1 $272 -77.914975432599874 $262 77.914975432599874 $260 $309 forward 7 unknown #
vertex $-1 $185 $310 #
straight-curve $-1 77.914975432599874 0 -13.428409190332976 0 -1 0 I I #
edge $-1 $265 -41.250685210950024 $198 41.250685210950024 $196 $311 forward 7 unknown #
vertex $-1 $188 $312 #
straight-curve $-1 0 41.250685210950024 13.428409190332976 -1 0 0 I I #
straight-curve $-1 0 -41.250685210950024 13.428409190332976 1 0 0 I I #
edge $-1 $193 -13.428409190332976 $262 13.428409190332976 $190 $313 forward 7 unknown #
point $-1 77.914975432599874 -41.250685210950024 13.428409190332976 #
point $-1 77.914975432599874 41.250685210950024 13.428409190332976 #
point $-1 -77.914975432599874 -41.250685210950024 13.428409190332976 #
vertex $-1 $261 $314 #
straight-curve $-1 -77.914975432599874 0 -13.428409190332976 0 1 0 I I #
plane-surface $-1 0 0 13.428409190332976 0 0 1 1 0 0 forward_v I I I I #
coedge $-1 $211 $287 $276 $315 forward $204 $-1 #
coedge $-1 $207 $206 $275 $315 reversed $84 $-1 #
edge $-1 $283 -3.2790530245250125 $281 3.2790530245250125 $206 $316 forward 7 unknown #
coedge $-1 $219 $218 $207 $279 forward $220 $-1 #
edge $-1 $280 -3.2790530245250125 $317 3.2790530245250125 $207 $318 forward 7 unknown #
vertex $-1 $223 $319 #
vertex $-1 $213 $320 #
straight-curve $-1 -71.569575780122022 -58.934261264301099 0 0 0 -1 I I #
vertex $-1 $315 $321 #
straight-curve $-1 -65.011469731071998 -50.092473237625562 -13.428409190332976 0 -1 0 I I #
straight-curve $-1 -71.569575780122022 -50.092473237625562 -13.428409190332976 0 1 0 I I #
point $-1 -65.011469731071998 -41.250685210950024 -13.428409190332976 #
coedge $-1 $275 $216 $219 $289 reversed $204 $-1 #
straight-curve $-1 -65.011469731071998 -41.250685210950024 0 0 0 -1 I I #
edge $-1 $317 -8.8417880266755375 $221 8.8417880266755375 $287 $322 forward 7 unknown #
point $-1 -65.011469731071998 -41.250685210950024 13.428409190332976 #
straight-curve $-1 -71.569575780122022 -50.092473237625562 13.428409190332976 0 -1 0 I I #
coedge $-1 $237 $236 $229 $293 forward $226 $-1 #
edge $-1 $294 69.672222276138839 $297 73.86092152617374 $292 $323 forward 7 unknown #
vertex $-1 $241 $324 #
straight-curve $-1 -35.96271906988332 60.789134104408035 13.428409190332971 0 1 0 I I #
edge $-1 $297 10.622987171742345 $238 40.056476624539606 $237 $325 forward 7 unknown #
vertex $-1 $296 $326 #
straight-curve $-1 -35.96271906988332 -6.070155871359475 76.820876849092812 0 -0.57357642473473569 0.81915205242281985 I I #
point $-1 -35.96271906988332 38.317726509304755 13.428409190332985 #
point $-1 -65.396208522680581 41.250685210950024 9.23970994029807 #
straight-curve $-1 0 41.250685210950024 13.428409190332976 -1 0 0 I I #
vertex $-1 $244 $327 #
point $-1 -58.509510632121135 37.093781229195542 9.4502040146104704 #
vertex $-1 $248 $328 #
point $-1 -49.679463796281951 37.093781229195542 9.4502040146104704 #
vertex $-1 $252 $329 #
point $-1 -40.849416960442781 37.093781229195542 9.4502040146104704 #
straight-curve $-1 -77.914975432599874 41.250685210950024 0 0 0 -1 I I #
straight-curve $-1 0 41.250685210950024 -13.428409190332976 1 0 0 I I #
point $-1 77.914975432599874 41.250685210950024 -13.428409190332976 #
straight-curve $-1 -77.914975432599874 0 13.428409190332976 0 -1 0 I I #
point $-1 -77.914975432599874 41.250685210950024 13.428409190332976 #
straight-curve $-1 77.914975432599874 41.250685210950024 0 0 0 -1 I I #
point $-1 -77.914975432599874 41.250685210950024 -13.428409190332976 #
edge $-1 $317 -13.428409190332976 $283 13.428409190332976 $275 $330 forward 7 unknown #
straight-curve $-1 -68.29052275559701 -58.934261264301099 -13.428409190332976 -1 0 0 I I #
vertex $-1 $289 $331 #
straight-curve $-1 -68.29052275559701 -58.934261264301099 13.428409190332976 1 0 0 I I #
point $-1 -71.569575780122022 -58.934261264301099 13.428409190332976 #
point $-1 -71.569575780122022 -58.934261264301099 -13.428409190332976 #
point $-1 -65.011469731071998 -58.934261264301099 -13.428409190332976 #
straight-curve $-1 -65.011469731071998 -50.092473237625562 13.428409190332976 0 1 0 I I #
straight-curve $-1 -35.96271906988332 41.250685210950024 83.10063146647181 0 0 -1 I I #
point $-1 -35.96271906988332 41.250685210950024 13.428409190332976 #
straight-curve $-1 -25.339731898140975 41.250685210950024 9.2397099402980665 -1 0 0 I I #
point $-1 -35.96271906988332 41.250685210950024 9.23970994029807 #
point $-1 -59.509510632121135 36.27462917677272 8.876627589875735 #
point $-1 -50.679463796281951 36.27462917677272 8.876627589875735 #
point $-1 -41.849416960442781 36.27462917677272 8.876627589875735 #
straight-curve $-1 -65.011469731071998 -58.934261264301099 0 0 0 -1 I I #
point $-1 -65.011469731071998 -58.934261264301099 13.428409190332976 #
End-of-ACIS-data 