500 0 11 0           
7 Unknown 11 ACIS 5.0 NT 24 Thu Mar 25 19:05:23 1999 
-1 9.9999999999999995e-007 1e-010 
body $-1 $11 $-1 $12 #
body $-1 $13 $-1 $14 #
body $-1 $15 $-1 $16 #
body $-1 $17 $-1 $18 #
body $-1 $19 $-1 $20 #
body $-1 $21 $-1 $22 #
body $-1 $23 $-1 $24 #
body $-1 $25 $-1 $26 #
body $-1 $27 $-1 $28 #
body $-1 $29 $-1 $30 #
body $-1 $31 $-1 $32 #
lump $-1 $-1 $33 $0 #
transform $-1 1 0 0 0 1 0 0 0 1 71.794183172093881 43.925980554088596 17.770805261975912 1 rotate no_reflect no_shear #
lump $-1 $-1 $34 $1 #
transform $-1 1 0 0 0 1 0 0 0 1 71.794183172093881 43.925980554088596 17.770805261975912 1 rotate no_reflect no_shear #
lump $-1 $-1 $35 $2 #
transform $-1 1 0 0 0 1 0 0 0 1 71.794183172093881 43.925980554088596 17.770805261975912 1 rotate no_reflect no_shear #
lump $-1 $-1 $36 $3 #
transform $-1 1 0 0 0 1 0 0 0 1 71.794183172093881 43.925980554088596 17.770805261975912 1 rotate no_reflect no_shear #
lump $-1 $-1 $37 $4 #
transform $-1 1 0 0 0 1 0 0 0 1 71.794183172093881 43.925980554088596 17.770805261975912 1 rotate no_reflect no_shear #
lump $-1 $-1 $38 $5 #
transform $-1 1 0 0 0 1 0 0 0 1 71.794183172093881 43.925980554088596 17.770805261975912 1 rotate no_reflect no_shear #
lump $-1 $-1 $39 $6 #
transform $-1 1 0 0 0 1 0 0 0 1 71.794183172093881 43.925980554088596 17.770805261975912 1 rotate no_reflect no_shear #
lump $-1 $-1 $40 $7 #
transform $-1 1 0 0 0 1 0 0 0 1 71.794183172093881 43.925980554088596 17.770805261975912 1 rotate no_reflect no_shear #
lump $-1 $-1 $41 $8 #
transform $-1 1 0 0 0 1 0 0 0 1 71.794183172093881 43.925980554088596 17.770805261975912 1 rotate no_reflect no_shear #
lump $-1 $-1 $42 $9 #
transform $-1 1 0 0 0 1 0 0 0 1 71.794183172093881 43.925980554088596 17.770805261975912 1 rotate no_reflect no_shear #
lump $-1 $-1 $43 $10 #
transform $-1 1 0 0 0 1 0 0 0 1 71.794183172093881 43.925980554088596 17.770805261975912 1 rotate no_reflect no_shear #
shell $-1 $-1 $-1 $44 $-1 $11 #
shell $-1 $-1 $-1 $45 $-1 $13 #
shell $-1 $-1 $-1 $46 $-1 $15 #
shell $-1 $-1 $-1 $47 $-1 $17 #
shell $-1 $-1 $-1 $48 $-1 $19 #
shell $-1 $-1 $-1 $49 $-1 $21 #
shell $-1 $-1 $-1 $50 $-1 $23 #
shell $-1 $-1 $-1 $51 $-1 $25 #
shell $-1 $-1 $-1 $52 $-1 $27 #
shell $-1 $-1 $-1 $53 $-1 $29 #
shell $-1 $-1 $-1 $54 $-1 $31 #
face $-1 $55 $56 $33 $-1 $57 forward single #
face $-1 $58 $59 $34 $-1 $60 forward single #
face $-1 $61 $62 $35 $-1 $63 forward single #
face $-1 $64 $65 $36 $-1 $66 reversed single #
face $-1 $67 $68 $37 $-1 $69 forward single #
face $-1 $70 $71 $38 $-1 $72 reversed single #
face $-1 $73 $74 $39 $-1 $75 forward single #
face $-1 $76 $77 $40 $-1 $78 reversed single #
face $-1 $79 $80 $41 $-1 $81 forward single #
face $-1 $82 $83 $42 $-1 $84 reversed single #
face $-1 $85 $86 $43 $-1 $87 forward single #
face $-1 $88 $89 $33 $-1 $90 reversed single #
loop $-1 $-1 $91 $44 #
plane-surface $-1 0 0 17.770805261975912 0 0 1 1 0 0 forward_v I I I I #
face $-1 $92 $93 $34 $-1 $94 reversed single #
loop $-1 $-1 $95 $45 #
plane-surface $-1 0 -33.755376712690321 -8.1094772734666876 0 0 1 1 0 0 forward_v I I I I #
face $-1 $96 $97 $35 $-1 $98 reversed single #
loop $-1 $-1 $99 $46 #
plane-surface $-1 0 33.755376712690321 -8.1094772734666876 0 0 1 1 0 0 forward_v I I I I #
face $-1 $100 $101 $36 $-1 $102 reversed single #
loop $-1 $-1 $103 $47 #
plane-surface $-1 -145.74765993724031 -4.6384534462320879 125.24661627376329 0 -1 0 0.51503808176128008 0 -0.85716729658548041 forward_v I I I I #
face $-1 $104 $105 $37 $-1 $106 forward single #
loop $-1 $107 $108 $48 #
cone-surface $-1 -57.554190085729388 -8.3218655974881557 7.8791657089209757 0.51503808176128008 0 -0.85716729658548041 1.2857509448782207 0 0.77255712264192011 1 I I 0 1 1.5 forward I I I I #
face $-1 $109 $110 $38 $-1 $111 reversed single #
loop $-1 $-1 $112 $49 #
plane-surface $-1 -145.74765993724031 12.005277748744209 125.24661627376329 0 -1 0 0.51503808176128008 0 -0.85716729658548041 forward_v I I I I #
face $-1 $113 $114 $39 $-1 $115 forward single #
loop $-1 $116 $117 $50 #
cone-surface $-1 -57.554190085729388 8.3218655974881415 7.8791657089209757 0.51503808176128008 0 -0.85716729658548041 1.2857509448782207 0 0.77255712264192011 1 I I 0 1 1.5 forward I I I I #
face $-1 $118 $119 $40 $-1 $120 reversed single #
loop $-1 $-1 $121 $51 #
plane-surface $-1 22.668408136867285 -12.005277748744223 199.20009303890973 0 1 0 0.51503808176128008 0 0.85716729658548041 forward_v I I I I #
face $-1 $122 $123 $41 $-1 $124 forward single #
loop $-1 $125 $126 $52 #
cone-surface $-1 57.554190085729388 -8.3218655974881557 7.8791657089209792 -0.51503808176128008 0 -0.85716729658548041 1.2857509448782207 0 -0.77255712264192011 1 I I 0 1 1.5 forward I I I I #
face $-1 $127 $128 $42 $-1 $129 reversed single #
loop $-1 $-1 $130 $53 #
plane-surface $-1 22.668408136867285 4.6384534462320737 199.20009303890973 0 1 0 0.51503808176128008 0 0.85716729658548041 forward_v I I I I #
face $-1 $131 $132 $43 $-1 $133 forward single #
loop $-1 $134 $135 $54 #
cone-surface $-1 57.554190085729388 8.3218655974881415 7.8791657089209792 -0.51503808176128008 0 -0.85716729658548041 1.2857509448782207 0 -0.77255712264192011 1 I I 0 1 1.5 forward I I I I #
face $-1 $136 $137 $33 $-1 $138 reversed single #
loop $-1 $-1 $139 $55 #
plane-surface $-1 0 0 -17.770805261975912 0 0 1 1 0 0 forward_v I I I I #
coedge $-1 $140 $141 $142 $143 forward $56 $-1 #
face $-1 $144 $145 $34 $-1 $146 reversed single #
loop $-1 $-1 $147 $58 #
plane-surface $-1 0 -33.755376712690321 -16.672459672872726 0 0 1 1 0 0 forward_v I I I I #
coedge $-1 $148 $149 $150 $151 reversed $59 $-1 #
face $-1 $152 $153 $35 $-1 $154 reversed single #
loop $-1 $-1 $155 $61 #
plane-surface $-1 0 33.755376712690321 -16.672459672872726 0 0 1 1 0 0 forward_v I I I I #
coedge $-1 $156 $157 $158 $159 reversed $62 $-1 #
face $-1 $160 $161 $36 $-1 $162 reversed single #
loop $-1 $-1 $163 $64 #
plane-surface $-1 -71.794183172093895 -8.3218655974881557 2.1673644733902933 -0.51503808176128008 0 0.85716729658548041 0.85716729658548041 0 0.51503808176128008 forward_v I I I I #
coedge $-1 $164 $165 $166 $167 reversed $65 $-1 #
face $-1 $-1 $168 $37 $-1 $169 forward single #
loop $-1 $170 $171 $67 #
cone-surface $-1 -55.91216138222174 -8.3218655974881557 5.1463710777197278 0.51503808176128008 0 -0.85716729658548041 0.64287547243911036 0 0.38627856132096006 1 I I -0.70710678118654757 0.70710678118654757 0.75 forward I I I I #
loop $-1 $-1 $172 $48 #
coedge $-1 $108 $108 $173 $174 reversed $68 $-1 #
face $-1 $175 $176 $38 $-1 $177 reversed single #
loop $-1 $-1 $178 $70 #
plane-surface $-1 -71.794183172093895 8.3218655974881415 2.1673644733902933 -0.51503808176128008 0 0.85716729658548041 0.85716729658548041 0 0.51503808176128008 forward_v I I I I #
coedge $-1 $179 $180 $181 $182 reversed $71 $-1 #
face $-1 $-1 $183 $39 $-1 $184 forward single #
loop $-1 $185 $186 $73 #
cone-surface $-1 -55.91216138222174 8.3218655974881415 5.1463710777197278 0.51503808176128008 0 -0.85716729658548041 0.64287547243911036 0 0.38627856132096006 1 I I -0.70710678118654757 0.70710678118654757 0.75 forward I I I I #
loop $-1 $-1 $187 $50 #
coedge $-1 $117 $117 $188 $189 reversed $74 $-1 #
face $-1 $190 $191 $40 $-1 $192 reversed single #
loop $-1 $-1 $193 $76 #
plane-surface $-1 -51.285068628279134 -8.3218655974881557 76.120841238536727 0.51503808176128008 0 0.85716729658548041 0.85716729658548041 0 -0.51503808176128008 forward_v I I I I #
coedge $-1 $194 $195 $196 $197 reversed $77 $-1 #
face $-1 $-1 $198 $41 $-1 $199 forward single #
loop $-1 $200 $201 $79 #
cone-surface $-1 55.91216138222174 -8.3218655974881557 5.1463710777197313 -0.51503808176128008 0 -0.85716729658548041 0.64287547243911036 0 -0.38627856132096006 1 I I -0.70710678118654757 0.70710678118654757 0.75 forward I I I I #
loop $-1 $-1 $202 $52 #
coedge $-1 $126 $126 $203 $204 reversed $80 $-1 #
face $-1 $205 $206 $42 $-1 $207 reversed single #
loop $-1 $-1 $208 $82 #
plane-surface $-1 -51.285068628279134 8.3218655974881415 76.120841238536727 0.51503808176128008 0 0.85716729658548041 0.85716729658548041 0 -0.51503808176128008 forward_v I I I I #
coedge $-1 $209 $210 $211 $212 reversed $83 $-1 #
face $-1 $-1 $213 $43 $-1 $214 forward single #
loop $-1 $215 $216 $85 #
cone-surface $-1 55.91216138222174 8.3218655974881415 5.1463710777197313 -0.51503808176128008 0 -0.85716729658548041 0.64287547243911036 0 -0.38627856132096006 1 I I -0.70710678118654757 0.70710678118654757 0.75 forward I I I I #
loop $-1 $-1 $217 $54 #
coedge $-1 $135 $135 $218 $219 reversed $86 $-1 #
face $-1 $220 $221 $33 $-1 $222 reversed single #
loop $-1 $-1 $223 $88 #
plane-surface $-1 0 -43.925980554088596 0 0 1 0 0 0 1 forward_v I I I I #
coedge $-1 $224 $225 $226 $227 forward $89 $-1 #
coedge $-1 $228 $91 $229 $230 forward $56 $-1 #
coedge $-1 $91 $228 $231 $232 forward $56 $-1 #
coedge $-1 $233 $234 $91 $143 reversed $235 $-1 #
edge $-1 $236 -43.925980554088596 $237 43.925980554088596 $142 $238 forward 7 unknown #
face $-1 $239 $240 $34 $-1 $241 reversed single #
loop $-1 $-1 $242 $92 #
plane-surface $-1 0 -23.584772871292049 -12.390968473169707 0 -1 0 0 0 -1 forward_v I I I I #
coedge $-1 $243 $244 $245 $246 reversed $93 $-1 #
coedge $-1 $247 $95 $248 $249 forward $59 $-1 #
coedge $-1 $95 $247 $250 $251 reversed $59 $-1 #
coedge $-1 $252 $253 $95 $151 forward $254 $-1 #
edge $-1 $255 6.7070845149468887 $256 27.048292197743436 $150 $257 forward 7 unknown #
face $-1 $258 $259 $35 $-1 $260 reversed single #
loop $-1 $-1 $261 $96 #
plane-surface $-1 0 23.584772871292046 -12.390968473169707 0 1 0 0 0 1 forward_v I I I I #
coedge $-1 $262 $263 $264 $265 reversed $97 $-1 #
coedge $-1 $266 $99 $267 $268 reversed $62 $-1 #
coedge $-1 $99 $266 $269 $270 forward $62 $-1 #
coedge $-1 $271 $272 $99 $159 forward $259 $-1 #
edge $-1 $273 -27.048292197743436 $274 -6.7070845149468852 $158 $275 forward 7 unknown #
face $-1 $276 $277 $36 $-1 $278 reversed single #
loop $-1 $-1 $279 $100 #
plane-surface $-1 -145.74765993724031 -12.005277748744223 125.24661627376329 0 1 0 -0.51503808176128008 0 0.85716729658548041 forward_v I I I I #
coedge $-1 $280 $281 $282 $283 reversed $101 $-1 #
coedge $-1 $165 $103 $284 $285 reversed $65 $-1 #
coedge $-1 $103 $164 $280 $286 reversed $65 $-1 #
coedge $-1 $282 $287 $103 $167 forward $277 $-1 #
edge $-1 $288 44.852502874905738 $289 60.455943663491347 $166 $290 forward 7 unknown #
loop $-1 $-1 $173 $104 #
plane-surface $-1 -71.794183172093895 -8.3218655974881557 2.1673644733902933 -0.51503808176128008 0 0.85716729658548041 0.85716729658548041 0 0.51503808176128008 forward_v I I I I #
loop $-1 $-1 $291 $67 #
coedge $-1 $171 $171 $172 $292 reversed $105 $-1 #
coedge $-1 $172 $172 $171 $292 forward $107 $-1 #
coedge $-1 $173 $173 $108 $174 forward $168 $-1 #
edge $-1 $293 0 $293 6.2831853071796004 $173 $294 forward 7 unknown #
face $-1 $295 $296 $38 $-1 $297 forward single #
loop $-1 $-1 $298 $109 #
plane-surface $-1 -145.74765993724031 4.6384534462320737 125.24661627376329 0 1 0 -0.51503808176128008 0 0.85716729658548041 forward_v I I I I #
coedge $-1 $299 $300 $301 $302 reversed $110 $-1 #
coedge $-1 $180 $112 $303 $304 reversed $71 $-1 #
coedge $-1 $112 $179 $299 $305 reversed $71 $-1 #
coedge $-1 $301 $306 $112 $182 forward $307 $-1 #
edge $-1 $308 44.852502874905738 $309 60.455943663491347 $181 $310 forward 7 unknown #
loop $-1 $-1 $188 $113 #
plane-surface $-1 -71.794183172093895 8.3218655974881415 2.1673644733902933 -0.51503808176128008 0 0.85716729658548041 0.85716729658548041 0 0.51503808176128008 forward_v I I I I #
loop $-1 $-1 $311 $73 #
coedge $-1 $186 $186 $187 $312 reversed $114 $-1 #
coedge $-1 $187 $187 $186 $312 forward $116 $-1 #
coedge $-1 $188 $188 $117 $189 forward $183 $-1 #
edge $-1 $313 0 $313 6.2831853071796004 $188 $314 forward 7 unknown #
face $-1 $315 $316 $40 $-1 $317 forward single #
loop $-1 $-1 $318 $118 #
plane-surface $-1 22.668408136867285 -4.6384534462320879 199.20009303890973 0 -1 0 -0.51503808176128008 0 -0.85716729658548041 forward_v I I I I #
coedge $-1 $319 $320 $321 $322 reversed $119 $-1 #
coedge $-1 $195 $121 $323 $324 reversed $77 $-1 #
coedge $-1 $121 $194 $319 $325 reversed $77 $-1 #
coedge $-1 $321 $326 $121 $197 forward $327 $-1 #
edge $-1 $328 81.829241257478955 $329 97.432682046064556 $196 $330 forward 7 unknown #
loop $-1 $-1 $203 $122 #
plane-surface $-1 -51.285068628279134 -8.3218655974881557 76.120841238536727 0.51503808176128008 0 0.85716729658548041 0.85716729658548041 0 -0.51503808176128008 forward_v I I I I #
loop $-1 $-1 $331 $79 #
coedge $-1 $201 $201 $202 $332 reversed $123 $-1 #
coedge $-1 $202 $202 $201 $332 forward $125 $-1 #
coedge $-1 $203 $203 $126 $204 forward $198 $-1 #
edge $-1 $333 0 $333 6.2831853071796004 $203 $334 forward 7 unknown #
face $-1 $335 $336 $42 $-1 $337 reversed single #
loop $-1 $-1 $338 $127 #
plane-surface $-1 22.668408136867285 12.005277748744209 199.20009303890973 0 -1 0 -0.51503808176128008 0 -0.85716729658548041 forward_v I I I I #
coedge $-1 $339 $340 $341 $342 reversed $128 $-1 #
coedge $-1 $210 $130 $343 $344 reversed $83 $-1 #
coedge $-1 $130 $209 $339 $345 reversed $83 $-1 #
coedge $-1 $341 $346 $130 $212 forward $336 $-1 #
edge $-1 $347 81.829241257478955 $348 97.432682046064556 $211 $349 forward 7 unknown #
loop $-1 $-1 $218 $131 #
plane-surface $-1 -51.285068628279134 8.3218655974881415 76.120841238536727 0.51503808176128008 0 0.85716729658548041 0.85716729658548041 0 -0.51503808176128008 forward_v I I I I #
loop $-1 $-1 $350 $85 #
coedge $-1 $216 $216 $217 $351 reversed $132 $-1 #
coedge $-1 $217 $217 $216 $351 forward $134 $-1 #
coedge $-1 $218 $218 $135 $219 forward $213 $-1 #
edge $-1 $352 0 $352 6.2831853071796004 $218 $353 forward 7 unknown #
face $-1 $354 $355 $33 $-1 $356 reversed single #
loop $-1 $-1 $357 $136 #
plane-surface $-1 -71.794183172093881 0 0 1 0 0 0 0 -1 forward_v I I I I #
coedge $-1 $358 $231 $359 $360 forward $137 $-1 #
coedge $-1 $361 $139 $358 $362 forward $89 $-1 #
coedge $-1 $139 $361 $363 $364 forward $89 $-1 #
coedge $-1 $234 $233 $139 $227 reversed $235 $-1 #
edge $-1 $365 -43.925980554088596 $366 43.925980554088596 $226 $367 forward 7 unknown #
coedge $-1 $141 $140 $368 $369 forward $56 $-1 #
coedge $-1 $370 $371 $140 $230 reversed $355 $-1 #
edge $-1 $237 -71.794183172093881 $372 71.794183172093881 $229 $373 forward 7 unknown #
coedge $-1 $223 $374 $141 $232 reversed $137 $-1 #
edge $-1 $375 -71.794183172093881 $236 71.794183172093881 $231 $376 forward 7 unknown #
coedge $-1 $226 $142 $374 $377 forward $235 $-1 #
coedge $-1 $142 $226 $370 $378 reversed $235 $-1 #
loop $-1 $-1 $233 $354 #
vertex $-1 $143 $379 #
vertex $-1 $143 $380 #
straight-curve $-1 71.794183172093881 0 17.770805261975912 0 1 0 I I #
face $-1 $381 $382 $34 $-1 $383 reversed single #
loop $-1 $-1 $384 $144 #
plane-surface $-1 -71.794183172093881 0 0 1 0 0 0 0 -1 forward_v I I I I #
coedge $-1 $385 $248 $253 $386 reversed $145 $-1 #
coedge $-1 $387 $147 $388 $389 reversed $93 $-1 #
coedge $-1 $147 $387 $385 $390 forward $93 $-1 #
coedge $-1 $253 $252 $147 $246 forward $254 $-1 #
edge $-1 $391 -27.048292197743436 $392 -6.7070845149468887 $245 $393 forward 7 unknown #
coedge $-1 $149 $148 $384 $394 reversed $59 $-1 #
coedge $-1 $242 $395 $148 $249 reversed $145 $-1 #
edge $-1 $255 -71.794183172093881 $396 71.794183172093881 $248 $397 forward 7 unknown #
coedge $-1 $398 $399 $149 $251 forward $382 $-1 #
edge $-1 $256 -71.794183172093881 $400 71.794183172093881 $250 $401 forward 7 unknown #
coedge $-1 $245 $150 $399 $402 forward $254 $-1 #
coedge $-1 $150 $245 $242 $386 forward $254 $-1 #
loop $-1 $-1 $150 $381 #
vertex $-1 $151 $403 #
vertex $-1 $402 $404 #
straight-curve $-1 71.794183172093881 -16.877688356345161 -8.1094772734666876 0 -1 0 I I #
face $-1 $405 $406 $35 $-1 $407 reversed single #
loop $-1 $-1 $158 $152 #
plane-surface $-1 71.794183172093881 0 0 -1 0 0 0 0 1 forward_v I I I I #
coedge $-1 $408 $269 $409 $410 reversed $153 $-1 #
coedge $-1 $411 $155 $408 $412 forward $97 $-1 #
coedge $-1 $155 $411 $413 $414 reversed $97 $-1 #
coedge $-1 $272 $271 $155 $265 forward $259 $-1 #
edge $-1 $415 6.7070845149468852 $416 27.048292197743436 $264 $417 forward 7 unknown #
coedge $-1 $157 $156 $418 $419 reversed $62 $-1 #
coedge $-1 $420 $421 $156 $268 forward $422 $-1 #
edge $-1 $423 -71.794183172093881 $273 71.794183172093881 $267 $424 forward 7 unknown #
coedge $-1 $261 $425 $157 $270 reversed $153 $-1 #
edge $-1 $426 -71.794183172093881 $274 71.794183172093881 $269 $427 forward 7 unknown #
coedge $-1 $264 $158 $425 $428 forward $259 $-1 #
coedge $-1 $158 $264 $420 $429 reversed $259 $-1 #
vertex $-1 $429 $430 #
vertex $-1 $159 $431 #
straight-curve $-1 71.794183172093881 16.877688356345161 -8.1094772734666876 0 -1 0 I I #
face $-1 $-1 $432 $36 $-1 $433 forward single #
loop $-1 $-1 $166 $160 #
plane-surface $-1 -71.794183172093881 0 0 1 0 0 0 0 -1 forward_v I I I I #
coedge $-1 $434 $435 $436 $437 reversed $161 $-1 #
coedge $-1 $438 $163 $165 $286 forward $101 $-1 #
coedge $-1 $163 $438 $434 $439 forward $101 $-1 #
coedge $-1 $436 $166 $163 $283 forward $277 $-1 #
edge $-1 $289 0.47752064748801004 $440 7.8443449500001456 $282 $441 forward 7 unknown #
coedge $-1 $442 $443 $164 $285 forward $432 $-1 #
edge $-1 $444 -27.048132684881885 $288 -1.0796467965262764 $284 $445 forward 7 unknown #
edge $-1 $289 1.6526814159067847e-014 $444 30.29570305796884 $165 $446 forward 7 unknown #
coedge $-1 $166 $436 $442 $447 reversed $277 $-1 #
vertex $-1 $447 $448 #
vertex $-1 $167 $449 #
straight-curve $-1 -71.794183172093881 -4.6384534462320879 62.623308136881647 0 0 -1 I I #
coedge $-1 $291 $291 $-1 $450 reversed $170 $-1 #
edge $-1 $451 0 $451 6.2831853071796004 $171 $452 forward 7 unknown #
vertex $-1 $174 $453 #
ellipse-curve $-1 -58.80994022791608 -8.3218655974881557 9.9690848676831081 -0.51503808176128008 0 0.85716729658548041 1.2857509448782207 0 0.77255712264192011 1 I I #
face $-1 $-1 $307 $38 $-1 $454 reversed single #
loop $-1 $-1 $455 $175 #
plane-surface $-1 0 0 17.770805261975912 0 0 1 1 0 0 forward_v I I I I #
coedge $-1 $456 $457 $458 $459 reversed $176 $-1 #
coedge $-1 $460 $178 $180 $305 forward $110 $-1 #
coedge $-1 $178 $460 $456 $461 forward $110 $-1 #
coedge $-1 $458 $181 $178 $302 forward $307 $-1 #
edge $-1 $309 -7.8443449500001385 $462 -0.47752064748800294 $301 $463 forward 7 unknown #
coedge $-1 $464 $465 $179 $304 forward $296 $-1 #
edge $-1 $466 -27.048132684881885 $308 -1.0796467965262764 $303 $467 forward 7 unknown #
edge $-1 $309 1.6526814159067847e-014 $466 30.29570305796884 $180 $468 forward 7 unknown #
coedge $-1 $181 $458 $464 $469 reversed $307 $-1 #
loop $-1 $-1 $458 $295 #
vertex $-1 $469 $470 #
vertex $-1 $182 $471 #
straight-curve $-1 -71.794183172093881 12.005277748744209 62.623308136881647 0 0 -1 I I #
coedge $-1 $311 $311 $-1 $472 reversed $185 $-1 #
edge $-1 $473 0 $473 6.2831853071796004 $186 $474 forward 7 unknown #
vertex $-1 $189 $475 #
ellipse-curve $-1 -58.80994022791608 8.3218655974881415 9.9690848676831081 -0.51503808176128008 0 0.85716729658548041 1.2857509448782207 0 0.77255712264192011 1 I I #
face $-1 $-1 $327 $40 $-1 $476 reversed single #
loop $-1 $-1 $477 $190 #
plane-surface $-1 0 0 17.770805261975912 0 0 1 1 0 0 forward_v I I I I #
coedge $-1 $478 $479 $480 $481 reversed $191 $-1 #
coedge $-1 $482 $193 $195 $325 forward $119 $-1 #
coedge $-1 $193 $482 $478 $483 forward $119 $-1 #
coedge $-1 $480 $196 $193 $322 forward $327 $-1 #
edge $-1 $329 -7.8443449500001456 $484 -0.47752064748801004 $321 $485 forward 7 unknown #
coedge $-1 $486 $487 $194 $324 forward $316 $-1 #
edge $-1 $488 34.491493215304651 $328 60.459979103660238 $323 $489 forward 7 unknown #
edge $-1 $329 -143.58836634418776 $488 -113.29266328621897 $195 $490 forward 7 unknown #
coedge $-1 $196 $480 $486 $491 reversed $327 $-1 #
loop $-1 $-1 $480 $315 #
vertex $-1 $491 $492 #
vertex $-1 $197 $493 #
straight-curve $-1 71.794183172093881 -12.005277748744223 99.600046519454864 0 0 -1 I I #
coedge $-1 $331 $331 $-1 $494 reversed $200 $-1 #
edge $-1 $495 0 $495 6.2831853071796004 $201 $496 forward 7 unknown #
vertex $-1 $204 $497 #
ellipse-curve $-1 58.80994022791608 -8.3218655974881557 9.969084867683117 0.51503808176128008 0 0.85716729658548041 1.2857509448782207 0 -0.77255712264192011 1 I I #
face $-1 $-1 $498 $42 $-1 $499 forward single #
loop $-1 $-1 $211 $205 #
plane-surface $-1 71.794183172093881 0 0 -1 0 0 0 0 1 forward_v I I I I #
coedge $-1 $500 $501 $502 $503 reversed $206 $-1 #
coedge $-1 $504 $208 $210 $345 forward $128 $-1 #
coedge $-1 $208 $504 $500 $505 forward $128 $-1 #
coedge $-1 $502 $211 $208 $342 forward $336 $-1 #
edge $-1 $348 0.47752064748800294 $506 7.8443449500001385 $341 $507 forward 7 unknown #
coedge $-1 $508 $509 $209 $344 forward $498 $-1 #
edge $-1 $510 34.491493215304651 $347 60.459979103660238 $343 $511 forward 7 unknown #
edge $-1 $348 -143.58836634418776 $510 -113.29266328621897 $210 $512 forward 7 unknown #
coedge $-1 $211 $502 $508 $513 reversed $336 $-1 #
vertex $-1 $513 $514 #
vertex $-1 $212 $515 #
straight-curve $-1 71.794183172093881 4.6384534462320737 99.600046519454864 0 0 -1 I I #
coedge $-1 $350 $350 $-1 $516 reversed $215 $-1 #
edge $-1 $517 0 $517 6.2831853071796004 $216 $518 forward 7 unknown #
vertex $-1 $219 $519 #
ellipse-curve $-1 58.80994022791608 8.3218655974881415 9.969084867683117 0.51503808176128008 0 0.85716729658548041 1.2857509448782207 0 -0.77255712264192011 1 I I #
face $-1 $-1 $235 $33 $-1 $520 reversed single #
loop $-1 $-1 $370 $220 #
plane-surface $-1 0 43.925980554088596 0 0 -1 0 0 0 -1 forward_v I I I I #
coedge $-1 $521 $368 $371 $522 forward $221 $-1 #
coedge $-1 $374 $223 $224 $362 reversed $137 $-1 #
coedge $-1 $368 $521 $223 $360 reversed $221 $-1 #
edge $-1 $375 -17.770805261975912 $523 17.770805261975912 $359 $524 forward 7 unknown #
coedge $-1 $225 $224 $521 $525 forward $89 $-1 #
edge $-1 $366 -71.794183172093881 $523 71.794183172093881 $358 $526 forward 7 unknown #
coedge $-1 $371 $370 $225 $364 reversed $355 $-1 #
edge $-1 $527 -71.794183172093881 $365 71.794183172093881 $363 $528 forward 7 unknown #
vertex $-1 $227 $529 #
vertex $-1 $377 $530 #
straight-curve $-1 71.794183172093881 0 -17.770805261975912 0 -1 0 I I #
coedge $-1 $357 $359 $228 $369 reversed $221 $-1 #
edge $-1 $372 -43.925980554088596 $375 43.925980554088596 $368 $531 forward 7 unknown #
coedge $-1 $363 $229 $234 $378 forward $355 $-1 #
coedge $-1 $229 $363 $357 $522 reversed $355 $-1 #
vertex $-1 $230 $532 #
straight-curve $-1 0 43.925980554088596 17.770805261975912 -1 0 0 I I #
coedge $-1 $231 $358 $233 $377 reversed $137 $-1 #
vertex $-1 $369 $533 #
straight-curve $-1 0 -43.925980554088596 17.770805261975912 1 0 0 I I #
edge $-1 $236 -17.770805261975912 $366 17.770805261975912 $233 $534 forward 7 unknown #
edge $-1 $237 -17.770805261975912 $365 17.770805261975912 $234 $535 forward 7 unknown #
point $-1 71.794183172093881 -43.925980554088596 17.770805261975912 #
point $-1 71.794183172093881 43.925980554088596 17.770805261975912 #
face $-1 $-1 $254 $34 $-1 $536 reversed single #
loop $-1 $-1 $250 $239 #
plane-surface $-1 0 -43.925980554088596 0 0 1 0 0 0 1 forward_v I I I I #
coedge $-1 $537 $538 $247 $394 forward $240 $-1 #
coedge $-1 $395 $242 $244 $390 reversed $145 $-1 #
edge $-1 $392 -10.476975436287873 $255 -1.9139930368818341 $253 $539 forward 7 unknown #
coedge $-1 $244 $243 $540 $541 reversed $93 $-1 #
coedge $-1 $399 $398 $243 $389 forward $382 $-1 #
edge $-1 $542 -71.794183172093881 $391 71.794183172093881 $388 $543 forward 7 unknown #
edge $-1 $544 -71.794183172093881 $392 71.794183172093881 $385 $545 forward 7 unknown #
vertex $-1 $389 $546 #
vertex $-1 $246 $547 #
straight-curve $-1 71.794183172093881 -16.877688356345161 -16.672459672872726 0 1 0 I I #
edge $-1 $400 -27.048292197743436 $396 -6.7070845149468887 $384 $548 forward 7 unknown #
coedge $-1 $248 $385 $537 $549 reversed $145 $-1 #
vertex $-1 $394 $550 #
straight-curve $-1 0 -23.584772871292049 -8.1094772734666876 -1 0 0 I I #
coedge $-1 $388 $250 $538 $551 forward $382 $-1 #
coedge $-1 $250 $388 $252 $402 reversed $382 $-1 #
vertex $-1 $551 $552 #
straight-curve $-1 0 -43.925980554088596 -8.1094772734666876 -1 0 0 I I #
edge $-1 $256 8.1094772734666876 $391 16.672459672872726 $252 $553 forward 7 unknown #
point $-1 71.794183172093881 -23.584772871292049 -8.1094772734666876 #
point $-1 71.794183172093881 -43.925980554088596 -8.1094772734666876 #
face $-1 $-1 $422 $35 $-1 $554 reversed single #
loop $-1 $-1 $418 $258 #
plane-surface $-1 -71.794183172093881 0 0 1 0 0 0 0 -1 forward_v I I I I #
coedge $-1 $425 $261 $262 $412 reversed $153 $-1 #
coedge $-1 $418 $555 $261 $410 forward $406 $-1 #
edge $-1 $556 -10.476975436287873 $426 -1.9139930368818341 $409 $557 forward 7 unknown #
coedge $-1 $263 $262 $555 $558 reversed $97 $-1 #
edge $-1 $415 -71.794183172093881 $556 71.794183172093881 $408 $559 forward 7 unknown #
coedge $-1 $421 $420 $263 $414 forward $422 $-1 #
edge $-1 $416 -71.794183172093881 $560 71.794183172093881 $413 $561 forward 7 unknown #
vertex $-1 $265 $562 #
vertex $-1 $414 $563 #
straight-curve $-1 71.794183172093881 16.877688356345161 -16.672459672872726 0 1 0 I I #
coedge $-1 $564 $409 $266 $419 forward $406 $-1 #
edge $-1 $426 6.7070845149468852 $423 27.048292197743436 $418 $565 forward 7 unknown #
coedge $-1 $413 $267 $272 $429 forward $422 $-1 #
coedge $-1 $267 $413 $564 $566 reversed $422 $-1 #
loop $-1 $-1 $267 $405 #
vertex $-1 $566 $567 #
straight-curve $-1 0 43.925980554088596 -8.1094772734666876 1 0 0 I I #
coedge $-1 $269 $408 $271 $428 reversed $153 $-1 #
vertex $-1 $419 $568 #
straight-curve $-1 0 23.584772871292046 -8.1094772734666876 1 0 0 I I #
edge $-1 $274 1.9139930368818341 $415 10.476975436287873 $271 $569 forward 7 unknown #
edge $-1 $273 8.1094772734666876 $416 16.672459672872726 $272 $570 forward 7 unknown #
point $-1 71.794183172093881 43.925980554088596 -8.1094772734666876 #
point $-1 71.794183172093881 23.584772871292046 -8.1094772734666876 #
loop $-1 $-1 $284 $276 #
plane-surface $-1 0 0 17.770805261975912 0 0 1 1 0 0 forward_v I I I I #
coedge $-1 $435 $279 $281 $439 reversed $161 $-1 #
coedge $-1 $279 $434 $571 $572 reversed $161 $-1 #
coedge $-1 $287 $282 $279 $437 forward $277 $-1 #
edge $-1 $440 -60.455943663491347 $573 -44.852502874905738 $436 $574 forward 7 unknown #
coedge $-1 $281 $280 $443 $575 reversed $101 $-1 #
edge $-1 $576 -30.29570305796884 $440 -1.6526814159067847e-014 $434 $577 forward 7 unknown #
vertex $-1 $283 $578 #
straight-curve $-1 -71.794183172093881 -4.1609327987440778 2.1673644733902937 0 -1 0 I I #
coedge $-1 $571 $284 $287 $447 forward $432 $-1 #
coedge $-1 $284 $571 $438 $575 forward $432 $-1 #
vertex $-1 $285 $579 #
straight-curve $-1 -72.873829968620157 -4.6384534462320879 17.770805261975909 -1 0 0 I I #
straight-curve $-1 -71.794183172093895 -4.6384534462320879 2.1673644733902933 0.85716729658548041 0 0.51503808176128008 I I #
edge $-1 $288 4.6384534462320879 $573 12.005277748744223 $287 $580 forward 7 unknown #
point $-1 -71.794183172093881 -4.6384534462320879 17.770805261975912 #
point $-1 -71.794183172093881 -4.6384534462320879 2.1673644733903017 #
edge $-1 $581 1 $581 0 $291 $-1 forward 7 unknown #
vertex $-1 $292 $582 #
ellipse-curve $-1 -56.298439943542697 -8.3218655974881557 5.7892465501588379 -0.51503808176128008 0 0.85716729658548041 1.2857509448782207 0 0.77255712264192011 1 I I #
point $-1 -57.524189283037863 -8.3218655974881557 10.741641990325032 #
plane-surface $-1 -71.794183172093881 0 0 1 0 0 0 0 -1 forward_v I I I I #
coedge $-1 $465 $464 $457 $583 forward $296 $-1 #
coedge $-1 $457 $298 $300 $461 reversed $176 $-1 #
coedge $-1 $298 $456 $455 $583 reversed $176 $-1 #
coedge $-1 $306 $301 $298 $459 forward $307 $-1 #
edge $-1 $462 -60.455943663491347 $584 -44.852502874905738 $458 $585 forward 7 unknown #
coedge $-1 $300 $299 $465 $586 reversed $110 $-1 #
edge $-1 $587 -30.29570305796884 $462 -1.6526814159067847e-014 $456 $588 forward 7 unknown #
vertex $-1 $302 $589 #
straight-curve $-1 -71.794183172093881 4.1609327987440707 2.1673644733902937 0 -1 0 I I #
coedge $-1 $455 $303 $306 $469 forward $296 $-1 #
coedge $-1 $303 $455 $460 $586 forward $296 $-1 #
vertex $-1 $304 $590 #
straight-curve $-1 -72.873829968620157 12.005277748744209 17.770805261975909 -1 0 0 I I #
straight-curve $-1 -71.794183172093895 12.005277748744209 2.1673644733902933 0.85716729658548041 0 0.51503808176128008 I I #
edge $-1 $308 -12.005277748744209 $584 -4.6384534462320737 $306 $591 forward 7 unknown #
point $-1 -71.794183172093881 12.005277748744209 17.770805261975912 #
point $-1 -71.794183172093881 12.005277748744209 2.1673644733903017 #
edge $-1 $592 1 $592 0 $311 $-1 forward 7 unknown #
vertex $-1 $312 $593 #
ellipse-curve $-1 -56.298439943542697 8.3218655974881415 5.7892465501588379 -0.51503808176128008 0 0.85716729658548041 1.2857509448782207 0 0.77255712264192011 1 I I #
point $-1 -57.524189283037863 8.3218655974881415 10.741641990325032 #
plane-surface $-1 71.794183172093881 0 0 -1 0 0 0 0 1 forward_v I I I I #
coedge $-1 $487 $486 $479 $594 forward $316 $-1 #
coedge $-1 $479 $318 $320 $483 reversed $191 $-1 #
coedge $-1 $318 $478 $477 $594 reversed $191 $-1 #
coedge $-1 $326 $321 $318 $481 forward $327 $-1 #
edge $-1 $484 -97.432682046064556 $595 -81.829241257478955 $480 $596 forward 7 unknown #
coedge $-1 $320 $319 $487 $597 reversed $119 $-1 #
edge $-1 $598 113.29266328621897 $484 143.58836634418776 $478 $599 forward 7 unknown #
vertex $-1 $322 $600 #
straight-curve $-1 71.794183172093881 -4.1609327987440778 2.1673644733903075 0 1 0 I I #
coedge $-1 $477 $323 $326 $491 forward $316 $-1 #
coedge $-1 $323 $477 $482 $597 forward $316 $-1 #
vertex $-1 $324 $601 #
straight-curve $-1 11.334204068433642 -12.005277748744223 17.770805261975909 1 0 0 I I #
straight-curve $-1 -51.285068628279134 -12.005277748744223 76.120841238536727 -0.85716729658548041 0 0.51503808176128008 I I #
edge $-1 $328 -12.005277748744223 $595 -4.6384534462320879 $326 $602 forward 7 unknown #
point $-1 71.794183172093881 -12.005277748744223 17.770805261975912 #
point $-1 71.794183172093867 -12.005277748744223 2.1673644733903075 #
edge $-1 $603 1 $603 0 $331 $-1 forward 7 unknown #
vertex $-1 $332 $604 #
ellipse-curve $-1 56.298439943542697 -8.3218655974881557 5.7892465501588415 0.51503808176128008 0 0.85716729658548041 1.2857509448782207 0 -0.77255712264192011 1 I I #
point $-1 60.095691172794304 -8.3218655974881557 9.1965277450411946 #
loop $-1 $-1 $343 $335 #
plane-surface $-1 0 0 17.770805261975912 0 0 1 1 0 0 forward_v I I I I #
coedge $-1 $501 $338 $340 $505 reversed $206 $-1 #
coedge $-1 $338 $500 $605 $606 reversed $206 $-1 #
coedge $-1 $346 $341 $338 $503 forward $336 $-1 #
edge $-1 $506 -97.432682046064556 $607 -81.829241257478955 $502 $608 forward 7 unknown #
coedge $-1 $340 $339 $509 $609 reversed $128 $-1 #
edge $-1 $610 113.29266328621897 $506 143.58836634418776 $500 $611 forward 7 unknown #
vertex $-1 $342 $612 #
straight-curve $-1 71.794183172093881 4.1609327987440707 2.1673644733903075 0 1 0 I I #
coedge $-1 $605 $343 $346 $513 forward $498 $-1 #
coedge $-1 $343 $605 $504 $609 forward $498 $-1 #
vertex $-1 $344 $613 #
straight-curve $-1 11.334204068433642 4.6384534462320737 17.770805261975909 1 0 0 I I #
straight-curve $-1 -51.285068628279134 4.6384534462320737 76.120841238536727 -0.85716729658548041 0 0.51503808176128008 I I #
edge $-1 $347 4.6384534462320737 $607 12.005277748744209 $346 $614 forward 7 unknown #
point $-1 71.794183172093881 4.6384534462320737 17.770805261975912 #
point $-1 71.794183172093867 4.6384534462320737 2.1673644733903075 #
edge $-1 $615 1 $615 0 $350 $-1 forward 7 unknown #
vertex $-1 $351 $616 #
ellipse-curve $-1 56.298439943542697 8.3218655974881415 5.7892465501588415 0.51503808176128008 0 0.85716729658548041 1.2857509448782207 0 -0.77255712264192011 1 I I #
point $-1 60.095691172794304 8.3218655974881415 9.1965277450411946 #
plane-surface $-1 71.794183172093881 0 0 -1 0 0 0 0 1 forward_v I I I I #
coedge $-1 $359 $357 $361 $525 reversed $221 $-1 #
edge $-1 $372 -17.770805261975912 $527 17.770805261975912 $371 $617 forward 7 unknown #
vertex $-1 $525 $618 #
straight-curve $-1 -71.794183172093881 -43.925980554088596 0 0 0 -1 I I #
edge $-1 $523 -43.925980554088596 $527 43.925980554088596 $521 $619 forward 7 unknown #
straight-curve $-1 0 -43.925980554088596 -17.770805261975912 -1 0 0 I I #
vertex $-1 $364 $620 #
straight-curve $-1 0 43.925980554088596 -17.770805261975912 1 0 0 I I #
point $-1 71.794183172093881 43.925980554088596 -17.770805261975912 #
point $-1 71.794183172093881 -43.925980554088596 -17.770805261975912 #
straight-curve $-1 -71.794183172093881 0 17.770805261975912 0 -1 0 I I #
point $-1 -71.794183172093881 43.925980554088596 17.770805261975912 #
point $-1 -71.794183172093881 -43.925980554088596 17.770805261975912 #
straight-curve $-1 71.794183172093881 -43.925980554088596 0 0 0 -1 I I #
straight-curve $-1 71.794183172093881 43.925980554088596 0 0 0 -1 I I #
plane-surface $-1 71.794183172093881 0 0 -1 0 0 0 0 1 forward_v I I I I #
coedge $-1 $540 $384 $395 $549 forward $240 $-1 #
coedge $-1 $384 $540 $398 $551 reversed $240 $-1 #
straight-curve $-1 71.794183172093881 -23.584772871292049 -6.1954842365848535 0 0 1 I I #
coedge $-1 $538 $537 $387 $541 forward $240 $-1 #
edge $-1 $544 6.7070845149468887 $542 27.048292197743436 $540 $621 forward 7 unknown #
vertex $-1 $389 $622 #
straight-curve $-1 0 -43.925980554088596 -16.672459672872726 1 0 0 I I #
vertex $-1 $541 $623 #
straight-curve $-1 0 -23.584772871292049 -16.672459672872726 1 0 0 I I #
point $-1 71.794183172093881 -43.925980554088596 -16.672459672872726 #
point $-1 71.794183172093881 -23.584772871292049 -16.672459672872726 #
straight-curve $-1 -71.794183172093881 -16.877688356345161 -8.1094772734666876 0 1 0 I I #
edge $-1 $396 1.9139930368818341 $544 10.476975436287873 $537 $624 forward 7 unknown #
point $-1 -71.794183172093881 -23.584772871292049 -8.1094772734666876 #
edge $-1 $400 8.1094772734666876 $542 16.672459672872726 $538 $625 forward 7 unknown #
point $-1 -71.794183172093881 -43.925980554088596 -8.1094772734666876 #
straight-curve $-1 71.794183172093881 -43.925980554088596 0 0 0 -1 I I #
plane-surface $-1 0 43.925980554088596 0 0 -1 0 0 0 -1 forward_v I I I I #
coedge $-1 $409 $564 $411 $558 forward $406 $-1 #
vertex $-1 $558 $626 #
straight-curve $-1 -71.794183172093881 23.584772871292046 -6.1954842365848535 0 0 1 I I #
edge $-1 $560 -27.048292197743436 $556 -6.7070845149468852 $555 $627 forward 7 unknown #
straight-curve $-1 0 23.584772871292046 -16.672459672872726 -1 0 0 I I #
vertex $-1 $414 $628 #
straight-curve $-1 0 43.925980554088596 -16.672459672872726 -1 0 0 I I #
point $-1 71.794183172093881 23.584772871292046 -16.672459672872726 #
point $-1 71.794183172093881 43.925980554088596 -16.672459672872726 #
coedge $-1 $555 $418 $421 $566 forward $406 $-1 #
straight-curve $-1 -71.794183172093881 16.877688356345161 -8.1094772734666876 0 1 0 I I #
edge $-1 $423 8.1094772734666876 $560 16.672459672872726 $421 $629 forward 7 unknown #
point $-1 -71.794183172093881 43.925980554088596 -8.1094772734666876 #
point $-1 -71.794183172093881 23.584772871292046 -8.1094772734666876 #
straight-curve $-1 71.794183172093881 23.584772871292046 -6.1954842365848535 0 0 -1 I I #
straight-curve $-1 71.794183172093881 43.925980554088596 0 0 0 -1 I I #
coedge $-1 $443 $442 $435 $572 forward $432 $-1 #
edge $-1 $573 1.0796467965262764 $576 27.048132684881885 $571 $630 forward 7 unknown #
vertex $-1 $572 $631 #
straight-curve $-1 -71.794183172093881 -12.005277748744223 62.623308136881647 0 0 1 I I #
edge $-1 $576 -7.8443449500001456 $444 -0.47752064748801004 $443 $632 forward 7 unknown #
vertex $-1 $575 $633 #
straight-curve $-1 -71.794183172093895 -12.005277748744223 2.1673644733902933 -0.85716729658548041 0 -0.51503808176128008 I I #
point $-1 -71.794183172093881 -12.005277748744223 2.1673644733903017 #
point $-1 -45.825697283738272 -4.6384534462320879 17.770805261975912 #
straight-curve $-1 -71.794183172093881 0 17.770805261975912 0 -1 0 I I #
vertex $-1 $450 $634 #
point $-1 -55.01268899866448 -8.3218655974881557 6.5618036728007585 #
edge $-1 $584 1.0796467965262764 $587 27.048132684881885 $455 $635 forward 7 unknown #
vertex $-1 $583 $636 #
straight-curve $-1 -71.794183172093881 4.6384534462320737 62.623308136881647 0 0 1 I I #
edge $-1 $587 0.47752064748800294 $466 7.8443449500001385 $465 $637 forward 7 unknown #
vertex $-1 $586 $638 #
straight-curve $-1 -71.794183172093895 4.6384534462320737 2.1673644733902933 -0.85716729658548041 0 -0.51503808176128008 I I #
point $-1 -71.794183172093881 4.6384534462320737 2.1673644733903017 #
point $-1 -45.825697283738272 12.005277748744209 17.770805261975912 #
straight-curve $-1 -71.794183172093881 0 17.770805261975912 0 -1 0 I I #
vertex $-1 $472 $639 #
point $-1 -55.01268899866448 8.3218655974881415 6.5618036728007585 #
edge $-1 $595 -60.459979103660238 $598 -34.491493215304651 $477 $640 forward 7 unknown #
vertex $-1 $481 $641 #
straight-curve $-1 71.794183172093881 -4.6384534462320879 99.600046519454864 0 0 1 I I #
edge $-1 $598 0.47752064748801004 $488 7.8443449500001456 $487 $642 forward 7 unknown #
vertex $-1 $597 $643 #
straight-curve $-1 -51.285068628279134 -4.6384534462320879 76.120841238536727 0.85716729658548041 0 -0.51503808176128008 I I #
point $-1 71.794183172093867 -4.6384534462320879 2.1673644733903075 #
point $-1 45.825697283738293 -12.005277748744223 17.770805261975909 #
straight-curve $-1 71.794183172093881 0 17.770805261975912 0 1 0 I I #
vertex $-1 $494 $644 #
point $-1 57.58419088842092 -8.3218655974881557 5.0166894275169218 #
coedge $-1 $509 $508 $501 $606 forward $498 $-1 #
edge $-1 $607 -60.459979103660238 $610 -34.491493215304651 $605 $645 forward 7 unknown #
vertex $-1 $606 $646 #
straight-curve $-1 71.794183172093881 12.005277748744209 99.600046519454864 0 0 1 I I #
edge $-1 $610 -7.8443449500001385 $510 -0.47752064748800294 $509 $647 forward 7 unknown #
vertex $-1 $609 $648 #
straight-curve $-1 -51.285068628279134 12.005277748744209 76.120841238536727 0.85716729658548041 0 -0.51503808176128008 I I #
point $-1 71.794183172093867 12.005277748744209 2.1673644733903075 #
point $-1 45.825697283738293 4.6384534462320737 17.770805261975909 #
straight-curve $-1 71.794183172093881 0 17.770805261975912 0 1 0 I I #
vertex $-1 $516 $649 #
point $-1 57.58419088842092 8.3218655974881415 5.0166894275169218 #
straight-curve $-1 -71.794183172093881 43.925980554088596 0 0 0 -1 I I #
point $-1 -71.794183172093881 -43.925980554088596 -17.770805261975912 #
straight-curve $-1 -71.794183172093881 0 -17.770805261975912 0 1 0 I I #
point $-1 -71.794183172093881 43.925980554088596 -17.770805261975912 #
straight-curve $-1 -71.794183172093881 -16.877688356345161 -16.672459672872726 0 -1 0 I I #
point $-1 -71.794183172093881 -43.925980554088596 -16.672459672872726 #
point $-1 -71.794183172093881 -23.584772871292049 -16.672459672872726 #
straight-curve $-1 -71.794183172093881 -23.584772871292049 -6.1954842365848535 0 0 -1 I I #
straight-curve $-1 -71.794183172093881 -43.925980554088596 0 0 0 -1 I I #
point $-1 -71.794183172093881 23.584772871292046 -16.672459672872726 #
straight-curve $-1 -71.794183172093881 16.877688356345161 -16.672459672872726 0 -1 0 I I #
point $-1 -71.794183172093881 43.925980554088596 -16.672459672872726 #
straight-curve $-1 -71.794183172093881 43.925980554088596 0 0 0 -1 I I #
straight-curve $-1 -72.873829968620157 -12.005277748744223 17.770805261975909 1 0 0 I I #
point $-1 -71.794183172093881 -12.005277748744223 17.770805261975912 #
straight-curve $-1 -45.825697283738272 -4.1609327987440778 17.770805261975912 0 1 0 I I #
point $-1 -45.825697283738272 -12.005277748744223 17.770805261975912 #
point $-1 -55.525882820900783 -8.3218655974881557 4.5034956052806177 #
straight-curve $-1 -72.873829968620157 4.6384534462320737 17.770805261975909 1 0 0 I I #
point $-1 -71.794183172093881 4.6384534462320737 17.770805261975912 #
straight-curve $-1 -45.825697283738272 4.1609327987440707 17.770805261975912 0 1 0 I I #
point $-1 -45.825697283738272 4.6384534462320737 17.770805261975912 #
point $-1 -55.525882820900783 8.3218655974881415 4.5034956052806177 #
straight-curve $-1 11.334204068433642 -4.6384534462320879 17.770805261975909 -1 0 0 I I #
point $-1 71.794183172093881 -4.6384534462320879 17.770805261975912 #
straight-curve $-1 45.825697283738307 -4.1609327987440778 17.770805261975909 0 -1 0 I I #
point $-1 45.825697283738293 -4.6384534462320879 17.770805261975909 #
point $-1 55.525882820900783 -8.3218655974881557 4.5034956052806212 #
straight-curve $-1 11.334204068433642 12.005277748744209 17.770805261975909 -1 0 0 I I #
point $-1 71.794183172093881 12.005277748744209 17.770805261975912 #
straight-curve $-1 45.825697283738307 4.1609327987440707 17.770805261975909 0 -1 0 I I #
point $-1 45.825697283738293 12.005277748744209 17.770805261975909 #
point $-1 55.525882820900783 8.3218655974881415 4.5034956052806212 #
End-of-ACIS-data 