500 0 8 0           
7 Unknown 11 ACIS 5.0 NT 24 Thu Mar 25 22:18:21 1999 
-1 9.9999999999999995e-007 1e-010 
body $-1 $8 $-1 $9 #
body $-1 $10 $-1 $11 #
body $-1 $12 $-1 $13 #
body $-1 $14 $-1 $15 #
body $-1 $16 $-1 $17 #
body $-1 $18 $-1 $19 #
body $-1 $20 $-1 $21 #
body $-1 $22 $-1 $23 #
lump $-1 $-1 $24 $0 #
transform $-1 1 0 0 0 1 0 0 0 1 58.126773888363289 24.940389786329725 7.5457485343405555 1 rotate no_reflect no_shear #
lump $-1 $-1 $25 $1 #
transform $-1 1 0 0 0 1 0 0 0 1 58.126773888363289 24.940389786329725 7.5457485343405555 1 rotate no_reflect no_shear #
lump $-1 $-1 $26 $2 #
transform $-1 1 0 0 0 1 0 0 0 1 58.126773888363289 24.940389786329725 7.5457485343405555 1 rotate no_reflect no_shear #
lump $-1 $-1 $27 $3 #
transform $-1 1 0 0 0 1 0 0 0 1 58.126773888363289 24.940389786329725 7.5457485343405555 1 rotate no_reflect no_shear #
lump $-1 $-1 $28 $4 #
transform $-1 1 0 0 0 1 0 0 0 1 58.126773888363289 24.940389786329725 7.5457485343405555 1 rotate no_reflect no_shear #
lump $-1 $-1 $29 $5 #
transform $-1 1 0 0 0 1 0 0 0 1 58.126773888363289 24.940389786329725 7.5457485343405555 1 rotate no_reflect no_shear #
lump $-1 $-1 $30 $6 #
transform $-1 1 0 0 0 1 0 0 0 1 58.126773888363289 24.940389786329725 7.5457485343405555 1 rotate no_reflect no_shear #
lump $-1 $-1 $31 $7 #
transform $-1 1 0 0 0 1 0 0 0 1 58.126773888363289 24.940389786329725 7.5457485343405555 1 rotate no_reflect no_shear #
shell $-1 $-1 $-1 $32 $-1 $8 #
shell $-1 $-1 $-1 $33 $-1 $10 #
shell $-1 $-1 $-1 $34 $-1 $12 #
shell $-1 $-1 $-1 $35 $-1 $14 #
shell $-1 $-1 $-1 $36 $-1 $16 #
shell $-1 $-1 $-1 $37 $-1 $18 #
shell $-1 $-1 $-1 $38 $-1 $20 #
shell $-1 $-1 $-1 $39 $-1 $22 #
face $-1 $40 $41 $24 $-1 $42 forward single #
face $-1 $43 $44 $25 $-1 $45 reversed single #
face $-1 $46 $47 $26 $-1 $48 reversed single #
face $-1 $49 $50 $27 $-1 $51 forward single #
face $-1 $52 $53 $28 $-1 $54 forward single #
face $-1 $55 $56 $29 $-1 $57 reversed single #
face $-1 $58 $59 $30 $-1 $60 forward single #
face $-1 $61 $62 $31 $-1 $63 forward single #
face $-1 $64 $65 $24 $-1 $66 reversed single #
loop $-1 $-1 $67 $32 #
plane-surface $-1 0 0 7.5457485343405555 0 0 1 1 0 0 forward_v I I I I #
face $-1 $68 $69 $25 $-1 $70 reversed single #
loop $-1 $-1 $71 $33 #
plane-surface $-1 -54.80355410857829 0 4.5457485343405555 0 0 1 1 0 0 forward_v I I I I #
face $-1 $72 $73 $26 $-1 $74 reversed single #
loop $-1 $-1 $75 $34 #
plane-surface $-1 -31.855286469690046 -101.20958038492415 90.203859218949546 -1 0 0 0 -0.6560590369687036 0.75470957328743171 forward_v I I I I #
face $-1 $76 $77 $27 $-1 $78 forward single #
loop $-1 $79 $80 $35 #
cone-surface $-1 -45.873177797620933 -21.048692060140858 3.8900929664179937 0 0.6560590369687036 -0.75470957328743171 1.5 0 0 1 I I 0 1 1.5 forward I I I I #
face $-1 $81 $82 $28 $-1 $83 forward single #
loop $-1 $84 $85 $36 #
cone-surface $-1 -37.4624430008624 -21.048692060140858 3.8900929664179937 0 0.6560590369687036 -0.75470957328743171 1.5 0 0 1 I I 0 1 1.5 forward I I I I #
face $-1 $86 $87 $29 $-1 $88 reversed single #
loop $-1 $-1 $89 $37 #
plane-surface $-1 -7.3905898473889664 91.559282838802204 110.85601031569405 1 0 0 0 -0.81915205242281985 -0.57357642473473569 forward_v I I I I #
face $-1 $90 $91 $30 $-1 $92 forward single #
loop $-1 $93 $94 $38 #
cone-surface $-1 -3.3162287694703281 22.604545922160963 4.8321439004833806 0 -0.81915205242281985 -0.57357642473473569 1 0 0 1 I I 0 1 1 forward I I I I #
face $-1 $95 $96 $31 $-1 $97 forward single #
loop $-1 $98 $99 $39 #
cone-surface $-1 2.7953128474076294 22.604545922160963 4.8321439004833806 0 -0.81915205242281985 -0.57357642473473569 1 0 0 1 I I 0 1 1 forward I I I I #
face $-1 $100 $101 $24 $-1 $102 reversed single #
loop $-1 $-1 $103 $40 #
plane-surface $-1 0 0 -7.5457485343405555 0 0 1 1 0 0 forward_v I I I I #
coedge $-1 $104 $105 $106 $107 forward $41 $-1 #
face $-1 $108 $109 $25 $-1 $110 reversed single #
loop $-1 $-1 $111 $43 #
plane-surface $-1 -51.48033432879329 0 6.0457485343405555 -1 0 0 0 0 1 forward_v I I I I #
coedge $-1 $112 $113 $111 $114 forward $44 $-1 #
face $-1 $115 $116 $26 $-1 $117 forward single #
loop $-1 $-1 $118 $46 #
plane-surface $-1 -41.667810399241667 -24.940389786329746 2.4661937832261742 0 -0.6560590369687036 0.75470957328743171 1 0 0 forward_v I I I I #
coedge $-1 $119 $120 $121 $122 reversed $47 $-1 #
face $-1 $-1 $123 $27 $-1 $124 forward single #
loop $-1 $125 $126 $49 #
cone-surface $-1 -45.873177797620933 -19.586629648062679 2.208182594087047 0 0.6560590369687036 -0.75470957328743171 0.75 0 0 1 I I -0.70710678118654757 0.70710678118654757 0.75 forward I I I I #
loop $-1 $-1 $127 $35 #
coedge $-1 $80 $80 $128 $129 reversed $50 $-1 #
face $-1 $-1 $130 $28 $-1 $131 forward single #
loop $-1 $132 $133 $52 #
cone-surface $-1 -37.4624430008624 -19.586629648062679 2.208182594087047 0 0.6560590369687036 -0.75470957328743171 0.75 0 0 1 I I -0.70710678118654757 0.70710678118654757 0.75 forward I I I I #
loop $-1 $-1 $134 $36 #
coedge $-1 $85 $85 $135 $136 reversed $53 $-1 #
face $-1 $137 $138 $29 $-1 $139 reversed single #
loop $-1 $-1 $140 $55 #
plane-surface $-1 -0.26045796103134933 -3.6700494239377122 44.175716019190432 0 0.81915205242281985 0.57357642473473569 1 0 0 forward_v I I I I #
coedge $-1 $141 $142 $143 $144 reversed $56 $-1 #
face $-1 $-1 $145 $30 $-1 $146 forward single #
loop $-1 $147 $148 $58 #
cone-surface $-1 -3.3162287694703281 21.340056345342866 3.946738793531031 0 -0.81915205242281985 -0.57357642473473569 0.5 0 0 1 I I -0.70710678118654724 0.70710678118654791 0.5 forward I I I I #
loop $-1 $-1 $149 $38 #
coedge $-1 $94 $94 $150 $151 reversed $59 $-1 #
face $-1 $-1 $152 $31 $-1 $153 forward single #
loop $-1 $154 $155 $61 #
cone-surface $-1 2.7953128474076294 21.340056345342866 3.946738793531031 0 -0.81915205242281985 -0.57357642473473569 0.5 0 0 1 I I -0.70710678118654724 0.70710678118654791 0.5 forward I I I I #
loop $-1 $-1 $156 $39 #
coedge $-1 $99 $99 $157 $158 reversed $62 $-1 #
face $-1 $159 $160 $24 $-1 $161 reversed single #
loop $-1 $-1 $162 $64 #
plane-surface $-1 0 -24.940389786329725 0 0 1 0 0 0 1 forward_v I I I I #
coedge $-1 $163 $164 $165 $166 forward $65 $-1 #
coedge $-1 $167 $67 $168 $169 forward $41 $-1 #
coedge $-1 $67 $167 $170 $171 forward $41 $-1 #
coedge $-1 $172 $173 $67 $107 reversed $174 $-1 #
edge $-1 $175 -24.940389786329725 $176 24.940389786329725 $106 $177 forward 7 unknown #
face $-1 $178 $179 $25 $-1 $180 reversed single #
loop $-1 $-1 $181 $68 #
plane-surface $-1 0 24.940389786329725 0 0 -1 0 0 0 -1 forward_v I I I I #
coedge $-1 $182 $183 $71 $114 reversed $69 $-1 #
coedge $-1 $184 $71 $185 $186 reversed $44 $-1 #
coedge $-1 $71 $184 $187 $188 reversed $44 $-1 #
edge $-1 $189 -24.940389786329725 $190 24.940389786329725 $111 $191 forward 7 unknown #
face $-1 $192 $193 $26 $-1 $194 forward single #
loop $-1 $-1 $195 $72 #
plane-surface $-1 -51.48033432879329 0 6.0457485343405555 -1 0 0 0 0 1 forward_v I I I I #
coedge $-1 $196 $197 $198 $199 reversed $73 $-1 #
coedge $-1 $120 $75 $200 $201 reversed $47 $-1 #
coedge $-1 $75 $119 $196 $202 reversed $47 $-1 #
coedge $-1 $198 $203 $75 $122 forward $193 $-1 #
edge $-1 $204 25.664400406132351 $205 31.507759589806767 $121 $206 forward 7 unknown #
loop $-1 $-1 $128 $76 #
plane-surface $-1 -41.667810399241667 -24.940389786329746 2.4661937832261742 0 -0.6560590369687036 0.75470957328743171 1 0 0 forward_v I I I I #
loop $-1 $-1 $207 $49 #
coedge $-1 $126 $126 $127 $208 reversed $77 $-1 #
coedge $-1 $127 $127 $126 $208 forward $79 $-1 #
coedge $-1 $128 $128 $80 $129 forward $123 $-1 #
edge $-1 $209 1.8663491769708003e-015 $209 6.2831853071796022 $128 $210 forward 7 unknown #
loop $-1 $-1 $135 $81 #
plane-surface $-1 -41.667810399241667 -24.940389786329746 2.4661937832261742 0 -0.6560590369687036 0.75470957328743171 1 0 0 forward_v I I I I #
loop $-1 $-1 $211 $52 #
coedge $-1 $133 $133 $134 $212 reversed $82 $-1 #
coedge $-1 $134 $134 $133 $212 forward $84 $-1 #
coedge $-1 $135 $135 $85 $136 forward $130 $-1 #
edge $-1 $213 1.8663491769708003e-015 $213 6.2831853071796022 $135 $214 forward 7 unknown #
face $-1 $215 $216 $29 $-1 $217 forward single #
loop $-1 $-1 $218 $86 #
plane-surface $-1 6.8696739253262677 91.559282838802204 110.85601031569405 -1 0 0 0 0.81915205242281985 0.57357642473473569 forward_v I I I I #
coedge $-1 $219 $220 $221 $222 reversed $87 $-1 #
coedge $-1 $142 $89 $223 $224 reversed $56 $-1 #
coedge $-1 $89 $141 $219 $225 reversed $56 $-1 #
coedge $-1 $221 $226 $89 $144 forward $216 $-1 #
edge $-1 $227 20.839251633071378 $228 23.80111226019552 $143 $229 forward 7 unknown #
loop $-1 $-1 $150 $90 #
plane-surface $-1 -0.26045796103134933 -3.6700494239377122 44.175716019190432 0 0.81915205242281985 0.57357642473473569 1 0 0 forward_v I I I I #
loop $-1 $-1 $230 $58 #
coedge $-1 $148 $148 $149 $231 reversed $91 $-1 #
coedge $-1 $149 $149 $148 $231 forward $93 $-1 #
coedge $-1 $150 $150 $94 $151 forward $145 $-1 #
edge $-1 $232 1.0173666079199377e-015 $232 6.2831853071796013 $150 $233 forward 7 unknown #
loop $-1 $-1 $157 $95 #
plane-surface $-1 -0.26045796103134933 -3.6700494239377122 44.175716019190432 0 0.81915205242281985 0.57357642473473569 1 0 0 forward_v I I I I #
loop $-1 $-1 $234 $61 #
coedge $-1 $155 $155 $156 $235 reversed $96 $-1 #
coedge $-1 $156 $156 $155 $235 forward $98 $-1 #
coedge $-1 $157 $157 $99 $158 forward $152 $-1 #
edge $-1 $236 1.0173666079199377e-015 $236 6.2831853071796013 $157 $237 forward 7 unknown #
face $-1 $238 $239 $24 $-1 $240 reversed single #
loop $-1 $-1 $241 $100 #
plane-surface $-1 -58.126773888363289 0 0 1 0 0 0 0 -1 forward_v I I I I #
coedge $-1 $242 $170 $243 $244 forward $101 $-1 #
coedge $-1 $245 $103 $242 $246 forward $65 $-1 #
coedge $-1 $103 $245 $247 $248 forward $65 $-1 #
coedge $-1 $173 $172 $103 $166 reversed $174 $-1 #
edge $-1 $249 -24.940389786329725 $250 24.940389786329725 $165 $251 forward 7 unknown #
coedge $-1 $105 $104 $252 $253 forward $41 $-1 #
coedge $-1 $254 $255 $104 $169 reversed $239 $-1 #
edge $-1 $176 -58.126773888363289 $256 58.126773888363289 $168 $257 forward 7 unknown #
coedge $-1 $162 $258 $105 $171 reversed $101 $-1 #
edge $-1 $259 -58.126773888363289 $175 58.126773888363289 $170 $260 forward 7 unknown #
coedge $-1 $165 $106 $258 $261 forward $174 $-1 #
coedge $-1 $106 $165 $254 $262 reversed $174 $-1 #
loop $-1 $-1 $172 $238 #
vertex $-1 $107 $263 #
vertex $-1 $107 $264 #
straight-curve $-1 58.126773888363289 0 7.5457485343405555 0 1 0 I I #
face $-1 $265 $266 $25 $-1 $267 forward single #
loop $-1 $-1 $268 $108 #
plane-surface $-1 -58.126773888363289 0 0 1 0 0 0 0 -1 forward_v I I I I #
coedge $-1 $187 $269 $182 $270 forward $109 $-1 #
coedge $-1 $271 $111 $181 $270 reversed $69 $-1 #
coedge $-1 $111 $271 $272 $273 reversed $69 $-1 #
coedge $-1 $113 $112 $268 $274 reversed $44 $-1 #
coedge $-1 $272 $275 $112 $186 forward $276 $-1 #
edge $-1 $277 -30.724996834074144 $190 -24.078557274504146 $185 $278 forward 7 unknown #
coedge $-1 $279 $181 $113 $188 forward $109 $-1 #
edge $-1 $189 24.078557274504146 $280 30.724996834074144 $187 $281 forward 7 unknown #
vertex $-1 $188 $282 #
vertex $-1 $186 $283 #
straight-curve $-1 -51.48033432879329 0 4.5457485343405555 0 -1 0 I I #
face $-1 $-1 $284 $26 $-1 $285 reversed single #
loop $-1 $-1 $198 $115 #
plane-surface $-1 0 0 7.5457485343405555 0 0 1 1 0 0 forward_v I I I I #
coedge $-1 $286 $287 $197 $288 reversed $116 $-1 #
coedge $-1 $289 $118 $120 $202 forward $73 $-1 #
coedge $-1 $118 $289 $195 $288 forward $73 $-1 #
coedge $-1 $290 $121 $118 $199 forward $193 $-1 #
edge $-1 $205 11.021381270069213 $291 30.646429129172457 $198 $292 forward 7 unknown #
coedge $-1 $293 $294 $119 $201 forward $284 $-1 #
edge $-1 $295 -42.635735826248577 $204 -37.556181075134219 $200 $296 forward 7 unknown #
edge $-1 $205 -7.742526914322033 $295 -2.8324249199621518e-014 $120 $297 forward 7 unknown #
coedge $-1 $121 $290 $293 $298 forward $193 $-1 #
vertex $-1 $201 $299 #
vertex $-1 $122 $300 #
straight-curve $-1 -31.855286469690046 -50.604790192462076 7.5457485343405537 0 1 0 I I #
coedge $-1 $207 $207 $-1 $301 reversed $125 $-1 #
edge $-1 $302 0 $302 6.2831853071796004 $126 $303 forward 7 unknown #
vertex $-1 $129 $304 #
ellipse-curve $-1 -45.873177797620933 -22.018710194492517 5.0059711587833746 0 -0.6560590369687036 0.75470957328743171 1.5 0 0 1 I I #
coedge $-1 $211 $211 $-1 $305 reversed $132 $-1 #
edge $-1 $306 0 $306 6.2831853071796004 $133 $307 forward 7 unknown #
vertex $-1 $136 $308 #
ellipse-curve $-1 -37.4624430008624 -22.018710194492517 5.0059711587833746 0 -0.6560590369687036 0.75470957328743171 1.5 0 0 1 I I #
face $-1 $-1 $309 $29 $-1 $310 reversed single #
loop $-1 $-1 $143 $137 #
plane-surface $-1 0 0 7.5457485343405555 0 0 1 1 0 0 forward_v I I I I #
coedge $-1 $311 $312 $313 $314 reversed $138 $-1 #
coedge $-1 $315 $140 $142 $225 forward $87 $-1 #
coedge $-1 $140 $315 $311 $316 forward $87 $-1 #
coedge $-1 $313 $143 $140 $222 forward $216 $-1 #
edge $-1 $228 -7.2603608668732917 $317 6.9999029058419424 $221 $318 forward 7 unknown #
coedge $-1 $319 $320 $141 $224 forward $309 $-1 #
edge $-1 $321 -52.112232102050839 $227 -47.882256623506471 $223 $322 forward 7 unknown #
edge $-1 $228 44.716933048643178 $321 49.880779572659442 $142 $323 forward 7 unknown #
coedge $-1 $143 $313 $319 $324 forward $216 $-1 #
vertex $-1 $224 $325 #
vertex $-1 $144 $326 #
straight-curve $-1 -7.3905898473889664 45.779641419401102 7.5457485343405537 0 -1 0 I I #
coedge $-1 $230 $230 $-1 $327 reversed $147 $-1 #
edge $-1 $328 0 $328 6.2831853071796004 $148 $329 forward 7 unknown #
vertex $-1 $151 $330 #
ellipse-curve $-1 -3.3162287694703281 23.459459472767659 5.4307607950683687 0 0.81915205242281985 0.57357642473473569 1 0 0 1 I I #
coedge $-1 $234 $234 $-1 $331 reversed $154 $-1 #
edge $-1 $332 0 $332 6.2831853071796004 $155 $333 forward 7 unknown #
vertex $-1 $158 $334 #
ellipse-curve $-1 2.7953128474076294 23.459459472767659 5.4307607950683687 0 0.81915205242281985 0.57357642473473569 1 0 0 1 I I #
face $-1 $-1 $174 $24 $-1 $335 reversed single #
loop $-1 $-1 $254 $159 #
plane-surface $-1 0 24.940389786329725 0 0 -1 0 0 0 -1 forward_v I I I I #
coedge $-1 $336 $252 $255 $337 forward $160 $-1 #
coedge $-1 $258 $162 $163 $246 reversed $101 $-1 #
coedge $-1 $252 $336 $162 $244 reversed $160 $-1 #
edge $-1 $259 -7.5457485343405555 $338 7.5457485343405555 $243 $339 forward 7 unknown #
coedge $-1 $164 $163 $336 $340 forward $65 $-1 #
edge $-1 $250 -58.126773888363289 $338 58.126773888363289 $242 $341 forward 7 unknown #
coedge $-1 $255 $254 $164 $248 reversed $239 $-1 #
edge $-1 $342 -58.126773888363289 $249 58.126773888363289 $247 $343 forward 7 unknown #
vertex $-1 $166 $344 #
vertex $-1 $261 $345 #
straight-curve $-1 58.126773888363289 0 -7.5457485343405555 0 -1 0 I I #
coedge $-1 $241 $243 $167 $253 reversed $160 $-1 #
edge $-1 $256 -24.940389786329725 $259 24.940389786329725 $252 $346 forward 7 unknown #
coedge $-1 $247 $168 $173 $262 forward $239 $-1 #
coedge $-1 $168 $247 $241 $337 reversed $239 $-1 #
vertex $-1 $169 $347 #
straight-curve $-1 0 24.940389786329725 7.5457485343405555 -1 0 0 I I #
coedge $-1 $170 $242 $172 $261 reversed $101 $-1 #
vertex $-1 $253 $348 #
straight-curve $-1 0 -24.940389786329725 7.5457485343405555 1 0 0 I I #
edge $-1 $175 -7.5457485343405555 $250 7.5457485343405555 $172 $349 forward 7 unknown #
edge $-1 $176 -7.5457485343405555 $249 7.5457485343405555 $173 $350 forward 7 unknown #
point $-1 58.126773888363289 -24.940389786329725 7.5457485343405555 #
point $-1 58.126773888363289 24.940389786329725 7.5457485343405555 #
face $-1 $-1 $276 $25 $-1 $351 reversed single #
loop $-1 $-1 $352 $178 #
plane-surface $-1 0 0 7.5457485343405555 0 0 1 1 0 0 forward_v I I I I #
coedge $-1 $353 $354 $184 $274 forward $179 $-1 #
coedge $-1 $181 $279 $355 $356 reversed $109 $-1 #
edge $-1 $357 -4.5228742671702777 $189 -1.5228742671702777 $181 $358 forward 7 unknown #
coedge $-1 $183 $182 $352 $359 reversed $69 $-1 #
coedge $-1 $360 $185 $183 $273 forward $276 $-1 #
edge $-1 $190 1.5228742671702777 $361 4.5228742671702777 $272 $362 forward 7 unknown #
edge $-1 $280 -24.940389786329725 $277 24.940389786329725 $268 $363 forward 7 unknown #
coedge $-1 $185 $360 $353 $364 forward $276 $-1 #
loop $-1 $-1 $272 $265 #
vertex $-1 $274 $365 #
straight-curve $-1 -27.401777054289145 -24.940389786329725 4.5457485343405555 1 0 0 I I #
coedge $-1 $269 $187 $354 $366 reversed $109 $-1 #
vertex $-1 $274 $367 #
straight-curve $-1 -27.401777054289145 24.940389786329725 4.5457485343405555 -1 0 0 I I #
point $-1 -51.48033432879329 24.940389786329725 4.5457485343405555 #
point $-1 -51.48033432879329 -24.940389786329725 4.5457485343405555 #
loop $-1 $-1 $200 $192 #
plane-surface $-1 0 -24.940389786329725 0 0 1 0 0 0 1 forward_v I I I I #
coedge $-1 $287 $195 $368 $369 reversed $116 $-1 #
coedge $-1 $195 $286 $290 $370 reversed $116 $-1 #
edge $-1 $371 2.8324249199621518e-014 $291 7.7425269143220365 $195 $372 forward 7 unknown #
coedge $-1 $197 $196 $294 $373 reversed $73 $-1 #
coedge $-1 $203 $198 $287 $370 forward $193 $-1 #
vertex $-1 $370 $374 #
straight-curve $-1 -20.833905199620833 -19.097030602655309 7.5457485343405555 -1 0 0 I I #
coedge $-1 $368 $200 $203 $298 reversed $284 $-1 #
coedge $-1 $200 $368 $289 $373 forward $284 $-1 #
vertex $-1 $201 $375 #
straight-curve $-1 -31.855286469690046 -24.940389786329725 45.101929609474773 0 0 1 I I #
straight-curve $-1 -31.855286469690046 -24.940389786329746 2.4661937832261742 0 -0.75470957328743171 -0.6560590369687036 I I #
edge $-1 $376 -51.48033432879329 $204 -31.855286469690046 $293 $377 forward 7 unknown #
point $-1 -31.855286469690046 -24.940389786329725 7.5457485343405555 #
point $-1 -31.855286469690046 -19.097030602655309 7.5457485343405555 #
edge $-1 $378 1 $378 0 $207 $-1 forward 7 unknown #
vertex $-1 $208 $379 #
ellipse-curve $-1 -45.873177797620933 -20.078673925789207 2.7742147740526208 0 -0.6560590369687036 0.75470957328743171 1.5 0 0 1 I I #
point $-1 -44.373177797620933 -22.018710194492506 5.0059711587833666 #
edge $-1 $380 1 $380 0 $211 $-1 forward 7 unknown #
vertex $-1 $212 $381 #
ellipse-curve $-1 -37.4624430008624 -20.078673925789207 2.7742147740526208 0 -0.6560590369687036 0.75470957328743171 1.5 0 0 1 I I #
point $-1 -35.9624430008624 -22.018710194492506 5.0059711587833666 #
loop $-1 $-1 $223 $215 #
plane-surface $-1 0 24.940389786329725 0 0 -1 0 0 0 -1 forward_v I I I I #
coedge $-1 $312 $218 $220 $316 reversed $138 $-1 #
coedge $-1 $218 $311 $382 $383 reversed $138 $-1 #
coedge $-1 $226 $221 $218 $314 forward $216 $-1 #
edge $-1 $317 -23.80111226019552 $384 -20.839251633071378 $313 $385 forward 7 unknown #
coedge $-1 $220 $219 $320 $386 reversed $87 $-1 #
edge $-1 $387 -49.880779572659442 $317 -44.716933048643178 $311 $388 forward 7 unknown #
vertex $-1 $222 $389 #
straight-curve $-1 -0.13022898051567466 21.978529159205586 7.5457485343405537 1 0 0 I I #
coedge $-1 $382 $223 $226 $324 reversed $309 $-1 #
coedge $-1 $223 $382 $315 $386 forward $309 $-1 #
vertex $-1 $224 $390 #
straight-curve $-1 -7.3905898473889664 24.940389786329725 55.428005157847025 0 0 1 I I #
straight-curve $-1 -7.3905898473889664 -3.6700494239377122 44.175716019190432 0 0.57357642473473569 -0.81915205242281985 I I #
edge $-1 $384 -6.8696739253262677 $227 7.3905898473889664 $319 $391 forward 7 unknown #
point $-1 -7.3905898473889664 24.940389786329725 7.5457485343405555 #
point $-1 -7.3905898473889664 21.978529159205582 7.5457485343405537 #
edge $-1 $392 1 $392 0 $230 $-1 forward 7 unknown #
vertex $-1 $231 $393 #
ellipse-curve $-1 -3.3162287694703281 21.749632371554277 4.2335270058983987 0 0.81915205242281985 0.57357642473473569 1 0 0 1 I I #
point $-1 -2.3162287694703281 23.459459472767652 5.4307607950683625 #
edge $-1 $394 1 $394 0 $234 $-1 forward 7 unknown #
vertex $-1 $235 $395 #
ellipse-curve $-1 2.7953128474076294 21.749632371554277 4.2335270058983987 0 0.81915205242281985 0.57357642473473569 1 0 0 1 I I #
point $-1 3.7953128474076294 23.459459472767652 5.4307607950683625 #
plane-surface $-1 58.126773888363289 0 0 -1 0 0 0 0 1 forward_v I I I I #
coedge $-1 $243 $241 $245 $340 reversed $160 $-1 #
edge $-1 $256 -7.5457485343405555 $342 7.5457485343405555 $255 $396 forward 7 unknown #
vertex $-1 $340 $397 #
straight-curve $-1 -58.126773888363289 -24.940389786329725 0 0 0 -1 I I #
edge $-1 $338 -24.940389786329725 $342 24.940389786329725 $336 $398 forward 7 unknown #
straight-curve $-1 0 -24.940389786329725 -7.5457485343405555 -1 0 0 I I #
vertex $-1 $248 $399 #
straight-curve $-1 0 24.940389786329725 -7.5457485343405555 1 0 0 I I #
point $-1 58.126773888363289 24.940389786329725 -7.5457485343405555 #
point $-1 58.126773888363289 -24.940389786329725 -7.5457485343405555 #
straight-curve $-1 -58.126773888363289 0 7.5457485343405555 0 -1 0 I I #
point $-1 -58.126773888363289 24.940389786329725 7.5457485343405555 #
point $-1 -58.126773888363289 -24.940389786329725 7.5457485343405555 #
straight-curve $-1 58.126773888363289 -24.940389786329725 0 0 0 -1 I I #
straight-curve $-1 58.126773888363289 24.940389786329725 0 0 0 -1 I I #
plane-surface $-1 0 -24.940389786329725 0 0 1 0 0 0 1 forward_v I I I I #
coedge $-1 $355 $400 $271 $359 forward $266 $-1 #
coedge $-1 $401 $268 $275 $364 reversed $179 $-1 #
coedge $-1 $268 $401 $279 $366 forward $179 $-1 #
coedge $-1 $402 $352 $269 $356 forward $266 $-1 #
edge $-1 $357 51.48033432879329 $403 58.126773888363289 $269 $404 forward 7 unknown #
vertex $-1 $356 $405 #
straight-curve $-1 -51.48033432879329 24.940389786329725 3.0228742671702777 0 0 -1 I I #
edge $-1 $361 -24.940389786329725 $357 24.940389786329725 $352 $406 forward 7 unknown #
coedge $-1 $275 $272 $400 $407 reversed $276 $-1 #
vertex $-1 $273 $408 #
straight-curve $-1 -51.48033432879329 -24.940389786329725 3.0228742671702777 0 0 1 I I #
straight-curve $-1 -58.126773888363289 0 4.5457485343405555 0 -1 0 I I #
edge $-1 $409 -7.5457485343405555 $277 -4.5457485343405555 $353 $410 forward 7 unknown #
point $-1 -58.126773888363289 -24.940389786329725 4.5457485343405555 #
edge $-1 $403 -7.5457485343405555 $280 -4.5457485343405555 $279 $411 forward 7 unknown #
point $-1 -58.126773888363289 24.940389786329725 4.5457485343405555 #
coedge $-1 $294 $293 $286 $369 forward $284 $-1 #
edge $-1 $376 37.556181075134219 $371 42.635735826248577 $368 $412 forward 7 unknown #
edge $-1 $291 19.097030602655305 $376 24.940389786329725 $290 $413 forward 7 unknown #
vertex $-1 $369 $414 #
straight-curve $-1 -51.48033432879329 -24.940389786329746 2.4661937832261742 0 0.75470957328743171 0.6560590369687036 I I #
edge $-1 $371 -30.646429129172457 $295 -11.021381270069213 $294 $415 forward 7 unknown #
point $-1 -51.48033432879329 -19.097030602655305 7.5457485343405555 #
point $-1 -31.855286469690046 -24.940389786329725 2.4661937832261929 #
vertex $-1 $298 $416 #
straight-curve $-1 0 -24.940389786329725 7.5457485343405555 1 0 0 I I #
vertex $-1 $301 $417 #
point $-1 -44.373177797620933 -20.078673925789207 2.7742147740526208 #
vertex $-1 $305 $418 #
point $-1 -35.9624430008624 -20.078673925789207 2.7742147740526208 #
coedge $-1 $320 $319 $312 $383 forward $309 $-1 #
edge $-1 $384 47.882256623506471 $387 52.112232102050839 $382 $419 forward 7 unknown #
vertex $-1 $324 $420 #
straight-curve $-1 6.8696739253262677 45.779641419401102 7.5457485343405537 0 1 0 I I #
edge $-1 $387 -6.9999029058419424 $321 7.2603608668732917 $320 $421 forward 7 unknown #
vertex $-1 $386 $422 #
straight-curve $-1 6.8696739253262677 -3.6700494239377122 44.175716019190432 0 -0.57357642473473569 0.81915205242281985 I I #
point $-1 6.8696739253262677 21.978529159205582 7.5457485343405537 #
point $-1 -7.3905898473889664 24.940389786329725 3.3157730557961855 #
straight-curve $-1 0 24.940389786329725 7.5457485343405555 -1 0 0 I I #
vertex $-1 $327 $423 #
point $-1 -2.3162287694703281 21.749632371554277 4.2335270058983987 #
vertex $-1 $331 $424 #
point $-1 3.7953128474076294 21.749632371554277 4.2335270058983987 #
straight-curve $-1 -58.126773888363289 24.940389786329725 0 0 0 -1 I I #
point $-1 -58.126773888363289 -24.940389786329725 -7.5457485343405555 #
straight-curve $-1 -58.126773888363289 0 -7.5457485343405555 0 1 0 I I #
point $-1 -58.126773888363289 24.940389786329725 -7.5457485343405555 #
coedge $-1 $352 $402 $360 $407 forward $266 $-1 #
coedge $-1 $354 $353 $402 $425 reversed $179 $-1 #
coedge $-1 $400 $355 $401 $425 forward $266 $-1 #
vertex $-1 $356 $426 #
straight-curve $-1 0 24.940389786329725 7.5457485343405555 -1 0 0 I I #
point $-1 -51.48033432879329 24.940389786329725 7.5457485343405555 #
straight-curve $-1 -51.48033432879329 0 7.5457485343405555 0 1 0 I I #
edge $-1 $409 -58.126773888363289 $361 -51.48033432879329 $360 $427 forward 7 unknown #
point $-1 -51.48033432879329 -24.940389786329725 7.5457485343405555 #
vertex $-1 $425 $428 #
straight-curve $-1 -58.126773888363289 -24.940389786329725 0 0 0 -1 I I #
straight-curve $-1 -58.126773888363289 24.940389786329725 0 0 0 -1 I I #
straight-curve $-1 -51.48033432879329 -24.940389786329725 45.101929609474773 0 0 -1 I I #
straight-curve $-1 -51.48033432879329 0 7.5457485343405555 0 -1 0 I I #
point $-1 -51.48033432879329 -24.940389786329725 2.4661937832261929 #
straight-curve $-1 -20.833905199620833 -24.940389786329725 2.4661937832261915 1 0 0 I I #
point $-1 -51.48033432879329 -24.940389786329725 7.5457485343405555 #
point $-1 -45.873177797620933 -19.094585370336151 1.6421504141214731 #
point $-1 -37.4624430008624 -19.094585370336151 1.6421504141214731 #
straight-curve $-1 6.8696739253262677 24.940389786329725 55.428005157847025 0 0 -1 I I #
point $-1 6.8696739253262677 24.940389786329725 7.5457485343405555 #
straight-curve $-1 -0.13022898051567466 24.940389786329725 3.3157730557961855 -1 0 0 I I #
point $-1 6.8696739253262677 24.940389786329725 3.3157730557961855 #
point $-1 -3.3162287694703281 20.930480319131455 3.6599505811636628 #
point $-1 2.7953128474076294 20.930480319131455 3.6599505811636628 #
edge $-1 $403 -24.940389786329725 $409 24.940389786329725 $401 $429 forward 7 unknown #
point $-1 -58.126773888363289 24.940389786329725 7.5457485343405555 #
straight-curve $-1 0 -24.940389786329725 7.5457485343405555 1 0 0 I I #
point $-1 -58.126773888363289 -24.940389786329725 7.5457485343405555 #
straight-curve $-1 -58.126773888363289 0 7.5457485343405555 0 -1 0 I I #
End-of-ACIS-data 