500 0 6 0           
7 Unknown 11 ACIS 5.0 NT 24 Fri Mar 26 15:30:24 1999 
-1 9.9999999999999995e-007 1e-010 
body $-1 $6 $-1 $7 #
body $-1 $8 $-1 $9 #
body $-1 $10 $-1 $11 #
body $-1 $12 $-1 $13 #
body $-1 $14 $-1 $15 #
body $-1 $16 $-1 $17 #
lump $-1 $-1 $18 $0 #
transform $-1 1 0 0 0 1 0 0 0 1 66.460768456068607 39.418474638588208 19.483676114584021 1 rotate no_reflect no_shear #
lump $-1 $-1 $19 $1 #
transform $-1 1 0 0 0 1 0 0 0 1 66.460768456068607 39.418474638588208 19.483676114584021 1 rotate no_reflect no_shear #
lump $-1 $-1 $20 $2 #
transform $-1 1 0 0 0 1 0 0 0 1 66.460768456068607 39.418474638588208 19.483676114584021 1 rotate no_reflect no_shear #
lump $-1 $-1 $21 $3 #
transform $-1 1 0 0 0 1 0 0 0 1 66.460768456068607 39.418474638588208 19.483676114584021 1 rotate no_reflect no_shear #
lump $-1 $-1 $22 $4 #
transform $-1 1 0 0 0 1 0 0 0 1 66.460768456068607 39.418474638588208 19.483676114584021 1 rotate no_reflect no_shear #
lump $-1 $-1 $23 $5 #
transform $-1 1 0 0 0 1 0 0 0 1 66.460768456068607 39.418474638588208 19.483676114584021 1 rotate no_reflect no_shear #
shell $-1 $-1 $-1 $24 $-1 $6 #
shell $-1 $-1 $-1 $25 $-1 $8 #
shell $-1 $-1 $-1 $26 $-1 $10 #
shell $-1 $-1 $-1 $27 $-1 $12 #
shell $-1 $-1 $-1 $28 $-1 $14 #
shell $-1 $-1 $-1 $29 $-1 $16 #
face $-1 $30 $31 $18 $-1 $32 forward single #
face $-1 $33 $34 $19 $-1 $35 forward single #
face $-1 $36 $37 $20 $-1 $38 reversed single #
face $-1 $39 $40 $21 $-1 $41 forward single #
face $-1 $42 $43 $22 $-1 $44 reversed single #
face $-1 $45 $46 $23 $-1 $47 forward single #
face $-1 $48 $49 $18 $-1 $50 reversed single #
loop $-1 $-1 $51 $24 #
plane-surface $-1 0 0 19.483676114584021 0 0 1 1 0 0 forward_v I I I I #
face $-1 $52 $53 $19 $-1 $54 reversed single #
loop $-1 $-1 $55 $25 #
plane-surface $-1 -59.82257113023455 0 -9.7162102475890002 0 0 1 1 0 0 forward_v I I I I #
face $-1 $56 $57 $20 $-1 $58 reversed single #
loop $-1 $-1 $59 $26 #
plane-surface $-1 -2.9410150177193657 -113.74725576430774 112.54119432210209 1 0 0 0 0.55919291073839883 -0.82903756765294845 forward_v I I I I #
face $-1 $60 $61 $21 $-1 $62 forward single #
loop $-1 $63 $64 $27 #
cone-surface $-1 9.2124587136829064 -22.780594552148102 5.0834113009602735 0 0.55919291073839883 -0.82903756765294845 5 0 0 1 I I 0 1 5 forward I I I I #
face $-1 $65 $66 $22 $-1 $67 reversed single #
loop $-1 $-1 $68 $28 #
plane-surface $-1 -2.9410150177193657 48.388463094378551 156.62625746214187 1 0 0 0 -0.55919291073839883 -0.82903756765294845 forward_v I I I I #
face $-1 $69 $70 $23 $-1 $71 forward single #
loop $-1 $72 $73 $29 #
cone-surface $-1 9.2124587136829064 22.78059455214812 5.0834113009602699 0 -0.55919291073839883 -0.82903756765294845 5 0 0 1 I I 0 1 5 forward I I I I #
face $-1 $74 $75 $18 $-1 $76 reversed single #
loop $-1 $-1 $77 $30 #
plane-surface $-1 0 0 -19.483676114584021 0 0 1 1 0 0 forward_v I I I I #
coedge $-1 $78 $79 $80 $81 forward $31 $-1 #
face $-1 $82 $83 $19 $-1 $84 reversed single #
loop $-1 $-1 $85 $33 #
plane-surface $-1 -53.184373804400494 0 -14.599943181086511 -1 0 0 0 0 1 forward_v I I I I #
coedge $-1 $86 $87 $88 $89 forward $34 $-1 #
face $-1 $90 $91 $20 $-1 $92 reversed single #
loop $-1 $-1 $93 $36 #
plane-surface $-1 9.2124587136829064 -39.418474638588208 2.3442466717722539 0 -0.55919291073839883 0.82903756765294845 1 0 0 forward_v I I I I #
coedge $-1 $94 $95 $96 $97 reversed $37 $-1 #
face $-1 $-1 $98 $21 $-1 $99 forward single #
loop $-1 $100 $101 $39 #
cone-surface $-1 9.2124587136829064 -17.449856505857628 -2.8197327103899639 0 0.55919291073839883 -0.82903756765294845 2.5 0 0 1 I I -0.70710678118654757 0.70710678118654735 2.5 forward I I I I #
loop $-1 $-1 $102 $27 #
coedge $-1 $64 $64 $103 $104 reversed $40 $-1 #
face $-1 $105 $106 $22 $-1 $107 reversed single #
loop $-1 $-1 $108 $42 #
plane-surface $-1 9.2124587136829064 -25.940318031340979 46.429309811812033 0 0.55919291073839883 0.82903756765294845 1 0 0 forward_v I I I I #
coedge $-1 $109 $110 $111 $112 reversed $43 $-1 #
face $-1 $-1 $113 $23 $-1 $114 forward single #
loop $-1 $115 $116 $45 #
cone-surface $-1 9.2124587136829064 17.449856505857646 -2.8197327103899674 0 -0.55919291073839883 -0.82903756765294845 2.5 0 0 1 I I -0.70710678118654757 0.70710678118654735 2.5 forward I I I I #
loop $-1 $-1 $117 $29 #
coedge $-1 $73 $73 $118 $119 reversed $46 $-1 #
face $-1 $120 $121 $18 $-1 $122 reversed single #
loop $-1 $-1 $123 $48 #
plane-surface $-1 0 -39.418474638588208 0 0 1 0 0 0 1 forward_v I I I I #
coedge $-1 $124 $125 $126 $127 forward $49 $-1 #
coedge $-1 $128 $51 $129 $130 forward $31 $-1 #
coedge $-1 $51 $128 $131 $132 forward $31 $-1 #
coedge $-1 $133 $134 $51 $81 reversed $135 $-1 #
edge $-1 $136 -39.418474638588208 $137 39.418474638588208 $80 $138 forward 7 unknown #
face $-1 $139 $140 $19 $-1 $141 reversed single #
loop $-1 $-1 $142 $52 #
plane-surface $-1 0 0 -19.483676114584021 0 0 1 1 0 0 forward_v I I I I #
coedge $-1 $143 $88 $144 $145 reversed $53 $-1 #
coedge $-1 $146 $55 $147 $148 reversed $34 $-1 #
coedge $-1 $55 $146 $149 $150 reversed $34 $-1 #
coedge $-1 $85 $151 $55 $89 reversed $53 $-1 #
edge $-1 $152 -39.418474638588208 $153 39.418474638588208 $88 $154 forward 7 unknown #
face $-1 $155 $156 $20 $-1 $157 forward single #
loop $-1 $-1 $158 $56 #
plane-surface $-1 21.365932445085178 -113.74725576430774 112.54119432210209 -1 0 0 0 -0.55919291073839883 0.82903756765294845 forward_v I I I I #
coedge $-1 $159 $160 $161 $162 reversed $57 $-1 #
coedge $-1 $95 $59 $163 $164 reversed $37 $-1 #
coedge $-1 $59 $94 $159 $165 reversed $37 $-1 #
coedge $-1 $161 $166 $59 $97 forward $167 $-1 #
edge $-1 $168 36.786921046467022 $169 53.926350489278789 $96 $170 forward 7 unknown #
loop $-1 $-1 $103 $60 #
plane-surface $-1 9.2124587136829064 -39.418474638588208 2.3442466717722539 0 -0.55919291073839883 0.82903756765294845 1 0 0 forward_v I I I I #
loop $-1 $-1 $171 $39 #
coedge $-1 $101 $101 $102 $172 reversed $61 $-1 #
coedge $-1 $102 $102 $101 $172 forward $63 $-1 #
coedge $-1 $103 $103 $64 $104 forward $98 $-1 #
edge $-1 $173 -3.904013910611674e-016 $173 6.2831853071796004 $103 $174 forward 7 unknown #
face $-1 $175 $176 $22 $-1 $177 reversed single #
loop $-1 $-1 $178 $65 #
plane-surface $-1 21.365932445085178 48.388463094378551 156.62625746214187 -1 0 0 0 0.55919291073839883 0.82903756765294845 forward_v I I I I #
coedge $-1 $179 $180 $181 $182 reversed $66 $-1 #
coedge $-1 $110 $68 $183 $184 reversed $43 $-1 #
coedge $-1 $68 $109 $179 $185 reversed $43 $-1 #
coedge $-1 $181 $186 $68 $112 forward $187 $-1 #
edge $-1 $188 -15.224243091398932 $189 10.186005542592319 $111 $190 forward 7 unknown #
loop $-1 $-1 $118 $69 #
plane-surface $-1 9.2124587136829064 -25.940318031340979 46.429309811812033 0 0.55919291073839883 0.82903756765294845 1 0 0 forward_v I I I I #
loop $-1 $-1 $191 $45 #
coedge $-1 $116 $116 $117 $192 reversed $70 $-1 #
coedge $-1 $117 $117 $116 $192 forward $72 $-1 #
coedge $-1 $118 $118 $73 $119 forward $113 $-1 #
edge $-1 $193 -5.9599569092057307e-016 $193 6.2831853071795996 $118 $194 forward 7 unknown #
face $-1 $195 $196 $18 $-1 $197 reversed single #
loop $-1 $-1 $198 $74 #
plane-surface $-1 -66.460768456068607 0 0 1 0 0 0 0 -1 forward_v I I I I #
coedge $-1 $199 $131 $200 $201 forward $75 $-1 #
coedge $-1 $202 $77 $199 $203 forward $49 $-1 #
coedge $-1 $77 $202 $204 $205 forward $49 $-1 #
coedge $-1 $134 $133 $77 $127 reversed $135 $-1 #
edge $-1 $206 -39.418474638588208 $207 39.418474638588208 $126 $208 forward 7 unknown #
coedge $-1 $79 $78 $209 $210 forward $31 $-1 #
coedge $-1 $211 $212 $78 $130 reversed $196 $-1 #
edge $-1 $137 -66.460768456068607 $213 66.460768456068607 $129 $214 forward 7 unknown #
coedge $-1 $123 $215 $79 $132 reversed $75 $-1 #
edge $-1 $216 -66.460768456068607 $136 66.460768456068607 $131 $217 forward 7 unknown #
coedge $-1 $126 $80 $215 $218 forward $135 $-1 #
coedge $-1 $80 $126 $211 $219 reversed $135 $-1 #
loop $-1 $-1 $133 $195 #
vertex $-1 $81 $220 #
vertex $-1 $81 $221 #
straight-curve $-1 66.460768456068607 0 19.483676114584021 0 1 0 I I #
face $-1 $222 $223 $19 $-1 $224 reversed single #
loop $-1 $-1 $144 $82 #
plane-surface $-1 0 -39.418474638588208 0 0 1 0 0 0 1 forward_v I I I I #
coedge $-1 $225 $226 $143 $227 forward $83 $-1 #
coedge $-1 $151 $85 $142 $227 reversed $53 $-1 #
coedge $-1 $149 $228 $85 $145 forward $140 $-1 #
edge $-1 $229 -12.183704524040767 $152 -2.4162386570457448 $144 $230 forward 7 unknown #
coedge $-1 $87 $86 $231 $232 reversed $34 $-1 #
coedge $-1 $233 $234 $86 $148 forward $235 $-1 #
edge $-1 $236 -36.549482890951332 $153 -23.273088239283219 $147 $237 forward 7 unknown #
coedge $-1 $238 $144 $87 $150 forward $140 $-1 #
edge $-1 $152 23.273088239283219 $239 36.549482890951332 $149 $240 forward 7 unknown #
coedge $-1 $88 $143 $233 $241 reversed $53 $-1 #
vertex $-1 $150 $242 #
vertex $-1 $148 $243 #
straight-curve $-1 -53.184373804400494 0 -9.7162102475890002 0 1 0 I I #
face $-1 $-1 $167 $20 $-1 $244 reversed single #
loop $-1 $-1 $245 $90 #
plane-surface $-1 0 0 19.483676114584021 0 0 1 1 0 0 forward_v I I I I #
coedge $-1 $246 $247 $248 $249 reversed $91 $-1 #
coedge $-1 $250 $93 $95 $165 forward $57 $-1 #
coedge $-1 $93 $250 $246 $251 forward $57 $-1 #
coedge $-1 $248 $96 $93 $162 forward $167 $-1 #
edge $-1 $169 -7.5472443745608189 $252 16.759703088243725 $161 $253 forward 7 unknown #
coedge $-1 $254 $255 $94 $164 forward $156 $-1 #
edge $-1 $256 -42.86540187755692 $168 -17.455153243565661 $163 $257 forward 7 unknown #
edge $-1 $169 0 $256 30.6502981595021 $95 $258 forward 7 unknown #
coedge $-1 $96 $248 $254 $259 reversed $167 $-1 #
loop $-1 $-1 $248 $155 #
vertex $-1 $259 $260 #
vertex $-1 $97 $261 #
straight-curve $-1 -2.9410150177193657 -39.418474638588208 56.270597161051043 0 0 -1 I I #
coedge $-1 $171 $171 $-1 $262 reversed $100 $-1 #
edge $-1 $263 0 $263 6.2831853071796004 $101 $264 forward 7 unknown #
vertex $-1 $104 $265 #
ellipse-curve $-1 9.2124587136829064 -26.713350321592575 10.913961393178138 0 -0.55919291073839883 0.82903756765294845 5 0 0 1 I I #
face $-1 $-1 $187 $22 $-1 $266 forward single #
loop $-1 $-1 $267 $105 #
plane-surface $-1 0 39.418474638588208 0 0 -1 0 0 0 -1 forward_v I I I I #
coedge $-1 $268 $269 $270 $271 reversed $106 $-1 #
coedge $-1 $272 $108 $110 $185 forward $66 $-1 #
coedge $-1 $108 $272 $268 $273 forward $66 $-1 #
coedge $-1 $270 $111 $108 $182 forward $187 $-1 #
edge $-1 $189 -7.5472443745608189 $274 16.759703088243725 $181 $275 forward 7 unknown #
coedge $-1 $276 $277 $109 $184 forward $176 $-1 #
edge $-1 $278 -75.968882059298664 $188 -58.829452616486911 $183 $279 forward 7 unknown #
edge $-1 $189 48.186651117674302 $278 78.836949277176387 $110 $280 forward 7 unknown #
coedge $-1 $111 $270 $276 $281 forward $187 $-1 #
loop $-1 $-1 $270 $175 #
vertex $-1 $184 $282 #
vertex $-1 $112 $283 #
straight-curve $-1 -2.9410150177193657 24.194231547189275 19.483676114584028 0 -1 0 I I #
coedge $-1 $191 $191 $-1 $284 reversed $115 $-1 #
edge $-1 $285 0 $285 6.2831853071796004 $116 $286 forward 7 unknown #
vertex $-1 $119 $287 #
ellipse-curve $-1 9.2124587136829064 26.713350321592593 10.913961393178131 0 0.55919291073839883 0.82903756765294845 5 0 0 1 I I #
face $-1 $-1 $135 $18 $-1 $288 reversed single #
loop $-1 $-1 $211 $120 #
plane-surface $-1 0 39.418474638588208 0 0 -1 0 0 0 -1 forward_v I I I I #
coedge $-1 $289 $209 $212 $290 forward $121 $-1 #
coedge $-1 $215 $123 $124 $203 reversed $75 $-1 #
coedge $-1 $209 $289 $123 $201 reversed $121 $-1 #
edge $-1 $216 -19.483676114584021 $291 19.483676114584021 $200 $292 forward 7 unknown #
coedge $-1 $125 $124 $289 $293 forward $49 $-1 #
edge $-1 $207 -66.460768456068607 $291 66.460768456068607 $199 $294 forward 7 unknown #
coedge $-1 $212 $211 $125 $205 reversed $196 $-1 #
edge $-1 $295 -66.460768456068607 $206 66.460768456068607 $204 $296 forward 7 unknown #
vertex $-1 $127 $297 #
vertex $-1 $218 $298 #
straight-curve $-1 66.460768456068607 0 -19.483676114584021 0 -1 0 I I #
coedge $-1 $198 $200 $128 $210 reversed $121 $-1 #
edge $-1 $213 -39.418474638588208 $216 39.418474638588208 $209 $299 forward 7 unknown #
coedge $-1 $204 $129 $134 $219 forward $196 $-1 #
coedge $-1 $129 $204 $198 $290 reversed $196 $-1 #
vertex $-1 $130 $300 #
straight-curve $-1 0 39.418474638588208 19.483676114584021 -1 0 0 I I #
coedge $-1 $131 $199 $133 $218 reversed $75 $-1 #
vertex $-1 $210 $301 #
straight-curve $-1 0 -39.418474638588208 19.483676114584021 1 0 0 I I #
edge $-1 $136 -19.483676114584021 $207 19.483676114584021 $133 $302 forward 7 unknown #
edge $-1 $137 -19.483676114584021 $206 19.483676114584021 $134 $303 forward 7 unknown #
point $-1 66.460768456068607 -39.418474638588208 19.483676114584021 #
point $-1 66.460768456068607 39.418474638588208 19.483676114584021 #
face $-1 $-1 $235 $19 $-1 $304 reversed single #
loop $-1 $-1 $231 $139 #
plane-surface $-1 -66.460768456068607 0 0 1 0 0 0 0 -1 forward_v I I I I #
coedge $-1 $305 $142 $228 $306 forward $83 $-1 #
coedge $-1 $142 $305 $307 $308 forward $83 $-1 #
edge $-1 $309 -39.418474638588208 $229 39.418474638588208 $142 $310 forward 7 unknown #
coedge $-1 $144 $238 $225 $306 reversed $140 $-1 #
vertex $-1 $306 $311 #
straight-curve $-1 -53.184373804400494 -39.418474638588208 -7.2999715905432554 0 0 1 I I #
coedge $-1 $312 $313 $146 $232 forward $223 $-1 #
edge $-1 $239 -39.418474638588208 $236 39.418474638588208 $231 $314 forward 7 unknown #
coedge $-1 $307 $147 $151 $241 forward $235 $-1 #
coedge $-1 $147 $307 $312 $315 reversed $235 $-1 #
loop $-1 $-1 $233 $222 #
vertex $-1 $315 $316 #
straight-curve $-1 -29.911285565117275 39.418474638588208 -9.7162102475890002 1 0 0 I I #
coedge $-1 $228 $149 $313 $317 forward $140 $-1 #
vertex $-1 $317 $318 #
straight-curve $-1 -29.911285565117275 -39.418474638588208 -9.7162102475890002 -1 0 0 I I #
edge $-1 $153 2.4162386570457448 $309 12.183704524040767 $233 $319 forward 7 unknown #
point $-1 -53.184373804400494 -39.418474638588208 -9.7162102475890002 #
point $-1 -53.184373804400494 39.418474638588208 -9.7162102475890002 #
plane-surface $-1 0 -39.418474638588208 0 0 1 0 0 0 1 forward_v I I I I #
coedge $-1 $255 $254 $247 $320 forward $156 $-1 #
coedge $-1 $247 $158 $160 $251 reversed $91 $-1 #
coedge $-1 $158 $246 $245 $320 reversed $91 $-1 #
coedge $-1 $166 $161 $158 $249 forward $167 $-1 #
edge $-1 $252 -53.926350489278789 $321 -36.786921046467022 $248 $322 forward 7 unknown #
coedge $-1 $160 $159 $255 $323 reversed $57 $-1 #
edge $-1 $324 -30.6502981595021 $252 0 $246 $325 forward 7 unknown #
vertex $-1 $162 $326 #
straight-curve $-1 4.6062293568414532 -39.418474638588208 2.3442466717722543 1 0 0 I I #
coedge $-1 $245 $163 $166 $259 forward $156 $-1 #
coedge $-1 $163 $245 $250 $323 forward $156 $-1 #
vertex $-1 $164 $327 #
straight-curve $-1 -2.9410150177193657 -56.873627882153869 19.483676114584021 0 -1 0 I I #
straight-curve $-1 -2.9410150177193657 -39.418474638588208 2.3442466717722539 0 0.82903756765294845 0.55919291073839883 I I #
edge $-1 $168 -2.9410150177193657 $321 21.365932445085178 $166 $328 forward 7 unknown #
point $-1 -2.9410150177193657 -39.418474638588208 19.483676114584021 #
point $-1 -2.9410150177193657 -39.418474638588208 2.3442466717722539 #
edge $-1 $329 1 $329 0 $171 $-1 forward 7 unknown #
vertex $-1 $172 $330 #
ellipse-curve $-1 9.2124587136829064 -18.847838782703626 -0.7471387912575933 0 -0.55919291073839883 0.82903756765294845 5 0 0 1 I I #
point $-1 14.212458713682906 -26.713350321592578 10.913961393178139 #
plane-surface $-1 0 0 19.483676114584021 0 0 1 1 0 0 forward_v I I I I #
coedge $-1 $277 $276 $269 $331 forward $176 $-1 #
coedge $-1 $269 $178 $180 $273 reversed $106 $-1 #
coedge $-1 $178 $268 $267 $331 reversed $106 $-1 #
coedge $-1 $186 $181 $178 $271 forward $187 $-1 #
edge $-1 $274 -10.186005542592319 $332 15.224243091398932 $270 $333 forward 7 unknown #
coedge $-1 $180 $179 $277 $334 reversed $66 $-1 #
edge $-1 $335 -78.836949277176387 $274 -48.186651117674302 $268 $336 forward 7 unknown #
vertex $-1 $182 $337 #
straight-curve $-1 4.6062293568414532 14.00822600459696 19.483676114584021 1 0 0 I I #
coedge $-1 $267 $183 $186 $281 reversed $176 $-1 #
coedge $-1 $183 $267 $272 $334 forward $176 $-1 #
vertex $-1 $184 $338 #
straight-curve $-1 -2.9410150177193657 39.418474638588208 78.313128731070933 0 0 1 I I #
straight-curve $-1 -2.9410150177193657 -25.940318031340979 46.429309811812033 0 0.82903756765294845 -0.55919291073839883 I I #
edge $-1 $332 -21.365932445085178 $188 2.9410150177193657 $276 $339 forward 7 unknown #
point $-1 -2.9410150177193657 39.418474638588208 19.483676114584021 #
point $-1 -2.9410150177193657 14.008226004596956 19.483676114584021 #
edge $-1 $340 1 $340 0 $191 $-1 forward 7 unknown #
vertex $-1 $192 $341 #
ellipse-curve $-1 9.2124587136829064 18.847838782703644 -0.74713879125759686 0 0.55919291073839883 0.82903756765294845 5 0 0 1 I I #
point $-1 14.212458713682906 26.713350321592593 10.913961393178136 #
plane-surface $-1 66.460768456068607 0 0 -1 0 0 0 0 1 forward_v I I I I #
coedge $-1 $200 $198 $202 $293 reversed $121 $-1 #
edge $-1 $213 -19.483676114584021 $295 19.483676114584021 $212 $342 forward 7 unknown #
vertex $-1 $293 $343 #
straight-curve $-1 -66.460768456068607 -39.418474638588208 0 0 0 -1 I I #
edge $-1 $291 -39.418474638588208 $295 39.418474638588208 $289 $344 forward 7 unknown #
straight-curve $-1 0 -39.418474638588208 -19.483676114584021 -1 0 0 I I #
vertex $-1 $205 $345 #
straight-curve $-1 0 39.418474638588208 -19.483676114584021 1 0 0 I I #
point $-1 66.460768456068607 39.418474638588208 -19.483676114584021 #
point $-1 66.460768456068607 -39.418474638588208 -19.483676114584021 #
straight-curve $-1 -66.460768456068607 0 19.483676114584021 0 -1 0 I I #
point $-1 -66.460768456068607 39.418474638588208 19.483676114584021 #
point $-1 -66.460768456068607 -39.418474638588208 19.483676114584021 #
straight-curve $-1 66.460768456068607 -39.418474638588208 0 0 0 -1 I I #
straight-curve $-1 66.460768456068607 39.418474638588208 0 0 0 -1 I I #
plane-surface $-1 0 39.418474638588208 0 0 -1 0 0 0 -1 forward_v I I I I #
coedge $-1 $226 $225 $346 $347 forward $83 $-1 #
edge $-1 $229 53.184373804400494 $348 66.460768456068607 $228 $349 forward 7 unknown #
coedge $-1 $234 $233 $226 $308 reversed $235 $-1 #
edge $-1 $350 -66.460768456068607 $309 -53.184373804400494 $307 $351 forward 7 unknown #
vertex $-1 $241 $352 #
straight-curve $-1 -53.184373804400494 0 -19.483676114584021 0 -1 0 I I #
point $-1 -53.184373804400494 -39.418474638588208 -19.483676114584021 #
coedge $-1 $346 $231 $234 $315 forward $223 $-1 #
coedge $-1 $231 $346 $238 $317 reversed $223 $-1 #
straight-curve $-1 -66.460768456068607 0 -9.7162102475890002 0 1 0 I I #
edge $-1 $236 9.7162102475890002 $350 19.483676114584021 $234 $353 forward 7 unknown #
point $-1 -66.460768456068607 39.418474638588208 -9.7162102475890002 #
edge $-1 $239 9.7162102475890002 $348 19.483676114584021 $313 $354 forward 7 unknown #
point $-1 -66.460768456068607 -39.418474638588208 -9.7162102475890002 #
straight-curve $-1 -53.184373804400494 39.418474638588208 -7.2999715905432554 0 0 -1 I I #
edge $-1 $321 17.455153243565661 $324 42.86540187755692 $245 $355 forward 7 unknown #
vertex $-1 $249 $356 #
straight-curve $-1 21.365932445085178 -39.418474638588208 56.270597161051043 0 0 1 I I #
edge $-1 $324 -16.759703088243725 $256 7.5472443745608189 $255 $357 forward 7 unknown #
vertex $-1 $323 $358 #
straight-curve $-1 21.365932445085178 -39.418474638588208 2.3442466717722539 0 -0.82903756765294845 -0.55919291073839883 I I #
point $-1 21.365932445085178 -39.418474638588208 2.3442466717722539 #
point $-1 -2.9410150177193657 -14.008226004596946 19.483676114584021 #
straight-curve $-1 0 -39.418474638588208 19.483676114584021 1 0 0 I I #
vertex $-1 $262 $359 #
point $-1 14.212458713682906 -18.847838782703626 -0.7471387912575933 #
edge $-1 $332 58.829452616486911 $335 75.968882059298664 $267 $360 forward 7 unknown #
vertex $-1 $281 $361 #
straight-curve $-1 21.365932445085178 24.194231547189275 19.483676114584028 0 1 0 I I #
edge $-1 $335 -16.759703088243725 $278 7.5472443745608189 $277 $362 forward 7 unknown #
vertex $-1 $334 $363 #
straight-curve $-1 21.365932445085178 -25.940318031340979 46.429309811812033 0 -0.82903756765294845 0.55919291073839883 I I #
point $-1 21.365932445085178 14.008226004596956 19.483676114584021 #
point $-1 -2.9410150177193657 39.418474638588208 2.344246671772261 #
straight-curve $-1 0 39.418474638588208 19.483676114584021 -1 0 0 I I #
vertex $-1 $284 $364 #
point $-1 14.212458713682906 18.847838782703644 -0.74713879125759686 #
straight-curve $-1 -66.460768456068607 39.418474638588208 0 0 0 -1 I I #
point $-1 -66.460768456068607 -39.418474638588208 -19.483676114584021 #
straight-curve $-1 -66.460768456068607 0 -19.483676114584021 0 1 0 I I #
point $-1 -66.460768456068607 39.418474638588208 -19.483676114584021 #
coedge $-1 $313 $312 $305 $347 reversed $223 $-1 #
edge $-1 $348 -39.418474638588208 $350 39.418474638588208 $346 $365 forward 7 unknown #
vertex $-1 $347 $366 #
straight-curve $-1 0 -39.418474638588208 -19.483676114584021 -1 0 0 I I #
vertex $-1 $308 $367 #
straight-curve $-1 0 39.418474638588208 -19.483676114584021 1 0 0 I I #
point $-1 -53.184373804400494 39.418474638588208 -19.483676114584021 #
straight-curve $-1 -66.460768456068607 39.418474638588208 0 0 0 -1 I I #
straight-curve $-1 -66.460768456068607 -39.418474638588208 0 0 0 -1 I I #
straight-curve $-1 21.365932445085178 -56.873627882153869 19.483676114584021 0 1 0 I I #
point $-1 21.365932445085178 -39.418474638588208 19.483676114584021 #
straight-curve $-1 4.6062293568414532 -14.008226004596946 19.483676114584021 -1 0 0 I I #
point $-1 21.365932445085178 -14.008226004596946 19.483676114584021 #
point $-1 9.2124587136829064 -16.051874229011631 -4.8923266295223344 #
straight-curve $-1 21.365932445085178 39.418474638588208 78.313128731070933 0 0 -1 I I #
point $-1 21.365932445085178 39.418474638588208 19.483676114584021 #
straight-curve $-1 4.6062293568414532 39.418474638588215 2.3442466717722539 -1 0 0 I I #
point $-1 21.365932445085178 39.418474638588208 2.344246671772261 #
point $-1 9.2124587136829064 16.051874229011649 -4.892326629522338 #
straight-curve $-1 -66.460768456068607 0 -19.483676114584021 0 1 0 I I #
point $-1 -66.460768456068607 -39.418474638588208 -19.483676114584021 #
point $-1 -66.460768456068607 39.418474638588208 -19.483676114584021 #
End-of-ACIS-data 