500 0 6 0           
7 Unknown 11 ACIS 5.0 NT 24 Thu Mar 25 18:17:06 1999 
-1 9.9999999999999995e-007 1e-010 
body $-1 $6 $-1 $7 #
body $-1 $8 $-1 $9 #
body $-1 $10 $-1 $11 #
body $-1 $12 $-1 $13 #
body $-1 $14 $-1 $15 #
body $-1 $16 $-1 $17 #
lump $-1 $-1 $18 $0 #
transform $-1 1 0 0 0 1 0 0 0 1 78.445997497482225 35.707807912669665 8.3989140642880837 1 rotate no_reflect no_shear #
lump $-1 $-1 $19 $1 #
transform $-1 1 0 0 0 1 0 0 0 1 78.445997497482225 35.707807912669665 8.3989140642880837 1 rotate no_reflect no_shear #
lump $-1 $-1 $20 $2 #
transform $-1 1 0 0 0 1 0 0 0 1 78.445997497482225 35.707807912669665 8.3989140642880837 1 rotate no_reflect no_shear #
lump $-1 $-1 $21 $3 #
transform $-1 1 0 0 0 1 0 0 0 1 78.445997497482225 35.707807912669665 8.3989140642880837 1 rotate no_reflect no_shear #
lump $-1 $-1 $22 $4 #
transform $-1 1 0 0 0 1 0 0 0 1 78.445997497482225 35.707807912669665 8.3989140642880837 1 rotate no_reflect no_shear #
lump $-1 $-1 $23 $5 #
transform $-1 1 0 0 0 1 0 0 0 1 78.445997497482225 35.707807912669665 8.3989140642880837 1 rotate no_reflect no_shear #
shell $-1 $-1 $-1 $24 $-1 $6 #
shell $-1 $-1 $-1 $25 $-1 $8 #
shell $-1 $-1 $-1 $26 $-1 $10 #
shell $-1 $-1 $-1 $27 $-1 $12 #
shell $-1 $-1 $-1 $28 $-1 $14 #
shell $-1 $-1 $-1 $29 $-1 $16 #
face $-1 $30 $31 $18 $-1 $32 forward single #
face $-1 $33 $34 $19 $-1 $35 forward single #
face $-1 $36 $37 $20 $-1 $38 reversed single #
face $-1 $39 $40 $21 $-1 $41 forward single #
face $-1 $42 $43 $22 $-1 $44 reversed single #
face $-1 $45 $46 $23 $-1 $47 forward single #
face $-1 $48 $49 $18 $-1 $50 reversed single #
loop $-1 $-1 $51 $24 #
plane-surface $-1 0 0 8.3989140642880837 0 0 1 1 0 0 forward_v I I I I #
face $-1 $52 $53 $19 $-1 $54 reversed single #
loop $-1 $-1 $55 $25 #
plane-surface $-1 -73.200712002521215 0 -2.387346199432951 0 0 1 1 0 0 forward_v I I I I #
face $-1 $56 $57 $20 $-1 $58 reversed single #
loop $-1 $-1 $59 $26 #
plane-surface $-1 -67.95542650756019 -172.92863982398859 79.48297579762793 1 0 0 0 0.87461971476443456 -0.48480960649040278 forward_v I I I I #
face $-1 $60 $61 $21 $-1 $62 forward single #
loop $-1 $63 $64 $27 #
cone-surface $-1 -50.068199085672717 -33.739409095216239 5.583342101260504 0 0.87461971476443456 -0.48480960649040278 1 0 0 1 I I 0 1 1 forward I I I I #
face $-1 $65 $66 $22 $-1 $67 reversed single #
loop $-1 $-1 $68 $28 #
plane-surface $-1 -67.95542650756019 138.30566321843602 141.94448134051265 1 0 0 0 -0.87461971476443456 -0.48480960649040278 forward_v I I I I #
face $-1 $69 $70 $23 $-1 $71 forward single #
loop $-1 $72 $73 $29 #
cone-surface $-1 -50.068199085672717 33.739409095216232 5.5833421012604987 0 -0.87461971476443456 -0.48480960649040278 1 0 0 1 I I 0 1 1 forward I I I I #
face $-1 $74 $75 $18 $-1 $76 reversed single #
loop $-1 $-1 $77 $30 #
plane-surface $-1 0 0 -8.3989140642880837 0 0 1 1 0 0 forward_v I I I I #
coedge $-1 $78 $79 $80 $81 forward $31 $-1 #
face $-1 $82 $83 $19 $-1 $84 reversed single #
loop $-1 $-1 $85 $33 #
plane-surface $-1 -73.200712002521215 0 -5.8947072855036797 0 0 1 1 0 0 forward_v I I I I #
coedge $-1 $86 $87 $88 $89 forward $34 $-1 #
face $-1 $90 $91 $20 $-1 $92 reversed single #
loop $-1 $-1 $93 $36 #
plane-surface $-1 -50.068199085672717 -35.707807912669693 3.4202294426249722 0 -0.87461971476443456 0.48480960649040278 1 0 0 forward_v I I I I #
coedge $-1 $94 $95 $96 $97 reversed $37 $-1 #
face $-1 $-1 $98 $21 $-1 $99 forward single #
loop $-1 $100 $101 $39 #
cone-surface $-1 -50.068199085672717 -32.713565344256914 5.0147076458192856 0 0.87461971476443456 -0.48480960649040278 0.5 0 0 1 I I -0.70710678118654746 0.70710678118654746 0.5 forward I I I I #
loop $-1 $-1 $102 $27 #
coedge $-1 $64 $64 $103 $104 reversed $40 $-1 #
face $-1 $105 $106 $22 $-1 $107 reversed single #
loop $-1 $-1 $108 $42 #
plane-surface $-1 -50.068199085672717 1.0848313071171276 65.881734985509695 0 0.87461971476443456 0.48480960649040278 1 0 0 forward_v I I I I #
coedge $-1 $109 $110 $111 $112 reversed $43 $-1 #
face $-1 $-1 $113 $23 $-1 $114 forward single #
loop $-1 $115 $116 $45 #
cone-surface $-1 -50.068199085672717 32.713565344256907 5.0147076458192803 0 -0.87461971476443456 -0.48480960649040278 0.5 0 0 1 I I -0.70710678118654746 0.70710678118654746 0.5 forward I I I I #
loop $-1 $-1 $117 $29 #
coedge $-1 $73 $73 $118 $119 reversed $46 $-1 #
face $-1 $120 $121 $18 $-1 $122 reversed single #
loop $-1 $-1 $123 $48 #
plane-surface $-1 0 -35.707807912669665 0 0 1 0 0 0 1 forward_v I I I I #
coedge $-1 $124 $125 $126 $127 forward $49 $-1 #
coedge $-1 $128 $51 $129 $130 forward $31 $-1 #
coedge $-1 $51 $128 $131 $132 forward $31 $-1 #
coedge $-1 $133 $134 $51 $81 reversed $135 $-1 #
edge $-1 $136 -35.707807912669665 $137 35.707807912669665 $80 $138 forward 7 unknown #
face $-1 $139 $140 $19 $-1 $141 reversed single #
loop $-1 $-1 $142 $52 #
plane-surface $-1 -67.955426507560205 0 -4.1410267424683154 -1 0 0 0 0 1 forward_v I I I I #
coedge $-1 $143 $144 $145 $146 forward $53 $-1 #
coedge $-1 $147 $55 $148 $149 reversed $34 $-1 #
coedge $-1 $55 $147 $150 $151 reversed $34 $-1 #
coedge $-1 $142 $152 $55 $89 reversed $83 $-1 #
edge $-1 $153 -35.707807912669665 $154 35.707807912669665 $88 $155 forward 7 unknown #
face $-1 $156 $157 $20 $-1 $158 forward single #
loop $-1 $-1 $159 $56 #
plane-surface $-1 -32.180971663785236 -172.92863982398859 79.48297579762793 -1 0 0 0 -0.87461971476443456 0.48480960649040278 forward_v I I I I #
coedge $-1 $160 $161 $162 $163 reversed $57 $-1 #
coedge $-1 $95 $59 $164 $165 reversed $37 $-1 #
coedge $-1 $59 $94 $160 $166 reversed $37 $-1 #
coedge $-1 $162 $167 $59 $97 forward $168 $-1 #
edge $-1 $169 31.342573834525879 $170 36.321258456188943 $96 $171 forward 7 unknown #
loop $-1 $-1 $103 $60 #
plane-surface $-1 -50.068199085672717 -35.707807912669693 3.4202294426249722 0 -0.87461971476443456 0.48480960649040278 1 0 0 forward_v I I I I #
loop $-1 $-1 $172 $39 #
coedge $-1 $101 $101 $102 $173 reversed $61 $-1 #
coedge $-1 $102 $102 $101 $173 forward $63 $-1 #
coedge $-1 $103 $103 $64 $104 forward $98 $-1 #
edge $-1 $174 -5.4111866181864343e-016 $174 6.2831853071795996 $103 $175 forward 7 unknown #
face $-1 $176 $177 $22 $-1 $178 reversed single #
loop $-1 $-1 $179 $65 #
plane-surface $-1 -32.180971663785236 138.30566321843602 141.94448134051265 -1 0 0 0 0.87461971476443456 0.48480960649040278 forward_v I I I I #
coedge $-1 $180 $181 $182 $183 reversed $66 $-1 #
coedge $-1 $110 $68 $184 $185 reversed $43 $-1 #
coedge $-1 $68 $109 $180 $186 reversed $43 $-1 #
coedge $-1 $182 $187 $68 $112 forward $188 $-1 #
edge $-1 $189 33.445023696548347 $190 36.204753544300985 $111 $191 forward 7 unknown #
loop $-1 $-1 $118 $69 #
plane-surface $-1 -50.068199085672717 1.0848313071171276 65.881734985509695 0 0.87461971476443456 0.48480960649040278 1 0 0 forward_v I I I I #
loop $-1 $-1 $192 $45 #
coedge $-1 $116 $116 $117 $193 reversed $70 $-1 #
coedge $-1 $117 $117 $116 $193 forward $72 $-1 #
coedge $-1 $118 $118 $73 $119 forward $113 $-1 #
edge $-1 $194 -6.7501203358497052e-016 $194 6.2831853071795996 $118 $195 forward 7 unknown #
face $-1 $196 $197 $18 $-1 $198 reversed single #
loop $-1 $-1 $199 $74 #
plane-surface $-1 -78.445997497482225 0 0 1 0 0 0 0 -1 forward_v I I I I #
coedge $-1 $200 $131 $201 $202 forward $75 $-1 #
coedge $-1 $203 $77 $200 $204 forward $49 $-1 #
coedge $-1 $77 $203 $205 $206 forward $49 $-1 #
coedge $-1 $134 $133 $77 $127 reversed $135 $-1 #
edge $-1 $207 -35.707807912669665 $208 35.707807912669665 $126 $209 forward 7 unknown #
coedge $-1 $79 $78 $210 $211 forward $31 $-1 #
coedge $-1 $212 $213 $78 $130 reversed $197 $-1 #
edge $-1 $137 -78.445997497482225 $214 78.445997497482225 $129 $215 forward 7 unknown #
coedge $-1 $123 $216 $79 $132 reversed $75 $-1 #
edge $-1 $217 -78.445997497482225 $136 78.445997497482225 $131 $218 forward 7 unknown #
coedge $-1 $126 $80 $216 $219 forward $135 $-1 #
coedge $-1 $80 $126 $212 $220 reversed $135 $-1 #
loop $-1 $-1 $133 $196 #
vertex $-1 $81 $221 #
vertex $-1 $81 $222 #
straight-curve $-1 78.445997497482225 0 8.3989140642880837 0 1 0 I I #
face $-1 $223 $224 $19 $-1 $225 reversed single #
loop $-1 $-1 $226 $82 #
plane-surface $-1 0 -35.707807912669665 0 0 1 0 0 0 1 forward_v I I I I #
coedge $-1 $145 $88 $227 $228 reversed $83 $-1 #
coedge $-1 $229 $85 $226 $230 reversed $53 $-1 #
coedge $-1 $85 $229 $231 $232 reversed $53 $-1 #
coedge $-1 $152 $142 $85 $146 reversed $83 $-1 #
edge $-1 $233 -35.707807912669665 $234 35.707807912669665 $145 $235 forward 7 unknown #
coedge $-1 $87 $86 $236 $237 reversed $34 $-1 #
coedge $-1 $238 $239 $86 $149 forward $240 $-1 #
edge $-1 $241 -41.845641496221617 $154 -31.355070506299597 $148 $242 forward 7 unknown #
coedge $-1 $243 $227 $87 $151 forward $140 $-1 #
edge $-1 $153 31.355070506299597 $244 41.845641496221617 $150 $245 forward 7 unknown #
coedge $-1 $88 $145 $238 $246 reversed $83 $-1 #
vertex $-1 $151 $247 #
vertex $-1 $149 $248 #
straight-curve $-1 -67.955426507560205 0 -2.387346199432951 0 1 0 I I #
face $-1 $-1 $168 $20 $-1 $249 reversed single #
loop $-1 $-1 $250 $90 #
plane-surface $-1 0 0 8.3989140642880837 0 0 1 1 0 0 forward_v I I I I #
coedge $-1 $251 $252 $253 $254 reversed $91 $-1 #
coedge $-1 $255 $93 $95 $166 forward $57 $-1 #
coedge $-1 $93 $255 $251 $256 forward $57 $-1 #
coedge $-1 $253 $96 $93 $163 forward $168 $-1 #
edge $-1 $170 -42.921326964723832 $257 -7.1468721209488777 $162 $258 forward 7 unknown #
coedge $-1 $259 $260 $94 $165 forward $157 $-1 #
edge $-1 $261 -53.516241847077247 $169 -50.75651199932463 $164 $262 forward 7 unknown #
edge $-1 $170 5.8446173240376603e-014 $261 5.692399265209847 $95 $263 forward 7 unknown #
coedge $-1 $96 $253 $259 $264 reversed $168 $-1 #
loop $-1 $-1 $253 $156 #
vertex $-1 $264 $265 #
vertex $-1 $97 $266 #
straight-curve $-1 -67.95542650756019 -35.707807912669665 39.741487898813965 0 0 -1 I I #
coedge $-1 $172 $172 $-1 $267 reversed $100 $-1 #
edge $-1 $268 0 $268 6.2831853071796004 $101 $269 forward 7 unknown #
vertex $-1 $104 $270 #
ellipse-curve $-1 -50.068199085672717 -34.327942988793367 5.9095717534565342 0 -0.87461971476443456 0.48480960649040278 1 0 0 1 I I #
face $-1 $-1 $188 $22 $-1 $271 forward single #
loop $-1 $-1 $272 $105 #
plane-surface $-1 0 35.707807912669665 0 0 -1 0 0 0 -1 forward_v I I I I #
coedge $-1 $273 $274 $275 $276 reversed $106 $-1 #
coedge $-1 $277 $108 $110 $186 forward $66 $-1 #
coedge $-1 $108 $277 $273 $278 forward $66 $-1 #
coedge $-1 $275 $111 $108 $183 forward $188 $-1 #
edge $-1 $190 -42.921326964723832 $279 -7.1468721209488777 $182 $280 forward 7 unknown #
coedge $-1 $281 $282 $109 $185 forward $177 $-1 #
edge $-1 $283 -67.55201122763134 $189 -62.573326605968241 $184 $284 forward 7 unknown #
edge $-1 $190 65.723216560129487 $283 71.415615825339316 $110 $285 forward 7 unknown #
coedge $-1 $111 $275 $281 $286 forward $188 $-1 #
loop $-1 $-1 $275 $176 #
vertex $-1 $185 $287 #
vertex $-1 $112 $288 #
straight-curve $-1 -67.95542650756019 69.152831609218012 8.3989140642880784 0 -1 0 I I #
coedge $-1 $192 $192 $-1 $289 reversed $115 $-1 #
edge $-1 $290 0 $290 6.2831853071796004 $116 $291 forward 7 unknown #
vertex $-1 $119 $292 #
ellipse-curve $-1 -50.068199085672717 34.327942988793353 5.9095717534565235 0 0.87461971476443456 0.48480960649040278 1 0 0 1 I I #
face $-1 $-1 $135 $18 $-1 $293 reversed single #
loop $-1 $-1 $212 $120 #
plane-surface $-1 0 35.707807912669665 0 0 -1 0 0 0 -1 forward_v I I I I #
coedge $-1 $294 $210 $213 $295 forward $121 $-1 #
coedge $-1 $216 $123 $124 $204 reversed $75 $-1 #
coedge $-1 $210 $294 $123 $202 reversed $121 $-1 #
edge $-1 $217 -8.3989140642880837 $296 8.3989140642880837 $201 $297 forward 7 unknown #
coedge $-1 $125 $124 $294 $298 forward $49 $-1 #
edge $-1 $208 -78.445997497482225 $296 78.445997497482225 $200 $299 forward 7 unknown #
coedge $-1 $213 $212 $125 $206 reversed $197 $-1 #
edge $-1 $300 -78.445997497482225 $207 78.445997497482225 $205 $301 forward 7 unknown #
vertex $-1 $127 $302 #
vertex $-1 $219 $303 #
straight-curve $-1 78.445997497482225 0 -8.3989140642880837 0 -1 0 I I #
coedge $-1 $199 $201 $128 $211 reversed $121 $-1 #
edge $-1 $214 -35.707807912669665 $217 35.707807912669665 $210 $304 forward 7 unknown #
coedge $-1 $205 $129 $134 $220 forward $197 $-1 #
coedge $-1 $129 $205 $199 $295 reversed $197 $-1 #
vertex $-1 $130 $305 #
straight-curve $-1 0 35.707807912669665 8.3989140642880837 -1 0 0 I I #
coedge $-1 $131 $200 $133 $219 reversed $75 $-1 #
vertex $-1 $211 $306 #
straight-curve $-1 0 -35.707807912669665 8.3989140642880837 1 0 0 I I #
edge $-1 $136 -8.3989140642880837 $208 8.3989140642880837 $133 $307 forward 7 unknown #
edge $-1 $137 -8.3989140642880837 $207 8.3989140642880837 $134 $308 forward 7 unknown #
point $-1 78.445997497482225 -35.707807912669665 8.3989140642880837 #
point $-1 78.445997497482225 35.707807912669665 8.3989140642880837 #
face $-1 $-1 $240 $19 $-1 $309 reversed single #
loop $-1 $-1 $310 $139 #
plane-surface $-1 -78.445997497482225 0 0 1 0 0 0 0 -1 forward_v I I I I #
coedge $-1 $227 $243 $143 $230 forward $140 $-1 #
coedge $-1 $150 $226 $142 $228 forward $140 $-1 #
edge $-1 $234 -3.824193914269522 $153 -0.31683282819879333 $227 $311 forward 7 unknown #
coedge $-1 $144 $143 $310 $312 reversed $53 $-1 #
edge $-1 $313 -41.845641496221617 $234 -31.355070506299597 $226 $314 forward 7 unknown #
coedge $-1 $239 $238 $144 $232 forward $240 $-1 #
edge $-1 $233 31.355070506299597 $315 41.845641496221617 $231 $316 forward 7 unknown #
vertex $-1 $232 $317 #
vertex $-1 $230 $318 #
straight-curve $-1 -67.955426507560205 0 -5.8947072855036797 0 -1 0 I I #
coedge $-1 $319 $320 $147 $237 forward $224 $-1 #
edge $-1 $244 -35.707807912669665 $241 35.707807912669665 $236 $321 forward 7 unknown #
coedge $-1 $231 $148 $152 $246 forward $240 $-1 #
coedge $-1 $148 $231 $319 $322 reversed $240 $-1 #
loop $-1 $-1 $231 $223 #
vertex $-1 $322 $323 #
straight-curve $-1 -36.600356001260607 35.707807912669665 -2.387346199432951 1 0 0 I I #
coedge $-1 $226 $150 $320 $324 forward $140 $-1 #
vertex $-1 $324 $325 #
straight-curve $-1 -36.600356001260607 -35.707807912669665 -2.387346199432951 -1 0 0 I I #
edge $-1 $154 0.31683282819879333 $233 3.824193914269522 $238 $326 forward 7 unknown #
point $-1 -67.955426507560205 -35.707807912669665 -2.387346199432951 #
point $-1 -67.955426507560205 35.707807912669665 -2.387346199432951 #
plane-surface $-1 0 -35.707807912669665 0 0 1 0 0 0 1 forward_v I I I I #
coedge $-1 $260 $259 $252 $327 forward $157 $-1 #
coedge $-1 $252 $159 $161 $256 reversed $91 $-1 #
coedge $-1 $159 $251 $250 $327 reversed $91 $-1 #
coedge $-1 $167 $162 $159 $254 forward $168 $-1 #
edge $-1 $257 -36.321258456188943 $328 -31.342573834525879 $253 $329 forward 7 unknown #
coedge $-1 $161 $160 $260 $330 reversed $57 $-1 #
edge $-1 $331 -5.692399265209847 $257 -5.8446173240376603e-014 $251 $332 forward 7 unknown #
vertex $-1 $163 $333 #
straight-curve $-1 -25.034099542836358 -35.707807912669665 3.4202294426250246 1 0 0 I I #
coedge $-1 $250 $164 $167 $264 forward $157 $-1 #
coedge $-1 $164 $250 $255 $330 forward $157 $-1 #
vertex $-1 $165 $334 #
straight-curve $-1 -67.95542650756019 -86.464319911994295 8.3989140642880855 0 -1 0 I I #
straight-curve $-1 -67.95542650756019 -35.707807912669693 3.4202294426249722 0 0.48480960649040278 0.87461971476443456 I I #
edge $-1 $169 -67.95542650756019 $328 -32.180971663785236 $167 $335 forward 7 unknown #
point $-1 -67.95542650756019 -35.707807912669665 8.3989140642880837 #
point $-1 -67.95542650756019 -35.707807912669665 3.4202294426250233 #
edge $-1 $336 1 $336 0 $172 $-1 forward 7 unknown #
vertex $-1 $173 $337 #
ellipse-curve $-1 -50.068199085672717 -33.150875201639131 5.2571124490644872 0 -0.87461971476443456 0.48480960649040278 1 0 0 1 I I #
point $-1 -49.068199085672717 -34.327942988793346 5.9095717534565217 #
plane-surface $-1 0 0 8.3989140642880837 0 0 1 1 0 0 forward_v I I I I #
coedge $-1 $282 $281 $274 $338 forward $177 $-1 #
coedge $-1 $274 $179 $181 $278 reversed $106 $-1 #
coedge $-1 $179 $273 $272 $338 reversed $106 $-1 #
coedge $-1 $187 $182 $179 $276 forward $188 $-1 #
edge $-1 $279 -36.204753544300985 $339 -33.445023696548347 $275 $340 forward 7 unknown #
coedge $-1 $181 $180 $282 $341 reversed $66 $-1 #
edge $-1 $342 -71.415615825339316 $279 -65.723216560129487 $273 $343 forward 7 unknown #
vertex $-1 $183 $344 #
straight-curve $-1 -25.034099542836358 32.94807806491702 8.3989140642880855 1 0 0 I I #
coedge $-1 $272 $184 $187 $286 reversed $177 $-1 #
coedge $-1 $184 $272 $277 $341 forward $177 $-1 #
vertex $-1 $185 $345 #
straight-curve $-1 -67.95542650756019 35.707807912669665 70.972240670256326 0 0 1 I I #
straight-curve $-1 -67.95542650756019 1.0848313071171276 65.881734985509695 0 0.48480960649040278 -0.87461971476443456 I I #
edge $-1 $339 32.180971663785236 $189 67.95542650756019 $281 $346 forward 7 unknown #
point $-1 -67.95542650756019 35.707807912669665 8.3989140642880837 #
point $-1 -67.95542650756019 32.948078064917027 8.3989140642880784 #
edge $-1 $347 1 $347 0 $192 $-1 forward 7 unknown #
vertex $-1 $193 $348 #
ellipse-curve $-1 -50.068199085672717 33.150875201639124 5.2571124490644818 0 0.87461971476443456 0.48480960649040278 1 0 0 1 I I #
point $-1 -49.068199085672717 34.327942988793339 5.9095717534565164 #
plane-surface $-1 78.445997497482225 0 0 -1 0 0 0 0 1 forward_v I I I I #
coedge $-1 $201 $199 $203 $298 reversed $121 $-1 #
edge $-1 $214 -8.3989140642880837 $300 8.3989140642880837 $213 $349 forward 7 unknown #
vertex $-1 $298 $350 #
straight-curve $-1 -78.445997497482225 -35.707807912669665 0 0 0 -1 I I #
edge $-1 $296 -35.707807912669665 $300 35.707807912669665 $294 $351 forward 7 unknown #
straight-curve $-1 0 -35.707807912669665 -8.3989140642880837 -1 0 0 I I #
vertex $-1 $206 $352 #
straight-curve $-1 0 35.707807912669665 -8.3989140642880837 1 0 0 I I #
point $-1 78.445997497482225 35.707807912669665 -8.3989140642880837 #
point $-1 78.445997497482225 -35.707807912669665 -8.3989140642880837 #
straight-curve $-1 -78.445997497482225 0 8.3989140642880837 0 -1 0 I I #
point $-1 -78.445997497482225 35.707807912669665 8.3989140642880837 #
point $-1 -78.445997497482225 -35.707807912669665 8.3989140642880837 #
straight-curve $-1 78.445997497482225 -35.707807912669665 0 0 0 -1 I I #
straight-curve $-1 78.445997497482225 35.707807912669665 0 0 0 -1 I I #
plane-surface $-1 0 35.707807912669665 0 0 -1 0 0 0 -1 forward_v I I I I #
coedge $-1 $320 $319 $229 $312 forward $224 $-1 #
straight-curve $-1 -67.955426507560205 -35.707807912669665 -2.0705133712341577 0 0 1 I I #
edge $-1 $315 -35.707807912669665 $313 35.707807912669665 $310 $353 forward 7 unknown #
vertex $-1 $230 $354 #
straight-curve $-1 -36.600356001260607 -35.707807912669665 -5.8947072855036797 1 0 0 I I #
vertex $-1 $232 $355 #
straight-curve $-1 -36.600356001260607 35.707807912669665 -5.8947072855036797 -1 0 0 I I #
point $-1 -67.955426507560205 35.707807912669665 -5.8947072855036797 #
point $-1 -67.955426507560205 -35.707807912669665 -5.8947072855036797 #
coedge $-1 $310 $236 $239 $322 forward $224 $-1 #
coedge $-1 $236 $310 $243 $324 reversed $224 $-1 #
straight-curve $-1 -78.445997497482225 0 -2.387346199432951 0 1 0 I I #
edge $-1 $241 2.387346199432951 $315 5.8947072855036797 $239 $356 forward 7 unknown #
point $-1 -78.445997497482225 35.707807912669665 -2.387346199432951 #
edge $-1 $244 2.387346199432951 $313 5.8947072855036797 $320 $357 forward 7 unknown #
point $-1 -78.445997497482225 -35.707807912669665 -2.387346199432951 #
straight-curve $-1 -67.955426507560205 35.707807912669665 -2.0705133712341577 0 0 -1 I I #
edge $-1 $328 50.75651199932463 $331 53.516241847077247 $250 $358 forward 7 unknown #
vertex $-1 $327 $359 #
straight-curve $-1 -32.180971663785236 -35.707807912669665 39.741487898813965 0 0 1 I I #
edge $-1 $331 7.1468721209488777 $261 42.921326964723832 $260 $360 forward 7 unknown #
vertex $-1 $330 $361 #
straight-curve $-1 -32.180971663785236 -35.707807912669693 3.4202294426249722 0 -0.48480960649040278 -0.87461971476443456 I I #
point $-1 -32.180971663785236 -35.707807912669665 3.4202294426250233 #
point $-1 -67.95542650756019 -32.948078064917048 8.3989140642880837 #
straight-curve $-1 0 -35.707807912669665 8.3989140642880837 1 0 0 I I #
vertex $-1 $267 $362 #
point $-1 -49.068199085672717 -33.150875201639131 5.2571124490644872 #
edge $-1 $339 62.573326605968241 $342 67.55201122763134 $272 $363 forward 7 unknown #
vertex $-1 $286 $364 #
straight-curve $-1 -32.180971663785236 69.152831609218012 8.3989140642880784 0 1 0 I I #
edge $-1 $342 7.1468721209488777 $283 42.921326964723832 $282 $365 forward 7 unknown #
vertex $-1 $341 $366 #
straight-curve $-1 -32.180971663785236 1.0848313071171276 65.881734985509695 0 -0.48480960649040278 0.87461971476443456 I I #
point $-1 -32.180971663785236 32.948078064917027 8.3989140642880784 #
point $-1 -67.95542650756019 35.707807912669665 3.4202294426249864 #
straight-curve $-1 0 35.707807912669665 8.3989140642880837 -1 0 0 I I #
vertex $-1 $289 $367 #
point $-1 -49.068199085672717 33.150875201639124 5.2571124490644818 #
straight-curve $-1 -78.445997497482225 35.707807912669665 0 0 0 -1 I I #
point $-1 -78.445997497482225 -35.707807912669665 -8.3989140642880837 #
straight-curve $-1 -78.445997497482225 0 -8.3989140642880837 0 1 0 I I #
point $-1 -78.445997497482225 35.707807912669665 -8.3989140642880837 #
straight-curve $-1 -78.445997497482225 0 -5.8947072855036797 0 -1 0 I I #
point $-1 -78.445997497482225 -35.707807912669665 -5.8947072855036797 #
point $-1 -78.445997497482225 35.707807912669665 -5.8947072855036797 #
straight-curve $-1 -78.445997497482225 35.707807912669665 0 0 0 -1 I I #
straight-curve $-1 -78.445997497482225 -35.707807912669665 0 0 0 -1 I I #
straight-curve $-1 -32.180971663785236 -86.464319911994295 8.3989140642880855 0 1 0 I I #
point $-1 -32.180971663785236 -35.707807912669665 8.3989140642880837 #
straight-curve $-1 -25.034099542836358 -32.948078064917048 8.3989140642880837 -1 0 0 I I #
point $-1 -32.180971663785236 -32.948078064917048 8.3989140642880837 #
point $-1 -50.068199085672717 -32.276255486874696 4.7723028425740841 #
straight-curve $-1 -32.180971663785236 35.707807912669665 70.972240670256326 0 0 -1 I I #
point $-1 -32.180971663785236 35.707807912669665 8.3989140642880837 #
straight-curve $-1 -25.034099542836358 35.707807912669665 3.4202294426249829 -1 0 0 I I #
point $-1 -32.180971663785236 35.707807912669665 3.4202294426249864 #
point $-1 -50.068199085672717 32.276255486874689 4.7723028425740788 #
End-of-ACIS-data 