500 0 10 0           
7 Unknown 11 ACIS 5.0 NT 24 Thu Mar 25 15:39:33 1999 
-1 9.9999999999999995e-007 1e-010 
body $-1 $10 $-1 $11 #
body $-1 $12 $-1 $13 #
body $-1 $14 $-1 $15 #
body $-1 $16 $-1 $17 #
body $-1 $18 $-1 $19 #
body $-1 $20 $-1 $21 #
body $-1 $22 $-1 $23 #
body $-1 $24 $-1 $25 #
body $-1 $26 $-1 $27 #
body $-1 $28 $-1 $29 #
lump $-1 $-1 $30 $0 #
transform $-1 1 0 0 0 1 0 0 0 1 62.280953398236036 32.340592485599728 9.3272215066199085 1 rotate no_reflect no_shear #
lump $-1 $-1 $31 $1 #
transform $-1 1 0 0 0 1 0 0 0 1 62.280953398236036 32.340592485599728 9.3272215066199085 1 rotate no_reflect no_shear #
lump $-1 $-1 $32 $2 #
transform $-1 1 0 0 0 1 0 0 0 1 62.280953398236036 32.340592485599728 9.3272215066199085 1 rotate no_reflect no_shear #
lump $-1 $-1 $33 $3 #
transform $-1 1 0 0 0 1 0 0 0 1 62.280953398236036 32.340592485599728 9.3272215066199085 1 rotate no_reflect no_shear #
lump $-1 $-1 $34 $4 #
transform $-1 1 0 0 0 1 0 0 0 1 62.280953398236036 32.340592485599728 9.3272215066199085 1 rotate no_reflect no_shear #
lump $-1 $-1 $35 $5 #
transform $-1 1 0 0 0 1 0 0 0 1 62.280953398236036 32.340592485599728 9.3272215066199085 1 rotate no_reflect no_shear #
lump $-1 $-1 $36 $6 #
transform $-1 1 0 0 0 1 0 0 0 1 62.280953398236036 32.340592485599728 9.3272215066199085 1 rotate no_reflect no_shear #
lump $-1 $-1 $37 $7 #
transform $-1 1 0 0 0 1 0 0 0 1 62.280953398236036 32.340592485599728 9.3272215066199085 1 rotate no_reflect no_shear #
lump $-1 $-1 $38 $8 #
transform $-1 1 0 0 0 1 0 0 0 1 62.280953398236036 32.340592485599728 9.3272215066199085 1 rotate no_reflect no_shear #
lump $-1 $-1 $39 $9 #
transform $-1 1 0 0 0 1 0 0 0 1 62.280953398236036 32.340592485599728 9.3272215066199085 1 rotate no_reflect no_shear #
shell $-1 $-1 $-1 $40 $-1 $10 #
shell $-1 $-1 $-1 $41 $-1 $12 #
shell $-1 $-1 $-1 $42 $-1 $14 #
shell $-1 $-1 $-1 $43 $-1 $16 #
shell $-1 $-1 $-1 $44 $-1 $18 #
shell $-1 $-1 $-1 $45 $-1 $20 #
shell $-1 $-1 $-1 $46 $-1 $22 #
shell $-1 $-1 $-1 $47 $-1 $24 #
shell $-1 $-1 $-1 $48 $-1 $26 #
shell $-1 $-1 $-1 $49 $-1 $28 #
face $-1 $50 $51 $30 $-1 $52 forward single #
face $-1 $53 $54 $31 $-1 $55 forward single #
face $-1 $56 $57 $32 $-1 $58 reversed single #
face $-1 $59 $60 $33 $-1 $61 forward single #
face $-1 $62 $63 $34 $-1 $64 forward single #
face $-1 $65 $66 $35 $-1 $67 forward single #
face $-1 $68 $69 $36 $-1 $70 reversed single #
face $-1 $71 $72 $37 $-1 $73 forward single #
face $-1 $74 $75 $38 $-1 $76 reversed single #
face $-1 $77 $78 $39 $-1 $79 forward single #
face $-1 $80 $81 $30 $-1 $82 reversed single #
loop $-1 $-1 $83 $40 #
plane-surface $-1 0 0 9.3272215066199085 0 0 1 1 0 0 forward_v I I I I #
face $-1 $84 $85 $31 $-1 $86 reversed single #
loop $-1 $-1 $87 $41 #
plane-surface $-1 0 -26.259023172634752 5.2562802486800084 0 0 1 1 0 0 forward_v I I I I #
face $-1 $88 $89 $32 $-1 $90 reversed single #
loop $-1 $-1 $91 $42 #
plane-surface $-1 86.797290926318155 14.398089651753398 175.75121623020078 0 1 0 0.79863551827123203 0 0.60181501223851219 forward_v I I I I #
face $-1 $92 $93 $33 $-1 $94 forward single #
loop $-1 $95 $96 $43 #
cone-surface $-1 58.633217134649463 16.280465477035158 4.845768931351091 -0.79863551827123203 0 -0.60181501223851219 0.3009075061192561 0 -0.39931775913561601 1 I I 0 1 0.5 forward I I I I #
face $-1 $97 $98 $34 $-1 $99 forward single #
loop $-1 $100 $101 $44 #
cone-surface $-1 58.633217134649463 19.104029214957791 4.845768931351091 -0.79863551827123203 0 -0.60181501223851219 0.3009075061192561 0 -0.39931775913561601 1 I I 0 1 0.5 forward I I I I #
face $-1 $102 $103 $35 $-1 $104 forward single #
loop $-1 $105 $106 $45 #
cone-surface $-1 58.633217134649463 21.927592952880424 4.845768931351091 -0.79863551827123203 0 -0.60181501223851219 0.3009075061192561 0 -0.39931775913561601 1 I I 0 1 0.5 forward I I I I #
face $-1 $107 $108 $36 $-1 $109 reversed single #
loop $-1 $-1 $110 $46 #
plane-surface $-1 -133.72672892443384 -0.36773765519644286 105.60319314186485 0 1 0 -0.57357644374324357 0 0.81915203911291934 forward_v I I I I #
face $-1 $111 $112 $37 $-1 $113 forward single #
loop $-1 $114 $115 $47 #
cone-surface $-1 -57.813109474799191 2.8569158288842686 5.940114076092339 0.57357644374324357 0 -0.81915203911291934 0.81915203911291934 0 0.57357644374324357 1 I I 0 1 1 forward I I I I #
face $-1 $116 $117 $38 $-1 $118 reversed single #
loop $-1 $-1 $119 $48 #
plane-surface $-1 -133.72672892443384 25.891285517438313 105.60319314186485 0 1 0 -0.57357644374324357 0 0.81915203911291934 forward_v I I I I #
face $-1 $120 $121 $39 $-1 $122 forward single #
loop $-1 $123 $124 $49 #
cone-surface $-1 -57.813109474799191 29.115939001519024 5.940114076092339 0.57357644374324357 0 -0.81915203911291934 0.81915203911291934 0 0.57357644374324357 1 I I 0 1 1 forward I I I I #
face $-1 $125 $126 $30 $-1 $127 reversed single #
loop $-1 $-1 $128 $50 #
plane-surface $-1 0 0 -9.3272215066199085 0 0 1 1 0 0 forward_v I I I I #
coedge $-1 $129 $130 $131 $132 forward $51 $-1 #
face $-1 $133 $134 $31 $-1 $135 reversed single #
loop $-1 $-1 $136 $53 #
plane-surface $-1 0 -26.259023172634752 1.0868553914741472 0 0 1 1 0 0 forward_v I I I I #
coedge $-1 $137 $138 $139 $140 reversed $54 $-1 #
face $-1 $141 $142 $32 $-1 $143 reversed single #
loop $-1 $-1 $144 $56 #
plane-surface $-1 -12.682272064935233 19.104029214957791 100.78799076702951 0.79863551827123203 0 0.60181501223851219 0.60181501223851219 0 -0.79863551827123203 forward_v I I I I #
coedge $-1 $145 $146 $147 $148 reversed $57 $-1 #
face $-1 $-1 $149 $33 $-1 $150 forward single #
loop $-1 $151 $152 $59 #
cone-surface $-1 57.807119152002116 16.280465477035158 4.223259468444537 -0.79863551827123203 0 -0.60181501223851219 0.15045375305962805 0 -0.19965887956780801 1 I I -0.70710678118654746 0.70710678118654746 0.25 forward I I I I #
loop $-1 $-1 $153 $43 #
coedge $-1 $96 $96 $154 $155 reversed $60 $-1 #
face $-1 $-1 $156 $34 $-1 $157 forward single #
loop $-1 $158 $159 $62 #
cone-surface $-1 57.807119152002116 19.104029214957791 4.223259468444537 -0.79863551827123203 0 -0.60181501223851219 0.15045375305962805 0 -0.19965887956780801 1 I I -0.70710678118654746 0.70710678118654746 0.25 forward I I I I #
loop $-1 $-1 $160 $44 #
coedge $-1 $101 $101 $161 $162 reversed $63 $-1 #
face $-1 $-1 $163 $35 $-1 $164 forward single #
loop $-1 $165 $166 $65 #
cone-surface $-1 57.807119152002116 21.927592952880424 4.223259468444537 -0.79863551827123203 0 -0.60181501223851219 0.15045375305962805 0 -0.19965887956780801 1 I I -0.70710678118654746 0.70710678118654746 0.25 forward I I I I #
loop $-1 $-1 $167 $45 #
coedge $-1 $106 $106 $168 $169 reversed $66 $-1 #
face $-1 $170 $171 $36 $-1 $172 reversed single #
loop $-1 $-1 $173 $68 #
plane-surface $-1 -62.280953398236036 2.8569158288842686 3.5680531937413491 -0.57357644374324357 0 0.81915203911291934 0.81915203911291934 0 0.57357644374324357 forward_v I I I I #
coedge $-1 $174 $175 $176 $177 reversed $69 $-1 #
face $-1 $-1 $178 $37 $-1 $179 forward single #
loop $-1 $180 $181 $71 #
cone-surface $-1 -57.170949623768557 2.8569158288842686 5.023014782447591 0.57357644374324357 0 -0.81915203911291934 0.40957601955645967 0 0.28678822187162178 1 I I -0.70710678118654746 0.70710678118654746 0.5 forward I I I I #
loop $-1 $-1 $182 $47 #
coedge $-1 $115 $115 $183 $184 reversed $72 $-1 #
face $-1 $185 $186 $38 $-1 $187 forward single #
loop $-1 $-1 $188 $74 #
plane-surface $-1 -62.280953398236036 29.115939001519024 3.5680531937413491 -0.57357644374324357 0 0.81915203911291934 0.81915203911291934 0 0.57357644374324357 forward_v I I I I #
coedge $-1 $189 $190 $191 $192 reversed $75 $-1 #
face $-1 $-1 $193 $39 $-1 $194 forward single #
loop $-1 $195 $196 $77 #
cone-surface $-1 -57.170949623768557 29.115939001519024 5.023014782447591 0.57357644374324357 0 -0.81915203911291934 0.40957601955645967 0 0.28678822187162178 1 I I -0.70710678118654746 0.70710678118654746 0.5 forward I I I I #
loop $-1 $-1 $197 $49 #
coedge $-1 $124 $124 $198 $199 reversed $78 $-1 #
face $-1 $200 $201 $30 $-1 $202 reversed single #
loop $-1 $-1 $203 $80 #
plane-surface $-1 0 -32.340592485599728 0 0 1 0 0 0 1 forward_v I I I I #
coedge $-1 $204 $205 $206 $207 forward $81 $-1 #
coedge $-1 $208 $83 $209 $210 forward $51 $-1 #
coedge $-1 $83 $208 $211 $212 forward $51 $-1 #
coedge $-1 $213 $214 $83 $132 reversed $215 $-1 #
edge $-1 $216 -32.340592485599728 $217 32.340592485599728 $131 $218 forward 7 unknown #
face $-1 $219 $220 $31 $-1 $221 reversed single #
loop $-1 $-1 $222 $84 #
plane-surface $-1 0 -20.177453859669775 3.1715678200770778 0 -1 0 0 0 -1 forward_v I I I I #
coedge $-1 $223 $224 $225 $226 reversed $85 $-1 #
coedge $-1 $227 $87 $228 $229 forward $54 $-1 #
coedge $-1 $87 $227 $230 $231 reversed $54 $-1 #
coedge $-1 $232 $233 $87 $140 forward $234 $-1 #
edge $-1 $235 7.0479422733523993 $236 19.211080899282351 $139 $237 forward 7 unknown #
face $-1 $238 $239 $32 $-1 $240 forward single #
loop $-1 $-1 $241 $88 #
plane-surface $-1 86.797290926318155 23.809968778162183 175.75121623020078 0 -1 0 -0.79863551827123203 0 -0.60181501223851219 forward_v I I I I #
coedge $-1 $242 $243 $244 $245 reversed $89 $-1 #
coedge $-1 $146 $91 $246 $247 reversed $57 $-1 #
coedge $-1 $91 $145 $242 $248 reversed $57 $-1 #
coedge $-1 $244 $249 $91 $148 forward $250 $-1 #
edge $-1 $251 78.548386608480484 $252 86.567180339324267 $147 $253 forward 7 unknown #
loop $-1 $-1 $154 $92 #
plane-surface $-1 -12.682272064935233 19.104029214957791 100.78799076702951 0.79863551827123203 0 0.60181501223851219 0.60181501223851219 0 -0.79863551827123203 forward_v I I I I #
loop $-1 $-1 $254 $59 #
coedge $-1 $152 $152 $153 $255 reversed $93 $-1 #
coedge $-1 $153 $153 $152 $255 forward $95 $-1 #
coedge $-1 $154 $154 $96 $155 forward $149 $-1 #
edge $-1 $256 0 $256 6.2831853071796004 $154 $257 forward 7 unknown #
loop $-1 $-1 $161 $97 #
plane-surface $-1 -12.682272064935233 19.104029214957791 100.78799076702951 0.79863551827123203 0 0.60181501223851219 0.60181501223851219 0 -0.79863551827123203 forward_v I I I I #
loop $-1 $-1 $258 $62 #
coedge $-1 $159 $159 $160 $259 reversed $98 $-1 #
coedge $-1 $160 $160 $159 $259 forward $100 $-1 #
coedge $-1 $161 $161 $101 $162 forward $156 $-1 #
edge $-1 $260 0 $260 6.2831853071796004 $161 $261 forward 7 unknown #
loop $-1 $-1 $168 $102 #
plane-surface $-1 -12.682272064935233 19.104029214957791 100.78799076702951 0.79863551827123203 0 0.60181501223851219 0.60181501223851219 0 -0.79863551827123203 forward_v I I I I #
loop $-1 $-1 $262 $65 #
coedge $-1 $166 $166 $167 $263 reversed $103 $-1 #
coedge $-1 $167 $167 $166 $263 forward $105 $-1 #
coedge $-1 $168 $168 $106 $169 forward $163 $-1 #
edge $-1 $264 0 $264 6.2831853071796004 $168 $265 forward 7 unknown #
face $-1 $266 $267 $36 $-1 $268 reversed single #
loop $-1 $-1 $269 $107 #
plane-surface $-1 -133.72672892443384 6.0815693129649802 105.60319314186485 0 -1 0 0.57357644374324357 0 -0.81915203911291934 forward_v I I I I #
coedge $-1 $270 $271 $272 $273 reversed $108 $-1 #
coedge $-1 $175 $110 $274 $275 reversed $69 $-1 #
coedge $-1 $110 $174 $270 $276 reversed $69 $-1 #
coedge $-1 $272 $277 $110 $177 forward $278 $-1 #
edge $-1 $279 4.582411063980885 $280 12.807355652536529 $176 $281 forward 7 unknown #
loop $-1 $-1 $183 $111 #
plane-surface $-1 -62.280953398236036 2.8569158288842686 3.5680531937413491 -0.57357644374324357 0 0.81915203911291934 0.81915203911291934 0 0.57357644374324357 forward_v I I I I #
loop $-1 $-1 $282 $71 #
coedge $-1 $181 $181 $182 $283 reversed $112 $-1 #
coedge $-1 $182 $182 $181 $283 forward $114 $-1 #
coedge $-1 $183 $183 $115 $184 forward $178 $-1 #
edge $-1 $284 0 $284 6.2831853071796004 $183 $285 forward 7 unknown #
face $-1 $286 $287 $38 $-1 $288 reversed single #
loop $-1 $-1 $191 $116 #
plane-surface $-1 0 0 9.3272215066199085 0 0 1 1 0 0 forward_v I I I I #
coedge $-1 $289 $290 $291 $292 reversed $117 $-1 #
coedge $-1 $190 $119 $293 $294 reversed $75 $-1 #
coedge $-1 $119 $189 $289 $295 reversed $75 $-1 #
coedge $-1 $291 $296 $119 $192 forward $186 $-1 #
edge $-1 $297 4.582411063980885 $298 12.807355652536529 $191 $299 forward 7 unknown #
loop $-1 $-1 $198 $120 #
plane-surface $-1 -62.280953398236036 29.115939001519024 3.5680531937413491 -0.57357644374324357 0 0.81915203911291934 0.81915203911291934 0 0.57357644374324357 forward_v I I I I #
loop $-1 $-1 $300 $77 #
coedge $-1 $196 $196 $197 $301 reversed $121 $-1 #
coedge $-1 $197 $197 $196 $301 forward $123 $-1 #
coedge $-1 $198 $198 $124 $199 forward $193 $-1 #
edge $-1 $302 0 $302 6.2831853071796004 $198 $303 forward 7 unknown #
face $-1 $304 $305 $30 $-1 $306 reversed single #
loop $-1 $-1 $307 $125 #
plane-surface $-1 -62.280953398236036 0 0 1 0 0 0 0 -1 forward_v I I I I #
coedge $-1 $308 $211 $309 $310 forward $126 $-1 #
coedge $-1 $311 $128 $308 $312 forward $81 $-1 #
coedge $-1 $128 $311 $313 $314 forward $81 $-1 #
coedge $-1 $214 $213 $128 $207 reversed $215 $-1 #
edge $-1 $315 -32.340592485599728 $316 32.340592485599728 $206 $317 forward 7 unknown #
coedge $-1 $130 $129 $318 $319 forward $51 $-1 #
coedge $-1 $320 $321 $129 $210 reversed $305 $-1 #
edge $-1 $217 -62.280953398236036 $322 62.280953398236036 $209 $323 forward 7 unknown #
coedge $-1 $203 $324 $130 $212 reversed $126 $-1 #
edge $-1 $325 -62.280953398236036 $216 62.280953398236036 $211 $326 forward 7 unknown #
coedge $-1 $206 $131 $324 $327 forward $215 $-1 #
coedge $-1 $131 $206 $320 $328 reversed $215 $-1 #
loop $-1 $-1 $213 $304 #
vertex $-1 $132 $329 #
vertex $-1 $132 $330 #
straight-curve $-1 62.280953398236036 0 9.3272215066199085 0 1 0 I I #
face $-1 $331 $332 $31 $-1 $333 reversed single #
loop $-1 $-1 $334 $133 #
plane-surface $-1 -62.280953398236036 0 0 1 0 0 0 0 -1 forward_v I I I I #
coedge $-1 $335 $228 $233 $336 reversed $134 $-1 #
coedge $-1 $337 $136 $338 $339 reversed $85 $-1 #
coedge $-1 $136 $337 $335 $340 forward $85 $-1 #
coedge $-1 $233 $232 $136 $226 forward $234 $-1 #
edge $-1 $341 -19.211080899282351 $342 -7.0479422733523993 $225 $343 forward 7 unknown #
coedge $-1 $138 $137 $334 $344 reversed $54 $-1 #
coedge $-1 $222 $345 $137 $229 reversed $134 $-1 #
edge $-1 $235 -62.280953398236036 $346 62.280953398236036 $228 $347 forward 7 unknown #
coedge $-1 $348 $349 $138 $231 forward $332 $-1 #
edge $-1 $236 -62.280953398236036 $350 62.280953398236036 $230 $351 forward 7 unknown #
coedge $-1 $225 $139 $349 $352 forward $234 $-1 #
coedge $-1 $139 $225 $222 $336 forward $234 $-1 #
loop $-1 $-1 $139 $331 #
vertex $-1 $140 $353 #
vertex $-1 $352 $354 #
straight-curve $-1 62.280953398236036 -13.129511586317376 5.2562802486800084 0 -1 0 I I #
face $-1 $-1 $250 $32 $-1 $355 reversed single #
loop $-1 $-1 $356 $141 #
plane-surface $-1 0 0 9.3272215066199085 0 0 1 1 0 0 forward_v I I I I #
coedge $-1 $357 $358 $359 $360 reversed $142 $-1 #
coedge $-1 $361 $144 $146 $248 forward $89 $-1 #
coedge $-1 $144 $361 $357 $362 forward $89 $-1 #
coedge $-1 $359 $147 $144 $245 forward $250 $-1 #
edge $-1 $252 4.8460750442745031 $363 14.257954170683288 $244 $364 forward 7 unknown #
coedge $-1 $365 $366 $145 $247 forward $239 $-1 #
edge $-1 $367 12.839713614062909 $251 18.882307935076959 $246 $368 forward 7 unknown #
edge $-1 $252 -124.56190679647207 $367 -114.52128933407613 $146 $369 forward 7 unknown #
coedge $-1 $147 $359 $365 $370 reversed $250 $-1 #
loop $-1 $-1 $359 $238 #
vertex $-1 $370 $371 #
vertex $-1 $148 $372 #
straight-curve $-1 62.280953398236036 14.398089651753398 87.875608115100391 0 0 -1 I I #
coedge $-1 $254 $254 $-1 $373 reversed $151 $-1 #
edge $-1 $374 0 $374 6.2831853071796004 $152 $375 forward 7 unknown #
vertex $-1 $155 $376 #
ellipse-curve $-1 59.259656237729004 16.280465477035158 5.3178246411980208 0.79863551827123203 0 0.60181501223851219 0.3009075061192561 0 -0.39931775913561601 1 I I #
coedge $-1 $258 $258 $-1 $377 reversed $158 $-1 #
edge $-1 $378 0 $378 6.2831853071796004 $159 $379 forward 7 unknown #
vertex $-1 $162 $380 #
ellipse-curve $-1 59.259656237729004 19.104029214957791 5.3178246411980208 0.79863551827123203 0 0.60181501223851219 0.3009075061192561 0 -0.39931775913561601 1 I I #
coedge $-1 $262 $262 $-1 $381 reversed $165 $-1 #
edge $-1 $382 0 $382 6.2831853071796004 $166 $383 forward 7 unknown #
vertex $-1 $169 $384 #
ellipse-curve $-1 59.259656237729004 21.927592952880424 5.3178246411980208 0.79863551827123203 0 0.60181501223851219 0.3009075061192561 0 -0.39931775913561601 1 I I #
face $-1 $-1 $278 $36 $-1 $385 forward single #
loop $-1 $-1 $386 $170 #
plane-surface $-1 -62.280953398236036 0 0 1 0 0 0 0 -1 forward_v I I I I #
coedge $-1 $387 $388 $389 $390 reversed $171 $-1 #
coedge $-1 $391 $173 $175 $276 forward $108 $-1 #
coedge $-1 $173 $391 $387 $392 forward $108 $-1 #
coedge $-1 $389 $176 $173 $273 forward $278 $-1 #
edge $-1 $280 -1.7961955696385772 $393 4.6531113985228458 $272 $394 forward 7 unknown #
coedge $-1 $395 $396 $174 $275 forward $267 $-1 #
edge $-1 $397 -49.233543377191076 $279 -43.474375064312518 $274 $398 forward 7 unknown #
edge $-1 $280 -10.040803411125788 $397 0 $175 $399 forward 7 unknown #
coedge $-1 $176 $389 $395 $400 forward $278 $-1 #
loop $-1 $-1 $389 $266 #
vertex $-1 $275 $401 #
vertex $-1 $177 $402 #
straight-curve $-1 -66.863364462216921 -0.36773765519644286 9.3272215066199067 1 0 0 I I #
coedge $-1 $282 $282 $-1 $403 reversed $180 $-1 #
edge $-1 $404 0 $404 6.2831853071796004 $181 $405 forward 7 unknown #
vertex $-1 $184 $406 #
ellipse-curve $-1 -58.168481103958207 2.8569158288842686 6.4476373501806314 -0.57357644374324357 0 0.81915203911291934 0.81915203911291934 0 0.57357644374324357 1 I I #
face $-1 $-1 $407 $38 $-1 $408 reversed single #
loop $-1 $-1 $409 $185 #
plane-surface $-1 0 32.340592485599728 0 0 -1 0 0 0 -1 forward_v I I I I #
coedge $-1 $410 $188 $190 $295 forward $117 $-1 #
coedge $-1 $188 $410 $409 $411 reversed $117 $-1 #
coedge $-1 $412 $191 $188 $292 forward $186 $-1 #
edge $-1 $298 11.333316016678801 $413 17.782622984840224 $291 $414 forward 7 unknown #
coedge $-1 $415 $416 $189 $294 forward $407 $-1 #
edge $-1 $417 -49.233543377191076 $297 -43.474375064312518 $293 $418 forward 7 unknown #
edge $-1 $298 -10.040803411125788 $417 0 $190 $419 forward 7 unknown #
coedge $-1 $191 $412 $415 $420 forward $186 $-1 #
vertex $-1 $294 $421 #
vertex $-1 $192 $422 #
straight-curve $-1 -66.863364462216921 25.891285517438313 9.3272215066199067 1 0 0 I I #
coedge $-1 $300 $300 $-1 $423 reversed $195 $-1 #
edge $-1 $424 0 $424 6.2831853071796004 $196 $425 forward 7 unknown #
vertex $-1 $199 $426 #
ellipse-curve $-1 -58.168481103958207 29.115939001519024 6.4476373501806314 -0.57357644374324357 0 0.81915203911291934 0.81915203911291934 0 0.57357644374324357 1 I I #
face $-1 $-1 $215 $30 $-1 $427 reversed single #
loop $-1 $-1 $320 $200 #
plane-surface $-1 0 32.340592485599728 0 0 -1 0 0 0 -1 forward_v I I I I #
coedge $-1 $428 $318 $321 $429 forward $201 $-1 #
coedge $-1 $324 $203 $204 $312 reversed $126 $-1 #
coedge $-1 $318 $428 $203 $310 reversed $201 $-1 #
edge $-1 $325 -9.3272215066199085 $430 9.3272215066199085 $309 $431 forward 7 unknown #
coedge $-1 $205 $204 $428 $432 forward $81 $-1 #
edge $-1 $316 -62.280953398236036 $430 62.280953398236036 $308 $433 forward 7 unknown #
coedge $-1 $321 $320 $205 $314 reversed $305 $-1 #
edge $-1 $434 -62.280953398236036 $315 62.280953398236036 $313 $435 forward 7 unknown #
vertex $-1 $207 $436 #
vertex $-1 $327 $437 #
straight-curve $-1 62.280953398236036 0 -9.3272215066199085 0 -1 0 I I #
coedge $-1 $307 $309 $208 $319 reversed $201 $-1 #
edge $-1 $322 -32.340592485599728 $325 32.340592485599728 $318 $438 forward 7 unknown #
coedge $-1 $313 $209 $214 $328 forward $305 $-1 #
coedge $-1 $209 $313 $307 $429 reversed $305 $-1 #
vertex $-1 $210 $439 #
straight-curve $-1 0 32.340592485599728 9.3272215066199085 -1 0 0 I I #
coedge $-1 $211 $308 $213 $327 reversed $126 $-1 #
vertex $-1 $319 $440 #
straight-curve $-1 0 -32.340592485599728 9.3272215066199085 1 0 0 I I #
edge $-1 $216 -9.3272215066199085 $316 9.3272215066199085 $213 $441 forward 7 unknown #
edge $-1 $217 -9.3272215066199085 $315 9.3272215066199085 $214 $442 forward 7 unknown #
point $-1 62.280953398236036 -32.340592485599728 9.3272215066199085 #
point $-1 62.280953398236036 32.340592485599728 9.3272215066199085 #
face $-1 $-1 $234 $31 $-1 $443 reversed single #
loop $-1 $-1 $230 $219 #
plane-surface $-1 0 -32.340592485599728 0 0 1 0 0 0 1 forward_v I I I I #
coedge $-1 $444 $445 $227 $344 forward $220 $-1 #
coedge $-1 $345 $222 $224 $340 reversed $134 $-1 #
edge $-1 $342 -0.49892851856439169 $235 3.6704963386414695 $233 $446 forward 7 unknown #
coedge $-1 $224 $223 $447 $448 reversed $85 $-1 #
coedge $-1 $349 $348 $223 $339 forward $332 $-1 #
edge $-1 $449 -62.280953398236036 $341 62.280953398236036 $338 $450 forward 7 unknown #
edge $-1 $451 -62.280953398236036 $342 62.280953398236036 $335 $452 forward 7 unknown #
vertex $-1 $339 $453 #
vertex $-1 $226 $454 #
straight-curve $-1 62.280953398236036 -13.129511586317376 1.0868553914741472 0 1 0 I I #
edge $-1 $350 -19.211080899282351 $346 -7.0479422733523993 $334 $455 forward 7 unknown #
coedge $-1 $228 $335 $444 $456 reversed $134 $-1 #
vertex $-1 $344 $457 #
straight-curve $-1 0 -20.177453859669775 5.2562802486800084 -1 0 0 I I #
coedge $-1 $338 $230 $445 $458 forward $332 $-1 #
coedge $-1 $230 $338 $232 $352 reversed $332 $-1 #
vertex $-1 $458 $459 #
straight-curve $-1 0 -32.340592485599728 5.2562802486800084 -1 0 0 I I #
edge $-1 $236 -5.2562802486800084 $341 -1.0868553914741472 $232 $460 forward 7 unknown #
point $-1 62.280953398236036 -20.177453859669775 5.2562802486800084 #
point $-1 62.280953398236036 -32.340592485599728 5.2562802486800084 #
plane-surface $-1 62.280953398236036 0 0 -1 0 0 0 0 1 forward_v I I I I #
coedge $-1 $366 $365 $358 $461 forward $239 $-1 #
coedge $-1 $358 $241 $243 $362 reversed $142 $-1 #
coedge $-1 $241 $357 $356 $461 reversed $142 $-1 #
coedge $-1 $249 $244 $241 $360 forward $250 $-1 #
edge $-1 $363 -86.567180339324267 $462 -78.548386608480484 $359 $463 forward 7 unknown #
coedge $-1 $243 $242 $366 $464 reversed $89 $-1 #
edge $-1 $465 114.52128933407613 $363 124.56190679647207 $357 $466 forward 7 unknown #
vertex $-1 $245 $467 #
straight-curve $-1 62.280953398236036 9.5520146074788954 1.3084277757761171 0 1 0 I I #
coedge $-1 $356 $246 $249 $370 forward $239 $-1 #
coedge $-1 $246 $356 $361 $464 forward $239 $-1 #
vertex $-1 $247 $468 #
straight-curve $-1 43.398645463159077 14.398089651753398 9.3272215066199067 1 0 0 I I #
straight-curve $-1 -12.682272064935233 14.398089651753398 100.78799076702951 -0.60181501223851219 0 0.79863551827123203 I I #
edge $-1 $251 14.398089651753398 $462 23.809968778162183 $249 $469 forward 7 unknown #
point $-1 62.280953398236036 14.398089651753398 9.3272215066199085 #
point $-1 62.280953398236036 14.398089651753398 1.3084277757761242 #
edge $-1 $470 1 $470 0 $254 $-1 forward 7 unknown #
vertex $-1 $255 $471 #
ellipse-curve $-1 58.006778031569922 16.280465477035158 4.3737132215041647 0.79863551827123203 0 0.60181501223851219 0.3009075061192561 0 -0.39931775913561601 1 I I #
point $-1 59.560563743848256 16.280465477035158 4.9185068820624016 #
edge $-1 $472 1 $472 0 $258 $-1 forward 7 unknown #
vertex $-1 $259 $473 #
ellipse-curve $-1 58.006778031569922 19.104029214957791 4.3737132215041647 0.79863551827123203 0 0.60181501223851219 0.3009075061192561 0 -0.39931775913561601 1 I I #
point $-1 59.560563743848256 19.104029214957791 4.9185068820624016 #
edge $-1 $474 1 $474 0 $262 $-1 forward 7 unknown #
vertex $-1 $263 $475 #
ellipse-curve $-1 58.006778031569922 21.927592952880424 4.3737132215041647 0.79863551827123203 0 0.60181501223851219 0.3009075061192561 0 -0.39931775913561601 1 I I #
point $-1 59.560563743848256 21.927592952880424 4.9185068820624016 #
plane-surface $-1 0 0 9.3272215066199085 0 0 1 1 0 0 forward_v I I I I #
coedge $-1 $396 $395 $388 $476 forward $267 $-1 #
coedge $-1 $388 $269 $271 $392 reversed $171 $-1 #
coedge $-1 $269 $387 $386 $476 reversed $171 $-1 #
coedge $-1 $277 $272 $269 $390 forward $278 $-1 #
edge $-1 $393 -12.807355652536529 $477 -4.582411063980885 $389 $478 forward 7 unknown #
coedge $-1 $271 $270 $396 $479 reversed $108 $-1 #
edge $-1 $480 0 $393 10.040803411125788 $387 $481 forward 7 unknown #
vertex $-1 $273 $482 #
straight-curve $-1 -54.056008809680385 1.4284579144421343 9.3272215066199102 0 1 0 I I #
coedge $-1 $386 $274 $277 $400 reversed $267 $-1 #
coedge $-1 $274 $386 $391 $479 forward $267 $-1 #
vertex $-1 $275 $483 #
straight-curve $-1 -62.280953398236036 -0.36773765519644286 52.801596570932425 0 0 1 I I #
straight-curve $-1 -62.280953398236036 -0.36773765519644286 3.5680531937413491 -0.81915203911291934 0 -0.57357644374324357 I I #
edge $-1 $477 -6.0815693129649802 $279 0.36773765519644286 $395 $484 forward 7 unknown #
point $-1 -62.280953398236036 -0.36773765519644286 9.3272215066199085 #
point $-1 -54.056008809680392 -0.36773765519644286 9.3272215066199085 #
edge $-1 $485 1 $485 0 $282 $-1 forward 7 unknown #
vertex $-1 $283 $486 #
ellipse-curve $-1 -57.457737845640182 2.8569158288842686 5.432590802004051 -0.57357644374324357 0 0.81915203911291934 0.81915203911291934 0 0.57357644374324357 1 I I #
point $-1 -57.349329064845293 2.8569158288842686 7.0212137939238701 #
loop $-1 $-1 $293 $286 #
plane-surface $-1 -62.280953398236036 0 0 1 0 0 0 0 -1 forward_v I I I I #
coedge $-1 $487 $488 $290 $411 forward $287 $-1 #
coedge $-1 $290 $289 $416 $489 reversed $117 $-1 #
edge $-1 $413 14.44470594492865 $490 24.485509356054436 $409 $491 forward 7 unknown #
coedge $-1 $296 $291 $488 $492 forward $186 $-1 #
vertex $-1 $492 $493 #
straight-curve $-1 -54.056008809680385 14.557969500759512 9.3272215066199102 0 1 0 I I #
coedge $-1 $494 $293 $296 $420 reversed $407 $-1 #
coedge $-1 $293 $494 $410 $489 forward $407 $-1 #
vertex $-1 $294 $495 #
straight-curve $-1 -62.280953398236036 25.891285517438313 52.801596570932425 0 0 1 I I #
straight-curve $-1 -62.280953398236036 25.891285517438313 3.5680531937413491 -0.81915203911291934 0 -0.57357644374324357 I I #
edge $-1 $496 -32.340592485599728 $297 -25.891285517438313 $415 $497 forward 7 unknown #
point $-1 -62.280953398236036 25.891285517438313 9.3272215066199085 #
point $-1 -54.056008809680392 25.891285517438313 9.3272215066199085 #
edge $-1 $498 1 $498 0 $300 $-1 forward 7 unknown #
vertex $-1 $301 $499 #
ellipse-curve $-1 -57.457737845640182 29.115939001519024 5.432590802004051 -0.57357644374324357 0 0.81915203911291934 0.81915203911291934 0 0.57357644374324357 1 I I #
point $-1 -57.349329064845293 29.115939001519024 7.0212137939238701 #
plane-surface $-1 62.280953398236036 0 0 -1 0 0 0 0 1 forward_v I I I I #
coedge $-1 $309 $307 $311 $432 reversed $201 $-1 #
edge $-1 $322 -9.3272215066199085 $434 9.3272215066199085 $321 $500 forward 7 unknown #
vertex $-1 $432 $501 #
straight-curve $-1 -62.280953398236036 -32.340592485599728 0 0 0 -1 I I #
edge $-1 $430 -32.340592485599728 $434 32.340592485599728 $428 $502 forward 7 unknown #
straight-curve $-1 0 -32.340592485599728 -9.3272215066199085 -1 0 0 I I #
vertex $-1 $314 $503 #
straight-curve $-1 0 32.340592485599728 -9.3272215066199085 1 0 0 I I #
point $-1 62.280953398236036 32.340592485599728 -9.3272215066199085 #
point $-1 62.280953398236036 -32.340592485599728 -9.3272215066199085 #
straight-curve $-1 -62.280953398236036 0 9.3272215066199085 0 -1 0 I I #
point $-1 -62.280953398236036 32.340592485599728 9.3272215066199085 #
point $-1 -62.280953398236036 -32.340592485599728 9.3272215066199085 #
straight-curve $-1 62.280953398236036 -32.340592485599728 0 0 0 -1 I I #
straight-curve $-1 62.280953398236036 32.340592485599728 0 0 0 -1 I I #
plane-surface $-1 62.280953398236036 0 0 -1 0 0 0 0 1 forward_v I I I I #
coedge $-1 $447 $334 $345 $456 forward $220 $-1 #
coedge $-1 $334 $447 $348 $458 reversed $220 $-1 #
straight-curve $-1 62.280953398236036 -20.177453859669775 1.5857839100385389 0 0 1 I I #
coedge $-1 $445 $444 $337 $448 forward $220 $-1 #
edge $-1 $451 7.0479422733523993 $449 19.211080899282351 $447 $504 forward 7 unknown #
vertex $-1 $339 $505 #
straight-curve $-1 0 -32.340592485599728 1.0868553914741472 1 0 0 I I #
vertex $-1 $448 $506 #
straight-curve $-1 0 -20.177453859669775 1.0868553914741472 1 0 0 I I #
point $-1 62.280953398236036 -32.340592485599728 1.0868553914741472 #
point $-1 62.280953398236036 -20.177453859669775 1.0868553914741472 #
straight-curve $-1 -62.280953398236036 -13.129511586317376 5.2562802486800084 0 1 0 I I #
edge $-1 $346 -3.6704963386414695 $451 0.49892851856439169 $444 $507 forward 7 unknown #
point $-1 -62.280953398236036 -20.177453859669775 5.2562802486800084 #
edge $-1 $350 -5.2562802486800084 $449 -1.0868553914741472 $445 $508 forward 7 unknown #
point $-1 -62.280953398236036 -32.340592485599728 5.2562802486800084 #
straight-curve $-1 62.280953398236036 -32.340592485599728 0 0 0 -1 I I #
edge $-1 $462 -18.882307935076959 $465 -12.839713614062909 $356 $509 forward 7 unknown #
vertex $-1 $461 $510 #
straight-curve $-1 62.280953398236036 23.809968778162183 87.875608115100391 0 0 1 I I #
edge $-1 $465 -14.257954170683288 $367 -4.8460750442745031 $366 $511 forward 7 unknown #
vertex $-1 $464 $512 #
straight-curve $-1 -12.682272064935233 23.809968778162183 100.78799076702951 0.60181501223851219 0 -0.79863551827123203 I I #
point $-1 62.280953398236036 23.809968778162183 1.3084277757761242 #
point $-1 56.238359077221986 14.398089651753398 9.3272215066199067 #
straight-curve $-1 62.280953398236036 0 9.3272215066199085 0 1 0 I I #
vertex $-1 $373 $513 #
point $-1 58.307685537689181 16.280465477035158 3.9743954623685491 #
vertex $-1 $377 $514 #
point $-1 58.307685537689181 19.104029214957791 3.9743954623685491 #
vertex $-1 $381 $515 #
point $-1 58.307685537689181 21.927592952880424 3.9743954623685491 #
edge $-1 $477 43.474375064312518 $480 49.233543377191076 $386 $516 forward 7 unknown #
vertex $-1 $400 $517 #
straight-curve $-1 -66.863364462216921 6.0815693129649802 9.3272215066199067 -1 0 0 I I #
edge $-1 $480 -4.6531113985228458 $397 1.7961955696385772 $396 $518 forward 7 unknown #
vertex $-1 $479 $519 #
straight-curve $-1 -62.280953398236036 6.0815693129649802 3.5680531937413491 0.81915203911291934 0 0.57357644374324357 I I #
point $-1 -54.056008809680392 6.0815693129649802 9.3272215066199085 #
point $-1 -62.280953398236036 -0.36773765519644286 3.5680531937413491 #
straight-curve $-1 -62.280953398236036 0 9.3272215066199085 0 -1 0 I I #
vertex $-1 $403 $520 #
point $-1 -56.63858580652726 2.8569158288842686 6.0061672457472941 #
coedge $-1 $488 $409 $494 $521 reversed $287 $-1 #
coedge $-1 $409 $487 $412 $492 reversed $287 $-1 #
edge $-1 $490 -17.782622984840224 $417 -11.333316016678801 $416 $522 forward 7 unknown #
vertex $-1 $411 $523 #
straight-curve $-1 -42.223598480505579 32.340592485599728 17.61236457342897 -0.81915203911291934 0 -0.57357644374324357 I I #
edge $-1 $413 54.056008809680392 $496 62.280953398236036 $488 $524 forward 7 unknown #
point $-1 -54.056008809680392 32.340592485599736 9.3272215066199085 #
coedge $-1 $416 $415 $487 $521 forward $407 $-1 #
point $-1 -62.280953398236036 25.891285517438313 3.5680531937413491 #
vertex $-1 $492 $525 #
straight-curve $-1 -62.280953398236036 0 9.3272215066199085 0 -1 0 I I #
vertex $-1 $423 $526 #
point $-1 -56.63858580652726 29.115939001519024 6.0061672457472941 #
straight-curve $-1 -62.280953398236036 32.340592485599728 0 0 0 -1 I I #
point $-1 -62.280953398236036 -32.340592485599728 -9.3272215066199085 #
straight-curve $-1 -62.280953398236036 0 -9.3272215066199085 0 1 0 I I #
point $-1 -62.280953398236036 32.340592485599728 -9.3272215066199085 #
straight-curve $-1 -62.280953398236036 -13.129511586317376 1.0868553914741472 0 -1 0 I I #
point $-1 -62.280953398236036 -32.340592485599728 1.0868553914741472 #
point $-1 -62.280953398236036 -20.177453859669775 1.0868553914741472 #
straight-curve $-1 -62.280953398236036 -20.177453859669775 1.5857839100385389 0 0 -1 I I #
straight-curve $-1 -62.280953398236036 -32.340592485599728 0 0 0 -1 I I #
straight-curve $-1 43.398645463159077 23.809968778162183 9.3272215066199067 -1 0 0 I I #
point $-1 62.280953398236036 23.809968778162183 9.3272215066199085 #
straight-curve $-1 56.238359077221986 9.5520146074788954 9.3272215066199067 0 -1 0 I I #
point $-1 56.238359077221986 23.809968778162183 9.3272215066199067 #
point $-1 57.607460272434309 16.280465477035158 4.0728057153849093 #
point $-1 57.607460272434309 19.104029214957791 4.0728057153849093 #
point $-1 57.607460272434309 21.927592952880424 4.0728057153849093 #
straight-curve $-1 -62.280953398236036 6.0815693129649802 52.801596570932425 0 0 -1 I I #
point $-1 -62.280953398236036 6.0815693129649802 9.3272215066199085 #
straight-curve $-1 -62.280953398236036 1.4284579144421343 3.5680531937413495 0 -1 0 I I #
point $-1 -62.280953398236036 6.0815693129649802 3.5680531937413491 #
point $-1 -56.884161401896932 2.8569158288842686 4.6134387628911311 #
edge $-1 $496 -9.3272215066199085 $490 -3.5680531937413491 $487 $527 forward 7 unknown #
straight-curve $-1 -62.280953398236036 14.557969500759512 3.5680531937413495 0 -1 0 I I #
point $-1 -62.280953398236036 32.340592485599736 3.5680531937413491 #
straight-curve $-1 0 32.340592485599728 9.3272215066199085 -1 0 0 I I #
point $-1 -62.280953398236036 32.340592485599728 9.3272215066199085 #
point $-1 -56.884161401896932 29.115939001519024 4.6134387628911311 #
straight-curve $-1 -62.280953398236036 32.340592485599728 0 0 0 -1 I I #
End-of-ACIS-data 