500 0 12 0           
7 Unknown 11 ACIS 5.0 NT 24 Thu Mar 25 16:55:31 1999 
-1 9.9999999999999995e-007 1e-010 
body $-1 $12 $-1 $13 #
body $-1 $14 $-1 $15 #
body $-1 $16 $-1 $17 #
body $-1 $18 $-1 $19 #
body $-1 $20 $-1 $21 #
body $-1 $22 $-1 $23 #
body $-1 $24 $-1 $25 #
body $-1 $26 $-1 $27 #
body $-1 $28 $-1 $29 #
body $-1 $30 $-1 $31 #
body $-1 $32 $-1 $33 #
body $-1 $34 $-1 $35 #
lump $-1 $-1 $36 $0 #
transform $-1 1 0 0 0 1 0 0 0 1 62.879116183965571 42.026937461780896 20.400899214860708 1 rotate no_reflect no_shear #
lump $-1 $-1 $37 $1 #
transform $-1 1 0 0 0 1 0 0 0 1 62.879116183965571 42.026937461780896 20.400899214860708 1 rotate no_reflect no_shear #
lump $-1 $-1 $38 $2 #
transform $-1 1 0 0 0 1 0 0 0 1 62.879116183965571 42.026937461780896 20.400899214860708 1 rotate no_reflect no_shear #
lump $-1 $-1 $39 $3 #
transform $-1 1 0 0 0 1 0 0 0 1 62.879116183965571 42.026937461780896 20.400899214860708 1 rotate no_reflect no_shear #
lump $-1 $-1 $40 $4 #
transform $-1 1 0 0 0 1 0 0 0 1 62.879116183965571 42.026937461780896 20.400899214860708 1 rotate no_reflect no_shear #
lump $-1 $-1 $41 $5 #
transform $-1 1 0 0 0 1 0 0 0 1 62.879116183965571 42.026937461780896 20.400899214860708 1 rotate no_reflect no_shear #
lump $-1 $-1 $42 $6 #
transform $-1 1 0 0 0 1 0 0 0 1 62.879116183965571 42.026937461780896 20.400899214860708 1 rotate no_reflect no_shear #
lump $-1 $-1 $43 $7 #
transform $-1 1 0 0 0 1 0 0 0 1 62.879116183965571 42.026937461780896 20.400899214860708 1 rotate no_reflect no_shear #
lump $-1 $-1 $44 $8 #
transform $-1 1 0 0 0 1 0 0 0 1 62.879116183965571 42.026937461780896 20.400899214860708 1 rotate no_reflect no_shear #
lump $-1 $-1 $45 $9 #
transform $-1 1 0 0 0 1 0 0 0 1 62.879116183965571 42.026937461780896 20.400899214860708 1 rotate no_reflect no_shear #
lump $-1 $-1 $46 $10 #
transform $-1 1 0 0 0 1 0 0 0 1 62.879116183965571 42.026937461780896 20.400899214860708 1 rotate no_reflect no_shear #
lump $-1 $-1 $47 $11 #
transform $-1 1 0 0 0 1 0 0 0 1 62.879116183965571 42.026937461780896 20.400899214860708 1 rotate no_reflect no_shear #
shell $-1 $-1 $-1 $48 $-1 $12 #
shell $-1 $-1 $-1 $49 $-1 $14 #
shell $-1 $-1 $-1 $50 $-1 $16 #
shell $-1 $-1 $-1 $51 $-1 $18 #
shell $-1 $-1 $-1 $52 $-1 $20 #
shell $-1 $-1 $-1 $53 $-1 $22 #
shell $-1 $-1 $-1 $54 $-1 $24 #
shell $-1 $-1 $-1 $55 $-1 $26 #
shell $-1 $-1 $-1 $56 $-1 $28 #
shell $-1 $-1 $-1 $57 $-1 $30 #
shell $-1 $-1 $-1 $58 $-1 $32 #
shell $-1 $-1 $-1 $59 $-1 $34 #
face $-1 $60 $61 $36 $-1 $62 forward single #
face $-1 $63 $64 $37 $-1 $65 reversed single #
face $-1 $66 $67 $38 $-1 $68 reversed single #
face $-1 $69 $70 $39 $-1 $71 forward single #
face $-1 $72 $73 $40 $-1 $74 reversed single #
face $-1 $75 $76 $41 $-1 $77 forward single #
face $-1 $78 $79 $42 $-1 $80 reversed single #
face $-1 $81 $82 $43 $-1 $83 forward single #
face $-1 $84 $85 $44 $-1 $86 forward single #
face $-1 $87 $88 $45 $-1 $89 reversed single #
face $-1 $90 $91 $46 $-1 $92 forward single #
face $-1 $93 $94 $47 $-1 $95 forward single #
face $-1 $96 $97 $36 $-1 $98 reversed single #
loop $-1 $-1 $99 $48 #
plane-surface $-1 0 0 20.400899214860708 0 0 1 1 0 0 forward_v I I I I #
face $-1 $100 $101 $37 $-1 $102 reversed single #
loop $-1 $-1 $103 $49 #
plane-surface $-1 -51.513909527272936 0 14.58987737178747 0 0 1 1 0 0 forward_v I I I I #
face $-1 $104 $105 $38 $-1 $106 reversed single #
loop $-1 $-1 $107 $50 #
plane-surface $-1 -2.2172604476551854 -126.17562075279864 101.40214146656757 -1 0 0 0 -0.66913061440640931 0.74314481823134659 forward_v I I I I #
face $-1 $108 $109 $39 $-1 $110 forward single #
loop $-1 $111 $112 $51 #
cone-surface $-1 -12.292791288863206 -32.528907171308198 11.306180215348602 0 0.66913061440640931 -0.74314481823134659 2 0 0 1 I I 0 1 2 forward I I I I #
face $-1 $113 $114 $40 $-1 $115 reversed single #
loop $-1 $-1 $116 $52 #
plane-surface $-1 45.098735443456498 -126.17562075279864 101.40214146656757 -1 0 0 0 -0.66913061440640931 0.74314481823134659 forward_v I I I I #
face $-1 $117 $118 $41 $-1 $119 forward single #
loop $-1 $120 $121 $53 #
cone-surface $-1 35.023204602248477 -32.528907171308198 11.306180215348602 0 0.66913061440640931 -0.74314481823134659 2 0 0 1 I I 0 1 2 forward I I I I #
face $-1 $122 $123 $42 $-1 $124 reversed single #
loop $-1 $-1 $125 $54 #
plane-surface $-1 -31.035078384676765 -13.117365302013837 71.588937396707763 0 0.75470958851134928 0.65605901945558964 1 0 0 forward_v I I I I #
face $-1 $126 $127 $43 $-1 $128 forward single #
loop $-1 $129 $130 $55 #
cone-surface $-1 -34.940917450063999 32.945153201114756 11.009855177554291 0 -0.75470958851134928 -0.65605901945558964 2.5 0 0 1 I I 0 1 2.5 forward I I I I #
face $-1 $131 $132 $44 $-1 $133 forward single #
loop $-1 $134 $135 $56 #
cone-surface $-1 -27.129239319289539 32.945153201114756 11.009855177554291 0 -0.75470958851134928 -0.65605901945558964 2.5 0 0 1 I I 0 1 2.5 forward I I I I #
face $-1 $136 $137 $45 $-1 $138 reversed single #
loop $-1 $-1 $139 $57 #
plane-surface $-1 11.365206656692633 81.793578500302118 154.09376001248086 1 0 0 0 -0.75470958851134928 -0.65605901945558964 forward_v I I I I #
face $-1 $140 $141 $46 $-1 $142 forward single #
loop $-1 $143 $144 $58 #
cone-surface $-1 16.572992077208944 32.945153201114756 11.009855177554291 0 -0.75470958851134928 -0.65605901945558964 2.5 0 0 1 I I 0 1 2.5 forward I I I I #
face $-1 $145 $146 $47 $-1 $147 forward single #
loop $-1 $148 $149 $59 #
cone-surface $-1 24.384670207983397 32.945153201114756 11.009855177554291 0 -0.75470958851134928 -0.65605901945558964 2.5 0 0 1 I I 0 1 2.5 forward I I I I #
face $-1 $150 $151 $36 $-1 $152 reversed single #
loop $-1 $-1 $153 $60 #
plane-surface $-1 0 0 -20.400899214860708 0 0 1 1 0 0 forward_v I I I I #
coedge $-1 $154 $155 $156 $157 forward $61 $-1 #
face $-1 $158 $159 $37 $-1 $160 reversed single #
loop $-1 $-1 $161 $63 #
plane-surface $-1 -40.148702870580301 0 17.495388293324091 -1 0 0 0 0 1 forward_v I I I I #
coedge $-1 $162 $163 $164 $165 forward $64 $-1 #
face $-1 $166 $167 $38 $-1 $168 reversed single #
loop $-1 $-1 $169 $66 #
plane-surface $-1 -12.292791288863206 -42.026937461780889 7.9455627324059463 0 -0.66913061440640931 0.74314481823134659 1 0 0 forward_v I I I I #
coedge $-1 $170 $171 $172 $173 reversed $67 $-1 #
face $-1 $-1 $174 $39 $-1 $175 forward single #
loop $-1 $176 $177 $69 #
cone-surface $-1 -12.292791288863206 -29.278272402716592 7.6959846388325275 0 0.66913061440640931 -0.74314481823134659 1 0 0 1 I I -0.70710678118654746 0.70710678118654746 1 forward I I I I #
loop $-1 $-1 $178 $51 #
coedge $-1 $112 $112 $179 $180 reversed $70 $-1 #
face $-1 $181 $182 $40 $-1 $183 reversed single #
loop $-1 $-1 $184 $72 #
plane-surface $-1 35.023204602248477 -42.026937461780889 7.9455627324059463 0 -0.66913061440640931 0.74314481823134659 1 0 0 forward_v I I I I #
coedge $-1 $185 $186 $187 $188 reversed $73 $-1 #
face $-1 $-1 $189 $41 $-1 $190 forward single #
loop $-1 $191 $192 $75 #
cone-surface $-1 35.023204602248477 -29.278272402716592 7.6959846388325275 0 0.66913061440640931 -0.74314481823134659 1 0 0 1 I I -0.70710678118654746 0.70710678118654746 1 forward I I I I #
loop $-1 $-1 $193 $53 #
coedge $-1 $121 $121 $194 $195 reversed $76 $-1 #
face $-1 $196 $197 $42 $-1 $198 forward single #
loop $-1 $-1 $199 $78 #
plane-surface $-1 -21.92145389877323 81.793578500302118 154.09376001248086 -1 0 0 0 0.75470958851134928 0.65605901945558964 forward_v I I I I #
coedge $-1 $200 $201 $202 $203 reversed $79 $-1 #
face $-1 $-1 $204 $43 $-1 $205 forward single #
loop $-1 $206 $207 $81 #
cone-surface $-1 -34.940917450063999 28.243592541247672 6.9228509531777362 0 -0.75470958851134928 -0.65605901945558964 1.25 0 0 1 I I -0.70710678118654746 0.70710678118654746 1.25 forward I I I I #
loop $-1 $-1 $208 $55 #
coedge $-1 $130 $130 $209 $210 reversed $82 $-1 #
face $-1 $-1 $211 $44 $-1 $212 forward single #
loop $-1 $213 $214 $84 #
cone-surface $-1 -27.129239319289539 28.243592541247672 6.9228509531777362 0 -0.75470958851134928 -0.65605901945558964 1.25 0 0 1 I I -0.70710678118654746 0.70710678118654746 1.25 forward I I I I #
loop $-1 $-1 $215 $56 #
coedge $-1 $135 $135 $216 $217 reversed $85 $-1 #
face $-1 $218 $219 $45 $-1 $220 reversed single #
loop $-1 $-1 $221 $87 #
plane-surface $-1 20.478831142596171 -13.117365302013837 71.588937396707763 0 0.75470958851134928 0.65605901945558964 1 0 0 forward_v I I I I #
coedge $-1 $222 $223 $224 $225 reversed $88 $-1 #
face $-1 $-1 $226 $46 $-1 $227 forward single #
loop $-1 $228 $229 $90 #
cone-surface $-1 16.572992077208944 28.243592541247672 6.9228509531777362 0 -0.75470958851134928 -0.65605901945558964 1.25 0 0 1 I I -0.70710678118654746 0.70710678118654746 1.25 forward I I I I #
loop $-1 $-1 $230 $58 #
coedge $-1 $144 $144 $231 $232 reversed $91 $-1 #
face $-1 $-1 $233 $47 $-1 $234 forward single #
loop $-1 $235 $236 $93 #
cone-surface $-1 24.384670207983397 28.243592541247672 6.9228509531777362 0 -0.75470958851134928 -0.65605901945558964 1.25 0 0 1 I I -0.70710678118654746 0.70710678118654746 1.25 forward I I I I #
loop $-1 $-1 $237 $59 #
coedge $-1 $149 $149 $238 $239 reversed $94 $-1 #
face $-1 $240 $241 $36 $-1 $242 reversed single #
loop $-1 $-1 $243 $96 #
plane-surface $-1 0 -42.026937461780896 0 0 1 0 0 0 1 forward_v I I I I #
coedge $-1 $244 $245 $246 $247 forward $97 $-1 #
coedge $-1 $248 $99 $249 $250 forward $61 $-1 #
coedge $-1 $99 $248 $251 $252 forward $61 $-1 #
coedge $-1 $253 $254 $99 $157 reversed $255 $-1 #
edge $-1 $256 -42.026937461780896 $257 42.026937461780896 $156 $258 forward 7 unknown #
face $-1 $259 $260 $37 $-1 $261 reversed single #
loop $-1 $-1 $262 $100 #
plane-surface $-1 0 42.026937461780896 0 0 -1 0 0 0 -1 forward_v I I I I #
coedge $-1 $164 $263 $264 $265 reversed $101 $-1 #
coedge $-1 $266 $103 $267 $268 reversed $64 $-1 #
coedge $-1 $103 $266 $269 $270 reversed $64 $-1 #
coedge $-1 $271 $161 $103 $165 reversed $101 $-1 #
edge $-1 $272 -42.026937461780896 $273 42.026937461780896 $164 $274 forward 7 unknown #
face $-1 $275 $276 $38 $-1 $277 reversed single #
loop $-1 $-1 $278 $104 #
plane-surface $-1 -22.368322130071228 -126.17562075279864 101.40214146656757 1 0 0 0 0.66913061440640931 -0.74314481823134659 forward_v I I I I #
coedge $-1 $279 $280 $281 $282 reversed $105 $-1 #
coedge $-1 $171 $107 $283 $284 reversed $67 $-1 #
coedge $-1 $107 $170 $279 $285 reversed $67 $-1 #
coedge $-1 $281 $286 $107 $173 forward $287 $-1 #
edge $-1 $288 21.060872914618422 $289 34.893925187193453 $172 $290 forward 7 unknown #
loop $-1 $-1 $179 $108 #
plane-surface $-1 -12.292791288863206 -42.026937461780889 7.9455627324059463 0 -0.66913061440640931 0.74314481823134659 1 0 0 forward_v I I I I #
loop $-1 $-1 $291 $69 #
coedge $-1 $177 $177 $178 $292 reversed $109 $-1 #
coedge $-1 $178 $178 $177 $292 forward $111 $-1 #
coedge $-1 $179 $179 $112 $180 forward $174 $-1 #
edge $-1 $293 3.3135609732207542e-016 $293 6.2831853071796004 $179 $294 forward 7 unknown #
face $-1 $295 $296 $40 $-1 $297 reversed single #
loop $-1 $-1 $298 $113 #
plane-surface $-1 24.947673761040456 -126.17562075279864 101.40214146656757 1 0 0 0 0.66913061440640931 -0.74314481823134659 forward_v I I I I #
coedge $-1 $299 $300 $301 $302 reversed $114 $-1 #
coedge $-1 $186 $116 $303 $304 reversed $73 $-1 #
coedge $-1 $116 $185 $299 $305 reversed $73 $-1 #
coedge $-1 $301 $306 $116 $188 forward $307 $-1 #
edge $-1 $308 21.060872914618422 $309 34.893925187193453 $187 $310 forward 7 unknown #
loop $-1 $-1 $194 $117 #
plane-surface $-1 35.023204602248477 -42.026937461780889 7.9455627324059463 0 -0.66913061440640931 0.74314481823134659 1 0 0 forward_v I I I I #
loop $-1 $-1 $311 $75 #
coedge $-1 $192 $192 $193 $312 reversed $118 $-1 #
coedge $-1 $193 $193 $192 $312 forward $120 $-1 #
coedge $-1 $194 $194 $121 $195 forward $189 $-1 #
edge $-1 $313 3.3135609732207542e-016 $313 6.2831853071796004 $194 $314 forward 7 unknown #
face $-1 $315 $316 $42 $-1 $317 reversed single #
loop $-1 $-1 $202 $122 #
plane-surface $-1 0 0 20.400899214860708 0 0 1 1 0 0 forward_v I I I I #
coedge $-1 $318 $319 $320 $321 reversed $123 $-1 #
coedge $-1 $322 $125 $323 $324 reversed $79 $-1 #
coedge $-1 $125 $322 $318 $325 forward $79 $-1 #
coedge $-1 $320 $326 $125 $203 forward $197 $-1 #
edge $-1 $327 -24.631163678241919 $328 -6.4039147064348469 $202 $329 forward 7 unknown #
loop $-1 $-1 $209 $126 #
plane-surface $-1 -31.035078384676765 -13.117365302013837 71.588937396707763 0 0.75470958851134928 0.65605901945558964 1 0 0 forward_v I I I I #
loop $-1 $-1 $330 $81 #
coedge $-1 $207 $207 $208 $331 reversed $127 $-1 #
coedge $-1 $208 $208 $207 $331 forward $129 $-1 #
coedge $-1 $209 $209 $130 $210 forward $204 $-1 #
edge $-1 $332 2.8038178088468054e-016 $332 6.2831853071796004 $209 $333 forward 7 unknown #
loop $-1 $-1 $216 $131 #
plane-surface $-1 -31.035078384676765 -13.117365302013837 71.588937396707763 0 0.75470958851134928 0.65605901945558964 1 0 0 forward_v I I I I #
loop $-1 $-1 $334 $84 #
coedge $-1 $214 $214 $215 $335 reversed $132 $-1 #
coedge $-1 $215 $215 $214 $335 forward $134 $-1 #
coedge $-1 $216 $216 $135 $217 forward $211 $-1 #
edge $-1 $336 2.8038178088468054e-016 $336 6.2831853071796004 $216 $337 forward 7 unknown #
face $-1 $338 $339 $45 $-1 $340 forward single #
loop $-1 $-1 $341 $136 #
plane-surface $-1 29.592455628499707 81.793578500302118 154.09376001248086 -1 0 0 0 0.75470958851134928 0.65605901945558964 forward_v I I I I #
coedge $-1 $342 $343 $344 $345 reversed $137 $-1 #
coedge $-1 $223 $139 $346 $347 reversed $88 $-1 #
coedge $-1 $139 $222 $342 $348 reversed $88 $-1 #
coedge $-1 $344 $349 $139 $225 forward $339 $-1 #
edge $-1 $350 -1.1301482116298374 $351 9.5170729612466261 $224 $352 forward 7 unknown #
loop $-1 $-1 $231 $140 #
plane-surface $-1 20.478831142596171 -13.117365302013837 71.588937396707763 0 0.75470958851134928 0.65605901945558964 1 0 0 forward_v I I I I #
loop $-1 $-1 $353 $90 #
coedge $-1 $229 $229 $230 $354 reversed $141 $-1 #
coedge $-1 $230 $230 $229 $354 forward $143 $-1 #
coedge $-1 $231 $231 $144 $232 forward $226 $-1 #
edge $-1 $355 2.8038178088468054e-016 $355 6.2831853071796004 $231 $356 forward 7 unknown #
loop $-1 $-1 $238 $145 #
plane-surface $-1 20.478831142596171 -13.117365302013837 71.588937396707763 0 0.75470958851134928 0.65605901945558964 1 0 0 forward_v I I I I #
loop $-1 $-1 $357 $93 #
coedge $-1 $236 $236 $237 $358 reversed $146 $-1 #
coedge $-1 $237 $237 $236 $358 forward $148 $-1 #
coedge $-1 $238 $238 $149 $239 forward $233 $-1 #
edge $-1 $359 2.8038178088468054e-016 $359 6.2831853071796004 $238 $360 forward 7 unknown #
face $-1 $361 $362 $36 $-1 $363 reversed single #
loop $-1 $-1 $364 $150 #
plane-surface $-1 -62.879116183965571 0 0 1 0 0 0 0 -1 forward_v I I I I #
coedge $-1 $365 $251 $366 $367 forward $151 $-1 #
coedge $-1 $368 $153 $365 $369 forward $97 $-1 #
coedge $-1 $153 $368 $370 $371 forward $97 $-1 #
coedge $-1 $254 $253 $153 $247 reversed $255 $-1 #
edge $-1 $372 -42.026937461780896 $373 42.026937461780896 $246 $374 forward 7 unknown #
coedge $-1 $155 $154 $375 $376 forward $61 $-1 #
coedge $-1 $377 $378 $154 $250 reversed $362 $-1 #
edge $-1 $257 -62.879116183965571 $379 62.879116183965571 $249 $380 forward 7 unknown #
coedge $-1 $243 $381 $155 $252 reversed $151 $-1 #
edge $-1 $382 -62.879116183965571 $256 62.879116183965571 $251 $383 forward 7 unknown #
coedge $-1 $246 $156 $381 $384 forward $255 $-1 #
coedge $-1 $156 $246 $377 $385 reversed $255 $-1 #
loop $-1 $-1 $253 $361 #
vertex $-1 $157 $386 #
vertex $-1 $157 $387 #
straight-curve $-1 62.879116183965571 0 20.400899214860708 0 1 0 I I #
face $-1 $388 $389 $37 $-1 $390 forward single #
loop $-1 $-1 $391 $158 #
plane-surface $-1 -62.879116183965571 0 0 1 0 0 0 0 -1 forward_v I I I I #
coedge $-1 $269 $392 $271 $393 forward $159 $-1 #
coedge $-1 $161 $271 $394 $395 reversed $101 $-1 #
coedge $-1 $396 $267 $161 $265 forward $397 $-1 #
edge $-1 $273 5.8421832251254244 $398 11.653205068198666 $264 $399 forward 7 unknown #
coedge $-1 $163 $162 $391 $400 reversed $64 $-1 #
coedge $-1 $264 $401 $162 $268 forward $397 $-1 #
edge $-1 $402 -37.122161420329107 $273 -14.391748106943833 $267 $403 forward 7 unknown #
coedge $-1 $404 $262 $163 $270 forward $159 $-1 #
edge $-1 $272 14.391748106943833 $405 37.122161420329107 $269 $406 forward 7 unknown #
coedge $-1 $263 $164 $262 $393 reversed $101 $-1 #
vertex $-1 $270 $407 #
vertex $-1 $268 $408 #
straight-curve $-1 -40.148702870580301 0 14.58987737178747 0 -1 0 I I #
face $-1 $-1 $287 $38 $-1 $409 forward single #
loop $-1 $-1 $410 $166 #
plane-surface $-1 0 -42.026937461780896 0 0 1 0 0 0 1 forward_v I I I I #
coedge $-1 $411 $412 $413 $414 reversed $167 $-1 #
coedge $-1 $415 $169 $171 $285 forward $105 $-1 #
coedge $-1 $169 $415 $411 $416 forward $105 $-1 #
coedge $-1 $413 $172 $169 $282 forward $287 $-1 #
edge $-1 $289 -3.9291351967764179 $417 16.221926485639624 $281 $418 forward 7 unknown #
coedge $-1 $419 $420 $170 $284 forward $276 $-1 #
edge $-1 $421 -42.755508000877846 $288 -30.300171518423078 $283 $422 forward 7 unknown #
edge $-1 $289 -18.614208069831001 $421 9.4405131238556439e-015 $171 $423 forward 7 unknown #
coedge $-1 $172 $413 $419 $424 forward $287 $-1 #
loop $-1 $-1 $413 $275 #
vertex $-1 $284 $425 #
vertex $-1 $173 $426 #
straight-curve $-1 -2.2172604476551854 -63.087810376399318 20.400899214860708 0 1 0 I I #
coedge $-1 $291 $291 $-1 $427 reversed $176 $-1 #
edge $-1 $428 0 $428 6.2831853071796004 $177 $429 forward 7 unknown #
vertex $-1 $180 $430 #
ellipse-curve $-1 -12.292791288863206 -35.110411325493381 14.173230973633322 0 -0.66913061440640931 0.74314481823134659 2 0 0 1 I I #
face $-1 $-1 $307 $40 $-1 $431 forward single #
loop $-1 $-1 $432 $181 #
plane-surface $-1 0 -42.026937461780896 0 0 1 0 0 0 1 forward_v I I I I #
coedge $-1 $433 $434 $435 $436 reversed $182 $-1 #
coedge $-1 $437 $184 $186 $305 forward $114 $-1 #
coedge $-1 $184 $437 $433 $438 forward $114 $-1 #
coedge $-1 $435 $187 $184 $302 forward $307 $-1 #
edge $-1 $309 -27.587133142332259 $439 -7.4360714599162172 $301 $440 forward 7 unknown #
coedge $-1 $441 $442 $185 $304 forward $296 $-1 #
edge $-1 $443 -42.755508000877846 $308 -30.300171518423078 $303 $444 forward 7 unknown #
edge $-1 $309 -18.614208069831001 $443 9.4405131238556439e-015 $186 $445 forward 7 unknown #
coedge $-1 $187 $435 $441 $446 forward $307 $-1 #
loop $-1 $-1 $435 $295 #
vertex $-1 $304 $447 #
vertex $-1 $188 $448 #
straight-curve $-1 45.098735443456498 -63.087810376399318 20.400899214860708 0 1 0 I I #
coedge $-1 $311 $311 $-1 $449 reversed $191 $-1 #
edge $-1 $450 0 $450 6.2831853071796004 $192 $451 forward 7 unknown #
vertex $-1 $195 $452 #
ellipse-curve $-1 35.023204602248477 -35.110411325493381 14.173230973633322 0 -0.66913061440640931 0.74314481823134659 2 0 0 1 I I #
face $-1 $-1 $453 $42 $-1 $454 forward single #
loop $-1 $-1 $455 $196 #
plane-surface $-1 0 42.026937461780896 0 0 -1 0 0 0 -1 forward_v I I I I #
coedge $-1 $319 $199 $201 $325 reversed $123 $-1 #
coedge $-1 $199 $318 $455 $456 reversed $123 $-1 #
coedge $-1 $457 $202 $199 $321 forward $197 $-1 #
edge $-1 $328 -9.5170729612466261 $458 1.1301482116298374 $320 $459 forward 7 unknown #
coedge $-1 $201 $200 $460 $461 reversed $79 $-1 #
coedge $-1 $462 $463 $200 $324 forward $453 $-1 #
edge $-1 $464 -59.338531922155241 $327 -43.109471948691677 $323 $465 forward 7 unknown #
edge $-1 $466 -84.053874923561821 $328 -67.824814950098258 $318 $467 forward 7 unknown #
coedge $-1 $202 $457 $462 $468 forward $197 $-1 #
vertex $-1 $324 $469 #
vertex $-1 $203 $470 #
straight-curve $-1 -15.517539192338383 31.379716288904433 20.400899214860708 1 0 0 I I #
coedge $-1 $330 $330 $-1 $471 reversed $206 $-1 #
edge $-1 $472 0 $472 6.2831853071796004 $207 $473 forward 7 unknown #
vertex $-1 $210 $474 #
ellipse-curve $-1 -34.940917450063999 36.703326875342661 14.276785627611364 0 0.75470958851134928 0.65605901945558964 2.5 0 0 1 I I #
coedge $-1 $334 $334 $-1 $475 reversed $213 $-1 #
edge $-1 $476 0 $476 6.2831853071796004 $214 $477 forward 7 unknown #
vertex $-1 $217 $478 #
ellipse-curve $-1 -27.129239319289539 36.703326875342661 14.276785627611364 0 0.75470958851134928 0.65605901945558964 2.5 0 0 1 I I #
face $-1 $-1 $479 $45 $-1 $480 reversed single #
loop $-1 $-1 $224 $218 #
plane-surface $-1 0 0 20.400899214860708 0 0 1 1 0 0 forward_v I I I I #
coedge $-1 $481 $482 $483 $484 reversed $219 $-1 #
coedge $-1 $485 $221 $223 $348 forward $137 $-1 #
coedge $-1 $221 $485 $481 $486 forward $137 $-1 #
coedge $-1 $483 $224 $221 $345 forward $339 $-1 #
edge $-1 $351 1.1257910853945479 $487 19.353040057201621 $344 $488 forward 7 unknown #
coedge $-1 $489 $490 $222 $347 forward $479 $-1 #
edge $-1 $491 -68.894207965878422 $350 -56.645980791379721 $346 $492 forward 7 unknown #
edge $-1 $351 67.824814950098258 $491 84.053874923561821 $223 $493 forward 7 unknown #
coedge $-1 $224 $483 $489 $494 forward $339 $-1 #
vertex $-1 $225 $495 #
vertex $-1 $225 $496 #
straight-curve $-1 11.365206656692633 40.896789250151059 20.400899214860715 0 -1 0 I I #
coedge $-1 $353 $353 $-1 $497 reversed $228 $-1 #
edge $-1 $498 0 $498 6.2831853071796004 $229 $499 forward 7 unknown #
vertex $-1 $232 $500 #
ellipse-curve $-1 16.572992077208944 36.703326875342661 14.276785627611364 0 0.75470958851134928 0.65605901945558964 2.5 0 0 1 I I #
coedge $-1 $357 $357 $-1 $501 reversed $235 $-1 #
edge $-1 $502 0 $502 6.2831853071796004 $236 $503 forward 7 unknown #
vertex $-1 $239 $504 #
ellipse-curve $-1 24.384670207983397 36.703326875342661 14.276785627611364 0 0.75470958851134928 0.65605901945558964 2.5 0 0 1 I I #
face $-1 $-1 $255 $36 $-1 $505 reversed single #
loop $-1 $-1 $377 $240 #
plane-surface $-1 0 42.026937461780896 0 0 -1 0 0 0 -1 forward_v I I I I #
coedge $-1 $506 $375 $378 $507 forward $241 $-1 #
coedge $-1 $381 $243 $244 $369 reversed $151 $-1 #
coedge $-1 $375 $506 $243 $367 reversed $241 $-1 #
edge $-1 $382 -20.400899214860708 $508 20.400899214860708 $366 $509 forward 7 unknown #
coedge $-1 $245 $244 $506 $510 forward $97 $-1 #
edge $-1 $373 -62.879116183965571 $508 62.879116183965571 $365 $511 forward 7 unknown #
coedge $-1 $378 $377 $245 $371 reversed $362 $-1 #
edge $-1 $512 -62.879116183965571 $372 62.879116183965571 $370 $513 forward 7 unknown #
vertex $-1 $247 $514 #
vertex $-1 $384 $515 #
straight-curve $-1 62.879116183965571 0 -20.400899214860708 0 -1 0 I I #
coedge $-1 $364 $366 $248 $376 reversed $241 $-1 #
edge $-1 $379 -42.026937461780896 $382 42.026937461780896 $375 $516 forward 7 unknown #
coedge $-1 $370 $249 $254 $385 forward $362 $-1 #
coedge $-1 $249 $370 $364 $507 reversed $362 $-1 #
vertex $-1 $250 $517 #
straight-curve $-1 0 42.026937461780896 20.400899214860708 -1 0 0 I I #
coedge $-1 $251 $365 $253 $384 reversed $151 $-1 #
vertex $-1 $376 $518 #
straight-curve $-1 0 -42.026937461780896 20.400899214860708 1 0 0 I I #
edge $-1 $256 -20.400899214860708 $373 20.400899214860708 $253 $519 forward 7 unknown #
edge $-1 $257 -20.400899214860708 $372 20.400899214860708 $254 $520 forward 7 unknown #
point $-1 62.879116183965571 -42.026937461780896 20.400899214860708 #
point $-1 62.879116183965571 42.026937461780896 20.400899214860708 #
face $-1 $-1 $397 $37 $-1 $521 reversed single #
loop $-1 $-1 $394 $259 #
plane-surface $-1 0 0 20.400899214860708 0 0 1 1 0 0 forward_v I I I I #
coedge $-1 $522 $523 $266 $400 forward $260 $-1 #
coedge $-1 $262 $404 $524 $525 reversed $159 $-1 #
edge $-1 $526 -11.653205068198666 $272 -5.8421832251254244 $262 $527 forward 7 unknown #
coedge $-1 $524 $528 $263 $395 forward $389 $-1 #
edge $-1 $398 -42.026937461780896 $526 42.026937461780896 $394 $529 forward 7 unknown #
coedge $-1 $401 $264 $528 $530 reversed $397 $-1 #
loop $-1 $-1 $264 $388 #
vertex $-1 $265 $531 #
straight-curve $-1 -40.148702870580301 -42.026937461780896 8.7476941466620453 0 0 1 I I #
edge $-1 $405 -42.026937461780896 $402 42.026937461780896 $391 $532 forward 7 unknown #
coedge $-1 $267 $396 $522 $533 forward $397 $-1 #
vertex $-1 $400 $534 #
straight-curve $-1 -25.756954763636468 -42.026937461780896 14.58987737178747 1 0 0 I I #
coedge $-1 $392 $269 $523 $535 reversed $159 $-1 #
vertex $-1 $400 $536 #
straight-curve $-1 -25.756954763636468 42.026937461780896 14.58987737178747 -1 0 0 I I #
point $-1 -40.148702870580301 42.026937461780896 14.58987737178747 #
point $-1 -40.148702870580301 -42.026937461780896 14.58987737178747 #
plane-surface $-1 0 0 20.400899214860708 0 0 1 1 0 0 forward_v I I I I #
coedge $-1 $420 $419 $412 $537 forward $276 $-1 #
coedge $-1 $412 $278 $280 $416 reversed $167 $-1 #
coedge $-1 $278 $411 $410 $537 reversed $167 $-1 #
coedge $-1 $286 $281 $278 $414 forward $287 $-1 #
edge $-1 $417 -34.893925187193453 $538 -21.060872914618422 $413 $539 forward 7 unknown #
coedge $-1 $280 $279 $420 $540 reversed $105 $-1 #
edge $-1 $541 -9.4405131238556439e-015 $417 18.614208069831001 $411 $542 forward 7 unknown #
vertex $-1 $282 $543 #
straight-curve $-1 -6.1463956444316032 -28.193885189205862 20.400899214860708 -1 0 0 I I #
coedge $-1 $410 $283 $286 $424 reversed $276 $-1 #
coedge $-1 $283 $410 $415 $540 forward $276 $-1 #
vertex $-1 $284 $544 #
straight-curve $-1 -2.2172604476551854 -42.026937461780896 50.701070733283785 0 0 1 I I #
straight-curve $-1 -2.2172604476551854 -42.026937461780889 7.9455627324059463 0 -0.74314481823134659 -0.66913061440640931 I I #
edge $-1 $538 -22.368322130071228 $288 -2.2172604476551854 $419 $545 forward 7 unknown #
point $-1 -2.2172604476551854 -42.026937461780896 20.400899214860708 #
point $-1 -2.2172604476551854 -28.193885189205865 20.400899214860708 #
edge $-1 $546 1 $546 0 $291 $-1 forward 7 unknown #
vertex $-1 $292 $547 #
ellipse-curve $-1 -12.292791288863206 -29.947403017123001 8.4391294570638742 0 -0.66913061440640931 0.74314481823134659 2 0 0 1 I I #
point $-1 -10.292791288863206 -35.110411325493388 14.173230973633331 #
plane-surface $-1 0 0 20.400899214860708 0 0 1 1 0 0 forward_v I I I I #
coedge $-1 $442 $441 $434 $548 forward $296 $-1 #
coedge $-1 $434 $298 $300 $438 reversed $182 $-1 #
coedge $-1 $298 $433 $432 $548 reversed $182 $-1 #
coedge $-1 $306 $301 $298 $436 forward $307 $-1 #
edge $-1 $439 -34.893925187193453 $549 -21.060872914618422 $435 $550 forward 7 unknown #
coedge $-1 $300 $299 $442 $551 reversed $114 $-1 #
edge $-1 $552 -9.4405131238556439e-015 $439 18.614208069831001 $433 $553 forward 7 unknown #
vertex $-1 $302 $554 #
straight-curve $-1 17.511602301124238 -28.193885189205862 20.400899214860708 -1 0 0 I I #
coedge $-1 $432 $303 $306 $446 reversed $296 $-1 #
coedge $-1 $303 $432 $437 $551 forward $296 $-1 #
vertex $-1 $304 $555 #
straight-curve $-1 45.098735443456498 -42.026937461780896 50.701070733283785 0 0 1 I I #
straight-curve $-1 45.098735443456498 -42.026937461780889 7.9455627324059463 0 -0.74314481823134659 -0.66913061440640931 I I #
edge $-1 $549 24.947673761040456 $308 45.098735443456498 $441 $556 forward 7 unknown #
point $-1 45.098735443456498 -42.026937461780896 20.400899214860708 #
point $-1 45.098735443456498 -28.193885189205865 20.400899214860708 #
edge $-1 $557 1 $557 0 $311 $-1 forward 7 unknown #
vertex $-1 $312 $558 #
ellipse-curve $-1 35.023204602248477 -29.947403017123001 8.4391294570638742 0 -0.66913061440640931 0.74314481823134659 2 0 0 1 I I #
point $-1 37.023204602248477 -35.110411325493388 14.173230973633331 #
loop $-1 $-1 $323 $315 #
plane-surface $-1 -40.148702870580301 0 17.495388293324091 -1 0 0 0 0 1 forward_v I I I I #
coedge $-1 $460 $559 $319 $456 forward $316 $-1 #
edge $-1 $458 56.645980791379721 $466 68.894207965878422 $455 $560 forward 7 unknown #
coedge $-1 $326 $320 $559 $561 forward $197 $-1 #
vertex $-1 $561 $562 #
straight-curve $-1 -21.92145389877323 40.896789250151059 20.400899214860715 0 1 0 I I #
coedge $-1 $563 $455 $322 $461 forward $316 $-1 #
edge $-1 $466 6.4039147064348469 $464 24.631163678241919 $460 $564 forward 7 unknown #
coedge $-1 $463 $323 $326 $468 reversed $453 $-1 #
coedge $-1 $323 $462 $563 $565 reversed $453 $-1 #
vertex $-1 $565 $566 #
straight-curve $-1 -40.148702870580301 3.0973583929975241 52.936031050199354 0 -0.65605901945558975 0.75470958851134939 I I #
vertex $-1 $461 $567 #
straight-curve $-1 -21.92145389877323 -13.117365302013837 71.588937396707763 0 -0.65605901945558964 0.75470958851134928 I I #
edge $-1 $568 -42.026937461780896 $327 -31.379716288904433 $326 $569 forward 7 unknown #
point $-1 -40.148702870580301 31.379716288904433 20.400899214860708 #
point $-1 -21.92145389877323 31.379716288904433 20.400899214860708 #
edge $-1 $570 1 $570 0 $330 $-1 forward 7 unknown #
vertex $-1 $331 $571 #
ellipse-curve $-1 -34.940917450063999 29.186979526886859 7.7429247274972237 0 0.75470958851134928 0.65605901945558964 2.5 0 0 1 I I #
point $-1 -32.440917450063999 36.703326875342654 14.276785627611357 #
edge $-1 $572 1 $572 0 $334 $-1 forward 7 unknown #
vertex $-1 $335 $573 #
ellipse-curve $-1 -27.129239319289539 29.186979526886859 7.7429247274972237 0 0.75470958851134928 0.65605901945558964 2.5 0 0 1 I I #
point $-1 -24.629239319289539 36.703326875342654 14.276785627611357 #
loop $-1 $-1 $346 $338 #
plane-surface $-1 0 42.026937461780896 0 0 -1 0 0 0 -1 forward_v I I I I #
coedge $-1 $482 $341 $343 $486 reversed $219 $-1 #
coedge $-1 $341 $481 $574 $575 reversed $219 $-1 #
coedge $-1 $349 $344 $341 $484 forward $339 $-1 #
edge $-1 $487 -9.5170729612466261 $576 1.1301482116298374 $483 $577 forward 7 unknown #
coedge $-1 $343 $342 $490 $578 reversed $137 $-1 #
edge $-1 $579 -84.053874923561821 $487 -67.824814950098258 $481 $580 forward 7 unknown #
vertex $-1 $345 $581 #
straight-curve $-1 10.239415571298085 31.379716288904433 20.400899214860708 1 0 0 I I #
coedge $-1 $574 $346 $349 $494 reversed $479 $-1 #
coedge $-1 $346 $574 $485 $578 forward $479 $-1 #
vertex $-1 $347 $582 #
straight-curve $-1 11.365206656692633 42.026937461780896 77.046880006240428 0 0 1 I I #
straight-curve $-1 11.365206656692633 -13.117365302013837 71.588937396707763 0 0.65605901945558964 -0.75470958851134928 I I #
edge $-1 $576 -29.592455628499707 $350 -11.365206656692633 $489 $583 forward 7 unknown #
point $-1 11.365206656692633 42.026937461780896 20.400899214860708 #
point $-1 11.365206656692633 31.379716288904433 20.400899214860708 #
edge $-1 $584 1 $584 0 $353 $-1 forward 7 unknown #
vertex $-1 $354 $585 #
ellipse-curve $-1 16.572992077208944 29.186979526886859 7.7429247274972237 0 0.75470958851134928 0.65605901945558964 2.5 0 0 1 I I #
point $-1 19.072992077208944 36.703326875342654 14.276785627611357 #
edge $-1 $586 1 $586 0 $357 $-1 forward 7 unknown #
vertex $-1 $358 $587 #
ellipse-curve $-1 24.384670207983397 29.186979526886859 7.7429247274972237 0 0.75470958851134928 0.65605901945558964 2.5 0 0 1 I I #
point $-1 26.884670207983397 36.703326875342654 14.276785627611357 #
plane-surface $-1 62.879116183965571 0 0 -1 0 0 0 0 1 forward_v I I I I #
coedge $-1 $366 $364 $368 $510 reversed $241 $-1 #
edge $-1 $379 -20.400899214860708 $512 20.400899214860708 $378 $588 forward 7 unknown #
vertex $-1 $510 $589 #
straight-curve $-1 -62.879116183965571 -42.026937461780896 0 0 0 -1 I I #
edge $-1 $508 -42.026937461780896 $512 42.026937461780896 $506 $590 forward 7 unknown #
straight-curve $-1 0 -42.026937461780896 -20.400899214860708 -1 0 0 I I #
vertex $-1 $371 $591 #
straight-curve $-1 0 42.026937461780896 -20.400899214860708 1 0 0 I I #
point $-1 62.879116183965571 42.026937461780896 -20.400899214860708 #
point $-1 62.879116183965571 -42.026937461780896 -20.400899214860708 #
straight-curve $-1 -62.879116183965571 0 20.400899214860708 0 -1 0 I I #
point $-1 -62.879116183965571 42.026937461780896 20.400899214860708 #
point $-1 -62.879116183965571 -42.026937461780896 20.400899214860708 #
straight-curve $-1 62.879116183965571 -42.026937461780896 0 0 0 -1 I I #
straight-curve $-1 62.879116183965571 42.026937461780896 0 0 0 -1 I I #
plane-surface $-1 0 -42.026937461780896 0 0 1 0 0 0 1 forward_v I I I I #
coedge $-1 $592 $391 $401 $533 reversed $260 $-1 #
coedge $-1 $391 $592 $404 $535 forward $260 $-1 #
coedge $-1 $593 $394 $392 $525 forward $389 $-1 #
edge $-1 $526 40.148702870580301 $594 62.879116183965571 $392 $595 forward 7 unknown #
vertex $-1 $525 $596 #
straight-curve $-1 -40.148702870580301 42.026937461780896 8.7476941466620453 0 0 -1 I I #
coedge $-1 $394 $593 $396 $530 forward $389 $-1 #
straight-curve $-1 -40.148702870580301 0 20.400899214860708 0 1 0 I I #
edge $-1 $597 -62.879116183965571 $398 -40.148702870580301 $396 $598 forward 7 unknown #
point $-1 -40.148702870580301 -42.026937461780896 20.400899214860711 #
straight-curve $-1 -62.879116183965571 0 14.58987737178747 0 -1 0 I I #
edge $-1 $597 -20.400899214860708 $402 -14.58987737178747 $522 $599 forward 7 unknown #
point $-1 -62.879116183965571 -42.026937461780896 14.58987737178747 #
edge $-1 $594 -20.400899214860708 $405 -14.58987737178747 $404 $600 forward 7 unknown #
point $-1 -62.879116183965571 42.026937461780896 14.58987737178747 #
edge $-1 $538 30.300171518423078 $541 42.755508000877846 $410 $601 forward 7 unknown #
vertex $-1 $424 $602 #
straight-curve $-1 -22.368322130071228 -63.087810376399318 20.400899214860708 0 -1 0 I I #
edge $-1 $541 -16.221926485639624 $421 3.9291351967764179 $420 $603 forward 7 unknown #
vertex $-1 $540 $604 #
straight-curve $-1 -22.368322130071228 -42.026937461780889 7.9455627324059463 0 0.74314481823134659 0.66913061440640931 I I #
point $-1 -22.368322130071228 -28.193885189205865 20.400899214860708 #
point $-1 -2.2172604476551854 -42.026937461780896 7.9455627324059401 #
straight-curve $-1 0 -42.026937461780896 20.400899214860708 1 0 0 I I #
vertex $-1 $427 $605 #
point $-1 -10.292791288863206 -29.947403017123001 8.4391294570638742 #
edge $-1 $549 30.300171518423078 $552 42.755508000877846 $432 $606 forward 7 unknown #
vertex $-1 $446 $607 #
straight-curve $-1 24.947673761040456 -63.087810376399318 20.400899214860708 0 -1 0 I I #
edge $-1 $552 7.4360714599162172 $443 27.587133142332259 $442 $608 forward 7 unknown #
vertex $-1 $551 $609 #
straight-curve $-1 24.947673761040456 -42.026937461780889 7.9455627324059463 0 0.74314481823134659 0.66913061440640931 I I #
point $-1 24.947673761040456 -28.193885189205865 20.400899214860708 #
point $-1 45.098735443456498 -42.026937461780896 7.9455627324059401 #
straight-curve $-1 0 -42.026937461780896 20.400899214860708 1 0 0 I I #
vertex $-1 $449 $610 #
point $-1 37.023204602248477 -29.947403017123001 8.4391294570638742 #
coedge $-1 $455 $563 $457 $561 reversed $316 $-1 #
straight-curve $-1 -21.92145389877323 42.026937461780896 77.046880006240428 0 0 -1 I I #
edge $-1 $458 21.92145389877323 $568 40.148702870580301 $559 $611 forward 7 unknown #
point $-1 -21.92145389877323 42.026937461780896 20.400899214860708 #
coedge $-1 $559 $460 $463 $565 forward $316 $-1 #
straight-curve $-1 -15.517539192338383 42.026937461780889 8.1526720403620132 -1 0 0 I I #
edge $-1 $464 -68.894207965878422 $568 -56.645980791379714 $563 $612 forward 7 unknown #
point $-1 -40.148702870580301 42.026937461780896 8.1526720403620132 #
point $-1 -21.92145389877323 42.026937461780896 8.1526720403620132 #
vertex $-1 $468 $613 #
straight-curve $-1 -40.148702870580301 0 20.400899214860708 0 -1 0 I I #
vertex $-1 $471 $614 #
point $-1 -32.440917450063999 29.186979526886859 7.7429247274972237 #
vertex $-1 $475 $615 #
point $-1 -24.629239319289539 29.186979526886859 7.7429247274972237 #
coedge $-1 $490 $489 $482 $575 forward $479 $-1 #
edge $-1 $576 56.645980791379721 $579 68.894207965878422 $574 $616 forward 7 unknown #
vertex $-1 $494 $617 #
straight-curve $-1 29.592455628499707 40.896789250151059 20.400899214860715 0 1 0 I I #
edge $-1 $579 -19.353040057201621 $491 -1.1257910853945479 $490 $618 forward 7 unknown #
vertex $-1 $578 $619 #
straight-curve $-1 29.592455628499707 -13.117365302013837 71.588937396707763 0 -0.65605901945558964 0.75470958851134928 I I #
point $-1 29.592455628499707 31.379716288904433 20.400899214860708 #
point $-1 11.365206656692633 42.026937461780896 8.1526720403620132 #
straight-curve $-1 0 42.026937461780896 20.400899214860708 -1 0 0 I I #
vertex $-1 $497 $620 #
point $-1 19.072992077208944 29.186979526886859 7.7429247274972237 #
vertex $-1 $501 $621 #
point $-1 26.884670207983397 29.186979526886859 7.7429247274972237 #
straight-curve $-1 -62.879116183965571 42.026937461780896 0 0 0 -1 I I #
point $-1 -62.879116183965571 -42.026937461780896 -20.400899214860708 #
straight-curve $-1 -62.879116183965571 0 -20.400899214860708 0 1 0 I I #
point $-1 -62.879116183965571 42.026937461780896 -20.400899214860708 #
coedge $-1 $523 $522 $593 $622 reversed $260 $-1 #
coedge $-1 $528 $524 $592 $622 forward $389 $-1 #
vertex $-1 $525 $623 #
straight-curve $-1 0 42.026937461780896 20.400899214860708 -1 0 0 I I #
point $-1 -40.148702870580301 42.026937461780896 20.400899214860711 #
vertex $-1 $622 $624 #
straight-curve $-1 0 -42.026937461780896 20.400899214860708 1 0 0 I I #
straight-curve $-1 -62.879116183965571 -42.026937461780896 0 0 0 -1 I I #
straight-curve $-1 -62.879116183965571 42.026937461780896 0 0 0 -1 I I #
straight-curve $-1 -22.368322130071228 -42.026937461780896 50.701070733283785 0 0 -1 I I #
point $-1 -22.368322130071228 -42.026937461780896 20.400899214860708 #
straight-curve $-1 -6.1463956444316032 -42.026937461780896 7.9455627324059384 1 0 0 I I #
point $-1 -22.368322130071228 -42.026937461780896 7.9455627324059401 #
point $-1 -12.292791288863206 -28.609141788310183 6.9528398206011808 #
straight-curve $-1 24.947673761040456 -42.026937461780896 50.701070733283785 0 0 -1 I I #
point $-1 24.947673761040456 -42.026937461780896 20.400899214860708 #
straight-curve $-1 17.511602301124238 -42.026937461780896 7.9455627324059384 1 0 0 I I #
point $-1 24.947673761040456 -42.026937461780896 7.9455627324059401 #
point $-1 35.023204602248477 -28.609141788310183 6.9528398206011808 #
straight-curve $-1 0 42.026937461780896 20.400899214860708 -1 0 0 I I #
straight-curve $-1 -40.148702870580301 42.026937461780896 77.046880006240428 0 0 1 I I #
point $-1 -40.148702870580301 42.026937461780896 20.400899214860711 #
point $-1 -34.940917450063999 27.300205555608485 6.1027771788582488 #
point $-1 -27.129239319289539 27.300205555608485 6.1027771788582488 #
straight-curve $-1 29.592455628499707 42.026937461780896 77.046880006240428 0 0 -1 I I #
point $-1 29.592455628499707 42.026937461780896 20.400899214860708 #
straight-curve $-1 10.239415571298085 42.026937461780889 8.1526720403620132 -1 0 0 I I #
point $-1 29.592455628499707 42.026937461780896 8.1526720403620132 #
point $-1 16.572992077208944 27.300205555608485 6.1027771788582488 #
point $-1 24.384670207983397 27.300205555608485 6.1027771788582488 #
edge $-1 $594 -42.026937461780896 $597 42.026937461780896 $592 $625 forward 7 unknown #
point $-1 -62.879116183965571 42.026937461780896 20.400899214860708 #
point $-1 -62.879116183965571 -42.026937461780896 20.400899214860708 #
straight-curve $-1 -62.879116183965571 0 20.400899214860708 0 -1 0 I I #
End-of-ACIS-data 