500 0 10 0           
7 Unknown 11 ACIS 5.0 NT 24 Thu Mar 25 21:41:40 1999 
-1 9.9999999999999995e-007 1e-010 
body $-1 $10 $-1 $11 #
body $-1 $12 $-1 $13 #
body $-1 $14 $-1 $15 #
body $-1 $16 $-1 $17 #
body $-1 $18 $-1 $19 #
body $-1 $20 $-1 $21 #
body $-1 $22 $-1 $23 #
body $-1 $24 $-1 $25 #
body $-1 $26 $-1 $27 #
body $-1 $28 $-1 $29 #
lump $-1 $-1 $30 $0 #
transform $-1 1 0 0 0 1 0 0 0 1 49.045686208685566 27.442802962001522 13.033970447607079 1 rotate no_reflect no_shear #
lump $-1 $-1 $31 $1 #
transform $-1 1 0 0 0 1 0 0 0 1 49.045686208685566 27.442802962001522 13.033970447607079 1 rotate no_reflect no_shear #
lump $-1 $-1 $32 $2 #
transform $-1 1 0 0 0 1 0 0 0 1 49.045686208685566 27.442802962001522 13.033970447607079 1 rotate no_reflect no_shear #
lump $-1 $-1 $33 $3 #
transform $-1 1 0 0 0 1 0 0 0 1 49.045686208685566 27.442802962001522 13.033970447607079 1 rotate no_reflect no_shear #
lump $-1 $-1 $34 $4 #
transform $-1 1 0 0 0 1 0 0 0 1 49.045686208685566 27.442802962001522 13.033970447607079 1 rotate no_reflect no_shear #
lump $-1 $-1 $35 $5 #
transform $-1 1 0 0 0 1 0 0 0 1 49.045686208685566 27.442802962001522 13.033970447607079 1 rotate no_reflect no_shear #
lump $-1 $-1 $36 $6 #
transform $-1 1 0 0 0 1 0 0 0 1 49.045686208685566 27.442802962001522 13.033970447607079 1 rotate no_reflect no_shear #
lump $-1 $-1 $37 $7 #
transform $-1 1 0 0 0 1 0 0 0 1 49.045686208685566 27.442802962001522 13.033970447607079 1 rotate no_reflect no_shear #
lump $-1 $-1 $38 $8 #
transform $-1 1 0 0 0 1 0 0 0 1 49.045686208685566 27.442802962001522 13.033970447607079 1 rotate no_reflect no_shear #
lump $-1 $-1 $39 $9 #
transform $-1 1 0 0 0 1 0 0 0 1 49.045686208685566 27.442802962001522 13.033970447607079 1 rotate no_reflect no_shear #
shell $-1 $-1 $-1 $40 $-1 $10 #
shell $-1 $-1 $-1 $41 $-1 $12 #
shell $-1 $-1 $-1 $42 $-1 $14 #
shell $-1 $-1 $-1 $43 $-1 $16 #
shell $-1 $-1 $-1 $44 $-1 $18 #
shell $-1 $-1 $-1 $45 $-1 $20 #
shell $-1 $-1 $-1 $46 $-1 $22 #
shell $-1 $-1 $-1 $47 $-1 $24 #
shell $-1 $-1 $-1 $48 $-1 $26 #
shell $-1 $-1 $-1 $49 $-1 $28 #
face $-1 $50 $51 $30 $-1 $52 forward single #
face $-1 $53 $54 $31 $-1 $55 forward single #
face $-1 $56 $57 $32 $-1 $58 reversed single #
face $-1 $59 $60 $33 $-1 $61 forward single #
face $-1 $62 $63 $34 $-1 $64 forward single #
face $-1 $65 $66 $35 $-1 $67 forward single #
face $-1 $68 $69 $36 $-1 $70 reversed single #
face $-1 $71 $72 $37 $-1 $73 forward single #
face $-1 $74 $75 $38 $-1 $76 forward single #
face $-1 $77 $78 $39 $-1 $79 forward single #
face $-1 $80 $81 $30 $-1 $82 reversed single #
loop $-1 $-1 $83 $40 #
plane-surface $-1 0 0 13.033970447607079 0 0 1 1 0 0 forward_v I I I I #
face $-1 $84 $85 $31 $-1 $86 reversed single #
loop $-1 $-1 $87 $41 #
plane-surface $-1 0 -27.442802962001522 0 0 1 0 0 0 1 forward_v I I I I #
face $-1 $88 $89 $32 $-1 $90 reversed single #
loop $-1 $-1 $91 $42 #
plane-surface $-1 -10.491678606865463 40.696078143024081 112.79075402479566 1 0 0 0 -0.5877852598018023 -0.80901698891910034 forward_v I I I I #
face $-1 $92 $93 $33 $-1 $94 forward single #
loop $-1 $95 $96 $43 #
cone-surface $-1 -8.3933428854923733 18.958129576573786 6.6605565358425221 0 -0.5877852598018023 -0.80901698891910034 0.5 0 0 1 I I 0 1 0.5 forward I I I I #
face $-1 $97 $98 $34 $-1 $99 forward single #
loop $-1 $100 $101 $44 #
cone-surface $-1 -5.2458393034327315 18.958129576573786 6.6605565358425221 0 -0.5877852598018023 -0.80901698891910034 0.5 0 0 1 I I 0 1 0.5 forward I I I I #
face $-1 $102 $103 $35 $-1 $104 forward single #
loop $-1 $105 $106 $45 #
cone-surface $-1 -2.0983357213730898 18.958129576573786 6.6605565358425221 0 -0.5877852598018023 -0.80901698891910034 0.5 0 0 1 I I 0 1 0.5 forward I I I I #
face $-1 $107 $108 $36 $-1 $109 reversed single #
loop $-1 $-1 $110 $46 #
plane-surface $-1 38.554007601820089 40.696078143024081 112.79075402479566 1 0 0 0 -0.5877852598018023 -0.80901698891910034 forward_v I I I I #
face $-1 $111 $112 $37 $-1 $113 forward single #
loop $-1 $114 $115 $47 #
cone-surface $-1 40.652343323193179 18.958129576573786 6.6605565358425221 0 -0.5877852598018023 -0.80901698891910034 0.5 0 0 1 I I 0 1 0.5 forward I I I I #
face $-1 $116 $117 $38 $-1 $118 forward single #
loop $-1 $119 $120 $48 #
cone-surface $-1 43.799846905252821 18.958129576573786 6.6605565358425221 0 -0.5877852598018023 -0.80901698891910034 0.5 0 0 1 I I 0 1 0.5 forward I I I I #
face $-1 $121 $122 $39 $-1 $123 forward single #
loop $-1 $124 $125 $49 #
cone-surface $-1 46.947350487312463 18.958129576573786 6.6605565358425221 0 -0.5877852598018023 -0.80901698891910034 0.5 0 0 1 I I 0 1 0.5 forward I I I I #
face $-1 $126 $127 $30 $-1 $128 reversed single #
loop $-1 $-1 $129 $50 #
plane-surface $-1 0 0 -13.033970447607079 0 0 1 1 0 0 forward_v I I I I #
coedge $-1 $130 $131 $132 $133 forward $51 $-1 #
face $-1 $134 $135 $31 $-1 $136 reversed single #
loop $-1 $-1 $137 $53 #
plane-surface $-1 0 0 -13.033970447607079 0 0 1 1 0 0 forward_v I I I I #
coedge $-1 $138 $139 $140 $141 forward $54 $-1 #
face $-1 $142 $143 $32 $-1 $144 reversed single #
loop $-1 $-1 $145 $56 #
plane-surface $-1 -5.2458393034327315 -16.960584677635751 33.433167272751973 0 0.5877852598018023 0.80901698891910034 1 0 0 forward_v I I I I #
coedge $-1 $146 $147 $148 $149 reversed $57 $-1 #
face $-1 $-1 $150 $33 $-1 $151 forward single #
loop $-1 $152 $153 $59 #
cone-surface $-1 -8.3933428854923733 18.489661118907414 6.0157650329854775 0 -0.5877852598018023 -0.80901698891910034 0.25 0 0 1 I I -0.70710678118654746 0.70710678118654746 0.25 forward I I I I #
loop $-1 $-1 $154 $43 #
coedge $-1 $96 $96 $155 $156 reversed $60 $-1 #
face $-1 $-1 $157 $34 $-1 $158 forward single #
loop $-1 $159 $160 $62 #
cone-surface $-1 -5.2458393034327315 18.489661118907414 6.0157650329854775 0 -0.5877852598018023 -0.80901698891910034 0.25 0 0 1 I I -0.70710678118654746 0.70710678118654746 0.25 forward I I I I #
loop $-1 $-1 $161 $44 #
coedge $-1 $101 $101 $162 $163 reversed $63 $-1 #
face $-1 $-1 $164 $35 $-1 $165 forward single #
loop $-1 $166 $167 $65 #
cone-surface $-1 -2.0983357213730898 18.489661118907414 6.0157650329854775 0 -0.5877852598018023 -0.80901698891910034 0.25 0 0 1 I I -0.70710678118654746 0.70710678118654746 0.25 forward I I I I #
loop $-1 $-1 $168 $45 #
coedge $-1 $106 $106 $169 $170 reversed $66 $-1 #
face $-1 $171 $172 $36 $-1 $173 forward single #
loop $-1 $-1 $174 $68 #
plane-surface $-1 43.799846905252821 -16.960584677635751 33.433167272751973 0 0.5877852598018023 0.80901698891910034 1 0 0 forward_v I I I I #
coedge $-1 $175 $176 $177 $178 reversed $69 $-1 #
face $-1 $-1 $179 $37 $-1 $180 forward single #
loop $-1 $181 $182 $71 #
cone-surface $-1 40.652343323193179 18.489661118907414 6.0157650329854775 0 -0.5877852598018023 -0.80901698891910034 0.25 0 0 1 I I -0.70710678118654746 0.70710678118654746 0.25 forward I I I I #
loop $-1 $-1 $183 $47 #
coedge $-1 $115 $115 $184 $185 reversed $72 $-1 #
face $-1 $-1 $186 $38 $-1 $187 forward single #
loop $-1 $188 $189 $74 #
cone-surface $-1 43.799846905252821 18.489661118907414 6.0157650329854775 0 -0.5877852598018023 -0.80901698891910034 0.25 0 0 1 I I -0.70710678118654746 0.70710678118654746 0.25 forward I I I I #
loop $-1 $-1 $190 $48 #
coedge $-1 $120 $120 $191 $192 reversed $75 $-1 #
face $-1 $-1 $193 $39 $-1 $194 forward single #
loop $-1 $195 $196 $77 #
cone-surface $-1 46.947350487312463 18.489661118907414 6.0157650329854775 0 -0.5877852598018023 -0.80901698891910034 0.25 0 0 1 I I -0.70710678118654746 0.70710678118654746 0.25 forward I I I I #
loop $-1 $-1 $197 $49 #
coedge $-1 $125 $125 $198 $199 reversed $78 $-1 #
face $-1 $200 $201 $30 $-1 $202 reversed single #
loop $-1 $-1 $203 $80 #
plane-surface $-1 0 -27.442802962001522 0 0 1 0 0 0 1 forward_v I I I I #
coedge $-1 $204 $205 $206 $207 forward $81 $-1 #
coedge $-1 $208 $83 $209 $210 forward $51 $-1 #
coedge $-1 $83 $208 $211 $212 forward $51 $-1 #
coedge $-1 $213 $214 $83 $133 reversed $215 $-1 #
edge $-1 $216 -27.442802962001522 $217 27.442802962001522 $132 $218 forward 7 unknown #
face $-1 $219 $220 $31 $-1 $221 reversed single #
loop $-1 $-1 $222 $84 #
plane-surface $-1 -25.899857508825466 -43.442617246889284 0 0 1 0 0 0 1 forward_v I I I I #
coedge $-1 $223 $224 $139 $225 forward $85 $-1 #
coedge $-1 $226 $87 $227 $228 reversed $54 $-1 #
coedge $-1 $87 $226 $137 $225 reversed $54 $-1 #
coedge $-1 $229 $230 $87 $141 reversed $220 $-1 #
edge $-1 $231 -13.033970447607079 $232 13.033970447607079 $140 $233 forward 7 unknown #
face $-1 $234 $235 $32 $-1 $236 forward single #
loop $-1 $-1 $237 $88 #
plane-surface $-1 0 40.696078143024081 112.79075402479566 -1 0 0 0 0.5877852598018023 0.80901698891910034 forward_v I I I I #
coedge $-1 $238 $239 $240 $241 reversed $89 $-1 #
coedge $-1 $147 $91 $242 $243 reversed $57 $-1 #
coedge $-1 $91 $146 $238 $244 reversed $57 $-1 #
coedge $-1 $240 $245 $91 $149 forward $235 $-1 #
edge $-1 $246 -7.0947638904894816 $247 9.2315385949341433 $148 $248 forward 7 unknown #
loop $-1 $-1 $155 $92 #
plane-surface $-1 -5.2458393034327315 -16.960584677635751 33.433167272751973 0 0.5877852598018023 0.80901698891910034 1 0 0 forward_v I I I I #
loop $-1 $-1 $249 $59 #
coedge $-1 $153 $153 $154 $250 reversed $93 $-1 #
coedge $-1 $154 $154 $153 $250 forward $95 $-1 #
coedge $-1 $155 $155 $96 $156 forward $150 $-1 #
edge $-1 $251 2.0882327326951692e-015 $251 6.2831853071796022 $155 $252 forward 7 unknown #
loop $-1 $-1 $162 $97 #
plane-surface $-1 -5.2458393034327315 -16.960584677635751 33.433167272751973 0 0.5877852598018023 0.80901698891910034 1 0 0 forward_v I I I I #
loop $-1 $-1 $253 $62 #
coedge $-1 $160 $160 $161 $254 reversed $98 $-1 #
coedge $-1 $161 $161 $160 $254 forward $100 $-1 #
coedge $-1 $162 $162 $101 $163 forward $157 $-1 #
edge $-1 $255 2.0882327326951692e-015 $255 6.2831853071796022 $162 $256 forward 7 unknown #
loop $-1 $-1 $169 $102 #
plane-surface $-1 -5.2458393034327315 -16.960584677635751 33.433167272751973 0 0.5877852598018023 0.80901698891910034 1 0 0 forward_v I I I I #
loop $-1 $-1 $257 $65 #
coedge $-1 $167 $167 $168 $258 reversed $103 $-1 #
coedge $-1 $168 $168 $167 $258 forward $105 $-1 #
coedge $-1 $169 $169 $106 $170 forward $164 $-1 #
edge $-1 $259 2.0882327326951692e-015 $259 6.2831853071796022 $169 $260 forward 7 unknown #
face $-1 $261 $262 $36 $-1 $263 reversed single #
loop $-1 $-1 $177 $107 #
plane-surface $-1 0 0 13.033970447607079 0 0 1 1 0 0 forward_v I I I I #
coedge $-1 $264 $265 $266 $267 reversed $108 $-1 #
coedge $-1 $176 $110 $268 $269 reversed $69 $-1 #
coedge $-1 $110 $175 $264 $270 reversed $69 $-1 #
coedge $-1 $266 $271 $110 $178 forward $172 $-1 #
edge $-1 $272 -7.0947638904894816 $273 9.2315385949341433 $177 $274 forward 7 unknown #
loop $-1 $-1 $184 $111 #
plane-surface $-1 43.799846905252821 -16.960584677635751 33.433167272751973 0 0.5877852598018023 0.80901698891910034 1 0 0 forward_v I I I I #
loop $-1 $-1 $275 $71 #
coedge $-1 $182 $182 $183 $276 reversed $112 $-1 #
coedge $-1 $183 $183 $182 $276 forward $114 $-1 #
coedge $-1 $184 $184 $115 $185 forward $179 $-1 #
edge $-1 $277 2.0882327326951692e-015 $277 6.2831853071796022 $184 $278 forward 7 unknown #
loop $-1 $-1 $191 $116 #
plane-surface $-1 43.799846905252821 -16.960584677635751 33.433167272751973 0 0.5877852598018023 0.80901698891910034 1 0 0 forward_v I I I I #
loop $-1 $-1 $279 $74 #
coedge $-1 $189 $189 $190 $280 reversed $117 $-1 #
coedge $-1 $190 $190 $189 $280 forward $119 $-1 #
coedge $-1 $191 $191 $120 $192 forward $186 $-1 #
edge $-1 $281 2.0882327326951692e-015 $281 6.2831853071796022 $191 $282 forward 7 unknown #
loop $-1 $-1 $198 $121 #
plane-surface $-1 43.799846905252821 -16.960584677635751 33.433167272751973 0 0.5877852598018023 0.80901698891910034 1 0 0 forward_v I I I I #
loop $-1 $-1 $283 $77 #
coedge $-1 $196 $196 $197 $284 reversed $122 $-1 #
coedge $-1 $197 $197 $196 $284 forward $124 $-1 #
coedge $-1 $198 $198 $125 $199 forward $193 $-1 #
edge $-1 $285 2.0882327326951692e-015 $285 6.2831853071796022 $198 $286 forward 7 unknown #
face $-1 $287 $288 $30 $-1 $289 reversed single #
loop $-1 $-1 $290 $126 #
plane-surface $-1 -49.045686208685566 0 0 1 0 0 0 0 -1 forward_v I I I I #
coedge $-1 $291 $211 $292 $293 forward $127 $-1 #
coedge $-1 $294 $129 $291 $295 forward $81 $-1 #
coedge $-1 $129 $294 $296 $297 forward $81 $-1 #
coedge $-1 $214 $213 $129 $207 reversed $215 $-1 #
edge $-1 $298 -27.442802962001522 $299 27.442802962001522 $206 $300 forward 7 unknown #
coedge $-1 $131 $130 $301 $302 forward $51 $-1 #
coedge $-1 $303 $304 $130 $210 reversed $288 $-1 #
edge $-1 $217 -49.045686208685566 $305 49.045686208685566 $209 $306 forward 7 unknown #
coedge $-1 $203 $307 $131 $212 reversed $127 $-1 #
edge $-1 $308 -49.045686208685566 $216 49.045686208685566 $211 $309 forward 7 unknown #
coedge $-1 $206 $132 $307 $310 forward $215 $-1 #
coedge $-1 $132 $206 $303 $311 reversed $215 $-1 #
loop $-1 $-1 $213 $287 #
vertex $-1 $133 $312 #
vertex $-1 $133 $313 #
straight-curve $-1 49.045686208685566 0 13.033970447607079 0 1 0 I I #
face $-1 $314 $315 $31 $-1 $316 reversed single #
loop $-1 $-1 $140 $134 #
plane-surface $-1 -28.821969704179523 -35.442710104445403 0 1 0 0 0 0 -1 forward_v I I I I #
coedge $-1 $317 $318 $319 $320 forward $135 $-1 #
coedge $-1 $321 $137 $322 $323 forward $85 $-1 #
coedge $-1 $137 $321 $229 $324 forward $85 $-1 #
edge $-1 $231 -28.821969704179523 $325 -22.977745313471409 $137 $326 forward 7 unknown #
coedge $-1 $139 $138 $327 $328 forward $54 $-1 #
coedge $-1 $329 $330 $138 $228 forward $331 $-1 #
edge $-1 $332 22.977745313471409 $232 28.821969704179523 $227 $333 forward 7 unknown #
coedge $-1 $319 $140 $224 $324 reversed $220 $-1 #
coedge $-1 $140 $319 $329 $334 reversed $220 $-1 #
vertex $-1 $225 $335 #
vertex $-1 $334 $336 #
straight-curve $-1 -28.821969704179523 -27.442802962001522 0 0 0 1 I I #
face $-1 $-1 $337 $32 $-1 $338 reversed single #
loop $-1 $-1 $148 $142 #
plane-surface $-1 0 0 13.033970447607079 0 0 1 1 0 0 forward_v I I I I #
coedge $-1 $339 $340 $341 $342 reversed $143 $-1 #
coedge $-1 $343 $145 $147 $244 forward $89 $-1 #
coedge $-1 $145 $343 $339 $344 forward $89 $-1 #
coedge $-1 $341 $148 $145 $241 forward $235 $-1 #
edge $-1 $247 -7.8687589551490973 $345 2.6229196517163658 $240 $346 forward 7 unknown #
coedge $-1 $347 $348 $146 $243 forward $337 $-1 #
edge $-1 $349 -55.223159877065321 $246 -43.361406564790755 $242 $350 forward 7 unknown #
edge $-1 $247 34.705186094702995 $349 54.885605924003031 $147 $351 forward 7 unknown #
coedge $-1 $148 $341 $347 $352 forward $235 $-1 #
vertex $-1 $243 $353 #
vertex $-1 $149 $354 #
straight-curve $-1 -10.491678606865463 20.348039071512041 13.033970447607082 0 -1 0 I I #
coedge $-1 $249 $249 $-1 $355 reversed $152 $-1 #
edge $-1 $356 0 $356 6.2831853071796004 $153 $357 forward 7 unknown #
vertex $-1 $156 $358 #
ellipse-curve $-1 -8.3933428854923733 19.279651719289706 7.1030937914697931 0 0.5877852598018023 0.80901698891910034 0.5 0 0 1 I I #
coedge $-1 $253 $253 $-1 $359 reversed $159 $-1 #
edge $-1 $360 0 $360 6.2831853071796004 $160 $361 forward 7 unknown #
vertex $-1 $163 $362 #
ellipse-curve $-1 -5.2458393034327315 19.279651719289706 7.1030937914697931 0 0.5877852598018023 0.80901698891910034 0.5 0 0 1 I I #
coedge $-1 $257 $257 $-1 $363 reversed $166 $-1 #
edge $-1 $364 0 $364 6.2831853071796004 $167 $365 forward 7 unknown #
vertex $-1 $170 $366 #
ellipse-curve $-1 -2.0983357213730898 19.279651719289706 7.1030937914697931 0 0.5877852598018023 0.80901698891910034 0.5 0 0 1 I I #
face $-1 $-1 $367 $36 $-1 $368 reversed single #
loop $-1 $-1 $369 $171 #
plane-surface $-1 49.045686208685566 0 0 -1 0 0 0 0 1 forward_v I I I I #
coedge $-1 $370 $174 $176 $270 forward $108 $-1 #
coedge $-1 $174 $370 $369 $371 reversed $108 $-1 #
coedge $-1 $372 $177 $174 $267 forward $172 $-1 #
edge $-1 $273 16.654084149193679 $373 27.145762756059142 $266 $374 forward 7 unknown #
coedge $-1 $375 $376 $175 $269 forward $367 $-1 #
edge $-1 $377 -55.223159877065321 $272 -43.361406564790755 $268 $378 forward 7 unknown #
edge $-1 $273 34.705186094702995 $377 54.885605924003031 $176 $379 forward 7 unknown #
coedge $-1 $177 $372 $375 $380 forward $172 $-1 #
vertex $-1 $269 $381 #
vertex $-1 $178 $382 #
straight-curve $-1 38.554007601820089 20.348039071512041 13.033970447607082 0 -1 0 I I #
coedge $-1 $275 $275 $-1 $383 reversed $181 $-1 #
edge $-1 $384 0 $384 6.2831853071796004 $182 $385 forward 7 unknown #
vertex $-1 $185 $386 #
ellipse-curve $-1 40.652343323193179 19.279651719289706 7.1030937914697931 0 0.5877852598018023 0.80901698891910034 0.5 0 0 1 I I #
coedge $-1 $279 $279 $-1 $387 reversed $188 $-1 #
edge $-1 $388 0 $388 6.2831853071796004 $189 $389 forward 7 unknown #
vertex $-1 $192 $390 #
ellipse-curve $-1 43.799846905252821 19.279651719289706 7.1030937914697931 0 0.5877852598018023 0.80901698891910034 0.5 0 0 1 I I #
coedge $-1 $283 $283 $-1 $391 reversed $195 $-1 #
edge $-1 $392 0 $392 6.2831853071796004 $196 $393 forward 7 unknown #
vertex $-1 $199 $394 #
ellipse-curve $-1 46.947350487312463 19.279651719289706 7.1030937914697931 0 0.5877852598018023 0.80901698891910034 0.5 0 0 1 I I #
face $-1 $-1 $215 $30 $-1 $395 reversed single #
loop $-1 $-1 $303 $200 #
plane-surface $-1 0 27.442802962001522 0 0 -1 0 0 0 -1 forward_v I I I I #
coedge $-1 $396 $301 $304 $397 forward $201 $-1 #
coedge $-1 $307 $203 $204 $295 reversed $127 $-1 #
coedge $-1 $301 $396 $203 $293 reversed $201 $-1 #
edge $-1 $308 -13.033970447607079 $398 13.033970447607079 $292 $399 forward 7 unknown #
coedge $-1 $205 $204 $396 $400 forward $81 $-1 #
edge $-1 $299 -49.045686208685566 $398 49.045686208685566 $291 $401 forward 7 unknown #
coedge $-1 $304 $303 $205 $297 reversed $288 $-1 #
edge $-1 $402 -49.045686208685566 $298 49.045686208685566 $296 $403 forward 7 unknown #
vertex $-1 $207 $404 #
vertex $-1 $310 $405 #
straight-curve $-1 49.045686208685566 0 -13.033970447607079 0 -1 0 I I #
coedge $-1 $290 $292 $208 $302 reversed $201 $-1 #
edge $-1 $305 -27.442802962001522 $308 27.442802962001522 $301 $406 forward 7 unknown #
coedge $-1 $296 $209 $214 $311 forward $288 $-1 #
coedge $-1 $209 $296 $290 $397 reversed $288 $-1 #
vertex $-1 $210 $407 #
straight-curve $-1 0 27.442802962001522 13.033970447607079 -1 0 0 I I #
coedge $-1 $211 $291 $213 $310 reversed $127 $-1 #
vertex $-1 $302 $408 #
straight-curve $-1 0 -27.442802962001522 13.033970447607079 1 0 0 I I #
edge $-1 $216 -13.033970447607079 $299 13.033970447607079 $213 $409 forward 7 unknown #
edge $-1 $217 -13.033970447607079 $298 13.033970447607079 $214 $410 forward 7 unknown #
point $-1 49.045686208685566 -27.442802962001522 13.033970447607079 #
point $-1 49.045686208685566 27.442802962001522 13.033970447607079 #
face $-1 $-1 $331 $31 $-1 $411 forward single #
loop $-1 $-1 $412 $219 #
plane-surface $-1 -22.977745313471409 -35.442710104445403 0 -1 0 0 0 0 1 forward_v I I I I #
coedge $-1 $413 $222 $321 $414 reversed $135 $-1 #
coedge $-1 $222 $413 $415 $416 reversed $135 $-1 #
coedge $-1 $230 $229 $222 $320 reversed $220 $-1 #
edge $-1 $417 -13.033970447607079 $418 13.033970447607079 $319 $419 forward 7 unknown #
coedge $-1 $224 $223 $317 $414 forward $85 $-1 #
coedge $-1 $327 $412 $223 $323 reversed $315 $-1 #
edge $-1 $325 -7.9999071424438846 $420 7.999907142443881 $322 $421 forward 7 unknown #
edge $-1 $418 -7.999907142443881 $231 7.9999071424438846 $229 $422 forward 7 unknown #
vertex $-1 $323 $423 #
straight-curve $-1 0 -27.442802962001522 -13.033970447607079 1 0 0 I I #
coedge $-1 $424 $322 $226 $328 reversed $315 $-1 #
edge $-1 $332 -13.033970447607079 $325 13.033970447607079 $327 $425 forward 7 unknown #
coedge $-1 $415 $227 $230 $334 forward $331 $-1 #
coedge $-1 $227 $415 $424 $426 forward $331 $-1 #
loop $-1 $-1 $227 $314 #
vertex $-1 $228 $427 #
straight-curve $-1 0 -27.442802962001522 13.033970447607079 -1 0 0 I I #
edge $-1 $232 -7.9999071424438846 $417 7.999907142443881 $230 $428 forward 7 unknown #
point $-1 -28.821969704179523 -27.442802962001519 -13.033970447607079 #
point $-1 -28.821969704179523 -27.442802962001519 13.033970447607079 #
loop $-1 $-1 $242 $234 #
plane-surface $-1 0 27.442802962001522 0 0 -1 0 0 0 -1 forward_v I I I I #
coedge $-1 $340 $237 $239 $344 reversed $143 $-1 #
coedge $-1 $237 $339 $429 $430 reversed $143 $-1 #
coedge $-1 $245 $240 $237 $342 forward $235 $-1 #
edge $-1 $345 -9.2315385949341433 $431 7.0947638904894816 $341 $432 forward 7 unknown #
coedge $-1 $239 $238 $348 $433 reversed $89 $-1 #
edge $-1 $434 -54.885605924003031 $345 -34.705186094702995 $339 $435 forward 7 unknown #
vertex $-1 $241 $436 #
straight-curve $-1 -2.6229196517163658 11.116500476577887 13.03397044760708 1 0 0 I I #
coedge $-1 $429 $242 $245 $352 reversed $337 $-1 #
coedge $-1 $242 $429 $343 $433 forward $337 $-1 #
vertex $-1 $243 $437 #
straight-curve $-1 -10.491678606865463 27.442802962001522 56.39537701239783 0 0 1 I I #
straight-curve $-1 -10.491678606865463 -16.960584677635751 33.433167272751973 0 0.80901698891910034 -0.5877852598018023 I I #
edge $-1 $431 0 $246 10.491678606865463 $347 $438 forward 7 unknown #
point $-1 -10.491678606865463 27.442802962001522 13.033970447607079 #
point $-1 -10.491678606865463 11.116500476577897 13.033970447607075 #
edge $-1 $439 1 $439 0 $249 $-1 forward 7 unknown #
vertex $-1 $250 $440 #
ellipse-curve $-1 -8.3933428854923733 18.636607433857865 6.2180192802152527 0 0.5877852598018023 0.80901698891910034 0.5 0 0 1 I I #
point $-1 -7.8933428854923733 19.279651719289706 7.1030937914697914 #
edge $-1 $441 1 $441 0 $253 $-1 forward 7 unknown #
vertex $-1 $254 $442 #
ellipse-curve $-1 -5.2458393034327315 18.636607433857865 6.2180192802152527 0 0.5877852598018023 0.80901698891910034 0.5 0 0 1 I I #
point $-1 -4.7458393034327315 19.279651719289706 7.1030937914697914 #
edge $-1 $443 1 $443 0 $257 $-1 forward 7 unknown #
vertex $-1 $258 $444 #
ellipse-curve $-1 -2.0983357213730898 18.636607433857865 6.2180192802152527 0 0.5877852598018023 0.80901698891910034 0.5 0 0 1 I I #
point $-1 -1.5983357213730898 19.279651719289706 7.1030937914697914 #
loop $-1 $-1 $268 $261 #
plane-surface $-1 0 27.442802962001522 0 0 -1 0 0 0 -1 forward_v I I I I #
coedge $-1 $445 $446 $265 $371 forward $262 $-1 #
coedge $-1 $265 $264 $376 $447 reversed $108 $-1 #
edge $-1 $373 18.018724065893025 $448 38.199143895193068 $369 $449 forward 7 unknown #
coedge $-1 $271 $266 $446 $450 forward $172 $-1 #
vertex $-1 $450 $451 #
straight-curve $-1 21.89992345262641 11.116500476577887 13.03397044760708 1 0 0 I I #
coedge $-1 $452 $268 $271 $380 reversed $367 $-1 #
coedge $-1 $268 $452 $370 $447 forward $367 $-1 #
vertex $-1 $269 $453 #
straight-curve $-1 38.554007601820089 27.442802962001522 56.39537701239783 0 0 1 I I #
straight-curve $-1 38.554007601820089 -16.960584677635751 33.433167272751973 0 0.80901698891910034 -0.5877852598018023 I I #
edge $-1 $454 -49.045686208685566 $272 -38.554007601820089 $375 $455 forward 7 unknown #
point $-1 38.554007601820089 27.442802962001522 13.033970447607079 #
point $-1 38.554007601820089 11.116500476577897 13.033970447607075 #
edge $-1 $456 1 $456 0 $275 $-1 forward 7 unknown #
vertex $-1 $276 $457 #
ellipse-curve $-1 40.652343323193179 18.636607433857865 6.2180192802152527 0 0.5877852598018023 0.80901698891910034 0.5 0 0 1 I I #
point $-1 41.152343323193179 19.279651719289706 7.1030937914697914 #
edge $-1 $458 1 $458 0 $279 $-1 forward 7 unknown #
vertex $-1 $280 $459 #
ellipse-curve $-1 43.799846905252821 18.636607433857865 6.2180192802152527 0 0.5877852598018023 0.80901698891910034 0.5 0 0 1 I I #
point $-1 44.299846905252821 19.279651719289706 7.1030937914697914 #
edge $-1 $460 1 $460 0 $283 $-1 forward 7 unknown #
vertex $-1 $284 $461 #
ellipse-curve $-1 46.947350487312463 18.636607433857865 6.2180192802152527 0 0.5877852598018023 0.80901698891910034 0.5 0 0 1 I I #
point $-1 47.447350487312463 19.279651719289706 7.1030937914697914 #
plane-surface $-1 49.045686208685566 0 0 -1 0 0 0 0 1 forward_v I I I I #
coedge $-1 $292 $290 $294 $400 reversed $201 $-1 #
edge $-1 $305 -13.033970447607079 $402 13.033970447607079 $304 $462 forward 7 unknown #
vertex $-1 $400 $463 #
straight-curve $-1 -49.045686208685566 -27.442802962001522 0 0 0 -1 I I #
edge $-1 $398 -27.442802962001522 $402 27.442802962001522 $396 $464 forward 7 unknown #
straight-curve $-1 0 -27.442802962001522 -13.033970447607079 -1 0 0 I I #
vertex $-1 $297 $465 #
straight-curve $-1 0 27.442802962001522 -13.033970447607079 1 0 0 I I #
point $-1 49.045686208685566 27.442802962001522 -13.033970447607079 #
point $-1 49.045686208685566 -27.442802962001522 -13.033970447607079 #
straight-curve $-1 -49.045686208685566 0 13.033970447607079 0 -1 0 I I #
point $-1 -49.045686208685566 27.442802962001522 13.033970447607079 #
point $-1 -49.045686208685566 -27.442802962001522 13.033970447607079 #
straight-curve $-1 49.045686208685566 -27.442802962001522 0 0 0 -1 I I #
straight-curve $-1 49.045686208685566 27.442802962001522 0 0 0 -1 I I #
plane-surface $-1 0 0 13.033970447607079 0 0 1 1 0 0 forward_v I I I I #
coedge $-1 $322 $424 $413 $466 forward $315 $-1 #
coedge $-1 $318 $317 $412 $466 reversed $135 $-1 #
edge $-1 $420 -2.9221121953540568 $418 2.9221121953540568 $317 $467 forward 7 unknown #
coedge $-1 $330 $329 $318 $416 forward $331 $-1 #
edge $-1 $417 -2.9221121953540568 $468 2.9221121953540568 $318 $469 forward 7 unknown #
vertex $-1 $334 $470 #
vertex $-1 $324 $471 #
straight-curve $-1 -28.821969704179523 -43.442617246889284 0 0 0 -1 I I #
vertex $-1 $466 $472 #
straight-curve $-1 -22.977745313471409 -35.442710104445403 -13.033970447607079 0 -1 0 I I #
straight-curve $-1 -28.821969704179523 -35.442710104445403 -13.033970447607079 0 1 0 I I #
point $-1 -22.977745313471409 -27.442802962001519 -13.033970447607079 #
coedge $-1 $412 $327 $330 $426 reversed $315 $-1 #
straight-curve $-1 -22.977745313471409 -27.442802962001522 0 0 0 -1 I I #
edge $-1 $468 -7.999907142443881 $332 7.9999071424438846 $424 $473 forward 7 unknown #
point $-1 -22.977745313471409 -27.442802962001519 13.033970447607079 #
straight-curve $-1 -28.821969704179523 -35.442710104445403 13.033970447607079 0 -1 0 I I #
coedge $-1 $348 $347 $340 $430 forward $337 $-1 #
edge $-1 $431 43.361406564790755 $434 55.223159877065321 $429 $474 forward 7 unknown #
vertex $-1 $352 $475 #
straight-curve $-1 0 20.348039071512041 13.033970447607082 0 1 0 I I #
edge $-1 $434 -2.6229196517163658 $349 7.8687589551490973 $348 $476 forward 7 unknown #
vertex $-1 $433 $477 #
straight-curve $-1 0 -16.960584677635751 33.433167272751973 0 -0.80901698891910034 0.5877852598018023 I I #
point $-1 0 11.116500476577897 13.033970447607075 #
point $-1 -10.491678606865463 27.442802962001522 1.1722171353325095 #
straight-curve $-1 0 27.442802962001522 13.033970447607079 -1 0 0 I I #
vertex $-1 $355 $478 #
point $-1 -7.8933428854923733 18.636607433857865 6.2180192802152527 #
vertex $-1 $359 $479 #
point $-1 -4.7458393034327315 18.636607433857865 6.2180192802152527 #
vertex $-1 $363 $480 #
point $-1 -1.5983357213730898 18.636607433857865 6.2180192802152527 #
coedge $-1 $446 $369 $452 $481 reversed $262 $-1 #
coedge $-1 $369 $445 $372 $450 reversed $262 $-1 #
edge $-1 $448 -27.145762756059142 $377 -16.654084149193679 $376 $482 forward 7 unknown #
vertex $-1 $371 $483 #
straight-curve $-1 49.045686208685566 -3.4609534113750069 23.625110853974995 0 0.80901698891910034 -0.5877852598018023 I I #
edge $-1 $373 11.116500476577897 $454 27.442802962001522 $446 $484 forward 7 unknown #
point $-1 49.045686208685552 11.116500476577897 13.033970447607075 #
coedge $-1 $376 $375 $445 $481 forward $367 $-1 #
point $-1 38.554007601820089 27.442802962001522 1.1722171353325095 #
vertex $-1 $450 $485 #
straight-curve $-1 0 27.442802962001522 13.033970447607079 -1 0 0 I I #
vertex $-1 $383 $486 #
point $-1 41.152343323193179 18.636607433857865 6.2180192802152527 #
vertex $-1 $387 $487 #
point $-1 44.299846905252821 18.636607433857865 6.2180192802152527 #
vertex $-1 $391 $488 #
point $-1 47.447350487312463 18.636607433857865 6.2180192802152527 #
straight-curve $-1 -49.045686208685566 27.442802962001522 0 0 0 -1 I I #
point $-1 -49.045686208685566 -27.442802962001522 -13.033970447607079 #
straight-curve $-1 -49.045686208685566 0 -13.033970447607079 0 1 0 I I #
point $-1 -49.045686208685566 27.442802962001522 -13.033970447607079 #
edge $-1 $468 -13.033970447607079 $420 13.033970447607079 $412 $489 forward 7 unknown #
straight-curve $-1 -25.899857508825466 -43.442617246889284 -13.033970447607079 -1 0 0 I I #
vertex $-1 $426 $490 #
straight-curve $-1 -25.899857508825466 -43.442617246889284 13.033970447607079 1 0 0 I I #
point $-1 -28.821969704179523 -43.442617246889284 13.033970447607079 #
point $-1 -28.821969704179523 -43.442617246889284 -13.033970447607079 #
point $-1 -22.977745313471409 -43.442617246889284 -13.033970447607079 #
straight-curve $-1 -22.977745313471409 -35.442710104445403 13.033970447607079 0 1 0 I I #
straight-curve $-1 0 27.442802962001522 56.39537701239783 0 0 -1 I I #
point $-1 0 27.442802962001522 13.033970447607079 #
straight-curve $-1 -2.6229196517163658 27.442802962001529 1.1722171353325059 -1 0 0 I I #
point $-1 0 27.442802962001522 1.1722171353325095 #
point $-1 -8.3933428854923733 18.342714803956962 5.8135107857557022 #
point $-1 -5.2458393034327315 18.342714803956962 5.8135107857557022 #
point $-1 -2.0983357213730898 18.342714803956962 5.8135107857557022 #
edge $-1 $454 -13.033970447607079 $448 -1.1722171353325095 $445 $491 forward 7 unknown #
straight-curve $-1 21.89992345262641 27.442802962001529 1.1722171353325059 -1 0 0 I I #
point $-1 49.045686208685552 27.442802962001522 1.1722171353325095 #
straight-curve $-1 49.045686208685566 0 13.033970447607079 0 1 0 I I #
point $-1 49.045686208685566 27.442802962001522 13.033970447607079 #
point $-1 40.652343323193179 18.342714803956962 5.8135107857557022 #
point $-1 43.799846905252821 18.342714803956962 5.8135107857557022 #
point $-1 46.947350487312463 18.342714803956962 5.8135107857557022 #
straight-curve $-1 -22.977745313471409 -43.442617246889284 0 0 0 -1 I I #
point $-1 -22.977745313471409 -43.442617246889284 13.033970447607079 #
straight-curve $-1 49.045686208685566 27.442802962001522 0 0 0 -1 I I #
End-of-ACIS-data 