500 0 6 0           
7 Unknown 11 ACIS 5.0 NT 24 Fri Mar 26 15:28:41 1999 
-1 9.9999999999999995e-007 1e-010 
body $-1 $6 $-1 $7 #
body $-1 $8 $-1 $9 #
body $-1 $10 $-1 $11 #
body $-1 $12 $-1 $13 #
body $-1 $14 $-1 $15 #
body $-1 $16 $-1 $17 #
lump $-1 $-1 $18 $0 #
transform $-1 1 0 0 0 1 0 0 0 1 71.006805627613147 30.216519556575587 9.9855513280563706 1 rotate no_reflect no_shear #
lump $-1 $-1 $19 $1 #
transform $-1 1 0 0 0 1 0 0 0 1 71.006805627613147 30.216519556575587 9.9855513280563706 1 rotate no_reflect no_shear #
lump $-1 $-1 $20 $2 #
transform $-1 1 0 0 0 1 0 0 0 1 71.006805627613147 30.216519556575587 9.9855513280563706 1 rotate no_reflect no_shear #
lump $-1 $-1 $21 $3 #
transform $-1 1 0 0 0 1 0 0 0 1 71.006805627613147 30.216519556575587 9.9855513280563706 1 rotate no_reflect no_shear #
lump $-1 $-1 $22 $4 #
transform $-1 1 0 0 0 1 0 0 0 1 71.006805627613147 30.216519556575587 9.9855513280563706 1 rotate no_reflect no_shear #
lump $-1 $-1 $23 $5 #
transform $-1 1 0 0 0 1 0 0 0 1 71.006805627613147 30.216519556575587 9.9855513280563706 1 rotate no_reflect no_shear #
shell $-1 $-1 $-1 $24 $-1 $6 #
shell $-1 $-1 $-1 $25 $-1 $8 #
shell $-1 $-1 $-1 $26 $-1 $10 #
shell $-1 $-1 $-1 $27 $-1 $12 #
shell $-1 $-1 $-1 $28 $-1 $14 #
shell $-1 $-1 $-1 $29 $-1 $16 #
face $-1 $30 $31 $18 $-1 $32 forward single #
face $-1 $33 $34 $19 $-1 $35 forward single #
face $-1 $36 $37 $20 $-1 $38 reversed single #
face $-1 $39 $40 $21 $-1 $41 forward single #
face $-1 $42 $43 $22 $-1 $44 forward single #
face $-1 $45 $46 $23 $-1 $47 forward single #
face $-1 $48 $49 $18 $-1 $50 reversed single #
loop $-1 $-1 $51 $24 #
plane-surface $-1 0 0 9.9855513280563706 0 0 1 1 0 0 forward_v I I I I #
face $-1 $52 $53 $19 $-1 $54 reversed single #
loop $-1 $-1 $55 $25 #
plane-surface $-1 0 -30.216519556575587 0 0 1 0 0 0 1 forward_v I I I I #
face $-1 $56 $57 $20 $-1 $58 reversed single #
loop $-1 $-1 $59 $26 #
plane-surface $-1 -182.9150596274954 16.915328618938076 93.773176879428888 0 1 0 -0.78801076186113728 0 0.61566146476048833 forward_v I I I I #
face $-1 $60 $61 $21 $-1 $62 forward single #
loop $-1 $63 $64 $27 #
cone-surface $-1 -69.189031311618521 19.575566806465584 7.8553794107027919 0.78801076186113728 0 -0.61566146476048833 0.30783073238024417 0 0.39400538093056864 1 I I 0 1 0.5 forward I I I I #
face $-1 $65 $66 $22 $-1 $67 forward single #
loop $-1 $68 $69 $28 #
cone-surface $-1 -69.189031311618521 23.565924087756837 7.8553794107027919 0.78801076186113728 0 -0.61566146476048833 0.30783073238024417 0 0.39400538093056864 1 I I 0 1 0.5 forward I I I I #
face $-1 $70 $71 $23 $-1 $72 forward single #
loop $-1 $73 $74 $29 #
cone-surface $-1 -69.189031311618521 27.55628136904809 7.8553794107027919 0.78801076186113728 0 -0.61566146476048833 0.30783073238024417 0 0.39400538093056864 1 I I 0 1 0.5 forward I I I I #
face $-1 $75 $76 $18 $-1 $77 reversed single #
loop $-1 $-1 $78 $30 #
plane-surface $-1 0 0 -9.9855513280563706 0 0 1 1 0 0 forward_v I I I I #
coedge $-1 $79 $80 $81 $82 forward $31 $-1 #
face $-1 $83 $84 $19 $-1 $85 forward single #
loop $-1 $-1 $86 $33 #
plane-surface $-1 -71.006805627613147 0 0 1 0 0 0 0 -1 forward_v I I I I #
coedge $-1 $87 $88 $89 $90 forward $34 $-1 #
face $-1 $91 $92 $20 $-1 $93 forward single #
loop $-1 $-1 $94 $36 #
plane-surface $-1 -71.006805627613147 23.56592408775683 6.3408689581096951 -0.78801076186113728 0 0.61566146476048833 0.61566146476048833 0 0.78801076186113728 forward_v I I I I #
coedge $-1 $95 $96 $97 $98 reversed $37 $-1 #
face $-1 $-1 $99 $21 $-1 $100 forward single #
loop $-1 $101 $102 $39 #
cone-surface $-1 -68.598023240222673 19.575566806465584 7.393633312132426 0.78801076186113728 0 -0.61566146476048833 0.15391536619012208 0 0.19700269046528432 1 I I -0.70710678118654746 0.70710678118654746 0.25 forward I I I I #
loop $-1 $-1 $103 $27 #
coedge $-1 $64 $64 $104 $105 reversed $40 $-1 #
face $-1 $-1 $106 $22 $-1 $107 forward single #
loop $-1 $108 $109 $42 #
cone-surface $-1 -68.598023240222673 23.565924087756837 7.393633312132426 0.78801076186113728 0 -0.61566146476048833 0.15391536619012208 0 0.19700269046528432 1 I I -0.70710678118654746 0.70710678118654746 0.25 forward I I I I #
loop $-1 $-1 $110 $28 #
coedge $-1 $69 $69 $111 $112 reversed $43 $-1 #
face $-1 $-1 $113 $23 $-1 $114 forward single #
loop $-1 $115 $116 $45 #
cone-surface $-1 -68.598023240222673 27.55628136904809 7.393633312132426 0.78801076186113728 0 -0.61566146476048833 0.15391536619012208 0 0.19700269046528432 1 I I -0.70710678118654746 0.70710678118654746 0.25 forward I I I I #
loop $-1 $-1 $117 $29 #
coedge $-1 $74 $74 $118 $119 reversed $46 $-1 #
face $-1 $120 $121 $18 $-1 $122 reversed single #
loop $-1 $-1 $123 $48 #
plane-surface $-1 0 -30.216519556575587 0 0 1 0 0 0 1 forward_v I I I I #
coedge $-1 $124 $125 $126 $127 forward $49 $-1 #
coedge $-1 $128 $51 $129 $130 forward $31 $-1 #
coedge $-1 $51 $128 $131 $132 forward $31 $-1 #
coedge $-1 $133 $134 $51 $82 reversed $135 $-1 #
edge $-1 $136 -30.216519556575587 $137 30.216519556575587 $81 $138 forward 7 unknown #
face $-1 $139 $140 $19 $-1 $141 reversed single #
loop $-1 $-1 $142 $52 #
plane-surface $-1 0 -33.806810868803453 1.8103479697394329 0 0 1 1 0 0 forward_v I I I I #
coedge $-1 $143 $144 $88 $145 forward $53 $-1 #
coedge $-1 $146 $55 $147 $148 reversed $34 $-1 #
coedge $-1 $55 $146 $86 $145 reversed $34 $-1 #
coedge $-1 $149 $142 $55 $90 reversed $84 $-1 #
edge $-1 $150 -71.006805627613147 $151 71.006805627613147 $89 $152 forward 7 unknown #
face $-1 $153 $154 $20 $-1 $155 reversed single #
loop $-1 $-1 $97 $56 #
plane-surface $-1 0 0 9.9855513280563706 0 0 1 1 0 0 forward_v I I I I #
coedge $-1 $156 $157 $158 $159 reversed $57 $-1 #
coedge $-1 $96 $59 $160 $161 reversed $37 $-1 #
coedge $-1 $59 $95 $156 $162 reversed $37 $-1 #
coedge $-1 $158 $163 $59 $98 forward $92 $-1 #
edge $-1 $164 20.450724186134551 $165 23.298262056262672 $97 $166 forward 7 unknown #
loop $-1 $-1 $104 $60 #
plane-surface $-1 -71.006805627613147 23.56592408775683 6.3408689581096951 -0.78801076186113728 0 0.61566146476048833 0.61566146476048833 0 0.78801076186113728 forward_v I I I I #
loop $-1 $-1 $167 $39 #
coedge $-1 $102 $102 $103 $168 reversed $61 $-1 #
coedge $-1 $103 $103 $102 $168 forward $63 $-1 #
coedge $-1 $104 $104 $64 $105 forward $99 $-1 #
edge $-1 $169 0 $169 6.2831853071796004 $104 $170 forward 7 unknown #
loop $-1 $-1 $111 $65 #
plane-surface $-1 -71.006805627613147 23.56592408775683 6.3408689581096951 -0.78801076186113728 0 0.61566146476048833 0.61566146476048833 0 0.78801076186113728 forward_v I I I I #
loop $-1 $-1 $171 $42 #
coedge $-1 $109 $109 $110 $172 reversed $66 $-1 #
coedge $-1 $110 $110 $109 $172 forward $68 $-1 #
coedge $-1 $111 $111 $69 $112 forward $106 $-1 #
edge $-1 $173 0 $173 6.2831853071796004 $111 $174 forward 7 unknown #
loop $-1 $-1 $118 $70 #
plane-surface $-1 -71.006805627613147 23.56592408775683 6.3408689581096951 -0.78801076186113728 0 0.61566146476048833 0.61566146476048833 0 0.78801076186113728 forward_v I I I I #
loop $-1 $-1 $175 $45 #
coedge $-1 $116 $116 $117 $176 reversed $71 $-1 #
coedge $-1 $117 $117 $116 $176 forward $73 $-1 #
coedge $-1 $118 $118 $74 $119 forward $113 $-1 #
edge $-1 $177 0 $177 6.2831853071796004 $118 $178 forward 7 unknown #
face $-1 $179 $180 $18 $-1 $181 reversed single #
loop $-1 $-1 $182 $75 #
plane-surface $-1 -71.006805627613147 0 0 1 0 0 0 0 -1 forward_v I I I I #
coedge $-1 $183 $131 $184 $185 forward $76 $-1 #
coedge $-1 $186 $78 $183 $187 forward $49 $-1 #
coedge $-1 $78 $186 $188 $189 forward $49 $-1 #
coedge $-1 $134 $133 $78 $127 reversed $135 $-1 #
edge $-1 $190 -30.216519556575587 $191 30.216519556575587 $126 $192 forward 7 unknown #
coedge $-1 $80 $79 $193 $194 forward $31 $-1 #
coedge $-1 $195 $196 $79 $130 reversed $180 $-1 #
edge $-1 $137 -71.006805627613147 $197 71.006805627613147 $129 $198 forward 7 unknown #
coedge $-1 $123 $199 $80 $132 reversed $76 $-1 #
edge $-1 $200 -71.006805627613147 $136 71.006805627613147 $131 $201 forward 7 unknown #
coedge $-1 $126 $81 $199 $202 forward $135 $-1 #
coedge $-1 $81 $126 $195 $203 reversed $135 $-1 #
loop $-1 $-1 $133 $179 #
vertex $-1 $82 $204 #
vertex $-1 $82 $205 #
straight-curve $-1 71.006805627613147 0 9.9855513280563706 0 1 0 I I #
face $-1 $206 $207 $19 $-1 $208 reversed single #
loop $-1 $-1 $209 $83 #
plane-surface $-1 0 -33.806810868803453 -1.7888632035490142 0 0 1 1 0 0 forward_v I I I I #
coedge $-1 $89 $210 $211 $212 forward $84 $-1 #
coedge $-1 $213 $86 $214 $215 reversed $53 $-1 #
coedge $-1 $86 $213 $149 $216 reversed $53 $-1 #
edge $-1 $150 -1.8103479697394329 $217 1.7888632035490142 $86 $218 forward 7 unknown #
coedge $-1 $88 $87 $219 $220 forward $34 $-1 #
coedge $-1 $211 $221 $87 $148 forward $222 $-1 #
edge $-1 $223 -1.7888632035490142 $151 1.8103479697394329 $147 $224 forward 7 unknown #
coedge $-1 $210 $89 $144 $216 forward $84 $-1 #
vertex $-1 $145 $225 #
vertex $-1 $212 $226 #
straight-curve $-1 0 -30.216519556575587 1.8103479697394329 1 0 0 I I #
face $-1 $-1 $227 $20 $-1 $228 reversed single #
loop $-1 $-1 $229 $91 #
plane-surface $-1 0 30.216519556575587 0 0 -1 0 0 0 -1 forward_v I I I I #
coedge $-1 $230 $94 $96 $162 forward $57 $-1 #
coedge $-1 $94 $230 $229 $231 reversed $57 $-1 #
coedge $-1 $232 $97 $94 $159 forward $92 $-1 #
edge $-1 $165 5.1323665750596614 $233 18.43355751269717 $158 $234 forward 7 unknown #
coedge $-1 $235 $236 $95 $161 forward $227 $-1 #
edge $-1 $237 -40.545719481604749 $164 -36.90103711165807 $160 $238 forward 7 unknown #
edge $-1 $165 -4.6251682671675756 $237 0 $96 $239 forward 7 unknown #
coedge $-1 $97 $232 $235 $240 forward $92 $-1 #
vertex $-1 $161 $241 #
vertex $-1 $98 $242 #
straight-curve $-1 -91.457529813747698 16.915328618938076 9.9855513280563741 1 0 0 I I #
coedge $-1 $167 $167 $-1 $243 reversed $101 $-1 #
edge $-1 $244 0 $244 6.2831853071796004 $102 $245 forward 7 unknown #
vertex $-1 $105 $246 #
ellipse-curve $-1 -69.583036692549086 19.575566806465584 8.1632101430830346 -0.78801076186113728 0 0.61566146476048833 0.30783073238024417 0 0.39400538093056864 1 I I #
coedge $-1 $171 $171 $-1 $247 reversed $108 $-1 #
edge $-1 $248 0 $248 6.2831853071796004 $109 $249 forward 7 unknown #
vertex $-1 $112 $250 #
ellipse-curve $-1 -69.583036692549086 23.565924087756837 8.1632101430830346 -0.78801076186113728 0 0.61566146476048833 0.30783073238024417 0 0.39400538093056864 1 I I #
coedge $-1 $175 $175 $-1 $251 reversed $115 $-1 #
edge $-1 $252 0 $252 6.2831853071796004 $116 $253 forward 7 unknown #
vertex $-1 $119 $254 #
ellipse-curve $-1 -69.583036692549086 27.55628136904809 8.1632101430830346 -0.78801076186113728 0 0.61566146476048833 0.30783073238024417 0 0.39400538093056864 1 I I #
face $-1 $-1 $135 $18 $-1 $255 reversed single #
loop $-1 $-1 $195 $120 #
plane-surface $-1 0 30.216519556575587 0 0 -1 0 0 0 -1 forward_v I I I I #
coedge $-1 $256 $193 $196 $257 forward $121 $-1 #
coedge $-1 $199 $123 $124 $187 reversed $76 $-1 #
coedge $-1 $193 $256 $123 $185 reversed $121 $-1 #
edge $-1 $200 -9.9855513280563706 $258 9.9855513280563706 $184 $259 forward 7 unknown #
coedge $-1 $125 $124 $256 $260 forward $49 $-1 #
edge $-1 $191 -71.006805627613147 $258 71.006805627613147 $183 $261 forward 7 unknown #
coedge $-1 $196 $195 $125 $189 reversed $180 $-1 #
edge $-1 $262 -71.006805627613147 $190 71.006805627613147 $188 $263 forward 7 unknown #
vertex $-1 $127 $264 #
vertex $-1 $202 $265 #
straight-curve $-1 71.006805627613147 0 -9.9855513280563706 0 -1 0 I I #
coedge $-1 $182 $184 $128 $194 reversed $121 $-1 #
edge $-1 $197 -30.216519556575587 $200 30.216519556575587 $193 $266 forward 7 unknown #
coedge $-1 $188 $129 $134 $203 forward $180 $-1 #
coedge $-1 $129 $188 $182 $257 reversed $180 $-1 #
vertex $-1 $130 $267 #
straight-curve $-1 0 30.216519556575587 9.9855513280563706 -1 0 0 I I #
coedge $-1 $131 $183 $133 $202 reversed $76 $-1 #
vertex $-1 $194 $268 #
straight-curve $-1 0 -30.216519556575587 9.9855513280563706 1 0 0 I I #
edge $-1 $136 -9.9855513280563706 $191 9.9855513280563706 $133 $269 forward 7 unknown #
edge $-1 $137 -9.9855513280563706 $190 9.9855513280563706 $134 $270 forward 7 unknown #
point $-1 71.006805627613147 -30.216519556575587 9.9855513280563706 #
point $-1 71.006805627613147 30.216519556575587 9.9855513280563706 #
face $-1 $-1 $222 $19 $-1 $271 reversed single #
loop $-1 $-1 $272 $139 #
plane-surface $-1 0 -37.397102181031315 0.010742383095209362 0 1 0 0 0 1 forward_v I I I I #
coedge $-1 $273 $219 $221 $274 forward $140 $-1 #
coedge $-1 $142 $149 $275 $276 forward $84 $-1 #
coedge $-1 $277 $147 $142 $212 reversed $222 $-1 #
edge $-1 $278 -3.5902913122278619 $151 3.5902913122278619 $211 $279 forward 7 unknown #
coedge $-1 $144 $143 $272 $280 reversed $53 $-1 #
coedge $-1 $219 $273 $143 $215 forward $140 $-1 #
edge $-1 $281 -3.5902913122278619 $217 3.5902913122278619 $143 $282 forward 7 unknown #
edge $-1 $150 -3.5902913122278619 $283 3.5902913122278619 $144 $284 forward 7 unknown #
vertex $-1 $145 $285 #
straight-curve $-1 -71.006805627613147 -30.216519556575587 0 0 0 -1 I I #
coedge $-1 $209 $214 $146 $220 reversed $140 $-1 #
edge $-1 $223 -71.006805627613147 $217 71.006805627613147 $219 $286 forward 7 unknown #
coedge $-1 $147 $277 $209 $274 reversed $222 $-1 #
loop $-1 $-1 $147 $206 #
vertex $-1 $148 $287 #
straight-curve $-1 71.006805627613147 -30.216519556575587 0 0 0 1 I I #
point $-1 -71.006805627613147 -30.216519556575591 1.8103479697394329 #
point $-1 71.006805627613147 -30.216519556575591 1.8103479697394329 #
loop $-1 $-1 $160 $153 #
plane-surface $-1 -71.006805627613147 0 0 1 0 0 0 0 -1 forward_v I I I I #
coedge $-1 $288 $289 $157 $231 forward $154 $-1 #
coedge $-1 $157 $156 $236 $290 reversed $57 $-1 #
edge $-1 $233 14.734572223891391 $291 19.359740491058968 $229 $292 forward 7 unknown #
coedge $-1 $163 $158 $289 $293 forward $92 $-1 #
vertex $-1 $293 $294 #
straight-curve $-1 -68.15926775748504 11.782962043878415 9.9855513280563688 0 1 0 I I #
coedge $-1 $295 $160 $163 $240 reversed $227 $-1 #
coedge $-1 $160 $295 $230 $290 forward $227 $-1 #
vertex $-1 $161 $296 #
straight-curve $-1 -71.006805627613147 16.915328618938076 46.886588439714444 0 0 1 I I #
straight-curve $-1 -71.006805627613147 16.915328618938076 6.3408689581096951 -0.61566146476048833 0 -0.78801076186113728 I I #
edge $-1 $297 -30.216519556575587 $164 -16.915328618938076 $235 $298 forward 7 unknown #
point $-1 -71.006805627613147 16.915328618938076 9.9855513280563706 #
point $-1 -68.159267757485026 16.915328618938076 9.9855513280563706 #
edge $-1 $299 1 $299 0 $167 $-1 forward 7 unknown #
vertex $-1 $168 $300 #
ellipse-curve $-1 -68.795025930687956 19.575566806465584 7.5475486783225483 -0.78801076186113728 0 0.61566146476048833 0.30783073238024417 0 0.39400538093056864 1 I I #
point $-1 -69.275205960168847 19.575566806465584 8.5572155240136052 #
edge $-1 $301 1 $301 0 $171 $-1 forward 7 unknown #
vertex $-1 $172 $302 #
ellipse-curve $-1 -68.795025930687956 23.565924087756837 7.5475486783225483 -0.78801076186113728 0 0.61566146476048833 0.30783073238024417 0 0.39400538093056864 1 I I #
point $-1 -69.275205960168847 23.565924087756837 8.5572155240136052 #
edge $-1 $303 1 $303 0 $175 $-1 forward 7 unknown #
vertex $-1 $176 $304 #
ellipse-curve $-1 -68.795025930687956 27.55628136904809 7.5475486783225483 -0.78801076186113728 0 0.61566146476048833 0.30783073238024417 0 0.39400538093056864 1 I I #
point $-1 -69.275205960168847 27.55628136904809 8.5572155240136052 #
plane-surface $-1 71.006805627613147 0 0 -1 0 0 0 0 1 forward_v I I I I #
coedge $-1 $184 $182 $186 $260 reversed $121 $-1 #
edge $-1 $197 -9.9855513280563706 $262 9.9855513280563706 $196 $305 forward 7 unknown #
vertex $-1 $260 $306 #
straight-curve $-1 -71.006805627613147 -30.216519556575587 0 0 0 -1 I I #
edge $-1 $258 -30.216519556575587 $262 30.216519556575587 $256 $307 forward 7 unknown #
straight-curve $-1 0 -30.216519556575587 -9.9855513280563706 -1 0 0 I I #
vertex $-1 $189 $308 #
straight-curve $-1 0 30.216519556575587 -9.9855513280563706 1 0 0 I I #
point $-1 71.006805627613147 30.216519556575587 -9.9855513280563706 #
point $-1 71.006805627613147 -30.216519556575587 -9.9855513280563706 #
straight-curve $-1 -71.006805627613147 0 9.9855513280563706 0 -1 0 I I #
point $-1 -71.006805627613147 30.216519556575587 9.9855513280563706 #
point $-1 -71.006805627613147 -30.216519556575587 9.9855513280563706 #
straight-curve $-1 71.006805627613147 -30.216519556575587 0 0 0 -1 I I #
straight-curve $-1 71.006805627613147 30.216519556575587 0 0 0 -1 I I #
plane-surface $-1 71.006805627613147 0 0 -1 0 0 0 0 1 forward_v I I I I #
coedge $-1 $309 $275 $213 $280 forward $207 $-1 #
coedge $-1 $214 $209 $309 $310 forward $140 $-1 #
edge $-1 $223 -3.5902913122278619 $311 3.5902913122278619 $221 $312 forward 7 unknown #
coedge $-1 $272 $313 $210 $276 reversed $207 $-1 #
edge $-1 $283 -71.006805627613147 $278 71.006805627613147 $275 $314 forward 7 unknown #
coedge $-1 $221 $211 $313 $315 forward $222 $-1 #
vertex $-1 $212 $316 #
straight-curve $-1 71.006805627613147 -33.806810868803453 1.8103479697394329 0 1 0 I I #
edge $-1 $283 -1.7996055866442235 $281 1.7996055866442235 $213 $317 forward 7 unknown #
vertex $-1 $215 $318 #
straight-curve $-1 -71.006805627613147 -33.806810868803453 -1.7888632035490142 0 1 0 I I #
vertex $-1 $216 $319 #
straight-curve $-1 -71.006805627613147 -33.806810868803453 1.8103479697394329 0 -1 0 I I #
point $-1 -71.006805627613147 -30.216519556575591 -1.7888632035490142 #
straight-curve $-1 0 -30.216519556575587 -1.7888632035490142 -1 0 0 I I #
point $-1 71.006805627613147 -30.216519556575591 -1.7888632035490142 #
coedge $-1 $289 $229 $295 $320 reversed $154 $-1 #
coedge $-1 $229 $288 $232 $293 reversed $154 $-1 #
edge $-1 $291 -18.43355751269717 $237 -5.1323665750596614 $236 $321 forward 7 unknown #
vertex $-1 $231 $322 #
straight-curve $-1 -59.08775943950485 30.216519556575587 21.596552811902981 -0.61566146476048833 0 -0.78801076186113728 I I #
edge $-1 $233 68.159267757485026 $297 71.006805627613147 $289 $323 forward 7 unknown #
point $-1 -68.159267757485026 30.216519556575584 9.9855513280563706 #
coedge $-1 $236 $235 $288 $320 forward $227 $-1 #
point $-1 -71.006805627613147 16.915328618938076 6.3408689581096951 #
vertex $-1 $293 $324 #
straight-curve $-1 -71.006805627613147 0 9.9855513280563706 0 -1 0 I I #
vertex $-1 $243 $325 #
point $-1 -68.487195198307717 19.575566806465584 7.9415540592531171 #
vertex $-1 $247 $326 #
point $-1 -68.487195198307717 23.565924087756837 7.9415540592531171 #
vertex $-1 $251 $327 #
point $-1 -68.487195198307717 27.55628136904809 7.9415540592531171 #
straight-curve $-1 -71.006805627613147 30.216519556575587 0 0 0 -1 I I #
point $-1 -71.006805627613147 -30.216519556575587 -9.9855513280563706 #
straight-curve $-1 -71.006805627613147 0 -9.9855513280563706 0 1 0 I I #
point $-1 -71.006805627613147 30.216519556575587 -9.9855513280563706 #
coedge $-1 $313 $272 $273 $310 reversed $207 $-1 #
edge $-1 $311 -71.006805627613147 $281 71.006805627613147 $309 $328 forward 7 unknown #
vertex $-1 $315 $329 #
straight-curve $-1 71.006805627613147 -33.806810868803453 -1.7888632035490142 0 -1 0 I I #
coedge $-1 $275 $309 $277 $315 reversed $207 $-1 #
straight-curve $-1 0 -37.397102181031315 1.8103479697394329 1 0 0 I I #
edge $-1 $278 -1.7996055866442235 $311 1.7996055866442235 $277 $330 forward 7 unknown #
point $-1 71.006805627613147 -37.397102181031315 1.8103479697394329 #
straight-curve $-1 -71.006805627613147 -37.397102181031315 0.010742383095209362 0 0 -1 I I #
point $-1 -71.006805627613147 -37.397102181031315 -1.7888632035490142 #
point $-1 -71.006805627613147 -37.397102181031315 1.8103479697394329 #
edge $-1 $297 -9.9855513280563706 $291 -6.3408689581096951 $288 $331 forward 7 unknown #
straight-curve $-1 -71.006805627613147 11.782962043878415 6.3408689581096933 0 -1 0 I I #
point $-1 -71.006805627613147 30.216519556575584 6.3408689581096951 #
straight-curve $-1 0 30.216519556575587 9.9855513280563706 -1 0 0 I I #
point $-1 -71.006805627613147 30.216519556575587 9.9855513280563706 #
point $-1 -68.401020549757391 19.575566806465584 7.2397179459423038 #
point $-1 -68.401020549757391 23.565924087756837 7.2397179459423038 #
point $-1 -68.401020549757391 27.55628136904809 7.2397179459423038 #
straight-curve $-1 0 -37.397102181031315 -1.7888632035490142 -1 0 0 I I #
point $-1 71.006805627613147 -37.397102181031315 -1.7888632035490142 #
straight-curve $-1 71.006805627613147 -37.397102181031315 0.010742383095209362 0 0 -1 I I #
straight-curve $-1 -71.006805627613147 30.216519556575587 0 0 0 -1 I I #
End-of-ACIS-data 