500 0 18 0           
7 Unknown 11 ACIS 5.0 NT 24 Fri Mar 26 15:44:52 1999 
-1 9.9999999999999995e-007 1e-010 
body $-1 $18 $-1 $19 #
body $-1 $20 $-1 $21 #
body $-1 $22 $-1 $23 #
body $-1 $24 $-1 $25 #
body $-1 $26 $-1 $27 #
body $-1 $28 $-1 $29 #
body $-1 $30 $-1 $31 #
body $-1 $32 $-1 $33 #
body $-1 $34 $-1 $35 #
body $-1 $36 $-1 $37 #
body $-1 $38 $-1 $39 #
body $-1 $40 $-1 $41 #
body $-1 $42 $-1 $43 #
body $-1 $44 $-1 $45 #
body $-1 $46 $-1 $47 #
body $-1 $48 $-1 $49 #
body $-1 $50 $-1 $51 #
body $-1 $52 $-1 $53 #
lump $-1 $-1 $54 $0 #
transform $-1 1 0 0 0 1 0 0 0 1 63.673818170720544 28.754557622534961 13.206017845698542 1 rotate no_reflect no_shear #
lump $-1 $-1 $55 $1 #
transform $-1 1 0 0 0 1 0 0 0 1 63.673818170720544 28.754557622534961 13.206017845698542 1 rotate no_reflect no_shear #
lump $-1 $-1 $56 $2 #
transform $-1 1 0 0 0 1 0 0 0 1 63.673818170720544 28.754557622534961 13.206017845698542 1 rotate no_reflect no_shear #
lump $-1 $-1 $57 $3 #
transform $-1 1 0 0 0 1 0 0 0 1 63.673818170720544 28.754557622534961 13.206017845698542 1 rotate no_reflect no_shear #
lump $-1 $-1 $58 $4 #
transform $-1 1 0 0 0 1 0 0 0 1 63.673818170720544 28.754557622534961 13.206017845698542 1 rotate no_reflect no_shear #
lump $-1 $-1 $59 $5 #
transform $-1 1 0 0 0 1 0 0 0 1 63.673818170720544 28.754557622534961 13.206017845698542 1 rotate no_reflect no_shear #
lump $-1 $-1 $60 $6 #
transform $-1 1 0 0 0 1 0 0 0 1 63.673818170720544 28.754557622534961 13.206017845698542 1 rotate no_reflect no_shear #
lump $-1 $-1 $61 $7 #
transform $-1 1 0 0 0 1 0 0 0 1 63.673818170720544 28.754557622534961 13.206017845698542 1 rotate no_reflect no_shear #
lump $-1 $-1 $62 $8 #
transform $-1 1 0 0 0 1 0 0 0 1 63.673818170720544 28.754557622534961 13.206017845698542 1 rotate no_reflect no_shear #
lump $-1 $-1 $63 $9 #
transform $-1 1 0 0 0 1 0 0 0 1 63.673818170720544 28.754557622534961 13.206017845698542 1 rotate no_reflect no_shear #
lump $-1 $-1 $64 $10 #
transform $-1 1 0 0 0 1 0 0 0 1 63.673818170720544 28.754557622534961 13.206017845698542 1 rotate no_reflect no_shear #
lump $-1 $-1 $65 $11 #
transform $-1 1 0 0 0 1 0 0 0 1 63.673818170720544 28.754557622534961 13.206017845698542 1 rotate no_reflect no_shear #
lump $-1 $-1 $66 $12 #
transform $-1 1 0 0 0 1 0 0 0 1 63.673818170720544 28.754557622534961 13.206017845698542 1 rotate no_reflect no_shear #
lump $-1 $-1 $67 $13 #
transform $-1 1 0 0 0 1 0 0 0 1 63.673818170720544 28.754557622534961 13.206017845698542 1 rotate no_reflect no_shear #
lump $-1 $-1 $68 $14 #
transform $-1 1 0 0 0 1 0 0 0 1 63.673818170720544 28.754557622534961 13.206017845698542 1 rotate no_reflect no_shear #
lump $-1 $-1 $69 $15 #
transform $-1 1 0 0 0 1 0 0 0 1 63.673818170720544 28.754557622534961 13.206017845698542 1 rotate no_reflect no_shear #
lump $-1 $-1 $70 $16 #
transform $-1 1 0 0 0 1 0 0 0 1 63.673818170720544 28.754557622534961 13.206017845698542 1 rotate no_reflect no_shear #
lump $-1 $-1 $71 $17 #
transform $-1 1 0 0 0 1 0 0 0 1 63.673818170720544 28.754557622534961 13.206017845698542 1 rotate no_reflect no_shear #
shell $-1 $-1 $-1 $72 $-1 $18 #
shell $-1 $-1 $-1 $73 $-1 $20 #
shell $-1 $-1 $-1 $74 $-1 $22 #
shell $-1 $-1 $-1 $75 $-1 $24 #
shell $-1 $-1 $-1 $76 $-1 $26 #
shell $-1 $-1 $-1 $77 $-1 $28 #
shell $-1 $-1 $-1 $78 $-1 $30 #
shell $-1 $-1 $-1 $79 $-1 $32 #
shell $-1 $-1 $-1 $80 $-1 $34 #
shell $-1 $-1 $-1 $81 $-1 $36 #
shell $-1 $-1 $-1 $82 $-1 $38 #
shell $-1 $-1 $-1 $83 $-1 $40 #
shell $-1 $-1 $-1 $84 $-1 $42 #
shell $-1 $-1 $-1 $85 $-1 $44 #
shell $-1 $-1 $-1 $86 $-1 $46 #
shell $-1 $-1 $-1 $87 $-1 $48 #
shell $-1 $-1 $-1 $88 $-1 $50 #
shell $-1 $-1 $-1 $89 $-1 $52 #
face $-1 $90 $91 $54 $-1 $92 forward single #
face $-1 $93 $94 $55 $-1 $95 forward single #
face $-1 $96 $97 $56 $-1 $98 forward single #
face $-1 $99 $100 $57 $-1 $101 reversed single #
face $-1 $102 $103 $58 $-1 $104 forward single #
face $-1 $105 $106 $59 $-1 $107 forward single #
face $-1 $108 $109 $60 $-1 $110 reversed single #
face $-1 $111 $112 $61 $-1 $113 forward single #
face $-1 $114 $115 $62 $-1 $116 forward single #
face $-1 $117 $118 $63 $-1 $119 reversed single #
face $-1 $120 $121 $64 $-1 $122 forward single #
face $-1 $123 $124 $65 $-1 $125 forward single #
face $-1 $126 $127 $66 $-1 $128 reversed single #
face $-1 $129 $130 $67 $-1 $131 forward single #
face $-1 $132 $133 $68 $-1 $134 forward single #
face $-1 $135 $136 $69 $-1 $137 reversed single #
face $-1 $138 $139 $70 $-1 $140 forward single #
face $-1 $141 $142 $71 $-1 $143 forward single #
face $-1 $144 $145 $54 $-1 $146 reversed single #
loop $-1 $-1 $147 $72 #
plane-surface $-1 0 0 13.206017845698542 0 0 1 1 0 0 forward_v I I I I #
face $-1 $148 $149 $55 $-1 $150 reversed single #
loop $-1 $-1 $151 $73 #
plane-surface $-1 -63.673818170720544 0 0 1 0 0 0 0 -1 forward_v I I I I #
face $-1 $152 $153 $56 $-1 $154 reversed single #
loop $-1 $-1 $155 $74 #
plane-surface $-1 63.673818170720544 0 0 -1 0 0 0 0 1 forward_v I I I I #
face $-1 $156 $157 $57 $-1 $158 reversed single #
loop $-1 $-1 $159 $75 #
plane-surface $-1 20.909575328896992 106.27629187306063 120.74371274334615 1 0 0 0 -0.84804810408105047 -0.52991925155115449 forward_v I I I I #
face $-1 $160 $161 $58 $-1 $162 forward single #
loop $-1 $163 $164 $76 #
cone-surface $-1 29.18834112665953 24.096617980961177 7.6388129558327913 0 -0.84804810408105047 -0.52991925155115449 2.5 0 0 1 I I 0 1 2.5 forward I I I I #
face $-1 $165 $166 $59 $-1 $167 forward single #
loop $-1 $168 $169 $77 #
cone-surface $-1 41.606489823303356 24.096617980961177 7.6388129558327913 0 -0.84804810408105047 -0.52991925155115449 2.5 0 0 1 I I 0 1 2.5 forward I I I I #
face $-1 $170 $171 $60 $-1 $172 reversed single #
loop $-1 $-1 $173 $78 #
plane-surface $-1 -27.492022583413039 -105.39427930596477 110.23993485555033 -1 0 0 0 -0.6018150307709319 0.79863550430605224 forward_v I I I I #
face $-1 $174 $175 $61 $-1 $176 forward single #
loop $-1 $177 $178 $79 #
cone-surface $-1 -39.087562286097089 -25.148176894001558 10.1973982832817 0 0.6018150307709319 -0.79863550430605224 1 0 0 1 I I 0 1 1 forward I I I I #
face $-1 $179 $180 $62 $-1 $181 forward single #
loop $-1 $182 $183 $80 #
cone-surface $-1 -32.130238464486652 -25.148176894001558 10.1973982832817 0 0.6018150307709319 -0.79863550430605224 1 0 0 1 I I 0 1 1 forward I I I I #
face $-1 $184 $185 $63 $-1 $186 reversed single #
loop $-1 $-1 $187 $81 #
plane-surface $-1 -2.549394772880083 -105.39427930596477 110.23993485555033 -1 0 0 0 -0.6018150307709319 0.79863550430605224 forward_v I I I I #
face $-1 $188 $189 $64 $-1 $190 forward single #
loop $-1 $191 $192 $82 #
cone-surface $-1 -14.144934475564135 -25.148176894001558 10.1973982832817 0 0.6018150307709319 -0.79863550430605224 1 0 0 1 I I 0 1 1 forward I I I I #
face $-1 $193 $194 $65 $-1 $195 forward single #
loop $-1 $196 $197 $83 #
cone-surface $-1 -7.1876106539537048 -25.148176894001558 10.1973982832817 0 0.6018150307709319 -0.79863550430605224 1 0 0 1 I I 0 1 1 forward I I I I #
face $-1 $198 $199 $66 $-1 $200 reversed single #
loop $-1 $-1 $201 $84 #
plane-surface $-1 22.39323303765287 -105.39427930596477 110.23993485555033 -1 0 0 0 -0.6018150307709319 0.79863550430605224 forward_v I I I I #
face $-1 $202 $203 $67 $-1 $204 forward single #
loop $-1 $205 $206 $85 #
cone-surface $-1 10.79769333496882 -25.148176894001558 10.1973982832817 0 0.6018150307709319 -0.79863550430605224 1 0 0 1 I I 0 1 1 forward I I I I #
face $-1 $207 $208 $68 $-1 $209 forward single #
loop $-1 $210 $211 $86 #
cone-surface $-1 17.75501715657925 -25.148176894001558 10.1973982832817 0 0.6018150307709319 -0.79863550430605224 1 0 0 1 I I 0 1 1 forward I I I I #
face $-1 $212 $213 $69 $-1 $214 reversed single #
loop $-1 $-1 $215 $87 #
plane-surface $-1 47.335860848185824 -105.39427930596477 110.23993485555033 -1 0 0 0 -0.6018150307709319 0.79863550430605224 forward_v I I I I #
face $-1 $216 $217 $70 $-1 $218 forward single #
loop $-1 $219 $220 $88 #
cone-surface $-1 35.740321145501774 -25.148176894001558 10.1973982832817 0 0.6018150307709319 -0.79863550430605224 1 0 0 1 I I 0 1 1 forward I I I I #
face $-1 $221 $222 $71 $-1 $223 forward single #
loop $-1 $224 $225 $89 #
cone-surface $-1 42.697644967112204 -25.148176894001558 10.1973982832817 0 0.6018150307709319 -0.79863550430605224 1 0 0 1 I I 0 1 1 forward I I I I #
face $-1 $226 $227 $54 $-1 $228 reversed single #
loop $-1 $-1 $229 $90 #
plane-surface $-1 0 0 -13.206017845698542 0 0 1 1 0 0 forward_v I I I I #
coedge $-1 $230 $231 $232 $233 forward $91 $-1 #
face $-1 $234 $235 $55 $-1 $236 reversed single #
loop $-1 $-1 $237 $93 #
plane-surface $-1 0 0 -13.206017845698542 0 0 1 1 0 0 forward_v I I I I #
coedge $-1 $238 $239 $240 $241 forward $94 $-1 #
face $-1 $242 $243 $56 $-1 $244 reversed single #
loop $-1 $-1 $245 $96 #
plane-surface $-1 0 0 -13.206017845698542 0 0 1 1 0 0 forward_v I I I I #
coedge $-1 $246 $247 $248 $249 forward $97 $-1 #
face $-1 $250 $251 $57 $-1 $252 reversed single #
loop $-1 $-1 $253 $99 #
plane-surface $-1 35.39741547498145 -1.7206296855015637 53.259748606481082 0 0.84804810408105047 0.52991925155115449 1 0 0 forward_v I I I I #
coedge $-1 $254 $255 $256 $257 reversed $100 $-1 #
face $-1 $-1 $258 $58 $-1 $259 forward single #
loop $-1 $260 $261 $102 #
cone-surface $-1 29.18834112665953 21.102037888712943 5.7675916966169236 0 -0.84804810408105047 -0.52991925155115449 1.25 0 0 1 I I -0.70710678118654746 0.70710678118654746 1.25 forward I I I I #
loop $-1 $-1 $262 $76 #
coedge $-1 $164 $164 $263 $264 reversed $103 $-1 #
face $-1 $-1 $265 $59 $-1 $266 forward single #
loop $-1 $267 $268 $105 #
cone-surface $-1 41.606489823303356 21.102037888712943 5.7675916966169236 0 -0.84804810408105047 -0.52991925155115449 1.25 0 0 1 I I -0.70710678118654746 0.70710678118654746 1.25 forward I I I I #
loop $-1 $-1 $269 $77 #
coedge $-1 $169 $169 $270 $271 reversed $106 $-1 #
face $-1 $272 $273 $60 $-1 $274 reversed single #
loop $-1 $-1 $275 $108 #
plane-surface $-1 -35.608900375291874 -28.754557622534961 8.5355910838197815 0 -0.6018150307709319 0.79863550430605224 1 0 0 forward_v I I I I #
coedge $-1 $276 $277 $278 $279 reversed $109 $-1 #
face $-1 $-1 $280 $61 $-1 $281 forward single #
loop $-1 $282 $283 $111 #
cone-surface $-1 -39.087562286097089 -24.339821413127339 9.124674349651217 0 0.6018150307709319 -0.79863550430605224 0.5 0 0 1 I I -0.70710678118654746 0.70710678118654746 0.5 forward I I I I #
loop $-1 $-1 $284 $79 #
coedge $-1 $178 $178 $285 $286 reversed $112 $-1 #
face $-1 $-1 $287 $62 $-1 $288 forward single #
loop $-1 $289 $290 $114 #
cone-surface $-1 -32.130238464486652 -24.339821413127339 9.124674349651217 0 0.6018150307709319 -0.79863550430605224 0.5 0 0 1 I I -0.70710678118654746 0.70710678118654746 0.5 forward I I I I #
loop $-1 $-1 $291 $80 #
coedge $-1 $183 $183 $292 $293 reversed $115 $-1 #
face $-1 $294 $295 $63 $-1 $296 reversed single #
loop $-1 $-1 $297 $117 #
plane-surface $-1 -10.66627256475892 -28.754557622534961 8.5355910838197815 0 -0.6018150307709319 0.79863550430605224 1 0 0 forward_v I I I I #
coedge $-1 $298 $299 $300 $301 reversed $118 $-1 #
face $-1 $-1 $302 $64 $-1 $303 forward single #
loop $-1 $304 $305 $120 #
cone-surface $-1 -14.144934475564135 -24.339821413127339 9.124674349651217 0 0.6018150307709319 -0.79863550430605224 0.5 0 0 1 I I -0.70710678118654746 0.70710678118654746 0.5 forward I I I I #
loop $-1 $-1 $306 $82 #
coedge $-1 $192 $192 $307 $308 reversed $121 $-1 #
face $-1 $-1 $309 $65 $-1 $310 forward single #
loop $-1 $311 $312 $123 #
cone-surface $-1 -7.1876106539537048 -24.339821413127339 9.124674349651217 0 0.6018150307709319 -0.79863550430605224 0.5 0 0 1 I I -0.70710678118654746 0.70710678118654746 0.5 forward I I I I #
loop $-1 $-1 $313 $83 #
coedge $-1 $197 $197 $314 $315 reversed $124 $-1 #
face $-1 $316 $317 $66 $-1 $318 reversed single #
loop $-1 $-1 $319 $126 #
plane-surface $-1 14.276355245774035 -28.754557622534961 8.5355910838197815 0 -0.6018150307709319 0.79863550430605224 1 0 0 forward_v I I I I #
coedge $-1 $320 $321 $322 $323 reversed $127 $-1 #
face $-1 $-1 $324 $67 $-1 $325 forward single #
loop $-1 $326 $327 $129 #
cone-surface $-1 10.79769333496882 -24.339821413127339 9.124674349651217 0 0.6018150307709319 -0.79863550430605224 0.5 0 0 1 I I -0.70710678118654746 0.70710678118654746 0.5 forward I I I I #
loop $-1 $-1 $328 $85 #
coedge $-1 $206 $206 $329 $330 reversed $130 $-1 #
face $-1 $-1 $331 $68 $-1 $332 forward single #
loop $-1 $333 $334 $132 #
cone-surface $-1 17.75501715657925 -24.339821413127339 9.124674349651217 0 0.6018150307709319 -0.79863550430605224 0.5 0 0 1 I I -0.70710678118654746 0.70710678118654746 0.5 forward I I I I #
loop $-1 $-1 $335 $86 #
coedge $-1 $211 $211 $336 $337 reversed $133 $-1 #
face $-1 $338 $339 $69 $-1 $340 reversed single #
loop $-1 $-1 $341 $135 #
plane-surface $-1 39.218983056306989 -28.754557622534961 8.5355910838197815 0 -0.6018150307709319 0.79863550430605224 1 0 0 forward_v I I I I #
coedge $-1 $342 $343 $344 $345 reversed $136 $-1 #
face $-1 $-1 $346 $70 $-1 $347 forward single #
loop $-1 $348 $349 $138 #
cone-surface $-1 35.740321145501774 -24.339821413127339 9.124674349651217 0 0.6018150307709319 -0.79863550430605224 0.5 0 0 1 I I -0.70710678118654746 0.70710678118654746 0.5 forward I I I I #
loop $-1 $-1 $350 $88 #
coedge $-1 $220 $220 $351 $352 reversed $139 $-1 #
face $-1 $-1 $353 $71 $-1 $354 forward single #
loop $-1 $355 $356 $141 #
cone-surface $-1 42.697644967112204 -24.339821413127339 9.124674349651217 0 0.6018150307709319 -0.79863550430605224 0.5 0 0 1 I I -0.70710678118654746 0.70710678118654746 0.5 forward I I I I #
loop $-1 $-1 $357 $89 #
coedge $-1 $225 $225 $358 $359 reversed $142 $-1 #
face $-1 $360 $361 $54 $-1 $362 reversed single #
loop $-1 $-1 $363 $144 #
plane-surface $-1 0 -28.754557622534961 0 0 1 0 0 0 1 forward_v I I I I #
coedge $-1 $364 $365 $366 $367 forward $145 $-1 #
coedge $-1 $368 $147 $369 $370 forward $91 $-1 #
coedge $-1 $147 $368 $371 $372 forward $91 $-1 #
coedge $-1 $373 $374 $147 $233 reversed $375 $-1 #
edge $-1 $376 -28.754557622534961 $377 28.754557622534961 $232 $378 forward 7 unknown #
face $-1 $379 $380 $55 $-1 $381 reversed single #
loop $-1 $-1 $382 $148 #
plane-surface $-1 -70.568099445547873 -14.230104689239269 0 0 1 0 0 0 1 forward_v I I I I #
coedge $-1 $383 $384 $239 $385 forward $149 $-1 #
coedge $-1 $386 $151 $387 $388 reversed $94 $-1 #
coedge $-1 $151 $386 $237 $385 reversed $94 $-1 #
coedge $-1 $389 $390 $151 $241 reversed $391 $-1 #
edge $-1 $392 -13.206017845698542 $393 13.206017845698542 $240 $394 forward 7 unknown #
face $-1 $395 $396 $56 $-1 $397 reversed single #
loop $-1 $-1 $248 $152 #
plane-surface $-1 70.568099445547858 -14.230104689239269 0 0 1 0 0 0 1 forward_v I I I I #
coedge $-1 $398 $399 $247 $400 forward $153 $-1 #
coedge $-1 $401 $155 $402 $403 reversed $97 $-1 #
coedge $-1 $155 $401 $245 $400 reversed $97 $-1 #
coedge $-1 $404 $405 $155 $249 reversed $243 $-1 #
edge $-1 $406 -13.206017845698542 $407 13.206017845698542 $248 $408 forward 7 unknown #
face $-1 $409 $410 $57 $-1 $411 reversed single #
loop $-1 $-1 $412 $156 #
plane-surface $-1 49.885255621065909 106.27629187306063 120.74371274334615 -1 0 0 0 0.84804810408105047 0.52991925155115449 forward_v I I I I #
coedge $-1 $413 $414 $415 $416 reversed $157 $-1 #
coedge $-1 $255 $159 $417 $418 reversed $100 $-1 #
coedge $-1 $159 $254 $413 $419 reversed $100 $-1 #
coedge $-1 $415 $420 $159 $257 forward $421 $-1 #
edge $-1 $422 24.383588313995354 $423 29.830427672849058 $256 $424 forward 7 unknown #
loop $-1 $-1 $263 $160 #
plane-surface $-1 35.39741547498145 -1.7206296855015637 53.259748606481082 0 0.84804810408105047 0.52991925155115449 1 0 0 forward_v I I I I #
loop $-1 $-1 $425 $102 #
coedge $-1 $261 $261 $262 $426 reversed $161 $-1 #
coedge $-1 $262 $262 $261 $426 forward $163 $-1 #
coedge $-1 $263 $263 $164 $264 forward $258 $-1 #
edge $-1 $427 7.536904512749666e-016 $427 6.2831853071796013 $263 $428 forward 7 unknown #
loop $-1 $-1 $270 $165 #
plane-surface $-1 35.39741547498145 -1.7206296855015637 53.259748606481082 0 0.84804810408105047 0.52991925155115449 1 0 0 forward_v I I I I #
loop $-1 $-1 $429 $105 #
coedge $-1 $268 $268 $269 $430 reversed $166 $-1 #
coedge $-1 $269 $269 $268 $430 forward $168 $-1 #
coedge $-1 $270 $270 $169 $271 forward $265 $-1 #
edge $-1 $431 7.536904512749666e-016 $431 6.2831853071796013 $270 $432 forward 7 unknown #
face $-1 $433 $434 $60 $-1 $435 forward single #
loop $-1 $-1 $436 $170 #
plane-surface $-1 -43.725778167170709 -105.39427930596477 110.23993485555033 1 0 0 0 0.6018150307709319 -0.79863550430605224 forward_v I I I I #
coedge $-1 $437 $438 $439 $440 reversed $171 $-1 #
coedge $-1 $277 $173 $441 $442 reversed $109 $-1 #
coedge $-1 $173 $276 $437 $443 reversed $109 $-1 #
coedge $-1 $439 $444 $173 $279 forward $434 $-1 #
edge $-1 $445 23.942582030447426 $446 30.140447556536721 $278 $447 forward 7 unknown #
loop $-1 $-1 $285 $174 #
plane-surface $-1 -35.608900375291874 -28.754557622534961 8.5355910838197815 0 -0.6018150307709319 0.79863550430605224 1 0 0 forward_v I I I I #
loop $-1 $-1 $448 $111 #
coedge $-1 $283 $283 $284 $449 reversed $175 $-1 #
coedge $-1 $284 $284 $283 $449 forward $177 $-1 #
coedge $-1 $285 $285 $178 $286 forward $280 $-1 #
edge $-1 $450 -1.0690382459638171e-015 $450 6.2831853071795996 $285 $451 forward 7 unknown #
loop $-1 $-1 $292 $179 #
plane-surface $-1 -35.608900375291874 -28.754557622534961 8.5355910838197815 0 -0.6018150307709319 0.79863550430605224 1 0 0 forward_v I I I I #
loop $-1 $-1 $452 $114 #
coedge $-1 $290 $290 $291 $453 reversed $180 $-1 #
coedge $-1 $291 $291 $290 $453 forward $182 $-1 #
coedge $-1 $292 $292 $183 $293 forward $287 $-1 #
edge $-1 $454 -1.0690382459638171e-015 $454 6.2831853071795996 $292 $455 forward 7 unknown #
face $-1 $456 $457 $63 $-1 $458 reversed single #
loop $-1 $-1 $459 $184 #
plane-surface $-1 -18.783150356637755 -105.39427930596477 110.23993485555033 1 0 0 0 0.6018150307709319 -0.79863550430605224 forward_v I I I I #
coedge $-1 $460 $461 $462 $463 reversed $185 $-1 #
coedge $-1 $299 $187 $464 $465 reversed $118 $-1 #
coedge $-1 $187 $298 $460 $466 reversed $118 $-1 #
coedge $-1 $462 $467 $187 $301 forward $468 $-1 #
edge $-1 $469 23.942582030447426 $470 30.140447556536721 $300 $471 forward 7 unknown #
loop $-1 $-1 $307 $188 #
plane-surface $-1 -10.66627256475892 -28.754557622534961 8.5355910838197815 0 -0.6018150307709319 0.79863550430605224 1 0 0 forward_v I I I I #
loop $-1 $-1 $472 $120 #
coedge $-1 $305 $305 $306 $473 reversed $189 $-1 #
coedge $-1 $306 $306 $305 $473 forward $191 $-1 #
coedge $-1 $307 $307 $192 $308 forward $302 $-1 #
edge $-1 $474 -1.0690382459638171e-015 $474 6.2831853071795996 $307 $475 forward 7 unknown #
loop $-1 $-1 $314 $193 #
plane-surface $-1 -10.66627256475892 -28.754557622534961 8.5355910838197815 0 -0.6018150307709319 0.79863550430605224 1 0 0 forward_v I I I I #
loop $-1 $-1 $476 $123 #
coedge $-1 $312 $312 $313 $477 reversed $194 $-1 #
coedge $-1 $313 $313 $312 $477 forward $196 $-1 #
coedge $-1 $314 $314 $197 $315 forward $309 $-1 #
edge $-1 $478 -1.0690382459638171e-015 $478 6.2831853071795996 $314 $479 forward 7 unknown #
face $-1 $480 $481 $66 $-1 $482 reversed single #
loop $-1 $-1 $483 $198 #
plane-surface $-1 6.1594774538951977 -105.39427930596477 110.23993485555033 1 0 0 0 0.6018150307709319 -0.79863550430605224 forward_v I I I I #
coedge $-1 $484 $485 $486 $487 reversed $199 $-1 #
coedge $-1 $321 $201 $488 $489 reversed $127 $-1 #
coedge $-1 $201 $320 $484 $490 reversed $127 $-1 #
coedge $-1 $486 $491 $201 $323 forward $492 $-1 #
edge $-1 $493 23.942582030447426 $494 30.140447556536721 $322 $495 forward 7 unknown #
loop $-1 $-1 $329 $202 #
plane-surface $-1 14.276355245774035 -28.754557622534961 8.5355910838197815 0 -0.6018150307709319 0.79863550430605224 1 0 0 forward_v I I I I #
loop $-1 $-1 $496 $129 #
coedge $-1 $327 $327 $328 $497 reversed $203 $-1 #
coedge $-1 $328 $328 $327 $497 forward $205 $-1 #
coedge $-1 $329 $329 $206 $330 forward $324 $-1 #
edge $-1 $498 -1.0690382459638171e-015 $498 6.2831853071795996 $329 $499 forward 7 unknown #
loop $-1 $-1 $336 $207 #
plane-surface $-1 14.276355245774035 -28.754557622534961 8.5355910838197815 0 -0.6018150307709319 0.79863550430605224 1 0 0 forward_v I I I I #
loop $-1 $-1 $500 $132 #
coedge $-1 $334 $334 $335 $501 reversed $208 $-1 #
coedge $-1 $335 $335 $334 $501 forward $210 $-1 #
coedge $-1 $336 $336 $211 $337 forward $331 $-1 #
edge $-1 $502 -1.0690382459638171e-015 $502 6.2831853071795996 $336 $503 forward 7 unknown #
face $-1 $504 $505 $69 $-1 $506 reversed single #
loop $-1 $-1 $507 $212 #
plane-surface $-1 31.102105264428154 -105.39427930596477 110.23993485555033 1 0 0 0 0.6018150307709319 -0.79863550430605224 forward_v I I I I #
coedge $-1 $508 $509 $510 $511 reversed $213 $-1 #
coedge $-1 $343 $215 $512 $513 reversed $136 $-1 #
coedge $-1 $215 $342 $508 $514 reversed $136 $-1 #
coedge $-1 $510 $515 $215 $345 forward $516 $-1 #
edge $-1 $517 23.942582030447426 $518 30.140447556536721 $344 $519 forward 7 unknown #
loop $-1 $-1 $351 $216 #
plane-surface $-1 39.218983056306989 -28.754557622534961 8.5355910838197815 0 -0.6018150307709319 0.79863550430605224 1 0 0 forward_v I I I I #
loop $-1 $-1 $520 $138 #
coedge $-1 $349 $349 $350 $521 reversed $217 $-1 #
coedge $-1 $350 $350 $349 $521 forward $219 $-1 #
coedge $-1 $351 $351 $220 $352 forward $346 $-1 #
edge $-1 $522 -1.0690382459638171e-015 $522 6.2831853071795996 $351 $523 forward 7 unknown #
loop $-1 $-1 $358 $221 #
plane-surface $-1 39.218983056306989 -28.754557622534961 8.5355910838197815 0 -0.6018150307709319 0.79863550430605224 1 0 0 forward_v I I I I #
loop $-1 $-1 $524 $141 #
coedge $-1 $356 $356 $357 $525 reversed $222 $-1 #
coedge $-1 $357 $357 $356 $525 forward $224 $-1 #
coedge $-1 $358 $358 $225 $359 forward $353 $-1 #
edge $-1 $526 -1.0690382459638171e-015 $526 6.2831853071795996 $358 $527 forward 7 unknown #
face $-1 $528 $529 $54 $-1 $530 reversed single #
loop $-1 $-1 $531 $226 #
plane-surface $-1 -63.673818170720544 0 0 1 0 0 0 0 -1 forward_v I I I I #
coedge $-1 $532 $371 $533 $534 forward $227 $-1 #
coedge $-1 $535 $229 $532 $536 forward $145 $-1 #
coedge $-1 $229 $535 $537 $538 forward $145 $-1 #
coedge $-1 $374 $373 $229 $367 reversed $375 $-1 #
edge $-1 $539 -28.754557622534961 $540 28.754557622534961 $366 $541 forward 7 unknown #
coedge $-1 $231 $230 $542 $543 forward $91 $-1 #
coedge $-1 $544 $545 $230 $370 reversed $529 $-1 #
edge $-1 $377 -63.673818170720544 $546 63.673818170720544 $369 $547 forward 7 unknown #
coedge $-1 $363 $548 $231 $372 reversed $227 $-1 #
edge $-1 $549 -63.673818170720544 $376 63.673818170720544 $371 $550 forward 7 unknown #
coedge $-1 $366 $232 $548 $551 forward $375 $-1 #
coedge $-1 $232 $366 $544 $552 reversed $375 $-1 #
loop $-1 $-1 $373 $528 #
vertex $-1 $233 $553 #
vertex $-1 $233 $554 #
straight-curve $-1 63.673818170720544 0 13.206017845698542 0 1 0 I I #
face $-1 $555 $391 $55 $-1 $556 reversed single #
loop $-1 $-1 $557 $234 #
plane-surface $-1 -77.462380720375194 -10.873889179425902 0 1 0 0 0 0 -1 forward_v I I I I #
coedge $-1 $558 $559 $560 $561 forward $235 $-1 #
coedge $-1 $562 $237 $558 $563 forward $149 $-1 #
coedge $-1 $237 $562 $389 $564 forward $149 $-1 #
edge $-1 $392 7.5176736696125337 $565 14.230104689239269 $237 $566 forward 7 unknown #
coedge $-1 $239 $238 $567 $568 forward $94 $-1 #
coedge $-1 $569 $570 $238 $388 forward $571 $-1 #
edge $-1 $572 -14.230104689239269 $393 -7.5176736696125337 $387 $573 forward 7 unknown #
coedge $-1 $574 $240 $384 $564 reversed $391 $-1 #
coedge $-1 $240 $574 $569 $575 reversed $391 $-1 #
loop $-1 $-1 $240 $379 #
vertex $-1 $385 $576 #
vertex $-1 $575 $577 #
straight-curve $-1 -63.673818170720544 -7.5176736696125337 0 0 0 1 I I #
face $-1 $578 $579 $56 $-1 $580 reversed single #
loop $-1 $-1 $581 $242 #
plane-surface $-1 70.568099445547858 -7.5176736696125337 0 0 -1 0 0 0 -1 forward_v I I I I #
coedge $-1 $582 $245 $583 $584 forward $153 $-1 #
coedge $-1 $245 $582 $404 $585 forward $153 $-1 #
edge $-1 $406 -14.230104689239269 $586 -7.5176736696125337 $245 $587 forward 7 unknown #
coedge $-1 $247 $246 $588 $589 forward $97 $-1 #
coedge $-1 $590 $591 $246 $403 forward $592 $-1 #
edge $-1 $593 7.5176736696125337 $407 14.230104689239269 $402 $594 forward 7 unknown #
coedge $-1 $595 $248 $399 $585 reversed $243 $-1 #
coedge $-1 $248 $595 $590 $596 reversed $243 $-1 #
vertex $-1 $400 $597 #
vertex $-1 $596 $598 #
straight-curve $-1 63.673818170720544 -14.230104689239269 0 0 0 1 I I #
face $-1 $-1 $421 $57 $-1 $599 forward single #
loop $-1 $-1 $600 $250 #
plane-surface $-1 0 28.754557622534961 0 0 -1 0 0 0 -1 forward_v I I I I #
coedge $-1 $601 $602 $603 $604 reversed $251 $-1 #
coedge $-1 $605 $253 $255 $419 forward $157 $-1 #
coedge $-1 $253 $605 $601 $606 forward $157 $-1 #
coedge $-1 $603 $256 $253 $416 forward $421 $-1 #
edge $-1 $423 3.2108675914062665 $607 32.186547883575187 $415 $608 forward 7 unknown #
coedge $-1 $609 $610 $254 $418 forward $410 $-1 #
edge $-1 $611 -55.882603916152149 $422 -47.165838525974536 $417 $612 forward 7 unknown #
edge $-1 $423 47.23049384584732 $611 57.509115245069893 $255 $613 forward 7 unknown #
coedge $-1 $256 $603 $609 $614 forward $421 $-1 #
loop $-1 $-1 $603 $409 #
vertex $-1 $418 $615 #
vertex $-1 $257 $616 #
straight-curve $-1 20.909575328896992 53.138145936530314 13.20601784569854 0 -1 0 I I #
coedge $-1 $425 $425 $-1 $617 reversed $260 $-1 #
edge $-1 $618 0 $618 6.2831853071796004 $261 $619 forward 7 unknown #
vertex $-1 $264 $620 #
ellipse-curve $-1 29.18834112665953 26.031137943108114 8.8476351506097242 0 0.84804810408105047 0.52991925155115449 2.5 0 0 1 I I #
coedge $-1 $429 $429 $-1 $621 reversed $267 $-1 #
edge $-1 $622 0 $622 6.2831853071796004 $268 $623 forward 7 unknown #
vertex $-1 $271 $624 #
ellipse-curve $-1 41.606489823303356 26.031137943108114 8.8476351506097242 0 0.84804810408105047 0.52991925155115449 2.5 0 0 1 I I #
face $-1 $-1 $625 $60 $-1 $626 reversed single #
loop $-1 $-1 $278 $272 #
plane-surface $-1 0 0 13.206017845698542 0 0 1 1 0 0 forward_v I I I I #
coedge $-1 $627 $628 $629 $630 reversed $273 $-1 #
coedge $-1 $631 $275 $277 $443 forward $171 $-1 #
coedge $-1 $275 $631 $627 $632 forward $171 $-1 #
coedge $-1 $629 $278 $275 $440 forward $434 $-1 #
edge $-1 $446 9.6875723957671021 $633 25.921327979524772 $439 $634 forward 7 unknown #
coedge $-1 $635 $636 $276 $442 forward $625 $-1 #
edge $-1 $637 -46.584376343955384 $445 -41.913949582076626 $441 $638 forward 7 unknown #
edge $-1 $446 -7.76056848546287 $637 0 $277 $639 forward 7 unknown #
coedge $-1 $278 $629 $635 $640 forward $434 $-1 #
vertex $-1 $279 $641 #
vertex $-1 $279 $642 #
straight-curve $-1 -27.492022583413039 -52.697139652982386 13.20601784569854 0 1 0 I I #
coedge $-1 $448 $448 $-1 $643 reversed $282 $-1 #
edge $-1 $644 0 $644 6.2831853071796004 $283 $645 forward 7 unknown #
vertex $-1 $286 $646 #
ellipse-curve $-1 -39.087562286097089 -25.655624859490317 10.870804464759161 0 -0.6018150307709319 0.79863550430605224 1 0 0 1 I I #
coedge $-1 $452 $452 $-1 $647 reversed $289 $-1 #
edge $-1 $648 0 $648 6.2831853071796004 $290 $649 forward 7 unknown #
vertex $-1 $293 $650 #
ellipse-curve $-1 -32.130238464486652 -25.655624859490317 10.870804464759161 0 -0.6018150307709319 0.79863550430605224 1 0 0 1 I I #
face $-1 $-1 $468 $63 $-1 $651 forward single #
loop $-1 $-1 $652 $294 #
plane-surface $-1 0 -28.754557622534961 0 0 1 0 0 0 1 forward_v I I I I #
coedge $-1 $653 $654 $655 $656 reversed $295 $-1 #
coedge $-1 $657 $297 $299 $466 forward $185 $-1 #
coedge $-1 $297 $657 $653 $658 forward $185 $-1 #
coedge $-1 $655 $300 $297 $463 forward $468 $-1 #
edge $-1 $470 -2.7837415094993769 $659 13.450014074258295 $462 $660 forward 7 unknown #
coedge $-1 $661 $662 $298 $465 forward $457 $-1 #
edge $-1 $663 -46.584376343955384 $469 -41.913949582076626 $464 $664 forward 7 unknown #
edge $-1 $470 -7.76056848546287 $663 0 $299 $665 forward 7 unknown #
coedge $-1 $300 $655 $661 $666 forward $468 $-1 #
loop $-1 $-1 $655 $456 #
vertex $-1 $465 $667 #
vertex $-1 $301 $668 #
straight-curve $-1 -2.549394772880083 -52.697139652982386 13.20601784569854 0 1 0 I I #
coedge $-1 $472 $472 $-1 $669 reversed $304 $-1 #
edge $-1 $670 0 $670 6.2831853071796004 $305 $671 forward 7 unknown #
vertex $-1 $308 $672 #
ellipse-curve $-1 -14.144934475564135 -25.655624859490317 10.870804464759161 0 -0.6018150307709319 0.79863550430605224 1 0 0 1 I I #
coedge $-1 $476 $476 $-1 $673 reversed $311 $-1 #
edge $-1 $674 0 $674 6.2831853071796004 $312 $675 forward 7 unknown #
vertex $-1 $315 $676 #
ellipse-curve $-1 -7.1876106539537048 -25.655624859490317 10.870804464759161 0 -0.6018150307709319 0.79863550430605224 1 0 0 1 I I #
face $-1 $-1 $492 $66 $-1 $677 forward single #
loop $-1 $-1 $678 $316 #
plane-surface $-1 0 -28.754557622534961 0 0 1 0 0 0 1 forward_v I I I I #
coedge $-1 $679 $680 $681 $682 reversed $317 $-1 #
coedge $-1 $683 $319 $321 $490 forward $199 $-1 #
coedge $-1 $319 $683 $679 $684 forward $199 $-1 #
coedge $-1 $681 $322 $319 $487 forward $492 $-1 #
edge $-1 $494 -15.255055414765852 $685 0.97870016899181955 $486 $686 forward 7 unknown #
coedge $-1 $687 $688 $320 $489 forward $481 $-1 #
edge $-1 $689 -46.584376343955384 $493 -41.913949582076626 $488 $690 forward 7 unknown #
edge $-1 $494 -7.76056848546287 $689 0 $321 $691 forward 7 unknown #
coedge $-1 $322 $681 $687 $692 forward $492 $-1 #
loop $-1 $-1 $681 $480 #
vertex $-1 $489 $693 #
vertex $-1 $323 $694 #
straight-curve $-1 22.39323303765287 -52.697139652982386 13.20601784569854 0 1 0 I I #
coedge $-1 $496 $496 $-1 $695 reversed $326 $-1 #
edge $-1 $696 0 $696 6.2831853071796004 $327 $697 forward 7 unknown #
vertex $-1 $330 $698 #
ellipse-curve $-1 10.79769333496882 -25.655624859490317 10.870804464759161 0 -0.6018150307709319 0.79863550430605224 1 0 0 1 I I #
coedge $-1 $500 $500 $-1 $699 reversed $333 $-1 #
edge $-1 $700 0 $700 6.2831853071796004 $334 $701 forward 7 unknown #
vertex $-1 $337 $702 #
ellipse-curve $-1 17.75501715657925 -25.655624859490317 10.870804464759161 0 -0.6018150307709319 0.79863550430605224 1 0 0 1 I I #
face $-1 $-1 $516 $69 $-1 $703 forward single #
loop $-1 $-1 $704 $338 #
plane-surface $-1 0 -28.754557622534961 0 0 1 0 0 0 1 forward_v I I I I #
coedge $-1 $705 $706 $707 $708 reversed $339 $-1 #
coedge $-1 $709 $341 $343 $514 forward $213 $-1 #
coedge $-1 $341 $709 $705 $710 forward $213 $-1 #
coedge $-1 $707 $344 $341 $511 forward $516 $-1 #
edge $-1 $518 -27.72636932003233 $711 -11.492613736274659 $510 $712 forward 7 unknown #
coedge $-1 $713 $714 $342 $513 forward $505 $-1 #
edge $-1 $715 -46.584376343955384 $517 -41.913949582076626 $512 $716 forward 7 unknown #
edge $-1 $518 -7.76056848546287 $715 0 $343 $717 forward 7 unknown #
coedge $-1 $344 $707 $713 $718 forward $516 $-1 #
loop $-1 $-1 $707 $504 #
vertex $-1 $513 $719 #
vertex $-1 $345 $720 #
straight-curve $-1 47.335860848185824 -52.697139652982386 13.20601784569854 0 1 0 I I #
coedge $-1 $520 $520 $-1 $721 reversed $348 $-1 #
edge $-1 $722 0 $722 6.2831853071796004 $349 $723 forward 7 unknown #
vertex $-1 $352 $724 #
ellipse-curve $-1 35.740321145501774 -25.655624859490317 10.870804464759161 0 -0.6018150307709319 0.79863550430605224 1 0 0 1 I I #
coedge $-1 $524 $524 $-1 $725 reversed $355 $-1 #
edge $-1 $726 0 $726 6.2831853071796004 $356 $727 forward 7 unknown #
vertex $-1 $359 $728 #
ellipse-curve $-1 42.697644967112204 -25.655624859490317 10.870804464759161 0 -0.6018150307709319 0.79863550430605224 1 0 0 1 I I #
face $-1 $-1 $375 $54 $-1 $729 reversed single #
loop $-1 $-1 $544 $360 #
plane-surface $-1 0 28.754557622534961 0 0 -1 0 0 0 -1 forward_v I I I I #
coedge $-1 $730 $542 $545 $731 forward $361 $-1 #
coedge $-1 $548 $363 $364 $536 reversed $227 $-1 #
coedge $-1 $542 $730 $363 $534 reversed $361 $-1 #
edge $-1 $549 -13.206017845698542 $732 13.206017845698542 $533 $733 forward 7 unknown #
coedge $-1 $365 $364 $730 $734 forward $145 $-1 #
edge $-1 $540 -63.673818170720544 $732 63.673818170720544 $532 $735 forward 7 unknown #
coedge $-1 $545 $544 $365 $538 reversed $529 $-1 #
edge $-1 $736 -63.673818170720544 $539 63.673818170720544 $537 $737 forward 7 unknown #
vertex $-1 $367 $738 #
vertex $-1 $551 $739 #
straight-curve $-1 63.673818170720544 0 -13.206017845698542 0 -1 0 I I #
coedge $-1 $531 $533 $368 $543 reversed $361 $-1 #
edge $-1 $546 -28.754557622534961 $549 28.754557622534961 $542 $740 forward 7 unknown #
coedge $-1 $537 $369 $374 $552 forward $529 $-1 #
coedge $-1 $369 $537 $531 $731 reversed $529 $-1 #
vertex $-1 $370 $741 #
straight-curve $-1 0 28.754557622534961 13.206017845698542 -1 0 0 I I #
coedge $-1 $371 $532 $373 $551 reversed $227 $-1 #
vertex $-1 $543 $742 #
straight-curve $-1 0 -28.754557622534961 13.206017845698542 1 0 0 I I #
edge $-1 $376 -13.206017845698542 $540 13.206017845698542 $373 $743 forward 7 unknown #
edge $-1 $377 -13.206017845698542 $539 13.206017845698542 $374 $744 forward 7 unknown #
point $-1 63.673818170720544 -28.754557622534961 13.206017845698542 #
point $-1 63.673818170720544 28.754557622534961 13.206017845698542 #
face $-1 $-1 $571 $55 $-1 $745 forward single #
plane-surface $-1 -70.568099445547873 -7.5176736696125337 0 0 -1 0 0 0 -1 forward_v I I I I #
coedge $-1 $746 $747 $574 $748 forward $380 $-1 #
coedge $-1 $567 $382 $383 $563 reversed $235 $-1 #
coedge $-1 $382 $567 $570 $749 reversed $235 $-1 #
coedge $-1 $747 $746 $382 $561 reversed $380 $-1 #
edge $-1 $750 -13.206017845698542 $751 13.206017845698542 $560 $752 forward 7 unknown #
coedge $-1 $384 $383 $746 $753 forward $149 $-1 #
edge $-1 $565 -6.8942812748273212 $751 6.8942812748273212 $558 $754 forward 7 unknown #
edge $-1 $755 -6.8942812748273212 $392 6.8942812748273212 $389 $756 forward 7 unknown #
vertex $-1 $563 $757 #
straight-curve $-1 -63.673818170720544 0 -13.206017845698542 0 -1 0 I I #
coedge $-1 $559 $558 $386 $568 reversed $235 $-1 #
edge $-1 $572 -13.206017845698542 $565 13.206017845698542 $567 $758 forward 7 unknown #
coedge $-1 $759 $387 $390 $575 forward $571 $-1 #
coedge $-1 $387 $759 $559 $749 forward $571 $-1 #
loop $-1 $-1 $387 $555 #
vertex $-1 $388 $760 #
straight-curve $-1 -63.673818170720544 0 13.206017845698542 0 1 0 I I #
coedge $-1 $390 $389 $557 $748 reversed $391 $-1 #
edge $-1 $393 -6.8942812748273212 $761 6.8942812748273212 $390 $762 forward 7 unknown #
point $-1 -63.673818170720551 -7.5176736696125337 -13.206017845698542 #
point $-1 -63.673818170720551 -7.5176736696125337 13.206017845698542 #
face $-1 $-1 $592 $56 $-1 $763 forward single #
loop $-1 $-1 $764 $395 #
plane-surface $-1 77.462380720375194 -10.873889179425902 0 -1 0 0 0 0 1 forward_v I I I I #
coedge $-1 $583 $765 $766 $767 forward $396 $-1 #
coedge $-1 $399 $398 $768 $769 forward $153 $-1 #
coedge $-1 $588 $581 $398 $584 reversed $396 $-1 #
edge $-1 $586 -6.8942812748273283 $770 6.8942812748273354 $583 $771 forward 7 unknown #
edge $-1 $772 -6.8942812748273354 $406 6.8942812748273283 $404 $773 forward 7 unknown #
vertex $-1 $584 $774 #
straight-curve $-1 63.673818170720544 0 -13.206017845698542 0 1 0 I I #
coedge $-1 $765 $583 $401 $589 reversed $396 $-1 #
edge $-1 $593 -13.206017845698542 $586 13.206017845698542 $588 $775 forward 7 unknown #
coedge $-1 $776 $402 $405 $596 forward $592 $-1 #
coedge $-1 $402 $776 $765 $777 forward $592 $-1 #
loop $-1 $-1 $402 $578 #
vertex $-1 $403 $778 #
straight-curve $-1 63.673818170720544 0 13.206017845698542 0 -1 0 I I #
coedge $-1 $405 $404 $764 $779 reversed $243 $-1 #
edge $-1 $407 -6.8942812748273283 $780 6.8942812748273354 $405 $781 forward 7 unknown #
point $-1 63.67381817072053 -14.230104689239269 -13.206017845698542 #
point $-1 63.67381817072053 -14.230104689239269 13.206017845698542 #
plane-surface $-1 0 0 13.206017845698542 0 0 1 1 0 0 forward_v I I I I #
coedge $-1 $610 $609 $602 $782 forward $410 $-1 #
coedge $-1 $602 $412 $414 $606 reversed $251 $-1 #
coedge $-1 $412 $601 $600 $782 reversed $251 $-1 #
coedge $-1 $420 $415 $412 $604 forward $421 $-1 #
edge $-1 $607 -29.830427672849058 $783 -24.383588313995354 $603 $784 forward 7 unknown #
coedge $-1 $414 $413 $610 $785 reversed $157 $-1 #
edge $-1 $786 -57.509115245069893 $607 -47.23049384584732 $601 $787 forward 7 unknown #
vertex $-1 $416 $788 #
straight-curve $-1 17.698707737490725 23.307718263681259 13.206017845698536 1 0 0 I I #
coedge $-1 $600 $417 $420 $614 reversed $410 $-1 #
coedge $-1 $417 $600 $605 $785 forward $410 $-1 #
vertex $-1 $418 $789 #
straight-curve $-1 20.909575328896992 28.754557622534961 60.371856371673076 0 0 1 I I #
straight-curve $-1 20.909575328896992 -1.7206296855015637 53.259748606481082 0 0.52991925155115449 -0.84804810408105047 I I #
edge $-1 $783 -49.885255621065909 $422 -20.909575328896992 $609 $790 forward 7 unknown #
point $-1 20.909575328896992 28.754557622534961 13.206017845698542 #
point $-1 20.909575328896992 23.307718263681256 13.20601784569854 #
edge $-1 $791 1 $791 0 $425 $-1 forward 7 unknown #
vertex $-1 $426 $792 #
ellipse-curve $-1 29.18834112665953 22.162098018814255 6.4299907610558664 0 0.84804810408105047 0.52991925155115449 2.5 0 0 1 I I #
point $-1 31.68834112665953 26.031137943108103 8.8476351506097153 #
edge $-1 $793 1 $793 0 $429 $-1 forward 7 unknown #
vertex $-1 $430 $794 #
ellipse-curve $-1 41.606489823303356 22.162098018814255 6.4299907610558664 0 0.84804810408105047 0.52991925155115449 2.5 0 0 1 I I #
point $-1 44.106489823303356 26.031137943108103 8.8476351506097153 #
loop $-1 $-1 $441 $433 #
plane-surface $-1 0 -28.754557622534961 0 0 1 0 0 0 1 forward_v I I I I #
coedge $-1 $628 $436 $438 $632 reversed $273 $-1 #
coedge $-1 $436 $627 $795 $796 reversed $273 $-1 #
coedge $-1 $444 $439 $436 $630 forward $434 $-1 #
edge $-1 $633 -30.140447556536721 $797 -23.942582030447426 $629 $798 forward 7 unknown #
coedge $-1 $438 $437 $636 $799 reversed $171 $-1 #
edge $-1 $800 0 $633 7.76056848546287 $627 $801 forward 7 unknown #
vertex $-1 $440 $802 #
straight-curve $-1 -17.804450187645937 -22.556692096445669 13.206017845698542 -1 0 0 I I #
coedge $-1 $795 $441 $444 $640 reversed $625 $-1 #
coedge $-1 $441 $795 $631 $799 forward $625 $-1 #
vertex $-1 $442 $803 #
straight-curve $-1 -27.492022583413039 -28.754557622534961 55.119967427775165 0 0 1 I I #
straight-curve $-1 -27.492022583413039 -28.754557622534961 8.5355910838197815 0 -0.79863550430605224 -0.6018150307709319 I I #
edge $-1 $797 -43.725778167170709 $445 -27.492022583413039 $635 $804 forward 7 unknown #
point $-1 -27.492022583413039 -28.754557622534961 13.206017845698542 #
point $-1 -27.492022583413039 -22.556692096445666 13.206017845698542 #
edge $-1 $805 1 $805 0 $448 $-1 forward 7 unknown #
vertex $-1 $449 $806 #
ellipse-curve $-1 -39.087562286097089 -24.640728928512804 9.523992101804243 0 -0.6018150307709319 0.79863550430605224 1 0 0 1 I I #
point $-1 -38.087562286097089 -25.655624859490317 10.870804464759159 #
edge $-1 $807 1 $807 0 $452 $-1 forward 7 unknown #
vertex $-1 $453 $808 #
ellipse-curve $-1 -32.130238464486652 -24.640728928512804 9.523992101804243 0 -0.6018150307709319 0.79863550430605224 1 0 0 1 I I #
point $-1 -31.130238464486652 -25.655624859490317 10.870804464759159 #
plane-surface $-1 0 0 13.206017845698542 0 0 1 1 0 0 forward_v I I I I #
coedge $-1 $662 $661 $654 $809 forward $457 $-1 #
coedge $-1 $654 $459 $461 $658 reversed $295 $-1 #
coedge $-1 $459 $653 $652 $809 reversed $295 $-1 #
coedge $-1 $467 $462 $459 $656 forward $468 $-1 #
edge $-1 $659 -30.140447556536721 $810 -23.942582030447426 $655 $811 forward 7 unknown #
coedge $-1 $461 $460 $662 $812 reversed $185 $-1 #
edge $-1 $813 0 $659 7.76056848546287 $653 $814 forward 7 unknown #
vertex $-1 $463 $815 #
straight-curve $-1 -5.3331362823794599 -22.556692096445669 13.206017845698542 -1 0 0 I I #
coedge $-1 $652 $464 $467 $666 reversed $457 $-1 #
coedge $-1 $464 $652 $657 $812 forward $457 $-1 #
vertex $-1 $465 $816 #
straight-curve $-1 -2.549394772880083 -28.754557622534961 55.119967427775165 0 0 1 I I #
straight-curve $-1 -2.549394772880083 -28.754557622534961 8.5355910838197815 0 -0.79863550430605224 -0.6018150307709319 I I #
edge $-1 $810 -18.783150356637755 $469 -2.549394772880083 $661 $817 forward 7 unknown #
point $-1 -2.549394772880083 -28.754557622534961 13.206017845698542 #
point $-1 -2.549394772880083 -22.556692096445666 13.206017845698542 #
edge $-1 $818 1 $818 0 $472 $-1 forward 7 unknown #
vertex $-1 $473 $819 #
ellipse-curve $-1 -14.144934475564135 -24.640728928512804 9.523992101804243 0 -0.6018150307709319 0.79863550430605224 1 0 0 1 I I #
point $-1 -13.144934475564135 -25.655624859490317 10.870804464759159 #
edge $-1 $820 1 $820 0 $476 $-1 forward 7 unknown #
vertex $-1 $477 $821 #
ellipse-curve $-1 -7.1876106539537048 -24.640728928512804 9.523992101804243 0 -0.6018150307709319 0.79863550430605224 1 0 0 1 I I #
point $-1 -6.1876106539537048 -25.655624859490317 10.870804464759159 #
plane-surface $-1 0 0 13.206017845698542 0 0 1 1 0 0 forward_v I I I I #
coedge $-1 $688 $687 $680 $822 forward $481 $-1 #
coedge $-1 $680 $483 $485 $684 reversed $317 $-1 #
coedge $-1 $483 $679 $678 $822 reversed $317 $-1 #
coedge $-1 $491 $486 $483 $682 forward $492 $-1 #
edge $-1 $685 -30.140447556536721 $823 -23.942582030447426 $681 $824 forward 7 unknown #
coedge $-1 $485 $484 $688 $825 reversed $199 $-1 #
edge $-1 $826 0 $685 7.76056848546287 $679 $827 forward 7 unknown #
vertex $-1 $487 $828 #
straight-curve $-1 7.1381776228870173 -22.556692096445669 13.206017845698542 -1 0 0 I I #
coedge $-1 $678 $488 $491 $692 reversed $481 $-1 #
coedge $-1 $488 $678 $683 $825 forward $481 $-1 #
vertex $-1 $489 $829 #
straight-curve $-1 22.39323303765287 -28.754557622534961 55.119967427775165 0 0 1 I I #
straight-curve $-1 22.39323303765287 -28.754557622534961 8.5355910838197815 0 -0.79863550430605224 -0.6018150307709319 I I #
edge $-1 $823 6.1594774538951977 $493 22.39323303765287 $687 $830 forward 7 unknown #
point $-1 22.39323303765287 -28.754557622534961 13.206017845698542 #
point $-1 22.39323303765287 -22.556692096445666 13.206017845698542 #
edge $-1 $831 1 $831 0 $496 $-1 forward 7 unknown #
vertex $-1 $497 $832 #
ellipse-curve $-1 10.79769333496882 -24.640728928512804 9.523992101804243 0 -0.6018150307709319 0.79863550430605224 1 0 0 1 I I #
point $-1 11.79769333496882 -25.655624859490317 10.870804464759159 #
edge $-1 $833 1 $833 0 $500 $-1 forward 7 unknown #
vertex $-1 $501 $834 #
ellipse-curve $-1 17.75501715657925 -24.640728928512804 9.523992101804243 0 -0.6018150307709319 0.79863550430605224 1 0 0 1 I I #
point $-1 18.75501715657925 -25.655624859490317 10.870804464759159 #
plane-surface $-1 0 0 13.206017845698542 0 0 1 1 0 0 forward_v I I I I #
coedge $-1 $714 $713 $706 $835 forward $505 $-1 #
coedge $-1 $706 $507 $509 $710 reversed $339 $-1 #
coedge $-1 $507 $705 $704 $835 reversed $339 $-1 #
coedge $-1 $515 $510 $507 $708 forward $516 $-1 #
edge $-1 $711 -30.140447556536721 $836 -23.942582030447426 $707 $837 forward 7 unknown #
coedge $-1 $509 $508 $714 $838 reversed $213 $-1 #
edge $-1 $839 0 $711 7.76056848546287 $705 $840 forward 7 unknown #
vertex $-1 $511 $841 #
straight-curve $-1 19.609491528153494 -22.556692096445669 13.206017845698542 -1 0 0 I I #
coedge $-1 $704 $512 $515 $718 reversed $505 $-1 #
coedge $-1 $512 $704 $709 $838 forward $505 $-1 #
vertex $-1 $513 $842 #
straight-curve $-1 47.335860848185824 -28.754557622534961 55.119967427775165 0 0 1 I I #
straight-curve $-1 47.335860848185824 -28.754557622534961 8.5355910838197815 0 -0.79863550430605224 -0.6018150307709319 I I #
edge $-1 $836 31.102105264428154 $517 47.335860848185824 $713 $843 forward 7 unknown #
point $-1 47.335860848185824 -28.754557622534961 13.206017845698542 #
point $-1 47.335860848185824 -22.556692096445666 13.206017845698542 #
edge $-1 $844 1 $844 0 $520 $-1 forward 7 unknown #
vertex $-1 $521 $845 #
ellipse-curve $-1 35.740321145501774 -24.640728928512804 9.523992101804243 0 -0.6018150307709319 0.79863550430605224 1 0 0 1 I I #
point $-1 36.740321145501774 -25.655624859490317 10.870804464759159 #
edge $-1 $846 1 $846 0 $524 $-1 forward 7 unknown #
vertex $-1 $525 $847 #
ellipse-curve $-1 42.697644967112204 -24.640728928512804 9.523992101804243 0 -0.6018150307709319 0.79863550430605224 1 0 0 1 I I #
point $-1 43.697644967112204 -25.655624859490317 10.870804464759159 #
plane-surface $-1 63.673818170720544 0 0 -1 0 0 0 0 1 forward_v I I I I #
coedge $-1 $533 $531 $535 $734 reversed $361 $-1 #
edge $-1 $546 -13.206017845698542 $736 13.206017845698542 $545 $848 forward 7 unknown #
vertex $-1 $734 $849 #
straight-curve $-1 -63.673818170720544 -28.754557622534961 0 0 0 -1 I I #
edge $-1 $732 -28.754557622534961 $736 28.754557622534961 $730 $850 forward 7 unknown #
straight-curve $-1 0 -28.754557622534961 -13.206017845698542 -1 0 0 I I #
vertex $-1 $538 $851 #
straight-curve $-1 0 28.754557622534961 -13.206017845698542 1 0 0 I I #
point $-1 63.673818170720544 28.754557622534961 -13.206017845698542 #
point $-1 63.673818170720544 -28.754557622534961 -13.206017845698542 #
straight-curve $-1 -63.673818170720544 0 13.206017845698542 0 -1 0 I I #
point $-1 -63.673818170720544 28.754557622534961 13.206017845698542 #
point $-1 -63.673818170720544 -28.754557622534961 13.206017845698542 #
straight-curve $-1 63.673818170720544 -28.754557622534961 0 0 0 -1 I I #
straight-curve $-1 63.673818170720544 28.754557622534961 0 0 0 -1 I I #
plane-surface $-1 0 0 13.206017845698542 0 0 1 1 0 0 forward_v I I I I #
coedge $-1 $560 $557 $562 $753 reversed $380 $-1 #
coedge $-1 $557 $560 $759 $852 reversed $380 $-1 #
edge $-1 $761 -13.206017845698542 $755 13.206017845698542 $574 $853 forward 7 unknown #
edge $-1 $750 -6.8942812748273212 $572 6.8942812748273212 $559 $854 forward 7 unknown #
vertex $-1 $852 $855 #
vertex $-1 $753 $856 #
straight-curve $-1 -77.462380720375194 -14.230104689239269 0 0 0 -1 I I #
edge $-1 $751 -3.3562155098133672 $755 3.3562155098133681 $746 $857 forward 7 unknown #
straight-curve $-1 -70.568099445547873 -14.230104689239269 -13.206017845698542 -1 0 0 I I #
vertex $-1 $564 $858 #
straight-curve $-1 -70.568099445547873 -7.5176736696125337 -13.206017845698542 1 0 0 I I #
point $-1 -63.673818170720551 -14.230104689239269 -13.206017845698542 #
straight-curve $-1 -63.673818170720544 -14.230104689239269 0 0 0 -1 I I #
coedge $-1 $570 $569 $747 $852 forward $571 $-1 #
point $-1 -63.673818170720551 -14.230104689239269 13.206017845698542 #
vertex $-1 $575 $859 #
straight-curve $-1 -70.568099445547873 -7.5176736696125337 13.206017845698542 -1 0 0 I I #
plane-surface $-1 0 0 13.206017845698542 0 0 1 1 0 0 forward_v I I I I #
coedge $-1 $768 $860 $595 $779 forward $579 $-1 #
coedge $-1 $581 $588 $591 $777 reversed $396 $-1 #
coedge $-1 $860 $768 $581 $767 reversed $579 $-1 #
edge $-1 $861 -13.206017845698542 $770 13.206017845698542 $766 $862 forward 7 unknown #
coedge $-1 $766 $764 $582 $769 reversed $579 $-1 #
edge $-1 $770 -3.3562155098133681 $772 3.3562155098133672 $768 $863 forward 7 unknown #
vertex $-1 $769 $864 #
straight-curve $-1 70.568099445547858 -7.5176736696125337 -13.206017845698542 1 0 0 I I #
vertex $-1 $779 $865 #
straight-curve $-1 70.568099445547858 -14.230104689239269 -13.206017845698542 -1 0 0 I I #
point $-1 63.67381817072053 -7.5176736696125337 -13.206017845698542 #
straight-curve $-1 63.673818170720544 -7.5176736696125337 0 0 0 -1 I I #
coedge $-1 $591 $590 $860 $866 forward $592 $-1 #
edge $-1 $861 -6.8942812748273354 $593 6.8942812748273283 $765 $867 forward 7 unknown #
point $-1 63.67381817072053 -7.5176736696125337 13.206017845698542 #
edge $-1 $780 -13.206017845698542 $772 13.206017845698542 $764 $868 forward 7 unknown #
vertex $-1 $866 $869 #
straight-curve $-1 70.568099445547858 -14.230104689239269 13.206017845698542 1 0 0 I I #
edge $-1 $783 47.165838525974536 $786 55.882603916152149 $600 $870 forward 7 unknown #
vertex $-1 $614 $871 #
straight-curve $-1 49.885255621065909 53.138145936530314 13.20601784569854 0 1 0 I I #
edge $-1 $786 -32.186547883575187 $611 -3.2108675914062665 $610 $872 forward 7 unknown #
vertex $-1 $785 $873 #
straight-curve $-1 49.885255621065909 -1.7206296855015637 53.259748606481082 0 -0.52991925155115449 0.84804810408105047 I I #
point $-1 49.885255621065909 23.307718263681256 13.20601784569854 #
point $-1 20.909575328896992 28.754557622534964 4.4892524555209263 #
straight-curve $-1 0 28.754557622534961 13.206017845698542 -1 0 0 I I #
vertex $-1 $617 $874 #
point $-1 31.68834112665953 22.162098018814255 6.4299907610558664 #
vertex $-1 $621 $875 #
point $-1 44.106489823303356 22.162098018814255 6.4299907610558664 #
coedge $-1 $636 $635 $628 $796 forward $625 $-1 #
edge $-1 $797 41.913949582076626 $800 46.584376343955384 $795 $876 forward 7 unknown #
vertex $-1 $640 $877 #
straight-curve $-1 -43.725778167170709 -52.697139652982386 13.20601784569854 0 -1 0 I I #
edge $-1 $800 -25.921327979524772 $637 -9.6875723957671021 $636 $878 forward 7 unknown #
vertex $-1 $799 $879 #
straight-curve $-1 -43.725778167170709 -28.754557622534961 8.5355910838197815 0 0.79863550430605224 0.6018150307709319 I I #
point $-1 -43.725778167170709 -22.556692096445666 13.206017845698542 #
point $-1 -27.492022583413039 -28.754557622534961 8.5355910838197815 #
straight-curve $-1 0 -28.754557622534961 13.206017845698542 1 0 0 I I #
vertex $-1 $643 $880 #
point $-1 -38.087562286097089 -24.640728928512804 9.523992101804243 #
vertex $-1 $647 $881 #
point $-1 -31.130238464486652 -24.640728928512804 9.523992101804243 #
edge $-1 $810 41.913949582076626 $813 46.584376343955384 $652 $882 forward 7 unknown #
vertex $-1 $666 $883 #
straight-curve $-1 -18.783150356637755 -52.697139652982386 13.20601784569854 0 -1 0 I I #
edge $-1 $813 -13.450014074258295 $663 2.7837415094993769 $662 $884 forward 7 unknown #
vertex $-1 $812 $885 #
straight-curve $-1 -18.783150356637755 -28.754557622534961 8.5355910838197815 0 0.79863550430605224 0.6018150307709319 I I #
point $-1 -18.783150356637755 -22.556692096445666 13.206017845698542 #
point $-1 -2.549394772880083 -28.754557622534961 8.5355910838197815 #
straight-curve $-1 0 -28.754557622534961 13.206017845698542 1 0 0 I I #
vertex $-1 $669 $886 #
point $-1 -13.144934475564135 -24.640728928512804 9.523992101804243 #
vertex $-1 $673 $887 #
point $-1 -6.1876106539537048 -24.640728928512804 9.523992101804243 #
edge $-1 $823 41.913949582076626 $826 46.584376343955384 $678 $888 forward 7 unknown #
vertex $-1 $692 $889 #
straight-curve $-1 6.1594774538951977 -52.697139652982386 13.20601784569854 0 -1 0 I I #
edge $-1 $826 -0.97870016899181955 $689 15.255055414765852 $688 $890 forward 7 unknown #
vertex $-1 $825 $891 #
straight-curve $-1 6.1594774538951977 -28.754557622534961 8.5355910838197815 0 0.79863550430605224 0.6018150307709319 I I #
point $-1 6.1594774538951977 -22.556692096445666 13.206017845698542 #
point $-1 22.39323303765287 -28.754557622534961 8.5355910838197815 #
straight-curve $-1 0 -28.754557622534961 13.206017845698542 1 0 0 I I #
vertex $-1 $695 $892 #
point $-1 11.79769333496882 -24.640728928512804 9.523992101804243 #
vertex $-1 $699 $893 #
point $-1 18.75501715657925 -24.640728928512804 9.523992101804243 #
edge $-1 $836 41.913949582076626 $839 46.584376343955384 $704 $894 forward 7 unknown #
vertex $-1 $718 $895 #
straight-curve $-1 31.102105264428154 -52.697139652982386 13.20601784569854 0 -1 0 I I #
edge $-1 $839 11.492613736274659 $715 27.72636932003233 $714 $896 forward 7 unknown #
vertex $-1 $838 $897 #
straight-curve $-1 31.102105264428154 -28.754557622534961 8.5355910838197815 0 0.79863550430605224 0.6018150307709319 I I #
point $-1 31.102105264428154 -22.556692096445666 13.206017845698542 #
point $-1 47.335860848185824 -28.754557622534961 8.5355910838197815 #
straight-curve $-1 0 -28.754557622534961 13.206017845698542 1 0 0 I I #
vertex $-1 $721 $898 #
point $-1 36.740321145501774 -24.640728928512804 9.523992101804243 #
vertex $-1 $725 $899 #
point $-1 43.697644967112204 -24.640728928512804 9.523992101804243 #
straight-curve $-1 -63.673818170720544 28.754557622534961 0 0 0 -1 I I #
point $-1 -63.673818170720544 -28.754557622534961 -13.206017845698542 #
straight-curve $-1 -63.673818170720544 0 -13.206017845698542 0 1 0 I I #
point $-1 -63.673818170720544 28.754557622534961 -13.206017845698542 #
edge $-1 $761 -3.3562155098133681 $750 3.3562155098133672 $747 $900 forward 7 unknown #
straight-curve $-1 -77.462380720375194 -7.5176736696125337 0 0 0 -1 I I #
straight-curve $-1 -70.568099445547873 -14.230104689239269 13.206017845698542 1 0 0 I I #
point $-1 -77.462380720375194 -14.230104689239269 13.206017845698542 #
point $-1 -77.462380720375194 -14.230104689239269 -13.206017845698542 #
straight-curve $-1 -77.462380720375194 -10.873889179425902 -13.206017845698542 0 1 0 I I #
point $-1 -77.462380720375194 -7.5176736696125337 -13.206017845698542 #
point $-1 -77.462380720375194 -7.5176736696125337 13.206017845698542 #
coedge $-1 $764 $766 $776 $866 reversed $579 $-1 #
vertex $-1 $866 $901 #
straight-curve $-1 77.462380720375194 -7.5176736696125337 0 0 0 -1 I I #
straight-curve $-1 77.462380720375194 -10.873889179425902 -13.206017845698542 0 -1 0 I I #
point $-1 77.462380720375194 -7.5176736696125337 -13.206017845698542 #
point $-1 77.462380720375194 -14.230104689239269 -13.206017845698542 #
edge $-1 $780 -3.3562155098133672 $861 3.3562155098133681 $860 $902 forward 7 unknown #
straight-curve $-1 70.568099445547858 -7.5176736696125337 13.206017845698542 -1 0 0 I I #
straight-curve $-1 77.462380720375194 -14.230104689239269 0 0 0 -1 I I #
point $-1 77.462380720375194 -14.230104689239269 13.206017845698542 #
straight-curve $-1 49.885255621065909 28.754557622534961 60.371856371673076 0 0 -1 I I #
point $-1 49.885255621065909 28.754557622534961 13.206017845698542 #
straight-curve $-1 17.698707737490725 28.754557622534961 4.4892524555209299 -1 0 0 I I #
point $-1 49.885255621065909 28.754557622534964 4.4892524555209263 #
point $-1 29.18834112665953 20.04197775861163 5.1051926321779808 #
point $-1 41.606489823303356 20.04197775861163 5.1051926321779808 #
straight-curve $-1 -43.725778167170709 -28.754557622534961 55.119967427775165 0 0 -1 I I #
point $-1 -43.725778167170709 -28.754557622534961 13.206017845698542 #
straight-curve $-1 -17.804450187645937 -28.754557622534961 8.5355910838197815 1 0 0 I I #
point $-1 -43.725778167170709 -28.754557622534961 8.5355910838197815 #
point $-1 -39.087562286097089 -24.038913897741875 8.725356597498191 #
point $-1 -32.130238464486652 -24.038913897741875 8.725356597498191 #
straight-curve $-1 -18.783150356637755 -28.754557622534961 55.119967427775165 0 0 -1 I I #
point $-1 -18.783150356637755 -28.754557622534961 13.206017845698542 #
straight-curve $-1 -5.3331362823794599 -28.754557622534961 8.5355910838197815 1 0 0 I I #
point $-1 -18.783150356637755 -28.754557622534961 8.5355910838197815 #
point $-1 -14.144934475564135 -24.038913897741875 8.725356597498191 #
point $-1 -7.1876106539537048 -24.038913897741875 8.725356597498191 #
straight-curve $-1 6.1594774538951977 -28.754557622534961 55.119967427775165 0 0 -1 I I #
point $-1 6.1594774538951977 -28.754557622534961 13.206017845698542 #
straight-curve $-1 7.1381776228870173 -28.754557622534961 8.5355910838197815 1 0 0 I I #
point $-1 6.1594774538951977 -28.754557622534961 8.5355910838197815 #
point $-1 10.79769333496882 -24.038913897741875 8.725356597498191 #
point $-1 17.75501715657925 -24.038913897741875 8.725356597498191 #
straight-curve $-1 31.102105264428154 -28.754557622534961 55.119967427775165 0 0 -1 I I #
point $-1 31.102105264428154 -28.754557622534961 13.206017845698542 #
straight-curve $-1 19.609491528153494 -28.754557622534961 8.5355910838197815 1 0 0 I I #
point $-1 31.102105264428154 -28.754557622534961 8.5355910838197815 #
point $-1 35.740321145501774 -24.038913897741875 8.725356597498191 #
point $-1 42.697644967112204 -24.038913897741875 8.725356597498191 #
straight-curve $-1 -77.462380720375194 -10.873889179425902 13.206017845698542 0 -1 0 I I #
point $-1 77.462380720375194 -7.5176736696125337 13.206017845698542 #
straight-curve $-1 77.462380720375194 -10.873889179425902 13.206017845698542 0 1 0 I I #
End-of-ACIS-data 