500 0 9 0           
7 Unknown 11 ACIS 5.0 NT 24 Thu Mar 25 18:42:57 1999 
-1 9.9999999999999995e-007 1e-010 
body $-1 $9 $-1 $10 #
body $-1 $11 $-1 $12 #
body $-1 $13 $-1 $14 #
body $-1 $15 $-1 $16 #
body $-1 $17 $-1 $18 #
body $-1 $19 $-1 $20 #
body $-1 $21 $-1 $22 #
body $-1 $23 $-1 $24 #
body $-1 $25 $-1 $26 #
lump $-1 $-1 $27 $0 #
transform $-1 1 0 0 0 1 0 0 0 1 51.924192022461625 32.476270899561605 14.778799493711755 1 rotate no_reflect no_shear #
lump $-1 $-1 $28 $1 #
transform $-1 1 0 0 0 1 0 0 0 1 51.924192022461625 32.476270899561605 14.778799493711755 1 rotate no_reflect no_shear #
lump $-1 $-1 $29 $2 #
transform $-1 1 0 0 0 1 0 0 0 1 51.924192022461625 32.476270899561605 14.778799493711755 1 rotate no_reflect no_shear #
lump $-1 $-1 $30 $3 #
transform $-1 1 0 0 0 1 0 0 0 1 51.924192022461625 32.476270899561605 14.778799493711755 1 rotate no_reflect no_shear #
lump $-1 $-1 $31 $4 #
transform $-1 1 0 0 0 1 0 0 0 1 51.924192022461625 32.476270899561605 14.778799493711755 1 rotate no_reflect no_shear #
lump $-1 $-1 $32 $5 #
transform $-1 1 0 0 0 1 0 0 0 1 51.924192022461625 32.476270899561605 14.778799493711755 1 rotate no_reflect no_shear #
lump $-1 $-1 $33 $6 #
transform $-1 1 0 0 0 1 0 0 0 1 51.924192022461625 32.476270899561605 14.778799493711755 1 rotate no_reflect no_shear #
lump $-1 $-1 $34 $7 #
transform $-1 1 0 0 0 1 0 0 0 1 51.924192022461625 32.476270899561605 14.778799493711755 1 rotate no_reflect no_shear #
lump $-1 $-1 $35 $8 #
transform $-1 1 0 0 0 1 0 0 0 1 51.924192022461625 32.476270899561605 14.778799493711755 1 rotate no_reflect no_shear #
shell $-1 $-1 $-1 $36 $-1 $9 #
shell $-1 $-1 $-1 $37 $-1 $11 #
shell $-1 $-1 $-1 $38 $-1 $13 #
shell $-1 $-1 $-1 $39 $-1 $15 #
shell $-1 $-1 $-1 $40 $-1 $17 #
shell $-1 $-1 $-1 $41 $-1 $19 #
shell $-1 $-1 $-1 $42 $-1 $21 #
shell $-1 $-1 $-1 $43 $-1 $23 #
shell $-1 $-1 $-1 $44 $-1 $25 #
face $-1 $45 $46 $27 $-1 $47 forward single #
face $-1 $48 $49 $28 $-1 $50 forward single #
face $-1 $51 $52 $29 $-1 $53 reversed single #
face $-1 $54 $55 $30 $-1 $56 forward single #
face $-1 $57 $58 $31 $-1 $59 forward single #
face $-1 $60 $61 $32 $-1 $62 reversed single #
face $-1 $63 $64 $33 $-1 $65 forward single #
face $-1 $66 $67 $34 $-1 $68 forward single #
face $-1 $69 $70 $35 $-1 $71 forward single #
face $-1 $72 $73 $27 $-1 $74 reversed single #
loop $-1 $-1 $75 $36 #
plane-surface $-1 0 0 14.778799493711755 0 0 1 1 0 0 forward_v I I I I #
face $-1 $76 $77 $28 $-1 $78 reversed single #
loop $-1 $-1 $79 $37 #
plane-surface $-1 -42.934472044897923 0 5.5546816423731702 0 0 1 1 0 0 forward_v I I I I #
face $-1 $80 $81 $29 $-1 $82 reversed single #
loop $-1 $-1 $83 $38 #
plane-surface $-1 -33.944752067334221 84.195166071297791 118.73174815008069 1 0 0 0 -0.83867057594974714 -0.54463902268945019 forward_v I I I I #
face $-1 $84 $85 $30 $-1 $86 forward single #
loop $-1 $87 $88 $39 #
cone-surface $-1 -28.633710199321115 27.840569157232789 9.7210565722472282 0 -0.83867057594974714 -0.54463902268945019 1.5 0 0 1 I I 0 1 1.5 forward I I I I #
face $-1 $89 $90 $31 $-1 $91 forward single #
loop $-1 $92 $93 $40 #
cone-surface $-1 -20.667147397301459 27.840569157232789 9.7210565722472282 0 -0.83867057594974714 -0.54463902268945019 1.5 0 0 1 I I 0 1 1.5 forward I I I I #
face $-1 $94 $95 $32 $-1 $96 reversed single #
loop $-1 $-1 $97 $41 #
plane-surface $-1 37.938071726974812 -107.17854759952641 73.452297388131754 -1 0 0 0 -0.71933980857756763 0.69465836192734942 forward_v I I I I #
face $-1 $98 $99 $33 $-1 $100 forward single #
loop $-1 $101 $102 $42 #
cone-surface $-1 18.730388903248482 -24.937389144098479 7.044489204475326 0 0.71933980857756763 -0.69465836192734942 1 0 0 1 I I 0 1 1 forward I I I I #
face $-1 $103 $104 $34 $-1 $105 forward single #
loop $-1 $106 $107 $43 #
cone-surface $-1 25.933269962145857 -24.937389144098479 7.044489204475326 0 0.71933980857756763 -0.69465836192734942 1 0 0 1 I I 0 1 1 forward I I I I #
face $-1 $108 $109 $35 $-1 $110 forward single #
loop $-1 $111 $112 $44 #
cone-surface $-1 33.136151021043233 -24.937389144098479 7.044489204475326 0 0.71933980857756763 -0.69465836192734942 1 0 0 1 I I 0 1 1 forward I I I I #
face $-1 $113 $114 $27 $-1 $115 reversed single #
loop $-1 $-1 $116 $45 #
plane-surface $-1 0 0 -14.778799493711755 0 0 1 1 0 0 forward_v I I I I #
coedge $-1 $117 $118 $119 $120 forward $46 $-1 #
face $-1 $121 $122 $28 $-1 $123 reversed single #
loop $-1 $-1 $124 $48 #
plane-surface $-1 -42.934472044897923 0 -1.1141123745988839 0 0 1 1 0 0 forward_v I I I I #
coedge $-1 $125 $126 $127 $128 forward $49 $-1 #
face $-1 $129 $130 $29 $-1 $131 reversed single #
loop $-1 $-1 $132 $51 #
plane-surface $-1 -24.650428798311289 -2.8994179871085208 62.171865755974999 0 0.83867057594974714 0.54463902268945019 1 0 0 forward_v I I I I #
coedge $-1 $133 $134 $135 $136 reversed $52 $-1 #
face $-1 $-1 $137 $30 $-1 $138 forward single #
loop $-1 $139 $140 $54 #
cone-surface $-1 -28.633710199321115 24.875000873591887 7.7951940726693358 0 -0.83867057594974714 -0.54463902268945019 0.75 0 0 1 I I -0.70710678118654791 0.70710678118654702 0.75 forward I I I I #
loop $-1 $-1 $141 $39 #
coedge $-1 $88 $88 $142 $143 reversed $55 $-1 #
face $-1 $-1 $144 $31 $-1 $145 forward single #
loop $-1 $146 $147 $57 #
cone-surface $-1 -20.667147397301459 24.875000873591887 7.7951940726693358 0 -0.83867057594974714 -0.54463902268945019 0.75 0 0 1 I I -0.70710678118654791 0.70710678118654702 0.75 forward I I I I #
loop $-1 $-1 $148 $40 #
coedge $-1 $93 $93 $149 $150 reversed $58 $-1 #
face $-1 $151 $152 $32 $-1 $153 reversed single #
loop $-1 $-1 $154 $60 #
plane-surface $-1 25.933269962145857 -32.476270899561598 1.3131490386830791 0 -0.71933980857756763 0.69465836192734942 1 0 0 forward_v I I I I #
coedge $-1 $155 $156 $157 $158 reversed $61 $-1 #
face $-1 $-1 $159 $33 $-1 $160 forward single #
loop $-1 $161 $162 $63 #
cone-surface $-1 18.730388903248482 -23.540651074972992 5.6956749617895532 0 0.71933980857756763 -0.69465836192734942 0.5 0 0 1 I I -0.70710678118654746 0.70710678118654746 0.5 forward I I I I #
loop $-1 $-1 $163 $42 #
coedge $-1 $102 $102 $164 $165 reversed $64 $-1 #
face $-1 $-1 $166 $34 $-1 $167 forward single #
loop $-1 $168 $169 $66 #
cone-surface $-1 25.933269962145857 -23.540651074972992 5.6956749617895532 0 0.71933980857756763 -0.69465836192734942 0.5 0 0 1 I I -0.70710678118654746 0.70710678118654746 0.5 forward I I I I #
loop $-1 $-1 $170 $43 #
coedge $-1 $107 $107 $171 $172 reversed $67 $-1 #
face $-1 $-1 $173 $35 $-1 $174 forward single #
loop $-1 $175 $176 $69 #
cone-surface $-1 33.136151021043233 -23.540651074972992 5.6956749617895532 0 0.71933980857756763 -0.69465836192734942 0.5 0 0 1 I I -0.70710678118654746 0.70710678118654746 0.5 forward I I I I #
loop $-1 $-1 $177 $44 #
coedge $-1 $112 $112 $178 $179 reversed $70 $-1 #
face $-1 $180 $181 $27 $-1 $182 reversed single #
loop $-1 $-1 $183 $72 #
plane-surface $-1 0 -32.476270899561605 0 0 1 0 0 0 1 forward_v I I I I #
coedge $-1 $184 $185 $186 $187 forward $73 $-1 #
coedge $-1 $188 $75 $189 $190 forward $46 $-1 #
coedge $-1 $75 $188 $191 $192 forward $46 $-1 #
coedge $-1 $193 $194 $75 $120 reversed $195 $-1 #
edge $-1 $196 -32.476270899561605 $197 32.476270899561605 $119 $198 forward 7 unknown #
face $-1 $199 $200 $28 $-1 $201 reversed single #
loop $-1 $-1 $202 $76 #
plane-surface $-1 -33.944752067334221 0 2.2202846338871431 -1 0 0 0 0 1 forward_v I I I I #
coedge $-1 $203 $204 $205 $206 forward $77 $-1 #
coedge $-1 $207 $79 $208 $209 reversed $49 $-1 #
coedge $-1 $79 $207 $210 $211 reversed $49 $-1 #
coedge $-1 $202 $212 $79 $128 reversed $122 $-1 #
edge $-1 $213 -32.476270899561605 $214 32.476270899561605 $127 $215 forward 7 unknown #
face $-1 $216 $217 $29 $-1 $218 forward single #
loop $-1 $-1 $219 $80 #
plane-surface $-1 -15.356105529288357 84.195166071297791 118.73174815008069 -1 0 0 0 0.83867057594974714 0.54463902268945019 forward_v I I I I #
coedge $-1 $220 $221 $222 $223 reversed $81 $-1 #
coedge $-1 $134 $83 $224 $225 reversed $52 $-1 #
coedge $-1 $83 $133 $220 $226 reversed $52 $-1 #
coedge $-1 $222 $227 $83 $136 forward $217 $-1 #
edge $-1 $228 9.6213121360872904 $229 14.219584917387742 $135 $230 forward 7 unknown #
loop $-1 $-1 $142 $84 #
plane-surface $-1 -24.650428798311289 -2.8994179871085208 62.171865755974999 0 0.83867057594974714 0.54463902268945019 1 0 0 forward_v I I I I #
loop $-1 $-1 $231 $54 #
coedge $-1 $140 $140 $141 $232 reversed $85 $-1 #
coedge $-1 $141 $141 $140 $232 forward $87 $-1 #
coedge $-1 $142 $142 $88 $143 forward $137 $-1 #
edge $-1 $233 -9.9318547572805383e-016 $233 6.2831853071795996 $142 $234 forward 7 unknown #
loop $-1 $-1 $149 $89 #
plane-surface $-1 -24.650428798311289 -2.8994179871085208 62.171865755974999 0 0.83867057594974714 0.54463902268945019 1 0 0 forward_v I I I I #
loop $-1 $-1 $235 $57 #
coedge $-1 $147 $147 $148 $236 reversed $90 $-1 #
coedge $-1 $148 $148 $147 $236 forward $92 $-1 #
coedge $-1 $149 $149 $93 $150 forward $144 $-1 #
edge $-1 $237 -9.9318547572805383e-016 $237 6.2831853071795996 $149 $238 forward 7 unknown #
face $-1 $239 $240 $32 $-1 $241 reversed single #
loop $-1 $-1 $242 $94 #
plane-surface $-1 13.928468197316903 -107.17854759952641 73.452297388131754 1 0 0 0 0.71933980857756763 -0.69465836192734942 forward_v I I I I #
coedge $-1 $243 $244 $245 $246 reversed $95 $-1 #
coedge $-1 $156 $97 $247 $248 reversed $61 $-1 #
coedge $-1 $97 $155 $243 $249 reversed $61 $-1 #
coedge $-1 $245 $250 $97 $158 forward $251 $-1 #
edge $-1 $252 21.1130029002016 $253 34.116630081454467 $157 $254 forward 7 unknown #
loop $-1 $-1 $164 $98 #
plane-surface $-1 25.933269962145857 -32.476270899561598 1.3131490386830791 0 -0.71933980857756763 0.69465836192734942 1 0 0 forward_v I I I I #
loop $-1 $-1 $255 $63 #
coedge $-1 $162 $162 $163 $256 reversed $99 $-1 #
coedge $-1 $163 $163 $162 $256 forward $101 $-1 #
coedge $-1 $164 $164 $102 $165 forward $159 $-1 #
edge $-1 $257 -2.2048639251319987e-015 $257 6.2831853071795987 $164 $258 forward 7 unknown #
loop $-1 $-1 $171 $103 #
plane-surface $-1 25.933269962145857 -32.476270899561598 1.3131490386830791 0 -0.71933980857756763 0.69465836192734942 1 0 0 forward_v I I I I #
loop $-1 $-1 $259 $66 #
coedge $-1 $169 $169 $170 $260 reversed $104 $-1 #
coedge $-1 $170 $170 $169 $260 forward $106 $-1 #
coedge $-1 $171 $171 $107 $172 forward $166 $-1 #
edge $-1 $261 -2.2048639251319987e-015 $261 6.2831853071795987 $171 $262 forward 7 unknown #
loop $-1 $-1 $178 $108 #
plane-surface $-1 25.933269962145857 -32.476270899561598 1.3131490386830791 0 -0.71933980857756763 0.69465836192734942 1 0 0 forward_v I I I I #
loop $-1 $-1 $263 $69 #
coedge $-1 $176 $176 $177 $264 reversed $109 $-1 #
coedge $-1 $177 $177 $176 $264 forward $111 $-1 #
coedge $-1 $178 $178 $112 $179 forward $173 $-1 #
edge $-1 $265 -2.2048639251319987e-015 $265 6.2831853071795987 $178 $266 forward 7 unknown #
face $-1 $267 $268 $27 $-1 $269 reversed single #
loop $-1 $-1 $270 $113 #
plane-surface $-1 -51.924192022461625 0 0 1 0 0 0 0 -1 forward_v I I I I #
coedge $-1 $271 $191 $272 $273 forward $114 $-1 #
coedge $-1 $274 $116 $271 $275 forward $73 $-1 #
coedge $-1 $116 $274 $276 $277 forward $73 $-1 #
coedge $-1 $194 $193 $116 $187 reversed $195 $-1 #
edge $-1 $278 -32.476270899561605 $279 32.476270899561605 $186 $280 forward 7 unknown #
coedge $-1 $118 $117 $281 $282 forward $46 $-1 #
coedge $-1 $283 $284 $117 $190 reversed $268 $-1 #
edge $-1 $197 -51.924192022461625 $285 51.924192022461625 $189 $286 forward 7 unknown #
coedge $-1 $183 $287 $118 $192 reversed $114 $-1 #
edge $-1 $288 -51.924192022461625 $196 51.924192022461625 $191 $289 forward 7 unknown #
coedge $-1 $186 $119 $287 $290 forward $195 $-1 #
coedge $-1 $119 $186 $283 $291 reversed $195 $-1 #
loop $-1 $-1 $193 $267 #
vertex $-1 $120 $292 #
vertex $-1 $120 $293 #
straight-curve $-1 51.924192022461625 0 14.778799493711755 0 1 0 I I #
face $-1 $294 $295 $28 $-1 $296 reversed single #
loop $-1 $-1 $297 $121 #
plane-surface $-1 0 -32.476270899561605 0 0 1 0 0 0 1 forward_v I I I I #
coedge $-1 $205 $127 $298 $299 reversed $122 $-1 #
coedge $-1 $300 $124 $297 $301 reversed $77 $-1 #
coedge $-1 $124 $300 $302 $303 reversed $77 $-1 #
coedge $-1 $212 $202 $124 $206 reversed $122 $-1 #
edge $-1 $304 -32.476270899561605 $305 32.476270899561605 $205 $306 forward 7 unknown #
coedge $-1 $126 $125 $307 $308 reversed $49 $-1 #
coedge $-1 $309 $310 $125 $209 forward $311 $-1 #
edge $-1 $312 -30.456956000012664 $214 -12.47751604488526 $208 $313 forward 7 unknown #
coedge $-1 $314 $298 $126 $211 forward $200 $-1 #
edge $-1 $213 12.47751604488526 $315 30.456956000012664 $210 $316 forward 7 unknown #
coedge $-1 $127 $205 $309 $317 reversed $122 $-1 #
vertex $-1 $211 $318 #
vertex $-1 $209 $319 #
straight-curve $-1 -33.944752067334221 0 5.5546816423731702 0 1 0 I I #
face $-1 $-1 $320 $29 $-1 $321 reversed single #
loop $-1 $-1 $135 $129 #
plane-surface $-1 0 0 14.778799493711755 0 0 1 1 0 0 forward_v I I I I #
coedge $-1 $322 $323 $324 $325 reversed $130 $-1 #
coedge $-1 $326 $132 $134 $226 forward $81 $-1 #
coedge $-1 $132 $326 $322 $327 forward $81 $-1 #
coedge $-1 $324 $135 $132 $223 forward $217 $-1 #
edge $-1 $229 -21.619537668178577 $328 -3.0308911301327122 $222 $329 forward 7 unknown #
coedge $-1 $330 $331 $133 $225 forward $320 $-1 #
edge $-1 $332 -51.667793959136034 $228 -44.587074581328594 $224 $333 forward 7 unknown #
edge $-1 $229 56.509752006731929 $332 64.95254179912321 $134 $334 forward 7 unknown #
coedge $-1 $135 $324 $330 $335 forward $217 $-1 #
vertex $-1 $225 $336 #
vertex $-1 $136 $337 #
straight-curve $-1 -33.944752067334221 42.097583035648896 14.778799493711759 0 -1 0 I I #
coedge $-1 $231 $231 $-1 $338 reversed $139 $-1 #
edge $-1 $339 0 $339 6.2831853071796004 $140 $340 forward 7 unknown #
vertex $-1 $143 $341 #
ellipse-curve $-1 -28.633710199321115 30.177134508911379 11.238439804808033 0 0.83867057594974714 0.54463902268945019 1.5 0 0 1 I I #
coedge $-1 $235 $235 $-1 $342 reversed $146 $-1 #
edge $-1 $343 0 $343 6.2831853071796004 $147 $344 forward 7 unknown #
vertex $-1 $150 $345 #
ellipse-curve $-1 -20.667147397301459 30.177134508911379 11.238439804808033 0 0.83867057594974714 0.54463902268945019 1.5 0 0 1 I I #
face $-1 $-1 $251 $32 $-1 $346 forward single #
loop $-1 $-1 $347 $151 #
plane-surface $-1 0 -32.476270899561605 0 0 1 0 0 0 1 forward_v I I I I #
coedge $-1 $348 $349 $350 $351 reversed $152 $-1 #
coedge $-1 $352 $154 $156 $249 forward $95 $-1 #
coedge $-1 $154 $352 $348 $353 forward $95 $-1 #
coedge $-1 $350 $157 $154 $246 forward $251 $-1 #
edge $-1 $253 -24.971436745901883 $354 -0.96183321624397422 $245 $355 forward 7 unknown #
coedge $-1 $356 $357 $155 $248 forward $240 $-1 #
edge $-1 $358 -35.412999655382805 $252 -21.947349200354122 $247 $359 forward 7 unknown #
edge $-1 $253 -18.719456777535832 $358 1.0206786807905858e-014 $156 $360 forward 7 unknown #
coedge $-1 $157 $350 $356 $361 forward $251 $-1 #
loop $-1 $-1 $350 $239 #
vertex $-1 $248 $362 #
vertex $-1 $158 $363 #
straight-curve $-1 37.938071726974812 -53.589273799763205 14.778799493711755 0 1 0 I I #
coedge $-1 $255 $255 $-1 $364 reversed $161 $-1 #
edge $-1 $365 0 $365 6.2831853071796004 $162 $366 forward 7 unknown #
vertex $-1 $165 $367 #
ellipse-curve $-1 18.730388903248482 -25.974457308935172 8.0459742661974136 0 -0.71933980857756763 0.69465836192734942 1 0 0 1 I I #
coedge $-1 $259 $259 $-1 $368 reversed $168 $-1 #
edge $-1 $369 0 $369 6.2831853071796004 $169 $370 forward 7 unknown #
vertex $-1 $172 $371 #
ellipse-curve $-1 25.933269962145857 -25.974457308935172 8.0459742661974136 0 -0.71933980857756763 0.69465836192734942 1 0 0 1 I I #
coedge $-1 $263 $263 $-1 $372 reversed $175 $-1 #
edge $-1 $373 0 $373 6.2831853071796004 $176 $374 forward 7 unknown #
vertex $-1 $179 $375 #
ellipse-curve $-1 33.136151021043233 -25.974457308935172 8.0459742661974136 0 -0.71933980857756763 0.69465836192734942 1 0 0 1 I I #
face $-1 $-1 $195 $27 $-1 $376 reversed single #
loop $-1 $-1 $283 $180 #
plane-surface $-1 0 32.476270899561605 0 0 -1 0 0 0 -1 forward_v I I I I #
coedge $-1 $377 $281 $284 $378 forward $181 $-1 #
coedge $-1 $287 $183 $184 $275 reversed $114 $-1 #
coedge $-1 $281 $377 $183 $273 reversed $181 $-1 #
edge $-1 $288 -14.778799493711755 $379 14.778799493711755 $272 $380 forward 7 unknown #
coedge $-1 $185 $184 $377 $381 forward $73 $-1 #
edge $-1 $279 -51.924192022461625 $379 51.924192022461625 $271 $382 forward 7 unknown #
coedge $-1 $284 $283 $185 $277 reversed $268 $-1 #
edge $-1 $383 -51.924192022461625 $278 51.924192022461625 $276 $384 forward 7 unknown #
vertex $-1 $187 $385 #
vertex $-1 $290 $386 #
straight-curve $-1 51.924192022461625 0 -14.778799493711755 0 -1 0 I I #
coedge $-1 $270 $272 $188 $282 reversed $181 $-1 #
edge $-1 $285 -32.476270899561605 $288 32.476270899561605 $281 $387 forward 7 unknown #
coedge $-1 $276 $189 $194 $291 forward $268 $-1 #
coedge $-1 $189 $276 $270 $378 reversed $268 $-1 #
vertex $-1 $190 $388 #
straight-curve $-1 0 32.476270899561605 14.778799493711755 -1 0 0 I I #
coedge $-1 $191 $271 $193 $290 reversed $114 $-1 #
vertex $-1 $282 $389 #
straight-curve $-1 0 -32.476270899561605 14.778799493711755 1 0 0 I I #
edge $-1 $196 -14.778799493711755 $279 14.778799493711755 $193 $390 forward 7 unknown #
edge $-1 $197 -14.778799493711755 $278 14.778799493711755 $194 $391 forward 7 unknown #
point $-1 51.924192022461625 -32.476270899561605 14.778799493711755 #
point $-1 51.924192022461625 32.476270899561605 14.778799493711755 #
face $-1 $-1 $311 $28 $-1 $392 reversed single #
loop $-1 $-1 $393 $199 #
plane-surface $-1 -51.924192022461625 0 0 1 0 0 0 0 -1 forward_v I I I I #
coedge $-1 $298 $314 $203 $301 forward $200 $-1 #
coedge $-1 $210 $297 $202 $299 forward $200 $-1 #
edge $-1 $305 -2.2242546915424555 $213 4.4445393254295986 $298 $394 forward 7 unknown #
coedge $-1 $204 $203 $393 $395 reversed $77 $-1 #
edge $-1 $396 -30.456956000012664 $305 -12.47751604488526 $297 $397 forward 7 unknown #
coedge $-1 $310 $309 $204 $303 forward $311 $-1 #
edge $-1 $304 12.47751604488526 $398 30.456956000012664 $302 $399 forward 7 unknown #
vertex $-1 $303 $400 #
vertex $-1 $301 $401 #
straight-curve $-1 -33.944752067334221 0 -1.1141123745988839 0 -1 0 I I #
coedge $-1 $402 $403 $207 $308 forward $295 $-1 #
edge $-1 $315 -32.476270899561605 $312 32.476270899561605 $307 $404 forward 7 unknown #
coedge $-1 $302 $208 $212 $317 forward $311 $-1 #
coedge $-1 $208 $302 $402 $405 reversed $311 $-1 #
loop $-1 $-1 $302 $294 #
vertex $-1 $405 $406 #
straight-curve $-1 -21.467236022448962 32.476270899561605 5.5546816423731702 1 0 0 I I #
coedge $-1 $297 $210 $403 $407 forward $200 $-1 #
vertex $-1 $407 $408 #
straight-curve $-1 -21.467236022448962 -32.476270899561605 5.5546816423731702 -1 0 0 I I #
edge $-1 $214 -4.4445393254295986 $304 2.2242546915424555 $309 $409 forward 7 unknown #
point $-1 -33.944752067334221 -32.476270899561605 5.5546816423731702 #
point $-1 -33.944752067334221 32.476270899561605 5.5546816423731702 #
loop $-1 $-1 $224 $216 #
plane-surface $-1 0 32.476270899561605 0 0 -1 0 0 0 -1 forward_v I I I I #
coedge $-1 $323 $219 $221 $327 reversed $130 $-1 #
coedge $-1 $219 $322 $410 $411 reversed $130 $-1 #
coedge $-1 $227 $222 $219 $325 forward $217 $-1 #
edge $-1 $328 -14.219584917387742 $412 -9.6213121360872904 $324 $413 forward 7 unknown #
coedge $-1 $221 $220 $331 $414 reversed $81 $-1 #
edge $-1 $415 -64.95254179912321 $328 -56.509752006731929 $322 $416 forward 7 unknown #
vertex $-1 $223 $417 #
straight-curve $-1 -12.325214399155644 27.877998118261154 14.778799493711755 1 0 0 I I #
coedge $-1 $410 $224 $227 $335 reversed $320 $-1 #
coedge $-1 $224 $410 $326 $414 forward $320 $-1 #
vertex $-1 $225 $418 #
straight-curve $-1 -33.944752067334221 32.476270899561605 59.365874075040345 0 0 1 I I #
straight-curve $-1 -33.944752067334221 -2.8994179871085208 62.171865755974999 0 0.54463902268945019 -0.83867057594974714 I I #
edge $-1 $412 15.356105529288357 $228 33.944752067334221 $330 $419 forward 7 unknown #
point $-1 -33.944752067334221 32.476270899561605 14.778799493711755 #
point $-1 -33.944752067334221 27.877998118261154 14.778799493711752 #
edge $-1 $420 1 $420 0 $231 $-1 forward 7 unknown #
vertex $-1 $232 $421 #
ellipse-curve $-1 -28.633710199321115 25.504003805554195 8.2036733396864232 0 0.83867057594974714 0.54463902268945019 1.5 0 0 1 I I #
point $-1 -27.133710199321115 30.177134508911379 11.238439804808035 #
edge $-1 $422 1 $422 0 $235 $-1 forward 7 unknown #
vertex $-1 $236 $423 #
ellipse-curve $-1 -20.667147397301459 25.504003805554195 8.2036733396864232 0 0.83867057594974714 0.54463902268945019 1.5 0 0 1 I I #
point $-1 -19.167147397301459 30.177134508911379 11.238439804808035 #
plane-surface $-1 0 0 14.778799493711755 0 0 1 1 0 0 forward_v I I I I #
coedge $-1 $357 $356 $349 $424 forward $240 $-1 #
coedge $-1 $349 $242 $244 $353 reversed $152 $-1 #
coedge $-1 $242 $348 $347 $424 reversed $152 $-1 #
coedge $-1 $250 $245 $242 $351 forward $251 $-1 #
edge $-1 $354 -34.116630081454467 $425 -21.1130029002016 $350 $426 forward 7 unknown #
coedge $-1 $244 $243 $357 $427 reversed $95 $-1 #
edge $-1 $428 -1.0206786807905858e-014 $354 18.719456777535832 $348 $429 forward 7 unknown #
vertex $-1 $246 $430 #
straight-curve $-1 12.966634981072929 -19.472643718308738 14.778799493711755 -1 0 0 I I #
coedge $-1 $347 $247 $250 $361 reversed $240 $-1 #
coedge $-1 $247 $347 $352 $427 forward $240 $-1 #
vertex $-1 $248 $431 #
straight-curve $-1 37.938071726974812 -32.476270899561605 36.726148694065877 0 0 1 I I #
straight-curve $-1 37.938071726974812 -32.476270899561598 1.3131490386830791 0 -0.69465836192734942 -0.71933980857756763 I I #
edge $-1 $425 13.928468197316903 $252 37.938071726974812 $356 $432 forward 7 unknown #
point $-1 37.938071726974812 -32.476270899561605 14.778799493711755 #
point $-1 37.938071726974812 -19.472643718308738 14.778799493711755 #
edge $-1 $433 1 $433 0 $255 $-1 forward 7 unknown #
vertex $-1 $256 $434 #
ellipse-curve $-1 18.730388903248482 -23.900320979261775 6.0430041427532277 0 -0.71933980857756763 0.69465836192734942 1 0 0 1 I I #
point $-1 19.730388903248482 -25.974457308935186 8.0459742661974243 #
edge $-1 $435 1 $435 0 $259 $-1 forward 7 unknown #
vertex $-1 $260 $436 #
ellipse-curve $-1 25.933269962145857 -23.900320979261775 6.0430041427532277 0 -0.71933980857756763 0.69465836192734942 1 0 0 1 I I #
point $-1 26.933269962145857 -25.974457308935186 8.0459742661974243 #
edge $-1 $437 1 $437 0 $263 $-1 forward 7 unknown #
vertex $-1 $264 $438 #
ellipse-curve $-1 33.136151021043233 -23.900320979261775 6.0430041427532277 0 -0.71933980857756763 0.69465836192734942 1 0 0 1 I I #
point $-1 34.136151021043233 -25.974457308935186 8.0459742661974243 #
plane-surface $-1 51.924192022461625 0 0 -1 0 0 0 0 1 forward_v I I I I #
coedge $-1 $272 $270 $274 $381 reversed $181 $-1 #
edge $-1 $285 -14.778799493711755 $383 14.778799493711755 $284 $439 forward 7 unknown #
vertex $-1 $381 $440 #
straight-curve $-1 -51.924192022461625 -32.476270899561605 0 0 0 -1 I I #
edge $-1 $379 -32.476270899561605 $383 32.476270899561605 $377 $441 forward 7 unknown #
straight-curve $-1 0 -32.476270899561605 -14.778799493711755 -1 0 0 I I #
vertex $-1 $277 $442 #
straight-curve $-1 0 32.476270899561605 -14.778799493711755 1 0 0 I I #
point $-1 51.924192022461625 32.476270899561605 -14.778799493711755 #
point $-1 51.924192022461625 -32.476270899561605 -14.778799493711755 #
straight-curve $-1 -51.924192022461625 0 14.778799493711755 0 -1 0 I I #
point $-1 -51.924192022461625 32.476270899561605 14.778799493711755 #
point $-1 -51.924192022461625 -32.476270899561605 14.778799493711755 #
straight-curve $-1 51.924192022461625 -32.476270899561605 0 0 0 -1 I I #
straight-curve $-1 51.924192022461625 32.476270899561605 0 0 0 -1 I I #
plane-surface $-1 0 32.476270899561605 0 0 -1 0 0 0 -1 forward_v I I I I #
coedge $-1 $403 $402 $300 $395 forward $295 $-1 #
straight-curve $-1 -33.944752067334221 -32.476270899561605 1.1101423169435716 0 0 1 I I #
edge $-1 $398 -32.476270899561605 $396 32.476270899561605 $393 $443 forward 7 unknown #
vertex $-1 $301 $444 #
straight-curve $-1 -21.467236022448962 -32.476270899561605 -1.1141123745988839 1 0 0 I I #
vertex $-1 $303 $445 #
straight-curve $-1 -21.467236022448962 32.476270899561605 -1.1141123745988839 -1 0 0 I I #
point $-1 -33.944752067334221 32.476270899561605 -1.1141123745988839 #
point $-1 -33.944752067334221 -32.476270899561605 -1.1141123745988839 #
coedge $-1 $393 $307 $310 $405 forward $295 $-1 #
coedge $-1 $307 $393 $314 $407 reversed $295 $-1 #
straight-curve $-1 -51.924192022461625 0 5.5546816423731702 0 1 0 I I #
edge $-1 $312 -5.5546816423731702 $398 1.1141123745988839 $310 $446 forward 7 unknown #
point $-1 -51.924192022461625 32.476270899561605 5.5546816423731702 #
edge $-1 $315 -5.5546816423731702 $396 1.1141123745988839 $403 $447 forward 7 unknown #
point $-1 -51.924192022461625 -32.476270899561605 5.5546816423731702 #
straight-curve $-1 -33.944752067334221 32.476270899561605 1.1101423169435716 0 0 -1 I I #
coedge $-1 $331 $330 $323 $411 forward $320 $-1 #
edge $-1 $412 44.587074581328594 $415 51.667793959136034 $410 $448 forward 7 unknown #
vertex $-1 $335 $449 #
straight-curve $-1 -15.356105529288357 42.097583035648896 14.778799493711759 0 1 0 I I #
edge $-1 $415 3.0308911301327122 $332 21.619537668178577 $331 $450 forward 7 unknown #
vertex $-1 $414 $451 #
straight-curve $-1 -15.356105529288357 -2.8994179871085208 62.171865755974999 0 -0.54463902268945019 0.83867057594974714 I I #
point $-1 -15.356105529288357 27.877998118261154 14.778799493711752 #
point $-1 -33.944752067334221 32.476270899561605 7.6980801159043111 #
straight-curve $-1 0 32.476270899561605 14.778799493711755 -1 0 0 I I #
vertex $-1 $338 $452 #
point $-1 -27.133710199321115 25.504003805554195 8.2036733396864232 #
vertex $-1 $342 $453 #
point $-1 -19.167147397301459 25.504003805554195 8.2036733396864232 #
edge $-1 $425 21.947349200354122 $428 35.412999655382805 $347 $454 forward 7 unknown #
vertex $-1 $361 $455 #
straight-curve $-1 13.928468197316903 -53.589273799763205 14.778799493711755 0 -1 0 I I #
edge $-1 $428 0.96183321624397422 $358 24.971436745901883 $357 $456 forward 7 unknown #
vertex $-1 $427 $457 #
straight-curve $-1 13.928468197316903 -32.476270899561598 1.3131490386830791 0 0.69465836192734942 0.71933980857756763 I I #
point $-1 13.928468197316903 -19.472643718308738 14.778799493711755 #
point $-1 37.938071726974812 -32.476270899561605 1.3131490386830718 #
straight-curve $-1 0 -32.476270899561605 14.778799493711755 1 0 0 I I #
vertex $-1 $364 $458 #
point $-1 19.730388903248482 -23.900320979261775 6.0430041427532277 #
vertex $-1 $368 $459 #
point $-1 26.933269962145857 -23.900320979261775 6.0430041427532277 #
vertex $-1 $372 $460 #
point $-1 34.136151021043233 -23.900320979261775 6.0430041427532277 #
straight-curve $-1 -51.924192022461625 32.476270899561605 0 0 0 -1 I I #
point $-1 -51.924192022461625 -32.476270899561605 -14.778799493711755 #
straight-curve $-1 -51.924192022461625 0 -14.778799493711755 0 1 0 I I #
point $-1 -51.924192022461625 32.476270899561605 -14.778799493711755 #
straight-curve $-1 -51.924192022461625 0 -1.1141123745988839 0 -1 0 I I #
point $-1 -51.924192022461625 -32.476270899561605 -1.1141123745988839 #
point $-1 -51.924192022461625 32.476270899561605 -1.1141123745988839 #
straight-curve $-1 -51.924192022461625 32.476270899561605 0 0 0 -1 I I #
straight-curve $-1 -51.924192022461625 -32.476270899561605 0 0 0 -1 I I #
straight-curve $-1 -15.356105529288357 32.476270899561605 59.365874075040345 0 0 -1 I I #
point $-1 -15.356105529288357 32.476270899561605 14.778799493711755 #
straight-curve $-1 -12.325214399155644 32.476270899561605 7.6980801159043146 -1 0 0 I I #
point $-1 -15.356105529288357 32.476270899561605 7.6980801159043111 #
point $-1 -28.633710199321115 24.245997941629579 7.3867148056522485 #
point $-1 -20.667147397301459 24.245997941629579 7.3867148056522485 #
straight-curve $-1 13.928468197316903 -32.476270899561605 36.726148694065877 0 0 -1 I I #
point $-1 13.928468197316903 -32.476270899561605 14.778799493711755 #
straight-curve $-1 12.966634981072929 -32.476270899561605 1.3131490386830713 1 0 0 I I #
point $-1 13.928468197316903 -32.476270899561605 1.3131490386830718 #
point $-1 18.730388903248482 -23.180981170684209 5.3483457808258787 #
point $-1 25.933269962145857 -23.180981170684209 5.3483457808258787 #
point $-1 33.136151021043233 -23.180981170684209 5.3483457808258787 #
End-of-ACIS-data 