500 0 19 0           
7 Unknown 11 ACIS 5.0 NT 24 Thu Mar 25 15:34:12 1999 
-1 9.9999999999999995e-007 1e-010 
body $-1 $19 $-1 $20 #
body $-1 $21 $-1 $22 #
body $-1 $23 $-1 $24 #
body $-1 $25 $-1 $26 #
body $-1 $27 $-1 $28 #
body $-1 $29 $-1 $30 #
body $-1 $31 $-1 $32 #
body $-1 $33 $-1 $34 #
body $-1 $35 $-1 $36 #
body $-1 $37 $-1 $38 #
body $-1 $39 $-1 $40 #
body $-1 $41 $-1 $42 #
body $-1 $43 $-1 $44 #
body $-1 $45 $-1 $46 #
body $-1 $47 $-1 $48 #
body $-1 $49 $-1 $50 #
body $-1 $51 $-1 $52 #
body $-1 $53 $-1 $54 #
body $-1 $55 $-1 $56 #
lump $-1 $-1 $57 $0 #
transform $-1 1 0 0 0 1 0 0 0 1 53.025299844355601 22.404876213113429 6.7174970360573214 1 rotate no_reflect no_shear #
lump $-1 $-1 $58 $1 #
transform $-1 1 0 0 0 0.5877852410284794 0.80901700255871778 0 -0.80901700255871778 0.5877852410284794 9.3167686634085669 -85.796738279715612 72.379014164832043 1 rotate no_reflect no_shear #
lump $-1 $-1 $59 $2 #
transform $-1 1 0 0 0 -0.5877852410284794 -0.80901700255871778 0 0.80901700255871778 -0.5877852410284794 9.3167686634085669 3.4992304420879528 10.092157953142609 1 rotate no_reflect no_shear #
lump $-1 $-1 $60 $3 #
transform $-1 1 0 0 0 0.81915203911291934 -0.57357644374324357 0 0.57357644374324357 0.81915203911291934 17.939997685839547 68.931878180427333 121.33268453785216 1 rotate no_reflect no_shear #
lump $-1 $-1 $61 $4 #
transform $-1 1 0 0 0 -0.81915203911291934 0.57357644374324357 0 -0.57357644374324357 -0.81915203911291934 14.614293342563322 39.526023442550276 8.3194879500680656 1 rotate no_reflect no_shear #
lump $-1 $-1 $62 $5 #
transform $-1 1 0 0 0 -0.81915203911291934 0.57357644374324357 0 -0.57357644374324357 -0.81915203911291934 17.939997685839547 39.526023442550276 8.3194879500680656 1 rotate no_reflect no_shear #
lump $-1 $-1 $63 $6 #
transform $-1 1 0 0 0 -0.81915203911291934 0.57357644374324357 0 -0.57357644374324357 -0.81915203911291934 21.265702029115772 39.526023442550276 8.3194879500680656 1 rotate no_reflect no_shear #
lump $-1 $-1 $64 $7 #
transform $-1 1 0 0 0 0.81915203911291934 -0.57357644374324357 0 0.57357644374324357 0.81915203911291934 41.330199124850253 68.931878180427333 121.33268453785216 1 rotate no_reflect no_shear #
lump $-1 $-1 $65 $8 #
transform $-1 1 0 0 0 -0.81915203911291934 0.57357644374324357 0 -0.57357644374324357 -0.81915203911291934 38.004494781574024 39.526023442550276 8.3194879500680656 1 rotate no_reflect no_shear #
lump $-1 $-1 $66 $9 #
transform $-1 1 0 0 0 -0.81915203911291934 0.57357644374324357 0 -0.57357644374324357 -0.81915203911291934 41.330199124850253 39.526023442550276 8.3194879500680656 1 rotate no_reflect no_shear #
lump $-1 $-1 $67 $10 #
transform $-1 1 0 0 0 -0.81915203911291934 0.57357644374324357 0 -0.57357644374324357 -0.81915203911291934 44.655903468126482 39.526023442550276 8.3194879500680656 1 rotate no_reflect no_shear #
lump $-1 $-1 $68 $11 #
transform $-1 1 0 0 0 0.81915203911291934 -0.57357644374324357 0 0.57357644374324357 0.81915203911291934 64.720400563860963 68.931878180427333 121.33268453785216 1 rotate no_reflect no_shear #
lump $-1 $-1 $69 $12 #
transform $-1 1 0 0 0 -0.81915203911291934 0.57357644374324357 0 -0.57357644374324357 -0.81915203911291934 61.394696220584734 39.526023442550276 8.3194879500680656 1 rotate no_reflect no_shear #
lump $-1 $-1 $70 $13 #
transform $-1 1 0 0 0 -0.81915203911291934 0.57357644374324357 0 -0.57357644374324357 -0.81915203911291934 64.720400563860963 39.526023442550276 8.3194879500680656 1 rotate no_reflect no_shear #
lump $-1 $-1 $71 $14 #
transform $-1 1 0 0 0 -0.81915203911291934 0.57357644374324357 0 -0.57357644374324357 -0.81915203911291934 68.046104907137192 39.526023442550276 8.3194879500680656 1 rotate no_reflect no_shear #
lump $-1 $-1 $72 $15 #
transform $-1 1 0 0 0 0.81915203911291934 -0.57357644374324357 0 0.57357644374324357 0.81915203911291934 88.110602002871673 68.931878180427333 121.33268453785216 1 rotate no_reflect no_shear #
lump $-1 $-1 $73 $16 #
transform $-1 1 0 0 0 -0.81915203911291934 0.57357644374324357 0 -0.57357644374324357 -0.81915203911291934 84.784897659595444 39.526023442550276 8.3194879500680656 1 rotate no_reflect no_shear #
lump $-1 $-1 $74 $17 #
transform $-1 1 0 0 0 -0.81915203911291934 0.57357644374324357 0 -0.57357644374324357 -0.81915203911291934 88.110602002871673 39.526023442550276 8.3194879500680656 1 rotate no_reflect no_shear #
lump $-1 $-1 $75 $18 #
transform $-1 1 0 0 0 -0.81915203911291934 0.57357644374324357 0 -0.57357644374324357 -0.81915203911291934 91.436306346147902 39.526023442550276 8.3194879500680656 1 rotate no_reflect no_shear #
shell $-1 $-1 $-1 $76 $-1 $19 #
shell $-1 $-1 $-1 $77 $-1 $21 #
shell $-1 $-1 $-1 $78 $-1 $23 #
shell $-1 $-1 $-1 $79 $-1 $25 #
shell $-1 $-1 $-1 $80 $-1 $27 #
shell $-1 $-1 $-1 $81 $-1 $29 #
shell $-1 $-1 $-1 $82 $-1 $31 #
shell $-1 $-1 $-1 $83 $-1 $33 #
shell $-1 $-1 $-1 $84 $-1 $35 #
shell $-1 $-1 $-1 $85 $-1 $37 #
shell $-1 $-1 $-1 $86 $-1 $39 #
shell $-1 $-1 $-1 $87 $-1 $41 #
shell $-1 $-1 $-1 $88 $-1 $43 #
shell $-1 $-1 $-1 $89 $-1 $45 #
shell $-1 $-1 $-1 $90 $-1 $47 #
shell $-1 $-1 $-1 $91 $-1 $49 #
shell $-1 $-1 $-1 $92 $-1 $51 #
shell $-1 $-1 $-1 $93 $-1 $53 #
shell $-1 $-1 $-1 $94 $-1 $55 #
face $-1 $95 $96 $57 $-1 $97 forward single #
face $-1 $98 $99 $58 $-1 $100 forward single #
face $-1 $101 $102 $59 $-1 $103 forward single #
face $-1 $104 $105 $60 $-1 $106 forward single #
face $-1 $107 $108 $61 $-1 $109 forward single #
face $-1 $110 $111 $62 $-1 $112 forward single #
face $-1 $113 $114 $63 $-1 $115 forward single #
face $-1 $116 $117 $64 $-1 $118 forward single #
face $-1 $119 $120 $65 $-1 $121 forward single #
face $-1 $122 $123 $66 $-1 $124 forward single #
face $-1 $125 $126 $67 $-1 $127 forward single #
face $-1 $128 $129 $68 $-1 $130 forward single #
face $-1 $131 $132 $69 $-1 $133 forward single #
face $-1 $134 $135 $70 $-1 $136 forward single #
face $-1 $137 $138 $71 $-1 $139 forward single #
face $-1 $140 $141 $72 $-1 $142 forward single #
face $-1 $143 $144 $73 $-1 $145 forward single #
face $-1 $146 $147 $74 $-1 $148 forward single #
face $-1 $149 $150 $75 $-1 $151 forward single #
face $-1 $152 $153 $57 $-1 $154 reversed single #
loop $-1 $-1 $155 $76 #
plane-surface $-1 0 0 6.7174970360573214 0 0 1 1 0 0 forward_v I I I I #
face $-1 $156 $157 $58 $-1 $158 reversed single #
loop $-1 $-1 $159 $77 #
plane-surface $-1 0 0 106.0505996887112 0 0 1 1 0 0 forward_v I I I I #
face $-1 $160 $161 $59 $-1 $162 forward single #
loop $-1 $163 $164 $78 #
cone-surface $-1 0 0 -1.6513260292367313 0 0 1 1 0 0 1 I I 0 1 1 forward I I I I #
face $-1 $165 $166 $60 $-1 $167 reversed single #
loop $-1 $-1 $168 $79 #
plane-surface $-1 0 0 106.0505996887112 0 0 1 1 0 0 forward_v I I I I #
face $-1 $169 $170 $61 $-1 $171 forward single #
loop $-1 $172 $173 $80 #
cone-surface $-1 0 0 -1.9454481643116548 0 0 1 1 0 0 1 I I 0 1 1 forward I I I I #
face $-1 $174 $175 $62 $-1 $176 forward single #
loop $-1 $177 $178 $81 #
cone-surface $-1 0 0 -1.9454481643116548 0 0 1 1 0 0 1 I I 0 1 1 forward I I I I #
face $-1 $179 $180 $63 $-1 $181 forward single #
loop $-1 $182 $183 $82 #
cone-surface $-1 0 0 -1.9454481643116548 0 0 1 1 0 0 1 I I 0 1 1 forward I I I I #
face $-1 $184 $185 $64 $-1 $186 reversed single #
loop $-1 $-1 $187 $83 #
plane-surface $-1 0 0 106.0505996887112 0 0 1 1 0 0 forward_v I I I I #
face $-1 $188 $189 $65 $-1 $190 forward single #
loop $-1 $191 $192 $84 #
cone-surface $-1 0 0 -1.9454481643116548 0 0 1 1 0 0 1 I I 0 1 1 forward I I I I #
face $-1 $193 $194 $66 $-1 $195 forward single #
loop $-1 $196 $197 $85 #
cone-surface $-1 0 0 -1.9454481643116548 0 0 1 1 0 0 1 I I 0 1 1 forward I I I I #
face $-1 $198 $199 $67 $-1 $200 forward single #
loop $-1 $201 $202 $86 #
cone-surface $-1 0 0 -1.9454481643116548 0 0 1 1 0 0 1 I I 0 1 1 forward I I I I #
face $-1 $203 $204 $68 $-1 $205 reversed single #
loop $-1 $-1 $206 $87 #
plane-surface $-1 0 0 106.0505996887112 0 0 1 1 0 0 forward_v I I I I #
face $-1 $207 $208 $69 $-1 $209 forward single #
loop $-1 $210 $211 $88 #
cone-surface $-1 0 0 -1.9454481643116548 0 0 1 1 0 0 1 I I 0 1 1 forward I I I I #
face $-1 $212 $213 $70 $-1 $214 forward single #
loop $-1 $215 $216 $89 #
cone-surface $-1 0 0 -1.9454481643116548 0 0 1 1 0 0 1 I I 0 1 1 forward I I I I #
face $-1 $217 $218 $71 $-1 $219 forward single #
loop $-1 $220 $221 $90 #
cone-surface $-1 0 0 -1.9454481643116548 0 0 1 1 0 0 1 I I 0 1 1 forward I I I I #
face $-1 $222 $223 $72 $-1 $224 reversed single #
loop $-1 $-1 $225 $91 #
plane-surface $-1 0 0 106.0505996887112 0 0 1 1 0 0 forward_v I I I I #
face $-1 $226 $227 $73 $-1 $228 forward single #
loop $-1 $229 $230 $92 #
cone-surface $-1 0 0 -1.9454481643116548 0 0 1 1 0 0 1 I I 0 1 1 forward I I I I #
face $-1 $231 $232 $74 $-1 $233 forward single #
loop $-1 $234 $235 $93 #
cone-surface $-1 0 0 -1.9454481643116548 0 0 1 1 0 0 1 I I 0 1 1 forward I I I I #
face $-1 $236 $237 $75 $-1 $238 forward single #
loop $-1 $239 $240 $94 #
cone-surface $-1 0 0 -1.9454481643116548 0 0 1 1 0 0 1 I I 0 1 1 forward I I I I #
face $-1 $241 $242 $57 $-1 $243 reversed single #
loop $-1 $-1 $244 $95 #
plane-surface $-1 0 0 -6.7174970360573214 0 0 1 1 0 0 forward_v I I I I #
coedge $-1 $245 $246 $247 $248 forward $96 $-1 #
face $-1 $249 $250 $58 $-1 $251 reversed single #
loop $-1 $-1 $252 $98 #
plane-surface $-1 0 0 -106.0505996887112 0 0 1 1 0 0 forward_v I I I I #
coedge $-1 $253 $254 $255 $256 forward $99 $-1 #
face $-1 $-1 $257 $59 $-1 $258 forward single #
loop $-1 $-1 $259 $101 #
plane-surface $-1 0 0 -2.8026520584734635 0 0 -1 -1 0 0 forward_v I I I I #
loop $-1 $-1 $260 $78 #
coedge $-1 $164 $164 $259 $261 reversed $102 $-1 #
face $-1 $262 $263 $60 $-1 $264 reversed single #
loop $-1 $-1 $265 $104 #
plane-surface $-1 0 0 -106.0505996887112 0 0 1 1 0 0 forward_v I I I I #
coedge $-1 $266 $267 $268 $269 forward $105 $-1 #
face $-1 $-1 $270 $61 $-1 $271 forward single #
loop $-1 $-1 $272 $107 #
plane-surface $-1 0 0 -3.3908963286233096 0 0 -1 -1 0 0 forward_v I I I I #
loop $-1 $-1 $273 $80 #
coedge $-1 $173 $173 $272 $274 reversed $108 $-1 #
face $-1 $-1 $275 $62 $-1 $276 forward single #
loop $-1 $-1 $277 $110 #
plane-surface $-1 0 0 -3.3908963286233096 0 0 -1 -1 0 0 forward_v I I I I #
loop $-1 $-1 $278 $81 #
coedge $-1 $178 $178 $277 $279 reversed $111 $-1 #
face $-1 $-1 $280 $63 $-1 $281 forward single #
loop $-1 $-1 $282 $113 #
plane-surface $-1 0 0 -3.3908963286233096 0 0 -1 -1 0 0 forward_v I I I I #
loop $-1 $-1 $283 $82 #
coedge $-1 $183 $183 $282 $284 reversed $114 $-1 #
face $-1 $285 $286 $64 $-1 $287 reversed single #
loop $-1 $-1 $288 $116 #
plane-surface $-1 0 0 -106.0505996887112 0 0 1 1 0 0 forward_v I I I I #
coedge $-1 $289 $290 $291 $292 forward $117 $-1 #
face $-1 $-1 $293 $65 $-1 $294 forward single #
loop $-1 $-1 $295 $119 #
plane-surface $-1 0 0 -3.3908963286233096 0 0 -1 -1 0 0 forward_v I I I I #
loop $-1 $-1 $296 $84 #
coedge $-1 $192 $192 $295 $297 reversed $120 $-1 #
face $-1 $-1 $298 $66 $-1 $299 forward single #
loop $-1 $-1 $300 $122 #
plane-surface $-1 0 0 -3.3908963286233096 0 0 -1 -1 0 0 forward_v I I I I #
loop $-1 $-1 $301 $85 #
coedge $-1 $197 $197 $300 $302 reversed $123 $-1 #
face $-1 $-1 $303 $67 $-1 $304 forward single #
loop $-1 $-1 $305 $125 #
plane-surface $-1 0 0 -3.3908963286233096 0 0 -1 -1 0 0 forward_v I I I I #
loop $-1 $-1 $306 $86 #
coedge $-1 $202 $202 $305 $307 reversed $126 $-1 #
face $-1 $308 $309 $68 $-1 $310 reversed single #
loop $-1 $-1 $311 $128 #
plane-surface $-1 0 0 -106.0505996887112 0 0 1 1 0 0 forward_v I I I I #
coedge $-1 $312 $313 $314 $315 forward $129 $-1 #
face $-1 $-1 $316 $69 $-1 $317 forward single #
loop $-1 $-1 $318 $131 #
plane-surface $-1 0 0 -3.3908963286233096 0 0 -1 -1 0 0 forward_v I I I I #
loop $-1 $-1 $319 $88 #
coedge $-1 $211 $211 $318 $320 reversed $132 $-1 #
face $-1 $-1 $321 $70 $-1 $322 forward single #
loop $-1 $-1 $323 $134 #
plane-surface $-1 0 0 -3.3908963286233096 0 0 -1 -1 0 0 forward_v I I I I #
loop $-1 $-1 $324 $89 #
coedge $-1 $216 $216 $323 $325 reversed $135 $-1 #
face $-1 $-1 $326 $71 $-1 $327 forward single #
loop $-1 $-1 $328 $137 #
plane-surface $-1 0 0 -3.3908963286233096 0 0 -1 -1 0 0 forward_v I I I I #
loop $-1 $-1 $329 $90 #
coedge $-1 $221 $221 $328 $330 reversed $138 $-1 #
face $-1 $331 $332 $72 $-1 $333 reversed single #
loop $-1 $-1 $334 $140 #
plane-surface $-1 0 0 -106.0505996887112 0 0 1 1 0 0 forward_v I I I I #
coedge $-1 $335 $336 $337 $338 forward $141 $-1 #
face $-1 $-1 $339 $73 $-1 $340 forward single #
loop $-1 $-1 $341 $143 #
plane-surface $-1 0 0 -3.3908963286233096 0 0 -1 -1 0 0 forward_v I I I I #
loop $-1 $-1 $342 $92 #
coedge $-1 $230 $230 $341 $343 reversed $144 $-1 #
face $-1 $-1 $344 $74 $-1 $345 forward single #
loop $-1 $-1 $346 $146 #
plane-surface $-1 0 0 -3.3908963286233096 0 0 -1 -1 0 0 forward_v I I I I #
loop $-1 $-1 $347 $93 #
coedge $-1 $235 $235 $346 $348 reversed $147 $-1 #
face $-1 $-1 $349 $75 $-1 $350 forward single #
loop $-1 $-1 $351 $149 #
plane-surface $-1 0 0 -3.3908963286233096 0 0 -1 -1 0 0 forward_v I I I I #
loop $-1 $-1 $352 $94 #
coedge $-1 $240 $240 $351 $353 reversed $150 $-1 #
face $-1 $354 $355 $57 $-1 $356 reversed single #
loop $-1 $-1 $357 $152 #
plane-surface $-1 0 -22.404876213113429 0 0 1 0 0 0 1 forward_v I I I I #
coedge $-1 $358 $359 $360 $361 forward $153 $-1 #
coedge $-1 $362 $155 $363 $364 forward $96 $-1 #
coedge $-1 $155 $362 $365 $366 forward $96 $-1 #
coedge $-1 $367 $368 $155 $248 reversed $369 $-1 #
edge $-1 $370 -22.404876213113429 $371 22.404876213113429 $247 $372 forward 7 unknown #
face $-1 $373 $374 $58 $-1 $375 reversed single #
loop $-1 $-1 $376 $156 #
plane-surface $-1 0 -212.1011993774224 0 0 1 0 0 0 1 forward_v I I I I #
coedge $-1 $377 $378 $379 $380 forward $157 $-1 #
coedge $-1 $381 $159 $382 $383 forward $99 $-1 #
coedge $-1 $159 $381 $384 $385 forward $99 $-1 #
coedge $-1 $386 $387 $159 $256 reversed $388 $-1 #
edge $-1 $389 -212.1011993774224 $390 212.1011993774224 $255 $391 forward 7 unknown #
loop $-1 $392 $393 $160 #
cone-surface $-1 0 0 0 0 0 1 0.5 0 0 1 I I -0.70710678118654746 0.70710678118654746 0.5 forward I I I I #
coedge $-1 $259 $259 $164 $261 forward $161 $-1 #
coedge $-1 $260 $260 $393 $394 forward $163 $-1 #
edge $-1 $395 0 $395 6.2831853071796004 $259 $396 forward 7 unknown #
face $-1 $397 $398 $60 $-1 $399 reversed single #
loop $-1 $-1 $400 $165 #
plane-surface $-1 0 -212.1011993774224 0 0 1 0 0 0 1 forward_v I I I I #
coedge $-1 $401 $402 $403 $404 forward $166 $-1 #
coedge $-1 $405 $168 $406 $407 forward $105 $-1 #
coedge $-1 $168 $405 $408 $409 forward $105 $-1 #
coedge $-1 $410 $411 $168 $269 reversed $412 $-1 #
edge $-1 $413 -212.1011993774224 $414 212.1011993774224 $268 $415 forward 7 unknown #
loop $-1 $416 $417 $169 #
cone-surface $-1 0 0 0 0 0 1 0.5 0 0 1 I I -0.70710678118654746 0.70710678118654746 0.5 forward I I I I #
coedge $-1 $272 $272 $173 $274 forward $170 $-1 #
coedge $-1 $273 $273 $417 $418 forward $172 $-1 #
edge $-1 $419 0 $419 6.2831853071796004 $272 $420 forward 7 unknown #
loop $-1 $421 $422 $174 #
cone-surface $-1 0 0 0 0 0 1 0.5 0 0 1 I I -0.70710678118654746 0.70710678118654746 0.5 forward I I I I #
coedge $-1 $277 $277 $178 $279 forward $175 $-1 #
coedge $-1 $278 $278 $422 $423 forward $177 $-1 #
edge $-1 $424 0 $424 6.2831853071796004 $277 $425 forward 7 unknown #
loop $-1 $426 $427 $179 #
cone-surface $-1 0 0 0 0 0 1 0.5 0 0 1 I I -0.70710678118654746 0.70710678118654746 0.5 forward I I I I #
coedge $-1 $282 $282 $183 $284 forward $180 $-1 #
coedge $-1 $283 $283 $427 $428 forward $182 $-1 #
edge $-1 $429 0 $429 6.2831853071796004 $282 $430 forward 7 unknown #
face $-1 $431 $432 $64 $-1 $433 reversed single #
loop $-1 $-1 $434 $184 #
plane-surface $-1 0 -212.1011993774224 0 0 1 0 0 0 1 forward_v I I I I #
coedge $-1 $435 $436 $437 $438 forward $185 $-1 #
coedge $-1 $439 $187 $440 $441 forward $117 $-1 #
coedge $-1 $187 $439 $442 $443 forward $117 $-1 #
coedge $-1 $444 $445 $187 $292 reversed $446 $-1 #
edge $-1 $447 -212.1011993774224 $448 212.1011993774224 $291 $449 forward 7 unknown #
loop $-1 $450 $451 $188 #
cone-surface $-1 0 0 0 0 0 1 0.5 0 0 1 I I -0.70710678118654746 0.70710678118654746 0.5 forward I I I I #
coedge $-1 $295 $295 $192 $297 forward $189 $-1 #
coedge $-1 $296 $296 $451 $452 forward $191 $-1 #
edge $-1 $453 0 $453 6.2831853071796004 $295 $454 forward 7 unknown #
loop $-1 $455 $456 $193 #
cone-surface $-1 0 0 0 0 0 1 0.5 0 0 1 I I -0.70710678118654746 0.70710678118654746 0.5 forward I I I I #
coedge $-1 $300 $300 $197 $302 forward $194 $-1 #
coedge $-1 $301 $301 $456 $457 forward $196 $-1 #
edge $-1 $458 0 $458 6.2831853071796004 $300 $459 forward 7 unknown #
loop $-1 $460 $461 $198 #
cone-surface $-1 0 0 0 0 0 1 0.5 0 0 1 I I -0.70710678118654746 0.70710678118654746 0.5 forward I I I I #
coedge $-1 $305 $305 $202 $307 forward $199 $-1 #
coedge $-1 $306 $306 $461 $462 forward $201 $-1 #
edge $-1 $463 0 $463 6.2831853071796004 $305 $464 forward 7 unknown #
face $-1 $465 $466 $68 $-1 $467 reversed single #
loop $-1 $-1 $468 $203 #
plane-surface $-1 0 -212.1011993774224 0 0 1 0 0 0 1 forward_v I I I I #
coedge $-1 $469 $470 $471 $472 forward $204 $-1 #
coedge $-1 $473 $206 $474 $475 forward $129 $-1 #
coedge $-1 $206 $473 $476 $477 forward $129 $-1 #
coedge $-1 $478 $479 $206 $315 reversed $480 $-1 #
edge $-1 $481 -212.1011993774224 $482 212.1011993774224 $314 $483 forward 7 unknown #
loop $-1 $484 $485 $207 #
cone-surface $-1 0 0 0 0 0 1 0.5 0 0 1 I I -0.70710678118654746 0.70710678118654746 0.5 forward I I I I #
coedge $-1 $318 $318 $211 $320 forward $208 $-1 #
coedge $-1 $319 $319 $485 $486 forward $210 $-1 #
edge $-1 $487 0 $487 6.2831853071796004 $318 $488 forward 7 unknown #
loop $-1 $489 $490 $212 #
cone-surface $-1 0 0 0 0 0 1 0.5 0 0 1 I I -0.70710678118654746 0.70710678118654746 0.5 forward I I I I #
coedge $-1 $323 $323 $216 $325 forward $213 $-1 #
coedge $-1 $324 $324 $490 $491 forward $215 $-1 #
edge $-1 $492 0 $492 6.2831853071796004 $323 $493 forward 7 unknown #
loop $-1 $494 $495 $217 #
cone-surface $-1 0 0 0 0 0 1 0.5 0 0 1 I I -0.70710678118654746 0.70710678118654746 0.5 forward I I I I #
coedge $-1 $328 $328 $221 $330 forward $218 $-1 #
coedge $-1 $329 $329 $495 $496 forward $220 $-1 #
edge $-1 $497 0 $497 6.2831853071796004 $328 $498 forward 7 unknown #
face $-1 $499 $500 $72 $-1 $501 reversed single #
loop $-1 $-1 $502 $222 #
plane-surface $-1 0 -212.1011993774224 0 0 1 0 0 0 1 forward_v I I I I #
coedge $-1 $503 $504 $505 $506 forward $223 $-1 #
coedge $-1 $507 $225 $508 $509 forward $141 $-1 #
coedge $-1 $225 $507 $510 $511 forward $141 $-1 #
coedge $-1 $512 $513 $225 $338 reversed $514 $-1 #
edge $-1 $515 -212.1011993774224 $516 212.1011993774224 $337 $517 forward 7 unknown #
loop $-1 $518 $519 $226 #
cone-surface $-1 0 0 0 0 0 1 0.5 0 0 1 I I -0.70710678118654746 0.70710678118654746 0.5 forward I I I I #
coedge $-1 $341 $341 $230 $343 forward $227 $-1 #
coedge $-1 $342 $342 $519 $520 forward $229 $-1 #
edge $-1 $521 0 $521 6.2831853071796004 $341 $522 forward 7 unknown #
loop $-1 $523 $524 $231 #
cone-surface $-1 0 0 0 0 0 1 0.5 0 0 1 I I -0.70710678118654746 0.70710678118654746 0.5 forward I I I I #
coedge $-1 $346 $346 $235 $348 forward $232 $-1 #
coedge $-1 $347 $347 $524 $525 forward $234 $-1 #
edge $-1 $526 0 $526 6.2831853071796004 $346 $527 forward 7 unknown #
loop $-1 $528 $529 $236 #
cone-surface $-1 0 0 0 0 0 1 0.5 0 0 1 I I -0.70710678118654746 0.70710678118654746 0.5 forward I I I I #
coedge $-1 $351 $351 $240 $353 forward $237 $-1 #
coedge $-1 $352 $352 $529 $530 forward $239 $-1 #
edge $-1 $531 0 $531 6.2831853071796004 $351 $532 forward 7 unknown #
face $-1 $533 $534 $57 $-1 $535 reversed single #
loop $-1 $-1 $536 $241 #
plane-surface $-1 -53.025299844355601 0 0 1 0 0 0 0 -1 forward_v I I I I #
coedge $-1 $537 $365 $538 $539 forward $242 $-1 #
coedge $-1 $540 $244 $537 $541 forward $153 $-1 #
coedge $-1 $244 $540 $542 $543 forward $153 $-1 #
coedge $-1 $368 $367 $244 $361 reversed $369 $-1 #
edge $-1 $544 -22.404876213113429 $545 22.404876213113429 $360 $546 forward 7 unknown #
coedge $-1 $246 $245 $547 $548 forward $96 $-1 #
coedge $-1 $549 $550 $245 $364 reversed $534 $-1 #
edge $-1 $371 -53.025299844355601 $551 53.025299844355601 $363 $552 forward 7 unknown #
coedge $-1 $357 $553 $246 $366 reversed $242 $-1 #
edge $-1 $554 -53.025299844355601 $370 53.025299844355601 $365 $555 forward 7 unknown #
coedge $-1 $360 $247 $553 $556 forward $369 $-1 #
coedge $-1 $247 $360 $549 $557 reversed $369 $-1 #
loop $-1 $-1 $367 $533 #
vertex $-1 $248 $558 #
vertex $-1 $248 $559 #
straight-curve $-1 53.025299844355601 0 6.7174970360573214 0 1 0 I I #
face $-1 $560 $561 $58 $-1 $562 reversed single #
loop $-1 $-1 $563 $249 #
plane-surface $-1 -9.3167686634085669 0 0 1 0 0 0 0 -1 forward_v I I I I #
coedge $-1 $564 $384 $565 $566 forward $250 $-1 #
coedge $-1 $567 $252 $564 $568 forward $157 $-1 #
coedge $-1 $252 $567 $569 $570 forward $157 $-1 #
coedge $-1 $387 $386 $252 $380 reversed $388 $-1 #
edge $-1 $571 -212.1011993774224 $572 212.1011993774224 $379 $573 forward 7 unknown #
coedge $-1 $254 $253 $574 $575 forward $99 $-1 #
coedge $-1 $576 $577 $253 $383 reversed $561 $-1 #
edge $-1 $390 -9.3167686634085669 $578 9.3167686634085669 $382 $579 forward 7 unknown #
coedge $-1 $376 $580 $254 $385 reversed $250 $-1 #
edge $-1 $581 -9.3167686634085669 $389 9.3167686634085669 $384 $582 forward 7 unknown #
coedge $-1 $379 $255 $580 $583 forward $388 $-1 #
coedge $-1 $255 $379 $576 $584 reversed $388 $-1 #
loop $-1 $-1 $386 $560 #
vertex $-1 $256 $585 #
vertex $-1 $256 $586 #
straight-curve $-1 9.3167686634085669 0 106.0505996887112 0 1 0 I I #
loop $-1 $-1 $587 $160 #
coedge $-1 $393 $393 $260 $394 reversed $257 $-1 #
edge $-1 $588 0 $588 6.2831853071796004 $393 $589 forward 7 unknown #
vertex $-1 $261 $590 #
ellipse-curve $-1 0 0 -2.8026520584734635 0 0 -1 1 0 0 1 I I #
face $-1 $591 $592 $60 $-1 $593 reversed single #
loop $-1 $-1 $594 $262 #
plane-surface $-1 -5.5428405721270435 0 0 1 0 0 0 0 -1 forward_v I I I I #
coedge $-1 $595 $408 $596 $597 forward $263 $-1 #
coedge $-1 $598 $265 $595 $599 forward $166 $-1 #
coedge $-1 $265 $598 $600 $601 forward $166 $-1 #
coedge $-1 $411 $410 $265 $404 reversed $412 $-1 #
edge $-1 $602 -212.1011993774224 $603 212.1011993774224 $403 $604 forward 7 unknown #
coedge $-1 $267 $266 $605 $606 forward $105 $-1 #
coedge $-1 $607 $608 $266 $407 reversed $592 $-1 #
edge $-1 $414 -5.5428405721270435 $609 5.5428405721270435 $406 $610 forward 7 unknown #
coedge $-1 $400 $611 $267 $409 reversed $263 $-1 #
edge $-1 $612 -5.5428405721270435 $413 5.5428405721270435 $408 $613 forward 7 unknown #
coedge $-1 $403 $268 $611 $614 forward $412 $-1 #
coedge $-1 $268 $403 $607 $615 reversed $412 $-1 #
loop $-1 $-1 $410 $591 #
vertex $-1 $269 $616 #
vertex $-1 $269 $617 #
straight-curve $-1 5.5428405721270435 0 106.0505996887112 0 1 0 I I #
loop $-1 $-1 $618 $169 #
coedge $-1 $417 $417 $273 $418 reversed $270 $-1 #
edge $-1 $619 0 $619 6.2831853071796004 $417 $620 forward 7 unknown #
vertex $-1 $274 $621 #
ellipse-curve $-1 0 0 -3.3908963286233096 0 0 -1 1 0 0 1 I I #
loop $-1 $-1 $622 $174 #
coedge $-1 $422 $422 $278 $423 reversed $275 $-1 #
edge $-1 $623 0 $623 6.2831853071796004 $422 $624 forward 7 unknown #
vertex $-1 $279 $625 #
ellipse-curve $-1 0 0 -3.3908963286233096 0 0 -1 1 0 0 1 I I #
loop $-1 $-1 $626 $179 #
coedge $-1 $427 $427 $283 $428 reversed $280 $-1 #
edge $-1 $627 0 $627 6.2831853071796004 $427 $628 forward 7 unknown #
vertex $-1 $284 $629 #
ellipse-curve $-1 0 0 -3.3908963286233096 0 0 -1 1 0 0 1 I I #
face $-1 $630 $631 $64 $-1 $632 reversed single #
loop $-1 $-1 $633 $285 #
plane-surface $-1 -5.5428405721270435 0 0 1 0 0 0 0 -1 forward_v I I I I #
coedge $-1 $634 $442 $635 $636 forward $286 $-1 #
coedge $-1 $637 $288 $634 $638 forward $185 $-1 #
coedge $-1 $288 $637 $639 $640 forward $185 $-1 #
coedge $-1 $445 $444 $288 $438 reversed $446 $-1 #
edge $-1 $641 -212.1011993774224 $642 212.1011993774224 $437 $643 forward 7 unknown #
coedge $-1 $290 $289 $644 $645 forward $117 $-1 #
coedge $-1 $646 $647 $289 $441 reversed $631 $-1 #
edge $-1 $448 -5.5428405721270435 $648 5.5428405721270435 $440 $649 forward 7 unknown #
coedge $-1 $434 $650 $290 $443 reversed $286 $-1 #
edge $-1 $651 -5.5428405721270435 $447 5.5428405721270435 $442 $652 forward 7 unknown #
coedge $-1 $437 $291 $650 $653 forward $446 $-1 #
coedge $-1 $291 $437 $646 $654 reversed $446 $-1 #
loop $-1 $-1 $444 $630 #
vertex $-1 $292 $655 #
vertex $-1 $292 $656 #
straight-curve $-1 5.5428405721270435 0 106.0505996887112 0 1 0 I I #
loop $-1 $-1 $657 $188 #
coedge $-1 $451 $451 $296 $452 reversed $293 $-1 #
edge $-1 $658 0 $658 6.2831853071796004 $451 $659 forward 7 unknown #
vertex $-1 $297 $660 #
ellipse-curve $-1 0 0 -3.3908963286233096 0 0 -1 1 0 0 1 I I #
loop $-1 $-1 $661 $193 #
coedge $-1 $456 $456 $301 $457 reversed $298 $-1 #
edge $-1 $662 0 $662 6.2831853071796004 $456 $663 forward 7 unknown #
vertex $-1 $302 $664 #
ellipse-curve $-1 0 0 -3.3908963286233096 0 0 -1 1 0 0 1 I I #
loop $-1 $-1 $665 $198 #
coedge $-1 $461 $461 $306 $462 reversed $303 $-1 #
edge $-1 $666 0 $666 6.2831853071796004 $461 $667 forward 7 unknown #
vertex $-1 $307 $668 #
ellipse-curve $-1 0 0 -3.3908963286233096 0 0 -1 1 0 0 1 I I #
face $-1 $669 $670 $68 $-1 $671 reversed single #
loop $-1 $-1 $672 $308 #
plane-surface $-1 -5.5428405721270435 0 0 1 0 0 0 0 -1 forward_v I I I I #
coedge $-1 $673 $476 $674 $675 forward $309 $-1 #
coedge $-1 $676 $311 $673 $677 forward $204 $-1 #
coedge $-1 $311 $676 $678 $679 forward $204 $-1 #
coedge $-1 $479 $478 $311 $472 reversed $480 $-1 #
edge $-1 $680 -212.1011993774224 $681 212.1011993774224 $471 $682 forward 7 unknown #
coedge $-1 $313 $312 $683 $684 forward $129 $-1 #
coedge $-1 $685 $686 $312 $475 reversed $670 $-1 #
edge $-1 $482 -5.5428405721270435 $687 5.5428405721270435 $474 $688 forward 7 unknown #
coedge $-1 $468 $689 $313 $477 reversed $309 $-1 #
edge $-1 $690 -5.5428405721270435 $481 5.5428405721270435 $476 $691 forward 7 unknown #
coedge $-1 $471 $314 $689 $692 forward $480 $-1 #
coedge $-1 $314 $471 $685 $693 reversed $480 $-1 #
loop $-1 $-1 $478 $669 #
vertex $-1 $315 $694 #
vertex $-1 $315 $695 #
straight-curve $-1 5.5428405721270435 0 106.0505996887112 0 1 0 I I #
loop $-1 $-1 $696 $207 #
coedge $-1 $485 $485 $319 $486 reversed $316 $-1 #
edge $-1 $697 0 $697 6.2831853071796004 $485 $698 forward 7 unknown #
vertex $-1 $320 $699 #
ellipse-curve $-1 0 0 -3.3908963286233096 0 0 -1 1 0 0 1 I I #
loop $-1 $-1 $700 $212 #
coedge $-1 $490 $490 $324 $491 reversed $321 $-1 #
edge $-1 $701 0 $701 6.2831853071796004 $490 $702 forward 7 unknown #
vertex $-1 $325 $703 #
ellipse-curve $-1 0 0 -3.3908963286233096 0 0 -1 1 0 0 1 I I #
loop $-1 $-1 $704 $217 #
coedge $-1 $495 $495 $329 $496 reversed $326 $-1 #
edge $-1 $705 0 $705 6.2831853071796004 $495 $706 forward 7 unknown #
vertex $-1 $330 $707 #
ellipse-curve $-1 0 0 -3.3908963286233096 0 0 -1 1 0 0 1 I I #
face $-1 $708 $709 $72 $-1 $710 reversed single #
loop $-1 $-1 $711 $331 #
plane-surface $-1 -5.5428405721270435 0 0 1 0 0 0 0 -1 forward_v I I I I #
coedge $-1 $712 $510 $713 $714 forward $332 $-1 #
coedge $-1 $715 $334 $712 $716 forward $223 $-1 #
coedge $-1 $334 $715 $717 $718 forward $223 $-1 #
coedge $-1 $513 $512 $334 $506 reversed $514 $-1 #
edge $-1 $719 -212.1011993774224 $720 212.1011993774224 $505 $721 forward 7 unknown #
coedge $-1 $336 $335 $722 $723 forward $141 $-1 #
coedge $-1 $724 $725 $335 $509 reversed $709 $-1 #
edge $-1 $516 -5.5428405721270435 $726 5.5428405721270435 $508 $727 forward 7 unknown #
coedge $-1 $502 $728 $336 $511 reversed $332 $-1 #
edge $-1 $729 -5.5428405721270435 $515 5.5428405721270435 $510 $730 forward 7 unknown #
coedge $-1 $505 $337 $728 $731 forward $514 $-1 #
coedge $-1 $337 $505 $724 $732 reversed $514 $-1 #
loop $-1 $-1 $512 $708 #
vertex $-1 $338 $733 #
vertex $-1 $338 $734 #
straight-curve $-1 5.5428405721270435 0 106.0505996887112 0 1 0 I I #
loop $-1 $-1 $735 $226 #
coedge $-1 $519 $519 $342 $520 reversed $339 $-1 #
edge $-1 $736 0 $736 6.2831853071796004 $519 $737 forward 7 unknown #
vertex $-1 $343 $738 #
ellipse-curve $-1 0 0 -3.3908963286233096 0 0 -1 1 0 0 1 I I #
loop $-1 $-1 $739 $231 #
coedge $-1 $524 $524 $347 $525 reversed $344 $-1 #
edge $-1 $740 0 $740 6.2831853071796004 $524 $741 forward 7 unknown #
vertex $-1 $348 $742 #
ellipse-curve $-1 0 0 -3.3908963286233096 0 0 -1 1 0 0 1 I I #
loop $-1 $-1 $743 $236 #
coedge $-1 $529 $529 $352 $530 reversed $349 $-1 #
edge $-1 $744 0 $744 6.2831853071796004 $529 $745 forward 7 unknown #
vertex $-1 $353 $746 #
ellipse-curve $-1 0 0 -3.3908963286233096 0 0 -1 1 0 0 1 I I #
face $-1 $-1 $369 $57 $-1 $747 reversed single #
loop $-1 $-1 $549 $354 #
plane-surface $-1 0 22.404876213113429 0 0 -1 0 0 0 -1 forward_v I I I I #
coedge $-1 $748 $547 $550 $749 forward $355 $-1 #
coedge $-1 $553 $357 $358 $541 reversed $242 $-1 #
coedge $-1 $547 $748 $357 $539 reversed $355 $-1 #
edge $-1 $554 -6.7174970360573214 $750 6.7174970360573214 $538 $751 forward 7 unknown #
coedge $-1 $359 $358 $748 $752 forward $153 $-1 #
edge $-1 $545 -53.025299844355601 $750 53.025299844355601 $537 $753 forward 7 unknown #
coedge $-1 $550 $549 $359 $543 reversed $534 $-1 #
edge $-1 $754 -53.025299844355601 $544 53.025299844355601 $542 $755 forward 7 unknown #
vertex $-1 $361 $756 #
vertex $-1 $556 $757 #
straight-curve $-1 53.025299844355601 0 -6.7174970360573214 0 -1 0 I I #
coedge $-1 $536 $538 $362 $548 reversed $355 $-1 #
edge $-1 $551 -22.404876213113429 $554 22.404876213113429 $547 $758 forward 7 unknown #
coedge $-1 $542 $363 $368 $557 forward $534 $-1 #
coedge $-1 $363 $542 $536 $749 reversed $534 $-1 #
vertex $-1 $364 $759 #
straight-curve $-1 0 22.404876213113429 6.7174970360573214 -1 0 0 I I #
coedge $-1 $365 $537 $367 $556 reversed $242 $-1 #
vertex $-1 $548 $760 #
straight-curve $-1 0 -22.404876213113429 6.7174970360573214 1 0 0 I I #
edge $-1 $370 -6.7174970360573214 $545 6.7174970360573214 $367 $761 forward 7 unknown #
edge $-1 $371 -6.7174970360573214 $544 6.7174970360573214 $368 $762 forward 7 unknown #
point $-1 53.025299844355601 -22.404876213113429 6.7174970360573214 #
point $-1 53.025299844355601 22.404876213113429 6.7174970360573214 #
face $-1 $-1 $388 $58 $-1 $763 reversed single #
loop $-1 $-1 $576 $373 #
plane-surface $-1 0 212.1011993774224 0 0 -1 0 0 0 -1 forward_v I I I I #
coedge $-1 $764 $574 $577 $765 forward $374 $-1 #
coedge $-1 $580 $376 $377 $568 reversed $250 $-1 #
coedge $-1 $574 $764 $376 $566 reversed $374 $-1 #
edge $-1 $581 -106.0505996887112 $766 106.0505996887112 $565 $767 forward 7 unknown #
coedge $-1 $378 $377 $764 $768 forward $157 $-1 #
edge $-1 $572 -9.3167686634085669 $766 9.3167686634085669 $564 $769 forward 7 unknown #
coedge $-1 $577 $576 $378 $570 reversed $561 $-1 #
edge $-1 $770 -9.3167686634085669 $571 9.3167686634085669 $569 $771 forward 7 unknown #
vertex $-1 $380 $772 #
vertex $-1 $583 $773 #
straight-curve $-1 9.3167686634085669 0 -106.0505996887112 0 -1 0 I I #
coedge $-1 $563 $565 $381 $575 reversed $374 $-1 #
edge $-1 $578 -212.1011993774224 $581 212.1011993774224 $574 $774 forward 7 unknown #
coedge $-1 $569 $382 $387 $584 forward $561 $-1 #
coedge $-1 $382 $569 $563 $765 reversed $561 $-1 #
vertex $-1 $383 $775 #
straight-curve $-1 0 212.1011993774224 106.0505996887112 -1 0 0 I I #
coedge $-1 $384 $564 $386 $583 reversed $250 $-1 #
vertex $-1 $575 $776 #
straight-curve $-1 0 -212.1011993774224 106.0505996887112 1 0 0 I I #
edge $-1 $389 -106.0505996887112 $572 106.0505996887112 $386 $777 forward 7 unknown #
edge $-1 $390 -106.0505996887112 $571 106.0505996887112 $387 $778 forward 7 unknown #
point $-1 9.3167686634085669 -212.1011993774224 106.0505996887112 #
point $-1 9.3167686634085669 212.1011993774224 106.0505996887112 #
coedge $-1 $587 $587 $-1 $779 reversed $392 $-1 #
vertex $-1 $394 $780 #
ellipse-curve $-1 0 0 -0.5 0 0 -1 1 0 0 1 I I #
point $-1 1 0 -2.8026520584734635 #
face $-1 $-1 $412 $60 $-1 $781 reversed single #
loop $-1 $-1 $607 $397 #
plane-surface $-1 0 212.1011993774224 0 0 -1 0 0 0 -1 forward_v I I I I #
coedge $-1 $782 $605 $608 $783 forward $398 $-1 #
coedge $-1 $611 $400 $401 $599 reversed $263 $-1 #
coedge $-1 $605 $782 $400 $597 reversed $398 $-1 #
edge $-1 $612 -106.0505996887112 $784 106.0505996887112 $596 $785 forward 7 unknown #
coedge $-1 $402 $401 $782 $786 forward $166 $-1 #
edge $-1 $603 -5.5428405721270435 $784 5.5428405721270435 $595 $787 forward 7 unknown #
coedge $-1 $608 $607 $402 $601 reversed $592 $-1 #
edge $-1 $788 -5.5428405721270435 $602 5.5428405721270435 $600 $789 forward 7 unknown #
vertex $-1 $404 $790 #
vertex $-1 $614 $791 #
straight-curve $-1 5.5428405721270435 0 -106.0505996887112 0 -1 0 I I #
coedge $-1 $594 $596 $405 $606 reversed $398 $-1 #
edge $-1 $609 -212.1011993774224 $612 212.1011993774224 $605 $792 forward 7 unknown #
coedge $-1 $600 $406 $411 $615 forward $592 $-1 #
coedge $-1 $406 $600 $594 $783 reversed $592 $-1 #
vertex $-1 $407 $793 #
straight-curve $-1 0 212.1011993774224 106.0505996887112 -1 0 0 I I #
coedge $-1 $408 $595 $410 $614 reversed $263 $-1 #
vertex $-1 $606 $794 #
straight-curve $-1 0 -212.1011993774224 106.0505996887112 1 0 0 I I #
edge $-1 $413 -106.0505996887112 $603 106.0505996887112 $410 $795 forward 7 unknown #
edge $-1 $414 -106.0505996887112 $602 106.0505996887112 $411 $796 forward 7 unknown #
point $-1 5.5428405721270435 -212.1011993774224 106.0505996887112 #
point $-1 5.5428405721270435 212.1011993774224 106.0505996887112 #
coedge $-1 $618 $618 $-1 $797 reversed $416 $-1 #
vertex $-1 $418 $798 #
ellipse-curve $-1 0 0 -0.5 0 0 -1 1 0 0 1 I I #
point $-1 1 0 -3.3908963286233096 #
coedge $-1 $622 $622 $-1 $799 reversed $421 $-1 #
vertex $-1 $423 $800 #
ellipse-curve $-1 0 0 -0.5 0 0 -1 1 0 0 1 I I #
point $-1 1 0 -3.3908963286233096 #
coedge $-1 $626 $626 $-1 $801 reversed $426 $-1 #
vertex $-1 $428 $802 #
ellipse-curve $-1 0 0 -0.5 0 0 -1 1 0 0 1 I I #
point $-1 1 0 -3.3908963286233096 #
face $-1 $-1 $446 $64 $-1 $803 reversed single #
loop $-1 $-1 $646 $431 #
plane-surface $-1 0 212.1011993774224 0 0 -1 0 0 0 -1 forward_v I I I I #
coedge $-1 $804 $644 $647 $805 forward $432 $-1 #
coedge $-1 $650 $434 $435 $638 reversed $286 $-1 #
coedge $-1 $644 $804 $434 $636 reversed $432 $-1 #
edge $-1 $651 -106.0505996887112 $806 106.0505996887112 $635 $807 forward 7 unknown #
coedge $-1 $436 $435 $804 $808 forward $185 $-1 #
edge $-1 $642 -5.5428405721270435 $806 5.5428405721270435 $634 $809 forward 7 unknown #
coedge $-1 $647 $646 $436 $640 reversed $631 $-1 #
edge $-1 $810 -5.5428405721270435 $641 5.5428405721270435 $639 $811 forward 7 unknown #
vertex $-1 $438 $812 #
vertex $-1 $653 $813 #
straight-curve $-1 5.5428405721270435 0 -106.0505996887112 0 -1 0 I I #
coedge $-1 $633 $635 $439 $645 reversed $432 $-1 #
edge $-1 $648 -212.1011993774224 $651 212.1011993774224 $644 $814 forward 7 unknown #
coedge $-1 $639 $440 $445 $654 forward $631 $-1 #
coedge $-1 $440 $639 $633 $805 reversed $631 $-1 #
vertex $-1 $441 $815 #
straight-curve $-1 0 212.1011993774224 106.0505996887112 -1 0 0 I I #
coedge $-1 $442 $634 $444 $653 reversed $286 $-1 #
vertex $-1 $645 $816 #
straight-curve $-1 0 -212.1011993774224 106.0505996887112 1 0 0 I I #
edge $-1 $447 -106.0505996887112 $642 106.0505996887112 $444 $817 forward 7 unknown #
edge $-1 $448 -106.0505996887112 $641 106.0505996887112 $445 $818 forward 7 unknown #
point $-1 5.5428405721270435 -212.1011993774224 106.0505996887112 #
point $-1 5.5428405721270435 212.1011993774224 106.0505996887112 #
coedge $-1 $657 $657 $-1 $819 reversed $450 $-1 #
vertex $-1 $452 $820 #
ellipse-curve $-1 0 0 -0.5 0 0 -1 1 0 0 1 I I #
point $-1 1 0 -3.3908963286233096 #
coedge $-1 $661 $661 $-1 $821 reversed $455 $-1 #
vertex $-1 $457 $822 #
ellipse-curve $-1 0 0 -0.5 0 0 -1 1 0 0 1 I I #
point $-1 1 0 -3.3908963286233096 #
coedge $-1 $665 $665 $-1 $823 reversed $460 $-1 #
vertex $-1 $462 $824 #
ellipse-curve $-1 0 0 -0.5 0 0 -1 1 0 0 1 I I #
point $-1 1 0 -3.3908963286233096 #
face $-1 $-1 $480 $68 $-1 $825 reversed single #
loop $-1 $-1 $685 $465 #
plane-surface $-1 0 212.1011993774224 0 0 -1 0 0 0 -1 forward_v I I I I #
coedge $-1 $826 $683 $686 $827 forward $466 $-1 #
coedge $-1 $689 $468 $469 $677 reversed $309 $-1 #
coedge $-1 $683 $826 $468 $675 reversed $466 $-1 #
edge $-1 $690 -106.0505996887112 $828 106.0505996887112 $674 $829 forward 7 unknown #
coedge $-1 $470 $469 $826 $830 forward $204 $-1 #
edge $-1 $681 -5.5428405721270435 $828 5.5428405721270435 $673 $831 forward 7 unknown #
coedge $-1 $686 $685 $470 $679 reversed $670 $-1 #
edge $-1 $832 -5.5428405721270435 $680 5.5428405721270435 $678 $833 forward 7 unknown #
vertex $-1 $472 $834 #
vertex $-1 $692 $835 #
straight-curve $-1 5.5428405721270435 0 -106.0505996887112 0 -1 0 I I #
coedge $-1 $672 $674 $473 $684 reversed $466 $-1 #
edge $-1 $687 -212.1011993774224 $690 212.1011993774224 $683 $836 forward 7 unknown #
coedge $-1 $678 $474 $479 $693 forward $670 $-1 #
coedge $-1 $474 $678 $672 $827 reversed $670 $-1 #
vertex $-1 $475 $837 #
straight-curve $-1 0 212.1011993774224 106.0505996887112 -1 0 0 I I #
coedge $-1 $476 $673 $478 $692 reversed $309 $-1 #
vertex $-1 $684 $838 #
straight-curve $-1 0 -212.1011993774224 106.0505996887112 1 0 0 I I #
edge $-1 $481 -106.0505996887112 $681 106.0505996887112 $478 $839 forward 7 unknown #
edge $-1 $482 -106.0505996887112 $680 106.0505996887112 $479 $840 forward 7 unknown #
point $-1 5.5428405721270435 -212.1011993774224 106.0505996887112 #
point $-1 5.5428405721270435 212.1011993774224 106.0505996887112 #
coedge $-1 $696 $696 $-1 $841 reversed $484 $-1 #
vertex $-1 $486 $842 #
ellipse-curve $-1 0 0 -0.5 0 0 -1 1 0 0 1 I I #
point $-1 1 0 -3.3908963286233096 #
coedge $-1 $700 $700 $-1 $843 reversed $489 $-1 #
vertex $-1 $491 $844 #
ellipse-curve $-1 0 0 -0.5 0 0 -1 1 0 0 1 I I #
point $-1 1 0 -3.3908963286233096 #
coedge $-1 $704 $704 $-1 $845 reversed $494 $-1 #
vertex $-1 $496 $846 #
ellipse-curve $-1 0 0 -0.5 0 0 -1 1 0 0 1 I I #
point $-1 1 0 -3.3908963286233096 #
face $-1 $-1 $514 $72 $-1 $847 reversed single #
loop $-1 $-1 $724 $499 #
plane-surface $-1 0 212.1011993774224 0 0 -1 0 0 0 -1 forward_v I I I I #
coedge $-1 $848 $722 $725 $849 forward $500 $-1 #
coedge $-1 $728 $502 $503 $716 reversed $332 $-1 #
coedge $-1 $722 $848 $502 $714 reversed $500 $-1 #
edge $-1 $729 -106.0505996887112 $850 106.0505996887112 $713 $851 forward 7 unknown #
coedge $-1 $504 $503 $848 $852 forward $223 $-1 #
edge $-1 $720 -5.5428405721270435 $850 5.5428405721270435 $712 $853 forward 7 unknown #
coedge $-1 $725 $724 $504 $718 reversed $709 $-1 #
edge $-1 $854 -5.5428405721270435 $719 5.5428405721270435 $717 $855 forward 7 unknown #
vertex $-1 $506 $856 #
vertex $-1 $731 $857 #
straight-curve $-1 5.5428405721270435 0 -106.0505996887112 0 -1 0 I I #
coedge $-1 $711 $713 $507 $723 reversed $500 $-1 #
edge $-1 $726 -212.1011993774224 $729 212.1011993774224 $722 $858 forward 7 unknown #
coedge $-1 $717 $508 $513 $732 forward $709 $-1 #
coedge $-1 $508 $717 $711 $849 reversed $709 $-1 #
vertex $-1 $509 $859 #
straight-curve $-1 0 212.1011993774224 106.0505996887112 -1 0 0 I I #
coedge $-1 $510 $712 $512 $731 reversed $332 $-1 #
vertex $-1 $723 $860 #
straight-curve $-1 0 -212.1011993774224 106.0505996887112 1 0 0 I I #
edge $-1 $515 -106.0505996887112 $720 106.0505996887112 $512 $861 forward 7 unknown #
edge $-1 $516 -106.0505996887112 $719 106.0505996887112 $513 $862 forward 7 unknown #
point $-1 5.5428405721270435 -212.1011993774224 106.0505996887112 #
point $-1 5.5428405721270435 212.1011993774224 106.0505996887112 #
coedge $-1 $735 $735 $-1 $863 reversed $518 $-1 #
vertex $-1 $520 $864 #
ellipse-curve $-1 0 0 -0.5 0 0 -1 1 0 0 1 I I #
point $-1 1 0 -3.3908963286233096 #
coedge $-1 $739 $739 $-1 $865 reversed $523 $-1 #
vertex $-1 $525 $866 #
ellipse-curve $-1 0 0 -0.5 0 0 -1 1 0 0 1 I I #
point $-1 1 0 -3.3908963286233096 #
coedge $-1 $743 $743 $-1 $867 reversed $528 $-1 #
vertex $-1 $530 $868 #
ellipse-curve $-1 0 0 -0.5 0 0 -1 1 0 0 1 I I #
point $-1 1 0 -3.3908963286233096 #
plane-surface $-1 53.025299844355601 0 0 -1 0 0 0 0 1 forward_v I I I I #
coedge $-1 $538 $536 $540 $752 reversed $355 $-1 #
edge $-1 $551 -6.7174970360573214 $754 6.7174970360573214 $550 $869 forward 7 unknown #
vertex $-1 $752 $870 #
straight-curve $-1 -53.025299844355601 -22.404876213113429 0 0 0 -1 I I #
edge $-1 $750 -22.404876213113429 $754 22.404876213113429 $748 $871 forward 7 unknown #
straight-curve $-1 0 -22.404876213113429 -6.7174970360573214 -1 0 0 I I #
vertex $-1 $543 $872 #
straight-curve $-1 0 22.404876213113429 -6.7174970360573214 1 0 0 I I #
point $-1 53.025299844355601 22.404876213113429 -6.7174970360573214 #
point $-1 53.025299844355601 -22.404876213113429 -6.7174970360573214 #
straight-curve $-1 -53.025299844355601 0 6.7174970360573214 0 -1 0 I I #
point $-1 -53.025299844355601 22.404876213113429 6.7174970360573214 #
point $-1 -53.025299844355601 -22.404876213113429 6.7174970360573214 #
straight-curve $-1 53.025299844355601 -22.404876213113429 0 0 0 -1 I I #
straight-curve $-1 53.025299844355601 22.404876213113429 0 0 0 -1 I I #
plane-surface $-1 9.3167686634085669 0 0 -1 0 0 0 0 1 forward_v I I I I #
coedge $-1 $565 $563 $567 $768 reversed $374 $-1 #
edge $-1 $578 -106.0505996887112 $770 106.0505996887112 $577 $873 forward 7 unknown #
vertex $-1 $768 $874 #
straight-curve $-1 -9.3167686634085669 -212.1011993774224 0 0 0 -1 I I #
edge $-1 $766 -212.1011993774224 $770 212.1011993774224 $764 $875 forward 7 unknown #
straight-curve $-1 0 -212.1011993774224 -106.0505996887112 -1 0 0 I I #
vertex $-1 $570 $876 #
straight-curve $-1 0 212.1011993774224 -106.0505996887112 1 0 0 I I #
point $-1 9.3167686634085669 212.1011993774224 -106.0505996887112 #
point $-1 9.3167686634085669 -212.1011993774224 -106.0505996887112 #
straight-curve $-1 -9.3167686634085669 0 106.0505996887112 0 -1 0 I I #
point $-1 -9.3167686634085669 212.1011993774224 106.0505996887112 #
point $-1 -9.3167686634085669 -212.1011993774224 106.0505996887112 #
straight-curve $-1 9.3167686634085669 -212.1011993774224 0 0 0 -1 I I #
straight-curve $-1 9.3167686634085669 212.1011993774224 0 0 0 -1 I I #
edge $-1 $877 1 $877 0 $587 $-1 forward 7 unknown #
point $-1 1 0 -0.5 #
plane-surface $-1 5.5428405721270435 0 0 -1 0 0 0 0 1 forward_v I I I I #
coedge $-1 $596 $594 $598 $786 reversed $398 $-1 #
edge $-1 $609 -106.0505996887112 $788 106.0505996887112 $608 $878 forward 7 unknown #
vertex $-1 $786 $879 #
straight-curve $-1 -5.5428405721270435 -212.1011993774224 0 0 0 -1 I I #
edge $-1 $784 -212.1011993774224 $788 212.1011993774224 $782 $880 forward 7 unknown #
straight-curve $-1 0 -212.1011993774224 -106.0505996887112 -1 0 0 I I #
vertex $-1 $601 $881 #
straight-curve $-1 0 212.1011993774224 -106.0505996887112 1 0 0 I I #
point $-1 5.5428405721270435 212.1011993774224 -106.0505996887112 #
point $-1 5.5428405721270435 -212.1011993774224 -106.0505996887112 #
straight-curve $-1 -5.5428405721270435 0 106.0505996887112 0 -1 0 I I #
point $-1 -5.5428405721270435 212.1011993774224 106.0505996887112 #
point $-1 -5.5428405721270435 -212.1011993774224 106.0505996887112 #
straight-curve $-1 5.5428405721270435 -212.1011993774224 0 0 0 -1 I I #
straight-curve $-1 5.5428405721270435 212.1011993774224 0 0 0 -1 I I #
edge $-1 $882 1 $882 0 $618 $-1 forward 7 unknown #
point $-1 1 0 -0.5 #
edge $-1 $883 1 $883 0 $622 $-1 forward 7 unknown #
point $-1 1 0 -0.5 #
edge $-1 $884 1 $884 0 $626 $-1 forward 7 unknown #
point $-1 1 0 -0.5 #
plane-surface $-1 5.5428405721270435 0 0 -1 0 0 0 0 1 forward_v I I I I #
coedge $-1 $635 $633 $637 $808 reversed $432 $-1 #
edge $-1 $648 -106.0505996887112 $810 106.0505996887112 $647 $885 forward 7 unknown #
vertex $-1 $808 $886 #
straight-curve $-1 -5.5428405721270435 -212.1011993774224 0 0 0 -1 I I #
edge $-1 $806 -212.1011993774224 $810 212.1011993774224 $804 $887 forward 7 unknown #
straight-curve $-1 0 -212.1011993774224 -106.0505996887112 -1 0 0 I I #
vertex $-1 $640 $888 #
straight-curve $-1 0 212.1011993774224 -106.0505996887112 1 0 0 I I #
point $-1 5.5428405721270435 212.1011993774224 -106.0505996887112 #
point $-1 5.5428405721270435 -212.1011993774224 -106.0505996887112 #
straight-curve $-1 -5.5428405721270435 0 106.0505996887112 0 -1 0 I I #
point $-1 -5.5428405721270435 212.1011993774224 106.0505996887112 #
point $-1 -5.5428405721270435 -212.1011993774224 106.0505996887112 #
straight-curve $-1 5.5428405721270435 -212.1011993774224 0 0 0 -1 I I #
straight-curve $-1 5.5428405721270435 212.1011993774224 0 0 0 -1 I I #
edge $-1 $889 1 $889 0 $657 $-1 forward 7 unknown #
point $-1 1 0 -0.5 #
edge $-1 $890 1 $890 0 $661 $-1 forward 7 unknown #
point $-1 1 0 -0.5 #
edge $-1 $891 1 $891 0 $665 $-1 forward 7 unknown #
point $-1 1 0 -0.5 #
plane-surface $-1 5.5428405721270435 0 0 -1 0 0 0 0 1 forward_v I I I I #
coedge $-1 $674 $672 $676 $830 reversed $466 $-1 #
edge $-1 $687 -106.0505996887112 $832 106.0505996887112 $686 $892 forward 7 unknown #
vertex $-1 $830 $893 #
straight-curve $-1 -5.5428405721270435 -212.1011993774224 0 0 0 -1 I I #
edge $-1 $828 -212.1011993774224 $832 212.1011993774224 $826 $894 forward 7 unknown #
straight-curve $-1 0 -212.1011993774224 -106.0505996887112 -1 0 0 I I #
vertex $-1 $679 $895 #
straight-curve $-1 0 212.1011993774224 -106.0505996887112 1 0 0 I I #
point $-1 5.5428405721270435 212.1011993774224 -106.0505996887112 #
point $-1 5.5428405721270435 -212.1011993774224 -106.0505996887112 #
straight-curve $-1 -5.5428405721270435 0 106.0505996887112 0 -1 0 I I #
point $-1 -5.5428405721270435 212.1011993774224 106.0505996887112 #
point $-1 -5.5428405721270435 -212.1011993774224 106.0505996887112 #
straight-curve $-1 5.5428405721270435 -212.1011993774224 0 0 0 -1 I I #
straight-curve $-1 5.5428405721270435 212.1011993774224 0 0 0 -1 I I #
edge $-1 $896 1 $896 0 $696 $-1 forward 7 unknown #
point $-1 1 0 -0.5 #
edge $-1 $897 1 $897 0 $700 $-1 forward 7 unknown #
point $-1 1 0 -0.5 #
edge $-1 $898 1 $898 0 $704 $-1 forward 7 unknown #
point $-1 1 0 -0.5 #
plane-surface $-1 5.5428405721270435 0 0 -1 0 0 0 0 1 forward_v I I I I #
coedge $-1 $713 $711 $715 $852 reversed $500 $-1 #
edge $-1 $726 -106.0505996887112 $854 106.0505996887112 $725 $899 forward 7 unknown #
vertex $-1 $852 $900 #
straight-curve $-1 -5.5428405721270435 -212.1011993774224 0 0 0 -1 I I #
edge $-1 $850 -212.1011993774224 $854 212.1011993774224 $848 $901 forward 7 unknown #
straight-curve $-1 0 -212.1011993774224 -106.0505996887112 -1 0 0 I I #
vertex $-1 $718 $902 #
straight-curve $-1 0 212.1011993774224 -106.0505996887112 1 0 0 I I #
point $-1 5.5428405721270435 212.1011993774224 -106.0505996887112 #
point $-1 5.5428405721270435 -212.1011993774224 -106.0505996887112 #
straight-curve $-1 -5.5428405721270435 0 106.0505996887112 0 -1 0 I I #
point $-1 -5.5428405721270435 212.1011993774224 106.0505996887112 #
point $-1 -5.5428405721270435 -212.1011993774224 106.0505996887112 #
straight-curve $-1 5.5428405721270435 -212.1011993774224 0 0 0 -1 I I #
straight-curve $-1 5.5428405721270435 212.1011993774224 0 0 0 -1 I I #
edge $-1 $903 1 $903 0 $735 $-1 forward 7 unknown #
point $-1 1 0 -0.5 #
edge $-1 $904 1 $904 0 $739 $-1 forward 7 unknown #
point $-1 1 0 -0.5 #
edge $-1 $905 1 $905 0 $743 $-1 forward 7 unknown #
point $-1 1 0 -0.5 #
straight-curve $-1 -53.025299844355601 22.404876213113429 0 0 0 -1 I I #
point $-1 -53.025299844355601 -22.404876213113429 -6.7174970360573214 #
straight-curve $-1 -53.025299844355601 0 -6.7174970360573214 0 1 0 I I #
point $-1 -53.025299844355601 22.404876213113429 -6.7174970360573214 #
straight-curve $-1 -9.3167686634085669 212.1011993774224 0 0 0 -1 I I #
point $-1 -9.3167686634085669 -212.1011993774224 -106.0505996887112 #
straight-curve $-1 -9.3167686634085669 0 -106.0505996887112 0 1 0 I I #
point $-1 -9.3167686634085669 212.1011993774224 -106.0505996887112 #
vertex $-1 $779 $906 #
straight-curve $-1 -5.5428405721270435 212.1011993774224 0 0 0 -1 I I #
point $-1 -5.5428405721270435 -212.1011993774224 -106.0505996887112 #
straight-curve $-1 -5.5428405721270435 0 -106.0505996887112 0 1 0 I I #
point $-1 -5.5428405721270435 212.1011993774224 -106.0505996887112 #
vertex $-1 $797 $907 #
vertex $-1 $799 $908 #
vertex $-1 $801 $909 #
straight-curve $-1 -5.5428405721270435 212.1011993774224 0 0 0 -1 I I #
point $-1 -5.5428405721270435 -212.1011993774224 -106.0505996887112 #
straight-curve $-1 -5.5428405721270435 0 -106.0505996887112 0 1 0 I I #
point $-1 -5.5428405721270435 212.1011993774224 -106.0505996887112 #
vertex $-1 $819 $910 #
vertex $-1 $821 $911 #
vertex $-1 $823 $912 #
straight-curve $-1 -5.5428405721270435 212.1011993774224 0 0 0 -1 I I #
point $-1 -5.5428405721270435 -212.1011993774224 -106.0505996887112 #
straight-curve $-1 -5.5428405721270435 0 -106.0505996887112 0 1 0 I I #
point $-1 -5.5428405721270435 212.1011993774224 -106.0505996887112 #
vertex $-1 $841 $913 #
vertex $-1 $843 $914 #
vertex $-1 $845 $915 #
straight-curve $-1 -5.5428405721270435 212.1011993774224 0 0 0 -1 I I #
point $-1 -5.5428405721270435 -212.1011993774224 -106.0505996887112 #
straight-curve $-1 -5.5428405721270435 0 -106.0505996887112 0 1 0 I I #
point $-1 -5.5428405721270435 212.1011993774224 -106.0505996887112 #
vertex $-1 $863 $916 #
vertex $-1 $865 $917 #
vertex $-1 $867 $918 #
point $-1 0 0 0.5 #
point $-1 0 0 0.5 #
point $-1 0 0 0.5 #
point $-1 0 0 0.5 #
point $-1 0 0 0.5 #
point $-1 0 0 0.5 #
point $-1 0 0 0.5 #
point $-1 0 0 0.5 #
point $-1 0 0 0.5 #
point $-1 0 0 0.5 #
point $-1 0 0 0.5 #
point $-1 0 0 0.5 #
point $-1 0 0 0.5 #
End-of-ACIS-data 