500 0 4 0           
7 Unknown 11 ACIS 5.0 NT 24 Fri Mar 26 03:15:35 1999 
-1 9.9999999999999995e-007 1e-010 
body $-1 $4 $-1 $5 #
body $-1 $6 $-1 $7 #
body $-1 $8 $-1 $9 #
body $-1 $10 $-1 $11 #
lump $-1 $-1 $12 $0 #
transform $-1 1 0 0 0 1 0 0 0 1 56.302987762077706 27.448716025431391 9.1799523739217026 1 rotate no_reflect no_shear #
lump $-1 $-1 $13 $1 #
transform $-1 1 0 0 0 1 0 0 0 1 56.302987762077706 27.448716025431391 9.1799523739217026 1 rotate no_reflect no_shear #
lump $-1 $-1 $14 $2 #
transform $-1 1 0 0 0 1 0 0 0 1 56.302987762077706 27.448716025431391 9.1799523739217026 1 rotate no_reflect no_shear #
lump $-1 $-1 $15 $3 #
transform $-1 1 0 0 0 1 0 0 0 1 56.302987762077706 27.448716025431391 9.1799523739217026 1 rotate no_reflect no_shear #
shell $-1 $-1 $-1 $16 $-1 $4 #
shell $-1 $-1 $-1 $17 $-1 $6 #
shell $-1 $-1 $-1 $18 $-1 $8 #
shell $-1 $-1 $-1 $19 $-1 $10 #
face $-1 $20 $21 $12 $-1 $22 forward single #
face $-1 $23 $24 $13 $-1 $25 reversed single #
face $-1 $26 $27 $14 $-1 $28 forward single #
face $-1 $29 $30 $15 $-1 $31 reversed single #
face $-1 $32 $33 $12 $-1 $34 reversed single #
loop $-1 $-1 $35 $16 #
plane-surface $-1 0 0 9.1799523739217026 0 0 1 1 0 0 forward_v I I I I #
face $-1 $36 $37 $13 $-1 $38 forward single #
loop $-1 $-1 $39 $17 #
plane-surface $-1 0 -22.363747460382339 -5.1044872052019841 0 0 1 1 0 0 forward_v I I I I #
face $-1 $40 $41 $14 $-1 $42 forward single #
loop $-1 $-1 $43 $18 #
plane-surface $-1 -135.92743758118115 -17.278778895333286 80.245328833708868 0 1 0 -0.70710678939079041 0 0.70710677298230451 forward_v I I I I #
face $-1 $44 $45 $15 $-1 $46 reversed single #
loop $-1 $47 $48 $19 #
cone-surface $-1 -49.982829568723005 -12.018801924174497 2.8597941286127866 0.70710678939079041 0 -0.70710677298230451 1.0606601594734568 0 1.0606601840861856 1 I I 0 1 1.5 forward I I I I #
face $-1 $49 $50 $12 $-1 $51 reversed single #
loop $-1 $-1 $52 $20 #
plane-surface $-1 0 0 -9.1799523739217026 0 0 1 1 0 0 forward_v I I I I #
coedge $-1 $53 $54 $55 $56 forward $21 $-1 #
face $-1 $57 $58 $13 $-1 $59 reversed single #
loop $-1 $-1 $60 $23 #
plane-surface $-1 0 -17.278778895333286 -7.1422197895618433 0 -1 0 0 0 -1 forward_v I I I I #
coedge $-1 $61 $62 $63 $64 reversed $24 $-1 #
face $-1 $65 $66 $14 $-1 $67 forward single #
loop $-1 $-1 $68 $26 #
plane-surface $-1 -56.302987762077692 -12.018801924174497 0.62088086229897499 -0.70710678939079041 0 0.70710677298230451 0.70710677298230451 0 0.70710678939079041 forward_v I I I I #
coedge $-1 $69 $70 $71 $72 reversed $27 $-1 #
face $-1 $73 $74 $15 $-1 $75 forward single #
loop $-1 $76 $77 $29 #
cone-surface $-1 -47.411876939829504 -12.018801924174497 0.28884155937850942 0.70710678939079041 0 -0.70710677298230451 0.53033007973672841 0 0.53033009204309278 1 I I -0.70710678118654757 0.70710678118654757 0.75 forward I I I I #
loop $-1 $-1 $78 $19 #
coedge $-1 $48 $48 $79 $80 reversed $30 $-1 #
face $-1 $81 $82 $12 $-1 $83 reversed single #
loop $-1 $-1 $84 $32 #
plane-surface $-1 0 -27.448716025431391 0 0 1 0 0 0 1 forward_v I I I I #
coedge $-1 $85 $86 $87 $88 forward $33 $-1 #
coedge $-1 $89 $35 $90 $91 forward $21 $-1 #
coedge $-1 $35 $89 $92 $93 forward $21 $-1 #
coedge $-1 $94 $95 $35 $56 reversed $96 $-1 #
edge $-1 $97 -27.448716025431391 $98 27.448716025431391 $55 $99 forward 7 unknown #
face $-1 $100 $101 $13 $-1 $102 reversed single #
loop $-1 $-1 $103 $36 #
plane-surface $-1 0 -27.448716025431391 0 0 1 0 0 0 1 forward_v I I I I #
coedge $-1 $104 $105 $106 $107 reversed $37 $-1 #
coedge $-1 $108 $39 $103 $109 reversed $24 $-1 #
coedge $-1 $39 $108 $104 $110 reversed $24 $-1 #
coedge $-1 $106 $111 $39 $64 forward $112 $-1 #
edge $-1 $113 -16.266842295240224 $114 -6.0969051651421164 $63 $115 forward 7 unknown #
face $-1 $116 $117 $14 $-1 $118 forward single #
loop $-1 $-1 $119 $40 #
plane-surface $-1 -135.92743758118115 -6.7588249530157078 80.245328833708868 0 -1 0 0.70710678939079041 0 -0.70710677298230451 forward_v I I I I #
coedge $-1 $120 $121 $122 $123 reversed $41 $-1 #
coedge $-1 $70 $43 $121 $124 forward $27 $-1 #
coedge $-1 $43 $69 $125 $126 reversed $27 $-1 #
coedge $-1 $127 $122 $43 $72 forward $117 $-1 #
edge $-1 $128 -20.219802341521472 $129 -11.66073102851287 $71 $130 forward 7 unknown #
face $-1 $131 $132 $15 $-1 $133 forward single #
loop $-1 $-1 $134 $44 #
plane-surface $-1 -135.92743758118115 -17.278778895333286 80.245328833708868 0 1 0 -0.70710678939079041 0 0.70710677298230451 forward_v I I I I #
loop $-1 $-1 $135 $29 #
coedge $-1 $77 $77 $78 $136 forward $45 $-1 #
coedge $-1 $78 $78 $77 $136 reversed $47 $-1 #
coedge $-1 $79 $79 $48 $80 forward $132 $-1 #
edge $-1 $137 0 $137 6.2831853071796004 $79 $138 forward 7 unknown #
face $-1 $139 $140 $12 $-1 $141 reversed single #
loop $-1 $-1 $142 $49 #
plane-surface $-1 -56.302987762077706 0 0 1 0 0 0 0 -1 forward_v I I I I #
coedge $-1 $143 $92 $144 $145 forward $50 $-1 #
coedge $-1 $146 $52 $143 $147 forward $33 $-1 #
coedge $-1 $52 $146 $148 $149 forward $33 $-1 #
coedge $-1 $95 $94 $52 $88 reversed $96 $-1 #
edge $-1 $150 -27.448716025431391 $151 27.448716025431391 $87 $152 forward 7 unknown #
coedge $-1 $54 $53 $153 $154 forward $21 $-1 #
coedge $-1 $155 $156 $53 $91 reversed $140 $-1 #
edge $-1 $98 -56.302987762077706 $157 56.302987762077706 $90 $158 forward 7 unknown #
coedge $-1 $84 $159 $54 $93 reversed $50 $-1 #
edge $-1 $160 -56.302987762077706 $97 56.302987762077706 $92 $161 forward 7 unknown #
coedge $-1 $87 $55 $159 $162 forward $96 $-1 #
coedge $-1 $55 $87 $155 $163 reversed $96 $-1 #
loop $-1 $-1 $94 $139 #
vertex $-1 $56 $164 #
vertex $-1 $56 $165 #
straight-curve $-1 56.302987762077706 0 9.1799523739217026 0 1 0 I I #
face $-1 $166 $167 $13 $-1 $168 forward single #
loop $-1 $-1 $169 $57 #
plane-surface $-1 0 0 -9.1799523739217026 0 0 1 1 0 0 forward_v I I I I #
coedge $-1 $170 $171 $61 $109 forward $58 $-1 #
coedge $-1 $172 $60 $62 $110 forward $37 $-1 #
coedge $-1 $60 $172 $169 $173 reversed $37 $-1 #
coedge $-1 $174 $63 $60 $107 forward $112 $-1 #
edge $-1 $114 1.5333773104210624 $175 5.6088424791407814 $106 $176 forward 7 unknown #
coedge $-1 $62 $61 $177 $178 reversed $24 $-1 #
edge $-1 $179 -56.302987762077706 $113 56.302987762077706 $103 $180 forward 7 unknown #
edge $-1 $114 -56.302987762077706 $181 56.302987762077706 $104 $182 forward 7 unknown #
coedge $-1 $63 $183 $170 $184 forward $112 $-1 #
loop $-1 $-1 $106 $185 #
vertex $-1 $109 $186 #
vertex $-1 $64 $187 #
straight-curve $-1 56.302987762077706 -11.181873730191169 -5.1044872052019841 0 1 0 I I #
face $-1 $188 $189 $14 $-1 $190 reversed single #
loop $-1 $-1 $191 $65 #
plane-surface $-1 0 0 9.1799523739217026 0 0 1 1 0 0 forward_v I I I I #
coedge $-1 $192 $193 $191 $194 reversed $66 $-1 #
coedge $-1 $195 $68 $193 $196 reversed $41 $-1 #
coedge $-1 $68 $195 $69 $124 reversed $41 $-1 #
coedge $-1 $71 $191 $68 $123 forward $117 $-1 #
edge $-1 $197 0.74942399092845946 $128 11.269377933246037 $122 $198 forward 7 unknown #
edge $-1 $128 -12.104354872616648 $199 2.0097183471152325e-014 $69 $200 forward 7 unknown #
coedge $-1 $201 $202 $70 $126 forward $203 $-1 #
edge $-1 $129 30.942712042932733 $199 39.501783554555473 $125 $204 forward 7 unknown #
coedge $-1 $205 $71 $202 $206 forward $117 $-1 #
vertex $-1 $123 $207 #
vertex $-1 $206 $208 #
straight-curve $-1 -67.963718790590576 -17.278778895333286 9.1799523739217008 -1 0 0 I I #
face $-1 $209 $210 $15 $-1 $211 forward single #
loop $-1 $212 $79 $73 #
plane-surface $-1 -56.302987762077692 -12.018801924174497 0.62088086229897499 -0.70710678939079041 0 0.70710677298230451 0.70710677298230451 0 0.70710678939079041 forward_v I I I I #
coedge $-1 $213 $214 $215 $216 reversed $74 $-1 #
coedge $-1 $135 $135 $-1 $217 forward $76 $-1 #
edge $-1 $218 0 $218 6.2831853071796004 $77 $219 forward 7 unknown #
vertex $-1 $80 $220 #
ellipse-curve $-1 -52.023452105573405 -12.018801924174497 4.9004166181103299 0.70710678939079041 0 -0.70710677298230451 1.0606601594734568 0 1.0606601840861856 1 I I #
face $-1 $-1 $96 $12 $-1 $221 reversed single #
loop $-1 $-1 $155 $81 #
plane-surface $-1 0 27.448716025431391 0 0 -1 0 0 0 -1 forward_v I I I I #
coedge $-1 $222 $153 $156 $223 forward $82 $-1 #
coedge $-1 $159 $84 $85 $147 reversed $50 $-1 #
coedge $-1 $153 $222 $84 $145 reversed $82 $-1 #
edge $-1 $160 -9.1799523739217026 $224 9.1799523739217026 $144 $225 forward 7 unknown #
coedge $-1 $86 $85 $222 $226 forward $33 $-1 #
edge $-1 $151 -56.302987762077706 $224 56.302987762077706 $143 $227 forward 7 unknown #
coedge $-1 $156 $155 $86 $149 reversed $140 $-1 #
edge $-1 $228 -56.302987762077706 $150 56.302987762077706 $148 $229 forward 7 unknown #
vertex $-1 $88 $230 #
vertex $-1 $162 $231 #
straight-curve $-1 56.302987762077706 0 -9.1799523739217026 0 -1 0 I I #
coedge $-1 $142 $144 $89 $154 reversed $82 $-1 #
edge $-1 $157 -27.448716025431391 $160 27.448716025431391 $153 $232 forward 7 unknown #
coedge $-1 $148 $90 $95 $163 forward $140 $-1 #
coedge $-1 $90 $148 $142 $223 reversed $140 $-1 #
vertex $-1 $91 $233 #
straight-curve $-1 0 27.448716025431391 9.1799523739217026 -1 0 0 I I #
coedge $-1 $92 $143 $94 $162 reversed $50 $-1 #
vertex $-1 $154 $234 #
straight-curve $-1 0 -27.448716025431391 9.1799523739217026 1 0 0 I I #
edge $-1 $97 -9.1799523739217026 $151 9.1799523739217026 $94 $235 forward 7 unknown #
edge $-1 $98 -9.1799523739217026 $150 9.1799523739217026 $95 $236 forward 7 unknown #
point $-1 56.302987762077706 -27.448716025431391 9.1799523739217026 #
point $-1 56.302987762077706 27.448716025431391 9.1799523739217026 #
face $-1 $237 $238 $13 $-1 $239 reversed single #
loop $-1 $-1 $240 $100 #
plane-surface $-1 0 0 9.1799523739217026 0 0 1 1 0 0 forward_v I I I I #
coedge $-1 $241 $242 $105 $173 forward $101 $-1 #
coedge $-1 $243 $103 $111 $184 reversed $58 $-1 #
coedge $-1 $103 $243 $244 $245 forward $58 $-1 #
coedge $-1 $105 $104 $246 $247 reversed $37 $-1 #
edge $-1 $175 -56.302987762077706 $248 56.302987762077706 $169 $249 forward 7 unknown #
coedge $-1 $250 $106 $242 $251 reversed $112 $-1 #
vertex $-1 $173 $252 #
straight-curve $-1 56.302987762077706 -17.278778895333286 -3.5711098947809217 0 0 -1 I I #
coedge $-1 $244 $246 $108 $178 forward $238 $-1 #
edge $-1 $181 6.0969051651421164 $179 16.266842295240224 $177 $253 forward 7 unknown #
vertex $-1 $109 $254 #
straight-curve $-1 0 -27.448716025431391 -5.1044872052019841 1 0 0 I I #
vertex $-1 $178 $255 #
straight-curve $-1 0 -17.278778895333286 -5.1044872052019841 -1 0 0 I I #
coedge $-1 $111 $250 $240 $256 reversed $112 $-1 #
edge $-1 $257 -9.1799523739217026 $113 5.1044872052019841 $111 $258 forward 7 unknown #
face $-1 $-1 $112 $13 $-1 $259 reversed single #
point $-1 56.302987762077706 -27.448716025431391 -5.1044872052019841 #
point $-1 56.302987762077706 -17.278778895333286 -5.1044872052019841 #
face $-1 $260 $261 $14 $-1 $262 forward single #
loop $-1 $-1 $263 $116 #
plane-surface $-1 0 -22.363747460382339 -5.1044872052019841 0 0 1 1 0 0 forward_v I I I I #
coedge $-1 $122 $264 $119 $194 forward $117 $-1 #
coedge $-1 $193 $119 $265 $266 reversed $66 $-1 #
coedge $-1 $119 $192 $120 $196 forward $66 $-1 #
edge $-1 $267 11.66073102851287 $197 20.219802341521472 $191 $268 forward 7 unknown #
coedge $-1 $121 $120 $201 $269 reversed $41 $-1 #
edge $-1 $270 -2.0097183471152325e-014 $197 12.104354872616648 $193 $271 forward 7 unknown #
vertex $-1 $123 $272 #
straight-curve $-1 -47.743916449069097 -6.0094009620872484 9.1799523739217026 0 -1 0 I I #
vertex $-1 $269 $273 #
straight-curve $-1 -56.302987762077692 -17.278778895333286 0.62088086229897499 -0.70710677298230451 0 -0.70710678939079041 I I #
coedge $-1 $265 $125 $195 $269 forward $203 $-1 #
coedge $-1 $125 $274 $127 $206 reversed $203 $-1 #
loop $-1 $-1 $265 $275 #
straight-curve $-1 -56.302987762077706 -17.278778895333286 40.122664416854434 0 0 -1 I I #
coedge $-1 $276 $127 $277 $278 forward $117 $-1 #
edge $-1 $129 17.278778895333286 $279 27.448716025431391 $202 $280 forward 7 unknown #
point $-1 -47.743916449069104 -17.278778895333286 9.1799523739217026 #
point $-1 -56.302987762077706 -17.278778895333286 9.1799523739217026 #
face $-1 $281 $282 $15 $-1 $283 forward single #
loop $-1 $-1 $284 $131 #
plane-surface $-1 -135.92743758118115 -6.7588249530157078 80.245328833708868 0 -1 0 0.70710678939079041 0 -0.70710677298230451 forward_v I I I I #
loop $-1 $-1 $285 $73 #
coedge $-1 $214 $134 $286 $287 forward $74 $-1 #
coedge $-1 $134 $213 $288 $289 reversed $74 $-1 #
coedge $-1 $290 $291 $134 $216 forward $282 $-1 #
edge $-1 $292 -20.219802341521472 $293 -11.66073102851287 $215 $294 forward 7 unknown #
edge $-1 $295 1 $295 0 $135 $-1 forward 7 unknown #
vertex $-1 $136 $296 #
ellipse-curve $-1 -47.942207031872599 -12.018801924174497 0.81917163911523783 -0.70710678939079041 0 0.70710677298230451 1.0606601594734568 0 1.0606601840861856 1 I I #
point $-1 -50.962791946099948 -12.018801924174497 5.961076802196521 #
plane-surface $-1 56.302987762077706 0 0 -1 0 0 0 0 1 forward_v I I I I #
coedge $-1 $144 $142 $146 $226 reversed $82 $-1 #
edge $-1 $157 -9.1799523739217026 $228 9.1799523739217026 $156 $297 forward 7 unknown #
vertex $-1 $226 $298 #
straight-curve $-1 -56.302987762077706 -27.448716025431391 0 0 0 -1 I I #
edge $-1 $224 -27.448716025431391 $228 27.448716025431391 $222 $299 forward 7 unknown #
straight-curve $-1 0 -27.448716025431391 -9.1799523739217026 -1 0 0 I I #
vertex $-1 $149 $300 #
straight-curve $-1 0 27.448716025431391 -9.1799523739217026 1 0 0 I I #
point $-1 56.302987762077706 27.448716025431391 -9.1799523739217026 #
point $-1 56.302987762077706 -27.448716025431391 -9.1799523739217026 #
straight-curve $-1 -56.302987762077706 0 9.1799523739217026 0 -1 0 I I #
point $-1 -56.302987762077706 27.448716025431391 9.1799523739217026 #
point $-1 -56.302987762077706 -27.448716025431391 9.1799523739217026 #
straight-curve $-1 56.302987762077706 -27.448716025431391 0 0 0 -1 I I #
straight-curve $-1 56.302987762077706 27.448716025431391 0 0 0 -1 I I #
face $-1 $185 $301 $13 $-1 $302 reversed single #
loop $-1 $-1 $177 $166 #
plane-surface $-1 -56.302987762077706 0 0 1 0 0 0 0 -1 forward_v I I I I #
coedge $-1 $303 $304 $183 $256 forward $167 $-1 #
coedge $-1 $305 $169 $306 $307 forward $101 $-1 #
coedge $-1 $169 $305 $174 $251 forward $101 $-1 #
coedge $-1 $171 $170 $304 $308 reversed $58 $-1 #
coedge $-1 $309 $177 $171 $245 reversed $238 $-1 #
edge $-1 $310 -9.1799523739217026 $179 5.1044872052019841 $244 $311 forward 7 unknown #
coedge $-1 $177 $306 $172 $247 forward $238 $-1 #
edge $-1 $248 -5.6088424791407814 $181 -1.5333773104210624 $246 $312 forward 7 unknown #
vertex $-1 $307 $313 #
straight-curve $-1 0 -17.278778895333286 -9.1799523739217026 -1 0 0 I I #
coedge $-1 $183 $174 $314 $315 reversed $112 $-1 #
edge $-1 $316 -27.448716025431391 $175 17.278778895333286 $174 $317 forward 7 unknown #
point $-1 56.302987762077706 -17.278778895333286 -9.1799523739217026 #
straight-curve $-1 -56.302987762077706 -11.181873730191169 -5.1044872052019841 0 -1 0 I I #
point $-1 -56.302987762077706 -27.448716025431391 -5.1044872052019841 #
point $-1 -56.302987762077706 -17.278778895333286 -5.1044872052019841 #
edge $-1 $257 -27.448716025431391 $318 27.448716025431391 $183 $319 forward 7 unknown #
vertex $-1 $256 $320 #
straight-curve $-1 56.302987762077706 -27.448716025431391 0 0 0 -1 I I #
plane-surface $-1 56.302987762077706 0 0 -1 0 0 0 0 1 forward_v I I I I #
face $-1 $321 $322 $14 $-1 $323 reversed single #
loop $-1 $-1 $324 $188 #
plane-surface $-1 0 -17.278778895333286 -7.1422197895618433 0 -1 0 0 0 -1 forward_v I I I I #
coedge $-1 $325 $326 $327 $328 reversed $189 $-1 #
coedge $-1 $191 $329 $330 $331 forward $117 $-1 #
coedge $-1 $330 $201 $192 $266 forward $203 $-1 #
edge $-1 $270 -39.501783554555473 $267 -30.942712042932733 $265 $332 forward 7 unknown #
vertex $-1 $266 $333 #
straight-curve $-1 -67.963718790590576 -6.7588249530157078 9.1799523739217008 1 0 0 I I #
edge $-1 $199 -11.269377933246037 $270 -0.74942399092845946 $201 $334 forward 7 unknown #
vertex $-1 $269 $335 #
straight-curve $-1 -56.302987762077692 -6.7588249530157078 0.62088086229897499 0.70710677298230451 0 0.70710678939079041 I I #
point $-1 -47.743916449069104 -6.7588249530157078 9.1799523739217026 #
point $-1 -56.302987762077706 -17.278778895333286 0.62088086229896078 #
coedge $-1 $202 $336 $337 $338 reversed $203 $-1 #
face $-1 $339 $203 $14 $-1 $340 reversed single #
coedge $-1 $329 $205 $341 $342 forward $117 $-1 #
coedge $-1 $337 $343 $205 $278 reversed $322 $-1 #
edge $-1 $279 -56.302987762077706 $344 56.302987762077706 $277 $345 forward 7 unknown #
vertex $-1 $206 $346 #
straight-curve $-1 -56.302987762077706 0 9.1799523739217026 0 -1 0 I I #
face $-1 $347 $348 $15 $-1 $349 reversed single #
loop $-1 $-1 $350 $209 #
plane-surface $-1 0 0 9.1799523739217026 0 0 1 1 0 0 forward_v I I I I #
coedge $-1 $351 $352 $350 $353 reversed $210 $-1 #
coedge $-1 $354 $286 $291 $355 reversed $212 $-1 #
coedge $-1 $285 $356 $213 $287 reversed $212 $-1 #
edge $-1 $292 -12.104354872616648 $357 2.0097183471152325e-014 $213 $358 forward 7 unknown #
coedge $-1 $359 $360 $214 $289 forward $361 $-1 #
edge $-1 $293 30.942712042932733 $357 39.501783554555473 $288 $362 forward 7 unknown #
coedge $-1 $363 $215 $360 $364 forward $282 $-1 #
coedge $-1 $215 $350 $285 $355 forward $282 $-1 #
vertex $-1 $355 $365 #
vertex $-1 $364 $366 #
straight-curve $-1 -67.963718790590576 -17.278778895333286 9.1799523739217008 -1 0 0 I I #
vertex $-1 $217 $367 #
point $-1 -46.881546872399142 -12.018801924174497 1.8798318232014233 #
straight-curve $-1 -56.302987762077706 27.448716025431391 0 0 0 -1 I I #
point $-1 -56.302987762077706 -27.448716025431391 -9.1799523739217026 #
straight-curve $-1 -56.302987762077706 0 -9.1799523739217026 0 1 0 I I #
point $-1 -56.302987762077706 27.448716025431391 -9.1799523739217026 #
loop $-1 $-1 $314 $237 #
plane-surface $-1 0 27.448716025431391 0 0 -1 0 0 0 -1 forward_v I I I I #
coedge $-1 $368 $240 $369 $370 forward $167 $-1 #
coedge $-1 $240 $368 $243 $308 forward $167 $-1 #
coedge $-1 $242 $241 $371 $372 forward $101 $-1 #
coedge $-1 $246 $373 $241 $307 reversed $238 $-1 #
edge $-1 $248 -17.278778895333286 $374 27.448716025431391 $306 $375 forward 7 unknown #
edge $-1 $310 -56.302987762077706 $257 56.302987762077706 $243 $376 forward 7 unknown #
coedge $-1 $373 $244 $368 $377 reversed $238 $-1 #
vertex $-1 $377 $378 #
straight-curve $-1 -56.302987762077706 -27.448716025431391 0 0 0 -1 I I #
straight-curve $-1 -56.302987762077706 -17.278778895333286 -3.5711098947809217 0 0 1 I I #
point $-1 -56.302987762077706 -17.278778895333286 -9.1799523739217026 #
coedge $-1 $371 $369 $250 $315 forward $301 $-1 #
edge $-1 $318 -9.1799523739217026 $316 9.1799523739217026 $250 $379 forward 7 unknown #
vertex $-1 $251 $380 #
straight-curve $-1 56.302987762077706 0 -9.1799523739217026 0 -1 0 I I #
vertex $-1 $256 $381 #
straight-curve $-1 56.302987762077706 0 9.1799523739217026 0 1 0 I I #
point $-1 56.302987762077706 -27.448716025431391 9.1799523739217026 #
face $-1 $275 $382 $14 $-1 $383 reversed single #
loop $-1 $-1 $384 $260 #
plane-surface $-1 0 -27.448716025431391 0 0 1 0 0 0 1 forward_v I I I I #
coedge $-1 $385 $386 $387 $388 reversed $261 $-1 #
coedge $-1 $389 $263 $384 $390 reversed $189 $-1 #
coedge $-1 $263 $389 $385 $391 reversed $189 $-1 #
coedge $-1 $387 $392 $263 $328 forward $393 $-1 #
edge $-1 $394 -16.266842295240224 $395 -6.0969051651421164 $327 $396 forward 7 unknown #
coedge $-1 $264 $276 $397 $398 forward $117 $-1 #
coedge $-1 $399 $265 $264 $331 reversed $203 $-1 #
edge $-1 $400 -27.448716025431391 $267 6.7588249530157078 $330 $280 forward 7 unknown #
straight-curve $-1 -56.302987762077706 -6.7588249530157078 40.122664416854434 0 0 1 I I #
point $-1 -56.302987762077706 -6.7588249530157078 9.1799523739217026 #
straight-curve $-1 -56.302987762077706 -6.0094009620872484 0.62088086229895723 0 1 0 I I #
point $-1 -56.302987762077706 -6.7588249530157078 0.62088086229896078 #
coedge $-1 $274 $401 $389 $402 forward $203 $-1 #
coedge $-1 $384 $277 $274 $338 forward $322 $-1 #
edge $-1 $279 -9.1799523739217026 $403 5.1044872052019841 $274 $404 forward 7 unknown #
face $-1 $405 $406 $14 $-1 $407 reversed single #
plane-surface $-1 -56.302987762077706 0 0 1 0 0 0 0 -1 forward_v I I I I #
coedge $-1 $392 $408 $276 $342 reversed $393 $-1 #
edge $-1 $344 -27.448716025431391 $409 27.448716025431391 $341 $410 forward 7 unknown #
coedge $-1 $277 $384 $392 $411 reversed $322 $-1 #
vertex $-1 $342 $412 #
straight-curve $-1 0 -27.448716025431391 9.1799523739217026 1 0 0 I I #
point $-1 -56.302987762077706 -27.448716025431391 9.1799523739217026 #
face $-1 $413 $414 $15 $-1 $415 forward single #
loop $-1 $-1 $416 $281 #
plane-surface $-1 0 -22.363747460382339 -5.1044872052019841 0 0 1 1 0 0 forward_v I I I I #
coedge $-1 $291 $417 $284 $353 forward $282 $-1 #
coedge $-1 $352 $284 $418 $419 reversed $210 $-1 #
coedge $-1 $284 $351 $354 $420 forward $210 $-1 #
edge $-1 $421 11.66073102851287 $422 20.219802341521472 $350 $423 forward 7 unknown #
coedge $-1 $356 $285 $352 $420 reversed $212 $-1 #
edge $-1 $422 0.74942399092845946 $292 11.269377933246037 $291 $424 forward 7 unknown #
coedge $-1 $286 $354 $359 $425 reversed $212 $-1 #
vertex $-1 $425 $426 #
straight-curve $-1 -56.302987762077692 -17.278778895333286 0.62088086229897499 -0.70710677298230451 0 -0.70710678939079041 I I #
coedge $-1 $418 $288 $356 $425 forward $361 $-1 #
coedge $-1 $288 $427 $290 $364 reversed $361 $-1 #
loop $-1 $-1 $418 $428 #
straight-curve $-1 -56.302987762077706 -17.278778895333286 40.122664416854434 0 0 -1 I I #
coedge $-1 $429 $290 $430 $431 forward $282 $-1 #
edge $-1 $293 17.278778895333286 $432 27.448716025431391 $360 $433 forward 7 unknown #
point $-1 -47.743916449069104 -17.278778895333286 9.1799523739217026 #
point $-1 -56.302987762077706 -17.278778895333286 9.1799523739217026 #
point $-1 -46.88154684778641 -12.018801924174497 -0.24148852035821899 #
coedge $-1 $304 $303 $309 $377 forward $167 $-1 #
coedge $-1 $314 $434 $303 $370 reversed $301 $-1 #
edge $-1 $318 -56.302987762077706 $435 56.302987762077706 $369 $436 forward 7 unknown #
coedge $-1 $434 $314 $305 $372 reversed $301 $-1 #
edge $-1 $374 -56.302987762077706 $316 56.302987762077706 $371 $437 forward 7 unknown #
coedge $-1 $306 $309 $434 $438 forward $238 $-1 #
vertex $-1 $372 $439 #
straight-curve $-1 -56.302987762077706 0 -9.1799523739217026 0 1 0 I I #
straight-curve $-1 0 -27.448716025431391 9.1799523739217026 1 0 0 I I #
edge $-1 $435 -27.448716025431391 $310 27.448716025431391 $309 $440 forward 7 unknown #
point $-1 -56.302987762077706 -27.448716025431391 9.1799523739217026 #
straight-curve $-1 56.302987762077706 27.448716025431391 0 0 0 -1 I I #
point $-1 56.302987762077706 27.448716025431391 -9.1799523739217026 #
point $-1 56.302987762077706 27.448716025431391 9.1799523739217026 #
loop $-1 $-1 $441 $321 #
plane-surface $-1 0 0 -9.1799523739217026 0 0 1 1 0 0 forward_v I I I I #
coedge $-1 $343 $337 $325 $390 forward $322 $-1 #
coedge $-1 $442 $324 $326 $391 forward $261 $-1 #
coedge $-1 $324 $442 $441 $443 reversed $261 $-1 #
coedge $-1 $444 $327 $324 $388 forward $393 $-1 #
edge $-1 $395 1.5333773104210624 $445 5.6088424791407814 $387 $446 forward 7 unknown #
coedge $-1 $326 $325 $336 $402 reversed $189 $-1 #
edge $-1 $403 -56.302987762077706 $394 56.302987762077706 $384 $447 forward 7 unknown #
edge $-1 $395 -56.302987762077706 $448 56.302987762077706 $385 $449 forward 7 unknown #
coedge $-1 $327 $341 $343 $411 forward $393 $-1 #
loop $-1 $-1 $387 $405 #
vertex $-1 $390 $450 #
vertex $-1 $328 $451 #
straight-curve $-1 56.302987762077706 -11.181873730191169 -5.1044872052019841 0 1 0 I I #
coedge $-1 $452 $453 $329 $398 reversed $406 $-1 #
edge $-1 $409 -56.302987762077706 $400 56.302987762077706 $397 $454 forward 7 unknown #
coedge $-1 $455 $330 $453 $456 forward $203 $-1 #
vertex $-1 $398 $457 #
coedge $-1 $336 $455 $442 $458 forward $203 $-1 #
edge $-1 $448 6.0969051651421164 $403 16.266842295240224 $336 $459 forward 7 unknown #
vertex $-1 $390 $460 #
straight-curve $-1 -56.302987762077706 -27.448716025431391 0 0 0 -1 I I #
face $-1 $-1 $393 $14 $-1 $461 reversed single #
loop $-1 $-1 $452 $339 #
plane-surface $-1 0 27.448716025431391 0 0 -1 0 0 0 -1 forward_v I I I I #
coedge $-1 $341 $444 $452 $462 reversed $393 $-1 #
vertex $-1 $342 $463 #
straight-curve $-1 56.302987762077706 0 9.1799523739217026 0 1 0 I I #
edge $-1 $344 -9.1799523739217026 $394 5.1044872052019841 $392 $464 forward 7 unknown #
point $-1 56.302987762077706 -27.448716025431391 9.1799523739217026 #
face $-1 $465 $466 $15 $-1 $467 reversed single #
loop $-1 $-1 $468 $347 #
plane-surface $-1 0 -17.278778895333286 -7.1422197895618433 0 -1 0 0 0 -1 forward_v I I I I #
coedge $-1 $469 $470 $471 $472 reversed $348 $-1 #
coedge $-1 $350 $473 $474 $475 forward $282 $-1 #
coedge $-1 $474 $359 $351 $419 forward $361 $-1 #
edge $-1 $476 -39.501783554555473 $421 -30.942712042932733 $418 $477 forward 7 unknown #
edge $-1 $476 -2.0097183471152325e-014 $422 12.104354872616648 $352 $478 forward 7 unknown #
vertex $-1 $419 $479 #
vertex $-1 $355 $480 #
straight-curve $-1 -67.963718790590576 -6.7588249530157078 9.1799523739217008 1 0 0 I I #
straight-curve $-1 -47.743916449069097 -6.0094009620872484 9.1799523739217026 0 -1 0 I I #
edge $-1 $357 -11.269377933246037 $476 -0.74942399092845946 $359 $481 forward 7 unknown #
point $-1 -56.302987762077706 -17.278778895333286 0.62088086229896078 #
coedge $-1 $360 $482 $483 $484 reversed $361 $-1 #
face $-1 $485 $361 $15 $-1 $486 reversed single #
coedge $-1 $473 $363 $487 $488 forward $282 $-1 #
coedge $-1 $483 $489 $363 $431 reversed $466 $-1 #
edge $-1 $432 -56.302987762077706 $490 56.302987762077706 $430 $491 forward 7 unknown #
vertex $-1 $364 $492 #
straight-curve $-1 -56.302987762077706 0 9.1799523739217026 0 -1 0 I I #
coedge $-1 $369 $371 $373 $438 reversed $301 $-1 #
vertex $-1 $370 $493 #
straight-curve $-1 0 27.448716025431391 9.1799523739217026 -1 0 0 I I #
straight-curve $-1 0 27.448716025431391 -9.1799523739217026 1 0 0 I I #
edge $-1 $435 -9.1799523739217026 $374 9.1799523739217026 $434 $494 forward 7 unknown #
point $-1 -56.302987762077706 27.448716025431391 -9.1799523739217026 #
straight-curve $-1 -56.302987762077706 0 9.1799523739217026 0 -1 0 I I #
coedge $-1 $495 $496 $386 $443 forward $382 $-1 #
coedge $-1 $386 $385 $401 $458 reversed $261 $-1 #
edge $-1 $445 -56.302987762077706 $497 56.302987762077706 $441 $498 forward 7 unknown #
coedge $-1 $408 $387 $496 $499 reversed $393 $-1 #
vertex $-1 $443 $500 #
straight-curve $-1 56.302987762077706 -17.278778895333286 -3.5711098947809217 0 0 -1 I I #
straight-curve $-1 0 -27.448716025431391 -5.1044872052019841 1 0 0 I I #
vertex $-1 $402 $501 #
straight-curve $-1 0 -17.278778895333286 -5.1044872052019841 -1 0 0 I I #
point $-1 56.302987762077706 -27.448716025431391 -5.1044872052019841 #
point $-1 56.302987762077706 -17.278778895333286 -5.1044872052019841 #
coedge $-1 $502 $397 $408 $462 forward $406 $-1 #
coedge $-1 $397 $502 $399 $456 reversed $406 $-1 #
straight-curve $-1 0 27.448716025431391 9.1799523739217026 -1 0 0 I I #
coedge $-1 $401 $399 $495 $503 reversed $203 $-1 #
edge $-1 $400 -9.1799523739217026 $504 9.1799523739217026 $453 $505 forward 7 unknown #
point $-1 -56.302987762077706 27.448716025431391 9.1799523739217026 #
edge $-1 $497 -5.6088424791407814 $448 -1.5333773104210624 $401 $506 forward 7 unknown #
straight-curve $-1 -56.302987762077706 -11.181873730191169 -5.1044872052019841 0 -1 0 I I #
point $-1 -56.302987762077706 -27.448716025431391 -5.1044872052019841 #
plane-surface $-1 56.302987762077706 0 0 -1 0 0 0 0 1 forward_v I I I I #
edge $-1 $409 -9.1799523739217026 $507 9.1799523739217026 $408 $508 forward 7 unknown #
point $-1 56.302987762077706 27.448716025431391 9.1799523739217026 #
straight-curve $-1 56.302987762077706 -27.448716025431391 0 0 0 -1 I I #
face $-1 $428 $509 $15 $-1 $510 reversed single #
loop $-1 $-1 $511 $413 #
plane-surface $-1 0 -27.448716025431391 0 0 1 0 0 0 1 forward_v I I I I #
coedge $-1 $512 $513 $514 $515 reversed $414 $-1 #
coedge $-1 $516 $416 $511 $517 reversed $348 $-1 #
coedge $-1 $416 $516 $512 $518 reversed $348 $-1 #
coedge $-1 $514 $519 $416 $472 forward $520 $-1 #
edge $-1 $521 -16.266842295240224 $522 -6.0969051651421164 $471 $523 forward 7 unknown #
coedge $-1 $417 $429 $524 $525 forward $282 $-1 #
coedge $-1 $526 $418 $417 $475 reversed $361 $-1 #
edge $-1 $527 -27.448716025431391 $421 6.7588249530157078 $474 $433 forward 7 unknown #
vertex $-1 $425 $528 #
straight-curve $-1 -56.302987762077706 -6.7588249530157078 40.122664416854434 0 0 1 I I #
straight-curve $-1 -56.302987762077692 -6.7588249530157078 0.62088086229897499 0.70710677298230451 0 0.70710678939079041 I I #
point $-1 -56.302987762077706 -6.7588249530157078 9.1799523739217026 #
point $-1 -47.743916449069104 -6.7588249530157078 9.1799523739217026 #
straight-curve $-1 -56.302987762077706 -6.0094009620872484 0.62088086229895723 0 1 0 I I #
coedge $-1 $427 $529 $516 $530 forward $361 $-1 #
coedge $-1 $511 $430 $427 $484 forward $466 $-1 #
edge $-1 $432 -9.1799523739217026 $531 5.1044872052019841 $427 $532 forward 7 unknown #
face $-1 $533 $534 $15 $-1 $535 reversed single #
plane-surface $-1 -56.302987762077706 0 0 1 0 0 0 0 -1 forward_v I I I I #
coedge $-1 $519 $536 $429 $488 reversed $520 $-1 #
edge $-1 $490 -27.448716025431391 $537 27.448716025431391 $487 $538 forward 7 unknown #
coedge $-1 $430 $511 $519 $539 reversed $466 $-1 #
vertex $-1 $488 $540 #
straight-curve $-1 0 -27.448716025431391 9.1799523739217026 1 0 0 I I #
point $-1 -56.302987762077706 -27.448716025431391 9.1799523739217026 #
point $-1 -56.302987762077706 27.448716025431391 9.1799523739217026 #
straight-curve $-1 -56.302987762077706 27.448716025431391 0 0 0 -1 I I #
coedge $-1 $541 $441 $455 $503 forward $382 $-1 #
coedge $-1 $441 $541 $444 $499 forward $382 $-1 #
vertex $-1 $503 $542 #
straight-curve $-1 0 -17.278778895333286 -9.1799523739217026 -1 0 0 I I #
edge $-1 $507 -27.448716025431391 $445 17.278778895333286 $444 $543 forward 7 unknown #
point $-1 56.302987762077706 -17.278778895333286 -9.1799523739217026 #
point $-1 -56.302987762077706 -17.278778895333286 -5.1044872052019841 #
coedge $-1 $453 $452 $541 $544 reversed $406 $-1 #
edge $-1 $497 -17.278778895333286 $504 27.448716025431391 $455 $545 forward 7 unknown #
vertex $-1 $544 $546 #
straight-curve $-1 -56.302987762077706 27.448716025431391 0 0 0 -1 I I #
straight-curve $-1 -56.302987762077706 -17.278778895333286 -3.5711098947809217 0 0 1 I I #
vertex $-1 $499 $547 #
straight-curve $-1 56.302987762077706 27.448716025431391 0 0 0 -1 I I #
loop $-1 $-1 $548 $465 #
plane-surface $-1 0 0 -9.1799523739217026 0 0 1 1 0 0 forward_v I I I I #
coedge $-1 $489 $483 $469 $517 forward $466 $-1 #
coedge $-1 $549 $468 $470 $518 forward $414 $-1 #
coedge $-1 $468 $549 $548 $550 reversed $414 $-1 #
coedge $-1 $551 $471 $468 $515 forward $520 $-1 #
edge $-1 $522 1.5333773104210624 $552 5.6088424791407814 $514 $553 forward 7 unknown #
coedge $-1 $470 $469 $482 $530 reversed $348 $-1 #
edge $-1 $531 -56.302987762077706 $521 56.302987762077706 $511 $554 forward 7 unknown #
edge $-1 $522 -56.302987762077706 $555 56.302987762077706 $512 $556 forward 7 unknown #
coedge $-1 $471 $487 $489 $539 forward $520 $-1 #
loop $-1 $-1 $514 $533 #
vertex $-1 $517 $557 #
vertex $-1 $472 $558 #
straight-curve $-1 56.302987762077706 -11.181873730191169 -5.1044872052019841 0 1 0 I I #
coedge $-1 $559 $560 $473 $525 reversed $534 $-1 #
edge $-1 $537 -56.302987762077706 $527 56.302987762077706 $524 $561 forward 7 unknown #
coedge $-1 $562 $474 $560 $563 forward $361 $-1 #
vertex $-1 $525 $564 #
point $-1 -56.302987762077706 -6.7588249530157078 0.62088086229896078 #
coedge $-1 $482 $562 $549 $565 forward $361 $-1 #
edge $-1 $555 6.0969051651421164 $531 16.266842295240224 $482 $566 forward 7 unknown #
vertex $-1 $517 $567 #
straight-curve $-1 -56.302987762077706 -27.448716025431391 0 0 0 -1 I I #
face $-1 $-1 $520 $15 $-1 $568 reversed single #
loop $-1 $-1 $559 $485 #
plane-surface $-1 0 27.448716025431391 0 0 -1 0 0 0 -1 forward_v I I I I #
coedge $-1 $487 $551 $559 $569 reversed $520 $-1 #
vertex $-1 $488 $570 #
straight-curve $-1 56.302987762077706 0 9.1799523739217026 0 1 0 I I #
edge $-1 $490 -9.1799523739217026 $521 5.1044872052019841 $519 $571 forward 7 unknown #
point $-1 56.302987762077706 -27.448716025431391 9.1799523739217026 #
coedge $-1 $496 $495 $502 $544 forward $382 $-1 #
point $-1 -56.302987762077706 -17.278778895333286 -9.1799523739217026 #
straight-curve $-1 56.302987762077706 0 -9.1799523739217026 0 -1 0 I I #
edge $-1 $504 -56.302987762077706 $507 56.302987762077706 $502 $572 forward 7 unknown #
straight-curve $-1 -56.302987762077706 0 -9.1799523739217026 0 1 0 I I #
point $-1 -56.302987762077706 27.448716025431391 -9.1799523739217026 #
point $-1 56.302987762077706 27.448716025431391 -9.1799523739217026 #
coedge $-1 $573 $574 $513 $550 forward $509 $-1 #
coedge $-1 $513 $512 $529 $565 reversed $414 $-1 #
edge $-1 $552 -56.302987762077706 $575 56.302987762077706 $548 $576 forward 7 unknown #
coedge $-1 $536 $514 $574 $577 reversed $520 $-1 #
vertex $-1 $550 $578 #
straight-curve $-1 56.302987762077706 -17.278778895333286 -3.5711098947809217 0 0 -1 I I #
straight-curve $-1 0 -27.448716025431391 -5.1044872052019841 1 0 0 I I #
vertex $-1 $530 $579 #
straight-curve $-1 0 -17.278778895333286 -5.1044872052019841 -1 0 0 I I #
point $-1 56.302987762077706 -27.448716025431391 -5.1044872052019841 #
point $-1 56.302987762077706 -17.278778895333286 -5.1044872052019841 #
coedge $-1 $580 $524 $536 $569 forward $534 $-1 #
coedge $-1 $524 $580 $526 $563 reversed $534 $-1 #
straight-curve $-1 0 27.448716025431391 9.1799523739217026 -1 0 0 I I #
coedge $-1 $529 $526 $573 $581 reversed $361 $-1 #
edge $-1 $527 -9.1799523739217026 $582 9.1799523739217026 $560 $583 forward 7 unknown #
point $-1 -56.302987762077706 27.448716025431391 9.1799523739217026 #
edge $-1 $575 -5.6088424791407814 $555 -1.5333773104210624 $529 $584 forward 7 unknown #
straight-curve $-1 -56.302987762077706 -11.181873730191169 -5.1044872052019841 0 -1 0 I I #
point $-1 -56.302987762077706 -27.448716025431391 -5.1044872052019841 #
plane-surface $-1 56.302987762077706 0 0 -1 0 0 0 0 1 forward_v I I I I #
edge $-1 $537 -9.1799523739217026 $585 9.1799523739217026 $536 $586 forward 7 unknown #
point $-1 56.302987762077706 27.448716025431391 9.1799523739217026 #
straight-curve $-1 56.302987762077706 -27.448716025431391 0 0 0 -1 I I #
straight-curve $-1 0 27.448716025431391 -9.1799523739217026 1 0 0 I I #
coedge $-1 $587 $548 $562 $581 forward $509 $-1 #
coedge $-1 $548 $587 $551 $577 forward $509 $-1 #
vertex $-1 $581 $588 #
straight-curve $-1 0 -17.278778895333286 -9.1799523739217026 -1 0 0 I I #
edge $-1 $585 -27.448716025431391 $552 17.278778895333286 $551 $589 forward 7 unknown #
point $-1 56.302987762077706 -17.278778895333286 -9.1799523739217026 #
point $-1 -56.302987762077706 -17.278778895333286 -5.1044872052019841 #
coedge $-1 $560 $559 $587 $590 reversed $534 $-1 #
edge $-1 $575 -17.278778895333286 $582 27.448716025431391 $562 $591 forward 7 unknown #
vertex $-1 $590 $592 #
straight-curve $-1 -56.302987762077706 27.448716025431391 0 0 0 -1 I I #
straight-curve $-1 -56.302987762077706 -17.278778895333286 -3.5711098947809217 0 0 1 I I #
vertex $-1 $577 $593 #
straight-curve $-1 56.302987762077706 27.448716025431391 0 0 0 -1 I I #
coedge $-1 $574 $573 $580 $590 forward $509 $-1 #
point $-1 -56.302987762077706 -17.278778895333286 -9.1799523739217026 #
straight-curve $-1 56.302987762077706 0 -9.1799523739217026 0 -1 0 I I #
edge $-1 $582 -56.302987762077706 $585 56.302987762077706 $580 $594 forward 7 unknown #
straight-curve $-1 -56.302987762077706 0 -9.1799523739217026 0 1 0 I I #
point $-1 -56.302987762077706 27.448716025431391 -9.1799523739217026 #
point $-1 56.302987762077706 27.448716025431391 -9.1799523739217026 #
straight-curve $-1 0 27.448716025431391 -9.1799523739217026 1 0 0 I I #
End-of-ACIS-data 