500 0 5 0           
7 Unknown 11 ACIS 5.0 NT 24 Thu Mar 25 20:35:57 1999 
-1 9.9999999999999995e-007 1e-010 
body $-1 $5 $-1 $6 #
body $-1 $7 $-1 $8 #
body $-1 $9 $-1 $10 #
body $-1 $11 $-1 $12 #
body $-1 $13 $-1 $14 #
lump $-1 $-1 $15 $0 #
transform $-1 1 0 0 0 1 0 0 0 1 63.859370708334609 41.055570826711254 10.75060300934928 1 rotate no_reflect no_shear #
lump $-1 $-1 $16 $1 #
transform $-1 1 0 0 0 1 0 0 0 1 63.859370708334609 41.055570826711254 10.75060300934928 1 rotate no_reflect no_shear #
lump $-1 $-1 $17 $2 #
transform $-1 1 0 0 0 1 0 0 0 1 63.859370708334609 41.055570826711254 10.75060300934928 1 rotate no_reflect no_shear #
lump $-1 $-1 $18 $3 #
transform $-1 1 0 0 0 1 0 0 0 1 63.859370708334609 41.055570826711254 10.75060300934928 1 rotate no_reflect no_shear #
lump $-1 $-1 $19 $4 #
transform $-1 1 0 0 0 1 0 0 0 1 63.859370708334609 41.055570826711254 10.75060300934928 1 rotate no_reflect no_shear #
shell $-1 $-1 $-1 $20 $-1 $5 #
shell $-1 $-1 $-1 $21 $-1 $7 #
shell $-1 $-1 $-1 $22 $-1 $9 #
shell $-1 $-1 $-1 $23 $-1 $11 #
shell $-1 $-1 $-1 $24 $-1 $13 #
face $-1 $25 $26 $15 $-1 $27 forward single #
face $-1 $28 $29 $16 $-1 $30 forward single #
face $-1 $31 $32 $17 $-1 $33 reversed single #
face $-1 $34 $35 $18 $-1 $36 forward single #
face $-1 $37 $38 $19 $-1 $39 reversed single #
face $-1 $40 $41 $15 $-1 $42 reversed single #
loop $-1 $-1 $43 $20 #
plane-surface $-1 0 0 10.75060300934928 0 0 1 1 0 0 forward_v I I I I #
face $-1 $44 $45 $16 $-1 $46 reversed single #
loop $-1 $-1 $47 $21 #
plane-surface $-1 0 -45.770750463201111 5.3676545050745696 0 0 1 1 0 0 forward_v I I I I #
face $-1 $48 $49 $17 $-1 $50 forward single #
loop $-1 $-1 $51 $22 #
plane-surface $-1 0 35.115527189587418 -7.7506030093492804 0 0 1 1 0 0 forward_v I I I I #
face $-1 $52 $53 $18 $-1 $54 forward single #
loop $-1 $-1 $55 $23 #
plane-surface $-1 -173.33570053819301 29.175483552463582 68.532828920221405 0 -1 0 0.85716730853699208 0 -0.51503806187062418 forward_v I I I I #
face $-1 $56 $57 $19 $-1 $58 reversed single #
loop $-1 $59 $60 $24 #
cone-surface $-1 -60.606273059735678 21.843755089731154 6.240785618288438 0.85716730853699208 0 -0.51503806187062418 0.25751903093531209 0 0.42858365426849604 1 I I 0 1 0.5 forward I I I I #
face $-1 $61 $62 $15 $-1 $63 reversed single #
loop $-1 $-1 $64 $25 #
plane-surface $-1 0 0 -10.75060300934928 0 0 1 1 0 0 forward_v I I I I #
coedge $-1 $65 $66 $67 $68 forward $26 $-1 #
face $-1 $69 $70 $16 $-1 $71 reversed single #
loop $-1 $-1 $72 $28 #
plane-surface $-1 0 -45.770750463201111 -0.24318451906818783 0 0 1 1 0 0 forward_v I I I I #
coedge $-1 $73 $74 $75 $76 forward $29 $-1 #
face $-1 $77 $78 $17 $-1 $79 reversed single #
loop $-1 $-1 $80 $31 #
plane-surface $-1 0 29.175483552463582 -9.2506030093492804 0 1 0 0 0 1 forward_v I I I I #
coedge $-1 $81 $82 $83 $84 reversed $32 $-1 #
face $-1 $85 $86 $18 $-1 $87 forward single #
loop $-1 $-1 $88 $34 #
plane-surface $-1 -63.859370708334595 21.843755089731154 2.7528158764246768 -0.85716730853699208 0 0.51503806187062418 0.51503806187062418 0 0.85716730853699208 forward_v I I I I #
coedge $-1 $89 $90 $91 $92 reversed $35 $-1 #
face $-1 $93 $94 $19 $-1 $95 forward single #
loop $-1 $96 $97 $37 #
cone-surface $-1 -59.541661164977846 21.843755089731154 5.6011022782222497 0.85716730853699208 0 -0.51503806187062418 0.12875951546765604 0 0.21429182713424802 1 I I -0.70710678118654746 0.70710678118654746 0.25 forward I I I I #
loop $-1 $-1 $98 $24 #
coedge $-1 $60 $60 $99 $100 reversed $38 $-1 #
face $-1 $101 $102 $15 $-1 $103 reversed single #
loop $-1 $-1 $104 $40 #
plane-surface $-1 0 -41.055570826711254 0 0 1 0 0 0 1 forward_v I I I I #
coedge $-1 $105 $106 $107 $108 forward $41 $-1 #
coedge $-1 $109 $43 $110 $111 forward $26 $-1 #
coedge $-1 $43 $109 $112 $113 forward $26 $-1 #
coedge $-1 $114 $115 $43 $68 reversed $116 $-1 #
edge $-1 $117 -41.055570826711254 $118 41.055570826711254 $67 $119 forward 7 unknown #
face $-1 $120 $121 $16 $-1 $122 reversed single #
loop $-1 $-1 $123 $44 #
plane-surface $-1 0 -50.485930099690968 2.5622349930031909 0 1 0 0 0 1 forward_v I I I I #
coedge $-1 $124 $125 $126 $127 forward $45 $-1 #
coedge $-1 $128 $47 $129 $130 reversed $29 $-1 #
coedge $-1 $47 $128 $131 $132 forward $29 $-1 #
coedge $-1 $133 $134 $47 $76 reversed $135 $-1 #
edge $-1 $136 -4.7151796364898573 $137 4.7151796364898573 $75 $138 forward 7 unknown #
face $-1 $139 $140 $17 $-1 $141 reversed single #
loop $-1 $-1 $142 $48 #
plane-surface $-1 0 41.055570826711254 0 0 -1 0 0 0 -1 forward_v I I I I #
coedge $-1 $143 $144 $145 $146 reversed $49 $-1 #
coedge $-1 $147 $51 $143 $148 reversed $32 $-1 #
coedge $-1 $51 $147 $142 $149 reversed $32 $-1 #
coedge $-1 $150 $151 $51 $84 forward $152 $-1 #
edge $-1 $153 11.617719957669873 $154 23.497807231917545 $83 $155 forward 7 unknown #
face $-1 $156 $157 $18 $-1 $158 reversed single #
loop $-1 $-1 $159 $52 #
plane-surface $-1 -173.33570053819301 14.512026626998725 68.532828920221405 0 1 0 -0.85716730853699208 0 0.51503806187062418 forward_v I I I I #
coedge $-1 $160 $161 $162 $163 reversed $53 $-1 #
coedge $-1 $90 $55 $161 $164 forward $35 $-1 #
coedge $-1 $55 $89 $165 $166 reversed $35 $-1 #
coedge $-1 $167 $162 $55 $92 forward $157 $-1 #
edge $-1 $168 -31.513598583686051 $169 -23.515811450761422 $91 $170 forward 7 unknown #
face $-1 $171 $172 $19 $-1 $173 forward single #
loop $-1 $-1 $174 $56 #
plane-surface $-1 -173.33570053819301 29.175483552463582 68.532828920221405 0 -1 0 0.85716730853699208 0 -0.51503806187062418 forward_v I I I I #
loop $-1 $-1 $175 $37 #
coedge $-1 $97 $97 $98 $176 forward $57 $-1 #
coedge $-1 $98 $98 $97 $176 reversed $59 $-1 #
coedge $-1 $99 $99 $60 $100 forward $172 $-1 #
edge $-1 $177 0 $177 6.2831853071796004 $99 $178 forward 7 unknown #
face $-1 $179 $180 $15 $-1 $181 reversed single #
loop $-1 $-1 $182 $61 #
plane-surface $-1 -63.859370708334609 0 0 1 0 0 0 0 -1 forward_v I I I I #
coedge $-1 $183 $112 $184 $185 forward $62 $-1 #
coedge $-1 $186 $64 $183 $187 forward $41 $-1 #
coedge $-1 $64 $186 $188 $189 forward $41 $-1 #
coedge $-1 $115 $114 $64 $108 reversed $116 $-1 #
edge $-1 $190 -41.055570826711254 $191 41.055570826711254 $107 $192 forward 7 unknown #
coedge $-1 $66 $65 $193 $194 forward $26 $-1 #
coedge $-1 $195 $196 $65 $111 reversed $180 $-1 #
edge $-1 $118 -63.859370708334609 $197 63.859370708334609 $110 $198 forward 7 unknown #
coedge $-1 $104 $199 $66 $113 reversed $62 $-1 #
edge $-1 $200 -63.859370708334609 $117 63.859370708334609 $112 $201 forward 7 unknown #
coedge $-1 $107 $67 $199 $202 forward $116 $-1 #
coedge $-1 $67 $107 $195 $203 reversed $116 $-1 #
loop $-1 $-1 $114 $179 #
vertex $-1 $68 $204 #
vertex $-1 $68 $205 #
straight-curve $-1 63.859370708334609 0 10.75060300934928 0 1 0 I I #
face $-1 $206 $207 $16 $-1 $122 reversed single #
loop $-1 $-1 $208 $69 #
plane-surface $-1 0 -41.055570826711254 0 0 1 0 0 0 1 forward_v I I I I #
coedge $-1 $209 $131 $210 $211 forward $70 $-1 #
coedge $-1 $212 $72 $209 $213 forward $45 $-1 #
coedge $-1 $72 $212 $208 $214 reversed $45 $-1 #
coedge $-1 $215 $133 $72 $127 reversed $135 $-1 #
edge $-1 $216 -4.7151796364898573 $217 4.7151796364898573 $126 $218 forward 7 unknown #
coedge $-1 $74 $73 $219 $220 forward $29 $-1 #
coedge $-1 $221 $222 $73 $130 forward $207 $-1 #
edge $-1 $223 -63.859370708334609 $137 63.859370708334609 $129 $224 forward 7 unknown #
coedge $-1 $123 $225 $74 $132 reversed $70 $-1 #
edge $-1 $226 -63.859370708334609 $136 63.859370708334609 $131 $227 forward 7 unknown #
coedge $-1 $126 $75 $225 $228 forward $135 $-1 #
coedge $-1 $75 $229 $221 $230 forward $135 $-1 #
loop $-1 $-1 $134 $231 #
vertex $-1 $76 $232 #
vertex $-1 $76 $233 #
straight-curve $-1 63.859370708334609 -45.770750463201111 5.3676545050745696 0 1 0 I I #
face $-1 $234 $235 $17 $-1 $236 forward single #
loop $-1 $-1 $237 $77 #
plane-surface $-1 -63.859370708334609 0 0 1 0 0 0 0 -1 forward_v I I I I #
coedge $-1 $238 $239 $82 $149 forward $78 $-1 #
coedge $-1 $240 $80 $81 $148 forward $49 $-1 #
coedge $-1 $80 $240 $241 $242 reversed $49 $-1 #
coedge $-1 $243 $237 $80 $146 forward $140 $-1 #
edge $-1 $244 3.1253015046746402 $245 6.1253015046746402 $145 $246 forward 7 unknown #
coedge $-1 $82 $81 $237 $247 reversed $32 $-1 #
edge $-1 $244 -63.859370708334609 $153 63.859370708334609 $143 $248 forward 7 unknown #
edge $-1 $154 -63.859370708334609 $249 63.859370708334609 $142 $250 forward 7 unknown #
coedge $-1 $251 $83 $239 $252 reversed $152 $-1 #
coedge $-1 $83 $253 $240 $254 forward $152 $-1 #
loop $-1 $-1 $83 $255 #
vertex $-1 $84 $256 #
vertex $-1 $149 $257 #
straight-curve $-1 63.859370708334609 17.557763594793709 -7.7506030093492804 0 1 0 I I #
face $-1 $258 $259 $18 $-1 $260 reversed single #
loop $-1 $-1 $261 $85 #
plane-surface $-1 -63.859370708334609 0 0 1 0 0 0 0 -1 forward_v I I I I #
coedge $-1 $262 $263 $261 $264 reversed $86 $-1 #
coedge $-1 $265 $88 $263 $266 reversed $53 $-1 #
coedge $-1 $88 $265 $89 $164 reversed $53 $-1 #
coedge $-1 $91 $261 $88 $163 forward $157 $-1 #
edge $-1 $267 3.5901490821331485 $168 18.253606007598005 $162 $268 forward 7 unknown #
edge $-1 $168 -2.7494044966190042e-014 $269 9.3304854878042196 $89 $270 forward 7 unknown #
coedge $-1 $271 $272 $90 $166 forward $273 $-1 #
edge $-1 $169 22.808479560761896 $269 27.614034722712582 $165 $274 forward 7 unknown #
coedge $-1 $275 $91 $272 $276 reversed $157 $-1 #
vertex $-1 $163 $277 #
vertex $-1 $166 $278 #
straight-curve $-1 -63.859370708334609 29.175483552463582 34.266414460110703 0 0 1 I I #
face $-1 $279 $280 $19 $-1 $281 forward single #
loop $-1 $282 $99 $93 #
plane-surface $-1 -63.859370708334595 21.843755089731154 2.7528158764246768 -0.85716730853699208 0 0.51503806187062418 0.51503806187062418 0 0.85716730853699208 forward_v I I I I #
coedge $-1 $283 $284 $285 $286 reversed $94 $-1 #
coedge $-1 $175 $175 $-1 $287 forward $96 $-1 #
edge $-1 $288 0 $288 6.2831853071796004 $97 $289 forward 7 unknown #
vertex $-1 $100 $290 #
ellipse-curve $-1 -61.456593127359262 21.843755089731154 6.7517094428869706 0.85716730853699208 0 -0.51503806187062418 0.25751903093531209 0 0.42858365426849604 1 I I #
face $-1 $-1 $116 $15 $-1 $291 reversed single #
loop $-1 $-1 $195 $101 #
plane-surface $-1 0 41.055570826711254 0 0 -1 0 0 0 -1 forward_v I I I I #
coedge $-1 $292 $193 $196 $293 forward $102 $-1 #
coedge $-1 $199 $104 $105 $187 reversed $62 $-1 #
coedge $-1 $193 $292 $104 $185 reversed $102 $-1 #
edge $-1 $200 -10.75060300934928 $294 10.75060300934928 $184 $295 forward 7 unknown #
coedge $-1 $106 $105 $292 $296 forward $41 $-1 #
edge $-1 $191 -63.859370708334609 $294 63.859370708334609 $183 $297 forward 7 unknown #
coedge $-1 $196 $195 $106 $189 reversed $180 $-1 #
edge $-1 $298 -63.859370708334609 $190 63.859370708334609 $188 $299 forward 7 unknown #
vertex $-1 $108 $300 #
vertex $-1 $202 $301 #
straight-curve $-1 63.859370708334609 0 -10.75060300934928 0 -1 0 I I #
coedge $-1 $182 $184 $109 $194 reversed $102 $-1 #
edge $-1 $197 -41.055570826711254 $200 41.055570826711254 $193 $302 forward 7 unknown #
coedge $-1 $188 $110 $115 $203 forward $180 $-1 #
coedge $-1 $110 $188 $182 $293 reversed $180 $-1 #
vertex $-1 $111 $303 #
straight-curve $-1 0 41.055570826711254 10.75060300934928 -1 0 0 I I #
coedge $-1 $112 $183 $114 $202 reversed $62 $-1 #
vertex $-1 $194 $304 #
straight-curve $-1 0 -41.055570826711254 10.75060300934928 1 0 0 I I #
edge $-1 $117 -10.75060300934928 $191 10.75060300934928 $114 $305 forward 7 unknown #
edge $-1 $118 -10.75060300934928 $190 10.75060300934928 $115 $306 forward 7 unknown #
point $-1 63.859370708334609 -41.055570826711254 10.75060300934928 #
point $-1 63.859370708334609 41.055570826711254 10.75060300934928 #
face $-1 $307 $308 $16 $-1 $309 forward single #
loop $-1 $-1 $129 $120 #
coedge $-1 $310 $311 $125 $214 forward $121 $-1 #
coedge $-1 $225 $123 $124 $213 reversed $70 $-1 #
coedge $-1 $219 $312 $123 $211 reversed $313 $-1 #
edge $-1 $226 -2.8054195120713787 $314 2.8054195120713787 $210 $315 forward 7 unknown #
coedge $-1 $125 $124 $312 $316 forward $45 $-1 #
edge $-1 $217 -63.859370708334609 $314 63.859370708334609 $209 $317 forward 7 unknown #
edge $-1 $216 -63.859370708334609 $318 63.859370708334609 $208 $319 forward 7 unknown #
coedge $-1 $320 $126 $311 $321 forward $135 $-1 #
vertex $-1 $321 $322 #
vertex $-1 $228 $323 #
straight-curve $-1 63.859370708334609 -45.770750463201111 -0.24318451906818783 0 -1 0 I I #
coedge $-1 $324 $210 $128 $220 reversed $313 $-1 #
edge $-1 $223 -4.7151796364898573 $226 4.7151796364898573 $219 $325 forward 7 unknown #
coedge $-1 $326 $129 $134 $230 reversed $207 $-1 #
coedge $-1 $129 $326 $324 $327 forward $207 $-1 #
vertex $-1 $327 $328 #
straight-curve $-1 0 -41.055570826711254 5.3676545050745696 1 0 0 I I #
coedge $-1 $131 $209 $133 $228 reversed $70 $-1 #
vertex $-1 $220 $329 #
straight-curve $-1 0 -50.485930099690968 5.3676545050745696 1 0 0 I I #
edge $-1 $136 -2.8054195120713787 $217 2.8054195120713787 $133 $330 forward 7 unknown #
coedge $-1 $134 $331 $332 $333 reversed $135 $-1 #
edge $-1 $334 -10.75060300934928 $137 -5.3676545050745696 $134 $335 forward 7 unknown #
face $-1 $-1 $135 $16 $-1 $336 reversed single #
point $-1 63.859370708334609 -50.485930099690968 5.3676545050745696 #
point $-1 63.859370708334609 -41.055570826711254 5.3676545050745696 #
face $-1 $337 $338 $17 $-1 $339 reversed single #
loop $-1 $-1 $340 $139 #
plane-surface $-1 0 -45.770750463201111 5.3676545050745696 0 0 1 1 0 0 forward_v I I I I #
coedge $-1 $145 $341 $147 $247 forward $140 $-1 #
coedge $-1 $342 $142 $341 $343 reversed $78 $-1 #
coedge $-1 $142 $342 $150 $252 forward $78 $-1 #
coedge $-1 $144 $143 $151 $254 reversed $49 $-1 #
coedge $-1 $344 $345 $144 $242 forward $346 $-1 #
edge $-1 $245 -63.859370708334609 $347 63.859370708334609 $241 $348 forward 7 unknown #
coedge $-1 $349 $145 $345 $350 reversed $140 $-1 #
vertex $-1 $247 $351 #
vertex $-1 $146 $352 #
straight-curve $-1 -63.859370708334609 29.175483552463582 -4.6253015046746402 0 0 -1 I I #
edge $-1 $249 -23.497807231917545 $244 -11.617719957669873 $237 $353 forward 7 unknown #
straight-curve $-1 0 29.175483552463582 -7.7506030093492804 1 0 0 I I #
vertex $-1 $247 $354 #
straight-curve $-1 0 41.055570826711254 -7.7506030093492804 -1 0 0 I I #
coedge $-1 $355 $150 $356 $357 reversed $152 $-1 #
edge $-1 $358 -10.75060300934928 $154 7.7506030093492804 $150 $359 forward 7 unknown #
coedge $-1 $151 $360 $344 $361 reversed $152 $-1 #
edge $-1 $347 -6.1253015046746402 $153 -3.1253015046746402 $151 $362 forward 7 unknown #
face $-1 $-1 $152 $17 $-1 $363 reversed single #
point $-1 63.859370708334609 29.175483552463582 -7.7506030093492804 #
point $-1 63.859370708334609 41.055570826711254 -7.7506030093492804 #
face $-1 $364 $365 $18 $-1 $366 forward single #
loop $-1 $-1 $367 $156 #
plane-surface $-1 0 35.115527189587418 -7.7506030093492804 0 0 1 1 0 0 forward_v I I I I #
coedge $-1 $162 $368 $159 $264 forward $157 $-1 #
coedge $-1 $263 $159 $369 $370 reversed $86 $-1 #
coedge $-1 $159 $262 $160 $266 forward $86 $-1 #
edge $-1 $371 23.515811450761422 $267 31.513598583686051 $261 $372 forward 7 unknown #
coedge $-1 $161 $160 $271 $373 reversed $53 $-1 #
edge $-1 $374 -9.3304854878042196 $267 2.7494044966190042e-014 $263 $375 forward 7 unknown #
vertex $-1 $163 $376 #
straight-curve $-1 -63.859370708334609 10.921877544865577 2.75281587642466 0 1 0 I I #
vertex $-1 $373 $377 #
straight-curve $-1 -63.859370708334595 29.175483552463582 2.7528158764246768 0.51503806187062418 0 0.85716730853699208 I I #
coedge $-1 $369 $165 $265 $373 forward $273 $-1 #
coedge $-1 $165 $378 $167 $276 forward $273 $-1 #
loop $-1 $-1 $369 $379 #
straight-curve $-1 -86.667850269096505 29.175483552463582 10.75060300934928 1 0 0 I I #
coedge $-1 $380 $167 $381 $382 forward $157 $-1 #
edge $-1 $383 -41.055570826711254 $169 -29.175483552463582 $167 $384 forward 7 unknown #
point $-1 -63.859370708334609 29.175483552463582 2.7528158764246533 #
point $-1 -63.859370708334609 29.175483552463582 10.75060300934928 #
face $-1 $385 $386 $19 $-1 $387 reversed single #
loop $-1 $-1 $388 $171 #
plane-surface $-1 -173.33570053819301 14.512026626998725 68.532828920221405 0 1 0 -0.85716730853699208 0 0.51503806187062418 forward_v I I I I #
loop $-1 $-1 $389 $93 #
coedge $-1 $284 $174 $390 $391 forward $94 $-1 #
coedge $-1 $174 $283 $392 $393 reversed $94 $-1 #
coedge $-1 $394 $395 $174 $286 forward $386 $-1 #
edge $-1 $396 -31.513598583686051 $397 -23.515811450761422 $285 $398 forward 7 unknown #
edge $-1 $399 1 $399 0 $175 $-1 forward 7 unknown #
vertex $-1 $176 $400 #
ellipse-curve $-1 -59.755952992112093 21.843755089731154 5.7298617936899054 -0.85716730853699208 0 0.51503806187062418 0.25751903093531209 0 0.42858365426849604 1 I I #
point $-1 -61.199074096423956 21.843755089731154 7.1802930971554666 #
plane-surface $-1 63.859370708334609 0 0 -1 0 0 0 0 1 forward_v I I I I #
coedge $-1 $184 $182 $186 $296 reversed $102 $-1 #
edge $-1 $197 -10.75060300934928 $298 10.75060300934928 $196 $401 forward 7 unknown #
vertex $-1 $296 $402 #
straight-curve $-1 -63.859370708334609 -41.055570826711254 0 0 0 -1 I I #
edge $-1 $294 -41.055570826711254 $298 41.055570826711254 $292 $403 forward 7 unknown #
straight-curve $-1 0 -41.055570826711254 -10.75060300934928 -1 0 0 I I #
vertex $-1 $189 $404 #
straight-curve $-1 0 41.055570826711254 -10.75060300934928 1 0 0 I I #
point $-1 63.859370708334609 41.055570826711254 -10.75060300934928 #
point $-1 63.859370708334609 -41.055570826711254 -10.75060300934928 #
straight-curve $-1 -63.859370708334609 0 10.75060300934928 0 -1 0 I I #
point $-1 -63.859370708334609 41.055570826711254 10.75060300934928 #
point $-1 -63.859370708334609 -41.055570826711254 10.75060300934928 #
straight-curve $-1 63.859370708334609 -41.055570826711254 0 0 0 -1 I I #
straight-curve $-1 63.859370708334609 41.055570826711254 0 0 0 -1 I I #
face $-1 $405 $406 $16 $-1 $407 reversed single #
loop $-1 $-1 $332 $206 #
plane-surface $-1 0 0 10.75060300934928 0 0 1 1 0 0 forward_v I I I I #
coedge $-1 $408 $208 $409 $410 forward $121 $-1 #
coedge $-1 $208 $408 $215 $321 reversed $121 $-1 #
coedge $-1 $210 $409 $212 $316 reversed $313 $-1 #
loop $-1 $-1 $411 $405 #
vertex $-1 $316 $412 #
straight-curve $-1 -63.859370708334609 -50.485930099690968 2.5622349930031909 0 0 -1 I I #
edge $-1 $314 -4.7151796364898573 $318 4.7151796364898573 $312 $413 forward 7 unknown #
straight-curve $-1 0 -50.485930099690968 -0.24318451906818783 -1 0 0 I I #
vertex $-1 $410 $414 #
straight-curve $-1 0 -41.055570826711254 -0.24318451906818783 -1 0 0 I I #
coedge $-1 $331 $215 $415 $416 reversed $135 $-1 #
edge $-1 $216 0.24318451906818783 $417 10.75060300934928 $215 $335 forward 7 unknown #
point $-1 63.859370708334609 -41.055570826711254 -0.24318451906818783 #
point $-1 63.859370708334609 -50.485930099690968 -0.24318451906818783 #
coedge $-1 $418 $219 $222 $327 reversed $313 $-1 #
straight-curve $-1 -63.859370708334609 -45.770750463201111 5.3676545050745696 0 -1 0 I I #
coedge $-1 $222 $221 $419 $420 reversed $207 $-1 #
edge $-1 $421 -10.75060300934928 $223 -5.3676545050745696 $324 $422 forward 7 unknown #
point $-1 -63.859370708334609 -41.055570826711254 5.3676545050745696 #
point $-1 -63.859370708334609 -50.485930099690968 5.3676545050745696 #
straight-curve $-1 63.859370708334609 -50.485930099690968 2.5622349930031909 0 0 -1 I I #
coedge $-1 $229 $320 $423 $424 reversed $135 $-1 #
coedge $-1 $425 $419 $229 $333 forward $308 $-1 #
edge $-1 $334 -41.055570826711254 $426 41.055570826711254 $229 $427 forward 7 unknown #
vertex $-1 $333 $428 #
straight-curve $-1 63.859370708334609 -41.055570826711254 0 0 0 -1 I I #
plane-surface $-1 63.859370708334609 0 0 -1 0 0 0 0 1 forward_v I I I I #
face $-1 $429 $430 $17 $-1 $431 reversed single #
loop $-1 $-1 $432 $234 #
plane-surface $-1 0 -45.770750463201111 -0.24318451906818783 0 0 1 1 0 0 forward_v I I I I #
coedge $-1 $433 $434 $435 $436 forward $235 $-1 #
coedge $-1 $237 $437 $238 $343 forward $140 $-1 #
coedge $-1 $239 $238 $438 $439 reversed $78 $-1 #
edge $-1 $440 -10.75060300934928 $249 7.7506030093492804 $238 $441 forward 7 unknown #
coedge $-1 $442 $241 $253 $361 forward $346 $-1 #
coedge $-1 $241 $442 $243 $350 forward $346 $-1 #
loop $-1 $-1 $241 $443 #
vertex $-1 $361 $444 #
straight-curve $-1 0 29.175483552463582 -10.75060300934928 1 0 0 I I #
coedge $-1 $445 $243 $446 $447 reversed $140 $-1 #
edge $-1 $448 -41.055570826711254 $245 29.175483552463582 $243 $449 forward 7 unknown #
point $-1 -63.859370708334609 29.175483552463582 -7.7506030093492804 #
point $-1 -63.859370708334609 29.175483552463582 -10.75060300934928 #
straight-curve $-1 -63.859370708334609 17.557763594793709 -7.7506030093492804 0 -1 0 I I #
point $-1 -63.859370708334609 41.055570826711254 -7.7506030093492804 #
coedge $-1 $435 $251 $450 $451 forward $152 $-1 #
coedge $-1 $438 $452 $251 $357 forward $453 $-1 #
edge $-1 $454 -41.055570826711254 $358 41.055570826711254 $251 $455 forward 7 unknown #
vertex $-1 $357 $456 #
straight-curve $-1 63.859370708334609 41.055570826711254 0 0 0 -1 I I #
coedge $-1 $253 $457 $458 $459 forward $152 $-1 #
edge $-1 $347 -29.175483552463582 $460 41.055570826711254 $253 $461 forward 7 unknown #
straight-curve $-1 63.859370708334609 29.175483552463582 -4.6253015046746402 0 0 1 I I #
plane-surface $-1 63.859370708334609 0 0 -1 0 0 0 0 1 forward_v I I I I #
face $-1 $462 $463 $18 $-1 $464 reversed single #
loop $-1 $-1 $465 $258 #
plane-surface $-1 0 29.175483552463582 -9.2506030093492804 0 1 0 0 0 1 forward_v I I I I #
coedge $-1 $466 $467 $468 $469 reversed $259 $-1 #
coedge $-1 $261 $470 $471 $472 reversed $157 $-1 #
coedge $-1 $471 $271 $262 $370 forward $273 $-1 #
edge $-1 $374 -27.614034722712582 $371 -22.808479560761896 $369 $473 forward 7 unknown #
vertex $-1 $472 $474 #
straight-curve $-1 -63.859370708334609 14.512026626998725 34.266414460110703 0 0 -1 I I #
edge $-1 $269 -18.253606007598005 $374 -3.5901490821331485 $271 $475 forward 7 unknown #
vertex $-1 $373 $476 #
straight-curve $-1 -63.859370708334595 14.512026626998725 2.7528158764246768 -0.51503806187062418 0 -0.85716730853699208 I I #
point $-1 -63.859370708334609 14.512026626998725 2.7528158764246533 #
point $-1 -59.053815546383923 29.175483552463582 10.75060300934928 #
coedge $-1 $272 $477 $478 $479 forward $273 $-1 #
face $-1 $480 $273 $18 $-1 $481 forward single #
coedge $-1 $482 $275 $483 $484 forward $157 $-1 #
coedge $-1 $478 $485 $275 $382 reversed $463 $-1 #
edge $-1 $383 -10.75060300934928 $486 7.7506030093492804 $381 $487 forward 7 unknown #
vertex $-1 $479 $488 #
straight-curve $-1 -63.859370708334609 0 10.75060300934928 0 -1 0 I I #
face $-1 $489 $490 $19 $-1 $491 reversed single #
loop $-1 $-1 $492 $279 #
plane-surface $-1 -63.859370708334609 0 0 1 0 0 0 0 -1 forward_v I I I I #
coedge $-1 $493 $494 $492 $495 reversed $280 $-1 #
coedge $-1 $496 $390 $395 $497 reversed $282 $-1 #
coedge $-1 $389 $498 $283 $391 reversed $282 $-1 #
edge $-1 $396 -2.7494044966190042e-014 $499 9.3304854878042196 $283 $500 forward 7 unknown #
coedge $-1 $501 $502 $284 $393 forward $503 $-1 #
edge $-1 $397 22.808479560761896 $499 27.614034722712582 $392 $504 forward 7 unknown #
coedge $-1 $505 $285 $502 $506 reversed $386 $-1 #
coedge $-1 $285 $492 $389 $497 forward $386 $-1 #
vertex $-1 $497 $507 #
vertex $-1 $393 $508 #
straight-curve $-1 -63.859370708334609 29.175483552463582 34.266414460110703 0 0 1 I I #
vertex $-1 $287 $509 #
point $-1 -59.498433961176779 21.843755089731154 6.1584454479584014 #
straight-curve $-1 -63.859370708334609 41.055570826711254 0 0 0 -1 I I #
point $-1 -63.859370708334609 -41.055570826711254 -10.75060300934928 #
straight-curve $-1 -63.859370708334609 0 -10.75060300934928 0 1 0 I I #
point $-1 -63.859370708334609 41.055570826711254 -10.75060300934928 #
face $-1 $510 $313 $16 $-1 $511 reversed single #
loop $-1 $-1 $415 $307 #
plane-surface $-1 0 0 -10.75060300934928 0 0 1 1 0 0 forward_v I I I I #
coedge $-1 $311 $310 $512 $513 reversed $121 $-1 #
coedge $-1 $312 $514 $310 $410 reversed $313 $-1 #
edge $-1 $318 0.24318451906818783 $515 10.75060300934928 $409 $422 forward 7 unknown #
coedge $-1 $514 $418 $516 $517 forward $313 $-1 #
point $-1 -63.859370708334609 -50.485930099690968 -0.24318451906818783 #
straight-curve $-1 -63.859370708334609 -45.770750463201111 -0.24318451906818783 0 1 0 I I #
point $-1 -63.859370708334609 -41.055570826711254 -0.24318451906818783 #
coedge $-1 $512 $518 $320 $416 forward $406 $-1 #
edge $-1 $519 -41.055570826711254 $417 41.055570826711254 $320 $520 forward 7 unknown #
vertex $-1 $321 $521 #
coedge $-1 $411 $324 $522 $523 reversed $313 $-1 #
coedge $-1 $332 $522 $326 $420 forward $308 $-1 #
edge $-1 $421 -63.859370708334609 $334 63.859370708334609 $326 $524 forward 7 unknown #
vertex $-1 $523 $525 #
straight-curve $-1 -63.859370708334609 -41.055570826711254 0 0 0 -1 I I #
coedge $-1 $526 $527 $331 $424 forward $528 $-1 #
edge $-1 $426 -10.75060300934928 $519 10.75060300934928 $331 $529 forward 7 unknown #
coedge $-1 $522 $332 $527 $530 forward $308 $-1 #
vertex $-1 $333 $531 #
straight-curve $-1 63.859370708334609 0 10.75060300934928 0 1 0 I I #
point $-1 63.859370708334609 -41.055570826711254 10.75060300934928 #
face $-1 $532 $533 $17 $-1 $534 reversed single #
loop $-1 $-1 $535 $337 #
plane-surface $-1 0 -50.485930099690968 2.5622349930031909 0 1 0 0 0 1 forward_v I I I I #
coedge $-1 $536 $537 $457 $538 forward $338 $-1 #
coedge $-1 $539 $340 $540 $541 reversed $235 $-1 #
coedge $-1 $340 $539 $542 $543 forward $235 $-1 #
coedge $-1 $544 $355 $340 $436 reversed $152 $-1 #
edge $-1 $545 -4.7151796364898573 $546 4.7151796364898573 $435 $547 forward 7 unknown #
coedge $-1 $341 $548 $549 $550 reversed $140 $-1 #
coedge $-1 $549 $356 $342 $439 forward $453 $-1 #
edge $-1 $358 -63.859370708334609 $440 63.859370708334609 $342 $551 forward 7 unknown #
vertex $-1 $439 $552 #
straight-curve $-1 -63.859370708334609 41.055570826711254 0 0 0 -1 I I #
coedge $-1 $345 $344 $553 $554 forward $346 $-1 #
face $-1 $255 $346 $17 $-1 $555 reversed single #
point $-1 63.859370708334609 29.175483552463582 -10.75060300934928 #
coedge $-1 $556 $349 $557 $558 reversed $140 $-1 #
coedge $-1 $553 $559 $349 $447 forward $533 $-1 #
edge $-1 $560 0.24318451906818783 $448 10.75060300934928 $349 $561 forward 7 unknown #
vertex $-1 $350 $562 #
straight-curve $-1 -63.859370708334609 0 -10.75060300934928 0 1 0 I I #
coedge $-1 $563 $540 $355 $451 reversed $564 $-1 #
edge $-1 $454 -10.75060300934928 $546 -5.3676545050745696 $355 $565 forward 7 unknown #
coedge $-1 $356 $549 $563 $566 forward $453 $-1 #
loop $-1 $-1 $356 $567 #
vertex $-1 $357 $568 #
straight-curve $-1 63.859370708334609 0 10.75060300934928 0 1 0 I I #
point $-1 63.859370708334609 41.055570826711254 10.75060300934928 #
coedge $-1 $360 $544 $432 $538 reversed $152 $-1 #
coedge $-1 $559 $553 $360 $459 reversed $533 $-1 #
edge $-1 $569 0.24318451906818783 $460 10.75060300934928 $360 $565 forward 7 unknown #
vertex $-1 $459 $570 #
straight-curve $-1 63.859370708334609 0 -10.75060300934928 0 -1 0 I I #
face $-1 $571 $572 $18 $-1 $573 forward single #
loop $-1 $-1 $485 $364 #
plane-surface $-1 0 41.055570826711254 0 0 -1 0 0 0 -1 forward_v I I I I #
coedge $-1 $574 $575 $482 $576 reversed $365 $-1 #
coedge $-1 $483 $367 $574 $577 reversed $259 $-1 #
coedge $-1 $367 $483 $485 $578 reversed $259 $-1 #
coedge $-1 $579 $580 $367 $469 forward $581 $-1 #
edge $-1 $582 11.617719957669873 $583 23.497807231917545 $468 $584 forward 7 unknown #
coedge $-1 $368 $585 $586 $587 reversed $157 $-1 #
coedge $-1 $588 $369 $368 $472 forward $273 $-1 #
edge $-1 $371 -14.512026626998725 $589 41.055570826711254 $368 $384 forward 7 unknown #
straight-curve $-1 -86.667850269096505 14.512026626998725 10.75060300934928 -1 0 0 I I #
point $-1 -63.859370708334609 14.512026626998725 10.75060300934928 #
straight-curve $-1 -59.053815546383923 10.921877544865577 10.75060300934928 0 -1 0 I I #
point $-1 -59.053815546383923 14.512026626998725 10.75060300934928 #
coedge $-1 $378 $588 $590 $591 forward $273 $-1 #
coedge $-1 $592 $381 $378 $479 reversed $463 $-1 #
edge $-1 $593 -63.859370708334609 $383 63.859370708334609 $478 $594 forward 7 unknown #
face $-1 $595 $596 $18 $-1 $597 reversed single #
plane-surface $-1 0 0 10.75060300934928 0 0 1 1 0 0 forward_v I I I I #
coedge $-1 $598 $380 $465 $576 forward $157 $-1 #
coedge $-1 $467 $466 $380 $484 reversed $259 $-1 #
edge $-1 $486 -23.497807231917545 $599 -11.617719957669873 $380 $600 forward 7 unknown #
coedge $-1 $381 $592 $467 $578 forward $463 $-1 #
vertex $-1 $484 $601 #
straight-curve $-1 -63.859370708334609 41.055570826711254 0 0 0 -1 I I #
point $-1 -63.859370708334609 41.055570826711254 10.75060300934928 #
face $-1 $602 $603 $19 $-1 $604 forward single #
loop $-1 $-1 $605 $385 #
plane-surface $-1 0 35.115527189587418 -7.7506030093492804 0 0 1 1 0 0 forward_v I I I I #
coedge $-1 $395 $606 $388 $495 forward $386 $-1 #
coedge $-1 $494 $388 $607 $608 reversed $280 $-1 #
coedge $-1 $388 $493 $496 $609 forward $280 $-1 #
edge $-1 $610 23.515811450761422 $611 31.513598583686051 $492 $612 forward 7 unknown #
coedge $-1 $498 $389 $494 $609 reversed $282 $-1 #
edge $-1 $611 3.5901490821331485 $396 18.253606007598005 $395 $613 forward 7 unknown #
coedge $-1 $390 $496 $501 $614 reversed $282 $-1 #
vertex $-1 $614 $615 #
straight-curve $-1 -63.859370708334595 29.175483552463582 2.7528158764246768 0.51503806187062418 0 0.85716730853699208 I I #
coedge $-1 $607 $392 $498 $614 forward $503 $-1 #
coedge $-1 $392 $616 $394 $506 forward $503 $-1 #
loop $-1 $-1 $607 $617 #
straight-curve $-1 -86.667850269096505 29.175483552463582 10.75060300934928 1 0 0 I I #
coedge $-1 $618 $394 $619 $620 forward $386 $-1 #
edge $-1 $621 -41.055570826711254 $397 -29.175483552463582 $394 $622 forward 7 unknown #
point $-1 -63.859370708334609 29.175483552463582 2.7528158764246533 #
point $-1 -63.859370708334609 29.175483552463582 10.75060300934928 #
point $-1 -59.327369337843599 21.843755089731154 5.472342762754594 #
face $-1 $231 $528 $16 $-1 $623 reversed single #
plane-surface $-1 -63.859370708334609 0 0 1 0 0 0 0 -1 forward_v I I I I #
coedge $-1 $624 $415 $408 $513 forward $406 $-1 #
edge $-1 $417 -63.859370708334609 $515 63.859370708334609 $408 $625 forward 7 unknown #
coedge $-1 $409 $411 $624 $626 reversed $313 $-1 #
vertex $-1 $626 $627 #
coedge $-1 $527 $526 $411 $517 reversed $528 $-1 #
edge $-1 $628 -10.75060300934928 $629 10.75060300934928 $516 $630 forward 7 unknown #
coedge $-1 $415 $624 $526 $631 forward $406 $-1 #
vertex $-1 $416 $632 #
straight-curve $-1 63.859370708334609 0 -10.75060300934928 0 -1 0 I I #
point $-1 63.859370708334609 -41.055570826711254 -10.75060300934928 #
coedge $-1 $419 $425 $418 $523 forward $308 $-1 #
edge $-1 $628 -41.055570826711254 $421 41.055570826711254 $418 $633 forward 7 unknown #
straight-curve $-1 0 -41.055570826711254 10.75060300934928 1 0 0 I I #
point $-1 -63.859370708334609 -41.055570826711254 10.75060300934928 #
coedge $-1 $516 $423 $518 $631 reversed $528 $-1 #
coedge $-1 $423 $516 $425 $530 reversed $528 $-1 #
loop $-1 $-1 $423 $510 #
straight-curve $-1 63.859370708334609 41.055570826711254 0 0 0 -1 I I #
edge $-1 $426 -63.859370708334609 $628 63.859370708334609 $527 $634 forward 7 unknown #
point $-1 63.859370708334609 41.055570826711254 10.75060300934928 #
face $-1 $567 $564 $17 $-1 $534 reversed single #
loop $-1 $-1 $559 $429 #
plane-surface $-1 0 -41.055570826711254 0 0 1 0 0 0 1 forward_v I I I I #
coedge $-1 $635 $542 $556 $636 forward $430 $-1 #
coedge $-1 $557 $432 $635 $637 forward $338 $-1 #
coedge $-1 $432 $557 $559 $638 reversed $338 $-1 #
edge $-1 $569 -4.7151796364898573 $639 4.7151796364898573 $457 $640 forward 7 unknown #
coedge $-1 $434 $433 $641 $642 forward $235 $-1 #
coedge $-1 $450 $643 $433 $541 forward $564 $-1 #
edge $-1 $644 -63.859370708334609 $546 63.859370708334609 $540 $645 forward 7 unknown #
coedge $-1 $535 $646 $434 $543 reversed $430 $-1 #
edge $-1 $647 -63.859370708334609 $545 63.859370708334609 $542 $648 forward 7 unknown #
coedge $-1 $457 $435 $646 $649 forward $152 $-1 #
vertex $-1 $436 $650 #
vertex $-1 $436 $651 #
straight-curve $-1 63.859370708334609 -45.770750463201111 5.3676545050745696 0 1 0 I I #
coedge $-1 $437 $641 $643 $652 reversed $140 $-1 #
coedge $-1 $452 $438 $437 $550 forward $453 $-1 #
edge $-1 $440 -41.055570826711254 $653 41.055570826711254 $437 $654 forward 7 unknown #
straight-curve $-1 0 41.055570826711254 10.75060300934928 -1 0 0 I I #
point $-1 -63.859370708334609 41.055570826711254 10.75060300934928 #
coedge $-1 $458 $446 $442 $554 reversed $533 $-1 #
edge $-1 $460 -63.859370708334609 $448 63.859370708334609 $553 $655 forward 7 unknown #
plane-surface $-1 0 0 -10.75060300934928 0 0 1 1 0 0 forward_v I I I I #
coedge $-1 $641 $445 $535 $636 reversed $140 $-1 #
coedge $-1 $537 $536 $445 $558 forward $338 $-1 #
edge $-1 $656 -4.7151796364898573 $560 4.7151796364898573 $445 $657 forward 7 unknown #
coedge $-1 $446 $458 $537 $638 forward $533 $-1 #
vertex $-1 $447 $658 #
straight-curve $-1 -63.859370708334609 -41.055570826711254 0 0 0 -1 I I #
point $-1 -63.859370708334609 -41.055570826711254 -10.75060300934928 #
coedge $-1 $643 $450 $452 $566 reversed $564 $-1 #
loop $-1 $-1 $540 $532 #
straight-curve $-1 63.859370708334609 -41.055570826711254 0 0 0 -1 I I #
edge $-1 $653 -63.859370708334609 $454 63.859370708334609 $563 $659 forward 7 unknown #
face $-1 $443 $453 $17 $-1 $660 forward single #
point $-1 63.859370708334609 -41.055570826711254 10.75060300934928 #
vertex $-1 $459 $661 #
point $-1 63.859370708334609 -41.055570826711254 -10.75060300934928 #
face $-1 $662 $663 $18 $-1 $664 reversed single #
loop $-1 $-1 $665 $462 #
plane-surface $-1 0 -45.770750463201111 5.3676545050745696 0 0 1 1 0 0 forward_v I I I I #
coedge $-1 $666 $465 $466 $577 forward $365 $-1 #
coedge $-1 $465 $666 $667 $668 reversed $365 $-1 #
edge $-1 $599 3.1253015046746402 $669 6.1253015046746402 $482 $670 forward 7 unknown #
edge $-1 $599 -63.859370708334609 $582 63.859370708334609 $574 $671 forward 7 unknown #
edge $-1 $583 -63.859370708334609 $486 63.859370708334609 $485 $672 forward 7 unknown #
coedge $-1 $590 $468 $592 $673 reversed $581 $-1 #
coedge $-1 $468 $674 $666 $675 forward $581 $-1 #
loop $-1 $-1 $468 $595 #
vertex $-1 $469 $676 #
vertex $-1 $578 $677 #
straight-curve $-1 63.859370708334609 17.557763594793709 -7.7506030093492804 0 1 0 I I #
coedge $-1 $470 $678 $679 $680 reversed $157 $-1 #
coedge $-1 $681 $682 $470 $587 forward $683 $-1 #
edge $-1 $589 -10.75060300934928 $684 -5.3676545050745696 $470 $685 forward 7 unknown #
coedge $-1 $477 $471 $682 $686 forward $273 $-1 #
vertex $-1 $472 $687 #
coedge $-1 $688 $579 $477 $591 reversed $581 $-1 #
edge $-1 $689 -41.055570826711254 $593 41.055570826711254 $590 $690 forward 7 unknown #
coedge $-1 $485 $478 $579 $673 forward $463 $-1 #
vertex $-1 $591 $691 #
straight-curve $-1 0 41.055570826711254 10.75060300934928 -1 0 0 I I #
face $-1 $-1 $581 $18 $-1 $692 reversed single #
loop $-1 $-1 $667 $480 #
plane-surface $-1 0 0 -10.75060300934928 0 0 1 1 0 0 forward_v I I I I #
coedge $-1 $693 $482 $694 $695 reversed $157 $-1 #
vertex $-1 $484 $696 #
straight-curve $-1 -63.859370708334609 17.557763594793709 -7.7506030093492804 0 -1 0 I I #
point $-1 -63.859370708334609 41.055570826711254 -7.7506030093492804 #
face $-1 $697 $698 $19 $-1 $699 reversed single #
loop $-1 $-1 $700 $489 #
plane-surface $-1 0 29.175483552463582 -9.2506030093492804 0 1 0 0 0 1 forward_v I I I I #
coedge $-1 $701 $702 $703 $704 reversed $490 $-1 #
coedge $-1 $492 $705 $706 $707 reversed $386 $-1 #
coedge $-1 $706 $501 $493 $608 forward $503 $-1 #
edge $-1 $708 -27.614034722712582 $610 -22.808479560761896 $607 $709 forward 7 unknown #
edge $-1 $708 -9.3304854878042196 $611 2.7494044966190042e-014 $494 $710 forward 7 unknown #
vertex $-1 $707 $711 #
vertex $-1 $497 $712 #
straight-curve $-1 -63.859370708334609 14.512026626998725 34.266414460110703 0 0 -1 I I #
straight-curve $-1 -63.859370708334609 10.921877544865577 2.75281587642466 0 1 0 I I #
edge $-1 $499 -18.253606007598005 $708 -3.5901490821331485 $501 $713 forward 7 unknown #
point $-1 -59.053815546383923 29.175483552463582 10.75060300934928 #
coedge $-1 $502 $714 $715 $716 forward $503 $-1 #
face $-1 $717 $503 $19 $-1 $718 forward single #
coedge $-1 $719 $505 $720 $721 forward $386 $-1 #
coedge $-1 $715 $722 $505 $620 reversed $698 $-1 #
edge $-1 $621 -10.75060300934928 $723 7.7506030093492804 $619 $724 forward 7 unknown #
vertex $-1 $716 $725 #
straight-curve $-1 -63.859370708334609 0 10.75060300934928 0 -1 0 I I #
plane-surface $-1 0 41.055570826711254 0 0 -1 0 0 0 -1 forward_v I I I I #
coedge $-1 $518 $512 $514 $626 forward $406 $-1 #
straight-curve $-1 0 -41.055570826711254 -10.75060300934928 -1 0 0 I I #
edge $-1 $515 -41.055570826711254 $629 41.055570826711254 $514 $726 forward 7 unknown #
point $-1 -63.859370708334609 -41.055570826711254 -10.75060300934928 #
vertex $-1 $530 $727 #
vertex $-1 $631 $728 #
straight-curve $-1 -63.859370708334609 41.055570826711254 0 0 0 -1 I I #
edge $-1 $629 -63.859370708334609 $519 63.859370708334609 $526 $729 forward 7 unknown #
point $-1 63.859370708334609 41.055570826711254 -10.75060300934928 #
straight-curve $-1 -63.859370708334609 0 10.75060300934928 0 -1 0 I I #
straight-curve $-1 0 41.055570826711254 10.75060300934928 -1 0 0 I I #
coedge $-1 $646 $535 $536 $637 reversed $430 $-1 #
edge $-1 $647 -2.8054195120713787 $656 2.8054195120713787 $556 $730 forward 7 unknown #
edge $-1 $639 -63.859370708334609 $656 63.859370708334609 $635 $731 forward 7 unknown #
edge $-1 $569 -63.859370708334609 $560 63.859370708334609 $559 $732 forward 7 unknown #
vertex $-1 $649 $733 #
straight-curve $-1 63.859370708334609 -45.770750463201111 -0.24318451906818783 0 -1 0 I I #
coedge $-1 $548 $556 $539 $642 reversed $140 $-1 #
edge $-1 $644 -4.7151796364898573 $647 4.7151796364898573 $641 $734 forward 7 unknown #
coedge $-1 $540 $563 $548 $652 forward $564 $-1 #
vertex $-1 $652 $735 #
straight-curve $-1 0 -41.055570826711254 5.3676545050745696 1 0 0 I I #
coedge $-1 $542 $635 $544 $649 reversed $430 $-1 #
vertex $-1 $642 $736 #
straight-curve $-1 0 -50.485930099690968 5.3676545050745696 1 0 0 I I #
edge $-1 $545 -2.8054195120713787 $639 2.8054195120713787 $544 $737 forward 7 unknown #
point $-1 63.859370708334609 -50.485930099690968 5.3676545050745696 #
point $-1 63.859370708334609 -41.055570826711254 5.3676545050745696 #
edge $-1 $653 -10.75060300934928 $644 -5.3676545050745696 $548 $561 forward 7 unknown #
vertex $-1 $550 $738 #
straight-curve $-1 -63.859370708334609 0 10.75060300934928 0 -1 0 I I #
straight-curve $-1 0 -41.055570826711254 -10.75060300934928 -1 0 0 I I #
vertex $-1 $558 $739 #
straight-curve $-1 -63.859370708334609 -45.770750463201111 -0.24318451906818783 0 1 0 I I #
point $-1 -63.859370708334609 -41.055570826711254 -0.24318451906818783 #
straight-curve $-1 0 -41.055570826711254 10.75060300934928 1 0 0 I I #
plane-surface $-1 0 0 10.75060300934928 0 0 1 1 0 0 forward_v I I I I #
point $-1 63.859370708334609 -41.055570826711254 -0.24318451906818783 #
face $-1 $740 $741 $18 $-1 $742 reversed single #
loop $-1 $-1 $743 $571 #
plane-surface $-1 0 -45.770750463201111 -0.24318451906818783 0 0 1 1 0 0 forward_v I I I I #
coedge $-1 $744 $745 $746 $747 forward $572 $-1 #
coedge $-1 $575 $574 $580 $675 reversed $365 $-1 #
coedge $-1 $748 $694 $575 $668 forward $596 $-1 #
edge $-1 $669 -63.859370708334609 $749 63.859370708334609 $667 $750 forward 7 unknown #
vertex $-1 $576 $751 #
straight-curve $-1 -63.859370708334609 29.175483552463582 -4.6253015046746402 0 0 -1 I I #
straight-curve $-1 0 29.175483552463582 -7.7506030093492804 1 0 0 I I #
straight-curve $-1 0 41.055570826711254 -7.7506030093492804 -1 0 0 I I #
edge $-1 $593 -10.75060300934928 $583 7.7506030093492804 $579 $752 forward 7 unknown #
coedge $-1 $580 $753 $748 $754 reversed $581 $-1 #
edge $-1 $749 -6.1253015046746402 $582 -3.1253015046746402 $580 $755 forward 7 unknown #
point $-1 63.859370708334609 29.175483552463582 -7.7506030093492804 #
point $-1 63.859370708334609 41.055570826711254 -7.7506030093492804 #
coedge $-1 $585 $756 $757 $758 reversed $157 $-1 #
coedge $-1 $745 $744 $585 $680 forward $572 $-1 #
edge $-1 $684 -4.7151796364898573 $759 4.7151796364898573 $585 $760 forward 7 unknown #
coedge $-1 $761 $586 $744 $762 forward $683 $-1 #
coedge $-1 $586 $761 $588 $686 reversed $683 $-1 #
loop $-1 $-1 $681 $763 #
vertex $-1 $587 $764 #
straight-curve $-1 -63.859370708334609 -41.055570826711254 0 0 0 -1 I I #
edge $-1 $589 -63.859370708334609 $689 63.859370708334609 $682 $765 forward 7 unknown #
point $-1 -63.859370708334609 -41.055570826711254 10.75060300934928 #
coedge $-1 $746 $590 $761 $766 forward $581 $-1 #
vertex $-1 $591 $767 #
straight-curve $-1 63.859370708334609 0 10.75060300934928 0 1 0 I I #
point $-1 63.859370708334609 41.055570826711254 10.75060300934928 #
plane-surface $-1 63.859370708334609 0 0 -1 0 0 0 0 1 forward_v I I I I #
coedge $-1 $756 $598 $768 $769 reversed $157 $-1 #
coedge $-1 $667 $770 $598 $695 forward $596 $-1 #
edge $-1 $771 -41.055570826711254 $669 29.175483552463582 $598 $772 forward 7 unknown #
point $-1 -63.859370708334609 29.175483552463582 -7.7506030093492804 #
face $-1 $773 $774 $19 $-1 $775 forward single #
loop $-1 $-1 $722 $602 #
plane-surface $-1 0 41.055570826711254 0 0 -1 0 0 0 -1 forward_v I I I I #
coedge $-1 $776 $777 $719 $778 reversed $603 $-1 #
coedge $-1 $720 $605 $776 $779 reversed $490 $-1 #
coedge $-1 $605 $720 $722 $780 reversed $490 $-1 #
coedge $-1 $781 $782 $605 $704 forward $783 $-1 #
edge $-1 $784 11.617719957669873 $785 23.497807231917545 $703 $786 forward 7 unknown #
coedge $-1 $606 $787 $788 $789 reversed $386 $-1 #
coedge $-1 $790 $607 $606 $707 forward $503 $-1 #
edge $-1 $610 -14.512026626998725 $791 41.055570826711254 $606 $622 forward 7 unknown #
vertex $-1 $614 $792 #
straight-curve $-1 -86.667850269096505 14.512026626998725 10.75060300934928 -1 0 0 I I #
straight-curve $-1 -63.859370708334595 14.512026626998725 2.7528158764246768 -0.51503806187062418 0 -0.85716730853699208 I I #
point $-1 -63.859370708334609 14.512026626998725 10.75060300934928 #
point $-1 -63.859370708334609 14.512026626998725 2.7528158764246533 #
straight-curve $-1 -59.053815546383923 10.921877544865577 10.75060300934928 0 -1 0 I I #
coedge $-1 $616 $790 $793 $794 forward $503 $-1 #
coedge $-1 $795 $619 $616 $716 reversed $698 $-1 #
edge $-1 $796 -63.859370708334609 $621 63.859370708334609 $715 $797 forward 7 unknown #
face $-1 $798 $799 $19 $-1 $800 reversed single #
plane-surface $-1 0 0 10.75060300934928 0 0 1 1 0 0 forward_v I I I I #
coedge $-1 $801 $618 $700 $778 forward $386 $-1 #
coedge $-1 $702 $701 $618 $721 reversed $490 $-1 #
edge $-1 $723 -23.497807231917545 $802 -11.617719957669873 $618 $803 forward 7 unknown #
coedge $-1 $619 $795 $702 $780 forward $698 $-1 #
vertex $-1 $721 $804 #
straight-curve $-1 -63.859370708334609 41.055570826711254 0 0 0 -1 I I #
point $-1 -63.859370708334609 41.055570826711254 10.75060300934928 #
straight-curve $-1 -63.859370708334609 0 -10.75060300934928 0 1 0 I I #
point $-1 -63.859370708334609 41.055570826711254 10.75060300934928 #
point $-1 -63.859370708334609 41.055570826711254 -10.75060300934928 #
straight-curve $-1 0 41.055570826711254 -10.75060300934928 1 0 0 I I #
straight-curve $-1 -63.859370708334609 -50.485930099690968 2.5622349930031909 0 0 -1 I I #
straight-curve $-1 0 -50.485930099690968 -0.24318451906818783 -1 0 0 I I #
straight-curve $-1 0 -41.055570826711254 -0.24318451906818783 -1 0 0 I I #
point $-1 63.859370708334609 -50.485930099690968 -0.24318451906818783 #
straight-curve $-1 -63.859370708334609 -45.770750463201111 5.3676545050745696 0 -1 0 I I #
point $-1 -63.859370708334609 -41.055570826711254 5.3676545050745696 #
point $-1 -63.859370708334609 -50.485930099690968 5.3676545050745696 #
straight-curve $-1 63.859370708334609 -50.485930099690968 2.5622349930031909 0 0 -1 I I #
point $-1 -63.859370708334609 -41.055570826711254 10.75060300934928 #
point $-1 -63.859370708334609 -50.485930099690968 -0.24318451906818783 #
face $-1 $763 $805 $18 $-1 $806 reversed single #
loop $-1 $-1 $757 $662 #
plane-surface $-1 0 -50.485930099690968 2.5622349930031909 0 1 0 0 0 1 forward_v I I I I #
coedge $-1 $807 $808 $809 $810 forward $663 $-1 #
coedge $-1 $679 $665 $681 $762 reversed $572 $-1 #
coedge $-1 $665 $679 $811 $812 forward $572 $-1 #
coedge $-1 $813 $688 $665 $747 reversed $581 $-1 #
edge $-1 $814 -4.7151796364898573 $815 4.7151796364898573 $746 $816 forward 7 unknown #
coedge $-1 $770 $667 $674 $754 forward $596 $-1 #
vertex $-1 $754 $817 #
straight-curve $-1 0 29.175483552463582 -10.75060300934928 1 0 0 I I #
point $-1 -63.859370708334609 29.175483552463582 -10.75060300934928 #
straight-curve $-1 63.859370708334609 41.055570826711254 0 0 0 -1 I I #
coedge $-1 $674 $809 $818 $819 forward $581 $-1 #
edge $-1 $749 -29.175483552463582 $820 41.055570826711254 $674 $821 forward 7 unknown #
straight-curve $-1 63.859370708334609 29.175483552463582 -4.6253015046746402 0 0 1 I I #
coedge $-1 $678 $693 $822 $823 reversed $157 $-1 #
coedge $-1 $824 $811 $678 $758 forward $741 $-1 #
edge $-1 $759 -2.8054195120713787 $825 2.8054195120713787 $678 $826 forward 7 unknown #
vertex $-1 $680 $827 #
straight-curve $-1 -63.859370708334609 -45.770750463201111 5.3676545050745696 0 -1 0 I I #
coedge $-1 $682 $681 $688 $766 reversed $683 $-1 #
edge $-1 $684 -63.859370708334609 $815 63.859370708334609 $681 $828 forward 7 unknown #
face $-1 $379 $683 $18 $-1 $806 reversed single #
point $-1 -63.859370708334609 -41.055570826711254 5.3676545050745696 #
straight-curve $-1 0 -41.055570826711254 10.75060300934928 1 0 0 I I #
edge $-1 $689 -10.75060300934928 $815 -5.3676545050745696 $688 $829 forward 7 unknown #
point $-1 63.859370708334609 -41.055570826711254 10.75060300934928 #
coedge $-1 $830 $831 $693 $769 forward $805 $-1 #
edge $-1 $832 0.24318451906818783 $771 10.75060300934928 $693 $685 forward 7 unknown #
coedge $-1 $694 $748 $830 $833 forward $596 $-1 #
vertex $-1 $695 $834 #
straight-curve $-1 -63.859370708334609 0 -10.75060300934928 0 1 0 I I #
face $-1 $835 $836 $19 $-1 $837 reversed single #
loop $-1 $-1 $838 $697 #
plane-surface $-1 0 -45.770750463201111 5.3676545050745696 0 0 1 1 0 0 forward_v I I I I #
coedge $-1 $839 $700 $701 $779 forward $603 $-1 #
coedge $-1 $700 $839 $840 $841 reversed $603 $-1 #
edge $-1 $802 3.1253015046746402 $842 6.1253015046746402 $719 $843 forward 7 unknown #
edge $-1 $802 -63.859370708334609 $784 63.859370708334609 $776 $844 forward 7 unknown #
edge $-1 $785 -63.859370708334609 $723 63.859370708334609 $722 $845 forward 7 unknown #
coedge $-1 $793 $703 $795 $846 reversed $783 $-1 #
coedge $-1 $703 $847 $839 $848 forward $783 $-1 #
loop $-1 $-1 $703 $798 #
vertex $-1 $704 $849 #
vertex $-1 $780 $850 #
straight-curve $-1 63.859370708334609 17.557763594793709 -7.7506030093492804 0 1 0 I I #
coedge $-1 $705 $851 $852 $853 reversed $386 $-1 #
coedge $-1 $854 $855 $705 $789 forward $856 $-1 #
edge $-1 $791 -10.75060300934928 $857 -5.3676545050745696 $705 $858 forward 7 unknown #
coedge $-1 $714 $706 $855 $859 forward $503 $-1 #
vertex $-1 $707 $860 #
point $-1 -59.053815546383923 14.512026626998725 10.75060300934928 #
coedge $-1 $861 $781 $714 $794 reversed $783 $-1 #
edge $-1 $862 -41.055570826711254 $796 41.055570826711254 $793 $863 forward 7 unknown #
coedge $-1 $722 $715 $781 $846 forward $698 $-1 #
vertex $-1 $794 $864 #
straight-curve $-1 0 41.055570826711254 10.75060300934928 -1 0 0 I I #
face $-1 $-1 $783 $19 $-1 $865 reversed single #
loop $-1 $-1 $840 $717 #
plane-surface $-1 0 0 -10.75060300934928 0 0 1 1 0 0 forward_v I I I I #
coedge $-1 $866 $719 $867 $868 reversed $386 $-1 #
vertex $-1 $721 $869 #
straight-curve $-1 -63.859370708334609 17.557763594793709 -7.7506030093492804 0 -1 0 I I #
point $-1 -63.859370708334609 41.055570826711254 -7.7506030093492804 #
loop $-1 $-1 $831 $740 #
plane-surface $-1 0 -41.055570826711254 0 0 1 0 0 0 1 forward_v I I I I #
coedge $-1 $822 $743 $824 $870 forward $663 $-1 #
coedge $-1 $743 $822 $831 $871 reversed $663 $-1 #
coedge $-1 $753 $813 $743 $810 reversed $581 $-1 #
edge $-1 $872 -4.7151796364898573 $873 4.7151796364898573 $809 $874 forward 7 unknown #
coedge $-1 $757 $875 $745 $812 reversed $741 $-1 #
edge $-1 $759 -63.859370708334609 $814 63.859370708334609 $811 $876 forward 7 unknown #
coedge $-1 $809 $746 $875 $877 forward $581 $-1 #
vertex $-1 $747 $878 #
vertex $-1 $747 $879 #
straight-curve $-1 63.859370708334609 -45.770750463201111 5.3676545050745696 0 1 0 I I #
point $-1 63.859370708334609 29.175483552463582 -10.75060300934928 #
coedge $-1 $831 $830 $753 $819 reversed $805 $-1 #
edge $-1 $872 0.24318451906818783 $820 10.75060300934928 $753 $829 forward 7 unknown #
vertex $-1 $819 $880 #
straight-curve $-1 63.859370708334609 0 -10.75060300934928 0 -1 0 I I #
coedge $-1 $808 $807 $756 $823 forward $663 $-1 #
edge $-1 $825 -4.7151796364898573 $832 4.7151796364898573 $756 $881 forward 7 unknown #
coedge $-1 $875 $757 $807 $870 reversed $741 $-1 #
vertex $-1 $823 $882 #
straight-curve $-1 -63.859370708334609 -50.485930099690968 2.5622349930031909 0 0 -1 I I #
point $-1 -63.859370708334609 -50.485930099690968 5.3676545050745696 #
straight-curve $-1 0 -41.055570826711254 5.3676545050745696 1 0 0 I I #
straight-curve $-1 63.859370708334609 -41.055570826711254 0 0 0 -1 I I #
coedge $-1 $818 $768 $770 $833 reversed $805 $-1 #
coedge $-1 $768 $818 $808 $871 forward $805 $-1 #
vertex $-1 $769 $883 #
edge $-1 $820 -63.859370708334609 $771 63.859370708334609 $830 $884 forward 7 unknown #
point $-1 -63.859370708334609 -41.055570826711254 -10.75060300934928 #
face $-1 $885 $886 $19 $-1 $887 reversed single #
loop $-1 $-1 $888 $773 #
plane-surface $-1 0 -45.770750463201111 -0.24318451906818783 0 0 1 1 0 0 forward_v I I I I #
coedge $-1 $889 $890 $891 $892 forward $774 $-1 #
coedge $-1 $777 $776 $782 $848 reversed $603 $-1 #
coedge $-1 $893 $867 $777 $841 forward $799 $-1 #
edge $-1 $842 -63.859370708334609 $894 63.859370708334609 $840 $895 forward 7 unknown #
vertex $-1 $778 $896 #
straight-curve $-1 -63.859370708334609 29.175483552463582 -4.6253015046746402 0 0 -1 I I #
straight-curve $-1 0 29.175483552463582 -7.7506030093492804 1 0 0 I I #
straight-curve $-1 0 41.055570826711254 -7.7506030093492804 -1 0 0 I I #
edge $-1 $796 -10.75060300934928 $785 7.7506030093492804 $781 $897 forward 7 unknown #
coedge $-1 $782 $898 $893 $899 reversed $783 $-1 #
edge $-1 $894 -6.1253015046746402 $784 -3.1253015046746402 $782 $900 forward 7 unknown #
point $-1 63.859370708334609 29.175483552463582 -7.7506030093492804 #
point $-1 63.859370708334609 41.055570826711254 -7.7506030093492804 #
coedge $-1 $787 $901 $902 $903 reversed $386 $-1 #
coedge $-1 $890 $889 $787 $853 forward $774 $-1 #
edge $-1 $857 -4.7151796364898573 $904 4.7151796364898573 $787 $905 forward 7 unknown #
coedge $-1 $906 $788 $889 $907 forward $856 $-1 #
coedge $-1 $788 $906 $790 $859 reversed $856 $-1 #
loop $-1 $-1 $854 $908 #
vertex $-1 $789 $909 #
straight-curve $-1 -63.859370708334609 -41.055570826711254 0 0 0 -1 I I #
edge $-1 $791 -63.859370708334609 $862 63.859370708334609 $855 $910 forward 7 unknown #
point $-1 -63.859370708334609 -41.055570826711254 10.75060300934928 #
coedge $-1 $891 $793 $906 $911 forward $783 $-1 #
vertex $-1 $794 $912 #
straight-curve $-1 63.859370708334609 0 10.75060300934928 0 1 0 I I #
point $-1 63.859370708334609 41.055570826711254 10.75060300934928 #
plane-surface $-1 63.859370708334609 0 0 -1 0 0 0 0 1 forward_v I I I I #
coedge $-1 $901 $801 $913 $914 reversed $386 $-1 #
coedge $-1 $840 $915 $801 $868 forward $799 $-1 #
edge $-1 $916 -41.055570826711254 $842 29.175483552463582 $801 $917 forward 7 unknown #
point $-1 -63.859370708334609 29.175483552463582 -7.7506030093492804 #
edge $-1 $873 -63.859370708334609 $825 63.859370708334609 $824 $918 forward 7 unknown #
edge $-1 $872 -63.859370708334609 $832 63.859370708334609 $831 $919 forward 7 unknown #
vertex $-1 $819 $920 #
vertex $-1 $877 $921 #
straight-curve $-1 63.859370708334609 -45.770750463201111 -0.24318451906818783 0 -1 0 I I #
coedge $-1 $811 $824 $813 $877 reversed $741 $-1 #
straight-curve $-1 0 -50.485930099690968 5.3676545050745696 1 0 0 I I #
edge $-1 $814 -2.8054195120713787 $873 2.8054195120713787 $813 $922 forward 7 unknown #
point $-1 63.859370708334609 -50.485930099690968 5.3676545050745696 #
point $-1 63.859370708334609 -41.055570826711254 5.3676545050745696 #
point $-1 63.859370708334609 -41.055570826711254 -10.75060300934928 #
straight-curve $-1 -63.859370708334609 -45.770750463201111 -0.24318451906818783 0 1 0 I I #
point $-1 -63.859370708334609 -50.485930099690968 -0.24318451906818783 #
point $-1 -63.859370708334609 -41.055570826711254 -0.24318451906818783 #
straight-curve $-1 0 -41.055570826711254 -10.75060300934928 -1 0 0 I I #
face $-1 $908 $923 $19 $-1 $924 reversed single #
loop $-1 $-1 $902 $835 #
plane-surface $-1 0 -50.485930099690968 2.5622349930031909 0 1 0 0 0 1 forward_v I I I I #
coedge $-1 $925 $926 $927 $928 forward $836 $-1 #
coedge $-1 $852 $838 $854 $907 reversed $774 $-1 #
coedge $-1 $838 $852 $929 $930 forward $774 $-1 #
coedge $-1 $931 $861 $838 $892 reversed $783 $-1 #
edge $-1 $932 -4.7151796364898573 $933 4.7151796364898573 $891 $934 forward 7 unknown #
coedge $-1 $915 $840 $847 $899 forward $799 $-1 #
vertex $-1 $899 $935 #
straight-curve $-1 0 29.175483552463582 -10.75060300934928 1 0 0 I I #
point $-1 -63.859370708334609 29.175483552463582 -10.75060300934928 #
straight-curve $-1 63.859370708334609 41.055570826711254 0 0 0 -1 I I #
coedge $-1 $847 $927 $936 $937 forward $783 $-1 #
edge $-1 $894 -29.175483552463582 $938 41.055570826711254 $847 $939 forward 7 unknown #
straight-curve $-1 63.859370708334609 29.175483552463582 -4.6253015046746402 0 0 1 I I #
coedge $-1 $851 $866 $940 $941 reversed $386 $-1 #
coedge $-1 $942 $929 $851 $903 forward $886 $-1 #
edge $-1 $904 -2.8054195120713787 $943 2.8054195120713787 $851 $944 forward 7 unknown #
vertex $-1 $853 $945 #
straight-curve $-1 -63.859370708334609 -45.770750463201111 5.3676545050745696 0 -1 0 I I #
coedge $-1 $855 $854 $861 $911 reversed $856 $-1 #
edge $-1 $857 -63.859370708334609 $933 63.859370708334609 $854 $946 forward 7 unknown #
face $-1 $617 $856 $19 $-1 $924 reversed single #
point $-1 -63.859370708334609 -41.055570826711254 5.3676545050745696 #
straight-curve $-1 0 -41.055570826711254 10.75060300934928 1 0 0 I I #
edge $-1 $862 -10.75060300934928 $933 -5.3676545050745696 $861 $947 forward 7 unknown #
point $-1 63.859370708334609 -41.055570826711254 10.75060300934928 #
coedge $-1 $948 $949 $866 $914 forward $923 $-1 #
edge $-1 $950 0.24318451906818783 $916 10.75060300934928 $866 $858 forward 7 unknown #
coedge $-1 $867 $893 $948 $951 forward $799 $-1 #
vertex $-1 $868 $952 #
straight-curve $-1 -63.859370708334609 0 -10.75060300934928 0 1 0 I I #
straight-curve $-1 0 -50.485930099690968 -0.24318451906818783 -1 0 0 I I #
straight-curve $-1 0 -41.055570826711254 -0.24318451906818783 -1 0 0 I I #
point $-1 63.859370708334609 -41.055570826711254 -0.24318451906818783 #
point $-1 63.859370708334609 -50.485930099690968 -0.24318451906818783 #
straight-curve $-1 63.859370708334609 -50.485930099690968 2.5622349930031909 0 0 -1 I I #
loop $-1 $-1 $949 $885 #
plane-surface $-1 0 -41.055570826711254 0 0 1 0 0 0 1 forward_v I I I I #
coedge $-1 $940 $888 $942 $953 forward $836 $-1 #
coedge $-1 $888 $940 $949 $954 reversed $836 $-1 #
coedge $-1 $898 $931 $888 $928 reversed $783 $-1 #
edge $-1 $955 -4.7151796364898573 $956 4.7151796364898573 $927 $957 forward 7 unknown #
coedge $-1 $902 $958 $890 $930 reversed $886 $-1 #
edge $-1 $904 -63.859370708334609 $932 63.859370708334609 $929 $959 forward 7 unknown #
coedge $-1 $927 $891 $958 $960 forward $783 $-1 #
vertex $-1 $892 $961 #
vertex $-1 $892 $962 #
straight-curve $-1 63.859370708334609 -45.770750463201111 5.3676545050745696 0 1 0 I I #
point $-1 63.859370708334609 29.175483552463582 -10.75060300934928 #
coedge $-1 $949 $948 $898 $937 reversed $923 $-1 #
edge $-1 $955 0.24318451906818783 $938 10.75060300934928 $898 $947 forward 7 unknown #
vertex $-1 $937 $963 #
straight-curve $-1 63.859370708334609 0 -10.75060300934928 0 -1 0 I I #
coedge $-1 $926 $925 $901 $941 forward $836 $-1 #
edge $-1 $943 -4.7151796364898573 $950 4.7151796364898573 $901 $964 forward 7 unknown #
coedge $-1 $958 $902 $925 $953 reversed $886 $-1 #
vertex $-1 $941 $965 #
straight-curve $-1 -63.859370708334609 -50.485930099690968 2.5622349930031909 0 0 -1 I I #
point $-1 -63.859370708334609 -50.485930099690968 5.3676545050745696 #
straight-curve $-1 0 -41.055570826711254 5.3676545050745696 1 0 0 I I #
straight-curve $-1 63.859370708334609 -41.055570826711254 0 0 0 -1 I I #
coedge $-1 $936 $913 $915 $951 reversed $923 $-1 #
coedge $-1 $913 $936 $926 $954 forward $923 $-1 #
vertex $-1 $914 $966 #
edge $-1 $938 -63.859370708334609 $916 63.859370708334609 $948 $967 forward 7 unknown #
point $-1 -63.859370708334609 -41.055570826711254 -10.75060300934928 #
edge $-1 $956 -63.859370708334609 $943 63.859370708334609 $942 $968 forward 7 unknown #
edge $-1 $955 -63.859370708334609 $950 63.859370708334609 $949 $969 forward 7 unknown #
vertex $-1 $937 $970 #
vertex $-1 $960 $971 #
straight-curve $-1 63.859370708334609 -45.770750463201111 -0.24318451906818783 0 -1 0 I I #
coedge $-1 $929 $942 $931 $960 reversed $886 $-1 #
straight-curve $-1 0 -50.485930099690968 5.3676545050745696 1 0 0 I I #
edge $-1 $932 -2.8054195120713787 $956 2.8054195120713787 $931 $972 forward 7 unknown #
point $-1 63.859370708334609 -50.485930099690968 5.3676545050745696 #
point $-1 63.859370708334609 -41.055570826711254 5.3676545050745696 #
point $-1 63.859370708334609 -41.055570826711254 -10.75060300934928 #
straight-curve $-1 -63.859370708334609 -45.770750463201111 -0.24318451906818783 0 1 0 I I #
point $-1 -63.859370708334609 -50.485930099690968 -0.24318451906818783 #
point $-1 -63.859370708334609 -41.055570826711254 -0.24318451906818783 #
straight-curve $-1 0 -41.055570826711254 -10.75060300934928 -1 0 0 I I #
straight-curve $-1 0 -50.485930099690968 -0.24318451906818783 -1 0 0 I I #
straight-curve $-1 0 -41.055570826711254 -0.24318451906818783 -1 0 0 I I #
point $-1 63.859370708334609 -41.055570826711254 -0.24318451906818783 #
point $-1 63.859370708334609 -50.485930099690968 -0.24318451906818783 #
straight-curve $-1 63.859370708334609 -50.485930099690968 2.5622349930031909 0 0 -1 I I #
End-of-ACIS-data 