500 0 10 0           
7 Unknown 11 ACIS 5.0 NT 24 Thu Mar 25 17:24:42 1999 
-1 9.9999999999999995e-007 1e-010 
body $-1 $10 $-1 $11 #
body $-1 $12 $-1 $13 #
body $-1 $14 $-1 $15 #
body $-1 $16 $-1 $17 #
body $-1 $18 $-1 $19 #
body $-1 $20 $-1 $21 #
body $-1 $22 $-1 $23 #
body $-1 $24 $-1 $25 #
body $-1 $26 $-1 $27 #
body $-1 $28 $-1 $29 #
lump $-1 $-1 $30 $0 #
transform $-1 1 0 0 0 1 0 0 0 1 46.773888363292336 27.471790488613461 13.577689523148207 1 rotate no_reflect no_shear #
lump $-1 $-1 $31 $1 #
transform $-1 1 0 0 0 1 0 0 0 1 46.773888363292336 27.471790488613461 13.577689523148207 1 rotate no_reflect no_shear #
lump $-1 $-1 $32 $2 #
transform $-1 1 0 0 0 1 0 0 0 1 46.773888363292336 27.471790488613461 13.577689523148207 1 rotate no_reflect no_shear #
lump $-1 $-1 $33 $3 #
transform $-1 1 0 0 0 1 0 0 0 1 46.773888363292336 27.471790488613461 13.577689523148207 1 rotate no_reflect no_shear #
lump $-1 $-1 $34 $4 #
transform $-1 1 0 0 0 1 0 0 0 1 46.773888363292336 27.471790488613461 13.577689523148207 1 rotate no_reflect no_shear #
lump $-1 $-1 $35 $5 #
transform $-1 1 0 0 0 1 0 0 0 1 46.773888363292336 27.471790488613461 13.577689523148207 1 rotate no_reflect no_shear #
lump $-1 $-1 $36 $6 #
transform $-1 1 0 0 0 1 0 0 0 1 46.773888363292336 27.471790488613461 13.577689523148207 1 rotate no_reflect no_shear #
lump $-1 $-1 $37 $7 #
transform $-1 1 0 0 0 1 0 0 0 1 46.773888363292336 27.471790488613461 13.577689523148207 1 rotate no_reflect no_shear #
lump $-1 $-1 $38 $8 #
transform $-1 1 0 0 0 1 0 0 0 1 46.773888363292336 27.471790488613461 13.577689523148207 1 rotate no_reflect no_shear #
lump $-1 $-1 $39 $9 #
transform $-1 1 0 0 0 1 0 0 0 1 46.773888363292336 27.471790488613461 13.577689523148207 1 rotate no_reflect no_shear #
shell $-1 $-1 $-1 $40 $-1 $10 #
shell $-1 $-1 $-1 $41 $-1 $12 #
shell $-1 $-1 $-1 $42 $-1 $14 #
shell $-1 $-1 $-1 $43 $-1 $16 #
shell $-1 $-1 $-1 $44 $-1 $18 #
shell $-1 $-1 $-1 $45 $-1 $20 #
shell $-1 $-1 $-1 $46 $-1 $22 #
shell $-1 $-1 $-1 $47 $-1 $24 #
shell $-1 $-1 $-1 $48 $-1 $26 #
shell $-1 $-1 $-1 $49 $-1 $28 #
face $-1 $50 $51 $30 $-1 $52 forward single #
face $-1 $53 $54 $31 $-1 $55 forward single #
face $-1 $56 $57 $32 $-1 $58 reversed single #
face $-1 $59 $60 $33 $-1 $61 forward single #
face $-1 $62 $63 $34 $-1 $64 forward single #
face $-1 $65 $66 $35 $-1 $67 forward single #
face $-1 $68 $69 $36 $-1 $70 reversed single #
face $-1 $71 $72 $37 $-1 $73 forward single #
face $-1 $74 $75 $38 $-1 $76 forward single #
face $-1 $77 $78 $39 $-1 $79 forward single #
face $-1 $80 $81 $30 $-1 $82 reversed single #
loop $-1 $-1 $83 $40 #
plane-surface $-1 0 0 13.577689523148207 0 0 1 1 0 0 forward_v I I I I #
face $-1 $84 $85 $31 $-1 $86 reversed single #
loop $-1 $-1 $87 $41 #
plane-surface $-1 0 -18.63180589377788 -7.7460828537834825 0 0 1 1 0 0 forward_v I I I I #
face $-1 $88 $89 $32 $-1 $90 reversed single #
loop $-1 $-1 $91 $42 #
plane-surface $-1 81.014753089676077 22.722584123999827 129.22355303463237 0 -1 0 -0.86602541151947299 0 -0.49999998660252726 forward_v I I I I #
face $-1 $92 $93 $33 $-1 $94 forward single #
loop $-1 $95 $96 $43 #
cone-surface $-1 42.835558449748035 16.579344781838227 7.2563018124086174 -0.86602541151947299 0 -0.49999998660252726 0.24999999330126363 0 -0.43301270575973649 1 I I 0 1 0.5 forward I I I I #
face $-1 $97 $98 $34 $-1 $99 forward single #
loop $-1 $100 $101 $44 #
cone-surface $-1 42.835558449748035 18.883059535148828 7.2563018124086174 -0.86602541151947299 0 -0.49999998660252726 0.24999999330126363 0 -0.43301270575973649 1 I I 0 1 0.5 forward I I I I #
face $-1 $102 $103 $35 $-1 $104 forward single #
loop $-1 $105 $106 $45 #
cone-surface $-1 42.835558449748035 21.186774288459429 7.2563018124086174 -0.86602541151947299 0 -0.49999998660252726 0.24999999330126363 0 -0.43301270575973649 1 I I 0 1 0.5 forward I I I I #
face $-1 $107 $108 $36 $-1 $109 reversed single #
loop $-1 $-1 $110 $46 #
plane-surface $-1 -127.78864019966463 15.043534946297829 48.208801198260097 0 1 0 -0.86602541151947299 0 0.49999998660252726 forward_v I I I I #
face $-1 $111 $112 $37 $-1 $113 forward single #
loop $-1 $114 $115 $47 #
cone-surface $-1 -42.835558449748042 16.579344781838227 7.2563018124086103 0.86602541151947299 0 -0.49999998660252726 0.24999999330126363 0 0.43301270575973649 1 I I 0 1 0.5 forward I I I I #
face $-1 $116 $117 $38 $-1 $118 forward single #
loop $-1 $119 $120 $48 #
cone-surface $-1 -42.835558449748042 18.883059535148828 7.2563018124086103 0.86602541151947299 0 -0.49999998660252726 0.24999999330126363 0 0.43301270575973649 1 I I 0 1 0.5 forward I I I I #
face $-1 $121 $122 $39 $-1 $123 forward single #
loop $-1 $124 $125 $49 #
cone-surface $-1 -42.835558449748042 21.186774288459429 7.2563018124086103 0.86602541151947299 0 -0.49999998660252726 0.24999999330126363 0 0.43301270575973649 1 I I 0 1 0.5 forward I I I I #
face $-1 $126 $127 $30 $-1 $128 reversed single #
loop $-1 $-1 $129 $50 #
plane-surface $-1 0 0 -13.577689523148207 0 0 1 1 0 0 forward_v I I I I #
coedge $-1 $130 $131 $132 $133 forward $51 $-1 #
face $-1 $134 $135 $31 $-1 $136 reversed single #
loop $-1 $-1 $137 $53 #
plane-surface $-1 0 -9.7918212989422972 -10.661886188465845 0 -1 0 0 0 -1 forward_v I I I I #
coedge $-1 $138 $139 $140 $141 reversed $54 $-1 #
face $-1 $142 $143 $32 $-1 $144 reversed single #
loop $-1 $-1 $145 $56 #
plane-surface $-1 1.2533038074025171e-006 18.883059535148828 82.449665924643824 0.86602541151947299 0 0.49999998660252726 0.49999998660252726 0 -0.86602541151947299 forward_v I I I I #
coedge $-1 $146 $147 $148 $149 reversed $57 $-1 #
face $-1 $-1 $150 $33 $-1 $151 forward single #
loop $-1 $152 $153 $59 #
cone-surface $-1 42.18603939110843 16.579344781838227 6.881301822456722 -0.86602541151947299 0 -0.49999998660252726 0.12499999665063181 0 -0.21650635287986825 1 I I -0.70710678118654746 0.70710678118654746 0.25 forward I I I I #
loop $-1 $-1 $154 $43 #
coedge $-1 $96 $96 $155 $156 reversed $60 $-1 #
face $-1 $-1 $157 $34 $-1 $158 forward single #
loop $-1 $159 $160 $62 #
cone-surface $-1 42.18603939110843 18.883059535148828 6.881301822456722 -0.86602541151947299 0 -0.49999998660252726 0.12499999665063181 0 -0.21650635287986825 1 I I -0.70710678118654746 0.70710678118654746 0.25 forward I I I I #
loop $-1 $-1 $161 $44 #
coedge $-1 $101 $101 $162 $163 reversed $63 $-1 #
face $-1 $-1 $164 $35 $-1 $165 forward single #
loop $-1 $166 $167 $65 #
cone-surface $-1 42.18603939110843 21.186774288459429 6.881301822456722 -0.86602541151947299 0 -0.49999998660252726 0.12499999665063181 0 -0.21650635287986825 1 I I -0.70710678118654746 0.70710678118654746 0.25 forward I I I I #
loop $-1 $-1 $168 $45 #
coedge $-1 $106 $106 $169 $170 reversed $66 $-1 #
face $-1 $171 $172 $36 $-1 $173 reversed single #
loop $-1 $-1 $174 $68 #
plane-surface $-1 -46.773888363292357 18.883059535148828 1.4349140882715474 -0.86602541151947299 0 0.49999998660252726 0.49999998660252726 0 0.86602541151947299 forward_v I I I I #
coedge $-1 $175 $176 $177 $178 reversed $69 $-1 #
face $-1 $-1 $179 $37 $-1 $180 forward single #
loop $-1 $181 $182 $71 #
cone-surface $-1 -42.186039391108437 16.579344781838227 6.8813018224567148 0.86602541151947299 0 -0.49999998660252726 0.12499999665063181 0 0.21650635287986825 1 I I -0.70710678118654746 0.70710678118654746 0.25 forward I I I I #
loop $-1 $-1 $183 $47 #
coedge $-1 $115 $115 $184 $185 reversed $72 $-1 #
face $-1 $-1 $186 $38 $-1 $187 forward single #
loop $-1 $188 $189 $74 #
cone-surface $-1 -42.186039391108437 18.883059535148828 6.8813018224567148 0.86602541151947299 0 -0.49999998660252726 0.12499999665063181 0 0.21650635287986825 1 I I -0.70710678118654746 0.70710678118654746 0.25 forward I I I I #
loop $-1 $-1 $190 $48 #
coedge $-1 $120 $120 $191 $192 reversed $75 $-1 #
face $-1 $-1 $193 $39 $-1 $194 forward single #
loop $-1 $195 $196 $77 #
cone-surface $-1 -42.186039391108437 21.186774288459429 6.8813018224567148 0.86602541151947299 0 -0.49999998660252726 0.12499999665063181 0 0.21650635287986825 1 I I -0.70710678118654746 0.70710678118654746 0.25 forward I I I I #
loop $-1 $-1 $197 $49 #
coedge $-1 $125 $125 $198 $199 reversed $78 $-1 #
face $-1 $200 $201 $30 $-1 $202 reversed single #
loop $-1 $-1 $203 $80 #
plane-surface $-1 0 -27.471790488613461 0 0 1 0 0 0 1 forward_v I I I I #
coedge $-1 $204 $205 $206 $207 forward $81 $-1 #
coedge $-1 $208 $83 $209 $210 forward $51 $-1 #
coedge $-1 $83 $208 $211 $212 forward $51 $-1 #
coedge $-1 $213 $214 $83 $133 reversed $215 $-1 #
edge $-1 $216 -27.471790488613461 $217 27.471790488613461 $132 $218 forward 7 unknown #
face $-1 $219 $220 $31 $-1 $221 reversed single #
loop $-1 $-1 $222 $84 #
plane-surface $-1 0 0 -13.577689523148207 0 0 1 1 0 0 forward_v I I I I #
coedge $-1 $223 $224 $225 $226 reversed $85 $-1 #
coedge $-1 $227 $87 $224 $228 forward $54 $-1 #
coedge $-1 $87 $227 $229 $230 reversed $54 $-1 #
coedge $-1 $231 $225 $87 $141 forward $220 $-1 #
edge $-1 $232 0.4759183520533572 $233 18.155887541724525 $140 $234 forward 7 unknown #
face $-1 $235 $236 $32 $-1 $237 reversed single #
loop $-1 $-1 $238 $88 #
plane-surface $-1 81.014753089676077 15.043534946297829 129.22355303463237 0 1 0 0.86602541151947299 0 0.49999998660252726 forward_v I I I I #
coedge $-1 $239 $240 $241 $242 reversed $89 $-1 #
coedge $-1 $147 $91 $243 $244 reversed $57 $-1 #
coedge $-1 $91 $146 $239 $245 reversed $57 $-1 #
coedge $-1 $241 $246 $91 $149 forward $247 $-1 #
edge $-1 $248 -6.2665118184542976 $249 0.74412259711479578 $148 $250 forward 7 unknown #
loop $-1 $-1 $155 $92 #
plane-surface $-1 1.2533038074025171e-006 18.883059535148828 82.449665924643824 0.86602541151947299 0 0.49999998660252726 0.49999998660252726 0 -0.86602541151947299 forward_v I I I I #
loop $-1 $-1 $251 $59 #
coedge $-1 $153 $153 $154 $252 reversed $93 $-1 #
coedge $-1 $154 $154 $153 $252 forward $95 $-1 #
coedge $-1 $155 $155 $96 $156 forward $150 $-1 #
edge $-1 $253 0 $253 6.2831853071796004 $155 $254 forward 7 unknown #
loop $-1 $-1 $162 $97 #
plane-surface $-1 1.2533038074025171e-006 18.883059535148828 82.449665924643824 0.86602541151947299 0 0.49999998660252726 0.49999998660252726 0 -0.86602541151947299 forward_v I I I I #
loop $-1 $-1 $255 $62 #
coedge $-1 $160 $160 $161 $256 reversed $98 $-1 #
coedge $-1 $161 $161 $160 $256 forward $100 $-1 #
coedge $-1 $162 $162 $101 $163 forward $157 $-1 #
edge $-1 $257 0 $257 6.2831853071796004 $162 $258 forward 7 unknown #
loop $-1 $-1 $169 $102 #
plane-surface $-1 1.2533038074025171e-006 18.883059535148828 82.449665924643824 0.86602541151947299 0 0.49999998660252726 0.49999998660252726 0 -0.86602541151947299 forward_v I I I I #
loop $-1 $-1 $259 $65 #
coedge $-1 $167 $167 $168 $260 reversed $103 $-1 #
coedge $-1 $168 $168 $167 $260 forward $105 $-1 #
coedge $-1 $169 $169 $106 $170 forward $164 $-1 #
edge $-1 $261 0 $261 6.2831853071796004 $169 $262 forward 7 unknown #
face $-1 $263 $264 $36 $-1 $265 forward single #
loop $-1 $-1 $266 $107 #
plane-surface $-1 -127.78864019966463 22.722584123999827 48.208801198260097 0 -1 0 0.86602541151947299 0 -0.49999998660252726 forward_v I I I I #
coedge $-1 $267 $268 $269 $270 reversed $108 $-1 #
coedge $-1 $176 $110 $271 $272 reversed $69 $-1 #
coedge $-1 $110 $175 $267 $273 reversed $69 $-1 #
coedge $-1 $269 $274 $110 $178 forward $264 $-1 #
edge $-1 $275 17.120431736539977 $276 24.131066152109078 $177 $277 forward 7 unknown #
loop $-1 $-1 $184 $111 #
plane-surface $-1 -46.773888363292357 18.883059535148828 1.4349140882715474 -0.86602541151947299 0 0.49999998660252726 0.49999998660252726 0 0.86602541151947299 forward_v I I I I #
loop $-1 $-1 $278 $71 #
coedge $-1 $182 $182 $183 $279 reversed $112 $-1 #
coedge $-1 $183 $183 $182 $279 forward $114 $-1 #
coedge $-1 $184 $184 $115 $185 forward $179 $-1 #
edge $-1 $280 0 $280 6.2831853071796004 $184 $281 forward 7 unknown #
loop $-1 $-1 $191 $116 #
plane-surface $-1 -46.773888363292357 18.883059535148828 1.4349140882715474 -0.86602541151947299 0 0.49999998660252726 0.49999998660252726 0 0.86602541151947299 forward_v I I I I #
loop $-1 $-1 $282 $74 #
coedge $-1 $189 $189 $190 $283 reversed $117 $-1 #
coedge $-1 $190 $190 $189 $283 forward $119 $-1 #
coedge $-1 $191 $191 $120 $192 forward $186 $-1 #
edge $-1 $284 0 $284 6.2831853071796004 $191 $285 forward 7 unknown #
loop $-1 $-1 $198 $121 #
plane-surface $-1 -46.773888363292357 18.883059535148828 1.4349140882715474 -0.86602541151947299 0 0.49999998660252726 0.49999998660252726 0 0.86602541151947299 forward_v I I I I #
loop $-1 $-1 $286 $77 #
coedge $-1 $196 $196 $197 $287 reversed $122 $-1 #
coedge $-1 $197 $197 $196 $287 forward $124 $-1 #
coedge $-1 $198 $198 $125 $199 forward $193 $-1 #
edge $-1 $288 0 $288 6.2831853071796004 $198 $289 forward 7 unknown #
face $-1 $290 $291 $30 $-1 $292 reversed single #
loop $-1 $-1 $293 $126 #
plane-surface $-1 -46.773888363292336 0 0 1 0 0 0 0 -1 forward_v I I I I #
coedge $-1 $294 $211 $295 $296 forward $127 $-1 #
coedge $-1 $297 $129 $294 $298 forward $81 $-1 #
coedge $-1 $129 $297 $299 $300 forward $81 $-1 #
coedge $-1 $214 $213 $129 $207 reversed $215 $-1 #
edge $-1 $301 -27.471790488613461 $302 27.471790488613461 $206 $303 forward 7 unknown #
coedge $-1 $131 $130 $304 $305 forward $51 $-1 #
coedge $-1 $306 $307 $130 $210 reversed $291 $-1 #
edge $-1 $217 -46.773888363292336 $308 46.773888363292336 $209 $309 forward 7 unknown #
coedge $-1 $203 $310 $131 $212 reversed $127 $-1 #
edge $-1 $311 -46.773888363292336 $216 46.773888363292336 $211 $312 forward 7 unknown #
coedge $-1 $206 $132 $310 $313 forward $215 $-1 #
coedge $-1 $132 $206 $306 $314 reversed $215 $-1 #
loop $-1 $-1 $213 $290 #
vertex $-1 $133 $315 #
vertex $-1 $133 $316 #
straight-curve $-1 46.773888363292336 0 13.577689523148207 0 1 0 I I #
face $-1 $317 $318 $31 $-1 $319 reversed single #
loop $-1 $-1 $225 $134 #
plane-surface $-1 46.773888363292336 0 0 -1 0 0 0 0 1 forward_v I I I I #
coedge $-1 $320 $321 $223 $322 forward $135 $-1 #
coedge $-1 $323 $137 $222 $322 reversed $85 $-1 #
coedge $-1 $137 $323 $138 $228 reversed $85 $-1 #
coedge $-1 $140 $324 $137 $226 forward $220 $-1 #
edge $-1 $325 -8.2467464289152836 $232 -2.4151397595505602 $225 $326 forward 7 unknown #
coedge $-1 $139 $138 $327 $328 reversed $54 $-1 #
edge $-1 $232 -46.773888363292336 $329 46.773888363292336 $224 $330 forward 7 unknown #
coedge $-1 $331 $332 $139 $230 forward $318 $-1 #
edge $-1 $233 -46.773888363292336 $333 46.773888363292336 $229 $334 forward 7 unknown #
coedge $-1 $324 $140 $332 $335 forward $220 $-1 #
vertex $-1 $141 $336 #
vertex $-1 $335 $337 #
straight-curve $-1 46.773888363292336 -9.3159029468889401 -7.7460828537834825 0 -1 0 I I #
face $-1 $-1 $247 $32 $-1 $338 forward single #
loop $-1 $-1 $339 $142 #
plane-surface $-1 46.773888363292336 0 0 -1 0 0 0 0 1 forward_v I I I I #
coedge $-1 $340 $341 $342 $343 reversed $143 $-1 #
coedge $-1 $344 $145 $147 $245 forward $89 $-1 #
coedge $-1 $145 $344 $340 $345 forward $89 $-1 #
coedge $-1 $342 $148 $145 $242 forward $247 $-1 #
edge $-1 $249 -13.281054356425413 $346 -5.6020051787234149 $241 $347 forward 7 unknown #
coedge $-1 $348 $349 $146 $244 forward $236 $-1 #
edge $-1 $350 -63.17686242904459 $248 -51.034086994167978 $243 $351 forward 7 unknown #
edge $-1 $249 79.526507519747298 $350 93.54777672658463 $147 $352 forward 7 unknown #
coedge $-1 $148 $342 $348 $353 forward $247 $-1 #
loop $-1 $-1 $342 $235 #
vertex $-1 $244 $354 #
vertex $-1 $149 $355 #
straight-curve $-1 40.507376544838039 22.722584123999827 13.577689523148209 -1 0 0 I I #
coedge $-1 $251 $251 $-1 $356 reversed $152 $-1 #
edge $-1 $357 0 $357 6.2831853071796004 $153 $358 forward 7 unknown #
vertex $-1 $156 $359 #
ellipse-curve $-1 43.268571155507793 16.579344781838227 7.5063018057098914 0.86602541151947299 0 0.49999998660252726 0.24999999330126363 0 -0.43301270575973649 1 I I #
coedge $-1 $255 $255 $-1 $360 reversed $159 $-1 #
edge $-1 $361 0 $361 6.2831853071796004 $160 $362 forward 7 unknown #
vertex $-1 $163 $363 #
ellipse-curve $-1 43.268571155507793 18.883059535148828 7.5063018057098914 0.86602541151947299 0 0.49999998660252726 0.24999999330126363 0 -0.43301270575973649 1 I I #
coedge $-1 $259 $259 $-1 $364 reversed $166 $-1 #
edge $-1 $365 0 $365 6.2831853071796004 $167 $366 forward 7 unknown #
vertex $-1 $170 $367 #
ellipse-curve $-1 43.268571155507793 21.186774288459429 7.5063018057098914 0.86602541151947299 0 0.49999998660252726 0.24999999330126363 0 -0.43301270575973649 1 I I #
face $-1 $-1 $368 $36 $-1 $369 reversed single #
loop $-1 $-1 $177 $171 #
plane-surface $-1 0 0 13.577689523148207 0 0 1 1 0 0 forward_v I I I I #
coedge $-1 $370 $371 $372 $373 reversed $172 $-1 #
coedge $-1 $374 $174 $176 $273 forward $108 $-1 #
coedge $-1 $174 $374 $370 $375 forward $108 $-1 #
coedge $-1 $372 $177 $174 $270 forward $264 $-1 #
edge $-1 $276 5.6020051787234149 $376 13.281054356425413 $269 $377 forward 7 unknown #
coedge $-1 $378 $379 $175 $272 forward $368 $-1 #
edge $-1 $380 -22.669486510858466 $275 -10.526711075981842 $271 $381 forward 7 unknown #
edge $-1 $276 -14.021269206837385 $380 -4.2579321629893116e-014 $176 $382 forward 7 unknown #
coedge $-1 $177 $372 $378 $383 forward $264 $-1 #
vertex $-1 $272 $384 #
vertex $-1 $178 $385 #
straight-curve $-1 -63.894320099832314 15.043534946297829 13.577689523148205 1 0 0 I I #
coedge $-1 $278 $278 $-1 $386 reversed $181 $-1 #
edge $-1 $387 0 $387 6.2831853071796004 $182 $388 forward 7 unknown #
vertex $-1 $185 $389 #
ellipse-curve $-1 -43.268571155507793 16.579344781838227 7.5063018057098825 -0.86602541151947299 0 0.49999998660252726 0.24999999330126363 0 0.43301270575973649 1 I I #
coedge $-1 $282 $282 $-1 $390 reversed $188 $-1 #
edge $-1 $391 0 $391 6.2831853071796004 $189 $392 forward 7 unknown #
vertex $-1 $192 $393 #
ellipse-curve $-1 -43.268571155507793 18.883059535148828 7.5063018057098825 -0.86602541151947299 0 0.49999998660252726 0.24999999330126363 0 0.43301270575973649 1 I I #
coedge $-1 $286 $286 $-1 $394 reversed $195 $-1 #
edge $-1 $395 0 $395 6.2831853071796004 $196 $396 forward 7 unknown #
vertex $-1 $199 $397 #
ellipse-curve $-1 -43.268571155507793 21.186774288459429 7.5063018057098825 -0.86602541151947299 0 0.49999998660252726 0.24999999330126363 0 0.43301270575973649 1 I I #
face $-1 $-1 $215 $30 $-1 $398 reversed single #
loop $-1 $-1 $306 $200 #
plane-surface $-1 0 27.471790488613461 0 0 -1 0 0 0 -1 forward_v I I I I #
coedge $-1 $399 $304 $307 $400 forward $201 $-1 #
coedge $-1 $310 $203 $204 $298 reversed $127 $-1 #
coedge $-1 $304 $399 $203 $296 reversed $201 $-1 #
edge $-1 $311 -13.577689523148207 $401 13.577689523148207 $295 $402 forward 7 unknown #
coedge $-1 $205 $204 $399 $403 forward $81 $-1 #
edge $-1 $302 -46.773888363292336 $401 46.773888363292336 $294 $404 forward 7 unknown #
coedge $-1 $307 $306 $205 $300 reversed $291 $-1 #
edge $-1 $405 -46.773888363292336 $301 46.773888363292336 $299 $406 forward 7 unknown #
vertex $-1 $207 $407 #
vertex $-1 $313 $408 #
straight-curve $-1 46.773888363292336 0 -13.577689523148207 0 -1 0 I I #
coedge $-1 $293 $295 $208 $305 reversed $201 $-1 #
edge $-1 $308 -27.471790488613461 $311 27.471790488613461 $304 $409 forward 7 unknown #
coedge $-1 $299 $209 $214 $314 forward $291 $-1 #
coedge $-1 $209 $299 $293 $400 reversed $291 $-1 #
vertex $-1 $210 $410 #
straight-curve $-1 0 27.471790488613461 13.577689523148207 -1 0 0 I I #
coedge $-1 $211 $294 $213 $313 reversed $127 $-1 #
vertex $-1 $305 $411 #
straight-curve $-1 0 -27.471790488613461 13.577689523148207 1 0 0 I I #
edge $-1 $216 -13.577689523148207 $302 13.577689523148207 $213 $412 forward 7 unknown #
edge $-1 $217 -13.577689523148207 $301 13.577689523148207 $214 $413 forward 7 unknown #
point $-1 46.773888363292336 -27.471790488613461 13.577689523148207 #
point $-1 46.773888363292336 27.471790488613461 13.577689523148207 #
face $-1 $-1 $414 $31 $-1 $415 reversed single #
loop $-1 $-1 $229 $219 #
plane-surface $-1 0 -27.471790488613461 0 0 1 0 0 0 1 forward_v I I I I #
coedge $-1 $416 $222 $324 $417 forward $135 $-1 #
coedge $-1 $222 $416 $418 $419 forward $135 $-1 #
edge $-1 $420 -46.773888363292336 $325 46.773888363292336 $222 $421 forward 7 unknown #
coedge $-1 $224 $223 $422 $423 reversed $85 $-1 #
coedge $-1 $225 $231 $320 $417 reversed $220 $-1 #
vertex $-1 $417 $424 #
straight-curve $-1 46.773888363292336 -9.7918212989422972 -5.3309430942329223 0 0 1 I I #
coedge $-1 $422 $425 $227 $328 forward $414 $-1 #
edge $-1 $333 -18.155887541724525 $329 -0.4759183520533572 $327 $426 forward 7 unknown #
vertex $-1 $328 $427 #
straight-curve $-1 0 -9.7918212989422972 -7.7460828537834825 -1 0 0 I I #
coedge $-1 $428 $229 $425 $429 forward $318 $-1 #
coedge $-1 $229 $428 $231 $335 reversed $318 $-1 #
vertex $-1 $429 $430 #
straight-curve $-1 0 -27.471790488613461 -7.7460828537834825 -1 0 0 I I #
edge $-1 $233 7.7460828537834825 $431 13.577689523148207 $231 $432 forward 7 unknown #
point $-1 46.773888363292336 -9.7918212989422972 -7.7460828537834825 #
point $-1 46.773888363292336 -27.471790488613465 -7.7460828537834825 #
plane-surface $-1 0 0 13.577689523148207 0 0 1 1 0 0 forward_v I I I I #
coedge $-1 $349 $348 $341 $433 forward $236 $-1 #
coedge $-1 $341 $238 $240 $345 reversed $143 $-1 #
coedge $-1 $238 $340 $339 $433 reversed $143 $-1 #
coedge $-1 $246 $241 $238 $343 forward $247 $-1 #
edge $-1 $346 -0.74412259711479578 $434 6.2665118184542976 $342 $435 forward 7 unknown #
coedge $-1 $240 $239 $349 $436 reversed $89 $-1 #
edge $-1 $437 -93.54777672658463 $346 -79.526507519747298 $340 $438 forward 7 unknown #
vertex $-1 $242 $439 #
straight-curve $-1 39.763253947723236 9.4415297675744139 13.577689523148209 0 -1 0 I I #
coedge $-1 $339 $243 $246 $353 reversed $236 $-1 #
coedge $-1 $243 $339 $344 $436 forward $236 $-1 #
vertex $-1 $244 $440 #
straight-curve $-1 46.773888363292336 22.722584123999827 64.611776517316187 0 0 1 I I #
straight-curve $-1 1.2533038074025171e-006 22.722584123999827 82.449665924643824 0.49999998660252726 0 -0.86602541151947299 I I #
edge $-1 $434 15.043534946297829 $248 22.722584123999827 $348 $441 forward 7 unknown #
point $-1 46.773888363292336 22.722584123999827 13.577689523148207 #
point $-1 39.763253947723243 22.722584123999827 13.577689523148209 #
edge $-1 $442 1 $442 0 $251 $-1 forward 7 unknown #
vertex $-1 $252 $443 #
ellipse-curve $-1 42.402545743988298 16.579344781838227 7.0063018191073541 0.86602541151947299 0 0.49999998660252726 0.24999999330126363 0 -0.43301270575973649 1 I I #
point $-1 43.518571148809038 16.579344781838227 7.073289099950145 #
edge $-1 $444 1 $444 0 $255 $-1 forward 7 unknown #
vertex $-1 $256 $445 #
ellipse-curve $-1 42.402545743988298 18.883059535148828 7.0063018191073541 0.86602541151947299 0 0.49999998660252726 0.24999999330126363 0 -0.43301270575973649 1 I I #
point $-1 43.518571148809038 18.883059535148828 7.073289099950145 #
edge $-1 $446 1 $446 0 $259 $-1 forward 7 unknown #
vertex $-1 $260 $447 #
ellipse-curve $-1 42.402545743988298 21.186774288459429 7.0063018191073541 0.86602541151947299 0 0.49999998660252726 0.24999999330126363 0 -0.43301270575973649 1 I I #
point $-1 43.518571148809038 21.186774288459429 7.073289099950145 #
loop $-1 $-1 $271 $263 #
plane-surface $-1 -46.773888363292336 0 0 1 0 0 0 0 -1 forward_v I I I I #
coedge $-1 $371 $266 $268 $375 reversed $172 $-1 #
coedge $-1 $266 $370 $448 $449 reversed $172 $-1 #
coedge $-1 $274 $269 $266 $373 forward $264 $-1 #
edge $-1 $376 -24.131066152109078 $450 -17.120431736539977 $372 $451 forward 7 unknown #
coedge $-1 $268 $267 $379 $452 reversed $108 $-1 #
edge $-1 $453 4.2579321629893116e-014 $376 14.021269206837385 $370 $454 forward 7 unknown #
vertex $-1 $270 $455 #
straight-curve $-1 -39.763253947723236 9.4415297675744139 13.577689523148207 0 1 0 I I #
coedge $-1 $448 $271 $274 $383 reversed $368 $-1 #
coedge $-1 $271 $448 $374 $452 forward $368 $-1 #
vertex $-1 $272 $456 #
straight-curve $-1 -46.773888363292336 15.043534946297829 24.104400599130049 0 0 1 I I #
straight-curve $-1 -46.773888363292357 15.043534946297829 1.4349140882715474 -0.49999998660252726 0 -0.86602541151947299 I I #
edge $-1 $450 -22.722584123999827 $275 -15.043534946297829 $378 $457 forward 7 unknown #
point $-1 -46.773888363292336 15.043534946297829 13.577689523148207 #
point $-1 -39.763253947723236 15.043534946297829 13.577689523148207 #
edge $-1 $458 1 $458 0 $278 $-1 forward 7 unknown #
vertex $-1 $279 $459 #
ellipse-curve $-1 -42.402545743988306 16.579344781838227 7.006301819107347 -0.86602541151947299 0 0.49999998660252726 0.24999999330126363 0 0.43301270575973649 1 I I #
point $-1 -43.018571162206513 16.579344781838227 7.9393145114696102 #
edge $-1 $460 1 $460 0 $282 $-1 forward 7 unknown #
vertex $-1 $283 $461 #
ellipse-curve $-1 -42.402545743988306 18.883059535148828 7.006301819107347 -0.86602541151947299 0 0.49999998660252726 0.24999999330126363 0 0.43301270575973649 1 I I #
point $-1 -43.018571162206513 18.883059535148828 7.9393145114696102 #
edge $-1 $462 1 $462 0 $286 $-1 forward 7 unknown #
vertex $-1 $287 $463 #
ellipse-curve $-1 -42.402545743988306 21.186774288459429 7.006301819107347 -0.86602541151947299 0 0.49999998660252726 0.24999999330126363 0 0.43301270575973649 1 I I #
point $-1 -43.018571162206513 21.186774288459429 7.9393145114696102 #
plane-surface $-1 46.773888363292336 0 0 -1 0 0 0 0 1 forward_v I I I I #
coedge $-1 $295 $293 $297 $403 reversed $201 $-1 #
edge $-1 $308 -13.577689523148207 $405 13.577689523148207 $307 $464 forward 7 unknown #
vertex $-1 $403 $465 #
straight-curve $-1 -46.773888363292336 -27.471790488613461 0 0 0 -1 I I #
edge $-1 $401 -27.471790488613461 $405 27.471790488613461 $399 $466 forward 7 unknown #
straight-curve $-1 0 -27.471790488613461 -13.577689523148207 -1 0 0 I I #
vertex $-1 $300 $467 #
straight-curve $-1 0 27.471790488613461 -13.577689523148207 1 0 0 I I #
point $-1 46.773888363292336 27.471790488613461 -13.577689523148207 #
point $-1 46.773888363292336 -27.471790488613461 -13.577689523148207 #
straight-curve $-1 -46.773888363292336 0 13.577689523148207 0 -1 0 I I #
point $-1 -46.773888363292336 27.471790488613461 13.577689523148207 #
point $-1 -46.773888363292336 -27.471790488613461 13.577689523148207 #
straight-curve $-1 46.773888363292336 -27.471790488613461 0 0 0 -1 I I #
straight-curve $-1 46.773888363292336 27.471790488613461 0 0 0 -1 I I #
loop $-1 $-1 $422 $317 #
plane-surface $-1 -46.773888363292336 0 0 1 0 0 0 0 -1 forward_v I I I I #
coedge $-1 $321 $320 $428 $468 forward $135 $-1 #
edge $-1 $325 9.7918212989422972 $431 27.471790488613461 $324 $469 forward 7 unknown #
coedge $-1 $425 $422 $321 $419 reversed $414 $-1 #
edge $-1 $470 -27.471790488613461 $420 -9.7918212989422972 $418 $471 forward 7 unknown #
vertex $-1 $423 $472 #
straight-curve $-1 0 -9.7918212989422972 -13.577689523148207 1 0 0 I I #
coedge $-1 $418 $327 $323 $423 forward $414 $-1 #
edge $-1 $329 2.4151397595505602 $420 8.2467464289152836 $422 $473 forward 7 unknown #
point $-1 46.773888363292336 -9.7918212989422972 -13.577689523148207 #
coedge $-1 $327 $418 $331 $429 reversed $414 $-1 #
straight-curve $-1 -46.773888363292336 -9.3159029468889401 -7.7460828537834825 0 1 0 I I #
point $-1 -46.773888363292336 -9.7918212989422972 -7.7460828537834825 #
coedge $-1 $332 $331 $416 $468 reversed $318 $-1 #
edge $-1 $333 7.7460828537834825 $470 13.577689523148207 $425 $474 forward 7 unknown #
point $-1 -46.773888363292336 -27.471790488613465 -7.7460828537834825 #
vertex $-1 $335 $475 #
straight-curve $-1 46.773888363292336 -27.471790488613461 0 0 0 -1 I I #
edge $-1 $434 51.034086994167978 $437 63.17686242904459 $339 $476 forward 7 unknown #
vertex $-1 $353 $477 #
straight-curve $-1 40.507376544838039 15.043534946297829 13.577689523148209 1 0 0 I I #
edge $-1 $437 5.6020051787234149 $350 13.281054356425413 $349 $478 forward 7 unknown #
vertex $-1 $436 $479 #
straight-curve $-1 1.2533038074025171e-006 15.043534946297829 82.449665924643824 -0.49999998660252726 0 0.86602541151947299 I I #
point $-1 39.763253947723243 15.043534946297829 13.577689523148209 #
point $-1 46.773888363292336 22.722584123999827 1.4349140882715972 #
straight-curve $-1 46.773888363292336 0 13.577689523148207 0 1 0 I I #
vertex $-1 $356 $480 #
point $-1 42.652545737289564 16.579344781838227 6.5732891133476175 #
vertex $-1 $360 $481 #
point $-1 42.652545737289564 18.883059535148828 6.5732891133476175 #
vertex $-1 $364 $482 #
point $-1 42.652545737289564 21.186774288459429 6.5732891133476175 #
coedge $-1 $379 $378 $371 $449 forward $368 $-1 #
edge $-1 $450 10.526711075981842 $453 22.669486510858466 $448 $483 forward 7 unknown #
vertex $-1 $383 $484 #
straight-curve $-1 -63.894320099832314 22.722584123999827 13.577689523148205 -1 0 0 I I #
edge $-1 $453 -13.281054356425413 $380 -5.6020051787234149 $379 $485 forward 7 unknown #
vertex $-1 $452 $486 #
straight-curve $-1 -46.773888363292357 22.722584123999827 1.4349140882715474 0.49999998660252726 0 0.86602541151947299 I I #
point $-1 -39.763253947723236 22.722584123999827 13.577689523148207 #
point $-1 -46.773888363292336 15.043534946297829 1.4349140882715843 #
straight-curve $-1 -46.773888363292336 0 13.577689523148207 0 -1 0 I I #
vertex $-1 $386 $487 #
point $-1 -42.15254575068704 16.579344781838227 7.4393145248670827 #
vertex $-1 $390 $488 #
point $-1 -42.15254575068704 18.883059535148828 7.4393145248670827 #
vertex $-1 $394 $489 #
point $-1 -42.15254575068704 21.186774288459429 7.4393145248670827 #
straight-curve $-1 -46.773888363292336 27.471790488613461 0 0 0 -1 I I #
point $-1 -46.773888363292336 -27.471790488613461 -13.577689523148207 #
straight-curve $-1 -46.773888363292336 0 -13.577689523148207 0 1 0 I I #
point $-1 -46.773888363292336 27.471790488613461 -13.577689523148207 #
edge $-1 $431 -46.773888363292336 $470 46.773888363292336 $428 $490 forward 7 unknown #
straight-curve $-1 46.773888363292336 0 -13.577689523148207 0 -1 0 I I #
vertex $-1 $419 $491 #
straight-curve $-1 -46.773888363292336 0 -13.577689523148207 0 1 0 I I #
point $-1 -46.773888363292336 -9.7918212989422972 -13.577689523148207 #
straight-curve $-1 -46.773888363292336 -9.7918212989422972 -5.3309430942329223 0 0 -1 I I #
straight-curve $-1 -46.773888363292336 -27.471790488613461 0 0 0 -1 I I #
point $-1 46.773888363292336 -27.471790488613461 -13.577689523148207 #
straight-curve $-1 46.773888363292336 15.043534946297829 64.611776517316187 0 0 -1 I I #
point $-1 46.773888363292336 15.043534946297829 13.577689523148207 #
straight-curve $-1 46.773888363292343 9.4415297675744139 1.4349140882715758 0 1 0 I I #
point $-1 46.773888363292336 15.043534946297829 1.4349140882715972 #
point $-1 41.969533038228562 16.579344781838227 6.7563018258060898 #
point $-1 41.969533038228562 18.883059535148828 6.7563018258060898 #
point $-1 41.969533038228562 21.186774288459429 6.7563018258060898 #
straight-curve $-1 -46.773888363292336 22.722584123999827 24.104400599130049 0 0 -1 I I #
point $-1 -46.773888363292336 22.722584123999827 13.577689523148207 #
straight-curve $-1 -46.773888363292336 9.4415297675744139 1.4349140882715825 0 -1 0 I I #
point $-1 -46.773888363292336 22.722584123999827 1.4349140882715843 #
point $-1 -41.969533038228569 16.579344781838227 6.7563018258060827 #
point $-1 -41.969533038228569 18.883059535148828 6.7563018258060827 #
point $-1 -41.969533038228569 21.186774288459429 6.7563018258060827 #
straight-curve $-1 0 -27.471790488613461 -13.577689523148207 -1 0 0 I I #
point $-1 -46.773888363292336 -27.471790488613461 -13.577689523148207 #
End-of-ACIS-data 