500 0 2 0           
7 Unknown 11 ACIS 5.0 NT 24 Fri Mar 26 17:25:00 1999 
-1 9.9999999999999995e-007 1e-010 
body $-1 $2 $-1 $3 #
body $-1 $4 $-1 $5 #
lump $-1 $-1 $6 $0 #
transform $-1 1 0 0 0 1 0 0 0 1 63.003631702627644 40.016256657783003 19.987611555557027 1 rotate no_reflect no_shear #
lump $-1 $-1 $7 $1 #
transform $-1 1 0 0 0 1 0 0 0 1 63.003631702627644 40.016256657783003 19.987611555557027 1 rotate no_reflect no_shear #
shell $-1 $-1 $-1 $8 $-1 $2 #
shell $-1 $-1 $-1 $9 $-1 $4 #
face $-1 $10 $11 $6 $-1 $12 forward single #
face $-1 $13 $14 $7 $-1 $15 reversed single #
face $-1 $16 $17 $6 $-1 $18 reversed single #
loop $-1 $-1 $19 $8 #
plane-surface $-1 0 0 19.987611555557027 0 0 1 1 0 0 forward_v I I I I #
face $-1 $20 $21 $7 $-1 $22 reversed single #
loop $-1 $-1 $23 $9 #
plane-surface $-1 -34.567873383563345 -32.828530496745657 0 1 0 0 0 0 -1 forward_v I I I I #
face $-1 $24 $25 $6 $-1 $26 reversed single #
loop $-1 $-1 $27 $10 #
plane-surface $-1 0 0 -19.987611555557027 0 0 1 1 0 0 forward_v I I I I #
coedge $-1 $28 $29 $30 $31 forward $11 $-1 #
face $-1 $32 $33 $7 $-1 $34 reversed single #
loop $-1 $-1 $35 $13 #
plane-surface $-1 -28.798140987538467 -25.64080433570831 0 0 -1 0 0 0 -1 forward_v I I I I #
coedge $-1 $36 $37 $38 $39 forward $14 $-1 #
face $-1 $40 $41 $6 $-1 $42 reversed single #
loop $-1 $-1 $43 $16 #
plane-surface $-1 0 -40.016256657783003 0 0 1 0 0 0 1 forward_v I I I I #
coedge $-1 $44 $45 $46 $47 forward $17 $-1 #
coedge $-1 $48 $19 $49 $50 forward $11 $-1 #
coedge $-1 $19 $48 $51 $52 forward $11 $-1 #
coedge $-1 $53 $54 $19 $31 reversed $55 $-1 #
edge $-1 $56 -40.016256657783003 $57 40.016256657783003 $30 $58 forward 7 unknown #
face $-1 $59 $60 $7 $-1 $61 forward single #
loop $-1 $-1 $62 $20 #
plane-surface $-1 -23.028408591513589 -32.828530496745657 0 -1 0 0 0 0 1 forward_v I I I I #
coedge $-1 $63 $64 $65 $66 forward $21 $-1 #
coedge $-1 $67 $23 $68 $69 reversed $14 $-1 #
coedge $-1 $23 $67 $70 $71 reversed $14 $-1 #
coedge $-1 $64 $63 $23 $39 reversed $21 $-1 #
edge $-1 $72 -19.987611555557027 $73 19.987611555557027 $38 $74 forward 7 unknown #
face $-1 $75 $76 $6 $-1 $77 reversed single #
loop $-1 $-1 $78 $24 #
plane-surface $-1 -63.003631702627644 0 0 1 0 0 0 0 -1 forward_v I I I I #
coedge $-1 $79 $51 $80 $81 forward $25 $-1 #
coedge $-1 $82 $27 $79 $83 forward $17 $-1 #
coedge $-1 $27 $82 $84 $85 forward $17 $-1 #
coedge $-1 $54 $53 $27 $47 reversed $55 $-1 #
edge $-1 $86 -40.016256657783003 $87 40.016256657783003 $46 $88 forward 7 unknown #
coedge $-1 $29 $28 $89 $90 forward $11 $-1 #
coedge $-1 $91 $92 $28 $50 reversed $76 $-1 #
edge $-1 $57 -63.003631702627644 $93 63.003631702627644 $49 $94 forward 7 unknown #
coedge $-1 $43 $95 $29 $52 reversed $25 $-1 #
edge $-1 $96 -63.003631702627644 $56 63.003631702627644 $51 $97 forward 7 unknown #
coedge $-1 $46 $30 $95 $98 forward $55 $-1 #
coedge $-1 $30 $46 $91 $99 reversed $55 $-1 #
loop $-1 $-1 $53 $75 #
vertex $-1 $31 $100 #
vertex $-1 $31 $101 #
straight-curve $-1 63.003631702627644 0 19.987611555557027 0 1 0 I I #
face $-1 $102 $103 $7 $-1 $104 reversed single #
loop $-1 $-1 $105 $32 #
plane-surface $-1 0 0 19.987611555557027 0 0 1 1 0 0 forward_v I I I I #
coedge $-1 $106 $107 $108 $109 reversed $33 $-1 #
coedge $-1 $38 $35 $110 $111 reversed $21 $-1 #
coedge $-1 $35 $38 $112 $113 reversed $21 $-1 #
coedge $-1 $107 $106 $35 $66 reversed $33 $-1 #
edge $-1 $114 -19.987611555557027 $115 19.987611555557027 $65 $116 forward 7 unknown #
coedge $-1 $37 $36 $117 $118 reversed $14 $-1 #
coedge $-1 $110 $119 $36 $69 forward $103 $-1 #
edge $-1 $120 -23.601991409410175 $73 -9.2265390873354818 $68 $121 forward 7 unknown #
coedge $-1 $122 $112 $37 $71 forward $60 $-1 #
edge $-1 $72 9.2265390873354818 $123 23.601991409410175 $70 $124 forward 7 unknown #
vertex $-1 $71 $125 #
vertex $-1 $69 $126 #
straight-curve $-1 -34.567873383563345 -25.64080433570831 0 0 0 -1 I I #
face $-1 $-1 $55 $6 $-1 $127 reversed single #
loop $-1 $-1 $91 $40 #
plane-surface $-1 0 40.016256657783003 0 0 -1 0 0 0 -1 forward_v I I I I #
coedge $-1 $128 $89 $92 $129 forward $41 $-1 #
coedge $-1 $95 $43 $44 $83 reversed $25 $-1 #
coedge $-1 $89 $128 $43 $81 reversed $41 $-1 #
edge $-1 $96 -19.987611555557027 $130 19.987611555557027 $80 $131 forward 7 unknown #
coedge $-1 $45 $44 $128 $132 forward $17 $-1 #
edge $-1 $87 -63.003631702627644 $130 63.003631702627644 $79 $133 forward 7 unknown #
coedge $-1 $92 $91 $45 $85 reversed $76 $-1 #
edge $-1 $134 -63.003631702627644 $86 63.003631702627644 $84 $135 forward 7 unknown #
vertex $-1 $47 $136 #
vertex $-1 $98 $137 #
straight-curve $-1 63.003631702627644 0 -19.987611555557027 0 -1 0 I I #
coedge $-1 $78 $80 $48 $90 reversed $41 $-1 #
edge $-1 $93 -40.016256657783003 $96 40.016256657783003 $89 $138 forward 7 unknown #
coedge $-1 $84 $49 $54 $99 forward $76 $-1 #
coedge $-1 $49 $84 $78 $129 reversed $76 $-1 #
vertex $-1 $50 $139 #
straight-curve $-1 0 40.016256657783003 19.987611555557027 -1 0 0 I I #
coedge $-1 $51 $79 $53 $98 reversed $25 $-1 #
vertex $-1 $90 $140 #
straight-curve $-1 0 -40.016256657783003 19.987611555557027 1 0 0 I I #
edge $-1 $56 -19.987611555557027 $87 19.987611555557027 $53 $141 forward 7 unknown #
edge $-1 $57 -19.987611555557027 $86 19.987611555557027 $54 $142 forward 7 unknown #
point $-1 63.003631702627644 -40.016256657783003 19.987611555557027 #
point $-1 63.003631702627644 40.016256657783003 19.987611555557027 #
face $-1 $-1 $143 $7 $-1 $144 reversed single #
loop $-1 $-1 $145 $59 #
plane-surface $-1 0 0 -19.987611555557027 0 0 1 1 0 0 forward_v I I I I #
coedge $-1 $112 $122 $107 $146 forward $60 $-1 #
coedge $-1 $65 $62 $145 $147 reversed $33 $-1 #
coedge $-1 $62 $65 $105 $146 reversed $33 $-1 #
coedge $-1 $148 $149 $62 $109 forward $143 $-1 #
edge $-1 $150 -19.987611555557027 $151 19.987611555557027 $108 $152 forward 7 unknown #
coedge $-1 $145 $68 $63 $111 forward $103 $-1 #
edge $-1 $73 -20.168802889794112 $115 -8.6293380977443555 $110 $153 forward 7 unknown #
coedge $-1 $70 $105 $64 $113 forward $60 $-1 #
edge $-1 $114 8.6293380977443555 $72 20.168802889794112 $112 $154 forward 7 unknown #
vertex $-1 $113 $155 #
vertex $-1 $111 $156 #
straight-curve $-1 -23.028408591513589 -25.64080433570831 0 0 0 -1 I I #
coedge $-1 $149 $148 $67 $118 forward $143 $-1 #
edge $-1 $123 -19.987611555557027 $120 19.987611555557027 $117 $157 forward 7 unknown #
coedge $-1 $68 $145 $149 $158 forward $103 $-1 #
vertex $-1 $69 $159 #
straight-curve $-1 -34.567873383563345 -16.414265248372828 -19.987611555557027 0 1 0 I I #
coedge $-1 $105 $70 $148 $160 forward $60 $-1 #
vertex $-1 $160 $161 #
straight-curve $-1 -34.567873383563345 -16.414265248372828 19.987611555557027 0 -1 0 I I #
point $-1 -34.567873383563345 -25.64080433570831 19.987611555557027 #
point $-1 -34.567873383563345 -25.64080433570831 -19.987611555557027 #
plane-surface $-1 63.003631702627644 0 0 -1 0 0 0 0 1 forward_v I I I I #
coedge $-1 $80 $78 $82 $132 reversed $41 $-1 #
edge $-1 $93 -19.987611555557027 $134 19.987611555557027 $92 $162 forward 7 unknown #
vertex $-1 $132 $163 #
straight-curve $-1 -63.003631702627644 -40.016256657783003 0 0 0 -1 I I #
edge $-1 $130 -40.016256657783003 $134 40.016256657783003 $128 $164 forward 7 unknown #
straight-curve $-1 0 -40.016256657783003 -19.987611555557027 -1 0 0 I I #
vertex $-1 $85 $165 #
straight-curve $-1 0 40.016256657783003 -19.987611555557027 1 0 0 I I #
point $-1 63.003631702627644 40.016256657783003 -19.987611555557027 #
point $-1 63.003631702627644 -40.016256657783003 -19.987611555557027 #
straight-curve $-1 -63.003631702627644 0 19.987611555557027 0 -1 0 I I #
point $-1 -63.003631702627644 40.016256657783003 19.987611555557027 #
point $-1 -63.003631702627644 -40.016256657783003 19.987611555557027 #
straight-curve $-1 63.003631702627644 -40.016256657783003 0 0 0 -1 I I #
straight-curve $-1 63.003631702627644 40.016256657783003 0 0 0 -1 I I #
loop $-1 $-1 $108 $102 #
plane-surface $-1 0 -40.016256657783003 0 0 1 0 0 0 1 forward_v I I I I #
coedge $-1 $119 $110 $106 $147 forward $103 $-1 #
edge $-1 $151 -23.601991409410175 $114 -9.2265390873354818 $105 $166 forward 7 unknown #
edge $-1 $115 9.2265390873354818 $150 23.601991409410175 $145 $167 forward 7 unknown #
coedge $-1 $117 $108 $122 $160 reversed $143 $-1 #
coedge $-1 $108 $117 $119 $158 reversed $143 $-1 #
vertex $-1 $158 $168 #
vertex $-1 $109 $169 #
straight-curve $-1 -23.028408591513589 -40.016256657783003 0 0 0 1 I I #
straight-curve $-1 -14.399070493769234 -25.64080433570831 -19.987611555557027 1 0 0 I I #
straight-curve $-1 -14.399070493769234 -25.64080433570831 19.987611555557027 -1 0 0 I I #
point $-1 -23.028408591513589 -25.64080433570831 19.987611555557027 #
point $-1 -23.028408591513589 -25.64080433570831 -19.987611555557027 #
straight-curve $-1 -34.567873383563345 -40.016256657783003 0 0 0 -1 I I #
edge $-1 $150 23.028408591513589 $120 34.567873383563345 $149 $170 forward 7 unknown #
point $-1 -34.567873383563345 -40.016256657783003 -19.987611555557027 #
edge $-1 $123 -34.567873383563345 $151 -23.028408591513589 $148 $171 forward 7 unknown #
point $-1 -34.567873383563345 -40.016256657783003 19.987611555557027 #
straight-curve $-1 -63.003631702627644 40.016256657783003 0 0 0 -1 I I #
point $-1 -63.003631702627644 -40.016256657783003 -19.987611555557027 #
straight-curve $-1 -63.003631702627644 0 -19.987611555557027 0 1 0 I I #
point $-1 -63.003631702627644 40.016256657783003 -19.987611555557027 #
straight-curve $-1 -23.028408591513589 -16.414265248372828 19.987611555557027 0 1 0 I I #
straight-curve $-1 -23.028408591513589 -16.414265248372828 -19.987611555557027 0 -1 0 I I #
point $-1 -23.028408591513589 -40.016256657783003 -19.987611555557027 #
point $-1 -23.028408591513589 -40.016256657783003 19.987611555557027 #
straight-curve $-1 0 -40.016256657783003 -19.987611555557027 -1 0 0 I I #
straight-curve $-1 0 -40.016256657783003 19.987611555557027 1 0 0 I I #
End-of-ACIS-data 