500 0 10 0           
7 Unknown 11 ACIS 5.0 NT 24 Thu Mar 25 20:22:28 1999 
-1 9.9999999999999995e-007 1e-010 
body $-1 $10 $-1 $11 #
body $-1 $12 $-1 $13 #
body $-1 $14 $-1 $15 #
body $-1 $16 $-1 $17 #
body $-1 $18 $-1 $19 #
body $-1 $20 $-1 $21 #
body $-1 $22 $-1 $23 #
body $-1 $24 $-1 $25 #
body $-1 $26 $-1 $27 #
body $-1 $28 $-1 $29 #
lump $-1 $-1 $30 $0 #
transform $-1 1 0 0 0 1 0 0 0 1 69.195226905117948 47.744854385994536 22.010688234624965 1 rotate no_reflect no_shear #
lump $-1 $-1 $31 $1 #
transform $-1 1 0 0 0 1 0 0 0 1 69.195226905117948 47.744854385994536 22.010688234624965 1 rotate no_reflect no_shear #
lump $-1 $-1 $32 $2 #
transform $-1 1 0 0 0 1 0 0 0 1 69.195226905117948 47.744854385994536 22.010688234624965 1 rotate no_reflect no_shear #
lump $-1 $-1 $33 $3 #
transform $-1 1 0 0 0 1 0 0 0 1 69.195226905117948 47.744854385994536 22.010688234624965 1 rotate no_reflect no_shear #
lump $-1 $-1 $34 $4 #
transform $-1 1 0 0 0 1 0 0 0 1 69.195226905117948 47.744854385994536 22.010688234624965 1 rotate no_reflect no_shear #
lump $-1 $-1 $35 $5 #
transform $-1 1 0 0 0 1 0 0 0 1 69.195226905117948 47.744854385994536 22.010688234624965 1 rotate no_reflect no_shear #
lump $-1 $-1 $36 $6 #
transform $-1 1 0 0 0 1 0 0 0 1 69.195226905117948 47.744854385994536 22.010688234624965 1 rotate no_reflect no_shear #
lump $-1 $-1 $37 $7 #
transform $-1 1 0 0 0 1 0 0 0 1 69.195226905117948 47.744854385994536 22.010688234624965 1 rotate no_reflect no_shear #
lump $-1 $-1 $38 $8 #
transform $-1 1 0 0 0 1 0 0 0 1 69.195226905117948 47.744854385994536 22.010688234624965 1 rotate no_reflect no_shear #
lump $-1 $-1 $39 $9 #
transform $-1 1 0 0 0 1 0 0 0 1 69.195226905117948 47.744854385994536 22.010688234624965 1 rotate no_reflect no_shear #
shell $-1 $-1 $-1 $40 $-1 $10 #
shell $-1 $-1 $-1 $41 $-1 $12 #
shell $-1 $-1 $-1 $42 $-1 $14 #
shell $-1 $-1 $-1 $43 $-1 $16 #
shell $-1 $-1 $-1 $44 $-1 $18 #
shell $-1 $-1 $-1 $45 $-1 $20 #
shell $-1 $-1 $-1 $46 $-1 $22 #
shell $-1 $-1 $-1 $47 $-1 $24 #
shell $-1 $-1 $-1 $48 $-1 $26 #
shell $-1 $-1 $-1 $49 $-1 $28 #
face $-1 $50 $51 $30 $-1 $52 forward single #
face $-1 $53 $54 $31 $-1 $55 reversed single #
face $-1 $56 $57 $32 $-1 $58 reversed single #
face $-1 $59 $60 $33 $-1 $61 reversed single #
face $-1 $62 $63 $34 $-1 $64 forward single #
face $-1 $65 $66 $35 $-1 $67 forward single #
face $-1 $68 $69 $36 $-1 $70 forward single #
face $-1 $71 $72 $37 $-1 $73 reversed single #
face $-1 $74 $75 $38 $-1 $76 forward single #
face $-1 $77 $78 $39 $-1 $79 forward single #
face $-1 $80 $81 $30 $-1 $82 reversed single #
loop $-1 $-1 $83 $40 #
plane-surface $-1 0 0 22.010688234624965 0 0 1 1 0 0 forward_v I I I I #
face $-1 $84 $85 $31 $-1 $86 reversed single #
loop $-1 $-1 $87 $41 #
plane-surface $-1 0 -37.818159606324002 12.824465330978299 0 0 1 1 0 0 forward_v I I I I #
face $-1 $88 $89 $32 $-1 $90 reversed single #
loop $-1 $-1 $91 $42 #
plane-surface $-1 0 37.818159606323995 12.824465330978299 0 0 1 1 0 0 forward_v I I I I #
face $-1 $92 $93 $33 $-1 $94 reversed single #
loop $-1 $-1 $95 $43 #
plane-surface $-1 76.025537391361496 22.383800359617616 203.86951007301417 0 -1 0 -0.73135370988377701 0 -0.68199835119979291 forward_v I I I I #
face $-1 $96 $97 $34 $-1 $98 forward single #
loop $-1 $99 $100 $44 #
cone-surface $-1 61.424642393256697 11.084754563935 13.868831744266771 -0.73135370988377701 0 -0.68199835119979291 0.68199835119979291 0 -0.73135370988377701 1 I I 0 1 1 forward I I I I #
face $-1 $101 $102 $35 $-1 $103 forward single #
loop $-1 $104 $105 $45 #
cone-surface $-1 61.424642393256697 15.321896737315981 13.868831744266771 -0.73135370988377701 0 -0.68199835119979291 0.68199835119979291 0 -0.73135370988377701 1 I I 0 1 1 forward I I I I #
face $-1 $106 $107 $36 $-1 $108 forward single #
loop $-1 $109 $110 $46 #
cone-surface $-1 61.424642393256697 19.559038910696962 13.868831744266771 -0.73135370988377701 0 -0.68199835119979291 0.68199835119979291 0 -0.73135370988377701 1 I I 0 1 1 forward I I I I #
face $-1 $111 $112 $37 $-1 $113 reversed single #
loop $-1 $-1 $114 $47 #
plane-surface $-1 -170.40759871173344 1.1768512198410122 99.615845876924325 0 1 0 -0.73135370988377701 0 0.68199835119979291 forward_v I I I I #
face $-1 $115 $116 $38 $-1 $117 forward single #
loop $-1 $118 $119 $48 #
cone-surface $-1 -59.586490842103011 4.7510399172095532 11.956411662245646 0.73135370988377701 0 -0.68199835119979291 1.0229975267996894 0 1.0970305648256655 1 I I 0 1 1.5 forward I I I I #
face $-1 $120 $121 $39 $-1 $122 forward single #
loop $-1 $123 $124 $49 #
cone-surface $-1 -59.586490842103011 10.112322963262365 11.956411662245646 0.73135370988377701 0 -0.68199835119979291 1.0229975267996894 0 1.0970305648256655 1 I I 0 1 1.5 forward I I I I #
face $-1 $125 $126 $30 $-1 $127 reversed single #
loop $-1 $-1 $128 $50 #
plane-surface $-1 0 0 -22.010688234624965 0 0 1 1 0 0 forward_v I I I I #
coedge $-1 $129 $130 $131 $132 forward $51 $-1 #
face $-1 $133 $134 $31 $-1 $135 reversed single #
loop $-1 $-1 $136 $53 #
plane-surface $-1 0 -27.891464826653468 17.417576782801632 0 -1 0 0 0 -1 forward_v I I I I #
coedge $-1 $137 $138 $139 $140 reversed $54 $-1 #
face $-1 $141 $142 $32 $-1 $143 forward single #
loop $-1 $-1 $144 $56 #
plane-surface $-1 0 27.891464826653461 17.417576782801632 0 1 0 0 0 1 forward_v I I I I #
coedge $-1 $145 $146 $147 $148 reversed $57 $-1 #
face $-1 $149 $150 $33 $-1 $151 reversed single #
loop $-1 $-1 $152 $59 #
plane-surface $-1 -25.186834415254012 15.321896737315981 109.48744875264219 0.73135370988377701 0 0.68199835119979291 0.68199835119979291 0 -0.73135370988377701 forward_v I I I I #
coedge $-1 $153 $154 $155 $156 reversed $60 $-1 #
face $-1 $-1 $157 $34 $-1 $158 forward single #
loop $-1 $159 $160 $62 #
cone-surface $-1 59.692713242826642 11.084754563935 12.253781722607812 -0.73135370988377701 0 -0.68199835119979291 0.34099917559989645 0 -0.36567685494188851 1 I I -0.70710678118654746 0.70710678118654746 0.5 forward I I I I #
loop $-1 $-1 $161 $44 #
coedge $-1 $100 $100 $162 $163 reversed $63 $-1 #
face $-1 $-1 $164 $35 $-1 $165 forward single #
loop $-1 $166 $167 $65 #
cone-surface $-1 59.692713242826642 15.321896737315981 12.253781722607812 -0.73135370988377701 0 -0.68199835119979291 0.34099917559989645 0 -0.36567685494188851 1 I I -0.70710678118654746 0.70710678118654746 0.5 forward I I I I #
loop $-1 $-1 $168 $45 #
coedge $-1 $105 $105 $169 $170 reversed $66 $-1 #
face $-1 $-1 $171 $36 $-1 $172 forward single #
loop $-1 $173 $174 $68 #
cone-surface $-1 59.692713242826642 19.559038910696962 12.253781722607812 -0.73135370988377701 0 -0.68199835119979291 0.34099917559989645 0 -0.36567685494188851 1 I I -0.70710678118654746 0.70710678118654746 0.5 forward I I I I #
loop $-1 $-1 $175 $46 #
coedge $-1 $110 $110 $176 $177 reversed $69 $-1 #
face $-1 $178 $179 $37 $-1 $180 reversed single #
loop $-1 $-1 $181 $71 #
plane-surface $-1 -69.195226905117934 7.4316814402359626 5.2337845565523509 -0.73135370988377701 0 0.68199835119979291 0.68199835119979291 0 0.73135370988377701 forward_v I I I I #
coedge $-1 $182 $183 $184 $185 reversed $72 $-1 #
face $-1 $-1 $186 $38 $-1 $187 forward single #
loop $-1 $188 $189 $74 #
cone-surface $-1 -57.251597195866722 4.7510399172095532 9.7790881655027704 0.73135370988377701 0 -0.68199835119979291 0.51149876339984468 0 0.54851528241283276 1 I I -0.70710678118654757 0.70710678118654757 0.75 forward I I I I #
loop $-1 $-1 $190 $48 #
coedge $-1 $119 $119 $191 $192 reversed $75 $-1 #
face $-1 $-1 $193 $39 $-1 $194 forward single #
loop $-1 $195 $196 $77 #
cone-surface $-1 -57.251597195866722 10.112322963262365 9.7790881655027704 0.73135370988377701 0 -0.68199835119979291 0.51149876339984468 0 0.54851528241283276 1 I I -0.70710678118654757 0.70710678118654757 0.75 forward I I I I #
loop $-1 $-1 $197 $49 #
coedge $-1 $124 $124 $198 $199 reversed $78 $-1 #
face $-1 $200 $201 $30 $-1 $202 reversed single #
loop $-1 $-1 $203 $80 #
plane-surface $-1 0 -47.744854385994536 0 0 1 0 0 0 1 forward_v I I I I #
coedge $-1 $204 $205 $206 $207 forward $81 $-1 #
coedge $-1 $208 $83 $209 $210 forward $51 $-1 #
coedge $-1 $83 $208 $211 $212 forward $51 $-1 #
coedge $-1 $213 $214 $83 $132 reversed $215 $-1 #
edge $-1 $216 -47.744854385994536 $217 47.744854385994536 $131 $218 forward 7 unknown #
face $-1 $219 $220 $31 $-1 $221 reversed single #
loop $-1 $-1 $222 $84 #
plane-surface $-1 -69.195226905117948 0 0 1 0 0 0 0 -1 forward_v I I I I #
coedge $-1 $223 $224 $225 $226 reversed $85 $-1 #
coedge $-1 $227 $87 $228 $229 reversed $54 $-1 #
coedge $-1 $87 $227 $223 $230 forward $54 $-1 #
coedge $-1 $225 $231 $87 $140 forward $232 $-1 #
edge $-1 $233 -28.835774582832535 $234 -8.9823850234914673 $139 $235 forward 7 unknown #
face $-1 $236 $237 $32 $-1 $238 reversed single #
loop $-1 $-1 $239 $88 #
plane-surface $-1 0 0 22.010688234624965 0 0 1 1 0 0 forward_v I I I I #
coedge $-1 $240 $241 $242 $243 reversed $89 $-1 #
coedge $-1 $244 $91 $240 $245 forward $57 $-1 #
coedge $-1 $91 $244 $246 $247 reversed $57 $-1 #
coedge $-1 $248 $249 $91 $148 forward $237 $-1 #
edge $-1 $250 8.9823850234914637 $251 28.835774582832531 $147 $252 forward 7 unknown #
face $-1 $253 $254 $33 $-1 $255 forward single #
loop $-1 $-1 $256 $92 #
plane-surface $-1 76.025537391361496 8.2599931150143462 203.86951007301417 0 1 0 0.73135370988377701 0 0.68199835119979291 forward_v I I I I #
coedge $-1 $257 $258 $259 $260 reversed $93 $-1 #
coedge $-1 $154 $95 $261 $262 reversed $60 $-1 #
coedge $-1 $95 $153 $257 $263 reversed $60 $-1 #
coedge $-1 $259 $264 $95 $156 forward $254 $-1 #
edge $-1 $265 -31.1824582094372 $266 -18.373793776691059 $155 $267 forward 7 unknown #
loop $-1 $-1 $162 $96 #
plane-surface $-1 -25.186834415254012 15.321896737315981 109.48744875264219 0.73135370988377701 0 0.68199835119979291 0.68199835119979291 0 -0.73135370988377701 forward_v I I I I #
loop $-1 $-1 $268 $62 #
coedge $-1 $160 $160 $161 $269 reversed $97 $-1 #
coedge $-1 $161 $161 $160 $269 forward $99 $-1 #
coedge $-1 $162 $162 $100 $163 forward $157 $-1 #
edge $-1 $270 0 $270 6.2831853071796004 $162 $271 forward 7 unknown #
loop $-1 $-1 $169 $101 #
plane-surface $-1 -25.186834415254012 15.321896737315981 109.48744875264219 0.73135370988377701 0 0.68199835119979291 0.68199835119979291 0 -0.73135370988377701 forward_v I I I I #
loop $-1 $-1 $272 $65 #
coedge $-1 $167 $167 $168 $273 reversed $102 $-1 #
coedge $-1 $168 $168 $167 $273 forward $104 $-1 #
coedge $-1 $169 $169 $105 $170 forward $164 $-1 #
edge $-1 $274 0 $274 6.2831853071796004 $169 $275 forward 7 unknown #
loop $-1 $-1 $176 $106 #
plane-surface $-1 -25.186834415254012 15.321896737315981 109.48744875264219 0.73135370988377701 0 0.68199835119979291 0.68199835119979291 0 -0.73135370988377701 forward_v I I I I #
loop $-1 $-1 $276 $68 #
coedge $-1 $174 $174 $175 $277 reversed $107 $-1 #
coedge $-1 $175 $175 $174 $277 forward $109 $-1 #
coedge $-1 $176 $176 $110 $177 forward $171 $-1 #
edge $-1 $278 0 $278 6.2831853071796004 $176 $279 forward 7 unknown #
face $-1 $280 $281 $37 $-1 $282 reversed single #
loop $-1 $-1 $283 $111 #
plane-surface $-1 -170.40759871173344 13.686511660630913 99.615845876924325 0 -1 0 0.73135370988377701 0 -0.68199835119979291 forward_v I I I I #
coedge $-1 $284 $285 $286 $287 reversed $112 $-1 #
coedge $-1 $183 $114 $288 $289 reversed $72 $-1 #
coedge $-1 $114 $182 $284 $290 reversed $72 $-1 #
coedge $-1 $286 $291 $114 $185 forward $292 $-1 #
edge $-1 $293 16.008572450748773 $294 31.653287849131793 $184 $295 forward 7 unknown #
loop $-1 $-1 $191 $115 #
plane-surface $-1 -69.195226905117934 7.4316814402359626 5.2337845565523509 -0.73135370988377701 0 0.68199835119979291 0.68199835119979291 0 0.73135370988377701 forward_v I I I I #
loop $-1 $-1 $296 $74 #
coedge $-1 $189 $189 $190 $297 reversed $116 $-1 #
coedge $-1 $190 $190 $189 $297 forward $118 $-1 #
coedge $-1 $191 $191 $119 $192 forward $186 $-1 #
edge $-1 $298 0 $298 6.2831853071796004 $191 $299 forward 7 unknown #
loop $-1 $-1 $198 $120 #
plane-surface $-1 -69.195226905117934 7.4316814402359626 5.2337845565523509 -0.73135370988377701 0 0.68199835119979291 0.68199835119979291 0 0.73135370988377701 forward_v I I I I #
loop $-1 $-1 $300 $77 #
coedge $-1 $196 $196 $197 $301 reversed $121 $-1 #
coedge $-1 $197 $197 $196 $301 forward $123 $-1 #
coedge $-1 $198 $198 $124 $199 forward $193 $-1 #
edge $-1 $302 0 $302 6.2831853071796004 $198 $303 forward 7 unknown #
face $-1 $304 $305 $30 $-1 $306 reversed single #
loop $-1 $-1 $307 $125 #
plane-surface $-1 -69.195226905117948 0 0 1 0 0 0 0 -1 forward_v I I I I #
coedge $-1 $308 $211 $309 $310 forward $126 $-1 #
coedge $-1 $311 $128 $308 $312 forward $81 $-1 #
coedge $-1 $128 $311 $313 $314 forward $81 $-1 #
coedge $-1 $214 $213 $128 $207 reversed $215 $-1 #
edge $-1 $315 -47.744854385994536 $316 47.744854385994536 $206 $317 forward 7 unknown #
coedge $-1 $130 $129 $318 $319 forward $51 $-1 #
coedge $-1 $320 $321 $129 $210 reversed $305 $-1 #
edge $-1 $217 -69.195226905117948 $322 69.195226905117948 $209 $323 forward 7 unknown #
coedge $-1 $203 $324 $130 $212 reversed $126 $-1 #
edge $-1 $325 -69.195226905117948 $216 69.195226905117948 $211 $326 forward 7 unknown #
coedge $-1 $206 $131 $324 $327 forward $215 $-1 #
coedge $-1 $131 $206 $320 $328 reversed $215 $-1 #
loop $-1 $-1 $213 $304 #
vertex $-1 $132 $329 #
vertex $-1 $132 $330 #
straight-curve $-1 69.195226905117948 0 22.010688234624965 0 1 0 I I #
face $-1 $331 $332 $31 $-1 $333 forward single #
loop $-1 $-1 $228 $133 #
plane-surface $-1 0 -47.744854385994536 0 0 1 0 0 0 1 forward_v I I I I #
coedge $-1 $334 $335 $336 $337 forward $134 $-1 #
coedge $-1 $336 $136 $138 $230 reversed $85 $-1 #
coedge $-1 $136 $336 $338 $339 reversed $85 $-1 #
coedge $-1 $340 $139 $136 $226 forward $232 $-1 #
edge $-1 $234 4.115676939577483 $341 13.301899843224149 $225 $342 forward 7 unknown #
coedge $-1 $138 $137 $334 $343 reversed $54 $-1 #
coedge $-1 $344 $345 $137 $229 forward $220 $-1 #
edge $-1 $346 -69.195226905117948 $233 69.195226905117948 $228 $347 forward 7 unknown #
edge $-1 $348 -69.195226905117948 $234 69.195226905117948 $223 $349 forward 7 unknown #
coedge $-1 $139 $340 $344 $350 forward $232 $-1 #
loop $-1 $-1 $225 $331 #
vertex $-1 $229 $351 #
vertex $-1 $140 $352 #
straight-curve $-1 69.195226905117948 -18.909079803162001 12.824465330978299 0 1 0 I I #
face $-1 $353 $354 $32 $-1 $355 reversed single #
loop $-1 $-1 $249 $141 #
plane-surface $-1 69.195226905117948 0 0 -1 0 0 0 0 1 forward_v I I I I #
coedge $-1 $356 $357 $241 $358 forward $142 $-1 #
coedge $-1 $359 $144 $145 $245 reversed $89 $-1 #
coedge $-1 $144 $359 $239 $358 reversed $89 $-1 #
coedge $-1 $360 $361 $144 $243 forward $354 $-1 #
edge $-1 $362 4.115676939577483 $363 13.301899843224149 $242 $364 forward 7 unknown #
coedge $-1 $146 $145 $361 $365 reversed $57 $-1 #
edge $-1 $250 -69.195226905117948 $362 69.195226905117948 $240 $366 forward 7 unknown #
coedge $-1 $367 $368 $146 $247 forward $369 $-1 #
edge $-1 $251 -69.195226905117948 $370 69.195226905117948 $246 $371 forward 7 unknown #
coedge $-1 $372 $147 $368 $373 reversed $237 $-1 #
coedge $-1 $147 $372 $359 $374 forward $237 $-1 #
vertex $-1 $148 $375 #
vertex $-1 $247 $376 #
straight-curve $-1 69.195226905117948 18.909079803161998 12.824465330978299 0 1 0 I I #
face $-1 $-1 $377 $33 $-1 $378 reversed single #
loop $-1 $-1 $155 $149 #
plane-surface $-1 0 0 22.010688234624965 0 0 1 1 0 0 forward_v I I I I #
coedge $-1 $379 $380 $381 $382 reversed $150 $-1 #
coedge $-1 $383 $152 $154 $263 forward $93 $-1 #
coedge $-1 $152 $383 $379 $384 forward $93 $-1 #
coedge $-1 $381 $155 $152 $260 forward $254 $-1 #
edge $-1 $266 -14.722851990959626 $385 -0.59904474635635552 $259 $386 forward 7 unknown #
coedge $-1 $387 $388 $153 $262 forward $377 $-1 #
edge $-1 $389 -93.659678090480384 $265 -79.92406680188212 $261 $390 forward 7 unknown #
edge $-1 $266 119.60937551259374 $389 138.39045381023587 $154 $391 forward 7 unknown #
coedge $-1 $155 $381 $387 $392 forward $254 $-1 #
vertex $-1 $262 $393 #
vertex $-1 $156 $394 #
straight-curve $-1 38.012768695680748 22.383800359617616 22.010688234624965 -1 0 0 I I #
coedge $-1 $268 $268 $-1 $395 reversed $159 $-1 #
edge $-1 $396 0 $396 6.2831853071796004 $160 $397 forward 7 unknown #
vertex $-1 $163 $398 #
ellipse-curve $-1 62.790894688744878 11.084754563935 15.142882590325847 0.73135370988377701 0 0.68199835119979291 0.68199835119979291 0 -0.73135370988377701 1 I I #
coedge $-1 $272 $272 $-1 $399 reversed $166 $-1 #
edge $-1 $400 0 $400 6.2831853071796004 $167 $401 forward 7 unknown #
vertex $-1 $170 $402 #
ellipse-curve $-1 62.790894688744878 15.321896737315981 15.142882590325847 0.73135370988377701 0 0.68199835119979291 0.68199835119979291 0 -0.73135370988377701 1 I I #
coedge $-1 $276 $276 $-1 $403 reversed $173 $-1 #
edge $-1 $404 0 $404 6.2831853071796004 $174 $405 forward 7 unknown #
vertex $-1 $177 $406 #
ellipse-curve $-1 62.790894688744878 19.559038910696962 15.142882590325847 0.73135370988377701 0 0.68199835119979291 0.68199835119979291 0 -0.73135370988377701 1 I I #
face $-1 $-1 $292 $37 $-1 $407 forward single #
loop $-1 $-1 $408 $178 #
plane-surface $-1 -69.195226905117948 0 0 1 0 0 0 0 -1 forward_v I I I I #
coedge $-1 $409 $410 $411 $412 reversed $179 $-1 #
coedge $-1 $413 $181 $183 $290 forward $112 $-1 #
coedge $-1 $181 $413 $409 $414 forward $112 $-1 #
coedge $-1 $411 $184 $181 $287 forward $292 $-1 #
edge $-1 $294 -2.5389895002769691 $415 9.9706709405129317 $286 $416 forward 7 unknown #
coedge $-1 $417 $418 $182 $289 forward $281 $-1 #
edge $-1 $419 -44.574138381909826 $293 -27.797234703837198 $288 $420 forward 7 unknown #
edge $-1 $294 -22.93952085200841 $419 2.0734513383776317e-014 $183 $421 forward 7 unknown #
coedge $-1 $184 $411 $417 $422 forward $292 $-1 #
loop $-1 $-1 $411 $280 #
vertex $-1 $289 $423 #
vertex $-1 $185 $424 #
straight-curve $-1 -85.203799355866721 1.1768512198410122 22.010688234624965 1 0 0 I I #
coedge $-1 $296 $296 $-1 $425 reversed $188 $-1 #
edge $-1 $426 0 $426 6.2831853071796004 $189 $427 forward 7 unknown #
vertex $-1 $192 $428 #
ellipse-curve $-1 -61.372869205926435 4.7510399172095532 13.622236395588651 -0.73135370988377701 0 0.68199835119979291 1.0229975267996894 0 1.0970305648256655 1 I I #
coedge $-1 $300 $300 $-1 $429 reversed $195 $-1 #
edge $-1 $430 0 $430 6.2831853071796004 $196 $431 forward 7 unknown #
vertex $-1 $199 $432 #
ellipse-curve $-1 -61.372869205926435 10.112322963262365 13.622236395588651 -0.73135370988377701 0 0.68199835119979291 1.0229975267996894 0 1.0970305648256655 1 I I #
face $-1 $-1 $215 $30 $-1 $433 reversed single #
loop $-1 $-1 $320 $200 #
plane-surface $-1 0 47.744854385994536 0 0 -1 0 0 0 -1 forward_v I I I I #
coedge $-1 $434 $318 $321 $435 forward $201 $-1 #
coedge $-1 $324 $203 $204 $312 reversed $126 $-1 #
coedge $-1 $318 $434 $203 $310 reversed $201 $-1 #
edge $-1 $325 -22.010688234624965 $436 22.010688234624965 $309 $437 forward 7 unknown #
coedge $-1 $205 $204 $434 $438 forward $81 $-1 #
edge $-1 $316 -69.195226905117948 $436 69.195226905117948 $308 $439 forward 7 unknown #
coedge $-1 $321 $320 $205 $314 reversed $305 $-1 #
edge $-1 $440 -69.195226905117948 $315 69.195226905117948 $313 $441 forward 7 unknown #
vertex $-1 $207 $442 #
vertex $-1 $327 $443 #
straight-curve $-1 69.195226905117948 0 -22.010688234624965 0 -1 0 I I #
coedge $-1 $307 $309 $208 $319 reversed $201 $-1 #
edge $-1 $322 -47.744854385994536 $325 47.744854385994536 $318 $444 forward 7 unknown #
coedge $-1 $313 $209 $214 $328 forward $305 $-1 #
coedge $-1 $209 $313 $307 $435 reversed $305 $-1 #
vertex $-1 $210 $445 #
straight-curve $-1 0 47.744854385994536 22.010688234624965 -1 0 0 I I #
coedge $-1 $211 $308 $213 $327 reversed $126 $-1 #
vertex $-1 $319 $446 #
straight-curve $-1 0 -47.744854385994536 22.010688234624965 1 0 0 I I #
edge $-1 $216 -22.010688234624965 $316 22.010688234624965 $213 $447 forward 7 unknown #
edge $-1 $217 -22.010688234624965 $315 22.010688234624965 $214 $448 forward 7 unknown #
point $-1 69.195226905117948 -47.744854385994536 22.010688234624965 #
point $-1 69.195226905117948 47.744854385994536 22.010688234624965 #
face $-1 $-1 $232 $31 $-1 $449 reversed single #
loop $-1 $-1 $338 $219 #
plane-surface $-1 0 0 22.010688234624965 0 0 1 1 0 0 forward_v I I I I #
coedge $-1 $450 $222 $227 $343 forward $134 $-1 #
coedge $-1 $222 $450 $451 $452 reversed $134 $-1 #
coedge $-1 $224 $223 $222 $337 reversed $85 $-1 #
edge $-1 $453 -13.301899843224149 $348 -4.115676939577483 $222 $454 forward 7 unknown #
coedge $-1 $451 $455 $224 $339 forward $332 $-1 #
edge $-1 $341 -69.195226905117948 $453 69.195226905117948 $338 $456 forward 7 unknown #
coedge $-1 $231 $225 $455 $457 reversed $232 $-1 #
vertex $-1 $226 $458 #
straight-curve $-1 69.195226905117948 -27.891464826653468 8.708788391400816 0 0 1 I I #
edge $-1 $348 8.9823850234914673 $346 28.835774582832535 $334 $459 forward 7 unknown #
coedge $-1 $460 $228 $231 $350 reversed $220 $-1 #
coedge $-1 $228 $460 $450 $461 forward $220 $-1 #
vertex $-1 $229 $462 #
straight-curve $-1 0 -47.744854385994536 12.824465330978299 1 0 0 I I #
vertex $-1 $343 $463 #
straight-curve $-1 0 -27.891464826653468 12.824465330978299 1 0 0 I I #
edge $-1 $464 -22.010688234624965 $233 -12.824465330978299 $231 $465 forward 7 unknown #
point $-1 69.195226905117948 -47.744854385994536 12.824465330978299 #
point $-1 69.195226905117948 -27.891464826653468 12.824465330978299 #
face $-1 $-1 $369 $32 $-1 $466 reversed single #
loop $-1 $-1 $242 $236 #
plane-surface $-1 -69.195226905117948 0 0 1 0 0 0 0 -1 forward_v I I I I #
coedge $-1 $467 $239 $372 $468 forward $142 $-1 #
coedge $-1 $239 $467 $360 $469 forward $142 $-1 #
edge $-1 $363 -69.195226905117948 $470 69.195226905117948 $239 $471 forward 7 unknown #
coedge $-1 $241 $240 $249 $374 reversed $89 $-1 #
coedge $-1 $472 $242 $357 $469 reversed $354 $-1 #
coedge $-1 $242 $472 $244 $365 forward $354 $-1 #
vertex $-1 $365 $473 #
vertex $-1 $243 $474 #
straight-curve $-1 -69.195226905117948 27.891464826653461 8.708788391400816 0 0 1 I I #
edge $-1 $370 -28.835774582832531 $362 -8.9823850234914637 $361 $475 forward 7 unknown #
straight-curve $-1 0 27.891464826653461 12.824465330978299 -1 0 0 I I #
coedge $-1 $476 $246 $472 $477 reversed $369 $-1 #
coedge $-1 $246 $476 $248 $373 forward $369 $-1 #
loop $-1 $-1 $246 $353 #
vertex $-1 $247 $478 #
straight-curve $-1 0 47.744854385994536 12.824465330978299 -1 0 0 I I #
coedge $-1 $249 $248 $356 $468 reversed $237 $-1 #
edge $-1 $479 -22.010688234624965 $251 -12.824465330978299 $248 $480 forward 7 unknown #
edge $-1 $470 -13.301899843224149 $250 -4.115676939577483 $249 $481 forward 7 unknown #
point $-1 69.195226905117948 27.891464826653461 12.824465330978299 #
point $-1 69.195226905117948 47.744854385994529 12.824465330978299 #
loop $-1 $-1 $261 $253 #
plane-surface $-1 69.195226905117948 0 0 -1 0 0 0 0 1 forward_v I I I I #
coedge $-1 $380 $256 $258 $384 reversed $150 $-1 #
coedge $-1 $256 $379 $482 $483 reversed $150 $-1 #
coedge $-1 $264 $259 $256 $382 forward $254 $-1 #
edge $-1 $385 18.373793776691059 $484 31.1824582094372 $381 $485 forward 7 unknown #
coedge $-1 $258 $257 $388 $486 reversed $93 $-1 #
edge $-1 $487 -138.39045381023587 $385 -119.60937551259374 $379 $488 forward 7 unknown #
vertex $-1 $260 $489 #
straight-curve $-1 56.386562472371807 7.6609483686579907 22.010688234624965 0 -1 0 I I #
coedge $-1 $482 $261 $264 $392 reversed $377 $-1 #
coedge $-1 $261 $482 $383 $486 forward $377 $-1 #
vertex $-1 $262 $490 #
straight-curve $-1 69.195226905117948 22.383800359617616 101.93475503650708 0 0 1 I I #
straight-curve $-1 -25.186834415254012 22.383800359617616 109.48744875264219 0.68199835119979291 0 -0.73135370988377701 I I #
edge $-1 $484 8.2599931150143462 $265 22.383800359617616 $387 $491 forward 7 unknown #
point $-1 69.195226905117948 22.383800359617616 22.010688234624965 #
point $-1 56.386562472371807 22.383800359617616 22.010688234624965 #
edge $-1 $492 1 $492 0 $268 $-1 forward 7 unknown #
vertex $-1 $269 $493 #
ellipse-curve $-1 60.05839009776853 11.084754563935 12.594780898207709 0.73135370988377701 0 0.68199835119979291 0.68199835119979291 0 -0.73135370988377701 1 I I #
point $-1 63.472893039944651 11.084754563935 14.411528880442058 #
edge $-1 $494 1 $494 0 $272 $-1 forward 7 unknown #
vertex $-1 $273 $495 #
ellipse-curve $-1 60.05839009776853 15.321896737315981 12.594780898207709 0.73135370988377701 0 0.68199835119979291 0.68199835119979291 0 -0.73135370988377701 1 I I #
point $-1 63.472893039944651 15.321896737315981 14.411528880442058 #
edge $-1 $496 1 $496 0 $276 $-1 forward 7 unknown #
vertex $-1 $277 $497 #
ellipse-curve $-1 60.05839009776853 19.559038910696962 12.594780898207709 0.73135370988377701 0 0.68199835119979291 0.68199835119979291 0 -0.73135370988377701 1 I I #
point $-1 63.472893039944651 19.559038910696962 14.411528880442058 #
plane-surface $-1 0 0 22.010688234624965 0 0 1 1 0 0 forward_v I I I I #
coedge $-1 $418 $417 $410 $498 forward $281 $-1 #
coedge $-1 $410 $283 $285 $414 reversed $179 $-1 #
coedge $-1 $283 $409 $408 $498 reversed $179 $-1 #
coedge $-1 $291 $286 $283 $412 forward $292 $-1 #
edge $-1 $415 -31.653287849131793 $499 -16.008572450748773 $411 $500 forward 7 unknown #
coedge $-1 $285 $284 $418 $501 reversed $112 $-1 #
edge $-1 $502 -2.0734513383776317e-014 $415 22.93952085200841 $409 $503 forward 7 unknown #
vertex $-1 $287 $504 #
straight-curve $-1 -53.550511506734935 3.7158407201179813 22.010688234624965 0 1 0 I I #
coedge $-1 $408 $288 $291 $422 reversed $281 $-1 #
coedge $-1 $288 $408 $413 $501 forward $281 $-1 #
vertex $-1 $289 $505 #
straight-curve $-1 -69.195226905117948 1.1768512198410122 49.807922938462163 0 0 1 I I #
straight-curve $-1 -69.195226905117934 1.1768512198410122 5.2337845565523509 -0.68199835119979291 0 -0.73135370988377701 I I #
edge $-1 $499 -13.686511660630913 $293 -1.1768512198410122 $417 $506 forward 7 unknown #
point $-1 -69.195226905117948 1.1768512198410122 22.010688234624965 #
point $-1 -53.550511506734928 1.1768512198410122 22.010688234624965 #
edge $-1 $507 1 $507 0 $296 $-1 forward 7 unknown #
vertex $-1 $297 $508 #
ellipse-curve $-1 -57.800112478279559 4.7510399172095532 10.290586928902615 -0.73135370988377701 0 0.68199835119979291 1.0229975267996894 0 1.0970305648256655 1 I I #
point $-1 -60.349871679126771 4.7510399172095532 14.719266960414339 #
edge $-1 $509 1 $509 0 $300 $-1 forward 7 unknown #
vertex $-1 $301 $510 #
ellipse-curve $-1 -57.800112478279559 10.112322963262365 10.290586928902615 -0.73135370988377701 0 0.68199835119979291 1.0229975267996894 0 1.0970305648256655 1 I I #
point $-1 -60.349871679126771 10.112322963262365 14.719266960414339 #
plane-surface $-1 69.195226905117948 0 0 -1 0 0 0 0 1 forward_v I I I I #
coedge $-1 $309 $307 $311 $438 reversed $201 $-1 #
edge $-1 $322 -22.010688234624965 $440 22.010688234624965 $321 $511 forward 7 unknown #
vertex $-1 $438 $512 #
straight-curve $-1 -69.195226905117948 -47.744854385994536 0 0 0 -1 I I #
edge $-1 $436 -47.744854385994536 $440 47.744854385994536 $434 $513 forward 7 unknown #
straight-curve $-1 0 -47.744854385994536 -22.010688234624965 -1 0 0 I I #
vertex $-1 $314 $514 #
straight-curve $-1 0 47.744854385994536 -22.010688234624965 1 0 0 I I #
point $-1 69.195226905117948 47.744854385994536 -22.010688234624965 #
point $-1 69.195226905117948 -47.744854385994536 -22.010688234624965 #
straight-curve $-1 -69.195226905117948 0 22.010688234624965 0 -1 0 I I #
point $-1 -69.195226905117948 47.744854385994536 22.010688234624965 #
point $-1 -69.195226905117948 -47.744854385994536 22.010688234624965 #
straight-curve $-1 69.195226905117948 -47.744854385994536 0 0 0 -1 I I #
straight-curve $-1 69.195226905117948 47.744854385994536 0 0 0 -1 I I #
plane-surface $-1 69.195226905117948 0 0 -1 0 0 0 0 1 forward_v I I I I #
coedge $-1 $335 $334 $345 $461 reversed $134 $-1 #
coedge $-1 $515 $338 $335 $452 forward $332 $-1 #
edge $-1 $453 27.891464826653468 $516 47.744854385994536 $335 $517 forward 7 unknown #
vertex $-1 $452 $518 #
straight-curve $-1 -69.195226905117948 -27.891464826653468 8.708788391400816 0 0 -1 I I #
coedge $-1 $338 $515 $340 $457 forward $332 $-1 #
straight-curve $-1 0 -27.891464826653468 22.010688234624965 -1 0 0 I I #
edge $-1 $464 -47.744854385994536 $341 -27.891464826653468 $340 $519 forward 7 unknown #
point $-1 69.195226905117948 -27.891464826653468 22.010688234624965 #
straight-curve $-1 -69.195226905117948 -18.909079803162001 12.824465330978299 0 -1 0 I I #
coedge $-1 $345 $344 $515 $520 reversed $220 $-1 #
edge $-1 $516 -22.010688234624965 $346 -12.824465330978299 $450 $521 forward 7 unknown #
point $-1 -69.195226905117948 -47.744854385994536 12.824465330978299 #
point $-1 -69.195226905117948 -27.891464826653468 12.824465330978299 #
vertex $-1 $457 $522 #
straight-curve $-1 69.195226905117948 -47.744854385994536 0 0 0 -1 I I #
plane-surface $-1 0 47.744854385994536 0 0 -1 0 0 0 -1 forward_v I I I I #
coedge $-1 $357 $356 $476 $523 forward $142 $-1 #
edge $-1 $470 27.891464826653461 $479 47.744854385994536 $372 $524 forward 7 unknown #
edge $-1 $525 -47.744854385994536 $363 -27.891464826653461 $360 $526 forward 7 unknown #
vertex $-1 $468 $527 #
straight-curve $-1 0 27.891464826653461 22.010688234624965 1 0 0 I I #
coedge $-1 $361 $360 $367 $477 forward $354 $-1 #
point $-1 -69.195226905117948 27.891464826653461 12.824465330978299 #
point $-1 -69.195226905117948 27.891464826653461 22.010688234624965 #
straight-curve $-1 -69.195226905117948 18.909079803161998 12.824465330978299 0 -1 0 I I #
coedge $-1 $368 $367 $467 $523 reversed $369 $-1 #
edge $-1 $525 -22.010688234624965 $370 -12.824465330978299 $367 $528 forward 7 unknown #
point $-1 -69.195226905117948 47.744854385994529 12.824465330978299 #
vertex $-1 $468 $529 #
straight-curve $-1 69.195226905117948 47.744854385994536 0 0 0 -1 I I #
straight-curve $-1 69.195226905117948 27.891464826653461 8.708788391400816 0 0 -1 I I #
coedge $-1 $388 $387 $380 $483 forward $377 $-1 #
edge $-1 $484 79.92406680188212 $487 93.659678090480384 $482 $530 forward 7 unknown #
vertex $-1 $392 $531 #
straight-curve $-1 38.012768695680748 8.2599931150143462 22.010688234624965 1 0 0 I I #
edge $-1 $487 0.59904474635635552 $389 14.722851990959626 $388 $532 forward 7 unknown #
vertex $-1 $486 $533 #
straight-curve $-1 -25.186834415254012 8.2599931150143462 109.48744875264219 -0.68199835119979291 0 0.73135370988377701 I I #
point $-1 56.386562472371807 8.2599931150143462 22.010688234624965 #
point $-1 69.195226905117948 22.383800359617616 8.2750769460267009 #
straight-curve $-1 69.195226905117948 0 22.010688234624965 0 1 0 I I #
vertex $-1 $395 $534 #
point $-1 60.740388448968325 11.084754563935 11.863427188323932 #
vertex $-1 $399 $535 #
point $-1 60.740388448968325 15.321896737315981 11.863427188323932 #
vertex $-1 $403 $536 #
point $-1 60.740388448968325 19.559038910696962 11.863427188323932 #
edge $-1 $499 27.797234703837198 $502 44.574138381909826 $408 $537 forward 7 unknown #
vertex $-1 $422 $538 #
straight-curve $-1 -85.203799355866721 13.686511660630913 22.010688234624965 -1 0 0 I I #
edge $-1 $502 -9.9706709405129317 $419 2.5389895002769691 $418 $539 forward 7 unknown #
vertex $-1 $501 $540 #
straight-curve $-1 -69.195226905117934 13.686511660630913 5.2337845565523509 0.68199835119979291 0 0.73135370988377701 I I #
point $-1 -53.550511506734928 13.686511660630913 22.010688234624965 #
point $-1 -69.195226905117948 1.1768512198410122 5.2337845565523358 #
straight-curve $-1 -69.195226905117948 0 22.010688234624965 0 -1 0 I I #
vertex $-1 $425 $541 #
point $-1 -56.777114951479867 4.7510399172095532 11.38761749372828 #
vertex $-1 $429 $542 #
point $-1 -56.777114951479867 10.112322963262365 11.38761749372828 #
straight-curve $-1 -69.195226905117948 47.744854385994536 0 0 0 -1 I I #
point $-1 -69.195226905117948 -47.744854385994536 -22.010688234624965 #
straight-curve $-1 -69.195226905117948 0 -22.010688234624965 0 1 0 I I #
point $-1 -69.195226905117948 47.744854385994536 -22.010688234624965 #
coedge $-1 $455 $451 $460 $520 forward $332 $-1 #
vertex $-1 $452 $543 #
straight-curve $-1 -69.195226905117948 0 22.010688234624965 0 -1 0 I I #
point $-1 -69.195226905117948 -27.891464826653468 22.010688234624965 #
straight-curve $-1 69.195226905117948 0 22.010688234624965 0 1 0 I I #
edge $-1 $516 -69.195226905117948 $464 69.195226905117948 $460 $544 forward 7 unknown #
straight-curve $-1 -69.195226905117948 -47.744854385994536 0 0 0 -1 I I #
point $-1 69.195226905117948 -47.744854385994536 22.010688234624965 #
edge $-1 $479 -69.195226905117948 $525 69.195226905117948 $476 $545 forward 7 unknown #
straight-curve $-1 69.195226905117948 0 22.010688234624965 0 1 0 I I #
vertex $-1 $523 $546 #
straight-curve $-1 -69.195226905117948 0 22.010688234624965 0 -1 0 I I #
point $-1 69.195226905117948 27.891464826653461 22.010688234624965 #
straight-curve $-1 -69.195226905117948 47.744854385994536 0 0 0 -1 I I #
point $-1 69.195226905117948 47.744854385994536 22.010688234624965 #
straight-curve $-1 69.195226905117948 8.2599931150143462 101.93475503650708 0 0 -1 I I #
point $-1 69.195226905117948 8.2599931150143462 22.010688234624965 #
straight-curve $-1 69.195226905117948 7.6609483686579907 8.2750769460267151 0 1 0 I I #
point $-1 69.195226905117948 8.2599931150143462 8.2750769460267009 #
point $-1 59.327036387884753 11.084754563935 11.912782547007915 #
point $-1 59.327036387884753 15.321896737315981 11.912782547007915 #
point $-1 59.327036387884753 19.559038910696962 11.912782547007915 #
straight-curve $-1 -69.195226905117948 13.686511660630913 49.807922938462163 0 0 -1 I I #
point $-1 -69.195226905117948 13.686511660630913 22.010688234624965 #
straight-curve $-1 -69.195226905117948 3.7158407201179813 5.2337845565523473 0 -1 0 I I #
point $-1 -69.195226905117948 13.686511660630913 5.2337845565523358 #
point $-1 -56.703081913453886 4.7510399172095532 9.2675894021029261 #
point $-1 -56.703081913453886 10.112322963262365 9.2675894021029261 #
point $-1 -69.195226905117948 -47.744854385994536 22.010688234624965 #
straight-curve $-1 0 -47.744854385994536 22.010688234624965 1 0 0 I I #
straight-curve $-1 0 47.744854385994536 22.010688234624965 -1 0 0 I I #
point $-1 -69.195226905117948 47.744854385994536 22.010688234624965 #
End-of-ACIS-data 