500 0 4 0           
7 Unknown 11 ACIS 5.0 NT 24 Thu Mar 25 16:49:04 1999 
-1 9.9999999999999995e-007 1e-010 
body $-1 $4 $-1 $5 #
body $-1 $6 $-1 $7 #
body $-1 $8 $-1 $9 #
body $-1 $10 $-1 $11 #
lump $-1 $-1 $12 $0 #
transform $-1 1 0 0 0 1 0 0 0 1 76.60267952513199 43.143857856024603 20.617989750892338 1 rotate no_reflect no_shear #
lump $-1 $-1 $13 $1 #
transform $-1 1 0 0 0 1 0 0 0 1 76.60267952513199 43.143857856024603 20.617989750892338 1 rotate no_reflect no_shear #
lump $-1 $-1 $14 $2 #
transform $-1 1 0 0 0 1 0 0 0 1 76.60267952513199 43.143857856024603 20.617989750892338 1 rotate no_reflect no_shear #
lump $-1 $-1 $15 $3 #
transform $-1 1 0 0 0 1 0 0 0 1 76.60267952513199 43.143857856024603 20.617989750892338 1 rotate no_reflect no_shear #
shell $-1 $-1 $-1 $16 $-1 $4 #
shell $-1 $-1 $-1 $17 $-1 $6 #
shell $-1 $-1 $-1 $18 $-1 $8 #
shell $-1 $-1 $-1 $19 $-1 $10 #
face $-1 $20 $21 $12 $-1 $22 forward single #
face $-1 $23 $24 $13 $-1 $25 forward single #
face $-1 $26 $27 $14 $-1 $28 reversed single #
face $-1 $29 $30 $15 $-1 $31 forward single #
face $-1 $32 $33 $12 $-1 $34 reversed single #
loop $-1 $-1 $35 $16 #
plane-surface $-1 0 0 20.617989750892338 0 0 1 1 0 0 forward_v I I I I #
face $-1 $36 $37 $13 $-1 $38 reversed single #
loop $-1 $-1 $39 $17 #
plane-surface $-1 -76.60267952513199 0 0 1 0 0 0 0 -1 forward_v I I I I #
face $-1 $40 $41 $14 $-1 $42 reversed single #
loop $-1 $-1 $43 $18 #
plane-surface $-1 24.186650326405498 -2.6571597891610068 226.96864682899061 0 -1 0 -0.51503808176128008 0 -0.85716729658548041 forward_v I I I I #
face $-1 $44 $45 $15 $-1 $46 forward single #
loop $-1 $47 $48 $19 #
cone-surface $-1 72.865190485697354 -12.418939865420079 17.829952422243274 -0.51503808176128008 0 -0.85716729658548041 0.85716729658548041 0 -0.51503808176128008 1 I I 0 1 1 forward I I I I #
face $-1 $49 $50 $12 $-1 $51 reversed single #
loop $-1 $-1 $52 $20 #
plane-surface $-1 0 0 -20.617989750892338 0 0 1 1 0 0 forward_v I I I I #
coedge $-1 $53 $54 $55 $56 forward $21 $-1 #
face $-1 $57 $58 $13 $-1 $59 forward single #
loop $-1 $-1 $60 $23 #
plane-surface $-1 0 43.143857856024603 0 0 -1 0 0 0 -1 forward_v I I I I #
coedge $-1 $61 $62 $63 $64 forward $24 $-1 #
face $-1 $65 $66 $14 $-1 $67 reversed single #
loop $-1 $-1 $68 $26 #
plane-surface $-1 -54.719943914390626 -12.418939865420075 95.646023389467985 0.51503808176128008 0 0.85716729658548041 0.85716729658548041 0 -0.51503808176128008 forward_v I I I I #
coedge $-1 $69 $70 $71 $72 reversed $27 $-1 #
face $-1 $-1 $73 $15 $-1 $74 forward single #
loop $-1 $75 $76 $29 #
cone-surface $-1 72.097686762612497 -12.418939865420079 16.552611746411724 -0.51503808176128008 0 -0.85716729658548041 0.4285836482927402 0 -0.25751904088064004 1 I I -0.70710678118654746 0.70710678118654746 0.5 forward I I I I #
loop $-1 $-1 $77 $19 #
coedge $-1 $48 $48 $78 $79 reversed $30 $-1 #
face $-1 $80 $81 $12 $-1 $82 reversed single #
loop $-1 $-1 $83 $32 #
plane-surface $-1 0 -43.143857856024603 0 0 1 0 0 0 1 forward_v I I I I #
coedge $-1 $84 $85 $86 $87 forward $33 $-1 #
coedge $-1 $88 $35 $89 $90 forward $21 $-1 #
coedge $-1 $35 $88 $91 $92 forward $21 $-1 #
coedge $-1 $93 $94 $35 $56 reversed $95 $-1 #
edge $-1 $96 -43.143857856024603 $97 43.143857856024603 $55 $98 forward 7 unknown #
face $-1 $99 $100 $13 $-1 $101 reversed single #
loop $-1 $-1 $63 $36 #
plane-surface $-1 -84.799920830734351 0 -8.4107957824099771 0 0 1 1 0 0 forward_v I I I I #
coedge $-1 $102 $103 $62 $104 forward $37 $-1 #
coedge $-1 $105 $39 $106 $107 reversed $24 $-1 #
coedge $-1 $39 $105 $60 $104 reversed $24 $-1 #
coedge $-1 $108 $109 $39 $64 reversed $58 $-1 #
edge $-1 $110 -43.143857856024603 $111 43.143857856024603 $63 $112 forward 7 unknown #
face $-1 $113 $114 $14 $-1 $115 forward single #
loop $-1 $-1 $116 $40 #
plane-surface $-1 24.186650326405498 -22.180719941679143 226.96864682899061 0 1 0 0.51503808176128008 0 0.85716729658548041 forward_v I I I I #
coedge $-1 $117 $118 $119 $120 reversed $41 $-1 #
coedge $-1 $70 $43 $121 $122 reversed $27 $-1 #
coedge $-1 $43 $69 $117 $123 reversed $27 $-1 #
coedge $-1 $119 $124 $43 $72 forward $114 $-1 #
edge $-1 $125 -64.50935436192924 $126 -58.054345647468381 $71 $127 forward 7 unknown #
loop $-1 $-1 $78 $44 #
plane-surface $-1 -54.719943914390626 -12.418939865420075 95.646023389467985 0.51503808176128008 0 0.85716729658548041 0.85716729658548041 0 -0.51503808176128008 forward_v I I I I #
loop $-1 $-1 $128 $29 #
coedge $-1 $76 $76 $77 $129 reversed $45 $-1 #
coedge $-1 $77 $77 $76 $129 forward $47 $-1 #
coedge $-1 $78 $78 $48 $79 forward $73 $-1 #
edge $-1 $130 0 $130 6.2831853071796004 $78 $131 forward 7 unknown #
face $-1 $132 $133 $12 $-1 $134 reversed single #
loop $-1 $-1 $135 $49 #
plane-surface $-1 -76.60267952513199 0 0 1 0 0 0 0 -1 forward_v I I I I #
coedge $-1 $136 $91 $137 $138 forward $50 $-1 #
coedge $-1 $139 $52 $136 $140 forward $33 $-1 #
coedge $-1 $52 $139 $141 $142 forward $33 $-1 #
coedge $-1 $94 $93 $52 $87 reversed $95 $-1 #
edge $-1 $143 -43.143857856024603 $144 43.143857856024603 $86 $145 forward 7 unknown #
coedge $-1 $54 $53 $146 $147 forward $21 $-1 #
coedge $-1 $148 $149 $53 $90 reversed $133 $-1 #
edge $-1 $97 -76.60267952513199 $150 76.60267952513199 $89 $151 forward 7 unknown #
coedge $-1 $83 $152 $54 $92 reversed $50 $-1 #
edge $-1 $153 -76.60267952513199 $96 76.60267952513199 $91 $154 forward 7 unknown #
coedge $-1 $86 $55 $152 $155 forward $95 $-1 #
coedge $-1 $55 $86 $148 $156 reversed $95 $-1 #
loop $-1 $-1 $93 $132 #
vertex $-1 $56 $157 #
vertex $-1 $56 $158 #
straight-curve $-1 76.60267952513199 0 20.617989750892338 0 1 0 I I #
face $-1 $159 $160 $13 $-1 $161 reversed single #
loop $-1 $-1 $162 $57 #
plane-surface $-1 -92.997162136336698 0 -14.514392766651158 1 0 0 0 0 -1 forward_v I I I I #
coedge $-1 $163 $60 $164 $165 reversed $37 $-1 #
coedge $-1 $60 $163 $108 $166 reversed $37 $-1 #
edge $-1 $110 8.4107957824099771 $167 20.617989750892338 $60 $168 forward 7 unknown #
coedge $-1 $62 $61 $169 $170 reversed $24 $-1 #
coedge $-1 $171 $172 $61 $107 forward $173 $-1 #
edge $-1 $174 -20.617989750892338 $111 -8.4107957824099771 $106 $175 forward 7 unknown #
coedge $-1 $176 $63 $103 $166 forward $58 $-1 #
coedge $-1 $63 $176 $171 $177 forward $58 $-1 #
vertex $-1 $104 $178 #
vertex $-1 $177 $179 #
straight-curve $-1 -76.60267952513199 0 -8.4107957824099771 0 -1 0 I I #
face $-1 $-1 $180 $14 $-1 $181 reversed single #
loop $-1 $-1 $71 $65 #
plane-surface $-1 0 0 20.617989750892338 0 0 1 1 0 0 forward_v I I I I #
coedge $-1 $182 $183 $184 $185 reversed $66 $-1 #
coedge $-1 $186 $68 $70 $123 forward $41 $-1 #
coedge $-1 $68 $186 $182 $187 forward $41 $-1 #
coedge $-1 $184 $71 $68 $120 forward $114 $-1 #
edge $-1 $126 -3.5523101435490307 $188 15.971250008969106 $119 $189 forward 7 unknown #
coedge $-1 $190 $191 $69 $122 forward $180 $-1 #
edge $-1 $192 -96.744894265823419 $125 -92.866333663602973 $121 $193 forward 7 unknown #
edge $-1 $126 145.67473026849132 $192 153.20535905026392 $70 $194 forward 7 unknown #
coedge $-1 $71 $184 $190 $195 forward $114 $-1 #
vertex $-1 $122 $196 #
vertex $-1 $72 $197 #
straight-curve $-1 12.093325163202749 -2.6571597891610068 20.617989750892335 -1 0 0 I I #
coedge $-1 $128 $128 $-1 $198 reversed $75 $-1 #
edge $-1 $199 0 $199 6.2831853071796004 $76 $200 forward 7 unknown #
vertex $-1 $79 $201 #
ellipse-curve $-1 73.375175167901574 -12.418939865420079 18.678709449782083 0.51503808176128008 0 0.85716729658548041 0.85716729658548041 0 -0.51503808176128008 1 I I #
face $-1 $-1 $95 $12 $-1 $202 reversed single #
loop $-1 $-1 $148 $80 #
plane-surface $-1 0 43.143857856024603 0 0 -1 0 0 0 -1 forward_v I I I I #
coedge $-1 $203 $146 $149 $204 forward $81 $-1 #
coedge $-1 $152 $83 $84 $140 reversed $50 $-1 #
coedge $-1 $146 $203 $83 $138 reversed $81 $-1 #
edge $-1 $153 -20.617989750892338 $205 20.617989750892338 $137 $206 forward 7 unknown #
coedge $-1 $85 $84 $203 $207 forward $33 $-1 #
edge $-1 $144 -76.60267952513199 $205 76.60267952513199 $136 $208 forward 7 unknown #
coedge $-1 $149 $148 $85 $142 reversed $133 $-1 #
edge $-1 $209 -76.60267952513199 $143 76.60267952513199 $141 $210 forward 7 unknown #
vertex $-1 $87 $211 #
vertex $-1 $155 $212 #
straight-curve $-1 76.60267952513199 0 -20.617989750892338 0 -1 0 I I #
coedge $-1 $135 $137 $88 $147 reversed $81 $-1 #
edge $-1 $150 -43.143857856024603 $153 43.143857856024603 $146 $213 forward 7 unknown #
coedge $-1 $141 $89 $94 $156 forward $133 $-1 #
coedge $-1 $89 $141 $135 $204 reversed $133 $-1 #
vertex $-1 $90 $214 #
straight-curve $-1 0 43.143857856024603 20.617989750892338 -1 0 0 I I #
coedge $-1 $91 $136 $93 $155 reversed $50 $-1 #
vertex $-1 $147 $215 #
straight-curve $-1 0 -43.143857856024603 20.617989750892338 1 0 0 I I #
edge $-1 $96 -20.617989750892338 $144 20.617989750892338 $93 $216 forward 7 unknown #
edge $-1 $97 -20.617989750892338 $143 20.617989750892338 $94 $217 forward 7 unknown #
point $-1 76.60267952513199 -43.143857856024603 20.617989750892338 #
point $-1 76.60267952513199 43.143857856024603 20.617989750892338 #
face $-1 $-1 $173 $13 $-1 $218 reversed single #
loop $-1 $-1 $169 $99 #
plane-surface $-1 0 0 -20.617989750892338 0 0 1 1 0 0 forward_v I I I I #
coedge $-1 $219 $220 $163 $221 forward $100 $-1 #
coedge $-1 $103 $102 $162 $221 reversed $37 $-1 #
coedge $-1 $169 $222 $102 $165 forward $160 $-1 #
edge $-1 $223 -92.997162136336698 $167 -76.60267952513199 $102 $224 forward 7 unknown #
edge $-1 $110 -8.197241305602347 $225 8.197241305602347 $103 $226 forward 7 unknown #
vertex $-1 $104 $227 #
straight-curve $-1 -76.60267952513199 43.143857856024603 0 0 0 -1 I I #
coedge $-1 $228 $164 $105 $170 forward $160 $-1 #
edge $-1 $167 -43.143857856024603 $174 43.143857856024603 $169 $229 forward 7 unknown #
coedge $-1 $230 $106 $109 $177 reversed $173 $-1 #
coedge $-1 $106 $230 $228 $231 reversed $173 $-1 #
loop $-1 $-1 $106 $159 #
vertex $-1 $231 $232 #
straight-curve $-1 -76.60267952513199 -43.143857856024603 0 0 0 1 I I #
coedge $-1 $109 $108 $220 $233 forward $58 $-1 #
edge $-1 $234 -8.197241305602347 $111 8.197241305602347 $171 $235 forward 7 unknown #
point $-1 -76.602679525132004 43.143857856024603 -8.4107957824099771 #
point $-1 -76.602679525132004 -43.143857856024603 -8.4107957824099771 #
loop $-1 $-1 $121 $113 #
plane-surface $-1 76.60267952513199 0 0 -1 0 0 0 0 1 forward_v I I I I #
coedge $-1 $183 $116 $118 $187 reversed $66 $-1 #
coedge $-1 $116 $182 $236 $237 reversed $66 $-1 #
coedge $-1 $124 $119 $116 $185 forward $114 $-1 #
edge $-1 $188 58.054345647468381 $238 64.50935436192924 $184 $239 forward 7 unknown #
coedge $-1 $118 $117 $191 $240 reversed $41 $-1 #
edge $-1 $241 -153.20535905026392 $188 -145.67473026849132 $182 $242 forward 7 unknown #
vertex $-1 $120 $243 #
straight-curve $-1 70.14767081067113 -6.2094699327100376 20.617989750892328 0 -1 0 I I #
coedge $-1 $236 $121 $124 $195 reversed $180 $-1 #
coedge $-1 $121 $236 $186 $240 forward $180 $-1 #
vertex $-1 $122 $244 #
straight-curve $-1 76.60267952513199 -2.6571597891610068 113.48432341449531 0 0 1 I I #
straight-curve $-1 -54.719943914390626 -2.6571597891610068 95.646023389467985 0.85716729658548041 0 -0.51503808176128008 I I #
edge $-1 $238 -22.180719941679143 $125 -2.6571597891610068 $190 $245 forward 7 unknown #
point $-1 76.60267952513199 -2.6571597891610068 20.617989750892338 #
point $-1 70.14767081067113 -2.6571597891610068 20.617989750892335 #
edge $-1 $246 1 $246 0 $128 $-1 forward 7 unknown #
vertex $-1 $129 $247 #
ellipse-curve $-1 72.355205803493135 -12.418939865420079 16.981195394704464 0.51503808176128008 0 0.85716729658548041 0.85716729658548041 0 -0.51503808176128008 1 I I #
point $-1 74.232342464487061 -12.418939865420079 18.163671368020808 #
plane-surface $-1 76.60267952513199 0 0 -1 0 0 0 0 1 forward_v I I I I #
coedge $-1 $137 $135 $139 $207 reversed $81 $-1 #
edge $-1 $150 -20.617989750892338 $209 20.617989750892338 $149 $248 forward 7 unknown #
vertex $-1 $207 $249 #
straight-curve $-1 -76.60267952513199 -43.143857856024603 0 0 0 -1 I I #
edge $-1 $205 -43.143857856024603 $209 43.143857856024603 $203 $250 forward 7 unknown #
straight-curve $-1 0 -43.143857856024603 -20.617989750892338 -1 0 0 I I #
vertex $-1 $142 $251 #
straight-curve $-1 0 43.143857856024603 -20.617989750892338 1 0 0 I I #
point $-1 76.60267952513199 43.143857856024603 -20.617989750892338 #
point $-1 76.60267952513199 -43.143857856024603 -20.617989750892338 #
straight-curve $-1 -76.60267952513199 0 20.617989750892338 0 -1 0 I I #
point $-1 -76.60267952513199 43.143857856024603 20.617989750892338 #
point $-1 -76.60267952513199 -43.143857856024603 20.617989750892338 #
straight-curve $-1 76.60267952513199 -43.143857856024603 0 0 0 -1 I I #
straight-curve $-1 76.60267952513199 43.143857856024603 0 0 0 -1 I I #
plane-surface $-1 0 -43.143857856024603 0 0 1 0 0 0 1 forward_v I I I I #
coedge $-1 $252 $162 $222 $253 reversed $100 $-1 #
coedge $-1 $162 $252 $176 $233 reversed $100 $-1 #
edge $-1 $225 -6.1035969842411806 $223 6.1035969842411806 $163 $254 forward 7 unknown #
coedge $-1 $164 $228 $219 $253 forward $160 $-1 #
vertex $-1 $165 $255 #
straight-curve $-1 0 43.143857856024603 -20.617989750892338 1 0 0 I I #
vertex $-1 $166 $256 #
straight-curve $-1 -84.799920830734351 43.143857856024603 -8.4107957824099771 -1 0 0 I I #
point $-1 -76.60267952513199 43.143857856024603 -20.617989750892338 #
coedge $-1 $222 $169 $172 $231 forward $160 $-1 #
straight-curve $-1 -76.60267952513199 0 -20.617989750892338 0 -1 0 I I #
coedge $-1 $172 $171 $252 $257 forward $173 $-1 #
edge $-1 $174 -8.1972413056023612 $258 8.197241305602347 $172 $259 forward 7 unknown #
point $-1 -76.60267952513199 -43.143857856024603 -20.617989750892338 #
edge $-1 $225 -43.143857856024603 $234 43.143857856024603 $220 $260 forward 7 unknown #
vertex $-1 $233 $261 #
straight-curve $-1 -84.799920830734351 -43.143857856024603 -8.4107957824099771 1 0 0 I I #
coedge $-1 $191 $190 $183 $237 forward $180 $-1 #
edge $-1 $238 92.866333663602973 $241 96.744894265823419 $236 $262 forward 7 unknown #
vertex $-1 $195 $263 #
straight-curve $-1 12.093325163202749 -22.180719941679143 20.617989750892335 1 0 0 I I #
edge $-1 $241 -15.971250008969106 $192 3.5523101435490307 $191 $264 forward 7 unknown #
vertex $-1 $240 $265 #
straight-curve $-1 -54.719943914390626 -22.180719941679143 95.646023389467985 -0.85716729658548041 0 0.51503808176128008 I I #
point $-1 70.14767081067113 -22.180719941679143 20.617989750892335 #
point $-1 76.602679525131975 -2.6571597891610068 16.739429148671888 #
straight-curve $-1 76.60267952513199 0 20.617989750892338 0 1 0 I I #
vertex $-1 $198 $266 #
point $-1 73.212373100078622 -12.418939865420079 16.466157312943185 #
straight-curve $-1 -76.60267952513199 43.143857856024603 0 0 0 -1 I I #
point $-1 -76.60267952513199 -43.143857856024603 -20.617989750892338 #
straight-curve $-1 -76.60267952513199 0 -20.617989750892338 0 1 0 I I #
point $-1 -76.60267952513199 43.143857856024603 -20.617989750892338 #
coedge $-1 $220 $219 $230 $257 reversed $100 $-1 #
edge $-1 $258 -43.143857856024603 $223 43.143857856024603 $219 $267 forward 7 unknown #
straight-curve $-1 -92.997162136336698 43.143857856024603 -14.514392766651158 0 0 -1 I I #
point $-1 -92.997162136336698 43.143857856024603 -20.617989750892338 #
point $-1 -92.997162136336698 43.143857856024603 -8.4107957824099771 #
edge $-1 $234 -6.1035969842411806 $258 6.1035969842411806 $252 $268 forward 7 unknown #
vertex $-1 $253 $269 #
straight-curve $-1 -84.799920830734351 -43.143857856024603 -20.617989750892338 -1 0 0 I I #
straight-curve $-1 -92.997162136336698 0 -8.4107957824099771 0 -1 0 I I #
point $-1 -92.997162136336698 -43.143857856024603 -8.4107957824099771 #
straight-curve $-1 76.60267952513199 -22.180719941679143 113.48432341449531 0 0 -1 I I #
point $-1 76.60267952513199 -22.180719941679143 20.617989750892338 #
straight-curve $-1 76.60267952513199 -6.2094699327100376 16.739429148671874 0 1 0 I I #
point $-1 76.602679525131975 -22.180719941679143 16.739429148671888 #
point $-1 71.840167721731859 -12.418939865420079 16.124028098118984 #
straight-curve $-1 -92.997162136336698 0 -20.617989750892338 0 1 0 I I #
straight-curve $-1 -92.997162136336698 -43.143857856024603 -14.514392766651158 0 0 -1 I I #
point $-1 -92.997162136336698 -43.143857856024603 -20.617989750892338 #
End-of-ACIS-data 