500 0 5 0           
7 Unknown 11 ACIS 5.0 NT 24 Fri Mar 26 00:53:02 1999 
-1 9.9999999999999995e-007 1e-010 
body $-1 $5 $-1 $6 #
body $-1 $7 $-1 $8 #
body $-1 $9 $-1 $10 #
body $-1 $11 $-1 $12 #
body $-1 $13 $-1 $14 #
lump $-1 $-1 $15 $0 #
transform $-1 1 0 0 0 1 0 0 0 1 40.828882717368082 18.239858207393084 8.2228266687151681 1 rotate no_reflect no_shear #
lump $-1 $-1 $16 $1 #
transform $-1 1 0 0 0 1 0 0 0 1 40.828882717368082 18.239858207393084 8.2228266687151681 1 rotate no_reflect no_shear #
lump $-1 $-1 $17 $2 #
transform $-1 1 0 0 0 1 0 0 0 1 40.828882717368082 18.239858207393084 8.2228266687151681 1 rotate no_reflect no_shear #
lump $-1 $-1 $18 $3 #
transform $-1 1 0 0 0 1 0 0 0 1 40.828882717368082 18.239858207393084 8.2228266687151681 1 rotate no_reflect no_shear #
lump $-1 $-1 $19 $4 #
transform $-1 1 0 0 0 1 0 0 0 1 40.828882717368082 18.239858207393084 8.2228266687151681 1 rotate no_reflect no_shear #
shell $-1 $-1 $-1 $20 $-1 $5 #
shell $-1 $-1 $-1 $21 $-1 $7 #
shell $-1 $-1 $-1 $22 $-1 $9 #
shell $-1 $-1 $-1 $23 $-1 $11 #
shell $-1 $-1 $-1 $24 $-1 $13 #
face $-1 $25 $26 $15 $-1 $27 reversed single #
face $-1 $28 $29 $16 $-1 $30 forward single #
face $-1 $31 $32 $17 $-1 $33 reversed single #
face $-1 $34 $35 $18 $-1 $36 forward single #
face $-1 $37 $38 $19 $-1 $39 forward single #
face $-1 $40 $41 $15 $-1 $42 forward single #
loop $-1 $-1 $43 $20 #
plane-surface $-1 -40.828882717368082 0 0 1 0 0 0 0 -1 forward_v I I I I #
face $-1 $44 $45 $16 $-1 $46 reversed single #
loop $-1 $-1 $47 $21 #
plane-surface $-1 -40.828882717368082 0 0 1 0 0 0 0 -1 forward_v I I I I #
face $-1 $48 $49 $17 $-1 $50 reversed single #
loop $-1 $-1 $51 $22 #
plane-surface $-1 -12.941984312446865 -68.513399177194486 66.205239648052924 -1 0 0 0 -0.61566148304635926 0.78801074757464917 forward_v I I I I #
face $-1 $52 $53 $18 $-1 $54 forward single #
loop $-1 $55 $56 $23 #
cone-surface $-1 -22.586800830566823 -13.589231835269024 4.3014597526178004 0 0.61566148304635926 -0.78801074757464917 1 0 0 1 I I 0 1 1 forward I I I I #
face $-1 $57 $58 $19 $-1 $59 forward single #
loop $-1 $60 $61 $24 #
cone-surface $-1 -16.799910919694849 -13.589231835269024 4.3014597526178004 0 0.61566148304635926 -0.78801074757464917 1 0 0 1 I I 0 1 1 forward I I I I #
face $-1 $62 $63 $15 $-1 $64 reversed single #
loop $-1 $-1 $65 $25 #
plane-surface $-1 0 0 8.2228266687151681 0 0 1 1 0 0 forward_v I I I I #
coedge $-1 $66 $67 $68 $69 reversed $26 $-1 #
face $-1 $70 $71 $16 $-1 $72 reversed single #
loop $-1 $-1 $73 $28 #
plane-surface $-1 0 0 -8.2228266687151681 0 0 1 1 0 0 forward_v I I I I #
coedge $-1 $74 $75 $76 $77 forward $29 $-1 #
face $-1 $78 $79 $17 $-1 $80 reversed single #
loop $-1 $-1 $81 $31 #
plane-surface $-1 -19.693355875130834 -18.239858207393084 1.8580428625511303 0 -0.61566148304635926 0.78801074757464917 1 0 0 forward_v I I I I #
coedge $-1 $82 $83 $84 $85 reversed $32 $-1 #
face $-1 $-1 $86 $18 $-1 $87 forward single #
loop $-1 $88 $89 $34 #
cone-surface $-1 -22.586800830566823 -12.704050526069569 3.1684793658151307 0 0.61566148304635926 -0.78801074757464917 0.5 0 0 1 I I -0.70710678118654746 0.70710678118654746 0.5 forward I I I I #
loop $-1 $-1 $90 $23 #
coedge $-1 $56 $56 $91 $92 reversed $35 $-1 #
face $-1 $-1 $93 $19 $-1 $94 forward single #
loop $-1 $95 $96 $37 #
cone-surface $-1 -16.799910919694849 -12.704050526069569 3.1684793658151307 0 0.61566148304635926 -0.78801074757464917 0.5 0 0 1 I I -0.70710678118654746 0.70710678118654746 0.5 forward I I I I #
loop $-1 $-1 $97 $24 #
coedge $-1 $61 $61 $98 $99 reversed $38 $-1 #
face $-1 $100 $101 $15 $-1 $102 reversed single #
loop $-1 $-1 $103 $40 #
plane-surface $-1 0 0 -8.2228266687151681 0 0 1 1 0 0 forward_v I I I I #
coedge $-1 $104 $105 $106 $107 forward $41 $-1 #
coedge $-1 $108 $43 $109 $110 reversed $26 $-1 #
coedge $-1 $43 $108 $111 $112 forward $26 $-1 #
coedge $-1 $113 $114 $43 $69 forward $63 $-1 #
edge $-1 $115 -18.239858207393084 $116 18.239858207393084 $43 $117 forward 7 unknown #
face $-1 $118 $119 $16 $-1 $120 reversed single #
loop $-1 $-1 $121 $44 #
plane-surface $-1 -44.96779246940477 -6.1682859088445241 0 0 1 0 0 0 1 forward_v I I I I #
coedge $-1 $122 $123 $75 $124 forward $45 $-1 #
coedge $-1 $125 $47 $126 $127 reversed $29 $-1 #
coedge $-1 $47 $125 $73 $124 reversed $29 $-1 #
coedge $-1 $128 $129 $47 $77 reversed $130 $-1 #
edge $-1 $131 -8.2228266687151681 $132 8.2228266687151681 $76 $133 forward 7 unknown #
face $-1 $134 $135 $17 $-1 $136 forward single #
loop $-1 $-1 $137 $48 #
plane-surface $-1 -26.444727437814805 -68.513399177194486 66.205239648052924 1 0 0 0 0.61566148304635926 -0.78801074757464917 forward_v I I I I #
coedge $-1 $138 $139 $140 $141 reversed $49 $-1 #
coedge $-1 $83 $51 $142 $143 reversed $32 $-1 #
coedge $-1 $51 $82 $138 $144 reversed $32 $-1 #
coedge $-1 $140 $145 $51 $85 forward $135 $-1 #
edge $-1 $146 16.016841381204159 $147 24.16339299009972 $84 $148 forward 7 unknown #
loop $-1 $-1 $91 $52 #
plane-surface $-1 -19.693355875130834 -18.239858207393084 1.8580428625511303 0 -0.61566148304635926 0.78801074757464917 1 0 0 forward_v I I I I #
loop $-1 $-1 $149 $34 #
coedge $-1 $89 $89 $90 $150 reversed $53 $-1 #
coedge $-1 $90 $90 $89 $150 forward $55 $-1 #
coedge $-1 $91 $91 $56 $92 forward $86 $-1 #
edge $-1 $151 -1.3342979344366212e-015 $151 6.2831853071795987 $91 $152 forward 7 unknown #
loop $-1 $-1 $98 $57 #
plane-surface $-1 -19.693355875130834 -18.239858207393084 1.8580428625511303 0 -0.61566148304635926 0.78801074757464917 1 0 0 forward_v I I I I #
loop $-1 $-1 $153 $37 #
coedge $-1 $96 $96 $97 $154 reversed $58 $-1 #
coedge $-1 $97 $97 $96 $154 forward $60 $-1 #
coedge $-1 $98 $98 $61 $99 forward $93 $-1 #
edge $-1 $155 -1.3342979344366212e-015 $155 6.2831853071795987 $98 $156 forward 7 unknown #
face $-1 $157 $158 $15 $-1 $159 reversed single #
loop $-1 $-1 $109 $62 #
plane-surface $-1 0 -18.239858207393084 0 0 1 0 0 0 1 forward_v I I I I #
coedge $-1 $114 $113 $160 $161 forward $63 $-1 #
coedge $-1 $162 $65 $163 $164 forward $41 $-1 #
coedge $-1 $65 $162 $165 $166 forward $41 $-1 #
coedge $-1 $167 $168 $65 $107 reversed $169 $-1 #
edge $-1 $170 -18.239858207393084 $171 18.239858207393084 $106 $172 forward 7 unknown #
coedge $-1 $67 $66 $162 $173 reversed $26 $-1 #
coedge $-1 $174 $165 $66 $110 forward $101 $-1 #
edge $-1 $175 -8.2228266687151681 $115 8.2228266687151681 $66 $176 forward 7 unknown #
coedge $-1 $163 $177 $67 $112 reversed $158 $-1 #
edge $-1 $178 -8.2228266687151681 $116 8.2228266687151681 $111 $179 forward 7 unknown #
coedge $-1 $103 $68 $177 $180 forward $63 $-1 #
coedge $-1 $68 $103 $174 $181 forward $63 $-1 #
vertex $-1 $69 $182 #
vertex $-1 $180 $183 #
straight-curve $-1 -40.828882717368082 0 -8.2228266687151681 0 1 0 I I #
face $-1 $184 $130 $16 $-1 $185 reversed single #
loop $-1 $-1 $186 $70 #
plane-surface $-1 -49.106702221441459 -3.9812453894036359 0 1 0 0 0 0 -1 forward_v I I I I #
coedge $-1 $187 $188 $189 $190 forward $71 $-1 #
coedge $-1 $191 $73 $187 $192 forward $45 $-1 #
coedge $-1 $73 $191 $128 $193 forward $45 $-1 #
edge $-1 $131 1.7942048699627478 $194 6.1682859088445241 $73 $195 forward 7 unknown #
coedge $-1 $75 $74 $196 $197 forward $29 $-1 #
coedge $-1 $198 $199 $74 $127 forward $200 $-1 #
edge $-1 $201 -6.1682859088445241 $132 -1.7942048699627478 $126 $202 forward 7 unknown #
coedge $-1 $203 $76 $123 $193 reversed $130 $-1 #
coedge $-1 $76 $203 $198 $204 reversed $130 $-1 #
loop $-1 $-1 $76 $118 #
vertex $-1 $124 $205 #
vertex $-1 $204 $206 #
straight-curve $-1 -40.828882717368082 -1.7942048699627478 0 0 0 1 I I #
face $-1 $-1 $207 $17 $-1 $208 reversed single #
loop $-1 $-1 $84 $78 #
plane-surface $-1 0 0 8.2228266687151681 0 0 1 1 0 0 forward_v I I I I #
coedge $-1 $209 $210 $211 $212 reversed $79 $-1 #
coedge $-1 $213 $81 $83 $144 forward $49 $-1 #
coedge $-1 $81 $213 $209 $214 forward $49 $-1 #
coedge $-1 $211 $84 $81 $141 forward $135 $-1 #
edge $-1 $147 3.0953063748814476 $215 16.598049500249388 $140 $216 forward 7 unknown #
coedge $-1 $217 $218 $82 $143 forward $207 $-1 #
edge $-1 $219 -31.244576961475332 $146 -24.879793155311294 $142 $220 forward 7 unknown #
edge $-1 $147 -10.338122460853654 $219 0 $83 $221 forward 7 unknown #
coedge $-1 $84 $211 $217 $222 forward $135 $-1 #
vertex $-1 $85 $223 #
vertex $-1 $85 $224 #
straight-curve $-1 -12.941984312446865 -34.256699588597243 8.2228266687151681 0 1 0 I I #
coedge $-1 $149 $149 $-1 $225 reversed $88 $-1 #
edge $-1 $226 0 $226 6.2831853071796004 $89 $227 forward 7 unknown #
vertex $-1 $92 $228 #
ellipse-curve $-1 -22.586800830566823 -14.166582402945302 5.0404347656331501 0 -0.61566148304635926 0.78801074757464917 1 0 0 1 I I #
coedge $-1 $153 $153 $-1 $229 reversed $95 $-1 #
edge $-1 $230 0 $230 6.2831853071796004 $96 $231 forward 7 unknown #
vertex $-1 $99 $232 #
ellipse-curve $-1 -16.799910919694849 -14.166582402945302 5.0404347656331501 0 -0.61566148304635926 0.78801074757464917 1 0 0 1 I I #
face $-1 $-1 $169 $15 $-1 $233 reversed single #
loop $-1 $-1 $234 $100 #
plane-surface $-1 0 18.239858207393084 0 0 -1 0 0 0 -1 forward_v I I I I #
coedge $-1 $168 $167 $103 $161 reversed $169 $-1 #
edge $-1 $235 -18.239858207393084 $236 18.239858207393084 $160 $237 forward 7 unknown #
coedge $-1 $105 $104 $108 $173 forward $41 $-1 #
coedge $-1 $234 $111 $104 $164 reversed $158 $-1 #
edge $-1 $171 -40.828882717368082 $178 40.828882717368082 $163 $238 forward 7 unknown #
coedge $-1 $109 $239 $105 $166 reversed $101 $-1 #
edge $-1 $175 -40.828882717368082 $170 40.828882717368082 $165 $240 forward 7 unknown #
coedge $-1 $160 $106 $239 $241 forward $169 $-1 #
coedge $-1 $106 $160 $234 $242 reversed $169 $-1 #
loop $-1 $-1 $167 $157 #
vertex $-1 $107 $243 #
vertex $-1 $107 $244 #
straight-curve $-1 40.828882717368082 0 8.2228266687151681 0 1 0 I I #
edge $-1 $178 -18.239858207393084 $175 18.239858207393084 $108 $245 forward 7 unknown #
coedge $-1 $239 $109 $114 $181 reversed $101 $-1 #
vertex $-1 $173 $246 #
straight-curve $-1 -40.828882717368082 -18.239858207393084 0 0 0 -1 I I #
coedge $-1 $111 $234 $113 $180 reversed $158 $-1 #
vertex $-1 $164 $247 #
straight-curve $-1 -40.828882717368082 18.239858207393084 0 0 0 -1 I I #
edge $-1 $116 -40.828882717368082 $235 40.828882717368082 $177 $248 forward 7 unknown #
edge $-1 $236 -40.828882717368082 $115 40.828882717368082 $174 $249 forward 7 unknown #
point $-1 -40.828882717368082 -18.239858207393084 -8.2228266687151681 #
point $-1 -40.828882717368082 18.239858207393084 -8.2228266687151681 #
face $-1 $-1 $200 $16 $-1 $250 forward single #
plane-surface $-1 -44.96779246940477 -1.7942048699627478 0 0 -1 0 0 0 -1 forward_v I I I I #
coedge $-1 $251 $252 $203 $253 forward $119 $-1 #
coedge $-1 $196 $121 $122 $192 reversed $71 $-1 #
coedge $-1 $121 $196 $199 $254 reversed $71 $-1 #
coedge $-1 $252 $251 $121 $190 reversed $119 $-1 #
edge $-1 $255 -8.2228266687151681 $256 8.2228266687151681 $189 $257 forward 7 unknown #
coedge $-1 $123 $122 $251 $258 forward $45 $-1 #
edge $-1 $194 -4.1389097520366889 $256 4.1389097520366889 $187 $259 forward 7 unknown #
edge $-1 $260 -4.1389097520366889 $131 4.1389097520366889 $128 $261 forward 7 unknown #
vertex $-1 $192 $262 #
straight-curve $-1 -40.828882717368082 0 -8.2228266687151681 0 -1 0 I I #
coedge $-1 $188 $187 $125 $197 reversed $71 $-1 #
edge $-1 $201 -8.2228266687151681 $194 8.2228266687151681 $196 $263 forward 7 unknown #
coedge $-1 $264 $126 $129 $204 forward $200 $-1 #
coedge $-1 $126 $264 $188 $254 forward $200 $-1 #
loop $-1 $-1 $126 $184 #
vertex $-1 $127 $265 #
straight-curve $-1 -40.828882717368082 0 8.2228266687151681 0 1 0 I I #
coedge $-1 $129 $128 $186 $253 reversed $130 $-1 #
edge $-1 $132 -4.1389097520366889 $266 4.1389097520366889 $129 $267 forward 7 unknown #
point $-1 -40.828882717368082 -1.7942048699627478 -8.2228266687151681 #
point $-1 -40.828882717368082 -1.7942048699627478 8.2228266687151681 #
loop $-1 $-1 $142 $134 #
plane-surface $-1 0 -18.239858207393084 0 0 1 0 0 0 1 forward_v I I I I #
coedge $-1 $210 $137 $139 $214 reversed $79 $-1 #
coedge $-1 $137 $209 $268 $269 reversed $79 $-1 #
coedge $-1 $145 $140 $137 $212 forward $135 $-1 #
edge $-1 $215 -24.16339299009972 $270 -16.016841381204159 $211 $271 forward 7 unknown #
coedge $-1 $139 $138 $218 $272 reversed $49 $-1 #
edge $-1 $273 0 $215 10.338122460853654 $209 $274 forward 7 unknown #
vertex $-1 $141 $275 #
straight-curve $-1 -9.846677937565417 -10.093306598497524 8.2228266687151681 -1 0 0 I I #
coedge $-1 $268 $142 $145 $222 reversed $207 $-1 #
coedge $-1 $142 $268 $213 $272 forward $207 $-1 #
vertex $-1 $143 $276 #
straight-curve $-1 -12.941984312446865 -18.239858207393084 33.102619824026462 0 0 1 I I #
straight-curve $-1 -12.941984312446865 -18.239858207393084 1.8580428625511303 0 -0.78801074757464917 -0.61566148304635926 I I #
edge $-1 $270 -26.444727437814805 $146 -12.941984312446865 $217 $277 forward 7 unknown #
point $-1 -12.941984312446865 -18.239858207393084 8.2228266687151681 #
point $-1 -12.941984312446865 -10.093306598497524 8.2228266687151681 #
edge $-1 $278 1 $278 0 $149 $-1 forward 7 unknown #
vertex $-1 $150 $279 #
ellipse-curve $-1 -22.586800830566823 -13.011881267592749 3.5624847396024553 0 -0.61566148304635926 0.78801074757464917 1 0 0 1 I I #
point $-1 -21.586800830566823 -14.1665824029453 5.0404347656331456 #
edge $-1 $280 1 $280 0 $153 $-1 forward 7 unknown #
vertex $-1 $154 $281 #
ellipse-curve $-1 -16.799910919694849 -13.011881267592749 3.5624847396024553 0 -0.61566148304635926 0.78801074757464917 1 0 0 1 I I #
point $-1 -15.799910919694849 -14.1665824029453 5.0404347656331456 #
plane-surface $-1 40.828882717368082 0 0 -1 0 0 0 0 1 forward_v I I I I #
coedge $-1 $177 $163 $168 $242 forward $158 $-1 #
vertex $-1 $161 $282 #
vertex $-1 $241 $283 #
straight-curve $-1 40.828882717368082 0 -8.2228266687151681 0 -1 0 I I #
straight-curve $-1 0 18.239858207393084 8.2228266687151681 -1 0 0 I I #
coedge $-1 $165 $174 $167 $241 reversed $101 $-1 #
straight-curve $-1 0 -18.239858207393084 8.2228266687151681 1 0 0 I I #
edge $-1 $170 -8.2228266687151681 $236 8.2228266687151681 $167 $284 forward 7 unknown #
edge $-1 $171 -8.2228266687151681 $235 8.2228266687151681 $168 $285 forward 7 unknown #
point $-1 40.828882717368082 -18.239858207393084 8.2228266687151681 #
point $-1 40.828882717368082 18.239858207393084 8.2228266687151681 #
straight-curve $-1 -40.828882717368082 0 8.2228266687151681 0 -1 0 I I #
point $-1 -40.828882717368082 -18.239858207393084 8.2228266687151681 #
point $-1 -40.828882717368082 18.239858207393084 8.2228266687151681 #
straight-curve $-1 0 18.239858207393084 -8.2228266687151681 1 0 0 I I #
straight-curve $-1 0 -18.239858207393084 -8.2228266687151681 -1 0 0 I I #
plane-surface $-1 0 0 8.2228266687151681 0 0 1 1 0 0 forward_v I I I I #
coedge $-1 $189 $186 $191 $258 reversed $119 $-1 #
coedge $-1 $186 $189 $264 $286 reversed $119 $-1 #
edge $-1 $266 -8.2228266687151681 $260 8.2228266687151681 $203 $287 forward 7 unknown #
edge $-1 $255 -4.1389097520366889 $201 4.1389097520366889 $188 $288 forward 7 unknown #
vertex $-1 $286 $289 #
vertex $-1 $258 $290 #
straight-curve $-1 -49.106702221441459 -6.1682859088445241 0 0 0 -1 I I #
edge $-1 $256 -2.1870405194408882 $260 2.1870405194408882 $251 $291 forward 7 unknown #
straight-curve $-1 -44.96779246940477 -6.1682859088445241 -8.2228266687151681 -1 0 0 I I #
vertex $-1 $193 $292 #
straight-curve $-1 -44.96779246940477 -1.7942048699627478 -8.2228266687151681 1 0 0 I I #
point $-1 -40.828882717368082 -6.1682859088445241 -8.2228266687151681 #
straight-curve $-1 -40.828882717368082 -6.1682859088445241 0 0 0 -1 I I #
coedge $-1 $199 $198 $252 $286 forward $200 $-1 #
point $-1 -40.828882717368082 -6.1682859088445241 8.2228266687151681 #
vertex $-1 $204 $293 #
straight-curve $-1 -44.96779246940477 -1.7942048699627478 8.2228266687151681 -1 0 0 I I #
coedge $-1 $218 $217 $210 $269 forward $207 $-1 #
edge $-1 $270 24.879793155311294 $273 31.244576961475332 $268 $294 forward 7 unknown #
vertex $-1 $222 $295 #
straight-curve $-1 -26.444727437814805 -34.256699588597243 8.2228266687151681 0 -1 0 I I #
edge $-1 $273 -16.598049500249388 $219 -3.0953063748814476 $218 $296 forward 7 unknown #
vertex $-1 $272 $297 #
straight-curve $-1 -26.444727437814805 -18.239858207393084 1.8580428625511303 0 0.78801074757464917 0.61566148304635926 I I #
point $-1 -26.444727437814805 -10.093306598497524 8.2228266687151681 #
point $-1 -12.941984312446865 -18.239858207393084 1.8580428625511303 #
straight-curve $-1 0 -18.239858207393084 8.2228266687151681 1 0 0 I I #
vertex $-1 $225 $298 #
point $-1 -21.586800830566823 -13.011881267592749 3.5624847396024553 #
vertex $-1 $229 $299 #
point $-1 -15.799910919694849 -13.011881267592749 3.5624847396024553 #
point $-1 40.828882717368082 18.239858207393084 -8.2228266687151681 #
point $-1 40.828882717368082 -18.239858207393084 -8.2228266687151681 #
straight-curve $-1 40.828882717368082 -18.239858207393084 0 0 0 -1 I I #
straight-curve $-1 40.828882717368082 18.239858207393084 0 0 0 -1 I I #
edge $-1 $266 -2.1870405194408882 $255 2.1870405194408882 $252 $300 forward 7 unknown #
straight-curve $-1 -49.106702221441459 -1.7942048699627478 0 0 0 -1 I I #
straight-curve $-1 -44.96779246940477 -6.1682859088445241 8.2228266687151681 1 0 0 I I #
point $-1 -49.106702221441459 -6.1682859088445241 8.2228266687151681 #
point $-1 -49.106702221441459 -6.1682859088445241 -8.2228266687151681 #
straight-curve $-1 -49.106702221441459 -3.9812453894036359 -8.2228266687151681 0 1 0 I I #
point $-1 -49.106702221441459 -1.7942048699627478 -8.2228266687151681 #
point $-1 -49.106702221441459 -1.7942048699627478 8.2228266687151681 #
straight-curve $-1 -26.444727437814805 -18.239858207393084 33.102619824026462 0 0 -1 I I #
point $-1 -26.444727437814805 -18.239858207393084 8.2228266687151681 #
straight-curve $-1 -9.846677937565417 -18.239858207393084 1.8580428625511305 1 0 0 I I #
point $-1 -26.444727437814805 -18.239858207393084 1.8580428625511303 #
point $-1 -22.586800830566823 -12.396219784546389 2.7744739920278061 #
point $-1 -16.799910919694849 -12.396219784546389 2.7744739920278061 #
straight-curve $-1 -49.106702221441459 -3.9812453894036359 8.2228266687151681 0 -1 0 I I #
End-of-ACIS-data 