500 0 5 0           
7 Unknown 11 ACIS 5.0 NT 24 Thu Mar 25 16:58:27 1999 
-1 9.9999999999999995e-007 1e-010 
body $-1 $5 $-1 $6 #
body $-1 $7 $-1 $8 #
body $-1 $9 $-1 $10 #
body $-1 $11 $-1 $12 #
body $-1 $13 $-1 $14 #
lump $-1 $-1 $15 $0 #
transform $-1 1 0 0 0 1 0 0 0 1 60.145878475295262 25.137662176686103 5.5534233445482659 1 rotate no_reflect no_shear #
lump $-1 $-1 $16 $1 #
transform $-1 1 0 0 0 1 0 0 0 1 60.145878475295262 25.137662176686103 5.5534233445482659 1 rotate no_reflect no_shear #
lump $-1 $-1 $17 $2 #
transform $-1 1 0 0 0 1 0 0 0 1 60.145878475295262 25.137662176686103 5.5534233445482659 1 rotate no_reflect no_shear #
lump $-1 $-1 $18 $3 #
transform $-1 1 0 0 0 1 0 0 0 1 60.145878475295262 25.137662176686103 5.5534233445482659 1 rotate no_reflect no_shear #
lump $-1 $-1 $19 $4 #
transform $-1 1 0 0 0 1 0 0 0 1 60.145878475295262 25.137662176686103 5.5534233445482659 1 rotate no_reflect no_shear #
shell $-1 $-1 $-1 $20 $-1 $5 #
shell $-1 $-1 $-1 $21 $-1 $7 #
shell $-1 $-1 $-1 $22 $-1 $9 #
shell $-1 $-1 $-1 $23 $-1 $11 #
shell $-1 $-1 $-1 $24 $-1 $13 #
face $-1 $25 $26 $15 $-1 $27 forward single #
face $-1 $28 $29 $16 $-1 $30 reversed single #
face $-1 $31 $32 $17 $-1 $33 forward single #
face $-1 $34 $35 $18 $-1 $36 reversed single #
face $-1 $37 $38 $19 $-1 $39 forward single #
face $-1 $40 $41 $15 $-1 $42 reversed single #
loop $-1 $-1 $43 $20 #
plane-surface $-1 0 0 5.5534233445482659 0 0 1 1 0 0 forward_v I I I I #
face $-1 $44 $45 $16 $-1 $46 reversed single #
loop $-1 $-1 $47 $21 #
plane-surface $-1 43.585983707981455 -25.137662176686092 0.9988641142130632 0 -0.69465837861970381 0.71933979245794832 1 0 0 forward_v I I I I #
face $-1 $48 $49 $17 $-1 $50 forward single #
loop $-1 $51 $52 $22 #
cone-surface $-1 43.585983707981455 -22.278102214667548 2.7569620398230565 0 0.69465837861970381 -0.71933979245794832 1 0 0 1 I I 0 1 1 forward I I I I #
face $-1 $53 $54 $18 $-1 $55 reversed single #
loop $-1 $-1 $56 $23 #
plane-surface $-1 43.585983707981455 -11.027379209424709 35.923039414106313 0 0.69465837861970381 0.71933979245794832 1 0 0 forward_v I I I I #
face $-1 $57 $58 $19 $-1 $59 forward single #
loop $-1 $60 $61 $24 #
cone-surface $-1 43.585983707981455 22.278102214667545 2.7569620398230503 0 -0.69465837861970381 -0.71933979245794832 1 0 0 1 I I 0 1 1 forward I I I I #
face $-1 $62 $63 $15 $-1 $64 reversed single #
loop $-1 $-1 $65 $25 #
plane-surface $-1 0 0 -5.5534233445482659 0 0 1 1 0 0 forward_v I I I I #
coedge $-1 $66 $67 $68 $69 forward $26 $-1 #
face $-1 $70 $71 $16 $-1 $72 reversed single #
loop $-1 $-1 $73 $28 #
plane-surface $-1 27.026088940667655 -108.6993390212988 87.52951159345281 1 0 0 0 0.69465837861970381 -0.71933979245794832 forward_v I I I I #
coedge $-1 $74 $75 $76 $77 reversed $29 $-1 #
face $-1 $-1 $78 $17 $-1 $79 forward single #
loop $-1 $80 $81 $31 #
cone-surface $-1 43.585983707981455 -21.42940508428385 1.878110454036471 0 0.69465837861970381 -0.71933979245794832 0.5 0 0 1 I I -0.70710678118654746 0.70710678118654746 0.5 forward I I I I #
loop $-1 $-1 $82 $22 #
coedge $-1 $52 $52 $83 $84 reversed $32 $-1 #
face $-1 $85 $86 $18 $-1 $87 forward single #
loop $-1 $-1 $88 $34 #
plane-surface $-1 27.026088940667655 72.534297635187997 122.45368689334606 1 0 0 0 -0.69465837861970381 -0.71933979245794832 forward_v I I I I #
coedge $-1 $89 $90 $91 $92 reversed $35 $-1 #
face $-1 $-1 $93 $19 $-1 $94 forward single #
loop $-1 $95 $96 $37 #
cone-surface $-1 43.585983707981455 21.429405084283847 1.8781104540364648 0 -0.69465837861970381 -0.71933979245794832 0.5 0 0 1 I I -0.70710678118654746 0.70710678118654746 0.5 forward I I I I #
loop $-1 $-1 $97 $24 #
coedge $-1 $61 $61 $98 $99 reversed $38 $-1 #
face $-1 $100 $101 $15 $-1 $102 reversed single #
loop $-1 $-1 $103 $40 #
plane-surface $-1 0 -25.137662176686103 0 0 1 0 0 0 1 forward_v I I I I #
coedge $-1 $104 $105 $106 $107 forward $41 $-1 #
coedge $-1 $108 $43 $109 $110 forward $26 $-1 #
coedge $-1 $43 $108 $111 $112 forward $26 $-1 #
coedge $-1 $113 $114 $43 $69 reversed $115 $-1 #
edge $-1 $116 -25.137662176686103 $117 25.137662176686103 $68 $118 forward 7 unknown #
face $-1 $119 $120 $16 $-1 $121 forward single #
loop $-1 $-1 $122 $44 #
plane-surface $-1 0 -25.137662176686103 0 0 1 0 0 0 1 forward_v I I I I #
coedge $-1 $123 $124 $125 $126 reversed $45 $-1 #
coedge $-1 $127 $47 $128 $129 reversed $29 $-1 #
coedge $-1 $47 $127 $123 $130 forward $29 $-1 #
coedge $-1 $125 $131 $47 $77 forward $120 $-1 #
edge $-1 $132 -38.352886621304528 $133 -5.2330970866769277 $76 $134 forward 7 unknown #
loop $-1 $-1 $83 $48 #
plane-surface $-1 43.585983707981455 -25.137662176686092 0.9988641142130632 0 -0.69465837861970381 0.71933979245794832 1 0 0 forward_v I I I I #
loop $-1 $-1 $135 $31 #
coedge $-1 $81 $81 $82 $136 reversed $49 $-1 #
coedge $-1 $82 $82 $81 $136 forward $51 $-1 #
coedge $-1 $83 $83 $52 $84 forward $78 $-1 #
edge $-1 $137 -5.7154828014275099e-016 $137 6.2831853071795996 $83 $138 forward 7 unknown #
face $-1 $139 $140 $18 $-1 $141 reversed single #
loop $-1 $-1 $142 $53 #
plane-surface $-1 0 0 5.5534233445482659 0 0 1 1 0 0 forward_v I I I I #
coedge $-1 $143 $144 $145 $146 reversed $54 $-1 #
coedge $-1 $147 $56 $148 $149 reversed $35 $-1 #
coedge $-1 $56 $147 $143 $150 forward $35 $-1 #
coedge $-1 $145 $151 $56 $92 forward $152 $-1 #
edge $-1 $153 -38.352886621304535 $154 -5.2330970866769277 $91 $155 forward 7 unknown #
loop $-1 $-1 $98 $57 #
plane-surface $-1 43.585983707981455 -11.027379209424709 35.923039414106313 0 0.69465837861970381 0.71933979245794832 1 0 0 forward_v I I I I #
loop $-1 $-1 $156 $37 #
coedge $-1 $96 $96 $97 $157 reversed $58 $-1 #
coedge $-1 $97 $97 $96 $157 forward $60 $-1 #
coedge $-1 $98 $98 $61 $99 forward $93 $-1 #
edge $-1 $158 -1.2339611619077996e-015 $158 6.2831853071795996 $98 $159 forward 7 unknown #
face $-1 $160 $161 $15 $-1 $162 reversed single #
loop $-1 $-1 $163 $62 #
plane-surface $-1 -60.145878475295262 0 0 1 0 0 0 0 -1 forward_v I I I I #
coedge $-1 $164 $111 $165 $166 forward $63 $-1 #
coedge $-1 $167 $65 $164 $168 forward $41 $-1 #
coedge $-1 $65 $167 $169 $170 forward $41 $-1 #
coedge $-1 $114 $113 $65 $107 reversed $115 $-1 #
edge $-1 $171 -25.137662176686103 $172 25.137662176686103 $106 $173 forward 7 unknown #
coedge $-1 $67 $66 $174 $175 forward $26 $-1 #
coedge $-1 $176 $177 $66 $110 reversed $161 $-1 #
edge $-1 $117 -60.145878475295262 $178 60.145878475295262 $109 $179 forward 7 unknown #
coedge $-1 $103 $180 $67 $112 reversed $63 $-1 #
edge $-1 $181 -60.145878475295262 $116 60.145878475295262 $111 $182 forward 7 unknown #
coedge $-1 $106 $68 $180 $183 forward $115 $-1 #
coedge $-1 $68 $106 $176 $184 reversed $115 $-1 #
loop $-1 $-1 $113 $160 #
vertex $-1 $69 $185 #
vertex $-1 $69 $186 #
straight-curve $-1 60.145878475295262 0 5.5534233445482659 0 1 0 I I #
face $-1 $-1 $187 $16 $-1 $188 reversed single #
loop $-1 $-1 $125 $70 #
plane-surface $-1 0 0 5.5534233445482659 0 0 1 1 0 0 forward_v I I I I #
coedge $-1 $189 $190 $124 $191 forward $71 $-1 #
coedge $-1 $124 $73 $75 $130 reversed $45 $-1 #
coedge $-1 $73 $123 $122 $191 reversed $45 $-1 #
coedge $-1 $192 $76 $73 $126 forward $120 $-1 #
edge $-1 $133 -33.92839137585274 $193 -29.212007333963296 $125 $194 forward 7 unknown #
coedge $-1 $75 $74 $189 $195 reversed $29 $-1 #
coedge $-1 $196 $197 $74 $129 forward $187 $-1 #
edge $-1 $198 -8.6943256835073832 $132 -2.1377802353905881 $128 $199 forward 7 unknown #
edge $-1 $200 -1.4839224214701683e-014 $133 6.55654544811678 $123 $201 forward 7 unknown #
coedge $-1 $76 $192 $196 $202 forward $120 $-1 #
vertex $-1 $129 $203 #
vertex $-1 $77 $204 #
straight-curve $-1 21.792991853990728 -20.421278134796662 5.5534233445482659 -1 0 0 I I #
coedge $-1 $135 $135 $-1 $205 reversed $80 $-1 #
edge $-1 $206 0 $206 6.2831853071796004 $81 $207 forward 7 unknown #
vertex $-1 $84 $208 #
ellipse-curve $-1 43.585983707981455 -22.779470155741382 3.2761437293806575 0 -0.69465837861970381 0.71933979245794832 1 0 0 1 I I #
face $-1 $-1 $152 $18 $-1 $209 reversed single #
loop $-1 $-1 $148 $85 #
plane-surface $-1 60.145878475295262 0 0 -1 0 0 0 0 1 forward_v I I I I #
coedge $-1 $210 $211 $144 $212 forward $86 $-1 #
coedge $-1 $144 $88 $90 $150 reversed $54 $-1 #
coedge $-1 $88 $143 $142 $212 reversed $54 $-1 #
coedge $-1 $213 $91 $88 $146 forward $152 $-1 #
edge $-1 $154 -60.227979332459974 $214 -55.673420102124766 $145 $215 forward 7 unknown #
coedge $-1 $90 $89 $210 $216 reversed $35 $-1 #
coedge $-1 $217 $218 $89 $149 forward $140 $-1 #
edge $-1 $219 27.275442412076693 $153 33.831987860193493 $148 $220 forward 7 unknown #
edge $-1 $221 43.718778905255434 $154 50.275324353372227 $143 $222 forward 7 unknown #
coedge $-1 $91 $213 $217 $223 forward $152 $-1 #
loop $-1 $-1 $145 $139 #
vertex $-1 $149 $224 #
vertex $-1 $92 $225 #
straight-curve $-1 21.792991853990728 25.137662176686099 0.99886411421305255 -1 0 0 I I #
coedge $-1 $156 $156 $-1 $226 reversed $95 $-1 #
edge $-1 $227 0 $227 6.2831853071796004 $96 $228 forward 7 unknown #
vertex $-1 $99 $229 #
ellipse-curve $-1 43.585983707981455 22.779470155741389 3.2761437293806597 0 0.69465837861970381 0.71933979245794832 1 0 0 1 I I #
face $-1 $-1 $115 $15 $-1 $230 reversed single #
loop $-1 $-1 $176 $100 #
plane-surface $-1 0 25.137662176686103 0 0 -1 0 0 0 -1 forward_v I I I I #
coedge $-1 $231 $174 $177 $232 forward $101 $-1 #
coedge $-1 $180 $103 $104 $168 reversed $63 $-1 #
coedge $-1 $174 $231 $103 $166 reversed $101 $-1 #
edge $-1 $181 -5.5534233445482659 $233 5.5534233445482659 $165 $234 forward 7 unknown #
coedge $-1 $105 $104 $231 $235 forward $41 $-1 #
edge $-1 $172 -60.145878475295262 $233 60.145878475295262 $164 $236 forward 7 unknown #
coedge $-1 $177 $176 $105 $170 reversed $161 $-1 #
edge $-1 $237 -60.145878475295262 $171 60.145878475295262 $169 $238 forward 7 unknown #
vertex $-1 $107 $239 #
vertex $-1 $183 $240 #
straight-curve $-1 60.145878475295262 0 -5.5534233445482659 0 -1 0 I I #
coedge $-1 $163 $165 $108 $175 reversed $101 $-1 #
edge $-1 $178 -25.137662176686103 $181 25.137662176686103 $174 $241 forward 7 unknown #
coedge $-1 $169 $109 $114 $184 forward $161 $-1 #
coedge $-1 $109 $169 $163 $232 reversed $161 $-1 #
vertex $-1 $110 $242 #
straight-curve $-1 0 25.137662176686103 5.5534233445482659 -1 0 0 I I #
coedge $-1 $111 $164 $113 $183 reversed $63 $-1 #
vertex $-1 $175 $243 #
straight-curve $-1 0 -25.137662176686103 5.5534233445482659 1 0 0 I I #
edge $-1 $116 -5.5534233445482659 $172 5.5534233445482659 $113 $244 forward 7 unknown #
edge $-1 $117 -5.5534233445482659 $171 5.5534233445482659 $114 $245 forward 7 unknown #
point $-1 60.145878475295262 -25.137662176686103 5.5534233445482659 #
point $-1 60.145878475295262 25.137662176686103 5.5534233445482659 #
loop $-1 $-1 $128 $119 #
plane-surface $-1 60.145878475295262 0 0 -1 0 0 0 0 1 forward_v I I I I #
coedge $-1 $246 $122 $127 $195 forward $71 $-1 #
coedge $-1 $122 $246 $192 $247 reversed $71 $-1 #
edge $-1 $193 38.211332452178141 $200 42.765891682513349 $122 $248 forward 7 unknown #
coedge $-1 $131 $125 $190 $247 forward $120 $-1 #
vertex $-1 $247 $249 #
straight-curve $-1 27.026088940667655 -54.349669510649399 5.5534233445482641 0 -1 0 I I #
edge $-1 $200 5.2330970866769277 $198 38.352886621304528 $189 $250 forward 7 unknown #
coedge $-1 $197 $128 $131 $202 reversed $187 $-1 #
coedge $-1 $128 $196 $246 $251 forward $187 $-1 #
vertex $-1 $195 $252 #
straight-curve $-1 60.145878475295262 -18.883487743950091 7.0384502967099403 0 0.71933979245794832 0.69465837861970381 I I #
vertex $-1 $195 $253 #
straight-curve $-1 27.026088940667655 -25.137662176686092 0.9988641142130632 0 0.71933979245794832 0.69465837861970381 I I #
edge $-1 $254 -25.137662176686103 $132 -20.421278134796662 $196 $255 forward 7 unknown #
point $-1 60.145878475295255 -20.421278134796662 5.5534233445482659 #
point $-1 27.026088940667655 -20.421278134796662 5.5534233445482659 #
edge $-1 $256 1 $256 0 $135 $-1 forward 7 unknown #
vertex $-1 $136 $257 #
ellipse-curve $-1 43.585983707981455 -21.776734273593704 2.237780350265445 0 -0.69465837861970381 0.71933979245794832 1 0 0 1 I I #
point $-1 44.585983707981455 -22.779470155741393 3.2761437293806677 #
plane-surface $-1 0 25.137662176686103 0 0 -1 0 0 0 -1 forward_v I I I I #
coedge $-1 $258 $142 $147 $216 forward $86 $-1 #
coedge $-1 $142 $258 $213 $259 forward $86 $-1 #
edge $-1 $214 11.129486640907896 $221 15.845870682797333 $142 $260 forward 7 unknown #
coedge $-1 $151 $145 $211 $259 reversed $152 $-1 #
vertex $-1 $212 $261 #
straight-curve $-1 27.026088940667655 25.137662176686103 61.22684344667303 0 0 1 I I #
edge $-1 $221 5.2330970866769277 $219 38.352886621304528 $210 $262 forward 7 unknown #
coedge $-1 $218 $148 $151 $223 reversed $140 $-1 #
coedge $-1 $148 $217 $258 $263 reversed $140 $-1 #
vertex $-1 $263 $264 #
straight-curve $-1 60.145878475295262 0.80096705089469022 24.500537946656564 0 0.71933979245794832 -0.69465837861970381 I I #
vertex $-1 $216 $265 #
straight-curve $-1 27.026088940667655 -11.027379209424709 35.923039414106313 0 0.71933979245794832 -0.69465837861970381 I I #
edge $-1 $266 -5.5534233445482659 $153 -0.99886411421304999 $217 $267 forward 7 unknown #
point $-1 60.145878475295262 25.137662176686103 0.99886411421304999 #
point $-1 27.026088940667655 25.137662176686106 0.9988641142130561 #
edge $-1 $268 1 $268 0 $156 $-1 forward 7 unknown #
vertex $-1 $157 $269 #
ellipse-curve $-1 43.585983707981455 21.7767342735937 2.2377803502654388 0 0.69465837861970381 0.71933979245794832 1 0 0 1 I I #
point $-1 44.585983707981455 22.779470155741389 3.2761437293806615 #
plane-surface $-1 60.145878475295262 0 0 -1 0 0 0 0 1 forward_v I I I I #
coedge $-1 $165 $163 $167 $235 reversed $101 $-1 #
edge $-1 $178 -5.5534233445482659 $237 5.5534233445482659 $177 $270 forward 7 unknown #
vertex $-1 $235 $271 #
straight-curve $-1 -60.145878475295262 -25.137662176686103 0 0 0 -1 I I #
edge $-1 $233 -25.137662176686103 $237 25.137662176686103 $231 $272 forward 7 unknown #
straight-curve $-1 0 -25.137662176686103 -5.5534233445482659 -1 0 0 I I #
vertex $-1 $170 $273 #
straight-curve $-1 0 25.137662176686103 -5.5534233445482659 1 0 0 I I #
point $-1 60.145878475295262 25.137662176686103 -5.5534233445482659 #
point $-1 60.145878475295262 -25.137662176686103 -5.5534233445482659 #
straight-curve $-1 -60.145878475295262 0 5.5534233445482659 0 -1 0 I I #
point $-1 -60.145878475295262 25.137662176686103 5.5534233445482659 #
point $-1 -60.145878475295262 -25.137662176686103 5.5534233445482659 #
straight-curve $-1 60.145878475295262 -25.137662176686103 0 0 0 -1 I I #
straight-curve $-1 60.145878475295262 25.137662176686103 0 0 0 -1 I I #
coedge $-1 $190 $189 $197 $251 reversed $71 $-1 #
edge $-1 $193 27.026088940667655 $254 60.145878475295262 $190 $274 forward 7 unknown #
straight-curve $-1 27.026088940667655 -25.137662176686106 43.764755796726405 0 0 -1 I I #
point $-1 27.026088940667655 -25.137662176686103 5.5534233445482659 #
straight-curve $-1 21.792991853990728 -25.137662176686103 0.99886411421305366 1 0 0 I I #
edge $-1 $254 -5.5534233445482659 $198 -0.99886411421305288 $197 $275 forward 7 unknown #
point $-1 60.145878475295255 -25.137662176686103 0.99886411421305288 #
point $-1 27.026088940667655 -25.137662176686103 0.99886411421305288 #
vertex $-1 $202 $276 #
straight-curve $-1 60.145878475295262 0 5.5534233445482659 0 1 0 I I #
vertex $-1 $205 $277 #
point $-1 44.585983707981455 -21.776734273593704 2.237780350265445 #
coedge $-1 $211 $210 $218 $263 forward $86 $-1 #
edge $-1 $266 -60.145878475295262 $214 -27.026088940667655 $213 $278 forward 7 unknown #
straight-curve $-1 27.026088940667655 36.267148817593998 5.5534233445482641 0 -1 0 I I #
point $-1 27.026088940667655 25.137662176686103 5.5534233445482659 #
straight-curve $-1 21.792991853990728 20.421278134796665 5.5534233445482641 1 0 0 I I #
edge $-1 $219 20.421278134796665 $266 25.137662176686103 $218 $279 forward 7 unknown #
point $-1 60.145878475295255 20.421278134796665 5.5534233445482641 #
point $-1 27.026088940667655 20.421278134796665 5.5534233445482641 #
vertex $-1 $263 $280 #
straight-curve $-1 60.145878475295262 25.137662176686103 0 0 0 -1 I I #
vertex $-1 $226 $281 #
point $-1 44.585983707981455 21.7767342735937 2.2377803502654388 #
straight-curve $-1 -60.145878475295262 25.137662176686103 0 0 0 -1 I I #
point $-1 -60.145878475295262 -25.137662176686103 -5.5534233445482659 #
straight-curve $-1 -60.145878475295262 0 -5.5534233445482659 0 1 0 I I #
point $-1 -60.145878475295262 25.137662176686103 -5.5534233445482659 #
straight-curve $-1 0 -25.137662176686103 5.5534233445482659 1 0 0 I I #
straight-curve $-1 60.145878475295262 -25.137662176686103 0 0 0 -1 I I #
point $-1 60.145878475295262 -25.137662176686103 5.5534233445482659 #
point $-1 43.585983707981455 -21.082075894973997 1.5184405578074969 #
straight-curve $-1 0 25.137662176686103 5.5534233445482659 -1 0 0 I I #
straight-curve $-1 60.145878475295262 0 5.5534233445482659 0 1 0 I I #
point $-1 60.145878475295262 25.137662176686103 5.5534233445482659 #
point $-1 43.585983707981455 21.082075894973993 1.5184405578074907 #
End-of-ACIS-data 