500 0 10 0           
7 Unknown 11 ACIS 5.0 NT 24 Thu Mar 25 21:56:28 1999 
-1 9.9999999999999995e-007 1e-010 
body $-1 $10 $-1 $11 #
body $-1 $12 $-1 $13 #
body $-1 $14 $-1 $15 #
body $-1 $16 $-1 $17 #
body $-1 $18 $-1 $19 #
body $-1 $20 $-1 $21 #
body $-1 $22 $-1 $23 #
body $-1 $24 $-1 $25 #
body $-1 $26 $-1 $27 #
body $-1 $28 $-1 $29 #
lump $-1 $-1 $30 $0 #
transform $-1 1 0 0 0 1 0 0 0 1 79.103976561784719 35.419954030483389 12.498000015413247 1 rotate no_reflect no_shear #
lump $-1 $-1 $31 $1 #
transform $-1 1 0 0 0 1 0 0 0 1 79.103976561784719 35.419954030483389 12.498000015413247 1 rotate no_reflect no_shear #
lump $-1 $-1 $32 $2 #
transform $-1 1 0 0 0 1 0 0 0 1 79.103976561784719 35.419954030483389 12.498000015413247 1 rotate no_reflect no_shear #
lump $-1 $-1 $33 $3 #
transform $-1 1 0 0 0 1 0 0 0 1 79.103976561784719 35.419954030483389 12.498000015413247 1 rotate no_reflect no_shear #
lump $-1 $-1 $34 $4 #
transform $-1 1 0 0 0 1 0 0 0 1 79.103976561784719 35.419954030483389 12.498000015413247 1 rotate no_reflect no_shear #
lump $-1 $-1 $35 $5 #
transform $-1 1 0 0 0 1 0 0 0 1 79.103976561784719 35.419954030483389 12.498000015413247 1 rotate no_reflect no_shear #
lump $-1 $-1 $36 $6 #
transform $-1 1 0 0 0 1 0 0 0 1 79.103976561784719 35.419954030483389 12.498000015413247 1 rotate no_reflect no_shear #
lump $-1 $-1 $37 $7 #
transform $-1 1 0 0 0 1 0 0 0 1 79.103976561784719 35.419954030483389 12.498000015413247 1 rotate no_reflect no_shear #
lump $-1 $-1 $38 $8 #
transform $-1 1 0 0 0 1 0 0 0 1 79.103976561784719 35.419954030483389 12.498000015413247 1 rotate no_reflect no_shear #
lump $-1 $-1 $39 $9 #
transform $-1 1 0 0 0 1 0 0 0 1 79.103976561784719 35.419954030483389 12.498000015413247 1 rotate no_reflect no_shear #
shell $-1 $-1 $-1 $40 $-1 $10 #
shell $-1 $-1 $-1 $41 $-1 $12 #
shell $-1 $-1 $-1 $42 $-1 $14 #
shell $-1 $-1 $-1 $43 $-1 $16 #
shell $-1 $-1 $-1 $44 $-1 $18 #
shell $-1 $-1 $-1 $45 $-1 $20 #
shell $-1 $-1 $-1 $46 $-1 $22 #
shell $-1 $-1 $-1 $47 $-1 $24 #
shell $-1 $-1 $-1 $48 $-1 $26 #
shell $-1 $-1 $-1 $49 $-1 $28 #
face $-1 $50 $51 $30 $-1 $52 forward single #
face $-1 $53 $54 $31 $-1 $55 forward single #
face $-1 $56 $57 $32 $-1 $58 reversed single #
face $-1 $59 $60 $33 $-1 $61 forward single #
face $-1 $62 $63 $34 $-1 $64 forward single #
face $-1 $65 $66 $35 $-1 $67 forward single #
face $-1 $68 $69 $36 $-1 $70 reversed single #
face $-1 $71 $72 $37 $-1 $73 forward single #
face $-1 $74 $75 $38 $-1 $76 forward single #
face $-1 $77 $78 $39 $-1 $79 forward single #
face $-1 $80 $81 $30 $-1 $82 reversed single #
loop $-1 $-1 $83 $40 #
plane-surface $-1 0 0 12.498000015413247 0 0 1 1 0 0 forward_v I I I I #
face $-1 $84 $85 $31 $-1 $86 reversed single #
loop $-1 $-1 $87 $41 #
plane-surface $-1 0 -30.954006347739483 6.5824308929738526 0 0 1 1 0 0 forward_v I I I I #
face $-1 $88 $89 $32 $-1 $90 reversed single #
loop $-1 $-1 $91 $42 #
plane-surface $-1 -79.103976561784691 -18.573706732236197 0.17044050444235381 -0.51503808176128008 0 0.85716729658548041 0.85716729658548041 0 0.51503808176128008 forward_v I I I I #
face $-1 $92 $93 $33 $-1 $94 forward single #
loop $-1 $95 $96 $43 #
cone-surface $-1 -67.861011112759783 -23.322317891891824 4.6953818921648978 0.51503808176128008 0 -0.85716729658548041 0.85716729658548041 0 0.51503808176128008 1 I I 0 1 1 forward I I I I #
face $-1 $97 $98 $34 $-1 $99 forward single #
loop $-1 $100 $101 $44 #
cone-surface $-1 -67.861011112759783 -18.573706732236197 4.6953818921648978 0.51503808176128008 0 -0.85716729658548041 0.85716729658548041 0 0.51503808176128008 1 I I 0 1 1 forward I I I I #
face $-1 $102 $103 $35 $-1 $104 forward single #
loop $-1 $105 $106 $45 #
cone-surface $-1 -67.861011112759783 -13.825095572580569 4.6953818921648978 0.51503808176128008 0 -0.85716729658548041 0.85716729658548041 0 0.51503808176128008 1 I I 0 1 1 forward I I I I #
face $-1 $107 $108 $36 $-1 $109 reversed single #
loop $-1 $-1 $110 $46 #
plane-surface $-1 -56.506706915467703 -18.573706732236197 81.653561200584051 0.51503808176128008 0 0.85716729658548041 0.85716729658548041 0 -0.51503808176128008 forward_v I I I I #
face $-1 $111 $112 $37 $-1 $113 forward single #
loop $-1 $114 $115 $47 #
cone-surface $-1 67.861011112759812 -23.322317891891824 4.6953818921648836 -0.51503808176128008 0 -0.85716729658548041 0.85716729658548041 0 -0.51503808176128008 1 I I 0 1 1 forward I I I I #
face $-1 $116 $117 $38 $-1 $118 forward single #
loop $-1 $119 $120 $48 #
cone-surface $-1 67.861011112759812 -18.573706732236197 4.6953818921648836 -0.51503808176128008 0 -0.85716729658548041 0.85716729658548041 0 -0.51503808176128008 1 I I 0 1 1 forward I I I I #
face $-1 $121 $122 $39 $-1 $123 forward single #
loop $-1 $124 $125 $49 #
cone-surface $-1 67.861011112759812 -13.825095572580569 4.6953818921648836 -0.51503808176128008 0 -0.85716729658548041 0.85716729658548041 0 -0.51503808176128008 1 I I 0 1 1 forward I I I I #
face $-1 $126 $127 $30 $-1 $128 reversed single #
loop $-1 $-1 $129 $50 #
plane-surface $-1 0 0 -12.498000015413247 0 0 1 1 0 0 forward_v I I I I #
coedge $-1 $130 $131 $132 $133 forward $51 $-1 #
face $-1 $134 $135 $31 $-1 $136 reversed single #
loop $-1 $-1 $137 $53 #
plane-surface $-1 0 -30.954006347739483 1.4853584296426527 0 0 1 1 0 0 forward_v I I I I #
coedge $-1 $138 $139 $140 $141 reversed $54 $-1 #
face $-1 $142 $143 $32 $-1 $144 forward single #
loop $-1 $-1 $145 $56 #
plane-surface $-1 -160.58709725792642 -10.659354799476816 135.78112398169478 0 -1 0 0.51503808176128008 0 -0.85716729658548041 forward_v I I I I #
coedge $-1 $146 $147 $148 $149 reversed $57 $-1 #
face $-1 $-1 $150 $33 $-1 $151 forward single #
loop $-1 $152 $153 $59 #
cone-surface $-1 -66.618778617910806 -23.322317891891824 2.6279598761092515 0.51503808176128008 0 -0.85716729658548041 0.4285836482927402 0 0.25751904088064004 1 I I -0.70710678118654746 0.70710678118654746 0.5 forward I I I I #
loop $-1 $-1 $154 $43 #
coedge $-1 $96 $96 $155 $156 reversed $60 $-1 #
face $-1 $-1 $157 $34 $-1 $158 forward single #
loop $-1 $159 $160 $62 #
cone-surface $-1 -66.618778617910806 -18.573706732236197 2.6279598761092515 0.51503808176128008 0 -0.85716729658548041 0.4285836482927402 0 0.25751904088064004 1 I I -0.70710678118654746 0.70710678118654746 0.5 forward I I I I #
loop $-1 $-1 $161 $44 #
coedge $-1 $101 $101 $162 $163 reversed $63 $-1 #
face $-1 $-1 $164 $35 $-1 $165 forward single #
loop $-1 $166 $167 $65 #
cone-surface $-1 -66.618778617910806 -13.825095572580569 2.6279598761092515 0.51503808176128008 0 -0.85716729658548041 0.4285836482927402 0 0.25751904088064004 1 I I -0.70710678118654746 0.70710678118654746 0.5 forward I I I I #
loop $-1 $-1 $168 $45 #
coedge $-1 $106 $106 $169 $170 reversed $66 $-1 #
face $-1 $171 $172 $36 $-1 $173 reversed single #
loop $-1 $-1 $174 $68 #
plane-surface $-1 24.976413780674022 -10.659354799476816 217.26424467783647 0 -1 0 -0.51503808176128008 0 -0.85716729658548041 forward_v I I I I #
coedge $-1 $175 $176 $177 $178 reversed $69 $-1 #
face $-1 $-1 $179 $37 $-1 $180 forward single #
loop $-1 $181 $182 $71 #
cone-surface $-1 66.618778617910834 -23.322317891891824 2.6279598761092373 -0.51503808176128008 0 -0.85716729658548041 0.4285836482927402 0 -0.25751904088064004 1 I I -0.70710678118654746 0.70710678118654746 0.5 forward I I I I #
loop $-1 $-1 $183 $47 #
coedge $-1 $115 $115 $184 $185 reversed $72 $-1 #
face $-1 $-1 $186 $38 $-1 $187 forward single #
loop $-1 $188 $189 $74 #
cone-surface $-1 66.618778617910834 -18.573706732236197 2.6279598761092373 -0.51503808176128008 0 -0.85716729658548041 0.4285836482927402 0 -0.25751904088064004 1 I I -0.70710678118654746 0.70710678118654746 0.5 forward I I I I #
loop $-1 $-1 $190 $48 #
coedge $-1 $120 $120 $191 $192 reversed $75 $-1 #
face $-1 $-1 $193 $39 $-1 $194 forward single #
loop $-1 $195 $196 $77 #
cone-surface $-1 66.618778617910834 -13.825095572580569 2.6279598761092373 -0.51503808176128008 0 -0.85716729658548041 0.4285836482927402 0 -0.25751904088064004 1 I I -0.70710678118654746 0.70710678118654746 0.5 forward I I I I #
loop $-1 $-1 $197 $49 #
coedge $-1 $125 $125 $198 $199 reversed $78 $-1 #
face $-1 $200 $201 $30 $-1 $202 reversed single #
loop $-1 $-1 $203 $80 #
plane-surface $-1 0 -35.419954030483389 0 0 1 0 0 0 1 forward_v I I I I #
coedge $-1 $204 $205 $206 $207 forward $81 $-1 #
coedge $-1 $208 $83 $209 $210 forward $51 $-1 #
coedge $-1 $83 $208 $211 $212 forward $51 $-1 #
coedge $-1 $213 $214 $83 $133 reversed $215 $-1 #
edge $-1 $216 -35.419954030483389 $217 35.419954030483389 $132 $218 forward 7 unknown #
face $-1 $219 $220 $31 $-1 $221 reversed single #
loop $-1 $-1 $222 $84 #
plane-surface $-1 0 -26.488058664995577 4.0338946613082527 0 -1 0 0 0 -1 forward_v I I I I #
coedge $-1 $223 $224 $225 $226 reversed $85 $-1 #
coedge $-1 $227 $87 $228 $229 forward $54 $-1 #
coedge $-1 $87 $227 $230 $231 reversed $54 $-1 #
coedge $-1 $232 $233 $87 $141 forward $234 $-1 #
edge $-1 $235 11.011055491125836 $236 19.942950856613649 $140 $237 forward 7 unknown #
face $-1 $238 $239 $32 $-1 $240 forward single #
loop $-1 $-1 $241 $88 #
plane-surface $-1 0 -26.488058664995577 4.0338946613082527 0 -1 0 0 0 -1 forward_v I I I I #
coedge $-1 $242 $243 $244 $245 reversed $89 $-1 #
coedge $-1 $246 $91 $241 $247 forward $57 $-1 #
coedge $-1 $91 $246 $242 $248 forward $57 $-1 #
coedge $-1 $244 $249 $91 $149 forward $239 $-1 #
edge $-1 $250 -17.201205298877479 $251 -1.3725014333587175 $148 $252 forward 7 unknown #
loop $-1 $-1 $155 $92 #
plane-surface $-1 -79.103976561784691 -18.573706732236197 0.17044050444235381 -0.51503808176128008 0 0.85716729658548041 0.85716729658548041 0 0.51503808176128008 forward_v I I I I #
loop $-1 $-1 $253 $59 #
coedge $-1 $153 $153 $154 $254 reversed $93 $-1 #
coedge $-1 $154 $154 $153 $254 forward $95 $-1 #
coedge $-1 $155 $155 $96 $156 forward $150 $-1 #
edge $-1 $255 0 $255 6.2831853071796004 $155 $256 forward 7 unknown #
loop $-1 $-1 $162 $97 #
plane-surface $-1 -79.103976561784691 -18.573706732236197 0.17044050444235381 -0.51503808176128008 0 0.85716729658548041 0.85716729658548041 0 0.51503808176128008 forward_v I I I I #
loop $-1 $-1 $257 $62 #
coedge $-1 $160 $160 $161 $258 reversed $98 $-1 #
coedge $-1 $161 $161 $160 $258 forward $100 $-1 #
coedge $-1 $162 $162 $101 $163 forward $157 $-1 #
edge $-1 $259 0 $259 6.2831853071796004 $162 $260 forward 7 unknown #
loop $-1 $-1 $169 $102 #
plane-surface $-1 -79.103976561784691 -18.573706732236197 0.17044050444235381 -0.51503808176128008 0 0.85716729658548041 0.85716729658548041 0 0.51503808176128008 forward_v I I I I #
loop $-1 $-1 $261 $65 #
coedge $-1 $167 $167 $168 $262 reversed $103 $-1 #
coedge $-1 $168 $168 $167 $262 forward $105 $-1 #
coedge $-1 $169 $169 $106 $170 forward $164 $-1 #
edge $-1 $263 0 $263 6.2831853071796004 $169 $264 forward 7 unknown #
face $-1 $265 $266 $36 $-1 $267 forward single #
loop $-1 $-1 $268 $107 #
plane-surface $-1 79.103976561784719 0 0 -1 0 0 0 0 1 forward_v I I I I #
coedge $-1 $269 $270 $271 $272 reversed $108 $-1 #
coedge $-1 $273 $110 $274 $275 forward $69 $-1 #
coedge $-1 $110 $273 $269 $276 forward $69 $-1 #
coedge $-1 $271 $268 $110 $178 forward $172 $-1 #
edge $-1 $277 -17.201205298877479 $278 -1.3725014333587175 $177 $279 forward 7 unknown #
loop $-1 $-1 $184 $111 #
plane-surface $-1 -56.506706915467703 -18.573706732236197 81.653561200584051 0.51503808176128008 0 0.85716729658548041 0.85716729658548041 0 -0.51503808176128008 forward_v I I I I #
loop $-1 $-1 $280 $71 #
coedge $-1 $182 $182 $183 $281 reversed $112 $-1 #
coedge $-1 $183 $183 $182 $281 forward $114 $-1 #
coedge $-1 $184 $184 $115 $185 forward $179 $-1 #
edge $-1 $282 0 $282 6.2831853071796004 $184 $283 forward 7 unknown #
loop $-1 $-1 $191 $116 #
plane-surface $-1 -56.506706915467703 -18.573706732236197 81.653561200584051 0.51503808176128008 0 0.85716729658548041 0.85716729658548041 0 -0.51503808176128008 forward_v I I I I #
loop $-1 $-1 $284 $74 #
coedge $-1 $189 $189 $190 $285 reversed $117 $-1 #
coedge $-1 $190 $190 $189 $285 forward $119 $-1 #
coedge $-1 $191 $191 $120 $192 forward $186 $-1 #
edge $-1 $286 0 $286 6.2831853071796004 $191 $287 forward 7 unknown #
loop $-1 $-1 $198 $121 #
plane-surface $-1 -56.506706915467703 -18.573706732236197 81.653561200584051 0.51503808176128008 0 0.85716729658548041 0.85716729658548041 0 -0.51503808176128008 forward_v I I I I #
loop $-1 $-1 $288 $77 #
coedge $-1 $196 $196 $197 $289 reversed $122 $-1 #
coedge $-1 $197 $197 $196 $289 forward $124 $-1 #
coedge $-1 $198 $198 $125 $199 forward $193 $-1 #
edge $-1 $290 0 $290 6.2831853071796004 $198 $291 forward 7 unknown #
face $-1 $292 $293 $30 $-1 $294 reversed single #
loop $-1 $-1 $295 $126 #
plane-surface $-1 -79.103976561784719 0 0 1 0 0 0 0 -1 forward_v I I I I #
coedge $-1 $296 $211 $297 $298 forward $127 $-1 #
coedge $-1 $299 $129 $296 $300 forward $81 $-1 #
coedge $-1 $129 $299 $301 $302 forward $81 $-1 #
coedge $-1 $214 $213 $129 $207 reversed $215 $-1 #
edge $-1 $303 -35.419954030483389 $304 35.419954030483389 $206 $305 forward 7 unknown #
coedge $-1 $131 $130 $306 $307 forward $51 $-1 #
coedge $-1 $308 $309 $130 $210 reversed $293 $-1 #
edge $-1 $217 -79.103976561784719 $310 79.103976561784719 $209 $311 forward 7 unknown #
coedge $-1 $203 $312 $131 $212 reversed $127 $-1 #
edge $-1 $313 -79.103976561784719 $216 79.103976561784719 $211 $314 forward 7 unknown #
coedge $-1 $206 $132 $312 $315 forward $215 $-1 #
coedge $-1 $132 $206 $308 $316 reversed $215 $-1 #
loop $-1 $-1 $213 $292 #
vertex $-1 $133 $317 #
vertex $-1 $133 $318 #
straight-curve $-1 79.103976561784719 0 12.498000015413247 0 1 0 I I #
face $-1 $319 $320 $31 $-1 $321 reversed single #
loop $-1 $-1 $322 $134 #
plane-surface $-1 -79.103976561784719 0 0 1 0 0 0 0 -1 forward_v I I I I #
coedge $-1 $323 $228 $233 $324 reversed $135 $-1 #
coedge $-1 $325 $137 $326 $327 reversed $85 $-1 #
coedge $-1 $137 $325 $323 $328 forward $85 $-1 #
coedge $-1 $233 $232 $137 $226 forward $234 $-1 #
edge $-1 $329 -19.942950856613649 $330 -11.011055491125836 $225 $331 forward 7 unknown #
coedge $-1 $139 $138 $322 $332 reversed $54 $-1 #
coedge $-1 $222 $333 $138 $229 reversed $135 $-1 #
edge $-1 $235 -79.103976561784719 $334 79.103976561784719 $228 $335 forward 7 unknown #
coedge $-1 $336 $337 $139 $231 forward $320 $-1 #
edge $-1 $236 -79.103976561784719 $338 79.103976561784719 $230 $339 forward 7 unknown #
coedge $-1 $225 $140 $337 $340 forward $234 $-1 #
coedge $-1 $140 $225 $222 $324 forward $234 $-1 #
loop $-1 $-1 $140 $319 #
vertex $-1 $141 $341 #
vertex $-1 $340 $342 #
straight-curve $-1 79.103976561784719 -15.477003173869742 6.5824308929738526 0 -1 0 I I #
face $-1 $-1 $343 $32 $-1 $344 reversed single #
loop $-1 $-1 $244 $142 #
plane-surface $-1 0 0 12.498000015413247 0 0 1 1 0 0 forward_v I I I I #
coedge $-1 $345 $346 $146 $247 reversed $143 $-1 #
coedge $-1 $243 $145 $147 $248 reversed $89 $-1 #
coedge $-1 $145 $242 $347 $348 reversed $89 $-1 #
coedge $-1 $349 $148 $145 $245 forward $239 $-1 #
edge $-1 $251 -21.70607605729171 $350 -1.1895720671784886 $244 $351 forward 7 unknown #
coedge $-1 $147 $146 $352 $353 reversed $57 $-1 #
edge $-1 $250 -23.935238863919022 $354 3.3153694567098467e-014 $241 $355 forward 7 unknown #
edge $-1 $356 -3.3153694567098467e-014 $251 23.935238863919022 $242 $357 forward 7 unknown #
coedge $-1 $148 $349 $345 $358 forward $239 $-1 #
vertex $-1 $358 $359 #
vertex $-1 $149 $360 #
straight-curve $-1 -58.587472571671498 -9.2868533661180983 12.498000015413247 0 1 0 I I #
coedge $-1 $253 $253 $-1 $361 reversed $152 $-1 #
edge $-1 $362 0 $362 6.2831853071796004 $153 $363 forward 7 unknown #
vertex $-1 $156 $364 #
ellipse-curve $-1 -68.845724566728109 -23.322317891891824 6.3342202599277879 -0.51503808176128008 0 0.85716729658548041 0.85716729658548041 0 0.51503808176128008 1 I I #
coedge $-1 $257 $257 $-1 $365 reversed $159 $-1 #
edge $-1 $366 0 $366 6.2831853071796004 $160 $367 forward 7 unknown #
vertex $-1 $163 $368 #
ellipse-curve $-1 -68.845724566728109 -18.573706732236197 6.3342202599277879 -0.51503808176128008 0 0.85716729658548041 0.85716729658548041 0 0.51503808176128008 1 I I #
coedge $-1 $261 $261 $-1 $369 reversed $166 $-1 #
edge $-1 $370 0 $370 6.2831853071796004 $167 $371 forward 7 unknown #
vertex $-1 $170 $372 #
ellipse-curve $-1 -68.845724566728109 -13.825095572580569 6.3342202599277879 -0.51503808176128008 0 0.85716729658548041 0.85716729658548041 0 0.51503808176128008 1 I I #
face $-1 $-1 $373 $36 $-1 $374 forward single #
loop $-1 $-1 $274 $171 #
plane-surface $-1 0 -26.488058664995577 4.0338946613082527 0 -1 0 0 0 -1 forward_v I I I I #
coedge $-1 $177 $375 $376 $377 forward $172 $-1 #
coedge $-1 $270 $174 $176 $276 reversed $108 $-1 #
coedge $-1 $174 $269 $378 $379 reversed $108 $-1 #
coedge $-1 $375 $177 $174 $272 forward $172 $-1 #
edge $-1 $278 -108.46168183447591 $380 -96.134122323504982 $271 $381 forward 7 unknown #
coedge $-1 $176 $175 $382 $383 reversed $69 $-1 #
coedge $-1 $376 $384 $175 $275 reversed $266 $-1 #
edge $-1 $277 -158.20795312356944 $385 -134.27271425965034 $274 $386 forward 7 unknown #
edge $-1 $387 134.27271425965034 $278 158.20795312356944 $269 $388 forward 7 unknown #
vertex $-1 $178 $389 #
vertex $-1 $178 $390 #
straight-curve $-1 79.103976561784719 -9.2868533661180983 0.1704405044423325 0 1 0 I I #
coedge $-1 $280 $280 $-1 $391 reversed $181 $-1 #
edge $-1 $392 0 $392 6.2831853071796004 $182 $393 forward 7 unknown #
vertex $-1 $185 $394 #
ellipse-curve $-1 68.845724566728137 -23.322317891891824 6.3342202599277559 0.51503808176128008 0 0.85716729658548041 0.85716729658548041 0 -0.51503808176128008 1 I I #
coedge $-1 $284 $284 $-1 $395 reversed $188 $-1 #
edge $-1 $396 0 $396 6.2831853071796004 $189 $397 forward 7 unknown #
vertex $-1 $192 $398 #
ellipse-curve $-1 68.845724566728137 -18.573706732236197 6.3342202599277559 0.51503808176128008 0 0.85716729658548041 0.85716729658548041 0 -0.51503808176128008 1 I I #
coedge $-1 $288 $288 $-1 $399 reversed $195 $-1 #
edge $-1 $400 0 $400 6.2831853071796004 $196 $401 forward 7 unknown #
vertex $-1 $199 $402 #
ellipse-curve $-1 68.845724566728137 -13.825095572580569 6.3342202599277559 0.51503808176128008 0 0.85716729658548041 0.85716729658548041 0 -0.51503808176128008 1 I I #
face $-1 $-1 $215 $30 $-1 $403 reversed single #
loop $-1 $-1 $308 $200 #
plane-surface $-1 0 35.419954030483389 0 0 -1 0 0 0 -1 forward_v I I I I #
coedge $-1 $404 $306 $309 $405 forward $201 $-1 #
coedge $-1 $312 $203 $204 $300 reversed $127 $-1 #
coedge $-1 $306 $404 $203 $298 reversed $201 $-1 #
edge $-1 $313 -12.498000015413247 $406 12.498000015413247 $297 $407 forward 7 unknown #
coedge $-1 $205 $204 $404 $408 forward $81 $-1 #
edge $-1 $304 -79.103976561784719 $406 79.103976561784719 $296 $409 forward 7 unknown #
coedge $-1 $309 $308 $205 $302 reversed $293 $-1 #
edge $-1 $410 -79.103976561784719 $303 79.103976561784719 $301 $411 forward 7 unknown #
vertex $-1 $207 $412 #
vertex $-1 $315 $413 #
straight-curve $-1 79.103976561784719 0 -12.498000015413247 0 -1 0 I I #
coedge $-1 $295 $297 $208 $307 reversed $201 $-1 #
edge $-1 $310 -35.419954030483389 $313 35.419954030483389 $306 $414 forward 7 unknown #
coedge $-1 $301 $209 $214 $316 forward $293 $-1 #
coedge $-1 $209 $301 $295 $405 reversed $293 $-1 #
vertex $-1 $210 $415 #
straight-curve $-1 0 35.419954030483389 12.498000015413247 -1 0 0 I I #
coedge $-1 $211 $296 $213 $315 reversed $127 $-1 #
vertex $-1 $307 $416 #
straight-curve $-1 0 -35.419954030483389 12.498000015413247 1 0 0 I I #
edge $-1 $216 -12.498000015413247 $304 12.498000015413247 $213 $417 forward 7 unknown #
edge $-1 $217 -12.498000015413247 $303 12.498000015413247 $214 $418 forward 7 unknown #
point $-1 79.103976561784719 -35.419954030483389 12.498000015413247 #
point $-1 79.103976561784719 35.419954030483389 12.498000015413247 #
face $-1 $-1 $234 $31 $-1 $419 reversed single #
loop $-1 $-1 $230 $219 #
plane-surface $-1 0 -35.419954030483389 0 0 1 0 0 0 1 forward_v I I I I #
coedge $-1 $420 $421 $227 $332 forward $220 $-1 #
coedge $-1 $333 $222 $224 $328 reversed $135 $-1 #
edge $-1 $330 -0.5315889010114736 $235 4.5654835623197263 $233 $422 forward 7 unknown #
coedge $-1 $224 $223 $423 $424 reversed $85 $-1 #
coedge $-1 $337 $336 $223 $327 forward $320 $-1 #
edge $-1 $425 -79.103976561784719 $329 79.103976561784719 $326 $426 forward 7 unknown #
edge $-1 $427 -79.103976561784719 $330 79.103976561784719 $323 $428 forward 7 unknown #
vertex $-1 $327 $429 #
vertex $-1 $226 $430 #
straight-curve $-1 79.103976561784719 -15.477003173869742 1.4853584296426527 0 1 0 I I #
edge $-1 $338 -19.942950856613649 $334 -11.011055491125836 $322 $431 forward 7 unknown #
coedge $-1 $228 $323 $420 $432 reversed $135 $-1 #
vertex $-1 $332 $433 #
straight-curve $-1 0 -26.488058664995577 6.5824308929738526 -1 0 0 I I #
coedge $-1 $326 $230 $421 $434 forward $320 $-1 #
coedge $-1 $230 $326 $232 $340 reversed $320 $-1 #
vertex $-1 $434 $435 #
straight-curve $-1 0 -35.419954030483389 6.5824308929738526 -1 0 0 I I #
edge $-1 $236 -6.5824308929738526 $329 -1.4853584296426527 $232 $436 forward 7 unknown #
point $-1 79.103976561784719 -26.488058664995577 6.5824308929738526 #
point $-1 79.103976561784719 -35.419954030483389 6.5824308929738526 #
loop $-1 $-1 $437 $238 #
plane-surface $-1 -79.103976561784719 0 0 1 0 0 0 0 -1 forward_v I I I I #
coedge $-1 $346 $241 $249 $358 reversed $143 $-1 #
coedge $-1 $241 $345 $437 $438 reversed $143 $-1 #
coedge $-1 $352 $439 $243 $348 forward $343 $-1 #
edge $-1 $350 55.392561975434141 $356 67.720121486405048 $347 $440 forward 7 unknown #
coedge $-1 $249 $244 $439 $441 forward $239 $-1 #
vertex $-1 $441 $442 #
straight-curve $-1 -80.293548628963208 -10.659354799476816 12.498000015413247 -1 0 0 I I #
coedge $-1 $437 $347 $246 $353 forward $343 $-1 #
edge $-1 $356 1.3725014333587175 $354 17.201205298877479 $352 $443 forward 7 unknown #
vertex $-1 $438 $444 #
straight-curve $-1 -79.103976561784691 -26.488058664995577 0.17044050444235381 -0.85716729658548041 0 -0.51503808176128008 I I #
vertex $-1 $353 $445 #
straight-curve $-1 -79.103976561784691 -10.659354799476816 0.17044050444235381 0.85716729658548041 0 0.51503808176128008 I I #
edge $-1 $446 1.1895720671784886 $250 21.70607605729171 $249 $447 forward 7 unknown #
point $-1 -58.587472571671498 -26.488058664995577 12.498000015413247 #
point $-1 -58.587472571671498 -10.659354799476816 12.498000015413247 #
edge $-1 $448 1 $448 0 $253 $-1 forward 7 unknown #
vertex $-1 $254 $449 #
ellipse-curve $-1 -66.876297658791444 -23.322317891891824 3.0565435244019916 -0.51503808176128008 0 0.85716729658548041 0.85716729658548041 0 0.51503808176128008 1 I I #
point $-1 -67.98855727014265 -23.322317891891824 6.8492583416890849 #
edge $-1 $450 1 $450 0 $257 $-1 forward 7 unknown #
vertex $-1 $258 $451 #
ellipse-curve $-1 -66.876297658791444 -18.573706732236197 3.0565435244019916 -0.51503808176128008 0 0.85716729658548041 0.85716729658548041 0 0.51503808176128008 1 I I #
point $-1 -67.98855727014265 -18.573706732236197 6.8492583416890849 #
edge $-1 $452 1 $452 0 $261 $-1 forward 7 unknown #
vertex $-1 $262 $453 #
ellipse-curve $-1 -66.876297658791444 -13.825095572580569 3.0565435244019916 -0.51503808176128008 0 0.85716729658548041 0.85716729658548041 0 0.51503808176128008 1 I I #
point $-1 -67.98855727014265 -13.825095572580569 6.8492583416890849 #
loop $-1 $-1 $454 $265 #
plane-surface $-1 0 0 12.498000015413247 0 0 1 1 0 0 forward_v I I I I #
coedge $-1 $268 $271 $455 $456 reversed $172 $-1 #
coedge $-1 $384 $274 $268 $377 reversed $266 $-1 #
edge $-1 $457 96.134122323504982 $277 108.46168183447591 $268 $458 forward 7 unknown #
coedge $-1 $382 $455 $270 $379 forward $373 $-1 #
edge $-1 $380 -66.615769671447708 $387 -46.099265681334458 $378 $459 forward 7 unknown #
vertex $-1 $379 $460 #
straight-curve $-1 79.103976561784719 -10.659354799476816 108.63212233891824 0 0 1 I I #
coedge $-1 $454 $378 $273 $383 forward $373 $-1 #
edge $-1 $387 1.3725014333587175 $385 17.201205298877479 $382 $461 forward 7 unknown #
coedge $-1 $274 $376 $454 $462 reversed $266 $-1 #
vertex $-1 $462 $463 #
straight-curve $-1 -56.506706915467703 -26.488058664995577 81.653561200584051 -0.85716729658548041 0 0.51503808176128008 I I #
vertex $-1 $383 $464 #
straight-curve $-1 -56.506706915467703 -10.659354799476816 81.653561200584051 0.85716729658548041 0 -0.51503808176128008 I I #
point $-1 79.103976561784719 -26.488058664995577 0.17044050444232539 #
point $-1 79.103976561784719 -10.659354799476816 0.17044050444232539 #
edge $-1 $465 1 $465 0 $280 $-1 forward 7 unknown #
vertex $-1 $281 $466 #
ellipse-curve $-1 66.876297658791472 -23.322317891891824 3.0565435244019774 0.51503808176128008 0 0.85716729658548041 0.85716729658548041 0 -0.51503808176128008 1 I I #
point $-1 69.702891863313639 -23.322317891891824 5.8191821781665105 #
edge $-1 $467 1 $467 0 $284 $-1 forward 7 unknown #
vertex $-1 $285 $468 #
ellipse-curve $-1 66.876297658791472 -18.573706732236197 3.0565435244019774 0.51503808176128008 0 0.85716729658548041 0.85716729658548041 0 -0.51503808176128008 1 I I #
point $-1 69.702891863313639 -18.573706732236197 5.8191821781665105 #
edge $-1 $469 1 $469 0 $288 $-1 forward 7 unknown #
vertex $-1 $289 $470 #
ellipse-curve $-1 66.876297658791472 -13.825095572580569 3.0565435244019774 0.51503808176128008 0 0.85716729658548041 0.85716729658548041 0 -0.51503808176128008 1 I I #
point $-1 69.702891863313639 -13.825095572580569 5.8191821781665105 #
plane-surface $-1 79.103976561784719 0 0 -1 0 0 0 0 1 forward_v I I I I #
coedge $-1 $297 $295 $299 $408 reversed $201 $-1 #
edge $-1 $310 -12.498000015413247 $410 12.498000015413247 $309 $471 forward 7 unknown #
vertex $-1 $408 $472 #
straight-curve $-1 -79.103976561784719 -35.419954030483389 0 0 0 -1 I I #
edge $-1 $406 -35.419954030483389 $410 35.419954030483389 $404 $473 forward 7 unknown #
straight-curve $-1 0 -35.419954030483389 -12.498000015413247 -1 0 0 I I #
vertex $-1 $302 $474 #
straight-curve $-1 0 35.419954030483389 -12.498000015413247 1 0 0 I I #
point $-1 79.103976561784719 35.419954030483389 -12.498000015413247 #
point $-1 79.103976561784719 -35.419954030483389 -12.498000015413247 #
straight-curve $-1 -79.103976561784719 0 12.498000015413247 0 -1 0 I I #
point $-1 -79.103976561784719 35.419954030483389 12.498000015413247 #
point $-1 -79.103976561784719 -35.419954030483389 12.498000015413247 #
straight-curve $-1 79.103976561784719 -35.419954030483389 0 0 0 -1 I I #
straight-curve $-1 79.103976561784719 35.419954030483389 0 0 0 -1 I I #
plane-surface $-1 79.103976561784719 0 0 -1 0 0 0 0 1 forward_v I I I I #
coedge $-1 $423 $322 $333 $432 forward $220 $-1 #
coedge $-1 $322 $423 $336 $434 reversed $220 $-1 #
straight-curve $-1 79.103976561784719 -26.488058664995577 2.0169473306541263 0 0 1 I I #
coedge $-1 $421 $420 $325 $424 forward $220 $-1 #
edge $-1 $427 11.011055491125836 $425 19.942950856613649 $423 $475 forward 7 unknown #
vertex $-1 $327 $476 #
straight-curve $-1 0 -35.419954030483389 1.4853584296426527 1 0 0 I I #
vertex $-1 $424 $477 #
straight-curve $-1 0 -26.488058664995577 1.4853584296426527 1 0 0 I I #
point $-1 79.103976561784719 -35.419954030483389 1.4853584296426527 #
point $-1 79.103976561784719 -26.488058664995577 1.4853584296426527 #
straight-curve $-1 -79.103976561784719 -15.477003173869742 6.5824308929738526 0 1 0 I I #
edge $-1 $334 -4.5654835623197263 $427 0.5315889010114736 $420 $478 forward 7 unknown #
point $-1 -79.103976561784719 -26.488058664995577 6.5824308929738526 #
edge $-1 $338 -6.5824308929738526 $425 -1.4853584296426527 $421 $479 forward 7 unknown #
point $-1 -79.103976561784719 -35.419954030483389 6.5824308929738526 #
straight-curve $-1 79.103976561784719 -35.419954030483389 0 0 0 -1 I I #
coedge $-1 $439 $352 $346 $438 forward $343 $-1 #
edge $-1 $354 -67.720121486405048 $446 -55.392561975434141 $437 $480 forward 7 unknown #
coedge $-1 $347 $437 $349 $441 reversed $343 $-1 #
straight-curve $-1 -79.103976561784719 -10.659354799476816 67.890561990847388 0 0 -1 I I #
edge $-1 $350 10.659354799476816 $446 26.488058664995577 $439 $481 forward 7 unknown #
point $-1 -79.103976561784719 -10.659354799476816 12.498000015413247 #
straight-curve $-1 -79.103976561784719 -9.2868533661180983 0.17044050444233472 0 -1 0 I I #
point $-1 -79.103976561784719 -26.488058664995577 0.17044050444233674 #
point $-1 -79.103976561784719 -10.659354799476816 0.17044050444233674 #
vertex $-1 $438 $482 #
straight-curve $-1 -80.293548628963208 -26.488058664995577 12.498000015413247 1 0 0 I I #
vertex $-1 $361 $483 #
point $-1 -66.019130362205971 -23.322317891891824 3.5715816061632717 #
vertex $-1 $365 $484 #
point $-1 -66.019130362205971 -18.573706732236197 3.5715816061632717 #
vertex $-1 $369 $485 #
point $-1 -66.019130362205971 -13.825095572580569 3.5715816061632717 #
coedge $-1 $455 $382 $384 $462 forward $373 $-1 #
coedge $-1 $378 $454 $375 $456 forward $373 $-1 #
edge $-1 $457 -26.488058664995577 $380 -10.659354799476816 $375 $486 forward 7 unknown #
vertex $-1 $456 $487 #
straight-curve $-1 79.103976561784719 -26.488058664995577 108.63212233891824 0 0 -1 I I #
straight-curve $-1 12.488206890337011 -10.659354799476816 12.498000015413254 -1 0 0 I I #
point $-1 79.103976561784719 -10.659354799476816 12.498000015413247 #
straight-curve $-1 58.587472571671491 -9.2868533661180983 12.49800001541324 0 -1 0 I I #
edge $-1 $385 46.099265681334458 $457 66.615769671447708 $454 $488 forward 7 unknown #
point $-1 58.587472571671469 -26.488058664995577 12.498000015413254 #
point $-1 58.587472571671469 -10.659354799476816 12.498000015413254 #
vertex $-1 $391 $489 #
point $-1 67.733464955376959 -23.322317891891824 2.5415054426406973 #
vertex $-1 $395 $490 #
point $-1 67.733464955376959 -18.573706732236197 2.5415054426406973 #
vertex $-1 $399 $491 #
point $-1 67.733464955376959 -13.825095572580569 2.5415054426406973 #
straight-curve $-1 -79.103976561784719 35.419954030483389 0 0 0 -1 I I #
point $-1 -79.103976561784719 -35.419954030483389 -12.498000015413247 #
straight-curve $-1 -79.103976561784719 0 -12.498000015413247 0 1 0 I I #
point $-1 -79.103976561784719 35.419954030483389 -12.498000015413247 #
straight-curve $-1 -79.103976561784719 -15.477003173869742 1.4853584296426527 0 -1 0 I I #
point $-1 -79.103976561784719 -35.419954030483389 1.4853584296426527 #
point $-1 -79.103976561784719 -26.488058664995577 1.4853584296426527 #
straight-curve $-1 -79.103976561784719 -26.488058664995577 2.0169473306541263 0 0 -1 I I #
straight-curve $-1 -79.103976561784719 -35.419954030483389 0 0 0 -1 I I #
straight-curve $-1 -79.103976561784719 -26.488058664995577 67.890561990847388 0 0 1 I I #
straight-curve $-1 -79.103976561784719 0 12.498000015413247 0 -1 0 I I #
point $-1 -79.103976561784719 -26.488058664995577 12.498000015413247 #
point $-1 -66.361259577030168 -23.322317891891824 2.1993762278165114 #
point $-1 -66.361259577030168 -18.573706732236197 2.1993762278165114 #
point $-1 -66.361259577030168 -13.825095572580569 2.1993762278165114 #
straight-curve $-1 79.103976561784719 0 12.498000015413247 0 1 0 I I #
point $-1 79.103976561784719 -26.488058664995577 12.498000015413247 #
straight-curve $-1 12.488206890337011 -26.488058664995577 12.498000015413254 1 0 0 I I #
point $-1 66.361259577030197 -23.322317891891824 2.1993762278164972 #
point $-1 66.361259577030197 -18.573706732236197 2.1993762278164972 #
point $-1 66.361259577030197 -13.825095572580569 2.1993762278164972 #
End-of-ACIS-data 