600 0 7 0           
107 GICL ACIS Healer - Source: /gicl/data5/repository/Drexel/CICIRELLO-THESISDATA/Part10003.smdg.feat.sat - 6 0 18 ACIS 6.0.3 Solaris 24 Fri Apr 12 10:15:33 2002 
1 9.999999999999999547e-07 1.000000000000000036e-10 
body $-1 $7 $-1 $-1 #
body $-1 $8 $-1 $-1 #
body $-1 $9 $-1 $-1 #
body $-1 $10 $-1 $-1 #
body $-1 $11 $-1 $-1 #
body $-1 $12 $-1 $-1 #
body $-1 $13 $-1 $-1 #
lump $-1 $-1 $14 $0 #
lump $-1 $-1 $15 $1 #
lump $-1 $-1 $16 $2 #
lump $-1 $-1 $17 $3 #
lump $-1 $-1 $18 $4 #
lump $-1 $-1 $19 $5 #
lump $-1 $-1 $20 $6 #
shell $-1 $-1 $-1 $21 $-1 $7 #
shell $-1 $-1 $-1 $22 $-1 $8 #
shell $-1 $-1 $-1 $23 $-1 $9 #
shell $-1 $-1 $-1 $24 $-1 $10 #
shell $-1 $-1 $-1 $25 $-1 $11 #
shell $-1 $-1 $-1 $26 $-1 $12 #
shell $-1 $-1 $-1 $27 $-1 $13 #
face $-1 $28 $29 $14 $-1 $30 forward single #
face $-1 $31 $32 $15 $-1 $33 forward single #
face $-1 $34 $35 $16 $-1 $36 forward single #
face $-1 $37 $38 $17 $-1 $39 forward single #
face $-1 $40 $41 $18 $-1 $42 forward single #
face $-1 $43 $44 $19 $-1 $45 forward single #
face $-1 $46 $47 $20 $-1 $48 forward single #
face $-1 $49 $50 $14 $-1 $51 reversed single #
loop $-1 $-1 $52 $21 #
plane-surface $-1 52.59437849055451863 34.3096981105074903 27.64775093016467977 0 0 1 1 0 0 forward_v I I I I #
face $-1 $53 $54 $15 $-1 $55 reversed single #
loop $-1 $-1 $56 $22 #
plane-surface $-1 7.700076247246175676 34.3096981105074903 21.73629235335499033 0 0 1 1 0 0 forward_v I I I I #
face $-1 $57 $58 $16 $-1 $59 reversed single #
loop $-1 $-1 $60 $23 #
plane-surface $-1 46.8746556023085077 -172.331172345761388 144.1753694211286643 0 -0.8191520524228198541 0.5735764247347356903 1 0 0 forward_v I I I I #
face $-1 $61 $62 $17 $-1 $63 forward single #
loop $-1 $64 $65 $24 #
cone-surface $-1 41.42489767664677203 2.830853191509840272 24.61047694202367353 0 0.8191520524228198541 -0.5735764247347356903 1 0 0 1 I I 0 1 1 forward I I I I #
face $-1 $66 $67 $18 $-1 $68 forward single #
loop $-1 $69 $70 $25 #
cone-surface $-1 52.32441352797025047 2.830853191509840272 24.61047694202367353 0 0.8191520524228198541 -0.5735764247347356903 1 0 0 1 I I 0 1 1 forward I I I I #
face $-1 $71 $72 $19 $-1 $73 reversed single #
loop $-1 $-1 $74 $26 #
plane-surface $-1 67.8819639672043138 198.4849136254854329 200.2839611593429368 0 0.8090170025587177793 0.5877852410284793994 1 0 0 forward_v I I I I #
face $-1 $75 $76 $20 $-1 $77 forward single #
loop $-1 $78 $79 $27 #
cone-surface $-1 67.8819639672043138 63.82414550573678724 22.62112952983338587 0 -0.8090170025587177793 -0.5877852410284793994 1.5 0 0 1 I I 0 1 1.5 forward I I I I #
face $-1 $80 $81 $14 $-1 $82 reversed single #
loop $-1 $-1 $83 $28 #
plane-surface $-1 52.59437849055451863 34.3096981105074903 0 0 0 1 1 0 0 forward_v I I I I #
coedge $-1 $84 $85 $86 $87 forward $29 $-1 #
face $-1 $88 $89 $15 $-1 $90 reversed single #
loop $-1 $-1 $91 $31 #
plane-surface $-1 7.700076247246175676 34.3096981105074903 16.37861773922288222 0 0 1 1 0 0 forward_v I I I I #
coedge $-1 $92 $93 $94 $95 forward $32 $-1 #
face $-1 $96 $97 $16 $-1 $98 reversed single #
loop $-1 $-1 $99 $34 #
plane-surface $-1 46.8746556023085077 0 23.50778711809768851 0 -0.8191520524228198541 0.5735764247347356903 1 0 0 forward_v I I I I #
coedge $-1 $100 $101 $102 $103 forward $35 $-1 #
face $-1 $-1 $104 $17 $-1 $105 forward single #
loop $-1 $-1 $106 $37 #
plane-surface $-1 41.42489767664677203 1.449416890816074943 25.57776902413118592 0 -0.8191520524228198541 0.5735764247347356903 -1 0 -0 forward_v I I I I #
loop $-1 $-1 $107 $24 #
coedge $-1 $65 $65 $106 $108 reversed $38 $-1 #
face $-1 $-1 $109 $18 $-1 $110 forward single #
loop $-1 $-1 $111 $40 #
plane-surface $-1 52.32441352797025047 1.449416890816074943 25.57776902413118592 0 -0.8191520524228198541 0.5735764247347356903 -1 0 -0 forward_v I I I I #
loop $-1 $-1 $112 $25 #
coedge $-1 $70 $70 $111 $113 reversed $41 $-1 #
face $-1 $114 $115 $19 $-1 $116 reversed single #
loop $-1 $-1 $117 $43 #
plane-surface $-1 67.8819639672043138 28.28592787401697706 76.62716340808827908 0 0.8090170025587177793 0.5877852410284793994 1 0 0 forward_v I I I I #
coedge $-1 $118 $119 $120 $121 forward $44 $-1 #
face $-1 $-1 $122 $20 $-1 $123 forward single #
loop $-1 $-1 $124 $46 #
plane-surface $-1 67.8819639672043138 66.24547460752155814 24.38032804506920925 0 0.8090170025587177793 0.5877852410284793994 -1 -0 0 forward_v I I I I #
loop $-1 $-1 $125 $27 #
coedge $-1 $79 $79 $124 $126 reversed $47 $-1 #
face $-1 $127 $128 $14 $-1 $129 reversed single #
loop $-1 $-1 $130 $49 #
plane-surface $-1 52.59437849055451863 0 13.82387546508233989 0 1 0 0 0 1 forward_v I I I I #
coedge $-1 $131 $132 $133 $134 forward $50 $-1 #
coedge $-1 $135 $52 $136 $137 forward $29 $-1 #
coedge $-1 $52 $135 $138 $139 forward $29 $-1 #
coedge $-1 $140 $141 $52 $87 reversed $142 $-1 #
edge $-1 $143 -34.3096981105074903 $144 34.3096981105074903 $86 $145 forward 7 unknown #
face $-1 $146 $147 $15 $-1 $148 reversed single #
loop $-1 $-1 $149 $53 #
plane-surface $-1 7.700076247246175676 0 19.05745504628893627 0 1 0 0 0 1 forward_v I I I I #
coedge $-1 $150 $151 $152 $153 forward $54 $-1 #
coedge $-1 $154 $56 $155 $156 forward $32 $-1 #
coedge $-1 $56 $154 $157 $158 forward $32 $-1 #
coedge $-1 $159 $160 $56 $95 reversed $161 $-1 #
edge $-1 $162 -34.3096981105074903 $163 34.3096981105074903 $94 $164 forward 7 unknown #
face $-1 $165 $166 $16 $-1 $167 reversed single #
loop $-1 $-1 $168 $57 #
plane-surface $-1 46.8746556023085077 -206.8331684759116911 -88.48959407614820805 0 0.5735764247347356903 0.8191520524228198541 0 -0.8191520524228198541 0.5735764247347356903 forward_v I I I I #
coedge $-1 $169 $170 $171 $172 forward $58 $-1 #
coedge $-1 $173 $60 $174 $175 forward $35 $-1 #
coedge $-1 $60 $173 $176 $177 forward $35 $-1 #
coedge $-1 $178 $179 $60 $103 reversed $180 $-1 #
edge $-1 $181 -210.3775139622181314 $182 210.377513962218103 $102 $183 forward 7 unknown #
loop $-1 $184 $185 $61 #
cone-surface $-1 41.42489767664677203 4.621865518415013696 23.35639664754879874 0 0.8191520524228198541 -0.5735764247347356903 0.5 0 0 1 I I -0.7071067811865474617 0.7071067811865474617 0.5 forward I I I I #
coedge $-1 $106 $106 $65 $108 forward $62 $-1 #
coedge $-1 $107 $107 $185 $186 forward $64 $-1 #
edge $-1 $187 0 $187 6.283185307179586232 $106 $188 forward 7 unknown #
loop $-1 $189 $190 $66 #
cone-surface $-1 52.32441352797025047 4.621865518415013696 23.35639664754879874 0 0.8191520524228198541 -0.5735764247347356903 0.5 0 0 1 I I -0.7071067811865474617 0.7071067811865474617 0.5 forward I I I I #
coedge $-1 $111 $111 $70 $113 forward $67 $-1 #
coedge $-1 $112 $112 $190 $191 forward $69 $-1 #
edge $-1 $192 0 $192 6.283185307179586232 $111 $193 forward 7 unknown #
face $-1 $194 $195 $19 $-1 $196 reversed single #
loop $-1 $-1 $197 $71 #
plane-surface $-1 67.8819639672043138 -10.27137700150343846 308.6545480351840638 0 0.5877852410284793994 -0.8090170025587177793 0 0.8090170025587177793 0.5877852410284793994 forward_v I I I I #
coedge $-1 $198 $199 $200 $201 forward $72 $-1 #
coedge $-1 $202 $74 $203 $204 forward $44 $-1 #
coedge $-1 $74 $202 $205 $206 forward $44 $-1 #
coedge $-1 $207 $208 $74 $121 reversed $209 $-1 #
edge $-1 $210 -210.3775139622180745 $211 210.3775139622180745 $120 $212 forward 7 unknown #
loop $-1 $213 $214 $75 #
cone-surface $-1 67.8819639672043138 60.79605365203298106 20.42109208382620267 0 -0.8090170025587177793 -0.5877852410284793994 0.75 0 0 1 I I -0.7071067811865475727 0.7071067811865475727 0.75 forward I I I I #
coedge $-1 $124 $124 $79 $126 forward $76 $-1 #
coedge $-1 $125 $125 $214 $215 forward $78 $-1 #
edge $-1 $216 0 $216 6.283185307179586232 $124 $217 forward 7 unknown #
face $-1 $218 $219 $14 $-1 $220 reversed single #
loop $-1 $-1 $221 $80 #
plane-surface $-1 0 34.3096981105074903 13.82387546508233989 1 0 0 0 0 -1 forward_v I I I I #
coedge $-1 $222 $138 $223 $224 forward $81 $-1 #
coedge $-1 $225 $83 $222 $226 forward $50 $-1 #
coedge $-1 $83 $225 $227 $228 forward $50 $-1 #
coedge $-1 $141 $140 $83 $134 reversed $142 $-1 #
edge $-1 $229 -34.3096981105074903 $230 34.3096981105074903 $133 $231 forward 7 unknown #
coedge $-1 $85 $84 $232 $233 forward $29 $-1 #
coedge $-1 $234 $235 $84 $137 reversed $219 $-1 #
edge $-1 $144 -52.59437849055451863 $236 52.59437849055451863 $136 $237 forward 7 unknown #
coedge $-1 $130 $238 $85 $139 reversed $81 $-1 #
edge $-1 $239 -52.59437849055451863 $143 52.59437849055451863 $138 $240 forward 7 unknown #
coedge $-1 $133 $86 $238 $241 forward $142 $-1 #
coedge $-1 $86 $133 $234 $242 reversed $142 $-1 #
loop $-1 $-1 $140 $218 #
vertex $-1 $87 $243 #
vertex $-1 $87 $244 #
straight-curve $-1 105.1887569811090373 34.3096981105074903 27.64775093016467977 0 1 0 I I #
face $-1 $245 $246 $15 $-1 $247 reversed single #
loop $-1 $-1 $248 $88 #
plane-surface $-1 0 34.3096981105074903 19.05745504628893627 1 0 0 0 0 -1 forward_v I I I I #
coedge $-1 $249 $157 $250 $251 forward $89 $-1 #
coedge $-1 $252 $91 $249 $253 forward $54 $-1 #
coedge $-1 $91 $252 $254 $255 forward $54 $-1 #
coedge $-1 $160 $159 $91 $153 reversed $161 $-1 #
edge $-1 $256 -34.3096981105074903 $257 34.3096981105074903 $152 $258 forward 7 unknown #
coedge $-1 $93 $92 $259 $260 forward $32 $-1 #
coedge $-1 $261 $262 $92 $156 reversed $246 $-1 #
edge $-1 $163 -7.700076247246175676 $263 7.700076247246175676 $155 $264 forward 7 unknown #
coedge $-1 $149 $265 $93 $158 reversed $89 $-1 #
edge $-1 $266 -7.700076247246175676 $162 7.700076247246175676 $157 $267 forward 7 unknown #
coedge $-1 $152 $94 $265 $268 forward $161 $-1 #
coedge $-1 $94 $152 $261 $269 reversed $161 $-1 #
loop $-1 $-1 $159 $245 #
vertex $-1 $95 $270 #
vertex $-1 $95 $271 #
straight-curve $-1 15.40015249449235135 34.3096981105074903 21.73629235335499033 0 1 0 I I #
face $-1 $272 $273 $16 $-1 $274 reversed single #
loop $-1 $-1 $275 $96 #
plane-surface $-1 34.15855377576445306 -86.16558617288069399 83.84157826961317994 1 0 0 0 0.8191520524228198541 -0.5735764247347356903 forward_v I I I I #
coedge $-1 $276 $176 $277 $278 forward $97 $-1 #
coedge $-1 $279 $99 $276 $280 forward $58 $-1 #
coedge $-1 $99 $279 $281 $282 forward $58 $-1 #
coedge $-1 $179 $178 $99 $172 reversed $180 $-1 #
edge $-1 $283 -210.3775139622180745 $284 210.3775139622181314 $171 $285 forward 7 unknown #
coedge $-1 $101 $100 $286 $287 forward $35 $-1 #
coedge $-1 $288 $289 $100 $175 reversed $273 $-1 #
edge $-1 $182 -12.71610182654405463 $290 12.71610182654405463 $174 $291 forward 7 unknown #
coedge $-1 $168 $292 $101 $177 reversed $97 $-1 #
edge $-1 $293 -12.71610182654405463 $181 12.71610182654405463 $176 $294 forward 7 unknown #
coedge $-1 $171 $102 $292 $295 forward $180 $-1 #
coedge $-1 $102 $171 $288 $296 reversed $180 $-1 #
loop $-1 $-1 $178 $272 #
vertex $-1 $103 $297 #
vertex $-1 $103 $298 #
straight-curve $-1 59.59075742885256233 -172.331172345761388 144.1753694211286643 0 0.5735764247347356903 0.8191520524228198541 I I #
loop $-1 $-1 $299 $61 #
coedge $-1 $185 $185 $107 $186 reversed $104 $-1 #
edge $-1 $300 0 $300 6.283185307179586232 $185 $301 forward 7 unknown #
vertex $-1 $108 $302 #
ellipse-curve $-1 41.42489767664677203 1.449416890816074943 25.57776902413118592 0 -0.8191520524228198541 0.5735764247347356903 1 0 0 1 I I #
loop $-1 $-1 $303 $66 #
coedge $-1 $190 $190 $112 $191 reversed $109 $-1 #
edge $-1 $304 0 $304 6.283185307179586232 $190 $305 forward 7 unknown #
vertex $-1 $113 $306 #
ellipse-curve $-1 52.32441352797025047 1.449416890816074943 25.57776902413118592 0 -0.8191520524228198541 0.5735764247347356903 1 0 0 1 I I #
face $-1 $307 $308 $19 $-1 $309 reversed single #
loop $-1 $-1 $310 $114 #
plane-surface $-1 59.23754668323857686 113.385420749751205 138.4555622837156079 1 0 0 0 -0.8090170025587177793 -0.5877852410284793994 forward_v I I I I #
coedge $-1 $311 $205 $312 $313 forward $115 $-1 #
coedge $-1 $314 $117 $311 $315 forward $72 $-1 #
coedge $-1 $117 $314 $316 $317 forward $72 $-1 #
coedge $-1 $208 $207 $117 $201 reversed $209 $-1 #
edge $-1 $318 -210.3775139622180745 $319 210.3775139622180461 $200 $320 forward 7 unknown #
coedge $-1 $119 $118 $321 $322 forward $44 $-1 #
coedge $-1 $323 $324 $118 $204 reversed $308 $-1 #
edge $-1 $211 -8.644417283965736942 $325 8.644417283965736942 $203 $326 forward 7 unknown #
coedge $-1 $197 $327 $119 $206 reversed $115 $-1 #
edge $-1 $328 -8.644417283965736942 $210 8.644417283965736942 $205 $329 forward 7 unknown #
coedge $-1 $200 $120 $327 $330 forward $209 $-1 #
coedge $-1 $120 $200 $323 $331 reversed $209 $-1 #
loop $-1 $-1 $207 $307 #
vertex $-1 $121 $332 #
vertex $-1 $121 $333 #
straight-curve $-1 76.52638125117005075 198.4849136254854329 200.2839611593429368 0 0.5877852410284793994 -0.8090170025587177793 I I #
loop $-1 $-1 $334 $75 #
coedge $-1 $214 $214 $125 $215 reversed $122 $-1 #
edge $-1 $335 0 $335 6.283185307179586232 $214 $336 forward 7 unknown #
vertex $-1 $126 $337 #
ellipse-curve $-1 67.8819639672043138 66.24547460752155814 24.38032804506920925 0 0.8090170025587177793 0.5877852410284793994 1.5 0 0 1 I I #
face $-1 $-1 $142 $14 $-1 $338 reversed single #
loop $-1 $-1 $234 $127 #
plane-surface $-1 52.59437849055451863 68.6193962210149806 13.82387546508233989 0 -1 0 0 0 -1 forward_v I I I I #
coedge $-1 $339 $232 $235 $340 forward $128 $-1 #
coedge $-1 $238 $130 $131 $226 reversed $81 $-1 #
coedge $-1 $232 $339 $130 $224 reversed $128 $-1 #
edge $-1 $239 -13.82387546508233989 $341 13.82387546508233989 $223 $342 forward 7 unknown #
coedge $-1 $132 $131 $339 $343 forward $50 $-1 #
edge $-1 $230 -52.59437849055451863 $341 52.59437849055451863 $222 $344 forward 7 unknown #
coedge $-1 $235 $234 $132 $228 reversed $219 $-1 #
edge $-1 $345 -52.59437849055451863 $229 52.59437849055451863 $227 $346 forward 7 unknown #
vertex $-1 $134 $347 #
vertex $-1 $241 $348 #
straight-curve $-1 105.1887569811090373 34.3096981105074903 0 0 -1 0 I I #
coedge $-1 $221 $223 $135 $233 reversed $128 $-1 #
edge $-1 $236 -34.3096981105074903 $239 34.3096981105074903 $232 $349 forward 7 unknown #
coedge $-1 $227 $136 $141 $242 forward $219 $-1 #
coedge $-1 $136 $227 $221 $340 reversed $219 $-1 #
vertex $-1 $137 $350 #
straight-curve $-1 52.59437849055451863 68.6193962210149806 27.64775093016467977 -1 0 0 I I #
coedge $-1 $138 $222 $140 $241 reversed $81 $-1 #
vertex $-1 $233 $351 #
straight-curve $-1 52.59437849055451863 0 27.64775093016467977 1 0 0 I I #
edge $-1 $143 -13.82387546508233989 $230 13.82387546508233989 $140 $352 forward 7 unknown #
edge $-1 $144 -13.82387546508233989 $229 13.82387546508233989 $141 $353 forward 7 unknown #
point $-1 105.1887569811090373 0 27.64775093016467977 #
point $-1 105.1887569811090373 68.6193962210149806 27.64775093016467977 #
face $-1 $-1 $161 $15 $-1 $354 reversed single #
loop $-1 $-1 $261 $146 #
plane-surface $-1 7.700076247246175676 68.6193962210149806 19.05745504628893627 0 -1 0 0 0 -1 forward_v I I I I #
coedge $-1 $355 $259 $262 $356 forward $147 $-1 #
coedge $-1 $265 $149 $150 $253 reversed $89 $-1 #
coedge $-1 $259 $355 $149 $251 reversed $147 $-1 #
edge $-1 $266 -2.678837307066054052 $357 2.678837307066054052 $250 $358 forward 7 unknown #
coedge $-1 $151 $150 $355 $359 forward $54 $-1 #
edge $-1 $257 -7.700076247246175676 $357 7.700076247246175676 $249 $360 forward 7 unknown #
coedge $-1 $262 $261 $151 $255 reversed $246 $-1 #
edge $-1 $361 -7.700076247246175676 $256 7.700076247246175676 $254 $362 forward 7 unknown #
vertex $-1 $153 $363 #
vertex $-1 $268 $364 #
straight-curve $-1 15.40015249449235135 34.3096981105074903 16.37861773922288222 0 -1 0 I I #
coedge $-1 $248 $250 $154 $260 reversed $147 $-1 #
edge $-1 $263 -34.3096981105074903 $266 34.3096981105074903 $259 $365 forward 7 unknown #
coedge $-1 $254 $155 $160 $269 forward $246 $-1 #
coedge $-1 $155 $254 $248 $356 reversed $246 $-1 #
vertex $-1 $156 $366 #
straight-curve $-1 7.700076247246175676 68.6193962210149806 21.73629235335499033 -1 0 0 I I #
coedge $-1 $157 $249 $159 $268 reversed $89 $-1 #
vertex $-1 $260 $367 #
straight-curve $-1 7.700076247246175676 0 21.73629235335499033 1 0 0 I I #
edge $-1 $162 -2.678837307066054052 $257 2.678837307066054052 $159 $368 forward 7 unknown #
edge $-1 $163 -2.678837307066054052 $256 2.678837307066054052 $160 $369 forward 7 unknown #
point $-1 15.40015249449235135 0 21.73629235335499033 #
point $-1 15.40015249449235135 68.6193962210149806 21.73629235335499033 #
face $-1 $-1 $180 $16 $-1 $370 reversed single #
loop $-1 $-1 $288 $165 #
plane-surface $-1 46.8746556023085077 34.50199613015028888 256.1727506153745821 0 -0.5735764247347356903 -0.8191520524228198541 0 0.8191520524228198541 -0.5735764247347356903 forward_v I I I I #
coedge $-1 $371 $286 $289 $372 forward $166 $-1 #
coedge $-1 $292 $168 $169 $280 reversed $97 $-1 #
coedge $-1 $286 $371 $168 $278 reversed $166 $-1 #
edge $-1 $293 -105.1887569811090657 $373 105.1887569811090799 $277 $374 forward 7 unknown #
coedge $-1 $170 $169 $371 $375 forward $58 $-1 #
edge $-1 $284 -12.71610182654405463 $373 12.71610182654405463 $276 $376 forward 7 unknown #
coedge $-1 $289 $288 $170 $282 reversed $273 $-1 #
edge $-1 $377 -12.71610182654405463 $283 12.71610182654405463 $281 $378 forward 7 unknown #
vertex $-1 $172 $379 #
vertex $-1 $295 $380 #
straight-curve $-1 59.59075742885256233 0 23.50778711809768851 0 -0.5735764247347356903 -0.8191520524228198541 I I #
coedge $-1 $275 $277 $173 $287 reversed $166 $-1 #
edge $-1 $290 -210.377513962218103 $293 210.3775139622181314 $286 $381 forward 7 unknown #
coedge $-1 $281 $174 $179 $296 forward $273 $-1 #
coedge $-1 $174 $281 $275 $372 reversed $273 $-1 #
vertex $-1 $175 $382 #
straight-curve $-1 46.8746556023085077 -51.66359004273040512 316.5065417668900523 -1 0 0 I I #
coedge $-1 $176 $276 $178 $295 reversed $97 $-1 #
vertex $-1 $287 $383 #
straight-curve $-1 46.8746556023085077 -292.9987546487923851 -28.15580292463270951 1 0 0 I I #
edge $-1 $181 -105.1887569811090657 $284 105.1887569811090799 $178 $384 forward 7 unknown #
edge $-1 $182 -105.1887569811090373 $283 105.1887569811090941 $179 $385 forward 7 unknown #
point $-1 59.59075742885256233 -292.9987546487923851 -28.15580292463270951 #
point $-1 59.59075742885256233 -51.66359004273040512 316.5065417668900523 #
coedge $-1 $299 $299 $-1 $386 reversed $184 $-1 #
vertex $-1 $186 $387 #
ellipse-curve $-1 41.42489767664677203 4.21228949220360338 23.64318485991616825 0 -0.8191520524228198541 0.5735764247347356903 1 0 0 1 I I #
point $-1 42.42489767664677203 1.449416890816074943 25.57776902413118592 #
coedge $-1 $303 $303 $-1 $388 reversed $189 $-1 #
vertex $-1 $191 $389 #
ellipse-curve $-1 52.32441352797025047 4.21228949220360338 23.64318485991616825 0 -0.8191520524228198541 0.5735764247347356903 1 0 0 1 I I #
point $-1 53.32441352797025047 1.449416890816074943 25.57776902413118592 #
face $-1 $-1 $209 $19 $-1 $390 reversed single #
loop $-1 $-1 $323 $194 #
plane-surface $-1 67.8819639672043138 237.0422185010058342 -31.74342346775284796 0 -0.5877852410284793994 0.8090170025587177793 0 -0.8090170025587177793 -0.5877852410284793994 forward_v I I I I #
coedge $-1 $391 $321 $324 $392 forward $195 $-1 #
coedge $-1 $327 $197 $198 $315 reversed $115 $-1 #
coedge $-1 $321 $391 $197 $313 reversed $195 $-1 #
edge $-1 $328 -105.1887569811090373 $393 105.1887569811090088 $312 $394 forward 7 unknown #
coedge $-1 $199 $198 $391 $395 forward $72 $-1 #
edge $-1 $319 -8.644417283965736942 $393 8.644417283965736942 $311 $396 forward 7 unknown #
coedge $-1 $324 $323 $199 $317 reversed $308 $-1 #
edge $-1 $397 -8.644417283965736942 $318 8.644417283965736942 $316 $398 forward 7 unknown #
vertex $-1 $201 $399 #
vertex $-1 $330 $400 #
straight-curve $-1 76.52638125117005075 28.28592787401697706 76.62716340808827908 0 -0.5877852410284793994 0.8090170025587177793 I I #
coedge $-1 $310 $312 $202 $322 reversed $195 $-1 #
edge $-1 $325 -210.3775139622180745 $328 210.3775139622180745 $321 $401 forward 7 unknown #
coedge $-1 $316 $203 $208 $331 forward $308 $-1 #
coedge $-1 $203 $316 $310 $392 reversed $308 $-1 #
vertex $-1 $204 $402 #
straight-curve $-1 67.8819639672043138 322.1417113767400906 30.08497540787448088 -1 0 0 I I #
coedge $-1 $205 $311 $207 $330 reversed $115 $-1 #
vertex $-1 $322 $403 #
straight-curve $-1 67.8819639672043138 74.82811587423078947 370.4829469108113926 1 0 0 I I #
edge $-1 $210 -105.1887569811090373 $319 105.1887569811090088 $207 $404 forward 7 unknown #
edge $-1 $211 -105.1887569811090657 $318 105.1887569811090088 $208 $405 forward 7 unknown #
point $-1 76.52638125117005075 74.82811587423078947 370.4829469108113926 #
point $-1 76.52638125117005075 322.1417113767400906 30.08497540787448088 #
coedge $-1 $334 $334 $-1 $406 reversed $213 $-1 #
vertex $-1 $215 $407 #
ellipse-curve $-1 67.8819639672043138 61.40281640395201634 20.86193101459756249 0 0.8090170025587177793 0.5877852410284793994 1.5 0 0 1 I I #
point $-1 69.3819639672043138 66.24547460752155814 24.38032804506920925 #
plane-surface $-1 105.1887569811090373 34.3096981105074903 13.82387546508233989 -1 0 0 0 0 1 forward_v I I I I #
coedge $-1 $223 $221 $225 $343 reversed $128 $-1 #
edge $-1 $236 -13.82387546508233989 $345 13.82387546508233989 $235 $408 forward 7 unknown #
vertex $-1 $343 $409 #
straight-curve $-1 0 0 13.82387546508233989 0 0 -1 I I #
edge $-1 $341 -34.3096981105074903 $345 34.3096981105074903 $339 $410 forward 7 unknown #
straight-curve $-1 52.59437849055451863 0 0 -1 0 0 I I #
vertex $-1 $228 $411 #
straight-curve $-1 52.59437849055451863 68.6193962210149806 0 1 0 0 I I #
point $-1 105.1887569811090373 68.6193962210149806 0 #
point $-1 105.1887569811090373 0 0 #
straight-curve $-1 0 34.3096981105074903 27.64775093016467977 0 -1 0 I I #
point $-1 0 68.6193962210149806 27.64775093016467977 #
point $-1 0 0 27.64775093016467977 #
straight-curve $-1 105.1887569811090373 0 13.82387546508233989 0 0 -1 I I #
straight-curve $-1 105.1887569811090373 68.6193962210149806 13.82387546508233989 0 0 -1 I I #
plane-surface $-1 15.40015249449235135 34.3096981105074903 19.05745504628893627 -1 0 0 0 0 1 forward_v I I I I #
coedge $-1 $250 $248 $252 $359 reversed $147 $-1 #
edge $-1 $263 -2.678837307066054052 $361 2.678837307066054052 $262 $412 forward 7 unknown #
vertex $-1 $359 $413 #
straight-curve $-1 0 0 19.05745504628893627 0 0 -1 I I #
edge $-1 $357 -34.3096981105074903 $361 34.3096981105074903 $355 $414 forward 7 unknown #
straight-curve $-1 7.700076247246175676 0 16.37861773922288222 -1 0 0 I I #
vertex $-1 $255 $415 #
straight-curve $-1 7.700076247246175676 68.6193962210149806 16.37861773922288222 1 0 0 I I #
point $-1 15.40015249449235135 68.6193962210149806 16.37861773922288222 #
point $-1 15.40015249449235135 0 16.37861773922288222 #
straight-curve $-1 0 34.3096981105074903 21.73629235335499033 0 -1 0 I I #
point $-1 0 68.6193962210149806 21.73629235335499033 #
point $-1 0 0 21.73629235335499033 #
straight-curve $-1 15.40015249449235135 0 19.05745504628893627 0 0 -1 I I #
straight-curve $-1 15.40015249449235135 68.6193962210149806 19.05745504628893627 0 0 -1 I I #
plane-surface $-1 59.59075742885256233 -86.16558617288069399 83.84157826961317994 -1 0 0 0 -0.8191520524228198541 0.5735764247347356903 forward_v I I I I #
coedge $-1 $277 $275 $279 $375 reversed $166 $-1 #
edge $-1 $290 -105.1887569811090373 $377 105.1887569811090941 $289 $416 forward 7 unknown #
vertex $-1 $375 $417 #
straight-curve $-1 34.15855377576445306 -206.8331684759116911 -88.48959407614820805 0 0.8191520524228198541 -0.5735764247347356903 I I #
edge $-1 $373 -210.3775139622181314 $377 210.3775139622180745 $371 $418 forward 7 unknown #
straight-curve $-1 46.8746556023085077 -120.6675823030309829 -148.8233852276637208 -1 0 0 I I #
vertex $-1 $282 $419 #
straight-curve $-1 46.8746556023085077 120.6675823030309971 195.8389594638590552 1 0 0 I I #
point $-1 59.59075742885256233 120.6675823030309971 195.8389594638590552 #
point $-1 59.59075742885256233 -120.6675823030309829 -148.8233852276637208 #
straight-curve $-1 34.15855377576445306 -172.331172345761388 144.1753694211286643 0 -0.5735764247347356903 -0.8191520524228198541 I I #
point $-1 34.15855377576445306 -51.66359004273040512 316.5065417668900523 #
point $-1 34.15855377576445306 -292.9987546487923851 -28.15580292463270951 #
straight-curve $-1 59.59075742885256233 -206.8331684759116911 -88.48959407614820805 0 0.8191520524228198541 -0.5735764247347356903 I I #
straight-curve $-1 59.59075742885256233 34.50199613015028888 256.1727506153745821 0 0.8191520524228198541 -0.5735764247347356903 I I #
edge $-1 $420 1 $420 0 $299 $-1 forward 7 unknown #
point $-1 42.42489767664677203 4.21228949220360338 23.64318485991616825 #
edge $-1 $421 1 $421 0 $303 $-1 forward 7 unknown #
point $-1 53.32441352797025047 4.21228949220360338 23.64318485991616825 #
plane-surface $-1 76.52638125117005075 113.385420749751205 138.4555622837156079 -1 0 0 0 0.8090170025587177793 0.5877852410284793994 forward_v I I I I #
coedge $-1 $312 $310 $314 $395 reversed $195 $-1 #
edge $-1 $325 -105.1887569811090657 $397 105.1887569811090088 $324 $422 forward 7 unknown #
vertex $-1 $395 $423 #
straight-curve $-1 59.23754668323857686 -10.27137700150343846 308.6545480351840638 0 -0.8090170025587177793 -0.5877852410284793994 I I #
edge $-1 $393 -210.3775139622180461 $397 210.3775139622180745 $391 $424 forward 7 unknown #
straight-curve $-1 67.8819639672043138 -95.37086987723765219 246.826149159556735 -1 0 0 I I #
vertex $-1 $317 $425 #
straight-curve $-1 67.8819639672043138 151.9427256252716347 -93.57182234338017679 1 0 0 I I #
point $-1 76.52638125117005075 151.9427256252716347 -93.57182234338017679 #
point $-1 76.52638125117005075 -95.37086987723765219 246.826149159556735 #
straight-curve $-1 59.23754668323857686 198.4849136254854329 200.2839611593429368 0 -0.5877852410284793994 0.8090170025587177793 I I #
point $-1 59.23754668323857686 322.1417113767400906 30.08497540787448088 #
point $-1 59.23754668323857686 74.82811587423078947 370.4829469108113926 #
straight-curve $-1 76.52638125117005075 -10.27137700150343846 308.6545480351840638 0 -0.8090170025587177793 -0.5877852410284793994 I I #
straight-curve $-1 76.52638125117005075 237.0422185010058342 -31.74342346775284796 0 -0.8090170025587177793 -0.5877852410284793994 I I #
edge $-1 $426 1 $426 0 $334 $-1 forward 7 unknown #
point $-1 69.3819639672043138 61.40281640395201634 20.86193101459756249 #
straight-curve $-1 0 68.6193962210149806 13.82387546508233989 0 0 -1 I I #
point $-1 0 0 0 #
straight-curve $-1 0 34.3096981105074903 0 0 1 0 I I #
point $-1 0 68.6193962210149806 0 #
straight-curve $-1 0 68.6193962210149806 19.05745504628893627 0 0 -1 I I #
point $-1 0 0 16.37861773922288222 #
straight-curve $-1 0 34.3096981105074903 16.37861773922288222 0 1 0 I I #
point $-1 0 68.6193962210149806 16.37861773922288222 #
straight-curve $-1 34.15855377576445306 34.50199613015028888 256.1727506153745821 0 0.8191520524228198541 -0.5735764247347356903 I I #
point $-1 34.15855377576445306 -120.6675823030309829 -148.8233852276637208 #
straight-curve $-1 34.15855377576445306 0 23.50778711809768851 0 0.5735764247347356903 0.8191520524228198541 I I #
point $-1 34.15855377576445306 120.6675823030309971 195.8389594638590552 #
vertex $-1 $386 $427 #
vertex $-1 $388 $428 #
straight-curve $-1 59.23754668323857686 237.0422185010058342 -31.74342346775284796 0 -0.8090170025587177793 -0.5877852410284793994 I I #
point $-1 59.23754668323857686 -95.37086987723765219 246.826149159556735 #
straight-curve $-1 59.23754668323857686 28.28592787401697706 76.62716340808827908 0 0.5877852410284793994 -0.8090170025587177793 I I #
point $-1 59.23754668323857686 151.9427256252716347 -93.57182234338017679 #
vertex $-1 $406 $429 #
point $-1 41.42489767664677203 5.031441544626424012 23.06960843518142923 #
point $-1 52.32441352797025047 5.031441544626424012 23.06960843518142923 #
point $-1 67.8819639672043138 60.18929090011394578 19.98025315305484284 #
End-of-ACIS-data 