500 0 4 0           
7 Unknown 11 ACIS 5.0 NT 24 Thu Mar 25 15:11:10 1999 
-1 9.9999999999999995e-007 1e-010 
body $-1 $4 $-1 $5 #
body $-1 $6 $-1 $7 #
body $-1 $8 $-1 $9 #
body $-1 $10 $-1 $11 #
lump $-1 $-1 $12 $0 #
transform $-1 1 0 0 0 1 0 0 0 1 75.386822107608253 51.362060879040229 24.982712066717831 1 rotate no_reflect no_shear #
lump $-1 $-1 $13 $1 #
transform $-1 1 0 0 0 1 0 0 0 1 75.386822107608253 51.362060879040229 24.982712066717831 1 rotate no_reflect no_shear #
lump $-1 $-1 $14 $2 #
transform $-1 1 0 0 0 1 0 0 0 1 75.386822107608253 51.362060879040229 24.982712066717831 1 rotate no_reflect no_shear #
lump $-1 $-1 $15 $3 #
transform $-1 1 0 0 0 1 0 0 0 1 75.386822107608253 51.362060879040229 24.982712066717831 1 rotate no_reflect no_shear #
shell $-1 $-1 $-1 $16 $-1 $4 #
shell $-1 $-1 $-1 $17 $-1 $6 #
shell $-1 $-1 $-1 $18 $-1 $8 #
shell $-1 $-1 $-1 $19 $-1 $10 #
face $-1 $20 $21 $12 $-1 $22 forward single #
face $-1 $23 $24 $13 $-1 $25 reversed single #
face $-1 $26 $27 $14 $-1 $28 reversed single #
face $-1 $29 $30 $15 $-1 $31 forward single #
face $-1 $32 $33 $12 $-1 $34 reversed single #
loop $-1 $-1 $35 $16 #
plane-surface $-1 0 0 24.982712066717831 0 0 1 1 0 0 forward_v I I I I #
face $-1 $36 $37 $13 $-1 $38 reversed single #
loop $-1 $-1 $39 $17 #
plane-surface $-1 0 -42.136763481944641 12.238913760178882 0 0 1 1 0 0 forward_v I I I I #
face $-1 $40 $41 $14 $-1 $42 reversed single #
loop $-1 $-1 $43 $18 #
plane-surface $-1 60.073636607988846 -18.695620788417429 82.108840727733011 0 0.73135370988377701 0.68199835119979291 1 0 0 forward_v I I I I #
face $-1 $44 $45 $15 $-1 $46 forward single #
loop $-1 $47 $48 $19 #
cone-surface $-1 60.073636607988846 41.846690183650921 14.935644304128866 0 -0.73135370988377701 -0.68199835119979291 2.5 0 0 1 I I 0 1 2.5 forward I I I I #
face $-1 $49 $50 $12 $-1 $51 reversed single #
loop $-1 $-1 $52 $20 #
plane-surface $-1 0 0 -24.982712066717831 0 0 1 1 0 0 forward_v I I I I #
coedge $-1 $53 $54 $55 $56 forward $21 $-1 #
face $-1 $57 $58 $13 $-1 $59 reversed single #
loop $-1 $-1 $60 $23 #
plane-surface $-1 0 -32.911466084849053 18.610812913448356 0 -1 0 0 0 -1 forward_v I I I I #
coedge $-1 $61 $62 $63 $64 reversed $24 $-1 #
face $-1 $65 $66 $14 $-1 $67 forward single #
loop $-1 $-1 $68 $26 #
plane-surface $-1 44.760451108369423 91.573243261077835 184.93621748689486 1 0 0 0 -0.73135370988377701 -0.68199835119979291 forward_v I I I I #
coedge $-1 $69 $70 $71 $72 reversed $27 $-1 #
face $-1 $-1 $73 $15 $-1 $74 forward single #
loop $-1 $75 $76 $29 #
cone-surface $-1 60.073636607988846 39.81048043724266 13.036848043195057 0 -0.73135370988377701 -0.68199835119979291 1.25 0 0 1 I I -0.70710678118654746 0.70710678118654746 1.25 forward I I I I #
loop $-1 $-1 $77 $19 #
coedge $-1 $48 $48 $78 $79 reversed $30 $-1 #
face $-1 $80 $81 $12 $-1 $82 reversed single #
loop $-1 $-1 $83 $32 #
plane-surface $-1 0 -51.362060879040229 0 0 1 0 0 0 1 forward_v I I I I #
coedge $-1 $84 $85 $86 $87 forward $33 $-1 #
coedge $-1 $88 $35 $89 $90 forward $21 $-1 #
coedge $-1 $35 $88 $91 $92 forward $21 $-1 #
coedge $-1 $93 $94 $35 $56 reversed $95 $-1 #
edge $-1 $96 -51.362060879040229 $97 51.362060879040229 $55 $98 forward 7 unknown #
face $-1 $99 $100 $13 $-1 $101 reversed single #
loop $-1 $-1 $102 $36 #
plane-surface $-1 -75.386822107608253 0 0 1 0 0 0 0 -1 forward_v I I I I #
coedge $-1 $103 $104 $105 $106 reversed $37 $-1 #
coedge $-1 $107 $39 $108 $109 reversed $24 $-1 #
coedge $-1 $39 $107 $103 $110 forward $24 $-1 #
coedge $-1 $105 $111 $39 $64 forward $112 $-1 #
edge $-1 $113 -30.293679138067908 $114 -11.843084343876733 $63 $115 forward 7 unknown #
face $-1 $116 $117 $14 $-1 $118 reversed single #
loop $-1 $-1 $119 $40 #
plane-surface $-1 0 0 24.982712066717831 0 0 1 1 0 0 forward_v I I I I #
coedge $-1 $120 $121 $122 $123 reversed $41 $-1 #
coedge $-1 $124 $43 $125 $126 reversed $27 $-1 #
coedge $-1 $43 $124 $120 $127 forward $27 $-1 #
coedge $-1 $122 $128 $43 $72 forward $129 $-1 #
edge $-1 $130 -45.350003803613831 $131 -14.723632804375001 $71 $132 forward 7 unknown #
loop $-1 $-1 $78 $44 #
plane-surface $-1 60.073636607988846 -18.695620788417429 82.108840727733011 0 0.73135370988377701 0.68199835119979291 1 0 0 forward_v I I I I #
loop $-1 $-1 $133 $29 #
coedge $-1 $76 $76 $77 $134 reversed $45 $-1 #
coedge $-1 $77 $77 $76 $134 forward $47 $-1 #
coedge $-1 $78 $78 $48 $79 forward $73 $-1 #
edge $-1 $135 7.5876339898832228e-016 $135 6.2831853071796013 $78 $136 forward 7 unknown #
face $-1 $137 $138 $12 $-1 $139 reversed single #
loop $-1 $-1 $140 $49 #
plane-surface $-1 -75.386822107608253 0 0 1 0 0 0 0 -1 forward_v I I I I #
coedge $-1 $141 $91 $142 $143 forward $50 $-1 #
coedge $-1 $144 $52 $141 $145 forward $33 $-1 #
coedge $-1 $52 $144 $146 $147 forward $33 $-1 #
coedge $-1 $94 $93 $52 $87 reversed $95 $-1 #
edge $-1 $148 -51.362060879040229 $149 51.362060879040229 $86 $150 forward 7 unknown #
coedge $-1 $54 $53 $151 $152 forward $21 $-1 #
coedge $-1 $153 $154 $53 $90 reversed $138 $-1 #
edge $-1 $97 -75.386822107608253 $155 75.386822107608253 $89 $156 forward 7 unknown #
coedge $-1 $83 $157 $54 $92 reversed $50 $-1 #
edge $-1 $158 -75.386822107608253 $96 75.386822107608253 $91 $159 forward 7 unknown #
coedge $-1 $86 $55 $157 $160 forward $95 $-1 #
coedge $-1 $55 $86 $153 $161 reversed $95 $-1 #
loop $-1 $-1 $93 $137 #
vertex $-1 $56 $162 #
vertex $-1 $56 $163 #
straight-curve $-1 75.386822107608253 0 24.982712066717831 0 1 0 I I #
face $-1 $164 $165 $13 $-1 $166 forward single #
loop $-1 $-1 $108 $57 #
plane-surface $-1 0 -51.362060879040229 0 0 1 0 0 0 1 forward_v I I I I #
coedge $-1 $167 $168 $169 $170 forward $58 $-1 #
coedge $-1 $169 $60 $62 $110 reversed $37 $-1 #
coedge $-1 $60 $169 $171 $172 reversed $37 $-1 #
coedge $-1 $173 $63 $60 $106 forward $112 $-1 #
edge $-1 $114 2.9335073034547037 $174 15.677305609993653 $105 $175 forward 7 unknown #
coedge $-1 $62 $61 $167 $176 reversed $24 $-1 #
coedge $-1 $177 $178 $61 $109 forward $100 $-1 #
edge $-1 $179 -75.386822107608253 $113 75.386822107608253 $108 $180 forward 7 unknown #
edge $-1 $181 -75.386822107608253 $114 75.386822107608253 $103 $182 forward 7 unknown #
coedge $-1 $63 $173 $177 $183 forward $112 $-1 #
loop $-1 $-1 $105 $164 #
vertex $-1 $109 $184 #
vertex $-1 $64 $185 #
straight-curve $-1 75.386822107608253 -21.06838174097232 12.238913760178882 0 1 0 I I #
face $-1 $-1 $129 $14 $-1 $186 reversed single #
loop $-1 $-1 $125 $65 #
plane-surface $-1 75.386822107608253 0 0 -1 0 0 0 0 1 forward_v I I I I #
coedge $-1 $187 $188 $121 $189 forward $66 $-1 #
coedge $-1 $121 $68 $70 $127 reversed $41 $-1 #
coedge $-1 $68 $120 $119 $189 reversed $41 $-1 #
coedge $-1 $190 $71 $68 $123 forward $129 $-1 #
edge $-1 $131 -85.486935558039391 $191 -67.485396676729607 $122 $192 forward 7 unknown #
coedge $-1 $70 $69 $187 $193 reversed $27 $-1 #
coedge $-1 $194 $195 $69 $126 forward $117 $-1 #
edge $-1 $196 41.709629665359628 $130 66.323627841659984 $125 $197 forward 7 unknown #
edge $-1 $198 78.110123581780115 $131 102.72412175808047 $120 $199 forward 7 unknown #
coedge $-1 $71 $190 $194 $200 forward $129 $-1 #
loop $-1 $-1 $122 $116 #
vertex $-1 $126 $201 #
vertex $-1 $72 $202 #
straight-curve $-1 30.036818303994423 51.362060879040222 6.9811731854080392 -1 0 0 I I #
coedge $-1 $133 $133 $-1 $203 reversed $75 $-1 #
edge $-1 $204 0 $204 6.2831853071796004 $76 $205 forward 7 unknown #
vertex $-1 $79 $206 #
ellipse-curve $-1 60.073636607988846 42.968707792704457 15.981942626062922 0 0.73135370988377701 0.68199835119979291 2.5 0 0 1 I I #
face $-1 $-1 $95 $12 $-1 $207 reversed single #
loop $-1 $-1 $153 $80 #
plane-surface $-1 0 51.362060879040229 0 0 -1 0 0 0 -1 forward_v I I I I #
coedge $-1 $208 $151 $154 $209 forward $81 $-1 #
coedge $-1 $157 $83 $84 $145 reversed $50 $-1 #
coedge $-1 $151 $208 $83 $143 reversed $81 $-1 #
edge $-1 $158 -24.982712066717831 $210 24.982712066717831 $142 $211 forward 7 unknown #
coedge $-1 $85 $84 $208 $212 forward $33 $-1 #
edge $-1 $149 -75.386822107608253 $210 75.386822107608253 $141 $213 forward 7 unknown #
coedge $-1 $154 $153 $85 $147 reversed $138 $-1 #
edge $-1 $214 -75.386822107608253 $148 75.386822107608253 $146 $215 forward 7 unknown #
vertex $-1 $87 $216 #
vertex $-1 $160 $217 #
straight-curve $-1 75.386822107608253 0 -24.982712066717831 0 -1 0 I I #
coedge $-1 $140 $142 $88 $152 reversed $81 $-1 #
edge $-1 $155 -51.362060879040229 $158 51.362060879040229 $151 $218 forward 7 unknown #
coedge $-1 $146 $89 $94 $161 forward $138 $-1 #
coedge $-1 $89 $146 $140 $209 reversed $138 $-1 #
vertex $-1 $90 $219 #
straight-curve $-1 0 51.362060879040229 24.982712066717831 -1 0 0 I I #
coedge $-1 $91 $141 $93 $160 reversed $50 $-1 #
vertex $-1 $152 $220 #
straight-curve $-1 0 -51.362060879040229 24.982712066717831 1 0 0 I I #
edge $-1 $96 -24.982712066717831 $149 24.982712066717831 $93 $221 forward 7 unknown #
edge $-1 $97 -24.982712066717831 $148 24.982712066717831 $94 $222 forward 7 unknown #
point $-1 75.386822107608253 -51.362060879040229 24.982712066717831 #
point $-1 75.386822107608253 51.362060879040229 24.982712066717831 #
face $-1 $-1 $112 $13 $-1 $223 reversed single #
loop $-1 $-1 $171 $99 #
plane-surface $-1 0 0 24.982712066717831 0 0 1 1 0 0 forward_v I I I I #
coedge $-1 $224 $102 $107 $176 forward $58 $-1 #
coedge $-1 $102 $224 $225 $226 reversed $58 $-1 #
coedge $-1 $104 $103 $102 $170 reversed $37 $-1 #
edge $-1 $227 -15.677305609993653 $181 -2.9335073034547037 $102 $228 forward 7 unknown #
coedge $-1 $225 $229 $104 $172 forward $165 $-1 #
edge $-1 $174 -75.386822107608253 $227 75.386822107608253 $171 $230 forward 7 unknown #
coedge $-1 $111 $105 $229 $231 reversed $112 $-1 #
vertex $-1 $106 $232 #
straight-curve $-1 75.386822107608253 -32.911466084849053 9.3054064567241781 0 0 1 I I #
edge $-1 $181 11.843084343876733 $179 30.293679138067908 $167 $233 forward 7 unknown #
coedge $-1 $234 $108 $111 $183 reversed $100 $-1 #
coedge $-1 $108 $234 $224 $235 forward $100 $-1 #
vertex $-1 $109 $236 #
straight-curve $-1 0 -51.362060879040229 12.238913760178882 1 0 0 I I #
vertex $-1 $176 $237 #
straight-curve $-1 0 -32.911466084849053 12.238913760178882 1 0 0 I I #
edge $-1 $238 -24.982712066717831 $113 -12.238913760178882 $111 $239 forward 7 unknown #
point $-1 75.386822107608253 -51.362060879040229 12.238913760178882 #
point $-1 75.386822107608253 -32.911466084849053 12.238913760178882 #
plane-surface $-1 0 51.362060879040229 0 0 -1 0 0 0 -1 forward_v I I I I #
coedge $-1 $240 $119 $124 $193 forward $66 $-1 #
coedge $-1 $119 $240 $190 $241 forward $66 $-1 #
edge $-1 $191 -5.5754392485013113 $198 11.211266924170246 $119 $242 forward 7 unknown #
coedge $-1 $128 $122 $188 $241 reversed $129 $-1 #
vertex $-1 $189 $243 #
straight-curve $-1 44.760451108369423 51.362060879040229 92.468108743447431 0 0 1 I I #
edge $-1 $198 14.723632804375001 $196 45.350003803613845 $187 $244 forward 7 unknown #
coedge $-1 $195 $125 $128 $200 reversed $117 $-1 #
coedge $-1 $125 $194 $240 $245 reversed $117 $-1 #
vertex $-1 $245 $246 #
straight-curve $-1 75.386822107608253 6.1294560454394311 55.487204460357034 0 0.68199835119979291 -0.73135370988377701 I I #
vertex $-1 $193 $247 #
straight-curve $-1 44.760451108369423 -18.695620788417429 82.108840727733011 0 0.68199835119979291 -0.73135370988377701 I I #
edge $-1 $248 -24.982712066717831 $130 -6.9811731854080348 $194 $249 forward 7 unknown #
point $-1 75.386822107608253 51.362060879040229 6.9811731854080348 #
point $-1 44.760451108369423 51.362060879040229 6.9811731854080392 #
edge $-1 $250 1 $250 0 $133 $-1 forward 7 unknown #
vertex $-1 $134 $251 #
ellipse-curve $-1 60.073636607988846 40.724672574597378 13.889345982194799 0 0.73135370988377701 0.68199835119979291 2.5 0 0 1 I I #
point $-1 62.573636607988846 42.968707792704471 15.981942626062933 #
plane-surface $-1 75.386822107608253 0 0 -1 0 0 0 0 1 forward_v I I I I #
coedge $-1 $142 $140 $144 $212 reversed $81 $-1 #
edge $-1 $155 -24.982712066717831 $214 24.982712066717831 $154 $252 forward 7 unknown #
vertex $-1 $212 $253 #
straight-curve $-1 -75.386822107608253 -51.362060879040229 0 0 0 -1 I I #
edge $-1 $210 -51.362060879040229 $214 51.362060879040229 $208 $254 forward 7 unknown #
straight-curve $-1 0 -51.362060879040229 -24.982712066717831 -1 0 0 I I #
vertex $-1 $147 $255 #
straight-curve $-1 0 51.362060879040229 -24.982712066717831 1 0 0 I I #
point $-1 75.386822107608253 51.362060879040229 -24.982712066717831 #
point $-1 75.386822107608253 -51.362060879040229 -24.982712066717831 #
straight-curve $-1 -75.386822107608253 0 24.982712066717831 0 -1 0 I I #
point $-1 -75.386822107608253 51.362060879040229 24.982712066717831 #
point $-1 -75.386822107608253 -51.362060879040229 24.982712066717831 #
straight-curve $-1 75.386822107608253 -51.362060879040229 0 0 0 -1 I I #
straight-curve $-1 75.386822107608253 51.362060879040229 0 0 0 -1 I I #
plane-surface $-1 75.386822107608253 0 0 -1 0 0 0 0 1 forward_v I I I I #
coedge $-1 $168 $167 $178 $235 reversed $58 $-1 #
coedge $-1 $256 $171 $168 $226 forward $165 $-1 #
edge $-1 $227 32.911466084849053 $257 51.362060879040229 $168 $258 forward 7 unknown #
vertex $-1 $226 $259 #
straight-curve $-1 -75.386822107608253 -32.911466084849053 9.3054064567241781 0 0 -1 I I #
coedge $-1 $171 $256 $173 $231 forward $165 $-1 #
straight-curve $-1 0 -32.911466084849053 24.982712066717831 -1 0 0 I I #
edge $-1 $238 -51.362060879040229 $174 -32.911466084849053 $173 $260 forward 7 unknown #
point $-1 75.386822107608253 -32.911466084849053 24.982712066717831 #
straight-curve $-1 -75.386822107608253 -21.06838174097232 12.238913760178882 0 -1 0 I I #
coedge $-1 $178 $177 $256 $261 reversed $100 $-1 #
edge $-1 $257 -24.982712066717831 $179 -12.238913760178882 $224 $262 forward 7 unknown #
point $-1 -75.386822107608253 -51.362060879040229 12.238913760178882 #
point $-1 -75.386822107608253 -32.911466084849053 12.238913760178882 #
vertex $-1 $231 $263 #
straight-curve $-1 75.386822107608253 -51.362060879040229 0 0 0 -1 I I #
coedge $-1 $188 $187 $195 $245 forward $66 $-1 #
edge $-1 $248 -75.386822107608253 $191 -44.760451108369423 $190 $264 forward 7 unknown #
straight-curve $-1 44.760451108369423 45.786621630538917 24.982712066717838 0 -1 0 I I #
point $-1 44.760451108369423 51.362060879040229 24.982712066717831 #
straight-curve $-1 30.036818303994423 34.575354706368671 24.982712066717831 1 0 0 I I #
edge $-1 $196 34.575354706368671 $248 51.362060879040229 $195 $265 forward 7 unknown #
point $-1 75.386822107608268 34.575354706368671 24.982712066717824 #
point $-1 44.760451108369423 34.575354706368671 24.982712066717824 #
vertex $-1 $245 $266 #
straight-curve $-1 75.386822107608253 51.362060879040229 0 0 0 -1 I I #
vertex $-1 $203 $267 #
point $-1 62.573636607988846 40.724672574597378 13.889345982194799 #
straight-curve $-1 -75.386822107608253 51.362060879040229 0 0 0 -1 I I #
point $-1 -75.386822107608253 -51.362060879040229 -24.982712066717831 #
straight-curve $-1 -75.386822107608253 0 -24.982712066717831 0 1 0 I I #
point $-1 -75.386822107608253 51.362060879040229 -24.982712066717831 #
coedge $-1 $229 $225 $234 $261 forward $165 $-1 #
vertex $-1 $226 $268 #
straight-curve $-1 -75.386822107608253 0 24.982712066717831 0 -1 0 I I #
point $-1 -75.386822107608253 -32.911466084849053 24.982712066717831 #
straight-curve $-1 75.386822107608253 0 24.982712066717831 0 1 0 I I #
edge $-1 $257 -75.386822107608253 $238 75.386822107608253 $234 $269 forward 7 unknown #
straight-curve $-1 -75.386822107608253 -51.362060879040229 0 0 0 -1 I I #
point $-1 75.386822107608253 -51.362060879040229 24.982712066717831 #
straight-curve $-1 0 51.362060879040229 24.982712066717831 -1 0 0 I I #
straight-curve $-1 75.386822107608253 0 24.982712066717831 0 1 0 I I #
point $-1 75.386822107608253 51.362060879040229 24.982712066717831 #
point $-1 60.073636607988846 38.896288299887942 12.184350104195316 #
point $-1 -75.386822107608253 -51.362060879040229 24.982712066717831 #
straight-curve $-1 0 -51.362060879040229 24.982712066717831 1 0 0 I I #
End-of-ACIS-data 