500 0 5 0           
7 Unknown 11 ACIS 5.0 NT 24 Thu Mar 25 19:03:45 1999 
-1 9.9999999999999995e-007 1e-010 
body $-1 $5 $-1 $6 #
body $-1 $7 $-1 $8 #
body $-1 $9 $-1 $10 #
body $-1 $11 $-1 $12 #
body $-1 $13 $-1 $14 #
lump $-1 $-1 $15 $0 #
transform $-1 1 0 0 0 1 0 0 0 1 55.819574571977903 27.22479778632794 13.570274278528306 1 rotate no_reflect no_shear #
lump $-1 $-1 $16 $1 #
transform $-1 1 0 0 0 1 0 0 0 1 55.819574571977903 27.22479778632794 13.570274278528306 1 rotate no_reflect no_shear #
lump $-1 $-1 $17 $2 #
transform $-1 1 0 0 0 1 0 0 0 1 55.819574571977903 27.22479778632794 13.570274278528306 1 rotate no_reflect no_shear #
lump $-1 $-1 $18 $3 #
transform $-1 1 0 0 0 1 0 0 0 1 55.819574571977903 27.22479778632794 13.570274278528306 1 rotate no_reflect no_shear #
lump $-1 $-1 $19 $4 #
transform $-1 1 0 0 0 1 0 0 0 1 55.819574571977903 27.22479778632794 13.570274278528306 1 rotate no_reflect no_shear #
shell $-1 $-1 $-1 $20 $-1 $5 #
shell $-1 $-1 $-1 $21 $-1 $7 #
shell $-1 $-1 $-1 $22 $-1 $9 #
shell $-1 $-1 $-1 $23 $-1 $11 #
shell $-1 $-1 $-1 $24 $-1 $13 #
face $-1 $25 $26 $15 $-1 $27 forward single #
face $-1 $28 $29 $16 $-1 $30 forward single #
face $-1 $31 $32 $17 $-1 $33 forward single #
face $-1 $34 $35 $18 $-1 $36 reversed single #
face $-1 $37 $38 $19 $-1 $39 reversed single #
face $-1 $40 $41 $15 $-1 $42 reversed single #
loop $-1 $-1 $43 $20 #
plane-surface $-1 0 0 13.570274278528306 0 0 1 1 0 0 forward_v I I I I #
face $-1 $44 $45 $16 $-1 $46 forward single #
loop $-1 $-1 $47 $21 #
plane-surface $-1 -54.319574571977903 -13.242872113794336 0 0 -1 0 0 0 -1 forward_v I I I I #
face $-1 $48 $49 $17 $-1 $50 forward single #
loop $-1 $-1 $51 $22 #
plane-surface $-1 69.579864610174496 -4.9272588722176476 167.72527604693911 0 -1 0 -0.7660444514056185 0 -0.64278759981090561 forward_v I I I I #
face $-1 $52 $53 $18 $-1 $54 reversed single #
loop $-1 $55 $56 $23 #
cone-surface $-1 53.358677604141924 -10.866982616201 11.042854533113243 -0.7660444514056185 0 -0.64278759981090561 0.64278759981090561 0 -0.7660444514056185 1 I I 0 1 1 forward I I I I #
face $-1 $57 $58 $19 $-1 $59 reversed single #
loop $-1 $60 $61 $24 #
cone-surface $-1 53.358677604141924 -7.3031483698109909 11.042854533113243 -0.7660444514056185 0 -0.64278759981090561 0.64278759981090561 0 -0.7660444514056185 1 I I 0 1 1 forward I I I I #
face $-1 $62 $63 $15 $-1 $64 reversed single #
loop $-1 $-1 $65 $25 #
plane-surface $-1 0 0 -13.570274278528306 0 0 1 1 0 0 forward_v I I I I #
coedge $-1 $66 $67 $68 $69 forward $26 $-1 #
face $-1 $70 $71 $16 $-1 $72 forward single #
loop $-1 $-1 $73 $28 #
plane-surface $-1 -52.819574571977903 -20.233834950061137 0 -1 0 0 0 0 1 forward_v I I I I #
coedge $-1 $74 $75 $76 $77 reversed $29 $-1 #
face $-1 $78 $79 $17 $-1 $80 forward single #
loop $-1 $-1 $81 $31 #
plane-surface $-1 -15.940686151197156 -9.0850654930059918 95.96501532376405 0.7660444514056185 0 0.64278759981090561 0.64278759981090561 0 -0.7660444514056185 forward_v I I I I #
coedge $-1 $82 $83 $84 $85 reversed $32 $-1 #
face $-1 $86 $87 $18 $-1 $88 forward single #
loop $-1 $89 $90 $34 #
cone-surface $-1 51.826191266238247 -10.866982616201 9.756945845860681 -0.7660444514056185 0 -0.64278759981090561 0.3213937999054528 0 -0.38302222570280925 1 I I -0.70710678118654746 0.70710678118654746 0.5 forward I I I I #
loop $-1 $-1 $91 $23 #
coedge $-1 $56 $56 $92 $93 reversed $35 $-1 #
face $-1 $94 $95 $19 $-1 $96 reversed single #
loop $-1 $97 $98 $37 #
cone-surface $-1 51.826191266238247 -7.3031483698109909 9.756945845860681 -0.7660444514056185 0 -0.64278759981090561 0.3213937999054528 0 -0.38302222570280925 1 I I -0.70710678118654746 0.70710678118654746 0.5 forward I I I I #
loop $-1 $-1 $99 $24 #
coedge $-1 $61 $61 $100 $101 reversed $38 $-1 #
face $-1 $102 $103 $15 $-1 $104 reversed single #
loop $-1 $-1 $105 $40 #
plane-surface $-1 0 -27.22479778632794 0 0 1 0 0 0 1 forward_v I I I I #
coedge $-1 $106 $107 $108 $109 forward $41 $-1 #
coedge $-1 $110 $43 $111 $112 forward $26 $-1 #
coedge $-1 $43 $110 $113 $114 forward $26 $-1 #
coedge $-1 $115 $116 $43 $69 reversed $117 $-1 #
edge $-1 $118 -27.22479778632794 $119 27.22479778632794 $68 $120 forward 7 unknown #
face $-1 $121 $122 $16 $-1 $123 reversed single #
loop $-1 $-1 $124 $44 #
plane-surface $-1 0 0 13.570274278528306 0 0 1 1 0 0 forward_v I I I I #
coedge $-1 $125 $126 $127 $128 reversed $45 $-1 #
coedge $-1 $129 $47 $124 $130 reversed $29 $-1 #
coedge $-1 $47 $129 $131 $132 reversed $29 $-1 #
coedge $-1 $126 $125 $47 $77 forward $45 $-1 #
edge $-1 $133 -13.570274278528306 $134 13.570274278528306 $76 $135 forward 7 unknown #
face $-1 $136 $137 $17 $-1 $138 forward single #
loop $-1 $-1 $139 $48 #
plane-surface $-1 69.579864610174496 -13.242872113794336 167.72527604693911 0 1 0 0.7660444514056185 0 0.64278759981090561 forward_v I I I I #
coedge $-1 $140 $141 $142 $143 reversed $49 $-1 #
coedge $-1 $83 $51 $141 $144 forward $32 $-1 #
coedge $-1 $51 $82 $145 $146 reversed $32 $-1 #
coedge $-1 $147 $142 $51 $85 forward $137 $-1 #
edge $-1 $148 18.406776555620439 $149 21.029642266890654 $84 $150 forward 7 unknown #
face $-1 $151 $152 $18 $-1 $153 forward single #
loop $-1 $-1 $154 $52 #
plane-surface $-1 69.579864610174496 -4.9272588722176476 167.72527604693911 0 -1 0 -0.7660444514056185 0 -0.64278759981090561 forward_v I I I I #
loop $-1 $-1 $155 $34 #
coedge $-1 $90 $90 $91 $156 forward $53 $-1 #
coedge $-1 $91 $91 $90 $156 reversed $55 $-1 #
coedge $-1 $92 $92 $56 $93 forward $152 $-1 #
edge $-1 $157 0 $157 6.2831853071796004 $92 $158 forward 7 unknown #
face $-1 $159 $160 $19 $-1 $161 reversed single #
loop $-1 $162 $163 $57 #
cone-surface $-1 53.358677604141924 -10.866982616201 11.042854533113243 -0.7660444514056185 0 -0.64278759981090561 0.64278759981090561 0 -0.7660444514056185 1 I I 0 1 1 forward I I I I #
loop $-1 $-1 $164 $37 #
coedge $-1 $98 $98 $99 $165 forward $58 $-1 #
coedge $-1 $99 $99 $98 $165 reversed $60 $-1 #
coedge $-1 $100 $100 $61 $101 forward $166 $-1 #
edge $-1 $167 0 $167 6.2831853071796004 $100 $168 forward 7 unknown #
face $-1 $169 $170 $15 $-1 $171 reversed single #
loop $-1 $-1 $172 $62 #
plane-surface $-1 -55.819574571977903 0 0 1 0 0 0 0 -1 forward_v I I I I #
coedge $-1 $173 $113 $174 $175 forward $63 $-1 #
coedge $-1 $176 $65 $173 $177 forward $41 $-1 #
coedge $-1 $65 $176 $178 $179 forward $41 $-1 #
coedge $-1 $116 $115 $65 $109 reversed $117 $-1 #
edge $-1 $180 -27.22479778632794 $181 27.22479778632794 $108 $182 forward 7 unknown #
coedge $-1 $67 $66 $183 $184 forward $26 $-1 #
coedge $-1 $185 $186 $66 $112 reversed $170 $-1 #
edge $-1 $119 -55.819574571977903 $187 55.819574571977903 $111 $188 forward 7 unknown #
coedge $-1 $105 $189 $67 $114 reversed $63 $-1 #
edge $-1 $190 -55.819574571977903 $118 55.819574571977903 $113 $191 forward 7 unknown #
coedge $-1 $108 $68 $189 $192 forward $117 $-1 #
coedge $-1 $68 $108 $185 $193 reversed $117 $-1 #
loop $-1 $-1 $115 $169 #
vertex $-1 $69 $194 #
vertex $-1 $69 $195 #
straight-curve $-1 55.819574571977903 0 13.570274278528306 0 1 0 I I #
face $-1 $196 $197 $16 $-1 $198 reversed single #
loop $-1 $-1 $127 $70 #
plane-surface $-1 0 -27.22479778632794 0 0 1 0 0 0 1 forward_v I I I I #
coedge $-1 $199 $200 $74 $130 forward $71 $-1 #
coedge $-1 $76 $73 $199 $201 reversed $45 $-1 #
coedge $-1 $73 $76 $202 $203 reversed $45 $-1 #
coedge $-1 $204 $205 $73 $128 forward $122 $-1 #
edge $-1 $206 -13.570274278528306 $207 13.570274278528306 $127 $208 forward 7 unknown #
coedge $-1 $75 $74 $209 $210 reversed $29 $-1 #
edge $-1 $211 -28.659787285988951 $133 -25.659787285988951 $124 $212 forward 7 unknown #
coedge $-1 $213 $202 $75 $132 forward $197 $-1 #
edge $-1 $134 25.659787285988951 $214 28.659787285988951 $131 $215 forward 7 unknown #
vertex $-1 $130 $216 #
vertex $-1 $132 $217 #
straight-curve $-1 -52.819574571977903 -13.242872113794336 0 0 0 -1 I I #
face $-1 $218 $219 $17 $-1 $220 forward single #
loop $-1 $-1 $221 $78 #
plane-surface $-1 0 0 13.570274278528306 0 0 1 1 0 0 forward_v I I I I #
coedge $-1 $222 $223 $221 $224 reversed $79 $-1 #
coedge $-1 $225 $81 $223 $226 reversed $49 $-1 #
coedge $-1 $81 $225 $82 $144 reversed $49 $-1 #
coedge $-1 $84 $221 $81 $143 forward $137 $-1 #
edge $-1 $227 -8.7003393672913401 $148 -0.3847261257146517 $142 $228 forward 7 unknown #
edge $-1 $148 107.55869439958643 $229 111.63914914395581 $82 $230 forward 7 unknown #
coedge $-1 $231 $232 $83 $146 forward $233 $-1 #
edge $-1 $149 70.292363744941255 $229 73.418173461077146 $145 $234 forward 7 unknown #
coedge $-1 $235 $84 $232 $236 forward $137 $-1 #
vertex $-1 $143 $237 #
vertex $-1 $236 $238 #
straight-curve $-1 34.789932305087248 -4.9272588722176476 13.570274278528302 1 0 0 I I #
face $-1 $239 $240 $18 $-1 $241 forward single #
loop $-1 $242 $92 $86 #
plane-surface $-1 -15.940686151197156 -9.0850654930059918 95.96501532376405 0.7660444514056185 0 0.64278759981090561 0.64278759981090561 0 -0.7660444514056185 forward_v I I I I #
coedge $-1 $243 $244 $245 $246 reversed $87 $-1 #
coedge $-1 $155 $155 $-1 $247 forward $89 $-1 #
edge $-1 $248 0 $248 6.2831853071796004 $90 $249 forward 7 unknown #
vertex $-1 $93 $250 #
ellipse-curve $-1 54.508141716342799 -10.866982616201 12.00736942046036 -0.7660444514056185 0 -0.64278759981090561 0.64278759981090561 0 -0.7660444514056185 1 I I #
face $-1 $251 $252 $19 $-1 $253 forward single #
loop $-1 $254 $255 $94 #
cone-surface $-1 51.826191266238247 -10.866982616201 9.756945845860681 -0.7660444514056185 0 -0.64278759981090561 0.3213937999054528 0 -0.38302222570280925 1 I I -0.70710678118654746 0.70710678118654746 0.5 forward I I I I #
loop $-1 $-1 $256 $57 #
coedge $-1 $163 $163 $257 $258 reversed $95 $-1 #
coedge $-1 $164 $164 $-1 $259 forward $97 $-1 #
edge $-1 $260 0 $260 6.2831853071796004 $98 $261 forward 7 unknown #
loop $-1 $262 $100 $251 #
vertex $-1 $101 $263 #
ellipse-curve $-1 54.508141716342799 -7.3031483698109909 12.00736942046036 -0.7660444514056185 0 -0.64278759981090561 0.64278759981090561 0 -0.7660444514056185 1 I I #
face $-1 $-1 $117 $15 $-1 $264 reversed single #
loop $-1 $-1 $185 $102 #
plane-surface $-1 0 27.22479778632794 0 0 -1 0 0 0 -1 forward_v I I I I #
coedge $-1 $265 $183 $186 $266 forward $103 $-1 #
coedge $-1 $189 $105 $106 $177 reversed $63 $-1 #
coedge $-1 $183 $265 $105 $175 reversed $103 $-1 #
edge $-1 $190 -13.570274278528306 $267 13.570274278528306 $174 $268 forward 7 unknown #
coedge $-1 $107 $106 $265 $269 forward $41 $-1 #
edge $-1 $181 -55.819574571977903 $267 55.819574571977903 $173 $270 forward 7 unknown #
coedge $-1 $186 $185 $107 $179 reversed $170 $-1 #
edge $-1 $271 -55.819574571977903 $180 55.819574571977903 $178 $272 forward 7 unknown #
vertex $-1 $109 $273 #
vertex $-1 $192 $274 #
straight-curve $-1 55.819574571977903 0 -13.570274278528306 0 -1 0 I I #
coedge $-1 $172 $174 $110 $184 reversed $103 $-1 #
edge $-1 $187 -27.22479778632794 $190 27.22479778632794 $183 $275 forward 7 unknown #
coedge $-1 $178 $111 $116 $193 forward $170 $-1 #
coedge $-1 $111 $178 $172 $266 reversed $170 $-1 #
vertex $-1 $112 $276 #
straight-curve $-1 0 27.22479778632794 13.570274278528306 -1 0 0 I I #
coedge $-1 $113 $173 $115 $192 reversed $63 $-1 #
vertex $-1 $184 $277 #
straight-curve $-1 0 -27.22479778632794 13.570274278528306 1 0 0 I I #
edge $-1 $118 -13.570274278528306 $181 13.570274278528306 $115 $278 forward 7 unknown #
edge $-1 $119 -13.570274278528306 $180 13.570274278528306 $116 $279 forward 7 unknown #
point $-1 55.819574571977903 -27.22479778632794 13.570274278528306 #
point $-1 55.819574571977903 27.22479778632794 13.570274278528306 #
face $-1 $280 $281 $16 $-1 $282 reversed single #
loop $-1 $-1 $131 $121 #
plane-surface $-1 0 0 -13.570274278528306 0 0 1 1 0 0 forward_v I I I I #
coedge $-1 $283 $124 $125 $201 forward $71 $-1 #
coedge $-1 $124 $284 $285 $286 forward $71 $-1 #
edge $-1 $133 3.1259546387637673 $206 17.107880311297372 $199 $287 forward 7 unknown #
coedge $-1 $131 $288 $126 $203 forward $197 $-1 #
edge $-1 $207 -17.107880311297372 $134 -3.1259546387637673 $202 $289 forward 7 unknown #
coedge $-1 $290 $127 $288 $291 reversed $122 $-1 #
coedge $-1 $127 $290 $283 $292 reversed $122 $-1 #
vertex $-1 $292 $293 #
vertex $-1 $128 $294 #
straight-curve $-1 -52.819574571977903 -27.22479778632794 0 0 0 -1 I I #
coedge $-1 $285 $295 $129 $210 forward $281 $-1 #
edge $-1 $214 -13.570274278528306 $211 13.570274278528306 $209 $296 forward 7 unknown #
vertex $-1 $210 $297 #
straight-curve $-1 -27.159787285988951 -13.242872113794336 13.570274278528306 1 0 0 I I #
coedge $-1 $298 $131 $295 $299 forward $197 $-1 #
vertex $-1 $299 $300 #
straight-curve $-1 -27.159787285988951 -13.242872113794336 -13.570274278528306 -1 0 0 I I #
point $-1 -52.819574571977903 -13.242872113794336 13.570274278528306 #
point $-1 -52.819574571977903 -13.242872113794336 -13.570274278528306 #
face $-1 $301 $302 $17 $-1 $303 forward single #
loop $-1 $-1 $304 $136 #
plane-surface $-1 -54.319574571977903 -13.242872113794336 0 0 -1 0 0 0 -1 forward_v I I I I #
coedge $-1 $142 $305 $139 $224 forward $137 $-1 #
coedge $-1 $223 $139 $306 $307 reversed $79 $-1 #
coedge $-1 $139 $222 $140 $226 forward $79 $-1 #
edge $-1 $308 -21.029642266890654 $227 -18.406776555620439 $221 $309 forward 7 unknown #
coedge $-1 $141 $140 $231 $310 reversed $49 $-1 #
edge $-1 $311 -111.63914914395581 $227 -107.55869439958643 $223 $312 forward 7 unknown #
vertex $-1 $143 $313 #
straight-curve $-1 53.196708860707695 -4.5425327465029959 13.570274278528295 0 1 0 I I #
vertex $-1 $310 $314 #
straight-curve $-1 -15.940686151197156 -4.9272588722176476 95.96501532376405 0.64278759981090561 0 -0.7660444514056185 I I #
coedge $-1 $306 $145 $225 $310 forward $233 $-1 #
coedge $-1 $145 $315 $147 $236 reversed $233 $-1 #
loop $-1 $-1 $306 $316 #
straight-curve $-1 55.819574571977903 -4.9272588722176476 83.862638023469557 0 0 -1 I I #
coedge $-1 $317 $147 $318 $319 forward $137 $-1 #
edge $-1 $149 -4.9272588722176476 $320 27.22479778632794 $232 $321 forward 7 unknown #
point $-1 53.196708860707687 -4.9272588722176476 13.570274278528302 #
point $-1 55.819574571977903 -4.9272588722176476 13.570274278528306 #
face $-1 $322 $323 $18 $-1 $324 forward single #
loop $-1 $-1 $325 $151 #
plane-surface $-1 69.579864610174496 -13.242872113794336 167.72527604693911 0 1 0 0.7660444514056185 0 0.64278759981090561 forward_v I I I I #
loop $-1 $-1 $326 $86 #
coedge $-1 $244 $154 $327 $328 forward $87 $-1 #
coedge $-1 $154 $243 $329 $330 reversed $87 $-1 #
coedge $-1 $331 $332 $154 $246 forward $323 $-1 #
edge $-1 $333 18.406776555620439 $334 21.029642266890654 $245 $335 forward 7 unknown #
edge $-1 $336 1 $336 0 $155 $-1 forward 7 unknown #
vertex $-1 $156 $337 #
ellipse-curve $-1 52.209213491941057 -10.866982616201 10.078339645766134 0.7660444514056185 0 0.64278759981090561 0.64278759981090561 0 -0.7660444514056185 1 I I #
point $-1 55.150929316153693 -10.866982616201 11.241324969054732 #
face $-1 $338 $166 $19 $-1 $339 forward single #
loop $-1 $-1 $340 $159 #
plane-surface $-1 69.579864610174496 -4.9272588722176476 167.72527604693911 0 -1 0 -0.7660444514056185 0 -0.64278759981090561 forward_v I I I I #
loop $-1 $-1 $341 $94 #
coedge $-1 $255 $255 $256 $342 forward $160 $-1 #
coedge $-1 $256 $256 $255 $342 reversed $162 $-1 #
coedge $-1 $257 $257 $163 $258 forward $262 $-1 #
edge $-1 $343 0 $343 6.2831853071796004 $257 $344 forward 7 unknown #
edge $-1 $345 1 $345 0 $164 $-1 forward 7 unknown #
vertex $-1 $165 $346 #
ellipse-curve $-1 52.209213491941057 -7.3031483698109909 10.078339645766134 0.7660444514056185 0 0.64278759981090561 0.64278759981090561 0 -0.7660444514056185 1 I I #
loop $-1 $347 $257 $251 #
point $-1 55.150929316153693 -7.3031483698109909 11.241324969054732 #
plane-surface $-1 55.819574571977903 0 0 -1 0 0 0 0 1 forward_v I I I I #
coedge $-1 $174 $172 $176 $269 reversed $103 $-1 #
edge $-1 $187 -13.570274278528306 $271 13.570274278528306 $186 $348 forward 7 unknown #
vertex $-1 $269 $349 #
straight-curve $-1 -55.819574571977903 -27.22479778632794 0 0 0 -1 I I #
edge $-1 $267 -27.22479778632794 $271 27.22479778632794 $265 $350 forward 7 unknown #
straight-curve $-1 0 -27.22479778632794 -13.570274278528306 -1 0 0 I I #
vertex $-1 $179 $351 #
straight-curve $-1 0 27.22479778632794 -13.570274278528306 1 0 0 I I #
point $-1 55.819574571977903 27.22479778632794 -13.570274278528306 #
point $-1 55.819574571977903 -27.22479778632794 -13.570274278528306 #
straight-curve $-1 -55.819574571977903 0 13.570274278528306 0 -1 0 I I #
point $-1 -55.819574571977903 27.22479778632794 13.570274278528306 #
point $-1 -55.819574571977903 -27.22479778632794 13.570274278528306 #
straight-curve $-1 55.819574571977903 -27.22479778632794 0 0 0 -1 I I #
straight-curve $-1 55.819574571977903 27.22479778632794 0 0 0 -1 I I #
face $-1 $352 $353 $16 $-1 $354 reversed single #
loop $-1 $-1 $209 $196 #
plane-surface $-1 -55.819574571977903 0 0 1 0 0 0 0 -1 forward_v I I I I #
coedge $-1 $355 $199 $205 $292 forward $71 $-1 #
coedge $-1 $200 $355 $356 $357 forward $71 $-1 #
coedge $-1 $358 $209 $200 $286 reversed $281 $-1 #
edge $-1 $359 -27.22479778632794 $211 13.242872113794336 $285 $360 forward 7 unknown #
straight-curve $-1 -52.819574571977903 -10.116917475030569 13.570274278528306 0 -1 0 I I #
coedge $-1 $202 $361 $204 $291 forward $197 $-1 #
straight-curve $-1 -52.819574571977903 -10.116917475030569 -13.570274278528306 0 1 0 I I #
coedge $-1 $205 $204 $362 $363 reversed $122 $-1 #
edge $-1 $364 -55.819574571977903 $207 52.819574571977903 $204 $365 forward 7 unknown #
edge $-1 $206 -52.819574571977903 $366 55.819574571977903 $205 $367 forward 7 unknown #
point $-1 -52.819574571977903 -27.22479778632794 13.570274278528306 #
point $-1 -52.819574571977903 -27.22479778632794 -13.570274278528306 #
coedge $-1 $209 $358 $213 $299 reversed $281 $-1 #
straight-curve $-1 -55.819574571977903 -13.242872113794336 0 0 0 1 I I #
point $-1 -55.819574571977903 -13.242872113794336 13.570274278528306 #
coedge $-1 $361 $213 $368 $369 forward $197 $-1 #
edge $-1 $214 -13.242872113794336 $370 27.22479778632794 $295 $371 forward 7 unknown #
point $-1 -55.819574571977903 -13.242872113794336 -13.570274278528306 #
face $-1 $372 $373 $17 $-1 $374 reversed single #
loop $-1 $-1 $375 $218 #
plane-surface $-1 -52.819574571977903 -20.233834950061137 0 -1 0 0 0 0 1 forward_v I I I I #
coedge $-1 $376 $377 $378 $379 reversed $219 $-1 #
coedge $-1 $221 $380 $381 $382 forward $137 $-1 #
coedge $-1 $381 $231 $222 $307 forward $233 $-1 #
edge $-1 $311 -73.418173461077146 $308 -70.292363744941255 $306 $383 forward 7 unknown #
vertex $-1 $307 $384 #
straight-curve $-1 34.789932305087248 -13.242872113794336 13.570274278528302 -1 0 0 I I #
edge $-1 $229 0.3847261257146517 $311 8.7003393672913401 $231 $385 forward 7 unknown #
vertex $-1 $310 $386 #
straight-curve $-1 -15.940686151197156 -13.242872113794336 95.96501532376405 -0.64278759981090561 0 0.7660444514056185 I I #
point $-1 53.196708860707687 -13.242872113794336 13.570274278528302 #
point $-1 55.81957457197791 -4.9272588722176476 10.444464562392412 #
coedge $-1 $232 $387 $388 $389 reversed $233 $-1 #
face $-1 $-1 $233 $17 $-1 $390 reversed single #
coedge $-1 $391 $235 $392 $393 forward $137 $-1 #
coedge $-1 $388 $394 $235 $319 reversed $395 $-1 #
edge $-1 $320 -55.819574571977903 $396 55.819574571977903 $318 $397 forward 7 unknown #
vertex $-1 $236 $398 #
straight-curve $-1 55.819574571977903 0 13.570274278528306 0 1 0 I I #
face $-1 $399 $400 $18 $-1 $401 forward single #
loop $-1 $-1 $402 $239 #
plane-surface $-1 0 0 13.570274278528306 0 0 1 1 0 0 forward_v I I I I #
coedge $-1 $403 $404 $402 $405 reversed $240 $-1 #
coedge $-1 $406 $327 $332 $407 reversed $242 $-1 #
coedge $-1 $326 $408 $243 $328 reversed $242 $-1 #
edge $-1 $333 107.55869439958643 $409 111.63914914395581 $243 $410 forward 7 unknown #
coedge $-1 $411 $412 $244 $330 forward $413 $-1 #
edge $-1 $334 70.292363744941255 $409 73.418173461077146 $329 $414 forward 7 unknown #
coedge $-1 $415 $245 $412 $416 forward $323 $-1 #
coedge $-1 $245 $402 $326 $407 forward $323 $-1 #
vertex $-1 $407 $417 #
vertex $-1 $416 $418 #
straight-curve $-1 34.789932305087248 -4.9272588722176476 13.570274278528302 1 0 0 I I #
vertex $-1 $247 $419 #
point $-1 52.852001091751958 -10.866982616201 9.3122951943605159 #
face $-1 $420 $421 $19 $-1 $422 forward single #
plane-surface $-1 -15.940686151197156 -9.0850654930059918 95.96501532376405 0.7660444514056185 0 0.64278759981090561 0.64278759981090561 0 -0.7660444514056185 forward_v I I I I #
coedge $-1 $423 $424 $425 $426 reversed $252 $-1 #
coedge $-1 $341 $341 $-1 $427 forward $254 $-1 #
edge $-1 $428 0 $428 6.2831853071796004 $255 $429 forward 7 unknown #
vertex $-1 $258 $430 #
ellipse-curve $-1 54.508141716342799 -10.866982616201 12.00736942046036 -0.7660444514056185 0 -0.64278759981090561 0.64278759981090561 0 -0.7660444514056185 1 I I #
vertex $-1 $259 $431 #
point $-1 52.852001091751958 -7.3031483698109909 9.3122951943605159 #
loop $-1 $-1 $432 $251 #
straight-curve $-1 -55.819574571977903 27.22479778632794 0 0 0 -1 I I #
point $-1 -55.819574571977903 -27.22479778632794 -13.570274278528306 #
straight-curve $-1 -55.819574571977903 0 -13.570274278528306 0 1 0 I I #
point $-1 -55.819574571977903 27.22479778632794 -13.570274278528306 #
face $-1 $-1 $433 $16 $-1 $434 reversed single #
loop $-1 $-1 $435 $280 #
plane-surface $-1 0 27.22479778632794 0 0 -1 0 0 0 -1 forward_v I I I I #
coedge $-1 $284 $283 $436 $437 forward $71 $-1 #
coedge $-1 $435 $438 $284 $357 reversed $353 $-1 #
edge $-1 $439 -55.819574571977903 $359 55.819574571977903 $356 $440 forward 7 unknown #
coedge $-1 $295 $285 $438 $441 forward $281 $-1 #
vertex $-1 $357 $442 #
straight-curve $-1 -55.819574571977903 0 13.570274278528306 0 -1 0 I I #
coedge $-1 $288 $298 $443 $444 forward $197 $-1 #
coedge $-1 $443 $436 $290 $363 forward $433 $-1 #
edge $-1 $366 -13.570274278528306 $364 13.570274278528306 $362 $445 forward 7 unknown #
vertex $-1 $363 $446 #
straight-curve $-1 0 -27.22479778632794 -13.570274278528306 -1 0 0 I I #
vertex $-1 $437 $447 #
straight-curve $-1 0 -27.22479778632794 13.570274278528306 1 0 0 I I #
coedge $-1 $438 $435 $298 $369 reversed $353 $-1 #
edge $-1 $370 -55.819574571977903 $448 55.819574571977903 $368 $449 forward 7 unknown #
vertex $-1 $369 $450 #
straight-curve $-1 -55.819574571977903 0 -13.570274278528306 0 1 0 I I #
face $-1 $451 $452 $17 $-1 $453 reversed single #
loop $-1 $-1 $454 $301 #
plane-surface $-1 0 -27.22479778632794 0 0 1 0 0 0 1 forward_v I I I I #
coedge $-1 $455 $456 $454 $457 reversed $302 $-1 #
coedge $-1 $458 $304 $391 $459 reversed $219 $-1 #
coedge $-1 $304 $458 $460 $461 reversed $219 $-1 #
coedge $-1 $456 $455 $304 $379 forward $302 $-1 #
edge $-1 $462 -13.570274278528306 $463 13.570274278528306 $378 $464 forward 7 unknown #
coedge $-1 $305 $465 $466 $467 forward $137 $-1 #
coedge $-1 $468 $306 $305 $382 reversed $233 $-1 #
edge $-1 $469 -27.22479778632794 $308 -13.242872113794336 $381 $321 forward 7 unknown #
straight-curve $-1 55.819574571977903 -13.242872113794336 83.862638023469557 0 0 1 I I #
point $-1 55.819574571977903 -13.242872113794336 13.570274278528306 #
straight-curve $-1 55.819574571977903 -4.5425327465029959 10.444464562392405 0 -1 0 I I #
point $-1 55.81957457197791 -13.242872113794336 10.444464562392412 #
coedge $-1 $315 $468 $470 $471 reversed $233 $-1 #
coedge $-1 $472 $318 $315 $389 forward $395 $-1 #
edge $-1 $320 -13.570274278528306 $473 13.570274278528306 $315 $474 forward 7 unknown #
plane-surface $-1 55.819574571977903 0 0 -1 0 0 0 0 1 forward_v I I I I #
coedge $-1 $465 $317 $376 $459 forward $137 $-1 #
coedge $-1 $475 $476 $317 $393 reversed $477 $-1 #
edge $-1 $396 -27.22479778632794 $478 13.242872113794336 $392 $479 forward 7 unknown #
coedge $-1 $318 $472 $475 $480 reversed $395 $-1 #
loop $-1 $-1 $388 $481 #
vertex $-1 $319 $482 #
straight-curve $-1 0 27.22479778632794 13.570274278528306 -1 0 0 I I #
point $-1 55.819574571977903 27.22479778632794 13.570274278528306 #
face $-1 $483 $484 $18 $-1 $485 forward single #
loop $-1 $-1 $486 $322 #
plane-surface $-1 -54.319574571977903 -13.242872113794336 0 0 -1 0 0 0 -1 forward_v I I I I #
coedge $-1 $332 $487 $325 $405 forward $323 $-1 #
coedge $-1 $404 $325 $488 $489 reversed $240 $-1 #
coedge $-1 $325 $403 $406 $490 forward $240 $-1 #
edge $-1 $491 -21.029642266890654 $492 -18.406776555620439 $402 $493 forward 7 unknown #
coedge $-1 $408 $326 $404 $490 reversed $242 $-1 #
edge $-1 $492 -8.7003393672913401 $333 -0.3847261257146517 $332 $494 forward 7 unknown #
coedge $-1 $327 $406 $411 $495 reversed $242 $-1 #
vertex $-1 $495 $496 #
straight-curve $-1 -15.940686151197156 -4.9272588722176476 95.96501532376405 0.64278759981090561 0 -0.7660444514056185 I I #
coedge $-1 $488 $329 $408 $495 forward $413 $-1 #
coedge $-1 $329 $497 $331 $416 reversed $413 $-1 #
loop $-1 $-1 $488 $498 #
straight-curve $-1 55.819574571977903 -4.9272588722176476 83.862638023469557 0 0 -1 I I #
coedge $-1 $499 $331 $500 $501 forward $323 $-1 #
edge $-1 $334 -4.9272588722176476 $502 27.22479778632794 $412 $503 forward 7 unknown #
point $-1 53.196708860707687 -4.9272588722176476 13.570274278528302 #
point $-1 55.819574571977903 -4.9272588722176476 13.570274278528306 #
point $-1 51.443169040535437 -10.866982616201 9.4355520459552285 #
face $-1 $504 $505 $19 $-1 $506 forward single #
loop $-1 $-1 $507 $338 #
plane-surface $-1 69.579864610174496 -13.242872113794336 167.72527604693911 0 1 0 0.7660444514056185 0 0.64278759981090561 forward_v I I I I #
coedge $-1 $424 $340 $508 $509 forward $252 $-1 #
coedge $-1 $340 $423 $510 $511 reversed $252 $-1 #
coedge $-1 $512 $513 $340 $426 forward $505 $-1 #
edge $-1 $514 18.406776555620439 $515 21.029642266890654 $425 $516 forward 7 unknown #
edge $-1 $517 1 $517 0 $341 $-1 forward 7 unknown #
vertex $-1 $342 $518 #
ellipse-curve $-1 52.209213491941057 -10.866982616201 10.078339645766134 0.7660444514056185 0 0.64278759981090561 0.64278759981090561 0 -0.7660444514056185 1 I I #
point $-1 55.150929316153693 -10.866982616201 11.241324969054732 #
point $-1 51.443169040535437 -7.3031483698109909 9.4355520459552285 #
coedge $-1 $519 $508 $513 $520 reversed $347 $-1 #
loop $-1 $-1 $362 $352 #
plane-surface $-1 55.819574571977903 0 0 -1 0 0 0 0 1 forward_v I I I I #
coedge $-1 $368 $356 $521 $522 forward $353 $-1 #
coedge $-1 $362 $521 $355 $437 reversed $433 $-1 #
edge $-1 $366 -27.22479778632794 $439 27.22479778632794 $436 $523 forward 7 unknown #
coedge $-1 $356 $368 $358 $441 reversed $353 $-1 #
vertex $-1 $437 $524 #
straight-curve $-1 0 27.22479778632794 13.570274278528306 -1 0 0 I I #
edge $-1 $359 -13.570274278528306 $370 13.570274278528306 $438 $525 forward 7 unknown #
point $-1 -55.819574571977903 27.22479778632794 13.570274278528306 #
coedge $-1 $521 $362 $361 $444 reversed $433 $-1 #
edge $-1 $448 -27.22479778632794 $364 27.22479778632794 $443 $526 forward 7 unknown #
straight-curve $-1 55.819574571977903 -27.22479778632794 0 0 0 -1 I I #
point $-1 55.819574571977903 -27.22479778632794 -13.570274278528306 #
point $-1 55.819574571977903 -27.22479778632794 13.570274278528306 #
vertex $-1 $444 $527 #
straight-curve $-1 0 27.22479778632794 -13.570274278528306 1 0 0 I I #
point $-1 -55.819574571977903 27.22479778632794 -13.570274278528306 #
face $-1 $481 $477 $17 $-1 $528 reversed single #
loop $-1 $-1 $460 $372 #
plane-surface $-1 0 0 -13.570274278528306 0 0 1 1 0 0 forward_v I I I I #
coedge $-1 $529 $466 $375 $457 forward $373 $-1 #
coedge $-1 $378 $375 $465 $530 reversed $302 $-1 #
coedge $-1 $375 $378 $531 $532 reversed $302 $-1 #
edge $-1 $533 -13.570274278528306 $534 13.570274278528306 $454 $535 forward 7 unknown #
coedge $-1 $377 $376 $476 $536 reversed $219 $-1 #
edge $-1 $478 -28.659787285988951 $462 -25.659787285988951 $391 $537 forward 7 unknown #
coedge $-1 $538 $531 $377 $461 forward $452 $-1 #
edge $-1 $463 25.659787285988951 $539 28.659787285988951 $460 $540 forward 7 unknown #
vertex $-1 $459 $541 #
vertex $-1 $461 $542 #
straight-curve $-1 -52.819574571977903 -13.242872113794336 0 0 0 -1 I I #
coedge $-1 $380 $391 $455 $530 forward $137 $-1 #
coedge $-1 $454 $543 $380 $467 reversed $373 $-1 #
edge $-1 $533 -52.819574571977903 $469 55.819574571977903 $466 $544 forward 7 unknown #
coedge $-1 $387 $381 $543 $545 forward $233 $-1 #
vertex $-1 $382 $546 #
coedge $-1 $547 $548 $387 $471 forward $452 $-1 #
edge $-1 $473 -27.22479778632794 $549 27.22479778632794 $387 $550 forward 7 unknown #
coedge $-1 $394 $388 $548 $551 reversed $395 $-1 #
vertex $-1 $471 $552 #
straight-curve $-1 55.819574571977903 27.22479778632794 0 0 0 -1 I I #
coedge $-1 $553 $392 $394 $480 forward $477 $-1 #
coedge $-1 $392 $553 $458 $536 forward $477 $-1 #
loop $-1 $-1 $476 $451 #
vertex $-1 $536 $554 #
straight-curve $-1 -55.819574571977903 0 13.570274278528306 0 -1 0 I I #
edge $-1 $396 -13.570274278528306 $555 13.570274278528306 $394 $556 forward 7 unknown #
face $-1 $316 $395 $17 $-1 $557 reversed single #
point $-1 -55.819574571977903 27.22479778632794 13.570274278528306 #
face $-1 $558 $559 $18 $-1 $560 reversed single #
loop $-1 $-1 $561 $399 #
plane-surface $-1 -52.819574571977903 -20.233834950061137 0 -1 0 0 0 0 1 forward_v I I I I #
coedge $-1 $562 $563 $564 $565 reversed $400 $-1 #
coedge $-1 $402 $566 $567 $568 forward $323 $-1 #
coedge $-1 $567 $411 $403 $489 forward $413 $-1 #
edge $-1 $569 -73.418173461077146 $491 -70.292363744941255 $488 $570 forward 7 unknown #
edge $-1 $569 -111.63914914395581 $492 -107.55869439958643 $404 $571 forward 7 unknown #
vertex $-1 $489 $572 #
vertex $-1 $407 $573 #
straight-curve $-1 34.789932305087248 -13.242872113794336 13.570274278528302 -1 0 0 I I #
straight-curve $-1 53.196708860707695 -4.5425327465029959 13.570274278528295 0 1 0 I I #
edge $-1 $409 0.3847261257146517 $569 8.7003393672913401 $411 $574 forward 7 unknown #
point $-1 55.81957457197791 -4.9272588722176476 10.444464562392412 #
coedge $-1 $412 $575 $576 $577 reversed $413 $-1 #
face $-1 $-1 $413 $18 $-1 $578 reversed single #
coedge $-1 $579 $415 $580 $581 forward $323 $-1 #
coedge $-1 $576 $582 $415 $501 reversed $583 $-1 #
edge $-1 $502 -55.819574571977903 $584 55.819574571977903 $500 $585 forward 7 unknown #
vertex $-1 $416 $586 #
straight-curve $-1 55.819574571977903 0 13.570274278528306 0 1 0 I I #
face $-1 $587 $588 $19 $-1 $589 forward single #
loop $-1 $-1 $590 $420 #
plane-surface $-1 0 0 13.570274278528306 0 0 1 1 0 0 forward_v I I I I #
coedge $-1 $591 $592 $590 $593 reversed $421 $-1 #
coedge $-1 $432 $594 $423 $509 reversed $347 $-1 #
edge $-1 $514 107.55869439958643 $595 111.63914914395581 $423 $596 forward 7 unknown #
coedge $-1 $597 $598 $424 $511 forward $599 $-1 #
edge $-1 $515 70.292363744941255 $595 73.418173461077146 $510 $600 forward 7 unknown #
coedge $-1 $601 $425 $598 $602 forward $505 $-1 #
coedge $-1 $425 $590 $432 $520 forward $505 $-1 #
vertex $-1 $520 $603 #
vertex $-1 $602 $604 #
straight-curve $-1 34.789932305087248 -4.9272588722176476 13.570274278528302 1 0 0 I I #
vertex $-1 $427 $605 #
point $-1 52.852001091751958 -10.866982616201 9.3122951943605159 #
coedge $-1 $594 $432 $592 $606 reversed $347 $-1 #
edge $-1 $607 -8.7003393672913401 $514 -0.3847261257146517 $513 $608 forward 7 unknown #
coedge $-1 $436 $443 $435 $522 reversed $433 $-1 #
edge $-1 $439 -13.570274278528306 $448 13.570274278528306 $521 $609 forward 7 unknown #
straight-curve $-1 55.819574571977903 0 13.570274278528306 0 1 0 I I #
point $-1 55.819574571977903 27.22479778632794 13.570274278528306 #
straight-curve $-1 -55.819574571977903 27.22479778632794 0 0 0 -1 I I #
straight-curve $-1 55.819574571977903 0 -13.570274278528306 0 -1 0 I I #
point $-1 55.819574571977903 27.22479778632794 -13.570274278528306 #
plane-surface $-1 -55.819574571977903 0 0 1 0 0 0 0 -1 forward_v I I I I #
coedge $-1 $543 $454 $547 $610 reversed $373 $-1 #
edge $-1 $462 3.1259546387637673 $533 17.107880311297372 $465 $611 forward 7 unknown #
coedge $-1 $460 $547 $456 $532 forward $452 $-1 #
edge $-1 $534 -17.107880311297372 $463 -3.1259546387637673 $531 $612 forward 7 unknown #
vertex $-1 $467 $613 #
vertex $-1 $457 $614 #
straight-curve $-1 -52.819574571977903 -27.22479778632794 0 0 0 -1 I I #
edge $-1 $539 -13.570274278528306 $478 13.570274278528306 $476 $615 forward 7 unknown #
straight-curve $-1 -27.159787285988951 -13.242872113794336 13.570274278528306 1 0 0 I I #
coedge $-1 $548 $460 $553 $616 forward $452 $-1 #
vertex $-1 $616 $617 #
straight-curve $-1 -27.159787285988951 -13.242872113794336 -13.570274278528306 -1 0 0 I I #
point $-1 -52.819574571977903 -13.242872113794336 13.570274278528306 #
point $-1 -52.819574571977903 -13.242872113794336 -13.570274278528306 #
coedge $-1 $466 $529 $468 $545 reversed $373 $-1 #
straight-curve $-1 0 -27.22479778632794 13.570274278528306 1 0 0 I I #
edge $-1 $469 -13.570274278528306 $549 13.570274278528306 $468 $618 forward 7 unknown #
point $-1 55.819574571977903 -27.22479778632794 13.570274278528306 #
coedge $-1 $531 $470 $529 $610 forward $452 $-1 #
coedge $-1 $470 $538 $472 $551 forward $452 $-1 #
vertex $-1 $545 $619 #
straight-curve $-1 55.819574571977903 0 -13.570274278528306 0 -1 0 I I #
edge $-1 $555 -55.819574571977903 $473 55.819574571977903 $472 $620 forward 7 unknown #
point $-1 55.819574571977903 27.22479778632794 -13.570274278528306 #
coedge $-1 $476 $475 $538 $616 reversed $477 $-1 #
point $-1 -55.819574571977903 -13.242872113794336 13.570274278528306 #
vertex $-1 $551 $621 #
straight-curve $-1 -55.819574571977903 27.22479778632794 0 0 0 -1 I I #
plane-surface $-1 0 27.22479778632794 0 0 -1 0 0 0 -1 forward_v I I I I #
face $-1 $622 $623 $18 $-1 $624 reversed single #
loop $-1 $-1 $625 $483 #
plane-surface $-1 0 -27.22479778632794 0 0 1 0 0 0 1 forward_v I I I I #
coedge $-1 $626 $627 $625 $628 reversed $484 $-1 #
coedge $-1 $629 $486 $579 $630 reversed $400 $-1 #
coedge $-1 $486 $629 $631 $632 reversed $400 $-1 #
coedge $-1 $627 $626 $486 $565 forward $484 $-1 #
edge $-1 $633 -13.570274278528306 $634 13.570274278528306 $564 $635 forward 7 unknown #
coedge $-1 $487 $636 $637 $638 forward $323 $-1 #
coedge $-1 $639 $488 $487 $568 reversed $413 $-1 #
edge $-1 $640 -27.22479778632794 $491 -13.242872113794336 $567 $503 forward 7 unknown #
vertex $-1 $495 $641 #
straight-curve $-1 55.819574571977903 -13.242872113794336 83.862638023469557 0 0 1 I I #
straight-curve $-1 -15.940686151197156 -13.242872113794336 95.96501532376405 -0.64278759981090561 0 0.7660444514056185 I I #
point $-1 55.819574571977903 -13.242872113794336 13.570274278528306 #
point $-1 53.196708860707687 -13.242872113794336 13.570274278528302 #
straight-curve $-1 55.819574571977903 -4.5425327465029959 10.444464562392405 0 -1 0 I I #
coedge $-1 $497 $639 $642 $643 reversed $413 $-1 #
coedge $-1 $644 $500 $497 $577 forward $583 $-1 #
edge $-1 $502 -13.570274278528306 $645 13.570274278528306 $497 $646 forward 7 unknown #
plane-surface $-1 55.819574571977903 0 0 -1 0 0 0 0 1 forward_v I I I I #
coedge $-1 $636 $499 $562 $630 forward $323 $-1 #
coedge $-1 $647 $648 $499 $581 reversed $649 $-1 #
edge $-1 $584 -27.22479778632794 $650 13.242872113794336 $580 $651 forward 7 unknown #
coedge $-1 $500 $644 $647 $652 reversed $583 $-1 #
loop $-1 $-1 $576 $653 #
vertex $-1 $501 $654 #
straight-curve $-1 0 27.22479778632794 13.570274278528306 -1 0 0 I I #
point $-1 55.819574571977903 27.22479778632794 13.570274278528306 #
face $-1 $655 $656 $19 $-1 $657 forward single #
loop $-1 $-1 $658 $504 #
plane-surface $-1 -54.319574571977903 -13.242872113794336 0 0 -1 0 0 0 -1 forward_v I I I I #
coedge $-1 $513 $659 $507 $593 forward $505 $-1 #
coedge $-1 $592 $507 $660 $661 reversed $421 $-1 #
coedge $-1 $507 $591 $519 $606 forward $421 $-1 #
edge $-1 $662 -21.029642266890654 $607 -18.406776555620439 $590 $663 forward 7 unknown #
coedge $-1 $508 $519 $597 $664 reversed $347 $-1 #
vertex $-1 $664 $665 #
straight-curve $-1 -15.940686151197156 -4.9272588722176476 95.96501532376405 0.64278759981090561 0 -0.7660444514056185 I I #
coedge $-1 $660 $510 $594 $664 forward $599 $-1 #
coedge $-1 $510 $666 $512 $602 reversed $599 $-1 #
loop $-1 $-1 $660 $667 #
straight-curve $-1 55.819574571977903 -4.9272588722176476 83.862638023469557 0 0 -1 I I #
coedge $-1 $668 $512 $669 $670 forward $505 $-1 #
edge $-1 $515 -4.9272588722176476 $671 27.22479778632794 $598 $672 forward 7 unknown #
point $-1 53.196708860707687 -4.9272588722176476 13.570274278528302 #
point $-1 55.819574571977903 -4.9272588722176476 13.570274278528306 #
point $-1 51.443169040535437 -10.866982616201 9.4355520459552285 #
edge $-1 $673 -111.63914914395581 $607 -107.55869439958643 $592 $674 forward 7 unknown #
vertex $-1 $520 $675 #
straight-curve $-1 53.196708860707695 -4.5425327465029959 13.570274278528295 0 1 0 I I #
straight-curve $-1 55.819574571977903 27.22479778632794 0 0 0 -1 I I #
edge $-1 $549 -55.819574571977903 $534 52.819574571977903 $529 $676 forward 7 unknown #
straight-curve $-1 -52.819574571977903 -10.116917475030569 13.570274278528306 0 -1 0 I I #
straight-curve $-1 -52.819574571977903 -10.116917475030569 -13.570274278528306 0 1 0 I I #
point $-1 -52.819574571977903 -27.22479778632794 13.570274278528306 #
point $-1 -52.819574571977903 -27.22479778632794 -13.570274278528306 #
straight-curve $-1 -55.819574571977903 -13.242872113794336 0 0 0 1 I I #
edge $-1 $539 -13.242872113794336 $555 27.22479778632794 $553 $677 forward 7 unknown #
point $-1 -55.819574571977903 -13.242872113794336 -13.570274278528306 #
straight-curve $-1 55.819574571977903 -27.22479778632794 0 0 0 -1 I I #
point $-1 55.819574571977903 -27.22479778632794 -13.570274278528306 #
straight-curve $-1 0 27.22479778632794 -13.570274278528306 1 0 0 I I #
point $-1 -55.819574571977903 27.22479778632794 -13.570274278528306 #
face $-1 $653 $649 $18 $-1 $678 reversed single #
loop $-1 $-1 $631 $558 #
plane-surface $-1 0 0 -13.570274278528306 0 0 1 1 0 0 forward_v I I I I #
coedge $-1 $679 $637 $561 $628 forward $559 $-1 #
coedge $-1 $564 $561 $636 $680 reversed $484 $-1 #
coedge $-1 $561 $564 $681 $682 reversed $484 $-1 #
edge $-1 $683 -13.570274278528306 $684 13.570274278528306 $625 $685 forward 7 unknown #
coedge $-1 $563 $562 $648 $686 reversed $400 $-1 #
edge $-1 $650 -28.659787285988951 $633 -25.659787285988951 $579 $687 forward 7 unknown #
coedge $-1 $688 $681 $563 $632 forward $623 $-1 #
edge $-1 $634 25.659787285988951 $689 28.659787285988951 $631 $690 forward 7 unknown #
vertex $-1 $630 $691 #
vertex $-1 $632 $692 #
straight-curve $-1 -52.819574571977903 -13.242872113794336 0 0 0 -1 I I #
coedge $-1 $566 $579 $626 $680 forward $323 $-1 #
coedge $-1 $625 $693 $566 $638 reversed $559 $-1 #
edge $-1 $683 -52.819574571977903 $640 55.819574571977903 $637 $694 forward 7 unknown #
coedge $-1 $575 $567 $693 $695 forward $413 $-1 #
vertex $-1 $568 $696 #
point $-1 55.81957457197791 -13.242872113794336 10.444464562392412 #
coedge $-1 $697 $698 $575 $643 forward $623 $-1 #
edge $-1 $645 -27.22479778632794 $699 27.22479778632794 $575 $700 forward 7 unknown #
coedge $-1 $582 $576 $698 $701 reversed $583 $-1 #
vertex $-1 $643 $702 #
straight-curve $-1 55.819574571977903 27.22479778632794 0 0 0 -1 I I #
coedge $-1 $703 $580 $582 $652 forward $649 $-1 #
coedge $-1 $580 $703 $629 $686 forward $649 $-1 #
loop $-1 $-1 $648 $622 #
vertex $-1 $686 $704 #
straight-curve $-1 -55.819574571977903 0 13.570274278528306 0 -1 0 I I #
edge $-1 $584 -13.570274278528306 $705 13.570274278528306 $582 $706 forward 7 unknown #
face $-1 $498 $583 $18 $-1 $707 reversed single #
point $-1 -55.819574571977903 27.22479778632794 13.570274278528306 #
face $-1 $708 $709 $19 $-1 $710 reversed single #
loop $-1 $-1 $711 $587 #
plane-surface $-1 -52.819574571977903 -20.233834950061137 0 -1 0 0 0 0 1 forward_v I I I I #
coedge $-1 $712 $713 $714 $715 reversed $588 $-1 #
coedge $-1 $590 $716 $717 $718 forward $505 $-1 #
coedge $-1 $717 $597 $591 $661 forward $599 $-1 #
edge $-1 $673 -73.418173461077146 $662 -70.292363744941255 $660 $719 forward 7 unknown #
vertex $-1 $661 $720 #
straight-curve $-1 34.789932305087248 -13.242872113794336 13.570274278528302 -1 0 0 I I #
edge $-1 $595 0.3847261257146517 $673 8.7003393672913401 $597 $721 forward 7 unknown #
point $-1 55.81957457197791 -4.9272588722176476 10.444464562392412 #
coedge $-1 $598 $722 $723 $724 reversed $599 $-1 #
face $-1 $-1 $599 $19 $-1 $725 reversed single #
coedge $-1 $726 $601 $727 $728 forward $505 $-1 #
coedge $-1 $723 $729 $601 $670 reversed $730 $-1 #
edge $-1 $671 -55.819574571977903 $731 55.819574571977903 $669 $732 forward 7 unknown #
vertex $-1 $602 $733 #
straight-curve $-1 55.819574571977903 0 13.570274278528306 0 1 0 I I #
vertex $-1 $664 $734 #
straight-curve $-1 -15.940686151197156 -13.242872113794336 95.96501532376405 -0.64278759981090561 0 0.7660444514056185 I I #
point $-1 53.196708860707687 -13.242872113794336 13.570274278528302 #
straight-curve $-1 0 -27.22479778632794 -13.570274278528306 -1 0 0 I I #
straight-curve $-1 -55.819574571977903 0 -13.570274278528306 0 1 0 I I #
plane-surface $-1 -55.819574571977903 0 0 1 0 0 0 0 -1 forward_v I I I I #
coedge $-1 $693 $625 $697 $735 reversed $559 $-1 #
edge $-1 $633 3.1259546387637673 $683 17.107880311297372 $636 $736 forward 7 unknown #
coedge $-1 $631 $697 $627 $682 forward $623 $-1 #
edge $-1 $684 -17.107880311297372 $634 -3.1259546387637673 $681 $737 forward 7 unknown #
vertex $-1 $638 $738 #
vertex $-1 $628 $739 #
straight-curve $-1 -52.819574571977903 -27.22479778632794 0 0 0 -1 I I #
edge $-1 $689 -13.570274278528306 $650 13.570274278528306 $648 $740 forward 7 unknown #
straight-curve $-1 -27.159787285988951 -13.242872113794336 13.570274278528306 1 0 0 I I #
coedge $-1 $698 $631 $703 $741 forward $623 $-1 #
vertex $-1 $741 $742 #
straight-curve $-1 -27.159787285988951 -13.242872113794336 -13.570274278528306 -1 0 0 I I #
point $-1 -52.819574571977903 -13.242872113794336 13.570274278528306 #
point $-1 -52.819574571977903 -13.242872113794336 -13.570274278528306 #
coedge $-1 $637 $679 $639 $695 reversed $559 $-1 #
straight-curve $-1 0 -27.22479778632794 13.570274278528306 1 0 0 I I #
edge $-1 $640 -13.570274278528306 $699 13.570274278528306 $639 $743 forward 7 unknown #
point $-1 55.819574571977903 -27.22479778632794 13.570274278528306 #
coedge $-1 $681 $642 $679 $735 forward $623 $-1 #
coedge $-1 $642 $688 $644 $701 forward $623 $-1 #
vertex $-1 $695 $744 #
straight-curve $-1 55.819574571977903 0 -13.570274278528306 0 -1 0 I I #
edge $-1 $705 -55.819574571977903 $645 55.819574571977903 $644 $745 forward 7 unknown #
point $-1 55.819574571977903 27.22479778632794 -13.570274278528306 #
coedge $-1 $648 $647 $688 $741 reversed $649 $-1 #
point $-1 -55.819574571977903 -13.242872113794336 13.570274278528306 #
vertex $-1 $701 $746 #
straight-curve $-1 -55.819574571977903 27.22479778632794 0 0 0 -1 I I #
plane-surface $-1 0 27.22479778632794 0 0 -1 0 0 0 -1 forward_v I I I I #
face $-1 $747 $748 $19 $-1 $749 reversed single #
loop $-1 $-1 $750 $655 #
plane-surface $-1 0 -27.22479778632794 0 0 1 0 0 0 1 forward_v I I I I #
coedge $-1 $751 $752 $750 $753 reversed $656 $-1 #
coedge $-1 $754 $658 $726 $755 reversed $588 $-1 #
coedge $-1 $658 $754 $756 $757 reversed $588 $-1 #
coedge $-1 $752 $751 $658 $715 forward $656 $-1 #
edge $-1 $758 -13.570274278528306 $759 13.570274278528306 $714 $760 forward 7 unknown #
coedge $-1 $659 $761 $762 $763 forward $505 $-1 #
coedge $-1 $764 $660 $659 $718 reversed $599 $-1 #
edge $-1 $765 -27.22479778632794 $662 -13.242872113794336 $717 $672 forward 7 unknown #
straight-curve $-1 55.819574571977903 -13.242872113794336 83.862638023469557 0 0 1 I I #
point $-1 55.819574571977903 -13.242872113794336 13.570274278528306 #
straight-curve $-1 55.819574571977903 -4.5425327465029959 10.444464562392405 0 -1 0 I I #
coedge $-1 $666 $764 $766 $767 reversed $599 $-1 #
coedge $-1 $768 $669 $666 $724 forward $730 $-1 #
edge $-1 $671 -13.570274278528306 $769 13.570274278528306 $666 $770 forward 7 unknown #
plane-surface $-1 55.819574571977903 0 0 -1 0 0 0 0 1 forward_v I I I I #
coedge $-1 $761 $668 $712 $755 forward $505 $-1 #
coedge $-1 $771 $772 $668 $728 reversed $773 $-1 #
edge $-1 $731 -27.22479778632794 $774 13.242872113794336 $727 $775 forward 7 unknown #
coedge $-1 $669 $768 $771 $776 reversed $730 $-1 #
loop $-1 $-1 $723 $777 #
vertex $-1 $670 $778 #
straight-curve $-1 0 27.22479778632794 13.570274278528306 -1 0 0 I I #
point $-1 55.819574571977903 27.22479778632794 13.570274278528306 #
point $-1 55.81957457197791 -13.242872113794336 10.444464562392412 #
edge $-1 $699 -55.819574571977903 $684 52.819574571977903 $679 $779 forward 7 unknown #
straight-curve $-1 -52.819574571977903 -10.116917475030569 13.570274278528306 0 -1 0 I I #
straight-curve $-1 -52.819574571977903 -10.116917475030569 -13.570274278528306 0 1 0 I I #
point $-1 -52.819574571977903 -27.22479778632794 13.570274278528306 #
point $-1 -52.819574571977903 -27.22479778632794 -13.570274278528306 #
straight-curve $-1 -55.819574571977903 -13.242872113794336 0 0 0 1 I I #
edge $-1 $689 -13.242872113794336 $705 27.22479778632794 $703 $780 forward 7 unknown #
point $-1 -55.819574571977903 -13.242872113794336 -13.570274278528306 #
straight-curve $-1 55.819574571977903 -27.22479778632794 0 0 0 -1 I I #
point $-1 55.819574571977903 -27.22479778632794 -13.570274278528306 #
straight-curve $-1 0 27.22479778632794 -13.570274278528306 1 0 0 I I #
point $-1 -55.819574571977903 27.22479778632794 -13.570274278528306 #
face $-1 $777 $773 $19 $-1 $781 reversed single #
loop $-1 $-1 $756 $708 #
plane-surface $-1 0 0 -13.570274278528306 0 0 1 1 0 0 forward_v I I I I #
coedge $-1 $782 $762 $711 $753 forward $709 $-1 #
coedge $-1 $714 $711 $761 $783 reversed $656 $-1 #
coedge $-1 $711 $714 $784 $785 reversed $656 $-1 #
edge $-1 $786 -13.570274278528306 $787 13.570274278528306 $750 $788 forward 7 unknown #
coedge $-1 $713 $712 $772 $789 reversed $588 $-1 #
edge $-1 $774 -28.659787285988951 $758 -25.659787285988951 $726 $790 forward 7 unknown #
coedge $-1 $791 $784 $713 $757 forward $748 $-1 #
edge $-1 $759 25.659787285988951 $792 28.659787285988951 $756 $793 forward 7 unknown #
vertex $-1 $755 $794 #
vertex $-1 $757 $795 #
straight-curve $-1 -52.819574571977903 -13.242872113794336 0 0 0 -1 I I #
coedge $-1 $716 $726 $751 $783 forward $505 $-1 #
coedge $-1 $750 $796 $716 $763 reversed $709 $-1 #
edge $-1 $786 -52.819574571977903 $765 55.819574571977903 $762 $797 forward 7 unknown #
coedge $-1 $722 $717 $796 $798 forward $599 $-1 #
vertex $-1 $718 $799 #
coedge $-1 $800 $801 $722 $767 forward $748 $-1 #
edge $-1 $769 -27.22479778632794 $802 27.22479778632794 $722 $803 forward 7 unknown #
coedge $-1 $729 $723 $801 $804 reversed $730 $-1 #
vertex $-1 $767 $805 #
straight-curve $-1 55.819574571977903 27.22479778632794 0 0 0 -1 I I #
coedge $-1 $806 $727 $729 $776 forward $773 $-1 #
coedge $-1 $727 $806 $754 $789 forward $773 $-1 #
loop $-1 $-1 $772 $747 #
vertex $-1 $789 $807 #
straight-curve $-1 -55.819574571977903 0 13.570274278528306 0 -1 0 I I #
edge $-1 $731 -13.570274278528306 $808 13.570274278528306 $729 $809 forward 7 unknown #
face $-1 $667 $730 $19 $-1 $810 reversed single #
point $-1 -55.819574571977903 27.22479778632794 13.570274278528306 #
straight-curve $-1 0 -27.22479778632794 -13.570274278528306 -1 0 0 I I #
straight-curve $-1 -55.819574571977903 0 -13.570274278528306 0 1 0 I I #
plane-surface $-1 -55.819574571977903 0 0 1 0 0 0 0 -1 forward_v I I I I #
coedge $-1 $796 $750 $800 $811 reversed $709 $-1 #
edge $-1 $758 3.1259546387637673 $786 17.107880311297372 $761 $812 forward 7 unknown #
coedge $-1 $756 $800 $752 $785 forward $748 $-1 #
edge $-1 $787 -17.107880311297372 $759 -3.1259546387637673 $784 $813 forward 7 unknown #
vertex $-1 $763 $814 #
vertex $-1 $753 $815 #
straight-curve $-1 -52.819574571977903 -27.22479778632794 0 0 0 -1 I I #
edge $-1 $792 -13.570274278528306 $774 13.570274278528306 $772 $816 forward 7 unknown #
straight-curve $-1 -27.159787285988951 -13.242872113794336 13.570274278528306 1 0 0 I I #
coedge $-1 $801 $756 $806 $817 forward $748 $-1 #
vertex $-1 $817 $818 #
straight-curve $-1 -27.159787285988951 -13.242872113794336 -13.570274278528306 -1 0 0 I I #
point $-1 -52.819574571977903 -13.242872113794336 13.570274278528306 #
point $-1 -52.819574571977903 -13.242872113794336 -13.570274278528306 #
coedge $-1 $762 $782 $764 $798 reversed $709 $-1 #
straight-curve $-1 0 -27.22479778632794 13.570274278528306 1 0 0 I I #
edge $-1 $765 -13.570274278528306 $802 13.570274278528306 $764 $819 forward 7 unknown #
point $-1 55.819574571977903 -27.22479778632794 13.570274278528306 #
coedge $-1 $784 $766 $782 $811 forward $748 $-1 #
coedge $-1 $766 $791 $768 $804 forward $748 $-1 #
vertex $-1 $798 $820 #
straight-curve $-1 55.819574571977903 0 -13.570274278528306 0 -1 0 I I #
edge $-1 $808 -55.819574571977903 $769 55.819574571977903 $768 $821 forward 7 unknown #
point $-1 55.819574571977903 27.22479778632794 -13.570274278528306 #
coedge $-1 $772 $771 $791 $817 reversed $773 $-1 #
point $-1 -55.819574571977903 -13.242872113794336 13.570274278528306 #
vertex $-1 $804 $822 #
straight-curve $-1 -55.819574571977903 27.22479778632794 0 0 0 -1 I I #
plane-surface $-1 0 27.22479778632794 0 0 -1 0 0 0 -1 forward_v I I I I #
edge $-1 $802 -55.819574571977903 $787 52.819574571977903 $782 $823 forward 7 unknown #
straight-curve $-1 -52.819574571977903 -10.116917475030569 13.570274278528306 0 -1 0 I I #
straight-curve $-1 -52.819574571977903 -10.116917475030569 -13.570274278528306 0 1 0 I I #
point $-1 -52.819574571977903 -27.22479778632794 13.570274278528306 #
point $-1 -52.819574571977903 -27.22479778632794 -13.570274278528306 #
straight-curve $-1 -55.819574571977903 -13.242872113794336 0 0 0 1 I I #
edge $-1 $792 -13.242872113794336 $808 27.22479778632794 $806 $824 forward 7 unknown #
point $-1 -55.819574571977903 -13.242872113794336 -13.570274278528306 #
straight-curve $-1 55.819574571977903 -27.22479778632794 0 0 0 -1 I I #
point $-1 55.819574571977903 -27.22479778632794 -13.570274278528306 #
straight-curve $-1 0 27.22479778632794 -13.570274278528306 1 0 0 I I #
point $-1 -55.819574571977903 27.22479778632794 -13.570274278528306 #
straight-curve $-1 0 -27.22479778632794 -13.570274278528306 -1 0 0 I I #
straight-curve $-1 -55.819574571977903 0 -13.570274278528306 0 1 0 I I #
End-of-ACIS-data 