500 0 17 0           
7 Unknown 11 ACIS 5.0 NT 24 Fri Mar 26 16:07:32 1999 
-1 9.9999999999999995e-007 1e-010 
body $-1 $17 $-1 $18 #
body $-1 $19 $-1 $20 #
body $-1 $21 $-1 $22 #
body $-1 $23 $-1 $24 #
body $-1 $25 $-1 $26 #
body $-1 $27 $-1 $28 #
body $-1 $29 $-1 $30 #
body $-1 $31 $-1 $32 #
body $-1 $33 $-1 $34 #
body $-1 $35 $-1 $36 #
body $-1 $37 $-1 $38 #
body $-1 $39 $-1 $40 #
body $-1 $41 $-1 $42 #
body $-1 $43 $-1 $44 #
body $-1 $45 $-1 $46 #
body $-1 $47 $-1 $48 #
body $-1 $49 $-1 $50 #
lump $-1 $-1 $51 $0 #
transform $-1 1 0 0 0 1 0 0 0 1 64.890896328623313 35.291640864390928 8.9902296657966101 1 rotate no_reflect no_shear #
lump $-1 $-1 $52 $1 #
transform $-1 1 0 0 0 1 0 0 0 1 64.890896328623313 35.291640864390928 8.9902296657966101 1 rotate no_reflect no_shear #
lump $-1 $-1 $53 $2 #
transform $-1 1 0 0 0 1 0 0 0 1 64.890896328623313 35.291640864390928 8.9902296657966101 1 rotate no_reflect no_shear #
lump $-1 $-1 $54 $3 #
transform $-1 1 0 0 0 1 0 0 0 1 64.890896328623313 35.291640864390928 8.9902296657966101 1 rotate no_reflect no_shear #
lump $-1 $-1 $55 $4 #
transform $-1 1 0 0 0 1 0 0 0 1 64.890896328623313 35.291640864390928 8.9902296657966101 1 rotate no_reflect no_shear #
lump $-1 $-1 $56 $5 #
transform $-1 1 0 0 0 1 0 0 0 1 64.890896328623313 35.291640864390928 8.9902296657966101 1 rotate no_reflect no_shear #
lump $-1 $-1 $57 $6 #
transform $-1 1 0 0 0 1 0 0 0 1 64.890896328623313 35.291640864390928 8.9902296657966101 1 rotate no_reflect no_shear #
lump $-1 $-1 $58 $7 #
transform $-1 1 0 0 0 1 0 0 0 1 64.890896328623313 35.291640864390928 8.9902296657966101 1 rotate no_reflect no_shear #
lump $-1 $-1 $59 $8 #
transform $-1 1 0 0 0 1 0 0 0 1 64.890896328623313 35.291640864390928 8.9902296657966101 1 rotate no_reflect no_shear #
lump $-1 $-1 $60 $9 #
transform $-1 1 0 0 0 1 0 0 0 1 64.890896328623313 35.291640864390928 8.9902296657966101 1 rotate no_reflect no_shear #
lump $-1 $-1 $61 $10 #
transform $-1 1 0 0 0 1 0 0 0 1 64.890896328623313 35.291640864390928 8.9902296657966101 1 rotate no_reflect no_shear #
lump $-1 $-1 $62 $11 #
transform $-1 1 0 0 0 1 0 0 0 1 64.890896328623313 35.291640864390928 8.9902296657966101 1 rotate no_reflect no_shear #
lump $-1 $-1 $63 $12 #
transform $-1 1 0 0 0 1 0 0 0 1 64.890896328623313 35.291640864390928 8.9902296657966101 1 rotate no_reflect no_shear #
lump $-1 $-1 $64 $13 #
transform $-1 1 0 0 0 1 0 0 0 1 64.890896328623313 35.291640864390928 8.9902296657966101 1 rotate no_reflect no_shear #
lump $-1 $-1 $65 $14 #
transform $-1 1 0 0 0 1 0 0 0 1 64.890896328623313 35.291640864390928 8.9902296657966101 1 rotate no_reflect no_shear #
lump $-1 $-1 $66 $15 #
transform $-1 1 0 0 0 1 0 0 0 1 64.890896328623313 35.291640864390928 8.9902296657966101 1 rotate no_reflect no_shear #
lump $-1 $-1 $67 $16 #
transform $-1 1 0 0 0 1 0 0 0 1 64.890896328623313 35.291640864390928 8.9902296657966101 1 rotate no_reflect no_shear #
shell $-1 $-1 $-1 $68 $-1 $17 #
shell $-1 $-1 $-1 $69 $-1 $19 #
shell $-1 $-1 $-1 $70 $-1 $21 #
shell $-1 $-1 $-1 $71 $-1 $23 #
shell $-1 $-1 $-1 $72 $-1 $25 #
shell $-1 $-1 $-1 $73 $-1 $27 #
shell $-1 $-1 $-1 $74 $-1 $29 #
shell $-1 $-1 $-1 $75 $-1 $31 #
shell $-1 $-1 $-1 $76 $-1 $33 #
shell $-1 $-1 $-1 $77 $-1 $35 #
shell $-1 $-1 $-1 $78 $-1 $37 #
shell $-1 $-1 $-1 $79 $-1 $39 #
shell $-1 $-1 $-1 $80 $-1 $41 #
shell $-1 $-1 $-1 $81 $-1 $43 #
shell $-1 $-1 $-1 $82 $-1 $45 #
shell $-1 $-1 $-1 $83 $-1 $47 #
shell $-1 $-1 $-1 $84 $-1 $49 #
face $-1 $85 $86 $51 $-1 $87 forward single #
face $-1 $88 $89 $52 $-1 $90 reversed single #
face $-1 $91 $92 $53 $-1 $93 forward single #
face $-1 $94 $95 $54 $-1 $96 forward single #
face $-1 $97 $98 $55 $-1 $99 forward single #
face $-1 $100 $101 $56 $-1 $102 reversed single #
face $-1 $103 $104 $57 $-1 $105 forward single #
face $-1 $106 $107 $58 $-1 $108 forward single #
face $-1 $109 $110 $59 $-1 $111 forward single #
face $-1 $112 $113 $60 $-1 $114 reversed single #
face $-1 $115 $116 $61 $-1 $117 forward single #
face $-1 $118 $119 $62 $-1 $120 forward single #
face $-1 $121 $122 $63 $-1 $123 forward single #
face $-1 $124 $125 $64 $-1 $126 reversed single #
face $-1 $127 $128 $65 $-1 $129 forward single #
face $-1 $130 $131 $66 $-1 $132 forward single #
face $-1 $133 $134 $67 $-1 $135 forward single #
face $-1 $136 $137 $51 $-1 $138 reversed single #
loop $-1 $-1 $139 $68 #
plane-surface $-1 0 0 8.9902296657966101 0 0 1 1 0 0 forward_v I I I I #
face $-1 $140 $141 $52 $-1 $142 reversed single #
loop $-1 $-1 $143 $69 #
plane-surface $-1 -50.878665074068707 54.472391526726625 151.66147973702226 -1 0 0 0 0.5877852598018023 0.80901698891910034 forward_v I I I I #
face $-1 $144 $145 $53 $-1 $146 forward single #
loop $-1 $147 $148 $70 #
cone-surface $-1 -62.088450077712395 31.712061173083551 5.7682453481750677 0 -0.5877852598018023 -0.80901698891910034 1 0 0 1 I I 0 1 1 forward I I I I #
face $-1 $149 $150 $54 $-1 $151 forward single #
loop $-1 $152 $153 $71 #
cone-surface $-1 -57.88478070134601 31.712061173083551 5.7682453481750677 0 -0.5877852598018023 -0.80901698891910034 1 0 0 1 I I 0 1 1 forward I I I I #
face $-1 $154 $155 $55 $-1 $156 forward single #
loop $-1 $157 $158 $72 #
cone-surface $-1 -53.681111324979632 31.712061173083551 5.7682453481750677 0 -0.5877852598018023 -0.80901698891910034 1 0 0 1 I I 0 1 1 forward I I I I #
face $-1 $159 $160 $56 $-1 $161 reversed single #
loop $-1 $-1 $162 $73 #
plane-surface $-1 -12.288811273171371 54.472391526726625 151.66147973702226 -1 0 0 0 0.5877852598018023 0.80901698891910034 forward_v I I I I #
face $-1 $163 $164 $57 $-1 $165 forward single #
loop $-1 $166 $167 $74 #
cone-surface $-1 -23.498596276815057 31.712061173083551 5.7682453481750677 0 -0.5877852598018023 -0.80901698891910034 1 0 0 1 I I 0 1 1 forward I I I I #
face $-1 $168 $169 $58 $-1 $170 forward single #
loop $-1 $171 $172 $75 #
cone-surface $-1 -19.294926900448672 31.712061173083551 5.7682453481750677 0 -0.5877852598018023 -0.80901698891910034 1 0 0 1 I I 0 1 1 forward I I I I #
face $-1 $173 $174 $59 $-1 $175 forward single #
loop $-1 $176 $177 $76 #
cone-surface $-1 -15.091257524082295 31.712061173083551 5.7682453481750677 0 -0.5877852598018023 -0.80901698891910034 1 0 0 1 I I 0 1 1 forward I I I I #
face $-1 $178 $179 $60 $-1 $180 reversed single #
loop $-1 $-1 $181 $77 #
plane-surface $-1 26.301042527725976 54.472391526726625 151.66147973702226 -1 0 0 0 0.5877852598018023 0.80901698891910034 forward_v I I I I #
face $-1 $182 $183 $61 $-1 $184 forward single #
loop $-1 $185 $186 $78 #
cone-surface $-1 15.09125752408228 31.712061173083551 5.7682453481750677 0 -0.5877852598018023 -0.80901698891910034 1 0 0 1 I I 0 1 1 forward I I I I #
face $-1 $187 $188 $62 $-1 $189 forward single #
loop $-1 $190 $191 $79 #
cone-surface $-1 19.294926900448672 31.712061173083551 5.7682453481750677 0 -0.5877852598018023 -0.80901698891910034 1 0 0 1 I I 0 1 1 forward I I I I #
face $-1 $192 $193 $63 $-1 $194 forward single #
loop $-1 $195 $196 $80 #
cone-surface $-1 23.49859627681505 31.712061173083551 5.7682453481750677 0 -0.5877852598018023 -0.80901698891910034 1 0 0 1 I I 0 1 1 forward I I I I #
face $-1 $197 $198 $64 $-1 $199 reversed single #
loop $-1 $-1 $200 $81 #
plane-surface $-1 57.884780701346017 -21.811433187856721 46.665804624933585 0 0.5877852598018023 0.80901698891910034 1 0 0 forward_v I I I I #
face $-1 $201 $202 $65 $-1 $203 forward single #
loop $-1 $204 $205 $82 #
cone-surface $-1 53.681111324979611 31.712061173083551 5.7682453481750677 0 -0.5877852598018023 -0.80901698891910034 1 0 0 1 I I 0 1 1 forward I I I I #
face $-1 $206 $207 $66 $-1 $208 forward single #
loop $-1 $209 $210 $83 #
cone-surface $-1 57.884780701346017 31.712061173083551 5.7682453481750677 0 -0.5877852598018023 -0.80901698891910034 1 0 0 1 I I 0 1 1 forward I I I I #
face $-1 $211 $212 $67 $-1 $213 forward single #
loop $-1 $214 $215 $84 #
cone-surface $-1 62.088450077712395 31.712061173083551 5.7682453481750677 0 -0.5877852598018023 -0.80901698891910034 1 0 0 1 I I 0 1 1 forward I I I I #
face $-1 $216 $217 $51 $-1 $218 reversed single #
loop $-1 $-1 $219 $85 #
plane-surface $-1 0 0 -8.9902296657966101 0 0 1 1 0 0 forward_v I I I I #
coedge $-1 $220 $221 $222 $223 forward $86 $-1 #
face $-1 $224 $225 $52 $-1 $226 reversed single #
loop $-1 $-1 $227 $88 #
plane-surface $-1 -57.88478070134601 -21.811433187856721 46.665804624933585 0 0.5877852598018023 0.80901698891910034 1 0 0 forward_v I I I I #
coedge $-1 $228 $229 $230 $231 reversed $89 $-1 #
face $-1 $-1 $232 $53 $-1 $233 forward single #
loop $-1 $234 $235 $91 #
cone-surface $-1 -62.088450077712395 30.462136275542434 4.0478713508334128 0 -0.5877852598018023 -0.80901698891910034 0.5 0 0 1 I I -0.70710678118654746 0.70710678118654746 0.5 forward I I I I #
loop $-1 $-1 $236 $70 #
coedge $-1 $148 $148 $237 $238 reversed $92 $-1 #
face $-1 $-1 $239 $54 $-1 $240 forward single #
loop $-1 $241 $242 $94 #
cone-surface $-1 -57.88478070134601 30.462136275542434 4.0478713508334128 0 -0.5877852598018023 -0.80901698891910034 0.5 0 0 1 I I -0.70710678118654746 0.70710678118654746 0.5 forward I I I I #
loop $-1 $-1 $243 $71 #
coedge $-1 $153 $153 $244 $245 reversed $95 $-1 #
face $-1 $-1 $246 $55 $-1 $247 forward single #
loop $-1 $248 $249 $97 #
cone-surface $-1 -53.681111324979632 30.462136275542434 4.0478713508334128 0 -0.5877852598018023 -0.80901698891910034 0.5 0 0 1 I I -0.70710678118654746 0.70710678118654746 0.5 forward I I I I #
loop $-1 $-1 $250 $72 #
coedge $-1 $158 $158 $251 $252 reversed $98 $-1 #
face $-1 $253 $254 $56 $-1 $255 reversed single #
loop $-1 $-1 $256 $100 #
plane-surface $-1 -19.294926900448672 -21.811433187856721 46.665804624933585 0 0.5877852598018023 0.80901698891910034 1 0 0 forward_v I I I I #
coedge $-1 $257 $258 $259 $260 reversed $101 $-1 #
face $-1 $-1 $261 $57 $-1 $262 forward single #
loop $-1 $263 $264 $103 #
cone-surface $-1 -23.498596276815057 30.462136275542434 4.0478713508334128 0 -0.5877852598018023 -0.80901698891910034 0.5 0 0 1 I I -0.70710678118654746 0.70710678118654746 0.5 forward I I I I #
loop $-1 $-1 $265 $74 #
coedge $-1 $167 $167 $266 $267 reversed $104 $-1 #
face $-1 $-1 $268 $58 $-1 $269 forward single #
loop $-1 $270 $271 $106 #
cone-surface $-1 -19.294926900448672 30.462136275542434 4.0478713508334128 0 -0.5877852598018023 -0.80901698891910034 0.5 0 0 1 I I -0.70710678118654746 0.70710678118654746 0.5 forward I I I I #
loop $-1 $-1 $272 $75 #
coedge $-1 $172 $172 $273 $274 reversed $107 $-1 #
face $-1 $-1 $275 $59 $-1 $276 forward single #
loop $-1 $277 $278 $109 #
cone-surface $-1 -15.091257524082295 30.462136275542434 4.0478713508334128 0 -0.5877852598018023 -0.80901698891910034 0.5 0 0 1 I I -0.70710678118654746 0.70710678118654746 0.5 forward I I I I #
loop $-1 $-1 $279 $76 #
coedge $-1 $177 $177 $280 $281 reversed $110 $-1 #
face $-1 $282 $283 $60 $-1 $284 reversed single #
loop $-1 $-1 $285 $112 #
plane-surface $-1 19.294926900448672 -21.811433187856721 46.665804624933585 0 0.5877852598018023 0.80901698891910034 1 0 0 forward_v I I I I #
coedge $-1 $286 $287 $288 $289 reversed $113 $-1 #
face $-1 $-1 $290 $61 $-1 $291 forward single #
loop $-1 $292 $293 $115 #
cone-surface $-1 15.09125752408228 30.462136275542434 4.0478713508334128 0 -0.5877852598018023 -0.80901698891910034 0.5 0 0 1 I I -0.70710678118654746 0.70710678118654746 0.5 forward I I I I #
loop $-1 $-1 $294 $78 #
coedge $-1 $186 $186 $295 $296 reversed $116 $-1 #
face $-1 $-1 $297 $62 $-1 $298 forward single #
loop $-1 $299 $300 $118 #
cone-surface $-1 19.294926900448672 30.462136275542434 4.0478713508334128 0 -0.5877852598018023 -0.80901698891910034 0.5 0 0 1 I I -0.70710678118654746 0.70710678118654746 0.5 forward I I I I #
loop $-1 $-1 $301 $79 #
coedge $-1 $191 $191 $302 $303 reversed $119 $-1 #
face $-1 $-1 $304 $63 $-1 $305 forward single #
loop $-1 $306 $307 $121 #
cone-surface $-1 23.49859627681505 30.462136275542434 4.0478713508334128 0 -0.5877852598018023 -0.80901698891910034 0.5 0 0 1 I I -0.70710678118654746 0.70710678118654746 0.5 forward I I I I #
loop $-1 $-1 $308 $80 #
coedge $-1 $196 $196 $309 $310 reversed $122 $-1 #
face $-1 $311 $312 $64 $-1 $313 forward single #
loop $-1 $-1 $314 $124 #
plane-surface $-1 50.878665074068714 54.472391526726625 151.66147973702226 1 0 0 0 -0.5877852598018023 -0.80901698891910034 forward_v I I I I #
coedge $-1 $315 $316 $317 $318 reversed $125 $-1 #
face $-1 $-1 $319 $65 $-1 $320 forward single #
loop $-1 $321 $322 $127 #
cone-surface $-1 53.681111324979611 30.462136275542434 4.0478713508334128 0 -0.5877852598018023 -0.80901698891910034 0.5 0 0 1 I I -0.70710678118654746 0.70710678118654746 0.5 forward I I I I #
loop $-1 $-1 $323 $82 #
coedge $-1 $205 $205 $324 $325 reversed $128 $-1 #
face $-1 $-1 $326 $66 $-1 $327 forward single #
loop $-1 $328 $329 $130 #
cone-surface $-1 57.884780701346017 30.462136275542434 4.0478713508334128 0 -0.5877852598018023 -0.80901698891910034 0.5 0 0 1 I I -0.70710678118654746 0.70710678118654746 0.5 forward I I I I #
loop $-1 $-1 $330 $83 #
coedge $-1 $210 $210 $331 $332 reversed $131 $-1 #
face $-1 $-1 $333 $67 $-1 $334 forward single #
loop $-1 $335 $336 $133 #
cone-surface $-1 62.088450077712395 30.462136275542434 4.0478713508334128 0 -0.5877852598018023 -0.80901698891910034 0.5 0 0 1 I I -0.70710678118654746 0.70710678118654746 0.5 forward I I I I #
loop $-1 $-1 $337 $84 #
coedge $-1 $215 $215 $338 $339 reversed $134 $-1 #
face $-1 $340 $341 $51 $-1 $342 reversed single #
loop $-1 $-1 $343 $136 #
plane-surface $-1 0 -35.291640864390928 0 0 1 0 0 0 1 forward_v I I I I #
coedge $-1 $344 $345 $346 $347 forward $137 $-1 #
coedge $-1 $348 $139 $349 $350 forward $86 $-1 #
coedge $-1 $139 $348 $351 $352 forward $86 $-1 #
coedge $-1 $353 $354 $139 $223 reversed $355 $-1 #
edge $-1 $356 -35.291640864390928 $357 35.291640864390928 $222 $358 forward 7 unknown #
face $-1 $359 $360 $52 $-1 $361 forward single #
loop $-1 $-1 $230 $140 #
plane-surface $-1 0 35.291640864390928 0 0 -1 0 0 0 -1 forward_v I I I I #
coedge $-1 $362 $363 $364 $365 reversed $141 $-1 #
coedge $-1 $229 $143 $366 $367 reversed $89 $-1 #
coedge $-1 $143 $228 $362 $368 reversed $89 $-1 #
coedge $-1 $364 $369 $143 $231 forward $225 $-1 #
edge $-1 $370 66.840510202714526 $371 70.652747832193398 $230 $372 forward 7 unknown #
loop $-1 $-1 $237 $144 #
plane-surface $-1 -57.88478070134601 -21.811433187856721 46.665804624933585 0 0.5877852598018023 0.80901698891910034 1 0 0 forward_v I I I I #
loop $-1 $-1 $373 $91 #
coedge $-1 $235 $235 $236 $374 reversed $145 $-1 #
coedge $-1 $236 $236 $235 $374 forward $147 $-1 #
coedge $-1 $237 $237 $148 $238 forward $232 $-1 #
edge $-1 $375 5.2205818317379231e-016 $375 6.2831853071796013 $237 $376 forward 7 unknown #
loop $-1 $-1 $244 $149 #
plane-surface $-1 -57.88478070134601 -21.811433187856721 46.665804624933585 0 0.5877852598018023 0.80901698891910034 1 0 0 forward_v I I I I #
loop $-1 $-1 $377 $94 #
coedge $-1 $242 $242 $243 $378 reversed $150 $-1 #
coedge $-1 $243 $243 $242 $378 forward $152 $-1 #
coedge $-1 $244 $244 $153 $245 forward $239 $-1 #
edge $-1 $379 5.2205818317379231e-016 $379 6.2831853071796013 $244 $380 forward 7 unknown #
loop $-1 $-1 $251 $154 #
plane-surface $-1 -57.88478070134601 -21.811433187856721 46.665804624933585 0 0.5877852598018023 0.80901698891910034 1 0 0 forward_v I I I I #
loop $-1 $-1 $381 $97 #
coedge $-1 $249 $249 $250 $382 reversed $155 $-1 #
coedge $-1 $250 $250 $249 $382 forward $157 $-1 #
coedge $-1 $251 $251 $158 $252 forward $246 $-1 #
edge $-1 $383 5.2205818317379231e-016 $383 6.2831853071796013 $251 $384 forward 7 unknown #
face $-1 $385 $386 $56 $-1 $387 forward single #
loop $-1 $-1 $388 $159 #
plane-surface $-1 -26.301042527725976 54.472391526726625 151.66147973702226 1 0 0 0 -0.5877852598018023 -0.80901698891910034 forward_v I I I I #
coedge $-1 $389 $390 $391 $392 reversed $160 $-1 #
coedge $-1 $258 $162 $393 $394 reversed $101 $-1 #
coedge $-1 $162 $257 $389 $395 reversed $101 $-1 #
coedge $-1 $391 $396 $162 $260 forward $397 $-1 #
edge $-1 $398 66.840510202714526 $399 70.652747832193398 $259 $400 forward 7 unknown #
loop $-1 $-1 $266 $163 #
plane-surface $-1 -19.294926900448672 -21.811433187856721 46.665804624933585 0 0.5877852598018023 0.80901698891910034 1 0 0 forward_v I I I I #
loop $-1 $-1 $401 $103 #
coedge $-1 $264 $264 $265 $402 reversed $164 $-1 #
coedge $-1 $265 $265 $264 $402 forward $166 $-1 #
coedge $-1 $266 $266 $167 $267 forward $261 $-1 #
edge $-1 $403 5.2205818317379231e-016 $403 6.2831853071796013 $266 $404 forward 7 unknown #
loop $-1 $-1 $273 $168 #
plane-surface $-1 -19.294926900448672 -21.811433187856721 46.665804624933585 0 0.5877852598018023 0.80901698891910034 1 0 0 forward_v I I I I #
loop $-1 $-1 $405 $106 #
coedge $-1 $271 $271 $272 $406 reversed $169 $-1 #
coedge $-1 $272 $272 $271 $406 forward $171 $-1 #
coedge $-1 $273 $273 $172 $274 forward $268 $-1 #
edge $-1 $407 5.2205818317379231e-016 $407 6.2831853071796013 $273 $408 forward 7 unknown #
loop $-1 $-1 $280 $173 #
plane-surface $-1 -19.294926900448672 -21.811433187856721 46.665804624933585 0 0.5877852598018023 0.80901698891910034 1 0 0 forward_v I I I I #
loop $-1 $-1 $409 $109 #
coedge $-1 $278 $278 $279 $410 reversed $174 $-1 #
coedge $-1 $279 $279 $278 $410 forward $176 $-1 #
coedge $-1 $280 $280 $177 $281 forward $275 $-1 #
edge $-1 $411 5.2205818317379231e-016 $411 6.2831853071796013 $280 $412 forward 7 unknown #
face $-1 $413 $414 $60 $-1 $415 forward single #
loop $-1 $-1 $416 $178 #
plane-surface $-1 12.288811273171371 54.472391526726625 151.66147973702226 1 0 0 0 -0.5877852598018023 -0.80901698891910034 forward_v I I I I #
coedge $-1 $417 $418 $419 $420 reversed $179 $-1 #
coedge $-1 $287 $181 $421 $422 reversed $113 $-1 #
coedge $-1 $181 $286 $417 $423 reversed $113 $-1 #
coedge $-1 $419 $424 $181 $289 forward $425 $-1 #
edge $-1 $426 66.840510202714526 $427 70.652747832193398 $288 $428 forward 7 unknown #
loop $-1 $-1 $295 $182 #
plane-surface $-1 19.294926900448672 -21.811433187856721 46.665804624933585 0 0.5877852598018023 0.80901698891910034 1 0 0 forward_v I I I I #
loop $-1 $-1 $429 $115 #
coedge $-1 $293 $293 $294 $430 reversed $183 $-1 #
coedge $-1 $294 $294 $293 $430 forward $185 $-1 #
coedge $-1 $295 $295 $186 $296 forward $290 $-1 #
edge $-1 $431 5.2205818317379231e-016 $431 6.2831853071796013 $295 $432 forward 7 unknown #
loop $-1 $-1 $302 $187 #
plane-surface $-1 19.294926900448672 -21.811433187856721 46.665804624933585 0 0.5877852598018023 0.80901698891910034 1 0 0 forward_v I I I I #
loop $-1 $-1 $433 $118 #
coedge $-1 $300 $300 $301 $434 reversed $188 $-1 #
coedge $-1 $301 $301 $300 $434 forward $190 $-1 #
coedge $-1 $302 $302 $191 $303 forward $297 $-1 #
edge $-1 $435 5.2205818317379231e-016 $435 6.2831853071796013 $302 $436 forward 7 unknown #
loop $-1 $-1 $309 $192 #
plane-surface $-1 19.294926900448672 -21.811433187856721 46.665804624933585 0 0.5877852598018023 0.80901698891910034 1 0 0 forward_v I I I I #
loop $-1 $-1 $437 $121 #
coedge $-1 $307 $307 $308 $438 reversed $193 $-1 #
coedge $-1 $308 $308 $307 $438 forward $195 $-1 #
coedge $-1 $309 $309 $196 $310 forward $304 $-1 #
edge $-1 $439 5.2205818317379231e-016 $439 6.2831853071796013 $309 $440 forward 7 unknown #
face $-1 $441 $442 $64 $-1 $443 reversed single #
loop $-1 $-1 $444 $197 #
plane-surface $-1 0 0 8.9902296657966101 0 0 1 1 0 0 forward_v I I I I #
coedge $-1 $445 $446 $447 $448 reversed $198 $-1 #
coedge $-1 $449 $200 $450 $451 reversed $125 $-1 #
coedge $-1 $200 $449 $445 $452 forward $125 $-1 #
coedge $-1 $447 $453 $200 $318 forward $454 $-1 #
edge $-1 $455 -35.948505977950305 $456 -21.936274723395705 $317 $457 forward 7 unknown #
loop $-1 $-1 $324 $201 #
plane-surface $-1 57.884780701346017 -21.811433187856721 46.665804624933585 0 0.5877852598018023 0.80901698891910034 1 0 0 forward_v I I I I #
loop $-1 $-1 $458 $127 #
coedge $-1 $322 $322 $323 $459 reversed $202 $-1 #
coedge $-1 $323 $323 $322 $459 forward $204 $-1 #
coedge $-1 $324 $324 $205 $325 forward $319 $-1 #
edge $-1 $460 5.2205818317379231e-016 $460 6.2831853071796013 $324 $461 forward 7 unknown #
loop $-1 $-1 $331 $206 #
plane-surface $-1 57.884780701346017 -21.811433187856721 46.665804624933585 0 0.5877852598018023 0.80901698891910034 1 0 0 forward_v I I I I #
loop $-1 $-1 $462 $130 #
coedge $-1 $329 $329 $330 $463 reversed $207 $-1 #
coedge $-1 $330 $330 $329 $463 forward $209 $-1 #
coedge $-1 $331 $331 $210 $332 forward $326 $-1 #
edge $-1 $464 5.2205818317379231e-016 $464 6.2831853071796013 $331 $465 forward 7 unknown #
loop $-1 $-1 $338 $211 #
plane-surface $-1 57.884780701346017 -21.811433187856721 46.665804624933585 0 0.5877852598018023 0.80901698891910034 1 0 0 forward_v I I I I #
loop $-1 $-1 $466 $133 #
coedge $-1 $336 $336 $337 $467 reversed $212 $-1 #
coedge $-1 $337 $337 $336 $467 forward $214 $-1 #
coedge $-1 $338 $338 $215 $339 forward $333 $-1 #
edge $-1 $468 5.2205818317379231e-016 $468 6.2831853071796013 $338 $469 forward 7 unknown #
face $-1 $470 $471 $51 $-1 $472 reversed single #
loop $-1 $-1 $473 $216 #
plane-surface $-1 -64.890896328623313 0 0 1 0 0 0 0 -1 forward_v I I I I #
coedge $-1 $474 $351 $475 $476 forward $217 $-1 #
coedge $-1 $477 $219 $474 $478 forward $137 $-1 #
coedge $-1 $219 $477 $479 $480 forward $137 $-1 #
coedge $-1 $354 $353 $219 $347 reversed $355 $-1 #
edge $-1 $481 -35.291640864390928 $482 35.291640864390928 $346 $483 forward 7 unknown #
coedge $-1 $221 $220 $484 $485 forward $86 $-1 #
coedge $-1 $486 $487 $220 $350 reversed $471 $-1 #
edge $-1 $357 -64.890896328623313 $488 64.890896328623313 $349 $489 forward 7 unknown #
coedge $-1 $343 $490 $221 $352 reversed $217 $-1 #
edge $-1 $491 -64.890896328623313 $356 64.890896328623313 $351 $492 forward 7 unknown #
coedge $-1 $346 $222 $490 $493 forward $355 $-1 #
coedge $-1 $222 $346 $486 $494 reversed $355 $-1 #
loop $-1 $-1 $353 $470 #
vertex $-1 $223 $495 #
vertex $-1 $223 $496 #
straight-curve $-1 64.890896328623313 0 8.9902296657966101 0 1 0 I I #
face $-1 $-1 $497 $52 $-1 $498 reversed single #
loop $-1 $-1 $366 $224 #
plane-surface $-1 0 0 8.9902296657966101 0 0 1 1 0 0 forward_v I I I I #
coedge $-1 $499 $227 $229 $368 forward $141 $-1 #
coedge $-1 $227 $499 $500 $501 reversed $141 $-1 #
coedge $-1 $502 $230 $227 $365 forward $225 $-1 #
edge $-1 $371 21.936274723395702 $503 35.948505977950305 $364 $504 forward 7 unknown #
coedge $-1 $505 $506 $228 $367 forward $360 $-1 #
edge $-1 $507 2.8083502536933196 $370 8.0554451010276154 $366 $508 forward 7 unknown #
edge $-1 $371 -70.583281728781856 $507 -64.097515769349087 $229 $509 forward 7 unknown #
coedge $-1 $230 $502 $505 $510 reversed $225 $-1 #
vertex $-1 $510 $511 #
vertex $-1 $231 $512 #
straight-curve $-1 -50.878665074068707 35.291640864390928 75.830739868511131 0 0 -1 I I #
coedge $-1 $373 $373 $-1 $513 reversed $234 $-1 #
edge $-1 $514 0 $514 6.2831853071796004 $235 $515 forward 7 unknown #
vertex $-1 $238 $516 #
ellipse-curve $-1 -62.088450077712395 32.668093440723766 7.0841108510571722 0 0.5877852598018023 0.80901698891910034 1 0 0 1 I I #
coedge $-1 $377 $377 $-1 $517 reversed $241 $-1 #
edge $-1 $518 0 $518 6.2831853071796004 $242 $519 forward 7 unknown #
vertex $-1 $245 $520 #
ellipse-curve $-1 -57.88478070134601 32.668093440723766 7.0841108510571722 0 0.5877852598018023 0.80901698891910034 1 0 0 1 I I #
coedge $-1 $381 $381 $-1 $521 reversed $248 $-1 #
edge $-1 $522 0 $522 6.2831853071796004 $249 $523 forward 7 unknown #
vertex $-1 $252 $524 #
ellipse-curve $-1 -53.681111324979632 32.668093440723766 7.0841108510571722 0 0.5877852598018023 0.80901698891910034 1 0 0 1 I I #
face $-1 $-1 $397 $56 $-1 $525 reversed single #
loop $-1 $-1 $526 $253 #
plane-surface $-1 0 0 8.9902296657966101 0 0 1 1 0 0 forward_v I I I I #
coedge $-1 $527 $528 $529 $530 reversed $254 $-1 #
coedge $-1 $531 $256 $258 $395 forward $160 $-1 #
coedge $-1 $256 $531 $527 $532 forward $160 $-1 #
coedge $-1 $529 $259 $256 $392 forward $397 $-1 #
edge $-1 $399 2.6413478229470346 $533 16.653579077501639 $391 $534 forward 7 unknown #
coedge $-1 $535 $536 $257 $394 forward $386 $-1 #
edge $-1 $537 2.8083502536933196 $398 8.0554451010276154 $393 $538 forward 7 unknown #
edge $-1 $399 -70.583281728781856 $537 -64.097515769349087 $258 $539 forward 7 unknown #
coedge $-1 $259 $529 $535 $540 reversed $397 $-1 #
loop $-1 $-1 $529 $385 #
vertex $-1 $540 $541 #
vertex $-1 $260 $542 #
straight-curve $-1 -12.288811273171371 35.291640864390928 75.830739868511131 0 0 -1 I I #
coedge $-1 $401 $401 $-1 $543 reversed $263 $-1 #
edge $-1 $544 0 $544 6.2831853071796004 $264 $545 forward 7 unknown #
vertex $-1 $267 $546 #
ellipse-curve $-1 -23.498596276815057 32.668093440723766 7.0841108510571722 0 0.5877852598018023 0.80901698891910034 1 0 0 1 I I #
coedge $-1 $405 $405 $-1 $547 reversed $270 $-1 #
edge $-1 $548 0 $548 6.2831853071796004 $271 $549 forward 7 unknown #
vertex $-1 $274 $550 #
ellipse-curve $-1 -19.294926900448672 32.668093440723766 7.0841108510571722 0 0.5877852598018023 0.80901698891910034 1 0 0 1 I I #
coedge $-1 $409 $409 $-1 $551 reversed $277 $-1 #
edge $-1 $552 0 $552 6.2831853071796004 $278 $553 forward 7 unknown #
vertex $-1 $281 $554 #
ellipse-curve $-1 -15.091257524082295 32.668093440723766 7.0841108510571722 0 0.5877852598018023 0.80901698891910034 1 0 0 1 I I #
face $-1 $-1 $425 $60 $-1 $555 reversed single #
loop $-1 $-1 $556 $282 #
plane-surface $-1 0 0 8.9902296657966101 0 0 1 1 0 0 forward_v I I I I #
coedge $-1 $557 $558 $559 $560 reversed $283 $-1 #
coedge $-1 $561 $285 $287 $423 forward $179 $-1 #
coedge $-1 $285 $561 $557 $562 forward $179 $-1 #
coedge $-1 $559 $288 $285 $420 forward $425 $-1 #
edge $-1 $427 -16.653579077501639 $563 -2.6413478229470346 $419 $564 forward 7 unknown #
coedge $-1 $565 $566 $286 $422 forward $414 $-1 #
edge $-1 $567 2.8083502536933196 $426 8.0554451010276154 $421 $568 forward 7 unknown #
edge $-1 $427 -70.583281728781856 $567 -64.097515769349087 $287 $569 forward 7 unknown #
coedge $-1 $288 $559 $565 $570 reversed $425 $-1 #
loop $-1 $-1 $559 $413 #
vertex $-1 $570 $571 #
vertex $-1 $289 $572 #
straight-curve $-1 26.301042527725976 35.291640864390928 75.830739868511131 0 0 -1 I I #
coedge $-1 $429 $429 $-1 $573 reversed $292 $-1 #
edge $-1 $574 0 $574 6.2831853071796004 $293 $575 forward 7 unknown #
vertex $-1 $296 $576 #
ellipse-curve $-1 15.09125752408228 32.668093440723766 7.0841108510571722 0 0.5877852598018023 0.80901698891910034 1 0 0 1 I I #
coedge $-1 $433 $433 $-1 $577 reversed $299 $-1 #
edge $-1 $578 0 $578 6.2831853071796004 $300 $579 forward 7 unknown #
vertex $-1 $303 $580 #
ellipse-curve $-1 19.294926900448672 32.668093440723766 7.0841108510571722 0 0.5877852598018023 0.80901698891910034 1 0 0 1 I I #
coedge $-1 $437 $437 $-1 $581 reversed $306 $-1 #
edge $-1 $582 0 $582 6.2831853071796004 $307 $583 forward 7 unknown #
vertex $-1 $310 $584 #
ellipse-curve $-1 23.49859627681505 32.668093440723766 7.0841108510571722 0 0.5877852598018023 0.80901698891910034 1 0 0 1 I I #
face $-1 $-1 $454 $64 $-1 $585 reversed single #
loop $-1 $-1 $450 $311 #
plane-surface $-1 64.890896328623313 0 0 -1 0 0 0 0 1 forward_v I I I I #
coedge $-1 $586 $587 $446 $588 forward $312 $-1 #
coedge $-1 $446 $314 $316 $452 reversed $198 $-1 #
coedge $-1 $314 $445 $444 $588 reversed $198 $-1 #
coedge $-1 $589 $317 $314 $448 forward $454 $-1 #
edge $-1 $456 -70.652747832193398 $590 -66.840510202714526 $447 $591 forward 7 unknown #
coedge $-1 $316 $315 $586 $592 reversed $125 $-1 #
coedge $-1 $593 $594 $315 $451 forward $442 $-1 #
edge $-1 $595 41.559869720860732 $455 48.045635680293493 $450 $596 forward 7 unknown #
edge $-1 $597 64.097515769349087 $456 70.583281728781856 $445 $598 forward 7 unknown #
coedge $-1 $317 $589 $593 $599 forward $454 $-1 #
loop $-1 $-1 $447 $441 #
vertex $-1 $451 $600 #
vertex $-1 $318 $601 #
straight-curve $-1 28.942390350673008 35.291640864390928 5.1779920363177396 -1 0 0 I I #
coedge $-1 $458 $458 $-1 $602 reversed $321 $-1 #
edge $-1 $603 0 $603 6.2831853071796004 $322 $604 forward 7 unknown #
vertex $-1 $325 $605 #
ellipse-curve $-1 53.681111324979611 32.668093440723766 7.0841108510571722 0 0.5877852598018023 0.80901698891910034 1 0 0 1 I I #
coedge $-1 $462 $462 $-1 $606 reversed $328 $-1 #
edge $-1 $607 0 $607 6.2831853071796004 $329 $608 forward 7 unknown #
vertex $-1 $332 $609 #
ellipse-curve $-1 57.884780701346017 32.668093440723766 7.0841108510571722 0 0.5877852598018023 0.80901698891910034 1 0 0 1 I I #
coedge $-1 $466 $466 $-1 $610 reversed $335 $-1 #
edge $-1 $611 0 $611 6.2831853071796004 $336 $612 forward 7 unknown #
vertex $-1 $339 $613 #
ellipse-curve $-1 62.088450077712395 32.668093440723766 7.0841108510571722 0 0.5877852598018023 0.80901698891910034 1 0 0 1 I I #
face $-1 $-1 $355 $51 $-1 $614 reversed single #
loop $-1 $-1 $486 $340 #
plane-surface $-1 0 35.291640864390928 0 0 -1 0 0 0 -1 forward_v I I I I #
coedge $-1 $615 $484 $487 $616 forward $341 $-1 #
coedge $-1 $490 $343 $344 $478 reversed $217 $-1 #
coedge $-1 $484 $615 $343 $476 reversed $341 $-1 #
edge $-1 $491 -8.9902296657966101 $617 8.9902296657966101 $475 $618 forward 7 unknown #
coedge $-1 $345 $344 $615 $619 forward $137 $-1 #
edge $-1 $482 -64.890896328623313 $617 64.890896328623313 $474 $620 forward 7 unknown #
coedge $-1 $487 $486 $345 $480 reversed $471 $-1 #
edge $-1 $621 -64.890896328623313 $481 64.890896328623313 $479 $622 forward 7 unknown #
vertex $-1 $347 $623 #
vertex $-1 $493 $624 #
straight-curve $-1 64.890896328623313 0 -8.9902296657966101 0 -1 0 I I #
coedge $-1 $473 $475 $348 $485 reversed $341 $-1 #
edge $-1 $488 -35.291640864390928 $491 35.291640864390928 $484 $625 forward 7 unknown #
coedge $-1 $479 $349 $354 $494 forward $471 $-1 #
coedge $-1 $349 $479 $473 $616 reversed $471 $-1 #
vertex $-1 $350 $626 #
straight-curve $-1 0 35.291640864390928 8.9902296657966101 -1 0 0 I I #
coedge $-1 $351 $474 $353 $493 reversed $217 $-1 #
vertex $-1 $485 $627 #
straight-curve $-1 0 -35.291640864390928 8.9902296657966101 1 0 0 I I #
edge $-1 $356 -8.9902296657966101 $482 8.9902296657966101 $353 $628 forward 7 unknown #
edge $-1 $357 -8.9902296657966101 $481 8.9902296657966101 $354 $629 forward 7 unknown #
point $-1 64.890896328623313 -35.291640864390928 8.9902296657966101 #
point $-1 64.890896328623313 35.291640864390928 8.9902296657966101 #
loop $-1 $-1 $500 $359 #
plane-surface $-1 -64.890896328623313 0 0 1 0 0 0 0 -1 forward_v I I I I #
coedge $-1 $363 $362 $506 $630 reversed $141 $-1 #
coedge $-1 $631 $632 $363 $501 forward $497 $-1 #
edge $-1 $503 -48.045635680293493 $633 -41.559869720860732 $500 $634 forward 7 unknown #
coedge $-1 $369 $364 $632 $635 reversed $225 $-1 #
vertex $-1 $365 $636 #
straight-curve $-1 -28.942390350673005 35.291640864390928 5.1779920363177396 -1 0 0 I I #
coedge $-1 $637 $366 $369 $510 forward $360 $-1 #
coedge $-1 $366 $637 $499 $630 forward $360 $-1 #
vertex $-1 $367 $638 #
straight-curve $-1 -50.878665074068707 27.236195763363312 8.9902296657966048 0 1 0 I I #
straight-curve $-1 -50.878665074068707 -21.811433187856721 46.665804624933585 0 -0.80901698891910034 0.5877852598018023 I I #
edge $-1 $370 50.878665074068707 $639 64.890896328623313 $369 $640 forward 7 unknown #
point $-1 -50.878665074068707 35.291640864390928 8.9902296657966101 #
point $-1 -50.878665074068707 35.291640864390928 5.1779920363177396 #
edge $-1 $641 1 $641 0 $373 $-1 forward 7 unknown #
vertex $-1 $374 $642 #
ellipse-curve $-1 -62.088450077712395 30.756028905443337 4.4523798452929633 0 0.5877852598018023 0.80901698891910034 1 0 0 1 I I #
point $-1 -61.088450077712395 32.668093440723766 7.0841108510571713 #
edge $-1 $643 1 $643 0 $377 $-1 forward 7 unknown #
vertex $-1 $378 $644 #
ellipse-curve $-1 -57.88478070134601 30.756028905443337 4.4523798452929633 0 0.5877852598018023 0.80901698891910034 1 0 0 1 I I #
point $-1 -56.88478070134601 32.668093440723766 7.0841108510571713 #
edge $-1 $645 1 $645 0 $381 $-1 forward 7 unknown #
vertex $-1 $382 $646 #
ellipse-curve $-1 -53.681111324979632 30.756028905443337 4.4523798452929633 0 0.5877852598018023 0.80901698891910034 1 0 0 1 I I #
point $-1 -52.681111324979632 32.668093440723766 7.0841108510571713 #
plane-surface $-1 0 35.291640864390928 0 0 -1 0 0 0 -1 forward_v I I I I #
coedge $-1 $536 $535 $528 $647 forward $386 $-1 #
coedge $-1 $528 $388 $390 $532 reversed $254 $-1 #
coedge $-1 $388 $527 $526 $647 reversed $254 $-1 #
coedge $-1 $396 $391 $388 $530 forward $397 $-1 #
edge $-1 $533 -70.652747832193398 $648 -66.840510202714526 $529 $649 forward 7 unknown #
coedge $-1 $390 $389 $536 $650 reversed $160 $-1 #
edge $-1 $651 64.097515769349087 $533 70.583281728781856 $527 $652 forward 7 unknown #
vertex $-1 $392 $653 #
straight-curve $-1 -9.6474634502243362 35.291640864390928 5.1779920363177396 -1 0 0 I I #
coedge $-1 $526 $393 $396 $540 forward $386 $-1 #
coedge $-1 $393 $526 $531 $650 forward $386 $-1 #
vertex $-1 $394 $654 #
straight-curve $-1 -12.288811273171371 27.236195763363312 8.9902296657966048 0 1 0 I I #
straight-curve $-1 -12.288811273171371 -21.811433187856721 46.665804624933585 0 -0.80901698891910034 0.5877852598018023 I I #
edge $-1 $398 12.288811273171371 $648 26.301042527725976 $396 $655 forward 7 unknown #
point $-1 -12.288811273171371 35.291640864390928 8.9902296657966101 #
point $-1 -12.288811273171371 35.291640864390928 5.1779920363177396 #
edge $-1 $656 1 $656 0 $401 $-1 forward 7 unknown #
vertex $-1 $402 $657 #
ellipse-curve $-1 -23.498596276815057 30.756028905443337 4.4523798452929633 0 0.5877852598018023 0.80901698891910034 1 0 0 1 I I #
point $-1 -22.498596276815057 32.668093440723766 7.0841108510571713 #
edge $-1 $658 1 $658 0 $405 $-1 forward 7 unknown #
vertex $-1 $406 $659 #
ellipse-curve $-1 -19.294926900448672 30.756028905443337 4.4523798452929633 0 0.5877852598018023 0.80901698891910034 1 0 0 1 I I #
point $-1 -18.294926900448672 32.668093440723766 7.0841108510571713 #
edge $-1 $660 1 $660 0 $409 $-1 forward 7 unknown #
vertex $-1 $410 $661 #
ellipse-curve $-1 -15.091257524082295 30.756028905443337 4.4523798452929633 0 0.5877852598018023 0.80901698891910034 1 0 0 1 I I #
point $-1 -14.091257524082295 32.668093440723766 7.0841108510571713 #
plane-surface $-1 0 35.291640864390928 0 0 -1 0 0 0 -1 forward_v I I I I #
coedge $-1 $566 $565 $558 $662 forward $414 $-1 #
coedge $-1 $558 $416 $418 $562 reversed $283 $-1 #
coedge $-1 $416 $557 $556 $662 reversed $283 $-1 #
coedge $-1 $424 $419 $416 $560 forward $425 $-1 #
edge $-1 $563 -70.652747832193398 $663 -66.840510202714526 $559 $664 forward 7 unknown #
coedge $-1 $418 $417 $566 $665 reversed $179 $-1 #
edge $-1 $666 64.097515769349087 $563 70.583281728781856 $557 $667 forward 7 unknown #
vertex $-1 $420 $668 #
straight-curve $-1 9.6474634502243362 35.291640864390928 5.1779920363177396 -1 0 0 I I #
coedge $-1 $556 $421 $424 $570 forward $414 $-1 #
coedge $-1 $421 $556 $561 $665 forward $414 $-1 #
vertex $-1 $422 $669 #
straight-curve $-1 26.301042527725976 27.236195763363312 8.9902296657966048 0 1 0 I I #
straight-curve $-1 26.301042527725976 -21.811433187856721 46.665804624933585 0 -0.80901698891910034 0.5877852598018023 I I #
edge $-1 $426 -26.301042527725976 $663 -12.288811273171371 $424 $670 forward 7 unknown #
point $-1 26.301042527725976 35.291640864390928 8.9902296657966101 #
point $-1 26.301042527725976 35.291640864390928 5.1779920363177396 #
edge $-1 $671 1 $671 0 $429 $-1 forward 7 unknown #
vertex $-1 $430 $672 #
ellipse-curve $-1 15.09125752408228 30.756028905443337 4.4523798452929633 0 0.5877852598018023 0.80901698891910034 1 0 0 1 I I #
point $-1 16.09125752408228 32.668093440723766 7.0841108510571713 #
edge $-1 $673 1 $673 0 $433 $-1 forward 7 unknown #
vertex $-1 $434 $674 #
ellipse-curve $-1 19.294926900448672 30.756028905443337 4.4523798452929633 0 0.5877852598018023 0.80901698891910034 1 0 0 1 I I #
point $-1 20.294926900448672 32.668093440723766 7.0841108510571713 #
edge $-1 $675 1 $675 0 $437 $-1 forward 7 unknown #
vertex $-1 $438 $676 #
ellipse-curve $-1 23.49859627681505 30.756028905443337 4.4523798452929633 0 0.5877852598018023 0.80901698891910034 1 0 0 1 I I #
point $-1 24.49859627681505 32.668093440723766 7.0841108510571713 #
plane-surface $-1 0 35.291640864390928 0 0 -1 0 0 0 -1 forward_v I I I I #
coedge $-1 $677 $444 $449 $592 forward $312 $-1 #
coedge $-1 $444 $677 $589 $678 forward $312 $-1 #
edge $-1 $590 -8.0554451010276154 $597 -2.8083502536933196 $444 $679 forward 7 unknown #
coedge $-1 $453 $447 $587 $678 reversed $454 $-1 #
vertex $-1 $448 $680 #
straight-curve $-1 50.878665074068714 35.291640864390928 75.830739868511131 0 0 1 I I #
edge $-1 $597 21.936274723395705 $595 35.948505977950305 $586 $681 forward 7 unknown #
coedge $-1 $594 $450 $453 $599 reversed $442 $-1 #
coedge $-1 $450 $593 $677 $682 reversed $442 $-1 #
vertex $-1 $682 $683 #
straight-curve $-1 64.890896328623313 -3.5780946443842101 33.418508487001795 0 0.80901698891910034 -0.5877852598018023 I I #
vertex $-1 $592 $684 #
straight-curve $-1 50.878665074068714 -21.811433187856721 46.665804624933585 0 0.80901698891910034 -0.5877852598018023 I I #
edge $-1 $685 -8.9902296657966101 $455 -5.1779920363177396 $593 $686 forward 7 unknown #
point $-1 64.890896328623313 35.291640864390928 5.1779920363177396 #
point $-1 50.878665074068714 35.291640864390928 5.1779920363177396 #
edge $-1 $687 1 $687 0 $458 $-1 forward 7 unknown #
vertex $-1 $459 $688 #
ellipse-curve $-1 53.681111324979611 30.756028905443337 4.4523798452929633 0 0.5877852598018023 0.80901698891910034 1 0 0 1 I I #
point $-1 54.681111324979611 32.668093440723766 7.0841108510571713 #
edge $-1 $689 1 $689 0 $462 $-1 forward 7 unknown #
vertex $-1 $463 $690 #
ellipse-curve $-1 57.884780701346017 30.756028905443337 4.4523798452929633 0 0.5877852598018023 0.80901698891910034 1 0 0 1 I I #
point $-1 58.884780701346017 32.668093440723766 7.0841108510571713 #
edge $-1 $691 1 $691 0 $466 $-1 forward 7 unknown #
vertex $-1 $467 $692 #
ellipse-curve $-1 62.088450077712395 30.756028905443337 4.4523798452929633 0 0.5877852598018023 0.80901698891910034 1 0 0 1 I I #
point $-1 63.088450077712395 32.668093440723766 7.0841108510571713 #
plane-surface $-1 64.890896328623313 0 0 -1 0 0 0 0 1 forward_v I I I I #
coedge $-1 $475 $473 $477 $619 reversed $341 $-1 #
edge $-1 $488 -8.9902296657966101 $621 8.9902296657966101 $487 $693 forward 7 unknown #
vertex $-1 $619 $694 #
straight-curve $-1 -64.890896328623313 -35.291640864390928 0 0 0 -1 I I #
edge $-1 $617 -35.291640864390928 $621 35.291640864390928 $615 $695 forward 7 unknown #
straight-curve $-1 0 -35.291640864390928 -8.9902296657966101 -1 0 0 I I #
vertex $-1 $480 $696 #
straight-curve $-1 0 35.291640864390928 -8.9902296657966101 1 0 0 I I #
point $-1 64.890896328623313 35.291640864390928 -8.9902296657966101 #
point $-1 64.890896328623313 -35.291640864390928 -8.9902296657966101 #
straight-curve $-1 -64.890896328623313 0 8.9902296657966101 0 -1 0 I I #
point $-1 -64.890896328623313 35.291640864390928 8.9902296657966101 #
point $-1 -64.890896328623313 -35.291640864390928 8.9902296657966101 #
straight-curve $-1 64.890896328623313 -35.291640864390928 0 0 0 -1 I I #
straight-curve $-1 64.890896328623313 35.291640864390928 0 0 0 -1 I I #
edge $-1 $633 -35.948505977950305 $507 -21.936274723395702 $506 $697 forward 7 unknown #
coedge $-1 $632 $500 $637 $698 reversed $497 $-1 #
coedge $-1 $500 $631 $502 $635 forward $497 $-1 #
vertex $-1 $501 $699 #
straight-curve $-1 -64.890896328623313 -3.5780946443842101 33.418508487001795 0 -0.80901698891910034 0.5877852598018023 I I #
edge $-1 $639 -8.9902296657966101 $503 -5.1779920363177414 $502 $700 forward 7 unknown #
point $-1 -64.890896328623313 35.291640864390928 5.1779920363177414 #
coedge $-1 $506 $505 $631 $698 forward $360 $-1 #
point $-1 -50.878665074068707 30.044546017056632 8.9902296657966119 #
vertex $-1 $510 $701 #
straight-curve $-1 0 35.291640864390928 8.9902296657966101 -1 0 0 I I #
vertex $-1 $513 $702 #
point $-1 -61.088450077712395 30.756028905443337 4.4523798452929633 #
vertex $-1 $517 $703 #
point $-1 -56.88478070134601 30.756028905443337 4.4523798452929633 #
vertex $-1 $521 $704 #
point $-1 -52.681111324979632 30.756028905443337 4.4523798452929633 #
edge $-1 $648 -8.0554451010276154 $651 -2.8083502536933196 $526 $705 forward 7 unknown #
vertex $-1 $647 $706 #
straight-curve $-1 -26.301042527725976 35.291640864390928 75.830739868511131 0 0 1 I I #
edge $-1 $651 -16.653579077501639 $537 -2.6413478229470346 $536 $707 forward 7 unknown #
vertex $-1 $650 $708 #
straight-curve $-1 -26.301042527725976 -21.811433187856721 46.665804624933585 0 0.80901698891910034 -0.5877852598018023 I I #
point $-1 -26.301042527725976 35.291640864390928 5.1779920363177396 #
point $-1 -12.288811273171371 30.044546017056632 8.9902296657966119 #
straight-curve $-1 0 35.291640864390928 8.9902296657966101 -1 0 0 I I #
vertex $-1 $543 $709 #
point $-1 -22.498596276815057 30.756028905443337 4.4523798452929633 #
vertex $-1 $547 $710 #
point $-1 -18.294926900448672 30.756028905443337 4.4523798452929633 #
vertex $-1 $551 $711 #
point $-1 -14.091257524082295 30.756028905443337 4.4523798452929633 #
edge $-1 $663 -8.0554451010276154 $666 -2.8083502536933196 $556 $712 forward 7 unknown #
vertex $-1 $560 $713 #
straight-curve $-1 12.288811273171371 35.291640864390928 75.830739868511131 0 0 1 I I #
edge $-1 $666 2.6413478229470346 $567 16.653579077501639 $566 $714 forward 7 unknown #
vertex $-1 $665 $715 #
straight-curve $-1 12.288811273171371 -21.811433187856721 46.665804624933585 0 0.80901698891910034 -0.5877852598018023 I I #
point $-1 12.288811273171371 35.291640864390928 5.1779920363177396 #
point $-1 26.301042527725976 30.044546017056632 8.9902296657966119 #
straight-curve $-1 0 35.291640864390928 8.9902296657966101 -1 0 0 I I #
vertex $-1 $573 $716 #
point $-1 16.09125752408228 30.756028905443337 4.4523798452929633 #
vertex $-1 $577 $717 #
point $-1 20.294926900448672 30.756028905443337 4.4523798452929633 #
vertex $-1 $581 $718 #
point $-1 24.49859627681505 30.756028905443337 4.4523798452929633 #
coedge $-1 $587 $586 $594 $682 forward $312 $-1 #
edge $-1 $685 -64.890896328623313 $590 -50.878665074068714 $589 $719 forward 7 unknown #
straight-curve $-1 50.878665074068714 27.236195763363312 8.9902296657966048 0 -1 0 I I #
point $-1 50.878665074068714 35.291640864390928 8.9902296657966101 #
straight-curve $-1 28.942390350673008 30.044546017056632 8.9902296657966119 1 0 0 I I #
edge $-1 $595 30.044546017056632 $685 35.291640864390928 $594 $720 forward 7 unknown #
point $-1 64.890896328623313 30.044546017056632 8.9902296657966119 #
point $-1 50.878665074068714 30.044546017056632 8.9902296657966119 #
vertex $-1 $682 $721 #
straight-curve $-1 64.890896328623313 35.291640864390928 0 0 0 -1 I I #
vertex $-1 $602 $722 #
point $-1 54.681111324979611 30.756028905443337 4.4523798452929633 #
vertex $-1 $606 $723 #
point $-1 58.884780701346017 30.756028905443337 4.4523798452929633 #
vertex $-1 $610 $724 #
point $-1 63.088450077712395 30.756028905443337 4.4523798452929633 #
straight-curve $-1 -64.890896328623313 35.291640864390928 0 0 0 -1 I I #
point $-1 -64.890896328623313 -35.291640864390928 -8.9902296657966101 #
straight-curve $-1 -64.890896328623313 0 -8.9902296657966101 0 1 0 I I #
point $-1 -64.890896328623313 35.291640864390928 -8.9902296657966101 #
straight-curve $-1 -28.942390350673005 30.044546017056632 8.9902296657966119 1 0 0 I I #
edge $-1 $639 -35.291640864390928 $633 -30.044546017056632 $631 $725 forward 7 unknown #
point $-1 -64.890896328623313 30.044546017056632 8.9902296657966119 #
straight-curve $-1 -64.890896328623313 35.291640864390928 0 0 0 -1 I I #
point $-1 -64.890896328623313 35.291640864390928 8.9902296657966101 #
point $-1 -62.088450077712395 30.168243645641532 3.6433628563738627 #
point $-1 -57.88478070134601 30.168243645641532 3.6433628563738627 #
point $-1 -53.681111324979632 30.168243645641532 3.6433628563738627 #
straight-curve $-1 -26.301042527725976 27.236195763363312 8.9902296657966048 0 -1 0 I I #
point $-1 -26.301042527725976 35.291640864390928 8.9902296657966101 #
straight-curve $-1 -9.6474634502243362 30.044546017056632 8.9902296657966119 1 0 0 I I #
point $-1 -26.301042527725976 30.044546017056632 8.9902296657966119 #
point $-1 -23.498596276815057 30.168243645641532 3.6433628563738627 #
point $-1 -19.294926900448672 30.168243645641532 3.6433628563738627 #
point $-1 -15.091257524082295 30.168243645641532 3.6433628563738627 #
straight-curve $-1 12.288811273171371 27.236195763363312 8.9902296657966048 0 -1 0 I I #
point $-1 12.288811273171371 35.291640864390928 8.9902296657966101 #
straight-curve $-1 9.6474634502243362 30.044546017056632 8.9902296657966119 1 0 0 I I #
point $-1 12.288811273171371 30.044546017056632 8.9902296657966119 #
point $-1 15.09125752408228 30.168243645641532 3.6433628563738627 #
point $-1 19.294926900448672 30.168243645641532 3.6433628563738627 #
point $-1 23.49859627681505 30.168243645641532 3.6433628563738627 #
straight-curve $-1 0 35.291640864390928 8.9902296657966101 -1 0 0 I I #
straight-curve $-1 64.890896328623313 0 8.9902296657966101 0 1 0 I I #
point $-1 64.890896328623313 35.291640864390928 8.9902296657966101 #
point $-1 53.681111324979611 30.168243645641532 3.6433628563738627 #
point $-1 57.884780701346017 30.168243645641532 3.6433628563738627 #
point $-1 62.088450077712395 30.168243645641532 3.6433628563738627 #
straight-curve $-1 -64.890896328623313 0 8.9902296657966101 0 -1 0 I I #
End-of-ACIS-data 