500 0 6 0           
7 Unknown 11 ACIS 5.0 NT 24 Fri Mar 26 18:03:29 1999 
-1 9.9999999999999995e-007 1e-010 
body $-1 $6 $-1 $7 #
body $-1 $8 $-1 $9 #
body $-1 $10 $-1 $11 #
body $-1 $12 $-1 $13 #
body $-1 $14 $-1 $15 #
body $-1 $16 $-1 $17 #
lump $-1 $-1 $18 $0 #
transform $-1 1 0 0 0 1 0 0 0 1 60.269173253578295 25.222852252072041 8.586561854958136 1 rotate no_reflect no_shear #
lump $-1 $-1 $19 $1 #
transform $-1 1 0 0 0 1 0 0 0 1 60.269173253578295 25.222852252072041 8.586561854958136 1 rotate no_reflect no_shear #
lump $-1 $-1 $20 $2 #
transform $-1 1 0 0 0 1 0 0 0 1 60.269173253578295 25.222852252072041 8.586561854958136 1 rotate no_reflect no_shear #
lump $-1 $-1 $21 $3 #
transform $-1 1 0 0 0 1 0 0 0 1 60.269173253578295 25.222852252072041 8.586561854958136 1 rotate no_reflect no_shear #
lump $-1 $-1 $22 $4 #
transform $-1 1 0 0 0 1 0 0 0 1 60.269173253578295 25.222852252072041 8.586561854958136 1 rotate no_reflect no_shear #
lump $-1 $-1 $23 $5 #
transform $-1 1 0 0 0 1 0 0 0 1 60.269173253578295 25.222852252072041 8.586561854958136 1 rotate no_reflect no_shear #
shell $-1 $-1 $-1 $24 $-1 $6 #
shell $-1 $-1 $-1 $25 $-1 $8 #
shell $-1 $-1 $-1 $26 $-1 $10 #
shell $-1 $-1 $-1 $27 $-1 $12 #
shell $-1 $-1 $-1 $28 $-1 $14 #
shell $-1 $-1 $-1 $29 $-1 $16 #
face $-1 $30 $31 $18 $-1 $32 reversed single #
face $-1 $33 $34 $19 $-1 $35 forward single #
face $-1 $36 $37 $20 $-1 $38 forward single #
face $-1 $39 $40 $21 $-1 $41 reversed single #
face $-1 $42 $43 $22 $-1 $44 forward single #
face $-1 $45 $46 $23 $-1 $47 forward single #
face $-1 $48 $49 $18 $-1 $50 reversed single #
loop $-1 $-1 $51 $24 #
plane-surface $-1 60.269173253578295 0 0 -1 0 0 0 0 1 forward_v I I I I #
face $-1 $52 $53 $19 $-1 $54 reversed single #
loop $-1 $-1 $55 $25 #
plane-surface $-1 -60.269173253578295 0 0 1 0 0 0 0 -1 forward_v I I I I #
face $-1 $56 $57 $20 $-1 $58 reversed single #
loop $-1 $-1 $59 $26 #
plane-surface $-1 60.269173253578295 0 0 -1 0 0 0 0 1 forward_v I I I I #
face $-1 $60 $61 $21 $-1 $62 reversed single #
loop $-1 $-1 $63 $27 #
plane-surface $-1 -46.72526997912577 55.262083608015402 129.96797462300066 1 0 0 0 -0.5877852598018023 -0.80901698891910034 forward_v I I I I #
face $-1 $64 $65 $22 $-1 $66 forward single #
loop $-1 $67 $68 $28 #
cone-surface $-1 -38.191704616110414 20.125651785767136 4.1590706818575249 0 -0.5877852598018023 -0.80901698891910034 2 0 0 1 I I 0 1 2 forward I I I I #
face $-1 $69 $70 $23 $-1 $71 forward single #
loop $-1 $72 $73 $29 #
cone-surface $-1 -25.391356571587387 20.125651785767136 4.1590706818575249 0 -0.5877852598018023 -0.80901698891910034 2 0 0 1 I I 0 1 2 forward I I I I #
face $-1 $74 $75 $18 $-1 $76 forward single #
loop $-1 $-1 $77 $30 #
plane-surface $-1 -60.269173253578295 0 0 1 0 0 0 0 -1 forward_v I I I I #
coedge $-1 $78 $79 $80 $81 reversed $31 $-1 #
face $-1 $82 $83 $19 $-1 $84 reversed single #
loop $-1 $-1 $85 $33 #
plane-surface $-1 0 0 -8.586561854958136 0 0 1 1 0 0 forward_v I I I I #
coedge $-1 $86 $87 $88 $89 forward $34 $-1 #
face $-1 $90 $91 $20 $-1 $92 reversed single #
loop $-1 $-1 $93 $36 #
plane-surface $-1 0 0 -8.586561854958136 0 0 1 1 0 0 forward_v I I I I #
coedge $-1 $94 $95 $96 $97 forward $37 $-1 #
face $-1 $98 $99 $21 $-1 $100 reversed single #
loop $-1 $-1 $101 $39 #
plane-surface $-1 -31.791530593848901 -15.588579709773299 32.450404482493695 0 0.5877852598018023 0.80901698891910034 1 0 0 forward_v I I I I #
coedge $-1 $102 $103 $104 $105 reversed $40 $-1 #
face $-1 $-1 $106 $22 $-1 $107 forward single #
loop $-1 $108 $109 $42 #
cone-surface $-1 -38.191704616110414 18.423501588393766 1.8162619699966722 0 -0.5877852598018023 -0.80901698891910034 1 0 0 1 I I -0.70710678118654746 0.70710678118654746 1 forward I I I I #
loop $-1 $-1 $110 $28 #
coedge $-1 $68 $68 $111 $112 reversed $43 $-1 #
face $-1 $-1 $113 $23 $-1 $114 forward single #
loop $-1 $115 $116 $45 #
cone-surface $-1 -25.391356571587387 18.423501588393766 1.8162619699966722 0 -0.5877852598018023 -0.80901698891910034 1 0 0 1 I I -0.70710678118654746 0.70710678118654746 1 forward I I I I #
loop $-1 $-1 $117 $29 #
coedge $-1 $73 $73 $118 $119 reversed $46 $-1 #
face $-1 $120 $121 $18 $-1 $122 reversed single #
loop $-1 $-1 $123 $48 #
plane-surface $-1 0 0 8.586561854958136 0 0 1 1 0 0 forward_v I I I I #
coedge $-1 $124 $125 $126 $127 reversed $49 $-1 #
coedge $-1 $128 $51 $129 $130 reversed $31 $-1 #
coedge $-1 $51 $128 $131 $132 forward $31 $-1 #
coedge $-1 $133 $134 $51 $81 forward $121 $-1 #
edge $-1 $135 -25.222852252072041 $136 25.222852252072041 $51 $137 forward 7 unknown #
face $-1 $138 $139 $19 $-1 $140 reversed single #
loop $-1 $-1 $141 $52 #
plane-surface $-1 -63.384564578314105 -12.391305113113603 0 0 1 0 0 0 1 forward_v I I I I #
coedge $-1 $142 $143 $87 $144 forward $53 $-1 #
coedge $-1 $145 $55 $146 $147 reversed $34 $-1 #
coedge $-1 $55 $145 $85 $144 reversed $34 $-1 #
coedge $-1 $148 $149 $55 $89 reversed $150 $-1 #
edge $-1 $151 -8.586561854958136 $152 8.586561854958136 $88 $153 forward 7 unknown #
face $-1 $154 $155 $20 $-1 $156 reversed single #
loop $-1 $-1 $96 $56 #
plane-surface $-1 63.384564578314105 -12.391305113113603 0 0 1 0 0 0 1 forward_v I I I I #
coedge $-1 $157 $158 $95 $159 forward $57 $-1 #
coedge $-1 $160 $59 $161 $162 reversed $37 $-1 #
coedge $-1 $59 $160 $93 $159 reversed $37 $-1 #
coedge $-1 $163 $164 $59 $97 reversed $91 $-1 #
edge $-1 $165 -8.586561854958136 $166 8.586561854958136 $96 $167 forward 7 unknown #
face $-1 $168 $169 $21 $-1 $170 reversed single #
loop $-1 $-1 $171 $60 #
plane-surface $-1 -16.857791208572031 55.262083608015402 129.96797462300066 -1 0 0 0 0.5877852598018023 0.80901698891910034 forward_v I I I I #
coedge $-1 $172 $173 $174 $175 reversed $61 $-1 #
coedge $-1 $103 $63 $176 $177 reversed $40 $-1 #
coedge $-1 $63 $102 $172 $178 reversed $40 $-1 #
coedge $-1 $174 $179 $63 $105 forward $180 $-1 #
edge $-1 $181 2.40818955193566 $182 10.373860609402342 $104 $183 forward 7 unknown #
loop $-1 $-1 $111 $64 #
plane-surface $-1 -31.791530593848901 -15.588579709773299 32.450404482493695 0 0.5877852598018023 0.80901698891910034 1 0 0 forward_v I I I I #
loop $-1 $-1 $184 $42 #
coedge $-1 $109 $109 $110 $185 reversed $65 $-1 #
coedge $-1 $110 $110 $109 $185 forward $67 $-1 #
coedge $-1 $111 $111 $68 $112 forward $106 $-1 #
edge $-1 $186 7.8308727476068846e-016 $186 6.2831853071796013 $111 $187 forward 7 unknown #
loop $-1 $-1 $118 $69 #
plane-surface $-1 -31.791530593848901 -15.588579709773299 32.450404482493695 0 0.5877852598018023 0.80901698891910034 1 0 0 forward_v I I I I #
loop $-1 $-1 $188 $45 #
coedge $-1 $116 $116 $117 $189 reversed $70 $-1 #
coedge $-1 $117 $117 $116 $189 forward $72 $-1 #
coedge $-1 $118 $118 $73 $119 forward $113 $-1 #
edge $-1 $190 7.8308727476068846e-016 $190 6.2831853071796013 $118 $191 forward 7 unknown #
face $-1 $192 $193 $18 $-1 $194 reversed single #
loop $-1 $-1 $80 $74 #
plane-surface $-1 0 0 -8.586561854958136 0 0 1 1 0 0 forward_v I I I I #
coedge $-1 $195 $196 $128 $197 forward $75 $-1 #
coedge $-1 $198 $77 $199 $200 reversed $49 $-1 #
coedge $-1 $77 $198 $201 $202 forward $49 $-1 #
coedge $-1 $134 $133 $77 $127 forward $121 $-1 #
edge $-1 $203 -25.222852252072041 $204 25.222852252072041 $77 $205 forward 7 unknown #
coedge $-1 $79 $78 $123 $197 reversed $31 $-1 #
coedge $-1 $206 $207 $78 $130 forward $208 $-1 #
edge $-1 $209 -8.586561854958136 $135 8.586561854958136 $78 $210 forward 7 unknown #
coedge $-1 $211 $212 $79 $132 reversed $193 $-1 #
edge $-1 $213 -8.586561854958136 $136 8.586561854958136 $79 $214 forward 7 unknown #
coedge $-1 $126 $80 $212 $215 forward $121 $-1 #
coedge $-1 $80 $126 $206 $216 forward $121 $-1 #
vertex $-1 $81 $217 #
vertex $-1 $132 $218 #
straight-curve $-1 60.269173253578295 0 -8.586561854958136 0 -1 0 I I #
face $-1 $219 $150 $19 $-1 $220 reversed single #
loop $-1 $-1 $221 $82 #
plane-surface $-1 -66.499955903049909 -10.220516827634686 0 1 0 0 0 0 -1 forward_v I I I I #
coedge $-1 $222 $223 $224 $225 forward $83 $-1 #
coedge $-1 $226 $85 $222 $227 forward $53 $-1 #
coedge $-1 $85 $226 $148 $228 forward $53 $-1 #
edge $-1 $151 8.0497285421557692 $229 12.391305113113603 $85 $230 forward 7 unknown #
coedge $-1 $87 $86 $231 $232 forward $34 $-1 #
coedge $-1 $233 $234 $86 $147 forward $235 $-1 #
edge $-1 $236 -12.391305113113603 $152 -8.0497285421557692 $146 $237 forward 7 unknown #
coedge $-1 $238 $88 $143 $228 reversed $150 $-1 #
coedge $-1 $88 $238 $233 $239 reversed $150 $-1 #
loop $-1 $-1 $88 $138 #
vertex $-1 $144 $240 #
vertex $-1 $239 $241 #
straight-curve $-1 -60.269173253578295 -8.0497285421557692 0 0 0 1 I I #
face $-1 $242 $243 $20 $-1 $244 reversed single #
loop $-1 $-1 $245 $90 #
plane-surface $-1 63.384564578314105 -8.0497285421557692 0 0 -1 0 0 0 -1 forward_v I I I I #
coedge $-1 $246 $93 $247 $248 forward $57 $-1 #
coedge $-1 $93 $246 $163 $249 forward $57 $-1 #
edge $-1 $165 -12.391305113113603 $250 -8.0497285421557692 $93 $251 forward 7 unknown #
coedge $-1 $95 $94 $252 $253 forward $37 $-1 #
coedge $-1 $254 $255 $94 $162 forward $256 $-1 #
edge $-1 $257 8.0497285421557692 $166 12.391305113113603 $161 $258 forward 7 unknown #
coedge $-1 $259 $96 $158 $249 reversed $91 $-1 #
coedge $-1 $96 $259 $254 $260 reversed $91 $-1 #
vertex $-1 $159 $261 #
vertex $-1 $260 $262 #
straight-curve $-1 60.269173253578295 -12.391305113113603 0 0 0 1 I I #
face $-1 $-1 $180 $21 $-1 $263 forward single #
loop $-1 $-1 $264 $98 #
plane-surface $-1 0 25.222852252072041 0 0 -1 0 0 0 -1 forward_v I I I I #
coedge $-1 $265 $266 $267 $268 reversed $99 $-1 #
coedge $-1 $269 $101 $103 $178 forward $61 $-1 #
coedge $-1 $101 $269 $265 $270 forward $61 $-1 #
coedge $-1 $267 $104 $101 $175 forward $180 $-1 #
edge $-1 $182 -30.829504682201318 $271 -0.96202591164758111 $174 $272 forward 7 unknown #
coedge $-1 $273 $274 $102 $177 forward $169 $-1 #
edge $-1 $275 -62.184824356859906 $181 -56.397425456542194 $176 $276 forward 7 unknown #
edge $-1 $182 40.599593524312439 $275 50.445704504144082 $103 $277 forward 7 unknown #
coedge $-1 $104 $267 $273 $278 forward $180 $-1 #
loop $-1 $-1 $267 $168 #
vertex $-1 $177 $279 #
vertex $-1 $105 $280 #
straight-curve $-1 -46.72526997912577 27.631041804007701 8.5865618549581342 0 -1 0 I I #
coedge $-1 $184 $184 $-1 $281 reversed $108 $-1 #
edge $-1 $282 0 $282 6.2831853071796004 $109 $283 forward 7 unknown #
vertex $-1 $112 $284 #
ellipse-curve $-1 -38.191704616110414 21.240016723338705 5.6928624047992784 0 0.5877852598018023 0.80901698891910034 2 0 0 1 I I #
coedge $-1 $188 $188 $-1 $285 reversed $115 $-1 #
edge $-1 $286 0 $286 6.2831853071796004 $116 $287 forward 7 unknown #
vertex $-1 $119 $288 #
ellipse-curve $-1 -25.391356571587387 21.240016723338705 5.6928624047992784 0 0.5877852598018023 0.80901698891910034 2 0 0 1 I I #
face $-1 $-1 $208 $18 $-1 $289 reversed single #
loop $-1 $-1 $199 $120 #
plane-surface $-1 0 -25.222852252072041 0 0 1 0 0 0 1 forward_v I I I I #
coedge $-1 $290 $123 $207 $291 forward $75 $-1 #
coedge $-1 $123 $290 $211 $292 forward $75 $-1 #
edge $-1 $213 -25.222852252072041 $209 25.222852252072041 $128 $293 forward 7 unknown #
coedge $-1 $125 $124 $290 $294 reversed $49 $-1 #
coedge $-1 $212 $211 $124 $200 forward $193 $-1 #
edge $-1 $295 -8.586561854958136 $203 8.586561854958136 $124 $296 forward 7 unknown #
coedge $-1 $207 $206 $125 $202 reversed $208 $-1 #
edge $-1 $297 -8.586561854958136 $204 8.586561854958136 $201 $298 forward 7 unknown #
vertex $-1 $127 $299 #
vertex $-1 $216 $300 #
straight-curve $-1 -60.269173253578295 0 -8.586561854958136 0 1 0 I I #
coedge $-1 $201 $129 $134 $216 reversed $208 $-1 #
coedge $-1 $129 $201 $195 $291 reversed $208 $-1 #
loop $-1 $-1 $129 $192 #
vertex $-1 $197 $301 #
straight-curve $-1 60.269173253578295 25.222852252072041 0 0 0 -1 I I #
coedge $-1 $199 $131 $196 $292 reversed $193 $-1 #
coedge $-1 $131 $199 $133 $215 reversed $193 $-1 #
vertex $-1 $197 $302 #
straight-curve $-1 60.269173253578295 -25.222852252072041 0 0 0 -1 I I #
edge $-1 $136 -60.269173253578295 $203 60.269173253578295 $212 $303 forward 7 unknown #
edge $-1 $204 -60.269173253578295 $135 60.269173253578295 $206 $304 forward 7 unknown #
point $-1 60.269173253578295 25.222852252072041 -8.586561854958136 #
point $-1 60.269173253578295 -25.222852252072041 -8.586561854958136 #
face $-1 $-1 $235 $19 $-1 $305 forward single #
plane-surface $-1 -63.384564578314105 -8.0497285421557692 0 0 -1 0 0 0 -1 forward_v I I I I #
coedge $-1 $306 $307 $238 $308 forward $139 $-1 #
coedge $-1 $231 $141 $142 $227 reversed $83 $-1 #
coedge $-1 $141 $231 $234 $309 reversed $83 $-1 #
coedge $-1 $307 $306 $141 $225 reversed $139 $-1 #
edge $-1 $310 -8.586561854958136 $311 8.586561854958136 $224 $312 forward 7 unknown #
coedge $-1 $143 $142 $306 $313 forward $53 $-1 #
edge $-1 $229 -3.1153913247358105 $311 3.1153913247358034 $222 $314 forward 7 unknown #
edge $-1 $315 -3.1153913247358034 $151 3.1153913247358105 $148 $316 forward 7 unknown #
vertex $-1 $227 $317 #
straight-curve $-1 -60.269173253578295 0 -8.586561854958136 0 -1 0 I I #
coedge $-1 $223 $222 $145 $232 reversed $83 $-1 #
edge $-1 $236 -8.586561854958136 $229 8.586561854958136 $231 $318 forward 7 unknown #
coedge $-1 $319 $146 $149 $239 forward $235 $-1 #
coedge $-1 $146 $319 $223 $309 forward $235 $-1 #
loop $-1 $-1 $146 $219 #
vertex $-1 $147 $320 #
straight-curve $-1 -60.269173253578295 0 8.586561854958136 0 1 0 I I #
coedge $-1 $149 $148 $221 $308 reversed $150 $-1 #
edge $-1 $152 -3.1153913247358105 $321 3.1153913247358034 $149 $322 forward 7 unknown #
point $-1 -60.269173253578295 -8.0497285421557692 -8.586561854958136 #
point $-1 -60.269173253578295 -8.0497285421557692 8.586561854958136 #
face $-1 $-1 $256 $20 $-1 $323 forward single #
loop $-1 $-1 $324 $154 #
plane-surface $-1 66.499955903049909 -10.220516827634686 0 -1 0 0 0 0 1 forward_v I I I I #
coedge $-1 $247 $325 $326 $327 forward $155 $-1 #
coedge $-1 $158 $157 $328 $329 forward $57 $-1 #
coedge $-1 $252 $245 $157 $248 reversed $155 $-1 #
edge $-1 $250 -3.1153913247358105 $330 3.1153913247358034 $247 $331 forward 7 unknown #
edge $-1 $332 -3.1153913247358034 $165 3.1153913247358105 $163 $333 forward 7 unknown #
vertex $-1 $248 $334 #
straight-curve $-1 60.269173253578295 0 -8.586561854958136 0 1 0 I I #
coedge $-1 $325 $247 $160 $253 reversed $155 $-1 #
edge $-1 $257 -8.586561854958136 $250 8.586561854958136 $252 $335 forward 7 unknown #
coedge $-1 $336 $161 $164 $260 forward $256 $-1 #
coedge $-1 $161 $336 $325 $337 forward $256 $-1 #
loop $-1 $-1 $161 $242 #
vertex $-1 $162 $338 #
straight-curve $-1 60.269173253578295 0 8.586561854958136 0 -1 0 I I #
coedge $-1 $164 $163 $324 $339 reversed $91 $-1 #
edge $-1 $166 -3.1153913247358105 $340 3.1153913247358034 $164 $341 forward 7 unknown #
point $-1 60.269173253578295 -12.391305113113603 -8.586561854958136 #
point $-1 60.269173253578295 -12.391305113113603 8.586561854958136 #
plane-surface $-1 0 0 8.586561854958136 0 0 1 1 0 0 forward_v I I I I #
coedge $-1 $274 $273 $266 $342 forward $169 $-1 #
coedge $-1 $266 $171 $173 $270 reversed $99 $-1 #
coedge $-1 $171 $265 $264 $342 reversed $99 $-1 #
coedge $-1 $179 $174 $171 $268 forward $180 $-1 #
edge $-1 $271 -10.373860609402342 $343 -2.40818955193566 $267 $344 forward 7 unknown #
coedge $-1 $173 $172 $274 $345 reversed $61 $-1 #
edge $-1 $346 -50.445704504144082 $271 -40.599593524312439 $265 $347 forward 7 unknown #
vertex $-1 $175 $348 #
straight-curve $-1 -15.89576529692445 17.257181194605351 8.5865618549581377 1 0 0 I I #
coedge $-1 $264 $176 $179 $278 reversed $169 $-1 #
coedge $-1 $176 $264 $269 $345 forward $169 $-1 #
vertex $-1 $177 $349 #
straight-curve $-1 -46.72526997912577 25.222852252072041 64.983987311500329 0 0 1 I I #
straight-curve $-1 -46.72526997912577 -15.588579709773299 32.450404482493695 0 0.80901698891910034 -0.5877852598018023 I I #
edge $-1 $343 16.857791208572031 $181 46.72526997912577 $273 $350 forward 7 unknown #
point $-1 -46.72526997912577 25.222852252072041 8.586561854958136 #
point $-1 -46.72526997912577 17.257181194605359 8.5865618549581342 #
edge $-1 $351 1 $351 0 $184 $-1 forward 7 unknown #
vertex $-1 $185 $352 #
ellipse-curve $-1 -38.191704616110414 19.011286848195567 2.6252789589157723 0 0.5877852598018023 0.80901698891910034 2 0 0 1 I I #
point $-1 -36.191704616110414 21.240016723338705 5.6928624047992757 #
edge $-1 $353 1 $353 0 $188 $-1 forward 7 unknown #
vertex $-1 $189 $354 #
ellipse-curve $-1 -25.391356571587387 19.011286848195567 2.6252789589157723 0 0.5877852598018023 0.80901698891910034 2 0 0 1 I I #
point $-1 -23.391356571587387 21.240016723338705 5.6928624047992757 #
plane-surface $-1 0 25.222852252072041 0 0 -1 0 0 0 -1 forward_v I I I I #
coedge $-1 $196 $195 $198 $294 forward $75 $-1 #
edge $-1 $209 -60.269173253578295 $297 60.269173253578295 $207 $355 forward 7 unknown #
edge $-1 $295 -60.269173253578295 $213 60.269173253578295 $211 $356 forward 7 unknown #
straight-curve $-1 60.269173253578295 0 8.586561854958136 0 1 0 I I #
edge $-1 $297 -25.222852252072041 $295 25.222852252072041 $198 $357 forward 7 unknown #
vertex $-1 $294 $358 #
straight-curve $-1 -60.269173253578295 -25.222852252072041 0 0 0 -1 I I #
vertex $-1 $291 $359 #
straight-curve $-1 -60.269173253578295 25.222852252072041 0 0 0 -1 I I #
point $-1 -60.269173253578295 -25.222852252072041 -8.586561854958136 #
point $-1 -60.269173253578295 25.222852252072041 -8.586561854958136 #
point $-1 60.269173253578295 25.222852252072041 8.586561854958136 #
point $-1 60.269173253578295 -25.222852252072041 8.586561854958136 #
straight-curve $-1 0 -25.222852252072041 -8.586561854958136 -1 0 0 I I #
straight-curve $-1 0 25.222852252072041 -8.586561854958136 1 0 0 I I #
plane-surface $-1 0 0 8.586561854958136 0 0 1 1 0 0 forward_v I I I I #
coedge $-1 $224 $221 $226 $313 reversed $139 $-1 #
coedge $-1 $221 $224 $319 $360 reversed $139 $-1 #
edge $-1 $321 -8.586561854958136 $315 8.586561854958136 $238 $361 forward 7 unknown #
edge $-1 $310 -3.1153913247358034 $236 3.1153913247358105 $223 $362 forward 7 unknown #
vertex $-1 $360 $363 #
vertex $-1 $313 $364 #
straight-curve $-1 -66.499955903049909 -12.391305113113603 0 0 0 -1 I I #
edge $-1 $311 -2.1707882854789169 $315 2.1707882854789169 $306 $365 forward 7 unknown #
straight-curve $-1 -63.384564578314105 -12.391305113113603 -8.586561854958136 -1 0 0 I I #
vertex $-1 $228 $366 #
straight-curve $-1 -63.384564578314105 -8.0497285421557692 -8.586561854958136 1 0 0 I I #
point $-1 -60.269173253578295 -12.391305113113603 -8.586561854958136 #
straight-curve $-1 -60.269173253578295 -12.391305113113603 0 0 0 -1 I I #
coedge $-1 $234 $233 $307 $360 forward $235 $-1 #
point $-1 -60.269173253578295 -12.391305113113603 8.586561854958136 #
vertex $-1 $239 $367 #
straight-curve $-1 -63.384564578314105 -8.0497285421557692 8.586561854958136 -1 0 0 I I #
plane-surface $-1 0 0 8.586561854958136 0 0 1 1 0 0 forward_v I I I I #
coedge $-1 $328 $368 $259 $339 forward $243 $-1 #
coedge $-1 $245 $252 $255 $337 reversed $155 $-1 #
coedge $-1 $368 $328 $245 $327 reversed $243 $-1 #
edge $-1 $369 -8.586561854958136 $330 8.586561854958136 $326 $370 forward 7 unknown #
coedge $-1 $326 $324 $246 $329 reversed $243 $-1 #
edge $-1 $330 -2.1707882854789169 $332 2.1707882854789169 $328 $371 forward 7 unknown #
vertex $-1 $329 $372 #
straight-curve $-1 63.384564578314105 -8.0497285421557692 -8.586561854958136 1 0 0 I I #
vertex $-1 $339 $373 #
straight-curve $-1 63.384564578314105 -12.391305113113603 -8.586561854958136 -1 0 0 I I #
point $-1 60.269173253578295 -8.0497285421557692 -8.586561854958136 #
straight-curve $-1 60.269173253578295 -8.0497285421557692 0 0 0 -1 I I #
coedge $-1 $255 $254 $368 $374 forward $256 $-1 #
edge $-1 $369 -3.1153913247358034 $257 3.1153913247358105 $325 $375 forward 7 unknown #
point $-1 60.269173253578295 -8.0497285421557692 8.586561854958136 #
edge $-1 $340 -8.586561854958136 $332 8.586561854958136 $324 $376 forward 7 unknown #
vertex $-1 $374 $377 #
straight-curve $-1 63.384564578314105 -12.391305113113603 8.586561854958136 1 0 0 I I #
edge $-1 $343 56.397425456542194 $346 62.184824356859906 $264 $378 forward 7 unknown #
vertex $-1 $278 $379 #
straight-curve $-1 -16.857791208572031 27.631041804007701 8.5865618549581342 0 1 0 I I #
edge $-1 $346 0.96202591164758111 $275 30.829504682201318 $274 $380 forward 7 unknown #
vertex $-1 $345 $381 #
straight-curve $-1 -16.857791208572031 -15.588579709773299 32.450404482493695 0 -0.80901698891910034 0.5877852598018023 I I #
point $-1 -16.857791208572031 17.257181194605359 8.5865618549581342 #
point $-1 -46.72526997912577 25.222852252072045 2.7991629546404191 #
straight-curve $-1 0 25.222852252072041 8.586561854958136 -1 0 0 I I #
vertex $-1 $281 $382 #
point $-1 -36.191704616110414 19.011286848195567 2.6252789589157723 #
vertex $-1 $285 $383 #
point $-1 -23.391356571587387 19.011286848195567 2.6252789589157723 #
straight-curve $-1 0 25.222852252072041 8.586561854958136 -1 0 0 I I #
straight-curve $-1 0 -25.222852252072041 8.586561854958136 1 0 0 I I #
straight-curve $-1 -60.269173253578295 0 8.586561854958136 0 -1 0 I I #
point $-1 -60.269173253578295 -25.222852252072041 8.586561854958136 #
point $-1 -60.269173253578295 25.222852252072041 8.586561854958136 #
edge $-1 $321 -2.1707882854789169 $310 2.1707882854789169 $307 $384 forward 7 unknown #
straight-curve $-1 -66.499955903049909 -8.0497285421557692 0 0 0 -1 I I #
straight-curve $-1 -63.384564578314105 -12.391305113113603 8.586561854958136 1 0 0 I I #
point $-1 -66.499955903049909 -12.391305113113603 8.586561854958136 #
point $-1 -66.499955903049909 -12.391305113113603 -8.586561854958136 #
straight-curve $-1 -66.499955903049909 -10.220516827634686 -8.586561854958136 0 1 0 I I #
point $-1 -66.499955903049909 -8.0497285421557692 -8.586561854958136 #
point $-1 -66.499955903049909 -8.0497285421557692 8.586561854958136 #
coedge $-1 $324 $326 $336 $374 reversed $243 $-1 #
vertex $-1 $374 $385 #
straight-curve $-1 66.499955903049909 -8.0497285421557692 0 0 0 -1 I I #
straight-curve $-1 66.499955903049909 -10.220516827634686 -8.586561854958136 0 -1 0 I I #
point $-1 66.499955903049909 -8.0497285421557692 -8.586561854958136 #
point $-1 66.499955903049909 -12.391305113113603 -8.586561854958136 #
edge $-1 $340 -2.1707882854789169 $369 2.1707882854789169 $368 $386 forward 7 unknown #
straight-curve $-1 63.384564578314105 -8.0497285421557692 8.586561854958136 -1 0 0 I I #
straight-curve $-1 66.499955903049909 -12.391305113113603 0 0 0 -1 I I #
point $-1 66.499955903049909 -12.391305113113603 8.586561854958136 #
straight-curve $-1 -16.857791208572031 25.222852252072041 64.983987311500329 0 0 -1 I I #
point $-1 -16.857791208572031 25.222852252072041 8.586561854958136 #
straight-curve $-1 -15.89576529692445 25.222852252072045 2.7991629546404173 -1 0 0 I I #
point $-1 -16.857791208572031 25.222852252072045 2.7991629546404191 #
point $-1 -38.191704616110414 17.835716328591964 1.0072449810775719 #
point $-1 -25.391356571587387 17.835716328591964 1.0072449810775719 #
straight-curve $-1 -66.499955903049909 -10.220516827634686 8.586561854958136 0 -1 0 I I #
point $-1 66.499955903049909 -8.0497285421557692 8.586561854958136 #
straight-curve $-1 66.499955903049909 -10.220516827634686 8.586561854958136 0 1 0 I I #
End-of-ACIS-data 