500 0 12 0           
7 Unknown 11 ACIS 5.0 NT 24 Thu Mar 25 22:21:41 1999 
-1 9.9999999999999995e-007 1e-010 
body $-1 $12 $-1 $13 #
body $-1 $14 $-1 $15 #
body $-1 $16 $-1 $17 #
body $-1 $18 $-1 $19 #
body $-1 $20 $-1 $21 #
body $-1 $22 $-1 $23 #
body $-1 $24 $-1 $25 #
body $-1 $26 $-1 $27 #
body $-1 $28 $-1 $29 #
body $-1 $30 $-1 $31 #
body $-1 $32 $-1 $33 #
body $-1 $34 $-1 $35 #
lump $-1 $-1 $36 $0 #
transform $-1 1 0 0 0 1 0 0 0 1 67.431257057405318 46.96480969228147 18.70221939111806 1 rotate no_reflect no_shear #
lump $-1 $-1 $37 $1 #
transform $-1 1 0 0 0 1 0 0 0 1 67.431257057405318 46.96480969228147 18.70221939111806 1 rotate no_reflect no_shear #
lump $-1 $-1 $38 $2 #
transform $-1 1 0 0 0 1 0 0 0 1 67.431257057405318 46.96480969228147 18.70221939111806 1 rotate no_reflect no_shear #
lump $-1 $-1 $39 $3 #
transform $-1 1 0 0 0 1 0 0 0 1 67.431257057405318 46.96480969228147 18.70221939111806 1 rotate no_reflect no_shear #
lump $-1 $-1 $40 $4 #
transform $-1 1 0 0 0 1 0 0 0 1 67.431257057405318 46.96480969228147 18.70221939111806 1 rotate no_reflect no_shear #
lump $-1 $-1 $41 $5 #
transform $-1 1 0 0 0 1 0 0 0 1 67.431257057405318 46.96480969228147 18.70221939111806 1 rotate no_reflect no_shear #
lump $-1 $-1 $42 $6 #
transform $-1 1 0 0 0 1 0 0 0 1 67.431257057405318 46.96480969228147 18.70221939111806 1 rotate no_reflect no_shear #
lump $-1 $-1 $43 $7 #
transform $-1 1 0 0 0 1 0 0 0 1 67.431257057405318 46.96480969228147 18.70221939111806 1 rotate no_reflect no_shear #
lump $-1 $-1 $44 $8 #
transform $-1 1 0 0 0 1 0 0 0 1 67.431257057405318 46.96480969228147 18.70221939111806 1 rotate no_reflect no_shear #
lump $-1 $-1 $45 $9 #
transform $-1 1 0 0 0 1 0 0 0 1 67.431257057405318 46.96480969228147 18.70221939111806 1 rotate no_reflect no_shear #
lump $-1 $-1 $46 $10 #
transform $-1 1 0 0 0 1 0 0 0 1 67.431257057405318 46.96480969228147 18.70221939111806 1 rotate no_reflect no_shear #
lump $-1 $-1 $47 $11 #
transform $-1 1 0 0 0 1 0 0 0 1 67.431257057405318 46.96480969228147 18.70221939111806 1 rotate no_reflect no_shear #
shell $-1 $-1 $-1 $48 $-1 $12 #
shell $-1 $-1 $-1 $49 $-1 $14 #
shell $-1 $-1 $-1 $50 $-1 $16 #
shell $-1 $-1 $-1 $51 $-1 $18 #
shell $-1 $-1 $-1 $52 $-1 $20 #
shell $-1 $-1 $-1 $53 $-1 $22 #
shell $-1 $-1 $-1 $54 $-1 $24 #
shell $-1 $-1 $-1 $55 $-1 $26 #
shell $-1 $-1 $-1 $56 $-1 $28 #
shell $-1 $-1 $-1 $57 $-1 $30 #
shell $-1 $-1 $-1 $58 $-1 $32 #
shell $-1 $-1 $-1 $59 $-1 $34 #
face $-1 $60 $61 $36 $-1 $62 forward single #
face $-1 $63 $64 $37 $-1 $65 reversed single #
face $-1 $66 $67 $38 $-1 $68 reversed single #
face $-1 $69 $70 $39 $-1 $71 forward single #
face $-1 $72 $73 $40 $-1 $74 reversed single #
face $-1 $75 $76 $41 $-1 $77 forward single #
face $-1 $78 $79 $42 $-1 $80 forward single #
face $-1 $81 $82 $43 $-1 $83 forward single #
face $-1 $84 $85 $44 $-1 $86 reversed single #
face $-1 $87 $88 $45 $-1 $89 forward single #
face $-1 $90 $91 $46 $-1 $92 forward single #
face $-1 $93 $94 $47 $-1 $95 forward single #
face $-1 $96 $97 $36 $-1 $98 reversed single #
loop $-1 $-1 $99 $48 #
plane-surface $-1 0 0 18.70221939111806 0 0 1 1 0 0 forward_v I I I I #
face $-1 $100 $101 $37 $-1 $102 reversed single #
loop $-1 $-1 $103 $49 #
plane-surface $-1 -56.100749711649151 -33.026753555658111 0 0 1 0 0 0 1 forward_v I I I I #
face $-1 $104 $105 $38 $-1 $106 reversed single #
loop $-1 $-1 $107 $50 #
plane-surface $-1 -44.770242365892983 87.123468234203102 161.28610332468264 1 0 0 0 -0.75470958851134928 -0.65605901945558964 forward_v I I I I #
face $-1 $108 $109 $39 $-1 $110 forward single #
loop $-1 $111 $112 $51 #
cone-surface $-1 -31.880612732293613 38.665274954799195 9.4371025761581464 0 -0.75470958851134928 -0.65605901945558964 2.5 0 0 1 I I 0 1 2.5 forward I I I I #
face $-1 $113 $114 $40 $-1 $115 reversed single #
loop $-1 $-1 $116 $52 #
plane-surface $-1 11.330507345756175 -157.43771492433015 78.730724212484176 -1 0 0 0 -0.81915205242281985 0.57357642473473569 forward_v I I I I #
face $-1 $117 $118 $41 $-1 $119 forward single #
loop $-1 $120 $121 $53 #
cone-surface $-1 1.4376545379354155 -40.142099385715227 9.5094327168288597 0 0.81915205242281985 -0.57357642473473569 1 0 0 1 I I 0 1 1 forward I I I I #
face $-1 $122 $123 $42 $-1 $124 forward single #
loop $-1 $125 $126 $54 #
cone-surface $-1 5.1474743408682002 -40.142099385715227 9.5094327168288597 0 0.81915205242281985 -0.57357642473473569 1 0 0 1 I I 0 1 1 forward I I I I #
face $-1 $127 $128 $43 $-1 $129 forward single #
loop $-1 $130 $131 $55 #
cone-surface $-1 8.8572941438009849 -40.142099385715227 9.5094327168288597 0 0.81915205242281985 -0.57357642473473569 1 0 0 1 I I 0 1 1 forward I I I I #
face $-1 $132 $133 $44 $-1 $134 reversed single #
loop $-1 $-1 $135 $56 #
plane-surface $-1 23.696573355532124 -157.43771492433015 78.730724212484176 -1 0 0 0 -0.81915205242281985 0.57357642473473569 forward_v I I I I #
face $-1 $136 $137 $45 $-1 $138 forward single #
loop $-1 $139 $140 $57 #
cone-surface $-1 13.803720547711364 -40.142099385715227 9.5094327168288597 0 0.81915205242281985 -0.57357642473473569 1 0 0 1 I I 0 1 1 forward I I I I #
face $-1 $141 $142 $46 $-1 $143 forward single #
loop $-1 $144 $145 $58 #
cone-surface $-1 17.513540350644149 -40.142099385715227 9.5094327168288597 0 0.81915205242281985 -0.57357642473473569 1 0 0 1 I I 0 1 1 forward I I I I #
face $-1 $146 $147 $47 $-1 $148 forward single #
loop $-1 $149 $150 $59 #
cone-surface $-1 21.223360153576934 -40.142099385715227 9.5094327168288597 0 0.81915205242281985 -0.57357642473473569 1 0 0 1 I I 0 1 1 forward I I I I #
face $-1 $151 $152 $36 $-1 $153 reversed single #
loop $-1 $-1 $154 $60 #
plane-surface $-1 0 0 -18.70221939111806 0 0 1 1 0 0 forward_v I I I I #
coedge $-1 $155 $156 $157 $158 forward $61 $-1 #
face $-1 $159 $160 $37 $-1 $161 reversed single #
loop $-1 $-1 $162 $63 #
plane-surface $-1 -56.100749711649151 -26.839559163629609 0 0 -1 0 0 0 -1 forward_v I I I I #
coedge $-1 $163 $164 $165 $166 reversed $64 $-1 #
face $-1 $167 $168 $38 $-1 $169 reversed single #
loop $-1 $-1 $170 $66 #
plane-surface $-1 -31.880612732293613 -14.658564298991664 72.808334553204361 0 0.75470958851134928 0.65605901945558964 1 0 0 forward_v I I I I #
coedge $-1 $171 $172 $173 $174 reversed $67 $-1 #
face $-1 $-1 $175 $39 $-1 $176 forward single #
loop $-1 $177 $178 $69 #
cone-surface $-1 -31.880612732293613 36.717176654793398 7.7436466032111646 0 -0.75470958851134928 -0.65605901945558964 1.25 0 0 1 I I -0.70710678118654746 0.70710678118654746 1.25 forward I I I I #
loop $-1 $-1 $179 $51 #
coedge $-1 $112 $112 $180 $181 reversed $70 $-1 #
face $-1 $182 $183 $40 $-1 $184 reversed single #
loop $-1 $-1 $185 $72 #
plane-surface $-1 5.1474743408682002 -46.964809692281506 1.3767655357732593 0 -0.81915205242281985 0.57357642473473569 1 0 0 forward_v I I I I #
coedge $-1 $186 $187 $188 $189 reversed $73 $-1 #
face $-1 $-1 $190 $41 $-1 $191 forward single #
loop $-1 $192 $193 $75 #
cone-surface $-1 1.4376545379354155 -38.975519566070929 8.6925847578446955 0 0.81915205242281985 -0.57357642473473569 0.5 0 0 1 I I -0.70710678118654746 0.70710678118654746 0.5 forward I I I I #
loop $-1 $-1 $194 $53 #
coedge $-1 $121 $121 $195 $196 reversed $76 $-1 #
face $-1 $-1 $197 $42 $-1 $198 forward single #
loop $-1 $199 $200 $78 #
cone-surface $-1 5.1474743408682002 -38.975519566070929 8.6925847578446955 0 0.81915205242281985 -0.57357642473473569 0.5 0 0 1 I I -0.70710678118654746 0.70710678118654746 0.5 forward I I I I #
loop $-1 $-1 $201 $54 #
coedge $-1 $126 $126 $202 $203 reversed $79 $-1 #
face $-1 $-1 $204 $43 $-1 $205 forward single #
loop $-1 $206 $207 $81 #
cone-surface $-1 8.8572941438009849 -38.975519566070929 8.6925847578446955 0 0.81915205242281985 -0.57357642473473569 0.5 0 0 1 I I -0.70710678118654746 0.70710678118654746 0.5 forward I I I I #
loop $-1 $-1 $208 $55 #
coedge $-1 $131 $131 $209 $210 reversed $82 $-1 #
face $-1 $211 $212 $44 $-1 $213 reversed single #
loop $-1 $-1 $214 $84 #
plane-surface $-1 5.1474743408682002 -46.964809692281506 1.3767655357732593 0 -0.81915205242281985 0.57357642473473569 1 0 0 forward_v I I I I #
coedge $-1 $215 $216 $217 $218 reversed $85 $-1 #
face $-1 $-1 $219 $45 $-1 $220 forward single #
loop $-1 $221 $222 $87 #
cone-surface $-1 13.803720547711364 -38.975519566070929 8.6925847578446955 0 0.81915205242281985 -0.57357642473473569 0.5 0 0 1 I I -0.70710678118654746 0.70710678118654746 0.5 forward I I I I #
loop $-1 $-1 $223 $57 #
coedge $-1 $140 $140 $224 $225 reversed $88 $-1 #
face $-1 $-1 $226 $46 $-1 $227 forward single #
loop $-1 $228 $229 $90 #
cone-surface $-1 17.513540350644149 -38.975519566070929 8.6925847578446955 0 0.81915205242281985 -0.57357642473473569 0.5 0 0 1 I I -0.70710678118654746 0.70710678118654746 0.5 forward I I I I #
loop $-1 $-1 $230 $58 #
coedge $-1 $145 $145 $231 $232 reversed $91 $-1 #
face $-1 $-1 $233 $47 $-1 $234 forward single #
loop $-1 $235 $236 $93 #
cone-surface $-1 21.223360153576934 -38.975519566070929 8.6925847578446955 0 0.81915205242281985 -0.57357642473473569 0.5 0 0 1 I I -0.70710678118654746 0.70710678118654746 0.5 forward I I I I #
loop $-1 $-1 $237 $59 #
coedge $-1 $150 $150 $238 $239 reversed $94 $-1 #
face $-1 $240 $241 $36 $-1 $242 reversed single #
loop $-1 $-1 $243 $96 #
plane-surface $-1 0 -46.96480969228147 0 0 1 0 0 0 1 forward_v I I I I #
coedge $-1 $244 $245 $246 $247 forward $97 $-1 #
coedge $-1 $248 $99 $249 $250 forward $61 $-1 #
coedge $-1 $99 $248 $251 $252 forward $61 $-1 #
coedge $-1 $253 $254 $99 $158 reversed $255 $-1 #
edge $-1 $256 -46.96480969228147 $257 46.96480969228147 $157 $258 forward 7 unknown #
face $-1 $259 $260 $37 $-1 $261 reversed single #
loop $-1 $-1 $262 $100 #
plane-surface $-1 -44.770242365892983 -29.93315635964386 0 -1 0 0 0 0 1 forward_v I I I I #
coedge $-1 $263 $264 $265 $266 forward $101 $-1 #
coedge $-1 $267 $103 $268 $269 reversed $64 $-1 #
coedge $-1 $103 $267 $270 $271 reversed $64 $-1 #
coedge $-1 $272 $273 $103 $166 forward $274 $-1 #
edge $-1 $275 -18.70221939111806 $276 18.70221939111806 $165 $277 forward 7 unknown #
face $-1 $278 $279 $38 $-1 $280 reversed single #
loop $-1 $-1 $281 $104 #
plane-surface $-1 -18.990983098694244 87.123468234203102 161.28610332468264 -1 0 0 0 0.75470958851134928 0.65605901945558964 forward_v I I I I #
coedge $-1 $282 $283 $284 $285 reversed $105 $-1 #
coedge $-1 $172 $107 $286 $287 reversed $67 $-1 #
coedge $-1 $107 $171 $282 $288 reversed $67 $-1 #
coedge $-1 $284 $289 $107 $174 forward $290 $-1 #
edge $-1 $291 -3.4030755751799191 $292 11.186571271051449 $173 $293 forward 7 unknown #
loop $-1 $-1 $180 $108 #
plane-surface $-1 -31.880612732293613 -14.658564298991664 72.808334553204361 0 0.75470958851134928 0.65605901945558964 1 0 0 forward_v I I I I #
loop $-1 $-1 $294 $69 #
coedge $-1 $178 $178 $179 $295 reversed $109 $-1 #
coedge $-1 $179 $179 $178 $295 forward $111 $-1 #
coedge $-1 $180 $180 $112 $181 forward $175 $-1 #
edge $-1 $296 -3.0489192692880816e-016 $296 6.2831853071796004 $180 $297 forward 7 unknown #
face $-1 $298 $299 $40 $-1 $300 forward single #
loop $-1 $-1 $301 $113 #
plane-surface $-1 -1.0355586640197743 -157.43771492433015 78.730724212484176 1 0 0 0 0.81915205242281985 -0.57357642473473569 forward_v I I I I #
coedge $-1 $302 $303 $304 $305 reversed $114 $-1 #
coedge $-1 $187 $116 $306 $307 reversed $73 $-1 #
coedge $-1 $116 $186 $302 $308 reversed $73 $-1 #
coedge $-1 $304 $309 $116 $189 forward $299 $-1 #
edge $-1 $310 31.754047769883606 $311 43.885460796150284 $188 $312 forward 7 unknown #
loop $-1 $-1 $195 $117 #
plane-surface $-1 5.1474743408682002 -46.964809692281506 1.3767655357732593 0 -0.81915205242281985 0.57357642473473569 1 0 0 forward_v I I I I #
loop $-1 $-1 $313 $75 #
coedge $-1 $193 $193 $194 $314 reversed $118 $-1 #
coedge $-1 $194 $194 $193 $314 forward $120 $-1 #
coedge $-1 $195 $195 $121 $196 forward $190 $-1 #
edge $-1 $315 3.2060653224703949e-015 $315 6.283185307179604 $195 $316 forward 7 unknown #
loop $-1 $-1 $202 $122 #
plane-surface $-1 5.1474743408682002 -46.964809692281506 1.3767655357732593 0 -0.81915205242281985 0.57357642473473569 1 0 0 forward_v I I I I #
loop $-1 $-1 $317 $78 #
coedge $-1 $200 $200 $201 $318 reversed $123 $-1 #
coedge $-1 $201 $201 $200 $318 forward $125 $-1 #
coedge $-1 $202 $202 $126 $203 forward $197 $-1 #
edge $-1 $319 3.2060653224703949e-015 $319 6.283185307179604 $202 $320 forward 7 unknown #
loop $-1 $-1 $209 $127 #
plane-surface $-1 5.1474743408682002 -46.964809692281506 1.3767655357732593 0 -0.81915205242281985 0.57357642473473569 1 0 0 forward_v I I I I #
loop $-1 $-1 $321 $81 #
coedge $-1 $207 $207 $208 $322 reversed $128 $-1 #
coedge $-1 $208 $208 $207 $322 forward $130 $-1 #
coedge $-1 $209 $209 $131 $210 forward $204 $-1 #
edge $-1 $323 3.2060653224703949e-015 $323 6.283185307179604 $209 $324 forward 7 unknown #
face $-1 $325 $326 $44 $-1 $327 forward single #
loop $-1 $-1 $328 $132 #
plane-surface $-1 0 -46.96480969228147 0 0 1 0 0 0 1 forward_v I I I I #
coedge $-1 $329 $330 $331 $332 reversed $133 $-1 #
coedge $-1 $216 $135 $333 $334 reversed $85 $-1 #
coedge $-1 $135 $215 $335 $336 reversed $85 $-1 #
coedge $-1 $337 $328 $135 $218 forward $212 $-1 #
edge $-1 $338 -37.988596570468779 $339 -20.663142715124028 $217 $340 forward 7 unknown #
loop $-1 $-1 $224 $136 #
plane-surface $-1 5.1474743408682002 -46.964809692281506 1.3767655357732593 0 -0.81915205242281985 0.57357642473473569 1 0 0 forward_v I I I I #
loop $-1 $-1 $341 $87 #
coedge $-1 $222 $222 $223 $342 reversed $137 $-1 #
coedge $-1 $223 $223 $222 $342 forward $139 $-1 #
coedge $-1 $224 $224 $140 $225 forward $219 $-1 #
edge $-1 $343 3.2060653224703949e-015 $343 6.283185307179604 $224 $344 forward 7 unknown #
loop $-1 $-1 $231 $141 #
plane-surface $-1 5.1474743408682002 -46.964809692281506 1.3767655357732593 0 -0.81915205242281985 0.57357642473473569 1 0 0 forward_v I I I I #
loop $-1 $-1 $345 $90 #
coedge $-1 $229 $229 $230 $346 reversed $142 $-1 #
coedge $-1 $230 $230 $229 $346 forward $144 $-1 #
coedge $-1 $231 $231 $145 $232 forward $226 $-1 #
edge $-1 $347 3.2060653224703949e-015 $347 6.283185307179604 $231 $348 forward 7 unknown #
loop $-1 $-1 $238 $146 #
plane-surface $-1 5.1474743408682002 -46.964809692281506 1.3767655357732593 0 -0.81915205242281985 0.57357642473473569 1 0 0 forward_v I I I I #
loop $-1 $-1 $349 $93 #
coedge $-1 $236 $236 $237 $350 reversed $147 $-1 #
coedge $-1 $237 $237 $236 $350 forward $149 $-1 #
coedge $-1 $238 $238 $150 $239 forward $233 $-1 #
edge $-1 $351 3.2060653224703949e-015 $351 6.283185307179604 $238 $352 forward 7 unknown #
face $-1 $353 $354 $36 $-1 $355 reversed single #
loop $-1 $-1 $356 $151 #
plane-surface $-1 -67.431257057405318 0 0 1 0 0 0 0 -1 forward_v I I I I #
coedge $-1 $357 $251 $358 $359 forward $152 $-1 #
coedge $-1 $360 $154 $357 $361 forward $97 $-1 #
coedge $-1 $154 $360 $362 $363 forward $97 $-1 #
coedge $-1 $254 $253 $154 $247 reversed $255 $-1 #
edge $-1 $364 -46.96480969228147 $365 46.96480969228147 $246 $366 forward 7 unknown #
coedge $-1 $156 $155 $367 $368 forward $61 $-1 #
coedge $-1 $369 $370 $155 $250 reversed $354 $-1 #
edge $-1 $257 -67.431257057405318 $371 67.431257057405318 $249 $372 forward 7 unknown #
coedge $-1 $243 $373 $156 $252 reversed $152 $-1 #
edge $-1 $374 -67.431257057405318 $256 67.431257057405318 $251 $375 forward 7 unknown #
coedge $-1 $246 $157 $373 $376 forward $255 $-1 #
coedge $-1 $157 $246 $369 $377 reversed $255 $-1 #
loop $-1 $-1 $253 $353 #
vertex $-1 $158 $378 #
vertex $-1 $158 $379 #
straight-curve $-1 67.431257057405318 0 18.70221939111806 0 1 0 I I #
face $-1 $380 $381 $37 $-1 $382 forward single #
loop $-1 $-1 $383 $159 #
plane-surface $-1 0 0 -18.70221939111806 0 0 1 1 0 0 forward_v I I I I #
coedge $-1 $384 $385 $267 $386 forward $160 $-1 #
coedge $-1 $387 $162 $383 $388 reversed $101 $-1 #
coedge $-1 $162 $387 $389 $390 reversed $101 $-1 #
coedge $-1 $385 $384 $162 $266 reversed $160 $-1 #
edge $-1 $391 -18.70221939111806 $392 18.70221939111806 $265 $393 forward 7 unknown #
coedge $-1 $164 $163 $262 $386 reversed $64 $-1 #
coedge $-1 $394 $395 $163 $269 forward $260 $-1 #
edge $-1 $396 16.719867510068408 $275 39.380882201580746 $268 $397 forward 7 unknown #
coedge $-1 $398 $399 $164 $271 forward $381 $-1 #
edge $-1 $276 -39.380882201580746 $400 -16.719867510068408 $270 $401 forward 7 unknown #
coedge $-1 $402 $165 $399 $403 reversed $274 $-1 #
coedge $-1 $165 $402 $394 $404 reversed $274 $-1 #
loop $-1 $-1 $402 $380 #
vertex $-1 $404 $405 #
vertex $-1 $166 $406 #
straight-curve $-1 -67.431257057405318 -33.026753555658111 0 0 0 1 I I #
face $-1 $-1 $290 $38 $-1 $407 forward single #
loop $-1 $-1 $408 $167 #
plane-surface $-1 0 46.96480969228147 0 0 -1 0 0 0 -1 forward_v I I I I #
coedge $-1 $409 $410 $411 $412 reversed $168 $-1 #
coedge $-1 $413 $170 $172 $288 forward $105 $-1 #
coedge $-1 $170 $413 $409 $414 forward $105 $-1 #
coedge $-1 $411 $173 $170 $285 forward $290 $-1 #
edge $-1 $292 -28.829935999746176 $415 -3.0506767325474371 $284 $416 forward 7 unknown #
coedge $-1 $417 $418 $171 $287 forward $279 $-1 #
edge $-1 $419 -78.724301503888142 $291 -61.940832271223258 $286 $420 forward 7 unknown #
edge $-1 $292 71.691304822043705 $419 93.929619384562997 $172 $421 forward 7 unknown #
coedge $-1 $173 $411 $417 $422 forward $290 $-1 #
loop $-1 $-1 $411 $278 #
vertex $-1 $287 $423 #
vertex $-1 $174 $424 #
straight-curve $-1 -44.770242365892983 43.561734117101551 18.702219391118064 0 -1 0 I I #
coedge $-1 $294 $294 $-1 $425 reversed $177 $-1 #
edge $-1 $426 0 $426 6.2831853071796004 $178 $427 forward 7 unknown #
vertex $-1 $181 $428 #
ellipse-curve $-1 -31.880612732293613 39.669986269165783 10.310484774785621 0 0.75470958851134928 0.65605901945558964 2.5 0 0 1 I I #
face $-1 $-1 $429 $40 $-1 $430 reversed single #
loop $-1 $-1 $188 $182 #
plane-surface $-1 0 0 18.70221939111806 0 0 1 1 0 0 forward_v I I I I #
coedge $-1 $431 $432 $433 $434 reversed $183 $-1 #
coedge $-1 $435 $185 $187 $308 forward $114 $-1 #
coedge $-1 $185 $435 $431 $436 forward $114 $-1 #
coedge $-1 $433 $188 $185 $305 forward $299 $-1 #
edge $-1 $311 -8.7567701753220746 $437 3.6092958344538744 $304 $438 forward 7 unknown #
coedge $-1 $439 $440 $186 $307 forward $429 $-1 #
edge $-1 $441 -37.988596570468779 $310 -20.663142715124028 $306 $442 forward 7 unknown #
edge $-1 $311 -21.150473595349013 $441 -6.2029947392435384e-014 $187 $443 forward 7 unknown #
coedge $-1 $188 $433 $439 $444 forward $299 $-1 #
vertex $-1 $307 $445 #
vertex $-1 $189 $446 #
straight-curve $-1 11.330507345756175 -78.718857462165076 18.70221939111806 0 1 0 I I #
coedge $-1 $313 $313 $-1 $447 reversed $192 $-1 #
edge $-1 $448 0 $448 6.2831853071796004 $193 $449 forward 7 unknown #
vertex $-1 $196 $450 #
ellipse-curve $-1 1.4376545379354155 -40.899103179148142 10.039492463445672 0 -0.81915205242281985 0.57357642473473569 1 0 0 1 I I #
coedge $-1 $317 $317 $-1 $451 reversed $199 $-1 #
edge $-1 $452 0 $452 6.2831853071796004 $200 $453 forward 7 unknown #
vertex $-1 $203 $454 #
ellipse-curve $-1 5.1474743408682002 -40.899103179148142 10.039492463445672 0 -0.81915205242281985 0.57357642473473569 1 0 0 1 I I #
coedge $-1 $321 $321 $-1 $455 reversed $206 $-1 #
edge $-1 $456 0 $456 6.2831853071796004 $207 $457 forward 7 unknown #
vertex $-1 $210 $458 #
ellipse-curve $-1 8.8572941438009849 -40.899103179148142 10.039492463445672 0 -0.81915205242281985 0.57357642473473569 1 0 0 1 I I #
face $-1 $-1 $459 $44 $-1 $460 forward single #
loop $-1 $-1 $461 $211 #
plane-surface $-1 11.330507345756175 -157.43771492433015 78.730724212484176 -1 0 0 0 -0.81915205242281985 0.57357642473473569 forward_v I I I I #
coedge $-1 $217 $462 $330 $463 forward $212 $-1 #
coedge $-1 $333 $214 $464 $465 reversed $133 $-1 #
coedge $-1 $214 $333 $328 $463 reversed $133 $-1 #
coedge $-1 $466 $461 $214 $332 forward $326 $-1 #
edge $-1 $467 -21.150473595349013 $468 -6.2029947392435384e-014 $331 $469 forward 7 unknown #
coedge $-1 $330 $329 $215 $334 forward $133 $-1 #
edge $-1 $470 -21.150473595349013 $338 -6.2029947392435384e-014 $215 $471 forward 7 unknown #
coedge $-1 $464 $472 $216 $336 forward $459 $-1 #
edge $-1 $339 31.754047769883606 $470 43.885460796150284 $335 $473 forward 7 unknown #
coedge $-1 $462 $217 $472 $474 reversed $212 $-1 #
vertex $-1 $218 $475 #
vertex $-1 $218 $476 #
straight-curve $-1 23.696573355532124 -46.96480969228147 39.365362106242088 0 0 1 I I #
coedge $-1 $341 $341 $-1 $477 reversed $221 $-1 #
edge $-1 $478 0 $478 6.2831853071796004 $222 $479 forward 7 unknown #
vertex $-1 $225 $480 #
ellipse-curve $-1 13.803720547711364 -40.899103179148142 10.039492463445672 0 -0.81915205242281985 0.57357642473473569 1 0 0 1 I I #
coedge $-1 $345 $345 $-1 $481 reversed $228 $-1 #
edge $-1 $482 0 $482 6.2831853071796004 $229 $483 forward 7 unknown #
vertex $-1 $232 $484 #
ellipse-curve $-1 17.513540350644149 -40.899103179148142 10.039492463445672 0 -0.81915205242281985 0.57357642473473569 1 0 0 1 I I #
coedge $-1 $349 $349 $-1 $485 reversed $235 $-1 #
edge $-1 $486 0 $486 6.2831853071796004 $236 $487 forward 7 unknown #
vertex $-1 $239 $488 #
ellipse-curve $-1 21.223360153576934 -40.899103179148142 10.039492463445672 0 -0.81915205242281985 0.57357642473473569 1 0 0 1 I I #
face $-1 $-1 $255 $36 $-1 $489 reversed single #
loop $-1 $-1 $369 $240 #
plane-surface $-1 0 46.96480969228147 0 0 -1 0 0 0 -1 forward_v I I I I #
coedge $-1 $490 $367 $370 $491 forward $241 $-1 #
coedge $-1 $373 $243 $244 $361 reversed $152 $-1 #
coedge $-1 $367 $490 $243 $359 reversed $241 $-1 #
edge $-1 $374 -18.70221939111806 $492 18.70221939111806 $358 $493 forward 7 unknown #
coedge $-1 $245 $244 $490 $494 forward $97 $-1 #
edge $-1 $365 -67.431257057405318 $492 67.431257057405318 $357 $495 forward 7 unknown #
coedge $-1 $370 $369 $245 $363 reversed $354 $-1 #
edge $-1 $496 -67.431257057405318 $364 67.431257057405318 $362 $497 forward 7 unknown #
vertex $-1 $247 $498 #
vertex $-1 $376 $499 #
straight-curve $-1 67.431257057405318 0 -18.70221939111806 0 -1 0 I I #
coedge $-1 $356 $358 $248 $368 reversed $241 $-1 #
edge $-1 $371 -46.96480969228147 $374 46.96480969228147 $367 $500 forward 7 unknown #
coedge $-1 $362 $249 $254 $377 forward $354 $-1 #
coedge $-1 $249 $362 $356 $491 reversed $354 $-1 #
vertex $-1 $250 $501 #
straight-curve $-1 0 46.96480969228147 18.70221939111806 -1 0 0 I I #
coedge $-1 $251 $357 $253 $376 reversed $152 $-1 #
vertex $-1 $368 $502 #
straight-curve $-1 0 -46.96480969228147 18.70221939111806 1 0 0 I I #
edge $-1 $256 -18.70221939111806 $365 18.70221939111806 $253 $503 forward 7 unknown #
edge $-1 $257 -18.70221939111806 $364 18.70221939111806 $254 $504 forward 7 unknown #
point $-1 67.431257057405318 -46.96480969228147 18.70221939111806 #
point $-1 67.431257057405318 46.96480969228147 18.70221939111806 #
face $-1 $-1 $274 $37 $-1 $505 reversed single #
loop $-1 $-1 $389 $259 #
plane-surface $-1 0 0 18.70221939111806 0 0 1 1 0 0 forward_v I I I I #
coedge $-1 $395 $394 $263 $388 forward $260 $-1 #
coedge $-1 $265 $262 $395 $506 reversed $160 $-1 #
coedge $-1 $262 $265 $398 $507 reversed $160 $-1 #
edge $-1 $400 -18.70221939111806 $396 18.70221939111806 $262 $508 forward 7 unknown #
coedge $-1 $264 $263 $402 $509 reversed $101 $-1 #
edge $-1 $510 -39.380882201580746 $392 -16.719867510068408 $383 $511 forward 7 unknown #
coedge $-1 $399 $398 $264 $390 forward $381 $-1 #
edge $-1 $391 16.719867510068408 $512 39.380882201580746 $389 $513 forward 7 unknown #
vertex $-1 $390 $514 #
vertex $-1 $388 $515 #
straight-curve $-1 -44.770242365892983 -26.839559163629609 0 0 0 -1 I I #
coedge $-1 $383 $268 $273 $404 forward $260 $-1 #
coedge $-1 $268 $383 $384 $506 forward $260 $-1 #
vertex $-1 $269 $516 #
straight-curve $-1 -28.050374855824575 -33.026753555658111 -18.70221939111806 -1 0 0 I I #
coedge $-1 $389 $270 $385 $507 forward $381 $-1 #
coedge $-1 $270 $389 $272 $403 forward $381 $-1 #
vertex $-1 $271 $517 #
straight-curve $-1 -28.050374855824575 -33.026753555658111 18.70221939111806 1 0 0 I I #
coedge $-1 $273 $272 $387 $509 forward $274 $-1 #
edge $-1 $512 26.839559163629609 $276 33.026753555658111 $272 $518 forward 7 unknown #
edge $-1 $275 -33.026753555658111 $510 -26.839559163629609 $273 $519 forward 7 unknown #
point $-1 -67.431257057405318 -33.026753555658111 -18.70221939111806 #
point $-1 -67.431257057405318 -33.026753555658111 18.70221939111806 #
plane-surface $-1 0 0 18.70221939111806 0 0 1 1 0 0 forward_v I I I I #
coedge $-1 $418 $417 $410 $520 forward $279 $-1 #
coedge $-1 $410 $281 $283 $414 reversed $168 $-1 #
coedge $-1 $281 $409 $408 $520 reversed $168 $-1 #
coedge $-1 $289 $284 $281 $412 forward $290 $-1 #
edge $-1 $415 -11.186571271051449 $521 3.4030755751799191 $411 $522 forward 7 unknown #
coedge $-1 $283 $282 $418 $523 reversed $105 $-1 #
edge $-1 $524 -93.929619384562997 $415 -71.691304822043705 $409 $525 forward 7 unknown #
vertex $-1 $285 $526 #
straight-curve $-1 -15.940306366146807 32.375162846050102 18.702219391118064 1 0 0 I I #
coedge $-1 $408 $286 $289 $422 reversed $279 $-1 #
coedge $-1 $286 $408 $413 $523 forward $279 $-1 #
vertex $-1 $287 $527 #
straight-curve $-1 -44.770242365892983 46.96480969228147 80.643051662341321 0 0 1 I I #
straight-curve $-1 -44.770242365892983 -14.658564298991664 72.808334553204361 0 0.65605901945558964 -0.75470958851134928 I I #
edge $-1 $521 18.990983098694244 $291 44.770242365892983 $417 $528 forward 7 unknown #
point $-1 -44.770242365892983 46.96480969228147 18.70221939111806 #
point $-1 -44.770242365892983 32.375162846050102 18.702219391118057 #
edge $-1 $529 1 $529 0 $294 $-1 forward 7 unknown #
vertex $-1 $295 $530 #
ellipse-curve $-1 -31.880612732293613 37.660563640432585 8.5637203775306521 0 0.75470958851134928 0.65605901945558964 2.5 0 0 1 I I #
point $-1 -29.380612732293613 39.669986269165804 10.310484774785641 #
loop $-1 $-1 $306 $298 #
plane-surface $-1 0 -46.96480969228147 0 0 1 0 0 0 1 forward_v I I I I #
coedge $-1 $432 $301 $303 $436 reversed $183 $-1 #
coedge $-1 $301 $431 $531 $532 reversed $183 $-1 #
coedge $-1 $309 $304 $301 $434 forward $299 $-1 #
edge $-1 $437 -43.885460796150284 $533 -31.754047769883606 $433 $534 forward 7 unknown #
coedge $-1 $303 $302 $440 $535 reversed $114 $-1 #
edge $-1 $536 6.2029947392435384e-014 $437 21.150473595349013 $431 $537 forward 7 unknown #
vertex $-1 $305 $538 #
straight-curve $-1 2.5737371704341001 -34.833396666014792 18.70221939111806 -1 0 0 I I #
coedge $-1 $531 $306 $309 $444 reversed $429 $-1 #
coedge $-1 $306 $531 $435 $535 forward $429 $-1 #
vertex $-1 $307 $539 #
straight-curve $-1 11.330507345756175 -46.96480969228147 39.365362106242088 0 0 1 I I #
straight-curve $-1 11.330507345756175 -46.964809692281506 1.3767655357732593 0 -0.57357642473473569 -0.81915205242281985 I I #
edge $-1 $533 -1.0355586640197743 $310 11.330507345756175 $439 $540 forward 7 unknown #
point $-1 11.330507345756175 -46.96480969228147 18.70221939111806 #
point $-1 11.330507345756175 -34.833396666014792 18.70221939111806 #
edge $-1 $541 1 $541 0 $313 $-1 forward 7 unknown #
vertex $-1 $314 $542 #
ellipse-curve $-1 1.4376545379354155 -39.38509559228234 8.9793729702120633 0 -0.81915205242281985 0.57357642473473569 1 0 0 1 I I #
point $-1 2.4376545379354155 -40.899103179148113 10.039492463445656 #
edge $-1 $543 1 $543 0 $317 $-1 forward 7 unknown #
vertex $-1 $318 $544 #
ellipse-curve $-1 5.1474743408682002 -39.38509559228234 8.9793729702120633 0 -0.81915205242281985 0.57357642473473569 1 0 0 1 I I #
point $-1 6.1474743408682002 -40.899103179148113 10.039492463445656 #
edge $-1 $545 1 $545 0 $321 $-1 forward 7 unknown #
vertex $-1 $322 $546 #
ellipse-curve $-1 8.8572941438009849 -39.38509559228234 8.9793729702120633 0 -0.81915205242281985 0.57357642473473569 1 0 0 1 I I #
point $-1 9.8572941438009849 -40.899103179148113 10.039492463445656 #
loop $-1 $-1 $464 $325 #
plane-surface $-1 0 0 18.70221939111806 0 0 1 1 0 0 forward_v I I I I #
coedge $-1 $331 $466 $547 $548 reversed $326 $-1 #
coedge $-1 $328 $337 $466 $549 forward $212 $-1 #
edge $-1 $468 8.7567701753220746 $338 21.122836185098024 $328 $550 forward 7 unknown #
coedge $-1 $547 $335 $329 $465 forward $459 $-1 #
edge $-1 $470 -21.122836185098024 $467 -8.7567701753220746 $464 $551 forward 7 unknown #
coedge $-1 $461 $331 $462 $549 reversed $326 $-1 #
vertex $-1 $465 $552 #
vertex $-1 $463 $553 #
straight-curve $-1 11.330507345756175 -46.964809692281506 1.3767655357732593 0 -0.57357642473473569 -0.81915205242281985 I I #
vertex $-1 $336 $554 #
straight-curve $-1 23.696573355532124 -46.964809692281506 1.3767655357732593 0 -0.57357642473473569 -0.81915205242281985 I I #
coedge $-1 $335 $547 $337 $474 forward $459 $-1 #
straight-curve $-1 23.696573355532124 -78.718857462165076 18.70221939111806 0 1 0 I I #
edge $-1 $555 11.330507345756175 $339 23.696573355532124 $337 $556 forward 7 unknown #
point $-1 23.696573355532124 -46.96480969228147 1.3767655357733102 #
point $-1 23.696573355532124 -46.96480969228147 18.70221939111806 #
edge $-1 $557 1 $557 0 $341 $-1 forward 7 unknown #
vertex $-1 $342 $558 #
ellipse-curve $-1 13.803720547711364 -39.38509559228234 8.9793729702120633 0 -0.81915205242281985 0.57357642473473569 1 0 0 1 I I #
point $-1 14.803720547711364 -40.899103179148113 10.039492463445656 #
edge $-1 $559 1 $559 0 $345 $-1 forward 7 unknown #
vertex $-1 $346 $560 #
ellipse-curve $-1 17.513540350644149 -39.38509559228234 8.9793729702120633 0 -0.81915205242281985 0.57357642473473569 1 0 0 1 I I #
point $-1 18.513540350644149 -40.899103179148113 10.039492463445656 #
edge $-1 $561 1 $561 0 $349 $-1 forward 7 unknown #
vertex $-1 $350 $562 #
ellipse-curve $-1 21.223360153576934 -39.38509559228234 8.9793729702120633 0 -0.81915205242281985 0.57357642473473569 1 0 0 1 I I #
point $-1 22.223360153576934 -40.899103179148113 10.039492463445656 #
plane-surface $-1 67.431257057405318 0 0 -1 0 0 0 0 1 forward_v I I I I #
coedge $-1 $358 $356 $360 $494 reversed $241 $-1 #
edge $-1 $371 -18.70221939111806 $496 18.70221939111806 $370 $563 forward 7 unknown #
vertex $-1 $494 $564 #
straight-curve $-1 -67.431257057405318 -46.96480969228147 0 0 0 -1 I I #
edge $-1 $492 -46.96480969228147 $496 46.96480969228147 $490 $565 forward 7 unknown #
straight-curve $-1 0 -46.96480969228147 -18.70221939111806 -1 0 0 I I #
vertex $-1 $363 $566 #
straight-curve $-1 0 46.96480969228147 -18.70221939111806 1 0 0 I I #
point $-1 67.431257057405318 46.96480969228147 -18.70221939111806 #
point $-1 67.431257057405318 -46.96480969228147 -18.70221939111806 #
straight-curve $-1 -67.431257057405318 0 18.70221939111806 0 -1 0 I I #
point $-1 -67.431257057405318 46.96480969228147 18.70221939111806 #
point $-1 -67.431257057405318 -46.96480969228147 18.70221939111806 #
straight-curve $-1 67.431257057405318 -46.96480969228147 0 0 0 -1 I I #
straight-curve $-1 67.431257057405318 46.96480969228147 0 0 0 -1 I I #
plane-surface $-1 -67.431257057405318 0 0 1 0 0 0 0 -1 forward_v I I I I #
edge $-1 $392 11.872980983807679 $396 18.060175375836181 $395 $567 forward 7 unknown #
edge $-1 $400 -18.060175375836181 $391 -11.872980983807679 $398 $568 forward 7 unknown #
straight-curve $-1 -44.770242365892983 -33.026753555658111 0 0 0 -1 I I #
edge $-1 $512 -18.70221939111806 $510 18.70221939111806 $402 $569 forward 7 unknown #
vertex $-1 $509 $570 #
straight-curve $-1 -28.050374855824575 -26.839559163629609 -18.70221939111806 1 0 0 I I #
vertex $-1 $403 $571 #
straight-curve $-1 -28.050374855824575 -26.839559163629609 18.70221939111806 -1 0 0 I I #
point $-1 -44.770242365892983 -26.839559163629609 18.70221939111806 #
point $-1 -44.770242365892983 -26.839559163629609 -18.70221939111806 #
point $-1 -44.770242365892983 -33.026753555658111 -18.70221939111806 #
point $-1 -44.770242365892983 -33.026753555658111 18.70221939111806 #
straight-curve $-1 -67.431257057405318 0 18.70221939111806 0 -1 0 I I #
straight-curve $-1 -67.431257057405318 0 -18.70221939111806 0 1 0 I I #
edge $-1 $521 61.940832271223258 $524 78.724301503888142 $408 $572 forward 7 unknown #
vertex $-1 $422 $573 #
straight-curve $-1 -18.990983098694244 43.561734117101551 18.702219391118064 0 1 0 I I #
edge $-1 $524 3.0506767325474371 $419 28.829935999746176 $418 $574 forward 7 unknown #
vertex $-1 $523 $575 #
straight-curve $-1 -18.990983098694244 -14.658564298991664 72.808334553204361 0 -0.65605901945558964 0.75470958851134928 I I #
point $-1 -18.990983098694244 32.375162846050102 18.702219391118057 #
point $-1 -44.770242365892983 46.96480969228147 1.9187501584531788 #
straight-curve $-1 0 46.96480969228147 18.70221939111806 -1 0 0 I I #
vertex $-1 $425 $576 #
point $-1 -29.380612732293613 37.660563640432585 8.5637203775306521 #
coedge $-1 $440 $439 $432 $532 forward $429 $-1 #
edge $-1 $533 20.663142715124028 $536 37.988596570468779 $531 $577 forward 7 unknown #
vertex $-1 $444 $578 #
straight-curve $-1 -1.0355586640197743 -78.718857462165076 18.70221939111806 0 -1 0 I I #
edge $-1 $536 -3.6092958344538744 $441 8.7567701753220746 $440 $579 forward 7 unknown #
vertex $-1 $535 $580 #
straight-curve $-1 -1.0355586640197743 -46.964809692281506 1.3767655357732593 0 0.57357642473473569 0.81915205242281985 I I #
point $-1 -1.0355586640197743 -34.833396666014792 18.70221939111806 #
point $-1 11.330507345756175 -46.96480969228147 1.3767655357733102 #
straight-curve $-1 0 -46.96480969228147 18.70221939111806 1 0 0 I I #
vertex $-1 $447 $581 #
point $-1 2.4376545379354155 -39.38509559228234 8.9793729702120633 #
vertex $-1 $451 $582 #
point $-1 6.1474743408682002 -39.38509559228234 8.9793729702120633 #
vertex $-1 $455 $583 #
point $-1 9.8572941438009849 -39.38509559228234 8.9793729702120633 #
coedge $-1 $472 $464 $461 $548 forward $459 $-1 #
edge $-1 $467 -43.885460796150284 $555 -31.754047769883606 $547 $584 forward 7 unknown #
edge $-1 $555 20.663142715124028 $468 37.988596570468779 $462 $585 forward 7 unknown #
straight-curve $-1 2.5737371704341001 -46.96480969228147 1.3767655357733182 1 0 0 I I #
straight-curve $-1 2.5737371704341001 -34.833396666014792 18.70221939111806 -1 0 0 I I #
point $-1 11.330507345756175 -34.833396666014792 18.70221939111806 #
point $-1 11.330507345756175 -46.96480969228147 1.3767655357733102 #
point $-1 23.696573355532124 -34.833396666014792 18.70221939111806 #
vertex $-1 $474 $586 #
straight-curve $-1 0 -46.96480969228147 18.70221939111806 1 0 0 I I #
vertex $-1 $477 $587 #
point $-1 14.803720547711364 -39.38509559228234 8.9793729702120633 #
vertex $-1 $481 $588 #
point $-1 18.513540350644149 -39.38509559228234 8.9793729702120633 #
vertex $-1 $485 $589 #
point $-1 22.223360153576934 -39.38509559228234 8.9793729702120633 #
straight-curve $-1 -67.431257057405318 46.96480969228147 0 0 0 -1 I I #
point $-1 -67.431257057405318 -46.96480969228147 -18.70221939111806 #
straight-curve $-1 -67.431257057405318 0 -18.70221939111806 0 1 0 I I #
point $-1 -67.431257057405318 46.96480969228147 -18.70221939111806 #
straight-curve $-1 -44.770242365892983 -14.96657817982193 -18.70221939111806 0 -1 0 I I #
straight-curve $-1 -44.770242365892983 -14.96657817982193 18.70221939111806 0 1 0 I I #
straight-curve $-1 -67.431257057405318 -26.839559163629609 0 0 0 -1 I I #
point $-1 -67.431257057405318 -26.839559163629609 -18.70221939111806 #
point $-1 -67.431257057405318 -26.839559163629609 18.70221939111806 #
straight-curve $-1 -18.990983098694244 46.96480969228147 80.643051662341321 0 0 -1 I I #
point $-1 -18.990983098694244 46.96480969228147 18.70221939111806 #
straight-curve $-1 -15.940306366146807 46.96480969228147 1.9187501584531859 -1 0 0 I I #
point $-1 -18.990983098694244 46.96480969228147 1.9187501584531788 #
point $-1 -31.880612732293613 35.773789669154212 6.9235728288916771 #
straight-curve $-1 -1.0355586640197743 -46.96480969228147 39.365362106242088 0 0 -1 I I #
point $-1 -1.0355586640197743 -46.96480969228147 18.70221939111806 #
straight-curve $-1 2.5737371704341001 -46.96480969228147 1.3767655357733182 1 0 0 I I #
point $-1 -1.0355586640197743 -46.96480969228147 1.3767655357733102 #
point $-1 1.4376545379354155 -38.565943539859518 8.4057965454773278 #
point $-1 5.1474743408682002 -38.565943539859518 8.4057965454773278 #
point $-1 8.8572941438009849 -38.565943539859518 8.4057965454773278 #
straight-curve $-1 11.330507345756175 -78.718857462165076 18.70221939111806 0 -1 0 I I #
straight-curve $-1 11.330507345756175 -46.96480969228147 39.365362106242088 0 0 -1 I I #
point $-1 11.330507345756175 -46.96480969228147 18.70221939111806 #
point $-1 13.803720547711364 -38.565943539859518 8.4057965454773278 #
point $-1 17.513540350644149 -38.565943539859518 8.4057965454773278 #
point $-1 21.223360153576934 -38.565943539859518 8.4057965454773278 #
End-of-ACIS-data 