500 0 9 0           
7 Unknown 11 ACIS 5.0 NT 24 Thu Mar 25 15:35:47 1999 
-1 9.9999999999999995e-007 1e-010 
body $-1 $9 $-1 $10 #
body $-1 $11 $-1 $12 #
body $-1 $13 $-1 $14 #
body $-1 $15 $-1 $16 #
body $-1 $17 $-1 $18 #
body $-1 $19 $-1 $20 #
body $-1 $21 $-1 $22 #
body $-1 $23 $-1 $24 #
body $-1 $25 $-1 $26 #
lump $-1 $-1 $27 $0 #
transform $-1 1 0 0 0 1 0 0 0 1 72.956328012939849 49.202493940890228 19.513120174622902 1 rotate no_reflect no_shear #
lump $-1 $-1 $28 $1 #
transform $-1 1 0 0 0 1 0 0 0 1 72.956328012939849 49.202493940890228 19.513120174622902 1 rotate no_reflect no_shear #
lump $-1 $-1 $29 $2 #
transform $-1 1 0 0 0 1 0 0 0 1 72.956328012939849 49.202493940890228 19.513120174622902 1 rotate no_reflect no_shear #
lump $-1 $-1 $30 $3 #
transform $-1 1 0 0 0 1 0 0 0 1 72.956328012939849 49.202493940890228 19.513120174622902 1 rotate no_reflect no_shear #
lump $-1 $-1 $31 $4 #
transform $-1 1 0 0 0 1 0 0 0 1 72.956328012939849 49.202493940890228 19.513120174622902 1 rotate no_reflect no_shear #
lump $-1 $-1 $32 $5 #
transform $-1 1 0 0 0 1 0 0 0 1 72.956328012939849 49.202493940890228 19.513120174622902 1 rotate no_reflect no_shear #
lump $-1 $-1 $33 $6 #
transform $-1 1 0 0 0 1 0 0 0 1 72.956328012939849 49.202493940890228 19.513120174622902 1 rotate no_reflect no_shear #
lump $-1 $-1 $34 $7 #
transform $-1 1 0 0 0 1 0 0 0 1 72.956328012939849 49.202493940890228 19.513120174622902 1 rotate no_reflect no_shear #
lump $-1 $-1 $35 $8 #
transform $-1 1 0 0 0 1 0 0 0 1 72.956328012939849 49.202493940890228 19.513120174622902 1 rotate no_reflect no_shear #
shell $-1 $-1 $-1 $36 $-1 $9 #
shell $-1 $-1 $-1 $37 $-1 $11 #
shell $-1 $-1 $-1 $38 $-1 $13 #
shell $-1 $-1 $-1 $39 $-1 $15 #
shell $-1 $-1 $-1 $40 $-1 $17 #
shell $-1 $-1 $-1 $41 $-1 $19 #
shell $-1 $-1 $-1 $42 $-1 $21 #
shell $-1 $-1 $-1 $43 $-1 $23 #
shell $-1 $-1 $-1 $44 $-1 $25 #
face $-1 $45 $46 $27 $-1 $47 forward single #
face $-1 $48 $49 $28 $-1 $50 forward single #
face $-1 $51 $52 $29 $-1 $53 reversed single #
face $-1 $54 $55 $30 $-1 $56 forward single #
face $-1 $57 $58 $31 $-1 $59 forward single #
face $-1 $60 $61 $32 $-1 $62 reversed single #
face $-1 $63 $64 $33 $-1 $65 forward single #
face $-1 $66 $67 $34 $-1 $68 forward single #
face $-1 $69 $70 $35 $-1 $71 forward single #
face $-1 $72 $73 $27 $-1 $74 reversed single #
loop $-1 $-1 $75 $36 #
plane-surface $-1 0 0 19.513120174622902 0 0 1 1 0 0 forward_v I I I I #
face $-1 $76 $77 $28 $-1 $78 reversed single #
loop $-1 $-1 $79 $37 #
plane-surface $-1 0 -39.022430006922541 -14.593839175004691 0 0 1 1 0 0 forward_v I I I I #
face $-1 $80 $81 $29 $-1 $82 reversed single #
loop $-1 $-1 $83 $38 #
plane-surface $-1 69.354997365327705 34.640805026230822 211.39153611926676 0 1 0 0.69465837861970381 0 0.71933979245794832 forward_v I I I I #
face $-1 $84 $85 $30 $-1 $86 forward single #
loop $-1 $87 $88 $39 #
cone-surface $-1 64.349794391170761 38.801287573276362 11.123031399665019 -0.69465837861970381 0 -0.71933979245794832 0.71933979245794832 0 -0.69465837861970381 1 I I 0 1 1 forward I I I I #
face $-1 $89 $90 $31 $-1 $91 forward single #
loop $-1 $92 $93 $40 #
cone-surface $-1 64.349794391170761 45.042011393844682 11.123031399665019 -0.69465837861970381 0 -0.71933979245794832 0.71933979245794832 0 -0.69465837861970381 1 I I 0 1 1 forward I I I I #
face $-1 $94 $95 $32 $-1 $96 reversed single #
loop $-1 $-1 $97 $41 #
plane-surface $-1 -148.10690247720242 19.115069911122255 140.1720889298127 0 1 0 -0.51503808176128008 0 0.85716729658548041 forward_v I I I I #
face $-1 $98 $99 $33 $-1 $100 forward single #
loop $-1 $101 $102 $42 #
cone-surface $-1 -68.275015664083085 22.170316462047261 15.626865048689687 0.51503808176128008 0 -0.85716729658548041 0.85716729658548041 0 0.51503808176128008 1 I I 0 1 1 forward I I I I #
face $-1 $103 $104 $34 $-1 $105 forward single #
loop $-1 $106 $107 $43 #
cone-surface $-1 -68.275015664083085 26.753186288434769 15.626865048689687 0.51503808176128008 0 -0.85716729658548041 0.85716729658548041 0 0.51503808176128008 1 I I 0 1 1 forward I I I I #
face $-1 $108 $109 $35 $-1 $110 forward single #
loop $-1 $111 $112 $44 #
cone-surface $-1 -68.275015664083085 31.336056114822277 15.626865048689687 0.51503808176128008 0 -0.85716729658548041 0.85716729658548041 0 0.51503808176128008 1 I I 0 1 1 forward I I I I #
face $-1 $113 $114 $27 $-1 $115 reversed single #
loop $-1 $-1 $116 $45 #
plane-surface $-1 0 0 -19.513120174622902 0 0 1 1 0 0 forward_v I I I I #
coedge $-1 $117 $118 $119 $120 forward $46 $-1 #
face $-1 $121 $122 $28 $-1 $123 reversed single #
loop $-1 $-1 $124 $48 #
plane-surface $-1 0 -28.842366072954853 -17.053479674813797 0 -1 0 0 0 -1 forward_v I I I I #
coedge $-1 $125 $126 $127 $128 reversed $49 $-1 #
face $-1 $129 $130 $29 $-1 $131 forward single #
loop $-1 $-1 $132 $51 #
plane-surface $-1 -32.004451689704439 41.921649483560522 106.43075641662246 0.69465837861970381 0 0.71933979245794832 0.71933979245794832 0 -0.69465837861970381 forward_v I I I I #
coedge $-1 $133 $134 $135 $136 reversed $52 $-1 #
face $-1 $-1 $137 $30 $-1 $138 forward single #
loop $-1 $139 $140 $54 #
cone-surface $-1 62.873398887321031 38.801287573276362 9.5941791349944587 -0.69465837861970381 0 -0.71933979245794832 0.35966989622897416 0 -0.3473291893098519 1 I I -0.70710678118654746 0.70710678118654746 0.5 forward I I I I #
loop $-1 $-1 $141 $39 #
coedge $-1 $88 $88 $142 $143 reversed $55 $-1 #
face $-1 $-1 $144 $31 $-1 $145 forward single #
loop $-1 $146 $147 $57 #
cone-surface $-1 62.873398887321031 45.042011393844682 9.5941791349944587 -0.69465837861970381 0 -0.71933979245794832 0.35966989622897416 0 -0.3473291893098519 1 I I -0.70710678118654746 0.70710678118654746 0.5 forward I I I I #
loop $-1 $-1 $148 $40 #
coedge $-1 $93 $93 $149 $150 reversed $58 $-1 #
face $-1 $151 $152 $32 $-1 $153 reversed single #
loop $-1 $-1 $154 $60 #
plane-surface $-1 -72.956328012939863 26.753186288434769 15.100532026502293 -0.51503808176128008 0 0.85716729658548041 0.85716729658548041 0 0.51503808176128008 forward_v I I I I #
coedge $-1 $155 $156 $157 $158 reversed $61 $-1 #
face $-1 $-1 $159 $33 $-1 $160 forward single #
loop $-1 $161 $162 $63 #
cone-surface $-1 -67.008074167356341 22.170316462047261 13.518320348524039 0.51503808176128008 0 -0.85716729658548041 0.4285836482927402 0 0.25751904088064004 1 I I -0.70710678118654624 0.70710678118654879 0.5 forward I I I I #
loop $-1 $-1 $163 $42 #
coedge $-1 $102 $102 $164 $165 reversed $64 $-1 #
face $-1 $-1 $166 $34 $-1 $167 forward single #
loop $-1 $168 $169 $66 #
cone-surface $-1 -67.008074167356341 26.753186288434769 13.518320348524039 0.51503808176128008 0 -0.85716729658548041 0.4285836482927402 0 0.25751904088064004 1 I I -0.70710678118654624 0.70710678118654879 0.5 forward I I I I #
loop $-1 $-1 $170 $43 #
coedge $-1 $107 $107 $171 $172 reversed $67 $-1 #
face $-1 $-1 $173 $35 $-1 $174 forward single #
loop $-1 $175 $176 $69 #
cone-surface $-1 -67.008074167356341 31.336056114822277 13.518320348524039 0.51503808176128008 0 -0.85716729658548041 0.4285836482927402 0 0.25751904088064004 1 I I -0.70710678118654624 0.70710678118654879 0.5 forward I I I I #
loop $-1 $-1 $177 $44 #
coedge $-1 $112 $112 $178 $179 reversed $70 $-1 #
face $-1 $180 $181 $27 $-1 $182 reversed single #
loop $-1 $-1 $183 $72 #
plane-surface $-1 0 -49.202493940890228 0 0 1 0 0 0 1 forward_v I I I I #
coedge $-1 $184 $185 $186 $187 forward $73 $-1 #
coedge $-1 $188 $75 $189 $190 forward $46 $-1 #
coedge $-1 $75 $188 $191 $192 forward $46 $-1 #
coedge $-1 $193 $194 $75 $120 reversed $195 $-1 #
edge $-1 $196 -49.202493940890228 $197 49.202493940890228 $119 $198 forward 7 unknown #
face $-1 $199 $200 $28 $-1 $201 reversed single #
loop $-1 $-1 $202 $76 #
plane-surface $-1 0 0 -19.513120174622902 0 0 1 1 0 0 forward_v I I I I #
coedge $-1 $203 $204 $205 $206 reversed $77 $-1 #
coedge $-1 $207 $79 $204 $208 forward $49 $-1 #
coedge $-1 $79 $207 $209 $210 reversed $49 $-1 #
coedge $-1 $211 $205 $79 $128 forward $200 $-1 #
edge $-1 $212 9.3311510694935826 $213 29.691278937428958 $127 $214 forward 7 unknown #
face $-1 $215 $216 $29 $-1 $217 reversed single #
loop $-1 $-1 $218 $80 #
plane-surface $-1 0 0 19.513120174622902 0 0 1 1 0 0 forward_v I I I I #
coedge $-1 $219 $220 $221 $222 reversed $81 $-1 #
coedge $-1 $134 $83 $223 $224 reversed $52 $-1 #
coedge $-1 $83 $133 $219 $225 reversed $52 $-1 #
coedge $-1 $221 $226 $83 $136 forward $227 $-1 #
edge $-1 $228 86.182647885010482 $229 100.62446069804305 $135 $230 forward 7 unknown #
loop $-1 $-1 $142 $84 #
plane-surface $-1 -32.004451689704439 41.921649483560522 106.43075641662246 0.69465837861970381 0 0.71933979245794832 0.71933979245794832 0 -0.69465837861970381 forward_v I I I I #
loop $-1 $-1 $231 $54 #
coedge $-1 $140 $140 $141 $232 reversed $85 $-1 #
coedge $-1 $141 $141 $140 $232 forward $87 $-1 #
coedge $-1 $142 $142 $88 $143 forward $137 $-1 #
edge $-1 $233 0 $233 6.2831853071796004 $142 $234 forward 7 unknown #
loop $-1 $-1 $149 $89 #
plane-surface $-1 -32.004451689704439 41.921649483560522 106.43075641662246 0.69465837861970381 0 0.71933979245794832 0.71933979245794832 0 -0.69465837861970381 forward_v I I I I #
loop $-1 $-1 $235 $57 #
coedge $-1 $147 $147 $148 $236 reversed $90 $-1 #
coedge $-1 $148 $148 $147 $236 forward $92 $-1 #
coedge $-1 $149 $149 $93 $150 forward $144 $-1 #
edge $-1 $237 0 $237 6.2831853071796004 $149 $238 forward 7 unknown #
face $-1 $239 $240 $32 $-1 $241 reversed single #
loop $-1 $-1 $242 $94 #
plane-surface $-1 -148.10690247720242 34.391302665747283 140.1720889298127 0 -1 0 0.51503808176128008 0 -0.85716729658548041 forward_v I I I I #
coedge $-1 $243 $244 $245 $246 reversed $95 $-1 #
coedge $-1 $156 $97 $247 $248 reversed $61 $-1 #
coedge $-1 $97 $155 $243 $249 reversed $61 $-1 #
coedge $-1 $245 $250 $97 $158 forward $251 $-1 #
edge $-1 $252 1.0971232256613632 $253 8.44090301168265 $157 $254 forward 7 unknown #
loop $-1 $-1 $164 $98 #
plane-surface $-1 -72.956328012939863 26.753186288434769 15.100532026502293 -0.51503808176128008 0 0.85716729658548041 0.85716729658548041 0 0.51503808176128008 forward_v I I I I #
loop $-1 $-1 $255 $63 #
coedge $-1 $162 $162 $163 $256 reversed $99 $-1 #
coedge $-1 $163 $163 $162 $256 forward $101 $-1 #
coedge $-1 $164 $164 $102 $165 forward $159 $-1 #
edge $-1 $257 0 $257 6.2831853071796004 $164 $258 forward 7 unknown #
loop $-1 $-1 $171 $103 #
plane-surface $-1 -72.956328012939863 26.753186288434769 15.100532026502293 -0.51503808176128008 0 0.85716729658548041 0.85716729658548041 0 0.51503808176128008 forward_v I I I I #
loop $-1 $-1 $259 $66 #
coedge $-1 $169 $169 $170 $260 reversed $104 $-1 #
coedge $-1 $170 $170 $169 $260 forward $106 $-1 #
coedge $-1 $171 $171 $107 $172 forward $166 $-1 #
edge $-1 $261 0 $261 6.2831853071796004 $171 $262 forward 7 unknown #
loop $-1 $-1 $178 $108 #
plane-surface $-1 -72.956328012939863 26.753186288434769 15.100532026502293 -0.51503808176128008 0 0.85716729658548041 0.85716729658548041 0 0.51503808176128008 forward_v I I I I #
loop $-1 $-1 $263 $69 #
coedge $-1 $176 $176 $177 $264 reversed $109 $-1 #
coedge $-1 $177 $177 $176 $264 forward $111 $-1 #
coedge $-1 $178 $178 $112 $179 forward $173 $-1 #
edge $-1 $265 0 $265 6.2831853071796004 $178 $266 forward 7 unknown #
face $-1 $267 $268 $27 $-1 $269 reversed single #
loop $-1 $-1 $270 $113 #
plane-surface $-1 -72.956328012939849 0 0 1 0 0 0 0 -1 forward_v I I I I #
coedge $-1 $271 $191 $272 $273 forward $114 $-1 #
coedge $-1 $274 $116 $271 $275 forward $73 $-1 #
coedge $-1 $116 $274 $276 $277 forward $73 $-1 #
coedge $-1 $194 $193 $116 $187 reversed $195 $-1 #
edge $-1 $278 -49.202493940890228 $279 49.202493940890228 $186 $280 forward 7 unknown #
coedge $-1 $118 $117 $281 $282 forward $46 $-1 #
coedge $-1 $283 $284 $117 $190 reversed $268 $-1 #
edge $-1 $197 -72.956328012939849 $285 72.956328012939849 $189 $286 forward 7 unknown #
coedge $-1 $183 $287 $118 $192 reversed $114 $-1 #
edge $-1 $288 -72.956328012939849 $196 72.956328012939849 $191 $289 forward 7 unknown #
coedge $-1 $186 $119 $287 $290 forward $195 $-1 #
coedge $-1 $119 $186 $283 $291 reversed $195 $-1 #
loop $-1 $-1 $193 $267 #
vertex $-1 $120 $292 #
vertex $-1 $120 $293 #
straight-curve $-1 72.956328012939849 0 19.513120174622902 0 1 0 I I #
face $-1 $294 $295 $28 $-1 $296 reversed single #
loop $-1 $-1 $205 $121 #
plane-surface $-1 72.956328012939849 0 0 -1 0 0 0 0 1 forward_v I I I I #
coedge $-1 $297 $298 $203 $299 forward $122 $-1 #
coedge $-1 $300 $124 $202 $299 reversed $77 $-1 #
coedge $-1 $124 $300 $125 $208 reversed $77 $-1 #
coedge $-1 $127 $301 $124 $206 forward $200 $-1 #
edge $-1 $302 -10.986380337216003 $212 -6.0670993375977922 $205 $303 forward 7 unknown #
coedge $-1 $126 $125 $304 $305 reversed $49 $-1 #
edge $-1 $212 -72.956328012939849 $306 72.956328012939849 $204 $307 forward 7 unknown #
coedge $-1 $308 $309 $126 $210 forward $295 $-1 #
edge $-1 $213 -72.956328012939849 $310 72.956328012939849 $209 $311 forward 7 unknown #
coedge $-1 $301 $127 $309 $312 forward $200 $-1 #
vertex $-1 $128 $313 #
vertex $-1 $312 $314 #
straight-curve $-1 72.956328012939849 -19.51121500346127 -14.593839175004691 0 -1 0 I I #
face $-1 $-1 $227 $29 $-1 $315 reversed single #
loop $-1 $-1 $316 $129 #
plane-surface $-1 0 49.202493940890228 0 0 -1 0 0 0 -1 forward_v I I I I #
coedge $-1 $223 $317 $318 $319 forward $130 $-1 #
coedge $-1 $318 $132 $134 $225 forward $81 $-1 #
coedge $-1 $132 $318 $316 $320 reversed $81 $-1 #
coedge $-1 $321 $135 $132 $222 forward $227 $-1 #
edge $-1 $229 13.679980284450561 $322 28.241669199109968 $221 $323 forward 7 unknown #
coedge $-1 $324 $218 $133 $224 forward $130 $-1 #
edge $-1 $325 23.323894715817559 $228 38.278829330275997 $223 $326 forward 7 unknown #
edge $-1 $229 -145.91265602587967 $325 -125.12285019106247 $134 $327 forward 7 unknown #
coedge $-1 $135 $321 $324 $328 reversed $227 $-1 #
loop $-1 $-1 $221 $215 #
vertex $-1 $328 $329 #
vertex $-1 $136 $330 #
straight-curve $-1 72.956328012939849 34.640805026230822 105.69576805963338 0 0 -1 I I #
coedge $-1 $231 $231 $-1 $331 reversed $139 $-1 #
edge $-1 $332 0 $332 6.2831853071796004 $140 $333 forward 7 unknown #
vertex $-1 $143 $334 #
ellipse-curve $-1 65.47886070571063 38.801287573276362 12.292213768106601 0.69465837861970381 0 0.71933979245794832 0.71933979245794832 0 -0.69465837861970381 1 I I #
coedge $-1 $235 $235 $-1 $335 reversed $146 $-1 #
edge $-1 $336 0 $336 6.2831853071796004 $147 $337 forward 7 unknown #
vertex $-1 $150 $338 #
ellipse-curve $-1 65.47886070571063 45.042011393844682 12.292213768106601 0.69465837861970381 0 0.71933979245794832 0.71933979245794832 0 -0.69465837861970381 1 I I #
face $-1 $-1 $251 $32 $-1 $339 forward single #
loop $-1 $-1 $340 $151 #
plane-surface $-1 -72.956328012939849 0 0 1 0 0 0 0 -1 forward_v I I I I #
coedge $-1 $341 $342 $343 $344 reversed $152 $-1 #
coedge $-1 $345 $154 $156 $249 forward $95 $-1 #
coedge $-1 $154 $345 $341 $346 forward $95 $-1 #
coedge $-1 $343 $157 $154 $246 forward $251 $-1 #
edge $-1 $253 5.7384767669048706 $347 21.014709521529898 $245 $348 forward 7 unknown #
coedge $-1 $349 $350 $155 $248 forward $240 $-1 #
edge $-1 $351 -54.985512438404051 $252 -50.572924290283453 $247 $352 forward 7 unknown #
edge $-1 $253 -8.5674988013135742 $351 -1.6755537013839907e-014 $156 $353 forward 7 unknown #
coedge $-1 $157 $343 $349 $354 forward $251 $-1 #
loop $-1 $-1 $343 $239 #
vertex $-1 $248 $355 #
vertex $-1 $158 $356 #
straight-curve $-1 -74.053451238601212 19.115069911122255 19.513120174622898 1 0 0 I I #
coedge $-1 $255 $255 $-1 $357 reversed $161 $-1 #
edge $-1 $358 0 $358 6.2831853071796004 $162 $359 forward 7 unknown #
vertex $-1 $165 $360 #
ellipse-curve $-1 -69.284438119929206 22.170316462047261 17.306826100562606 -0.51503808176128008 0 0.85716729658548041 0.85716729658548041 0 0.51503808176128008 1 I I #
coedge $-1 $259 $259 $-1 $361 reversed $168 $-1 #
edge $-1 $362 0 $362 6.2831853071796004 $169 $363 forward 7 unknown #
vertex $-1 $172 $364 #
ellipse-curve $-1 -69.284438119929206 26.753186288434769 17.306826100562606 -0.51503808176128008 0 0.85716729658548041 0.85716729658548041 0 0.51503808176128008 1 I I #
coedge $-1 $263 $263 $-1 $365 reversed $175 $-1 #
edge $-1 $366 0 $366 6.2831853071796004 $176 $367 forward 7 unknown #
vertex $-1 $179 $368 #
ellipse-curve $-1 -69.284438119929206 31.336056114822277 17.306826100562606 -0.51503808176128008 0 0.85716729658548041 0.85716729658548041 0 0.51503808176128008 1 I I #
face $-1 $-1 $195 $27 $-1 $369 reversed single #
loop $-1 $-1 $283 $180 #
plane-surface $-1 0 49.202493940890228 0 0 -1 0 0 0 -1 forward_v I I I I #
coedge $-1 $370 $281 $284 $371 forward $181 $-1 #
coedge $-1 $287 $183 $184 $275 reversed $114 $-1 #
coedge $-1 $281 $370 $183 $273 reversed $181 $-1 #
edge $-1 $288 -19.513120174622902 $372 19.513120174622902 $272 $373 forward 7 unknown #
coedge $-1 $185 $184 $370 $374 forward $73 $-1 #
edge $-1 $279 -72.956328012939849 $372 72.956328012939849 $271 $375 forward 7 unknown #
coedge $-1 $284 $283 $185 $277 reversed $268 $-1 #
edge $-1 $376 -72.956328012939849 $278 72.956328012939849 $276 $377 forward 7 unknown #
vertex $-1 $187 $378 #
vertex $-1 $290 $379 #
straight-curve $-1 72.956328012939849 0 -19.513120174622902 0 -1 0 I I #
coedge $-1 $270 $272 $188 $282 reversed $181 $-1 #
edge $-1 $285 -49.202493940890228 $288 49.202493940890228 $281 $380 forward 7 unknown #
coedge $-1 $276 $189 $194 $291 forward $268 $-1 #
coedge $-1 $189 $276 $270 $371 reversed $268 $-1 #
vertex $-1 $190 $381 #
straight-curve $-1 0 49.202493940890228 19.513120174622902 -1 0 0 I I #
coedge $-1 $191 $271 $193 $290 reversed $114 $-1 #
vertex $-1 $282 $382 #
straight-curve $-1 0 -49.202493940890228 19.513120174622902 1 0 0 I I #
edge $-1 $196 -19.513120174622902 $279 19.513120174622902 $193 $383 forward 7 unknown #
edge $-1 $197 -19.513120174622902 $278 19.513120174622902 $194 $384 forward 7 unknown #
point $-1 72.956328012939849 -49.202493940890228 19.513120174622902 #
point $-1 72.956328012939849 49.202493940890228 19.513120174622902 #
face $-1 $-1 $385 $28 $-1 $386 reversed single #
loop $-1 $-1 $209 $199 #
plane-surface $-1 0 -49.202493940890228 0 0 1 0 0 0 1 forward_v I I I I #
coedge $-1 $387 $202 $301 $388 forward $122 $-1 #
coedge $-1 $202 $387 $389 $390 forward $122 $-1 #
edge $-1 $391 -72.956328012939849 $302 72.956328012939849 $202 $392 forward 7 unknown #
coedge $-1 $204 $203 $393 $394 reversed $77 $-1 #
coedge $-1 $205 $211 $297 $388 reversed $200 $-1 #
vertex $-1 $388 $395 #
straight-curve $-1 72.956328012939849 -28.842366072954853 -8.5267398374068986 0 0 1 I I #
coedge $-1 $393 $396 $207 $305 forward $385 $-1 #
edge $-1 $310 -29.691278937428958 $306 -9.3311510694935826 $304 $397 forward 7 unknown #
vertex $-1 $305 $398 #
straight-curve $-1 0 -28.842366072954853 -14.593839175004691 -1 0 0 I I #
coedge $-1 $399 $209 $396 $400 forward $295 $-1 #
coedge $-1 $209 $399 $211 $312 reversed $295 $-1 #
vertex $-1 $400 $401 #
straight-curve $-1 0 -49.202493940890228 -14.593839175004691 -1 0 0 I I #
edge $-1 $213 14.593839175004691 $402 19.513120174622902 $211 $403 forward 7 unknown #
point $-1 72.956328012939849 -28.842366072954853 -14.593839175004691 #
point $-1 72.956328012939849 -49.202493940890228 -14.593839175004691 #
plane-surface $-1 72.956328012939849 0 0 -1 0 0 0 0 1 forward_v I I I I #
coedge $-1 $404 $405 $220 $320 forward $216 $-1 #
coedge $-1 $218 $324 $404 $406 forward $130 $-1 #
coedge $-1 $220 $219 $218 $319 reversed $81 $-1 #
edge $-1 $407 -28.24166919910996 $325 -13.679980284450561 $218 $408 forward 7 unknown #
edge $-1 $322 -97.435109863958644 $407 -76.645304029141471 $316 $409 forward 7 unknown #
coedge $-1 $226 $221 $405 $410 reversed $227 $-1 #
vertex $-1 $222 $411 #
straight-curve $-1 72.956328012939849 20.960824741780261 5.0713073615903355 0 1 0 I I #
coedge $-1 $317 $223 $226 $328 forward $130 $-1 #
vertex $-1 $224 $412 #
straight-curve $-1 34.677498682663852 34.640805026230822 19.513120174622898 1 0 0 I I #
straight-curve $-1 -32.004451689704439 34.640805026230822 106.43075641662246 -0.71933979245794832 0 0.69465837861970381 I I #
edge $-1 $228 34.640805026230822 $413 49.202493940890228 $226 $414 forward 7 unknown #
point $-1 72.956328012939849 34.640805026230822 19.513120174622902 #
point $-1 72.956328012939849 34.640805026230822 5.0713073615903284 #
edge $-1 $415 1 $415 0 $231 $-1 forward 7 unknown #
vertex $-1 $232 $416 #
ellipse-curve $-1 63.220728076630884 38.801287573276362 9.9538490312234327 0.69465837861970381 0 0.71933979245794832 0.71933979245794832 0 -0.69465837861970381 1 I I #
point $-1 66.198200498168589 38.801287573276362 11.597555389486899 #
edge $-1 $417 1 $417 0 $235 $-1 forward 7 unknown #
vertex $-1 $236 $418 #
ellipse-curve $-1 63.220728076630884 45.042011393844682 9.9538490312234327 0.69465837861970381 0 0.71933979245794832 0.71933979245794832 0 -0.69465837861970381 1 I I #
point $-1 66.198200498168589 45.042011393844682 11.597555389486899 #
plane-surface $-1 0 0 19.513120174622902 0 0 1 1 0 0 forward_v I I I I #
coedge $-1 $350 $349 $342 $419 forward $240 $-1 #
coedge $-1 $342 $242 $244 $346 reversed $152 $-1 #
coedge $-1 $242 $341 $340 $419 reversed $152 $-1 #
coedge $-1 $250 $245 $242 $344 forward $251 $-1 #
edge $-1 $347 -8.44090301168265 $420 -1.0971232256613632 $343 $421 forward 7 unknown #
coedge $-1 $244 $243 $350 $422 reversed $95 $-1 #
edge $-1 $423 1.6755537013839907e-014 $347 8.5674988013135742 $341 $424 forward 7 unknown #
vertex $-1 $246 $425 #
straight-curve $-1 -65.612548226918562 13.376593144217384 19.513120174622898 0 1 0 I I #
coedge $-1 $340 $247 $250 $354 reversed $240 $-1 #
coedge $-1 $247 $340 $345 $422 forward $240 $-1 #
vertex $-1 $248 $426 #
straight-curve $-1 -72.956328012939849 19.115069911122255 70.086044464906351 0 0 1 I I #
straight-curve $-1 -72.956328012939863 19.115069911122255 15.100532026502293 -0.85716729658548041 0 -0.51503808176128008 I I #
edge $-1 $420 -34.391302665747283 $252 -19.115069911122255 $349 $427 forward 7 unknown #
point $-1 -72.956328012939849 19.115069911122255 19.513120174622902 #
point $-1 -65.612548226918562 19.115069911122255 19.513120174622902 #
edge $-1 $428 1 $428 0 $255 $-1 forward 7 unknown #
vertex $-1 $256 $429 #
ellipse-curve $-1 -67.265593208236979 22.170316462047261 13.946903996816781 -0.51503808176128008 0 0.85716729658548041 0.85716729658548041 0 0.51503808176128008 1 I I #
point $-1 -68.427270823343719 22.170316462047261 17.821864182323875 #
edge $-1 $430 1 $430 0 $259 $-1 forward 7 unknown #
vertex $-1 $260 $431 #
ellipse-curve $-1 -67.265593208236979 26.753186288434769 13.946903996816781 -0.51503808176128008 0 0.85716729658548041 0.85716729658548041 0 0.51503808176128008 1 I I #
point $-1 -68.427270823343719 26.753186288434769 17.821864182323875 #
edge $-1 $432 1 $432 0 $263 $-1 forward 7 unknown #
vertex $-1 $264 $433 #
ellipse-curve $-1 -67.265593208236979 31.336056114822277 13.946903996816781 -0.51503808176128008 0 0.85716729658548041 0.85716729658548041 0 0.51503808176128008 1 I I #
point $-1 -68.427270823343719 31.336056114822277 17.821864182323875 #
plane-surface $-1 72.956328012939849 0 0 -1 0 0 0 0 1 forward_v I I I I #
coedge $-1 $272 $270 $274 $374 reversed $181 $-1 #
edge $-1 $285 -19.513120174622902 $376 19.513120174622902 $284 $434 forward 7 unknown #
vertex $-1 $374 $435 #
straight-curve $-1 -72.956328012939849 -49.202493940890228 0 0 0 -1 I I #
edge $-1 $372 -49.202493940890228 $376 49.202493940890228 $370 $436 forward 7 unknown #
straight-curve $-1 0 -49.202493940890228 -19.513120174622902 -1 0 0 I I #
vertex $-1 $277 $437 #
straight-curve $-1 0 49.202493940890228 -19.513120174622902 1 0 0 I I #
point $-1 72.956328012939849 49.202493940890228 -19.513120174622902 #
point $-1 72.956328012939849 -49.202493940890228 -19.513120174622902 #
straight-curve $-1 -72.956328012939849 0 19.513120174622902 0 -1 0 I I #
point $-1 -72.956328012939849 49.202493940890228 19.513120174622902 #
point $-1 -72.956328012939849 -49.202493940890228 19.513120174622902 #
straight-curve $-1 72.956328012939849 -49.202493940890228 0 0 0 -1 I I #
straight-curve $-1 72.956328012939849 49.202493940890228 0 0 0 -1 I I #
loop $-1 $-1 $393 $294 #
plane-surface $-1 -72.956328012939849 0 0 1 0 0 0 0 -1 forward_v I I I I #
coedge $-1 $298 $297 $399 $438 forward $122 $-1 #
edge $-1 $302 28.842366072954853 $402 49.202493940890228 $301 $439 forward 7 unknown #
coedge $-1 $396 $393 $298 $390 reversed $385 $-1 #
edge $-1 $440 -49.202493940890228 $391 -28.842366072954853 $389 $441 forward 7 unknown #
vertex $-1 $394 $442 #
straight-curve $-1 0 -28.842366072954853 -19.513120174622902 1 0 0 I I #
coedge $-1 $389 $304 $300 $394 forward $385 $-1 #
edge $-1 $306 6.0670993375977922 $391 10.986380337216003 $393 $443 forward 7 unknown #
point $-1 72.956328012939849 -28.842366072954853 -19.513120174622902 #
coedge $-1 $304 $389 $308 $400 reversed $385 $-1 #
straight-curve $-1 -72.956328012939849 -19.51121500346127 -14.593839175004691 0 1 0 I I #
point $-1 -72.956328012939849 -28.842366072954853 -14.593839175004691 #
coedge $-1 $309 $308 $387 $438 reversed $295 $-1 #
edge $-1 $310 14.593839175004691 $440 19.513120174622902 $396 $444 forward 7 unknown #
point $-1 -72.956328012939849 -49.202493940890228 -14.593839175004691 #
vertex $-1 $312 $445 #
straight-curve $-1 72.956328012939849 -49.202493940890228 0 0 0 -1 I I #
coedge $-1 $405 $316 $317 $406 reversed $216 $-1 #
coedge $-1 $316 $404 $321 $410 forward $216 $-1 #
edge $-1 $413 -72.956328012939849 $407 -58.001393398481412 $404 $446 forward 7 unknown #
vertex $-1 $319 $447 #
straight-curve $-1 58.001393398481397 20.960824741780261 19.513120174622905 0 -1 0 I I #
straight-curve $-1 2.8673763052824341 49.202493940890228 72.755422800320559 -0.71933979245794832 0 0.69465837861970381 I I #
edge $-1 $413 -19.513120174622902 $322 -5.0713073615903319 $321 $448 forward 7 unknown #
point $-1 72.956328012939849 49.202493940890228 5.0713073615903319 #
point $-1 58.001393398481412 34.640805026230822 19.513120174622898 #
vertex $-1 $328 $449 #
straight-curve $-1 72.956328012939849 0 19.513120174622902 0 1 0 I I #
vertex $-1 $331 $450 #
point $-1 63.940067869088828 38.801287573276362 9.2591906526037295 #
vertex $-1 $335 $451 #
point $-1 63.940067869088828 45.042011393844682 9.2591906526037295 #
edge $-1 $420 50.572924290283453 $423 54.985512438404051 $340 $452 forward 7 unknown #
vertex $-1 $354 $453 #
straight-curve $-1 -74.053451238601212 34.391302665747283 19.513120174622898 -1 0 0 I I #
edge $-1 $423 -21.014709521529898 $351 -5.7384767669048706 $350 $454 forward 7 unknown #
vertex $-1 $422 $455 #
straight-curve $-1 -72.956328012939863 34.391302665747283 15.100532026502293 0.85716729658548041 0 0.51503808176128008 I I #
point $-1 -65.612548226918562 34.391302665747283 19.513120174622902 #
point $-1 -72.956328012939849 19.115069911122255 15.100532026502302 #
straight-curve $-1 -72.956328012939849 0 19.513120174622902 0 -1 0 I I #
vertex $-1 $357 $456 #
point $-1 -66.408425911651506 22.170316462047261 14.46194207857806 #
vertex $-1 $361 $457 #
point $-1 -66.408425911651506 26.753186288434769 14.46194207857806 #
vertex $-1 $365 $458 #
point $-1 -66.408425911651506 31.336056114822277 14.46194207857806 #
straight-curve $-1 -72.956328012939849 49.202493940890228 0 0 0 -1 I I #
point $-1 -72.956328012939849 -49.202493940890228 -19.513120174622902 #
straight-curve $-1 -72.956328012939849 0 -19.513120174622902 0 1 0 I I #
point $-1 -72.956328012939849 49.202493940890228 -19.513120174622902 #
edge $-1 $402 -72.956328012939849 $440 72.956328012939849 $399 $459 forward 7 unknown #
straight-curve $-1 72.956328012939849 0 -19.513120174622902 0 -1 0 I I #
vertex $-1 $390 $460 #
straight-curve $-1 -72.956328012939849 0 -19.513120174622902 0 1 0 I I #
point $-1 -72.956328012939849 -28.842366072954853 -19.513120174622902 #
straight-curve $-1 -72.956328012939849 -28.842366072954853 -8.5267398374068986 0 0 -1 I I #
straight-curve $-1 -72.956328012939849 -49.202493940890228 0 0 0 -1 I I #
point $-1 72.956328012939849 -49.202493940890228 -19.513120174622902 #
straight-curve $-1 0 49.202493940890228 19.513120174622902 -1 0 0 I I #
point $-1 58.001393398481412 49.202493940890221 19.513120174622898 #
straight-curve $-1 72.956328012939849 49.202493940890228 0 0 0 -1 I I #
point $-1 72.956328012939849 49.202493940890228 19.513120174622902 #
point $-1 62.526069698011177 38.801287573276362 9.2345092387654848 #
point $-1 62.526069698011177 45.042011393844682 9.2345092387654848 #
straight-curve $-1 -72.956328012939849 34.391302665747283 70.086044464906351 0 0 -1 I I #
point $-1 -72.956328012939849 34.391302665747283 19.513120174622902 #
straight-curve $-1 -72.956328012939849 13.376593144217384 15.100532026502295 0 -1 0 I I #
point $-1 -72.956328012939849 34.391302665747283 15.100532026502302 #
point $-1 -66.750555126475703 22.170316462047261 13.089736700231297 #
point $-1 -66.750555126475703 26.753186288434769 13.089736700231297 #
point $-1 -66.750555126475703 31.336056114822277 13.089736700231297 #
straight-curve $-1 0 -49.202493940890228 -19.513120174622902 -1 0 0 I I #
point $-1 -72.956328012939849 -49.202493940890228 -19.513120174622902 #
End-of-ACIS-data 