500 0 16 0           
7 Unknown 11 ACIS 5.0 NT 24 Thu Mar 25 22:52:34 1999 
-1 9.9999999999999995e-007 1e-010 
body $-1 $16 $-1 $17 #
body $-1 $18 $-1 $19 #
body $-1 $20 $-1 $21 #
body $-1 $22 $-1 $23 #
body $-1 $24 $-1 $25 #
body $-1 $26 $-1 $27 #
body $-1 $28 $-1 $29 #
body $-1 $30 $-1 $31 #
body $-1 $32 $-1 $33 #
body $-1 $34 $-1 $35 #
body $-1 $36 $-1 $37 #
body $-1 $38 $-1 $39 #
body $-1 $40 $-1 $41 #
body $-1 $42 $-1 $43 #
body $-1 $44 $-1 $45 #
body $-1 $46 $-1 $47 #
lump $-1 $-1 $48 $0 #
transform $-1 1 0 0 0 1 0 0 0 1 69.333170567949466 38.047865430695005 18.108122556798072 1 rotate no_reflect no_shear #
lump $-1 $-1 $49 $1 #
transform $-1 1 0 0 0 1 0 0 0 1 69.333170567949466 38.047865430695005 18.108122556798072 1 rotate no_reflect no_shear #
lump $-1 $-1 $50 $2 #
transform $-1 1 0 0 0 1 0 0 0 1 69.333170567949466 38.047865430695005 18.108122556798072 1 rotate no_reflect no_shear #
lump $-1 $-1 $51 $3 #
transform $-1 1 0 0 0 1 0 0 0 1 69.333170567949466 38.047865430695005 18.108122556798072 1 rotate no_reflect no_shear #
lump $-1 $-1 $52 $4 #
transform $-1 1 0 0 0 1 0 0 0 1 69.333170567949466 38.047865430695005 18.108122556798072 1 rotate no_reflect no_shear #
lump $-1 $-1 $53 $5 #
transform $-1 1 0 0 0 1 0 0 0 1 69.333170567949466 38.047865430695005 18.108122556798072 1 rotate no_reflect no_shear #
lump $-1 $-1 $54 $6 #
transform $-1 1 0 0 0 1 0 0 0 1 69.333170567949466 38.047865430695005 18.108122556798072 1 rotate no_reflect no_shear #
lump $-1 $-1 $55 $7 #
transform $-1 1 0 0 0 1 0 0 0 1 69.333170567949466 38.047865430695005 18.108122556798072 1 rotate no_reflect no_shear #
lump $-1 $-1 $56 $8 #
transform $-1 1 0 0 0 1 0 0 0 1 69.333170567949466 38.047865430695005 18.108122556798072 1 rotate no_reflect no_shear #
lump $-1 $-1 $57 $9 #
transform $-1 1 0 0 0 1 0 0 0 1 69.333170567949466 38.047865430695005 18.108122556798072 1 rotate no_reflect no_shear #
lump $-1 $-1 $58 $10 #
transform $-1 1 0 0 0 1 0 0 0 1 69.333170567949466 38.047865430695005 18.108122556798072 1 rotate no_reflect no_shear #
lump $-1 $-1 $59 $11 #
transform $-1 1 0 0 0 1 0 0 0 1 69.333170567949466 38.047865430695005 18.108122556798072 1 rotate no_reflect no_shear #
lump $-1 $-1 $60 $12 #
transform $-1 1 0 0 0 1 0 0 0 1 69.333170567949466 38.047865430695005 18.108122556798072 1 rotate no_reflect no_shear #
lump $-1 $-1 $61 $13 #
transform $-1 1 0 0 0 1 0 0 0 1 69.333170567949466 38.047865430695005 18.108122556798072 1 rotate no_reflect no_shear #
lump $-1 $-1 $62 $14 #
transform $-1 1 0 0 0 1 0 0 0 1 69.333170567949466 38.047865430695005 18.108122556798072 1 rotate no_reflect no_shear #
lump $-1 $-1 $63 $15 #
transform $-1 1 0 0 0 1 0 0 0 1 69.333170567949466 38.047865430695005 18.108122556798072 1 rotate no_reflect no_shear #
shell $-1 $-1 $-1 $64 $-1 $16 #
shell $-1 $-1 $-1 $65 $-1 $18 #
shell $-1 $-1 $-1 $66 $-1 $20 #
shell $-1 $-1 $-1 $67 $-1 $22 #
shell $-1 $-1 $-1 $68 $-1 $24 #
shell $-1 $-1 $-1 $69 $-1 $26 #
shell $-1 $-1 $-1 $70 $-1 $28 #
shell $-1 $-1 $-1 $71 $-1 $30 #
shell $-1 $-1 $-1 $72 $-1 $32 #
shell $-1 $-1 $-1 $73 $-1 $34 #
shell $-1 $-1 $-1 $74 $-1 $36 #
shell $-1 $-1 $-1 $75 $-1 $38 #
shell $-1 $-1 $-1 $76 $-1 $40 #
shell $-1 $-1 $-1 $77 $-1 $42 #
shell $-1 $-1 $-1 $78 $-1 $44 #
shell $-1 $-1 $-1 $79 $-1 $46 #
face $-1 $80 $81 $48 $-1 $82 reversed single #
face $-1 $83 $84 $49 $-1 $85 forward single #
face $-1 $86 $87 $50 $-1 $88 reversed single #
face $-1 $89 $90 $51 $-1 $91 forward single #
face $-1 $92 $93 $52 $-1 $94 forward single #
face $-1 $95 $96 $53 $-1 $97 reversed single #
face $-1 $98 $99 $54 $-1 $100 forward single #
face $-1 $101 $102 $55 $-1 $103 forward single #
face $-1 $104 $105 $56 $-1 $106 reversed single #
face $-1 $107 $108 $57 $-1 $109 forward single #
face $-1 $110 $111 $58 $-1 $112 forward single #
face $-1 $113 $114 $59 $-1 $115 forward single #
face $-1 $116 $117 $60 $-1 $118 reversed single #
face $-1 $119 $120 $61 $-1 $121 forward single #
face $-1 $122 $123 $62 $-1 $124 forward single #
face $-1 $125 $126 $63 $-1 $127 forward single #
face $-1 $128 $129 $48 $-1 $130 forward single #
loop $-1 $-1 $131 $64 #
plane-surface $-1 0 -38.047865430695005 0 0 1 0 0 0 1 forward_v I I I I #
face $-1 $132 $133 $49 $-1 $134 forward single #
loop $-1 $-1 $135 $65 #
plane-surface $-1 0 -38.047865430695005 0 0 1 0 0 0 1 forward_v I I I I #
face $-1 $136 $137 $50 $-1 $138 reversed single #
loop $-1 $-1 $139 $66 #
plane-surface $-1 18.577768527555094 10.812102617518011 190.45686375534666 0 -1 0 -0.50000000669873634 0 -0.8660253999169214 forward_v I I I I #
face $-1 $140 $141 $51 $-1 $142 forward single #
loop $-1 $143 $144 $67 #
cone-surface $-1 54.212048701315794 1.2866433788657403 8.9905746047802246 -0.50000000669873634 0 -0.8660253999169214 0.8660253999169214 0 -0.50000000669873634 1 I I 0 1 1 forward I I I I #
face $-1 $145 $146 $52 $-1 $147 forward single #
loop $-1 $148 $149 $68 #
cone-surface $-1 54.212048701315794 7.0019189220571079 8.9905746047802246 -0.50000000669873634 0 -0.8660253999169214 0.8660253999169214 0 -0.50000000669873634 1 I I 0 1 1 forward I I I I #
face $-1 $150 $151 $53 $-1 $152 reversed single #
loop $-1 $-1 $153 $69 #
plane-surface $-1 18.577768527555094 24.712222496581813 190.45686375534666 0 1 0 0.50000000669873634 0 0.8660253999169214 forward_v I I I I #
face $-1 $154 $155 $54 $-1 $156 forward single #
loop $-1 $157 $158 $70 #
cone-surface $-1 54.212048701315794 28.52240619204273 8.9905746047802246 -0.50000000669873634 0 -0.8660253999169214 0.8660253999169214 0 -0.50000000669873634 1 I I 0 1 1 forward I I I I #
face $-1 $159 $160 $55 $-1 $161 forward single #
loop $-1 $162 $163 $71 #
cone-surface $-1 54.212048701315794 34.237681735234098 8.9905746047802246 -0.50000000669873634 0 -0.8660253999169214 0.8660253999169214 0 -0.50000000669873634 1 I I 0 1 1 forward I I I I #
face $-1 $164 $165 $56 $-1 $166 reversed single #
loop $-1 $-1 $167 $72 #
plane-surface $-1 -177.09715871923146 -11.218498794748648 87.658853618391475 0 1 0 -0.77714596973225614 0 0.62932038083071107 forward_v I I I I #
face $-1 $168 $169 $57 $-1 $170 forward single #
loop $-1 $171 $172 $73 #
cone-surface $-1 -61.65780816899008 -8.8016185537023048 8.8435740863288022 0.77714596973225614 0 -0.62932038083071107 0.62932038083071107 0 0.77714596973225614 1 I I 0 1 1 forward I I I I #
face $-1 $173 $174 $58 $-1 $175 forward single #
loop $-1 $176 $177 $74 #
cone-surface $-1 -61.65780816899008 -5.1762981921327906 8.8435740863288022 0.77714596973225614 0 -0.62932038083071107 0.62932038083071107 0 0.77714596973225614 1 I I 0 1 1 forward I I I I #
face $-1 $178 $179 $59 $-1 $180 forward single #
loop $-1 $181 $182 $75 #
cone-surface $-1 -61.65780816899008 -1.5509778305632764 8.8435740863288022 0.77714596973225614 0 -0.62932038083071107 0.62932038083071107 0 0.77714596973225614 1 I I 0 1 1 forward I I I I #
face $-1 $183 $184 $60 $-1 $185 reversed single #
loop $-1 $-1 $186 $76 #
plane-surface $-1 -177.09715871923146 20.75830282455297 87.658853618391475 0 1 0 -0.77714596973225614 0 0.62932038083071107 forward_v I I I I #
face $-1 $187 $188 $61 $-1 $189 forward single #
loop $-1 $190 $191 $77 #
cone-surface $-1 -61.65780816899008 23.175183065599306 8.8435740863288022 0.77714596973225614 0 -0.62932038083071107 0.62932038083071107 0 0.77714596973225614 1 I I 0 1 1 forward I I I I #
face $-1 $192 $193 $62 $-1 $194 forward single #
loop $-1 $195 $196 $78 #
cone-surface $-1 -61.65780816899008 26.800503427168827 8.8435740863288022 0.77714596973225614 0 -0.62932038083071107 0.62932038083071107 0 0.77714596973225614 1 I I 0 1 1 forward I I I I #
face $-1 $197 $198 $63 $-1 $199 forward single #
loop $-1 $200 $201 $79 #
cone-surface $-1 -61.65780816899008 30.425823788738334 8.8435740863288022 0.77714596973225614 0 -0.62932038083071107 0.62932038083071107 0 0.77714596973225614 1 I I 0 1 1 forward I I I I #
face $-1 $202 $203 $48 $-1 $204 reversed single #
loop $-1 $-1 $205 $80 #
plane-surface $-1 0 0 18.108122556798072 0 0 1 1 0 0 forward_v I I I I #
coedge $-1 $206 $207 $208 $209 reversed $81 $-1 #
face $-1 $210 $211 $49 $-1 $212 reversed single #
loop $-1 $-1 $213 $83 #
plane-surface $-1 0 0 18.108122556798072 0 0 1 1 0 0 forward_v I I I I #
coedge $-1 $214 $215 $216 $217 forward $84 $-1 #
face $-1 $218 $219 $50 $-1 $220 reversed single #
loop $-1 $-1 $221 $86 #
plane-surface $-1 -50.755402969283637 4.144281150461417 70.368290218113543 0.50000000669873634 0 0.8660253999169214 0.8660253999169214 0 -0.50000000669873634 forward_v I I I I #
coedge $-1 $222 $223 $224 $225 reversed $87 $-1 #
face $-1 $-1 $226 $51 $-1 $227 forward single #
loop $-1 $228 $229 $89 #
cone-surface $-1 53.626581607684486 1.2866433788657403 7.9765158705655423 -0.50000000669873634 0 -0.8660253999169214 0.4330126999584607 0 -0.25000000334936817 1 I I -0.70710678118654746 0.70710678118654746 0.5 forward I I I I #
loop $-1 $-1 $230 $67 #
coedge $-1 $144 $144 $231 $232 reversed $90 $-1 #
face $-1 $-1 $233 $52 $-1 $234 forward single #
loop $-1 $235 $236 $92 #
cone-surface $-1 53.626581607684486 7.0019189220571079 7.9765158705655423 -0.50000000669873634 0 -0.8660253999169214 0.4330126999584607 0 -0.25000000334936817 1 I I -0.70710678118654746 0.70710678118654746 0.5 forward I I I I #
loop $-1 $-1 $237 $68 #
coedge $-1 $149 $149 $238 $239 reversed $93 $-1 #
face $-1 $240 $241 $53 $-1 $242 reversed single #
loop $-1 $-1 $243 $95 #
plane-surface $-1 -50.755402969283637 31.380043963638407 70.368290218113543 0.50000000669873634 0 0.8660253999169214 0.8660253999169214 0 -0.50000000669873634 forward_v I I I I #
coedge $-1 $244 $245 $246 $247 reversed $96 $-1 #
face $-1 $-1 $248 $54 $-1 $249 forward single #
loop $-1 $250 $251 $98 #
cone-surface $-1 53.626581607684486 28.52240619204273 7.9765158705655423 -0.50000000669873634 0 -0.8660253999169214 0.4330126999584607 0 -0.25000000334936817 1 I I -0.70710678118654746 0.70710678118654746 0.5 forward I I I I #
loop $-1 $-1 $252 $70 #
coedge $-1 $158 $158 $253 $254 reversed $99 $-1 #
face $-1 $-1 $255 $55 $-1 $256 forward single #
loop $-1 $257 $258 $101 #
cone-surface $-1 53.626581607684486 34.237681735234098 7.9765158705655423 -0.50000000669873634 0 -0.8660253999169214 0.4330126999584607 0 -0.25000000334936817 1 I I -0.70710678118654746 0.70710678118654746 0.5 forward I I I I #
loop $-1 $-1 $259 $71 #
coedge $-1 $163 $163 $260 $261 reversed $102 $-1 #
face $-1 $262 $263 $56 $-1 $264 reversed single #
loop $-1 $-1 $265 $104 #
plane-surface $-1 -69.333170567949438 -5.1762981921327906 0.39329900634626824 -0.77714596973225614 0 0.62932038083071107 0.62932038083071107 0 0.77714596973225614 forward_v I I I I #
coedge $-1 $266 $267 $268 $269 reversed $105 $-1 #
face $-1 $-1 $270 $57 $-1 $271 forward single #
loop $-1 $272 $273 $107 #
cone-surface $-1 -60.766463223328969 -8.8016185537023048 8.121777200670067 0.77714596973225614 0 -0.62932038083071107 0.31466019041535553 0 0.38857298486612807 1 I I -0.70710678118654746 0.70710678118654746 0.5 forward I I I I #
loop $-1 $-1 $274 $73 #
coedge $-1 $172 $172 $275 $276 reversed $108 $-1 #
face $-1 $-1 $277 $58 $-1 $278 forward single #
loop $-1 $279 $280 $110 #
cone-surface $-1 -60.766463223328969 -5.1762981921327906 8.121777200670067 0.77714596973225614 0 -0.62932038083071107 0.31466019041535553 0 0.38857298486612807 1 I I -0.70710678118654746 0.70710678118654746 0.5 forward I I I I #
loop $-1 $-1 $281 $74 #
coedge $-1 $177 $177 $282 $283 reversed $111 $-1 #
face $-1 $-1 $284 $59 $-1 $285 forward single #
loop $-1 $286 $287 $113 #
cone-surface $-1 -60.766463223328969 -1.5509778305632764 8.121777200670067 0.77714596973225614 0 -0.62932038083071107 0.31466019041535553 0 0.38857298486612807 1 I I -0.70710678118654746 0.70710678118654746 0.5 forward I I I I #
loop $-1 $-1 $288 $75 #
coedge $-1 $182 $182 $289 $290 reversed $114 $-1 #
face $-1 $291 $292 $60 $-1 $293 reversed single #
loop $-1 $-1 $294 $116 #
plane-surface $-1 -69.333170567949438 26.800503427168827 0.39329900634626824 -0.77714596973225614 0 0.62932038083071107 0.62932038083071107 0 0.77714596973225614 forward_v I I I I #
coedge $-1 $295 $296 $297 $298 reversed $117 $-1 #
face $-1 $-1 $299 $61 $-1 $300 forward single #
loop $-1 $301 $302 $119 #
cone-surface $-1 -60.766463223328969 23.175183065599306 8.121777200670067 0.77714596973225614 0 -0.62932038083071107 0.31466019041535553 0 0.38857298486612807 1 I I -0.70710678118654746 0.70710678118654746 0.5 forward I I I I #
loop $-1 $-1 $303 $77 #
coedge $-1 $191 $191 $304 $305 reversed $120 $-1 #
face $-1 $-1 $306 $62 $-1 $307 forward single #
loop $-1 $308 $309 $122 #
cone-surface $-1 -60.766463223328969 26.800503427168827 8.121777200670067 0.77714596973225614 0 -0.62932038083071107 0.31466019041535553 0 0.38857298486612807 1 I I -0.70710678118654746 0.70710678118654746 0.5 forward I I I I #
loop $-1 $-1 $310 $78 #
coedge $-1 $196 $196 $311 $312 reversed $123 $-1 #
face $-1 $-1 $313 $63 $-1 $314 forward single #
loop $-1 $315 $316 $125 #
cone-surface $-1 -60.766463223328969 30.425823788738334 8.121777200670067 0.77714596973225614 0 -0.62932038083071107 0.31466019041535553 0 0.38857298486612807 1 I I -0.70710678118654746 0.70710678118654746 0.5 forward I I I I #
loop $-1 $-1 $317 $79 #
coedge $-1 $201 $201 $318 $319 reversed $126 $-1 #
face $-1 $320 $321 $48 $-1 $322 reversed single #
loop $-1 $-1 $323 $128 #
plane-surface $-1 0 0 -18.108122556798072 0 0 1 1 0 0 forward_v I I I I #
coedge $-1 $324 $325 $326 $327 forward $129 $-1 #
coedge $-1 $328 $131 $329 $330 reversed $81 $-1 #
coedge $-1 $131 $328 $331 $332 forward $81 $-1 #
coedge $-1 $333 $323 $131 $209 forward $203 $-1 #
edge $-1 $334 -69.333170567949466 $335 69.333170567949466 $131 $336 forward 7 unknown #
face $-1 $337 $338 $49 $-1 $339 reversed single #
loop $-1 $-1 $340 $132 #
plane-surface $-1 -69.333170567949466 0 0 1 0 0 0 0 -1 forward_v I I I I #
coedge $-1 $341 $342 $215 $343 forward $133 $-1 #
coedge $-1 $344 $135 $345 $346 reversed $84 $-1 #
coedge $-1 $135 $344 $213 $343 reversed $84 $-1 #
coedge $-1 $347 $348 $135 $217 reversed $349 $-1 #
edge $-1 $350 -18.108122556798072 $351 18.108122556798072 $216 $352 forward 7 unknown #
face $-1 $353 $354 $50 $-1 $355 forward single #
loop $-1 $-1 $356 $136 #
plane-surface $-1 18.577768527555094 -2.5235403165951773 190.45686375534666 0 1 0 0.50000000669873634 0 0.8660253999169214 forward_v I I I I #
coedge $-1 $357 $358 $359 $360 reversed $137 $-1 #
coedge $-1 $223 $139 $361 $362 reversed $87 $-1 #
coedge $-1 $139 $222 $357 $363 reversed $87 $-1 #
coedge $-1 $359 $364 $139 $225 forward $354 $-1 #
edge $-1 $365 -60.044286304171919 $366 -30.472976751468437 $224 $367 forward 7 unknown #
loop $-1 $-1 $231 $140 #
plane-surface $-1 -50.755402969283637 4.144281150461417 70.368290218113543 0.50000000669873634 0 0.8660253999169214 0.8660253999169214 0 -0.50000000669873634 forward_v I I I I #
loop $-1 $-1 $368 $89 #
coedge $-1 $229 $229 $230 $369 reversed $141 $-1 #
coedge $-1 $230 $230 $229 $369 forward $143 $-1 #
coedge $-1 $231 $231 $144 $232 forward $226 $-1 #
edge $-1 $370 0 $370 6.2831853071796004 $231 $371 forward 7 unknown #
loop $-1 $-1 $238 $145 #
plane-surface $-1 -50.755402969283637 4.144281150461417 70.368290218113543 0.50000000669873634 0 0.8660253999169214 0.8660253999169214 0 -0.50000000669873634 forward_v I I I I #
loop $-1 $-1 $372 $92 #
coedge $-1 $236 $236 $237 $373 reversed $146 $-1 #
coedge $-1 $237 $237 $236 $373 forward $148 $-1 #
coedge $-1 $238 $238 $149 $239 forward $233 $-1 #
edge $-1 $374 0 $374 6.2831853071796004 $238 $375 forward 7 unknown #
face $-1 $376 $377 $53 $-1 $378 reversed single #
loop $-1 $-1 $246 $150 #
plane-surface $-1 69.333170567949466 0 0 -1 0 0 0 0 1 forward_v I I I I #
coedge $-1 $379 $380 $381 $382 reversed $151 $-1 #
coedge $-1 $245 $153 $383 $384 reversed $96 $-1 #
coedge $-1 $153 $244 $379 $385 reversed $96 $-1 #
coedge $-1 $381 $386 $153 $247 forward $241 $-1 #
edge $-1 $387 77.120309320875265 $388 94.193313156398503 $246 $389 forward 7 unknown #
loop $-1 $-1 $253 $154 #
plane-surface $-1 -50.755402969283637 31.380043963638407 70.368290218113543 0.50000000669873634 0 0.8660253999169214 0.8660253999169214 0 -0.50000000669873634 forward_v I I I I #
loop $-1 $-1 $390 $98 #
coedge $-1 $251 $251 $252 $391 reversed $155 $-1 #
coedge $-1 $252 $252 $251 $391 forward $157 $-1 #
coedge $-1 $253 $253 $158 $254 forward $248 $-1 #
edge $-1 $392 0 $392 6.2831853071796004 $253 $393 forward 7 unknown #
loop $-1 $-1 $260 $159 #
plane-surface $-1 -50.755402969283637 31.380043963638407 70.368290218113543 0.50000000669873634 0 0.8660253999169214 0.8660253999169214 0 -0.50000000669873634 forward_v I I I I #
loop $-1 $-1 $394 $101 #
coedge $-1 $258 $258 $259 $395 reversed $160 $-1 #
coedge $-1 $259 $259 $258 $395 forward $162 $-1 #
coedge $-1 $260 $260 $163 $261 forward $255 $-1 #
edge $-1 $396 0 $396 6.2831853071796004 $260 $397 forward 7 unknown #
face $-1 $398 $399 $56 $-1 $400 reversed single #
loop $-1 $-1 $401 $164 #
plane-surface $-1 -177.09715871923146 0.86590241048306638 87.658853618391475 0 -1 0 0.77714596973225614 0 -0.62932038083071107 forward_v I I I I #
coedge $-1 $402 $403 $404 $405 reversed $165 $-1 #
coedge $-1 $267 $167 $406 $407 reversed $105 $-1 #
coedge $-1 $167 $266 $402 $408 reversed $105 $-1 #
coedge $-1 $404 $409 $167 $269 forward $410 $-1 #
edge $-1 $411 19.215408791666263 $412 33.560589667995117 $268 $413 forward 7 unknown #
loop $-1 $-1 $275 $168 #
plane-surface $-1 -69.333170567949438 -5.1762981921327906 0.39329900634626824 -0.77714596973225614 0 0.62932038083071107 0.62932038083071107 0 0.77714596973225614 forward_v I I I I #
loop $-1 $-1 $414 $107 #
coedge $-1 $273 $273 $274 $415 reversed $169 $-1 #
coedge $-1 $274 $274 $273 $415 forward $171 $-1 #
coedge $-1 $275 $275 $172 $276 forward $270 $-1 #
edge $-1 $416 0 $416 6.2831853071796004 $275 $417 forward 7 unknown #
loop $-1 $-1 $282 $173 #
plane-surface $-1 -69.333170567949438 -5.1762981921327906 0.39329900634626824 -0.77714596973225614 0 0.62932038083071107 0.62932038083071107 0 0.77714596973225614 forward_v I I I I #
loop $-1 $-1 $418 $110 #
coedge $-1 $280 $280 $281 $419 reversed $174 $-1 #
coedge $-1 $281 $281 $280 $419 forward $176 $-1 #
coedge $-1 $282 $282 $177 $283 forward $277 $-1 #
edge $-1 $420 0 $420 6.2831853071796004 $282 $421 forward 7 unknown #
loop $-1 $-1 $289 $178 #
plane-surface $-1 -69.333170567949438 -5.1762981921327906 0.39329900634626824 -0.77714596973225614 0 0.62932038083071107 0.62932038083071107 0 0.77714596973225614 forward_v I I I I #
loop $-1 $-1 $422 $113 #
coedge $-1 $287 $287 $288 $423 reversed $179 $-1 #
coedge $-1 $288 $288 $287 $423 forward $181 $-1 #
coedge $-1 $289 $289 $182 $290 forward $284 $-1 #
edge $-1 $424 0 $424 6.2831853071796004 $289 $425 forward 7 unknown #
face $-1 $426 $427 $60 $-1 $428 forward single #
loop $-1 $-1 $429 $183 #
plane-surface $-1 -177.09715871923146 32.842704029784684 87.658853618391475 0 -1 0 0.77714596973225614 0 -0.62932038083071107 forward_v I I I I #
coedge $-1 $430 $431 $432 $433 reversed $184 $-1 #
coedge $-1 $296 $186 $434 $435 reversed $117 $-1 #
coedge $-1 $186 $295 $430 $436 reversed $117 $-1 #
coedge $-1 $432 $437 $186 $298 forward $427 $-1 #
edge $-1 $438 19.215408791666263 $439 33.560589667995117 $297 $440 forward 7 unknown #
loop $-1 $-1 $304 $187 #
plane-surface $-1 -69.333170567949438 26.800503427168827 0.39329900634626824 -0.77714596973225614 0 0.62932038083071107 0.62932038083071107 0 0.77714596973225614 forward_v I I I I #
loop $-1 $-1 $441 $119 #
coedge $-1 $302 $302 $303 $442 reversed $188 $-1 #
coedge $-1 $303 $303 $302 $442 forward $190 $-1 #
coedge $-1 $304 $304 $191 $305 forward $299 $-1 #
edge $-1 $443 0 $443 6.2831853071796004 $304 $444 forward 7 unknown #
loop $-1 $-1 $311 $192 #
plane-surface $-1 -69.333170567949438 26.800503427168827 0.39329900634626824 -0.77714596973225614 0 0.62932038083071107 0.62932038083071107 0 0.77714596973225614 forward_v I I I I #
loop $-1 $-1 $445 $122 #
coedge $-1 $309 $309 $310 $446 reversed $193 $-1 #
coedge $-1 $310 $310 $309 $446 forward $195 $-1 #
coedge $-1 $311 $311 $196 $312 forward $306 $-1 #
edge $-1 $447 0 $447 6.2831853071796004 $311 $448 forward 7 unknown #
loop $-1 $-1 $318 $197 #
plane-surface $-1 -69.333170567949438 26.800503427168827 0.39329900634626824 -0.77714596973225614 0 0.62932038083071107 0.62932038083071107 0 0.77714596973225614 forward_v I I I I #
loop $-1 $-1 $449 $125 #
coedge $-1 $316 $316 $317 $450 reversed $198 $-1 #
coedge $-1 $317 $317 $316 $450 forward $200 $-1 #
coedge $-1 $318 $318 $201 $319 forward $313 $-1 #
edge $-1 $451 0 $451 6.2831853071796004 $318 $452 forward 7 unknown #
face $-1 $453 $454 $48 $-1 $455 reversed single #
loop $-1 $-1 $456 $202 #
plane-surface $-1 -69.333170567949466 0 0 1 0 0 0 0 -1 forward_v I I I I #
coedge $-1 $208 $457 $458 $459 forward $203 $-1 #
coedge $-1 $460 $205 $461 $462 forward $129 $-1 #
coedge $-1 $205 $460 $328 $463 forward $129 $-1 #
coedge $-1 $329 $464 $205 $327 reversed $465 $-1 #
edge $-1 $466 -38.047865430695005 $467 38.047865430695005 $326 $468 forward 7 unknown #
coedge $-1 $207 $206 $325 $463 reversed $81 $-1 #
coedge $-1 $458 $326 $206 $330 forward $465 $-1 #
edge $-1 $466 -18.108122556798072 $334 18.108122556798072 $329 $469 forward 7 unknown #
coedge $-1 $470 $471 $207 $332 reversed $321 $-1 #
edge $-1 $472 -18.108122556798072 $335 18.108122556798072 $331 $473 forward 7 unknown #
coedge $-1 $457 $208 $471 $474 forward $203 $-1 #
vertex $-1 $330 $475 #
vertex $-1 $474 $476 #
straight-curve $-1 0 -38.047865430695005 -18.108122556798072 -1 0 0 I I #
face $-1 $477 $349 $49 $-1 $478 reversed single #
loop $-1 $-1 $479 $210 #
plane-surface $-1 -64.880220370314291 -59.672070665731034 0 0 1 0 0 0 1 forward_v I I I I #
coedge $-1 $480 $481 $344 $482 forward $211 $-1 #
coedge $-1 $483 $213 $481 $484 forward $133 $-1 #
coedge $-1 $213 $483 $347 $485 forward $133 $-1 #
edge $-1 $350 60.427270172679115 $486 69.333170567949466 $213 $487 forward 7 unknown #
coedge $-1 $215 $214 $340 $482 reversed $84 $-1 #
coedge $-1 $488 $489 $214 $346 forward $490 $-1 #
edge $-1 $491 -69.333170567949466 $351 -60.427270172679115 $345 $492 forward 7 unknown #
coedge $-1 $493 $216 $342 $485 reversed $349 $-1 #
coedge $-1 $216 $493 $488 $494 reversed $349 $-1 #
loop $-1 $-1 $493 $337 #
vertex $-1 $343 $495 #
vertex $-1 $494 $496 #
straight-curve $-1 -60.427270172679115 -38.047865430695005 0 0 0 -1 I I #
face $-1 $-1 $497 $50 $-1 $498 reversed single #
loop $-1 $-1 $224 $218 #
plane-surface $-1 0 0 18.108122556798072 0 0 1 1 0 0 forward_v I I I I #
coedge $-1 $499 $500 $501 $502 reversed $219 $-1 #
coedge $-1 $503 $221 $223 $363 forward $137 $-1 #
coedge $-1 $221 $503 $499 $504 forward $137 $-1 #
coedge $-1 $501 $224 $221 $360 forward $354 $-1 #
edge $-1 $366 -8.7399620422873028 $505 4.5956808918258858 $359 $506 forward 7 unknown #
coedge $-1 $507 $508 $222 $362 forward $497 $-1 #
edge $-1 $509 -94.193313156398503 $365 -77.120309320875265 $361 $510 forward 7 unknown #
edge $-1 $366 104.52033392232264 $509 138.66634113589893 $223 $511 forward 7 unknown #
coedge $-1 $224 $501 $507 $512 forward $354 $-1 #
vertex $-1 $362 $513 #
vertex $-1 $225 $514 #
straight-curve $-1 9.2888842637775468 10.812102617518011 18.108122556798079 -1 0 0 I I #
coedge $-1 $368 $368 $-1 $515 reversed $228 $-1 #
edge $-1 $516 0 $516 6.2831853071796004 $229 $517 forward 7 unknown #
vertex $-1 $232 $518 #
ellipse-curve $-1 54.547515791597739 1.2866433788657403 9.5716206390364462 0.50000000669873634 0 0.8660253999169214 0.8660253999169214 0 -0.50000000669873634 1 I I #
coedge $-1 $372 $372 $-1 $519 reversed $235 $-1 #
edge $-1 $520 0 $520 6.2831853071796004 $236 $521 forward 7 unknown #
vertex $-1 $239 $522 #
ellipse-curve $-1 54.547515791597739 7.0019189220571079 9.5716206390364462 0.50000000669873634 0 0.8660253999169214 0.8660253999169214 0 -0.50000000669873634 1 I I #
face $-1 $-1 $523 $53 $-1 $524 forward single #
loop $-1 $-1 $525 $240 #
plane-surface $-1 0 38.047865430695005 0 0 -1 0 0 0 -1 forward_v I I I I #
coedge $-1 $526 $243 $245 $385 forward $151 $-1 #
coedge $-1 $243 $526 $525 $527 reversed $151 $-1 #
coedge $-1 $528 $246 $243 $382 forward $241 $-1 #
edge $-1 $388 9.0222005147626092 $529 22.357843448875801 $381 $530 forward 7 unknown #
coedge $-1 $531 $532 $244 $384 forward $523 $-1 #
edge $-1 $533 30.472976751468437 $387 60.044286304171919 $383 $534 forward 7 unknown #
edge $-1 $388 -138.66634113589893 $533 -104.52033392232264 $245 $535 forward 7 unknown #
coedge $-1 $246 $528 $531 $536 reversed $241 $-1 #
vertex $-1 $536 $537 #
vertex $-1 $247 $538 #
straight-curve $-1 69.333170567949466 24.712222496581813 95.22843187767333 0 0 -1 I I #
coedge $-1 $390 $390 $-1 $539 reversed $250 $-1 #
edge $-1 $540 0 $540 6.2831853071796004 $251 $541 forward 7 unknown #
vertex $-1 $254 $542 #
ellipse-curve $-1 54.547515791597739 28.52240619204273 9.5716206390364462 0.50000000669873634 0 0.8660253999169214 0.8660253999169214 0 -0.50000000669873634 1 I I #
coedge $-1 $394 $394 $-1 $543 reversed $257 $-1 #
edge $-1 $544 0 $544 6.2831853071796004 $258 $545 forward 7 unknown #
vertex $-1 $261 $546 #
ellipse-curve $-1 54.547515791597739 34.237681735234098 9.5716206390364462 0.50000000669873634 0 0.8660253999169214 0.8660253999169214 0 -0.50000000669873634 1 I I #
face $-1 $-1 $410 $56 $-1 $547 forward single #
loop $-1 $-1 $548 $262 #
plane-surface $-1 -69.333170567949466 0 0 1 0 0 0 0 -1 forward_v I I I I #
coedge $-1 $549 $550 $551 $552 reversed $263 $-1 #
coedge $-1 $553 $265 $267 $408 forward $165 $-1 #
coedge $-1 $265 $553 $549 $554 forward $165 $-1 #
coedge $-1 $551 $268 $265 $405 forward $410 $-1 #
edge $-1 $412 -8.6303496986822523 $555 3.4540515065494617 $404 $556 forward 7 unknown #
coedge $-1 $557 $558 $266 $407 forward $399 $-1 #
edge $-1 $559 -43.436127802849505 $411 -25.721304252397665 $406 $560 forward 7 unknown #
edge $-1 $412 -22.794718418928369 $559 4.5151010033889764e-014 $267 $561 forward 7 unknown #
coedge $-1 $268 $551 $557 $562 forward $410 $-1 #
loop $-1 $-1 $551 $398 #
vertex $-1 $407 $563 #
vertex $-1 $269 $564 #
straight-curve $-1 -88.548579359615729 -11.218498794748648 18.108122556798072 1 0 0 I I #
coedge $-1 $414 $414 $-1 $565 reversed $272 $-1 #
edge $-1 $566 0 $566 6.2831853071796004 $273 $567 forward 7 unknown #
vertex $-1 $276 $568 #
ellipse-curve $-1 -62.160580129785032 -8.8016185537023048 9.2507107815721596 -0.77714596973225614 0 0.62932038083071107 0.62932038083071107 0 0.77714596973225614 1 I I #
coedge $-1 $418 $418 $-1 $569 reversed $279 $-1 #
edge $-1 $570 0 $570 6.2831853071796004 $280 $571 forward 7 unknown #
vertex $-1 $283 $572 #
ellipse-curve $-1 -62.160580129785032 -5.1762981921327906 9.2507107815721596 -0.77714596973225614 0 0.62932038083071107 0.62932038083071107 0 0.77714596973225614 1 I I #
coedge $-1 $422 $422 $-1 $573 reversed $286 $-1 #
edge $-1 $574 0 $574 6.2831853071796004 $287 $575 forward 7 unknown #
vertex $-1 $290 $576 #
ellipse-curve $-1 -62.160580129785032 -1.5509778305632764 9.2507107815721596 -0.77714596973225614 0 0.62932038083071107 0.62932038083071107 0 0.77714596973225614 1 I I #
face $-1 $-1 $577 $60 $-1 $578 reversed single #
loop $-1 $-1 $297 $291 #
plane-surface $-1 0 0 18.108122556798072 0 0 1 1 0 0 forward_v I I I I #
coedge $-1 $579 $580 $581 $582 reversed $292 $-1 #
coedge $-1 $583 $294 $296 $436 forward $184 $-1 #
coedge $-1 $294 $583 $579 $584 forward $184 $-1 #
coedge $-1 $581 $297 $294 $433 forward $427 $-1 #
edge $-1 $439 7.3580511109685567 $585 19.442452316200271 $432 $586 forward 7 unknown #
coedge $-1 $587 $588 $295 $435 forward $577 $-1 #
edge $-1 $589 -43.436127802849505 $438 -25.721304252397665 $434 $590 forward 7 unknown #
edge $-1 $439 -22.794718418928369 $589 4.5151010033889764e-014 $296 $591 forward 7 unknown #
coedge $-1 $297 $581 $587 $592 forward $427 $-1 #
vertex $-1 $435 $593 #
vertex $-1 $298 $594 #
straight-curve $-1 -88.548579359615729 20.75830282455297 18.108122556798072 1 0 0 I I #
coedge $-1 $441 $441 $-1 $595 reversed $301 $-1 #
edge $-1 $596 0 $596 6.2831853071796004 $302 $597 forward 7 unknown #
vertex $-1 $305 $598 #
ellipse-curve $-1 -62.160580129785032 23.175183065599306 9.2507107815721596 -0.77714596973225614 0 0.62932038083071107 0.62932038083071107 0 0.77714596973225614 1 I I #
coedge $-1 $445 $445 $-1 $599 reversed $308 $-1 #
edge $-1 $600 0 $600 6.2831853071796004 $309 $601 forward 7 unknown #
vertex $-1 $312 $602 #
ellipse-curve $-1 -62.160580129785032 26.800503427168827 9.2507107815721596 -0.77714596973225614 0 0.62932038083071107 0.62932038083071107 0 0.77714596973225614 1 I I #
coedge $-1 $449 $449 $-1 $603 reversed $315 $-1 #
edge $-1 $604 0 $604 6.2831853071796004 $316 $605 forward 7 unknown #
vertex $-1 $319 $606 #
ellipse-curve $-1 -62.160580129785032 30.425823788738334 9.2507107815721596 -0.77714596973225614 0 0.62932038083071107 0.62932038083071107 0 0.77714596973225614 1 I I #
face $-1 $-1 $465 $48 $-1 $607 reversed single #
loop $-1 $-1 $608 $320 #
plane-surface $-1 0 38.047865430695005 0 0 -1 0 0 0 -1 forward_v I I I I #
coedge $-1 $471 $470 $609 $610 forward $321 $-1 #
coedge $-1 $323 $333 $611 $612 forward $203 $-1 #
coedge $-1 $464 $329 $323 $459 reversed $465 $-1 #
edge $-1 $613 -38.047865430695005 $334 38.047865430695005 $458 $614 forward 7 unknown #
coedge $-1 $325 $324 $470 $615 forward $129 $-1 #
coedge $-1 $608 $609 $324 $462 reversed $454 $-1 #
edge $-1 $467 -69.333170567949466 $616 69.333170567949466 $461 $617 forward 7 unknown #
edge $-1 $472 -69.333170567949466 $466 69.333170567949466 $328 $618 forward 7 unknown #
coedge $-1 $326 $458 $608 $619 reversed $465 $-1 #
loop $-1 $-1 $329 $453 #
vertex $-1 $327 $620 #
vertex $-1 $327 $621 #
straight-curve $-1 69.333170567949466 0 18.108122556798072 0 1 0 I I #
straight-curve $-1 69.333170567949466 -38.047865430695005 0 0 0 -1 I I #
coedge $-1 $456 $331 $460 $615 reversed $321 $-1 #
coedge $-1 $331 $456 $333 $474 reversed $321 $-1 #
vertex $-1 $615 $622 #
straight-curve $-1 -69.333170567949466 -38.047865430695005 0 0 0 -1 I I #
edge $-1 $335 -38.047865430695005 $623 38.047865430695005 $471 $624 forward 7 unknown #
point $-1 69.333170567949466 -38.047865430695005 -18.108122556798072 #
point $-1 -69.333170567949466 -38.047865430695005 -18.108122556798072 #
face $-1 $-1 $490 $49 $-1 $625 reversed single #
plane-surface $-1 -60.427270172679115 -48.85996804821302 0 -1 0 0 0 0 1 forward_v I I I I #
coedge $-1 $626 $627 $628 $629 forward $338 $-1 #
coedge $-1 $628 $340 $489 $630 reversed $211 $-1 #
coedge $-1 $340 $628 $341 $484 reversed $211 $-1 #
edge $-1 $486 -18.108122556798072 $491 18.108122556798072 $340 $631 forward 7 unknown #
coedge $-1 $342 $341 $627 $632 forward $133 $-1 #
edge $-1 $486 38.047865430695005 $633 59.672070665731034 $481 $634 forward 7 unknown #
edge $-1 $635 -10.812102617518015 $350 10.812102617518015 $347 $636 forward 7 unknown #
vertex $-1 $484 $637 #
straight-curve $-1 0 -38.047865430695005 18.108122556798072 -1 0 0 I I #
coedge $-1 $638 $345 $348 $494 forward $490 $-1 #
coedge $-1 $345 $638 $480 $630 forward $490 $-1 #
loop $-1 $-1 $345 $477 #
vertex $-1 $482 $639 #
straight-curve $-1 0 -38.047865430695005 -18.108122556798072 1 0 0 I I #
coedge $-1 $348 $347 $640 $641 forward $349 $-1 #
edge $-1 $351 -10.812102617518015 $642 10.812102617518015 $348 $643 forward 7 unknown #
point $-1 -60.427270172679115 -38.047865430695005 18.108122556798072 #
point $-1 -60.427270172679115 -38.047865430695005 -18.108122556798072 #
loop $-1 $-1 $361 $353 #
plane-surface $-1 69.333170567949466 0 0 -1 0 0 0 0 1 forward_v I I I I #
coedge $-1 $500 $356 $358 $504 reversed $219 $-1 #
coedge $-1 $356 $499 $644 $645 reversed $219 $-1 #
coedge $-1 $364 $359 $356 $502 forward $354 $-1 #
edge $-1 $505 30.472976751468437 $646 60.044286304171919 $501 $647 forward 7 unknown #
coedge $-1 $358 $357 $508 $648 reversed $137 $-1 #
edge $-1 $649 -138.66634113589893 $505 -104.52033392232264 $499 $650 forward 7 unknown #
vertex $-1 $360 $651 #
straight-curve $-1 39.761861015245969 2.0721405752307085 18.108122556798079 0 -1 0 I I #
coedge $-1 $644 $361 $364 $512 reversed $497 $-1 #
coedge $-1 $361 $644 $503 $648 forward $497 $-1 #
vertex $-1 $362 $652 #
straight-curve $-1 69.333170567949466 10.812102617518011 95.22843187767333 0 0 1 I I #
straight-curve $-1 -50.755402969283637 10.812102617518011 70.368290218113543 0.8660253999169214 0 -0.50000000669873634 I I #
edge $-1 $646 -2.5235403165951773 $365 10.812102617518011 $507 $653 forward 7 unknown #
point $-1 69.333170567949466 10.812102617518011 18.108122556798072 #
point $-1 39.761861015245984 10.812102617518011 18.108122556798072 #
edge $-1 $654 1 $654 0 $368 $-1 forward 7 unknown #
vertex $-1 $369 $655 #
ellipse-curve $-1 53.876581611033856 1.2866433788657403 8.409528570524003 0.50000000669873634 0 0.8660253999169214 0.8660253999169214 0 -0.50000000669873634 1 I I #
point $-1 55.413541191514661 1.2866433788657403 9.0716206323377087 #
edge $-1 $656 1 $656 0 $372 $-1 forward 7 unknown #
vertex $-1 $373 $657 #
ellipse-curve $-1 53.876581611033856 7.0019189220571079 8.409528570524003 0.50000000669873634 0 0.8660253999169214 0.8660253999169214 0 -0.50000000669873634 1 I I #
point $-1 55.413541191514661 7.0019189220571079 9.0716206323377087 #
loop $-1 $-1 $383 $376 #
plane-surface $-1 0 0 18.108122556798072 0 0 1 1 0 0 forward_v I I I I #
coedge $-1 $658 $659 $380 $527 forward $377 $-1 #
coedge $-1 $380 $379 $532 $660 reversed $151 $-1 #
edge $-1 $529 -99.096534268472027 $661 -64.950527054895758 $525 $662 forward 7 unknown #
coedge $-1 $386 $381 $659 $663 reversed $241 $-1 #
vertex $-1 $527 $664 #
straight-curve $-1 69.333170567949466 15.690021981819203 1.0351187212748343 0 1 0 I I #
coedge $-1 $665 $383 $386 $536 forward $523 $-1 #
coedge $-1 $383 $665 $526 $660 forward $523 $-1 #
vertex $-1 $384 $666 #
straight-curve $-1 9.2888842637775468 24.712222496581813 18.108122556798079 1 0 0 I I #
straight-curve $-1 -50.755402969283637 24.712222496581813 70.368290218113543 -0.8660253999169214 0 0.50000000669873634 I I #
edge $-1 $387 24.712222496581813 $667 38.047865430695005 $386 $668 forward 7 unknown #
point $-1 69.333170567949466 24.712222496581813 18.108122556798072 #
point $-1 69.333170567949466 24.712222496581813 1.0351187212748272 #
edge $-1 $669 1 $669 0 $390 $-1 forward 7 unknown #
vertex $-1 $391 $670 #
ellipse-curve $-1 53.876581611033856 28.52240619204273 8.409528570524003 0.50000000669873634 0 0.8660253999169214 0.8660253999169214 0 -0.50000000669873634 1 I I #
point $-1 55.413541191514661 28.52240619204273 9.0716206323377087 #
edge $-1 $671 1 $671 0 $394 $-1 forward 7 unknown #
vertex $-1 $395 $672 #
ellipse-curve $-1 53.876581611033856 34.237681735234098 8.409528570524003 0.50000000669873634 0 0.8660253999169214 0.8660253999169214 0 -0.50000000669873634 1 I I #
point $-1 55.413541191514661 34.237681735234098 9.0716206323377087 #
plane-surface $-1 0 0 18.108122556798072 0 0 1 1 0 0 forward_v I I I I #
coedge $-1 $558 $557 $550 $673 forward $399 $-1 #
coedge $-1 $550 $401 $403 $554 reversed $263 $-1 #
coedge $-1 $401 $549 $548 $673 reversed $263 $-1 #
coedge $-1 $409 $404 $401 $552 forward $410 $-1 #
edge $-1 $555 -33.560589667995117 $674 -19.215408791666263 $551 $675 forward 7 unknown #
coedge $-1 $403 $402 $558 $676 reversed $165 $-1 #
edge $-1 $677 -4.5151010033889764e-014 $555 22.794718418928369 $549 $678 forward 7 unknown #
vertex $-1 $405 $679 #
straight-curve $-1 -54.987989691620619 -2.5881490960663953 18.108122556798072 0 1 0 I I #
coedge $-1 $548 $406 $409 $562 reversed $399 $-1 #
coedge $-1 $406 $548 $553 $676 forward $399 $-1 #
vertex $-1 $407 $680 #
straight-curve $-1 -69.333170567949466 -11.218498794748648 43.829426809195738 0 0 1 I I #
straight-curve $-1 -69.333170567949438 -11.218498794748648 0.39329900634626824 -0.62932038083071107 0 -0.77714596973225614 I I #
edge $-1 $674 -0.86590241048306638 $411 11.218498794748648 $557 $681 forward 7 unknown #
point $-1 -69.333170567949466 -11.218498794748648 18.108122556798072 #
point $-1 -54.987989691620612 -11.218498794748648 18.108122556798072 #
edge $-1 $682 1 $682 0 $414 $-1 forward 7 unknown #
vertex $-1 $415 $683 #
ellipse-curve $-1 -61.155036208195099 -8.8016185537023048 8.4364373910854233 -0.77714596973225614 0 0.62932038083071107 0.62932038083071107 0 0.77714596973225614 1 I I #
point $-1 -61.531259748954355 -8.8016185537023048 10.027856751304437 #
edge $-1 $684 1 $684 0 $418 $-1 forward 7 unknown #
vertex $-1 $419 $685 #
ellipse-curve $-1 -61.155036208195099 -5.1762981921327906 8.4364373910854233 -0.77714596973225614 0 0.62932038083071107 0.62932038083071107 0 0.77714596973225614 1 I I #
point $-1 -61.531259748954355 -5.1762981921327906 10.027856751304437 #
edge $-1 $686 1 $686 0 $422 $-1 forward 7 unknown #
vertex $-1 $423 $687 #
ellipse-curve $-1 -61.155036208195099 -1.5509778305632764 8.4364373910854233 -0.77714596973225614 0 0.62932038083071107 0.62932038083071107 0 0.77714596973225614 1 I I #
point $-1 -61.531259748954355 -1.5509778305632764 10.027856751304437 #
loop $-1 $-1 $434 $426 #
plane-surface $-1 -69.333170567949466 0 0 1 0 0 0 0 -1 forward_v I I I I #
coedge $-1 $580 $429 $431 $584 reversed $292 $-1 #
coedge $-1 $429 $579 $688 $689 reversed $292 $-1 #
coedge $-1 $437 $432 $429 $582 forward $427 $-1 #
edge $-1 $585 -33.560589667995117 $690 -19.215408791666263 $581 $691 forward 7 unknown #
coedge $-1 $431 $430 $588 $692 reversed $184 $-1 #
edge $-1 $693 -4.5151010033889764e-014 $585 22.794718418928369 $579 $694 forward 7 unknown #
vertex $-1 $433 $695 #
straight-curve $-1 -54.987989691620619 13.400251713584414 18.108122556798072 0 1 0 I I #
coedge $-1 $688 $434 $437 $592 reversed $577 $-1 #
coedge $-1 $434 $688 $583 $692 forward $577 $-1 #
vertex $-1 $435 $696 #
straight-curve $-1 -69.333170567949466 20.75830282455297 43.829426809195738 0 0 1 I I #
straight-curve $-1 -69.333170567949438 20.75830282455297 0.39329900634626824 -0.62932038083071107 0 -0.77714596973225614 I I #
edge $-1 $690 -32.842704029784684 $438 -20.75830282455297 $587 $697 forward 7 unknown #
point $-1 -69.333170567949466 20.75830282455297 18.108122556798072 #
point $-1 -54.987989691620612 20.75830282455297 18.108122556798072 #
edge $-1 $698 1 $698 0 $441 $-1 forward 7 unknown #
vertex $-1 $442 $699 #
ellipse-curve $-1 -61.155036208195099 23.175183065599306 8.4364373910854233 -0.77714596973225614 0 0.62932038083071107 0.62932038083071107 0 0.77714596973225614 1 I I #
point $-1 -61.531259748954355 23.175183065599306 10.027856751304437 #
edge $-1 $700 1 $700 0 $445 $-1 forward 7 unknown #
vertex $-1 $446 $701 #
ellipse-curve $-1 -61.155036208195099 26.800503427168827 8.4364373910854233 -0.77714596973225614 0 0.62932038083071107 0.62932038083071107 0 0.77714596973225614 1 I I #
point $-1 -61.531259748954355 26.800503427168827 10.027856751304437 #
edge $-1 $702 1 $702 0 $449 $-1 forward 7 unknown #
vertex $-1 $450 $703 #
ellipse-curve $-1 -61.155036208195099 30.425823788738334 8.4364373910854233 -0.77714596973225614 0 0.62932038083071107 0.62932038083071107 0 0.77714596973225614 1 I I #
point $-1 -61.531259748954355 30.425823788738334 10.027856751304437 #
plane-surface $-1 69.333170567949466 0 0 -1 0 0 0 0 1 forward_v I I I I #
coedge $-1 $611 $461 $464 $619 forward $454 $-1 #
coedge $-1 $461 $611 $456 $610 reversed $454 $-1 #
edge $-1 $616 -18.108122556798072 $623 18.108122556798072 $609 $704 forward 7 unknown #
coedge $-1 $609 $608 $457 $612 reversed $454 $-1 #
edge $-1 $623 -69.333170567949466 $613 69.333170567949466 $611 $705 forward 7 unknown #
vertex $-1 $459 $706 #
straight-curve $-1 69.333170567949466 0 -18.108122556798072 0 -1 0 I I #
edge $-1 $616 -38.047865430695005 $472 38.047865430695005 $470 $707 forward 7 unknown #
vertex $-1 $462 $708 #
straight-curve $-1 0 38.047865430695005 18.108122556798072 -1 0 0 I I #
straight-curve $-1 0 -38.047865430695005 18.108122556798072 1 0 0 I I #
edge $-1 $467 -18.108122556798072 $613 18.108122556798072 $464 $709 forward 7 unknown #
point $-1 69.333170567949466 -38.047865430695005 18.108122556798072 #
point $-1 69.333170567949466 38.047865430695005 18.108122556798072 #
point $-1 -69.333170567949466 -38.047865430695005 18.108122556798072 #
vertex $-1 $612 $710 #
straight-curve $-1 -69.333170567949466 0 -18.108122556798072 0 1 0 I I #
plane-surface $-1 0 0 -18.108122556798072 0 0 1 1 0 0 forward_v I I I I #
coedge $-1 $640 $479 $638 $711 reversed $338 $-1 #
coedge $-1 $479 $640 $483 $632 reversed $338 $-1 #
coedge $-1 $481 $480 $479 $629 reversed $211 $-1 #
edge $-1 $633 -18.108122556798072 $712 18.108122556798072 $628 $713 forward 7 unknown #
edge $-1 $712 -59.672070665731034 $491 -38.047865430695005 $480 $714 forward 7 unknown #
straight-curve $-1 -69.333170567949466 -38.047865430695005 0 0 0 -1 I I #
edge $-1 $633 -4.4529501976351753 $635 4.4529501976351753 $627 $715 forward 7 unknown #
vertex $-1 $484 $716 #
straight-curve $-1 -69.333170567949466 0 18.108122556798072 0 -1 0 I I #
vertex $-1 $485 $717 #
straight-curve $-1 -60.427270172679115 -48.85996804821302 18.108122556798072 0 1 0 I I #
point $-1 -69.333170567949466 -38.047865430695005 18.108122556798072 #
coedge $-1 $489 $488 $626 $711 forward $490 $-1 #
point $-1 -69.333170567949466 -38.047865430695005 -18.108122556798072 #
coedge $-1 $627 $626 $493 $641 reversed $338 $-1 #
edge $-1 $635 -18.108122556798072 $642 18.108122556798072 $493 $718 forward 7 unknown #
vertex $-1 $641 $719 #
straight-curve $-1 -60.427270172679115 -48.85996804821302 -18.108122556798072 0 -1 0 I I #
coedge $-1 $508 $507 $500 $645 forward $497 $-1 #
edge $-1 $646 77.120309320875265 $649 94.193313156398503 $644 $720 forward 7 unknown #
vertex $-1 $512 $721 #
straight-curve $-1 9.2888842637775468 -2.5235403165951773 18.108122556798079 1 0 0 I I #
edge $-1 $649 -4.5956808918258858 $509 8.7399620422873028 $508 $722 forward 7 unknown #
vertex $-1 $648 $723 #
straight-curve $-1 -50.755402969283637 -2.5235403165951773 70.368290218113543 -0.8660253999169214 0 0.50000000669873634 I I #
point $-1 39.761861015245984 -2.5235403165951773 18.108122556798072 #
point $-1 69.333170567949466 10.812102617518011 1.0351187212748272 #
straight-curve $-1 69.333170567949466 0 18.108122556798072 0 1 0 I I #
vertex $-1 $515 $724 #
point $-1 54.742607010950778 1.2866433788657403 7.9095285638252664 #
vertex $-1 $519 $725 #
point $-1 54.742607010950778 7.0019189220571079 7.9095285638252664 #
coedge $-1 $659 $525 $665 $726 reversed $377 $-1 #
coedge $-1 $525 $658 $528 $663 forward $377 $-1 #
edge $-1 $661 -22.357843448875794 $533 -9.0222005147626092 $532 $727 forward 7 unknown #
vertex $-1 $527 $728 #
straight-curve $-1 -16.486945152284932 38.047865430695005 50.5833865193324 -0.8660253999169214 0 0.50000000669873634 I I #
edge $-1 $667 -18.108122556798072 $529 -1.0351187212748327 $528 $729 forward 7 unknown #
point $-1 69.333170567949466 38.047865430695005 1.0351187212748327 #
coedge $-1 $532 $531 $658 $726 forward $523 $-1 #
point $-1 39.761861015245984 24.712222496581813 18.108122556798072 #
vertex $-1 $536 $730 #
straight-curve $-1 69.333170567949466 0 18.108122556798072 0 1 0 I I #
vertex $-1 $539 $731 #
point $-1 54.742607010950778 28.52240619204273 7.9095285638252664 #
vertex $-1 $543 $732 #
point $-1 54.742607010950778 34.237681735234098 7.9095285638252664 #
edge $-1 $674 25.721304252397665 $677 43.436127802849505 $548 $733 forward 7 unknown #
vertex $-1 $562 $734 #
straight-curve $-1 -88.548579359615729 0.86590241048306638 18.108122556798072 -1 0 0 I I #
edge $-1 $677 -3.4540515065494617 $559 8.6303496986822523 $558 $735 forward 7 unknown #
vertex $-1 $676 $736 #
straight-curve $-1 -69.333170567949438 0.86590241048306638 0.39329900634626824 0.62932038083071107 0 0.77714596973225614 I I #
point $-1 -54.987989691620612 0.86590241048306638 18.108122556798072 #
point $-1 -69.333170567949466 -11.218498794748648 0.39329900634623316 #
straight-curve $-1 -69.333170567949466 0 18.108122556798072 0 -1 0 I I #
vertex $-1 $565 $737 #
point $-1 -60.525715827364387 -8.8016185537023048 9.2135833608176796 #
vertex $-1 $569 $738 #
point $-1 -60.525715827364387 -5.1762981921327906 9.2135833608176796 #
vertex $-1 $573 $739 #
point $-1 -60.525715827364387 -1.5509778305632764 9.2135833608176796 #
coedge $-1 $588 $587 $580 $689 forward $577 $-1 #
edge $-1 $690 25.721304252397665 $693 43.436127802849505 $688 $740 forward 7 unknown #
vertex $-1 $592 $741 #
straight-curve $-1 -88.548579359615729 32.842704029784684 18.108122556798072 -1 0 0 I I #
edge $-1 $693 -19.442452316200271 $589 -7.3580511109685567 $588 $742 forward 7 unknown #
vertex $-1 $692 $743 #
straight-curve $-1 -69.333170567949438 32.842704029784684 0.39329900634626824 0.62932038083071107 0 0.77714596973225614 I I #
point $-1 -54.987989691620612 32.842704029784684 18.108122556798072 #
point $-1 -69.333170567949466 20.75830282455297 0.39329900634623316 #
straight-curve $-1 -69.333170567949466 0 18.108122556798072 0 -1 0 I I #
vertex $-1 $595 $744 #
point $-1 -60.525715827364387 23.175183065599306 9.2135833608176796 #
vertex $-1 $599 $745 #
point $-1 -60.525715827364387 26.800503427168827 9.2135833608176796 #
vertex $-1 $603 $746 #
point $-1 -60.525715827364387 30.425823788738334 9.2135833608176796 #
straight-curve $-1 -69.333170567949466 38.047865430695005 0 0 0 -1 I I #
straight-curve $-1 0 38.047865430695005 -18.108122556798072 1 0 0 I I #
point $-1 69.333170567949466 38.047865430695005 -18.108122556798072 #
straight-curve $-1 -69.333170567949466 0 18.108122556798072 0 -1 0 I I #
point $-1 -69.333170567949466 38.047865430695005 18.108122556798072 #
straight-curve $-1 69.333170567949466 38.047865430695005 0 0 0 -1 I I #
point $-1 -69.333170567949466 38.047865430695005 -18.108122556798072 #
edge $-1 $642 -4.4529501976351753 $712 4.4529501976351753 $626 $747 forward 7 unknown #
vertex $-1 $630 $748 #
straight-curve $-1 -69.333170567949466 -59.672070665731034 0 0 0 -1 I I #
straight-curve $-1 -69.333170567949466 0 -18.108122556798072 0 1 0 I I #
straight-curve $-1 -64.880220370314291 -59.672070665731034 18.108122556798072 1 0 0 I I #
point $-1 -69.333170567949466 -59.672070665731034 18.108122556798072 #
point $-1 -60.427270172679115 -59.672070665731034 18.108122556798072 #
straight-curve $-1 -60.427270172679115 -59.672070665731034 0 0 0 -1 I I #
point $-1 -60.427270172679115 -59.672070665731034 -18.108122556798072 #
straight-curve $-1 69.333170567949466 -2.5235403165951773 95.22843187767333 0 0 -1 I I #
point $-1 69.333170567949466 -2.5235403165951773 18.108122556798072 #
straight-curve $-1 69.333170567949466 2.0721405752307085 1.0351187212748343 0 1 0 I I #
point $-1 69.333170567949466 -2.5235403165951773 1.0351187212748272 #
point $-1 53.376581604335115 1.2866433788657403 7.5435031706070816 #
point $-1 53.376581604335115 7.0019189220571079 7.5435031706070816 #
edge $-1 $667 -69.333170567949466 $661 -39.761861015245984 $658 $749 forward 7 unknown #
straight-curve $-1 39.761861015245969 15.690021981819203 18.108122556798079 0 -1 0 I I #
point $-1 39.761861015245984 38.047865430694998 18.108122556798072 #
straight-curve $-1 69.333170567949466 38.047865430695005 0 0 0 -1 I I #
point $-1 69.333170567949466 38.047865430695005 18.108122556798072 #
point $-1 53.376581604335115 28.52240619204273 7.5435031706070816 #
point $-1 53.376581604335115 34.237681735234098 7.5435031706070816 #
straight-curve $-1 -69.333170567949466 0.86590241048306638 43.829426809195738 0 0 -1 I I #
point $-1 -69.333170567949466 0.86590241048306638 18.108122556798072 #
straight-curve $-1 -69.333170567949466 -2.5881490960663953 0.39329900634623149 0 -1 0 I I #
point $-1 -69.333170567949466 0.86590241048306638 0.39329900634623316 #
point $-1 -60.37789023846284 -8.8016185537023048 7.8071170102547116 #
point $-1 -60.37789023846284 -5.1762981921327906 7.8071170102547116 #
point $-1 -60.37789023846284 -1.5509778305632764 7.8071170102547116 #
straight-curve $-1 -69.333170567949466 32.842704029784684 43.829426809195738 0 0 -1 I I #
point $-1 -69.333170567949466 32.842704029784684 18.108122556798072 #
straight-curve $-1 -69.333170567949466 13.400251713584414 0.39329900634623149 0 -1 0 I I #
point $-1 -69.333170567949466 32.842704029784684 0.39329900634623316 #
point $-1 -60.37789023846284 23.175183065599306 7.8071170102547116 #
point $-1 -60.37789023846284 26.800503427168827 7.8071170102547116 #
point $-1 -60.37789023846284 30.425823788738334 7.8071170102547116 #
straight-curve $-1 -64.880220370314291 -59.672070665731034 -18.108122556798072 -1 0 0 I I #
point $-1 -69.333170567949466 -59.672070665731034 -18.108122556798072 #
straight-curve $-1 0 38.047865430695005 18.108122556798072 -1 0 0 I I #
End-of-ACIS-data 