500 0 13 0           
7 Unknown 11 ACIS 5.0 NT 24 Thu Mar 25 21:49:57 1999 
-1 9.9999999999999995e-007 1e-010 
body $-1 $13 $-1 $14 #
body $-1 $15 $-1 $16 #
body $-1 $17 $-1 $18 #
body $-1 $19 $-1 $20 #
body $-1 $21 $-1 $22 #
body $-1 $23 $-1 $24 #
body $-1 $25 $-1 $26 #
body $-1 $27 $-1 $28 #
body $-1 $29 $-1 $30 #
body $-1 $31 $-1 $32 #
body $-1 $33 $-1 $34 #
body $-1 $35 $-1 $36 #
body $-1 $37 $-1 $38 #
lump $-1 $-1 $39 $0 #
transform $-1 1 0 0 0 1 0 0 0 1 60.602435377056182 36.609663589208679 8.7541641627407696 1 rotate no_reflect no_shear #
lump $-1 $-1 $40 $1 #
transform $-1 1 0 0 0 1 0 0 0 1 60.602435377056182 36.609663589208679 8.7541641627407696 1 rotate no_reflect no_shear #
lump $-1 $-1 $41 $2 #
transform $-1 1 0 0 0 1 0 0 0 1 60.602435377056182 36.609663589208679 8.7541641627407696 1 rotate no_reflect no_shear #
lump $-1 $-1 $42 $3 #
transform $-1 1 0 0 0 1 0 0 0 1 60.602435377056182 36.609663589208679 8.7541641627407696 1 rotate no_reflect no_shear #
lump $-1 $-1 $43 $4 #
transform $-1 1 0 0 0 1 0 0 0 1 60.602435377056182 36.609663589208679 8.7541641627407696 1 rotate no_reflect no_shear #
lump $-1 $-1 $44 $5 #
transform $-1 1 0 0 0 1 0 0 0 1 60.602435377056182 36.609663589208679 8.7541641627407696 1 rotate no_reflect no_shear #
lump $-1 $-1 $45 $6 #
transform $-1 1 0 0 0 1 0 0 0 1 60.602435377056182 36.609663589208679 8.7541641627407696 1 rotate no_reflect no_shear #
lump $-1 $-1 $46 $7 #
transform $-1 1 0 0 0 1 0 0 0 1 60.602435377056182 36.609663589208679 8.7541641627407696 1 rotate no_reflect no_shear #
lump $-1 $-1 $47 $8 #
transform $-1 1 0 0 0 1 0 0 0 1 60.602435377056182 36.609663589208679 8.7541641627407696 1 rotate no_reflect no_shear #
lump $-1 $-1 $48 $9 #
transform $-1 1 0 0 0 1 0 0 0 1 60.602435377056182 36.609663589208679 8.7541641627407696 1 rotate no_reflect no_shear #
lump $-1 $-1 $49 $10 #
transform $-1 1 0 0 0 1 0 0 0 1 60.602435377056182 36.609663589208679 8.7541641627407696 1 rotate no_reflect no_shear #
lump $-1 $-1 $50 $11 #
transform $-1 1 0 0 0 1 0 0 0 1 60.602435377056182 36.609663589208679 8.7541641627407696 1 rotate no_reflect no_shear #
lump $-1 $-1 $51 $12 #
transform $-1 1 0 0 0 1 0 0 0 1 60.602435377056182 36.609663589208679 8.7541641627407696 1 rotate no_reflect no_shear #
shell $-1 $-1 $-1 $52 $-1 $13 #
shell $-1 $-1 $-1 $53 $-1 $15 #
shell $-1 $-1 $-1 $54 $-1 $17 #
shell $-1 $-1 $-1 $55 $-1 $19 #
shell $-1 $-1 $-1 $56 $-1 $21 #
shell $-1 $-1 $-1 $57 $-1 $23 #
shell $-1 $-1 $-1 $58 $-1 $25 #
shell $-1 $-1 $-1 $59 $-1 $27 #
shell $-1 $-1 $-1 $60 $-1 $29 #
shell $-1 $-1 $-1 $61 $-1 $31 #
shell $-1 $-1 $-1 $62 $-1 $33 #
shell $-1 $-1 $-1 $63 $-1 $35 #
shell $-1 $-1 $-1 $64 $-1 $37 #
face $-1 $65 $66 $39 $-1 $67 forward single #
face $-1 $68 $69 $40 $-1 $70 reversed single #
face $-1 $71 $72 $41 $-1 $73 reversed single #
face $-1 $74 $75 $42 $-1 $76 forward single #
face $-1 $77 $78 $43 $-1 $79 forward single #
face $-1 $80 $81 $44 $-1 $82 forward single #
face $-1 $83 $84 $45 $-1 $85 reversed single #
face $-1 $86 $87 $46 $-1 $88 forward single #
face $-1 $89 $90 $47 $-1 $91 forward single #
face $-1 $92 $93 $48 $-1 $94 forward single #
face $-1 $95 $96 $49 $-1 $97 reversed single #
face $-1 $98 $99 $50 $-1 $100 forward single #
face $-1 $101 $102 $51 $-1 $103 forward single #
face $-1 $104 $105 $39 $-1 $106 reversed single #
loop $-1 $-1 $107 $52 #
plane-surface $-1 0 0 8.7541641627407696 0 0 1 1 0 0 forward_v I I I I #
face $-1 $108 $109 $40 $-1 $110 reversed single #
loop $-1 $-1 $111 $53 #
plane-surface $-1 -47.052328639433256 -32.158785456169475 0 1 0 0 0 0 -1 forward_v I I I I #
face $-1 $112 $113 $41 $-1 $114 reversed single #
loop $-1 $-1 $115 $54 #
plane-surface $-1 -141.70432501380481 -23.47010481576017 90.299131019255071 0 1 0 -0.66913061440640931 0 0.74314481823134659 forward_v I I I I #
face $-1 $116 $117 $42 $-1 $118 forward single #
loop $-1 $119 $120 $55 #
cone-surface $-1 -55.332508608617346 -21.764777430496611 3.8967687669686808 0.66913061440640931 0 -0.74314481823134659 0.3715724091156733 0 0.33456530720320465 1 I I 0 1 0.5 forward I I I I #
face $-1 $121 $122 $43 $-1 $123 forward single #
loop $-1 $124 $125 $56 #
cone-surface $-1 -55.332508608617346 -19.206786352601277 3.8967687669686808 0.66913061440640931 0 -0.74314481823134659 0.3715724091156733 0 0.33456530720320465 1 I I 0 1 0.5 forward I I I I #
face $-1 $126 $127 $44 $-1 $128 forward single #
loop $-1 $129 $130 $57 #
cone-surface $-1 -55.332508608617346 -16.648795274705943 3.8967687669686808 0.66913061440640931 0 -0.74314481823134659 0.3715724091156733 0 0.33456530720320465 1 I I 0 1 0.5 forward I I I I #
face $-1 $131 $132 $45 $-1 $133 reversed single #
loop $-1 $-1 $134 $58 #
plane-surface $-1 -141.70432501380481 8.6886806404093058 90.299131019255071 0 1 0 -0.66913061440640931 0 0.74314481823134659 forward_v I I I I #
face $-1 $135 $136 $46 $-1 $137 forward single #
loop $-1 $138 $139 $59 #
cone-surface $-1 -55.332508608617346 10.394008025672861 3.8967687669686808 0.66913061440640931 0 -0.74314481823134659 0.3715724091156733 0 0.33456530720320465 1 I I 0 1 0.5 forward I I I I #
face $-1 $140 $141 $47 $-1 $142 forward single #
loop $-1 $143 $144 $60 #
cone-surface $-1 -55.332508608617346 12.951999103568198 3.8967687669686808 0.66913061440640931 0 -0.74314481823134659 0.3715724091156733 0 0.33456530720320465 1 I I 0 1 0.5 forward I I I I #
face $-1 $145 $146 $48 $-1 $147 forward single #
loop $-1 $148 $149 $61 #
cone-surface $-1 -55.332508608617346 15.509990181463536 3.8967687669686808 0.66913061440640931 0 -0.74314481823134659 0.3715724091156733 0 0.33456530720320465 1 I I 0 1 0.5 forward I I I I #
face $-1 $150 $151 $49 $-1 $152 reversed single #
loop $-1 $-1 $153 $62 #
plane-surface $-1 84.458039372510953 27.057325601449726 175.1981088887876 0 1 0 0.79863551827123203 0 0.60181501223851219 forward_v I I I I #
face $-1 $154 $155 $50 $-1 $156 forward single #
loop $-1 $157 $158 $63 #
cone-surface $-1 57.958819292521227 29.786565026523718 6.0495430136600774 -0.79863551827123203 0 -0.60181501223851219 0.60181501223851219 0 -0.79863551827123203 1 I I 0 1 1 forward I I I I #
face $-1 $159 $160 $51 $-1 $161 forward single #
loop $-1 $162 $163 $64 #
cone-surface $-1 57.958819292521227 33.880424164134695 6.0495430136600774 -0.79863551827123203 0 -0.60181501223851219 0.60181501223851219 0 -0.79863551827123203 1 I I 0 1 1 forward I I I I #
face $-1 $164 $165 $39 $-1 $166 reversed single #
loop $-1 $-1 $167 $65 #
plane-surface $-1 0 0 -8.7541641627407696 0 0 1 1 0 0 forward_v I I I I #
coedge $-1 $168 $169 $170 $171 forward $66 $-1 #
face $-1 $172 $173 $40 $-1 $174 reversed single #
loop $-1 $-1 $175 $68 #
plane-surface $-1 -45.504727493600299 -27.707907323130271 0 0 -1 0 0 0 -1 forward_v I I I I #
coedge $-1 $176 $177 $178 $179 forward $69 $-1 #
face $-1 $180 $181 $41 $-1 $182 reversed single #
loop $-1 $-1 $183 $71 #
plane-surface $-1 -60.602435377056167 -19.206786352601277 0.22635937393637562 -0.66913061440640931 0 0.74314481823134659 0.74314481823134659 0 0.66913061440640931 forward_v I I I I #
coedge $-1 $184 $185 $186 $187 reversed $72 $-1 #
face $-1 $-1 $188 $42 $-1 $189 forward single #
loop $-1 $190 $191 $74 #
cone-surface $-1 -54.630842444682358 -21.764777430496611 3.1174895610409603 0.66913061440640931 0 -0.74314481823134659 0.18578620455783665 0 0.16728265360160233 1 I I -0.70710678118654746 0.70710678118654746 0.25 forward I I I I #
loop $-1 $-1 $192 $55 #
coedge $-1 $120 $120 $193 $194 reversed $75 $-1 #
face $-1 $-1 $195 $43 $-1 $196 forward single #
loop $-1 $197 $198 $77 #
cone-surface $-1 -54.630842444682358 -19.206786352601277 3.1174895610409603 0.66913061440640931 0 -0.74314481823134659 0.18578620455783665 0 0.16728265360160233 1 I I -0.70710678118654746 0.70710678118654746 0.25 forward I I I I #
loop $-1 $-1 $199 $56 #
coedge $-1 $125 $125 $200 $201 reversed $78 $-1 #
face $-1 $-1 $202 $44 $-1 $203 forward single #
loop $-1 $204 $205 $80 #
cone-surface $-1 -54.630842444682358 -16.648795274705943 3.1174895610409603 0.66913061440640931 0 -0.74314481823134659 0.18578620455783665 0 0.16728265360160233 1 I I -0.70710678118654746 0.70710678118654746 0.25 forward I I I I #
loop $-1 $-1 $206 $57 #
coedge $-1 $130 $130 $207 $208 reversed $81 $-1 #
face $-1 $209 $210 $45 $-1 $211 reversed single #
loop $-1 $-1 $212 $83 #
plane-surface $-1 -60.602435377056167 12.951999103568198 0.22635937393637562 -0.66913061440640931 0 0.74314481823134659 0.74314481823134659 0 0.66913061440640931 forward_v I I I I #
coedge $-1 $213 $214 $215 $216 reversed $84 $-1 #
face $-1 $-1 $217 $46 $-1 $218 forward single #
loop $-1 $219 $220 $86 #
cone-surface $-1 -54.630842444682358 10.394008025672861 3.1174895610409603 0.66913061440640931 0 -0.74314481823134659 0.18578620455783665 0 0.16728265360160233 1 I I -0.70710678118654746 0.70710678118654746 0.25 forward I I I I #
loop $-1 $-1 $221 $59 #
coedge $-1 $139 $139 $222 $223 reversed $87 $-1 #
face $-1 $-1 $224 $47 $-1 $225 forward single #
loop $-1 $226 $227 $89 #
cone-surface $-1 -54.630842444682358 12.951999103568198 3.1174895610409603 0.66913061440640931 0 -0.74314481823134659 0.18578620455783665 0 0.16728265360160233 1 I I -0.70710678118654746 0.70710678118654746 0.25 forward I I I I #
loop $-1 $-1 $228 $60 #
coedge $-1 $144 $144 $229 $230 reversed $90 $-1 #
face $-1 $-1 $231 $48 $-1 $232 forward single #
loop $-1 $233 $234 $92 #
cone-surface $-1 -54.630842444682358 15.509990181463536 3.1174895610409603 0.66913061440640931 0 -0.74314481823134659 0.18578620455783665 0 0.16728265360160233 1 I I -0.70710678118654746 0.70710678118654746 0.25 forward I I I I #
loop $-1 $-1 $235 $61 #
coedge $-1 $149 $149 $236 $237 reversed $93 $-1 #
face $-1 $238 $239 $49 $-1 $240 forward single #
loop $-1 $-1 $241 $95 #
plane-surface $-1 -12.34047539919726 31.833494595329199 102.25519811253419 0.79863551827123203 0 0.60181501223851219 0.60181501223851219 0 -0.79863551827123203 forward_v I I I I #
coedge $-1 $242 $243 $244 $245 reversed $96 $-1 #
face $-1 $-1 $246 $50 $-1 $247 forward single #
loop $-1 $248 $249 $98 #
cone-surface $-1 56.158300427771607 29.786565026523718 4.6927547694175278 -0.79863551827123203 0 -0.60181501223851219 0.3009075061192561 0 -0.39931775913561601 1 I I -0.70710678118654746 0.70710678118654746 0.5 forward I I I I #
loop $-1 $-1 $250 $63 #
coedge $-1 $158 $158 $251 $252 reversed $99 $-1 #
face $-1 $-1 $253 $51 $-1 $254 forward single #
loop $-1 $255 $256 $101 #
cone-surface $-1 56.158300427771607 33.880424164134695 4.6927547694175278 -0.79863551827123203 0 -0.60181501223851219 0.3009075061192561 0 -0.39931775913561601 1 I I -0.70710678118654746 0.70710678118654746 0.5 forward I I I I #
loop $-1 $-1 $257 $64 #
coedge $-1 $163 $163 $258 $259 reversed $102 $-1 #
face $-1 $260 $261 $39 $-1 $262 reversed single #
loop $-1 $-1 $263 $104 #
plane-surface $-1 0 -36.609663589208679 0 0 1 0 0 0 1 forward_v I I I I #
coedge $-1 $264 $265 $266 $267 forward $105 $-1 #
coedge $-1 $268 $107 $269 $270 forward $66 $-1 #
coedge $-1 $107 $268 $271 $272 forward $66 $-1 #
coedge $-1 $273 $274 $107 $171 reversed $275 $-1 #
edge $-1 $276 -36.609663589208679 $277 36.609663589208679 $170 $278 forward 7 unknown #
face $-1 $279 $280 $40 $-1 $281 forward single #
loop $-1 $-1 $282 $108 #
plane-surface $-1 -43.957126347767343 -32.158785456169475 0 -1 0 0 0 0 1 forward_v I I I I #
coedge $-1 $283 $284 $285 $286 forward $109 $-1 #
coedge $-1 $287 $111 $288 $289 reversed $69 $-1 #
coedge $-1 $111 $287 $290 $291 reversed $69 $-1 #
coedge $-1 $284 $283 $111 $179 reversed $109 $-1 #
edge $-1 $292 -8.7541641627407696 $293 8.7541641627407696 $178 $294 forward 7 unknown #
face $-1 $295 $296 $41 $-1 $297 reversed single #
loop $-1 $-1 $298 $112 #
plane-surface $-1 -141.70432501380481 -14.943467889442385 90.299131019255071 0 -1 0 0.66913061440640931 0 -0.74314481823134659 forward_v I I I I #
coedge $-1 $299 $300 $301 $302 reversed $113 $-1 #
coedge $-1 $185 $115 $303 $304 reversed $72 $-1 #
coedge $-1 $115 $184 $299 $305 reversed $72 $-1 #
coedge $-1 $301 $306 $115 $187 forward $307 $-1 #
edge $-1 $308 10.249727129846221 $309 19.720813646057124 $186 $310 forward 7 unknown #
loop $-1 $-1 $193 $116 #
plane-surface $-1 -60.602435377056167 -19.206786352601277 0.22635937393637562 -0.66913061440640931 0 0.74314481823134659 0.74314481823134659 0 0.66913061440640931 forward_v I I I I #
loop $-1 $-1 $311 $74 #
coedge $-1 $191 $191 $192 $312 reversed $117 $-1 #
coedge $-1 $192 $192 $191 $312 forward $119 $-1 #
coedge $-1 $193 $193 $120 $194 forward $188 $-1 #
edge $-1 $313 0 $313 6.2831853071796004 $193 $314 forward 7 unknown #
loop $-1 $-1 $200 $121 #
plane-surface $-1 -60.602435377056167 -19.206786352601277 0.22635937393637562 -0.66913061440640931 0 0.74314481823134659 0.74314481823134659 0 0.66913061440640931 forward_v I I I I #
loop $-1 $-1 $315 $77 #
coedge $-1 $198 $198 $199 $316 reversed $122 $-1 #
coedge $-1 $199 $199 $198 $316 forward $124 $-1 #
coedge $-1 $200 $200 $125 $201 forward $195 $-1 #
edge $-1 $317 0 $317 6.2831853071796004 $200 $318 forward 7 unknown #
loop $-1 $-1 $207 $126 #
plane-surface $-1 -60.602435377056167 -19.206786352601277 0.22635937393637562 -0.66913061440640931 0 0.74314481823134659 0.74314481823134659 0 0.66913061440640931 forward_v I I I I #
loop $-1 $-1 $319 $80 #
coedge $-1 $205 $205 $206 $320 reversed $127 $-1 #
coedge $-1 $206 $206 $205 $320 forward $129 $-1 #
coedge $-1 $207 $207 $130 $208 forward $202 $-1 #
edge $-1 $321 0 $321 6.2831853071796004 $207 $322 forward 7 unknown #
face $-1 $323 $324 $45 $-1 $325 forward single #
loop $-1 $-1 $326 $131 #
plane-surface $-1 -141.70432501380481 17.215317566727091 90.299131019255071 0 -1 0 0.66913061440640931 0 -0.74314481823134659 forward_v I I I I #
coedge $-1 $327 $328 $329 $330 reversed $132 $-1 #
coedge $-1 $214 $134 $331 $332 reversed $84 $-1 #
coedge $-1 $134 $213 $327 $333 reversed $84 $-1 #
coedge $-1 $329 $334 $134 $216 forward $324 $-1 #
edge $-1 $335 10.249727129846221 $336 19.720813646057124 $215 $337 forward 7 unknown #
loop $-1 $-1 $222 $135 #
plane-surface $-1 -60.602435377056167 12.951999103568198 0.22635937393637562 -0.66913061440640931 0 0.74314481823134659 0.74314481823134659 0 0.66913061440640931 forward_v I I I I #
loop $-1 $-1 $338 $86 #
coedge $-1 $220 $220 $221 $339 reversed $136 $-1 #
coedge $-1 $221 $221 $220 $339 forward $138 $-1 #
coedge $-1 $222 $222 $139 $223 forward $217 $-1 #
edge $-1 $340 0 $340 6.2831853071796004 $222 $341 forward 7 unknown #
loop $-1 $-1 $229 $140 #
plane-surface $-1 -60.602435377056167 12.951999103568198 0.22635937393637562 -0.66913061440640931 0 0.74314481823134659 0.74314481823134659 0 0.66913061440640931 forward_v I I I I #
loop $-1 $-1 $342 $89 #
coedge $-1 $227 $227 $228 $343 reversed $141 $-1 #
coedge $-1 $228 $228 $227 $343 forward $143 $-1 #
coedge $-1 $229 $229 $144 $230 forward $224 $-1 #
edge $-1 $344 0 $344 6.2831853071796004 $229 $345 forward 7 unknown #
loop $-1 $-1 $236 $145 #
plane-surface $-1 -60.602435377056167 12.951999103568198 0.22635937393637562 -0.66913061440640931 0 0.74314481823134659 0.74314481823134659 0 0.66913061440640931 forward_v I I I I #
loop $-1 $-1 $346 $92 #
coedge $-1 $234 $234 $235 $347 reversed $146 $-1 #
coedge $-1 $235 $235 $234 $347 forward $148 $-1 #
coedge $-1 $236 $236 $149 $237 forward $231 $-1 #
edge $-1 $348 0 $348 6.2831853071796004 $236 $349 forward 7 unknown #
face $-1 $350 $351 $49 $-1 $352 reversed single #
loop $-1 $-1 $353 $150 #
plane-surface $-1 0 0 8.7541641627407696 0 0 1 1 0 0 forward_v I I I I #
coedge $-1 $354 $355 $356 $357 reversed $151 $-1 #
coedge $-1 $243 $153 $358 $359 reversed $96 $-1 #
coedge $-1 $153 $242 $354 $360 reversed $96 $-1 #
coedge $-1 $356 $361 $153 $245 forward $362 $-1 #
edge $-1 $363 78.844890281653036 $364 82.142371103567854 $244 $365 forward 7 unknown #
loop $-1 $-1 $251 $154 #
plane-surface $-1 -12.34047539919726 31.833494595329199 102.25519811253419 0.79863551827123203 0 0.60181501223851219 0.60181501223851219 0 -0.79863551827123203 forward_v I I I I #
loop $-1 $-1 $366 $98 #
coedge $-1 $249 $249 $250 $367 reversed $155 $-1 #
coedge $-1 $250 $250 $249 $367 forward $157 $-1 #
coedge $-1 $251 $251 $158 $252 forward $246 $-1 #
edge $-1 $368 0 $368 6.2831853071796004 $251 $369 forward 7 unknown #
loop $-1 $-1 $258 $159 #
plane-surface $-1 -12.34047539919726 31.833494595329199 102.25519811253419 0.79863551827123203 0 0.60181501223851219 0.60181501223851219 0 -0.79863551827123203 forward_v I I I I #
loop $-1 $-1 $370 $101 #
coedge $-1 $256 $256 $257 $371 reversed $160 $-1 #
coedge $-1 $257 $257 $256 $371 forward $162 $-1 #
coedge $-1 $258 $258 $163 $259 forward $253 $-1 #
edge $-1 $372 0 $372 6.2831853071796004 $258 $373 forward 7 unknown #
face $-1 $374 $375 $39 $-1 $376 reversed single #
loop $-1 $-1 $377 $164 #
plane-surface $-1 -60.602435377056182 0 0 1 0 0 0 0 -1 forward_v I I I I #
coedge $-1 $378 $271 $379 $380 forward $165 $-1 #
coedge $-1 $381 $167 $378 $382 forward $105 $-1 #
coedge $-1 $167 $381 $383 $384 forward $105 $-1 #
coedge $-1 $274 $273 $167 $267 reversed $275 $-1 #
edge $-1 $385 -36.609663589208679 $386 36.609663589208679 $266 $387 forward 7 unknown #
coedge $-1 $169 $168 $388 $389 forward $66 $-1 #
coedge $-1 $390 $391 $168 $270 reversed $375 $-1 #
edge $-1 $277 -60.602435377056182 $392 60.602435377056182 $269 $393 forward 7 unknown #
coedge $-1 $263 $394 $169 $272 reversed $165 $-1 #
edge $-1 $395 -60.602435377056182 $276 60.602435377056182 $271 $396 forward 7 unknown #
coedge $-1 $266 $170 $394 $397 forward $275 $-1 #
coedge $-1 $170 $266 $390 $398 reversed $275 $-1 #
loop $-1 $-1 $273 $374 #
vertex $-1 $171 $399 #
vertex $-1 $171 $400 #
straight-curve $-1 60.602435377056182 0 8.7541641627407696 0 1 0 I I #
face $-1 $401 $402 $40 $-1 $403 reversed single #
loop $-1 $-1 $404 $172 #
plane-surface $-1 0 0 8.7541641627407696 0 0 1 1 0 0 forward_v I I I I #
coedge $-1 $405 $406 $407 $408 reversed $173 $-1 #
coedge $-1 $178 $175 $409 $410 reversed $109 $-1 #
coedge $-1 $175 $178 $411 $412 reversed $109 $-1 #
coedge $-1 $406 $405 $175 $286 reversed $173 $-1 #
edge $-1 $413 -8.7541641627407696 $414 8.7541641627407696 $285 $415 forward 7 unknown #
coedge $-1 $177 $176 $416 $417 reversed $69 $-1 #
coedge $-1 $409 $418 $176 $289 forward $402 $-1 #
edge $-1 $419 -20.530270861123942 $293 -11.628514595045534 $288 $420 forward 7 unknown #
coedge $-1 $421 $411 $177 $291 forward $280 $-1 #
edge $-1 $292 11.628514595045534 $422 20.530270861123942 $290 $423 forward 7 unknown #
vertex $-1 $291 $424 #
vertex $-1 $289 $425 #
straight-curve $-1 -47.052328639433256 -27.707907323130271 0 0 0 -1 I I #
face $-1 $-1 $307 $41 $-1 $426 forward single #
loop $-1 $-1 $427 $180 #
plane-surface $-1 -60.602435377056182 0 0 1 0 0 0 0 -1 forward_v I I I I #
coedge $-1 $428 $429 $430 $431 reversed $181 $-1 #
coedge $-1 $432 $183 $185 $305 forward $113 $-1 #
coedge $-1 $183 $432 $428 $433 forward $113 $-1 #
coedge $-1 $430 $186 $183 $302 forward $307 $-1 #
edge $-1 $309 -13.866711639459531 $434 -5.3400747131417461 $301 $435 forward 7 unknown #
coedge $-1 $436 $437 $184 $304 forward $296 $-1 #
edge $-1 $438 -44.923206135691174 $308 -36.395401346886764 $303 $439 forward 7 unknown #
edge $-1 $309 -12.744604125413503 $438 1.9122463617454847e-014 $185 $440 forward 7 unknown #
coedge $-1 $186 $430 $436 $441 forward $307 $-1 #
loop $-1 $-1 $430 $295 #
vertex $-1 $304 $442 #
vertex $-1 $187 $443 #
straight-curve $-1 -70.852162506902403 -23.47010481576017 8.7541641627407714 1 0 0 I I #
coedge $-1 $311 $311 $-1 $444 reversed $190 $-1 #
edge $-1 $445 0 $445 6.2831853071796004 $191 $446 forward 7 unknown #
vertex $-1 $194 $447 #
ellipse-curve $-1 -55.86689211895073 -21.764777430496611 4.4902617683385646 -0.66913061440640931 0 0.74314481823134659 0.3715724091156733 0 0.33456530720320465 1 I I #
coedge $-1 $315 $315 $-1 $448 reversed $197 $-1 #
edge $-1 $449 0 $449 6.2831853071796004 $198 $450 forward 7 unknown #
vertex $-1 $201 $451 #
ellipse-curve $-1 -55.86689211895073 -19.206786352601277 4.4902617683385646 -0.66913061440640931 0 0.74314481823134659 0.3715724091156733 0 0.33456530720320465 1 I I #
coedge $-1 $319 $319 $-1 $452 reversed $204 $-1 #
edge $-1 $453 0 $453 6.2831853071796004 $205 $454 forward 7 unknown #
vertex $-1 $208 $455 #
ellipse-curve $-1 -55.86689211895073 -16.648795274705943 4.4902617683385646 -0.66913061440640931 0 0.74314481823134659 0.3715724091156733 0 0.33456530720320465 1 I I #
face $-1 $-1 $456 $45 $-1 $457 reversed single #
loop $-1 $-1 $215 $209 #
plane-surface $-1 0 0 8.7541641627407696 0 0 1 1 0 0 forward_v I I I I #
coedge $-1 $458 $459 $460 $461 reversed $210 $-1 #
coedge $-1 $462 $212 $214 $333 forward $132 $-1 #
coedge $-1 $212 $462 $458 $463 forward $132 $-1 #
coedge $-1 $460 $215 $212 $330 forward $324 $-1 #
edge $-1 $336 2.2126810886252066 $464 10.739318014942992 $329 $465 forward 7 unknown #
coedge $-1 $466 $467 $213 $332 forward $456 $-1 #
edge $-1 $468 -44.923206135691174 $335 -36.395401346886764 $331 $469 forward 7 unknown #
edge $-1 $336 -12.744604125413503 $468 1.9122463617454847e-014 $214 $470 forward 7 unknown #
coedge $-1 $215 $460 $466 $471 forward $324 $-1 #
vertex $-1 $332 $472 #
vertex $-1 $216 $473 #
straight-curve $-1 -70.852162506902403 8.6886806404093058 8.7541641627407714 1 0 0 I I #
coedge $-1 $338 $338 $-1 $474 reversed $219 $-1 #
edge $-1 $475 0 $475 6.2831853071796004 $220 $476 forward 7 unknown #
vertex $-1 $223 $477 #
ellipse-curve $-1 -55.86689211895073 10.394008025672861 4.4902617683385646 -0.66913061440640931 0 0.74314481823134659 0.3715724091156733 0 0.33456530720320465 1 I I #
coedge $-1 $342 $342 $-1 $478 reversed $226 $-1 #
edge $-1 $479 0 $479 6.2831853071796004 $227 $480 forward 7 unknown #
vertex $-1 $230 $481 #
ellipse-curve $-1 -55.86689211895073 12.951999103568198 4.4902617683385646 -0.66913061440640931 0 0.74314481823134659 0.3715724091156733 0 0.33456530720320465 1 I I #
coedge $-1 $346 $346 $-1 $482 reversed $233 $-1 #
edge $-1 $483 0 $483 6.2831853071796004 $234 $484 forward 7 unknown #
vertex $-1 $237 $485 #
ellipse-curve $-1 -55.86689211895073 15.509990181463536 4.4902617683385646 -0.66913061440640931 0 0.74314481823134659 0.3715724091156733 0 0.33456530720320465 1 I I #
face $-1 $-1 $362 $49 $-1 $486 reversed single #
loop $-1 $-1 $487 $238 #
plane-surface $-1 0 36.609663589208679 0 0 -1 0 0 0 -1 forward_v I I I I #
coedge $-1 $358 $488 $489 $490 forward $239 $-1 #
coedge $-1 $489 $241 $243 $360 forward $151 $-1 #
coedge $-1 $241 $489 $487 $491 reversed $151 $-1 #
coedge $-1 $492 $244 $241 $357 forward $362 $-1 #
edge $-1 $364 11.140578303785126 $493 20.69291629154408 $356 $494 forward 7 unknown #
coedge $-1 $495 $353 $242 $359 forward $239 $-1 #
edge $-1 $496 15.888585732958838 $363 18.373415690800705 $358 $497 forward 7 unknown #
edge $-1 $364 -121.20487075411239 $496 -117.07597747742378 $243 $498 forward 7 unknown #
coedge $-1 $244 $492 $495 $499 reversed $362 $-1 #
loop $-1 $-1 $356 $350 #
vertex $-1 $499 $500 #
vertex $-1 $245 $501 #
straight-curve $-1 60.602435377056182 27.057325601449726 87.599054444393801 0 0 -1 I I #
coedge $-1 $366 $366 $-1 $502 reversed $248 $-1 #
edge $-1 $503 0 $503 6.2831853071796004 $249 $504 forward 7 unknown #
vertex $-1 $252 $505 #
ellipse-curve $-1 59.360020398135219 29.786565026523718 7.1054237517833663 0.79863551827123203 0 0.60181501223851219 0.60181501223851219 0 -0.79863551827123203 1 I I #
coedge $-1 $370 $370 $-1 $506 reversed $255 $-1 #
edge $-1 $507 0 $507 6.2831853071796004 $256 $508 forward 7 unknown #
vertex $-1 $259 $509 #
ellipse-curve $-1 59.360020398135219 33.880424164134695 7.1054237517833663 0.79863551827123203 0 0.60181501223851219 0.60181501223851219 0 -0.79863551827123203 1 I I #
face $-1 $-1 $275 $39 $-1 $510 reversed single #
loop $-1 $-1 $390 $260 #
plane-surface $-1 0 36.609663589208679 0 0 -1 0 0 0 -1 forward_v I I I I #
coedge $-1 $511 $388 $391 $512 forward $261 $-1 #
coedge $-1 $394 $263 $264 $382 reversed $165 $-1 #
coedge $-1 $388 $511 $263 $380 reversed $261 $-1 #
edge $-1 $395 -8.7541641627407696 $513 8.7541641627407696 $379 $514 forward 7 unknown #
coedge $-1 $265 $264 $511 $515 forward $105 $-1 #
edge $-1 $386 -60.602435377056182 $513 60.602435377056182 $378 $516 forward 7 unknown #
coedge $-1 $391 $390 $265 $384 reversed $375 $-1 #
edge $-1 $517 -60.602435377056182 $385 60.602435377056182 $383 $518 forward 7 unknown #
vertex $-1 $267 $519 #
vertex $-1 $397 $520 #
straight-curve $-1 60.602435377056182 0 -8.7541641627407696 0 -1 0 I I #
coedge $-1 $377 $379 $268 $389 reversed $261 $-1 #
edge $-1 $392 -36.609663589208679 $395 36.609663589208679 $388 $521 forward 7 unknown #
coedge $-1 $383 $269 $274 $398 forward $375 $-1 #
coedge $-1 $269 $383 $377 $512 reversed $375 $-1 #
vertex $-1 $270 $522 #
straight-curve $-1 0 36.609663589208679 8.7541641627407696 -1 0 0 I I #
coedge $-1 $271 $378 $273 $397 reversed $165 $-1 #
vertex $-1 $389 $523 #
straight-curve $-1 0 -36.609663589208679 8.7541641627407696 1 0 0 I I #
edge $-1 $276 -8.7541641627407696 $386 8.7541641627407696 $273 $524 forward 7 unknown #
edge $-1 $277 -8.7541641627407696 $385 8.7541641627407696 $274 $525 forward 7 unknown #
point $-1 60.602435377056182 -36.609663589208679 8.7541641627407696 #
point $-1 60.602435377056182 36.609663589208679 8.7541641627407696 #
face $-1 $-1 $526 $40 $-1 $527 reversed single #
loop $-1 $-1 $528 $279 #
plane-surface $-1 0 0 -8.7541641627407696 0 0 1 1 0 0 forward_v I I I I #
coedge $-1 $411 $421 $406 $529 forward $280 $-1 #
coedge $-1 $285 $282 $528 $530 reversed $173 $-1 #
coedge $-1 $282 $285 $404 $529 reversed $173 $-1 #
coedge $-1 $531 $532 $282 $408 forward $526 $-1 #
edge $-1 $533 -8.7541641627407696 $534 8.7541641627407696 $407 $535 forward 7 unknown #
coedge $-1 $528 $288 $283 $410 forward $402 $-1 #
edge $-1 $293 -24.299964892633106 $414 -21.204762600967193 $409 $536 forward 7 unknown #
coedge $-1 $290 $404 $284 $412 forward $280 $-1 #
edge $-1 $413 21.204762600967193 $292 24.299964892633106 $411 $537 forward 7 unknown #
vertex $-1 $412 $538 #
vertex $-1 $410 $539 #
straight-curve $-1 -43.957126347767343 -27.707907323130271 0 0 0 -1 I I #
coedge $-1 $532 $531 $287 $417 forward $526 $-1 #
edge $-1 $422 -8.7541641627407696 $419 8.7541641627407696 $416 $540 forward 7 unknown #
coedge $-1 $288 $528 $532 $541 forward $402 $-1 #
vertex $-1 $289 $542 #
straight-curve $-1 -47.052328639433256 -16.079392728084738 -8.7541641627407696 0 1 0 I I #
coedge $-1 $404 $290 $531 $543 forward $280 $-1 #
vertex $-1 $543 $544 #
straight-curve $-1 -47.052328639433256 -16.079392728084738 8.7541641627407696 0 -1 0 I I #
point $-1 -47.052328639433256 -27.707907323130271 8.7541641627407696 #
point $-1 -47.052328639433256 -27.707907323130271 -8.7541641627407696 #
plane-surface $-1 0 0 8.7541641627407696 0 0 1 1 0 0 forward_v I I I I #
coedge $-1 $437 $436 $429 $545 forward $296 $-1 #
coedge $-1 $429 $298 $300 $433 reversed $181 $-1 #
coedge $-1 $298 $428 $427 $545 reversed $181 $-1 #
coedge $-1 $306 $301 $298 $431 forward $307 $-1 #
edge $-1 $434 -19.720813646057124 $546 -10.249727129846221 $430 $547 forward 7 unknown #
coedge $-1 $300 $299 $437 $548 reversed $113 $-1 #
edge $-1 $549 -1.9122463617454847e-014 $434 12.744604125413503 $428 $550 forward 7 unknown #
vertex $-1 $302 $551 #
straight-curve $-1 -51.131348860845293 -9.6033931763006386 8.7541641627407678 0 1 0 I I #
coedge $-1 $427 $303 $306 $441 reversed $296 $-1 #
coedge $-1 $303 $427 $432 $548 forward $296 $-1 #
vertex $-1 $304 $552 #
straight-curve $-1 -60.602435377056182 -23.47010481576017 45.149565509627536 0 0 1 I I #
straight-curve $-1 -60.602435377056167 -23.47010481576017 0.22635937393637562 -0.74314481823134659 0 -0.66913061440640931 I I #
edge $-1 $546 14.943467889442385 $308 23.47010481576017 $436 $553 forward 7 unknown #
point $-1 -60.602435377056182 -23.47010481576017 8.7541641627407696 #
point $-1 -51.131348860845279 -23.47010481576017 8.7541641627407696 #
edge $-1 $554 1 $554 0 $311 $-1 forward 7 unknown #
vertex $-1 $312 $555 #
ellipse-curve $-1 -54.798125098283961 -21.764777430496611 3.303275765598797 -0.66913061440640931 0 0.74314481823134659 0.3715724091156733 0 0.33456530720320465 1 I I #
point $-1 -55.495319709835066 -21.764777430496611 4.8248270755417693 #
edge $-1 $556 1 $556 0 $315 $-1 forward 7 unknown #
vertex $-1 $316 $557 #
ellipse-curve $-1 -54.798125098283961 -19.206786352601277 3.303275765598797 -0.66913061440640931 0 0.74314481823134659 0.3715724091156733 0 0.33456530720320465 1 I I #
point $-1 -55.495319709835066 -19.206786352601277 4.8248270755417693 #
edge $-1 $558 1 $558 0 $319 $-1 forward 7 unknown #
vertex $-1 $320 $559 #
ellipse-curve $-1 -54.798125098283961 -16.648795274705943 3.303275765598797 -0.66913061440640931 0 0.74314481823134659 0.3715724091156733 0 0.33456530720320465 1 I I #
point $-1 -55.495319709835066 -16.648795274705943 4.8248270755417693 #
loop $-1 $-1 $331 $323 #
plane-surface $-1 -60.602435377056182 0 0 1 0 0 0 0 -1 forward_v I I I I #
coedge $-1 $459 $326 $328 $463 reversed $210 $-1 #
coedge $-1 $326 $458 $560 $561 reversed $210 $-1 #
coedge $-1 $334 $329 $326 $461 forward $324 $-1 #
edge $-1 $464 -19.720813646057124 $562 -10.249727129846221 $460 $563 forward 7 unknown #
coedge $-1 $328 $327 $467 $564 reversed $132 $-1 #
edge $-1 $565 -1.9122463617454847e-014 $464 12.744604125413503 $458 $566 forward 7 unknown #
vertex $-1 $330 $567 #
straight-curve $-1 -51.131348860845293 6.4759995517840991 8.7541641627407678 0 1 0 I I #
coedge $-1 $560 $331 $334 $471 reversed $456 $-1 #
coedge $-1 $331 $560 $462 $564 forward $456 $-1 #
vertex $-1 $332 $568 #
straight-curve $-1 -60.602435377056182 8.6886806404093058 45.149565509627536 0 0 1 I I #
straight-curve $-1 -60.602435377056167 8.6886806404093058 0.22635937393637562 -0.74314481823134659 0 -0.66913061440640931 I I #
edge $-1 $562 -17.215317566727091 $335 -8.6886806404093058 $466 $569 forward 7 unknown #
point $-1 -60.602435377056182 8.6886806404093058 8.7541641627407696 #
point $-1 -51.131348860845279 8.6886806404093058 8.7541641627407696 #
edge $-1 $570 1 $570 0 $338 $-1 forward 7 unknown #
vertex $-1 $339 $571 #
ellipse-curve $-1 -54.798125098283961 10.394008025672861 3.303275765598797 -0.66913061440640931 0 0.74314481823134659 0.3715724091156733 0 0.33456530720320465 1 I I #
point $-1 -55.495319709835066 10.394008025672861 4.8248270755417693 #
edge $-1 $572 1 $572 0 $342 $-1 forward 7 unknown #
vertex $-1 $343 $573 #
ellipse-curve $-1 -54.798125098283961 12.951999103568198 3.303275765598797 -0.66913061440640931 0 0.74314481823134659 0.3715724091156733 0 0.33456530720320465 1 I I #
point $-1 -55.495319709835066 12.951999103568198 4.8248270755417693 #
edge $-1 $574 1 $574 0 $346 $-1 forward 7 unknown #
vertex $-1 $347 $575 #
ellipse-curve $-1 -54.798125098283961 15.509990181463536 3.303275765598797 -0.66913061440640931 0 0.74314481823134659 0.3715724091156733 0 0.33456530720320465 1 I I #
point $-1 -55.495319709835066 15.509990181463536 4.8248270755417693 #
plane-surface $-1 60.602435377056182 0 0 -1 0 0 0 0 1 forward_v I I I I #
coedge $-1 $576 $577 $355 $491 forward $351 $-1 #
coedge $-1 $353 $495 $576 $578 forward $239 $-1 #
coedge $-1 $355 $354 $353 $490 reversed $151 $-1 #
edge $-1 $579 -20.692916291544073 $496 -11.140578303785126 $353 $580 forward 7 unknown #
edge $-1 $493 -76.659212507148283 $579 -72.530319230459668 $487 $581 forward 7 unknown #
coedge $-1 $361 $356 $577 $582 reversed $362 $-1 #
vertex $-1 $357 $583 #
straight-curve $-1 60.602435377056182 15.9167472976646 5.456683340825947 0 1 0 I I #
coedge $-1 $488 $358 $361 $499 forward $239 $-1 #
vertex $-1 $359 $584 #
straight-curve $-1 42.229019686255477 27.057325601449726 8.7541641627407643 1 0 0 I I #
straight-curve $-1 -12.34047539919726 27.057325601449726 102.25519811253419 -0.60181501223851219 0 0.79863551827123203 I I #
edge $-1 $363 27.057325601449726 $585 36.609663589208679 $361 $586 forward 7 unknown #
point $-1 60.602435377056182 27.057325601449726 8.7541641627407696 #
point $-1 60.602435377056182 27.057325601449726 5.456683340825947 #
edge $-1 $587 1 $587 0 $366 $-1 forward 7 unknown #
vertex $-1 $367 $588 #
ellipse-curve $-1 56.55761818690722 29.786565026523718 4.9936622755367841 0.79863551827123203 0 0.60181501223851219 0.60181501223851219 0 -0.79863551827123203 1 I I #
point $-1 59.961835410373737 29.786565026523718 6.3067882335121377 #
edge $-1 $589 1 $589 0 $370 $-1 forward 7 unknown #
vertex $-1 $371 $590 #
ellipse-curve $-1 56.55761818690722 33.880424164134695 4.9936622755367841 0.79863551827123203 0 0.60181501223851219 0.60181501223851219 0 -0.79863551827123203 1 I I #
point $-1 59.961835410373737 33.880424164134695 6.3067882335121377 #
plane-surface $-1 60.602435377056182 0 0 -1 0 0 0 0 1 forward_v I I I I #
coedge $-1 $379 $377 $381 $515 reversed $261 $-1 #
edge $-1 $392 -8.7541641627407696 $517 8.7541641627407696 $391 $591 forward 7 unknown #
vertex $-1 $515 $592 #
straight-curve $-1 -60.602435377056182 -36.609663589208679 0 0 0 -1 I I #
edge $-1 $513 -36.609663589208679 $517 36.609663589208679 $511 $593 forward 7 unknown #
straight-curve $-1 0 -36.609663589208679 -8.7541641627407696 -1 0 0 I I #
vertex $-1 $384 $594 #
straight-curve $-1 0 36.609663589208679 -8.7541641627407696 1 0 0 I I #
point $-1 60.602435377056182 36.609663589208679 -8.7541641627407696 #
point $-1 60.602435377056182 -36.609663589208679 -8.7541641627407696 #
straight-curve $-1 -60.602435377056182 0 8.7541641627407696 0 -1 0 I I #
point $-1 -60.602435377056182 36.609663589208679 8.7541641627407696 #
point $-1 -60.602435377056182 -36.609663589208679 8.7541641627407696 #
straight-curve $-1 60.602435377056182 -36.609663589208679 0 0 0 -1 I I #
straight-curve $-1 60.602435377056182 36.609663589208679 0 0 0 -1 I I #
loop $-1 $-1 $407 $401 #
plane-surface $-1 0 -36.609663589208679 0 0 1 0 0 0 1 forward_v I I I I #
coedge $-1 $418 $409 $405 $530 forward $402 $-1 #
edge $-1 $534 -20.530270861123942 $413 -11.628514595045534 $404 $595 forward 7 unknown #
edge $-1 $414 11.628514595045534 $533 20.530270861123942 $528 $596 forward 7 unknown #
coedge $-1 $416 $407 $421 $543 reversed $526 $-1 #
coedge $-1 $407 $416 $418 $541 reversed $526 $-1 #
vertex $-1 $541 $597 #
vertex $-1 $408 $598 #
straight-curve $-1 -43.957126347767343 -36.609663589208679 0 0 0 1 I I #
straight-curve $-1 -22.75236374680015 -27.707907323130271 -8.7541641627407696 1 0 0 I I #
straight-curve $-1 -22.75236374680015 -27.707907323130271 8.7541641627407696 -1 0 0 I I #
point $-1 -43.957126347767343 -27.707907323130271 8.7541641627407696 #
point $-1 -43.957126347767343 -27.707907323130271 -8.7541641627407696 #
straight-curve $-1 -47.052328639433256 -36.609663589208679 0 0 0 -1 I I #
edge $-1 $533 43.957126347767343 $419 47.052328639433256 $532 $599 forward 7 unknown #
point $-1 -47.052328639433256 -36.609663589208679 -8.7541641627407696 #
edge $-1 $422 -47.052328639433256 $534 -43.957126347767343 $531 $600 forward 7 unknown #
point $-1 -47.052328639433256 -36.609663589208679 8.7541641627407696 #
edge $-1 $546 36.395401346886764 $549 44.923206135691174 $427 $601 forward 7 unknown #
vertex $-1 $441 $602 #
straight-curve $-1 -70.852162506902403 -14.943467889442385 8.7541641627407714 -1 0 0 I I #
edge $-1 $549 5.3400747131417461 $438 13.866711639459531 $437 $603 forward 7 unknown #
vertex $-1 $548 $604 #
straight-curve $-1 -60.602435377056167 -14.943467889442385 0.22635937393637562 0.74314481823134659 0 0.66913061440640931 I I #
point $-1 -51.131348860845279 -14.943467889442385 8.7541641627407696 #
point $-1 -60.602435377056182 -23.47010481576017 0.22635937393636282 #
straight-curve $-1 -60.602435377056182 0 8.7541641627407696 0 -1 0 I I #
vertex $-1 $444 $605 #
point $-1 -54.42655268916829 -21.764777430496611 3.6378410728020016 #
vertex $-1 $448 $606 #
point $-1 -54.42655268916829 -19.206786352601277 3.6378410728020016 #
vertex $-1 $452 $607 #
point $-1 -54.42655268916829 -16.648795274705943 3.6378410728020016 #
coedge $-1 $467 $466 $459 $561 forward $456 $-1 #
edge $-1 $562 36.395401346886764 $565 44.923206135691174 $560 $608 forward 7 unknown #
vertex $-1 $471 $609 #
straight-curve $-1 -70.852162506902403 17.215317566727091 8.7541641627407714 -1 0 0 I I #
edge $-1 $565 -10.739318014942992 $468 -2.2126810886252066 $467 $610 forward 7 unknown #
vertex $-1 $564 $611 #
straight-curve $-1 -60.602435377056167 17.215317566727091 0.22635937393637562 0.74314481823134659 0 0.66913061440640931 I I #
point $-1 -51.131348860845279 17.215317566727091 8.7541641627407696 #
point $-1 -60.602435377056182 8.6886806404093058 0.22635937393636282 #
straight-curve $-1 -60.602435377056182 0 8.7541641627407696 0 -1 0 I I #
vertex $-1 $474 $612 #
point $-1 -54.42655268916829 10.394008025672861 3.6378410728020016 #
vertex $-1 $478 $613 #
point $-1 -54.42655268916829 12.951999103568198 3.6378410728020016 #
vertex $-1 $482 $614 #
point $-1 -54.42655268916829 15.509990181463536 3.6378410728020016 #
coedge $-1 $577 $487 $488 $578 reversed $351 $-1 #
coedge $-1 $487 $576 $492 $582 forward $351 $-1 #
edge $-1 $585 -60.602435377056182 $579 -58.117605419214314 $576 $615 forward 7 unknown #
vertex $-1 $491 $616 #
straight-curve $-1 58.1176054192143 15.9167472976646 8.7541641627407785 0 -1 0 I I #
straight-curve $-1 14.467770463872025 36.609663589208679 66.679453251736831 -0.60181501223851219 0 0.79863551827123203 I I #
edge $-1 $585 -8.7541641627407696 $493 -5.4566833408259479 $492 $617 forward 7 unknown #
point $-1 60.602435377056182 36.609663589208679 5.4566833408259479 #
point $-1 58.117605419214314 27.057325601449726 8.7541641627407643 #
vertex $-1 $499 $618 #
straight-curve $-1 60.602435377056182 0 8.7541641627407696 0 1 0 I I #
vertex $-1 $502 $619 #
point $-1 57.159433199145738 29.786565026523718 4.195026757265552 #
vertex $-1 $506 $620 #
point $-1 57.159433199145738 33.880424164134695 4.195026757265552 #
straight-curve $-1 -60.602435377056182 36.609663589208679 0 0 0 -1 I I #
point $-1 -60.602435377056182 -36.609663589208679 -8.7541641627407696 #
straight-curve $-1 -60.602435377056182 0 -8.7541641627407696 0 1 0 I I #
point $-1 -60.602435377056182 36.609663589208679 -8.7541641627407696 #
straight-curve $-1 -43.957126347767343 -16.079392728084738 8.7541641627407696 0 1 0 I I #
straight-curve $-1 -43.957126347767343 -16.079392728084738 -8.7541641627407696 0 -1 0 I I #
point $-1 -43.957126347767343 -36.609663589208679 -8.7541641627407696 #
point $-1 -43.957126347767343 -36.609663589208679 8.7541641627407696 #
straight-curve $-1 0 -36.609663589208679 -8.7541641627407696 -1 0 0 I I #
straight-curve $-1 0 -36.609663589208679 8.7541641627407696 1 0 0 I I #
straight-curve $-1 -60.602435377056182 -14.943467889442385 45.149565509627536 0 0 -1 I I #
point $-1 -60.602435377056182 -14.943467889442385 8.7541641627407696 #
straight-curve $-1 -60.602435377056182 -9.6033931763006386 0.22635937393636157 0 -1 0 I I #
point $-1 -60.602435377056182 -14.943467889442385 0.22635937393636282 #
point $-1 -54.463559791080755 -21.764777430496611 2.9317033564831236 #
point $-1 -54.463559791080755 -19.206786352601277 2.9317033564831236 #
point $-1 -54.463559791080755 -16.648795274705943 2.9317033564831236 #
straight-curve $-1 -60.602435377056182 17.215317566727091 45.149565509627536 0 0 -1 I I #
point $-1 -60.602435377056182 17.215317566727091 8.7541641627407696 #
straight-curve $-1 -60.602435377056182 6.4759995517840991 0.22635937393636157 0 -1 0 I I #
point $-1 -60.602435377056182 17.215317566727091 0.22635937393636282 #
point $-1 -54.463559791080755 10.394008025672861 2.9317033564831236 #
point $-1 -54.463559791080755 12.951999103568198 2.9317033564831236 #
point $-1 -54.463559791080755 15.509990181463536 2.9317033564831236 #
straight-curve $-1 0 36.609663589208679 8.7541641627407696 -1 0 0 I I #
point $-1 58.117605419214314 36.609663589208672 8.7541641627407643 #
straight-curve $-1 60.602435377056182 36.609663589208679 0 0 0 -1 I I #
point $-1 60.602435377056182 36.609663589208679 8.7541641627407696 #
point $-1 55.758982668635994 29.786565026523718 4.3918472632982715 #
point $-1 55.758982668635994 33.880424164134695 4.3918472632982715 #
End-of-ACIS-data 