500 0 5 0           
7 Unknown 11 ACIS 5.0 NT 24 Thu Mar 25 16:06:16 1999 
-1 9.9999999999999995e-007 1e-010 
body $-1 $5 $-1 $6 #
body $-1 $7 $-1 $8 #
body $-1 $9 $-1 $10 #
body $-1 $11 $-1 $12 #
body $-1 $13 $-1 $14 #
lump $-1 $-1 $15 $0 #
transform $-1 1 0 0 0 1 0 0 0 1 60.554826502273627 27.073276217241673 6.2856732734241083 1 rotate no_reflect no_shear #
lump $-1 $-1 $16 $1 #
transform $-1 1 0 0 0 1 0 0 0 1 60.554826502273627 27.073276217241673 6.2856732734241083 1 rotate no_reflect no_shear #
lump $-1 $-1 $17 $2 #
transform $-1 1 0 0 0 1 0 0 0 1 60.554826502273627 27.073276217241673 6.2856732734241083 1 rotate no_reflect no_shear #
lump $-1 $-1 $18 $3 #
transform $-1 1 0 0 0 1 0 0 0 1 60.554826502273627 27.073276217241673 6.2856732734241083 1 rotate no_reflect no_shear #
lump $-1 $-1 $19 $4 #
transform $-1 1 0 0 0 1 0 0 0 1 60.554826502273627 27.073276217241673 6.2856732734241083 1 rotate no_reflect no_shear #
shell $-1 $-1 $-1 $20 $-1 $5 #
shell $-1 $-1 $-1 $21 $-1 $7 #
shell $-1 $-1 $-1 $22 $-1 $9 #
shell $-1 $-1 $-1 $23 $-1 $11 #
shell $-1 $-1 $-1 $24 $-1 $13 #
face $-1 $25 $26 $15 $-1 $27 forward single #
face $-1 $28 $29 $16 $-1 $30 forward single #
face $-1 $31 $32 $17 $-1 $33 forward single #
face $-1 $34 $35 $18 $-1 $36 reversed single #
face $-1 $37 $38 $19 $-1 $39 reversed single #
face $-1 $40 $41 $15 $-1 $42 reversed single #
loop $-1 $-1 $43 $20 #
plane-surface $-1 0 0 6.2856732734241083 0 0 1 1 0 0 forward_v I I I I #
face $-1 $44 $45 $16 $-1 $46 forward single #
loop $-1 $-1 $47 $21 #
plane-surface $-1 -57.391794068502762 0 3.2856732734241083 0 0 1 1 0 0 forward_v I I I I #
face $-1 $48 $49 $17 $-1 $50 forward single #
loop $-1 $-1 $51 $22 #
plane-surface $-1 48.796698207096881 -115.64727024485423 83.523815963030216 -1 0 0 0 -0.73135370988377701 0.68199835119979291 forward_v I I I I #
face $-1 $52 $53 $18 $-1 $54 reversed single #
loop $-1 $55 $56 $23 #
cone-surface $-1 32.966282434555851 -23.824715752144908 2.9069294067002294 0 0.73135370988377701 -0.68199835119979291 1.5 0 0 1 I I 0 1 1.5 forward I I I I #
face $-1 $57 $58 $19 $-1 $59 reversed single #
loop $-1 $60 $61 $24 #
cone-surface $-1 42.464531898080466 -23.824715752144908 2.9069294067002294 0 0.73135370988377701 -0.68199835119979291 1.5 0 0 1 I I 0 1 1.5 forward I I I I #
face $-1 $62 $63 $15 $-1 $64 reversed single #
loop $-1 $-1 $65 $25 #
plane-surface $-1 0 0 -6.2856732734241083 0 0 1 1 0 0 forward_v I I I I #
coedge $-1 $66 $67 $68 $69 forward $26 $-1 #
face $-1 $70 $71 $16 $-1 $72 forward single #
loop $-1 $-1 $73 $28 #
plane-surface $-1 -54.228761634731896 0 4.7856732734241083 -1 0 0 0 0 1 forward_v I I I I #
coedge $-1 $74 $75 $76 $77 reversed $29 $-1 #
face $-1 $78 $79 $17 $-1 $80 forward single #
loop $-1 $-1 $81 $31 #
plane-surface $-1 37.715407166318158 -27.07327621724167 0.92723229954994224 0 -0.73135370988377701 0.68199835119979291 1 0 0 forward_v I I I I #
coedge $-1 $82 $83 $84 $85 reversed $32 $-1 #
face $-1 $86 $87 $18 $-1 $88 forward single #
loop $-1 $89 $90 $34 #
cone-surface $-1 32.966282434555851 -22.526053467092716 1.6959072635135923 0 0.73135370988377701 -0.68199835119979291 0.75 0 0 1 I I -0.70710678118654746 0.70710678118654768 0.75 forward I I I I #
loop $-1 $-1 $91 $23 #
coedge $-1 $56 $56 $92 $93 reversed $35 $-1 #
face $-1 $94 $95 $19 $-1 $96 reversed single #
loop $-1 $97 $98 $37 #
cone-surface $-1 42.464531898080466 -22.526053467092716 1.6959072635135923 0 0.73135370988377701 -0.68199835119979291 0.75 0 0 1 I I -0.70710678118654746 0.70710678118654768 0.75 forward I I I I #
loop $-1 $-1 $99 $24 #
coedge $-1 $61 $61 $100 $101 reversed $38 $-1 #
face $-1 $102 $103 $15 $-1 $104 reversed single #
loop $-1 $-1 $105 $40 #
plane-surface $-1 0 -27.073276217241673 0 0 1 0 0 0 1 forward_v I I I I #
coedge $-1 $106 $107 $108 $109 forward $41 $-1 #
coedge $-1 $110 $43 $111 $112 forward $26 $-1 #
coedge $-1 $43 $110 $113 $114 forward $26 $-1 #
coedge $-1 $115 $116 $43 $69 reversed $117 $-1 #
edge $-1 $118 -27.073276217241673 $119 27.073276217241673 $68 $120 forward 7 unknown #
face $-1 $121 $122 $16 $-1 $123 reversed single #
loop $-1 $-1 $124 $44 #
plane-surface $-1 0 0 6.2856732734241083 0 0 1 1 0 0 forward_v I I I I #
coedge $-1 $125 $76 $126 $127 reversed $45 $-1 #
coedge $-1 $128 $47 $129 $130 reversed $29 $-1 #
coedge $-1 $47 $128 $131 $132 reversed $29 $-1 #
coedge $-1 $73 $133 $47 $77 forward $45 $-1 #
edge $-1 $134 -27.073276217241673 $135 27.073276217241673 $76 $136 forward 7 unknown #
face $-1 $137 $138 $17 $-1 $139 forward single #
loop $-1 $-1 $140 $48 #
plane-surface $-1 26.634116125539435 -115.64727024485423 83.523815963030216 1 0 0 0 0.73135370988377701 -0.68199835119979291 forward_v I I I I #
coedge $-1 $141 $142 $143 $144 reversed $49 $-1 #
coedge $-1 $83 $51 $142 $145 forward $32 $-1 #
coedge $-1 $51 $82 $146 $147 reversed $32 $-1 #
coedge $-1 $148 $143 $51 $85 forward $138 $-1 #
edge $-1 $149 -35.747185830100257 $150 -30.75035890518544 $84 $151 forward 7 unknown #
face $-1 $152 $153 $18 $-1 $154 forward single #
loop $-1 $-1 $155 $52 #
plane-surface $-1 48.796698207096881 -115.64727024485423 83.523815963030216 -1 0 0 0 -0.73135370988377701 0.68199835119979291 forward_v I I I I #
loop $-1 $-1 $156 $34 #
coedge $-1 $90 $90 $91 $157 forward $53 $-1 #
coedge $-1 $91 $91 $90 $157 reversed $55 $-1 #
coedge $-1 $92 $92 $56 $93 forward $153 $-1 #
edge $-1 $158 -1.6152965808179281e-015 $158 6.2831853071795987 $92 $159 forward 7 unknown #
face $-1 $160 $161 $19 $-1 $162 reversed single #
loop $-1 $163 $164 $57 #
cone-surface $-1 32.966282434555851 -23.824715752144908 2.9069294067002294 0 0.73135370988377701 -0.68199835119979291 1.5 0 0 1 I I 0 1 1.5 forward I I I I #
loop $-1 $-1 $165 $37 #
coedge $-1 $98 $98 $99 $166 forward $58 $-1 #
coedge $-1 $99 $99 $98 $166 reversed $60 $-1 #
coedge $-1 $100 $100 $61 $101 forward $167 $-1 #
edge $-1 $168 -1.6152965808179281e-015 $168 6.2831853071795987 $100 $169 forward 7 unknown #
face $-1 $170 $171 $15 $-1 $172 reversed single #
loop $-1 $-1 $173 $62 #
plane-surface $-1 -60.554826502273627 0 0 1 0 0 0 0 -1 forward_v I I I I #
coedge $-1 $174 $113 $175 $176 forward $63 $-1 #
coedge $-1 $177 $65 $174 $178 forward $41 $-1 #
coedge $-1 $65 $177 $179 $180 forward $41 $-1 #
coedge $-1 $116 $115 $65 $109 reversed $117 $-1 #
edge $-1 $181 -27.073276217241673 $182 27.073276217241673 $108 $183 forward 7 unknown #
coedge $-1 $67 $66 $184 $185 forward $26 $-1 #
coedge $-1 $186 $187 $66 $112 reversed $171 $-1 #
edge $-1 $119 -60.554826502273627 $188 60.554826502273627 $111 $189 forward 7 unknown #
coedge $-1 $105 $190 $67 $114 reversed $63 $-1 #
edge $-1 $191 -60.554826502273627 $118 60.554826502273627 $113 $192 forward 7 unknown #
coedge $-1 $108 $68 $190 $193 forward $117 $-1 #
coedge $-1 $68 $108 $186 $194 reversed $117 $-1 #
loop $-1 $-1 $115 $170 #
vertex $-1 $69 $195 #
vertex $-1 $69 $196 #
straight-curve $-1 60.554826502273627 0 6.2856732734241083 0 1 0 I I #
face $-1 $197 $198 $16 $-1 $199 reversed single #
loop $-1 $-1 $126 $70 #
plane-surface $-1 0 -27.073276217241673 0 0 1 0 0 0 1 forward_v I I I I #
coedge $-1 $200 $201 $125 $202 forward $71 $-1 #
coedge $-1 $133 $73 $124 $202 reversed $45 $-1 #
coedge $-1 $131 $203 $73 $127 forward $122 $-1 #
edge $-1 $204 -3.8928366367120542 $135 -0.89283663671205415 $126 $205 forward 7 unknown #
coedge $-1 $75 $74 $206 $207 reversed $29 $-1 #
coedge $-1 $208 $209 $74 $130 forward $210 $-1 #
edge $-1 $211 -31.858929468022247 $134 -25.532864600480515 $129 $212 forward 7 unknown #
coedge $-1 $213 $126 $75 $132 forward $122 $-1 #
edge $-1 $135 25.532864600480515 $214 31.858929468022247 $131 $215 forward 7 unknown #
coedge $-1 $76 $125 $208 $216 reversed $45 $-1 #
vertex $-1 $130 $217 #
vertex $-1 $132 $218 #
straight-curve $-1 -54.228761634731896 0 3.2856732734241083 0 -1 0 I I #
face $-1 $219 $220 $17 $-1 $221 forward single #
loop $-1 $-1 $222 $78 #
plane-surface $-1 0 0 6.2856732734241083 0 0 1 1 0 0 forward_v I I I I #
coedge $-1 $223 $224 $222 $225 reversed $79 $-1 #
coedge $-1 $226 $81 $224 $227 reversed $49 $-1 #
coedge $-1 $81 $226 $82 $145 reversed $49 $-1 #
coedge $-1 $84 $222 $81 $144 forward $138 $-1 #
edge $-1 $228 7.7764125423803563 $149 29.938994623937802 $143 $229 forward 7 unknown #
edge $-1 $149 -7.3267434094587447 $230 5.1836283459440792e-015 $82 $231 forward 7 unknown #
coedge $-1 $232 $233 $83 $147 forward $234 $-1 #
edge $-1 $150 35.476234708090999 $230 40.834675681965173 $146 $235 forward 7 unknown #
coedge $-1 $236 $84 $233 $237 forward $138 $-1 #
vertex $-1 $144 $238 #
vertex $-1 $237 $239 #
straight-curve $-1 48.796698207096881 -57.823635122427113 6.2856732734241092 0 -1 0 I I #
face $-1 $240 $241 $18 $-1 $242 forward single #
loop $-1 $243 $92 $86 #
plane-surface $-1 37.715407166318158 -27.07327621724167 0.92723229954994224 0 -0.73135370988377701 0.68199835119979291 1 0 0 forward_v I I I I #
coedge $-1 $244 $245 $246 $247 reversed $87 $-1 #
coedge $-1 $156 $156 $-1 $248 forward $89 $-1 #
edge $-1 $249 0 $249 6.2831853071796004 $90 $250 forward 7 unknown #
vertex $-1 $93 $251 #
ellipse-curve $-1 32.966282434555851 -24.574862754784267 3.6064527864870222 0 0.73135370988377701 -0.68199835119979291 1.5 0 0 1 I I #
face $-1 $252 $253 $19 $-1 $254 forward single #
loop $-1 $255 $256 $94 #
cone-surface $-1 32.966282434555851 -22.526053467092716 1.6959072635135923 0 0.73135370988377701 -0.68199835119979291 0.75 0 0 1 I I -0.70710678118654746 0.70710678118654768 0.75 forward I I I I #
loop $-1 $-1 $257 $57 #
coedge $-1 $164 $164 $258 $259 reversed $95 $-1 #
coedge $-1 $165 $165 $-1 $260 forward $97 $-1 #
edge $-1 $261 0 $261 6.2831853071796004 $98 $262 forward 7 unknown #
loop $-1 $263 $100 $252 #
vertex $-1 $101 $264 #
ellipse-curve $-1 42.464531898080466 -24.574862754784267 3.6064527864870222 0 0.73135370988377701 -0.68199835119979291 1.5 0 0 1 I I #
face $-1 $-1 $117 $15 $-1 $265 reversed single #
loop $-1 $-1 $186 $102 #
plane-surface $-1 0 27.073276217241673 0 0 -1 0 0 0 -1 forward_v I I I I #
coedge $-1 $266 $184 $187 $267 forward $103 $-1 #
coedge $-1 $190 $105 $106 $178 reversed $63 $-1 #
coedge $-1 $184 $266 $105 $176 reversed $103 $-1 #
edge $-1 $191 -6.2856732734241083 $268 6.2856732734241083 $175 $269 forward 7 unknown #
coedge $-1 $107 $106 $266 $270 forward $41 $-1 #
edge $-1 $182 -60.554826502273627 $268 60.554826502273627 $174 $271 forward 7 unknown #
coedge $-1 $187 $186 $107 $180 reversed $171 $-1 #
edge $-1 $272 -60.554826502273627 $181 60.554826502273627 $179 $273 forward 7 unknown #
vertex $-1 $109 $274 #
vertex $-1 $193 $275 #
straight-curve $-1 60.554826502273627 0 -6.2856732734241083 0 -1 0 I I #
coedge $-1 $173 $175 $110 $185 reversed $103 $-1 #
edge $-1 $188 -27.073276217241673 $191 27.073276217241673 $184 $276 forward 7 unknown #
coedge $-1 $179 $111 $116 $194 forward $171 $-1 #
coedge $-1 $111 $179 $173 $267 reversed $171 $-1 #
vertex $-1 $112 $277 #
straight-curve $-1 0 27.073276217241673 6.2856732734241083 -1 0 0 I I #
coedge $-1 $113 $174 $115 $193 reversed $63 $-1 #
vertex $-1 $185 $278 #
straight-curve $-1 0 -27.073276217241673 6.2856732734241083 1 0 0 I I #
edge $-1 $118 -6.2856732734241083 $182 6.2856732734241083 $115 $279 forward 7 unknown #
edge $-1 $119 -6.2856732734241083 $181 6.2856732734241083 $116 $280 forward 7 unknown #
point $-1 60.554826502273627 -27.073276217241673 6.2856732734241083 #
point $-1 60.554826502273627 27.073276217241673 6.2856732734241083 #
face $-1 $281 $282 $16 $-1 $283 reversed single #
loop $-1 $-1 $284 $121 #
plane-surface $-1 0 0 -6.2856732734241083 0 0 1 1 0 0 forward_v I I I I #
coedge $-1 $285 $124 $203 $286 forward $71 $-1 #
coedge $-1 $124 $285 $287 $288 forward $71 $-1 #
edge $-1 $289 -27.073276217241673 $204 27.073276217241673 $124 $290 forward 7 unknown #
coedge $-1 $126 $291 $200 $286 reversed $122 $-1 #
vertex $-1 $286 $292 #
straight-curve $-1 -54.228761634731896 -27.073276217241673 2.3928366367120542 0 0 -1 I I #
coedge $-1 $293 $294 $128 $207 forward $282 $-1 #
edge $-1 $214 -27.073276217241673 $211 27.073276217241673 $206 $295 forward 7 unknown #
coedge $-1 $287 $129 $133 $216 forward $210 $-1 #
coedge $-1 $129 $296 $293 $297 reversed $210 $-1 #
loop $-1 $-1 $208 $281 #
vertex $-1 $297 $298 #
straight-curve $-1 -28.695897034251381 27.073276217241673 3.2856732734241083 1 0 0 I I #
coedge $-1 $299 $131 $294 $300 forward $122 $-1 #
vertex $-1 $300 $301 #
straight-curve $-1 -28.695897034251381 -27.073276217241673 3.2856732734241083 -1 0 0 I I #
edge $-1 $134 0.89283663671205415 $289 3.8928366367120542 $208 $302 forward 7 unknown #
point $-1 -54.228761634731896 27.073276217241673 3.2856732734241083 #
point $-1 -54.228761634731896 -27.073276217241673 3.2856732734241083 #
face $-1 $303 $304 $17 $-1 $305 forward single #
loop $-1 $-1 $306 $137 #
plane-surface $-1 -57.391794068502762 0 3.2856732734241083 0 0 1 1 0 0 forward_v I I I I #
coedge $-1 $143 $307 $140 $225 forward $138 $-1 #
coedge $-1 $224 $140 $308 $309 reversed $79 $-1 #
coedge $-1 $140 $223 $141 $227 forward $79 $-1 #
edge $-1 $310 30.75035890518544 $228 35.747185830100257 $222 $311 forward 7 unknown #
coedge $-1 $142 $141 $232 $312 reversed $49 $-1 #
edge $-1 $313 -5.1836283459440792e-015 $228 7.3267434094587447 $224 $314 forward 7 unknown #
vertex $-1 $144 $315 #
straight-curve $-1 18.857703583159079 -22.076449292326856 6.2856732734241083 1 0 0 I I #
vertex $-1 $312 $316 #
straight-curve $-1 48.796698207096881 -27.07327621724167 0.92723229954994224 0 -0.68199835119979291 -0.73135370988377701 I I #
coedge $-1 $308 $146 $226 $312 forward $234 $-1 #
coedge $-1 $146 $317 $148 $237 reversed $234 $-1 #
loop $-1 $-1 $308 $303 #
straight-curve $-1 48.796698207096881 -27.07327621724167 41.761907981515108 0 0 -1 I I #
coedge $-1 $318 $148 $319 $320 forward $138 $-1 #
edge $-1 $150 48.796698207096881 $321 60.554826502273627 $233 $322 forward 7 unknown #
point $-1 48.796698207096881 -22.076449292326856 6.2856732734241083 #
point $-1 48.796698207096881 -27.073276217241673 6.2856732734241083 #
face $-1 $323 $324 $18 $-1 $325 forward single #
loop $-1 $-1 $326 $152 #
plane-surface $-1 26.634116125539435 -115.64727024485423 83.523815963030216 1 0 0 0 0.73135370988377701 -0.68199835119979291 forward_v I I I I #
loop $-1 $-1 $327 $86 #
coedge $-1 $245 $155 $328 $329 forward $87 $-1 #
coedge $-1 $155 $244 $330 $331 reversed $87 $-1 #
coedge $-1 $332 $333 $155 $247 forward $324 $-1 #
edge $-1 $334 -35.747185830100257 $335 -30.75035890518544 $246 $336 forward 7 unknown #
edge $-1 $337 1 $337 0 $156 $-1 forward 7 unknown #
vertex $-1 $157 $338 #
ellipse-curve $-1 32.966282434555851 -23.074568749505548 2.207406026913437 0 -0.73135370988377701 0.68199835119979291 1.5 0 0 1 I I #
point $-1 34.466282434555851 -24.574862754784263 3.6064527864870222 #
face $-1 $339 $167 $19 $-1 $340 forward single #
loop $-1 $-1 $341 $160 #
plane-surface $-1 48.796698207096881 -115.64727024485423 83.523815963030216 -1 0 0 0 -0.73135370988377701 0.68199835119979291 forward_v I I I I #
loop $-1 $-1 $342 $94 #
coedge $-1 $256 $256 $257 $343 forward $161 $-1 #
coedge $-1 $257 $257 $256 $343 reversed $163 $-1 #
coedge $-1 $258 $258 $164 $259 forward $263 $-1 #
edge $-1 $344 -1.6152965808179281e-015 $344 6.2831853071795987 $258 $345 forward 7 unknown #
edge $-1 $346 1 $346 0 $165 $-1 forward 7 unknown #
vertex $-1 $166 $347 #
ellipse-curve $-1 42.464531898080466 -23.074568749505548 2.207406026913437 0 -0.73135370988377701 0.68199835119979291 1.5 0 0 1 I I #
loop $-1 $348 $258 $252 #
point $-1 43.964531898080466 -24.574862754784263 3.6064527864870222 #
plane-surface $-1 60.554826502273627 0 0 -1 0 0 0 0 1 forward_v I I I I #
coedge $-1 $175 $173 $177 $270 reversed $103 $-1 #
edge $-1 $188 -6.2856732734241083 $272 6.2856732734241083 $187 $349 forward 7 unknown #
vertex $-1 $270 $350 #
straight-curve $-1 -60.554826502273627 -27.073276217241673 0 0 0 -1 I I #
edge $-1 $268 -27.073276217241673 $272 27.073276217241673 $266 $351 forward 7 unknown #
straight-curve $-1 0 -27.073276217241673 -6.2856732734241083 -1 0 0 I I #
vertex $-1 $180 $352 #
straight-curve $-1 0 27.073276217241673 -6.2856732734241083 1 0 0 I I #
point $-1 60.554826502273627 27.073276217241673 -6.2856732734241083 #
point $-1 60.554826502273627 -27.073276217241673 -6.2856732734241083 #
straight-curve $-1 -60.554826502273627 0 6.2856732734241083 0 -1 0 I I #
point $-1 -60.554826502273627 27.073276217241673 6.2856732734241083 #
point $-1 -60.554826502273627 -27.073276217241673 6.2856732734241083 #
straight-curve $-1 60.554826502273627 -27.073276217241673 0 0 0 -1 I I #
straight-curve $-1 60.554826502273627 27.073276217241673 0 0 0 -1 I I #
face $-1 $353 $210 $16 $-1 $354 reversed single #
loop $-1 $-1 $206 $197 #
plane-surface $-1 -60.554826502273627 0 0 1 0 0 0 0 -1 forward_v I I I I #
coedge $-1 $355 $356 $357 $358 forward $198 $-1 #
coedge $-1 $201 $200 $359 $360 forward $71 $-1 #
edge $-1 $204 -54.228761634731896 $361 60.554826502273627 $203 $362 forward 7 unknown #
coedge $-1 $363 $208 $201 $288 reversed $210 $-1 #
edge $-1 $364 -60.554826502273627 $289 54.228761634731896 $287 $365 forward 7 unknown #
vertex $-1 $202 $366 #
straight-curve $-1 -54.228761634731896 0 6.2856732734241083 0 -1 0 I I #
coedge $-1 $203 $299 $367 $368 reversed $122 $-1 #
point $-1 -54.228761634731896 -27.073276217241673 6.2856732734241083 #
coedge $-1 $369 $206 $209 $297 forward $282 $-1 #
coedge $-1 $206 $369 $213 $300 reversed $282 $-1 #
straight-curve $-1 -60.554826502273627 0 3.2856732734241083 0 1 0 I I #
coedge $-1 $209 $363 $356 $370 reversed $210 $-1 #
edge $-1 $211 -3.2856732734241083 $371 6.2856732734241083 $209 $372 forward 7 unknown #
point $-1 -60.554826502273627 27.073276217241673 3.2856732734241083 #
coedge $-1 $291 $213 $355 $373 reversed $122 $-1 #
edge $-1 $214 -3.2856732734241083 $374 6.2856732734241083 $294 $375 forward 7 unknown #
point $-1 -60.554826502273627 -27.073276217241673 3.2856732734241083 #
straight-curve $-1 -54.228761634731896 27.073276217241673 2.3928366367120542 0 0 1 I I #
face $-1 $376 $234 $17 $-1 $377 reversed single #
loop $-1 $-1 $378 $219 #
plane-surface $-1 -54.228761634731896 0 4.7856732734241083 -1 0 0 0 0 1 forward_v I I I I #
coedge $-1 $379 $380 $381 $382 reversed $220 $-1 #
coedge $-1 $222 $383 $384 $385 forward $138 $-1 #
coedge $-1 $384 $232 $223 $309 forward $234 $-1 #
edge $-1 $313 -40.834675681965173 $310 -35.476234708090999 $308 $386 forward 7 unknown #
vertex $-1 $309 $387 #
straight-curve $-1 26.634116125539435 -57.823635122427113 6.2856732734241092 0 1 0 I I #
edge $-1 $230 -29.938994623937802 $313 -7.7764125423803563 $232 $388 forward 7 unknown #
vertex $-1 $312 $389 #
straight-curve $-1 26.634116125539435 -27.07327621724167 0.92723229954994224 0 0.68199835119979291 0.73135370988377701 I I #
point $-1 26.634116125539435 -22.076449292326856 6.2856732734241083 #
point $-1 48.796698207096881 -27.073276217241673 0.92723229954993847 #
coedge $-1 $233 $390 $391 $392 reversed $234 $-1 #
coedge $-1 $383 $236 $393 $394 forward $138 $-1 #
coedge $-1 $391 $395 $236 $320 reversed $396 $-1 #
edge $-1 $321 -27.073276217241673 $397 27.073276217241673 $319 $398 forward 7 unknown #
vertex $-1 $320 $399 #
straight-curve $-1 0 -27.073276217241673 6.2856732734241083 1 0 0 I I #
face $-1 $400 $401 $18 $-1 $402 forward single #
loop $-1 $-1 $403 $240 #
plane-surface $-1 0 0 6.2856732734241083 0 0 1 1 0 0 forward_v I I I I #
coedge $-1 $404 $405 $403 $406 reversed $241 $-1 #
coedge $-1 $407 $328 $333 $408 reversed $243 $-1 #
coedge $-1 $327 $409 $244 $329 reversed $243 $-1 #
edge $-1 $334 -7.3267434094587447 $410 5.1836283459440792e-015 $244 $411 forward 7 unknown #
coedge $-1 $412 $413 $245 $331 forward $414 $-1 #
edge $-1 $335 35.476234708090999 $410 40.834675681965173 $330 $415 forward 7 unknown #
coedge $-1 $416 $246 $413 $417 forward $324 $-1 #
coedge $-1 $246 $403 $327 $408 forward $324 $-1 #
vertex $-1 $408 $418 #
vertex $-1 $417 $419 #
straight-curve $-1 48.796698207096881 -57.823635122427113 6.2856732734241092 0 -1 0 I I #
vertex $-1 $248 $420 #
point $-1 34.466282434555851 -23.074568749505548 2.207406026913437 #
face $-1 $421 $422 $19 $-1 $423 forward single #
plane-surface $-1 37.715407166318158 -27.07327621724167 0.92723229954994224 0 -0.73135370988377701 0.68199835119979291 1 0 0 forward_v I I I I #
coedge $-1 $424 $425 $426 $427 reversed $253 $-1 #
coedge $-1 $342 $342 $-1 $428 forward $255 $-1 #
edge $-1 $429 0 $429 6.2831853071796004 $256 $430 forward 7 unknown #
vertex $-1 $259 $431 #
ellipse-curve $-1 32.966282434555851 -24.574862754784267 3.6064527864870222 0 0.73135370988377701 -0.68199835119979291 1.5 0 0 1 I I #
vertex $-1 $260 $432 #
point $-1 43.964531898080466 -23.074568749505548 2.207406026913437 #
loop $-1 $-1 $433 $252 #
straight-curve $-1 -60.554826502273627 27.073276217241673 0 0 0 -1 I I #
point $-1 -60.554826502273627 -27.073276217241673 -6.2856732734241083 #
straight-curve $-1 -60.554826502273627 0 -6.2856732734241083 0 1 0 I I #
point $-1 -60.554826502273627 27.073276217241673 -6.2856732734241083 #
face $-1 $-1 $434 $16 $-1 $435 reversed single #
plane-surface $-1 0 27.073276217241673 0 0 -1 0 0 0 -1 forward_v I I I I #
coedge $-1 $436 $284 $299 $373 forward $198 $-1 #
coedge $-1 $284 $436 $296 $370 forward $198 $-1 #
coedge $-1 $437 $367 $284 $358 reversed $434 $-1 #
edge $-1 $438 -27.073276217241673 $439 27.073276217241673 $357 $440 forward 7 unknown #
coedge $-1 $367 $437 $285 $360 reversed $434 $-1 #
edge $-1 $361 -27.073276217241673 $364 27.073276217241673 $359 $441 forward 7 unknown #
vertex $-1 $360 $442 #
straight-curve $-1 0 -27.073276217241673 6.2856732734241083 1 0 0 I I #
coedge $-1 $296 $287 $437 $443 forward $210 $-1 #
vertex $-1 $360 $444 #
straight-curve $-1 0 27.073276217241673 6.2856732734241083 -1 0 0 I I #
point $-1 -54.228761634731896 27.073276217241673 6.2856732734241083 #
coedge $-1 $357 $359 $291 $368 forward $434 $-1 #
edge $-1 $361 -6.2856732734241083 $439 6.2856732734241083 $367 $445 forward 7 unknown #
coedge $-1 $294 $293 $436 $446 reversed $282 $-1 #
edge $-1 $371 -60.554826502273627 $438 60.554826502273627 $296 $447 forward 7 unknown #
vertex $-1 $370 $448 #
straight-curve $-1 -60.554826502273627 27.073276217241673 0 0 0 -1 I I #
edge $-1 $439 -60.554826502273627 $374 60.554826502273627 $299 $449 forward 7 unknown #
vertex $-1 $446 $450 #
straight-curve $-1 -60.554826502273627 -27.073276217241673 0 0 0 -1 I I #
face $-1 $451 $452 $17 $-1 $453 reversed single #
plane-surface $-1 0 -27.073276217241673 0 0 1 0 0 0 1 forward_v I I I I #
coedge $-1 $454 $381 $455 $456 reversed $304 $-1 #
coedge $-1 $457 $306 $458 $459 reversed $220 $-1 #
coedge $-1 $306 $457 $460 $461 reversed $220 $-1 #
coedge $-1 $378 $462 $306 $382 forward $304 $-1 #
edge $-1 $463 -27.073276217241673 $464 27.073276217241673 $381 $465 forward 7 unknown #
coedge $-1 $307 $318 $454 $466 forward $138 $-1 #
coedge $-1 $455 $308 $307 $385 reversed $234 $-1 #
edge $-1 $467 -54.228761634731896 $310 26.634116125539435 $384 $322 forward 7 unknown #
straight-curve $-1 26.634116125539435 -27.07327621724167 41.761907981515108 0 0 1 I I #
point $-1 26.634116125539435 -27.073276217241673 6.2856732734241083 #
straight-curve $-1 18.857703583159079 -27.073276217241673 0.9272322995499378 -1 0 0 I I #
point $-1 26.634116125539435 -27.073276217241673 0.92723229954993847 #
coedge $-1 $317 $468 $469 $470 reversed $234 $-1 #
coedge $-1 $471 $319 $317 $392 forward $396 $-1 #
edge $-1 $321 -6.2856732734241083 $472 6.2856732734241083 $391 $473 forward 7 unknown #
coedge $-1 $474 $475 $318 $394 reversed $476 $-1 #
edge $-1 $397 -60.554826502273627 $477 54.228761634731896 $393 $478 forward 7 unknown #
coedge $-1 $319 $471 $474 $479 reversed $396 $-1 #
loop $-1 $-1 $391 $480 #
vertex $-1 $320 $481 #
straight-curve $-1 60.554826502273627 0 6.2856732734241083 0 1 0 I I #
point $-1 60.554826502273627 -27.073276217241673 6.2856732734241083 #
face $-1 $482 $483 $18 $-1 $484 forward single #
loop $-1 $-1 $485 $323 #
plane-surface $-1 -57.391794068502762 0 3.2856732734241083 0 0 1 1 0 0 forward_v I I I I #
coedge $-1 $333 $486 $326 $406 forward $324 $-1 #
coedge $-1 $405 $326 $487 $488 reversed $241 $-1 #
coedge $-1 $326 $404 $407 $489 forward $241 $-1 #
edge $-1 $490 30.75035890518544 $491 35.747185830100257 $403 $492 forward 7 unknown #
coedge $-1 $409 $327 $405 $489 reversed $243 $-1 #
edge $-1 $491 7.7764125423803563 $334 29.938994623937802 $333 $493 forward 7 unknown #
coedge $-1 $328 $407 $412 $494 reversed $243 $-1 #
vertex $-1 $494 $495 #
straight-curve $-1 48.796698207096881 -27.07327621724167 0.92723229954994224 0 -0.68199835119979291 -0.73135370988377701 I I #
coedge $-1 $487 $330 $409 $494 forward $414 $-1 #
coedge $-1 $330 $496 $332 $417 reversed $414 $-1 #
loop $-1 $-1 $487 $482 #
straight-curve $-1 48.796698207096881 -27.07327621724167 41.761907981515108 0 0 -1 I I #
coedge $-1 $497 $332 $498 $499 forward $324 $-1 #
edge $-1 $335 48.796698207096881 $500 60.554826502273627 $413 $501 forward 7 unknown #
point $-1 48.796698207096881 -22.076449292326856 6.2856732734241083 #
point $-1 48.796698207096881 -27.073276217241673 6.2856732734241083 #
point $-1 32.966282434555851 -21.977538184679883 1.1844085001137477 #
face $-1 $502 $503 $19 $-1 $504 forward single #
loop $-1 $-1 $505 $339 #
plane-surface $-1 26.634116125539435 -115.64727024485423 83.523815963030216 1 0 0 0 0.73135370988377701 -0.68199835119979291 forward_v I I I I #
coedge $-1 $425 $341 $506 $507 forward $253 $-1 #
coedge $-1 $341 $424 $508 $509 reversed $253 $-1 #
coedge $-1 $510 $511 $341 $427 forward $503 $-1 #
edge $-1 $512 -35.747185830100257 $513 -30.75035890518544 $426 $514 forward 7 unknown #
edge $-1 $515 1 $515 0 $342 $-1 forward 7 unknown #
vertex $-1 $343 $516 #
ellipse-curve $-1 32.966282434555851 -23.074568749505548 2.207406026913437 0 -0.73135370988377701 0.68199835119979291 1.5 0 0 1 I I #
point $-1 34.466282434555851 -24.574862754784263 3.6064527864870222 #
point $-1 42.464531898080466 -21.977538184679883 1.1844085001137477 #
coedge $-1 $517 $506 $511 $518 reversed $348 $-1 #
loop $-1 $-1 $367 $353 #
plane-surface $-1 60.554826502273627 0 0 -1 0 0 0 0 1 forward_v I I I I #
coedge $-1 $356 $355 $369 $446 forward $198 $-1 #
coedge $-1 $359 $357 $363 $443 reversed $434 $-1 #
vertex $-1 $358 $519 #
vertex $-1 $368 $520 #
straight-curve $-1 60.554826502273627 0 -6.2856732734241083 0 -1 0 I I #
straight-curve $-1 60.554826502273627 0 6.2856732734241083 0 1 0 I I #
point $-1 60.554826502273627 -27.073276217241673 6.2856732734241083 #
edge $-1 $364 -6.2856732734241083 $438 6.2856732734241083 $437 $521 forward 7 unknown #
point $-1 60.554826502273627 27.073276217241673 6.2856732734241083 #
straight-curve $-1 60.554826502273627 -27.073276217241673 0 0 0 -1 I I #
edge $-1 $374 -27.073276217241673 $371 27.073276217241673 $369 $522 forward 7 unknown #
straight-curve $-1 0 27.073276217241673 -6.2856732734241083 1 0 0 I I #
point $-1 -60.554826502273627 27.073276217241673 -6.2856732734241083 #
straight-curve $-1 0 -27.073276217241673 -6.2856732734241083 -1 0 0 I I #
point $-1 -60.554826502273627 -27.073276217241673 -6.2856732734241083 #
face $-1 $523 $524 $17 $-1 $525 reversed single #
loop $-1 $-1 $526 $376 #
plane-surface $-1 0 0 -6.2856732734241083 0 0 1 1 0 0 forward_v I I I I #
coedge $-1 $462 $378 $383 $466 reversed $304 $-1 #
coedge $-1 $460 $384 $378 $456 forward $234 $-1 #
edge $-1 $467 -3.8928366367120542 $464 -0.89283663671205415 $455 $527 forward 7 unknown #
coedge $-1 $380 $379 $528 $529 reversed $220 $-1 #
coedge $-1 $475 $530 $379 $459 forward $476 $-1 #
edge $-1 $531 -31.858929468022247 $463 -25.532864600480515 $458 $532 forward 7 unknown #
coedge $-1 $468 $455 $380 $461 forward $234 $-1 #
edge $-1 $464 25.532864600480515 $533 31.858929468022247 $460 $534 forward 7 unknown #
coedge $-1 $381 $454 $475 $535 reversed $304 $-1 #
vertex $-1 $459 $536 #
vertex $-1 $461 $537 #
straight-curve $-1 -54.228761634731896 0 3.2856732734241083 0 -1 0 I I #
edge $-1 $477 -27.073276217241673 $467 27.073276217241673 $383 $538 forward 7 unknown #
vertex $-1 $385 $539 #
coedge $-1 $390 $460 $540 $541 forward $234 $-1 #
coedge $-1 $542 $526 $390 $470 forward $452 $-1 #
edge $-1 $472 -60.554826502273627 $543 60.554826502273627 $390 $544 forward 7 unknown #
coedge $-1 $395 $391 $526 $545 reversed $396 $-1 #
vertex $-1 $392 $546 #
straight-curve $-1 60.554826502273627 -27.073276217241673 0 0 0 -1 I I #
coedge $-1 $547 $393 $395 $479 forward $476 $-1 #
coedge $-1 $393 $458 $462 $535 forward $476 $-1 #
loop $-1 $-1 $475 $523 #
vertex $-1 $466 $548 #
straight-curve $-1 0 27.073276217241673 6.2856732734241083 -1 0 0 I I #
edge $-1 $397 -6.2856732734241083 $549 6.2856732734241083 $395 $550 forward 7 unknown #
face $-1 $-1 $396 $17 $-1 $551 reversed single #
point $-1 60.554826502273627 27.073276217241673 6.2856732734241083 #
face $-1 $552 $414 $18 $-1 $553 reversed single #
loop $-1 $-1 $554 $400 #
plane-surface $-1 -54.228761634731896 0 4.7856732734241083 -1 0 0 0 0 1 forward_v I I I I #
coedge $-1 $555 $556 $557 $558 reversed $401 $-1 #
coedge $-1 $403 $559 $560 $561 forward $324 $-1 #
coedge $-1 $560 $412 $404 $488 forward $414 $-1 #
edge $-1 $562 -40.834675681965173 $490 -35.476234708090999 $487 $563 forward 7 unknown #
edge $-1 $562 -5.1836283459440792e-015 $491 7.3267434094587447 $405 $564 forward 7 unknown #
vertex $-1 $488 $565 #
vertex $-1 $408 $566 #
straight-curve $-1 26.634116125539435 -57.823635122427113 6.2856732734241092 0 1 0 I I #
straight-curve $-1 18.857703583159079 -22.076449292326856 6.2856732734241083 1 0 0 I I #
edge $-1 $410 -29.938994623937802 $562 -7.7764125423803563 $412 $567 forward 7 unknown #
point $-1 48.796698207096881 -27.073276217241673 0.92723229954993847 #
coedge $-1 $413 $568 $569 $570 reversed $414 $-1 #
coedge $-1 $559 $416 $571 $572 forward $324 $-1 #
coedge $-1 $569 $573 $416 $499 reversed $574 $-1 #
edge $-1 $500 -27.073276217241673 $575 27.073276217241673 $498 $576 forward 7 unknown #
vertex $-1 $499 $577 #
straight-curve $-1 0 -27.073276217241673 6.2856732734241083 1 0 0 I I #
face $-1 $578 $579 $19 $-1 $580 forward single #
loop $-1 $-1 $581 $421 #
plane-surface $-1 0 0 6.2856732734241083 0 0 1 1 0 0 forward_v I I I I #
coedge $-1 $582 $583 $581 $584 reversed $422 $-1 #
coedge $-1 $433 $585 $424 $507 reversed $348 $-1 #
edge $-1 $512 -7.3267434094587447 $586 5.1836283459440792e-015 $424 $587 forward 7 unknown #
coedge $-1 $588 $589 $425 $509 forward $590 $-1 #
edge $-1 $513 35.476234708090999 $586 40.834675681965173 $508 $591 forward 7 unknown #
coedge $-1 $592 $426 $589 $593 forward $503 $-1 #
coedge $-1 $426 $581 $433 $518 forward $503 $-1 #
vertex $-1 $518 $594 #
vertex $-1 $593 $595 #
straight-curve $-1 48.796698207096881 -57.823635122427113 6.2856732734241092 0 -1 0 I I #
vertex $-1 $428 $596 #
point $-1 34.466282434555851 -23.074568749505548 2.207406026913437 #
coedge $-1 $585 $433 $583 $597 reversed $348 $-1 #
edge $-1 $598 7.7764125423803563 $512 29.938994623937802 $511 $599 forward 7 unknown #
point $-1 60.554826502273627 27.073276217241673 -6.2856732734241083 #
point $-1 60.554826502273627 -27.073276217241673 -6.2856732734241083 #
straight-curve $-1 60.554826502273627 27.073276217241673 0 0 0 -1 I I #
straight-curve $-1 -60.554826502273627 0 -6.2856732734241083 0 1 0 I I #
face $-1 $480 $476 $17 $-1 $600 reversed single #
loop $-1 $-1 $528 $451 #
plane-surface $-1 -60.554826502273627 0 0 1 0 0 0 0 -1 forward_v I I I I #
coedge $-1 $469 $601 $471 $545 forward $452 $-1 #
straight-curve $-1 -54.228761634731896 -27.073276217241673 2.3928366367120542 0 0 -1 I I #
coedge $-1 $602 $540 $457 $529 forward $524 $-1 #
edge $-1 $533 -27.073276217241673 $531 27.073276217241673 $528 $603 forward 7 unknown #
coedge $-1 $458 $547 $602 $604 reversed $476 $-1 #
vertex $-1 $604 $605 #
straight-curve $-1 -28.695897034251381 27.073276217241673 3.2856732734241083 1 0 0 I I #
vertex $-1 $541 $606 #
straight-curve $-1 -28.695897034251381 -27.073276217241673 3.2856732734241083 -1 0 0 I I #
edge $-1 $463 0.89283663671205415 $477 3.8928366367120542 $475 $607 forward 7 unknown #
point $-1 -54.228761634731896 27.073276217241673 3.2856732734241083 #
point $-1 -54.228761634731896 -27.073276217241673 3.2856732734241083 #
straight-curve $-1 -54.228761634731896 0 6.2856732734241083 0 -1 0 I I #
point $-1 -54.228761634731896 -27.073276217241673 6.2856732734241083 #
coedge $-1 $528 $608 $468 $541 reversed $524 $-1 #
edge $-1 $533 -3.2856732734241083 $543 6.2856732734241083 $540 $609 forward 7 unknown #
coedge $-1 $601 $469 $608 $610 forward $452 $-1 #
vertex $-1 $610 $611 #
straight-curve $-1 0 -27.073276217241673 -6.2856732734241083 -1 0 0 I I #
edge $-1 $549 -27.073276217241673 $472 27.073276217241673 $471 $612 forward 7 unknown #
point $-1 60.554826502273627 -27.073276217241673 -6.2856732734241083 #
coedge $-1 $530 $474 $601 $613 reversed $476 $-1 #
point $-1 -54.228761634731896 27.073276217241673 6.2856732734241083 #
vertex $-1 $545 $614 #
straight-curve $-1 60.554826502273627 27.073276217241673 0 0 0 -1 I I #
plane-surface $-1 60.554826502273627 0 0 -1 0 0 0 0 1 forward_v I I I I #
face $-1 $615 $616 $18 $-1 $617 reversed single #
plane-surface $-1 0 -27.073276217241673 0 0 1 0 0 0 1 forward_v I I I I #
coedge $-1 $618 $557 $619 $620 reversed $483 $-1 #
coedge $-1 $621 $485 $622 $623 reversed $401 $-1 #
coedge $-1 $485 $621 $624 $625 reversed $401 $-1 #
coedge $-1 $554 $626 $485 $558 forward $483 $-1 #
edge $-1 $627 -27.073276217241673 $628 27.073276217241673 $557 $629 forward 7 unknown #
coedge $-1 $486 $497 $618 $630 forward $324 $-1 #
coedge $-1 $619 $487 $486 $561 reversed $414 $-1 #
edge $-1 $631 -54.228761634731896 $490 26.634116125539435 $560 $501 forward 7 unknown #
vertex $-1 $494 $632 #
straight-curve $-1 26.634116125539435 -27.07327621724167 41.761907981515108 0 0 1 I I #
straight-curve $-1 26.634116125539435 -27.07327621724167 0.92723229954994224 0 0.68199835119979291 0.73135370988377701 I I #
point $-1 26.634116125539435 -27.073276217241673 6.2856732734241083 #
point $-1 26.634116125539435 -22.076449292326856 6.2856732734241083 #
straight-curve $-1 18.857703583159079 -27.073276217241673 0.9272322995499378 -1 0 0 I I #
coedge $-1 $496 $633 $634 $635 reversed $414 $-1 #
coedge $-1 $636 $498 $496 $570 forward $574 $-1 #
edge $-1 $500 -6.2856732734241083 $637 6.2856732734241083 $569 $638 forward 7 unknown #
coedge $-1 $639 $640 $497 $572 reversed $641 $-1 #
edge $-1 $575 -60.554826502273627 $642 54.228761634731896 $571 $643 forward 7 unknown #
coedge $-1 $498 $636 $639 $644 reversed $574 $-1 #
loop $-1 $-1 $569 $645 #
vertex $-1 $499 $646 #
straight-curve $-1 60.554826502273627 0 6.2856732734241083 0 1 0 I I #
point $-1 60.554826502273627 -27.073276217241673 6.2856732734241083 #
face $-1 $647 $648 $19 $-1 $649 forward single #
loop $-1 $-1 $650 $502 #
plane-surface $-1 -57.391794068502762 0 3.2856732734241083 0 0 1 1 0 0 forward_v I I I I #
coedge $-1 $511 $651 $505 $584 forward $503 $-1 #
coedge $-1 $583 $505 $652 $653 reversed $422 $-1 #
coedge $-1 $505 $582 $517 $597 forward $422 $-1 #
edge $-1 $654 30.75035890518544 $598 35.747185830100257 $581 $655 forward 7 unknown #
coedge $-1 $506 $517 $588 $656 reversed $348 $-1 #
vertex $-1 $656 $657 #
straight-curve $-1 48.796698207096881 -27.07327621724167 0.92723229954994224 0 -0.68199835119979291 -0.73135370988377701 I I #
coedge $-1 $652 $508 $585 $656 forward $590 $-1 #
coedge $-1 $508 $658 $510 $593 reversed $590 $-1 #
loop $-1 $-1 $652 $647 #
straight-curve $-1 48.796698207096881 -27.07327621724167 41.761907981515108 0 0 -1 I I #
coedge $-1 $659 $510 $660 $661 forward $503 $-1 #
edge $-1 $513 48.796698207096881 $662 60.554826502273627 $589 $663 forward 7 unknown #
point $-1 48.796698207096881 -22.076449292326856 6.2856732734241083 #
point $-1 48.796698207096881 -27.073276217241673 6.2856732734241083 #
point $-1 32.966282434555851 -21.977538184679883 1.1844085001137477 #
edge $-1 $664 -5.1836283459440792e-015 $598 7.3267434094587447 $583 $665 forward 7 unknown #
vertex $-1 $518 $666 #
straight-curve $-1 18.857703583159079 -22.076449292326856 6.2856732734241083 1 0 0 I I #
plane-surface $-1 0 27.073276217241673 0 0 -1 0 0 0 -1 forward_v I I I I #
coedge $-1 $526 $542 $547 $613 forward $452 $-1 #
coedge $-1 $608 $528 $530 $604 forward $524 $-1 #
straight-curve $-1 -60.554826502273627 0 3.2856732734241083 0 1 0 I I #
edge $-1 $531 -3.2856732734241083 $667 6.2856732734241083 $530 $668 forward 7 unknown #
point $-1 -60.554826502273627 27.073276217241673 3.2856732734241083 #
point $-1 -60.554826502273627 -27.073276217241673 3.2856732734241083 #
straight-curve $-1 -54.228761634731896 27.073276217241673 2.3928366367120542 0 0 1 I I #
coedge $-1 $540 $602 $542 $610 reversed $524 $-1 #
straight-curve $-1 -60.554826502273627 -27.073276217241673 0 0 0 -1 I I #
edge $-1 $543 -27.073276217241673 $667 27.073276217241673 $608 $669 forward 7 unknown #
point $-1 -60.554826502273627 -27.073276217241673 -6.2856732734241083 #
straight-curve $-1 60.554826502273627 0 -6.2856732734241083 0 -1 0 I I #
edge $-1 $667 -60.554826502273627 $549 60.554826502273627 $547 $670 forward 7 unknown #
point $-1 60.554826502273627 27.073276217241673 -6.2856732734241083 #
face $-1 $671 $672 $18 $-1 $673 reversed single #
loop $-1 $-1 $674 $552 #
plane-surface $-1 0 0 -6.2856732734241083 0 0 1 1 0 0 forward_v I I I I #
coedge $-1 $626 $554 $559 $630 reversed $483 $-1 #
coedge $-1 $624 $560 $554 $620 forward $414 $-1 #
edge $-1 $631 -3.8928366367120542 $628 -0.89283663671205415 $619 $675 forward 7 unknown #
coedge $-1 $556 $555 $676 $677 reversed $401 $-1 #
coedge $-1 $640 $678 $555 $623 forward $641 $-1 #
edge $-1 $679 -31.858929468022247 $627 -25.532864600480515 $622 $680 forward 7 unknown #
coedge $-1 $633 $619 $556 $625 forward $414 $-1 #
edge $-1 $628 25.532864600480515 $681 31.858929468022247 $624 $682 forward 7 unknown #
coedge $-1 $557 $618 $640 $683 reversed $483 $-1 #
vertex $-1 $623 $684 #
vertex $-1 $625 $685 #
straight-curve $-1 -54.228761634731896 0 3.2856732734241083 0 -1 0 I I #
edge $-1 $642 -27.073276217241673 $631 27.073276217241673 $559 $686 forward 7 unknown #
vertex $-1 $561 $687 #
point $-1 26.634116125539435 -27.073276217241673 0.92723229954993847 #
coedge $-1 $568 $624 $688 $689 forward $414 $-1 #
coedge $-1 $690 $674 $568 $635 forward $616 $-1 #
edge $-1 $637 -60.554826502273627 $691 60.554826502273627 $568 $692 forward 7 unknown #
coedge $-1 $573 $569 $674 $693 reversed $574 $-1 #
vertex $-1 $570 $694 #
straight-curve $-1 60.554826502273627 -27.073276217241673 0 0 0 -1 I I #
coedge $-1 $695 $571 $573 $644 forward $641 $-1 #
coedge $-1 $571 $622 $626 $683 forward $641 $-1 #
loop $-1 $-1 $640 $671 #
vertex $-1 $630 $696 #
straight-curve $-1 0 27.073276217241673 6.2856732734241083 -1 0 0 I I #
edge $-1 $575 -6.2856732734241083 $697 6.2856732734241083 $573 $698 forward 7 unknown #
face $-1 $-1 $574 $18 $-1 $699 reversed single #
point $-1 60.554826502273627 27.073276217241673 6.2856732734241083 #
face $-1 $700 $590 $19 $-1 $701 reversed single #
loop $-1 $-1 $702 $578 #
plane-surface $-1 -54.228761634731896 0 4.7856732734241083 -1 0 0 0 0 1 forward_v I I I I #
coedge $-1 $703 $704 $705 $706 reversed $579 $-1 #
coedge $-1 $581 $707 $708 $709 forward $503 $-1 #
coedge $-1 $708 $588 $582 $653 forward $590 $-1 #
edge $-1 $664 -40.834675681965173 $654 -35.476234708090999 $652 $710 forward 7 unknown #
vertex $-1 $653 $711 #
straight-curve $-1 26.634116125539435 -57.823635122427113 6.2856732734241092 0 1 0 I I #
edge $-1 $586 -29.938994623937802 $664 -7.7764125423803563 $588 $712 forward 7 unknown #
point $-1 48.796698207096881 -27.073276217241673 0.92723229954993847 #
coedge $-1 $589 $713 $714 $715 reversed $590 $-1 #
coedge $-1 $707 $592 $716 $717 forward $503 $-1 #
coedge $-1 $714 $718 $592 $661 reversed $719 $-1 #
edge $-1 $662 -27.073276217241673 $720 27.073276217241673 $660 $721 forward 7 unknown #
vertex $-1 $661 $722 #
straight-curve $-1 0 -27.073276217241673 6.2856732734241083 1 0 0 I I #
vertex $-1 $656 $723 #
straight-curve $-1 26.634116125539435 -27.07327621724167 0.92723229954994224 0 0.68199835119979291 0.73135370988377701 I I #
point $-1 26.634116125539435 -22.076449292326856 6.2856732734241083 #
vertex $-1 $613 $724 #
straight-curve $-1 -60.554826502273627 27.073276217241673 0 0 0 -1 I I #
straight-curve $-1 -60.554826502273627 0 -6.2856732734241083 0 1 0 I I #
straight-curve $-1 0 27.073276217241673 -6.2856732734241083 1 0 0 I I #
face $-1 $645 $641 $18 $-1 $725 reversed single #
loop $-1 $-1 $676 $615 #
plane-surface $-1 -60.554826502273627 0 0 1 0 0 0 0 -1 forward_v I I I I #
coedge $-1 $634 $726 $636 $693 forward $616 $-1 #
straight-curve $-1 -54.228761634731896 -27.073276217241673 2.3928366367120542 0 0 -1 I I #
coedge $-1 $727 $688 $621 $677 forward $672 $-1 #
edge $-1 $681 -27.073276217241673 $679 27.073276217241673 $676 $728 forward 7 unknown #
coedge $-1 $622 $695 $727 $729 reversed $641 $-1 #
vertex $-1 $729 $730 #
straight-curve $-1 -28.695897034251381 27.073276217241673 3.2856732734241083 1 0 0 I I #
vertex $-1 $689 $731 #
straight-curve $-1 -28.695897034251381 -27.073276217241673 3.2856732734241083 -1 0 0 I I #
edge $-1 $627 0.89283663671205415 $642 3.8928366367120542 $640 $732 forward 7 unknown #
point $-1 -54.228761634731896 27.073276217241673 3.2856732734241083 #
point $-1 -54.228761634731896 -27.073276217241673 3.2856732734241083 #
straight-curve $-1 -54.228761634731896 0 6.2856732734241083 0 -1 0 I I #
point $-1 -54.228761634731896 -27.073276217241673 6.2856732734241083 #
coedge $-1 $676 $733 $633 $689 reversed $672 $-1 #
edge $-1 $681 -3.2856732734241083 $691 6.2856732734241083 $688 $734 forward 7 unknown #
coedge $-1 $726 $634 $733 $735 forward $616 $-1 #
vertex $-1 $735 $736 #
straight-curve $-1 0 -27.073276217241673 -6.2856732734241083 -1 0 0 I I #
edge $-1 $697 -27.073276217241673 $637 27.073276217241673 $636 $737 forward 7 unknown #
point $-1 60.554826502273627 -27.073276217241673 -6.2856732734241083 #
coedge $-1 $678 $639 $726 $738 reversed $641 $-1 #
point $-1 -54.228761634731896 27.073276217241673 6.2856732734241083 #
vertex $-1 $693 $739 #
straight-curve $-1 60.554826502273627 27.073276217241673 0 0 0 -1 I I #
plane-surface $-1 60.554826502273627 0 0 -1 0 0 0 0 1 forward_v I I I I #
face $-1 $740 $741 $19 $-1 $742 reversed single #
plane-surface $-1 0 -27.073276217241673 0 0 1 0 0 0 1 forward_v I I I I #
coedge $-1 $743 $705 $744 $745 reversed $648 $-1 #
coedge $-1 $746 $650 $747 $748 reversed $579 $-1 #
coedge $-1 $650 $746 $749 $750 reversed $579 $-1 #
coedge $-1 $702 $751 $650 $706 forward $648 $-1 #
edge $-1 $752 -27.073276217241673 $753 27.073276217241673 $705 $754 forward 7 unknown #
coedge $-1 $651 $659 $743 $755 forward $503 $-1 #
coedge $-1 $744 $652 $651 $709 reversed $590 $-1 #
edge $-1 $756 -54.228761634731896 $654 26.634116125539435 $708 $663 forward 7 unknown #
straight-curve $-1 26.634116125539435 -27.07327621724167 41.761907981515108 0 0 1 I I #
point $-1 26.634116125539435 -27.073276217241673 6.2856732734241083 #
straight-curve $-1 18.857703583159079 -27.073276217241673 0.9272322995499378 -1 0 0 I I #
coedge $-1 $658 $757 $758 $759 reversed $590 $-1 #
coedge $-1 $760 $660 $658 $715 forward $719 $-1 #
edge $-1 $662 -6.2856732734241083 $761 6.2856732734241083 $714 $762 forward 7 unknown #
coedge $-1 $763 $764 $659 $717 reversed $765 $-1 #
edge $-1 $720 -60.554826502273627 $766 54.228761634731896 $716 $767 forward 7 unknown #
coedge $-1 $660 $760 $763 $768 reversed $719 $-1 #
loop $-1 $-1 $714 $769 #
vertex $-1 $661 $770 #
straight-curve $-1 60.554826502273627 0 6.2856732734241083 0 1 0 I I #
point $-1 60.554826502273627 -27.073276217241673 6.2856732734241083 #
point $-1 26.634116125539435 -27.073276217241673 0.92723229954993847 #
point $-1 -60.554826502273627 27.073276217241673 -6.2856732734241083 #
plane-surface $-1 0 27.073276217241673 0 0 -1 0 0 0 -1 forward_v I I I I #
coedge $-1 $674 $690 $695 $738 forward $616 $-1 #
coedge $-1 $733 $676 $678 $729 forward $672 $-1 #
straight-curve $-1 -60.554826502273627 0 3.2856732734241083 0 1 0 I I #
edge $-1 $679 -3.2856732734241083 $771 6.2856732734241083 $678 $772 forward 7 unknown #
point $-1 -60.554826502273627 27.073276217241673 3.2856732734241083 #
point $-1 -60.554826502273627 -27.073276217241673 3.2856732734241083 #
straight-curve $-1 -54.228761634731896 27.073276217241673 2.3928366367120542 0 0 1 I I #
coedge $-1 $688 $727 $690 $735 reversed $672 $-1 #
straight-curve $-1 -60.554826502273627 -27.073276217241673 0 0 0 -1 I I #
edge $-1 $691 -27.073276217241673 $771 27.073276217241673 $733 $773 forward 7 unknown #
point $-1 -60.554826502273627 -27.073276217241673 -6.2856732734241083 #
straight-curve $-1 60.554826502273627 0 -6.2856732734241083 0 -1 0 I I #
edge $-1 $771 -60.554826502273627 $697 60.554826502273627 $695 $774 forward 7 unknown #
point $-1 60.554826502273627 27.073276217241673 -6.2856732734241083 #
face $-1 $775 $776 $19 $-1 $777 reversed single #
loop $-1 $-1 $778 $700 #
plane-surface $-1 0 0 -6.2856732734241083 0 0 1 1 0 0 forward_v I I I I #
coedge $-1 $751 $702 $707 $755 reversed $648 $-1 #
coedge $-1 $749 $708 $702 $745 forward $590 $-1 #
edge $-1 $756 -3.8928366367120542 $753 -0.89283663671205415 $744 $779 forward 7 unknown #
coedge $-1 $704 $703 $780 $781 reversed $579 $-1 #
coedge $-1 $764 $782 $703 $748 forward $765 $-1 #
edge $-1 $783 -31.858929468022247 $752 -25.532864600480515 $747 $784 forward 7 unknown #
coedge $-1 $757 $744 $704 $750 forward $590 $-1 #
edge $-1 $753 25.532864600480515 $785 31.858929468022247 $749 $786 forward 7 unknown #
coedge $-1 $705 $743 $764 $787 reversed $648 $-1 #
vertex $-1 $748 $788 #
vertex $-1 $750 $789 #
straight-curve $-1 -54.228761634731896 0 3.2856732734241083 0 -1 0 I I #
edge $-1 $766 -27.073276217241673 $756 27.073276217241673 $707 $790 forward 7 unknown #
vertex $-1 $709 $791 #
coedge $-1 $713 $749 $792 $793 forward $590 $-1 #
coedge $-1 $794 $778 $713 $759 forward $741 $-1 #
edge $-1 $761 -60.554826502273627 $795 60.554826502273627 $713 $796 forward 7 unknown #
coedge $-1 $718 $714 $778 $797 reversed $719 $-1 #
vertex $-1 $715 $798 #
straight-curve $-1 60.554826502273627 -27.073276217241673 0 0 0 -1 I I #
coedge $-1 $799 $716 $718 $768 forward $765 $-1 #
coedge $-1 $716 $747 $751 $787 forward $765 $-1 #
loop $-1 $-1 $764 $775 #
vertex $-1 $755 $800 #
straight-curve $-1 0 27.073276217241673 6.2856732734241083 -1 0 0 I I #
edge $-1 $720 -6.2856732734241083 $801 6.2856732734241083 $718 $802 forward 7 unknown #
face $-1 $-1 $719 $19 $-1 $803 reversed single #
point $-1 60.554826502273627 27.073276217241673 6.2856732734241083 #
vertex $-1 $738 $804 #
straight-curve $-1 -60.554826502273627 27.073276217241673 0 0 0 -1 I I #
straight-curve $-1 -60.554826502273627 0 -6.2856732734241083 0 1 0 I I #
straight-curve $-1 0 27.073276217241673 -6.2856732734241083 1 0 0 I I #
face $-1 $769 $765 $19 $-1 $805 reversed single #
loop $-1 $-1 $780 $740 #
plane-surface $-1 -60.554826502273627 0 0 1 0 0 0 0 -1 forward_v I I I I #
coedge $-1 $758 $806 $760 $797 forward $741 $-1 #
straight-curve $-1 -54.228761634731896 -27.073276217241673 2.3928366367120542 0 0 -1 I I #
coedge $-1 $807 $792 $746 $781 forward $776 $-1 #
edge $-1 $785 -27.073276217241673 $783 27.073276217241673 $780 $808 forward 7 unknown #
coedge $-1 $747 $799 $807 $809 reversed $765 $-1 #
vertex $-1 $809 $810 #
straight-curve $-1 -28.695897034251381 27.073276217241673 3.2856732734241083 1 0 0 I I #
vertex $-1 $793 $811 #
straight-curve $-1 -28.695897034251381 -27.073276217241673 3.2856732734241083 -1 0 0 I I #
edge $-1 $752 0.89283663671205415 $766 3.8928366367120542 $764 $812 forward 7 unknown #
point $-1 -54.228761634731896 27.073276217241673 3.2856732734241083 #
point $-1 -54.228761634731896 -27.073276217241673 3.2856732734241083 #
straight-curve $-1 -54.228761634731896 0 6.2856732734241083 0 -1 0 I I #
point $-1 -54.228761634731896 -27.073276217241673 6.2856732734241083 #
coedge $-1 $780 $813 $757 $793 reversed $776 $-1 #
edge $-1 $785 -3.2856732734241083 $795 6.2856732734241083 $792 $814 forward 7 unknown #
coedge $-1 $806 $758 $813 $815 forward $741 $-1 #
vertex $-1 $815 $816 #
straight-curve $-1 0 -27.073276217241673 -6.2856732734241083 -1 0 0 I I #
edge $-1 $801 -27.073276217241673 $761 27.073276217241673 $760 $817 forward 7 unknown #
point $-1 60.554826502273627 -27.073276217241673 -6.2856732734241083 #
coedge $-1 $782 $763 $806 $818 reversed $765 $-1 #
point $-1 -54.228761634731896 27.073276217241673 6.2856732734241083 #
vertex $-1 $797 $819 #
straight-curve $-1 60.554826502273627 27.073276217241673 0 0 0 -1 I I #
plane-surface $-1 60.554826502273627 0 0 -1 0 0 0 0 1 forward_v I I I I #
point $-1 -60.554826502273627 27.073276217241673 -6.2856732734241083 #
plane-surface $-1 0 27.073276217241673 0 0 -1 0 0 0 -1 forward_v I I I I #
coedge $-1 $778 $794 $799 $818 forward $741 $-1 #
coedge $-1 $813 $780 $782 $809 forward $776 $-1 #
straight-curve $-1 -60.554826502273627 0 3.2856732734241083 0 1 0 I I #
edge $-1 $783 -3.2856732734241083 $820 6.2856732734241083 $782 $821 forward 7 unknown #
point $-1 -60.554826502273627 27.073276217241673 3.2856732734241083 #
point $-1 -60.554826502273627 -27.073276217241673 3.2856732734241083 #
straight-curve $-1 -54.228761634731896 27.073276217241673 2.3928366367120542 0 0 1 I I #
coedge $-1 $792 $807 $794 $815 reversed $776 $-1 #
straight-curve $-1 -60.554826502273627 -27.073276217241673 0 0 0 -1 I I #
edge $-1 $795 -27.073276217241673 $820 27.073276217241673 $813 $822 forward 7 unknown #
point $-1 -60.554826502273627 -27.073276217241673 -6.2856732734241083 #
straight-curve $-1 60.554826502273627 0 -6.2856732734241083 0 -1 0 I I #
edge $-1 $820 -60.554826502273627 $801 60.554826502273627 $799 $823 forward 7 unknown #
point $-1 60.554826502273627 27.073276217241673 -6.2856732734241083 #
vertex $-1 $818 $824 #
straight-curve $-1 -60.554826502273627 27.073276217241673 0 0 0 -1 I I #
straight-curve $-1 -60.554826502273627 0 -6.2856732734241083 0 1 0 I I #
straight-curve $-1 0 27.073276217241673 -6.2856732734241083 1 0 0 I I #
point $-1 -60.554826502273627 27.073276217241673 -6.2856732734241083 #
End-of-ACIS-data 