500 0 4 0           
7 Unknown 11 ACIS 5.0 NT 24 Fri Mar 26 19:37:35 1999 
-1 9.9999999999999995e-007 1e-010 
body $-1 $4 $-1 $5 #
body $-1 $6 $-1 $7 #
body $-1 $8 $-1 $9 #
body $-1 $10 $-1 $11 #
lump $-1 $-1 $12 $0 #
transform $-1 1 0 0 0 1 0 0 0 1 58.93368327890866 26.37330438429753 9.2551649459699963 1 rotate no_reflect no_shear #
lump $-1 $-1 $13 $1 #
transform $-1 1 0 0 0 1 0 0 0 1 58.93368327890866 26.37330438429753 9.2551649459699963 1 rotate no_reflect no_shear #
lump $-1 $-1 $14 $2 #
transform $-1 1 0 0 0 1 0 0 0 1 58.93368327890866 26.37330438429753 9.2551649459699963 1 rotate no_reflect no_shear #
lump $-1 $-1 $15 $3 #
transform $-1 1 0 0 0 1 0 0 0 1 58.93368327890866 26.37330438429753 9.2551649459699963 1 rotate no_reflect no_shear #
shell $-1 $-1 $-1 $16 $-1 $4 #
shell $-1 $-1 $-1 $17 $-1 $6 #
shell $-1 $-1 $-1 $18 $-1 $8 #
shell $-1 $-1 $-1 $19 $-1 $10 #
face $-1 $20 $21 $12 $-1 $22 forward single #
face $-1 $23 $24 $13 $-1 $25 forward single #
face $-1 $26 $27 $14 $-1 $28 forward single #
face $-1 $29 $30 $15 $-1 $31 reversed single #
face $-1 $32 $33 $12 $-1 $34 reversed single #
loop $-1 $-1 $35 $16 #
plane-surface $-1 0 0 9.2551649459699963 0 0 1 1 0 0 forward_v I I I I #
face $-1 $36 $37 $13 $-1 $38 forward single #
loop $-1 $-1 $39 $17 #
plane-surface $-1 -52.095299019285221 -21.57868718448071 0 1 0 0 0 0 -1 forward_v I I I I #
face $-1 $40 $41 $14 $-1 $42 forward single #
loop $-1 $-1 $43 $18 #
plane-surface $-1 -37.451908135574868 90.726329827908998 115.27790496482311 1 0 0 0 -0.80901700255871778 -0.5877852410284794 forward_v I I I I #
face $-1 $44 $45 $15 $-1 $46 reversed single #
loop $-1 $47 $48 $19 #
cone-surface $-1 -26.776147039392178 21.88656988097199 4.5952749797967414 0 -0.80901700255871778 -0.5877852410284794 1.5 0 0 1 I I 0 1 1.5 forward I I I I #
face $-1 $49 $50 $12 $-1 $51 reversed single #
loop $-1 $-1 $52 $20 #
plane-surface $-1 0 0 -9.2551649459699963 0 0 1 1 0 0 forward_v I I I I #
coedge $-1 $53 $54 $55 $56 forward $21 $-1 #
face $-1 $57 $58 $13 $-1 $59 forward single #
loop $-1 $-1 $60 $23 #
plane-surface $-1 -49.914049246792977 -16.784069984663891 0 0 -1 0 0 0 -1 forward_v I I I I #
coedge $-1 $61 $62 $63 $64 reversed $24 $-1 #
face $-1 $65 $66 $14 $-1 $67 forward single #
loop $-1 $-1 $68 $26 #
plane-surface $-1 -26.776147039392178 -4.6303737641860181 45.997206503244328 0 0.80901700255871778 0.5877852410284794 1 0 0 forward_v I I I I #
coedge $-1 $69 $70 $71 $72 reversed $27 $-1 #
face $-1 $73 $74 $15 $-1 $75 forward single #
loop $-1 $76 $77 $29 #
cone-surface $-1 -26.776147039392178 18.947584212217503 2.4599769647680372 0 -0.80901700255871778 -0.5877852410284794 0.75 0 0 1 I I -0.70710678118654757 0.70710678118654757 0.75 forward I I I I #
loop $-1 $-1 $78 $19 #
coedge $-1 $48 $48 $79 $80 reversed $30 $-1 #
face $-1 $81 $82 $12 $-1 $83 reversed single #
loop $-1 $-1 $84 $32 #
plane-surface $-1 0 -26.37330438429753 0 0 1 0 0 0 1 forward_v I I I I #
coedge $-1 $85 $86 $87 $88 forward $33 $-1 #
coedge $-1 $89 $35 $90 $91 forward $21 $-1 #
coedge $-1 $35 $89 $92 $93 forward $21 $-1 #
coedge $-1 $94 $95 $35 $56 reversed $96 $-1 #
edge $-1 $97 -26.37330438429753 $98 26.37330438429753 $55 $99 forward 7 unknown #
face $-1 $100 $101 $13 $-1 $102 forward single #
loop $-1 $-1 $103 $36 #
plane-surface $-1 -47.732799474300734 -21.57868718448071 0 -1 0 0 0 0 1 forward_v I I I I #
coedge $-1 $104 $105 $106 $107 reversed $37 $-1 #
coedge $-1 $108 $39 $109 $110 reversed $24 $-1 #
coedge $-1 $39 $108 $111 $112 reversed $24 $-1 #
coedge $-1 $105 $104 $39 $64 forward $37 $-1 #
edge $-1 $113 -9.2551649459699963 $114 9.2551649459699963 $63 $115 forward 7 unknown #
face $-1 $116 $117 $14 $-1 $118 forward single #
loop $-1 $-1 $119 $40 #
plane-surface $-1 -16.100385943209488 90.726329827908998 115.27790496482311 -1 0 0 0 0.80901700255871778 0.5877852410284794 forward_v I I I I #
coedge $-1 $120 $121 $122 $123 reversed $41 $-1 #
coedge $-1 $70 $43 $121 $124 forward $27 $-1 #
coedge $-1 $43 $69 $125 $126 reversed $27 $-1 #
coedge $-1 $127 $122 $43 $72 forward $117 $-1 #
edge $-1 $128 -23.298883702637145 $129 -18.989860529656969 $71 $130 forward 7 unknown #
face $-1 $131 $132 $15 $-1 $133 forward single #
loop $-1 $-1 $134 $44 #
plane-surface $-1 -37.451908135574868 90.726329827908998 115.27790496482311 1 0 0 0 -0.80901700255871778 -0.5877852410284794 forward_v I I I I #
loop $-1 $-1 $135 $29 #
coedge $-1 $77 $77 $78 $136 forward $45 $-1 #
coedge $-1 $78 $78 $77 $136 reversed $47 $-1 #
coedge $-1 $79 $79 $48 $80 forward $132 $-1 #
edge $-1 $137 -4.4947775020316098e-017 $137 6.2831853071796004 $79 $138 forward 7 unknown #
face $-1 $139 $140 $12 $-1 $141 reversed single #
loop $-1 $-1 $142 $49 #
plane-surface $-1 -58.93368327890866 0 0 1 0 0 0 0 -1 forward_v I I I I #
coedge $-1 $143 $92 $144 $145 forward $50 $-1 #
coedge $-1 $146 $52 $143 $147 forward $33 $-1 #
coedge $-1 $52 $146 $148 $149 forward $33 $-1 #
coedge $-1 $95 $94 $52 $88 reversed $96 $-1 #
edge $-1 $150 -26.37330438429753 $151 26.37330438429753 $87 $152 forward 7 unknown #
coedge $-1 $54 $53 $153 $154 forward $21 $-1 #
coedge $-1 $155 $156 $53 $91 reversed $140 $-1 #
edge $-1 $98 -58.93368327890866 $157 58.93368327890866 $90 $158 forward 7 unknown #
coedge $-1 $84 $159 $54 $93 reversed $50 $-1 #
edge $-1 $160 -58.93368327890866 $97 58.93368327890866 $92 $161 forward 7 unknown #
coedge $-1 $87 $55 $159 $162 forward $96 $-1 #
coedge $-1 $55 $87 $155 $163 reversed $96 $-1 #
loop $-1 $-1 $94 $139 #
vertex $-1 $56 $164 #
vertex $-1 $56 $165 #
straight-curve $-1 58.93368327890866 0 9.2551649459699963 0 1 0 I I #
face $-1 $166 $167 $13 $-1 $168 reversed single #
loop $-1 $-1 $109 $57 #
plane-surface $-1 0 0 9.2551649459699963 0 0 1 1 0 0 forward_v I I I I #
coedge $-1 $169 $170 $171 $172 reversed $58 $-1 #
coedge $-1 $63 $60 $173 $174 reversed $37 $-1 #
coedge $-1 $60 $63 $175 $176 reversed $37 $-1 #
coedge $-1 $170 $169 $60 $107 forward $58 $-1 #
edge $-1 $177 -9.2551649459699963 $178 9.2551649459699963 $106 $179 forward 7 unknown #
coedge $-1 $62 $61 $180 $181 reversed $24 $-1 #
coedge $-1 $173 $182 $61 $110 forward $101 $-1 #
edge $-1 $183 -15.583960792057175 $113 -5.9947263924235354 $109 $184 forward 7 unknown #
coedge $-1 $185 $175 $62 $112 forward $186 $-1 #
edge $-1 $114 5.9947263924235354 $187 15.583960792057175 $111 $188 forward 7 unknown #
vertex $-1 $110 $189 #
vertex $-1 $112 $190 #
straight-curve $-1 -52.095299019285221 -16.784069984663891 0 0 0 -1 I I #
face $-1 $191 $192 $14 $-1 $193 forward single #
loop $-1 $-1 $194 $65 #
plane-surface $-1 0 0 9.2551649459699963 0 0 1 1 0 0 forward_v I I I I #
coedge $-1 $195 $196 $194 $197 reversed $66 $-1 #
coedge $-1 $198 $68 $196 $199 reversed $41 $-1 #
coedge $-1 $68 $198 $69 $124 reversed $41 $-1 #
coedge $-1 $71 $194 $68 $123 forward $117 $-1 #
edge $-1 $200 2.7123124235133993 $128 24.063834615878779 $122 $201 forward 7 unknown #
edge $-1 $128 45.415660537502269 $202 52.746608768595053 $69 $203 forward 7 unknown #
coedge $-1 $204 $205 $70 $126 forward $206 $-1 #
edge $-1 $129 48.383787536441559 $202 54.314649300273373 $125 $207 forward 7 unknown #
coedge $-1 $208 $71 $205 $209 forward $117 $-1 #
vertex $-1 $123 $210 #
vertex $-1 $209 $211 #
straight-curve $-1 -37.451908135574868 45.363164913954499 9.2551649459699945 0 1 0 I I #
face $-1 $212 $213 $15 $-1 $214 forward single #
loop $-1 $215 $79 $73 #
plane-surface $-1 -26.776147039392178 -4.6303737641860181 45.997206503244328 0 0.80901700255871778 0.5877852410284794 1 0 0 forward_v I I I I #
coedge $-1 $216 $217 $218 $219 reversed $74 $-1 #
coedge $-1 $135 $135 $-1 $220 forward $76 $-1 #
edge $-1 $221 0 $221 6.2831853071796004 $77 $222 forward 7 unknown #
vertex $-1 $80 $223 #
ellipse-curve $-1 -26.776147039392178 24.218792797807442 6.2897340640540884 0 -0.80901700255871778 -0.5877852410284794 1.5 0 0 1 I I #
face $-1 $-1 $96 $12 $-1 $224 reversed single #
loop $-1 $-1 $155 $81 #
plane-surface $-1 0 26.37330438429753 0 0 -1 0 0 0 -1 forward_v I I I I #
coedge $-1 $225 $153 $156 $226 forward $82 $-1 #
coedge $-1 $159 $84 $85 $147 reversed $50 $-1 #
coedge $-1 $153 $225 $84 $145 reversed $82 $-1 #
edge $-1 $160 -9.2551649459699963 $227 9.2551649459699963 $144 $228 forward 7 unknown #
coedge $-1 $86 $85 $225 $229 forward $33 $-1 #
edge $-1 $151 -58.93368327890866 $227 58.93368327890866 $143 $230 forward 7 unknown #
coedge $-1 $156 $155 $86 $149 reversed $140 $-1 #
edge $-1 $231 -58.93368327890866 $150 58.93368327890866 $148 $232 forward 7 unknown #
vertex $-1 $88 $233 #
vertex $-1 $162 $234 #
straight-curve $-1 58.93368327890866 0 -9.2551649459699963 0 -1 0 I I #
coedge $-1 $142 $144 $89 $154 reversed $82 $-1 #
edge $-1 $157 -26.37330438429753 $160 26.37330438429753 $153 $235 forward 7 unknown #
coedge $-1 $148 $90 $95 $163 forward $140 $-1 #
coedge $-1 $90 $148 $142 $226 reversed $140 $-1 #
vertex $-1 $91 $236 #
straight-curve $-1 0 26.37330438429753 9.2551649459699963 -1 0 0 I I #
coedge $-1 $92 $143 $94 $162 reversed $50 $-1 #
vertex $-1 $154 $237 #
straight-curve $-1 0 -26.37330438429753 9.2551649459699963 1 0 0 I I #
edge $-1 $97 -9.2551649459699963 $151 9.2551649459699963 $94 $238 forward 7 unknown #
edge $-1 $98 -9.2551649459699963 $150 9.2551649459699963 $95 $239 forward 7 unknown #
point $-1 58.93368327890866 -26.37330438429753 9.2551649459699963 #
point $-1 58.93368327890866 26.37330438429753 9.2551649459699963 #
face $-1 $240 $186 $13 $-1 $241 reversed single #
loop $-1 $-1 $171 $100 #
plane-surface $-1 0 -26.37330438429753 0 0 1 0 0 0 1 forward_v I I I I #
coedge $-1 $106 $103 $242 $243 reversed $58 $-1 #
coedge $-1 $103 $106 $244 $245 reversed $58 $-1 #
coedge $-1 $246 $247 $103 $172 forward $167 $-1 #
edge $-1 $248 -9.2551649459699963 $249 9.2551649459699963 $171 $250 forward 7 unknown #
coedge $-1 $242 $109 $104 $174 forward $101 $-1 #
edge $-1 $113 -27.138274395888732 $177 -22.775774850904245 $173 $251 forward 7 unknown #
coedge $-1 $111 $244 $105 $176 forward $186 $-1 #
edge $-1 $178 22.775774850904245 $114 27.138274395888732 $175 $252 forward 7 unknown #
vertex $-1 $174 $253 #
vertex $-1 $176 $254 #
straight-curve $-1 -47.732799474300734 -16.784069984663891 0 0 0 -1 I I #
coedge $-1 $255 $256 $108 $181 forward $257 $-1 #
edge $-1 $187 -9.2551649459699963 $183 9.2551649459699963 $180 $258 forward 7 unknown #
coedge $-1 $109 $259 $255 $260 forward $101 $-1 #
vertex $-1 $181 $261 #
straight-curve $-1 -52.095299019285221 -10.789343592240355 9.2551649459699963 0 1 0 I I #
coedge $-1 $262 $111 $256 $263 forward $186 $-1 #
loop $-1 $-1 $111 $166 #
vertex $-1 $263 $264 #
straight-curve $-1 -52.095299019285221 -10.789343592240355 -9.2551649459699963 0 -1 0 I I #
point $-1 -52.095299019285221 -16.784069984663891 9.2551649459699963 #
point $-1 -52.095299019285221 -16.784069984663891 -9.2551649459699963 #
face $-1 $265 $266 $14 $-1 $267 forward single #
loop $-1 $-1 $268 $116 #
plane-surface $-1 -52.095299019285221 -21.57868718448071 0 1 0 0 0 0 -1 forward_v I I I I #
coedge $-1 $122 $269 $119 $197 forward $117 $-1 #
coedge $-1 $196 $119 $270 $271 reversed $66 $-1 #
coedge $-1 $119 $195 $120 $199 forward $66 $-1 #
edge $-1 $272 18.989860529656969 $200 23.298883702637145 $194 $273 forward 7 unknown #
coedge $-1 $121 $120 $204 $274 reversed $41 $-1 #
edge $-1 $275 -52.746608768595053 $200 -45.415660537502269 $196 $276 forward 7 unknown #
vertex $-1 $123 $277 #
straight-curve $-1 -13.388073519696089 22.064281211317351 9.2551649459699981 -1 0 0 I I #
vertex $-1 $274 $278 #
straight-curve $-1 -37.451908135574868 -4.6303737641860181 45.997206503244328 0 0.5877852410284794 -0.80901700255871778 I I #
coedge $-1 $270 $125 $198 $274 forward $206 $-1 #
coedge $-1 $125 $279 $127 $209 reversed $206 $-1 #
loop $-1 $-1 $270 $280 #
straight-curve $-1 -37.451908135574868 26.373304384297526 57.638952482411554 0 0 -1 I I #
coedge $-1 $281 $127 $282 $283 forward $117 $-1 #
edge $-1 $129 37.451908135574868 $284 58.93368327890866 $205 $285 forward 7 unknown #
point $-1 -37.451908135574868 22.064281211317354 9.2551649459699945 #
point $-1 -37.451908135574868 26.37330438429753 9.2551649459699963 #
face $-1 $286 $287 $15 $-1 $288 forward single #
loop $-1 $-1 $289 $131 #
plane-surface $-1 -16.100385943209488 90.726329827908998 115.27790496482311 -1 0 0 0 0.80901700255871778 0.5877852410284794 forward_v I I I I #
loop $-1 $-1 $290 $73 #
coedge $-1 $217 $134 $291 $292 forward $74 $-1 #
coedge $-1 $134 $216 $293 $294 reversed $74 $-1 #
coedge $-1 $295 $296 $134 $219 forward $287 $-1 #
edge $-1 $297 -23.298883702637145 $298 -18.989860529656969 $218 $299 forward 7 unknown #
edge $-1 $300 1 $300 0 $135 $-1 forward 7 unknown #
vertex $-1 $136 $301 #
ellipse-curve $-1 -26.776147039392178 19.554346964136542 2.9008158955393966 0 0.80901700255871778 0.5877852410284794 1.5 0 0 1 I I #
point $-1 -25.276147039392178 24.218792797807438 6.2897340640540857 #
plane-surface $-1 58.93368327890866 0 0 -1 0 0 0 0 1 forward_v I I I I #
coedge $-1 $144 $142 $146 $229 reversed $82 $-1 #
edge $-1 $157 -9.2551649459699963 $231 9.2551649459699963 $156 $302 forward 7 unknown #
vertex $-1 $229 $303 #
straight-curve $-1 -58.93368327890866 -26.37330438429753 0 0 0 -1 I I #
edge $-1 $227 -26.37330438429753 $231 26.37330438429753 $225 $304 forward 7 unknown #
straight-curve $-1 0 -26.37330438429753 -9.2551649459699963 -1 0 0 I I #
vertex $-1 $149 $305 #
straight-curve $-1 0 26.37330438429753 -9.2551649459699963 1 0 0 I I #
point $-1 58.93368327890866 26.37330438429753 -9.2551649459699963 #
point $-1 58.93368327890866 -26.37330438429753 -9.2551649459699963 #
straight-curve $-1 -58.93368327890866 0 9.2551649459699963 0 -1 0 I I #
point $-1 -58.93368327890866 26.37330438429753 9.2551649459699963 #
point $-1 -58.93368327890866 -26.37330438429753 9.2551649459699963 #
straight-curve $-1 58.93368327890866 -26.37330438429753 0 0 0 -1 I I #
straight-curve $-1 58.93368327890866 26.37330438429753 0 0 0 -1 I I #
face $-1 $306 $257 $13 $-1 $168 reversed single #
plane-surface $-1 0 0 -9.2551649459699963 0 0 1 1 0 0 forward_v I I I I #
coedge $-1 $307 $173 $169 $243 forward $101 $-1 #
edge $-1 $177 5.9947263924235354 $248 15.583960792057175 $242 $308 forward 7 unknown #
coedge $-1 $175 $309 $170 $245 forward $186 $-1 #
edge $-1 $249 -15.583960792057175 $178 -5.9947263924235354 $244 $310 forward 7 unknown #
coedge $-1 $311 $171 $309 $312 reversed $167 $-1 #
coedge $-1 $171 $311 $307 $313 reversed $167 $-1 #
vertex $-1 $313 $314 #
vertex $-1 $172 $315 #
straight-curve $-1 -47.732799474300734 -26.37330438429753 0 0 0 -1 I I #
straight-curve $-1 -24.957024623396489 -16.784069984663891 9.2551649459699963 1 0 0 I I #
straight-curve $-1 -24.957024623396489 -16.784069984663891 -9.2551649459699963 -1 0 0 I I #
point $-1 -47.732799474300734 -16.784069984663891 9.2551649459699963 #
point $-1 -47.732799474300734 -16.784069984663891 -9.2551649459699963 #
coedge $-1 $316 $180 $182 $260 reversed $257 $-1 #
coedge $-1 $180 $316 $185 $263 reversed $257 $-1 #
loop $-1 $-1 $180 $240 #
straight-curve $-1 -52.095299019285221 -26.37330438429753 0 0 0 1 I I #
coedge $-1 $182 $317 $318 $319 forward $101 $-1 #
edge $-1 $320 -58.93368327890866 $183 -52.095299019285221 $255 $321 forward 7 unknown #
point $-1 -52.095299019285221 -26.37330438429753 9.2551649459699963 #
coedge $-1 $322 $185 $323 $324 forward $186 $-1 #
edge $-1 $187 52.095299019285221 $325 58.93368327890866 $256 $326 forward 7 unknown #
point $-1 -52.095299019285221 -26.37330438429753 -9.2551649459699963 #
face $-1 $327 $328 $14 $-1 $329 forward single #
loop $-1 $-1 $330 $191 #
plane-surface $-1 -49.914049246792977 -16.784069984663891 0 0 -1 0 0 0 -1 forward_v I I I I #
coedge $-1 $331 $332 $333 $334 reversed $192 $-1 #
coedge $-1 $194 $335 $336 $337 forward $117 $-1 #
coedge $-1 $336 $204 $195 $271 forward $206 $-1 #
edge $-1 $275 -54.314649300273373 $272 -48.383787536441559 $270 $338 forward 7 unknown #
vertex $-1 $271 $339 #
straight-curve $-1 -16.100385943209488 45.363164913954499 9.2551649459699945 0 -1 0 I I #
edge $-1 $202 -24.063834615878779 $275 -2.7123124235133993 $204 $340 forward 7 unknown #
vertex $-1 $274 $341 #
straight-curve $-1 -16.100385943209488 -4.6303737641860181 45.997206503244328 0 -0.5877852410284794 0.80901700255871778 I I #
point $-1 -16.100385943209488 22.064281211317354 9.2551649459699945 #
point $-1 -37.451908135574868 26.37330438429753 3.3243031821381805 #
coedge $-1 $205 $342 $343 $344 reversed $206 $-1 #
face $-1 $345 $206 $14 $-1 $346 reversed single #
coedge $-1 $347 $208 $348 $349 forward $117 $-1 #
coedge $-1 $343 $350 $208 $283 reversed $351 $-1 #
edge $-1 $284 -26.37330438429753 $352 26.37330438429753 $282 $353 forward 7 unknown #
vertex $-1 $209 $354 #
straight-curve $-1 0 26.37330438429753 9.2551649459699963 -1 0 0 I I #
face $-1 $355 $356 $15 $-1 $357 forward single #
loop $-1 $-1 $358 $212 #
plane-surface $-1 0 0 9.2551649459699963 0 0 1 1 0 0 forward_v I I I I #
coedge $-1 $359 $360 $358 $361 reversed $213 $-1 #
coedge $-1 $362 $291 $296 $363 reversed $215 $-1 #
coedge $-1 $290 $364 $216 $292 reversed $215 $-1 #
edge $-1 $297 45.415660537502269 $365 52.746608768595053 $216 $366 forward 7 unknown #
coedge $-1 $367 $368 $217 $294 forward $369 $-1 #
edge $-1 $298 48.383787536441559 $365 54.314649300273373 $293 $370 forward 7 unknown #
coedge $-1 $371 $218 $368 $372 forward $287 $-1 #
coedge $-1 $218 $358 $290 $363 forward $287 $-1 #
vertex $-1 $363 $373 #
vertex $-1 $372 $374 #
straight-curve $-1 -37.451908135574868 45.363164913954499 9.2551649459699945 0 1 0 I I #
vertex $-1 $220 $375 #
point $-1 -25.276147039392178 19.554346964136542 2.9008158955393966 #
straight-curve $-1 -58.93368327890866 26.37330438429753 0 0 0 -1 I I #
point $-1 -58.93368327890866 -26.37330438429753 -9.2551649459699963 #
straight-curve $-1 -58.93368327890866 0 -9.2551649459699963 0 1 0 I I #
point $-1 -58.93368327890866 26.37330438429753 -9.2551649459699963 #
face $-1 $376 $377 $13 $-1 $378 reversed single #
coedge $-1 $379 $242 $247 $313 forward $101 $-1 #
straight-curve $-1 -47.732799474300734 -10.789343592240355 9.2551649459699963 0 -1 0 I I #
coedge $-1 $244 $380 $246 $312 forward $186 $-1 #
straight-curve $-1 -47.732799474300734 -10.789343592240355 -9.2551649459699963 0 1 0 I I #
coedge $-1 $247 $246 $381 $382 reversed $167 $-1 #
edge $-1 $383 -58.93368327890866 $249 47.732799474300734 $246 $326 forward 7 unknown #
edge $-1 $248 -47.732799474300734 $384 58.93368327890866 $247 $321 forward 7 unknown #
point $-1 -47.732799474300734 -26.37330438429753 9.2551649459699963 #
point $-1 -47.732799474300734 -26.37330438429753 -9.2551649459699963 #
coedge $-1 $256 $255 $385 $386 forward $257 $-1 #
coedge $-1 $259 $379 $387 $388 forward $101 $-1 #
coedge $-1 $389 $385 $259 $319 reversed $377 $-1 #
edge $-1 $390 -26.37330438429753 $320 26.37330438429753 $318 $391 forward 7 unknown #
vertex $-1 $319 $392 #
straight-curve $-1 0 -26.37330438429753 9.2551649459699963 1 0 0 I I #
coedge $-1 $380 $262 $393 $394 forward $186 $-1 #
coedge $-1 $385 $389 $262 $324 reversed $377 $-1 #
edge $-1 $325 -26.37330438429753 $395 26.37330438429753 $323 $396 forward 7 unknown #
vertex $-1 $324 $397 #
straight-curve $-1 0 -26.37330438429753 -9.2551649459699963 -1 0 0 I I #
face $-1 $398 $399 $14 $-1 $400 reversed single #
loop $-1 $-1 $401 $265 #
plane-surface $-1 -47.732799474300734 -21.57868718448071 0 -1 0 0 0 0 1 forward_v I I I I #
coedge $-1 $402 $403 $404 $405 reversed $266 $-1 #
coedge $-1 $406 $268 $347 $407 reversed $192 $-1 #
coedge $-1 $268 $406 $408 $409 reversed $192 $-1 #
coedge $-1 $403 $402 $268 $334 forward $266 $-1 #
edge $-1 $410 -9.2551649459699963 $411 9.2551649459699963 $333 $412 forward 7 unknown #
coedge $-1 $269 $413 $414 $415 forward $117 $-1 #
coedge $-1 $416 $270 $269 $337 reversed $206 $-1 #
edge $-1 $417 -58.93368327890866 $272 16.100385943209488 $336 $285 forward 7 unknown #
straight-curve $-1 -16.100385943209488 26.373304384297526 57.638952482411554 0 0 1 I I #
point $-1 -16.100385943209488 26.37330438429753 9.2551649459699963 #
straight-curve $-1 -13.388073519696089 26.373304384297533 3.3243031821381734 1 0 0 I I #
point $-1 -16.100385943209488 26.37330438429753 3.3243031821381805 #
coedge $-1 $279 $416 $418 $419 reversed $206 $-1 #
coedge $-1 $420 $282 $279 $344 forward $351 $-1 #
edge $-1 $284 -9.2551649459699963 $421 9.2551649459699963 $279 $422 forward 7 unknown #
face $-1 $-1 $423 $14 $-1 $424 reversed single #
plane-surface $-1 0 26.37330438429753 0 0 -1 0 0 0 -1 forward_v I I I I #
coedge $-1 $425 $281 $331 $407 forward $117 $-1 #
coedge $-1 $426 $427 $281 $349 reversed $428 $-1 #
edge $-1 $352 -58.93368327890866 $429 -52.095299019285221 $348 $430 forward 7 unknown #
coedge $-1 $282 $420 $426 $431 reversed $351 $-1 #
loop $-1 $-1 $343 $432 #
vertex $-1 $283 $433 #
straight-curve $-1 -58.93368327890866 0 9.2551649459699963 0 -1 0 I I #
point $-1 -58.93368327890866 26.37330438429753 9.2551649459699963 #
face $-1 $434 $435 $15 $-1 $436 forward single #
loop $-1 $-1 $437 $286 #
plane-surface $-1 -52.095299019285221 -21.57868718448071 0 1 0 0 0 0 -1 forward_v I I I I #
coedge $-1 $296 $438 $289 $361 forward $287 $-1 #
coedge $-1 $360 $289 $439 $440 reversed $213 $-1 #
coedge $-1 $289 $359 $362 $441 forward $213 $-1 #
edge $-1 $442 18.989860529656969 $443 23.298883702637145 $358 $444 forward 7 unknown #
coedge $-1 $364 $290 $360 $441 reversed $215 $-1 #
edge $-1 $443 2.7123124235133993 $297 24.063834615878779 $296 $445 forward 7 unknown #
coedge $-1 $291 $362 $367 $446 reversed $215 $-1 #
vertex $-1 $446 $447 #
straight-curve $-1 -37.451908135574868 -4.6303737641860181 45.997206503244328 0 0.5877852410284794 -0.80901700255871778 I I #
coedge $-1 $439 $293 $364 $446 forward $369 $-1 #
coedge $-1 $293 $448 $295 $372 reversed $369 $-1 #
loop $-1 $-1 $439 $449 #
straight-curve $-1 -37.451908135574868 26.373304384297526 57.638952482411554 0 0 -1 I I #
coedge $-1 $450 $295 $451 $452 forward $287 $-1 #
edge $-1 $298 37.451908135574868 $453 58.93368327890866 $368 $454 forward 7 unknown #
point $-1 -37.451908135574868 22.064281211317354 9.2551649459699945 #
point $-1 -37.451908135574868 26.37330438429753 9.2551649459699963 #
point $-1 -26.776147039392178 18.340821460298464 2.0191380339966778 #
face $-1 $455 $456 $13 $-1 $457 reversed single #
loop $-1 $-1 $389 $306 #
plane-surface $-1 -58.93368327890866 0 0 1 0 0 0 0 -1 forward_v I I I I #
coedge $-1 $317 $307 $458 $459 forward $101 $-1 #
coedge $-1 $309 $322 $460 $461 forward $186 $-1 #
coedge $-1 $460 $458 $311 $382 forward $462 $-1 #
edge $-1 $384 -9.2551649459699963 $383 9.2551649459699963 $381 $463 forward 7 unknown #
vertex $-1 $382 $464 #
vertex $-1 $459 $465 #
coedge $-1 $318 $323 $316 $386 reversed $377 $-1 #
edge $-1 $320 -9.2551649459699963 $325 9.2551649459699963 $385 $466 forward 7 unknown #
coedge $-1 $467 $468 $317 $388 reversed $456 $-1 #
edge $-1 $469 -58.93368327890866 $390 58.93368327890866 $387 $470 forward 7 unknown #
coedge $-1 $323 $318 $468 $471 forward $377 $-1 #
vertex $-1 $388 $472 #
straight-curve $-1 -58.93368327890866 0 9.2551649459699963 0 -1 0 I I #
point $-1 -58.93368327890866 -26.37330438429753 9.2551649459699963 #
coedge $-1 $468 $467 $322 $394 reversed $456 $-1 #
edge $-1 $395 -58.93368327890866 $473 58.93368327890866 $393 $474 forward 7 unknown #
vertex $-1 $394 $475 #
straight-curve $-1 -58.93368327890866 0 -9.2551649459699963 0 1 0 I I #
point $-1 -58.93368327890866 -26.37330438429753 -9.2551649459699963 #
face $-1 $476 $477 $14 $-1 $478 reversed single #
loop $-1 $-1 $479 $327 #
plane-surface $-1 0 -26.37330438429753 0 0 1 0 0 0 1 forward_v I I I I #
coedge $-1 $480 $481 $479 $482 reversed $328 $-1 #
coedge $-1 $333 $330 $425 $483 reversed $266 $-1 #
coedge $-1 $330 $333 $484 $485 reversed $266 $-1 #
coedge $-1 $481 $480 $330 $405 forward $328 $-1 #
edge $-1 $486 -9.2551649459699963 $487 9.2551649459699963 $404 $488 forward 7 unknown #
coedge $-1 $332 $331 $427 $489 reversed $192 $-1 #
edge $-1 $429 -15.583960792057175 $410 -5.9947263924235354 $347 $490 forward 7 unknown #
coedge $-1 $491 $484 $332 $409 forward $477 $-1 #
edge $-1 $411 5.9947263924235354 $492 15.583960792057175 $408 $493 forward 7 unknown #
vertex $-1 $407 $494 #
vertex $-1 $409 $495 #
straight-curve $-1 -52.095299019285221 -16.784069984663891 0 0 0 -1 I I #
coedge $-1 $335 $496 $497 $498 forward $117 $-1 #
coedge $-1 $499 $500 $335 $415 reversed $423 $-1 #
edge $-1 $501 -26.37330438429753 $417 26.37330438429753 $414 $502 forward 7 unknown #
coedge $-1 $342 $336 $500 $503 forward $206 $-1 #
vertex $-1 $415 $504 #
coedge $-1 $505 $506 $342 $419 forward $477 $-1 #
edge $-1 $421 -58.93368327890866 $507 58.93368327890866 $342 $508 forward 7 unknown #
coedge $-1 $350 $343 $506 $509 reversed $351 $-1 #
vertex $-1 $419 $510 #
straight-curve $-1 -58.93368327890866 26.37330438429753 0 0 0 -1 I I #
loop $-1 $-1 $499 $345 #
plane-surface $-1 58.93368327890866 0 0 -1 0 0 0 0 1 forward_v I I I I #
coedge $-1 $496 $347 $402 $483 forward $117 $-1 #
coedge $-1 $511 $348 $350 $431 forward $428 $-1 #
coedge $-1 $348 $511 $406 $489 forward $428 $-1 #
loop $-1 $-1 $427 $476 #
vertex $-1 $489 $512 #
straight-curve $-1 0 -26.37330438429753 9.2551649459699963 1 0 0 I I #
edge $-1 $352 -9.2551649459699963 $513 9.2551649459699963 $350 $514 forward 7 unknown #
face $-1 $280 $351 $14 $-1 $515 reversed single #
point $-1 -58.93368327890866 -26.37330438429753 9.2551649459699963 #
face $-1 $516 $517 $15 $-1 $518 forward single #
loop $-1 $-1 $519 $355 #
plane-surface $-1 -49.914049246792977 -16.784069984663891 0 0 -1 0 0 0 -1 forward_v I I I I #
coedge $-1 $520 $521 $522 $523 reversed $356 $-1 #
coedge $-1 $358 $524 $525 $526 forward $287 $-1 #
coedge $-1 $525 $367 $359 $440 forward $369 $-1 #
edge $-1 $527 -54.314649300273373 $442 -48.383787536441559 $439 $528 forward 7 unknown #
edge $-1 $527 -52.746608768595053 $443 -45.415660537502269 $360 $529 forward 7 unknown #
vertex $-1 $440 $530 #
vertex $-1 $363 $531 #
straight-curve $-1 -16.100385943209488 45.363164913954499 9.2551649459699945 0 -1 0 I I #
straight-curve $-1 -13.388073519696089 22.064281211317351 9.2551649459699981 -1 0 0 I I #
edge $-1 $365 -24.063834615878779 $527 -2.7123124235133993 $367 $532 forward 7 unknown #
point $-1 -37.451908135574868 26.37330438429753 3.3243031821381805 #
coedge $-1 $368 $533 $534 $535 reversed $369 $-1 #
face $-1 $536 $369 $15 $-1 $537 reversed single #
coedge $-1 $538 $371 $539 $540 forward $287 $-1 #
coedge $-1 $534 $541 $371 $452 reversed $542 $-1 #
edge $-1 $453 -26.37330438429753 $543 26.37330438429753 $451 $544 forward 7 unknown #
vertex $-1 $372 $545 #
straight-curve $-1 0 26.37330438429753 9.2551649459699963 -1 0 0 I I #
face $-1 $-1 $462 $13 $-1 $546 reversed single #
loop $-1 $-1 $467 $376 #
plane-surface $-1 0 26.37330438429753 0 0 -1 0 0 0 -1 forward_v I I I I #
coedge $-1 $381 $547 $379 $459 reversed $462 $-1 #
edge $-1 $384 -26.37330438429753 $469 26.37330438429753 $458 $548 forward 7 unknown #
coedge $-1 $547 $381 $380 $461 reversed $462 $-1 #
edge $-1 $473 -26.37330438429753 $383 26.37330438429753 $460 $549 forward 7 unknown #
loop $-1 $-1 $381 $455 #
straight-curve $-1 58.93368327890866 -26.37330438429753 0 0 0 -1 I I #
point $-1 58.93368327890866 -26.37330438429753 -9.2551649459699963 #
point $-1 58.93368327890866 -26.37330438429753 9.2551649459699963 #
straight-curve $-1 -58.93368327890866 -26.37330438429753 0 0 0 -1 I I #
coedge $-1 $393 $387 $547 $550 forward $456 $-1 #
coedge $-1 $387 $393 $389 $471 reversed $456 $-1 #
vertex $-1 $459 $551 #
straight-curve $-1 0 26.37330438429753 9.2551649459699963 -1 0 0 I I #
edge $-1 $390 -9.2551649459699963 $395 9.2551649459699963 $468 $552 forward 7 unknown #
point $-1 -58.93368327890866 26.37330438429753 9.2551649459699963 #
vertex $-1 $461 $553 #
straight-curve $-1 0 26.37330438429753 -9.2551649459699963 1 0 0 I I #
point $-1 -58.93368327890866 26.37330438429753 -9.2551649459699963 #
face $-1 $432 $428 $14 $-1 $400 reversed single #
loop $-1 $-1 $408 $398 #
plane-surface $-1 0 0 -9.2551649459699963 0 0 1 1 0 0 forward_v I I I I #
coedge $-1 $554 $497 $401 $482 forward $399 $-1 #
coedge $-1 $404 $401 $496 $555 reversed $328 $-1 #
coedge $-1 $401 $404 $556 $557 reversed $328 $-1 #
edge $-1 $558 -9.2551649459699963 $559 9.2551649459699963 $479 $560 forward 7 unknown #
edge $-1 $410 -27.138274395888732 $486 -22.775774850904245 $425 $561 forward 7 unknown #
coedge $-1 $408 $556 $403 $485 forward $477 $-1 #
edge $-1 $487 22.775774850904245 $411 27.138274395888732 $484 $562 forward 7 unknown #
vertex $-1 $483 $563 #
vertex $-1 $485 $564 #
straight-curve $-1 -47.732799474300734 -16.784069984663891 0 0 0 -1 I I #
edge $-1 $492 -9.2551649459699963 $429 9.2551649459699963 $427 $565 forward 7 unknown #
straight-curve $-1 -52.095299019285221 -10.789343592240355 9.2551649459699963 0 1 0 I I #
coedge $-1 $506 $408 $511 $566 forward $477 $-1 #
vertex $-1 $566 $567 #
straight-curve $-1 -52.095299019285221 -10.789343592240355 -9.2551649459699963 0 -1 0 I I #
point $-1 -52.095299019285221 -16.784069984663891 9.2551649459699963 #
point $-1 -52.095299019285221 -16.784069984663891 -9.2551649459699963 #
coedge $-1 $413 $425 $480 $555 forward $117 $-1 #
coedge $-1 $479 $568 $413 $498 reversed $399 $-1 #
edge $-1 $558 -47.732799474300734 $501 58.93368327890866 $497 $430 forward 7 unknown #
coedge $-1 $569 $414 $568 $570 forward $423 $-1 #
coedge $-1 $414 $569 $416 $503 reversed $423 $-1 #
vertex $-1 $415 $571 #
straight-curve $-1 58.93368327890866 0 9.2551649459699963 0 1 0 I I #
edge $-1 $417 -9.2551649459699963 $507 9.2551649459699963 $500 $572 forward 7 unknown #
point $-1 58.93368327890866 26.37330438429753 9.2551649459699963 #
coedge $-1 $573 $418 $569 $574 forward $477 $-1 #
coedge $-1 $418 $491 $420 $509 forward $477 $-1 #
vertex $-1 $574 $575 #
straight-curve $-1 0 26.37330438429753 -9.2551649459699963 1 0 0 I I #
edge $-1 $513 -26.37330438429753 $421 26.37330438429753 $420 $576 forward 7 unknown #
point $-1 -58.93368327890866 26.37330438429753 -9.2551649459699963 #
coedge $-1 $427 $426 $491 $566 reversed $428 $-1 #
point $-1 -52.095299019285221 -26.37330438429753 9.2551649459699963 #
vertex $-1 $509 $577 #
straight-curve $-1 -58.93368327890866 -26.37330438429753 0 0 0 -1 I I #
plane-surface $-1 -58.93368327890866 0 0 1 0 0 0 0 -1 forward_v I I I I #
face $-1 $578 $579 $15 $-1 $580 reversed single #
loop $-1 $-1 $581 $434 #
plane-surface $-1 -47.732799474300734 -21.57868718448071 0 -1 0 0 0 0 1 forward_v I I I I #
coedge $-1 $582 $583 $584 $585 reversed $435 $-1 #
coedge $-1 $586 $437 $538 $587 reversed $356 $-1 #
coedge $-1 $437 $586 $588 $589 reversed $356 $-1 #
coedge $-1 $583 $582 $437 $523 forward $435 $-1 #
edge $-1 $590 -9.2551649459699963 $591 9.2551649459699963 $522 $592 forward 7 unknown #
coedge $-1 $438 $593 $594 $595 forward $287 $-1 #
coedge $-1 $596 $439 $438 $526 reversed $369 $-1 #
edge $-1 $597 -58.93368327890866 $442 16.100385943209488 $525 $454 forward 7 unknown #
vertex $-1 $446 $598 #
straight-curve $-1 -16.100385943209488 26.373304384297526 57.638952482411554 0 0 1 I I #
straight-curve $-1 -16.100385943209488 -4.6303737641860181 45.997206503244328 0 -0.5877852410284794 0.80901700255871778 I I #
point $-1 -16.100385943209488 26.37330438429753 9.2551649459699963 #
point $-1 -16.100385943209488 22.064281211317354 9.2551649459699945 #
straight-curve $-1 -13.388073519696089 26.373304384297533 3.3243031821381734 1 0 0 I I #
coedge $-1 $448 $596 $599 $600 reversed $369 $-1 #
coedge $-1 $601 $451 $448 $535 forward $542 $-1 #
edge $-1 $453 -9.2551649459699963 $602 9.2551649459699963 $448 $603 forward 7 unknown #
face $-1 $-1 $604 $15 $-1 $605 reversed single #
plane-surface $-1 0 26.37330438429753 0 0 -1 0 0 0 -1 forward_v I I I I #
coedge $-1 $606 $450 $520 $587 forward $287 $-1 #
coedge $-1 $607 $608 $450 $540 reversed $609 $-1 #
edge $-1 $543 -58.93368327890866 $610 -52.095299019285221 $539 $611 forward 7 unknown #
coedge $-1 $451 $601 $607 $612 reversed $542 $-1 #
loop $-1 $-1 $534 $613 #
vertex $-1 $452 $614 #
straight-curve $-1 -58.93368327890866 0 9.2551649459699963 0 -1 0 I I #
point $-1 -58.93368327890866 26.37330438429753 9.2551649459699963 #
plane-surface $-1 58.93368327890866 0 0 -1 0 0 0 0 1 forward_v I I I I #
coedge $-1 $458 $460 $467 $550 reversed $462 $-1 #
straight-curve $-1 58.93368327890866 0 9.2551649459699963 0 1 0 I I #
straight-curve $-1 58.93368327890866 0 -9.2551649459699963 0 -1 0 I I #
edge $-1 $469 -9.2551649459699963 $473 9.2551649459699963 $547 $615 forward 7 unknown #
point $-1 58.93368327890866 26.37330438429753 9.2551649459699963 #
straight-curve $-1 -58.93368327890866 26.37330438429753 0 0 0 -1 I I #
point $-1 58.93368327890866 26.37330438429753 -9.2551649459699963 #
coedge $-1 $568 $479 $573 $616 reversed $399 $-1 #
edge $-1 $486 5.9947263924235354 $558 15.583960792057175 $496 $617 forward 7 unknown #
coedge $-1 $484 $573 $481 $557 forward $477 $-1 #
edge $-1 $559 -15.583960792057175 $487 -5.9947263924235354 $556 $618 forward 7 unknown #
vertex $-1 $498 $619 #
vertex $-1 $482 $620 #
straight-curve $-1 -47.732799474300734 -26.37330438429753 0 0 0 -1 I I #
straight-curve $-1 -24.957024623396489 -16.784069984663891 9.2551649459699963 1 0 0 I I #
straight-curve $-1 -24.957024623396489 -16.784069984663891 -9.2551649459699963 -1 0 0 I I #
point $-1 -47.732799474300734 -16.784069984663891 9.2551649459699963 #
point $-1 -47.732799474300734 -16.784069984663891 -9.2551649459699963 #
straight-curve $-1 -52.095299019285221 -26.37330438429753 0 0 0 1 I I #
edge $-1 $492 52.095299019285221 $513 58.93368327890866 $511 $621 forward 7 unknown #
point $-1 -52.095299019285221 -26.37330438429753 -9.2551649459699963 #
coedge $-1 $497 $554 $499 $570 reversed $399 $-1 #
coedge $-1 $500 $499 $505 $574 reversed $423 $-1 #
edge $-1 $501 -9.2551649459699963 $622 9.2551649459699963 $499 $623 forward 7 unknown #
point $-1 58.93368327890866 -26.37330438429753 9.2551649459699963 #
straight-curve $-1 58.93368327890866 26.37330438429753 0 0 0 -1 I I #
coedge $-1 $556 $505 $554 $616 forward $477 $-1 #
edge $-1 $507 -26.37330438429753 $622 26.37330438429753 $569 $624 forward 7 unknown #
point $-1 58.93368327890866 26.37330438429753 -9.2551649459699963 #
straight-curve $-1 -58.93368327890866 0 -9.2551649459699963 0 1 0 I I #
point $-1 -58.93368327890866 -26.37330438429753 -9.2551649459699963 #
face $-1 $625 $626 $15 $-1 $627 reversed single #
loop $-1 $-1 $628 $516 #
plane-surface $-1 0 -26.37330438429753 0 0 1 0 0 0 1 forward_v I I I I #
coedge $-1 $629 $630 $628 $631 reversed $517 $-1 #
coedge $-1 $522 $519 $606 $632 reversed $435 $-1 #
coedge $-1 $519 $522 $633 $634 reversed $435 $-1 #
coedge $-1 $630 $629 $519 $585 forward $517 $-1 #
edge $-1 $635 -9.2551649459699963 $636 9.2551649459699963 $584 $637 forward 7 unknown #
coedge $-1 $521 $520 $608 $638 reversed $356 $-1 #
edge $-1 $610 -15.583960792057175 $590 -5.9947263924235354 $538 $639 forward 7 unknown #
coedge $-1 $640 $633 $521 $589 forward $626 $-1 #
edge $-1 $591 5.9947263924235354 $641 15.583960792057175 $588 $642 forward 7 unknown #
vertex $-1 $587 $643 #
vertex $-1 $589 $644 #
straight-curve $-1 -52.095299019285221 -16.784069984663891 0 0 0 -1 I I #
coedge $-1 $524 $645 $646 $647 forward $287 $-1 #
coedge $-1 $648 $649 $524 $595 reversed $604 $-1 #
edge $-1 $650 -26.37330438429753 $597 26.37330438429753 $594 $651 forward 7 unknown #
coedge $-1 $533 $525 $649 $652 forward $369 $-1 #
vertex $-1 $595 $653 #
point $-1 -16.100385943209488 26.37330438429753 3.3243031821381805 #
coedge $-1 $654 $655 $533 $600 forward $626 $-1 #
edge $-1 $602 -58.93368327890866 $656 58.93368327890866 $533 $657 forward 7 unknown #
coedge $-1 $541 $534 $655 $658 reversed $542 $-1 #
vertex $-1 $600 $659 #
straight-curve $-1 -58.93368327890866 26.37330438429753 0 0 0 -1 I I #
loop $-1 $-1 $648 $536 #
plane-surface $-1 58.93368327890866 0 0 -1 0 0 0 0 1 forward_v I I I I #
coedge $-1 $645 $538 $582 $632 forward $287 $-1 #
coedge $-1 $660 $539 $541 $612 forward $609 $-1 #
coedge $-1 $539 $660 $586 $638 forward $609 $-1 #
loop $-1 $-1 $608 $625 #
vertex $-1 $638 $661 #
straight-curve $-1 0 -26.37330438429753 9.2551649459699963 1 0 0 I I #
edge $-1 $543 -9.2551649459699963 $662 9.2551649459699963 $541 $663 forward 7 unknown #
face $-1 $449 $542 $15 $-1 $664 reversed single #
point $-1 -58.93368327890866 -26.37330438429753 9.2551649459699963 #
straight-curve $-1 58.93368327890866 26.37330438429753 0 0 0 -1 I I #
edge $-1 $622 -58.93368327890866 $559 47.732799474300734 $554 $621 forward 7 unknown #
straight-curve $-1 -47.732799474300734 -10.789343592240355 9.2551649459699963 0 -1 0 I I #
straight-curve $-1 -47.732799474300734 -10.789343592240355 -9.2551649459699963 0 1 0 I I #
point $-1 -47.732799474300734 -26.37330438429753 9.2551649459699963 #
point $-1 -47.732799474300734 -26.37330438429753 -9.2551649459699963 #
straight-curve $-1 0 -26.37330438429753 -9.2551649459699963 -1 0 0 I I #
vertex $-1 $570 $665 #
straight-curve $-1 58.93368327890866 -26.37330438429753 0 0 0 -1 I I #
straight-curve $-1 58.93368327890866 0 -9.2551649459699963 0 -1 0 I I #
face $-1 $613 $609 $15 $-1 $580 reversed single #
loop $-1 $-1 $588 $578 #
plane-surface $-1 0 0 -9.2551649459699963 0 0 1 1 0 0 forward_v I I I I #
coedge $-1 $666 $646 $581 $631 forward $579 $-1 #
coedge $-1 $584 $581 $645 $667 reversed $517 $-1 #
coedge $-1 $581 $584 $668 $669 reversed $517 $-1 #
edge $-1 $670 -9.2551649459699963 $671 9.2551649459699963 $628 $672 forward 7 unknown #
edge $-1 $590 -27.138274395888732 $635 -22.775774850904245 $606 $673 forward 7 unknown #
coedge $-1 $588 $668 $583 $634 forward $626 $-1 #
edge $-1 $636 22.775774850904245 $591 27.138274395888732 $633 $674 forward 7 unknown #
vertex $-1 $632 $675 #
vertex $-1 $634 $676 #
straight-curve $-1 -47.732799474300734 -16.784069984663891 0 0 0 -1 I I #
edge $-1 $641 -9.2551649459699963 $610 9.2551649459699963 $608 $677 forward 7 unknown #
straight-curve $-1 -52.095299019285221 -10.789343592240355 9.2551649459699963 0 1 0 I I #
coedge $-1 $655 $588 $660 $678 forward $626 $-1 #
vertex $-1 $678 $679 #
straight-curve $-1 -52.095299019285221 -10.789343592240355 -9.2551649459699963 0 -1 0 I I #
point $-1 -52.095299019285221 -16.784069984663891 9.2551649459699963 #
point $-1 -52.095299019285221 -16.784069984663891 -9.2551649459699963 #
coedge $-1 $593 $606 $629 $667 forward $287 $-1 #
coedge $-1 $628 $680 $593 $647 reversed $579 $-1 #
edge $-1 $670 -47.732799474300734 $650 58.93368327890866 $646 $611 forward 7 unknown #
coedge $-1 $681 $594 $680 $682 forward $604 $-1 #
coedge $-1 $594 $681 $596 $652 reversed $604 $-1 #
vertex $-1 $595 $683 #
straight-curve $-1 58.93368327890866 0 9.2551649459699963 0 1 0 I I #
edge $-1 $597 -9.2551649459699963 $656 9.2551649459699963 $649 $684 forward 7 unknown #
point $-1 58.93368327890866 26.37330438429753 9.2551649459699963 #
coedge $-1 $685 $599 $681 $686 forward $626 $-1 #
coedge $-1 $599 $640 $601 $658 forward $626 $-1 #
vertex $-1 $686 $687 #
straight-curve $-1 0 26.37330438429753 -9.2551649459699963 1 0 0 I I #
edge $-1 $662 -26.37330438429753 $602 26.37330438429753 $601 $688 forward 7 unknown #
point $-1 -58.93368327890866 26.37330438429753 -9.2551649459699963 #
coedge $-1 $608 $607 $640 $678 reversed $609 $-1 #
point $-1 -52.095299019285221 -26.37330438429753 9.2551649459699963 #
vertex $-1 $658 $689 #
straight-curve $-1 -58.93368327890866 -26.37330438429753 0 0 0 -1 I I #
plane-surface $-1 -58.93368327890866 0 0 1 0 0 0 0 -1 forward_v I I I I #
point $-1 58.93368327890866 -26.37330438429753 -9.2551649459699963 #
coedge $-1 $680 $628 $685 $690 reversed $579 $-1 #
edge $-1 $635 5.9947263924235354 $670 15.583960792057175 $645 $691 forward 7 unknown #
coedge $-1 $633 $685 $630 $669 forward $626 $-1 #
edge $-1 $671 -15.583960792057175 $636 -5.9947263924235354 $668 $692 forward 7 unknown #
vertex $-1 $647 $693 #
vertex $-1 $631 $694 #
straight-curve $-1 -47.732799474300734 -26.37330438429753 0 0 0 -1 I I #
straight-curve $-1 -24.957024623396489 -16.784069984663891 9.2551649459699963 1 0 0 I I #
straight-curve $-1 -24.957024623396489 -16.784069984663891 -9.2551649459699963 -1 0 0 I I #
point $-1 -47.732799474300734 -16.784069984663891 9.2551649459699963 #
point $-1 -47.732799474300734 -16.784069984663891 -9.2551649459699963 #
straight-curve $-1 -52.095299019285221 -26.37330438429753 0 0 0 1 I I #
edge $-1 $641 52.095299019285221 $662 58.93368327890866 $660 $695 forward 7 unknown #
point $-1 -52.095299019285221 -26.37330438429753 -9.2551649459699963 #
coedge $-1 $646 $666 $648 $682 reversed $579 $-1 #
coedge $-1 $649 $648 $654 $686 reversed $604 $-1 #
edge $-1 $650 -9.2551649459699963 $696 9.2551649459699963 $648 $697 forward 7 unknown #
point $-1 58.93368327890866 -26.37330438429753 9.2551649459699963 #
straight-curve $-1 58.93368327890866 26.37330438429753 0 0 0 -1 I I #
coedge $-1 $668 $654 $666 $690 forward $626 $-1 #
edge $-1 $656 -26.37330438429753 $696 26.37330438429753 $681 $698 forward 7 unknown #
point $-1 58.93368327890866 26.37330438429753 -9.2551649459699963 #
straight-curve $-1 -58.93368327890866 0 -9.2551649459699963 0 1 0 I I #
point $-1 -58.93368327890866 -26.37330438429753 -9.2551649459699963 #
edge $-1 $696 -58.93368327890866 $671 47.732799474300734 $666 $695 forward 7 unknown #
straight-curve $-1 -47.732799474300734 -10.789343592240355 9.2551649459699963 0 -1 0 I I #
straight-curve $-1 -47.732799474300734 -10.789343592240355 -9.2551649459699963 0 1 0 I I #
point $-1 -47.732799474300734 -26.37330438429753 9.2551649459699963 #
point $-1 -47.732799474300734 -26.37330438429753 -9.2551649459699963 #
straight-curve $-1 0 -26.37330438429753 -9.2551649459699963 -1 0 0 I I #
vertex $-1 $682 $699 #
straight-curve $-1 58.93368327890866 -26.37330438429753 0 0 0 -1 I I #
straight-curve $-1 58.93368327890866 0 -9.2551649459699963 0 -1 0 I I #
point $-1 58.93368327890866 -26.37330438429753 -9.2551649459699963 #
End-of-ACIS-data 