500 0 8 0           
7 Unknown 11 ACIS 5.0 NT 24 Fri Mar 26 17:25:37 1999 
-1 9.9999999999999995e-007 1e-010 
body $-1 $8 $-1 $9 #
body $-1 $10 $-1 $11 #
body $-1 $12 $-1 $13 #
body $-1 $14 $-1 $15 #
body $-1 $16 $-1 $17 #
body $-1 $18 $-1 $19 #
body $-1 $20 $-1 $21 #
body $-1 $22 $-1 $23 #
lump $-1 $-1 $24 $0 #
transform $-1 1 0 0 0 1 0 0 0 1 44.035767693105868 27.882286430933746 11.300550202604127 1 rotate no_reflect no_shear #
lump $-1 $-1 $25 $1 #
transform $-1 1 0 0 0 1 0 0 0 1 44.035767693105868 27.882286430933746 11.300550202604127 1 rotate no_reflect no_shear #
lump $-1 $-1 $26 $2 #
transform $-1 1 0 0 0 1 0 0 0 1 44.035767693105868 27.882286430933746 11.300550202604127 1 rotate no_reflect no_shear #
lump $-1 $-1 $27 $3 #
transform $-1 1 0 0 0 1 0 0 0 1 44.035767693105868 27.882286430933746 11.300550202604127 1 rotate no_reflect no_shear #
lump $-1 $-1 $28 $4 #
transform $-1 1 0 0 0 1 0 0 0 1 44.035767693105868 27.882286430933746 11.300550202604127 1 rotate no_reflect no_shear #
lump $-1 $-1 $29 $5 #
transform $-1 1 0 0 0 1 0 0 0 1 44.035767693105868 27.882286430933746 11.300550202604127 1 rotate no_reflect no_shear #
lump $-1 $-1 $30 $6 #
transform $-1 1 0 0 0 1 0 0 0 1 44.035767693105868 27.882286430933746 11.300550202604127 1 rotate no_reflect no_shear #
lump $-1 $-1 $31 $7 #
transform $-1 1 0 0 0 1 0 0 0 1 44.035767693105868 27.882286430933746 11.300550202604127 1 rotate no_reflect no_shear #
shell $-1 $-1 $-1 $32 $-1 $8 #
shell $-1 $-1 $-1 $33 $-1 $10 #
shell $-1 $-1 $-1 $34 $-1 $12 #
shell $-1 $-1 $-1 $35 $-1 $14 #
shell $-1 $-1 $-1 $36 $-1 $16 #
shell $-1 $-1 $-1 $37 $-1 $18 #
shell $-1 $-1 $-1 $38 $-1 $20 #
shell $-1 $-1 $-1 $39 $-1 $22 #
face $-1 $40 $41 $24 $-1 $42 forward single #
face $-1 $43 $44 $25 $-1 $45 forward single #
face $-1 $46 $47 $26 $-1 $48 reversed single #
face $-1 $49 $50 $27 $-1 $51 forward single #
face $-1 $52 $53 $28 $-1 $54 forward single #
face $-1 $55 $56 $29 $-1 $57 reversed single #
face $-1 $58 $59 $30 $-1 $60 forward single #
face $-1 $61 $62 $31 $-1 $63 forward single #
face $-1 $64 $65 $24 $-1 $66 reversed single #
loop $-1 $-1 $67 $32 #
plane-surface $-1 0 0 11.300550202604127 0 0 1 1 0 0 forward_v I I I I #
face $-1 $68 $69 $25 $-1 $70 reversed single #
loop $-1 $-1 $71 $33 #
plane-surface $-1 0 -27.882286430933746 0 0 1 0 0 0 1 forward_v I I I I #
face $-1 $72 $73 $26 $-1 $74 reversed single #
loop $-1 $-1 $75 $34 #
plane-surface $-1 -98.2580197831509 12.434747774885523 73.277372186372617 0 1 0 -0.61566148304635926 0 0.78801074757464917 forward_v I I I I #
face $-1 $76 $77 $27 $-1 $78 forward single #
loop $-1 $79 $80 $35 #
cone-surface $-1 -38.550172043970136 15.398750242552822 6.6486518031793294 0.61566148304635926 0 -0.78801074757464917 0.78801074757464917 0 0.61566148304635926 1 I I 0 1 1 forward I I I I #
face $-1 $81 $82 $28 $-1 $83 forward single #
loop $-1 $84 $85 $36 #
cone-surface $-1 -38.550172043970136 19.844753944053764 6.6486518031793294 0.61566148304635926 0 -0.78801074757464917 0.78801074757464917 0 0.61566148304635926 1 I I 0 1 1 forward I I I I #
face $-1 $86 $87 $29 $-1 $88 reversed single #
loop $-1 $-1 $89 $37 #
plane-surface $-1 54.891187859922667 16.093834149771833 125.85149811246454 0 1 0 0.7660444514056185 0 0.64278759981090561 forward_v I I I I #
face $-1 $90 $91 $30 $-1 $92 forward single #
loop $-1 $93 $94 $38 #
cone-surface $-1 39.126709118047188 19.461963372960945 5.7717770120473908 -0.7660444514056185 0 -0.64278759981090561 0.64278759981090561 0 -0.7660444514056185 1 I I 0 1 1 forward I I I I #
face $-1 $95 $96 $31 $-1 $97 forward single #
loop $-1 $98 $99 $39 #
cone-surface $-1 39.126709118047188 24.514157207744624 5.7717770120473908 -0.7660444514056185 0 -0.64278759981090561 0.64278759981090561 0 -0.7660444514056185 1 I I 0 1 1 forward I I I I #
face $-1 $100 $101 $24 $-1 $102 reversed single #
loop $-1 $-1 $103 $40 #
plane-surface $-1 0 0 -11.300550202604127 0 0 1 1 0 0 forward_v I I I I #
coedge $-1 $104 $105 $106 $107 forward $41 $-1 #
face $-1 $108 $109 $25 $-1 $110 forward single #
loop $-1 $-1 $111 $43 #
plane-surface $-1 -44.035767693105868 0 0 1 0 0 0 0 -1 forward_v I I I I #
coedge $-1 $112 $113 $114 $115 forward $44 $-1 #
face $-1 $116 $117 $26 $-1 $118 reversed single #
loop $-1 $-1 $119 $46 #
plane-surface $-1 -44.035767693105875 17.621752093303293 3.8760557466367374 -0.61566148304635926 0 0.78801074757464917 0.78801074757464917 0 0.61566148304635926 forward_v I I I I #
coedge $-1 $120 $121 $122 $123 reversed $47 $-1 #
face $-1 $-1 $124 $27 $-1 $125 forward single #
loop $-1 $126 $127 $49 #
cone-surface $-1 -37.508205333443726 15.398750242552822 5.3149952579509065 0.61566148304635926 0 -0.78801074757464917 0.39400537378732459 0 0.30783074152317963 1 I I -0.70710678118654746 0.70710678118654746 0.5 forward I I I I #
loop $-1 $-1 $128 $35 #
coedge $-1 $80 $80 $129 $130 reversed $50 $-1 #
face $-1 $-1 $131 $28 $-1 $132 forward single #
loop $-1 $133 $134 $52 #
cone-surface $-1 -37.508205333443726 19.844753944053764 5.3149952579509065 0.61566148304635926 0 -0.78801074757464917 0.39400537378732459 0 0.30783074152317963 1 I I -0.70710678118654746 0.70710678118654746 0.5 forward I I I I #
loop $-1 $-1 $135 $36 #
coedge $-1 $85 $85 $136 $137 reversed $53 $-1 #
face $-1 $138 $139 $29 $-1 $140 reversed single #
loop $-1 $-1 $141 $55 #
plane-surface $-1 -12.575523149458419 21.988060290352792 69.240207269900253 0.7660444514056185 0 0.64278759981090561 0.64278759981090561 0 -0.7660444514056185 forward_v I I I I #
coedge $-1 $142 $143 $144 $145 reversed $56 $-1 #
face $-1 $-1 $146 $30 $-1 $147 forward single #
loop $-1 $148 $149 $58 #
cone-surface $-1 37.83170193714227 19.461963372960945 4.6851369926276849 -0.7660444514056185 0 -0.64278759981090561 0.3213937999054528 0 -0.38302222570280925 1 I I -0.70710678118654746 0.70710678118654746 0.5 forward I I I I #
loop $-1 $-1 $150 $38 #
coedge $-1 $94 $94 $151 $152 reversed $59 $-1 #
face $-1 $-1 $153 $31 $-1 $154 forward single #
loop $-1 $155 $156 $61 #
cone-surface $-1 37.83170193714227 24.514157207744624 4.6851369926276849 -0.7660444514056185 0 -0.64278759981090561 0.3213937999054528 0 -0.38302222570280925 1 I I -0.70710678118654746 0.70710678118654746 0.5 forward I I I I #
loop $-1 $-1 $157 $39 #
coedge $-1 $99 $99 $158 $159 reversed $62 $-1 #
face $-1 $160 $161 $24 $-1 $162 reversed single #
loop $-1 $-1 $163 $64 #
plane-surface $-1 0 -27.882286430933746 0 0 1 0 0 0 1 forward_v I I I I #
coedge $-1 $164 $165 $166 $167 forward $65 $-1 #
coedge $-1 $168 $67 $169 $170 forward $41 $-1 #
coedge $-1 $67 $168 $171 $172 forward $41 $-1 #
coedge $-1 $173 $174 $67 $107 reversed $175 $-1 #
edge $-1 $176 -27.882286430933746 $177 27.882286430933746 $106 $178 forward 7 unknown #
face $-1 $179 $180 $25 $-1 $181 reversed single #
loop $-1 $-1 $182 $68 #
plane-surface $-1 0 -34.235449753996285 7.7051557189193227 0 0 1 1 0 0 forward_v I I I I #
coedge $-1 $183 $184 $113 $185 forward $69 $-1 #
coedge $-1 $186 $71 $187 $188 reversed $44 $-1 #
coedge $-1 $71 $186 $111 $185 reversed $44 $-1 #
coedge $-1 $189 $182 $71 $115 reversed $109 $-1 #
edge $-1 $190 -44.035767693105868 $191 44.035767693105868 $114 $192 forward 7 unknown #
face $-1 $193 $194 $26 $-1 $195 forward single #
loop $-1 $-1 $196 $72 #
plane-surface $-1 -98.2580197831509 22.808756411721063 73.277372186372617 0 -1 0 0.61566148304635926 0 -0.78801074757464917 forward_v I I I I #
coedge $-1 $197 $198 $199 $200 reversed $73 $-1 #
coedge $-1 $121 $75 $201 $202 reversed $47 $-1 #
coedge $-1 $75 $120 $197 $203 reversed $47 $-1 #
coedge $-1 $199 $204 $75 $123 forward $194 $-1 #
edge $-1 $205 5.0932421984695821 $206 14.596161558734565 $122 $207 forward 7 unknown #
loop $-1 $-1 $129 $76 #
plane-surface $-1 -44.035767693105875 17.621752093303293 3.8760557466367374 -0.61566148304635926 0 0.78801074757464917 0.78801074757464917 0 0.61566148304635926 forward_v I I I I #
loop $-1 $-1 $208 $49 #
coedge $-1 $127 $127 $128 $209 reversed $77 $-1 #
coedge $-1 $128 $128 $127 $209 forward $79 $-1 #
coedge $-1 $129 $129 $80 $130 forward $124 $-1 #
edge $-1 $210 0 $210 6.2831853071796004 $129 $211 forward 7 unknown #
loop $-1 $-1 $136 $81 #
plane-surface $-1 -44.035767693105875 17.621752093303293 3.8760557466367374 -0.61566148304635926 0 0.78801074757464917 0.78801074757464917 0 0.61566148304635926 forward_v I I I I #
loop $-1 $-1 $212 $52 #
coedge $-1 $134 $134 $135 $213 reversed $82 $-1 #
coedge $-1 $135 $135 $134 $213 forward $84 $-1 #
coedge $-1 $136 $136 $85 $137 forward $131 $-1 #
edge $-1 $214 0 $214 6.2831853071796004 $136 $215 forward 7 unknown #
face $-1 $216 $217 $29 $-1 $218 forward single #
loop $-1 $-1 $219 $86 #
plane-surface $-1 0 27.882286430933746 0 0 -1 0 0 0 -1 forward_v I I I I #
coedge $-1 $220 $221 $222 $223 reversed $87 $-1 #
coedge $-1 $143 $89 $224 $225 reversed $56 $-1 #
coedge $-1 $89 $142 $220 $226 reversed $56 $-1 #
coedge $-1 $222 $227 $89 $145 forward $228 $-1 #
edge $-1 $229 51.625198853628142 $230 61.152252795713117 $144 $231 forward 7 unknown #
loop $-1 $-1 $151 $90 #
plane-surface $-1 -12.575523149458419 21.988060290352792 69.240207269900253 0.7660444514056185 0 0.64278759981090561 0.64278759981090561 0 -0.7660444514056185 forward_v I I I I #
loop $-1 $-1 $232 $58 #
coedge $-1 $149 $149 $150 $233 reversed $91 $-1 #
coedge $-1 $150 $150 $149 $233 forward $93 $-1 #
coedge $-1 $151 $151 $94 $152 forward $146 $-1 #
edge $-1 $234 0 $234 6.2831853071796004 $151 $235 forward 7 unknown #
loop $-1 $-1 $158 $95 #
plane-surface $-1 -12.575523149458419 21.988060290352792 69.240207269900253 0.7660444514056185 0 0.64278759981090561 0.64278759981090561 0 -0.7660444514056185 forward_v I I I I #
loop $-1 $-1 $236 $61 #
coedge $-1 $156 $156 $157 $237 reversed $96 $-1 #
coedge $-1 $157 $157 $156 $237 forward $98 $-1 #
coedge $-1 $158 $158 $99 $159 forward $153 $-1 #
edge $-1 $238 0 $238 6.2831853071796004 $158 $239 forward 7 unknown #
face $-1 $240 $241 $24 $-1 $242 reversed single #
loop $-1 $-1 $243 $100 #
plane-surface $-1 -44.035767693105868 0 0 1 0 0 0 0 -1 forward_v I I I I #
coedge $-1 $244 $171 $245 $246 forward $101 $-1 #
coedge $-1 $247 $103 $244 $248 forward $65 $-1 #
coedge $-1 $103 $247 $249 $250 forward $65 $-1 #
coedge $-1 $174 $173 $103 $167 reversed $175 $-1 #
edge $-1 $251 -27.882286430933746 $252 27.882286430933746 $166 $253 forward 7 unknown #
coedge $-1 $105 $104 $254 $255 forward $41 $-1 #
coedge $-1 $256 $257 $104 $170 reversed $241 $-1 #
edge $-1 $177 -44.035767693105868 $258 44.035767693105868 $169 $259 forward 7 unknown #
coedge $-1 $163 $260 $105 $172 reversed $101 $-1 #
edge $-1 $261 -44.035767693105868 $176 44.035767693105868 $171 $262 forward 7 unknown #
coedge $-1 $166 $106 $260 $263 forward $175 $-1 #
coedge $-1 $106 $166 $256 $264 reversed $175 $-1 #
loop $-1 $-1 $173 $240 #
vertex $-1 $107 $265 #
vertex $-1 $107 $266 #
straight-curve $-1 44.035767693105868 0 11.300550202604127 0 1 0 I I #
face $-1 $267 $268 $25 $-1 $269 reversed single #
loop $-1 $-1 $270 $108 #
plane-surface $-1 0 -34.235449753996285 4.6446575772539402 0 0 1 1 0 0 forward_v I I I I #
coedge $-1 $114 $271 $272 $273 forward $109 $-1 #
coedge $-1 $274 $111 $275 $276 reversed $69 $-1 #
coedge $-1 $111 $274 $189 $277 reversed $69 $-1 #
edge $-1 $190 -7.7051557189193227 $278 -4.6446575772539402 $111 $279 forward 7 unknown #
coedge $-1 $113 $112 $280 $281 forward $44 $-1 #
coedge $-1 $272 $282 $112 $188 forward $283 $-1 #
edge $-1 $284 4.6446575772539402 $191 7.7051557189193227 $187 $285 forward 7 unknown #
coedge $-1 $271 $114 $184 $277 forward $109 $-1 #
vertex $-1 $185 $286 #
vertex $-1 $273 $287 #
straight-curve $-1 0 -27.882286430933746 7.7051557189193227 1 0 0 I I #
face $-1 $-1 $288 $26 $-1 $289 reversed single #
loop $-1 $-1 $122 $116 #
plane-surface $-1 0 0 11.300550202604127 0 0 1 1 0 0 forward_v I I I I #
coedge $-1 $290 $291 $292 $293 reversed $117 $-1 #
coedge $-1 $294 $119 $121 $203 forward $73 $-1 #
coedge $-1 $119 $294 $290 $295 forward $73 $-1 #
coedge $-1 $292 $122 $119 $200 forward $194 $-1 #
edge $-1 $206 3.6238717282338762 $296 13.997880365069417 $199 $297 forward 7 unknown #
coedge $-1 $298 $299 $120 $202 forward $288 $-1 #
edge $-1 $300 -32.762630346549564 $205 -25.33813589058218 $201 $301 forward 7 unknown #
edge $-1 $206 -12.059377856854375 $300 -9.1534652039358102e-015 $121 $302 forward 7 unknown #
coedge $-1 $122 $292 $298 $303 forward $194 $-1 #
vertex $-1 $202 $304 #
vertex $-1 $123 $305 #
straight-curve $-1 -49.12900989157545 12.434747774885523 11.300550202604128 1 0 0 I I #
coedge $-1 $208 $208 $-1 $306 reversed $126 $-1 #
edge $-1 $307 0 $307 6.2831853071796004 $127 $308 forward 7 unknown #
vertex $-1 $130 $309 #
ellipse-curve $-1 -39.284308012973376 15.398750242552822 7.5883029746204373 -0.61566148304635926 0 0.78801074757464917 0.78801074757464917 0 0.61566148304635926 1 I I #
coedge $-1 $212 $212 $-1 $310 reversed $133 $-1 #
edge $-1 $311 0 $311 6.2831853071796004 $134 $312 forward 7 unknown #
vertex $-1 $137 $313 #
ellipse-curve $-1 -39.284308012973376 19.844753944053764 7.5883029746204373 -0.61566148304635926 0 0.78801074757464917 0.78801074757464917 0 0.61566148304635926 1 I I #
face $-1 $-1 $228 $29 $-1 $314 reversed single #
loop $-1 $-1 $315 $138 #
plane-surface $-1 0 0 11.300550202604127 0 0 1 1 0 0 forward_v I I I I #
coedge $-1 $316 $317 $221 $318 forward $139 $-1 #
coedge $-1 $319 $141 $143 $226 forward $87 $-1 #
coedge $-1 $141 $319 $219 $318 reversed $87 $-1 #
coedge $-1 $320 $144 $141 $223 forward $228 $-1 #
edge $-1 $230 5.0998040045954376 $321 16.88825628575735 $222 $322 forward 7 unknown #
coedge $-1 $323 $315 $142 $225 forward $217 $-1 #
edge $-1 $324 8.5960265234313553 $229 16.590173763144534 $224 $325 forward 7 unknown #
edge $-1 $230 -88.071535386211778 $324 -75.634849858885346 $143 $326 forward 7 unknown #
coedge $-1 $144 $320 $323 $327 reversed $228 $-1 #
loop $-1 $-1 $222 $216 #
vertex $-1 $327 $328 #
vertex $-1 $145 $329 #
straight-curve $-1 44.035767693105868 16.093834149771833 62.92574905623227 0 0 -1 I I #
coedge $-1 $232 $232 $-1 $330 reversed $148 $-1 #
edge $-1 $331 0 $331 6.2831853071796004 $149 $332 forward 7 unknown #
vertex $-1 $152 $333 #
ellipse-curve $-1 40.038694073249282 19.461963372960945 6.5370232315616308 0.7660444514056185 0 0.64278759981090561 0.64278759981090561 0 -0.7660444514056185 1 I I #
coedge $-1 $236 $236 $-1 $334 reversed $155 $-1 #
edge $-1 $335 0 $335 6.2831853071796004 $156 $336 forward 7 unknown #
vertex $-1 $159 $337 #
ellipse-curve $-1 40.038694073249282 24.514157207744624 6.5370232315616308 0.7660444514056185 0 0.64278759981090561 0.64278759981090561 0 -0.7660444514056185 1 I I #
face $-1 $-1 $175 $24 $-1 $338 reversed single #
loop $-1 $-1 $256 $160 #
plane-surface $-1 0 27.882286430933746 0 0 -1 0 0 0 -1 forward_v I I I I #
coedge $-1 $339 $254 $257 $340 forward $161 $-1 #
coedge $-1 $260 $163 $164 $248 reversed $101 $-1 #
coedge $-1 $254 $339 $163 $246 reversed $161 $-1 #
edge $-1 $261 -11.300550202604127 $341 11.300550202604127 $245 $342 forward 7 unknown #
coedge $-1 $165 $164 $339 $343 forward $65 $-1 #
edge $-1 $252 -44.035767693105868 $341 44.035767693105868 $244 $344 forward 7 unknown #
coedge $-1 $257 $256 $165 $250 reversed $241 $-1 #
edge $-1 $345 -44.035767693105868 $251 44.035767693105868 $249 $346 forward 7 unknown #
vertex $-1 $167 $347 #
vertex $-1 $263 $348 #
straight-curve $-1 44.035767693105868 0 -11.300550202604127 0 -1 0 I I #
coedge $-1 $243 $245 $168 $255 reversed $161 $-1 #
edge $-1 $258 -27.882286430933746 $261 27.882286430933746 $254 $349 forward 7 unknown #
coedge $-1 $249 $169 $174 $264 forward $241 $-1 #
coedge $-1 $169 $249 $243 $340 reversed $241 $-1 #
vertex $-1 $170 $350 #
straight-curve $-1 0 27.882286430933746 11.300550202604127 -1 0 0 I I #
coedge $-1 $171 $244 $173 $263 reversed $101 $-1 #
vertex $-1 $255 $351 #
straight-curve $-1 0 -27.882286430933746 11.300550202604127 1 0 0 I I #
edge $-1 $176 -11.300550202604127 $252 11.300550202604127 $173 $352 forward 7 unknown #
edge $-1 $177 -11.300550202604127 $251 11.300550202604127 $174 $353 forward 7 unknown #
point $-1 44.035767693105868 -27.882286430933746 11.300550202604127 #
point $-1 44.035767693105868 27.882286430933746 11.300550202604127 #
face $-1 $-1 $283 $25 $-1 $354 reversed single #
loop $-1 $-1 $355 $179 #
plane-surface $-1 0 -40.588613077058824 6.1749066480866315 0 1 0 0 0 1 forward_v I I I I #
coedge $-1 $356 $280 $282 $357 forward $180 $-1 #
coedge $-1 $182 $189 $358 $359 forward $109 $-1 #
coedge $-1 $360 $187 $182 $273 reversed $283 $-1 #
edge $-1 $361 -6.3531633230625388 $191 6.3531633230625388 $272 $362 forward 7 unknown #
coedge $-1 $184 $183 $355 $363 reversed $69 $-1 #
coedge $-1 $280 $356 $183 $276 forward $180 $-1 #
edge $-1 $364 -6.3531633230625388 $278 6.3531633230625388 $183 $365 forward 7 unknown #
edge $-1 $190 -6.3531633230625388 $366 6.3531633230625388 $184 $367 forward 7 unknown #
vertex $-1 $185 $368 #
straight-curve $-1 -44.035767693105868 -27.882286430933746 0 0 0 -1 I I #
coedge $-1 $270 $275 $186 $281 reversed $180 $-1 #
edge $-1 $284 -44.035767693105868 $278 44.035767693105868 $280 $369 forward 7 unknown #
coedge $-1 $187 $360 $270 $357 reversed $283 $-1 #
loop $-1 $-1 $187 $267 #
vertex $-1 $188 $370 #
straight-curve $-1 44.035767693105868 -27.882286430933746 0 0 0 1 I I #
point $-1 -44.035767693105868 -27.882286430933746 7.7051557189193227 #
point $-1 44.035767693105868 -27.882286430933746 7.7051557189193227 #
loop $-1 $-1 $201 $193 #
plane-surface $-1 -44.035767693105868 0 0 1 0 0 0 0 -1 forward_v I I I I #
coedge $-1 $291 $196 $198 $295 reversed $117 $-1 #
coedge $-1 $196 $290 $371 $372 reversed $117 $-1 #
coedge $-1 $204 $199 $196 $293 forward $194 $-1 #
edge $-1 $296 -14.596161558734565 $373 -5.0932421984695821 $292 $374 forward 7 unknown #
coedge $-1 $198 $197 $299 $375 reversed $73 $-1 #
edge $-1 $376 9.1534652039358102e-015 $296 12.059377856854375 $290 $377 forward 7 unknown #
vertex $-1 $200 $378 #
straight-curve $-1 -34.532848332840885 8.8108760466516465 11.300550202604125 0 1 0 I I #
coedge $-1 $371 $201 $204 $303 reversed $288 $-1 #
coedge $-1 $201 $371 $294 $375 forward $288 $-1 #
vertex $-1 $202 $379 #
straight-curve $-1 -44.035767693105868 12.434747774885523 36.638686093186308 0 0 1 I I #
straight-curve $-1 -44.035767693105875 12.434747774885523 3.8760557466367374 -0.78801074757464917 0 -0.61566148304635926 I I #
edge $-1 $373 -22.808756411721063 $205 -12.434747774885523 $298 $380 forward 7 unknown #
point $-1 -44.035767693105868 12.434747774885523 11.300550202604127 #
point $-1 -34.532848332840885 12.434747774885523 11.300550202604127 #
edge $-1 $381 1 $381 0 $208 $-1 forward 7 unknown #
vertex $-1 $209 $382 #
ellipse-curve $-1 -37.816036074966902 15.398750242552822 5.7090006317382311 -0.61566148304635926 0 0.78801074757464917 0.78801074757464917 0 0.61566148304635926 1 I I #
point $-1 -38.496297265398717 15.398750242552822 8.2039644576667872 #
edge $-1 $383 1 $383 0 $212 $-1 forward 7 unknown #
vertex $-1 $213 $384 #
ellipse-curve $-1 -37.816036074966902 19.844753944053764 5.7090006317382311 -0.61566148304635926 0 0.78801074757464917 0.78801074757464917 0 0.61566148304635926 1 I I #
point $-1 -38.496297265398717 19.844753944053764 8.2039644576667872 #
plane-surface $-1 44.035767693105868 0 0 -1 0 0 0 0 1 forward_v I I I I #
coedge $-1 $224 $385 $319 $386 forward $217 $-1 #
coedge $-1 $317 $219 $385 $387 reversed $139 $-1 #
coedge $-1 $219 $316 $320 $388 forward $139 $-1 #
edge $-1 $321 -57.509301918767299 $389 -45.072616391440867 $219 $390 forward 7 unknown #
coedge $-1 $221 $220 $315 $386 reversed $87 $-1 #
coedge $-1 $227 $222 $317 $388 reversed $228 $-1 #
vertex $-1 $318 $391 #
straight-curve $-1 44.035767693105868 10.994030145176396 1.7734962605191598 0 1 0 I I #
coedge $-1 $385 $224 $227 $327 forward $217 $-1 #
vertex $-1 $225 $392 #
straight-curve $-1 27.445593929961333 16.093834149771833 11.300550202604128 1 0 0 I I #
straight-curve $-1 -12.575523149458419 16.093834149771833 69.240207269900253 -0.64278759981090561 0 0.7660444514056185 I I #
edge $-1 $229 16.093834149771833 $393 27.882286430933746 $227 $394 forward 7 unknown #
point $-1 44.035767693105868 16.093834149771833 11.300550202604127 #
point $-1 44.035767693105875 16.093834149771833 1.7734962605191527 #
edge $-1 $395 1 $395 0 $232 $-1 forward 7 unknown #
vertex $-1 $233 $396 #
ellipse-curve $-1 38.21472416284508 19.461963372960945 5.0065307925331375 0.7660444514056185 0 0.64278759981090561 0.64278759981090561 0 -0.7660444514056185 1 I I #
point $-1 40.681481673060205 19.461963372960945 5.7709787801560246 #
edge $-1 $397 1 $397 0 $236 $-1 forward 7 unknown #
vertex $-1 $237 $398 #
ellipse-curve $-1 38.21472416284508 24.514157207744624 5.0065307925331375 0.7660444514056185 0 0.64278759981090561 0.64278759981090561 0 -0.7660444514056185 1 I I #
point $-1 40.681481673060205 24.514157207744624 5.7709787801560246 #
plane-surface $-1 44.035767693105868 0 0 -1 0 0 0 0 1 forward_v I I I I #
coedge $-1 $245 $243 $247 $343 reversed $161 $-1 #
edge $-1 $258 -11.300550202604127 $345 11.300550202604127 $257 $399 forward 7 unknown #
vertex $-1 $343 $400 #
straight-curve $-1 -44.035767693105868 -27.882286430933746 0 0 0 -1 I I #
edge $-1 $341 -27.882286430933746 $345 27.882286430933746 $339 $401 forward 7 unknown #
straight-curve $-1 0 -27.882286430933746 -11.300550202604127 -1 0 0 I I #
vertex $-1 $250 $402 #
straight-curve $-1 0 27.882286430933746 -11.300550202604127 1 0 0 I I #
point $-1 44.035767693105868 27.882286430933746 -11.300550202604127 #
point $-1 44.035767693105868 -27.882286430933746 -11.300550202604127 #
straight-curve $-1 -44.035767693105868 0 11.300550202604127 0 -1 0 I I #
point $-1 -44.035767693105868 27.882286430933746 11.300550202604127 #
point $-1 -44.035767693105868 -27.882286430933746 11.300550202604127 #
straight-curve $-1 44.035767693105868 -27.882286430933746 0 0 0 -1 I I #
straight-curve $-1 44.035767693105868 27.882286430933746 0 0 0 -1 I I #
plane-surface $-1 44.035767693105868 0 0 -1 0 0 0 0 1 forward_v I I I I #
coedge $-1 $403 $358 $274 $363 forward $268 $-1 #
coedge $-1 $275 $270 $403 $404 forward $180 $-1 #
edge $-1 $284 -6.3531633230625388 $405 6.3531633230625388 $282 $406 forward 7 unknown #
coedge $-1 $355 $407 $271 $359 reversed $268 $-1 #
edge $-1 $366 -44.035767693105868 $361 44.035767693105868 $358 $408 forward 7 unknown #
coedge $-1 $282 $272 $407 $409 forward $283 $-1 #
vertex $-1 $273 $410 #
straight-curve $-1 44.035767693105868 -34.235449753996285 7.7051557189193227 0 1 0 I I #
edge $-1 $366 -1.5302490708326912 $364 1.5302490708326912 $274 $411 forward 7 unknown #
vertex $-1 $276 $412 #
straight-curve $-1 -44.035767693105868 -34.235449753996285 4.6446575772539402 0 1 0 I I #
vertex $-1 $277 $413 #
straight-curve $-1 -44.035767693105868 -34.235449753996285 7.7051557189193227 0 -1 0 I I #
point $-1 -44.035767693105868 -27.882286430933746 4.6446575772539402 #
straight-curve $-1 0 -27.882286430933746 4.6446575772539402 -1 0 0 I I #
point $-1 44.035767693105868 -27.882286430933746 4.6446575772539402 #
coedge $-1 $299 $298 $291 $372 forward $288 $-1 #
edge $-1 $373 25.33813589058218 $376 32.762630346549564 $371 $414 forward 7 unknown #
vertex $-1 $303 $415 #
straight-curve $-1 -49.12900989157545 22.808756411721063 11.300550202604128 -1 0 0 I I #
edge $-1 $376 -13.997880365069417 $300 -3.6238717282338762 $299 $416 forward 7 unknown #
vertex $-1 $375 $417 #
straight-curve $-1 -44.035767693105875 22.808756411721063 3.8760557466367374 0.78801074757464917 0 0.61566148304635926 I I #
point $-1 -34.532848332840885 22.808756411721063 11.300550202604127 #
point $-1 -44.035767693105868 12.434747774885523 3.8760557466367431 #
straight-curve $-1 -44.035767693105868 0 11.300550202604127 0 -1 0 I I #
vertex $-1 $306 $418 #
point $-1 -37.028025327392257 15.398750242552822 6.3246621147845907 #
vertex $-1 $310 $419 #
point $-1 -37.028025327392257 19.844753944053764 6.3246621147845907 #
coedge $-1 $315 $323 $316 $387 forward $217 $-1 #
edge $-1 $389 -16.888256285757354 $324 -5.0998040045954376 $315 $420 forward 7 unknown #
edge $-1 $393 -44.035767693105868 $389 -36.041620453392689 $316 $421 forward 7 unknown #
edge $-1 $393 -11.300550202604127 $321 -1.7734962605191524 $320 $422 forward 7 unknown #
vertex $-1 $318 $423 #
straight-curve $-1 7.0695015459407333 27.882286430933746 45.828177899601329 -0.64278759981090572 0 0.76604445140561861 I I #
point $-1 44.035767693105868 27.882286430933746 1.7734962605191524 #
point $-1 36.041620453392689 16.093834149771833 11.300550202604128 #
vertex $-1 $327 $424 #
straight-curve $-1 44.035767693105868 0 11.300550202604127 0 1 0 I I #
vertex $-1 $330 $425 #
point $-1 38.857511762655989 19.461963372960945 4.2404863411275189 #
vertex $-1 $334 $426 #
point $-1 38.857511762655989 24.514157207744624 4.2404863411275189 #
straight-curve $-1 -44.035767693105868 27.882286430933746 0 0 0 -1 I I #
point $-1 -44.035767693105868 -27.882286430933746 -11.300550202604127 #
straight-curve $-1 -44.035767693105868 0 -11.300550202604127 0 1 0 I I #
point $-1 -44.035767693105868 27.882286430933746 -11.300550202604127 #
coedge $-1 $407 $355 $356 $404 reversed $268 $-1 #
edge $-1 $405 -44.035767693105868 $364 44.035767693105868 $403 $427 forward 7 unknown #
vertex $-1 $409 $428 #
straight-curve $-1 44.035767693105868 -34.235449753996285 4.6446575772539402 0 -1 0 I I #
coedge $-1 $358 $403 $360 $409 reversed $268 $-1 #
straight-curve $-1 0 -40.588613077058824 7.7051557189193227 1 0 0 I I #
edge $-1 $361 -1.5302490708326912 $405 1.5302490708326912 $360 $429 forward 7 unknown #
point $-1 44.035767693105868 -40.588613077058824 7.7051557189193227 #
straight-curve $-1 -44.035767693105868 -40.588613077058824 6.1749066480866315 0 0 -1 I I #
point $-1 -44.035767693105868 -40.588613077058824 4.6446575772539402 #
point $-1 -44.035767693105868 -40.588613077058824 7.7051557189193227 #
straight-curve $-1 -44.035767693105868 22.808756411721063 36.638686093186308 0 0 -1 I I #
point $-1 -44.035767693105868 22.808756411721063 11.300550202604127 #
straight-curve $-1 -44.035767693105868 8.8108760466516465 3.8760557466367431 0 -1 0 I I #
point $-1 -44.035767693105868 22.808756411721063 3.8760557466367431 #
point $-1 -37.20037459192055 15.398750242552822 4.920989884163582 #
point $-1 -37.20037459192055 19.844753944053764 4.920989884163582 #
straight-curve $-1 36.041620453392682 10.994030145176396 11.300550202604128 0 -1 0 I I #
straight-curve $-1 0 27.882286430933746 11.300550202604127 -1 0 0 I I #
straight-curve $-1 44.035767693105868 27.882286430933746 0 0 0 -1 I I #
point $-1 36.041620453392689 27.88228643093375 11.300550202604128 #
point $-1 44.035767693105868 27.882286430933746 11.300550202604127 #
point $-1 37.448679711439461 19.461963372960945 4.3637431927222323 #
point $-1 37.448679711439461 24.514157207744624 4.3637431927222323 #
straight-curve $-1 0 -40.588613077058824 4.6446575772539402 -1 0 0 I I #
point $-1 44.035767693105868 -40.588613077058824 4.6446575772539402 #
straight-curve $-1 44.035767693105868 -40.588613077058824 6.1749066480866315 0 0 -1 I I #
End-of-ACIS-data 