500 0 9 0           
7 Unknown 11 ACIS 5.0 NT 24 Thu Mar 25 15:47:46 1999 
-1 9.9999999999999995e-007 1e-010 
body $-1 $9 $-1 $10 #
body $-1 $11 $-1 $12 #
body $-1 $13 $-1 $14 #
body $-1 $15 $-1 $16 #
body $-1 $17 $-1 $18 #
body $-1 $19 $-1 $20 #
body $-1 $21 $-1 $22 #
body $-1 $23 $-1 $24 #
body $-1 $25 $-1 $26 #
lump $-1 $-1 $27 $0 #
transform $-1 1 0 0 0 1 0 0 0 1 62.401806695760982 27.558528535224088 6.6011956775800904 1 rotate no_reflect no_shear #
lump $-1 $-1 $28 $1 #
transform $-1 1 0 0 0 1 0 0 0 1 62.401806695760982 27.558528535224088 6.6011956775800904 1 rotate no_reflect no_shear #
lump $-1 $-1 $29 $2 #
transform $-1 1 0 0 0 1 0 0 0 1 62.401806695760982 27.558528535224088 6.6011956775800904 1 rotate no_reflect no_shear #
lump $-1 $-1 $30 $3 #
transform $-1 1 0 0 0 1 0 0 0 1 62.401806695760982 27.558528535224088 6.6011956775800904 1 rotate no_reflect no_shear #
lump $-1 $-1 $31 $4 #
transform $-1 1 0 0 0 1 0 0 0 1 62.401806695760982 27.558528535224088 6.6011956775800904 1 rotate no_reflect no_shear #
lump $-1 $-1 $32 $5 #
transform $-1 1 0 0 0 1 0 0 0 1 62.401806695760982 27.558528535224088 6.6011956775800904 1 rotate no_reflect no_shear #
lump $-1 $-1 $33 $6 #
transform $-1 1 0 0 0 1 0 0 0 1 62.401806695760982 27.558528535224088 6.6011956775800904 1 rotate no_reflect no_shear #
lump $-1 $-1 $34 $7 #
transform $-1 1 0 0 0 1 0 0 0 1 62.401806695760982 27.558528535224088 6.6011956775800904 1 rotate no_reflect no_shear #
lump $-1 $-1 $35 $8 #
transform $-1 1 0 0 0 1 0 0 0 1 62.401806695760982 27.558528535224088 6.6011956775800904 1 rotate no_reflect no_shear #
shell $-1 $-1 $-1 $36 $-1 $9 #
shell $-1 $-1 $-1 $37 $-1 $11 #
shell $-1 $-1 $-1 $38 $-1 $13 #
shell $-1 $-1 $-1 $39 $-1 $15 #
shell $-1 $-1 $-1 $40 $-1 $17 #
shell $-1 $-1 $-1 $41 $-1 $19 #
shell $-1 $-1 $-1 $42 $-1 $21 #
shell $-1 $-1 $-1 $43 $-1 $23 #
shell $-1 $-1 $-1 $44 $-1 $25 #
face $-1 $45 $46 $27 $-1 $47 forward single #
face $-1 $48 $49 $28 $-1 $50 forward single #
face $-1 $51 $52 $29 $-1 $53 forward single #
face $-1 $54 $55 $30 $-1 $56 reversed single #
face $-1 $57 $58 $31 $-1 $59 forward single #
face $-1 $60 $61 $32 $-1 $62 forward single #
face $-1 $63 $64 $33 $-1 $65 reversed single #
face $-1 $66 $67 $34 $-1 $68 forward single #
face $-1 $69 $70 $35 $-1 $71 forward single #
face $-1 $72 $73 $27 $-1 $74 reversed single #
loop $-1 $-1 $75 $36 #
plane-surface $-1 0 0 6.6011956775800904 0 0 1 1 0 0 forward_v I I I I #
face $-1 $76 $77 $28 $-1 $78 reversed single #
loop $-1 $-1 $79 $37 #
plane-surface $-1 0 -24.831263891135478 6.1011956775800904 0 0 1 1 0 0 forward_v I I I I #
face $-1 $80 $81 $29 $-1 $82 reversed single #
loop $-1 $-1 $83 $38 #
plane-surface $-1 0 25.022065381239425 4.9665463470160791 0 0 1 1 0 0 forward_v I I I I #
face $-1 $84 $85 $30 $-1 $86 reversed single #
loop $-1 $-1 $87 $39 #
plane-surface $-1 -140.94326645503986 -15.219419899671518 97.758186753568708 0 -1 0 0.62932039886446345 0 -0.77714595512881146 forward_v I I I I #
face $-1 $88 $89 $31 $-1 $90 forward single #
loop $-1 $91 $92 $40 #
cone-surface $-1 -58.354722411978273 -20.136976576368198 3.1347065655591848 0.62932039886446345 0 -0.77714595512881146 0.38857297756440573 0 0.31466019943223172 1 I I 0 1 0.5 forward I I I I #
face $-1 $93 $94 $32 $-1 $95 forward single #
loop $-1 $96 $97 $41 #
cone-surface $-1 -58.354722411978273 -17.186442570350192 3.1347065655591848 0.62932039886446345 0 -0.77714595512881146 0.38857297756440573 0 0.31466019943223172 1 I I 0 1 0.5 forward I I I I #
face $-1 $98 $99 $33 $-1 $100 reversed single #
loop $-1 $-1 $101 $42 #
plane-surface $-1 -140.94326645503986 0.19080149010394987 97.758186753568708 0 1 0 -0.62932039886446345 0 0.77714595512881146 forward_v I I I I #
face $-1 $102 $103 $34 $-1 $104 forward single #
loop $-1 $105 $106 $43 #
cone-surface $-1 -58.354722411978273 2.1578241607826207 3.1347065655591848 0.62932039886446345 0 -0.77714595512881146 0.38857297756440573 0 0.31466019943223172 1 I I 0 1 0.5 forward I I I I #
face $-1 $107 $108 $35 $-1 $109 forward single #
loop $-1 $110 $111 $44 #
cone-surface $-1 -58.354722411978273 5.1083581668006239 3.1347065655591848 0.62932039886446345 0 -0.77714595512881146 0.38857297756440573 0 0.31466019943223172 1 I I 0 1 0.5 forward I I I I #
face $-1 $112 $113 $27 $-1 $114 reversed single #
loop $-1 $-1 $115 $45 #
plane-surface $-1 0 0 -6.6011956775800904 0 0 1 1 0 0 forward_v I I I I #
coedge $-1 $116 $117 $118 $119 forward $46 $-1 #
face $-1 $120 $121 $28 $-1 $122 reversed single #
loop $-1 $-1 $123 $48 #
plane-surface $-1 0 -24.831263891135478 2.9906337860132055 0 0 1 1 0 0 forward_v I I I I #
coedge $-1 $124 $125 $126 $127 reversed $49 $-1 #
face $-1 $128 $129 $29 $-1 $130 reversed single #
loop $-1 $-1 $131 $51 #
plane-surface $-1 0 25.022065381239425 1.9665463470160791 0 0 1 1 0 0 forward_v I I I I #
coedge $-1 $132 $133 $134 $135 reversed $52 $-1 #
face $-1 $136 $137 $30 $-1 $138 forward single #
loop $-1 $-1 $139 $54 #
plane-surface $-1 -62.401806695760968 -18.661709573359193 0.76756342088744134 -0.62932039886446345 0 0.77714595512881146 0.77714595512881146 0 0.62932039886446345 forward_v I I I I #
coedge $-1 $140 $141 $142 $143 reversed $55 $-1 #
face $-1 $-1 $144 $31 $-1 $145 forward single #
loop $-1 $146 $147 $57 #
cone-surface $-1 -57.752275897452051 -20.136976576368198 2.3907470931023909 0.62932039886446345 0 -0.77714595512881146 0.19428648878220287 0 0.15733009971611586 1 I I -0.70710678118654746 0.70710678118654746 0.25 forward I I I I #
loop $-1 $-1 $148 $40 #
coedge $-1 $92 $92 $149 $150 reversed $58 $-1 #
face $-1 $-1 $151 $32 $-1 $152 forward single #
loop $-1 $153 $154 $60 #
cone-surface $-1 -57.752275897452051 -17.186442570350192 2.3907470931023909 0.62932039886446345 0 -0.77714595512881146 0.19428648878220287 0 0.15733009971611586 1 I I -0.70710678118654746 0.70710678118654746 0.25 forward I I I I #
loop $-1 $-1 $155 $41 #
coedge $-1 $97 $97 $156 $157 reversed $61 $-1 #
face $-1 $158 $159 $33 $-1 $160 reversed single #
loop $-1 $-1 $161 $63 #
plane-surface $-1 -62.401806695760968 3.6330911637916259 0.76756342088744134 -0.62932039886446345 0 0.77714595512881146 0.77714595512881146 0 0.62932039886446345 forward_v I I I I #
coedge $-1 $162 $163 $164 $165 reversed $64 $-1 #
face $-1 $-1 $166 $34 $-1 $167 forward single #
loop $-1 $168 $169 $66 #
cone-surface $-1 -57.752275897452051 2.1578241607826207 2.3907470931023909 0.62932039886446345 0 -0.77714595512881146 0.19428648878220287 0 0.15733009971611586 1 I I -0.70710678118654746 0.70710678118654746 0.25 forward I I I I #
loop $-1 $-1 $170 $43 #
coedge $-1 $106 $106 $171 $172 reversed $67 $-1 #
face $-1 $-1 $173 $35 $-1 $174 forward single #
loop $-1 $175 $176 $69 #
cone-surface $-1 -57.752275897452051 5.1083581668006239 2.3907470931023909 0.62932039886446345 0 -0.77714595512881146 0.19428648878220287 0 0.15733009971611586 1 I I -0.70710678118654746 0.70710678118654746 0.25 forward I I I I #
loop $-1 $-1 $177 $44 #
coedge $-1 $111 $111 $178 $179 reversed $70 $-1 #
face $-1 $180 $181 $27 $-1 $182 reversed single #
loop $-1 $-1 $183 $72 #
plane-surface $-1 0 -27.558528535224088 0 0 1 0 0 0 1 forward_v I I I I #
coedge $-1 $184 $185 $186 $187 forward $73 $-1 #
coedge $-1 $188 $75 $189 $190 forward $46 $-1 #
coedge $-1 $75 $188 $191 $192 forward $46 $-1 #
coedge $-1 $193 $194 $75 $119 reversed $195 $-1 #
edge $-1 $196 -27.558528535224088 $197 27.558528535224088 $118 $198 forward 7 unknown #
face $-1 $199 $200 $28 $-1 $201 reversed single #
loop $-1 $-1 $202 $76 #
plane-surface $-1 0 -22.103999247046868 4.545914731796648 0 -1 0 0 0 -1 forward_v I I I I #
coedge $-1 $203 $204 $205 $206 reversed $77 $-1 #
coedge $-1 $207 $79 $208 $209 forward $49 $-1 #
coedge $-1 $79 $207 $210 $211 reversed $49 $-1 #
coedge $-1 $212 $213 $79 $127 forward $214 $-1 #
edge $-1 $215 9.6883673014791292 $216 15.142896589656349 $126 $217 forward 7 unknown #
face $-1 $218 $219 $29 $-1 $220 reversed single #
loop $-1 $-1 $221 $80 #
plane-surface $-1 0 22.485602227254766 3.4665463470160791 0 1 0 0 0 1 forward_v I I I I #
coedge $-1 $222 $223 $224 $225 reversed $81 $-1 #
coedge $-1 $226 $83 $227 $228 reversed $52 $-1 #
coedge $-1 $83 $226 $229 $230 forward $52 $-1 #
coedge $-1 $231 $232 $83 $135 forward $219 $-1 #
edge $-1 $233 -15.047495844604372 $234 -9.9745695366350535 $134 $235 forward 7 unknown #
face $-1 $236 $237 $30 $-1 $238 reversed single #
loop $-1 $-1 $239 $84 #
plane-surface $-1 0 0 6.6011956775800904 0 0 1 1 0 0 forward_v I I I I #
coedge $-1 $240 $241 $242 $243 reversed $85 $-1 #
coedge $-1 $141 $87 $244 $245 reversed $55 $-1 #
coedge $-1 $87 $140 $240 $246 reversed $55 $-1 #
coedge $-1 $242 $247 $87 $143 forward $237 $-1 #
edge $-1 $248 42.27789769920426 $249 48.111529955896927 $142 $250 forward 7 unknown #
loop $-1 $-1 $149 $88 #
plane-surface $-1 -62.401806695760968 -18.661709573359193 0.76756342088744134 -0.62932039886446345 0 0.77714595512881146 0.77714595512881146 0 0.62932039886446345 forward_v I I I I #
loop $-1 $-1 $251 $57 #
coedge $-1 $147 $147 $148 $252 reversed $89 $-1 #
coedge $-1 $148 $148 $147 $252 forward $91 $-1 #
coedge $-1 $149 $149 $92 $150 forward $144 $-1 #
edge $-1 $253 0 $253 6.2831853071796004 $149 $254 forward 7 unknown #
loop $-1 $-1 $156 $93 #
plane-surface $-1 -62.401806695760968 -18.661709573359193 0.76756342088744134 -0.62932039886446345 0 0.77714595512881146 0.77714595512881146 0 0.62932039886446345 forward_v I I I I #
loop $-1 $-1 $255 $60 #
coedge $-1 $154 $154 $155 $256 reversed $94 $-1 #
coedge $-1 $155 $155 $154 $256 forward $96 $-1 #
coedge $-1 $156 $156 $97 $157 forward $151 $-1 #
edge $-1 $257 0 $257 6.2831853071796004 $156 $258 forward 7 unknown #
face $-1 $259 $260 $33 $-1 $261 forward single #
loop $-1 $-1 $262 $98 #
plane-surface $-1 -140.94326645503986 7.0753808374793019 97.758186753568708 0 -1 0 0.62932039886446345 0 -0.77714595512881146 forward_v I I I I #
coedge $-1 $263 $264 $265 $266 reversed $99 $-1 #
coedge $-1 $163 $101 $267 $268 reversed $64 $-1 #
coedge $-1 $101 $162 $263 $269 reversed $64 $-1 #
coedge $-1 $265 $270 $101 $165 forward $260 $-1 #
edge $-1 $271 8.0698265317589488 $272 15.273762269704186 $164 $273 forward 7 unknown #
loop $-1 $-1 $171 $102 #
plane-surface $-1 -62.401806695760968 3.6330911637916259 0.76756342088744134 -0.62932039886446345 0 0.77714595512881146 0.77714595512881146 0 0.62932039886446345 forward_v I I I I #
loop $-1 $-1 $274 $66 #
coedge $-1 $169 $169 $170 $275 reversed $103 $-1 #
coedge $-1 $170 $170 $169 $275 forward $105 $-1 #
coedge $-1 $171 $171 $106 $172 forward $166 $-1 #
edge $-1 $276 0 $276 6.2831853071796004 $171 $277 forward 7 unknown #
loop $-1 $-1 $178 $107 #
plane-surface $-1 -62.401806695760968 3.6330911637916259 0.76756342088744134 -0.62932039886446345 0 0.77714595512881146 0.77714595512881146 0 0.62932039886446345 forward_v I I I I #
loop $-1 $-1 $278 $69 #
coedge $-1 $176 $176 $177 $279 reversed $108 $-1 #
coedge $-1 $177 $177 $176 $279 forward $110 $-1 #
coedge $-1 $178 $178 $111 $179 forward $173 $-1 #
edge $-1 $280 0 $280 6.2831853071796004 $178 $281 forward 7 unknown #
face $-1 $282 $283 $27 $-1 $284 reversed single #
loop $-1 $-1 $285 $112 #
plane-surface $-1 -62.401806695760982 0 0 1 0 0 0 0 -1 forward_v I I I I #
coedge $-1 $286 $191 $287 $288 forward $113 $-1 #
coedge $-1 $289 $115 $286 $290 forward $73 $-1 #
coedge $-1 $115 $289 $291 $292 forward $73 $-1 #
coedge $-1 $194 $193 $115 $187 reversed $195 $-1 #
edge $-1 $293 -27.558528535224088 $294 27.558528535224088 $186 $295 forward 7 unknown #
coedge $-1 $117 $116 $296 $297 forward $46 $-1 #
coedge $-1 $298 $299 $116 $190 reversed $283 $-1 #
edge $-1 $197 -62.401806695760982 $300 62.401806695760982 $189 $301 forward 7 unknown #
coedge $-1 $183 $302 $117 $192 reversed $113 $-1 #
edge $-1 $303 -62.401806695760982 $196 62.401806695760982 $191 $304 forward 7 unknown #
coedge $-1 $186 $118 $302 $305 forward $195 $-1 #
coedge $-1 $118 $186 $298 $306 reversed $195 $-1 #
loop $-1 $-1 $193 $282 #
vertex $-1 $119 $307 #
vertex $-1 $119 $308 #
straight-curve $-1 62.401806695760982 0 6.6011956775800904 0 1 0 I I #
face $-1 $309 $310 $28 $-1 $311 reversed single #
loop $-1 $-1 $312 $120 #
plane-surface $-1 -62.401806695760982 0 0 1 0 0 0 0 -1 forward_v I I I I #
coedge $-1 $313 $208 $213 $314 reversed $121 $-1 #
coedge $-1 $315 $123 $316 $317 reversed $77 $-1 #
coedge $-1 $123 $315 $313 $318 forward $77 $-1 #
coedge $-1 $213 $212 $123 $206 forward $214 $-1 #
edge $-1 $319 -15.142896589656349 $320 -9.6883673014791292 $205 $321 forward 7 unknown #
coedge $-1 $125 $124 $312 $322 reversed $49 $-1 #
coedge $-1 $202 $323 $124 $209 reversed $121 $-1 #
edge $-1 $215 -62.401806695760982 $324 62.401806695760982 $208 $325 forward 7 unknown #
coedge $-1 $326 $327 $125 $211 forward $310 $-1 #
edge $-1 $216 -62.401806695760982 $328 62.401806695760982 $210 $329 forward 7 unknown #
coedge $-1 $205 $126 $327 $330 forward $214 $-1 #
coedge $-1 $126 $205 $202 $314 forward $214 $-1 #
loop $-1 $-1 $126 $309 #
vertex $-1 $127 $331 #
vertex $-1 $330 $332 #
straight-curve $-1 62.401806695760982 -12.415631945567739 6.1011956775800904 0 -1 0 I I #
face $-1 $333 $334 $29 $-1 $335 reversed single #
loop $-1 $-1 $134 $128 #
plane-surface $-1 62.401806695760982 0 0 -1 0 0 0 0 1 forward_v I I I I #
coedge $-1 $336 $229 $337 $338 reversed $129 $-1 #
coedge $-1 $339 $131 $336 $340 forward $81 $-1 #
coedge $-1 $131 $339 $341 $342 reversed $81 $-1 #
coedge $-1 $232 $231 $131 $225 forward $219 $-1 #
edge $-1 $343 9.9745695366350535 $344 15.047495844604372 $224 $345 forward 7 unknown #
coedge $-1 $133 $132 $346 $347 reversed $52 $-1 #
coedge $-1 $348 $349 $132 $228 forward $350 $-1 #
edge $-1 $351 -62.401806695760982 $233 62.401806695760982 $227 $352 forward 7 unknown #
coedge $-1 $221 $353 $133 $230 reversed $129 $-1 #
edge $-1 $354 -62.401806695760982 $234 62.401806695760982 $229 $355 forward 7 unknown #
coedge $-1 $224 $134 $353 $356 forward $219 $-1 #
coedge $-1 $134 $224 $348 $357 reversed $219 $-1 #
vertex $-1 $357 $358 #
vertex $-1 $135 $359 #
straight-curve $-1 62.401806695760982 12.511032690619713 4.9665463470160791 0 -1 0 I I #
face $-1 $-1 $360 $30 $-1 $361 forward single #
loop $-1 $-1 $362 $136 #
plane-surface $-1 -62.401806695760982 0 0 1 0 0 0 0 -1 forward_v I I I I #
coedge $-1 $363 $364 $365 $366 forward $137 $-1 #
coedge $-1 $367 $139 $141 $246 forward $85 $-1 #
coedge $-1 $139 $367 $368 $369 forward $85 $-1 #
coedge $-1 $362 $142 $139 $243 forward $237 $-1 #
edge $-1 $249 5.8885651129919214 $370 12.773144460367272 $242 $371 forward 7 unknown #
coedge $-1 $364 $363 $140 $245 forward $137 $-1 #
edge $-1 $372 -15.273762269704186 $248 -8.0698265317589488 $244 $373 forward 7 unknown #
edge $-1 $249 -1.8310242626372826e-014 $372 9.2697332983624356 $141 $374 forward 7 unknown #
coedge $-1 $142 $362 $364 $375 reversed $237 $-1 #
vertex $-1 $375 $376 #
vertex $-1 $143 $377 #
straight-curve $-1 -62.401806695760982 -15.219419899671518 48.879093376784354 0 0 -1 I I #
coedge $-1 $251 $251 $-1 $378 reversed $146 $-1 #
edge $-1 $379 0 $379 6.2831853071796004 $147 $380 forward 7 unknown #
vertex $-1 $150 $381 #
ellipse-curve $-1 -58.799838826788367 -20.136976576368198 3.684379549233757 -0.62932039886446345 0 0.77714595512881146 0.38857297756440573 0 0.31466019943223172 1 I I #
coedge $-1 $255 $255 $-1 $382 reversed $153 $-1 #
edge $-1 $383 0 $383 6.2831853071796004 $154 $384 forward 7 unknown #
vertex $-1 $157 $385 #
ellipse-curve $-1 -58.799838826788367 -17.186442570350192 3.684379549233757 -0.62932039886446345 0 0.77714595512881146 0.38857297756440573 0 0.31466019943223172 1 I I #
face $-1 $-1 $386 $33 $-1 $387 reversed single #
loop $-1 $-1 $164 $158 #
plane-surface $-1 0 0 6.6011956775800904 0 0 1 1 0 0 forward_v I I I I #
coedge $-1 $388 $389 $390 $391 reversed $159 $-1 #
coedge $-1 $392 $161 $163 $269 forward $99 $-1 #
coedge $-1 $161 $392 $388 $393 forward $99 $-1 #
coedge $-1 $390 $164 $161 $266 forward $260 $-1 #
edge $-1 $272 -1.6257440917918631 $394 5.258835255583489 $265 $395 forward 7 unknown #
coedge $-1 $396 $397 $162 $268 forward $386 $-1 #
edge $-1 $398 -48.111529955896927 $271 -42.27789769920426 $267 $399 forward 7 unknown #
edge $-1 $272 -9.2697332983624356 $398 1.8310242626372826e-014 $163 $400 forward 7 unknown #
coedge $-1 $164 $390 $396 $401 forward $260 $-1 #
vertex $-1 $165 $402 #
vertex $-1 $165 $403 #
straight-curve $-1 -70.471633227519931 0.19080149010394987 6.6011956775800869 1 0 0 I I #
coedge $-1 $274 $274 $-1 $404 reversed $168 $-1 #
edge $-1 $405 0 $405 6.2831853071796004 $169 $406 forward 7 unknown #
vertex $-1 $172 $407 #
ellipse-curve $-1 -58.799838826788367 2.1578241607826207 3.684379549233757 -0.62932039886446345 0 0.77714595512881146 0.38857297756440573 0 0.31466019943223172 1 I I #
coedge $-1 $278 $278 $-1 $408 reversed $175 $-1 #
edge $-1 $409 0 $409 6.2831853071796004 $176 $410 forward 7 unknown #
vertex $-1 $179 $411 #
ellipse-curve $-1 -58.799838826788367 5.1083581668006239 3.684379549233757 -0.62932039886446345 0 0.77714595512881146 0.38857297756440573 0 0.31466019943223172 1 I I #
face $-1 $-1 $195 $27 $-1 $412 reversed single #
loop $-1 $-1 $298 $180 #
plane-surface $-1 0 27.558528535224088 0 0 -1 0 0 0 -1 forward_v I I I I #
coedge $-1 $413 $296 $299 $414 forward $181 $-1 #
coedge $-1 $302 $183 $184 $290 reversed $113 $-1 #
coedge $-1 $296 $413 $183 $288 reversed $181 $-1 #
edge $-1 $303 -6.6011956775800904 $415 6.6011956775800904 $287 $416 forward 7 unknown #
coedge $-1 $185 $184 $413 $417 forward $73 $-1 #
edge $-1 $294 -62.401806695760982 $415 62.401806695760982 $286 $418 forward 7 unknown #
coedge $-1 $299 $298 $185 $292 reversed $283 $-1 #
edge $-1 $419 -62.401806695760982 $293 62.401806695760982 $291 $420 forward 7 unknown #
vertex $-1 $187 $421 #
vertex $-1 $305 $422 #
straight-curve $-1 62.401806695760982 0 -6.6011956775800904 0 -1 0 I I #
coedge $-1 $285 $287 $188 $297 reversed $181 $-1 #
edge $-1 $300 -27.558528535224088 $303 27.558528535224088 $296 $423 forward 7 unknown #
coedge $-1 $291 $189 $194 $306 forward $283 $-1 #
coedge $-1 $189 $291 $285 $414 reversed $283 $-1 #
vertex $-1 $190 $424 #
straight-curve $-1 0 27.558528535224088 6.6011956775800904 -1 0 0 I I #
coedge $-1 $191 $286 $193 $305 reversed $113 $-1 #
vertex $-1 $297 $425 #
straight-curve $-1 0 -27.558528535224088 6.6011956775800904 1 0 0 I I #
edge $-1 $196 -6.6011956775800904 $294 6.6011956775800904 $193 $426 forward 7 unknown #
edge $-1 $197 -6.6011956775800904 $293 6.6011956775800904 $194 $427 forward 7 unknown #
point $-1 62.401806695760982 -27.558528535224088 6.6011956775800904 #
point $-1 62.401806695760982 27.558528535224088 6.6011956775800904 #
face $-1 $-1 $214 $28 $-1 $428 reversed single #
loop $-1 $-1 $210 $199 #
plane-surface $-1 0 -27.558528535224088 0 0 1 0 0 0 1 forward_v I I I I #
coedge $-1 $429 $430 $207 $322 forward $200 $-1 #
coedge $-1 $323 $202 $204 $318 reversed $121 $-1 #
edge $-1 $320 0.71767642011488153 $215 3.8282383116817664 $213 $431 forward 7 unknown #
coedge $-1 $204 $203 $432 $433 reversed $77 $-1 #
coedge $-1 $327 $326 $203 $317 forward $310 $-1 #
edge $-1 $434 -62.401806695760982 $319 62.401806695760982 $316 $435 forward 7 unknown #
edge $-1 $436 -62.401806695760982 $320 62.401806695760982 $313 $437 forward 7 unknown #
vertex $-1 $317 $438 #
vertex $-1 $206 $439 #
straight-curve $-1 62.401806695760982 -12.415631945567739 2.9906337860132055 0 1 0 I I #
edge $-1 $328 -15.142896589656349 $324 -9.6883673014791292 $312 $440 forward 7 unknown #
coedge $-1 $208 $313 $429 $441 reversed $121 $-1 #
vertex $-1 $322 $442 #
straight-curve $-1 0 -22.103999247046868 6.1011956775800904 -1 0 0 I I #
coedge $-1 $316 $210 $430 $443 forward $310 $-1 #
coedge $-1 $210 $316 $212 $330 reversed $310 $-1 #
vertex $-1 $443 $444 #
straight-curve $-1 0 -27.558528535224088 6.1011956775800904 -1 0 0 I I #
edge $-1 $216 -6.1011956775800904 $319 -2.9906337860132055 $212 $445 forward 7 unknown #
point $-1 62.401806695760982 -22.103999247046868 6.1011956775800904 #
point $-1 62.401806695760982 -27.558528535224088 6.1011956775800904 #
face $-1 $-1 $350 $29 $-1 $446 reversed single #
loop $-1 $-1 $346 $218 #
plane-surface $-1 -62.401806695760982 0 0 1 0 0 0 0 -1 forward_v I I I I #
coedge $-1 $353 $221 $222 $340 reversed $129 $-1 #
coedge $-1 $346 $447 $221 $338 forward $334 $-1 #
edge $-1 $448 0.23327317350803956 $354 3.2332731735080396 $337 $449 forward 7 unknown #
coedge $-1 $223 $222 $447 $450 reversed $81 $-1 #
edge $-1 $343 -62.401806695760982 $448 62.401806695760982 $336 $451 forward 7 unknown #
coedge $-1 $349 $348 $223 $342 forward $350 $-1 #
edge $-1 $344 -62.401806695760982 $452 62.401806695760982 $341 $453 forward 7 unknown #
vertex $-1 $225 $454 #
vertex $-1 $342 $455 #
straight-curve $-1 62.401806695760982 12.511032690619713 1.9665463470160791 0 1 0 I I #
coedge $-1 $456 $337 $226 $347 forward $334 $-1 #
edge $-1 $354 9.9745695366350535 $351 15.047495844604372 $346 $457 forward 7 unknown #
coedge $-1 $341 $227 $232 $357 forward $350 $-1 #
coedge $-1 $227 $341 $456 $458 reversed $350 $-1 #
loop $-1 $-1 $227 $333 #
vertex $-1 $458 $459 #
straight-curve $-1 0 27.558528535224088 4.9665463470160791 1 0 0 I I #
coedge $-1 $229 $336 $231 $356 reversed $129 $-1 #
vertex $-1 $347 $460 #
straight-curve $-1 0 22.485602227254766 4.9665463470160791 1 0 0 I I #
edge $-1 $234 -3.2332731735080396 $343 -0.23327317350803956 $231 $461 forward 7 unknown #
edge $-1 $233 -4.9665463470160791 $344 -1.9665463470160791 $232 $462 forward 7 unknown #
point $-1 62.401806695760982 27.558528535224085 4.9665463470160791 #
point $-1 62.401806695760982 22.485602227254766 4.9665463470160791 #
loop $-1 $-1 $368 $236 #
plane-surface $-1 0 -22.103999247046868 4.545914731796648 0 -1 0 0 0 -1 forward_v I I I I #
coedge $-1 $247 $242 $463 $464 forward $237 $-1 #
coedge $-1 $244 $239 $367 $465 forward $137 $-1 #
coedge $-1 $239 $244 $247 $375 forward $137 $-1 #
coedge $-1 $463 $368 $239 $366 reversed $360 $-1 #
edge $-1 $466 8.0698265317589488 $467 15.273762269704186 $239 $468 forward 7 unknown #
coedge $-1 $241 $240 $363 $465 reversed $85 $-1 #
coedge $-1 $365 $463 $241 $369 reversed $360 $-1 #
edge $-1 $467 -9.2697332983624356 $370 1.8310242626372826e-014 $368 $469 forward 7 unknown #
vertex $-1 $243 $470 #
straight-curve $-1 -62.401806695760982 -9.3308547866795966 0.76756342088743101 0 -1 0 I I #
vertex $-1 $245 $471 #
straight-curve $-1 -70.471633227519931 -15.219419899671518 6.6011956775800869 -1 0 0 I I #
straight-curve $-1 -62.401806695760968 -15.219419899671518 0.76756342088744134 0.77714595512881146 0 0.62932039886446345 I I #
edge $-1 $248 15.219419899671518 $466 22.103999247046868 $247 $472 forward 7 unknown #
point $-1 -62.401806695760982 -15.219419899671518 6.6011956775800904 #
point $-1 -62.401806695760982 -15.219419899671518 0.76756342088742979 #
edge $-1 $473 1 $473 0 $251 $-1 forward 7 unknown #
vertex $-1 $252 $474 #
ellipse-curve $-1 -57.909605997168164 -20.136976576368198 2.5850335818845935 -0.62932039886446345 0 0.77714595512881146 0.38857297756440573 0 0.31466019943223172 1 I I #
point $-1 -58.41126584922398 -20.136976576368198 3.9990397486660076 #
edge $-1 $475 1 $475 0 $255 $-1 forward 7 unknown #
vertex $-1 $256 $476 #
ellipse-curve $-1 -57.909605997168164 -17.186442570350192 2.5850335818845935 -0.62932039886446345 0 0.77714595512881146 0.38857297756440573 0 0.31466019943223172 1 I I #
point $-1 -58.41126584922398 -17.186442570350192 3.9990397486660076 #
loop $-1 $-1 $267 $259 #
plane-surface $-1 -62.401806695760982 0 0 1 0 0 0 0 -1 forward_v I I I I #
coedge $-1 $389 $262 $264 $393 reversed $159 $-1 #
coedge $-1 $262 $388 $477 $478 reversed $159 $-1 #
coedge $-1 $270 $265 $262 $391 forward $260 $-1 #
edge $-1 $394 -15.273762269704186 $479 -8.0698265317589488 $390 $480 forward 7 unknown #
coedge $-1 $264 $263 $397 $481 reversed $99 $-1 #
edge $-1 $482 -1.8310242626372826e-014 $394 9.2697332983624356 $388 $483 forward 7 unknown #
vertex $-1 $266 $484 #
straight-curve $-1 -55.197870957815752 1.8165455818958129 6.6011956775800886 0 1 0 I I #
coedge $-1 $477 $267 $270 $401 reversed $386 $-1 #
coedge $-1 $267 $477 $392 $481 forward $386 $-1 #
vertex $-1 $268 $485 #
straight-curve $-1 -62.401806695760982 0.19080149010394987 48.879093376784354 0 0 1 I I #
straight-curve $-1 -62.401806695760968 0.19080149010394987 0.76756342088744134 -0.77714595512881146 0 -0.62932039886446345 I I #
edge $-1 $479 -7.0753808374793019 $271 -0.19080149010394987 $396 $486 forward 7 unknown #
point $-1 -62.401806695760982 0.19080149010394987 6.6011956775800904 #
point $-1 -55.197870957815745 0.19080149010394987 6.6011956775800895 #
edge $-1 $487 1 $487 0 $274 $-1 forward 7 unknown #
vertex $-1 $275 $488 #
ellipse-curve $-1 -57.909605997168164 2.1578241607826207 2.5850335818845935 -0.62932039886446345 0 0.77714595512881146 0.38857297756440573 0 0.31466019943223172 1 I I #
point $-1 -58.41126584922398 2.1578241607826207 3.9990397486660076 #
edge $-1 $489 1 $489 0 $278 $-1 forward 7 unknown #
vertex $-1 $279 $490 #
ellipse-curve $-1 -57.909605997168164 5.1083581668006239 2.5850335818845935 -0.62932039886446345 0 0.77714595512881146 0.38857297756440573 0 0.31466019943223172 1 I I #
point $-1 -58.41126584922398 5.1083581668006239 3.9990397486660076 #
plane-surface $-1 62.401806695760982 0 0 -1 0 0 0 0 1 forward_v I I I I #
coedge $-1 $287 $285 $289 $417 reversed $181 $-1 #
edge $-1 $300 -6.6011956775800904 $419 6.6011956775800904 $299 $491 forward 7 unknown #
vertex $-1 $417 $492 #
straight-curve $-1 -62.401806695760982 -27.558528535224088 0 0 0 -1 I I #
edge $-1 $415 -27.558528535224088 $419 27.558528535224088 $413 $493 forward 7 unknown #
straight-curve $-1 0 -27.558528535224088 -6.6011956775800904 -1 0 0 I I #
vertex $-1 $292 $494 #
straight-curve $-1 0 27.558528535224088 -6.6011956775800904 1 0 0 I I #
point $-1 62.401806695760982 27.558528535224088 -6.6011956775800904 #
point $-1 62.401806695760982 -27.558528535224088 -6.6011956775800904 #
straight-curve $-1 -62.401806695760982 0 6.6011956775800904 0 -1 0 I I #
point $-1 -62.401806695760982 27.558528535224088 6.6011956775800904 #
point $-1 -62.401806695760982 -27.558528535224088 6.6011956775800904 #
straight-curve $-1 62.401806695760982 -27.558528535224088 0 0 0 -1 I I #
straight-curve $-1 62.401806695760982 27.558528535224088 0 0 0 -1 I I #
plane-surface $-1 62.401806695760982 0 0 -1 0 0 0 0 1 forward_v I I I I #
coedge $-1 $432 $312 $323 $441 forward $200 $-1 #
coedge $-1 $312 $432 $326 $443 reversed $200 $-1 #
straight-curve $-1 62.401806695760982 -22.103999247046868 2.272957365898324 0 0 1 I I #
coedge $-1 $430 $429 $315 $433 forward $200 $-1 #
edge $-1 $436 9.6883673014791292 $434 15.142896589656349 $432 $495 forward 7 unknown #
vertex $-1 $317 $496 #
straight-curve $-1 0 -27.558528535224088 2.9906337860132055 1 0 0 I I #
vertex $-1 $433 $497 #
straight-curve $-1 0 -22.103999247046868 2.9906337860132055 1 0 0 I I #
point $-1 62.401806695760982 -27.558528535224088 2.9906337860132055 #
point $-1 62.401806695760982 -22.103999247046868 2.9906337860132055 #
straight-curve $-1 -62.401806695760982 -12.415631945567739 6.1011956775800904 0 1 0 I I #
edge $-1 $324 -3.8282383116817664 $436 -0.71767642011488153 $429 $498 forward 7 unknown #
point $-1 -62.401806695760982 -22.103999247046868 6.1011956775800904 #
edge $-1 $328 -6.1011956775800904 $434 -2.9906337860132055 $430 $499 forward 7 unknown #
point $-1 -62.401806695760982 -27.558528535224088 6.1011956775800904 #
straight-curve $-1 62.401806695760982 -27.558528535224088 0 0 0 -1 I I #
plane-surface $-1 0 27.558528535224088 0 0 -1 0 0 0 -1 forward_v I I I I #
coedge $-1 $337 $456 $339 $450 forward $334 $-1 #
vertex $-1 $450 $500 #
straight-curve $-1 -62.401806695760982 22.485602227254766 1.7332731735080396 0 0 1 I I #
edge $-1 $452 -15.047495844604372 $448 -9.9745695366350535 $447 $501 forward 7 unknown #
straight-curve $-1 0 22.485602227254766 1.9665463470160791 -1 0 0 I I #
vertex $-1 $342 $502 #
straight-curve $-1 0 27.558528535224088 1.9665463470160791 -1 0 0 I I #
point $-1 62.401806695760982 22.485602227254766 1.9665463470160791 #
point $-1 62.401806695760982 27.558528535224085 1.9665463470160791 #
coedge $-1 $447 $346 $349 $458 forward $334 $-1 #
straight-curve $-1 -62.401806695760982 12.511032690619713 4.9665463470160791 0 1 0 I I #
edge $-1 $351 -4.9665463470160791 $452 -1.9665463470160791 $349 $503 forward 7 unknown #
point $-1 -62.401806695760982 27.558528535224085 4.9665463470160791 #
point $-1 -62.401806695760982 22.485602227254766 4.9665463470160791 #
straight-curve $-1 62.401806695760982 22.485602227254766 1.7332731735080396 0 0 -1 I I #
straight-curve $-1 62.401806695760982 27.558528535224088 0 0 0 -1 I I #
coedge $-1 $368 $365 $362 $464 reversed $360 $-1 #
edge $-1 $370 -48.111529955896927 $466 -42.27789769920426 $362 $504 forward 7 unknown #
edge $-1 $467 -12.773144460367272 $372 -5.8885651129919214 $363 $505 forward 7 unknown #
vertex $-1 $366 $506 #
vertex $-1 $366 $507 #
straight-curve $-1 -70.471633227519931 -22.103999247046868 6.6011956775800869 1 0 0 I I #
straight-curve $-1 -62.401806695760968 -22.103999247046868 0.76756342088744134 -0.77714595512881146 0 -0.62932039886446345 I I #
point $-1 -62.401806695760982 -22.103999247046868 0.76756342088742979 #
point $-1 -55.197870957815745 -15.219419899671518 6.6011956775800895 #
straight-curve $-1 -62.401806695760982 0 6.6011956775800904 0 -1 0 I I #
vertex $-1 $378 $508 #
point $-1 -57.521033019603763 -20.136976576368198 2.8996937813168255 #
vertex $-1 $382 $509 #
point $-1 -57.521033019603763 -17.186442570350192 2.8996937813168255 #
coedge $-1 $397 $396 $389 $478 forward $386 $-1 #
edge $-1 $479 42.27789769920426 $482 48.111529955896927 $477 $510 forward 7 unknown #
vertex $-1 $401 $511 #
straight-curve $-1 -70.471633227519931 7.0753808374793019 6.6011956775800869 -1 0 0 I I #
edge $-1 $482 -5.258835255583489 $398 1.6257440917918631 $397 $512 forward 7 unknown #
vertex $-1 $481 $513 #
straight-curve $-1 -62.401806695760968 7.0753808374793019 0.76756342088744134 0.77714595512881146 0 0.62932039886446345 I I #
point $-1 -55.197870957815745 7.0753808374793019 6.6011956775800895 #
point $-1 -62.401806695760982 0.19080149010394987 0.76756342088742979 #
straight-curve $-1 -62.401806695760982 0 6.6011956775800904 0 -1 0 I I #
vertex $-1 $404 $514 #
point $-1 -57.521033019603763 2.1578241607826207 2.8996937813168255 #
vertex $-1 $408 $515 #
point $-1 -57.521033019603763 5.1083581668006239 2.8996937813168255 #
straight-curve $-1 -62.401806695760982 27.558528535224088 0 0 0 -1 I I #
point $-1 -62.401806695760982 -27.558528535224088 -6.6011956775800904 #
straight-curve $-1 -62.401806695760982 0 -6.6011956775800904 0 1 0 I I #
point $-1 -62.401806695760982 27.558528535224088 -6.6011956775800904 #
straight-curve $-1 -62.401806695760982 -12.415631945567739 2.9906337860132055 0 -1 0 I I #
point $-1 -62.401806695760982 -27.558528535224088 2.9906337860132055 #
point $-1 -62.401806695760982 -22.103999247046868 2.9906337860132055 #
straight-curve $-1 -62.401806695760982 -22.103999247046868 2.272957365898324 0 0 -1 I I #
straight-curve $-1 -62.401806695760982 -27.558528535224088 0 0 0 -1 I I #
point $-1 -62.401806695760982 22.485602227254766 1.9665463470160791 #
straight-curve $-1 -62.401806695760982 12.511032690619713 1.9665463470160791 0 -1 0 I I #
point $-1 -62.401806695760982 27.558528535224085 1.9665463470160791 #
straight-curve $-1 -62.401806695760982 27.558528535224088 0 0 0 -1 I I #
straight-curve $-1 -62.401806695760982 -22.103999247046868 48.879093376784354 0 0 1 I I #
straight-curve $-1 -55.197870957815752 -9.3308547866795966 6.6011956775800886 0 1 0 I I #
point $-1 -62.401806695760982 -22.103999247046868 6.6011956775800904 #
point $-1 -55.197870957815745 -22.103999247046868 6.6011956775800895 #
point $-1 -57.594945797735939 -20.136976576368198 2.1964606043201882 #
point $-1 -57.594945797735939 -17.186442570350192 2.1964606043201882 #
straight-curve $-1 -62.401806695760982 7.0753808374793019 48.879093376784354 0 0 -1 I I #
point $-1 -62.401806695760982 7.0753808374793019 6.6011956775800904 #
straight-curve $-1 -62.401806695760982 1.8165455818958129 0.76756342088743101 0 -1 0 I I #
point $-1 -62.401806695760982 7.0753808374793019 0.76756342088742979 #
point $-1 -57.594945797735939 2.1578241607826207 2.1964606043201882 #
point $-1 -57.594945797735939 5.1083581668006239 2.1964606043201882 #
End-of-ACIS-data 