500 0 11 0           
7 Unknown 11 ACIS 5.0 NT 24 Fri Mar 26 03:23:36 1999 
-1 9.9999999999999995e-007 1e-010 
body $-1 $11 $-1 $12 #
body $-1 $13 $-1 $14 #
body $-1 $15 $-1 $16 #
body $-1 $17 $-1 $18 #
body $-1 $19 $-1 $20 #
body $-1 $21 $-1 $22 #
body $-1 $23 $-1 $24 #
body $-1 $25 $-1 $26 #
body $-1 $27 $-1 $28 #
body $-1 $29 $-1 $30 #
body $-1 $31 $-1 $32 #
lump $-1 $-1 $33 $0 #
transform $-1 1 0 0 0 1 0 0 0 1 61.478926969206825 26.150730561583632 10.216637998111297 1 rotate no_reflect no_shear #
lump $-1 $-1 $34 $1 #
transform $-1 1 0 0 0 1 0 0 0 1 61.478926969206825 26.150730561583632 10.216637998111297 1 rotate no_reflect no_shear #
lump $-1 $-1 $35 $2 #
transform $-1 1 0 0 0 1 0 0 0 1 61.478926969206825 26.150730561583632 10.216637998111297 1 rotate no_reflect no_shear #
lump $-1 $-1 $36 $3 #
transform $-1 1 0 0 0 1 0 0 0 1 61.478926969206825 26.150730561583632 10.216637998111297 1 rotate no_reflect no_shear #
lump $-1 $-1 $37 $4 #
transform $-1 1 0 0 0 1 0 0 0 1 61.478926969206825 26.150730561583632 10.216637998111297 1 rotate no_reflect no_shear #
lump $-1 $-1 $38 $5 #
transform $-1 1 0 0 0 1 0 0 0 1 61.478926969206825 26.150730561583632 10.216637998111297 1 rotate no_reflect no_shear #
lump $-1 $-1 $39 $6 #
transform $-1 1 0 0 0 1 0 0 0 1 61.478926969206825 26.150730561583632 10.216637998111297 1 rotate no_reflect no_shear #
lump $-1 $-1 $40 $7 #
transform $-1 1 0 0 0 1 0 0 0 1 61.478926969206825 26.150730561583632 10.216637998111297 1 rotate no_reflect no_shear #
lump $-1 $-1 $41 $8 #
transform $-1 1 0 0 0 1 0 0 0 1 61.478926969206825 26.150730561583632 10.216637998111297 1 rotate no_reflect no_shear #
lump $-1 $-1 $42 $9 #
transform $-1 1 0 0 0 1 0 0 0 1 61.478926969206825 26.150730561583632 10.216637998111297 1 rotate no_reflect no_shear #
lump $-1 $-1 $43 $10 #
transform $-1 1 0 0 0 1 0 0 0 1 61.478926969206825 26.150730561583632 10.216637998111297 1 rotate no_reflect no_shear #
shell $-1 $-1 $-1 $44 $-1 $11 #
shell $-1 $-1 $-1 $45 $-1 $13 #
shell $-1 $-1 $-1 $46 $-1 $15 #
shell $-1 $-1 $-1 $47 $-1 $17 #
shell $-1 $-1 $-1 $48 $-1 $19 #
shell $-1 $-1 $-1 $49 $-1 $21 #
shell $-1 $-1 $-1 $50 $-1 $23 #
shell $-1 $-1 $-1 $51 $-1 $25 #
shell $-1 $-1 $-1 $52 $-1 $27 #
shell $-1 $-1 $-1 $53 $-1 $29 #
shell $-1 $-1 $-1 $54 $-1 $31 #
face $-1 $55 $56 $33 $-1 $57 forward single #
face $-1 $58 $59 $34 $-1 $60 forward single #
face $-1 $61 $62 $35 $-1 $63 forward single #
face $-1 $64 $65 $36 $-1 $66 reversed single #
face $-1 $67 $68 $37 $-1 $69 forward single #
face $-1 $70 $71 $38 $-1 $72 reversed single #
face $-1 $73 $74 $39 $-1 $75 forward single #
face $-1 $76 $77 $40 $-1 $78 forward single #
face $-1 $79 $80 $41 $-1 $81 reversed single #
face $-1 $82 $83 $42 $-1 $84 forward single #
face $-1 $85 $86 $43 $-1 $87 forward single #
face $-1 $88 $89 $33 $-1 $90 reversed single #
loop $-1 $-1 $91 $44 #
plane-surface $-1 0 0 10.216637998111297 0 0 1 1 0 0 forward_v I I I I #
face $-1 $92 $93 $34 $-1 $94 reversed single #
loop $-1 $-1 $95 $45 #
plane-surface $-1 0 -26.150730561583632 0 0 1 0 0 0 1 forward_v I I I I #
face $-1 $96 $97 $35 $-1 $98 reversed single #
loop $-1 $-1 $99 $46 #
plane-surface $-1 0 26.150730561583632 0 0 -1 0 0 0 -1 forward_v I I I I #
face $-1 $100 $101 $36 $-1 $102 reversed single #
loop $-1 $-1 $103 $47 #
plane-surface $-1 -145.33598270900464 -10.497318430895568 90.70136961702336 0 1 0 -0.68199836817093118 0 0.7313536940579346 forward_v I I I I #
face $-1 $104 $105 $37 $-1 $106 forward single #
loop $-1 $107 $108 $48 #
cone-surface $-1 -54.514997599314313 -5.3299170771377788 3.4566894852194783 0.68199836817093118 0 -0.7313536940579346 1.4627073881158692 0 1.3639967363418624 1 I I 0 1 2 forward I I I I #
face $-1 $109 $110 $38 $-1 $111 reversed single #
loop $-1 $-1 $112 $49 #
plane-surface $-1 52.378299305932217 -5.35178210925279 175.35634342520166 0 -1 0 -0.66913061440640931 0 -0.74314481823134659 forward_v I I I I #
face $-1 $113 $114 $39 $-1 $115 forward single #
loop $-1 $116 $117 $50 #
cone-surface $-1 55.551876361321064 -11.068563690696003 4.6274302886832102 -0.66913061440640931 0 -0.74314481823134659 0.74314481823134659 0 -0.66913061440640931 1 I I 0 1 1 forward I I I I #
face $-1 $118 $119 $40 $-1 $120 forward single #
loop $-1 $121 $122 $51 #
cone-surface $-1 55.551876361321064 -7.6384947418300762 4.6274302886832102 -0.66913061440640931 0 -0.74314481823134659 0.74314481823134659 0 -0.66913061440640931 1 I I 0 1 1 forward I I I I #
face $-1 $123 $124 $41 $-1 $125 reversed single #
loop $-1 $-1 $126 $52 #
plane-surface $-1 52.378299305932217 13.355276323273285 175.35634342520166 0 -1 0 -0.66913061440640931 0 -0.74314481823134659 forward_v I I I I #
face $-1 $127 $128 $42 $-1 $129 forward single #
loop $-1 $130 $131 $53 #
cone-surface $-1 55.551876361321064 7.6384947418300762 4.6274302886832102 -0.66913061440640931 0 -0.74314481823134659 0.74314481823134659 0 -0.66913061440640931 1 I I 0 1 1 forward I I I I #
face $-1 $132 $133 $43 $-1 $134 forward single #
loop $-1 $135 $136 $54 #
cone-surface $-1 55.551876361321064 11.068563690696006 4.6274302886832102 -0.66913061440640931 0 -0.74314481823134659 0.74314481823134659 0 -0.66913061440640931 1 I I 0 1 1 forward I I I I #
face $-1 $137 $138 $33 $-1 $139 reversed single #
loop $-1 $-1 $140 $55 #
plane-surface $-1 0 0 -10.216637998111297 0 0 1 1 0 0 forward_v I I I I #
coedge $-1 $141 $142 $143 $144 forward $56 $-1 #
face $-1 $145 $146 $34 $-1 $147 forward single #
loop $-1 $-1 $148 $58 #
plane-surface $-1 -61.478926969206825 0 0 1 0 0 0 0 -1 forward_v I I I I #
coedge $-1 $149 $150 $151 $152 forward $59 $-1 #
face $-1 $153 $154 $35 $-1 $155 forward single #
loop $-1 $-1 $156 $61 #
plane-surface $-1 61.478926969206825 0 0 -1 0 0 0 0 1 forward_v I I I I #
coedge $-1 $157 $158 $159 $160 forward $62 $-1 #
face $-1 $161 $162 $36 $-1 $163 reversed single #
loop $-1 $-1 $164 $64 #
plane-surface $-1 -61.478926969206825 -5.3299170771377788 0.77568892572857351 -0.68199836817093118 0 0.7313536940579346 0.7313536940579346 0 0.68199836817093118 forward_v I I I I #
coedge $-1 $165 $166 $167 $168 reversed $65 $-1 #
face $-1 $-1 $169 $37 $-1 $170 forward single #
loop $-1 $171 $172 $67 #
cone-surface $-1 -51.931158937811105 -5.3299170771377788 0.68586181446108974 0.68199836817093118 0 -0.7313536940579346 0.7313536940579346 0 0.68199836817093118 1 I I -0.70710678118654746 0.70710678118654746 1 forward I I I I #
loop $-1 $-1 $173 $48 #
coedge $-1 $108 $108 $174 $175 reversed $68 $-1 #
face $-1 $176 $177 $38 $-1 $178 reversed single #
loop $-1 $-1 $179 $70 #
plane-surface $-1 -29.896565045972039 -9.3535292162630377 83.98085141002278 0.66913061440640931 0 0.74314481823134659 0.74314481823134659 0 -0.66913061440640931 forward_v I I I I #
coedge $-1 $180 $181 $182 $183 reversed $71 $-1 #
face $-1 $-1 $184 $39 $-1 $185 forward single #
loop $-1 $186 $187 $73 #
cone-surface $-1 54.016278064961128 -11.068563690696003 2.9219756401358392 -0.66913061440640931 0 -0.74314481823134659 0.3715724091156733 0 -0.33456530720320465 1 I I -0.70710678118654779 0.70710678118654713 0.5 forward I I I I #
loop $-1 $-1 $188 $50 #
coedge $-1 $117 $117 $189 $190 reversed $74 $-1 #
face $-1 $-1 $191 $40 $-1 $192 forward single #
loop $-1 $193 $194 $76 #
cone-surface $-1 54.016278064961128 -7.6384947418300762 2.9219756401358392 -0.66913061440640931 0 -0.74314481823134659 0.3715724091156733 0 -0.33456530720320465 1 I I -0.70710678118654779 0.70710678118654713 0.5 forward I I I I #
loop $-1 $-1 $195 $51 #
coedge $-1 $122 $122 $196 $197 reversed $77 $-1 #
face $-1 $198 $199 $41 $-1 $200 reversed single #
loop $-1 $-1 $201 $79 #
plane-surface $-1 -29.896565045972039 9.3535292162630377 83.98085141002278 0.66913061440640931 0 0.74314481823134659 0.74314481823134659 0 -0.66913061440640931 forward_v I I I I #
coedge $-1 $202 $203 $204 $205 reversed $80 $-1 #
face $-1 $-1 $206 $42 $-1 $207 forward single #
loop $-1 $208 $209 $82 #
cone-surface $-1 54.016278064961128 7.6384947418300762 2.9219756401358392 -0.66913061440640931 0 -0.74314481823134659 0.3715724091156733 0 -0.33456530720320465 1 I I -0.70710678118654779 0.70710678118654713 0.5 forward I I I I #
loop $-1 $-1 $210 $53 #
coedge $-1 $131 $131 $211 $212 reversed $83 $-1 #
face $-1 $-1 $213 $43 $-1 $214 forward single #
loop $-1 $215 $216 $85 #
cone-surface $-1 54.016278064961128 11.068563690696006 2.9219756401358392 -0.66913061440640931 0 -0.74314481823134659 0.3715724091156733 0 -0.33456530720320465 1 I I -0.70710678118654779 0.70710678118654713 0.5 forward I I I I #
loop $-1 $-1 $217 $54 #
coedge $-1 $136 $136 $218 $219 reversed $86 $-1 #
face $-1 $220 $221 $33 $-1 $222 reversed single #
loop $-1 $-1 $223 $88 #
plane-surface $-1 0 -26.150730561583632 0 0 1 0 0 0 1 forward_v I I I I #
coedge $-1 $224 $225 $226 $227 forward $89 $-1 #
coedge $-1 $228 $91 $229 $230 forward $56 $-1 #
coedge $-1 $91 $228 $231 $232 forward $56 $-1 #
coedge $-1 $233 $234 $91 $144 reversed $235 $-1 #
edge $-1 $236 -26.150730561583632 $237 26.150730561583632 $143 $238 forward 7 unknown #
face $-1 $239 $240 $34 $-1 $241 reversed single #
loop $-1 $-1 $242 $92 #
plane-surface $-1 0 -30.019193643615765 2.236689400839305 0 0 1 1 0 0 forward_v I I I I #
coedge $-1 $243 $244 $150 $245 forward $93 $-1 #
coedge $-1 $246 $95 $247 $248 reversed $59 $-1 #
coedge $-1 $95 $246 $148 $245 reversed $59 $-1 #
coedge $-1 $249 $242 $95 $152 reversed $146 $-1 #
edge $-1 $250 -61.478926969206825 $251 61.478926969206825 $151 $252 forward 7 unknown #
face $-1 $253 $254 $35 $-1 $255 reversed single #
loop $-1 $-1 $256 $96 #
plane-surface $-1 0 30.019193643615761 2.236689400839305 0 0 1 1 0 0 forward_v I I I I #
coedge $-1 $257 $258 $158 $259 forward $97 $-1 #
coedge $-1 $260 $99 $261 $262 reversed $62 $-1 #
coedge $-1 $99 $260 $156 $259 reversed $62 $-1 #
coedge $-1 $256 $263 $99 $160 reversed $154 $-1 #
edge $-1 $264 -61.478926969206825 $265 61.478926969206825 $159 $266 forward 7 unknown #
face $-1 $267 $268 $36 $-1 $269 reversed single #
loop $-1 $-1 $270 $100 #
plane-surface $-1 -145.33598270900464 -0.16251572337998965 90.70136961702336 0 -1 0 0.68199836817093118 0 -0.7313536940579346 forward_v I I I I #
coedge $-1 $271 $272 $273 $274 reversed $101 $-1 #
coedge $-1 $166 $103 $275 $276 reversed $65 $-1 #
coedge $-1 $103 $165 $271 $277 reversed $65 $-1 #
coedge $-1 $273 $278 $103 $168 forward $279 $-1 #
edge $-1 $280 11.189064385295495 $281 21.313242538415942 $167 $282 forward 7 unknown #
loop $-1 $-1 $174 $104 #
plane-surface $-1 -61.478926969206825 -5.3299170771377788 0.77568892572857351 -0.68199836817093118 0 0.7313536940579346 0.7313536940579346 0 0.68199836817093118 forward_v I I I I #
loop $-1 $-1 $283 $67 #
coedge $-1 $172 $172 $173 $284 reversed $105 $-1 #
coedge $-1 $173 $173 $172 $284 forward $107 $-1 #
coedge $-1 $174 $174 $108 $175 forward $169 $-1 #
edge $-1 $285 0 $285 6.2831853071796004 $174 $286 forward 7 unknown #
face $-1 $287 $288 $38 $-1 $289 forward single #
loop $-1 $-1 $290 $109 #
plane-surface $-1 52.378299305932217 -13.355276323273285 175.35634342520166 0 1 0 0.66913061440640931 0 0.74314481823134659 forward_v I I I I #
coedge $-1 $291 $292 $293 $294 reversed $110 $-1 #
coedge $-1 $181 $112 $295 $296 reversed $71 $-1 #
coedge $-1 $112 $180 $291 $297 reversed $71 $-1 #
coedge $-1 $293 $298 $112 $183 forward $288 $-1 #
edge $-1 $299 -35.289777316240716 $300 -25.837742078782625 $182 $301 forward 7 unknown #
loop $-1 $-1 $189 $113 #
plane-surface $-1 -29.896565045972039 -9.3535292162630377 83.98085141002278 0.66913061440640931 0 0.74314481823134659 0.74314481823134659 0 -0.66913061440640931 forward_v I I I I #
loop $-1 $-1 $302 $73 #
coedge $-1 $187 $187 $188 $303 reversed $114 $-1 #
coedge $-1 $188 $188 $187 $303 forward $116 $-1 #
coedge $-1 $189 $189 $117 $190 forward $184 $-1 #
edge $-1 $304 0 $304 6.2831853071796004 $189 $305 forward 7 unknown #
loop $-1 $-1 $196 $118 #
plane-surface $-1 -29.896565045972039 -9.3535292162630377 83.98085141002278 0.66913061440640931 0 0.74314481823134659 0.74314481823134659 0 -0.66913061440640931 forward_v I I I I #
loop $-1 $-1 $306 $76 #
coedge $-1 $194 $194 $195 $307 reversed $119 $-1 #
coedge $-1 $195 $195 $194 $307 forward $121 $-1 #
coedge $-1 $196 $196 $122 $197 forward $191 $-1 #
edge $-1 $308 0 $308 6.2831853071796004 $196 $309 forward 7 unknown #
face $-1 $310 $311 $41 $-1 $312 reversed single #
loop $-1 $-1 $313 $123 #
plane-surface $-1 52.378299305932217 5.35178210925279 175.35634342520166 0 1 0 0.66913061440640931 0 0.74314481823134659 forward_v I I I I #
coedge $-1 $314 $315 $316 $317 reversed $124 $-1 #
coedge $-1 $203 $126 $318 $319 reversed $80 $-1 #
coedge $-1 $126 $202 $314 $320 reversed $80 $-1 #
coedge $-1 $316 $321 $126 $205 forward $322 $-1 #
edge $-1 $323 -35.289777316240716 $324 -25.837742078782625 $204 $325 forward 7 unknown #
loop $-1 $-1 $211 $127 #
plane-surface $-1 -29.896565045972039 9.3535292162630377 83.98085141002278 0.66913061440640931 0 0.74314481823134659 0.74314481823134659 0 -0.66913061440640931 forward_v I I I I #
loop $-1 $-1 $326 $82 #
coedge $-1 $209 $209 $210 $327 reversed $128 $-1 #
coedge $-1 $210 $210 $209 $327 forward $130 $-1 #
coedge $-1 $211 $211 $131 $212 forward $206 $-1 #
edge $-1 $328 0 $328 6.2831853071796004 $211 $329 forward 7 unknown #
loop $-1 $-1 $218 $132 #
plane-surface $-1 -29.896565045972039 9.3535292162630377 83.98085141002278 0.66913061440640931 0 0.74314481823134659 0.74314481823134659 0 -0.66913061440640931 forward_v I I I I #
loop $-1 $-1 $330 $85 #
coedge $-1 $216 $216 $217 $331 reversed $133 $-1 #
coedge $-1 $217 $217 $216 $331 forward $135 $-1 #
coedge $-1 $218 $218 $136 $219 forward $213 $-1 #
edge $-1 $332 0 $332 6.2831853071796004 $218 $333 forward 7 unknown #
face $-1 $334 $335 $33 $-1 $336 reversed single #
loop $-1 $-1 $337 $137 #
plane-surface $-1 -61.478926969206825 0 0 1 0 0 0 0 -1 forward_v I I I I #
coedge $-1 $338 $231 $339 $340 forward $138 $-1 #
coedge $-1 $341 $140 $338 $342 forward $89 $-1 #
coedge $-1 $140 $341 $343 $344 forward $89 $-1 #
coedge $-1 $234 $233 $140 $227 reversed $235 $-1 #
edge $-1 $345 -26.150730561583632 $346 26.150730561583632 $226 $347 forward 7 unknown #
coedge $-1 $142 $141 $348 $349 forward $56 $-1 #
coedge $-1 $350 $351 $141 $230 reversed $335 $-1 #
edge $-1 $237 -61.478926969206825 $352 61.478926969206825 $229 $353 forward 7 unknown #
coedge $-1 $223 $354 $142 $232 reversed $138 $-1 #
edge $-1 $355 -61.478926969206825 $236 61.478926969206825 $231 $356 forward 7 unknown #
coedge $-1 $226 $143 $354 $357 forward $235 $-1 #
coedge $-1 $143 $226 $350 $358 reversed $235 $-1 #
loop $-1 $-1 $233 $334 #
vertex $-1 $144 $359 #
vertex $-1 $144 $360 #
straight-curve $-1 61.478926969206825 0 10.216637998111297 0 1 0 I I #
face $-1 $361 $362 $34 $-1 $363 reversed single #
loop $-1 $-1 $364 $145 #
plane-surface $-1 0 -30.019193643615765 -1.9455626247921547 0 0 1 1 0 0 forward_v I I I I #
coedge $-1 $151 $365 $366 $367 forward $146 $-1 #
coedge $-1 $368 $148 $369 $370 reversed $93 $-1 #
coedge $-1 $148 $368 $249 $371 reversed $93 $-1 #
edge $-1 $250 -2.236689400839305 $372 1.9455626247921547 $148 $373 forward 7 unknown #
coedge $-1 $150 $149 $374 $375 forward $59 $-1 #
coedge $-1 $366 $376 $149 $248 forward $377 $-1 #
edge $-1 $378 -1.9455626247921547 $251 2.236689400839305 $247 $379 forward 7 unknown #
coedge $-1 $365 $151 $244 $371 forward $146 $-1 #
vertex $-1 $245 $380 #
vertex $-1 $367 $381 #
straight-curve $-1 0 -26.150730561583632 2.236689400839305 1 0 0 I I #
face $-1 $382 $383 $35 $-1 $384 reversed single #
loop $-1 $-1 $385 $153 #
plane-surface $-1 0 30.019193643615761 -1.9455626247921547 0 0 1 1 0 0 forward_v I I I I #
coedge $-1 $386 $159 $258 $387 forward $154 $-1 #
coedge $-1 $388 $156 $385 $389 reversed $97 $-1 #
coedge $-1 $156 $388 $256 $387 reversed $97 $-1 #
edge $-1 $264 -2.236689400839305 $390 1.9455626247921547 $156 $391 forward 7 unknown #
coedge $-1 $158 $157 $392 $393 forward $62 $-1 #
coedge $-1 $394 $395 $157 $262 forward $396 $-1 #
edge $-1 $397 -1.9455626247921547 $265 2.236689400839305 $261 $398 forward 7 unknown #
coedge $-1 $159 $386 $394 $399 forward $154 $-1 #
vertex $-1 $259 $400 #
vertex $-1 $399 $401 #
straight-curve $-1 0 26.150730561583632 2.236689400839305 -1 0 0 I I #
face $-1 $-1 $279 $36 $-1 $402 forward single #
loop $-1 $-1 $403 $161 #
plane-surface $-1 -61.478926969206825 0 0 1 0 0 0 0 -1 forward_v I I I I #
coedge $-1 $404 $405 $406 $407 reversed $162 $-1 #
coedge $-1 $408 $164 $166 $277 forward $101 $-1 #
coedge $-1 $164 $408 $404 $409 forward $101 $-1 #
coedge $-1 $406 $167 $164 $274 forward $279 $-1 #
edge $-1 $281 -7.8323598923266786 $410 2.5024428151888998 $273 $411 forward 7 unknown #
coedge $-1 $412 $413 $165 $276 forward $268 $-1 #
edge $-1 $414 -44.574995882783107 $280 -35.134046810400385 $275 $415 forward 7 unknown #
edge $-1 $281 -13.84306695293516 $414 0 $166 $416 forward 7 unknown #
coedge $-1 $167 $406 $412 $417 forward $279 $-1 #
loop $-1 $-1 $406 $267 #
vertex $-1 $276 $418 #
vertex $-1 $168 $419 #
straight-curve $-1 -72.66799135450232 -10.497318430895568 10.216637998111295 1 0 0 I I #
coedge $-1 $283 $283 $-1 $420 reversed $171 $-1 #
edge $-1 $421 0 $421 6.2831853071796004 $172 $422 forward 7 unknown #
vertex $-1 $175 $423 #
ellipse-curve $-1 -56.416837892646598 -5.3299170771377788 5.496163461919938 -0.68199836817093118 0 0.7313536940579346 1.4627073881158692 0 1.3639967363418624 1 I I #
face $-1 $-1 $424 $38 $-1 $425 reversed single #
loop $-1 $-1 $182 $176 #
plane-surface $-1 0 0 10.216637998111297 0 0 1 1 0 0 forward_v I I I I #
coedge $-1 $426 $427 $428 $429 reversed $177 $-1 #
coedge $-1 $430 $179 $181 $297 forward $110 $-1 #
coedge $-1 $179 $430 $426 $431 forward $110 $-1 #
coedge $-1 $428 $182 $179 $294 forward $288 $-1 #
edge $-1 $300 0.67501750112127112 $432 8.6785117151417666 $293 $433 forward 7 unknown #
coedge $-1 $434 $435 $180 $296 forward $424 $-1 #
edge $-1 $436 -85.972184654482305 $299 -77.461533714489534 $295 $437 forward 7 unknown #
edge $-1 $300 110.23888583748072 $436 122.95785393841363 $181 $438 forward 7 unknown #
coedge $-1 $182 $428 $434 $439 forward $288 $-1 #
vertex $-1 $296 $440 #
vertex $-1 $183 $441 #
straight-curve $-1 26.189149652966108 -5.35178210925279 10.216637998111295 -1 0 0 I I #
coedge $-1 $302 $302 $-1 $442 reversed $186 $-1 #
edge $-1 $443 0 $443 6.2831853071796004 $187 $444 forward 7 unknown #
vertex $-1 $190 $445 #
ellipse-curve $-1 56.752909350477786 -11.068563690696003 5.9613125281149006 0.66913061440640931 0 0.74314481823134659 0.74314481823134659 0 -0.66913061440640931 1 I I #
coedge $-1 $306 $306 $-1 $446 reversed $193 $-1 #
edge $-1 $447 0 $447 6.2831853071796004 $194 $448 forward 7 unknown #
vertex $-1 $197 $449 #
ellipse-curve $-1 56.752909350477786 -7.6384947418300762 5.9613125281149006 0.66913061440640931 0 0.74314481823134659 0.74314481823134659 0 -0.66913061440640931 1 I I #
face $-1 $-1 $322 $41 $-1 $450 forward single #
loop $-1 $-1 $451 $198 #
plane-surface $-1 61.478926969206825 0 0 -1 0 0 0 0 1 forward_v I I I I #
coedge $-1 $452 $453 $454 $455 reversed $199 $-1 #
coedge $-1 $456 $201 $203 $320 forward $124 $-1 #
coedge $-1 $201 $456 $452 $457 forward $124 $-1 #
coedge $-1 $454 $204 $201 $317 forward $322 $-1 #
edge $-1 $324 -8.6785117151417666 $458 -0.67501750112127112 $316 $459 forward 7 unknown #
coedge $-1 $460 $461 $202 $319 forward $311 $-1 #
edge $-1 $462 -85.972184654482305 $323 -77.461533714489534 $318 $463 forward 7 unknown #
edge $-1 $324 110.23888583748072 $462 122.95785393841363 $203 $464 forward 7 unknown #
coedge $-1 $204 $454 $460 $465 forward $322 $-1 #
loop $-1 $-1 $454 $310 #
vertex $-1 $319 $466 #
vertex $-1 $205 $467 #
straight-curve $-1 26.189149652966108 13.355276323273285 10.216637998111295 -1 0 0 I I #
coedge $-1 $326 $326 $-1 $468 reversed $208 $-1 #
edge $-1 $469 0 $469 6.2831853071796004 $209 $470 forward 7 unknown #
vertex $-1 $212 $471 #
ellipse-curve $-1 56.752909350477786 7.6384947418300762 5.9613125281149006 0.66913061440640931 0 0.74314481823134659 0.74314481823134659 0 -0.66913061440640931 1 I I #
coedge $-1 $330 $330 $-1 $472 reversed $215 $-1 #
edge $-1 $473 0 $473 6.2831853071796004 $216 $474 forward 7 unknown #
vertex $-1 $219 $475 #
ellipse-curve $-1 56.752909350477786 11.068563690696006 5.9613125281149006 0.66913061440640931 0 0.74314481823134659 0.74314481823134659 0 -0.66913061440640931 1 I I #
face $-1 $-1 $235 $33 $-1 $476 reversed single #
loop $-1 $-1 $350 $220 #
plane-surface $-1 0 26.150730561583632 0 0 -1 0 0 0 -1 forward_v I I I I #
coedge $-1 $477 $348 $351 $478 forward $221 $-1 #
coedge $-1 $354 $223 $224 $342 reversed $138 $-1 #
coedge $-1 $348 $477 $223 $340 reversed $221 $-1 #
edge $-1 $355 -10.216637998111297 $479 10.216637998111297 $339 $480 forward 7 unknown #
coedge $-1 $225 $224 $477 $481 forward $89 $-1 #
edge $-1 $346 -61.478926969206825 $479 61.478926969206825 $338 $482 forward 7 unknown #
coedge $-1 $351 $350 $225 $344 reversed $335 $-1 #
edge $-1 $483 -61.478926969206825 $345 61.478926969206825 $343 $484 forward 7 unknown #
vertex $-1 $227 $485 #
vertex $-1 $357 $486 #
straight-curve $-1 61.478926969206825 0 -10.216637998111297 0 -1 0 I I #
coedge $-1 $337 $339 $228 $349 reversed $221 $-1 #
edge $-1 $352 -26.150730561583632 $355 26.150730561583632 $348 $487 forward 7 unknown #
coedge $-1 $343 $229 $234 $358 forward $335 $-1 #
coedge $-1 $229 $343 $337 $478 reversed $335 $-1 #
vertex $-1 $230 $488 #
straight-curve $-1 0 26.150730561583632 10.216637998111297 -1 0 0 I I #
coedge $-1 $231 $338 $233 $357 reversed $138 $-1 #
vertex $-1 $349 $489 #
straight-curve $-1 0 -26.150730561583632 10.216637998111297 1 0 0 I I #
edge $-1 $236 -10.216637998111297 $346 10.216637998111297 $233 $490 forward 7 unknown #
edge $-1 $237 -10.216637998111297 $345 10.216637998111297 $234 $491 forward 7 unknown #
point $-1 61.478926969206825 -26.150730561583632 10.216637998111297 #
point $-1 61.478926969206825 26.150730561583632 10.216637998111297 #
face $-1 $-1 $377 $34 $-1 $492 reversed single #
loop $-1 $-1 $493 $239 #
plane-surface $-1 0 -33.887656725647894 0.14556338802357516 0 1 0 0 0 1 forward_v I I I I #
coedge $-1 $494 $374 $376 $495 forward $240 $-1 #
coedge $-1 $242 $249 $496 $497 forward $146 $-1 #
coedge $-1 $498 $247 $242 $367 reversed $377 $-1 #
edge $-1 $499 -3.8684630820321289 $251 3.8684630820321324 $366 $500 forward 7 unknown #
coedge $-1 $244 $243 $493 $501 reversed $93 $-1 #
coedge $-1 $374 $494 $243 $370 forward $240 $-1 #
edge $-1 $502 -3.8684630820321289 $372 3.8684630820321324 $243 $503 forward 7 unknown #
edge $-1 $250 -3.8684630820321324 $504 3.8684630820321289 $244 $505 forward 7 unknown #
vertex $-1 $245 $506 #
straight-curve $-1 -61.478926969206825 -26.150730561583632 0 0 0 -1 I I #
coedge $-1 $364 $369 $246 $375 reversed $240 $-1 #
edge $-1 $378 -61.478926969206825 $372 61.478926969206825 $374 $507 forward 7 unknown #
coedge $-1 $247 $498 $364 $495 reversed $377 $-1 #
loop $-1 $-1 $247 $361 #
vertex $-1 $248 $508 #
straight-curve $-1 61.478926969206825 -26.150730561583632 0 0 0 1 I I #
point $-1 -61.478926969206825 -26.150730561583632 2.236689400839305 #
point $-1 61.478926969206825 -26.150730561583632 2.236689400839305 #
face $-1 $-1 $396 $35 $-1 $509 reversed single #
loop $-1 $-1 $510 $253 #
plane-surface $-1 0 33.887656725647894 0.14556338802357516 0 -1 0 0 0 -1 forward_v I I I I #
coedge $-1 $392 $511 $257 $389 forward $254 $-1 #
coedge $-1 $263 $256 $512 $513 forward $154 $-1 #
edge $-1 $264 -3.8684630820321324 $514 3.8684630820321324 $258 $515 forward 7 unknown #
coedge $-1 $258 $257 $510 $516 reversed $97 $-1 #
edge $-1 $517 -3.8684630820321324 $390 3.8684630820321324 $257 $518 forward 7 unknown #
vertex $-1 $259 $519 #
straight-curve $-1 61.478926969206825 26.150730561583632 0 0 0 -1 I I #
coedge $-1 $520 $385 $260 $393 reversed $254 $-1 #
edge $-1 $397 -61.478926969206825 $390 61.478926969206825 $392 $521 forward 7 unknown #
coedge $-1 $522 $261 $263 $399 reversed $396 $-1 #
coedge $-1 $261 $522 $520 $523 reversed $396 $-1 #
loop $-1 $-1 $261 $382 #
vertex $-1 $262 $524 #
straight-curve $-1 -61.478926969206825 26.150730561583632 0 0 0 1 I I #
edge $-1 $525 -3.8684630820321324 $265 3.8684630820321324 $394 $526 forward 7 unknown #
point $-1 61.478926969206825 26.150730561583629 2.236689400839305 #
point $-1 -61.478926969206825 26.150730561583629 2.236689400839305 #
plane-surface $-1 0 0 10.216637998111297 0 0 1 1 0 0 forward_v I I I I #
coedge $-1 $413 $412 $405 $527 forward $268 $-1 #
coedge $-1 $405 $270 $272 $409 reversed $162 $-1 #
coedge $-1 $270 $404 $403 $527 reversed $162 $-1 #
coedge $-1 $278 $273 $270 $407 forward $279 $-1 #
edge $-1 $410 -21.313242538415942 $528 -11.189064385295495 $406 $529 forward 7 unknown #
coedge $-1 $272 $271 $413 $530 reversed $101 $-1 #
edge $-1 $531 0 $410 13.84306695293516 $404 $532 forward 7 unknown #
vertex $-1 $274 $533 #
straight-curve $-1 -51.354748816086385 -2.6649585385688894 10.216637998111297 0 1 0 I I #
coedge $-1 $403 $275 $278 $417 reversed $268 $-1 #
coedge $-1 $275 $403 $408 $530 forward $268 $-1 #
vertex $-1 $276 $534 #
straight-curve $-1 -61.478926969206825 -10.497318430895568 45.35068480851168 0 0 1 I I #
straight-curve $-1 -61.478926969206825 -10.497318430895568 0.77568892572857351 -0.7313536940579346 0 -0.68199836817093118 I I #
edge $-1 $528 0.16251572337998965 $280 10.497318430895568 $412 $535 forward 7 unknown #
point $-1 -61.478926969206825 -10.497318430895568 10.216637998111297 #
point $-1 -51.354748816086378 -10.497318430895568 10.216637998111297 #
edge $-1 $536 1 $536 0 $283 $-1 forward 7 unknown #
vertex $-1 $284 $537 #
ellipse-curve $-1 -52.613157305982035 -5.3299170771377788 1.4172155085190243 -0.68199836817093118 0 0.7313536940579346 1.4627073881158692 0 1.3639967363418624 1 I I #
point $-1 -54.954130504530724 -5.3299170771377788 6.8601601982617941 #
loop $-1 $-1 $295 $287 #
plane-surface $-1 61.478926969206825 0 0 -1 0 0 0 0 1 forward_v I I I I #
coedge $-1 $427 $290 $292 $431 reversed $177 $-1 #
coedge $-1 $290 $426 $538 $539 reversed $177 $-1 #
coedge $-1 $298 $293 $290 $429 forward $288 $-1 #
edge $-1 $432 25.837742078782625 $540 35.289777316240716 $428 $541 forward 7 unknown #
coedge $-1 $292 $291 $435 $542 reversed $110 $-1 #
edge $-1 $543 -122.95785393841363 $432 -110.23888583748072 $426 $544 forward 7 unknown #
vertex $-1 $294 $545 #
straight-curve $-1 52.026891731748748 -4.6767646081315188 10.216637998111295 0 -1 0 I I #
coedge $-1 $538 $295 $298 $439 reversed $424 $-1 #
coedge $-1 $295 $538 $430 $542 forward $424 $-1 #
vertex $-1 $296 $546 #
straight-curve $-1 61.478926969206825 -5.35178210925279 87.678171712600829 0 0 1 I I #
straight-curve $-1 -29.896565045972039 -5.35178210925279 83.98085141002278 0.74314481823134659 0 -0.66913061440640931 I I #
edge $-1 $540 -13.355276323273285 $299 -5.35178210925279 $434 $547 forward 7 unknown #
point $-1 61.478926969206825 -5.35178210925279 10.216637998111297 #
point $-1 52.026891731748734 -5.35178210925279 10.216637998111295 #
edge $-1 $548 1 $548 0 $302 $-1 forward 7 unknown #
vertex $-1 $303 $549 #
ellipse-curve $-1 54.350843372164334 -11.068563690696003 3.2935480492515121 0.66913061440640931 0 0.74314481823134659 0.74314481823134659 0 -0.66913061440640931 1 I I #
point $-1 57.496054168709136 -11.068563690696003 5.2921819137084984 #
edge $-1 $550 1 $550 0 $306 $-1 forward 7 unknown #
vertex $-1 $307 $551 #
ellipse-curve $-1 54.350843372164334 -7.6384947418300762 3.2935480492515121 0.66913061440640931 0 0.74314481823134659 0.74314481823134659 0 -0.66913061440640931 1 I I #
point $-1 57.496054168709136 -7.6384947418300762 5.2921819137084984 #
plane-surface $-1 0 0 10.216637998111297 0 0 1 1 0 0 forward_v I I I I #
coedge $-1 $461 $460 $453 $552 forward $311 $-1 #
coedge $-1 $453 $313 $315 $457 reversed $199 $-1 #
coedge $-1 $313 $452 $451 $552 reversed $199 $-1 #
coedge $-1 $321 $316 $313 $455 forward $322 $-1 #
edge $-1 $458 25.837742078782625 $553 35.289777316240716 $454 $554 forward 7 unknown #
coedge $-1 $315 $314 $461 $555 reversed $124 $-1 #
edge $-1 $556 -122.95785393841363 $458 -110.23888583748072 $452 $557 forward 7 unknown #
vertex $-1 $317 $558 #
straight-curve $-1 52.026891731748748 4.6767646081315188 10.216637998111295 0 -1 0 I I #
coedge $-1 $451 $318 $321 $465 reversed $311 $-1 #
coedge $-1 $318 $451 $456 $555 forward $311 $-1 #
vertex $-1 $319 $559 #
straight-curve $-1 61.478926969206825 13.355276323273285 87.678171712600829 0 0 1 I I #
straight-curve $-1 -29.896565045972039 13.355276323273285 83.98085141002278 0.74314481823134659 0 -0.66913061440640931 I I #
edge $-1 $553 5.35178210925279 $323 13.355276323273285 $460 $560 forward 7 unknown #
point $-1 61.478926969206825 13.355276323273285 10.216637998111297 #
point $-1 52.026891731748734 13.355276323273285 10.216637998111295 #
edge $-1 $561 1 $561 0 $326 $-1 forward 7 unknown #
vertex $-1 $327 $562 #
ellipse-curve $-1 54.350843372164334 7.6384947418300762 3.2935480492515121 0.66913061440640931 0 0.74314481823134659 0.74314481823134659 0 -0.66913061440640931 1 I I #
point $-1 57.496054168709136 7.6384947418300762 5.2921819137084984 #
edge $-1 $563 1 $563 0 $330 $-1 forward 7 unknown #
vertex $-1 $331 $564 #
ellipse-curve $-1 54.350843372164334 11.068563690696006 3.2935480492515121 0.66913061440640931 0 0.74314481823134659 0.74314481823134659 0 -0.66913061440640931 1 I I #
point $-1 57.496054168709136 11.068563690696006 5.2921819137084984 #
plane-surface $-1 61.478926969206825 0 0 -1 0 0 0 0 1 forward_v I I I I #
coedge $-1 $339 $337 $341 $481 reversed $221 $-1 #
edge $-1 $352 -10.216637998111297 $483 10.216637998111297 $351 $565 forward 7 unknown #
vertex $-1 $481 $566 #
straight-curve $-1 -61.478926969206825 -26.150730561583632 0 0 0 -1 I I #
edge $-1 $479 -26.150730561583632 $483 26.150730561583632 $477 $567 forward 7 unknown #
straight-curve $-1 0 -26.150730561583632 -10.216637998111297 -1 0 0 I I #
vertex $-1 $344 $568 #
straight-curve $-1 0 26.150730561583632 -10.216637998111297 1 0 0 I I #
point $-1 61.478926969206825 26.150730561583632 -10.216637998111297 #
point $-1 61.478926969206825 -26.150730561583632 -10.216637998111297 #
straight-curve $-1 -61.478926969206825 0 10.216637998111297 0 -1 0 I I #
point $-1 -61.478926969206825 26.150730561583632 10.216637998111297 #
point $-1 -61.478926969206825 -26.150730561583632 10.216637998111297 #
straight-curve $-1 61.478926969206825 -26.150730561583632 0 0 0 -1 I I #
straight-curve $-1 61.478926969206825 26.150730561583632 0 0 0 -1 I I #
plane-surface $-1 61.478926969206825 0 0 -1 0 0 0 0 1 forward_v I I I I #
coedge $-1 $569 $496 $368 $501 forward $362 $-1 #
coedge $-1 $369 $364 $569 $570 forward $240 $-1 #
edge $-1 $378 -3.8684630820321324 $571 3.8684630820321289 $376 $572 forward 7 unknown #
coedge $-1 $493 $573 $365 $497 reversed $362 $-1 #
edge $-1 $504 -61.478926969206825 $499 61.478926969206825 $496 $574 forward 7 unknown #
coedge $-1 $376 $366 $573 $575 forward $377 $-1 #
vertex $-1 $367 $576 #
straight-curve $-1 61.478926969206825 -30.019193643615765 2.236689400839305 0 1 0 I I #
edge $-1 $504 -2.0911260128157299 $502 2.0911260128157299 $368 $577 forward 7 unknown #
vertex $-1 $370 $578 #
straight-curve $-1 -61.478926969206825 -30.019193643615765 -1.9455626247921547 0 1 0 I I #
vertex $-1 $371 $579 #
straight-curve $-1 -61.478926969206825 -30.019193643615765 2.236689400839305 0 -1 0 I I #
point $-1 -61.478926969206825 -26.150730561583632 -1.9455626247921547 #
straight-curve $-1 0 -26.150730561583632 -1.9455626247921547 -1 0 0 I I #
point $-1 61.478926969206825 -26.150730561583632 -1.9455626247921547 #
plane-surface $-1 -61.478926969206825 0 0 1 0 0 0 0 -1 forward_v I I I I #
coedge $-1 $580 $512 $388 $516 forward $383 $-1 #
coedge $-1 $385 $520 $580 $581 forward $254 $-1 #
coedge $-1 $510 $582 $386 $513 reversed $383 $-1 #
edge $-1 $514 -61.478926969206825 $525 61.478926969206825 $512 $583 forward 7 unknown #
vertex $-1 $387 $584 #
straight-curve $-1 61.478926969206825 30.019193643615761 2.236689400839305 0 1 0 I I #
edge $-1 $514 -2.0911260128157299 $517 2.0911260128157299 $388 $585 forward 7 unknown #
vertex $-1 $389 $586 #
straight-curve $-1 61.478926969206825 30.019193643615761 -1.9455626247921547 0 -1 0 I I #
point $-1 61.478926969206825 26.150730561583629 -1.9455626247921547 #
coedge $-1 $511 $392 $395 $523 forward $254 $-1 #
straight-curve $-1 0 26.150730561583632 -1.9455626247921547 1 0 0 I I #
coedge $-1 $395 $394 $582 $587 forward $396 $-1 #
edge $-1 $397 -3.8684630820321324 $588 3.8684630820321324 $395 $589 forward 7 unknown #
point $-1 -61.478926969206825 26.150730561583629 -1.9455626247921547 #
vertex $-1 $513 $590 #
straight-curve $-1 -61.478926969206825 30.019193643615761 2.236689400839305 0 -1 0 I I #
edge $-1 $528 35.134046810400385 $531 44.574995882783107 $403 $591 forward 7 unknown #
vertex $-1 $417 $592 #
straight-curve $-1 -72.66799135450232 -0.16251572337998965 10.216637998111295 -1 0 0 I I #
edge $-1 $531 -2.5024428151888998 $414 7.8323598923266786 $413 $593 forward 7 unknown #
vertex $-1 $530 $594 #
straight-curve $-1 -61.478926969206825 -0.16251572337998965 0.77568892572857351 0.7313536940579346 0 0.68199836817093118 I I #
point $-1 -51.354748816086378 -0.16251572337998965 10.216637998111297 #
point $-1 -61.478926969206825 -10.497318430895568 0.77568892572857351 #
straight-curve $-1 -61.478926969206825 0 10.216637998111297 0 -1 0 I I #
vertex $-1 $420 $595 #
point $-1 -51.150449917866169 -5.3299170771377788 2.7812122448608867 #
coedge $-1 $435 $434 $427 $539 forward $424 $-1 #
edge $-1 $540 77.461533714489534 $543 85.972184654482305 $538 $596 forward 7 unknown #
vertex $-1 $439 $597 #
straight-curve $-1 26.189149652966108 -13.355276323273285 10.216637998111295 1 0 0 I I #
edge $-1 $543 -8.6785117151417666 $436 -0.67501750112127112 $435 $598 forward 7 unknown #
vertex $-1 $542 $599 #
straight-curve $-1 -29.896565045972039 -13.355276323273285 83.98085141002278 -0.74314481823134659 0 0.66913061440640931 I I #
point $-1 52.026891731748734 -13.355276323273285 10.216637998111295 #
point $-1 61.478926969206825 -5.35178210925279 1.7059870581185237 #
straight-curve $-1 61.478926969206825 0 10.216637998111297 0 1 0 I I #
vertex $-1 $442 $600 #
point $-1 55.093988190395677 -11.068563690696003 2.6244174348451028 #
vertex $-1 $446 $601 #
point $-1 55.093988190395677 -7.6384947418300762 2.6244174348451028 #
edge $-1 $553 77.461533714489534 $556 85.972184654482305 $451 $602 forward 7 unknown #
vertex $-1 $465 $603 #
straight-curve $-1 26.189149652966108 5.35178210925279 10.216637998111295 1 0 0 I I #
edge $-1 $556 0.67501750112127112 $462 8.6785117151417666 $461 $604 forward 7 unknown #
vertex $-1 $555 $605 #
straight-curve $-1 -29.896565045972039 5.35178210925279 83.98085141002278 -0.74314481823134659 0 0.66913061440640931 I I #
point $-1 52.026891731748734 5.35178210925279 10.216637998111295 #
point $-1 61.478926969206825 13.355276323273285 1.7059870581185237 #
straight-curve $-1 61.478926969206825 0 10.216637998111297 0 1 0 I I #
vertex $-1 $468 $606 #
point $-1 55.093988190395677 7.6384947418300762 2.6244174348451028 #
vertex $-1 $472 $607 #
point $-1 55.093988190395677 11.068563690696006 2.6244174348451028 #
straight-curve $-1 -61.478926969206825 26.150730561583632 0 0 0 -1 I I #
point $-1 -61.478926969206825 -26.150730561583632 -10.216637998111297 #
straight-curve $-1 -61.478926969206825 0 -10.216637998111297 0 1 0 I I #
point $-1 -61.478926969206825 26.150730561583632 -10.216637998111297 #
coedge $-1 $573 $493 $494 $570 reversed $362 $-1 #
edge $-1 $571 -61.478926969206825 $502 61.478926969206825 $569 $608 forward 7 unknown #
vertex $-1 $575 $609 #
straight-curve $-1 61.478926969206825 -30.019193643615765 -1.9455626247921547 0 -1 0 I I #
coedge $-1 $496 $569 $498 $575 reversed $362 $-1 #
straight-curve $-1 0 -33.887656725647894 2.236689400839305 1 0 0 I I #
edge $-1 $499 -2.0911260128157299 $571 2.0911260128157299 $498 $610 forward 7 unknown #
point $-1 61.478926969206825 -33.887656725647894 2.236689400839305 #
straight-curve $-1 -61.478926969206825 -33.887656725647894 0.14556338802357516 0 0 -1 I I #
point $-1 -61.478926969206825 -33.887656725647894 -1.9455626247921547 #
point $-1 -61.478926969206825 -33.887656725647894 2.236689400839305 #
coedge $-1 $582 $510 $511 $581 reversed $383 $-1 #
edge $-1 $588 -61.478926969206825 $517 61.478926969206825 $580 $611 forward 7 unknown #
coedge $-1 $512 $580 $522 $587 reversed $383 $-1 #
straight-curve $-1 0 33.887656725647894 2.236689400839305 -1 0 0 I I #
point $-1 61.478926969206825 33.887656725647894 2.236689400839305 #
straight-curve $-1 61.478926969206825 33.887656725647894 0.14556338802357516 0 0 -1 I I #
point $-1 61.478926969206825 33.887656725647894 -1.9455626247921547 #
edge $-1 $525 -2.0911260128157299 $588 2.0911260128157299 $582 $612 forward 7 unknown #
vertex $-1 $581 $613 #
straight-curve $-1 -61.478926969206825 30.019193643615761 -1.9455626247921547 0 1 0 I I #
point $-1 -61.478926969206825 33.887656725647894 2.236689400839305 #
straight-curve $-1 -61.478926969206825 -0.16251572337998965 45.35068480851168 0 0 -1 I I #
point $-1 -61.478926969206825 -0.16251572337998965 10.216637998111297 #
straight-curve $-1 -61.478926969206825 -2.6649585385688894 0.77568892572857417 0 -1 0 I I #
point $-1 -61.478926969206825 -0.16251572337998965 0.77568892572857351 #
point $-1 -51.249160569640175 -5.3299170771377788 -0.045491879596844864 #
straight-curve $-1 61.478926969206825 -13.355276323273285 87.678171712600829 0 0 -1 I I #
point $-1 61.478926969206825 -13.355276323273285 10.216637998111297 #
straight-curve $-1 61.478926969206825 -4.6767646081315188 1.7059870581185308 0 1 0 I I #
point $-1 61.478926969206825 -13.355276323273285 1.7059870581185237 #
point $-1 53.681712757757921 -11.068563690696003 2.5504032310201663 #
point $-1 53.681712757757921 -7.6384947418300762 2.5504032310201663 #
straight-curve $-1 61.478926969206825 5.35178210925279 87.678171712600829 0 0 -1 I I #
point $-1 61.478926969206825 5.35178210925279 10.216637998111297 #
straight-curve $-1 61.478926969206825 4.6767646081315188 1.7059870581185308 0 1 0 I I #
point $-1 61.478926969206825 5.35178210925279 1.7059870581185237 #
point $-1 53.681712757757921 7.6384947418300762 2.5504032310201663 #
point $-1 53.681712757757921 11.068563690696006 2.5504032310201663 #
straight-curve $-1 0 -33.887656725647894 -1.9455626247921547 -1 0 0 I I #
point $-1 61.478926969206825 -33.887656725647894 -1.9455626247921547 #
straight-curve $-1 61.478926969206825 -33.887656725647894 0.14556338802357516 0 0 -1 I I #
straight-curve $-1 0 33.887656725647894 -1.9455626247921547 1 0 0 I I #
straight-curve $-1 -61.478926969206825 33.887656725647894 0.14556338802357516 0 0 -1 I I #
point $-1 -61.478926969206825 33.887656725647894 -1.9455626247921547 #
End-of-ACIS-data 