500 0 9 0           
7 Unknown 11 ACIS 5.0 NT 24 Thu Mar 25 19:11:33 1999 
-1 9.9999999999999995e-007 1e-010 
body $-1 $9 $-1 $10 #
body $-1 $11 $-1 $12 #
body $-1 $13 $-1 $14 #
body $-1 $15 $-1 $16 #
body $-1 $17 $-1 $18 #
body $-1 $19 $-1 $20 #
body $-1 $21 $-1 $22 #
body $-1 $23 $-1 $24 #
body $-1 $25 $-1 $26 #
lump $-1 $-1 $27 $0 #
transform $-1 1 0 0 0 1 0 0 0 1 44.458143864253671 18.366137229654328 4 1 rotate no_reflect no_shear #
lump $-1 $-1 $28 $1 #
transform $-1 1 0 0 0 1 0 0 0 1 44.458143864253671 18.366137229654328 4 1 rotate no_reflect no_shear #
lump $-1 $-1 $29 $2 #
transform $-1 1 0 0 0 1 0 0 0 1 44.458143864253671 18.366137229654328 4 1 rotate no_reflect no_shear #
lump $-1 $-1 $30 $3 #
transform $-1 1 0 0 0 1 0 0 0 1 44.458143864253671 18.366137229654328 4 1 rotate no_reflect no_shear #
lump $-1 $-1 $31 $4 #
transform $-1 1 0 0 0 1 0 0 0 1 44.458143864253671 18.366137229654328 4 1 rotate no_reflect no_shear #
lump $-1 $-1 $32 $5 #
transform $-1 1 0 0 0 1 0 0 0 1 44.458143864253671 18.366137229654328 4 1 rotate no_reflect no_shear #
lump $-1 $-1 $33 $6 #
transform $-1 1 0 0 0 1 0 0 0 1 44.458143864253671 18.366137229654328 4 1 rotate no_reflect no_shear #
lump $-1 $-1 $34 $7 #
transform $-1 1 0 0 0 1 0 0 0 1 44.458143864253671 18.366137229654328 4 1 rotate no_reflect no_shear #
lump $-1 $-1 $35 $8 #
transform $-1 1 0 0 0 1 0 0 0 1 44.458143864253671 18.366137229654328 4 1 rotate no_reflect no_shear #
shell $-1 $-1 $-1 $36 $-1 $9 #
shell $-1 $-1 $-1 $37 $-1 $11 #
shell $-1 $-1 $-1 $38 $-1 $13 #
shell $-1 $-1 $-1 $39 $-1 $15 #
shell $-1 $-1 $-1 $40 $-1 $17 #
shell $-1 $-1 $-1 $41 $-1 $19 #
shell $-1 $-1 $-1 $42 $-1 $21 #
shell $-1 $-1 $-1 $43 $-1 $23 #
shell $-1 $-1 $-1 $44 $-1 $25 #
face $-1 $45 $46 $27 $-1 $47 forward single #
face $-1 $48 $49 $28 $-1 $50 forward single #
face $-1 $51 $52 $29 $-1 $53 reversed single #
face $-1 $54 $55 $30 $-1 $56 forward single #
face $-1 $57 $58 $31 $-1 $59 forward single #
face $-1 $60 $61 $32 $-1 $62 forward single #
face $-1 $63 $64 $33 $-1 $65 reversed single #
face $-1 $66 $67 $34 $-1 $68 forward single #
face $-1 $69 $70 $35 $-1 $71 forward single #
face $-1 $72 $73 $27 $-1 $74 reversed single #
loop $-1 $-1 $75 $36 #
plane-surface $-1 0 0 4 0 0 1 1 0 0 forward_v I I I I #
face $-1 $76 $77 $28 $-1 $78 reversed single #
loop $-1 $-1 $79 $37 #
plane-surface $-1 0 -18.366137229654328 0 0 1 0 0 0 1 forward_v I I I I #
face $-1 $80 $81 $29 $-1 $82 reversed single #
loop $-1 $-1 $83 $38 #
plane-surface $-1 66.293817034876142 10.653625446695166 124.19444174834686 0 -1 0 -0.81915205242281985 0 -0.57357642473473569 forward_v I I I I #
face $-1 $84 $85 $30 $-1 $86 forward single #
loop $-1 $87 $88 $39 #
cone-surface $-1 42.773558480758986 5.8431450678497896 1.8923096604925338 -0.81915205242281985 0 -0.57357642473473569 0.28678821236736785 0 -0.40957602621140993 1 I I 0 1 0.5 forward I I I I #
face $-1 $89 $90 $31 $-1 $91 forward single #
loop $-1 $92 $93 $40 #
cone-surface $-1 42.773558480758986 7.6470752099168067 1.8923096604925338 -0.81915205242281985 0 -0.57357642473473569 0.28678821236736785 0 -0.40957602621140993 1 I I 0 1 0.5 forward I I I I #
face $-1 $94 $95 $32 $-1 $96 forward single #
loop $-1 $97 $98 $41 #
cone-surface $-1 42.773558480758986 9.4510053519838237 1.8923096604925338 -0.81915205242281985 0 -0.57357642473473569 0.28678821236736785 0 -0.40957602621140993 1 I I 0 1 0.5 forward I I I I #
face $-1 $99 $100 $33 $-1 $101 reversed single #
loop $-1 $-1 $102 $42 #
plane-surface $-1 -97.969302299622342 9.2524071756019719 71.181600833331373 0 1 0 -0.6018150307709319 0 0.79863550430605224 forward_v I I I I #
face $-1 $103 $104 $34 $-1 $105 forward single #
loop $-1 $106 $107 $43 #
cone-surface $-1 -41.390290411135609 11.023330275565222 1.3862671173303232 0.6018150307709319 0 -0.79863550430605224 0.39931775215302612 0 0.30090751538546595 1 I I 0 1 0.5 forward I I I I #
face $-1 $108 $109 $35 $-1 $110 forward single #
loop $-1 $111 $112 $44 #
cone-surface $-1 -41.390290411135609 13.679714925510105 1.3862671173303232 0.6018150307709319 0 -0.79863550430605224 0.39931775215302612 0 0.30090751538546595 1 I I 0 1 0.5 forward I I I I #
face $-1 $113 $114 $27 $-1 $115 reversed single #
loop $-1 $-1 $116 $45 #
plane-surface $-1 0 0 -4 0 0 1 1 0 0 forward_v I I I I #
coedge $-1 $117 $118 $119 $120 forward $46 $-1 #
face $-1 $121 $122 $28 $-1 $123 reversed single #
loop $-1 $-1 $124 $48 #
plane-surface $-1 0 0 -4 0 0 1 1 0 0 forward_v I I I I #
coedge $-1 $125 $126 $127 $128 forward $49 $-1 #
face $-1 $129 $130 $29 $-1 $131 reversed single #
loop $-1 $-1 $132 $51 #
plane-surface $-1 -6.5421425517486398 7.6470752099168067 73.194155332344565 0.81915205242281985 0 0.57357642473473569 0.57357642473473569 0 -0.81915205242281985 forward_v I I I I #
coedge $-1 $133 $134 $135 $136 reversed $52 $-1 #
face $-1 $-1 $137 $30 $-1 $138 forward single #
loop $-1 $139 $140 $54 #
cone-surface $-1 42.159194441441869 5.8431450678497896 1.462127341941482 -0.81915205242281985 0 -0.57357642473473569 0.14339410618368392 0 -0.20478801310570496 1 I I -0.70710678118654746 0.70710678118654746 0.25 forward I I I I #
loop $-1 $-1 $141 $39 #
coedge $-1 $88 $88 $142 $143 reversed $55 $-1 #
face $-1 $-1 $144 $31 $-1 $145 forward single #
loop $-1 $146 $147 $57 #
cone-surface $-1 42.159194441441869 7.6470752099168067 1.462127341941482 -0.81915205242281985 0 -0.57357642473473569 0.14339410618368392 0 -0.20478801310570496 1 I I -0.70710678118654746 0.70710678118654746 0.25 forward I I I I #
loop $-1 $-1 $148 $40 #
coedge $-1 $93 $93 $149 $150 reversed $58 $-1 #
face $-1 $-1 $151 $32 $-1 $152 forward single #
loop $-1 $153 $154 $60 #
cone-surface $-1 42.159194441441869 9.4510053519838237 1.462127341941482 -0.81915205242281985 0 -0.57357642473473569 0.14339410618368392 0 -0.20478801310570496 1 I I -0.70710678118654746 0.70710678118654746 0.25 forward I I I I #
loop $-1 $-1 $155 $41 #
coedge $-1 $98 $98 $156 $157 reversed $61 $-1 #
face $-1 $158 $159 $33 $-1 $160 reversed single #
loop $-1 $-1 $161 $63 #
plane-surface $-1 -44.458143864253664 12.351522600537663 0.16989654225287154 -0.6018150307709319 0 0.79863550430605224 0.79863550430605224 0 0.6018150307709319 forward_v I I I I #
coedge $-1 $162 $163 $164 $165 reversed $64 $-1 #
face $-1 $-1 $166 $34 $-1 $167 forward single #
loop $-1 $168 $169 $66 #
cone-surface $-1 -40.713342629819124 11.023330275565222 0.48792708745769531 0.6018150307709319 0 -0.79863550430605224 0.19965887607651306 0 0.15045375769273298 1 I I -0.70710678118654746 0.70710678118654746 0.25 forward I I I I #
loop $-1 $-1 $170 $43 #
coedge $-1 $107 $107 $171 $172 reversed $67 $-1 #
face $-1 $-1 $173 $35 $-1 $174 forward single #
loop $-1 $175 $176 $69 #
cone-surface $-1 -40.713342629819124 13.679714925510105 0.48792708745769531 0.6018150307709319 0 -0.79863550430605224 0.19965887607651306 0 0.15045375769273298 1 I I -0.70710678118654746 0.70710678118654746 0.25 forward I I I I #
loop $-1 $-1 $177 $44 #
coedge $-1 $112 $112 $178 $179 reversed $70 $-1 #
face $-1 $180 $181 $27 $-1 $182 reversed single #
loop $-1 $-1 $183 $72 #
plane-surface $-1 0 -18.366137229654328 0 0 1 0 0 0 1 forward_v I I I I #
coedge $-1 $184 $185 $186 $187 forward $73 $-1 #
coedge $-1 $188 $75 $189 $190 forward $46 $-1 #
coedge $-1 $75 $188 $191 $192 forward $46 $-1 #
coedge $-1 $193 $194 $75 $120 reversed $195 $-1 #
edge $-1 $196 -18.366137229654328 $197 18.366137229654328 $119 $198 forward 7 unknown #
face $-1 $199 $200 $28 $-1 $201 reversed single #
loop $-1 $-1 $202 $76 #
plane-surface $-1 -41.596255378887292 -22.546855635367393 0 0 1 0 0 0 1 forward_v I I I I #
coedge $-1 $203 $204 $126 $205 forward $77 $-1 #
coedge $-1 $206 $79 $207 $208 reversed $49 $-1 #
coedge $-1 $79 $206 $124 $205 reversed $49 $-1 #
coedge $-1 $209 $210 $79 $128 reversed $200 $-1 #
edge $-1 $211 -4 $212 4 $127 $213 forward 7 unknown #
face $-1 $214 $215 $29 $-1 $216 forward single #
loop $-1 $-1 $217 $80 #
plane-surface $-1 66.293817034876142 4.6405249731384473 124.19444174834686 0 1 0 0.81915205242281985 0 0.57357642473473569 forward_v I I I I #
coedge $-1 $218 $219 $220 $221 reversed $81 $-1 #
coedge $-1 $134 $83 $222 $223 reversed $52 $-1 #
coedge $-1 $83 $133 $218 $224 reversed $52 $-1 #
coedge $-1 $220 $225 $83 $136 forward $215 $-1 #
edge $-1 $226 -11.3112353468156 $227 -8.7612166322490239 $135 $228 forward 7 unknown #
loop $-1 $-1 $142 $84 #
plane-surface $-1 -6.5421425517486398 7.6470752099168067 73.194155332344565 0.81915205242281985 0 0.57357642473473569 0.57357642473473569 0 -0.81915205242281985 forward_v I I I I #
loop $-1 $-1 $229 $54 #
coedge $-1 $140 $140 $141 $230 reversed $85 $-1 #
coedge $-1 $141 $141 $140 $230 forward $87 $-1 #
coedge $-1 $142 $142 $88 $143 forward $137 $-1 #
edge $-1 $231 0 $231 6.2831853071796004 $142 $232 forward 7 unknown #
loop $-1 $-1 $149 $89 #
plane-surface $-1 -6.5421425517486398 7.6470752099168067 73.194155332344565 0.81915205242281985 0 0.57357642473473569 0.57357642473473569 0 -0.81915205242281985 forward_v I I I I #
loop $-1 $-1 $233 $57 #
coedge $-1 $147 $147 $148 $234 reversed $90 $-1 #
coedge $-1 $148 $148 $147 $234 forward $92 $-1 #
coedge $-1 $149 $149 $93 $150 forward $144 $-1 #
edge $-1 $235 0 $235 6.2831853071796004 $149 $236 forward 7 unknown #
loop $-1 $-1 $156 $94 #
plane-surface $-1 -6.5421425517486398 7.6470752099168067 73.194155332344565 0.81915205242281985 0 0.57357642473473569 0.57357642473473569 0 -0.81915205242281985 forward_v I I I I #
loop $-1 $-1 $237 $60 #
coedge $-1 $154 $154 $155 $238 reversed $95 $-1 #
coedge $-1 $155 $155 $154 $238 forward $97 $-1 #
coedge $-1 $156 $156 $98 $157 forward $151 $-1 #
edge $-1 $239 0 $239 6.2831853071796004 $156 $240 forward 7 unknown #
face $-1 $241 $242 $33 $-1 $243 reversed single #
loop $-1 $-1 $244 $99 #
plane-surface $-1 -97.969302299622342 15.450638025473355 71.181600833331373 0 -1 0 0.6018150307709319 0 -0.79863550430605224 forward_v I I I I #
coedge $-1 $245 $246 $247 $248 reversed $100 $-1 #
coedge $-1 $163 $102 $249 $250 reversed $64 $-1 #
coedge $-1 $102 $162 $245 $251 reversed $64 $-1 #
coedge $-1 $247 $252 $102 $165 forward $253 $-1 #
edge $-1 $254 4.5265072855574999 $255 9.6092261445461276 $164 $256 forward 7 unknown #
loop $-1 $-1 $171 $103 #
plane-surface $-1 -44.458143864253664 12.351522600537663 0.16989654225287154 -0.6018150307709319 0 0.79863550430605224 0.79863550430605224 0 0.6018150307709319 forward_v I I I I #
loop $-1 $-1 $257 $66 #
coedge $-1 $169 $169 $170 $258 reversed $104 $-1 #
coedge $-1 $170 $170 $169 $258 forward $106 $-1 #
coedge $-1 $171 $171 $107 $172 forward $166 $-1 #
edge $-1 $259 0 $259 6.2831853071796004 $171 $260 forward 7 unknown #
loop $-1 $-1 $178 $108 #
plane-surface $-1 -44.458143864253664 12.351522600537663 0.16989654225287154 -0.6018150307709319 0 0.79863550430605224 0.79863550430605224 0 0.6018150307709319 forward_v I I I I #
loop $-1 $-1 $261 $69 #
coedge $-1 $176 $176 $177 $262 reversed $109 $-1 #
coedge $-1 $177 $177 $176 $262 forward $111 $-1 #
coedge $-1 $178 $178 $112 $179 forward $173 $-1 #
edge $-1 $263 0 $263 6.2831853071796004 $178 $264 forward 7 unknown #
face $-1 $265 $266 $27 $-1 $267 reversed single #
loop $-1 $-1 $268 $113 #
plane-surface $-1 -44.458143864253671 0 0 1 0 0 0 0 -1 forward_v I I I I #
coedge $-1 $269 $191 $270 $271 forward $114 $-1 #
coedge $-1 $272 $116 $269 $273 forward $73 $-1 #
coedge $-1 $116 $272 $274 $275 forward $73 $-1 #
coedge $-1 $194 $193 $116 $187 reversed $195 $-1 #
edge $-1 $276 -18.366137229654328 $277 18.366137229654328 $186 $278 forward 7 unknown #
coedge $-1 $118 $117 $279 $280 forward $46 $-1 #
coedge $-1 $281 $282 $117 $190 reversed $266 $-1 #
edge $-1 $197 -44.458143864253671 $283 44.458143864253671 $189 $284 forward 7 unknown #
coedge $-1 $183 $285 $118 $192 reversed $114 $-1 #
edge $-1 $286 -44.458143864253671 $196 44.458143864253671 $191 $287 forward 7 unknown #
coedge $-1 $186 $119 $285 $288 forward $195 $-1 #
coedge $-1 $119 $186 $281 $289 reversed $195 $-1 #
loop $-1 $-1 $193 $265 #
vertex $-1 $120 $290 #
vertex $-1 $120 $291 #
straight-curve $-1 44.458143864253671 0 4 0 1 0 I I #
face $-1 $292 $293 $28 $-1 $294 reversed single #
loop $-1 $-1 $127 $121 #
plane-surface $-1 -43.096255378887292 -20.45649643251086 0 1 0 0 0 0 -1 forward_v I I I I #
coedge $-1 $295 $296 $297 $298 forward $122 $-1 #
coedge $-1 $299 $124 $300 $301 forward $77 $-1 #
coedge $-1 $124 $299 $209 $302 forward $77 $-1 #
edge $-1 $211 -43.096255378887292 $303 -40.096255378887292 $124 $304 forward 7 unknown #
coedge $-1 $126 $125 $305 $306 forward $49 $-1 #
coedge $-1 $307 $308 $125 $208 forward $309 $-1 #
edge $-1 $310 40.096255378887292 $212 43.096255378887292 $207 $311 forward 7 unknown #
coedge $-1 $297 $127 $204 $302 reversed $200 $-1 #
coedge $-1 $127 $297 $307 $312 reversed $200 $-1 #
vertex $-1 $205 $313 #
vertex $-1 $312 $314 #
straight-curve $-1 -43.096255378887292 -18.366137229654328 0 0 0 1 I I #
face $-1 $-1 $315 $29 $-1 $316 reversed single #
loop $-1 $-1 $135 $129 #
plane-surface $-1 0 0 4 0 0 1 1 0 0 forward_v I I I I #
coedge $-1 $317 $318 $319 $320 reversed $130 $-1 #
coedge $-1 $321 $132 $134 $224 forward $81 $-1 #
coedge $-1 $132 $321 $317 $322 forward $81 $-1 #
coedge $-1 $319 $135 $132 $221 forward $215 $-1 #
edge $-1 $227 -6.8300878417367628 $323 -0.81698736818004392 $220 $324 forward 7 unknown #
coedge $-1 $325 $326 $133 $223 forward $315 $-1 #
edge $-1 $327 -61.739025128453676 $226 -58.097220874173431 $222 $328 forward 7 unknown #
edge $-1 $227 84.470465681783793 $327 88.916287728507385 $134 $329 forward 7 unknown #
coedge $-1 $135 $319 $325 $330 forward $215 $-1 #
vertex $-1 $136 $331 #
vertex $-1 $136 $332 #
straight-curve $-1 33.146908517438071 10.653625446695166 4 -1 0 0 I I #
coedge $-1 $229 $229 $-1 $333 reversed $139 $-1 #
edge $-1 $334 0 $334 6.2831853071796004 $140 $335 forward 7 unknown #
vertex $-1 $143 $336 #
ellipse-curve $-1 43.183134506970383 5.8431450678497896 2.1790978728598933 0.81915205242281985 0 0.57357642473473569 0.28678821236736785 0 -0.40957602621140993 1 I I #
coedge $-1 $233 $233 $-1 $337 reversed $146 $-1 #
edge $-1 $338 0 $338 6.2831853071796004 $147 $339 forward 7 unknown #
vertex $-1 $150 $340 #
ellipse-curve $-1 43.183134506970383 7.6470752099168067 2.1790978728598933 0.81915205242281985 0 0.57357642473473569 0.28678821236736785 0 -0.40957602621140993 1 I I #
coedge $-1 $237 $237 $-1 $341 reversed $153 $-1 #
edge $-1 $342 0 $342 6.2831853071796004 $154 $343 forward 7 unknown #
vertex $-1 $157 $344 #
ellipse-curve $-1 43.183134506970383 9.4510053519838237 2.1790978728598933 0.81915205242281985 0 0.57357642473473569 0.28678821236736785 0 -0.40957602621140993 1 I I #
face $-1 $-1 $253 $33 $-1 $345 forward single #
loop $-1 $-1 $346 $158 #
plane-surface $-1 -44.458143864253671 0 0 1 0 0 0 0 -1 forward_v I I I I #
coedge $-1 $347 $348 $349 $350 reversed $159 $-1 #
coedge $-1 $351 $161 $163 $251 forward $100 $-1 #
coedge $-1 $161 $351 $347 $352 forward $100 $-1 #
coedge $-1 $349 $164 $161 $248 forward $253 $-1 #
edge $-1 $255 3.0766458753331403 $353 9.274876725204523 $247 $354 forward 7 unknown #
coedge $-1 $355 $356 $162 $250 forward $242 $-1 #
edge $-1 $357 -35.420903874412822 $254 -31.590800416665687 $249 $358 forward 7 unknown #
edge $-1 $255 -6.3642535694742008 $357 8.8984650215323313e-015 $163 $359 forward 7 unknown #
coedge $-1 $164 $349 $355 $360 forward $253 $-1 #
loop $-1 $-1 $349 $241 #
vertex $-1 $250 $361 #
vertex $-1 $165 $362 #
straight-curve $-1 -48.984651149811171 9.2524071756019719 4 1 0 0 I I #
coedge $-1 $257 $257 $-1 $363 reversed $168 $-1 #
edge $-1 $364 0 $364 6.2831853071796004 $169 $365 forward 7 unknown #
vertex $-1 $172 $366 #
ellipse-curve $-1 -41.916784434759357 11.023330275565222 2.0849482711264322 -0.6018150307709319 0 0.79863550430605224 0.39931775215302612 0 0.30090751538546595 1 I I #
coedge $-1 $261 $261 $-1 $367 reversed $175 $-1 #
edge $-1 $368 0 $368 6.2831853071796004 $176 $369 forward 7 unknown #
vertex $-1 $179 $370 #
ellipse-curve $-1 -41.916784434759357 13.679714925510105 2.0849482711264322 -0.6018150307709319 0 0.79863550430605224 0.39931775215302612 0 0.30090751538546595 1 I I #
face $-1 $-1 $195 $27 $-1 $371 reversed single #
loop $-1 $-1 $281 $180 #
plane-surface $-1 0 18.366137229654328 0 0 -1 0 0 0 -1 forward_v I I I I #
coedge $-1 $372 $279 $282 $373 forward $181 $-1 #
coedge $-1 $285 $183 $184 $273 reversed $114 $-1 #
coedge $-1 $279 $372 $183 $271 reversed $181 $-1 #
edge $-1 $286 -4 $374 4 $270 $375 forward 7 unknown #
coedge $-1 $185 $184 $372 $376 forward $73 $-1 #
edge $-1 $277 -44.458143864253671 $374 44.458143864253671 $269 $377 forward 7 unknown #
coedge $-1 $282 $281 $185 $275 reversed $266 $-1 #
edge $-1 $378 -44.458143864253671 $276 44.458143864253671 $274 $379 forward 7 unknown #
vertex $-1 $187 $380 #
vertex $-1 $288 $381 #
straight-curve $-1 44.458143864253671 0 -4 0 -1 0 I I #
coedge $-1 $268 $270 $188 $280 reversed $181 $-1 #
edge $-1 $283 -18.366137229654328 $286 18.366137229654328 $279 $382 forward 7 unknown #
coedge $-1 $274 $189 $194 $289 forward $266 $-1 #
coedge $-1 $189 $274 $268 $373 reversed $266 $-1 #
vertex $-1 $190 $383 #
straight-curve $-1 0 18.366137229654328 4 -1 0 0 I I #
coedge $-1 $191 $269 $193 $288 reversed $114 $-1 #
vertex $-1 $280 $384 #
straight-curve $-1 0 -18.366137229654328 4 1 0 0 I I #
edge $-1 $196 -4 $277 4 $193 $385 forward 7 unknown #
edge $-1 $197 -4 $276 4 $194 $386 forward 7 unknown #
point $-1 44.458143864253671 -18.366137229654328 4 #
point $-1 44.458143864253671 18.366137229654328 4 #
face $-1 $-1 $309 $28 $-1 $387 forward single #
loop $-1 $-1 $388 $199 #
plane-surface $-1 -40.096255378887292 -20.45649643251086 0 -1 0 0 0 0 1 forward_v I I I I #
coedge $-1 $389 $202 $299 $390 reversed $122 $-1 #
coedge $-1 $202 $389 $391 $392 reversed $122 $-1 #
coedge $-1 $210 $209 $202 $298 reversed $200 $-1 #
edge $-1 $393 -4 $394 4 $297 $395 forward 7 unknown #
coedge $-1 $204 $203 $295 $390 forward $77 $-1 #
coedge $-1 $305 $388 $203 $301 reversed $293 $-1 #
edge $-1 $303 -2.0903592028565328 $396 2.0903592028565328 $300 $397 forward 7 unknown #
edge $-1 $394 -2.0903592028565328 $211 2.0903592028565328 $209 $398 forward 7 unknown #
vertex $-1 $301 $399 #
straight-curve $-1 0 -18.366137229654328 -4 1 0 0 I I #
coedge $-1 $400 $300 $206 $306 reversed $293 $-1 #
edge $-1 $310 -4 $303 4 $305 $401 forward 7 unknown #
coedge $-1 $391 $207 $210 $312 forward $309 $-1 #
coedge $-1 $207 $391 $400 $402 forward $309 $-1 #
loop $-1 $-1 $207 $292 #
vertex $-1 $208 $403 #
straight-curve $-1 0 -18.366137229654328 4 -1 0 0 I I #
edge $-1 $212 -2.0903592028565328 $393 2.0903592028565328 $210 $404 forward 7 unknown #
point $-1 -43.096255378887292 -18.366137229654328 -4 #
point $-1 -43.096255378887292 -18.366137229654328 4 #
loop $-1 $-1 $222 $214 #
plane-surface $-1 44.458143864253671 0 0 -1 0 0 0 0 1 forward_v I I I I #
coedge $-1 $318 $217 $219 $322 reversed $130 $-1 #
coedge $-1 $217 $317 $405 $406 reversed $130 $-1 #
coedge $-1 $225 $220 $217 $320 forward $215 $-1 #
edge $-1 $323 8.7612166322490239 $407 11.3112353468156 $319 $408 forward 7 unknown #
coedge $-1 $219 $218 $326 $409 reversed $81 $-1 #
edge $-1 $410 -88.916287728507385 $323 -84.470465681783793 $317 $411 forward 7 unknown #
vertex $-1 $221 $412 #
straight-curve $-1 41.908125149687102 3.8235376049584033 4 0 -1 0 I I #
coedge $-1 $405 $222 $225 $330 reversed $315 $-1 #
coedge $-1 $222 $405 $321 $409 forward $315 $-1 #
vertex $-1 $223 $413 #
straight-curve $-1 44.458143864253671 10.653625446695166 62.097220874173431 0 0 1 I I #
straight-curve $-1 -6.5421425517486398 10.653625446695166 73.194155332344565 0.57357642473473569 0 -0.81915205242281985 I I #
edge $-1 $407 4.6405249731384473 $226 10.653625446695166 $325 $414 forward 7 unknown #
point $-1 44.458143864253671 10.653625446695166 4 #
point $-1 41.908125149687095 10.653625446695166 4 #
edge $-1 $415 1 $415 0 $229 $-1 forward 7 unknown #
vertex $-1 $230 $416 #
ellipse-curve $-1 42.363982454547575 5.8431450678497896 1.6055214481251658 0.81915205242281985 0 0.57357642473473569 0.28678821236736785 0 -0.40957602621140993 1 I I #
point $-1 43.46992271933776 5.8431450678497896 1.7695218466484917 #
edge $-1 $417 1 $417 0 $233 $-1 forward 7 unknown #
vertex $-1 $234 $418 #
ellipse-curve $-1 42.363982454547575 7.6470752099168067 1.6055214481251658 0.81915205242281985 0 0.57357642473473569 0.28678821236736785 0 -0.40957602621140993 1 I I #
point $-1 43.46992271933776 7.6470752099168067 1.7695218466484917 #
edge $-1 $419 1 $419 0 $237 $-1 forward 7 unknown #
vertex $-1 $238 $420 #
ellipse-curve $-1 42.363982454547575 9.4510053519838237 1.6055214481251658 0.81915205242281985 0 0.57357642473473569 0.28678821236736785 0 -0.40957602621140993 1 I I #
point $-1 43.46992271933776 9.4510053519838237 1.7695218466484917 #
plane-surface $-1 0 0 4 0 0 1 1 0 0 forward_v I I I I #
coedge $-1 $356 $355 $348 $421 forward $242 $-1 #
coedge $-1 $348 $244 $246 $352 reversed $159 $-1 #
coedge $-1 $244 $347 $346 $421 reversed $159 $-1 #
coedge $-1 $252 $247 $244 $350 forward $253 $-1 #
edge $-1 $353 -9.6092261445461276 $422 -4.5265072855574999 $349 $423 forward 7 unknown #
coedge $-1 $246 $245 $356 $424 reversed $100 $-1 #
edge $-1 $425 -8.8984650215323313e-015 $353 6.3642535694742008 $347 $426 forward 7 unknown #
vertex $-1 $248 $427 #
straight-curve $-1 -39.375425005265043 6.1757613002688316 4 0 1 0 I I #
coedge $-1 $346 $249 $252 $360 reversed $242 $-1 #
coedge $-1 $249 $346 $351 $424 forward $242 $-1 #
vertex $-1 $250 $428 #
straight-curve $-1 -44.458143864253671 9.2524071756019719 35.590800416665687 0 0 1 I I #
straight-curve $-1 -44.458143864253664 9.2524071756019719 0.16989654225287154 -0.79863550430605224 0 -0.6018150307709319 I I #
edge $-1 $422 -15.450638025473355 $254 -9.2524071756019719 $355 $429 forward 7 unknown #
point $-1 -44.458143864253671 9.2524071756019719 4 #
point $-1 -39.375425005265043 9.2524071756019719 4 #
edge $-1 $430 1 $430 0 $257 $-1 forward 7 unknown #
vertex $-1 $258 $431 #
ellipse-curve $-1 -40.863796387511854 11.023330275565222 0.68758596353420831 -0.6018150307709319 0 0.79863550430605224 0.39931775215302612 0 0.30090751538546595 1 I I #
point $-1 -41.51746668260634 11.023330275565222 2.3858557865119039 #
edge $-1 $432 1 $432 0 $261 $-1 forward 7 unknown #
vertex $-1 $262 $433 #
ellipse-curve $-1 -40.863796387511854 13.679714925510105 0.68758596353420831 -0.6018150307709319 0 0.79863550430605224 0.39931775215302612 0 0.30090751538546595 1 I I #
point $-1 -41.51746668260634 13.679714925510105 2.3858557865119039 #
plane-surface $-1 44.458143864253671 0 0 -1 0 0 0 0 1 forward_v I I I I #
coedge $-1 $270 $268 $272 $376 reversed $181 $-1 #
edge $-1 $283 -4 $378 4 $282 $434 forward 7 unknown #
vertex $-1 $376 $435 #
straight-curve $-1 -44.458143864253671 -18.366137229654328 0 0 0 -1 I I #
edge $-1 $374 -18.366137229654328 $378 18.366137229654328 $372 $436 forward 7 unknown #
straight-curve $-1 0 -18.366137229654328 -4 -1 0 0 I I #
vertex $-1 $275 $437 #
straight-curve $-1 0 18.366137229654328 -4 1 0 0 I I #
point $-1 44.458143864253671 18.366137229654328 -4 #
point $-1 44.458143864253671 -18.366137229654328 -4 #
straight-curve $-1 -44.458143864253671 0 4 0 -1 0 I I #
point $-1 -44.458143864253671 18.366137229654328 4 #
point $-1 -44.458143864253671 -18.366137229654328 4 #
straight-curve $-1 44.458143864253671 -18.366137229654328 0 0 0 -1 I I #
straight-curve $-1 44.458143864253671 18.366137229654328 0 0 0 -1 I I #
plane-surface $-1 0 0 4 0 0 1 1 0 0 forward_v I I I I #
coedge $-1 $300 $400 $389 $438 forward $293 $-1 #
coedge $-1 $296 $295 $388 $438 reversed $122 $-1 #
edge $-1 $396 -1.5 $394 1.5 $295 $439 forward 7 unknown #
coedge $-1 $308 $307 $296 $392 forward $309 $-1 #
edge $-1 $393 -1.5 $440 1.5 $296 $441 forward 7 unknown #
vertex $-1 $312 $442 #
vertex $-1 $302 $443 #
straight-curve $-1 -43.096255378887292 -22.546855635367393 0 0 0 -1 I I #
vertex $-1 $438 $444 #
straight-curve $-1 -40.096255378887292 -20.45649643251086 -4 0 -1 0 I I #
straight-curve $-1 -43.096255378887292 -20.45649643251086 -4 0 1 0 I I #
point $-1 -40.096255378887292 -18.366137229654328 -4 #
coedge $-1 $388 $305 $308 $402 reversed $293 $-1 #
straight-curve $-1 -40.096255378887292 -18.366137229654328 0 0 0 -1 I I #
edge $-1 $440 -2.0903592028565328 $310 2.0903592028565328 $400 $445 forward 7 unknown #
point $-1 -40.096255378887292 -18.366137229654328 4 #
straight-curve $-1 -43.096255378887292 -20.45649643251086 4 0 -1 0 I I #
coedge $-1 $326 $325 $318 $406 forward $315 $-1 #
edge $-1 $407 58.097220874173431 $410 61.739025128453676 $405 $446 forward 7 unknown #
vertex $-1 $330 $447 #
straight-curve $-1 33.146908517438071 4.6405249731384473 4 1 0 0 I I #
edge $-1 $410 0.81698736818004392 $327 6.8300878417367628 $326 $448 forward 7 unknown #
vertex $-1 $409 $449 #
straight-curve $-1 -6.5421425517486398 4.6405249731384473 73.194155332344565 -0.57357642473473569 0 0.81915205242281985 I I #
point $-1 41.908125149687095 4.6405249731384473 4 #
point $-1 44.458143864253671 10.653625446695166 0.35819574571975465 #
straight-curve $-1 44.458143864253671 0 4 0 1 0 I I #
vertex $-1 $333 $450 #
point $-1 42.650770666914944 5.8431450678497896 1.195945421913756 #
vertex $-1 $337 $451 #
point $-1 42.650770666914944 7.6470752099168067 1.195945421913756 #
vertex $-1 $341 $452 #
point $-1 42.650770666914944 9.4510053519838237 1.195945421913756 #
edge $-1 $422 31.590800416665687 $425 35.420903874412822 $346 $453 forward 7 unknown #
vertex $-1 $360 $454 #
straight-curve $-1 -48.984651149811171 15.450638025473355 4 -1 0 0 I I #
edge $-1 $425 -9.274876725204523 $357 -3.0766458753331403 $356 $455 forward 7 unknown #
vertex $-1 $424 $456 #
straight-curve $-1 -44.458143864253664 15.450638025473355 0.16989654225287154 0.79863550430605224 0 0.6018150307709319 I I #
point $-1 -39.375425005265043 15.450638025473355 4 #
point $-1 -44.458143864253671 9.2524071756019719 0.16989654225286618 #
straight-curve $-1 -44.458143864253671 0 4 0 -1 0 I I #
vertex $-1 $363 $457 #
point $-1 -40.46447863535883 11.023330275565222 0.98849347891967432 #
vertex $-1 $367 $458 #
point $-1 -40.46447863535883 13.679714925510105 0.98849347891967432 #
straight-curve $-1 -44.458143864253671 18.366137229654328 0 0 0 -1 I I #
point $-1 -44.458143864253671 -18.366137229654328 -4 #
straight-curve $-1 -44.458143864253671 0 -4 0 1 0 I I #
point $-1 -44.458143864253671 18.366137229654328 -4 #
edge $-1 $440 -4 $396 4 $388 $459 forward 7 unknown #
straight-curve $-1 -41.596255378887292 -22.546855635367393 -4 -1 0 0 I I #
vertex $-1 $402 $460 #
straight-curve $-1 -41.596255378887292 -22.546855635367393 4 1 0 0 I I #
point $-1 -43.096255378887292 -22.546855635367393 4 #
point $-1 -43.096255378887292 -22.546855635367393 -4 #
point $-1 -40.096255378887292 -22.546855635367393 -4 #
straight-curve $-1 -40.096255378887292 -20.45649643251086 4 0 1 0 I I #
straight-curve $-1 44.458143864253671 4.6405249731384473 62.097220874173431 0 0 -1 I I #
point $-1 44.458143864253671 4.6405249731384473 4 #
straight-curve $-1 44.458143864253671 3.8235376049584033 0.35819574571975465 0 1 0 I I #
point $-1 44.458143864253671 4.6405249731384473 0.35819574571975465 #
point $-1 41.954406428336164 5.8431450678497896 1.3187332357577981 #
point $-1 41.954406428336164 7.6470752099168067 1.3187332357577981 #
point $-1 41.954406428336164 9.4510053519838237 1.3187332357577981 #
straight-curve $-1 -44.458143864253671 15.450638025473355 35.590800416665687 0 0 -1 I I #
point $-1 -44.458143864253671 15.450638025473355 4 #
straight-curve $-1 -44.458143864253671 6.1757613002688316 0.16989654225286699 0 -1 0 I I #
point $-1 -44.458143864253671 15.450638025473355 0.16989654225286618 #
point $-1 -40.562888872126393 11.023330275565222 0.28826821138118225 #
point $-1 -40.562888872126393 13.679714925510105 0.28826821138118225 #
straight-curve $-1 -40.096255378887292 -22.546855635367393 0 0 0 -1 I I #
point $-1 -40.096255378887292 -22.546855635367393 4 #
End-of-ACIS-data 