500 0 4 0           
7 Unknown 11 ACIS 5.0 NT 24 Fri Mar 26 18:40:10 1999 
-1 9.9999999999999995e-007 1e-010 
body $-1 $4 $-1 $5 #
body $-1 $6 $-1 $7 #
body $-1 $8 $-1 $9 #
body $-1 $10 $-1 $11 #
lump $-1 $-1 $12 $0 #
transform $-1 1 0 0 0 1 0 0 0 1 75.243995483260591 41.913617455325955 16.572552499502642 1 rotate no_reflect no_shear #
lump $-1 $-1 $13 $1 #
transform $-1 1 0 0 0 1 0 0 0 1 75.243995483260591 41.913617455325955 16.572552499502642 1 rotate no_reflect no_shear #
lump $-1 $-1 $14 $2 #
transform $-1 1 0 0 0 1 0 0 0 1 75.243995483260591 41.913617455325955 16.572552499502642 1 rotate no_reflect no_shear #
lump $-1 $-1 $15 $3 #
transform $-1 1 0 0 0 1 0 0 0 1 75.243995483260591 41.913617455325955 16.572552499502642 1 rotate no_reflect no_shear #
shell $-1 $-1 $-1 $16 $-1 $4 #
shell $-1 $-1 $-1 $17 $-1 $6 #
shell $-1 $-1 $-1 $18 $-1 $8 #
shell $-1 $-1 $-1 $19 $-1 $10 #
face $-1 $20 $21 $12 $-1 $22 forward single #
face $-1 $23 $24 $13 $-1 $25 forward single #
face $-1 $26 $27 $14 $-1 $28 reversed single #
face $-1 $29 $30 $15 $-1 $31 forward single #
face $-1 $32 $33 $12 $-1 $34 reversed single #
loop $-1 $-1 $35 $16 #
plane-surface $-1 0 0 16.572552499502642 0 0 1 1 0 0 forward_v I I I I #
face $-1 $36 $37 $13 $-1 $38 reversed single #
loop $-1 $-1 $39 $17 #
plane-surface $-1 0 -36.338691110705824 -6.3775665117223452 0 0 1 1 0 0 forward_v I I I I #
face $-1 $40 $41 $14 $-1 $42 reversed single #
loop $-1 $-1 $43 $18 #
plane-surface $-1 -169.94915798262349 14.293948851934051 121.04646800564461 0 1 0 -0.62932039886446345 0 0.77714595512881146 forward_v I I I I #
face $-1 $44 $45 $15 $-1 $46 forward single #
loop $-1 $47 $48 $19 #
cone-surface $-1 -65.87760589817583 21.91157742245705 8.2811131979330916 0.62932039886446345 0 -0.77714595512881146 1.5542919102576229 0 1.2586407977289269 1 I I 0 1 2 forward I I I I #
face $-1 $49 $50 $12 $-1 $51 reversed single #
loop $-1 $-1 $52 $20 #
plane-surface $-1 0 0 -16.572552499502642 0 0 1 1 0 0 forward_v I I I I #
coedge $-1 $53 $54 $55 $56 forward $21 $-1 #
face $-1 $57 $58 $13 $-1 $59 reversed single #
loop $-1 $-1 $60 $23 #
plane-surface $-1 0 -36.338691110705824 -13.690286857475964 0 0 1 1 0 0 forward_v I I I I #
coedge $-1 $61 $62 $63 $64 reversed $24 $-1 #
face $-1 $65 $66 $14 $-1 $67 reversed single #
loop $-1 $-1 $68 $26 #
plane-surface $-1 -75.243995483260605 21.91157742245705 4.0953345305515541 -0.62932039886446345 0 0.77714595512881146 0.77714595512881146 0 0.62932039886446345 forward_v I I I I #
coedge $-1 $69 $70 $71 $72 reversed $27 $-1 #
face $-1 $-1 $73 $15 $-1 $74 forward single #
loop $-1 $75 $76 $29 #
cone-surface $-1 -63.585936251491468 21.91157742245705 5.45113692571028 0.62932039886446345 0 -0.77714595512881146 0.77714595512881146 0 0.62932039886446345 1 I I -0.70710678118654746 0.70710678118654746 1 forward I I I I #
loop $-1 $-1 $77 $19 #
coedge $-1 $48 $48 $78 $79 reversed $30 $-1 #
face $-1 $80 $81 $12 $-1 $82 reversed single #
loop $-1 $-1 $83 $32 #
plane-surface $-1 0 -41.913617455325955 0 0 1 0 0 0 1 forward_v I I I I #
coedge $-1 $84 $85 $86 $87 forward $33 $-1 #
coedge $-1 $88 $35 $89 $90 forward $21 $-1 #
coedge $-1 $35 $88 $91 $92 forward $21 $-1 #
coedge $-1 $93 $94 $35 $56 reversed $95 $-1 #
edge $-1 $96 -41.913617455325955 $97 41.913617455325955 $55 $98 forward 7 unknown #
face $-1 $99 $100 $13 $-1 $101 reversed single #
loop $-1 $-1 $102 $36 #
plane-surface $-1 0 -30.763764766085693 -10.033926684599155 0 -1 0 0 0 -1 forward_v I I I I #
coedge $-1 $103 $104 $105 $106 reversed $37 $-1 #
coedge $-1 $107 $39 $108 $109 forward $24 $-1 #
coedge $-1 $39 $107 $110 $111 reversed $24 $-1 #
coedge $-1 $112 $113 $39 $64 forward $114 $-1 #
edge $-1 $115 12.594419210732781 $116 23.744271899973043 $63 $117 forward 7 unknown #
face $-1 $118 $119 $14 $-1 $120 reversed single #
loop $-1 $-1 $121 $40 #
plane-surface $-1 -169.94915798262349 29.529205992980049 121.04646800564461 0 -1 0 0.62932039886446345 0 -0.77714595512881146 forward_v I I I I #
coedge $-1 $122 $123 $124 $125 reversed $41 $-1 #
coedge $-1 $70 $43 $126 $127 reversed $27 $-1 #
coedge $-1 $43 $69 $122 $128 reversed $27 $-1 #
coedge $-1 $124 $129 $43 $72 forward $130 $-1 #
edge $-1 $131 9.7305835080511542 $132 25.13866418258084 $71 $133 forward 7 unknown #
loop $-1 $-1 $78 $44 #
plane-surface $-1 -75.243995483260605 21.91157742245705 4.0953345305515541 -0.62932039886446345 0 0.77714595512881146 0.77714595512881146 0 0.62932039886446345 forward_v I I I I #
loop $-1 $-1 $134 $29 #
coedge $-1 $76 $76 $77 $135 reversed $45 $-1 #
coedge $-1 $77 $77 $76 $135 forward $47 $-1 #
coedge $-1 $78 $78 $48 $79 forward $73 $-1 #
edge $-1 $136 0 $136 6.2831853071796004 $78 $137 forward 7 unknown #
face $-1 $138 $139 $12 $-1 $140 reversed single #
loop $-1 $-1 $141 $49 #
plane-surface $-1 -75.243995483260591 0 0 1 0 0 0 0 -1 forward_v I I I I #
coedge $-1 $142 $91 $143 $144 forward $50 $-1 #
coedge $-1 $145 $52 $142 $146 forward $33 $-1 #
coedge $-1 $52 $145 $147 $148 forward $33 $-1 #
coedge $-1 $94 $93 $52 $87 reversed $95 $-1 #
edge $-1 $149 -41.913617455325955 $150 41.913617455325955 $86 $151 forward 7 unknown #
coedge $-1 $54 $53 $152 $153 forward $21 $-1 #
coedge $-1 $154 $155 $53 $90 reversed $139 $-1 #
edge $-1 $97 -75.243995483260591 $156 75.243995483260591 $89 $157 forward 7 unknown #
coedge $-1 $83 $158 $54 $92 reversed $50 $-1 #
edge $-1 $159 -75.243995483260591 $96 75.243995483260591 $91 $160 forward 7 unknown #
coedge $-1 $86 $55 $158 $161 forward $95 $-1 #
coedge $-1 $55 $86 $154 $162 reversed $95 $-1 #
loop $-1 $-1 $93 $138 #
vertex $-1 $56 $163 #
vertex $-1 $56 $164 #
straight-curve $-1 75.243995483260591 0 16.572552499502642 0 1 0 I I #
face $-1 $165 $166 $13 $-1 $167 reversed single #
loop $-1 $-1 $168 $57 #
plane-surface $-1 -75.243995483260591 0 0 1 0 0 0 0 -1 forward_v I I I I #
coedge $-1 $169 $108 $113 $170 reversed $58 $-1 #
coedge $-1 $171 $60 $172 $173 reversed $37 $-1 #
coedge $-1 $60 $171 $169 $174 forward $37 $-1 #
coedge $-1 $113 $112 $60 $106 forward $114 $-1 #
edge $-1 $175 -23.744271899973043 $176 -12.594419210732781 $105 $177 forward 7 unknown #
coedge $-1 $62 $61 $168 $178 reversed $24 $-1 #
coedge $-1 $102 $179 $61 $109 reversed $58 $-1 #
edge $-1 $115 -75.243995483260591 $180 75.243995483260591 $108 $181 forward 7 unknown #
coedge $-1 $182 $183 $62 $111 forward $166 $-1 #
edge $-1 $116 -75.243995483260591 $184 75.243995483260591 $110 $185 forward 7 unknown #
coedge $-1 $105 $63 $183 $186 forward $114 $-1 #
coedge $-1 $63 $105 $102 $170 forward $114 $-1 #
loop $-1 $-1 $63 $165 #
vertex $-1 $64 $187 #
vertex $-1 $186 $188 #
straight-curve $-1 75.243995483260591 -18.169345555352912 -6.3775665117223452 0 -1 0 I I #
face $-1 $-1 $130 $14 $-1 $189 forward single #
loop $-1 $-1 $190 $65 #
plane-surface $-1 -75.243995483260591 0 0 1 0 0 0 0 -1 forward_v I I I I #
coedge $-1 $191 $192 $193 $194 reversed $66 $-1 #
coedge $-1 $195 $68 $70 $128 forward $41 $-1 #
coedge $-1 $68 $195 $191 $196 forward $41 $-1 #
coedge $-1 $193 $71 $68 $125 forward $130 $-1 #
edge $-1 $132 3.3381601407055257 $197 18.573417281751524 $124 $198 forward 7 unknown #
coedge $-1 $199 $200 $69 $127 forward $119 $-1 #
edge $-1 $201 -56.427899472270738 $131 -43.950681503319665 $126 $202 forward 7 unknown #
edge $-1 $132 -19.826495361448313 $201 -1.8310242626372826e-014 $70 $203 forward 7 unknown #
coedge $-1 $71 $193 $199 $204 forward $130 $-1 #
loop $-1 $-1 $193 $118 #
vertex $-1 $127 $205 #
vertex $-1 $72 $206 #
straight-curve $-1 -84.974578991311745 14.293948851934051 16.572552499502642 1 0 0 I I #
coedge $-1 $134 $134 $-1 $207 reversed $75 $-1 #
edge $-1 $208 0 $208 6.2831853071796004 $76 $209 forward 7 unknown #
vertex $-1 $79 $210 #
ellipse-curve $-1 -67.539955145995748 21.91157742245705 10.333943515027107 -0.62932039886446345 0 0.77714595512881146 1.5542919102576229 0 1.2586407977289269 1 I I #
face $-1 $-1 $95 $12 $-1 $211 reversed single #
loop $-1 $-1 $154 $80 #
plane-surface $-1 0 41.913617455325955 0 0 -1 0 0 0 -1 forward_v I I I I #
coedge $-1 $212 $152 $155 $213 forward $81 $-1 #
coedge $-1 $158 $83 $84 $146 reversed $50 $-1 #
coedge $-1 $152 $212 $83 $144 reversed $81 $-1 #
edge $-1 $159 -16.572552499502642 $214 16.572552499502642 $143 $215 forward 7 unknown #
coedge $-1 $85 $84 $212 $216 forward $33 $-1 #
edge $-1 $150 -75.243995483260591 $214 75.243995483260591 $142 $217 forward 7 unknown #
coedge $-1 $155 $154 $85 $148 reversed $139 $-1 #
edge $-1 $218 -75.243995483260591 $149 75.243995483260591 $147 $219 forward 7 unknown #
vertex $-1 $87 $220 #
vertex $-1 $161 $221 #
straight-curve $-1 75.243995483260591 0 -16.572552499502642 0 -1 0 I I #
coedge $-1 $141 $143 $88 $153 reversed $81 $-1 #
edge $-1 $156 -41.913617455325955 $159 41.913617455325955 $152 $222 forward 7 unknown #
coedge $-1 $147 $89 $94 $162 forward $139 $-1 #
coedge $-1 $89 $147 $141 $213 reversed $139 $-1 #
vertex $-1 $90 $223 #
straight-curve $-1 0 41.913617455325955 16.572552499502642 -1 0 0 I I #
coedge $-1 $91 $142 $93 $161 reversed $50 $-1 #
vertex $-1 $153 $224 #
straight-curve $-1 0 -41.913617455325955 16.572552499502642 1 0 0 I I #
edge $-1 $96 -16.572552499502642 $150 16.572552499502642 $93 $225 forward 7 unknown #
edge $-1 $97 -16.572552499502642 $149 16.572552499502642 $94 $226 forward 7 unknown #
point $-1 75.243995483260591 -41.913617455325955 16.572552499502642 #
point $-1 75.243995483260591 41.913617455325955 16.572552499502642 #
face $-1 $-1 $114 $13 $-1 $227 reversed single #
loop $-1 $-1 $110 $99 #
plane-surface $-1 0 -41.913617455325955 0 0 1 0 0 0 1 forward_v I I I I #
coedge $-1 $228 $229 $107 $178 forward $100 $-1 #
coedge $-1 $179 $102 $104 $174 reversed $58 $-1 #
edge $-1 $176 -8.6733235151763868 $115 -1.3606031694227676 $113 $230 forward 7 unknown #
coedge $-1 $104 $103 $231 $232 reversed $37 $-1 #
coedge $-1 $183 $182 $103 $173 forward $166 $-1 #
edge $-1 $233 -75.243995483260591 $175 75.243995483260591 $172 $234 forward 7 unknown #
edge $-1 $235 -75.243995483260591 $176 75.243995483260591 $169 $236 forward 7 unknown #
vertex $-1 $173 $237 #
vertex $-1 $106 $238 #
straight-curve $-1 75.243995483260591 -18.169345555352912 -13.690286857475964 0 1 0 I I #
edge $-1 $184 -23.744271899973043 $180 -12.594419210732781 $168 $239 forward 7 unknown #
coedge $-1 $108 $169 $228 $240 reversed $58 $-1 #
vertex $-1 $178 $241 #
straight-curve $-1 0 -30.763764766085693 -6.3775665117223452 -1 0 0 I I #
coedge $-1 $172 $110 $229 $242 forward $166 $-1 #
coedge $-1 $110 $172 $112 $186 reversed $166 $-1 #
vertex $-1 $242 $243 #
straight-curve $-1 0 -41.913617455325955 -6.3775665117223452 -1 0 0 I I #
edge $-1 $116 6.3775665117223452 $175 13.690286857475964 $112 $244 forward 7 unknown #
point $-1 75.243995483260591 -30.763764766085693 -6.3775665117223452 #
point $-1 75.243995483260591 -41.913617455325955 -6.3775665117223452 #
plane-surface $-1 0 0 16.572552499502642 0 0 1 1 0 0 forward_v I I I I #
coedge $-1 $200 $199 $192 $245 forward $119 $-1 #
coedge $-1 $192 $121 $123 $196 reversed $66 $-1 #
coedge $-1 $121 $191 $190 $245 reversed $66 $-1 #
coedge $-1 $129 $124 $121 $194 forward $130 $-1 #
edge $-1 $197 -25.13866418258084 $246 -9.7305835080511542 $193 $247 forward 7 unknown #
coedge $-1 $123 $122 $200 $248 reversed $41 $-1 #
edge $-1 $249 1.8310242626372826e-014 $197 19.826495361448313 $191 $250 forward 7 unknown #
vertex $-1 $125 $251 #
straight-curve $-1 -59.835914808730905 10.955788711228525 16.572552499502642 0 1 0 I I #
coedge $-1 $190 $126 $129 $204 reversed $119 $-1 #
coedge $-1 $126 $190 $195 $248 forward $119 $-1 #
vertex $-1 $127 $252 #
straight-curve $-1 -75.243995483260591 14.293948851934051 60.523234002822306 0 0 1 I I #
straight-curve $-1 -75.243995483260605 14.293948851934051 4.0953345305515541 -0.77714595512881146 0 -0.62932039886446345 I I #
edge $-1 $246 -29.529205992980049 $131 -14.293948851934051 $199 $253 forward 7 unknown #
point $-1 -75.243995483260591 14.293948851934051 16.572552499502642 #
point $-1 -59.835914808730905 14.293948851934051 16.572552499502642 #
edge $-1 $254 1 $254 0 $134 $-1 forward 7 unknown #
vertex $-1 $135 $255 #
ellipse-curve $-1 -64.215256650355926 21.91157742245705 6.2282828808390915 -0.62932039886446345 0 0.77714595512881146 1.5542919102576229 0 1.2586407977289269 1 I I #
point $-1 -65.985663235738116 21.91157742245705 11.592584312756021 #
plane-surface $-1 75.243995483260591 0 0 -1 0 0 0 0 1 forward_v I I I I #
coedge $-1 $143 $141 $145 $216 reversed $81 $-1 #
edge $-1 $156 -16.572552499502642 $218 16.572552499502642 $155 $256 forward 7 unknown #
vertex $-1 $216 $257 #
straight-curve $-1 -75.243995483260591 -41.913617455325955 0 0 0 -1 I I #
edge $-1 $214 -41.913617455325955 $218 41.913617455325955 $212 $258 forward 7 unknown #
straight-curve $-1 0 -41.913617455325955 -16.572552499502642 -1 0 0 I I #
vertex $-1 $148 $259 #
straight-curve $-1 0 41.913617455325955 -16.572552499502642 1 0 0 I I #
point $-1 75.243995483260591 41.913617455325955 -16.572552499502642 #
point $-1 75.243995483260591 -41.913617455325955 -16.572552499502642 #
straight-curve $-1 -75.243995483260591 0 16.572552499502642 0 -1 0 I I #
point $-1 -75.243995483260591 41.913617455325955 16.572552499502642 #
point $-1 -75.243995483260591 -41.913617455325955 16.572552499502642 #
straight-curve $-1 75.243995483260591 -41.913617455325955 0 0 0 -1 I I #
straight-curve $-1 75.243995483260591 41.913617455325955 0 0 0 -1 I I #
plane-surface $-1 75.243995483260591 0 0 -1 0 0 0 0 1 forward_v I I I I #
coedge $-1 $231 $168 $179 $240 forward $100 $-1 #
coedge $-1 $168 $231 $182 $242 reversed $100 $-1 #
straight-curve $-1 75.243995483260591 -30.763764766085693 -5.0169633422995776 0 0 1 I I #
coedge $-1 $229 $228 $171 $232 forward $100 $-1 #
edge $-1 $235 12.594419210732781 $233 23.744271899973043 $231 $260 forward 7 unknown #
vertex $-1 $173 $261 #
straight-curve $-1 0 -41.913617455325955 -13.690286857475964 1 0 0 I I #
vertex $-1 $232 $262 #
straight-curve $-1 0 -30.763764766085693 -13.690286857475964 1 0 0 I I #
point $-1 75.243995483260591 -41.913617455325955 -13.690286857475964 #
point $-1 75.243995483260591 -30.763764766085693 -13.690286857475964 #
straight-curve $-1 -75.243995483260591 -18.169345555352912 -6.3775665117223452 0 1 0 I I #
edge $-1 $180 1.3606031694227676 $235 8.6733235151763868 $228 $263 forward 7 unknown #
point $-1 -75.243995483260591 -30.763764766085693 -6.3775665117223452 #
edge $-1 $184 6.3775665117223452 $233 13.690286857475964 $229 $264 forward 7 unknown #
point $-1 -75.243995483260591 -41.913617455325955 -6.3775665117223452 #
straight-curve $-1 75.243995483260591 -41.913617455325955 0 0 0 -1 I I #
edge $-1 $246 43.950681503319665 $249 56.427899472270738 $190 $265 forward 7 unknown #
vertex $-1 $204 $266 #
straight-curve $-1 -84.974578991311745 29.529205992980049 16.572552499502642 -1 0 0 I I #
edge $-1 $249 -18.573417281751524 $201 -3.3381601407055257 $200 $267 forward 7 unknown #
vertex $-1 $248 $268 #
straight-curve $-1 -75.243995483260605 29.529205992980049 4.0953345305515541 0.77714595512881146 0 0.62932039886446345 I I #
point $-1 -59.835914808730905 29.529205992980049 16.572552499502642 #
point $-1 -75.243995483260591 14.293948851934051 4.0953345305515656 #
straight-curve $-1 -75.243995483260591 0 16.572552499502642 0 -1 0 I I #
vertex $-1 $207 $269 #
point $-1 -62.660964740098308 21.91157742245705 7.4869236785680187 #
straight-curve $-1 -75.243995483260591 41.913617455325955 0 0 0 -1 I I #
point $-1 -75.243995483260591 -41.913617455325955 -16.572552499502642 #
straight-curve $-1 -75.243995483260591 0 -16.572552499502642 0 1 0 I I #
point $-1 -75.243995483260591 41.913617455325955 -16.572552499502642 #
straight-curve $-1 -75.243995483260591 -18.169345555352912 -13.690286857475964 0 -1 0 I I #
point $-1 -75.243995483260591 -41.913617455325955 -13.690286857475964 #
point $-1 -75.243995483260591 -30.763764766085693 -13.690286857475964 #
straight-curve $-1 -75.243995483260591 -30.763764766085693 -5.0169633422995776 0 0 -1 I I #
straight-curve $-1 -75.243995483260591 -41.913617455325955 0 0 0 -1 I I #
straight-curve $-1 -75.243995483260591 29.529205992980049 60.523234002822306 0 0 -1 I I #
point $-1 -75.243995483260591 29.529205992980049 16.572552499502642 #
straight-curve $-1 -75.243995483260591 10.955788711228525 4.0953345305515567 0 -1 0 I I #
point $-1 -75.243995483260591 29.529205992980049 4.0953345305515656 #
point $-1 -62.956615852627003 21.91157742245705 4.6739909705814684 #
End-of-ACIS-data 