500 0 14 0           
7 Unknown 11 ACIS 5.0 NT 24 Thu Mar 25 15:31:50 1999 
-1 9.9999999999999995e-007 1e-010 
body $-1 $14 $-1 $15 #
body $-1 $16 $-1 $17 #
body $-1 $18 $-1 $19 #
body $-1 $20 $-1 $21 #
body $-1 $22 $-1 $23 #
body $-1 $24 $-1 $25 #
body $-1 $26 $-1 $27 #
body $-1 $28 $-1 $29 #
body $-1 $30 $-1 $31 #
body $-1 $32 $-1 $33 #
body $-1 $34 $-1 $35 #
body $-1 $36 $-1 $37 #
body $-1 $38 $-1 $39 #
body $-1 $40 $-1 $41 #
lump $-1 $-1 $42 $0 #
transform $-1 1 0 0 0 1 0 0 0 1 60.112918485061186 28.562029377180369 11.042322707300666 1 rotate no_reflect no_shear #
lump $-1 $-1 $43 $1 #
transform $-1 1 0 0 0 1 0 0 0 1 60.112918485061186 28.562029377180369 11.042322707300666 1 rotate no_reflect no_shear #
lump $-1 $-1 $44 $2 #
transform $-1 1 0 0 0 1 0 0 0 1 60.112918485061186 28.562029377180369 11.042322707300666 1 rotate no_reflect no_shear #
lump $-1 $-1 $45 $3 #
transform $-1 1 0 0 0 1 0 0 0 1 60.112918485061186 28.562029377180369 11.042322707300666 1 rotate no_reflect no_shear #
lump $-1 $-1 $46 $4 #
transform $-1 1 0 0 0 1 0 0 0 1 60.112918485061186 28.562029377180369 11.042322707300666 1 rotate no_reflect no_shear #
lump $-1 $-1 $47 $5 #
transform $-1 1 0 0 0 1 0 0 0 1 60.112918485061186 28.562029377180369 11.042322707300666 1 rotate no_reflect no_shear #
lump $-1 $-1 $48 $6 #
transform $-1 1 0 0 0 1 0 0 0 1 60.112918485061186 28.562029377180369 11.042322707300666 1 rotate no_reflect no_shear #
lump $-1 $-1 $49 $7 #
transform $-1 1 0 0 0 1 0 0 0 1 60.112918485061186 28.562029377180369 11.042322707300666 1 rotate no_reflect no_shear #
lump $-1 $-1 $50 $8 #
transform $-1 1 0 0 0 1 0 0 0 1 60.112918485061186 28.562029377180369 11.042322707300666 1 rotate no_reflect no_shear #
lump $-1 $-1 $51 $9 #
transform $-1 1 0 0 0 1 0 0 0 1 60.112918485061186 28.562029377180369 11.042322707300666 1 rotate no_reflect no_shear #
lump $-1 $-1 $52 $10 #
transform $-1 1 0 0 0 1 0 0 0 1 60.112918485061186 28.562029377180369 11.042322707300666 1 rotate no_reflect no_shear #
lump $-1 $-1 $53 $11 #
transform $-1 1 0 0 0 1 0 0 0 1 60.112918485061186 28.562029377180369 11.042322707300666 1 rotate no_reflect no_shear #
lump $-1 $-1 $54 $12 #
transform $-1 1 0 0 0 1 0 0 0 1 60.112918485061186 28.562029377180369 11.042322707300666 1 rotate no_reflect no_shear #
lump $-1 $-1 $55 $13 #
transform $-1 1 0 0 0 1 0 0 0 1 60.112918485061186 28.562029377180369 11.042322707300666 1 rotate no_reflect no_shear #
shell $-1 $-1 $-1 $56 $-1 $14 #
shell $-1 $-1 $-1 $57 $-1 $16 #
shell $-1 $-1 $-1 $58 $-1 $18 #
shell $-1 $-1 $-1 $59 $-1 $20 #
shell $-1 $-1 $-1 $60 $-1 $22 #
shell $-1 $-1 $-1 $61 $-1 $24 #
shell $-1 $-1 $-1 $62 $-1 $26 #
shell $-1 $-1 $-1 $63 $-1 $28 #
shell $-1 $-1 $-1 $64 $-1 $30 #
shell $-1 $-1 $-1 $65 $-1 $32 #
shell $-1 $-1 $-1 $66 $-1 $34 #
shell $-1 $-1 $-1 $67 $-1 $36 #
shell $-1 $-1 $-1 $68 $-1 $38 #
shell $-1 $-1 $-1 $69 $-1 $40 #
face $-1 $70 $71 $42 $-1 $72 forward single #
face $-1 $73 $74 $43 $-1 $75 forward single #
face $-1 $76 $77 $44 $-1 $78 reversed single #
face $-1 $79 $80 $45 $-1 $81 forward single #
face $-1 $82 $83 $46 $-1 $84 forward single #
face $-1 $85 $86 $47 $-1 $87 reversed single #
face $-1 $88 $89 $48 $-1 $90 forward single #
face $-1 $91 $92 $49 $-1 $93 forward single #
face $-1 $94 $95 $50 $-1 $96 reversed single #
face $-1 $97 $98 $51 $-1 $99 forward single #
face $-1 $100 $101 $52 $-1 $102 forward single #
face $-1 $103 $104 $53 $-1 $105 reversed single #
face $-1 $106 $107 $54 $-1 $108 forward single #
face $-1 $109 $110 $55 $-1 $111 forward single #
face $-1 $112 $113 $42 $-1 $114 reversed single #
loop $-1 $-1 $115 $56 #
plane-surface $-1 0 0 11.042322707300666 0 0 1 1 0 0 forward_v I I I I #
face $-1 $116 $117 $43 $-1 $118 reversed single #
loop $-1 $-1 $119 $57 #
plane-surface $-1 -54.632456045359667 0 -1.8096865007010723 0 0 1 1 0 0 forward_v I I I I #
face $-1 $120 $121 $44 $-1 $122 reversed single #
loop $-1 $-1 $123 $58 #
plane-surface $-1 86.710692179408596 -14.281014688590185 175.93845276756215 0 -1 0 -0.80901700255871778 0 -0.5877852410284794 forward_v I I I I #
face $-1 $124 $125 $45 $-1 $126 forward single #
loop $-1 $127 $128 $59 #
cone-surface $-1 58.428183836307404 -19.288551554654884 9.1016860271711781 -0.80901700255871778 0 -0.5877852410284794 0.2938926205142397 0 -0.40450850127935889 1 I I 0 1 0.5 forward I I I I #
face $-1 $129 $130 $46 $-1 $131 forward single #
loop $-1 $132 $133 $60 #
cone-surface $-1 58.428183836307404 -16.284029435016066 9.1016860271711781 -0.80901700255871778 0 -0.5877852410284794 0.2938926205142397 0 -0.40450850127935889 1 I I 0 1 0.5 forward I I I I #
face $-1 $134 $135 $47 $-1 $136 reversed single #
loop $-1 $-1 $137 $61 #
plane-surface $-1 86.710692179408596 2.2204460492503131e-015 175.93845276756215 0 -1 0 -0.80901700255871778 0 -0.5877852410284794 forward_v I I I I #
face $-1 $138 $139 $48 $-1 $140 forward single #
loop $-1 $141 $142 $62 #
cone-surface $-1 58.428183836307404 -5.0075368660646973 9.1016860271711781 -0.80901700255871778 0 -0.5877852410284794 0.2938926205142397 0 -0.40450850127935889 1 I I 0 1 0.5 forward I I I I #
face $-1 $143 $144 $49 $-1 $145 forward single #
loop $-1 $146 $147 $63 #
cone-surface $-1 58.428183836307404 -2.0030147464258796 9.1016860271711781 -0.80901700255871778 0 -0.5877852410284794 0.2938926205142397 0 -0.40450850127935889 1 I I 0 1 0.5 forward I I I I #
face $-1 $148 $149 $50 $-1 $150 reversed single #
loop $-1 $-1 $151 $64 #
plane-surface $-1 86.710692179408596 14.281014688590188 175.93845276756215 0 -1 0 -0.80901700255871778 0 -0.5877852410284794 forward_v I I I I #
face $-1 $152 $153 $51 $-1 $154 forward single #
loop $-1 $155 $156 $65 #
cone-surface $-1 58.428183836307404 9.2734778225254892 9.1016860271711781 -0.80901700255871778 0 -0.5877852410284794 0.2938926205142397 0 -0.40450850127935889 1 I I 0 1 0.5 forward I I I I #
face $-1 $157 $158 $52 $-1 $159 forward single #
loop $-1 $160 $161 $66 #
cone-surface $-1 58.428183836307404 12.27799994216431 9.1016860271711781 -0.80901700255871778 0 -0.5877852410284794 0.2938926205142397 0 -0.40450850127935889 1 I I 0 1 0.5 forward I I I I #
face $-1 $162 $163 $53 $-1 $164 reversed single #
loop $-1 $-1 $165 $67 #
plane-surface $-1 86.710692179408596 21.551477764689793 175.93845276756215 0 1 0 0.80901700255871778 0 0.5877852410284794 forward_v I I I I #
face $-1 $166 $167 $54 $-1 $168 forward single #
loop $-1 $169 $170 $68 #
cone-surface $-1 58.428183836307404 23.554492511115679 9.1016860271711781 -0.80901700255871778 0 -0.5877852410284794 0.2938926205142397 0 -0.40450850127935889 1 I I 0 1 0.5 forward I I I I #
face $-1 $171 $172 $55 $-1 $173 forward single #
loop $-1 $174 $175 $69 #
cone-surface $-1 58.428183836307404 26.559014630754501 9.1016860271711781 -0.80901700255871778 0 -0.5877852410284794 0.2938926205142397 0 -0.40450850127935889 1 I I 0 1 0.5 forward I I I I #
face $-1 $176 $177 $42 $-1 $178 reversed single #
loop $-1 $-1 $179 $70 #
plane-surface $-1 0 0 -11.042322707300666 0 0 1 1 0 0 forward_v I I I I #
coedge $-1 $180 $181 $182 $183 forward $71 $-1 #
face $-1 $184 $185 $43 $-1 $186 reversed single #
loop $-1 $-1 $187 $73 #
plane-surface $-1 -54.632456045359667 0 -4.8096865007010727 0 0 1 1 0 0 forward_v I I I I #
coedge $-1 $188 $189 $190 $191 forward $74 $-1 #
face $-1 $192 $193 $44 $-1 $194 reversed single #
loop $-1 $-1 $195 $76 #
plane-surface $-1 -10.554054076272877 -17.786290494835473 105.27148020622812 0.80901700255871778 0 0.5877852410284794 0.5877852410284794 0 -0.80901700255871778 forward_v I I I I #
coedge $-1 $196 $197 $198 $199 reversed $77 $-1 #
face $-1 $-1 $200 $45 $-1 $201 forward single #
loop $-1 $202 $203 $79 #
cone-surface $-1 57.643937069284959 -19.288551554654884 8.5318974151615841 -0.80901700255871778 0 -0.5877852410284794 0.14694631025711985 0 -0.20225425063967944 1 I I -0.70710678118654746 0.70710678118654746 0.25 forward I I I I #
loop $-1 $-1 $204 $59 #
coedge $-1 $128 $128 $205 $206 reversed $80 $-1 #
face $-1 $-1 $207 $46 $-1 $208 forward single #
loop $-1 $209 $210 $82 #
cone-surface $-1 57.643937069284959 -16.284029435016066 8.5318974151615841 -0.80901700255871778 0 -0.5877852410284794 0.14694631025711985 0 -0.20225425063967944 1 I I -0.70710678118654746 0.70710678118654746 0.25 forward I I I I #
loop $-1 $-1 $211 $60 #
coedge $-1 $133 $133 $212 $213 reversed $83 $-1 #
face $-1 $214 $215 $47 $-1 $216 reversed single #
loop $-1 $-1 $217 $85 #
plane-surface $-1 -10.554054076272877 -3.5052758062452867 105.27148020622812 0.80901700255871778 0 0.5877852410284794 0.5877852410284794 0 -0.80901700255871778 forward_v I I I I #
coedge $-1 $218 $219 $220 $221 reversed $86 $-1 #
face $-1 $-1 $222 $48 $-1 $223 forward single #
loop $-1 $224 $225 $88 #
cone-surface $-1 57.643937069284959 -5.0075368660646973 8.5318974151615841 -0.80901700255871778 0 -0.5877852410284794 0.14694631025711985 0 -0.20225425063967944 1 I I -0.70710678118654746 0.70710678118654746 0.25 forward I I I I #
loop $-1 $-1 $226 $62 #
coedge $-1 $142 $142 $227 $228 reversed $89 $-1 #
face $-1 $-1 $229 $49 $-1 $230 forward single #
loop $-1 $231 $232 $91 #
cone-surface $-1 57.643937069284959 -2.0030147464258796 8.5318974151615841 -0.80901700255871778 0 -0.5877852410284794 0.14694631025711985 0 -0.20225425063967944 1 I I -0.70710678118654746 0.70710678118654746 0.25 forward I I I I #
loop $-1 $-1 $233 $63 #
coedge $-1 $147 $147 $234 $235 reversed $92 $-1 #
face $-1 $236 $237 $50 $-1 $238 reversed single #
loop $-1 $-1 $239 $94 #
plane-surface $-1 -10.554054076272877 10.7757388823449 105.27148020622812 0.80901700255871778 0 0.5877852410284794 0.5877852410284794 0 -0.80901700255871778 forward_v I I I I #
coedge $-1 $240 $241 $242 $243 reversed $95 $-1 #
face $-1 $-1 $244 $51 $-1 $245 forward single #
loop $-1 $246 $247 $97 #
cone-surface $-1 57.643937069284959 9.2734778225254892 8.5318974151615841 -0.80901700255871778 0 -0.5877852410284794 0.14694631025711985 0 -0.20225425063967944 1 I I -0.70710678118654746 0.70710678118654746 0.25 forward I I I I #
loop $-1 $-1 $248 $65 #
coedge $-1 $156 $156 $249 $250 reversed $98 $-1 #
face $-1 $-1 $251 $52 $-1 $252 forward single #
loop $-1 $253 $254 $100 #
cone-surface $-1 57.643937069284959 12.27799994216431 8.5318974151615841 -0.80901700255871778 0 -0.5877852410284794 0.14694631025711985 0 -0.20225425063967944 1 I I -0.70710678118654746 0.70710678118654746 0.25 forward I I I I #
loop $-1 $-1 $255 $66 #
coedge $-1 $161 $161 $256 $257 reversed $101 $-1 #
face $-1 $258 $259 $53 $-1 $260 reversed single #
loop $-1 $-1 $261 $103 #
plane-surface $-1 -10.554054076272877 25.056753570935083 105.27148020622812 0.80901700255871778 0 0.5877852410284794 0.5877852410284794 0 -0.80901700255871778 forward_v I I I I #
coedge $-1 $262 $263 $264 $265 reversed $104 $-1 #
face $-1 $-1 $266 $54 $-1 $267 forward single #
loop $-1 $268 $269 $106 #
cone-surface $-1 57.643937069284959 23.554492511115679 8.5318974151615841 -0.80901700255871778 0 -0.5877852410284794 0.14694631025711985 0 -0.20225425063967944 1 I I -0.70710678118654746 0.70710678118654746 0.25 forward I I I I #
loop $-1 $-1 $270 $68 #
coedge $-1 $170 $170 $271 $272 reversed $107 $-1 #
face $-1 $-1 $273 $55 $-1 $274 forward single #
loop $-1 $275 $276 $109 #
cone-surface $-1 57.643937069284959 26.559014630754501 8.5318974151615841 -0.80901700255871778 0 -0.5877852410284794 0.14694631025711985 0 -0.20225425063967944 1 I I -0.70710678118654746 0.70710678118654746 0.25 forward I I I I #
loop $-1 $-1 $277 $69 #
coedge $-1 $175 $175 $278 $279 reversed $110 $-1 #
face $-1 $280 $281 $42 $-1 $282 reversed single #
loop $-1 $-1 $283 $112 #
plane-surface $-1 0 -28.562029377180369 0 0 1 0 0 0 1 forward_v I I I I #
coedge $-1 $284 $285 $286 $287 forward $113 $-1 #
coedge $-1 $288 $115 $289 $290 forward $71 $-1 #
coedge $-1 $115 $288 $291 $292 forward $71 $-1 #
coedge $-1 $293 $294 $115 $183 reversed $295 $-1 #
edge $-1 $296 -28.562029377180369 $297 28.562029377180369 $182 $298 forward 7 unknown #
face $-1 $299 $300 $43 $-1 $301 reversed single #
loop $-1 $-1 $302 $116 #
plane-surface $-1 -49.151993605658149 0 -3.3096865007010727 -1 0 0 0 0 1 forward_v I I I I #
coedge $-1 $303 $304 $305 $306 forward $117 $-1 #
coedge $-1 $307 $119 $308 $309 reversed $74 $-1 #
coedge $-1 $119 $307 $310 $311 reversed $74 $-1 #
coedge $-1 $302 $312 $119 $191 reversed $185 $-1 #
edge $-1 $313 -28.562029377180369 $314 28.562029377180369 $190 $315 forward 7 unknown #
face $-1 $316 $317 $44 $-1 $318 reversed single #
loop $-1 $-1 $319 $120 #
plane-surface $-1 86.710692179408596 -21.291566301080763 175.93845276756215 0 1 0 0.80901700255871778 0 0.5877852410284794 forward_v I I I I #
coedge $-1 $320 $321 $322 $323 reversed $121 $-1 #
coedge $-1 $197 $123 $324 $325 reversed $77 $-1 #
coedge $-1 $123 $196 $320 $326 reversed $77 $-1 #
coedge $-1 $322 $327 $123 $199 forward $328 $-1 #
edge $-1 $329 -16.757572395356888 $330 -14.552088130614848 $198 $331 forward 7 unknown #
loop $-1 $-1 $205 $124 #
plane-surface $-1 -10.554054076272877 -17.786290494835473 105.27148020622812 0.80901700255871778 0 0.5877852410284794 0.5877852410284794 0 -0.80901700255871778 forward_v I I I I #
loop $-1 $-1 $332 $79 #
coedge $-1 $203 $203 $204 $333 reversed $125 $-1 #
coedge $-1 $204 $204 $203 $333 forward $127 $-1 #
coedge $-1 $205 $205 $128 $206 forward $200 $-1 #
edge $-1 $334 0 $334 6.2831853071796004 $205 $335 forward 7 unknown #
loop $-1 $-1 $212 $129 #
plane-surface $-1 -10.554054076272877 -17.786290494835473 105.27148020622812 0.80901700255871778 0 0.5877852410284794 0.5877852410284794 0 -0.80901700255871778 forward_v I I I I #
loop $-1 $-1 $336 $82 #
coedge $-1 $210 $210 $211 $337 reversed $130 $-1 #
coedge $-1 $211 $211 $210 $337 forward $132 $-1 #
coedge $-1 $212 $212 $133 $213 forward $207 $-1 #
edge $-1 $338 0 $338 6.2831853071796004 $212 $339 forward 7 unknown #
face $-1 $340 $341 $47 $-1 $342 reversed single #
loop $-1 $-1 $343 $134 #
plane-surface $-1 86.710692179408596 -7.0105516124905751 175.93845276756215 0 1 0 0.80901700255871778 0 0.5877852410284794 forward_v I I I I #
coedge $-1 $344 $345 $346 $347 reversed $135 $-1 #
coedge $-1 $219 $137 $348 $349 reversed $86 $-1 #
coedge $-1 $137 $218 $344 $350 reversed $86 $-1 #
coedge $-1 $346 $351 $137 $221 forward $352 $-1 #
edge $-1 $353 -16.757572395356888 $354 -14.552088130614848 $220 $355 forward 7 unknown #
loop $-1 $-1 $227 $138 #
plane-surface $-1 -10.554054076272877 -3.5052758062452867 105.27148020622812 0.80901700255871778 0 0.5877852410284794 0.5877852410284794 0 -0.80901700255871778 forward_v I I I I #
loop $-1 $-1 $356 $88 #
coedge $-1 $225 $225 $226 $357 reversed $139 $-1 #
coedge $-1 $226 $226 $225 $357 forward $141 $-1 #
coedge $-1 $227 $227 $142 $228 forward $222 $-1 #
edge $-1 $358 0 $358 6.2831853071796004 $227 $359 forward 7 unknown #
loop $-1 $-1 $234 $143 #
plane-surface $-1 -10.554054076272877 -3.5052758062452867 105.27148020622812 0.80901700255871778 0 0.5877852410284794 0.5877852410284794 0 -0.80901700255871778 forward_v I I I I #
loop $-1 $-1 $360 $91 #
coedge $-1 $232 $232 $233 $361 reversed $144 $-1 #
coedge $-1 $233 $233 $232 $361 forward $146 $-1 #
coedge $-1 $234 $234 $147 $235 forward $229 $-1 #
edge $-1 $362 0 $362 6.2831853071796004 $234 $363 forward 7 unknown #
face $-1 $364 $365 $50 $-1 $366 reversed single #
loop $-1 $-1 $367 $148 #
plane-surface $-1 86.710692179408596 7.2704630760996114 175.93845276756215 0 1 0 0.80901700255871778 0 0.5877852410284794 forward_v I I I I #
coedge $-1 $368 $369 $370 $371 reversed $149 $-1 #
coedge $-1 $241 $151 $372 $373 reversed $95 $-1 #
coedge $-1 $151 $240 $368 $374 reversed $95 $-1 #
coedge $-1 $370 $375 $151 $243 forward $376 $-1 #
edge $-1 $377 -16.757572395356888 $378 -14.552088130614848 $242 $379 forward 7 unknown #
loop $-1 $-1 $249 $152 #
plane-surface $-1 -10.554054076272877 10.7757388823449 105.27148020622812 0.80901700255871778 0 0.5877852410284794 0.5877852410284794 0 -0.80901700255871778 forward_v I I I I #
loop $-1 $-1 $380 $97 #
coedge $-1 $247 $247 $248 $381 reversed $153 $-1 #
coedge $-1 $248 $248 $247 $381 forward $155 $-1 #
coedge $-1 $249 $249 $156 $250 forward $244 $-1 #
edge $-1 $382 0 $382 6.2831853071796004 $249 $383 forward 7 unknown #
loop $-1 $-1 $256 $157 #
plane-surface $-1 -10.554054076272877 10.7757388823449 105.27148020622812 0.80901700255871778 0 0.5877852410284794 0.5877852410284794 0 -0.80901700255871778 forward_v I I I I #
loop $-1 $-1 $384 $100 #
coedge $-1 $254 $254 $255 $385 reversed $158 $-1 #
coedge $-1 $255 $255 $254 $385 forward $160 $-1 #
coedge $-1 $256 $256 $161 $257 forward $251 $-1 #
edge $-1 $386 0 $386 6.2831853071796004 $256 $387 forward 7 unknown #
face $-1 $388 $389 $53 $-1 $390 forward single #
loop $-1 $-1 $264 $162 #
plane-surface $-1 60.112918485061186 0 0 -1 0 0 0 0 1 forward_v I I I I #
coedge $-1 $391 $392 $393 $394 reversed $163 $-1 #
coedge $-1 $263 $165 $395 $396 reversed $104 $-1 #
coedge $-1 $165 $262 $391 $397 reversed $104 $-1 #
coedge $-1 $393 $398 $165 $265 forward $259 $-1 #
edge $-1 $399 76.926903676480407 $400 79.962492433234459 $264 $401 forward 7 unknown #
loop $-1 $-1 $271 $166 #
plane-surface $-1 -10.554054076272877 25.056753570935083 105.27148020622812 0.80901700255871778 0 0.5877852410284794 0.5877852410284794 0 -0.80901700255871778 forward_v I I I I #
loop $-1 $-1 $402 $106 #
coedge $-1 $269 $269 $270 $403 reversed $167 $-1 #
coedge $-1 $270 $270 $269 $403 forward $169 $-1 #
coedge $-1 $271 $271 $170 $272 forward $266 $-1 #
edge $-1 $404 0 $404 6.2831853071796004 $271 $405 forward 7 unknown #
loop $-1 $-1 $278 $171 #
plane-surface $-1 -10.554054076272877 25.056753570935083 105.27148020622812 0.80901700255871778 0 0.5877852410284794 0.5877852410284794 0 -0.80901700255871778 forward_v I I I I #
loop $-1 $-1 $406 $109 #
coedge $-1 $276 $276 $277 $407 reversed $172 $-1 #
coedge $-1 $277 $277 $276 $407 forward $174 $-1 #
coedge $-1 $278 $278 $175 $279 forward $273 $-1 #
edge $-1 $408 0 $408 6.2831853071796004 $278 $409 forward 7 unknown #
face $-1 $410 $411 $42 $-1 $412 reversed single #
loop $-1 $-1 $413 $176 #
plane-surface $-1 -60.112918485061186 0 0 1 0 0 0 0 -1 forward_v I I I I #
coedge $-1 $414 $291 $415 $416 forward $177 $-1 #
coedge $-1 $417 $179 $414 $418 forward $113 $-1 #
coedge $-1 $179 $417 $419 $420 forward $113 $-1 #
coedge $-1 $294 $293 $179 $287 reversed $295 $-1 #
edge $-1 $421 -28.562029377180369 $422 28.562029377180369 $286 $423 forward 7 unknown #
coedge $-1 $181 $180 $424 $425 forward $71 $-1 #
coedge $-1 $426 $427 $180 $290 reversed $411 $-1 #
edge $-1 $297 -60.112918485061186 $428 60.112918485061186 $289 $429 forward 7 unknown #
coedge $-1 $283 $430 $181 $292 reversed $177 $-1 #
edge $-1 $431 -60.112918485061186 $296 60.112918485061186 $291 $432 forward 7 unknown #
coedge $-1 $286 $182 $430 $433 forward $295 $-1 #
coedge $-1 $182 $286 $426 $434 reversed $295 $-1 #
loop $-1 $-1 $293 $410 #
vertex $-1 $183 $435 #
vertex $-1 $183 $436 #
straight-curve $-1 60.112918485061186 0 11.042322707300666 0 1 0 I I #
face $-1 $437 $438 $43 $-1 $439 reversed single #
loop $-1 $-1 $440 $184 #
plane-surface $-1 0 -28.562029377180369 0 0 1 0 0 0 1 forward_v I I I I #
coedge $-1 $305 $190 $441 $442 reversed $185 $-1 #
coedge $-1 $443 $187 $440 $444 reversed $117 $-1 #
coedge $-1 $187 $443 $445 $446 reversed $117 $-1 #
coedge $-1 $312 $302 $187 $306 reversed $185 $-1 #
edge $-1 $447 -28.562029377180369 $448 28.562029377180369 $305 $449 forward 7 unknown #
coedge $-1 $189 $188 $450 $451 reversed $74 $-1 #
coedge $-1 $452 $453 $188 $309 forward $454 $-1 #
edge $-1 $455 -32.796690462381349 $314 -21.835765582978315 $308 $456 forward 7 unknown #
coedge $-1 $457 $441 $189 $311 forward $300 $-1 #
edge $-1 $313 21.835765582978315 $458 32.796690462381349 $310 $459 forward 7 unknown #
coedge $-1 $190 $305 $452 $460 reversed $185 $-1 #
vertex $-1 $311 $461 #
vertex $-1 $309 $462 #
straight-curve $-1 -49.151993605658149 0 -1.8096865007010723 0 1 0 I I #
face $-1 $-1 $328 $44 $-1 $463 forward single #
loop $-1 $-1 $464 $192 #
plane-surface $-1 60.112918485061186 0 0 -1 0 0 0 0 1 forward_v I I I I #
coedge $-1 $465 $466 $467 $468 reversed $193 $-1 #
coedge $-1 $469 $195 $197 $326 forward $121 $-1 #
coedge $-1 $195 $469 $465 $470 forward $121 $-1 #
coedge $-1 $467 $198 $195 $323 forward $328 $-1 #
edge $-1 $330 5.3878694411724481 $471 12.398421053663027 $322 $472 forward 7 unknown #
coedge $-1 $473 $474 $196 $325 forward $317 $-1 #
edge $-1 $475 -79.962492433234459 $329 -76.926903676480407 $324 $476 forward 7 unknown #
edge $-1 $330 116.47364295299636 $475 120.2258369701224 $197 $477 forward 7 unknown #
coedge $-1 $198 $467 $473 $478 forward $328 $-1 #
loop $-1 $-1 $467 $316 #
vertex $-1 $325 $479 #
vertex $-1 $199 $480 #
straight-curve $-1 43.355346089704298 -14.281014688590185 11.04232270730067 -1 0 0 I I #
coedge $-1 $332 $332 $-1 $481 reversed $202 $-1 #
edge $-1 $482 0 $482 6.2831853071796004 $203 $483 forward 7 unknown #
vertex $-1 $206 $484 #
ellipse-curve $-1 59.010176352690166 -19.288551554654884 9.5245283289236493 0.80901700255871778 0 0.5877852410284794 0.2938926205142397 0 -0.40450850127935889 1 I I #
coedge $-1 $336 $336 $-1 $485 reversed $209 $-1 #
edge $-1 $486 0 $486 6.2831853071796004 $210 $487 forward 7 unknown #
vertex $-1 $213 $488 #
ellipse-curve $-1 59.010176352690166 -16.284029435016066 9.5245283289236493 0.80901700255871778 0 0.5877852410284794 0.2938926205142397 0 -0.40450850127935889 1 I I #
face $-1 $-1 $352 $47 $-1 $489 forward single #
loop $-1 $-1 $490 $214 #
plane-surface $-1 60.112918485061186 0 0 -1 0 0 0 0 1 forward_v I I I I #
coedge $-1 $491 $492 $493 $494 reversed $215 $-1 #
coedge $-1 $495 $217 $219 $350 forward $135 $-1 #
coedge $-1 $217 $495 $491 $496 forward $135 $-1 #
coedge $-1 $493 $220 $217 $347 forward $352 $-1 #
edge $-1 $354 -1.7526379031226456 $497 5.2579137093679318 $346 $498 forward 7 unknown #
coedge $-1 $499 $500 $218 $349 forward $341 $-1 #
edge $-1 $501 -79.962492433234459 $353 -76.926903676480407 $348 $502 forward 7 unknown #
edge $-1 $354 116.47364295299636 $501 120.2258369701224 $219 $503 forward 7 unknown #
coedge $-1 $220 $493 $499 $504 forward $352 $-1 #
loop $-1 $-1 $493 $340 #
vertex $-1 $349 $505 #
vertex $-1 $221 $506 #
straight-curve $-1 43.355346089704298 2.2204460492503131e-015 11.04232270730067 -1 0 0 I I #
coedge $-1 $356 $356 $-1 $507 reversed $224 $-1 #
edge $-1 $508 0 $508 6.2831853071796004 $225 $509 forward 7 unknown #
vertex $-1 $228 $510 #
ellipse-curve $-1 59.010176352690166 -5.0075368660646973 9.5245283289236493 0.80901700255871778 0 0.5877852410284794 0.2938926205142397 0 -0.40450850127935889 1 I I #
coedge $-1 $360 $360 $-1 $511 reversed $231 $-1 #
edge $-1 $512 0 $512 6.2831853071796004 $232 $513 forward 7 unknown #
vertex $-1 $235 $514 #
ellipse-curve $-1 59.010176352690166 -2.0030147464258796 9.5245283289236493 0.80901700255871778 0 0.5877852410284794 0.2938926205142397 0 -0.40450850127935889 1 I I #
face $-1 $-1 $376 $50 $-1 $515 forward single #
loop $-1 $-1 $516 $236 #
plane-surface $-1 60.112918485061186 0 0 -1 0 0 0 0 1 forward_v I I I I #
coedge $-1 $517 $518 $519 $520 reversed $237 $-1 #
coedge $-1 $521 $239 $241 $374 forward $149 $-1 #
coedge $-1 $239 $521 $517 $522 forward $149 $-1 #
coedge $-1 $519 $242 $239 $371 forward $376 $-1 #
edge $-1 $378 -8.8931452474177384 $523 -1.8825936349271615 $370 $524 forward 7 unknown #
coedge $-1 $525 $526 $240 $373 forward $365 $-1 #
edge $-1 $527 -79.962492433234459 $377 -76.926903676480407 $372 $528 forward 7 unknown #
edge $-1 $378 116.47364295299636 $527 120.2258369701224 $241 $529 forward 7 unknown #
coedge $-1 $242 $519 $525 $530 forward $376 $-1 #
loop $-1 $-1 $519 $364 #
vertex $-1 $373 $531 #
vertex $-1 $243 $532 #
straight-curve $-1 43.355346089704298 14.281014688590188 11.04232270730067 -1 0 0 I I #
coedge $-1 $380 $380 $-1 $533 reversed $246 $-1 #
edge $-1 $534 0 $534 6.2831853071796004 $247 $535 forward 7 unknown #
vertex $-1 $250 $536 #
ellipse-curve $-1 59.010176352690166 9.2734778225254892 9.5245283289236493 0.80901700255871778 0 0.5877852410284794 0.2938926205142397 0 -0.40450850127935889 1 I I #
coedge $-1 $384 $384 $-1 $537 reversed $253 $-1 #
edge $-1 $538 0 $538 6.2831853071796004 $254 $539 forward 7 unknown #
vertex $-1 $257 $540 #
ellipse-curve $-1 59.010176352690166 12.27799994216431 9.5245283289236493 0.80901700255871778 0 0.5877852410284794 0.2938926205142397 0 -0.40450850127935889 1 I I #
face $-1 $-1 $541 $53 $-1 $542 reversed single #
loop $-1 $-1 $395 $258 #
plane-surface $-1 0 0 11.042322707300666 0 0 1 1 0 0 forward_v I I I I #
coedge $-1 $543 $261 $263 $397 forward $163 $-1 #
coedge $-1 $261 $543 $544 $545 reversed $163 $-1 #
coedge $-1 $546 $264 $261 $394 forward $259 $-1 #
edge $-1 $400 9.0231009792222512 $547 16.03365259171283 $393 $548 forward 7 unknown #
coedge $-1 $549 $550 $262 $396 forward $389 $-1 #
edge $-1 $551 14.552088130614848 $399 16.757572395356888 $395 $552 forward 7 unknown #
edge $-1 $400 -120.2258369701224 $551 -116.47364295299636 $263 $553 forward 7 unknown #
coedge $-1 $264 $546 $549 $554 reversed $259 $-1 #
vertex $-1 $554 $555 #
vertex $-1 $265 $556 #
straight-curve $-1 60.112918485061186 21.551477764689793 87.969226383781077 0 0 -1 I I #
coedge $-1 $402 $402 $-1 $557 reversed $268 $-1 #
edge $-1 $558 0 $558 6.2831853071796004 $269 $559 forward 7 unknown #
vertex $-1 $272 $560 #
ellipse-curve $-1 59.010176352690166 23.554492511115679 9.5245283289236493 0.80901700255871778 0 0.5877852410284794 0.2938926205142397 0 -0.40450850127935889 1 I I #
coedge $-1 $406 $406 $-1 $561 reversed $275 $-1 #
edge $-1 $562 0 $562 6.2831853071796004 $276 $563 forward 7 unknown #
vertex $-1 $279 $564 #
ellipse-curve $-1 59.010176352690166 26.559014630754501 9.5245283289236493 0.80901700255871778 0 0.5877852410284794 0.2938926205142397 0 -0.40450850127935889 1 I I #
face $-1 $-1 $295 $42 $-1 $565 reversed single #
loop $-1 $-1 $426 $280 #
plane-surface $-1 0 28.562029377180369 0 0 -1 0 0 0 -1 forward_v I I I I #
coedge $-1 $566 $424 $427 $567 forward $281 $-1 #
coedge $-1 $430 $283 $284 $418 reversed $177 $-1 #
coedge $-1 $424 $566 $283 $416 reversed $281 $-1 #
edge $-1 $431 -11.042322707300666 $568 11.042322707300666 $415 $569 forward 7 unknown #
coedge $-1 $285 $284 $566 $570 forward $113 $-1 #
edge $-1 $422 -60.112918485061186 $568 60.112918485061186 $414 $571 forward 7 unknown #
coedge $-1 $427 $426 $285 $420 reversed $411 $-1 #
edge $-1 $572 -60.112918485061186 $421 60.112918485061186 $419 $573 forward 7 unknown #
vertex $-1 $287 $574 #
vertex $-1 $433 $575 #
straight-curve $-1 60.112918485061186 0 -11.042322707300666 0 -1 0 I I #
coedge $-1 $413 $415 $288 $425 reversed $281 $-1 #
edge $-1 $428 -28.562029377180369 $431 28.562029377180369 $424 $576 forward 7 unknown #
coedge $-1 $419 $289 $294 $434 forward $411 $-1 #
coedge $-1 $289 $419 $413 $567 reversed $411 $-1 #
vertex $-1 $290 $577 #
straight-curve $-1 0 28.562029377180369 11.042322707300666 -1 0 0 I I #
coedge $-1 $291 $414 $293 $433 reversed $177 $-1 #
vertex $-1 $425 $578 #
straight-curve $-1 0 -28.562029377180369 11.042322707300666 1 0 0 I I #
edge $-1 $296 -11.042322707300666 $422 11.042322707300666 $293 $579 forward 7 unknown #
edge $-1 $297 -11.042322707300666 $421 11.042322707300666 $294 $580 forward 7 unknown #
point $-1 60.112918485061186 -28.562029377180369 11.042322707300666 #
point $-1 60.112918485061186 28.562029377180369 11.042322707300666 #
face $-1 $-1 $454 $43 $-1 $581 reversed single #
loop $-1 $-1 $582 $299 #
plane-surface $-1 -60.112918485061186 0 0 1 0 0 0 0 -1 forward_v I I I I #
coedge $-1 $441 $457 $303 $444 forward $300 $-1 #
coedge $-1 $310 $440 $302 $442 forward $300 $-1 #
edge $-1 $448 -3.1548432503505364 $313 -0.15484325035053592 $441 $583 forward 7 unknown #
coedge $-1 $304 $303 $582 $584 reversed $117 $-1 #
edge $-1 $585 -32.796690462381349 $448 -21.835765582978315 $440 $586 forward 7 unknown #
coedge $-1 $453 $452 $304 $446 forward $454 $-1 #
edge $-1 $447 21.835765582978315 $587 32.796690462381349 $445 $588 forward 7 unknown #
vertex $-1 $446 $589 #
vertex $-1 $444 $590 #
straight-curve $-1 -49.151993605658149 0 -4.8096865007010727 0 -1 0 I I #
coedge $-1 $591 $592 $307 $451 forward $438 $-1 #
edge $-1 $458 -28.562029377180369 $455 28.562029377180369 $450 $593 forward 7 unknown #
coedge $-1 $445 $308 $312 $460 forward $454 $-1 #
coedge $-1 $308 $445 $591 $594 reversed $454 $-1 #
loop $-1 $-1 $445 $437 #
vertex $-1 $594 $595 #
straight-curve $-1 -27.316228022679834 28.562029377180369 -1.8096865007010723 1 0 0 I I #
coedge $-1 $440 $310 $592 $596 forward $300 $-1 #
vertex $-1 $596 $597 #
straight-curve $-1 -27.316228022679834 -28.562029377180369 -1.8096865007010723 -1 0 0 I I #
edge $-1 $314 0.15484325035053592 $447 3.1548432503505364 $452 $598 forward 7 unknown #
point $-1 -49.151993605658149 -28.562029377180369 -1.8096865007010723 #
point $-1 -49.151993605658149 28.562029377180369 -1.8096865007010723 #
plane-surface $-1 0 0 11.042322707300666 0 0 1 1 0 0 forward_v I I I I #
coedge $-1 $474 $473 $466 $599 forward $317 $-1 #
coedge $-1 $466 $319 $321 $470 reversed $193 $-1 #
coedge $-1 $319 $465 $464 $599 reversed $193 $-1 #
coedge $-1 $327 $322 $319 $468 forward $328 $-1 #
edge $-1 $471 14.552088130614848 $600 16.757572395356888 $467 $601 forward 7 unknown #
coedge $-1 $321 $320 $474 $602 reversed $121 $-1 #
edge $-1 $603 -120.2258369701224 $471 -116.47364295299636 $465 $604 forward 7 unknown #
vertex $-1 $323 $605 #
straight-curve $-1 57.907434220319146 -8.8931452474177366 11.042322707300677 0 -1 0 I I #
coedge $-1 $464 $324 $327 $478 reversed $317 $-1 #
coedge $-1 $324 $464 $469 $602 forward $317 $-1 #
vertex $-1 $325 $606 #
straight-curve $-1 60.112918485061186 -14.281014688590185 87.969226383781077 0 0 1 I I #
straight-curve $-1 -10.554054076272877 -14.281014688590185 105.27148020622812 0.5877852410284794 0 -0.80901700255871778 I I #
edge $-1 $600 -21.291566301080763 $329 -14.281014688590185 $473 $607 forward 7 unknown #
point $-1 60.112918485061186 -14.281014688590185 11.042322707300666 #
point $-1 57.907434220319146 -14.281014688590185 11.04232270730067 #
edge $-1 $608 1 $608 0 $332 $-1 forward 7 unknown #
vertex $-1 $333 $609 #
ellipse-curve $-1 57.846191319924635 -19.288551554654884 8.6788437254187034 0.80901700255871778 0 0.5877852410284794 0.2938926205142397 0 -0.40450850127935889 1 I I #
point $-1 59.304068973204409 -19.288551554654884 9.1200198276442936 #
edge $-1 $610 1 $610 0 $336 $-1 forward 7 unknown #
vertex $-1 $337 $611 #
ellipse-curve $-1 57.846191319924635 -16.284029435016066 8.6788437254187034 0.80901700255871778 0 0.5877852410284794 0.2938926205142397 0 -0.40450850127935889 1 I I #
point $-1 59.304068973204409 -16.284029435016066 9.1200198276442936 #
plane-surface $-1 0 0 11.042322707300666 0 0 1 1 0 0 forward_v I I I I #
coedge $-1 $500 $499 $492 $612 forward $341 $-1 #
coedge $-1 $492 $343 $345 $496 reversed $215 $-1 #
coedge $-1 $343 $491 $490 $612 reversed $215 $-1 #
coedge $-1 $351 $346 $343 $494 forward $352 $-1 #
edge $-1 $497 14.552088130614848 $613 16.757572395356888 $493 $614 forward 7 unknown #
coedge $-1 $345 $344 $500 $615 reversed $135 $-1 #
edge $-1 $616 -120.2258369701224 $497 -116.47364295299636 $491 $617 forward 7 unknown #
vertex $-1 $347 $618 #
straight-curve $-1 57.907434220319146 -1.7526379031226433 11.042322707300677 0 -1 0 I I #
coedge $-1 $490 $348 $351 $504 reversed $341 $-1 #
coedge $-1 $348 $490 $495 $615 forward $341 $-1 #
vertex $-1 $349 $619 #
straight-curve $-1 60.112918485061186 2.2204460492503131e-015 87.969226383781077 0 0 1 I I #
straight-curve $-1 -10.554054076272877 2.2204460492503131e-015 105.27148020622812 0.5877852410284794 0 -0.80901700255871778 I I #
edge $-1 $613 -7.0105516124905751 $353 2.2204460492503131e-015 $499 $620 forward 7 unknown #
point $-1 60.112918485061186 2.2204460492503131e-015 11.042322707300666 #
point $-1 57.907434220319146 2.2204460492503131e-015 11.04232270730067 #
edge $-1 $621 1 $621 0 $356 $-1 forward 7 unknown #
vertex $-1 $357 $622 #
ellipse-curve $-1 57.846191319924635 -5.0075368660646973 8.6788437254187034 0.80901700255871778 0 0.5877852410284794 0.2938926205142397 0 -0.40450850127935889 1 I I #
point $-1 59.304068973204409 -5.0075368660646973 9.1200198276442936 #
edge $-1 $623 1 $623 0 $360 $-1 forward 7 unknown #
vertex $-1 $361 $624 #
ellipse-curve $-1 57.846191319924635 -2.0030147464258796 8.6788437254187034 0.80901700255871778 0 0.5877852410284794 0.2938926205142397 0 -0.40450850127935889 1 I I #
point $-1 59.304068973204409 -2.0030147464258796 9.1200198276442936 #
plane-surface $-1 0 0 11.042322707300666 0 0 1 1 0 0 forward_v I I I I #
coedge $-1 $526 $525 $518 $625 forward $365 $-1 #
coedge $-1 $518 $367 $369 $522 reversed $237 $-1 #
coedge $-1 $367 $517 $516 $625 reversed $237 $-1 #
coedge $-1 $375 $370 $367 $520 forward $376 $-1 #
edge $-1 $523 14.552088130614848 $626 16.757572395356888 $519 $627 forward 7 unknown #
coedge $-1 $369 $368 $526 $628 reversed $149 $-1 #
edge $-1 $629 -120.2258369701224 $523 -116.47364295299636 $517 $630 forward 7 unknown #
vertex $-1 $371 $631 #
straight-curve $-1 57.907434220319146 5.3878694411724499 11.042322707300677 0 -1 0 I I #
coedge $-1 $516 $372 $375 $530 reversed $365 $-1 #
coedge $-1 $372 $516 $521 $628 forward $365 $-1 #
vertex $-1 $373 $632 #
straight-curve $-1 60.112918485061186 14.281014688590188 87.969226383781077 0 0 1 I I #
straight-curve $-1 -10.554054076272877 14.281014688590188 105.27148020622812 0.5877852410284794 0 -0.80901700255871778 I I #
edge $-1 $626 7.2704630760996114 $377 14.281014688590188 $525 $633 forward 7 unknown #
point $-1 60.112918485061186 14.281014688590188 11.042322707300666 #
point $-1 57.907434220319146 14.281014688590188 11.04232270730067 #
edge $-1 $634 1 $634 0 $380 $-1 forward 7 unknown #
vertex $-1 $381 $635 #
ellipse-curve $-1 57.846191319924635 9.2734778225254892 8.6788437254187034 0.80901700255871778 0 0.5877852410284794 0.2938926205142397 0 -0.40450850127935889 1 I I #
point $-1 59.304068973204409 9.2734778225254892 9.1200198276442936 #
edge $-1 $636 1 $636 0 $384 $-1 forward 7 unknown #
vertex $-1 $385 $637 #
ellipse-curve $-1 57.846191319924635 12.27799994216431 8.6788437254187034 0.80901700255871778 0 0.5877852410284794 0.2938926205142397 0 -0.40450850127935889 1 I I #
point $-1 59.304068973204409 12.27799994216431 9.1200198276442936 #
loop $-1 $-1 $544 $388 #
plane-surface $-1 0 28.562029377180369 0 0 -1 0 0 0 -1 forward_v I I I I #
coedge $-1 $392 $391 $550 $638 reversed $163 $-1 #
coedge $-1 $639 $640 $392 $545 forward $541 $-1 #
edge $-1 $547 -74.540869674916536 $641 -70.788675657790506 $544 $642 forward 7 unknown #
coedge $-1 $398 $393 $640 $643 reversed $259 $-1 #
vertex $-1 $394 $644 #
straight-curve $-1 60.112918485061186 12.528376785467541 8.006733950546618 0 1 0 I I #
coedge $-1 $645 $395 $398 $554 forward $389 $-1 #
coedge $-1 $395 $645 $543 $638 forward $389 $-1 #
vertex $-1 $396 $646 #
straight-curve $-1 43.355346089704298 21.551477764689793 11.04232270730067 1 0 0 I I #
straight-curve $-1 -10.554054076272877 21.551477764689793 105.27148020622812 -0.5877852410284794 0 0.80901700255871778 I I #
edge $-1 $399 21.551477764689793 $647 28.562029377180369 $398 $648 forward 7 unknown #
point $-1 60.112918485061186 21.551477764689793 11.042322707300666 #
point $-1 60.112918485061186 21.551477764689793 8.006733950546618 #
edge $-1 $649 1 $649 0 $402 $-1 forward 7 unknown #
vertex $-1 $403 $650 #
ellipse-curve $-1 57.846191319924635 23.554492511115679 8.6788437254187034 0.80901700255871778 0 0.5877852410284794 0.2938926205142397 0 -0.40450850127935889 1 I I #
point $-1 59.304068973204409 23.554492511115679 9.1200198276442936 #
edge $-1 $651 1 $651 0 $406 $-1 forward 7 unknown #
vertex $-1 $407 $652 #
ellipse-curve $-1 57.846191319924635 26.559014630754501 8.6788437254187034 0.80901700255871778 0 0.5877852410284794 0.2938926205142397 0 -0.40450850127935889 1 I I #
point $-1 59.304068973204409 26.559014630754501 9.1200198276442936 #
plane-surface $-1 60.112918485061186 0 0 -1 0 0 0 0 1 forward_v I I I I #
coedge $-1 $415 $413 $417 $570 reversed $281 $-1 #
edge $-1 $428 -11.042322707300666 $572 11.042322707300666 $427 $653 forward 7 unknown #
vertex $-1 $570 $654 #
straight-curve $-1 -60.112918485061186 -28.562029377180369 0 0 0 -1 I I #
edge $-1 $568 -28.562029377180369 $572 28.562029377180369 $566 $655 forward 7 unknown #
straight-curve $-1 0 -28.562029377180369 -11.042322707300666 -1 0 0 I I #
vertex $-1 $420 $656 #
straight-curve $-1 0 28.562029377180369 -11.042322707300666 1 0 0 I I #
point $-1 60.112918485061186 28.562029377180369 -11.042322707300666 #
point $-1 60.112918485061186 -28.562029377180369 -11.042322707300666 #
straight-curve $-1 -60.112918485061186 0 11.042322707300666 0 -1 0 I I #
point $-1 -60.112918485061186 28.562029377180369 11.042322707300666 #
point $-1 -60.112918485061186 -28.562029377180369 11.042322707300666 #
straight-curve $-1 60.112918485061186 -28.562029377180369 0 0 0 -1 I I #
straight-curve $-1 60.112918485061186 28.562029377180369 0 0 0 -1 I I #
plane-surface $-1 0 28.562029377180369 0 0 -1 0 0 0 -1 forward_v I I I I #
coedge $-1 $592 $591 $443 $584 forward $438 $-1 #
straight-curve $-1 -49.151993605658149 -28.562029377180369 -1.6548432503505364 0 0 1 I I #
edge $-1 $587 -28.562029377180369 $585 28.562029377180369 $582 $657 forward 7 unknown #
vertex $-1 $444 $658 #
straight-curve $-1 -27.316228022679834 -28.562029377180369 -4.8096865007010727 1 0 0 I I #
vertex $-1 $446 $659 #
straight-curve $-1 -27.316228022679834 28.562029377180369 -4.8096865007010727 -1 0 0 I I #
point $-1 -49.151993605658149 28.562029377180369 -4.8096865007010727 #
point $-1 -49.151993605658149 -28.562029377180369 -4.8096865007010727 #
coedge $-1 $582 $450 $453 $594 forward $438 $-1 #
coedge $-1 $450 $582 $457 $596 reversed $438 $-1 #
straight-curve $-1 -60.112918485061186 0 -1.8096865007010723 0 1 0 I I #
edge $-1 $455 1.8096865007010723 $587 4.8096865007010727 $453 $660 forward 7 unknown #
point $-1 -60.112918485061186 28.562029377180369 -1.8096865007010723 #
edge $-1 $458 1.8096865007010723 $585 4.8096865007010727 $592 $661 forward 7 unknown #
point $-1 -60.112918485061186 -28.562029377180369 -1.8096865007010723 #
straight-curve $-1 -49.151993605658149 28.562029377180369 -1.6548432503505364 0 0 -1 I I #
edge $-1 $600 76.926903676480407 $603 79.962492433234459 $464 $662 forward 7 unknown #
vertex $-1 $478 $663 #
straight-curve $-1 43.355346089704298 -21.291566301080763 11.04232270730067 1 0 0 I I #
edge $-1 $603 -12.398421053663027 $475 -5.3878694411724481 $474 $664 forward 7 unknown #
vertex $-1 $602 $665 #
straight-curve $-1 -10.554054076272877 -21.291566301080763 105.27148020622812 -0.5877852410284794 0 0.80901700255871778 I I #
point $-1 57.907434220319146 -21.291566301080763 11.04232270730067 #
point $-1 60.112918485061186 -14.281014688590185 8.006733950546618 #
straight-curve $-1 60.112918485061186 0 11.042322707300666 0 1 0 I I #
vertex $-1 $481 $666 #
point $-1 58.140083940438878 -19.288551554654884 8.2743352241393442 #
vertex $-1 $485 $667 #
point $-1 58.140083940438878 -16.284029435016066 8.2743352241393442 #
edge $-1 $613 76.926903676480407 $616 79.962492433234459 $490 $668 forward 7 unknown #
vertex $-1 $504 $669 #
straight-curve $-1 43.355346089704298 -7.0105516124905751 11.04232270730067 1 0 0 I I #
edge $-1 $616 -5.2579137093679318 $501 1.7526379031226456 $500 $670 forward 7 unknown #
vertex $-1 $615 $671 #
straight-curve $-1 -10.554054076272877 -7.0105516124905751 105.27148020622812 -0.5877852410284794 0 0.80901700255871778 I I #
point $-1 57.907434220319146 -7.0105516124905751 11.04232270730067 #
point $-1 60.112918485061186 2.2204460492503131e-015 8.006733950546618 #
straight-curve $-1 60.112918485061186 0 11.042322707300666 0 1 0 I I #
vertex $-1 $507 $672 #
point $-1 58.140083940438878 -5.0075368660646973 8.2743352241393442 #
vertex $-1 $511 $673 #
point $-1 58.140083940438878 -2.0030147464258796 8.2743352241393442 #
edge $-1 $626 76.926903676480407 $629 79.962492433234459 $516 $674 forward 7 unknown #
vertex $-1 $530 $675 #
straight-curve $-1 43.355346089704298 7.2704630760996114 11.04232270730067 1 0 0 I I #
edge $-1 $629 1.8825936349271615 $527 8.8931452474177384 $526 $676 forward 7 unknown #
vertex $-1 $628 $677 #
straight-curve $-1 -10.554054076272877 7.2704630760996114 105.27148020622812 -0.5877852410284794 0 0.80901700255871778 I I #
point $-1 57.907434220319146 7.2704630760996114 11.04232270730067 #
point $-1 60.112918485061186 14.281014688590188 8.006733950546618 #
straight-curve $-1 60.112918485061186 0 11.042322707300666 0 1 0 I I #
vertex $-1 $533 $678 #
point $-1 58.140083940438878 9.2734778225254892 8.2743352241393442 #
vertex $-1 $537 $679 #
point $-1 58.140083940438878 12.27799994216431 8.2743352241393442 #
edge $-1 $641 -16.03365259171283 $551 -9.0231009792222512 $550 $680 forward 7 unknown #
coedge $-1 $640 $544 $645 $681 reversed $541 $-1 #
coedge $-1 $544 $639 $546 $643 forward $541 $-1 #
vertex $-1 $545 $682 #
straight-curve $-1 16.298895436717899 28.562029377180369 68.31156490306762 -0.5877852410284794 0 0.80901700255871778 I I #
edge $-1 $647 -11.042322707300666 $547 -8.0067339505466268 $546 $683 forward 7 unknown #
point $-1 60.112918485061186 28.562029377180369 8.0067339505466268 #
coedge $-1 $550 $549 $639 $681 forward $389 $-1 #
point $-1 57.907434220319146 21.551477764689793 11.04232270730067 #
vertex $-1 $554 $684 #
straight-curve $-1 60.112918485061186 0 11.042322707300666 0 1 0 I I #
vertex $-1 $557 $685 #
point $-1 58.140083940438878 23.554492511115679 8.2743352241393442 #
vertex $-1 $561 $686 #
point $-1 58.140083940438878 26.559014630754501 8.2743352241393442 #
straight-curve $-1 -60.112918485061186 28.562029377180369 0 0 0 -1 I I #
point $-1 -60.112918485061186 -28.562029377180369 -11.042322707300666 #
straight-curve $-1 -60.112918485061186 0 -11.042322707300666 0 1 0 I I #
point $-1 -60.112918485061186 28.562029377180369 -11.042322707300666 #
straight-curve $-1 -60.112918485061186 0 -4.8096865007010727 0 -1 0 I I #
point $-1 -60.112918485061186 -28.562029377180369 -4.8096865007010727 #
point $-1 -60.112918485061186 28.562029377180369 -4.8096865007010727 #
straight-curve $-1 -60.112918485061186 28.562029377180369 0 0 0 -1 I I #
straight-curve $-1 -60.112918485061186 -28.562029377180369 0 0 0 -1 I I #
straight-curve $-1 60.112918485061186 -21.291566301080763 87.969226383781077 0 0 -1 I I #
point $-1 60.112918485061186 -21.291566301080763 11.042322707300666 #
straight-curve $-1 60.112918485061186 -8.8931452474177366 8.006733950546618 0 1 0 I I #
point $-1 60.112918485061186 -21.291566301080763 8.006733950546618 #
point $-1 57.441682818645283 -19.288551554654884 8.3849511049044647 #
point $-1 57.441682818645283 -16.284029435016066 8.3849511049044647 #
straight-curve $-1 60.112918485061186 -7.0105516124905751 87.969226383781077 0 0 -1 I I #
point $-1 60.112918485061186 -7.0105516124905751 11.042322707300666 #
straight-curve $-1 60.112918485061186 -1.7526379031226433 8.006733950546618 0 1 0 I I #
point $-1 60.112918485061186 -7.0105516124905751 8.006733950546618 #
point $-1 57.441682818645283 -5.0075368660646973 8.3849511049044647 #
point $-1 57.441682818645283 -2.0030147464258796 8.3849511049044647 #
straight-curve $-1 60.112918485061186 7.2704630760996114 87.969226383781077 0 0 -1 I I #
point $-1 60.112918485061186 7.2704630760996114 11.042322707300666 #
straight-curve $-1 60.112918485061186 5.3878694411724499 8.006733950546618 0 1 0 I I #
point $-1 60.112918485061186 7.2704630760996114 8.006733950546618 #
point $-1 57.441682818645283 9.2734778225254892 8.3849511049044647 #
point $-1 57.441682818645283 12.27799994216431 8.3849511049044647 #
straight-curve $-1 57.907434220319146 12.528376785467541 11.042322707300677 0 -1 0 I I #
edge $-1 $647 -60.112918485061186 $641 -57.907434220319146 $639 $687 forward 7 unknown #
point $-1 57.907434220319146 28.562029377180373 11.04232270730067 #
straight-curve $-1 60.112918485061186 28.562029377180369 0 0 0 -1 I I #
point $-1 60.112918485061186 28.562029377180369 11.042322707300666 #
point $-1 57.441682818645283 23.554492511115679 8.3849511049044647 #
point $-1 57.441682818645283 26.559014630754501 8.3849511049044647 #
straight-curve $-1 0 28.562029377180369 11.042322707300666 -1 0 0 I I #
End-of-ACIS-data 