500 0 10 0           
7 Unknown 11 ACIS 5.0 NT 24 Fri Mar 26 20:02:51 1999 
-1 9.9999999999999995e-007 1e-010 
body $-1 $10 $-1 $11 #
body $-1 $12 $-1 $13 #
body $-1 $14 $-1 $15 #
body $-1 $16 $-1 $17 #
body $-1 $18 $-1 $19 #
body $-1 $20 $-1 $21 #
body $-1 $22 $-1 $23 #
body $-1 $24 $-1 $25 #
body $-1 $26 $-1 $27 #
body $-1 $28 $-1 $29 #
lump $-1 $-1 $30 $0 #
transform $-1 1 0 0 0 1 0 0 0 1 49.565721610156558 34.34703170948017 8.2857614932937711 1 rotate no_reflect no_shear #
lump $-1 $-1 $31 $1 #
transform $-1 1 0 0 0 1 0 0 0 1 49.565721610156558 34.34703170948017 8.2857614932937711 1 rotate no_reflect no_shear #
lump $-1 $-1 $32 $2 #
transform $-1 1 0 0 0 1 0 0 0 1 49.565721610156558 34.34703170948017 8.2857614932937711 1 rotate no_reflect no_shear #
lump $-1 $-1 $33 $3 #
transform $-1 1 0 0 0 1 0 0 0 1 49.565721610156558 34.34703170948017 8.2857614932937711 1 rotate no_reflect no_shear #
lump $-1 $-1 $34 $4 #
transform $-1 1 0 0 0 1 0 0 0 1 49.565721610156558 34.34703170948017 8.2857614932937711 1 rotate no_reflect no_shear #
lump $-1 $-1 $35 $5 #
transform $-1 1 0 0 0 1 0 0 0 1 49.565721610156558 34.34703170948017 8.2857614932937711 1 rotate no_reflect no_shear #
lump $-1 $-1 $36 $6 #
transform $-1 1 0 0 0 1 0 0 0 1 49.565721610156558 34.34703170948017 8.2857614932937711 1 rotate no_reflect no_shear #
lump $-1 $-1 $37 $7 #
transform $-1 1 0 0 0 1 0 0 0 1 49.565721610156558 34.34703170948017 8.2857614932937711 1 rotate no_reflect no_shear #
lump $-1 $-1 $38 $8 #
transform $-1 1 0 0 0 1 0 0 0 1 49.565721610156558 34.34703170948017 8.2857614932937711 1 rotate no_reflect no_shear #
lump $-1 $-1 $39 $9 #
transform $-1 1 0 0 0 1 0 0 0 1 49.565721610156558 34.34703170948017 8.2857614932937711 1 rotate no_reflect no_shear #
shell $-1 $-1 $-1 $40 $-1 $10 #
shell $-1 $-1 $-1 $41 $-1 $12 #
shell $-1 $-1 $-1 $42 $-1 $14 #
shell $-1 $-1 $-1 $43 $-1 $16 #
shell $-1 $-1 $-1 $44 $-1 $18 #
shell $-1 $-1 $-1 $45 $-1 $20 #
shell $-1 $-1 $-1 $46 $-1 $22 #
shell $-1 $-1 $-1 $47 $-1 $24 #
shell $-1 $-1 $-1 $48 $-1 $26 #
shell $-1 $-1 $-1 $49 $-1 $28 #
face $-1 $50 $51 $30 $-1 $52 forward single #
face $-1 $53 $54 $31 $-1 $55 forward single #
face $-1 $56 $57 $32 $-1 $58 forward single #
face $-1 $59 $60 $33 $-1 $61 reversed single #
face $-1 $62 $63 $34 $-1 $64 forward single #
face $-1 $65 $66 $35 $-1 $67 forward single #
face $-1 $68 $69 $36 $-1 $70 forward single #
face $-1 $71 $72 $37 $-1 $73 reversed single #
face $-1 $74 $75 $38 $-1 $76 forward single #
face $-1 $77 $78 $39 $-1 $79 forward single #
face $-1 $80 $81 $30 $-1 $82 reversed single #
loop $-1 $-1 $83 $40 #
plane-surface $-1 0 0 8.2857614932937711 0 0 1 1 0 0 forward_v I I I I #
face $-1 $84 $85 $31 $-1 $86 reversed single #
loop $-1 $-1 $87 $41 #
plane-surface $-1 0 -34.34703170948017 0 0 1 0 0 0 1 forward_v I I I I #
face $-1 $88 $89 $32 $-1 $90 reversed single #
loop $-1 $-1 $91 $42 #
plane-surface $-1 0 34.34703170948017 0 0 -1 0 0 0 -1 forward_v I I I I #
face $-1 $92 $93 $33 $-1 $94 reversed single #
loop $-1 $-1 $95 $43 #
plane-surface $-1 -118.42820922781048 14.517370637181937 75.083767834564853 0 1 0 -0.69465837861970381 0 0.71933979245794832 forward_v I I I I #
face $-1 $96 $97 $34 $-1 $98 forward single #
loop $-1 $99 $100 $44 #
cone-surface $-1 -46.882657831113882 16.397466640987503 5.6704988716218816 0.69465837861970381 0 -0.71933979245794832 0.35966989622897416 0 0.3473291893098519 1 I I 0 1 0.5 forward I I I I #
face $-1 $101 $102 $35 $-1 $103 forward single #
loop $-1 $104 $105 $45 #
cone-surface $-1 -46.882657831113882 19.217610646695839 5.6704988716218816 0.69465837861970381 0 -0.71933979245794832 0.35966989622897416 0 0.3473291893098519 1 I I 0 1 0.5 forward I I I I #
face $-1 $106 $107 $36 $-1 $108 forward single #
loop $-1 $109 $110 $46 #
cone-surface $-1 -46.882657831113882 22.037754652404182 5.6704988716218816 0.69465837861970381 0 -0.71933979245794832 0.35966989622897416 0 0.3473291893098519 1 I I 0 1 0.5 forward I I I I #
face $-1 $111 $112 $37 $-1 $113 reversed single #
loop $-1 $-1 $114 $47 #
plane-surface $-1 78.713493837160158 -17.061805360255725 142.1142273198052 0 -1 0 -0.83867057594974714 0 -0.54463902268945019 forward_v I I I I #
face $-1 $115 $116 $38 $-1 $117 forward single #
loop $-1 $118 $119 $48 #
cone-surface $-1 48.074535517576841 -21.958980571651445 6.3629364283968854 -0.83867057594974714 0 -0.54463902268945019 0.2723195113447251 0 -0.41933528797487357 1 I I 0 1 0.5 forward I I I I #
face $-1 $120 $121 $39 $-1 $122 forward single #
loop $-1 $123 $124 $49 #
cone-surface $-1 48.074535517576841 -19.020675444814014 6.3629364283968854 -0.83867057594974714 0 -0.54463902268945019 0.2723195113447251 0 -0.41933528797487357 1 I I 0 1 0.5 forward I I I I #
face $-1 $125 $126 $30 $-1 $127 reversed single #
loop $-1 $-1 $128 $50 #
plane-surface $-1 0 0 -8.2857614932937711 0 0 1 1 0 0 forward_v I I I I #
coedge $-1 $129 $130 $131 $132 forward $51 $-1 #
face $-1 $133 $134 $31 $-1 $135 reversed single #
loop $-1 $-1 $136 $53 #
plane-surface $-1 0 0 -8.2857614932937711 0 0 1 1 0 0 forward_v I I I I #
coedge $-1 $137 $138 $139 $140 forward $54 $-1 #
face $-1 $141 $142 $32 $-1 $143 reversed single #
loop $-1 $-1 $144 $56 #
plane-surface $-1 0 0 -8.2857614932937711 0 0 1 1 0 0 forward_v I I I I #
coedge $-1 $145 $146 $147 $148 forward $57 $-1 #
face $-1 $149 $150 $33 $-1 $151 reversed single #
loop $-1 $-1 $152 $59 #
plane-surface $-1 -49.565721610156544 19.217610646695839 3.7745760424079293 -0.69465837861970381 0 0.71933979245794832 0.71933979245794832 0 0.69465837861970381 forward_v I I I I #
coedge $-1 $153 $154 $155 $156 reversed $60 $-1 #
face $-1 $-1 $157 $34 $-1 $158 forward single #
loop $-1 $159 $160 $62 #
cone-surface $-1 -46.361664047149105 16.397466640987503 5.1309940272784207 0.69465837861970381 0 -0.71933979245794832 0.17983494811448708 0 0.17366459465492595 1 I I -0.70710678118654746 0.70710678118654746 0.25 forward I I I I #
loop $-1 $-1 $161 $44 #
coedge $-1 $100 $100 $162 $163 reversed $63 $-1 #
face $-1 $-1 $164 $35 $-1 $165 forward single #
loop $-1 $166 $167 $65 #
cone-surface $-1 -46.361664047149105 19.217610646695839 5.1309940272784207 0.69465837861970381 0 -0.71933979245794832 0.17983494811448708 0 0.17366459465492595 1 I I -0.70710678118654746 0.70710678118654746 0.25 forward I I I I #
loop $-1 $-1 $168 $45 #
coedge $-1 $105 $105 $169 $170 reversed $66 $-1 #
face $-1 $-1 $171 $36 $-1 $172 forward single #
loop $-1 $173 $174 $68 #
cone-surface $-1 -46.361664047149105 22.037754652404182 5.1309940272784207 0.69465837861970381 0 -0.71933979245794832 0.17983494811448708 0 0.17366459465492595 1 I I -0.70710678118654746 0.70710678118654746 0.25 forward I I I I #
loop $-1 $-1 $175 $46 #
coedge $-1 $110 $110 $176 $177 reversed $69 $-1 #
face $-1 $178 $179 $37 $-1 $180 reversed single #
loop $-1 $-1 $181 $71 #
plane-surface $-1 -4.4251307431494951 -20.489828008232731 88.123374966499142 0.83867057594974714 0 0.54463902268945019 0.54463902268945019 0 -0.83867057594974714 forward_v I I I I #
coedge $-1 $182 $183 $184 $185 reversed $72 $-1 #
face $-1 $-1 $186 $38 $-1 $187 forward single #
loop $-1 $188 $189 $74 #
cone-surface $-1 47.445532585614529 -21.958980571651445 5.9544571613797981 -0.83867057594974714 0 -0.54463902268945019 0.13615975567236255 0 -0.20966764398743679 1 I I -0.70710678118654746 0.70710678118654746 0.25 forward I I I I #
loop $-1 $-1 $190 $48 #
coedge $-1 $119 $119 $191 $192 reversed $75 $-1 #
face $-1 $-1 $193 $39 $-1 $194 forward single #
loop $-1 $195 $196 $77 #
cone-surface $-1 47.445532585614529 -19.020675444814014 5.9544571613797981 -0.83867057594974714 0 -0.54463902268945019 0.13615975567236255 0 -0.20966764398743679 1 I I -0.70710678118654746 0.70710678118654746 0.25 forward I I I I #
loop $-1 $-1 $197 $49 #
coedge $-1 $124 $124 $198 $199 reversed $78 $-1 #
face $-1 $200 $201 $30 $-1 $202 reversed single #
loop $-1 $-1 $203 $80 #
plane-surface $-1 0 -34.34703170948017 0 0 1 0 0 0 1 forward_v I I I I #
coedge $-1 $204 $205 $206 $207 forward $81 $-1 #
coedge $-1 $208 $83 $209 $210 forward $51 $-1 #
coedge $-1 $83 $208 $211 $212 forward $51 $-1 #
coedge $-1 $213 $214 $83 $132 reversed $215 $-1 #
edge $-1 $216 -34.34703170948017 $217 34.34703170948017 $131 $218 forward 7 unknown #
face $-1 $219 $220 $31 $-1 $221 reversed single #
loop $-1 $-1 $222 $84 #
plane-surface $-1 -34.675803363293525 -44.77621276275061 0 0 1 0 0 0 1 forward_v I I I I #
coedge $-1 $223 $224 $138 $225 forward $85 $-1 #
coedge $-1 $226 $87 $227 $228 reversed $54 $-1 #
coedge $-1 $87 $226 $136 $225 reversed $54 $-1 #
coedge $-1 $229 $230 $87 $140 reversed $220 $-1 #
edge $-1 $231 -8.2857614932937711 $232 8.2857614932937711 $139 $233 forward 7 unknown #
face $-1 $234 $235 $32 $-1 $236 reversed single #
loop $-1 $-1 $237 $88 #
plane-surface $-1 -36.357408103018031 39.56162223611539 0 1 0 0 0 0 -1 forward_v I I I I #
coedge $-1 $238 $239 $146 $240 forward $89 $-1 #
coedge $-1 $241 $91 $242 $243 reversed $57 $-1 #
coedge $-1 $91 $241 $144 $240 reversed $57 $-1 #
coedge $-1 $244 $245 $91 $148 reversed $246 $-1 #
edge $-1 $247 -8.2857614932937711 $248 8.2857614932937711 $147 $249 forward 7 unknown #
face $-1 $250 $251 $33 $-1 $252 reversed single #
loop $-1 $-1 $253 $92 #
plane-surface $-1 -118.42820922781048 23.91785065620974 75.083767834564853 0 -1 0 0.69465837861970381 0 -0.71933979245794832 forward_v I I I I #
coedge $-1 $254 $255 $256 $257 reversed $93 $-1 #
coedge $-1 $154 $95 $258 $259 reversed $60 $-1 #
coedge $-1 $95 $153 $254 $260 reversed $60 $-1 #
coedge $-1 $256 $261 $95 $156 forward $262 $-1 #
edge $-1 $263 9.648383003748684 $264 14.319852183214365 $155 $265 forward 7 unknown #
loop $-1 $-1 $162 $96 #
plane-surface $-1 -49.565721610156544 19.217610646695839 3.7745760424079293 -0.69465837861970381 0 0.71933979245794832 0.71933979245794832 0 0.69465837861970381 forward_v I I I I #
loop $-1 $-1 $266 $62 #
coedge $-1 $160 $160 $161 $267 reversed $97 $-1 #
coedge $-1 $161 $161 $160 $267 forward $99 $-1 #
coedge $-1 $162 $162 $100 $163 forward $157 $-1 #
edge $-1 $268 0 $268 6.2831853071796004 $162 $269 forward 7 unknown #
loop $-1 $-1 $169 $101 #
plane-surface $-1 -49.565721610156544 19.217610646695839 3.7745760424079293 -0.69465837861970381 0 0.71933979245794832 0.71933979245794832 0 0.69465837861970381 forward_v I I I I #
loop $-1 $-1 $270 $65 #
coedge $-1 $167 $167 $168 $271 reversed $102 $-1 #
coedge $-1 $168 $168 $167 $271 forward $104 $-1 #
coedge $-1 $169 $169 $105 $170 forward $164 $-1 #
edge $-1 $272 0 $272 6.2831853071796004 $169 $273 forward 7 unknown #
loop $-1 $-1 $176 $106 #
plane-surface $-1 -49.565721610156544 19.217610646695839 3.7745760424079293 -0.69465837861970381 0 0.71933979245794832 0.71933979245794832 0 0.69465837861970381 forward_v I I I I #
loop $-1 $-1 $274 $68 #
coedge $-1 $174 $174 $175 $275 reversed $107 $-1 #
coedge $-1 $175 $175 $174 $275 forward $109 $-1 #
coedge $-1 $176 $176 $110 $177 forward $171 $-1 #
edge $-1 $276 0 $276 6.2831853071796004 $176 $277 forward 7 unknown #
face $-1 $278 $279 $37 $-1 $280 forward single #
loop $-1 $-1 $281 $111 #
plane-surface $-1 78.713493837160158 -23.917850656209737 142.1142273198052 0 1 0 0.83867057594974714 0 0.54463902268945019 forward_v I I I I #
coedge $-1 $282 $283 $284 $285 reversed $112 $-1 #
coedge $-1 $183 $114 $286 $287 reversed $72 $-1 #
coedge $-1 $114 $182 $282 $288 reversed $72 $-1 #
coedge $-1 $284 $289 $114 $185 forward $279 $-1 #
edge $-1 $290 -10.208974691576479 $291 -8.0652730823667795 $184 $292 forward 7 unknown #
loop $-1 $-1 $191 $115 #
plane-surface $-1 -4.4251307431494951 -20.489828008232731 88.123374966499142 0.83867057594974714 0 0.54463902268945019 0.54463902268945019 0 -0.83867057594974714 forward_v I I I I #
loop $-1 $-1 $293 $74 #
coedge $-1 $189 $189 $190 $294 reversed $116 $-1 #
coedge $-1 $190 $190 $189 $294 forward $118 $-1 #
coedge $-1 $191 $191 $119 $192 forward $186 $-1 #
edge $-1 $295 0 $295 6.2831853071796004 $191 $296 forward 7 unknown #
loop $-1 $-1 $198 $120 #
plane-surface $-1 -4.4251307431494951 -20.489828008232731 88.123374966499142 0.83867057594974714 0 0.54463902268945019 0.54463902268945019 0 -0.83867057594974714 forward_v I I I I #
loop $-1 $-1 $297 $77 #
coedge $-1 $196 $196 $197 $298 reversed $121 $-1 #
coedge $-1 $197 $197 $196 $298 forward $123 $-1 #
coedge $-1 $198 $198 $124 $199 forward $193 $-1 #
edge $-1 $299 0 $299 6.2831853071796004 $198 $300 forward 7 unknown #
face $-1 $301 $302 $30 $-1 $303 reversed single #
loop $-1 $-1 $304 $125 #
plane-surface $-1 -49.565721610156558 0 0 1 0 0 0 0 -1 forward_v I I I I #
coedge $-1 $305 $211 $306 $307 forward $126 $-1 #
coedge $-1 $308 $128 $305 $309 forward $81 $-1 #
coedge $-1 $128 $308 $310 $311 forward $81 $-1 #
coedge $-1 $214 $213 $128 $207 reversed $215 $-1 #
edge $-1 $312 -34.34703170948017 $313 34.34703170948017 $206 $314 forward 7 unknown #
coedge $-1 $130 $129 $315 $316 forward $51 $-1 #
coedge $-1 $317 $318 $129 $210 reversed $302 $-1 #
edge $-1 $217 -49.565721610156558 $319 49.565721610156558 $209 $320 forward 7 unknown #
coedge $-1 $203 $321 $130 $212 reversed $126 $-1 #
edge $-1 $322 -49.565721610156558 $216 49.565721610156558 $211 $323 forward 7 unknown #
coedge $-1 $206 $131 $321 $324 forward $215 $-1 #
coedge $-1 $131 $206 $317 $325 reversed $215 $-1 #
loop $-1 $-1 $213 $301 #
vertex $-1 $132 $326 #
vertex $-1 $132 $327 #
straight-curve $-1 49.565721610156558 0 8.2857614932937711 0 1 0 I I #
face $-1 $328 $329 $31 $-1 $330 reversed single #
loop $-1 $-1 $139 $133 #
plane-surface $-1 -36.357408103018031 -39.56162223611539 0 1 0 0 0 0 -1 forward_v I I I I #
coedge $-1 $331 $332 $333 $334 forward $134 $-1 #
coedge $-1 $335 $136 $336 $337 forward $85 $-1 #
coedge $-1 $136 $335 $229 $338 forward $85 $-1 #
edge $-1 $231 -36.357408103018031 $339 -32.994198623569019 $136 $340 forward 7 unknown #
coedge $-1 $138 $137 $341 $342 forward $54 $-1 #
coedge $-1 $343 $344 $137 $228 forward $345 $-1 #
edge $-1 $346 32.994198623569019 $232 36.357408103018031 $227 $347 forward 7 unknown #
coedge $-1 $333 $139 $224 $338 reversed $220 $-1 #
coedge $-1 $139 $333 $343 $348 reversed $220 $-1 #
vertex $-1 $225 $349 #
vertex $-1 $348 $350 #
straight-curve $-1 -36.357408103018031 -34.34703170948017 0 0 0 1 I I #
face $-1 $351 $246 $32 $-1 $352 reversed single #
loop $-1 $-1 $353 $141 #
plane-surface $-1 -34.675803363293525 44.77621276275061 0 0 -1 0 0 0 -1 forward_v I I I I #
coedge $-1 $354 $355 $356 $357 forward $142 $-1 #
coedge $-1 $358 $144 $354 $359 forward $89 $-1 #
coedge $-1 $144 $358 $244 $360 forward $89 $-1 #
edge $-1 $247 32.994198623569019 $361 36.357408103018031 $144 $362 forward 7 unknown #
coedge $-1 $146 $145 $363 $364 forward $57 $-1 #
coedge $-1 $365 $366 $145 $243 forward $367 $-1 #
edge $-1 $368 -36.357408103018031 $248 -32.994198623569019 $242 $369 forward 7 unknown #
coedge $-1 $370 $147 $239 $360 reversed $246 $-1 #
coedge $-1 $147 $370 $365 $371 reversed $246 $-1 #
loop $-1 $-1 $147 $234 #
vertex $-1 $240 $372 #
vertex $-1 $371 $373 #
straight-curve $-1 -32.994198623569019 34.34703170948017 0 0 0 1 I I #
face $-1 $-1 $262 $33 $-1 $374 forward single #
loop $-1 $-1 $375 $149 #
plane-surface $-1 -49.565721610156558 0 0 1 0 0 0 0 -1 forward_v I I I I #
coedge $-1 $376 $377 $378 $379 reversed $150 $-1 #
coedge $-1 $380 $152 $154 $260 forward $93 $-1 #
coedge $-1 $152 $380 $376 $381 forward $93 $-1 #
coedge $-1 $378 $155 $152 $257 forward $262 $-1 #
edge $-1 $264 4.9085653138340177 $382 14.309045332861821 $256 $383 forward 7 unknown #
coedge $-1 $384 $385 $153 $259 forward $251 $-1 #
edge $-1 $386 -33.767307874874511 $263 -29.256122423988657 $258 $387 forward 7 unknown #
edge $-1 $264 -6.4941064409956919 $386 1.9785632286268914e-014 $154 $388 forward 7 unknown #
coedge $-1 $155 $378 $384 $389 forward $262 $-1 #
loop $-1 $-1 $378 $250 #
vertex $-1 $259 $390 #
vertex $-1 $156 $391 #
straight-curve $-1 -59.214104613905242 14.517370637181937 8.2857614932937693 1 0 0 I I #
coedge $-1 $266 $266 $-1 $392 reversed $159 $-1 #
edge $-1 $393 0 $393 6.2831853071796004 $160 $394 forward 7 unknown #
vertex $-1 $163 $395 #
ellipse-curve $-1 -47.229987020423721 16.397466640987503 6.0301687678508413 -0.69465837861970381 0 0.71933979245794832 0.35966989622897416 0 0.3473291893098519 1 I I #
coedge $-1 $270 $270 $-1 $396 reversed $166 $-1 #
edge $-1 $397 0 $397 6.2831853071796004 $167 $398 forward 7 unknown #
vertex $-1 $170 $399 #
ellipse-curve $-1 -47.229987020423721 19.217610646695839 6.0301687678508413 -0.69465837861970381 0 0.71933979245794832 0.35966989622897416 0 0.3473291893098519 1 I I #
coedge $-1 $274 $274 $-1 $400 reversed $173 $-1 #
edge $-1 $401 0 $401 6.2831853071796004 $174 $402 forward 7 unknown #
vertex $-1 $177 $403 #
ellipse-curve $-1 -47.229987020423721 22.037754652404182 6.0301687678508413 -0.69465837861970381 0 0.71933979245794832 0.35966989622897416 0 0.3473291893098519 1 I I #
face $-1 $-1 $404 $37 $-1 $405 reversed single #
loop $-1 $-1 $184 $178 #
plane-surface $-1 0 0 8.2857614932937711 0 0 1 1 0 0 forward_v I I I I #
coedge $-1 $406 $407 $408 $409 reversed $179 $-1 #
coedge $-1 $410 $181 $183 $288 forward $112 $-1 #
coedge $-1 $181 $410 $406 $411 forward $112 $-1 #
coedge $-1 $408 $184 $181 $285 forward $279 $-1 #
edge $-1 $291 6.8168913561393598 $412 13.672936652093371 $284 $413 forward 7 unknown #
coedge $-1 $414 $415 $182 $287 forward $404 $-1 #
edge $-1 $416 -66.072363273713108 $290 -62.771352166608828 $286 $417 forward 7 unknown #
edge $-1 $291 95.195438784523674 $416 99.131443220313116 $183 $418 forward 7 unknown #
coedge $-1 $184 $408 $414 $419 forward $279 $-1 #
vertex $-1 $185 $420 #
vertex $-1 $185 $421 #
straight-curve $-1 39.356746918580079 -17.061805360255725 8.2857614932937764 -1 0 0 I I #
coedge $-1 $293 $293 $-1 $422 reversed $188 $-1 #
edge $-1 $423 0 $423 6.2831853071796004 $189 $424 forward 7 unknown #
vertex $-1 $192 $425 #
ellipse-curve $-1 48.493870805551722 -21.958980571651445 6.6352559397416142 0.83867057594974714 0 0.54463902268945019 0.2723195113447251 0 -0.41933528797487357 1 I I #
coedge $-1 $297 $297 $-1 $426 reversed $195 $-1 #
edge $-1 $427 0 $427 6.2831853071796004 $196 $428 forward 7 unknown #
vertex $-1 $199 $429 #
ellipse-curve $-1 48.493870805551722 -19.020675444814014 6.6352559397416142 0.83867057594974714 0 0.54463902268945019 0.2723195113447251 0 -0.41933528797487357 1 I I #
face $-1 $-1 $215 $30 $-1 $430 reversed single #
loop $-1 $-1 $317 $200 #
plane-surface $-1 0 34.34703170948017 0 0 -1 0 0 0 -1 forward_v I I I I #
coedge $-1 $431 $315 $318 $432 forward $201 $-1 #
coedge $-1 $321 $203 $204 $309 reversed $126 $-1 #
coedge $-1 $315 $431 $203 $307 reversed $201 $-1 #
edge $-1 $322 -8.2857614932937711 $433 8.2857614932937711 $306 $434 forward 7 unknown #
coedge $-1 $205 $204 $431 $435 forward $81 $-1 #
edge $-1 $313 -49.565721610156558 $433 49.565721610156558 $305 $436 forward 7 unknown #
coedge $-1 $318 $317 $205 $311 reversed $302 $-1 #
edge $-1 $437 -49.565721610156558 $312 49.565721610156558 $310 $438 forward 7 unknown #
vertex $-1 $207 $439 #
vertex $-1 $324 $440 #
straight-curve $-1 49.565721610156558 0 -8.2857614932937711 0 -1 0 I I #
coedge $-1 $304 $306 $208 $316 reversed $201 $-1 #
edge $-1 $319 -34.34703170948017 $322 34.34703170948017 $315 $441 forward 7 unknown #
coedge $-1 $310 $209 $214 $325 forward $302 $-1 #
coedge $-1 $209 $310 $304 $432 reversed $302 $-1 #
vertex $-1 $210 $442 #
straight-curve $-1 0 34.34703170948017 8.2857614932937711 -1 0 0 I I #
coedge $-1 $211 $305 $213 $324 reversed $126 $-1 #
vertex $-1 $316 $443 #
straight-curve $-1 0 -34.34703170948017 8.2857614932937711 1 0 0 I I #
edge $-1 $216 -8.2857614932937711 $313 8.2857614932937711 $213 $444 forward 7 unknown #
edge $-1 $217 -8.2857614932937711 $312 8.2857614932937711 $214 $445 forward 7 unknown #
point $-1 49.565721610156558 -34.34703170948017 8.2857614932937711 #
point $-1 49.565721610156558 34.34703170948017 8.2857614932937711 #
face $-1 $-1 $345 $31 $-1 $446 forward single #
loop $-1 $-1 $447 $219 #
plane-surface $-1 -32.994198623569019 -39.56162223611539 0 -1 0 0 0 0 1 forward_v I I I I #
coedge $-1 $448 $222 $335 $449 reversed $134 $-1 #
coedge $-1 $222 $448 $450 $451 reversed $134 $-1 #
coedge $-1 $230 $229 $222 $334 reversed $220 $-1 #
edge $-1 $452 -8.2857614932937711 $453 8.2857614932937711 $333 $454 forward 7 unknown #
coedge $-1 $224 $223 $331 $449 forward $85 $-1 #
coedge $-1 $341 $447 $223 $337 reversed $329 $-1 #
edge $-1 $339 -5.2145905266352202 $455 5.2145905266352202 $336 $456 forward 7 unknown #
edge $-1 $453 -5.2145905266352202 $231 5.2145905266352202 $229 $457 forward 7 unknown #
vertex $-1 $337 $458 #
straight-curve $-1 0 -34.34703170948017 -8.2857614932937711 1 0 0 I I #
coedge $-1 $459 $336 $226 $342 reversed $329 $-1 #
edge $-1 $346 -8.2857614932937711 $339 8.2857614932937711 $341 $460 forward 7 unknown #
coedge $-1 $450 $227 $230 $348 forward $345 $-1 #
coedge $-1 $227 $450 $459 $461 forward $345 $-1 #
loop $-1 $-1 $227 $328 #
vertex $-1 $228 $462 #
straight-curve $-1 0 -34.34703170948017 8.2857614932937711 -1 0 0 I I #
edge $-1 $232 -5.2145905266352202 $452 5.2145905266352202 $230 $463 forward 7 unknown #
point $-1 -36.357408103018031 -34.34703170948017 -8.2857614932937711 #
point $-1 -36.357408103018031 -34.34703170948017 8.2857614932937711 #
face $-1 $-1 $367 $32 $-1 $464 forward single #
plane-surface $-1 -32.994198623569019 39.56162223611539 0 -1 0 0 0 0 1 forward_v I I I I #
coedge $-1 $465 $466 $370 $467 forward $235 $-1 #
coedge $-1 $363 $237 $238 $359 reversed $142 $-1 #
coedge $-1 $237 $363 $366 $468 reversed $142 $-1 #
coedge $-1 $466 $465 $237 $357 reversed $235 $-1 #
edge $-1 $469 -8.2857614932937711 $470 8.2857614932937711 $356 $471 forward 7 unknown #
coedge $-1 $239 $238 $465 $472 forward $89 $-1 #
edge $-1 $361 -5.2145905266352202 $470 5.2145905266352202 $354 $473 forward 7 unknown #
edge $-1 $474 -5.2145905266352202 $247 5.2145905266352202 $244 $475 forward 7 unknown #
vertex $-1 $359 $476 #
straight-curve $-1 0 34.34703170948017 -8.2857614932937711 -1 0 0 I I #
coedge $-1 $355 $354 $241 $364 reversed $142 $-1 #
edge $-1 $368 -8.2857614932937711 $361 8.2857614932937711 $363 $477 forward 7 unknown #
coedge $-1 $478 $242 $245 $371 forward $367 $-1 #
coedge $-1 $242 $478 $355 $468 forward $367 $-1 #
loop $-1 $-1 $242 $351 #
vertex $-1 $243 $479 #
straight-curve $-1 0 34.34703170948017 8.2857614932937711 1 0 0 I I #
coedge $-1 $245 $244 $353 $467 reversed $246 $-1 #
edge $-1 $248 -5.2145905266352202 $480 5.2145905266352202 $245 $481 forward 7 unknown #
point $-1 -32.994198623569019 34.34703170948017 -8.2857614932937711 #
point $-1 -32.994198623569019 34.34703170948017 8.2857614932937711 #
plane-surface $-1 0 0 8.2857614932937711 0 0 1 1 0 0 forward_v I I I I #
coedge $-1 $385 $384 $377 $482 forward $251 $-1 #
coedge $-1 $377 $253 $255 $381 reversed $150 $-1 #
coedge $-1 $253 $376 $375 $482 reversed $150 $-1 #
coedge $-1 $261 $256 $253 $379 forward $262 $-1 #
edge $-1 $382 -14.319852183214365 $483 -9.648383003748684 $378 $484 forward 7 unknown #
coedge $-1 $255 $254 $385 $485 reversed $93 $-1 #
edge $-1 $486 -1.9785632286268914e-014 $382 6.4941064409956919 $376 $487 forward 7 unknown #
vertex $-1 $257 $488 #
straight-curve $-1 -44.894252430690877 9.6088053233479194 8.2857614932937711 0 1 0 I I #
coedge $-1 $375 $258 $261 $389 reversed $251 $-1 #
coedge $-1 $258 $375 $380 $485 forward $251 $-1 #
vertex $-1 $259 $489 #
straight-curve $-1 -49.565721610156558 14.517370637181937 37.541883917282426 0 0 1 I I #
straight-curve $-1 -49.565721610156544 14.517370637181937 3.7745760424079293 -0.71933979245794832 0 -0.69465837861970381 I I #
edge $-1 $483 -23.91785065620974 $263 -14.517370637181937 $384 $490 forward 7 unknown #
point $-1 -49.565721610156558 14.517370637181937 8.2857614932937711 #
point $-1 -44.894252430690877 14.517370637181937 8.2857614932937711 #
edge $-1 $491 1 $491 0 $266 $-1 forward 7 unknown #
vertex $-1 $267 $492 #
ellipse-curve $-1 -46.535328641804028 16.397466640987503 5.3108289753929077 -0.69465837861970381 0 0.71933979245794832 0.35966989622897416 0 0.3473291893098519 1 I I #
point $-1 -46.870317124194763 16.397466640987503 6.377497957160708 #
edge $-1 $493 1 $493 0 $270 $-1 forward 7 unknown #
vertex $-1 $271 $494 #
ellipse-curve $-1 -46.535328641804028 19.217610646695839 5.3108289753929077 -0.69465837861970381 0 0.71933979245794832 0.35966989622897416 0 0.3473291893098519 1 I I #
point $-1 -46.870317124194763 19.217610646695839 6.377497957160708 #
edge $-1 $495 1 $495 0 $274 $-1 forward 7 unknown #
vertex $-1 $275 $496 #
ellipse-curve $-1 -46.535328641804028 22.037754652404182 5.3108289753929077 -0.69465837861970381 0 0.71933979245794832 0.35966989622897416 0 0.3473291893098519 1 I I #
point $-1 -46.870317124194763 22.037754652404182 6.377497957160708 #
loop $-1 $-1 $286 $278 #
plane-surface $-1 49.565721610156558 0 0 -1 0 0 0 0 1 forward_v I I I I #
coedge $-1 $407 $281 $283 $411 reversed $179 $-1 #
coedge $-1 $281 $406 $497 $498 reversed $179 $-1 #
coedge $-1 $289 $284 $281 $409 forward $279 $-1 #
edge $-1 $412 8.0652730823667795 $499 10.208974691576479 $408 $500 forward 7 unknown #
coedge $-1 $283 $282 $415 $501 reversed $112 $-1 #
edge $-1 $502 -99.131443220313116 $412 -95.195438784523674 $406 $503 forward 7 unknown #
vertex $-1 $285 $504 #
straight-curve $-1 47.422020000946873 -10.244914004116366 8.2857614932937693 0 -1 0 I I #
coedge $-1 $497 $286 $289 $419 reversed $404 $-1 #
coedge $-1 $286 $497 $410 $501 forward $404 $-1 #
vertex $-1 $287 $505 #
straight-curve $-1 49.565721610156558 -17.061805360255725 71.057113659902598 0 0 1 I I #
straight-curve $-1 -4.4251307431494951 -17.061805360255725 88.123374966499142 0.54463902268945019 0 -0.83867057594974714 I I #
edge $-1 $499 -23.917850656209737 $290 -17.061805360255725 $414 $506 forward 7 unknown #
point $-1 49.565721610156558 -17.061805360255725 8.2857614932937711 #
point $-1 47.422020000946858 -17.061805360255725 8.2857614932937764 #
edge $-1 $507 1 $507 0 $293 $-1 forward 7 unknown #
vertex $-1 $294 $508 #
ellipse-curve $-1 47.655200229601967 -21.958980571651445 6.0906169170521602 0.83867057594974714 0 0.54463902268945019 0.2723195113447251 0 -0.41933528797487357 1 I I #
point $-1 48.766190316896441 -21.958980571651445 6.2159206517667371 #
edge $-1 $509 1 $509 0 $297 $-1 forward 7 unknown #
vertex $-1 $298 $510 #
ellipse-curve $-1 47.655200229601967 -19.020675444814014 6.0906169170521602 0.83867057594974714 0 0.54463902268945019 0.2723195113447251 0 -0.41933528797487357 1 I I #
point $-1 48.766190316896441 -19.020675444814014 6.2159206517667371 #
plane-surface $-1 49.565721610156558 0 0 -1 0 0 0 0 1 forward_v I I I I #
coedge $-1 $306 $304 $308 $435 reversed $201 $-1 #
edge $-1 $319 -8.2857614932937711 $437 8.2857614932937711 $318 $511 forward 7 unknown #
vertex $-1 $435 $512 #
straight-curve $-1 -49.565721610156558 -34.34703170948017 0 0 0 -1 I I #
edge $-1 $433 -34.34703170948017 $437 34.34703170948017 $431 $513 forward 7 unknown #
straight-curve $-1 0 -34.34703170948017 -8.2857614932937711 -1 0 0 I I #
vertex $-1 $311 $514 #
straight-curve $-1 0 34.34703170948017 -8.2857614932937711 1 0 0 I I #
point $-1 49.565721610156558 34.34703170948017 -8.2857614932937711 #
point $-1 49.565721610156558 -34.34703170948017 -8.2857614932937711 #
straight-curve $-1 -49.565721610156558 0 8.2857614932937711 0 -1 0 I I #
point $-1 -49.565721610156558 34.34703170948017 8.2857614932937711 #
point $-1 -49.565721610156558 -34.34703170948017 8.2857614932937711 #
straight-curve $-1 49.565721610156558 -34.34703170948017 0 0 0 -1 I I #
straight-curve $-1 49.565721610156558 34.34703170948017 0 0 0 -1 I I #
plane-surface $-1 0 0 8.2857614932937711 0 0 1 1 0 0 forward_v I I I I #
coedge $-1 $336 $459 $448 $515 forward $329 $-1 #
coedge $-1 $332 $331 $447 $515 reversed $134 $-1 #
edge $-1 $455 -1.6816047397245057 $453 1.6816047397245057 $331 $516 forward 7 unknown #
coedge $-1 $344 $343 $332 $451 forward $345 $-1 #
edge $-1 $452 -1.6816047397245057 $517 1.6816047397245057 $332 $518 forward 7 unknown #
vertex $-1 $348 $519 #
vertex $-1 $338 $520 #
straight-curve $-1 -36.357408103018031 -44.77621276275061 0 0 0 -1 I I #
vertex $-1 $515 $521 #
straight-curve $-1 -32.994198623569019 -39.56162223611539 -8.2857614932937711 0 -1 0 I I #
straight-curve $-1 -36.357408103018031 -39.56162223611539 -8.2857614932937711 0 1 0 I I #
point $-1 -32.994198623569019 -34.34703170948017 -8.2857614932937711 #
coedge $-1 $447 $341 $344 $461 reversed $329 $-1 #
straight-curve $-1 -32.994198623569019 -34.34703170948017 0 0 0 -1 I I #
edge $-1 $517 -5.2145905266352202 $346 5.2145905266352202 $459 $522 forward 7 unknown #
point $-1 -32.994198623569019 -34.34703170948017 8.2857614932937711 #
straight-curve $-1 -36.357408103018031 -39.56162223611539 8.2857614932937711 0 -1 0 I I #
plane-surface $-1 0 0 8.2857614932937711 0 0 1 1 0 0 forward_v I I I I #
coedge $-1 $356 $353 $358 $472 reversed $235 $-1 #
coedge $-1 $353 $356 $478 $523 reversed $235 $-1 #
edge $-1 $480 -8.2857614932937711 $474 8.2857614932937711 $370 $524 forward 7 unknown #
edge $-1 $469 -5.2145905266352202 $368 5.2145905266352202 $355 $525 forward 7 unknown #
vertex $-1 $523 $526 #
vertex $-1 $472 $527 #
straight-curve $-1 -36.357408103018031 44.77621276275061 0 0 0 -1 I I #
edge $-1 $470 -1.6816047397245057 $474 1.6816047397245057 $465 $528 forward 7 unknown #
straight-curve $-1 -36.357408103018031 39.56162223611539 -8.2857614932937711 0 1 0 I I #
vertex $-1 $360 $529 #
straight-curve $-1 -32.994198623569019 39.56162223611539 -8.2857614932937711 0 -1 0 I I #
point $-1 -36.357408103018031 34.34703170948017 -8.2857614932937711 #
straight-curve $-1 -36.357408103018031 34.34703170948017 0 0 0 -1 I I #
coedge $-1 $366 $365 $466 $523 forward $367 $-1 #
point $-1 -36.357408103018031 34.34703170948017 8.2857614932937711 #
vertex $-1 $371 $530 #
straight-curve $-1 -32.994198623569019 39.56162223611539 8.2857614932937711 0 1 0 I I #
edge $-1 $483 29.256122423988657 $486 33.767307874874511 $375 $531 forward 7 unknown #
vertex $-1 $389 $532 #
straight-curve $-1 -59.214104613905242 23.91785065620974 8.2857614932937693 -1 0 0 I I #
edge $-1 $486 -14.309045332861821 $386 -4.9085653138340177 $385 $533 forward 7 unknown #
vertex $-1 $485 $534 #
straight-curve $-1 -49.565721610156544 23.91785065620974 3.7745760424079293 0.71933979245794832 0 0.69465837861970381 I I #
point $-1 -44.894252430690877 23.91785065620974 8.2857614932937711 #
point $-1 -49.565721610156558 14.517370637181937 3.7745760424079156 #
straight-curve $-1 -49.565721610156558 0 8.2857614932937711 0 -1 0 I I #
vertex $-1 $392 $535 #
point $-1 -46.175658745575056 16.397466640987503 5.6581581647027601 #
vertex $-1 $396 $536 #
point $-1 -46.175658745575056 19.217610646695839 5.6581581647027601 #
vertex $-1 $400 $537 #
point $-1 -46.175658745575056 22.037754652404182 5.6581581647027601 #
coedge $-1 $415 $414 $407 $498 forward $404 $-1 #
edge $-1 $499 62.771352166608828 $502 66.072363273713108 $497 $538 forward 7 unknown #
vertex $-1 $419 $539 #
straight-curve $-1 39.356746918580079 -23.917850656209737 8.2857614932937764 1 0 0 I I #
edge $-1 $502 -13.672936652093371 $416 -6.8168913561393598 $415 $540 forward 7 unknown #
vertex $-1 $501 $541 #
straight-curve $-1 -4.4251307431494951 -23.917850656209737 88.123374966499142 -0.54463902268945019 0 0.83867057594974714 I I #
point $-1 47.422020000946858 -23.917850656209737 8.2857614932937764 #
point $-1 49.565721610156558 -17.061805360255725 4.9847503861894893 #
straight-curve $-1 49.565721610156558 0 8.2857614932937711 0 1 0 I I #
vertex $-1 $422 $542 #
point $-1 47.927519740946693 -21.958980571651445 5.6712816290772867 #
vertex $-1 $426 $543 #
point $-1 47.927519740946693 -19.020675444814014 5.6712816290772867 #
straight-curve $-1 -49.565721610156558 34.34703170948017 0 0 0 -1 I I #
point $-1 -49.565721610156558 -34.34703170948017 -8.2857614932937711 #
straight-curve $-1 -49.565721610156558 0 -8.2857614932937711 0 1 0 I I #
point $-1 -49.565721610156558 34.34703170948017 -8.2857614932937711 #
edge $-1 $517 -8.2857614932937711 $455 8.2857614932937711 $447 $544 forward 7 unknown #
straight-curve $-1 -34.675803363293525 -44.77621276275061 -8.2857614932937711 -1 0 0 I I #
vertex $-1 $461 $545 #
straight-curve $-1 -34.675803363293525 -44.77621276275061 8.2857614932937711 1 0 0 I I #
point $-1 -36.357408103018031 -44.77621276275061 8.2857614932937711 #
point $-1 -36.357408103018031 -44.77621276275061 -8.2857614932937711 #
point $-1 -32.994198623569019 -44.77621276275061 -8.2857614932937711 #
straight-curve $-1 -32.994198623569019 -39.56162223611539 8.2857614932937711 0 1 0 I I #
edge $-1 $480 -1.6816047397245057 $469 1.6816047397245057 $466 $546 forward 7 unknown #
straight-curve $-1 -32.994198623569019 44.77621276275061 0 0 0 -1 I I #
straight-curve $-1 -36.357408103018031 39.56162223611539 8.2857614932937711 0 -1 0 I I #
point $-1 -36.357408103018031 44.77621276275061 8.2857614932937711 #
point $-1 -36.357408103018031 44.77621276275061 -8.2857614932937711 #
straight-curve $-1 -34.675803363293525 44.77621276275061 -8.2857614932937711 1 0 0 I I #
point $-1 -32.994198623569019 44.77621276275061 -8.2857614932937711 #
point $-1 -32.994198623569019 44.77621276275061 8.2857614932937711 #
straight-curve $-1 -49.565721610156558 23.91785065620974 37.541883917282426 0 0 -1 I I #
point $-1 -49.565721610156558 23.91785065620974 8.2857614932937711 #
straight-curve $-1 -49.565721610156558 9.6088053233479194 3.7745760424079191 0 -1 0 I I #
point $-1 -49.565721610156558 23.91785065620974 3.7745760424079156 #
point $-1 -46.187999452494182 16.397466640987503 4.9511590791639337 #
point $-1 -46.187999452494182 19.217610646695839 4.9511590791639337 #
point $-1 -46.187999452494182 22.037754652404182 4.9511590791639337 #
straight-curve $-1 49.565721610156558 -23.917850656209737 71.057113659902598 0 0 -1 I I #
point $-1 49.565721610156558 -23.917850656209737 8.2857614932937711 #
straight-curve $-1 49.565721610156558 -10.244914004116366 4.9847503861894893 0 1 0 I I #
point $-1 49.565721610156558 -23.917850656209737 4.9847503861894893 #
point $-1 47.235864941627092 -21.958980571651445 5.8182974057074359 #
point $-1 47.235864941627092 -19.020675444814014 5.8182974057074359 #
straight-curve $-1 -32.994198623569019 -44.77621276275061 0 0 0 -1 I I #
point $-1 -32.994198623569019 -44.77621276275061 8.2857614932937711 #
straight-curve $-1 -34.675803363293525 44.77621276275061 8.2857614932937711 -1 0 0 I I #
End-of-ACIS-data 