500 0 8 0           
7 Unknown 11 ACIS 5.0 NT 24 Thu Mar 25 22:01:38 1999 
-1 9.9999999999999995e-007 1e-010 
body $-1 $8 $-1 $9 #
body $-1 $10 $-1 $11 #
body $-1 $12 $-1 $13 #
body $-1 $14 $-1 $15 #
body $-1 $16 $-1 $17 #
body $-1 $18 $-1 $19 #
body $-1 $20 $-1 $21 #
body $-1 $22 $-1 $23 #
lump $-1 $-1 $24 $0 #
transform $-1 1 0 0 0 1 0 0 0 1 78.812219611194195 41.790656285974855 10.52641931383079 1 rotate no_reflect no_shear #
lump $-1 $-1 $25 $1 #
transform $-1 1 0 0 0 1 0 0 0 1 78.812219611194195 41.790656285974855 10.52641931383079 1 rotate no_reflect no_shear #
lump $-1 $-1 $26 $2 #
transform $-1 1 0 0 0 1 0 0 0 1 78.812219611194195 41.790656285974855 10.52641931383079 1 rotate no_reflect no_shear #
lump $-1 $-1 $27 $3 #
transform $-1 1 0 0 0 1 0 0 0 1 78.812219611194195 41.790656285974855 10.52641931383079 1 rotate no_reflect no_shear #
lump $-1 $-1 $28 $4 #
transform $-1 1 0 0 0 1 0 0 0 1 78.812219611194195 41.790656285974855 10.52641931383079 1 rotate no_reflect no_shear #
lump $-1 $-1 $29 $5 #
transform $-1 1 0 0 0 1 0 0 0 1 78.812219611194195 41.790656285974855 10.52641931383079 1 rotate no_reflect no_shear #
lump $-1 $-1 $30 $6 #
transform $-1 1 0 0 0 1 0 0 0 1 78.812219611194195 41.790656285974855 10.52641931383079 1 rotate no_reflect no_shear #
lump $-1 $-1 $31 $7 #
transform $-1 1 0 0 0 1 0 0 0 1 78.812219611194195 41.790656285974855 10.52641931383079 1 rotate no_reflect no_shear #
shell $-1 $-1 $-1 $32 $-1 $8 #
shell $-1 $-1 $-1 $33 $-1 $10 #
shell $-1 $-1 $-1 $34 $-1 $12 #
shell $-1 $-1 $-1 $35 $-1 $14 #
shell $-1 $-1 $-1 $36 $-1 $16 #
shell $-1 $-1 $-1 $37 $-1 $18 #
shell $-1 $-1 $-1 $38 $-1 $20 #
shell $-1 $-1 $-1 $39 $-1 $22 #
face $-1 $40 $41 $24 $-1 $42 forward single #
face $-1 $43 $44 $25 $-1 $45 forward single #
face $-1 $46 $47 $26 $-1 $48 reversed single #
face $-1 $49 $50 $27 $-1 $51 forward single #
face $-1 $52 $53 $28 $-1 $54 reversed single #
face $-1 $55 $56 $29 $-1 $57 forward single #
face $-1 $58 $59 $30 $-1 $60 forward single #
face $-1 $61 $62 $31 $-1 $63 forward single #
face $-1 $64 $65 $24 $-1 $66 reversed single #
loop $-1 $-1 $67 $32 #
plane-surface $-1 0 0 10.52641931383079 0 0 1 1 0 0 forward_v I I I I #
face $-1 $68 $69 $25 $-1 $70 reversed single #
loop $-1 $-1 $71 $33 #
plane-surface $-1 0 -36.160003373742633 1.2017409124606582 0 0 1 1 0 0 forward_v I I I I #
face $-1 $72 $73 $26 $-1 $74 reversed single #
loop $-1 $-1 $75 $34 #
plane-surface $-1 90.478672149259211 15.686938738816725 225.52142698847723 0 1 0 0.74314483375859142 0 0.66913059716165679 forward_v I I I I #
face $-1 $76 $77 $27 $-1 $78 forward single #
loop $-1 $79 $80 $35 #
cone-surface $-1 73.991060668193725 26.303194375760647 5.4648567356805149 -0.74314483375859142 0 -0.66913059716165679 1.0036958957424851 0 -1.1147172506378871 1 I I 0 1 1.5 forward I I I I #
face $-1 $81 $82 $28 $-1 $83 reversed single #
loop $-1 $-1 $84 $36 #
plane-surface $-1 -206.33307096088964 -28.315013678655902 97.694342158029485 0 1 0 -0.80901700255871778 0 0.5877852410284794 forward_v I I I I #
face $-1 $85 $86 $29 $-1 $87 forward single #
loop $-1 $88 $89 $37 #
cone-surface $-1 -75.559376694045525 -25.978711303019345 6.8691084776318645 0.80901700255871778 0 -0.5877852410284794 0.5877852410284794 0 0.80901700255871778 1 I I 0 1 1 forward I I I I #
face $-1 $90 $91 $30 $-1 $92 forward single #
loop $-1 $93 $94 $38 #
cone-surface $-1 -75.559376694045525 -22.474257739564511 6.8691084776318645 0.80901700255871778 0 -0.5877852410284794 0.5877852410284794 0 0.80901700255871778 1 I I 0 1 1 forward I I I I #
face $-1 $95 $96 $31 $-1 $97 forward single #
loop $-1 $98 $99 $39 #
cone-surface $-1 -75.559376694045525 -18.969804176109676 6.8691084776318645 0.80901700255871778 0 -0.5877852410284794 0.5877852410284794 0 0.80901700255871778 1 I I 0 1 1 forward I I I I #
face $-1 $100 $101 $24 $-1 $102 reversed single #
loop $-1 $-1 $103 $40 #
plane-surface $-1 0 0 -10.52641931383079 0 0 1 1 0 0 forward_v I I I I #
coedge $-1 $104 $105 $106 $107 forward $41 $-1 #
face $-1 $108 $109 $25 $-1 $110 reversed single #
loop $-1 $-1 $111 $43 #
plane-surface $-1 0 -36.160003373742633 -2.002991098126615 0 0 1 1 0 0 forward_v I I I I #
coedge $-1 $112 $113 $114 $115 reversed $44 $-1 #
face $-1 $116 $117 $26 $-1 $118 reversed single #
loop $-1 $-1 $119 $46 #
plane-surface $-1 -26.659115532953805 26.303194375760647 120.05009184432922 0.74314483375859142 0 0.66913059716165679 0.66913059716165679 0 -0.74314483375859142 forward_v I I I I #
coedge $-1 $120 $121 $122 $123 reversed $47 $-1 #
face $-1 $-1 $124 $27 $-1 $125 forward single #
loop $-1 $126 $127 $49 #
cone-surface $-1 72.040433052736091 26.303194375760647 3.7085037855163101 -0.74314483375859142 0 -0.66913059716165679 0.50184794787124254 0 -0.55735862531894353 1 I I -0.70710678118654757 0.70710678118654757 0.75 forward I I I I #
loop $-1 $-1 $128 $35 #
coedge $-1 $80 $80 $129 $130 reversed $50 $-1 #
face $-1 $131 $132 $28 $-1 $133 reversed single #
loop $-1 $-1 $134 $52 #
plane-surface $-1 -78.812219611194195 -22.474257739564511 5.0450231577190294 -0.80901700255871778 0 0.5877852410284794 0.5877852410284794 0 0.80901700255871778 forward_v I I I I #
coedge $-1 $135 $136 $137 $138 reversed $53 $-1 #
face $-1 $-1 $139 $29 $-1 $140 forward single #
loop $-1 $141 $142 $55 #
cone-surface $-1 -73.893258927446013 -25.978711303019345 5.6586030989745773 0.80901700255871778 0 -0.5877852410284794 0.2938926205142397 0 0.40450850127935889 1 I I -0.70710678118654746 0.70710678118654746 0.5 forward I I I I #
loop $-1 $-1 $143 $37 #
coedge $-1 $89 $89 $144 $145 reversed $56 $-1 #
face $-1 $-1 $146 $30 $-1 $147 forward single #
loop $-1 $148 $149 $58 #
cone-surface $-1 -73.893258927446013 -22.474257739564511 5.6586030989745773 0.80901700255871778 0 -0.5877852410284794 0.2938926205142397 0 0.40450850127935889 1 I I -0.70710678118654746 0.70710678118654746 0.5 forward I I I I #
loop $-1 $-1 $150 $38 #
coedge $-1 $94 $94 $151 $152 reversed $59 $-1 #
face $-1 $-1 $153 $31 $-1 $154 forward single #
loop $-1 $155 $156 $61 #
cone-surface $-1 -73.893258927446013 -18.969804176109676 5.6586030989745773 0.80901700255871778 0 -0.5877852410284794 0.2938926205142397 0 0.40450850127935889 1 I I -0.70710678118654746 0.70710678118654746 0.5 forward I I I I #
loop $-1 $-1 $157 $39 #
coedge $-1 $99 $99 $158 $159 reversed $62 $-1 #
face $-1 $160 $161 $24 $-1 $162 reversed single #
loop $-1 $-1 $163 $64 #
plane-surface $-1 0 -41.790656285974855 0 0 1 0 0 0 1 forward_v I I I I #
coedge $-1 $164 $165 $166 $167 forward $65 $-1 #
coedge $-1 $168 $67 $169 $170 forward $41 $-1 #
coedge $-1 $67 $168 $171 $172 forward $41 $-1 #
coedge $-1 $173 $174 $67 $107 reversed $175 $-1 #
edge $-1 $176 -41.790656285974855 $177 41.790656285974855 $106 $178 forward 7 unknown #
face $-1 $179 $180 $25 $-1 $181 reversed single #
loop $-1 $-1 $182 $68 #
plane-surface $-1 0 -30.529350461510408 -0.40062509283297842 0 -1 0 0 0 -1 forward_v I I I I #
coedge $-1 $183 $184 $185 $186 reversed $69 $-1 #
coedge $-1 $187 $71 $188 $189 forward $44 $-1 #
coedge $-1 $71 $187 $190 $191 reversed $44 $-1 #
coedge $-1 $192 $193 $71 $115 forward $194 $-1 #
edge $-1 $195 12.449348774639091 $196 23.710654599103538 $114 $197 forward 7 unknown #
face $-1 $198 $199 $26 $-1 $200 forward single #
loop $-1 $-1 $201 $72 #
plane-surface $-1 90.478672149259211 36.919450012704573 225.52142698847723 0 -1 0 -0.74314483375859142 0 -0.66913059716165679 forward_v I I I I #
coedge $-1 $202 $203 $204 $205 reversed $73 $-1 #
coedge $-1 $121 $75 $206 $207 reversed $47 $-1 #
coedge $-1 $75 $120 $202 $208 reversed $47 $-1 #
coedge $-1 $204 $209 $75 $123 forward $210 $-1 #
edge $-1 $211 102.23429418040783 $212 109.8484093321224 $122 $213 forward 7 unknown #
loop $-1 $-1 $129 $76 #
plane-surface $-1 -26.659115532953805 26.303194375760647 120.05009184432922 0.74314483375859142 0 0.66913059716165679 0.66913059716165679 0 -0.74314483375859142 forward_v I I I I #
loop $-1 $-1 $214 $49 #
coedge $-1 $127 $127 $128 $215 reversed $77 $-1 #
coedge $-1 $128 $128 $127 $215 forward $79 $-1 #
coedge $-1 $129 $129 $80 $130 forward $124 $-1 #
edge $-1 $216 0 $216 6.2831853071796004 $129 $217 forward 7 unknown #
face $-1 $218 $219 $28 $-1 $220 reversed single #
loop $-1 $-1 $221 $81 #
plane-surface $-1 -206.33307096088964 -16.63350180047312 97.694342158029485 0 -1 0 0.80901700255871778 0 -0.5877852410284794 forward_v I I I I #
coedge $-1 $222 $223 $224 $225 reversed $82 $-1 #
coedge $-1 $136 $84 $226 $227 reversed $53 $-1 #
coedge $-1 $84 $135 $222 $228 reversed $53 $-1 #
coedge $-1 $224 $229 $84 $138 forward $230 $-1 #
edge $-1 $231 24.354315869250627 $232 28.336783172907687 $137 $233 forward 7 unknown #
loop $-1 $-1 $144 $85 #
plane-surface $-1 -78.812219611194195 -22.474257739564511 5.0450231577190294 -0.80901700255871778 0 0.5877852410284794 0.5877852410284794 0 0.80901700255871778 forward_v I I I I #
loop $-1 $-1 $234 $55 #
coedge $-1 $142 $142 $143 $235 reversed $86 $-1 #
coedge $-1 $143 $143 $142 $235 forward $88 $-1 #
coedge $-1 $144 $144 $89 $145 forward $139 $-1 #
edge $-1 $236 0 $236 6.2831853071796004 $144 $237 forward 7 unknown #
loop $-1 $-1 $151 $90 #
plane-surface $-1 -78.812219611194195 -22.474257739564511 5.0450231577190294 -0.80901700255871778 0 0.5877852410284794 0.5877852410284794 0 0.80901700255871778 forward_v I I I I #
loop $-1 $-1 $238 $58 #
coedge $-1 $149 $149 $150 $239 reversed $91 $-1 #
coedge $-1 $150 $150 $149 $239 forward $93 $-1 #
coedge $-1 $151 $151 $94 $152 forward $146 $-1 #
edge $-1 $240 0 $240 6.2831853071796004 $151 $241 forward 7 unknown #
loop $-1 $-1 $158 $95 #
plane-surface $-1 -78.812219611194195 -22.474257739564511 5.0450231577190294 -0.80901700255871778 0 0.5877852410284794 0.5877852410284794 0 0.80901700255871778 forward_v I I I I #
loop $-1 $-1 $242 $61 #
coedge $-1 $156 $156 $157 $243 reversed $96 $-1 #
coedge $-1 $157 $157 $156 $243 forward $98 $-1 #
coedge $-1 $158 $158 $99 $159 forward $153 $-1 #
edge $-1 $244 0 $244 6.2831853071796004 $158 $245 forward 7 unknown #
face $-1 $246 $247 $24 $-1 $248 reversed single #
loop $-1 $-1 $249 $100 #
plane-surface $-1 -78.812219611194195 0 0 1 0 0 0 0 -1 forward_v I I I I #
coedge $-1 $250 $171 $251 $252 forward $101 $-1 #
coedge $-1 $253 $103 $250 $254 forward $65 $-1 #
coedge $-1 $103 $253 $255 $256 forward $65 $-1 #
coedge $-1 $174 $173 $103 $167 reversed $175 $-1 #
edge $-1 $257 -41.790656285974855 $258 41.790656285974855 $166 $259 forward 7 unknown #
coedge $-1 $105 $104 $260 $261 forward $41 $-1 #
coedge $-1 $262 $263 $104 $170 reversed $247 $-1 #
edge $-1 $177 -78.812219611194195 $264 78.812219611194195 $169 $265 forward 7 unknown #
coedge $-1 $163 $266 $105 $172 reversed $101 $-1 #
edge $-1 $267 -78.812219611194195 $176 78.812219611194195 $171 $268 forward 7 unknown #
coedge $-1 $166 $106 $266 $269 forward $175 $-1 #
coedge $-1 $106 $166 $262 $270 reversed $175 $-1 #
loop $-1 $-1 $173 $246 #
vertex $-1 $107 $271 #
vertex $-1 $107 $272 #
straight-curve $-1 78.812219611194195 0 10.52641931383079 0 1 0 I I #
face $-1 $273 $274 $25 $-1 $275 reversed single #
loop $-1 $-1 $276 $108 #
plane-surface $-1 -78.812219611194195 0 0 1 0 0 0 0 -1 forward_v I I I I #
coedge $-1 $277 $188 $193 $278 reversed $109 $-1 #
coedge $-1 $279 $111 $280 $281 reversed $69 $-1 #
coedge $-1 $111 $279 $277 $282 forward $69 $-1 #
coedge $-1 $193 $192 $111 $186 forward $194 $-1 #
edge $-1 $283 -23.710654599103538 $284 -12.449348774639091 $185 $285 forward 7 unknown #
coedge $-1 $113 $112 $276 $286 reversed $44 $-1 #
coedge $-1 $182 $287 $112 $189 reversed $109 $-1 #
edge $-1 $195 -78.812219611194195 $288 78.812219611194195 $188 $289 forward 7 unknown #
coedge $-1 $290 $291 $113 $191 forward $274 $-1 #
edge $-1 $196 -78.812219611194195 $292 78.812219611194195 $190 $293 forward 7 unknown #
coedge $-1 $185 $114 $291 $294 forward $194 $-1 #
coedge $-1 $114 $185 $182 $278 forward $194 $-1 #
loop $-1 $-1 $114 $273 #
vertex $-1 $115 $295 #
vertex $-1 $294 $296 #
straight-curve $-1 78.812219611194195 -18.080001686871316 1.2017409124606582 0 -1 0 I I #
face $-1 $-1 $210 $26 $-1 $297 reversed single #
loop $-1 $-1 $298 $116 #
plane-surface $-1 0 0 10.52641931383079 0 0 1 1 0 0 forward_v I I I I #
coedge $-1 $299 $300 $301 $302 reversed $117 $-1 #
coedge $-1 $303 $119 $121 $208 forward $73 $-1 #
coedge $-1 $119 $303 $299 $304 forward $73 $-1 #
coedge $-1 $301 $122 $119 $205 forward $210 $-1 #
edge $-1 $212 2.5353415509364012 $305 23.767852824824249 $204 $306 forward 7 unknown #
coedge $-1 $307 $308 $120 $207 forward $199 $-1 #
edge $-1 $309 26.717103630841081 $211 33.572883536564589 $206 $310 forward 7 unknown #
edge $-1 $212 -157.62443922238836 $309 -147.37863678142298 $121 $311 forward 7 unknown #
coedge $-1 $122 $301 $307 $312 reversed $210 $-1 #
loop $-1 $-1 $301 $198 #
vertex $-1 $312 $313 #
vertex $-1 $123 $314 #
straight-curve $-1 78.812219611194195 15.686938738816725 112.76071349423862 0 0 -1 I I #
coedge $-1 $214 $214 $-1 $315 reversed $126 $-1 #
edge $-1 $316 0 $316 6.2831853071796004 $127 $317 forward 7 unknown #
vertex $-1 $130 $318 #
ellipse-curve $-1 75.384329658332447 26.303194375760647 6.7193617379734984 0.74314483375859142 0 0.66913059716165679 1.0036958957424851 0 -1.1147172506378871 1 I I #
face $-1 $-1 $230 $28 $-1 $319 forward single #
loop $-1 $-1 $320 $131 #
plane-surface $-1 -78.812219611194195 0 0 1 0 0 0 0 -1 forward_v I I I I #
coedge $-1 $321 $322 $323 $324 reversed $132 $-1 #
coedge $-1 $325 $134 $136 $228 forward $82 $-1 #
coedge $-1 $134 $325 $321 $326 forward $82 $-1 #
coedge $-1 $323 $137 $134 $225 forward $230 $-1 #
edge $-1 $232 -17.077884808873648 $327 -5.3963729306908643 $224 $328 forward 7 unknown #
coedge $-1 $329 $330 $135 $227 forward $219 $-1 #
edge $-1 $331 -43.802147921295713 $231 -38.320751765183957 $226 $332 forward 7 unknown #
edge $-1 $232 -6.7753781920225169 $331 0 $136 $333 forward 7 unknown #
coedge $-1 $137 $323 $329 $334 forward $230 $-1 #
loop $-1 $-1 $323 $218 #
vertex $-1 $227 $335 #
vertex $-1 $138 $336 #
straight-curve $-1 -103.16653548044482 -28.315013678655902 10.526419313830786 1 0 0 I I #
coedge $-1 $234 $234 $-1 $337 reversed $141 $-1 #
edge $-1 $338 0 $338 6.2831853071796004 $142 $339 forward 7 unknown #
vertex $-1 $145 $340 #
ellipse-curve $-1 -76.820985959365672 -25.978711303019345 7.7857212357749068 -0.80901700255871778 0 0.5877852410284794 0.5877852410284794 0 0.80901700255871778 1 I I #
coedge $-1 $238 $238 $-1 $341 reversed $148 $-1 #
edge $-1 $342 0 $342 6.2831853071796004 $149 $343 forward 7 unknown #
vertex $-1 $152 $344 #
ellipse-curve $-1 -76.820985959365672 -22.474257739564511 7.7857212357749068 -0.80901700255871778 0 0.5877852410284794 0.5877852410284794 0 0.80901700255871778 1 I I #
coedge $-1 $242 $242 $-1 $345 reversed $155 $-1 #
edge $-1 $346 0 $346 6.2831853071796004 $156 $347 forward 7 unknown #
vertex $-1 $159 $348 #
ellipse-curve $-1 -76.820985959365672 -18.969804176109676 7.7857212357749068 -0.80901700255871778 0 0.5877852410284794 0.5877852410284794 0 0.80901700255871778 1 I I #
face $-1 $-1 $175 $24 $-1 $349 reversed single #
loop $-1 $-1 $262 $160 #
plane-surface $-1 0 41.790656285974855 0 0 -1 0 0 0 -1 forward_v I I I I #
coedge $-1 $350 $260 $263 $351 forward $161 $-1 #
coedge $-1 $266 $163 $164 $254 reversed $101 $-1 #
coedge $-1 $260 $350 $163 $252 reversed $161 $-1 #
edge $-1 $267 -10.52641931383079 $352 10.52641931383079 $251 $353 forward 7 unknown #
coedge $-1 $165 $164 $350 $354 forward $65 $-1 #
edge $-1 $258 -78.812219611194195 $352 78.812219611194195 $250 $355 forward 7 unknown #
coedge $-1 $263 $262 $165 $256 reversed $247 $-1 #
edge $-1 $356 -78.812219611194195 $257 78.812219611194195 $255 $357 forward 7 unknown #
vertex $-1 $167 $358 #
vertex $-1 $269 $359 #
straight-curve $-1 78.812219611194195 0 -10.52641931383079 0 -1 0 I I #
coedge $-1 $249 $251 $168 $261 reversed $161 $-1 #
edge $-1 $264 -41.790656285974855 $267 41.790656285974855 $260 $360 forward 7 unknown #
coedge $-1 $255 $169 $174 $270 forward $247 $-1 #
coedge $-1 $169 $255 $249 $351 reversed $247 $-1 #
vertex $-1 $170 $361 #
straight-curve $-1 0 41.790656285974855 10.52641931383079 -1 0 0 I I #
coedge $-1 $171 $250 $173 $269 reversed $101 $-1 #
vertex $-1 $261 $362 #
straight-curve $-1 0 -41.790656285974855 10.52641931383079 1 0 0 I I #
edge $-1 $176 -10.52641931383079 $258 10.52641931383079 $173 $363 forward 7 unknown #
edge $-1 $177 -10.52641931383079 $257 10.52641931383079 $174 $364 forward 7 unknown #
point $-1 78.812219611194195 -41.790656285974855 10.52641931383079 #
point $-1 78.812219611194195 41.790656285974855 10.52641931383079 #
face $-1 $-1 $194 $25 $-1 $365 reversed single #
loop $-1 $-1 $190 $179 #
plane-surface $-1 0 -41.790656285974855 0 0 1 0 0 0 1 forward_v I I I I #
coedge $-1 $366 $367 $187 $286 forward $180 $-1 #
coedge $-1 $287 $182 $184 $282 reversed $109 $-1 #
edge $-1 $284 -1.8026785517101258 $195 1.4020534588771474 $193 $368 forward 7 unknown #
coedge $-1 $184 $183 $369 $370 reversed $69 $-1 #
coedge $-1 $291 $290 $183 $281 forward $274 $-1 #
edge $-1 $371 -78.812219611194195 $283 78.812219611194195 $280 $372 forward 7 unknown #
edge $-1 $373 -78.812219611194195 $284 78.812219611194195 $277 $374 forward 7 unknown #
vertex $-1 $281 $375 #
vertex $-1 $186 $376 #
straight-curve $-1 78.812219611194195 -18.080001686871316 -2.002991098126615 0 1 0 I I #
edge $-1 $292 -23.710654599103538 $288 -12.449348774639091 $276 $377 forward 7 unknown #
coedge $-1 $188 $277 $366 $378 reversed $109 $-1 #
vertex $-1 $286 $379 #
straight-curve $-1 0 -30.529350461510408 1.2017409124606582 -1 0 0 I I #
coedge $-1 $280 $190 $367 $380 forward $274 $-1 #
coedge $-1 $190 $280 $192 $294 reversed $274 $-1 #
vertex $-1 $380 $381 #
straight-curve $-1 0 -41.790656285974855 1.2017409124606582 -1 0 0 I I #
edge $-1 $196 -1.2017409124606582 $283 2.002991098126615 $192 $382 forward 7 unknown #
point $-1 78.812219611194195 -30.529350461510408 1.2017409124606582 #
point $-1 78.812219611194195 -41.790656285974855 1.2017409124606582 #
plane-surface $-1 78.812219611194195 0 0 -1 0 0 0 0 1 forward_v I I I I #
coedge $-1 $308 $307 $300 $383 forward $199 $-1 #
coedge $-1 $300 $201 $203 $304 reversed $117 $-1 #
coedge $-1 $201 $299 $298 $383 reversed $117 $-1 #
coedge $-1 $209 $204 $201 $302 forward $210 $-1 #
edge $-1 $305 -109.8484093321224 $384 -102.23429418040783 $301 $385 forward 7 unknown #
coedge $-1 $203 $202 $308 $386 reversed $73 $-1 #
edge $-1 $387 147.37863678142298 $305 157.62443922238836 $299 $388 forward 7 unknown #
vertex $-1 $205 $389 #
straight-curve $-1 78.812219611194195 13.151597187880324 2.9123041621162145 0 1 0 I I #
coedge $-1 $298 $206 $209 $312 forward $199 $-1 #
coedge $-1 $206 $298 $303 $386 forward $199 $-1 #
vertex $-1 $207 $390 #
straight-curve $-1 45.239336074629605 15.686938738816725 10.526419313830786 1 0 0 I I #
straight-curve $-1 -26.659115532953805 15.686938738816725 120.05009184432922 -0.66913059716165679 0 0.74314483375859142 I I #
edge $-1 $211 15.686938738816725 $384 36.919450012704573 $209 $391 forward 7 unknown #
point $-1 78.812219611194195 15.686938738816725 10.52641931383079 #
point $-1 78.812219611194195 15.686938738816725 2.9123041621162145 #
edge $-1 $392 1 $392 0 $214 $-1 forward 7 unknown #
vertex $-1 $215 $393 #
ellipse-curve $-1 72.597791678055032 26.303194375760647 4.2103517333875526 0.74314483375859142 0 0.66913059716165679 1.0036958957424851 0 -1.1147172506378871 1 I I #
point $-1 76.388025554074915 26.303194375760647 5.6046444873355892 #
plane-surface $-1 0 0 10.52641931383079 0 0 1 1 0 0 forward_v I I I I #
coedge $-1 $330 $329 $322 $394 forward $219 $-1 #
coedge $-1 $322 $221 $223 $326 reversed $132 $-1 #
coedge $-1 $221 $321 $320 $394 reversed $132 $-1 #
coedge $-1 $229 $224 $221 $324 forward $230 $-1 #
edge $-1 $327 -28.336783172907687 $395 -24.354315869250627 $323 $396 forward 7 unknown #
coedge $-1 $223 $222 $330 $397 reversed $82 $-1 #
edge $-1 $398 0 $327 6.7753781920225169 $321 $399 forward 7 unknown #
vertex $-1 $225 $400 #
straight-curve $-1 -74.829752307537149 -11.237128869782255 10.526419313830791 0 1 0 I I #
coedge $-1 $320 $226 $229 $334 reversed $219 $-1 #
coedge $-1 $226 $320 $325 $397 forward $219 $-1 #
vertex $-1 $227 $401 #
straight-curve $-1 -78.812219611194195 -28.315013678655902 48.847171079014743 0 0 1 I I #
straight-curve $-1 -78.812219611194195 -28.315013678655902 5.0450231577190294 -0.5877852410284794 0 -0.80901700255871778 I I #
edge $-1 $395 16.63350180047312 $231 28.315013678655902 $329 $402 forward 7 unknown #
point $-1 -78.812219611194195 -28.315013678655902 10.52641931383079 #
point $-1 -74.829752307537134 -28.315013678655902 10.52641931383079 #
edge $-1 $403 1 $403 0 $234 $-1 forward 7 unknown #
vertex $-1 $235 $404 #
ellipse-curve $-1 -74.297767428725365 -25.978711303019345 5.9524957194888168 -0.80901700255871778 0 0.5877852410284794 0.5877852410284794 0 0.80901700255871778 1 I I #
point $-1 -76.233200718337187 -25.978711303019345 8.5947382383336297 #
edge $-1 $405 1 $405 0 $238 $-1 forward 7 unknown #
vertex $-1 $239 $406 #
ellipse-curve $-1 -74.297767428725365 -22.474257739564511 5.9524957194888168 -0.80901700255871778 0 0.5877852410284794 0.5877852410284794 0 0.80901700255871778 1 I I #
point $-1 -76.233200718337187 -22.474257739564511 8.5947382383336297 #
edge $-1 $407 1 $407 0 $242 $-1 forward 7 unknown #
vertex $-1 $243 $408 #
ellipse-curve $-1 -74.297767428725365 -18.969804176109676 5.9524957194888168 -0.80901700255871778 0 0.5877852410284794 0.5877852410284794 0 0.80901700255871778 1 I I #
point $-1 -76.233200718337187 -18.969804176109676 8.5947382383336297 #
plane-surface $-1 78.812219611194195 0 0 -1 0 0 0 0 1 forward_v I I I I #
coedge $-1 $251 $249 $253 $354 reversed $161 $-1 #
edge $-1 $264 -10.52641931383079 $356 10.52641931383079 $263 $409 forward 7 unknown #
vertex $-1 $354 $410 #
straight-curve $-1 -78.812219611194195 -41.790656285974855 0 0 0 -1 I I #
edge $-1 $352 -41.790656285974855 $356 41.790656285974855 $350 $411 forward 7 unknown #
straight-curve $-1 0 -41.790656285974855 -10.52641931383079 -1 0 0 I I #
vertex $-1 $256 $412 #
straight-curve $-1 0 41.790656285974855 -10.52641931383079 1 0 0 I I #
point $-1 78.812219611194195 41.790656285974855 -10.52641931383079 #
point $-1 78.812219611194195 -41.790656285974855 -10.52641931383079 #
straight-curve $-1 -78.812219611194195 0 10.52641931383079 0 -1 0 I I #
point $-1 -78.812219611194195 41.790656285974855 10.52641931383079 #
point $-1 -78.812219611194195 -41.790656285974855 10.52641931383079 #
straight-curve $-1 78.812219611194195 -41.790656285974855 0 0 0 -1 I I #
straight-curve $-1 78.812219611194195 41.790656285974855 0 0 0 -1 I I #
plane-surface $-1 78.812219611194195 0 0 -1 0 0 0 0 1 forward_v I I I I #
coedge $-1 $369 $276 $287 $378 forward $180 $-1 #
coedge $-1 $276 $369 $290 $380 reversed $180 $-1 #
straight-curve $-1 78.812219611194195 -30.529350461510408 -0.20031254641648921 0 0 1 I I #
coedge $-1 $367 $366 $279 $370 forward $180 $-1 #
edge $-1 $373 12.449348774639091 $371 23.710654599103538 $369 $413 forward 7 unknown #
vertex $-1 $281 $414 #
straight-curve $-1 0 -41.790656285974855 -2.002991098126615 1 0 0 I I #
vertex $-1 $370 $415 #
straight-curve $-1 0 -30.529350461510408 -2.002991098126615 1 0 0 I I #
point $-1 78.812219611194195 -41.790656285974855 -2.002991098126615 #
point $-1 78.812219611194195 -30.529350461510408 -2.002991098126615 #
straight-curve $-1 -78.812219611194195 -18.080001686871316 1.2017409124606582 0 1 0 I I #
edge $-1 $288 -1.4020534588771474 $373 1.8026785517101258 $366 $416 forward 7 unknown #
point $-1 -78.812219611194195 -30.529350461510408 1.2017409124606582 #
edge $-1 $292 -1.2017409124606582 $371 2.002991098126615 $367 $417 forward 7 unknown #
point $-1 -78.812219611194195 -41.790656285974855 1.2017409124606582 #
straight-curve $-1 78.812219611194195 -41.790656285974855 0 0 0 -1 I I #
edge $-1 $384 -33.572883536564589 $387 -26.717103630841081 $298 $418 forward 7 unknown #
vertex $-1 $383 $419 #
straight-curve $-1 78.812219611194195 36.919450012704573 112.76071349423862 0 0 1 I I #
edge $-1 $387 -23.767852824824249 $309 -2.5353415509364012 $308 $420 forward 7 unknown #
vertex $-1 $386 $421 #
straight-curve $-1 -26.659115532953805 36.919450012704573 120.05009184432922 0.66913059716165679 0 -0.74314483375859142 I I #
point $-1 78.812219611194195 36.919450012704573 2.9123041621162145 #
point $-1 71.956439705470686 15.686938738816725 10.526419313830786 #
straight-curve $-1 78.812219611194195 0 10.52641931383079 0 1 0 I I #
vertex $-1 $315 $422 #
point $-1 73.601487573797513 26.303194375760647 3.0956344827496656 #
edge $-1 $395 38.320751765183957 $398 43.802147921295713 $320 $423 forward 7 unknown #
vertex $-1 $334 $424 #
straight-curve $-1 -103.16653548044482 -16.63350180047312 10.526419313830786 -1 0 0 I I #
edge $-1 $398 5.3963729306908643 $331 17.077884808873648 $330 $425 forward 7 unknown #
vertex $-1 $397 $426 #
straight-curve $-1 -78.812219611194195 -16.63350180047312 5.0450231577190294 0.5877852410284794 0 0.80901700255871778 I I #
point $-1 -74.829752307537134 -16.63350180047312 10.52641931383079 #
point $-1 -78.812219611194195 -28.315013678655902 5.0450231577190294 #
straight-curve $-1 -78.812219611194195 0 10.52641931383079 0 -1 0 I I #
vertex $-1 $337 $427 #
point $-1 -73.709982187696895 -25.978711303019345 6.7615127220475344 #
vertex $-1 $341 $428 #
point $-1 -73.709982187696895 -22.474257739564511 6.7615127220475344 #
vertex $-1 $345 $429 #
point $-1 -73.709982187696895 -18.969804176109676 6.7615127220475344 #
straight-curve $-1 -78.812219611194195 41.790656285974855 0 0 0 -1 I I #
point $-1 -78.812219611194195 -41.790656285974855 -10.52641931383079 #
straight-curve $-1 -78.812219611194195 0 -10.52641931383079 0 1 0 I I #
point $-1 -78.812219611194195 41.790656285974855 -10.52641931383079 #
straight-curve $-1 -78.812219611194195 -18.080001686871316 -2.002991098126615 0 -1 0 I I #
point $-1 -78.812219611194195 -41.790656285974855 -2.002991098126615 #
point $-1 -78.812219611194195 -30.529350461510408 -2.002991098126615 #
straight-curve $-1 -78.812219611194195 -30.529350461510408 -0.20031254641648921 0 0 -1 I I #
straight-curve $-1 -78.812219611194195 -41.790656285974855 0 0 0 -1 I I #
straight-curve $-1 45.239336074629605 36.919450012704573 10.526419313830786 -1 0 0 I I #
point $-1 78.812219611194195 36.919450012704573 10.52641931383079 #
straight-curve $-1 71.956439705470686 13.151597187880324 10.526419313830786 0 -1 0 I I #
point $-1 71.956439705470686 36.919450012704573 10.526419313830786 #
point $-1 71.483074427417151 26.303194375760647 3.2066558376450676 #
straight-curve $-1 -78.812219611194195 -16.63350180047312 48.847171079014743 0 0 -1 I I #
point $-1 -78.812219611194195 -16.63350180047312 10.52641931383079 #
straight-curve $-1 -78.812219611194195 -11.237128869782255 5.0450231577190241 0 -1 0 I I #
point $-1 -78.812219611194195 -16.63350180047312 5.0450231577190294 #
point $-1 -73.488750426166661 -25.978711303019345 5.3647104784603377 #
point $-1 -73.488750426166661 -22.474257739564511 5.3647104784603377 #
point $-1 -73.488750426166661 -18.969804176109676 5.3647104784603377 #
End-of-ACIS-data 