500 0 6 0           
7 Unknown 11 ACIS 5.0 NT 24 Thu Mar 25 15:17:53 1999 
-1 9.9999999999999995e-007 1e-010 
body $-1 $6 $-1 $7 #
body $-1 $8 $-1 $9 #
body $-1 $10 $-1 $11 #
body $-1 $12 $-1 $13 #
body $-1 $14 $-1 $15 #
body $-1 $16 $-1 $17 #
lump $-1 $-1 $18 $0 #
transform $-1 1 0 0 0 1 0 0 0 1 68.639790032654801 44.625394788801188 10.313400361846785 1 rotate no_reflect no_shear #
lump $-1 $-1 $19 $1 #
transform $-1 1 0 0 0 1 0 0 0 1 68.639790032654801 44.625394788801188 10.313400361846785 1 rotate no_reflect no_shear #
lump $-1 $-1 $20 $2 #
transform $-1 1 0 0 0 1 0 0 0 1 68.639790032654801 44.625394788801188 10.313400361846785 1 rotate no_reflect no_shear #
lump $-1 $-1 $21 $3 #
transform $-1 1 0 0 0 1 0 0 0 1 68.639790032654801 44.625394788801188 10.313400361846785 1 rotate no_reflect no_shear #
lump $-1 $-1 $22 $4 #
transform $-1 1 0 0 0 1 0 0 0 1 68.639790032654801 44.625394788801188 10.313400361846785 1 rotate no_reflect no_shear #
lump $-1 $-1 $23 $5 #
transform $-1 1 0 0 0 1 0 0 0 1 68.639790032654801 44.625394788801188 10.313400361846785 1 rotate no_reflect no_shear #
shell $-1 $-1 $-1 $24 $-1 $6 #
shell $-1 $-1 $-1 $25 $-1 $8 #
shell $-1 $-1 $-1 $26 $-1 $10 #
shell $-1 $-1 $-1 $27 $-1 $12 #
shell $-1 $-1 $-1 $28 $-1 $14 #
shell $-1 $-1 $-1 $29 $-1 $16 #
face $-1 $30 $31 $18 $-1 $32 forward single #
face $-1 $33 $34 $19 $-1 $35 reversed single #
face $-1 $36 $37 $20 $-1 $38 reversed single #
face $-1 $39 $40 $21 $-1 $41 reversed single #
face $-1 $42 $43 $22 $-1 $44 forward single #
face $-1 $45 $46 $23 $-1 $47 forward single #
face $-1 $48 $49 $18 $-1 $50 reversed single #
loop $-1 $-1 $51 $24 #
plane-surface $-1 0 0 10.313400361846785 0 0 1 1 0 0 forward_v I I I I #
face $-1 $52 $53 $19 $-1 $54 reversed single #
loop $-1 $-1 $55 $25 #
plane-surface $-1 -64.059550608856526 0 7.3134003618467851 0 0 1 1 0 0 forward_v I I I I #
face $-1 $56 $57 $20 $-1 $58 reversed single #
loop $-1 $-1 $59 $26 #
plane-surface $-1 64.059550608856526 0 7.3134003618467851 0 0 1 1 0 0 forward_v I I I I #
face $-1 $60 $61 $21 $-1 $62 reversed single #
loop $-1 $-1 $63 $27 #
plane-surface $-1 -35.026340860473752 100.54927834037515 154.38411139072684 1 0 0 0 -0.79863551827123203 -0.60181501223851219 forward_v I I I I #
face $-1 $64 $65 $22 $-1 $66 forward single #
loop $-1 $67 $68 $28 #
cone-surface $-1 -28.170721985814929 37.329535065309408 2.6925967484669506 0 -0.79863551827123203 -0.60181501223851219 3 0 0 1 I I 0 1 3 forward I I I I #
face $-1 $69 $70 $23 $-1 $71 forward single #
loop $-1 $72 $73 $29 #
cone-surface $-1 -17.887293673826676 37.329535065309408 2.6925967484669506 0 -0.79863551827123203 -0.60181501223851219 3 0 0 1 I I 0 1 3 forward I I I I #
face $-1 $74 $75 $18 $-1 $76 reversed single #
loop $-1 $-1 $77 $30 #
plane-surface $-1 0 0 -10.313400361846785 0 0 1 1 0 0 forward_v I I I I #
coedge $-1 $78 $79 $80 $81 forward $31 $-1 #
face $-1 $82 $83 $19 $-1 $84 reversed single #
loop $-1 $-1 $85 $33 #
plane-surface $-1 -59.479311185058251 0 8.8134003618467851 -1 0 0 0 0 1 forward_v I I I I #
coedge $-1 $86 $87 $88 $89 forward $34 $-1 #
face $-1 $90 $91 $20 $-1 $92 forward single #
loop $-1 $-1 $93 $36 #
plane-surface $-1 59.479311185058251 0 8.8134003618467851 1 0 0 0 0 -1 forward_v I I I I #
coedge $-1 $94 $95 $96 $97 reversed $37 $-1 #
face $-1 $98 $99 $21 $-1 $100 reversed single #
loop $-1 $-1 $101 $39 #
plane-surface $-1 -23.029007829820799 -9.08707023314048 71.767199233624737 0 0.79863551827123203 0.60181501223851219 1 0 0 forward_v I I I I #
coedge $-1 $102 $103 $104 $105 reversed $40 $-1 #
face $-1 $-1 $106 $22 $-1 $107 forward single #
loop $-1 $108 $109 $42 #
cone-surface $-1 -28.170721985814929 32.537575716688224 -0.91840352394704539 0 -0.79863551827123203 -0.60181501223851219 1.5 0 0 1 I I -0.70710678118654757 0.70710678118654757 1.5 forward I I I I #
loop $-1 $-1 $110 $28 #
coedge $-1 $68 $68 $111 $112 reversed $43 $-1 #
face $-1 $-1 $113 $23 $-1 $114 forward single #
loop $-1 $115 $116 $45 #
cone-surface $-1 -17.887293673826676 32.537575716688224 -0.91840352394704539 0 -0.79863551827123203 -0.60181501223851219 1.5 0 0 1 I I -0.70710678118654757 0.70710678118654757 1.5 forward I I I I #
loop $-1 $-1 $117 $29 #
coedge $-1 $73 $73 $118 $119 reversed $46 $-1 #
face $-1 $120 $121 $18 $-1 $122 reversed single #
loop $-1 $-1 $123 $48 #
plane-surface $-1 0 -44.625394788801188 0 0 1 0 0 0 1 forward_v I I I I #
coedge $-1 $124 $125 $126 $127 forward $49 $-1 #
coedge $-1 $128 $51 $129 $130 forward $31 $-1 #
coedge $-1 $51 $128 $131 $132 forward $31 $-1 #
coedge $-1 $133 $134 $51 $81 reversed $135 $-1 #
edge $-1 $136 -44.625394788801188 $137 44.625394788801188 $80 $138 forward 7 unknown #
face $-1 $139 $140 $19 $-1 $141 reversed single #
loop $-1 $-1 $142 $52 #
plane-surface $-1 0 44.625394788801188 0 0 -1 0 0 0 -1 forward_v I I I I #
coedge $-1 $88 $143 $144 $145 reversed $53 $-1 #
coedge $-1 $146 $55 $147 $148 reversed $34 $-1 #
coedge $-1 $55 $146 $149 $150 reversed $34 $-1 #
coedge $-1 $151 $85 $55 $89 reversed $53 $-1 #
edge $-1 $152 -44.625394788801188 $153 44.625394788801188 $88 $154 forward 7 unknown #
face $-1 $155 $156 $20 $-1 $157 reversed single #
loop $-1 $-1 $158 $56 #
plane-surface $-1 0 0 10.313400361846785 0 0 1 1 0 0 forward_v I I I I #
coedge $-1 $159 $160 $161 $162 reversed $57 $-1 #
coedge $-1 $163 $59 $164 $165 reversed $37 $-1 #
coedge $-1 $59 $163 $166 $167 reversed $37 $-1 #
coedge $-1 $168 $169 $59 $97 forward $170 $-1 #
edge $-1 $171 -44.625394788801188 $172 44.625394788801188 $96 $173 forward 7 unknown #
face $-1 $174 $175 $21 $-1 $176 reversed single #
loop $-1 $-1 $177 $60 #
plane-surface $-1 -11.031674799167842 100.54927834037515 154.38411139072684 -1 0 0 0 0.79863551827123203 0.60181501223851219 forward_v I I I I #
coedge $-1 $178 $179 $180 $181 reversed $61 $-1 #
coedge $-1 $103 $63 $182 $183 reversed $40 $-1 #
coedge $-1 $63 $102 $178 $184 reversed $40 $-1 #
coedge $-1 $180 $185 $63 $105 forward $186 $-1 #
edge $-1 $187 5.6492443813863886 $188 13.052951685941267 $104 $189 forward 7 unknown #
loop $-1 $-1 $111 $64 #
plane-surface $-1 -23.029007829820799 -9.08707023314048 71.767199233624737 0 0.79863551827123203 0.60181501223851219 1 0 0 forward_v I I I I #
loop $-1 $-1 $190 $42 #
coedge $-1 $109 $109 $110 $191 reversed $65 $-1 #
coedge $-1 $110 $110 $109 $191 forward $67 $-1 #
coedge $-1 $111 $111 $68 $112 forward $106 $-1 #
edge $-1 $192 0 $192 6.2831853071796004 $111 $193 forward 7 unknown #
loop $-1 $-1 $118 $69 #
plane-surface $-1 -23.029007829820799 -9.08707023314048 71.767199233624737 0 0.79863551827123203 0.60181501223851219 1 0 0 forward_v I I I I #
loop $-1 $-1 $194 $45 #
coedge $-1 $116 $116 $117 $195 reversed $70 $-1 #
coedge $-1 $117 $117 $116 $195 forward $72 $-1 #
coedge $-1 $118 $118 $73 $119 forward $113 $-1 #
edge $-1 $196 0 $196 6.2831853071796004 $118 $197 forward 7 unknown #
face $-1 $198 $199 $18 $-1 $200 reversed single #
loop $-1 $-1 $201 $74 #
plane-surface $-1 -68.639790032654801 0 0 1 0 0 0 0 -1 forward_v I I I I #
coedge $-1 $202 $131 $203 $204 forward $75 $-1 #
coedge $-1 $205 $77 $202 $206 forward $49 $-1 #
coedge $-1 $77 $205 $207 $208 forward $49 $-1 #
coedge $-1 $134 $133 $77 $127 reversed $135 $-1 #
edge $-1 $209 -44.625394788801188 $210 44.625394788801188 $126 $211 forward 7 unknown #
coedge $-1 $79 $78 $212 $213 forward $31 $-1 #
coedge $-1 $214 $215 $78 $130 reversed $199 $-1 #
edge $-1 $137 -68.639790032654801 $216 68.639790032654801 $129 $217 forward 7 unknown #
coedge $-1 $123 $218 $79 $132 reversed $75 $-1 #
edge $-1 $219 -68.639790032654801 $136 68.639790032654801 $131 $220 forward 7 unknown #
coedge $-1 $126 $80 $218 $221 forward $135 $-1 #
coedge $-1 $80 $126 $214 $222 reversed $135 $-1 #
loop $-1 $-1 $133 $198 #
vertex $-1 $81 $223 #
vertex $-1 $81 $224 #
straight-curve $-1 68.639790032654801 0 10.313400361846785 0 1 0 I I #
face $-1 $225 $226 $19 $-1 $227 forward single #
loop $-1 $-1 $228 $82 #
plane-surface $-1 -68.639790032654801 0 0 1 0 0 0 0 -1 forward_v I I I I #
coedge $-1 $149 $229 $151 $230 forward $83 $-1 #
coedge $-1 $85 $151 $231 $232 reversed $53 $-1 #
coedge $-1 $233 $147 $85 $145 forward $234 $-1 #
edge $-1 $153 2.9067001809233926 $235 5.9067001809233926 $144 $236 forward 7 unknown #
coedge $-1 $87 $86 $228 $237 reversed $34 $-1 #
coedge $-1 $144 $238 $86 $148 forward $234 $-1 #
edge $-1 $239 -36.610014728226538 $153 -27.449535880629988 $147 $240 forward 7 unknown #
coedge $-1 $241 $142 $87 $150 forward $83 $-1 #
edge $-1 $152 27.449535880629988 $242 36.610014728226538 $149 $243 forward 7 unknown #
coedge $-1 $143 $88 $142 $230 reversed $53 $-1 #
vertex $-1 $150 $244 #
vertex $-1 $148 $245 #
straight-curve $-1 -59.479311185058251 0 7.3134003618467851 0 -1 0 I I #
face $-1 $246 $247 $20 $-1 $248 reversed single #
loop $-1 $-1 $249 $90 #
plane-surface $-1 0 -44.625394788801188 0 0 1 0 0 0 1 forward_v I I I I #
coedge $-1 $250 $251 $160 $252 forward $91 $-1 #
coedge $-1 $253 $93 $163 $254 reversed $57 $-1 #
coedge $-1 $93 $253 $158 $252 reversed $57 $-1 #
coedge $-1 $255 $166 $93 $162 forward $247 $-1 #
edge $-1 $256 2.9067001809233926 $257 5.9067001809233926 $161 $258 forward 7 unknown #
coedge $-1 $95 $94 $159 $254 forward $37 $-1 #
coedge $-1 $259 $249 $94 $165 forward $156 $-1 #
edge $-1 $260 27.449535880629988 $171 36.610014728226538 $164 $261 forward 7 unknown #
coedge $-1 $161 $262 $95 $167 forward $247 $-1 #
edge $-1 $172 -36.610014728226538 $256 -27.449535880629988 $166 $263 forward 7 unknown #
coedge $-1 $264 $96 $262 $265 reversed $170 $-1 #
coedge $-1 $96 $264 $259 $266 forward $170 $-1 #
loop $-1 $-1 $96 $246 #
vertex $-1 $165 $267 #
vertex $-1 $97 $268 #
straight-curve $-1 68.639790032654801 0 7.3134003618467851 0 1 0 I I #
face $-1 $-1 $186 $21 $-1 $269 forward single #
loop $-1 $-1 $270 $98 #
plane-surface $-1 0 44.625394788801188 0 0 -1 0 0 0 -1 forward_v I I I I #
coedge $-1 $271 $272 $273 $274 reversed $99 $-1 #
coedge $-1 $275 $101 $103 $184 forward $61 $-1 #
coedge $-1 $101 $275 $271 $276 forward $61 $-1 #
coedge $-1 $273 $104 $101 $181 forward $186 $-1 #
edge $-1 $188 -23.511836945563353 $277 0.48282911574255749 $180 $278 forward 7 unknown #
coedge $-1 $279 $280 $102 $183 forward $175 $-1 #
edge $-1 $281 -76.70370705216385 $187 -66.878655333516633 $182 $282 forward 7 unknown #
edge $-1 $188 76.94849210413787 $281 89.250789577602404 $103 $283 forward 7 unknown #
coedge $-1 $104 $273 $279 $284 forward $186 $-1 #
loop $-1 $-1 $273 $174 #
vertex $-1 $183 $285 #
vertex $-1 $105 $286 #
straight-curve $-1 -35.026340860473752 50.274639170187577 10.313400361846789 0 -1 0 I I #
coedge $-1 $190 $190 $-1 $287 reversed $108 $-1 #
edge $-1 $288 0 $288 6.2831853071796004 $109 $289 forward 7 unknown #
vertex $-1 $112 $290 #
ellipse-curve $-1 -28.170721985814929 40.923541136523745 5.4008745025231786 0 0.79863551827123203 0.60181501223851219 3 0 0 1 I I #
coedge $-1 $194 $194 $-1 $291 reversed $115 $-1 #
edge $-1 $292 0 $292 6.2831853071796004 $116 $293 forward 7 unknown #
vertex $-1 $119 $294 #
ellipse-curve $-1 -17.887293673826676 40.923541136523745 5.4008745025231786 0 0.79863551827123203 0.60181501223851219 3 0 0 1 I I #
face $-1 $-1 $135 $18 $-1 $295 reversed single #
loop $-1 $-1 $214 $120 #
plane-surface $-1 0 44.625394788801188 0 0 -1 0 0 0 -1 forward_v I I I I #
coedge $-1 $296 $212 $215 $297 forward $121 $-1 #
coedge $-1 $218 $123 $124 $206 reversed $75 $-1 #
coedge $-1 $212 $296 $123 $204 reversed $121 $-1 #
edge $-1 $219 -10.313400361846785 $298 10.313400361846785 $203 $299 forward 7 unknown #
coedge $-1 $125 $124 $296 $300 forward $49 $-1 #
edge $-1 $210 -68.639790032654801 $298 68.639790032654801 $202 $301 forward 7 unknown #
coedge $-1 $215 $214 $125 $208 reversed $199 $-1 #
edge $-1 $302 -68.639790032654801 $209 68.639790032654801 $207 $303 forward 7 unknown #
vertex $-1 $127 $304 #
vertex $-1 $221 $305 #
straight-curve $-1 68.639790032654801 0 -10.313400361846785 0 -1 0 I I #
coedge $-1 $201 $203 $128 $213 reversed $121 $-1 #
edge $-1 $216 -44.625394788801188 $219 44.625394788801188 $212 $306 forward 7 unknown #
coedge $-1 $207 $129 $134 $222 forward $199 $-1 #
coedge $-1 $129 $207 $201 $297 reversed $199 $-1 #
vertex $-1 $130 $307 #
straight-curve $-1 0 44.625394788801188 10.313400361846785 -1 0 0 I I #
coedge $-1 $131 $202 $133 $221 reversed $75 $-1 #
vertex $-1 $213 $308 #
straight-curve $-1 0 -44.625394788801188 10.313400361846785 1 0 0 I I #
edge $-1 $136 -10.313400361846785 $210 10.313400361846785 $133 $309 forward 7 unknown #
edge $-1 $137 -10.313400361846785 $209 10.313400361846785 $134 $310 forward 7 unknown #
point $-1 68.639790032654801 -44.625394788801188 10.313400361846785 #
point $-1 68.639790032654801 44.625394788801188 10.313400361846785 #
face $-1 $-1 $234 $19 $-1 $311 reversed single #
loop $-1 $-1 $231 $139 #
plane-surface $-1 0 0 10.313400361846785 0 0 1 1 0 0 forward_v I I I I #
coedge $-1 $312 $313 $146 $237 forward $140 $-1 #
coedge $-1 $142 $241 $314 $315 reversed $83 $-1 #
edge $-1 $316 -5.9067001809233926 $152 -2.9067001809233926 $142 $317 forward 7 unknown #
coedge $-1 $314 $318 $143 $232 forward $226 $-1 #
edge $-1 $235 -44.625394788801188 $316 44.625394788801188 $231 $319 forward 7 unknown #
coedge $-1 $238 $144 $318 $320 reversed $234 $-1 #
loop $-1 $-1 $144 $225 #
vertex $-1 $145 $321 #
straight-curve $-1 -59.479311185058251 -44.625394788801188 4.4067001809233926 0 0 1 I I #
edge $-1 $242 -44.625394788801188 $239 44.625394788801188 $228 $322 forward 7 unknown #
coedge $-1 $147 $233 $312 $323 forward $234 $-1 #
vertex $-1 $237 $324 #
straight-curve $-1 -32.029775304428263 -44.625394788801188 7.3134003618467851 1 0 0 I I #
coedge $-1 $229 $149 $313 $325 reversed $83 $-1 #
vertex $-1 $237 $326 #
straight-curve $-1 -32.029775304428263 44.625394788801188 7.3134003618467851 -1 0 0 I I #
point $-1 -59.479311185058251 44.625394788801188 7.3134003618467851 #
point $-1 -59.479311185058251 -44.625394788801188 7.3134003618467851 #
face $-1 $-1 $170 $20 $-1 $327 reversed single #
loop $-1 $-1 $161 $155 #
plane-surface $-1 0 44.625394788801188 0 0 -1 0 0 0 -1 forward_v I I I I #
coedge $-1 $164 $328 $253 $329 forward $156 $-1 #
coedge $-1 $330 $158 $328 $331 forward $91 $-1 #
coedge $-1 $158 $330 $255 $332 forward $91 $-1 #
edge $-1 $257 -44.625394788801188 $333 44.625394788801188 $158 $334 forward 7 unknown #
coedge $-1 $160 $159 $249 $329 reversed $57 $-1 #
edge $-1 $260 -44.625394788801188 $256 44.625394788801188 $159 $335 forward 7 unknown #
coedge $-1 $262 $161 $251 $332 reversed $247 $-1 #
vertex $-1 $167 $336 #
vertex $-1 $162 $337 #
straight-curve $-1 59.479311185058251 44.625394788801188 4.4067001809233926 0 0 1 I I #
coedge $-1 $328 $164 $169 $266 reversed $156 $-1 #
vertex $-1 $165 $338 #
straight-curve $-1 32.029775304428263 -44.625394788801188 7.3134003618467851 1 0 0 I I #
coedge $-1 $166 $255 $168 $265 forward $247 $-1 #
straight-curve $-1 32.029775304428263 44.625394788801188 7.3134003618467851 -1 0 0 I I #
coedge $-1 $169 $168 $330 $339 reversed $170 $-1 #
edge $-1 $340 -10.313400361846785 $172 -7.3134003618467851 $168 $341 forward 7 unknown #
edge $-1 $342 -10.313400361846785 $171 -7.3134003618467851 $169 $343 forward 7 unknown #
point $-1 68.639790032654801 -44.625394788801188 7.3134003618467851 #
point $-1 68.639790032654801 44.625394788801188 7.3134003618467851 #
plane-surface $-1 0 0 10.313400361846785 0 0 1 1 0 0 forward_v I I I I #
coedge $-1 $280 $279 $272 $344 forward $175 $-1 #
coedge $-1 $272 $177 $179 $276 reversed $99 $-1 #
coedge $-1 $177 $271 $270 $344 reversed $99 $-1 #
coedge $-1 $185 $180 $177 $274 forward $186 $-1 #
edge $-1 $277 -13.052951685941267 $345 -5.6492443813863886 $273 $346 forward 7 unknown #
coedge $-1 $179 $178 $280 $347 reversed $61 $-1 #
edge $-1 $348 -89.250789577602404 $277 -76.94849210413787 $271 $349 forward 7 unknown #
vertex $-1 $181 $350 #
straight-curve $-1 -11.514503914910399 37.22168748424631 10.313400361846782 1 0 0 I I #
coedge $-1 $270 $182 $185 $284 reversed $175 $-1 #
coedge $-1 $182 $270 $275 $347 forward $175 $-1 #
vertex $-1 $183 $351 #
straight-curve $-1 -35.026340860473752 44.625394788801188 77.192055695363422 0 0 1 I I #
straight-curve $-1 -35.026340860473752 -9.08707023314048 71.767199233624737 0 0.60181501223851219 -0.79863551827123203 I I #
edge $-1 $345 11.031674799167842 $187 35.026340860473752 $279 $352 forward 7 unknown #
point $-1 -35.026340860473752 44.625394788801188 10.313400361846785 #
point $-1 -35.026340860473752 37.22168748424631 10.313400361846782 #
edge $-1 $353 1 $353 0 $190 $-1 forward 7 unknown #
vertex $-1 $191 $354 #
ellipse-curve $-1 -28.170721985814929 33.73552899409507 -0.015681005589277097 0 0.79863551827123203 0.60181501223851219 3 0 0 1 I I #
point $-1 -25.170721985814929 40.923541136523745 5.4008745025231786 #
edge $-1 $355 1 $355 0 $194 $-1 forward 7 unknown #
vertex $-1 $195 $356 #
ellipse-curve $-1 -17.887293673826676 33.73552899409507 -0.015681005589277097 0 0.79863551827123203 0.60181501223851219 3 0 0 1 I I #
point $-1 -14.887293673826676 40.923541136523745 5.4008745025231786 #
plane-surface $-1 68.639790032654801 0 0 -1 0 0 0 0 1 forward_v I I I I #
coedge $-1 $203 $201 $205 $300 reversed $121 $-1 #
edge $-1 $216 -10.313400361846785 $302 10.313400361846785 $215 $357 forward 7 unknown #
vertex $-1 $300 $358 #
straight-curve $-1 -68.639790032654801 -44.625394788801188 0 0 0 -1 I I #
edge $-1 $298 -44.625394788801188 $302 44.625394788801188 $296 $359 forward 7 unknown #
straight-curve $-1 0 -44.625394788801188 -10.313400361846785 -1 0 0 I I #
vertex $-1 $208 $360 #
straight-curve $-1 0 44.625394788801188 -10.313400361846785 1 0 0 I I #
point $-1 68.639790032654801 44.625394788801188 -10.313400361846785 #
point $-1 68.639790032654801 -44.625394788801188 -10.313400361846785 #
straight-curve $-1 -68.639790032654801 0 10.313400361846785 0 -1 0 I I #
point $-1 -68.639790032654801 44.625394788801188 10.313400361846785 #
point $-1 -68.639790032654801 -44.625394788801188 10.313400361846785 #
straight-curve $-1 68.639790032654801 -44.625394788801188 0 0 0 -1 I I #
straight-curve $-1 68.639790032654801 44.625394788801188 0 0 0 -1 I I #
plane-surface $-1 0 -44.625394788801188 0 0 1 0 0 0 1 forward_v I I I I #
coedge $-1 $361 $228 $238 $323 reversed $140 $-1 #
coedge $-1 $228 $361 $241 $325 forward $140 $-1 #
coedge $-1 $362 $231 $229 $315 forward $226 $-1 #
edge $-1 $316 59.479311185058251 $363 68.639790032654801 $229 $364 forward 7 unknown #
vertex $-1 $315 $365 #
straight-curve $-1 -59.479311185058251 44.625394788801188 4.4067001809233926 0 0 -1 I I #
coedge $-1 $231 $362 $233 $320 forward $226 $-1 #
straight-curve $-1 -59.479311185058251 0 10.313400361846785 0 1 0 I I #
edge $-1 $366 -68.639790032654801 $235 -59.479311185058251 $233 $367 forward 7 unknown #
point $-1 -59.479311185058251 -44.625394788801188 10.313400361846785 #
straight-curve $-1 -68.639790032654801 0 7.3134003618467851 0 -1 0 I I #
edge $-1 $366 -10.313400361846785 $239 -7.3134003618467851 $312 $368 forward 7 unknown #
point $-1 -68.639790032654801 -44.625394788801188 7.3134003618467851 #
edge $-1 $363 -10.313400361846785 $242 -7.3134003618467851 $241 $369 forward 7 unknown #
point $-1 -68.639790032654801 44.625394788801188 7.3134003618467851 #
plane-surface $-1 68.639790032654801 0 0 -1 0 0 0 0 1 forward_v I I I I #
coedge $-1 $249 $259 $250 $331 reversed $156 $-1 #
edge $-1 $333 -5.9067001809233926 $260 -2.9067001809233926 $249 $370 forward 7 unknown #
coedge $-1 $251 $250 $264 $339 forward $91 $-1 #
edge $-1 $333 59.479311185058251 $342 68.639790032654801 $328 $371 forward 7 unknown #
edge $-1 $340 -68.639790032654801 $257 -59.479311185058251 $255 $372 forward 7 unknown #
vertex $-1 $331 $373 #
straight-curve $-1 59.479311185058251 0 10.313400361846785 0 -1 0 I I #
straight-curve $-1 59.479311185058251 0 7.3134003618467851 0 1 0 I I #
point $-1 59.479311185058251 44.625394788801188 7.3134003618467851 #
point $-1 59.479311185058251 44.625394788801188 10.313400361846785 #
point $-1 59.479311185058251 -44.625394788801188 7.3134003618467851 #
edge $-1 $342 -44.625394788801188 $340 44.625394788801188 $264 $374 forward 7 unknown #
vertex $-1 $339 $375 #
straight-curve $-1 68.639790032654801 44.625394788801188 0 0 0 -1 I I #
vertex $-1 $339 $376 #
straight-curve $-1 68.639790032654801 -44.625394788801188 0 0 0 -1 I I #
edge $-1 $345 66.878655333516633 $348 76.70370705216385 $270 $377 forward 7 unknown #
vertex $-1 $284 $378 #
straight-curve $-1 -11.031674799167842 50.274639170187577 10.313400361846789 0 1 0 I I #
edge $-1 $348 -0.48282911574255749 $281 23.511836945563353 $280 $379 forward 7 unknown #
vertex $-1 $347 $380 #
straight-curve $-1 -11.031674799167842 -9.08707023314048 71.767199233624737 0 -0.60181501223851219 0.79863551827123203 I I #
point $-1 -11.031674799167842 37.22168748424631 10.313400361846782 #
point $-1 -35.026340860473752 44.625394788801188 0.48834864319957205 #
straight-curve $-1 0 44.625394788801188 10.313400361846785 -1 0 0 I I #
vertex $-1 $287 $381 #
point $-1 -25.170721985814929 33.73552899409507 -0.015681005589277097 #
vertex $-1 $291 $382 #
point $-1 -14.887293673826676 33.73552899409507 -0.015681005589277097 #
straight-curve $-1 -68.639790032654801 44.625394788801188 0 0 0 -1 I I #
point $-1 -68.639790032654801 -44.625394788801188 -10.313400361846785 #
straight-curve $-1 -68.639790032654801 0 -10.313400361846785 0 1 0 I I #
point $-1 -68.639790032654801 44.625394788801188 -10.313400361846785 #
coedge $-1 $313 $312 $362 $383 reversed $140 $-1 #
coedge $-1 $318 $314 $361 $383 forward $226 $-1 #
vertex $-1 $315 $384 #
straight-curve $-1 0 44.625394788801188 10.313400361846785 -1 0 0 I I #
point $-1 -59.479311185058251 44.625394788801188 10.313400361846785 #
vertex $-1 $383 $385 #
straight-curve $-1 0 -44.625394788801188 10.313400361846785 1 0 0 I I #
straight-curve $-1 -68.639790032654801 -44.625394788801188 0 0 0 -1 I I #
straight-curve $-1 -68.639790032654801 44.625394788801188 0 0 0 -1 I I #
straight-curve $-1 59.479311185058251 -44.625394788801188 4.4067001809233926 0 0 -1 I I #
straight-curve $-1 0 -44.625394788801188 10.313400361846785 1 0 0 I I #
straight-curve $-1 0 44.625394788801188 10.313400361846785 -1 0 0 I I #
point $-1 59.479311185058251 -44.625394788801188 10.313400361846785 #
straight-curve $-1 68.639790032654801 0 10.313400361846785 0 1 0 I I #
point $-1 68.639790032654801 44.625394788801188 10.313400361846785 #
point $-1 68.639790032654801 -44.625394788801188 10.313400361846785 #
straight-curve $-1 -11.031674799167842 44.625394788801188 77.192055695363422 0 0 -1 I I #
point $-1 -11.031674799167842 44.625394788801188 10.313400361846785 #
straight-curve $-1 -11.514503914910399 44.625394788801188 0.48834864319956495 -1 0 0 I I #
point $-1 -11.031674799167842 44.625394788801188 0.48834864319957205 #
point $-1 -28.170721985814929 31.339622439281374 -1.8211260423048137 #
point $-1 -17.887293673826676 31.339622439281374 -1.8211260423048137 #
edge $-1 $363 -44.625394788801188 $366 44.625394788801188 $361 $386 forward 7 unknown #
point $-1 -68.639790032654801 44.625394788801188 10.313400361846785 #
point $-1 -68.639790032654801 -44.625394788801188 10.313400361846785 #
straight-curve $-1 -68.639790032654801 0 10.313400361846785 0 -1 0 I I #
End-of-ACIS-data 