500 0 15 0           
7 Unknown 11 ACIS 5.0 NT 24 Fri Mar 26 16:56:17 1999 
-1 9.9999999999999995e-007 1e-010 
body $-1 $15 $-1 $16 #
body $-1 $17 $-1 $18 #
body $-1 $19 $-1 $20 #
body $-1 $21 $-1 $22 #
body $-1 $23 $-1 $24 #
body $-1 $25 $-1 $26 #
body $-1 $27 $-1 $28 #
body $-1 $29 $-1 $30 #
body $-1 $31 $-1 $32 #
body $-1 $33 $-1 $34 #
body $-1 $35 $-1 $36 #
body $-1 $37 $-1 $38 #
body $-1 $39 $-1 $40 #
body $-1 $41 $-1 $42 #
body $-1 $43 $-1 $44 #
lump $-1 $-1 $45 $0 #
transform $-1 1 0 0 0 1 0 0 0 1 62.724082155827503 35.585632339506745 8.1010610026342551 1 rotate no_reflect no_shear #
lump $-1 $-1 $46 $1 #
transform $-1 1 0 0 0 1 0 0 0 1 62.724082155827503 35.585632339506745 8.1010610026342551 1 rotate no_reflect no_shear #
lump $-1 $-1 $47 $2 #
transform $-1 1 0 0 0 1 0 0 0 1 62.724082155827503 35.585632339506745 8.1010610026342551 1 rotate no_reflect no_shear #
lump $-1 $-1 $48 $3 #
transform $-1 1 0 0 0 1 0 0 0 1 62.724082155827503 35.585632339506745 8.1010610026342551 1 rotate no_reflect no_shear #
lump $-1 $-1 $49 $4 #
transform $-1 1 0 0 0 1 0 0 0 1 62.724082155827503 35.585632339506745 8.1010610026342551 1 rotate no_reflect no_shear #
lump $-1 $-1 $50 $5 #
transform $-1 1 0 0 0 1 0 0 0 1 62.724082155827503 35.585632339506745 8.1010610026342551 1 rotate no_reflect no_shear #
lump $-1 $-1 $51 $6 #
transform $-1 1 0 0 0 1 0 0 0 1 62.724082155827503 35.585632339506745 8.1010610026342551 1 rotate no_reflect no_shear #
lump $-1 $-1 $52 $7 #
transform $-1 1 0 0 0 1 0 0 0 1 62.724082155827503 35.585632339506745 8.1010610026342551 1 rotate no_reflect no_shear #
lump $-1 $-1 $53 $8 #
transform $-1 1 0 0 0 1 0 0 0 1 62.724082155827503 35.585632339506745 8.1010610026342551 1 rotate no_reflect no_shear #
lump $-1 $-1 $54 $9 #
transform $-1 1 0 0 0 1 0 0 0 1 62.724082155827503 35.585632339506745 8.1010610026342551 1 rotate no_reflect no_shear #
lump $-1 $-1 $55 $10 #
transform $-1 1 0 0 0 1 0 0 0 1 62.724082155827503 35.585632339506745 8.1010610026342551 1 rotate no_reflect no_shear #
lump $-1 $-1 $56 $11 #
transform $-1 1 0 0 0 1 0 0 0 1 62.724082155827503 35.585632339506745 8.1010610026342551 1 rotate no_reflect no_shear #
lump $-1 $-1 $57 $12 #
transform $-1 1 0 0 0 1 0 0 0 1 62.724082155827503 35.585632339506745 8.1010610026342551 1 rotate no_reflect no_shear #
lump $-1 $-1 $58 $13 #
transform $-1 1 0 0 0 1 0 0 0 1 62.724082155827503 35.585632339506745 8.1010610026342551 1 rotate no_reflect no_shear #
lump $-1 $-1 $59 $14 #
transform $-1 1 0 0 0 1 0 0 0 1 62.724082155827503 35.585632339506745 8.1010610026342551 1 rotate no_reflect no_shear #
shell $-1 $-1 $-1 $60 $-1 $15 #
shell $-1 $-1 $-1 $61 $-1 $17 #
shell $-1 $-1 $-1 $62 $-1 $19 #
shell $-1 $-1 $-1 $63 $-1 $21 #
shell $-1 $-1 $-1 $64 $-1 $23 #
shell $-1 $-1 $-1 $65 $-1 $25 #
shell $-1 $-1 $-1 $66 $-1 $27 #
shell $-1 $-1 $-1 $67 $-1 $29 #
shell $-1 $-1 $-1 $68 $-1 $31 #
shell $-1 $-1 $-1 $69 $-1 $33 #
shell $-1 $-1 $-1 $70 $-1 $35 #
shell $-1 $-1 $-1 $71 $-1 $37 #
shell $-1 $-1 $-1 $72 $-1 $39 #
shell $-1 $-1 $-1 $73 $-1 $41 #
shell $-1 $-1 $-1 $74 $-1 $43 #
face $-1 $75 $76 $45 $-1 $77 forward single #
face $-1 $78 $79 $46 $-1 $80 forward single #
face $-1 $81 $82 $47 $-1 $83 forward single #
face $-1 $84 $85 $48 $-1 $86 reversed single #
face $-1 $87 $88 $49 $-1 $89 forward single #
face $-1 $90 $91 $50 $-1 $92 forward single #
face $-1 $93 $94 $51 $-1 $95 reversed single #
face $-1 $96 $97 $52 $-1 $98 forward single #
face $-1 $99 $100 $53 $-1 $101 forward single #
face $-1 $102 $103 $54 $-1 $104 reversed single #
face $-1 $105 $106 $55 $-1 $107 forward single #
face $-1 $108 $109 $56 $-1 $110 forward single #
face $-1 $111 $112 $57 $-1 $113 reversed single #
face $-1 $114 $115 $58 $-1 $116 forward single #
face $-1 $117 $118 $59 $-1 $119 forward single #
face $-1 $120 $121 $45 $-1 $122 reversed single #
loop $-1 $-1 $123 $60 #
plane-surface $-1 0 0 8.1010610026342551 0 0 1 1 0 0 forward_v I I I I #
face $-1 $124 $125 $46 $-1 $126 reversed single #
loop $-1 $-1 $127 $61 #
plane-surface $-1 -59.013928733137554 0 -1.2936549034655034 0 0 1 1 0 0 forward_v I I I I #
face $-1 $128 $129 $47 $-1 $130 reversed single #
loop $-1 $-1 $131 $62 #
plane-surface $-1 59.013928733137547 0 -1.2936549034655034 0 0 1 1 0 0 forward_v I I I I #
face $-1 $132 $133 $48 $-1 $134 reversed single #
loop $-1 $-1 $135 $63 #
plane-surface $-1 -33.893203952386322 56.735513739520982 146.30991874151502 -1 0 0 0 0.61566148304635926 0.78801074757464917 forward_v I I I I #
face $-1 $136 $137 $49 $-1 $138 forward single #
loop $-1 $139 $140 $64 #
cone-surface $-1 -44.142964444828436 31.662787744271164 4.5043210883185401 0 -0.61566148304635926 -0.78801074757464917 1.5 0 0 1 I I 0 1 1.5 forward I I I I #
face $-1 $141 $142 $50 $-1 $143 forward single #
loop $-1 $144 $145 $65 #
cone-surface $-1 -37.993108149363167 31.662787744271164 4.5043210883185401 0 -0.61566148304635926 -0.78801074757464917 1.5 0 0 1 I I 0 1 1.5 forward I I I I #
face $-1 $146 $147 $51 $-1 $148 reversed single #
loop $-1 $-1 $149 $66 #
plane-surface $-1 -6.2413162971625189 56.735513739520982 146.30991874151502 -1 0 0 0 0.61566148304635926 0.78801074757464917 forward_v I I I I #
face $-1 $150 $151 $52 $-1 $152 forward single #
loop $-1 $153 $154 $67 #
cone-surface $-1 -16.491076789604634 31.662787744271164 4.5043210883185401 0 -0.61566148304635926 -0.78801074757464917 1.5 0 0 1 I I 0 1 1.5 forward I I I I #
face $-1 $155 $156 $53 $-1 $157 forward single #
loop $-1 $158 $159 $68 #
cone-surface $-1 -10.341220494139364 31.662787744271164 4.5043210883185401 0 -0.61566148304635926 -0.78801074757464917 1.5 0 0 1 I I 0 1 1.5 forward I I I I #
face $-1 $160 $161 $54 $-1 $162 reversed single #
loop $-1 $-1 $163 $69 #
plane-surface $-1 21.410571358061283 56.735513739520982 146.30991874151502 -1 0 0 0 0.61566148304635926 0.78801074757464917 forward_v I I I I #
face $-1 $164 $165 $55 $-1 $166 forward single #
loop $-1 $167 $168 $70 #
cone-surface $-1 11.160810865619169 31.662787744271164 4.5043210883185401 0 -0.61566148304635926 -0.78801074757464917 1.5 0 0 1 I I 0 1 1.5 forward I I I I #
face $-1 $169 $170 $56 $-1 $171 forward single #
loop $-1 $172 $173 $71 #
cone-surface $-1 17.310667161084439 31.662787744271164 4.5043210883185401 0 -0.61566148304635926 -0.78801074757464917 1.5 0 0 1 I I 0 1 1.5 forward I I I I #
face $-1 $174 $175 $57 $-1 $176 reversed single #
loop $-1 $-1 $177 $72 #
plane-surface $-1 49.062459013285086 56.735513739520982 146.30991874151502 -1 0 0 0 0.61566148304635926 0.78801074757464917 forward_v I I I I #
face $-1 $178 $179 $58 $-1 $180 forward single #
loop $-1 $181 $182 $73 #
cone-surface $-1 38.812698520842972 31.662787744271164 4.5043210883185401 0 -0.61566148304635926 -0.78801074757464917 1.5 0 0 1 I I 0 1 1.5 forward I I I I #
face $-1 $183 $184 $59 $-1 $185 forward single #
loop $-1 $186 $187 $74 #
cone-surface $-1 44.962554816308241 31.662787744271164 4.5043210883185401 0 -0.61566148304635926 -0.78801074757464917 1.5 0 0 1 I I 0 1 1.5 forward I I I I #
face $-1 $188 $189 $45 $-1 $190 reversed single #
loop $-1 $-1 $191 $75 #
plane-surface $-1 0 0 -8.1010610026342551 0 0 1 1 0 0 forward_v I I I I #
coedge $-1 $192 $193 $194 $195 forward $76 $-1 #
face $-1 $196 $197 $46 $-1 $198 reversed single #
loop $-1 $-1 $199 $78 #
plane-surface $-1 -59.013928733137554 0 -5.4426580326505842 0 0 1 1 0 0 forward_v I I I I #
coedge $-1 $200 $201 $202 $203 forward $79 $-1 #
face $-1 $204 $205 $47 $-1 $206 reversed single #
loop $-1 $-1 $207 $81 #
plane-surface $-1 59.013928733137547 0 -5.4426580326505842 0 0 1 1 0 0 forward_v I I I I #
coedge $-1 $208 $209 $210 $211 reversed $82 $-1 #
face $-1 $212 $213 $48 $-1 $214 reversed single #
loop $-1 $-1 $215 $84 #
plane-surface $-1 -41.068036297095802 -20.498089146035895 47.45541700042034 0 0.61566148304635926 0.78801074757464917 1 0 0 forward_v I I I I #
coedge $-1 $216 $217 $218 $219 reversed $85 $-1 #
face $-1 $-1 $220 $49 $-1 $221 forward single #
loop $-1 $222 $223 $87 #
cone-surface $-1 -44.142964444828436 30.134418963296966 2.5480982957120002 0 -0.61566148304635926 -0.78801074757464917 0.75 0 0 1 I I -0.70710678118654768 0.70710678118654735 0.75 forward I I I I #
loop $-1 $-1 $224 $64 #
coedge $-1 $140 $140 $225 $226 reversed $88 $-1 #
face $-1 $-1 $227 $50 $-1 $228 forward single #
loop $-1 $229 $230 $90 #
cone-surface $-1 -37.993108149363167 30.134418963296966 2.5480982957120002 0 -0.61566148304635926 -0.78801074757464917 0.75 0 0 1 I I -0.70710678118654768 0.70710678118654735 0.75 forward I I I I #
loop $-1 $-1 $231 $65 #
coedge $-1 $145 $145 $232 $233 reversed $91 $-1 #
face $-1 $234 $235 $51 $-1 $236 reversed single #
loop $-1 $-1 $237 $93 #
plane-surface $-1 -13.416148641871999 -20.498089146035895 47.45541700042034 0 0.61566148304635926 0.78801074757464917 1 0 0 forward_v I I I I #
coedge $-1 $238 $239 $240 $241 reversed $94 $-1 #
face $-1 $-1 $242 $52 $-1 $243 forward single #
loop $-1 $244 $245 $96 #
cone-surface $-1 -16.491076789604634 30.134418963296966 2.5480982957120002 0 -0.61566148304635926 -0.78801074757464917 0.75 0 0 1 I I -0.70710678118654768 0.70710678118654735 0.75 forward I I I I #
loop $-1 $-1 $246 $67 #
coedge $-1 $154 $154 $247 $248 reversed $97 $-1 #
face $-1 $-1 $249 $53 $-1 $250 forward single #
loop $-1 $251 $252 $99 #
cone-surface $-1 -10.341220494139364 30.134418963296966 2.5480982957120002 0 -0.61566148304635926 -0.78801074757464917 0.75 0 0 1 I I -0.70710678118654768 0.70710678118654735 0.75 forward I I I I #
loop $-1 $-1 $253 $68 #
coedge $-1 $159 $159 $254 $255 reversed $100 $-1 #
face $-1 $256 $257 $54 $-1 $258 reversed single #
loop $-1 $-1 $259 $102 #
plane-surface $-1 14.235739013351804 -20.498089146035895 47.45541700042034 0 0.61566148304635926 0.78801074757464917 1 0 0 forward_v I I I I #
coedge $-1 $260 $261 $262 $263 reversed $103 $-1 #
face $-1 $-1 $264 $55 $-1 $265 forward single #
loop $-1 $266 $267 $105 #
cone-surface $-1 11.160810865619169 30.134418963296966 2.5480982957120002 0 -0.61566148304635926 -0.78801074757464917 0.75 0 0 1 I I -0.70710678118654768 0.70710678118654735 0.75 forward I I I I #
loop $-1 $-1 $268 $70 #
coedge $-1 $168 $168 $269 $270 reversed $106 $-1 #
face $-1 $-1 $271 $56 $-1 $272 forward single #
loop $-1 $273 $274 $108 #
cone-surface $-1 17.310667161084439 30.134418963296966 2.5480982957120002 0 -0.61566148304635926 -0.78801074757464917 0.75 0 0 1 I I -0.70710678118654768 0.70710678118654735 0.75 forward I I I I #
loop $-1 $-1 $275 $71 #
coedge $-1 $173 $173 $276 $277 reversed $109 $-1 #
face $-1 $278 $279 $57 $-1 $280 reversed single #
loop $-1 $-1 $281 $111 #
plane-surface $-1 41.887626668575606 -20.498089146035895 47.45541700042034 0 0.61566148304635926 0.78801074757464917 1 0 0 forward_v I I I I #
coedge $-1 $282 $283 $284 $285 reversed $112 $-1 #
face $-1 $-1 $286 $58 $-1 $287 forward single #
loop $-1 $288 $289 $114 #
cone-surface $-1 38.812698520842972 30.134418963296966 2.5480982957120002 0 -0.61566148304635926 -0.78801074757464917 0.75 0 0 1 I I -0.70710678118654768 0.70710678118654735 0.75 forward I I I I #
loop $-1 $-1 $290 $73 #
coedge $-1 $182 $182 $291 $292 reversed $115 $-1 #
face $-1 $-1 $293 $59 $-1 $294 forward single #
loop $-1 $295 $296 $117 #
cone-surface $-1 44.962554816308241 30.134418963296966 2.5480982957120002 0 -0.61566148304635926 -0.78801074757464917 0.75 0 0 1 I I -0.70710678118654768 0.70710678118654735 0.75 forward I I I I #
loop $-1 $-1 $297 $74 #
coedge $-1 $187 $187 $298 $299 reversed $118 $-1 #
face $-1 $300 $301 $45 $-1 $302 reversed single #
loop $-1 $-1 $303 $120 #
plane-surface $-1 0 -35.585632339506745 0 0 1 0 0 0 1 forward_v I I I I #
coedge $-1 $304 $305 $306 $307 forward $121 $-1 #
coedge $-1 $308 $123 $309 $310 forward $76 $-1 #
coedge $-1 $123 $308 $311 $312 forward $76 $-1 #
coedge $-1 $313 $314 $123 $195 reversed $315 $-1 #
edge $-1 $316 -35.585632339506745 $317 35.585632339506745 $194 $318 forward 7 unknown #
face $-1 $319 $320 $46 $-1 $321 reversed single #
loop $-1 $-1 $322 $124 #
plane-surface $-1 -55.303775310447605 0 -3.3681564680580438 -1 0 0 0 0 1 forward_v I I I I #
coedge $-1 $323 $324 $325 $326 forward $125 $-1 #
coedge $-1 $327 $127 $328 $329 reversed $79 $-1 #
coedge $-1 $127 $327 $330 $331 reversed $79 $-1 #
coedge $-1 $322 $332 $127 $203 reversed $197 $-1 #
edge $-1 $333 -35.585632339506745 $334 35.585632339506745 $202 $335 forward 7 unknown #
face $-1 $336 $337 $47 $-1 $338 reversed single #
loop $-1 $-1 $339 $128 #
plane-surface $-1 55.303775310447598 0 -3.3681564680580438 1 0 0 0 0 -1 forward_v I I I I #
coedge $-1 $340 $341 $342 $343 reversed $129 $-1 #
coedge $-1 $344 $131 $345 $346 reversed $82 $-1 #
coedge $-1 $131 $344 $347 $348 reversed $82 $-1 #
coedge $-1 $349 $350 $131 $211 forward $351 $-1 #
edge $-1 $352 -35.585632339506745 $353 35.585632339506745 $210 $354 forward 7 unknown #
face $-1 $355 $356 $48 $-1 $357 reversed single #
loop $-1 $-1 $358 $132 #
plane-surface $-1 -48.242868641805281 56.735513739520982 146.30991874151502 1 0 0 0 -0.61566148304635926 -0.78801074757464917 forward_v I I I I #
coedge $-1 $359 $360 $361 $362 reversed $133 $-1 #
coedge $-1 $217 $135 $363 $364 reversed $85 $-1 #
coedge $-1 $135 $216 $359 $365 reversed $85 $-1 #
coedge $-1 $361 $366 $135 $219 forward $356 $-1 #
edge $-1 $367 65.053898368123257 $368 69.516948732903586 $218 $369 forward 7 unknown #
loop $-1 $-1 $225 $136 #
plane-surface $-1 -41.068036297095802 -20.498089146035895 47.45541700042034 0 0.61566148304635926 0.78801074757464917 1 0 0 forward_v I I I I #
loop $-1 $-1 $370 $87 #
coedge $-1 $223 $223 $224 $371 reversed $137 $-1 #
coedge $-1 $224 $224 $223 $371 forward $139 $-1 #
coedge $-1 $225 $225 $140 $226 forward $220 $-1 #
edge $-1 $372 -1.1809549482160493e-015 $372 6.2831853071795996 $225 $373 forward 7 unknown #
loop $-1 $-1 $232 $141 #
plane-surface $-1 -41.068036297095802 -20.498089146035895 47.45541700042034 0 0.61566148304635926 0.78801074757464917 1 0 0 forward_v I I I I #
loop $-1 $-1 $374 $90 #
coedge $-1 $230 $230 $231 $375 reversed $142 $-1 #
coedge $-1 $231 $231 $230 $375 forward $144 $-1 #
coedge $-1 $232 $232 $145 $233 forward $227 $-1 #
edge $-1 $376 -1.1809549482160493e-015 $376 6.2831853071795996 $232 $377 forward 7 unknown #
face $-1 $378 $379 $51 $-1 $380 forward single #
loop $-1 $-1 $381 $146 #
plane-surface $-1 -20.590980986581478 56.735513739520982 146.30991874151502 1 0 0 0 -0.61566148304635926 -0.78801074757464917 forward_v I I I I #
coedge $-1 $382 $383 $384 $385 reversed $147 $-1 #
coedge $-1 $239 $149 $386 $387 reversed $94 $-1 #
coedge $-1 $149 $238 $382 $388 reversed $94 $-1 #
coedge $-1 $384 $389 $149 $241 forward $390 $-1 #
edge $-1 $391 65.053898368123257 $392 69.516948732903586 $240 $393 forward 7 unknown #
loop $-1 $-1 $247 $150 #
plane-surface $-1 -13.416148641871999 -20.498089146035895 47.45541700042034 0 0.61566148304635926 0.78801074757464917 1 0 0 forward_v I I I I #
loop $-1 $-1 $394 $96 #
coedge $-1 $245 $245 $246 $395 reversed $151 $-1 #
coedge $-1 $246 $246 $245 $395 forward $153 $-1 #
coedge $-1 $247 $247 $154 $248 forward $242 $-1 #
edge $-1 $396 -1.1809549482160493e-015 $396 6.2831853071795996 $247 $397 forward 7 unknown #
loop $-1 $-1 $254 $155 #
plane-surface $-1 -13.416148641871999 -20.498089146035895 47.45541700042034 0 0.61566148304635926 0.78801074757464917 1 0 0 forward_v I I I I #
loop $-1 $-1 $398 $99 #
coedge $-1 $252 $252 $253 $399 reversed $156 $-1 #
coedge $-1 $253 $253 $252 $399 forward $158 $-1 #
coedge $-1 $254 $254 $159 $255 forward $249 $-1 #
edge $-1 $400 -1.1809549482160493e-015 $400 6.2831853071795996 $254 $401 forward 7 unknown #
face $-1 $402 $403 $54 $-1 $404 forward single #
loop $-1 $-1 $405 $160 #
plane-surface $-1 7.0609066686423239 56.735513739520982 146.30991874151502 1 0 0 0 -0.61566148304635926 -0.78801074757464917 forward_v I I I I #
coedge $-1 $406 $407 $408 $409 reversed $161 $-1 #
coedge $-1 $261 $163 $410 $411 reversed $103 $-1 #
coedge $-1 $163 $260 $406 $412 reversed $103 $-1 #
coedge $-1 $408 $413 $163 $263 forward $414 $-1 #
edge $-1 $415 65.053898368123257 $416 69.516948732903586 $262 $417 forward 7 unknown #
loop $-1 $-1 $269 $164 #
plane-surface $-1 14.235739013351804 -20.498089146035895 47.45541700042034 0 0.61566148304635926 0.78801074757464917 1 0 0 forward_v I I I I #
loop $-1 $-1 $418 $105 #
coedge $-1 $267 $267 $268 $419 reversed $165 $-1 #
coedge $-1 $268 $268 $267 $419 forward $167 $-1 #
coedge $-1 $269 $269 $168 $270 forward $264 $-1 #
edge $-1 $420 -1.1809549482160493e-015 $420 6.2831853071795996 $269 $421 forward 7 unknown #
loop $-1 $-1 $276 $169 #
plane-surface $-1 14.235739013351804 -20.498089146035895 47.45541700042034 0 0.61566148304635926 0.78801074757464917 1 0 0 forward_v I I I I #
loop $-1 $-1 $422 $108 #
coedge $-1 $274 $274 $275 $423 reversed $170 $-1 #
coedge $-1 $275 $275 $274 $423 forward $172 $-1 #
coedge $-1 $276 $276 $173 $277 forward $271 $-1 #
edge $-1 $424 -1.1809549482160493e-015 $424 6.2831853071795996 $276 $425 forward 7 unknown #
face $-1 $426 $427 $57 $-1 $428 forward single #
loop $-1 $-1 $429 $174 #
plane-surface $-1 34.712794323866127 56.735513739520982 146.30991874151502 1 0 0 0 -0.61566148304635926 -0.78801074757464917 forward_v I I I I #
coedge $-1 $430 $431 $432 $433 reversed $175 $-1 #
coedge $-1 $283 $177 $434 $435 reversed $112 $-1 #
coedge $-1 $177 $282 $430 $436 reversed $112 $-1 #
coedge $-1 $432 $437 $177 $285 forward $438 $-1 #
edge $-1 $439 65.053898368123257 $440 69.516948732903586 $284 $441 forward 7 unknown #
loop $-1 $-1 $291 $178 #
plane-surface $-1 41.887626668575606 -20.498089146035895 47.45541700042034 0 0.61566148304635926 0.78801074757464917 1 0 0 forward_v I I I I #
loop $-1 $-1 $442 $114 #
coedge $-1 $289 $289 $290 $443 reversed $179 $-1 #
coedge $-1 $290 $290 $289 $443 forward $181 $-1 #
coedge $-1 $291 $291 $182 $292 forward $286 $-1 #
edge $-1 $444 -1.1809549482160493e-015 $444 6.2831853071795996 $291 $445 forward 7 unknown #
loop $-1 $-1 $298 $183 #
plane-surface $-1 41.887626668575606 -20.498089146035895 47.45541700042034 0 0.61566148304635926 0.78801074757464917 1 0 0 forward_v I I I I #
loop $-1 $-1 $446 $117 #
coedge $-1 $296 $296 $297 $447 reversed $184 $-1 #
coedge $-1 $297 $297 $296 $447 forward $186 $-1 #
coedge $-1 $298 $298 $187 $299 forward $293 $-1 #
edge $-1 $448 -1.1809549482160493e-015 $448 6.2831853071795996 $298 $449 forward 7 unknown #
face $-1 $450 $451 $45 $-1 $452 reversed single #
loop $-1 $-1 $453 $188 #
plane-surface $-1 -62.724082155827503 0 0 1 0 0 0 0 -1 forward_v I I I I #
coedge $-1 $454 $311 $455 $456 forward $189 $-1 #
coedge $-1 $457 $191 $454 $458 forward $121 $-1 #
coedge $-1 $191 $457 $459 $460 forward $121 $-1 #
coedge $-1 $314 $313 $191 $307 reversed $315 $-1 #
edge $-1 $461 -35.585632339506745 $462 35.585632339506745 $306 $463 forward 7 unknown #
coedge $-1 $193 $192 $464 $465 forward $76 $-1 #
coedge $-1 $466 $467 $192 $310 reversed $451 $-1 #
edge $-1 $317 -62.724082155827503 $468 62.724082155827503 $309 $469 forward 7 unknown #
coedge $-1 $303 $470 $193 $312 reversed $189 $-1 #
edge $-1 $471 -62.724082155827503 $316 62.724082155827503 $311 $472 forward 7 unknown #
coedge $-1 $306 $194 $470 $473 forward $315 $-1 #
coedge $-1 $194 $306 $466 $474 reversed $315 $-1 #
loop $-1 $-1 $313 $450 #
vertex $-1 $195 $475 #
vertex $-1 $195 $476 #
straight-curve $-1 62.724082155827503 0 8.1010610026342551 0 1 0 I I #
face $-1 $477 $478 $46 $-1 $479 reversed single #
loop $-1 $-1 $480 $196 #
plane-surface $-1 0 -35.585632339506745 0 0 1 0 0 0 1 forward_v I I I I #
coedge $-1 $325 $202 $481 $482 reversed $197 $-1 #
coedge $-1 $483 $199 $480 $484 reversed $125 $-1 #
coedge $-1 $199 $483 $485 $486 reversed $125 $-1 #
coedge $-1 $332 $322 $199 $326 reversed $197 $-1 #
edge $-1 $487 -35.585632339506745 $488 35.585632339506745 $325 $489 forward 7 unknown #
coedge $-1 $201 $200 $490 $491 reversed $79 $-1 #
coedge $-1 $492 $493 $200 $329 forward $494 $-1 #
edge $-1 $495 -33.217117789258722 $334 -25.796810943878828 $328 $496 forward 7 unknown #
coedge $-1 $497 $481 $201 $331 forward $320 $-1 #
edge $-1 $333 25.796810943878828 $498 33.217117789258722 $330 $499 forward 7 unknown #
coedge $-1 $202 $325 $492 $500 reversed $197 $-1 #
vertex $-1 $331 $501 #
vertex $-1 $329 $502 #
straight-curve $-1 -55.303775310447605 0 -1.2936549034655034 0 1 0 I I #
face $-1 $503 $504 $47 $-1 $505 reversed single #
loop $-1 $-1 $347 $204 #
plane-surface $-1 0 -35.585632339506745 0 0 1 0 0 0 1 forward_v I I I I #
coedge $-1 $506 $507 $508 $509 reversed $205 $-1 #
coedge $-1 $510 $207 $511 $512 reversed $129 $-1 #
coedge $-1 $207 $510 $513 $514 reversed $129 $-1 #
coedge $-1 $350 $349 $207 $343 forward $351 $-1 #
edge $-1 $515 -35.585632339506745 $516 35.585632339506745 $342 $517 forward 7 unknown #
coedge $-1 $209 $208 $507 $518 forward $82 $-1 #
coedge $-1 $519 $508 $208 $346 forward $504 $-1 #
edge $-1 $520 25.796810943878825 $352 33.217117789258722 $345 $521 forward 7 unknown #
coedge $-1 $522 $523 $209 $348 forward $337 $-1 #
edge $-1 $353 -33.217117789258722 $524 -25.796810943878825 $347 $525 forward 7 unknown #
coedge $-1 $342 $210 $523 $526 forward $351 $-1 #
coedge $-1 $210 $342 $519 $527 reversed $351 $-1 #
loop $-1 $-1 $210 $503 #
vertex $-1 $527 $528 #
vertex $-1 $526 $529 #
straight-curve $-1 62.724082155827503 0 -1.2936549034655034 0 -1 0 I I #
face $-1 $-1 $530 $48 $-1 $531 forward single #
loop $-1 $-1 $218 $212 #
plane-surface $-1 0 35.585632339506745 0 0 -1 0 0 0 -1 forward_v I I I I #
coedge $-1 $532 $533 $534 $535 reversed $213 $-1 #
coedge $-1 $536 $215 $217 $365 forward $133 $-1 #
coedge $-1 $215 $536 $532 $537 forward $133 $-1 #
coedge $-1 $534 $218 $215 $362 forward $356 $-1 #
edge $-1 $368 13.359185803838422 $538 27.70885049325738 $361 $539 forward 7 unknown #
coedge $-1 $540 $541 $216 $364 forward $530 $-1 #
edge $-1 $542 1.5054316166539721 $367 7.2178754697462537 $363 $543 forward 7 unknown #
edge $-1 $368 -71.17126467901349 $542 -63.922069321368781 $217 $544 forward 7 unknown #
coedge $-1 $218 $534 $540 $545 reversed $356 $-1 #
vertex $-1 $545 $546 #
vertex $-1 $219 $547 #
straight-curve $-1 -33.893203952386322 35.585632339506745 73.15495937075751 0 0 -1 I I #
coedge $-1 $370 $370 $-1 $548 reversed $222 $-1 #
edge $-1 $549 0 $549 6.2831853071796004 $223 $550 forward 7 unknown #
vertex $-1 $226 $551 #
ellipse-curve $-1 -44.142964444828436 32.729410412960597 5.8695358202440984 0 0.61566148304635926 0.78801074757464917 1.5 0 0 1 I I #
coedge $-1 $374 $374 $-1 $552 reversed $229 $-1 #
edge $-1 $553 0 $553 6.2831853071796004 $230 $554 forward 7 unknown #
vertex $-1 $233 $555 #
ellipse-curve $-1 -37.993108149363167 32.729410412960597 5.8695358202440984 0 0.61566148304635926 0.78801074757464917 1.5 0 0 1 I I #
face $-1 $-1 $390 $51 $-1 $556 reversed single #
loop $-1 $-1 $557 $234 #
plane-surface $-1 0 0 8.1010610026342551 0 0 1 1 0 0 forward_v I I I I #
coedge $-1 $558 $559 $560 $561 reversed $235 $-1 #
coedge $-1 $562 $237 $239 $388 forward $147 $-1 #
coedge $-1 $237 $562 $558 $563 forward $147 $-1 #
coedge $-1 $560 $240 $237 $385 forward $390 $-1 #
edge $-1 $392 -0.46675802377348052 $564 13.882906665645478 $384 $565 forward 7 unknown #
coedge $-1 $566 $567 $238 $387 forward $379 $-1 #
edge $-1 $568 1.5054316166539721 $391 7.2178754697462537 $386 $569 forward 7 unknown #
edge $-1 $392 -71.17126467901349 $568 -63.922069321368781 $239 $570 forward 7 unknown #
coedge $-1 $240 $560 $566 $571 reversed $390 $-1 #
loop $-1 $-1 $560 $378 #
vertex $-1 $571 $572 #
vertex $-1 $241 $573 #
straight-curve $-1 -6.2413162971625189 35.585632339506745 73.15495937075751 0 0 -1 I I #
coedge $-1 $394 $394 $-1 $574 reversed $244 $-1 #
edge $-1 $575 0 $575 6.2831853071796004 $245 $576 forward 7 unknown #
vertex $-1 $248 $577 #
ellipse-curve $-1 -16.491076789604634 32.729410412960597 5.8695358202440984 0 0.61566148304635926 0.78801074757464917 1.5 0 0 1 I I #
coedge $-1 $398 $398 $-1 $578 reversed $251 $-1 #
edge $-1 $579 0 $579 6.2831853071796004 $252 $580 forward 7 unknown #
vertex $-1 $255 $581 #
ellipse-curve $-1 -10.341220494139364 32.729410412960597 5.8695358202440984 0 0.61566148304635926 0.78801074757464917 1.5 0 0 1 I I #
face $-1 $-1 $414 $54 $-1 $582 reversed single #
loop $-1 $-1 $583 $256 #
plane-surface $-1 0 0 8.1010610026342551 0 0 1 1 0 0 forward_v I I I I #
coedge $-1 $584 $585 $586 $587 reversed $257 $-1 #
coedge $-1 $588 $259 $261 $412 forward $161 $-1 #
coedge $-1 $259 $588 $584 $589 forward $161 $-1 #
coedge $-1 $586 $262 $259 $409 forward $414 $-1 #
edge $-1 $416 -14.292701851385381 $590 0.056962838033578045 $408 $591 forward 7 unknown #
coedge $-1 $592 $593 $260 $411 forward $403 $-1 #
edge $-1 $594 1.5054316166539721 $415 7.2178754697462537 $410 $595 forward 7 unknown #
edge $-1 $416 -71.17126467901349 $594 -63.922069321368781 $261 $596 forward 7 unknown #
coedge $-1 $262 $586 $592 $597 reversed $414 $-1 #
loop $-1 $-1 $586 $402 #
vertex $-1 $597 $598 #
vertex $-1 $263 $599 #
straight-curve $-1 21.410571358061283 35.585632339506745 73.15495937075751 0 0 -1 I I #
coedge $-1 $418 $418 $-1 $600 reversed $266 $-1 #
edge $-1 $601 0 $601 6.2831853071796004 $267 $602 forward 7 unknown #
vertex $-1 $270 $603 #
ellipse-curve $-1 11.160810865619169 32.729410412960597 5.8695358202440984 0 0.61566148304635926 0.78801074757464917 1.5 0 0 1 I I #
coedge $-1 $422 $422 $-1 $604 reversed $273 $-1 #
edge $-1 $605 0 $605 6.2831853071796004 $274 $606 forward 7 unknown #
vertex $-1 $277 $607 #
ellipse-curve $-1 17.310667161084439 32.729410412960597 5.8695358202440984 0 0.61566148304635926 0.78801074757464917 1.5 0 0 1 I I #
face $-1 $-1 $438 $57 $-1 $608 reversed single #
loop $-1 $-1 $609 $278 #
plane-surface $-1 0 0 8.1010610026342551 0 0 1 1 0 0 forward_v I I I I #
coedge $-1 $610 $611 $612 $613 reversed $279 $-1 #
coedge $-1 $614 $281 $283 $436 forward $175 $-1 #
coedge $-1 $281 $614 $610 $615 forward $175 $-1 #
coedge $-1 $612 $284 $281 $433 forward $438 $-1 #
edge $-1 $440 -28.118645678997282 $616 -13.768980989578324 $432 $617 forward 7 unknown #
coedge $-1 $618 $619 $282 $435 forward $427 $-1 #
edge $-1 $620 1.5054316166539721 $439 7.2178754697462537 $434 $621 forward 7 unknown #
edge $-1 $440 -71.17126467901349 $620 -63.922069321368781 $283 $622 forward 7 unknown #
coedge $-1 $284 $612 $618 $623 reversed $438 $-1 #
loop $-1 $-1 $612 $426 #
vertex $-1 $623 $624 #
vertex $-1 $285 $625 #
straight-curve $-1 49.062459013285086 35.585632339506745 73.15495937075751 0 0 -1 I I #
coedge $-1 $442 $442 $-1 $626 reversed $288 $-1 #
edge $-1 $627 0 $627 6.2831853071796004 $289 $628 forward 7 unknown #
vertex $-1 $292 $629 #
ellipse-curve $-1 38.812698520842972 32.729410412960597 5.8695358202440984 0 0.61566148304635926 0.78801074757464917 1.5 0 0 1 I I #
coedge $-1 $446 $446 $-1 $630 reversed $295 $-1 #
edge $-1 $631 0 $631 6.2831853071796004 $296 $632 forward 7 unknown #
vertex $-1 $299 $633 #
ellipse-curve $-1 44.962554816308241 32.729410412960597 5.8695358202440984 0 0.61566148304635926 0.78801074757464917 1.5 0 0 1 I I #
face $-1 $-1 $315 $45 $-1 $634 reversed single #
loop $-1 $-1 $466 $300 #
plane-surface $-1 0 35.585632339506745 0 0 -1 0 0 0 -1 forward_v I I I I #
coedge $-1 $635 $464 $467 $636 forward $301 $-1 #
coedge $-1 $470 $303 $304 $458 reversed $189 $-1 #
coedge $-1 $464 $635 $303 $456 reversed $301 $-1 #
edge $-1 $471 -8.1010610026342551 $637 8.1010610026342551 $455 $638 forward 7 unknown #
coedge $-1 $305 $304 $635 $639 forward $121 $-1 #
edge $-1 $462 -62.724082155827503 $637 62.724082155827503 $454 $640 forward 7 unknown #
coedge $-1 $467 $466 $305 $460 reversed $451 $-1 #
edge $-1 $641 -62.724082155827503 $461 62.724082155827503 $459 $642 forward 7 unknown #
vertex $-1 $307 $643 #
vertex $-1 $473 $644 #
straight-curve $-1 62.724082155827503 0 -8.1010610026342551 0 -1 0 I I #
coedge $-1 $453 $455 $308 $465 reversed $301 $-1 #
edge $-1 $468 -35.585632339506745 $471 35.585632339506745 $464 $645 forward 7 unknown #
coedge $-1 $459 $309 $314 $474 forward $451 $-1 #
coedge $-1 $309 $459 $453 $636 reversed $451 $-1 #
vertex $-1 $310 $646 #
straight-curve $-1 0 35.585632339506745 8.1010610026342551 -1 0 0 I I #
coedge $-1 $311 $454 $313 $473 reversed $189 $-1 #
vertex $-1 $465 $647 #
straight-curve $-1 0 -35.585632339506745 8.1010610026342551 1 0 0 I I #
edge $-1 $316 -8.1010610026342551 $462 8.1010610026342551 $313 $648 forward 7 unknown #
edge $-1 $317 -8.1010610026342551 $461 8.1010610026342551 $314 $649 forward 7 unknown #
point $-1 62.724082155827503 -35.585632339506745 8.1010610026342551 #
point $-1 62.724082155827503 35.585632339506745 8.1010610026342551 #
face $-1 $-1 $494 $46 $-1 $650 reversed single #
loop $-1 $-1 $651 $319 #
plane-surface $-1 -62.724082155827503 0 0 1 0 0 0 0 -1 forward_v I I I I #
coedge $-1 $481 $497 $323 $484 forward $320 $-1 #
coedge $-1 $330 $480 $322 $482 forward $320 $-1 #
edge $-1 $488 -3.7585797986215623 $333 0.39042333056351852 $481 $652 forward 7 unknown #
coedge $-1 $324 $323 $651 $653 reversed $125 $-1 #
edge $-1 $654 -33.217117789258722 $488 -25.796810943878828 $480 $655 forward 7 unknown #
coedge $-1 $493 $492 $324 $486 forward $494 $-1 #
edge $-1 $487 25.796810943878828 $656 33.217117789258722 $485 $657 forward 7 unknown #
vertex $-1 $486 $658 #
vertex $-1 $484 $659 #
straight-curve $-1 -55.303775310447605 0 -5.4426580326505842 0 -1 0 I I #
coedge $-1 $660 $661 $327 $491 forward $478 $-1 #
edge $-1 $498 -35.585632339506745 $495 35.585632339506745 $490 $662 forward 7 unknown #
coedge $-1 $485 $328 $332 $500 forward $494 $-1 #
coedge $-1 $328 $485 $660 $663 reversed $494 $-1 #
loop $-1 $-1 $485 $477 #
vertex $-1 $663 $664 #
straight-curve $-1 -29.506964366568777 35.585632339506745 -1.2936549034655034 1 0 0 I I #
coedge $-1 $480 $330 $661 $665 forward $320 $-1 #
vertex $-1 $665 $666 #
straight-curve $-1 -29.506964366568777 -35.585632339506745 -1.2936549034655034 -1 0 0 I I #
edge $-1 $334 -0.39042333056351852 $487 3.7585797986215623 $492 $667 forward 7 unknown #
point $-1 -55.303775310447605 -35.585632339506745 -1.2936549034655034 #
point $-1 -55.303775310447605 35.585632339506745 -1.2936549034655034 #
face $-1 $-1 $351 $47 $-1 $668 reversed single #
loop $-1 $-1 $345 $336 #
plane-surface $-1 0 35.585632339506745 0 0 -1 0 0 0 -1 forward_v I I I I #
coedge $-1 $669 $339 $510 $670 reversed $205 $-1 #
coedge $-1 $339 $669 $344 $518 reversed $205 $-1 #
coedge $-1 $345 $513 $339 $509 forward $504 $-1 #
edge $-1 $671 -3.7585797986215623 $520 0.39042333056351852 $508 $672 forward 7 unknown #
coedge $-1 $341 $340 $506 $670 forward $129 $-1 #
coedge $-1 $523 $522 $340 $512 forward $337 $-1 #
edge $-1 $673 25.796810943878825 $515 33.217117789258722 $511 $674 forward 7 unknown #
coedge $-1 $508 $519 $341 $514 forward $504 $-1 #
edge $-1 $516 -33.217117789258722 $671 -25.796810943878825 $513 $675 forward 7 unknown #
vertex $-1 $343 $676 #
vertex $-1 $343 $677 #
straight-curve $-1 62.724082155827503 0 -5.4426580326505842 0 1 0 I I #
edge $-1 $520 -35.585632339506745 $524 35.585632339506745 $507 $678 forward 7 unknown #
coedge $-1 $513 $345 $350 $527 forward $504 $-1 #
vertex $-1 $346 $679 #
straight-curve $-1 29.506964366568774 35.585632339506745 -1.2936549034655034 1 0 0 I I #
coedge $-1 $511 $347 $669 $680 forward $337 $-1 #
coedge $-1 $347 $511 $349 $526 reversed $337 $-1 #
vertex $-1 $348 $681 #
straight-curve $-1 29.506964366568774 -35.585632339506745 -1.2936549034655034 -1 0 0 I I #
edge $-1 $353 1.2936549034655034 $515 5.4426580326505842 $349 $682 forward 7 unknown #
edge $-1 $352 1.2936549034655034 $516 5.4426580326505842 $350 $683 forward 7 unknown #
point $-1 62.724082155827496 35.585632339506745 -1.2936549034655034 #
point $-1 62.724082155827496 -35.585632339506745 -1.2936549034655034 #
loop $-1 $-1 $363 $355 #
plane-surface $-1 0 0 8.1010610026342551 0 0 1 1 0 0 forward_v I I I I #
coedge $-1 $533 $358 $360 $537 reversed $213 $-1 #
coedge $-1 $358 $532 $684 $685 reversed $213 $-1 #
coedge $-1 $366 $361 $358 $535 forward $356 $-1 #
edge $-1 $538 -69.516948732903586 $686 -65.053898368123257 $534 $687 forward 7 unknown #
coedge $-1 $360 $359 $541 $688 reversed $133 $-1 #
edge $-1 $689 63.922069321368781 $538 71.17126467901349 $532 $690 forward 7 unknown #
vertex $-1 $362 $691 #
straight-curve $-1 -20.534018148547901 35.585632339506745 3.6380106378539274 -1 0 0 I I #
coedge $-1 $684 $363 $366 $545 forward $530 $-1 #
coedge $-1 $363 $684 $536 $688 forward $530 $-1 #
vertex $-1 $364 $692 #
straight-curve $-1 -33.893203952386322 28.367756869760491 8.1010610026342533 0 1 0 I I #
straight-curve $-1 -33.893203952386322 -20.498089146035895 47.45541700042034 0 -0.78801074757464917 0.61566148304635926 I I #
edge $-1 $367 33.893203952386322 $686 48.242868641805281 $366 $693 forward 7 unknown #
point $-1 -33.893203952386322 35.585632339506745 8.1010610026342551 #
point $-1 -33.893203952386322 35.585632339506752 3.638010637853931 #
edge $-1 $694 1 $694 0 $370 $-1 forward 7 unknown #
vertex $-1 $371 $695 #
ellipse-curve $-1 -44.142964444828436 30.596165075581734 3.1391063563929866 0 0.61566148304635926 0.78801074757464917 1.5 0 0 1 I I #
point $-1 -42.642964444828436 32.72941041296059 5.8695358202440922 #
edge $-1 $696 1 $696 0 $374 $-1 forward 7 unknown #
vertex $-1 $375 $697 #
ellipse-curve $-1 -37.993108149363167 30.596165075581734 3.1391063563929866 0 0.61566148304635926 0.78801074757464917 1.5 0 0 1 I I #
point $-1 -36.493108149363167 32.72941041296059 5.8695358202440922 #
plane-surface $-1 0 35.585632339506745 0 0 -1 0 0 0 -1 forward_v I I I I #
coedge $-1 $567 $566 $559 $698 forward $379 $-1 #
coedge $-1 $559 $381 $383 $563 reversed $235 $-1 #
coedge $-1 $381 $558 $557 $698 reversed $235 $-1 #
coedge $-1 $389 $384 $381 $561 forward $390 $-1 #
edge $-1 $564 -69.516948732903586 $699 -65.053898368123257 $560 $700 forward 7 unknown #
coedge $-1 $383 $382 $567 $701 reversed $147 $-1 #
edge $-1 $702 63.922069321368781 $564 71.17126467901349 $558 $703 forward 7 unknown #
vertex $-1 $385 $704 #
straight-curve $-1 -6.7080743209359994 35.585632339506745 3.6380106378539274 -1 0 0 I I #
coedge $-1 $557 $386 $389 $571 forward $379 $-1 #
coedge $-1 $386 $557 $562 $701 forward $379 $-1 #
vertex $-1 $387 $705 #
straight-curve $-1 -6.2413162971625189 28.367756869760491 8.1010610026342533 0 1 0 I I #
straight-curve $-1 -6.2413162971625189 -20.498089146035895 47.45541700042034 0 -0.78801074757464917 0.61566148304635926 I I #
edge $-1 $391 6.2413162971625189 $699 20.590980986581478 $389 $706 forward 7 unknown #
point $-1 -6.2413162971625189 35.585632339506745 8.1010610026342551 #
point $-1 -6.2413162971625189 35.585632339506752 3.638010637853931 #
edge $-1 $707 1 $707 0 $394 $-1 forward 7 unknown #
vertex $-1 $395 $708 #
ellipse-curve $-1 -16.491076789604634 30.596165075581734 3.1391063563929866 0 0.61566148304635926 0.78801074757464917 1.5 0 0 1 I I #
point $-1 -14.991076789604634 32.72941041296059 5.8695358202440922 #
edge $-1 $709 1 $709 0 $398 $-1 forward 7 unknown #
vertex $-1 $399 $710 #
ellipse-curve $-1 -10.341220494139364 30.596165075581734 3.1391063563929866 0 0.61566148304635926 0.78801074757464917 1.5 0 0 1 I I #
point $-1 -8.841220494139364 32.72941041296059 5.8695358202440922 #
plane-surface $-1 0 35.585632339506745 0 0 -1 0 0 0 -1 forward_v I I I I #
coedge $-1 $593 $592 $585 $711 forward $403 $-1 #
coedge $-1 $585 $405 $407 $589 reversed $257 $-1 #
coedge $-1 $405 $584 $583 $711 reversed $257 $-1 #
coedge $-1 $413 $408 $405 $587 forward $414 $-1 #
edge $-1 $590 -69.516948732903586 $712 -65.053898368123257 $586 $713 forward 7 unknown #
coedge $-1 $407 $406 $593 $714 reversed $161 $-1 #
edge $-1 $715 63.922069321368781 $590 71.17126467901349 $584 $716 forward 7 unknown #
vertex $-1 $409 $717 #
straight-curve $-1 7.1178695066759019 35.585632339506745 3.6380106378539274 -1 0 0 I I #
coedge $-1 $583 $410 $413 $597 forward $403 $-1 #
coedge $-1 $410 $583 $588 $714 forward $403 $-1 #
vertex $-1 $411 $718 #
straight-curve $-1 21.410571358061283 28.367756869760491 8.1010610026342533 0 1 0 I I #
straight-curve $-1 21.410571358061283 -20.498089146035895 47.45541700042034 0 -0.78801074757464917 0.61566148304635926 I I #
edge $-1 $415 -21.410571358061283 $712 -7.0609066686423239 $413 $719 forward 7 unknown #
point $-1 21.410571358061283 35.585632339506745 8.1010610026342551 #
point $-1 21.410571358061283 35.585632339506752 3.638010637853931 #
edge $-1 $720 1 $720 0 $418 $-1 forward 7 unknown #
vertex $-1 $419 $721 #
ellipse-curve $-1 11.160810865619169 30.596165075581734 3.1391063563929866 0 0.61566148304635926 0.78801074757464917 1.5 0 0 1 I I #
point $-1 12.660810865619169 32.72941041296059 5.8695358202440922 #
edge $-1 $722 1 $722 0 $422 $-1 forward 7 unknown #
vertex $-1 $423 $723 #
ellipse-curve $-1 17.310667161084439 30.596165075581734 3.1391063563929866 0 0.61566148304635926 0.78801074757464917 1.5 0 0 1 I I #
point $-1 18.810667161084439 32.72941041296059 5.8695358202440922 #
plane-surface $-1 0 35.585632339506745 0 0 -1 0 0 0 -1 forward_v I I I I #
coedge $-1 $619 $618 $611 $724 forward $427 $-1 #
coedge $-1 $611 $429 $431 $615 reversed $279 $-1 #
coedge $-1 $429 $610 $609 $724 reversed $279 $-1 #
coedge $-1 $437 $432 $429 $613 forward $438 $-1 #
edge $-1 $616 -69.516948732903586 $725 -65.053898368123257 $612 $726 forward 7 unknown #
coedge $-1 $431 $430 $619 $727 reversed $175 $-1 #
edge $-1 $728 63.922069321368781 $616 71.17126467901349 $610 $729 forward 7 unknown #
vertex $-1 $433 $730 #
straight-curve $-1 20.943813334287803 35.585632339506745 3.6380106378539274 -1 0 0 I I #
coedge $-1 $609 $434 $437 $623 forward $427 $-1 #
coedge $-1 $434 $609 $614 $727 forward $427 $-1 #
vertex $-1 $435 $731 #
straight-curve $-1 49.062459013285086 28.367756869760491 8.1010610026342533 0 1 0 I I #
straight-curve $-1 49.062459013285086 -20.498089146035895 47.45541700042034 0 -0.78801074757464917 0.61566148304635926 I I #
edge $-1 $439 -49.062459013285086 $725 -34.712794323866127 $437 $732 forward 7 unknown #
point $-1 49.062459013285086 35.585632339506745 8.1010610026342551 #
point $-1 49.062459013285086 35.585632339506752 3.638010637853931 #
edge $-1 $733 1 $733 0 $442 $-1 forward 7 unknown #
vertex $-1 $443 $734 #
ellipse-curve $-1 38.812698520842972 30.596165075581734 3.1391063563929866 0 0.61566148304635926 0.78801074757464917 1.5 0 0 1 I I #
point $-1 40.312698520842972 32.72941041296059 5.8695358202440922 #
edge $-1 $735 1 $735 0 $446 $-1 forward 7 unknown #
vertex $-1 $447 $736 #
ellipse-curve $-1 44.962554816308241 30.596165075581734 3.1391063563929866 0 0.61566148304635926 0.78801074757464917 1.5 0 0 1 I I #
point $-1 46.462554816308241 32.72941041296059 5.8695358202440922 #
plane-surface $-1 62.724082155827503 0 0 -1 0 0 0 0 1 forward_v I I I I #
coedge $-1 $455 $453 $457 $639 reversed $301 $-1 #
edge $-1 $468 -8.1010610026342551 $641 8.1010610026342551 $467 $737 forward 7 unknown #
vertex $-1 $639 $738 #
straight-curve $-1 -62.724082155827503 -35.585632339506745 0 0 0 -1 I I #
edge $-1 $637 -35.585632339506745 $641 35.585632339506745 $635 $739 forward 7 unknown #
straight-curve $-1 0 -35.585632339506745 -8.1010610026342551 -1 0 0 I I #
vertex $-1 $460 $740 #
straight-curve $-1 0 35.585632339506745 -8.1010610026342551 1 0 0 I I #
point $-1 62.724082155827503 35.585632339506745 -8.1010610026342551 #
point $-1 62.724082155827503 -35.585632339506745 -8.1010610026342551 #
straight-curve $-1 -62.724082155827503 0 8.1010610026342551 0 -1 0 I I #
point $-1 -62.724082155827503 35.585632339506745 8.1010610026342551 #
point $-1 -62.724082155827503 -35.585632339506745 8.1010610026342551 #
straight-curve $-1 62.724082155827503 -35.585632339506745 0 0 0 -1 I I #
straight-curve $-1 62.724082155827503 35.585632339506745 0 0 0 -1 I I #
plane-surface $-1 0 35.585632339506745 0 0 -1 0 0 0 -1 forward_v I I I I #
coedge $-1 $661 $660 $483 $653 forward $478 $-1 #
straight-curve $-1 -55.303775310447605 -35.585632339506745 -1.6840782340290219 0 0 1 I I #
edge $-1 $656 -35.585632339506745 $654 35.585632339506745 $651 $741 forward 7 unknown #
vertex $-1 $484 $742 #
straight-curve $-1 -29.506964366568777 -35.585632339506745 -5.4426580326505842 1 0 0 I I #
vertex $-1 $486 $743 #
straight-curve $-1 -29.506964366568777 35.585632339506745 -5.4426580326505842 -1 0 0 I I #
point $-1 -55.303775310447605 35.585632339506745 -5.4426580326505842 #
point $-1 -55.303775310447605 -35.585632339506745 -5.4426580326505842 #
coedge $-1 $651 $490 $493 $663 forward $478 $-1 #
coedge $-1 $490 $651 $497 $665 reversed $478 $-1 #
straight-curve $-1 -62.724082155827503 0 -1.2936549034655034 0 1 0 I I #
edge $-1 $495 1.2936549034655034 $656 5.4426580326505842 $493 $744 forward 7 unknown #
point $-1 -62.724082155827503 35.585632339506745 -1.2936549034655034 #
edge $-1 $498 1.2936549034655034 $654 5.4426580326505842 $661 $745 forward 7 unknown #
point $-1 -62.724082155827503 -35.585632339506745 -1.2936549034655034 #
straight-curve $-1 -55.303775310447605 35.585632339506745 -1.6840782340290219 0 0 -1 I I #
plane-surface $-1 62.724082155827503 0 0 -1 0 0 0 0 1 forward_v I I I I #
coedge $-1 $507 $506 $522 $680 reversed $205 $-1 #
edge $-1 $673 -35.585632339506745 $671 35.585632339506745 $506 $746 forward 7 unknown #
vertex $-1 $514 $747 #
straight-curve $-1 55.303775310447598 35.585632339506745 -1.6840782340290219 0 0 1 I I #
vertex $-1 $512 $748 #
straight-curve $-1 29.506964366568774 -35.585632339506745 -5.4426580326505842 1 0 0 I I #
straight-curve $-1 29.506964366568774 35.585632339506745 -5.4426580326505842 -1 0 0 I I #
point $-1 62.724082155827496 -35.585632339506745 -5.4426580326505842 #
point $-1 62.724082155827496 35.585632339506745 -5.4426580326505842 #
straight-curve $-1 55.303775310447598 0 -1.2936549034655034 0 -1 0 I I #
point $-1 55.303775310447598 35.585632339506745 -1.2936549034655034 #
edge $-1 $524 -0.39042333056351852 $673 3.7585797986215623 $522 $749 forward 7 unknown #
point $-1 55.303775310447598 -35.585632339506745 -1.2936549034655034 #
straight-curve $-1 62.724082155827503 -35.585632339506745 0 0 0 -1 I I #
straight-curve $-1 62.724082155827503 35.585632339506745 0 0 0 -1 I I #
coedge $-1 $541 $540 $533 $685 forward $530 $-1 #
edge $-1 $686 -7.2178754697462537 $689 -1.5054316166539721 $684 $750 forward 7 unknown #
vertex $-1 $685 $751 #
straight-curve $-1 -48.242868641805281 35.585632339506745 73.15495937075751 0 0 1 I I #
edge $-1 $689 -27.70885049325738 $542 -13.359185803838422 $541 $752 forward 7 unknown #
vertex $-1 $688 $753 #
straight-curve $-1 -48.242868641805281 -20.498089146035895 47.45541700042034 0 0.78801074757464917 -0.61566148304635926 I I #
point $-1 -48.242868641805281 35.585632339506752 3.638010637853931 #
point $-1 -33.893203952386322 29.873188486414463 8.1010610026342533 #
straight-curve $-1 0 35.585632339506745 8.1010610026342551 -1 0 0 I I #
vertex $-1 $548 $754 #
point $-1 -42.642964444828436 30.596165075581734 3.1391063563929866 #
vertex $-1 $552 $755 #
point $-1 -36.493108149363167 30.596165075581734 3.1391063563929866 #
edge $-1 $699 -7.2178754697462537 $702 -1.5054316166539721 $557 $756 forward 7 unknown #
vertex $-1 $698 $757 #
straight-curve $-1 -20.590980986581478 35.585632339506745 73.15495937075751 0 0 1 I I #
edge $-1 $702 -13.882906665645478 $568 0.46675802377348052 $567 $758 forward 7 unknown #
vertex $-1 $701 $759 #
straight-curve $-1 -20.590980986581478 -20.498089146035895 47.45541700042034 0 0.78801074757464917 -0.61566148304635926 I I #
point $-1 -20.590980986581478 35.585632339506752 3.638010637853931 #
point $-1 -6.2413162971625189 29.873188486414463 8.1010610026342533 #
straight-curve $-1 0 35.585632339506745 8.1010610026342551 -1 0 0 I I #
vertex $-1 $574 $760 #
point $-1 -14.991076789604634 30.596165075581734 3.1391063563929866 #
vertex $-1 $578 $761 #
point $-1 -8.841220494139364 30.596165075581734 3.1391063563929866 #
edge $-1 $712 -7.2178754697462537 $715 -1.5054316166539721 $583 $762 forward 7 unknown #
vertex $-1 $587 $763 #
straight-curve $-1 7.0609066686423239 35.585632339506745 73.15495937075751 0 0 1 I I #
edge $-1 $715 -0.056962838033578045 $594 14.292701851385381 $593 $764 forward 7 unknown #
vertex $-1 $714 $765 #
straight-curve $-1 7.0609066686423239 -20.498089146035895 47.45541700042034 0 0.78801074757464917 -0.61566148304635926 I I #
point $-1 7.0609066686423239 35.585632339506752 3.638010637853931 #
point $-1 21.410571358061283 29.873188486414463 8.1010610026342533 #
straight-curve $-1 0 35.585632339506745 8.1010610026342551 -1 0 0 I I #
vertex $-1 $600 $766 #
point $-1 12.660810865619169 30.596165075581734 3.1391063563929866 #
vertex $-1 $604 $767 #
point $-1 18.810667161084439 30.596165075581734 3.1391063563929866 #
edge $-1 $725 -7.2178754697462537 $728 -1.5054316166539721 $609 $768 forward 7 unknown #
vertex $-1 $613 $769 #
straight-curve $-1 34.712794323866127 35.585632339506745 73.15495937075751 0 0 1 I I #
edge $-1 $728 13.768980989578324 $620 28.118645678997282 $619 $770 forward 7 unknown #
vertex $-1 $727 $771 #
straight-curve $-1 34.712794323866127 -20.498089146035895 47.45541700042034 0 0.78801074757464917 -0.61566148304635926 I I #
point $-1 34.712794323866127 35.585632339506752 3.638010637853931 #
point $-1 49.062459013285086 29.873188486414463 8.1010610026342533 #
straight-curve $-1 0 35.585632339506745 8.1010610026342551 -1 0 0 I I #
vertex $-1 $626 $772 #
point $-1 40.312698520842972 30.596165075581734 3.1391063563929866 #
vertex $-1 $630 $773 #
point $-1 46.462554816308241 30.596165075581734 3.1391063563929866 #
straight-curve $-1 -62.724082155827503 35.585632339506745 0 0 0 -1 I I #
point $-1 -62.724082155827503 -35.585632339506745 -8.1010610026342551 #
straight-curve $-1 -62.724082155827503 0 -8.1010610026342551 0 1 0 I I #
point $-1 -62.724082155827503 35.585632339506745 -8.1010610026342551 #
straight-curve $-1 -62.724082155827503 0 -5.4426580326505842 0 -1 0 I I #
point $-1 -62.724082155827503 -35.585632339506745 -5.4426580326505842 #
point $-1 -62.724082155827503 35.585632339506745 -5.4426580326505842 #
straight-curve $-1 -62.724082155827503 35.585632339506745 0 0 0 -1 I I #
straight-curve $-1 -62.724082155827503 -35.585632339506745 0 0 0 -1 I I #
straight-curve $-1 55.303775310447598 0 -5.4426580326505842 0 1 0 I I #
point $-1 55.303775310447598 35.585632339506745 -5.4426580326505842 #
point $-1 55.303775310447598 -35.585632339506745 -5.4426580326505842 #
straight-curve $-1 55.303775310447598 -35.585632339506745 -1.6840782340290219 0 0 -1 I I #
straight-curve $-1 -48.242868641805281 28.367756869760491 8.1010610026342533 0 -1 0 I I #
point $-1 -48.242868641805281 35.585632339506745 8.1010610026342551 #
straight-curve $-1 -20.534018148547901 29.87318848641447 8.1010610026342498 1 0 0 I I #
point $-1 -48.242868641805281 29.873188486414463 8.1010610026342533 #
point $-1 -44.142964444828436 29.672672851012198 1.9570902350310138 #
point $-1 -37.993108149363167 29.672672851012198 1.9570902350310138 #
straight-curve $-1 -20.590980986581478 28.367756869760491 8.1010610026342533 0 -1 0 I I #
point $-1 -20.590980986581478 35.585632339506745 8.1010610026342551 #
straight-curve $-1 -6.7080743209359994 29.87318848641447 8.1010610026342498 1 0 0 I I #
point $-1 -20.590980986581478 29.873188486414463 8.1010610026342533 #
point $-1 -16.491076789604634 29.672672851012198 1.9570902350310138 #
point $-1 -10.341220494139364 29.672672851012198 1.9570902350310138 #
straight-curve $-1 7.0609066686423239 28.367756869760491 8.1010610026342533 0 -1 0 I I #
point $-1 7.0609066686423239 35.585632339506745 8.1010610026342551 #
straight-curve $-1 7.1178695066759019 29.87318848641447 8.1010610026342498 1 0 0 I I #
point $-1 7.0609066686423239 29.873188486414463 8.1010610026342533 #
point $-1 11.160810865619169 29.672672851012198 1.9570902350310138 #
point $-1 17.310667161084439 29.672672851012198 1.9570902350310138 #
straight-curve $-1 34.712794323866127 28.367756869760491 8.1010610026342533 0 -1 0 I I #
point $-1 34.712794323866127 35.585632339506745 8.1010610026342551 #
straight-curve $-1 20.943813334287803 29.87318848641447 8.1010610026342498 1 0 0 I I #
point $-1 34.712794323866127 29.873188486414463 8.1010610026342533 #
point $-1 38.812698520842972 29.672672851012198 1.9570902350310138 #
point $-1 44.962554816308241 29.672672851012198 1.9570902350310138 #
End-of-ACIS-data 