500 0 14 0           
7 Unknown 11 ACIS 5.0 NT 24 Fri Mar 26 02:03:03 1999 
-1 9.9999999999999995e-007 1e-010 
body $-1 $14 $-1 $15 #
body $-1 $16 $-1 $17 #
body $-1 $18 $-1 $19 #
body $-1 $20 $-1 $21 #
body $-1 $22 $-1 $23 #
body $-1 $24 $-1 $25 #
body $-1 $26 $-1 $27 #
body $-1 $28 $-1 $29 #
body $-1 $30 $-1 $31 #
body $-1 $32 $-1 $33 #
body $-1 $34 $-1 $35 #
body $-1 $36 $-1 $37 #
body $-1 $38 $-1 $39 #
body $-1 $40 $-1 $41 #
lump $-1 $-1 $42 $0 #
transform $-1 1 0 0 0 1 0 0 0 1 59.598986785485394 39.452066498974339 11.571819547765813 1 rotate no_reflect no_shear #
lump $-1 $-1 $43 $1 #
transform $-1 1 0 0 0 1 0 0 0 1 59.598986785485394 39.452066498974339 11.571819547765813 1 rotate no_reflect no_shear #
lump $-1 $-1 $44 $2 #
transform $-1 1 0 0 0 1 0 0 0 1 59.598986785485394 39.452066498974339 11.571819547765813 1 rotate no_reflect no_shear #
lump $-1 $-1 $45 $3 #
transform $-1 1 0 0 0 1 0 0 0 1 59.598986785485394 39.452066498974339 11.571819547765813 1 rotate no_reflect no_shear #
lump $-1 $-1 $46 $4 #
transform $-1 1 0 0 0 1 0 0 0 1 59.598986785485394 39.452066498974339 11.571819547765813 1 rotate no_reflect no_shear #
lump $-1 $-1 $47 $5 #
transform $-1 1 0 0 0 1 0 0 0 1 59.598986785485394 39.452066498974339 11.571819547765813 1 rotate no_reflect no_shear #
lump $-1 $-1 $48 $6 #
transform $-1 1 0 0 0 1 0 0 0 1 59.598986785485394 39.452066498974339 11.571819547765813 1 rotate no_reflect no_shear #
lump $-1 $-1 $49 $7 #
transform $-1 1 0 0 0 1 0 0 0 1 59.598986785485394 39.452066498974339 11.571819547765813 1 rotate no_reflect no_shear #
lump $-1 $-1 $50 $8 #
transform $-1 1 0 0 0 1 0 0 0 1 59.598986785485394 39.452066498974339 11.571819547765813 1 rotate no_reflect no_shear #
lump $-1 $-1 $51 $9 #
transform $-1 1 0 0 0 1 0 0 0 1 59.598986785485394 39.452066498974339 11.571819547765813 1 rotate no_reflect no_shear #
lump $-1 $-1 $52 $10 #
transform $-1 1 0 0 0 1 0 0 0 1 59.598986785485394 39.452066498974339 11.571819547765813 1 rotate no_reflect no_shear #
lump $-1 $-1 $53 $11 #
transform $-1 1 0 0 0 1 0 0 0 1 59.598986785485394 39.452066498974339 11.571819547765813 1 rotate no_reflect no_shear #
lump $-1 $-1 $54 $12 #
transform $-1 1 0 0 0 1 0 0 0 1 59.598986785485394 39.452066498974339 11.571819547765813 1 rotate no_reflect no_shear #
lump $-1 $-1 $55 $13 #
transform $-1 1 0 0 0 1 0 0 0 1 59.598986785485394 39.452066498974339 11.571819547765813 1 rotate no_reflect no_shear #
shell $-1 $-1 $-1 $56 $-1 $14 #
shell $-1 $-1 $-1 $57 $-1 $16 #
shell $-1 $-1 $-1 $58 $-1 $18 #
shell $-1 $-1 $-1 $59 $-1 $20 #
shell $-1 $-1 $-1 $60 $-1 $22 #
shell $-1 $-1 $-1 $61 $-1 $24 #
shell $-1 $-1 $-1 $62 $-1 $26 #
shell $-1 $-1 $-1 $63 $-1 $28 #
shell $-1 $-1 $-1 $64 $-1 $30 #
shell $-1 $-1 $-1 $65 $-1 $32 #
shell $-1 $-1 $-1 $66 $-1 $34 #
shell $-1 $-1 $-1 $67 $-1 $36 #
shell $-1 $-1 $-1 $68 $-1 $38 #
shell $-1 $-1 $-1 $69 $-1 $40 #
face $-1 $70 $71 $42 $-1 $72 forward single #
face $-1 $73 $74 $43 $-1 $75 forward single #
face $-1 $76 $77 $44 $-1 $78 reversed single #
face $-1 $79 $80 $45 $-1 $81 forward single #
face $-1 $82 $83 $46 $-1 $84 forward single #
face $-1 $85 $86 $47 $-1 $87 forward single #
face $-1 $88 $89 $48 $-1 $90 reversed single #
face $-1 $91 $92 $49 $-1 $93 forward single #
face $-1 $94 $95 $50 $-1 $96 forward single #
face $-1 $97 $98 $51 $-1 $99 forward single #
face $-1 $100 $101 $52 $-1 $102 reversed single #
face $-1 $103 $104 $53 $-1 $105 forward single #
face $-1 $106 $107 $54 $-1 $108 forward single #
face $-1 $109 $110 $55 $-1 $111 forward single #
face $-1 $112 $113 $42 $-1 $114 reversed single #
loop $-1 $-1 $115 $56 #
plane-surface $-1 0 0 11.571819547765813 0 0 1 1 0 0 forward_v I I I I #
face $-1 $116 $117 $43 $-1 $118 reversed single #
loop $-1 $-1 $119 $57 #
plane-surface $-1 0 -39.452066498974339 0 0 1 0 0 0 1 forward_v I I I I #
face $-1 $120 $121 $44 $-1 $122 reversed single #
loop $-1 $-1 $123 $58 #
plane-surface $-1 103.22847571103883 28.2965486956533 167.87396862285024 0 1 0 0.86602541151947299 0 0.49999998660252726 forward_v I I I I #
face $-1 $124 $125 $45 $-1 $126 forward single #
loop $-1 $127 $128 $59 #
cone-surface $-1 56.300755680636165 30.527652256317502 7.4924815126754254 -0.86602541151947299 0 -0.49999998660252726 0.49999998660252726 0 -0.86602541151947299 1 I I 0 1 1 forward I I I I #
face $-1 $129 $130 $46 $-1 $131 forward single #
loop $-1 $132 $133 $60 #
cone-surface $-1 56.300755680636165 33.874307597313809 7.4924815126754254 -0.86602541151947299 0 -0.49999998660252726 0.49999998660252726 0 -0.86602541151947299 1 I I 0 1 1 forward I I I I #
face $-1 $134 $135 $47 $-1 $136 forward single #
loop $-1 $137 $138 $61 #
cone-surface $-1 56.300755680636165 37.220962938310116 7.4924815126754254 -0.86602541151947299 0 -0.49999998660252726 0.49999998660252726 0 -0.86602541151947299 1 I I 0 1 1 forward I I I I #
face $-1 $139 $140 $48 $-1 $141 reversed single #
loop $-1 $-1 $142 $62 #
plane-surface $-1 -160.68460228265033 -4.9162846450171358 66.875561772038935 0 1 0 -0.84804810408105047 0 0.52991925155115449 forward_v I I I I #
face $-1 $143 $144 $49 $-1 $145 forward single #
loop $-1 $146 $147 $63 #
cone-surface $-1 -56.469309545957202 -2.5682388357746859 7.2202195818716959 0.84804810408105047 0 -0.52991925155115449 0.52991925155115449 0 0.84804810408105047 1 I I 0 1 1 forward I I I I #
face $-1 $148 $149 $50 $-1 $150 forward single #
loop $-1 $151 $152 $64 #
cone-surface $-1 -56.469309545957202 0.95382987808898889 7.2202195818716959 0.84804810408105047 0 -0.52991925155115449 0.52991925155115449 0 0.84804810408105047 1 I I 0 1 1 forward I I I I #
face $-1 $153 $154 $51 $-1 $155 forward single #
loop $-1 $156 $157 $65 #
cone-surface $-1 -56.469309545957202 4.4758985919526637 7.2202195818716959 0.84804810408105047 0 -0.52991925155115449 0.52991925155115449 0 0.84804810408105047 1 I I 0 1 1 forward I I I I #
face $-1 $158 $159 $52 $-1 $160 reversed single #
loop $-1 $-1 $161 $66 #
plane-surface $-1 -160.68460228265033 27.71183745276209 66.875561772038935 0 1 0 -0.84804810408105047 0 0.52991925155115449 forward_v I I I I #
face $-1 $162 $163 $53 $-1 $164 forward single #
loop $-1 $165 $166 $67 #
cone-surface $-1 -56.469309545957202 30.05988326200454 7.2202195818716959 0.84804810408105047 0 -0.52991925155115449 0.52991925155115449 0 0.84804810408105047 1 I I 0 1 1 forward I I I I #
face $-1 $167 $168 $54 $-1 $169 forward single #
loop $-1 $170 $171 $68 #
cone-surface $-1 -56.469309545957202 33.581951975868215 7.2202195818716959 0.84804810408105047 0 -0.52991925155115449 0.52991925155115449 0 0.84804810408105047 1 I I 0 1 1 forward I I I I #
face $-1 $172 $173 $55 $-1 $174 forward single #
loop $-1 $175 $176 $69 #
cone-surface $-1 -56.469309545957202 37.10402068973189 7.2202195818716959 0.84804810408105047 0 -0.52991925155115449 0.52991925155115449 0 0.84804810408105047 1 I I 0 1 1 forward I I I I #
face $-1 $177 $178 $42 $-1 $179 reversed single #
loop $-1 $-1 $180 $70 #
plane-surface $-1 0 0 -11.571819547765813 0 0 1 1 0 0 forward_v I I I I #
coedge $-1 $181 $182 $183 $184 forward $71 $-1 #
face $-1 $185 $186 $43 $-1 $187 reversed single #
loop $-1 $-1 $188 $73 #
plane-surface $-1 0 0 -11.571819547765813 0 0 1 1 0 0 forward_v I I I I #
coedge $-1 $189 $190 $191 $192 forward $74 $-1 #
face $-1 $193 $194 $44 $-1 $195 forward single #
loop $-1 $-1 $196 $76 #
plane-surface $-1 1.5969515771985243e-006 33.874307597313823 108.27498343431645 0.86602541151947299 0 0.49999998660252726 0.49999998660252726 0 -0.86602541151947299 forward_v I I I I #
coedge $-1 $197 $198 $199 $200 reversed $77 $-1 #
face $-1 $-1 $201 $45 $-1 $202 forward single #
loop $-1 $203 $204 $79 #
cone-surface $-1 54.453206610936249 30.527652256317502 6.4257985980520829 -0.86602541151947299 0 -0.49999998660252726 0.24999999330126363 0 -0.43301270575973649 1 I I -0.70710678118654746 0.70710678118654746 0.5 forward I I I I #
loop $-1 $-1 $205 $59 #
coedge $-1 $128 $128 $206 $207 reversed $80 $-1 #
face $-1 $-1 $208 $46 $-1 $209 forward single #
loop $-1 $210 $211 $82 #
cone-surface $-1 54.453206610936249 33.874307597313809 6.4257985980520829 -0.86602541151947299 0 -0.49999998660252726 0.24999999330126363 0 -0.43301270575973649 1 I I -0.70710678118654746 0.70710678118654746 0.5 forward I I I I #
loop $-1 $-1 $212 $60 #
coedge $-1 $133 $133 $213 $214 reversed $83 $-1 #
face $-1 $-1 $215 $47 $-1 $216 forward single #
loop $-1 $217 $218 $85 #
cone-surface $-1 54.453206610936249 37.220962938310116 6.4257985980520829 -0.86602541151947299 0 -0.49999998660252726 0.24999999330126363 0 -0.43301270575973649 1 I I -0.70710678118654746 0.70710678118654746 0.5 forward I I I I #
loop $-1 $-1 $219 $61 #
coedge $-1 $138 $138 $220 $221 reversed $86 $-1 #
face $-1 $222 $223 $48 $-1 $224 reversed single #
loop $-1 $-1 $225 $88 #
plane-surface $-1 -59.598986785485394 0.95382987808898889 3.7102608308957983 -0.84804810408105047 0 0.52991925155115449 0.52991925155115449 0 0.84804810408105047 forward_v I I I I #
coedge $-1 $226 $227 $228 $229 reversed $89 $-1 #
face $-1 $-1 $230 $49 $-1 $231 forward single #
loop $-1 $232 $233 $91 #
cone-surface $-1 -55.371831722857593 -2.5682388357746859 6.5344393486370116 0.84804810408105047 0 -0.52991925155115449 0.26495962577557725 0 0.42402405204052523 1 I I -0.70710678118654746 0.70710678118654746 0.5 forward I I I I #
loop $-1 $-1 $234 $63 #
coedge $-1 $147 $147 $235 $236 reversed $92 $-1 #
face $-1 $-1 $237 $50 $-1 $238 forward single #
loop $-1 $239 $240 $94 #
cone-surface $-1 -55.371831722857593 0.95382987808898889 6.5344393486370116 0.84804810408105047 0 -0.52991925155115449 0.26495962577557725 0 0.42402405204052523 1 I I -0.70710678118654746 0.70710678118654746 0.5 forward I I I I #
loop $-1 $-1 $241 $64 #
coedge $-1 $152 $152 $242 $243 reversed $95 $-1 #
face $-1 $-1 $244 $51 $-1 $245 forward single #
loop $-1 $246 $247 $97 #
cone-surface $-1 -55.371831722857593 4.4758985919526637 6.5344393486370116 0.84804810408105047 0 -0.52991925155115449 0.26495962577557725 0 0.42402405204052523 1 I I -0.70710678118654746 0.70710678118654746 0.5 forward I I I I #
loop $-1 $-1 $248 $65 #
coedge $-1 $157 $157 $249 $250 reversed $98 $-1 #
face $-1 $251 $252 $52 $-1 $253 forward single #
loop $-1 $-1 $254 $100 #
plane-surface $-1 -59.598986785485394 33.581951975868215 3.7102608308957983 -0.84804810408105047 0 0.52991925155115449 0.52991925155115449 0 0.84804810408105047 forward_v I I I I #
coedge $-1 $255 $256 $257 $258 reversed $101 $-1 #
face $-1 $-1 $259 $53 $-1 $260 forward single #
loop $-1 $261 $262 $103 #
cone-surface $-1 -55.371831722857593 30.05988326200454 6.5344393486370116 0.84804810408105047 0 -0.52991925155115449 0.26495962577557725 0 0.42402405204052523 1 I I -0.70710678118654746 0.70710678118654746 0.5 forward I I I I #
loop $-1 $-1 $263 $67 #
coedge $-1 $166 $166 $264 $265 reversed $104 $-1 #
face $-1 $-1 $266 $54 $-1 $267 forward single #
loop $-1 $268 $269 $106 #
cone-surface $-1 -55.371831722857593 33.581951975868215 6.5344393486370116 0.84804810408105047 0 -0.52991925155115449 0.26495962577557725 0 0.42402405204052523 1 I I -0.70710678118654746 0.70710678118654746 0.5 forward I I I I #
loop $-1 $-1 $270 $68 #
coedge $-1 $171 $171 $271 $272 reversed $107 $-1 #
face $-1 $-1 $273 $55 $-1 $274 forward single #
loop $-1 $275 $276 $109 #
cone-surface $-1 -55.371831722857593 37.10402068973189 6.5344393486370116 0.84804810408105047 0 -0.52991925155115449 0.26495962577557725 0 0.42402405204052523 1 I I -0.70710678118654746 0.70710678118654746 0.5 forward I I I I #
loop $-1 $-1 $277 $69 #
coedge $-1 $176 $176 $278 $279 reversed $110 $-1 #
face $-1 $280 $281 $42 $-1 $282 reversed single #
loop $-1 $-1 $283 $112 #
plane-surface $-1 0 -39.452066498974339 0 0 1 0 0 0 1 forward_v I I I I #
coedge $-1 $284 $285 $286 $287 forward $113 $-1 #
coedge $-1 $288 $115 $289 $290 forward $71 $-1 #
coedge $-1 $115 $288 $291 $292 forward $71 $-1 #
coedge $-1 $293 $294 $115 $184 reversed $295 $-1 #
edge $-1 $296 -39.452066498974339 $297 39.452066498974339 $183 $298 forward 7 unknown #
face $-1 $299 $300 $43 $-1 $301 forward single #
loop $-1 $-1 $302 $116 #
plane-surface $-1 59.598986785485394 0 0 -1 0 0 0 0 1 forward_v I I I I #
coedge $-1 $303 $304 $305 $306 forward $117 $-1 #
coedge $-1 $305 $119 $302 $307 reversed $74 $-1 #
coedge $-1 $119 $305 $308 $309 reversed $74 $-1 #
coedge $-1 $310 $311 $119 $192 reversed $300 $-1 #
edge $-1 $312 -59.598986785485394 $313 59.598986785485394 $191 $314 forward 7 unknown #
face $-1 $315 $316 $44 $-1 $317 reversed single #
loop $-1 $-1 $318 $120 #
plane-surface $-1 0 0 11.571819547765813 0 0 1 1 0 0 forward_v I I I I #
coedge $-1 $319 $320 $321 $322 reversed $121 $-1 #
coedge $-1 $198 $123 $323 $324 reversed $77 $-1 #
coedge $-1 $123 $197 $319 $325 reversed $77 $-1 #
coedge $-1 $321 $326 $123 $200 forward $327 $-1 #
edge $-1 $328 72.365164763659308 $329 78.890474991195944 $199 $330 forward 7 unknown #
loop $-1 $-1 $206 $124 #
plane-surface $-1 1.5969515771985243e-006 33.874307597313823 108.27498343431645 0.86602541151947299 0 0.49999998660252726 0.49999998660252726 0 -0.86602541151947299 forward_v I I I I #
loop $-1 $-1 $331 $79 #
coedge $-1 $204 $204 $205 $332 reversed $125 $-1 #
coedge $-1 $205 $205 $204 $332 forward $127 $-1 #
coedge $-1 $206 $206 $128 $207 forward $201 $-1 #
edge $-1 $333 0 $333 6.2831853071796004 $206 $334 forward 7 unknown #
loop $-1 $-1 $213 $129 #
plane-surface $-1 1.5969515771985243e-006 33.874307597313823 108.27498343431645 0.86602541151947299 0 0.49999998660252726 0.49999998660252726 0 -0.86602541151947299 forward_v I I I I #
loop $-1 $-1 $335 $82 #
coedge $-1 $211 $211 $212 $336 reversed $130 $-1 #
coedge $-1 $212 $212 $211 $336 forward $132 $-1 #
coedge $-1 $213 $213 $133 $214 forward $208 $-1 #
edge $-1 $337 0 $337 6.2831853071796004 $213 $338 forward 7 unknown #
loop $-1 $-1 $220 $134 #
plane-surface $-1 1.5969515771985243e-006 33.874307597313823 108.27498343431645 0.86602541151947299 0 0.49999998660252726 0.49999998660252726 0 -0.86602541151947299 forward_v I I I I #
loop $-1 $-1 $339 $85 #
coedge $-1 $218 $218 $219 $340 reversed $135 $-1 #
coedge $-1 $219 $219 $218 $340 forward $137 $-1 #
coedge $-1 $220 $220 $138 $221 forward $215 $-1 #
edge $-1 $341 0 $341 6.2831853071796004 $220 $342 forward 7 unknown #
face $-1 $343 $344 $48 $-1 $345 reversed single #
loop $-1 $-1 $346 $139 #
plane-surface $-1 -160.68460228265033 6.8239444011951136 66.875561772038935 0 -1 0 0.84804810408105047 0 -0.52991925155115449 forward_v I I I I #
coedge $-1 $347 $348 $349 $350 reversed $140 $-1 #
coedge $-1 $227 $142 $351 $352 reversed $89 $-1 #
coedge $-1 $142 $226 $347 $353 reversed $89 $-1 #
coedge $-1 $349 $354 $142 $229 forward $355 $-1 #
edge $-1 $356 20.743314355839772 $357 25.655761292777981 $228 $358 forward 7 unknown #
loop $-1 $-1 $235 $143 #
plane-surface $-1 -59.598986785485394 0.95382987808898889 3.7102608308957983 -0.84804810408105047 0 0.52991925155115449 0.52991925155115449 0 0.84804810408105047 forward_v I I I I #
loop $-1 $-1 $359 $91 #
coedge $-1 $233 $233 $234 $360 reversed $144 $-1 #
coedge $-1 $234 $234 $233 $360 forward $146 $-1 #
coedge $-1 $235 $235 $147 $236 forward $230 $-1 #
edge $-1 $361 0 $361 6.2831853071796004 $235 $362 forward 7 unknown #
loop $-1 $-1 $242 $148 #
plane-surface $-1 -59.598986785485394 0.95382987808898889 3.7102608308957983 -0.84804810408105047 0 0.52991925155115449 0.52991925155115449 0 0.84804810408105047 forward_v I I I I #
loop $-1 $-1 $363 $94 #
coedge $-1 $240 $240 $241 $364 reversed $149 $-1 #
coedge $-1 $241 $241 $240 $364 forward $151 $-1 #
coedge $-1 $242 $242 $152 $243 forward $237 $-1 #
edge $-1 $365 0 $365 6.2831853071796004 $242 $366 forward 7 unknown #
loop $-1 $-1 $249 $153 #
plane-surface $-1 -59.598986785485394 0.95382987808898889 3.7102608308957983 -0.84804810408105047 0 0.52991925155115449 0.52991925155115449 0 0.84804810408105047 forward_v I I I I #
loop $-1 $-1 $367 $97 #
coedge $-1 $247 $247 $248 $368 reversed $154 $-1 #
coedge $-1 $248 $248 $247 $368 forward $156 $-1 #
coedge $-1 $249 $249 $157 $250 forward $244 $-1 #
edge $-1 $369 0 $369 6.2831853071796004 $249 $370 forward 7 unknown #
face $-1 $371 $372 $52 $-1 $373 reversed single #
loop $-1 $-1 $257 $158 #
plane-surface $-1 0 0 11.571819547765813 0 0 1 1 0 0 forward_v I I I I #
coedge $-1 $374 $375 $376 $377 reversed $159 $-1 #
coedge $-1 $256 $161 $378 $379 reversed $101 $-1 #
coedge $-1 $161 $255 $374 $380 reversed $101 $-1 #
coedge $-1 $376 $381 $161 $258 forward $252 $-1 #
edge $-1 $382 20.743314355839772 $383 25.655761292777981 $257 $384 forward 7 unknown #
loop $-1 $-1 $264 $162 #
plane-surface $-1 -59.598986785485394 33.581951975868215 3.7102608308957983 -0.84804810408105047 0 0.52991925155115449 0.52991925155115449 0 0.84804810408105047 forward_v I I I I #
loop $-1 $-1 $385 $103 #
coedge $-1 $262 $262 $263 $386 reversed $163 $-1 #
coedge $-1 $263 $263 $262 $386 forward $165 $-1 #
coedge $-1 $264 $264 $166 $265 forward $259 $-1 #
edge $-1 $387 0 $387 6.2831853071796004 $264 $388 forward 7 unknown #
loop $-1 $-1 $271 $167 #
plane-surface $-1 -59.598986785485394 33.581951975868215 3.7102608308957983 -0.84804810408105047 0 0.52991925155115449 0.52991925155115449 0 0.84804810408105047 forward_v I I I I #
loop $-1 $-1 $389 $106 #
coedge $-1 $269 $269 $270 $390 reversed $168 $-1 #
coedge $-1 $270 $270 $269 $390 forward $170 $-1 #
coedge $-1 $271 $271 $171 $272 forward $266 $-1 #
edge $-1 $391 0 $391 6.2831853071796004 $271 $392 forward 7 unknown #
loop $-1 $-1 $278 $172 #
plane-surface $-1 -59.598986785485394 33.581951975868215 3.7102608308957983 -0.84804810408105047 0 0.52991925155115449 0.52991925155115449 0 0.84804810408105047 forward_v I I I I #
loop $-1 $-1 $393 $109 #
coedge $-1 $276 $276 $277 $394 reversed $173 $-1 #
coedge $-1 $277 $277 $276 $394 forward $175 $-1 #
coedge $-1 $278 $278 $176 $279 forward $273 $-1 #
edge $-1 $395 0 $395 6.2831853071796004 $278 $396 forward 7 unknown #
face $-1 $397 $398 $42 $-1 $399 reversed single #
loop $-1 $-1 $400 $177 #
plane-surface $-1 -59.598986785485394 0 0 1 0 0 0 0 -1 forward_v I I I I #
coedge $-1 $291 $401 $293 $402 reversed $178 $-1 #
coedge $-1 $403 $180 $401 $404 forward $113 $-1 #
coedge $-1 $180 $403 $405 $406 forward $113 $-1 #
coedge $-1 $294 $293 $180 $287 reversed $295 $-1 #
edge $-1 $407 -39.452066498974339 $408 39.452066498974339 $286 $409 forward 7 unknown #
coedge $-1 $182 $181 $410 $411 forward $71 $-1 #
coedge $-1 $412 $413 $181 $290 reversed $398 $-1 #
edge $-1 $297 -59.598986785485394 $414 59.598986785485394 $289 $415 forward 7 unknown #
coedge $-1 $416 $283 $182 $292 reversed $178 $-1 #
edge $-1 $417 -59.598986785485394 $296 59.598986785485394 $291 $418 forward 7 unknown #
coedge $-1 $286 $183 $283 $402 forward $295 $-1 #
coedge $-1 $183 $286 $412 $419 reversed $295 $-1 #
loop $-1 $-1 $293 $397 #
vertex $-1 $184 $420 #
vertex $-1 $184 $421 #
straight-curve $-1 59.598986785485394 0 11.571819547765813 0 1 0 I I #
face $-1 $422 $423 $43 $-1 $424 reversed single #
loop $-1 $-1 $311 $185 #
plane-surface $-1 0 -46.276010900169453 -7.5323656352545996 0 0 1 1 0 0 forward_v I I I I #
coedge $-1 $425 $426 $189 $307 forward $186 $-1 #
coedge $-1 $427 $188 $426 $428 forward $117 $-1 #
coedge $-1 $188 $427 $429 $430 forward $117 $-1 #
coedge $-1 $190 $189 $188 $306 reversed $74 $-1 #
edge $-1 $431 -59.598986785485394 $432 59.598986785485394 $188 $433 forward 7 unknown #
edge $-1 $432 -11.571819547765813 $313 -7.5323656352545996 $302 $434 forward 7 unknown #
coedge $-1 $429 $435 $190 $309 forward $436 $-1 #
edge $-1 $312 7.5323656352545996 $431 11.571819547765813 $308 $437 forward 7 unknown #
coedge $-1 $438 $191 $435 $439 forward $300 $-1 #
coedge $-1 $191 $438 $425 $440 forward $300 $-1 #
vertex $-1 $309 $441 #
vertex $-1 $440 $442 #
straight-curve $-1 0 -39.452066498974339 -7.5323656352545996 1 0 0 I I #
face $-1 $-1 $327 $44 $-1 $443 reversed single #
loop $-1 $-1 $444 $193 #
plane-surface $-1 0 39.452066498974339 0 0 -1 0 0 0 -1 forward_v I I I I #
coedge $-1 $323 $445 $446 $447 forward $194 $-1 #
coedge $-1 $446 $196 $198 $325 forward $121 $-1 #
coedge $-1 $196 $446 $444 $448 reversed $121 $-1 #
coedge $-1 $449 $199 $196 $322 forward $327 $-1 #
edge $-1 $329 11.359394896996388 $450 22.514912700317428 $321 $451 forward 7 unknown #
coedge $-1 $452 $318 $197 $324 forward $194 $-1 #
edge $-1 $453 4.2173594481478816 $328 7.9847489299659813 $323 $454 forward 7 unknown #
edge $-1 $329 -119.19797357097083 $453 -111.66319440544063 $198 $455 forward 7 unknown #
coedge $-1 $199 $449 $452 $456 reversed $327 $-1 #
loop $-1 $-1 $321 $315 #
vertex $-1 $456 $457 #
vertex $-1 $200 $458 #
straight-curve $-1 59.598986785485394 28.2965486956533 83.936984311425121 0 0 -1 I I #
coedge $-1 $331 $331 $-1 $459 reversed $203 $-1 #
edge $-1 $460 0 $460 6.2831853071796004 $204 $461 forward 7 unknown #
vertex $-1 $207 $462 #
ellipse-curve $-1 57.715292044576337 30.527652256317502 8.3091644339974984 0.86602541151947299 0 0.49999998660252726 0.49999998660252726 0 -0.86602541151947299 1 I I #
coedge $-1 $335 $335 $-1 $463 reversed $210 $-1 #
edge $-1 $464 0 $464 6.2831853071796004 $211 $465 forward 7 unknown #
vertex $-1 $214 $466 #
ellipse-curve $-1 57.715292044576337 33.874307597313809 8.3091644339974984 0.86602541151947299 0 0.49999998660252726 0.49999998660252726 0 -0.86602541151947299 1 I I #
coedge $-1 $339 $339 $-1 $467 reversed $217 $-1 #
edge $-1 $468 0 $468 6.2831853071796004 $218 $469 forward 7 unknown #
vertex $-1 $221 $470 #
ellipse-curve $-1 57.715292044576337 37.220962938310116 8.3091644339974984 0.86602541151947299 0 0.49999998660252726 0.49999998660252726 0 -0.86602541151947299 1 I I #
face $-1 $-1 $355 $48 $-1 $471 forward single #
loop $-1 $-1 $472 $222 #
plane-surface $-1 -59.598986785485394 0 0 1 0 0 0 0 -1 forward_v I I I I #
coedge $-1 $473 $474 $475 $476 reversed $223 $-1 #
coedge $-1 $477 $225 $227 $353 forward $140 $-1 #
coedge $-1 $225 $477 $473 $478 forward $140 $-1 #
coedge $-1 $475 $228 $225 $350 forward $355 $-1 #
edge $-1 $357 -5.3931995840616302 $479 6.3470294621506191 $349 $480 forward 7 unknown #
coedge $-1 $481 $482 $226 $352 forward $344 $-1 #
edge $-1 $483 -29.727520055123669 $356 -21.865961338253655 $351 $484 forward 7 unknown #
edge $-1 $357 -9.2701801690705281 $483 0 $227 $485 forward 7 unknown #
coedge $-1 $228 $475 $481 $486 forward $355 $-1 #
loop $-1 $-1 $475 $343 #
vertex $-1 $352 $487 #
vertex $-1 $229 $488 #
straight-curve $-1 -80.342301141325166 -4.9162846450171358 11.571819547765813 1 0 0 I I #
coedge $-1 $359 $359 $-1 $489 reversed $232 $-1 #
edge $-1 $490 0 $490 6.2831853071796004 $233 $491 forward 7 unknown #
vertex $-1 $236 $492 #
ellipse-curve $-1 -57.142763317016289 -2.5682388357746859 7.6410401893308055 -0.84804810408105047 0 0.52991925155115449 0.52991925155115449 0 0.84804810408105047 1 I I #
coedge $-1 $363 $363 $-1 $493 reversed $239 $-1 #
edge $-1 $494 0 $494 6.2831853071796004 $240 $495 forward 7 unknown #
vertex $-1 $243 $496 #
ellipse-curve $-1 -57.142763317016289 0.95382987808898889 7.6410401893308055 -0.84804810408105047 0 0.52991925155115449 0.52991925155115449 0 0.84804810408105047 1 I I #
coedge $-1 $367 $367 $-1 $497 reversed $246 $-1 #
edge $-1 $498 0 $498 6.2831853071796004 $247 $499 forward 7 unknown #
vertex $-1 $250 $500 #
ellipse-curve $-1 -57.142763317016289 4.4758985919526637 7.6410401893308055 -0.84804810408105047 0 0.52991925155115449 0.52991925155115449 0 0.84804810408105047 1 I I #
face $-1 $-1 $501 $52 $-1 $502 reversed single #
loop $-1 $-1 $503 $251 #
plane-surface $-1 0 39.452066498974339 0 0 -1 0 0 0 -1 forward_v I I I I #
coedge $-1 $504 $254 $256 $380 forward $159 $-1 #
coedge $-1 $254 $504 $503 $505 reversed $159 $-1 #
coedge $-1 $506 $257 $254 $377 forward $252 $-1 #
edge $-1 $383 10.920861464827983 $507 22.661090511040232 $376 $508 forward 7 unknown #
coedge $-1 $509 $510 $255 $379 forward $501 $-1 #
edge $-1 $511 -29.727520055123669 $382 -21.865961338253655 $378 $512 forward 7 unknown #
edge $-1 $383 -9.2701801690705281 $511 0 $256 $513 forward 7 unknown #
coedge $-1 $257 $506 $509 $514 forward $252 $-1 #
vertex $-1 $379 $515 #
vertex $-1 $258 $516 #
straight-curve $-1 -80.342301141325166 27.71183745276209 11.571819547765813 1 0 0 I I #
coedge $-1 $385 $385 $-1 $517 reversed $261 $-1 #
edge $-1 $518 0 $518 6.2831853071796004 $262 $519 forward 7 unknown #
vertex $-1 $265 $520 #
ellipse-curve $-1 -57.142763317016289 30.05988326200454 7.6410401893308055 -0.84804810408105047 0 0.52991925155115449 0.52991925155115449 0 0.84804810408105047 1 I I #
coedge $-1 $389 $389 $-1 $521 reversed $268 $-1 #
edge $-1 $522 0 $522 6.2831853071796004 $269 $523 forward 7 unknown #
vertex $-1 $272 $524 #
ellipse-curve $-1 -57.142763317016289 33.581951975868215 7.6410401893308055 -0.84804810408105047 0 0.52991925155115449 0.52991925155115449 0 0.84804810408105047 1 I I #
coedge $-1 $393 $393 $-1 $525 reversed $275 $-1 #
edge $-1 $526 0 $526 6.2831853071796004 $276 $527 forward 7 unknown #
vertex $-1 $279 $528 #
ellipse-curve $-1 -57.142763317016289 37.10402068973189 7.6410401893308055 -0.84804810408105047 0 0.52991925155115449 0.52991925155115449 0 0.84804810408105047 1 I I #
face $-1 $-1 $295 $42 $-1 $529 reversed single #
loop $-1 $-1 $412 $280 #
plane-surface $-1 0 39.452066498974339 0 0 -1 0 0 0 -1 forward_v I I I I #
coedge $-1 $530 $410 $413 $531 forward $281 $-1 #
coedge $-1 $283 $416 $284 $404 reversed $178 $-1 #
edge $-1 $296 -11.571819547765813 $408 11.571819547765813 $293 $532 forward 7 unknown #
coedge $-1 $285 $284 $530 $533 forward $113 $-1 #
edge $-1 $408 -59.598986785485394 $534 59.598986785485394 $401 $535 forward 7 unknown #
coedge $-1 $413 $412 $285 $406 reversed $398 $-1 #
edge $-1 $536 -59.598986785485394 $407 59.598986785485394 $405 $537 forward 7 unknown #
vertex $-1 $287 $538 #
vertex $-1 $402 $539 #
straight-curve $-1 59.598986785485394 0 -11.571819547765813 0 -1 0 I I #
coedge $-1 $400 $540 $288 $411 reversed $281 $-1 #
edge $-1 $414 -39.452066498974339 $417 39.452066498974339 $410 $541 forward 7 unknown #
coedge $-1 $405 $289 $294 $419 forward $398 $-1 #
coedge $-1 $289 $405 $400 $531 reversed $398 $-1 #
vertex $-1 $290 $542 #
straight-curve $-1 0 39.452066498974339 11.571819547765813 -1 0 0 I I #
coedge $-1 $401 $291 $540 $543 forward $178 $-1 #
vertex $-1 $411 $544 #
straight-curve $-1 0 -39.452066498974339 11.571819547765813 1 0 0 I I #
edge $-1 $297 -11.571819547765813 $407 11.571819547765813 $294 $545 forward 7 unknown #
point $-1 59.598986785485394 -39.452066498974339 11.571819547765813 #
point $-1 59.598986785485394 39.452066498974339 11.571819547765813 #
face $-1 $-1 $436 $43 $-1 $546 reversed single #
loop $-1 $-1 $547 $299 #
plane-surface $-1 0 -53.099955301364567 -9.5520925915102062 0 1 0 0 0 1 forward_v I I I I #
coedge $-1 $548 $302 $311 $440 reversed $186 $-1 #
coedge $-1 $302 $548 $303 $428 reversed $186 $-1 #
coedge $-1 $304 $303 $549 $550 forward $117 $-1 #
edge $-1 $432 39.452066498974339 $551 53.099955301364567 $426 $552 forward 7 unknown #
coedge $-1 $553 $308 $304 $430 reversed $436 $-1 #
edge $-1 $554 -53.099955301364567 $431 -39.452066498974339 $429 $555 forward 7 unknown #
vertex $-1 $309 $556 #
vertex $-1 $428 $557 #
straight-curve $-1 0 -39.452066498974339 -11.571819547765813 1 0 0 I I #
straight-curve $-1 59.598986785485394 -39.452066498974339 0 0 0 1 I I #
coedge $-1 $308 $553 $310 $439 reversed $436 $-1 #
loop $-1 $-1 $308 $422 #
straight-curve $-1 -59.598986785485394 -39.452066498974339 0 0 0 -1 I I #
coedge $-1 $311 $310 $558 $559 forward $300 $-1 #
edge $-1 $312 -6.8239444011951136 $560 6.8239444011951136 $435 $561 forward 7 unknown #
edge $-1 $562 -6.8239444011951136 $313 6.8239444011951136 $425 $563 forward 7 unknown #
point $-1 -59.598986785485394 -39.452066498974339 -7.5323656352545996 #
point $-1 59.598986785485394 -39.452066498974339 -7.5323656352545996 #
plane-surface $-1 59.598986785485394 0 0 -1 0 0 0 0 1 forward_v I I I I #
coedge $-1 $564 $565 $320 $448 forward $316 $-1 #
coedge $-1 $318 $452 $564 $566 forward $194 $-1 #
coedge $-1 $320 $319 $318 $447 reversed $121 $-1 #
edge $-1 $567 -22.514912700317435 $453 -11.359394896996388 $318 $568 forward 7 unknown #
edge $-1 $450 -72.313530427224691 $567 -64.778751261694509 $444 $569 forward 7 unknown #
coedge $-1 $326 $321 $565 $570 reversed $327 $-1 #
vertex $-1 $322 $571 #
straight-curve $-1 59.598986785485394 16.937153798656912 5.0465093202291698 0 1 0 I I #
coedge $-1 $445 $323 $326 $456 forward $194 $-1 #
vertex $-1 $324 $572 #
straight-curve $-1 51.614237855519413 28.2965486956533 11.571819547765813 1 0 0 I I #
straight-curve $-1 1.5969515771985243e-006 28.2965486956533 108.27498343431645 -0.49999998660252726 0 0.86602541151947299 I I #
edge $-1 $328 28.2965486956533 $573 39.452066498974339 $326 $574 forward 7 unknown #
point $-1 59.598986785485394 28.2965486956533 11.571819547765813 #
point $-1 59.598986785485394 28.2965486956533 5.0465093202291769 #
edge $-1 $575 1 $575 0 $331 $-1 forward 7 unknown #
vertex $-1 $332 $576 #
ellipse-curve $-1 54.886219316695986 30.527652256317502 6.6757985913533462 0.86602541151947299 0 0.49999998660252726 0.49999998660252726 0 -0.86602541151947299 1 I I #
point $-1 58.215292031178876 30.527652256317502 7.4431390224780314 #
edge $-1 $577 1 $577 0 $335 $-1 forward 7 unknown #
vertex $-1 $336 $578 #
ellipse-curve $-1 54.886219316695986 33.874307597313809 6.6757985913533462 0.86602541151947299 0 0.49999998660252726 0.49999998660252726 0 -0.86602541151947299 1 I I #
point $-1 58.215292031178876 33.874307597313809 7.4431390224780314 #
edge $-1 $579 1 $579 0 $339 $-1 forward 7 unknown #
vertex $-1 $340 $580 #
ellipse-curve $-1 54.886219316695986 37.220962938310116 6.6757985913533462 0.86602541151947299 0 0.49999998660252726 0.49999998660252726 0 -0.86602541151947299 1 I I #
point $-1 58.215292031178876 37.220962938310116 7.4431390224780314 #
plane-surface $-1 0 0 11.571819547765813 0 0 1 1 0 0 forward_v I I I I #
coedge $-1 $482 $481 $474 $581 forward $344 $-1 #
coedge $-1 $474 $346 $348 $478 reversed $223 $-1 #
coedge $-1 $346 $473 $472 $581 reversed $223 $-1 #
coedge $-1 $354 $349 $346 $476 forward $355 $-1 #
edge $-1 $479 -25.655761292777981 $582 -20.743314355839772 $475 $583 forward 7 unknown #
coedge $-1 $348 $347 $482 $584 reversed $140 $-1 #
edge $-1 $585 0 $479 9.2701801690705281 $473 $586 forward 7 unknown #
vertex $-1 $350 $587 #
straight-curve $-1 -54.686539848547184 0.47691493904449445 11.571819547765815 0 1 0 I I #
coedge $-1 $472 $351 $354 $486 reversed $344 $-1 #
coedge $-1 $351 $472 $477 $584 forward $344 $-1 #
vertex $-1 $352 $588 #
straight-curve $-1 -59.598986785485394 -4.9162846450171358 33.437780886019468 0 0 1 I I #
straight-curve $-1 -59.598986785485394 -4.9162846450171358 3.7102608308957983 -0.52991925155115449 0 -0.84804810408105047 I I #
edge $-1 $582 -6.8239444011951136 $356 4.9162846450171358 $481 $589 forward 7 unknown #
point $-1 -59.598986785485394 -4.9162846450171358 11.571819547765813 #
point $-1 -54.686539848547184 -4.9162846450171358 11.571819547765813 #
edge $-1 $590 1 $590 0 $359 $-1 forward 7 unknown #
vertex $-1 $360 $591 #
ellipse-curve $-1 -55.795855774898115 -2.5682388357746859 6.7993989744125889 -0.84804810408105047 0 0.52991925155115449 0.52991925155115449 0 0.84804810408105047 1 I I #
point $-1 -56.612844065465133 -2.5682388357746859 8.4890882934118537 #
edge $-1 $592 1 $592 0 $363 $-1 forward 7 unknown #
vertex $-1 $364 $593 #
ellipse-curve $-1 -55.795855774898115 0.95382987808898889 6.7993989744125889 -0.84804810408105047 0 0.52991925155115449 0.52991925155115449 0 0.84804810408105047 1 I I #
point $-1 -56.612844065465133 0.95382987808898889 8.4890882934118537 #
edge $-1 $594 1 $594 0 $367 $-1 forward 7 unknown #
vertex $-1 $368 $595 #
ellipse-curve $-1 -55.795855774898115 4.4758985919526637 6.7993989744125889 -0.84804810408105047 0 0.52991925155115449 0.52991925155115449 0 0.84804810408105047 1 I I #
point $-1 -56.612844065465133 4.4758985919526637 8.4890882934118537 #
loop $-1 $-1 $378 $371 #
plane-surface $-1 -59.598986785485394 0 0 1 0 0 0 0 -1 forward_v I I I I #
coedge $-1 $596 $597 $375 $505 forward $372 $-1 #
coedge $-1 $375 $374 $510 $598 reversed $159 $-1 #
edge $-1 $507 4.9479052345715742 $599 14.218085403642103 $503 $600 forward 7 unknown #
coedge $-1 $381 $376 $597 $601 forward $252 $-1 #
vertex $-1 $601 $602 #
straight-curve $-1 -54.686539848547184 16.790975987934107 11.571819547765815 0 1 0 I I #
coedge $-1 $603 $378 $381 $514 reversed $501 $-1 #
coedge $-1 $378 $603 $504 $598 forward $501 $-1 #
vertex $-1 $379 $604 #
straight-curve $-1 -59.598986785485394 27.71183745276209 33.437780886019468 0 0 1 I I #
straight-curve $-1 -59.598986785485394 27.71183745276209 3.7102608308957983 -0.52991925155115449 0 -0.84804810408105047 I I #
edge $-1 $605 -39.452066498974339 $382 -27.71183745276209 $509 $606 forward 7 unknown #
point $-1 -59.598986785485394 27.71183745276209 11.571819547765813 #
point $-1 -54.686539848547184 27.71183745276209 11.571819547765813 #
edge $-1 $607 1 $607 0 $385 $-1 forward 7 unknown #
vertex $-1 $386 $608 #
ellipse-curve $-1 -55.795855774898115 30.05988326200454 6.7993989744125889 -0.84804810408105047 0 0.52991925155115449 0.52991925155115449 0 0.84804810408105047 1 I I #
point $-1 -56.612844065465133 30.05988326200454 8.4890882934118537 #
edge $-1 $609 1 $609 0 $389 $-1 forward 7 unknown #
vertex $-1 $390 $610 #
ellipse-curve $-1 -55.795855774898115 33.581951975868215 6.7993989744125889 -0.84804810408105047 0 0.52991925155115449 0.52991925155115449 0 0.84804810408105047 1 I I #
point $-1 -56.612844065465133 33.581951975868215 8.4890882934118537 #
edge $-1 $611 1 $611 0 $393 $-1 forward 7 unknown #
vertex $-1 $394 $612 #
ellipse-curve $-1 -55.795855774898115 37.10402068973189 6.7993989744125889 -0.84804810408105047 0 0.52991925155115449 0.52991925155115449 0 0.84804810408105047 1 I I #
point $-1 -56.612844065465133 37.10402068973189 8.4890882934118537 #
plane-surface $-1 59.598986785485394 0 0 -1 0 0 0 0 1 forward_v I I I I #
coedge $-1 $540 $400 $403 $533 reversed $281 $-1 #
edge $-1 $414 -11.571819547765813 $536 11.571819547765813 $413 $613 forward 7 unknown #
straight-curve $-1 59.598986785485394 -39.452066498974339 0 0 0 -1 I I #
edge $-1 $534 -39.452066498974339 $536 39.452066498974339 $530 $614 forward 7 unknown #
vertex $-1 $533 $615 #
straight-curve $-1 0 -39.452066498974339 -11.571819547765813 -1 0 0 I I #
vertex $-1 $406 $616 #
straight-curve $-1 0 39.452066498974339 -11.571819547765813 1 0 0 I I #
point $-1 59.598986785485394 39.452066498974339 -11.571819547765813 #
point $-1 59.598986785485394 -39.452066498974339 -11.571819547765813 #
coedge $-1 $410 $530 $416 $543 reversed $281 $-1 #
straight-curve $-1 -59.598986785485394 0 11.571819547765813 0 -1 0 I I #
point $-1 -59.598986785485394 39.452066498974339 11.571819547765813 #
edge $-1 $417 -11.571819547765813 $534 11.571819547765813 $540 $617 forward 7 unknown #
point $-1 -59.598986785485394 -39.452066498974339 11.571819547765813 #
straight-curve $-1 59.598986785485394 39.452066498974339 0 0 0 -1 I I #
plane-surface $-1 -59.598986785485394 0 0 1 0 0 0 0 -1 forward_v I I I I #
coedge $-1 $549 $558 $553 $618 forward $423 $-1 #
coedge $-1 $426 $425 $619 $620 forward $186 $-1 #
coedge $-1 $619 $547 $427 $550 reversed $423 $-1 #
edge $-1 $551 -59.598986785485394 $554 59.598986785485394 $549 $621 forward 7 unknown #
vertex $-1 $620 $622 #
straight-curve $-1 59.598986785485394 0 -11.571819547765813 0 -1 0 I I #
coedge $-1 $435 $429 $547 $618 reversed $436 $-1 #
vertex $-1 $430 $623 #
straight-curve $-1 -59.598986785485394 0 -11.571819547765813 0 1 0 I I #
point $-1 -59.598986785485394 -39.452066498974339 -11.571819547765813 #
point $-1 59.598986785485394 -39.452066498974339 -11.571819547765813 #
coedge $-1 $547 $619 $438 $559 reversed $423 $-1 #
edge $-1 $560 -59.598986785485394 $562 59.598986785485394 $558 $624 forward 7 unknown #
vertex $-1 $439 $625 #
straight-curve $-1 -59.598986785485394 -46.276010900169453 -7.5323656352545996 0 -1 0 I I #
vertex $-1 $440 $626 #
straight-curve $-1 59.598986785485394 -46.276010900169453 -7.5323656352545996 0 1 0 I I #
coedge $-1 $565 $444 $445 $566 reversed $316 $-1 #
coedge $-1 $444 $564 $449 $570 forward $316 $-1 #
edge $-1 $573 -59.598986785485394 $567 -55.831597303667294 $564 $627 forward 7 unknown #
vertex $-1 $447 $628 #
straight-curve $-1 55.831597303667294 16.937153798656912 11.571819547765813 0 -1 0 I I #
straight-curve $-1 23.442222540691592 39.452066498974339 67.671864266892371 -0.49999998660252726 0 0.86602541151947299 I I #
edge $-1 $573 -11.571819547765813 $450 -5.0465093202291751 $449 $629 forward 7 unknown #
point $-1 59.598986785485394 39.452066498974339 5.0465093202291751 #
point $-1 55.831597303667294 28.2965486956533 11.571819547765813 #
vertex $-1 $456 $630 #
straight-curve $-1 59.598986785485394 0 11.571819547765813 0 1 0 I I #
vertex $-1 $459 $631 #
point $-1 55.38621930329851 30.527652256317502 5.8097731798338739 #
vertex $-1 $463 $632 #
point $-1 55.38621930329851 33.874307597313809 5.8097731798338739 #
vertex $-1 $467 $633 #
point $-1 55.38621930329851 37.220962938310116 5.8097731798338739 #
edge $-1 $582 21.865961338253655 $585 29.727520055123669 $472 $634 forward 7 unknown #
vertex $-1 $486 $635 #
straight-curve $-1 -80.342301141325166 6.8239444011951136 11.571819547765813 -1 0 0 I I #
edge $-1 $585 -6.3470294621506191 $483 5.3931995840616302 $482 $636 forward 7 unknown #
vertex $-1 $584 $637 #
straight-curve $-1 -59.598986785485394 6.8239444011951136 3.7102608308957983 0.52991925155115449 0 0.84804810408105047 I I #
point $-1 -54.686539848547184 6.8239444011951136 11.571819547765813 #
point $-1 -59.598986785485394 -4.9162846450171358 3.7102608308957983 #
straight-curve $-1 -59.598986785485394 0 11.571819547765813 0 -1 0 I I #
vertex $-1 $489 $638 #
point $-1 -55.265936523346966 -2.5682388357746859 7.6474470784936397 #
vertex $-1 $493 $639 #
point $-1 -55.265936523346966 0.95382987808898889 7.6474470784936397 #
vertex $-1 $497 $640 #
point $-1 -55.265936523346966 4.4758985919526637 7.6474470784936397 #
coedge $-1 $597 $503 $603 $641 reversed $372 $-1 #
coedge $-1 $503 $596 $506 $601 reversed $372 $-1 #
edge $-1 $599 -22.661090511040232 $511 -10.920861464827983 $510 $642 forward 7 unknown #
vertex $-1 $505 $643 #
straight-curve $-1 -52.064549609896972 39.452066498974339 15.767881201116939 -0.52991925155115449 0 -0.84804810408105047 I I #
edge $-1 $507 54.686539848547184 $605 59.598986785485394 $597 $644 forward 7 unknown #
point $-1 -54.686539848547184 39.452066498974339 11.571819547765813 #
coedge $-1 $510 $509 $596 $641 forward $501 $-1 #
point $-1 -59.598986785485394 27.71183745276209 3.7102608308957983 #
vertex $-1 $601 $645 #
straight-curve $-1 -59.598986785485394 0 11.571819547765813 0 -1 0 I I #
vertex $-1 $517 $646 #
point $-1 -55.265936523346966 30.05988326200454 7.6474470784936397 #
vertex $-1 $521 $647 #
point $-1 -55.265936523346966 33.581951975868215 7.6474470784936397 #
vertex $-1 $525 $648 #
point $-1 -55.265936523346966 37.10402068973189 7.6474470784936397 #
straight-curve $-1 -59.598986785485394 39.452066498974339 0 0 0 -1 I I #
straight-curve $-1 -59.598986785485394 0 -11.571819547765813 0 1 0 I I #
point $-1 -59.598986785485394 -39.452066498974339 -11.571819547765813 #
point $-1 -59.598986785485394 39.452066498974339 -11.571819547765813 #
straight-curve $-1 -59.598986785485394 -39.452066498974339 0 0 0 -1 I I #
edge $-1 $560 -2.0197269562556066 $554 2.0197269562556066 $553 $649 forward 7 unknown #
coedge $-1 $558 $549 $548 $620 reversed $423 $-1 #
edge $-1 $562 -2.0197269562556066 $551 2.0197269562556066 $548 $650 forward 7 unknown #
straight-curve $-1 0 -53.099955301364567 -11.571819547765813 -1 0 0 I I #
point $-1 59.598986785485394 -53.099955301364567 -11.571819547765813 #
point $-1 -59.598986785485394 -53.099955301364567 -11.571819547765813 #
straight-curve $-1 0 -53.099955301364567 -7.5323656352545996 1 0 0 I I #
point $-1 -59.598986785485394 -53.099955301364567 -7.5323656352545996 #
point $-1 59.598986785485394 -53.099955301364567 -7.5323656352545996 #
straight-curve $-1 0 39.452066498974339 11.571819547765813 -1 0 0 I I #
point $-1 55.831597303667294 39.452066498974347 11.571819547765813 #
straight-curve $-1 59.598986785485394 39.452066498974339 0 0 0 -1 I I #
point $-1 59.598986785485394 39.452066498974339 11.571819547765813 #
point $-1 54.020193905176512 30.527652256317502 6.1757986047508195 #
point $-1 54.020193905176512 33.874307597313809 6.1757986047508195 #
point $-1 54.020193905176512 37.220962938310116 6.1757986047508195 #
straight-curve $-1 -59.598986785485394 6.8239444011951136 33.437780886019468 0 0 -1 I I #
point $-1 -59.598986785485394 6.8239444011951136 11.571819547765813 #
straight-curve $-1 -59.598986785485394 0.47691493904449445 3.7102608308957925 0 -1 0 I I #
point $-1 -59.598986785485394 6.8239444011951136 3.7102608308957983 #
point $-1 -54.94780767081707 -2.5682388357746859 6.2694797228614343 #
point $-1 -54.94780767081707 0.95382987808898889 6.2694797228614343 #
point $-1 -54.94780767081707 4.4758985919526637 6.2694797228614343 #
edge $-1 $605 -11.571819547765813 $599 -3.7102608308957983 $596 $651 forward 7 unknown #
straight-curve $-1 -59.598986785485394 16.790975987934107 3.7102608308957925 0 -1 0 I I #
point $-1 -59.598986785485394 39.452066498974339 3.7102608308957983 #
straight-curve $-1 0 39.452066498974339 11.571819547765813 -1 0 0 I I #
point $-1 -59.598986785485394 39.452066498974339 11.571819547765813 #
point $-1 -54.94780767081707 30.05988326200454 6.2694797228614343 #
point $-1 -54.94780767081707 33.581951975868215 6.2694797228614343 #
point $-1 -54.94780767081707 37.10402068973189 6.2694797228614343 #
straight-curve $-1 -59.598986785485394 -53.099955301364567 -9.5520925915102062 0 0 -1 I I #
straight-curve $-1 59.598986785485394 -53.099955301364567 -9.5520925915102062 0 0 -1 I I #
straight-curve $-1 -59.598986785485394 39.452066498974339 0 0 0 -1 I I #
End-of-ACIS-data 