500 0 9 0           
7 Unknown 11 ACIS 5.0 NT 24 Fri Mar 26 02:12:40 1999 
-1 9.9999999999999995e-007 1e-010 
body $-1 $9 $-1 $10 #
body $-1 $11 $-1 $12 #
body $-1 $13 $-1 $14 #
body $-1 $15 $-1 $16 #
body $-1 $17 $-1 $18 #
body $-1 $19 $-1 $20 #
body $-1 $21 $-1 $22 #
body $-1 $23 $-1 $24 #
body $-1 $25 $-1 $26 #
lump $-1 $-1 $27 $0 #
transform $-1 1 0 0 0 1 0 0 0 1 44.294564653462324 26.863591620211327 8.7562666798811932 1 rotate no_reflect no_shear #
lump $-1 $-1 $28 $1 #
transform $-1 1 0 0 0 1 0 0 0 1 44.294564653462324 26.863591620211327 8.7562666798811932 1 rotate no_reflect no_shear #
lump $-1 $-1 $29 $2 #
transform $-1 1 0 0 0 1 0 0 0 1 44.294564653462324 26.863591620211327 8.7562666798811932 1 rotate no_reflect no_shear #
lump $-1 $-1 $30 $3 #
transform $-1 1 0 0 0 1 0 0 0 1 44.294564653462324 26.863591620211327 8.7562666798811932 1 rotate no_reflect no_shear #
lump $-1 $-1 $31 $4 #
transform $-1 1 0 0 0 1 0 0 0 1 44.294564653462324 26.863591620211327 8.7562666798811932 1 rotate no_reflect no_shear #
lump $-1 $-1 $32 $5 #
transform $-1 1 0 0 0 1 0 0 0 1 44.294564653462324 26.863591620211327 8.7562666798811932 1 rotate no_reflect no_shear #
lump $-1 $-1 $33 $6 #
transform $-1 1 0 0 0 1 0 0 0 1 44.294564653462324 26.863591620211327 8.7562666798811932 1 rotate no_reflect no_shear #
lump $-1 $-1 $34 $7 #
transform $-1 1 0 0 0 1 0 0 0 1 44.294564653462324 26.863591620211327 8.7562666798811932 1 rotate no_reflect no_shear #
lump $-1 $-1 $35 $8 #
transform $-1 1 0 0 0 1 0 0 0 1 44.294564653462324 26.863591620211327 8.7562666798811932 1 rotate no_reflect no_shear #
shell $-1 $-1 $-1 $36 $-1 $9 #
shell $-1 $-1 $-1 $37 $-1 $11 #
shell $-1 $-1 $-1 $38 $-1 $13 #
shell $-1 $-1 $-1 $39 $-1 $15 #
shell $-1 $-1 $-1 $40 $-1 $17 #
shell $-1 $-1 $-1 $41 $-1 $19 #
shell $-1 $-1 $-1 $42 $-1 $21 #
shell $-1 $-1 $-1 $43 $-1 $23 #
shell $-1 $-1 $-1 $44 $-1 $25 #
face $-1 $45 $46 $27 $-1 $47 reversed single #
face $-1 $48 $49 $28 $-1 $50 forward single #
face $-1 $51 $52 $29 $-1 $53 forward single #
face $-1 $54 $55 $30 $-1 $56 reversed single #
face $-1 $57 $58 $31 $-1 $59 forward single #
face $-1 $60 $61 $32 $-1 $62 forward single #
face $-1 $63 $64 $33 $-1 $65 reversed single #
face $-1 $66 $67 $34 $-1 $68 forward single #
face $-1 $69 $70 $35 $-1 $71 forward single #
face $-1 $72 $73 $27 $-1 $74 reversed single #
loop $-1 $-1 $75 $36 #
plane-surface $-1 0 26.863591620211327 0 0 -1 0 0 0 -1 forward_v I I I I #
face $-1 $76 $77 $28 $-1 $78 reversed single #
loop $-1 $-1 $79 $37 #
plane-surface $-1 0 -26.863591620211327 0 0 1 0 0 0 1 forward_v I I I I #
face $-1 $80 $81 $29 $-1 $82 reversed single #
loop $-1 $-1 $83 $38 #
plane-surface $-1 0 26.863591620211327 0 0 -1 0 0 0 -1 forward_v I I I I #
face $-1 $84 $85 $30 $-1 $86 reversed single #
loop $-1 $-1 $87 $39 #
plane-surface $-1 -104.71220627846856 -16.383296814148697 70.317527823536906 0 1 0 -0.68199836817093118 0 0.7313536940579346 forward_v I I I I #
face $-1 $88 $89 $31 $-1 $90 forward single #
loop $-1 $91 $92 $40 #
cone-surface $-1 -42.222373232077665 -14.080610889362944 6.7762269186823998 0.68199836817093118 0 -0.7313536940579346 0.18283842351448365 0 0.17049959204273279 1 I I 0 1 0.25 forward I I I I #
face $-1 $93 $94 $32 $-1 $95 forward single #
loop $-1 $96 $97 $41 #
cone-surface $-1 -42.222373232077665 -10.626582002184318 6.7762269186823998 0.68199836817093118 0 -0.7313536940579346 0.18283842351448365 0 0.17049959204273279 1 I I 0 1 0.25 forward I I I I #
face $-1 $98 $99 $33 $-1 $100 reversed single #
loop $-1 $-1 $101 $42 #
plane-surface $-1 18.246568205067035 12.030680633997697 124.52110576955424 0 -1 0 -0.54463904215088732 0 -0.83867056331134215 forward_v I I I I #
face $-1 $102 $103 $34 $-1 $104 forward single #
loop $-1 $105 $106 $43 #
cone-surface $-1 37.986195945076403 6.5895559230166576 3.6914733101101014 -0.54463904215088732 0 -0.83867056331134215 0.83867056331134215 0 -0.54463904215088732 1 I I 0 1 1 forward I I I I #
face $-1 $107 $108 $35 $-1 $109 forward single #
loop $-1 $110 $111 $44 #
cone-surface $-1 37.986195945076403 9.8542307496052821 3.6914733101101014 -0.54463904215088732 0 -0.83867056331134215 0.83867056331134215 0 -0.54463904215088732 1 I I 0 1 1 forward I I I I #
face $-1 $112 $113 $27 $-1 $114 forward single #
loop $-1 $-1 $115 $45 #
plane-surface $-1 0 -26.863591620211327 0 0 1 0 0 0 1 forward_v I I I I #
coedge $-1 $116 $117 $118 $119 reversed $46 $-1 #
face $-1 $120 $121 $28 $-1 $122 reversed single #
loop $-1 $-1 $123 $48 #
plane-surface $-1 0 0 -8.7562666798811932 0 0 1 1 0 0 forward_v I I I I #
coedge $-1 $124 $125 $126 $127 forward $49 $-1 #
face $-1 $128 $129 $29 $-1 $130 reversed single #
loop $-1 $-1 $131 $51 #
plane-surface $-1 0 0 -8.7562666798811932 0 0 1 1 0 0 forward_v I I I I #
coedge $-1 $132 $133 $134 $135 forward $52 $-1 #
face $-1 $136 $137 $30 $-1 $138 reversed single #
loop $-1 $-1 $139 $54 #
plane-surface $-1 -44.294564653462331 -12.353596445773631 5.5275408515415307 -0.68199836817093118 0 0.7313536940579346 0.7313536940579346 0 0.68199836817093118 forward_v I I I I #
coedge $-1 $140 $141 $142 $143 reversed $55 $-1 #
face $-1 $-1 $144 $31 $-1 $145 forward single #
loop $-1 $146 $147 $57 #
cone-surface $-1 -41.796124251970831 -14.080610889362944 6.3191308598961911 0.68199836817093118 0 -0.7313536940579346 0.091419211757241825 0 0.085249796021366397 1 I I -0.70710678118654746 0.70710678118654746 0.125 forward I I I I #
loop $-1 $-1 $148 $40 #
coedge $-1 $92 $92 $149 $150 reversed $58 $-1 #
face $-1 $-1 $151 $32 $-1 $152 forward single #
loop $-1 $153 $154 $60 #
cone-surface $-1 -41.796124251970831 -10.626582002184318 6.3191308598961911 0.68199836817093118 0 -0.7313536940579346 0.091419211757241825 0 0.085249796021366397 1 I I -0.70710678118654746 0.70710678118654746 0.125 forward I I I I #
loop $-1 $-1 $155 $41 #
coedge $-1 $97 $97 $156 $157 reversed $61 $-1 #
face $-1 $158 $159 $33 $-1 $160 reversed single #
loop $-1 $-1 $161 $63 #
plane-surface $-1 -30.002530325637508 8.2218933363109663 50.224010790454415 0.54463904215088732 0 0.83867056331134215 0.83867056331134215 0 -0.54463904215088732 forward_v I I I I #
coedge $-1 $162 $163 $164 $165 reversed $64 $-1 #
face $-1 $-1 $166 $34 $-1 $167 forward single #
loop $-1 $168 $169 $66 #
cone-surface $-1 36.626692657742062 6.5895559230166576 1.5980218687489867 -0.54463904215088732 0 -0.83867056331134215 0.41933528165567108 0 -0.27231952107544366 1 I I -0.70710678118654746 0.70710678118654746 0.5 forward I I I I #
loop $-1 $-1 $170 $43 #
coedge $-1 $106 $106 $171 $172 reversed $67 $-1 #
face $-1 $-1 $173 $35 $-1 $174 forward single #
loop $-1 $175 $176 $69 #
cone-surface $-1 36.626692657742062 9.8542307496052821 1.5980218687489867 -0.54463904215088732 0 -0.83867056331134215 0.41933528165567108 0 -0.27231952107544366 1 I I -0.70710678118654746 0.70710678118654746 0.5 forward I I I I #
loop $-1 $-1 $177 $44 #
coedge $-1 $111 $111 $178 $179 reversed $70 $-1 #
face $-1 $180 $181 $27 $-1 $182 reversed single #
loop $-1 $-1 $183 $72 #
plane-surface $-1 0 0 8.7562666798811932 0 0 1 1 0 0 forward_v I I I I #
coedge $-1 $184 $185 $186 $187 reversed $73 $-1 #
coedge $-1 $188 $75 $189 $190 reversed $46 $-1 #
coedge $-1 $75 $188 $191 $192 forward $46 $-1 #
coedge $-1 $193 $194 $75 $119 forward $181 $-1 #
edge $-1 $195 -44.294564653462324 $196 44.294564653462324 $75 $197 forward 7 unknown #
face $-1 $198 $199 $28 $-1 $200 reversed single #
loop $-1 $-1 $201 $76 #
plane-surface $-1 -36.109019969135318 -37.343886426273954 0 0 1 0 0 0 1 forward_v I I I I #
coedge $-1 $202 $203 $125 $204 forward $77 $-1 #
coedge $-1 $205 $79 $206 $207 reversed $49 $-1 #
coedge $-1 $79 $205 $123 $204 reversed $49 $-1 #
coedge $-1 $208 $209 $79 $127 reversed $199 $-1 #
edge $-1 $210 -8.7562666798811932 $211 8.7562666798811932 $126 $212 forward 7 unknown #
face $-1 $213 $214 $29 $-1 $215 reversed single #
loop $-1 $-1 $216 $80 #
plane-surface $-1 -38.121381986800813 32.103739023242639 0 1 0 0 0 0 -1 forward_v I I I I #
coedge $-1 $217 $218 $133 $219 forward $81 $-1 #
coedge $-1 $220 $83 $221 $222 reversed $52 $-1 #
coedge $-1 $83 $220 $131 $219 reversed $52 $-1 #
coedge $-1 $223 $224 $83 $135 reversed $225 $-1 #
edge $-1 $226 -8.7562666798811932 $227 8.7562666798811932 $134 $228 forward 7 unknown #
face $-1 $229 $230 $30 $-1 $231 reversed single #
loop $-1 $-1 $232 $84 #
plane-surface $-1 -104.71220627846856 -8.3238960773985653 70.317527823536906 0 -1 0 0.68199836817093118 0 -0.7313536940579346 forward_v I I I I #
coedge $-1 $233 $234 $235 $236 reversed $85 $-1 #
coedge $-1 $141 $87 $237 $238 reversed $55 $-1 #
coedge $-1 $87 $140 $233 $239 reversed $55 $-1 #
coedge $-1 $235 $240 $87 $143 forward $241 $-1 #
edge $-1 $242 8.0615384857719548 $243 11.523922960370349 $142 $244 forward 7 unknown #
loop $-1 $-1 $149 $88 #
plane-surface $-1 -44.294564653462331 -12.353596445773631 5.5275408515415307 -0.68199836817093118 0 0.7313536940579346 0.7313536940579346 0 0.68199836817093118 forward_v I I I I #
loop $-1 $-1 $245 $57 #
coedge $-1 $147 $147 $148 $246 reversed $89 $-1 #
coedge $-1 $148 $148 $147 $246 forward $91 $-1 #
coedge $-1 $149 $149 $92 $150 forward $144 $-1 #
edge $-1 $247 0 $247 6.2831853071796004 $149 $248 forward 7 unknown #
loop $-1 $-1 $156 $93 #
plane-surface $-1 -44.294564653462331 -12.353596445773631 5.5275408515415307 -0.68199836817093118 0 0.7313536940579346 0.7313536940579346 0 0.68199836817093118 forward_v I I I I #
loop $-1 $-1 $249 $60 #
coedge $-1 $154 $154 $155 $250 reversed $94 $-1 #
coedge $-1 $155 $155 $154 $250 forward $96 $-1 #
coedge $-1 $156 $156 $97 $157 forward $151 $-1 #
edge $-1 $251 0 $251 6.2831853071796004 $156 $252 forward 7 unknown #
face $-1 $253 $254 $33 $-1 $255 forward single #
loop $-1 $-1 $256 $98 #
plane-surface $-1 18.246568205067035 4.4131060386242353 124.52110576955424 0 1 0 0.54463904215088732 0 0.83867056331134215 forward_v I I I I #
coedge $-1 $257 $258 $259 $260 reversed $99 $-1 #
coedge $-1 $163 $101 $261 $262 reversed $64 $-1 #
coedge $-1 $101 $162 $257 $263 reversed $64 $-1 #
coedge $-1 $259 $264 $101 $165 forward $254 $-1 #
edge $-1 $265 -35.171280550928806 $266 -24.728910666674764 $164 $267 forward 7 unknown #
loop $-1 $-1 $171 $102 #
plane-surface $-1 -30.002530325637508 8.2218933363109663 50.224010790454415 0.54463904215088732 0 0.83867056331134215 0.83867056331134215 0 -0.54463904215088732 forward_v I I I I #
loop $-1 $-1 $268 $66 #
coedge $-1 $169 $169 $170 $269 reversed $103 $-1 #
coedge $-1 $170 $170 $169 $269 forward $105 $-1 #
coedge $-1 $171 $171 $106 $172 forward $166 $-1 #
edge $-1 $270 0 $270 6.2831853071796004 $171 $271 forward 7 unknown #
loop $-1 $-1 $178 $107 #
plane-surface $-1 -30.002530325637508 8.2218933363109663 50.224010790454415 0.54463904215088732 0 0.83867056331134215 0.83867056331134215 0 -0.54463904215088732 forward_v I I I I #
loop $-1 $-1 $272 $69 #
coedge $-1 $176 $176 $177 $273 reversed $108 $-1 #
coedge $-1 $177 $177 $176 $273 forward $110 $-1 #
coedge $-1 $178 $178 $111 $179 forward $173 $-1 #
edge $-1 $274 0 $274 6.2831853071796004 $178 $275 forward 7 unknown #
face $-1 $276 $277 $27 $-1 $278 reversed single #
loop $-1 $-1 $193 $112 #
plane-surface $-1 0 0 -8.7562666798811932 0 0 1 1 0 0 forward_v I I I I #
coedge $-1 $279 $280 $281 $282 forward $113 $-1 #
coedge $-1 $283 $115 $284 $285 reversed $73 $-1 #
coedge $-1 $115 $283 $286 $287 forward $73 $-1 #
coedge $-1 $194 $193 $115 $187 forward $181 $-1 #
edge $-1 $288 -44.294564653462324 $289 44.294564653462324 $115 $290 forward 7 unknown #
coedge $-1 $117 $116 $279 $291 reversed $46 $-1 #
coedge $-1 $292 $293 $116 $190 forward $277 $-1 #
edge $-1 $294 -8.7562666798811932 $195 8.7562666798811932 $116 $295 forward 7 unknown #
coedge $-1 $281 $296 $117 $192 reversed $297 $-1 #
edge $-1 $298 -8.7562666798811932 $196 8.7562666798811932 $191 $299 forward 7 unknown #
coedge $-1 $186 $118 $296 $300 forward $181 $-1 #
coedge $-1 $118 $186 $292 $301 forward $181 $-1 #
vertex $-1 $119 $302 #
vertex $-1 $300 $303 #
straight-curve $-1 0 26.863591620211327 -8.7562666798811932 1 0 0 I I #
face $-1 $304 $305 $28 $-1 $306 reversed single #
loop $-1 $-1 $126 $120 #
plane-surface $-1 -38.121381986800813 -32.103739023242639 0 1 0 0 0 0 -1 forward_v I I I I #
coedge $-1 $307 $308 $309 $310 forward $121 $-1 #
coedge $-1 $311 $123 $312 $313 forward $77 $-1 #
coedge $-1 $123 $311 $208 $314 forward $77 $-1 #
edge $-1 $210 -38.121381986800813 $315 -34.096657951469822 $123 $316 forward 7 unknown #
coedge $-1 $125 $124 $317 $318 forward $49 $-1 #
coedge $-1 $319 $320 $124 $207 forward $321 $-1 #
edge $-1 $322 34.096657951469822 $211 38.121381986800813 $206 $323 forward 7 unknown #
coedge $-1 $309 $126 $203 $314 reversed $199 $-1 #
coedge $-1 $126 $309 $319 $324 reversed $199 $-1 #
vertex $-1 $204 $325 #
vertex $-1 $324 $326 #
straight-curve $-1 -38.121381986800813 -26.863591620211327 0 0 0 1 I I #
face $-1 $327 $225 $29 $-1 $328 reversed single #
loop $-1 $-1 $329 $128 #
plane-surface $-1 -36.109019969135318 37.343886426273954 0 0 -1 0 0 0 -1 forward_v I I I I #
coedge $-1 $330 $331 $332 $333 forward $129 $-1 #
coedge $-1 $334 $131 $330 $335 forward $81 $-1 #
coedge $-1 $131 $334 $223 $336 forward $81 $-1 #
edge $-1 $226 34.096657951469822 $337 38.121381986800813 $131 $338 forward 7 unknown #
coedge $-1 $133 $132 $339 $340 forward $52 $-1 #
coedge $-1 $341 $342 $132 $222 forward $343 $-1 #
edge $-1 $344 -38.121381986800813 $227 -34.096657951469822 $221 $345 forward 7 unknown #
coedge $-1 $346 $134 $218 $336 reversed $225 $-1 #
coedge $-1 $134 $346 $341 $347 reversed $225 $-1 #
loop $-1 $-1 $134 $213 #
vertex $-1 $219 $348 #
vertex $-1 $347 $349 #
straight-curve $-1 -34.096657951469822 26.863591620211327 0 0 0 1 I I #
face $-1 $-1 $241 $30 $-1 $350 forward single #
loop $-1 $-1 $351 $136 #
plane-surface $-1 -44.294564653462324 0 0 1 0 0 0 0 -1 forward_v I I I I #
coedge $-1 $352 $353 $354 $355 reversed $137 $-1 #
coedge $-1 $356 $139 $141 $239 forward $85 $-1 #
coedge $-1 $139 $356 $352 $357 forward $85 $-1 #
coedge $-1 $354 $142 $139 $236 forward $241 $-1 #
edge $-1 $243 -10.20649859126188 $358 -2.1470978545117498 $235 $359 forward 7 unknown #
coedge $-1 $360 $361 $140 $238 forward $230 $-1 #
edge $-1 $362 -29.631223060226915 $242 -26.40249723188726 $237 $363 forward 7 unknown #
edge $-1 $243 -4.7342134219453698 $362 -9.4367341760026555e-015 $141 $364 forward 7 unknown #
coedge $-1 $142 $354 $360 $365 forward $241 $-1 #
loop $-1 $-1 $354 $229 #
vertex $-1 $238 $366 #
vertex $-1 $143 $367 #
straight-curve $-1 -52.356103139234278 -16.383296814148697 8.7562666798811932 1 0 0 I I #
coedge $-1 $245 $245 $-1 $368 reversed $146 $-1 #
edge $-1 $369 0 $369 6.2831853071796004 $147 $370 forward 7 unknown #
vertex $-1 $150 $371 #
ellipse-curve $-1 -42.563372416163126 -14.080610889362944 7.1419037657113638 -0.68199836817093118 0 0.7313536940579346 0.18283842351448365 0 0.17049959204273279 1 I I #
coedge $-1 $249 $249 $-1 $372 reversed $153 $-1 #
edge $-1 $373 0 $373 6.2831853071796004 $154 $374 forward 7 unknown #
vertex $-1 $157 $375 #
ellipse-curve $-1 -42.563372416163126 -10.626582002184318 7.1419037657113638 -0.68199836817093118 0 0.7313536940579346 0.18283842351448365 0 0.17049959204273279 1 I I #
face $-1 $-1 $376 $33 $-1 $377 reversed single #
loop $-1 $-1 $164 $158 #
plane-surface $-1 0 0 8.7562666798811932 0 0 1 1 0 0 forward_v I I I I #
coedge $-1 $378 $379 $380 $381 reversed $159 $-1 #
coedge $-1 $382 $161 $163 $263 forward $99 $-1 #
coedge $-1 $161 $382 $378 $383 forward $99 $-1 #
coedge $-1 $380 $164 $161 $260 forward $254 $-1 #
edge $-1 $266 -7.9197339658422141 $384 -0.30215937046875219 $259 $385 forward 7 unknown #
coedge $-1 $386 $387 $162 $262 forward $376 $-1 #
edge $-1 $388 -60.285640625027249 $265 -53.504286204895926 $261 $389 forward 7 unknown #
edge $-1 $266 76.138030697925913 $388 88.589129306924647 $163 $390 forward 7 unknown #
coedge $-1 $164 $380 $386 $391 forward $254 $-1 #
vertex $-1 $165 $392 #
vertex $-1 $165 $393 #
straight-curve $-1 9.1232841025335176 12.030680633997697 8.7562666798811932 -1 0 0 I I #
coedge $-1 $268 $268 $-1 $394 reversed $168 $-1 #
edge $-1 $395 0 $395 6.2831853071796004 $169 $396 forward 7 unknown #
vertex $-1 $172 $397 #
ellipse-curve $-1 39.073379711335292 6.5895559230166576 5.3655894698155331 0.54463904215088732 0 0.83867056331134215 0.83867056331134215 0 -0.54463904215088732 1 I I #
coedge $-1 $272 $272 $-1 $398 reversed $175 $-1 #
edge $-1 $399 0 $399 6.2831853071796004 $176 $400 forward 7 unknown #
vertex $-1 $179 $401 #
ellipse-curve $-1 39.073379711335292 9.8542307496052821 5.3655894698155331 0.54463904215088732 0 0.83867056331134215 0.83867056331134215 0 -0.54463904215088732 1 I I #
face $-1 $-1 $297 $27 $-1 $402 reversed single #
loop $-1 $-1 $189 $180 #
plane-surface $-1 -44.294564653462324 0 0 1 0 0 0 0 -1 forward_v I I I I #
coedge $-1 $403 $183 $188 $291 forward $113 $-1 #
coedge $-1 $183 $403 $283 $404 forward $113 $-1 #
coedge $-1 $284 $191 $183 $282 reversed $297 $-1 #
edge $-1 $405 -26.863591620211327 $298 26.863591620211327 $281 $406 forward 7 unknown #
coedge $-1 $185 $184 $280 $404 reversed $73 $-1 #
coedge $-1 $296 $281 $184 $285 forward $297 $-1 #
edge $-1 $405 -8.7562666798811932 $288 8.7562666798811932 $284 $407 forward 7 unknown #
coedge $-1 $293 $292 $185 $287 reversed $277 $-1 #
edge $-1 $408 -8.7562666798811932 $289 8.7562666798811932 $286 $409 forward 7 unknown #
vertex $-1 $285 $410 #
vertex $-1 $301 $411 #
straight-curve $-1 0 -26.863591620211327 -8.7562666798811932 -1 0 0 I I #
edge $-1 $298 -44.294564653462324 $294 44.294564653462324 $188 $412 forward 7 unknown #
coedge $-1 $286 $189 $194 $301 reversed $277 $-1 #
coedge $-1 $189 $286 $403 $413 reversed $277 $-1 #
vertex $-1 $291 $414 #
straight-curve $-1 -44.294564653462324 26.863591620211327 0 0 0 -1 I I #
coedge $-1 $191 $284 $193 $300 reversed $297 $-1 #
loop $-1 $-1 $284 $276 #
vertex $-1 $282 $415 #
straight-curve $-1 44.294564653462324 26.863591620211327 0 0 0 -1 I I #
edge $-1 $196 -26.863591620211327 $288 26.863591620211327 $296 $416 forward 7 unknown #
edge $-1 $289 -26.863591620211327 $195 26.863591620211327 $292 $417 forward 7 unknown #
point $-1 -44.294564653462324 26.863591620211327 -8.7562666798811932 #
point $-1 44.294564653462324 26.863591620211327 -8.7562666798811932 #
face $-1 $-1 $321 $28 $-1 $418 forward single #
loop $-1 $-1 $419 $198 #
plane-surface $-1 -34.096657951469822 -32.103739023242639 0 -1 0 0 0 0 1 forward_v I I I I #
coedge $-1 $420 $201 $311 $421 reversed $121 $-1 #
coedge $-1 $201 $420 $422 $423 reversed $121 $-1 #
coedge $-1 $209 $208 $201 $310 reversed $199 $-1 #
edge $-1 $424 -8.7562666798811932 $425 8.7562666798811932 $309 $426 forward 7 unknown #
coedge $-1 $203 $202 $307 $421 forward $77 $-1 #
coedge $-1 $317 $419 $202 $313 reversed $305 $-1 #
edge $-1 $315 -5.2401474030313153 $427 5.2401474030313153 $312 $428 forward 7 unknown #
edge $-1 $425 -5.2401474030313153 $210 5.2401474030313153 $208 $429 forward 7 unknown #
vertex $-1 $313 $430 #
straight-curve $-1 0 -26.863591620211327 -8.7562666798811932 1 0 0 I I #
coedge $-1 $431 $312 $205 $318 reversed $305 $-1 #
edge $-1 $322 -8.7562666798811932 $315 8.7562666798811932 $317 $432 forward 7 unknown #
coedge $-1 $422 $206 $209 $324 forward $321 $-1 #
coedge $-1 $206 $422 $431 $433 forward $321 $-1 #
loop $-1 $-1 $206 $304 #
vertex $-1 $207 $434 #
straight-curve $-1 0 -26.863591620211327 8.7562666798811932 -1 0 0 I I #
edge $-1 $211 -5.2401474030313153 $424 5.2401474030313153 $209 $435 forward 7 unknown #
point $-1 -38.121381986800813 -26.863591620211324 -8.7562666798811932 #
point $-1 -38.121381986800813 -26.863591620211324 8.7562666798811932 #
face $-1 $-1 $343 $29 $-1 $436 forward single #
plane-surface $-1 -34.096657951469822 32.103739023242639 0 -1 0 0 0 0 1 forward_v I I I I #
coedge $-1 $437 $438 $346 $439 forward $214 $-1 #
coedge $-1 $339 $216 $217 $335 reversed $129 $-1 #
coedge $-1 $216 $339 $342 $440 reversed $129 $-1 #
coedge $-1 $438 $437 $216 $333 reversed $214 $-1 #
edge $-1 $441 -8.7562666798811932 $442 8.7562666798811932 $332 $443 forward 7 unknown #
coedge $-1 $218 $217 $437 $444 forward $81 $-1 #
edge $-1 $337 -5.2401474030313118 $442 5.2401474030313153 $330 $445 forward 7 unknown #
edge $-1 $446 -5.2401474030313153 $226 5.2401474030313118 $223 $447 forward 7 unknown #
vertex $-1 $335 $448 #
straight-curve $-1 0 26.863591620211327 -8.7562666798811932 -1 0 0 I I #
coedge $-1 $331 $330 $220 $340 reversed $129 $-1 #
edge $-1 $344 -8.7562666798811932 $337 8.7562666798811932 $339 $449 forward 7 unknown #
coedge $-1 $450 $221 $224 $347 forward $343 $-1 #
coedge $-1 $221 $450 $331 $440 forward $343 $-1 #
loop $-1 $-1 $221 $327 #
vertex $-1 $222 $451 #
straight-curve $-1 0 26.863591620211327 8.7562666798811932 1 0 0 I I #
coedge $-1 $224 $223 $329 $439 reversed $225 $-1 #
edge $-1 $227 -5.2401474030313118 $452 5.2401474030313153 $224 $453 forward 7 unknown #
point $-1 -34.096657951469822 26.863591620211327 -8.7562666798811932 #
point $-1 -34.096657951469822 26.863591620211327 8.7562666798811932 #
plane-surface $-1 0 0 8.7562666798811932 0 0 1 1 0 0 forward_v I I I I #
coedge $-1 $361 $360 $353 $454 forward $230 $-1 #
coedge $-1 $353 $232 $234 $357 reversed $137 $-1 #
coedge $-1 $232 $352 $351 $454 reversed $137 $-1 #
coedge $-1 $240 $235 $232 $355 forward $241 $-1 #
edge $-1 $358 -11.523922960370349 $455 -8.0615384857719548 $354 $456 forward 7 unknown #
coedge $-1 $234 $233 $361 $457 reversed $85 $-1 #
edge $-1 $458 9.4367341760026555e-015 $358 4.7342134219453698 $352 $459 forward 7 unknown #
vertex $-1 $236 $460 #
straight-curve $-1 -40.832180178863929 -6.1767982228868155 8.7562666798811932 0 1 0 I I #
coedge $-1 $351 $237 $240 $365 reversed $230 $-1 #
coedge $-1 $237 $351 $356 $457 forward $230 $-1 #
vertex $-1 $238 $461 #
straight-curve $-1 -44.294564653462324 -16.383296814148697 35.158763911768453 0 0 1 I I #
straight-curve $-1 -44.294564653462331 -16.383296814148697 5.5275408515415307 -0.7313536940579346 0 -0.68199836817093118 I I #
edge $-1 $455 8.3238960773985653 $242 16.383296814148697 $360 $462 forward 7 unknown #
point $-1 -44.294564653462324 -16.383296814148697 8.7562666798811932 #
point $-1 -40.832180178863929 -16.383296814148697 8.7562666798811932 #
edge $-1 $463 1 $463 0 $245 $-1 forward 7 unknown #
vertex $-1 $246 $464 #
ellipse-curve $-1 -41.881374047992196 -14.080610889362944 6.4105500716534332 -0.68199836817093118 0 0.7313536940579346 0.18283842351448365 0 0.17049959204273279 1 I I #
point $-1 -42.380533992648644 -14.080610889362944 7.3124033577540999 #
edge $-1 $465 1 $465 0 $249 $-1 forward 7 unknown #
vertex $-1 $250 $466 #
ellipse-curve $-1 -41.881374047992196 -10.626582002184318 6.4105500716534332 -0.68199836817093118 0 0.7313536940579346 0.18283842351448365 0 0.17049959204273279 1 I I #
point $-1 -42.380533992648644 -10.626582002184318 7.3124033577540999 #
loop $-1 $-1 $261 $253 #
plane-surface $-1 44.294564653462324 0 0 -1 0 0 0 0 1 forward_v I I I I #
coedge $-1 $379 $256 $258 $383 reversed $159 $-1 #
coedge $-1 $256 $378 $467 $468 reversed $159 $-1 #
coedge $-1 $264 $259 $256 $381 forward $254 $-1 #
edge $-1 $384 24.728910666674764 $469 35.171280550928806 $380 $470 forward 7 unknown #
coedge $-1 $258 $257 $387 $471 reversed $99 $-1 #
edge $-1 $472 -88.589129306924647 $384 -76.138030697925913 $378 $473 forward 7 unknown #
vertex $-1 $260 $474 #
straight-curve $-1 33.852194769208282 4.1109466681554832 8.7562666798811861 0 -1 0 I I #
coedge $-1 $467 $261 $264 $391 reversed $376 $-1 #
coedge $-1 $261 $467 $382 $471 forward $376 $-1 #
vertex $-1 $262 $475 #
straight-curve $-1 44.294564653462324 12.030680633997697 62.26055288477712 0 0 1 I I #
straight-curve $-1 -30.002530325637508 12.030680633997697 50.224010790454415 0.83867056331134215 0 -0.54463904215088732 I I #
edge $-1 $469 4.4131060386242353 $265 12.030680633997697 $386 $476 forward 7 unknown #
point $-1 44.294564653462324 12.030680633997697 8.7562666798811932 #
point $-1 33.852194769208282 12.030680633997697 8.7562666798811932 #
edge $-1 $477 1 $477 0 $268 $-1 forward 7 unknown #
vertex $-1 $269 $478 #
ellipse-curve $-1 36.899012178817507 6.5895559230166576 2.0173571504046577 0.54463904215088732 0 0.83867056331134215 0.83867056331134215 0 -0.54463904215088732 1 I I #
point $-1 39.912050274646639 6.5895559230166576 4.8209504276646573 #
edge $-1 $479 1 $479 0 $272 $-1 forward 7 unknown #
vertex $-1 $273 $480 #
ellipse-curve $-1 36.899012178817507 9.8542307496052821 2.0173571504046577 0.54463904215088732 0 0.83867056331134215 0.83867056331134215 0 -0.54463904215088732 1 I I #
point $-1 39.912050274646639 9.8542307496052821 4.8209504276646573 #
plane-surface $-1 44.294564653462324 0 0 -1 0 0 0 0 1 forward_v I I I I #
coedge $-1 $280 $279 $293 $413 forward $113 $-1 #
edge $-1 $408 -44.294564653462324 $405 44.294564653462324 $283 $481 forward 7 unknown #
vertex $-1 $282 $482 #
straight-curve $-1 44.294564653462324 0 8.7562666798811932 0 1 0 I I #
straight-curve $-1 44.294564653462324 -26.863591620211327 0 0 0 -1 I I #
vertex $-1 $413 $483 #
straight-curve $-1 -44.294564653462324 -26.863591620211327 0 0 0 -1 I I #
point $-1 44.294564653462324 -26.863591620211327 -8.7562666798811932 #
point $-1 -44.294564653462324 -26.863591620211327 -8.7562666798811932 #
straight-curve $-1 0 26.863591620211327 8.7562666798811932 -1 0 0 I I #
edge $-1 $294 -26.863591620211327 $408 26.863591620211327 $293 $484 forward 7 unknown #
point $-1 -44.294564653462324 26.863591620211327 8.7562666798811932 #
point $-1 44.294564653462324 26.863591620211327 8.7562666798811932 #
straight-curve $-1 44.294564653462324 0 -8.7562666798811932 0 -1 0 I I #
straight-curve $-1 -44.294564653462324 0 -8.7562666798811932 0 1 0 I I #
plane-surface $-1 0 0 8.7562666798811932 0 0 1 1 0 0 forward_v I I I I #
coedge $-1 $312 $431 $420 $485 forward $305 $-1 #
coedge $-1 $308 $307 $419 $485 reversed $121 $-1 #
edge $-1 $427 -2.0123620176654953 $425 2.0123620176654953 $307 $486 forward 7 unknown #
coedge $-1 $320 $319 $308 $423 forward $321 $-1 #
edge $-1 $424 -2.0123620176654953 $487 2.0123620176654953 $308 $488 forward 7 unknown #
vertex $-1 $324 $489 #
vertex $-1 $314 $490 #
straight-curve $-1 -38.121381986800813 -37.343886426273954 0 0 0 -1 I I #
vertex $-1 $485 $491 #
straight-curve $-1 -34.096657951469822 -32.103739023242639 -8.7562666798811932 0 -1 0 I I #
straight-curve $-1 -38.121381986800813 -32.103739023242639 -8.7562666798811932 0 1 0 I I #
point $-1 -34.096657951469822 -26.863591620211324 -8.7562666798811932 #
coedge $-1 $419 $317 $320 $433 reversed $305 $-1 #
straight-curve $-1 -34.096657951469822 -26.863591620211327 0 0 0 -1 I I #
edge $-1 $487 -5.2401474030313153 $322 5.2401474030313153 $431 $492 forward 7 unknown #
point $-1 -34.096657951469822 -26.863591620211324 8.7562666798811932 #
straight-curve $-1 -38.121381986800813 -32.103739023242639 8.7562666798811932 0 -1 0 I I #
plane-surface $-1 0 0 8.7562666798811932 0 0 1 1 0 0 forward_v I I I I #
coedge $-1 $332 $329 $334 $444 reversed $214 $-1 #
coedge $-1 $329 $332 $450 $493 reversed $214 $-1 #
edge $-1 $452 -8.7562666798811932 $446 8.7562666798811932 $346 $494 forward 7 unknown #
edge $-1 $441 -5.2401474030313153 $344 5.2401474030313118 $331 $495 forward 7 unknown #
vertex $-1 $493 $496 #
vertex $-1 $444 $497 #
straight-curve $-1 -38.121381986800813 37.343886426273954 0 0 0 -1 I I #
edge $-1 $442 -2.0123620176654953 $446 2.0123620176654953 $437 $498 forward 7 unknown #
straight-curve $-1 -38.121381986800813 32.103739023242639 -8.7562666798811932 0 1 0 I I #
vertex $-1 $336 $499 #
straight-curve $-1 -34.096657951469822 32.103739023242639 -8.7562666798811932 0 -1 0 I I #
point $-1 -38.121381986800813 26.863591620211327 -8.7562666798811932 #
straight-curve $-1 -38.121381986800813 26.863591620211327 0 0 0 -1 I I #
coedge $-1 $342 $341 $438 $493 forward $343 $-1 #
point $-1 -38.121381986800813 26.863591620211327 8.7562666798811932 #
vertex $-1 $347 $500 #
straight-curve $-1 -34.096657951469822 32.103739023242639 8.7562666798811932 0 1 0 I I #
edge $-1 $455 26.40249723188726 $458 29.631223060226915 $351 $501 forward 7 unknown #
vertex $-1 $365 $502 #
straight-curve $-1 -52.356103139234278 -8.3238960773985653 8.7562666798811932 -1 0 0 I I #
edge $-1 $458 2.1470978545117498 $362 10.20649859126188 $361 $503 forward 7 unknown #
vertex $-1 $457 $504 #
straight-curve $-1 -44.294564653462331 -8.3238960773985653 5.5275408515415307 0.7313536940579346 0 0.68199836817093118 I I #
point $-1 -40.832180178863929 -8.3238960773985653 8.7562666798811932 #
point $-1 -44.294564653462324 -16.383296814148697 5.527540851541537 #
straight-curve $-1 -44.294564653462324 0 8.7562666798811932 0 -1 0 I I #
vertex $-1 $368 $505 #
point $-1 -41.698535624477714 -14.080610889362944 6.5810496636961657 #
vertex $-1 $372 $506 #
point $-1 -41.698535624477714 -10.626582002184318 6.5810496636961657 #
coedge $-1 $387 $386 $379 $468 forward $376 $-1 #
edge $-1 $469 53.504286204895926 $472 60.285640625027249 $467 $507 forward 7 unknown #
vertex $-1 $391 $508 #
straight-curve $-1 9.1232841025335176 4.4131060386242353 8.7562666798811932 1 0 0 I I #
edge $-1 $472 0.30215937046875219 $388 7.9197339658422141 $387 $509 forward 7 unknown #
vertex $-1 $471 $510 #
straight-curve $-1 -30.002530325637508 4.4131060386242353 50.224010790454415 -0.83867056331134215 0 0.54463904215088732 I I #
point $-1 33.852194769208282 4.4131060386242353 8.7562666798811932 #
point $-1 44.294564653462317 12.030680633997697 1.9749122597498712 #
straight-curve $-1 44.294564653462324 0 8.7562666798811932 0 1 0 I I #
vertex $-1 $394 $511 #
point $-1 37.737682742128847 6.5895559230166576 1.4727181082537704 #
vertex $-1 $398 $512 #
point $-1 37.737682742128847 9.8542307496052821 1.4727181082537704 #
straight-curve $-1 0 -26.863591620211327 8.7562666798811932 1 0 0 I I #
point $-1 44.294564653462324 -26.863591620211327 8.7562666798811932 #
point $-1 -44.294564653462324 -26.863591620211327 8.7562666798811932 #
straight-curve $-1 -44.294564653462324 0 8.7562666798811932 0 -1 0 I I #
edge $-1 $487 -8.7562666798811932 $427 8.7562666798811932 $419 $513 forward 7 unknown #
straight-curve $-1 -36.109019969135318 -37.343886426273954 -8.7562666798811932 -1 0 0 I I #
vertex $-1 $433 $514 #
straight-curve $-1 -36.109019969135318 -37.343886426273954 8.7562666798811932 1 0 0 I I #
point $-1 -38.121381986800813 -37.343886426273954 8.7562666798811932 #
point $-1 -38.121381986800813 -37.343886426273954 -8.7562666798811932 #
point $-1 -34.096657951469822 -37.343886426273954 -8.7562666798811932 #
straight-curve $-1 -34.096657951469822 -32.103739023242639 8.7562666798811932 0 1 0 I I #
edge $-1 $452 -2.0123620176654953 $441 2.0123620176654953 $438 $515 forward 7 unknown #
straight-curve $-1 -34.096657951469822 37.343886426273954 0 0 0 -1 I I #
straight-curve $-1 -38.121381986800813 32.103739023242639 8.7562666798811932 0 -1 0 I I #
point $-1 -38.121381986800813 37.343886426273954 8.7562666798811932 #
point $-1 -38.121381986800813 37.343886426273954 -8.7562666798811932 #
straight-curve $-1 -36.109019969135318 37.343886426273954 -8.7562666798811932 1 0 0 I I #
point $-1 -34.096657951469822 37.343886426273954 -8.7562666798811932 #
point $-1 -34.096657951469822 37.343886426273954 8.7562666798811932 #
straight-curve $-1 -44.294564653462324 -8.3238960773985653 35.158763911768453 0 0 -1 I I #
point $-1 -44.294564653462324 -8.3238960773985653 8.7562666798811932 #
straight-curve $-1 -44.294564653462324 -6.1767982228868155 5.5275408515415432 0 -1 0 I I #
point $-1 -44.294564653462324 -8.3238960773985653 5.527540851541537 #
point $-1 -41.710874455949465 -14.080610889362944 6.227711648138949 #
point $-1 -41.710874455949465 -10.626582002184318 6.227711648138949 #
straight-curve $-1 44.294564653462324 4.4131060386242353 62.26055288477712 0 0 -1 I I #
point $-1 44.294564653462324 4.4131060386242353 8.7562666798811932 #
straight-curve $-1 44.294564653462324 4.1109466681554832 1.9749122597498747 0 1 0 I I #
point $-1 44.294564653462317 4.4131060386242353 1.9749122597498712 #
point $-1 36.354373136666617 6.5895559230166576 1.1786865870933156 #
point $-1 36.354373136666617 9.8542307496052821 1.1786865870933156 #
straight-curve $-1 -34.096657951469822 -37.343886426273954 0 0 0 -1 I I #
point $-1 -34.096657951469822 -37.343886426273954 8.7562666798811932 #
straight-curve $-1 -36.109019969135318 37.343886426273954 8.7562666798811932 -1 0 0 I I #
End-of-ACIS-data 