500 0 4 0           
7 Unknown 11 ACIS 5.0 NT 24 Thu Mar 25 16:16:56 1999 
-1 9.9999999999999995e-007 1e-010 
body $-1 $4 $-1 $5 #
body $-1 $6 $-1 $7 #
body $-1 $8 $-1 $9 #
body $-1 $10 $-1 $11 #
lump $-1 $-1 $12 $0 #
transform $-1 1 0 0 0 1 0 0 0 1 73.792535172582177 47.679476818547869 18.067476176188894 1 rotate no_reflect no_shear #
lump $-1 $-1 $13 $1 #
transform $-1 1 0 0 0 1 0 0 0 1 73.792535172582177 47.679476818547869 18.067476176188894 1 rotate no_reflect no_shear #
lump $-1 $-1 $14 $2 #
transform $-1 1 0 0 0 1 0 0 0 1 73.792535172582177 47.679476818547869 18.067476176188894 1 rotate no_reflect no_shear #
lump $-1 $-1 $15 $3 #
transform $-1 1 0 0 0 1 0 0 0 1 73.792535172582177 47.679476818547869 18.067476176188894 1 rotate no_reflect no_shear #
shell $-1 $-1 $-1 $16 $-1 $4 #
shell $-1 $-1 $-1 $17 $-1 $6 #
shell $-1 $-1 $-1 $18 $-1 $8 #
shell $-1 $-1 $-1 $19 $-1 $10 #
face $-1 $20 $21 $12 $-1 $22 forward single #
face $-1 $23 $24 $13 $-1 $25 reversed single #
face $-1 $26 $27 $14 $-1 $28 forward single #
face $-1 $29 $30 $15 $-1 $31 forward single #
face $-1 $32 $33 $12 $-1 $34 reversed single #
loop $-1 $-1 $35 $16 #
plane-surface $-1 0 0 18.067476176188894 0 0 1 1 0 0 forward_v I I I I #
face $-1 $36 $37 $13 $-1 $38 reversed single #
loop $-1 $-1 $39 $17 #
plane-surface $-1 30.397872438420762 19.14230877756059 216.30013834223615 0 -1 0 -0.54463904215088732 0 -0.83867056331134215 forward_v I I I I #
face $-1 $40 $41 $14 $-1 $42 forward single #
loop $-1 $43 $44 $18 #
cone-surface $-1 68.523631122617005 0.45229643834971256 14.014962698886919 -0.54463904215088732 0 -0.83867056331134215 1.2580058449670133 0 -0.81695856322633098 1 I I 0 1 1.5 forward I I I I #
face $-1 $45 $46 $15 $-1 $47 forward single #
loop $-1 $48 $49 $19 #
cone-surface $-1 68.523631122617005 11.666303841876228 14.014962698886919 -0.54463904215088732 0 -0.83867056331134215 1.2580058449670133 0 -0.81695856322633098 1 I I 0 1 1.5 forward I I I I #
face $-1 $50 $51 $12 $-1 $52 reversed single #
loop $-1 $-1 $53 $20 #
plane-surface $-1 0 0 -18.067476176188894 0 0 1 1 0 0 forward_v I I I I #
coedge $-1 $54 $55 $56 $57 forward $21 $-1 #
face $-1 $58 $59 $13 $-1 $60 reversed single #
loop $-1 $-1 $61 $23 #
plane-surface $-1 -49.982718910140875 6.0593001401129811 92.524884259513101 0.54463904215088732 0 0.83867056331134215 0.83867056331134215 0 -0.54463904215088732 forward_v I I I I #
coedge $-1 $62 $63 $64 $65 reversed $24 $-1 #
face $-1 $-1 $66 $14 $-1 $67 forward single #
loop $-1 $68 $69 $26 #
cone-surface $-1 67.406698898284759 0.45229643834971256 12.295037931720113 -0.54463904215088732 0 -0.83867056331134215 0.62900292248350664 0 -0.40847928161316549 1 I I -0.70710678118654757 0.70710678118654757 0.75 forward I I I I #
loop $-1 $-1 $70 $18 #
coedge $-1 $44 $44 $71 $72 reversed $27 $-1 #
face $-1 $-1 $73 $15 $-1 $74 forward single #
loop $-1 $75 $76 $29 #
cone-surface $-1 67.406698898284759 11.666303841876228 12.295037931720113 -0.54463904215088732 0 -0.83867056331134215 0.62900292248350664 0 -0.40847928161316549 1 I I -0.70710678118654757 0.70710678118654757 0.75 forward I I I I #
loop $-1 $-1 $77 $19 #
coedge $-1 $49 $49 $78 $79 reversed $30 $-1 #
face $-1 $80 $81 $12 $-1 $82 reversed single #
loop $-1 $-1 $83 $32 #
plane-surface $-1 0 -47.679476818547869 0 0 1 0 0 0 1 forward_v I I I I #
coedge $-1 $84 $85 $86 $87 forward $33 $-1 #
coedge $-1 $88 $35 $89 $90 forward $21 $-1 #
coedge $-1 $35 $88 $91 $92 forward $21 $-1 #
coedge $-1 $93 $94 $35 $57 reversed $95 $-1 #
edge $-1 $96 -47.679476818547869 $97 47.679476818547869 $56 $98 forward 7 unknown #
face $-1 $99 $100 $13 $-1 $101 forward single #
loop $-1 $-1 $102 $36 #
plane-surface $-1 30.397872438420762 -7.0237084973346278 216.30013834223615 0 1 0 0.54463904215088732 0 0.83867056331134215 forward_v I I I I #
coedge $-1 $103 $104 $105 $106 reversed $37 $-1 #
coedge $-1 $63 $39 $107 $108 reversed $24 $-1 #
coedge $-1 $39 $62 $103 $109 reversed $24 $-1 #
coedge $-1 $105 $110 $39 $65 forward $100 $-1 #
edge $-1 $111 -58.593598953371796 $112 -49.472696738879506 $64 $113 forward 7 unknown #
loop $-1 $-1 $71 $40 #
plane-surface $-1 -49.982718910140875 6.0593001401129811 92.524884259513101 0.54463904215088732 0 0.83867056331134215 0.83867056331134215 0 -0.54463904215088732 forward_v I I I I #
loop $-1 $-1 $114 $26 #
coedge $-1 $69 $69 $70 $115 reversed $41 $-1 #
coedge $-1 $70 $70 $69 $115 forward $43 $-1 #
coedge $-1 $71 $71 $44 $72 forward $66 $-1 #
edge $-1 $116 0 $116 6.2831853071796004 $71 $117 forward 7 unknown #
loop $-1 $-1 $78 $45 #
plane-surface $-1 -49.982718910140875 6.0593001401129811 92.524884259513101 0.54463904215088732 0 0.83867056331134215 0.83867056331134215 0 -0.54463904215088732 forward_v I I I I #
loop $-1 $-1 $118 $29 #
coedge $-1 $76 $76 $77 $119 reversed $46 $-1 #
coedge $-1 $77 $77 $76 $119 forward $48 $-1 #
coedge $-1 $78 $78 $49 $79 forward $73 $-1 #
edge $-1 $120 0 $120 6.2831853071796004 $78 $121 forward 7 unknown #
face $-1 $122 $123 $12 $-1 $124 reversed single #
loop $-1 $-1 $125 $50 #
plane-surface $-1 -73.792535172582177 0 0 1 0 0 0 0 -1 forward_v I I I I #
coedge $-1 $126 $91 $127 $128 forward $51 $-1 #
coedge $-1 $129 $53 $126 $130 forward $33 $-1 #
coedge $-1 $53 $129 $131 $132 forward $33 $-1 #
coedge $-1 $94 $93 $53 $87 reversed $95 $-1 #
edge $-1 $133 -47.679476818547869 $134 47.679476818547869 $86 $135 forward 7 unknown #
coedge $-1 $55 $54 $136 $137 forward $21 $-1 #
coedge $-1 $138 $139 $54 $90 reversed $123 $-1 #
edge $-1 $97 -73.792535172582177 $140 73.792535172582177 $89 $141 forward 7 unknown #
coedge $-1 $83 $142 $55 $92 reversed $51 $-1 #
edge $-1 $143 -73.792535172582177 $96 73.792535172582177 $91 $144 forward 7 unknown #
coedge $-1 $86 $56 $142 $145 forward $95 $-1 #
coedge $-1 $56 $86 $138 $146 reversed $95 $-1 #
loop $-1 $-1 $93 $122 #
vertex $-1 $57 $147 #
vertex $-1 $57 $148 #
straight-curve $-1 73.792535172582177 0 18.067476176188894 0 1 0 I I #
face $-1 $-1 $149 $13 $-1 $150 reversed single #
loop $-1 $-1 $64 $58 #
plane-surface $-1 0 0 18.067476176188894 0 0 1 1 0 0 forward_v I I I I #
coedge $-1 $151 $152 $153 $154 reversed $59 $-1 #
coedge $-1 $155 $61 $63 $109 forward $37 $-1 #
coedge $-1 $61 $155 $151 $156 forward $37 $-1 #
coedge $-1 $153 $64 $61 $106 forward $100 $-1 #
edge $-1 $112 -16.112658707504099 $157 10.053358567391118 $105 $158 forward 7 unknown #
coedge $-1 $159 $160 $62 $108 forward $149 $-1 #
edge $-1 $161 -96.005776260166613 $111 -90.082592994929186 $107 $162 forward 7 unknown #
edge $-1 $112 136.70964128696536 $161 147.58507034516435 $63 $163 forward 7 unknown #
coedge $-1 $64 $153 $159 $164 forward $100 $-1 #
vertex $-1 $108 $165 #
vertex $-1 $65 $166 #
straight-curve $-1 15.198936219210381 19.14230877756059 18.06747617618889 -1 0 0 I I #
coedge $-1 $114 $114 $-1 $167 reversed $68 $-1 #
edge $-1 $168 0 $168 6.2831853071796004 $69 $169 forward 7 unknown #
vertex $-1 $72 $170 #
ellipse-curve $-1 69.232084065336039 0.45229643834971256 15.105884543570152 0.54463904215088732 0 0.83867056331134215 1.2580058449670133 0 -0.81695856322633098 1 I I #
coedge $-1 $118 $118 $-1 $171 reversed $75 $-1 #
edge $-1 $172 0 $172 6.2831853071796004 $76 $173 forward 7 unknown #
vertex $-1 $79 $174 #
ellipse-curve $-1 69.232084065336039 11.666303841876228 15.105884543570152 0.54463904215088732 0 0.83867056331134215 1.2580058449670133 0 -0.81695856322633098 1 I I #
face $-1 $-1 $95 $12 $-1 $175 reversed single #
loop $-1 $-1 $138 $80 #
plane-surface $-1 0 47.679476818547869 0 0 -1 0 0 0 -1 forward_v I I I I #
coedge $-1 $176 $136 $139 $177 forward $81 $-1 #
coedge $-1 $142 $83 $84 $130 reversed $51 $-1 #
coedge $-1 $136 $176 $83 $128 reversed $81 $-1 #
edge $-1 $143 -18.067476176188894 $178 18.067476176188894 $127 $179 forward 7 unknown #
coedge $-1 $85 $84 $176 $180 forward $33 $-1 #
edge $-1 $134 -73.792535172582177 $178 73.792535172582177 $126 $181 forward 7 unknown #
coedge $-1 $139 $138 $85 $132 reversed $123 $-1 #
edge $-1 $182 -73.792535172582177 $133 73.792535172582177 $131 $183 forward 7 unknown #
vertex $-1 $87 $184 #
vertex $-1 $145 $185 #
straight-curve $-1 73.792535172582177 0 -18.067476176188894 0 -1 0 I I #
coedge $-1 $125 $127 $88 $137 reversed $81 $-1 #
edge $-1 $140 -47.679476818547869 $143 47.679476818547869 $136 $186 forward 7 unknown #
coedge $-1 $131 $89 $94 $146 forward $123 $-1 #
coedge $-1 $89 $131 $125 $177 reversed $123 $-1 #
vertex $-1 $90 $187 #
straight-curve $-1 0 47.679476818547869 18.067476176188894 -1 0 0 I I #
coedge $-1 $91 $126 $93 $145 reversed $51 $-1 #
vertex $-1 $137 $188 #
straight-curve $-1 0 -47.679476818547869 18.067476176188894 1 0 0 I I #
edge $-1 $96 -18.067476176188894 $134 18.067476176188894 $93 $189 forward 7 unknown #
edge $-1 $97 -18.067476176188894 $133 18.067476176188894 $94 $190 forward 7 unknown #
point $-1 73.792535172582177 -47.679476818547869 18.067476176188894 #
point $-1 73.792535172582177 47.679476818547869 18.067476176188894 #
loop $-1 $-1 $107 $99 #
plane-surface $-1 73.792535172582177 0 0 -1 0 0 0 0 1 forward_v I I I I #
coedge $-1 $152 $102 $104 $156 reversed $59 $-1 #
coedge $-1 $102 $151 $191 $192 reversed $59 $-1 #
coedge $-1 $110 $105 $102 $154 forward $100 $-1 #
edge $-1 $157 49.472696738879506 $193 58.593598953371796 $153 $194 forward 7 unknown #
coedge $-1 $104 $103 $160 $195 reversed $37 $-1 #
edge $-1 $196 -147.58507034516435 $157 -136.70964128696536 $151 $197 forward 7 unknown #
vertex $-1 $106 $198 #
straight-curve $-1 64.671632958089901 3.0296500700564906 18.067476176188883 0 -1 0 I I #
coedge $-1 $191 $107 $110 $164 reversed $149 $-1 #
coedge $-1 $107 $191 $155 $195 forward $149 $-1 #
vertex $-1 $108 $199 #
straight-curve $-1 73.792535172582177 19.14230877756059 108.15006917111808 0 0 1 I I #
straight-curve $-1 -49.982718910140875 19.14230877756059 92.524884259513101 0.83867056331134215 0 -0.54463904215088732 I I #
edge $-1 $193 -7.0237084973346278 $111 19.14230877756059 $159 $200 forward 7 unknown #
point $-1 73.792535172582177 19.14230877756059 18.067476176188894 #
point $-1 64.671632958089887 19.14230877756059 18.06747617618889 #
edge $-1 $201 1 $201 0 $114 $-1 forward 7 unknown #
vertex $-1 $115 $202 #
ellipse-curve $-1 67.815178179897927 0.45229643834971256 12.92404085420362 0.54463904215088732 0 0.83867056331134215 1.2580058449670133 0 -0.81695856322633098 1 I I #
point $-1 70.490089910303098 0.45229643834971256 14.288925980343887 #
edge $-1 $203 1 $203 0 $118 $-1 forward 7 unknown #
vertex $-1 $119 $204 #
ellipse-curve $-1 67.815178179897927 11.666303841876228 12.92404085420362 0.54463904215088732 0 0.83867056331134215 1.2580058449670133 0 -0.81695856322633098 1 I I #
point $-1 70.490089910303098 11.666303841876228 14.288925980343887 #
plane-surface $-1 73.792535172582177 0 0 -1 0 0 0 0 1 forward_v I I I I #
coedge $-1 $127 $125 $129 $180 reversed $81 $-1 #
edge $-1 $140 -18.067476176188894 $182 18.067476176188894 $139 $205 forward 7 unknown #
vertex $-1 $180 $206 #
straight-curve $-1 -73.792535172582177 -47.679476818547869 0 0 0 -1 I I #
edge $-1 $178 -47.679476818547869 $182 47.679476818547869 $176 $207 forward 7 unknown #
straight-curve $-1 0 -47.679476818547869 -18.067476176188894 -1 0 0 I I #
vertex $-1 $132 $208 #
straight-curve $-1 0 47.679476818547869 -18.067476176188894 1 0 0 I I #
point $-1 73.792535172582177 47.679476818547869 -18.067476176188894 #
point $-1 73.792535172582177 -47.679476818547869 -18.067476176188894 #
straight-curve $-1 -73.792535172582177 0 18.067476176188894 0 -1 0 I I #
point $-1 -73.792535172582177 47.679476818547869 18.067476176188894 #
point $-1 -73.792535172582177 -47.679476818547869 18.067476176188894 #
straight-curve $-1 73.792535172582177 -47.679476818547869 0 0 0 -1 I I #
straight-curve $-1 73.792535172582177 47.679476818547869 0 0 0 -1 I I #
coedge $-1 $160 $159 $152 $192 forward $149 $-1 #
edge $-1 $193 90.082592994929186 $196 96.005776260166613 $191 $209 forward 7 unknown #
vertex $-1 $164 $210 #
straight-curve $-1 15.198936219210381 -7.0237084973346278 18.06747617618889 1 0 0 I I #
edge $-1 $196 -10.053358567391118 $161 16.112658707504099 $160 $211 forward 7 unknown #
vertex $-1 $195 $212 #
straight-curve $-1 -49.982718910140875 -7.0237084973346278 92.524884259513101 -0.83867056331134215 0 0.54463904215088732 I I #
point $-1 64.671632958089887 -7.0237084973346278 18.06747617618889 #
point $-1 73.792535172582177 19.14230877756059 12.144292910951464 #
straight-curve $-1 73.792535172582177 0 18.067476176188894 0 1 0 I I #
vertex $-1 $167 $213 #
point $-1 69.073184024864943 0.45229643834971256 12.107082290977289 #
vertex $-1 $171 $214 #
point $-1 69.073184024864943 11.666303841876228 12.107082290977289 #
straight-curve $-1 -73.792535172582177 47.679476818547869 0 0 0 -1 I I #
point $-1 -73.792535172582177 -47.679476818547869 -18.067476176188894 #
straight-curve $-1 -73.792535172582177 0 -18.067476176188894 0 1 0 I I #
point $-1 -73.792535172582177 47.679476818547869 -18.067476176188894 #
straight-curve $-1 73.792535172582177 -7.0237084973346278 108.15006917111808 0 0 -1 I I #
point $-1 73.792535172582177 -7.0237084973346278 18.067476176188894 #
straight-curve $-1 73.792535172582177 3.0296500700564906 12.144292910951464 0 1 0 I I #
point $-1 73.792535172582177 -7.0237084973346278 12.144292910951464 #
point $-1 66.998219616671591 0.45229643834971256 11.666035009236607 #
point $-1 66.998219616671591 11.666303841876228 11.666035009236607 #
End-of-ACIS-data 