500 0 6 0           
7 Unknown 11 ACIS 5.0 NT 24 Fri Mar 26 01:40:54 1999 
-1 9.9999999999999995e-007 1e-010 
body $-1 $6 $-1 $7 #
body $-1 $8 $-1 $9 #
body $-1 $10 $-1 $11 #
body $-1 $12 $-1 $13 #
body $-1 $14 $-1 $15 #
body $-1 $16 $-1 $17 #
lump $-1 $-1 $18 $0 #
transform $-1 1 0 0 0 1 0 0 0 1 74.065981017487104 50.329243450397179 24.078995660232597 1 rotate no_reflect no_shear #
lump $-1 $-1 $19 $1 #
transform $-1 1 0 0 0 1 0 0 0 1 74.065981017487104 50.329243450397179 24.078995660232597 1 rotate no_reflect no_shear #
lump $-1 $-1 $20 $2 #
transform $-1 1 0 0 0 1 0 0 0 1 74.065981017487104 50.329243450397179 24.078995660232597 1 rotate no_reflect no_shear #
lump $-1 $-1 $21 $3 #
transform $-1 1 0 0 0 1 0 0 0 1 74.065981017487104 50.329243450397179 24.078995660232597 1 rotate no_reflect no_shear #
lump $-1 $-1 $22 $4 #
transform $-1 1 0 0 0 1 0 0 0 1 74.065981017487104 50.329243450397179 24.078995660232597 1 rotate no_reflect no_shear #
lump $-1 $-1 $23 $5 #
transform $-1 1 0 0 0 1 0 0 0 1 74.065981017487104 50.329243450397179 24.078995660232597 1 rotate no_reflect no_shear #
shell $-1 $-1 $-1 $24 $-1 $6 #
shell $-1 $-1 $-1 $25 $-1 $8 #
shell $-1 $-1 $-1 $26 $-1 $10 #
shell $-1 $-1 $-1 $27 $-1 $12 #
shell $-1 $-1 $-1 $28 $-1 $14 #
shell $-1 $-1 $-1 $29 $-1 $16 #
face $-1 $30 $31 $18 $-1 $32 forward single #
face $-1 $33 $34 $19 $-1 $35 forward single #
face $-1 $36 $37 $20 $-1 $38 reversed single #
face $-1 $39 $40 $21 $-1 $41 forward single #
face $-1 $42 $43 $22 $-1 $44 reversed single #
face $-1 $45 $46 $23 $-1 $47 forward single #
face $-1 $48 $49 $18 $-1 $50 reversed single #
loop $-1 $-1 $51 $24 #
plane-surface $-1 0 0 24.078995660232597 0 0 1 1 0 0 forward_v I I I I #
face $-1 $52 $53 $19 $-1 $54 reversed single #
loop $-1 $-1 $55 $25 #
plane-surface $-1 0 -50.329243450397179 0 0 1 0 0 0 1 forward_v I I I I #
face $-1 $56 $57 $20 $-1 $58 reversed single #
loop $-1 $-1 $59 $26 #
plane-surface $-1 -154.74443093214705 -3.896796328649426 125.29214376916433 0 1 0 -0.54463904215088732 0 0.83867056331134215 forward_v I I I I #
face $-1 $60 $61 $21 $-1 $62 forward single #
loop $-1 $63 $64 $27 #
cone-surface $-1 -55.817133766461808 3.8487144564000175 11.761090214468499 0.54463904215088732 0 -0.83867056331134215 0.83867056331134215 0 0.54463904215088732 1 I I 0 1 1 forward I I I I #
face $-1 $65 $66 $22 $-1 $67 reversed single #
loop $-1 $-1 $68 $28 #
plane-surface $-1 30.510514887860879 11.594225241449447 205.97059368382426 0 -1 0 -0.54463904215088732 0 -0.83867056331134215 forward_v I I I I #
face $-1 $69 $70 $23 $-1 $71 forward single #
loop $-1 $72 $73 $29 #
cone-surface $-1 55.817133766461779 3.8487144564000175 11.761090214468513 -0.54463904215088732 0 -0.83867056331134215 0.83867056331134215 0 -0.54463904215088732 1 I I 0 1 1 forward I I I I #
face $-1 $74 $75 $18 $-1 $76 reversed single #
loop $-1 $-1 $77 $30 #
plane-surface $-1 0 0 -24.078995660232597 0 0 1 1 0 0 forward_v I I I I #
coedge $-1 $78 $79 $80 $81 forward $31 $-1 #
face $-1 $82 $83 $19 $-1 $84 forward single #
loop $-1 $-1 $85 $33 #
plane-surface $-1 -74.065981017487104 0 0 1 0 0 0 0 -1 forward_v I I I I #
coedge $-1 $86 $87 $88 $89 forward $34 $-1 #
face $-1 $90 $91 $20 $-1 $92 reversed single #
loop $-1 $-1 $93 $36 #
plane-surface $-1 -74.06598101748709 3.8487144564000104 1.0582277248781509 -0.54463904215088732 0 0.83867056331134215 0.83867056331134215 0 0.54463904215088732 forward_v I I I I #
coedge $-1 $94 $95 $96 $97 reversed $37 $-1 #
face $-1 $-1 $98 $21 $-1 $99 forward single #
loop $-1 $100 $101 $39 #
cone-surface $-1 -55.020403656078201 3.8487144564000175 10.534233454725946 0.54463904215088732 0 -0.83867056331134215 0.41933528165567108 0 0.27231952107544366 1 I I -0.70710678118654746 0.70710678118654746 0.5 forward I I I I #
loop $-1 $-1 $102 $27 #
coedge $-1 $64 $64 $103 $104 reversed $40 $-1 #
face $-1 $105 $106 $22 $-1 $107 reversed single #
loop $-1 $-1 $108 $42 #
plane-surface $-1 -50.167935026799086 3.8487144564000104 81.736677639538087 0.54463904215088732 0 0.83867056331134215 0.83867056331134215 0 -0.54463904215088732 forward_v I I I I #
coedge $-1 $109 $110 $111 $112 reversed $43 $-1 #
face $-1 $-1 $113 $23 $-1 $114 forward single #
loop $-1 $115 $116 $45 #
cone-surface $-1 55.020403656078173 3.8487144564000175 10.53423345472596 -0.54463904215088732 0 -0.83867056331134215 0.41933528165567108 0 -0.27231952107544366 1 I I -0.70710678118654746 0.70710678118654746 0.5 forward I I I I #
loop $-1 $-1 $117 $29 #
coedge $-1 $73 $73 $118 $119 reversed $46 $-1 #
face $-1 $120 $121 $18 $-1 $122 reversed single #
loop $-1 $-1 $123 $48 #
plane-surface $-1 0 -50.329243450397179 0 0 1 0 0 0 1 forward_v I I I I #
coedge $-1 $124 $125 $126 $127 forward $49 $-1 #
coedge $-1 $128 $51 $129 $130 forward $31 $-1 #
coedge $-1 $51 $128 $131 $132 forward $31 $-1 #
coedge $-1 $133 $134 $51 $81 reversed $135 $-1 #
edge $-1 $136 -50.329243450397179 $137 50.329243450397179 $80 $138 forward 7 unknown #
face $-1 $139 $140 $19 $-1 $141 reversed single #
loop $-1 $-1 $142 $52 #
plane-surface $-1 0 -65.27077208411886 11.703931790802736 0 0 1 1 0 0 forward_v I I I I #
coedge $-1 $143 $144 $87 $145 forward $53 $-1 #
coedge $-1 $146 $55 $147 $148 reversed $34 $-1 #
coedge $-1 $55 $146 $85 $145 reversed $34 $-1 #
coedge $-1 $149 $142 $55 $89 reversed $83 $-1 #
edge $-1 $150 -74.065981017487104 $151 74.065981017487104 $88 $152 forward 7 unknown #
face $-1 $153 $154 $20 $-1 $155 forward single #
loop $-1 $-1 $156 $56 #
plane-surface $-1 -154.74443093214705 11.594225241449447 125.29214376916433 0 -1 0 0.54463904215088732 0 -0.83867056331134215 forward_v I I I I #
coedge $-1 $157 $158 $159 $160 reversed $57 $-1 #
coedge $-1 $95 $59 $161 $162 reversed $37 $-1 #
coedge $-1 $59 $94 $157 $163 reversed $37 $-1 #
coedge $-1 $159 $164 $59 $97 forward $154 $-1 #
edge $-1 $165 3.306234448586423 $166 38.755107772020736 $96 $167 forward 7 unknown #
loop $-1 $-1 $103 $60 #
plane-surface $-1 -74.06598101748709 3.8487144564000104 1.0582277248781509 -0.54463904215088732 0 0.83867056331134215 0.83867056331134215 0 0.54463904215088732 forward_v I I I I #
loop $-1 $-1 $168 $39 #
coedge $-1 $101 $101 $102 $169 reversed $61 $-1 #
coedge $-1 $102 $102 $101 $169 forward $63 $-1 #
coedge $-1 $103 $103 $64 $104 forward $98 $-1 #
edge $-1 $170 0 $170 6.2831853071796004 $103 $171 forward 7 unknown #
face $-1 $172 $173 $22 $-1 $174 reversed single #
loop $-1 $-1 $175 $65 #
plane-surface $-1 30.510514887860879 -3.896796328649426 205.97059368382426 0 1 0 0.54463904215088732 0 0.83867056331134215 forward_v I I I I #
coedge $-1 $176 $177 $178 $179 reversed $66 $-1 #
coedge $-1 $110 $68 $180 $181 reversed $43 $-1 #
coedge $-1 $68 $109 $176 $182 reversed $43 $-1 #
coedge $-1 $178 $183 $68 $112 forward $184 $-1 #
edge $-1 $185 -58.810723573556665 $186 -23.361850250122323 $111 $187 forward 7 unknown #
loop $-1 $-1 $118 $69 #
plane-surface $-1 -50.167935026799086 3.8487144564000104 81.736677639538087 0.54463904215088732 0 0.83867056331134215 0.83867056331134215 0 -0.54463904215088732 forward_v I I I I #
loop $-1 $-1 $188 $45 #
coedge $-1 $116 $116 $117 $189 reversed $70 $-1 #
coedge $-1 $117 $117 $116 $189 forward $72 $-1 #
coedge $-1 $118 $118 $73 $119 forward $113 $-1 #
edge $-1 $190 0 $190 6.2831853071796004 $118 $191 forward 7 unknown #
face $-1 $192 $193 $18 $-1 $194 reversed single #
loop $-1 $-1 $195 $74 #
plane-surface $-1 -74.065981017487104 0 0 1 0 0 0 0 -1 forward_v I I I I #
coedge $-1 $196 $131 $197 $198 forward $75 $-1 #
coedge $-1 $199 $77 $196 $200 forward $49 $-1 #
coedge $-1 $77 $199 $201 $202 forward $49 $-1 #
coedge $-1 $134 $133 $77 $127 reversed $135 $-1 #
edge $-1 $203 -50.329243450397179 $204 50.329243450397179 $126 $205 forward 7 unknown #
coedge $-1 $79 $78 $206 $207 forward $31 $-1 #
coedge $-1 $208 $209 $78 $130 reversed $193 $-1 #
edge $-1 $137 -74.065981017487104 $210 74.065981017487104 $129 $211 forward 7 unknown #
coedge $-1 $123 $212 $79 $132 reversed $75 $-1 #
edge $-1 $213 -74.065981017487104 $136 74.065981017487104 $131 $214 forward 7 unknown #
coedge $-1 $126 $80 $212 $215 forward $135 $-1 #
coedge $-1 $80 $126 $208 $216 reversed $135 $-1 #
loop $-1 $-1 $133 $192 #
vertex $-1 $81 $217 #
vertex $-1 $81 $218 #
straight-curve $-1 74.065981017487104 0 24.078995660232597 0 1 0 I I #
face $-1 $219 $220 $19 $-1 $221 reversed single #
loop $-1 $-1 $222 $82 #
plane-surface $-1 0 -65.27077208411886 2.208575654320013 0 0 1 1 0 0 forward_v I I I I #
coedge $-1 $88 $223 $224 $225 forward $83 $-1 #
coedge $-1 $226 $85 $227 $228 reversed $53 $-1 #
coedge $-1 $85 $226 $149 $229 reversed $53 $-1 #
edge $-1 $150 -11.703931790802736 $230 -2.208575654320013 $85 $231 forward 7 unknown #
coedge $-1 $87 $86 $232 $233 forward $34 $-1 #
coedge $-1 $224 $234 $86 $148 forward $235 $-1 #
edge $-1 $236 2.208575654320013 $151 11.703931790802736 $147 $237 forward 7 unknown #
coedge $-1 $223 $88 $144 $229 forward $83 $-1 #
vertex $-1 $145 $238 #
vertex $-1 $225 $239 #
straight-curve $-1 0 -50.329243450397179 11.703931790802736 1 0 0 I I #
face $-1 $-1 $240 $20 $-1 $241 reversed single #
loop $-1 $-1 $96 $90 #
plane-surface $-1 0 0 24.078995660232597 0 0 1 1 0 0 forward_v I I I I #
coedge $-1 $242 $243 $244 $245 reversed $91 $-1 #
coedge $-1 $246 $93 $95 $163 forward $57 $-1 #
coedge $-1 $93 $246 $242 $247 forward $57 $-1 #
coedge $-1 $244 $96 $93 $160 forward $154 $-1 #
edge $-1 $166 -5.8211535568494313 $248 9.6698680132494417 $159 $249 forward 7 unknown #
coedge $-1 $250 $251 $94 $162 forward $240 $-1 #
edge $-1 $252 -61.587844159704019 $165 -38.567076224349563 $161 $253 forward 7 unknown #
edge $-1 $166 -42.267935556806357 $252 1.699746028866204e-014 $95 $254 forward 7 unknown #
coedge $-1 $96 $244 $250 $255 forward $154 $-1 #
vertex $-1 $162 $256 #
vertex $-1 $97 $257 #
straight-curve $-1 -77.372215466073527 -3.896796328649426 24.078995660232593 1 0 0 I I #
coedge $-1 $168 $168 $-1 $258 reversed $100 $-1 #
edge $-1 $259 0 $259 6.2831853071796004 $101 $260 forward 7 unknown #
vertex $-1 $104 $261 #
ellipse-curve $-1 -56.341544355769955 3.8487144564000175 12.568611692555363 -0.54463904215088732 0 0.83867056331134215 0.83867056331134215 0 0.54463904215088732 1 I I #
face $-1 $-1 $184 $22 $-1 $262 forward single #
loop $-1 $-1 $263 $105 #
plane-surface $-1 74.065981017487104 0 0 -1 0 0 0 0 1 forward_v I I I I #
coedge $-1 $264 $265 $266 $267 reversed $106 $-1 #
coedge $-1 $268 $108 $110 $182 forward $66 $-1 #
coedge $-1 $108 $268 $264 $269 forward $66 $-1 #
coedge $-1 $266 $111 $108 $179 forward $184 $-1 #
edge $-1 $186 -9.6698680132494417 $270 5.8211535568494313 $178 $271 forward 7 unknown #
coedge $-1 $272 $273 $109 $181 forward $173 $-1 #
edge $-1 $274 -101.92706911703402 $185 -78.906301181679538 $180 $275 forward 7 unknown #
edge $-1 $186 105.86402647816782 $274 148.13196203497424 $110 $276 forward 7 unknown #
coedge $-1 $111 $266 $272 $277 forward $184 $-1 #
loop $-1 $-1 $266 $172 #
vertex $-1 $181 $278 #
vertex $-1 $112 $279 #
straight-curve $-1 15.255257443930439 11.594225241449447 24.078995660232593 -1 0 0 I I #
coedge $-1 $188 $188 $-1 $280 reversed $115 $-1 #
edge $-1 $281 0 $281 6.2831853071796004 $116 $282 forward 7 unknown #
vertex $-1 $119 $283 #
ellipse-curve $-1 56.341544355769919 3.8487144564000175 12.568611692555367 0.54463904215088732 0 0.83867056331134215 0.83867056331134215 0 -0.54463904215088732 1 I I #
face $-1 $-1 $135 $18 $-1 $284 reversed single #
loop $-1 $-1 $208 $120 #
plane-surface $-1 0 50.329243450397179 0 0 -1 0 0 0 -1 forward_v I I I I #
coedge $-1 $285 $206 $209 $286 forward $121 $-1 #
coedge $-1 $212 $123 $124 $200 reversed $75 $-1 #
coedge $-1 $206 $285 $123 $198 reversed $121 $-1 #
edge $-1 $213 -24.078995660232597 $287 24.078995660232597 $197 $288 forward 7 unknown #
coedge $-1 $125 $124 $285 $289 forward $49 $-1 #
edge $-1 $204 -74.065981017487104 $287 74.065981017487104 $196 $290 forward 7 unknown #
coedge $-1 $209 $208 $125 $202 reversed $193 $-1 #
edge $-1 $291 -74.065981017487104 $203 74.065981017487104 $201 $292 forward 7 unknown #
vertex $-1 $127 $293 #
vertex $-1 $215 $294 #
straight-curve $-1 74.065981017487104 0 -24.078995660232597 0 -1 0 I I #
coedge $-1 $195 $197 $128 $207 reversed $121 $-1 #
edge $-1 $210 -50.329243450397179 $213 50.329243450397179 $206 $295 forward 7 unknown #
coedge $-1 $201 $129 $134 $216 forward $193 $-1 #
coedge $-1 $129 $201 $195 $286 reversed $193 $-1 #
vertex $-1 $130 $296 #
straight-curve $-1 0 50.329243450397179 24.078995660232597 -1 0 0 I I #
coedge $-1 $131 $196 $133 $215 reversed $75 $-1 #
vertex $-1 $207 $297 #
straight-curve $-1 0 -50.329243450397179 24.078995660232597 1 0 0 I I #
edge $-1 $136 -24.078995660232597 $204 24.078995660232597 $133 $298 forward 7 unknown #
edge $-1 $137 -24.078995660232597 $203 24.078995660232597 $134 $299 forward 7 unknown #
point $-1 74.065981017487104 -50.329243450397179 24.078995660232597 #
point $-1 74.065981017487104 50.329243450397179 24.078995660232597 #
face $-1 $-1 $235 $19 $-1 $300 reversed single #
loop $-1 $-1 $301 $139 #
plane-surface $-1 0 -80.212300717840549 6.9562537225613745 0 1 0 0 0 1 forward_v I I I I #
coedge $-1 $302 $232 $234 $303 forward $140 $-1 #
coedge $-1 $142 $149 $304 $305 forward $83 $-1 #
coedge $-1 $306 $147 $142 $225 reversed $235 $-1 #
edge $-1 $307 -14.941528633721688 $151 14.941528633721688 $224 $308 forward 7 unknown #
coedge $-1 $144 $143 $301 $309 reversed $53 $-1 #
coedge $-1 $232 $302 $143 $228 forward $140 $-1 #
edge $-1 $310 -14.941528633721688 $230 14.941528633721688 $143 $311 forward 7 unknown #
edge $-1 $150 -14.941528633721688 $312 14.941528633721688 $144 $313 forward 7 unknown #
vertex $-1 $145 $314 #
straight-curve $-1 -74.065981017487104 -50.329243450397179 0 0 0 -1 I I #
coedge $-1 $222 $227 $146 $233 reversed $140 $-1 #
edge $-1 $236 -74.065981017487104 $230 74.065981017487104 $232 $315 forward 7 unknown #
coedge $-1 $147 $306 $222 $303 reversed $235 $-1 #
loop $-1 $-1 $147 $219 #
vertex $-1 $148 $316 #
straight-curve $-1 74.065981017487104 -50.329243450397179 0 0 0 1 I I #
point $-1 -74.065981017487104 -50.329243450397172 11.703931790802736 #
point $-1 74.065981017487104 -50.329243450397172 11.703931790802736 #
loop $-1 $-1 $161 $153 #
plane-surface $-1 -74.065981017487104 0 0 1 0 0 0 0 -1 forward_v I I I I #
coedge $-1 $243 $156 $158 $247 reversed $91 $-1 #
coedge $-1 $156 $242 $317 $318 reversed $91 $-1 #
coedge $-1 $164 $159 $156 $245 forward $154 $-1 #
edge $-1 $248 -38.755107772020736 $319 -3.306234448586423 $244 $320 forward 7 unknown #
coedge $-1 $158 $157 $251 $321 reversed $57 $-1 #
edge $-1 $322 -1.699746028866204e-014 $248 42.267935556806357 $242 $323 forward 7 unknown #
vertex $-1 $160 $324 #
straight-curve $-1 -38.617107694052791 1.9243572282000052 24.078995660232597 0 1 0 I I #
coedge $-1 $317 $161 $164 $255 reversed $240 $-1 #
coedge $-1 $161 $317 $246 $321 forward $240 $-1 #
vertex $-1 $162 $325 #
straight-curve $-1 -74.065981017487104 -3.896796328649426 62.646071884582163 0 0 1 I I #
straight-curve $-1 -74.06598101748709 -3.896796328649426 1.0582277248781509 -0.83867056331134215 0 -0.54463904215088732 I I #
edge $-1 $319 -11.594225241449447 $165 3.896796328649426 $250 $326 forward 7 unknown #
point $-1 -74.065981017487104 -3.896796328649426 24.078995660232597 #
point $-1 -38.617107694052791 -3.896796328649426 24.078995660232597 #
edge $-1 $327 1 $327 0 $168 $-1 forward 7 unknown #
vertex $-1 $169 $328 #
ellipse-curve $-1 -55.292723177153647 3.8487144564000175 10.953568736381618 -0.54463904215088732 0 0.83867056331134215 0.83867056331134215 0 0.54463904215088732 1 I I #
point $-1 -55.502873792458622 3.8487144564000175 13.113250734706268 #
plane-surface $-1 0 0 24.078995660232597 0 0 1 1 0 0 forward_v I I I I #
coedge $-1 $273 $272 $265 $329 forward $173 $-1 #
coedge $-1 $265 $175 $177 $269 reversed $106 $-1 #
coedge $-1 $175 $264 $263 $329 reversed $106 $-1 #
coedge $-1 $183 $178 $175 $267 forward $184 $-1 #
edge $-1 $270 23.361850250122323 $330 58.810723573556665 $266 $331 forward 7 unknown #
coedge $-1 $177 $176 $273 $332 reversed $66 $-1 #
edge $-1 $333 -148.13196203497424 $270 -105.86402647816782 $264 $334 forward 7 unknown #
vertex $-1 $179 $335 #
straight-curve $-1 38.617107694052763 1.9243572282000052 24.078995660232586 0 -1 0 I I #
coedge $-1 $263 $180 $183 $277 reversed $173 $-1 #
coedge $-1 $180 $263 $268 $332 forward $173 $-1 #
vertex $-1 $181 $336 #
straight-curve $-1 74.065981017487104 11.594225241449447 102.98529684191213 0 0 1 I I #
straight-curve $-1 -50.167935026799086 11.594225241449447 81.736677639538087 0.83867056331134215 0 -0.54463904215088732 I I #
edge $-1 $330 -3.896796328649426 $185 11.594225241449447 $272 $337 forward 7 unknown #
point $-1 74.065981017487104 11.594225241449447 24.078995660232597 #
point $-1 38.617107694052763 11.594225241449447 24.078995660232593 #
edge $-1 $338 1 $338 0 $188 $-1 forward 7 unknown #
vertex $-1 $189 $339 #
ellipse-curve $-1 55.292723177153619 3.8487144564000175 10.953568736381632 0.54463904215088732 0 0.83867056331134215 0.83867056331134215 0 -0.54463904215088732 1 I I #
point $-1 57.18021491908128 3.8487144564000175 12.023972650404508 #
plane-surface $-1 74.065981017487104 0 0 -1 0 0 0 0 1 forward_v I I I I #
coedge $-1 $197 $195 $199 $289 reversed $121 $-1 #
edge $-1 $210 -24.078995660232597 $291 24.078995660232597 $209 $340 forward 7 unknown #
vertex $-1 $289 $341 #
straight-curve $-1 -74.065981017487104 -50.329243450397179 0 0 0 -1 I I #
edge $-1 $287 -50.329243450397179 $291 50.329243450397179 $285 $342 forward 7 unknown #
straight-curve $-1 0 -50.329243450397179 -24.078995660232597 -1 0 0 I I #
vertex $-1 $202 $343 #
straight-curve $-1 0 50.329243450397179 -24.078995660232597 1 0 0 I I #
point $-1 74.065981017487104 50.329243450397179 -24.078995660232597 #
point $-1 74.065981017487104 -50.329243450397179 -24.078995660232597 #
straight-curve $-1 -74.065981017487104 0 24.078995660232597 0 -1 0 I I #
point $-1 -74.065981017487104 50.329243450397179 24.078995660232597 #
point $-1 -74.065981017487104 -50.329243450397179 24.078995660232597 #
straight-curve $-1 74.065981017487104 -50.329243450397179 0 0 0 -1 I I #
straight-curve $-1 74.065981017487104 50.329243450397179 0 0 0 -1 I I #
plane-surface $-1 74.065981017487104 0 0 -1 0 0 0 0 1 forward_v I I I I #
coedge $-1 $344 $304 $226 $309 forward $220 $-1 #
coedge $-1 $227 $222 $344 $345 forward $140 $-1 #
edge $-1 $236 -14.941528633721688 $346 14.941528633721688 $234 $347 forward 7 unknown #
coedge $-1 $301 $348 $223 $305 reversed $220 $-1 #
edge $-1 $312 -74.065981017487104 $307 74.065981017487104 $304 $349 forward 7 unknown #
coedge $-1 $234 $224 $348 $350 forward $235 $-1 #
vertex $-1 $225 $351 #
straight-curve $-1 74.065981017487104 -65.27077208411886 11.703931790802736 0 1 0 I I #
edge $-1 $312 -4.7476780682413615 $310 4.7476780682413615 $226 $352 forward 7 unknown #
vertex $-1 $228 $353 #
straight-curve $-1 -74.065981017487104 -65.27077208411886 2.208575654320013 0 1 0 I I #
vertex $-1 $229 $354 #
straight-curve $-1 -74.065981017487104 -65.27077208411886 11.703931790802736 0 -1 0 I I #
point $-1 -74.065981017487104 -50.329243450397172 2.208575654320013 #
straight-curve $-1 0 -50.329243450397179 2.208575654320013 -1 0 0 I I #
point $-1 74.065981017487104 -50.329243450397172 2.208575654320013 #
coedge $-1 $251 $250 $243 $318 forward $240 $-1 #
edge $-1 $319 38.567076224349563 $322 61.587844159704019 $317 $355 forward 7 unknown #
vertex $-1 $255 $356 #
straight-curve $-1 -77.372215466073527 11.594225241449447 24.078995660232593 -1 0 0 I I #
edge $-1 $322 -9.6698680132494417 $252 5.8211535568494313 $251 $357 forward 7 unknown #
vertex $-1 $321 $358 #
straight-curve $-1 -74.06598101748709 11.594225241449447 1.0582277248781509 0.83867056331134215 0 0.54463904215088732 I I #
point $-1 -38.617107694052791 11.594225241449447 24.078995660232597 #
point $-1 -74.065981017487104 -3.896796328649426 1.0582277248781415 #
straight-curve $-1 -74.065981017487104 0 24.078995660232597 0 -1 0 I I #
vertex $-1 $258 $359 #
point $-1 -54.4540526138423 3.8487144564000175 11.498207778532505 #
edge $-1 $330 78.906301181679538 $333 101.92706911703402 $263 $360 forward 7 unknown #
vertex $-1 $277 $361 #
straight-curve $-1 15.255257443930439 -3.896796328649426 24.078995660232593 1 0 0 I I #
edge $-1 $333 -5.8211535568494313 $274 9.6698680132494417 $273 $362 forward 7 unknown #
vertex $-1 $332 $363 #
straight-curve $-1 -50.167935026799086 -3.896796328649426 81.736677639538087 -0.83867056331134215 0 0.54463904215088732 I I #
point $-1 38.617107694052763 -3.896796328649426 24.078995660232593 #
point $-1 74.065981017487104 11.594225241449447 1.0582277248781082 #
straight-curve $-1 74.065981017487104 0 24.078995660232597 0 1 0 I I #
vertex $-1 $280 $364 #
point $-1 56.131393740464958 3.8487144564000175 10.408929694230745 #
straight-curve $-1 -74.065981017487104 50.329243450397179 0 0 0 -1 I I #
point $-1 -74.065981017487104 -50.329243450397179 -24.078995660232597 #
straight-curve $-1 -74.065981017487104 0 -24.078995660232597 0 1 0 I I #
point $-1 -74.065981017487104 50.329243450397179 -24.078995660232597 #
coedge $-1 $348 $301 $302 $345 reversed $220 $-1 #
edge $-1 $346 -74.065981017487104 $310 74.065981017487104 $344 $365 forward 7 unknown #
vertex $-1 $350 $366 #
straight-curve $-1 74.065981017487104 -65.27077208411886 2.208575654320013 0 -1 0 I I #
coedge $-1 $304 $344 $306 $350 reversed $220 $-1 #
straight-curve $-1 0 -80.212300717840549 11.703931790802736 1 0 0 I I #
edge $-1 $307 -4.7476780682413615 $346 4.7476780682413615 $306 $367 forward 7 unknown #
point $-1 74.065981017487104 -80.212300717840549 11.703931790802736 #
straight-curve $-1 -74.065981017487104 -80.212300717840549 6.9562537225613745 0 0 -1 I I #
point $-1 -74.065981017487104 -80.212300717840549 2.208575654320013 #
point $-1 -74.065981017487104 -80.212300717840549 11.703931790802736 #
straight-curve $-1 -74.065981017487104 11.594225241449447 62.646071884582163 0 0 -1 I I #
point $-1 -74.065981017487104 11.594225241449447 24.078995660232597 #
straight-curve $-1 -74.065981017487104 1.9243572282000052 1.0582277248781495 0 -1 0 I I #
point $-1 -74.065981017487104 11.594225241449447 1.0582277248781415 #
point $-1 -54.748084135002756 3.8487144564000175 10.114898173070275 #
straight-curve $-1 74.065981017487104 -3.896796328649426 102.98529684191213 0 0 -1 I I #
point $-1 74.065981017487104 -3.896796328649426 24.078995660232597 #
straight-curve $-1 74.065981017487104 1.9243572282000052 1.0582277248781153 0 1 0 I I #
point $-1 74.065981017487104 -3.896796328649426 1.0582277248781082 #
point $-1 54.748084135002728 3.8487144564000175 10.114898173070289 #
straight-curve $-1 0 -80.212300717840549 2.208575654320013 -1 0 0 I I #
point $-1 74.065981017487104 -80.212300717840549 2.208575654320013 #
straight-curve $-1 74.065981017487104 -80.212300717840549 6.9562537225613745 0 0 -1 I I #
End-of-ACIS-data 