500 0 11 0           
7 Unknown 11 ACIS 5.0 NT 24 Thu Mar 25 18:18:25 1999 
-1 9.9999999999999995e-007 1e-010 
body $-1 $11 $-1 $12 #
body $-1 $13 $-1 $14 #
body $-1 $15 $-1 $16 #
body $-1 $17 $-1 $18 #
body $-1 $19 $-1 $20 #
body $-1 $21 $-1 $22 #
body $-1 $23 $-1 $24 #
body $-1 $25 $-1 $26 #
body $-1 $27 $-1 $28 #
body $-1 $29 $-1 $30 #
body $-1 $31 $-1 $32 #
lump $-1 $-1 $33 $0 #
transform $-1 1 0 0 0 1 0 0 0 1 60.574358348338265 35.190694464521229 8.6123605166749684 1 rotate no_reflect no_shear #
lump $-1 $-1 $34 $1 #
transform $-1 1 0 0 0 1 0 0 0 1 60.574358348338265 35.190694464521229 8.6123605166749684 1 rotate no_reflect no_shear #
lump $-1 $-1 $35 $2 #
transform $-1 1 0 0 0 1 0 0 0 1 60.574358348338265 35.190694464521229 8.6123605166749684 1 rotate no_reflect no_shear #
lump $-1 $-1 $36 $3 #
transform $-1 1 0 0 0 1 0 0 0 1 60.574358348338265 35.190694464521229 8.6123605166749684 1 rotate no_reflect no_shear #
lump $-1 $-1 $37 $4 #
transform $-1 1 0 0 0 1 0 0 0 1 60.574358348338265 35.190694464521229 8.6123605166749684 1 rotate no_reflect no_shear #
lump $-1 $-1 $38 $5 #
transform $-1 1 0 0 0 1 0 0 0 1 60.574358348338265 35.190694464521229 8.6123605166749684 1 rotate no_reflect no_shear #
lump $-1 $-1 $39 $6 #
transform $-1 1 0 0 0 1 0 0 0 1 60.574358348338265 35.190694464521229 8.6123605166749684 1 rotate no_reflect no_shear #
lump $-1 $-1 $40 $7 #
transform $-1 1 0 0 0 1 0 0 0 1 60.574358348338265 35.190694464521229 8.6123605166749684 1 rotate no_reflect no_shear #
lump $-1 $-1 $41 $8 #
transform $-1 1 0 0 0 1 0 0 0 1 60.574358348338265 35.190694464521229 8.6123605166749684 1 rotate no_reflect no_shear #
lump $-1 $-1 $42 $9 #
transform $-1 1 0 0 0 1 0 0 0 1 60.574358348338265 35.190694464521229 8.6123605166749684 1 rotate no_reflect no_shear #
lump $-1 $-1 $43 $10 #
transform $-1 1 0 0 0 1 0 0 0 1 60.574358348338265 35.190694464521229 8.6123605166749684 1 rotate no_reflect no_shear #
shell $-1 $-1 $-1 $44 $-1 $11 #
shell $-1 $-1 $-1 $45 $-1 $13 #
shell $-1 $-1 $-1 $46 $-1 $15 #
shell $-1 $-1 $-1 $47 $-1 $17 #
shell $-1 $-1 $-1 $48 $-1 $19 #
shell $-1 $-1 $-1 $49 $-1 $21 #
shell $-1 $-1 $-1 $50 $-1 $23 #
shell $-1 $-1 $-1 $51 $-1 $25 #
shell $-1 $-1 $-1 $52 $-1 $27 #
shell $-1 $-1 $-1 $53 $-1 $29 #
shell $-1 $-1 $-1 $54 $-1 $31 #
face $-1 $55 $56 $33 $-1 $57 reversed single #
face $-1 $58 $59 $34 $-1 $60 forward single #
face $-1 $61 $62 $35 $-1 $63 forward single #
face $-1 $64 $65 $36 $-1 $66 reversed single #
face $-1 $67 $68 $37 $-1 $69 forward single #
face $-1 $70 $71 $38 $-1 $72 forward single #
face $-1 $73 $74 $39 $-1 $75 forward single #
face $-1 $76 $77 $40 $-1 $78 reversed single #
face $-1 $79 $80 $41 $-1 $81 forward single #
face $-1 $82 $83 $42 $-1 $84 forward single #
face $-1 $85 $86 $43 $-1 $87 forward single #
face $-1 $88 $89 $33 $-1 $90 reversed single #
loop $-1 $-1 $91 $44 #
plane-surface $-1 0 35.190694464521229 0 0 -1 0 0 0 -1 forward_v I I I I #
face $-1 $92 $93 $34 $-1 $94 reversed single #
loop $-1 $-1 $95 $45 #
plane-surface $-1 0 -35.190694464521229 0 0 1 0 0 0 1 forward_v I I I I #
face $-1 $96 $97 $35 $-1 $98 reversed single #
loop $-1 $-1 $99 $46 #
plane-surface $-1 0 35.190694464521229 0 0 -1 0 0 0 -1 forward_v I I I I #
face $-1 $100 $101 $36 $-1 $102 reversed single #
loop $-1 $-1 $103 $47 #
plane-surface $-1 -147.72145302634354 -3.1377622963754526 86.137489877928189 0 1 0 -0.71933980857756763 0 0.69465836192734942 forward_v I I I I #
face $-1 $104 $105 $37 $-1 $106 forward single #
loop $-1 $107 $108 $48 #
cone-surface $-1 -56.496170234502976 -0.95198262669008216 4.4504571342933366 0.71933980857756763 0 -0.69465836192734942 0.69465836192734942 0 0.71933980857756763 1 I I 0 1 1 forward I I I I #
face $-1 $109 $110 $38 $-1 $111 forward single #
loop $-1 $112 $113 $49 #
cone-surface $-1 -56.496170234502976 2.3266868778379646 4.4504571342933366 0.71933980857756763 0 -0.69465836192734942 0.69465836192734942 0 0.71933980857756763 1 I I 0 1 1 forward I I I I #
face $-1 $114 $115 $39 $-1 $116 forward single #
loop $-1 $117 $118 $50 #
cone-surface $-1 -56.496170234502976 5.6053563823660113 4.4504571342933366 0.71933980857756763 0 -0.69465836192734942 0.69465836192734942 0 0.71933980857756763 1 I I 0 1 1 forward I I I I #
face $-1 $119 $120 $40 $-1 $121 reversed single #
loop $-1 $-1 $122 $51 #
plane-surface $-1 84.41891007379273 -5.0536622720822724 169.83886131061928 0 -1 0 -0.79863551827123203 0 -0.60181501223851219 forward_v I I I I #
face $-1 $123 $124 $41 $-1 $125 forward single #
loop $-1 $126 $127 $52 #
cone-surface $-1 56.848455008106519 -11.507813022491153 3.9817943442166248 -0.79863551827123203 0 -0.60181501223851219 0.3009075061192561 0 -0.39931775913561601 1 I I 0 1 0.5 forward I I I I #
face $-1 $128 $129 $42 $-1 $130 forward single #
loop $-1 $131 $132 $53 #
cone-surface $-1 56.848455008106519 -9.0875064910878223 3.9817943442166248 -0.79863551827123203 0 -0.60181501223851219 0.3009075061192561 0 -0.39931775913561601 1 I I 0 1 0.5 forward I I I I #
face $-1 $133 $134 $43 $-1 $135 forward single #
loop $-1 $136 $137 $54 #
cone-surface $-1 56.848455008106519 -6.667199959684492 3.9817943442166248 -0.79863551827123203 0 -0.60181501223851219 0.3009075061192561 0 -0.39931775913561601 1 I I 0 1 0.5 forward I I I I #
face $-1 $138 $139 $33 $-1 $140 forward single #
loop $-1 $-1 $141 $55 #
plane-surface $-1 0 -35.190694464521229 0 0 1 0 0 0 1 forward_v I I I I #
coedge $-1 $142 $143 $144 $145 reversed $56 $-1 #
face $-1 $146 $147 $34 $-1 $148 reversed single #
loop $-1 $-1 $149 $58 #
plane-surface $-1 0 0 -8.6123605166749684 0 0 1 1 0 0 forward_v I I I I #
coedge $-1 $150 $151 $152 $153 forward $59 $-1 #
face $-1 $154 $155 $35 $-1 $156 reversed single #
loop $-1 $-1 $157 $61 #
plane-surface $-1 0 0 -8.6123605166749684 0 0 1 1 0 0 forward_v I I I I #
coedge $-1 $158 $159 $160 $161 forward $62 $-1 #
face $-1 $162 $163 $36 $-1 $164 reversed single #
loop $-1 $-1 $165 $64 #
plane-surface $-1 -60.574358348338279 2.3266868778379575 1.980520787814342 -0.71933980857756763 0 0.69465836192734942 0.69465836192734942 0 0.71933980857756763 forward_v I I I I #
coedge $-1 $166 $167 $168 $169 reversed $65 $-1 #
face $-1 $-1 $170 $37 $-1 $171 forward single #
loop $-1 $172 $173 $67 #
cone-surface $-1 -55.260458731615365 -0.95198262669008216 3.2571444353783434 0.71933980857756763 0 -0.69465836192734942 0.34732918096367471 0 0.35966990428878381 1 I I -0.70710678118654746 0.70710678118654746 0.5 forward I I I I #
loop $-1 $-1 $174 $48 #
coedge $-1 $108 $108 $175 $176 reversed $68 $-1 #
face $-1 $-1 $177 $38 $-1 $178 forward single #
loop $-1 $179 $180 $70 #
cone-surface $-1 -55.260458731615365 2.3266868778379646 3.2571444353783434 0.71933980857756763 0 -0.69465836192734942 0.34732918096367471 0 0.35966990428878381 1 I I -0.70710678118654746 0.70710678118654746 0.5 forward I I I I #
loop $-1 $-1 $181 $49 #
coedge $-1 $113 $113 $182 $183 reversed $71 $-1 #
face $-1 $-1 $184 $39 $-1 $185 forward single #
loop $-1 $186 $187 $73 #
cone-surface $-1 -55.260458731615365 5.6053563823660113 3.2571444353783434 0.71933980857756763 0 -0.69465836192734942 0.34732918096367471 0 0.35966990428878381 1 I I -0.70710678118654746 0.70710678118654746 0.5 forward I I I I #
loop $-1 $-1 $188 $50 #
coedge $-1 $118 $118 $189 $190 reversed $74 $-1 #
face $-1 $191 $192 $40 $-1 $193 reversed single #
loop $-1 $-1 $194 $76 #
plane-surface $-1 -12.334758073152187 -9.0875064910878223 96.929744889128841 0.79863551827123203 0 0.60181501223851219 0.60181501223851219 0 -0.79863551827123203 forward_v I I I I #
coedge $-1 $195 $196 $197 $198 reversed $77 $-1 #
face $-1 $-1 $199 $41 $-1 $200 forward single #
loop $-1 $201 $202 $79 #
cone-surface $-1 56.101490600975609 -11.507813022491153 3.4189163059441654 -0.79863551827123203 0 -0.60181501223851219 0.15045375305962805 0 -0.19965887956780801 1 I I -0.70710678118654746 0.70710678118654746 0.25 forward I I I I #
loop $-1 $-1 $203 $52 #
coedge $-1 $127 $127 $204 $205 reversed $80 $-1 #
face $-1 $-1 $206 $42 $-1 $207 forward single #
loop $-1 $208 $209 $82 #
cone-surface $-1 56.101490600975609 -9.0875064910878223 3.4189163059441654 -0.79863551827123203 0 -0.60181501223851219 0.15045375305962805 0 -0.19965887956780801 1 I I -0.70710678118654746 0.70710678118654746 0.25 forward I I I I #
loop $-1 $-1 $210 $53 #
coedge $-1 $132 $132 $211 $212 reversed $83 $-1 #
face $-1 $-1 $213 $43 $-1 $214 forward single #
loop $-1 $215 $216 $85 #
cone-surface $-1 56.101490600975609 -6.667199959684492 3.4189163059441654 -0.79863551827123203 0 -0.60181501223851219 0.15045375305962805 0 -0.19965887956780801 1 I I -0.70710678118654746 0.70710678118654746 0.25 forward I I I I #
loop $-1 $-1 $217 $54 #
coedge $-1 $137 $137 $218 $219 reversed $86 $-1 #
face $-1 $220 $221 $33 $-1 $222 reversed single #
loop $-1 $-1 $223 $88 #
plane-surface $-1 0 0 8.6123605166749684 0 0 1 1 0 0 forward_v I I I I #
coedge $-1 $224 $225 $226 $227 reversed $89 $-1 #
coedge $-1 $228 $91 $229 $230 reversed $56 $-1 #
coedge $-1 $91 $228 $231 $232 forward $56 $-1 #
coedge $-1 $233 $234 $91 $145 forward $221 $-1 #
edge $-1 $235 -60.574358348338265 $236 60.574358348338265 $91 $237 forward 7 unknown #
face $-1 $238 $239 $34 $-1 $240 reversed single #
loop $-1 $-1 $241 $92 #
plane-surface $-1 -45.173695689257336 -43.191571339274944 0 0 1 0 0 0 1 forward_v I I I I #
coedge $-1 $242 $243 $151 $244 forward $93 $-1 #
coedge $-1 $245 $95 $246 $247 reversed $59 $-1 #
coedge $-1 $95 $245 $149 $244 reversed $59 $-1 #
coedge $-1 $248 $249 $95 $153 reversed $239 $-1 #
edge $-1 $250 -8.6123605166749684 $251 8.6123605166749684 $152 $252 forward 7 unknown #
face $-1 $253 $254 $35 $-1 $255 reversed single #
loop $-1 $-1 $256 $96 #
plane-surface $-1 -46.997754063526344 39.191132901898087 0 1 0 0 0 0 -1 forward_v I I I I #
coedge $-1 $257 $258 $159 $259 forward $97 $-1 #
coedge $-1 $260 $99 $261 $262 reversed $62 $-1 #
coedge $-1 $99 $260 $157 $259 reversed $62 $-1 #
coedge $-1 $263 $264 $99 $161 reversed $265 $-1 #
edge $-1 $266 -8.6123605166749684 $267 8.6123605166749684 $160 $268 forward 7 unknown #
face $-1 $269 $270 $36 $-1 $271 reversed single #
loop $-1 $-1 $272 $100 #
plane-surface $-1 -147.72145302634354 7.7911360520513675 86.137489877928189 0 -1 0 0.71933980857756763 0 -0.69465836192734942 forward_v I I I I #
coedge $-1 $273 $274 $275 $276 reversed $101 $-1 #
coedge $-1 $167 $103 $277 $278 reversed $65 $-1 #
coedge $-1 $103 $166 $273 $279 reversed $65 $-1 #
coedge $-1 $275 $280 $103 $169 forward $281 $-1 #
edge $-1 $282 13.286368164833505 $283 19.690661195306411 $168 $284 forward 7 unknown #
loop $-1 $-1 $175 $104 #
plane-surface $-1 -60.574358348338279 2.3266868778379575 1.980520787814342 -0.71933980857756763 0 0.69465836192734942 0.69465836192734942 0 0.71933980857756763 forward_v I I I I #
loop $-1 $-1 $285 $67 #
coedge $-1 $173 $173 $174 $286 reversed $105 $-1 #
coedge $-1 $174 $174 $173 $286 forward $107 $-1 #
coedge $-1 $175 $175 $108 $176 forward $170 $-1 #
edge $-1 $287 0 $287 6.2831853071796004 $175 $288 forward 7 unknown #
loop $-1 $-1 $182 $109 #
plane-surface $-1 -60.574358348338279 2.3266868778379575 1.980520787814342 -0.71933980857756763 0 0.69465836192734942 0.69465836192734942 0 0.71933980857756763 forward_v I I I I #
loop $-1 $-1 $289 $70 #
coedge $-1 $180 $180 $181 $290 reversed $110 $-1 #
coedge $-1 $181 $181 $180 $290 forward $112 $-1 #
coedge $-1 $182 $182 $113 $183 forward $177 $-1 #
edge $-1 $291 0 $291 6.2831853071796004 $182 $292 forward 7 unknown #
loop $-1 $-1 $189 $114 #
plane-surface $-1 -60.574358348338279 2.3266868778379575 1.980520787814342 -0.71933980857756763 0 0.69465836192734942 0.69465836192734942 0 0.71933980857756763 forward_v I I I I #
loop $-1 $-1 $293 $73 #
coedge $-1 $187 $187 $188 $294 reversed $115 $-1 #
coedge $-1 $188 $188 $187 $294 forward $117 $-1 #
coedge $-1 $189 $189 $118 $190 forward $184 $-1 #
edge $-1 $295 0 $295 6.2831853071796004 $189 $296 forward 7 unknown #
face $-1 $297 $298 $40 $-1 $299 forward single #
loop $-1 $-1 $300 $119 #
plane-surface $-1 84.41891007379273 -13.121350710093372 169.83886131061928 0 1 0 0.79863551827123203 0 0.60181501223851219 forward_v I I I I #
coedge $-1 $301 $302 $303 $304 reversed $120 $-1 #
coedge $-1 $196 $122 $305 $306 reversed $77 $-1 #
coedge $-1 $122 $195 $301 $307 reversed $77 $-1 #
coedge $-1 $303 $308 $122 $198 forward $298 $-1 #
edge $-1 $309 -18.3649033114419 $310 -12.007707686104546 $197 $311 forward 7 unknown #
loop $-1 $-1 $204 $123 #
plane-surface $-1 -12.334758073152187 -9.0875064910878223 96.929744889128841 0.79863551827123203 0 0.60181501223851219 0.60181501223851219 0 -0.79863551827123203 forward_v I I I I #
loop $-1 $-1 $312 $79 #
coedge $-1 $202 $202 $203 $313 reversed $124 $-1 #
coedge $-1 $203 $203 $202 $313 forward $126 $-1 #
coedge $-1 $204 $204 $127 $205 forward $199 $-1 #
edge $-1 $314 0 $314 6.2831853071796004 $204 $315 forward 7 unknown #
loop $-1 $-1 $211 $128 #
plane-surface $-1 -12.334758073152187 -9.0875064910878223 96.929744889128841 0.79863551827123203 0 0.60181501223851219 0.60181501223851219 0 -0.79863551827123203 forward_v I I I I #
loop $-1 $-1 $316 $82 #
coedge $-1 $209 $209 $210 $317 reversed $129 $-1 #
coedge $-1 $210 $210 $209 $317 forward $131 $-1 #
coedge $-1 $211 $211 $132 $212 forward $206 $-1 #
edge $-1 $318 0 $318 6.2831853071796004 $211 $319 forward 7 unknown #
loop $-1 $-1 $218 $133 #
plane-surface $-1 -12.334758073152187 -9.0875064910878223 96.929744889128841 0.79863551827123203 0 0.60181501223851219 0.60181501223851219 0 -0.79863551827123203 forward_v I I I I #
loop $-1 $-1 $320 $85 #
coedge $-1 $216 $216 $217 $321 reversed $134 $-1 #
coedge $-1 $217 $217 $216 $321 forward $136 $-1 #
coedge $-1 $218 $218 $137 $219 forward $213 $-1 #
edge $-1 $322 0 $322 6.2831853071796004 $218 $323 forward 7 unknown #
face $-1 $324 $325 $33 $-1 $326 reversed single #
loop $-1 $-1 $233 $138 #
plane-surface $-1 0 0 -8.6123605166749684 0 0 1 1 0 0 forward_v I I I I #
coedge $-1 $327 $328 $329 $330 forward $139 $-1 #
coedge $-1 $331 $141 $332 $333 reversed $89 $-1 #
coedge $-1 $141 $331 $334 $335 forward $89 $-1 #
coedge $-1 $234 $233 $141 $227 forward $221 $-1 #
edge $-1 $336 -60.574358348338265 $337 60.574358348338265 $141 $338 forward 7 unknown #
coedge $-1 $143 $142 $327 $339 reversed $56 $-1 #
coedge $-1 $340 $341 $142 $230 forward $325 $-1 #
edge $-1 $342 -8.6123605166749684 $235 8.6123605166749684 $142 $343 forward 7 unknown #
coedge $-1 $329 $344 $143 $232 reversed $345 $-1 #
edge $-1 $346 -8.6123605166749684 $236 8.6123605166749684 $231 $347 forward 7 unknown #
coedge $-1 $226 $144 $344 $348 forward $221 $-1 #
coedge $-1 $144 $226 $340 $349 forward $221 $-1 #
vertex $-1 $145 $350 #
vertex $-1 $348 $351 #
straight-curve $-1 0 35.190694464521229 -8.6123605166749684 1 0 0 I I #
face $-1 $352 $353 $34 $-1 $354 reversed single #
loop $-1 $-1 $152 $146 #
plane-surface $-1 -46.997754063526344 -39.191132901898087 0 1 0 0 0 0 -1 forward_v I I I I #
coedge $-1 $355 $356 $357 $358 forward $147 $-1 #
coedge $-1 $359 $149 $360 $361 forward $93 $-1 #
coedge $-1 $149 $359 $248 $362 forward $93 $-1 #
edge $-1 $250 -46.997754063526344 $363 -43.349637314988328 $149 $364 forward 7 unknown #
coedge $-1 $151 $150 $365 $366 forward $59 $-1 #
coedge $-1 $367 $368 $150 $247 forward $369 $-1 #
edge $-1 $370 43.349637314988328 $251 46.997754063526344 $246 $371 forward 7 unknown #
coedge $-1 $357 $152 $243 $362 reversed $239 $-1 #
coedge $-1 $152 $357 $367 $372 reversed $239 $-1 #
vertex $-1 $244 $373 #
vertex $-1 $372 $374 #
straight-curve $-1 -46.997754063526344 -35.190694464521229 0 0 0 1 I I #
face $-1 $375 $265 $35 $-1 $376 reversed single #
loop $-1 $-1 $377 $154 #
plane-surface $-1 -45.173695689257336 43.191571339274944 0 0 -1 0 0 0 -1 forward_v I I I I #
coedge $-1 $378 $379 $380 $381 forward $155 $-1 #
coedge $-1 $382 $157 $378 $383 forward $97 $-1 #
coedge $-1 $157 $382 $263 $384 forward $97 $-1 #
edge $-1 $266 43.349637314988328 $385 46.997754063526344 $157 $386 forward 7 unknown #
coedge $-1 $159 $158 $387 $388 forward $62 $-1 #
coedge $-1 $389 $390 $158 $262 forward $391 $-1 #
edge $-1 $392 -46.997754063526344 $267 -43.349637314988328 $261 $393 forward 7 unknown #
coedge $-1 $394 $160 $258 $384 reversed $265 $-1 #
coedge $-1 $160 $394 $389 $395 reversed $265 $-1 #
loop $-1 $-1 $160 $253 #
vertex $-1 $259 $396 #
vertex $-1 $395 $397 #
straight-curve $-1 -43.349637314988328 35.190694464521229 0 0 0 1 I I #
face $-1 $-1 $281 $36 $-1 $398 forward single #
loop $-1 $-1 $399 $162 #
plane-surface $-1 -60.574358348338265 0 0 1 0 0 0 0 -1 forward_v I I I I #
coedge $-1 $400 $401 $402 $403 reversed $163 $-1 #
coedge $-1 $404 $165 $167 $279 forward $101 $-1 #
coedge $-1 $165 $404 $400 $405 forward $101 $-1 #
coedge $-1 $402 $168 $165 $276 forward $281 $-1 #
edge $-1 $283 -4.3011057352944313 $406 6.6277926131323888 $275 $407 forward 7 unknown #
coedge $-1 $408 $409 $166 $278 forward $270 $-1 #
edge $-1 $410 -41.088224151149738 $282 -34.456384422289126 $277 $411 forward 7 unknown #
edge $-1 $283 -9.2193420269267712 $410 -2.0413573615811715e-014 $167 $412 forward 7 unknown #
coedge $-1 $168 $402 $408 $413 forward $281 $-1 #
loop $-1 $-1 $402 $269 #
vertex $-1 $278 $414 #
vertex $-1 $169 $415 #
straight-curve $-1 -73.86072651317177 -3.1377622963754526 8.6123605166749684 1 0 0 I I #
coedge $-1 $285 $285 $-1 $416 reversed $172 $-1 #
edge $-1 $417 0 $417 6.2831853071796004 $173 $418 forward 7 unknown #
vertex $-1 $176 $419 #
ellipse-curve $-1 -57.372211833101815 -0.95198262669008216 5.2964406522446623 -0.71933980857756763 0 0.69465836192734942 0.69465836192734942 0 0.71933980857756763 1 I I #
coedge $-1 $289 $289 $-1 $420 reversed $179 $-1 #
edge $-1 $421 0 $421 6.2831853071796004 $180 $422 forward 7 unknown #
vertex $-1 $183 $423 #
ellipse-curve $-1 -57.372211833101815 2.3266868778379646 5.2964406522446623 -0.71933980857756763 0 0.69465836192734942 0.69465836192734942 0 0.71933980857756763 1 I I #
coedge $-1 $293 $293 $-1 $424 reversed $186 $-1 #
edge $-1 $425 0 $425 6.2831853071796004 $187 $426 forward 7 unknown #
vertex $-1 $190 $427 #
ellipse-curve $-1 -57.372211833101815 5.6053563823660113 5.2964406522446623 -0.71933980857756763 0 0.69465836192734942 0.69465836192734942 0 0.71933980857756763 1 I I #
face $-1 $-1 $428 $40 $-1 $429 reversed single #
loop $-1 $-1 $197 $191 #
plane-surface $-1 0 0 8.6123605166749684 0 0 1 1 0 0 forward_v I I I I #
coedge $-1 $430 $431 $432 $433 reversed $192 $-1 #
coedge $-1 $434 $194 $196 $307 forward $120 $-1 #
coedge $-1 $194 $434 $430 $435 forward $120 $-1 #
coedge $-1 $432 $197 $194 $304 forward $298 $-1 #
edge $-1 $310 0.50990902653836123 $436 8.577597464549461 $303 $437 forward 7 unknown #
coedge $-1 $438 $439 $195 $306 forward $428 $-1 #
edge $-1 $440 -84.743353913125745 $309 -76.307070138634671 $305 $441 forward 7 unknown #
edge $-1 $310 110.58534506908768 $440 121.14871669667656 $196 $442 forward 7 unknown #
coedge $-1 $197 $432 $438 $443 forward $298 $-1 #
vertex $-1 $198 $444 #
vertex $-1 $198 $445 #
straight-curve $-1 42.209455036896365 -5.0536622720822724 8.6123605166749684 -1 0 0 I I #
coedge $-1 $312 $312 $-1 $446 reversed $201 $-1 #
edge $-1 $447 0 $447 6.2831853071796004 $202 $448 forward 7 unknown #
vertex $-1 $205 $449 #
ellipse-curve $-1 57.395760535669581 -11.507813022491153 4.3942186294294272 0.79863551827123203 0 0.60181501223851219 0.3009075061192561 0 -0.39931775913561601 1 I I #
coedge $-1 $316 $316 $-1 $450 reversed $208 $-1 #
edge $-1 $451 0 $451 6.2831853071796004 $209 $452 forward 7 unknown #
vertex $-1 $212 $453 #
ellipse-curve $-1 57.395760535669581 -9.0875064910878223 4.3942186294294272 0.79863551827123203 0 0.60181501223851219 0.3009075061192561 0 -0.39931775913561601 1 I I #
coedge $-1 $320 $320 $-1 $454 reversed $215 $-1 #
edge $-1 $455 0 $455 6.2831853071796004 $216 $456 forward 7 unknown #
vertex $-1 $219 $457 #
ellipse-curve $-1 57.395760535669581 -6.667199959684492 4.3942186294294272 0.79863551827123203 0 0.60181501223851219 0.3009075061192561 0 -0.39931775913561601 1 I I #
face $-1 $-1 $345 $33 $-1 $458 reversed single #
loop $-1 $-1 $229 $220 #
plane-surface $-1 -60.574358348338265 0 0 1 0 0 0 0 -1 forward_v I I I I #
coedge $-1 $459 $223 $228 $339 forward $139 $-1 #
coedge $-1 $223 $459 $331 $460 forward $139 $-1 #
coedge $-1 $332 $231 $223 $330 reversed $345 $-1 #
edge $-1 $461 -35.190694464521229 $346 35.190694464521229 $329 $462 forward 7 unknown #
coedge $-1 $225 $224 $328 $460 reversed $89 $-1 #
coedge $-1 $344 $329 $224 $333 forward $345 $-1 #
edge $-1 $461 -8.6123605166749684 $336 8.6123605166749684 $332 $463 forward 7 unknown #
coedge $-1 $341 $340 $225 $335 reversed $325 $-1 #
edge $-1 $464 -8.6123605166749684 $337 8.6123605166749684 $334 $465 forward 7 unknown #
vertex $-1 $333 $466 #
vertex $-1 $349 $467 #
straight-curve $-1 0 -35.190694464521229 -8.6123605166749684 -1 0 0 I I #
edge $-1 $346 -60.574358348338265 $342 60.574358348338265 $228 $468 forward 7 unknown #
coedge $-1 $334 $229 $234 $349 reversed $325 $-1 #
coedge $-1 $229 $334 $459 $469 reversed $325 $-1 #
vertex $-1 $339 $470 #
straight-curve $-1 -60.574358348338265 35.190694464521229 0 0 0 -1 I I #
coedge $-1 $231 $332 $233 $348 reversed $345 $-1 #
loop $-1 $-1 $332 $324 #
vertex $-1 $330 $471 #
straight-curve $-1 60.574358348338265 35.190694464521229 0 0 0 -1 I I #
edge $-1 $236 -35.190694464521229 $336 35.190694464521229 $344 $472 forward 7 unknown #
edge $-1 $337 -35.190694464521229 $235 35.190694464521229 $340 $473 forward 7 unknown #
point $-1 -60.574358348338265 35.190694464521229 -8.6123605166749684 #
point $-1 60.574358348338265 35.190694464521229 -8.6123605166749684 #
face $-1 $-1 $369 $34 $-1 $474 forward single #
loop $-1 $-1 $475 $238 #
plane-surface $-1 -43.349637314988328 -39.191132901898087 0 -1 0 0 0 0 1 forward_v I I I I #
coedge $-1 $476 $241 $359 $477 reversed $147 $-1 #
coedge $-1 $241 $476 $478 $479 reversed $147 $-1 #
coedge $-1 $249 $248 $241 $358 reversed $239 $-1 #
edge $-1 $480 -8.6123605166749684 $481 8.6123605166749684 $357 $482 forward 7 unknown #
coedge $-1 $243 $242 $355 $477 forward $93 $-1 #
coedge $-1 $365 $475 $242 $361 reversed $353 $-1 #
edge $-1 $363 -4.0004384373768573 $483 4.0004384373768573 $360 $484 forward 7 unknown #
edge $-1 $481 -4.0004384373768573 $250 4.0004384373768573 $248 $485 forward 7 unknown #
vertex $-1 $361 $486 #
straight-curve $-1 0 -35.190694464521229 -8.6123605166749684 1 0 0 I I #
coedge $-1 $487 $360 $245 $366 reversed $353 $-1 #
edge $-1 $370 -8.6123605166749684 $363 8.6123605166749684 $365 $488 forward 7 unknown #
coedge $-1 $478 $246 $249 $372 forward $369 $-1 #
coedge $-1 $246 $478 $487 $489 forward $369 $-1 #
loop $-1 $-1 $246 $352 #
vertex $-1 $247 $490 #
straight-curve $-1 0 -35.190694464521229 8.6123605166749684 -1 0 0 I I #
edge $-1 $251 -4.0004384373768573 $480 4.0004384373768573 $249 $491 forward 7 unknown #
point $-1 -46.997754063526344 -35.190694464521229 -8.6123605166749684 #
point $-1 -46.997754063526344 -35.190694464521229 8.6123605166749684 #
face $-1 $-1 $391 $35 $-1 $492 forward single #
plane-surface $-1 -43.349637314988328 39.191132901898087 0 -1 0 0 0 0 1 forward_v I I I I #
coedge $-1 $493 $494 $394 $495 forward $254 $-1 #
coedge $-1 $387 $256 $257 $383 reversed $155 $-1 #
coedge $-1 $256 $387 $390 $496 reversed $155 $-1 #
coedge $-1 $494 $493 $256 $381 reversed $254 $-1 #
edge $-1 $497 -8.6123605166749684 $498 8.6123605166749684 $380 $499 forward 7 unknown #
coedge $-1 $258 $257 $493 $500 forward $97 $-1 #
edge $-1 $385 -4.0004384373768573 $498 4.0004384373768573 $378 $501 forward 7 unknown #
edge $-1 $502 -4.0004384373768573 $266 4.0004384373768573 $263 $503 forward 7 unknown #
vertex $-1 $383 $504 #
straight-curve $-1 0 35.190694464521229 -8.6123605166749684 -1 0 0 I I #
coedge $-1 $379 $378 $260 $388 reversed $155 $-1 #
edge $-1 $392 -8.6123605166749684 $385 8.6123605166749684 $387 $505 forward 7 unknown #
coedge $-1 $506 $261 $264 $395 forward $391 $-1 #
coedge $-1 $261 $506 $379 $496 forward $391 $-1 #
loop $-1 $-1 $261 $375 #
vertex $-1 $262 $507 #
straight-curve $-1 0 35.190694464521229 8.6123605166749684 1 0 0 I I #
coedge $-1 $264 $263 $377 $495 reversed $265 $-1 #
edge $-1 $267 -4.0004384373768573 $508 4.0004384373768573 $264 $509 forward 7 unknown #
point $-1 -43.349637314988328 35.190694464521229 -8.6123605166749684 #
point $-1 -43.349637314988328 35.190694464521229 8.6123605166749684 #
plane-surface $-1 0 0 8.6123605166749684 0 0 1 1 0 0 forward_v I I I I #
coedge $-1 $409 $408 $401 $510 forward $270 $-1 #
coedge $-1 $401 $272 $274 $405 reversed $163 $-1 #
coedge $-1 $272 $400 $399 $510 reversed $163 $-1 #
coedge $-1 $280 $275 $272 $403 forward $281 $-1 #
edge $-1 $406 -19.690661195306411 $511 -13.286368164833505 $402 $512 forward 7 unknown #
coedge $-1 $274 $273 $409 $513 reversed $101 $-1 #
edge $-1 $514 2.0413573615811715e-014 $406 9.2193420269267712 $400 $515 forward 7 unknown #
vertex $-1 $276 $516 #
straight-curve $-1 -54.170065317865365 1.1633434389189787 8.6123605166749684 0 1 0 I I #
coedge $-1 $399 $277 $280 $413 reversed $270 $-1 #
coedge $-1 $277 $399 $404 $513 forward $270 $-1 #
vertex $-1 $278 $517 #
straight-curve $-1 -60.574358348338265 -3.1377622963754526 43.068744938964095 0 0 1 I I #
straight-curve $-1 -60.574358348338279 -3.1377622963754526 1.980520787814342 -0.69465836192734942 0 -0.71933980857756763 I I #
edge $-1 $511 -7.7911360520513675 $282 3.1377622963754526 $408 $518 forward 7 unknown #
point $-1 -60.574358348338265 -3.1377622963754526 8.6123605166749684 #
point $-1 -54.170065317865358 -3.1377622963754526 8.6123605166749684 #
edge $-1 $519 1 $519 0 $285 $-1 forward 7 unknown #
vertex $-1 $286 $520 #
ellipse-curve $-1 -55.620128635904152 -0.95198262669008216 3.6044736163420179 -0.71933980857756763 0 0.69465836192734942 0.69465836192734942 0 0.71933980857756763 1 I I #
point $-1 -56.677553471174456 -0.95198262669008216 6.0157804608222243 #
edge $-1 $521 1 $521 0 $289 $-1 forward 7 unknown #
vertex $-1 $290 $522 #
ellipse-curve $-1 -55.620128635904152 2.3266868778379646 3.6044736163420179 -0.71933980857756763 0 0.69465836192734942 0.69465836192734942 0 0.71933980857756763 1 I I #
point $-1 -56.677553471174456 2.3266868778379646 6.0157804608222243 #
edge $-1 $523 1 $523 0 $293 $-1 forward 7 unknown #
vertex $-1 $294 $524 #
ellipse-curve $-1 -55.620128635904152 5.6053563823660113 3.6044736163420179 -0.71933980857756763 0 0.69465836192734942 0.69465836192734942 0 0.71933980857756763 1 I I #
point $-1 -56.677553471174456 5.6053563823660113 6.0157804608222243 #
loop $-1 $-1 $305 $297 #
plane-surface $-1 60.574358348338265 0 0 -1 0 0 0 0 1 forward_v I I I I #
coedge $-1 $431 $300 $302 $435 reversed $192 $-1 #
coedge $-1 $300 $430 $525 $526 reversed $192 $-1 #
coedge $-1 $308 $303 $300 $433 forward $298 $-1 #
edge $-1 $436 12.007707686104546 $527 18.3649033114419 $432 $528 forward 7 unknown #
coedge $-1 $302 $301 $439 $529 reversed $120 $-1 #
edge $-1 $530 -121.14871669667656 $436 -110.58534506908768 $430 $531 forward 7 unknown #
vertex $-1 $304 $532 #
straight-curve $-1 54.217162723000904 -4.5437532455439111 8.6123605166749755 0 -1 0 I I #
coedge $-1 $525 $305 $308 $443 reversed $428 $-1 #
coedge $-1 $305 $525 $434 $529 forward $428 $-1 #
vertex $-1 $306 $533 #
straight-curve $-1 60.574358348338265 -5.0536622720822724 84.91943065530964 0 0 1 I I #
straight-curve $-1 -12.334758073152187 -5.0536622720822724 96.929744889128841 0.60181501223851219 0 -0.79863551827123203 I I #
edge $-1 $527 -13.121350710093372 $309 -5.0536622720822724 $438 $534 forward 7 unknown #
point $-1 60.574358348338265 -5.0536622720822724 8.6123605166749684 #
point $-1 54.217162723000911 -5.0536622720822724 8.6123605166749684 #
edge $-1 $535 1 $535 0 $312 $-1 forward 7 unknown #
vertex $-1 $313 $536 #
ellipse-curve $-1 56.301149480543415 -11.507813022491153 3.5693700590037936 0.79863551827123203 0 0.60181501223851219 0.3009075061192561 0 -0.39931775913561601 1 I I #
point $-1 57.696668041788875 -11.507813022491153 3.9949008702938409 #
edge $-1 $537 1 $537 0 $316 $-1 forward 7 unknown #
vertex $-1 $317 $538 #
ellipse-curve $-1 56.301149480543415 -9.0875064910878223 3.5693700590037936 0.79863551827123203 0 0.60181501223851219 0.3009075061192561 0 -0.39931775913561601 1 I I #
point $-1 57.696668041788875 -9.0875064910878223 3.9949008702938409 #
edge $-1 $539 1 $539 0 $320 $-1 forward 7 unknown #
vertex $-1 $321 $540 #
ellipse-curve $-1 56.301149480543415 -6.667199959684492 3.5693700590037936 0.79863551827123203 0 0.60181501223851219 0.3009075061192561 0 -0.39931775913561601 1 I I #
point $-1 57.696668041788875 -6.667199959684492 3.9949008702938409 #
plane-surface $-1 60.574358348338265 0 0 -1 0 0 0 0 1 forward_v I I I I #
coedge $-1 $328 $327 $341 $469 forward $139 $-1 #
edge $-1 $464 -60.574358348338265 $461 60.574358348338265 $331 $541 forward 7 unknown #
vertex $-1 $330 $542 #
straight-curve $-1 60.574358348338265 0 8.6123605166749684 0 1 0 I I #
straight-curve $-1 60.574358348338265 -35.190694464521229 0 0 0 -1 I I #
vertex $-1 $469 $543 #
straight-curve $-1 -60.574358348338265 -35.190694464521229 0 0 0 -1 I I #
point $-1 60.574358348338265 -35.190694464521229 -8.6123605166749684 #
point $-1 -60.574358348338265 -35.190694464521229 -8.6123605166749684 #
straight-curve $-1 0 35.190694464521229 8.6123605166749684 -1 0 0 I I #
edge $-1 $342 -35.190694464521229 $464 35.190694464521229 $341 $544 forward 7 unknown #
point $-1 -60.574358348338265 35.190694464521229 8.6123605166749684 #
point $-1 60.574358348338265 35.190694464521229 8.6123605166749684 #
straight-curve $-1 60.574358348338265 0 -8.6123605166749684 0 -1 0 I I #
straight-curve $-1 -60.574358348338265 0 -8.6123605166749684 0 1 0 I I #
plane-surface $-1 0 0 8.6123605166749684 0 0 1 1 0 0 forward_v I I I I #
coedge $-1 $360 $487 $476 $545 forward $353 $-1 #
coedge $-1 $356 $355 $475 $545 reversed $147 $-1 #
edge $-1 $483 -1.8240583742690077 $481 1.8240583742690077 $355 $546 forward 7 unknown #
coedge $-1 $368 $367 $356 $479 forward $369 $-1 #
edge $-1 $480 -1.8240583742690077 $547 1.8240583742690077 $356 $548 forward 7 unknown #
vertex $-1 $372 $549 #
vertex $-1 $362 $550 #
straight-curve $-1 -46.997754063526344 -43.191571339274944 0 0 0 -1 I I #
vertex $-1 $545 $551 #
straight-curve $-1 -43.349637314988328 -39.191132901898087 -8.6123605166749684 0 -1 0 I I #
straight-curve $-1 -46.997754063526344 -39.191132901898087 -8.6123605166749684 0 1 0 I I #
point $-1 -43.349637314988328 -35.190694464521229 -8.6123605166749684 #
coedge $-1 $475 $365 $368 $489 reversed $353 $-1 #
straight-curve $-1 -43.349637314988328 -35.190694464521229 0 0 0 -1 I I #
edge $-1 $547 -4.0004384373768573 $370 4.0004384373768573 $487 $552 forward 7 unknown #
point $-1 -43.349637314988328 -35.190694464521229 8.6123605166749684 #
straight-curve $-1 -46.997754063526344 -39.191132901898087 8.6123605166749684 0 -1 0 I I #
plane-surface $-1 0 0 8.6123605166749684 0 0 1 1 0 0 forward_v I I I I #
coedge $-1 $380 $377 $382 $500 reversed $254 $-1 #
coedge $-1 $377 $380 $506 $553 reversed $254 $-1 #
edge $-1 $508 -8.6123605166749684 $502 8.6123605166749684 $394 $554 forward 7 unknown #
edge $-1 $497 -4.0004384373768573 $392 4.0004384373768573 $379 $555 forward 7 unknown #
vertex $-1 $553 $556 #
vertex $-1 $500 $557 #
straight-curve $-1 -46.997754063526344 43.191571339274944 0 0 0 -1 I I #
edge $-1 $498 -1.8240583742690077 $502 1.8240583742690077 $493 $558 forward 7 unknown #
straight-curve $-1 -46.997754063526344 39.191132901898087 -8.6123605166749684 0 1 0 I I #
vertex $-1 $384 $559 #
straight-curve $-1 -43.349637314988328 39.191132901898087 -8.6123605166749684 0 -1 0 I I #
point $-1 -46.997754063526344 35.190694464521229 -8.6123605166749684 #
straight-curve $-1 -46.997754063526344 35.190694464521229 0 0 0 -1 I I #
coedge $-1 $390 $389 $494 $553 forward $391 $-1 #
point $-1 -46.997754063526344 35.190694464521229 8.6123605166749684 #
vertex $-1 $395 $560 #
straight-curve $-1 -43.349637314988328 39.191132901898087 8.6123605166749684 0 1 0 I I #
edge $-1 $511 34.456384422289126 $514 41.088224151149738 $399 $561 forward 7 unknown #
vertex $-1 $413 $562 #
straight-curve $-1 -73.86072651317177 7.7911360520513675 8.6123605166749684 -1 0 0 I I #
edge $-1 $514 -6.6277926131323888 $410 4.3011057352944313 $409 $563 forward 7 unknown #
vertex $-1 $513 $564 #
straight-curve $-1 -60.574358348338279 7.7911360520513675 1.980520787814342 0.69465836192734942 0 0.71933980857756763 I I #
point $-1 -54.170065317865358 7.7911360520513675 8.6123605166749684 #
point $-1 -60.574358348338265 -3.1377622963754526 1.9805207878143567 #
straight-curve $-1 -60.574358348338265 0 8.6123605166749684 0 -1 0 I I #
vertex $-1 $416 $565 #
point $-1 -54.925470273976799 -0.95198262669008216 4.3238134249195852 #
vertex $-1 $420 $566 #
point $-1 -54.925470273976799 2.3266868778379646 4.3238134249195852 #
vertex $-1 $424 $567 #
point $-1 -54.925470273976799 5.6053563823660113 4.3238134249195852 #
coedge $-1 $439 $438 $431 $526 forward $428 $-1 #
edge $-1 $527 76.307070138634671 $530 84.743353913125745 $525 $568 forward 7 unknown #
vertex $-1 $443 $569 #
straight-curve $-1 42.209455036896365 -13.121350710093372 8.6123605166749684 1 0 0 I I #
edge $-1 $530 -8.577597464549461 $440 -0.50990902653836123 $439 $570 forward 7 unknown #
vertex $-1 $529 $571 #
straight-curve $-1 -12.334758073152187 -13.121350710093372 96.929744889128841 -0.60181501223851219 0 0.79863551827123203 I I #
point $-1 54.217162723000911 -13.121350710093372 8.6123605166749684 #
point $-1 60.574358348338265 -5.0536622720822724 0.17607674218389491 #
straight-curve $-1 60.574358348338265 0 8.6123605166749684 0 1 0 I I #
vertex $-1 $446 $572 #
point $-1 56.602056986662674 -11.507813022491153 3.1700522998681775 #
vertex $-1 $450 $573 #
point $-1 56.602056986662674 -9.0875064910878223 3.1700522998681775 #
vertex $-1 $454 $574 #
point $-1 56.602056986662674 -6.667199959684492 3.1700522998681775 #
straight-curve $-1 0 -35.190694464521229 8.6123605166749684 1 0 0 I I #
point $-1 60.574358348338265 -35.190694464521229 8.6123605166749684 #
point $-1 -60.574358348338265 -35.190694464521229 8.6123605166749684 #
straight-curve $-1 -60.574358348338265 0 8.6123605166749684 0 -1 0 I I #
edge $-1 $547 -8.6123605166749684 $483 8.6123605166749684 $475 $575 forward 7 unknown #
straight-curve $-1 -45.173695689257336 -43.191571339274944 -8.6123605166749684 -1 0 0 I I #
vertex $-1 $489 $576 #
straight-curve $-1 -45.173695689257336 -43.191571339274944 8.6123605166749684 1 0 0 I I #
point $-1 -46.997754063526344 -43.191571339274944 8.6123605166749684 #
point $-1 -46.997754063526344 -43.191571339274944 -8.6123605166749684 #
point $-1 -43.349637314988328 -43.191571339274944 -8.6123605166749684 #
straight-curve $-1 -43.349637314988328 -39.191132901898087 8.6123605166749684 0 1 0 I I #
edge $-1 $508 -1.8240583742690077 $497 1.8240583742690077 $494 $577 forward 7 unknown #
straight-curve $-1 -43.349637314988328 43.191571339274944 0 0 0 -1 I I #
straight-curve $-1 -46.997754063526344 39.191132901898087 8.6123605166749684 0 -1 0 I I #
point $-1 -46.997754063526344 43.191571339274944 8.6123605166749684 #
point $-1 -46.997754063526344 43.191571339274944 -8.6123605166749684 #
straight-curve $-1 -45.173695689257336 43.191571339274944 -8.6123605166749684 1 0 0 I I #
point $-1 -43.349637314988328 43.191571339274944 -8.6123605166749684 #
point $-1 -43.349637314988328 43.191571339274944 8.6123605166749684 #
straight-curve $-1 -60.574358348338265 7.7911360520513675 43.068744938964095 0 0 -1 I I #
point $-1 -60.574358348338265 7.7911360520513675 8.6123605166749684 #
straight-curve $-1 -60.574358348338265 1.1633434389189787 1.9805207878143558 0 -1 0 I I #
point $-1 -60.574358348338265 7.7911360520513675 1.9805207878143567 #
point $-1 -54.900788827326579 -0.95198262669008216 2.9098152544146689 #
point $-1 -54.900788827326579 2.3266868778379646 2.9098152544146689 #
point $-1 -54.900788827326579 5.6053563823660113 2.9098152544146689 #
straight-curve $-1 60.574358348338265 -13.121350710093372 84.91943065530964 0 0 -1 I I #
point $-1 60.574358348338265 -13.121350710093372 8.6123605166749684 #
straight-curve $-1 60.574358348338265 -4.5437532455439111 0.1760767421838878 0 1 0 I I #
point $-1 60.574358348338265 -13.121350710093372 0.17607674218389491 #
point $-1 55.901831721407802 -11.507813022491153 3.2684625528845372 #
point $-1 55.901831721407802 -9.0875064910878223 3.2684625528845372 #
point $-1 55.901831721407802 -6.667199959684492 3.2684625528845372 #
straight-curve $-1 -43.349637314988328 -43.191571339274944 0 0 0 -1 I I #
point $-1 -43.349637314988328 -43.191571339274944 8.6123605166749684 #
straight-curve $-1 -45.173695689257336 43.191571339274944 8.6123605166749684 -1 0 0 I I #
End-of-ACIS-data 