500 0 6 0           
7 Unknown 11 ACIS 5.0 NT 24 Thu Mar 25 23:24:52 1999 
-1 9.9999999999999995e-007 1e-010 
body $-1 $6 $-1 $7 #
body $-1 $8 $-1 $9 #
body $-1 $10 $-1 $11 #
body $-1 $12 $-1 $13 #
body $-1 $14 $-1 $15 #
body $-1 $16 $-1 $17 #
lump $-1 $-1 $18 $0 #
transform $-1 1 0 0 0 1 0 0 0 1 53.431806390575886 23.329024266083987 8.7067162282896717 1 rotate no_reflect no_shear #
lump $-1 $-1 $19 $1 #
transform $-1 1 0 0 0 1 0 0 0 1 53.431806390575886 23.329024266083987 8.7067162282896717 1 rotate no_reflect no_shear #
lump $-1 $-1 $20 $2 #
transform $-1 1 0 0 0 1 0 0 0 1 53.431806390575886 23.329024266083987 8.7067162282896717 1 rotate no_reflect no_shear #
lump $-1 $-1 $21 $3 #
transform $-1 1 0 0 0 1 0 0 0 1 53.431806390575886 23.329024266083987 8.7067162282896717 1 rotate no_reflect no_shear #
lump $-1 $-1 $22 $4 #
transform $-1 1 0 0 0 1 0 0 0 1 53.431806390575886 23.329024266083987 8.7067162282896717 1 rotate no_reflect no_shear #
lump $-1 $-1 $23 $5 #
transform $-1 1 0 0 0 1 0 0 0 1 53.431806390575886 23.329024266083987 8.7067162282896717 1 rotate no_reflect no_shear #
shell $-1 $-1 $-1 $24 $-1 $6 #
shell $-1 $-1 $-1 $25 $-1 $8 #
shell $-1 $-1 $-1 $26 $-1 $10 #
shell $-1 $-1 $-1 $27 $-1 $12 #
shell $-1 $-1 $-1 $28 $-1 $14 #
shell $-1 $-1 $-1 $29 $-1 $16 #
face $-1 $30 $31 $18 $-1 $32 forward single #
face $-1 $33 $34 $19 $-1 $35 reversed single #
face $-1 $36 $37 $20 $-1 $38 reversed single #
face $-1 $39 $40 $21 $-1 $41 forward single #
face $-1 $42 $43 $22 $-1 $44 reversed single #
face $-1 $45 $46 $23 $-1 $47 forward single #
face $-1 $48 $49 $18 $-1 $50 reversed single #
loop $-1 $-1 $51 $24 #
plane-surface $-1 0 0 8.7067162282896717 0 0 1 1 0 0 forward_v I I I I #
face $-1 $52 $53 $19 $-1 $54 reversed single #
loop $-1 $-1 $55 $25 #
plane-surface $-1 0 -20.211426246808447 5.619362004329659 0 0 1 1 0 0 forward_v I I I I #
face $-1 $56 $57 $20 $-1 $58 reversed single #
loop $-1 $-1 $59 $26 #
plane-surface $-1 -119.22361671911167 -6.0007029863390109 89.820255043236898 0 1 0 -0.61566148304635926 0 0.78801074757464917 forward_v I I I I #
face $-1 $60 $61 $21 $-1 $62 forward single #
loop $-1 $63 $64 $27 #
cone-surface $-1 -50.85097922820907 -1.1193785102088221 6.3914635491494742 0.61566148304635926 0 -0.78801074757464917 0.78801074757464917 0 0.61566148304635926 1 I I 0 1 1 forward I I I I #
face $-1 $65 $66 $22 $-1 $67 reversed single #
loop $-1 $-1 $68 $28 #
plane-surface $-1 -20.801895813617548 18.983124193611186 79.258816690232052 0.71933980857756763 0 0.69465836192734942 0.69465836192734942 0 -0.71933980857756763 forward_v I I I I #
face $-1 $69 $70 $23 $-1 $71 forward single #
loop $-1 $72 $73 $29 #
cone-surface $-1 47.519153121438123 18.983124193611186 2.7838351856311125 -0.71933980857756763 0 -0.69465836192734942 1.3893167238546988 0 -1.4386796171551353 1 I I 0 1 2 forward I I I I #
face $-1 $74 $75 $18 $-1 $76 reversed single #
loop $-1 $-1 $77 $30 #
plane-surface $-1 0 0 -8.7067162282896717 0 0 1 1 0 0 forward_v I I I I #
coedge $-1 $78 $79 $80 $81 forward $31 $-1 #
face $-1 $82 $83 $19 $-1 $84 reversed single #
loop $-1 $-1 $85 $33 #
plane-surface $-1 0 -17.093828227532907 7.1630391163096654 0 -1 0 0 0 -1 forward_v I I I I #
coedge $-1 $86 $87 $88 $89 reversed $34 $-1 #
face $-1 $90 $91 $20 $-1 $92 reversed single #
loop $-1 $-1 $93 $36 #
plane-surface $-1 -53.4318063905759 -1.1193785102088221 5.61057964703366 -0.61566148304635926 0 0.78801074757464917 0.78801074757464917 0 0.61566148304635926 forward_v I I I I #
coedge $-1 $94 $95 $96 $97 reversed $37 $-1 #
face $-1 $-1 $98 $21 $-1 $99 forward single #
loop $-1 $100 $101 $39 #
cone-surface $-1 -49.943758338956101 -1.1193785102088221 5.2302737868499616 0.61566148304635926 0 -0.78801074757464917 0.39400537378732459 0 0.30783074152317963 1 I I -0.70710678118654746 0.70710678118654746 0.5 forward I I I I #
loop $-1 $-1 $102 $27 #
coedge $-1 $64 $64 $103 $104 reversed $40 $-1 #
face $-1 $105 $106 $22 $-1 $107 reversed single #
loop $-1 $-1 $108 $42 #
plane-surface $-1 56.069354948283475 14.637224121138384 153.4925188944255 0 1 0 0.71933980857756763 0 0.69465836192734942 forward_v I I I I #
coedge $-1 $109 $110 $111 $112 reversed $43 $-1 #
face $-1 $-1 $113 $23 $-1 $114 forward single #
loop $-1 $115 $116 $45 #
cone-surface $-1 43.938326226797045 18.983124193611186 -0.67412906897546776 -0.71933980857756763 0 -0.69465836192734942 0.69465836192734942 0 -0.71933980857756763 1 I I -0.70710678118654746 0.70710678118654746 1 forward I I I I #
loop $-1 $-1 $117 $29 #
coedge $-1 $73 $73 $118 $119 reversed $46 $-1 #
face $-1 $120 $121 $18 $-1 $122 reversed single #
loop $-1 $-1 $123 $48 #
plane-surface $-1 0 -23.329024266083987 0 0 1 0 0 0 1 forward_v I I I I #
coedge $-1 $124 $125 $126 $127 forward $49 $-1 #
coedge $-1 $128 $51 $129 $130 forward $31 $-1 #
coedge $-1 $51 $128 $131 $132 forward $31 $-1 #
coedge $-1 $133 $134 $51 $81 reversed $135 $-1 #
edge $-1 $136 -23.329024266083987 $137 23.329024266083987 $80 $138 forward 7 unknown #
face $-1 $139 $140 $19 $-1 $141 reversed single #
loop $-1 $-1 $142 $52 #
plane-surface $-1 -53.431806390575886 0 0 1 0 0 0 0 -1 forward_v I I I I #
coedge $-1 $143 $144 $145 $146 reversed $53 $-1 #
coedge $-1 $147 $55 $148 $149 reversed $34 $-1 #
coedge $-1 $55 $147 $143 $150 forward $34 $-1 #
coedge $-1 $145 $151 $55 $89 forward $152 $-1 #
edge $-1 $153 -13.223311142679764 $154 -6.9881151041286831 $88 $155 forward 7 unknown #
face $-1 $156 $157 $20 $-1 $158 forward single #
loop $-1 $-1 $159 $56 #
plane-surface $-1 -119.22361671911167 3.7619459659213668 89.820255043236898 0 -1 0 0.61566148304635926 0 -0.78801074757464917 forward_v I I I I #
coedge $-1 $160 $161 $162 $163 reversed $57 $-1 #
coedge $-1 $95 $59 $164 $165 reversed $37 $-1 #
coedge $-1 $59 $94 $160 $166 reversed $37 $-1 #
coedge $-1 $162 $167 $59 $97 forward $157 $-1 #
edge $-1 $168 6.1800019689799512 $169 10.142875998253999 $96 $170 forward 7 unknown #
loop $-1 $-1 $103 $60 #
plane-surface $-1 -53.4318063905759 -1.1193785102088221 5.61057964703366 -0.61566148304635926 0 0.78801074757464917 0.78801074757464917 0 0.61566148304635926 forward_v I I I I #
loop $-1 $-1 $171 $39 #
coedge $-1 $101 $101 $102 $172 reversed $61 $-1 #
coedge $-1 $102 $102 $101 $172 forward $63 $-1 #
coedge $-1 $103 $103 $64 $104 forward $98 $-1 #
edge $-1 $173 0 $173 6.2831853071796004 $103 $174 forward 7 unknown #
face $-1 $175 $176 $22 $-1 $177 forward single #
loop $-1 $-1 $178 $65 #
plane-surface $-1 0 23.329024266083987 0 0 -1 0 0 0 -1 forward_v I I I I #
coedge $-1 $179 $180 $181 $182 reversed $66 $-1 #
coedge $-1 $183 $68 $178 $184 reversed $43 $-1 #
coedge $-1 $68 $183 $179 $185 forward $43 $-1 #
coedge $-1 $181 $186 $68 $112 forward $176 $-1 #
edge $-1 $187 -13.837462169278394 $188 -5.1456620243327915 $111 $189 forward 7 unknown #
loop $-1 $-1 $118 $69 #
plane-surface $-1 -20.801895813617548 18.983124193611186 79.258816690232052 0.71933980857756763 0 0.69465836192734942 0.69465836192734942 0 -0.71933980857756763 forward_v I I I I #
loop $-1 $-1 $190 $45 #
coedge $-1 $116 $116 $117 $191 reversed $70 $-1 #
coedge $-1 $117 $117 $116 $191 forward $72 $-1 #
coedge $-1 $118 $118 $73 $119 forward $113 $-1 #
edge $-1 $192 0 $192 6.2831853071796004 $118 $193 forward 7 unknown #
face $-1 $194 $195 $18 $-1 $196 reversed single #
loop $-1 $-1 $197 $74 #
plane-surface $-1 -53.431806390575886 0 0 1 0 0 0 0 -1 forward_v I I I I #
coedge $-1 $198 $131 $199 $200 forward $75 $-1 #
coedge $-1 $201 $77 $198 $202 forward $49 $-1 #
coedge $-1 $77 $201 $203 $204 forward $49 $-1 #
coedge $-1 $134 $133 $77 $127 reversed $135 $-1 #
edge $-1 $205 -23.329024266083987 $206 23.329024266083987 $126 $207 forward 7 unknown #
coedge $-1 $79 $78 $208 $209 forward $31 $-1 #
coedge $-1 $210 $211 $78 $130 reversed $195 $-1 #
edge $-1 $137 -53.431806390575886 $212 53.431806390575886 $129 $213 forward 7 unknown #
coedge $-1 $123 $214 $79 $132 reversed $75 $-1 #
edge $-1 $215 -53.431806390575886 $136 53.431806390575886 $131 $216 forward 7 unknown #
coedge $-1 $126 $80 $214 $217 forward $135 $-1 #
coedge $-1 $80 $126 $210 $218 reversed $135 $-1 #
loop $-1 $-1 $133 $194 #
vertex $-1 $81 $219 #
vertex $-1 $81 $220 #
straight-curve $-1 53.431806390575886 0 8.7067162282896717 0 1 0 I I #
face $-1 $221 $222 $19 $-1 $223 forward single #
loop $-1 $-1 $148 $82 #
plane-surface $-1 0 -23.329024266083987 0 0 1 0 0 0 1 forward_v I I I I #
coedge $-1 $224 $225 $226 $227 forward $83 $-1 #
coedge $-1 $226 $85 $87 $150 reversed $53 $-1 #
coedge $-1 $85 $226 $228 $229 reversed $53 $-1 #
coedge $-1 $230 $88 $85 $146 forward $152 $-1 #
edge $-1 $154 2.0378424461748263 $231 5.125196670134839 $145 $232 forward 7 unknown #
coedge $-1 $87 $86 $224 $233 reversed $34 $-1 #
coedge $-1 $234 $235 $86 $149 forward $140 $-1 #
edge $-1 $236 -53.431806390575886 $153 53.431806390575886 $148 $237 forward 7 unknown #
edge $-1 $238 -53.431806390575886 $154 53.431806390575886 $143 $239 forward 7 unknown #
coedge $-1 $88 $230 $234 $240 forward $152 $-1 #
loop $-1 $-1 $145 $221 #
vertex $-1 $149 $241 #
vertex $-1 $89 $242 #
straight-curve $-1 53.431806390575886 -10.105713123404223 5.619362004329659 0 1 0 I I #
face $-1 $-1 $243 $20 $-1 $244 reversed single #
loop $-1 $-1 $96 $90 #
plane-surface $-1 0 0 8.7067162282896717 0 0 1 1 0 0 forward_v I I I I #
coedge $-1 $245 $246 $247 $248 reversed $91 $-1 #
coedge $-1 $249 $93 $95 $166 forward $57 $-1 #
coedge $-1 $93 $249 $245 $250 forward $57 $-1 #
coedge $-1 $247 $96 $93 $163 forward $157 $-1 #
edge $-1 $169 -5.4410137312345999 $251 4.3216352210257778 $162 $252 forward 7 unknown #
coedge $-1 $253 $254 $94 $165 forward $243 $-1 #
edge $-1 $255 -39.299547874584775 $168 -36.203411293328777 $164 $256 forward 7 unknown #
edge $-1 $169 -5.0289593656825762 $255 -1.830693040787162e-014 $95 $257 forward 7 unknown #
coedge $-1 $96 $247 $253 $258 forward $157 $-1 #
vertex $-1 $165 $259 #
vertex $-1 $97 $260 #
straight-curve $-1 -59.611808359555837 -6.0007029863390109 8.7067162282896717 1 0 0 I I #
coedge $-1 $171 $171 $-1 $261 reversed $100 $-1 #
edge $-1 $262 0 $262 6.2831853071796004 $101 $263 forward 7 unknown #
vertex $-1 $104 $264 #
ellipse-curve $-1 -51.450369375938863 -1.1193785102088221 7.1586479376616721 -0.61566148304635926 0 0.78801074757464917 0.78801074757464917 0 0.61566148304635926 1 I I #
face $-1 $-1 $265 $22 $-1 $266 reversed single #
loop $-1 $-1 $111 $105 #
plane-surface $-1 0 0 8.7067162282896717 0 0 1 1 0 0 forward_v I I I I #
coedge $-1 $267 $268 $109 $184 forward $106 $-1 #
coedge $-1 $180 $108 $110 $185 reversed $66 $-1 #
coedge $-1 $108 $179 $269 $270 reversed $66 $-1 #
coedge $-1 $271 $111 $108 $182 forward $176 $-1 #
edge $-1 $188 19.294796550285632 $272 25.397128916434148 $181 $273 forward 7 unknown #
coedge $-1 $110 $109 $274 $275 reversed $43 $-1 #
edge $-1 $276 -71.131496332698248 $187 -62.346843760148161 $178 $277 forward 7 unknown #
edge $-1 $278 -106.86361278115174 $188 -98.078960208601671 $179 $279 forward 7 unknown #
coedge $-1 $111 $271 $267 $280 forward $176 $-1 #
vertex $-1 $112 $281 #
vertex $-1 $112 $282 #
straight-curve $-1 47.329474024427341 9.4915620968055929 8.7067162282896788 0 -1 0 I I #
coedge $-1 $190 $190 $-1 $283 reversed $115 $-1 #
edge $-1 $284 0 $284 6.2831853071796004 $116 $285 forward 7 unknown #
vertex $-1 $119 $286 #
ellipse-curve $-1 50.380640207501635 18.983124193611186 5.5471410783103439 0.71933980857756763 0 0.69465836192734942 1.3893167238546988 0 -1.4386796171551353 1 I I #
face $-1 $-1 $135 $18 $-1 $287 reversed single #
loop $-1 $-1 $210 $120 #
plane-surface $-1 0 23.329024266083987 0 0 -1 0 0 0 -1 forward_v I I I I #
coedge $-1 $288 $208 $211 $289 forward $121 $-1 #
coedge $-1 $214 $123 $124 $202 reversed $75 $-1 #
coedge $-1 $208 $288 $123 $200 reversed $121 $-1 #
edge $-1 $215 -8.7067162282896717 $290 8.7067162282896717 $199 $291 forward 7 unknown #
coedge $-1 $125 $124 $288 $292 forward $49 $-1 #
edge $-1 $206 -53.431806390575886 $290 53.431806390575886 $198 $293 forward 7 unknown #
coedge $-1 $211 $210 $125 $204 reversed $195 $-1 #
edge $-1 $294 -53.431806390575886 $205 53.431806390575886 $203 $295 forward 7 unknown #
vertex $-1 $127 $296 #
vertex $-1 $217 $297 #
straight-curve $-1 53.431806390575886 0 -8.7067162282896717 0 -1 0 I I #
coedge $-1 $197 $199 $128 $209 reversed $121 $-1 #
edge $-1 $212 -23.329024266083987 $215 23.329024266083987 $208 $298 forward 7 unknown #
coedge $-1 $203 $129 $134 $218 forward $195 $-1 #
coedge $-1 $129 $203 $197 $289 reversed $195 $-1 #
vertex $-1 $130 $299 #
straight-curve $-1 0 23.329024266083987 8.7067162282896717 -1 0 0 I I #
coedge $-1 $131 $198 $133 $217 reversed $75 $-1 #
vertex $-1 $209 $300 #
straight-curve $-1 0 -23.329024266083987 8.7067162282896717 1 0 0 I I #
edge $-1 $136 -8.7067162282896717 $206 8.7067162282896717 $133 $301 forward 7 unknown #
edge $-1 $137 -8.7067162282896717 $205 8.7067162282896717 $134 $302 forward 7 unknown #
point $-1 53.431806390575886 -23.329024266083987 8.7067162282896717 #
point $-1 53.431806390575886 23.329024266083987 8.7067162282896717 #
face $-1 $-1 $152 $19 $-1 $303 reversed single #
loop $-1 $-1 $228 $139 #
plane-surface $-1 0 0 8.7067162282896717 0 0 1 1 0 0 forward_v I I I I #
coedge $-1 $304 $142 $147 $233 forward $83 $-1 #
coedge $-1 $142 $304 $305 $306 reversed $83 $-1 #
coedge $-1 $144 $143 $142 $227 reversed $53 $-1 #
edge $-1 $307 -5.125196670134839 $238 -2.0378424461748263 $142 $308 forward 7 unknown #
coedge $-1 $305 $309 $144 $229 forward $222 $-1 #
edge $-1 $231 -53.431806390575886 $307 53.431806390575886 $228 $310 forward 7 unknown #
coedge $-1 $151 $145 $309 $311 reversed $152 $-1 #
vertex $-1 $146 $312 #
straight-curve $-1 53.431806390575886 -17.093828227532907 3.5815195581548327 0 0 1 I I #
edge $-1 $238 6.9881151041286831 $236 13.223311142679764 $224 $313 forward 7 unknown #
coedge $-1 $314 $148 $151 $240 reversed $140 $-1 #
coedge $-1 $148 $314 $304 $315 forward $140 $-1 #
vertex $-1 $149 $316 #
straight-curve $-1 0 -23.329024266083987 5.619362004329659 1 0 0 I I #
vertex $-1 $233 $317 #
straight-curve $-1 0 -17.093828227532907 5.619362004329659 1 0 0 I I #
edge $-1 $318 -8.7067162282896717 $153 -5.619362004329659 $151 $319 forward 7 unknown #
point $-1 53.431806390575886 -23.329024266083987 5.619362004329659 #
point $-1 53.431806390575886 -17.093828227532907 5.619362004329659 #
loop $-1 $-1 $164 $156 #
plane-surface $-1 -53.431806390575886 0 0 1 0 0 0 0 -1 forward_v I I I I #
coedge $-1 $246 $159 $161 $250 reversed $91 $-1 #
coedge $-1 $159 $245 $320 $321 reversed $91 $-1 #
coedge $-1 $167 $162 $159 $248 forward $157 $-1 #
edge $-1 $251 -10.142875998253999 $322 -6.1800019689799512 $247 $323 forward 7 unknown #
coedge $-1 $161 $160 $254 $324 reversed $57 $-1 #
edge $-1 $325 1.830693040787162e-014 $251 5.0289593656825762 $245 $326 forward 7 unknown #
vertex $-1 $163 $327 #
straight-curve $-1 -49.468932361301839 -0.55968925510441103 8.7067162282896717 0 1 0 I I #
coedge $-1 $320 $164 $167 $258 reversed $243 $-1 #
coedge $-1 $164 $320 $249 $324 forward $243 $-1 #
vertex $-1 $165 $328 #
straight-curve $-1 -53.431806390575886 -6.0007029863390109 44.910127521618449 0 0 1 I I #
straight-curve $-1 -53.4318063905759 -6.0007029863390109 5.61057964703366 -0.78801074757464917 0 -0.61566148304635926 I I #
edge $-1 $322 -3.7619459659213668 $168 6.0007029863390109 $253 $329 forward 7 unknown #
point $-1 -53.431806390575886 -6.0007029863390109 8.7067162282896717 #
point $-1 -49.468932361301839 -6.0007029863390109 8.7067162282896717 #
edge $-1 $330 1 $330 0 $171 $-1 forward 7 unknown #
vertex $-1 $172 $331 #
ellipse-curve $-1 -50.251589080479278 -1.1193785102088221 5.6242791606372862 -0.61566148304635926 0 0.78801074757464917 0.78801074757464917 0 0.61566148304635926 1 I I #
point $-1 -50.662358628364203 -1.1193785102088221 7.7743094207080219 #
loop $-1 $-1 $274 $175 #
plane-surface $-1 53.431806390575886 0 0 -1 0 0 0 0 1 forward_v I I I I #
coedge $-1 $268 $178 $186 $280 reversed $106 $-1 #
coedge $-1 $178 $267 $332 $333 forward $106 $-1 #
coedge $-1 $274 $334 $180 $270 forward $265 $-1 #
edge $-1 $272 68.039543218923086 $278 74.358693518881708 $269 $335 forward 7 unknown #
coedge $-1 $186 $181 $334 $336 forward $176 $-1 #
vertex $-1 $336 $337 #
straight-curve $-1 28.034677474141738 14.637224121138384 8.7067162282896646 1 0 0 I I #
coedge $-1 $332 $269 $183 $275 forward $265 $-1 #
edge $-1 $278 5.1456620243327915 $276 13.837462169278394 $274 $338 forward 7 unknown #
vertex $-1 $275 $339 #
straight-curve $-1 4.0197176666624568 23.329024266083987 53.55528288413015 -0.69465836192734942 0 0.71933980857756763 I I #
vertex $-1 $275 $340 #
straight-curve $-1 -20.801895813617548 14.637224121138384 79.258816690232052 -0.69465836192734942 0 0.71933980857756763 I I #
edge $-1 $341 -53.431806390575886 $187 -47.32947402442737 $267 $342 forward 7 unknown #
point $-1 47.32947402442737 23.329024266083987 8.7067162282896646 #
point $-1 47.32947402442737 14.637224121138384 8.7067162282896646 #
edge $-1 $343 1 $343 0 $190 $-1 forward 7 unknown #
vertex $-1 $191 $344 #
ellipse-curve $-1 44.657666035374611 18.983124193611186 0.020529292951881661 0.71933980857756763 0 0.69465836192734942 1.3893167238546988 0 -1.4386796171551353 1 I I #
point $-1 51.769956931356333 18.983124193611186 4.1084614611552075 #
plane-surface $-1 53.431806390575886 0 0 -1 0 0 0 0 1 forward_v I I I I #
coedge $-1 $199 $197 $201 $292 reversed $121 $-1 #
edge $-1 $212 -8.7067162282896717 $294 8.7067162282896717 $211 $345 forward 7 unknown #
vertex $-1 $292 $346 #
straight-curve $-1 -53.431806390575886 -23.329024266083987 0 0 0 -1 I I #
edge $-1 $290 -23.329024266083987 $294 23.329024266083987 $288 $347 forward 7 unknown #
straight-curve $-1 0 -23.329024266083987 -8.7067162282896717 -1 0 0 I I #
vertex $-1 $204 $348 #
straight-curve $-1 0 23.329024266083987 -8.7067162282896717 1 0 0 I I #
point $-1 53.431806390575886 23.329024266083987 -8.7067162282896717 #
point $-1 53.431806390575886 -23.329024266083987 -8.7067162282896717 #
straight-curve $-1 -53.431806390575886 0 8.7067162282896717 0 -1 0 I I #
point $-1 -53.431806390575886 23.329024266083987 8.7067162282896717 #
point $-1 -53.431806390575886 -23.329024266083987 8.7067162282896717 #
straight-curve $-1 53.431806390575886 -23.329024266083987 0 0 0 -1 I I #
straight-curve $-1 53.431806390575886 23.329024266083987 0 0 0 -1 I I #
plane-surface $-1 53.431806390575886 0 0 -1 0 0 0 0 1 forward_v I I I I #
coedge $-1 $225 $224 $235 $315 reversed $83 $-1 #
coedge $-1 $349 $228 $225 $306 forward $222 $-1 #
edge $-1 $307 17.093828227532907 $350 23.329024266083987 $225 $351 forward 7 unknown #
vertex $-1 $306 $352 #
straight-curve $-1 -53.431806390575886 -17.093828227532907 3.5815195581548327 0 0 -1 I I #
coedge $-1 $228 $349 $230 $311 forward $222 $-1 #
straight-curve $-1 0 -17.093828227532907 8.7067162282896717 -1 0 0 I I #
edge $-1 $318 -23.329024266083987 $231 -17.093828227532907 $230 $353 forward 7 unknown #
point $-1 53.431806390575886 -17.093828227532907 8.7067162282896717 #
straight-curve $-1 -53.431806390575886 -10.105713123404223 5.619362004329659 0 -1 0 I I #
coedge $-1 $235 $234 $349 $354 reversed $140 $-1 #
edge $-1 $350 -8.7067162282896717 $236 -5.619362004329659 $304 $355 forward 7 unknown #
point $-1 -53.431806390575886 -23.329024266083987 5.619362004329659 #
point $-1 -53.431806390575886 -17.093828227532907 5.619362004329659 #
vertex $-1 $311 $356 #
straight-curve $-1 53.431806390575886 -23.329024266083987 0 0 0 -1 I I #
coedge $-1 $254 $253 $246 $321 forward $243 $-1 #
edge $-1 $322 36.203411293328777 $325 39.299547874584775 $320 $357 forward 7 unknown #
vertex $-1 $258 $358 #
straight-curve $-1 -59.611808359555837 3.7619459659213668 8.7067162282896717 -1 0 0 I I #
edge $-1 $325 -4.3216352210257778 $255 5.4410137312345999 $254 $359 forward 7 unknown #
vertex $-1 $324 $360 #
straight-curve $-1 -53.4318063905759 3.7619459659213668 5.61057964703366 0.78801074757464917 0 0.61566148304635926 I I #
point $-1 -49.468932361301839 3.7619459659213668 8.7067162282896717 #
point $-1 -53.431806390575886 -6.0007029863390109 5.6105796470336715 #
straight-curve $-1 -53.431806390575886 0 8.7067162282896717 0 -1 0 I I #
vertex $-1 $261 $361 #
point $-1 -49.463578332904632 -1.1193785102088221 6.2399406436836458 #
coedge $-1 $334 $274 $268 $333 reversed $265 $-1 #
edge $-1 $341 -8.7067162282896717 $276 -2.3875659283310426 $332 $362 forward 7 unknown #
coedge $-1 $269 $332 $271 $336 reversed $265 $-1 #
straight-curve $-1 53.431806390575886 14.637224121138384 76.746259447212751 0 0 -1 I I #
edge $-1 $272 14.637224121138384 $341 23.329024266083987 $334 $363 forward 7 unknown #
point $-1 53.431806390575886 14.637224121138384 8.7067162282896717 #
straight-curve $-1 53.431806390575879 9.4915620968055929 2.3875659283310497 0 1 0 I I #
point $-1 53.431806390575886 23.329024266083987 2.3875659283310426 #
point $-1 53.431806390575886 14.637224121138384 2.3875659283310426 #
vertex $-1 $336 $364 #
straight-curve $-1 0 23.329024266083987 8.7067162282896717 -1 0 0 I I #
vertex $-1 $283 $365 #
point $-1 46.046982759229309 18.983124193611186 -1.4181503242032536 #
straight-curve $-1 -53.431806390575886 23.329024266083987 0 0 0 -1 I I #
point $-1 -53.431806390575886 -23.329024266083987 -8.7067162282896717 #
straight-curve $-1 -53.431806390575886 0 -8.7067162282896717 0 1 0 I I #
point $-1 -53.431806390575886 23.329024266083987 -8.7067162282896717 #
coedge $-1 $309 $305 $314 $354 forward $222 $-1 #
vertex $-1 $306 $366 #
straight-curve $-1 -53.431806390575886 0 8.7067162282896717 0 -1 0 I I #
point $-1 -53.431806390575886 -17.093828227532907 8.7067162282896717 #
straight-curve $-1 53.431806390575886 0 8.7067162282896717 0 1 0 I I #
edge $-1 $350 -53.431806390575886 $318 53.431806390575886 $314 $367 forward 7 unknown #
straight-curve $-1 -53.431806390575886 -23.329024266083987 0 0 0 -1 I I #
point $-1 53.431806390575886 -23.329024266083987 8.7067162282896717 #
straight-curve $-1 -53.431806390575886 3.7619459659213668 44.910127521618449 0 0 -1 I I #
point $-1 -53.431806390575886 3.7619459659213668 8.7067162282896717 #
straight-curve $-1 -53.431806390575886 -0.55968925510441103 5.6105796470336724 0 -1 0 I I #
point $-1 -53.431806390575886 3.7619459659213668 5.6105796470336715 #
point $-1 -49.635927597432925 -1.1193785102088221 4.836268413062637 #
straight-curve $-1 53.431806390575886 23.329024266083987 0 0 0 -1 I I #
straight-curve $-1 53.431806390575886 0 8.7067162282896717 0 1 0 I I #
point $-1 53.431806390575886 23.329024266083987 8.7067162282896717 #
point $-1 43.21898641821948 18.983124193611186 -1.3687874309028172 #
point $-1 -53.431806390575886 -23.329024266083987 8.7067162282896717 #
straight-curve $-1 0 -23.329024266083987 8.7067162282896717 1 0 0 I I #
End-of-ACIS-data 