500 0 9 0           
7 Unknown 11 ACIS 5.0 NT 24 Thu Mar 25 18:12:45 1999 
-1 9.9999999999999995e-007 1e-010 
body $-1 $9 $-1 $10 #
body $-1 $11 $-1 $12 #
body $-1 $13 $-1 $14 #
body $-1 $15 $-1 $16 #
body $-1 $17 $-1 $18 #
body $-1 $19 $-1 $20 #
body $-1 $21 $-1 $22 #
body $-1 $23 $-1 $24 #
body $-1 $25 $-1 $26 #
lump $-1 $-1 $27 $0 #
transform $-1 1 0 0 0 1 0 0 0 1 76.127811517685473 33.924933737639797 13.018138121595976 1 rotate no_reflect no_shear #
lump $-1 $-1 $28 $1 #
transform $-1 1 0 0 0 1 0 0 0 1 76.127811517685473 33.924933737639797 13.018138121595976 1 rotate no_reflect no_shear #
lump $-1 $-1 $29 $2 #
transform $-1 1 0 0 0 1 0 0 0 1 76.127811517685473 33.924933737639797 13.018138121595976 1 rotate no_reflect no_shear #
lump $-1 $-1 $30 $3 #
transform $-1 1 0 0 0 1 0 0 0 1 76.127811517685473 33.924933737639797 13.018138121595976 1 rotate no_reflect no_shear #
lump $-1 $-1 $31 $4 #
transform $-1 1 0 0 0 1 0 0 0 1 76.127811517685473 33.924933737639797 13.018138121595976 1 rotate no_reflect no_shear #
lump $-1 $-1 $32 $5 #
transform $-1 1 0 0 0 1 0 0 0 1 76.127811517685473 33.924933737639797 13.018138121595976 1 rotate no_reflect no_shear #
lump $-1 $-1 $33 $6 #
transform $-1 1 0 0 0 1 0 0 0 1 76.127811517685473 33.924933737639797 13.018138121595976 1 rotate no_reflect no_shear #
lump $-1 $-1 $34 $7 #
transform $-1 1 0 0 0 1 0 0 0 1 76.127811517685473 33.924933737639797 13.018138121595976 1 rotate no_reflect no_shear #
lump $-1 $-1 $35 $8 #
transform $-1 1 0 0 0 1 0 0 0 1 76.127811517685473 33.924933737639797 13.018138121595976 1 rotate no_reflect no_shear #
shell $-1 $-1 $-1 $36 $-1 $9 #
shell $-1 $-1 $-1 $37 $-1 $11 #
shell $-1 $-1 $-1 $38 $-1 $13 #
shell $-1 $-1 $-1 $39 $-1 $15 #
shell $-1 $-1 $-1 $40 $-1 $17 #
shell $-1 $-1 $-1 $41 $-1 $19 #
shell $-1 $-1 $-1 $42 $-1 $21 #
shell $-1 $-1 $-1 $43 $-1 $23 #
shell $-1 $-1 $-1 $44 $-1 $25 #
face $-1 $45 $46 $27 $-1 $47 reversed single #
face $-1 $48 $49 $28 $-1 $50 forward single #
face $-1 $51 $52 $29 $-1 $53 forward single #
face $-1 $54 $55 $30 $-1 $56 reversed single #
face $-1 $57 $58 $31 $-1 $59 forward single #
face $-1 $60 $61 $32 $-1 $62 forward single #
face $-1 $63 $64 $33 $-1 $65 reversed single #
face $-1 $66 $67 $34 $-1 $68 forward single #
face $-1 $69 $70 $35 $-1 $71 forward single #
face $-1 $72 $73 $27 $-1 $74 reversed single #
loop $-1 $-1 $75 $36 #
plane-surface $-1 0 33.924933737639797 0 0 -1 0 0 0 -1 forward_v I I I I #
face $-1 $76 $77 $28 $-1 $78 reversed single #
loop $-1 $-1 $79 $37 #
plane-surface $-1 0 -33.924933737639797 0 0 1 0 0 0 1 forward_v I I I I #
face $-1 $80 $81 $29 $-1 $82 reversed single #
loop $-1 $-1 $83 $38 #
plane-surface $-1 0 33.924933737639797 0 0 -1 0 0 0 -1 forward_v I I I I #
face $-1 $84 $85 $30 $-1 $86 reversed single #
loop $-1 $-1 $87 $39 #
plane-surface $-1 -167.75753397976462 -24.734065451313924 124.97026647530784 0 1 0 -0.6018150307709319 0 0.79863550430605224 forward_v I I I I #
face $-1 $88 $89 $31 $-1 $90 forward single #
loop $-1 $91 $92 $40 #
cone-surface $-1 -69.405586530449256 -22.99572925895588 7.767452496939165 0.6018150307709319 0 -0.79863550430605224 0.39931775215302612 0 0.30090751538546595 1 I I 0 1 0.5 forward I I I I #
face $-1 $93 $94 $32 $-1 $95 forward single #
loop $-1 $96 $97 $41 #
cone-surface $-1 -69.405586530449256 -20.388224970418815 7.767452496939165 0.6018150307709319 0 -0.79863550430605224 0.39931775215302612 0 0.30090751538546595 1 I I 0 1 0.5 forward I I I I #
face $-1 $98 $99 $33 $-1 $100 reversed single #
loop $-1 $-1 $101 $42 #
plane-surface $-1 46.16078769347898 -18.64988877806077 216.59998893738702 0 -1 0 -0.6018150307709319 0 -0.79863550430605224 forward_v I I I I #
face $-1 $102 $103 $34 $-1 $104 forward single #
loop $-1 $105 $106 $43 #
cone-surface $-1 69.40558653044927 -22.99572925895588 7.7674524969391543 -0.6018150307709319 0 -0.79863550430605224 0.39931775215302612 0 -0.30090751538546595 1 I I 0 1 0.5 forward I I I I #
face $-1 $107 $108 $35 $-1 $109 forward single #
loop $-1 $110 $111 $44 #
cone-surface $-1 69.40558653044927 -20.388224970418815 7.7674524969391543 -0.6018150307709319 0 -0.79863550430605224 0.39931775215302612 0 -0.30090751538546595 1 I I 0 1 0.5 forward I I I I #
face $-1 $112 $113 $27 $-1 $114 forward single #
loop $-1 $-1 $115 $45 #
plane-surface $-1 0 -33.924933737639797 0 0 1 0 0 0 1 forward_v I I I I #
coedge $-1 $116 $117 $118 $119 reversed $46 $-1 #
face $-1 $120 $121 $28 $-1 $122 reversed single #
loop $-1 $-1 $123 $48 #
plane-surface $-1 0 0 -13.018138121595976 0 0 1 1 0 0 forward_v I I I I #
coedge $-1 $124 $125 $126 $127 forward $49 $-1 #
face $-1 $128 $129 $29 $-1 $130 reversed single #
loop $-1 $-1 $131 $51 #
plane-surface $-1 0 0 -13.018138121595976 0 0 1 1 0 0 forward_v I I I I #
coedge $-1 $132 $133 $134 $135 forward $52 $-1 #
face $-1 $136 $137 $30 $-1 $138 reversed single #
loop $-1 $-1 $139 $54 #
plane-surface $-1 -76.127811517685444 -21.691977114687347 3.3735201890221731 -0.6018150307709319 0 0.79863550430605224 0.79863550430605224 0 0.6018150307709319 forward_v I I I I #
coedge $-1 $140 $141 $142 $143 reversed $55 $-1 #
face $-1 $-1 $144 $31 $-1 $145 forward single #
loop $-1 $146 $147 $57 #
cone-surface $-1 -68.932327800465131 -22.99572925895588 7.1394169624927333 0.6018150307709319 0 -0.79863550430605224 0.19965887607651306 0 0.15045375769273298 1 I I -0.70710678118654746 0.70710678118654746 0.25 forward I I I I #
loop $-1 $-1 $148 $40 #
coedge $-1 $92 $92 $149 $150 reversed $58 $-1 #
face $-1 $-1 $151 $32 $-1 $152 forward single #
loop $-1 $153 $154 $60 #
cone-surface $-1 -68.932327800465131 -20.388224970418815 7.1394169624927333 0.6018150307709319 0 -0.79863550430605224 0.19965887607651306 0 0.15045375769273298 1 I I -0.70710678118654746 0.70710678118654746 0.25 forward I I I I #
loop $-1 $-1 $155 $41 #
coedge $-1 $97 $97 $156 $157 reversed $61 $-1 #
face $-1 $158 $159 $33 $-1 $160 reversed single #
loop $-1 $-1 $161 $63 #
plane-surface $-1 -45.468934768600192 -21.691977114687347 95.00324265110136 0.6018150307709319 0 0.79863550430605224 0.79863550430605224 0 -0.6018150307709319 forward_v I I I I #
coedge $-1 $162 $163 $164 $165 reversed $64 $-1 #
face $-1 $-1 $166 $34 $-1 $167 forward single #
loop $-1 $168 $169 $66 #
cone-surface $-1 68.932327800465146 -22.99572925895588 7.1394169624927226 -0.6018150307709319 0 -0.79863550430605224 0.19965887607651306 0 -0.15045375769273298 1 I I -0.70710678118654746 0.70710678118654746 0.25 forward I I I I #
loop $-1 $-1 $170 $43 #
coedge $-1 $106 $106 $171 $172 reversed $67 $-1 #
face $-1 $-1 $173 $35 $-1 $174 forward single #
loop $-1 $175 $176 $69 #
cone-surface $-1 68.932327800465146 -20.388224970418815 7.1394169624927226 -0.6018150307709319 0 -0.79863550430605224 0.19965887607651306 0 -0.15045375769273298 1 I I -0.70710678118654746 0.70710678118654746 0.25 forward I I I I #
loop $-1 $-1 $177 $44 #
coedge $-1 $111 $111 $178 $179 reversed $70 $-1 #
face $-1 $180 $181 $27 $-1 $182 reversed single #
loop $-1 $-1 $183 $72 #
plane-surface $-1 0 0 13.018138121595976 0 0 1 1 0 0 forward_v I I I I #
coedge $-1 $184 $185 $186 $187 reversed $73 $-1 #
coedge $-1 $188 $75 $189 $190 reversed $46 $-1 #
coedge $-1 $75 $188 $191 $192 forward $46 $-1 #
coedge $-1 $193 $194 $75 $119 forward $181 $-1 #
edge $-1 $195 -76.127811517685473 $196 76.127811517685473 $75 $197 forward 7 unknown #
face $-1 $198 $199 $28 $-1 $200 reversed single #
loop $-1 $-1 $201 $76 #
plane-surface $-1 -67.686477784084062 -43.115802023965678 0 0 1 0 0 0 1 forward_v I I I I #
coedge $-1 $202 $203 $125 $204 forward $77 $-1 #
coedge $-1 $205 $79 $206 $207 reversed $49 $-1 #
coedge $-1 $79 $205 $123 $204 reversed $49 $-1 #
coedge $-1 $208 $209 $79 $127 reversed $199 $-1 #
edge $-1 $210 -13.018138121595976 $211 13.018138121595976 $126 $212 forward 7 unknown #
face $-1 $213 $214 $29 $-1 $215 reversed single #
loop $-1 $-1 $216 $80 #
plane-surface $-1 -70.688710650793382 38.520367880802731 0 1 0 0 0 0 -1 forward_v I I I I #
coedge $-1 $217 $218 $133 $219 forward $81 $-1 #
coedge $-1 $220 $83 $221 $222 reversed $52 $-1 #
coedge $-1 $83 $220 $131 $219 reversed $52 $-1 #
coedge $-1 $223 $224 $83 $135 reversed $225 $-1 #
edge $-1 $226 -13.018138121595976 $227 13.018138121595976 $134 $228 forward 7 unknown #
face $-1 $229 $230 $30 $-1 $231 reversed single #
loop $-1 $-1 $232 $84 #
plane-surface $-1 -167.75753397976462 -18.64988877806077 124.97026647530784 0 -1 0 0.6018150307709319 0 -0.79863550430605224 forward_v I I I I #
coedge $-1 $233 $234 $235 $236 reversed $85 $-1 #
coedge $-1 $141 $87 $237 $238 reversed $55 $-1 #
coedge $-1 $87 $140 $233 $239 reversed $55 $-1 #
coedge $-1 $235 $240 $87 $143 forward $241 $-1 #
edge $-1 $242 7.7509554721968357 $243 20.549795502086511 $142 $244 forward 7 unknown #
loop $-1 $-1 $149 $88 #
plane-surface $-1 -76.127811517685444 -21.691977114687347 3.3735201890221731 -0.6018150307709319 0 0.79863550430605224 0.79863550430605224 0 0.6018150307709319 forward_v I I I I #
loop $-1 $-1 $245 $57 #
coedge $-1 $147 $147 $148 $246 reversed $89 $-1 #
coedge $-1 $148 $148 $147 $246 forward $91 $-1 #
coedge $-1 $149 $149 $92 $150 forward $144 $-1 #
edge $-1 $247 0 $247 6.2831853071796004 $149 $248 forward 7 unknown #
loop $-1 $-1 $156 $93 #
plane-surface $-1 -76.127811517685444 -21.691977114687347 3.3735201890221731 -0.6018150307709319 0 0.79863550430605224 0.79863550430605224 0 0.6018150307709319 forward_v I I I I #
loop $-1 $-1 $249 $60 #
coedge $-1 $154 $154 $155 $250 reversed $94 $-1 #
coedge $-1 $155 $155 $154 $250 forward $96 $-1 #
coedge $-1 $156 $156 $97 $157 forward $151 $-1 #
edge $-1 $251 0 $251 6.2831853071796004 $156 $252 forward 7 unknown #
face $-1 $253 $254 $33 $-1 $255 forward single #
loop $-1 $-1 $256 $98 #
plane-surface $-1 46.16078769347898 -24.734065451313924 216.59998893738702 0 1 0 0.6018150307709319 0 0.79863550430605224 forward_v I I I I #
coedge $-1 $257 $258 $259 $260 reversed $99 $-1 #
coedge $-1 $163 $101 $261 $262 reversed $64 $-1 #
coedge $-1 $101 $162 $257 $263 reversed $64 $-1 #
coedge $-1 $259 $264 $101 $165 forward $254 $-1 #
edge $-1 $265 -53.047417670945983 $266 -40.248577641056336 $164 $267 forward 7 unknown #
loop $-1 $-1 $171 $102 #
plane-surface $-1 -45.468934768600192 -21.691977114687347 95.00324265110136 0.6018150307709319 0 0.79863550430605224 0.79863550430605224 0 -0.6018150307709319 forward_v I I I I #
loop $-1 $-1 $268 $66 #
coedge $-1 $169 $169 $170 $269 reversed $103 $-1 #
coedge $-1 $170 $170 $169 $269 forward $105 $-1 #
coedge $-1 $171 $171 $106 $172 forward $166 $-1 #
edge $-1 $270 0 $270 6.2831853071796004 $171 $271 forward 7 unknown #
loop $-1 $-1 $178 $107 #
plane-surface $-1 -45.468934768600192 -21.691977114687347 95.00324265110136 0.6018150307709319 0 0.79863550430605224 0.79863550430605224 0 -0.6018150307709319 forward_v I I I I #
loop $-1 $-1 $272 $69 #
coedge $-1 $176 $176 $177 $273 reversed $108 $-1 #
coedge $-1 $177 $177 $176 $273 forward $110 $-1 #
coedge $-1 $178 $178 $111 $179 forward $173 $-1 #
edge $-1 $274 0 $274 6.2831853071796004 $178 $275 forward 7 unknown #
face $-1 $276 $277 $27 $-1 $278 reversed single #
loop $-1 $-1 $193 $112 #
plane-surface $-1 0 0 -13.018138121595976 0 0 1 1 0 0 forward_v I I I I #
coedge $-1 $279 $280 $281 $282 forward $113 $-1 #
coedge $-1 $283 $115 $284 $285 reversed $73 $-1 #
coedge $-1 $115 $283 $286 $287 forward $73 $-1 #
coedge $-1 $194 $193 $115 $187 forward $181 $-1 #
edge $-1 $288 -76.127811517685473 $289 76.127811517685473 $115 $290 forward 7 unknown #
coedge $-1 $117 $116 $279 $291 reversed $46 $-1 #
coedge $-1 $292 $293 $116 $190 forward $277 $-1 #
edge $-1 $294 -13.018138121595976 $195 13.018138121595976 $116 $295 forward 7 unknown #
coedge $-1 $281 $296 $117 $192 reversed $297 $-1 #
edge $-1 $298 -13.018138121595976 $196 13.018138121595976 $191 $299 forward 7 unknown #
coedge $-1 $186 $118 $296 $300 forward $181 $-1 #
coedge $-1 $118 $186 $292 $301 forward $181 $-1 #
vertex $-1 $119 $302 #
vertex $-1 $300 $303 #
straight-curve $-1 0 33.924933737639797 -13.018138121595976 1 0 0 I I #
face $-1 $304 $305 $28 $-1 $306 reversed single #
loop $-1 $-1 $126 $120 #
plane-surface $-1 -70.688710650793382 -38.520367880802738 0 1 0 0 0 0 -1 forward_v I I I I #
coedge $-1 $307 $308 $309 $310 forward $121 $-1 #
coedge $-1 $311 $123 $312 $313 forward $77 $-1 #
coedge $-1 $123 $311 $208 $314 forward $77 $-1 #
edge $-1 $210 -70.688710650793382 $315 -64.684244917374741 $123 $316 forward 7 unknown #
coedge $-1 $125 $124 $317 $318 forward $49 $-1 #
coedge $-1 $319 $320 $124 $207 forward $321 $-1 #
edge $-1 $322 64.684244917374741 $211 70.688710650793382 $206 $323 forward 7 unknown #
coedge $-1 $309 $126 $203 $314 reversed $199 $-1 #
coedge $-1 $126 $309 $319 $324 reversed $199 $-1 #
vertex $-1 $204 $325 #
vertex $-1 $324 $326 #
straight-curve $-1 -70.688710650793382 -33.924933737639797 0 0 0 1 I I #
face $-1 $327 $225 $29 $-1 $328 reversed single #
loop $-1 $-1 $329 $128 #
plane-surface $-1 -67.686477784084062 43.115802023965671 0 0 -1 0 0 0 -1 forward_v I I I I #
coedge $-1 $330 $331 $332 $333 forward $129 $-1 #
coedge $-1 $334 $131 $330 $335 forward $81 $-1 #
coedge $-1 $131 $334 $223 $336 forward $81 $-1 #
edge $-1 $226 64.684244917374741 $337 70.688710650793382 $131 $338 forward 7 unknown #
coedge $-1 $133 $132 $339 $340 forward $52 $-1 #
coedge $-1 $341 $342 $132 $222 forward $343 $-1 #
edge $-1 $344 -70.688710650793382 $227 -64.684244917374741 $221 $345 forward 7 unknown #
coedge $-1 $346 $134 $218 $336 reversed $225 $-1 #
coedge $-1 $134 $346 $341 $347 reversed $225 $-1 #
loop $-1 $-1 $134 $213 #
vertex $-1 $219 $348 #
vertex $-1 $347 $349 #
straight-curve $-1 -64.684244917374741 33.924933737639797 0 0 0 1 I I #
face $-1 $-1 $241 $30 $-1 $350 forward single #
loop $-1 $-1 $351 $136 #
plane-surface $-1 -76.127811517685473 0 0 1 0 0 0 0 -1 forward_v I I I I #
coedge $-1 $352 $353 $354 $355 reversed $137 $-1 #
coedge $-1 $356 $139 $141 $239 forward $85 $-1 #
coedge $-1 $139 $356 $352 $357 forward $85 $-1 #
coedge $-1 $354 $142 $139 $236 forward $241 $-1 #
edge $-1 $243 -13.888076893970251 $358 -7.8039002207170967 $235 $359 forward 7 unknown #
coedge $-1 $360 $361 $140 $238 forward $230 $-1 #
edge $-1 $362 -59.111613048631767 $242 -49.466995116057944 $237 $363 forward 7 unknown #
edge $-1 $243 -16.025884099669192 $362 3.5527045195756588e-014 $141 $364 forward 7 unknown #
coedge $-1 $142 $354 $360 $365 forward $241 $-1 #
loop $-1 $-1 $354 $229 #
vertex $-1 $238 $366 #
vertex $-1 $143 $367 #
straight-curve $-1 -83.878766989882308 -24.734065451313924 13.018138121595975 1 0 0 I I #
coedge $-1 $245 $245 $-1 $368 reversed $146 $-1 #
edge $-1 $369 0 $369 6.2831853071796004 $147 $370 forward 7 unknown #
vertex $-1 $150 $371 #
ellipse-curve $-1 -69.728391502740635 -22.99572925895588 8.1958291553090614 -0.6018150307709319 0 0.79863550430605224 0.39931775215302612 0 0.30090751538546595 1 I I #
coedge $-1 $249 $249 $-1 $372 reversed $153 $-1 #
edge $-1 $373 0 $373 6.2831853071796004 $154 $374 forward 7 unknown #
vertex $-1 $157 $375 #
ellipse-curve $-1 -69.728391502740635 -20.388224970418815 8.1958291553090614 -0.6018150307709319 0 0.79863550430605224 0.39931775215302612 0 0.30090751538546595 1 I I #
face $-1 $-1 $376 $33 $-1 $377 reversed single #
loop $-1 $-1 $164 $158 #
plane-surface $-1 0 0 13.018138121595976 0 0 1 1 0 0 forward_v I I I I #
coedge $-1 $378 $379 $380 $381 reversed $159 $-1 #
coedge $-1 $382 $161 $163 $263 forward $99 $-1 #
coedge $-1 $161 $382 $378 $383 forward $99 $-1 #
coedge $-1 $380 $164 $161 $260 forward $254 $-1 #
edge $-1 $266 7.8039002207170967 $384 13.888076893970251 $259 $385 forward 7 unknown #
coedge $-1 $386 $387 $162 $262 forward $376 $-1 #
edge $-1 $388 -104.92647427967133 $265 -95.281856347097531 $261 $389 forward 7 unknown #
edge $-1 $266 136.22973893570179 $388 152.25562303537097 $163 $390 forward 7 unknown #
coedge $-1 $164 $380 $386 $391 forward $254 $-1 #
vertex $-1 $165 $392 #
vertex $-1 $165 $393 #
straight-curve $-1 23.08039384673949 -18.64988877806077 13.018138121595982 -1 0 0 I I #
coedge $-1 $268 $268 $-1 $394 reversed $168 $-1 #
edge $-1 $395 0 $395 6.2831853071796004 $169 $396 forward 7 unknown #
vertex $-1 $172 $397 #
ellipse-curve $-1 69.728391502740664 -22.99572925895588 8.1958291553090774 0.6018150307709319 0 0.79863550430605224 0.39931775215302612 0 -0.30090751538546595 1 I I #
coedge $-1 $272 $272 $-1 $398 reversed $175 $-1 #
edge $-1 $399 0 $399 6.2831853071796004 $176 $400 forward 7 unknown #
vertex $-1 $179 $401 #
ellipse-curve $-1 69.728391502740664 -20.388224970418815 8.1958291553090774 0.6018150307709319 0 0.79863550430605224 0.39931775215302612 0 -0.30090751538546595 1 I I #
face $-1 $-1 $297 $27 $-1 $402 reversed single #
loop $-1 $-1 $189 $180 #
plane-surface $-1 -76.127811517685473 0 0 1 0 0 0 0 -1 forward_v I I I I #
coedge $-1 $403 $183 $188 $291 forward $113 $-1 #
coedge $-1 $183 $403 $283 $404 forward $113 $-1 #
coedge $-1 $284 $191 $183 $282 reversed $297 $-1 #
edge $-1 $405 -33.924933737639797 $298 33.924933737639797 $281 $406 forward 7 unknown #
coedge $-1 $185 $184 $280 $404 reversed $73 $-1 #
coedge $-1 $296 $281 $184 $285 forward $297 $-1 #
edge $-1 $405 -13.018138121595976 $288 13.018138121595976 $284 $407 forward 7 unknown #
coedge $-1 $293 $292 $185 $287 reversed $277 $-1 #
edge $-1 $408 -13.018138121595976 $289 13.018138121595976 $286 $409 forward 7 unknown #
vertex $-1 $285 $410 #
vertex $-1 $301 $411 #
straight-curve $-1 0 -33.924933737639797 -13.018138121595976 -1 0 0 I I #
edge $-1 $298 -76.127811517685473 $294 76.127811517685473 $188 $412 forward 7 unknown #
coedge $-1 $286 $189 $194 $301 reversed $277 $-1 #
coedge $-1 $189 $286 $403 $413 reversed $277 $-1 #
vertex $-1 $291 $414 #
straight-curve $-1 -76.127811517685473 33.924933737639797 0 0 0 -1 I I #
coedge $-1 $191 $284 $193 $300 reversed $297 $-1 #
loop $-1 $-1 $284 $276 #
vertex $-1 $282 $415 #
straight-curve $-1 76.127811517685473 33.924933737639797 0 0 0 -1 I I #
edge $-1 $196 -33.924933737639797 $288 33.924933737639797 $296 $416 forward 7 unknown #
edge $-1 $289 -33.924933737639797 $195 33.924933737639797 $292 $417 forward 7 unknown #
point $-1 -76.127811517685473 33.924933737639797 -13.018138121595976 #
point $-1 76.127811517685473 33.924933737639797 -13.018138121595976 #
face $-1 $-1 $321 $28 $-1 $418 forward single #
loop $-1 $-1 $419 $198 #
plane-surface $-1 -64.684244917374741 -38.520367880802738 0 -1 0 0 0 0 1 forward_v I I I I #
coedge $-1 $420 $201 $311 $421 reversed $121 $-1 #
coedge $-1 $201 $420 $422 $423 reversed $121 $-1 #
coedge $-1 $209 $208 $201 $310 reversed $199 $-1 #
edge $-1 $424 -13.018138121595976 $425 13.018138121595976 $309 $426 forward 7 unknown #
coedge $-1 $203 $202 $307 $421 forward $77 $-1 #
coedge $-1 $317 $419 $202 $313 reversed $305 $-1 #
edge $-1 $315 -4.5954341431629402 $427 4.5954341431629402 $312 $428 forward 7 unknown #
edge $-1 $425 -4.5954341431629402 $210 4.5954341431629402 $208 $429 forward 7 unknown #
vertex $-1 $313 $430 #
straight-curve $-1 0 -33.924933737639797 -13.018138121595976 1 0 0 I I #
coedge $-1 $431 $312 $205 $318 reversed $305 $-1 #
edge $-1 $322 -13.018138121595976 $315 13.018138121595976 $317 $432 forward 7 unknown #
coedge $-1 $422 $206 $209 $324 forward $321 $-1 #
coedge $-1 $206 $422 $431 $433 forward $321 $-1 #
loop $-1 $-1 $206 $304 #
vertex $-1 $207 $434 #
straight-curve $-1 0 -33.924933737639797 13.018138121595976 -1 0 0 I I #
edge $-1 $211 -4.5954341431629402 $424 4.5954341431629402 $209 $435 forward 7 unknown #
point $-1 -70.688710650793382 -33.924933737639797 -13.018138121595976 #
point $-1 -70.688710650793382 -33.924933737639797 13.018138121595976 #
face $-1 $-1 $343 $29 $-1 $436 forward single #
plane-surface $-1 -64.684244917374741 38.520367880802731 0 -1 0 0 0 0 1 forward_v I I I I #
coedge $-1 $437 $438 $346 $439 forward $214 $-1 #
coedge $-1 $339 $216 $217 $335 reversed $129 $-1 #
coedge $-1 $216 $339 $342 $440 reversed $129 $-1 #
coedge $-1 $438 $437 $216 $333 reversed $214 $-1 #
edge $-1 $441 -13.018138121595976 $442 13.018138121595976 $332 $443 forward 7 unknown #
coedge $-1 $218 $217 $437 $444 forward $81 $-1 #
edge $-1 $337 -4.5954341431629402 $442 4.5954341431629402 $330 $445 forward 7 unknown #
edge $-1 $446 -4.5954341431629402 $226 4.5954341431629402 $223 $447 forward 7 unknown #
vertex $-1 $335 $448 #
straight-curve $-1 0 33.924933737639797 -13.018138121595976 -1 0 0 I I #
coedge $-1 $331 $330 $220 $340 reversed $129 $-1 #
edge $-1 $344 -13.018138121595976 $337 13.018138121595976 $339 $449 forward 7 unknown #
coedge $-1 $450 $221 $224 $347 forward $343 $-1 #
coedge $-1 $221 $450 $331 $440 forward $343 $-1 #
loop $-1 $-1 $221 $327 #
vertex $-1 $222 $451 #
straight-curve $-1 0 33.924933737639797 13.018138121595976 1 0 0 I I #
coedge $-1 $224 $223 $329 $439 reversed $225 $-1 #
edge $-1 $227 -4.5954341431629402 $452 4.5954341431629402 $224 $453 forward 7 unknown #
point $-1 -64.684244917374741 33.92493373763979 -13.018138121595976 #
point $-1 -64.684244917374741 33.92493373763979 13.018138121595976 #
plane-surface $-1 0 0 13.018138121595976 0 0 1 1 0 0 forward_v I I I I #
coedge $-1 $361 $360 $353 $454 forward $230 $-1 #
coedge $-1 $353 $232 $234 $357 reversed $137 $-1 #
coedge $-1 $232 $352 $351 $454 reversed $137 $-1 #
coedge $-1 $240 $235 $232 $355 forward $241 $-1 #
edge $-1 $358 -20.549795502086511 $455 -7.7509554721968357 $354 $456 forward 7 unknown #
coedge $-1 $234 $233 $361 $457 reversed $85 $-1 #
edge $-1 $458 -3.5527045195756588e-014 $358 16.025884099669192 $352 $459 forward 7 unknown #
vertex $-1 $236 $460 #
straight-curve $-1 -63.328971487795791 -10.845988557343674 13.018138121595978 0 1 0 I I #
coedge $-1 $351 $237 $240 $365 reversed $230 $-1 #
coedge $-1 $237 $351 $356 $457 forward $230 $-1 #
vertex $-1 $238 $461 #
straight-curve $-1 -76.127811517685473 -24.734065451313924 62.485133237653919 0 0 1 I I #
straight-curve $-1 -76.127811517685444 -24.734065451313924 3.3735201890221731 -0.79863550430605224 0 -0.6018150307709319 I I #
edge $-1 $455 18.64988877806077 $242 24.734065451313924 $360 $462 forward 7 unknown #
point $-1 -76.127811517685473 -24.734065451313924 13.018138121595976 #
point $-1 -63.328971487795798 -24.734065451313924 13.018138121595976 #
edge $-1 $463 1 $463 0 $245 $-1 forward 7 unknown #
vertex $-1 $246 $464 #
ellipse-curve $-1 -69.082781558157862 -22.99572925895588 7.3390758385692463 -0.6018150307709319 0 0.79863550430605224 0.39931775215302612 0 0.30090751538546595 1 I I #
point $-1 -69.329073750587639 -22.99572925895588 8.4967366706945491 #
edge $-1 $465 1 $465 0 $249 $-1 forward 7 unknown #
vertex $-1 $250 $466 #
ellipse-curve $-1 -69.082781558157862 -20.388224970418815 7.3390758385692463 -0.6018150307709319 0 0.79863550430605224 0.39931775215302612 0 0.30090751538546595 1 I I #
point $-1 -69.329073750587639 -20.388224970418815 8.4967366706945491 #
loop $-1 $-1 $261 $253 #
plane-surface $-1 76.127811517685473 0 0 -1 0 0 0 0 1 forward_v I I I I #
coedge $-1 $379 $256 $258 $383 reversed $159 $-1 #
coedge $-1 $256 $378 $467 $468 reversed $159 $-1 #
coedge $-1 $264 $259 $256 $381 forward $254 $-1 #
edge $-1 $384 40.248577641056336 $469 53.047417670945983 $380 $470 forward 7 unknown #
coedge $-1 $258 $257 $387 $471 reversed $99 $-1 #
edge $-1 $472 -152.25562303537097 $384 -136.22973893570179 $378 $473 forward 7 unknown #
vertex $-1 $260 $474 #
straight-curve $-1 63.328971487795826 -10.845988557343674 13.018138121595968 0 -1 0 I I #
coedge $-1 $467 $261 $264 $391 reversed $376 $-1 #
coedge $-1 $261 $467 $382 $471 forward $376 $-1 #
vertex $-1 $262 $475 #
straight-curve $-1 76.127811517685473 -18.64988877806077 108.29999446869351 0 0 1 I I #
straight-curve $-1 -45.468934768600192 -18.64988877806077 95.00324265110136 0.79863550430605224 0 -0.6018150307709319 I I #
edge $-1 $469 -24.734065451313924 $265 -18.64988877806077 $386 $476 forward 7 unknown #
point $-1 76.127811517685473 -18.64988877806077 13.018138121595976 #
point $-1 63.328971487795826 -18.64988877806077 13.018138121595982 #
edge $-1 $477 1 $477 0 $268 $-1 forward 7 unknown #
vertex $-1 $269 $478 #
ellipse-curve $-1 69.082781558157876 -22.99572925895588 7.3390758385692356 0.6018150307709319 0 0.79863550430605224 0.39931775215302612 0 -0.30090751538546595 1 I I #
point $-1 70.127709254893702 -22.99572925895588 7.8949216399236057 #
edge $-1 $479 1 $479 0 $272 $-1 forward 7 unknown #
vertex $-1 $273 $480 #
ellipse-curve $-1 69.082781558157876 -20.388224970418815 7.3390758385692356 0.6018150307709319 0 0.79863550430605224 0.39931775215302612 0 -0.30090751538546595 1 I I #
point $-1 70.127709254893702 -20.388224970418815 7.8949216399236057 #
plane-surface $-1 76.127811517685473 0 0 -1 0 0 0 0 1 forward_v I I I I #
coedge $-1 $280 $279 $293 $413 forward $113 $-1 #
edge $-1 $408 -76.127811517685473 $405 76.127811517685473 $283 $481 forward 7 unknown #
vertex $-1 $282 $482 #
straight-curve $-1 76.127811517685473 0 13.018138121595976 0 1 0 I I #
straight-curve $-1 76.127811517685473 -33.924933737639797 0 0 0 -1 I I #
vertex $-1 $413 $483 #
straight-curve $-1 -76.127811517685473 -33.924933737639797 0 0 0 -1 I I #
point $-1 76.127811517685473 -33.924933737639797 -13.018138121595976 #
point $-1 -76.127811517685473 -33.924933737639797 -13.018138121595976 #
straight-curve $-1 0 33.924933737639797 13.018138121595976 -1 0 0 I I #
edge $-1 $294 -33.924933737639797 $408 33.924933737639797 $293 $484 forward 7 unknown #
point $-1 -76.127811517685473 33.924933737639797 13.018138121595976 #
point $-1 76.127811517685473 33.924933737639797 13.018138121595976 #
straight-curve $-1 76.127811517685473 0 -13.018138121595976 0 -1 0 I I #
straight-curve $-1 -76.127811517685473 0 -13.018138121595976 0 1 0 I I #
plane-surface $-1 0 0 13.018138121595976 0 0 1 1 0 0 forward_v I I I I #
coedge $-1 $312 $431 $420 $485 forward $305 $-1 #
coedge $-1 $308 $307 $419 $485 reversed $121 $-1 #
edge $-1 $427 -3.0022328667093205 $425 3.0022328667093205 $307 $486 forward 7 unknown #
coedge $-1 $320 $319 $308 $423 forward $321 $-1 #
edge $-1 $424 -3.0022328667093205 $487 3.0022328667093205 $308 $488 forward 7 unknown #
vertex $-1 $324 $489 #
vertex $-1 $314 $490 #
straight-curve $-1 -70.688710650793382 -43.115802023965678 0 0 0 -1 I I #
vertex $-1 $485 $491 #
straight-curve $-1 -64.684244917374741 -38.520367880802738 -13.018138121595976 0 -1 0 I I #
straight-curve $-1 -70.688710650793382 -38.520367880802738 -13.018138121595976 0 1 0 I I #
point $-1 -64.684244917374741 -33.924933737639797 -13.018138121595976 #
coedge $-1 $419 $317 $320 $433 reversed $305 $-1 #
straight-curve $-1 -64.684244917374741 -33.924933737639797 0 0 0 -1 I I #
edge $-1 $487 -4.5954341431629402 $322 4.5954341431629402 $431 $492 forward 7 unknown #
point $-1 -64.684244917374741 -33.924933737639797 13.018138121595976 #
straight-curve $-1 -70.688710650793382 -38.520367880802738 13.018138121595976 0 -1 0 I I #
plane-surface $-1 0 0 13.018138121595976 0 0 1 1 0 0 forward_v I I I I #
coedge $-1 $332 $329 $334 $444 reversed $214 $-1 #
coedge $-1 $329 $332 $450 $493 reversed $214 $-1 #
edge $-1 $452 -13.018138121595976 $446 13.018138121595976 $346 $494 forward 7 unknown #
edge $-1 $441 -4.5954341431629402 $344 4.5954341431629402 $331 $495 forward 7 unknown #
vertex $-1 $493 $496 #
vertex $-1 $444 $497 #
straight-curve $-1 -70.688710650793382 43.115802023965671 0 0 0 -1 I I #
edge $-1 $442 -3.0022328667093205 $446 3.0022328667093205 $437 $498 forward 7 unknown #
straight-curve $-1 -70.688710650793382 38.520367880802731 -13.018138121595976 0 1 0 I I #
vertex $-1 $336 $499 #
straight-curve $-1 -64.684244917374741 38.520367880802731 -13.018138121595976 0 -1 0 I I #
point $-1 -70.688710650793382 33.92493373763979 -13.018138121595976 #
straight-curve $-1 -70.688710650793382 33.924933737639797 0 0 0 -1 I I #
coedge $-1 $342 $341 $438 $493 forward $343 $-1 #
point $-1 -70.688710650793382 33.92493373763979 13.018138121595976 #
vertex $-1 $347 $500 #
straight-curve $-1 -64.684244917374741 38.520367880802731 13.018138121595976 0 1 0 I I #
edge $-1 $455 49.466995116057944 $458 59.111613048631767 $351 $501 forward 7 unknown #
vertex $-1 $365 $502 #
straight-curve $-1 -83.878766989882308 -18.64988877806077 13.018138121595975 -1 0 0 I I #
edge $-1 $458 7.8039002207170967 $362 13.888076893970251 $361 $503 forward 7 unknown #
vertex $-1 $457 $504 #
straight-curve $-1 -76.127811517685444 -18.64988877806077 3.3735201890221731 0.79863550430605224 0 0.6018150307709319 I I #
point $-1 -63.328971487795798 -18.64988877806077 13.018138121595976 #
point $-1 -76.127811517685473 -24.734065451313924 3.3735201890221518 #
straight-curve $-1 -76.127811517685473 0 13.018138121595976 0 -1 0 I I #
vertex $-1 $368 $505 #
point $-1 -68.683463806004838 -22.99572925895588 7.6399833539547126 #
vertex $-1 $372 $506 #
point $-1 -68.683463806004838 -20.388224970418815 7.6399833539547126 #
coedge $-1 $387 $386 $379 $468 forward $376 $-1 #
edge $-1 $469 95.281856347097531 $472 104.92647427967133 $467 $507 forward 7 unknown #
vertex $-1 $391 $508 #
straight-curve $-1 23.08039384673949 -24.734065451313924 13.018138121595982 1 0 0 I I #
edge $-1 $472 -13.888076893970251 $388 -7.8039002207170967 $387 $509 forward 7 unknown #
vertex $-1 $471 $510 #
straight-curve $-1 -45.468934768600192 -24.734065451313924 95.00324265110136 -0.79863550430605224 0 0.6018150307709319 I I #
point $-1 63.328971487795826 -24.734065451313924 13.018138121595982 #
point $-1 76.127811517685473 -18.64988877806077 3.3735201890221873 #
straight-curve $-1 76.127811517685473 0 13.018138121595976 0 1 0 I I #
vertex $-1 $394 $511 #
point $-1 69.4820993103109 -22.99572925895588 7.0381683231837702 #
vertex $-1 $398 $512 #
point $-1 69.4820993103109 -20.388224970418815 7.0381683231837702 #
straight-curve $-1 0 -33.924933737639797 13.018138121595976 1 0 0 I I #
point $-1 76.127811517685473 -33.924933737639797 13.018138121595976 #
point $-1 -76.127811517685473 -33.924933737639797 13.018138121595976 #
straight-curve $-1 -76.127811517685473 0 13.018138121595976 0 -1 0 I I #
edge $-1 $487 -13.018138121595976 $427 13.018138121595976 $419 $513 forward 7 unknown #
straight-curve $-1 -67.686477784084062 -43.115802023965678 -13.018138121595976 -1 0 0 I I #
vertex $-1 $433 $514 #
straight-curve $-1 -67.686477784084062 -43.115802023965678 13.018138121595976 1 0 0 I I #
point $-1 -70.688710650793382 -43.115802023965678 13.018138121595976 #
point $-1 -70.688710650793382 -43.115802023965678 -13.018138121595976 #
point $-1 -64.684244917374741 -43.115802023965678 -13.018138121595976 #
straight-curve $-1 -64.684244917374741 -38.520367880802738 13.018138121595976 0 1 0 I I #
edge $-1 $452 -3.0022328667093205 $441 3.0022328667093205 $438 $515 forward 7 unknown #
straight-curve $-1 -64.684244917374741 43.115802023965671 0 0 0 -1 I I #
straight-curve $-1 -70.688710650793382 38.520367880802731 13.018138121595976 0 -1 0 I I #
point $-1 -70.688710650793382 43.115802023965671 13.018138121595976 #
point $-1 -70.688710650793382 43.115802023965671 -13.018138121595976 #
straight-curve $-1 -67.686477784084062 43.115802023965671 -13.018138121595976 1 0 0 I I #
point $-1 -64.684244917374741 43.115802023965671 -13.018138121595976 #
point $-1 -64.684244917374741 43.115802023965671 13.018138121595976 #
straight-curve $-1 -76.127811517685473 -18.64988877806077 62.485133237653919 0 0 -1 I I #
point $-1 -76.127811517685473 -18.64988877806077 13.018138121595976 #
straight-curve $-1 -76.127811517685473 -10.845988557343674 3.3735201890221505 0 -1 0 I I #
point $-1 -76.127811517685473 -18.64988877806077 3.3735201890221518 #
point $-1 -68.781874042772401 -22.99572925895588 6.9397580864162203 #
point $-1 -68.781874042772401 -20.388224970418815 6.9397580864162203 #
straight-curve $-1 76.127811517685473 -24.734065451313924 108.29999446869351 0 0 -1 I I #
point $-1 76.127811517685473 -24.734065451313924 13.018138121595976 #
straight-curve $-1 76.127811517685473 -10.845988557343674 3.3735201890221873 0 1 0 I I #
point $-1 76.127811517685473 -24.734065451313924 3.3735201890221873 #
point $-1 68.781874042772415 -22.99572925895588 6.9397580864162096 #
point $-1 68.781874042772415 -20.388224970418815 6.9397580864162096 #
straight-curve $-1 -64.684244917374741 -43.115802023965678 0 0 0 -1 I I #
point $-1 -64.684244917374741 -43.115802023965678 13.018138121595976 #
straight-curve $-1 -67.686477784084062 43.115802023965671 13.018138121595976 -1 0 0 I I #
End-of-ACIS-data 