500 0 7 0           
7 Unknown 11 ACIS 5.0 NT 24 Thu Mar 25 19:01:47 1999 
-1 9.9999999999999995e-007 1e-010 
body $-1 $7 $-1 $8 #
body $-1 $9 $-1 $10 #
body $-1 $11 $-1 $12 #
body $-1 $13 $-1 $14 #
body $-1 $15 $-1 $16 #
body $-1 $17 $-1 $18 #
body $-1 $19 $-1 $20 #
lump $-1 $-1 $21 $0 #
transform $-1 1 0 0 0 1 0 0 0 1 56.96340830713828 35.352707754543701 8.4309416243882822 1 rotate no_reflect no_shear #
lump $-1 $-1 $22 $1 #
transform $-1 1 0 0 0 1 0 0 0 1 56.96340830713828 35.352707754543701 8.4309416243882822 1 rotate no_reflect no_shear #
lump $-1 $-1 $23 $2 #
transform $-1 1 0 0 0 1 0 0 0 1 56.96340830713828 35.352707754543701 8.4309416243882822 1 rotate no_reflect no_shear #
lump $-1 $-1 $24 $3 #
transform $-1 1 0 0 0 1 0 0 0 1 56.96340830713828 35.352707754543701 8.4309416243882822 1 rotate no_reflect no_shear #
lump $-1 $-1 $25 $4 #
transform $-1 1 0 0 0 1 0 0 0 1 56.96340830713828 35.352707754543701 8.4309416243882822 1 rotate no_reflect no_shear #
lump $-1 $-1 $26 $5 #
transform $-1 1 0 0 0 1 0 0 0 1 56.96340830713828 35.352707754543701 8.4309416243882822 1 rotate no_reflect no_shear #
lump $-1 $-1 $27 $6 #
transform $-1 1 0 0 0 1 0 0 0 1 56.96340830713828 35.352707754543701 8.4309416243882822 1 rotate no_reflect no_shear #
shell $-1 $-1 $-1 $28 $-1 $7 #
shell $-1 $-1 $-1 $29 $-1 $9 #
shell $-1 $-1 $-1 $30 $-1 $11 #
shell $-1 $-1 $-1 $31 $-1 $13 #
shell $-1 $-1 $-1 $32 $-1 $15 #
shell $-1 $-1 $-1 $33 $-1 $17 #
shell $-1 $-1 $-1 $34 $-1 $19 #
face $-1 $35 $36 $21 $-1 $37 forward single #
face $-1 $38 $39 $22 $-1 $40 forward single #
face $-1 $41 $42 $23 $-1 $43 reversed single #
face $-1 $44 $45 $24 $-1 $46 forward single #
face $-1 $47 $48 $25 $-1 $49 forward single #
face $-1 $50 $51 $26 $-1 $52 reversed single #
face $-1 $53 $54 $27 $-1 $55 forward single #
face $-1 $56 $57 $21 $-1 $58 reversed single #
loop $-1 $-1 $59 $28 #
plane-surface $-1 0 0 8.4309416243882822 0 0 1 1 0 0 forward_v I I I I #
face $-1 $60 $61 $22 $-1 $62 reversed single #
loop $-1 $-1 $63 $29 #
plane-surface $-1 -52.13735484434023 0 7.9309416243882822 0 0 1 1 0 0 forward_v I I I I #
face $-1 $64 $65 $23 $-1 $66 reversed single #
loop $-1 $-1 $67 $30 #
plane-surface $-1 -23.51507060414238 -117.30480220970905 79.341926553122136 1 0 0 0 0.71933980857756763 -0.69465836192734942 forward_v I I I I #
face $-1 $68 $69 $24 $-1 $70 forward single #
loop $-1 $71 $72 $31 #
cone-surface $-1 -16.360604149413803 -29.075393560287846 2.0914987117874695 0 0.71933980857756763 -0.69465836192734942 2.5 0 0 1 I I 0 1 2.5 forward I I I I #
face $-1 $73 $74 $25 $-1 $75 forward single #
loop $-1 $76 $77 $32 #
cone-surface $-1 -5.6289044673209361 -29.075393560287846 2.0914987117874695 0 0.71933980857756763 -0.69465836192734942 2.5 0 0 1 I I 0 1 2.5 forward I I I I #
face $-1 $78 $79 $26 $-1 $80 reversed single #
loop $-1 $-1 $81 $33 #
plane-surface $-1 29.592052812179645 56.733371379442161 137.07820863731195 1 0 0 0 -0.6560590369687036 -0.75470957328743171 forward_v I I I I #
face $-1 $82 $83 $27 $-1 $84 forward single #
loop $-1 $85 $86 $34 #
cone-surface $-1 43.277730559658963 32.643946051950941 5.9165072381143089 0 -0.6560590369687036 -0.75470957328743171 0.5 0 0 1 I I 0 1 0.5 forward I I I I #
face $-1 $87 $88 $21 $-1 $89 reversed single #
loop $-1 $-1 $90 $35 #
plane-surface $-1 0 0 -8.4309416243882822 0 0 1 1 0 0 forward_v I I I I #
coedge $-1 $91 $92 $93 $94 forward $36 $-1 #
face $-1 $95 $96 $22 $-1 $97 reversed single #
loop $-1 $-1 $98 $38 #
plane-surface $-1 -52.13735484434023 0 4.7185539727727033 0 0 1 1 0 0 forward_v I I I I #
coedge $-1 $99 $100 $101 $102 forward $39 $-1 #
face $-1 $103 $104 $23 $-1 $105 reversed single #
loop $-1 $-1 $106 $41 #
plane-surface $-1 -10.994754308367362 -35.352707754543701 0.20171074425124402 0 -0.71933980857756763 0.69465836192734942 1 0 0 forward_v I I I I #
coedge $-1 $107 $108 $109 $110 reversed $42 $-1 #
face $-1 $-1 $111 $24 $-1 $112 forward single #
loop $-1 $113 $114 $44 #
cone-surface $-1 -16.360604149413803 -25.872342454121604 -1.0016517131540112 0 0.71933980857756763 -0.69465836192734942 1.25 0 0 1 I I -0.70710678118654757 0.70710678118654735 1.25 forward I I I I #
loop $-1 $-1 $115 $31 #
coedge $-1 $72 $72 $116 $117 reversed $45 $-1 #
face $-1 $-1 $118 $25 $-1 $119 forward single #
loop $-1 $120 $121 $47 #
cone-surface $-1 -5.6289044673209361 -25.872342454121604 -1.0016517131540112 0 0.71933980857756763 -0.69465836192734942 1.25 0 0 1 I I -0.70710678118654757 0.70710678118654735 1.25 forward I I I I #
loop $-1 $-1 $122 $32 #
coedge $-1 $77 $77 $123 $124 reversed $48 $-1 #
face $-1 $125 $126 $26 $-1 $127 forward single #
loop $-1 $-1 $128 $50 #
plane-surface $-1 43.277730559658963 -18.00934621343022 51.096549484355791 0 0.6560590369687036 0.75470957328743171 1 0 0 forward_v I I I I #
coedge $-1 $129 $130 $131 $132 reversed $51 $-1 #
face $-1 $-1 $133 $27 $-1 $134 forward single #
loop $-1 $135 $136 $53 #
cone-surface $-1 43.277730559658963 31.911613419555977 5.0740549322166757 0 -0.6560590369687036 -0.75470957328743171 0.25 0 0 1 I I -0.70710678118654746 0.70710678118654746 0.25 forward I I I I #
loop $-1 $-1 $137 $34 #
coedge $-1 $86 $86 $138 $139 reversed $54 $-1 #
face $-1 $140 $141 $21 $-1 $142 reversed single #
loop $-1 $-1 $143 $56 #
plane-surface $-1 0 -35.352707754543701 0 0 1 0 0 0 1 forward_v I I I I #
coedge $-1 $144 $145 $146 $147 forward $57 $-1 #
coedge $-1 $148 $59 $149 $150 forward $36 $-1 #
coedge $-1 $59 $148 $151 $152 forward $36 $-1 #
coedge $-1 $153 $154 $59 $94 reversed $155 $-1 #
edge $-1 $156 -35.352707754543701 $157 35.352707754543701 $93 $158 forward 7 unknown #
face $-1 $159 $160 $22 $-1 $161 reversed single #
loop $-1 $-1 $162 $60 #
plane-surface $-1 -47.311301381542179 0 6.3247477985804927 -1 0 0 0 0 1 forward_v I I I I #
coedge $-1 $163 $164 $165 $166 forward $61 $-1 #
coedge $-1 $167 $63 $168 $169 reversed $39 $-1 #
coedge $-1 $63 $167 $170 $171 reversed $39 $-1 #
coedge $-1 $162 $172 $63 $102 reversed $96 $-1 #
edge $-1 $173 -35.352707754543701 $174 35.352707754543701 $101 $175 forward 7 unknown #
face $-1 $176 $177 $23 $-1 $178 forward single #
loop $-1 $-1 $179 $64 #
plane-surface $-1 1.5255619874076558 -117.30480220970905 79.341926553122136 -1 0 0 0 -0.71933980857756763 0.69465836192734942 forward_v I I I I #
coedge $-1 $180 $181 $182 $183 reversed $65 $-1 #
coedge $-1 $108 $67 $184 $185 reversed $42 $-1 #
coedge $-1 $67 $107 $180 $186 reversed $42 $-1 #
coedge $-1 $182 $187 $67 $110 forward $188 $-1 #
edge $-1 $189 31.240021652172786 $190 39.469252532309824 $109 $191 forward 7 unknown #
loop $-1 $-1 $116 $68 #
plane-surface $-1 -10.994754308367362 -35.352707754543701 0.20171074425124402 0 -0.71933980857756763 0.69465836192734942 1 0 0 forward_v I I I I #
loop $-1 $-1 $192 $44 #
coedge $-1 $114 $114 $115 $193 reversed $69 $-1 #
coedge $-1 $115 $115 $114 $193 forward $71 $-1 #
coedge $-1 $116 $116 $72 $117 forward $111 $-1 #
edge $-1 $194 0 $194 6.2831853071796004 $116 $195 forward 7 unknown #
loop $-1 $-1 $123 $73 #
plane-surface $-1 -10.994754308367362 -35.352707754543701 0.20171074425124402 0 -0.71933980857756763 0.69465836192734942 1 0 0 forward_v I I I I #
loop $-1 $-1 $196 $47 #
coedge $-1 $121 $121 $122 $197 reversed $74 $-1 #
coedge $-1 $122 $122 $121 $197 forward $76 $-1 #
coedge $-1 $123 $123 $77 $124 forward $118 $-1 #
edge $-1 $198 0 $198 6.2831853071796004 $123 $199 forward 7 unknown #
face $-1 $200 $201 $26 $-1 $202 reversed single #
loop $-1 $-1 $131 $78 #
plane-surface $-1 0 0 8.4309416243882822 0 0 1 1 0 0 forward_v I I I I #
coedge $-1 $203 $204 $205 $206 reversed $79 $-1 #
coedge $-1 $130 $81 $207 $208 reversed $51 $-1 #
coedge $-1 $81 $129 $203 $209 reversed $51 $-1 #
coedge $-1 $205 $210 $81 $132 forward $126 $-1 #
edge $-1 $211 -6.9860220648226203 $212 -2.7051344059426725 $131 $213 forward 7 unknown #
loop $-1 $-1 $138 $82 #
plane-surface $-1 43.277730559658963 -18.00934621343022 51.096549484355791 0 0.6560590369687036 0.75470957328743171 1 0 0 forward_v I I I I #
loop $-1 $-1 $214 $53 #
coedge $-1 $136 $136 $137 $215 reversed $83 $-1 #
coedge $-1 $137 $137 $136 $215 forward $85 $-1 #
coedge $-1 $138 $138 $86 $139 forward $133 $-1 #
edge $-1 $216 -9.2888147553719372e-016 $216 6.2831853071795996 $138 $217 forward 7 unknown #
face $-1 $218 $219 $21 $-1 $220 reversed single #
loop $-1 $-1 $221 $87 #
plane-surface $-1 -56.96340830713828 0 0 1 0 0 0 0 -1 forward_v I I I I #
coedge $-1 $222 $151 $223 $224 forward $88 $-1 #
coedge $-1 $225 $90 $222 $226 forward $57 $-1 #
coedge $-1 $90 $225 $227 $228 forward $57 $-1 #
coedge $-1 $154 $153 $90 $147 reversed $155 $-1 #
edge $-1 $229 -35.352707754543701 $230 35.352707754543701 $146 $231 forward 7 unknown #
coedge $-1 $92 $91 $232 $233 forward $36 $-1 #
coedge $-1 $234 $235 $91 $150 reversed $219 $-1 #
edge $-1 $157 -56.96340830713828 $236 56.96340830713828 $149 $237 forward 7 unknown #
coedge $-1 $143 $238 $92 $152 reversed $88 $-1 #
edge $-1 $239 -56.96340830713828 $156 56.96340830713828 $151 $240 forward 7 unknown #
coedge $-1 $146 $93 $238 $241 forward $155 $-1 #
coedge $-1 $93 $146 $234 $242 reversed $155 $-1 #
loop $-1 $-1 $153 $218 #
vertex $-1 $94 $243 #
vertex $-1 $94 $244 #
straight-curve $-1 56.96340830713828 0 8.4309416243882822 0 1 0 I I #
face $-1 $245 $246 $22 $-1 $247 reversed single #
loop $-1 $-1 $248 $95 #
plane-surface $-1 0 -35.352707754543701 0 0 1 0 0 0 1 forward_v I I I I #
coedge $-1 $165 $101 $249 $250 reversed $96 $-1 #
coedge $-1 $251 $98 $248 $252 reversed $61 $-1 #
coedge $-1 $98 $251 $253 $254 reversed $61 $-1 #
coedge $-1 $172 $162 $98 $166 reversed $96 $-1 #
edge $-1 $255 -35.352707754543701 $256 35.352707754543701 $165 $257 forward 7 unknown #
coedge $-1 $100 $99 $258 $259 reversed $39 $-1 #
coedge $-1 $260 $261 $99 $169 forward $262 $-1 #
edge $-1 $263 -30.894730884968165 $174 -21.242623959372064 $168 $264 forward 7 unknown #
coedge $-1 $265 $249 $100 $171 forward $160 $-1 #
edge $-1 $173 21.242623959372064 $266 30.894730884968165 $170 $267 forward 7 unknown #
coedge $-1 $101 $165 $260 $268 reversed $96 $-1 #
vertex $-1 $171 $269 #
vertex $-1 $169 $270 #
straight-curve $-1 -47.311301381542179 0 7.9309416243882822 0 1 0 I I #
face $-1 $-1 $188 $23 $-1 $271 reversed single #
loop $-1 $-1 $272 $103 #
plane-surface $-1 0 0 8.4309416243882822 0 0 1 1 0 0 forward_v I I I I #
coedge $-1 $273 $274 $275 $276 reversed $104 $-1 #
coedge $-1 $277 $106 $108 $186 forward $65 $-1 #
coedge $-1 $106 $277 $273 $278 forward $65 $-1 #
coedge $-1 $275 $109 $106 $183 forward $188 $-1 #
edge $-1 $190 -18.017693449958699 $279 7.0229391415913369 $182 $280 forward 7 unknown #
coedge $-1 $281 $282 $107 $185 forward $177 $-1 #
edge $-1 $283 -31.246569047933967 $189 -23.299693350310825 $184 $284 forward 7 unknown #
edge $-1 $190 0 $283 11.43997702060954 $108 $285 forward 7 unknown #
coedge $-1 $109 $275 $281 $286 reversed $188 $-1 #
loop $-1 $-1 $275 $176 #
vertex $-1 $286 $287 #
vertex $-1 $110 $288 #
straight-curve $-1 -23.51507060414238 -35.352707754543701 39.670963276561068 0 0 -1 I I #
coedge $-1 $192 $192 $-1 $289 reversed $113 $-1 #
edge $-1 $290 0 $290 6.2831853071796004 $114 $291 forward 7 unknown #
vertex $-1 $117 $292 #
ellipse-curve $-1 -16.360604149413803 -31.37926990573213 4.3163261843197631 0 -0.71933980857756763 0.69465836192734942 2.5 0 0 1 I I #
coedge $-1 $196 $196 $-1 $293 reversed $120 $-1 #
edge $-1 $294 0 $294 6.2831853071796004 $121 $295 forward 7 unknown #
vertex $-1 $124 $296 #
ellipse-curve $-1 -5.6289044673209361 -31.37926990573213 4.3163261843197631 0 -0.71933980857756763 0.69465836192734942 2.5 0 0 1 I I #
face $-1 $-1 $297 $26 $-1 $298 reversed single #
loop $-1 $-1 $299 $125 #
plane-surface $-1 56.96340830713828 0 0 -1 0 0 0 0 1 forward_v I I I I #
coedge $-1 $300 $128 $130 $209 forward $79 $-1 #
coedge $-1 $128 $300 $299 $301 reversed $79 $-1 #
coedge $-1 $302 $131 $128 $206 forward $126 $-1 #
edge $-1 $212 7.9531875323501637 $303 35.324543027308799 $205 $304 forward 7 unknown #
coedge $-1 $305 $306 $129 $208 forward $297 $-1 #
edge $-1 $307 -63.82948164166411 $211 -60.108162694267691 $207 $308 forward 7 unknown #
edge $-1 $212 65.033183685880417 $307 70.70541550908743 $130 $309 forward 7 unknown #
coedge $-1 $131 $302 $305 $310 forward $126 $-1 #
vertex $-1 $208 $311 #
vertex $-1 $132 $312 #
straight-curve $-1 29.592052812179645 28.366685689721081 8.4309416243882822 0 -1 0 I I #
coedge $-1 $214 $214 $-1 $313 reversed $135 $-1 #
edge $-1 $314 0 $314 6.2831853071796004 $136 $315 forward 7 unknown #
vertex $-1 $139 $316 #
ellipse-curve $-1 43.277730559658963 33.21226392510372 6.5702821506900762 0 0.6560590369687036 0.75470957328743171 0.5 0 0 1 I I #
face $-1 $-1 $155 $21 $-1 $317 reversed single #
loop $-1 $-1 $234 $140 #
plane-surface $-1 0 35.352707754543701 0 0 -1 0 0 0 -1 forward_v I I I I #
coedge $-1 $318 $232 $235 $319 forward $141 $-1 #
coedge $-1 $238 $143 $144 $226 reversed $88 $-1 #
coedge $-1 $232 $318 $143 $224 reversed $141 $-1 #
edge $-1 $239 -8.4309416243882822 $320 8.4309416243882822 $223 $321 forward 7 unknown #
coedge $-1 $145 $144 $318 $322 forward $57 $-1 #
edge $-1 $230 -56.96340830713828 $320 56.96340830713828 $222 $323 forward 7 unknown #
coedge $-1 $235 $234 $145 $228 reversed $219 $-1 #
edge $-1 $324 -56.96340830713828 $229 56.96340830713828 $227 $325 forward 7 unknown #
vertex $-1 $147 $326 #
vertex $-1 $241 $327 #
straight-curve $-1 56.96340830713828 0 -8.4309416243882822 0 -1 0 I I #
coedge $-1 $221 $223 $148 $233 reversed $141 $-1 #
edge $-1 $236 -35.352707754543701 $239 35.352707754543701 $232 $328 forward 7 unknown #
coedge $-1 $227 $149 $154 $242 forward $219 $-1 #
coedge $-1 $149 $227 $221 $319 reversed $219 $-1 #
vertex $-1 $150 $329 #
straight-curve $-1 0 35.352707754543701 8.4309416243882822 -1 0 0 I I #
coedge $-1 $151 $222 $153 $241 reversed $88 $-1 #
vertex $-1 $233 $330 #
straight-curve $-1 0 -35.352707754543701 8.4309416243882822 1 0 0 I I #
edge $-1 $156 -8.4309416243882822 $230 8.4309416243882822 $153 $331 forward 7 unknown #
edge $-1 $157 -8.4309416243882822 $229 8.4309416243882822 $154 $332 forward 7 unknown #
point $-1 56.96340830713828 -35.352707754543701 8.4309416243882822 #
point $-1 56.96340830713828 35.352707754543701 8.4309416243882822 #
face $-1 $-1 $262 $22 $-1 $333 reversed single #
loop $-1 $-1 $334 $159 #
plane-surface $-1 -56.96340830713828 0 0 1 0 0 0 0 -1 forward_v I I I I #
coedge $-1 $249 $265 $163 $252 forward $160 $-1 #
coedge $-1 $170 $248 $162 $250 forward $160 $-1 #
edge $-1 $256 1.5561800734824569 $173 4.7685677250980358 $249 $335 forward 7 unknown #
coedge $-1 $164 $163 $334 $336 reversed $61 $-1 #
edge $-1 $337 -30.894730884968165 $256 -21.242623959372064 $248 $338 forward 7 unknown #
coedge $-1 $261 $260 $164 $254 forward $262 $-1 #
edge $-1 $255 21.242623959372064 $339 30.894730884968165 $253 $340 forward 7 unknown #
vertex $-1 $254 $341 #
vertex $-1 $252 $342 #
straight-curve $-1 -47.311301381542179 0 4.7185539727727033 0 -1 0 I I #
coedge $-1 $343 $344 $167 $259 forward $246 $-1 #
edge $-1 $266 -35.352707754543701 $263 35.352707754543701 $258 $345 forward 7 unknown #
coedge $-1 $253 $168 $172 $268 forward $262 $-1 #
coedge $-1 $168 $253 $343 $346 reversed $262 $-1 #
loop $-1 $-1 $253 $245 #
vertex $-1 $346 $347 #
straight-curve $-1 -26.068677422170115 35.352707754543701 7.9309416243882822 1 0 0 I I #
coedge $-1 $248 $170 $344 $348 forward $160 $-1 #
vertex $-1 $348 $349 #
straight-curve $-1 -26.068677422170115 -35.352707754543701 7.9309416243882822 -1 0 0 I I #
edge $-1 $174 -4.7685677250980358 $255 -1.5561800734824569 $260 $350 forward 7 unknown #
point $-1 -47.311301381542179 -35.352707754543701 7.9309416243882822 #
point $-1 -47.311301381542179 35.352707754543701 7.9309416243882822 #
plane-surface $-1 0 -35.352707754543701 0 0 1 0 0 0 1 forward_v I I I I #
coedge $-1 $282 $281 $274 $351 forward $177 $-1 #
coedge $-1 $274 $179 $181 $278 reversed $104 $-1 #
coedge $-1 $179 $273 $272 $351 reversed $104 $-1 #
coedge $-1 $187 $182 $179 $276 forward $188 $-1 #
edge $-1 $279 -39.469252532309824 $352 -31.240021652172786 $275 $353 forward 7 unknown #
coedge $-1 $181 $180 $282 $354 reversed $65 $-1 #
edge $-1 $355 -11.43997702060954 $279 0 $273 $356 forward 7 unknown #
vertex $-1 $183 $357 #
straight-curve $-1 -5.4973771541836811 -35.352707754543701 0.20171074425124463 1 0 0 I I #
coedge $-1 $272 $184 $187 $286 forward $177 $-1 #
coedge $-1 $184 $272 $277 $354 forward $177 $-1 #
vertex $-1 $185 $358 #
straight-curve $-1 -23.51507060414238 -58.652401104854526 8.4309416243882822 0 -1 0 I I #
straight-curve $-1 -23.51507060414238 -35.352707754543701 0.20171074425124402 0 0.69465836192734942 0.71933980857756763 I I #
edge $-1 $189 -23.51507060414238 $352 1.5255619874076558 $187 $359 forward 7 unknown #
point $-1 -23.51507060414238 -35.352707754543701 8.4309416243882822 #
point $-1 -23.51507060414238 -35.352707754543701 0.20171074425124402 #
edge $-1 $360 1 $360 0 $192 $-1 forward 7 unknown #
vertex $-1 $193 $361 #
ellipse-curve $-1 -16.360604149413803 -26.771517214843563 -0.1333287607448248 0 -0.71933980857756763 0.69465836192734942 2.5 0 0 1 I I #
point $-1 -13.860604149413803 -31.37926990573213 4.3163261843197631 #
edge $-1 $362 1 $362 0 $196 $-1 forward 7 unknown #
vertex $-1 $197 $363 #
ellipse-curve $-1 -5.6289044673209361 -26.771517214843563 -0.1333287607448248 0 -0.71933980857756763 0.69465836192734942 2.5 0 0 1 I I #
point $-1 -3.1289044673209361 -31.37926990573213 4.3163261843197631 #
loop $-1 $-1 $207 $200 #
plane-surface $-1 0 35.352707754543701 0 0 -1 0 0 0 -1 forward_v I I I I #
coedge $-1 $364 $365 $204 $301 forward $201 $-1 #
coedge $-1 $204 $203 $306 $366 reversed $79 $-1 #
edge $-1 $303 41.476094164353569 $367 47.148325987560561 $299 $368 forward 7 unknown #
coedge $-1 $210 $205 $365 $369 forward $126 $-1 #
vertex $-1 $369 $370 #
straight-curve $-1 21.638865279829481 31.07182009566375 8.4309416243882858 1 0 0 I I #
coedge $-1 $371 $207 $210 $310 reversed $297 $-1 #
coedge $-1 $207 $371 $300 $366 forward $297 $-1 #
vertex $-1 $208 $372 #
straight-curve $-1 29.592052812179645 35.352707754543701 68.539104318655973 0 0 1 I I #
straight-curve $-1 29.592052812179645 -18.00934621343022 51.096549484355791 0 0.75470957328743171 -0.6560590369687036 I I #
edge $-1 $373 -56.96340830713828 $211 -29.592052812179645 $305 $374 forward 7 unknown #
point $-1 29.592052812179645 35.352707754543701 8.4309416243882822 #
point $-1 29.592052812179645 31.071820095663753 8.4309416243882751 #
edge $-1 $375 1 $375 0 $214 $-1 forward 7 unknown #
vertex $-1 $215 $376 #
ellipse-curve $-1 43.277730559658963 32.075628178798155 5.2627323255385337 0 0.6560590369687036 0.75470957328743171 0.5 0 0 1 I I #
point $-1 43.777730559658963 33.212263925103727 6.570282150690085 #
plane-surface $-1 56.96340830713828 0 0 -1 0 0 0 0 1 forward_v I I I I #
coedge $-1 $223 $221 $225 $322 reversed $141 $-1 #
edge $-1 $236 -8.4309416243882822 $324 8.4309416243882822 $235 $377 forward 7 unknown #
vertex $-1 $322 $378 #
straight-curve $-1 -56.96340830713828 -35.352707754543701 0 0 0 -1 I I #
edge $-1 $320 -35.352707754543701 $324 35.352707754543701 $318 $379 forward 7 unknown #
straight-curve $-1 0 -35.352707754543701 -8.4309416243882822 -1 0 0 I I #
vertex $-1 $228 $380 #
straight-curve $-1 0 35.352707754543701 -8.4309416243882822 1 0 0 I I #
point $-1 56.96340830713828 35.352707754543701 -8.4309416243882822 #
point $-1 56.96340830713828 -35.352707754543701 -8.4309416243882822 #
straight-curve $-1 -56.96340830713828 0 8.4309416243882822 0 -1 0 I I #
point $-1 -56.96340830713828 35.352707754543701 8.4309416243882822 #
point $-1 -56.96340830713828 -35.352707754543701 8.4309416243882822 #
straight-curve $-1 56.96340830713828 -35.352707754543701 0 0 0 -1 I I #
straight-curve $-1 56.96340830713828 35.352707754543701 0 0 0 -1 I I #
plane-surface $-1 0 35.352707754543701 0 0 -1 0 0 0 -1 forward_v I I I I #
coedge $-1 $344 $343 $251 $336 forward $246 $-1 #
straight-curve $-1 -47.311301381542179 -35.352707754543701 3.1623738992902464 0 0 1 I I #
edge $-1 $339 -35.352707754543701 $337 35.352707754543701 $334 $381 forward 7 unknown #
vertex $-1 $252 $382 #
straight-curve $-1 -26.068677422170115 -35.352707754543701 4.7185539727727033 1 0 0 I I #
vertex $-1 $254 $383 #
straight-curve $-1 -26.068677422170115 35.352707754543701 4.7185539727727033 -1 0 0 I I #
point $-1 -47.311301381542179 35.352707754543701 4.7185539727727033 #
point $-1 -47.311301381542179 -35.352707754543701 4.7185539727727033 #
coedge $-1 $334 $258 $261 $346 forward $246 $-1 #
coedge $-1 $258 $334 $265 $348 reversed $246 $-1 #
straight-curve $-1 -56.96340830713828 0 7.9309416243882822 0 1 0 I I #
edge $-1 $263 -7.9309416243882822 $339 -4.7185539727727033 $261 $384 forward 7 unknown #
point $-1 -56.96340830713828 35.352707754543701 7.9309416243882822 #
edge $-1 $266 -7.9309416243882822 $337 -4.7185539727727033 $344 $385 forward 7 unknown #
point $-1 -56.96340830713828 -35.352707754543701 7.9309416243882822 #
straight-curve $-1 -47.311301381542179 35.352707754543701 3.1623738992902464 0 0 -1 I I #
edge $-1 $352 23.299693350310825 $355 31.246569047933967 $272 $386 forward 7 unknown #
vertex $-1 $351 $387 #
straight-curve $-1 1.5255619874076558 -35.352707754543701 39.670963276561068 0 0 1 I I #
edge $-1 $355 -7.0229391415913369 $283 18.017693449958699 $282 $388 forward 7 unknown #
vertex $-1 $354 $389 #
straight-curve $-1 1.5255619874076558 -35.352707754543701 0.20171074425124402 0 -0.69465836192734942 -0.71933980857756763 I I #
point $-1 1.5255619874076558 -35.352707754543701 0.20171074425124402 #
point $-1 -23.51507060414238 -27.405832056920559 8.4309416243882822 #
straight-curve $-1 0 -35.352707754543701 8.4309416243882822 1 0 0 I I #
vertex $-1 $289 $390 #
point $-1 -13.860604149413803 -26.771517214843563 -0.1333287607448248 #
vertex $-1 $293 $391 #
point $-1 -3.1289044673209361 -26.771517214843563 -0.1333287607448248 #
coedge $-1 $365 $299 $371 $392 reversed $201 $-1 #
coedge $-1 $299 $364 $302 $369 reversed $201 $-1 #
edge $-1 $367 -35.324543027308799 $307 -7.9531875323501637 $306 $393 forward 7 unknown #
vertex $-1 $301 $394 #
straight-curve $-1 56.96340830713828 -0.23058523274485765 35.641708019077342 0 0.75470957328743171 -0.6560590369687036 I I #
edge $-1 $303 31.071820095663753 $373 35.352707754543701 $365 $395 forward 7 unknown #
point $-1 56.96340830713828 31.071820095663753 8.4309416243882751 #
coedge $-1 $306 $305 $364 $392 forward $297 $-1 #
point $-1 29.592052812179645 35.352707754543701 4.709622676991863 #
vertex $-1 $369 $396 #
straight-curve $-1 0 35.352707754543701 8.4309416243882822 -1 0 0 I I #
vertex $-1 $313 $397 #
point $-1 43.777730559658963 32.075628178798155 5.2627323255385337 #
straight-curve $-1 -56.96340830713828 35.352707754543701 0 0 0 -1 I I #
point $-1 -56.96340830713828 -35.352707754543701 -8.4309416243882822 #
straight-curve $-1 -56.96340830713828 0 -8.4309416243882822 0 1 0 I I #
point $-1 -56.96340830713828 35.352707754543701 -8.4309416243882822 #
straight-curve $-1 -56.96340830713828 0 4.7185539727727033 0 -1 0 I I #
point $-1 -56.96340830713828 -35.352707754543701 4.7185539727727033 #
point $-1 -56.96340830713828 35.352707754543701 4.7185539727727033 #
straight-curve $-1 -56.96340830713828 35.352707754543701 0 0 0 -1 I I #
straight-curve $-1 -56.96340830713828 -35.352707754543701 0 0 0 -1 I I #
straight-curve $-1 1.5255619874076558 -58.652401104854526 8.4309416243882822 0 1 0 I I #
point $-1 1.5255619874076558 -35.352707754543701 8.4309416243882822 #
straight-curve $-1 -5.4973771541836811 -27.405832056920559 8.4309416243882822 -1 0 0 I I #
point $-1 1.5255619874076558 -27.405832056920559 8.4309416243882822 #
point $-1 -16.360604149413803 -24.973167693399645 -1.8699746655631977 #
point $-1 -5.6289044673209361 -24.973167693399645 -1.8699746655631977 #
edge $-1 $373 -8.4309416243882822 $367 -4.709622676991863 $364 $398 forward 7 unknown #
straight-curve $-1 21.638865279829481 35.352707754543701 4.7096226769918594 -1 0 0 I I #
point $-1 56.96340830713828 35.352707754543701 4.709622676991863 #
straight-curve $-1 56.96340830713828 0 8.4309416243882822 0 1 0 I I #
point $-1 56.96340830713828 35.352707754543701 8.4309416243882822 #
point $-1 43.277730559658963 31.747598660313802 4.8853775388948177 #
straight-curve $-1 56.96340830713828 35.352707754543701 0 0 0 -1 I I #
End-of-ACIS-data 