500 0 7 0           
7 Unknown 11 ACIS 5.0 NT 24 Thu Mar 25 15:54:16 1999 
-1 9.9999999999999995e-007 1e-010 
body $-1 $7 $-1 $8 #
body $-1 $9 $-1 $10 #
body $-1 $11 $-1 $12 #
body $-1 $13 $-1 $14 #
body $-1 $15 $-1 $16 #
body $-1 $17 $-1 $18 #
body $-1 $19 $-1 $20 #
lump $-1 $-1 $21 $0 #
transform $-1 1 0 0 0 1 0 0 0 1 40.463881344035158 22.697289734038261 10.35512325486266 1 rotate no_reflect no_shear #
lump $-1 $-1 $22 $1 #
transform $-1 1 0 0 0 1 0 0 0 1 40.463881344035158 22.697289734038261 10.35512325486266 1 rotate no_reflect no_shear #
lump $-1 $-1 $23 $2 #
transform $-1 1 0 0 0 1 0 0 0 1 40.463881344035158 22.697289734038261 10.35512325486266 1 rotate no_reflect no_shear #
lump $-1 $-1 $24 $3 #
transform $-1 1 0 0 0 1 0 0 0 1 40.463881344035158 22.697289734038261 10.35512325486266 1 rotate no_reflect no_shear #
lump $-1 $-1 $25 $4 #
transform $-1 1 0 0 0 1 0 0 0 1 40.463881344035158 22.697289734038261 10.35512325486266 1 rotate no_reflect no_shear #
lump $-1 $-1 $26 $5 #
transform $-1 1 0 0 0 1 0 0 0 1 40.463881344035158 22.697289734038261 10.35512325486266 1 rotate no_reflect no_shear #
lump $-1 $-1 $27 $6 #
transform $-1 1 0 0 0 1 0 0 0 1 40.463881344035158 22.697289734038261 10.35512325486266 1 rotate no_reflect no_shear #
shell $-1 $-1 $-1 $28 $-1 $7 #
shell $-1 $-1 $-1 $29 $-1 $9 #
shell $-1 $-1 $-1 $30 $-1 $11 #
shell $-1 $-1 $-1 $31 $-1 $13 #
shell $-1 $-1 $-1 $32 $-1 $15 #
shell $-1 $-1 $-1 $33 $-1 $17 #
shell $-1 $-1 $-1 $34 $-1 $19 #
face $-1 $35 $36 $21 $-1 $37 forward single #
face $-1 $38 $39 $22 $-1 $40 forward single #
face $-1 $41 $42 $23 $-1 $43 reversed single #
face $-1 $44 $45 $24 $-1 $46 forward single #
face $-1 $47 $48 $25 $-1 $49 forward single #
face $-1 $50 $51 $26 $-1 $52 reversed single #
face $-1 $53 $54 $27 $-1 $55 forward single #
face $-1 $56 $57 $21 $-1 $58 reversed single #
loop $-1 $-1 $59 $28 #
plane-surface $-1 0 0 10.35512325486266 0 0 1 1 0 0 forward_v I I I I #
face $-1 $60 $61 $22 $-1 $62 reversed single #
loop $-1 $-1 $63 $29 #
plane-surface $-1 -40.463881344035158 0 0 1 0 0 0 0 -1 forward_v I I I I #
face $-1 $64 $65 $23 $-1 $66 reversed single #
loop $-1 $-1 $67 $30 #
plane-surface $-1 -20.069513502486636 -88.989432637957961 47.096372796030231 -1 0 0 0 -0.81915205242281985 0.57357642473473569 forward_v I I I I #
face $-1 $68 $69 $24 $-1 $70 forward single #
loop $-1 $71 $72 $31 #
cone-surface $-1 -29.751940531369875 -17.833749463514692 4.4834048601502934 0 0.81915205242281985 -0.57357642473473569 1.5 0 0 1 I I 0 1 1.5 forward I I I I #
face $-1 $73 $74 $25 $-1 $75 forward single #
loop $-1 $76 $77 $32 #
cone-surface $-1 -23.94248431403993 -17.833749463514692 4.4834048601502934 0 0.81915205242281985 -0.57357642473473569 1.5 0 0 1 I I 0 1 1.5 forward I I I I #
face $-1 $78 $79 $26 $-1 $80 reversed single #
loop $-1 $-1 $81 $33 #
plane-surface $-1 -28.235874998850448 62.952172044321799 84.875825408067669 1 0 0 0 -0.81915205242281985 -0.57357642473473569 forward_v I I I I #
face $-1 $82 $83 $27 $-1 $84 forward single #
loop $-1 $85 $86 $34 #
cone-surface $-1 -20.760633046193245 17.91978844102114 4.6951330102913156 0 -0.81915205242281985 -0.57357642473473569 1.5 0 0 1 I I 0 1 1.5 forward I I I I #
face $-1 $87 $88 $21 $-1 $89 reversed single #
loop $-1 $-1 $90 $35 #
plane-surface $-1 0 0 -10.35512325486266 0 0 1 1 0 0 forward_v I I I I #
coedge $-1 $91 $92 $93 $94 forward $36 $-1 #
face $-1 $95 $96 $22 $-1 $97 reversed single #
loop $-1 $-1 $98 $38 #
plane-surface $-1 0 22.697289734038261 0 0 -1 0 0 0 -1 forward_v I I I I #
coedge $-1 $99 $100 $101 $102 forward $39 $-1 #
face $-1 $103 $104 $23 $-1 $105 reversed single #
loop $-1 $-1 $106 $41 #
plane-surface $-1 -26.847212422704903 -22.697289734038264 0.67811601162571833 0 -0.81915205242281985 0.57357642473473569 1 0 0 forward_v I I I I #
coedge $-1 $107 $108 $109 $110 reversed $42 $-1 #
face $-1 $-1 $111 $24 $-1 $112 forward single #
loop $-1 $113 $114 $44 #
cone-surface $-1 -29.751940531369875 -15.743801760930971 3.0200077685053426 0 0.81915205242281985 -0.57357642473473569 0.75 0 0 1 I I -0.70710678118654757 0.70710678118654757 0.75 forward I I I I #
loop $-1 $-1 $115 $31 #
coedge $-1 $72 $72 $116 $117 reversed $45 $-1 #
face $-1 $-1 $118 $25 $-1 $119 forward single #
loop $-1 $120 $121 $47 #
cone-surface $-1 -23.94248431403993 -15.743801760930971 3.0200077685053426 0 0.81915205242281985 -0.57357642473473569 0.75 0 0 1 I I -0.70710678118654757 0.70710678118654757 0.75 forward I I I I #
loop $-1 $-1 $122 $32 #
coedge $-1 $77 $77 $123 $124 reversed $48 $-1 #
face $-1 $125 $126 $26 $-1 $127 reversed single #
loop $-1 $-1 $128 $50 #
plane-surface $-1 -20.760633046193245 -3.3399708595978979 38.457568623663157 0 0.81915205242281985 0.57357642473473569 1 0 0 forward_v I I I I #
coedge $-1 $129 $130 $131 $132 reversed $51 $-1 #
face $-1 $-1 $133 $27 $-1 $134 forward single #
loop $-1 $135 $136 $53 #
cone-surface $-1 -20.760633046193245 15.707781657778387 3.1462692328415205 0 -0.81915205242281985 -0.57357642473473569 0.75 0 0 1 I I -0.70710678118654757 0.70710678118654757 0.75 forward I I I I #
loop $-1 $-1 $137 $34 #
coedge $-1 $86 $86 $138 $139 reversed $54 $-1 #
face $-1 $140 $141 $21 $-1 $142 reversed single #
loop $-1 $-1 $143 $56 #
plane-surface $-1 0 -22.697289734038261 0 0 1 0 0 0 1 forward_v I I I I #
coedge $-1 $144 $145 $146 $147 forward $57 $-1 #
coedge $-1 $148 $59 $149 $150 forward $36 $-1 #
coedge $-1 $59 $148 $151 $152 forward $36 $-1 #
coedge $-1 $153 $154 $59 $94 reversed $155 $-1 #
edge $-1 $156 -22.697289734038261 $157 22.697289734038261 $93 $158 forward 7 unknown #
face $-1 $159 $160 $22 $-1 $161 reversed single #
loop $-1 $-1 $101 $60 #
plane-surface $-1 -43.883366344591153 0 7.3551232548626597 0 0 1 1 0 0 forward_v I I I I #
coedge $-1 $162 $163 $99 $164 forward $61 $-1 #
coedge $-1 $165 $63 $98 $164 reversed $39 $-1 #
coedge $-1 $63 $165 $166 $167 reversed $39 $-1 #
coedge $-1 $168 $169 $63 $102 reversed $96 $-1 #
edge $-1 $170 -22.697289734038261 $171 22.697289734038261 $101 $172 forward 7 unknown #
face $-1 $173 $174 $23 $-1 $175 reversed single #
loop $-1 $-1 $176 $64 #
plane-surface $-1 -33.62491134292317 -88.989432637957961 47.096372796030231 1 0 0 0 0.81915205242281985 -0.57357642473473569 forward_v I I I I #
coedge $-1 $177 $178 $179 $180 reversed $65 $-1 #
coedge $-1 $108 $67 $181 $182 reversed $42 $-1 #
coedge $-1 $67 $107 $177 $183 reversed $42 $-1 #
coedge $-1 $179 $184 $67 $110 forward $185 $-1 #
edge $-1 $186 21.79742658494072 $187 28.573339799454637 $109 $188 forward 7 unknown #
loop $-1 $-1 $116 $68 #
plane-surface $-1 -26.847212422704903 -22.697289734038264 0.67811601162571833 0 -0.81915205242281985 0.57357642473473569 1 0 0 forward_v I I I I #
loop $-1 $-1 $189 $44 #
coedge $-1 $114 $114 $115 $190 reversed $69 $-1 #
coedge $-1 $115 $115 $114 $190 forward $71 $-1 #
coedge $-1 $116 $116 $72 $117 forward $111 $-1 #
edge $-1 $191 -1.843537323605064e-015 $191 6.2831853071795987 $116 $192 forward 7 unknown #
loop $-1 $-1 $123 $73 #
plane-surface $-1 -26.847212422704903 -22.697289734038264 0.67811601162571833 0 -0.81915205242281985 0.57357642473473569 1 0 0 forward_v I I I I #
loop $-1 $-1 $193 $47 #
coedge $-1 $121 $121 $122 $194 reversed $74 $-1 #
coedge $-1 $122 $122 $121 $194 forward $76 $-1 #
coedge $-1 $123 $123 $77 $124 forward $118 $-1 #
edge $-1 $195 -1.843537323605064e-015 $195 6.2831853071795987 $123 $196 forward 7 unknown #
face $-1 $197 $198 $26 $-1 $199 forward single #
loop $-1 $-1 $200 $78 #
plane-surface $-1 -13.285391093536042 62.952172044321799 84.875825408067669 -1 0 0 0 0.81915205242281985 0.57357642473473569 forward_v I I I I #
coedge $-1 $201 $202 $203 $204 reversed $79 $-1 #
coedge $-1 $130 $81 $205 $206 reversed $51 $-1 #
coedge $-1 $81 $129 $201 $207 reversed $51 $-1 #
coedge $-1 $203 $208 $81 $132 forward $198 $-1 #
edge $-1 $209 8.7787962881226385 $210 15.138513386305572 $131 $211 forward 7 unknown #
loop $-1 $-1 $138 $82 #
plane-surface $-1 -20.760633046193245 -3.3399708595978979 38.457568623663157 0 0.81915205242281985 0.57357642473473569 1 0 0 forward_v I I I I #
loop $-1 $-1 $212 $53 #
coedge $-1 $136 $136 $137 $213 reversed $83 $-1 #
coedge $-1 $137 $137 $136 $213 forward $85 $-1 #
coedge $-1 $138 $138 $86 $139 forward $133 $-1 #
edge $-1 $214 -1.3605149360968598e-015 $214 6.2831853071795987 $138 $215 forward 7 unknown #
face $-1 $216 $217 $21 $-1 $218 reversed single #
loop $-1 $-1 $219 $87 #
plane-surface $-1 -40.463881344035158 0 0 1 0 0 0 0 -1 forward_v I I I I #
coedge $-1 $220 $151 $221 $222 forward $88 $-1 #
coedge $-1 $223 $90 $220 $224 forward $57 $-1 #
coedge $-1 $90 $223 $225 $226 forward $57 $-1 #
coedge $-1 $154 $153 $90 $147 reversed $155 $-1 #
edge $-1 $227 -22.697289734038261 $228 22.697289734038261 $146 $229 forward 7 unknown #
coedge $-1 $92 $91 $230 $231 forward $36 $-1 #
coedge $-1 $232 $233 $91 $150 reversed $217 $-1 #
edge $-1 $157 -40.463881344035158 $234 40.463881344035158 $149 $235 forward 7 unknown #
coedge $-1 $143 $236 $92 $152 reversed $88 $-1 #
edge $-1 $237 -40.463881344035158 $156 40.463881344035158 $151 $238 forward 7 unknown #
coedge $-1 $146 $93 $236 $239 forward $155 $-1 #
coedge $-1 $93 $146 $232 $240 reversed $155 $-1 #
loop $-1 $-1 $153 $216 #
vertex $-1 $94 $241 #
vertex $-1 $94 $242 #
straight-curve $-1 40.463881344035158 0 10.35512325486266 0 1 0 I I #
face $-1 $243 $244 $22 $-1 $245 forward single #
loop $-1 $-1 $246 $95 #
plane-surface $-1 -47.302851345147147 0 8.8551232548626597 1 0 0 0 0 -1 forward_v I I I I #
coedge $-1 $247 $98 $169 $248 reversed $61 $-1 #
coedge $-1 $98 $247 $249 $250 reversed $61 $-1 #
edge $-1 $251 -10.35512325486266 $171 -7.3551232548626597 $98 $252 forward 7 unknown #
coedge $-1 $100 $99 $253 $254 reversed $39 $-1 #
coedge $-1 $255 $256 $100 $167 forward $257 $-1 #
edge $-1 $170 7.3551232548626597 $258 10.35512325486266 $166 $259 forward 7 unknown #
coedge $-1 $260 $101 $256 $261 forward $96 $-1 #
coedge $-1 $101 $260 $162 $248 forward $96 $-1 #
vertex $-1 $167 $262 #
vertex $-1 $164 $263 #
straight-curve $-1 -40.463881344035158 0 7.3551232548626597 0 1 0 I I #
face $-1 $-1 $185 $23 $-1 $264 forward single #
loop $-1 $-1 $265 $103 #
plane-surface $-1 0 -22.697289734038261 0 0 1 0 0 0 1 forward_v I I I I #
coedge $-1 $266 $267 $268 $269 reversed $104 $-1 #
coedge $-1 $270 $106 $108 $183 forward $65 $-1 #
coedge $-1 $106 $270 $266 $271 forward $65 $-1 #
coedge $-1 $268 $109 $106 $180 forward $185 $-1 #
edge $-1 $187 6.6459072911341845 $272 20.20130513157072 $179 $273 forward 7 unknown #
coedge $-1 $274 $275 $107 $182 forward $174 $-1 #
edge $-1 $276 -22.870070386389393 $186 -13.193063143152456 $181 $277 forward 7 unknown #
edge $-1 $187 -11.81344442050178 $276 -6.2211835686289132e-015 $108 $278 forward 7 unknown #
coedge $-1 $109 $268 $274 $279 forward $185 $-1 #
loop $-1 $-1 $268 $173 #
vertex $-1 $182 $280 #
vertex $-1 $110 $281 #
straight-curve $-1 -20.069513502486636 -44.49471631897898 10.355123254862658 0 1 0 I I #
coedge $-1 $189 $189 $-1 $282 reversed $113 $-1 #
edge $-1 $283 0 $283 6.2831853071796004 $114 $284 forward 7 unknown #
vertex $-1 $117 $285 #
ellipse-curve $-1 -29.751940531369875 -19.309333126781301 5.5166196332441926 0 -0.81915205242281985 0.57357642473473569 1.5 0 0 1 I I #
coedge $-1 $193 $193 $-1 $286 reversed $120 $-1 #
edge $-1 $287 0 $287 6.2831853071796004 $121 $288 forward 7 unknown #
vertex $-1 $124 $289 #
ellipse-curve $-1 -23.94248431403993 -19.309333126781301 5.5166196332441926 0 -0.81915205242281985 0.57357642473473569 1.5 0 0 1 I I #
face $-1 $-1 $290 $26 $-1 $291 reversed single #
loop $-1 $-1 $131 $125 #
plane-surface $-1 0 0 10.35512325486266 0 0 1 1 0 0 forward_v I I I I #
coedge $-1 $292 $293 $294 $295 reversed $126 $-1 #
coedge $-1 $296 $128 $130 $207 forward $79 $-1 #
coedge $-1 $128 $296 $292 $297 forward $79 $-1 #
coedge $-1 $294 $131 $128 $204 forward $198 $-1 #
edge $-1 $210 -17.855558475753824 $298 -2.9050745704394192 $203 $299 forward 7 unknown #
coedge $-1 $300 $301 $129 $206 forward $290 $-1 #
edge $-1 $302 -41.165407020516341 $209 -32.082789449171173 $205 $303 forward 7 unknown #
edge $-1 $210 34.306750847637403 $302 45.394579468076508 $130 $304 forward 7 unknown #
coedge $-1 $131 $294 $300 $305 forward $198 $-1 #
vertex $-1 $206 $306 #
vertex $-1 $132 $307 #
straight-curve $-1 -28.235874998850448 31.476086022160899 10.355123254862661 0 -1 0 I I #
coedge $-1 $212 $212 $-1 $308 reversed $135 $-1 #
edge $-1 $309 0 $309 6.2831853071796004 $136 $310 forward 7 unknown #
vertex $-1 $139 $311 #
ellipse-curve $-1 -20.760633046193245 19.517431184946798 5.8138144691900724 0 0.81915205242281985 0.57357642473473569 1.5 0 0 1 I I #
face $-1 $-1 $155 $21 $-1 $312 reversed single #
loop $-1 $-1 $232 $140 #
plane-surface $-1 0 22.697289734038261 0 0 -1 0 0 0 -1 forward_v I I I I #
coedge $-1 $313 $230 $233 $314 forward $141 $-1 #
coedge $-1 $236 $143 $144 $224 reversed $88 $-1 #
coedge $-1 $230 $313 $143 $222 reversed $141 $-1 #
edge $-1 $237 -10.35512325486266 $315 10.35512325486266 $221 $316 forward 7 unknown #
coedge $-1 $145 $144 $313 $317 forward $57 $-1 #
edge $-1 $228 -40.463881344035158 $315 40.463881344035158 $220 $318 forward 7 unknown #
coedge $-1 $233 $232 $145 $226 reversed $217 $-1 #
edge $-1 $319 -40.463881344035158 $227 40.463881344035158 $225 $320 forward 7 unknown #
vertex $-1 $147 $321 #
vertex $-1 $239 $322 #
straight-curve $-1 40.463881344035158 0 -10.35512325486266 0 -1 0 I I #
coedge $-1 $219 $221 $148 $231 reversed $141 $-1 #
edge $-1 $234 -22.697289734038261 $237 22.697289734038261 $230 $323 forward 7 unknown #
coedge $-1 $225 $149 $154 $240 forward $217 $-1 #
coedge $-1 $149 $225 $219 $314 reversed $217 $-1 #
vertex $-1 $150 $324 #
straight-curve $-1 0 22.697289734038261 10.35512325486266 -1 0 0 I I #
coedge $-1 $151 $220 $153 $239 reversed $88 $-1 #
vertex $-1 $231 $325 #
straight-curve $-1 0 -22.697289734038261 10.35512325486266 1 0 0 I I #
edge $-1 $156 -10.35512325486266 $228 10.35512325486266 $153 $326 forward 7 unknown #
edge $-1 $157 -10.35512325486266 $227 10.35512325486266 $154 $327 forward 7 unknown #
point $-1 40.463881344035158 -22.697289734038261 10.35512325486266 #
point $-1 40.463881344035158 22.697289734038261 10.35512325486266 #
face $-1 $-1 $257 $22 $-1 $328 reversed single #
loop $-1 $-1 $253 $159 #
plane-surface $-1 0 0 10.35512325486266 0 0 1 1 0 0 forward_v I I I I #
coedge $-1 $329 $330 $247 $331 forward $160 $-1 #
coedge $-1 $163 $162 $246 $331 reversed $61 $-1 #
edge $-1 $332 -3.4194850005559942 $171 3.4194850005559942 $162 $333 forward 7 unknown #
coedge $-1 $334 $253 $163 $250 forward $244 $-1 #
edge $-1 $251 40.463881344035158 $335 47.302851345147147 $163 $336 forward 7 unknown #
vertex $-1 $250 $337 #
straight-curve $-1 -40.463881344035158 22.697289734038261 0 0 0 -1 I I #
coedge $-1 $249 $338 $165 $254 forward $244 $-1 #
edge $-1 $258 -22.697289734038261 $251 22.697289734038261 $253 $339 forward 7 unknown #
coedge $-1 $340 $166 $338 $341 reversed $257 $-1 #
coedge $-1 $166 $340 $168 $261 reversed $257 $-1 #
loop $-1 $-1 $166 $243 #
vertex $-1 $167 $342 #
straight-curve $-1 -40.463881344035158 -22.697289734038261 0 0 0 1 I I #
coedge $-1 $169 $168 $329 $343 forward $96 $-1 #
edge $-1 $170 -3.4194850005559942 $344 3.4194850005559942 $256 $345 forward 7 unknown #
point $-1 -40.463881344035158 -22.697289734038261 7.3551232548626597 #
point $-1 -40.463881344035158 22.697289734038261 7.3551232548626597 #
plane-surface $-1 0 0 10.35512325486266 0 0 1 1 0 0 forward_v I I I I #
coedge $-1 $275 $274 $267 $346 forward $174 $-1 #
coedge $-1 $267 $176 $178 $271 reversed $104 $-1 #
coedge $-1 $176 $266 $265 $346 reversed $104 $-1 #
coedge $-1 $184 $179 $176 $269 forward $185 $-1 #
edge $-1 $272 -28.573339799454637 $347 -21.79742658494072 $268 $348 forward 7 unknown #
coedge $-1 $178 $177 $275 $349 reversed $65 $-1 #
edge $-1 $350 6.2211835686289132e-015 $272 11.81344442050178 $266 $351 forward 7 unknown #
vertex $-1 $180 $352 #
straight-curve $-1 -13.423606211352451 -15.921376519524342 10.35512325486266 -1 0 0 I I #
coedge $-1 $265 $181 $184 $279 reversed $174 $-1 #
coedge $-1 $181 $265 $270 $349 forward $174 $-1 #
vertex $-1 $182 $353 #
straight-curve $-1 -20.069513502486636 -22.697289734038257 23.548186398015115 0 0 1 I I #
straight-curve $-1 -20.069513502486636 -22.697289734038264 0.67811601162571833 0 -0.57357642473473569 -0.81915205242281985 I I #
edge $-1 $347 -33.62491134292317 $186 -20.069513502486636 $274 $354 forward 7 unknown #
point $-1 -20.069513502486636 -22.697289734038261 10.35512325486266 #
point $-1 -20.069513502486636 -15.921376519524344 10.35512325486266 #
edge $-1 $355 1 $355 0 $189 $-1 forward 7 unknown #
vertex $-1 $190 $356 #
ellipse-curve $-1 -29.751940531369875 -16.358165800248084 3.4501900870563942 0 -0.81915205242281985 0.57357642473473569 1.5 0 0 1 I I #
point $-1 -28.251940531369875 -19.309333126781304 5.5166196332441917 #
edge $-1 $357 1 $357 0 $193 $-1 forward 7 unknown #
vertex $-1 $194 $358 #
ellipse-curve $-1 -23.94248431403993 -16.358165800248084 3.4501900870563942 0 -0.81915205242281985 0.57357642473473569 1.5 0 0 1 I I #
point $-1 -22.44248431403993 -19.309333126781304 5.5166196332441917 #
loop $-1 $-1 $205 $197 #
plane-surface $-1 0 22.697289734038261 0 0 -1 0 0 0 -1 forward_v I I I I #
coedge $-1 $293 $200 $202 $297 reversed $126 $-1 #
coedge $-1 $200 $292 $359 $360 reversed $126 $-1 #
coedge $-1 $208 $203 $200 $295 forward $198 $-1 #
edge $-1 $298 -15.138513386305572 $361 -8.7787962881226385 $294 $362 forward 7 unknown #
coedge $-1 $202 $201 $301 $363 reversed $79 $-1 #
edge $-1 $364 -45.394579468076508 $298 -34.306750847637403 $292 $365 forward 7 unknown #
vertex $-1 $204 $366 #
straight-curve $-1 -10.380316523096623 16.337572635855331 10.355123254862661 1 0 0 I I #
coedge $-1 $359 $205 $208 $305 reversed $290 $-1 #
coedge $-1 $205 $359 $296 $363 forward $290 $-1 #
vertex $-1 $206 $367 #
straight-curve $-1 -28.235874998850448 22.697289734038261 42.437912704033835 0 0 1 I I #
straight-curve $-1 -28.235874998850448 -3.3399708595978979 38.457568623663157 0 0.57357642473473569 -0.81915205242281985 I I #
edge $-1 $361 13.285391093536042 $209 28.235874998850448 $300 $368 forward 7 unknown #
point $-1 -28.235874998850448 22.697289734038261 10.35512325486266 #
point $-1 -28.235874998850448 16.337572635855327 10.355123254862665 #
edge $-1 $369 1 $369 0 $212 $-1 forward 7 unknown #
vertex $-1 $213 $370 #
ellipse-curve $-1 -20.760633046193245 16.3221456970955 3.5764515513925721 0 0.81915205242281985 0.57357642473473569 1.5 0 0 1 I I #
point $-1 -19.260633046193245 19.517431184946776 5.81381446919006 #
plane-surface $-1 40.463881344035158 0 0 -1 0 0 0 0 1 forward_v I I I I #
coedge $-1 $221 $219 $223 $317 reversed $141 $-1 #
edge $-1 $234 -10.35512325486266 $319 10.35512325486266 $233 $371 forward 7 unknown #
vertex $-1 $317 $372 #
straight-curve $-1 -40.463881344035158 -22.697289734038261 0 0 0 -1 I I #
edge $-1 $315 -22.697289734038261 $319 22.697289734038261 $313 $373 forward 7 unknown #
straight-curve $-1 0 -22.697289734038261 -10.35512325486266 -1 0 0 I I #
vertex $-1 $226 $374 #
straight-curve $-1 0 22.697289734038261 -10.35512325486266 1 0 0 I I #
point $-1 40.463881344035158 22.697289734038261 -10.35512325486266 #
point $-1 40.463881344035158 -22.697289734038261 -10.35512325486266 #
straight-curve $-1 -40.463881344035158 0 10.35512325486266 0 -1 0 I I #
point $-1 -40.463881344035158 22.697289734038261 10.35512325486266 #
point $-1 -40.463881344035158 -22.697289734038261 10.35512325486266 #
straight-curve $-1 40.463881344035158 -22.697289734038261 0 0 0 -1 I I #
straight-curve $-1 40.463881344035158 22.697289734038261 0 0 0 -1 I I #
plane-surface $-1 0 -22.697289734038261 0 0 1 0 0 0 1 forward_v I I I I #
coedge $-1 $375 $246 $260 $343 reversed $160 $-1 #
coedge $-1 $246 $375 $334 $376 reversed $160 $-1 #
edge $-1 $335 -1.5 $332 1.5 $247 $377 forward 7 unknown #
vertex $-1 $248 $378 #
straight-curve $-1 -43.883366344591153 22.697289734038261 7.3551232548626597 1 0 0 I I #
coedge $-1 $338 $249 $330 $376 forward $244 $-1 #
vertex $-1 $250 $379 #
straight-curve $-1 0 22.697289734038261 10.35512325486266 -1 0 0 I I #
point $-1 -40.463881344035158 22.697289734038261 10.35512325486266 #
coedge $-1 $253 $334 $255 $341 forward $244 $-1 #
straight-curve $-1 -40.463881344035158 0 10.35512325486266 0 1 0 I I #
coedge $-1 $256 $255 $375 $380 forward $257 $-1 #
edge $-1 $381 -47.302851345147147 $258 -40.463881344035158 $255 $382 forward 7 unknown #
point $-1 -40.463881344035158 -22.697289734038261 10.35512325486266 #
edge $-1 $344 -22.697289734038261 $332 22.697289734038261 $329 $383 forward 7 unknown #
vertex $-1 $343 $384 #
straight-curve $-1 -43.883366344591153 -22.697289734038261 7.3551232548626597 -1 0 0 I I #
edge $-1 $347 13.193063143152456 $350 22.870070386389393 $265 $385 forward 7 unknown #
vertex $-1 $279 $386 #
straight-curve $-1 -33.62491134292317 -44.49471631897898 10.355123254862658 0 -1 0 I I #
edge $-1 $350 -20.20130513157072 $276 -6.6459072911341845 $275 $387 forward 7 unknown #
vertex $-1 $349 $388 #
straight-curve $-1 -33.62491134292317 -22.697289734038264 0.67811601162571833 0 0.57357642473473569 0.81915205242281985 I I #
point $-1 -33.62491134292317 -15.921376519524344 10.35512325486266 #
point $-1 -20.069513502486636 -22.697289734038261 0.67811601162572344 #
straight-curve $-1 0 -22.697289734038261 10.35512325486266 1 0 0 I I #
vertex $-1 $282 $389 #
point $-1 -28.251940531369875 -16.358165800248084 3.4501900870563942 #
vertex $-1 $286 $390 #
point $-1 -22.44248431403993 -16.358165800248084 3.4501900870563942 #
coedge $-1 $301 $300 $293 $360 forward $290 $-1 #
edge $-1 $361 32.082789449171173 $364 41.165407020516341 $359 $391 forward 7 unknown #
vertex $-1 $305 $392 #
straight-curve $-1 -13.285391093536042 31.476086022160899 10.355123254862661 0 1 0 I I #
edge $-1 $364 2.9050745704394192 $302 17.855558475753824 $301 $393 forward 7 unknown #
vertex $-1 $363 $394 #
straight-curve $-1 -13.285391093536042 -3.3399708595978979 38.457568623663157 0 -0.57357642473473569 0.81915205242281985 I I #
point $-1 -13.285391093536042 16.337572635855327 10.355123254862665 #
point $-1 -28.235874998850448 22.697289734038261 1.2725056835174939 #
straight-curve $-1 0 22.697289734038261 10.35512325486266 -1 0 0 I I #
vertex $-1 $308 $395 #
point $-1 -19.260633046193245 16.3221456970955 3.5764515513925721 #
straight-curve $-1 -40.463881344035158 22.697289734038261 0 0 0 -1 I I #
point $-1 -40.463881344035158 -22.697289734038261 -10.35512325486266 #
straight-curve $-1 -40.463881344035158 0 -10.35512325486266 0 1 0 I I #
point $-1 -40.463881344035158 22.697289734038261 -10.35512325486266 #
coedge $-1 $330 $329 $340 $380 reversed $160 $-1 #
edge $-1 $335 -22.697289734038261 $381 22.697289734038261 $330 $396 forward 7 unknown #
straight-curve $-1 -47.302851345147147 22.697289734038261 8.8551232548626597 0 0 -1 I I #
point $-1 -47.302851345147147 22.697289734038261 7.3551232548626597 #
point $-1 -47.302851345147147 22.697289734038261 10.35512325486266 #
edge $-1 $381 -1.5 $344 1.5 $375 $397 forward 7 unknown #
vertex $-1 $376 $398 #
straight-curve $-1 0 -22.697289734038261 10.35512325486266 1 0 0 I I #
straight-curve $-1 -47.302851345147147 0 7.3551232548626597 0 1 0 I I #
point $-1 -47.302851345147147 -22.697289734038261 7.3551232548626597 #
straight-curve $-1 -33.62491134292317 -22.697289734038257 23.548186398015115 0 0 -1 I I #
point $-1 -33.62491134292317 -22.697289734038261 10.35512325486266 #
straight-curve $-1 -13.423606211352451 -22.697289734038261 0.67811601162572765 1 0 0 I I #
point $-1 -33.62491134292317 -22.697289734038261 0.67811601162572344 #
point $-1 -29.751940531369875 -15.129437721613856 2.589825449954291 #
point $-1 -23.94248431403993 -15.129437721613856 2.589825449954291 #
straight-curve $-1 -13.285391093536042 22.697289734038261 42.437912704033835 0 0 -1 I I #
point $-1 -13.285391093536042 22.697289734038261 10.35512325486266 #
straight-curve $-1 -10.380316523096623 22.697289734038264 1.2725056835174904 -1 0 0 I I #
point $-1 -13.285391093536042 22.697289734038261 1.2725056835174939 #
point $-1 -20.760633046193245 15.093417618461272 2.7160869142904689 #
straight-curve $-1 -47.302851345147147 0 10.35512325486266 0 -1 0 I I #
straight-curve $-1 -47.302851345147147 -22.697289734038261 8.8551232548626597 0 0 -1 I I #
point $-1 -47.302851345147147 -22.697289734038261 10.35512325486266 #
End-of-ACIS-data 