500 0 15 0           
7 Unknown 11 ACIS 5.0 NT 24 Thu Mar 25 23:05:10 1999 
-1 9.9999999999999995e-007 1e-010 
body $-1 $15 $-1 $16 #
body $-1 $17 $-1 $18 #
body $-1 $19 $-1 $20 #
body $-1 $21 $-1 $22 #
body $-1 $23 $-1 $24 #
body $-1 $25 $-1 $26 #
body $-1 $27 $-1 $28 #
body $-1 $29 $-1 $30 #
body $-1 $31 $-1 $32 #
body $-1 $33 $-1 $34 #
body $-1 $35 $-1 $36 #
body $-1 $37 $-1 $38 #
body $-1 $39 $-1 $40 #
body $-1 $41 $-1 $42 #
body $-1 $43 $-1 $44 #
lump $-1 $-1 $45 $0 #
transform $-1 1 0 0 0 1 0 0 0 1 61.20670186468093 31.159062282318875 13.862440203228493 1 rotate no_reflect no_shear #
lump $-1 $-1 $46 $1 #
transform $-1 1 0 0 0 1 0 0 0 1 61.20670186468093 31.159062282318875 13.862440203228493 1 rotate no_reflect no_shear #
lump $-1 $-1 $47 $2 #
transform $-1 1 0 0 0 1 0 0 0 1 61.20670186468093 31.159062282318875 13.862440203228493 1 rotate no_reflect no_shear #
lump $-1 $-1 $48 $3 #
transform $-1 1 0 0 0 1 0 0 0 1 61.20670186468093 31.159062282318875 13.862440203228493 1 rotate no_reflect no_shear #
lump $-1 $-1 $49 $4 #
transform $-1 1 0 0 0 1 0 0 0 1 61.20670186468093 31.159062282318875 13.862440203228493 1 rotate no_reflect no_shear #
lump $-1 $-1 $50 $5 #
transform $-1 1 0 0 0 1 0 0 0 1 61.20670186468093 31.159062282318875 13.862440203228493 1 rotate no_reflect no_shear #
lump $-1 $-1 $51 $6 #
transform $-1 1 0 0 0 1 0 0 0 1 61.20670186468093 31.159062282318875 13.862440203228493 1 rotate no_reflect no_shear #
lump $-1 $-1 $52 $7 #
transform $-1 1 0 0 0 1 0 0 0 1 61.20670186468093 31.159062282318875 13.862440203228493 1 rotate no_reflect no_shear #
lump $-1 $-1 $53 $8 #
transform $-1 1 0 0 0 1 0 0 0 1 61.20670186468093 31.159062282318875 13.862440203228493 1 rotate no_reflect no_shear #
lump $-1 $-1 $54 $9 #
transform $-1 1 0 0 0 1 0 0 0 1 61.20670186468093 31.159062282318875 13.862440203228493 1 rotate no_reflect no_shear #
lump $-1 $-1 $55 $10 #
transform $-1 1 0 0 0 1 0 0 0 1 61.20670186468093 31.159062282318875 13.862440203228493 1 rotate no_reflect no_shear #
lump $-1 $-1 $56 $11 #
transform $-1 1 0 0 0 1 0 0 0 1 61.20670186468093 31.159062282318875 13.862440203228493 1 rotate no_reflect no_shear #
lump $-1 $-1 $57 $12 #
transform $-1 1 0 0 0 1 0 0 0 1 61.20670186468093 31.159062282318875 13.862440203228493 1 rotate no_reflect no_shear #
lump $-1 $-1 $58 $13 #
transform $-1 1 0 0 0 1 0 0 0 1 61.20670186468093 31.159062282318875 13.862440203228493 1 rotate no_reflect no_shear #
lump $-1 $-1 $59 $14 #
transform $-1 1 0 0 0 1 0 0 0 1 61.20670186468093 31.159062282318875 13.862440203228493 1 rotate no_reflect no_shear #
shell $-1 $-1 $-1 $60 $-1 $15 #
shell $-1 $-1 $-1 $61 $-1 $17 #
shell $-1 $-1 $-1 $62 $-1 $19 #
shell $-1 $-1 $-1 $63 $-1 $21 #
shell $-1 $-1 $-1 $64 $-1 $23 #
shell $-1 $-1 $-1 $65 $-1 $25 #
shell $-1 $-1 $-1 $66 $-1 $27 #
shell $-1 $-1 $-1 $67 $-1 $29 #
shell $-1 $-1 $-1 $68 $-1 $31 #
shell $-1 $-1 $-1 $69 $-1 $33 #
shell $-1 $-1 $-1 $70 $-1 $35 #
shell $-1 $-1 $-1 $71 $-1 $37 #
shell $-1 $-1 $-1 $72 $-1 $39 #
shell $-1 $-1 $-1 $73 $-1 $41 #
shell $-1 $-1 $-1 $74 $-1 $43 #
face $-1 $75 $76 $45 $-1 $77 forward single #
face $-1 $78 $79 $46 $-1 $80 forward single #
face $-1 $81 $82 $47 $-1 $83 forward single #
face $-1 $84 $85 $48 $-1 $86 reversed single #
face $-1 $87 $88 $49 $-1 $89 forward single #
face $-1 $90 $91 $50 $-1 $92 forward single #
face $-1 $93 $94 $51 $-1 $95 reversed single #
face $-1 $96 $97 $52 $-1 $98 forward single #
face $-1 $99 $100 $53 $-1 $101 forward single #
face $-1 $102 $103 $54 $-1 $104 reversed single #
face $-1 $105 $106 $55 $-1 $107 forward single #
face $-1 $108 $109 $56 $-1 $110 forward single #
face $-1 $111 $112 $57 $-1 $113 reversed single #
face $-1 $114 $115 $58 $-1 $116 forward single #
face $-1 $117 $118 $59 $-1 $119 forward single #
face $-1 $120 $121 $45 $-1 $122 reversed single #
loop $-1 $-1 $123 $60 #
plane-surface $-1 0 0 13.862440203228493 0 0 1 1 0 0 forward_v I I I I #
face $-1 $124 $125 $46 $-1 $126 reversed single #
loop $-1 $-1 $127 $61 #
plane-surface $-1 0 -31.159062282318875 0 0 1 0 0 0 1 forward_v I I I I #
face $-1 $128 $129 $47 $-1 $130 reversed single #
loop $-1 $-1 $131 $62 #
plane-surface $-1 0 31.159062282318875 0 0 -1 0 0 0 -1 forward_v I I I I #
face $-1 $132 $133 $48 $-1 $134 reversed single #
loop $-1 $-1 $135 $63 #
plane-surface $-1 -149.2635362706886 -8.1043199023868304 91.588363420247447 0 1 0 -0.71933980857756763 0 0.69465836192734942 forward_v I I I I #
face $-1 $136 $137 $49 $-1 $138 forward single #
loop $-1 $139 $140 $64 #
cone-surface $-1 -57.211914572545837 -5.7887999302763049 9.7582211740450315 0.71933980857756763 0 -0.69465836192734942 0.34732918096367471 0 0.35966990428878381 1 I I 0 1 0.5 forward I I I I #
face $-1 $141 $142 $50 $-1 $143 forward single #
loop $-1 $144 $145 $65 #
cone-surface $-1 -57.211914572545837 -2.3155199721105184 9.7582211740450315 0.71933980857756763 0 -0.69465836192734942 0.34732918096367471 0 0.35966990428878381 1 I I 0 1 0.5 forward I I I I #
face $-1 $146 $147 $51 $-1 $148 reversed single #
loop $-1 $-1 $149 $66 #
plane-surface $-1 -61.206701864680937 -4.0521599511934134 6.5528689076576541 -0.71933980857756763 0 0.69465836192734942 0.69465836192734942 0 0.71933980857756763 forward_v I I I I #
face $-1 $150 $151 $52 $-1 $152 forward single #
loop $-1 $153 $154 $67 #
cone-surface $-1 -57.211914572545837 2.3155199721105326 9.7582211740450315 0.71933980857756763 0 -0.69465836192734942 0.34732918096367471 0 0.35966990428878381 1 I I 0 1 0.5 forward I I I I #
face $-1 $155 $156 $53 $-1 $157 forward single #
loop $-1 $158 $159 $68 #
cone-surface $-1 -57.211914572545837 5.7887999302763156 9.7582211740450315 0.71933980857756763 0 -0.69465836192734942 0.34732918096367471 0 0.35966990428878381 1 I I 0 1 0.5 forward I I I I #
face $-1 $160 $161 $54 $-1 $162 reversed single #
loop $-1 $-1 $163 $69 #
plane-surface $-1 64.228041758098811 3.5527136788005009e-015 179.6451978262551 0 -1 0 -0.71933980857756763 0 -0.69465836192734942 forward_v I I I I #
face $-1 $164 $165 $55 $-1 $166 forward single #
loop $-1 $167 $168 $70 #
cone-surface $-1 57.21191457254583 -5.7887999302763049 9.7582211740450386 -0.71933980857756763 0 -0.69465836192734942 0.34732918096367471 0 -0.35966990428878381 1 I I 0 1 0.5 forward I I I I #
face $-1 $169 $170 $56 $-1 $171 forward single #
loop $-1 $172 $173 $71 #
cone-surface $-1 57.21191457254583 -2.3155199721105184 9.7582211740450386 -0.71933980857756763 0 -0.69465836192734942 0.34732918096367471 0 -0.35966990428878381 1 I I 0 1 0.5 forward I I I I #
face $-1 $174 $175 $57 $-1 $176 reversed single #
loop $-1 $-1 $177 $72 #
plane-surface $-1 64.228041758098811 8.1043199023868375 179.6451978262551 0 -1 0 -0.71933980857756763 0 -0.69465836192734942 forward_v I I I I #
face $-1 $178 $179 $58 $-1 $180 forward single #
loop $-1 $181 $182 $73 #
cone-surface $-1 57.21191457254583 2.3155199721105326 9.7582211740450386 -0.71933980857756763 0 -0.69465836192734942 0.34732918096367471 0 -0.35966990428878381 1 I I 0 1 0.5 forward I I I I #
face $-1 $183 $184 $59 $-1 $185 forward single #
loop $-1 $186 $187 $74 #
cone-surface $-1 57.21191457254583 5.7887999302763156 9.7582211740450386 -0.71933980857756763 0 -0.69465836192734942 0.34732918096367471 0 -0.35966990428878381 1 I I 0 1 0.5 forward I I I I #
face $-1 $188 $189 $45 $-1 $190 reversed single #
loop $-1 $-1 $191 $75 #
plane-surface $-1 0 0 -13.862440203228493 0 0 1 1 0 0 forward_v I I I I #
coedge $-1 $192 $193 $194 $195 forward $76 $-1 #
face $-1 $196 $197 $46 $-1 $198 reversed single #
loop $-1 $-1 $199 $78 #
plane-surface $-1 0 0 -13.862440203228493 0 0 1 1 0 0 forward_v I I I I #
coedge $-1 $200 $201 $202 $203 forward $79 $-1 #
face $-1 $204 $205 $47 $-1 $206 forward single #
loop $-1 $-1 $207 $81 #
plane-surface $-1 -61.20670186468093 0 0 1 0 0 0 0 -1 forward_v I I I I #
coedge $-1 $208 $209 $210 $211 forward $82 $-1 #
face $-1 $212 $213 $48 $-1 $214 reversed single #
loop $-1 $-1 $215 $84 #
plane-surface $-1 -61.206701864680937 -4.0521599511934134 6.5528689076576541 -0.71933980857756763 0 0.69465836192734942 0.69465836192734942 0 0.71933980857756763 forward_v I I I I #
coedge $-1 $216 $217 $218 $219 reversed $85 $-1 #
face $-1 $-1 $220 $49 $-1 $221 forward single #
loop $-1 $222 $223 $87 #
cone-surface $-1 -56.566677718887959 -5.7887999302763049 9.1351232021651629 0.71933980857756763 0 -0.69465836192734942 0.17366459048183736 0 0.17983495214439191 1 I I -0.70710678118654746 0.70710678118654746 0.25 forward I I I I #
loop $-1 $-1 $224 $64 #
coedge $-1 $140 $140 $225 $226 reversed $88 $-1 #
face $-1 $-1 $227 $50 $-1 $228 forward single #
loop $-1 $229 $230 $90 #
cone-surface $-1 -56.566677718887959 -2.3155199721105184 9.1351232021651629 0.71933980857756763 0 -0.69465836192734942 0.17366459048183736 0 0.17983495214439191 1 I I -0.70710678118654746 0.70710678118654746 0.25 forward I I I I #
loop $-1 $-1 $231 $65 #
coedge $-1 $145 $145 $232 $233 reversed $91 $-1 #
face $-1 $234 $235 $51 $-1 $236 forward single #
loop $-1 $-1 $237 $93 #
plane-surface $-1 -149.2635362706886 8.1043199023868375 91.588363420247447 0 -1 0 0.71933980857756763 0 -0.69465836192734942 forward_v I I I I #
coedge $-1 $238 $239 $240 $241 reversed $94 $-1 #
face $-1 $-1 $242 $52 $-1 $243 forward single #
loop $-1 $244 $245 $96 #
cone-surface $-1 -56.566677718887959 2.3155199721105326 9.1351232021651629 0.71933980857756763 0 -0.69465836192734942 0.17366459048183736 0 0.17983495214439191 1 I I -0.70710678118654746 0.70710678118654746 0.25 forward I I I I #
loop $-1 $-1 $246 $67 #
coedge $-1 $154 $154 $247 $248 reversed $97 $-1 #
face $-1 $-1 $249 $53 $-1 $250 forward single #
loop $-1 $251 $252 $99 #
cone-surface $-1 -56.566677718887959 5.7887999302763156 9.1351232021651629 0.71933980857756763 0 -0.69465836192734942 0.17366459048183736 0 0.17983495214439191 1 I I -0.70710678118654746 0.70710678118654746 0.25 forward I I I I #
loop $-1 $-1 $253 $68 #
coedge $-1 $159 $159 $254 $255 reversed $100 $-1 #
face $-1 $256 $257 $54 $-1 $258 reversed single #
loop $-1 $-1 $259 $102 #
plane-surface $-1 -23.828792647908855 -4.0521599511934134 94.609703313665307 0.71933980857756763 0 0.69465836192734942 0.69465836192734942 0 -0.71933980857756763 forward_v I I I I #
coedge $-1 $260 $261 $262 $263 reversed $103 $-1 #
face $-1 $-1 $264 $55 $-1 $265 forward single #
loop $-1 $266 $267 $105 #
cone-surface $-1 56.566677718887952 -5.7887999302763049 9.13512320216517 -0.71933980857756763 0 -0.69465836192734942 0.17366459048183736 0 -0.17983495214439191 1 I I -0.70710678118654746 0.70710678118654746 0.25 forward I I I I #
loop $-1 $-1 $268 $70 #
coedge $-1 $168 $168 $269 $270 reversed $106 $-1 #
face $-1 $-1 $271 $56 $-1 $272 forward single #
loop $-1 $273 $274 $108 #
cone-surface $-1 56.566677718887952 -2.3155199721105184 9.13512320216517 -0.71933980857756763 0 -0.69465836192734942 0.17366459048183736 0 -0.17983495214439191 1 I I -0.70710678118654746 0.70710678118654746 0.25 forward I I I I #
loop $-1 $-1 $275 $71 #
coedge $-1 $173 $173 $276 $277 reversed $109 $-1 #
face $-1 $278 $279 $57 $-1 $280 reversed single #
loop $-1 $-1 $281 $111 #
plane-surface $-1 -23.828792647908855 -4.0521599511934134 94.609703313665307 0.71933980857756763 0 0.69465836192734942 0.69465836192734942 0 -0.71933980857756763 forward_v I I I I #
coedge $-1 $282 $283 $284 $285 reversed $112 $-1 #
face $-1 $-1 $286 $58 $-1 $287 forward single #
loop $-1 $288 $289 $114 #
cone-surface $-1 56.566677718887952 2.3155199721105326 9.13512320216517 -0.71933980857756763 0 -0.69465836192734942 0.17366459048183736 0 -0.17983495214439191 1 I I -0.70710678118654746 0.70710678118654746 0.25 forward I I I I #
loop $-1 $-1 $290 $73 #
coedge $-1 $182 $182 $291 $292 reversed $115 $-1 #
face $-1 $-1 $293 $59 $-1 $294 forward single #
loop $-1 $295 $296 $117 #
cone-surface $-1 56.566677718887952 5.7887999302763156 9.13512320216517 -0.71933980857756763 0 -0.69465836192734942 0.17366459048183736 0 -0.17983495214439191 1 I I -0.70710678118654746 0.70710678118654746 0.25 forward I I I I #
loop $-1 $-1 $297 $74 #
coedge $-1 $187 $187 $298 $299 reversed $118 $-1 #
face $-1 $300 $301 $45 $-1 $302 reversed single #
loop $-1 $-1 $303 $120 #
plane-surface $-1 0 -31.159062282318875 0 0 1 0 0 0 1 forward_v I I I I #
coedge $-1 $304 $305 $306 $307 forward $121 $-1 #
coedge $-1 $308 $123 $309 $310 forward $76 $-1 #
coedge $-1 $123 $308 $311 $312 forward $76 $-1 #
coedge $-1 $313 $314 $123 $195 reversed $315 $-1 #
edge $-1 $316 -31.159062282318875 $317 31.159062282318875 $194 $318 forward 7 unknown #
face $-1 $319 $320 $46 $-1 $321 forward single #
loop $-1 $-1 $322 $124 #
plane-surface $-1 61.20670186468093 0 0 -1 0 0 0 0 1 forward_v I I I I #
coedge $-1 $323 $324 $325 $326 forward $125 $-1 #
coedge $-1 $325 $127 $322 $327 reversed $79 $-1 #
coedge $-1 $127 $325 $328 $329 reversed $79 $-1 #
coedge $-1 $330 $331 $127 $203 reversed $320 $-1 #
edge $-1 $332 -61.20670186468093 $333 61.20670186468093 $202 $334 forward 7 unknown #
face $-1 $335 $336 $47 $-1 $337 reversed single #
loop $-1 $-1 $338 $128 #
plane-surface $-1 0 38.518052065707181 -6.2244120676918921 0 0 1 1 0 0 forward_v I I I I #
coedge $-1 $339 $340 $208 $341 forward $129 $-1 #
coedge $-1 $342 $131 $207 $341 reversed $82 $-1 #
coedge $-1 $131 $342 $343 $344 reversed $82 $-1 #
coedge $-1 $338 $345 $131 $211 reversed $205 $-1 #
edge $-1 $346 -61.20670186468093 $347 61.20670186468093 $210 $348 forward 7 unknown #
face $-1 $349 $350 $48 $-1 $351 reversed single #
loop $-1 $-1 $352 $132 #
plane-surface $-1 -149.2635362706886 3.5527136788005009e-015 91.588363420247447 0 -1 0 0.71933980857756763 0 -0.69465836192734942 forward_v I I I I #
coedge $-1 $353 $354 $355 $356 reversed $133 $-1 #
coedge $-1 $217 $135 $357 $358 reversed $85 $-1 #
coedge $-1 $135 $216 $353 $359 reversed $85 $-1 #
coedge $-1 $355 $360 $135 $219 forward $361 $-1 #
edge $-1 $362 13.425066270663372 $363 20.483837051906569 $218 $364 forward 7 unknown #
loop $-1 $-1 $225 $136 #
plane-surface $-1 -61.206701864680937 -4.0521599511934134 6.5528689076576541 -0.71933980857756763 0 0.69465836192734942 0.69465836192734942 0 0.71933980857756763 forward_v I I I I #
loop $-1 $-1 $365 $87 #
coedge $-1 $223 $223 $224 $366 reversed $137 $-1 #
coedge $-1 $224 $224 $223 $366 forward $139 $-1 #
coedge $-1 $225 $225 $140 $226 forward $220 $-1 #
edge $-1 $367 0 $367 6.2831853071796004 $225 $368 forward 7 unknown #
loop $-1 $-1 $232 $141 #
plane-surface $-1 -61.206701864680937 -4.0521599511934134 6.5528689076576541 -0.71933980857756763 0 0.69465836192734942 0.69465836192734942 0 0.71933980857756763 forward_v I I I I #
loop $-1 $-1 $369 $90 #
coedge $-1 $230 $230 $231 $370 reversed $142 $-1 #
coedge $-1 $231 $231 $230 $370 forward $144 $-1 #
coedge $-1 $232 $232 $145 $233 forward $227 $-1 #
edge $-1 $371 0 $371 6.2831853071796004 $232 $372 forward 7 unknown #
face $-1 $373 $374 $51 $-1 $375 forward single #
loop $-1 $-1 $376 $146 #
plane-surface $-1 0 0 13.862440203228493 0 0 1 1 0 0 forward_v I I I I #
coedge $-1 $377 $378 $379 $380 reversed $147 $-1 #
coedge $-1 $381 $149 $382 $383 reversed $94 $-1 #
coedge $-1 $149 $381 $376 $384 reversed $94 $-1 #
coedge $-1 $385 $386 $149 $241 forward $374 $-1 #
edge $-1 $387 1.0047061284303404e-014 $388 10.161499764659052 $240 $389 forward 7 unknown #
loop $-1 $-1 $247 $150 #
plane-surface $-1 -61.206701864680937 -4.0521599511934134 6.5528689076576541 -0.71933980857756763 0 0.69465836192734942 0.69465836192734942 0 0.71933980857756763 forward_v I I I I #
loop $-1 $-1 $390 $96 #
coedge $-1 $245 $245 $246 $391 reversed $151 $-1 #
coedge $-1 $246 $246 $245 $391 forward $153 $-1 #
coedge $-1 $247 $247 $154 $248 forward $242 $-1 #
edge $-1 $392 0 $392 6.2831853071796004 $247 $393 forward 7 unknown #
loop $-1 $-1 $254 $155 #
plane-surface $-1 -61.206701864680937 -4.0521599511934134 6.5528689076576541 -0.71933980857756763 0 0.69465836192734942 0.69465836192734942 0 0.71933980857756763 forward_v I I I I #
loop $-1 $-1 $394 $99 #
coedge $-1 $252 $252 $253 $395 reversed $156 $-1 #
coedge $-1 $253 $253 $252 $395 forward $158 $-1 #
coedge $-1 $254 $254 $159 $255 forward $249 $-1 #
edge $-1 $396 0 $396 6.2831853071796004 $254 $397 forward 7 unknown #
face $-1 $398 $399 $54 $-1 $400 forward single #
loop $-1 $-1 $401 $160 #
plane-surface $-1 64.228041758098811 -8.1043199023868304 179.6451978262551 0 1 0 0.71933980857756763 0 0.69465836192734942 forward_v I I I I #
coedge $-1 $402 $403 $404 $405 reversed $161 $-1 #
coedge $-1 $261 $163 $406 $407 reversed $103 $-1 #
coedge $-1 $163 $260 $402 $408 reversed $103 $-1 #
coedge $-1 $404 $409 $163 $263 forward $399 $-1 #
edge $-1 $410 -29.092680985631524 $411 -22.033910204388334 $262 $412 forward 7 unknown #
loop $-1 $-1 $269 $164 #
plane-surface $-1 -23.828792647908855 -4.0521599511934134 94.609703313665307 0.71933980857756763 0 0.69465836192734942 0.69465836192734942 0 -0.71933980857756763 forward_v I I I I #
loop $-1 $-1 $413 $105 #
coedge $-1 $267 $267 $268 $414 reversed $165 $-1 #
coedge $-1 $268 $268 $267 $414 forward $167 $-1 #
coedge $-1 $269 $269 $168 $270 forward $264 $-1 #
edge $-1 $415 0 $415 6.2831853071796004 $269 $416 forward 7 unknown #
loop $-1 $-1 $276 $169 #
plane-surface $-1 -23.828792647908855 -4.0521599511934134 94.609703313665307 0.71933980857756763 0 0.69465836192734942 0.69465836192734942 0 -0.71933980857756763 forward_v I I I I #
loop $-1 $-1 $417 $108 #
coedge $-1 $274 $274 $275 $418 reversed $170 $-1 #
coedge $-1 $275 $275 $274 $418 forward $172 $-1 #
coedge $-1 $276 $276 $173 $277 forward $271 $-1 #
edge $-1 $419 0 $419 6.2831853071796004 $276 $420 forward 7 unknown #
face $-1 $421 $422 $57 $-1 $423 forward single #
loop $-1 $-1 $424 $174 #
plane-surface $-1 61.20670186468093 0 0 -1 0 0 0 0 1 forward_v I I I I #
coedge $-1 $425 $426 $427 $428 reversed $175 $-1 #
coedge $-1 $283 $177 $429 $430 reversed $112 $-1 #
coedge $-1 $177 $282 $431 $432 reversed $112 $-1 #
coedge $-1 $433 $424 $177 $285 forward $279 $-1 #
edge $-1 $434 -83.26973000546991 $435 -75.960158709899062 $284 $436 forward 7 unknown #
loop $-1 $-1 $291 $178 #
plane-surface $-1 -23.828792647908855 -4.0521599511934134 94.609703313665307 0.71933980857756763 0 0.69465836192734942 0.69465836192734942 0 -0.71933980857756763 forward_v I I I I #
loop $-1 $-1 $437 $114 #
coedge $-1 $289 $289 $290 $438 reversed $179 $-1 #
coedge $-1 $290 $290 $289 $438 forward $181 $-1 #
coedge $-1 $291 $291 $182 $292 forward $286 $-1 #
edge $-1 $439 0 $439 6.2831853071796004 $291 $440 forward 7 unknown #
loop $-1 $-1 $298 $183 #
plane-surface $-1 -23.828792647908855 -4.0521599511934134 94.609703313665307 0.71933980857756763 0 0.69465836192734942 0.69465836192734942 0 -0.71933980857756763 forward_v I I I I #
loop $-1 $-1 $441 $117 #
coedge $-1 $296 $296 $297 $442 reversed $184 $-1 #
coedge $-1 $297 $297 $296 $442 forward $186 $-1 #
coedge $-1 $298 $298 $187 $299 forward $293 $-1 #
edge $-1 $443 0 $443 6.2831853071796004 $298 $444 forward 7 unknown #
face $-1 $445 $446 $45 $-1 $447 reversed single #
loop $-1 $-1 $448 $188 #
plane-surface $-1 -61.20670186468093 0 0 1 0 0 0 0 -1 forward_v I I I I #
coedge $-1 $311 $449 $313 $450 reversed $189 $-1 #
coedge $-1 $451 $191 $449 $452 forward $121 $-1 #
coedge $-1 $191 $451 $453 $454 forward $121 $-1 #
coedge $-1 $314 $313 $191 $307 reversed $315 $-1 #
edge $-1 $455 -31.159062282318875 $456 31.159062282318875 $306 $457 forward 7 unknown #
coedge $-1 $193 $192 $458 $459 forward $76 $-1 #
coedge $-1 $460 $461 $192 $310 reversed $446 $-1 #
edge $-1 $317 -61.20670186468093 $462 61.20670186468093 $309 $463 forward 7 unknown #
coedge $-1 $464 $303 $193 $312 reversed $189 $-1 #
edge $-1 $465 -61.20670186468093 $316 61.20670186468093 $311 $466 forward 7 unknown #
coedge $-1 $306 $194 $303 $450 forward $315 $-1 #
coedge $-1 $194 $306 $460 $467 reversed $315 $-1 #
loop $-1 $-1 $313 $445 #
vertex $-1 $195 $468 #
vertex $-1 $195 $469 #
straight-curve $-1 61.20670186468093 0 13.862440203228493 0 1 0 I I #
face $-1 $470 $471 $46 $-1 $472 reversed single #
loop $-1 $-1 $331 $196 #
plane-surface $-1 0 -38.518052065707174 -6.2244120676918921 0 0 1 1 0 0 forward_v I I I I #
coedge $-1 $473 $474 $200 $327 forward $197 $-1 #
coedge $-1 $475 $199 $474 $476 forward $125 $-1 #
coedge $-1 $199 $475 $477 $478 forward $125 $-1 #
coedge $-1 $201 $200 $199 $326 reversed $79 $-1 #
edge $-1 $479 -61.20670186468093 $480 61.20670186468093 $199 $481 forward 7 unknown #
edge $-1 $480 -13.862440203228493 $333 -6.2244120676918921 $322 $482 forward 7 unknown #
coedge $-1 $477 $483 $201 $329 forward $484 $-1 #
edge $-1 $332 6.2244120676918921 $479 13.862440203228493 $328 $485 forward 7 unknown #
coedge $-1 $486 $202 $483 $487 forward $320 $-1 #
coedge $-1 $202 $486 $473 $488 forward $320 $-1 #
vertex $-1 $329 $489 #
vertex $-1 $488 $490 #
straight-curve $-1 0 -31.159062282318875 -6.2244120676918921 1 0 0 I I #
face $-1 $491 $492 $47 $-1 $493 reversed single #
loop $-1 $-1 $494 $204 #
plane-surface $-1 0 45.877041849095477 -10.043426135460193 0 -1 0 0 0 -1 forward_v I I I I #
coedge $-1 $495 $210 $496 $497 forward $205 $-1 #
coedge $-1 $498 $207 $345 $499 reversed $129 $-1 #
coedge $-1 $207 $498 $500 $501 reversed $129 $-1 #
edge $-1 $502 -13.862440203228493 $347 -6.2244120676918921 $207 $503 forward 7 unknown #
coedge $-1 $209 $208 $504 $505 reversed $82 $-1 #
coedge $-1 $506 $496 $209 $344 forward $507 $-1 #
edge $-1 $346 6.2244120676918921 $508 13.862440203228493 $343 $509 forward 7 unknown #
coedge $-1 $210 $495 $339 $499 forward $205 $-1 #
vertex $-1 $344 $510 #
vertex $-1 $499 $511 #
straight-curve $-1 0 31.159062282318875 -6.2244120676918921 -1 0 0 I I #
face $-1 $-1 $361 $48 $-1 $512 forward single #
loop $-1 $-1 $513 $212 #
plane-surface $-1 -61.20670186468093 0 0 1 0 0 0 0 -1 forward_v I I I I #
coedge $-1 $514 $515 $516 $517 reversed $213 $-1 #
coedge $-1 $518 $215 $217 $359 forward $133 $-1 #
coedge $-1 $215 $518 $514 $519 forward $133 $-1 #
coedge $-1 $516 $218 $215 $356 forward $361 $-1 #
edge $-1 $363 -6.0782399267901237 $520 2.0260799755967103 $355 $521 forward 7 unknown #
coedge $-1 $522 $523 $216 $358 forward $350 $-1 #
edge $-1 $524 -39.241312802466062 $362 -31.931741506895229 $357 $525 forward 7 unknown #
edge $-1 $363 -10.161499764659052 $524 -1.0047061284303404e-014 $217 $526 forward 7 unknown #
coedge $-1 $218 $516 $522 $527 forward $361 $-1 #
loop $-1 $-1 $516 $349 #
vertex $-1 $358 $528 #
vertex $-1 $219 $529 #
straight-curve $-1 -74.631768135344302 -8.1043199023868304 13.862440203228495 1 0 0 I I #
coedge $-1 $365 $365 $-1 $530 reversed $222 $-1 #
edge $-1 $531 0 $531 6.2831853071796004 $223 $532 forward 7 unknown #
vertex $-1 $226 $533 #
ellipse-curve $-1 -57.677316474059332 -5.7887999302763049 10.207654555443076 -0.71933980857756763 0 0.69465836192734942 0.34732918096367471 0 0.35966990428878381 1 I I #
coedge $-1 $369 $369 $-1 $534 reversed $229 $-1 #
edge $-1 $535 0 $535 6.2831853071796004 $230 $536 forward 7 unknown #
vertex $-1 $233 $537 #
ellipse-curve $-1 -57.677316474059332 -2.3155199721105184 10.207654555443076 -0.71933980857756763 0 0.69465836192734942 0.34732918096367471 0 0.35966990428878381 1 I I #
face $-1 $-1 $538 $51 $-1 $539 reversed single #
loop $-1 $-1 $385 $234 #
plane-surface $-1 -149.2635362706886 3.5527136788005009e-015 91.588363420247447 0 -1 0 0.71933980857756763 0 -0.69465836192734942 forward_v I I I I #
coedge $-1 $379 $540 $239 $384 forward $235 $-1 #
coedge $-1 $378 $237 $381 $541 reversed $147 $-1 #
coedge $-1 $237 $377 $542 $543 reversed $147 $-1 #
coedge $-1 $544 $376 $237 $380 forward $235 $-1 #
edge $-1 $545 -20.483837051906569 $546 -13.425066270663372 $379 $547 forward 7 unknown #
coedge $-1 $239 $238 $377 $541 forward $94 $-1 #
coedge $-1 $548 $542 $238 $383 forward $538 $-1 #
edge $-1 $549 -10.130399877983544 $387 -2.0260799755967103 $382 $550 forward 7 unknown #
edge $-1 $388 2.0260799755967103 $545 10.130399877983544 $376 $551 forward 7 unknown #
coedge $-1 $386 $240 $540 $552 reversed $374 $-1 #
coedge $-1 $240 $385 $548 $553 reversed $374 $-1 #
vertex $-1 $383 $554 #
vertex $-1 $384 $555 #
straight-curve $-1 -61.206701864680937 3.5527136788005009e-015 6.5528689076576541 0.69465836192734942 0 0.71933980857756763 I I #
coedge $-1 $390 $390 $-1 $556 reversed $244 $-1 #
edge $-1 $557 0 $557 6.2831853071796004 $245 $558 forward 7 unknown #
vertex $-1 $248 $559 #
ellipse-curve $-1 -57.677316474059332 2.3155199721105326 10.207654555443076 -0.71933980857756763 0 0.69465836192734942 0.34732918096367471 0 0.35966990428878381 1 I I #
coedge $-1 $394 $394 $-1 $560 reversed $251 $-1 #
edge $-1 $561 0 $561 6.2831853071796004 $252 $562 forward 7 unknown #
vertex $-1 $255 $563 #
ellipse-curve $-1 -57.677316474059332 5.7887999302763156 10.207654555443076 -0.71933980857756763 0 0.69465836192734942 0.34732918096367471 0 0.35966990428878381 1 I I #
face $-1 $-1 $564 $54 $-1 $565 reversed single #
loop $-1 $-1 $262 $256 #
plane-surface $-1 0 0 13.862440203228493 0 0 1 1 0 0 forward_v I I I I #
coedge $-1 $566 $567 $568 $569 reversed $257 $-1 #
coedge $-1 $570 $259 $261 $408 forward $161 $-1 #
coedge $-1 $259 $570 $566 $571 forward $161 $-1 #
coedge $-1 $568 $262 $259 $405 forward $399 $-1 #
edge $-1 $411 -2.0260799755967103 $572 6.0782399267901237 $404 $573 forward 7 unknown #
coedge $-1 $574 $575 $260 $407 forward $564 $-1 #
edge $-1 $576 -83.26973000546991 $410 -75.960158709899062 $406 $577 forward 7 unknown #
edge $-1 $411 112.25190396470282 $576 122.41340372936186 $261 $578 forward 7 unknown #
coedge $-1 $262 $568 $574 $579 forward $399 $-1 #
vertex $-1 $407 $580 #
vertex $-1 $263 $581 #
straight-curve $-1 32.114020879049406 3.5527136788005009e-015 13.862440203228488 -1 0 0 I I #
coedge $-1 $413 $413 $-1 $582 reversed $266 $-1 #
edge $-1 $583 0 $583 6.2831853071796004 $267 $584 forward 7 unknown #
vertex $-1 $270 $585 #
ellipse-curve $-1 57.677316474059324 -5.7887999302763049 10.207654555443083 0.71933980857756763 0 0.69465836192734942 0.34732918096367471 0 -0.35966990428878381 1 I I #
coedge $-1 $417 $417 $-1 $586 reversed $273 $-1 #
edge $-1 $587 0 $587 6.2831853071796004 $274 $588 forward 7 unknown #
vertex $-1 $277 $589 #
ellipse-curve $-1 57.677316474059324 -2.3155199721105184 10.207654555443083 0.71933980857756763 0 0.69465836192734942 0.34732918096367471 0 -0.35966990428878381 1 I I #
face $-1 $-1 $590 $57 $-1 $591 forward single #
loop $-1 $-1 $592 $278 #
plane-surface $-1 64.228041758098811 3.5527136788005009e-015 179.6451978262551 0 -1 0 -0.71933980857756763 0 -0.69465836192734942 forward_v I I I I #
coedge $-1 $284 $593 $426 $594 forward $279 $-1 #
coedge $-1 $429 $281 $595 $596 reversed $175 $-1 #
coedge $-1 $281 $429 $424 $594 reversed $175 $-1 #
coedge $-1 $597 $592 $281 $428 forward $422 $-1 #
edge $-1 $598 112.25190396470282 $599 122.41340372936186 $427 $600 forward 7 unknown #
coedge $-1 $426 $425 $282 $430 forward $175 $-1 #
edge $-1 $601 112.25190396470282 $434 122.41340372936186 $282 $602 forward 7 unknown #
coedge $-1 $595 $603 $283 $432 forward $590 $-1 #
edge $-1 $435 -29.092680985631524 $601 -22.033910204388334 $431 $604 forward 7 unknown #
coedge $-1 $593 $284 $603 $605 reversed $279 $-1 #
vertex $-1 $285 $606 #
vertex $-1 $285 $607 #
straight-curve $-1 61.20670186468093 8.1043199023868375 89.82259891312755 0 0 1 I I #
coedge $-1 $437 $437 $-1 $608 reversed $288 $-1 #
edge $-1 $609 0 $609 6.2831853071796004 $289 $610 forward 7 unknown #
vertex $-1 $292 $611 #
ellipse-curve $-1 57.677316474059324 2.3155199721105326 10.207654555443083 0.71933980857756763 0 0.69465836192734942 0.34732918096367471 0 -0.35966990428878381 1 I I #
coedge $-1 $441 $441 $-1 $612 reversed $295 $-1 #
edge $-1 $613 0 $613 6.2831853071796004 $296 $614 forward 7 unknown #
vertex $-1 $299 $615 #
ellipse-curve $-1 57.677316474059324 5.7887999302763156 10.207654555443083 0.71933980857756763 0 0.69465836192734942 0.34732918096367471 0 -0.35966990428878381 1 I I #
face $-1 $-1 $315 $45 $-1 $616 reversed single #
loop $-1 $-1 $461 $300 #
plane-surface $-1 0 31.159062282318875 0 0 -1 0 0 0 -1 forward_v I I I I #
coedge $-1 $617 $458 $461 $618 forward $301 $-1 #
coedge $-1 $303 $464 $304 $452 reversed $189 $-1 #
edge $-1 $316 -13.862440203228493 $456 13.862440203228493 $313 $619 forward 7 unknown #
coedge $-1 $305 $304 $617 $620 forward $121 $-1 #
edge $-1 $456 -61.20670186468093 $621 61.20670186468093 $449 $622 forward 7 unknown #
coedge $-1 $461 $460 $305 $454 reversed $446 $-1 #
edge $-1 $623 -61.20670186468093 $455 61.20670186468093 $453 $624 forward 7 unknown #
vertex $-1 $307 $625 #
vertex $-1 $450 $626 #
straight-curve $-1 61.20670186468093 0 -13.862440203228493 0 -1 0 I I #
coedge $-1 $448 $627 $308 $459 reversed $301 $-1 #
edge $-1 $462 -31.159062282318875 $465 31.159062282318875 $458 $628 forward 7 unknown #
coedge $-1 $453 $309 $314 $467 forward $446 $-1 #
coedge $-1 $309 $453 $448 $618 reversed $446 $-1 #
vertex $-1 $310 $629 #
straight-curve $-1 0 31.159062282318875 13.862440203228493 -1 0 0 I I #
coedge $-1 $449 $311 $627 $630 forward $189 $-1 #
vertex $-1 $459 $631 #
straight-curve $-1 0 -31.159062282318875 13.862440203228493 1 0 0 I I #
edge $-1 $317 -13.862440203228493 $455 13.862440203228493 $314 $632 forward 7 unknown #
point $-1 61.20670186468093 -31.159062282318875 13.862440203228493 #
point $-1 61.20670186468093 31.159062282318875 13.862440203228493 #
face $-1 $-1 $484 $46 $-1 $633 reversed single #
loop $-1 $-1 $634 $319 #
plane-surface $-1 0 -45.877041849095477 -10.043426135460193 0 1 0 0 0 1 forward_v I I I I #
coedge $-1 $635 $322 $331 $488 reversed $197 $-1 #
coedge $-1 $322 $635 $323 $476 reversed $197 $-1 #
coedge $-1 $324 $323 $636 $637 forward $125 $-1 #
edge $-1 $480 31.159062282318875 $638 45.877041849095477 $474 $639 forward 7 unknown #
coedge $-1 $640 $328 $324 $478 reversed $484 $-1 #
edge $-1 $641 -45.877041849095477 $479 -31.159062282318875 $477 $642 forward 7 unknown #
vertex $-1 $329 $643 #
vertex $-1 $476 $644 #
straight-curve $-1 0 -31.159062282318875 -13.862440203228493 1 0 0 I I #
straight-curve $-1 61.20670186468093 -31.159062282318875 0 0 0 1 I I #
coedge $-1 $328 $640 $330 $487 reversed $484 $-1 #
loop $-1 $-1 $328 $470 #
straight-curve $-1 -61.20670186468093 -31.159062282318875 0 0 0 -1 I I #
coedge $-1 $331 $330 $645 $646 forward $320 $-1 #
edge $-1 $332 -7.3589897833882993 $647 7.3589897833883029 $483 $648 forward 7 unknown #
edge $-1 $649 -7.3589897833883029 $333 7.3589897833882993 $473 $650 forward 7 unknown #
point $-1 -61.20670186468093 -31.159062282318875 -6.2244120676918921 #
point $-1 61.20670186468093 -31.159062282318875 -6.2244120676918921 #
face $-1 $-1 $507 $47 $-1 $651 reversed single #
loop $-1 $-1 $504 $335 #
plane-surface $-1 0 0 -13.862440203228493 0 0 1 1 0 0 forward_v I I I I #
coedge $-1 $652 $653 $654 $655 forward $336 $-1 #
coedge $-1 $345 $338 $653 $656 forward $205 $-1 #
coedge $-1 $343 $654 $338 $497 reversed $507 $-1 #
edge $-1 $346 -7.3589897833882993 $657 7.3589897833882958 $496 $658 forward 7 unknown #
coedge $-1 $340 $339 $659 $660 forward $129 $-1 #
edge $-1 $661 -7.3589897833882958 $347 7.3589897833882993 $339 $662 forward 7 unknown #
coedge $-1 $663 $504 $340 $501 forward $492 $-1 #
edge $-1 $502 -7.3589897833883064 $664 7.3589897833882958 $340 $665 forward 7 unknown #
vertex $-1 $501 $666 #
straight-curve $-1 -61.20670186468093 31.159062282318875 0 0 0 1 I I #
coedge $-1 $500 $667 $342 $505 forward $492 $-1 #
edge $-1 $508 -61.20670186468093 $502 61.20670186468093 $504 $668 forward 7 unknown #
coedge $-1 $654 $343 $667 $669 reversed $507 $-1 #
loop $-1 $-1 $343 $491 #
vertex $-1 $344 $670 #
straight-curve $-1 61.20670186468093 31.159062282318875 0 0 0 -1 I I #
point $-1 61.20670186468093 31.159062282318882 -6.2244120676918921 #
point $-1 -61.20670186468093 31.159062282318882 -6.2244120676918921 #
plane-surface $-1 0 0 13.862440203228493 0 0 1 1 0 0 forward_v I I I I #
coedge $-1 $523 $522 $515 $671 forward $350 $-1 #
coedge $-1 $515 $352 $354 $519 reversed $213 $-1 #
coedge $-1 $352 $514 $513 $671 reversed $213 $-1 #
coedge $-1 $360 $355 $352 $517 forward $361 $-1 #
edge $-1 $520 -20.483837051906569 $672 -13.425066270663372 $516 $673 forward 7 unknown #
coedge $-1 $354 $353 $523 $674 reversed $133 $-1 #
edge $-1 $675 1.0047061284303404e-014 $520 10.161499764659052 $514 $676 forward 7 unknown #
vertex $-1 $356 $677 #
straight-curve $-1 -54.14793108343774 -2.0260799755967067 13.862440203228495 0 1 0 I I #
coedge $-1 $513 $357 $360 $527 reversed $350 $-1 #
coedge $-1 $357 $513 $518 $674 forward $350 $-1 #
vertex $-1 $358 $678 #
straight-curve $-1 -61.20670186468093 -8.1043199023868304 45.794181710123723 0 0 1 I I #
straight-curve $-1 -61.206701864680937 -8.1043199023868304 6.5528689076576541 -0.69465836192734942 0 -0.71933980857756763 I I #
edge $-1 $672 -3.5527136788005009e-015 $362 8.1043199023868304 $522 $679 forward 7 unknown #
point $-1 -61.20670186468093 -8.1043199023868304 13.862440203228493 #
point $-1 -54.147931083437733 -8.1043199023868304 13.862440203228495 #
edge $-1 $680 1 $680 0 $365 $-1 forward 7 unknown #
vertex $-1 $366 $681 #
ellipse-curve $-1 -56.746512671032349 -5.7887999302763049 9.3087877926470011 -0.71933980857756763 0 0.69465836192734942 0.34732918096367471 0 0.35966990428878381 1 I I #
point $-1 -57.329987293095641 -5.7887999302763049 10.567324459731848 #
edge $-1 $682 1 $682 0 $369 $-1 forward 7 unknown #
vertex $-1 $370 $683 #
ellipse-curve $-1 -56.746512671032349 -2.3155199721105184 9.3087877926470011 -0.71933980857756763 0 0.69465836192734942 0.34732918096367471 0 0.35966990428878381 1 I I #
point $-1 -57.329987293095641 -2.3155199721105184 10.567324459731848 #
loop $-1 $-1 $382 $373 #
plane-surface $-1 -61.20670186468093 0 0 1 0 0 0 0 -1 forward_v I I I I #
coedge $-1 $376 $544 $385 $552 forward $235 $-1 #
edge $-1 $549 1.0047061284303404e-014 $545 10.161499764659052 $377 $684 forward 7 unknown #
coedge $-1 $382 $685 $378 $543 forward $538 $-1 #
edge $-1 $546 31.931741506895229 $549 39.241312802466062 $542 $686 forward 7 unknown #
coedge $-1 $540 $379 $685 $687 forward $235 $-1 #
vertex $-1 $380 $688 #
vertex $-1 $687 $689 #
straight-curve $-1 -74.631768135344302 8.1043199023868375 13.862440203228495 -1 0 0 I I #
coedge $-1 $685 $382 $386 $553 forward $538 $-1 #
vertex $-1 $543 $690 #
straight-curve $-1 -61.20670186468093 -2.0260799755967067 6.5528689076576665 0 -1 0 I I #
straight-curve $-1 -54.14793108343774 -2.0260799755967067 13.862440203228495 0 1 0 I I #
edge $-1 $691 13.425066270663372 $388 20.483837051906569 $540 $692 forward 7 unknown #
edge $-1 $387 -39.241312802466062 $691 -31.931741506895229 $548 $693 forward 7 unknown #
point $-1 -61.20670186468093 3.5527136788005009e-015 6.5528689076576612 #
point $-1 -54.147931083437733 3.5527136788005009e-015 13.862440203228495 #
edge $-1 $694 1 $694 0 $390 $-1 forward 7 unknown #
vertex $-1 $391 $695 #
ellipse-curve $-1 -56.746512671032349 2.3155199721105326 9.3087877926470011 -0.71933980857756763 0 0.69465836192734942 0.34732918096367471 0 0.35966990428878381 1 I I #
point $-1 -57.329987293095641 2.3155199721105326 10.567324459731848 #
edge $-1 $696 1 $696 0 $394 $-1 forward 7 unknown #
vertex $-1 $395 $697 #
ellipse-curve $-1 -56.746512671032349 5.7887999302763156 9.3087877926470011 -0.71933980857756763 0 0.69465836192734942 0.34732918096367471 0 0.35966990428878381 1 I I #
point $-1 -57.329987293095641 5.7887999302763156 10.567324459731848 #
loop $-1 $-1 $406 $398 #
plane-surface $-1 61.20670186468093 0 0 -1 0 0 0 0 1 forward_v I I I I #
coedge $-1 $567 $401 $403 $571 reversed $257 $-1 #
coedge $-1 $401 $566 $698 $699 reversed $257 $-1 #
coedge $-1 $409 $404 $401 $569 forward $399 $-1 #
edge $-1 $572 22.033910204388334 $700 29.092680985631524 $568 $701 forward 7 unknown #
coedge $-1 $403 $402 $575 $702 reversed $161 $-1 #
edge $-1 $703 -122.41340372936186 $572 -112.25190396470282 $566 $704 forward 7 unknown #
vertex $-1 $405 $705 #
straight-curve $-1 54.147931083437726 -2.0260799755967067 13.862440203228502 0 -1 0 I I #
coedge $-1 $698 $406 $409 $579 reversed $564 $-1 #
coedge $-1 $406 $698 $570 $702 forward $564 $-1 #
vertex $-1 $407 $706 #
straight-curve $-1 61.20670186468093 3.5527136788005009e-015 89.82259891312755 0 0 1 I I #
straight-curve $-1 -23.828792647908855 3.5527136788005009e-015 94.609703313665307 0.69465836192734942 0 -0.71933980857756763 I I #
edge $-1 $700 -8.1043199023868304 $410 3.5527136788005009e-015 $574 $707 forward 7 unknown #
point $-1 61.20670186468093 3.5527136788005009e-015 13.862440203228493 #
point $-1 54.14793108343774 3.5527136788005009e-015 13.862440203228488 #
edge $-1 $708 1 $708 0 $413 $-1 forward 7 unknown #
vertex $-1 $414 $709 #
ellipse-curve $-1 56.746512671032342 -5.7887999302763049 9.3087877926470082 0.71933980857756763 0 0.69465836192734942 0.34732918096367471 0 -0.35966990428878381 1 I I #
point $-1 58.024645655022987 -5.7887999302763049 9.8479846511542881 #
edge $-1 $710 1 $710 0 $417 $-1 forward 7 unknown #
vertex $-1 $418 $711 #
ellipse-curve $-1 56.746512671032342 -2.3155199721105184 9.3087877926470082 0.71933980857756763 0 0.69465836192734942 0.34732918096367471 0 -0.35966990428878381 1 I I #
point $-1 58.024645655022987 -2.3155199721105184 9.8479846511542881 #
loop $-1 $-1 $595 $421 #
plane-surface $-1 0 0 13.862440203228493 0 0 1 1 0 0 forward_v I I I I #
coedge $-1 $427 $597 $712 $713 reversed $422 $-1 #
coedge $-1 $424 $433 $597 $714 forward $279 $-1 #
edge $-1 $599 2.0260799755967103 $434 10.130399877983544 $424 $715 forward 7 unknown #
coedge $-1 $712 $431 $425 $596 forward $590 $-1 #
edge $-1 $601 -10.130399877983544 $598 -2.0260799755967103 $595 $716 forward 7 unknown #
coedge $-1 $592 $427 $593 $714 reversed $422 $-1 #
vertex $-1 $596 $717 #
vertex $-1 $594 $718 #
straight-curve $-1 -23.828792647908855 3.5527136788005009e-015 94.609703313665307 0.69465836192734942 0 -0.71933980857756763 I I #
vertex $-1 $432 $719 #
straight-curve $-1 -23.828792647908855 8.1043199023868375 94.609703313665307 0.69465836192734942 0 -0.71933980857756763 I I #
coedge $-1 $431 $712 $433 $605 forward $590 $-1 #
straight-curve $-1 32.114020879049406 8.1043199023868375 13.862440203228488 -1 0 0 I I #
edge $-1 $720 3.5527136788005009e-015 $435 8.1043199023868375 $433 $721 forward 7 unknown #
point $-1 61.206701864680937 8.1043199023868375 6.5528689076576399 #
point $-1 61.20670186468093 8.1043199023868375 13.862440203228493 #
edge $-1 $722 1 $722 0 $437 $-1 forward 7 unknown #
vertex $-1 $438 $723 #
ellipse-curve $-1 56.746512671032342 2.3155199721105326 9.3087877926470082 0.71933980857756763 0 0.69465836192734942 0.34732918096367471 0 -0.35966990428878381 1 I I #
point $-1 58.024645655022987 2.3155199721105326 9.8479846511542881 #
edge $-1 $724 1 $724 0 $441 $-1 forward 7 unknown #
vertex $-1 $442 $725 #
ellipse-curve $-1 56.746512671032342 5.7887999302763156 9.3087877926470082 0.71933980857756763 0 0.69465836192734942 0.34732918096367471 0 -0.35966990428878381 1 I I #
point $-1 58.024645655022987 5.7887999302763156 9.8479846511542881 #
plane-surface $-1 61.20670186468093 0 0 -1 0 0 0 0 1 forward_v I I I I #
coedge $-1 $627 $448 $451 $620 reversed $301 $-1 #
edge $-1 $462 -13.862440203228493 $623 13.862440203228493 $461 $726 forward 7 unknown #
straight-curve $-1 61.20670186468093 -31.159062282318875 0 0 0 -1 I I #
edge $-1 $621 -31.159062282318875 $623 31.159062282318875 $617 $727 forward 7 unknown #
vertex $-1 $620 $728 #
straight-curve $-1 0 -31.159062282318875 -13.862440203228493 -1 0 0 I I #
vertex $-1 $454 $729 #
straight-curve $-1 0 31.159062282318875 -13.862440203228493 1 0 0 I I #
point $-1 61.20670186468093 31.159062282318875 -13.862440203228493 #
point $-1 61.20670186468093 -31.159062282318875 -13.862440203228493 #
coedge $-1 $458 $617 $464 $630 reversed $301 $-1 #
straight-curve $-1 -61.20670186468093 0 13.862440203228493 0 -1 0 I I #
point $-1 -61.20670186468093 31.159062282318875 13.862440203228493 #
edge $-1 $465 -13.862440203228493 $621 13.862440203228493 $627 $730 forward 7 unknown #
point $-1 -61.20670186468093 -31.159062282318875 13.862440203228493 #
straight-curve $-1 61.20670186468093 31.159062282318875 0 0 0 -1 I I #
plane-surface $-1 -61.20670186468093 0 0 1 0 0 0 0 -1 forward_v I I I I #
coedge $-1 $636 $645 $640 $731 forward $471 $-1 #
coedge $-1 $474 $473 $732 $733 forward $197 $-1 #
coedge $-1 $732 $634 $475 $637 reversed $471 $-1 #
edge $-1 $638 -61.20670186468093 $641 61.20670186468093 $636 $734 forward 7 unknown #
vertex $-1 $733 $735 #
straight-curve $-1 61.20670186468093 0 -13.862440203228493 0 -1 0 I I #
coedge $-1 $483 $477 $634 $731 reversed $484 $-1 #
vertex $-1 $478 $736 #
straight-curve $-1 -61.20670186468093 0 -13.862440203228493 0 1 0 I I #
point $-1 -61.20670186468093 -31.159062282318875 -13.862440203228493 #
point $-1 61.20670186468093 -31.159062282318875 -13.862440203228493 #
coedge $-1 $634 $732 $486 $646 reversed $471 $-1 #
edge $-1 $647 -61.20670186468093 $649 61.20670186468093 $645 $737 forward 7 unknown #
vertex $-1 $487 $738 #
straight-curve $-1 -61.20670186468093 -38.518052065707174 -6.2244120676918921 0 -1 0 I I #
vertex $-1 $488 $739 #
straight-curve $-1 61.20670186468093 -38.518052065707174 -6.2244120676918921 0 1 0 I I #
plane-surface $-1 61.20670186468093 0 0 -1 0 0 0 0 1 forward_v I I I I #
coedge $-1 $659 $494 $663 $740 reversed $336 $-1 #
coedge $-1 $494 $659 $495 $656 reversed $336 $-1 #
coedge $-1 $496 $506 $494 $655 reversed $507 $-1 #
edge $-1 $657 -3.8190140677683004 $741 3.8190140677683004 $654 $742 forward 7 unknown #
edge $-1 $657 -61.20670186468093 $661 61.20670186468093 $653 $743 forward 7 unknown #
vertex $-1 $497 $744 #
straight-curve $-1 61.20670186468093 38.518052065707181 -6.2244120676918921 0 1 0 I I #
coedge $-1 $653 $652 $498 $660 reversed $336 $-1 #
edge $-1 $661 -3.8190140677683004 $664 3.8190140677683004 $659 $745 forward 7 unknown #
vertex $-1 $656 $746 #
straight-curve $-1 -61.20670186468093 38.518052065707181 -6.2244120676918921 0 -1 0 I I #
coedge $-1 $667 $500 $652 $740 forward $492 $-1 #
vertex $-1 $740 $747 #
straight-curve $-1 -61.20670186468093 38.518052065707181 -13.862440203228493 0 1 0 I I #
point $-1 -61.20670186468093 31.159062282318875 -13.862440203228493 #
coedge $-1 $504 $663 $506 $669 forward $492 $-1 #
straight-curve $-1 0 31.159062282318875 -13.862440203228493 -1 0 0 I I #
edge $-1 $741 -45.877041849095477 $508 -31.159062282318875 $506 $748 forward 7 unknown #
point $-1 61.20670186468093 31.159062282318875 -13.862440203228493 #
edge $-1 $672 31.931741506895229 $675 39.241312802466062 $513 $749 forward 7 unknown #
vertex $-1 $527 $750 #
straight-curve $-1 -74.631768135344302 3.5527136788005009e-015 13.862440203228495 -1 0 0 I I #
edge $-1 $675 -2.0260799755967103 $524 6.0782399267901237 $523 $751 forward 7 unknown #
vertex $-1 $674 $752 #
straight-curve $-1 -61.206701864680937 3.5527136788005009e-015 6.5528689076576541 0.69465836192734942 0 0.71933980857756763 I I #
point $-1 -54.147931083437733 3.5527136788005009e-015 13.862440203228495 #
point $-1 -61.20670186468093 -8.1043199023868304 6.5528689076576612 #
straight-curve $-1 -61.20670186468093 0 13.862440203228493 0 -1 0 I I #
vertex $-1 $530 $753 #
point $-1 -56.39918349006868 -5.7887999302763049 9.6684576969357838 #
vertex $-1 $534 $754 #
point $-1 -56.39918349006868 -2.3155199721105184 9.6684576969357838 #
straight-curve $-1 -61.206701864680937 8.1043199023868375 6.5528689076576541 0.69465836192734942 0 0.71933980857756763 I I #
coedge $-1 $542 $548 $544 $687 reversed $538 $-1 #
straight-curve $-1 -61.20670186468093 8.1043199023868375 45.794181710123723 0 0 -1 I I #
edge $-1 $546 -8.1043199023868375 $691 -3.5527136788005009e-015 $685 $755 forward 7 unknown #
point $-1 -54.147931083437733 8.1043199023868375 13.862440203228495 #
point $-1 -61.20670186468093 8.1043199023868375 13.862440203228493 #
point $-1 -61.20670186468093 8.1043199023868375 6.5528689076576612 #
vertex $-1 $553 $756 #
straight-curve $-1 -74.631768135344302 3.5527136788005009e-015 13.862440203228495 1 0 0 I I #
straight-curve $-1 -61.20670186468093 3.5527136788005009e-015 45.794181710123723 0 0 1 I I #
vertex $-1 $556 $757 #
point $-1 -56.39918349006868 2.3155199721105326 9.6684576969357838 #
vertex $-1 $560 $758 #
point $-1 -56.39918349006868 5.7887999302763156 9.6684576969357838 #
coedge $-1 $575 $574 $567 $699 forward $564 $-1 #
edge $-1 $700 75.960158709899062 $703 83.26973000546991 $698 $759 forward 7 unknown #
vertex $-1 $579 $760 #
straight-curve $-1 32.114020879049406 -8.1043199023868304 13.862440203228488 1 0 0 I I #
edge $-1 $703 -6.0782399267901237 $576 2.0260799755967103 $575 $761 forward 7 unknown #
vertex $-1 $702 $762 #
straight-curve $-1 -23.828792647908855 -8.1043199023868304 94.609703313665307 -0.69465836192734942 0 0.71933980857756763 I I #
point $-1 54.14793108343774 -8.1043199023868304 13.862440203228488 #
point $-1 61.206701864680937 3.5527136788005009e-015 6.5528689076576399 #
straight-curve $-1 61.20670186468093 0 13.862440203228493 0 1 0 I I #
vertex $-1 $582 $763 #
point $-1 57.093841851996018 -5.7887999302763049 8.9491178883582236 #
vertex $-1 $586 $764 #
point $-1 57.093841851996018 -2.3155199721105184 8.9491178883582236 #
coedge $-1 $603 $595 $592 $713 forward $590 $-1 #
edge $-1 $598 22.033910204388334 $720 29.092680985631524 $712 $765 forward 7 unknown #
edge $-1 $720 75.960158709899062 $599 83.26973000546991 $593 $766 forward 7 unknown #
straight-curve $-1 61.206701864680937 -2.0260799755967067 6.552868907657647 0 1 0 I I #
straight-curve $-1 54.147931083437726 -2.0260799755967067 13.862440203228502 0 -1 0 I I #
point $-1 54.14793108343774 3.5527136788005009e-015 13.862440203228488 #
point $-1 61.206701864680937 3.5527136788005009e-015 6.5528689076576399 #
point $-1 54.14793108343774 8.1043199023868375 13.862440203228488 #
vertex $-1 $605 $767 #
straight-curve $-1 61.20670186468093 0 13.862440203228493 0 1 0 I I #
vertex $-1 $608 $768 #
point $-1 57.093841851996018 2.3155199721105326 8.9491178883582236 #
vertex $-1 $612 $769 #
point $-1 57.093841851996018 5.7887999302763156 8.9491178883582236 #
straight-curve $-1 -61.20670186468093 31.159062282318875 0 0 0 -1 I I #
straight-curve $-1 -61.20670186468093 0 -13.862440203228493 0 1 0 I I #
point $-1 -61.20670186468093 -31.159062282318875 -13.862440203228493 #
point $-1 -61.20670186468093 31.159062282318875 -13.862440203228493 #
straight-curve $-1 -61.20670186468093 -31.159062282318875 0 0 0 -1 I I #
edge $-1 $647 -3.8190140677683004 $641 3.8190140677683004 $640 $770 forward 7 unknown #
coedge $-1 $645 $636 $635 $733 reversed $471 $-1 #
edge $-1 $649 -3.8190140677683004 $638 3.8190140677683004 $635 $771 forward 7 unknown #
straight-curve $-1 0 -45.877041849095477 -13.862440203228493 -1 0 0 I I #
point $-1 61.20670186468093 -45.877041849095477 -13.862440203228493 #
point $-1 -61.20670186468093 -45.877041849095477 -13.862440203228493 #
straight-curve $-1 0 -45.877041849095477 -6.2244120676918921 1 0 0 I I #
point $-1 -61.20670186468093 -45.877041849095477 -6.2244120676918921 #
point $-1 61.20670186468093 -45.877041849095477 -6.2244120676918921 #
edge $-1 $664 -61.20670186468093 $741 61.20670186468093 $652 $772 forward 7 unknown #
vertex $-1 $669 $773 #
straight-curve $-1 61.20670186468093 45.877041849095477 -10.043426135460193 0 0 -1 I I #
straight-curve $-1 0 45.877041849095477 -6.2244120676918921 -1 0 0 I I #
point $-1 61.20670186468093 45.877041849095477 -6.2244120676918921 #
straight-curve $-1 -61.20670186468093 45.877041849095477 -10.043426135460193 0 0 -1 I I #
point $-1 -61.20670186468093 45.877041849095477 -6.2244120676918921 #
point $-1 -61.20670186468093 45.877041849095477 -13.862440203228493 #
straight-curve $-1 61.20670186468093 0 -13.862440203228493 0 -1 0 I I #
straight-curve $-1 -61.20670186468093 3.5527136788005009e-015 45.794181710123723 0 0 -1 I I #
point $-1 -61.20670186468093 3.5527136788005009e-015 13.862440203228493 #
straight-curve $-1 -61.20670186468093 -2.0260799755967067 6.5528689076576665 0 -1 0 I I #
point $-1 -61.20670186468093 3.5527136788005009e-015 6.5528689076576612 #
point $-1 -56.38684276674357 -5.7887999302763049 8.9614586116833248 #
point $-1 -56.38684276674357 -2.3155199721105184 8.9614586116833248 #
straight-curve $-1 -61.20670186468093 0 13.862440203228493 0 -1 0 I I #
point $-1 -61.20670186468093 3.5527136788005009e-015 13.862440203228493 #
point $-1 -56.38684276674357 2.3155199721105326 8.9614586116833248 #
point $-1 -56.38684276674357 5.7887999302763156 8.9614586116833248 #
straight-curve $-1 61.20670186468093 -8.1043199023868304 89.82259891312755 0 0 -1 I I #
point $-1 61.20670186468093 -8.1043199023868304 13.862440203228493 #
straight-curve $-1 61.206701864680937 -2.0260799755967067 6.552868907657647 0 1 0 I I #
point $-1 61.206701864680937 -8.1043199023868304 6.5528689076576399 #
point $-1 56.386842766743563 -5.7887999302763049 8.9614586116833319 #
point $-1 56.386842766743563 -2.3155199721105184 8.9614586116833319 #
straight-curve $-1 32.114020879049406 3.5527136788005009e-015 13.862440203228488 1 0 0 I I #
straight-curve $-1 61.20670186468093 3.5527136788005009e-015 89.82259891312755 0 0 -1 I I #
point $-1 61.20670186468093 3.5527136788005009e-015 13.862440203228493 #
point $-1 56.386842766743563 2.3155199721105326 8.9614586116833319 #
point $-1 56.386842766743563 5.7887999302763156 8.9614586116833319 #
straight-curve $-1 -61.20670186468093 -45.877041849095477 -10.043426135460193 0 0 -1 I I #
straight-curve $-1 61.20670186468093 -45.877041849095477 -10.043426135460193 0 0 -1 I I #
straight-curve $-1 0 45.877041849095477 -13.862440203228493 1 0 0 I I #
point $-1 61.20670186468093 45.877041849095477 -13.862440203228493 #
End-of-ACIS-data 