500 0 4 0           
7 Unknown 11 ACIS 5.0 NT 24 Fri Mar 26 19:11:09 1999 
-1 9.9999999999999995e-007 1e-010 
body $-1 $4 $-1 $5 #
body $-1 $6 $-1 $7 #
body $-1 $8 $-1 $9 #
body $-1 $10 $-1 $11 #
lump $-1 $-1 $12 $0 #
transform $-1 1 0 0 0 1 0 0 0 1 69.556566057313759 29.206455440313814 8.7343051699935632 1 rotate no_reflect no_shear #
lump $-1 $-1 $13 $1 #
transform $-1 1 0 0 0 1 0 0 0 1 69.556566057313759 29.206455440313814 8.7343051699935632 1 rotate no_reflect no_shear #
lump $-1 $-1 $14 $2 #
transform $-1 1 0 0 0 1 0 0 0 1 69.556566057313759 29.206455440313814 8.7343051699935632 1 rotate no_reflect no_shear #
lump $-1 $-1 $15 $3 #
transform $-1 1 0 0 0 1 0 0 0 1 69.556566057313759 29.206455440313814 8.7343051699935632 1 rotate no_reflect no_shear #
shell $-1 $-1 $-1 $16 $-1 $4 #
shell $-1 $-1 $-1 $17 $-1 $6 #
shell $-1 $-1 $-1 $18 $-1 $8 #
shell $-1 $-1 $-1 $19 $-1 $10 #
face $-1 $20 $21 $12 $-1 $22 forward single #
face $-1 $23 $24 $13 $-1 $25 forward single #
face $-1 $26 $27 $14 $-1 $28 reversed single #
face $-1 $29 $30 $15 $-1 $31 forward single #
face $-1 $32 $33 $12 $-1 $34 reversed single #
loop $-1 $-1 $35 $16 #
plane-surface $-1 0 0 8.7343051699935632 0 0 1 1 0 0 forward_v I I I I #
face $-1 $36 $37 $13 $-1 $38 forward single #
loop $-1 $-1 $39 $17 #
plane-surface $-1 -69.556566057313759 0 0 1 0 0 0 0 -1 forward_v I I I I #
face $-1 $40 $41 $14 $-1 $42 reversed single #
loop $-1 $-1 $43 $18 #
plane-surface $-1 35.393775814523735 0.76063444599419583 198.4610373437358 0 -1 0 -0.57357644374324357 0 -0.81915203911291934 forward_v I I I I #
face $-1 $44 $45 $15 $-1 $46 forward single #
loop $-1 $47 $48 $19 #
cone-surface $-1 65.615547598014288 -3.067247192968761 5.1956033875410048 -0.57357644374324357 0 -0.81915203911291934 0.81915203911291934 0 -0.57357644374324357 1 I I 0 1 1 forward I I I I #
face $-1 $49 $50 $12 $-1 $51 reversed single #
loop $-1 $-1 $52 $20 #
plane-surface $-1 0 0 -8.7343051699935632 0 0 1 1 0 0 forward_v I I I I #
coedge $-1 $53 $54 $55 $56 forward $21 $-1 #
face $-1 $57 $58 $13 $-1 $59 reversed single #
loop $-1 $-1 $60 $23 #
plane-surface $-1 0 0 8.7343051699935632 0 0 1 1 0 0 forward_v I I I I #
coedge $-1 $61 $62 $63 $64 forward $24 $-1 #
face $-1 $65 $66 $14 $-1 $67 reversed single #
loop $-1 $-1 $68 $26 #
plane-surface $-1 -44.398239781768325 -3.067247192968761 84.506231504653726 0.57357644374324357 0 0.81915203911291934 0.81915203911291934 0 -0.57357644374324357 forward_v I I I I #
coedge $-1 $69 $70 $71 $72 reversed $27 $-1 #
face $-1 $-1 $73 $15 $-1 $74 forward single #
loop $-1 $75 $76 $29 #
cone-surface $-1 64.258382094670097 -3.067247192968761 3.257370216347935 -0.57357644374324357 0 -0.81915203911291934 0.40957601955645967 0 -0.28678822187162178 1 I I -0.70710678118654746 0.70710678118654746 0.5 forward I I I I #
loop $-1 $-1 $77 $19 #
coedge $-1 $48 $48 $78 $79 reversed $30 $-1 #
face $-1 $80 $81 $12 $-1 $82 reversed single #
loop $-1 $-1 $83 $32 #
plane-surface $-1 0 -29.206455440313814 0 0 1 0 0 0 1 forward_v I I I I #
coedge $-1 $84 $85 $86 $87 forward $33 $-1 #
coedge $-1 $88 $35 $89 $90 forward $21 $-1 #
coedge $-1 $35 $88 $91 $92 forward $21 $-1 #
coedge $-1 $93 $94 $35 $56 reversed $95 $-1 #
edge $-1 $96 -29.206455440313814 $97 29.206455440313814 $55 $98 forward 7 unknown #
face $-1 $99 $100 $13 $-1 $101 reversed single #
loop $-1 $-1 $102 $36 #
plane-surface $-1 -75.519302694282388 -26.838540980137299 0 1 0 0 0 0 -1 forward_v I I I I #
coedge $-1 $103 $104 $61 $105 forward $37 $-1 #
coedge $-1 $106 $39 $60 $105 reversed $24 $-1 #
coedge $-1 $39 $106 $107 $108 reversed $24 $-1 #
coedge $-1 $109 $110 $39 $64 reversed $100 $-1 #
edge $-1 $111 -8.7343051699935632 $112 8.7343051699935632 $63 $113 forward 7 unknown #
face $-1 $114 $115 $14 $-1 $116 forward single #
loop $-1 $-1 $117 $40 #
plane-surface $-1 35.393775814523735 -6.8951288319317179 198.4610373437358 0 1 0 0.57357644374324357 0 0.81915203911291934 forward_v I I I I #
coedge $-1 $118 $119 $120 $121 reversed $41 $-1 #
coedge $-1 $70 $43 $122 $123 reversed $27 $-1 #
coedge $-1 $43 $69 $118 $124 reversed $27 $-1 #
coedge $-1 $120 $125 $43 $72 forward $115 $-1 #
edge $-1 $126 -51.859678150051892 $127 -46.118395794398126 $71 $128 forward 7 unknown #
loop $-1 $-1 $78 $44 #
plane-surface $-1 -44.398239781768325 -3.067247192968761 84.506231504653726 0.57357644374324357 0 0.81915203911291934 0.81915203911291934 0 -0.57357644374324357 forward_v I I I I #
loop $-1 $-1 $129 $29 #
coedge $-1 $76 $76 $77 $130 reversed $45 $-1 #
coedge $-1 $77 $77 $76 $130 forward $47 $-1 #
coedge $-1 $78 $78 $48 $79 forward $73 $-1 #
edge $-1 $131 0 $131 6.2831853071796004 $78 $132 forward 7 unknown #
face $-1 $133 $134 $12 $-1 $135 reversed single #
loop $-1 $-1 $136 $49 #
plane-surface $-1 -69.556566057313759 0 0 1 0 0 0 0 -1 forward_v I I I I #
coedge $-1 $137 $91 $138 $139 forward $50 $-1 #
coedge $-1 $140 $52 $137 $141 forward $33 $-1 #
coedge $-1 $52 $140 $142 $143 forward $33 $-1 #
coedge $-1 $94 $93 $52 $87 reversed $95 $-1 #
edge $-1 $144 -29.206455440313814 $145 29.206455440313814 $86 $146 forward 7 unknown #
coedge $-1 $54 $53 $136 $147 forward $21 $-1 #
coedge $-1 $148 $149 $53 $90 reversed $134 $-1 #
edge $-1 $97 -69.556566057313759 $150 69.556566057313759 $89 $151 forward 7 unknown #
coedge $-1 $83 $152 $54 $92 reversed $50 $-1 #
edge $-1 $153 -69.556566057313759 $96 69.556566057313759 $91 $154 forward 7 unknown #
coedge $-1 $86 $55 $152 $155 forward $95 $-1 #
coedge $-1 $55 $86 $148 $156 reversed $95 $-1 #
loop $-1 $-1 $93 $133 #
vertex $-1 $56 $157 #
vertex $-1 $56 $158 #
straight-curve $-1 69.556566057313759 0 8.7343051699935632 0 1 0 I I #
face $-1 $159 $160 $13 $-1 $161 reversed single #
loop $-1 $-1 $63 $57 #
plane-surface $-1 -72.537934375798073 -24.470626519960785 0 0 -1 0 0 0 -1 forward_v I I I I #
coedge $-1 $162 $163 $164 $165 forward $58 $-1 #
coedge $-1 $166 $60 $110 $167 forward $37 $-1 #
coedge $-1 $60 $166 $168 $169 forward $37 $-1 #
edge $-1 $170 -29.206455440313814 $112 -24.470626519960785 $60 $171 forward 7 unknown #
coedge $-1 $62 $61 $172 $173 reversed $24 $-1 #
coedge $-1 $174 $175 $62 $108 forward $160 $-1 #
edge $-1 $111 24.470626519960785 $176 29.206455440313814 $107 $177 forward 7 unknown #
coedge $-1 $164 $63 $175 $178 reversed $100 $-1 #
coedge $-1 $63 $164 $103 $167 reversed $100 $-1 #
vertex $-1 $108 $179 #
vertex $-1 $167 $180 #
straight-curve $-1 -69.556566057313759 -24.470626519960785 0 0 0 1 I I #
face $-1 $-1 $181 $14 $-1 $182 reversed single #
loop $-1 $-1 $71 $65 #
plane-surface $-1 0 0 8.7343051699935632 0 0 1 1 0 0 forward_v I I I I #
coedge $-1 $183 $184 $185 $186 reversed $66 $-1 #
coedge $-1 $187 $68 $70 $124 forward $41 $-1 #
coedge $-1 $68 $187 $183 $188 forward $41 $-1 #
coedge $-1 $185 $71 $68 $121 forward $115 $-1 #
edge $-1 $127 -2.2942580424785763 $189 5.3615052354473374 $120 $190 forward 7 unknown #
coedge $-1 $191 $192 $69 $123 forward $181 $-1 #
edge $-1 $193 -94.516302763506232 $126 -90.496213501874337 $122 $194 forward 7 unknown #
edge $-1 $127 132.10432046365349 $193 139.11313211462752 $70 $195 forward 7 unknown #
coedge $-1 $71 $185 $191 $196 forward $115 $-1 #
vertex $-1 $72 $197 #
vertex $-1 $72 $198 #
straight-curve $-1 17.696887907261868 0.76063444599419583 8.7343051699935614 -1 0 0 I I #
coedge $-1 $129 $129 $-1 $199 reversed $75 $-1 #
edge $-1 $200 0 $200 6.2831853071796004 $76 $201 forward 7 unknown #
vertex $-1 $79 $202 #
ellipse-curve $-1 66.685924879486862 -3.067247192968761 6.7242605391776236 0.57357644374324357 0 0.81915203911291934 0.81915203911291934 0 -0.57357644374324357 1 I I #
face $-1 $-1 $95 $12 $-1 $203 reversed single #
loop $-1 $-1 $148 $80 #
plane-surface $-1 0 29.206455440313814 0 0 -1 0 0 0 -1 forward_v I I I I #
coedge $-1 $204 $138 $88 $147 reversed $81 $-1 #
coedge $-1 $152 $83 $84 $141 reversed $50 $-1 #
coedge $-1 $136 $205 $83 $139 reversed $81 $-1 #
edge $-1 $153 -8.7343051699935632 $206 8.7343051699935632 $138 $207 forward 7 unknown #
coedge $-1 $85 $84 $205 $208 forward $33 $-1 #
edge $-1 $145 -69.556566057313759 $206 69.556566057313759 $137 $209 forward 7 unknown #
coedge $-1 $149 $148 $85 $143 reversed $134 $-1 #
edge $-1 $210 -69.556566057313759 $144 69.556566057313759 $142 $211 forward 7 unknown #
vertex $-1 $87 $212 #
vertex $-1 $155 $213 #
straight-curve $-1 69.556566057313759 0 -8.7343051699935632 0 -1 0 I I #
edge $-1 $150 -29.206455440313814 $153 29.206455440313814 $136 $214 forward 7 unknown #
coedge $-1 $142 $89 $94 $156 forward $134 $-1 #
coedge $-1 $89 $142 $204 $215 reversed $134 $-1 #
vertex $-1 $90 $216 #
straight-curve $-1 0 29.206455440313814 8.7343051699935632 -1 0 0 I I #
coedge $-1 $91 $137 $93 $155 reversed $50 $-1 #
vertex $-1 $147 $217 #
straight-curve $-1 0 -29.206455440313814 8.7343051699935632 1 0 0 I I #
edge $-1 $96 -8.7343051699935632 $145 8.7343051699935632 $93 $218 forward 7 unknown #
edge $-1 $97 -8.7343051699935632 $144 8.7343051699935632 $94 $219 forward 7 unknown #
point $-1 69.556566057313759 -29.206455440313814 8.7343051699935632 #
point $-1 69.556566057313759 29.206455440313814 8.7343051699935632 #
face $-1 $-1 $220 $13 $-1 $221 reversed single #
loop $-1 $-1 $107 $99 #
plane-surface $-1 0 0 -8.7343051699935632 0 0 1 1 0 0 forward_v I I I I #
coedge $-1 $222 $102 $223 $224 reversed $58 $-1 #
coedge $-1 $102 $222 $166 $225 reversed $58 $-1 #
coedge $-1 $110 $109 $102 $165 reversed $100 $-1 #
edge $-1 $226 -8.7343051699935632 $227 8.7343051699935632 $164 $228 forward 7 unknown #
coedge $-1 $104 $103 $163 $225 forward $37 $-1 #
edge $-1 $112 -2.9813683184843143 $226 2.9813683184843143 $110 $229 forward 7 unknown #
coedge $-1 $230 $172 $104 $169 reversed $220 $-1 #
edge $-1 $231 -75.519302694282388 $170 -69.556566057313759 $168 $232 forward 7 unknown #
vertex $-1 $173 $233 #
straight-curve $-1 -69.556566057313759 0 8.7343051699935632 0 1 0 I I #
coedge $-1 $168 $234 $106 $173 forward $220 $-1 #
edge $-1 $176 -8.7343051699935632 $170 8.7343051699935632 $172 $235 forward 7 unknown #
coedge $-1 $223 $107 $234 $236 forward $160 $-1 #
coedge $-1 $107 $223 $109 $178 forward $160 $-1 #
vertex $-1 $236 $237 #
straight-curve $-1 -69.556566057313759 0 -8.7343051699935632 0 -1 0 I I #
edge $-1 $227 -2.9813683184843143 $111 2.9813683184843143 $109 $238 forward 7 unknown #
point $-1 -69.556566057313759 -24.470626519960785 -8.7343051699935632 #
point $-1 -69.556566057313759 -24.470626519960785 8.7343051699935632 #
loop $-1 $-1 $122 $114 #
plane-surface $-1 69.556566057313759 0 0 -1 0 0 0 0 1 forward_v I I I I #
coedge $-1 $184 $117 $119 $188 reversed $66 $-1 #
coedge $-1 $117 $183 $239 $240 reversed $66 $-1 #
coedge $-1 $125 $120 $117 $186 forward $115 $-1 #
edge $-1 $189 46.118395794398126 $241 51.859678150051892 $185 $242 forward 7 unknown #
coedge $-1 $119 $118 $192 $243 reversed $41 $-1 #
edge $-1 $244 -139.11313211462752 $189 -132.10432046365349 $183 $245 forward 7 unknown #
vertex $-1 $121 $246 #
straight-curve $-1 63.815283701659979 -1.5336235964843805 8.7343051699935685 0 -1 0 I I #
coedge $-1 $239 $122 $125 $196 reversed $181 $-1 #
coedge $-1 $122 $239 $187 $243 forward $181 $-1 #
vertex $-1 $123 $247 #
straight-curve $-1 69.556566057313759 0.76063444599419583 99.230518671867898 0 0 1 I I #
straight-curve $-1 -44.398239781768325 0.76063444599419583 84.506231504653726 0.81915203911291934 0 -0.57357644374324357 I I #
edge $-1 $241 -6.8951288319317179 $126 0.76063444599419583 $191 $248 forward 7 unknown #
point $-1 69.556566057313759 0.76063444599419583 8.7343051699935632 #
point $-1 63.815283701659993 0.76063444599419583 8.7343051699935614 #
edge $-1 $249 1 $249 0 $129 $-1 forward 7 unknown #
vertex $-1 $130 $250 #
ellipse-curve $-1 64.545170316541714 -3.067247192968761 3.6669462359043945 0.57357644374324357 0 0.81915203911291934 0.81915203911291934 0 -0.57357644374324357 1 I I #
point $-1 67.505076918599784 -3.067247192968761 6.1506840954343716 #
plane-surface $-1 69.556566057313759 0 0 -1 0 0 0 0 1 forward_v I I I I #
coedge $-1 $205 $136 $149 $215 forward $81 $-1 #
coedge $-1 $138 $204 $140 $208 reversed $81 $-1 #
vertex $-1 $208 $251 #
straight-curve $-1 -69.556566057313759 -29.206455440313814 0 0 0 -1 I I #
edge $-1 $206 -29.206455440313814 $210 29.206455440313814 $205 $252 forward 7 unknown #
straight-curve $-1 0 -29.206455440313814 -8.7343051699935632 -1 0 0 I I #
vertex $-1 $143 $253 #
straight-curve $-1 0 29.206455440313814 -8.7343051699935632 1 0 0 I I #
point $-1 69.556566057313759 29.206455440313814 -8.7343051699935632 #
point $-1 69.556566057313759 -29.206455440313814 -8.7343051699935632 #
straight-curve $-1 -69.556566057313759 0 8.7343051699935632 0 -1 0 I I #
edge $-1 $150 -8.7343051699935632 $210 8.7343051699935632 $149 $254 forward 7 unknown #
point $-1 -69.556566057313759 29.206455440313814 8.7343051699935632 #
point $-1 -69.556566057313759 -29.206455440313814 8.7343051699935632 #
straight-curve $-1 69.556566057313759 -29.206455440313814 0 0 0 -1 I I #
straight-curve $-1 69.556566057313759 29.206455440313814 0 0 0 -1 I I #
loop $-1 $-1 $172 $159 #
plane-surface $-1 0 -29.206455440313814 0 0 1 0 0 0 1 forward_v I I I I #
coedge $-1 $163 $162 $230 $255 reversed $58 $-1 #
coedge $-1 $175 $174 $162 $224 forward $160 $-1 #
edge $-1 $256 -2.3679144601765145 $227 2.3679144601765145 $162 $257 forward 7 unknown #
edge $-1 $226 -2.3679144601765145 $231 2.3679144601765145 $163 $258 forward 7 unknown #
vertex $-1 $167 $259 #
vertex $-1 $178 $260 #
straight-curve $-1 -75.519302694282388 -24.470626519960785 0 0 0 -1 I I #
straight-curve $-1 -72.537934375798073 -24.470626519960785 8.7343051699935632 -1 0 0 I I #
coedge $-1 $234 $168 $222 $255 forward $220 $-1 #
vertex $-1 $225 $261 #
straight-curve $-1 0 -29.206455440313814 8.7343051699935632 1 0 0 I I #
point $-1 -69.556566057313759 -29.206455440313814 8.7343051699935632 #
coedge $-1 $172 $230 $174 $236 reversed $220 $-1 #
straight-curve $-1 -69.556566057313759 -29.206455440313814 0 0 0 1 I I #
edge $-1 $176 -2.9813683184843143 $256 2.9813683184843143 $234 $262 forward 7 unknown #
point $-1 -69.556566057313759 -29.206455440313814 -8.7343051699935632 #
straight-curve $-1 -72.537934375798073 -24.470626519960785 -8.7343051699935632 1 0 0 I I #
coedge $-1 $192 $191 $184 $240 forward $181 $-1 #
edge $-1 $241 90.496213501874337 $244 94.516302763506232 $239 $263 forward 7 unknown #
vertex $-1 $196 $264 #
straight-curve $-1 17.696887907261868 -6.8951288319317179 8.7343051699935614 1 0 0 I I #
edge $-1 $244 -5.3615052354473374 $193 2.2942580424785763 $192 $265 forward 7 unknown #
vertex $-1 $243 $266 #
straight-curve $-1 -44.398239781768325 -6.8951288319317179 84.506231504653726 -0.81915203911291934 0 0.57357644374324357 I I #
point $-1 63.815283701659993 -6.8951288319317179 8.7343051699935614 #
point $-1 69.556566057313745 0.76063444599419583 4.7142159083616662 #
straight-curve $-1 69.556566057313759 0 8.7343051699935632 0 1 0 I I #
vertex $-1 $199 $267 #
point $-1 65.364322355654636 -3.067247192968761 3.0933697921611509 #
point $-1 -69.556566057313759 -29.206455440313814 -8.7343051699935632 #
straight-curve $-1 -69.556566057313759 0 -8.7343051699935632 0 1 0 I I #
point $-1 -69.556566057313759 29.206455440313814 -8.7343051699935632 #
straight-curve $-1 -69.556566057313759 29.206455440313814 0 0 0 -1 I I #
edge $-1 $231 -8.7343051699935632 $256 8.7343051699935632 $222 $268 forward 7 unknown #
vertex $-1 $224 $269 #
straight-curve $-1 -75.519302694282388 -26.838540980137299 -8.7343051699935632 0 1 0 I I #
straight-curve $-1 -75.519302694282388 -26.838540980137299 8.7343051699935632 0 -1 0 I I #
point $-1 -75.519302694282388 -24.470626519960785 8.7343051699935632 #
point $-1 -75.519302694282388 -24.470626519960785 -8.7343051699935632 #
point $-1 -75.519302694282388 -29.206455440313814 8.7343051699935632 #
straight-curve $-1 -72.537934375798073 -29.206455440313814 -8.7343051699935632 -1 0 0 I I #
straight-curve $-1 69.556566057313759 -6.8951288319317179 99.230518671867898 0 0 -1 I I #
point $-1 69.556566057313759 -6.8951288319317179 8.7343051699935632 #
straight-curve $-1 69.556566057313759 -1.5336235964843805 4.714215908361659 0 1 0 I I #
point $-1 69.556566057313745 -6.8951288319317179 4.7142159083616662 #
point $-1 63.971593872798472 -3.067247192968761 2.8477941967914755 #
straight-curve $-1 -75.519302694282388 -29.206455440313814 0 0 0 -1 I I #
point $-1 -75.519302694282388 -29.206455440313814 -8.7343051699935632 #
End-of-ACIS-data 