500 0 8 0           
7 Unknown 11 ACIS 5.0 NT 24 Thu Mar 25 18:22:17 1999 
-1 9.9999999999999995e-007 1e-010 
body $-1 $8 $-1 $9 #
body $-1 $10 $-1 $11 #
body $-1 $12 $-1 $13 #
body $-1 $14 $-1 $15 #
body $-1 $16 $-1 $17 #
body $-1 $18 $-1 $19 #
body $-1 $20 $-1 $21 #
body $-1 $22 $-1 $23 #
lump $-1 $-1 $24 $0 #
transform $-1 1 0 0 0 1 0 0 0 1 59.873653370769375 36.764180988633157 14.259457765515233 1 rotate no_reflect no_shear #
lump $-1 $-1 $25 $1 #
transform $-1 1 0 0 0 1 0 0 0 1 59.873653370769375 36.764180988633157 14.259457765515233 1 rotate no_reflect no_shear #
lump $-1 $-1 $26 $2 #
transform $-1 1 0 0 0 1 0 0 0 1 59.873653370769375 36.764180988633157 14.259457765515233 1 rotate no_reflect no_shear #
lump $-1 $-1 $27 $3 #
transform $-1 1 0 0 0 1 0 0 0 1 59.873653370769375 36.764180988633157 14.259457765515233 1 rotate no_reflect no_shear #
lump $-1 $-1 $28 $4 #
transform $-1 1 0 0 0 1 0 0 0 1 59.873653370769375 36.764180988633157 14.259457765515233 1 rotate no_reflect no_shear #
lump $-1 $-1 $29 $5 #
transform $-1 1 0 0 0 1 0 0 0 1 59.873653370769375 36.764180988633157 14.259457765515233 1 rotate no_reflect no_shear #
lump $-1 $-1 $30 $6 #
transform $-1 1 0 0 0 1 0 0 0 1 59.873653370769375 36.764180988633157 14.259457765515233 1 rotate no_reflect no_shear #
lump $-1 $-1 $31 $7 #
transform $-1 1 0 0 0 1 0 0 0 1 59.873653370769375 36.764180988633157 14.259457765515233 1 rotate no_reflect no_shear #
shell $-1 $-1 $-1 $32 $-1 $8 #
shell $-1 $-1 $-1 $33 $-1 $10 #
shell $-1 $-1 $-1 $34 $-1 $12 #
shell $-1 $-1 $-1 $35 $-1 $14 #
shell $-1 $-1 $-1 $36 $-1 $16 #
shell $-1 $-1 $-1 $37 $-1 $18 #
shell $-1 $-1 $-1 $38 $-1 $20 #
shell $-1 $-1 $-1 $39 $-1 $22 #
face $-1 $40 $41 $24 $-1 $42 reversed single #
face $-1 $43 $44 $25 $-1 $45 forward single #
face $-1 $46 $47 $26 $-1 $48 reversed single #
face $-1 $49 $50 $27 $-1 $51 forward single #
face $-1 $52 $53 $28 $-1 $54 forward single #
face $-1 $55 $56 $29 $-1 $57 reversed single #
face $-1 $58 $59 $30 $-1 $60 forward single #
face $-1 $61 $62 $31 $-1 $63 forward single #
face $-1 $64 $65 $24 $-1 $66 forward single #
loop $-1 $-1 $67 $32 #
plane-surface $-1 -59.873653370769375 0 0 1 0 0 0 0 -1 forward_v I I I I #
face $-1 $68 $69 $25 $-1 $70 reversed single #
loop $-1 $-1 $71 $33 #
plane-surface $-1 -59.873653370769375 0 0 1 0 0 0 0 -1 forward_v I I I I #
face $-1 $72 $73 $26 $-1 $74 reversed single #
loop $-1 $-1 $75 $34 #
plane-surface $-1 55.195645546471873 -113.73626700149211 98.698347876178673 -1 0 0 0 -0.64278761758704617 0.76604443648966558 forward_v I I I I #
face $-1 $76 $77 $27 $-1 $78 forward single #
loop $-1 $79 $80 $35 #
cone-surface $-1 45.032584225619274 -30.730366782179445 8.6011489187772412 0 0.64278761758704617 -0.76604443648966558 1.5 0 0 1 I I 0 1 1.5 forward I I I I #
face $-1 $81 $82 $28 $-1 $83 forward single #
loop $-1 $84 $85 $36 #
cone-surface $-1 51.130421018130846 -30.730366782179445 8.6011489187772412 0 0.64278761758704617 -0.76604443648966558 1.5 0 0 1 I I 0 1 1.5 forward I I I I #
face $-1 $86 $87 $29 $-1 $88 reversed single #
loop $-1 $-1 $89 $37 #
plane-surface $-1 44.314304919982952 85.857768368489232 140.71697369192393 1 0 0 0 -0.78801076186113728 -0.61566146476048833 forward_v I I I I #
face $-1 $90 $91 $30 $-1 $92 forward single #
loop $-1 $93 $94 $38 #
cone-surface $-1 48.759833048779072 34.020476160515173 11.101452659787892 0 -0.78801076186113728 -0.61566146476048833 0.5 0 0 1 I I 0 1 0.5 forward I I I I #
face $-1 $95 $96 $31 $-1 $97 forward single #
loop $-1 $98 $99 $39 #
cone-surface $-1 55.428125241973248 34.020476160515173 11.101452659787892 0 -0.78801076186113728 -0.61566146476048833 0.5 0 0 1 I I 0 1 0.5 forward I I I I #
face $-1 $100 $101 $24 $-1 $102 reversed single #
loop $-1 $-1 $103 $40 #
plane-surface $-1 0 0 14.259457765515233 0 0 1 1 0 0 forward_v I I I I #
coedge $-1 $104 $105 $106 $107 reversed $41 $-1 #
face $-1 $108 $109 $25 $-1 $110 reversed single #
loop $-1 $-1 $111 $43 #
plane-surface $-1 0 0 -14.259457765515233 0 0 1 1 0 0 forward_v I I I I #
coedge $-1 $112 $113 $114 $115 forward $44 $-1 #
face $-1 $116 $117 $26 $-1 $118 reversed single #
loop $-1 $-1 $119 $46 #
plane-surface $-1 48.081502621875046 -36.764180988633171 6.9665897622014796 0 -0.64278761758704617 0.76604443648966558 1 0 0 forward_v I I I I #
coedge $-1 $120 $121 $122 $123 reversed $47 $-1 #
face $-1 $-1 $124 $27 $-1 $125 forward single #
loop $-1 $126 $127 $49 #
cone-surface $-1 45.032584225619274 -28.560112593148233 6.0147407463288758 0 0.64278761758704617 -0.76604443648966558 0.75 0 0 1 I I -0.70710678118654757 0.70710678118654757 0.75 forward I I I I #
loop $-1 $-1 $128 $35 #
coedge $-1 $80 $80 $129 $130 reversed $50 $-1 #
face $-1 $-1 $131 $28 $-1 $132 forward single #
loop $-1 $133 $134 $52 #
cone-surface $-1 51.130421018130846 -28.560112593148233 6.0147407463288758 0 0.64278761758704617 -0.76604443648966558 0.75 0 0 1 I I -0.70710678118654757 0.70710678118654757 0.75 forward I I I I #
loop $-1 $-1 $135 $36 #
coedge $-1 $85 $85 $136 $137 reversed $53 $-1 #
face $-1 $138 $139 $29 $-1 $140 reversed single #
loop $-1 $-1 $141 $55 #
plane-surface $-1 52.093979145376153 -8.5043980477300209 66.993171422304684 0 0.78801076186113728 0.61566146476048833 1 0 0 forward_v I I I I #
coedge $-1 $142 $143 $144 $145 reversed $56 $-1 #
face $-1 $-1 $146 $30 $-1 $147 forward single #
loop $-1 $148 $149 $58 #
cone-surface $-1 48.759833048779072 33.114012473224577 10.393245629529257 0 -0.78801076186113728 -0.61566146476048833 0.25 0 0 1 I I -0.70710678118654746 0.70710678118654746 0.25 forward I I I I #
loop $-1 $-1 $150 $38 #
coedge $-1 $94 $94 $151 $152 reversed $59 $-1 #
face $-1 $-1 $153 $31 $-1 $154 forward single #
loop $-1 $155 $156 $61 #
cone-surface $-1 55.428125241973248 33.114012473224577 10.393245629529257 0 -0.78801076186113728 -0.61566146476048833 0.25 0 0 1 I I -0.70710678118654746 0.70710678118654746 0.25 forward I I I I #
loop $-1 $-1 $157 $39 #
coedge $-1 $99 $99 $158 $159 reversed $62 $-1 #
face $-1 $160 $161 $24 $-1 $162 reversed single #
loop $-1 $-1 $163 $64 #
plane-surface $-1 0 0 -14.259457765515233 0 0 1 1 0 0 forward_v I I I I #
coedge $-1 $164 $165 $166 $167 forward $65 $-1 #
coedge $-1 $168 $67 $169 $170 reversed $41 $-1 #
coedge $-1 $67 $168 $171 $172 forward $41 $-1 #
coedge $-1 $173 $174 $67 $107 forward $101 $-1 #
edge $-1 $175 -36.764180988633157 $176 36.764180988633157 $67 $177 forward 7 unknown #
face $-1 $178 $179 $25 $-1 $180 reversed single #
loop $-1 $-1 $181 $68 #
plane-surface $-1 -68.241723054257918 -34.617850232226601 0 0 1 0 0 0 1 forward_v I I I I #
coedge $-1 $182 $183 $113 $184 forward $69 $-1 #
coedge $-1 $185 $71 $186 $187 reversed $44 $-1 #
coedge $-1 $71 $185 $111 $184 reversed $44 $-1 #
coedge $-1 $188 $189 $71 $115 reversed $190 $-1 #
edge $-1 $191 -14.259457765515233 $192 14.259457765515233 $114 $193 forward 7 unknown #
face $-1 $194 $195 $26 $-1 $196 forward single #
loop $-1 $-1 $197 $72 #
plane-surface $-1 40.967359697278219 -113.73626700149211 98.698347876178673 1 0 0 0 0.64278761758704617 -0.76604443648966558 forward_v I I I I #
coedge $-1 $198 $199 $200 $201 reversed $73 $-1 #
coedge $-1 $121 $75 $202 $203 reversed $47 $-1 #
coedge $-1 $75 $120 $198 $204 reversed $47 $-1 #
coedge $-1 $200 $205 $75 $123 forward $195 $-1 #
edge $-1 $206 20.103952512112897 $207 28.795253973338454 $122 $208 forward 7 unknown #
loop $-1 $-1 $129 $76 #
plane-surface $-1 48.081502621875046 -36.764180988633171 6.9665897622014796 0 -0.64278761758704617 0.76604443648966558 1 0 0 forward_v I I I I #
loop $-1 $-1 $209 $49 #
coedge $-1 $127 $127 $128 $210 reversed $77 $-1 #
coedge $-1 $128 $128 $127 $210 forward $79 $-1 #
coedge $-1 $129 $129 $80 $130 forward $124 $-1 #
edge $-1 $211 -1.7735187182733256e-016 $211 6.2831853071796004 $129 $212 forward 7 unknown #
loop $-1 $-1 $136 $81 #
plane-surface $-1 48.081502621875046 -36.764180988633171 6.9665897622014796 0 -0.64278761758704617 0.76604443648966558 1 0 0 forward_v I I I I #
loop $-1 $-1 $213 $52 #
coedge $-1 $134 $134 $135 $214 reversed $82 $-1 #
coedge $-1 $135 $135 $134 $214 forward $84 $-1 #
coedge $-1 $136 $136 $85 $137 forward $131 $-1 #
edge $-1 $215 -1.7735187182733256e-016 $215 6.2831853071796004 $136 $216 forward 7 unknown #
face $-1 $217 $218 $29 $-1 $219 forward single #
loop $-1 $-1 $220 $86 #
plane-surface $-1 0 36.764180988633157 0 0 -1 0 0 0 -1 forward_v I I I I #
coedge $-1 $221 $222 $223 $224 reversed $87 $-1 #
coedge $-1 $143 $89 $225 $226 reversed $56 $-1 #
coedge $-1 $89 $142 $221 $227 reversed $56 $-1 #
coedge $-1 $223 $228 $89 $145 forward $218 $-1 #
edge $-1 $229 6.1647031956114589 $230 10.233190858196785 $144 $231 forward 7 unknown #
loop $-1 $-1 $151 $90 #
plane-surface $-1 52.093979145376153 -8.5043980477300209 66.993171422304684 0 0.78801076186113728 0.61566146476048833 1 0 0 forward_v I I I I #
loop $-1 $-1 $232 $58 #
coedge $-1 $149 $149 $150 $233 reversed $91 $-1 #
coedge $-1 $150 $150 $149 $233 forward $93 $-1 #
coedge $-1 $151 $151 $94 $152 forward $146 $-1 #
edge $-1 $234 -6.2998448080952497e-015 $234 6.2831853071795942 $151 $235 forward 7 unknown #
loop $-1 $-1 $158 $95 #
plane-surface $-1 52.093979145376153 -8.5043980477300209 66.993171422304684 0 0.78801076186113728 0.61566146476048833 1 0 0 forward_v I I I I #
loop $-1 $-1 $236 $61 #
coedge $-1 $156 $156 $157 $237 reversed $96 $-1 #
coedge $-1 $157 $157 $156 $237 forward $98 $-1 #
coedge $-1 $158 $158 $99 $159 forward $153 $-1 #
edge $-1 $238 -6.2998448080952497e-015 $238 6.2831853071795942 $158 $239 forward 7 unknown #
face $-1 $240 $241 $24 $-1 $242 reversed single #
loop $-1 $-1 $169 $100 #
plane-surface $-1 0 -36.764180988633157 0 0 1 0 0 0 1 forward_v I I I I #
coedge $-1 $174 $173 $243 $244 forward $101 $-1 #
coedge $-1 $245 $103 $246 $247 forward $65 $-1 #
coedge $-1 $103 $245 $248 $249 forward $65 $-1 #
coedge $-1 $250 $251 $103 $167 reversed $252 $-1 #
edge $-1 $253 -36.764180988633157 $254 36.764180988633157 $166 $255 forward 7 unknown #
coedge $-1 $105 $104 $245 $256 reversed $41 $-1 #
coedge $-1 $257 $248 $104 $170 forward $161 $-1 #
edge $-1 $258 -14.259457765515233 $175 14.259457765515233 $104 $259 forward 7 unknown #
coedge $-1 $246 $260 $105 $172 reversed $241 $-1 #
edge $-1 $261 -14.259457765515233 $176 14.259457765515233 $171 $262 forward 7 unknown #
coedge $-1 $163 $106 $260 $263 forward $101 $-1 #
coedge $-1 $106 $163 $257 $264 forward $101 $-1 #
vertex $-1 $107 $265 #
vertex $-1 $263 $266 #
straight-curve $-1 -59.873653370769375 0 -14.259457765515233 0 1 0 I I #
face $-1 $267 $190 $25 $-1 $268 reversed single #
loop $-1 $-1 $269 $108 #
plane-surface $-1 -76.60979273774646 -31.426824933688636 0 1 0 0 0 0 -1 forward_v I I I I #
coedge $-1 $270 $271 $272 $273 forward $109 $-1 #
coedge $-1 $274 $111 $270 $275 forward $69 $-1 #
coedge $-1 $111 $274 $188 $276 forward $69 $-1 #
edge $-1 $191 28.23579963515067 $277 34.617850232226601 $111 $278 forward 7 unknown #
coedge $-1 $113 $112 $279 $280 forward $44 $-1 #
coedge $-1 $281 $282 $112 $187 forward $283 $-1 #
edge $-1 $284 -34.617850232226601 $192 -28.23579963515067 $186 $285 forward 7 unknown #
coedge $-1 $286 $114 $183 $276 reversed $190 $-1 #
coedge $-1 $114 $286 $281 $287 reversed $190 $-1 #
loop $-1 $-1 $114 $178 #
vertex $-1 $184 $288 #
vertex $-1 $287 $289 #
straight-curve $-1 -59.873653370769375 -28.23579963515067 0 0 0 1 I I #
face $-1 $-1 $290 $26 $-1 $291 reversed single #
loop $-1 $-1 $122 $116 #
plane-surface $-1 0 0 14.259457765515233 0 0 1 1 0 0 forward_v I I I I #
coedge $-1 $292 $293 $294 $295 reversed $117 $-1 #
coedge $-1 $296 $119 $121 $204 forward $73 $-1 #
coedge $-1 $119 $296 $292 $297 forward $73 $-1 #
coedge $-1 $294 $122 $119 $201 forward $195 $-1 #
edge $-1 $207 -31.15489423553435 $298 -16.926608386340696 $200 $299 forward 7 unknown #
coedge $-1 $300 $301 $120 $203 forward $290 $-1 #
edge $-1 $302 -42.382584175887843 $206 -35.0897161725741 $202 $303 forward 7 unknown #
edge $-1 $207 -11.345688379453195 $302 -1.8307977367429951e-014 $121 $304 forward 7 unknown #
coedge $-1 $122 $294 $300 $305 forward $195 $-1 #
vertex $-1 $123 $306 #
vertex $-1 $123 $307 #
straight-curve $-1 55.195645546471873 -56.868133500746055 14.259457765515236 0 1 0 I I #
coedge $-1 $209 $209 $-1 $308 reversed $126 $-1 #
edge $-1 $309 0 $309 6.2831853071796004 $127 $310 forward 7 unknown #
vertex $-1 $130 $311 #
ellipse-curve $-1 45.032584225619274 -32.418530258020375 10.613023763858363 0 -0.64278761758704617 0.76604443648966558 1.5 0 0 1 I I #
coedge $-1 $213 $213 $-1 $312 reversed $133 $-1 #
edge $-1 $313 0 $313 6.2831853071796004 $134 $314 forward 7 unknown #
vertex $-1 $137 $315 #
ellipse-curve $-1 51.130421018130846 -32.418530258020375 10.613023763858363 0 -0.64278761758704617 0.76604443648966558 1.5 0 0 1 I I #
face $-1 $-1 $316 $29 $-1 $317 reversed single #
loop $-1 $-1 $223 $138 #
plane-surface $-1 0 0 14.259457765515233 0 0 1 1 0 0 forward_v I I I I #
coedge $-1 $225 $318 $319 $320 forward $139 $-1 #
coedge $-1 $319 $141 $143 $227 forward $87 $-1 #
coedge $-1 $141 $319 $321 $322 reversed $87 $-1 #
coedge $-1 $323 $144 $141 $224 forward $218 $-1 #
edge $-1 $230 18.267315347294875 $324 33.826663798081277 $223 $325 forward 7 unknown #
coedge $-1 $326 $220 $142 $226 forward $139 $-1 #
edge $-1 $327 -61.306455963764385 $229 -56.099029080446726 $225 $328 forward 7 unknown #
edge $-1 $230 66.920042477899742 $327 73.528361977266314 $143 $329 forward 7 unknown #
coedge $-1 $144 $323 $326 $330 forward $218 $-1 #
vertex $-1 $226 $331 #
vertex $-1 $145 $332 #
straight-curve $-1 44.314304919982952 42.928884184244616 14.259457765515236 0 -1 0 I I #
coedge $-1 $232 $232 $-1 $333 reversed $148 $-1 #
edge $-1 $334 0 $334 6.2831853071796004 $149 $335 forward 7 unknown #
vertex $-1 $152 $336 #
ellipse-curve $-1 48.759833048779072 34.729937157340494 11.655744323856412 0 0.78801076186113728 0.61566146476048833 0.5 0 0 1 I I #
coedge $-1 $236 $236 $-1 $337 reversed $155 $-1 #
edge $-1 $338 0 $338 6.2831853071796004 $156 $339 forward 7 unknown #
vertex $-1 $159 $340 #
ellipse-curve $-1 55.428125241973248 34.729937157340494 11.655744323856412 0 0.78801076186113728 0.61566146476048833 0.5 0 0 1 I I #
face $-1 $-1 $252 $24 $-1 $341 reversed single #
loop $-1 $-1 $342 $160 #
plane-surface $-1 0 36.764180988633157 0 0 -1 0 0 0 -1 forward_v I I I I #
coedge $-1 $251 $250 $163 $244 reversed $252 $-1 #
edge $-1 $343 -36.764180988633157 $344 36.764180988633157 $243 $345 forward 7 unknown #
coedge $-1 $165 $164 $168 $256 forward $65 $-1 #
coedge $-1 $342 $171 $164 $247 reversed $241 $-1 #
edge $-1 $254 -59.873653370769375 $261 59.873653370769375 $246 $346 forward 7 unknown #
coedge $-1 $169 $347 $165 $249 reversed $161 $-1 #
edge $-1 $258 -59.873653370769375 $253 59.873653370769375 $248 $348 forward 7 unknown #
coedge $-1 $243 $166 $347 $349 forward $252 $-1 #
coedge $-1 $166 $243 $342 $350 reversed $252 $-1 #
loop $-1 $-1 $250 $240 #
vertex $-1 $167 $351 #
vertex $-1 $167 $352 #
straight-curve $-1 59.873653370769375 0 14.259457765515233 0 1 0 I I #
edge $-1 $261 -36.764180988633157 $258 36.764180988633157 $168 $353 forward 7 unknown #
coedge $-1 $347 $169 $174 $264 reversed $161 $-1 #
vertex $-1 $256 $354 #
straight-curve $-1 -59.873653370769375 -36.764180988633157 0 0 0 -1 I I #
coedge $-1 $171 $342 $173 $263 reversed $241 $-1 #
vertex $-1 $247 $355 #
straight-curve $-1 -59.873653370769375 36.764180988633157 0 0 0 -1 I I #
edge $-1 $176 -59.873653370769375 $343 59.873653370769375 $260 $356 forward 7 unknown #
edge $-1 $344 -59.873653370769375 $175 59.873653370769375 $257 $357 forward 7 unknown #
point $-1 -59.873653370769375 -36.764180988633157 -14.259457765515233 #
point $-1 -59.873653370769375 36.764180988633157 -14.259457765515233 #
face $-1 $-1 $283 $25 $-1 $358 forward single #
plane-surface $-1 -68.241723054257918 -28.23579963515067 0 0 -1 0 0 0 -1 forward_v I I I I #
coedge $-1 $359 $360 $286 $361 forward $179 $-1 #
coedge $-1 $279 $181 $182 $275 reversed $109 $-1 #
coedge $-1 $181 $279 $282 $362 reversed $109 $-1 #
coedge $-1 $360 $359 $181 $273 reversed $179 $-1 #
edge $-1 $363 -14.259457765515233 $364 14.259457765515233 $272 $365 forward 7 unknown #
coedge $-1 $183 $182 $359 $366 forward $69 $-1 #
edge $-1 $277 -8.3680696834885424 $364 8.3680696834885424 $270 $367 forward 7 unknown #
edge $-1 $368 -8.3680696834885424 $191 8.3680696834885424 $188 $369 forward 7 unknown #
vertex $-1 $275 $370 #
straight-curve $-1 -59.873653370769375 0 -14.259457765515233 0 -1 0 I I #
coedge $-1 $271 $270 $185 $280 reversed $109 $-1 #
edge $-1 $284 -14.259457765515233 $277 14.259457765515233 $279 $371 forward 7 unknown #
coedge $-1 $372 $186 $189 $287 forward $283 $-1 #
coedge $-1 $186 $372 $271 $362 forward $283 $-1 #
loop $-1 $-1 $186 $267 #
vertex $-1 $187 $373 #
straight-curve $-1 -59.873653370769375 0 14.259457765515233 0 1 0 I I #
coedge $-1 $189 $188 $269 $361 reversed $190 $-1 #
edge $-1 $192 -8.3680696834885424 $374 8.3680696834885424 $189 $375 forward 7 unknown #
point $-1 -59.873653370769375 -28.23579963515067 -14.259457765515233 #
point $-1 -59.873653370769375 -28.23579963515067 14.259457765515233 #
loop $-1 $-1 $202 $194 #
plane-surface $-1 0 -36.764180988633157 0 0 1 0 0 0 1 forward_v I I I I #
coedge $-1 $293 $197 $199 $297 reversed $117 $-1 #
coedge $-1 $197 $292 $376 $377 reversed $117 $-1 #
coedge $-1 $205 $200 $197 $295 forward $195 $-1 #
edge $-1 $298 -28.795253973338454 $378 -20.103952512112897 $294 $379 forward 7 unknown #
coedge $-1 $199 $198 $301 $380 reversed $73 $-1 #
edge $-1 $381 1.8307977367429951e-014 $298 11.345688379453195 $292 $382 forward 7 unknown #
vertex $-1 $201 $383 #
straight-curve $-1 24.040751310937523 -28.072879527407601 14.259457765515233 -1 0 0 I I #
coedge $-1 $376 $202 $205 $305 reversed $290 $-1 #
coedge $-1 $202 $376 $296 $380 forward $290 $-1 #
vertex $-1 $203 $384 #
straight-curve $-1 55.195645546471873 -36.764180988633157 49.349173938089336 0 0 1 I I #
straight-curve $-1 55.195645546471873 -36.764180988633171 6.9665897622014796 0 -0.76604443648966558 -0.64278761758704617 I I #
edge $-1 $378 40.967359697278219 $206 55.195645546471873 $300 $385 forward 7 unknown #
point $-1 55.195645546471873 -36.764180988633157 14.259457765515233 #
point $-1 55.195645546471873 -28.072879527407601 14.259457765515233 #
edge $-1 $386 1 $386 0 $209 $-1 forward 7 unknown #
vertex $-1 $210 $387 #
ellipse-curve $-1 45.032584225619274 -29.042203306338518 6.5892740736961253 0 -0.64278761758704617 0.76604443648966558 1.5 0 0 1 I I #
point $-1 46.532584225619274 -32.418530258020368 10.613023763858354 #
edge $-1 $388 1 $388 0 $213 $-1 forward 7 unknown #
vertex $-1 $214 $389 #
ellipse-curve $-1 51.130421018130846 -29.042203306338518 6.5892740736961253 0 -0.64278761758704617 0.76604443648966558 1.5 0 0 1 I I #
point $-1 52.630421018130846 -32.418530258020368 10.613023763858354 #
loop $-1 $-1 $321 $217 #
plane-surface $-1 59.873653370769375 0 0 -1 0 0 0 0 1 forward_v I I I I #
coedge $-1 $220 $326 $390 $391 forward $139 $-1 #
coedge $-1 $222 $221 $220 $320 reversed $87 $-1 #
edge $-1 $392 -33.826663798081277 $327 -18.267315347294875 $220 $393 forward 7 unknown #
coedge $-1 $390 $394 $222 $322 forward $316 $-1 #
edge $-1 $324 37.906457372421855 $392 44.514776871788428 $321 $395 forward 7 unknown #
coedge $-1 $228 $223 $394 $396 forward $218 $-1 #
vertex $-1 $396 $397 #
straight-curve $-1 26.046989572688076 32.695693326047831 14.259457765515236 1 0 0 I I #
coedge $-1 $318 $225 $228 $330 reversed $139 $-1 #
vertex $-1 $226 $398 #
straight-curve $-1 44.314304919982952 36.764180988633157 70.358486845961963 0 0 1 I I #
straight-curve $-1 44.314304919982952 -8.5043980477300209 66.993171422304684 0 0.61566146476048833 -0.78801076186113728 I I #
edge $-1 $399 -59.873653370769375 $229 -44.314304919982952 $326 $400 forward 7 unknown #
point $-1 44.314304919982952 36.764180988633157 14.259457765515233 #
point $-1 44.314304919982952 32.695693326047831 14.259457765515236 #
edge $-1 $401 1 $401 0 $232 $-1 forward 7 unknown #
vertex $-1 $233 $402 #
ellipse-curve $-1 48.759833048779072 33.311015163689859 10.547160995719379 0 0.78801076186113728 0.61566146476048833 0.5 0 0 1 I I #
point $-1 49.259833048779072 34.72993715734048 11.655744323856405 #
edge $-1 $403 1 $403 0 $236 $-1 forward 7 unknown #
vertex $-1 $237 $404 #
ellipse-curve $-1 55.428125241973248 33.311015163689859 10.547160995719379 0 0.78801076186113728 0.61566146476048833 0.5 0 0 1 I I #
point $-1 55.928125241973248 34.72993715734048 11.655744323856405 #
plane-surface $-1 59.873653370769375 0 0 -1 0 0 0 0 1 forward_v I I I I #
coedge $-1 $260 $246 $251 $350 forward $241 $-1 #
vertex $-1 $244 $405 #
vertex $-1 $349 $406 #
straight-curve $-1 59.873653370769375 0 -14.259457765515233 0 -1 0 I I #
straight-curve $-1 0 36.764180988633157 14.259457765515233 -1 0 0 I I #
coedge $-1 $248 $257 $250 $349 reversed $161 $-1 #
straight-curve $-1 0 -36.764180988633157 14.259457765515233 1 0 0 I I #
edge $-1 $253 -14.259457765515233 $344 14.259457765515233 $250 $407 forward 7 unknown #
edge $-1 $254 -14.259457765515233 $343 14.259457765515233 $251 $408 forward 7 unknown #
point $-1 59.873653370769375 -36.764180988633157 14.259457765515233 #
point $-1 59.873653370769375 36.764180988633157 14.259457765515233 #
straight-curve $-1 -59.873653370769375 0 14.259457765515233 0 -1 0 I I #
point $-1 -59.873653370769375 -36.764180988633157 14.259457765515233 #
point $-1 -59.873653370769375 36.764180988633157 14.259457765515233 #
straight-curve $-1 0 36.764180988633157 -14.259457765515233 1 0 0 I I #
straight-curve $-1 0 -36.764180988633157 -14.259457765515233 -1 0 0 I I #
plane-surface $-1 0 0 14.259457765515233 0 0 1 1 0 0 forward_v I I I I #
coedge $-1 $272 $269 $274 $366 reversed $179 $-1 #
coedge $-1 $269 $272 $372 $409 reversed $179 $-1 #
edge $-1 $374 -14.259457765515233 $368 14.259457765515233 $286 $410 forward 7 unknown #
edge $-1 $363 -8.3680696834885424 $284 8.3680696834885424 $271 $411 forward 7 unknown #
vertex $-1 $409 $412 #
vertex $-1 $366 $413 #
straight-curve $-1 -76.60979273774646 -34.617850232226601 0 0 0 -1 I I #
edge $-1 $364 -3.1910252985379657 $368 3.1910252985379657 $359 $414 forward 7 unknown #
straight-curve $-1 -68.241723054257918 -34.617850232226601 -14.259457765515233 -1 0 0 I I #
vertex $-1 $276 $415 #
straight-curve $-1 -68.241723054257918 -28.23579963515067 -14.259457765515233 1 0 0 I I #
point $-1 -59.873653370769375 -34.617850232226601 -14.259457765515233 #
straight-curve $-1 -59.873653370769375 -34.617850232226601 0 0 0 -1 I I #
coedge $-1 $282 $281 $360 $409 forward $283 $-1 #
point $-1 -59.873653370769375 -34.617850232226601 14.259457765515233 #
vertex $-1 $287 $416 #
straight-curve $-1 -68.241723054257918 -28.23579963515067 14.259457765515233 -1 0 0 I I #
coedge $-1 $301 $300 $293 $377 forward $290 $-1 #
edge $-1 $378 35.0897161725741 $381 42.382584175887843 $376 $417 forward 7 unknown #
vertex $-1 $305 $418 #
straight-curve $-1 40.967359697278219 -56.868133500746055 14.259457765515236 0 -1 0 I I #
edge $-1 $381 16.926608386340696 $302 31.15489423553435 $301 $419 forward 7 unknown #
vertex $-1 $380 $420 #
straight-curve $-1 40.967359697278219 -36.764180988633171 6.9665897622014796 0 0.76604443648966558 0.64278761758704617 I I #
point $-1 40.967359697278219 -28.072879527407601 14.259457765515233 #
point $-1 55.195645546471873 -36.764180988633157 6.9665897622014912 #
straight-curve $-1 0 -36.764180988633157 14.259457765515233 1 0 0 I I #
vertex $-1 $308 $421 #
point $-1 46.532584225619274 -29.042203306338518 6.5892740736961253 #
vertex $-1 $312 $422 #
point $-1 52.630421018130846 -29.042203306338518 6.5892740736961253 #
coedge $-1 $394 $321 $318 $391 reversed $316 $-1 #
edge $-1 $399 -14.259457765515233 $392 -9.0520308821975775 $390 $423 forward 7 unknown #
vertex $-1 $322 $424 #
straight-curve $-1 26.046989572688076 36.764180988633157 9.0520308821975703 -1 0 0 I I #
coedge $-1 $321 $390 $323 $396 reversed $316 $-1 #
straight-curve $-1 59.873653370769375 9.3581482562615861 44.130154119014108 0 0.61566146476048833 -0.78801076186113728 I I #
edge $-1 $324 32.695693326047831 $399 36.764180988633157 $394 $425 forward 7 unknown #
point $-1 59.873653370769354 32.695693326047831 14.259457765515236 #
point $-1 44.314304919982952 36.764180988633157 9.0520308821975775 #
vertex $-1 $396 $426 #
straight-curve $-1 0 36.764180988633157 14.259457765515233 -1 0 0 I I #
vertex $-1 $333 $427 #
point $-1 49.259833048779072 33.311015163689859 10.547160995719379 #
vertex $-1 $337 $428 #
point $-1 55.928125241973248 33.311015163689859 10.547160995719379 #
point $-1 59.873653370769375 36.764180988633157 -14.259457765515233 #
point $-1 59.873653370769375 -36.764180988633157 -14.259457765515233 #
straight-curve $-1 59.873653370769375 -36.764180988633157 0 0 0 -1 I I #
straight-curve $-1 59.873653370769375 36.764180988633157 0 0 0 -1 I I #
edge $-1 $374 -3.1910252985379657 $363 3.1910252985379657 $360 $429 forward 7 unknown #
straight-curve $-1 -76.60979273774646 -28.23579963515067 0 0 0 -1 I I #
straight-curve $-1 -68.241723054257918 -34.617850232226601 14.259457765515233 1 0 0 I I #
point $-1 -76.60979273774646 -34.617850232226601 14.259457765515233 #
point $-1 -76.60979273774646 -34.617850232226601 -14.259457765515233 #
straight-curve $-1 -76.60979273774646 -31.426824933688636 -14.259457765515233 0 1 0 I I #
point $-1 -76.60979273774646 -28.23579963515067 -14.259457765515233 #
point $-1 -76.60979273774646 -28.23579963515067 14.259457765515233 #
straight-curve $-1 40.967359697278219 -36.764180988633157 49.349173938089336 0 0 -1 I I #
point $-1 40.967359697278219 -36.764180988633157 14.259457765515233 #
straight-curve $-1 24.040751310937523 -36.764180988633157 6.9665897622014912 1 0 0 I I #
point $-1 40.967359697278219 -36.764180988633157 6.9665897622014912 #
point $-1 45.032584225619274 -28.078021879957948 5.4402074189616263 #
point $-1 51.130421018130846 -28.078021879957948 5.4402074189616263 #
straight-curve $-1 59.873653370769375 36.764180988633157 0 0 0 -1 I I #
point $-1 59.873653370769354 36.764180988633157 9.0520308821975775 #
straight-curve $-1 59.873653370769375 0 14.259457765515233 0 1 0 I I #
point $-1 59.873653370769375 36.764180988633157 14.259457765515233 #
point $-1 48.759833048779072 32.917009782759294 10.239330263339136 #
point $-1 55.428125241973248 32.917009782759294 10.239330263339136 #
straight-curve $-1 -76.60979273774646 -31.426824933688636 14.259457765515233 0 -1 0 I I #
End-of-ACIS-data 