500 0 3 0           
7 Unknown 11 ACIS 5.0 NT 24 Fri Mar 26 19:58:37 1999 
-1 9.9999999999999995e-007 1e-010 
body $-1 $3 $-1 $4 #
body $-1 $5 $-1 $6 #
body $-1 $7 $-1 $8 #
lump $-1 $-1 $9 $0 #
transform $-1 1 0 0 0 1 0 0 0 1 48.020264290292062 21.704450153876873 5.2365041258422691 1 rotate no_reflect no_shear #
lump $-1 $-1 $10 $1 #
transform $-1 1 0 0 0 1 0 0 0 1 48.020264290292062 21.704450153876873 5.2365041258422691 1 rotate no_reflect no_shear #
lump $-1 $-1 $11 $2 #
transform $-1 1 0 0 0 1 0 0 0 1 48.020264290292062 21.704450153876873 5.2365041258422691 1 rotate no_reflect no_shear #
shell $-1 $-1 $-1 $12 $-1 $3 #
shell $-1 $-1 $-1 $13 $-1 $5 #
shell $-1 $-1 $-1 $14 $-1 $7 #
face $-1 $15 $16 $9 $-1 $17 forward single #
face $-1 $18 $19 $10 $-1 $20 forward single #
face $-1 $21 $22 $11 $-1 $23 forward single #
face $-1 $24 $25 $9 $-1 $26 reversed single #
loop $-1 $-1 $27 $12 #
plane-surface $-1 0 0 5.2365041258422691 0 0 1 1 0 0 forward_v I I I I #
face $-1 $28 $29 $10 $-1 $30 reversed single #
loop $-1 $-1 $31 $13 #
plane-surface $-1 -48.020264290292062 0 0 1 0 0 0 0 -1 forward_v I I I I #
face $-1 $32 $33 $11 $-1 $34 reversed single #
loop $-1 $-1 $35 $14 #
plane-surface $-1 48.020264290292062 0 0 -1 0 0 0 0 1 forward_v I I I I #
face $-1 $36 $37 $9 $-1 $38 reversed single #
loop $-1 $-1 $39 $15 #
plane-surface $-1 0 0 -5.2365041258422691 0 0 1 1 0 0 forward_v I I I I #
coedge $-1 $40 $41 $42 $43 forward $16 $-1 #
face $-1 $44 $45 $10 $-1 $46 reversed single #
loop $-1 $-1 $47 $18 #
plane-surface $-1 0 0 -5.2365041258422691 0 0 1 1 0 0 forward_v I I I I #
coedge $-1 $48 $49 $50 $51 forward $19 $-1 #
face $-1 $52 $53 $11 $-1 $54 reversed single #
loop $-1 $-1 $55 $21 #
plane-surface $-1 0 0 -5.2365041258422691 0 0 1 1 0 0 forward_v I I I I #
coedge $-1 $56 $57 $58 $59 forward $22 $-1 #
face $-1 $60 $61 $9 $-1 $62 reversed single #
loop $-1 $-1 $63 $24 #
plane-surface $-1 0 -21.704450153876873 0 0 1 0 0 0 1 forward_v I I I I #
coedge $-1 $64 $65 $66 $67 forward $25 $-1 #
coedge $-1 $68 $27 $69 $70 forward $16 $-1 #
coedge $-1 $27 $68 $71 $72 forward $16 $-1 #
coedge $-1 $73 $74 $27 $43 reversed $75 $-1 #
edge $-1 $76 -21.704450153876873 $77 21.704450153876873 $42 $78 forward 7 unknown #
face $-1 $79 $80 $10 $-1 $81 reversed single #
loop $-1 $-1 $82 $28 #
plane-surface $-1 -50.195418322739961 -16.276957543214053 0 0 1 0 0 0 1 forward_v I I I I #
coedge $-1 $83 $84 $49 $85 forward $29 $-1 #
coedge $-1 $86 $31 $87 $88 reversed $19 $-1 #
coedge $-1 $31 $86 $47 $85 reversed $19 $-1 #
coedge $-1 $89 $90 $31 $51 reversed $91 $-1 #
edge $-1 $92 -5.2365041258422691 $93 5.2365041258422691 $50 $94 forward 7 unknown #
face $-1 $95 $96 $11 $-1 $97 reversed single #
loop $-1 $-1 $58 $32 #
plane-surface $-1 50.195418322739954 -16.276957543214053 0 0 1 0 0 0 1 forward_v I I I I #
coedge $-1 $98 $99 $57 $100 forward $33 $-1 #
coedge $-1 $101 $35 $102 $103 reversed $22 $-1 #
coedge $-1 $35 $101 $55 $100 reversed $22 $-1 #
coedge $-1 $104 $105 $35 $59 reversed $53 $-1 #
edge $-1 $106 -5.2365041258422691 $107 5.2365041258422691 $58 $108 forward 7 unknown #
face $-1 $109 $110 $9 $-1 $111 reversed single #
loop $-1 $-1 $112 $36 #
plane-surface $-1 -48.020264290292062 0 0 1 0 0 0 0 -1 forward_v I I I I #
coedge $-1 $113 $71 $114 $115 forward $37 $-1 #
coedge $-1 $116 $39 $113 $117 forward $25 $-1 #
coedge $-1 $39 $116 $118 $119 forward $25 $-1 #
coedge $-1 $74 $73 $39 $67 reversed $75 $-1 #
edge $-1 $120 -21.704450153876873 $121 21.704450153876873 $66 $122 forward 7 unknown #
coedge $-1 $41 $40 $123 $124 forward $16 $-1 #
coedge $-1 $125 $126 $40 $70 reversed $110 $-1 #
edge $-1 $77 -48.020264290292062 $127 48.020264290292062 $69 $128 forward 7 unknown #
coedge $-1 $63 $129 $41 $72 reversed $37 $-1 #
edge $-1 $130 -48.020264290292062 $76 48.020264290292062 $71 $131 forward 7 unknown #
coedge $-1 $66 $42 $129 $132 forward $75 $-1 #
coedge $-1 $42 $66 $125 $133 reversed $75 $-1 #
loop $-1 $-1 $73 $109 #
vertex $-1 $43 $134 #
vertex $-1 $43 $135 #
straight-curve $-1 48.020264290292062 0 5.2365041258422691 0 1 0 I I #
face $-1 $136 $91 $10 $-1 $137 reversed single #
loop $-1 $-1 $138 $44 #
plane-surface $-1 -52.370572355187861 -14.776957543214053 0 1 0 0 0 0 -1 forward_v I I I I #
coedge $-1 $139 $140 $141 $142 forward $45 $-1 #
coedge $-1 $143 $47 $139 $144 forward $29 $-1 #
coedge $-1 $47 $143 $89 $145 forward $29 $-1 #
edge $-1 $92 13.276957543214053 $146 16.276957543214053 $47 $147 forward 7 unknown #
coedge $-1 $49 $48 $148 $149 forward $19 $-1 #
coedge $-1 $150 $151 $48 $88 forward $152 $-1 #
edge $-1 $153 -16.276957543214053 $93 -13.276957543214053 $87 $154 forward 7 unknown #
coedge $-1 $155 $50 $84 $145 reversed $91 $-1 #
coedge $-1 $50 $155 $150 $156 reversed $91 $-1 #
loop $-1 $-1 $50 $79 #
vertex $-1 $85 $157 #
vertex $-1 $156 $158 #
straight-curve $-1 -48.020264290292062 -13.276957543214053 0 0 0 1 I I #
face $-1 $159 $160 $11 $-1 $161 reversed single #
loop $-1 $-1 $162 $52 #
plane-surface $-1 50.195418322739954 -13.276957543214053 0 0 -1 0 0 0 -1 forward_v I I I I #
coedge $-1 $163 $55 $164 $165 forward $33 $-1 #
coedge $-1 $55 $163 $104 $166 forward $33 $-1 #
edge $-1 $106 -16.276957543214053 $167 -13.276957543214053 $55 $168 forward 7 unknown #
coedge $-1 $57 $56 $169 $170 forward $22 $-1 #
coedge $-1 $171 $172 $56 $103 forward $173 $-1 #
edge $-1 $174 13.276957543214053 $107 16.276957543214053 $102 $175 forward 7 unknown #
coedge $-1 $176 $58 $99 $166 reversed $53 $-1 #
coedge $-1 $58 $176 $171 $177 reversed $53 $-1 #
vertex $-1 $100 $178 #
vertex $-1 $177 $179 #
straight-curve $-1 48.020264290292062 -16.276957543214053 0 0 0 1 I I #
face $-1 $-1 $75 $9 $-1 $180 reversed single #
loop $-1 $-1 $125 $60 #
plane-surface $-1 0 21.704450153876873 0 0 -1 0 0 0 -1 forward_v I I I I #
coedge $-1 $181 $123 $126 $182 forward $61 $-1 #
coedge $-1 $129 $63 $64 $117 reversed $37 $-1 #
coedge $-1 $123 $181 $63 $115 reversed $61 $-1 #
edge $-1 $130 -5.2365041258422691 $183 5.2365041258422691 $114 $184 forward 7 unknown #
coedge $-1 $65 $64 $181 $185 forward $25 $-1 #
edge $-1 $121 -48.020264290292062 $183 48.020264290292062 $113 $186 forward 7 unknown #
coedge $-1 $126 $125 $65 $119 reversed $110 $-1 #
edge $-1 $187 -48.020264290292062 $120 48.020264290292062 $118 $188 forward 7 unknown #
vertex $-1 $67 $189 #
vertex $-1 $132 $190 #
straight-curve $-1 48.020264290292062 0 -5.2365041258422691 0 -1 0 I I #
coedge $-1 $112 $114 $68 $124 reversed $61 $-1 #
edge $-1 $127 -21.704450153876873 $130 21.704450153876873 $123 $191 forward 7 unknown #
coedge $-1 $118 $69 $74 $133 forward $110 $-1 #
coedge $-1 $69 $118 $112 $182 reversed $110 $-1 #
vertex $-1 $70 $192 #
straight-curve $-1 0 21.704450153876873 5.2365041258422691 -1 0 0 I I #
coedge $-1 $71 $113 $73 $132 reversed $37 $-1 #
vertex $-1 $124 $193 #
straight-curve $-1 0 -21.704450153876873 5.2365041258422691 1 0 0 I I #
edge $-1 $76 -5.2365041258422691 $121 5.2365041258422691 $73 $194 forward 7 unknown #
edge $-1 $77 -5.2365041258422691 $120 5.2365041258422691 $74 $195 forward 7 unknown #
point $-1 48.020264290292062 -21.704450153876873 5.2365041258422691 #
point $-1 48.020264290292062 21.704450153876873 5.2365041258422691 #
face $-1 $-1 $152 $10 $-1 $196 forward single #
plane-surface $-1 -50.195418322739961 -13.276957543214053 0 0 -1 0 0 0 -1 forward_v I I I I #
coedge $-1 $197 $198 $155 $199 forward $80 $-1 #
coedge $-1 $148 $82 $83 $144 reversed $45 $-1 #
coedge $-1 $82 $148 $151 $200 reversed $45 $-1 #
coedge $-1 $198 $197 $82 $142 reversed $80 $-1 #
edge $-1 $201 -5.2365041258422691 $202 5.2365041258422691 $141 $203 forward 7 unknown #
coedge $-1 $84 $83 $197 $204 forward $29 $-1 #
edge $-1 $146 -2.1751540324478995 $202 2.1751540324478995 $139 $205 forward 7 unknown #
edge $-1 $206 -2.1751540324478995 $92 2.1751540324478995 $89 $207 forward 7 unknown #
vertex $-1 $144 $208 #
straight-curve $-1 -48.020264290292062 0 -5.2365041258422691 0 -1 0 I I #
coedge $-1 $140 $139 $86 $149 reversed $45 $-1 #
edge $-1 $153 -5.2365041258422691 $146 5.2365041258422691 $148 $209 forward 7 unknown #
coedge $-1 $210 $87 $90 $156 forward $152 $-1 #
coedge $-1 $87 $210 $140 $200 forward $152 $-1 #
loop $-1 $-1 $87 $136 #
vertex $-1 $88 $211 #
straight-curve $-1 -48.020264290292062 0 5.2365041258422691 0 1 0 I I #
coedge $-1 $90 $89 $138 $199 reversed $91 $-1 #
edge $-1 $93 -2.1751540324478995 $212 2.1751540324478995 $90 $213 forward 7 unknown #
point $-1 -48.020264290292062 -13.276957543214053 -5.2365041258422691 #
point $-1 -48.020264290292062 -13.276957543214053 5.2365041258422691 #
face $-1 $-1 $173 $11 $-1 $214 forward single #
loop $-1 $-1 $215 $95 #
plane-surface $-1 52.370572355187853 -14.776957543214053 0 -1 0 0 0 0 1 forward_v I I I I #
coedge $-1 $164 $216 $217 $218 forward $96 $-1 #
coedge $-1 $99 $98 $219 $220 forward $33 $-1 #
coedge $-1 $169 $162 $98 $165 reversed $96 $-1 #
edge $-1 $167 -2.1751540324478995 $221 2.1751540324478995 $164 $222 forward 7 unknown #
edge $-1 $223 -2.1751540324478995 $106 2.1751540324478995 $104 $224 forward 7 unknown #
vertex $-1 $165 $225 #
straight-curve $-1 48.020264290292062 0 -5.2365041258422691 0 1 0 I I #
coedge $-1 $216 $164 $101 $170 reversed $96 $-1 #
edge $-1 $174 -5.2365041258422691 $167 5.2365041258422691 $169 $226 forward 7 unknown #
coedge $-1 $227 $102 $105 $177 forward $173 $-1 #
coedge $-1 $102 $227 $216 $228 forward $173 $-1 #
loop $-1 $-1 $102 $159 #
vertex $-1 $103 $229 #
straight-curve $-1 48.020264290292062 0 5.2365041258422691 0 -1 0 I I #
coedge $-1 $105 $104 $215 $230 reversed $53 $-1 #
edge $-1 $107 -2.1751540324478995 $231 2.1751540324478995 $105 $232 forward 7 unknown #
point $-1 48.020264290292054 -16.276957543214053 -5.2365041258422691 #
point $-1 48.020264290292054 -16.276957543214053 5.2365041258422691 #
plane-surface $-1 48.020264290292062 0 0 -1 0 0 0 0 1 forward_v I I I I #
coedge $-1 $114 $112 $116 $185 reversed $61 $-1 #
edge $-1 $127 -5.2365041258422691 $187 5.2365041258422691 $126 $233 forward 7 unknown #
vertex $-1 $185 $234 #
straight-curve $-1 -48.020264290292062 -21.704450153876873 0 0 0 -1 I I #
edge $-1 $183 -21.704450153876873 $187 21.704450153876873 $181 $235 forward 7 unknown #
straight-curve $-1 0 -21.704450153876873 -5.2365041258422691 -1 0 0 I I #
vertex $-1 $119 $236 #
straight-curve $-1 0 21.704450153876873 -5.2365041258422691 1 0 0 I I #
point $-1 48.020264290292062 21.704450153876873 -5.2365041258422691 #
point $-1 48.020264290292062 -21.704450153876873 -5.2365041258422691 #
straight-curve $-1 -48.020264290292062 0 5.2365041258422691 0 -1 0 I I #
point $-1 -48.020264290292062 21.704450153876873 5.2365041258422691 #
point $-1 -48.020264290292062 -21.704450153876873 5.2365041258422691 #
straight-curve $-1 48.020264290292062 -21.704450153876873 0 0 0 -1 I I #
straight-curve $-1 48.020264290292062 21.704450153876873 0 0 0 -1 I I #
plane-surface $-1 0 0 5.2365041258422691 0 0 1 1 0 0 forward_v I I I I #
coedge $-1 $141 $138 $143 $204 reversed $80 $-1 #
coedge $-1 $138 $141 $210 $237 reversed $80 $-1 #
edge $-1 $212 -5.2365041258422691 $206 5.2365041258422691 $155 $238 forward 7 unknown #
edge $-1 $201 -2.1751540324478995 $153 2.1751540324478995 $140 $239 forward 7 unknown #
vertex $-1 $237 $240 #
vertex $-1 $204 $241 #
straight-curve $-1 -52.370572355187861 -16.276957543214053 0 0 0 -1 I I #
edge $-1 $202 -1.5 $206 1.5 $197 $242 forward 7 unknown #
straight-curve $-1 -50.195418322739961 -16.276957543214053 -5.2365041258422691 -1 0 0 I I #
vertex $-1 $145 $243 #
straight-curve $-1 -50.195418322739961 -13.276957543214053 -5.2365041258422691 1 0 0 I I #
point $-1 -48.020264290292062 -16.276957543214053 -5.2365041258422691 #
straight-curve $-1 -48.020264290292062 -16.276957543214053 0 0 0 -1 I I #
coedge $-1 $151 $150 $198 $237 forward $152 $-1 #
point $-1 -48.020264290292062 -16.276957543214053 5.2365041258422691 #
vertex $-1 $156 $244 #
straight-curve $-1 -50.195418322739961 -13.276957543214053 5.2365041258422691 -1 0 0 I I #
plane-surface $-1 0 0 5.2365041258422691 0 0 1 1 0 0 forward_v I I I I #
coedge $-1 $219 $245 $176 $230 forward $160 $-1 #
coedge $-1 $162 $169 $172 $228 reversed $96 $-1 #
coedge $-1 $245 $219 $162 $218 reversed $160 $-1 #
edge $-1 $246 -5.2365041258422691 $221 5.2365041258422691 $217 $247 forward 7 unknown #
coedge $-1 $217 $215 $163 $220 reversed $160 $-1 #
edge $-1 $221 -1.5 $223 1.5 $219 $248 forward 7 unknown #
vertex $-1 $220 $249 #
straight-curve $-1 50.195418322739954 -13.276957543214053 -5.2365041258422691 1 0 0 I I #
vertex $-1 $230 $250 #
straight-curve $-1 50.195418322739954 -16.276957543214053 -5.2365041258422691 -1 0 0 I I #
point $-1 48.020264290292054 -13.276957543214053 -5.2365041258422691 #
straight-curve $-1 48.020264290292062 -13.276957543214053 0 0 0 -1 I I #
coedge $-1 $172 $171 $245 $251 forward $173 $-1 #
edge $-1 $246 -2.1751540324478995 $174 2.1751540324478995 $216 $252 forward 7 unknown #
point $-1 48.020264290292054 -13.276957543214053 5.2365041258422691 #
edge $-1 $231 -5.2365041258422691 $223 5.2365041258422691 $215 $253 forward 7 unknown #
vertex $-1 $251 $254 #
straight-curve $-1 50.195418322739954 -16.276957543214053 5.2365041258422691 1 0 0 I I #
straight-curve $-1 -48.020264290292062 21.704450153876873 0 0 0 -1 I I #
point $-1 -48.020264290292062 -21.704450153876873 -5.2365041258422691 #
straight-curve $-1 -48.020264290292062 0 -5.2365041258422691 0 1 0 I I #
point $-1 -48.020264290292062 21.704450153876873 -5.2365041258422691 #
edge $-1 $212 -1.5 $201 1.5 $198 $255 forward 7 unknown #
straight-curve $-1 -52.370572355187861 -13.276957543214053 0 0 0 -1 I I #
straight-curve $-1 -50.195418322739961 -16.276957543214053 5.2365041258422691 1 0 0 I I #
point $-1 -52.370572355187861 -16.276957543214053 5.2365041258422691 #
point $-1 -52.370572355187861 -16.276957543214053 -5.2365041258422691 #
straight-curve $-1 -52.370572355187861 -14.776957543214053 -5.2365041258422691 0 1 0 I I #
point $-1 -52.370572355187861 -13.276957543214053 -5.2365041258422691 #
point $-1 -52.370572355187861 -13.276957543214053 5.2365041258422691 #
coedge $-1 $215 $217 $227 $251 reversed $160 $-1 #
vertex $-1 $251 $256 #
straight-curve $-1 52.370572355187853 -13.276957543214053 0 0 0 -1 I I #
straight-curve $-1 52.370572355187853 -14.776957543214053 -5.2365041258422691 0 -1 0 I I #
point $-1 52.370572355187853 -13.276957543214053 -5.2365041258422691 #
point $-1 52.370572355187853 -16.276957543214053 -5.2365041258422691 #
edge $-1 $231 -1.5 $246 1.5 $245 $257 forward 7 unknown #
straight-curve $-1 50.195418322739954 -13.276957543214053 5.2365041258422691 -1 0 0 I I #
straight-curve $-1 52.370572355187853 -16.276957543214053 0 0 0 -1 I I #
point $-1 52.370572355187853 -16.276957543214053 5.2365041258422691 #
straight-curve $-1 -52.370572355187861 -14.776957543214053 5.2365041258422691 0 -1 0 I I #
point $-1 52.370572355187853 -13.276957543214053 5.2365041258422691 #
straight-curve $-1 52.370572355187853 -14.776957543214053 5.2365041258422691 0 1 0 I I #
End-of-ACIS-data 