500 0 4 0           
7 Unknown 11 ACIS 5.0 NT 24 Thu Mar 25 18:40:35 1999 
-1 9.9999999999999995e-007 1e-010 
body $-1 $4 $-1 $5 #
body $-1 $6 $-1 $7 #
body $-1 $8 $-1 $9 #
body $-1 $10 $-1 $11 #
lump $-1 $-1 $12 $0 #
transform $-1 1 0 0 0 1 0 0 0 1 57.66655476546525 32.113373966853054 10.445985526996672 1 rotate no_reflect no_shear #
lump $-1 $-1 $13 $1 #
transform $-1 1 0 0 0 1 0 0 0 1 57.66655476546525 32.113373966853054 10.445985526996672 1 rotate no_reflect no_shear #
lump $-1 $-1 $14 $2 #
transform $-1 1 0 0 0 1 0 0 0 1 57.66655476546525 32.113373966853054 10.445985526996672 1 rotate no_reflect no_shear #
lump $-1 $-1 $15 $3 #
transform $-1 1 0 0 0 1 0 0 0 1 57.66655476546525 32.113373966853054 10.445985526996672 1 rotate no_reflect no_shear #
shell $-1 $-1 $-1 $16 $-1 $4 #
shell $-1 $-1 $-1 $17 $-1 $6 #
shell $-1 $-1 $-1 $18 $-1 $8 #
shell $-1 $-1 $-1 $19 $-1 $10 #
face $-1 $20 $21 $12 $-1 $22 forward single #
face $-1 $23 $24 $13 $-1 $25 forward single #
face $-1 $26 $27 $14 $-1 $28 reversed single #
face $-1 $29 $30 $15 $-1 $31 forward single #
face $-1 $32 $33 $12 $-1 $34 reversed single #
loop $-1 $-1 $35 $16 #
plane-surface $-1 0 0 10.445985526996672 0 0 1 1 0 0 forward_v I I I I #
face $-1 $36 $37 $13 $-1 $38 reversed single #
loop $-1 $-1 $39 $17 #
plane-surface $-1 -57.66655476546525 0 0 1 0 0 0 0 -1 forward_v I I I I #
face $-1 $40 $41 $14 $-1 $42 reversed single #
loop $-1 $-1 $43 $18 #
plane-surface $-1 46.924095209972947 -99.904475716240768 99.775978610112162 -1 0 0 0 -0.5877852598018023 0.80901698891910034 forward_v I I I I #
face $-1 $44 $45 $15 $-1 $46 forward single #
loop $-1 $47 $48 $19 #
cone-surface $-1 37.555930816848857 -28.78029453390808 7.6367185555232995 0 0.5877852598018023 -0.80901698891910034 1 0 0 1 I I 0 1 1 forward I I I I #
face $-1 $49 $50 $12 $-1 $51 reversed single #
loop $-1 $-1 $52 $20 #
plane-surface $-1 0 0 -10.445985526996672 0 0 1 1 0 0 forward_v I I I I #
coedge $-1 $53 $54 $55 $56 forward $21 $-1 #
face $-1 $57 $58 $13 $-1 $59 forward single #
loop $-1 $-1 $60 $23 #
plane-surface $-1 0 32.113373966853054 0 0 -1 0 0 0 -1 forward_v I I I I #
coedge $-1 $61 $62 $63 $64 forward $24 $-1 #
face $-1 $65 $66 $14 $-1 $67 reversed single #
loop $-1 $-1 $68 $26 #
plane-surface $-1 37.555930816848857 -32.113373966853061 6.469533614721982 0 -0.5877852598018023 0.80901698891910034 1 0 0 forward_v I I I I #
coedge $-1 $69 $70 $71 $72 reversed $27 $-1 #
face $-1 $-1 $73 $15 $-1 $74 forward single #
loop $-1 $75 $76 $29 #
cone-surface $-1 37.555930816848857 -27.889880677485095 6.4111690457277177 0 0.5877852598018023 -0.80901698891910034 0.5 0 0 1 I I -0.70710678118654746 0.70710678118654746 0.5 forward I I I I #
loop $-1 $-1 $77 $19 #
coedge $-1 $48 $48 $78 $79 reversed $30 $-1 #
face $-1 $80 $81 $12 $-1 $82 reversed single #
loop $-1 $-1 $83 $32 #
plane-surface $-1 0 -32.113373966853054 0 0 1 0 0 0 1 forward_v I I I I #
coedge $-1 $84 $85 $86 $87 forward $33 $-1 #
coedge $-1 $88 $35 $89 $90 forward $21 $-1 #
coedge $-1 $35 $88 $91 $92 forward $21 $-1 #
coedge $-1 $93 $94 $35 $56 reversed $95 $-1 #
edge $-1 $96 -32.113373966853054 $97 32.113373966853054 $55 $98 forward 7 unknown #
face $-1 $99 $100 $13 $-1 $101 reversed single #
loop $-1 $-1 $63 $36 #
plane-surface $-1 -62.05971221580284 0 -2.3503748859289533 0 0 1 1 0 0 forward_v I I I I #
coedge $-1 $102 $103 $62 $104 forward $37 $-1 #
coedge $-1 $105 $39 $106 $107 reversed $24 $-1 #
coedge $-1 $39 $105 $60 $104 reversed $24 $-1 #
coedge $-1 $108 $109 $39 $64 reversed $58 $-1 #
edge $-1 $110 -32.113373966853054 $111 32.113373966853054 $63 $112 forward 7 unknown #
face $-1 $113 $114 $14 $-1 $115 reversed single #
loop $-1 $-1 $116 $40 #
plane-surface $-1 28.187766423724767 -99.904475716240768 99.775978610112162 1 0 0 0 0.5877852598018023 -0.80901698891910034 forward_v I I I I #
coedge $-1 $117 $118 $119 $120 reversed $41 $-1 #
coedge $-1 $70 $43 $121 $122 reversed $27 $-1 #
coedge $-1 $43 $69 $117 $123 reversed $27 $-1 #
coedge $-1 $119 $124 $43 $72 forward $125 $-1 #
edge $-1 $126 17.83886389126733 $127 23.31198030411311 $71 $128 forward 7 unknown #
loop $-1 $-1 $78 $44 #
plane-surface $-1 37.555930816848857 -32.113373966853061 6.469533614721982 0 -0.5877852598018023 0.80901698891910034 1 0 0 forward_v I I I I #
loop $-1 $-1 $129 $29 #
coedge $-1 $76 $76 $77 $130 reversed $45 $-1 #
coedge $-1 $77 $77 $76 $130 forward $47 $-1 #
coedge $-1 $78 $78 $48 $79 forward $73 $-1 #
edge $-1 $131 -2.8742057229148815e-015 $131 6.2831853071795978 $78 $132 forward 7 unknown #
face $-1 $133 $134 $12 $-1 $135 reversed single #
loop $-1 $-1 $136 $49 #
plane-surface $-1 -57.66655476546525 0 0 1 0 0 0 0 -1 forward_v I I I I #
coedge $-1 $137 $91 $138 $139 forward $50 $-1 #
coedge $-1 $140 $52 $137 $141 forward $33 $-1 #
coedge $-1 $52 $140 $142 $143 forward $33 $-1 #
coedge $-1 $94 $93 $52 $87 reversed $95 $-1 #
edge $-1 $144 -32.113373966853054 $145 32.113373966853054 $86 $146 forward 7 unknown #
coedge $-1 $54 $53 $147 $148 forward $21 $-1 #
coedge $-1 $149 $150 $53 $90 reversed $134 $-1 #
edge $-1 $97 -57.66655476546525 $151 57.66655476546525 $89 $152 forward 7 unknown #
coedge $-1 $83 $153 $54 $92 reversed $50 $-1 #
edge $-1 $154 -57.66655476546525 $96 57.66655476546525 $91 $155 forward 7 unknown #
coedge $-1 $86 $55 $153 $156 forward $95 $-1 #
coedge $-1 $55 $86 $149 $157 reversed $95 $-1 #
loop $-1 $-1 $93 $133 #
vertex $-1 $56 $158 #
vertex $-1 $56 $159 #
straight-curve $-1 57.66655476546525 0 10.445985526996672 0 1 0 I I #
face $-1 $160 $161 $13 $-1 $162 reversed single #
loop $-1 $-1 $163 $57 #
plane-surface $-1 -62.05971221580284 0 -5.3503748859289537 0 0 1 1 0 0 forward_v I I I I #
coedge $-1 $164 $60 $165 $166 reversed $37 $-1 #
coedge $-1 $60 $164 $108 $167 reversed $37 $-1 #
edge $-1 $110 2.3503748859289533 $168 5.3503748859289537 $60 $169 forward 7 unknown #
coedge $-1 $62 $61 $163 $170 forward $24 $-1 #
coedge $-1 $171 $172 $61 $107 forward $173 $-1 #
edge $-1 $174 -5.3503748859289537 $111 -2.3503748859289533 $106 $175 forward 7 unknown #
coedge $-1 $176 $63 $103 $167 forward $58 $-1 #
coedge $-1 $63 $176 $171 $177 forward $58 $-1 #
vertex $-1 $104 $178 #
vertex $-1 $177 $179 #
straight-curve $-1 -57.66655476546525 0 -2.3503748859289533 0 -1 0 I I #
face $-1 $-1 $125 $14 $-1 $180 forward single #
loop $-1 $-1 $181 $65 #
plane-surface $-1 0 -32.113373966853054 0 0 1 0 0 0 1 forward_v I I I I #
coedge $-1 $182 $183 $184 $185 reversed $66 $-1 #
coedge $-1 $186 $68 $70 $123 forward $41 $-1 #
coedge $-1 $68 $186 $182 $187 forward $41 $-1 #
coedge $-1 $184 $71 $68 $120 forward $125 $-1 #
edge $-1 $127 -28.146129801548518 $188 -9.4098010153003386 $119 $189 forward 7 unknown #
coedge $-1 $190 $191 $69 $122 forward $114 $-1 #
edge $-1 $192 -43.418455690334092 $126 -39.442003778059409 $121 $193 forward 7 unknown #
edge $-1 $127 -6.7651439806699596 $192 -8.8807605448725156e-015 $70 $194 forward 7 unknown #
coedge $-1 $71 $184 $190 $195 forward $125 $-1 #
loop $-1 $-1 $184 $113 #
vertex $-1 $122 $196 #
vertex $-1 $72 $197 #
straight-curve $-1 46.924095209972947 -49.952237858120384 10.445985526996672 0 1 0 I I #
coedge $-1 $129 $129 $-1 $198 reversed $75 $-1 #
edge $-1 $199 0 $199 6.2831853071796004 $76 $200 forward 7 unknown #
vertex $-1 $79 $201 #
ellipse-curve $-1 37.555930816848857 -29.376815760430162 8.4577595708593307 0 -0.5877852598018023 0.80901698891910034 1 0 0 1 I I #
face $-1 $-1 $95 $12 $-1 $202 reversed single #
loop $-1 $-1 $149 $80 #
plane-surface $-1 0 32.113373966853054 0 0 -1 0 0 0 -1 forward_v I I I I #
coedge $-1 $203 $147 $150 $204 forward $81 $-1 #
coedge $-1 $153 $83 $84 $141 reversed $50 $-1 #
coedge $-1 $147 $203 $83 $139 reversed $81 $-1 #
edge $-1 $154 -10.445985526996672 $205 10.445985526996672 $138 $206 forward 7 unknown #
coedge $-1 $85 $84 $203 $207 forward $33 $-1 #
edge $-1 $145 -57.66655476546525 $205 57.66655476546525 $137 $208 forward 7 unknown #
coedge $-1 $150 $149 $85 $143 reversed $134 $-1 #
edge $-1 $209 -57.66655476546525 $144 57.66655476546525 $142 $210 forward 7 unknown #
vertex $-1 $87 $211 #
vertex $-1 $156 $212 #
straight-curve $-1 57.66655476546525 0 -10.445985526996672 0 -1 0 I I #
coedge $-1 $136 $138 $88 $148 reversed $81 $-1 #
edge $-1 $151 -32.113373966853054 $154 32.113373966853054 $147 $213 forward 7 unknown #
coedge $-1 $142 $89 $94 $157 forward $134 $-1 #
coedge $-1 $89 $142 $136 $204 reversed $134 $-1 #
vertex $-1 $90 $214 #
straight-curve $-1 0 32.113373966853054 10.445985526996672 -1 0 0 I I #
coedge $-1 $91 $137 $93 $156 reversed $50 $-1 #
vertex $-1 $148 $215 #
straight-curve $-1 0 -32.113373966853054 10.445985526996672 1 0 0 I I #
edge $-1 $96 -10.445985526996672 $145 10.445985526996672 $93 $216 forward 7 unknown #
edge $-1 $97 -10.445985526996672 $144 10.445985526996672 $94 $217 forward 7 unknown #
point $-1 57.66655476546525 -32.113373966853054 10.445985526996672 #
point $-1 57.66655476546525 32.113373966853054 10.445985526996672 #
face $-1 $-1 $173 $13 $-1 $218 reversed single #
loop $-1 $-1 $219 $99 #
plane-surface $-1 -66.45286966614043 0 -3.8503748859289537 1 0 0 0 0 -1 forward_v I I I I #
coedge $-1 $220 $165 $105 $170 reversed $100 $-1 #
coedge $-1 $103 $102 $219 $221 reversed $37 $-1 #
coedge $-1 $163 $222 $102 $166 forward $100 $-1 #
edge $-1 $223 -4.3931574503375899 $168 4.3931574503375899 $102 $224 forward 7 unknown #
edge $-1 $110 -4.3931574503375899 $225 4.3931574503375899 $103 $226 forward 7 unknown #
vertex $-1 $104 $227 #
straight-curve $-1 -57.66655476546525 32.113373966853054 0 0 0 -1 I I #
edge $-1 $174 -32.113373966853054 $168 32.113373966853054 $163 $228 forward 7 unknown #
coedge $-1 $229 $106 $109 $177 reversed $173 $-1 #
coedge $-1 $106 $229 $220 $230 reversed $173 $-1 #
loop $-1 $-1 $106 $160 #
vertex $-1 $107 $231 #
straight-curve $-1 -57.66655476546525 -32.113373966853054 0 0 0 1 I I #
coedge $-1 $109 $108 $232 $233 forward $58 $-1 #
edge $-1 $234 -4.3931574503375899 $111 4.3931574503375899 $171 $235 forward 7 unknown #
point $-1 -57.66655476546525 32.113373966853054 -2.3503748859289533 #
point $-1 -57.66655476546525 -32.113373966853054 -2.3503748859289533 #
plane-surface $-1 0 0 10.445985526996672 0 0 1 1 0 0 forward_v I I I I #
coedge $-1 $191 $190 $183 $236 forward $114 $-1 #
coedge $-1 $183 $116 $118 $187 reversed $66 $-1 #
coedge $-1 $116 $182 $181 $236 reversed $66 $-1 #
coedge $-1 $124 $119 $116 $185 forward $125 $-1 #
edge $-1 $188 -23.31198030411311 $237 -17.83886389126733 $184 $238 forward 7 unknown #
coedge $-1 $118 $117 $191 $239 reversed $41 $-1 #
edge $-1 $240 8.8807605448725156e-015 $188 6.7651439806699596 $182 $241 forward 7 unknown #
vertex $-1 $120 $242 #
straight-curve $-1 18.777965408424429 -26.64025755400727 10.445985526996672 -1 0 0 I I #
coedge $-1 $181 $121 $124 $195 reversed $114 $-1 #
coedge $-1 $121 $181 $186 $239 forward $114 $-1 #
vertex $-1 $122 $243 #
straight-curve $-1 46.924095209972947 -32.113373966853054 49.887989305056081 0 0 1 I I #
straight-curve $-1 46.924095209972947 -32.113373966853061 6.469533614721982 0 -0.80901698891910034 -0.5877852598018023 I I #
edge $-1 $237 28.187766423724767 $126 46.924095209972947 $190 $244 forward 7 unknown #
point $-1 46.924095209972947 -32.113373966853054 10.445985526996672 #
point $-1 46.924095209972947 -26.640257554007274 10.445985526996672 #
edge $-1 $245 1 $245 0 $129 $-1 forward 7 unknown #
vertex $-1 $130 $246 #
ellipse-curve $-1 37.555930816848857 -28.183773307385998 6.8156775401872682 0 -0.5877852598018023 0.80901698891910034 1 0 0 1 I I #
point $-1 38.555930816848857 -29.376815760430166 8.4577595708593307 #
plane-surface $-1 57.66655476546525 0 0 -1 0 0 0 0 1 forward_v I I I I #
coedge $-1 $138 $136 $140 $207 reversed $81 $-1 #
edge $-1 $151 -10.445985526996672 $209 10.445985526996672 $150 $247 forward 7 unknown #
vertex $-1 $207 $248 #
straight-curve $-1 -57.66655476546525 -32.113373966853054 0 0 0 -1 I I #
edge $-1 $205 -32.113373966853054 $209 32.113373966853054 $203 $249 forward 7 unknown #
straight-curve $-1 0 -32.113373966853054 -10.445985526996672 -1 0 0 I I #
vertex $-1 $143 $250 #
straight-curve $-1 0 32.113373966853054 -10.445985526996672 1 0 0 I I #
point $-1 57.66655476546525 32.113373966853054 -10.445985526996672 #
point $-1 57.66655476546525 -32.113373966853054 -10.445985526996672 #
straight-curve $-1 -57.66655476546525 0 10.445985526996672 0 -1 0 I I #
point $-1 -57.66655476546525 32.113373966853054 10.445985526996672 #
point $-1 -57.66655476546525 -32.113373966853054 10.445985526996672 #
straight-curve $-1 57.66655476546525 -32.113373966853054 0 0 0 -1 I I #
straight-curve $-1 57.66655476546525 32.113373966853054 0 0 0 -1 I I #
plane-surface $-1 0 -32.113373966853054 0 0 1 0 0 0 1 forward_v I I I I #
coedge $-1 $251 $232 $164 $221 forward $161 $-1 #
coedge $-1 $222 $163 $172 $230 forward $100 $-1 #
edge $-1 $225 -1.5000000000000004 $223 1.5 $164 $252 forward 7 unknown #
coedge $-1 $165 $220 $251 $253 forward $100 $-1 #
vertex $-1 $166 $254 #
straight-curve $-1 -62.05971221580284 32.113373966853054 -5.3503748859289537 1 0 0 I I #
vertex $-1 $167 $255 #
straight-curve $-1 -62.05971221580284 32.113373966853054 -2.3503748859289533 -1 0 0 I I #
point $-1 -57.66655476546525 32.113373966853054 -5.3503748859289537 #
straight-curve $-1 -57.66655476546525 0 -5.3503748859289537 0 1 0 I I #
coedge $-1 $172 $171 $256 $257 forward $173 $-1 #
edge $-1 $174 -4.3931574503375899 $258 4.3931574503375899 $172 $259 forward 7 unknown #
point $-1 -57.66655476546525 -32.113373966853054 -5.3503748859289537 #
coedge $-1 $219 $256 $176 $233 reversed $161 $-1 #
edge $-1 $225 -32.113373966853054 $234 32.113373966853054 $232 $260 forward 7 unknown #
vertex $-1 $233 $261 #
straight-curve $-1 -62.05971221580284 -32.113373966853054 -2.3503748859289533 1 0 0 I I #
edge $-1 $237 39.442003778059409 $240 43.418455690334092 $181 $262 forward 7 unknown #
vertex $-1 $195 $263 #
straight-curve $-1 28.187766423724767 -49.952237858120384 10.445985526996672 0 -1 0 I I #
edge $-1 $240 9.4098010153003386 $192 28.146129801548518 $191 $264 forward 7 unknown #
vertex $-1 $239 $265 #
straight-curve $-1 28.187766423724767 -32.113373966853061 6.469533614721982 0 0.80901698891910034 0.5877852598018023 I I #
point $-1 28.187766423724767 -26.640257554007274 10.445985526996672 #
point $-1 46.924095209972947 -32.113373966853054 6.4695336147219873 #
straight-curve $-1 0 -32.113373966853054 10.445985526996672 1 0 0 I I #
vertex $-1 $198 $266 #
point $-1 38.555930816848857 -28.183773307385998 6.8156775401872682 #
straight-curve $-1 -57.66655476546525 32.113373966853054 0 0 0 -1 I I #
point $-1 -57.66655476546525 -32.113373966853054 -10.445985526996672 #
straight-curve $-1 -57.66655476546525 0 -10.445985526996672 0 1 0 I I #
point $-1 -57.66655476546525 32.113373966853054 -10.445985526996672 #
coedge $-1 $256 $219 $222 $253 reversed $161 $-1 #
straight-curve $-1 -66.45286966614043 32.113373966853054 -3.8503748859289537 0 0 -1 I I #
edge $-1 $258 -32.113373966853054 $223 32.113373966853054 $251 $267 forward 7 unknown #
point $-1 -66.45286966614043 32.113373966853054 -5.3503748859289537 #
point $-1 -66.45286966614043 32.113373966853054 -2.3503748859289533 #
coedge $-1 $232 $251 $229 $257 reversed $161 $-1 #
edge $-1 $234 -1.5000000000000004 $258 1.5 $256 $268 forward 7 unknown #
vertex $-1 $253 $269 #
straight-curve $-1 -62.05971221580284 -32.113373966853054 -5.3503748859289537 -1 0 0 I I #
straight-curve $-1 -66.45286966614043 0 -2.3503748859289533 0 -1 0 I I #
point $-1 -66.45286966614043 -32.113373966853054 -2.3503748859289533 #
straight-curve $-1 28.187766423724767 -32.113373966853054 49.887989305056081 0 0 -1 I I #
point $-1 28.187766423724767 -32.113373966853054 10.445985526996672 #
straight-curve $-1 18.777965408424429 -32.113373966853054 6.4695336147219891 1 0 0 I I #
point $-1 28.187766423724767 -32.113373966853054 6.4695336147219873 #
point $-1 37.555930816848857 -27.595988047584193 6.0066605512681672 #
straight-curve $-1 -66.45286966614043 0 -5.3503748859289537 0 1 0 I I #
straight-curve $-1 -66.45286966614043 -32.113373966853054 -3.8503748859289537 0 0 -1 I I #
point $-1 -66.45286966614043 -32.113373966853054 -5.3503748859289537 #
End-of-ACIS-data 