500 0 14 0           
7 Unknown 11 ACIS 5.0 NT 24 Fri Mar 26 18:54:22 1999 
-1 9.9999999999999995e-007 1e-010 
body $-1 $14 $-1 $15 #
body $-1 $16 $-1 $17 #
body $-1 $18 $-1 $19 #
body $-1 $20 $-1 $21 #
body $-1 $22 $-1 $23 #
body $-1 $24 $-1 $25 #
body $-1 $26 $-1 $27 #
body $-1 $28 $-1 $29 #
body $-1 $30 $-1 $31 #
body $-1 $32 $-1 $33 #
body $-1 $34 $-1 $35 #
body $-1 $36 $-1 $37 #
body $-1 $38 $-1 $39 #
body $-1 $40 $-1 $41 #
lump $-1 $-1 $42 $0 #
transform $-1 1 0 0 0 1 0 0 0 1 60.08117923520615 27.290024202071205 5.5392077994798239 1 rotate no_reflect no_shear #
lump $-1 $-1 $43 $1 #
transform $-1 1 0 0 0 1 0 0 0 1 60.08117923520615 27.290024202071205 5.5392077994798239 1 rotate no_reflect no_shear #
lump $-1 $-1 $44 $2 #
transform $-1 1 0 0 0 1 0 0 0 1 60.08117923520615 27.290024202071205 5.5392077994798239 1 rotate no_reflect no_shear #
lump $-1 $-1 $45 $3 #
transform $-1 1 0 0 0 1 0 0 0 1 60.08117923520615 27.290024202071205 5.5392077994798239 1 rotate no_reflect no_shear #
lump $-1 $-1 $46 $4 #
transform $-1 1 0 0 0 1 0 0 0 1 60.08117923520615 27.290024202071205 5.5392077994798239 1 rotate no_reflect no_shear #
lump $-1 $-1 $47 $5 #
transform $-1 1 0 0 0 1 0 0 0 1 60.08117923520615 27.290024202071205 5.5392077994798239 1 rotate no_reflect no_shear #
lump $-1 $-1 $48 $6 #
transform $-1 1 0 0 0 1 0 0 0 1 60.08117923520615 27.290024202071205 5.5392077994798239 1 rotate no_reflect no_shear #
lump $-1 $-1 $49 $7 #
transform $-1 1 0 0 0 1 0 0 0 1 60.08117923520615 27.290024202071205 5.5392077994798239 1 rotate no_reflect no_shear #
lump $-1 $-1 $50 $8 #
transform $-1 1 0 0 0 1 0 0 0 1 60.08117923520615 27.290024202071205 5.5392077994798239 1 rotate no_reflect no_shear #
lump $-1 $-1 $51 $9 #
transform $-1 1 0 0 0 1 0 0 0 1 60.08117923520615 27.290024202071205 5.5392077994798239 1 rotate no_reflect no_shear #
lump $-1 $-1 $52 $10 #
transform $-1 1 0 0 0 1 0 0 0 1 60.08117923520615 27.290024202071205 5.5392077994798239 1 rotate no_reflect no_shear #
lump $-1 $-1 $53 $11 #
transform $-1 1 0 0 0 1 0 0 0 1 60.08117923520615 27.290024202071205 5.5392077994798239 1 rotate no_reflect no_shear #
lump $-1 $-1 $54 $12 #
transform $-1 1 0 0 0 1 0 0 0 1 60.08117923520615 27.290024202071205 5.5392077994798239 1 rotate no_reflect no_shear #
lump $-1 $-1 $55 $13 #
transform $-1 1 0 0 0 1 0 0 0 1 60.08117923520615 27.290024202071205 5.5392077994798239 1 rotate no_reflect no_shear #
shell $-1 $-1 $-1 $56 $-1 $14 #
shell $-1 $-1 $-1 $57 $-1 $16 #
shell $-1 $-1 $-1 $58 $-1 $18 #
shell $-1 $-1 $-1 $59 $-1 $20 #
shell $-1 $-1 $-1 $60 $-1 $22 #
shell $-1 $-1 $-1 $61 $-1 $24 #
shell $-1 $-1 $-1 $62 $-1 $26 #
shell $-1 $-1 $-1 $63 $-1 $28 #
shell $-1 $-1 $-1 $64 $-1 $30 #
shell $-1 $-1 $-1 $65 $-1 $32 #
shell $-1 $-1 $-1 $66 $-1 $34 #
shell $-1 $-1 $-1 $67 $-1 $36 #
shell $-1 $-1 $-1 $68 $-1 $38 #
shell $-1 $-1 $-1 $69 $-1 $40 #
face $-1 $70 $71 $42 $-1 $72 forward single #
face $-1 $73 $74 $43 $-1 $75 forward single #
face $-1 $76 $77 $44 $-1 $78 reversed single #
face $-1 $79 $80 $45 $-1 $81 forward single #
face $-1 $82 $83 $46 $-1 $84 forward single #
face $-1 $85 $86 $47 $-1 $87 reversed single #
face $-1 $88 $89 $48 $-1 $90 forward single #
face $-1 $91 $92 $49 $-1 $93 forward single #
face $-1 $94 $95 $50 $-1 $96 reversed single #
face $-1 $97 $98 $51 $-1 $99 forward single #
face $-1 $100 $101 $52 $-1 $102 forward single #
face $-1 $103 $104 $53 $-1 $105 reversed single #
face $-1 $106 $107 $54 $-1 $108 forward single #
face $-1 $109 $110 $55 $-1 $111 forward single #
face $-1 $112 $113 $42 $-1 $114 reversed single #
loop $-1 $-1 $115 $56 #
plane-surface $-1 0 0 5.5392077994798239 0 0 1 1 0 0 forward_v I I I I #
face $-1 $116 $117 $43 $-1 $118 reversed single #
loop $-1 $-1 $119 $57 #
plane-surface $-1 -60.08117923520615 0 0 1 0 0 0 0 -1 forward_v I I I I #
face $-1 $120 $121 $44 $-1 $122 reversed single #
loop $-1 $-1 $123 $58 #
plane-surface $-1 -12.371773611144992 -106.12362538005804 92.608032287298542 -1 0 0 0 -0.6560590369687036 0.75470957328743171 forward_v I I I I #
face $-1 $124 $125 $45 $-1 $126 forward single #
loop $-1 $127 $128 $59 #
cone-surface $-1 -25.155524368292049 -24.094072984193957 2.447760724615641 0 0.6560590369687036 -0.75470957328743171 1 0 0 1 I I 0 1 1 forward I I I I #
face $-1 $129 $130 $46 $-1 $131 forward single #
loop $-1 $132 $133 $60 #
cone-surface $-1 -17.485273914003812 -24.094072984193957 2.447760724615641 0 0.6560590369687036 -0.75470957328743171 1 0 0 1 I I 0 1 1 forward I I I I #
face $-1 $134 $135 $47 $-1 $136 reversed single #
loop $-1 $-1 $137 $61 #
plane-surface $-1 36.181443928593524 -106.12362538005804 92.608032287298542 -1 0 0 0 -0.6560590369687036 0.75470957328743171 forward_v I I I I #
face $-1 $138 $139 $48 $-1 $140 forward single #
loop $-1 $141 $142 $62 #
cone-surface $-1 23.397693171446463 -24.094072984193957 2.447760724615641 0 0.6560590369687036 -0.75470957328743171 1 0 0 1 I I 0 1 1 forward I I I I #
face $-1 $143 $144 $49 $-1 $145 forward single #
loop $-1 $146 $147 $63 #
cone-surface $-1 31.067943625734699 -24.094072984193957 2.447760724615641 0 0.6560590369687036 -0.75470957328743171 1 0 0 1 I I 0 1 1 forward I I I I #
face $-1 $148 $149 $50 $-1 $150 reversed single #
loop $-1 $-1 $151 $64 #
plane-surface $-1 -30.26902467115087 64.93154033896036 128.41576628102544 1 0 0 0 -0.6560590369687036 -0.75470957328743171 forward_v I I I I #
face $-1 $152 $153 $51 $-1 $154 forward single #
loop $-1 $155 $156 $65 #
cone-surface $-1 -25.155524368292049 24.094072984193954 2.4477607246156374 0 -0.6560590369687036 -0.75470957328743171 1 0 0 1 I I 0 1 1 forward I I I I #
face $-1 $157 $158 $52 $-1 $159 forward single #
loop $-1 $160 $161 $66 #
cone-surface $-1 -17.485273914003812 24.094072984193954 2.4477607246156374 0 -0.6560590369687036 -0.75470957328743171 1 0 0 1 I I 0 1 1 forward I I I I #
face $-1 $162 $163 $53 $-1 $164 reversed single #
loop $-1 $-1 $165 $67 #
plane-surface $-1 18.284192868587642 64.93154033896036 128.41576628102544 1 0 0 0 -0.6560590369687036 -0.75470957328743171 forward_v I I I I #
face $-1 $166 $167 $54 $-1 $168 forward single #
loop $-1 $169 $170 $68 #
cone-surface $-1 23.397693171446463 24.094072984193954 2.4477607246156374 0 -0.6560590369687036 -0.75470957328743171 1 0 0 1 I I 0 1 1 forward I I I I #
face $-1 $171 $172 $55 $-1 $173 forward single #
loop $-1 $174 $175 $69 #
cone-surface $-1 31.067943625734699 24.094072984193954 2.4477607246156374 0 -0.6560590369687036 -0.75470957328743171 1 0 0 1 I I 0 1 1 forward I I I I #
face $-1 $176 $177 $42 $-1 $178 reversed single #
loop $-1 $-1 $179 $70 #
plane-surface $-1 0 0 -5.5392077994798239 0 0 1 1 0 0 forward_v I I I I #
coedge $-1 $180 $181 $182 $183 forward $71 $-1 #
face $-1 $184 $185 $43 $-1 $186 reversed single #
loop $-1 $-1 $187 $73 #
plane-surface $-1 0 27.290024202071205 0 0 -1 0 0 0 -1 forward_v I I I I #
coedge $-1 $188 $189 $190 $191 forward $74 $-1 #
face $-1 $192 $193 $44 $-1 $194 reversed single #
loop $-1 $-1 $195 $76 #
plane-surface $-1 -21.320399141147931 -27.290024202071208 1.9203500008822658 0 -0.6560590369687036 0.75470957328743171 1 0 0 forward_v I I I I #
coedge $-1 $196 $197 $198 $199 reversed $77 $-1 #
face $-1 $-1 $200 $45 $-1 $201 forward single #
loop $-1 $202 $203 $79 #
cone-surface $-1 -25.155524368292049 -22.651602044257686 0.78838776240651676 0 0.6560590369687036 -0.75470957328743171 0.5 0 0 1 I I -0.70710678118654746 0.70710678118654746 0.5 forward I I I I #
loop $-1 $-1 $204 $59 #
coedge $-1 $128 $128 $205 $206 reversed $80 $-1 #
face $-1 $-1 $207 $46 $-1 $208 forward single #
loop $-1 $209 $210 $82 #
cone-surface $-1 -17.485273914003812 -22.651602044257686 0.78838776240651676 0 0.6560590369687036 -0.75470957328743171 0.5 0 0 1 I I -0.70710678118654746 0.70710678118654746 0.5 forward I I I I #
loop $-1 $-1 $211 $60 #
coedge $-1 $133 $133 $212 $213 reversed $83 $-1 #
face $-1 $214 $215 $47 $-1 $216 reversed single #
loop $-1 $-1 $217 $85 #
plane-surface $-1 27.232818398590581 -27.290024202071208 1.9203500008822658 0 -0.6560590369687036 0.75470957328743171 1 0 0 forward_v I I I I #
coedge $-1 $218 $219 $220 $221 reversed $86 $-1 #
face $-1 $-1 $222 $48 $-1 $223 forward single #
loop $-1 $224 $225 $88 #
cone-surface $-1 23.397693171446463 -22.651602044257686 0.78838776240651676 0 0.6560590369687036 -0.75470957328743171 0.5 0 0 1 I I -0.70710678118654746 0.70710678118654746 0.5 forward I I I I #
loop $-1 $-1 $226 $62 #
coedge $-1 $142 $142 $227 $228 reversed $89 $-1 #
face $-1 $-1 $229 $49 $-1 $230 forward single #
loop $-1 $231 $232 $91 #
cone-surface $-1 31.067943625734699 -22.651602044257686 0.78838776240651676 0 0.6560590369687036 -0.75470957328743171 0.5 0 0 1 I I -0.70710678118654746 0.70710678118654746 0.5 forward I I I I #
loop $-1 $-1 $233 $63 #
coedge $-1 $147 $147 $234 $235 reversed $92 $-1 #
face $-1 $236 $237 $50 $-1 $238 reversed single #
loop $-1 $-1 $239 $94 #
plane-surface $-1 -21.320399141147931 -13.902060839026475 37.728083994609165 0 0.6560590369687036 0.75470957328743171 1 0 0 forward_v I I I I #
coedge $-1 $240 $241 $242 $243 reversed $95 $-1 #
face $-1 $-1 $244 $51 $-1 $245 forward single #
loop $-1 $246 $247 $97 #
cone-surface $-1 -25.155524368292049 22.651602044257682 0.7883877624065132 0 -0.6560590369687036 -0.75470957328743171 0.5 0 0 1 I I -0.70710678118654746 0.70710678118654746 0.5 forward I I I I #
loop $-1 $-1 $248 $65 #
coedge $-1 $156 $156 $249 $250 reversed $98 $-1 #
face $-1 $-1 $251 $52 $-1 $252 forward single #
loop $-1 $253 $254 $100 #
cone-surface $-1 -17.485273914003812 22.651602044257682 0.7883877624065132 0 -0.6560590369687036 -0.75470957328743171 0.5 0 0 1 I I -0.70710678118654746 0.70710678118654746 0.5 forward I I I I #
loop $-1 $-1 $255 $66 #
coedge $-1 $161 $161 $256 $257 reversed $101 $-1 #
face $-1 $258 $259 $53 $-1 $260 reversed single #
loop $-1 $-1 $261 $103 #
plane-surface $-1 27.232818398590581 -13.902060839026475 37.728083994609165 0 0.6560590369687036 0.75470957328743171 1 0 0 forward_v I I I I #
coedge $-1 $262 $263 $264 $265 reversed $104 $-1 #
face $-1 $-1 $266 $54 $-1 $267 forward single #
loop $-1 $268 $269 $106 #
cone-surface $-1 23.397693171446463 22.651602044257682 0.7883877624065132 0 -0.6560590369687036 -0.75470957328743171 0.5 0 0 1 I I -0.70710678118654746 0.70710678118654746 0.5 forward I I I I #
loop $-1 $-1 $270 $68 #
coedge $-1 $170 $170 $271 $272 reversed $107 $-1 #
face $-1 $-1 $273 $55 $-1 $274 forward single #
loop $-1 $275 $276 $109 #
cone-surface $-1 31.067943625734699 22.651602044257682 0.7883877624065132 0 -0.6560590369687036 -0.75470957328743171 0.5 0 0 1 I I -0.70710678118654746 0.70710678118654746 0.5 forward I I I I #
loop $-1 $-1 $277 $69 #
coedge $-1 $175 $175 $278 $279 reversed $110 $-1 #
face $-1 $280 $281 $42 $-1 $282 reversed single #
loop $-1 $-1 $283 $112 #
plane-surface $-1 0 -27.290024202071205 0 0 1 0 0 0 1 forward_v I I I I #
coedge $-1 $284 $285 $286 $287 forward $113 $-1 #
coedge $-1 $288 $115 $289 $290 forward $71 $-1 #
coedge $-1 $115 $288 $291 $292 forward $71 $-1 #
coedge $-1 $293 $294 $115 $183 reversed $295 $-1 #
edge $-1 $296 -27.290024202071205 $297 27.290024202071205 $182 $298 forward 7 unknown #
face $-1 $299 $300 $43 $-1 $301 reversed single #
loop $-1 $-1 $190 $116 #
plane-surface $-1 -63.037388863927468 0 2.5392077994798239 0 0 1 1 0 0 forward_v I I I I #
coedge $-1 $302 $303 $188 $304 forward $117 $-1 #
coedge $-1 $305 $119 $187 $304 reversed $74 $-1 #
coedge $-1 $119 $305 $306 $307 reversed $74 $-1 #
coedge $-1 $308 $309 $119 $191 reversed $185 $-1 #
edge $-1 $310 -27.290024202071205 $311 27.290024202071205 $190 $312 forward 7 unknown #
face $-1 $313 $314 $44 $-1 $315 reversed single #
loop $-1 $-1 $316 $120 #
plane-surface $-1 -30.26902467115087 -106.12362538005804 92.608032287298542 1 0 0 0 0.6560590369687036 -0.75470957328743171 forward_v I I I I #
coedge $-1 $317 $318 $319 $320 reversed $121 $-1 #
coedge $-1 $197 $123 $321 $322 reversed $77 $-1 #
coedge $-1 $123 $196 $317 $323 reversed $77 $-1 #
coedge $-1 $319 $324 $123 $199 forward $325 $-1 #
edge $-1 $326 25.771788487957817 $327 29.934808080808487 $198 $328 forward 7 unknown #
loop $-1 $-1 $205 $124 #
plane-surface $-1 -21.320399141147931 -27.290024202071208 1.9203500008822658 0 -0.6560590369687036 0.75470957328743171 1 0 0 forward_v I I I I #
loop $-1 $-1 $329 $79 #
coedge $-1 $203 $203 $204 $330 reversed $125 $-1 #
coedge $-1 $204 $204 $203 $330 forward $127 $-1 #
coedge $-1 $205 $205 $128 $206 forward $200 $-1 #
edge $-1 $331 2.3222036888429843e-016 $331 6.2831853071796004 $205 $332 forward 7 unknown #
loop $-1 $-1 $212 $129 #
plane-surface $-1 -21.320399141147931 -27.290024202071208 1.9203500008822658 0 -0.6560590369687036 0.75470957328743171 1 0 0 forward_v I I I I #
loop $-1 $-1 $333 $82 #
coedge $-1 $210 $210 $211 $334 reversed $130 $-1 #
coedge $-1 $211 $211 $210 $334 forward $132 $-1 #
coedge $-1 $212 $212 $133 $213 forward $207 $-1 #
edge $-1 $335 2.3222036888429843e-016 $335 6.2831853071796004 $212 $336 forward 7 unknown #
face $-1 $337 $338 $47 $-1 $339 reversed single #
loop $-1 $-1 $340 $134 #
plane-surface $-1 18.284192868587642 -106.12362538005804 92.608032287298542 1 0 0 0 0.6560590369687036 -0.75470957328743171 forward_v I I I I #
coedge $-1 $341 $342 $343 $344 reversed $135 $-1 #
coedge $-1 $219 $137 $345 $346 reversed $86 $-1 #
coedge $-1 $137 $218 $341 $347 reversed $86 $-1 #
coedge $-1 $343 $348 $137 $221 forward $349 $-1 #
edge $-1 $350 25.771788487957817 $351 29.934808080808487 $220 $352 forward 7 unknown #
loop $-1 $-1 $227 $138 #
plane-surface $-1 27.232818398590581 -27.290024202071208 1.9203500008822658 0 -0.6560590369687036 0.75470957328743171 1 0 0 forward_v I I I I #
loop $-1 $-1 $353 $88 #
coedge $-1 $225 $225 $226 $354 reversed $139 $-1 #
coedge $-1 $226 $226 $225 $354 forward $141 $-1 #
coedge $-1 $227 $227 $142 $228 forward $222 $-1 #
edge $-1 $355 2.3222036888429843e-016 $355 6.2831853071796004 $227 $356 forward 7 unknown #
loop $-1 $-1 $234 $143 #
plane-surface $-1 27.232818398590581 -27.290024202071208 1.9203500008822658 0 -0.6560590369687036 0.75470957328743171 1 0 0 forward_v I I I I #
loop $-1 $-1 $357 $91 #
coedge $-1 $232 $232 $233 $358 reversed $144 $-1 #
coedge $-1 $233 $233 $232 $358 forward $146 $-1 #
coedge $-1 $234 $234 $147 $235 forward $229 $-1 #
edge $-1 $359 2.3222036888429843e-016 $359 6.2831853071796004 $234 $360 forward 7 unknown #
face $-1 $361 $362 $50 $-1 $363 forward single #
loop $-1 $-1 $364 $148 #
plane-surface $-1 -12.371773611144992 64.93154033896036 128.41576628102544 -1 0 0 0 0.6560590369687036 0.75470957328743171 forward_v I I I I #
coedge $-1 $365 $366 $367 $368 reversed $149 $-1 #
coedge $-1 $241 $151 $369 $370 reversed $95 $-1 #
coedge $-1 $151 $240 $365 $371 reversed $95 $-1 #
coedge $-1 $367 $372 $151 $243 forward $362 $-1 #
edge $-1 $373 5.1757459674089752 $374 9.3387655602596453 $242 $375 forward 7 unknown #
loop $-1 $-1 $249 $152 #
plane-surface $-1 -21.320399141147931 -13.902060839026475 37.728083994609165 0 0.6560590369687036 0.75470957328743171 1 0 0 forward_v I I I I #
loop $-1 $-1 $376 $97 #
coedge $-1 $247 $247 $248 $377 reversed $153 $-1 #
coedge $-1 $248 $248 $247 $377 forward $155 $-1 #
coedge $-1 $249 $249 $156 $250 forward $244 $-1 #
edge $-1 $378 5.826974786848492e-016 $378 6.2831853071796013 $249 $379 forward 7 unknown #
loop $-1 $-1 $256 $157 #
plane-surface $-1 -21.320399141147931 -13.902060839026475 37.728083994609165 0 0.6560590369687036 0.75470957328743171 1 0 0 forward_v I I I I #
loop $-1 $-1 $380 $100 #
coedge $-1 $254 $254 $255 $381 reversed $158 $-1 #
coedge $-1 $255 $255 $254 $381 forward $160 $-1 #
coedge $-1 $256 $256 $161 $257 forward $251 $-1 #
edge $-1 $382 5.826974786848492e-016 $382 6.2831853071796013 $256 $383 forward 7 unknown #
face $-1 $384 $385 $53 $-1 $386 forward single #
loop $-1 $-1 $387 $162 #
plane-surface $-1 36.181443928593524 64.93154033896036 128.41576628102544 -1 0 0 0 0.6560590369687036 0.75470957328743171 forward_v I I I I #
coedge $-1 $388 $389 $390 $391 reversed $163 $-1 #
coedge $-1 $263 $165 $392 $393 reversed $104 $-1 #
coedge $-1 $165 $262 $388 $394 reversed $104 $-1 #
coedge $-1 $390 $395 $165 $265 forward $385 $-1 #
edge $-1 $396 5.1757459674089752 $397 9.3387655602596453 $264 $398 forward 7 unknown #
loop $-1 $-1 $271 $166 #
plane-surface $-1 27.232818398590581 -13.902060839026475 37.728083994609165 0 0.6560590369687036 0.75470957328743171 1 0 0 forward_v I I I I #
loop $-1 $-1 $399 $106 #
coedge $-1 $269 $269 $270 $400 reversed $167 $-1 #
coedge $-1 $270 $270 $269 $400 forward $169 $-1 #
coedge $-1 $271 $271 $170 $272 forward $266 $-1 #
edge $-1 $401 5.826974786848492e-016 $401 6.2831853071796013 $271 $402 forward 7 unknown #
loop $-1 $-1 $278 $171 #
plane-surface $-1 27.232818398590581 -13.902060839026475 37.728083994609165 0 0.6560590369687036 0.75470957328743171 1 0 0 forward_v I I I I #
loop $-1 $-1 $403 $109 #
coedge $-1 $276 $276 $277 $404 reversed $172 $-1 #
coedge $-1 $277 $277 $276 $404 forward $174 $-1 #
coedge $-1 $278 $278 $175 $279 forward $273 $-1 #
edge $-1 $405 5.826974786848492e-016 $405 6.2831853071796013 $278 $406 forward 7 unknown #
face $-1 $407 $408 $42 $-1 $409 reversed single #
loop $-1 $-1 $410 $176 #
plane-surface $-1 -60.08117923520615 0 0 1 0 0 0 0 -1 forward_v I I I I #
coedge $-1 $411 $291 $412 $413 forward $177 $-1 #
coedge $-1 $414 $179 $411 $415 forward $113 $-1 #
coedge $-1 $179 $414 $416 $417 forward $113 $-1 #
coedge $-1 $294 $293 $179 $287 reversed $295 $-1 #
edge $-1 $418 -27.290024202071205 $419 27.290024202071205 $286 $420 forward 7 unknown #
coedge $-1 $181 $180 $421 $422 forward $71 $-1 #
coedge $-1 $423 $424 $180 $290 reversed $408 $-1 #
edge $-1 $297 -60.08117923520615 $425 60.08117923520615 $289 $426 forward 7 unknown #
coedge $-1 $283 $427 $181 $292 reversed $177 $-1 #
edge $-1 $428 -60.08117923520615 $296 60.08117923520615 $291 $429 forward 7 unknown #
coedge $-1 $286 $182 $427 $430 forward $295 $-1 #
coedge $-1 $182 $286 $423 $431 reversed $295 $-1 #
loop $-1 $-1 $293 $407 #
vertex $-1 $183 $432 #
vertex $-1 $183 $433 #
straight-curve $-1 60.08117923520615 0 5.5392077994798239 0 1 0 I I #
face $-1 $434 $435 $43 $-1 $436 forward single #
loop $-1 $-1 $437 $184 #
plane-surface $-1 -65.993598492648786 0 4.0392077994798239 1 0 0 0 0 -1 forward_v I I I I #
coedge $-1 $438 $187 $309 $439 reversed $117 $-1 #
coedge $-1 $187 $438 $440 $441 reversed $117 $-1 #
edge $-1 $442 -5.5392077994798239 $311 -2.5392077994798239 $187 $443 forward 7 unknown #
coedge $-1 $189 $188 $444 $445 reversed $74 $-1 #
coedge $-1 $446 $447 $189 $307 forward $448 $-1 #
edge $-1 $310 2.5392077994798239 $449 5.5392077994798239 $306 $450 forward 7 unknown #
coedge $-1 $451 $190 $447 $452 forward $185 $-1 #
coedge $-1 $190 $451 $302 $439 forward $185 $-1 #
vertex $-1 $307 $453 #
vertex $-1 $304 $454 #
straight-curve $-1 -60.08117923520615 0 2.5392077994798239 0 1 0 I I #
face $-1 $-1 $325 $44 $-1 $455 forward single #
loop $-1 $-1 $456 $192 #
plane-surface $-1 0 -27.290024202071205 0 0 1 0 0 0 1 forward_v I I I I #
coedge $-1 $457 $458 $459 $460 reversed $193 $-1 #
coedge $-1 $461 $195 $197 $323 forward $121 $-1 #
coedge $-1 $195 $461 $457 $462 forward $121 $-1 #
coedge $-1 $459 $198 $195 $320 forward $325 $-1 #
edge $-1 $327 1.7115740405710262 $463 19.608825100576905 $319 $464 forward 7 unknown #
coedge $-1 $465 $466 $196 $322 forward $314 $-1 #
edge $-1 $467 -44.383666142767005 $326 -40.764808344169445 $321 $468 forward 7 unknown #
edge $-1 $327 -5.5160551027821461 $467 -4.72070819993692e-015 $197 $469 forward 7 unknown #
coedge $-1 $198 $459 $465 $470 forward $325 $-1 #
loop $-1 $-1 $459 $313 #
vertex $-1 $322 $471 #
vertex $-1 $199 $472 #
straight-curve $-1 -12.371773611144992 -53.061812690029022 5.5392077994798257 0 1 0 I I #
coedge $-1 $329 $329 $-1 $473 reversed $202 $-1 #
edge $-1 $474 0 $474 6.2831853071796004 $203 $475 forward 7 unknown #
vertex $-1 $206 $476 #
ellipse-curve $-1 -25.155524368292049 -25.208514405645872 3.7297789001810449 0 -0.6560590369687036 0.75470957328743171 1 0 0 1 I I #
coedge $-1 $333 $333 $-1 $477 reversed $209 $-1 #
edge $-1 $478 0 $478 6.2831853071796004 $210 $479 forward 7 unknown #
vertex $-1 $213 $480 #
ellipse-curve $-1 -17.485273914003812 -25.208514405645872 3.7297789001810449 0 -0.6560590369687036 0.75470957328743171 1 0 0 1 I I #
face $-1 $-1 $349 $47 $-1 $481 forward single #
loop $-1 $-1 $482 $214 #
plane-surface $-1 0 -27.290024202071205 0 0 1 0 0 0 1 forward_v I I I I #
coedge $-1 $483 $484 $485 $486 reversed $215 $-1 #
coedge $-1 $487 $217 $219 $347 forward $135 $-1 #
coedge $-1 $217 $487 $483 $488 forward $135 $-1 #
coedge $-1 $485 $220 $217 $344 forward $349 $-1 #
edge $-1 $351 -22.565034729298233 $489 -4.6677836692923513 $343 $490 forward 7 unknown #
coedge $-1 $491 $492 $218 $346 forward $338 $-1 #
edge $-1 $493 -44.383666142767005 $350 -40.764808344169445 $345 $494 forward 7 unknown #
edge $-1 $351 -5.5160551027821461 $493 -4.72070819993692e-015 $219 $495 forward 7 unknown #
coedge $-1 $220 $485 $491 $496 forward $349 $-1 #
loop $-1 $-1 $485 $337 #
vertex $-1 $346 $497 #
vertex $-1 $221 $498 #
straight-curve $-1 36.181443928593524 -53.061812690029022 5.5392077994798257 0 1 0 I I #
coedge $-1 $353 $353 $-1 $499 reversed $224 $-1 #
edge $-1 $500 0 $500 6.2831853071796004 $225 $501 forward 7 unknown #
vertex $-1 $228 $502 #
ellipse-curve $-1 23.397693171446463 -25.208514405645872 3.7297789001810449 0 -0.6560590369687036 0.75470957328743171 1 0 0 1 I I #
coedge $-1 $357 $357 $-1 $503 reversed $231 $-1 #
edge $-1 $504 0 $504 6.2831853071796004 $232 $505 forward 7 unknown #
vertex $-1 $235 $506 #
ellipse-curve $-1 31.067943625734699 -25.208514405645872 3.7297789001810449 0 -0.6560590369687036 0.75470957328743171 1 0 0 1 I I #
face $-1 $-1 $507 $50 $-1 $508 reversed single #
loop $-1 $-1 $242 $236 #
plane-surface $-1 0 0 5.5392077994798239 0 0 1 1 0 0 forward_v I I I I #
coedge $-1 $509 $510 $511 $512 reversed $237 $-1 #
coedge $-1 $513 $239 $241 $371 forward $149 $-1 #
coedge $-1 $239 $513 $509 $514 forward $149 $-1 #
coedge $-1 $511 $242 $239 $368 forward $362 $-1 #
edge $-1 $374 -19.608825100576905 $515 -1.7115740405710262 $367 $516 forward 7 unknown #
coedge $-1 $517 $518 $240 $370 forward $507 $-1 #
edge $-1 $519 -62.287533139630455 $373 -58.668675341032895 $369 $520 forward 7 unknown #
edge $-1 $374 49.06399330136027 $519 54.580048404142417 $241 $521 forward 7 unknown #
coedge $-1 $242 $511 $517 $522 forward $362 $-1 #
vertex $-1 $370 $523 #
vertex $-1 $243 $524 #
straight-curve $-1 -30.26902467115087 32.46577016948018 5.5392077994798257 0 -1 0 I I #
coedge $-1 $376 $376 $-1 $525 reversed $246 $-1 #
edge $-1 $526 0 $526 6.2831853071796004 $247 $527 forward 7 unknown #
vertex $-1 $250 $528 #
ellipse-curve $-1 -25.155524368292049 25.208514405645872 3.7297789001810466 0 0.6560590369687036 0.75470957328743171 1 0 0 1 I I #
coedge $-1 $380 $380 $-1 $529 reversed $253 $-1 #
edge $-1 $530 0 $530 6.2831853071796004 $254 $531 forward 7 unknown #
vertex $-1 $257 $532 #
ellipse-curve $-1 -17.485273914003812 25.208514405645872 3.7297789001810466 0 0.6560590369687036 0.75470957328743171 1 0 0 1 I I #
face $-1 $-1 $533 $53 $-1 $534 reversed single #
loop $-1 $-1 $264 $258 #
plane-surface $-1 0 0 5.5392077994798239 0 0 1 1 0 0 forward_v I I I I #
coedge $-1 $535 $536 $537 $538 reversed $259 $-1 #
coedge $-1 $539 $261 $263 $394 forward $163 $-1 #
coedge $-1 $261 $539 $535 $540 forward $163 $-1 #
coedge $-1 $537 $264 $261 $391 forward $385 $-1 #
edge $-1 $397 4.6677836692923513 $541 22.565034729298233 $390 $542 forward 7 unknown #
coedge $-1 $543 $544 $262 $393 forward $533 $-1 #
edge $-1 $545 -62.287533139630455 $396 -58.668675341032895 $392 $546 forward 7 unknown #
edge $-1 $397 49.06399330136027 $545 54.580048404142417 $263 $547 forward 7 unknown #
coedge $-1 $264 $537 $543 $548 forward $385 $-1 #
vertex $-1 $265 $549 #
vertex $-1 $265 $550 #
straight-curve $-1 18.284192868587642 32.46577016948018 5.5392077994798257 0 -1 0 I I #
coedge $-1 $399 $399 $-1 $551 reversed $268 $-1 #
edge $-1 $552 0 $552 6.2831853071796004 $269 $553 forward 7 unknown #
vertex $-1 $272 $554 #
ellipse-curve $-1 23.397693171446463 25.208514405645872 3.7297789001810466 0 0.6560590369687036 0.75470957328743171 1 0 0 1 I I #
coedge $-1 $403 $403 $-1 $555 reversed $275 $-1 #
edge $-1 $556 0 $556 6.2831853071796004 $276 $557 forward 7 unknown #
vertex $-1 $279 $558 #
ellipse-curve $-1 31.067943625734699 25.208514405645872 3.7297789001810466 0 0.6560590369687036 0.75470957328743171 1 0 0 1 I I #
face $-1 $-1 $295 $42 $-1 $559 reversed single #
loop $-1 $-1 $423 $280 #
plane-surface $-1 0 27.290024202071205 0 0 -1 0 0 0 -1 forward_v I I I I #
coedge $-1 $560 $421 $424 $561 forward $281 $-1 #
coedge $-1 $427 $283 $284 $415 reversed $177 $-1 #
coedge $-1 $421 $560 $283 $413 reversed $281 $-1 #
edge $-1 $428 -5.5392077994798239 $562 5.5392077994798239 $412 $563 forward 7 unknown #
coedge $-1 $285 $284 $560 $564 forward $113 $-1 #
edge $-1 $419 -60.08117923520615 $562 60.08117923520615 $411 $565 forward 7 unknown #
coedge $-1 $424 $423 $285 $417 reversed $408 $-1 #
edge $-1 $566 -60.08117923520615 $418 60.08117923520615 $416 $567 forward 7 unknown #
vertex $-1 $287 $568 #
vertex $-1 $430 $569 #
straight-curve $-1 60.08117923520615 0 -5.5392077994798239 0 -1 0 I I #
coedge $-1 $410 $412 $288 $422 reversed $281 $-1 #
edge $-1 $425 -27.290024202071205 $428 27.290024202071205 $421 $570 forward 7 unknown #
coedge $-1 $416 $289 $294 $431 forward $408 $-1 #
coedge $-1 $289 $416 $410 $561 reversed $408 $-1 #
vertex $-1 $290 $571 #
straight-curve $-1 0 27.290024202071205 5.5392077994798239 -1 0 0 I I #
coedge $-1 $291 $411 $293 $430 reversed $177 $-1 #
vertex $-1 $422 $572 #
straight-curve $-1 0 -27.290024202071205 5.5392077994798239 1 0 0 I I #
edge $-1 $296 -5.5392077994798239 $419 5.5392077994798239 $293 $573 forward 7 unknown #
edge $-1 $297 -5.5392077994798239 $418 5.5392077994798239 $294 $574 forward 7 unknown #
point $-1 60.08117923520615 -27.290024202071205 5.5392077994798239 #
point $-1 60.08117923520615 27.290024202071205 5.5392077994798239 #
face $-1 $-1 $448 $43 $-1 $575 reversed single #
loop $-1 $-1 $444 $299 #
plane-surface $-1 0 0 5.5392077994798239 0 0 1 1 0 0 forward_v I I I I #
coedge $-1 $576 $577 $438 $578 forward $300 $-1 #
coedge $-1 $303 $302 $437 $578 reversed $117 $-1 #
edge $-1 $579 -2.956209628721318 $311 2.956209628721318 $302 $580 forward 7 unknown #
coedge $-1 $581 $444 $303 $441 forward $435 $-1 #
edge $-1 $442 60.08117923520615 $582 65.993598492648786 $303 $583 forward 7 unknown #
vertex $-1 $441 $584 #
straight-curve $-1 -60.08117923520615 27.290024202071205 0 0 0 -1 I I #
coedge $-1 $440 $585 $305 $445 forward $435 $-1 #
edge $-1 $449 -27.290024202071205 $442 27.290024202071205 $444 $586 forward 7 unknown #
coedge $-1 $587 $306 $585 $588 reversed $448 $-1 #
coedge $-1 $306 $587 $308 $452 reversed $448 $-1 #
loop $-1 $-1 $306 $434 #
vertex $-1 $307 $589 #
straight-curve $-1 -60.08117923520615 -27.290024202071205 0 0 0 1 I I #
coedge $-1 $309 $308 $576 $590 forward $185 $-1 #
edge $-1 $310 -2.956209628721318 $591 2.956209628721318 $447 $592 forward 7 unknown #
point $-1 -60.08117923520615 -27.290024202071205 2.5392077994798239 #
point $-1 -60.08117923520615 27.290024202071205 2.5392077994798239 #
plane-surface $-1 0 0 5.5392077994798239 0 0 1 1 0 0 forward_v I I I I #
coedge $-1 $466 $465 $458 $593 forward $314 $-1 #
coedge $-1 $458 $316 $318 $462 reversed $193 $-1 #
coedge $-1 $316 $457 $456 $593 reversed $193 $-1 #
coedge $-1 $324 $319 $316 $460 forward $325 $-1 #
edge $-1 $463 -29.934808080808487 $594 -25.771788487957817 $459 $595 forward 7 unknown #
coedge $-1 $318 $317 $466 $596 reversed $121 $-1 #
edge $-1 $597 4.72070819993692e-015 $463 5.5160551027821461 $457 $598 forward 7 unknown #
vertex $-1 $320 $599 #
straight-curve $-1 -10.660199570573965 -23.127004609220535 5.5392077994798239 -1 0 0 I I #
coedge $-1 $456 $321 $324 $470 reversed $314 $-1 #
coedge $-1 $321 $456 $461 $596 forward $314 $-1 #
vertex $-1 $322 $600 #
straight-curve $-1 -12.371773611144992 -27.290024202071208 46.304016143649271 0 0 1 I I #
straight-curve $-1 -12.371773611144992 -27.290024202071208 1.9203500008822658 0 -0.75470957328743171 -0.6560590369687036 I I #
edge $-1 $594 -30.26902467115087 $326 -12.371773611144992 $465 $601 forward 7 unknown #
point $-1 -12.371773611144992 -27.290024202071205 5.5392077994798239 #
point $-1 -12.371773611144992 -23.127004609220535 5.5392077994798239 #
edge $-1 $602 1 $602 0 $329 $-1 forward 7 unknown #
vertex $-1 $330 $603 #
ellipse-curve $-1 -25.155524368292049 -22.979631562742039 1.1657425490502327 0 -0.6560590369687036 0.75470957328743171 1 0 0 1 I I #
point $-1 -24.155524368292049 -25.208514405645875 3.7297789001810493 #
edge $-1 $604 1 $604 0 $333 $-1 forward 7 unknown #
vertex $-1 $334 $605 #
ellipse-curve $-1 -17.485273914003812 -22.979631562742039 1.1657425490502327 0 -0.6560590369687036 0.75470957328743171 1 0 0 1 I I #
point $-1 -16.485273914003812 -25.208514405645875 3.7297789001810493 #
plane-surface $-1 0 0 5.5392077994798239 0 0 1 1 0 0 forward_v I I I I #
coedge $-1 $492 $491 $484 $606 forward $338 $-1 #
coedge $-1 $484 $340 $342 $488 reversed $215 $-1 #
coedge $-1 $340 $483 $482 $606 reversed $215 $-1 #
coedge $-1 $348 $343 $340 $486 forward $349 $-1 #
edge $-1 $489 -29.934808080808487 $607 -25.771788487957817 $485 $608 forward 7 unknown #
coedge $-1 $342 $341 $492 $609 reversed $135 $-1 #
edge $-1 $610 4.72070819993692e-015 $489 5.5160551027821461 $483 $611 forward 7 unknown #
vertex $-1 $344 $612 #
straight-curve $-1 13.61640919929529 -23.127004609220535 5.5392077994798239 -1 0 0 I I #
coedge $-1 $482 $345 $348 $496 reversed $338 $-1 #
coedge $-1 $345 $482 $487 $609 forward $338 $-1 #
vertex $-1 $346 $613 #
straight-curve $-1 36.181443928593524 -27.290024202071208 46.304016143649271 0 0 1 I I #
straight-curve $-1 36.181443928593524 -27.290024202071208 1.9203500008822658 0 -0.75470957328743171 -0.6560590369687036 I I #
edge $-1 $607 18.284192868587642 $350 36.181443928593524 $491 $614 forward 7 unknown #
point $-1 36.181443928593524 -27.290024202071205 5.5392077994798239 #
point $-1 36.181443928593524 -23.127004609220535 5.5392077994798239 #
edge $-1 $615 1 $615 0 $353 $-1 forward 7 unknown #
vertex $-1 $354 $616 #
ellipse-curve $-1 23.397693171446463 -22.979631562742039 1.1657425490502327 0 -0.6560590369687036 0.75470957328743171 1 0 0 1 I I #
point $-1 24.397693171446463 -25.208514405645875 3.7297789001810493 #
edge $-1 $617 1 $617 0 $357 $-1 forward 7 unknown #
vertex $-1 $358 $618 #
ellipse-curve $-1 31.067943625734699 -22.979631562742039 1.1657425490502327 0 -0.6560590369687036 0.75470957328743171 1 0 0 1 I I #
point $-1 32.067943625734699 -25.208514405645875 3.7297789001810493 #
loop $-1 $-1 $369 $361 #
plane-surface $-1 0 27.290024202071205 0 0 -1 0 0 0 -1 forward_v I I I I #
coedge $-1 $510 $364 $366 $514 reversed $237 $-1 #
coedge $-1 $364 $509 $619 $620 reversed $237 $-1 #
coedge $-1 $372 $367 $364 $512 forward $362 $-1 #
edge $-1 $515 -9.3387655602596453 $621 -5.1757459674089752 $511 $622 forward 7 unknown #
coedge $-1 $366 $365 $518 $623 reversed $149 $-1 #
edge $-1 $624 -54.580048404142417 $515 -49.06399330136027 $509 $625 forward 7 unknown #
vertex $-1 $368 $626 #
straight-curve $-1 -10.660199570573965 23.127004609220535 5.5392077994798292 1 0 0 I I #
coedge $-1 $619 $369 $372 $522 reversed $507 $-1 #
coedge $-1 $369 $619 $513 $623 forward $507 $-1 #
vertex $-1 $370 $627 #
straight-curve $-1 -30.26902467115087 27.290024202071205 64.20788314051272 0 0 1 I I #
straight-curve $-1 -30.26902467115087 -13.902060839026475 37.728083994609165 0 0.75470957328743171 -0.6560590369687036 I I #
edge $-1 $621 12.371773611144992 $373 30.26902467115087 $517 $628 forward 7 unknown #
point $-1 -30.26902467115087 27.290024202071205 5.5392077994798239 #
point $-1 -30.26902467115087 23.127004609220535 5.5392077994798257 #
edge $-1 $629 1 $629 0 $376 $-1 forward 7 unknown #
vertex $-1 $377 $630 #
ellipse-curve $-1 -25.155524368292049 22.979631562742036 1.1657425490502291 0 0.6560590369687036 0.75470957328743171 1 0 0 1 I I #
point $-1 -24.155524368292049 25.208514405645872 3.7297789001810457 #
edge $-1 $631 1 $631 0 $380 $-1 forward 7 unknown #
vertex $-1 $381 $632 #
ellipse-curve $-1 -17.485273914003812 22.979631562742036 1.1657425490502291 0 0.6560590369687036 0.75470957328743171 1 0 0 1 I I #
point $-1 -16.485273914003812 25.208514405645872 3.7297789001810457 #
loop $-1 $-1 $392 $384 #
plane-surface $-1 0 27.290024202071205 0 0 -1 0 0 0 -1 forward_v I I I I #
coedge $-1 $536 $387 $389 $540 reversed $259 $-1 #
coedge $-1 $387 $535 $633 $634 reversed $259 $-1 #
coedge $-1 $395 $390 $387 $538 forward $385 $-1 #
edge $-1 $541 -9.3387655602596453 $635 -5.1757459674089752 $537 $636 forward 7 unknown #
coedge $-1 $389 $388 $544 $637 reversed $163 $-1 #
edge $-1 $638 -54.580048404142417 $541 -49.06399330136027 $535 $639 forward 7 unknown #
vertex $-1 $391 $640 #
straight-curve $-1 13.61640919929529 23.127004609220535 5.5392077994798292 1 0 0 I I #
coedge $-1 $633 $392 $395 $548 reversed $533 $-1 #
coedge $-1 $392 $633 $539 $637 forward $533 $-1 #
vertex $-1 $393 $641 #
straight-curve $-1 18.284192868587642 27.290024202071205 64.20788314051272 0 0 1 I I #
straight-curve $-1 18.284192868587642 -13.902060839026475 37.728083994609165 0 0.75470957328743171 -0.6560590369687036 I I #
edge $-1 $635 -36.181443928593524 $396 -18.284192868587642 $543 $642 forward 7 unknown #
point $-1 18.284192868587642 27.290024202071205 5.5392077994798239 #
point $-1 18.284192868587642 23.127004609220535 5.5392077994798257 #
edge $-1 $643 1 $643 0 $399 $-1 forward 7 unknown #
vertex $-1 $400 $644 #
ellipse-curve $-1 23.397693171446463 22.979631562742036 1.1657425490502291 0 0.6560590369687036 0.75470957328743171 1 0 0 1 I I #
point $-1 24.397693171446463 25.208514405645872 3.7297789001810457 #
edge $-1 $645 1 $645 0 $403 $-1 forward 7 unknown #
vertex $-1 $404 $646 #
ellipse-curve $-1 31.067943625734699 22.979631562742036 1.1657425490502291 0 0.6560590369687036 0.75470957328743171 1 0 0 1 I I #
point $-1 32.067943625734699 25.208514405645872 3.7297789001810457 #
plane-surface $-1 60.08117923520615 0 0 -1 0 0 0 0 1 forward_v I I I I #
coedge $-1 $412 $410 $414 $564 reversed $281 $-1 #
edge $-1 $425 -5.5392077994798239 $566 5.5392077994798239 $424 $647 forward 7 unknown #
vertex $-1 $564 $648 #
straight-curve $-1 -60.08117923520615 -27.290024202071205 0 0 0 -1 I I #
edge $-1 $562 -27.290024202071205 $566 27.290024202071205 $560 $649 forward 7 unknown #
straight-curve $-1 0 -27.290024202071205 -5.5392077994798239 -1 0 0 I I #
vertex $-1 $417 $650 #
straight-curve $-1 0 27.290024202071205 -5.5392077994798239 1 0 0 I I #
point $-1 60.08117923520615 27.290024202071205 -5.5392077994798239 #
point $-1 60.08117923520615 -27.290024202071205 -5.5392077994798239 #
straight-curve $-1 -60.08117923520615 0 5.5392077994798239 0 -1 0 I I #
point $-1 -60.08117923520615 27.290024202071205 5.5392077994798239 #
point $-1 -60.08117923520615 -27.290024202071205 5.5392077994798239 #
straight-curve $-1 60.08117923520615 -27.290024202071205 0 0 0 -1 I I #
straight-curve $-1 60.08117923520615 27.290024202071205 0 0 0 -1 I I #
plane-surface $-1 0 -27.290024202071205 0 0 1 0 0 0 1 forward_v I I I I #
coedge $-1 $651 $437 $451 $590 reversed $300 $-1 #
coedge $-1 $437 $651 $581 $652 reversed $300 $-1 #
edge $-1 $582 -1.5 $579 1.5 $438 $653 forward 7 unknown #
vertex $-1 $439 $654 #
straight-curve $-1 -63.037388863927468 27.290024202071205 2.5392077994798239 1 0 0 I I #
coedge $-1 $585 $440 $577 $652 forward $435 $-1 #
vertex $-1 $441 $655 #
straight-curve $-1 0 27.290024202071205 5.5392077994798239 -1 0 0 I I #
point $-1 -60.08117923520615 27.290024202071205 5.5392077994798239 #
coedge $-1 $444 $581 $446 $588 forward $435 $-1 #
straight-curve $-1 -60.08117923520615 0 5.5392077994798239 0 1 0 I I #
coedge $-1 $447 $446 $651 $656 forward $448 $-1 #
edge $-1 $657 -65.993598492648786 $449 -60.08117923520615 $446 $658 forward 7 unknown #
point $-1 -60.08117923520615 -27.290024202071205 5.5392077994798239 #
edge $-1 $591 -27.290024202071205 $579 27.290024202071205 $576 $659 forward 7 unknown #
vertex $-1 $590 $660 #
straight-curve $-1 -63.037388863927468 -27.290024202071205 2.5392077994798239 -1 0 0 I I #
edge $-1 $594 40.764808344169445 $597 44.383666142767005 $456 $661 forward 7 unknown #
vertex $-1 $470 $662 #
straight-curve $-1 -30.26902467115087 -53.061812690029022 5.5392077994798257 0 -1 0 I I #
edge $-1 $597 -19.608825100576905 $467 -1.7115740405710262 $466 $663 forward 7 unknown #
vertex $-1 $596 $664 #
straight-curve $-1 -30.26902467115087 -27.290024202071208 1.9203500008822658 0 0.75470957328743171 0.6560590369687036 I I #
point $-1 -30.26902467115087 -23.127004609220535 5.5392077994798239 #
point $-1 -12.371773611144992 -27.290024202071205 1.9203500008822689 #
straight-curve $-1 0 -27.290024202071205 5.5392077994798239 1 0 0 I I #
vertex $-1 $473 $665 #
point $-1 -24.155524368292049 -22.979631562742039 1.1657425490502327 #
vertex $-1 $477 $666 #
point $-1 -16.485273914003812 -22.979631562742039 1.1657425490502327 #
edge $-1 $607 40.764808344169445 $610 44.383666142767005 $482 $667 forward 7 unknown #
vertex $-1 $496 $668 #
straight-curve $-1 18.284192868587642 -53.061812690029022 5.5392077994798257 0 -1 0 I I #
edge $-1 $610 4.6677836692923513 $493 22.565034729298233 $492 $669 forward 7 unknown #
vertex $-1 $609 $670 #
straight-curve $-1 18.284192868587642 -27.290024202071208 1.9203500008822658 0 0.75470957328743171 0.6560590369687036 I I #
point $-1 18.284192868587642 -23.127004609220535 5.5392077994798239 #
point $-1 36.181443928593524 -27.290024202071205 1.9203500008822689 #
straight-curve $-1 0 -27.290024202071205 5.5392077994798239 1 0 0 I I #
vertex $-1 $499 $671 #
point $-1 24.397693171446463 -22.979631562742039 1.1657425490502327 #
vertex $-1 $503 $672 #
point $-1 32.067943625734699 -22.979631562742039 1.1657425490502327 #
coedge $-1 $518 $517 $510 $620 forward $507 $-1 #
edge $-1 $621 58.668675341032895 $624 62.287533139630455 $619 $673 forward 7 unknown #
vertex $-1 $522 $674 #
straight-curve $-1 -12.371773611144992 32.46577016948018 5.5392077994798257 0 1 0 I I #
edge $-1 $624 1.7115740405710262 $519 19.608825100576905 $518 $675 forward 7 unknown #
vertex $-1 $623 $676 #
straight-curve $-1 -12.371773611144992 -13.902060839026475 37.728083994609165 0 -0.75470957328743171 0.6560590369687036 I I #
point $-1 -12.371773611144992 23.127004609220535 5.5392077994798257 #
point $-1 -30.26902467115087 27.290024202071208 1.9203500008822658 #
straight-curve $-1 0 27.290024202071205 5.5392077994798239 -1 0 0 I I #
vertex $-1 $525 $677 #
point $-1 -24.155524368292049 22.979631562742036 1.1657425490502291 #
vertex $-1 $529 $678 #
point $-1 -16.485273914003812 22.979631562742036 1.1657425490502291 #
coedge $-1 $544 $543 $536 $634 forward $533 $-1 #
edge $-1 $635 58.668675341032895 $638 62.287533139630455 $633 $679 forward 7 unknown #
vertex $-1 $548 $680 #
straight-curve $-1 36.181443928593524 32.46577016948018 5.5392077994798257 0 1 0 I I #
edge $-1 $638 -22.565034729298233 $545 -4.6677836692923513 $544 $681 forward 7 unknown #
vertex $-1 $637 $682 #
straight-curve $-1 36.181443928593524 -13.902060839026475 37.728083994609165 0 -0.75470957328743171 0.6560590369687036 I I #
point $-1 36.181443928593524 23.127004609220535 5.5392077994798257 #
point $-1 18.284192868587642 27.290024202071208 1.9203500008822658 #
straight-curve $-1 0 27.290024202071205 5.5392077994798239 -1 0 0 I I #
vertex $-1 $551 $683 #
point $-1 24.397693171446463 22.979631562742036 1.1657425490502291 #
vertex $-1 $555 $684 #
point $-1 32.067943625734699 22.979631562742036 1.1657425490502291 #
straight-curve $-1 -60.08117923520615 27.290024202071205 0 0 0 -1 I I #
point $-1 -60.08117923520615 -27.290024202071205 -5.5392077994798239 #
straight-curve $-1 -60.08117923520615 0 -5.5392077994798239 0 1 0 I I #
point $-1 -60.08117923520615 27.290024202071205 -5.5392077994798239 #
coedge $-1 $577 $576 $587 $656 reversed $300 $-1 #
edge $-1 $582 -27.290024202071205 $657 27.290024202071205 $577 $685 forward 7 unknown #
straight-curve $-1 -65.993598492648786 27.290024202071205 4.0392077994798239 0 0 -1 I I #
point $-1 -65.993598492648786 27.290024202071205 2.5392077994798239 #
point $-1 -65.993598492648786 27.290024202071205 5.5392077994798239 #
edge $-1 $657 -1.5 $591 1.5 $651 $686 forward 7 unknown #
vertex $-1 $652 $687 #
straight-curve $-1 0 -27.290024202071205 5.5392077994798239 1 0 0 I I #
straight-curve $-1 -65.993598492648786 0 2.5392077994798239 0 1 0 I I #
point $-1 -65.993598492648786 -27.290024202071205 2.5392077994798239 #
straight-curve $-1 -30.26902467115087 -27.290024202071208 46.304016143649271 0 0 -1 I I #
point $-1 -30.26902467115087 -27.290024202071205 5.5392077994798239 #
straight-curve $-1 -10.660199570573965 -27.290024202071205 1.9203500008822711 1 0 0 I I #
point $-1 -30.26902467115087 -27.290024202071205 1.9203500008822689 #
point $-1 -25.155524368292049 -22.323572525773333 0.4110329757628009 #
point $-1 -17.485273914003812 -22.323572525773333 0.4110329757628009 #
straight-curve $-1 18.284192868587642 -27.290024202071208 46.304016143649271 0 0 -1 I I #
point $-1 18.284192868587642 -27.290024202071205 5.5392077994798239 #
straight-curve $-1 13.61640919929529 -27.290024202071205 1.9203500008822711 1 0 0 I I #
point $-1 18.284192868587642 -27.290024202071205 1.9203500008822689 #
point $-1 23.397693171446463 -22.323572525773333 0.4110329757628009 #
point $-1 31.067943625734699 -22.323572525773333 0.4110329757628009 #
straight-curve $-1 -12.371773611144992 27.290024202071205 64.20788314051272 0 0 -1 I I #
point $-1 -12.371773611144992 27.290024202071205 5.5392077994798239 #
straight-curve $-1 -10.660199570573965 27.290024202071201 1.9203500008822694 -1 0 0 I I #
point $-1 -12.371773611144992 27.290024202071208 1.9203500008822658 #
point $-1 -25.155524368292049 22.323572525773329 0.41103297576279735 #
point $-1 -17.485273914003812 22.323572525773329 0.41103297576279735 #
straight-curve $-1 36.181443928593524 27.290024202071205 64.20788314051272 0 0 -1 I I #
point $-1 36.181443928593524 27.290024202071205 5.5392077994798239 #
straight-curve $-1 13.61640919929529 27.290024202071201 1.9203500008822694 -1 0 0 I I #
point $-1 36.181443928593524 27.290024202071208 1.9203500008822658 #
point $-1 23.397693171446463 22.323572525773329 0.41103297576279735 #
point $-1 31.067943625734699 22.323572525773329 0.41103297576279735 #
straight-curve $-1 -65.993598492648786 0 5.5392077994798239 0 -1 0 I I #
straight-curve $-1 -65.993598492648786 -27.290024202071205 4.0392077994798239 0 0 -1 I I #
point $-1 -65.993598492648786 -27.290024202071205 5.5392077994798239 #
End-of-ACIS-data 