500 0 5 0           
7 Unknown 11 ACIS 5.0 NT 24 Thu Mar 25 15:21:27 1999 
-1 9.9999999999999995e-007 1e-010 
body $-1 $5 $-1 $6 #
body $-1 $7 $-1 $8 #
body $-1 $9 $-1 $10 #
body $-1 $11 $-1 $12 #
body $-1 $13 $-1 $14 #
lump $-1 $-1 $15 $0 #
transform $-1 1 0 0 0 1 0 0 0 1 79.141819513534955 45.252880349302373 12.988227135015386 1 rotate no_reflect no_shear #
lump $-1 $-1 $16 $1 #
transform $-1 1 0 0 0 1 0 0 0 1 79.141819513534955 45.252880349302373 12.988227135015386 1 rotate no_reflect no_shear #
lump $-1 $-1 $17 $2 #
transform $-1 1 0 0 0 1 0 0 0 1 79.141819513534955 45.252880349302373 12.988227135015386 1 rotate no_reflect no_shear #
lump $-1 $-1 $18 $3 #
transform $-1 1 0 0 0 1 0 0 0 1 79.141819513534955 45.252880349302373 12.988227135015386 1 rotate no_reflect no_shear #
lump $-1 $-1 $19 $4 #
transform $-1 1 0 0 0 1 0 0 0 1 79.141819513534955 45.252880349302373 12.988227135015386 1 rotate no_reflect no_shear #
shell $-1 $-1 $-1 $20 $-1 $5 #
shell $-1 $-1 $-1 $21 $-1 $7 #
shell $-1 $-1 $-1 $22 $-1 $9 #
shell $-1 $-1 $-1 $23 $-1 $11 #
shell $-1 $-1 $-1 $24 $-1 $13 #
face $-1 $25 $26 $15 $-1 $27 forward single #
face $-1 $28 $29 $16 $-1 $30 forward single #
face $-1 $31 $32 $17 $-1 $33 forward single #
face $-1 $34 $35 $18 $-1 $36 forward single #
face $-1 $37 $38 $19 $-1 $39 reversed single #
face $-1 $40 $41 $15 $-1 $42 reversed single #
loop $-1 $-1 $43 $20 #
plane-surface $-1 0 0 12.988227135015386 0 0 1 1 0 0 forward_v I I I I #
face $-1 $44 $45 $16 $-1 $46 forward single #
loop $-1 $-1 $47 $21 #
plane-surface $-1 -77.511780558265215 -31.56535726679121 0 0 -1 0 0 0 -1 forward_v I I I I #
face $-1 $48 $49 $17 $-1 $50 forward single #
loop $-1 $-1 $51 $22 #
plane-surface $-1 -74.572348726261936 29.648528489544283 0 0 1 0 0 0 1 forward_v I I I I #
face $-1 $52 $53 $18 $-1 $54 forward single #
loop $-1 $-1 $55 $23 #
plane-surface $-1 -169.92958628942097 -24.932420354105751 133.74394592452725 0 1 0 -0.57357644374324357 0 0.81915203911291934 forward_v I I I I #
face $-1 $56 $57 $19 $-1 $58 reversed single #
loop $-1 $59 $60 $24 #
cone-surface $-1 -72.486775986221119 -19.319637399895047 8.1114656212105629 0.57357644374324357 0 -0.81915203911291934 0.81915203911291934 0 0.57357644374324357 1 I I 0 1 1 forward I I I I #
face $-1 $61 $62 $15 $-1 $63 reversed single #
loop $-1 $-1 $64 $25 #
plane-surface $-1 0 0 -12.988227135015386 0 0 1 1 0 0 forward_v I I I I #
coedge $-1 $65 $66 $67 $68 forward $26 $-1 #
face $-1 $69 $70 $16 $-1 $71 forward single #
loop $-1 $-1 $72 $28 #
plane-surface $-1 -75.881741602995476 -38.409118808046792 0 -1 0 0 0 0 1 forward_v I I I I #
coedge $-1 $73 $74 $75 $76 reversed $29 $-1 #
face $-1 $77 $78 $17 $-1 $79 forward single #
loop $-1 $-1 $80 $31 #
plane-surface $-1 -76.691918627658694 37.450704419423332 0 1 0 0 0 0 -1 forward_v I I I I #
coedge $-1 $81 $82 $83 $84 reversed $32 $-1 #
face $-1 $85 $86 $18 $-1 $87 forward single #
loop $-1 $-1 $88 $34 #
plane-surface $-1 -79.141819513534927 -19.319637399895047 4.0855802572896778 -0.57357644374324357 0 0.81915203911291934 0.81915203911291934 0 0.57357644374324357 forward_v I I I I #
coedge $-1 $89 $90 $91 $92 reversed $35 $-1 #
face $-1 $93 $94 $19 $-1 $95 forward single #
loop $-1 $96 $97 $37 #
cone-surface $-1 -71.902092811512119 -19.319637399895047 7.2764515267121297 0.57357644374324357 0 -0.81915203911291934 0.40957601955645967 0 0.28678822187162178 1 I I -0.70710678118654746 0.70710678118654746 0.5 forward I I I I #
loop $-1 $-1 $98 $24 #
coedge $-1 $60 $60 $99 $100 reversed $38 $-1 #
face $-1 $101 $102 $15 $-1 $103 reversed single #
loop $-1 $-1 $104 $40 #
plane-surface $-1 0 -45.252880349302373 0 0 1 0 0 0 1 forward_v I I I I #
coedge $-1 $105 $106 $107 $108 forward $41 $-1 #
coedge $-1 $109 $43 $110 $111 forward $26 $-1 #
coedge $-1 $43 $109 $112 $113 forward $26 $-1 #
coedge $-1 $114 $115 $43 $68 reversed $116 $-1 #
edge $-1 $117 -45.252880349302373 $118 45.252880349302373 $67 $119 forward 7 unknown #
face $-1 $120 $121 $16 $-1 $122 reversed single #
loop $-1 $-1 $123 $44 #
plane-surface $-1 0 0 12.988227135015386 0 0 1 1 0 0 forward_v I I I I #
coedge $-1 $124 $125 $126 $127 reversed $45 $-1 #
coedge $-1 $128 $47 $123 $129 reversed $29 $-1 #
coedge $-1 $47 $128 $130 $131 reversed $29 $-1 #
coedge $-1 $125 $124 $47 $76 forward $45 $-1 #
edge $-1 $132 -12.988227135015386 $133 12.988227135015386 $75 $134 forward 7 unknown #
face $-1 $135 $136 $17 $-1 $137 forward single #
loop $-1 $-1 $138 $48 #
plane-surface $-1 -72.452778824865177 37.450704419423332 0 -1 0 0 0 0 1 forward_v I I I I #
coedge $-1 $139 $140 $141 $142 reversed $49 $-1 #
coedge $-1 $143 $51 $144 $145 reversed $32 $-1 #
coedge $-1 $51 $143 $146 $147 reversed $32 $-1 #
coedge $-1 $140 $139 $51 $84 forward $49 $-1 #
edge $-1 $148 -12.988227135015386 $149 12.988227135015386 $83 $150 forward 7 unknown #
face $-1 $151 $152 $18 $-1 $153 forward single #
loop $-1 $-1 $154 $52 #
plane-surface $-1 -169.92958628942097 -13.706854445684343 133.74394592452725 0 -1 0 0.57357644374324357 0 -0.81915203911291934 forward_v I I I I #
coedge $-1 $155 $156 $157 $158 reversed $53 $-1 #
coedge $-1 $90 $55 $156 $159 forward $35 $-1 #
coedge $-1 $55 $89 $160 $161 reversed $35 $-1 #
coedge $-1 $162 $157 $55 $92 forward $152 $-1 #
edge $-1 $163 -18.53727078012848 $164 -5.8229736311755289 $91 $165 forward 7 unknown #
face $-1 $166 $167 $19 $-1 $168 forward single #
loop $-1 $-1 $169 $56 #
plane-surface $-1 -169.92958628942097 -24.932420354105751 133.74394592452725 0 1 0 -0.57357644374324357 0 0.81915203911291934 forward_v I I I I #
loop $-1 $-1 $170 $37 #
coedge $-1 $97 $97 $98 $171 forward $57 $-1 #
coedge $-1 $98 $98 $97 $171 reversed $59 $-1 #
coedge $-1 $99 $99 $60 $100 forward $167 $-1 #
edge $-1 $172 0 $172 6.2831853071796004 $99 $173 forward 7 unknown #
face $-1 $174 $175 $15 $-1 $176 reversed single #
loop $-1 $-1 $177 $61 #
plane-surface $-1 -79.141819513534955 0 0 1 0 0 0 0 -1 forward_v I I I I #
coedge $-1 $178 $112 $179 $180 forward $62 $-1 #
coedge $-1 $181 $64 $178 $182 forward $41 $-1 #
coedge $-1 $64 $181 $183 $184 forward $41 $-1 #
coedge $-1 $115 $114 $64 $108 reversed $116 $-1 #
edge $-1 $185 -45.252880349302373 $186 45.252880349302373 $107 $187 forward 7 unknown #
coedge $-1 $66 $65 $188 $189 forward $26 $-1 #
coedge $-1 $190 $191 $65 $111 reversed $175 $-1 #
edge $-1 $118 -79.141819513534955 $192 79.141819513534955 $110 $193 forward 7 unknown #
coedge $-1 $104 $194 $66 $113 reversed $62 $-1 #
edge $-1 $195 -79.141819513534955 $117 79.141819513534955 $112 $196 forward 7 unknown #
coedge $-1 $107 $67 $194 $197 forward $116 $-1 #
coedge $-1 $67 $107 $190 $198 reversed $116 $-1 #
loop $-1 $-1 $114 $174 #
vertex $-1 $68 $199 #
vertex $-1 $68 $200 #
straight-curve $-1 79.141819513534955 0 12.988227135015386 0 1 0 I I #
face $-1 $201 $202 $16 $-1 $203 reversed single #
loop $-1 $-1 $126 $69 #
plane-surface $-1 0 -45.252880349302373 0 0 1 0 0 0 1 forward_v I I I I #
coedge $-1 $204 $205 $73 $129 forward $70 $-1 #
coedge $-1 $75 $72 $204 $206 reversed $45 $-1 #
coedge $-1 $72 $75 $207 $208 reversed $45 $-1 #
coedge $-1 $209 $210 $72 $127 forward $121 $-1 #
edge $-1 $211 -12.988227135015386 $212 12.988227135015386 $126 $213 forward 7 unknown #
coedge $-1 $74 $73 $214 $215 reversed $29 $-1 #
edge $-1 $216 -40.385929234402347 $132 -37.125851323862868 $123 $217 forward 7 unknown #
coedge $-1 $218 $207 $74 $131 forward $202 $-1 #
edge $-1 $133 37.125851323862868 $219 40.385929234402347 $130 $220 forward 7 unknown #
vertex $-1 $129 $221 #
vertex $-1 $131 $222 #
straight-curve $-1 -75.881741602995476 -31.56535726679121 0 0 0 -1 I I #
face $-1 $223 $224 $17 $-1 $225 reversed single #
loop $-1 $-1 $226 $77 #
plane-surface $-1 0 0 12.988227135015386 0 0 1 1 0 0 forward_v I I I I #
coedge $-1 $227 $228 $143 $229 reversed $78 $-1 #
coedge $-1 $83 $80 $230 $231 reversed $49 $-1 #
coedge $-1 $80 $83 $232 $233 reversed $49 $-1 #
coedge $-1 $234 $235 $80 $142 forward $224 $-1 #
edge $-1 $236 -12.988227135015386 $237 12.988227135015386 $141 $238 forward 7 unknown #
coedge $-1 $82 $81 $138 $229 forward $32 $-1 #
coedge $-1 $230 $226 $81 $145 forward $136 $-1 #
edge $-1 $239 35.16660446173421 $148 39.405744264527726 $144 $240 forward 7 unknown #
coedge $-1 $241 $232 $82 $147 forward $242 $-1 #
edge $-1 $149 -39.405744264527726 $243 -35.16660446173421 $146 $244 forward 7 unknown #
vertex $-1 $145 $245 #
vertex $-1 $147 $246 #
straight-curve $-1 -76.691918627658694 29.648528489544283 0 0 0 -1 I I #
face $-1 $247 $248 $18 $-1 $249 forward single #
loop $-1 $-1 $250 $85 #
plane-surface $-1 0 0 12.988227135015386 0 0 1 1 0 0 forward_v I I I I #
coedge $-1 $251 $252 $250 $253 reversed $86 $-1 #
coedge $-1 $254 $88 $252 $255 reversed $53 $-1 #
coedge $-1 $88 $254 $89 $159 reversed $53 $-1 #
coedge $-1 $91 $250 $88 $158 forward $152 $-1 #
edge $-1 $256 4.0470357457368191 $163 15.272601654158228 $157 $257 forward 7 unknown #
edge $-1 $163 -15.521290971480166 $258 3.4489342061374355e-014 $89 $259 forward 7 unknown #
coedge $-1 $260 $261 $90 $161 forward $262 $-1 #
edge $-1 $164 53.883745827248241 $258 62.78639270497397 $160 $263 forward 7 unknown #
coedge $-1 $264 $91 $261 $265 forward $152 $-1 #
vertex $-1 $158 $266 #
vertex $-1 $265 $267 #
straight-curve $-1 -84.964793144710484 -24.932420354105751 12.988227135015386 -1 0 0 I I #
face $-1 $268 $269 $19 $-1 $270 forward single #
loop $-1 $271 $99 $93 #
plane-surface $-1 -79.141819513534927 -19.319637399895047 4.0855802572896778 -0.57357644374324357 0 0.81915203911291934 0.81915203911291934 0 0.57357644374324357 forward_v I I I I #
coedge $-1 $272 $273 $274 $275 reversed $94 $-1 #
coedge $-1 $170 $170 $-1 $276 forward $96 $-1 #
edge $-1 $277 0 $277 6.2831853071796004 $97 $278 forward 7 unknown #
vertex $-1 $100 $279 #
ellipse-curve $-1 -72.784670939058486 -19.319637399895047 8.5369036961525158 0.57357644374324357 0 -0.81915203911291934 0.81915203911291934 0 0.57357644374324357 1 I I #
face $-1 $-1 $116 $15 $-1 $280 reversed single #
loop $-1 $-1 $190 $101 #
plane-surface $-1 0 45.252880349302373 0 0 -1 0 0 0 -1 forward_v I I I I #
coedge $-1 $281 $188 $191 $282 forward $102 $-1 #
coedge $-1 $194 $104 $105 $182 reversed $62 $-1 #
coedge $-1 $188 $281 $104 $180 reversed $102 $-1 #
edge $-1 $195 -12.988227135015386 $283 12.988227135015386 $179 $284 forward 7 unknown #
coedge $-1 $106 $105 $281 $285 forward $41 $-1 #
edge $-1 $186 -79.141819513534955 $283 79.141819513534955 $178 $286 forward 7 unknown #
coedge $-1 $191 $190 $106 $184 reversed $175 $-1 #
edge $-1 $287 -79.141819513534955 $185 79.141819513534955 $183 $288 forward 7 unknown #
vertex $-1 $108 $289 #
vertex $-1 $197 $290 #
straight-curve $-1 79.141819513534955 0 -12.988227135015386 0 -1 0 I I #
coedge $-1 $177 $179 $109 $189 reversed $102 $-1 #
edge $-1 $192 -45.252880349302373 $195 45.252880349302373 $188 $291 forward 7 unknown #
coedge $-1 $183 $110 $115 $198 forward $175 $-1 #
coedge $-1 $110 $183 $177 $282 reversed $175 $-1 #
vertex $-1 $111 $292 #
straight-curve $-1 0 45.252880349302373 12.988227135015386 -1 0 0 I I #
coedge $-1 $112 $178 $114 $197 reversed $62 $-1 #
vertex $-1 $189 $293 #
straight-curve $-1 0 -45.252880349302373 12.988227135015386 1 0 0 I I #
edge $-1 $117 -12.988227135015386 $186 12.988227135015386 $114 $294 forward 7 unknown #
edge $-1 $118 -12.988227135015386 $185 12.988227135015386 $115 $295 forward 7 unknown #
point $-1 79.141819513534955 -45.252880349302373 12.988227135015386 #
point $-1 79.141819513534955 45.252880349302373 12.988227135015386 #
face $-1 $296 $297 $16 $-1 $298 reversed single #
loop $-1 $-1 $130 $120 #
plane-surface $-1 0 0 -12.988227135015386 0 0 1 1 0 0 forward_v I I I I #
coedge $-1 $299 $123 $124 $206 forward $70 $-1 #
coedge $-1 $123 $300 $301 $302 forward $70 $-1 #
edge $-1 $132 12.360797862767814 $211 26.048320945278977 $204 $303 forward 7 unknown #
coedge $-1 $130 $304 $125 $208 forward $202 $-1 #
edge $-1 $212 -26.048320945278977 $133 -12.360797862767814 $207 $305 forward 7 unknown #
coedge $-1 $306 $126 $304 $307 reversed $121 $-1 #
coedge $-1 $126 $306 $299 $308 reversed $121 $-1 #
vertex $-1 $308 $309 #
vertex $-1 $127 $310 #
straight-curve $-1 -75.881741602995476 -45.252880349302373 0 0 0 -1 I I #
coedge $-1 $301 $311 $128 $215 forward $297 $-1 #
edge $-1 $219 -12.988227135015386 $216 12.988227135015386 $214 $312 forward 7 unknown #
vertex $-1 $215 $313 #
straight-curve $-1 -38.755890279132608 -31.56535726679121 12.988227135015386 1 0 0 I I #
coedge $-1 $314 $130 $311 $315 forward $202 $-1 #
vertex $-1 $315 $316 #
straight-curve $-1 -38.755890279132608 -31.56535726679121 -12.988227135015386 -1 0 0 I I #
point $-1 -75.881741602995476 -31.56535726679121 12.988227135015386 #
point $-1 -75.881741602995476 -31.56535726679121 -12.988227135015386 #
face $-1 $317 $318 $17 $-1 $319 forward single #
loop $-1 $-1 $141 $135 #
plane-surface $-1 0 45.252880349302373 0 0 -1 0 0 0 -1 forward_v I I I I #
coedge $-1 $144 $320 $227 $321 forward $136 $-1 #
coedge $-1 $322 $138 $226 $321 reversed $78 $-1 #
coedge $-1 $138 $322 $241 $323 reversed $78 $-1 #
edge $-1 $239 -12.988227135015386 $243 12.988227135015386 $138 $324 forward 7 unknown #
coedge $-1 $325 $144 $139 $231 forward $136 $-1 #
edge $-1 $148 10.923176279832617 $236 26.527528139590714 $230 $326 forward 7 unknown #
coedge $-1 $146 $327 $140 $233 forward $242 $-1 #
edge $-1 $237 -26.527528139590714 $149 -10.923176279832617 $232 $328 forward 7 unknown #
coedge $-1 $329 $141 $327 $330 reversed $224 $-1 #
coedge $-1 $141 $329 $325 $331 reversed $224 $-1 #
vertex $-1 $331 $332 #
vertex $-1 $233 $333 #
straight-curve $-1 -76.691918627658694 45.252880349302373 0 0 0 -1 I I #
vertex $-1 $145 $334 #
straight-curve $-1 -37.286174363130968 29.648528489544283 12.988227135015386 -1 0 0 I I #
coedge $-1 $335 $146 $228 $323 forward $242 $-1 #
loop $-1 $-1 $241 $336 #
vertex $-1 $147 $337 #
straight-curve $-1 -37.286174363130968 29.648528489544283 -12.988227135015386 1 0 0 I I #
point $-1 -76.691918627658694 29.648528489544283 12.988227135015386 #
point $-1 -76.691918627658694 29.648528489544283 -12.988227135015386 #
face $-1 $338 $339 $18 $-1 $340 forward single #
loop $-1 $-1 $341 $151 #
plane-surface $-1 -74.572348726261936 29.648528489544283 0 0 1 0 0 0 1 forward_v I I I I #
coedge $-1 $157 $342 $154 $253 forward $152 $-1 #
coedge $-1 $252 $154 $343 $344 reversed $86 $-1 #
coedge $-1 $154 $251 $155 $255 forward $86 $-1 #
edge $-1 $345 5.8229736311755289 $256 18.53727078012848 $250 $346 forward 7 unknown #
coedge $-1 $156 $155 $260 $347 reversed $53 $-1 #
edge $-1 $348 -3.4489342061374355e-014 $256 15.521290971480166 $252 $349 forward 7 unknown #
vertex $-1 $158 $350 #
straight-curve $-1 -66.427522364581989 -9.6598186999475235 12.988227135015388 0 -1 0 I I #
vertex $-1 $347 $351 #
straight-curve $-1 -79.141819513534927 -24.932420354105751 4.0855802572896778 -0.81915203911291934 0 -0.57357644374324357 I I #
coedge $-1 $343 $160 $254 $347 forward $262 $-1 #
coedge $-1 $160 $352 $162 $265 reversed $262 $-1 #
loop $-1 $-1 $343 $353 #
straight-curve $-1 -79.141819513534955 -24.932420354105751 66.871972962263627 0 0 -1 I I #
coedge $-1 $354 $162 $355 $356 forward $152 $-1 #
edge $-1 $164 24.932420354105751 $357 31.56535726679121 $261 $358 forward 7 unknown #
point $-1 -66.427522364582003 -24.932420354105751 12.988227135015386 #
point $-1 -79.141819513534955 -24.932420354105751 12.988227135015386 #
face $-1 $359 $360 $19 $-1 $361 forward single #
loop $-1 $-1 $362 $166 #
plane-surface $-1 -169.92958628942097 -13.706854445684343 133.74394592452725 0 -1 0 0.57357644374324357 0 -0.81915203911291934 forward_v I I I I #
loop $-1 $-1 $363 $93 #
coedge $-1 $273 $169 $364 $365 forward $94 $-1 #
coedge $-1 $169 $272 $366 $367 reversed $94 $-1 #
coedge $-1 $368 $369 $169 $275 forward $360 $-1 #
edge $-1 $370 -18.53727078012848 $371 -5.8229736311755289 $274 $372 forward 7 unknown #
edge $-1 $373 1 $373 0 $170 $-1 forward 7 unknown #
vertex $-1 $171 $374 #
ellipse-curve $-1 -72.188881033383737 -19.319637399895047 7.6860275462685896 -0.57357644374324357 0 0.81915203911291934 0.81915203911291934 0 0.57357644374324357 1 I I #
point $-1 -71.965518899945593 -19.319637399895047 9.1104801398957793 #
plane-surface $-1 79.141819513534955 0 0 -1 0 0 0 0 1 forward_v I I I I #
coedge $-1 $179 $177 $181 $285 reversed $102 $-1 #
edge $-1 $192 -12.988227135015386 $287 12.988227135015386 $191 $375 forward 7 unknown #
vertex $-1 $285 $376 #
straight-curve $-1 -79.141819513534955 -45.252880349302373 0 0 0 -1 I I #
edge $-1 $283 -45.252880349302373 $287 45.252880349302373 $281 $377 forward 7 unknown #
straight-curve $-1 0 -45.252880349302373 -12.988227135015386 -1 0 0 I I #
vertex $-1 $184 $378 #
straight-curve $-1 0 45.252880349302373 -12.988227135015386 1 0 0 I I #
point $-1 79.141819513534955 45.252880349302373 -12.988227135015386 #
point $-1 79.141819513534955 -45.252880349302373 -12.988227135015386 #
straight-curve $-1 -79.141819513534955 0 12.988227135015386 0 -1 0 I I #
point $-1 -79.141819513534955 45.252880349302373 12.988227135015386 #
point $-1 -79.141819513534955 -45.252880349302373 12.988227135015386 #
straight-curve $-1 79.141819513534955 -45.252880349302373 0 0 0 -1 I I #
straight-curve $-1 79.141819513534955 45.252880349302373 0 0 0 -1 I I #
face $-1 $379 $380 $16 $-1 $381 reversed single #
loop $-1 $-1 $214 $201 #
plane-surface $-1 -79.141819513534955 0 0 1 0 0 0 0 -1 forward_v I I I I #
coedge $-1 $382 $204 $210 $308 forward $70 $-1 #
coedge $-1 $205 $382 $383 $384 forward $70 $-1 #
coedge $-1 $385 $214 $205 $302 reversed $297 $-1 #
edge $-1 $386 -45.252880349302373 $216 31.56535726679121 $301 $387 forward 7 unknown #
straight-curve $-1 -75.881741602995476 -19.204559404023396 12.988227135015386 0 -1 0 I I #
coedge $-1 $207 $388 $209 $307 forward $202 $-1 #
straight-curve $-1 -75.881741602995476 -19.204559404023396 -12.988227135015386 0 1 0 I I #
coedge $-1 $210 $209 $389 $390 reversed $121 $-1 #
edge $-1 $391 -79.141819513534955 $212 75.881741602995476 $209 $392 forward 7 unknown #
edge $-1 $211 -75.881741602995476 $393 79.141819513534955 $210 $394 forward 7 unknown #
point $-1 -75.881741602995476 -45.252880349302373 12.988227135015386 #
point $-1 -75.881741602995476 -45.252880349302373 -12.988227135015386 #
coedge $-1 $214 $385 $218 $315 reversed $297 $-1 #
straight-curve $-1 -79.141819513534955 -31.56535726679121 0 0 0 1 I I #
point $-1 -79.141819513534955 -31.56535726679121 12.988227135015386 #
coedge $-1 $388 $218 $395 $396 forward $202 $-1 #
edge $-1 $219 -31.56535726679121 $397 45.252880349302373 $311 $398 forward 7 unknown #
point $-1 -79.141819513534955 -31.56535726679121 -12.988227135015386 #
face $-1 $399 $400 $17 $-1 $401 forward single #
loop $-1 $-1 $402 $223 #
plane-surface $-1 -77.511780558265215 -31.56535726679121 0 0 -1 0 0 0 -1 forward_v I I I I #
coedge $-1 $226 $403 $404 $405 forward $136 $-1 #
edge $-1 $406 -26.527528139590714 $239 -10.923176279832617 $226 $407 forward 7 unknown #
coedge $-1 $228 $227 $408 $409 reversed $78 $-1 #
edge $-1 $243 10.923176279832617 $410 26.527528139590714 $241 $411 forward 7 unknown #
straight-curve $-1 -72.452778824865177 29.648528489544283 0 0 0 -1 I I #
coedge $-1 $412 $230 $235 $331 forward $136 $-1 #
straight-curve $-1 -76.691918627658694 18.725352209711666 12.988227135015386 0 1 0 I I #
coedge $-1 $232 $413 $234 $330 forward $242 $-1 #
straight-curve $-1 -76.691918627658694 18.725352209711666 -12.988227135015386 0 -1 0 I I #
coedge $-1 $235 $234 $414 $415 reversed $224 $-1 #
edge $-1 $416 -79.141819513534955 $237 -76.691918627658694 $234 $417 forward 7 unknown #
edge $-1 $236 76.691918627658694 $418 79.141819513534955 $235 $419 forward 7 unknown #
point $-1 -76.691918627658694 45.25288034930238 12.988227135015386 #
point $-1 -76.691918627658694 45.25288034930238 -12.988227135015386 #
point $-1 -72.452778824865177 29.648528489544283 12.988227135015386 #
coedge $-1 $420 $241 $421 $422 forward $242 $-1 #
face $-1 $423 $242 $17 $-1 $424 reversed single #
point $-1 -72.452778824865177 29.648528489544283 -12.988227135015386 #
face $-1 $425 $426 $18 $-1 $427 forward single #
loop $-1 $-1 $428 $247 #
plane-surface $-1 -76.691918627658694 37.450704419423332 0 1 0 0 0 0 -1 forward_v I I I I #
coedge $-1 $429 $430 $431 $432 reversed $248 $-1 #
coedge $-1 $250 $433 $434 $435 forward $152 $-1 #
coedge $-1 $434 $260 $251 $344 forward $262 $-1 #
edge $-1 $348 -62.78639270497397 $345 -53.883745827248241 $343 $436 forward 7 unknown #
vertex $-1 $344 $437 #
straight-curve $-1 -84.964793144710484 -13.706854445684343 12.988227135015386 1 0 0 I I #
edge $-1 $258 -15.272601654158228 $348 -4.0470357457368191 $260 $438 forward 7 unknown #
vertex $-1 $347 $439 #
straight-curve $-1 -79.141819513534927 -13.706854445684343 4.0855802572896778 0.81915203911291934 0 0.57357644374324357 I I #
point $-1 -66.427522364582003 -13.706854445684343 12.988227135015386 #
point $-1 -79.141819513534955 -24.932420354105751 4.0855802572896582 #
coedge $-1 $261 $440 $441 $442 forward $262 $-1 #
face $-1 $443 $262 $18 $-1 $444 reversed single #
coedge $-1 $445 $264 $446 $447 forward $152 $-1 #
coedge $-1 $441 $448 $264 $356 reversed $449 $-1 #
edge $-1 $357 -40.385929234402347 $450 -37.125851323862868 $264 $451 forward 7 unknown #
vertex $-1 $442 $452 #
straight-curve $-1 -79.141819513534955 0 12.988227135015386 0 -1 0 I I #
face $-1 $453 $454 $19 $-1 $455 forward single #
loop $-1 $-1 $456 $268 #
plane-surface $-1 0 0 12.988227135015386 0 0 1 1 0 0 forward_v I I I I #
coedge $-1 $457 $458 $456 $459 reversed $269 $-1 #
coedge $-1 $460 $364 $369 $461 reversed $271 $-1 #
coedge $-1 $363 $462 $272 $365 reversed $271 $-1 #
edge $-1 $370 -15.521290971480166 $463 3.4489342061374355e-014 $272 $464 forward 7 unknown #
coedge $-1 $465 $466 $273 $367 forward $467 $-1 #
edge $-1 $371 53.883745827248241 $463 62.78639270497397 $366 $468 forward 7 unknown #
coedge $-1 $469 $274 $466 $470 forward $360 $-1 #
coedge $-1 $274 $456 $363 $461 forward $360 $-1 #
vertex $-1 $461 $471 #
vertex $-1 $470 $472 #
straight-curve $-1 -84.964793144710484 -24.932420354105751 12.988227135015386 -1 0 0 I I #
vertex $-1 $276 $473 #
point $-1 -71.369728994270815 -19.319637399895047 8.2596039900118328 #
straight-curve $-1 -79.141819513534955 45.252880349302373 0 0 0 -1 I I #
point $-1 -79.141819513534955 -45.252880349302373 -12.988227135015386 #
straight-curve $-1 -79.141819513534955 0 -12.988227135015386 0 1 0 I I #
point $-1 -79.141819513534955 45.252880349302373 -12.988227135015386 #
face $-1 $-1 $474 $16 $-1 $475 reversed single #
loop $-1 $-1 $476 $296 #
plane-surface $-1 0 45.252880349302373 0 0 -1 0 0 0 -1 forward_v I I I I #
coedge $-1 $300 $299 $477 $478 forward $70 $-1 #
coedge $-1 $476 $479 $300 $384 reversed $380 $-1 #
edge $-1 $480 -79.141819513534955 $386 79.141819513534955 $383 $481 forward 7 unknown #
coedge $-1 $311 $301 $479 $482 forward $297 $-1 #
vertex $-1 $384 $483 #
straight-curve $-1 -79.141819513534955 0 12.988227135015386 0 -1 0 I I #
coedge $-1 $304 $314 $484 $485 forward $202 $-1 #
coedge $-1 $484 $477 $306 $390 forward $474 $-1 #
edge $-1 $393 -12.988227135015386 $391 12.988227135015386 $389 $486 forward 7 unknown #
vertex $-1 $390 $487 #
straight-curve $-1 0 -45.252880349302373 -12.988227135015386 -1 0 0 I I #
vertex $-1 $478 $488 #
straight-curve $-1 0 -45.252880349302373 12.988227135015386 1 0 0 I I #
coedge $-1 $479 $476 $314 $396 reversed $380 $-1 #
edge $-1 $397 -79.141819513534955 $489 79.141819513534955 $395 $490 forward 7 unknown #
vertex $-1 $396 $491 #
straight-curve $-1 -79.141819513534955 0 -12.988227135015386 0 1 0 I I #
face $-1 $336 $492 $17 $-1 $493 reversed single #
loop $-1 $-1 $494 $317 #
plane-surface $-1 -75.881741602995476 -38.409118808046792 0 -1 0 0 0 0 1 forward_v I I I I #
coedge $-1 $495 $496 $497 $498 reversed $318 $-1 #
coedge $-1 $320 $499 $500 $501 forward $136 $-1 #
coedge $-1 $502 $408 $320 $405 reversed $503 $-1 #
edge $-1 $504 -79.141819513534955 $406 72.452778824865177 $404 $419 forward 7 unknown #
vertex $-1 $409 $505 #
straight-curve $-1 -72.452778824865177 18.725352209711666 12.988227135015386 0 -1 0 I I #
coedge $-1 $404 $421 $322 $409 forward $503 $-1 #
edge $-1 $410 -12.988227135015386 $406 12.988227135015386 $408 $506 forward 7 unknown #
vertex $-1 $422 $507 #
straight-curve $-1 -72.452778824865177 18.725352209711666 -12.988227135015386 0 1 0 I I #
coedge $-1 $508 $325 $509 $510 forward $136 $-1 #
coedge $-1 $327 $511 $512 $513 forward $242 $-1 #
coedge $-1 $512 $509 $329 $415 forward $514 $-1 #
edge $-1 $418 -12.988227135015386 $416 12.988227135015386 $329 $515 forward 7 unknown #
vertex $-1 $330 $516 #
straight-curve $-1 0 45.252880349302373 -12.988227135015386 1 0 0 I I #
vertex $-1 $331 $517 #
straight-curve $-1 0 45.252880349302373 12.988227135015386 -1 0 0 I I #
coedge $-1 $518 $335 $519 $520 forward $242 $-1 #
coedge $-1 $408 $502 $335 $422 reversed $503 $-1 #
edge $-1 $410 -72.452778824865177 $521 79.141819513534955 $421 $417 forward 7 unknown #
face $-1 $522 $514 $17 $-1 $523 reversed single #
plane-surface $-1 0 0 -12.988227135015386 0 0 1 1 0 0 forward_v I I I I #
face $-1 $524 $525 $18 $-1 $526 reversed single #
loop $-1 $-1 $527 $338 #
plane-surface $-1 -72.452778824865177 37.450704419423332 0 -1 0 0 0 0 1 forward_v I I I I #
coedge $-1 $528 $529 $530 $531 reversed $339 $-1 #
coedge $-1 $532 $341 $533 $534 reversed $248 $-1 #
coedge $-1 $341 $532 $535 $536 reversed $248 $-1 #
coedge $-1 $529 $528 $341 $432 forward $339 $-1 #
edge $-1 $537 -12.988227135015386 $538 12.988227135015386 $431 $539 forward 7 unknown #
coedge $-1 $342 $540 $541 $542 forward $152 $-1 #
coedge $-1 $543 $343 $342 $435 reversed $262 $-1 #
edge $-1 $544 -45.252880349302373 $345 13.706854445684343 $434 $358 forward 7 unknown #
straight-curve $-1 -79.141819513534955 -13.706854445684343 66.871972962263627 0 0 1 I I #
point $-1 -79.141819513534955 -13.706854445684343 12.988227135015386 #
straight-curve $-1 -79.141819513534955 -9.6598186999475235 4.0855802572896618 0 1 0 I I #
point $-1 -79.141819513534955 -13.706854445684343 4.0855802572896582 #
coedge $-1 $352 $543 $545 $546 reversed $262 $-1 #
coedge $-1 $547 $355 $352 $442 reversed $449 $-1 #
edge $-1 $548 -12.988227135015386 $357 12.988227135015386 $352 $549 forward 7 unknown #
face $-1 $550 $551 $18 $-1 $526 reversed single #
plane-surface $-1 -79.141819513534955 0 0 1 0 0 0 0 -1 forward_v I I I I #
coedge $-1 $552 $354 $553 $554 forward $152 $-1 #
coedge $-1 $555 $556 $354 $447 reversed $557 $-1 #
edge $-1 $450 12.360797862767814 $558 26.048320945278977 $354 $559 forward 7 unknown #
coedge $-1 $355 $547 $555 $560 reversed $449 $-1 #
loop $-1 $-1 $448 $524 #
vertex $-1 $356 $561 #
straight-curve $-1 -38.755890279132608 -31.56535726679121 12.988227135015386 1 0 0 I I #
point $-1 -79.141819513534955 -31.56535726679121 12.988227135015386 #
face $-1 $562 $563 $19 $-1 $564 forward single #
loop $-1 $-1 $565 $359 #
plane-surface $-1 -74.572348726261936 29.648528489544283 0 0 1 0 0 0 1 forward_v I I I I #
coedge $-1 $369 $566 $362 $459 forward $360 $-1 #
coedge $-1 $458 $362 $567 $568 reversed $269 $-1 #
coedge $-1 $362 $457 $460 $569 forward $269 $-1 #
edge $-1 $570 5.8229736311755289 $571 18.53727078012848 $456 $572 forward 7 unknown #
coedge $-1 $462 $363 $458 $569 reversed $271 $-1 #
edge $-1 $571 4.0470357457368191 $370 15.272601654158228 $369 $573 forward 7 unknown #
coedge $-1 $364 $460 $465 $574 reversed $271 $-1 #
vertex $-1 $574 $575 #
straight-curve $-1 -79.141819513534927 -24.932420354105751 4.0855802572896778 -0.81915203911291934 0 -0.57357644374324357 I I #
coedge $-1 $567 $366 $462 $574 forward $467 $-1 #
coedge $-1 $366 $576 $368 $470 reversed $467 $-1 #
loop $-1 $-1 $567 $577 #
straight-curve $-1 -79.141819513534955 -24.932420354105751 66.871972962263627 0 0 -1 I I #
coedge $-1 $578 $368 $579 $580 forward $360 $-1 #
edge $-1 $371 24.932420354105751 $581 31.56535726679121 $466 $582 forward 7 unknown #
point $-1 -66.427522364582003 -24.932420354105751 12.988227135015386 #
point $-1 -79.141819513534955 -24.932420354105751 12.988227135015386 #
point $-1 -71.615304589640502 -19.319637399895047 6.8668755071556697 #
loop $-1 $-1 $389 $379 #
plane-surface $-1 79.141819513534955 0 0 -1 0 0 0 0 1 forward_v I I I I #
coedge $-1 $395 $383 $583 $584 forward $380 $-1 #
coedge $-1 $389 $583 $382 $478 reversed $474 $-1 #
edge $-1 $393 -45.252880349302373 $480 45.252880349302373 $477 $585 forward 7 unknown #
coedge $-1 $383 $395 $385 $482 reversed $380 $-1 #
vertex $-1 $478 $586 #
straight-curve $-1 0 45.252880349302373 12.988227135015386 -1 0 0 I I #
edge $-1 $386 -12.988227135015386 $397 12.988227135015386 $479 $587 forward 7 unknown #
point $-1 -79.141819513534955 45.252880349302373 12.988227135015386 #
coedge $-1 $583 $389 $388 $485 reversed $474 $-1 #
edge $-1 $489 -45.252880349302373 $391 45.252880349302373 $484 $588 forward 7 unknown #
straight-curve $-1 79.141819513534955 -45.252880349302373 0 0 0 -1 I I #
point $-1 79.141819513534955 -45.252880349302373 -12.988227135015386 #
point $-1 79.141819513534955 -45.252880349302373 12.988227135015386 #
vertex $-1 $485 $589 #
straight-curve $-1 0 45.252880349302373 -12.988227135015386 1 0 0 I I #
point $-1 -79.141819513534955 45.252880349302373 -12.988227135015386 #
loop $-1 $-1 $590 $399 #
plane-surface $-1 0 -45.252880349302373 0 0 1 0 0 0 1 forward_v I I I I #
coedge $-1 $591 $592 $590 $593 reversed $400 $-1 #
coedge $-1 $594 $402 $508 $595 reversed $318 $-1 #
coedge $-1 $402 $594 $511 $596 reversed $318 $-1 #
coedge $-1 $592 $591 $402 $498 forward $400 $-1 #
edge $-1 $597 -12.988227135015386 $598 12.988227135015386 $497 $599 forward 7 unknown #
coedge $-1 $403 $600 $601 $602 forward $136 $-1 #
coedge $-1 $603 $604 $403 $501 reversed $605 $-1 #
edge $-1 $606 -45.252880349302373 $504 45.252880349302373 $500 $607 forward 7 unknown #
coedge $-1 $421 $404 $604 $608 forward $503 $-1 #
loop $-1 $-1 $408 $522 #
vertex $-1 $501 $609 #
point $-1 -72.452778824865177 45.25288034930238 12.988227135015386 #
straight-curve $-1 -72.452778824865177 45.252880349302373 0 0 0 1 I I #
point $-1 -72.452778824865177 45.25288034930238 -12.988227135015386 #
coedge $-1 $600 $412 $495 $595 forward $136 $-1 #
coedge $-1 $414 $610 $412 $510 reversed $514 $-1 #
edge $-1 $418 -45.252880349302373 $611 31.56535726679121 $509 $612 forward 7 unknown #
coedge $-1 $413 $613 $496 $596 forward $242 $-1 #
coedge $-1 $610 $414 $413 $513 reversed $514 $-1 #
edge $-1 $614 -31.56535726679121 $416 45.252880349302373 $512 $615 forward 7 unknown #
loop $-1 $-1 $610 $423 #
straight-curve $-1 -79.141819513534955 45.252880349302373 0 0 0 -1 I I #
point $-1 -79.141819513534955 45.252880349302373 -12.988227135015386 #
point $-1 -79.141819513534955 45.252880349302373 12.988227135015386 #
coedge $-1 $613 $420 $616 $617 forward $242 $-1 #
coedge $-1 $604 $603 $420 $520 reversed $605 $-1 #
edge $-1 $521 -45.252880349302373 $618 45.252880349302373 $519 $619 forward 7 unknown #
vertex $-1 $520 $620 #
face $-1 $621 $503 $17 $-1 $225 reversed single #
plane-surface $-1 -79.141819513534955 0 0 1 0 0 0 0 -1 forward_v I I I I #
face $-1 $622 $449 $18 $-1 $623 forward single #
loop $-1 $-1 $530 $425 #
plane-surface $-1 0 45.252880349302373 0 0 -1 0 0 0 -1 forward_v I I I I #
coedge $-1 $624 $625 $532 $626 reversed $426 $-1 #
coedge $-1 $431 $428 $540 $627 reversed $339 $-1 #
coedge $-1 $428 $431 $628 $629 reversed $339 $-1 #
coedge $-1 $630 $541 $428 $531 forward $525 $-1 #
edge $-1 $631 -12.988227135015386 $632 12.988227135015386 $530 $633 forward 7 unknown #
coedge $-1 $430 $429 $527 $626 forward $248 $-1 #
coedge $-1 $540 $634 $429 $534 forward $152 $-1 #
edge $-1 $635 35.16660446173421 $537 39.405744264527726 $533 $636 forward 7 unknown #
coedge $-1 $637 $628 $430 $536 forward $638 $-1 #
edge $-1 $538 -39.405744264527726 $639 -35.16660446173421 $535 $640 forward 7 unknown #
vertex $-1 $534 $641 #
vertex $-1 $536 $642 #
straight-curve $-1 -76.691918627658694 29.648528489544283 0 0 0 -1 I I #
coedge $-1 $433 $533 $528 $627 forward $152 $-1 #
coedge $-1 $530 $643 $433 $542 reversed $525 $-1 #
edge $-1 $631 76.691918627658694 $544 79.141819513534955 $541 $644 forward 7 unknown #
coedge $-1 $440 $434 $643 $645 forward $262 $-1 #
vertex $-1 $542 $646 #
coedge $-1 $647 $648 $440 $546 forward $638 $-1 #
edge $-1 $548 -31.56535726679121 $649 45.252880349302373 $440 $650 forward 7 unknown #
coedge $-1 $448 $441 $648 $651 reversed $449 $-1 #
vertex $-1 $546 $652 #
straight-curve $-1 -79.141819513534955 -31.56535726679121 0 0 0 1 I I #
face $-1 $-1 $653 $18 $-1 $654 reversed single #
loop $-1 $-1 $655 $443 #
coedge $-1 $656 $445 $657 $658 forward $152 $-1 #
coedge $-1 $659 $660 $445 $554 reversed $661 $-1 #
edge $-1 $558 -75.881741602995476 $662 79.141819513534955 $553 $663 forward 7 unknown #
coedge $-1 $664 $446 $448 $560 forward $557 $-1 #
coedge $-1 $446 $664 $659 $665 reversed $557 $-1 #
loop $-1 $-1 $556 $622 #
vertex $-1 $554 $666 #
straight-curve $-1 -75.881741602995476 -19.204559404023396 12.988227135015386 0 -1 0 I I #
edge $-1 $450 -12.988227135015386 $667 12.988227135015386 $555 $668 forward 7 unknown #
point $-1 -75.881741602995476 -31.56535726679121 12.988227135015386 #
face $-1 $669 $670 $19 $-1 $671 forward single #
loop $-1 $-1 $672 $453 #
plane-surface $-1 -76.691918627658694 37.450704419423332 0 1 0 0 0 0 -1 forward_v I I I I #
coedge $-1 $673 $674 $675 $676 reversed $454 $-1 #
coedge $-1 $456 $677 $678 $679 forward $360 $-1 #
coedge $-1 $678 $465 $457 $568 forward $467 $-1 #
edge $-1 $680 -62.78639270497397 $570 -53.883745827248241 $567 $681 forward 7 unknown #
edge $-1 $680 -3.4489342061374355e-014 $571 15.521290971480166 $458 $682 forward 7 unknown #
vertex $-1 $568 $683 #
vertex $-1 $461 $684 #
straight-curve $-1 -84.964793144710484 -13.706854445684343 12.988227135015386 1 0 0 I I #
straight-curve $-1 -66.427522364581989 -9.6598186999475235 12.988227135015388 0 -1 0 I I #
edge $-1 $463 -15.272601654158228 $680 -4.0470357457368191 $465 $685 forward 7 unknown #
point $-1 -79.141819513534955 -24.932420354105751 4.0855802572896582 #
coedge $-1 $466 $686 $687 $688 forward $467 $-1 #
face $-1 $689 $467 $19 $-1 $690 reversed single #
coedge $-1 $691 $469 $692 $693 forward $360 $-1 #
coedge $-1 $687 $694 $469 $580 reversed $695 $-1 #
edge $-1 $581 -40.385929234402347 $696 -37.125851323862868 $469 $697 forward 7 unknown #
vertex $-1 $688 $698 #
straight-curve $-1 -79.141819513534955 0 12.988227135015386 0 -1 0 I I #
coedge $-1 $477 $484 $476 $584 reversed $474 $-1 #
edge $-1 $480 -12.988227135015386 $489 12.988227135015386 $583 $699 forward 7 unknown #
straight-curve $-1 79.141819513534955 0 12.988227135015386 0 1 0 I I #
point $-1 79.141819513534955 45.252880349302373 12.988227135015386 #
straight-curve $-1 -79.141819513534955 45.252880349302373 0 0 0 -1 I I #
straight-curve $-1 79.141819513534955 0 -12.988227135015386 0 -1 0 I I #
point $-1 79.141819513534955 45.252880349302373 -12.988227135015386 #
coedge $-1 $616 $601 $494 $593 forward $492 $-1 #
coedge $-1 $497 $494 $600 $700 reversed $400 $-1 #
coedge $-1 $494 $497 $613 $701 reversed $400 $-1 #
edge $-1 $702 -12.988227135015386 $703 12.988227135015386 $590 $704 forward 7 unknown #
coedge $-1 $496 $495 $610 $705 reversed $318 $-1 #
edge $-1 $611 -40.385929234402347 $597 -37.125851323862868 $508 $706 forward 7 unknown #
edge $-1 $598 37.125851323862868 $614 40.385929234402347 $511 $707 forward 7 unknown #
vertex $-1 $595 $708 #
vertex $-1 $596 $709 #
straight-curve $-1 -75.881741602995476 -31.56535726679121 0 0 0 -1 I I #
coedge $-1 $499 $508 $591 $700 forward $136 $-1 #
coedge $-1 $590 $710 $499 $602 reversed $492 $-1 #
edge $-1 $702 -75.881741602995476 $606 79.141819513534955 $601 $711 forward 7 unknown #
coedge $-1 $519 $500 $710 $712 forward $605 $-1 #
coedge $-1 $500 $519 $502 $608 reversed $605 $-1 #
loop $-1 $-1 $603 $621 #
vertex $-1 $501 $713 #
straight-curve $-1 79.141819513534955 0 12.988227135015386 0 1 0 I I #
edge $-1 $504 -12.988227135015386 $521 12.988227135015386 $604 $714 forward 7 unknown #
point $-1 79.141819513534955 45.252880349302373 12.988227135015386 #
coedge $-1 $509 $512 $594 $705 forward $514 $-1 #
vertex $-1 $705 $715 #
straight-curve $-1 -79.141819513534955 0 12.988227135015386 0 -1 0 I I #
coedge $-1 $511 $518 $592 $701 forward $242 $-1 #
vertex $-1 $513 $716 #
straight-curve $-1 -79.141819513534955 0 -12.988227135015386 0 1 0 I I #
coedge $-1 $710 $590 $518 $617 reversed $492 $-1 #
edge $-1 $618 -79.141819513534955 $703 75.881741602995476 $616 $717 forward 7 unknown #
vertex $-1 $712 $718 #
straight-curve $-1 79.141819513534955 0 -12.988227135015386 0 -1 0 I I #
point $-1 79.141819513534955 45.252880349302373 -12.988227135015386 #
face $-1 $-1 $605 $17 $-1 $719 reversed single #
face $-1 $720 $557 $18 $-1 $721 forward single #
plane-surface $-1 -77.511780558265215 -31.56535726679121 0 0 -1 0 0 0 -1 forward_v I I I I #
coedge $-1 $722 $527 $634 $723 reversed $426 $-1 #
coedge $-1 $527 $722 $637 $724 reversed $426 $-1 #
edge $-1 $635 -12.988227135015386 $639 12.988227135015386 $527 $725 forward 7 unknown #
edge $-1 $537 10.923176279832617 $631 26.527528139590714 $540 $726 forward 7 unknown #
coedge $-1 $535 $647 $529 $629 forward $638 $-1 #
edge $-1 $632 -26.527528139590714 $538 -10.923176279832617 $628 $727 forward 7 unknown #
coedge $-1 $643 $530 $647 $728 reversed $525 $-1 #
vertex $-1 $542 $729 #
vertex $-1 $629 $730 #
straight-curve $-1 -76.691918627658694 45.252880349302373 0 0 0 -1 I I #
coedge $-1 $533 $656 $624 $723 forward $152 $-1 #
vertex $-1 $534 $731 #
straight-curve $-1 -37.286174363130968 29.648528489544283 12.988227135015386 -1 0 0 I I #
coedge $-1 $732 $535 $625 $724 forward $638 $-1 #
loop $-1 $-1 $637 $733 #
vertex $-1 $536 $734 #
straight-curve $-1 -37.286174363130968 29.648528489544283 -12.988227135015386 1 0 0 I I #
point $-1 -76.691918627658694 29.648528489544283 12.988227135015386 #
point $-1 -76.691918627658694 29.648528489544283 -12.988227135015386 #
coedge $-1 $541 $630 $543 $645 reversed $525 $-1 #
straight-curve $-1 0 45.252880349302373 12.988227135015386 -1 0 0 I I #
edge $-1 $544 -12.988227135015386 $649 12.988227135015386 $643 $735 forward 7 unknown #
point $-1 -79.141819513534955 45.252880349302373 12.988227135015386 #
coedge $-1 $628 $545 $630 $728 forward $638 $-1 #
coedge $-1 $545 $736 $547 $651 forward $638 $-1 #
vertex $-1 $728 $737 #
straight-curve $-1 -79.141819513534955 0 -12.988227135015386 0 1 0 I I #
edge $-1 $667 37.125851323862868 $548 40.385929234402347 $648 $738 forward 7 unknown #
point $-1 -79.141819513534955 -31.56535726679121 -12.988227135015386 #
loop $-1 $-1 $739 $550 #
plane-surface $-1 79.141819513534955 0 0 -1 0 0 0 0 1 forward_v I I I I #
coedge $-1 $740 $741 $722 $742 forward $551 $-1 #
coedge $-1 $634 $552 $740 $743 forward $152 $-1 #
coedge $-1 $739 $744 $552 $658 reversed $653 $-1 #
edge $-1 $662 -45.252880349302373 $745 45.252880349302373 $657 $746 forward 7 unknown #
coedge $-1 $747 $553 $556 $665 forward $661 $-1 #
coedge $-1 $553 $747 $739 $748 reversed $661 $-1 #
loop $-1 $-1 $659 $720 #
vertex $-1 $658 $749 #
straight-curve $-1 0 -45.252880349302373 12.988227135015386 1 0 0 I I #
coedge $-1 $556 $555 $736 $750 reversed $557 $-1 #
edge $-1 $558 -12.988227135015386 $751 12.988227135015386 $659 $752 forward 7 unknown #
point $-1 -75.881741602995476 -45.252880349302373 12.988227135015386 #
vertex $-1 $651 $753 #
straight-curve $-1 -75.881741602995476 -31.56535726679121 0 0 0 -1 I I #
face $-1 $754 $755 $19 $-1 $756 reversed single #
loop $-1 $-1 $757 $562 #
plane-surface $-1 -72.452778824865177 37.450704419423332 0 -1 0 0 0 0 1 forward_v I I I I #
coedge $-1 $758 $759 $760 $761 reversed $563 $-1 #
coedge $-1 $762 $565 $763 $764 reversed $454 $-1 #
coedge $-1 $565 $762 $765 $766 reversed $454 $-1 #
coedge $-1 $759 $758 $565 $676 forward $563 $-1 #
edge $-1 $767 -12.988227135015386 $768 12.988227135015386 $675 $769 forward 7 unknown #
coedge $-1 $566 $770 $771 $772 forward $360 $-1 #
coedge $-1 $773 $567 $566 $679 reversed $467 $-1 #
edge $-1 $774 -45.252880349302373 $570 13.706854445684343 $678 $582 forward 7 unknown #
vertex $-1 $574 $775 #
straight-curve $-1 -79.141819513534955 -13.706854445684343 66.871972962263627 0 0 1 I I #
straight-curve $-1 -79.141819513534927 -13.706854445684343 4.0855802572896778 0.81915203911291934 0 0.57357644374324357 I I #
point $-1 -79.141819513534955 -13.706854445684343 12.988227135015386 #
point $-1 -66.427522364582003 -13.706854445684343 12.988227135015386 #
straight-curve $-1 -79.141819513534955 -9.6598186999475235 4.0855802572896618 0 1 0 I I #
coedge $-1 $576 $773 $776 $777 reversed $467 $-1 #
coedge $-1 $778 $579 $576 $688 reversed $695 $-1 #
edge $-1 $779 -12.988227135015386 $581 12.988227135015386 $576 $780 forward 7 unknown #
face $-1 $781 $782 $19 $-1 $756 reversed single #
plane-surface $-1 -79.141819513534955 0 0 1 0 0 0 0 -1 forward_v I I I I #
coedge $-1 $783 $578 $784 $785 forward $360 $-1 #
coedge $-1 $786 $787 $578 $693 reversed $788 $-1 #
edge $-1 $696 12.360797862767814 $789 26.048320945278977 $578 $790 forward 7 unknown #
coedge $-1 $579 $778 $786 $791 reversed $695 $-1 #
loop $-1 $-1 $694 $754 #
vertex $-1 $580 $792 #
straight-curve $-1 -38.755890279132608 -31.56535726679121 12.988227135015386 1 0 0 I I #
point $-1 -79.141819513534955 -31.56535726679121 12.988227135015386 #
straight-curve $-1 79.141819513534955 45.252880349302373 0 0 0 -1 I I #
edge $-1 $597 12.360797862767814 $702 26.048320945278977 $600 $793 forward 7 unknown #
edge $-1 $703 -26.048320945278977 $598 -12.360797862767814 $613 $794 forward 7 unknown #
vertex $-1 $602 $795 #
vertex $-1 $593 $796 #
straight-curve $-1 -75.881741602995476 -45.252880349302373 0 0 0 -1 I I #
edge $-1 $614 -12.988227135015386 $611 12.988227135015386 $610 $797 forward 7 unknown #
straight-curve $-1 -38.755890279132608 -31.56535726679121 12.988227135015386 1 0 0 I I #
straight-curve $-1 -38.755890279132608 -31.56535726679121 -12.988227135015386 -1 0 0 I I #
point $-1 -75.881741602995476 -31.56535726679121 12.988227135015386 #
point $-1 -75.881741602995476 -31.56535726679121 -12.988227135015386 #
coedge $-1 $601 $616 $603 $712 reversed $492 $-1 #
straight-curve $-1 0 -45.252880349302373 12.988227135015386 1 0 0 I I #
edge $-1 $606 -12.988227135015386 $618 12.988227135015386 $603 $798 forward 7 unknown #
point $-1 79.141819513534955 -45.252880349302373 12.988227135015386 #
straight-curve $-1 79.141819513534955 45.252880349302373 0 0 0 -1 I I #
point $-1 -79.141819513534955 -31.56535726679121 12.988227135015386 #
point $-1 -79.141819513534955 -31.56535726679121 -12.988227135015386 #
straight-curve $-1 0 -45.252880349302373 -12.988227135015386 -1 0 0 I I #
point $-1 79.141819513534955 -45.252880349302373 -12.988227135015386 #
plane-surface $-1 79.141819513534955 0 0 -1 0 0 0 0 1 forward_v I I I I #
face $-1 $733 $661 $18 $-1 $799 reversed single #
plane-surface $-1 -75.881741602995476 -38.409118808046792 0 -1 0 0 0 0 1 forward_v I I I I #
coedge $-1 $625 $624 $655 $742 reversed $426 $-1 #
edge $-1 $800 -26.527528139590714 $635 -10.923176279832617 $634 $801 forward 7 unknown #
edge $-1 $639 10.923176279832617 $802 26.527528139590714 $637 $803 forward 7 unknown #
straight-curve $-1 -72.452778824865177 29.648528489544283 0 0 0 -1 I I #
straight-curve $-1 -76.691918627658694 18.725352209711666 12.988227135015386 0 1 0 I I #
straight-curve $-1 -76.691918627658694 18.725352209711666 -12.988227135015386 0 -1 0 I I #
edge $-1 $649 -79.141819513534955 $632 -76.691918627658694 $630 $804 forward 7 unknown #
point $-1 -76.691918627658694 45.25288034930238 12.988227135015386 #
point $-1 -76.691918627658694 45.25288034930238 -12.988227135015386 #
point $-1 -72.452778824865177 29.648528489544283 12.988227135015386 #
coedge $-1 $805 $637 $741 $806 forward $638 $-1 #
face $-1 $353 $638 $18 $-1 $807 reversed single #
point $-1 -72.452778824865177 29.648528489544283 -12.988227135015386 #
straight-curve $-1 -79.141819513534955 45.252880349302373 0 0 0 -1 I I #
coedge $-1 $648 $808 $664 $750 forward $638 $-1 #
point $-1 -79.141819513534955 45.252880349302373 -12.988227135015386 #
straight-curve $-1 -38.755890279132608 -31.56535726679121 -12.988227135015386 -1 0 0 I I #
coedge $-1 $809 $657 $660 $748 forward $653 $-1 #
coedge $-1 $810 $655 $656 $743 reversed $551 $-1 #
coedge $-1 $655 $810 $732 $806 reversed $551 $-1 #
edge $-1 $802 -12.988227135015386 $800 12.988227135015386 $655 $811 forward 7 unknown #
edge $-1 $745 -79.141819513534955 $800 72.452778824865177 $740 $644 forward 7 unknown #
coedge $-1 $657 $809 $810 $812 reversed $653 $-1 #
vertex $-1 $658 $813 #
straight-curve $-1 79.141819513534955 0 12.988227135015386 0 1 0 I I #
coedge $-1 $660 $659 $808 $814 reversed $661 $-1 #
edge $-1 $662 -12.988227135015386 $815 12.988227135015386 $739 $816 forward 7 unknown #
point $-1 79.141819513534955 -45.252880349302373 12.988227135015386 #
edge $-1 $751 -26.048320945278977 $667 -12.360797862767814 $736 $817 forward 7 unknown #
vertex $-1 $665 $818 #
straight-curve $-1 -75.881741602995476 -45.252880349302373 0 0 0 -1 I I #
point $-1 -75.881741602995476 -31.56535726679121 -12.988227135015386 #
face $-1 $819 $695 $19 $-1 $820 forward single #
loop $-1 $-1 $760 $669 #
plane-surface $-1 0 45.252880349302373 0 0 -1 0 0 0 -1 forward_v I I I I #
coedge $-1 $821 $822 $762 $823 reversed $670 $-1 #
coedge $-1 $675 $672 $770 $824 reversed $563 $-1 #
coedge $-1 $672 $675 $825 $826 reversed $563 $-1 #
coedge $-1 $827 $771 $672 $761 forward $755 $-1 #
edge $-1 $828 -12.988227135015386 $829 12.988227135015386 $760 $830 forward 7 unknown #
coedge $-1 $674 $673 $757 $823 forward $454 $-1 #
coedge $-1 $770 $831 $673 $764 forward $360 $-1 #
edge $-1 $832 35.16660446173421 $767 39.405744264527726 $763 $833 forward 7 unknown #
coedge $-1 $834 $825 $674 $766 forward $835 $-1 #
edge $-1 $768 -39.405744264527726 $836 -35.16660446173421 $765 $837 forward 7 unknown #
vertex $-1 $764 $838 #
vertex $-1 $766 $839 #
straight-curve $-1 -76.691918627658694 29.648528489544283 0 0 0 -1 I I #
coedge $-1 $677 $763 $758 $824 forward $360 $-1 #
coedge $-1 $760 $840 $677 $772 reversed $755 $-1 #
edge $-1 $828 76.691918627658694 $774 79.141819513534955 $771 $841 forward 7 unknown #
coedge $-1 $686 $678 $840 $842 forward $467 $-1 #
vertex $-1 $772 $843 #
point $-1 -79.141819513534955 -13.706854445684343 4.0855802572896582 #
coedge $-1 $844 $845 $686 $777 forward $835 $-1 #
edge $-1 $779 -31.56535726679121 $846 45.252880349302373 $686 $847 forward 7 unknown #
coedge $-1 $694 $687 $845 $848 reversed $695 $-1 #
vertex $-1 $777 $849 #
straight-curve $-1 -79.141819513534955 -31.56535726679121 0 0 0 1 I I #
face $-1 $-1 $850 $19 $-1 $851 reversed single #
loop $-1 $-1 $852 $689 #
coedge $-1 $853 $691 $854 $855 forward $360 $-1 #
coedge $-1 $856 $857 $691 $785 reversed $858 $-1 #
edge $-1 $789 -75.881741602995476 $859 79.141819513534955 $784 $860 forward 7 unknown #
coedge $-1 $861 $692 $694 $791 forward $788 $-1 #
coedge $-1 $692 $861 $856 $862 reversed $788 $-1 #
loop $-1 $-1 $787 $819 #
vertex $-1 $785 $863 #
straight-curve $-1 -75.881741602995476 -19.204559404023396 12.988227135015386 0 -1 0 I I #
edge $-1 $696 -12.988227135015386 $864 12.988227135015386 $786 $865 forward 7 unknown #
point $-1 -75.881741602995476 -31.56535726679121 12.988227135015386 #
straight-curve $-1 -75.881741602995476 -19.204559404023396 12.988227135015386 0 -1 0 I I #
straight-curve $-1 -75.881741602995476 -19.204559404023396 -12.988227135015386 0 1 0 I I #
point $-1 -75.881741602995476 -45.252880349302373 12.988227135015386 #
point $-1 -75.881741602995476 -45.252880349302373 -12.988227135015386 #
straight-curve $-1 -79.141819513534955 -31.56535726679121 0 0 0 1 I I #
straight-curve $-1 79.141819513534955 -45.252880349302373 0 0 0 -1 I I #
plane-surface $-1 0 -45.252880349302373 0 0 1 0 0 0 1 forward_v I I I I #
vertex $-1 $742 $866 #
straight-curve $-1 -72.452778824865177 18.725352209711666 12.988227135015386 0 -1 0 I I #
vertex $-1 $806 $867 #
straight-curve $-1 -72.452778824865177 18.725352209711666 -12.988227135015386 0 1 0 I I #
straight-curve $-1 0 45.252880349302373 -12.988227135015386 1 0 0 I I #
coedge $-1 $808 $732 $809 $868 forward $638 $-1 #
edge $-1 $802 -72.452778824865177 $869 79.141819513534955 $741 $804 forward 7 unknown #
plane-surface $-1 0 0 -12.988227135015386 0 0 1 1 0 0 forward_v I I I I #
coedge $-1 $736 $805 $747 $814 forward $638 $-1 #
coedge $-1 $744 $739 $805 $868 reversed $653 $-1 #
coedge $-1 $741 $740 $744 $812 forward $551 $-1 #
straight-curve $-1 -72.452778824865177 45.252880349302373 0 0 0 1 I I #
edge $-1 $745 -12.988227135015386 $869 12.988227135015386 $744 $870 forward 7 unknown #
point $-1 79.141819513534955 45.252880349302373 12.988227135015386 #
edge $-1 $815 -79.141819513534955 $751 75.881741602995476 $747 $871 forward 7 unknown #
vertex $-1 $748 $872 #
straight-curve $-1 79.141819513534955 -45.252880349302373 0 0 0 -1 I I #
straight-curve $-1 -75.881741602995476 -19.204559404023396 -12.988227135015386 0 1 0 I I #
point $-1 -75.881741602995476 -45.252880349302373 -12.988227135015386 #
face $-1 $873 $788 $19 $-1 $874 forward single #
plane-surface $-1 -77.511780558265215 -31.56535726679121 0 0 -1 0 0 0 -1 forward_v I I I I #
coedge $-1 $875 $757 $831 $876 reversed $670 $-1 #
coedge $-1 $757 $875 $834 $877 reversed $670 $-1 #
edge $-1 $832 -12.988227135015386 $836 12.988227135015386 $757 $878 forward 7 unknown #
edge $-1 $767 10.923176279832617 $828 26.527528139590714 $770 $879 forward 7 unknown #
coedge $-1 $765 $844 $759 $826 forward $835 $-1 #
edge $-1 $829 -26.527528139590714 $768 -10.923176279832617 $825 $880 forward 7 unknown #
coedge $-1 $840 $760 $844 $881 reversed $755 $-1 #
vertex $-1 $772 $882 #
vertex $-1 $826 $883 #
straight-curve $-1 -76.691918627658694 45.252880349302373 0 0 0 -1 I I #
coedge $-1 $763 $853 $821 $876 forward $360 $-1 #
vertex $-1 $764 $884 #
straight-curve $-1 -37.286174363130968 29.648528489544283 12.988227135015386 -1 0 0 I I #
coedge $-1 $885 $765 $822 $877 forward $835 $-1 #
loop $-1 $-1 $834 $886 #
vertex $-1 $766 $887 #
straight-curve $-1 -37.286174363130968 29.648528489544283 -12.988227135015386 1 0 0 I I #
point $-1 -76.691918627658694 29.648528489544283 12.988227135015386 #
point $-1 -76.691918627658694 29.648528489544283 -12.988227135015386 #
coedge $-1 $771 $827 $773 $842 reversed $755 $-1 #
straight-curve $-1 0 45.252880349302373 12.988227135015386 -1 0 0 I I #
edge $-1 $774 -12.988227135015386 $846 12.988227135015386 $840 $888 forward 7 unknown #
point $-1 -79.141819513534955 45.252880349302373 12.988227135015386 #
coedge $-1 $825 $776 $827 $881 forward $835 $-1 #
coedge $-1 $776 $889 $778 $848 forward $835 $-1 #
vertex $-1 $881 $890 #
straight-curve $-1 -79.141819513534955 0 -12.988227135015386 0 1 0 I I #
edge $-1 $864 37.125851323862868 $779 40.385929234402347 $845 $891 forward 7 unknown #
point $-1 -79.141819513534955 -31.56535726679121 -12.988227135015386 #
loop $-1 $-1 $892 $781 #
plane-surface $-1 79.141819513534955 0 0 -1 0 0 0 0 1 forward_v I I I I #
coedge $-1 $893 $894 $875 $895 forward $782 $-1 #
coedge $-1 $831 $783 $893 $896 forward $360 $-1 #
coedge $-1 $892 $897 $783 $855 reversed $850 $-1 #
edge $-1 $859 -45.252880349302373 $898 45.252880349302373 $854 $899 forward 7 unknown #
coedge $-1 $900 $784 $787 $862 forward $858 $-1 #
coedge $-1 $784 $900 $892 $901 reversed $858 $-1 #
loop $-1 $-1 $856 $873 #
vertex $-1 $855 $902 #
straight-curve $-1 0 -45.252880349302373 12.988227135015386 1 0 0 I I #
coedge $-1 $787 $786 $889 $903 reversed $788 $-1 #
edge $-1 $789 -12.988227135015386 $904 12.988227135015386 $856 $905 forward 7 unknown #
point $-1 -75.881741602995476 -45.252880349302373 12.988227135015386 #
vertex $-1 $848 $906 #
straight-curve $-1 -75.881741602995476 -31.56535726679121 0 0 0 -1 I I #
point $-1 -72.452778824865177 45.25288034930238 12.988227135015386 #
point $-1 -72.452778824865177 45.25288034930238 -12.988227135015386 #
edge $-1 $869 -45.252880349302373 $815 45.252880349302373 $809 $907 forward 7 unknown #
vertex $-1 $868 $908 #
straight-curve $-1 79.141819513534955 45.252880349302373 0 0 0 -1 I I #
straight-curve $-1 0 -45.252880349302373 -12.988227135015386 -1 0 0 I I #
point $-1 79.141819513534955 -45.252880349302373 -12.988227135015386 #
face $-1 $886 $858 $19 $-1 $909 reversed single #
plane-surface $-1 -75.881741602995476 -38.409118808046792 0 -1 0 0 0 0 1 forward_v I I I I #
coedge $-1 $822 $821 $852 $895 reversed $670 $-1 #
edge $-1 $910 -26.527528139590714 $832 -10.923176279832617 $831 $911 forward 7 unknown #
edge $-1 $836 10.923176279832617 $912 26.527528139590714 $834 $913 forward 7 unknown #
straight-curve $-1 -72.452778824865177 29.648528489544283 0 0 0 -1 I I #
straight-curve $-1 -76.691918627658694 18.725352209711666 12.988227135015386 0 1 0 I I #
straight-curve $-1 -76.691918627658694 18.725352209711666 -12.988227135015386 0 -1 0 I I #
edge $-1 $846 -79.141819513534955 $829 -76.691918627658694 $827 $914 forward 7 unknown #
point $-1 -76.691918627658694 45.25288034930238 12.988227135015386 #
point $-1 -76.691918627658694 45.25288034930238 -12.988227135015386 #
point $-1 -72.452778824865177 29.648528489544283 12.988227135015386 #
coedge $-1 $915 $834 $894 $916 forward $835 $-1 #
face $-1 $577 $835 $19 $-1 $917 reversed single #
point $-1 -72.452778824865177 29.648528489544283 -12.988227135015386 #
straight-curve $-1 -79.141819513534955 45.252880349302373 0 0 0 -1 I I #
coedge $-1 $845 $918 $861 $903 forward $835 $-1 #
point $-1 -79.141819513534955 45.252880349302373 -12.988227135015386 #
straight-curve $-1 -38.755890279132608 -31.56535726679121 -12.988227135015386 -1 0 0 I I #
coedge $-1 $919 $854 $857 $901 forward $850 $-1 #
coedge $-1 $920 $852 $853 $896 reversed $782 $-1 #
coedge $-1 $852 $920 $885 $916 reversed $782 $-1 #
edge $-1 $912 -12.988227135015386 $910 12.988227135015386 $852 $921 forward 7 unknown #
edge $-1 $898 -79.141819513534955 $910 72.452778824865177 $893 $841 forward 7 unknown #
coedge $-1 $854 $919 $920 $922 reversed $850 $-1 #
vertex $-1 $855 $923 #
straight-curve $-1 79.141819513534955 0 12.988227135015386 0 1 0 I I #
coedge $-1 $857 $856 $918 $924 reversed $858 $-1 #
edge $-1 $859 -12.988227135015386 $925 12.988227135015386 $892 $926 forward 7 unknown #
point $-1 79.141819513534955 -45.252880349302373 12.988227135015386 #
edge $-1 $904 -26.048320945278977 $864 -12.360797862767814 $889 $927 forward 7 unknown #
vertex $-1 $862 $928 #
straight-curve $-1 -75.881741602995476 -45.252880349302373 0 0 0 -1 I I #
point $-1 -75.881741602995476 -31.56535726679121 -12.988227135015386 #
straight-curve $-1 79.141819513534955 0 -12.988227135015386 0 -1 0 I I #
point $-1 79.141819513534955 45.252880349302373 -12.988227135015386 #
plane-surface $-1 0 -45.252880349302373 0 0 1 0 0 0 1 forward_v I I I I #
vertex $-1 $895 $929 #
straight-curve $-1 -72.452778824865177 18.725352209711666 12.988227135015386 0 -1 0 I I #
vertex $-1 $916 $930 #
straight-curve $-1 -72.452778824865177 18.725352209711666 -12.988227135015386 0 1 0 I I #
straight-curve $-1 0 45.252880349302373 -12.988227135015386 1 0 0 I I #
coedge $-1 $918 $885 $919 $931 forward $835 $-1 #
edge $-1 $912 -72.452778824865177 $932 79.141819513534955 $894 $914 forward 7 unknown #
plane-surface $-1 0 0 -12.988227135015386 0 0 1 1 0 0 forward_v I I I I #
coedge $-1 $889 $915 $900 $924 forward $835 $-1 #
coedge $-1 $897 $892 $915 $931 reversed $850 $-1 #
coedge $-1 $894 $893 $897 $922 forward $782 $-1 #
straight-curve $-1 -72.452778824865177 45.252880349302373 0 0 0 1 I I #
edge $-1 $898 -12.988227135015386 $932 12.988227135015386 $897 $933 forward 7 unknown #
point $-1 79.141819513534955 45.252880349302373 12.988227135015386 #
edge $-1 $925 -79.141819513534955 $904 75.881741602995476 $900 $934 forward 7 unknown #
vertex $-1 $901 $935 #
straight-curve $-1 79.141819513534955 -45.252880349302373 0 0 0 -1 I I #
straight-curve $-1 -75.881741602995476 -19.204559404023396 -12.988227135015386 0 1 0 I I #
point $-1 -75.881741602995476 -45.252880349302373 -12.988227135015386 #
point $-1 -72.452778824865177 45.25288034930238 12.988227135015386 #
point $-1 -72.452778824865177 45.25288034930238 -12.988227135015386 #
edge $-1 $932 -45.252880349302373 $925 45.252880349302373 $919 $936 forward 7 unknown #
vertex $-1 $931 $937 #
straight-curve $-1 79.141819513534955 45.252880349302373 0 0 0 -1 I I #
straight-curve $-1 0 -45.252880349302373 -12.988227135015386 -1 0 0 I I #
point $-1 79.141819513534955 -45.252880349302373 -12.988227135015386 #
straight-curve $-1 79.141819513534955 0 -12.988227135015386 0 -1 0 I I #
point $-1 79.141819513534955 45.252880349302373 -12.988227135015386 #
End-of-ACIS-data 