500 0 6 0           
7 Unknown 11 ACIS 5.0 NT 24 Fri Mar 26 03:33:55 1999 
-1 9.9999999999999995e-007 1e-010 
body $-1 $6 $-1 $7 #
body $-1 $8 $-1 $9 #
body $-1 $10 $-1 $11 #
body $-1 $12 $-1 $13 #
body $-1 $14 $-1 $15 #
body $-1 $16 $-1 $17 #
lump $-1 $-1 $18 $0 #
transform $-1 1 0 0 0 1 0 0 0 1 55.956297494430373 28.273581330806493 12.131141309486422 1 rotate no_reflect no_shear #
lump $-1 $-1 $19 $1 #
transform $-1 1 0 0 0 1 0 0 0 1 55.956297494430373 28.273581330806493 12.131141309486422 1 rotate no_reflect no_shear #
lump $-1 $-1 $20 $2 #
transform $-1 1 0 0 0 1 0 0 0 1 55.956297494430373 28.273581330806493 12.131141309486422 1 rotate no_reflect no_shear #
lump $-1 $-1 $21 $3 #
transform $-1 1 0 0 0 1 0 0 0 1 55.956297494430373 28.273581330806493 12.131141309486422 1 rotate no_reflect no_shear #
lump $-1 $-1 $22 $4 #
transform $-1 1 0 0 0 1 0 0 0 1 55.956297494430373 28.273581330806493 12.131141309486422 1 rotate no_reflect no_shear #
lump $-1 $-1 $23 $5 #
transform $-1 1 0 0 0 1 0 0 0 1 55.956297494430373 28.273581330806493 12.131141309486422 1 rotate no_reflect no_shear #
shell $-1 $-1 $-1 $24 $-1 $6 #
shell $-1 $-1 $-1 $25 $-1 $8 #
shell $-1 $-1 $-1 $26 $-1 $10 #
shell $-1 $-1 $-1 $27 $-1 $12 #
shell $-1 $-1 $-1 $28 $-1 $14 #
shell $-1 $-1 $-1 $29 $-1 $16 #
face $-1 $30 $31 $18 $-1 $32 reversed single #
face $-1 $33 $34 $19 $-1 $35 forward single #
face $-1 $36 $37 $20 $-1 $38 reversed single #
face $-1 $39 $40 $21 $-1 $41 forward single #
face $-1 $42 $43 $22 $-1 $44 forward single #
face $-1 $45 $46 $23 $-1 $47 forward single #
face $-1 $48 $49 $18 $-1 $50 forward single #
loop $-1 $-1 $51 $24 #
plane-surface $-1 0 -28.273581330806493 0 0 1 0 0 0 1 forward_v I I I I #
face $-1 $52 $53 $19 $-1 $54 reversed single #
loop $-1 $-1 $55 $25 #
plane-surface $-1 0 -28.273581330806493 0 0 1 0 0 0 1 forward_v I I I I #
face $-1 $56 $57 $20 $-1 $58 reversed single #
loop $-1 $-1 $59 $26 #
plane-surface $-1 -30.072646225681897 89.432556927397158 116.95218313781444 -1 0 0 0 0.82903758062907751 0.55919289150049634 forward_v I I I I #
face $-1 $60 $61 $21 $-1 $62 forward single #
loop $-1 $63 $64 $27 #
cone-surface $-1 -50.779567240680677 25.660384714250952 9.1041903048822821 0 -0.82903758062907751 -0.55919289150049634 1 0 0 1 I I 0 1 1 forward I I I I #
face $-1 $65 $66 $22 $-1 $67 forward single #
loop $-1 $68 $69 $28 #
cone-surface $-1 -43.014471860056133 25.660384714250952 9.1041903048822821 0 -0.82903758062907751 -0.55919289150049634 1 0 0 1 I I 0 1 1 forward I I I I #
face $-1 $70 $71 $23 $-1 $72 forward single #
loop $-1 $73 $74 $29 #
cone-surface $-1 -35.249376479431596 25.660384714250952 9.1041903048822821 0 -0.82903758062907751 -0.55919289150049634 1 0 0 1 I I 0 1 1 forward I I I I #
face $-1 $75 $76 $18 $-1 $77 reversed single #
loop $-1 $-1 $78 $30 #
plane-surface $-1 0 0 12.131141309486422 0 0 1 1 0 0 forward_v I I I I #
coedge $-1 $79 $80 $81 $82 reversed $31 $-1 #
face $-1 $83 $84 $19 $-1 $85 reversed single #
loop $-1 $-1 $86 $33 #
plane-surface $-1 0 0 -12.131141309486422 0 0 1 1 0 0 forward_v I I I I #
coedge $-1 $87 $88 $89 $90 forward $34 $-1 #
face $-1 $91 $92 $20 $-1 $93 reversed single #
loop $-1 $-1 $94 $36 #
plane-surface $-1 -43.014471860056133 -3.3471900640897729 54.371455550669445 0 0.82903758062907751 0.55919289150049634 1 0 0 forward_v I I I I #
coedge $-1 $95 $96 $97 $98 reversed $37 $-1 #
face $-1 $-1 $99 $21 $-1 $100 forward single #
loop $-1 $101 $102 $39 #
cone-surface $-1 -50.779567240680677 24.197329593627856 8.1173471961476498 0 -0.82903758062907751 -0.55919289150049634 0.5 0 0 1 I I -0.70710678118654746 0.70710678118654746 0.5 forward I I I I #
loop $-1 $-1 $103 $27 #
coedge $-1 $64 $64 $104 $105 reversed $40 $-1 #
face $-1 $-1 $106 $22 $-1 $107 forward single #
loop $-1 $108 $109 $42 #
cone-surface $-1 -43.014471860056133 24.197329593627856 8.1173471961476498 0 -0.82903758062907751 -0.55919289150049634 0.5 0 0 1 I I -0.70710678118654746 0.70710678118654746 0.5 forward I I I I #
loop $-1 $-1 $110 $28 #
coedge $-1 $69 $69 $111 $112 reversed $43 $-1 #
face $-1 $-1 $113 $23 $-1 $114 forward single #
loop $-1 $115 $116 $45 #
cone-surface $-1 -35.249376479431596 24.197329593627856 8.1173471961476498 0 -0.82903758062907751 -0.55919289150049634 0.5 0 0 1 I I -0.70710678118654746 0.70710678118654746 0.5 forward I I I I #
loop $-1 $-1 $117 $29 #
coedge $-1 $74 $74 $118 $119 reversed $46 $-1 #
face $-1 $120 $121 $18 $-1 $122 reversed single #
loop $-1 $-1 $123 $48 #
plane-surface $-1 0 0 -12.131141309486422 0 0 1 1 0 0 forward_v I I I I #
coedge $-1 $124 $125 $126 $127 forward $49 $-1 #
coedge $-1 $128 $51 $129 $130 reversed $31 $-1 #
coedge $-1 $51 $128 $131 $132 forward $31 $-1 #
coedge $-1 $133 $123 $51 $82 forward $76 $-1 #
edge $-1 $134 -55.956297494430373 $135 55.956297494430373 $51 $136 forward 7 unknown #
face $-1 $137 $138 $19 $-1 $139 reversed single #
loop $-1 $-1 $140 $52 #
plane-surface $-1 -34.897158937945569 -39.042000849101854 0 0 1 0 0 0 1 forward_v I I I I #
coedge $-1 $141 $142 $88 $143 forward $53 $-1 #
coedge $-1 $144 $55 $145 $146 reversed $34 $-1 #
coedge $-1 $55 $144 $86 $143 reversed $34 $-1 #
coedge $-1 $147 $148 $55 $90 reversed $138 $-1 #
edge $-1 $149 -12.131141309486422 $150 12.131141309486422 $89 $151 forward 7 unknown #
face $-1 $152 $153 $20 $-1 $154 forward single #
loop $-1 $-1 $155 $56 #
plane-surface $-1 -55.956297494430373 0 0 1 0 0 0 0 -1 forward_v I I I I #
coedge $-1 $156 $157 $158 $159 reversed $57 $-1 #
coedge $-1 $96 $59 $160 $161 reversed $37 $-1 #
coedge $-1 $59 $95 $156 $162 reversed $37 $-1 #
coedge $-1 $158 $163 $59 $98 forward $164 $-1 #
edge $-1 $165 46.344950259420798 $166 50.984358942660307 $97 $167 forward 7 unknown #
loop $-1 $-1 $104 $60 #
plane-surface $-1 -43.014471860056133 -3.3471900640897729 54.371455550669445 0 0.82903758062907751 0.55919289150049634 1 0 0 forward_v I I I I #
loop $-1 $-1 $168 $39 #
coedge $-1 $102 $102 $103 $169 reversed $61 $-1 #
coedge $-1 $103 $103 $102 $169 forward $63 $-1 #
coedge $-1 $104 $104 $64 $105 forward $99 $-1 #
edge $-1 $170 1.0279713165030387e-015 $170 6.2831853071796013 $104 $171 forward 7 unknown #
loop $-1 $-1 $111 $65 #
plane-surface $-1 -43.014471860056133 -3.3471900640897729 54.371455550669445 0 0.82903758062907751 0.55919289150049634 1 0 0 forward_v I I I I #
loop $-1 $-1 $172 $42 #
coedge $-1 $109 $109 $110 $173 reversed $66 $-1 #
coedge $-1 $110 $110 $109 $173 forward $68 $-1 #
coedge $-1 $111 $111 $69 $112 forward $106 $-1 #
edge $-1 $174 1.0279713165030387e-015 $174 6.2831853071796013 $111 $175 forward 7 unknown #
loop $-1 $-1 $118 $70 #
plane-surface $-1 -43.014471860056133 -3.3471900640897729 54.371455550669445 0 0.82903758062907751 0.55919289150049634 1 0 0 forward_v I I I I #
loop $-1 $-1 $176 $45 #
coedge $-1 $116 $116 $117 $177 reversed $71 $-1 #
coedge $-1 $117 $117 $116 $177 forward $73 $-1 #
coedge $-1 $118 $118 $74 $119 forward $113 $-1 #
edge $-1 $178 1.0279713165030387e-015 $178 6.2831853071796013 $118 $179 forward 7 unknown #
face $-1 $180 $181 $18 $-1 $182 reversed single #
loop $-1 $-1 $183 $75 #
plane-surface $-1 -55.956297494430373 0 0 1 0 0 0 0 -1 forward_v I I I I #
coedge $-1 $81 $184 $185 $186 forward $76 $-1 #
coedge $-1 $187 $78 $188 $189 forward $49 $-1 #
coedge $-1 $78 $187 $128 $190 forward $49 $-1 #
coedge $-1 $129 $191 $78 $127 reversed $192 $-1 #
edge $-1 $193 -28.273581330806493 $194 28.273581330806493 $126 $195 forward 7 unknown #
coedge $-1 $80 $79 $125 $190 reversed $31 $-1 #
coedge $-1 $185 $126 $79 $130 forward $192 $-1 #
edge $-1 $193 -12.131141309486422 $134 12.131141309486422 $129 $196 forward 7 unknown #
coedge $-1 $197 $198 $80 $132 reversed $121 $-1 #
edge $-1 $199 -12.131141309486422 $135 12.131141309486422 $131 $200 forward 7 unknown #
coedge $-1 $184 $81 $198 $201 forward $76 $-1 #
vertex $-1 $130 $202 #
vertex $-1 $201 $203 #
straight-curve $-1 0 -28.273581330806493 -12.131141309486422 -1 0 0 I I #
face $-1 $204 $205 $19 $-1 $206 reversed single #
loop $-1 $-1 $89 $83 #
plane-surface $-1 -38.100303000433613 -33.657791089954173 0 1 0 0 0 0 -1 forward_v I I I I #
coedge $-1 $207 $208 $209 $210 forward $84 $-1 #
coedge $-1 $211 $86 $212 $213 forward $53 $-1 #
coedge $-1 $86 $211 $147 $214 forward $53 $-1 #
edge $-1 $149 -38.100303000433613 $215 -31.69401487545753 $86 $216 forward 7 unknown #
coedge $-1 $88 $87 $217 $218 forward $34 $-1 #
coedge $-1 $219 $220 $87 $146 forward $221 $-1 #
edge $-1 $222 31.69401487545753 $150 38.100303000433613 $145 $223 forward 7 unknown #
coedge $-1 $209 $89 $142 $214 reversed $138 $-1 #
coedge $-1 $89 $209 $219 $224 reversed $138 $-1 #
vertex $-1 $143 $225 #
vertex $-1 $224 $226 #
straight-curve $-1 -38.100303000433613 -28.273581330806493 0 0 0 1 I I #
face $-1 $-1 $164 $20 $-1 $227 reversed single #
loop $-1 $-1 $160 $91 #
plane-surface $-1 0 0 12.131141309486422 0 0 1 1 0 0 forward_v I I I I #
coedge $-1 $228 $229 $157 $230 forward $92 $-1 #
coedge $-1 $231 $94 $96 $162 forward $57 $-1 #
coedge $-1 $94 $231 $155 $230 reversed $57 $-1 #
coedge $-1 $232 $97 $94 $159 forward $164 $-1 #
edge $-1 $166 8.5654102956538303 $233 34.449061564402307 $158 $234 forward 7 unknown #
coedge $-1 $235 $236 $95 $161 forward $153 $-1 #
edge $-1 $237 -19.57201770538607 $165 -16.442697132892086 $160 $238 forward 7 unknown #
edge $-1 $166 -56.547162661612987 $237 -50.951024691945662 $96 $239 forward 7 unknown #
coedge $-1 $97 $232 $235 $240 reversed $164 $-1 #
loop $-1 $-1 $158 $152 #
vertex $-1 $240 $241 #
vertex $-1 $98 $242 #
straight-curve $-1 -30.072646225681897 28.273581330806493 58.476091568907222 0 0 -1 I I #
coedge $-1 $168 $168 $-1 $243 reversed $101 $-1 #
edge $-1 $244 0 $244 6.2831853071796004 $102 $245 forward 7 unknown #
vertex $-1 $105 $246 #
ellipse-curve $-1 -50.779567240680677 26.708921044559503 9.811436967866662 0 0.82903758062907751 0.55919289150049634 1 0 0 1 I I #
coedge $-1 $172 $172 $-1 $247 reversed $108 $-1 #
edge $-1 $248 0 $248 6.2831853071796004 $109 $249 forward 7 unknown #
vertex $-1 $112 $250 #
ellipse-curve $-1 -43.014471860056133 26.708921044559503 9.811436967866662 0 0.82903758062907751 0.55919289150049634 1 0 0 1 I I #
coedge $-1 $176 $176 $-1 $251 reversed $115 $-1 #
edge $-1 $252 0 $252 6.2831853071796004 $116 $253 forward 7 unknown #
vertex $-1 $119 $254 #
ellipse-curve $-1 -35.249376479431596 26.708921044559503 9.811436967866662 0 0.82903758062907751 0.55919289150049634 1 0 0 1 I I #
face $-1 $-1 $192 $18 $-1 $255 reversed single #
loop $-1 $-1 $256 $120 #
plane-surface $-1 0 28.273581330806493 0 0 -1 0 0 0 -1 forward_v I I I I #
coedge $-1 $198 $197 $257 $258 forward $121 $-1 #
coedge $-1 $123 $133 $259 $260 forward $76 $-1 #
coedge $-1 $191 $129 $123 $186 reversed $192 $-1 #
edge $-1 $261 -28.273581330806493 $134 28.273581330806493 $185 $262 forward 7 unknown #
coedge $-1 $125 $124 $197 $263 forward $49 $-1 #
coedge $-1 $256 $257 $124 $189 reversed $181 $-1 #
edge $-1 $194 -55.956297494430373 $264 55.956297494430373 $188 $265 forward 7 unknown #
edge $-1 $199 -55.956297494430373 $193 55.956297494430373 $128 $266 forward 7 unknown #
coedge $-1 $126 $185 $256 $267 reversed $192 $-1 #
loop $-1 $-1 $129 $180 #
vertex $-1 $127 $268 #
vertex $-1 $127 $269 #
straight-curve $-1 55.956297494430373 0 12.131141309486422 0 1 0 I I #
straight-curve $-1 55.956297494430373 -28.273581330806493 0 0 0 -1 I I #
coedge $-1 $183 $131 $187 $263 reversed $121 $-1 #
coedge $-1 $131 $183 $133 $201 reversed $121 $-1 #
vertex $-1 $263 $270 #
straight-curve $-1 -55.956297494430373 -28.273581330806493 0 0 0 -1 I I #
edge $-1 $135 -28.273581330806493 $271 28.273581330806493 $198 $272 forward 7 unknown #
point $-1 55.956297494430373 -28.273581330806493 -12.131141309486422 #
point $-1 -55.956297494430373 -28.273581330806493 -12.131141309486422 #
face $-1 $-1 $221 $19 $-1 $273 forward single #
loop $-1 $-1 $274 $137 #
plane-surface $-1 -31.69401487545753 -33.657791089954173 0 -1 0 0 0 0 1 forward_v I I I I #
coedge $-1 $275 $140 $211 $276 reversed $84 $-1 #
coedge $-1 $140 $275 $277 $278 reversed $84 $-1 #
coedge $-1 $148 $147 $140 $210 reversed $138 $-1 #
edge $-1 $279 -12.131141309486422 $280 12.131141309486422 $209 $281 forward 7 unknown #
coedge $-1 $142 $141 $207 $276 forward $53 $-1 #
coedge $-1 $217 $274 $141 $213 reversed $205 $-1 #
edge $-1 $215 -5.3842097591476801 $282 5.3842097591476801 $212 $283 forward 7 unknown #
edge $-1 $280 -5.3842097591476801 $149 5.3842097591476801 $147 $284 forward 7 unknown #
vertex $-1 $213 $285 #
straight-curve $-1 0 -28.273581330806493 -12.131141309486422 1 0 0 I I #
coedge $-1 $286 $212 $144 $218 reversed $205 $-1 #
edge $-1 $222 -12.131141309486422 $215 12.131141309486422 $217 $287 forward 7 unknown #
coedge $-1 $277 $145 $148 $224 forward $221 $-1 #
coedge $-1 $145 $277 $286 $288 forward $221 $-1 #
loop $-1 $-1 $145 $204 #
vertex $-1 $146 $289 #
straight-curve $-1 0 -28.273581330806493 12.131141309486422 -1 0 0 I I #
edge $-1 $150 -5.3842097591476801 $279 5.3842097591476801 $148 $290 forward 7 unknown #
point $-1 -38.100303000433613 -28.273581330806493 -12.131141309486422 #
point $-1 -38.100303000433613 -28.273581330806493 12.131141309486422 #
plane-surface $-1 0 28.273581330806493 0 0 -1 0 0 0 -1 forward_v I I I I #
coedge $-1 $229 $155 $291 $292 reversed $92 $-1 #
coedge $-1 $155 $228 $232 $293 forward $92 $-1 #
edge $-1 $233 -33.073310233938727 $294 -27.47717226427141 $155 $295 forward 7 unknown #
coedge $-1 $157 $156 $236 $296 reversed $57 $-1 #
coedge $-1 $163 $158 $229 $293 reversed $164 $-1 #
vertex $-1 $230 $297 #
straight-curve $-1 -21.507235930028067 28.273581330806493 7.4917326262469111 -1 0 0 I I #
coedge $-1 $291 $160 $163 $240 forward $153 $-1 #
coedge $-1 $160 $291 $231 $296 forward $153 $-1 #
vertex $-1 $161 $298 #
straight-curve $-1 -30.072646225681897 44.716278463698579 12.131141309486424 0 1 0 I I #
straight-curve $-1 -30.072646225681897 -3.3471900640897729 54.371455550669445 0 -0.55919289150049634 0.82903758062907751 I I #
edge $-1 $165 30.072646225681897 $299 55.956297494430373 $163 $300 forward 7 unknown #
point $-1 -30.072646225681897 28.273581330806493 12.131141309486422 #
point $-1 -30.072646225681897 28.273581330806493 7.4917326262469146 #
edge $-1 $301 1 $301 0 $168 $-1 forward 7 unknown #
vertex $-1 $169 $302 #
ellipse-curve $-1 -50.779567240680677 24.611848383942394 8.3969436418978987 0 0.82903758062907751 0.55919289150049634 1 0 0 1 I I #
point $-1 -49.779567240680677 26.70892104455951 9.8114369678666655 #
edge $-1 $303 1 $303 0 $172 $-1 forward 7 unknown #
vertex $-1 $173 $304 #
ellipse-curve $-1 -43.014471860056133 24.611848383942394 8.3969436418978987 0 0.82903758062907751 0.55919289150049634 1 0 0 1 I I #
point $-1 -42.014471860056133 26.70892104455951 9.8114369678666655 #
edge $-1 $305 1 $305 0 $176 $-1 forward 7 unknown #
vertex $-1 $177 $306 #
ellipse-curve $-1 -35.249376479431596 24.611848383942394 8.3969436418978987 0 0.82903758062907751 0.55919289150049634 1 0 0 1 I I #
point $-1 -34.249376479431596 26.70892104455951 9.8114369678666655 #
plane-surface $-1 55.956297494430373 0 0 -1 0 0 0 0 1 forward_v I I I I #
coedge $-1 $259 $188 $191 $267 forward $181 $-1 #
coedge $-1 $188 $259 $183 $258 reversed $181 $-1 #
edge $-1 $264 -12.131141309486422 $271 12.131141309486422 $257 $307 forward 7 unknown #
coedge $-1 $257 $256 $184 $260 reversed $181 $-1 #
edge $-1 $271 -55.956297494430373 $261 55.956297494430373 $259 $308 forward 7 unknown #
vertex $-1 $186 $309 #
straight-curve $-1 55.956297494430373 0 -12.131141309486422 0 -1 0 I I #
edge $-1 $264 -28.273581330806493 $199 28.273581330806493 $197 $310 forward 7 unknown #
vertex $-1 $189 $311 #
straight-curve $-1 0 28.273581330806493 12.131141309486422 -1 0 0 I I #
straight-curve $-1 0 -28.273581330806493 12.131141309486422 1 0 0 I I #
edge $-1 $194 -12.131141309486422 $261 12.131141309486422 $191 $312 forward 7 unknown #
point $-1 55.956297494430373 -28.273581330806493 12.131141309486422 #
point $-1 55.956297494430373 28.273581330806493 12.131141309486422 #
point $-1 -55.956297494430373 -28.273581330806493 12.131141309486422 #
vertex $-1 $260 $313 #
straight-curve $-1 -55.956297494430373 0 -12.131141309486422 0 1 0 I I #
plane-surface $-1 0 0 12.131141309486422 0 0 1 1 0 0 forward_v I I I I #
coedge $-1 $212 $286 $275 $314 forward $205 $-1 #
coedge $-1 $208 $207 $274 $314 reversed $84 $-1 #
edge $-1 $282 -3.2031440624880396 $280 3.2031440624880432 $207 $315 forward 7 unknown #
coedge $-1 $220 $219 $208 $278 forward $221 $-1 #
edge $-1 $279 -3.2031440624880432 $316 3.2031440624880396 $208 $317 forward 7 unknown #
vertex $-1 $224 $318 #
vertex $-1 $214 $319 #
straight-curve $-1 -38.100303000433613 -39.042000849101854 0 0 0 -1 I I #
vertex $-1 $314 $320 #
straight-curve $-1 -31.69401487545753 -33.657791089954173 -12.131141309486422 0 -1 0 I I #
straight-curve $-1 -38.100303000433613 -33.657791089954173 -12.131141309486422 0 1 0 I I #
point $-1 -31.69401487545753 -28.273581330806493 -12.131141309486422 #
coedge $-1 $274 $217 $220 $288 reversed $205 $-1 #
straight-curve $-1 -31.69401487545753 -28.273581330806493 0 0 0 -1 I I #
edge $-1 $316 -5.3842097591476801 $222 5.3842097591476801 $286 $321 forward 7 unknown #
point $-1 -31.69401487545753 -28.273581330806493 12.131141309486422 #
straight-curve $-1 -38.100303000433613 -33.657791089954173 12.131141309486422 0 -1 0 I I #
coedge $-1 $236 $235 $228 $292 forward $153 $-1 #
edge $-1 $299 -28.273581330806493 $294 -25.144260758312509 $228 $322 forward 7 unknown #
edge $-1 $299 -12.131141309486422 $233 -7.4917326262469128 $232 $323 forward 7 unknown #
vertex $-1 $230 $324 #
straight-curve $-1 -55.956297494430373 9.779221349597341 34.910749725986385 0 -0.55919289150049634 0.82903758062907751 I I #
edge $-1 $294 -34.449061564402307 $237 -8.5654102956538303 $236 $325 forward 7 unknown #
point $-1 -55.956297494430373 28.273581330806493 7.4917326262469128 #
point $-1 -30.072646225681897 25.144260758312509 12.131141309486424 #
vertex $-1 $240 $326 #
straight-curve $-1 0 28.273581330806493 12.131141309486422 -1 0 0 I I #
vertex $-1 $243 $327 #
point $-1 -49.779567240680677 24.611848383942394 8.3969436418978987 #
vertex $-1 $247 $328 #
point $-1 -42.014471860056133 24.611848383942394 8.3969436418978987 #
vertex $-1 $251 $329 #
point $-1 -34.249376479431596 24.611848383942394 8.3969436418978987 #
straight-curve $-1 -55.956297494430373 28.273581330806493 0 0 0 -1 I I #
straight-curve $-1 0 28.273581330806493 -12.131141309486422 1 0 0 I I #
point $-1 55.956297494430373 28.273581330806493 -12.131141309486422 #
straight-curve $-1 -55.956297494430373 0 12.131141309486422 0 -1 0 I I #
point $-1 -55.956297494430373 28.273581330806493 12.131141309486422 #
straight-curve $-1 55.956297494430373 28.273581330806493 0 0 0 -1 I I #
point $-1 -55.956297494430373 28.273581330806493 -12.131141309486422 #
edge $-1 $316 -12.131141309486422 $282 12.131141309486422 $274 $330 forward 7 unknown #
straight-curve $-1 -34.897158937945569 -39.042000849101854 -12.131141309486422 -1 0 0 I I #
vertex $-1 $288 $331 #
straight-curve $-1 -34.897158937945569 -39.042000849101854 12.131141309486422 1 0 0 I I #
point $-1 -38.100303000433613 -39.042000849101854 12.131141309486422 #
point $-1 -38.100303000433613 -39.042000849101854 -12.131141309486422 #
point $-1 -31.69401487545753 -39.042000849101854 -12.131141309486422 #
straight-curve $-1 -31.69401487545753 -33.657791089954173 12.131141309486422 0 1 0 I I #
straight-curve $-1 -55.956297494430373 0 12.131141309486422 0 -1 0 I I #
straight-curve $-1 -55.956297494430373 28.273581330806493 0 0 0 -1 I I #
point $-1 -55.956297494430373 25.144260758312509 12.131141309486424 #
straight-curve $-1 -21.507235930028067 25.144260758312509 12.13114130948642 1 0 0 I I #
point $-1 -55.956297494430373 28.273581330806493 12.131141309486422 #
point $-1 -50.779567240680677 23.782810803313318 7.8377507503974018 #
point $-1 -43.014471860056133 23.782810803313318 7.8377507503974018 #
point $-1 -35.249376479431596 23.782810803313318 7.8377507503974018 #
straight-curve $-1 -31.69401487545753 -39.042000849101854 0 0 0 -1 I I #
point $-1 -31.69401487545753 -39.042000849101854 12.131141309486422 #
End-of-ACIS-data 