500 0 9 0           
7 Unknown 11 ACIS 5.0 NT 24 Fri Mar 26 17:41:47 1999 
-1 9.9999999999999995e-007 1e-010 
body $-1 $9 $-1 $10 #
body $-1 $11 $-1 $12 #
body $-1 $13 $-1 $14 #
body $-1 $15 $-1 $16 #
body $-1 $17 $-1 $18 #
body $-1 $19 $-1 $20 #
body $-1 $21 $-1 $22 #
body $-1 $23 $-1 $24 #
body $-1 $25 $-1 $26 #
lump $-1 $-1 $27 $0 #
transform $-1 1 0 0 0 1 0 0 0 1 71.097140415662096 47.851649695879608 12.932811198514976 1 rotate no_reflect no_shear #
lump $-1 $-1 $28 $1 #
transform $-1 1 0 0 0 1 0 0 0 1 71.097140415662096 47.851649695879608 12.932811198514976 1 rotate no_reflect no_shear #
lump $-1 $-1 $29 $2 #
transform $-1 1 0 0 0 1 0 0 0 1 71.097140415662096 47.851649695879608 12.932811198514976 1 rotate no_reflect no_shear #
lump $-1 $-1 $30 $3 #
transform $-1 1 0 0 0 1 0 0 0 1 71.097140415662096 47.851649695879608 12.932811198514976 1 rotate no_reflect no_shear #
lump $-1 $-1 $31 $4 #
transform $-1 1 0 0 0 1 0 0 0 1 71.097140415662096 47.851649695879608 12.932811198514976 1 rotate no_reflect no_shear #
lump $-1 $-1 $32 $5 #
transform $-1 1 0 0 0 1 0 0 0 1 71.097140415662096 47.851649695879608 12.932811198514976 1 rotate no_reflect no_shear #
lump $-1 $-1 $33 $6 #
transform $-1 1 0 0 0 1 0 0 0 1 71.097140415662096 47.851649695879608 12.932811198514976 1 rotate no_reflect no_shear #
lump $-1 $-1 $34 $7 #
transform $-1 1 0 0 0 1 0 0 0 1 71.097140415662096 47.851649695879608 12.932811198514976 1 rotate no_reflect no_shear #
lump $-1 $-1 $35 $8 #
transform $-1 1 0 0 0 1 0 0 0 1 71.097140415662096 47.851649695879608 12.932811198514976 1 rotate no_reflect no_shear #
shell $-1 $-1 $-1 $36 $-1 $9 #
shell $-1 $-1 $-1 $37 $-1 $11 #
shell $-1 $-1 $-1 $38 $-1 $13 #
shell $-1 $-1 $-1 $39 $-1 $15 #
shell $-1 $-1 $-1 $40 $-1 $17 #
shell $-1 $-1 $-1 $41 $-1 $19 #
shell $-1 $-1 $-1 $42 $-1 $21 #
shell $-1 $-1 $-1 $43 $-1 $23 #
shell $-1 $-1 $-1 $44 $-1 $25 #
face $-1 $45 $46 $27 $-1 $47 forward single #
face $-1 $48 $49 $28 $-1 $50 reversed single #
face $-1 $51 $52 $29 $-1 $53 reversed single #
face $-1 $54 $55 $30 $-1 $56 forward single #
face $-1 $57 $58 $31 $-1 $59 forward single #
face $-1 $60 $61 $32 $-1 $62 reversed single #
face $-1 $63 $64 $33 $-1 $65 forward single #
face $-1 $66 $67 $34 $-1 $68 forward single #
face $-1 $69 $70 $35 $-1 $71 forward single #
face $-1 $72 $73 $27 $-1 $74 reversed single #
loop $-1 $-1 $75 $36 #
plane-surface $-1 0 0 12.932811198514976 0 0 1 1 0 0 forward_v I I I I #
face $-1 $76 $77 $28 $-1 $78 reversed single #
loop $-1 $-1 $79 $37 #
plane-surface $-1 0 -40.881962882487095 6.9223910961795241 0 0 1 1 0 0 forward_v I I I I #
face $-1 $80 $81 $29 $-1 $82 reversed single #
loop $-1 $-1 $83 $38 #
plane-surface $-1 46.590060694254262 45.451348876480523 205.7744714317202 0 -1 0 -0.61566148304635926 0 -0.78801074757464917 forward_v I I I I #
face $-1 $84 $85 $30 $-1 $86 forward single #
loop $-1 $87 $88 $39 #
cone-surface $-1 66.014430603323305 38.702774480552527 8.5821337367756705 -0.61566148304635926 0 -0.78801074757464917 0.78801074757464917 0 -0.61566148304635926 1 I I 0 1 1 forward I I I I #
face $-1 $89 $90 $31 $-1 $91 forward single #
loop $-1 $92 $93 $40 #
cone-surface $-1 66.014430603323305 42.751919118109321 8.5821337367756705 -0.61566148304635926 0 -0.78801074757464917 0.78801074757464917 0 -0.61566148304635926 1 I I 0 1 1 forward I I I I #
face $-1 $94 $95 $32 $-1 $96 reversed single #
loop $-1 $-1 $97 $41 #
plane-surface $-1 -71.097140415662082 -28.6787310480927 2.2137919303797844 -0.55919291073839883 0 0.82903756765294845 0.82903756765294845 0 0.55919291073839883 forward_v I I I I #
face $-1 $98 $99 $33 $-1 $100 forward single #
loop $-1 $101 $102 $42 #
cone-surface $-1 -62.441406231634311 -31.818858060693827 6.520780344489423 0.55919291073839883 0 -0.82903756765294845 0.82903756765294845 0 0.55919291073839883 1 I I 0 1 1 forward I I I I #
face $-1 $103 $104 $34 $-1 $105 forward single #
loop $-1 $106 $107 $43 #
cone-surface $-1 -62.441406231634311 -28.6787310480927 6.520780344489423 0.55919291073839883 0 -0.82903756765294845 0.82903756765294845 0 0.55919291073839883 1 I I 0 1 1 forward I I I I #
face $-1 $108 $109 $35 $-1 $110 forward single #
loop $-1 $111 $112 $44 #
cone-surface $-1 -62.441406231634311 -25.538604035491574 6.520780344489423 0.55919291073839883 0 -0.82903756765294845 0.82903756765294845 0 0.55919291073839883 1 I I 0 1 1 forward I I I I #
face $-1 $113 $114 $27 $-1 $115 reversed single #
loop $-1 $-1 $116 $45 #
plane-surface $-1 0 0 -12.932811198514976 0 0 1 1 0 0 forward_v I I I I #
coedge $-1 $117 $118 $119 $120 forward $46 $-1 #
face $-1 $121 $122 $28 $-1 $123 reversed single #
loop $-1 $-1 $124 $48 #
plane-surface $-1 0 -33.912276069094581 9.9276011473472501 0 -1 0 0 0 -1 forward_v I I I I #
coedge $-1 $125 $126 $127 $128 reversed $49 $-1 #
face $-1 $129 $130 $29 $-1 $131 reversed single #
loop $-1 $-1 $132 $51 #
plane-surface $-1 -40.953481123069281 40.727346799330924 93.723849892988824 0.61566148304635926 0 0.78801074757464917 0.78801074757464917 0 -0.61566148304635926 forward_v I I I I #
coedge $-1 $133 $134 $135 $136 reversed $52 $-1 #
face $-1 $-1 $137 $30 $-1 $138 forward single #
loop $-1 $139 $140 $54 #
cone-surface $-1 64.945294896413799 38.702774480552527 7.2137024626739006 -0.61566148304635926 0 -0.78801074757464917 0.39400537378732459 0 -0.30783074152317963 1 I I -0.70710678118654746 0.70710678118654746 0.5 forward I I I I #
loop $-1 $-1 $141 $39 #
coedge $-1 $88 $88 $142 $143 reversed $55 $-1 #
face $-1 $-1 $144 $31 $-1 $145 forward single #
loop $-1 $146 $147 $57 #
cone-surface $-1 64.945294896413799 42.751919118109321 7.2137024626739006 -0.61566148304635926 0 -0.78801074757464917 0.39400537378732459 0 -0.30783074152317963 1 I I -0.70710678118654746 0.70710678118654746 0.5 forward I I I I #
loop $-1 $-1 $148 $40 #
coedge $-1 $93 $93 $149 $150 reversed $58 $-1 #
face $-1 $151 $152 $32 $-1 $153 forward single #
loop $-1 $-1 $154 $60 #
plane-surface $-1 -150.61117420408357 -23.44518602709082 120.09819264494107 0 -1 0 0.55919291073839883 0 -0.82903756765294845 forward_v I I I I #
coedge $-1 $155 $156 $157 $158 reversed $61 $-1 #
face $-1 $-1 $159 $33 $-1 $160 forward single #
loop $-1 $161 $162 $63 #
cone-surface $-1 -61.451875235821454 -31.818858060693827 5.0537403407049837 0.55919291073839883 0 -0.82903756765294845 0.41451878382647422 0 0.27959645536919941 1 I I -0.70710678118654746 0.70710678118654746 0.5 forward I I I I #
loop $-1 $-1 $163 $42 #
coedge $-1 $102 $102 $164 $165 reversed $64 $-1 #
face $-1 $-1 $166 $34 $-1 $167 forward single #
loop $-1 $168 $169 $66 #
cone-surface $-1 -61.451875235821454 -28.6787310480927 5.0537403407049837 0.55919291073839883 0 -0.82903756765294845 0.41451878382647422 0 0.27959645536919941 1 I I -0.70710678118654746 0.70710678118654746 0.5 forward I I I I #
loop $-1 $-1 $170 $43 #
coedge $-1 $107 $107 $171 $172 reversed $67 $-1 #
face $-1 $-1 $173 $35 $-1 $174 forward single #
loop $-1 $175 $176 $69 #
cone-surface $-1 -61.451875235821454 -25.538604035491574 5.0537403407049837 0.55919291073839883 0 -0.82903756765294845 0.41451878382647422 0 0.27959645536919941 1 I I -0.70710678118654746 0.70710678118654746 0.5 forward I I I I #
loop $-1 $-1 $177 $44 #
coedge $-1 $112 $112 $178 $179 reversed $70 $-1 #
face $-1 $180 $181 $27 $-1 $182 reversed single #
loop $-1 $-1 $183 $72 #
plane-surface $-1 0 -47.851649695879608 0 0 1 0 0 0 1 forward_v I I I I #
coedge $-1 $184 $185 $186 $187 forward $73 $-1 #
coedge $-1 $188 $75 $189 $190 forward $46 $-1 #
coedge $-1 $75 $188 $191 $192 forward $46 $-1 #
coedge $-1 $193 $194 $75 $120 reversed $195 $-1 #
edge $-1 $196 -47.851649695879608 $197 47.851649695879608 $119 $198 forward 7 unknown #
face $-1 $199 $200 $28 $-1 $201 reversed single #
loop $-1 $-1 $202 $76 #
plane-surface $-1 -71.097140415662096 0 0 1 0 0 0 0 -1 forward_v I I I I #
coedge $-1 $203 $204 $205 $206 reversed $77 $-1 #
coedge $-1 $207 $79 $208 $209 reversed $49 $-1 #
coedge $-1 $79 $207 $210 $211 forward $49 $-1 #
coedge $-1 $212 $213 $79 $128 forward $214 $-1 #
edge $-1 $215 -27.410668254636061 $216 -13.471294627851034 $127 $217 forward 7 unknown #
face $-1 $218 $219 $29 $-1 $220 reversed single #
loop $-1 $-1 $221 $80 #
plane-surface $-1 46.590060694254262 36.003344722181325 205.7744714317202 0 1 0 0.61566148304635926 0 0.78801074757464917 forward_v I I I I #
coedge $-1 $222 $223 $224 $225 reversed $81 $-1 #
coedge $-1 $134 $83 $226 $227 reversed $52 $-1 #
coedge $-1 $83 $133 $222 $228 reversed $52 $-1 #
coedge $-1 $224 $229 $83 $136 forward $230 $-1 #
edge $-1 $231 -47.802110068534965 $232 -39.159300374630071 $135 $233 forward 7 unknown #
loop $-1 $-1 $142 $84 #
plane-surface $-1 -40.953481123069281 40.727346799330924 93.723849892988824 0.61566148304635926 0 0.78801074757464917 0.78801074757464917 0 -0.61566148304635926 forward_v I I I I #
loop $-1 $-1 $234 $54 #
coedge $-1 $140 $140 $141 $235 reversed $85 $-1 #
coedge $-1 $141 $141 $140 $235 forward $87 $-1 #
coedge $-1 $142 $142 $88 $143 forward $137 $-1 #
edge $-1 $236 0 $236 6.2831853071796004 $142 $237 forward 7 unknown #
loop $-1 $-1 $149 $89 #
plane-surface $-1 -40.953481123069281 40.727346799330924 93.723849892988824 0.61566148304635926 0 0.78801074757464917 0.78801074757464917 0 -0.61566148304635926 forward_v I I I I #
loop $-1 $-1 $238 $57 #
coedge $-1 $147 $147 $148 $239 reversed $90 $-1 #
coedge $-1 $148 $148 $147 $239 forward $92 $-1 #
coedge $-1 $149 $149 $93 $150 forward $144 $-1 #
edge $-1 $240 0 $240 6.2831853071796004 $149 $241 forward 7 unknown #
face $-1 $242 $243 $32 $-1 $244 reversed single #
loop $-1 $-1 $157 $94 #
plane-surface $-1 0 0 12.932811198514976 0 0 1 1 0 0 forward_v I I I I #
coedge $-1 $245 $246 $247 $248 reversed $95 $-1 #
coedge $-1 $249 $97 $250 $251 reversed $61 $-1 #
coedge $-1 $97 $249 $245 $252 forward $61 $-1 #
coedge $-1 $247 $253 $97 $158 forward $152 $-1 #
edge $-1 $254 -19.572910545048231 $255 -9.1058205030444697 $157 $256 forward 7 unknown #
loop $-1 $-1 $164 $98 #
plane-surface $-1 -71.097140415662082 -28.6787310480927 2.2137919303797844 -0.55919291073839883 0 0.82903756765294845 0.82903756765294845 0 0.55919291073839883 forward_v I I I I #
loop $-1 $-1 $257 $63 #
coedge $-1 $162 $162 $163 $258 reversed $99 $-1 #
coedge $-1 $163 $163 $162 $258 forward $101 $-1 #
coedge $-1 $164 $164 $102 $165 forward $159 $-1 #
edge $-1 $259 0 $259 6.2831853071796004 $164 $260 forward 7 unknown #
loop $-1 $-1 $171 $103 #
plane-surface $-1 -71.097140415662082 -28.6787310480927 2.2137919303797844 -0.55919291073839883 0 0.82903756765294845 0.82903756765294845 0 0.55919291073839883 forward_v I I I I #
loop $-1 $-1 $261 $66 #
coedge $-1 $169 $169 $170 $262 reversed $104 $-1 #
coedge $-1 $170 $170 $169 $262 forward $106 $-1 #
coedge $-1 $171 $171 $107 $172 forward $166 $-1 #
edge $-1 $263 0 $263 6.2831853071796004 $171 $264 forward 7 unknown #
loop $-1 $-1 $178 $108 #
plane-surface $-1 -71.097140415662082 -28.6787310480927 2.2137919303797844 -0.55919291073839883 0 0.82903756765294845 0.82903756765294845 0 0.55919291073839883 forward_v I I I I #
loop $-1 $-1 $265 $69 #
coedge $-1 $176 $176 $177 $266 reversed $109 $-1 #
coedge $-1 $177 $177 $176 $266 forward $111 $-1 #
coedge $-1 $178 $178 $112 $179 forward $173 $-1 #
edge $-1 $267 0 $267 6.2831853071796004 $178 $268 forward 7 unknown #
face $-1 $269 $270 $27 $-1 $271 reversed single #
loop $-1 $-1 $272 $113 #
plane-surface $-1 -71.097140415662096 0 0 1 0 0 0 0 -1 forward_v I I I I #
coedge $-1 $273 $191 $274 $275 forward $114 $-1 #
coedge $-1 $276 $116 $273 $277 forward $73 $-1 #
coedge $-1 $116 $276 $278 $279 forward $73 $-1 #
coedge $-1 $194 $193 $116 $187 reversed $195 $-1 #
edge $-1 $280 -47.851649695879608 $281 47.851649695879608 $186 $282 forward 7 unknown #
coedge $-1 $118 $117 $283 $284 forward $46 $-1 #
coedge $-1 $285 $286 $117 $190 reversed $270 $-1 #
edge $-1 $197 -71.097140415662096 $287 71.097140415662096 $189 $288 forward 7 unknown #
coedge $-1 $183 $289 $118 $192 reversed $114 $-1 #
edge $-1 $290 -71.097140415662096 $196 71.097140415662096 $191 $291 forward 7 unknown #
coedge $-1 $186 $119 $289 $292 forward $195 $-1 #
coedge $-1 $119 $186 $285 $293 reversed $195 $-1 #
loop $-1 $-1 $193 $269 #
vertex $-1 $120 $294 #
vertex $-1 $120 $295 #
straight-curve $-1 71.097140415662096 0 12.932811198514976 0 1 0 I I #
face $-1 $296 $297 $28 $-1 $298 forward single #
loop $-1 $-1 $208 $121 #
plane-surface $-1 0 -47.851649695879608 0 0 1 0 0 0 1 forward_v I I I I #
coedge $-1 $299 $300 $204 $301 forward $122 $-1 #
coedge $-1 $210 $124 $212 $302 reversed $77 $-1 #
coedge $-1 $124 $210 $202 $301 reversed $77 $-1 #
coedge $-1 $303 $304 $124 $206 forward $297 $-1 #
edge $-1 $305 -71.097140415662096 $306 71.097140415662096 $205 $307 forward 7 unknown #
coedge $-1 $126 $125 $299 $308 reversed $49 $-1 #
coedge $-1 $309 $310 $125 $209 forward $200 $-1 #
edge $-1 $311 -71.097140415662096 $215 71.097140415662096 $208 $312 forward 7 unknown #
coedge $-1 $204 $203 $126 $211 reversed $77 $-1 #
edge $-1 $313 -71.097140415662096 $216 71.097140415662096 $210 $314 forward 7 unknown #
coedge $-1 $315 $127 $203 $302 forward $214 $-1 #
coedge $-1 $127 $315 $309 $316 forward $214 $-1 #
loop $-1 $-1 $212 $296 #
vertex $-1 $209 $317 #
vertex $-1 $128 $318 #
straight-curve $-1 71.097140415662096 -20.440981441243547 6.9223910961795241 0 1 0 I I #
face $-1 $-1 $230 $29 $-1 $319 forward single #
loop $-1 $-1 $320 $129 #
plane-surface $-1 71.097140415662096 0 0 -1 0 0 0 0 1 forward_v I I I I #
coedge $-1 $321 $322 $323 $324 reversed $130 $-1 #
coedge $-1 $325 $132 $134 $228 forward $81 $-1 #
coedge $-1 $132 $325 $321 $326 forward $81 $-1 #
coedge $-1 $323 $135 $132 $225 forward $230 $-1 #
edge $-1 $232 -25.087675476815061 $327 -15.639671322515863 $224 $328 forward 7 unknown #
coedge $-1 $329 $330 $133 $227 forward $219 $-1 #
edge $-1 $331 -96.70692764019482 $231 -89.954424517345132 $226 $332 forward 7 unknown #
edge $-1 $232 131.22639781639595 $331 142.19428083132419 $134 $333 forward 7 unknown #
coedge $-1 $135 $323 $329 $334 forward $230 $-1 #
loop $-1 $-1 $323 $218 #
vertex $-1 $227 $335 #
vertex $-1 $136 $336 #
straight-curve $-1 23.295030347127131 45.451348876480523 12.932811198514969 -1 0 0 I I #
coedge $-1 $234 $234 $-1 $337 reversed $139 $-1 #
edge $-1 $338 0 $338 6.2831853071796004 $140 $339 forward 7 unknown #
vertex $-1 $143 $340 #
ellipse-curve $-1 66.775735568709635 38.702774480552527 9.5565596370901211 0.61566148304635926 0 0.78801074757464917 0.78801074757464917 0 -0.61566148304635926 1 I I #
coedge $-1 $238 $238 $-1 $341 reversed $146 $-1 #
edge $-1 $342 0 $342 6.2831853071796004 $147 $343 forward 7 unknown #
vertex $-1 $150 $344 #
ellipse-curve $-1 66.775735568709635 42.751919118109321 9.5565596370901211 0.61566148304635926 0 0.78801074757464917 0.78801074757464917 0 -0.61566148304635926 1 I I #
face $-1 $-1 $345 $32 $-1 $346 forward single #
loop $-1 $-1 $347 $151 #
plane-surface $-1 -71.097140415662096 0 0 1 0 0 0 0 -1 forward_v I I I I #
coedge $-1 $246 $154 $156 $252 reversed $95 $-1 #
coedge $-1 $154 $245 $347 $348 reversed $95 $-1 #
coedge $-1 $349 $157 $154 $248 forward $152 $-1 #
edge $-1 $255 -20.100045973547971 $350 -4.2084466863796877 $247 $351 forward 7 unknown #
coedge $-1 $156 $155 $352 $353 reversed $61 $-1 #
coedge $-1 $354 $355 $155 $251 forward $345 $-1 #
edge $-1 $356 -31.627853893098695 $254 -12.459121489139868 $250 $357 forward 7 unknown #
edge $-1 $358 -1.7244626260799089e-014 $255 19.16873240395881 $245 $359 forward 7 unknown #
coedge $-1 $157 $349 $354 $360 forward $152 $-1 #
vertex $-1 $251 $361 #
vertex $-1 $158 $362 #
straight-curve $-1 -55.205541128493806 -14.33936552404635 12.932811198514976 0 1 0 I I #
coedge $-1 $257 $257 $-1 $363 reversed $161 $-1 #
edge $-1 $364 0 $364 6.2831853071796004 $162 $365 forward 7 unknown #
vertex $-1 $165 $366 #
ellipse-curve $-1 -63.151340772077958 -31.818858060693827 7.5733015644473731 -0.55919291073839883 0 0.82903756765294845 0.82903756765294845 0 0.55919291073839883 1 I I #
coedge $-1 $261 $261 $-1 $367 reversed $168 $-1 #
edge $-1 $368 0 $368 6.2831853071796004 $169 $369 forward 7 unknown #
vertex $-1 $172 $370 #
ellipse-curve $-1 -63.151340772077958 -28.6787310480927 7.5733015644473731 -0.55919291073839883 0 0.82903756765294845 0.82903756765294845 0 0.55919291073839883 1 I I #
coedge $-1 $265 $265 $-1 $371 reversed $175 $-1 #
edge $-1 $372 0 $372 6.2831853071796004 $176 $373 forward 7 unknown #
vertex $-1 $179 $374 #
ellipse-curve $-1 -63.151340772077958 -25.538604035491574 7.5733015644473731 -0.55919291073839883 0 0.82903756765294845 0.82903756765294845 0 0.55919291073839883 1 I I #
face $-1 $-1 $195 $27 $-1 $375 reversed single #
loop $-1 $-1 $285 $180 #
plane-surface $-1 0 47.851649695879608 0 0 -1 0 0 0 -1 forward_v I I I I #
coedge $-1 $376 $283 $286 $377 forward $181 $-1 #
coedge $-1 $289 $183 $184 $277 reversed $114 $-1 #
coedge $-1 $283 $376 $183 $275 reversed $181 $-1 #
edge $-1 $290 -12.932811198514976 $378 12.932811198514976 $274 $379 forward 7 unknown #
coedge $-1 $185 $184 $376 $380 forward $73 $-1 #
edge $-1 $281 -71.097140415662096 $378 71.097140415662096 $273 $381 forward 7 unknown #
coedge $-1 $286 $285 $185 $279 reversed $270 $-1 #
edge $-1 $382 -71.097140415662096 $280 71.097140415662096 $278 $383 forward 7 unknown #
vertex $-1 $187 $384 #
vertex $-1 $292 $385 #
straight-curve $-1 71.097140415662096 0 -12.932811198514976 0 -1 0 I I #
coedge $-1 $272 $274 $188 $284 reversed $181 $-1 #
edge $-1 $287 -47.851649695879608 $290 47.851649695879608 $283 $386 forward 7 unknown #
coedge $-1 $278 $189 $194 $293 forward $270 $-1 #
coedge $-1 $189 $278 $272 $377 reversed $270 $-1 #
vertex $-1 $190 $387 #
straight-curve $-1 0 47.851649695879608 12.932811198514976 -1 0 0 I I #
coedge $-1 $191 $273 $193 $292 reversed $114 $-1 #
vertex $-1 $284 $388 #
straight-curve $-1 0 -47.851649695879608 12.932811198514976 1 0 0 I I #
edge $-1 $196 -12.932811198514976 $281 12.932811198514976 $193 $389 forward 7 unknown #
edge $-1 $197 -12.932811198514976 $280 12.932811198514976 $194 $390 forward 7 unknown #
point $-1 71.097140415662096 -47.851649695879608 12.932811198514976 #
point $-1 71.097140415662096 47.851649695879608 12.932811198514976 #
face $-1 $-1 $214 $28 $-1 $391 reversed single #
loop $-1 $-1 $205 $199 #
plane-surface $-1 0 0 12.932811198514976 0 0 1 1 0 0 forward_v I I I I #
coedge $-1 $392 $202 $207 $308 forward $122 $-1 #
coedge $-1 $202 $392 $303 $393 reversed $122 $-1 #
edge $-1 $306 -7.969010624841351 $313 -1.958590522505899 $202 $394 forward 7 unknown #
edge $-1 $216 1.958590522505899 $305 7.969010624841351 $212 $395 forward 7 unknown #
coedge $-1 $396 $205 $300 $393 forward $297 $-1 #
coedge $-1 $205 $396 $315 $397 forward $297 $-1 #
vertex $-1 $302 $398 #
vertex $-1 $393 $399 #
straight-curve $-1 0 -33.912276069094581 12.932811198514976 -1 0 0 I I #
edge $-1 $313 13.471294627851034 $311 27.410668254636061 $299 $400 forward 7 unknown #
coedge $-1 $401 $208 $213 $316 reversed $200 $-1 #
coedge $-1 $208 $401 $392 $402 forward $200 $-1 #
vertex $-1 $209 $403 #
straight-curve $-1 0 -47.851649695879608 6.9223910961795241 1 0 0 I I #
vertex $-1 $308 $404 #
straight-curve $-1 0 -33.912276069094581 6.9223910961795241 1 0 0 I I #
coedge $-1 $213 $212 $304 $397 reversed $214 $-1 #
edge $-1 $405 -12.932811198514976 $215 -6.9223910961795241 $213 $406 forward 7 unknown #
point $-1 71.097140415662096 -47.851649695879608 6.9223910961795241 #
point $-1 71.097140415662096 -33.912276069094581 6.9223910961795241 #
plane-surface $-1 0 0 12.932811198514976 0 0 1 1 0 0 forward_v I I I I #
coedge $-1 $330 $329 $322 $407 forward $219 $-1 #
coedge $-1 $322 $221 $223 $326 reversed $130 $-1 #
coedge $-1 $221 $321 $320 $407 reversed $130 $-1 #
coedge $-1 $229 $224 $221 $324 forward $230 $-1 #
edge $-1 $327 39.159300374630071 $408 47.802110068534965 $323 $409 forward 7 unknown #
coedge $-1 $223 $222 $330 $410 reversed $81 $-1 #
edge $-1 $411 -142.19428083132419 $327 -131.22639781639595 $321 $412 forward 7 unknown #
vertex $-1 $225 $413 #
straight-curve $-1 62.454330721757202 20.363673399665462 12.932811198514976 0 -1 0 I I #
coedge $-1 $320 $226 $229 $334 reversed $219 $-1 #
coedge $-1 $226 $320 $325 $410 forward $219 $-1 #
vertex $-1 $227 $414 #
straight-curve $-1 71.097140415662096 45.451348876480523 102.8872357158601 0 0 1 I I #
straight-curve $-1 -40.953481123069281 45.451348876480523 93.723849892988824 0.78801074757464917 0 -0.61566148304635926 I I #
edge $-1 $408 36.003344722181325 $231 45.451348876480523 $329 $415 forward 7 unknown #
point $-1 71.097140415662096 45.451348876480523 12.932811198514976 #
point $-1 62.454330721757202 45.451348876480523 12.932811198514969 #
edge $-1 $416 1 $416 0 $234 $-1 forward 7 unknown #
vertex $-1 $235 $417 #
ellipse-curve $-1 65.253125637936975 38.702774480552527 7.6077078364612252 0.61566148304635926 0 0.78801074757464917 0.78801074757464917 0 -0.61566148304635926 1 I I #
point $-1 67.563746316284295 38.702774480552527 8.9408981540437562 #
edge $-1 $418 1 $418 0 $238 $-1 forward 7 unknown #
vertex $-1 $239 $419 #
ellipse-curve $-1 65.253125637936975 42.751919118109321 7.6077078364612252 0.61566148304635926 0 0.78801074757464917 0.78801074757464917 0 -0.61566148304635926 1 I I #
point $-1 67.563746316284295 42.751919118109321 8.9408981540437562 #
loop $-1 $-1 $250 $242 #
plane-surface $-1 0 -33.912276069094581 9.9276011473472501 0 -1 0 0 0 -1 forward_v I I I I #
coedge $-1 $352 $420 $246 $348 forward $243 $-1 #
edge $-1 $350 47.116285123955556 $358 57.835304392090755 $347 $421 forward 7 unknown #
coedge $-1 $253 $247 $420 $422 forward $152 $-1 #
vertex $-1 $422 $423 #
straight-curve $-1 -75.305587102041784 -23.44518602709082 12.932811198514976 -1 0 0 I I #
coedge $-1 $424 $347 $249 $353 forward $243 $-1 #
edge $-1 $358 9.1058205030444697 $356 19.572910545048231 $352 $425 forward 7 unknown #
coedge $-1 $355 $250 $253 $360 reversed $345 $-1 #
coedge $-1 $250 $354 $424 $426 reversed $345 $-1 #
vertex $-1 $426 $427 #
straight-curve $-1 -44.876461354044714 -33.912276069094581 19.899863609270433 0.82903756765294845 0 0.55919291073839883 I I #
vertex $-1 $353 $428 #
straight-curve $-1 -71.097140415662082 -23.44518602709082 2.2137919303797844 0.82903756765294845 0 0.55919291073839883 I I #
edge $-1 $429 -71.097140415662096 $254 -55.205541128493813 $253 $430 forward 7 unknown #
point $-1 -55.205541128493813 -33.912276069094581 12.932811198514976 #
point $-1 -55.205541128493813 -23.44518602709082 12.932811198514976 #
edge $-1 $431 1 $431 0 $257 $-1 forward 7 unknown #
vertex $-1 $258 $432 #
ellipse-curve $-1 -61.731471691190656 -31.818858060693827 5.4682591245314578 -0.55919291073839883 0 0.82903756765294845 0.82903756765294845 0 0.55919291073839883 1 I I #
point $-1 -62.322303204425026 -31.818858060693827 8.1324944751857871 #
edge $-1 $433 1 $433 0 $261 $-1 forward 7 unknown #
vertex $-1 $262 $434 #
ellipse-curve $-1 -61.731471691190656 -28.6787310480927 5.4682591245314578 -0.55919291073839883 0 0.82903756765294845 0.82903756765294845 0 0.55919291073839883 1 I I #
point $-1 -62.322303204425026 -28.6787310480927 8.1324944751857871 #
edge $-1 $435 1 $435 0 $265 $-1 forward 7 unknown #
vertex $-1 $266 $436 #
ellipse-curve $-1 -61.731471691190656 -25.538604035491574 5.4682591245314578 -0.55919291073839883 0 0.82903756765294845 0.82903756765294845 0 0.55919291073839883 1 I I #
point $-1 -62.322303204425026 -25.538604035491574 8.1324944751857871 #
plane-surface $-1 71.097140415662096 0 0 -1 0 0 0 0 1 forward_v I I I I #
coedge $-1 $274 $272 $276 $380 reversed $181 $-1 #
edge $-1 $287 -12.932811198514976 $382 12.932811198514976 $286 $437 forward 7 unknown #
vertex $-1 $380 $438 #
straight-curve $-1 -71.097140415662096 -47.851649695879608 0 0 0 -1 I I #
edge $-1 $378 -47.851649695879608 $382 47.851649695879608 $376 $439 forward 7 unknown #
straight-curve $-1 0 -47.851649695879608 -12.932811198514976 -1 0 0 I I #
vertex $-1 $279 $440 #
straight-curve $-1 0 47.851649695879608 -12.932811198514976 1 0 0 I I #
point $-1 71.097140415662096 47.851649695879608 -12.932811198514976 #
point $-1 71.097140415662096 -47.851649695879608 -12.932811198514976 #
straight-curve $-1 -71.097140415662096 0 12.932811198514976 0 -1 0 I I #
point $-1 -71.097140415662096 47.851649695879608 12.932811198514976 #
point $-1 -71.097140415662096 -47.851649695879608 12.932811198514976 #
straight-curve $-1 71.097140415662096 -47.851649695879608 0 0 0 -1 I I #
straight-curve $-1 71.097140415662096 47.851649695879608 0 0 0 -1 I I #
plane-surface $-1 71.097140415662096 0 0 -1 0 0 0 0 1 forward_v I I I I #
coedge $-1 $300 $299 $310 $402 reversed $122 $-1 #
edge $-1 $306 33.912276069094581 $441 47.851649695879608 $300 $442 forward 7 unknown #
straight-curve $-1 -71.097140415662096 -33.912276069094581 4.963800573673625 0 0 -1 I I #
straight-curve $-1 71.097140415662096 -33.912276069094581 4.963800573673625 0 0 1 I I #
coedge $-1 $304 $303 $401 $443 forward $297 $-1 #
edge $-1 $405 -47.851649695879608 $305 -33.912276069094581 $315 $444 forward 7 unknown #
point $-1 71.097140415662096 -33.912276069094581 12.932811198514976 #
point $-1 -71.097140415662096 -33.912276069094581 12.932811198514976 #
straight-curve $-1 -71.097140415662096 -20.440981441243547 6.9223910961795241 0 -1 0 I I #
coedge $-1 $310 $309 $396 $443 reversed $200 $-1 #
edge $-1 $441 -12.932811198514976 $311 -6.9223910961795241 $392 $445 forward 7 unknown #
point $-1 -71.097140415662096 -47.851649695879608 6.9223910961795241 #
point $-1 -71.097140415662096 -33.912276069094581 6.9223910961795241 #
vertex $-1 $397 $446 #
straight-curve $-1 71.097140415662096 -47.851649695879608 0 0 0 -1 I I #
edge $-1 $408 89.954424517345132 $411 96.70692764019482 $320 $447 forward 7 unknown #
vertex $-1 $334 $448 #
straight-curve $-1 23.295030347127131 36.003344722181325 12.932811198514969 1 0 0 I I #
edge $-1 $411 15.639671322515863 $331 25.087675476815061 $330 $449 forward 7 unknown #
vertex $-1 $410 $450 #
straight-curve $-1 -40.953481123069281 36.003344722181325 93.723849892988824 -0.78801074757464917 0 0.61566148304635926 I I #
point $-1 62.454330721757202 36.003344722181325 12.932811198514969 #
point $-1 71.097140415662096 45.451348876480523 6.1803080756652804 #
straight-curve $-1 71.097140415662096 0 12.932811198514976 0 1 0 I I #
vertex $-1 $337 $451 #
point $-1 66.041136385511621 38.702774480552527 6.9920463534148656 #
vertex $-1 $341 $452 #
point $-1 66.041136385511621 42.751919118109321 6.9920463534148656 #
coedge $-1 $347 $424 $349 $422 reversed $243 $-1 #
straight-curve $-1 -71.097140415662096 -23.44518602709082 60.049096322470533 0 0 -1 I I #
edge $-1 $350 23.44518602709082 $429 33.912276069094581 $420 $453 forward 7 unknown #
point $-1 -71.097140415662096 -23.44518602709082 12.932811198514976 #
coedge $-1 $420 $352 $355 $426 forward $243 $-1 #
straight-curve $-1 -71.097140415662096 -14.33936552404635 2.2137919303797831 0 -1 0 I I #
edge $-1 $356 -57.835304392090755 $429 -47.116285123955556 $424 $454 forward 7 unknown #
point $-1 -71.097140415662096 -33.912276069094581 2.2137919303797746 #
point $-1 -71.097140415662096 -23.44518602709082 2.2137919303797746 #
vertex $-1 $426 $455 #
straight-curve $-1 0 -33.912276069094581 12.932811198514976 1 0 0 I I #
vertex $-1 $363 $456 #
point $-1 -60.902434123537702 -31.818858060693827 6.0274520352698566 #
vertex $-1 $367 $457 #
point $-1 -60.902434123537702 -28.6787310480927 6.0274520352698566 #
vertex $-1 $371 $458 #
point $-1 -60.902434123537702 -25.538604035491574 6.0274520352698566 #
straight-curve $-1 -71.097140415662096 47.851649695879608 0 0 0 -1 I I #
point $-1 -71.097140415662096 -47.851649695879608 -12.932811198514976 #
straight-curve $-1 -71.097140415662096 0 -12.932811198514976 0 1 0 I I #
point $-1 -71.097140415662096 47.851649695879608 -12.932811198514976 #
vertex $-1 $393 $459 #
straight-curve $-1 -71.097140415662096 0 12.932811198514976 0 -1 0 I I #
edge $-1 $441 -71.097140415662096 $405 71.097140415662096 $401 $460 forward 7 unknown #
straight-curve $-1 71.097140415662096 0 12.932811198514976 0 1 0 I I #
straight-curve $-1 -71.097140415662096 -47.851649695879608 0 0 0 -1 I I #
point $-1 71.097140415662096 -47.851649695879608 12.932811198514976 #
straight-curve $-1 71.097140415662096 36.003344722181325 102.8872357158601 0 0 -1 I I #
point $-1 71.097140415662096 36.003344722181325 12.932811198514976 #
straight-curve $-1 71.097140415662096 20.363673399665462 6.1803080756652804 0 1 0 I I #
point $-1 71.097140415662096 36.003344722181325 6.1803080756652804 #
point $-1 64.637464154890623 38.702774480552527 6.819697088886576 #
point $-1 64.637464154890623 42.751919118109321 6.819697088886576 #
straight-curve $-1 -71.097140415662096 0 12.932811198514976 0 -1 0 I I #
straight-curve $-1 -71.097140415662096 -33.912276069094581 60.049096322470533 0 0 1 I I #
point $-1 -71.097140415662096 -33.912276069094581 12.932811198514976 #
point $-1 -61.172278780452253 -31.818858060693827 4.6392215568785096 #
point $-1 -61.172278780452253 -28.6787310480927 4.6392215568785096 #
point $-1 -61.172278780452253 -25.538604035491574 4.6392215568785096 #
point $-1 -71.097140415662096 -47.851649695879608 12.932811198514976 #
straight-curve $-1 0 -47.851649695879608 12.932811198514976 1 0 0 I I #
End-of-ACIS-data 