500 0 6 0           
7 Unknown 11 ACIS 5.0 NT 24 Thu Mar 25 22:13:06 1999 
-1 9.9999999999999995e-007 1e-010 
body $-1 $6 $-1 $7 #
body $-1 $8 $-1 $9 #
body $-1 $10 $-1 $11 #
body $-1 $12 $-1 $13 #
body $-1 $14 $-1 $15 #
body $-1 $16 $-1 $17 #
lump $-1 $-1 $18 $0 #
transform $-1 1 0 0 0 1 0 0 0 1 54.482863856929228 35.644399825243788 16.710671614595402 1 rotate no_reflect no_shear #
lump $-1 $-1 $19 $1 #
transform $-1 1 0 0 0 1 0 0 0 1 54.482863856929228 35.644399825243788 16.710671614595402 1 rotate no_reflect no_shear #
lump $-1 $-1 $20 $2 #
transform $-1 1 0 0 0 1 0 0 0 1 54.482863856929228 35.644399825243788 16.710671614595402 1 rotate no_reflect no_shear #
lump $-1 $-1 $21 $3 #
transform $-1 1 0 0 0 1 0 0 0 1 54.482863856929228 35.644399825243788 16.710671614595402 1 rotate no_reflect no_shear #
lump $-1 $-1 $22 $4 #
transform $-1 1 0 0 0 1 0 0 0 1 54.482863856929228 35.644399825243788 16.710671614595402 1 rotate no_reflect no_shear #
lump $-1 $-1 $23 $5 #
transform $-1 1 0 0 0 1 0 0 0 1 54.482863856929228 35.644399825243788 16.710671614595402 1 rotate no_reflect no_shear #
shell $-1 $-1 $-1 $24 $-1 $6 #
shell $-1 $-1 $-1 $25 $-1 $8 #
shell $-1 $-1 $-1 $26 $-1 $10 #
shell $-1 $-1 $-1 $27 $-1 $12 #
shell $-1 $-1 $-1 $28 $-1 $14 #
shell $-1 $-1 $-1 $29 $-1 $16 #
face $-1 $30 $31 $18 $-1 $32 forward single #
face $-1 $33 $34 $19 $-1 $35 reversed single #
face $-1 $36 $37 $20 $-1 $38 reversed single #
face $-1 $39 $40 $21 $-1 $41 forward single #
face $-1 $42 $43 $22 $-1 $44 forward single #
face $-1 $45 $46 $23 $-1 $47 forward single #
face $-1 $48 $49 $18 $-1 $50 reversed single #
loop $-1 $-1 $51 $24 #
plane-surface $-1 0 0 16.710671614595402 0 0 1 1 0 0 forward_v I I I I #
face $-1 $52 $53 $19 $-1 $54 reversed single #
loop $-1 $-1 $55 $25 #
plane-surface $-1 0 -26.437486315722275 9.8629018450767312 0 0 1 1 0 0 forward_v I I I I #
face $-1 $56 $57 $20 $-1 $58 reversed single #
loop $-1 $-1 $59 $26 #
plane-surface $-1 -116.98303844893877 -14.142885001382275 98.240245291786181 0 1 0 -0.57357644374324357 0 0.81915203911291934 forward_v I I I I #
face $-1 $60 $61 $21 $-1 $62 forward single #
loop $-1 $63 $64 $27 #
cone-surface $-1 -48.109605591488808 -11.879010875617599 11.626756095420024 0.57357644374324357 0 -0.81915203911291934 0.81915203911291934 0 0.57357644374324357 1 I I 0 1 1 forward I I I I #
face $-1 $65 $66 $22 $-1 $67 forward single #
loop $-1 $68 $69 $28 #
cone-surface $-1 -48.109605591488808 -8.4831996869705826 11.626756095420024 0.57357644374324357 0 -0.81915203911291934 0.81915203911291934 0 0.57357644374324357 1 I I 0 1 1 forward I I I I #
face $-1 $70 $71 $23 $-1 $72 forward single #
loop $-1 $73 $74 $29 #
cone-surface $-1 -48.109605591488808 -5.0873884983235662 11.626756095420024 0.57357644374324357 0 -0.81915203911291934 0.81915203911291934 0 0.57357644374324357 1 I I 0 1 1 forward I I I I #
face $-1 $75 $76 $18 $-1 $77 reversed single #
loop $-1 $-1 $78 $30 #
plane-surface $-1 0 0 -16.710671614595402 0 0 1 1 0 0 forward_v I I I I #
coedge $-1 $79 $80 $81 $82 forward $31 $-1 #
face $-1 $83 $84 $19 $-1 $85 reversed single #
loop $-1 $-1 $86 $33 #
plane-surface $-1 0 -17.230572806200762 13.286786729836066 0 -1 0 0 0 -1 forward_v I I I I #
coedge $-1 $87 $88 $89 $90 reversed $34 $-1 #
face $-1 $91 $92 $20 $-1 $93 reversed single #
loop $-1 $-1 $94 $36 #
plane-surface $-1 -54.482863856929242 -8.4831996869705826 8.9807472415558749 -0.57357644374324357 0 0.81915203911291934 0.81915203911291934 0 0.57357644374324357 forward_v I I I I #
coedge $-1 $95 $96 $97 $98 reversed $37 $-1 #
face $-1 $-1 $99 $21 $-1 $100 forward single #
loop $-1 $101 $102 $39 #
cone-surface $-1 -46.969297040972556 -11.879010875617599 9.9982267432079546 0.57357644374324357 0 -0.81915203911291934 0.40957601955645967 0 0.28678822187162178 1 I I -0.70710678118654746 0.70710678118654746 0.5 forward I I I I #
loop $-1 $-1 $103 $27 #
coedge $-1 $64 $64 $104 $105 reversed $40 $-1 #
face $-1 $-1 $106 $22 $-1 $107 forward single #
loop $-1 $108 $109 $42 #
cone-surface $-1 -46.969297040972556 -8.4831996869705826 9.9982267432079546 0.57357644374324357 0 -0.81915203911291934 0.40957601955645967 0 0.28678822187162178 1 I I -0.70710678118654746 0.70710678118654746 0.5 forward I I I I #
loop $-1 $-1 $110 $28 #
coedge $-1 $69 $69 $111 $112 reversed $43 $-1 #
face $-1 $-1 $113 $23 $-1 $114 forward single #
loop $-1 $115 $116 $45 #
cone-surface $-1 -46.969297040972556 -5.0873884983235662 9.9982267432079546 0.57357644374324357 0 -0.81915203911291934 0.40957601955645967 0 0.28678822187162178 1 I I -0.70710678118654746 0.70710678118654746 0.5 forward I I I I #
loop $-1 $-1 $117 $29 #
coedge $-1 $74 $74 $118 $119 reversed $46 $-1 #
face $-1 $120 $121 $18 $-1 $122 reversed single #
loop $-1 $-1 $123 $48 #
plane-surface $-1 0 -35.644399825243788 0 0 1 0 0 0 1 forward_v I I I I #
coedge $-1 $124 $125 $126 $127 forward $49 $-1 #
coedge $-1 $128 $51 $129 $130 forward $31 $-1 #
coedge $-1 $51 $128 $131 $132 forward $31 $-1 #
coedge $-1 $133 $134 $51 $82 reversed $135 $-1 #
edge $-1 $136 -35.644399825243788 $137 35.644399825243788 $81 $138 forward 7 unknown #
face $-1 $139 $140 $19 $-1 $141 reversed single #
loop $-1 $-1 $142 $52 #
plane-surface $-1 -54.482863856929228 0 0 1 0 0 0 0 -1 forward_v I I I I #
coedge $-1 $143 $144 $145 $146 reversed $53 $-1 #
coedge $-1 $147 $55 $148 $149 reversed $34 $-1 #
coedge $-1 $55 $147 $143 $150 forward $34 $-1 #
coedge $-1 $145 $151 $55 $90 forward $152 $-1 #
edge $-1 $153 -22.425656667382651 $154 -4.0118296483396243 $89 $155 forward 7 unknown #
face $-1 $156 $157 $20 $-1 $158 forward single #
loop $-1 $-1 $159 $56 #
plane-surface $-1 -116.98303844893877 -2.8235143725588898 98.240245291786181 0 -1 0 0.57357644374324357 0 -0.81915203911291934 forward_v I I I I #
coedge $-1 $160 $161 $162 $163 reversed $57 $-1 #
coedge $-1 $96 $59 $164 $165 reversed $37 $-1 #
coedge $-1 $59 $95 $160 $166 reversed $37 $-1 #
coedge $-1 $162 $167 $59 $98 forward $157 $-1 #
edge $-1 $168 4.0086553675401575 $169 15.048131241131699 $97 $170 forward 7 unknown #
loop $-1 $-1 $104 $60 #
plane-surface $-1 -54.482863856929242 -8.4831996869705826 8.9807472415558749 -0.57357644374324357 0 0.81915203911291934 0.81915203911291934 0 0.57357644374324357 forward_v I I I I #
loop $-1 $-1 $171 $39 #
coedge $-1 $102 $102 $103 $172 reversed $61 $-1 #
coedge $-1 $103 $103 $102 $172 forward $63 $-1 #
coedge $-1 $104 $104 $64 $105 forward $99 $-1 #
edge $-1 $173 0 $173 6.2831853071796004 $104 $174 forward 7 unknown #
loop $-1 $-1 $111 $65 #
plane-surface $-1 -54.482863856929242 -8.4831996869705826 8.9807472415558749 -0.57357644374324357 0 0.81915203911291934 0.81915203911291934 0 0.57357644374324357 forward_v I I I I #
loop $-1 $-1 $175 $42 #
coedge $-1 $109 $109 $110 $176 reversed $66 $-1 #
coedge $-1 $110 $110 $109 $176 forward $68 $-1 #
coedge $-1 $111 $111 $69 $112 forward $106 $-1 #
edge $-1 $177 0 $177 6.2831853071796004 $111 $178 forward 7 unknown #
loop $-1 $-1 $118 $70 #
plane-surface $-1 -54.482863856929242 -8.4831996869705826 8.9807472415558749 -0.57357644374324357 0 0.81915203911291934 0.81915203911291934 0 0.57357644374324357 forward_v I I I I #
loop $-1 $-1 $179 $45 #
coedge $-1 $116 $116 $117 $180 reversed $71 $-1 #
coedge $-1 $117 $117 $116 $180 forward $73 $-1 #
coedge $-1 $118 $118 $74 $119 forward $113 $-1 #
edge $-1 $181 0 $181 6.2831853071796004 $118 $182 forward 7 unknown #
face $-1 $183 $184 $18 $-1 $185 reversed single #
loop $-1 $-1 $186 $75 #
plane-surface $-1 -54.482863856929228 0 0 1 0 0 0 0 -1 forward_v I I I I #
coedge $-1 $187 $131 $188 $189 forward $76 $-1 #
coedge $-1 $190 $78 $187 $191 forward $49 $-1 #
coedge $-1 $78 $190 $192 $193 forward $49 $-1 #
coedge $-1 $134 $133 $78 $127 reversed $135 $-1 #
edge $-1 $194 -35.644399825243788 $195 35.644399825243788 $126 $196 forward 7 unknown #
coedge $-1 $80 $79 $197 $198 forward $31 $-1 #
coedge $-1 $199 $200 $79 $130 reversed $184 $-1 #
edge $-1 $137 -54.482863856929228 $201 54.482863856929228 $129 $202 forward 7 unknown #
coedge $-1 $123 $203 $80 $132 reversed $76 $-1 #
edge $-1 $204 -54.482863856929228 $136 54.482863856929228 $131 $205 forward 7 unknown #
coedge $-1 $126 $81 $203 $206 forward $135 $-1 #
coedge $-1 $81 $126 $199 $207 reversed $135 $-1 #
loop $-1 $-1 $133 $183 #
vertex $-1 $82 $208 #
vertex $-1 $82 $209 #
straight-curve $-1 54.482863856929228 0 16.710671614595402 0 1 0 I I #
face $-1 $210 $211 $19 $-1 $212 forward single #
loop $-1 $-1 $148 $83 #
plane-surface $-1 0 -35.644399825243788 0 0 1 0 0 0 1 forward_v I I I I #
coedge $-1 $213 $214 $215 $216 forward $84 $-1 #
coedge $-1 $215 $86 $88 $150 reversed $53 $-1 #
coedge $-1 $86 $215 $217 $218 reversed $53 $-1 #
coedge $-1 $219 $89 $86 $146 forward $152 $-1 #
edge $-1 $154 3.2195084801586979 $220 10.067278249677369 $145 $221 forward 7 unknown #
coedge $-1 $88 $87 $213 $222 reversed $34 $-1 #
coedge $-1 $223 $224 $87 $149 forward $140 $-1 #
edge $-1 $225 -54.482863856929228 $153 54.482863856929228 $148 $226 forward 7 unknown #
edge $-1 $227 -54.482863856929228 $154 54.482863856929228 $143 $228 forward 7 unknown #
coedge $-1 $89 $219 $223 $229 forward $152 $-1 #
loop $-1 $-1 $145 $210 #
vertex $-1 $149 $230 #
vertex $-1 $90 $231 #
straight-curve $-1 54.482863856929228 -13.218743157861137 9.8629018450767312 0 1 0 I I #
face $-1 $-1 $232 $20 $-1 $233 reversed single #
loop $-1 $-1 $97 $91 #
plane-surface $-1 0 0 16.710671614595402 0 0 1 1 0 0 forward_v I I I I #
coedge $-1 $234 $235 $236 $237 reversed $92 $-1 #
coedge $-1 $238 $94 $96 $166 forward $57 $-1 #
coedge $-1 $94 $238 $234 $239 forward $57 $-1 #
coedge $-1 $236 $97 $94 $163 forward $157 $-1 #
edge $-1 $169 -9.901285157896984 $240 1.4180854709264015 $162 $241 forward 7 unknown #
coedge $-1 $242 $243 $95 $165 forward $232 $-1 #
edge $-1 $244 -40.139375404337201 $168 -32.409451031297692 $164 $245 forward 7 unknown #
edge $-1 $169 -13.476711704882634 $244 -1.7754109250068268e-014 $96 $246 forward 7 unknown #
coedge $-1 $97 $236 $242 $247 forward $157 $-1 #
vertex $-1 $165 $248 #
vertex $-1 $98 $249 #
straight-curve $-1 -58.491519224469386 -14.142885001382275 16.710671614595405 1 0 0 I I #
coedge $-1 $171 $171 $-1 $250 reversed $101 $-1 #
edge $-1 $251 0 $251 6.2831853071796004 $102 $252 forward 7 unknown #
vertex $-1 $105 $253 #
ellipse-curve $-1 -48.96312592013345 -11.879010875617599 12.845709428075647 -0.57357644374324357 0 0.81915203911291934 0.81915203911291934 0 0.57357644374324357 1 I I #
coedge $-1 $175 $175 $-1 $254 reversed $108 $-1 #
edge $-1 $255 0 $255 6.2831853071796004 $109 $256 forward 7 unknown #
vertex $-1 $112 $257 #
ellipse-curve $-1 -48.96312592013345 -8.4831996869705826 12.845709428075647 -0.57357644374324357 0 0.81915203911291934 0.81915203911291934 0 0.57357644374324357 1 I I #
coedge $-1 $179 $179 $-1 $258 reversed $115 $-1 #
edge $-1 $259 0 $259 6.2831853071796004 $116 $260 forward 7 unknown #
vertex $-1 $119 $261 #
ellipse-curve $-1 -48.96312592013345 -5.0873884983235662 12.845709428075647 -0.57357644374324357 0 0.81915203911291934 0.81915203911291934 0 0.57357644374324357 1 I I #
face $-1 $-1 $135 $18 $-1 $262 reversed single #
loop $-1 $-1 $199 $120 #
plane-surface $-1 0 35.644399825243788 0 0 -1 0 0 0 -1 forward_v I I I I #
coedge $-1 $263 $197 $200 $264 forward $121 $-1 #
coedge $-1 $203 $123 $124 $191 reversed $76 $-1 #
coedge $-1 $197 $263 $123 $189 reversed $121 $-1 #
edge $-1 $204 -16.710671614595402 $265 16.710671614595402 $188 $266 forward 7 unknown #
coedge $-1 $125 $124 $263 $267 forward $49 $-1 #
edge $-1 $195 -54.482863856929228 $265 54.482863856929228 $187 $268 forward 7 unknown #
coedge $-1 $200 $199 $125 $193 reversed $184 $-1 #
edge $-1 $269 -54.482863856929228 $194 54.482863856929228 $192 $270 forward 7 unknown #
vertex $-1 $127 $271 #
vertex $-1 $206 $272 #
straight-curve $-1 54.482863856929228 0 -16.710671614595402 0 -1 0 I I #
coedge $-1 $186 $188 $128 $198 reversed $121 $-1 #
edge $-1 $201 -35.644399825243788 $204 35.644399825243788 $197 $273 forward 7 unknown #
coedge $-1 $192 $129 $134 $207 forward $184 $-1 #
coedge $-1 $129 $192 $186 $264 reversed $184 $-1 #
vertex $-1 $130 $274 #
straight-curve $-1 0 35.644399825243788 16.710671614595402 -1 0 0 I I #
coedge $-1 $131 $187 $133 $206 reversed $76 $-1 #
vertex $-1 $198 $275 #
straight-curve $-1 0 -35.644399825243788 16.710671614595402 1 0 0 I I #
edge $-1 $136 -16.710671614595402 $195 16.710671614595402 $133 $276 forward 7 unknown #
edge $-1 $137 -16.710671614595402 $194 16.710671614595402 $134 $277 forward 7 unknown #
point $-1 54.482863856929228 -35.644399825243788 16.710671614595402 #
point $-1 54.482863856929228 35.644399825243788 16.710671614595402 #
face $-1 $-1 $152 $19 $-1 $278 reversed single #
loop $-1 $-1 $217 $139 #
plane-surface $-1 0 0 16.710671614595402 0 0 1 1 0 0 forward_v I I I I #
coedge $-1 $279 $142 $147 $222 forward $84 $-1 #
coedge $-1 $142 $279 $280 $281 reversed $84 $-1 #
coedge $-1 $144 $143 $142 $216 reversed $53 $-1 #
edge $-1 $282 -10.067278249677369 $227 -3.2195084801586979 $142 $283 forward 7 unknown #
coedge $-1 $280 $284 $144 $218 forward $211 $-1 #
edge $-1 $220 -54.482863856929228 $282 54.482863856929228 $217 $285 forward 7 unknown #
coedge $-1 $151 $145 $284 $286 reversed $152 $-1 #
vertex $-1 $146 $287 #
straight-curve $-1 54.482863856929228 -17.230572806200762 6.6433933649180332 0 0 1 I I #
edge $-1 $227 4.0118296483396243 $225 22.425656667382651 $213 $288 forward 7 unknown #
coedge $-1 $289 $148 $151 $229 reversed $140 $-1 #
coedge $-1 $148 $289 $279 $290 forward $140 $-1 #
vertex $-1 $149 $291 #
straight-curve $-1 0 -35.644399825243788 9.8629018450767312 1 0 0 I I #
vertex $-1 $222 $292 #
straight-curve $-1 0 -17.230572806200762 9.8629018450767312 1 0 0 I I #
edge $-1 $293 -16.710671614595402 $153 -9.8629018450767312 $151 $294 forward 7 unknown #
point $-1 54.482863856929228 -35.644399825243788 9.8629018450767312 #
point $-1 54.482863856929228 -17.230572806200762 9.8629018450767312 #
loop $-1 $-1 $164 $156 #
plane-surface $-1 -54.482863856929228 0 0 1 0 0 0 0 -1 forward_v I I I I #
coedge $-1 $235 $159 $161 $239 reversed $92 $-1 #
coedge $-1 $159 $234 $295 $296 reversed $92 $-1 #
coedge $-1 $167 $162 $159 $237 forward $157 $-1 #
edge $-1 $240 -15.048131241131699 $297 -4.0086553675401575 $236 $298 forward 7 unknown #
coedge $-1 $161 $160 $243 $299 reversed $57 $-1 #
edge $-1 $300 1.7754109250068268e-014 $240 13.476711704882634 $234 $301 forward 7 unknown #
vertex $-1 $163 $302 #
straight-curve $-1 -43.443387983337686 -4.2415998434852913 16.710671614595402 0 1 0 I I #
coedge $-1 $295 $164 $167 $247 reversed $232 $-1 #
coedge $-1 $164 $295 $238 $299 forward $232 $-1 #
vertex $-1 $165 $303 #
straight-curve $-1 -54.482863856929228 -14.142885001382275 49.12012264589309 0 0 1 I I #
straight-curve $-1 -54.482863856929242 -14.142885001382275 8.9807472415558749 -0.81915203911291934 0 -0.57357644374324357 I I #
edge $-1 $297 2.8235143725588898 $168 14.142885001382275 $242 $304 forward 7 unknown #
point $-1 -54.482863856929228 -14.142885001382275 16.710671614595402 #
point $-1 -43.443387983337686 -14.142885001382275 16.710671614595402 #
edge $-1 $305 1 $305 0 $171 $-1 forward 7 unknown #
vertex $-1 $172 $306 #
ellipse-curve $-1 -47.256085262844181 -11.879010875617599 10.407802762764414 -0.57357644374324357 0 0.81915203911291934 0.81915203911291934 0 0.57357644374324357 1 I I #
point $-1 -48.143973881020521 -11.879010875617599 13.419285871818879 #
edge $-1 $307 1 $307 0 $175 $-1 forward 7 unknown #
vertex $-1 $176 $308 #
ellipse-curve $-1 -47.256085262844181 -8.4831996869705826 10.407802762764414 -0.57357644374324357 0 0.81915203911291934 0.81915203911291934 0 0.57357644374324357 1 I I #
point $-1 -48.143973881020521 -8.4831996869705826 13.419285871818879 #
edge $-1 $309 1 $309 0 $179 $-1 forward 7 unknown #
vertex $-1 $180 $310 #
ellipse-curve $-1 -47.256085262844181 -5.0873884983235662 10.407802762764414 -0.57357644374324357 0 0.81915203911291934 0.81915203911291934 0 0.57357644374324357 1 I I #
point $-1 -48.143973881020521 -5.0873884983235662 13.419285871818879 #
plane-surface $-1 54.482863856929228 0 0 -1 0 0 0 0 1 forward_v I I I I #
coedge $-1 $188 $186 $190 $267 reversed $121 $-1 #
edge $-1 $201 -16.710671614595402 $269 16.710671614595402 $200 $311 forward 7 unknown #
vertex $-1 $267 $312 #
straight-curve $-1 -54.482863856929228 -35.644399825243788 0 0 0 -1 I I #
edge $-1 $265 -35.644399825243788 $269 35.644399825243788 $263 $313 forward 7 unknown #
straight-curve $-1 0 -35.644399825243788 -16.710671614595402 -1 0 0 I I #
vertex $-1 $193 $314 #
straight-curve $-1 0 35.644399825243788 -16.710671614595402 1 0 0 I I #
point $-1 54.482863856929228 35.644399825243788 -16.710671614595402 #
point $-1 54.482863856929228 -35.644399825243788 -16.710671614595402 #
straight-curve $-1 -54.482863856929228 0 16.710671614595402 0 -1 0 I I #
point $-1 -54.482863856929228 35.644399825243788 16.710671614595402 #
point $-1 -54.482863856929228 -35.644399825243788 16.710671614595402 #
straight-curve $-1 54.482863856929228 -35.644399825243788 0 0 0 -1 I I #
straight-curve $-1 54.482863856929228 35.644399825243788 0 0 0 -1 I I #
plane-surface $-1 54.482863856929228 0 0 -1 0 0 0 0 1 forward_v I I I I #
coedge $-1 $214 $213 $224 $290 reversed $84 $-1 #
coedge $-1 $315 $217 $214 $281 forward $211 $-1 #
edge $-1 $282 17.230572806200762 $316 35.644399825243788 $214 $317 forward 7 unknown #
vertex $-1 $281 $318 #
straight-curve $-1 -54.482863856929228 -17.230572806200762 6.6433933649180332 0 0 -1 I I #
coedge $-1 $217 $315 $219 $286 forward $211 $-1 #
straight-curve $-1 0 -17.230572806200762 16.710671614595402 -1 0 0 I I #
edge $-1 $293 -35.644399825243788 $220 -17.230572806200762 $219 $319 forward 7 unknown #
point $-1 54.482863856929228 -17.230572806200762 16.710671614595402 #
straight-curve $-1 -54.482863856929228 -13.218743157861137 9.8629018450767312 0 -1 0 I I #
coedge $-1 $224 $223 $315 $320 reversed $140 $-1 #
edge $-1 $316 -16.710671614595402 $225 -9.8629018450767312 $279 $321 forward 7 unknown #
point $-1 -54.482863856929228 -35.644399825243788 9.8629018450767312 #
point $-1 -54.482863856929228 -17.230572806200762 9.8629018450767312 #
vertex $-1 $286 $322 #
straight-curve $-1 54.482863856929228 -35.644399825243788 0 0 0 -1 I I #
coedge $-1 $243 $242 $235 $296 forward $232 $-1 #
edge $-1 $297 32.409451031297692 $300 40.139375404337201 $295 $323 forward 7 unknown #
vertex $-1 $247 $324 #
straight-curve $-1 -58.491519224469386 -2.8235143725588898 16.710671614595405 -1 0 0 I I #
edge $-1 $300 -1.4180854709264015 $244 9.901285157896984 $243 $325 forward 7 unknown #
vertex $-1 $299 $326 #
straight-curve $-1 -54.482863856929242 -2.8235143725588898 8.9807472415558749 0.81915203911291934 0 0.57357644374324357 I I #
point $-1 -43.443387983337686 -2.8235143725588898 16.710671614595402 #
point $-1 -54.482863856929228 -14.142885001382275 8.9807472415558856 #
straight-curve $-1 -54.482863856929228 0 16.710671614595402 0 -1 0 I I #
vertex $-1 $250 $327 #
point $-1 -46.436933223731259 -11.879010875617599 10.981379206507658 #
vertex $-1 $254 $328 #
point $-1 -46.436933223731259 -8.4831996869705826 10.981379206507658 #
vertex $-1 $258 $329 #
point $-1 -46.436933223731259 -5.0873884983235662 10.981379206507658 #
straight-curve $-1 -54.482863856929228 35.644399825243788 0 0 0 -1 I I #
point $-1 -54.482863856929228 -35.644399825243788 -16.710671614595402 #
straight-curve $-1 -54.482863856929228 0 -16.710671614595402 0 1 0 I I #
point $-1 -54.482863856929228 35.644399825243788 -16.710671614595402 #
coedge $-1 $284 $280 $289 $320 forward $211 $-1 #
vertex $-1 $281 $330 #
straight-curve $-1 -54.482863856929228 0 16.710671614595402 0 -1 0 I I #
point $-1 -54.482863856929228 -17.230572806200762 16.710671614595402 #
straight-curve $-1 54.482863856929228 0 16.710671614595402 0 1 0 I I #
edge $-1 $316 -54.482863856929228 $293 54.482863856929228 $289 $331 forward 7 unknown #
straight-curve $-1 -54.482863856929228 -35.644399825243788 0 0 0 -1 I I #
point $-1 54.482863856929228 -35.644399825243788 16.710671614595402 #
straight-curve $-1 -54.482863856929228 -2.8235143725588898 49.12012264589309 0 0 -1 I I #
point $-1 -54.482863856929228 -2.8235143725588898 16.710671614595402 #
straight-curve $-1 -54.482863856929228 -4.2415998434852913 8.9807472415558838 0 -1 0 I I #
point $-1 -54.482863856929228 -2.8235143725588898 8.9807472415558856 #
point $-1 -46.682508819100931 -11.879010875617599 9.5886507236514955 #
point $-1 -46.682508819100931 -8.4831996869705826 9.5886507236514955 #
point $-1 -46.682508819100931 -5.0873884983235662 9.5886507236514955 #
point $-1 -54.482863856929228 -35.644399825243788 16.710671614595402 #
straight-curve $-1 0 -35.644399825243788 16.710671614595402 1 0 0 I I #
End-of-ACIS-data 