500 0 12 0           
7 Unknown 11 ACIS 5.0 NT 24 Thu Mar 25 18:04:27 1999 
-1 9.9999999999999995e-007 1e-010 
body $-1 $12 $-1 $13 #
body $-1 $14 $-1 $15 #
body $-1 $16 $-1 $17 #
body $-1 $18 $-1 $19 #
body $-1 $20 $-1 $21 #
body $-1 $22 $-1 $23 #
body $-1 $24 $-1 $25 #
body $-1 $26 $-1 $27 #
body $-1 $28 $-1 $29 #
body $-1 $30 $-1 $31 #
body $-1 $32 $-1 $33 #
body $-1 $34 $-1 $35 #
lump $-1 $-1 $36 $0 #
transform $-1 1 0 0 0 1 0 0 0 1 52.473525193029573 28.312034708629017 12.714537587951835 1 rotate no_reflect no_shear #
lump $-1 $-1 $37 $1 #
transform $-1 1 0 0 0 1 0 0 0 1 52.473525193029573 28.312034708629017 12.714537587951835 1 rotate no_reflect no_shear #
lump $-1 $-1 $38 $2 #
transform $-1 1 0 0 0 1 0 0 0 1 52.473525193029573 28.312034708629017 12.714537587951835 1 rotate no_reflect no_shear #
lump $-1 $-1 $39 $3 #
transform $-1 1 0 0 0 1 0 0 0 1 52.473525193029573 28.312034708629017 12.714537587951835 1 rotate no_reflect no_shear #
lump $-1 $-1 $40 $4 #
transform $-1 1 0 0 0 1 0 0 0 1 52.473525193029573 28.312034708629017 12.714537587951835 1 rotate no_reflect no_shear #
lump $-1 $-1 $41 $5 #
transform $-1 1 0 0 0 1 0 0 0 1 52.473525193029573 28.312034708629017 12.714537587951835 1 rotate no_reflect no_shear #
lump $-1 $-1 $42 $6 #
transform $-1 1 0 0 0 1 0 0 0 1 52.473525193029573 28.312034708629017 12.714537587951835 1 rotate no_reflect no_shear #
lump $-1 $-1 $43 $7 #
transform $-1 1 0 0 0 1 0 0 0 1 52.473525193029573 28.312034708629017 12.714537587951835 1 rotate no_reflect no_shear #
lump $-1 $-1 $44 $8 #
transform $-1 1 0 0 0 1 0 0 0 1 52.473525193029573 28.312034708629017 12.714537587951835 1 rotate no_reflect no_shear #
lump $-1 $-1 $45 $9 #
transform $-1 1 0 0 0 1 0 0 0 1 52.473525193029573 28.312034708629017 12.714537587951835 1 rotate no_reflect no_shear #
lump $-1 $-1 $46 $10 #
transform $-1 1 0 0 0 1 0 0 0 1 52.473525193029573 28.312034708629017 12.714537587951835 1 rotate no_reflect no_shear #
lump $-1 $-1 $47 $11 #
transform $-1 1 0 0 0 1 0 0 0 1 52.473525193029573 28.312034708629017 12.714537587951835 1 rotate no_reflect no_shear #
shell $-1 $-1 $-1 $48 $-1 $12 #
shell $-1 $-1 $-1 $49 $-1 $14 #
shell $-1 $-1 $-1 $50 $-1 $16 #
shell $-1 $-1 $-1 $51 $-1 $18 #
shell $-1 $-1 $-1 $52 $-1 $20 #
shell $-1 $-1 $-1 $53 $-1 $22 #
shell $-1 $-1 $-1 $54 $-1 $24 #
shell $-1 $-1 $-1 $55 $-1 $26 #
shell $-1 $-1 $-1 $56 $-1 $28 #
shell $-1 $-1 $-1 $57 $-1 $30 #
shell $-1 $-1 $-1 $58 $-1 $32 #
shell $-1 $-1 $-1 $59 $-1 $34 #
face $-1 $60 $61 $36 $-1 $62 forward single #
face $-1 $63 $64 $37 $-1 $65 reversed single #
face $-1 $66 $67 $38 $-1 $68 reversed single #
face $-1 $69 $70 $39 $-1 $71 forward single #
face $-1 $72 $73 $40 $-1 $74 forward single #
face $-1 $75 $76 $41 $-1 $77 reversed single #
face $-1 $78 $79 $42 $-1 $80 forward single #
face $-1 $81 $82 $43 $-1 $83 forward single #
face $-1 $84 $85 $44 $-1 $86 reversed single #
face $-1 $87 $88 $45 $-1 $89 forward single #
face $-1 $90 $91 $46 $-1 $92 forward single #
face $-1 $93 $94 $47 $-1 $95 forward single #
face $-1 $96 $97 $36 $-1 $98 reversed single #
loop $-1 $-1 $99 $48 #
plane-surface $-1 0 0 12.714537587951835 0 0 1 1 0 0 forward_v I I I I #
face $-1 $100 $101 $37 $-1 $102 reversed single #
loop $-1 $-1 $103 $49 #
plane-surface $-1 0 -20.049641828760386 9.7145375879518348 0 0 1 1 0 0 forward_v I I I I #
face $-1 $104 $105 $38 $-1 $106 reversed single #
loop $-1 $-1 $107 $50 #
plane-surface $-1 -104.94705108907176 -3.1602607812083718 92.639560883031109 0 1 0 -0.50000000669873634 0 0.8660253999169214 forward_v I I I I #
face $-1 $108 $109 $39 $-1 $110 forward single #
loop $-1 $111 $112 $51 #
cone-surface $-1 -42.694086317893984 -1.2764675483263659 6.7378402874478276 0.50000000669873634 0 -0.8660253999169214 0.4330126999584607 0 0.25000000334936817 1 I I 0 1 0.5 forward I I I I #
face $-1 $113 $114 $40 $-1 $115 forward single #
loop $-1 $116 $117 $52 #
cone-surface $-1 -42.694086317893984 1.549222300996643 6.7378402874478276 0.50000000669873634 0 -0.8660253999169214 0.4330126999584607 0 0.25000000334936817 1 I I 0 1 0.5 forward I I I I #
face $-1 $118 $119 $41 $-1 $120 reversed single #
loop $-1 $-1 $121 $53 #
plane-surface $-1 -104.94705108907176 13.09177022585861 92.639560883031109 0 1 0 -0.50000000669873634 0 0.8660253999169214 forward_v I I I I #
face $-1 $122 $123 $42 $-1 $124 forward single #
loop $-1 $125 $126 $54 #
cone-surface $-1 -42.694086317893984 14.97556345874062 6.7378402874478276 0.50000000669873634 0 -0.8660253999169214 0.4330126999584607 0 0.25000000334936817 1 I I 0 1 0.5 forward I I I I #
face $-1 $127 $128 $43 $-1 $129 forward single #
loop $-1 $130 $131 $55 #
cone-surface $-1 -42.694086317893984 17.801253308063625 6.7378402874478276 0.50000000669873634 0 -0.8660253999169214 0.4330126999584607 0 0.25000000334936817 1 I I 0 1 0.5 forward I I I I #
face $-1 $132 $133 $44 $-1 $134 reversed single #
loop $-1 $-1 $135 $56 #
plane-surface $-1 93.38294626705958 -4.5883582994998591 149.59015392115953 0 -1 0 -0.87461971476443456 0 -0.48480960649040278 forward_v I I I I #
face $-1 $136 $137 $45 $-1 $138 forward single #
loop $-1 $139 $140 $57 #
cone-surface $-1 50.430803031835126 -10.347470819013378 9.5758922143016818 -0.87461971476443456 0 -0.48480960649040278 0.12120240162260069 0 -0.21865492869110864 1 I I 0 1 0.25 forward I I I I #
face $-1 $141 $142 $46 $-1 $143 forward single #
loop $-1 $144 $145 $58 #
cone-surface $-1 50.430803031835126 -8.1878036241958085 9.5758922143016818 -0.87461971476443456 0 -0.48480960649040278 0.12120240162260069 0 -0.21865492869110864 1 I I 0 1 0.25 forward I I I I #
face $-1 $146 $147 $47 $-1 $148 forward single #
loop $-1 $149 $150 $59 #
cone-surface $-1 50.430803031835126 -6.0281364293782396 9.5758922143016818 -0.87461971476443456 0 -0.48480960649040278 0.12120240162260069 0 -0.21865492869110864 1 I I 0 1 0.25 forward I I I I #
face $-1 $151 $152 $36 $-1 $153 reversed single #
loop $-1 $-1 $154 $60 #
plane-surface $-1 0 0 -12.714537587951835 0 0 1 1 0 0 forward_v I I I I #
coedge $-1 $155 $156 $157 $158 forward $61 $-1 #
face $-1 $159 $160 $37 $-1 $161 reversed single #
loop $-1 $-1 $162 $63 #
plane-surface $-1 0 -11.787248948891756 11.214537587951835 0 -1 0 0 0 -1 forward_v I I I I #
coedge $-1 $163 $164 $165 $166 reversed $64 $-1 #
face $-1 $167 $168 $38 $-1 $169 reversed single #
loop $-1 $-1 $170 $66 #
plane-surface $-1 -52.473525193029573 0.1363773763351368 1.7527496023429308 -0.50000000669873634 0 0.8660253999169214 0.8660253999169214 0 0.50000000669873634 forward_v I I I I #
coedge $-1 $171 $172 $173 $174 reversed $67 $-1 #
face $-1 $-1 $175 $39 $-1 $176 forward single #
loop $-1 $177 $178 $69 #
cone-surface $-1 -42.282834137940441 -1.2764675483263659 6.0255306297690368 0.50000000669873634 0 -0.8660253999169214 0.21650634997923035 0 0.12500000167468409 1 I I -0.70710678118654746 0.70710678118654746 0.25 forward I I I I #
loop $-1 $-1 $179 $51 #
coedge $-1 $112 $112 $180 $181 reversed $70 $-1 #
face $-1 $-1 $182 $40 $-1 $183 forward single #
loop $-1 $184 $185 $72 #
cone-surface $-1 -42.282834137940441 1.549222300996643 6.0255306297690368 0.50000000669873634 0 -0.8660253999169214 0.21650634997923035 0 0.12500000167468409 1 I I -0.70710678118654746 0.70710678118654746 0.25 forward I I I I #
loop $-1 $-1 $186 $52 #
coedge $-1 $117 $117 $187 $188 reversed $73 $-1 #
face $-1 $189 $190 $41 $-1 $191 reversed single #
loop $-1 $-1 $192 $75 #
plane-surface $-1 -52.473525193029573 16.388408383402119 1.7527496023429308 -0.50000000669873634 0 0.8660253999169214 0.8660253999169214 0 0.50000000669873634 forward_v I I I I #
coedge $-1 $193 $194 $195 $196 reversed $76 $-1 #
face $-1 $-1 $197 $42 $-1 $198 forward single #
loop $-1 $199 $200 $78 #
cone-surface $-1 -42.282834137940441 14.97556345874062 6.0255306297690368 0.50000000669873634 0 -0.8660253999169214 0.21650634997923035 0 0.12500000167468409 1 I I -0.70710678118654746 0.70710678118654746 0.25 forward I I I I #
loop $-1 $-1 $201 $54 #
coedge $-1 $126 $126 $202 $203 reversed $79 $-1 #
face $-1 $-1 $204 $43 $-1 $205 forward single #
loop $-1 $206 $207 $81 #
cone-surface $-1 -42.282834137940441 17.801253308063625 6.0255306297690368 0.50000000669873634 0 -0.8660253999169214 0.21650634997923035 0 0.12500000167468409 1 I I -0.70710678118654746 0.70710678118654746 0.25 forward I I I I #
loop $-1 $-1 $208 $55 #
coedge $-1 $131 $131 $209 $210 reversed $82 $-1 #
face $-1 $211 $212 $44 $-1 $213 forward single #
loop $-1 $-1 $214 $84 #
plane-surface $-1 1.594186993035791 -8.1878036241958085 98.710815721165716 0.87461971476443456 0 0.48480960649040278 0.48480960649040278 0 -0.87461971476443456 forward_v I I I I #
coedge $-1 $215 $216 $217 $218 reversed $85 $-1 #
face $-1 $-1 $219 $45 $-1 $220 forward single #
loop $-1 $221 $222 $87 #
cone-surface $-1 49.884165710107354 -10.347470819013378 9.2728862102451792 -0.87461971476443456 0 -0.48480960649040278 0.060601200811300347 0 -0.10932746434555432 1 I I -0.70710678118654746 0.70710678118654746 0.125 forward I I I I #
loop $-1 $-1 $223 $57 #
coedge $-1 $140 $140 $224 $225 reversed $88 $-1 #
face $-1 $-1 $226 $46 $-1 $227 forward single #
loop $-1 $228 $229 $90 #
cone-surface $-1 49.884165710107354 -8.1878036241958085 9.2728862102451792 -0.87461971476443456 0 -0.48480960649040278 0.060601200811300347 0 -0.10932746434555432 1 I I -0.70710678118654746 0.70710678118654746 0.125 forward I I I I #
loop $-1 $-1 $230 $58 #
coedge $-1 $145 $145 $231 $232 reversed $91 $-1 #
face $-1 $-1 $233 $47 $-1 $234 forward single #
loop $-1 $235 $236 $93 #
cone-surface $-1 49.884165710107354 -6.0281364293782396 9.2728862102451792 -0.87461971476443456 0 -0.48480960649040278 0.060601200811300347 0 -0.10932746434555432 1 I I -0.70710678118654746 0.70710678118654746 0.125 forward I I I I #
loop $-1 $-1 $237 $59 #
coedge $-1 $150 $150 $238 $239 reversed $94 $-1 #
face $-1 $240 $241 $36 $-1 $242 reversed single #
loop $-1 $-1 $243 $96 #
plane-surface $-1 0 -28.312034708629017 0 0 1 0 0 0 1 forward_v I I I I #
coedge $-1 $244 $245 $246 $247 forward $97 $-1 #
coedge $-1 $248 $99 $249 $250 forward $61 $-1 #
coedge $-1 $99 $248 $251 $252 forward $61 $-1 #
coedge $-1 $253 $254 $99 $158 reversed $255 $-1 #
edge $-1 $256 -28.312034708629017 $257 28.312034708629017 $157 $258 forward 7 unknown #
face $-1 $259 $260 $37 $-1 $261 reversed single #
loop $-1 $-1 $262 $100 #
plane-surface $-1 -52.473525193029573 0 0 1 0 0 0 0 -1 forward_v I I I I #
coedge $-1 $263 $264 $265 $266 reversed $101 $-1 #
coedge $-1 $267 $103 $268 $269 reversed $64 $-1 #
coedge $-1 $103 $267 $263 $270 forward $64 $-1 #
coedge $-1 $265 $271 $103 $166 forward $272 $-1 #
edge $-1 $273 -18.287213794248821 $274 -1.7624280345115633 $165 $275 forward 7 unknown #
face $-1 $276 $277 $38 $-1 $278 forward single #
loop $-1 $-1 $279 $104 #
plane-surface $-1 -104.94705108907176 3.4330155338786454 92.639560883031109 0 -1 0 0.50000000669873634 0 -0.8660253999169214 forward_v I I I I #
coedge $-1 $280 $281 $282 $283 reversed $105 $-1 #
coedge $-1 $172 $107 $284 $285 reversed $67 $-1 #
coedge $-1 $107 $171 $280 $286 reversed $67 $-1 #
coedge $-1 $282 $287 $107 $174 forward $277 $-1 #
edge $-1 $288 3.5150630850466769e-007 $289 18.986373745219801 $173 $290 forward 7 unknown #
loop $-1 $-1 $180 $108 #
plane-surface $-1 -52.473525193029573 0.1363773763351368 1.7527496023429308 -0.50000000669873634 0 0.8660253999169214 0.8660253999169214 0 0.50000000669873634 forward_v I I I I #
loop $-1 $-1 $291 $69 #
coedge $-1 $178 $178 $179 $292 reversed $109 $-1 #
coedge $-1 $179 $179 $178 $292 forward $111 $-1 #
coedge $-1 $180 $180 $112 $181 forward $175 $-1 #
edge $-1 $293 0 $293 6.2831853071796004 $180 $294 forward 7 unknown #
loop $-1 $-1 $187 $113 #
plane-surface $-1 -52.473525193029573 0.1363773763351368 1.7527496023429308 -0.50000000669873634 0 0.8660253999169214 0.8660253999169214 0 0.50000000669873634 forward_v I I I I #
loop $-1 $-1 $295 $72 #
coedge $-1 $185 $185 $186 $296 reversed $114 $-1 #
coedge $-1 $186 $186 $185 $296 forward $116 $-1 #
coedge $-1 $187 $187 $117 $188 forward $182 $-1 #
edge $-1 $297 0 $297 6.2831853071796004 $187 $298 forward 7 unknown #
face $-1 $299 $300 $41 $-1 $301 forward single #
loop $-1 $-1 $302 $118 #
plane-surface $-1 -104.94705108907176 19.685046540945628 92.639560883031109 0 -1 0 0.50000000669873634 0 -0.8660253999169214 forward_v I I I I #
coedge $-1 $303 $304 $305 $306 reversed $119 $-1 #
coedge $-1 $194 $121 $307 $308 reversed $76 $-1 #
coedge $-1 $121 $193 $303 $309 reversed $76 $-1 #
coedge $-1 $305 $310 $121 $196 forward $300 $-1 #
edge $-1 $311 3.5150630850466769e-007 $312 18.986373745219801 $195 $313 forward 7 unknown #
loop $-1 $-1 $202 $122 #
plane-surface $-1 -52.473525193029573 16.388408383402119 1.7527496023429308 -0.50000000669873634 0 0.8660253999169214 0.8660253999169214 0 0.50000000669873634 forward_v I I I I #
loop $-1 $-1 $314 $78 #
coedge $-1 $200 $200 $201 $315 reversed $123 $-1 #
coedge $-1 $201 $201 $200 $315 forward $125 $-1 #
coedge $-1 $202 $202 $126 $203 forward $197 $-1 #
edge $-1 $316 0 $316 6.2831853071796004 $202 $317 forward 7 unknown #
loop $-1 $-1 $209 $127 #
plane-surface $-1 -52.473525193029573 16.388408383402119 1.7527496023429308 -0.50000000669873634 0 0.8660253999169214 0.8660253999169214 0 0.50000000669873634 forward_v I I I I #
loop $-1 $-1 $318 $81 #
coedge $-1 $207 $207 $208 $319 reversed $128 $-1 #
coedge $-1 $208 $208 $207 $319 forward $130 $-1 #
coedge $-1 $209 $209 $131 $210 forward $204 $-1 #
edge $-1 $320 0 $320 6.2831853071796004 $209 $321 forward 7 unknown #
face $-1 $322 $323 $44 $-1 $324 forward single #
loop $-1 $-1 $325 $132 #
plane-surface $-1 0 -11.787248948891756 11.214537587951835 0 -1 0 0 0 -1 forward_v I I I I #
coedge $-1 $326 $327 $328 $329 reversed $133 $-1 #
coedge $-1 $216 $135 $330 $331 reversed $85 $-1 #
coedge $-1 $135 $215 $326 $332 reversed $85 $-1 #
coedge $-1 $328 $333 $135 $218 forward $323 $-1 #
edge $-1 $334 -5.7820520594997831 $335 -2.5712274518753446 $217 $336 forward 7 unknown #
loop $-1 $-1 $224 $136 #
plane-surface $-1 1.594186993035791 -8.1878036241958085 98.710815721165716 0.87461971476443456 0 0.48480960649040278 0.48480960649040278 0 -0.87461971476443456 forward_v I I I I #
loop $-1 $-1 $337 $87 #
coedge $-1 $222 $222 $223 $338 reversed $137 $-1 #
coedge $-1 $223 $223 $222 $338 forward $139 $-1 #
coedge $-1 $224 $224 $140 $225 forward $219 $-1 #
edge $-1 $339 0 $339 6.2831853071796004 $224 $340 forward 7 unknown #
loop $-1 $-1 $231 $141 #
plane-surface $-1 1.594186993035791 -8.1878036241958085 98.710815721165716 0.87461971476443456 0 0.48480960649040278 0.48480960649040278 0 -0.87461971476443456 forward_v I I I I #
loop $-1 $-1 $341 $90 #
coedge $-1 $229 $229 $230 $342 reversed $142 $-1 #
coedge $-1 $230 $230 $229 $342 forward $144 $-1 #
coedge $-1 $231 $231 $145 $232 forward $226 $-1 #
edge $-1 $343 0 $343 6.2831853071796004 $231 $344 forward 7 unknown #
loop $-1 $-1 $238 $146 #
plane-surface $-1 1.594186993035791 -8.1878036241958085 98.710815721165716 0.87461971476443456 0 0.48480960649040278 0.48480960649040278 0 -0.87461971476443456 forward_v I I I I #
loop $-1 $-1 $345 $93 #
coedge $-1 $236 $236 $237 $346 reversed $147 $-1 #
coedge $-1 $237 $237 $236 $346 forward $149 $-1 #
coedge $-1 $238 $238 $150 $239 forward $233 $-1 #
edge $-1 $347 0 $347 6.2831853071796004 $238 $348 forward 7 unknown #
face $-1 $349 $350 $36 $-1 $351 reversed single #
loop $-1 $-1 $352 $151 #
plane-surface $-1 -52.473525193029573 0 0 1 0 0 0 0 -1 forward_v I I I I #
coedge $-1 $353 $251 $354 $355 forward $152 $-1 #
coedge $-1 $356 $154 $353 $357 forward $97 $-1 #
coedge $-1 $154 $356 $358 $359 forward $97 $-1 #
coedge $-1 $254 $253 $154 $247 reversed $255 $-1 #
edge $-1 $360 -28.312034708629017 $361 28.312034708629017 $246 $362 forward 7 unknown #
coedge $-1 $156 $155 $363 $364 forward $61 $-1 #
coedge $-1 $365 $366 $155 $250 reversed $350 $-1 #
edge $-1 $257 -52.473525193029573 $367 52.473525193029573 $249 $368 forward 7 unknown #
coedge $-1 $243 $369 $156 $252 reversed $152 $-1 #
edge $-1 $370 -52.473525193029573 $256 52.473525193029573 $251 $371 forward 7 unknown #
coedge $-1 $246 $157 $369 $372 forward $255 $-1 #
coedge $-1 $157 $246 $365 $373 reversed $255 $-1 #
loop $-1 $-1 $253 $349 #
vertex $-1 $158 $374 #
vertex $-1 $158 $375 #
straight-curve $-1 52.473525193029573 0 12.714537587951835 0 1 0 I I #
face $-1 $376 $377 $37 $-1 $378 forward single #
loop $-1 $-1 $268 $159 #
plane-surface $-1 0 -28.312034708629017 0 0 1 0 0 0 1 forward_v I I I I #
coedge $-1 $379 $380 $381 $382 forward $160 $-1 #
coedge $-1 $381 $162 $164 $270 reversed $101 $-1 #
coedge $-1 $162 $381 $383 $384 reversed $101 $-1 #
coedge $-1 $385 $165 $162 $266 forward $272 $-1 #
edge $-1 $274 4.1072687939759174 $386 7.1072687939759174 $265 $387 forward 7 unknown #
coedge $-1 $164 $163 $379 $388 reversed $64 $-1 #
coedge $-1 $389 $390 $163 $269 forward $260 $-1 #
edge $-1 $391 -52.473525193029573 $273 52.473525193029573 $268 $392 forward 7 unknown #
edge $-1 $393 -52.473525193029573 $274 52.473525193029573 $263 $394 forward 7 unknown #
coedge $-1 $165 $385 $389 $395 forward $272 $-1 #
loop $-1 $-1 $265 $376 #
vertex $-1 $269 $396 #
vertex $-1 $166 $397 #
straight-curve $-1 52.473525193029573 -10.024820914380193 9.7145375879518348 0 1 0 I I #
face $-1 $-1 $398 $38 $-1 $399 reversed single #
loop $-1 $-1 $173 $167 #
plane-surface $-1 0 0 12.714537587951835 0 0 1 1 0 0 forward_v I I I I #
coedge $-1 $400 $401 $402 $403 reversed $168 $-1 #
coedge $-1 $404 $170 $172 $286 forward $105 $-1 #
coedge $-1 $170 $404 $400 $405 forward $105 $-1 #
coedge $-1 $402 $173 $170 $283 forward $277 $-1 #
edge $-1 $289 -3.2284494693759402 $406 3.364826845711077 $282 $407 forward 7 unknown #
coedge $-1 $408 $409 $171 $285 forward $398 $-1 #
edge $-1 $410 -44.567030839172624 $288 -33.605242853563723 $284 $411 forward 7 unknown #
edge $-1 $289 -21.923575677497304 $410 0 $172 $412 forward 7 unknown #
coedge $-1 $173 $402 $408 $413 forward $277 $-1 #
vertex $-1 $285 $414 #
vertex $-1 $174 $415 #
straight-curve $-1 -52.473525544535882 -3.1602607812083718 12.714537587951831 1 0 0 I I #
coedge $-1 $291 $291 $-1 $416 reversed $177 $-1 #
edge $-1 $417 0 $417 6.2831853071796004 $178 $418 forward 7 unknown #
vertex $-1 $181 $419 #
ellipse-curve $-1 -42.980338496172834 -1.2764675483263659 7.2336435951473792 -0.50000000669873634 0 0.8660253999169214 0.4330126999584607 0 0.25000000334936817 1 I I #
coedge $-1 $295 $295 $-1 $420 reversed $184 $-1 #
edge $-1 $421 0 $421 6.2831853071796004 $185 $422 forward 7 unknown #
vertex $-1 $188 $423 #
ellipse-curve $-1 -42.980338496172834 1.549222300996643 7.2336435951473792 -0.50000000669873634 0 0.8660253999169214 0.4330126999584607 0 0.25000000334936817 1 I I #
face $-1 $-1 $424 $41 $-1 $425 reversed single #
loop $-1 $-1 $195 $189 #
plane-surface $-1 0 0 12.714537587951835 0 0 1 1 0 0 forward_v I I I I #
coedge $-1 $426 $427 $428 $429 reversed $190 $-1 #
coedge $-1 $430 $192 $194 $309 forward $119 $-1 #
coedge $-1 $192 $430 $426 $431 forward $119 $-1 #
coedge $-1 $428 $195 $192 $306 forward $300 $-1 #
edge $-1 $312 4.8975660341575509 $432 11.490842349244568 $305 $433 forward 7 unknown #
coedge $-1 $434 $435 $193 $308 forward $424 $-1 #
edge $-1 $436 -44.567030839172624 $311 -33.605242853563723 $307 $437 forward 7 unknown #
edge $-1 $312 -21.923575677497304 $436 0 $194 $438 forward 7 unknown #
coedge $-1 $195 $428 $434 $439 forward $300 $-1 #
vertex $-1 $196 $440 #
vertex $-1 $196 $441 #
straight-curve $-1 -52.473525544535882 13.09177022585861 12.714537587951831 1 0 0 I I #
coedge $-1 $314 $314 $-1 $442 reversed $199 $-1 #
edge $-1 $443 0 $443 6.2831853071796004 $200 $444 forward 7 unknown #
vertex $-1 $203 $445 #
ellipse-curve $-1 -42.980338496172834 14.97556345874062 7.2336435951473792 -0.50000000669873634 0 0.8660253999169214 0.4330126999584607 0 0.25000000334936817 1 I I #
coedge $-1 $318 $318 $-1 $446 reversed $206 $-1 #
edge $-1 $447 0 $447 6.2831853071796004 $207 $448 forward 7 unknown #
vertex $-1 $210 $449 #
ellipse-curve $-1 -42.980338496172834 17.801253308063625 7.2336435951473792 -0.50000000669873634 0 0.8660253999169214 0.4330126999584607 0 0.25000000334936817 1 I I #
face $-1 $-1 $450 $44 $-1 $451 reversed single #
loop $-1 $-1 $328 $211 #
plane-surface $-1 0 0 12.714537587951835 0 0 1 1 0 0 forward_v I I I I #
coedge $-1 $452 $453 $327 $454 reversed $212 $-1 #
coedge $-1 $455 $214 $216 $332 forward $133 $-1 #
coedge $-1 $214 $455 $325 $454 forward $133 $-1 #
coedge $-1 $456 $217 $214 $329 forward $323 $-1 #
edge $-1 $335 0.4944564874019548 $457 7.6933471367938537 $328 $458 forward 7 unknown #
coedge $-1 $459 $460 $215 $331 forward $450 $-1 #
edge $-1 $461 -67.873020513437794 $334 -62.080539372627925 $330 $462 forward 7 unknown #
edge $-1 $335 98.324193568373502 $461 104.9470503860591 $216 $463 forward 7 unknown #
coedge $-1 $217 $456 $459 $464 forward $323 $-1 #
vertex $-1 $331 $465 #
vertex $-1 $218 $466 #
straight-curve $-1 46.69147313352979 -4.5883582994998591 12.714537587951838 -1 0 0 I I #
coedge $-1 $337 $337 $-1 $467 reversed $221 $-1 #
edge $-1 $468 0 $468 6.2831853071796004 $222 $469 forward 7 unknown #
vertex $-1 $225 $470 #
ellipse-curve $-1 50.868112889217358 -10.347470819013378 9.8182970175468895 0.87461971476443456 0 0.48480960649040278 0.12120240162260069 0 -0.21865492869110864 1 I I #
coedge $-1 $341 $341 $-1 $471 reversed $228 $-1 #
edge $-1 $472 0 $472 6.2831853071796004 $229 $473 forward 7 unknown #
vertex $-1 $232 $474 #
ellipse-curve $-1 50.868112889217358 -8.1878036241958085 9.8182970175468895 0.87461971476443456 0 0.48480960649040278 0.12120240162260069 0 -0.21865492869110864 1 I I #
coedge $-1 $345 $345 $-1 $475 reversed $235 $-1 #
edge $-1 $476 0 $476 6.2831853071796004 $236 $477 forward 7 unknown #
vertex $-1 $239 $478 #
ellipse-curve $-1 50.868112889217358 -6.0281364293782396 9.8182970175468895 0.87461971476443456 0 0.48480960649040278 0.12120240162260069 0 -0.21865492869110864 1 I I #
face $-1 $-1 $255 $36 $-1 $479 reversed single #
loop $-1 $-1 $365 $240 #
plane-surface $-1 0 28.312034708629017 0 0 -1 0 0 0 -1 forward_v I I I I #
coedge $-1 $480 $363 $366 $481 forward $241 $-1 #
coedge $-1 $369 $243 $244 $357 reversed $152 $-1 #
coedge $-1 $363 $480 $243 $355 reversed $241 $-1 #
edge $-1 $370 -12.714537587951835 $482 12.714537587951835 $354 $483 forward 7 unknown #
coedge $-1 $245 $244 $480 $484 forward $97 $-1 #
edge $-1 $361 -52.473525193029573 $482 52.473525193029573 $353 $485 forward 7 unknown #
coedge $-1 $366 $365 $245 $359 reversed $350 $-1 #
edge $-1 $486 -52.473525193029573 $360 52.473525193029573 $358 $487 forward 7 unknown #
vertex $-1 $247 $488 #
vertex $-1 $372 $489 #
straight-curve $-1 52.473525193029573 0 -12.714537587951835 0 -1 0 I I #
coedge $-1 $352 $354 $248 $364 reversed $241 $-1 #
edge $-1 $367 -28.312034708629017 $370 28.312034708629017 $363 $490 forward 7 unknown #
coedge $-1 $358 $249 $254 $373 forward $350 $-1 #
coedge $-1 $249 $358 $352 $481 reversed $350 $-1 #
vertex $-1 $250 $491 #
straight-curve $-1 0 28.312034708629017 12.714537587951835 -1 0 0 I I #
coedge $-1 $251 $353 $253 $372 reversed $152 $-1 #
vertex $-1 $364 $492 #
straight-curve $-1 0 -28.312034708629017 12.714537587951835 1 0 0 I I #
edge $-1 $256 -12.714537587951835 $361 12.714537587951835 $253 $493 forward 7 unknown #
edge $-1 $257 -12.714537587951835 $360 12.714537587951835 $254 $494 forward 7 unknown #
point $-1 52.473525193029573 -28.312034708629017 12.714537587951835 #
point $-1 52.473525193029573 28.312034708629017 12.714537587951835 #
face $-1 $-1 $272 $37 $-1 $495 reversed single #
loop $-1 $-1 $383 $259 #
plane-surface $-1 0 0 12.714537587951835 0 0 1 1 0 0 forward_v I I I I #
coedge $-1 $496 $262 $267 $388 forward $160 $-1 #
coedge $-1 $262 $496 $497 $498 reversed $160 $-1 #
coedge $-1 $264 $263 $262 $382 reversed $101 $-1 #
edge $-1 $499 -7.1072687939759174 $393 -4.1072687939759174 $262 $500 forward 7 unknown #
coedge $-1 $497 $501 $264 $384 forward $377 $-1 #
edge $-1 $386 -52.473525193029573 $499 52.473525193029573 $383 $502 forward 7 unknown #
coedge $-1 $271 $265 $501 $503 reversed $272 $-1 #
vertex $-1 $266 $504 #
straight-curve $-1 52.473525193029573 -11.787248948891756 5.6072687939759174 0 0 1 I I #
edge $-1 $393 1.7624280345115633 $391 18.287213794248821 $379 $505 forward 7 unknown #
coedge $-1 $506 $268 $271 $395 reversed $260 $-1 #
coedge $-1 $268 $506 $496 $507 forward $260 $-1 #
vertex $-1 $269 $508 #
straight-curve $-1 0 -28.312034708629017 9.7145375879518348 1 0 0 I I #
vertex $-1 $388 $509 #
straight-curve $-1 0 -11.787248948891756 9.7145375879518348 1 0 0 I I #
edge $-1 $510 -12.714537587951835 $273 -9.7145375879518348 $271 $511 forward 7 unknown #
point $-1 52.473525193029573 -28.312034708629014 9.7145375879518348 #
point $-1 52.473525193029573 -11.787248948891756 9.7145375879518348 #
loop $-1 $-1 $284 $276 #
plane-surface $-1 -52.473525193029573 0 0 1 0 0 0 0 -1 forward_v I I I I #
coedge $-1 $401 $279 $281 $405 reversed $168 $-1 #
coedge $-1 $279 $400 $512 $513 reversed $168 $-1 #
coedge $-1 $287 $282 $279 $403 forward $277 $-1 #
edge $-1 $406 -18.986373745219801 $514 -3.5150630850466769e-007 $402 $515 forward 7 unknown #
coedge $-1 $281 $280 $409 $516 reversed $105 $-1 #
edge $-1 $517 0 $406 21.923575677497304 $400 $518 forward 7 unknown #
vertex $-1 $283 $519 #
straight-curve $-1 -33.487151799316081 0.068188688167568401 12.714537587951835 0 1 0 I I #
coedge $-1 $512 $284 $287 $413 reversed $398 $-1 #
coedge $-1 $284 $512 $404 $516 forward $398 $-1 #
vertex $-1 $285 $520 #
straight-curve $-1 -52.473525193029573 -3.1602607812083718 46.319780441515555 0 0 1 I I #
straight-curve $-1 -52.473525193029573 -3.1602607812083718 1.7527496023429308 -0.8660253999169214 0 -0.50000000669873634 I I #
edge $-1 $514 -3.4330155338786454 $288 3.1602607812083718 $408 $521 forward 7 unknown #
point $-1 -52.473525193029573 -3.1602607812083718 12.714537587951835 #
point $-1 -33.487151799316081 -3.1602607812083718 12.714537587951835 #
edge $-1 $522 1 $522 0 $291 $-1 forward 7 unknown #
vertex $-1 $292 $523 #
ellipse-curve $-1 -42.407834139615126 -1.2764675483263659 6.2420369797482671 -0.50000000669873634 0 0.8660253999169214 0.4330126999584607 0 0.25000000334936817 1 I I #
point $-1 -42.547325796214373 -1.2764675483263659 7.483643598496756 #
edge $-1 $524 1 $524 0 $295 $-1 forward 7 unknown #
vertex $-1 $296 $525 #
ellipse-curve $-1 -42.407834139615126 1.549222300996643 6.2420369797482671 -0.50000000669873634 0 0.8660253999169214 0.4330126999584607 0 0.25000000334936817 1 I I #
point $-1 -42.547325796214373 1.549222300996643 7.483643598496756 #
loop $-1 $-1 $307 $299 #
plane-surface $-1 -52.473525193029573 0 0 1 0 0 0 0 -1 forward_v I I I I #
coedge $-1 $427 $302 $304 $431 reversed $190 $-1 #
coedge $-1 $302 $426 $526 $527 reversed $190 $-1 #
coedge $-1 $310 $305 $302 $429 forward $300 $-1 #
edge $-1 $432 -18.986373745219801 $528 -3.5150630850466769e-007 $428 $529 forward 7 unknown #
coedge $-1 $304 $303 $435 $530 reversed $119 $-1 #
edge $-1 $531 0 $432 21.923575677497304 $426 $532 forward 7 unknown #
vertex $-1 $306 $533 #
straight-curve $-1 -33.487151799316081 8.1942041917010595 12.714537587951835 0 1 0 I I #
coedge $-1 $526 $307 $310 $439 reversed $424 $-1 #
coedge $-1 $307 $526 $430 $530 forward $424 $-1 #
vertex $-1 $308 $534 #
straight-curve $-1 -52.473525193029573 13.09177022585861 46.319780441515555 0 0 1 I I #
straight-curve $-1 -52.473525193029573 13.09177022585861 1.7527496023429308 -0.8660253999169214 0 -0.50000000669873634 I I #
edge $-1 $528 -19.685046540945628 $311 -13.09177022585861 $434 $535 forward 7 unknown #
point $-1 -52.473525193029573 13.09177022585861 12.714537587951835 #
point $-1 -33.487151799316081 13.09177022585861 12.714537587951835 #
edge $-1 $536 1 $536 0 $314 $-1 forward 7 unknown #
vertex $-1 $315 $537 #
ellipse-curve $-1 -42.407834139615126 14.97556345874062 6.2420369797482671 -0.50000000669873634 0 0.8660253999169214 0.4330126999584607 0 0.25000000334936817 1 I I #
point $-1 -42.547325796214373 14.97556345874062 7.483643598496756 #
edge $-1 $538 1 $538 0 $318 $-1 forward 7 unknown #
vertex $-1 $319 $539 #
ellipse-curve $-1 -42.407834139615126 17.801253308063625 6.2420369797482671 -0.50000000669873634 0 0.8660253999169214 0.4330126999584607 0 0.25000000334936817 1 I I #
point $-1 -42.547325796214373 17.801253308063625 7.483643598496756 #
loop $-1 $-1 $330 $322 #
plane-surface $-1 52.473525193029573 0 0 -1 0 0 0 0 1 forward_v I I I I #
coedge $-1 $453 $325 $540 $541 reversed $212 $-1 #
coedge $-1 $325 $452 $456 $542 reversed $212 $-1 #
edge $-1 $543 -104.9470503860591 $457 -98.324193568373502 $325 $544 forward 7 unknown #
coedge $-1 $327 $326 $460 $545 reversed $133 $-1 #
coedge $-1 $333 $328 $453 $542 forward $323 $-1 #
vertex $-1 $542 $546 #
straight-curve $-1 49.262700585405142 -4.0939018120979043 12.714537587951838 0 -1 0 I I #
coedge $-1 $540 $330 $333 $464 reversed $450 $-1 #
coedge $-1 $330 $540 $455 $545 forward $450 $-1 #
vertex $-1 $331 $547 #
straight-curve $-1 52.473525193029573 -4.5883582994998591 74.795076960579763 0 0 1 I I #
straight-curve $-1 1.594186993035791 -4.5883582994998591 98.710815721165716 0.48480960649040278 0 -0.87461971476443456 I I #
edge $-1 $548 -11.787248948891756 $334 -4.5883582994998591 $459 $549 forward 7 unknown #
point $-1 52.473525193029573 -4.5883582994998591 12.714537587951835 #
point $-1 49.262700585405135 -4.5883582994998591 12.714537587951838 #
edge $-1 $550 1 $550 0 $337 $-1 forward 7 unknown #
vertex $-1 $338 $551 #
ellipse-curve $-1 49.993493174452908 -10.347470819013378 9.3334874110564794 0.87461971476443456 0 0.48480960649040278 0.12120240162260069 0 -0.21865492869110864 1 I I #
point $-1 50.98931529083994 -10.347470819013378 9.5996420888557736 #
edge $-1 $552 1 $552 0 $341 $-1 forward 7 unknown #
vertex $-1 $342 $553 #
ellipse-curve $-1 49.993493174452908 -8.1878036241958085 9.3334874110564794 0.87461971476443456 0 0.48480960649040278 0.12120240162260069 0 -0.21865492869110864 1 I I #
point $-1 50.98931529083994 -8.1878036241958085 9.5996420888557736 #
edge $-1 $554 1 $554 0 $345 $-1 forward 7 unknown #
vertex $-1 $346 $555 #
ellipse-curve $-1 49.993493174452908 -6.0281364293782396 9.3334874110564794 0.87461971476443456 0 0.48480960649040278 0.12120240162260069 0 -0.21865492869110864 1 I I #
point $-1 50.98931529083994 -6.0281364293782396 9.5996420888557736 #
plane-surface $-1 52.473525193029573 0 0 -1 0 0 0 0 1 forward_v I I I I #
coedge $-1 $354 $352 $356 $484 reversed $241 $-1 #
edge $-1 $367 -12.714537587951835 $486 12.714537587951835 $366 $556 forward 7 unknown #
vertex $-1 $484 $557 #
straight-curve $-1 -52.473525193029573 -28.312034708629017 0 0 0 -1 I I #
edge $-1 $482 -28.312034708629017 $486 28.312034708629017 $480 $558 forward 7 unknown #
straight-curve $-1 0 -28.312034708629017 -12.714537587951835 -1 0 0 I I #
vertex $-1 $359 $559 #
straight-curve $-1 0 28.312034708629017 -12.714537587951835 1 0 0 I I #
point $-1 52.473525193029573 28.312034708629017 -12.714537587951835 #
point $-1 52.473525193029573 -28.312034708629017 -12.714537587951835 #
straight-curve $-1 -52.473525193029573 0 12.714537587951835 0 -1 0 I I #
point $-1 -52.473525193029573 28.312034708629017 12.714537587951835 #
point $-1 -52.473525193029573 -28.312034708629017 12.714537587951835 #
straight-curve $-1 52.473525193029573 -28.312034708629017 0 0 0 -1 I I #
straight-curve $-1 52.473525193029573 28.312034708629017 0 0 0 -1 I I #
plane-surface $-1 52.473525193029573 0 0 -1 0 0 0 0 1 forward_v I I I I #
coedge $-1 $380 $379 $390 $507 reversed $160 $-1 #
coedge $-1 $560 $383 $380 $498 forward $377 $-1 #
edge $-1 $499 11.787248948891756 $561 28.312034708629017 $380 $562 forward 7 unknown #
vertex $-1 $498 $563 #
straight-curve $-1 -52.473525193029573 -11.787248948891756 5.6072687939759174 0 0 -1 I I #
coedge $-1 $383 $560 $385 $503 forward $377 $-1 #
straight-curve $-1 0 -11.787248948891756 12.714537587951835 -1 0 0 I I #
edge $-1 $510 -28.312034708629017 $386 -11.787248948891756 $385 $564 forward 7 unknown #
point $-1 52.473525193029573 -11.787248948891756 12.714537587951835 #
straight-curve $-1 -52.473525193029573 -10.024820914380193 9.7145375879518348 0 -1 0 I I #
coedge $-1 $390 $389 $560 $565 reversed $260 $-1 #
edge $-1 $561 -12.714537587951835 $391 -9.7145375879518348 $496 $566 forward 7 unknown #
point $-1 -52.473525193029573 -28.312034708629014 9.7145375879518348 #
point $-1 -52.473525193029573 -11.787248948891756 9.7145375879518348 #
vertex $-1 $503 $567 #
straight-curve $-1 52.473525193029573 -28.312034708629017 0 0 0 -1 I I #
coedge $-1 $409 $408 $401 $513 forward $398 $-1 #
edge $-1 $514 33.605242853563723 $517 44.567030839172624 $512 $568 forward 7 unknown #
vertex $-1 $413 $569 #
straight-curve $-1 -52.473525544535882 3.4330155338786454 12.714537587951831 -1 0 0 I I #
edge $-1 $517 -3.364826845711077 $410 3.2284494693759402 $409 $570 forward 7 unknown #
vertex $-1 $516 $571 #
straight-curve $-1 -52.473525193029573 3.4330155338786454 1.7527496023429308 0.8660253999169214 0 0.50000000669873634 I I #
point $-1 -33.487151799316081 3.4330155338786454 12.714537587951835 #
point $-1 -52.473525193029573 -3.1602607812083718 1.7527496023429308 #
straight-curve $-1 -52.473525193029573 0 12.714537587951835 0 -1 0 I I #
vertex $-1 $416 $572 #
point $-1 -41.974821439656665 -1.2764675483263659 6.492036983097635 #
vertex $-1 $420 $573 #
point $-1 -41.974821439656665 1.549222300996643 6.492036983097635 #
coedge $-1 $435 $434 $427 $527 forward $424 $-1 #
edge $-1 $528 33.605242853563723 $531 44.567030839172624 $526 $574 forward 7 unknown #
vertex $-1 $439 $575 #
straight-curve $-1 -52.473525544535882 19.685046540945628 12.714537587951831 -1 0 0 I I #
edge $-1 $531 -11.490842349244568 $436 -4.8975660341575509 $435 $576 forward 7 unknown #
vertex $-1 $530 $577 #
straight-curve $-1 -52.473525193029573 19.685046540945628 1.7527496023429308 0.8660253999169214 0 0.50000000669873634 I I #
point $-1 -33.487151799316081 19.685046540945628 12.714537587951835 #
point $-1 -52.473525193029573 13.09177022585861 1.7527496023429308 #
straight-curve $-1 -52.473525193029573 0 12.714537587951835 0 -1 0 I I #
vertex $-1 $442 $578 #
point $-1 -41.974821439656665 14.97556345874062 6.492036983097635 #
vertex $-1 $446 $579 #
point $-1 -41.974821439656665 17.801253308063625 6.492036983097635 #
coedge $-1 $460 $459 $452 $541 forward $450 $-1 #
edge $-1 $548 62.080539372627925 $543 67.873020513437794 $540 $580 forward 7 unknown #
edge $-1 $457 49.262700585405135 $548 52.473525193029573 $456 $581 forward 7 unknown #
vertex $-1 $541 $582 #
straight-curve $-1 1.594186993035791 -11.787248948891758 98.710815721165716 -0.48480960649040278 0 0.87461971476443456 I I #
edge $-1 $543 -7.6933471367938537 $461 -0.4944564874019548 $460 $583 forward 7 unknown #
point $-1 49.262700585405135 -11.787248948891758 12.714537587951838 #
point $-1 52.473525193029573 -4.5883582994998591 6.9220564471419692 #
vertex $-1 $464 $584 #
straight-curve $-1 52.473525193029573 0 12.714537587951835 0 1 0 I I #
vertex $-1 $467 $585 #
point $-1 50.114695576075512 -10.347470819013378 9.1148324823653706 #
vertex $-1 $471 $586 #
point $-1 50.114695576075512 -8.1878036241958085 9.1148324823653706 #
vertex $-1 $475 $587 #
point $-1 50.114695576075512 -6.0281364293782396 9.1148324823653706 #
straight-curve $-1 -52.473525193029573 28.312034708629017 0 0 0 -1 I I #
point $-1 -52.473525193029573 -28.312034708629017 -12.714537587951835 #
straight-curve $-1 -52.473525193029573 0 -12.714537587951835 0 1 0 I I #
point $-1 -52.473525193029573 28.312034708629017 -12.714537587951835 #
coedge $-1 $501 $497 $506 $565 forward $377 $-1 #
vertex $-1 $498 $588 #
straight-curve $-1 -52.473525193029573 0 12.714537587951835 0 -1 0 I I #
point $-1 -52.473525193029573 -11.787248948891756 12.714537587951835 #
straight-curve $-1 52.473525193029573 0 12.714537587951835 0 1 0 I I #
edge $-1 $561 -52.473525193029573 $510 52.473525193029573 $506 $589 forward 7 unknown #
straight-curve $-1 -52.473525193029573 -28.312034708629017 0 0 0 -1 I I #
point $-1 52.473525193029573 -28.312034708629017 12.714537587951835 #
straight-curve $-1 -52.473525193029573 3.4330155338786454 46.319780441515555 0 0 -1 I I #
point $-1 -52.473525193029573 3.4330155338786454 12.714537587951835 #
straight-curve $-1 -52.473525193029573 0.068188688167568401 1.7527496023429325 0 -1 0 I I #
point $-1 -52.473525193029573 3.4330155338786454 1.7527496023429308 #
point $-1 -42.157834136265755 -1.2764675483263659 5.8090242797898064 #
point $-1 -42.157834136265755 1.549222300996643 5.8090242797898064 #
straight-curve $-1 -52.473525193029573 19.685046540945628 46.319780441515555 0 0 -1 I I #
point $-1 -52.473525193029573 19.685046540945628 12.714537587951835 #
straight-curve $-1 -52.473525193029573 8.1942041917010595 1.7527496023429325 0 -1 0 I I #
point $-1 -52.473525193029573 19.685046540945628 1.7527496023429308 #
point $-1 -42.157834136265755 14.97556345874062 5.8090242797898064 #
point $-1 -42.157834136265755 17.801253308063625 5.8090242797898064 #
straight-curve $-1 52.473525193029573 -11.787248948891758 74.795076960579763 0 0 -1 I I #
straight-curve $-1 0 -11.787248948891756 12.714537587951835 1 0 0 I I #
point $-1 52.473525193029573 -11.787248948891758 6.9220564471419692 #
straight-curve $-1 52.473525193029573 -4.0939018120979043 6.9220564471419763 0 1 0 I I #
point $-1 52.473525193029573 -11.787248948891756 12.714537587951835 #
point $-1 49.774838245761799 -10.347470819013378 9.2122850094338791 #
point $-1 49.774838245761799 -8.1878036241958085 9.2122850094338791 #
point $-1 49.774838245761799 -6.0281364293782396 9.2122850094338791 #
point $-1 -52.473525193029573 -28.312034708629017 12.714537587951835 #
straight-curve $-1 0 -28.312034708629017 12.714537587951835 1 0 0 I I #
End-of-ACIS-data 