500 0 6 0           
7 Unknown 11 ACIS 5.0 NT 24 Fri Mar 26 00:22:25 1999 
-1 9.9999999999999995e-007 1e-010 
body $-1 $6 $-1 $7 #
body $-1 $8 $-1 $9 #
body $-1 $10 $-1 $11 #
body $-1 $12 $-1 $13 #
body $-1 $14 $-1 $15 #
body $-1 $16 $-1 $17 #
lump $-1 $-1 $18 $0 #
transform $-1 1 0 0 0 1 0 0 0 1 57.787408062990202 23.417594507388809 11.484962584676364 1 rotate no_reflect no_shear #
lump $-1 $-1 $19 $1 #
transform $-1 1 0 0 0 1 0 0 0 1 57.787408062990202 23.417594507388809 11.484962584676364 1 rotate no_reflect no_shear #
lump $-1 $-1 $20 $2 #
transform $-1 1 0 0 0 1 0 0 0 1 57.787408062990202 23.417594507388809 11.484962584676364 1 rotate no_reflect no_shear #
lump $-1 $-1 $21 $3 #
transform $-1 1 0 0 0 1 0 0 0 1 57.787408062990202 23.417594507388809 11.484962584676364 1 rotate no_reflect no_shear #
lump $-1 $-1 $22 $4 #
transform $-1 1 0 0 0 1 0 0 0 1 57.787408062990202 23.417594507388809 11.484962584676364 1 rotate no_reflect no_shear #
lump $-1 $-1 $23 $5 #
transform $-1 1 0 0 0 1 0 0 0 1 57.787408062990202 23.417594507388809 11.484962584676364 1 rotate no_reflect no_shear #
shell $-1 $-1 $-1 $24 $-1 $6 #
shell $-1 $-1 $-1 $25 $-1 $8 #
shell $-1 $-1 $-1 $26 $-1 $10 #
shell $-1 $-1 $-1 $27 $-1 $12 #
shell $-1 $-1 $-1 $28 $-1 $14 #
shell $-1 $-1 $-1 $29 $-1 $16 #
face $-1 $30 $31 $18 $-1 $32 forward single #
face $-1 $33 $34 $19 $-1 $35 forward single #
face $-1 $36 $37 $20 $-1 $38 forward single #
face $-1 $39 $40 $21 $-1 $41 reversed single #
face $-1 $42 $43 $22 $-1 $44 forward single #
face $-1 $45 $46 $23 $-1 $47 forward single #
face $-1 $48 $49 $18 $-1 $50 reversed single #
loop $-1 $-1 $51 $24 #
plane-surface $-1 0 0 11.484962584676364 0 0 1 1 0 0 forward_v I I I I #
face $-1 $52 $53 $19 $-1 $54 reversed single #
loop $-1 $-1 $55 $25 #
plane-surface $-1 0 -16.384967799524205 -5.7819129855287734 0 0 1 1 0 0 forward_v I I I I #
face $-1 $56 $57 $20 $-1 $58 reversed single #
loop $-1 $-1 $59 $26 #
plane-surface $-1 0 16.384967799524208 -5.7819129855287734 0 0 1 1 0 0 forward_v I I I I #
face $-1 $60 $61 $21 $-1 $62 reversed single #
loop $-1 $-1 $63 $27 #
plane-surface $-1 -124.07840008280934 -3.3935167573554113 102.09610250227173 0 -1 0 0.57357644374324357 0 -0.81915203911291934 forward_v I I I I #
face $-1 $64 $65 $22 $-1 $66 forward single #
loop $-1 $67 $68 $28 #
cone-surface $-1 -54.314927437429851 -7.6498198532869726 8.6372947819865793 0.57357644374324357 0 -0.81915203911291934 0.40957601955645967 0 0.28678822187162178 1 I I 0 1 0.5 forward I I I I #
face $-1 $69 $70 $23 $-1 $71 forward single #
loop $-1 $72 $73 $29 #
cone-surface $-1 -54.314927437429851 -5.096037995728036 8.6372947819865793 0.57357644374324357 0 -0.81915203911291934 0.40957601955645967 0 0.28678822187162178 1 I I 0 1 0.5 forward I I I I #
face $-1 $74 $75 $18 $-1 $76 reversed single #
loop $-1 $-1 $77 $30 #
plane-surface $-1 0 0 -11.484962584676364 0 0 1 1 0 0 forward_v I I I I #
coedge $-1 $78 $79 $80 $81 forward $31 $-1 #
face $-1 $82 $83 $19 $-1 $84 reversed single #
loop $-1 $-1 $85 $33 #
plane-surface $-1 0 -9.3523410916595999 -8.6334377851025685 0 -1 0 0 0 -1 forward_v I I I I #
coedge $-1 $86 $87 $88 $89 reversed $34 $-1 #
face $-1 $90 $91 $20 $-1 $92 reversed single #
loop $-1 $-1 $93 $36 #
plane-surface $-1 0 9.3523410916596035 -8.6334377851025685 0 1 0 0 0 1 forward_v I I I I #
coedge $-1 $94 $95 $96 $97 reversed $37 $-1 #
face $-1 $98 $99 $21 $-1 $100 reversed single #
loop $-1 $-1 $101 $39 #
plane-surface $-1 -57.787408062990224 -6.3729289245075051 7.4227562025741776 -0.57357644374324357 0 0.81915203911291934 0.81915203911291934 0 0.57357644374324357 forward_v I I I I #
coedge $-1 $102 $103 $104 $105 reversed $40 $-1 #
face $-1 $-1 $106 $22 $-1 $107 forward single #
loop $-1 $108 $109 $42 #
cone-surface $-1 -53.599768619007627 -7.6498198532869726 7.6159421605696629 0.57357644374324357 0 -0.81915203911291934 0.20478800977822983 0 0.14339411093581089 1 I I -0.70710678118654746 0.70710678118654746 0.25 forward I I I I #
loop $-1 $-1 $110 $28 #
coedge $-1 $68 $68 $111 $112 reversed $43 $-1 #
face $-1 $-1 $113 $23 $-1 $114 forward single #
loop $-1 $115 $116 $45 #
cone-surface $-1 -53.599768619007627 -5.096037995728036 7.6159421605696629 0.57357644374324357 0 -0.81915203911291934 0.20478800977822983 0 0.14339411093581089 1 I I -0.70710678118654746 0.70710678118654746 0.25 forward I I I I #
loop $-1 $-1 $117 $29 #
coedge $-1 $73 $73 $118 $119 reversed $46 $-1 #
face $-1 $120 $121 $18 $-1 $122 reversed single #
loop $-1 $-1 $123 $48 #
plane-surface $-1 0 -23.417594507388809 0 0 1 0 0 0 1 forward_v I I I I #
coedge $-1 $124 $125 $126 $127 forward $49 $-1 #
coedge $-1 $128 $51 $129 $130 forward $31 $-1 #
coedge $-1 $51 $128 $131 $132 forward $31 $-1 #
coedge $-1 $133 $134 $51 $81 reversed $135 $-1 #
edge $-1 $136 -23.417594507388809 $137 23.417594507388809 $80 $138 forward 7 unknown #
face $-1 $139 $140 $19 $-1 $141 reversed single #
loop $-1 $-1 $142 $52 #
plane-surface $-1 0 0 -11.484962584676364 0 0 1 1 0 0 forward_v I I I I #
coedge $-1 $143 $144 $145 $146 reversed $53 $-1 #
coedge $-1 $147 $55 $144 $148 forward $34 $-1 #
coedge $-1 $55 $147 $149 $150 reversed $34 $-1 #
coedge $-1 $151 $145 $55 $89 forward $140 $-1 #
edge $-1 $152 1.1598571918974976 $153 15.225110607626707 $88 $154 forward 7 unknown #
face $-1 $155 $156 $20 $-1 $157 reversed single #
loop $-1 $-1 $96 $56 #
plane-surface $-1 57.787408062990202 0 0 -1 0 0 0 0 1 forward_v I I I I #
coedge $-1 $158 $159 $160 $161 reversed $57 $-1 #
coedge $-1 $162 $59 $163 $164 reversed $37 $-1 #
coedge $-1 $59 $162 $159 $165 forward $37 $-1 #
coedge $-1 $166 $167 $59 $97 forward $91 $-1 #
edge $-1 $168 -15.225110607626709 $169 -1.1598571918974994 $96 $170 forward 7 unknown #
face $-1 $171 $172 $21 $-1 $173 reversed single #
loop $-1 $-1 $174 $60 #
plane-surface $-1 -124.07840008280934 -9.3523410916595999 102.09610250227173 0 1 0 -0.57357644374324357 0 0.81915203911291934 forward_v I I I I #
coedge $-1 $175 $176 $177 $178 reversed $61 $-1 #
coedge $-1 $103 $63 $179 $180 reversed $40 $-1 #
coedge $-1 $63 $102 $175 $181 reversed $40 $-1 #
coedge $-1 $177 $182 $63 $105 forward $172 $-1 #
edge $-1 $183 39.563088666459507 $184 43.625295048561675 $104 $185 forward 7 unknown #
loop $-1 $-1 $111 $64 #
plane-surface $-1 -57.787408062990224 -6.3729289245075051 7.4227562025741776 -0.57357644374324357 0 0.81915203911291934 0.81915203911291934 0 0.57357644374324357 forward_v I I I I #
loop $-1 $-1 $186 $42 #
coedge $-1 $109 $109 $110 $187 reversed $65 $-1 #
coedge $-1 $110 $110 $109 $187 forward $67 $-1 #
coedge $-1 $111 $111 $68 $112 forward $106 $-1 #
edge $-1 $188 0 $188 6.2831853071796004 $111 $189 forward 7 unknown #
loop $-1 $-1 $118 $69 #
plane-surface $-1 -57.787408062990224 -6.3729289245075051 7.4227562025741776 -0.57357644374324357 0 0.81915203911291934 0.81915203911291934 0 0.57357644374324357 forward_v I I I I #
loop $-1 $-1 $190 $45 #
coedge $-1 $116 $116 $117 $191 reversed $70 $-1 #
coedge $-1 $117 $117 $116 $191 forward $72 $-1 #
coedge $-1 $118 $118 $73 $119 forward $113 $-1 #
edge $-1 $192 0 $192 6.2831853071796004 $118 $193 forward 7 unknown #
face $-1 $194 $195 $18 $-1 $196 reversed single #
loop $-1 $-1 $197 $74 #
plane-surface $-1 -57.787408062990202 0 0 1 0 0 0 0 -1 forward_v I I I I #
coedge $-1 $198 $131 $199 $200 forward $75 $-1 #
coedge $-1 $201 $77 $198 $202 forward $49 $-1 #
coedge $-1 $77 $201 $203 $204 forward $49 $-1 #
coedge $-1 $134 $133 $77 $127 reversed $135 $-1 #
edge $-1 $205 -23.417594507388809 $206 23.417594507388809 $126 $207 forward 7 unknown #
coedge $-1 $79 $78 $208 $209 forward $31 $-1 #
coedge $-1 $210 $211 $78 $130 reversed $195 $-1 #
edge $-1 $137 -57.787408062990202 $212 57.787408062990202 $129 $213 forward 7 unknown #
coedge $-1 $123 $214 $79 $132 reversed $75 $-1 #
edge $-1 $215 -57.787408062990202 $136 57.787408062990202 $131 $216 forward 7 unknown #
coedge $-1 $126 $80 $214 $217 forward $135 $-1 #
coedge $-1 $80 $126 $210 $218 reversed $135 $-1 #
loop $-1 $-1 $133 $194 #
vertex $-1 $81 $219 #
vertex $-1 $81 $220 #
straight-curve $-1 57.787408062990202 0 11.484962584676364 0 1 0 I I #
face $-1 $221 $222 $19 $-1 $223 reversed single #
loop $-1 $-1 $145 $82 #
plane-surface $-1 57.787408062990202 0 0 -1 0 0 0 0 1 forward_v I I I I #
coedge $-1 $224 $225 $143 $226 forward $83 $-1 #
coedge $-1 $227 $85 $142 $226 reversed $53 $-1 #
coedge $-1 $85 $227 $86 $148 reversed $53 $-1 #
coedge $-1 $88 $228 $85 $146 forward $140 $-1 #
edge $-1 $229 -7.1682436921250794 $152 -1.4651940929774891 $145 $230 forward 7 unknown #
coedge $-1 $87 $86 $231 $232 reversed $34 $-1 #
edge $-1 $152 -57.787408062990202 $233 57.787408062990202 $144 $234 forward 7 unknown #
coedge $-1 $235 $236 $87 $150 forward $222 $-1 #
edge $-1 $153 -57.787408062990202 $237 57.787408062990202 $149 $238 forward 7 unknown #
coedge $-1 $228 $88 $236 $239 forward $140 $-1 #
vertex $-1 $89 $240 #
vertex $-1 $239 $241 #
straight-curve $-1 57.787408062990202 -8.1924838997621023 -5.7819129855287734 0 -1 0 I I #
face $-1 $242 $243 $20 $-1 $244 reversed single #
loop $-1 $-1 $245 $90 #
plane-surface $-1 0 0 -11.484962584676364 0 0 1 1 0 0 forward_v I I I I #
coedge $-1 $246 $93 $245 $247 reversed $57 $-1 #
coedge $-1 $93 $246 $95 $165 reversed $57 $-1 #
coedge $-1 $248 $249 $93 $161 forward $243 $-1 #
edge $-1 $250 -7.1682436921250794 $251 -1.4651940929774891 $160 $252 forward 7 unknown #
coedge $-1 $95 $94 $248 $253 reversed $37 $-1 #
coedge $-1 $254 $255 $94 $164 forward $256 $-1 #
edge $-1 $257 -57.787408062990202 $168 57.787408062990202 $163 $258 forward 7 unknown #
edge $-1 $251 -57.787408062990202 $169 57.787408062990202 $159 $259 forward 7 unknown #
coedge $-1 $260 $96 $246 $261 forward $91 $-1 #
coedge $-1 $96 $260 $254 $262 reversed $91 $-1 #
vertex $-1 $262 $263 #
vertex $-1 $97 $264 #
straight-curve $-1 57.787408062990202 8.1924838997621041 -5.7819129855287734 0 -1 0 I I #
face $-1 $-1 $265 $21 $-1 $266 forward single #
loop $-1 $-1 $104 $98 #
plane-surface $-1 -57.787408062990202 0 0 1 0 0 0 0 -1 forward_v I I I I #
coedge $-1 $267 $268 $269 $270 reversed $99 $-1 #
coedge $-1 $271 $101 $103 $181 forward $61 $-1 #
coedge $-1 $101 $271 $267 $272 forward $61 $-1 #
coedge $-1 $269 $104 $101 $178 forward $172 $-1 #
edge $-1 $184 0.20705229510165868 $273 6.1658766294058474 $177 $274 forward 7 unknown #
coedge $-1 $275 $276 $102 $180 forward $265 $-1 #
edge $-1 $277 -10.053223814562294 $183 -4.2517919784144667 $179 $278 forward 7 unknown #
edge $-1 $184 2.6121725655721309e-014 $277 7.0822406087523984 $103 $279 forward 7 unknown #
coedge $-1 $104 $269 $275 $280 reversed $172 $-1 #
vertex $-1 $280 $281 #
vertex $-1 $105 $282 #
straight-curve $-1 -57.787408062990202 -3.3935167573554113 51.048051251135867 0 0 -1 I I #
coedge $-1 $186 $186 $-1 $283 reversed $108 $-1 #
edge $-1 $284 0 $284 6.2831853071796004 $109 $285 forward 7 unknown #
vertex $-1 $112 $286 #
ellipse-curve $-1 -54.886692144916282 -7.6498198532869726 9.453859393625283 -0.57357644374324357 0 0.81915203911291934 0.40957601955645967 0 0.28678822187162178 1 I I #
coedge $-1 $190 $190 $-1 $287 reversed $115 $-1 #
edge $-1 $288 0 $288 6.2831853071796004 $116 $289 forward 7 unknown #
vertex $-1 $119 $290 #
ellipse-curve $-1 -54.886692144916282 -5.096037995728036 9.453859393625283 -0.57357644374324357 0 0.81915203911291934 0.40957601955645967 0 0.28678822187162178 1 I I #
face $-1 $-1 $135 $18 $-1 $291 reversed single #
loop $-1 $-1 $210 $120 #
plane-surface $-1 0 23.417594507388809 0 0 -1 0 0 0 -1 forward_v I I I I #
coedge $-1 $292 $208 $211 $293 forward $121 $-1 #
coedge $-1 $214 $123 $124 $202 reversed $75 $-1 #
coedge $-1 $208 $292 $123 $200 reversed $121 $-1 #
edge $-1 $215 -11.484962584676364 $294 11.484962584676364 $199 $295 forward 7 unknown #
coedge $-1 $125 $124 $292 $296 forward $49 $-1 #
edge $-1 $206 -57.787408062990202 $294 57.787408062990202 $198 $297 forward 7 unknown #
coedge $-1 $211 $210 $125 $204 reversed $195 $-1 #
edge $-1 $298 -57.787408062990202 $205 57.787408062990202 $203 $299 forward 7 unknown #
vertex $-1 $127 $300 #
vertex $-1 $217 $301 #
straight-curve $-1 57.787408062990202 0 -11.484962584676364 0 -1 0 I I #
coedge $-1 $197 $199 $128 $209 reversed $121 $-1 #
edge $-1 $212 -23.417594507388809 $215 23.417594507388809 $208 $302 forward 7 unknown #
coedge $-1 $203 $129 $134 $218 forward $195 $-1 #
coedge $-1 $129 $203 $197 $293 reversed $195 $-1 #
vertex $-1 $130 $303 #
straight-curve $-1 0 23.417594507388809 11.484962584676364 -1 0 0 I I #
coedge $-1 $131 $198 $133 $217 reversed $75 $-1 #
vertex $-1 $209 $304 #
straight-curve $-1 0 -23.417594507388809 11.484962584676364 1 0 0 I I #
edge $-1 $136 -11.484962584676364 $206 11.484962584676364 $133 $305 forward 7 unknown #
edge $-1 $137 -11.484962584676364 $205 11.484962584676364 $134 $306 forward 7 unknown #
point $-1 57.787408062990202 -23.417594507388809 11.484962584676364 #
point $-1 57.787408062990202 23.417594507388809 11.484962584676364 #
face $-1 $-1 $307 $19 $-1 $308 reversed single #
loop $-1 $-1 $149 $139 #
plane-surface $-1 0 -23.417594507388809 0 0 1 0 0 0 1 forward_v I I I I #
coedge $-1 $309 $142 $228 $310 forward $83 $-1 #
coedge $-1 $142 $309 $311 $312 forward $83 $-1 #
edge $-1 $313 -57.787408062990202 $229 57.787408062990202 $142 $314 forward 7 unknown #
coedge $-1 $144 $143 $315 $316 reversed $53 $-1 #
coedge $-1 $145 $151 $224 $310 reversed $140 $-1 #
vertex $-1 $310 $317 #
straight-curve $-1 57.787408062990202 -9.3523410916595999 -4.3167188925512843 0 0 1 I I #
coedge $-1 $315 $318 $147 $232 forward $307 $-1 #
edge $-1 $237 -15.225110607626707 $233 -1.1598571918974976 $231 $319 forward 7 unknown #
vertex $-1 $232 $320 #
straight-curve $-1 0 -9.3523410916595999 -5.7819129855287734 -1 0 0 I I #
coedge $-1 $321 $149 $318 $322 forward $222 $-1 #
coedge $-1 $149 $321 $151 $239 reversed $222 $-1 #
vertex $-1 $322 $323 #
straight-curve $-1 0 -23.417594507388809 -5.7819129855287734 -1 0 0 I I #
edge $-1 $153 5.7819129855287734 $324 11.484962584676364 $151 $325 forward 7 unknown #
point $-1 57.787408062990202 -9.3523410916595999 -5.7819129855287734 #
point $-1 57.787408062990202 -23.417594507388809 -5.7819129855287734 #
face $-1 $-1 $256 $20 $-1 $326 reversed single #
loop $-1 $-1 $248 $155 #
plane-surface $-1 -57.787408062990202 0 0 1 0 0 0 0 -1 forward_v I I I I #
coedge $-1 $327 $328 $158 $247 forward $156 $-1 #
coedge $-1 $159 $158 $166 $261 reversed $57 $-1 #
edge $-1 $329 -57.787408062990202 $250 57.787408062990202 $245 $330 forward 7 unknown #
coedge $-1 $331 $160 $162 $253 forward $243 $-1 #
coedge $-1 $160 $331 $327 $332 reversed $243 $-1 #
vertex $-1 $332 $333 #
vertex $-1 $253 $334 #
straight-curve $-1 -57.787408062990202 9.3523410916596035 -4.3167188925512843 0 0 1 I I #
edge $-1 $251 1.1598571918974994 $257 15.225110607626709 $248 $335 forward 7 unknown #
coedge $-1 $336 $163 $167 $262 forward $256 $-1 #
coedge $-1 $163 $336 $331 $337 reversed $256 $-1 #
loop $-1 $-1 $163 $242 #
vertex $-1 $337 $338 #
straight-curve $-1 0 23.417594507388809 -5.7819129855287734 1 0 0 I I #
straight-curve $-1 0 9.3523410916596035 -5.7819129855287734 1 0 0 I I #
coedge $-1 $167 $166 $328 $339 reversed $91 $-1 #
edge $-1 $169 1.4651940929774891 $329 7.1682436921250794 $166 $340 forward 7 unknown #
edge $-1 $168 5.7819129855287734 $341 11.484962584676364 $167 $342 forward 7 unknown #
point $-1 57.787408062990202 23.417594507388813 -5.7819129855287734 #
point $-1 57.787408062990202 9.3523410916596035 -5.7819129855287734 #
loop $-1 $-1 $179 $171 #
plane-surface $-1 0 0 11.484962584676364 0 0 1 1 0 0 forward_v I I I I #
coedge $-1 $268 $174 $176 $272 reversed $99 $-1 #
coedge $-1 $174 $267 $343 $344 reversed $99 $-1 #
coedge $-1 $182 $177 $174 $270 forward $172 $-1 #
edge $-1 $273 -43.625295048561675 $345 -39.563088666459507 $269 $346 forward 7 unknown #
coedge $-1 $176 $175 $276 $347 reversed $61 $-1 #
edge $-1 $348 -7.0822406087523984 $273 -2.6121725655721309e-014 $267 $349 forward 7 unknown #
vertex $-1 $178 $350 #
straight-curve $-1 -57.787408062990202 -3.1864644622537526 7.4227562025741873 0 -1 0 I I #
coedge $-1 $343 $179 $182 $280 forward $265 $-1 #
coedge $-1 $179 $343 $271 $347 forward $265 $-1 #
vertex $-1 $180 $351 #
straight-curve $-1 -62.039200041404669 -3.3935167573554113 11.48496258467636 -1 0 0 I I #
straight-curve $-1 -57.787408062990224 -3.3935167573554113 7.4227562025741776 0.81915203911291934 0 0.57357644374324357 I I #
edge $-1 $183 3.3935167573554113 $345 9.3523410916595999 $182 $352 forward 7 unknown #
point $-1 -57.787408062990202 -3.3935167573554113 11.484962584676364 #
point $-1 -57.787408062990202 -3.3935167573554113 7.4227562025741927 #
edge $-1 $353 1 $353 0 $186 $-1 forward 7 unknown #
vertex $-1 $187 $354 #
ellipse-curve $-1 -53.743162729943435 -7.6498198532869726 7.8207301703478924 -0.57357644374324357 0 0.81915203911291934 0.40957601955645967 0 0.28678822187162178 1 I I #
point $-1 -54.477116125359814 -7.6498198532869726 9.7406476154968882 #
edge $-1 $355 1 $355 0 $190 $-1 forward 7 unknown #
vertex $-1 $191 $356 #
ellipse-curve $-1 -53.743162729943435 -5.096037995728036 7.8207301703478924 -0.57357644374324357 0 0.81915203911291934 0.40957601955645967 0 0.28678822187162178 1 I I #
point $-1 -54.477116125359814 -5.096037995728036 9.7406476154968882 #
plane-surface $-1 57.787408062990202 0 0 -1 0 0 0 0 1 forward_v I I I I #
coedge $-1 $199 $197 $201 $296 reversed $121 $-1 #
edge $-1 $212 -11.484962584676364 $298 11.484962584676364 $211 $357 forward 7 unknown #
vertex $-1 $296 $358 #
straight-curve $-1 -57.787408062990202 -23.417594507388809 0 0 0 -1 I I #
edge $-1 $294 -23.417594507388809 $298 23.417594507388809 $292 $359 forward 7 unknown #
straight-curve $-1 0 -23.417594507388809 -11.484962584676364 -1 0 0 I I #
vertex $-1 $204 $360 #
straight-curve $-1 0 23.417594507388809 -11.484962584676364 1 0 0 I I #
point $-1 57.787408062990202 23.417594507388809 -11.484962584676364 #
point $-1 57.787408062990202 -23.417594507388809 -11.484962584676364 #
straight-curve $-1 -57.787408062990202 0 11.484962584676364 0 -1 0 I I #
point $-1 -57.787408062990202 23.417594507388809 11.484962584676364 #
point $-1 -57.787408062990202 -23.417594507388809 11.484962584676364 #
straight-curve $-1 57.787408062990202 -23.417594507388809 0 0 0 -1 I I #
straight-curve $-1 57.787408062990202 23.417594507388809 0 0 0 -1 I I #
loop $-1 $-1 $315 $221 #
plane-surface $-1 -57.787408062990202 0 0 1 0 0 0 0 -1 forward_v I I I I #
coedge $-1 $225 $224 $321 $361 forward $83 $-1 #
edge $-1 $229 9.3523410916595999 $324 23.417594507388809 $228 $362 forward 7 unknown #
coedge $-1 $318 $315 $225 $312 reversed $307 $-1 #
edge $-1 $363 -23.417594507388809 $313 -9.3523410916595999 $311 $364 forward 7 unknown #
vertex $-1 $316 $365 #
straight-curve $-1 0 -9.3523410916595999 -11.484962584676364 1 0 0 I I #
coedge $-1 $311 $231 $227 $316 forward $307 $-1 #
edge $-1 $233 1.4651940929774891 $313 7.1682436921250794 $315 $366 forward 7 unknown #
point $-1 57.787408062990202 -9.3523410916595999 -11.484962584676364 #
coedge $-1 $231 $311 $235 $322 reversed $307 $-1 #
straight-curve $-1 -57.787408062990202 -8.1924838997621023 -5.7819129855287734 0 1 0 I I #
point $-1 -57.787408062990202 -9.3523410916595999 -5.7819129855287734 #
coedge $-1 $236 $235 $309 $361 reversed $222 $-1 #
edge $-1 $237 5.7819129855287734 $363 11.484962584676364 $318 $367 forward 7 unknown #
point $-1 -57.787408062990202 -23.417594507388809 -5.7819129855287734 #
vertex $-1 $239 $368 #
straight-curve $-1 57.787408062990202 -23.417594507388809 0 0 0 -1 I I #
plane-surface $-1 0 23.417594507388809 0 0 -1 0 0 0 -1 forward_v I I I I #
coedge $-1 $369 $245 $249 $332 forward $156 $-1 #
coedge $-1 $245 $369 $260 $339 forward $156 $-1 #
vertex $-1 $247 $370 #
straight-curve $-1 0 9.3523410916596035 -11.484962584676364 -1 0 0 I I #
coedge $-1 $249 $248 $255 $337 forward $243 $-1 #
edge $-1 $250 9.3523410916596035 $371 23.417594507388809 $249 $372 forward 7 unknown #
point $-1 -57.787408062990202 9.3523410916596035 -11.484962584676364 #
point $-1 -57.787408062990202 9.3523410916596035 -5.7819129855287734 #
straight-curve $-1 -57.787408062990202 8.1924838997621041 -5.7819129855287734 0 1 0 I I #
coedge $-1 $255 $254 $369 $373 reversed $256 $-1 #
edge $-1 $257 5.7819129855287734 $371 11.484962584676364 $255 $374 forward 7 unknown #
point $-1 -57.787408062990202 23.417594507388813 -5.7819129855287734 #
edge $-1 $341 -23.417594507388809 $329 -9.3523410916596035 $260 $375 forward 7 unknown #
straight-curve $-1 57.787408062990202 9.3523410916596035 -4.3167188925512843 0 0 -1 I I #
vertex $-1 $339 $376 #
straight-curve $-1 57.787408062990202 23.417594507388809 0 0 0 -1 I I #
coedge $-1 $276 $275 $268 $344 forward $265 $-1 #
edge $-1 $345 4.2517919784144667 $348 10.053223814562294 $343 $377 forward 7 unknown #
vertex $-1 $344 $378 #
straight-curve $-1 -57.787408062990202 -9.3523410916595999 51.048051251135867 0 0 1 I I #
edge $-1 $348 -6.1658766294058474 $277 -0.20705229510165868 $276 $379 forward 7 unknown #
vertex $-1 $347 $380 #
straight-curve $-1 -57.787408062990224 -9.3523410916595999 7.4227562025741776 -0.81915203911291934 0 -0.57357644374324357 I I #
point $-1 -57.787408062990202 -9.3523410916595999 7.4227562025741927 #
point $-1 -51.985976226842375 -3.3935167573554113 11.484962584676364 #
straight-curve $-1 -57.787408062990202 0 11.484962584676364 0 -1 0 I I #
vertex $-1 $283 $381 #
point $-1 -53.333586710386975 -7.6498198532869726 8.1075183922195144 #
vertex $-1 $287 $382 #
point $-1 -53.333586710386975 -5.096037995728036 8.1075183922195144 #
straight-curve $-1 -57.787408062990202 23.417594507388809 0 0 0 -1 I I #
point $-1 -57.787408062990202 -23.417594507388809 -11.484962584676364 #
straight-curve $-1 -57.787408062990202 0 -11.484962584676364 0 1 0 I I #
point $-1 -57.787408062990202 23.417594507388809 -11.484962584676364 #
edge $-1 $324 -57.787408062990202 $363 57.787408062990202 $321 $383 forward 7 unknown #
straight-curve $-1 57.787408062990202 0 -11.484962584676364 0 -1 0 I I #
vertex $-1 $312 $384 #
straight-curve $-1 -57.787408062990202 0 -11.484962584676364 0 1 0 I I #
point $-1 -57.787408062990202 -9.3523410916595999 -11.484962584676364 #
straight-curve $-1 -57.787408062990202 -9.3523410916595999 -4.3167188925512843 0 0 -1 I I #
straight-curve $-1 -57.787408062990202 -23.417594507388809 0 0 0 -1 I I #
point $-1 57.787408062990202 -23.417594507388809 -11.484962584676364 #
coedge $-1 $328 $327 $336 $373 forward $156 $-1 #
point $-1 57.787408062990202 9.3523410916596035 -11.484962584676364 #
vertex $-1 $373 $385 #
straight-curve $-1 -57.787408062990202 0 -11.484962584676364 0 1 0 I I #
edge $-1 $371 -57.787408062990202 $341 57.787408062990202 $336 $386 forward 7 unknown #
straight-curve $-1 -57.787408062990202 23.417594507388809 0 0 0 -1 I I #
straight-curve $-1 57.787408062990202 0 -11.484962584676364 0 -1 0 I I #
point $-1 57.787408062990202 23.417594507388809 -11.484962584676364 #
straight-curve $-1 -62.039200041404669 -9.3523410916595999 11.48496258467636 1 0 0 I I #
point $-1 -57.787408062990202 -9.3523410916595999 11.484962584676364 #
straight-curve $-1 -51.985976226842368 -3.1864644622537526 11.484962584676365 0 1 0 I I #
point $-1 -51.985976226842375 -9.3523410916595999 11.484962584676364 #
point $-1 -53.456374508071818 -7.6498198532869726 7.4111541507914334 #
point $-1 -53.456374508071818 -5.096037995728036 7.4111541507914334 #
straight-curve $-1 0 -23.417594507388809 -11.484962584676364 -1 0 0 I I #
point $-1 -57.787408062990202 -23.417594507388809 -11.484962584676364 #
point $-1 -57.787408062990202 23.417594507388809 -11.484962584676364 #
straight-curve $-1 0 23.417594507388809 -11.484962584676364 1 0 0 I I #
End-of-ACIS-data 