500 0 13 0           
7 Unknown 11 ACIS 5.0 NT 24 Fri Mar 26 20:41:59 1999 
-1 9.9999999999999995e-007 1e-010 
body $-1 $13 $-1 $14 #
body $-1 $15 $-1 $16 #
body $-1 $17 $-1 $18 #
body $-1 $19 $-1 $20 #
body $-1 $21 $-1 $22 #
body $-1 $23 $-1 $24 #
body $-1 $25 $-1 $26 #
body $-1 $27 $-1 $28 #
body $-1 $29 $-1 $30 #
body $-1 $31 $-1 $32 #
body $-1 $33 $-1 $34 #
body $-1 $35 $-1 $36 #
body $-1 $37 $-1 $38 #
lump $-1 $-1 $39 $0 #
transform $-1 1 0 0 0 1 0 0 0 1 40.00122074037904 19.011658408710563 9.0398645793351253 1 rotate no_reflect no_shear #
lump $-1 $-1 $40 $1 #
transform $-1 1 0 0 0 1 0 0 0 1 40.00122074037904 19.011658408710563 9.0398645793351253 1 rotate no_reflect no_shear #
lump $-1 $-1 $41 $2 #
transform $-1 1 0 0 0 1 0 0 0 1 40.00122074037904 19.011658408710563 9.0398645793351253 1 rotate no_reflect no_shear #
lump $-1 $-1 $42 $3 #
transform $-1 1 0 0 0 1 0 0 0 1 40.00122074037904 19.011658408710563 9.0398645793351253 1 rotate no_reflect no_shear #
lump $-1 $-1 $43 $4 #
transform $-1 1 0 0 0 1 0 0 0 1 40.00122074037904 19.011658408710563 9.0398645793351253 1 rotate no_reflect no_shear #
lump $-1 $-1 $44 $5 #
transform $-1 1 0 0 0 1 0 0 0 1 40.00122074037904 19.011658408710563 9.0398645793351253 1 rotate no_reflect no_shear #
lump $-1 $-1 $45 $6 #
transform $-1 1 0 0 0 1 0 0 0 1 40.00122074037904 19.011658408710563 9.0398645793351253 1 rotate no_reflect no_shear #
lump $-1 $-1 $46 $7 #
transform $-1 1 0 0 0 1 0 0 0 1 40.00122074037904 19.011658408710563 9.0398645793351253 1 rotate no_reflect no_shear #
lump $-1 $-1 $47 $8 #
transform $-1 1 0 0 0 1 0 0 0 1 40.00122074037904 19.011658408710563 9.0398645793351253 1 rotate no_reflect no_shear #
lump $-1 $-1 $48 $9 #
transform $-1 1 0 0 0 1 0 0 0 1 40.00122074037904 19.011658408710563 9.0398645793351253 1 rotate no_reflect no_shear #
lump $-1 $-1 $49 $10 #
transform $-1 1 0 0 0 1 0 0 0 1 40.00122074037904 19.011658408710563 9.0398645793351253 1 rotate no_reflect no_shear #
lump $-1 $-1 $50 $11 #
transform $-1 1 0 0 0 1 0 0 0 1 40.00122074037904 19.011658408710563 9.0398645793351253 1 rotate no_reflect no_shear #
lump $-1 $-1 $51 $12 #
transform $-1 1 0 0 0 1 0 0 0 1 40.00122074037904 19.011658408710563 9.0398645793351253 1 rotate no_reflect no_shear #
shell $-1 $-1 $-1 $52 $-1 $13 #
shell $-1 $-1 $-1 $53 $-1 $15 #
shell $-1 $-1 $-1 $54 $-1 $17 #
shell $-1 $-1 $-1 $55 $-1 $19 #
shell $-1 $-1 $-1 $56 $-1 $21 #
shell $-1 $-1 $-1 $57 $-1 $23 #
shell $-1 $-1 $-1 $58 $-1 $25 #
shell $-1 $-1 $-1 $59 $-1 $27 #
shell $-1 $-1 $-1 $60 $-1 $29 #
shell $-1 $-1 $-1 $61 $-1 $31 #
shell $-1 $-1 $-1 $62 $-1 $33 #
shell $-1 $-1 $-1 $63 $-1 $35 #
shell $-1 $-1 $-1 $64 $-1 $37 #
face $-1 $65 $66 $39 $-1 $67 forward single #
face $-1 $68 $69 $40 $-1 $70 reversed single #
face $-1 $71 $72 $41 $-1 $73 reversed single #
face $-1 $74 $75 $42 $-1 $76 forward single #
face $-1 $77 $78 $43 $-1 $79 forward single #
face $-1 $80 $81 $44 $-1 $82 reversed single #
face $-1 $83 $84 $45 $-1 $85 forward single #
face $-1 $86 $87 $46 $-1 $88 forward single #
face $-1 $89 $90 $47 $-1 $91 forward single #
face $-1 $92 $93 $48 $-1 $94 reversed single #
face $-1 $95 $96 $49 $-1 $97 forward single #
face $-1 $98 $99 $50 $-1 $100 forward single #
face $-1 $101 $102 $51 $-1 $103 forward single #
face $-1 $104 $105 $39 $-1 $106 reversed single #
loop $-1 $-1 $107 $52 #
plane-surface $-1 0 0 9.0398645793351253 0 0 1 1 0 0 forward_v I I I I #
face $-1 $108 $109 $40 $-1 $110 reversed single #
loop $-1 $-1 $111 $53 #
plane-surface $-1 -35.580702959246388 -16.648781074163807 0 0 1 0 0 0 1 forward_v I I I I #
face $-1 $112 $113 $41 $-1 $114 reversed single #
loop $-1 $-1 $115 $54 #
plane-surface $-1 -12.389618831053433 -67.158330190202662 67.309119129656494 -1 0 0 0 -0.6018150307709319 0.79863550430605224 forward_v I I I I #
face $-1 $116 $117 $42 $-1 $118 forward single #
loop $-1 $119 $120 $55 #
cone-surface $-1 -25.797166221810791 -13.463006702906938 3.8164451780042334 0 0.6018150307709319 -0.79863550430605224 2 0 0 1 I I 0 1 2 forward I I I I #
face $-1 $121 $122 $43 $-1 $123 forward single #
loop $-1 $124 $125 $56 #
cone-surface $-1 -17.752637787356377 -13.463006702906938 3.8164451780042334 0 0.6018150307709319 -0.79863550430605224 2 0 0 1 I I 0 1 2 forward I I I I #
face $-1 $126 $127 $44 $-1 $128 reversed single #
loop $-1 $-1 $129 $57 #
plane-surface $-1 -20.816515058150962 68.003680449622891 75.702225937754264 1 0 0 0 -0.85716730853699208 -0.51503806187062418 forward_v I I I I #
face $-1 $130 $131 $45 $-1 $132 forward single #
loop $-1 $133 $134 $58 #
cone-surface $-1 -18.291237456052382 15.799492486868266 4.8305158767431067 0 -0.85716730853699208 -0.51503806187062418 1 0 0 1 I I 0 1 1 forward I I I I #
face $-1 $135 $136 $46 $-1 $137 forward single #
loop $-1 $138 $139 $59 #
cone-surface $-1 -14.503321052904511 15.799492486868266 4.8305158767431067 0 -0.85716730853699208 -0.51503806187062418 1 0 0 1 I I 0 1 1 forward I I I I #
face $-1 $140 $141 $47 $-1 $142 forward single #
loop $-1 $143 $144 $60 #
cone-surface $-1 -10.715404649756639 15.799492486868266 4.8305158767431067 0 -0.85716730853699208 -0.51503806187062418 1 0 0 1 I I 0 1 1 forward I I I I #
face $-1 $145 $146 $48 $-1 $147 reversed single #
loop $-1 $-1 $148 $61 #
plane-surface $-1 17.031162609923364 68.003680449622891 75.702225937754264 1 0 0 0 -0.85716730853699208 -0.51503806187062418 forward_v I I I I #
face $-1 $149 $150 $49 $-1 $151 forward single #
loop $-1 $152 $153 $62 #
cone-surface $-1 19.55644021202194 15.799492486868266 4.8305158767431067 0 -0.85716730853699208 -0.51503806187062418 1 0 0 1 I I 0 1 1 forward I I I I #
face $-1 $154 $155 $50 $-1 $156 forward single #
loop $-1 $157 $158 $63 #
cone-surface $-1 23.344356615169815 15.799492486868266 4.8305158767431067 0 -0.85716730853699208 -0.51503806187062418 1 0 0 1 I I 0 1 1 forward I I I I #
face $-1 $159 $160 $51 $-1 $161 forward single #
loop $-1 $162 $163 $64 #
cone-surface $-1 27.13227301831769 15.799492486868266 4.8305158767431067 0 -0.85716730853699208 -0.51503806187062418 1 0 0 1 I I 0 1 1 forward I I I I #
face $-1 $164 $165 $39 $-1 $166 reversed single #
loop $-1 $-1 $167 $65 #
plane-surface $-1 0 0 -9.0398645793351253 0 0 1 1 0 0 forward_v I I I I #
coedge $-1 $168 $169 $170 $171 forward $66 $-1 #
face $-1 $172 $173 $40 $-1 $174 reversed single #
loop $-1 $-1 $175 $68 #
plane-surface $-1 -35.580702959246388 -12.380040431564474 0 0 -1 0 0 0 -1 forward_v I I I I #
coedge $-1 $176 $177 $178 $179 reversed $69 $-1 #
face $-1 $180 $181 $41 $-1 $182 reversed single #
loop $-1 $-1 $183 $71 #
plane-surface $-1 -21.774902004583584 -19.011658408710559 3.4163289319558316 0 -0.6018150307709319 0.79863550430605224 1 0 0 forward_v I I I I #
coedge $-1 $184 $185 $186 $187 reversed $72 $-1 #
face $-1 $-1 $188 $42 $-1 $189 forward single #
loop $-1 $190 $191 $74 #
cone-surface $-1 -25.797166221810791 -11.043881822296491 0.60615809605692839 0 0.6018150307709319 -0.79863550430605224 1 0 0 1 I I -0.70710678118654768 0.70710678118654735 1 forward I I I I #
loop $-1 $-1 $192 $55 #
coedge $-1 $120 $120 $193 $194 reversed $75 $-1 #
face $-1 $-1 $195 $43 $-1 $196 forward single #
loop $-1 $197 $198 $77 #
cone-surface $-1 -17.752637787356377 -11.043881822296491 0.60615809605692839 0 0.6018150307709319 -0.79863550430605224 1 0 0 1 I I -0.70710678118654768 0.70710678118654735 1 forward I I I I #
loop $-1 $-1 $199 $56 #
coedge $-1 $125 $125 $200 $201 reversed $78 $-1 #
face $-1 $202 $203 $44 $-1 $204 reversed single #
loop $-1 $-1 $205 $80 #
plane-surface $-1 -14.503321052904511 -0.57179699082672641 34.497923532586597 0 0.85716730853699208 0.51503806187062418 1 0 0 forward_v I I I I #
coedge $-1 $206 $207 $208 $209 reversed $81 $-1 #
face $-1 $-1 $210 $45 $-1 $211 forward single #
loop $-1 $212 $213 $83 #
cone-surface $-1 -18.291237456052382 14.302098343127124 3.9307907356091487 0 -0.85716730853699208 -0.51503806187062418 0.5 0 0 1 I I -0.70710678118654746 0.70710678118654746 0.5 forward I I I I #
loop $-1 $-1 $214 $58 #
coedge $-1 $134 $134 $215 $216 reversed $84 $-1 #
face $-1 $-1 $217 $46 $-1 $218 forward single #
loop $-1 $219 $220 $86 #
cone-surface $-1 -14.503321052904511 14.302098343127124 3.9307907356091487 0 -0.85716730853699208 -0.51503806187062418 0.5 0 0 1 I I -0.70710678118654746 0.70710678118654746 0.5 forward I I I I #
loop $-1 $-1 $221 $59 #
coedge $-1 $139 $139 $222 $223 reversed $87 $-1 #
face $-1 $-1 $224 $47 $-1 $225 forward single #
loop $-1 $226 $227 $89 #
cone-surface $-1 -10.715404649756639 14.302098343127124 3.9307907356091487 0 -0.85716730853699208 -0.51503806187062418 0.5 0 0 1 I I -0.70710678118654746 0.70710678118654746 0.5 forward I I I I #
loop $-1 $-1 $228 $60 #
coedge $-1 $144 $144 $229 $230 reversed $90 $-1 #
face $-1 $231 $232 $48 $-1 $233 reversed single #
loop $-1 $-1 $234 $92 #
plane-surface $-1 23.344356615169815 -0.57179699082672641 34.497923532586597 0 0.85716730853699208 0.51503806187062418 1 0 0 forward_v I I I I #
coedge $-1 $235 $236 $237 $238 reversed $93 $-1 #
face $-1 $-1 $239 $49 $-1 $240 forward single #
loop $-1 $241 $242 $95 #
cone-surface $-1 19.55644021202194 14.302098343127124 3.9307907356091487 0 -0.85716730853699208 -0.51503806187062418 0.5 0 0 1 I I -0.70710678118654746 0.70710678118654746 0.5 forward I I I I #
loop $-1 $-1 $243 $62 #
coedge $-1 $153 $153 $244 $245 reversed $96 $-1 #
face $-1 $-1 $246 $50 $-1 $247 forward single #
loop $-1 $248 $249 $98 #
cone-surface $-1 23.344356615169815 14.302098343127124 3.9307907356091487 0 -0.85716730853699208 -0.51503806187062418 0.5 0 0 1 I I -0.70710678118654746 0.70710678118654746 0.5 forward I I I I #
loop $-1 $-1 $250 $63 #
coedge $-1 $158 $158 $251 $252 reversed $99 $-1 #
face $-1 $-1 $253 $51 $-1 $254 forward single #
loop $-1 $255 $256 $101 #
cone-surface $-1 27.13227301831769 14.302098343127124 3.9307907356091487 0 -0.85716730853699208 -0.51503806187062418 0.5 0 0 1 I I -0.70710678118654746 0.70710678118654746 0.5 forward I I I I #
loop $-1 $-1 $257 $64 #
coedge $-1 $163 $163 $258 $259 reversed $102 $-1 #
face $-1 $260 $261 $39 $-1 $262 reversed single #
loop $-1 $-1 $263 $104 #
plane-surface $-1 0 -19.011658408710563 0 0 1 0 0 0 1 forward_v I I I I #
coedge $-1 $264 $265 $266 $267 forward $105 $-1 #
coedge $-1 $268 $107 $269 $270 forward $66 $-1 #
coedge $-1 $107 $268 $271 $272 forward $66 $-1 #
coedge $-1 $273 $274 $107 $171 reversed $275 $-1 #
edge $-1 $276 -19.011658408710563 $277 19.011658408710563 $170 $278 forward 7 unknown #
face $-1 $279 $280 $40 $-1 $281 reversed single #
loop $-1 $-1 $282 $108 #
plane-surface $-1 -31.160185178113736 -14.514410752864141 0 -1 0 0 0 0 1 forward_v I I I I #
coedge $-1 $283 $284 $285 $286 forward $109 $-1 #
coedge $-1 $287 $111 $288 $289 reversed $69 $-1 #
coedge $-1 $111 $287 $290 $291 reversed $69 $-1 #
coedge $-1 $292 $293 $111 $179 forward $294 $-1 #
edge $-1 $295 -9.0398645793351253 $296 9.0398645793351253 $178 $297 forward 7 unknown #
face $-1 $298 $299 $41 $-1 $300 forward single #
loop $-1 $-1 $301 $112 #
plane-surface $-1 0 -19.011658408710563 0 0 1 0 0 0 1 forward_v I I I I #
coedge $-1 $302 $303 $304 $305 reversed $113 $-1 #
coedge $-1 $185 $115 $306 $307 reversed $72 $-1 #
coedge $-1 $115 $184 $302 $308 reversed $72 $-1 #
coedge $-1 $304 $309 $115 $187 forward $299 $-1 #
edge $-1 $310 14.567506686390768 $311 22.030190398319007 $186 $312 forward 7 unknown #
loop $-1 $-1 $193 $116 #
plane-surface $-1 -21.774902004583584 -19.011658408710559 3.4163289319558316 0 -0.6018150307709319 0.79863550430605224 1 0 0 forward_v I I I I #
loop $-1 $-1 $313 $74 #
coedge $-1 $191 $191 $192 $314 reversed $117 $-1 #
coedge $-1 $192 $192 $191 $314 forward $119 $-1 #
coedge $-1 $193 $193 $120 $194 forward $188 $-1 #
edge $-1 $315 3.6979145736760323e-016 $315 6.2831853071796004 $193 $316 forward 7 unknown #
loop $-1 $-1 $200 $121 #
plane-surface $-1 -21.774902004583584 -19.011658408710559 3.4163289319558316 0 -0.6018150307709319 0.79863550430605224 1 0 0 forward_v I I I I #
loop $-1 $-1 $317 $77 #
coedge $-1 $198 $198 $199 $318 reversed $122 $-1 #
coedge $-1 $199 $199 $198 $318 forward $124 $-1 #
coedge $-1 $200 $200 $125 $201 forward $195 $-1 #
edge $-1 $319 3.6979145736760323e-016 $319 6.2831853071796004 $200 $320 forward 7 unknown #
face $-1 $321 $322 $44 $-1 $323 forward single #
loop $-1 $-1 $324 $126 #
plane-surface $-1 -8.1901270476580574 68.003680449622891 75.702225937754264 -1 0 0 0 0.85716730853699208 0.51503806187062418 forward_v I I I I #
coedge $-1 $325 $326 $327 $328 reversed $127 $-1 #
coedge $-1 $207 $129 $329 $330 reversed $81 $-1 #
coedge $-1 $129 $206 $325 $331 reversed $81 $-1 #
coedge $-1 $327 $332 $129 $209 forward $322 $-1 #
edge $-1 $333 14.990181816100883 $334 19.276892680840188 $208 $335 forward 7 unknown #
loop $-1 $-1 $215 $130 #
plane-surface $-1 -14.503321052904511 -0.57179699082672641 34.497923532586597 0 0.85716730853699208 0.51503806187062418 1 0 0 forward_v I I I I #
loop $-1 $-1 $336 $83 #
coedge $-1 $213 $213 $214 $337 reversed $131 $-1 #
coedge $-1 $214 $214 $213 $337 forward $133 $-1 #
coedge $-1 $215 $215 $134 $216 forward $210 $-1 #
edge $-1 $338 3.0714775648067455e-016 $338 6.2831853071796004 $215 $339 forward 7 unknown #
loop $-1 $-1 $222 $135 #
plane-surface $-1 -14.503321052904511 -0.57179699082672641 34.497923532586597 0 0.85716730853699208 0.51503806187062418 1 0 0 forward_v I I I I #
loop $-1 $-1 $340 $86 #
coedge $-1 $220 $220 $221 $341 reversed $136 $-1 #
coedge $-1 $221 $221 $220 $341 forward $138 $-1 #
coedge $-1 $222 $222 $139 $223 forward $217 $-1 #
edge $-1 $342 3.0714775648067455e-016 $342 6.2831853071796004 $222 $343 forward 7 unknown #
loop $-1 $-1 $229 $140 #
plane-surface $-1 -14.503321052904511 -0.57179699082672641 34.497923532586597 0 0.85716730853699208 0.51503806187062418 1 0 0 forward_v I I I I #
loop $-1 $-1 $344 $89 #
coedge $-1 $227 $227 $228 $345 reversed $141 $-1 #
coedge $-1 $228 $228 $227 $345 forward $143 $-1 #
coedge $-1 $229 $229 $144 $230 forward $224 $-1 #
edge $-1 $346 3.0714775648067455e-016 $346 6.2831853071796004 $229 $347 forward 7 unknown #
face $-1 $348 $349 $48 $-1 $350 forward single #
loop $-1 $-1 $351 $145 #
plane-surface $-1 29.657550620416266 68.003680449622891 75.702225937754264 -1 0 0 0 0.85716730853699208 0.51503806187062418 forward_v I I I I #
coedge $-1 $352 $353 $354 $355 reversed $146 $-1 #
coedge $-1 $236 $148 $356 $357 reversed $93 $-1 #
coedge $-1 $148 $235 $352 $358 reversed $93 $-1 #
coedge $-1 $354 $359 $148 $238 forward $349 $-1 #
edge $-1 $360 14.990181816100883 $361 19.276892680840188 $237 $362 forward 7 unknown #
loop $-1 $-1 $244 $149 #
plane-surface $-1 23.344356615169815 -0.57179699082672641 34.497923532586597 0 0.85716730853699208 0.51503806187062418 1 0 0 forward_v I I I I #
loop $-1 $-1 $363 $95 #
coedge $-1 $242 $242 $243 $364 reversed $150 $-1 #
coedge $-1 $243 $243 $242 $364 forward $152 $-1 #
coedge $-1 $244 $244 $153 $245 forward $239 $-1 #
edge $-1 $365 3.0714775648067455e-016 $365 6.2831853071796004 $244 $366 forward 7 unknown #
loop $-1 $-1 $251 $154 #
plane-surface $-1 23.344356615169815 -0.57179699082672641 34.497923532586597 0 0.85716730853699208 0.51503806187062418 1 0 0 forward_v I I I I #
loop $-1 $-1 $367 $98 #
coedge $-1 $249 $249 $250 $368 reversed $155 $-1 #
coedge $-1 $250 $250 $249 $368 forward $157 $-1 #
coedge $-1 $251 $251 $158 $252 forward $246 $-1 #
edge $-1 $369 3.0714775648067455e-016 $369 6.2831853071796004 $251 $370 forward 7 unknown #
loop $-1 $-1 $258 $159 #
plane-surface $-1 23.344356615169815 -0.57179699082672641 34.497923532586597 0 0.85716730853699208 0.51503806187062418 1 0 0 forward_v I I I I #
loop $-1 $-1 $371 $101 #
coedge $-1 $256 $256 $257 $372 reversed $160 $-1 #
coedge $-1 $257 $257 $256 $372 forward $162 $-1 #
coedge $-1 $258 $258 $163 $259 forward $253 $-1 #
edge $-1 $373 3.0714775648067455e-016 $373 6.2831853071796004 $258 $374 forward 7 unknown #
face $-1 $375 $376 $39 $-1 $377 reversed single #
loop $-1 $-1 $378 $164 #
plane-surface $-1 -40.00122074037904 0 0 1 0 0 0 0 -1 forward_v I I I I #
coedge $-1 $379 $271 $380 $381 forward $165 $-1 #
coedge $-1 $382 $167 $379 $383 forward $105 $-1 #
coedge $-1 $167 $382 $384 $385 forward $105 $-1 #
coedge $-1 $274 $273 $167 $267 reversed $275 $-1 #
edge $-1 $386 -19.011658408710563 $387 19.011658408710563 $266 $388 forward 7 unknown #
coedge $-1 $169 $168 $389 $390 forward $66 $-1 #
coedge $-1 $391 $392 $168 $270 reversed $376 $-1 #
edge $-1 $277 -40.00122074037904 $393 40.00122074037904 $269 $394 forward 7 unknown #
coedge $-1 $263 $395 $169 $272 reversed $165 $-1 #
edge $-1 $396 -40.00122074037904 $276 40.00122074037904 $271 $397 forward 7 unknown #
coedge $-1 $266 $170 $395 $398 forward $275 $-1 #
coedge $-1 $170 $266 $391 $399 reversed $275 $-1 #
loop $-1 $-1 $273 $375 #
vertex $-1 $171 $400 #
vertex $-1 $171 $401 #
straight-curve $-1 40.00122074037904 0 9.0398645793351253 0 1 0 I I #
face $-1 $402 $403 $40 $-1 $404 forward single #
loop $-1 $-1 $405 $172 #
plane-surface $-1 0 0 -9.0398645793351253 0 0 1 1 0 0 forward_v I I I I #
coedge $-1 $406 $407 $287 $408 forward $173 $-1 #
coedge $-1 $409 $175 $405 $410 reversed $109 $-1 #
coedge $-1 $175 $409 $411 $412 reversed $109 $-1 #
coedge $-1 $407 $406 $175 $286 reversed $173 $-1 #
edge $-1 $413 -9.0398645793351253 $414 9.0398645793351253 $285 $415 forward 7 unknown #
coedge $-1 $177 $176 $282 $408 reversed $69 $-1 #
coedge $-1 $416 $417 $176 $289 forward $280 $-1 #
edge $-1 $418 13.369833698490542 $295 22.210869260755846 $288 $419 forward 7 unknown #
coedge $-1 $420 $421 $177 $291 forward $403 $-1 #
edge $-1 $296 -22.210869260755846 $422 -13.369833698490542 $290 $423 forward 7 unknown #
coedge $-1 $424 $178 $421 $425 reversed $294 $-1 #
coedge $-1 $178 $424 $416 $426 reversed $294 $-1 #
loop $-1 $-1 $424 $402 #
vertex $-1 $426 $427 #
vertex $-1 $179 $428 #
straight-curve $-1 -40.00122074037904 -16.648781074163807 0 0 0 1 I I #
face $-1 $-1 $429 $41 $-1 $430 forward single #
loop $-1 $-1 $431 $180 #
plane-surface $-1 0 0 9.0398645793351253 0 0 1 1 0 0 forward_v I I I I #
coedge $-1 $432 $433 $434 $435 forward $181 $-1 #
coedge $-1 $436 $183 $185 $308 forward $113 $-1 #
coedge $-1 $183 $436 $437 $438 reversed $113 $-1 #
coedge $-1 $431 $186 $183 $305 forward $299 $-1 #
edge $-1 $311 1.5021678287616407 $439 20.272734175821945 $304 $440 forward 7 unknown #
coedge $-1 $433 $432 $184 $307 forward $181 $-1 #
edge $-1 $441 -30.238230632872419 $310 -24.614694985493124 $306 $442 forward 7 unknown #
edge $-1 $311 -9.3442924484213705 $441 4.4408806494695735e-015 $185 $443 forward 7 unknown #
coedge $-1 $186 $431 $433 $444 forward $299 $-1 #
vertex $-1 $187 $445 #
vertex $-1 $187 $446 #
straight-curve $-1 -12.389618831053433 -33.579165095101331 9.0398645793351236 0 1 0 I I #
coedge $-1 $313 $313 $-1 $447 reversed $190 $-1 #
edge $-1 $448 0 $448 6.2831853071796004 $191 $449 forward 7 unknown #
vertex $-1 $194 $450 #
ellipse-curve $-1 -25.797166221810791 -15.280316552746445 6.2280967556454758 0 -0.6018150307709319 0.79863550430605224 2 0 0 1 I I #
coedge $-1 $317 $317 $-1 $451 reversed $197 $-1 #
edge $-1 $452 0 $452 6.2831853071796004 $198 $453 forward 7 unknown #
vertex $-1 $201 $454 #
ellipse-curve $-1 -17.752637787356377 -15.280316552746445 6.2280967556454758 0 -0.6018150307709319 0.79863550430605224 2 0 0 1 I I #
face $-1 $-1 $455 $44 $-1 $456 reversed single #
loop $-1 $-1 $208 $202 #
plane-surface $-1 0 0 9.0398645793351253 0 0 1 1 0 0 forward_v I I I I #
coedge $-1 $457 $458 $459 $460 reversed $203 $-1 #
coedge $-1 $461 $205 $207 $331 forward $127 $-1 #
coedge $-1 $205 $461 $457 $462 forward $127 $-1 #
coedge $-1 $459 $208 $205 $328 forward $322 $-1 #
edge $-1 $334 -13.564854531698707 $463 -0.9384665212058021 $327 $464 forward 7 unknown #
coedge $-1 $465 $466 $206 $330 forward $455 $-1 #
edge $-1 $467 -35.945533574328756 $333 -28.811248389542008 $329 $468 forward 7 unknown #
edge $-1 $334 29.700221531667065 $467 38.02331681742114 $207 $469 forward 7 unknown #
coedge $-1 $208 $459 $465 $470 forward $322 $-1 #
vertex $-1 $330 $471 #
vertex $-1 $209 $472 #
straight-curve $-1 -20.816515058150962 34.001840224811446 9.0398645793351236 0 -1 0 I I #
coedge $-1 $336 $336 $-1 $473 reversed $212 $-1 #
edge $-1 $474 0 $474 6.2831853071796004 $213 $475 forward 7 unknown #
vertex $-1 $216 $476 #
ellipse-curve $-1 -18.291237456052382 16.868302976340907 5.4727219869417505 0 0.85716730853699208 0.51503806187062418 1 0 0 1 I I #
coedge $-1 $340 $340 $-1 $477 reversed $219 $-1 #
edge $-1 $478 0 $478 6.2831853071796004 $220 $479 forward 7 unknown #
vertex $-1 $223 $480 #
ellipse-curve $-1 -14.503321052904511 16.868302976340907 5.4727219869417505 0 0.85716730853699208 0.51503806187062418 1 0 0 1 I I #
coedge $-1 $344 $344 $-1 $481 reversed $226 $-1 #
edge $-1 $482 0 $482 6.2831853071796004 $227 $483 forward 7 unknown #
vertex $-1 $230 $484 #
ellipse-curve $-1 -10.715404649756639 16.868302976340907 5.4727219869417505 0 0.85716730853699208 0.51503806187062418 1 0 0 1 I I #
face $-1 $-1 $485 $48 $-1 $486 reversed single #
loop $-1 $-1 $237 $231 #
plane-surface $-1 0 0 9.0398645793351253 0 0 1 1 0 0 forward_v I I I I #
coedge $-1 $487 $488 $489 $490 reversed $232 $-1 #
coedge $-1 $491 $234 $236 $358 forward $146 $-1 #
coedge $-1 $234 $491 $487 $492 forward $146 $-1 #
coedge $-1 $489 $237 $234 $355 forward $349 $-1 #
edge $-1 $361 5.358984302338456 $493 17.985372312831359 $354 $494 forward 7 unknown #
coedge $-1 $495 $496 $235 $357 forward $485 $-1 #
edge $-1 $497 -35.945533574328756 $360 -28.811248389542008 $356 $498 forward 7 unknown #
edge $-1 $361 29.700221531667065 $497 38.02331681742114 $236 $499 forward 7 unknown #
coedge $-1 $237 $489 $495 $500 forward $349 $-1 #
vertex $-1 $238 $501 #
vertex $-1 $238 $502 #
straight-curve $-1 17.031162609923364 34.001840224811446 9.0398645793351236 0 -1 0 I I #
coedge $-1 $363 $363 $-1 $503 reversed $241 $-1 #
edge $-1 $504 0 $504 6.2831853071796004 $242 $505 forward 7 unknown #
vertex $-1 $245 $506 #
ellipse-curve $-1 19.55644021202194 16.868302976340907 5.4727219869417505 0 0.85716730853699208 0.51503806187062418 1 0 0 1 I I #
coedge $-1 $367 $367 $-1 $507 reversed $248 $-1 #
edge $-1 $508 0 $508 6.2831853071796004 $249 $509 forward 7 unknown #
vertex $-1 $252 $510 #
ellipse-curve $-1 23.344356615169815 16.868302976340907 5.4727219869417505 0 0.85716730853699208 0.51503806187062418 1 0 0 1 I I #
coedge $-1 $371 $371 $-1 $511 reversed $255 $-1 #
edge $-1 $512 0 $512 6.2831853071796004 $256 $513 forward 7 unknown #
vertex $-1 $259 $514 #
ellipse-curve $-1 27.13227301831769 16.868302976340907 5.4727219869417505 0 0.85716730853699208 0.51503806187062418 1 0 0 1 I I #
face $-1 $-1 $275 $39 $-1 $515 reversed single #
loop $-1 $-1 $391 $260 #
plane-surface $-1 0 19.011658408710563 0 0 -1 0 0 0 -1 forward_v I I I I #
coedge $-1 $516 $389 $392 $517 forward $261 $-1 #
coedge $-1 $395 $263 $264 $383 reversed $165 $-1 #
coedge $-1 $389 $516 $263 $381 reversed $261 $-1 #
edge $-1 $396 -9.0398645793351253 $518 9.0398645793351253 $380 $519 forward 7 unknown #
coedge $-1 $265 $264 $516 $520 forward $105 $-1 #
edge $-1 $387 -40.00122074037904 $518 40.00122074037904 $379 $521 forward 7 unknown #
coedge $-1 $392 $391 $265 $385 reversed $376 $-1 #
edge $-1 $522 -40.00122074037904 $386 40.00122074037904 $384 $523 forward 7 unknown #
vertex $-1 $267 $524 #
vertex $-1 $398 $525 #
straight-curve $-1 40.00122074037904 0 -9.0398645793351253 0 -1 0 I I #
coedge $-1 $378 $380 $268 $390 reversed $261 $-1 #
edge $-1 $393 -19.011658408710563 $396 19.011658408710563 $389 $526 forward 7 unknown #
coedge $-1 $384 $269 $274 $399 forward $376 $-1 #
coedge $-1 $269 $384 $378 $517 reversed $376 $-1 #
vertex $-1 $270 $527 #
straight-curve $-1 0 19.011658408710563 9.0398645793351253 -1 0 0 I I #
coedge $-1 $271 $379 $273 $398 reversed $165 $-1 #
vertex $-1 $390 $528 #
straight-curve $-1 0 -19.011658408710563 9.0398645793351253 1 0 0 I I #
edge $-1 $276 -9.0398645793351253 $387 9.0398645793351253 $273 $529 forward 7 unknown #
edge $-1 $277 -9.0398645793351253 $386 9.0398645793351253 $274 $530 forward 7 unknown #
point $-1 40.00122074037904 -19.011658408710563 9.0398645793351253 #
point $-1 40.00122074037904 19.011658408710563 9.0398645793351253 #
face $-1 $-1 $294 $40 $-1 $531 reversed single #
loop $-1 $-1 $411 $279 #
plane-surface $-1 0 0 9.0398645793351253 0 0 1 1 0 0 forward_v I I I I #
coedge $-1 $417 $416 $283 $410 forward $280 $-1 #
coedge $-1 $285 $282 $417 $532 reversed $173 $-1 #
coedge $-1 $282 $285 $420 $533 reversed $173 $-1 #
edge $-1 $422 -9.0398645793351253 $418 9.0398645793351253 $282 $534 forward 7 unknown #
coedge $-1 $284 $283 $424 $535 reversed $109 $-1 #
edge $-1 $536 -22.210869260755846 $414 -13.369833698490542 $405 $537 forward 7 unknown #
coedge $-1 $421 $420 $284 $412 forward $403 $-1 #
edge $-1 $413 13.369833698490542 $538 22.210869260755846 $411 $539 forward 7 unknown #
vertex $-1 $412 $540 #
vertex $-1 $410 $541 #
straight-curve $-1 -31.160185178113736 -12.380040431564474 0 0 0 -1 I I #
coedge $-1 $405 $288 $293 $426 forward $280 $-1 #
coedge $-1 $288 $405 $406 $532 forward $280 $-1 #
vertex $-1 $289 $542 #
straight-curve $-1 -17.790351479623194 -16.648781074163807 -9.0398645793351253 -1 0 0 I I #
coedge $-1 $411 $290 $407 $533 forward $403 $-1 #
coedge $-1 $290 $411 $292 $425 forward $403 $-1 #
vertex $-1 $291 $543 #
straight-curve $-1 -17.790351479623194 -16.648781074163807 9.0398645793351253 1 0 0 I I #
coedge $-1 $293 $292 $409 $535 forward $294 $-1 #
edge $-1 $538 12.380040431564474 $296 16.648781074163807 $292 $544 forward 7 unknown #
edge $-1 $295 -16.648781074163807 $536 -12.380040431564474 $293 $545 forward 7 unknown #
point $-1 -40.00122074037904 -16.648781074163807 -9.0398645793351253 #
point $-1 -40.00122074037904 -16.648781074163807 9.0398645793351253 #
loop $-1 $-1 $437 $298 #
plane-surface $-1 -31.160185178113736 -14.514410752864141 0 -1 0 0 0 0 1 forward_v I I I I #
coedge $-1 $309 $304 $546 $547 forward $299 $-1 #
coedge $-1 $306 $301 $436 $548 forward $181 $-1 #
coedge $-1 $301 $306 $309 $444 reversed $181 $-1 #
coedge $-1 $546 $437 $301 $435 reversed $429 $-1 #
edge $-1 $549 24.614694985493124 $550 30.238230632872419 $301 $551 forward 7 unknown #
coedge $-1 $303 $302 $432 $548 reversed $113 $-1 #
coedge $-1 $434 $546 $303 $438 forward $429 $-1 #
edge $-1 $439 -8.5764606742676222 $550 0.76783177415375325 $437 $552 forward 7 unknown #
vertex $-1 $547 $553 #
straight-curve $-1 -10.887451002291792 -11.548974696782325 9.0398645793351253 -1 0 0 I I #
vertex $-1 $307 $554 #
straight-curve $-1 -12.389618831053433 -19.011658408710563 33.654559564828247 0 0 1 I I #
straight-curve $-1 -12.389618831053433 -19.011658408710559 3.4163289319558316 0 -0.79863550430605224 -0.6018150307709319 I I #
edge $-1 $549 -31.160185178113736 $310 -12.389618831053433 $433 $555 forward 7 unknown #
point $-1 -12.389618831053433 -19.011658408710563 9.0398645793351253 #
point $-1 -12.389618831053433 -11.548974696782324 9.0398645793351253 #
edge $-1 $556 1 $556 0 $313 $-1 forward 7 unknown #
vertex $-1 $314 $557 #
ellipse-curve $-1 -25.797166221810791 -11.645696853067422 1.4047936003629804 0 -0.6018150307709319 0.79863550430605224 2 0 0 1 I I #
point $-1 -23.797166221810791 -15.280316552746452 6.2280967556454865 #
edge $-1 $558 1 $558 0 $317 $-1 forward 7 unknown #
vertex $-1 $318 $559 #
ellipse-curve $-1 -17.752637787356377 -11.645696853067422 1.4047936003629804 0 -0.6018150307709319 0.79863550430605224 2 0 0 1 I I #
point $-1 -15.752637787356377 -15.280316552746452 6.2280967556454865 #
loop $-1 $-1 $329 $321 #
plane-surface $-1 0 19.011658408710563 0 0 -1 0 0 0 -1 forward_v I I I I #
coedge $-1 $458 $324 $326 $462 reversed $203 $-1 #
coedge $-1 $324 $457 $560 $561 reversed $203 $-1 #
coedge $-1 $332 $327 $324 $460 forward $322 $-1 #
edge $-1 $463 -19.276892680840188 $562 -14.990181816100883 $459 $563 forward 7 unknown #
coedge $-1 $326 $325 $466 $564 reversed $127 $-1 #
edge $-1 $565 -38.02331681742114 $463 -29.700221531667065 $457 $566 forward 7 unknown #
vertex $-1 $328 $567 #
straight-curve $-1 -7.2516605264522553 14.724947543971254 9.0398645793351253 1 0 0 I I #
coedge $-1 $560 $329 $332 $470 reversed $455 $-1 #
coedge $-1 $329 $560 $461 $564 forward $455 $-1 #
vertex $-1 $330 $568 #
straight-curve $-1 -20.816515058150962 19.011658408710563 37.851112968877132 0 0 1 I I #
straight-curve $-1 -20.816515058150962 -0.57179699082672641 34.497923532586597 0 0.51503806187062418 -0.85716730853699208 I I #
edge $-1 $562 8.1901270476580574 $333 20.816515058150962 $465 $569 forward 7 unknown #
point $-1 -20.816515058150962 19.011658408710563 9.0398645793351253 #
point $-1 -20.816515058150962 14.724947543971258 9.0398645793351236 #
edge $-1 $570 1 $570 0 $336 $-1 forward 7 unknown #
vertex $-1 $337 $571 #
ellipse-curve $-1 -18.291237456052382 14.730681997395621 4.1883097665444611 0 0.85716730853699208 0.51503806187062418 1 0 0 1 I I #
point $-1 -17.291237456052382 16.86830297634091 5.4727219869417523 #
edge $-1 $572 1 $572 0 $340 $-1 forward 7 unknown #
vertex $-1 $341 $573 #
ellipse-curve $-1 -14.503321052904511 14.730681997395621 4.1883097665444611 0 0.85716730853699208 0.51503806187062418 1 0 0 1 I I #
point $-1 -13.503321052904511 16.86830297634091 5.4727219869417523 #
edge $-1 $574 1 $574 0 $344 $-1 forward 7 unknown #
vertex $-1 $345 $575 #
ellipse-curve $-1 -10.715404649756639 14.730681997395621 4.1883097665444611 0 0.85716730853699208 0.51503806187062418 1 0 0 1 I I #
point $-1 -9.7154046497566391 16.86830297634091 5.4727219869417523 #
loop $-1 $-1 $356 $348 #
plane-surface $-1 0 19.011658408710563 0 0 -1 0 0 0 -1 forward_v I I I I #
coedge $-1 $488 $351 $353 $492 reversed $232 $-1 #
coedge $-1 $351 $487 $576 $577 reversed $232 $-1 #
coedge $-1 $359 $354 $351 $490 forward $349 $-1 #
edge $-1 $493 -19.276892680840188 $578 -14.990181816100883 $489 $579 forward 7 unknown #
coedge $-1 $353 $352 $496 $580 reversed $146 $-1 #
edge $-1 $581 -38.02331681742114 $493 -29.700221531667065 $487 $582 forward 7 unknown #
vertex $-1 $355 $583 #
straight-curve $-1 11.672178307584907 14.724947543971254 9.0398645793351253 1 0 0 I I #
coedge $-1 $576 $356 $359 $500 reversed $485 $-1 #
coedge $-1 $356 $576 $491 $580 forward $485 $-1 #
vertex $-1 $357 $584 #
straight-curve $-1 17.031162609923364 19.011658408710563 37.851112968877132 0 0 1 I I #
straight-curve $-1 17.031162609923364 -0.57179699082672641 34.497923532586597 0 0.51503806187062418 -0.85716730853699208 I I #
edge $-1 $578 -29.657550620416266 $360 -17.031162609923364 $495 $585 forward 7 unknown #
point $-1 17.031162609923364 19.011658408710563 9.0398645793351253 #
point $-1 17.031162609923364 14.724947543971258 9.0398645793351236 #
edge $-1 $586 1 $586 0 $363 $-1 forward 7 unknown #
vertex $-1 $364 $587 #
ellipse-curve $-1 19.55644021202194 14.730681997395621 4.1883097665444611 0 0.85716730853699208 0.51503806187062418 1 0 0 1 I I #
point $-1 20.55644021202194 16.86830297634091 5.4727219869417523 #
edge $-1 $588 1 $588 0 $367 $-1 forward 7 unknown #
vertex $-1 $368 $589 #
ellipse-curve $-1 23.344356615169815 14.730681997395621 4.1883097665444611 0 0.85716730853699208 0.51503806187062418 1 0 0 1 I I #
point $-1 24.344356615169815 16.86830297634091 5.4727219869417523 #
edge $-1 $590 1 $590 0 $371 $-1 forward 7 unknown #
vertex $-1 $372 $591 #
ellipse-curve $-1 27.13227301831769 14.730681997395621 4.1883097665444611 0 0.85716730853699208 0.51503806187062418 1 0 0 1 I I #
point $-1 28.13227301831769 16.86830297634091 5.4727219869417523 #
plane-surface $-1 40.00122074037904 0 0 -1 0 0 0 0 1 forward_v I I I I #
coedge $-1 $380 $378 $382 $520 reversed $261 $-1 #
edge $-1 $393 -9.0398645793351253 $522 9.0398645793351253 $392 $592 forward 7 unknown #
vertex $-1 $520 $593 #
straight-curve $-1 -40.00122074037904 -19.011658408710563 0 0 0 -1 I I #
edge $-1 $518 -19.011658408710563 $522 19.011658408710563 $516 $594 forward 7 unknown #
straight-curve $-1 0 -19.011658408710563 -9.0398645793351253 -1 0 0 I I #
vertex $-1 $385 $595 #
straight-curve $-1 0 19.011658408710563 -9.0398645793351253 1 0 0 I I #
point $-1 40.00122074037904 19.011658408710563 -9.0398645793351253 #
point $-1 40.00122074037904 -19.011658408710563 -9.0398645793351253 #
straight-curve $-1 -40.00122074037904 0 9.0398645793351253 0 -1 0 I I #
point $-1 -40.00122074037904 19.011658408710563 9.0398645793351253 #
point $-1 -40.00122074037904 -19.011658408710563 9.0398645793351253 #
straight-curve $-1 40.00122074037904 -19.011658408710563 0 0 0 -1 I I #
straight-curve $-1 40.00122074037904 19.011658408710563 0 0 0 -1 I I #
plane-surface $-1 -40.00122074037904 0 0 1 0 0 0 0 -1 forward_v I I I I #
edge $-1 $414 5.1228350551324038 $418 9.3915756977317368 $417 $596 forward 7 unknown #
edge $-1 $422 -9.3915756977317368 $413 -5.1228350551324038 $420 $597 forward 7 unknown #
straight-curve $-1 -31.160185178113736 -16.648781074163807 0 0 0 -1 I I #
edge $-1 $538 -9.0398645793351253 $536 9.0398645793351253 $424 $598 forward 7 unknown #
vertex $-1 $535 $599 #
straight-curve $-1 -17.790351479623194 -12.380040431564474 -9.0398645793351253 1 0 0 I I #
vertex $-1 $425 $600 #
straight-curve $-1 -17.790351479623194 -12.380040431564474 9.0398645793351253 -1 0 0 I I #
point $-1 -31.160185178113736 -12.380040431564474 9.0398645793351253 #
point $-1 -31.160185178113736 -12.380040431564474 -9.0398645793351253 #
point $-1 -31.160185178113736 -16.648781074163807 -9.0398645793351253 #
point $-1 -31.160185178113736 -16.648781074163807 9.0398645793351253 #
straight-curve $-1 -40.00122074037904 0 9.0398645793351253 0 -1 0 I I #
straight-curve $-1 -40.00122074037904 0 -9.0398645793351253 0 1 0 I I #
coedge $-1 $437 $434 $431 $547 reversed $429 $-1 #
edge $-1 $439 -22.030190398319007 $549 -14.567506686390768 $431 $601 forward 7 unknown #
edge $-1 $550 -20.272734175821945 $441 -1.5021678287616407 $432 $602 forward 7 unknown #
vertex $-1 $444 $603 #
vertex $-1 $435 $604 #
straight-curve $-1 -31.160185178113736 -19.011658408710563 33.654559564828247 0 0 -1 I I #
straight-curve $-1 -31.160185178113736 -18.398440692537068 3.878421634745068 0 -0.79863550430605224 -0.6018150307709319 I I #
point $-1 -31.160185178113736 -11.548974696782324 9.0398645793351253 #
point $-1 -12.389618831053433 -19.011658408710563 3.416328931955829 #
straight-curve $-1 0 -19.011658408710563 9.0398645793351253 1 0 0 I I #
vertex $-1 $447 $605 #
point $-1 -23.797166221810791 -11.645696853067422 1.4047936003629804 #
vertex $-1 $451 $606 #
point $-1 -15.752637787356377 -11.645696853067422 1.4047936003629804 #
coedge $-1 $466 $465 $458 $561 forward $455 $-1 #
edge $-1 $562 28.811248389542008 $565 35.945533574328756 $560 $607 forward 7 unknown #
vertex $-1 $470 $608 #
straight-curve $-1 -8.1901270476580574 34.001840224811446 9.0398645793351236 0 1 0 I I #
edge $-1 $565 0.9384665212058021 $467 13.564854531698707 $466 $609 forward 7 unknown #
vertex $-1 $564 $610 #
straight-curve $-1 -8.1901270476580574 -0.57179699082672641 34.497923532586597 0 -0.51503806187062418 0.85716730853699208 I I #
point $-1 -8.1901270476580574 14.724947543971258 9.0398645793351236 #
point $-1 -20.816515058150962 19.011658408710563 1.9055793945483757 #
straight-curve $-1 0 19.011658408710563 9.0398645793351253 -1 0 0 I I #
vertex $-1 $473 $611 #
point $-1 -17.291237456052382 14.730681997395621 4.1883097665444611 #
vertex $-1 $477 $612 #
point $-1 -13.503321052904511 14.730681997395621 4.1883097665444611 #
vertex $-1 $481 $613 #
point $-1 -9.7154046497566391 14.730681997395621 4.1883097665444611 #
coedge $-1 $496 $495 $488 $577 forward $485 $-1 #
edge $-1 $578 28.811248389542008 $581 35.945533574328756 $576 $614 forward 7 unknown #
vertex $-1 $500 $615 #
straight-curve $-1 29.657550620416266 34.001840224811446 9.0398645793351236 0 1 0 I I #
edge $-1 $581 -17.985372312831359 $497 -5.358984302338456 $496 $616 forward 7 unknown #
vertex $-1 $580 $617 #
straight-curve $-1 29.657550620416266 -0.57179699082672641 34.497923532586597 0 -0.51503806187062418 0.85716730853699208 I I #
point $-1 29.657550620416266 14.724947543971258 9.0398645793351236 #
point $-1 17.031162609923364 19.011658408710563 1.9055793945483757 #
straight-curve $-1 0 19.011658408710563 9.0398645793351253 -1 0 0 I I #
vertex $-1 $503 $618 #
point $-1 20.55644021202194 14.730681997395621 4.1883097665444611 #
vertex $-1 $507 $619 #
point $-1 24.344356615169815 14.730681997395621 4.1883097665444611 #
vertex $-1 $511 $620 #
point $-1 28.13227301831769 14.730681997395621 4.1883097665444611 #
straight-curve $-1 -40.00122074037904 19.011658408710563 0 0 0 -1 I I #
point $-1 -40.00122074037904 -19.011658408710563 -9.0398645793351253 #
straight-curve $-1 -40.00122074037904 0 -9.0398645793351253 0 1 0 I I #
point $-1 -40.00122074037904 19.011658408710563 -9.0398645793351253 #
straight-curve $-1 -31.160185178113736 -7.2572053764320703 -9.0398645793351253 0 -1 0 I I #
straight-curve $-1 -31.160185178113736 -7.2572053764320703 9.0398645793351253 0 1 0 I I #
straight-curve $-1 -40.00122074037904 -12.380040431564474 0 0 0 -1 I I #
point $-1 -40.00122074037904 -12.380040431564474 -9.0398645793351253 #
point $-1 -40.00122074037904 -12.380040431564474 9.0398645793351253 #
straight-curve $-1 -31.160185178113736 -33.579165095101331 9.0398645793351236 0 -1 0 I I #
straight-curve $-1 -10.887451002291792 -19.011658408710563 3.4163289319558281 1 0 0 I I #
point $-1 -31.160185178113736 -19.011658408710563 9.0398645793351253 #
point $-1 -31.160185178113736 -19.011658408710563 3.416328931955829 #
point $-1 -25.797166221810791 -10.44206679152556 -0.19247740824912352 #
point $-1 -17.752637787356377 -10.44206679152556 -0.19247740824912352 #
straight-curve $-1 -8.1901270476580574 19.011658408710563 37.851112968877132 0 0 -1 I I #
point $-1 -8.1901270476580574 19.011658408710563 9.0398645793351253 #
straight-curve $-1 -7.2516605264522553 19.011658408710563 1.905579394548381 -1 0 0 I I #
point $-1 -8.1901270476580574 19.011658408710563 1.9055793945483757 #
point $-1 -18.291237456052382 13.873514688858627 3.6732717046738368 #
point $-1 -14.503321052904511 13.873514688858627 3.6732717046738368 #
point $-1 -10.715404649756639 13.873514688858627 3.6732717046738368 #
straight-curve $-1 29.657550620416266 19.011658408710563 37.851112968877132 0 0 -1 I I #
point $-1 29.657550620416266 19.011658408710563 9.0398645793351253 #
straight-curve $-1 11.672178307584907 19.011658408710563 1.905579394548381 -1 0 0 I I #
point $-1 29.657550620416266 19.011658408710563 1.9055793945483757 #
point $-1 19.55644021202194 13.873514688858627 3.6732717046738368 #
point $-1 23.344356615169815 13.873514688858627 3.6732717046738368 #
point $-1 27.13227301831769 13.873514688858627 3.6732717046738368 #
End-of-ACIS-data 