500 0 9 0           
7 Unknown 11 ACIS 5.0 NT 24 Thu Mar 25 15:30:51 1999 
-1 9.9999999999999995e-007 1e-010 
body $-1 $9 $-1 $10 #
body $-1 $11 $-1 $12 #
body $-1 $13 $-1 $14 #
body $-1 $15 $-1 $16 #
body $-1 $17 $-1 $18 #
body $-1 $19 $-1 $20 #
body $-1 $21 $-1 $22 #
body $-1 $23 $-1 $24 #
body $-1 $25 $-1 $26 #
lump $-1 $-1 $27 $0 #
transform $-1 1 0 0 0 1 0 0 0 1 70.706503494369343 42.358734812294998 11.011952471237946 1 rotate no_reflect no_shear #
lump $-1 $-1 $28 $1 #
transform $-1 1 0 0 0 1 0 0 0 1 70.706503494369343 42.358734812294998 11.011952471237946 1 rotate no_reflect no_shear #
lump $-1 $-1 $29 $2 #
transform $-1 1 0 0 0 1 0 0 0 1 70.706503494369343 42.358734812294998 11.011952471237946 1 rotate no_reflect no_shear #
lump $-1 $-1 $30 $3 #
transform $-1 1 0 0 0 1 0 0 0 1 70.706503494369343 42.358734812294998 11.011952471237946 1 rotate no_reflect no_shear #
lump $-1 $-1 $31 $4 #
transform $-1 1 0 0 0 1 0 0 0 1 70.706503494369343 42.358734812294998 11.011952471237946 1 rotate no_reflect no_shear #
lump $-1 $-1 $32 $5 #
transform $-1 1 0 0 0 1 0 0 0 1 70.706503494369343 42.358734812294998 11.011952471237946 1 rotate no_reflect no_shear #
lump $-1 $-1 $33 $6 #
transform $-1 1 0 0 0 1 0 0 0 1 70.706503494369343 42.358734812294998 11.011952471237946 1 rotate no_reflect no_shear #
lump $-1 $-1 $34 $7 #
transform $-1 1 0 0 0 1 0 0 0 1 70.706503494369343 42.358734812294998 11.011952471237946 1 rotate no_reflect no_shear #
lump $-1 $-1 $35 $8 #
transform $-1 1 0 0 0 1 0 0 0 1 70.706503494369343 42.358734812294998 11.011952471237946 1 rotate no_reflect no_shear #
shell $-1 $-1 $-1 $36 $-1 $9 #
shell $-1 $-1 $-1 $37 $-1 $11 #
shell $-1 $-1 $-1 $38 $-1 $13 #
shell $-1 $-1 $-1 $39 $-1 $15 #
shell $-1 $-1 $-1 $40 $-1 $17 #
shell $-1 $-1 $-1 $41 $-1 $19 #
shell $-1 $-1 $-1 $42 $-1 $21 #
shell $-1 $-1 $-1 $43 $-1 $23 #
shell $-1 $-1 $-1 $44 $-1 $25 #
face $-1 $45 $46 $27 $-1 $47 forward single #
face $-1 $48 $49 $28 $-1 $50 forward single #
face $-1 $51 $52 $29 $-1 $53 reversed single #
face $-1 $54 $55 $30 $-1 $56 forward single #
face $-1 $57 $58 $31 $-1 $59 forward single #
face $-1 $60 $61 $32 $-1 $62 reversed single #
face $-1 $63 $64 $33 $-1 $65 forward single #
face $-1 $66 $67 $34 $-1 $68 forward single #
face $-1 $69 $70 $35 $-1 $71 forward single #
face $-1 $72 $73 $27 $-1 $74 reversed single #
loop $-1 $-1 $75 $36 #
plane-surface $-1 0 0 11.011952471237946 0 0 1 1 0 0 forward_v I I I I #
face $-1 $76 $77 $28 $-1 $78 reversed single #
loop $-1 $-1 $79 $37 #
plane-surface $-1 -66.805505804681175 0 -0.7090016504824086 0 0 1 1 0 0 forward_v I I I I #
face $-1 $80 $81 $29 $-1 $82 reversed single #
loop $-1 $-1 $83 $38 #
plane-surface $-1 -62.904508114993007 124.9694955372065 149.7509387856706 1 0 0 0 -0.87461971476443456 -0.48480960649040278 forward_v I I I I #
face $-1 $84 $85 $30 $-1 $86 forward single #
loop $-1 $87 $88 $39 #
cone-surface $-1 -59.000838337477376 40.333054756163172 8.5330696438076554 0 -0.87461971476443456 -0.48480960649040278 1 0 0 1 I I 0 1 1 forward I I I I #
face $-1 $89 $90 $31 $-1 $91 forward single #
loop $-1 $92 $93 $40 #
cone-surface $-1 -53.145333671203943 40.333054756163172 8.5330696438076554 0 -0.87461971476443456 -0.48480960649040278 1 0 0 1 I I 0 1 1 forward I I I I #
face $-1 $94 $95 $32 $-1 $96 reversed single #
loop $-1 $-1 $97 $41 #
plane-surface $-1 39.036668669905744 -123.46990445993418 117.14347358571973 -1 0 0 0 -0.57357644374324357 0.81915203911291934 forward_v I I I I #
face $-1 $98 $99 $33 $-1 $100 forward single #
loop $-1 $101 $102 $42 #
cone-surface $-1 19.438375346796803 -33.961069529205531 4.064695197429149 0 0.57357644374324357 -0.81915203911291934 1.5 0 0 1 I I 0 1 1.5 forward I I I I #
face $-1 $103 $104 $34 $-1 $105 forward single #
loop $-1 $106 $107 $43 #
cone-surface $-1 26.787735342962648 -33.961069529205531 4.064695197429149 0 0.57357644374324357 -0.81915203911291934 1.5 0 0 1 I I 0 1 1.5 forward I I I I #
face $-1 $108 $109 $35 $-1 $110 forward single #
loop $-1 $111 $112 $44 #
cone-surface $-1 34.137095339128493 -33.961069529205531 4.064695197429149 0 0.57357644374324357 -0.81915203911291934 1.5 0 0 1 I I 0 1 1.5 forward I I I I #
face $-1 $113 $114 $27 $-1 $115 reversed single #
loop $-1 $-1 $116 $45 #
plane-surface $-1 0 0 -11.011952471237946 0 0 1 1 0 0 forward_v I I I I #
coedge $-1 $117 $118 $119 $120 forward $46 $-1 #
face $-1 $121 $122 $28 $-1 $123 reversed single #
loop $-1 $-1 $124 $48 #
plane-surface $-1 -66.805505804681175 0 -6.7183747062761707 0 0 1 1 0 0 forward_v I I I I #
coedge $-1 $125 $126 $127 $128 forward $49 $-1 #
face $-1 $129 $130 $29 $-1 $131 reversed single #
loop $-1 $-1 $132 $51 #
plane-surface $-1 -56.073086004340666 1.2868917007348699 81.192554514835621 0 0.87461971476443456 0.48480960649040278 1 0 0 forward_v I I I I #
coedge $-1 $133 $134 $135 $136 reversed $52 $-1 #
face $-1 $-1 $137 $30 $-1 $138 forward single #
loop $-1 $139 $140 $54 #
cone-surface $-1 -59.000838337477376 38.955115645315615 7.7692655506451036 0 -0.87461971476443456 -0.48480960649040278 0.5 0 0 1 I I -0.70710678118654746 0.70710678118654746 0.5 forward I I I I #
loop $-1 $-1 $141 $39 #
coedge $-1 $88 $88 $142 $143 reversed $55 $-1 #
face $-1 $-1 $144 $31 $-1 $145 forward single #
loop $-1 $146 $147 $57 #
cone-surface $-1 -53.145333671203943 38.955115645315615 7.7692655506451036 0 -0.87461971476443456 -0.48480960649040278 0.5 0 0 1 I I -0.70710678118654746 0.70710678118654746 0.5 forward I I I I #
loop $-1 $-1 $148 $40 #
coedge $-1 $93 $93 $149 $150 reversed $58 $-1 #
face $-1 $151 $152 $32 $-1 $153 reversed single #
loop $-1 $-1 $154 $60 #
plane-surface $-1 26.787735342962662 -42.358734812294998 1.3047205538049269 0 -0.57357644374324357 0.81915203911291934 1 0 0 forward_v I I I I #
coedge $-1 $155 $156 $157 $158 reversed $61 $-1 #
face $-1 $-1 $159 $33 $-1 $160 forward single #
loop $-1 $161 $162 $63 #
cone-surface $-1 19.438375346796803 -32.064903737106455 1.3566898530021785 0 0.57357644374324357 -0.81915203911291934 0.75 0 0 1 I I -0.70710678118654757 0.70710678118654757 0.75 forward I I I I #
loop $-1 $-1 $163 $42 #
coedge $-1 $102 $102 $164 $165 reversed $64 $-1 #
face $-1 $-1 $166 $34 $-1 $167 forward single #
loop $-1 $168 $169 $66 #
cone-surface $-1 26.787735342962648 -32.064903737106455 1.3566898530021785 0 0.57357644374324357 -0.81915203911291934 0.75 0 0 1 I I -0.70710678118654757 0.70710678118654757 0.75 forward I I I I #
loop $-1 $-1 $170 $43 #
coedge $-1 $107 $107 $171 $172 reversed $67 $-1 #
face $-1 $-1 $173 $35 $-1 $174 forward single #
loop $-1 $175 $176 $69 #
cone-surface $-1 34.137095339128493 -32.064903737106455 1.3566898530021785 0 0.57357644374324357 -0.81915203911291934 0.75 0 0 1 I I -0.70710678118654757 0.70710678118654757 0.75 forward I I I I #
loop $-1 $-1 $177 $44 #
coedge $-1 $112 $112 $178 $179 reversed $70 $-1 #
face $-1 $180 $181 $27 $-1 $182 reversed single #
loop $-1 $-1 $183 $72 #
plane-surface $-1 0 -42.358734812294998 0 0 1 0 0 0 1 forward_v I I I I #
coedge $-1 $184 $185 $186 $187 forward $73 $-1 #
coedge $-1 $188 $75 $189 $190 forward $46 $-1 #
coedge $-1 $75 $188 $191 $192 forward $46 $-1 #
coedge $-1 $193 $194 $75 $120 reversed $195 $-1 #
edge $-1 $196 -42.358734812294998 $197 42.358734812294998 $119 $198 forward 7 unknown #
face $-1 $199 $200 $28 $-1 $201 reversed single #
loop $-1 $-1 $202 $76 #
plane-surface $-1 -62.904508114993007 0 -3.7136881783792894 -1 0 0 0 0 1 forward_v I I I I #
coedge $-1 $203 $204 $205 $206 forward $77 $-1 #
coedge $-1 $207 $79 $208 $209 reversed $49 $-1 #
coedge $-1 $79 $207 $210 $211 reversed $49 $-1 #
coedge $-1 $202 $212 $79 $128 reversed $122 $-1 #
edge $-1 $213 -42.358734812294998 $214 42.358734812294998 $127 $215 forward 7 unknown #
face $-1 $216 $217 $29 $-1 $218 forward single #
loop $-1 $-1 $219 $80 #
plane-surface $-1 -49.241663893688326 124.9694955372065 149.7509387856706 -1 0 0 0 0.87461971476443456 0.48480960649040278 forward_v I I I I #
coedge $-1 $220 $221 $222 $223 reversed $81 $-1 #
coedge $-1 $134 $83 $224 $225 reversed $52 $-1 #
coedge $-1 $83 $133 $220 $226 reversed $52 $-1 #
coedge $-1 $222 $227 $83 $136 forward $217 $-1 #
edge $-1 $228 20.126012956308251 $229 22.29611456164124 $135 $230 forward 7 unknown #
loop $-1 $-1 $142 $84 #
plane-surface $-1 -56.073086004340666 1.2868917007348699 81.192554514835621 0 0.87461971476443456 0.48480960649040278 1 0 0 forward_v I I I I #
loop $-1 $-1 $231 $54 #
coedge $-1 $140 $140 $141 $232 reversed $85 $-1 #
coedge $-1 $141 $141 $140 $232 forward $87 $-1 #
coedge $-1 $142 $142 $88 $143 forward $137 $-1 #
edge $-1 $233 0 $233 6.2831853071796004 $142 $234 forward 7 unknown #
loop $-1 $-1 $149 $89 #
plane-surface $-1 -56.073086004340666 1.2868917007348699 81.192554514835621 0 0.87461971476443456 0.48480960649040278 1 0 0 forward_v I I I I #
loop $-1 $-1 $235 $57 #
coedge $-1 $147 $147 $148 $236 reversed $90 $-1 #
coedge $-1 $148 $148 $147 $236 forward $92 $-1 #
coedge $-1 $149 $149 $93 $150 forward $144 $-1 #
edge $-1 $237 0 $237 6.2831853071796004 $149 $238 forward 7 unknown #
face $-1 $239 $240 $32 $-1 $241 reversed single #
loop $-1 $-1 $242 $94 #
plane-surface $-1 14.538802016019581 -123.46990445993418 117.14347358571973 1 0 0 0 0.57357644374324357 -0.81915203911291934 forward_v I I I I #
coedge $-1 $243 $244 $245 $246 reversed $95 $-1 #
coedge $-1 $156 $97 $247 $248 reversed $61 $-1 #
coedge $-1 $97 $155 $243 $249 reversed $61 $-1 #
coedge $-1 $245 $250 $97 $158 forward $251 $-1 #
edge $-1 $252 19.376217417672095 $253 33.239581065267735 $157 $254 forward 7 unknown #
loop $-1 $-1 $164 $98 #
plane-surface $-1 26.787735342962662 -42.358734812294998 1.3047205538049269 0 -0.57357644374324357 0.81915203911291934 1 0 0 forward_v I I I I #
loop $-1 $-1 $255 $63 #
coedge $-1 $162 $162 $163 $256 reversed $99 $-1 #
coedge $-1 $163 $163 $162 $256 forward $101 $-1 #
coedge $-1 $164 $164 $102 $165 forward $159 $-1 #
edge $-1 $257 1.8425306616406878e-015 $257 6.2831853071796022 $164 $258 forward 7 unknown #
loop $-1 $-1 $171 $103 #
plane-surface $-1 26.787735342962662 -42.358734812294998 1.3047205538049269 0 -0.57357644374324357 0.81915203911291934 1 0 0 forward_v I I I I #
loop $-1 $-1 $259 $66 #
coedge $-1 $169 $169 $170 $260 reversed $104 $-1 #
coedge $-1 $170 $170 $169 $260 forward $106 $-1 #
coedge $-1 $171 $171 $107 $172 forward $166 $-1 #
edge $-1 $261 1.8425306616406878e-015 $261 6.2831853071796022 $171 $262 forward 7 unknown #
loop $-1 $-1 $178 $108 #
plane-surface $-1 26.787735342962662 -42.358734812294998 1.3047205538049269 0 -0.57357644374324357 0.81915203911291934 1 0 0 forward_v I I I I #
loop $-1 $-1 $263 $69 #
coedge $-1 $176 $176 $177 $264 reversed $109 $-1 #
coedge $-1 $177 $177 $176 $264 forward $111 $-1 #
coedge $-1 $178 $178 $112 $179 forward $173 $-1 #
edge $-1 $265 1.8425306616406878e-015 $265 6.2831853071796022 $178 $266 forward 7 unknown #
face $-1 $267 $268 $27 $-1 $269 reversed single #
loop $-1 $-1 $270 $113 #
plane-surface $-1 -70.706503494369343 0 0 1 0 0 0 0 -1 forward_v I I I I #
coedge $-1 $271 $191 $272 $273 forward $114 $-1 #
coedge $-1 $274 $116 $271 $275 forward $73 $-1 #
coedge $-1 $116 $274 $276 $277 forward $73 $-1 #
coedge $-1 $194 $193 $116 $187 reversed $195 $-1 #
edge $-1 $278 -42.358734812294998 $279 42.358734812294998 $186 $280 forward 7 unknown #
coedge $-1 $118 $117 $281 $282 forward $46 $-1 #
coedge $-1 $283 $284 $117 $190 reversed $268 $-1 #
edge $-1 $197 -70.706503494369343 $285 70.706503494369343 $189 $286 forward 7 unknown #
coedge $-1 $183 $287 $118 $192 reversed $114 $-1 #
edge $-1 $288 -70.706503494369343 $196 70.706503494369343 $191 $289 forward 7 unknown #
coedge $-1 $186 $119 $287 $290 forward $195 $-1 #
coedge $-1 $119 $186 $283 $291 reversed $195 $-1 #
loop $-1 $-1 $193 $267 #
vertex $-1 $120 $292 #
vertex $-1 $120 $293 #
straight-curve $-1 70.706503494369343 0 11.011952471237946 0 1 0 I I #
face $-1 $294 $295 $28 $-1 $296 reversed single #
loop $-1 $-1 $297 $121 #
plane-surface $-1 0 -42.358734812294998 0 0 1 0 0 0 1 forward_v I I I I #
coedge $-1 $205 $127 $298 $299 reversed $122 $-1 #
coedge $-1 $300 $124 $297 $301 reversed $77 $-1 #
coedge $-1 $124 $300 $302 $303 reversed $77 $-1 #
coedge $-1 $212 $202 $124 $206 reversed $122 $-1 #
edge $-1 $304 -42.358734812294998 $305 42.358734812294998 $205 $306 forward 7 unknown #
coedge $-1 $126 $125 $307 $308 reversed $49 $-1 #
coedge $-1 $309 $310 $125 $209 forward $311 $-1 #
edge $-1 $312 -37.303750592028756 $214 -29.501755212652419 $208 $313 forward 7 unknown #
coedge $-1 $314 $298 $126 $211 forward $200 $-1 #
edge $-1 $213 29.501755212652419 $315 37.303750592028756 $210 $316 forward 7 unknown #
coedge $-1 $127 $205 $309 $317 reversed $122 $-1 #
vertex $-1 $211 $318 #
vertex $-1 $209 $319 #
straight-curve $-1 -62.904508114993007 0 -0.7090016504824086 0 1 0 I I #
face $-1 $-1 $320 $29 $-1 $321 reversed single #
loop $-1 $-1 $135 $129 #
plane-surface $-1 0 0 11.011952471237946 0 0 1 1 0 0 forward_v I I I I #
coedge $-1 $322 $323 $324 $325 reversed $130 $-1 #
coedge $-1 $326 $132 $134 $226 forward $81 $-1 #
coedge $-1 $132 $326 $322 $327 forward $81 $-1 #
coedge $-1 $324 $135 $132 $223 forward $217 $-1 #
edge $-1 $229 -34.867965112822674 $328 -21.205120891517993 $222 $329 forward 7 unknown #
coedge $-1 $330 $331 $133 $225 forward $320 $-1 #
edge $-1 $332 -67.778483996623223 $228 -63.863516921597352 $224 $333 forward 7 unknown #
edge $-1 $229 80.241276132793047 $332 84.717469624589995 $134 $334 forward 7 unknown #
coedge $-1 $135 $324 $330 $335 forward $217 $-1 #
vertex $-1 $225 $336 #
vertex $-1 $136 $337 #
straight-curve $-1 -62.904508114993007 62.484747768603249 11.011952471237947 0 -1 0 I I #
coedge $-1 $231 $231 $-1 $338 reversed $139 $-1 #
edge $-1 $339 0 $339 6.2831853071796004 $140 $340 forward 7 unknown #
vertex $-1 $143 $341 #
ellipse-curve $-1 -59.000838337477376 41.273684009628504 9.0544689337250048 0 0.87461971476443456 0.48480960649040278 1 0 0 1 I I #
coedge $-1 $235 $235 $-1 $342 reversed $146 $-1 #
edge $-1 $343 0 $343 6.2831853071796004 $147 $344 forward 7 unknown #
vertex $-1 $150 $345 #
ellipse-curve $-1 -53.145333671203943 41.273684009628504 9.0544689337250048 0 0.87461971476443456 0.48480960649040278 1 0 0 1 I I #
face $-1 $-1 $251 $32 $-1 $346 forward single #
loop $-1 $-1 $347 $151 #
plane-surface $-1 0 -42.358734812294998 0 0 1 0 0 0 1 forward_v I I I I #
coedge $-1 $348 $349 $350 $351 reversed $152 $-1 #
coedge $-1 $352 $154 $156 $249 forward $95 $-1 #
coedge $-1 $154 $352 $348 $353 forward $95 $-1 #
coedge $-1 $350 $157 $154 $246 forward $251 $-1 #
edge $-1 $253 -25.642800998424413 $354 -1.1449343445382496 $245 $355 forward 7 unknown #
coedge $-1 $356 $357 $155 $248 forward $240 $-1 #
edge $-1 $358 -57.267016239054939 $252 -47.559784321621919 $247 $359 forward 7 unknown #
edge $-1 $253 -16.924042162684025 $358 0 $156 $360 forward 7 unknown #
coedge $-1 $157 $350 $356 $361 forward $251 $-1 #
loop $-1 $-1 $350 $239 #
vertex $-1 $248 $362 #
vertex $-1 $158 $363 #
straight-curve $-1 39.036668669905744 -61.734952229967092 11.011952471237947 0 1 0 I I #
coedge $-1 $255 $255 $-1 $364 reversed $161 $-1 #
edge $-1 $365 0 $365 6.2831853071796004 $162 $366 forward 7 unknown #
vertex $-1 $165 $367 #
ellipse-curve $-1 19.438375346796803 -35.427052988497174 6.1583365125214353 0 -0.57357644374324357 0.81915203911291934 1.5 0 0 1 I I #
coedge $-1 $259 $259 $-1 $368 reversed $168 $-1 #
edge $-1 $369 0 $369 6.2831853071796004 $169 $370 forward 7 unknown #
vertex $-1 $172 $371 #
ellipse-curve $-1 26.787735342962648 -35.427052988497174 6.1583365125214353 0 -0.57357644374324357 0.81915203911291934 1.5 0 0 1 I I #
coedge $-1 $263 $263 $-1 $372 reversed $175 $-1 #
edge $-1 $373 0 $373 6.2831853071796004 $176 $374 forward 7 unknown #
vertex $-1 $179 $375 #
ellipse-curve $-1 34.137095339128493 -35.427052988497174 6.1583365125214353 0 -0.57357644374324357 0.81915203911291934 1.5 0 0 1 I I #
face $-1 $-1 $195 $27 $-1 $376 reversed single #
loop $-1 $-1 $283 $180 #
plane-surface $-1 0 42.358734812294998 0 0 -1 0 0 0 -1 forward_v I I I I #
coedge $-1 $377 $281 $284 $378 forward $181 $-1 #
coedge $-1 $287 $183 $184 $275 reversed $114 $-1 #
coedge $-1 $281 $377 $183 $273 reversed $181 $-1 #
edge $-1 $288 -11.011952471237946 $379 11.011952471237946 $272 $380 forward 7 unknown #
coedge $-1 $185 $184 $377 $381 forward $73 $-1 #
edge $-1 $279 -70.706503494369343 $379 70.706503494369343 $271 $382 forward 7 unknown #
coedge $-1 $284 $283 $185 $277 reversed $268 $-1 #
edge $-1 $383 -70.706503494369343 $278 70.706503494369343 $276 $384 forward 7 unknown #
vertex $-1 $187 $385 #
vertex $-1 $290 $386 #
straight-curve $-1 70.706503494369343 0 -11.011952471237946 0 -1 0 I I #
coedge $-1 $270 $272 $188 $282 reversed $181 $-1 #
edge $-1 $285 -42.358734812294998 $288 42.358734812294998 $281 $387 forward 7 unknown #
coedge $-1 $276 $189 $194 $291 forward $268 $-1 #
coedge $-1 $189 $276 $270 $378 reversed $268 $-1 #
vertex $-1 $190 $388 #
straight-curve $-1 0 42.358734812294998 11.011952471237946 -1 0 0 I I #
coedge $-1 $191 $271 $193 $290 reversed $114 $-1 #
vertex $-1 $282 $389 #
straight-curve $-1 0 -42.358734812294998 11.011952471237946 1 0 0 I I #
edge $-1 $196 -11.011952471237946 $279 11.011952471237946 $193 $390 forward 7 unknown #
edge $-1 $197 -11.011952471237946 $278 11.011952471237946 $194 $391 forward 7 unknown #
point $-1 70.706503494369343 -42.358734812294998 11.011952471237946 #
point $-1 70.706503494369343 42.358734812294998 11.011952471237946 #
face $-1 $-1 $311 $28 $-1 $392 reversed single #
loop $-1 $-1 $393 $199 #
plane-surface $-1 -70.706503494369343 0 0 1 0 0 0 0 -1 forward_v I I I I #
coedge $-1 $298 $314 $203 $301 forward $200 $-1 #
coedge $-1 $210 $297 $202 $299 forward $200 $-1 #
edge $-1 $305 -4.861530617086526 $213 1.1478424387072361 $298 $394 forward 7 unknown #
coedge $-1 $204 $203 $393 $395 reversed $77 $-1 #
edge $-1 $396 -37.303750592028756 $305 -29.501755212652419 $297 $397 forward 7 unknown #
coedge $-1 $310 $309 $204 $303 forward $311 $-1 #
edge $-1 $304 29.501755212652419 $398 37.303750592028756 $302 $399 forward 7 unknown #
vertex $-1 $303 $400 #
vertex $-1 $301 $401 #
straight-curve $-1 -62.904508114993007 0 -6.7183747062761707 0 -1 0 I I #
coedge $-1 $402 $403 $207 $308 forward $295 $-1 #
edge $-1 $315 -42.358734812294998 $312 42.358734812294998 $307 $404 forward 7 unknown #
coedge $-1 $302 $208 $212 $317 forward $311 $-1 #
coedge $-1 $208 $302 $402 $405 reversed $311 $-1 #
loop $-1 $-1 $302 $294 #
vertex $-1 $405 $406 #
straight-curve $-1 -33.402752902340588 42.358734812294998 -0.7090016504824086 1 0 0 I I #
coedge $-1 $297 $210 $403 $407 forward $200 $-1 #
vertex $-1 $407 $408 #
straight-curve $-1 -33.402752902340588 -42.358734812294998 -0.7090016504824086 -1 0 0 I I #
edge $-1 $214 -1.1478424387072361 $304 4.861530617086526 $309 $409 forward 7 unknown #
point $-1 -62.904508114993007 -42.358734812294998 -0.7090016504824086 #
point $-1 -62.904508114993007 42.358734812294998 -0.7090016504824086 #
loop $-1 $-1 $224 $216 #
plane-surface $-1 0 42.358734812294998 0 0 -1 0 0 0 -1 forward_v I I I I #
coedge $-1 $323 $219 $221 $327 reversed $130 $-1 #
coedge $-1 $219 $322 $410 $411 reversed $130 $-1 #
coedge $-1 $227 $222 $219 $325 forward $217 $-1 #
edge $-1 $328 -22.29611456164124 $412 -20.126012956308251 $324 $413 forward 7 unknown #
coedge $-1 $221 $220 $331 $414 reversed $81 $-1 #
edge $-1 $415 -84.717469624589995 $328 -80.241276132793047 $322 $416 forward 7 unknown #
vertex $-1 $223 $417 #
straight-curve $-1 -28.036543002170333 40.18863320696201 11.011952471237954 1 0 0 I I #
coedge $-1 $410 $224 $227 $335 reversed $320 $-1 #
coedge $-1 $224 $410 $326 $414 forward $320 $-1 #
vertex $-1 $225 $418 #
straight-curve $-1 -62.904508114993007 42.358734812294998 74.875469392835299 0 0 1 I I #
straight-curve $-1 -62.904508114993007 1.2868917007348699 81.192554514835621 0 0.48480960649040278 -0.87461971476443456 I I #
edge $-1 $412 49.241663893688326 $228 62.904508114993007 $330 $419 forward 7 unknown #
point $-1 -62.904508114993007 42.358734812294998 11.011952471237946 #
point $-1 -62.904508114993007 40.18863320696201 11.011952471237947 #
edge $-1 $420 1 $420 0 $231 $-1 forward 7 unknown #
vertex $-1 $232 $421 #
ellipse-curve $-1 -59.000838337477376 39.392425502697833 8.0116703538903042 0 0.87461971476443456 0.48480960649040278 1 0 0 1 I I #
point $-1 -58.000838337477376 41.273684009628504 9.0544689337250048 #
edge $-1 $422 1 $422 0 $235 $-1 forward 7 unknown #
vertex $-1 $236 $423 #
ellipse-curve $-1 -53.145333671203943 39.392425502697833 8.0116703538903042 0 0.87461971476443456 0.48480960649040278 1 0 0 1 I I #
point $-1 -52.145333671203943 41.273684009628504 9.0544689337250048 #
plane-surface $-1 0 0 11.011952471237946 0 0 1 1 0 0 forward_v I I I I #
coedge $-1 $357 $356 $349 $424 forward $240 $-1 #
coedge $-1 $349 $242 $244 $353 reversed $152 $-1 #
coedge $-1 $242 $348 $347 $424 reversed $152 $-1 #
coedge $-1 $250 $245 $242 $351 forward $251 $-1 #
edge $-1 $354 -33.239581065267735 $425 -19.376217417672095 $350 $426 forward 7 unknown #
coedge $-1 $244 $243 $357 $427 reversed $95 $-1 #
edge $-1 $428 0 $354 16.924042162684025 $348 $429 forward 7 unknown #
vertex $-1 $246 $430 #
straight-curve $-1 13.393867671481331 -28.495371164699353 11.011952471237946 -1 0 0 I I #
coedge $-1 $347 $247 $250 $361 reversed $240 $-1 #
coedge $-1 $247 $347 $352 $427 forward $240 $-1 #
vertex $-1 $248 $431 #
straight-curve $-1 39.036668669905744 -42.358734812294998 58.571736792859866 0 0 1 I I #
straight-curve $-1 39.036668669905744 -42.358734812294998 1.3047205538049269 0 -0.81915203911291934 -0.57357644374324357 I I #
edge $-1 $425 14.538802016019581 $252 39.036668669905744 $356 $432 forward 7 unknown #
point $-1 39.036668669905744 -42.358734812294998 11.011952471237946 #
point $-1 39.036668669905744 -28.495371164699357 11.011952471237944 #
edge $-1 $433 1 $433 0 $255 $-1 forward 7 unknown #
vertex $-1 $256 $434 #
ellipse-curve $-1 19.438375346796803 -32.495086069913889 1.971053882336868 0 -0.57357644374324357 0.81915203911291934 1.5 0 0 1 I I #
point $-1 20.938375346796803 -35.427052988497167 6.15833651252143 #
edge $-1 $435 1 $435 0 $259 $-1 forward 7 unknown #
vertex $-1 $260 $436 #
ellipse-curve $-1 26.787735342962648 -32.495086069913889 1.971053882336868 0 -0.57357644374324357 0.81915203911291934 1.5 0 0 1 I I #
point $-1 28.287735342962648 -35.427052988497167 6.15833651252143 #
edge $-1 $437 1 $437 0 $263 $-1 forward 7 unknown #
vertex $-1 $264 $438 #
ellipse-curve $-1 34.137095339128493 -32.495086069913889 1.971053882336868 0 -0.57357644374324357 0.81915203911291934 1.5 0 0 1 I I #
point $-1 35.637095339128493 -35.427052988497167 6.15833651252143 #
plane-surface $-1 70.706503494369343 0 0 -1 0 0 0 0 1 forward_v I I I I #
coedge $-1 $272 $270 $274 $381 reversed $181 $-1 #
edge $-1 $285 -11.011952471237946 $383 11.011952471237946 $284 $439 forward 7 unknown #
vertex $-1 $381 $440 #
straight-curve $-1 -70.706503494369343 -42.358734812294998 0 0 0 -1 I I #
edge $-1 $379 -42.358734812294998 $383 42.358734812294998 $377 $441 forward 7 unknown #
straight-curve $-1 0 -42.358734812294998 -11.011952471237946 -1 0 0 I I #
vertex $-1 $277 $442 #
straight-curve $-1 0 42.358734812294998 -11.011952471237946 1 0 0 I I #
point $-1 70.706503494369343 42.358734812294998 -11.011952471237946 #
point $-1 70.706503494369343 -42.358734812294998 -11.011952471237946 #
straight-curve $-1 -70.706503494369343 0 11.011952471237946 0 -1 0 I I #
point $-1 -70.706503494369343 42.358734812294998 11.011952471237946 #
point $-1 -70.706503494369343 -42.358734812294998 11.011952471237946 #
straight-curve $-1 70.706503494369343 -42.358734812294998 0 0 0 -1 I I #
straight-curve $-1 70.706503494369343 42.358734812294998 0 0 0 -1 I I #
plane-surface $-1 0 42.358734812294998 0 0 -1 0 0 0 -1 forward_v I I I I #
coedge $-1 $403 $402 $300 $395 forward $295 $-1 #
straight-curve $-1 -62.904508114993007 -42.358734812294998 -1.8568440891896447 0 0 1 I I #
edge $-1 $398 -42.358734812294998 $396 42.358734812294998 $393 $443 forward 7 unknown #
vertex $-1 $301 $444 #
straight-curve $-1 -33.402752902340588 -42.358734812294998 -6.7183747062761707 1 0 0 I I #
vertex $-1 $303 $445 #
straight-curve $-1 -33.402752902340588 42.358734812294998 -6.7183747062761707 -1 0 0 I I #
point $-1 -62.904508114993007 42.358734812294998 -6.7183747062761707 #
point $-1 -62.904508114993007 -42.358734812294998 -6.7183747062761707 #
coedge $-1 $393 $307 $310 $405 forward $295 $-1 #
coedge $-1 $307 $393 $314 $407 reversed $295 $-1 #
straight-curve $-1 -70.706503494369343 0 -0.7090016504824086 0 1 0 I I #
edge $-1 $312 0.7090016504824086 $398 6.7183747062761707 $310 $446 forward 7 unknown #
point $-1 -70.706503494369343 42.358734812294998 -0.7090016504824086 #
edge $-1 $315 0.7090016504824086 $396 6.7183747062761707 $403 $447 forward 7 unknown #
point $-1 -70.706503494369343 -42.358734812294998 -0.7090016504824086 #
straight-curve $-1 -62.904508114993007 42.358734812294998 -1.8568440891896447 0 0 -1 I I #
coedge $-1 $331 $330 $323 $411 forward $320 $-1 #
edge $-1 $412 63.863516921597352 $415 67.778483996623223 $410 $448 forward 7 unknown #
vertex $-1 $335 $449 #
straight-curve $-1 -49.241663893688326 62.484747768603249 11.011952471237947 0 1 0 I I #
edge $-1 $415 21.205120891517993 $332 34.867965112822674 $331 $450 forward 7 unknown #
vertex $-1 $414 $451 #
straight-curve $-1 -49.241663893688326 1.2868917007348699 81.192554514835621 0 -0.48480960649040278 0.87461971476443456 I I #
point $-1 -49.241663893688326 40.18863320696201 11.011952471237947 #
point $-1 -62.904508114993007 42.358734812294998 7.0969853962120766 #
straight-curve $-1 0 42.358734812294998 11.011952471237946 -1 0 0 I I #
vertex $-1 $338 $452 #
point $-1 -58.000838337477376 39.392425502697833 8.0116703538903042 #
vertex $-1 $342 $453 #
point $-1 -52.145333671203943 39.392425502697833 8.0116703538903042 #
edge $-1 $425 47.559784321621919 $428 57.267016239054939 $347 $454 forward 7 unknown #
vertex $-1 $361 $455 #
straight-curve $-1 14.538802016019581 -61.734952229967092 11.011952471237947 0 -1 0 I I #
edge $-1 $428 1.1449343445382496 $358 25.642800998424413 $357 $456 forward 7 unknown #
vertex $-1 $427 $457 #
straight-curve $-1 14.538802016019581 -42.358734812294998 1.3047205538049269 0 0.81915203911291934 0.57357644374324357 I I #
point $-1 14.538802016019581 -28.495371164699357 11.011952471237944 #
point $-1 39.036668669905744 -42.358734812294998 1.3047205538049269 #
straight-curve $-1 0 -42.358734812294998 11.011952471237946 1 0 0 I I #
vertex $-1 $364 $458 #
point $-1 20.938375346796803 -32.495086069913889 1.971053882336868 #
vertex $-1 $368 $459 #
point $-1 28.287735342962648 -32.495086069913889 1.971053882336868 #
vertex $-1 $372 $460 #
point $-1 35.637095339128493 -32.495086069913889 1.971053882336868 #
straight-curve $-1 -70.706503494369343 42.358734812294998 0 0 0 -1 I I #
point $-1 -70.706503494369343 -42.358734812294998 -11.011952471237946 #
straight-curve $-1 -70.706503494369343 0 -11.011952471237946 0 1 0 I I #
point $-1 -70.706503494369343 42.358734812294998 -11.011952471237946 #
straight-curve $-1 -70.706503494369343 0 -6.7183747062761707 0 -1 0 I I #
point $-1 -70.706503494369343 -42.358734812294998 -6.7183747062761707 #
point $-1 -70.706503494369343 42.358734812294998 -6.7183747062761707 #
straight-curve $-1 -70.706503494369343 42.358734812294998 0 0 0 -1 I I #
straight-curve $-1 -70.706503494369343 -42.358734812294998 0 0 0 -1 I I #
straight-curve $-1 -49.241663893688326 42.358734812294998 74.875469392835299 0 0 -1 I I #
point $-1 -49.241663893688326 42.358734812294998 11.011952471237946 #
straight-curve $-1 -28.036543002170333 42.358734812294998 7.0969853962120695 -1 0 0 I I #
point $-1 -49.241663893688326 42.358734812294998 7.0969853962120766 #
point $-1 -59.000838337477376 38.517805787933398 7.5268607473999021 #
point $-1 -53.145333671203943 38.517805787933398 7.5268607473999021 #
straight-curve $-1 14.538802016019581 -42.358734812294998 58.571736792859866 0 0 -1 I I #
point $-1 14.538802016019581 -42.358734812294998 11.011952471237946 #
straight-curve $-1 13.393867671481331 -42.358734812294998 1.3047205538049285 1 0 0 I I #
point $-1 14.538802016019581 -42.358734812294998 1.3047205538049269 #
point $-1 19.438375346796803 -31.634721404299022 0.742325823667489 #
point $-1 26.787735342962648 -31.634721404299022 0.742325823667489 #
point $-1 34.137095339128493 -31.634721404299022 0.742325823667489 #
End-of-ACIS-data 