500 0 14 0           
7 Unknown 11 ACIS 5.0 NT 24 Thu Mar 25 16:19:27 1999 
-1 9.9999999999999995e-007 1e-010 
body $-1 $14 $-1 $15 #
body $-1 $16 $-1 $17 #
body $-1 $18 $-1 $19 #
body $-1 $20 $-1 $21 #
body $-1 $22 $-1 $23 #
body $-1 $24 $-1 $25 #
body $-1 $26 $-1 $27 #
body $-1 $28 $-1 $29 #
body $-1 $30 $-1 $31 #
body $-1 $32 $-1 $33 #
body $-1 $34 $-1 $35 #
body $-1 $36 $-1 $37 #
body $-1 $38 $-1 $39 #
body $-1 $40 $-1 $41 #
lump $-1 $-1 $42 $0 #
transform $-1 1 0 0 0 1 0 0 0 1 57.139194921720019 32.172817727187415 12.505149200574712 1 rotate no_reflect no_shear #
lump $-1 $-1 $43 $1 #
transform $-1 1 0 0 0 1 0 0 0 1 57.139194921720019 32.172817727187415 12.505149200574712 1 rotate no_reflect no_shear #
lump $-1 $-1 $44 $2 #
transform $-1 1 0 0 0 1 0 0 0 1 57.139194921720019 32.172817727187415 12.505149200574712 1 rotate no_reflect no_shear #
lump $-1 $-1 $45 $3 #
transform $-1 1 0 0 0 1 0 0 0 1 57.139194921720019 32.172817727187415 12.505149200574712 1 rotate no_reflect no_shear #
lump $-1 $-1 $46 $4 #
transform $-1 1 0 0 0 1 0 0 0 1 57.139194921720019 32.172817727187415 12.505149200574712 1 rotate no_reflect no_shear #
lump $-1 $-1 $47 $5 #
transform $-1 1 0 0 0 1 0 0 0 1 57.139194921720019 32.172817727187415 12.505149200574712 1 rotate no_reflect no_shear #
lump $-1 $-1 $48 $6 #
transform $-1 1 0 0 0 1 0 0 0 1 57.139194921720019 32.172817727187415 12.505149200574712 1 rotate no_reflect no_shear #
lump $-1 $-1 $49 $7 #
transform $-1 1 0 0 0 1 0 0 0 1 57.139194921720019 32.172817727187415 12.505149200574712 1 rotate no_reflect no_shear #
lump $-1 $-1 $50 $8 #
transform $-1 1 0 0 0 1 0 0 0 1 57.139194921720019 32.172817727187415 12.505149200574712 1 rotate no_reflect no_shear #
lump $-1 $-1 $51 $9 #
transform $-1 1 0 0 0 1 0 0 0 1 57.139194921720019 32.172817727187415 12.505149200574712 1 rotate no_reflect no_shear #
lump $-1 $-1 $52 $10 #
transform $-1 1 0 0 0 1 0 0 0 1 57.139194921720019 32.172817727187415 12.505149200574712 1 rotate no_reflect no_shear #
lump $-1 $-1 $53 $11 #
transform $-1 1 0 0 0 1 0 0 0 1 57.139194921720019 32.172817727187415 12.505149200574712 1 rotate no_reflect no_shear #
lump $-1 $-1 $54 $12 #
transform $-1 1 0 0 0 1 0 0 0 1 57.139194921720019 32.172817727187415 12.505149200574712 1 rotate no_reflect no_shear #
lump $-1 $-1 $55 $13 #
transform $-1 1 0 0 0 1 0 0 0 1 57.139194921720019 32.172817727187415 12.505149200574712 1 rotate no_reflect no_shear #
shell $-1 $-1 $-1 $56 $-1 $14 #
shell $-1 $-1 $-1 $57 $-1 $16 #
shell $-1 $-1 $-1 $58 $-1 $18 #
shell $-1 $-1 $-1 $59 $-1 $20 #
shell $-1 $-1 $-1 $60 $-1 $22 #
shell $-1 $-1 $-1 $61 $-1 $24 #
shell $-1 $-1 $-1 $62 $-1 $26 #
shell $-1 $-1 $-1 $63 $-1 $28 #
shell $-1 $-1 $-1 $64 $-1 $30 #
shell $-1 $-1 $-1 $65 $-1 $32 #
shell $-1 $-1 $-1 $66 $-1 $34 #
shell $-1 $-1 $-1 $67 $-1 $36 #
shell $-1 $-1 $-1 $68 $-1 $38 #
shell $-1 $-1 $-1 $69 $-1 $40 #
face $-1 $70 $71 $42 $-1 $72 forward single #
face $-1 $73 $74 $43 $-1 $75 forward single #
face $-1 $76 $77 $44 $-1 $78 reversed single #
face $-1 $79 $80 $45 $-1 $81 forward single #
face $-1 $82 $83 $46 $-1 $84 forward single #
face $-1 $85 $86 $47 $-1 $87 reversed single #
face $-1 $88 $89 $48 $-1 $90 forward single #
face $-1 $91 $92 $49 $-1 $93 forward single #
face $-1 $94 $95 $50 $-1 $96 reversed single #
face $-1 $97 $98 $51 $-1 $99 forward single #
face $-1 $100 $101 $52 $-1 $102 forward single #
face $-1 $103 $104 $53 $-1 $105 reversed single #
face $-1 $106 $107 $54 $-1 $108 forward single #
face $-1 $109 $110 $55 $-1 $111 forward single #
face $-1 $112 $113 $42 $-1 $114 reversed single #
loop $-1 $-1 $115 $56 #
plane-surface $-1 0 0 12.505149200574712 0 0 1 1 0 0 forward_v I I I I #
face $-1 $116 $117 $43 $-1 $118 reversed single #
loop $-1 $-1 $119 $57 #
plane-surface $-1 0 -27.646004856140294 -4.8420564816032376 0 0 1 1 0 0 forward_v I I I I #
face $-1 $120 $121 $44 $-1 $122 reversed single #
loop $-1 $-1 $123 $58 #
plane-surface $-1 -155.09489476776264 -3.2814521635975886 61.759130444117936 0 1 0 -0.85716730853699208 0 0.51503806187062418 forward_v I I I I #
face $-1 $124 $125 $45 $-1 $126 forward single #
loop $-1 $127 $128 $59 #
cone-surface $-1 -53.201689142438362 -1.0505192965562458 7.0710231196012749 0.85716730853699208 0 -0.51503806187062418 0.51503806187062418 0 0.85716730853699208 1 I I 0 1 1 forward I I I I #
face $-1 $129 $130 $46 $-1 $131 forward single #
loop $-1 $132 $133 $60 #
cone-surface $-1 -53.201689142438362 2.2958800040057739 7.0710231196012749 0.85716730853699208 0 -0.51503806187062418 0.51503806187062418 0 0.85716730853699208 1 I I 0 1 1 forward I I I I #
face $-1 $134 $135 $47 $-1 $136 reversed single #
loop $-1 $-1 $137 $61 #
plane-surface $-1 -57.139194921720005 0.6226803537247676 2.9014100254569541 -0.85716730853699208 0 0.51503806187062418 0.51503806187062418 0 0.85716730853699208 forward_v I I I I #
face $-1 $138 $139 $48 $-1 $140 forward single #
loop $-1 $141 $142 $62 #
cone-surface $-1 -53.201689142438362 6.7577457380884667 7.0710231196012749 0.85716730853699208 0 -0.51503806187062418 0.51503806187062418 0 0.85716730853699208 1 I I 0 1 1 forward I I I I #
face $-1 $143 $144 $49 $-1 $145 forward single #
loop $-1 $146 $147 $63 #
cone-surface $-1 -53.201689142438362 10.104145038650486 7.0710231196012749 0.85716730853699208 0 -0.51503806187062418 0.51503806187062418 0 0.85716730853699208 1 I I 0 1 1 forward I I I I #
face $-1 $148 $149 $50 $-1 $150 reversed single #
loop $-1 $-1 $151 $64 #
plane-surface $-1 96.23717434910165 4.5268128710471238 159.71483029016056 0 -1 0 -0.85716730853699208 0 -0.51503806187062418 forward_v I I I I #
face $-1 $152 $153 $51 $-1 $154 forward single #
loop $-1 $155 $156 $65 #
cone-surface $-1 53.201689142438362 -1.0505192965562458 7.0710231196012749 -0.85716730853699208 0 -0.51503806187062418 0.51503806187062418 0 -0.85716730853699208 1 I I 0 1 1 forward I I I I #
face $-1 $157 $158 $52 $-1 $159 forward single #
loop $-1 $160 $161 $66 #
cone-surface $-1 53.201689142438362 2.2958800040057739 7.0710231196012749 -0.85716730853699208 0 -0.51503806187062418 0.51503806187062418 0 -0.85716730853699208 1 I I 0 1 1 forward I I I I #
face $-1 $162 $163 $53 $-1 $164 reversed single #
loop $-1 $-1 $165 $67 #
plane-surface $-1 96.23717434910165 12.335077905691836 159.71483029016056 0 -1 0 -0.85716730853699208 0 -0.51503806187062418 forward_v I I I I #
face $-1 $166 $167 $54 $-1 $168 forward single #
loop $-1 $169 $170 $68 #
cone-surface $-1 53.201689142438362 6.7577457380884667 7.0710231196012749 -0.85716730853699208 0 -0.51503806187062418 0.51503806187062418 0 -0.85716730853699208 1 I I 0 1 1 forward I I I I #
face $-1 $171 $172 $55 $-1 $173 forward single #
loop $-1 $174 $175 $69 #
cone-surface $-1 53.201689142438362 10.104145038650486 7.0710231196012749 -0.85716730853699208 0 -0.51503806187062418 0.51503806187062418 0 -0.85716730853699208 1 I I 0 1 1 forward I I I I #
face $-1 $176 $177 $42 $-1 $178 reversed single #
loop $-1 $-1 $179 $70 #
plane-surface $-1 0 0 -12.505149200574712 0 0 1 1 0 0 forward_v I I I I #
coedge $-1 $180 $181 $182 $183 forward $71 $-1 #
face $-1 $184 $185 $43 $-1 $186 reversed single #
loop $-1 $-1 $187 $73 #
plane-surface $-1 0 -27.646004856140294 -9.5619326443031412 0 0 1 1 0 0 forward_v I I I I #
coedge $-1 $188 $189 $190 $191 reversed $74 $-1 #
face $-1 $192 $193 $44 $-1 $194 reversed single #
loop $-1 $-1 $195 $76 #
plane-surface $-1 -57.139194921720005 0.6226803537247676 2.9014100254569541 -0.85716730853699208 0 0.51503806187062418 0.51503806187062418 0 0.85716730853699208 forward_v I I I I #
coedge $-1 $196 $197 $198 $199 reversed $77 $-1 #
face $-1 $-1 $200 $45 $-1 $201 forward single #
loop $-1 $202 $203 $79 #
cone-surface $-1 -51.720853942338806 -1.0505192965562458 6.181247595251401 0.85716730853699208 0 -0.51503806187062418 0.25751903093531209 0 0.42858365426849604 1 I I -0.70710678118654746 0.70710678118654746 0.5 forward I I I I #
loop $-1 $-1 $204 $59 #
coedge $-1 $128 $128 $205 $206 reversed $80 $-1 #
face $-1 $-1 $207 $46 $-1 $208 forward single #
loop $-1 $209 $210 $82 #
cone-surface $-1 -51.720853942338806 2.2958800040057739 6.181247595251401 0.85716730853699208 0 -0.51503806187062418 0.25751903093531209 0 0.42858365426849604 1 I I -0.70710678118654746 0.70710678118654746 0.5 forward I I I I #
loop $-1 $-1 $211 $60 #
coedge $-1 $133 $133 $212 $213 reversed $83 $-1 #
face $-1 $214 $215 $47 $-1 $216 forward single #
loop $-1 $-1 $217 $85 #
plane-surface $-1 -155.09489476776264 12.335077905691836 61.759130444117936 0 -1 0 0.85716730853699208 0 -0.51503806187062418 forward_v I I I I #
coedge $-1 $218 $219 $220 $221 reversed $86 $-1 #
face $-1 $-1 $222 $48 $-1 $223 forward single #
loop $-1 $224 $225 $88 #
cone-surface $-1 -51.720853942338806 6.7577457380884667 6.181247595251401 0.85716730853699208 0 -0.51503806187062418 0.25751903093531209 0 0.42858365426849604 1 I I -0.70710678118654746 0.70710678118654746 0.5 forward I I I I #
loop $-1 $-1 $226 $62 #
coedge $-1 $142 $142 $227 $228 reversed $89 $-1 #
face $-1 $-1 $229 $49 $-1 $230 forward single #
loop $-1 $231 $232 $91 #
cone-surface $-1 -51.720853942338806 10.104145038650486 6.181247595251401 0.85716730853699208 0 -0.51503806187062418 0.25751903093531209 0 0.42858365426849604 1 I I -0.70710678118654746 0.70710678118654746 0.5 forward I I I I #
loop $-1 $-1 $233 $63 #
coedge $-1 $147 $147 $234 $235 reversed $92 $-1 #
face $-1 $236 $237 $50 $-1 $238 reversed single #
loop $-1 $-1 $239 $94 #
plane-surface $-1 -1.718525496940984 0.6226803537247676 100.85710987149957 0.85716730853699208 0 0.51503806187062418 0.51503806187062418 0 -0.85716730853699208 forward_v I I I I #
coedge $-1 $240 $241 $242 $243 reversed $95 $-1 #
face $-1 $-1 $244 $51 $-1 $245 forward single #
loop $-1 $246 $247 $97 #
cone-surface $-1 51.720853942338806 -1.0505192965562458 6.181247595251401 -0.85716730853699208 0 -0.51503806187062418 0.25751903093531209 0 -0.42858365426849604 1 I I -0.70710678118654746 0.70710678118654746 0.5 forward I I I I #
loop $-1 $-1 $248 $65 #
coedge $-1 $156 $156 $249 $250 reversed $98 $-1 #
face $-1 $-1 $251 $52 $-1 $252 forward single #
loop $-1 $253 $254 $100 #
cone-surface $-1 51.720853942338806 2.2958800040057739 6.181247595251401 -0.85716730853699208 0 -0.51503806187062418 0.25751903093531209 0 -0.42858365426849604 1 I I -0.70710678118654746 0.70710678118654746 0.5 forward I I I I #
loop $-1 $-1 $255 $66 #
coedge $-1 $161 $161 $256 $257 reversed $101 $-1 #
face $-1 $258 $259 $53 $-1 $260 reversed single #
loop $-1 $-1 $261 $103 #
plane-surface $-1 -1.718525496940984 0.6226803537247676 100.85710987149957 0.85716730853699208 0 0.51503806187062418 0.51503806187062418 0 -0.85716730853699208 forward_v I I I I #
coedge $-1 $262 $263 $264 $265 reversed $104 $-1 #
face $-1 $-1 $266 $54 $-1 $267 forward single #
loop $-1 $268 $269 $106 #
cone-surface $-1 51.720853942338806 6.7577457380884667 6.181247595251401 -0.85716730853699208 0 -0.51503806187062418 0.25751903093531209 0 -0.42858365426849604 1 I I -0.70710678118654746 0.70710678118654746 0.5 forward I I I I #
loop $-1 $-1 $270 $68 #
coedge $-1 $170 $170 $271 $272 reversed $107 $-1 #
face $-1 $-1 $273 $55 $-1 $274 forward single #
loop $-1 $275 $276 $109 #
cone-surface $-1 51.720853942338806 10.104145038650486 6.181247595251401 -0.85716730853699208 0 -0.51503806187062418 0.25751903093531209 0 -0.42858365426849604 1 I I -0.70710678118654746 0.70710678118654746 0.5 forward I I I I #
loop $-1 $-1 $277 $69 #
coedge $-1 $175 $175 $278 $279 reversed $110 $-1 #
face $-1 $280 $281 $42 $-1 $282 reversed single #
loop $-1 $-1 $283 $112 #
plane-surface $-1 0 -32.172817727187415 0 0 1 0 0 0 1 forward_v I I I I #
coedge $-1 $284 $285 $286 $287 forward $113 $-1 #
coedge $-1 $288 $115 $289 $290 forward $71 $-1 #
coedge $-1 $115 $288 $291 $292 forward $71 $-1 #
coedge $-1 $293 $294 $115 $183 reversed $295 $-1 #
edge $-1 $296 -32.172817727187415 $297 32.172817727187415 $182 $298 forward 7 unknown #
face $-1 $299 $300 $43 $-1 $301 reversed single #
loop $-1 $-1 $302 $116 #
plane-surface $-1 0 -23.119191985093174 -7.201994562953189 0 -1 0 0 0 -1 forward_v I I I I #
coedge $-1 $303 $304 $305 $306 reversed $117 $-1 #
coedge $-1 $307 $119 $308 $309 forward $74 $-1 #
coedge $-1 $119 $307 $310 $311 reversed $74 $-1 #
coedge $-1 $312 $313 $119 $191 forward $314 $-1 #
edge $-1 $315 9.2961895570230269 $316 18.349815299117267 $190 $317 forward 7 unknown #
face $-1 $318 $319 $44 $-1 $320 reversed single #
loop $-1 $-1 $321 $120 #
plane-surface $-1 -155.09489476776264 4.5268128710471238 61.759130444117936 0 -1 0 0.85716730853699208 0 -0.51503806187062418 forward_v I I I I #
coedge $-1 $322 $323 $324 $325 reversed $121 $-1 #
coedge $-1 $197 $123 $326 $327 reversed $77 $-1 #
coedge $-1 $123 $196 $322 $328 reversed $77 $-1 #
coedge $-1 $324 $329 $123 $199 forward $330 $-1 #
edge $-1 $331 20.4082524621613 $332 26.178760929062527 $198 $333 forward 7 unknown #
loop $-1 $-1 $205 $124 #
plane-surface $-1 -57.139194921720005 0.6226803537247676 2.9014100254569541 -0.85716730853699208 0 0.51503806187062418 0.51503806187062418 0 0.85716730853699208 forward_v I I I I #
loop $-1 $-1 $334 $79 #
coedge $-1 $203 $203 $204 $335 reversed $125 $-1 #
coedge $-1 $204 $204 $203 $335 forward $127 $-1 #
coedge $-1 $205 $205 $128 $206 forward $200 $-1 #
edge $-1 $336 0 $336 6.2831853071796004 $205 $337 forward 7 unknown #
loop $-1 $-1 $212 $129 #
plane-surface $-1 -57.139194921720005 0.6226803537247676 2.9014100254569541 -0.85716730853699208 0 0.51503806187062418 0.51503806187062418 0 0.85716730853699208 forward_v I I I I #
loop $-1 $-1 $338 $82 #
coedge $-1 $210 $210 $211 $339 reversed $130 $-1 #
coedge $-1 $211 $211 $210 $339 forward $132 $-1 #
coedge $-1 $212 $212 $133 $213 forward $207 $-1 #
edge $-1 $340 0 $340 6.2831853071796004 $212 $341 forward 7 unknown #
face $-1 $342 $343 $47 $-1 $344 forward single #
loop $-1 $-1 $345 $134 #
plane-surface $-1 0 0 12.505149200574712 0 0 1 1 0 0 forward_v I I I I #
coedge $-1 $346 $347 $348 $349 reversed $135 $-1 #
coedge $-1 $350 $137 $351 $352 reversed $86 $-1 #
coedge $-1 $137 $350 $345 $353 reversed $86 $-1 #
coedge $-1 $354 $355 $137 $221 forward $343 $-1 #
edge $-1 $356 -2.7494044966190042e-014 $357 11.204042757427791 $220 $358 forward 7 unknown #
loop $-1 $-1 $227 $138 #
plane-surface $-1 -57.139194921720005 0.6226803537247676 2.9014100254569541 -0.85716730853699208 0 0.51503806187062418 0.51503806187062418 0 0.85716730853699208 forward_v I I I I #
loop $-1 $-1 $359 $88 #
coedge $-1 $225 $225 $226 $360 reversed $139 $-1 #
coedge $-1 $226 $226 $225 $360 forward $141 $-1 #
coedge $-1 $227 $227 $142 $228 forward $222 $-1 #
edge $-1 $361 0 $361 6.2831853071796004 $227 $362 forward 7 unknown #
loop $-1 $-1 $234 $143 #
plane-surface $-1 -57.139194921720005 0.6226803537247676 2.9014100254569541 -0.85716730853699208 0 0.51503806187062418 0.51503806187062418 0 0.85716730853699208 forward_v I I I I #
loop $-1 $-1 $363 $91 #
coedge $-1 $232 $232 $233 $364 reversed $144 $-1 #
coedge $-1 $233 $233 $232 $364 forward $146 $-1 #
coedge $-1 $234 $234 $147 $235 forward $229 $-1 #
edge $-1 $365 0 $365 6.2831853071796004 $234 $366 forward 7 unknown #
face $-1 $367 $368 $50 $-1 $369 forward single #
loop $-1 $-1 $370 $148 #
plane-surface $-1 96.23717434910165 -3.2814521635975886 159.71483029016056 0 1 0 0.85716730853699208 0 0.51503806187062418 forward_v I I I I #
coedge $-1 $371 $372 $373 $374 reversed $149 $-1 #
coedge $-1 $241 $151 $375 $376 reversed $95 $-1 #
coedge $-1 $151 $240 $371 $377 reversed $95 $-1 #
coedge $-1 $373 $378 $151 $243 forward $368 $-1 #
edge $-1 $379 -9.0206077471691941 $380 -3.2500992802679605 $242 $381 forward 7 unknown #
loop $-1 $-1 $249 $152 #
plane-surface $-1 -1.718525496940984 0.6226803537247676 100.85710987149957 0.85716730853699208 0 0.51503806187062418 0.51503806187062418 0 -0.85716730853699208 forward_v I I I I #
loop $-1 $-1 $382 $97 #
coedge $-1 $247 $247 $248 $383 reversed $153 $-1 #
coedge $-1 $248 $248 $247 $383 forward $155 $-1 #
coedge $-1 $249 $249 $156 $250 forward $244 $-1 #
edge $-1 $384 0 $384 6.2831853071796004 $249 $385 forward 7 unknown #
loop $-1 $-1 $256 $157 #
plane-surface $-1 -1.718525496940984 0.6226803537247676 100.85710987149957 0.85716730853699208 0 0.51503806187062418 0.51503806187062418 0 -0.85716730853699208 forward_v I I I I #
loop $-1 $-1 $386 $100 #
coedge $-1 $254 $254 $255 $387 reversed $158 $-1 #
coedge $-1 $255 $255 $254 $387 forward $160 $-1 #
coedge $-1 $256 $256 $161 $257 forward $251 $-1 #
edge $-1 $388 0 $388 6.2831853071796004 $256 $389 forward 7 unknown #
face $-1 $390 $391 $53 $-1 $392 forward single #
loop $-1 $-1 $393 $162 #
plane-surface $-1 57.139194921720019 0 0 -1 0 0 0 0 1 forward_v I I I I #
coedge $-1 $394 $395 $396 $397 reversed $163 $-1 #
coedge $-1 $263 $165 $398 $399 reversed $104 $-1 #
coedge $-1 $165 $262 $400 $401 reversed $104 $-1 #
coedge $-1 $402 $393 $165 $265 forward $259 $-1 #
edge $-1 $403 -76.956005119623356 $404 -67.352265944505575 $264 $405 forward 7 unknown #
loop $-1 $-1 $271 $166 #
plane-surface $-1 -1.718525496940984 0.6226803537247676 100.85710987149957 0.85716730853699208 0 0.51503806187062418 0.51503806187062418 0 -0.85716730853699208 forward_v I I I I #
loop $-1 $-1 $406 $106 #
coedge $-1 $269 $269 $270 $407 reversed $167 $-1 #
coedge $-1 $270 $270 $269 $407 forward $169 $-1 #
coedge $-1 $271 $271 $170 $272 forward $266 $-1 #
edge $-1 $408 0 $408 6.2831853071796004 $271 $409 forward 7 unknown #
loop $-1 $-1 $278 $171 #
plane-surface $-1 -1.718525496940984 0.6226803537247676 100.85710987149957 0.85716730853699208 0 0.51503806187062418 0.51503806187062418 0 -0.85716730853699208 forward_v I I I I #
loop $-1 $-1 $410 $109 #
coedge $-1 $276 $276 $277 $411 reversed $172 $-1 #
coedge $-1 $277 $277 $276 $411 forward $174 $-1 #
coedge $-1 $278 $278 $175 $279 forward $273 $-1 #
edge $-1 $412 0 $412 6.2831853071796004 $278 $413 forward 7 unknown #
face $-1 $414 $415 $42 $-1 $416 reversed single #
loop $-1 $-1 $417 $176 #
plane-surface $-1 -57.139194921720019 0 0 1 0 0 0 0 -1 forward_v I I I I #
coedge $-1 $418 $291 $419 $420 forward $177 $-1 #
coedge $-1 $421 $179 $418 $422 forward $113 $-1 #
coedge $-1 $179 $421 $423 $424 forward $113 $-1 #
coedge $-1 $294 $293 $179 $287 reversed $295 $-1 #
edge $-1 $425 -32.172817727187415 $426 32.172817727187415 $286 $427 forward 7 unknown #
coedge $-1 $181 $180 $428 $429 forward $71 $-1 #
coedge $-1 $430 $431 $180 $290 reversed $415 $-1 #
edge $-1 $297 -57.139194921720019 $432 57.139194921720019 $289 $433 forward 7 unknown #
coedge $-1 $283 $434 $181 $292 reversed $177 $-1 #
edge $-1 $435 -57.139194921720019 $296 57.139194921720019 $291 $436 forward 7 unknown #
coedge $-1 $286 $182 $434 $437 forward $295 $-1 #
coedge $-1 $182 $286 $430 $438 reversed $295 $-1 #
loop $-1 $-1 $293 $414 #
vertex $-1 $183 $439 #
vertex $-1 $183 $440 #
straight-curve $-1 57.139194921720019 0 12.505149200574712 0 1 0 I I #
face $-1 $441 $442 $43 $-1 $443 reversed single #
loop $-1 $-1 $444 $184 #
plane-surface $-1 -57.139194921720019 0 0 1 0 0 0 0 -1 forward_v I I I I #
coedge $-1 $445 $308 $313 $446 reversed $185 $-1 #
coedge $-1 $447 $187 $448 $449 reversed $117 $-1 #
coedge $-1 $187 $447 $445 $450 forward $117 $-1 #
coedge $-1 $313 $312 $187 $306 forward $314 $-1 #
edge $-1 $451 -18.349815299117267 $452 -9.2961895570230269 $305 $453 forward 7 unknown #
coedge $-1 $189 $188 $444 $454 reversed $74 $-1 #
coedge $-1 $302 $455 $188 $309 reversed $185 $-1 #
edge $-1 $315 -57.139194921720019 $456 57.139194921720019 $308 $457 forward 7 unknown #
coedge $-1 $458 $459 $189 $311 forward $442 $-1 #
edge $-1 $316 -57.139194921720019 $460 57.139194921720019 $310 $461 forward 7 unknown #
coedge $-1 $305 $190 $459 $462 forward $314 $-1 #
coedge $-1 $190 $305 $302 $446 forward $314 $-1 #
loop $-1 $-1 $190 $441 #
vertex $-1 $191 $463 #
vertex $-1 $462 $464 #
straight-curve $-1 57.139194921720019 -13.823002428070147 -4.8420564816032376 0 -1 0 I I #
face $-1 $-1 $330 $44 $-1 $465 forward single #
loop $-1 $-1 $466 $192 #
plane-surface $-1 -57.139194921720019 0 0 1 0 0 0 0 -1 forward_v I I I I #
coedge $-1 $467 $468 $469 $470 reversed $193 $-1 #
coedge $-1 $471 $195 $197 $328 forward $121 $-1 #
coedge $-1 $195 $471 $467 $472 forward $121 $-1 #
coedge $-1 $469 $198 $195 $325 forward $330 $-1 #
edge $-1 $332 -3.5927923404599724 $473 4.21547269418474 $324 $474 forward 7 unknown #
coedge $-1 $475 $476 $196 $327 forward $319 $-1 #
edge $-1 $477 -27.978155196602039 $331 -18.374416021484258 $326 $478 forward 7 unknown #
edge $-1 $332 -11.204042757427791 $477 2.7494044966190042e-014 $197 $479 forward 7 unknown #
coedge $-1 $198 $469 $475 $480 forward $330 $-1 #
loop $-1 $-1 $469 $318 #
vertex $-1 $327 $481 #
vertex $-1 $199 $482 #
straight-curve $-1 -77.54744738388132 -3.2814521635975886 12.505149200574714 1 0 0 I I #
coedge $-1 $334 $334 $-1 $483 reversed $202 $-1 #
edge $-1 $484 0 $484 6.2831853071796004 $203 $485 forward 7 unknown #
vertex $-1 $206 $486 #
ellipse-curve $-1 -54.253940688269402 -1.0505192965562458 7.7032796130158268 -0.85716730853699208 0 0.51503806187062418 0.51503806187062418 0 0.85716730853699208 1 I I #
coedge $-1 $338 $338 $-1 $487 reversed $209 $-1 #
edge $-1 $488 0 $488 6.2831853071796004 $210 $489 forward 7 unknown #
vertex $-1 $213 $490 #
ellipse-curve $-1 -54.253940688269402 2.2958800040057739 7.7032796130158268 -0.85716730853699208 0 0.51503806187062418 0.51503806187062418 0 0.85716730853699208 1 I I #
face $-1 $-1 $491 $47 $-1 $492 reversed single #
loop $-1 $-1 $354 $214 #
plane-surface $-1 -155.09489476776264 4.5268128710471238 61.759130444117936 0 -1 0 0.85716730853699208 0 -0.51503806187062418 forward_v I I I I #
coedge $-1 $348 $493 $219 $353 forward $215 $-1 #
coedge $-1 $347 $217 $350 $494 reversed $135 $-1 #
coedge $-1 $217 $346 $495 $496 reversed $135 $-1 #
coedge $-1 $497 $345 $217 $349 forward $215 $-1 #
edge $-1 $498 -26.178760929062527 $499 -20.4082524621613 $348 $500 forward 7 unknown #
coedge $-1 $219 $218 $346 $494 forward $86 $-1 #
coedge $-1 $501 $495 $218 $352 forward $491 $-1 #
edge $-1 $502 -12.023737728829452 $356 -4.21547269418474 $351 $503 forward 7 unknown #
edge $-1 $357 4.21547269418474 $498 12.023737728829452 $345 $504 forward 7 unknown #
coedge $-1 $355 $220 $493 $505 reversed $343 $-1 #
coedge $-1 $220 $354 $501 $506 reversed $343 $-1 #
vertex $-1 $352 $507 #
vertex $-1 $353 $508 #
straight-curve $-1 -57.139194921720005 4.5268128710471238 2.9014100254569541 0.51503806187062418 0 0.85716730853699208 I I #
coedge $-1 $359 $359 $-1 $509 reversed $224 $-1 #
edge $-1 $510 0 $510 6.2831853071796004 $225 $511 forward 7 unknown #
vertex $-1 $228 $512 #
ellipse-curve $-1 -54.253940688269402 6.7577457380884667 7.7032796130158268 -0.85716730853699208 0 0.51503806187062418 0.51503806187062418 0 0.85716730853699208 1 I I #
coedge $-1 $363 $363 $-1 $513 reversed $231 $-1 #
edge $-1 $514 0 $514 6.2831853071796004 $232 $515 forward 7 unknown #
vertex $-1 $235 $516 #
ellipse-curve $-1 -54.253940688269402 10.104145038650486 7.7032796130158268 -0.85716730853699208 0 0.51503806187062418 0.51503806187062418 0 0.85716730853699208 1 I I #
face $-1 $-1 $517 $50 $-1 $518 reversed single #
loop $-1 $-1 $242 $236 #
plane-surface $-1 0 0 12.505149200574712 0 0 1 1 0 0 forward_v I I I I #
coedge $-1 $519 $520 $521 $522 reversed $237 $-1 #
coedge $-1 $523 $239 $241 $377 forward $149 $-1 #
coedge $-1 $239 $523 $519 $524 forward $149 $-1 #
coedge $-1 $521 $242 $239 $374 forward $368 $-1 #
edge $-1 $380 -4.21547269418474 $525 3.5927923404599724 $373 $526 forward 7 unknown #
coedge $-1 $527 $528 $240 $376 forward $517 $-1 #
edge $-1 $529 -76.956005119623356 $379 -67.352265944505575 $375 $530 forward 7 unknown #
edge $-1 $380 103.07434708601225 $529 114.2783898434401 $241 $531 forward 7 unknown #
coedge $-1 $242 $521 $527 $532 forward $368 $-1 #
vertex $-1 $376 $533 #
vertex $-1 $243 $534 #
straight-curve $-1 48.118587174550825 4.5268128710471238 12.505149200574706 -1 0 0 I I #
coedge $-1 $382 $382 $-1 $535 reversed $246 $-1 #
edge $-1 $536 0 $536 6.2831853071796004 $247 $537 forward 7 unknown #
vertex $-1 $250 $538 #
ellipse-curve $-1 54.253940688269395 -1.0505192965562458 7.7032796130158214 0.85716730853699208 0 0.51503806187062418 0.51503806187062418 0 -0.85716730853699208 1 I I #
coedge $-1 $386 $386 $-1 $539 reversed $253 $-1 #
edge $-1 $540 0 $540 6.2831853071796004 $254 $541 forward 7 unknown #
vertex $-1 $257 $542 #
ellipse-curve $-1 54.253940688269395 2.2958800040057739 7.7032796130158214 0.85716730853699208 0 0.51503806187062418 0.51503806187062418 0 -0.85716730853699208 1 I I #
face $-1 $-1 $543 $53 $-1 $544 forward single #
loop $-1 $-1 $545 $258 #
plane-surface $-1 96.23717434910165 4.5268128710471238 159.71483029016056 0 -1 0 -0.85716730853699208 0 -0.51503806187062418 forward_v I I I I #
coedge $-1 $264 $546 $395 $547 forward $259 $-1 #
coedge $-1 $398 $261 $548 $549 reversed $163 $-1 #
coedge $-1 $261 $398 $393 $547 reversed $163 $-1 #
coedge $-1 $550 $545 $261 $397 forward $391 $-1 #
edge $-1 $551 103.07434708601225 $552 114.2783898434401 $396 $553 forward 7 unknown #
coedge $-1 $395 $394 $262 $399 forward $163 $-1 #
edge $-1 $554 103.07434708601225 $403 114.2783898434401 $262 $555 forward 7 unknown #
coedge $-1 $548 $556 $263 $401 forward $543 $-1 #
edge $-1 $404 -9.0206077471691941 $554 -3.2500992802679605 $400 $557 forward 7 unknown #
coedge $-1 $546 $264 $556 $558 reversed $259 $-1 #
vertex $-1 $265 $559 #
vertex $-1 $265 $560 #
straight-curve $-1 57.139194921720019 12.335077905691836 79.857415145080282 0 0 1 I I #
coedge $-1 $406 $406 $-1 $561 reversed $268 $-1 #
edge $-1 $562 0 $562 6.2831853071796004 $269 $563 forward 7 unknown #
vertex $-1 $272 $564 #
ellipse-curve $-1 54.253940688269395 6.7577457380884667 7.7032796130158214 0.85716730853699208 0 0.51503806187062418 0.51503806187062418 0 -0.85716730853699208 1 I I #
coedge $-1 $410 $410 $-1 $565 reversed $275 $-1 #
edge $-1 $566 0 $566 6.2831853071796004 $276 $567 forward 7 unknown #
vertex $-1 $279 $568 #
ellipse-curve $-1 54.253940688269395 10.104145038650486 7.7032796130158214 0.85716730853699208 0 0.51503806187062418 0.51503806187062418 0 -0.85716730853699208 1 I I #
face $-1 $-1 $295 $42 $-1 $569 reversed single #
loop $-1 $-1 $430 $280 #
plane-surface $-1 0 32.172817727187415 0 0 -1 0 0 0 -1 forward_v I I I I #
coedge $-1 $570 $428 $431 $571 forward $281 $-1 #
coedge $-1 $434 $283 $284 $422 reversed $177 $-1 #
coedge $-1 $428 $570 $283 $420 reversed $281 $-1 #
edge $-1 $435 -12.505149200574712 $572 12.505149200574712 $419 $573 forward 7 unknown #
coedge $-1 $285 $284 $570 $574 forward $113 $-1 #
edge $-1 $426 -57.139194921720019 $572 57.139194921720019 $418 $575 forward 7 unknown #
coedge $-1 $431 $430 $285 $424 reversed $415 $-1 #
edge $-1 $576 -57.139194921720019 $425 57.139194921720019 $423 $577 forward 7 unknown #
vertex $-1 $287 $578 #
vertex $-1 $437 $579 #
straight-curve $-1 57.139194921720019 0 -12.505149200574712 0 -1 0 I I #
coedge $-1 $417 $419 $288 $429 reversed $281 $-1 #
edge $-1 $432 -32.172817727187415 $435 32.172817727187415 $428 $580 forward 7 unknown #
coedge $-1 $423 $289 $294 $438 forward $415 $-1 #
coedge $-1 $289 $423 $417 $571 reversed $415 $-1 #
vertex $-1 $290 $581 #
straight-curve $-1 0 32.172817727187415 12.505149200574712 -1 0 0 I I #
coedge $-1 $291 $418 $293 $437 reversed $177 $-1 #
vertex $-1 $429 $582 #
straight-curve $-1 0 -32.172817727187415 12.505149200574712 1 0 0 I I #
edge $-1 $296 -12.505149200574712 $426 12.505149200574712 $293 $583 forward 7 unknown #
edge $-1 $297 -12.505149200574712 $425 12.505149200574712 $294 $584 forward 7 unknown #
point $-1 57.139194921720019 -32.172817727187415 12.505149200574712 #
point $-1 57.139194921720019 32.172817727187415 12.505149200574712 #
face $-1 $-1 $314 $43 $-1 $585 reversed single #
loop $-1 $-1 $310 $299 #
plane-surface $-1 0 -32.172817727187415 0 0 1 0 0 0 1 forward_v I I I I #
coedge $-1 $586 $587 $307 $454 forward $300 $-1 #
coedge $-1 $455 $302 $304 $450 reversed $185 $-1 #
edge $-1 $452 -5.9609353628265467 $315 -1.2410592001266432 $313 $588 forward 7 unknown #
coedge $-1 $304 $303 $589 $590 reversed $117 $-1 #
coedge $-1 $459 $458 $303 $449 forward $442 $-1 #
edge $-1 $591 -57.139194921720019 $451 57.139194921720019 $448 $592 forward 7 unknown #
edge $-1 $593 -57.139194921720019 $452 57.139194921720019 $445 $594 forward 7 unknown #
vertex $-1 $449 $595 #
vertex $-1 $306 $596 #
straight-curve $-1 57.139194921720019 -13.823002428070147 -9.5619326443031412 0 1 0 I I #
edge $-1 $460 -18.349815299117267 $456 -9.2961895570230269 $444 $597 forward 7 unknown #
coedge $-1 $308 $445 $586 $598 reversed $185 $-1 #
vertex $-1 $454 $599 #
straight-curve $-1 0 -23.119191985093174 -4.8420564816032376 -1 0 0 I I #
coedge $-1 $448 $310 $587 $600 forward $442 $-1 #
coedge $-1 $310 $448 $312 $462 reversed $442 $-1 #
vertex $-1 $600 $601 #
straight-curve $-1 0 -32.172817727187415 -4.8420564816032376 -1 0 0 I I #
edge $-1 $316 4.8420564816032376 $451 9.5619326443031412 $312 $602 forward 7 unknown #
point $-1 57.139194921720019 -23.119191985093174 -4.8420564816032376 #
point $-1 57.139194921720019 -32.172817727187415 -4.8420564816032376 #
plane-surface $-1 0 0 12.505149200574712 0 0 1 1 0 0 forward_v I I I I #
coedge $-1 $476 $475 $468 $603 forward $319 $-1 #
coedge $-1 $468 $321 $323 $472 reversed $193 $-1 #
coedge $-1 $321 $467 $466 $603 reversed $193 $-1 #
coedge $-1 $329 $324 $321 $470 forward $330 $-1 #
edge $-1 $473 -26.178760929062527 $604 -20.4082524621613 $469 $605 forward 7 unknown #
coedge $-1 $323 $322 $476 $606 reversed $121 $-1 #
edge $-1 $607 -2.7494044966190042e-014 $473 11.204042757427791 $467 $608 forward 7 unknown #
vertex $-1 $325 $609 #
straight-curve $-1 -51.368686454818793 0.3113401768623838 12.50514920057471 0 1 0 I I #
coedge $-1 $466 $326 $329 $480 reversed $319 $-1 #
coedge $-1 $326 $466 $471 $606 forward $319 $-1 #
vertex $-1 $327 $610 #
straight-curve $-1 -57.139194921720019 -3.2814521635975886 30.879565222058968 0 0 1 I I #
straight-curve $-1 -57.139194921720005 -3.2814521635975886 2.9014100254569541 -0.51503806187062418 0 -0.85716730853699208 I I #
edge $-1 $604 -4.5268128710471238 $331 3.2814521635975886 $475 $611 forward 7 unknown #
point $-1 -57.139194921720019 -3.2814521635975886 12.505149200574712 #
point $-1 -51.368686454818793 -3.2814521635975886 12.505149200574712 #
edge $-1 $612 1 $612 0 $334 $-1 forward 7 unknown #
vertex $-1 $335 $613 #
ellipse-curve $-1 -52.149437596607299 -1.0505192965562458 6.4387666261867134 -0.85716730853699208 0 0.51503806187062418 0.51503806187062418 0 0.85716730853699208 1 I I #
point $-1 -53.73890262639879 -1.0505192965562458 8.5604469215528276 #
edge $-1 $614 1 $614 0 $338 $-1 forward 7 unknown #
vertex $-1 $339 $615 #
ellipse-curve $-1 -52.149437596607299 2.2958800040057739 6.4387666261867134 -0.85716730853699208 0 0.51503806187062418 0.51503806187062418 0 0.85716730853699208 1 I I #
point $-1 -53.73890262639879 2.2958800040057739 8.5604469215528276 #
loop $-1 $-1 $351 $342 #
plane-surface $-1 -57.139194921720019 0 0 1 0 0 0 0 -1 forward_v I I I I #
coedge $-1 $345 $497 $354 $505 forward $215 $-1 #
edge $-1 $502 -2.7494044966190042e-014 $498 11.204042757427791 $346 $616 forward 7 unknown #
coedge $-1 $351 $617 $347 $496 forward $491 $-1 #
edge $-1 $499 18.374416021484258 $502 27.978155196602039 $495 $618 forward 7 unknown #
coedge $-1 $493 $348 $617 $619 forward $215 $-1 #
vertex $-1 $349 $620 #
vertex $-1 $619 $621 #
straight-curve $-1 -77.54744738388132 12.335077905691836 12.505149200574714 -1 0 0 I I #
coedge $-1 $617 $351 $355 $506 forward $491 $-1 #
vertex $-1 $496 $622 #
straight-curve $-1 -57.139194921720019 0.3113401768623838 2.9014100254569248 0 -1 0 I I #
straight-curve $-1 -51.368686454818793 0.3113401768623838 12.50514920057471 0 1 0 I I #
edge $-1 $623 20.4082524621613 $357 26.178760929062527 $493 $624 forward 7 unknown #
edge $-1 $356 -27.978155196602039 $623 -18.374416021484258 $501 $625 forward 7 unknown #
point $-1 -57.139194921720019 4.5268128710471238 2.9014100254569306 #
point $-1 -51.368686454818793 4.5268128710471238 12.505149200574712 #
edge $-1 $626 1 $626 0 $359 $-1 forward 7 unknown #
vertex $-1 $360 $627 #
ellipse-curve $-1 -52.149437596607299 6.7577457380884667 6.4387666261867134 -0.85716730853699208 0 0.51503806187062418 0.51503806187062418 0 0.85716730853699208 1 I I #
point $-1 -53.73890262639879 6.7577457380884667 8.5604469215528276 #
edge $-1 $628 1 $628 0 $363 $-1 forward 7 unknown #
vertex $-1 $364 $629 #
ellipse-curve $-1 -52.149437596607299 10.104145038650486 6.4387666261867134 -0.85716730853699208 0 0.51503806187062418 0.51503806187062418 0 0.85716730853699208 1 I I #
point $-1 -53.73890262639879 10.104145038650486 8.5604469215528276 #
loop $-1 $-1 $375 $367 #
plane-surface $-1 57.139194921720019 0 0 -1 0 0 0 0 1 forward_v I I I I #
coedge $-1 $520 $370 $372 $524 reversed $237 $-1 #
coedge $-1 $370 $519 $630 $631 reversed $237 $-1 #
coedge $-1 $378 $373 $370 $522 forward $368 $-1 #
edge $-1 $525 3.2500992802679605 $632 9.0206077471691941 $521 $633 forward 7 unknown #
coedge $-1 $372 $371 $528 $634 reversed $149 $-1 #
edge $-1 $635 -114.2783898434401 $525 -103.07434708601225 $519 $636 forward 7 unknown #
vertex $-1 $374 $637 #
straight-curve $-1 51.368686454818771 0.3113401768623838 12.505149200574714 0 -1 0 I I #
coedge $-1 $630 $375 $378 $532 reversed $517 $-1 #
coedge $-1 $375 $630 $523 $634 forward $517 $-1 #
vertex $-1 $376 $638 #
straight-curve $-1 57.139194921720019 4.5268128710471238 79.857415145080282 0 0 1 I I #
straight-curve $-1 -1.718525496940984 4.5268128710471238 100.85710987149957 0.51503806187062418 0 -0.85716730853699208 I I #
edge $-1 $632 -3.2814521635975886 $379 4.5268128710471238 $527 $639 forward 7 unknown #
point $-1 57.139194921720019 4.5268128710471238 12.505149200574712 #
point $-1 51.368686454818786 4.5268128710471238 12.505149200574706 #
edge $-1 $640 1 $640 0 $382 $-1 forward 7 unknown #
vertex $-1 $383 $641 #
ellipse-curve $-1 52.149437596607299 -1.0505192965562458 6.4387666261867134 0.85716730853699208 0 0.51503806187062418 0.51503806187062418 0 -0.85716730853699208 1 I I #
point $-1 54.768978750140043 -1.0505192965562458 6.8461123044788437 #
edge $-1 $642 1 $642 0 $386 $-1 forward 7 unknown #
vertex $-1 $387 $643 #
ellipse-curve $-1 52.149437596607299 2.2958800040057739 6.4387666261867134 0.85716730853699208 0 0.51503806187062418 0.51503806187062418 0 -0.85716730853699208 1 I I #
point $-1 54.768978750140043 2.2958800040057739 6.8461123044788437 #
loop $-1 $-1 $548 $390 #
plane-surface $-1 0 0 12.505149200574712 0 0 1 1 0 0 forward_v I I I I #
coedge $-1 $396 $550 $644 $645 reversed $391 $-1 #
coedge $-1 $393 $402 $550 $646 forward $259 $-1 #
edge $-1 $552 4.21547269418474 $403 12.023737728829452 $393 $647 forward 7 unknown #
coedge $-1 $644 $400 $394 $549 forward $543 $-1 #
edge $-1 $554 -12.023737728829452 $551 -4.21547269418474 $548 $648 forward 7 unknown #
coedge $-1 $545 $396 $546 $646 reversed $391 $-1 #
vertex $-1 $549 $649 #
vertex $-1 $547 $650 #
straight-curve $-1 -1.718525496940984 4.5268128710471238 100.85710987149957 0.51503806187062418 0 -0.85716730853699208 I I #
vertex $-1 $401 $651 #
straight-curve $-1 -1.718525496940984 12.335077905691836 100.85710987149957 0.51503806187062418 0 -0.85716730853699208 I I #
coedge $-1 $400 $644 $402 $558 forward $543 $-1 #
straight-curve $-1 48.118587174550825 12.335077905691836 12.505149200574706 -1 0 0 I I #
edge $-1 $652 4.5268128710471238 $404 12.335077905691836 $402 $653 forward 7 unknown #
point $-1 57.139194921720019 12.335077905691836 2.9014100254569257 #
point $-1 57.139194921720019 12.335077905691836 12.505149200574712 #
edge $-1 $654 1 $654 0 $406 $-1 forward 7 unknown #
vertex $-1 $407 $655 #
ellipse-curve $-1 52.149437596607299 6.7577457380884667 6.4387666261867134 0.85716730853699208 0 0.51503806187062418 0.51503806187062418 0 -0.85716730853699208 1 I I #
point $-1 54.768978750140043 6.7577457380884667 6.8461123044788437 #
edge $-1 $656 1 $656 0 $410 $-1 forward 7 unknown #
vertex $-1 $411 $657 #
ellipse-curve $-1 52.149437596607299 10.104145038650486 6.4387666261867134 0.85716730853699208 0 0.51503806187062418 0.51503806187062418 0 -0.85716730853699208 1 I I #
point $-1 54.768978750140043 10.104145038650486 6.8461123044788437 #
plane-surface $-1 57.139194921720019 0 0 -1 0 0 0 0 1 forward_v I I I I #
coedge $-1 $419 $417 $421 $574 reversed $281 $-1 #
edge $-1 $432 -12.505149200574712 $576 12.505149200574712 $431 $658 forward 7 unknown #
vertex $-1 $574 $659 #
straight-curve $-1 -57.139194921720019 -32.172817727187415 0 0 0 -1 I I #
edge $-1 $572 -32.172817727187415 $576 32.172817727187415 $570 $660 forward 7 unknown #
straight-curve $-1 0 -32.172817727187415 -12.505149200574712 -1 0 0 I I #
vertex $-1 $424 $661 #
straight-curve $-1 0 32.172817727187415 -12.505149200574712 1 0 0 I I #
point $-1 57.139194921720019 32.172817727187415 -12.505149200574712 #
point $-1 57.139194921720019 -32.172817727187415 -12.505149200574712 #
straight-curve $-1 -57.139194921720019 0 12.505149200574712 0 -1 0 I I #
point $-1 -57.139194921720019 32.172817727187415 12.505149200574712 #
point $-1 -57.139194921720019 -32.172817727187415 12.505149200574712 #
straight-curve $-1 57.139194921720019 -32.172817727187415 0 0 0 -1 I I #
straight-curve $-1 57.139194921720019 32.172817727187415 0 0 0 -1 I I #
plane-surface $-1 57.139194921720019 0 0 -1 0 0 0 0 1 forward_v I I I I #
coedge $-1 $589 $444 $455 $598 forward $300 $-1 #
coedge $-1 $444 $589 $458 $600 reversed $300 $-1 #
straight-curve $-1 57.139194921720019 -23.119191985093174 -3.6009972814765945 0 0 1 I I #
coedge $-1 $587 $586 $447 $590 forward $300 $-1 #
edge $-1 $593 9.2961895570230269 $591 18.349815299117267 $589 $662 forward 7 unknown #
vertex $-1 $449 $663 #
straight-curve $-1 0 -32.172817727187415 -9.5619326443031412 1 0 0 I I #
vertex $-1 $590 $664 #
straight-curve $-1 0 -23.119191985093174 -9.5619326443031412 1 0 0 I I #
point $-1 57.139194921720019 -32.172817727187415 -9.5619326443031412 #
point $-1 57.139194921720019 -23.119191985093174 -9.5619326443031412 #
straight-curve $-1 -57.139194921720019 -13.823002428070147 -4.8420564816032376 0 1 0 I I #
edge $-1 $456 1.2410592001266432 $593 5.9609353628265467 $586 $665 forward 7 unknown #
point $-1 -57.139194921720019 -23.119191985093174 -4.8420564816032376 #
edge $-1 $460 4.8420564816032376 $591 9.5619326443031412 $587 $666 forward 7 unknown #
point $-1 -57.139194921720019 -32.172817727187415 -4.8420564816032376 #
straight-curve $-1 57.139194921720019 -32.172817727187415 0 0 0 -1 I I #
edge $-1 $604 18.374416021484258 $607 27.978155196602039 $466 $667 forward 7 unknown #
vertex $-1 $480 $668 #
straight-curve $-1 -77.54744738388132 4.5268128710471238 12.505149200574714 -1 0 0 I I #
edge $-1 $607 -4.21547269418474 $477 3.5927923404599724 $476 $669 forward 7 unknown #
vertex $-1 $606 $670 #
straight-curve $-1 -57.139194921720005 4.5268128710471238 2.9014100254569541 0.51503806187062418 0 0.85716730853699208 I I #
point $-1 -51.368686454818793 4.5268128710471238 12.505149200574712 #
point $-1 -57.139194921720019 -3.2814521635975886 2.9014100254569306 #
straight-curve $-1 -57.139194921720019 0 12.505149200574712 0 -1 0 I I #
vertex $-1 $483 $671 #
point $-1 -51.63439953473668 -1.0505192965562458 7.2959339347237053 #
vertex $-1 $487 $672 #
point $-1 -51.63439953473668 2.2958800040057739 7.2959339347237053 #
straight-curve $-1 -57.139194921720005 12.335077905691836 2.9014100254569541 0.51503806187062418 0 0.85716730853699208 I I #
coedge $-1 $495 $501 $497 $619 reversed $491 $-1 #
straight-curve $-1 -57.139194921720019 12.335077905691836 30.879565222058968 0 0 -1 I I #
edge $-1 $499 -12.335077905691836 $623 -4.5268128710471238 $617 $673 forward 7 unknown #
point $-1 -51.368686454818793 12.335077905691836 12.505149200574712 #
point $-1 -57.139194921720019 12.335077905691836 12.505149200574712 #
point $-1 -57.139194921720019 12.335077905691836 2.9014100254569306 #
vertex $-1 $506 $674 #
straight-curve $-1 -77.54744738388132 4.5268128710471238 12.505149200574714 1 0 0 I I #
straight-curve $-1 -57.139194921720019 4.5268128710471238 30.879565222058968 0 0 1 I I #
vertex $-1 $509 $675 #
point $-1 -51.63439953473668 6.7577457380884667 7.2959339347237053 #
vertex $-1 $513 $676 #
point $-1 -51.63439953473668 10.104145038650486 7.2959339347237053 #
coedge $-1 $528 $527 $520 $631 forward $517 $-1 #
edge $-1 $632 67.352265944505575 $635 76.956005119623356 $630 $677 forward 7 unknown #
vertex $-1 $532 $678 #
straight-curve $-1 48.118587174550825 -3.2814521635975886 12.505149200574706 1 0 0 I I #
edge $-1 $635 -3.5927923404599724 $529 4.21547269418474 $528 $679 forward 7 unknown #
vertex $-1 $634 $680 #
straight-curve $-1 -1.718525496940984 -3.2814521635975886 100.85710987149957 -0.51503806187062418 0 0.85716730853699208 I I #
point $-1 51.368686454818786 -3.2814521635975886 12.505149200574706 #
point $-1 57.139194921720019 4.5268128710471238 2.9014100254569257 #
straight-curve $-1 57.139194921720019 0 12.505149200574712 0 1 0 I I #
vertex $-1 $535 $681 #
point $-1 52.664475658477926 -1.0505192965562458 5.5815993176497205 #
vertex $-1 $539 $682 #
point $-1 52.664475658477926 2.2958800040057739 5.5815993176497205 #
coedge $-1 $556 $548 $545 $645 forward $543 $-1 #
edge $-1 $551 3.2500992802679605 $652 9.0206077471691941 $644 $683 forward 7 unknown #
edge $-1 $652 67.352265944505575 $552 76.956005119623356 $546 $684 forward 7 unknown #
straight-curve $-1 57.139194921720019 0.3113401768623838 2.9014100254569115 0 1 0 I I #
straight-curve $-1 51.368686454818771 0.3113401768623838 12.505149200574714 0 -1 0 I I #
point $-1 51.368686454818786 4.5268128710471238 12.505149200574706 #
point $-1 57.139194921720019 4.5268128710471238 2.9014100254569257 #
point $-1 51.368686454818786 12.335077905691836 12.505149200574706 #
vertex $-1 $558 $685 #
straight-curve $-1 57.139194921720019 0 12.505149200574712 0 1 0 I I #
vertex $-1 $561 $686 #
point $-1 52.664475658477926 6.7577457380884667 5.5815993176497205 #
vertex $-1 $565 $687 #
point $-1 52.664475658477926 10.104145038650486 5.5815993176497205 #
straight-curve $-1 -57.139194921720019 32.172817727187415 0 0 0 -1 I I #
point $-1 -57.139194921720019 -32.172817727187415 -12.505149200574712 #
straight-curve $-1 -57.139194921720019 0 -12.505149200574712 0 1 0 I I #
point $-1 -57.139194921720019 32.172817727187415 -12.505149200574712 #
straight-curve $-1 -57.139194921720019 -13.823002428070147 -9.5619326443031412 0 -1 0 I I #
point $-1 -57.139194921720019 -32.172817727187415 -9.5619326443031412 #
point $-1 -57.139194921720019 -23.119191985093174 -9.5619326443031412 #
straight-curve $-1 -57.139194921720019 -23.119191985093174 -3.6009972814765945 0 0 -1 I I #
straight-curve $-1 -57.139194921720019 -32.172817727187415 0 0 0 -1 I I #
straight-curve $-1 -57.139194921720019 4.5268128710471238 30.879565222058968 0 0 -1 I I #
point $-1 -57.139194921720019 4.5268128710471238 12.505149200574712 #
straight-curve $-1 -57.139194921720019 0.3113401768623838 2.9014100254569248 0 -1 0 I I #
point $-1 -57.139194921720019 4.5268128710471238 2.9014100254569306 #
point $-1 -51.292270288070313 -1.0505192965562458 5.9237285643160886 #
point $-1 -51.292270288070313 2.2958800040057739 5.9237285643160886 #
straight-curve $-1 -57.139194921720019 0 12.505149200574712 0 -1 0 I I #
point $-1 -57.139194921720019 4.5268128710471238 12.505149200574712 #
point $-1 -51.292270288070313 6.7577457380884667 5.9237285643160886 #
point $-1 -51.292270288070313 10.104145038650486 5.9237285643160886 #
straight-curve $-1 57.139194921720019 -3.2814521635975886 79.857415145080282 0 0 -1 I I #
point $-1 57.139194921720019 -3.2814521635975886 12.505149200574712 #
straight-curve $-1 57.139194921720019 0.3113401768623838 2.9014100254569115 0 1 0 I I #
point $-1 57.139194921720019 -3.2814521635975886 2.9014100254569257 #
point $-1 51.292270288070313 -1.0505192965562458 5.9237285643160886 #
point $-1 51.292270288070313 2.2958800040057739 5.9237285643160886 #
straight-curve $-1 48.118587174550825 4.5268128710471238 12.505149200574706 1 0 0 I I #
straight-curve $-1 57.139194921720019 4.5268128710471238 79.857415145080282 0 0 -1 I I #
point $-1 57.139194921720019 4.5268128710471238 12.505149200574712 #
point $-1 51.292270288070313 6.7577457380884667 5.9237285643160886 #
point $-1 51.292270288070313 10.104145038650486 5.9237285643160886 #
End-of-ACIS-data 