500 0 9 0           
7 Unknown 11 ACIS 5.0 NT 24 Thu Mar 25 20:17:51 1999 
-1 9.9999999999999995e-007 1e-010 
body $-1 $9 $-1 $10 #
body $-1 $11 $-1 $12 #
body $-1 $13 $-1 $14 #
body $-1 $15 $-1 $16 #
body $-1 $17 $-1 $18 #
body $-1 $19 $-1 $20 #
body $-1 $21 $-1 $22 #
body $-1 $23 $-1 $24 #
body $-1 $25 $-1 $26 #
lump $-1 $-1 $27 $0 #
transform $-1 1 0 0 0 1 0 0 0 1 76.476943266090885 45.755464069859883 17.392857395200863 1 rotate no_reflect no_shear #
lump $-1 $-1 $28 $1 #
transform $-1 1 0 0 0 1 0 0 0 1 76.476943266090885 45.755464069859883 17.392857395200863 1 rotate no_reflect no_shear #
lump $-1 $-1 $29 $2 #
transform $-1 1 0 0 0 1 0 0 0 1 76.476943266090885 45.755464069859883 17.392857395200863 1 rotate no_reflect no_shear #
lump $-1 $-1 $30 $3 #
transform $-1 1 0 0 0 1 0 0 0 1 76.476943266090885 45.755464069859883 17.392857395200863 1 rotate no_reflect no_shear #
lump $-1 $-1 $31 $4 #
transform $-1 1 0 0 0 1 0 0 0 1 76.476943266090885 45.755464069859883 17.392857395200863 1 rotate no_reflect no_shear #
lump $-1 $-1 $32 $5 #
transform $-1 1 0 0 0 1 0 0 0 1 76.476943266090885 45.755464069859883 17.392857395200863 1 rotate no_reflect no_shear #
lump $-1 $-1 $33 $6 #
transform $-1 1 0 0 0 1 0 0 0 1 76.476943266090885 45.755464069859883 17.392857395200863 1 rotate no_reflect no_shear #
lump $-1 $-1 $34 $7 #
transform $-1 1 0 0 0 1 0 0 0 1 76.476943266090885 45.755464069859883 17.392857395200863 1 rotate no_reflect no_shear #
lump $-1 $-1 $35 $8 #
transform $-1 1 0 0 0 1 0 0 0 1 76.476943266090885 45.755464069859883 17.392857395200863 1 rotate no_reflect no_shear #
shell $-1 $-1 $-1 $36 $-1 $9 #
shell $-1 $-1 $-1 $37 $-1 $11 #
shell $-1 $-1 $-1 $38 $-1 $13 #
shell $-1 $-1 $-1 $39 $-1 $15 #
shell $-1 $-1 $-1 $40 $-1 $17 #
shell $-1 $-1 $-1 $41 $-1 $19 #
shell $-1 $-1 $-1 $42 $-1 $21 #
shell $-1 $-1 $-1 $43 $-1 $23 #
shell $-1 $-1 $-1 $44 $-1 $25 #
face $-1 $45 $46 $27 $-1 $47 forward single #
face $-1 $48 $49 $28 $-1 $50 forward single #
face $-1 $51 $52 $29 $-1 $53 reversed single #
face $-1 $54 $55 $30 $-1 $56 forward single #
face $-1 $57 $58 $31 $-1 $59 forward single #
face $-1 $60 $61 $32 $-1 $62 forward single #
face $-1 $63 $64 $33 $-1 $65 reversed single #
face $-1 $66 $67 $34 $-1 $68 forward single #
face $-1 $69 $70 $35 $-1 $71 forward single #
face $-1 $72 $73 $27 $-1 $74 reversed single #
loop $-1 $-1 $75 $36 #
plane-surface $-1 0 0 17.392857395200863 0 0 1 1 0 0 forward_v I I I I #
face $-1 $76 $77 $28 $-1 $78 reversed single #
loop $-1 $-1 $79 $37 #
plane-surface $-1 -69.282376949622545 0 -7.1204182940819258 0 0 1 1 0 0 forward_v I I I I #
face $-1 $80 $81 $29 $-1 $82 reversed single #
loop $-1 $-1 $83 $38 #
plane-surface $-1 30.997119715972261 61.625608466085467 178.91645733889453 1 0 0 0 -0.5877852598018023 -0.80901698891910034 forward_v I I I I #
face $-1 $84 $85 $30 $-1 $86 forward single #
loop $-1 $87 $88 $39 #
cone-surface $-1 34.925242519311254 34.4122720692706 8.9390497926419581 0 -0.5877852598018023 -0.80901698891910034 0.5 0 0 1 I I 0 1 0.5 forward I I I I #
face $-1 $89 $90 $31 $-1 $91 forward single #
loop $-1 $92 $93 $40 #
cone-surface $-1 40.817426724319745 34.4122720692706 8.9390497926419581 0 -0.5877852598018023 -0.80901698891910034 0.5 0 0 1 I I 0 1 0.5 forward I I I I #
face $-1 $94 $95 $32 $-1 $96 forward single #
loop $-1 $97 $98 $41 #
cone-surface $-1 46.709610929328235 34.4122720692706 8.9390497926419581 0 -0.5877852598018023 -0.80901698891910034 0.5 0 0 1 I I 0 1 0.5 forward I I I I #
face $-1 $99 $100 $33 $-1 $101 reversed single #
loop $-1 $-1 $102 $42 #
plane-surface $-1 73.241020874102972 -164.62296054322974 97.401679855784295 -1 0 0 0 -0.77714596973225614 0.62932038083071107 forward_v I I I I #
face $-1 $103 $104 $34 $-1 $105 forward single #
loop $-1 $106 $107 $43 #
cone-surface $-1 52.650137388196768 -35.777390716356585 6.5160570722733997 0 0.77714596973225614 -0.62932038083071107 2.5 0 0 1 I I 0 1 2.5 forward I I I I #
face $-1 $108 $109 $35 $-1 $110 forward single #
loop $-1 $111 $112 $44 #
cone-surface $-1 65.00466747974049 -35.777390716356585 6.5160570722733997 0 0.77714596973225614 -0.62932038083071107 2.5 0 0 1 I I 0 1 2.5 forward I I I I #
face $-1 $113 $114 $27 $-1 $115 reversed single #
loop $-1 $-1 $116 $45 #
plane-surface $-1 0 0 -17.392857395200863 0 0 1 1 0 0 forward_v I I I I #
coedge $-1 $117 $118 $119 $120 forward $46 $-1 #
face $-1 $121 $122 $28 $-1 $123 reversed single #
loop $-1 $-1 $124 $48 #
plane-surface $-1 -62.087810633154206 0 -12.256637844641395 -1 0 0 0 0 1 forward_v I I I I #
coedge $-1 $125 $126 $127 $128 forward $49 $-1 #
face $-1 $129 $130 $29 $-1 $131 reversed single #
loop $-1 $-1 $132 $51 #
plane-surface $-1 40.817426724319745 -28.278431466928382 55.174164613155099 0 0.5877852598018023 0.80901698891910034 1 0 0 forward_v I I I I #
coedge $-1 $133 $134 $135 $136 reversed $52 $-1 #
face $-1 $-1 $137 $30 $-1 $138 forward single #
loop $-1 $139 $140 $54 #
cone-surface $-1 34.925242519311254 33.938327936365283 8.2867216695307704 0 -0.5877852598018023 -0.80901698891910034 0.25 0 0 1 I I -0.70710678118654746 0.70710678118654746 0.25 forward I I I I #
loop $-1 $-1 $141 $39 #
coedge $-1 $88 $88 $142 $143 reversed $55 $-1 #
face $-1 $-1 $144 $31 $-1 $145 forward single #
loop $-1 $146 $147 $57 #
cone-surface $-1 40.817426724319745 33.938327936365283 8.2867216695307704 0 -0.5877852598018023 -0.80901698891910034 0.25 0 0 1 I I -0.70710678118654746 0.70710678118654746 0.25 forward I I I I #
loop $-1 $-1 $148 $40 #
coedge $-1 $93 $93 $149 $150 reversed $58 $-1 #
face $-1 $-1 $151 $32 $-1 $152 forward single #
loop $-1 $153 $154 $60 #
cone-surface $-1 46.709610929328235 33.938327936365283 8.2867216695307704 0 -0.5877852598018023 -0.80901698891910034 0.25 0 0 1 I I -0.70710678118654746 0.70710678118654746 0.25 forward I I I I #
loop $-1 $-1 $155 $41 #
coedge $-1 $98 $98 $156 $157 reversed $61 $-1 #
face $-1 $158 $159 $33 $-1 $160 reversed single #
loop $-1 $-1 $161 $63 #
plane-surface $-1 58.827402433968629 -45.755464069859869 1.1446817338142949 0 -0.77714596973225614 0.62932038083071107 1 0 0 forward_v I I I I #
coedge $-1 $162 $163 $164 $165 reversed $64 $-1 #
face $-1 $-1 $166 $34 $-1 $167 forward single #
loop $-1 $168 $169 $66 #
cone-surface $-1 52.650137388196768 -31.406641333376491 2.9766941040008206 0 0.77714596973225614 -0.62932038083071107 1.25 0 0 1 I I -0.70710678118654746 0.70710678118654746 1.25 forward I I I I #
loop $-1 $-1 $170 $43 #
coedge $-1 $107 $107 $171 $172 reversed $67 $-1 #
face $-1 $-1 $173 $35 $-1 $174 forward single #
loop $-1 $175 $176 $69 #
cone-surface $-1 65.00466747974049 -31.406641333376491 2.9766941040008206 0 0.77714596973225614 -0.62932038083071107 1.25 0 0 1 I I -0.70710678118654746 0.70710678118654746 1.25 forward I I I I #
loop $-1 $-1 $177 $44 #
coedge $-1 $112 $112 $178 $179 reversed $70 $-1 #
face $-1 $180 $181 $27 $-1 $182 reversed single #
loop $-1 $-1 $183 $72 #
plane-surface $-1 0 -45.755464069859883 0 0 1 0 0 0 1 forward_v I I I I #
coedge $-1 $184 $185 $186 $187 forward $73 $-1 #
coedge $-1 $188 $75 $189 $190 forward $46 $-1 #
coedge $-1 $75 $188 $191 $192 forward $46 $-1 #
coedge $-1 $193 $194 $75 $120 reversed $195 $-1 #
edge $-1 $196 -45.755464069859883 $197 45.755464069859883 $119 $198 forward 7 unknown #
face $-1 $199 $200 $28 $-1 $201 reversed single #
loop $-1 $-1 $202 $76 #
plane-surface $-1 0 0 -17.392857395200863 0 0 1 1 0 0 forward_v I I I I #
coedge $-1 $203 $127 $204 $205 reversed $77 $-1 #
coedge $-1 $206 $79 $207 $208 reversed $49 $-1 #
coedge $-1 $79 $206 $209 $210 reversed $49 $-1 #
coedge $-1 $124 $211 $79 $128 reversed $77 $-1 #
edge $-1 $212 -45.755464069859883 $213 45.755464069859883 $127 $214 forward 7 unknown #
face $-1 $215 $216 $29 $-1 $217 reversed single #
loop $-1 $-1 $218 $80 #
plane-surface $-1 50.637733732667229 61.625608466085467 178.91645733889453 -1 0 0 0 0.5877852598018023 0.80901698891910034 forward_v I I I I #
coedge $-1 $219 $220 $221 $222 reversed $81 $-1 #
coedge $-1 $134 $83 $223 $224 reversed $52 $-1 #
coedge $-1 $83 $133 $219 $225 reversed $52 $-1 #
coedge $-1 $221 $226 $83 $136 forward $227 $-1 #
edge $-1 $228 -14.94265983681715 $229 7.0897285284517295 $135 $230 forward 7 unknown #
loop $-1 $-1 $142 $84 #
plane-surface $-1 40.817426724319745 -28.278431466928382 55.174164613155099 0 0.5877852598018023 0.80901698891910034 1 0 0 forward_v I I I I #
loop $-1 $-1 $231 $54 #
coedge $-1 $140 $140 $141 $232 reversed $85 $-1 #
coedge $-1 $141 $141 $140 $232 forward $87 $-1 #
coedge $-1 $142 $142 $88 $143 forward $137 $-1 #
edge $-1 $233 -9.385504435292168e-015 $233 6.2831853071795907 $142 $234 forward 7 unknown #
loop $-1 $-1 $149 $89 #
plane-surface $-1 40.817426724319745 -28.278431466928382 55.174164613155099 0 0.5877852598018023 0.80901698891910034 1 0 0 forward_v I I I I #
loop $-1 $-1 $235 $57 #
coedge $-1 $147 $147 $148 $236 reversed $90 $-1 #
coedge $-1 $148 $148 $147 $236 forward $92 $-1 #
coedge $-1 $149 $149 $93 $150 forward $144 $-1 #
edge $-1 $237 -9.385504435292168e-015 $237 6.2831853071795907 $149 $238 forward 7 unknown #
loop $-1 $-1 $156 $94 #
plane-surface $-1 40.817426724319745 -28.278431466928382 55.174164613155099 0 0.5877852598018023 0.80901698891910034 1 0 0 forward_v I I I I #
loop $-1 $-1 $239 $60 #
coedge $-1 $154 $154 $155 $240 reversed $95 $-1 #
coedge $-1 $155 $155 $154 $240 forward $97 $-1 #
coedge $-1 $156 $156 $98 $157 forward $151 $-1 #
edge $-1 $241 -9.385504435292168e-015 $241 6.2831853071795907 $156 $242 forward 7 unknown #
face $-1 $243 $244 $33 $-1 $245 forward single #
loop $-1 $-1 $246 $99 #
plane-surface $-1 44.413783993834286 -164.62296054322974 97.401679855784295 1 0 0 0 0.77714596973225614 -0.62932038083071107 forward_v I I I I #
coedge $-1 $247 $248 $249 $250 reversed $100 $-1 #
coedge $-1 $163 $102 $251 $252 reversed $64 $-1 #
coedge $-1 $102 $162 $247 $253 reversed $64 $-1 #
coedge $-1 $249 $254 $102 $165 forward $244 $-1 #
edge $-1 $255 36.556016201754986 $256 49.71352906713205 $164 $257 forward 7 unknown #
loop $-1 $-1 $171 $103 #
plane-surface $-1 58.827402433968629 -45.755464069859869 1.1446817338142949 0 -0.77714596973225614 0.62932038083071107 1 0 0 forward_v I I I I #
loop $-1 $-1 $258 $66 #
coedge $-1 $169 $169 $170 $259 reversed $104 $-1 #
coedge $-1 $170 $170 $169 $259 forward $106 $-1 #
coedge $-1 $171 $171 $107 $172 forward $166 $-1 #
edge $-1 $260 8.4029118682761429e-016 $260 6.2831853071796013 $171 $261 forward 7 unknown #
loop $-1 $-1 $178 $108 #
plane-surface $-1 58.827402433968629 -45.755464069859869 1.1446817338142949 0 -0.77714596973225614 0.62932038083071107 1 0 0 forward_v I I I I #
loop $-1 $-1 $262 $69 #
coedge $-1 $176 $176 $177 $263 reversed $109 $-1 #
coedge $-1 $177 $177 $176 $263 forward $111 $-1 #
coedge $-1 $178 $178 $112 $179 forward $173 $-1 #
edge $-1 $264 8.4029118682761429e-016 $264 6.2831853071796013 $178 $265 forward 7 unknown #
face $-1 $266 $267 $27 $-1 $268 reversed single #
loop $-1 $-1 $269 $113 #
plane-surface $-1 -76.476943266090885 0 0 1 0 0 0 0 -1 forward_v I I I I #
coedge $-1 $270 $191 $271 $272 forward $114 $-1 #
coedge $-1 $273 $116 $270 $274 forward $73 $-1 #
coedge $-1 $116 $273 $275 $276 forward $73 $-1 #
coedge $-1 $194 $193 $116 $187 reversed $195 $-1 #
edge $-1 $277 -45.755464069859883 $278 45.755464069859883 $186 $279 forward 7 unknown #
coedge $-1 $118 $117 $280 $281 forward $46 $-1 #
coedge $-1 $282 $283 $117 $190 reversed $267 $-1 #
edge $-1 $197 -76.476943266090885 $284 76.476943266090885 $189 $285 forward 7 unknown #
coedge $-1 $183 $286 $118 $192 reversed $114 $-1 #
edge $-1 $287 -76.476943266090885 $196 76.476943266090885 $191 $288 forward 7 unknown #
coedge $-1 $186 $119 $286 $289 forward $195 $-1 #
coedge $-1 $119 $186 $282 $290 reversed $195 $-1 #
loop $-1 $-1 $193 $266 #
vertex $-1 $120 $291 #
vertex $-1 $120 $292 #
straight-curve $-1 76.476943266090885 0 17.392857395200863 0 1 0 I I #
face $-1 $293 $294 $28 $-1 $295 reversed single #
loop $-1 $-1 $204 $121 #
plane-surface $-1 0 -45.755464069859883 0 0 1 0 0 0 1 forward_v I I I I #
coedge $-1 $296 $297 $203 $298 forward $122 $-1 #
coedge $-1 $211 $124 $202 $298 reversed $77 $-1 #
coedge $-1 $209 $299 $124 $205 forward $200 $-1 #
edge $-1 $300 -11.264538472880165 $212 -0.99209937176122853 $204 $301 forward 7 unknown #
coedge $-1 $126 $125 $302 $303 reversed $49 $-1 #
coedge $-1 $304 $305 $125 $208 forward $306 $-1 #
edge $-1 $307 -41.835754791279612 $213 -27.446622158342933 $207 $308 forward 7 unknown #
coedge $-1 $309 $204 $126 $210 forward $200 $-1 #
edge $-1 $212 27.446622158342933 $310 41.835754791279612 $209 $311 forward 7 unknown #
coedge $-1 $127 $203 $304 $312 reversed $77 $-1 #
vertex $-1 $210 $313 #
vertex $-1 $208 $314 #
straight-curve $-1 -62.087810633154206 0 -7.1204182940819258 0 1 0 I I #
face $-1 $-1 $227 $29 $-1 $315 forward single #
loop $-1 $-1 $316 $129 #
plane-surface $-1 0 45.755464069859883 0 0 -1 0 0 0 -1 forward_v I I I I #
coedge $-1 $317 $318 $319 $320 reversed $130 $-1 #
coedge $-1 $321 $132 $134 $225 forward $81 $-1 #
coedge $-1 $132 $321 $317 $322 forward $81 $-1 #
coedge $-1 $319 $135 $132 $222 forward $227 $-1 #
edge $-1 $229 10.588406353812388 $323 30.229020370507357 $221 $324 forward 7 unknown #
coedge $-1 $325 $326 $133 $224 forward $216 $-1 #
edge $-1 $327 -88.072838727601408 $228 -72.065371274246402 $223 $328 forward 7 unknown #
edge $-1 $229 64.277398229914553 $327 91.510928139719766 $134 $329 forward 7 unknown #
coedge $-1 $135 $319 $325 $330 forward $227 $-1 #
loop $-1 $-1 $319 $215 #
vertex $-1 $224 $331 #
vertex $-1 $136 $332 #
straight-curve $-1 30.997119715972261 30.812804233042733 17.392857395200863 0 -1 0 I I #
coedge $-1 $231 $231 $-1 $333 reversed $139 $-1 #
edge $-1 $334 0 $334 6.2831853071796004 $140 $335 forward 7 unknown #
vertex $-1 $143 $336 #
ellipse-curve $-1 34.925242519311254 34.739269887225454 9.3891236685233537 0 0.5877852598018023 0.80901698891910034 0.5 0 0 1 I I #
coedge $-1 $235 $235 $-1 $337 reversed $146 $-1 #
edge $-1 $338 0 $338 6.2831853071796004 $147 $339 forward 7 unknown #
vertex $-1 $150 $340 #
ellipse-curve $-1 40.817426724319745 34.739269887225454 9.3891236685233537 0 0.5877852598018023 0.80901698891910034 0.5 0 0 1 I I #
coedge $-1 $239 $239 $-1 $341 reversed $153 $-1 #
edge $-1 $342 0 $342 6.2831853071796004 $154 $343 forward 7 unknown #
vertex $-1 $157 $344 #
ellipse-curve $-1 46.709610929328235 34.739269887225454 9.3891236685233537 0 0.5877852598018023 0.80901698891910034 0.5 0 0 1 I I #
face $-1 $-1 $345 $33 $-1 $346 reversed single #
loop $-1 $-1 $164 $158 #
plane-surface $-1 0 0 17.392857395200863 0 0 1 1 0 0 forward_v I I I I #
coedge $-1 $347 $348 $349 $350 reversed $159 $-1 #
coedge $-1 $351 $161 $163 $253 forward $100 $-1 #
coedge $-1 $161 $351 $347 $352 forward $100 $-1 #
coedge $-1 $349 $164 $161 $250 forward $244 $-1 #
edge $-1 $256 -43.827319657118657 $353 -15.000082776849972 $249 $354 forward 7 unknown #
coedge $-1 $355 $356 $162 $252 forward $345 $-1 #
edge $-1 $357 -47.556158194077867 $255 -31.307982532691284 $251 $358 forward 7 unknown #
edge $-1 $256 -20.907495237972373 $357 2.2575505016944882e-014 $163 $359 forward 7 unknown #
coedge $-1 $164 $349 $355 $360 forward $244 $-1 #
vertex $-1 $165 $361 #
vertex $-1 $165 $362 #
straight-curve $-1 73.241020874102972 -82.311480271614869 17.392857395200863 0 1 0 I I #
coedge $-1 $258 $258 $-1 $363 reversed $168 $-1 #
edge $-1 $364 0 $364 6.2831853071796004 $169 $365 forward 7 unknown #
vertex $-1 $172 $366 #
ellipse-curve $-1 52.650137388196768 -39.176707637171347 9.2687695645075756 0 -0.77714596973225614 0.62932038083071107 2.5 0 0 1 I I #
coedge $-1 $262 $262 $-1 $367 reversed $175 $-1 #
edge $-1 $368 0 $368 6.2831853071796004 $176 $369 forward 7 unknown #
vertex $-1 $179 $370 #
ellipse-curve $-1 65.00466747974049 -39.176707637171347 9.2687695645075756 0 -0.77714596973225614 0.62932038083071107 2.5 0 0 1 I I #
face $-1 $-1 $195 $27 $-1 $371 reversed single #
loop $-1 $-1 $282 $180 #
plane-surface $-1 0 45.755464069859883 0 0 -1 0 0 0 -1 forward_v I I I I #
coedge $-1 $372 $280 $283 $373 forward $181 $-1 #
coedge $-1 $286 $183 $184 $274 reversed $114 $-1 #
coedge $-1 $280 $372 $183 $272 reversed $181 $-1 #
edge $-1 $287 -17.392857395200863 $374 17.392857395200863 $271 $375 forward 7 unknown #
coedge $-1 $185 $184 $372 $376 forward $73 $-1 #
edge $-1 $278 -76.476943266090885 $374 76.476943266090885 $270 $377 forward 7 unknown #
coedge $-1 $283 $282 $185 $276 reversed $267 $-1 #
edge $-1 $378 -76.476943266090885 $277 76.476943266090885 $275 $379 forward 7 unknown #
vertex $-1 $187 $380 #
vertex $-1 $289 $381 #
straight-curve $-1 76.476943266090885 0 -17.392857395200863 0 -1 0 I I #
coedge $-1 $269 $271 $188 $281 reversed $181 $-1 #
edge $-1 $284 -45.755464069859883 $287 45.755464069859883 $280 $382 forward 7 unknown #
coedge $-1 $275 $189 $194 $290 forward $267 $-1 #
coedge $-1 $189 $275 $269 $373 reversed $267 $-1 #
vertex $-1 $190 $383 #
straight-curve $-1 0 45.755464069859883 17.392857395200863 -1 0 0 I I #
coedge $-1 $191 $270 $193 $289 reversed $114 $-1 #
vertex $-1 $281 $384 #
straight-curve $-1 0 -45.755464069859883 17.392857395200863 1 0 0 I I #
edge $-1 $196 -17.392857395200863 $278 17.392857395200863 $193 $385 forward 7 unknown #
edge $-1 $197 -17.392857395200863 $277 17.392857395200863 $194 $386 forward 7 unknown #
point $-1 76.476943266090885 -45.755464069859883 17.392857395200863 #
point $-1 76.476943266090885 45.755464069859883 17.392857395200863 #
face $-1 $-1 $306 $28 $-1 $387 reversed single #
loop $-1 $-1 $302 $199 #
plane-surface $-1 -76.476943266090885 0 0 1 0 0 0 0 -1 forward_v I I I I #
coedge $-1 $388 $202 $299 $389 forward $122 $-1 #
coedge $-1 $202 $388 $390 $391 forward $122 $-1 #
edge $-1 $392 -45.755464069859883 $300 45.755464069859883 $202 $393 forward 7 unknown #
coedge $-1 $204 $309 $296 $389 reversed $200 $-1 #
vertex $-1 $389 $394 #
straight-curve $-1 -62.087810633154206 -45.755464069859883 -6.1283189223206973 0 0 1 I I #
coedge $-1 $395 $396 $206 $303 forward $294 $-1 #
edge $-1 $310 -45.755464069859883 $307 45.755464069859883 $302 $397 forward 7 unknown #
coedge $-1 $390 $207 $211 $312 forward $306 $-1 #
coedge $-1 $207 $390 $395 $398 reversed $306 $-1 #
loop $-1 $-1 $304 $293 #
vertex $-1 $398 $399 #
straight-curve $-1 -34.641188474811273 45.755464069859883 -7.1204182940819258 1 0 0 I I #
coedge $-1 $299 $209 $396 $400 forward $200 $-1 #
vertex $-1 $400 $401 #
straight-curve $-1 -34.641188474811273 -45.755464069859883 -7.1204182940819258 -1 0 0 I I #
edge $-1 $213 0.99209937176122853 $392 11.264538472880165 $304 $402 forward 7 unknown #
point $-1 -62.087810633154206 -45.755464069859883 -7.1204182940819258 #
point $-1 -62.087810633154206 45.755464069859883 -7.1204182940819258 #
plane-surface $-1 0 0 17.392857395200863 0 0 1 1 0 0 forward_v I I I I #
coedge $-1 $326 $325 $318 $403 forward $216 $-1 #
coedge $-1 $318 $218 $220 $322 reversed $130 $-1 #
coedge $-1 $218 $317 $316 $403 reversed $130 $-1 #
coedge $-1 $226 $221 $218 $320 forward $227 $-1 #
edge $-1 $323 -7.0897285284517295 $404 14.94265983681715 $319 $405 forward 7 unknown #
coedge $-1 $220 $219 $326 $406 reversed $81 $-1 #
edge $-1 $407 -91.510928139719766 $323 -64.277398229914553 $317 $408 forward 7 unknown #
vertex $-1 $222 $409 #
straight-curve $-1 20.408713362159872 23.723075704591004 17.392857395200863 1 0 0 I I #
coedge $-1 $316 $223 $226 $330 reversed $216 $-1 #
coedge $-1 $223 $316 $321 $406 forward $216 $-1 #
vertex $-1 $224 $410 #
straight-curve $-1 30.997119715972261 45.755464069859883 89.458228669447266 0 0 1 I I #
straight-curve $-1 30.997119715972261 -28.278431466928382 55.174164613155099 0 0.80901698891910034 -0.5877852598018023 I I #
edge $-1 $404 -50.637733732667229 $228 -30.997119715972261 $325 $411 forward 7 unknown #
point $-1 30.997119715972261 45.755464069859883 17.392857395200863 #
point $-1 30.997119715972261 23.723075704591004 17.392857395200863 #
edge $-1 $412 1 $412 0 $231 $-1 forward 7 unknown #
vertex $-1 $232 $413 #
ellipse-curve $-1 34.925242519311254 34.085274251315731 8.4889759167605447 0 0.5877852598018023 0.80901698891910034 0.5 0 0 1 I I #
point $-1 35.425242519311254 34.739269887225461 9.3891236685233714 #
edge $-1 $414 1 $414 0 $235 $-1 forward 7 unknown #
vertex $-1 $236 $415 #
ellipse-curve $-1 40.817426724319745 34.085274251315731 8.4889759167605447 0 0.5877852598018023 0.80901698891910034 0.5 0 0 1 I I #
point $-1 41.317426724319745 34.739269887225461 9.3891236685233714 #
edge $-1 $416 1 $416 0 $239 $-1 forward 7 unknown #
vertex $-1 $240 $417 #
ellipse-curve $-1 46.709610929328235 34.085274251315731 8.4889759167605447 0 0.5877852598018023 0.80901698891910034 0.5 0 0 1 I I #
point $-1 47.209610929328235 34.739269887225461 9.3891236685233714 #
loop $-1 $-1 $251 $243 #
plane-surface $-1 0 -45.755464069859883 0 0 1 0 0 0 1 forward_v I I I I #
coedge $-1 $348 $246 $248 $352 reversed $159 $-1 #
coedge $-1 $246 $347 $418 $419 reversed $159 $-1 #
coedge $-1 $254 $249 $246 $350 forward $244 $-1 #
edge $-1 $353 -49.71352906713205 $420 -36.556016201754986 $349 $421 forward 7 unknown #
coedge $-1 $248 $247 $356 $422 reversed $100 $-1 #
edge $-1 $423 -2.2575505016944882e-014 $353 20.907495237972373 $347 $424 forward 7 unknown #
vertex $-1 $250 $425 #
straight-curve $-1 29.413701216984315 -32.597951204482818 17.392857395200863 -1 0 0 I I #
coedge $-1 $418 $251 $254 $360 reversed $345 $-1 #
coedge $-1 $251 $418 $351 $422 forward $345 $-1 #
vertex $-1 $252 $426 #
straight-curve $-1 73.241020874102972 -45.755464069859883 48.700839927892147 0 0 1 I I #
straight-curve $-1 73.241020874102972 -45.755464069859869 1.1446817338142949 0 -0.62932038083071107 -0.77714596973225614 I I #
edge $-1 $420 44.413783993834286 $255 73.241020874102972 $355 $427 forward 7 unknown #
point $-1 73.241020874102972 -45.755464069859883 17.392857395200863 #
point $-1 73.241020874102972 -32.597951204482818 17.392857395200863 #
edge $-1 $428 1 $428 0 $258 $-1 forward 7 unknown #
vertex $-1 $259 $429 #
ellipse-curve $-1 52.650137388196768 -32.378073795541809 3.7633445800392096 0 -0.77714596973225614 0.62932038083071107 2.5 0 0 1 I I #
point $-1 55.150137388196768 -39.176707637171361 9.2687695645075898 #
edge $-1 $430 1 $430 0 $262 $-1 forward 7 unknown #
vertex $-1 $263 $431 #
ellipse-curve $-1 65.00466747974049 -32.378073795541809 3.7633445800392096 0 -0.77714596973225614 0.62932038083071107 2.5 0 0 1 I I #
point $-1 67.50466747974049 -39.176707637171361 9.2687695645075898 #
plane-surface $-1 76.476943266090885 0 0 -1 0 0 0 0 1 forward_v I I I I #
coedge $-1 $271 $269 $273 $376 reversed $181 $-1 #
edge $-1 $284 -17.392857395200863 $378 17.392857395200863 $283 $432 forward 7 unknown #
vertex $-1 $376 $433 #
straight-curve $-1 -76.476943266090885 -45.755464069859883 0 0 0 -1 I I #
edge $-1 $374 -45.755464069859883 $378 45.755464069859883 $372 $434 forward 7 unknown #
straight-curve $-1 0 -45.755464069859883 -17.392857395200863 -1 0 0 I I #
vertex $-1 $276 $435 #
straight-curve $-1 0 45.755464069859883 -17.392857395200863 1 0 0 I I #
point $-1 76.476943266090885 45.755464069859883 -17.392857395200863 #
point $-1 76.476943266090885 -45.755464069859883 -17.392857395200863 #
straight-curve $-1 -76.476943266090885 0 17.392857395200863 0 -1 0 I I #
point $-1 -76.476943266090885 45.755464069859883 17.392857395200863 #
point $-1 -76.476943266090885 -45.755464069859883 17.392857395200863 #
straight-curve $-1 76.476943266090885 -45.755464069859883 0 0 0 -1 I I #
straight-curve $-1 76.476943266090885 45.755464069859883 0 0 0 -1 I I #
plane-surface $-1 0 45.755464069859883 0 0 -1 0 0 0 -1 forward_v I I I I #
coedge $-1 $297 $296 $436 $437 forward $122 $-1 #
edge $-1 $300 62.087810633154206 $438 76.476943266090885 $299 $439 forward 7 unknown #
coedge $-1 $305 $304 $297 $391 reversed $306 $-1 #
edge $-1 $440 -76.476943266090885 $392 -62.087810633154206 $390 $441 forward 7 unknown #
vertex $-1 $312 $442 #
straight-curve $-1 -62.087810633154206 0 -17.392857395200863 0 -1 0 I I #
point $-1 -62.087810633154206 -45.755464069859883 -17.392857395200863 #
coedge $-1 $436 $302 $305 $398 forward $294 $-1 #
coedge $-1 $302 $436 $309 $400 reversed $294 $-1 #
straight-curve $-1 -76.476943266090885 0 -7.1204182940819258 0 1 0 I I #
edge $-1 $307 7.1204182940819258 $440 17.392857395200863 $305 $443 forward 7 unknown #
point $-1 -76.476943266090885 45.755464069859883 -7.1204182940819258 #
edge $-1 $310 7.1204182940819258 $438 17.392857395200863 $396 $444 forward 7 unknown #
point $-1 -76.476943266090885 -45.755464069859883 -7.1204182940819258 #
straight-curve $-1 -62.087810633154206 45.755464069859883 -6.1283189223206973 0 0 -1 I I #
edge $-1 $404 72.065371274246402 $407 88.072838727601408 $316 $445 forward 7 unknown #
vertex $-1 $330 $446 #
straight-curve $-1 50.637733732667229 30.812804233042733 17.392857395200863 0 1 0 I I #
edge $-1 $407 -30.229020370507357 $327 -10.588406353812388 $326 $447 forward 7 unknown #
vertex $-1 $406 $448 #
straight-curve $-1 50.637733732667229 -28.278431466928382 55.174164613155099 0 -0.80901698891910034 0.5877852598018023 I I #
point $-1 50.637733732667229 23.723075704591004 17.392857395200863 #
point $-1 30.997119715972261 45.755464069859883 1.3853899418458511 #
straight-curve $-1 0 45.755464069859883 17.392857395200863 -1 0 0 I I #
vertex $-1 $333 $449 #
point $-1 35.425242519311254 34.085274251315731 8.4889759167605447 #
vertex $-1 $337 $450 #
point $-1 41.317426724319745 34.085274251315731 8.4889759167605447 #
vertex $-1 $341 $451 #
point $-1 47.209610929328235 34.085274251315731 8.4889759167605447 #
coedge $-1 $356 $355 $348 $419 forward $345 $-1 #
edge $-1 $420 31.307982532691284 $423 47.556158194077867 $418 $452 forward 7 unknown #
vertex $-1 $360 $453 #
straight-curve $-1 44.413783993834286 -82.311480271614869 17.392857395200863 0 -1 0 I I #
edge $-1 $423 15.000082776849972 $357 43.827319657118657 $356 $454 forward 7 unknown #
vertex $-1 $422 $455 #
straight-curve $-1 44.413783993834286 -45.755464069859869 1.1446817338142949 0 0.62932038083071107 0.77714596973225614 I I #
point $-1 44.413783993834286 -32.597951204482818 17.392857395200863 #
point $-1 73.241020874102972 -45.755464069859883 1.1446817338142774 #
straight-curve $-1 0 -45.755464069859883 17.392857395200863 1 0 0 I I #
vertex $-1 $363 $456 #
point $-1 55.150137388196768 -32.378073795541809 3.7633445800392096 #
vertex $-1 $367 $457 #
point $-1 67.50466747974049 -32.378073795541809 3.7633445800392096 #
straight-curve $-1 -76.476943266090885 45.755464069859883 0 0 0 -1 I I #
point $-1 -76.476943266090885 -45.755464069859883 -17.392857395200863 #
straight-curve $-1 -76.476943266090885 0 -17.392857395200863 0 1 0 I I #
point $-1 -76.476943266090885 45.755464069859883 -17.392857395200863 #
coedge $-1 $396 $395 $388 $437 reversed $294 $-1 #
edge $-1 $438 -45.755464069859883 $440 45.755464069859883 $436 $458 forward 7 unknown #
vertex $-1 $437 $459 #
straight-curve $-1 0 -45.755464069859883 -17.392857395200863 -1 0 0 I I #
vertex $-1 $391 $460 #
straight-curve $-1 0 45.755464069859883 -17.392857395200863 1 0 0 I I #
point $-1 -62.087810633154206 45.755464069859883 -17.392857395200863 #
straight-curve $-1 -76.476943266090885 45.755464069859883 0 0 0 -1 I I #
straight-curve $-1 -76.476943266090885 -45.755464069859883 0 0 0 -1 I I #
straight-curve $-1 50.637733732667229 45.755464069859883 89.458228669447266 0 0 -1 I I #
point $-1 50.637733732667229 45.755464069859883 17.392857395200863 #
straight-curve $-1 20.408713362159872 45.755464069859883 1.3853899418458475 -1 0 0 I I #
point $-1 50.637733732667229 45.755464069859883 1.3853899418458511 #
point $-1 34.925242519311254 33.791381621414835 8.084467422300996 #
point $-1 40.817426724319745 33.791381621414835 8.084467422300996 #
point $-1 46.709610929328235 33.791381621414835 8.084467422300996 #
straight-curve $-1 44.413783993834286 -45.755464069859883 48.700839927892147 0 0 -1 I I #
point $-1 44.413783993834286 -45.755464069859883 17.392857395200863 #
straight-curve $-1 29.413701216984315 -45.755464069859883 1.1446817338142807 1 0 0 I I #
point $-1 44.413783993834286 -45.755464069859883 1.1446817338142774 #
point $-1 52.650137388196768 -30.43520887121117 2.1900436279624316 #
point $-1 65.00466747974049 -30.43520887121117 2.1900436279624316 #
straight-curve $-1 -76.476943266090885 0 -17.392857395200863 0 1 0 I I #
point $-1 -76.476943266090885 -45.755464069859883 -17.392857395200863 #
point $-1 -76.476943266090885 45.755464069859883 -17.392857395200863 #
End-of-ACIS-data 