500 0 8 0           
7 Unknown 11 ACIS 5.0 NT 24 Fri Mar 26 15:36:02 1999 
-1 9.9999999999999995e-007 1e-010 
body $-1 $8 $-1 $9 #
body $-1 $10 $-1 $11 #
body $-1 $12 $-1 $13 #
body $-1 $14 $-1 $15 #
body $-1 $16 $-1 $17 #
body $-1 $18 $-1 $19 #
body $-1 $20 $-1 $21 #
body $-1 $22 $-1 $23 #
lump $-1 $-1 $24 $0 #
transform $-1 1 0 0 0 1 0 0 0 1 52.235480819116795 30.907679959019752 15.440540065345559 1 rotate no_reflect no_shear #
lump $-1 $-1 $25 $1 #
transform $-1 1 0 0 0 1 0 0 0 1 52.235480819116795 30.907679959019752 15.440540065345559 1 rotate no_reflect no_shear #
lump $-1 $-1 $26 $2 #
transform $-1 1 0 0 0 1 0 0 0 1 52.235480819116795 30.907679959019752 15.440540065345559 1 rotate no_reflect no_shear #
lump $-1 $-1 $27 $3 #
transform $-1 1 0 0 0 1 0 0 0 1 52.235480819116795 30.907679959019752 15.440540065345559 1 rotate no_reflect no_shear #
lump $-1 $-1 $28 $4 #
transform $-1 1 0 0 0 1 0 0 0 1 52.235480819116795 30.907679959019752 15.440540065345559 1 rotate no_reflect no_shear #
lump $-1 $-1 $29 $5 #
transform $-1 1 0 0 0 1 0 0 0 1 52.235480819116795 30.907679959019752 15.440540065345559 1 rotate no_reflect no_shear #
lump $-1 $-1 $30 $6 #
transform $-1 1 0 0 0 1 0 0 0 1 52.235480819116795 30.907679959019752 15.440540065345559 1 rotate no_reflect no_shear #
lump $-1 $-1 $31 $7 #
transform $-1 1 0 0 0 1 0 0 0 1 52.235480819116795 30.907679959019752 15.440540065345559 1 rotate no_reflect no_shear #
shell $-1 $-1 $-1 $32 $-1 $8 #
shell $-1 $-1 $-1 $33 $-1 $10 #
shell $-1 $-1 $-1 $34 $-1 $12 #
shell $-1 $-1 $-1 $35 $-1 $14 #
shell $-1 $-1 $-1 $36 $-1 $16 #
shell $-1 $-1 $-1 $37 $-1 $18 #
shell $-1 $-1 $-1 $38 $-1 $20 #
shell $-1 $-1 $-1 $39 $-1 $22 #
face $-1 $40 $41 $24 $-1 $42 forward single #
face $-1 $43 $44 $25 $-1 $45 reversed single #
face $-1 $46 $47 $26 $-1 $48 reversed single #
face $-1 $49 $50 $27 $-1 $51 forward single #
face $-1 $52 $53 $28 $-1 $54 reversed single #
face $-1 $55 $56 $29 $-1 $57 forward single #
face $-1 $58 $59 $30 $-1 $60 reversed single #
face $-1 $61 $62 $31 $-1 $63 forward single #
face $-1 $64 $65 $24 $-1 $66 reversed single #
loop $-1 $-1 $67 $32 #
plane-surface $-1 0 0 15.440540065345559 0 0 1 1 0 0 forward_v I I I I #
face $-1 $68 $69 $25 $-1 $70 reversed single #
loop $-1 $-1 $71 $33 #
plane-surface $-1 -46.09772075520992 -22.52185088237912 0 1 0 0 0 0 -1 forward_v I I I I #
face $-1 $72 $73 $26 $-1 $74 reversed single #
loop $-1 $-1 $75 $34 #
plane-surface $-1 47.079282461733136 -1.8458254272848649 147.73359942306314 0 -1 0 -0.68199836817093118 0 -0.7313536940579346 forward_v I I I I #
face $-1 $76 $77 $27 $-1 $78 forward single #
loop $-1 $79 $80 $35 #
cone-surface $-1 42.831076902121133 -6.324703085868105 6.5074459273556391 -0.68199836817093118 0 -0.7313536940579346 1.4627073881158692 0 -1.3639967363418624 1 I I 0 1 2 forward I I I I #
face $-1 $81 $82 $28 $-1 $83 reversed single #
loop $-1 $-1 $84 $36 #
plane-surface $-1 47.079282461733136 27.575238897732614 147.73359942306314 0 -1 0 -0.68199836817093118 0 -0.7313536940579346 forward_v I I I I #
face $-1 $85 $86 $29 $-1 $87 forward single #
loop $-1 $88 $89 $37 #
cone-surface $-1 42.831076902121133 23.096361239149374 6.5074459273556391 -0.68199836817093118 0 -0.7313536940579346 1.4627073881158692 0 -1.3639967363418624 1 I I 0 1 2 forward I I I I #
face $-1 $90 $91 $30 $-1 $92 reversed single #
loop $-1 $-1 $93 $38 #
plane-surface $-1 -141.78457382683283 3.3451861323900083 65.97180328285539 0 1 0 -0.85716730853699208 0 0.51503806187062418 forward_v I I I I #
face $-1 $94 $95 $31 $-1 $96 forward single #
loop $-1 $97 $98 $39 #
cone-surface $-1 -50.657248933034104 8.2403738236947532 13.44585244833282 0.85716730853699208 0 -0.51503806187062418 0.25751903093531209 0 0.42858365426849604 1 I I 0 1 0.5 forward I I I I #
face $-1 $99 $100 $24 $-1 $101 reversed single #
loop $-1 $-1 $102 $40 #
plane-surface $-1 0 0 -15.440540065345559 0 0 1 1 0 0 forward_v I I I I #
coedge $-1 $103 $104 $105 $106 forward $41 $-1 #
face $-1 $107 $108 $25 $-1 $109 reversed single #
loop $-1 $-1 $110 $43 #
plane-surface $-1 -43.981414426053348 -14.136021805738485 0 0 -1 0 0 0 -1 forward_v I I I I #
coedge $-1 $111 $112 $113 $114 forward $44 $-1 #
face $-1 $115 $116 $26 $-1 $117 reversed single #
loop $-1 $-1 $118 $46 #
plane-surface $-1 -24.169742896790119 -6.324703085868105 71.328375707156226 0.68199836817093118 0 0.7313536940579346 0.7313536940579346 0 -0.68199836817093118 forward_v I I I I #
coedge $-1 $119 $120 $121 $122 reversed $47 $-1 #
face $-1 $-1 $123 $27 $-1 $124 forward single #
loop $-1 $125 $126 $49 #
cone-surface $-1 40.981104034353656 -6.324703085868105 4.5235929536640782 -0.68199836817093118 0 -0.7313536940579346 0.7313536940579346 0 -0.68199836817093118 1 I I -0.70710678118654746 0.70710678118654746 1 forward I I I I #
loop $-1 $-1 $127 $35 #
coedge $-1 $80 $80 $128 $129 reversed $50 $-1 #
face $-1 $130 $131 $28 $-1 $132 reversed single #
loop $-1 $-1 $133 $52 #
plane-surface $-1 -24.169742896790119 23.096361239149374 71.328375707156226 0.68199836817093118 0 0.7313536940579346 0.7313536940579346 0 -0.68199836817093118 forward_v I I I I #
coedge $-1 $134 $135 $136 $137 reversed $53 $-1 #
face $-1 $-1 $138 $29 $-1 $139 forward single #
loop $-1 $140 $141 $55 #
cone-surface $-1 40.981104034353656 23.096361239149374 4.5235929536640782 -0.68199836817093118 0 -0.7313536940579346 0.7313536940579346 0 -0.68199836817093118 1 I I -0.70710678118654746 0.70710678118654746 1 forward I I I I #
loop $-1 $-1 $142 $37 #
coedge $-1 $89 $89 $143 $144 reversed $56 $-1 #
face $-1 $145 $146 $30 $-1 $147 reversed single #
loop $-1 $-1 $148 $58 #
plane-surface $-1 -52.235480819116788 8.2403738236947603 12.165281678939238 -0.85716730853699208 0 0.51503806187062418 0.51503806187062418 0 0.85716730853699208 forward_v I I I I #
coedge $-1 $149 $150 $151 $152 reversed $59 $-1 #
face $-1 $-1 $153 $31 $-1 $154 forward single #
loop $-1 $155 $156 $61 #
cone-surface $-1 -49.848712076676748 8.2403738236947532 12.960034509055582 0.85716730853699208 0 -0.51503806187062418 0.12875951546765604 0 0.21429182713424802 1 I I -0.70710678118654746 0.70710678118654746 0.25 forward I I I I #
loop $-1 $-1 $157 $39 #
coedge $-1 $98 $98 $158 $159 reversed $62 $-1 #
face $-1 $160 $161 $24 $-1 $162 reversed single #
loop $-1 $-1 $163 $64 #
plane-surface $-1 0 -30.907679959019752 0 0 1 0 0 0 1 forward_v I I I I #
coedge $-1 $164 $165 $166 $167 forward $65 $-1 #
coedge $-1 $168 $67 $169 $170 forward $41 $-1 #
coedge $-1 $67 $168 $171 $172 forward $41 $-1 #
coedge $-1 $173 $174 $67 $106 reversed $175 $-1 #
edge $-1 $176 -30.907679959019752 $177 30.907679959019752 $105 $178 forward 7 unknown #
face $-1 $179 $180 $25 $-1 $181 forward single #
loop $-1 $-1 $182 $68 #
plane-surface $-1 -41.865108096896776 -22.52185088237912 0 -1 0 0 0 0 1 forward_v I I I I #
coedge $-1 $183 $184 $185 $186 forward $69 $-1 #
coedge $-1 $187 $71 $188 $189 reversed $44 $-1 #
coedge $-1 $71 $187 $190 $191 reversed $44 $-1 #
coedge $-1 $184 $183 $71 $114 reversed $69 $-1 #
edge $-1 $192 -15.440540065345559 $193 15.440540065345559 $113 $194 forward 7 unknown #
face $-1 $195 $196 $26 $-1 $197 reversed single #
loop $-1 $-1 $198 $72 #
plane-surface $-1 47.079282461733136 -10.803580744451345 147.73359942306314 0 1 0 0.68199836817093118 0 0.7313536940579346 forward_v I I I I #
coedge $-1 $199 $200 $201 $202 reversed $73 $-1 #
coedge $-1 $120 $75 $203 $204 reversed $47 $-1 #
coedge $-1 $75 $119 $199 $205 reversed $47 $-1 #
coedge $-1 $201 $206 $75 $122 forward $207 $-1 #
edge $-1 $208 -28.695839588250227 $209 -12.222980753451974 $121 $210 forward 7 unknown #
loop $-1 $-1 $128 $76 #
plane-surface $-1 -24.169742896790119 -6.324703085868105 71.328375707156226 0.68199836817093118 0 0.7313536940579346 0.7313536940579346 0 -0.68199836817093118 forward_v I I I I #
loop $-1 $-1 $211 $49 #
coedge $-1 $126 $126 $127 $212 reversed $77 $-1 #
coedge $-1 $127 $127 $126 $212 forward $79 $-1 #
coedge $-1 $128 $128 $80 $129 forward $123 $-1 #
edge $-1 $213 0 $213 6.2831853071796004 $128 $214 forward 7 unknown #
face $-1 $215 $216 $28 $-1 $217 reversed single #
loop $-1 $-1 $218 $81 #
plane-surface $-1 47.079282461733136 18.617483580566134 147.73359942306314 0 1 0 0.68199836817093118 0 0.7313536940579346 forward_v I I I I #
coedge $-1 $219 $220 $221 $222 reversed $82 $-1 #
coedge $-1 $135 $84 $223 $224 reversed $53 $-1 #
coedge $-1 $84 $134 $219 $225 reversed $53 $-1 #
coedge $-1 $221 $226 $84 $137 forward $227 $-1 #
edge $-1 $228 -28.695839588250227 $229 -12.222980753451974 $136 $230 forward 7 unknown #
loop $-1 $-1 $143 $85 #
plane-surface $-1 -24.169742896790119 23.096361239149374 71.328375707156226 0.68199836817093118 0 0.7313536940579346 0.7313536940579346 0 -0.68199836817093118 forward_v I I I I #
loop $-1 $-1 $231 $55 #
coedge $-1 $141 $141 $142 $232 reversed $86 $-1 #
coedge $-1 $142 $142 $141 $232 forward $88 $-1 #
coedge $-1 $143 $143 $89 $144 forward $138 $-1 #
edge $-1 $233 0 $233 6.2831853071796004 $143 $234 forward 7 unknown #
face $-1 $235 $236 $30 $-1 $237 reversed single #
loop $-1 $-1 $238 $90 #
plane-surface $-1 -141.78457382683283 13.135561514999512 65.97180328285539 0 -1 0 0.85716730853699208 0 -0.51503806187062418 forward_v I I I I #
coedge $-1 $239 $240 $241 $242 reversed $91 $-1 #
coedge $-1 $150 $93 $243 $244 reversed $59 $-1 #
coedge $-1 $93 $149 $239 $245 reversed $59 $-1 #
coedge $-1 $241 $246 $93 $152 forward $247 $-1 #
edge $-1 $248 18.656806094299618 $249 20.624779808018808 $151 $250 forward 7 unknown #
loop $-1 $-1 $158 $94 #
plane-surface $-1 -52.235480819116788 8.2403738236947603 12.165281678939238 -0.85716730853699208 0 0.51503806187062418 0.51503806187062418 0 0.85716730853699208 forward_v I I I I #
loop $-1 $-1 $251 $61 #
coedge $-1 $156 $156 $157 $252 reversed $95 $-1 #
coedge $-1 $157 $157 $156 $252 forward $97 $-1 #
coedge $-1 $158 $158 $98 $159 forward $153 $-1 #
edge $-1 $253 0 $253 6.2831853071796004 $158 $254 forward 7 unknown #
face $-1 $255 $256 $24 $-1 $257 reversed single #
loop $-1 $-1 $258 $99 #
plane-surface $-1 -52.235480819116795 0 0 1 0 0 0 0 -1 forward_v I I I I #
coedge $-1 $259 $171 $260 $261 forward $100 $-1 #
coedge $-1 $262 $102 $259 $263 forward $65 $-1 #
coedge $-1 $102 $262 $264 $265 forward $65 $-1 #
coedge $-1 $174 $173 $102 $167 reversed $175 $-1 #
edge $-1 $266 -30.907679959019752 $267 30.907679959019752 $166 $268 forward 7 unknown #
coedge $-1 $104 $103 $269 $270 forward $41 $-1 #
coedge $-1 $271 $272 $103 $170 reversed $256 $-1 #
edge $-1 $177 -52.235480819116795 $273 52.235480819116795 $169 $274 forward 7 unknown #
coedge $-1 $163 $275 $104 $172 reversed $100 $-1 #
edge $-1 $276 -52.235480819116795 $176 52.235480819116795 $171 $277 forward 7 unknown #
coedge $-1 $166 $105 $275 $278 forward $175 $-1 #
coedge $-1 $105 $166 $271 $279 reversed $175 $-1 #
loop $-1 $-1 $173 $255 #
vertex $-1 $106 $280 #
vertex $-1 $106 $281 #
straight-curve $-1 52.235480819116795 0 15.440540065345559 0 1 0 I I #
face $-1 $282 $283 $25 $-1 $284 reversed single #
loop $-1 $-1 $285 $107 #
plane-surface $-1 0 0 15.440540065345559 0 0 1 1 0 0 forward_v I I I I #
coedge $-1 $286 $287 $288 $289 reversed $108 $-1 #
coedge $-1 $113 $110 $290 $291 reversed $69 $-1 #
coedge $-1 $110 $113 $292 $293 reversed $69 $-1 #
coedge $-1 $287 $286 $110 $186 reversed $108 $-1 #
edge $-1 $294 -15.440540065345559 $295 15.440540065345559 $185 $296 forward 7 unknown #
coedge $-1 $112 $111 $297 $298 reversed $44 $-1 #
coedge $-1 $290 $299 $111 $189 forward $283 $-1 #
edge $-1 $300 -19.646754517830193 $193 -2.8750963645489254 $188 $301 forward 7 unknown #
coedge $-1 $302 $292 $112 $191 forward $180 $-1 #
edge $-1 $192 2.8750963645489254 $303 19.646754517830193 $190 $304 forward 7 unknown #
vertex $-1 $191 $305 #
vertex $-1 $189 $306 #
straight-curve $-1 -46.09772075520992 -14.136021805738485 0 0 0 -1 I I #
face $-1 $-1 $207 $26 $-1 $307 forward single #
loop $-1 $-1 $308 $115 #
plane-surface $-1 52.235480819116795 0 0 -1 0 0 0 0 1 forward_v I I I I #
coedge $-1 $309 $310 $311 $312 reversed $116 $-1 #
coedge $-1 $313 $118 $120 $205 forward $73 $-1 #
coedge $-1 $118 $313 $309 $314 forward $73 $-1 #
coedge $-1 $311 $121 $118 $202 forward $207 $-1 #
edge $-1 $209 -1.3165261156491876 $315 7.6412292015172927 $201 $316 forward 7 unknown #
coedge $-1 $317 $318 $119 $204 forward $196 $-1 #
edge $-1 $319 -73.787449362898599 $208 -58.426259646186011 $203 $320 forward 7 unknown #
edge $-1 $209 81.947169157746927 $319 104.47096163823359 $120 $321 forward 7 unknown #
coedge $-1 $121 $311 $317 $322 forward $207 $-1 #
loop $-1 $-1 $311 $195 #
vertex $-1 $204 $323 #
vertex $-1 $122 $324 #
straight-curve $-1 23.539641230866568 -1.8458254272848649 15.440540065345559 -1 0 0 I I #
coedge $-1 $211 $211 $-1 $325 reversed $125 $-1 #
edge $-1 $326 0 $326 6.2831853071796004 $126 $327 forward 7 unknown #
vertex $-1 $129 $328 #
ellipse-curve $-1 43.999051401717672 -6.324703085868105 7.7599452069892614 0.68199836817093118 0 0.7313536940579346 1.4627073881158692 0 -1.3639967363418624 1 I I #
face $-1 $-1 $227 $28 $-1 $329 forward single #
loop $-1 $-1 $330 $130 #
plane-surface $-1 52.235480819116795 0 0 -1 0 0 0 0 1 forward_v I I I I #
coedge $-1 $331 $332 $333 $334 reversed $131 $-1 #
coedge $-1 $335 $133 $135 $225 forward $82 $-1 #
coedge $-1 $133 $335 $331 $336 forward $82 $-1 #
coedge $-1 $333 $136 $133 $222 forward $227 $-1 #
edge $-1 $229 -16.027058278157927 $337 -7.0693029609914468 $221 $338 forward 7 unknown #
coedge $-1 $339 $340 $134 $224 forward $216 $-1 #
edge $-1 $341 -73.787449362898599 $228 -58.426259646186011 $223 $342 forward 7 unknown #
edge $-1 $229 81.947169157746927 $341 104.47096163823359 $135 $343 forward 7 unknown #
coedge $-1 $136 $333 $339 $344 forward $227 $-1 #
loop $-1 $-1 $333 $215 #
vertex $-1 $224 $345 #
vertex $-1 $137 $346 #
straight-curve $-1 23.539641230866568 27.575238897732614 15.440540065345559 -1 0 0 I I #
coedge $-1 $231 $231 $-1 $347 reversed $140 $-1 #
edge $-1 $348 0 $348 6.2831853071796004 $141 $349 forward 7 unknown #
vertex $-1 $144 $350 #
ellipse-curve $-1 43.999051401717672 23.096361239149374 7.7599452069892614 0.68199836817093118 0 0.7313536940579346 1.4627073881158692 0 -1.3639967363418624 1 I I #
face $-1 $-1 $247 $30 $-1 $351 forward single #
loop $-1 $-1 $352 $145 #
plane-surface $-1 -52.235480819116795 0 0 1 0 0 0 0 -1 forward_v I I I I #
coedge $-1 $353 $354 $355 $356 reversed $146 $-1 #
coedge $-1 $357 $148 $150 $245 forward $91 $-1 #
coedge $-1 $148 $357 $353 $358 forward $91 $-1 #
coedge $-1 $355 $151 $148 $242 forward $247 $-1 #
edge $-1 $249 -0.77500077945737189 $359 9.0153746031521322 $241 $360 forward 7 unknown #
coedge $-1 $361 $362 $149 $244 forward $236 $-1 #
edge $-1 $363 -20.820619962488472 $248 -17.545361576082136 $243 $364 forward 7 unknown #
edge $-1 $249 -3.8210257831653807 $363 1.431801061223127e-014 $150 $365 forward 7 unknown #
coedge $-1 $151 $355 $361 $366 forward $247 $-1 #
loop $-1 $-1 $355 $235 #
vertex $-1 $244 $367 #
vertex $-1 $152 $368 #
straight-curve $-1 -70.892286913416413 3.3451861323900083 15.440540065345559 1 0 0 I I #
coedge $-1 $251 $251 $-1 $369 reversed $155 $-1 #
edge $-1 $370 0 $370 6.2831853071796004 $156 $371 forward 7 unknown #
vertex $-1 $159 $372 #
ellipse-curve $-1 -51.2514939622572 8.2403738236947532 13.802910872142396 -0.85716730853699208 0 0.51503806187062418 0.25751903093531209 0 0.42858365426849604 1 I I #
face $-1 $-1 $175 $24 $-1 $373 reversed single #
loop $-1 $-1 $271 $160 #
plane-surface $-1 0 30.907679959019752 0 0 -1 0 0 0 -1 forward_v I I I I #
coedge $-1 $374 $269 $272 $375 forward $161 $-1 #
coedge $-1 $275 $163 $164 $263 reversed $100 $-1 #
coedge $-1 $269 $374 $163 $261 reversed $161 $-1 #
edge $-1 $276 -15.440540065345559 $376 15.440540065345559 $260 $377 forward 7 unknown #
coedge $-1 $165 $164 $374 $378 forward $65 $-1 #
edge $-1 $267 -52.235480819116795 $376 52.235480819116795 $259 $379 forward 7 unknown #
coedge $-1 $272 $271 $165 $265 reversed $256 $-1 #
edge $-1 $380 -52.235480819116795 $266 52.235480819116795 $264 $381 forward 7 unknown #
vertex $-1 $167 $382 #
vertex $-1 $278 $383 #
straight-curve $-1 52.235480819116795 0 -15.440540065345559 0 -1 0 I I #
coedge $-1 $258 $260 $168 $270 reversed $161 $-1 #
edge $-1 $273 -30.907679959019752 $276 30.907679959019752 $269 $384 forward 7 unknown #
coedge $-1 $264 $169 $174 $279 forward $256 $-1 #
coedge $-1 $169 $264 $258 $375 reversed $256 $-1 #
vertex $-1 $170 $385 #
straight-curve $-1 0 30.907679959019752 15.440540065345559 -1 0 0 I I #
coedge $-1 $171 $259 $173 $278 reversed $100 $-1 #
vertex $-1 $270 $386 #
straight-curve $-1 0 -30.907679959019752 15.440540065345559 1 0 0 I I #
edge $-1 $176 -15.440540065345559 $267 15.440540065345559 $173 $387 forward 7 unknown #
edge $-1 $177 -15.440540065345559 $266 15.440540065345559 $174 $388 forward 7 unknown #
point $-1 52.235480819116795 -30.907679959019752 15.440540065345559 #
point $-1 52.235480819116795 30.907679959019752 15.440540065345559 #
face $-1 $-1 $389 $25 $-1 $390 reversed single #
loop $-1 $-1 $391 $179 #
plane-surface $-1 0 0 -15.440540065345559 0 0 1 1 0 0 forward_v I I I I #
coedge $-1 $292 $302 $287 $392 forward $180 $-1 #
coedge $-1 $185 $182 $391 $393 reversed $108 $-1 #
coedge $-1 $182 $185 $285 $392 reversed $108 $-1 #
coedge $-1 $394 $395 $182 $289 forward $389 $-1 #
edge $-1 $396 -15.440540065345559 $397 15.440540065345559 $288 $398 forward 7 unknown #
coedge $-1 $391 $188 $183 $291 forward $283 $-1 #
edge $-1 $193 -24.107013542183246 $295 -19.874400883870102 $290 $399 forward 7 unknown #
coedge $-1 $190 $285 $184 $293 forward $180 $-1 #
edge $-1 $294 19.874400883870102 $192 24.107013542183246 $292 $400 forward 7 unknown #
vertex $-1 $293 $401 #
vertex $-1 $291 $402 #
straight-curve $-1 -41.865108096896776 -14.136021805738485 0 0 0 -1 I I #
coedge $-1 $395 $394 $187 $298 forward $389 $-1 #
edge $-1 $303 -15.440540065345559 $300 15.440540065345559 $297 $403 forward 7 unknown #
coedge $-1 $188 $391 $395 $404 forward $283 $-1 #
vertex $-1 $189 $405 #
straight-curve $-1 -46.09772075520992 -11.26092544118956 -15.440540065345559 0 1 0 I I #
coedge $-1 $285 $190 $394 $406 forward $180 $-1 #
vertex $-1 $406 $407 #
straight-curve $-1 -46.09772075520992 -11.26092544118956 15.440540065345559 0 -1 0 I I #
point $-1 -46.09772075520992 -14.136021805738485 15.440540065345559 #
point $-1 -46.09772075520992 -14.136021805738485 -15.440540065345559 #
plane-surface $-1 0 0 15.440540065345559 0 0 1 1 0 0 forward_v I I I I #
coedge $-1 $318 $317 $310 $408 forward $196 $-1 #
coedge $-1 $310 $198 $200 $314 reversed $116 $-1 #
coedge $-1 $198 $309 $308 $408 reversed $116 $-1 #
coedge $-1 $206 $201 $198 $312 forward $207 $-1 #
edge $-1 $315 12.222980753451974 $409 28.695839588250227 $311 $410 forward 7 unknown #
coedge $-1 $200 $199 $318 $411 reversed $73 $-1 #
edge $-1 $412 -104.47096163823359 $315 -81.947169157746927 $309 $413 forward 7 unknown #
vertex $-1 $202 $414 #
straight-curve $-1 35.762621984318542 -3.1623515429340525 15.440540065345559 0 -1 0 I I #
coedge $-1 $308 $203 $206 $322 reversed $196 $-1 #
coedge $-1 $203 $308 $313 $411 forward $196 $-1 #
vertex $-1 $204 $415 #
straight-curve $-1 52.235480819116795 -1.8458254272848649 73.86679971153157 0 0 1 I I #
straight-curve $-1 -24.169742896790119 -1.8458254272848649 71.328375707156226 0.7313536940579346 0 -0.68199836817093118 I I #
edge $-1 $409 -10.803580744451345 $208 -1.8458254272848649 $317 $416 forward 7 unknown #
point $-1 52.235480819116795 -1.8458254272848649 15.440540065345559 #
point $-1 35.762621984318542 -1.8458254272848649 15.440540065345559 #
edge $-1 $417 1 $417 0 $211 $-1 forward 7 unknown #
vertex $-1 $212 $418 #
ellipse-curve $-1 41.663102402524586 -6.324703085868105 5.2549466477220133 0.68199836817093118 0 0.7313536940579346 1.4627073881158692 0 -1.3639967363418624 1 I I #
point $-1 45.461758789833546 -6.324703085868105 6.3959484706474043 #
plane-surface $-1 0 0 15.440540065345559 0 0 1 1 0 0 forward_v I I I I #
coedge $-1 $340 $339 $332 $419 forward $216 $-1 #
coedge $-1 $332 $218 $220 $336 reversed $131 $-1 #
coedge $-1 $218 $331 $330 $419 reversed $131 $-1 #
coedge $-1 $226 $221 $218 $334 forward $227 $-1 #
edge $-1 $337 12.222980753451974 $420 28.695839588250227 $333 $421 forward 7 unknown #
coedge $-1 $220 $219 $340 $422 reversed $82 $-1 #
edge $-1 $423 -104.47096163823359 $337 -81.947169157746927 $331 $424 forward 7 unknown #
vertex $-1 $222 $425 #
straight-curve $-1 35.762621984318542 11.548180619574687 15.440540065345559 0 -1 0 I I #
coedge $-1 $330 $223 $226 $344 reversed $216 $-1 #
coedge $-1 $223 $330 $335 $422 forward $216 $-1 #
vertex $-1 $224 $426 #
straight-curve $-1 52.235480819116795 27.575238897732614 73.86679971153157 0 0 1 I I #
straight-curve $-1 -24.169742896790119 27.575238897732614 71.328375707156226 0.7313536940579346 0 -0.68199836817093118 I I #
edge $-1 $420 18.617483580566134 $228 27.575238897732614 $339 $427 forward 7 unknown #
point $-1 52.235480819116795 27.575238897732614 15.440540065345559 #
point $-1 35.762621984318542 27.575238897732614 15.440540065345559 #
edge $-1 $428 1 $428 0 $231 $-1 forward 7 unknown #
vertex $-1 $232 $429 #
ellipse-curve $-1 41.663102402524586 23.096361239149374 5.2549466477220133 0.68199836817093118 0 0.7313536940579346 1.4627073881158692 0 -1.3639967363418624 1 I I #
point $-1 45.461758789833546 23.096361239149374 6.3959484706474043 #
plane-surface $-1 0 0 15.440540065345559 0 0 1 1 0 0 forward_v I I I I #
coedge $-1 $362 $361 $354 $430 forward $236 $-1 #
coedge $-1 $354 $238 $240 $358 reversed $146 $-1 #
coedge $-1 $238 $353 $352 $430 reversed $146 $-1 #
coedge $-1 $246 $241 $238 $356 forward $247 $-1 #
edge $-1 $359 -20.624779808018808 $431 -18.656806094299618 $355 $432 forward 7 unknown #
coedge $-1 $240 $239 $362 $433 reversed $91 $-1 #
edge $-1 $434 -1.431801061223127e-014 $359 3.8210257831653807 $353 $435 forward 7 unknown #
vertex $-1 $242 $436 #
straight-curve $-1 -50.267507105397598 4.1201869118473802 15.440540065345559 0 1 0 I I #
coedge $-1 $352 $243 $246 $366 reversed $236 $-1 #
coedge $-1 $243 $352 $357 $433 forward $236 $-1 #
vertex $-1 $244 $437 #
straight-curve $-1 -52.235480819116795 3.3451861323900083 32.985901641427695 0 0 1 I I #
straight-curve $-1 -52.235480819116788 3.3451861323900083 12.165281678939238 -0.51503806187062418 0 -0.85716730853699208 I I #
edge $-1 $431 -13.135561514999512 $248 -3.3451861323900083 $361 $438 forward 7 unknown #
point $-1 -52.235480819116795 3.3451861323900083 15.440540065345559 #
point $-1 -50.267507105397605 3.3451861323900083 15.440540065345559 #
edge $-1 $439 1 $439 0 $251 $-1 forward 7 unknown #
vertex $-1 $252 $440 #
ellipse-curve $-1 -50.063003903810994 8.2403738236947532 13.088794024523239 -0.85716730853699208 0 0.51503806187062418 0.25751903093531209 0 0.42858365426849604 1 I I #
point $-1 -50.993974931321894 8.2403738236947532 14.231494526410899 #
plane-surface $-1 52.235480819116795 0 0 -1 0 0 0 0 1 forward_v I I I I #
coedge $-1 $260 $258 $262 $378 reversed $161 $-1 #
edge $-1 $273 -15.440540065345559 $380 15.440540065345559 $272 $441 forward 7 unknown #
vertex $-1 $378 $442 #
straight-curve $-1 -52.235480819116795 -30.907679959019752 0 0 0 -1 I I #
edge $-1 $376 -30.907679959019752 $380 30.907679959019752 $374 $443 forward 7 unknown #
straight-curve $-1 0 -30.907679959019752 -15.440540065345559 -1 0 0 I I #
vertex $-1 $265 $444 #
straight-curve $-1 0 30.907679959019752 -15.440540065345559 1 0 0 I I #
point $-1 52.235480819116795 30.907679959019752 -15.440540065345559 #
point $-1 52.235480819116795 -30.907679959019752 -15.440540065345559 #
straight-curve $-1 -52.235480819116795 0 15.440540065345559 0 -1 0 I I #
point $-1 -52.235480819116795 30.907679959019752 15.440540065345559 #
point $-1 -52.235480819116795 -30.907679959019752 15.440540065345559 #
straight-curve $-1 52.235480819116795 -30.907679959019752 0 0 0 -1 I I #
straight-curve $-1 52.235480819116795 30.907679959019752 0 0 0 -1 I I #
loop $-1 $-1 $288 $282 #
plane-surface $-1 0 -30.907679959019752 0 0 1 0 0 0 1 forward_v I I I I #
coedge $-1 $299 $290 $286 $393 forward $283 $-1 #
edge $-1 $397 -19.646754517830193 $294 -2.8750963645489254 $285 $445 forward 7 unknown #
edge $-1 $295 2.8750963645489254 $396 19.646754517830193 $391 $446 forward 7 unknown #
coedge $-1 $297 $288 $302 $406 reversed $389 $-1 #
coedge $-1 $288 $297 $299 $404 reversed $389 $-1 #
vertex $-1 $404 $447 #
vertex $-1 $289 $448 #
straight-curve $-1 -41.865108096896776 -30.907679959019752 0 0 0 1 I I #
straight-curve $-1 -21.990707213026674 -14.136021805738485 -15.440540065345559 1 0 0 I I #
straight-curve $-1 -21.990707213026674 -14.136021805738485 15.440540065345559 -1 0 0 I I #
point $-1 -41.865108096896776 -14.136021805738485 15.440540065345559 #
point $-1 -41.865108096896776 -14.136021805738485 -15.440540065345559 #
straight-curve $-1 -46.09772075520992 -30.907679959019752 0 0 0 -1 I I #
edge $-1 $396 41.865108096896776 $300 46.09772075520992 $395 $449 forward 7 unknown #
point $-1 -46.09772075520992 -30.907679959019752 -15.440540065345559 #
edge $-1 $303 -46.09772075520992 $397 -41.865108096896776 $394 $450 forward 7 unknown #
point $-1 -46.09772075520992 -30.907679959019752 15.440540065345559 #
edge $-1 $409 58.426259646186011 $412 73.787449362898599 $308 $451 forward 7 unknown #
vertex $-1 $322 $452 #
straight-curve $-1 23.539641230866568 -10.803580744451345 15.440540065345559 1 0 0 I I #
edge $-1 $412 -7.6412292015172927 $319 1.3165261156491876 $318 $453 forward 7 unknown #
vertex $-1 $411 $454 #
straight-curve $-1 -24.169742896790119 -10.803580744451345 71.328375707156226 -0.7313536940579346 0 0.68199836817093118 I I #
point $-1 35.762621984318542 -10.803580744451345 15.440540065345559 #
point $-1 52.235480819116795 -1.8458254272848649 0.07935034863297119 #
straight-curve $-1 52.235480819116795 0 15.440540065345559 0 1 0 I I #
vertex $-1 $325 $455 #
point $-1 43.12580979064046 -6.324703085868105 3.8909499113801504 #
edge $-1 $420 58.426259646186011 $423 73.787449362898599 $330 $456 forward 7 unknown #
vertex $-1 $344 $457 #
straight-curve $-1 23.539641230866568 18.617483580566134 15.440540065345559 1 0 0 I I #
edge $-1 $423 7.0693029609914468 $341 16.027058278157927 $340 $458 forward 7 unknown #
vertex $-1 $422 $459 #
straight-curve $-1 -24.169742896790119 18.617483580566134 71.328375707156226 -0.7313536940579346 0 0.68199836817093118 I I #
point $-1 35.762621984318542 18.617483580566134 15.440540065345559 #
point $-1 52.235480819116795 27.575238897732614 0.07935034863297119 #
straight-curve $-1 52.235480819116795 0 15.440540065345559 0 1 0 I I #
vertex $-1 $347 $460 #
point $-1 43.12580979064046 23.096361239149374 3.8909499113801504 #
edge $-1 $431 17.545361576082136 $434 20.820619962488472 $352 $461 forward 7 unknown #
vertex $-1 $366 $462 #
straight-curve $-1 -70.892286913416413 13.135561514999512 15.440540065345559 -1 0 0 I I #
edge $-1 $434 -9.0153746031521322 $363 0.77500077945737189 $362 $463 forward 7 unknown #
vertex $-1 $433 $464 #
straight-curve $-1 -52.235480819116788 13.135561514999512 12.165281678939238 0.51503806187062418 0 0.85716730853699208 I I #
point $-1 -50.267507105397605 13.135561514999512 15.440540065345559 #
point $-1 -52.235480819116795 3.3451861323900083 12.165281678939225 #
straight-curve $-1 -52.235480819116795 0 15.440540065345559 0 -1 0 I I #
vertex $-1 $369 $465 #
point $-1 -49.805484872875681 8.2403738236947532 13.517377678791734 #
straight-curve $-1 -52.235480819116795 30.907679959019752 0 0 0 -1 I I #
point $-1 -52.235480819116795 -30.907679959019752 -15.440540065345559 #
straight-curve $-1 -52.235480819116795 0 -15.440540065345559 0 1 0 I I #
point $-1 -52.235480819116795 30.907679959019752 -15.440540065345559 #
straight-curve $-1 -41.865108096896776 -11.26092544118956 15.440540065345559 0 1 0 I I #
straight-curve $-1 -41.865108096896776 -11.26092544118956 -15.440540065345559 0 -1 0 I I #
point $-1 -41.865108096896776 -30.907679959019752 -15.440540065345559 #
point $-1 -41.865108096896776 -30.907679959019752 15.440540065345559 #
straight-curve $-1 0 -30.907679959019752 -15.440540065345559 -1 0 0 I I #
straight-curve $-1 0 -30.907679959019752 15.440540065345559 1 0 0 I I #
straight-curve $-1 52.235480819116795 -10.803580744451345 73.86679971153157 0 0 -1 I I #
point $-1 52.235480819116795 -10.803580744451345 15.440540065345559 #
straight-curve $-1 52.235480819116788 -3.1623515429340525 0.079350348632964085 0 1 0 I I #
point $-1 52.235480819116795 -10.803580744451345 0.07935034863297119 #
point $-1 40.299105666182726 -6.324703085868105 3.7922392596061436 #
straight-curve $-1 52.235480819116795 18.617483580566134 73.86679971153157 0 0 -1 I I #
point $-1 52.235480819116795 18.617483580566134 15.440540065345559 #
straight-curve $-1 52.235480819116788 11.548180619574687 0.079350348632964085 0 1 0 I I #
point $-1 52.235480819116795 18.617483580566134 0.07935034863297119 #
point $-1 40.299105666182726 23.096361239149374 3.7922392596061436 #
straight-curve $-1 -52.235480819116795 13.135561514999512 32.985901641427695 0 0 -1 I I #
point $-1 -52.235480819116795 13.135561514999512 15.440540065345559 #
straight-curve $-1 -52.235480819116795 4.1201869118473802 12.165281678939214 0 -1 0 I I #
point $-1 -52.235480819116795 13.135561514999512 12.165281678939225 #
point $-1 -49.634420249542501 8.2403738236947532 12.831274993587925 #
End-of-ACIS-data 