500 0 8 0           
7 Unknown 11 ACIS 5.0 NT 24 Thu Mar 25 18:21:25 1999 
-1 9.9999999999999995e-007 1e-010 
body $-1 $8 $-1 $9 #
body $-1 $10 $-1 $11 #
body $-1 $12 $-1 $13 #
body $-1 $14 $-1 $15 #
body $-1 $16 $-1 $17 #
body $-1 $18 $-1 $19 #
body $-1 $20 $-1 $21 #
body $-1 $22 $-1 $23 #
lump $-1 $-1 $24 $0 #
transform $-1 1 0 0 0 1 0 0 0 1 77.363200781273832 50.656640960802655 20.431630378187322 1 rotate no_reflect no_shear #
lump $-1 $-1 $25 $1 #
transform $-1 1 0 0 0 1 0 0 0 1 77.363200781273832 50.656640960802655 20.431630378187322 1 rotate no_reflect no_shear #
lump $-1 $-1 $26 $2 #
transform $-1 1 0 0 0 1 0 0 0 1 77.363200781273832 50.656640960802655 20.431630378187322 1 rotate no_reflect no_shear #
lump $-1 $-1 $27 $3 #
transform $-1 1 0 0 0 1 0 0 0 1 77.363200781273832 50.656640960802655 20.431630378187322 1 rotate no_reflect no_shear #
lump $-1 $-1 $28 $4 #
transform $-1 1 0 0 0 1 0 0 0 1 77.363200781273832 50.656640960802655 20.431630378187322 1 rotate no_reflect no_shear #
lump $-1 $-1 $29 $5 #
transform $-1 1 0 0 0 1 0 0 0 1 77.363200781273832 50.656640960802655 20.431630378187322 1 rotate no_reflect no_shear #
lump $-1 $-1 $30 $6 #
transform $-1 1 0 0 0 1 0 0 0 1 77.363200781273832 50.656640960802655 20.431630378187322 1 rotate no_reflect no_shear #
lump $-1 $-1 $31 $7 #
transform $-1 1 0 0 0 1 0 0 0 1 77.363200781273832 50.656640960802655 20.431630378187322 1 rotate no_reflect no_shear #
shell $-1 $-1 $-1 $32 $-1 $8 #
shell $-1 $-1 $-1 $33 $-1 $10 #
shell $-1 $-1 $-1 $34 $-1 $12 #
shell $-1 $-1 $-1 $35 $-1 $14 #
shell $-1 $-1 $-1 $36 $-1 $16 #
shell $-1 $-1 $-1 $37 $-1 $18 #
shell $-1 $-1 $-1 $38 $-1 $20 #
shell $-1 $-1 $-1 $39 $-1 $22 #
face $-1 $40 $41 $24 $-1 $42 forward single #
face $-1 $43 $44 $25 $-1 $45 forward single #
face $-1 $46 $47 $26 $-1 $48 reversed single #
face $-1 $49 $50 $27 $-1 $51 forward single #
face $-1 $52 $53 $28 $-1 $54 reversed single #
face $-1 $55 $56 $29 $-1 $57 forward single #
face $-1 $58 $59 $30 $-1 $60 forward single #
face $-1 $61 $62 $31 $-1 $63 forward single #
face $-1 $64 $65 $24 $-1 $66 reversed single #
loop $-1 $-1 $67 $32 #
plane-surface $-1 0 0 20.431630378187322 0 0 1 1 0 0 forward_v I I I I #
face $-1 $68 $69 $25 $-1 $70 reversed single #
loop $-1 $-1 $71 $33 #
plane-surface $-1 0 -43.87263756593309 -12.060566874443772 0 0 1 1 0 0 forward_v I I I I #
face $-1 $72 $73 $26 $-1 $74 reversed single #
loop $-1 $-1 $75 $34 #
plane-surface $-1 -186.77128982415707 30.067952711913435 118.73382522074246 0 1 0 -0.70710678939079041 0 0.70710677298230451 forward_v I I I I #
face $-1 $76 $77 $27 $-1 $78 forward single #
loop $-1 $79 $80 $35 #
cone-surface $-1 -68.45334830150361 40.362296836358048 11.521777847457779 0.70710678939079041 0 -0.70710677298230451 2.1213203189469136 0 2.1213203681723711 1 I I 0 1 3 forward I I I I #
face $-1 $81 $82 $28 $-1 $83 reversed single #
loop $-1 $-1 $84 $36 #
plane-surface $-1 119.11529851090353 34.426853765484971 226.26342538808476 0 -1 0 -0.82903758062907751 0 -0.55919289150049634 forward_v I I I I #
face $-1 $85 $86 $29 $-1 $87 forward single #
loop $-1 $88 $89 $37 #
cone-surface $-1 72.962187710793287 19.849682229859901 15.0202179518493 -0.82903758062907751 0 -0.55919289150049634 0.83878933725074445 0 -1.2435563709436162 1 I I 0 1 1.5 forward I I I I #
face $-1 $90 $91 $30 $-1 $92 forward single #
loop $-1 $93 $94 $38 #
cone-surface $-1 72.962187710793287 25.316121555719299 15.0202179518493 -0.82903758062907751 0 -0.55919289150049634 0.83878933725074445 0 -1.2435563709436162 1 I I 0 1 1.5 forward I I I I #
face $-1 $95 $96 $31 $-1 $97 forward single #
loop $-1 $98 $99 $39 #
cone-surface $-1 72.962187710793287 30.782560881578696 15.0202179518493 -0.82903758062907751 0 -0.55919289150049634 0.83878933725074445 0 -1.2435563709436162 1 I I 0 1 1.5 forward I I I I #
face $-1 $100 $101 $24 $-1 $102 reversed single #
loop $-1 $-1 $103 $40 #
plane-surface $-1 0 0 -20.431630378187322 0 0 1 1 0 0 forward_v I I I I #
coedge $-1 $104 $105 $106 $107 forward $41 $-1 #
face $-1 $108 $109 $25 $-1 $110 reversed single #
loop $-1 $-1 $111 $43 #
plane-surface $-1 0 -37.088634171063525 -16.246098626315547 0 -1 0 0 0 -1 forward_v I I I I #
coedge $-1 $112 $113 $114 $115 reversed $44 $-1 #
face $-1 $116 $117 $26 $-1 $118 reversed single #
loop $-1 $-1 $119 $46 #
plane-surface $-1 -77.363200781273804 40.362296836358048 9.32573871668518 -0.70710678939079041 0 0.70710677298230451 0.70710677298230451 0 0.70710678939079041 forward_v I I I I #
coedge $-1 $120 $121 $122 $123 reversed $47 $-1 #
face $-1 $-1 $124 $27 $-1 $125 forward single #
loop $-1 $126 $127 $49 #
cone-surface $-1 -64.035781339541572 40.362296836358048 7.1042109880058426 0.70710678939079041 0 -0.70710677298230451 1.0606601594734568 0 1.0606601840861856 1 I I -0.70710678118654757 0.70710678118654757 1.5 forward I I I I #
loop $-1 $-1 $128 $35 #
coedge $-1 $80 $80 $129 $130 reversed $50 $-1 #
face $-1 $131 $132 $28 $-1 $133 reversed single #
loop $-1 $-1 $134 $52 #
plane-surface $-1 -9.1587030999540957 25.316121555719299 139.74152150685683 0.82903758062907751 0 0.55919289150049634 0.55919289150049634 0 -0.82903758062907751 forward_v I I I I #
coedge $-1 $135 $136 $137 $138 reversed $53 $-1 #
face $-1 $-1 $139 $29 $-1 $140 forward single #
loop $-1 $141 $142 $55 #
cone-surface $-1 70.962580793759003 19.849682229859901 13.671466097979987 -0.82903758062907751 0 -0.55919289150049634 0.41939466862537222 0 -0.62177818547180808 1 I I -0.70710678118654835 0.70710678118654668 0.75 forward I I I I #
loop $-1 $-1 $143 $37 #
coedge $-1 $89 $89 $144 $145 reversed $56 $-1 #
face $-1 $-1 $146 $30 $-1 $147 forward single #
loop $-1 $148 $149 $58 #
cone-surface $-1 70.962580793759003 25.316121555719299 13.671466097979987 -0.82903758062907751 0 -0.55919289150049634 0.41939466862537222 0 -0.62177818547180808 1 I I -0.70710678118654835 0.70710678118654668 0.75 forward I I I I #
loop $-1 $-1 $150 $38 #
coedge $-1 $94 $94 $151 $152 reversed $59 $-1 #
face $-1 $-1 $153 $31 $-1 $154 forward single #
loop $-1 $155 $156 $61 #
cone-surface $-1 70.962580793759003 30.782560881578696 13.671466097979987 -0.82903758062907751 0 -0.55919289150049634 0.41939466862537222 0 -0.62177818547180808 1 I I -0.70710678118654835 0.70710678118654668 0.75 forward I I I I #
loop $-1 $-1 $157 $39 #
coedge $-1 $99 $99 $158 $159 reversed $62 $-1 #
face $-1 $160 $161 $24 $-1 $162 reversed single #
loop $-1 $-1 $163 $64 #
plane-surface $-1 0 -50.656640960802655 0 0 1 0 0 0 1 forward_v I I I I #
coedge $-1 $164 $165 $166 $167 forward $65 $-1 #
coedge $-1 $168 $67 $169 $170 forward $41 $-1 #
coedge $-1 $67 $168 $171 $172 forward $41 $-1 #
coedge $-1 $173 $174 $67 $107 reversed $175 $-1 #
edge $-1 $176 -50.656640960802655 $177 50.656640960802655 $106 $178 forward 7 unknown #
face $-1 $179 $180 $25 $-1 $181 reversed single #
loop $-1 $-1 $182 $68 #
plane-surface $-1 0 0 -20.431630378187322 0 0 1 1 0 0 forward_v I I I I #
coedge $-1 $183 $184 $185 $186 reversed $69 $-1 #
coedge $-1 $187 $71 $184 $188 forward $44 $-1 #
coedge $-1 $71 $187 $189 $190 reversed $44 $-1 #
coedge $-1 $191 $185 $71 $115 forward $180 $-1 #
edge $-1 $192 15.15231538809698 $193 28.72032217783611 $114 $194 forward 7 unknown #
face $-1 $195 $196 $26 $-1 $197 reversed single #
loop $-1 $-1 $198 $72 #
plane-surface $-1 0 50.656640960802655 0 0 -1 0 0 0 -1 forward_v I I I I #
coedge $-1 $199 $200 $201 $202 reversed $73 $-1 #
coedge $-1 $121 $75 $203 $204 reversed $47 $-1 #
coedge $-1 $75 $120 $199 $205 reversed $47 $-1 #
coedge $-1 $201 $206 $75 $123 forward $207 $-1 #
edge $-1 $208 16.022444130804701 $209 27.128335534593504 $122 $210 forward 7 unknown #
loop $-1 $-1 $129 $76 #
plane-surface $-1 -77.363200781273804 40.362296836358048 9.32573871668518 -0.70710678939079041 0 0.70710677298230451 0.70710677298230451 0 0.70710678939079041 forward_v I I I I #
loop $-1 $-1 $211 $49 #
coedge $-1 $127 $127 $128 $212 reversed $77 $-1 #
coedge $-1 $128 $128 $127 $212 forward $79 $-1 #
coedge $-1 $129 $129 $80 $130 forward $124 $-1 #
edge $-1 $213 0 $213 6.2831853071796004 $129 $214 forward 7 unknown #
face $-1 $215 $216 $28 $-1 $217 forward single #
loop $-1 $-1 $218 $81 #
plane-surface $-1 119.11529851090353 16.205389345953627 226.26342538808476 0 1 0 0.82903758062907751 0 0.55919289150049634 forward_v I I I I #
coedge $-1 $219 $220 $221 $222 reversed $82 $-1 #
coedge $-1 $136 $84 $223 $224 reversed $53 $-1 #
coedge $-1 $84 $135 $219 $225 reversed $53 $-1 #
coedge $-1 $221 $226 $84 $138 forward $216 $-1 #
edge $-1 $227 -17.805551525822068 $228 -11.759182847985969 $137 $229 forward 7 unknown #
loop $-1 $-1 $144 $85 #
plane-surface $-1 -9.1587030999540957 25.316121555719299 139.74152150685683 0.82903758062907751 0 0.55919289150049634 0.55919289150049634 0 -0.82903758062907751 forward_v I I I I #
loop $-1 $-1 $230 $55 #
coedge $-1 $142 $142 $143 $231 reversed $86 $-1 #
coedge $-1 $143 $143 $142 $231 forward $88 $-1 #
coedge $-1 $144 $144 $89 $145 forward $139 $-1 #
edge $-1 $232 0 $232 6.2831853071796004 $144 $233 forward 7 unknown #
loop $-1 $-1 $151 $90 #
plane-surface $-1 -9.1587030999540957 25.316121555719299 139.74152150685683 0.82903758062907751 0 0.55919289150049634 0.55919289150049634 0 -0.82903758062907751 forward_v I I I I #
loop $-1 $-1 $234 $58 #
coedge $-1 $149 $149 $150 $235 reversed $91 $-1 #
coedge $-1 $150 $150 $149 $235 forward $93 $-1 #
coedge $-1 $151 $151 $94 $152 forward $146 $-1 #
edge $-1 $236 0 $236 6.2831853071796004 $151 $237 forward 7 unknown #
loop $-1 $-1 $158 $95 #
plane-surface $-1 -9.1587030999540957 25.316121555719299 139.74152150685683 0.82903758062907751 0 0.55919289150049634 0.55919289150049634 0 -0.82903758062907751 forward_v I I I I #
loop $-1 $-1 $238 $61 #
coedge $-1 $156 $156 $157 $239 reversed $96 $-1 #
coedge $-1 $157 $157 $156 $239 forward $98 $-1 #
coedge $-1 $158 $158 $99 $159 forward $153 $-1 #
edge $-1 $240 0 $240 6.2831853071796004 $158 $241 forward 7 unknown #
face $-1 $242 $243 $24 $-1 $244 reversed single #
loop $-1 $-1 $245 $100 #
plane-surface $-1 -77.363200781273832 0 0 1 0 0 0 0 -1 forward_v I I I I #
coedge $-1 $246 $171 $247 $248 forward $101 $-1 #
coedge $-1 $249 $103 $246 $250 forward $65 $-1 #
coedge $-1 $103 $249 $251 $252 forward $65 $-1 #
coedge $-1 $174 $173 $103 $167 reversed $175 $-1 #
edge $-1 $253 -50.656640960802655 $254 50.656640960802655 $166 $255 forward 7 unknown #
coedge $-1 $105 $104 $256 $257 forward $41 $-1 #
coedge $-1 $258 $259 $104 $170 reversed $243 $-1 #
edge $-1 $177 -77.363200781273832 $260 77.363200781273832 $169 $261 forward 7 unknown #
coedge $-1 $163 $262 $105 $172 reversed $101 $-1 #
edge $-1 $263 -77.363200781273832 $176 77.363200781273832 $171 $264 forward 7 unknown #
coedge $-1 $166 $106 $262 $265 forward $175 $-1 #
coedge $-1 $106 $166 $258 $266 reversed $175 $-1 #
loop $-1 $-1 $173 $242 #
vertex $-1 $107 $267 #
vertex $-1 $107 $268 #
straight-curve $-1 77.363200781273832 0 20.431630378187322 0 1 0 I I #
face $-1 $269 $270 $25 $-1 $271 reversed single #
loop $-1 $-1 $185 $108 #
plane-surface $-1 77.363200781273832 0 0 -1 0 0 0 0 1 forward_v I I I I #
coedge $-1 $272 $273 $183 $274 forward $109 $-1 #
coedge $-1 $275 $111 $182 $274 reversed $69 $-1 #
coedge $-1 $111 $275 $112 $188 reversed $69 $-1 #
coedge $-1 $114 $276 $111 $186 forward $180 $-1 #
edge $-1 $277 -12.308581065029548 $192 -3.9375175612859987 $185 $278 forward 7 unknown #
coedge $-1 $113 $112 $279 $280 reversed $44 $-1 #
edge $-1 $192 -77.363200781273832 $281 77.363200781273832 $184 $282 forward 7 unknown #
coedge $-1 $283 $284 $113 $190 forward $270 $-1 #
edge $-1 $193 -77.363200781273832 $285 77.363200781273832 $189 $286 forward 7 unknown #
coedge $-1 $276 $114 $284 $287 forward $180 $-1 #
vertex $-1 $115 $288 #
vertex $-1 $287 $289 #
straight-curve $-1 77.363200781273832 -21.936318782966545 -12.060566874443772 0 -1 0 I I #
face $-1 $-1 $207 $26 $-1 $290 forward single #
loop $-1 $-1 $291 $116 #
plane-surface $-1 -77.363200781273832 0 0 1 0 0 0 0 -1 forward_v I I I I #
coedge $-1 $292 $293 $200 $294 forward $117 $-1 #
coedge $-1 $295 $119 $121 $205 forward $73 $-1 #
coedge $-1 $119 $295 $198 $294 reversed $73 $-1 #
coedge $-1 $296 $122 $119 $202 forward $207 $-1 #
edge $-1 $209 9.8868042937344107 $297 30.475492542623638 $201 $298 forward 7 unknown #
coedge $-1 $299 $291 $120 $204 forward $196 $-1 #
edge $-1 $300 -50.041173893686079 $208 -38.935282232183908 $203 $301 forward 7 unknown #
edge $-1 $209 -15.70610242771173 $300 4.0194366942304651e-014 $121 $302 forward 7 unknown #
coedge $-1 $122 $296 $299 $303 forward $207 $-1 #
loop $-1 $-1 $201 $195 #
vertex $-1 $204 $304 #
vertex $-1 $123 $305 #
straight-curve $-1 -93.385644912078533 30.067952711913435 20.431630378187322 1 0 0 I I #
coedge $-1 $211 $211 $-1 $306 reversed $126 $-1 #
edge $-1 $307 0 $307 6.2831853071796004 $127 $308 forward 7 unknown #
vertex $-1 $130 $309 #
ellipse-curve $-1 -71.810255079379431 40.362296836358048 14.878684547436233 -0.70710678939079041 0 0.70710677298230451 2.1213203189469136 0 2.1213203681723711 1 I I #
face $-1 $-1 $310 $28 $-1 $311 reversed single #
loop $-1 $-1 $137 $131 #
plane-surface $-1 0 0 20.431630378187322 0 0 1 1 0 0 forward_v I I I I #
coedge $-1 $312 $313 $314 $315 reversed $132 $-1 #
coedge $-1 $316 $134 $136 $225 forward $82 $-1 #
coedge $-1 $134 $316 $312 $317 forward $82 $-1 #
coedge $-1 $314 $137 $134 $222 forward $216 $-1 #
edge $-1 $228 -21.768792987625321 $318 -3.5473285680939775 $221 $319 forward 7 unknown #
coedge $-1 $320 $321 $135 $224 forward $310 $-1 #
edge $-1 $322 -101.66419279804317 $227 -92.700082315855056 $223 $323 forward 7 unknown #
edge $-1 $228 143.91373071186547 $322 154.72640156254766 $136 $324 forward 7 unknown #
coedge $-1 $137 $314 $320 $325 forward $216 $-1 #
vertex $-1 $224 $326 #
vertex $-1 $138 $327 #
straight-curve $-1 59.557649255451764 34.426853765484971 20.431630378187322 -1 0 0 I I #
coedge $-1 $230 $230 $-1 $328 reversed $141 $-1 #
edge $-1 $329 0 $329 6.2831853071796004 $142 $330 forward 7 unknown #
vertex $-1 $145 $331 #
ellipse-curve $-1 74.34001644235579 19.849682229859901 15.949575137093257 0.82903758062907751 0 0.55919289150049634 0.83878933725074445 0 -1.2435563709436162 1 I I #
coedge $-1 $234 $234 $-1 $332 reversed $148 $-1 #
edge $-1 $333 0 $333 6.2831853071796004 $149 $334 forward 7 unknown #
vertex $-1 $152 $335 #
ellipse-curve $-1 74.34001644235579 25.316121555719299 15.949575137093257 0.82903758062907751 0 0.55919289150049634 0.83878933725074445 0 -1.2435563709436162 1 I I #
coedge $-1 $238 $238 $-1 $336 reversed $155 $-1 #
edge $-1 $337 0 $337 6.2831853071796004 $156 $338 forward 7 unknown #
vertex $-1 $159 $339 #
ellipse-curve $-1 74.34001644235579 30.782560881578696 15.949575137093257 0.82903758062907751 0 0.55919289150049634 0.83878933725074445 0 -1.2435563709436162 1 I I #
face $-1 $-1 $175 $24 $-1 $340 reversed single #
loop $-1 $-1 $258 $160 #
plane-surface $-1 0 50.656640960802655 0 0 -1 0 0 0 -1 forward_v I I I I #
coedge $-1 $341 $256 $259 $342 forward $161 $-1 #
coedge $-1 $262 $163 $164 $250 reversed $101 $-1 #
coedge $-1 $256 $341 $163 $248 reversed $161 $-1 #
edge $-1 $263 -20.431630378187322 $343 20.431630378187322 $247 $344 forward 7 unknown #
coedge $-1 $165 $164 $341 $345 forward $65 $-1 #
edge $-1 $254 -77.363200781273832 $343 77.363200781273832 $246 $346 forward 7 unknown #
coedge $-1 $259 $258 $165 $252 reversed $243 $-1 #
edge $-1 $347 -77.363200781273832 $253 77.363200781273832 $251 $348 forward 7 unknown #
vertex $-1 $167 $349 #
vertex $-1 $265 $350 #
straight-curve $-1 77.363200781273832 0 -20.431630378187322 0 -1 0 I I #
coedge $-1 $245 $247 $168 $257 reversed $161 $-1 #
edge $-1 $260 -50.656640960802655 $263 50.656640960802655 $256 $351 forward 7 unknown #
coedge $-1 $251 $169 $174 $266 forward $243 $-1 #
coedge $-1 $169 $251 $245 $342 reversed $243 $-1 #
vertex $-1 $170 $352 #
straight-curve $-1 0 50.656640960802655 20.431630378187322 -1 0 0 I I #
coedge $-1 $171 $246 $173 $265 reversed $101 $-1 #
vertex $-1 $257 $353 #
straight-curve $-1 0 -50.656640960802655 20.431630378187322 1 0 0 I I #
edge $-1 $176 -20.431630378187322 $254 20.431630378187322 $173 $354 forward 7 unknown #
edge $-1 $177 -20.431630378187322 $253 20.431630378187322 $174 $355 forward 7 unknown #
point $-1 77.363200781273832 -50.656640960802655 20.431630378187322 #
point $-1 77.363200781273832 50.656640960802655 20.431630378187322 #
face $-1 $-1 $356 $25 $-1 $357 reversed single #
loop $-1 $-1 $189 $179 #
plane-surface $-1 0 -50.656640960802655 0 0 1 0 0 0 1 forward_v I I I I #
coedge $-1 $358 $182 $276 $359 forward $109 $-1 #
coedge $-1 $182 $358 $360 $361 forward $109 $-1 #
edge $-1 $362 -77.363200781273832 $277 77.363200781273832 $182 $363 forward 7 unknown #
coedge $-1 $184 $183 $364 $365 reversed $69 $-1 #
coedge $-1 $185 $191 $272 $359 reversed $180 $-1 #
vertex $-1 $359 $366 #
straight-curve $-1 77.363200781273832 -37.088634171063525 -8.1230493131577735 0 0 1 I I #
coedge $-1 $364 $367 $187 $280 forward $356 $-1 #
edge $-1 $285 -28.72032217783611 $281 -15.15231538809698 $279 $368 forward 7 unknown #
vertex $-1 $280 $369 #
straight-curve $-1 0 -37.088634171063525 -12.060566874443772 -1 0 0 I I #
coedge $-1 $370 $189 $367 $371 forward $270 $-1 #
coedge $-1 $189 $370 $191 $287 reversed $270 $-1 #
vertex $-1 $371 $372 #
straight-curve $-1 0 -50.656640960802655 -12.060566874443772 -1 0 0 I I #
edge $-1 $193 12.060566874443772 $373 20.431630378187322 $191 $374 forward 7 unknown #
point $-1 77.363200781273832 -37.088634171063525 -12.060566874443772 #
point $-1 77.363200781273832 -50.656640960802655 -12.060566874443772 #
plane-surface $-1 0 0 20.431630378187322 0 0 1 1 0 0 forward_v I I I I #
coedge $-1 $203 $375 $295 $376 forward $196 $-1 #
coedge $-1 $293 $198 $375 $377 reversed $117 $-1 #
coedge $-1 $198 $292 $296 $378 reversed $117 $-1 #
edge $-1 $297 8.3487726169762588 $379 24.054875044688025 $198 $380 forward 7 unknown #
coedge $-1 $200 $199 $291 $376 reversed $73 $-1 #
coedge $-1 $206 $201 $293 $378 forward $207 $-1 #
vertex $-1 $378 $381 #
straight-curve $-1 -66.257309377485029 20.181148418179024 20.431630378187322 0 1 0 I I #
coedge $-1 $375 $203 $206 $303 reversed $196 $-1 #
vertex $-1 $204 $382 #
straight-curve $-1 -77.363200781273832 30.067952711913435 59.36691261037123 0 0 1 I I #
straight-curve $-1 -77.363200781273804 30.067952711913435 9.32573871668518 -0.70710677298230451 0 -0.70710678939079041 I I #
edge $-1 $383 -50.656640960802655 $208 -30.067952711913435 $299 $384 forward 7 unknown #
point $-1 -77.363200781273832 30.067952711913435 20.431630378187322 #
point $-1 -66.257309377485029 30.067952711913435 20.431630378187322 #
edge $-1 $385 1 $385 0 $211 $-1 forward 7 unknown #
vertex $-1 $212 $386 #
ellipse-curve $-1 -65.09644152362776 40.362296836358048 8.1648711474792997 -0.70710678939079041 0 0.70710677298230451 2.1213203189469136 0 2.1213203681723711 1 I I #
point $-1 -69.688934760432545 40.362296836358048 17.000004915608628 #
loop $-1 $-1 $223 $215 #
plane-surface $-1 77.363200781273832 0 0 -1 0 0 0 0 1 forward_v I I I I #
coedge $-1 $313 $218 $220 $317 reversed $132 $-1 #
coedge $-1 $218 $312 $387 $388 reversed $132 $-1 #
coedge $-1 $226 $221 $218 $315 forward $216 $-1 #
edge $-1 $318 11.759182847985969 $389 17.805551525822068 $314 $390 forward 7 unknown #
coedge $-1 $220 $219 $321 $391 reversed $82 $-1 #
edge $-1 $392 -154.72640156254766 $318 -143.91373071186547 $312 $393 forward 7 unknown #
vertex $-1 $222 $394 #
straight-curve $-1 71.316832103437733 12.658060777859649 20.431630378187322 0 -1 0 I I #
coedge $-1 $387 $223 $226 $325 reversed $310 $-1 #
coedge $-1 $223 $387 $316 $391 forward $310 $-1 #
vertex $-1 $224 $395 #
straight-curve $-1 77.363200781273832 34.426853765484971 113.13171269404238 0 0 1 I I #
straight-curve $-1 -9.1587030999540957 34.426853765484971 139.74152150685683 0.55919289150049634 0 -0.82903758062907751 I I #
edge $-1 $389 16.205389345953627 $227 34.426853765484971 $320 $396 forward 7 unknown #
point $-1 77.363200781273832 34.426853765484971 20.431630378187322 #
point $-1 71.316832103437733 34.426853765484971 20.431630378187307 #
edge $-1 $397 1 $397 0 $230 $-1 forward 7 unknown #
vertex $-1 $231 $398 #
ellipse-curve $-1 71.584358979230814 19.849682229859901 14.090860766605358 0.82903758062907751 0 0.55919289150049634 0.83878933725074445 0 -1.2435563709436162 1 I I #
point $-1 75.17880577960652 19.849682229859901 14.706018766149628 #
edge $-1 $399 1 $399 0 $234 $-1 forward 7 unknown #
vertex $-1 $235 $400 #
ellipse-curve $-1 71.584358979230814 25.316121555719299 14.090860766605358 0.82903758062907751 0 0.55919289150049634 0.83878933725074445 0 -1.2435563709436162 1 I I #
point $-1 75.17880577960652 25.316121555719299 14.706018766149628 #
edge $-1 $401 1 $401 0 $238 $-1 forward 7 unknown #
vertex $-1 $239 $402 #
ellipse-curve $-1 71.584358979230814 30.782560881578696 14.090860766605358 0.82903758062907751 0 0.55919289150049634 0.83878933725074445 0 -1.2435563709436162 1 I I #
point $-1 75.17880577960652 30.782560881578696 14.706018766149628 #
plane-surface $-1 77.363200781273832 0 0 -1 0 0 0 0 1 forward_v I I I I #
coedge $-1 $247 $245 $249 $345 reversed $161 $-1 #
edge $-1 $260 -20.431630378187322 $347 20.431630378187322 $259 $403 forward 7 unknown #
vertex $-1 $345 $404 #
straight-curve $-1 -77.363200781273832 -50.656640960802655 0 0 0 -1 I I #
edge $-1 $343 -50.656640960802655 $347 50.656640960802655 $341 $405 forward 7 unknown #
straight-curve $-1 0 -50.656640960802655 -20.431630378187322 -1 0 0 I I #
vertex $-1 $252 $406 #
straight-curve $-1 0 50.656640960802655 -20.431630378187322 1 0 0 I I #
point $-1 77.363200781273832 50.656640960802655 -20.431630378187322 #
point $-1 77.363200781273832 -50.656640960802655 -20.431630378187322 #
straight-curve $-1 -77.363200781273832 0 20.431630378187322 0 -1 0 I I #
point $-1 -77.363200781273832 50.656640960802655 20.431630378187322 #
point $-1 -77.363200781273832 -50.656640960802655 20.431630378187322 #
straight-curve $-1 77.363200781273832 -50.656640960802655 0 0 0 -1 I I #
straight-curve $-1 77.363200781273832 50.656640960802655 0 0 0 -1 I I #
loop $-1 $-1 $364 $269 #
plane-surface $-1 -77.363200781273832 0 0 1 0 0 0 0 -1 forward_v I I I I #
coedge $-1 $273 $272 $370 $407 forward $109 $-1 #
edge $-1 $277 37.088634171063525 $373 50.656640960802655 $276 $408 forward 7 unknown #
coedge $-1 $367 $364 $273 $361 reversed $356 $-1 #
edge $-1 $409 -50.656640960802655 $362 -37.088634171063525 $360 $410 forward 7 unknown #
vertex $-1 $365 $411 #
straight-curve $-1 0 -37.088634171063525 -20.431630378187322 1 0 0 I I #
coedge $-1 $360 $279 $275 $365 forward $356 $-1 #
edge $-1 $281 3.9375175612859987 $362 12.308581065029548 $364 $412 forward 7 unknown #
point $-1 77.363200781273832 -37.088634171063525 -20.431630378187322 #
coedge $-1 $279 $360 $283 $371 reversed $356 $-1 #
straight-curve $-1 -77.363200781273832 -21.936318782966545 -12.060566874443772 0 1 0 I I #
point $-1 -77.363200781273832 -37.088634171063525 -12.060566874443772 #
coedge $-1 $284 $283 $358 $407 reversed $270 $-1 #
edge $-1 $285 12.060566874443772 $409 20.431630378187322 $367 $413 forward 7 unknown #
point $-1 -77.363200781273832 -50.656640960802655 -12.060566874443772 #
vertex $-1 $287 $414 #
straight-curve $-1 77.363200781273832 -50.656640960802655 0 0 0 -1 I I #
coedge $-1 $291 $299 $292 $377 forward $196 $-1 #
edge $-1 $379 -30.475492542623638 $300 -9.8868042937344107 $291 $415 forward 7 unknown #
edge $-1 $383 -20.431630378187322 $379 -9.3257387166851515 $292 $416 forward 7 unknown #
edge $-1 $297 66.257309377485029 $383 77.363200781273832 $293 $417 forward 7 unknown #
vertex $-1 $294 $418 #
straight-curve $-1 -60.353835713931915 50.656640960802655 26.335104178731147 -0.70710677298230462 0 -0.70710678939079052 I I #
point $-1 -66.257309377485029 50.656640960802662 20.431630378187322 #
point $-1 -77.363200781273832 30.067952711913435 9.3257387166851515 #
vertex $-1 $378 $419 #
straight-curve $-1 -77.363200781273832 0 20.431630378187322 0 -1 0 I I #
vertex $-1 $306 $420 #
point $-1 -62.975121204680846 40.362296836358048 10.286191515651669 #
coedge $-1 $321 $320 $313 $388 forward $310 $-1 #
edge $-1 $389 92.700082315855056 $392 101.66419279804317 $387 $421 forward 7 unknown #
vertex $-1 $325 $422 #
straight-curve $-1 59.557649255451764 16.205389345953627 20.431630378187322 1 0 0 I I #
edge $-1 $392 3.5473285680939775 $322 21.768792987625321 $321 $423 forward 7 unknown #
vertex $-1 $391 $424 #
straight-curve $-1 -9.1587030999540957 16.205389345953627 139.74152150685683 -0.55919289150049634 0 0.82903758062907751 I I #
point $-1 71.316832103437733 16.205389345953627 20.431630378187307 #
point $-1 77.363200781273832 34.426853765484971 11.467519895999203 #
straight-curve $-1 77.363200781273832 0 20.431630378187322 0 1 0 I I #
vertex $-1 $328 $425 #
point $-1 72.423148316481559 19.849682229859901 12.847304395661743 #
vertex $-1 $332 $426 #
point $-1 72.423148316481559 25.316121555719299 12.847304395661743 #
vertex $-1 $336 $427 #
point $-1 72.423148316481559 30.782560881578696 12.847304395661743 #
straight-curve $-1 -77.363200781273832 50.656640960802655 0 0 0 -1 I I #
point $-1 -77.363200781273832 -50.656640960802655 -20.431630378187322 #
straight-curve $-1 -77.363200781273832 0 -20.431630378187322 0 1 0 I I #
point $-1 -77.363200781273832 50.656640960802655 -20.431630378187322 #
edge $-1 $373 -77.363200781273832 $409 77.363200781273832 $370 $428 forward 7 unknown #
straight-curve $-1 77.363200781273832 0 -20.431630378187322 0 -1 0 I I #
vertex $-1 $361 $429 #
straight-curve $-1 -77.363200781273832 0 -20.431630378187322 0 1 0 I I #
point $-1 -77.363200781273832 -37.088634171063525 -20.431630378187322 #
straight-curve $-1 -77.363200781273832 -37.088634171063525 -8.1230493131577735 0 0 -1 I I #
straight-curve $-1 -77.363200781273832 -50.656640960802655 0 0 0 -1 I I #
point $-1 77.363200781273832 -50.656640960802655 -20.431630378187322 #
straight-curve $-1 -77.363200781273832 20.181148418179024 9.3257387166851444 0 -1 0 I I #
straight-curve $-1 -77.363200781273832 50.656640960802655 0 0 0 -1 I I #
straight-curve $-1 0 50.656640960802655 20.431630378187322 -1 0 0 I I #
point $-1 -77.363200781273832 50.656640960802662 9.3257387166851515 #
point $-1 -77.363200781273832 50.656640960802655 20.431630378187322 #
point $-1 -62.975121155455383 40.362296836358048 6.0435508285323856 #
straight-curve $-1 77.363200781273832 16.205389345953627 113.13171269404238 0 0 -1 I I #
point $-1 77.363200781273832 16.205389345953627 20.431630378187322 #
straight-curve $-1 77.363200781273832 12.658060777859649 11.467519895999196 0 1 0 I I #
point $-1 77.363200781273832 16.205389345953627 11.467519895999203 #
point $-1 70.340802608287191 19.849682229859901 13.252071429354617 #
point $-1 70.340802608287191 25.316121555719299 13.252071429354617 #
point $-1 70.340802608287191 30.782560881578696 13.252071429354617 #
straight-curve $-1 0 -50.656640960802655 -20.431630378187322 -1 0 0 I I #
point $-1 -77.363200781273832 -50.656640960802655 -20.431630378187322 #
End-of-ACIS-data 