500 0 14 0           
7 Unknown 11 ACIS 5.0 NT 24 Fri Mar 26 18:31:23 1999 
-1 9.9999999999999995e-007 1e-010 
body $-1 $14 $-1 $15 #
body $-1 $16 $-1 $17 #
body $-1 $18 $-1 $19 #
body $-1 $20 $-1 $21 #
body $-1 $22 $-1 $23 #
body $-1 $24 $-1 $25 #
body $-1 $26 $-1 $27 #
body $-1 $28 $-1 $29 #
body $-1 $30 $-1 $31 #
body $-1 $32 $-1 $33 #
body $-1 $34 $-1 $35 #
body $-1 $36 $-1 $37 #
body $-1 $38 $-1 $39 #
body $-1 $40 $-1 $41 #
lump $-1 $-1 $42 $0 #
transform $-1 1 0 0 0 1 0 0 0 1 75.644398327585677 40.758449361639947 18.619373179100311 1 rotate no_reflect no_shear #
lump $-1 $-1 $43 $1 #
transform $-1 1 0 0 0 1 0 0 0 1 75.644398327585677 40.758449361639947 18.619373179100311 1 rotate no_reflect no_shear #
lump $-1 $-1 $44 $2 #
transform $-1 1 0 0 0 1 0 0 0 1 75.644398327585677 40.758449361639947 18.619373179100311 1 rotate no_reflect no_shear #
lump $-1 $-1 $45 $3 #
transform $-1 1 0 0 0 1 0 0 0 1 75.644398327585677 40.758449361639947 18.619373179100311 1 rotate no_reflect no_shear #
lump $-1 $-1 $46 $4 #
transform $-1 1 0 0 0 1 0 0 0 1 75.644398327585677 40.758449361639947 18.619373179100311 1 rotate no_reflect no_shear #
lump $-1 $-1 $47 $5 #
transform $-1 1 0 0 0 1 0 0 0 1 75.644398327585677 40.758449361639947 18.619373179100311 1 rotate no_reflect no_shear #
lump $-1 $-1 $48 $6 #
transform $-1 1 0 0 0 1 0 0 0 1 75.644398327585677 40.758449361639947 18.619373179100311 1 rotate no_reflect no_shear #
lump $-1 $-1 $49 $7 #
transform $-1 1 0 0 0 1 0 0 0 1 75.644398327585677 40.758449361639947 18.619373179100311 1 rotate no_reflect no_shear #
lump $-1 $-1 $50 $8 #
transform $-1 1 0 0 0 1 0 0 0 1 75.644398327585677 40.758449361639947 18.619373179100311 1 rotate no_reflect no_shear #
lump $-1 $-1 $51 $9 #
transform $-1 1 0 0 0 1 0 0 0 1 75.644398327585677 40.758449361639947 18.619373179100311 1 rotate no_reflect no_shear #
lump $-1 $-1 $52 $10 #
transform $-1 1 0 0 0 1 0 0 0 1 75.644398327585677 40.758449361639947 18.619373179100311 1 rotate no_reflect no_shear #
lump $-1 $-1 $53 $11 #
transform $-1 1 0 0 0 1 0 0 0 1 75.644398327585677 40.758449361639947 18.619373179100311 1 rotate no_reflect no_shear #
lump $-1 $-1 $54 $12 #
transform $-1 1 0 0 0 1 0 0 0 1 75.644398327585677 40.758449361639947 18.619373179100311 1 rotate no_reflect no_shear #
lump $-1 $-1 $55 $13 #
transform $-1 1 0 0 0 1 0 0 0 1 75.644398327585677 40.758449361639947 18.619373179100311 1 rotate no_reflect no_shear #
shell $-1 $-1 $-1 $56 $-1 $14 #
shell $-1 $-1 $-1 $57 $-1 $16 #
shell $-1 $-1 $-1 $58 $-1 $18 #
shell $-1 $-1 $-1 $59 $-1 $20 #
shell $-1 $-1 $-1 $60 $-1 $22 #
shell $-1 $-1 $-1 $61 $-1 $24 #
shell $-1 $-1 $-1 $62 $-1 $26 #
shell $-1 $-1 $-1 $63 $-1 $28 #
shell $-1 $-1 $-1 $64 $-1 $30 #
shell $-1 $-1 $-1 $65 $-1 $32 #
shell $-1 $-1 $-1 $66 $-1 $34 #
shell $-1 $-1 $-1 $67 $-1 $36 #
shell $-1 $-1 $-1 $68 $-1 $38 #
shell $-1 $-1 $-1 $69 $-1 $40 #
face $-1 $70 $71 $42 $-1 $72 forward single #
face $-1 $73 $74 $43 $-1 $75 forward single #
face $-1 $76 $77 $44 $-1 $78 reversed single #
face $-1 $79 $80 $45 $-1 $81 forward single #
face $-1 $82 $83 $46 $-1 $84 forward single #
face $-1 $85 $86 $47 $-1 $87 forward single #
face $-1 $88 $89 $48 $-1 $90 reversed single #
face $-1 $91 $92 $49 $-1 $93 forward single #
face $-1 $94 $95 $50 $-1 $96 forward single #
face $-1 $97 $98 $51 $-1 $99 forward single #
face $-1 $100 $101 $52 $-1 $102 reversed single #
face $-1 $103 $104 $53 $-1 $105 forward single #
face $-1 $106 $107 $54 $-1 $108 forward single #
face $-1 $109 $110 $55 $-1 $111 forward single #
face $-1 $112 $113 $42 $-1 $114 reversed single #
loop $-1 $-1 $115 $56 #
plane-surface $-1 0 0 18.619373179100311 0 0 1 1 0 0 forward_v I I I I #
face $-1 $116 $117 $43 $-1 $118 reversed single #
loop $-1 $-1 $119 $57 #
plane-surface $-1 -66.575666326580873 0 0.82336966371114517 0 0 1 1 0 0 forward_v I I I I #
face $-1 $120 $121 $44 $-1 $122 reversed single #
loop $-1 $-1 $123 $58 #
plane-surface $-1 37.640516902185382 112.52496248417751 167.79640514630233 1 0 0 0 -0.79863551827123203 -0.60181501223851219 forward_v I I I I #
face $-1 $124 $125 $45 $-1 $126 forward single #
loop $-1 $127 $128 $59 #
cone-surface $-1 44.339166330739445 37.046608467212295 14.315559895317085 0 -0.79863551827123203 -0.60181501223851219 1.5 0 0 1 I I 0 1 1.5 forward I I I I #
face $-1 $129 $130 $46 $-1 $131 forward single #
loop $-1 $132 $133 $60 #
cone-surface $-1 54.38714047357054 37.046608467212295 14.315559895317085 0 -0.79863551827123203 -0.60181501223851219 1.5 0 0 1 I I 0 1 1.5 forward I I I I #
face $-1 $134 $135 $47 $-1 $136 forward single #
loop $-1 $137 $138 $61 #
cone-surface $-1 64.435114616401634 37.046608467212295 14.315559895317085 0 -0.79863551827123203 -0.60181501223851219 1.5 0 0 1 I I 0 1 1.5 forward I I I I #
face $-1 $139 $140 $48 $-1 $141 reversed single #
loop $-1 $-1 $142 $62 #
plane-surface $-1 -9.7073272030700934 -159.97564927493619 100.11746374048489 -1 0 0 0 -0.78801076186113728 0.61566146476048833 forward_v I I I I #
face $-1 $143 $144 $49 $-1 $145 forward single #
loop $-1 $146 $147 $63 #
cone-surface $-1 -22.20072327886259 -35.56366774015568 12.292440535830275 0 0.78801076186113728 -0.61566146476048833 1 0 0 1 I I 0 1 1 forward I I I I #
face $-1 $148 $149 $50 $-1 $150 forward single #
loop $-1 $151 $152 $64 #
cone-surface $-1 -17.515699750440405 -35.56366774015568 12.292440535830275 0 0.78801076186113728 -0.61566146476048833 1 0 0 1 I I 0 1 1 forward I I I I #
face $-1 $153 $154 $51 $-1 $155 forward single #
loop $-1 $156 $157 $65 #
cone-surface $-1 -12.830676222018219 -35.56366774015568 12.292440535830275 0 0.78801076186113728 -0.61566146476048833 1 0 0 1 I I 0 1 1 forward I I I I #
face $-1 $158 $159 $52 $-1 $160 reversed single #
loop $-1 $-1 $161 $66 #
plane-surface $-1 43.46153629982031 -159.97564927493619 100.11746374048489 -1 0 0 0 -0.78801076186113728 0.61566146476048833 forward_v I I I I #
face $-1 $162 $163 $53 $-1 $164 forward single #
loop $-1 $165 $166 $67 #
cone-surface $-1 30.968140224027806 -35.56366774015568 12.292440535830275 0 0.78801076186113728 -0.61566146476048833 1 0 0 1 I I 0 1 1 forward I I I I #
face $-1 $167 $168 $54 $-1 $169 forward single #
loop $-1 $170 $171 $68 #
cone-surface $-1 35.653163752449998 -35.56366774015568 12.292440535830275 0 0.78801076186113728 -0.61566146476048833 1 0 0 1 I I 0 1 1 forward I I I I #
face $-1 $172 $173 $55 $-1 $174 forward single #
loop $-1 $175 $176 $69 #
cone-surface $-1 40.338187280872191 -35.56366774015568 12.292440535830275 0 0.78801076186113728 -0.61566146476048833 1 0 0 1 I I 0 1 1 forward I I I I #
face $-1 $177 $178 $42 $-1 $179 reversed single #
loop $-1 $-1 $180 $70 #
plane-surface $-1 0 0 -18.619373179100311 0 0 1 1 0 0 forward_v I I I I #
coedge $-1 $181 $182 $183 $184 forward $71 $-1 #
face $-1 $185 $186 $43 $-1 $187 reversed single #
loop $-1 $-1 $188 $73 #
plane-surface $-1 -66.575666326580873 0 -6.3946988120370039 0 0 1 1 0 0 forward_v I I I I #
coedge $-1 $189 $190 $191 $192 forward $74 $-1 #
face $-1 $193 $194 $44 $-1 $195 reversed single #
loop $-1 $-1 $196 $76 #
plane-surface $-1 54.38714047357054 -8.2996440411562986 76.748536135720599 0 0.79863551827123203 0.60181501223851219 1 0 0 forward_v I I I I #
coedge $-1 $197 $198 $199 $200 reversed $77 $-1 #
face $-1 $-1 $201 $45 $-1 $202 forward single #
loop $-1 $203 $204 $79 #
cone-surface $-1 44.339166330739445 35.363105170663005 13.046949203909922 0 -0.79863551827123203 -0.60181501223851219 0.75 0 0 1 I I -0.70710678118654757 0.70710678118654757 0.75 forward I I I I #
loop $-1 $-1 $205 $59 #
coedge $-1 $128 $128 $206 $207 reversed $80 $-1 #
face $-1 $-1 $208 $46 $-1 $209 forward single #
loop $-1 $210 $211 $82 #
cone-surface $-1 54.38714047357054 35.363105170663005 13.046949203909922 0 -0.79863551827123203 -0.60181501223851219 0.75 0 0 1 I I -0.70710678118654757 0.70710678118654757 0.75 forward I I I I #
loop $-1 $-1 $212 $60 #
coedge $-1 $133 $133 $213 $214 reversed $83 $-1 #
face $-1 $-1 $215 $47 $-1 $216 forward single #
loop $-1 $217 $218 $85 #
cone-surface $-1 64.435114616401634 35.363105170663005 13.046949203909922 0 -0.79863551827123203 -0.60181501223851219 0.75 0 0 1 I I -0.70710678118654757 0.70710678118654757 0.75 forward I I I I #
loop $-1 $-1 $219 $61 #
coedge $-1 $138 $138 $220 $221 reversed $86 $-1 #
face $-1 $222 $223 $48 $-1 $224 reversed single #
loop $-1 $-1 $225 $88 #
plane-surface $-1 -17.515699750440405 -40.758449361639933 6.9747815899104353 0 -0.78801076186113728 0.61566146476048833 1 0 0 forward_v I I I I #
coedge $-1 $226 $227 $228 $229 reversed $89 $-1 #
face $-1 $-1 $230 $49 $-1 $231 forward single #
loop $-1 $232 $233 $91 #
cone-surface $-1 -22.20072327886259 -34.523756629617083 11.479972954774926 0 0.78801076186113728 -0.61566146476048833 0.5 0 0 1 I I -0.70710678118654746 0.70710678118654746 0.5 forward I I I I #
loop $-1 $-1 $234 $63 #
coedge $-1 $147 $147 $235 $236 reversed $92 $-1 #
face $-1 $-1 $237 $50 $-1 $238 forward single #
loop $-1 $239 $240 $94 #
cone-surface $-1 -17.515699750440405 -34.523756629617083 11.479972954774926 0 0.78801076186113728 -0.61566146476048833 0.5 0 0 1 I I -0.70710678118654746 0.70710678118654746 0.5 forward I I I I #
loop $-1 $-1 $241 $64 #
coedge $-1 $152 $152 $242 $243 reversed $95 $-1 #
face $-1 $-1 $244 $51 $-1 $245 forward single #
loop $-1 $246 $247 $97 #
cone-surface $-1 -12.830676222018219 -34.523756629617083 11.479972954774926 0 0.78801076186113728 -0.61566146476048833 0.5 0 0 1 I I -0.70710678118654746 0.70710678118654746 0.5 forward I I I I #
loop $-1 $-1 $248 $65 #
coedge $-1 $157 $157 $249 $250 reversed $98 $-1 #
face $-1 $251 $252 $52 $-1 $253 reversed single #
loop $-1 $-1 $254 $100 #
plane-surface $-1 35.653163752449998 -40.758449361639933 6.9747815899104353 0 -0.78801076186113728 0.61566146476048833 1 0 0 forward_v I I I I #
coedge $-1 $255 $256 $257 $258 reversed $101 $-1 #
face $-1 $-1 $259 $53 $-1 $260 forward single #
loop $-1 $261 $262 $103 #
cone-surface $-1 30.968140224027806 -34.523756629617083 11.479972954774926 0 0.78801076186113728 -0.61566146476048833 0.5 0 0 1 I I -0.70710678118654746 0.70710678118654746 0.5 forward I I I I #
loop $-1 $-1 $263 $67 #
coedge $-1 $166 $166 $264 $265 reversed $104 $-1 #
face $-1 $-1 $266 $54 $-1 $267 forward single #
loop $-1 $268 $269 $106 #
cone-surface $-1 35.653163752449998 -34.523756629617083 11.479972954774926 0 0.78801076186113728 -0.61566146476048833 0.5 0 0 1 I I -0.70710678118654746 0.70710678118654746 0.5 forward I I I I #
loop $-1 $-1 $270 $68 #
coedge $-1 $171 $171 $271 $272 reversed $107 $-1 #
face $-1 $-1 $273 $55 $-1 $274 forward single #
loop $-1 $275 $276 $109 #
cone-surface $-1 40.338187280872191 -34.523756629617083 11.479972954774926 0 0.78801076186113728 -0.61566146476048833 0.5 0 0 1 I I -0.70710678118654746 0.70710678118654746 0.5 forward I I I I #
loop $-1 $-1 $277 $69 #
coedge $-1 $176 $176 $278 $279 reversed $110 $-1 #
face $-1 $280 $281 $42 $-1 $282 reversed single #
loop $-1 $-1 $283 $112 #
plane-surface $-1 0 -40.758449361639947 0 0 1 0 0 0 1 forward_v I I I I #
coedge $-1 $284 $285 $286 $287 forward $113 $-1 #
coedge $-1 $288 $115 $289 $290 forward $71 $-1 #
coedge $-1 $115 $288 $291 $292 forward $71 $-1 #
coedge $-1 $293 $294 $115 $184 reversed $295 $-1 #
edge $-1 $296 -40.758449361639947 $297 40.758449361639947 $183 $298 forward 7 unknown #
face $-1 $299 $300 $43 $-1 $301 reversed single #
loop $-1 $-1 $302 $116 #
plane-surface $-1 -57.506934325576069 0 -2.7856645741629293 -1 0 0 0 0 1 forward_v I I I I #
coedge $-1 $303 $304 $305 $306 forward $117 $-1 #
coedge $-1 $307 $119 $308 $309 reversed $74 $-1 #
coedge $-1 $119 $307 $310 $311 reversed $74 $-1 #
coedge $-1 $302 $312 $119 $192 reversed $186 $-1 #
edge $-1 $313 -40.758449361639947 $314 40.758449361639947 $191 $315 forward 7 unknown #
face $-1 $316 $317 $44 $-1 $318 forward single #
loop $-1 $-1 $319 $120 #
plane-surface $-1 71.133764044955697 112.52496248417751 167.79640514630233 -1 0 0 0 0.79863551827123203 0.60181501223851219 forward_v I I I I #
coedge $-1 $320 $321 $322 $323 reversed $121 $-1 #
coedge $-1 $198 $123 $324 $325 reversed $77 $-1 #
coedge $-1 $123 $197 $320 $326 reversed $77 $-1 #
coedge $-1 $322 $327 $123 $200 forward $317 $-1 #
edge $-1 $328 15.504031880448807 $329 20.758660353612399 $199 $330 forward 7 unknown #
loop $-1 $-1 $206 $124 #
plane-surface $-1 54.38714047357054 -8.2996440411562986 76.748536135720599 0 0.79863551827123203 0.60181501223851219 1 0 0 forward_v I I I I #
loop $-1 $-1 $331 $79 #
coedge $-1 $204 $204 $205 $332 reversed $125 $-1 #
coedge $-1 $205 $205 $204 $332 forward $127 $-1 #
coedge $-1 $206 $206 $128 $207 forward $201 $-1 #
edge $-1 $333 -9.4577444337937774e-016 $333 6.2831853071795996 $206 $334 forward 7 unknown #
loop $-1 $-1 $213 $129 #
plane-surface $-1 54.38714047357054 -8.2996440411562986 76.748536135720599 0 0.79863551827123203 0.60181501223851219 1 0 0 forward_v I I I I #
loop $-1 $-1 $335 $82 #
coedge $-1 $211 $211 $212 $336 reversed $130 $-1 #
coedge $-1 $212 $212 $211 $336 forward $132 $-1 #
coedge $-1 $213 $213 $133 $214 forward $208 $-1 #
edge $-1 $337 -9.4577444337937774e-016 $337 6.2831853071795996 $213 $338 forward 7 unknown #
loop $-1 $-1 $220 $134 #
plane-surface $-1 54.38714047357054 -8.2996440411562986 76.748536135720599 0 0.79863551827123203 0.60181501223851219 1 0 0 forward_v I I I I #
loop $-1 $-1 $339 $85 #
coedge $-1 $218 $218 $219 $340 reversed $135 $-1 #
coedge $-1 $219 $219 $218 $340 forward $137 $-1 #
coedge $-1 $220 $220 $138 $221 forward $215 $-1 #
edge $-1 $341 -9.4577444337937774e-016 $341 6.2831853071795996 $220 $342 forward 7 unknown #
face $-1 $343 $344 $48 $-1 $345 reversed single #
loop $-1 $-1 $346 $139 #
plane-surface $-1 -25.324072297810716 -159.97564927493619 100.11746374048489 1 0 0 0 0.78801076186113728 -0.61566146476048833 forward_v I I I I #
coedge $-1 $347 $348 $349 $350 reversed $140 $-1 #
coedge $-1 $227 $142 $351 $352 reversed $89 $-1 #
coedge $-1 $142 $226 $347 $353 reversed $89 $-1 #
coedge $-1 $349 $354 $142 $229 forward $355 $-1 #
edge $-1 $356 39.229375275828147 $357 48.327127059580626 $228 $358 forward 7 unknown #
loop $-1 $-1 $235 $143 #
plane-surface $-1 -17.515699750440405 -40.758449361639933 6.9747815899104353 0 -0.78801076186113728 0.61566146476048833 1 0 0 forward_v I I I I #
loop $-1 $-1 $359 $91 #
coedge $-1 $233 $233 $234 $360 reversed $144 $-1 #
coedge $-1 $234 $234 $233 $360 forward $146 $-1 #
coedge $-1 $235 $235 $147 $236 forward $230 $-1 #
edge $-1 $361 -1.7501340976945918e-015 $361 6.2831853071795987 $235 $362 forward 7 unknown #
loop $-1 $-1 $242 $148 #
plane-surface $-1 -17.515699750440405 -40.758449361639933 6.9747815899104353 0 -0.78801076186113728 0.61566146476048833 1 0 0 forward_v I I I I #
loop $-1 $-1 $363 $94 #
coedge $-1 $240 $240 $241 $364 reversed $149 $-1 #
coedge $-1 $241 $241 $240 $364 forward $151 $-1 #
coedge $-1 $242 $242 $152 $243 forward $237 $-1 #
edge $-1 $365 -1.7501340976945918e-015 $365 6.2831853071795987 $242 $366 forward 7 unknown #
loop $-1 $-1 $249 $153 #
plane-surface $-1 -17.515699750440405 -40.758449361639933 6.9747815899104353 0 -0.78801076186113728 0.61566146476048833 1 0 0 forward_v I I I I #
loop $-1 $-1 $367 $97 #
coedge $-1 $247 $247 $248 $368 reversed $154 $-1 #
coedge $-1 $248 $248 $247 $368 forward $156 $-1 #
coedge $-1 $249 $249 $157 $250 forward $244 $-1 #
edge $-1 $369 -1.7501340976945918e-015 $369 6.2831853071795987 $249 $370 forward 7 unknown #
face $-1 $371 $372 $52 $-1 $373 reversed single #
loop $-1 $-1 $374 $158 #
plane-surface $-1 27.844791205079687 -159.97564927493619 100.11746374048489 1 0 0 0 0.78801076186113728 -0.61566146476048833 forward_v I I I I #
coedge $-1 $375 $376 $377 $378 reversed $159 $-1 #
coedge $-1 $256 $161 $379 $380 reversed $101 $-1 #
coedge $-1 $161 $255 $375 $381 reversed $101 $-1 #
coedge $-1 $377 $382 $161 $258 forward $383 $-1 #
edge $-1 $384 39.229375275828147 $385 48.327127059580626 $257 $386 forward 7 unknown #
loop $-1 $-1 $264 $162 #
plane-surface $-1 35.653163752449998 -40.758449361639933 6.9747815899104353 0 -0.78801076186113728 0.61566146476048833 1 0 0 forward_v I I I I #
loop $-1 $-1 $387 $103 #
coedge $-1 $262 $262 $263 $388 reversed $163 $-1 #
coedge $-1 $263 $263 $262 $388 forward $165 $-1 #
coedge $-1 $264 $264 $166 $265 forward $259 $-1 #
edge $-1 $389 -1.7501340976945918e-015 $389 6.2831853071795987 $264 $390 forward 7 unknown #
loop $-1 $-1 $271 $167 #
plane-surface $-1 35.653163752449998 -40.758449361639933 6.9747815899104353 0 -0.78801076186113728 0.61566146476048833 1 0 0 forward_v I I I I #
loop $-1 $-1 $391 $106 #
coedge $-1 $269 $269 $270 $392 reversed $168 $-1 #
coedge $-1 $270 $270 $269 $392 forward $170 $-1 #
coedge $-1 $271 $271 $171 $272 forward $266 $-1 #
edge $-1 $393 -1.7501340976945918e-015 $393 6.2831853071795987 $271 $394 forward 7 unknown #
loop $-1 $-1 $278 $172 #
plane-surface $-1 35.653163752449998 -40.758449361639933 6.9747815899104353 0 -0.78801076186113728 0.61566146476048833 1 0 0 forward_v I I I I #
loop $-1 $-1 $395 $109 #
coedge $-1 $276 $276 $277 $396 reversed $173 $-1 #
coedge $-1 $277 $277 $276 $396 forward $175 $-1 #
coedge $-1 $278 $278 $176 $279 forward $273 $-1 #
edge $-1 $397 -1.7501340976945918e-015 $397 6.2831853071795987 $278 $398 forward 7 unknown #
face $-1 $399 $400 $42 $-1 $401 reversed single #
loop $-1 $-1 $402 $177 #
plane-surface $-1 -75.644398327585677 0 0 1 0 0 0 0 -1 forward_v I I I I #
coedge $-1 $403 $291 $404 $405 forward $178 $-1 #
coedge $-1 $406 $180 $403 $407 forward $113 $-1 #
coedge $-1 $180 $406 $408 $409 forward $113 $-1 #
coedge $-1 $294 $293 $180 $287 reversed $295 $-1 #
edge $-1 $410 -40.758449361639947 $411 40.758449361639947 $286 $412 forward 7 unknown #
coedge $-1 $182 $181 $413 $414 forward $71 $-1 #
coedge $-1 $415 $416 $181 $290 reversed $400 $-1 #
edge $-1 $297 -75.644398327585677 $417 75.644398327585677 $289 $418 forward 7 unknown #
coedge $-1 $283 $419 $182 $292 reversed $178 $-1 #
edge $-1 $420 -75.644398327585677 $296 75.644398327585677 $291 $421 forward 7 unknown #
coedge $-1 $286 $183 $419 $422 forward $295 $-1 #
coedge $-1 $183 $286 $415 $423 reversed $295 $-1 #
loop $-1 $-1 $293 $399 #
vertex $-1 $184 $424 #
vertex $-1 $184 $425 #
straight-curve $-1 75.644398327585677 0 18.619373179100311 0 1 0 I I #
face $-1 $426 $427 $43 $-1 $428 reversed single #
loop $-1 $-1 $429 $185 #
plane-surface $-1 0 -40.758449361639947 0 0 1 0 0 0 1 forward_v I I I I #
coedge $-1 $305 $191 $430 $431 reversed $186 $-1 #
coedge $-1 $432 $188 $429 $433 reversed $117 $-1 #
coedge $-1 $188 $432 $434 $435 reversed $117 $-1 #
coedge $-1 $312 $302 $188 $306 reversed $186 $-1 #
edge $-1 $436 -40.758449361639947 $437 40.758449361639947 $305 $438 forward 7 unknown #
coedge $-1 $190 $189 $439 $440 reversed $74 $-1 #
coedge $-1 $441 $442 $189 $309 forward $443 $-1 #
edge $-1 $444 -42.35656516429524 $314 -24.219101162285632 $308 $445 forward 7 unknown #
coedge $-1 $446 $430 $190 $311 forward $300 $-1 #
edge $-1 $313 24.219101162285632 $447 42.35656516429524 $310 $448 forward 7 unknown #
coedge $-1 $191 $305 $441 $449 reversed $186 $-1 #
vertex $-1 $311 $450 #
vertex $-1 $309 $451 #
straight-curve $-1 -57.506934325576069 0 0.82336966371114517 0 1 0 I I #
face $-1 $-1 $452 $44 $-1 $453 reversed single #
loop $-1 $-1 $199 $193 #
plane-surface $-1 0 0 18.619373179100311 0 0 1 1 0 0 forward_v I I I I #
coedge $-1 $454 $455 $456 $457 reversed $194 $-1 #
coedge $-1 $458 $196 $198 $326 forward $121 $-1 #
coedge $-1 $196 $458 $454 $459 forward $121 $-1 #
coedge $-1 $456 $199 $196 $323 forward $317 $-1 #
edge $-1 $329 10.446946665400112 $460 43.940193808170427 $322 $461 forward 7 unknown #
coedge $-1 $462 $463 $197 $325 forward $452 $-1 #
edge $-1 $464 -72.251957097160741 $328 -65.278829394050859 $324 $465 forward 7 unknown #
edge $-1 $329 72.785596967249461 $464 81.516898723279894 $198 $466 forward 7 unknown #
coedge $-1 $199 $456 $462 $467 forward $317 $-1 #
vertex $-1 $325 $468 #
vertex $-1 $200 $469 #
straight-curve $-1 37.640516902185382 56.262481242088754 18.619373179100307 0 -1 0 I I #
coedge $-1 $331 $331 $-1 $470 reversed $203 $-1 #
edge $-1 $471 0 $471 6.2831853071796004 $204 $472 forward 7 unknown #
vertex $-1 $207 $473 #
ellipse-curve $-1 44.339166330739445 38.131135125058158 15.132809327545361 0 0.79863551827123203 0.60181501223851219 1.5 0 0 1 I I #
coedge $-1 $335 $335 $-1 $474 reversed $210 $-1 #
edge $-1 $475 0 $475 6.2831853071796004 $211 $476 forward 7 unknown #
vertex $-1 $214 $477 #
ellipse-curve $-1 54.38714047357054 38.131135125058158 15.132809327545361 0 0.79863551827123203 0.60181501223851219 1.5 0 0 1 I I #
coedge $-1 $339 $339 $-1 $478 reversed $217 $-1 #
edge $-1 $479 0 $479 6.2831853071796004 $218 $480 forward 7 unknown #
vertex $-1 $221 $481 #
ellipse-curve $-1 64.435114616401634 38.131135125058158 15.132809327545361 0 0.79863551827123203 0.60181501223851219 1.5 0 0 1 I I #
face $-1 $-1 $355 $48 $-1 $482 forward single #
loop $-1 $-1 $483 $222 #
plane-surface $-1 0 -40.758449361639947 0 0 1 0 0 0 1 forward_v I I I I #
coedge $-1 $484 $485 $486 $487 reversed $223 $-1 #
coedge $-1 $488 $225 $227 $353 forward $140 $-1 #
coedge $-1 $225 $488 $484 $489 forward $140 $-1 #
coedge $-1 $486 $228 $225 $350 forward $355 $-1 #
edge $-1 $357 0.94947732784989114 $490 16.566222422590513 $349 $491 forward 7 unknown #
coedge $-1 $492 $493 $226 $352 forward $344 $-1 #
edge $-1 $494 -43.083950280332033 $356 -31.439358691142136 $351 $495 forward 7 unknown #
edge $-1 $357 -14.777198678971693 $494 2.274695869299009e-014 $227 $496 forward 7 unknown #
coedge $-1 $228 $486 $492 $497 forward $355 $-1 #
loop $-1 $-1 $486 $343 #
vertex $-1 $352 $498 #
vertex $-1 $229 $499 #
straight-curve $-1 -9.7073272030700934 -79.987824637468094 18.619373179100315 0 1 0 I I #
coedge $-1 $359 $359 $-1 $500 reversed $232 $-1 #
edge $-1 $501 0 $501 6.2831853071796004 $233 $502 forward 7 unknown #
vertex $-1 $236 $503 #
ellipse-curve $-1 -22.20072327886259 -36.209573469763704 12.797077384505371 0 -0.78801076186113728 0.61566146476048833 1 0 0 1 I I #
coedge $-1 $363 $363 $-1 $504 reversed $239 $-1 #
edge $-1 $505 0 $505 6.2831853071796004 $240 $506 forward 7 unknown #
vertex $-1 $243 $507 #
ellipse-curve $-1 -17.515699750440405 -36.209573469763704 12.797077384505371 0 -0.78801076186113728 0.61566146476048833 1 0 0 1 I I #
coedge $-1 $367 $367 $-1 $508 reversed $246 $-1 #
edge $-1 $509 0 $509 6.2831853071796004 $247 $510 forward 7 unknown #
vertex $-1 $250 $511 #
ellipse-curve $-1 -12.830676222018219 -36.209573469763704 12.797077384505371 0 -0.78801076186113728 0.61566146476048833 1 0 0 1 I I #
face $-1 $-1 $383 $52 $-1 $512 forward single #
loop $-1 $-1 $513 $251 #
plane-surface $-1 0 -40.758449361639947 0 0 1 0 0 0 1 forward_v I I I I #
coedge $-1 $514 $515 $516 $517 reversed $252 $-1 #
coedge $-1 $518 $254 $256 $381 forward $159 $-1 #
coedge $-1 $254 $518 $514 $519 forward $159 $-1 #
coedge $-1 $516 $257 $254 $378 forward $383 $-1 #
edge $-1 $385 -25.63495442359531 $520 -10.018209328854688 $377 $521 forward 7 unknown #
coedge $-1 $522 $523 $255 $380 forward $372 $-1 #
edge $-1 $524 -43.083950280332033 $384 -31.439358691142136 $379 $525 forward 7 unknown #
edge $-1 $385 -14.777198678971693 $524 2.274695869299009e-014 $256 $526 forward 7 unknown #
coedge $-1 $257 $516 $522 $527 forward $383 $-1 #
loop $-1 $-1 $516 $371 #
vertex $-1 $380 $528 #
vertex $-1 $258 $529 #
straight-curve $-1 43.46153629982031 -79.987824637468094 18.619373179100315 0 1 0 I I #
coedge $-1 $387 $387 $-1 $530 reversed $261 $-1 #
edge $-1 $531 0 $531 6.2831853071796004 $262 $532 forward 7 unknown #
vertex $-1 $265 $533 #
ellipse-curve $-1 30.968140224027806 -36.209573469763704 12.797077384505371 0 -0.78801076186113728 0.61566146476048833 1 0 0 1 I I #
coedge $-1 $391 $391 $-1 $534 reversed $268 $-1 #
edge $-1 $535 0 $535 6.2831853071796004 $269 $536 forward 7 unknown #
vertex $-1 $272 $537 #
ellipse-curve $-1 35.653163752449998 -36.209573469763704 12.797077384505371 0 -0.78801076186113728 0.61566146476048833 1 0 0 1 I I #
coedge $-1 $395 $395 $-1 $538 reversed $275 $-1 #
edge $-1 $539 0 $539 6.2831853071796004 $276 $540 forward 7 unknown #
vertex $-1 $279 $541 #
ellipse-curve $-1 40.338187280872191 -36.209573469763704 12.797077384505371 0 -0.78801076186113728 0.61566146476048833 1 0 0 1 I I #
face $-1 $-1 $295 $42 $-1 $542 reversed single #
loop $-1 $-1 $415 $280 #
plane-surface $-1 0 40.758449361639947 0 0 -1 0 0 0 -1 forward_v I I I I #
coedge $-1 $543 $413 $416 $544 forward $281 $-1 #
coedge $-1 $419 $283 $284 $407 reversed $178 $-1 #
coedge $-1 $413 $543 $283 $405 reversed $281 $-1 #
edge $-1 $420 -18.619373179100311 $545 18.619373179100311 $404 $546 forward 7 unknown #
coedge $-1 $285 $284 $543 $547 forward $113 $-1 #
edge $-1 $411 -75.644398327585677 $545 75.644398327585677 $403 $548 forward 7 unknown #
coedge $-1 $416 $415 $285 $409 reversed $400 $-1 #
edge $-1 $549 -75.644398327585677 $410 75.644398327585677 $408 $550 forward 7 unknown #
vertex $-1 $287 $551 #
vertex $-1 $422 $552 #
straight-curve $-1 75.644398327585677 0 -18.619373179100311 0 -1 0 I I #
coedge $-1 $402 $404 $288 $414 reversed $281 $-1 #
edge $-1 $417 -40.758449361639947 $420 40.758449361639947 $413 $553 forward 7 unknown #
coedge $-1 $408 $289 $294 $423 forward $400 $-1 #
coedge $-1 $289 $408 $402 $544 reversed $400 $-1 #
vertex $-1 $290 $554 #
straight-curve $-1 0 40.758449361639947 18.619373179100311 -1 0 0 I I #
coedge $-1 $291 $403 $293 $422 reversed $178 $-1 #
vertex $-1 $414 $555 #
straight-curve $-1 0 -40.758449361639947 18.619373179100311 1 0 0 I I #
edge $-1 $296 -18.619373179100311 $411 18.619373179100311 $293 $556 forward 7 unknown #
edge $-1 $297 -18.619373179100311 $410 18.619373179100311 $294 $557 forward 7 unknown #
point $-1 75.644398327585677 -40.758449361639947 18.619373179100311 #
point $-1 75.644398327585677 40.758449361639947 18.619373179100311 #
face $-1 $-1 $443 $43 $-1 $558 reversed single #
loop $-1 $-1 $559 $299 #
plane-surface $-1 -75.644398327585677 0 0 1 0 0 0 0 -1 forward_v I I I I #
coedge $-1 $430 $446 $303 $433 forward $300 $-1 #
coedge $-1 $310 $429 $302 $431 forward $300 $-1 #
edge $-1 $437 -5.0018665249555392 $313 2.2162019507926098 $430 $560 forward 7 unknown #
coedge $-1 $304 $303 $559 $561 reversed $117 $-1 #
edge $-1 $562 -42.35656516429524 $437 -24.219101162285632 $429 $563 forward 7 unknown #
coedge $-1 $442 $441 $304 $435 forward $443 $-1 #
edge $-1 $436 24.219101162285632 $564 42.35656516429524 $434 $565 forward 7 unknown #
vertex $-1 $435 $566 #
vertex $-1 $433 $567 #
straight-curve $-1 -57.506934325576069 0 -6.3946988120370039 0 -1 0 I I #
coedge $-1 $568 $569 $307 $440 forward $427 $-1 #
edge $-1 $447 -40.758449361639947 $444 40.758449361639947 $439 $570 forward 7 unknown #
coedge $-1 $434 $308 $312 $449 forward $443 $-1 #
coedge $-1 $308 $434 $568 $571 reversed $443 $-1 #
loop $-1 $-1 $434 $426 #
vertex $-1 $571 $572 #
straight-curve $-1 -33.287833163290436 40.758449361639947 0.82336966371114517 1 0 0 I I #
coedge $-1 $429 $310 $569 $573 forward $300 $-1 #
vertex $-1 $573 $574 #
straight-curve $-1 -33.287833163290436 -40.758449361639947 0.82336966371114517 -1 0 0 I I #
edge $-1 $314 -2.2162019507926098 $436 5.0018665249555392 $441 $575 forward 7 unknown #
point $-1 -57.506934325576069 -40.758449361639947 0.82336966371114517 #
point $-1 -57.506934325576069 40.758449361639947 0.82336966371114517 #
loop $-1 $-1 $324 $316 #
plane-surface $-1 0 40.758449361639947 0 0 -1 0 0 0 -1 forward_v I I I I #
coedge $-1 $455 $319 $321 $459 reversed $194 $-1 #
coedge $-1 $319 $454 $576 $577 reversed $194 $-1 #
coedge $-1 $327 $322 $319 $457 forward $317 $-1 #
edge $-1 $460 -20.758660353612399 $578 -15.504031880448807 $456 $579 forward 7 unknown #
coedge $-1 $321 $320 $463 $580 reversed $121 $-1 #
edge $-1 $581 -81.516898723279894 $460 -72.785596967249461 $454 $582 forward 7 unknown #
vertex $-1 $323 $583 #
straight-curve $-1 27.19357023678527 35.503820888476355 18.619373179100307 1 0 0 I I #
coedge $-1 $576 $324 $327 $467 reversed $452 $-1 #
coedge $-1 $324 $576 $458 $580 forward $452 $-1 #
vertex $-1 $325 $584 #
straight-curve $-1 37.640516902185382 40.758449361639947 83.898202573151167 0 0 1 I I #
straight-curve $-1 37.640516902185382 -8.2996440411562986 76.748536135720599 0 0.60181501223851219 -0.79863551827123203 I I #
edge $-1 $578 -71.133764044955697 $328 -37.640516902185382 $462 $585 forward 7 unknown #
point $-1 37.640516902185382 40.758449361639947 18.619373179100311 #
point $-1 37.640516902185382 35.503820888476355 18.619373179100315 #
edge $-1 $586 1 $586 0 $331 $-1 forward 7 unknown #
vertex $-1 $332 $587 #
ellipse-curve $-1 44.339166330739445 35.962081809366431 13.498310463088806 0 0.79863551827123203 0.60181501223851219 1.5 0 0 1 I I #
point $-1 45.839166330739445 38.131135125058158 15.132809327545363 #
edge $-1 $588 1 $588 0 $335 $-1 forward 7 unknown #
vertex $-1 $336 $589 #
ellipse-curve $-1 54.38714047357054 35.962081809366431 13.498310463088806 0 0.79863551827123203 0.60181501223851219 1.5 0 0 1 I I #
point $-1 55.88714047357054 38.131135125058158 15.132809327545363 #
edge $-1 $590 1 $590 0 $339 $-1 forward 7 unknown #
vertex $-1 $340 $591 #
ellipse-curve $-1 64.435114616401634 35.962081809366431 13.498310463088806 0 0.79863551827123203 0.60181501223851219 1.5 0 0 1 I I #
point $-1 65.935114616401634 38.131135125058158 15.132809327545363 #
plane-surface $-1 0 0 18.619373179100311 0 0 1 1 0 0 forward_v I I I I #
coedge $-1 $493 $492 $485 $592 forward $344 $-1 #
coedge $-1 $485 $346 $348 $489 reversed $223 $-1 #
coedge $-1 $346 $484 $483 $592 reversed $223 $-1 #
coedge $-1 $354 $349 $346 $487 forward $355 $-1 #
edge $-1 $490 -48.327127059580626 $593 -39.229375275828147 $486 $594 forward 7 unknown #
coedge $-1 $348 $347 $493 $595 reversed $140 $-1 #
edge $-1 $596 -2.274695869299009e-014 $490 14.777198678971693 $484 $597 forward 7 unknown #
vertex $-1 $350 $598 #
straight-curve $-1 -8.7578498752202023 -31.660697577887465 18.619373179100311 -1 0 0 I I #
coedge $-1 $483 $351 $354 $497 reversed $344 $-1 #
coedge $-1 $351 $483 $488 $595 forward $344 $-1 #
vertex $-1 $352 $599 #
straight-curve $-1 -9.7073272030700934 -40.758449361639947 50.058731870242447 0 0 1 I I #
straight-curve $-1 -9.7073272030700934 -40.758449361639933 6.9747815899104353 0 -0.61566146476048833 -0.78801076186113728 I I #
edge $-1 $593 -25.324072297810716 $356 -9.7073272030700934 $492 $600 forward 7 unknown #
point $-1 -9.7073272030700934 -40.758449361639947 18.619373179100311 #
point $-1 -9.7073272030700934 -31.660697577887468 18.619373179100311 #
edge $-1 $601 1 $601 0 $359 $-1 forward 7 unknown #
vertex $-1 $360 $602 #
ellipse-curve $-1 -22.20072327886259 -34.917762010547648 11.78780368715517 0 -0.78801076186113728 0.61566146476048833 1 0 0 1 I I #
point $-1 -21.20072327886259 -36.209573469763718 12.79707738450538 #
edge $-1 $603 1 $603 0 $363 $-1 forward 7 unknown #
vertex $-1 $364 $604 #
ellipse-curve $-1 -17.515699750440405 -34.917762010547648 11.78780368715517 0 -0.78801076186113728 0.61566146476048833 1 0 0 1 I I #
point $-1 -16.515699750440405 -36.209573469763718 12.79707738450538 #
edge $-1 $605 1 $605 0 $367 $-1 forward 7 unknown #
vertex $-1 $368 $606 #
ellipse-curve $-1 -12.830676222018219 -34.917762010547648 11.78780368715517 0 -0.78801076186113728 0.61566146476048833 1 0 0 1 I I #
point $-1 -11.830676222018219 -36.209573469763718 12.79707738450538 #
plane-surface $-1 0 0 18.619373179100311 0 0 1 1 0 0 forward_v I I I I #
coedge $-1 $523 $522 $515 $607 forward $372 $-1 #
coedge $-1 $515 $374 $376 $519 reversed $252 $-1 #
coedge $-1 $374 $514 $513 $607 reversed $252 $-1 #
coedge $-1 $382 $377 $374 $517 forward $383 $-1 #
edge $-1 $520 -48.327127059580626 $608 -39.229375275828147 $516 $609 forward 7 unknown #
coedge $-1 $376 $375 $523 $610 reversed $159 $-1 #
edge $-1 $611 -2.274695869299009e-014 $520 14.777198678971693 $514 $612 forward 7 unknown #
vertex $-1 $378 $613 #
straight-curve $-1 17.826581876224999 -31.660697577887465 18.619373179100311 -1 0 0 I I #
coedge $-1 $513 $379 $382 $527 reversed $372 $-1 #
coedge $-1 $379 $513 $518 $610 forward $372 $-1 #
vertex $-1 $380 $614 #
straight-curve $-1 43.46153629982031 -40.758449361639947 50.058731870242447 0 0 1 I I #
straight-curve $-1 43.46153629982031 -40.758449361639933 6.9747815899104353 0 -0.61566146476048833 -0.78801076186113728 I I #
edge $-1 $608 27.844791205079687 $384 43.46153629982031 $522 $615 forward 7 unknown #
point $-1 43.46153629982031 -40.758449361639947 18.619373179100311 #
point $-1 43.46153629982031 -31.660697577887468 18.619373179100311 #
edge $-1 $616 1 $616 0 $387 $-1 forward 7 unknown #
vertex $-1 $388 $617 #
ellipse-curve $-1 30.968140224027806 -34.917762010547648 11.78780368715517 0 -0.78801076186113728 0.61566146476048833 1 0 0 1 I I #
point $-1 31.968140224027806 -36.209573469763718 12.79707738450538 #
edge $-1 $618 1 $618 0 $391 $-1 forward 7 unknown #
vertex $-1 $392 $619 #
ellipse-curve $-1 35.653163752449998 -34.917762010547648 11.78780368715517 0 -0.78801076186113728 0.61566146476048833 1 0 0 1 I I #
point $-1 36.653163752449998 -36.209573469763718 12.79707738450538 #
edge $-1 $620 1 $620 0 $395 $-1 forward 7 unknown #
vertex $-1 $396 $621 #
ellipse-curve $-1 40.338187280872191 -34.917762010547648 11.78780368715517 0 -0.78801076186113728 0.61566146476048833 1 0 0 1 I I #
point $-1 41.338187280872191 -36.209573469763718 12.79707738450538 #
plane-surface $-1 75.644398327585677 0 0 -1 0 0 0 0 1 forward_v I I I I #
coedge $-1 $404 $402 $406 $547 reversed $281 $-1 #
edge $-1 $417 -18.619373179100311 $549 18.619373179100311 $416 $622 forward 7 unknown #
vertex $-1 $547 $623 #
straight-curve $-1 -75.644398327585677 -40.758449361639947 0 0 0 -1 I I #
edge $-1 $545 -40.758449361639947 $549 40.758449361639947 $543 $624 forward 7 unknown #
straight-curve $-1 0 -40.758449361639947 -18.619373179100311 -1 0 0 I I #
vertex $-1 $409 $625 #
straight-curve $-1 0 40.758449361639947 -18.619373179100311 1 0 0 I I #
point $-1 75.644398327585677 40.758449361639947 -18.619373179100311 #
point $-1 75.644398327585677 -40.758449361639947 -18.619373179100311 #
straight-curve $-1 -75.644398327585677 0 18.619373179100311 0 -1 0 I I #
point $-1 -75.644398327585677 40.758449361639947 18.619373179100311 #
point $-1 -75.644398327585677 -40.758449361639947 18.619373179100311 #
straight-curve $-1 75.644398327585677 -40.758449361639947 0 0 0 -1 I I #
straight-curve $-1 75.644398327585677 40.758449361639947 0 0 0 -1 I I #
plane-surface $-1 0 40.758449361639947 0 0 -1 0 0 0 -1 forward_v I I I I #
coedge $-1 $569 $568 $432 $561 forward $427 $-1 #
straight-curve $-1 -57.506934325576069 -40.758449361639947 -1.3928322870814647 0 0 1 I I #
edge $-1 $564 -40.758449361639947 $562 40.758449361639947 $559 $626 forward 7 unknown #
vertex $-1 $433 $627 #
straight-curve $-1 -33.287833163290436 -40.758449361639947 -6.3946988120370039 1 0 0 I I #
vertex $-1 $435 $628 #
straight-curve $-1 -33.287833163290436 40.758449361639947 -6.3946988120370039 -1 0 0 I I #
point $-1 -57.506934325576069 40.758449361639947 -6.3946988120370039 #
point $-1 -57.506934325576069 -40.758449361639947 -6.3946988120370039 #
coedge $-1 $559 $439 $442 $571 forward $427 $-1 #
coedge $-1 $439 $559 $446 $573 reversed $427 $-1 #
straight-curve $-1 -75.644398327585677 0 0.82336966371114517 0 1 0 I I #
edge $-1 $444 -0.82336966371114517 $564 6.3946988120370039 $442 $629 forward 7 unknown #
point $-1 -75.644398327585677 40.758449361639947 0.82336966371114517 #
edge $-1 $447 -0.82336966371114517 $562 6.3946988120370039 $569 $630 forward 7 unknown #
point $-1 -75.644398327585677 -40.758449361639947 0.82336966371114517 #
straight-curve $-1 -57.506934325576069 40.758449361639947 -1.3928322870814647 0 0 -1 I I #
coedge $-1 $463 $462 $455 $577 forward $452 $-1 #
edge $-1 $578 65.278829394050859 $581 72.251957097160741 $576 $631 forward 7 unknown #
vertex $-1 $467 $632 #
straight-curve $-1 71.133764044955697 56.262481242088754 18.619373179100307 0 1 0 I I #
edge $-1 $581 -43.940193808170427 $464 -10.446946665400112 $463 $633 forward 7 unknown #
vertex $-1 $580 $634 #
straight-curve $-1 71.133764044955697 -8.2996440411562986 76.748536135720599 0 -0.60181501223851219 0.79863551827123203 I I #
point $-1 71.133764044955697 35.503820888476355 18.619373179100315 #
point $-1 37.640516902185382 40.758449361639947 11.646245475990426 #
straight-curve $-1 0 40.758449361639947 18.619373179100311 -1 0 0 I I #
vertex $-1 $470 $635 #
point $-1 45.839166330739445 35.962081809366431 13.498310463088806 #
vertex $-1 $474 $636 #
point $-1 55.88714047357054 35.962081809366431 13.498310463088806 #
vertex $-1 $478 $637 #
point $-1 65.935114616401634 35.962081809366431 13.498310463088806 #
edge $-1 $593 31.439358691142136 $596 43.083950280332033 $483 $638 forward 7 unknown #
vertex $-1 $497 $639 #
straight-curve $-1 -25.324072297810716 -79.987824637468094 18.619373179100315 0 -1 0 I I #
edge $-1 $596 -16.566222422590513 $494 -0.94947732784989114 $493 $640 forward 7 unknown #
vertex $-1 $595 $641 #
straight-curve $-1 -25.324072297810716 -40.758449361639933 6.9747815899104353 0 0.61566146476048833 0.78801076186113728 I I #
point $-1 -25.324072297810716 -31.660697577887468 18.619373179100311 #
point $-1 -9.7073272030700934 -40.758449361639947 6.9747815899104175 #
straight-curve $-1 0 -40.758449361639947 18.619373179100311 1 0 0 I I #
vertex $-1 $500 $642 #
point $-1 -21.20072327886259 -34.917762010547648 11.78780368715517 #
vertex $-1 $504 $643 #
point $-1 -16.515699750440405 -34.917762010547648 11.78780368715517 #
vertex $-1 $508 $644 #
point $-1 -11.830676222018219 -34.917762010547648 11.78780368715517 #
edge $-1 $608 31.439358691142136 $611 43.083950280332033 $513 $645 forward 7 unknown #
vertex $-1 $527 $646 #
straight-curve $-1 27.844791205079687 -79.987824637468094 18.619373179100315 0 -1 0 I I #
edge $-1 $611 10.018209328854688 $524 25.63495442359531 $523 $647 forward 7 unknown #
vertex $-1 $610 $648 #
straight-curve $-1 27.844791205079687 -40.758449361639933 6.9747815899104353 0 0.61566146476048833 0.78801076186113728 I I #
point $-1 27.844791205079687 -31.660697577887468 18.619373179100311 #
point $-1 43.46153629982031 -40.758449361639947 6.9747815899104175 #
straight-curve $-1 0 -40.758449361639947 18.619373179100311 1 0 0 I I #
vertex $-1 $530 $649 #
point $-1 31.968140224027806 -34.917762010547648 11.78780368715517 #
vertex $-1 $534 $650 #
point $-1 36.653163752449998 -34.917762010547648 11.78780368715517 #
vertex $-1 $538 $651 #
point $-1 41.338187280872191 -34.917762010547648 11.78780368715517 #
straight-curve $-1 -75.644398327585677 40.758449361639947 0 0 0 -1 I I #
point $-1 -75.644398327585677 -40.758449361639947 -18.619373179100311 #
straight-curve $-1 -75.644398327585677 0 -18.619373179100311 0 1 0 I I #
point $-1 -75.644398327585677 40.758449361639947 -18.619373179100311 #
straight-curve $-1 -75.644398327585677 0 -6.3946988120370039 0 -1 0 I I #
point $-1 -75.644398327585677 -40.758449361639947 -6.3946988120370039 #
point $-1 -75.644398327585677 40.758449361639947 -6.3946988120370039 #
straight-curve $-1 -75.644398327585677 40.758449361639947 0 0 0 -1 I I #
straight-curve $-1 -75.644398327585677 -40.758449361639947 0 0 0 -1 I I #
straight-curve $-1 71.133764044955697 40.758449361639947 83.898202573151167 0 0 -1 I I #
point $-1 71.133764044955697 40.758449361639947 18.619373179100311 #
straight-curve $-1 27.19357023678527 40.758449361639947 11.64624547599043 -1 0 0 I I #
point $-1 71.133764044955697 40.758449361639947 11.646245475990426 #
point $-1 44.339166330739445 34.764128531959578 12.595587944731037 #
point $-1 54.38714047357054 34.764128531959578 12.595587944731037 #
point $-1 64.435114616401634 34.764128531959578 12.595587944731037 #
straight-curve $-1 -25.324072297810716 -40.758449361639947 50.058731870242447 0 0 -1 I I #
point $-1 -25.324072297810716 -40.758449361639947 18.619373179100311 #
straight-curve $-1 -8.7578498752202023 -40.758449361639947 6.9747815899104175 1 0 0 I I #
point $-1 -25.324072297810716 -40.758449361639947 6.9747815899104175 #
point $-1 -22.20072327886259 -34.129751248686517 11.172142222394681 #
point $-1 -17.515699750440405 -34.129751248686517 11.172142222394681 #
point $-1 -12.830676222018219 -34.129751248686517 11.172142222394681 #
straight-curve $-1 27.844791205079687 -40.758449361639947 50.058731870242447 0 0 -1 I I #
point $-1 27.844791205079687 -40.758449361639947 18.619373179100311 #
straight-curve $-1 17.826581876224999 -40.758449361639947 6.9747815899104175 1 0 0 I I #
point $-1 27.844791205079687 -40.758449361639947 6.9747815899104175 #
point $-1 30.968140224027806 -34.129751248686517 11.172142222394681 #
point $-1 35.653163752449998 -34.129751248686517 11.172142222394681 #
point $-1 40.338187280872191 -34.129751248686517 11.172142222394681 #
End-of-ACIS-data 