500 0 7 0           
7 Unknown 11 ACIS 5.0 NT 24 Thu Mar 25 15:43:35 1999 
-1 9.9999999999999995e-007 1e-010 
body $-1 $7 $-1 $8 #
body $-1 $9 $-1 $10 #
body $-1 $11 $-1 $12 #
body $-1 $13 $-1 $14 #
body $-1 $15 $-1 $16 #
body $-1 $17 $-1 $18 #
body $-1 $19 $-1 $20 #
lump $-1 $-1 $21 $0 #
transform $-1 1 0 0 0 1 0 0 0 1 61.505783257545701 41.56178174108863 11.149902108677622 1 rotate no_reflect no_shear #
lump $-1 $-1 $22 $1 #
transform $-1 1 0 0 0 1 0 0 0 1 61.505783257545701 41.56178174108863 11.149902108677622 1 rotate no_reflect no_shear #
lump $-1 $-1 $23 $2 #
transform $-1 1 0 0 0 1 0 0 0 1 61.505783257545701 41.56178174108863 11.149902108677622 1 rotate no_reflect no_shear #
lump $-1 $-1 $24 $3 #
transform $-1 1 0 0 0 1 0 0 0 1 61.505783257545701 41.56178174108863 11.149902108677622 1 rotate no_reflect no_shear #
lump $-1 $-1 $25 $4 #
transform $-1 1 0 0 0 1 0 0 0 1 61.505783257545701 41.56178174108863 11.149902108677622 1 rotate no_reflect no_shear #
lump $-1 $-1 $26 $5 #
transform $-1 1 0 0 0 1 0 0 0 1 61.505783257545701 41.56178174108863 11.149902108677622 1 rotate no_reflect no_shear #
lump $-1 $-1 $27 $6 #
transform $-1 1 0 0 0 1 0 0 0 1 61.505783257545701 41.56178174108863 11.149902108677622 1 rotate no_reflect no_shear #
shell $-1 $-1 $-1 $28 $-1 $7 #
shell $-1 $-1 $-1 $29 $-1 $9 #
shell $-1 $-1 $-1 $30 $-1 $11 #
shell $-1 $-1 $-1 $31 $-1 $13 #
shell $-1 $-1 $-1 $32 $-1 $15 #
shell $-1 $-1 $-1 $33 $-1 $17 #
shell $-1 $-1 $-1 $34 $-1 $19 #
face $-1 $35 $36 $21 $-1 $37 forward single #
face $-1 $38 $39 $22 $-1 $40 reversed single #
face $-1 $41 $42 $23 $-1 $43 forward single #
face $-1 $44 $45 $24 $-1 $46 reversed single #
face $-1 $47 $48 $25 $-1 $49 forward single #
face $-1 $50 $51 $26 $-1 $52 reversed single #
face $-1 $53 $54 $27 $-1 $55 forward single #
face $-1 $56 $57 $21 $-1 $58 reversed single #
loop $-1 $-1 $59 $28 #
plane-surface $-1 0 0 11.149902108677622 0 0 1 1 0 0 forward_v I I I I #
face $-1 $60 $61 $22 $-1 $62 reversed single #
loop $-1 $-1 $63 $29 #
plane-surface $-1 -22.805011349606545 38.845397691304463 150.18504973427284 1 0 0 0 -0.54463904215088732 -0.83867056331134215 forward_v I I I I #
face $-1 $64 $65 $23 $-1 $66 forward single #
loop $-1 $67 $68 $30 #
cone-surface $-1 -6.2851514945287548 30.231286186943933 0.14934474353136995 0 -0.54463904215088732 -0.83867056331134215 4 0 0 1 I I 0 1 4 forward I I I I #
face $-1 $69 $70 $24 $-1 $71 reversed single #
loop $-1 $-1 $72 $31 #
plane-surface $-1 -34.903575640184386 -130.04889845088121 93.054719991216459 -1 0 0 0 -0.71933980857756763 0.69465836192734942 forward_v I I I I #
face $-1 $73 $74 $25 $-1 $75 forward single #
loop $-1 $76 $77 $32 #
cone-surface $-1 -45.96793427575075 -39.302469969281809 8.8485231531371191 0 0.71933980857756763 -0.69465836192734942 0.5 0 0 1 I I 0 1 0.5 forward I I I I #
face $-1 $78 $79 $26 $-1 $80 reversed single #
loop $-1 $-1 $81 $33 #
plane-surface $-1 57.032292911317114 -130.04889845088121 93.054719991216459 -1 0 0 0 -0.71933980857756763 0.69465836192734942 forward_v I I I I #
face $-1 $82 $83 $27 $-1 $84 forward single #
loop $-1 $85 $86 $34 #
cone-surface $-1 45.96793427575075 -39.302469969281809 8.8485231531371191 0 0.71933980857756763 -0.69465836192734942 0.5 0 0 1 I I 0 1 0.5 forward I I I I #
face $-1 $87 $88 $21 $-1 $89 reversed single #
loop $-1 $-1 $90 $35 #
plane-surface $-1 0 0 -11.149902108677622 0 0 1 1 0 0 forward_v I I I I #
coedge $-1 $91 $92 $93 $94 forward $36 $-1 #
face $-1 $95 $96 $22 $-1 $97 reversed single #
loop $-1 $-1 $98 $38 #
plane-surface $-1 -6.2851514945287548 -28.151504068955084 47.018869951250494 0 0.54463904215088732 0.83867056331134215 1 0 0 forward_v I I I I #
coedge $-1 $99 $100 $101 $102 reversed $39 $-1 #
face $-1 $-1 $103 $23 $-1 $104 forward single #
loop $-1 $105 $106 $41 #
cone-surface $-1 -6.2851514945287548 25.051472533464356 -7.8268686719732585 0 -0.54463904215088732 -0.83867056331134215 2 0 0 1 I I -0.70710678118654746 0.70710678118654746 2 forward I I I I #
loop $-1 $-1 $107 $30 #
coedge $-1 $68 $68 $108 $109 reversed $42 $-1 #
face $-1 $110 $111 $24 $-1 $112 reversed single #
loop $-1 $-1 $113 $44 #
plane-surface $-1 -45.96793427575075 -41.561781741088623 7.6037066977258689 0 -0.71933980857756763 0.69465836192734942 1 0 0 forward_v I I I I #
coedge $-1 $114 $115 $116 $117 reversed $45 $-1 #
face $-1 $-1 $118 $25 $-1 $119 forward single #
loop $-1 $120 $121 $47 #
cone-surface $-1 -45.96793427575075 -38.575583755503935 8.1465773125906544 0 0.71933980857756763 -0.69465836192734942 0.25 0 0 1 I I -0.70710678118654746 0.70710678118654746 0.25 forward I I I I #
loop $-1 $-1 $122 $32 #
coedge $-1 $77 $77 $123 $124 reversed $48 $-1 #
face $-1 $125 $126 $26 $-1 $127 reversed single #
loop $-1 $-1 $128 $50 #
plane-surface $-1 45.96793427575075 -41.561781741088623 7.6037066977258689 0 -0.71933980857756763 0.69465836192734942 1 0 0 forward_v I I I I #
coedge $-1 $129 $130 $131 $132 reversed $51 $-1 #
face $-1 $-1 $133 $27 $-1 $134 forward single #
loop $-1 $135 $136 $53 #
cone-surface $-1 45.96793427575075 -38.575583755503935 8.1465773125906544 0 0.71933980857756763 -0.69465836192734942 0.25 0 0 1 I I -0.70710678118654746 0.70710678118654746 0.25 forward I I I I #
loop $-1 $-1 $137 $34 #
coedge $-1 $86 $86 $138 $139 reversed $54 $-1 #
face $-1 $140 $141 $21 $-1 $142 reversed single #
loop $-1 $-1 $143 $56 #
plane-surface $-1 0 -41.56178174108863 0 0 1 0 0 0 1 forward_v I I I I #
coedge $-1 $144 $145 $146 $147 forward $57 $-1 #
coedge $-1 $148 $59 $149 $150 forward $36 $-1 #
coedge $-1 $59 $148 $151 $152 forward $36 $-1 #
coedge $-1 $153 $154 $59 $94 reversed $155 $-1 #
edge $-1 $156 -41.56178174108863 $157 41.56178174108863 $93 $158 forward 7 unknown #
face $-1 $159 $160 $22 $-1 $161 reversed single #
loop $-1 $-1 $162 $60 #
plane-surface $-1 10.234708360549035 38.845397691304463 150.18504973427284 -1 0 0 0 0.54463904215088732 0.83867056331134215 forward_v I I I I #
coedge $-1 $163 $164 $165 $166 reversed $61 $-1 #
coedge $-1 $100 $63 $167 $168 reversed $39 $-1 #
coedge $-1 $63 $99 $163 $169 reversed $39 $-1 #
coedge $-1 $165 $170 $63 $102 forward $171 $-1 #
edge $-1 $172 -22.139082895436399 $173 -7.6591629255026099 $101 $174 forward 7 unknown #
loop $-1 $-1 $108 $64 #
plane-surface $-1 -6.2851514945287548 -28.151504068955084 47.018869951250494 0 0.54463904215088732 0.83867056331134215 1 0 0 forward_v I I I I #
loop $-1 $-1 $175 $41 #
coedge $-1 $106 $106 $107 $176 reversed $65 $-1 #
coedge $-1 $107 $107 $106 $176 forward $67 $-1 #
coedge $-1 $108 $108 $68 $109 forward $103 $-1 #
edge $-1 $177 2.8043658173035087e-016 $177 6.2831853071796004 $108 $178 forward 7 unknown #
face $-1 $179 $180 $24 $-1 $181 reversed single #
loop $-1 $-1 $182 $69 #
plane-surface $-1 -57.032292911317114 -130.04889845088121 93.054719991216459 1 0 0 0 0.71933980857756763 -0.69465836192734942 forward_v I I I I #
coedge $-1 $183 $184 $185 $186 reversed $70 $-1 #
coedge $-1 $115 $72 $187 $188 reversed $45 $-1 #
coedge $-1 $72 $114 $183 $189 reversed $45 $-1 #
coedge $-1 $185 $190 $72 $117 forward $191 $-1 #
edge $-1 $192 23.462667484351975 $193 26.887188504698649 $116 $194 forward 7 unknown #
loop $-1 $-1 $123 $73 #
plane-surface $-1 -45.96793427575075 -41.561781741088623 7.6037066977258689 0 -0.71933980857756763 0.69465836192734942 1 0 0 forward_v I I I I #
loop $-1 $-1 $195 $47 #
coedge $-1 $121 $121 $122 $196 reversed $74 $-1 #
coedge $-1 $122 $122 $121 $196 forward $76 $-1 #
coedge $-1 $123 $123 $77 $124 forward $118 $-1 #
edge $-1 $197 0 $197 6.2831853071796004 $123 $198 forward 7 unknown #
face $-1 $199 $200 $26 $-1 $201 reversed single #
loop $-1 $-1 $202 $78 #
plane-surface $-1 34.903575640184386 -130.04889845088121 93.054719991216459 1 0 0 0 0.71933980857756763 -0.69465836192734942 forward_v I I I I #
coedge $-1 $203 $204 $205 $206 reversed $79 $-1 #
coedge $-1 $130 $81 $207 $208 reversed $51 $-1 #
coedge $-1 $81 $129 $203 $209 reversed $51 $-1 #
coedge $-1 $205 $210 $81 $132 forward $211 $-1 #
edge $-1 $212 23.462667484351975 $213 26.887188504698649 $131 $214 forward 7 unknown #
loop $-1 $-1 $138 $82 #
plane-surface $-1 45.96793427575075 -41.561781741088623 7.6037066977258689 0 -0.71933980857756763 0.69465836192734942 1 0 0 forward_v I I I I #
loop $-1 $-1 $215 $53 #
coedge $-1 $136 $136 $137 $216 reversed $83 $-1 #
coedge $-1 $137 $137 $136 $216 forward $85 $-1 #
coedge $-1 $138 $138 $86 $139 forward $133 $-1 #
edge $-1 $217 0 $217 6.2831853071796004 $138 $218 forward 7 unknown #
face $-1 $219 $220 $21 $-1 $221 reversed single #
loop $-1 $-1 $222 $87 #
plane-surface $-1 -61.505783257545701 0 0 1 0 0 0 0 -1 forward_v I I I I #
coedge $-1 $223 $151 $224 $225 forward $88 $-1 #
coedge $-1 $226 $90 $223 $227 forward $57 $-1 #
coedge $-1 $90 $226 $228 $229 forward $57 $-1 #
coedge $-1 $154 $153 $90 $147 reversed $155 $-1 #
edge $-1 $230 -41.56178174108863 $231 41.56178174108863 $146 $232 forward 7 unknown #
coedge $-1 $92 $91 $233 $234 forward $36 $-1 #
coedge $-1 $235 $236 $91 $150 reversed $220 $-1 #
edge $-1 $157 -61.505783257545701 $237 61.505783257545701 $149 $238 forward 7 unknown #
coedge $-1 $143 $239 $92 $152 reversed $88 $-1 #
edge $-1 $240 -61.505783257545701 $156 61.505783257545701 $151 $241 forward 7 unknown #
coedge $-1 $146 $93 $239 $242 forward $155 $-1 #
coedge $-1 $93 $146 $235 $243 reversed $155 $-1 #
loop $-1 $-1 $153 $219 #
vertex $-1 $94 $244 #
vertex $-1 $94 $245 #
straight-curve $-1 61.505783257545701 0 11.149902108677622 0 1 0 I I #
face $-1 $-1 $171 $22 $-1 $246 forward single #
loop $-1 $-1 $247 $95 #
plane-surface $-1 0 41.56178174108863 0 0 -1 0 0 0 -1 forward_v I I I I #
coedge $-1 $248 $249 $250 $251 reversed $96 $-1 #
coedge $-1 $252 $98 $100 $169 forward $61 $-1 #
coedge $-1 $98 $252 $248 $253 forward $61 $-1 #
coedge $-1 $250 $101 $98 $166 forward $171 $-1 #
edge $-1 $173 -19.662435602342168 $254 13.377284107813413 $165 $255 forward 7 unknown #
coedge $-1 $256 $257 $99 $168 forward $160 $-1 #
edge $-1 $258 -73.345992910987434 $172 -63.942622758458796 $167 $259 forward 7 unknown #
edge $-1 $173 65.858238331426307 $258 83.123563482177261 $100 $260 forward 7 unknown #
coedge $-1 $101 $250 $256 $261 forward $171 $-1 #
loop $-1 $-1 $250 $159 #
vertex $-1 $168 $262 #
vertex $-1 $102 $263 #
straight-curve $-1 -22.805011349606545 19.422698845652231 11.149902108677622 0 -1 0 I I #
coedge $-1 $175 $175 $-1 $264 reversed $105 $-1 #
edge $-1 $265 0 $265 6.2831853071796004 $106 $266 forward 7 unknown #
vertex $-1 $109 $267 #
ellipse-curve $-1 -6.2851514945287548 34.321821756121729 6.4482170324133055 0 0.54463904215088732 0.83867056331134215 4 0 0 1 I I #
face $-1 $-1 $191 $24 $-1 $268 forward single #
loop $-1 $-1 $269 $110 #
plane-surface $-1 0 -41.56178174108863 0 0 1 0 0 0 1 forward_v I I I I #
coedge $-1 $270 $271 $272 $273 reversed $111 $-1 #
coedge $-1 $274 $113 $115 $189 forward $70 $-1 #
coedge $-1 $113 $274 $270 $275 forward $70 $-1 #
coedge $-1 $272 $116 $113 $186 forward $191 $-1 #
edge $-1 $193 11.919608502309011 $276 34.048325773441739 $185 $277 forward 7 unknown #
coedge $-1 $278 $279 $114 $188 forward $180 $-1 #
edge $-1 $280 -38.923653297882367 $192 -35.377457886930607 $187 $281 forward 7 unknown #
edge $-1 $193 -4.9297916904724737 $280 1.0047061284303404e-014 $115 $282 forward 7 unknown #
coedge $-1 $116 $272 $278 $283 forward $191 $-1 #
loop $-1 $-1 $272 $179 #
vertex $-1 $188 $284 #
vertex $-1 $117 $285 #
straight-curve $-1 -34.903575640184386 -65.024449225440605 11.149902108677622 0 1 0 I I #
coedge $-1 $195 $195 $-1 $286 reversed $120 $-1 #
edge $-1 $287 0 $287 6.2831853071796004 $121 $288 forward 7 unknown #
vertex $-1 $124 $289 #
ellipse-curve $-1 -45.96793427575075 -39.849521230915293 9.3768044032017439 0 -0.71933980857756763 0.69465836192734942 0.5 0 0 1 I I #
face $-1 $-1 $211 $26 $-1 $290 forward single #
loop $-1 $-1 $291 $125 #
plane-surface $-1 0 -41.56178174108863 0 0 1 0 0 0 1 forward_v I I I I #
coedge $-1 $292 $293 $294 $295 reversed $126 $-1 #
coedge $-1 $296 $128 $130 $209 forward $79 $-1 #
coedge $-1 $128 $296 $292 $297 forward $79 $-1 #
coedge $-1 $294 $131 $128 $206 forward $211 $-1 #
edge $-1 $213 -34.048325773441739 $298 -11.919608502309011 $205 $299 forward 7 unknown #
coedge $-1 $300 $301 $129 $208 forward $200 $-1 #
edge $-1 $302 -38.923653297882367 $212 -35.377457886930607 $207 $303 forward 7 unknown #
edge $-1 $213 -4.9297916904724737 $302 1.0047061284303404e-014 $130 $304 forward 7 unknown #
coedge $-1 $131 $294 $300 $305 forward $211 $-1 #
loop $-1 $-1 $294 $199 #
vertex $-1 $208 $306 #
vertex $-1 $132 $307 #
straight-curve $-1 57.032292911317114 -65.024449225440605 11.149902108677622 0 1 0 I I #
coedge $-1 $215 $215 $-1 $308 reversed $135 $-1 #
edge $-1 $309 0 $309 6.2831853071796004 $136 $310 forward 7 unknown #
vertex $-1 $139 $311 #
ellipse-curve $-1 45.96793427575075 -39.849521230915293 9.3768044032017439 0 -0.71933980857756763 0.69465836192734942 0.5 0 0 1 I I #
face $-1 $-1 $155 $21 $-1 $312 reversed single #
loop $-1 $-1 $235 $140 #
plane-surface $-1 0 41.56178174108863 0 0 -1 0 0 0 -1 forward_v I I I I #
coedge $-1 $313 $233 $236 $314 forward $141 $-1 #
coedge $-1 $239 $143 $144 $227 reversed $88 $-1 #
coedge $-1 $233 $313 $143 $225 reversed $141 $-1 #
edge $-1 $240 -11.149902108677622 $315 11.149902108677622 $224 $316 forward 7 unknown #
coedge $-1 $145 $144 $313 $317 forward $57 $-1 #
edge $-1 $231 -61.505783257545701 $315 61.505783257545701 $223 $318 forward 7 unknown #
coedge $-1 $236 $235 $145 $229 reversed $220 $-1 #
edge $-1 $319 -61.505783257545701 $230 61.505783257545701 $228 $320 forward 7 unknown #
vertex $-1 $147 $321 #
vertex $-1 $242 $322 #
straight-curve $-1 61.505783257545701 0 -11.149902108677622 0 -1 0 I I #
coedge $-1 $222 $224 $148 $234 reversed $141 $-1 #
edge $-1 $237 -41.56178174108863 $240 41.56178174108863 $233 $323 forward 7 unknown #
coedge $-1 $228 $149 $154 $243 forward $220 $-1 #
coedge $-1 $149 $228 $222 $314 reversed $220 $-1 #
vertex $-1 $150 $324 #
straight-curve $-1 0 41.56178174108863 11.149902108677622 -1 0 0 I I #
coedge $-1 $151 $223 $153 $242 reversed $88 $-1 #
vertex $-1 $234 $325 #
straight-curve $-1 0 -41.56178174108863 11.149902108677622 1 0 0 I I #
edge $-1 $156 -11.149902108677622 $231 11.149902108677622 $153 $326 forward 7 unknown #
edge $-1 $157 -11.149902108677622 $230 11.149902108677622 $154 $327 forward 7 unknown #
point $-1 61.505783257545701 -41.56178174108863 11.149902108677622 #
point $-1 61.505783257545701 41.56178174108863 11.149902108677622 #
plane-surface $-1 0 0 11.149902108677622 0 0 1 1 0 0 forward_v I I I I #
coedge $-1 $257 $256 $249 $328 forward $160 $-1 #
coedge $-1 $249 $162 $164 $253 reversed $96 $-1 #
coedge $-1 $162 $248 $247 $328 reversed $96 $-1 #
coedge $-1 $170 $165 $162 $251 forward $171 $-1 #
edge $-1 $254 7.6591629255026099 $329 22.139082895436399 $250 $330 forward 7 unknown #
coedge $-1 $164 $163 $257 $331 reversed $61 $-1 #
edge $-1 $332 -83.123563482177261 $254 -65.858238331426307 $248 $333 forward 7 unknown #
vertex $-1 $166 $334 #
straight-curve $-1 -3.1425757472643774 27.081861771154845 11.149902108677619 1 0 0 I I #
coedge $-1 $247 $167 $170 $261 reversed $160 $-1 #
coedge $-1 $167 $247 $252 $331 forward $160 $-1 #
vertex $-1 $168 $335 #
straight-curve $-1 -22.805011349606545 41.56178174108863 75.092524867136419 0 0 1 I I #
straight-curve $-1 -22.805011349606545 -28.151504068955084 47.018869951250494 0 0.83867056331134215 -0.54463904215088732 I I #
edge $-1 $329 -10.234708360549035 $172 22.805011349606545 $256 $336 forward 7 unknown #
point $-1 -22.805011349606545 41.56178174108863 11.149902108677622 #
point $-1 -22.805011349606545 27.081861771154841 11.149902108677615 #
edge $-1 $337 1 $337 0 $175 $-1 forward 7 unknown #
vertex $-1 $176 $338 #
ellipse-curve $-1 -6.2851514945287548 26.14075061776613 -6.1495275453505744 0 0.54463904215088732 0.83867056331134215 4 0 0 1 I I #
point $-1 -2.2851514945287548 34.321821756121736 6.4482170324133143 #
plane-surface $-1 0 0 11.149902108677622 0 0 1 1 0 0 forward_v I I I I #
coedge $-1 $279 $278 $271 $339 forward $180 $-1 #
coedge $-1 $271 $182 $184 $275 reversed $111 $-1 #
coedge $-1 $182 $270 $269 $339 reversed $111 $-1 #
coedge $-1 $190 $185 $182 $273 forward $191 $-1 #
edge $-1 $276 -26.887188504698649 $340 -23.462667484351975 $272 $341 forward 7 unknown #
coedge $-1 $184 $183 $279 $342 reversed $70 $-1 #
edge $-1 $343 -1.0047061284303404e-014 $276 4.9297916904724737 $270 $344 forward 7 unknown #
vertex $-1 $186 $345 #
straight-curve $-1 -22.983967137875375 -38.137260720741956 11.149902108677622 -1 0 0 I I #
coedge $-1 $269 $187 $190 $283 reversed $180 $-1 #
coedge $-1 $187 $269 $274 $342 forward $180 $-1 #
vertex $-1 $188 $346 #
straight-curve $-1 -34.903575640184386 -41.56178174108863 46.527359995608229 0 0 1 I I #
straight-curve $-1 -34.903575640184386 -41.561781741088623 7.6037066977258689 0 -0.69465836192734942 -0.71933980857756763 I I #
edge $-1 $340 -57.032292911317114 $192 -34.903575640184386 $278 $347 forward 7 unknown #
point $-1 -34.903575640184386 -41.56178174108863 11.149902108677622 #
point $-1 -34.903575640184386 -38.137260720741956 11.149902108677622 #
edge $-1 $348 1 $348 0 $195 $-1 forward 7 unknown #
vertex $-1 $196 $349 #
ellipse-curve $-1 -45.96793427575075 -38.755418707648325 8.3202419030724926 0 -0.71933980857756763 0.69465836192734942 0.5 0 0 1 I I #
point $-1 -45.46793427575075 -39.849521230915293 9.3768044032017439 #
plane-surface $-1 0 0 11.149902108677622 0 0 1 1 0 0 forward_v I I I I #
coedge $-1 $301 $300 $293 $350 forward $200 $-1 #
coedge $-1 $293 $202 $204 $297 reversed $126 $-1 #
coedge $-1 $202 $292 $291 $350 reversed $126 $-1 #
coedge $-1 $210 $205 $202 $295 forward $211 $-1 #
edge $-1 $298 -26.887188504698649 $351 -23.462667484351975 $294 $352 forward 7 unknown #
coedge $-1 $204 $203 $301 $353 reversed $79 $-1 #
edge $-1 $354 -1.0047061284303404e-014 $298 4.9297916904724737 $292 $355 forward 7 unknown #
vertex $-1 $206 $356 #
straight-curve $-1 22.983967137875375 -38.137260720741956 11.149902108677622 -1 0 0 I I #
coedge $-1 $291 $207 $210 $305 reversed $200 $-1 #
coedge $-1 $207 $291 $296 $353 forward $200 $-1 #
vertex $-1 $208 $357 #
straight-curve $-1 57.032292911317114 -41.56178174108863 46.527359995608229 0 0 1 I I #
straight-curve $-1 57.032292911317114 -41.561781741088623 7.6037066977258689 0 -0.69465836192734942 -0.71933980857756763 I I #
edge $-1 $351 34.903575640184386 $212 57.032292911317114 $300 $358 forward 7 unknown #
point $-1 57.032292911317114 -41.56178174108863 11.149902108677622 #
point $-1 57.032292911317114 -38.137260720741956 11.149902108677622 #
edge $-1 $359 1 $359 0 $215 $-1 forward 7 unknown #
vertex $-1 $216 $360 #
ellipse-curve $-1 45.96793427575075 -38.755418707648325 8.3202419030724926 0 -0.71933980857756763 0.69465836192734942 0.5 0 0 1 I I #
point $-1 46.46793427575075 -39.849521230915293 9.3768044032017439 #
plane-surface $-1 61.505783257545701 0 0 -1 0 0 0 0 1 forward_v I I I I #
coedge $-1 $224 $222 $226 $317 reversed $141 $-1 #
edge $-1 $237 -11.149902108677622 $319 11.149902108677622 $236 $361 forward 7 unknown #
vertex $-1 $317 $362 #
straight-curve $-1 -61.505783257545701 -41.56178174108863 0 0 0 -1 I I #
edge $-1 $315 -41.56178174108863 $319 41.56178174108863 $313 $363 forward 7 unknown #
straight-curve $-1 0 -41.56178174108863 -11.149902108677622 -1 0 0 I I #
vertex $-1 $229 $364 #
straight-curve $-1 0 41.56178174108863 -11.149902108677622 1 0 0 I I #
point $-1 61.505783257545701 41.56178174108863 -11.149902108677622 #
point $-1 61.505783257545701 -41.56178174108863 -11.149902108677622 #
straight-curve $-1 -61.505783257545701 0 11.149902108677622 0 -1 0 I I #
point $-1 -61.505783257545701 41.56178174108863 11.149902108677622 #
point $-1 -61.505783257545701 -41.56178174108863 11.149902108677622 #
straight-curve $-1 61.505783257545701 -41.56178174108863 0 0 0 -1 I I #
straight-curve $-1 61.505783257545701 41.56178174108863 0 0 0 -1 I I #
edge $-1 $329 63.942622758458796 $332 73.345992910987434 $247 $365 forward 7 unknown #
vertex $-1 $261 $366 #
straight-curve $-1 10.234708360549035 19.422698845652231 11.149902108677622 0 1 0 I I #
edge $-1 $332 -13.377284107813413 $258 19.662435602342168 $257 $367 forward 7 unknown #
vertex $-1 $331 $368 #
straight-curve $-1 10.234708360549035 -28.151504068955084 47.018869951250494 0 -0.83867056331134215 0.54463904215088732 I I #
point $-1 10.234708360549035 27.081861771154841 11.149902108677615 #
point $-1 -22.805011349606545 41.56178174108863 1.746531956148992 #
straight-curve $-1 0 41.56178174108863 11.149902108677622 -1 0 0 I I #
vertex $-1 $264 $369 #
point $-1 -2.2851514945287548 26.14075061776613 -6.1495275453505744 #
edge $-1 $340 35.377457886930607 $343 38.923653297882367 $269 $370 forward 7 unknown #
vertex $-1 $283 $371 #
straight-curve $-1 -57.032292911317114 -65.024449225440605 11.149902108677622 0 -1 0 I I #
edge $-1 $343 -34.048325773441739 $280 -11.919608502309011 $279 $372 forward 7 unknown #
vertex $-1 $342 $373 #
straight-curve $-1 -57.032292911317114 -41.561781741088623 7.6037066977258689 0 0.69465836192734942 0.71933980857756763 I I #
point $-1 -57.032292911317114 -38.137260720741956 11.149902108677622 #
point $-1 -34.903575640184386 -41.56178174108863 7.6037066977258618 #
straight-curve $-1 0 -41.56178174108863 11.149902108677622 1 0 0 I I #
vertex $-1 $286 $374 #
point $-1 -45.46793427575075 -38.755418707648325 8.3202419030724926 #
edge $-1 $351 35.377457886930607 $354 38.923653297882367 $291 $375 forward 7 unknown #
vertex $-1 $305 $376 #
straight-curve $-1 34.903575640184386 -65.024449225440605 11.149902108677622 0 -1 0 I I #
edge $-1 $354 11.919608502309011 $302 34.048325773441739 $301 $377 forward 7 unknown #
vertex $-1 $353 $378 #
straight-curve $-1 34.903575640184386 -41.561781741088623 7.6037066977258689 0 0.69465836192734942 0.71933980857756763 I I #
point $-1 34.903575640184386 -38.137260720741956 11.149902108677622 #
point $-1 57.032292911317114 -41.56178174108863 7.6037066977258618 #
straight-curve $-1 0 -41.56178174108863 11.149902108677622 1 0 0 I I #
vertex $-1 $308 $379 #
point $-1 46.46793427575075 -38.755418707648325 8.3202419030724926 #
straight-curve $-1 -61.505783257545701 41.56178174108863 0 0 0 -1 I I #
point $-1 -61.505783257545701 -41.56178174108863 -11.149902108677622 #
straight-curve $-1 -61.505783257545701 0 -11.149902108677622 0 1 0 I I #
point $-1 -61.505783257545701 41.56178174108863 -11.149902108677622 #
straight-curve $-1 10.234708360549035 41.56178174108863 75.092524867136419 0 0 -1 I I #
point $-1 10.234708360549035 41.56178174108863 11.149902108677622 #
straight-curve $-1 -3.1425757472643774 41.561781741088623 1.7465319561489991 -1 0 0 I I #
point $-1 10.234708360549035 41.56178174108863 1.746531956148992 #
point $-1 -6.2851514945287548 23.962194449162581 -9.5042097985959426 #
straight-curve $-1 -57.032292911317114 -41.56178174108863 46.527359995608229 0 0 -1 I I #
point $-1 -57.032292911317114 -41.56178174108863 11.149902108677622 #
straight-curve $-1 -22.983967137875375 -41.56178174108863 7.6037066977258592 1 0 0 I I #
point $-1 -57.032292911317114 -41.56178174108863 7.6037066977258618 #
point $-1 -45.96793427575075 -38.395748803359545 7.9729127221088172 #
straight-curve $-1 34.903575640184386 -41.56178174108863 46.527359995608229 0 0 -1 I I #
point $-1 34.903575640184386 -41.56178174108863 11.149902108677622 #
straight-curve $-1 22.983967137875375 -41.56178174108863 7.6037066977258592 1 0 0 I I #
point $-1 34.903575640184386 -41.56178174108863 7.6037066977258618 #
point $-1 45.96793427575075 -38.395748803359545 7.9729127221088172 #
End-of-ACIS-data 