500 0 5 0           
7 Unknown 11 ACIS 5.0 NT 24 Thu Mar 25 15:13:03 1999 
-1 9.9999999999999995e-007 1e-010 
body $-1 $5 $-1 $6 #
body $-1 $7 $-1 $8 #
body $-1 $9 $-1 $10 #
body $-1 $11 $-1 $12 #
body $-1 $13 $-1 $14 #
lump $-1 $-1 $15 $0 #
transform $-1 1 0 0 0 1 0 0 0 1 59.190038758507036 39.136922566425426 12.987194855609919 1 rotate no_reflect no_shear #
lump $-1 $-1 $16 $1 #
transform $-1 1 0 0 0 1 0 0 0 1 59.190038758507036 39.136922566425426 12.987194855609919 1 rotate no_reflect no_shear #
lump $-1 $-1 $17 $2 #
transform $-1 1 0 0 0 1 0 0 0 1 59.190038758507036 39.136922566425426 12.987194855609919 1 rotate no_reflect no_shear #
lump $-1 $-1 $18 $3 #
transform $-1 1 0 0 0 1 0 0 0 1 59.190038758507036 39.136922566425426 12.987194855609919 1 rotate no_reflect no_shear #
lump $-1 $-1 $19 $4 #
transform $-1 1 0 0 0 1 0 0 0 1 59.190038758507036 39.136922566425426 12.987194855609919 1 rotate no_reflect no_shear #
shell $-1 $-1 $-1 $20 $-1 $5 #
shell $-1 $-1 $-1 $21 $-1 $7 #
shell $-1 $-1 $-1 $22 $-1 $9 #
shell $-1 $-1 $-1 $23 $-1 $11 #
shell $-1 $-1 $-1 $24 $-1 $13 #
face $-1 $25 $26 $15 $-1 $27 forward single #
face $-1 $28 $29 $16 $-1 $30 forward single #
face $-1 $31 $32 $17 $-1 $33 reversed single #
face $-1 $34 $35 $18 $-1 $36 forward single #
face $-1 $37 $38 $19 $-1 $39 forward single #
face $-1 $40 $41 $15 $-1 $42 reversed single #
loop $-1 $-1 $43 $20 #
plane-surface $-1 0 0 12.987194855609919 0 0 1 1 0 0 forward_v I I I I #
face $-1 $44 $45 $16 $-1 $46 reversed single #
loop $-1 $-1 $47 $21 #
plane-surface $-1 0 -39.136922566425426 0 0 1 0 0 0 1 forward_v I I I I #
face $-1 $48 $49 $17 $-1 $50 reversed single #
loop $-1 $-1 $51 $22 #
plane-surface $-1 56.268251075106143 23.285674306049639 173.77556808657994 0 -1 0 -0.69465837861970381 0 -0.71933979245794832 forward_v I I I I #
face $-1 $52 $53 $18 $-1 $54 forward single #
loop $-1 $55 $56 $23 #
cone-surface $-1 55.2343207107252 11.440241802632727 9.1296252091705785 -0.69465837861970381 0 -0.71933979245794832 0.71933979245794832 0 -0.69465837861970381 1 I I 0 1 1 forward I I I I #
face $-1 $57 $58 $19 $-1 $59 forward single #
loop $-1 $60 $61 $24 #
cone-surface $-1 55.2343207107252 18.547501304682882 9.1296252091705785 -0.69465837861970381 0 -0.71933979245794832 0.71933979245794832 0 -0.69465837861970381 1 I I 0 1 1 forward I I I I #
face $-1 $62 $63 $15 $-1 $64 reversed single #
loop $-1 $-1 $65 $25 #
plane-surface $-1 0 0 -12.987194855609919 0 0 1 1 0 0 forward_v I I I I #
coedge $-1 $66 $67 $68 $69 forward $26 $-1 #
face $-1 $70 $71 $16 $-1 $72 reversed single #
loop $-1 $-1 $73 $28 #
plane-surface $-1 0 0 -12.987194855609919 0 0 1 1 0 0 forward_v I I I I #
coedge $-1 $74 $75 $76 $77 forward $29 $-1 #
face $-1 $78 $79 $17 $-1 $80 reversed single #
loop $-1 $-1 $81 $31 #
plane-surface $-1 -25.965461633737711 14.993871553657797 88.620067694335205 0.69465837861970381 0 0.71933979245794832 0.71933979245794832 0 -0.69465837861970381 forward_v I I I I #
coedge $-1 $82 $83 $84 $85 reversed $32 $-1 #
face $-1 $-1 $86 $18 $-1 $87 forward single #
loop $-1 $88 $89 $34 #
cone-surface $-1 54.348958287033518 11.440241802632727 8.2128056015615503 -0.69465837861970381 0 -0.71933979245794832 0.35966989622897416 0 -0.3473291893098519 1 I I -0.70710678118654746 0.70710678118654746 0.5 forward I I I I #
loop $-1 $-1 $90 $23 #
coedge $-1 $56 $56 $91 $92 reversed $35 $-1 #
face $-1 $-1 $93 $19 $-1 $94 forward single #
loop $-1 $95 $96 $37 #
cone-surface $-1 54.348958287033518 18.547501304682882 8.2128056015615503 -0.69465837861970381 0 -0.71933979245794832 0.35966989622897416 0 -0.3473291893098519 1 I I -0.70710678118654746 0.70710678118654746 0.5 forward I I I I #
loop $-1 $-1 $97 $24 #
coedge $-1 $61 $61 $98 $99 reversed $38 $-1 #
face $-1 $100 $101 $15 $-1 $102 reversed single #
loop $-1 $-1 $103 $40 #
plane-surface $-1 0 -39.136922566425426 0 0 1 0 0 0 1 forward_v I I I I #
coedge $-1 $104 $105 $106 $107 forward $41 $-1 #
coedge $-1 $108 $43 $109 $110 forward $26 $-1 #
coedge $-1 $43 $108 $111 $112 forward $26 $-1 #
coedge $-1 $113 $114 $43 $69 reversed $115 $-1 #
edge $-1 $116 -39.136922566425426 $117 39.136922566425426 $68 $118 forward 7 unknown #
face $-1 $119 $120 $16 $-1 $121 forward single #
loop $-1 $-1 $122 $44 #
plane-surface $-1 59.190038758507036 0 0 -1 0 0 0 0 1 forward_v I I I I #
coedge $-1 $123 $124 $125 $126 forward $45 $-1 #
coedge $-1 $125 $47 $122 $127 reversed $29 $-1 #
coedge $-1 $47 $125 $128 $129 reversed $29 $-1 #
coedge $-1 $130 $131 $47 $77 reversed $120 $-1 #
edge $-1 $132 -59.190038758507036 $133 59.190038758507036 $76 $134 forward 7 unknown #
face $-1 $135 $136 $17 $-1 $137 reversed single #
loop $-1 $-1 $138 $48 #
plane-surface $-1 56.268251075106143 6.7020688012659555 173.77556808657994 0 1 0 0.69465837861970381 0 0.71933979245794832 forward_v I I I I #
coedge $-1 $139 $140 $141 $142 reversed $49 $-1 #
coedge $-1 $83 $51 $143 $144 reversed $32 $-1 #
coedge $-1 $51 $82 $139 $145 reversed $32 $-1 #
coedge $-1 $141 $146 $51 $85 forward $147 $-1 #
edge $-1 $148 -31.055913220953965 $149 -24.220543594153991 $84 $150 forward 7 unknown #
loop $-1 $-1 $91 $52 #
plane-surface $-1 -25.965461633737711 14.993871553657797 88.620067694335205 0.69465837861970381 0 0.71933979245794832 0.71933979245794832 0 -0.69465837861970381 forward_v I I I I #
loop $-1 $-1 $151 $34 #
coedge $-1 $89 $89 $90 $152 reversed $53 $-1 #
coedge $-1 $90 $90 $89 $152 forward $55 $-1 #
coedge $-1 $91 $91 $56 $92 forward $86 $-1 #
edge $-1 $153 0 $153 6.2831853071796004 $91 $154 forward 7 unknown #
loop $-1 $-1 $98 $57 #
plane-surface $-1 -25.965461633737711 14.993871553657797 88.620067694335205 0.69465837861970381 0 0.71933979245794832 0.71933979245794832 0 -0.69465837861970381 forward_v I I I I #
loop $-1 $-1 $155 $37 #
coedge $-1 $96 $96 $97 $156 reversed $58 $-1 #
coedge $-1 $97 $97 $96 $156 forward $60 $-1 #
coedge $-1 $98 $98 $61 $99 forward $93 $-1 #
edge $-1 $157 0 $157 6.2831853071796004 $98 $158 forward 7 unknown #
face $-1 $159 $160 $15 $-1 $161 reversed single #
loop $-1 $-1 $162 $62 #
plane-surface $-1 -59.190038758507036 0 0 1 0 0 0 0 -1 forward_v I I I I #
coedge $-1 $111 $163 $113 $164 reversed $63 $-1 #
coedge $-1 $165 $65 $163 $166 forward $41 $-1 #
coedge $-1 $65 $165 $167 $168 forward $41 $-1 #
coedge $-1 $114 $113 $65 $107 reversed $115 $-1 #
edge $-1 $169 -39.136922566425426 $170 39.136922566425426 $106 $171 forward 7 unknown #
coedge $-1 $67 $66 $172 $173 forward $26 $-1 #
coedge $-1 $174 $175 $66 $110 reversed $160 $-1 #
edge $-1 $117 -59.190038758507036 $176 59.190038758507036 $109 $177 forward 7 unknown #
coedge $-1 $178 $103 $67 $112 reversed $63 $-1 #
edge $-1 $179 -59.190038758507036 $116 59.190038758507036 $111 $180 forward 7 unknown #
coedge $-1 $106 $68 $103 $164 forward $115 $-1 #
coedge $-1 $68 $106 $174 $181 reversed $115 $-1 #
loop $-1 $-1 $113 $159 #
vertex $-1 $69 $182 #
vertex $-1 $69 $183 #
straight-curve $-1 59.190038758507036 0 12.987194855609919 0 1 0 I I #
face $-1 $184 $185 $16 $-1 $186 reversed single #
loop $-1 $-1 $131 $70 #
plane-surface $-1 0 -44.8304482288709 -5.7887685264184707 0 0 1 1 0 0 forward_v I I I I #
coedge $-1 $187 $188 $74 $127 forward $71 $-1 #
coedge $-1 $189 $73 $188 $190 forward $45 $-1 #
coedge $-1 $73 $189 $191 $192 forward $45 $-1 #
coedge $-1 $75 $74 $73 $126 reversed $29 $-1 #
edge $-1 $193 -59.190038758507036 $194 59.190038758507036 $73 $195 forward 7 unknown #
edge $-1 $194 -12.987194855609919 $133 -5.7887685264184707 $122 $196 forward 7 unknown #
coedge $-1 $191 $197 $75 $129 forward $198 $-1 #
edge $-1 $132 5.7887685264184707 $193 12.987194855609919 $128 $199 forward 7 unknown #
coedge $-1 $200 $76 $197 $201 forward $120 $-1 #
coedge $-1 $76 $200 $187 $202 forward $120 $-1 #
vertex $-1 $129 $203 #
vertex $-1 $202 $204 #
straight-curve $-1 0 -39.136922566425426 -5.7887685264184707 1 0 0 I I #
face $-1 $-1 $147 $17 $-1 $205 forward single #
loop $-1 $-1 $206 $78 #
plane-surface $-1 59.190038758507036 0 0 -1 0 0 0 0 1 forward_v I I I I #
coedge $-1 $207 $208 $209 $210 reversed $79 $-1 #
coedge $-1 $211 $81 $83 $145 forward $49 $-1 #
coedge $-1 $81 $211 $207 $212 forward $49 $-1 #
coedge $-1 $209 $84 $81 $142 forward $147 $-1 #
edge $-1 $149 -15.788738529220741 $213 0.79486697556294317 $141 $214 forward 7 unknown #
coedge $-1 $215 $216 $82 $144 forward $136 $-1 #
edge $-1 $217 -80.501429057798617 $148 -73.900589187680055 $143 $218 forward 7 unknown #
edge $-1 $149 108.87779542659356 $217 118.38007751701409 $83 $219 forward 7 unknown #
coedge $-1 $84 $209 $215 $220 forward $147 $-1 #
loop $-1 $-1 $209 $135 #
vertex $-1 $144 $221 #
vertex $-1 $85 $222 #
straight-curve $-1 28.134125537553071 23.285674306049639 12.987194855609914 -1 0 0 I I #
coedge $-1 $151 $151 $-1 $223 reversed $88 $-1 #
edge $-1 $224 0 $224 6.2831853071796004 $89 $225 forward 7 unknown #
vertex $-1 $92 $226 #
ellipse-curve $-1 55.772353945107035 11.440241802632727 9.6867749205506382 0.69465837861970381 0 0.71933979245794832 0.71933979245794832 0 -0.69465837861970381 1 I I #
coedge $-1 $155 $155 $-1 $227 reversed $95 $-1 #
edge $-1 $228 0 $228 6.2831853071796004 $96 $229 forward 7 unknown #
vertex $-1 $99 $230 #
ellipse-curve $-1 55.772353945107035 18.547501304682882 9.6867749205506382 0.69465837861970381 0 0.71933979245794832 0.71933979245794832 0 -0.69465837861970381 1 I I #
face $-1 $-1 $115 $15 $-1 $231 reversed single #
loop $-1 $-1 $174 $100 #
plane-surface $-1 0 39.136922566425426 0 0 -1 0 0 0 -1 forward_v I I I I #
coedge $-1 $232 $172 $175 $233 forward $101 $-1 #
coedge $-1 $103 $178 $104 $166 reversed $63 $-1 #
edge $-1 $116 -12.987194855609919 $170 12.987194855609919 $113 $234 forward 7 unknown #
coedge $-1 $105 $104 $232 $235 forward $41 $-1 #
edge $-1 $170 -59.190038758507036 $236 59.190038758507036 $163 $237 forward 7 unknown #
coedge $-1 $175 $174 $105 $168 reversed $160 $-1 #
edge $-1 $238 -59.190038758507036 $169 59.190038758507036 $167 $239 forward 7 unknown #
vertex $-1 $107 $240 #
vertex $-1 $164 $241 #
straight-curve $-1 59.190038758507036 0 -12.987194855609919 0 -1 0 I I #
coedge $-1 $162 $242 $108 $173 reversed $101 $-1 #
edge $-1 $176 -39.136922566425426 $179 39.136922566425426 $172 $243 forward 7 unknown #
coedge $-1 $167 $109 $114 $181 forward $160 $-1 #
coedge $-1 $109 $167 $162 $233 reversed $160 $-1 #
vertex $-1 $110 $244 #
straight-curve $-1 0 39.136922566425426 12.987194855609919 -1 0 0 I I #
coedge $-1 $163 $111 $242 $245 forward $63 $-1 #
vertex $-1 $173 $246 #
straight-curve $-1 0 -39.136922566425426 12.987194855609919 1 0 0 I I #
edge $-1 $117 -12.987194855609919 $169 12.987194855609919 $114 $247 forward 7 unknown #
point $-1 59.190038758507036 -39.136922566425426 12.987194855609919 #
point $-1 59.190038758507036 39.136922566425426 12.987194855609919 #
face $-1 $-1 $198 $16 $-1 $248 reversed single #
loop $-1 $-1 $249 $119 #
plane-surface $-1 0 -50.523973891316373 -9.3879816910141951 0 1 0 0 0 1 forward_v I I I I #
coedge $-1 $250 $122 $131 $202 reversed $71 $-1 #
coedge $-1 $122 $250 $123 $190 reversed $71 $-1 #
coedge $-1 $124 $123 $251 $252 forward $45 $-1 #
edge $-1 $194 39.136922566425426 $253 50.523973891316373 $188 $254 forward 7 unknown #
coedge $-1 $255 $128 $124 $192 reversed $198 $-1 #
edge $-1 $256 -50.523973891316373 $193 -39.136922566425426 $191 $257 forward 7 unknown #
vertex $-1 $129 $258 #
vertex $-1 $190 $259 #
straight-curve $-1 0 -39.136922566425426 -12.987194855609919 1 0 0 I I #
straight-curve $-1 59.190038758507036 -39.136922566425426 0 0 0 1 I I #
coedge $-1 $128 $255 $130 $201 reversed $198 $-1 #
loop $-1 $-1 $128 $184 #
straight-curve $-1 -59.190038758507036 -39.136922566425426 0 0 0 -1 I I #
coedge $-1 $131 $130 $260 $261 forward $120 $-1 #
edge $-1 $132 -5.6935256624454738 $262 5.6935256624454738 $197 $263 forward 7 unknown #
edge $-1 $264 -5.6935256624454738 $133 5.6935256624454738 $187 $265 forward 7 unknown #
point $-1 -59.190038758507036 -39.136922566425426 -5.7887685264184707 #
point $-1 59.190038758507036 -39.136922566425426 -5.7887685264184707 #
plane-surface $-1 0 0 12.987194855609919 0 0 1 1 0 0 forward_v I I I I #
coedge $-1 $216 $215 $208 $266 forward $136 $-1 #
coedge $-1 $208 $138 $140 $212 reversed $79 $-1 #
coedge $-1 $138 $207 $206 $266 reversed $79 $-1 #
coedge $-1 $146 $141 $138 $210 forward $147 $-1 #
edge $-1 $213 24.220543594153991 $267 31.055913220953965 $209 $268 forward 7 unknown #
coedge $-1 $140 $139 $216 $269 reversed $49 $-1 #
edge $-1 $270 -118.38007751701409 $213 -108.87779542659356 $207 $271 forward 7 unknown #
vertex $-1 $142 $272 #
straight-curve $-1 52.354669131707055 7.4969357768288987 12.987194855609914 0 -1 0 I I #
coedge $-1 $206 $143 $146 $220 reversed $136 $-1 #
coedge $-1 $143 $206 $211 $269 forward $136 $-1 #
vertex $-1 $144 $273 #
straight-curve $-1 59.190038758507036 23.285674306049639 86.887784043289969 0 0 1 I I #
straight-curve $-1 -25.965461633737711 23.285674306049639 88.620067694335205 0.71933979245794832 0 -0.69465837861970381 I I #
edge $-1 $267 6.7020688012659555 $148 23.285674306049639 $215 $274 forward 7 unknown #
point $-1 59.190038758507036 23.285674306049639 12.987194855609919 #
point $-1 52.354669131707062 23.285674306049639 12.987194855609914 #
edge $-1 $275 1 $275 0 $151 $-1 forward 7 unknown #
vertex $-1 $152 $276 #
ellipse-curve $-1 54.696287476343372 11.440241802632727 8.5724754977905242 0.69465837861970381 0 0.71933979245794832 0.71933979245794832 0 -0.69465837861970381 1 I I #
point $-1 56.491693737564979 11.440241802632727 8.9921165419309297 #
edge $-1 $277 1 $277 0 $155 $-1 forward 7 unknown #
vertex $-1 $156 $278 #
ellipse-curve $-1 54.696287476343372 18.547501304682882 8.5724754977905242 0.69465837861970381 0 0.71933979245794832 0.71933979245794832 0 -0.69465837861970381 1 I I #
point $-1 56.491693737564979 18.547501304682882 8.9921165419309297 #
plane-surface $-1 59.190038758507036 0 0 -1 0 0 0 0 1 forward_v I I I I #
coedge $-1 $242 $162 $165 $235 reversed $101 $-1 #
edge $-1 $176 -12.987194855609919 $238 12.987194855609919 $175 $279 forward 7 unknown #
straight-curve $-1 59.190038758507036 -39.136922566425426 0 0 0 -1 I I #
edge $-1 $236 -39.136922566425426 $238 39.136922566425426 $232 $280 forward 7 unknown #
vertex $-1 $235 $281 #
straight-curve $-1 0 -39.136922566425426 -12.987194855609919 -1 0 0 I I #
vertex $-1 $168 $282 #
straight-curve $-1 0 39.136922566425426 -12.987194855609919 1 0 0 I I #
point $-1 59.190038758507036 39.136922566425426 -12.987194855609919 #
point $-1 59.190038758507036 -39.136922566425426 -12.987194855609919 #
coedge $-1 $172 $232 $178 $245 reversed $101 $-1 #
straight-curve $-1 -59.190038758507036 0 12.987194855609919 0 -1 0 I I #
point $-1 -59.190038758507036 39.136922566425426 12.987194855609919 #
edge $-1 $179 -12.987194855609919 $236 12.987194855609919 $242 $283 forward 7 unknown #
point $-1 -59.190038758507036 -39.136922566425426 12.987194855609919 #
straight-curve $-1 59.190038758507036 39.136922566425426 0 0 0 -1 I I #
plane-surface $-1 -59.190038758507036 0 0 1 0 0 0 0 -1 forward_v I I I I #
coedge $-1 $251 $260 $255 $284 forward $185 $-1 #
coedge $-1 $188 $187 $285 $286 forward $71 $-1 #
coedge $-1 $285 $249 $189 $252 reversed $185 $-1 #
edge $-1 $253 -59.190038758507036 $256 59.190038758507036 $251 $287 forward 7 unknown #
vertex $-1 $286 $288 #
straight-curve $-1 59.190038758507036 0 -12.987194855609919 0 -1 0 I I #
coedge $-1 $197 $191 $249 $284 reversed $198 $-1 #
vertex $-1 $192 $289 #
straight-curve $-1 -59.190038758507036 0 -12.987194855609919 0 1 0 I I #
point $-1 -59.190038758507036 -39.136922566425426 -12.987194855609919 #
point $-1 59.190038758507036 -39.136922566425426 -12.987194855609919 #
coedge $-1 $249 $285 $200 $261 reversed $185 $-1 #
edge $-1 $262 -59.190038758507036 $264 59.190038758507036 $260 $290 forward 7 unknown #
vertex $-1 $201 $291 #
straight-curve $-1 -59.190038758507036 -44.8304482288709 -5.7887685264184707 0 -1 0 I I #
vertex $-1 $202 $292 #
straight-curve $-1 59.190038758507036 -44.8304482288709 -5.7887685264184707 0 1 0 I I #
edge $-1 $267 73.900589187680055 $270 80.501429057798617 $206 $293 forward 7 unknown #
vertex $-1 $220 $294 #
straight-curve $-1 28.134125537553071 6.7020688012659555 12.987194855609914 1 0 0 I I #
edge $-1 $270 -0.79486697556294317 $217 15.788738529220741 $216 $295 forward 7 unknown #
vertex $-1 $269 $296 #
straight-curve $-1 -25.965461633737711 6.7020688012659555 88.620067694335205 -0.71933979245794832 0 0.69465837861970381 I I #
point $-1 52.354669131707062 6.7020688012659555 12.987194855609914 #
point $-1 59.190038758507036 23.285674306049639 6.3863549854913515 #
straight-curve $-1 59.190038758507036 0 12.987194855609919 0 1 0 I I #
vertex $-1 $223 $297 #
point $-1 55.415627268801316 11.440241802632727 7.8778171191708211 #
vertex $-1 $227 $298 #
point $-1 55.415627268801316 18.547501304682882 7.8778171191708211 #
straight-curve $-1 -59.190038758507036 39.136922566425426 0 0 0 -1 I I #
straight-curve $-1 -59.190038758507036 0 -12.987194855609919 0 1 0 I I #
point $-1 -59.190038758507036 -39.136922566425426 -12.987194855609919 #
point $-1 -59.190038758507036 39.136922566425426 -12.987194855609919 #
straight-curve $-1 -59.190038758507036 -39.136922566425426 0 0 0 -1 I I #
edge $-1 $262 -3.5992131645957244 $256 3.5992131645957244 $255 $299 forward 7 unknown #
coedge $-1 $260 $251 $250 $286 reversed $185 $-1 #
edge $-1 $264 -3.5992131645957244 $253 3.5992131645957244 $250 $300 forward 7 unknown #
straight-curve $-1 0 -50.523973891316373 -12.987194855609919 -1 0 0 I I #
point $-1 59.190038758507036 -50.523973891316373 -12.987194855609919 #
point $-1 -59.190038758507036 -50.523973891316373 -12.987194855609919 #
straight-curve $-1 0 -50.523973891316373 -5.7887685264184707 1 0 0 I I #
point $-1 -59.190038758507036 -50.523973891316373 -5.7887685264184707 #
point $-1 59.190038758507036 -50.523973891316373 -5.7887685264184707 #
straight-curve $-1 59.190038758507036 6.7020688012659555 86.887784043289969 0 0 -1 I I #
point $-1 59.190038758507036 6.7020688012659555 12.987194855609919 #
straight-curve $-1 59.190038758507043 7.4969357768288987 6.3863549854913444 0 1 0 I I #
point $-1 59.190038758507036 6.7020688012659555 6.3863549854913515 #
point $-1 54.001629097723665 11.440241802632727 7.8531357053325763 #
point $-1 54.001629097723665 18.547501304682882 7.8531357053325763 #
straight-curve $-1 -59.190038758507036 -50.523973891316373 -9.3879816910141951 0 0 -1 I I #
straight-curve $-1 59.190038758507036 -50.523973891316373 -9.3879816910141951 0 0 -1 I I #
End-of-ACIS-data 