500 0 14 0           
7 Unknown 11 ACIS 5.0 NT 24 Fri Mar 26 16:01:41 1999 
-1 9.9999999999999995e-007 1e-010 
body $-1 $14 $-1 $15 #
body $-1 $16 $-1 $17 #
body $-1 $18 $-1 $19 #
body $-1 $20 $-1 $21 #
body $-1 $22 $-1 $23 #
body $-1 $24 $-1 $25 #
body $-1 $26 $-1 $27 #
body $-1 $28 $-1 $29 #
body $-1 $30 $-1 $31 #
body $-1 $32 $-1 $33 #
body $-1 $34 $-1 $35 #
body $-1 $36 $-1 $37 #
body $-1 $38 $-1 $39 #
body $-1 $40 $-1 $41 #
lump $-1 $-1 $42 $0 #
transform $-1 1 0 0 0 1 0 0 0 1 66.96737571337016 30.225959139160985 13.712975352364859 1 rotate no_reflect no_shear #
lump $-1 $-1 $43 $1 #
transform $-1 1 0 0 0 1 0 0 0 1 66.96737571337016 30.225959139160985 13.712975352364859 1 rotate no_reflect no_shear #
lump $-1 $-1 $44 $2 #
transform $-1 1 0 0 0 1 0 0 0 1 66.96737571337016 30.225959139160985 13.712975352364859 1 rotate no_reflect no_shear #
lump $-1 $-1 $45 $3 #
transform $-1 1 0 0 0 1 0 0 0 1 66.96737571337016 30.225959139160985 13.712975352364859 1 rotate no_reflect no_shear #
lump $-1 $-1 $46 $4 #
transform $-1 1 0 0 0 1 0 0 0 1 66.96737571337016 30.225959139160985 13.712975352364859 1 rotate no_reflect no_shear #
lump $-1 $-1 $47 $5 #
transform $-1 1 0 0 0 1 0 0 0 1 66.96737571337016 30.225959139160985 13.712975352364859 1 rotate no_reflect no_shear #
lump $-1 $-1 $48 $6 #
transform $-1 1 0 0 0 1 0 0 0 1 66.96737571337016 30.225959139160985 13.712975352364859 1 rotate no_reflect no_shear #
lump $-1 $-1 $49 $7 #
transform $-1 1 0 0 0 1 0 0 0 1 66.96737571337016 30.225959139160985 13.712975352364859 1 rotate no_reflect no_shear #
lump $-1 $-1 $50 $8 #
transform $-1 1 0 0 0 1 0 0 0 1 66.96737571337016 30.225959139160985 13.712975352364859 1 rotate no_reflect no_shear #
lump $-1 $-1 $51 $9 #
transform $-1 1 0 0 0 1 0 0 0 1 66.96737571337016 30.225959139160985 13.712975352364859 1 rotate no_reflect no_shear #
lump $-1 $-1 $52 $10 #
transform $-1 1 0 0 0 1 0 0 0 1 66.96737571337016 30.225959139160985 13.712975352364859 1 rotate no_reflect no_shear #
lump $-1 $-1 $53 $11 #
transform $-1 1 0 0 0 1 0 0 0 1 66.96737571337016 30.225959139160985 13.712975352364859 1 rotate no_reflect no_shear #
lump $-1 $-1 $54 $12 #
transform $-1 1 0 0 0 1 0 0 0 1 66.96737571337016 30.225959139160985 13.712975352364859 1 rotate no_reflect no_shear #
lump $-1 $-1 $55 $13 #
transform $-1 1 0 0 0 1 0 0 0 1 66.96737571337016 30.225959139160985 13.712975352364859 1 rotate no_reflect no_shear #
shell $-1 $-1 $-1 $56 $-1 $14 #
shell $-1 $-1 $-1 $57 $-1 $16 #
shell $-1 $-1 $-1 $58 $-1 $18 #
shell $-1 $-1 $-1 $59 $-1 $20 #
shell $-1 $-1 $-1 $60 $-1 $22 #
shell $-1 $-1 $-1 $61 $-1 $24 #
shell $-1 $-1 $-1 $62 $-1 $26 #
shell $-1 $-1 $-1 $63 $-1 $28 #
shell $-1 $-1 $-1 $64 $-1 $30 #
shell $-1 $-1 $-1 $65 $-1 $32 #
shell $-1 $-1 $-1 $66 $-1 $34 #
shell $-1 $-1 $-1 $67 $-1 $36 #
shell $-1 $-1 $-1 $68 $-1 $38 #
shell $-1 $-1 $-1 $69 $-1 $40 #
face $-1 $70 $71 $42 $-1 $72 forward single #
face $-1 $73 $74 $43 $-1 $75 forward single #
face $-1 $76 $77 $44 $-1 $78 reversed single #
face $-1 $79 $80 $45 $-1 $81 forward single #
face $-1 $82 $83 $46 $-1 $84 reversed single #
face $-1 $85 $86 $47 $-1 $87 forward single #
face $-1 $88 $89 $48 $-1 $90 reversed single #
face $-1 $91 $92 $49 $-1 $93 forward single #
face $-1 $94 $95 $50 $-1 $96 reversed single #
face $-1 $97 $98 $51 $-1 $99 forward single #
face $-1 $100 $101 $52 $-1 $102 reversed single #
face $-1 $103 $104 $53 $-1 $105 forward single #
face $-1 $106 $107 $54 $-1 $108 reversed single #
face $-1 $109 $110 $55 $-1 $111 forward single #
face $-1 $112 $113 $42 $-1 $114 reversed single #
loop $-1 $-1 $115 $56 #
plane-surface $-1 0 0 13.712975352364859 0 0 1 1 0 0 forward_v I I I I #
face $-1 $116 $117 $43 $-1 $118 reversed single #
loop $-1 $-1 $119 $57 #
plane-surface $-1 0 -30.225959139160985 0 0 1 0 0 0 1 forward_v I I I I #
face $-1 $120 $121 $44 $-1 $122 reversed single #
loop $-1 $-1 $123 $58 #
plane-surface $-1 -151.25524690305915 -14.662469664161502 105.78336294503397 0 1 0 -0.62932039886446345 0 0.77714595512881146 forward_v I I I I #
face $-1 $124 $125 $45 $-1 $126 forward single #
loop $-1 $127 $128 $59 #
cone-surface $-1 -58.765225186772781 -11.4539078561507 6.7383099721546511 0.62932039886446345 0 -0.77714595512881146 0.77714595512881146 0 0.62932039886446345 1 I I 0 1 1 forward I I I I #
face $-1 $129 $130 $46 $-1 $131 reversed single #
loop $-1 $-1 $132 $60 #
plane-surface $-1 -151.25524690305915 -2.9463611828933081 105.78336294503397 0 1 0 -0.62932039886446345 0 0.77714595512881146 forward_v I I I I #
face $-1 $133 $134 $47 $-1 $135 forward single #
loop $-1 $136 $137 $61 #
cone-surface $-1 -58.765225186772781 0.26220062511749376 6.7383099721546511 0.62932039886446345 0 -0.77714595512881146 0.77714595512881146 0 0.62932039886446345 1 I I 0 1 1 forward I I I I #
face $-1 $138 $139 $48 $-1 $140 reversed single #
loop $-1 $-1 $141 $62 #
plane-surface $-1 -151.25524690305915 8.7697472983748845 105.78336294503397 0 1 0 -0.62932039886446345 0 0.77714595512881146 forward_v I I I I #
face $-1 $142 $143 $49 $-1 $144 forward single #
loop $-1 $145 $146 $63 #
cone-surface $-1 -58.765225186772781 11.978309106385687 6.7383099721546511 0.62932039886446345 0 -0.77714595512881146 0.77714595512881146 0 0.62932039886446345 1 I I 0 1 1 forward I I I I #
face $-1 $147 $148 $50 $-1 $149 reversed single #
loop $-1 $-1 $150 $64 #
plane-surface $-1 -151.25524690305915 20.485855779643078 105.78336294503397 0 1 0 -0.62932039886446345 0 0.77714595512881146 forward_v I I I I #
face $-1 $151 $152 $51 $-1 $153 forward single #
loop $-1 $154 $155 $65 #
cone-surface $-1 -58.765225186772781 23.694417587653881 6.7383099721546511 0.62932039886446345 0 -0.77714595512881146 0.77714595512881146 0 0.62932039886446345 1 I I 0 1 1 forward I I I I #
face $-1 $156 $157 $52 $-1 $158 reversed single #
loop $-1 $-1 $159 $66 #
plane-surface $-1 70.273079135319477 -11.855218969827767 191.72637447370059 0 -1 0 -0.71933980857756763 0 -0.69465836192734942 forward_v I I I I #
face $-1 $160 $161 $53 $-1 $162 forward single #
loop $-1 $163 $164 $67 #
cone-surface $-1 60.333398474192563 -14.920334188742785 6.9231888120297258 -0.71933980857756763 0 -0.69465836192734942 0.69465836192734942 0 -0.71933980857756763 1 I I 0 1 1 forward I I I I #
face $-1 $165 $166 $54 $-1 $167 reversed single #
loop $-1 $-1 $168 $68 #
plane-surface $-1 70.273079135319477 12.250485303581627 191.72637447370059 0 -1 0 -0.71933980857756763 0 -0.69465836192734942 forward_v I I I I #
face $-1 $169 $170 $55 $-1 $171 forward single #
loop $-1 $172 $173 $69 #
cone-surface $-1 60.333398474192563 9.1853700846666086 6.9231888120297258 -0.71933980857756763 0 -0.69465836192734942 0.69465836192734942 0 -0.71933980857756763 1 I I 0 1 1 forward I I I I #
face $-1 $174 $175 $42 $-1 $176 reversed single #
loop $-1 $-1 $177 $70 #
plane-surface $-1 0 0 -13.712975352364859 0 0 1 1 0 0 forward_v I I I I #
coedge $-1 $178 $179 $180 $181 forward $71 $-1 #
face $-1 $182 $183 $43 $-1 $184 reversed single #
loop $-1 $-1 $185 $73 #
plane-surface $-1 0 0 -13.712975352364859 0 0 1 1 0 0 forward_v I I I I #
coedge $-1 $186 $187 $188 $189 forward $74 $-1 #
face $-1 $190 $191 $44 $-1 $192 reversed single #
loop $-1 $-1 $193 $76 #
plane-surface $-1 -66.96737571337016 -11.4539078561507 1.6965126225599221 -0.62932039886446345 0 0.77714595512881146 0.77714595512881146 0 0.62932039886446345 forward_v I I I I #
coedge $-1 $194 $195 $196 $197 reversed $77 $-1 #
face $-1 $-1 $198 $45 $-1 $199 forward single #
loop $-1 $200 $201 $79 #
cone-surface $-1 -57.667962136517183 -11.4539078561507 5.3833029792825027 0.62932039886446345 0 -0.77714595512881146 0.38857297756440573 0 0.31466019943223172 1 I I -0.70710678118654746 0.70710678118654746 0.5 forward I I I I #
loop $-1 $-1 $202 $59 #
coedge $-1 $128 $128 $203 $204 reversed $80 $-1 #
face $-1 $205 $206 $46 $-1 $207 reversed single #
loop $-1 $-1 $208 $82 #
plane-surface $-1 -66.96737571337016 0.26220062511749376 1.6965126225599221 -0.62932039886446345 0 0.77714595512881146 0.77714595512881146 0 0.62932039886446345 forward_v I I I I #
coedge $-1 $209 $210 $211 $212 reversed $83 $-1 #
face $-1 $-1 $213 $47 $-1 $214 forward single #
loop $-1 $215 $216 $85 #
cone-surface $-1 -57.667962136517183 0.26220062511749376 5.3833029792825027 0.62932039886446345 0 -0.77714595512881146 0.38857297756440573 0 0.31466019943223172 1 I I -0.70710678118654746 0.70710678118654746 0.5 forward I I I I #
loop $-1 $-1 $217 $61 #
coedge $-1 $137 $137 $218 $219 reversed $86 $-1 #
face $-1 $220 $221 $48 $-1 $222 reversed single #
loop $-1 $-1 $223 $88 #
plane-surface $-1 -66.96737571337016 11.978309106385687 1.6965126225599221 -0.62932039886446345 0 0.77714595512881146 0.77714595512881146 0 0.62932039886446345 forward_v I I I I #
coedge $-1 $224 $225 $226 $227 reversed $89 $-1 #
face $-1 $-1 $228 $49 $-1 $229 forward single #
loop $-1 $230 $231 $91 #
cone-surface $-1 -57.667962136517183 11.978309106385687 5.3833029792825027 0.62932039886446345 0 -0.77714595512881146 0.38857297756440573 0 0.31466019943223172 1 I I -0.70710678118654746 0.70710678118654746 0.5 forward I I I I #
loop $-1 $-1 $232 $63 #
coedge $-1 $146 $146 $233 $234 reversed $92 $-1 #
face $-1 $235 $236 $50 $-1 $237 reversed single #
loop $-1 $-1 $238 $94 #
plane-surface $-1 -66.96737571337016 23.694417587653881 1.6965126225599221 -0.62932039886446345 0 0.77714595512881146 0.77714595512881146 0 0.62932039886446345 forward_v I I I I #
coedge $-1 $239 $240 $241 $242 reversed $95 $-1 #
face $-1 $-1 $243 $51 $-1 $244 forward single #
loop $-1 $245 $246 $97 #
cone-surface $-1 -57.667962136517183 23.694417587653881 5.3833029792825027 0.62932039886446345 0 -0.77714595512881146 0.38857297756440573 0 0.31466019943223172 1 I I -0.70710678118654746 0.70710678118654746 0.5 forward I I I I #
loop $-1 $-1 $247 $65 #
coedge $-1 $155 $155 $248 $249 reversed $98 $-1 #
face $-1 $250 $251 $52 $-1 $252 reversed single #
loop $-1 $-1 $253 $100 #
plane-surface $-1 -26.07151931787601 -14.920334188742785 98.687479442454432 0.71933980857756763 0 0.69465836192734942 0.69465836192734942 0 -0.71933980857756763 forward_v I I I I #
coedge $-1 $254 $255 $256 $257 reversed $101 $-1 #
face $-1 $-1 $258 $53 $-1 $259 forward single #
loop $-1 $260 $261 $103 #
cone-surface $-1 58.829737447894402 -14.920334188742785 5.4711202722838888 -0.71933980857756763 0 -0.69465836192734942 0.34732918096367471 0 -0.35966990428878381 1 I I -0.70710678118654746 0.70710678118654746 0.5 forward I I I I #
loop $-1 $-1 $262 $67 #
coedge $-1 $164 $164 $263 $264 reversed $104 $-1 #
face $-1 $265 $266 $54 $-1 $267 reversed single #
loop $-1 $-1 $268 $106 #
plane-surface $-1 -26.07151931787601 9.1853700846666086 98.687479442454432 0.71933980857756763 0 0.69465836192734942 0.69465836192734942 0 -0.71933980857756763 forward_v I I I I #
coedge $-1 $269 $270 $271 $272 reversed $107 $-1 #
face $-1 $-1 $273 $55 $-1 $274 forward single #
loop $-1 $275 $276 $109 #
cone-surface $-1 58.829737447894402 9.1853700846666086 5.4711202722838888 -0.71933980857756763 0 -0.69465836192734942 0.34732918096367471 0 -0.35966990428878381 1 I I -0.70710678118654746 0.70710678118654746 0.5 forward I I I I #
loop $-1 $-1 $277 $69 #
coedge $-1 $173 $173 $278 $279 reversed $110 $-1 #
face $-1 $280 $281 $42 $-1 $282 reversed single #
loop $-1 $-1 $283 $112 #
plane-surface $-1 0 -30.225959139160985 0 0 1 0 0 0 1 forward_v I I I I #
coedge $-1 $284 $285 $286 $287 forward $113 $-1 #
coedge $-1 $288 $115 $289 $290 forward $71 $-1 #
coedge $-1 $115 $288 $291 $292 forward $71 $-1 #
coedge $-1 $293 $294 $115 $181 reversed $295 $-1 #
edge $-1 $296 -30.225959139160985 $297 30.225959139160985 $180 $298 forward 7 unknown #
face $-1 $299 $300 $43 $-1 $301 reversed single #
loop $-1 $-1 $302 $116 #
plane-surface $-1 -43.491698674640404 -42.466468870664166 0 0 1 0 0 0 1 forward_v I I I I #
coedge $-1 $303 $304 $187 $305 forward $117 $-1 #
coedge $-1 $306 $119 $307 $308 reversed $74 $-1 #
coedge $-1 $119 $306 $185 $305 reversed $74 $-1 #
coedge $-1 $309 $310 $119 $189 reversed $300 $-1 #
edge $-1 $311 -13.712975352364859 $312 13.712975352364859 $188 $313 forward 7 unknown #
face $-1 $314 $315 $44 $-1 $316 reversed single #
loop $-1 $-1 $317 $120 #
plane-surface $-1 -151.25524690305915 -8.245346048139897 105.78336294503397 0 -1 0 0.62932039886446345 0 -0.77714595512881146 forward_v I I I I #
coedge $-1 $318 $319 $320 $321 reversed $121 $-1 #
coedge $-1 $195 $123 $322 $323 reversed $77 $-1 #
coedge $-1 $123 $194 $318 $324 reversed $77 $-1 #
coedge $-1 $320 $325 $123 $197 forward $326 $-1 #
edge $-1 $327 8.6602477381594127 $328 23.499343089707459 $196 $329 forward 7 unknown #
loop $-1 $-1 $203 $124 #
plane-surface $-1 -66.96737571337016 -11.4539078561507 1.6965126225599221 -0.62932039886446345 0 0.77714595512881146 0.77714595512881146 0 0.62932039886446345 forward_v I I I I #
loop $-1 $-1 $330 $79 #
coedge $-1 $201 $201 $202 $331 reversed $125 $-1 #
coedge $-1 $202 $202 $201 $331 forward $127 $-1 #
coedge $-1 $203 $203 $128 $204 forward $198 $-1 #
edge $-1 $332 0 $332 6.2831853071796004 $203 $333 forward 7 unknown #
face $-1 $334 $335 $46 $-1 $336 forward single #
loop $-1 $-1 $337 $129 #
plane-surface $-1 -151.25524690305915 3.4707624331282956 105.78336294503397 0 -1 0 0.62932039886446345 0 -0.77714595512881146 forward_v I I I I #
coedge $-1 $338 $339 $340 $341 reversed $130 $-1 #
coedge $-1 $210 $132 $342 $343 reversed $83 $-1 #
coedge $-1 $132 $209 $338 $344 reversed $83 $-1 #
coedge $-1 $340 $345 $132 $212 forward $335 $-1 #
edge $-1 $346 8.6602477381594127 $347 23.499343089707459 $211 $348 forward 7 unknown #
loop $-1 $-1 $218 $133 #
plane-surface $-1 -66.96737571337016 0.26220062511749376 1.6965126225599221 -0.62932039886446345 0 0.77714595512881146 0.77714595512881146 0 0.62932039886446345 forward_v I I I I #
loop $-1 $-1 $349 $85 #
coedge $-1 $216 $216 $217 $350 reversed $134 $-1 #
coedge $-1 $217 $217 $216 $350 forward $136 $-1 #
coedge $-1 $218 $218 $137 $219 forward $213 $-1 #
edge $-1 $351 0 $351 6.2831853071796004 $218 $352 forward 7 unknown #
face $-1 $353 $354 $48 $-1 $355 forward single #
loop $-1 $-1 $356 $138 #
plane-surface $-1 -151.25524690305915 15.18687091439649 105.78336294503397 0 -1 0 0.62932039886446345 0 -0.77714595512881146 forward_v I I I I #
coedge $-1 $357 $358 $359 $360 reversed $139 $-1 #
coedge $-1 $225 $141 $361 $362 reversed $89 $-1 #
coedge $-1 $141 $224 $357 $363 reversed $89 $-1 #
coedge $-1 $359 $364 $141 $227 forward $354 $-1 #
edge $-1 $365 8.6602477381594127 $366 23.499343089707459 $226 $367 forward 7 unknown #
loop $-1 $-1 $233 $142 #
plane-surface $-1 -66.96737571337016 11.978309106385687 1.6965126225599221 -0.62932039886446345 0 0.77714595512881146 0.77714595512881146 0 0.62932039886446345 forward_v I I I I #
loop $-1 $-1 $368 $91 #
coedge $-1 $231 $231 $232 $369 reversed $143 $-1 #
coedge $-1 $232 $232 $231 $369 forward $145 $-1 #
coedge $-1 $233 $233 $146 $234 forward $228 $-1 #
edge $-1 $370 0 $370 6.2831853071796004 $233 $371 forward 7 unknown #
face $-1 $372 $373 $50 $-1 $374 forward single #
loop $-1 $-1 $375 $147 #
plane-surface $-1 -151.25524690305915 26.902979395664683 105.78336294503397 0 -1 0 0.62932039886446345 0 -0.77714595512881146 forward_v I I I I #
coedge $-1 $376 $377 $378 $379 reversed $148 $-1 #
coedge $-1 $240 $150 $380 $381 reversed $95 $-1 #
coedge $-1 $150 $239 $376 $382 reversed $95 $-1 #
coedge $-1 $378 $383 $150 $242 forward $373 $-1 #
edge $-1 $384 8.6602477381594127 $385 23.499343089707459 $241 $386 forward 7 unknown #
loop $-1 $-1 $248 $151 #
plane-surface $-1 -66.96737571337016 23.694417587653881 1.6965126225599221 -0.62932039886446345 0 0.77714595512881146 0.77714595512881146 0 0.62932039886446345 forward_v I I I I #
loop $-1 $-1 $387 $97 #
coedge $-1 $246 $246 $247 $388 reversed $152 $-1 #
coedge $-1 $247 $247 $246 $388 forward $154 $-1 #
coedge $-1 $248 $248 $155 $249 forward $243 $-1 #
edge $-1 $389 0 $389 6.2831853071796004 $248 $390 forward 7 unknown #
face $-1 $391 $392 $52 $-1 $393 forward single #
loop $-1 $-1 $394 $156 #
plane-surface $-1 70.273079135319477 -17.985449407657804 191.72637447370059 0 1 0 0.71933980857756763 0 0.69465836192734942 forward_v I I I I #
coedge $-1 $395 $396 $397 $398 reversed $157 $-1 #
coedge $-1 $255 $159 $399 $400 reversed $101 $-1 #
coedge $-1 $159 $254 $395 $401 reversed $101 $-1 #
coedge $-1 $397 $402 $159 $257 forward $392 $-1 #
edge $-1 $403 -31.830836145710421 $404 -20.85086391137402 $256 $405 forward 7 unknown #
loop $-1 $-1 $263 $160 #
plane-surface $-1 -26.07151931787601 -14.920334188742785 98.687479442454432 0.71933980857756763 0 0.69465836192734942 0.69465836192734942 0 -0.71933980857756763 forward_v I I I I #
loop $-1 $-1 $406 $103 #
coedge $-1 $261 $261 $262 $407 reversed $161 $-1 #
coedge $-1 $262 $262 $261 $407 forward $163 $-1 #
coedge $-1 $263 $263 $164 $264 forward $258 $-1 #
edge $-1 $408 0 $408 6.2831853071796004 $263 $409 forward 7 unknown #
face $-1 $410 $411 $54 $-1 $412 reversed single #
loop $-1 $-1 $413 $165 #
plane-surface $-1 70.273079135319477 6.1202548657515905 191.72637447370059 0 1 0 0.71933980857756763 0 0.69465836192734942 forward_v I I I I #
coedge $-1 $414 $415 $416 $417 reversed $166 $-1 #
coedge $-1 $270 $168 $418 $419 reversed $107 $-1 #
coedge $-1 $168 $269 $414 $420 reversed $107 $-1 #
coedge $-1 $416 $421 $168 $272 forward $422 $-1 #
edge $-1 $423 -31.830836145710421 $424 -20.85086391137402 $271 $425 forward 7 unknown #
loop $-1 $-1 $278 $169 #
plane-surface $-1 -26.07151931787601 9.1853700846666086 98.687479442454432 0.71933980857756763 0 0.69465836192734942 0.69465836192734942 0 -0.71933980857756763 forward_v I I I I #
loop $-1 $-1 $426 $109 #
coedge $-1 $276 $276 $277 $427 reversed $170 $-1 #
coedge $-1 $277 $277 $276 $427 forward $172 $-1 #
coedge $-1 $278 $278 $173 $279 forward $273 $-1 #
edge $-1 $428 0 $428 6.2831853071796004 $278 $429 forward 7 unknown #
face $-1 $430 $431 $42 $-1 $432 reversed single #
loop $-1 $-1 $433 $174 #
plane-surface $-1 -66.96737571337016 0 0 1 0 0 0 0 -1 forward_v I I I I #
coedge $-1 $434 $291 $435 $436 forward $175 $-1 #
coedge $-1 $437 $177 $434 $438 forward $113 $-1 #
coedge $-1 $177 $437 $439 $440 forward $113 $-1 #
coedge $-1 $294 $293 $177 $287 reversed $295 $-1 #
edge $-1 $441 -30.225959139160985 $442 30.225959139160985 $286 $443 forward 7 unknown #
coedge $-1 $179 $178 $444 $445 forward $71 $-1 #
coedge $-1 $446 $447 $178 $290 reversed $431 $-1 #
edge $-1 $297 -66.96737571337016 $448 66.96737571337016 $289 $449 forward 7 unknown #
coedge $-1 $283 $450 $179 $292 reversed $175 $-1 #
edge $-1 $451 -66.96737571337016 $296 66.96737571337016 $291 $452 forward 7 unknown #
coedge $-1 $286 $180 $450 $453 forward $295 $-1 #
coedge $-1 $180 $286 $446 $454 reversed $295 $-1 #
loop $-1 $-1 $293 $430 #
vertex $-1 $181 $455 #
vertex $-1 $181 $456 #
straight-curve $-1 66.96737571337016 0 13.712975352364859 0 1 0 I I #
face $-1 $457 $458 $43 $-1 $459 reversed single #
loop $-1 $-1 $188 $182 #
plane-surface $-1 -46.742059271253218 -36.346214004912575 0 1 0 0 0 0 -1 forward_v I I I I #
coedge $-1 $460 $461 $462 $463 forward $183 $-1 #
coedge $-1 $464 $185 $465 $466 forward $117 $-1 #
coedge $-1 $185 $464 $309 $467 forward $117 $-1 #
edge $-1 $311 -46.742059271253218 $468 -40.241338078027589 $185 $469 forward 7 unknown #
coedge $-1 $187 $186 $470 $471 forward $74 $-1 #
coedge $-1 $472 $473 $186 $308 forward $474 $-1 #
edge $-1 $475 40.241338078027589 $312 46.742059271253218 $307 $476 forward 7 unknown #
coedge $-1 $462 $188 $304 $467 reversed $300 $-1 #
coedge $-1 $188 $462 $472 $477 reversed $300 $-1 #
vertex $-1 $305 $478 #
vertex $-1 $477 $479 #
straight-curve $-1 -46.742059271253218 -30.225959139160985 0 0 0 1 I I #
face $-1 $-1 $326 $44 $-1 $480 forward single #
loop $-1 $-1 $481 $190 #
plane-surface $-1 -66.96737571337016 0 0 1 0 0 0 0 -1 forward_v I I I I #
coedge $-1 $482 $483 $484 $485 reversed $191 $-1 #
coedge $-1 $486 $193 $195 $324 forward $121 $-1 #
coedge $-1 $193 $486 $482 $487 forward $121 $-1 #
coedge $-1 $484 $196 $193 $321 forward $326 $-1 #
edge $-1 $328 -8.9355157360861526 $488 -2.5183921200645472 $320 $489 forward 7 unknown #
coedge $-1 $490 $491 $194 $323 forward $315 $-1 #
edge $-1 $492 -51.195168849957064 $327 -39.178706120152128 $322 $493 forward 7 unknown #
edge $-1 $328 -19.094348048287117 $492 0 $195 $494 forward 7 unknown #
coedge $-1 $196 $484 $490 $495 forward $326 $-1 #
loop $-1 $-1 $484 $314 #
vertex $-1 $323 $496 #
vertex $-1 $197 $497 #
straight-curve $-1 -75.627623451529573 -14.662469664161502 13.712975352364857 1 0 0 I I #
coedge $-1 $330 $330 $-1 $498 reversed $200 $-1 #
edge $-1 $499 0 $499 6.2831853071796004 $201 $500 forward 7 unknown #
vertex $-1 $204 $501 #
ellipse-curve $-1 -59.54782803759614 -11.4539078561507 7.704743987462388 -0.62932039886446345 0 0.77714595512881146 0.77714595512881146 0 0.62932039886446345 1 I I #
face $-1 $-1 $502 $46 $-1 $503 reversed single #
loop $-1 $-1 $211 $205 #
plane-surface $-1 0 0 13.712975352364859 0 0 1 1 0 0 forward_v I I I I #
coedge $-1 $504 $505 $506 $507 reversed $206 $-1 #
coedge $-1 $508 $208 $210 $344 forward $130 $-1 #
coedge $-1 $208 $508 $504 $509 forward $130 $-1 #
coedge $-1 $506 $211 $208 $341 forward $335 $-1 #
edge $-1 $347 -3.0774614954520549 $510 3.3396621205695487 $340 $511 forward 7 unknown #
coedge $-1 $512 $513 $209 $343 forward $502 $-1 #
edge $-1 $514 -51.195168849957064 $346 -39.178706120152128 $342 $515 forward 7 unknown #
edge $-1 $347 -19.094348048287117 $514 0 $210 $516 forward 7 unknown #
coedge $-1 $211 $506 $512 $517 forward $335 $-1 #
vertex $-1 $212 $518 #
vertex $-1 $212 $519 #
straight-curve $-1 -75.627623451529573 -2.9463611828933081 13.712975352364857 1 0 0 I I #
coedge $-1 $349 $349 $-1 $520 reversed $215 $-1 #
edge $-1 $521 0 $521 6.2831853071796004 $216 $522 forward 7 unknown #
vertex $-1 $219 $523 #
ellipse-curve $-1 -59.54782803759614 0.26220062511749376 7.704743987462388 -0.62932039886446345 0 0.77714595512881146 0.77714595512881146 0 0.62932039886446345 1 I I #
face $-1 $-1 $524 $48 $-1 $525 reversed single #
loop $-1 $-1 $226 $220 #
plane-surface $-1 0 0 13.712975352364859 0 0 1 1 0 0 forward_v I I I I #
coedge $-1 $526 $527 $528 $529 reversed $221 $-1 #
coedge $-1 $530 $223 $225 $363 forward $139 $-1 #
coedge $-1 $223 $530 $526 $531 forward $139 $-1 #
coedge $-1 $528 $226 $223 $360 forward $354 $-1 #
edge $-1 $366 2.7805927451820409 $532 9.1977163612036463 $359 $533 forward 7 unknown #
coedge $-1 $534 $535 $224 $362 forward $524 $-1 #
edge $-1 $536 -51.195168849957064 $365 -39.178706120152128 $361 $537 forward 7 unknown #
edge $-1 $366 -19.094348048287117 $536 0 $225 $538 forward 7 unknown #
coedge $-1 $226 $528 $534 $539 forward $354 $-1 #
vertex $-1 $227 $540 #
vertex $-1 $227 $541 #
straight-curve $-1 -75.627623451529573 8.7697472983748845 13.712975352364857 1 0 0 I I #
coedge $-1 $368 $368 $-1 $542 reversed $230 $-1 #
edge $-1 $543 0 $543 6.2831853071796004 $231 $544 forward 7 unknown #
vertex $-1 $234 $545 #
ellipse-curve $-1 -59.54782803759614 11.978309106385687 7.704743987462388 -0.62932039886446345 0 0.77714595512881146 0.77714595512881146 0 0.62932039886446345 1 I I #
face $-1 $-1 $546 $50 $-1 $547 reversed single #
loop $-1 $-1 $241 $235 #
plane-surface $-1 0 0 13.712975352364859 0 0 1 1 0 0 forward_v I I I I #
coedge $-1 $548 $549 $550 $551 reversed $236 $-1 #
coedge $-1 $552 $238 $240 $382 forward $148 $-1 #
coedge $-1 $238 $552 $548 $553 forward $148 $-1 #
coedge $-1 $550 $241 $238 $379 forward $373 $-1 #
edge $-1 $385 8.6386469858161377 $554 15.055770601837743 $378 $555 forward 7 unknown #
coedge $-1 $556 $557 $239 $381 forward $546 $-1 #
edge $-1 $558 -51.195168849957064 $384 -39.178706120152128 $380 $559 forward 7 unknown #
edge $-1 $385 -19.094348048287117 $558 0 $240 $560 forward 7 unknown #
coedge $-1 $241 $550 $556 $561 forward $373 $-1 #
vertex $-1 $242 $562 #
vertex $-1 $242 $563 #
straight-curve $-1 -75.627623451529573 20.485855779643078 13.712975352364857 1 0 0 I I #
coedge $-1 $387 $387 $-1 $564 reversed $245 $-1 #
edge $-1 $565 0 $565 6.2831853071796004 $246 $566 forward 7 unknown #
vertex $-1 $249 $567 #
ellipse-curve $-1 -59.54782803759614 23.694417587653881 7.704743987462388 -0.62932039886446345 0 0.77714595512881146 0.77714595512881146 0 0.62932039886446345 1 I I #
face $-1 $-1 $568 $52 $-1 $569 reversed single #
loop $-1 $-1 $256 $250 #
plane-surface $-1 0 0 13.712975352364859 0 0 1 1 0 0 forward_v I I I I #
coedge $-1 $570 $571 $572 $573 reversed $251 $-1 #
coedge $-1 $574 $253 $255 $401 forward $157 $-1 #
coedge $-1 $253 $574 $570 $575 forward $157 $-1 #
coedge $-1 $572 $256 $253 $398 forward $392 $-1 #
edge $-1 $404 4.3950518754563745 $576 10.525282313286411 $397 $577 forward 7 unknown #
coedge $-1 $578 $579 $254 $400 forward $568 $-1 #
edge $-1 $580 -93.520306247591364 $403 -82.150211884485429 $399 $581 forward 7 unknown #
edge $-1 $404 118.12846039776294 $580 133.93475142674035 $255 $582 forward 7 unknown #
coedge $-1 $256 $572 $578 $583 forward $392 $-1 #
vertex $-1 $257 $584 #
vertex $-1 $257 $585 #
straight-curve $-1 35.136539567659739 -11.855218969827767 13.712975352364865 -1 0 0 I I #
coedge $-1 $406 $406 $-1 $586 reversed $260 $-1 #
edge $-1 $587 0 $587 6.2831853071796004 $261 $588 forward 7 unknown #
vertex $-1 $264 $589 #
ellipse-curve $-1 61.477389596201959 -14.920334188742785 8.0279281708119026 0.71933980857756763 0 0.69465836192734942 0.69465836192734942 0 -0.71933980857756763 1 I I #
face $-1 $-1 $422 $54 $-1 $590 forward single #
loop $-1 $-1 $591 $265 #
plane-surface $-1 66.96737571337016 0 0 -1 0 0 0 0 1 forward_v I I I I #
coedge $-1 $592 $593 $594 $595 reversed $266 $-1 #
coedge $-1 $596 $268 $270 $420 forward $166 $-1 #
coedge $-1 $268 $596 $592 $597 forward $166 $-1 #
coedge $-1 $594 $271 $268 $417 forward $422 $-1 #
edge $-1 $424 -7.6578002612483225 $598 -1.5275698234182862 $416 $599 forward 7 unknown #
coedge $-1 $600 $601 $269 $419 forward $411 $-1 #
edge $-1 $602 -93.520306247591364 $423 -82.150211884485429 $418 $603 forward 7 unknown #
edge $-1 $424 118.12846039776294 $602 133.93475142674035 $270 $604 forward 7 unknown #
coedge $-1 $271 $594 $600 $605 forward $422 $-1 #
loop $-1 $-1 $594 $410 #
vertex $-1 $419 $606 #
vertex $-1 $272 $607 #
straight-curve $-1 35.136539567659739 12.250485303581627 13.712975352364865 -1 0 0 I I #
coedge $-1 $426 $426 $-1 $608 reversed $275 $-1 #
edge $-1 $609 0 $609 6.2831853071796004 $276 $610 forward 7 unknown #
vertex $-1 $279 $611 #
ellipse-curve $-1 61.477389596201959 9.1853700846666086 8.0279281708119026 0.71933980857756763 0 0.69465836192734942 0.69465836192734942 0 -0.71933980857756763 1 I I #
face $-1 $-1 $295 $42 $-1 $612 reversed single #
loop $-1 $-1 $446 $280 #
plane-surface $-1 0 30.225959139160985 0 0 -1 0 0 0 -1 forward_v I I I I #
coedge $-1 $613 $444 $447 $614 forward $281 $-1 #
coedge $-1 $450 $283 $284 $438 reversed $175 $-1 #
coedge $-1 $444 $613 $283 $436 reversed $281 $-1 #
edge $-1 $451 -13.712975352364859 $615 13.712975352364859 $435 $616 forward 7 unknown #
coedge $-1 $285 $284 $613 $617 forward $113 $-1 #
edge $-1 $442 -66.96737571337016 $615 66.96737571337016 $434 $618 forward 7 unknown #
coedge $-1 $447 $446 $285 $440 reversed $431 $-1 #
edge $-1 $619 -66.96737571337016 $441 66.96737571337016 $439 $620 forward 7 unknown #
vertex $-1 $287 $621 #
vertex $-1 $453 $622 #
straight-curve $-1 66.96737571337016 0 -13.712975352364859 0 -1 0 I I #
coedge $-1 $433 $435 $288 $445 reversed $281 $-1 #
edge $-1 $448 -30.225959139160985 $451 30.225959139160985 $444 $623 forward 7 unknown #
coedge $-1 $439 $289 $294 $454 forward $431 $-1 #
coedge $-1 $289 $439 $433 $614 reversed $431 $-1 #
vertex $-1 $290 $624 #
straight-curve $-1 0 30.225959139160985 13.712975352364859 -1 0 0 I I #
coedge $-1 $291 $434 $293 $453 reversed $175 $-1 #
vertex $-1 $445 $625 #
straight-curve $-1 0 -30.225959139160985 13.712975352364859 1 0 0 I I #
edge $-1 $296 -13.712975352364859 $442 13.712975352364859 $293 $626 forward 7 unknown #
edge $-1 $297 -13.712975352364859 $441 13.712975352364859 $294 $627 forward 7 unknown #
point $-1 66.96737571337016 -30.225959139160985 13.712975352364859 #
point $-1 66.96737571337016 30.225959139160985 13.712975352364859 #
face $-1 $-1 $474 $43 $-1 $628 forward single #
loop $-1 $-1 $629 $299 #
plane-surface $-1 -40.241338078027589 -36.346214004912575 0 -1 0 0 0 0 1 forward_v I I I I #
coedge $-1 $630 $302 $464 $631 reversed $183 $-1 #
coedge $-1 $302 $630 $632 $633 reversed $183 $-1 #
coedge $-1 $310 $309 $302 $463 reversed $300 $-1 #
edge $-1 $634 -13.712975352364859 $635 13.712975352364859 $462 $636 forward 7 unknown #
coedge $-1 $304 $303 $460 $631 forward $117 $-1 #
coedge $-1 $470 $629 $303 $466 reversed $458 $-1 #
edge $-1 $468 -6.1202548657515905 $637 6.1202548657515905 $465 $638 forward 7 unknown #
edge $-1 $635 -6.1202548657515905 $311 6.1202548657515905 $309 $639 forward 7 unknown #
vertex $-1 $466 $640 #
straight-curve $-1 0 -30.225959139160985 -13.712975352364859 1 0 0 I I #
coedge $-1 $641 $465 $306 $471 reversed $458 $-1 #
edge $-1 $475 -13.712975352364859 $468 13.712975352364859 $470 $642 forward 7 unknown #
coedge $-1 $632 $307 $310 $477 forward $474 $-1 #
coedge $-1 $307 $632 $641 $643 forward $474 $-1 #
loop $-1 $-1 $307 $457 #
vertex $-1 $308 $644 #
straight-curve $-1 0 -30.225959139160985 13.712975352364859 -1 0 0 I I #
edge $-1 $312 -6.1202548657515905 $634 6.1202548657515905 $310 $645 forward 7 unknown #
point $-1 -46.742059271253218 -30.225959139160985 -13.712975352364859 #
point $-1 -46.742059271253218 -30.225959139160985 13.712975352364859 #
plane-surface $-1 0 0 13.712975352364859 0 0 1 1 0 0 forward_v I I I I #
coedge $-1 $491 $490 $483 $646 forward $315 $-1 #
coedge $-1 $483 $317 $319 $487 reversed $191 $-1 #
coedge $-1 $317 $482 $481 $646 reversed $191 $-1 #
coedge $-1 $325 $320 $317 $485 forward $326 $-1 #
edge $-1 $488 -23.499343089707459 $647 -8.6602477381594127 $484 $648 forward 7 unknown #
coedge $-1 $319 $318 $491 $649 reversed $121 $-1 #
edge $-1 $650 0 $488 19.094348048287117 $482 $651 forward 7 unknown #
vertex $-1 $321 $652 #
straight-curve $-1 -52.128280361822114 -5.7269539280753499 13.712975352364857 0 1 0 I I #
coedge $-1 $481 $322 $325 $495 reversed $315 $-1 #
coedge $-1 $322 $481 $486 $649 forward $315 $-1 #
vertex $-1 $323 $653 #
straight-curve $-1 -66.96737571337016 -14.662469664161502 52.891681472516986 0 0 1 I I #
straight-curve $-1 -66.96737571337016 -14.662469664161502 1.6965126225599221 -0.77714595512881146 0 -0.62932039886446345 I I #
edge $-1 $647 8.245346048139897 $327 14.662469664161502 $490 $654 forward 7 unknown #
point $-1 -66.96737571337016 -14.662469664161502 13.712975352364859 #
point $-1 -52.128280361822114 -14.662469664161502 13.712975352364859 #
edge $-1 $655 1 $655 0 $330 $-1 forward 7 unknown #
vertex $-1 $331 $656 #
ellipse-curve $-1 -57.982622335949415 -11.4539078561507 5.771875956846908 -0.62932039886446345 0 0.77714595512881146 0.77714595512881146 0 0.62932039886446345 1 I I #
point $-1 -58.770682082467331 -11.4539078561507 8.3340643863268582 #
loop $-1 $-1 $342 $334 #
plane-surface $-1 -66.96737571337016 0 0 1 0 0 0 0 -1 forward_v I I I I #
coedge $-1 $505 $337 $339 $509 reversed $206 $-1 #
coedge $-1 $337 $504 $657 $658 reversed $206 $-1 #
coedge $-1 $345 $340 $337 $507 forward $335 $-1 #
edge $-1 $510 -23.499343089707459 $659 -8.6602477381594127 $506 $660 forward 7 unknown #
coedge $-1 $339 $338 $513 $661 reversed $130 $-1 #
edge $-1 $662 0 $510 19.094348048287117 $504 $663 forward 7 unknown #
vertex $-1 $341 $664 #
straight-curve $-1 -52.128280361822114 0.13110031255874688 13.712975352364857 0 1 0 I I #
coedge $-1 $657 $342 $345 $517 reversed $502 $-1 #
coedge $-1 $342 $657 $508 $661 forward $502 $-1 #
vertex $-1 $343 $665 #
straight-curve $-1 -66.96737571337016 -2.9463611828933081 52.891681472516986 0 0 1 I I #
straight-curve $-1 -66.96737571337016 -2.9463611828933081 1.6965126225599221 -0.77714595512881146 0 -0.62932039886446345 I I #
edge $-1 $659 -3.4707624331282956 $346 2.9463611828933081 $512 $666 forward 7 unknown #
point $-1 -66.96737571337016 -2.9463611828933081 13.712975352364859 #
point $-1 -52.128280361822114 -2.9463611828933081 13.712975352364859 #
edge $-1 $667 1 $667 0 $349 $-1 forward 7 unknown #
vertex $-1 $350 $668 #
ellipse-curve $-1 -57.982622335949415 0.26220062511749376 5.771875956846908 -0.62932039886446345 0 0.77714595512881146 0.77714595512881146 0 0.62932039886446345 1 I I #
point $-1 -58.770682082467331 0.26220062511749376 8.3340643863268582 #
loop $-1 $-1 $361 $353 #
plane-surface $-1 -66.96737571337016 0 0 1 0 0 0 0 -1 forward_v I I I I #
coedge $-1 $527 $356 $358 $531 reversed $221 $-1 #
coedge $-1 $356 $526 $669 $670 reversed $221 $-1 #
coedge $-1 $364 $359 $356 $529 forward $354 $-1 #
edge $-1 $532 -23.499343089707459 $671 -8.6602477381594127 $528 $672 forward 7 unknown #
coedge $-1 $358 $357 $535 $673 reversed $139 $-1 #
edge $-1 $674 0 $532 19.094348048287117 $526 $675 forward 7 unknown #
vertex $-1 $360 $676 #
straight-curve $-1 -52.128280361822114 5.9891545531928436 13.712975352364857 0 1 0 I I #
coedge $-1 $669 $361 $364 $539 reversed $524 $-1 #
coedge $-1 $361 $669 $530 $673 forward $524 $-1 #
vertex $-1 $362 $677 #
straight-curve $-1 -66.96737571337016 8.7697472983748845 52.891681472516986 0 0 1 I I #
straight-curve $-1 -66.96737571337016 8.7697472983748845 1.6965126225599221 -0.77714595512881146 0 -0.62932039886446345 I I #
edge $-1 $671 -15.18687091439649 $365 -8.7697472983748845 $534 $678 forward 7 unknown #
point $-1 -66.96737571337016 8.7697472983748845 13.712975352364859 #
point $-1 -52.128280361822114 8.7697472983748845 13.712975352364859 #
edge $-1 $679 1 $679 0 $368 $-1 forward 7 unknown #
vertex $-1 $369 $680 #
ellipse-curve $-1 -57.982622335949415 11.978309106385687 5.771875956846908 -0.62932039886446345 0 0.77714595512881146 0.77714595512881146 0 0.62932039886446345 1 I I #
point $-1 -58.770682082467331 11.978309106385687 8.3340643863268582 #
loop $-1 $-1 $380 $372 #
plane-surface $-1 -66.96737571337016 0 0 1 0 0 0 0 -1 forward_v I I I I #
coedge $-1 $549 $375 $377 $553 reversed $236 $-1 #
coedge $-1 $375 $548 $681 $682 reversed $236 $-1 #
coedge $-1 $383 $378 $375 $551 forward $373 $-1 #
edge $-1 $554 -23.499343089707459 $683 -8.6602477381594127 $550 $684 forward 7 unknown #
coedge $-1 $377 $376 $557 $685 reversed $148 $-1 #
edge $-1 $686 0 $554 19.094348048287117 $548 $687 forward 7 unknown #
vertex $-1 $379 $688 #
straight-curve $-1 -52.128280361822114 11.84720879382694 13.712975352364857 0 1 0 I I #
coedge $-1 $681 $380 $383 $561 reversed $546 $-1 #
coedge $-1 $380 $681 $552 $685 forward $546 $-1 #
vertex $-1 $381 $689 #
straight-curve $-1 -66.96737571337016 20.485855779643078 52.891681472516986 0 0 1 I I #
straight-curve $-1 -66.96737571337016 20.485855779643078 1.6965126225599221 -0.77714595512881146 0 -0.62932039886446345 I I #
edge $-1 $683 -26.902979395664683 $384 -20.485855779643078 $556 $690 forward 7 unknown #
point $-1 -66.96737571337016 20.485855779643078 13.712975352364859 #
point $-1 -52.128280361822114 20.485855779643078 13.712975352364859 #
edge $-1 $691 1 $691 0 $387 $-1 forward 7 unknown #
vertex $-1 $388 $692 #
ellipse-curve $-1 -57.982622335949415 23.694417587653881 5.771875956846908 -0.62932039886446345 0 0.77714595512881146 0.77714595512881146 0 0.62932039886446345 1 I I #
point $-1 -58.770682082467331 23.694417587653881 8.3340643863268582 #
loop $-1 $-1 $399 $391 #
plane-surface $-1 66.96737571337016 0 0 -1 0 0 0 0 1 forward_v I I I I #
coedge $-1 $571 $394 $396 $575 reversed $251 $-1 #
coedge $-1 $394 $570 $693 $694 reversed $251 $-1 #
coedge $-1 $402 $397 $394 $573 forward $392 $-1 #
edge $-1 $576 20.85086391137402 $695 31.830836145710421 $572 $696 forward 7 unknown #
coedge $-1 $396 $395 $579 $697 reversed $157 $-1 #
edge $-1 $698 -133.93475142674035 $576 -118.12846039776294 $570 $699 forward 7 unknown #
vertex $-1 $398 $700 #
straight-curve $-1 55.987403479033759 -7.4601670943713927 13.712975352364857 0 -1 0 I I #
coedge $-1 $693 $399 $402 $583 reversed $568 $-1 #
coedge $-1 $399 $693 $574 $697 forward $568 $-1 #
vertex $-1 $400 $701 #
straight-curve $-1 66.96737571337016 -11.855218969827767 95.863187236850294 0 0 1 I I #
straight-curve $-1 -26.07151931787601 -11.855218969827767 98.687479442454432 0.69465836192734942 0 -0.71933980857756763 I I #
edge $-1 $695 -17.985449407657804 $403 -11.855218969827767 $578 $702 forward 7 unknown #
point $-1 66.96737571337016 -11.855218969827767 13.712975352364859 #
point $-1 55.987403479033759 -11.855218969827767 13.712975352364865 #
edge $-1 $703 1 $703 0 $406 $-1 forward 7 unknown #
vertex $-1 $407 $704 #
ellipse-curve $-1 59.189407352183188 -14.920334188742785 5.8184494532475632 0.71933980857756763 0 0.69465836192734942 0.69465836192734942 0 -0.71933980857756763 1 I I #
point $-1 62.172047958129291 -14.920334188742785 7.3085883622343211 #
plane-surface $-1 0 0 13.712975352364859 0 0 1 1 0 0 forward_v I I I I #
coedge $-1 $601 $600 $593 $705 forward $411 $-1 #
coedge $-1 $593 $413 $415 $597 reversed $266 $-1 #
coedge $-1 $413 $592 $591 $705 reversed $266 $-1 #
coedge $-1 $421 $416 $413 $595 forward $422 $-1 #
edge $-1 $598 20.85086391137402 $706 31.830836145710421 $594 $707 forward 7 unknown #
coedge $-1 $415 $414 $601 $708 reversed $166 $-1 #
edge $-1 $709 -133.93475142674035 $598 -118.12846039776294 $592 $710 forward 7 unknown #
vertex $-1 $417 $711 #
straight-curve $-1 55.987403479033759 4.5926850423333043 13.712975352364857 0 -1 0 I I #
coedge $-1 $591 $418 $421 $605 reversed $411 $-1 #
coedge $-1 $418 $591 $596 $708 forward $411 $-1 #
vertex $-1 $419 $712 #
straight-curve $-1 66.96737571337016 12.250485303581627 95.863187236850294 0 0 1 I I #
straight-curve $-1 -26.07151931787601 12.250485303581627 98.687479442454432 0.69465836192734942 0 -0.71933980857756763 I I #
edge $-1 $706 6.1202548657515905 $423 12.250485303581627 $600 $713 forward 7 unknown #
point $-1 66.96737571337016 12.250485303581627 13.712975352364859 #
point $-1 55.987403479033759 12.250485303581627 13.712975352364865 #
edge $-1 $714 1 $714 0 $426 $-1 forward 7 unknown #
vertex $-1 $427 $715 #
ellipse-curve $-1 59.189407352183188 9.1853700846666086 5.8184494532475632 0.71933980857756763 0 0.69465836192734942 0.69465836192734942 0 -0.71933980857756763 1 I I #
point $-1 62.172047958129291 9.1853700846666086 7.3085883622343211 #
plane-surface $-1 66.96737571337016 0 0 -1 0 0 0 0 1 forward_v I I I I #
coedge $-1 $435 $433 $437 $617 reversed $281 $-1 #
edge $-1 $448 -13.712975352364859 $619 13.712975352364859 $447 $716 forward 7 unknown #
vertex $-1 $617 $717 #
straight-curve $-1 -66.96737571337016 -30.225959139160985 0 0 0 -1 I I #
edge $-1 $615 -30.225959139160985 $619 30.225959139160985 $613 $718 forward 7 unknown #
straight-curve $-1 0 -30.225959139160985 -13.712975352364859 -1 0 0 I I #
vertex $-1 $440 $719 #
straight-curve $-1 0 30.225959139160985 -13.712975352364859 1 0 0 I I #
point $-1 66.96737571337016 30.225959139160985 -13.712975352364859 #
point $-1 66.96737571337016 -30.225959139160985 -13.712975352364859 #
straight-curve $-1 -66.96737571337016 0 13.712975352364859 0 -1 0 I I #
point $-1 -66.96737571337016 30.225959139160985 13.712975352364859 #
point $-1 -66.96737571337016 -30.225959139160985 13.712975352364859 #
straight-curve $-1 66.96737571337016 -30.225959139160985 0 0 0 -1 I I #
straight-curve $-1 66.96737571337016 30.225959139160985 0 0 0 -1 I I #
plane-surface $-1 0 0 13.712975352364859 0 0 1 1 0 0 forward_v I I I I #
coedge $-1 $465 $641 $630 $720 forward $458 $-1 #
coedge $-1 $461 $460 $629 $720 reversed $183 $-1 #
edge $-1 $637 -3.2503605966128148 $635 3.2503605966128148 $460 $721 forward 7 unknown #
coedge $-1 $473 $472 $461 $633 forward $474 $-1 #
edge $-1 $634 -3.2503605966128148 $722 3.2503605966128148 $461 $723 forward 7 unknown #
vertex $-1 $477 $724 #
vertex $-1 $467 $725 #
straight-curve $-1 -46.742059271253218 -42.466468870664166 0 0 0 -1 I I #
vertex $-1 $720 $726 #
straight-curve $-1 -40.241338078027589 -36.346214004912575 -13.712975352364859 0 -1 0 I I #
straight-curve $-1 -46.742059271253218 -36.346214004912575 -13.712975352364859 0 1 0 I I #
point $-1 -40.241338078027589 -30.225959139160985 -13.712975352364859 #
coedge $-1 $629 $470 $473 $643 reversed $458 $-1 #
straight-curve $-1 -40.241338078027589 -30.225959139160985 0 0 0 -1 I I #
edge $-1 $722 -6.1202548657515905 $475 6.1202548657515905 $641 $727 forward 7 unknown #
point $-1 -40.241338078027589 -30.225959139160985 13.712975352364859 #
straight-curve $-1 -46.742059271253218 -36.346214004912575 13.712975352364859 0 -1 0 I I #
edge $-1 $647 39.178706120152128 $650 51.195168849957064 $481 $728 forward 7 unknown #
vertex $-1 $495 $729 #
straight-curve $-1 -75.627623451529573 -8.245346048139897 13.712975352364857 -1 0 0 I I #
edge $-1 $650 2.5183921200645472 $492 8.9355157360861526 $491 $730 forward 7 unknown #
vertex $-1 $649 $731 #
straight-curve $-1 -66.96737571337016 -8.245346048139897 1.6965126225599221 0.77714595512881146 0 0.62932039886446345 I I #
point $-1 -52.128280361822114 -8.245346048139897 13.712975352364859 #
point $-1 -66.96737571337016 -14.662469664161502 1.6965126225599221 #
straight-curve $-1 -66.96737571337016 0 13.712975352364859 0 -1 0 I I #
vertex $-1 $498 $732 #
point $-1 -57.205476380820606 -11.4539078561507 6.401196355711372 #
coedge $-1 $513 $512 $505 $658 forward $502 $-1 #
edge $-1 $659 39.178706120152128 $662 51.195168849957064 $657 $733 forward 7 unknown #
vertex $-1 $517 $734 #
straight-curve $-1 -75.627623451529573 3.4707624331282956 13.712975352364857 -1 0 0 I I #
edge $-1 $662 -3.3396621205695487 $514 3.0774614954520549 $513 $735 forward 7 unknown #
vertex $-1 $661 $736 #
straight-curve $-1 -66.96737571337016 3.4707624331282956 1.6965126225599221 0.77714595512881146 0 0.62932039886446345 I I #
point $-1 -52.128280361822114 3.4707624331282956 13.712975352364859 #
point $-1 -66.96737571337016 -2.9463611828933081 1.6965126225599221 #
straight-curve $-1 -66.96737571337016 0 13.712975352364859 0 -1 0 I I #
vertex $-1 $520 $737 #
point $-1 -57.205476380820606 0.26220062511749376 6.401196355711372 #
coedge $-1 $535 $534 $527 $670 forward $524 $-1 #
edge $-1 $671 39.178706120152128 $674 51.195168849957064 $669 $738 forward 7 unknown #
vertex $-1 $539 $739 #
straight-curve $-1 -75.627623451529573 15.18687091439649 13.712975352364857 -1 0 0 I I #
edge $-1 $674 -9.1977163612036463 $536 -2.7805927451820409 $535 $740 forward 7 unknown #
vertex $-1 $673 $741 #
straight-curve $-1 -66.96737571337016 15.18687091439649 1.6965126225599221 0.77714595512881146 0 0.62932039886446345 I I #
point $-1 -52.128280361822114 15.18687091439649 13.712975352364859 #
point $-1 -66.96737571337016 8.7697472983748845 1.6965126225599221 #
straight-curve $-1 -66.96737571337016 0 13.712975352364859 0 -1 0 I I #
vertex $-1 $542 $742 #
point $-1 -57.205476380820606 11.978309106385687 6.401196355711372 #
coedge $-1 $557 $556 $549 $682 forward $546 $-1 #
edge $-1 $683 39.178706120152128 $686 51.195168849957064 $681 $743 forward 7 unknown #
vertex $-1 $561 $744 #
straight-curve $-1 -75.627623451529573 26.902979395664683 13.712975352364857 -1 0 0 I I #
edge $-1 $686 -15.055770601837743 $558 -8.6386469858161377 $557 $745 forward 7 unknown #
vertex $-1 $685 $746 #
straight-curve $-1 -66.96737571337016 26.902979395664683 1.6965126225599221 0.77714595512881146 0 0.62932039886446345 I I #
point $-1 -52.128280361822114 26.902979395664683 13.712975352364859 #
point $-1 -66.96737571337016 20.485855779643078 1.6965126225599221 #
straight-curve $-1 -66.96737571337016 0 13.712975352364859 0 -1 0 I I #
vertex $-1 $564 $747 #
point $-1 -57.205476380820606 23.694417587653881 6.401196355711372 #
coedge $-1 $579 $578 $571 $694 forward $568 $-1 #
edge $-1 $695 82.150211884485429 $698 93.520306247591364 $693 $748 forward 7 unknown #
vertex $-1 $583 $749 #
straight-curve $-1 35.136539567659739 -17.985449407657804 13.712975352364865 1 0 0 I I #
edge $-1 $698 -10.525282313286411 $580 -4.3950518754563745 $579 $750 forward 7 unknown #
vertex $-1 $697 $751 #
straight-curve $-1 -26.07151931787601 -17.985449407657804 98.687479442454432 -0.69465836192734942 0 0.71933980857756763 I I #
point $-1 55.987403479033759 -17.985449407657804 13.712975352364865 #
point $-1 66.96737571337016 -11.855218969827767 2.34288098925893 #
straight-curve $-1 66.96737571337016 0 13.712975352364859 0 1 0 I I #
vertex $-1 $586 $752 #
point $-1 59.884065714110534 -14.920334188742785 5.0991096446699959 #
edge $-1 $706 82.150211884485429 $709 93.520306247591364 $591 $753 forward 7 unknown #
vertex $-1 $605 $754 #
straight-curve $-1 35.136539567659739 6.1202548657515905 13.712975352364865 1 0 0 I I #
edge $-1 $709 1.5275698234182862 $602 7.6578002612483225 $601 $755 forward 7 unknown #
vertex $-1 $708 $756 #
straight-curve $-1 -26.07151931787601 6.1202548657515905 98.687479442454432 -0.69465836192734942 0 0.71933980857756763 I I #
point $-1 55.987403479033759 6.1202548657515905 13.712975352364865 #
point $-1 66.96737571337016 12.250485303581627 2.34288098925893 #
straight-curve $-1 66.96737571337016 0 13.712975352364859 0 1 0 I I #
vertex $-1 $608 $757 #
point $-1 59.884065714110534 9.1853700846666086 5.0991096446699959 #
straight-curve $-1 -66.96737571337016 30.225959139160985 0 0 0 -1 I I #
point $-1 -66.96737571337016 -30.225959139160985 -13.712975352364859 #
straight-curve $-1 -66.96737571337016 0 -13.712975352364859 0 1 0 I I #
point $-1 -66.96737571337016 30.225959139160985 -13.712975352364859 #
edge $-1 $722 -13.712975352364859 $637 13.712975352364859 $629 $758 forward 7 unknown #
straight-curve $-1 -43.491698674640404 -42.466468870664166 -13.712975352364859 -1 0 0 I I #
vertex $-1 $643 $759 #
straight-curve $-1 -43.491698674640404 -42.466468870664166 13.712975352364859 1 0 0 I I #
point $-1 -46.742059271253218 -42.466468870664166 13.712975352364859 #
point $-1 -46.742059271253218 -42.466468870664166 -13.712975352364859 #
point $-1 -40.241338078027589 -42.466468870664166 -13.712975352364859 #
straight-curve $-1 -40.241338078027589 -36.346214004912575 13.712975352364859 0 1 0 I I #
straight-curve $-1 -66.96737571337016 -8.245346048139897 52.891681472516986 0 0 -1 I I #
point $-1 -66.96737571337016 -8.245346048139897 13.712975352364859 #
straight-curve $-1 -66.96737571337016 -5.7269539280753499 1.6965126225599216 0 -1 0 I I #
point $-1 -66.96737571337016 -8.245346048139897 1.6965126225599221 #
point $-1 -57.35330193708495 -11.4539078561507 4.9947300017180973 #
straight-curve $-1 -66.96737571337016 3.4707624331282956 52.891681472516986 0 0 -1 I I #
point $-1 -66.96737571337016 3.4707624331282956 13.712975352364859 #
straight-curve $-1 -66.96737571337016 0.13110031255874688 1.6965126225599216 0 -1 0 I I #
point $-1 -66.96737571337016 3.4707624331282956 1.6965126225599221 #
point $-1 -57.35330193708495 0.26220062511749376 4.9947300017180973 #
straight-curve $-1 -66.96737571337016 15.18687091439649 52.891681472516986 0 0 -1 I I #
point $-1 -66.96737571337016 15.18687091439649 13.712975352364859 #
straight-curve $-1 -66.96737571337016 5.9891545531928436 1.6965126225599216 0 -1 0 I I #
point $-1 -66.96737571337016 15.18687091439649 1.6965126225599221 #
point $-1 -57.35330193708495 11.978309106385687 4.9947300017180973 #
straight-curve $-1 -66.96737571337016 26.902979395664683 52.891681472516986 0 0 -1 I I #
point $-1 -66.96737571337016 26.902979395664683 13.712975352364859 #
straight-curve $-1 -66.96737571337016 11.84720879382694 1.6965126225599216 0 -1 0 I I #
point $-1 -66.96737571337016 26.902979395664683 1.6965126225599221 #
point $-1 -57.35330193708495 23.694417587653881 4.9947300017180973 #
straight-curve $-1 66.96737571337016 -17.985449407657804 95.863187236850294 0 0 -1 I I #
point $-1 66.96737571337016 -17.985449407657804 13.712975352364859 #
straight-curve $-1 66.96737571337016 -7.4601670943713927 2.3428809892589371 0 1 0 I I #
point $-1 66.96737571337016 -17.985449407657804 2.34288098925893 #
point $-1 58.470067543605616 -14.920334188742785 5.1237910913202143 #
straight-curve $-1 66.96737571337016 6.1202548657515905 95.863187236850294 0 0 -1 I I #
point $-1 66.96737571337016 6.1202548657515905 13.712975352364859 #
straight-curve $-1 66.96737571337016 4.5926850423333043 2.3428809892589371 0 1 0 I I #
point $-1 66.96737571337016 6.1202548657515905 2.34288098925893 #
point $-1 58.470067543605616 9.1853700846666086 5.1237910913202143 #
straight-curve $-1 -40.241338078027589 -42.466468870664166 0 0 0 -1 I I #
point $-1 -40.241338078027589 -42.466468870664166 13.712975352364859 #
End-of-ACIS-data 