500 0 18 0           
7 Unknown 11 ACIS 5.0 NT 24 Thu Mar 25 17:49:16 1999 
-1 9.9999999999999995e-007 1e-010 
body $-1 $18 $-1 $19 #
body $-1 $20 $-1 $21 #
body $-1 $22 $-1 $23 #
body $-1 $24 $-1 $25 #
body $-1 $26 $-1 $27 #
body $-1 $28 $-1 $29 #
body $-1 $30 $-1 $31 #
body $-1 $32 $-1 $33 #
body $-1 $34 $-1 $35 #
body $-1 $36 $-1 $37 #
body $-1 $38 $-1 $39 #
body $-1 $40 $-1 $41 #
body $-1 $42 $-1 $43 #
body $-1 $44 $-1 $45 #
body $-1 $46 $-1 $47 #
body $-1 $48 $-1 $49 #
body $-1 $50 $-1 $51 #
body $-1 $52 $-1 $53 #
lump $-1 $-1 $54 $0 #
transform $-1 1 0 0 0 1 0 0 0 1 50.688802758873258 26.435772281453445 8.9287996762993735 1 rotate no_reflect no_shear #
lump $-1 $-1 $55 $1 #
transform $-1 1 0 0 0 1 0 0 0 1 50.688802758873258 26.435772281453445 8.9287996762993735 1 rotate no_reflect no_shear #
lump $-1 $-1 $56 $2 #
transform $-1 1 0 0 0 1 0 0 0 1 50.688802758873258 26.435772281453445 8.9287996762993735 1 rotate no_reflect no_shear #
lump $-1 $-1 $57 $3 #
transform $-1 1 0 0 0 1 0 0 0 1 50.688802758873258 26.435772281453445 8.9287996762993735 1 rotate no_reflect no_shear #
lump $-1 $-1 $58 $4 #
transform $-1 1 0 0 0 1 0 0 0 1 50.688802758873258 26.435772281453445 8.9287996762993735 1 rotate no_reflect no_shear #
lump $-1 $-1 $59 $5 #
transform $-1 1 0 0 0 1 0 0 0 1 50.688802758873258 26.435772281453445 8.9287996762993735 1 rotate no_reflect no_shear #
lump $-1 $-1 $60 $6 #
transform $-1 1 0 0 0 1 0 0 0 1 50.688802758873258 26.435772281453445 8.9287996762993735 1 rotate no_reflect no_shear #
lump $-1 $-1 $61 $7 #
transform $-1 1 0 0 0 1 0 0 0 1 50.688802758873258 26.435772281453445 8.9287996762993735 1 rotate no_reflect no_shear #
lump $-1 $-1 $62 $8 #
transform $-1 1 0 0 0 1 0 0 0 1 50.688802758873258 26.435772281453445 8.9287996762993735 1 rotate no_reflect no_shear #
lump $-1 $-1 $63 $9 #
transform $-1 1 0 0 0 1 0 0 0 1 50.688802758873258 26.435772281453445 8.9287996762993735 1 rotate no_reflect no_shear #
lump $-1 $-1 $64 $10 #
transform $-1 1 0 0 0 1 0 0 0 1 50.688802758873258 26.435772281453445 8.9287996762993735 1 rotate no_reflect no_shear #
lump $-1 $-1 $65 $11 #
transform $-1 1 0 0 0 1 0 0 0 1 50.688802758873258 26.435772281453445 8.9287996762993735 1 rotate no_reflect no_shear #
lump $-1 $-1 $66 $12 #
transform $-1 1 0 0 0 1 0 0 0 1 50.688802758873258 26.435772281453445 8.9287996762993735 1 rotate no_reflect no_shear #
lump $-1 $-1 $67 $13 #
transform $-1 1 0 0 0 1 0 0 0 1 50.688802758873258 26.435772281453445 8.9287996762993735 1 rotate no_reflect no_shear #
lump $-1 $-1 $68 $14 #
transform $-1 1 0 0 0 1 0 0 0 1 50.688802758873258 26.435772281453445 8.9287996762993735 1 rotate no_reflect no_shear #
lump $-1 $-1 $69 $15 #
transform $-1 1 0 0 0 1 0 0 0 1 50.688802758873258 26.435772281453445 8.9287996762993735 1 rotate no_reflect no_shear #
lump $-1 $-1 $70 $16 #
transform $-1 1 0 0 0 1 0 0 0 1 50.688802758873258 26.435772281453445 8.9287996762993735 1 rotate no_reflect no_shear #
lump $-1 $-1 $71 $17 #
transform $-1 1 0 0 0 1 0 0 0 1 50.688802758873258 26.435772281453445 8.9287996762993735 1 rotate no_reflect no_shear #
shell $-1 $-1 $-1 $72 $-1 $18 #
shell $-1 $-1 $-1 $73 $-1 $20 #
shell $-1 $-1 $-1 $74 $-1 $22 #
shell $-1 $-1 $-1 $75 $-1 $24 #
shell $-1 $-1 $-1 $76 $-1 $26 #
shell $-1 $-1 $-1 $77 $-1 $28 #
shell $-1 $-1 $-1 $78 $-1 $30 #
shell $-1 $-1 $-1 $79 $-1 $32 #
shell $-1 $-1 $-1 $80 $-1 $34 #
shell $-1 $-1 $-1 $81 $-1 $36 #
shell $-1 $-1 $-1 $82 $-1 $38 #
shell $-1 $-1 $-1 $83 $-1 $40 #
shell $-1 $-1 $-1 $84 $-1 $42 #
shell $-1 $-1 $-1 $85 $-1 $44 #
shell $-1 $-1 $-1 $86 $-1 $46 #
shell $-1 $-1 $-1 $87 $-1 $48 #
shell $-1 $-1 $-1 $88 $-1 $50 #
shell $-1 $-1 $-1 $89 $-1 $52 #
face $-1 $90 $91 $54 $-1 $92 forward single #
face $-1 $93 $94 $55 $-1 $95 reversed single #
face $-1 $96 $97 $56 $-1 $98 reversed single #
face $-1 $99 $100 $57 $-1 $101 forward single #
face $-1 $102 $103 $58 $-1 $104 forward single #
face $-1 $105 $106 $59 $-1 $107 forward single #
face $-1 $108 $109 $60 $-1 $110 reversed single #
face $-1 $111 $112 $61 $-1 $113 forward single #
face $-1 $114 $115 $62 $-1 $116 forward single #
face $-1 $117 $118 $63 $-1 $119 forward single #
face $-1 $120 $121 $64 $-1 $122 reversed single #
face $-1 $123 $124 $65 $-1 $125 forward single #
face $-1 $126 $127 $66 $-1 $128 forward single #
face $-1 $129 $130 $67 $-1 $131 forward single #
face $-1 $132 $133 $68 $-1 $134 reversed single #
face $-1 $135 $136 $69 $-1 $137 forward single #
face $-1 $138 $139 $70 $-1 $140 forward single #
face $-1 $141 $142 $71 $-1 $143 forward single #
face $-1 $144 $145 $54 $-1 $146 reversed single #
loop $-1 $-1 $147 $72 #
plane-surface $-1 0 0 8.9287996762993735 0 0 1 1 0 0 forward_v I I I I #
face $-1 $148 $149 $55 $-1 $150 reversed single #
loop $-1 $-1 $151 $73 #
plane-surface $-1 -50.188802758873258 -23.463100822342007 0 1 0 0 0 0 -1 forward_v I I I I #
face $-1 $152 $153 $56 $-1 $154 reversed single #
loop $-1 $-1 $155 $74 #
plane-surface $-1 -126.02704655820307 -10.406955599430008 67.94143027694993 0 1 0 -0.74314483375859142 0 0.66913059716165679 forward_v I I I I #
face $-1 $156 $157 $57 $-1 $158 forward single #
loop $-1 $159 $160 $75 #
cone-surface $-1 -46.122045506817223 -9.0378794976374159 3.9819701589413543 0.74314483375859142 0 -0.66913059716165679 0.3345652985808284 0 0.37157241687929571 1 I I 0 1 0.5 forward I I I I #
face $-1 $161 $162 $58 $-1 $163 forward single #
loop $-1 $164 $165 $76 #
cone-surface $-1 -46.122045506817223 -6.9842653449485255 3.9819701589413543 0.74314483375859142 0 -0.66913059716165679 0.3345652985808284 0 0.37157241687929571 1 I I 0 1 0.5 forward I I I I #
face $-1 $166 $167 $59 $-1 $168 forward single #
loop $-1 $169 $170 $77 #
cone-surface $-1 -46.122045506817223 -4.930651192259635 3.9819701589413543 0.74314483375859142 0 -0.66913059716165679 0.3345652985808284 0 0.37157241687929571 1 I I 0 1 0.5 forward I I I I #
face $-1 $171 $172 $60 $-1 $173 reversed single #
loop $-1 $-1 $174 $78 #
plane-surface $-1 -126.02704655820307 9.5069180086899276 67.94143027694993 0 1 0 -0.74314483375859142 0 0.66913059716165679 forward_v I I I I #
face $-1 $175 $176 $61 $-1 $177 forward single #
loop $-1 $178 $179 $79 #
cone-surface $-1 -46.122045506817223 10.875994110482523 3.9819701589413543 0.74314483375859142 0 -0.66913059716165679 0.3345652985808284 0 0.37157241687929571 1 I I 0 1 0.5 forward I I I I #
face $-1 $180 $181 $62 $-1 $182 forward single #
loop $-1 $183 $184 $80 #
cone-surface $-1 -46.122045506817223 12.92960826317141 3.9819701589413543 0.74314483375859142 0 -0.66913059716165679 0.3345652985808284 0 0.37157241687929571 1 I I 0 1 0.5 forward I I I I #
face $-1 $185 $186 $63 $-1 $187 forward single #
loop $-1 $188 $189 $81 #
cone-surface $-1 -46.122045506817223 14.983222415860304 3.9819701589413543 0.74314483375859142 0 -0.66913059716165679 0.3345652985808284 0 0.37157241687929571 1 I I 0 1 0.5 forward I I I I #
face $-1 $190 $191 $64 $-1 $192 reversed single #
loop $-1 $-1 $193 $82 #
plane-surface $-1 58.192188839294467 -3.5615750904670431 143.27967407627972 0 -1 0 -0.74314483375859142 0 -0.66913059716165679 forward_v I I I I #
face $-1 $194 $195 $65 $-1 $196 forward single #
loop $-1 $197 $198 $83 #
cone-surface $-1 46.12204550681723 -9.0378794976374159 3.9819701589413632 -0.74314483375859142 0 -0.66913059716165679 0.3345652985808284 0 -0.37157241687929571 1 I I 0 1 0.5 forward I I I I #
face $-1 $199 $200 $66 $-1 $201 forward single #
loop $-1 $202 $203 $84 #
cone-surface $-1 46.12204550681723 -6.9842653449485255 3.9819701589413632 -0.74314483375859142 0 -0.66913059716165679 0.3345652985808284 0 -0.37157241687929571 1 I I 0 1 0.5 forward I I I I #
face $-1 $204 $205 $67 $-1 $206 forward single #
loop $-1 $207 $208 $85 #
cone-surface $-1 46.12204550681723 -4.930651192259635 3.9819701589413632 -0.74314483375859142 0 -0.66913059716165679 0.3345652985808284 0 -0.37157241687929571 1 I I 0 1 0.5 forward I I I I #
face $-1 $209 $210 $68 $-1 $211 reversed single #
loop $-1 $-1 $212 $86 #
plane-surface $-1 58.192188839294467 16.352298517652891 143.27967407627972 0 -1 0 -0.74314483375859142 0 -0.66913059716165679 forward_v I I I I #
face $-1 $213 $214 $69 $-1 $215 forward single #
loop $-1 $216 $217 $87 #
cone-surface $-1 46.12204550681723 10.875994110482523 3.9819701589413632 -0.74314483375859142 0 -0.66913059716165679 0.3345652985808284 0 -0.37157241687929571 1 I I 0 1 0.5 forward I I I I #
face $-1 $218 $219 $70 $-1 $220 forward single #
loop $-1 $221 $222 $88 #
cone-surface $-1 46.12204550681723 12.92960826317141 3.9819701589413632 -0.74314483375859142 0 -0.66913059716165679 0.3345652985808284 0 -0.37157241687929571 1 I I 0 1 0.5 forward I I I I #
face $-1 $223 $224 $71 $-1 $225 forward single #
loop $-1 $226 $227 $89 #
cone-surface $-1 46.12204550681723 14.983222415860304 3.9819701589413632 -0.74314483375859142 0 -0.66913059716165679 0.3345652985808284 0 -0.37157241687929571 1 I I 0 1 0.5 forward I I I I #
face $-1 $228 $229 $54 $-1 $230 reversed single #
loop $-1 $-1 $231 $90 #
plane-surface $-1 0 0 -8.9287996762993735 0 0 1 1 0 0 forward_v I I I I #
coedge $-1 $232 $233 $234 $235 forward $91 $-1 #
face $-1 $236 $237 $55 $-1 $238 reversed single #
loop $-1 $-1 $239 $93 #
plane-surface $-1 -48.688802758873258 -20.490429363230568 0 0 -1 0 0 0 -1 forward_v I I I I #
coedge $-1 $240 $241 $242 $243 forward $94 $-1 #
face $-1 $244 $245 $56 $-1 $246 reversed single #
loop $-1 $-1 $247 $96 #
plane-surface $-1 -50.68880275887328 -6.9842653449485255 0.1065725580413357 -0.74314483375859142 0 0.66913059716165679 0.66913059716165679 0 0.74314483375859142 forward_v I I I I #
coedge $-1 $248 $249 $250 $251 reversed $97 $-1 #
face $-1 $-1 $252 $57 $-1 $253 forward single #
loop $-1 $254 $255 $99 #
cone-surface $-1 -45.341286435966779 -9.0378794976374159 3.2789715514219413 0.74314483375859142 0 -0.66913059716165679 0.1672826492904142 0 0.18578620843964785 1 I I -0.70710678118654746 0.70710678118654746 0.25 forward I I I I #
loop $-1 $-1 $256 $75 #
coedge $-1 $160 $160 $257 $258 reversed $100 $-1 #
face $-1 $-1 $259 $58 $-1 $260 forward single #
loop $-1 $261 $262 $102 #
cone-surface $-1 -45.341286435966779 -6.9842653449485255 3.2789715514219413 0.74314483375859142 0 -0.66913059716165679 0.1672826492904142 0 0.18578620843964785 1 I I -0.70710678118654746 0.70710678118654746 0.25 forward I I I I #
loop $-1 $-1 $263 $76 #
coedge $-1 $165 $165 $264 $265 reversed $103 $-1 #
face $-1 $-1 $266 $59 $-1 $267 forward single #
loop $-1 $268 $269 $105 #
cone-surface $-1 -45.341286435966779 -4.930651192259635 3.2789715514219413 0.74314483375859142 0 -0.66913059716165679 0.1672826492904142 0 0.18578620843964785 1 I I -0.70710678118654746 0.70710678118654746 0.25 forward I I I I #
loop $-1 $-1 $270 $77 #
coedge $-1 $170 $170 $271 $272 reversed $106 $-1 #
face $-1 $273 $274 $60 $-1 $275 reversed single #
loop $-1 $-1 $276 $108 #
plane-surface $-1 -50.68880275887328 12.92960826317141 0.1065725580413357 -0.74314483375859142 0 0.66913059716165679 0.66913059716165679 0 0.74314483375859142 forward_v I I I I #
coedge $-1 $277 $278 $279 $280 reversed $109 $-1 #
face $-1 $-1 $281 $61 $-1 $282 forward single #
loop $-1 $283 $284 $111 #
cone-surface $-1 -45.341286435966779 10.875994110482523 3.2789715514219413 0.74314483375859142 0 -0.66913059716165679 0.1672826492904142 0 0.18578620843964785 1 I I -0.70710678118654746 0.70710678118654746 0.25 forward I I I I #
loop $-1 $-1 $285 $79 #
coedge $-1 $179 $179 $286 $287 reversed $112 $-1 #
face $-1 $-1 $288 $62 $-1 $289 forward single #
loop $-1 $290 $291 $114 #
cone-surface $-1 -45.341286435966779 12.92960826317141 3.2789715514219413 0.74314483375859142 0 -0.66913059716165679 0.1672826492904142 0 0.18578620843964785 1 I I -0.70710678118654746 0.70710678118654746 0.25 forward I I I I #
loop $-1 $-1 $292 $80 #
coedge $-1 $184 $184 $293 $294 reversed $115 $-1 #
face $-1 $-1 $295 $63 $-1 $296 forward single #
loop $-1 $297 $298 $117 #
cone-surface $-1 -45.341286435966779 14.983222415860304 3.2789715514219413 0.74314483375859142 0 -0.66913059716165679 0.1672826492904142 0 0.18578620843964785 1 I I -0.70710678118654746 0.70710678118654746 0.25 forward I I I I #
loop $-1 $-1 $299 $81 #
coedge $-1 $189 $189 $300 $301 reversed $118 $-1 #
face $-1 $302 $303 $64 $-1 $304 reversed single #
loop $-1 $-1 $305 $120 #
plane-surface $-1 -17.146054960035322 -6.9842653449485255 75.444816357371124 0.74314483375859142 0 0.66913059716165679 0.66913059716165679 0 -0.74314483375859142 forward_v I I I I #
coedge $-1 $306 $307 $308 $309 reversed $121 $-1 #
face $-1 $-1 $310 $65 $-1 $311 forward single #
loop $-1 $312 $313 $123 #
cone-surface $-1 45.341286435966786 -9.0378794976374159 3.2789715514219502 -0.74314483375859142 0 -0.66913059716165679 0.1672826492904142 0 -0.18578620843964785 1 I I -0.70710678118654746 0.70710678118654746 0.25 forward I I I I #
loop $-1 $-1 $314 $83 #
coedge $-1 $198 $198 $315 $316 reversed $124 $-1 #
face $-1 $-1 $317 $66 $-1 $318 forward single #
loop $-1 $319 $320 $126 #
cone-surface $-1 45.341286435966786 -6.9842653449485255 3.2789715514219502 -0.74314483375859142 0 -0.66913059716165679 0.1672826492904142 0 -0.18578620843964785 1 I I -0.70710678118654746 0.70710678118654746 0.25 forward I I I I #
loop $-1 $-1 $321 $84 #
coedge $-1 $203 $203 $322 $323 reversed $127 $-1 #
face $-1 $-1 $324 $67 $-1 $325 forward single #
loop $-1 $326 $327 $129 #
cone-surface $-1 45.341286435966786 -4.930651192259635 3.2789715514219502 -0.74314483375859142 0 -0.66913059716165679 0.1672826492904142 0 -0.18578620843964785 1 I I -0.70710678118654746 0.70710678118654746 0.25 forward I I I I #
loop $-1 $-1 $328 $85 #
coedge $-1 $208 $208 $329 $330 reversed $130 $-1 #
face $-1 $331 $332 $68 $-1 $333 reversed single #
loop $-1 $-1 $334 $132 #
plane-surface $-1 -17.146054960035322 12.92960826317141 75.444816357371124 0.74314483375859142 0 0.66913059716165679 0.66913059716165679 0 -0.74314483375859142 forward_v I I I I #
coedge $-1 $335 $336 $337 $338 reversed $133 $-1 #
face $-1 $-1 $339 $69 $-1 $340 forward single #
loop $-1 $341 $342 $135 #
cone-surface $-1 45.341286435966786 10.875994110482523 3.2789715514219502 -0.74314483375859142 0 -0.66913059716165679 0.1672826492904142 0 -0.18578620843964785 1 I I -0.70710678118654746 0.70710678118654746 0.25 forward I I I I #
loop $-1 $-1 $343 $87 #
coedge $-1 $217 $217 $344 $345 reversed $136 $-1 #
face $-1 $-1 $346 $70 $-1 $347 forward single #
loop $-1 $348 $349 $138 #
cone-surface $-1 45.341286435966786 12.92960826317141 3.2789715514219502 -0.74314483375859142 0 -0.66913059716165679 0.1672826492904142 0 -0.18578620843964785 1 I I -0.70710678118654746 0.70710678118654746 0.25 forward I I I I #
loop $-1 $-1 $350 $88 #
coedge $-1 $222 $222 $351 $352 reversed $139 $-1 #
face $-1 $-1 $353 $71 $-1 $354 forward single #
loop $-1 $355 $356 $141 #
cone-surface $-1 45.341286435966786 14.983222415860304 3.2789715514219502 -0.74314483375859142 0 -0.66913059716165679 0.1672826492904142 0 -0.18578620843964785 1 I I -0.70710678118654746 0.70710678118654746 0.25 forward I I I I #
loop $-1 $-1 $357 $89 #
coedge $-1 $227 $227 $358 $359 reversed $142 $-1 #
face $-1 $360 $361 $54 $-1 $362 reversed single #
loop $-1 $-1 $363 $144 #
plane-surface $-1 0 -26.435772281453445 0 0 1 0 0 0 1 forward_v I I I I #
coedge $-1 $364 $365 $366 $367 forward $145 $-1 #
coedge $-1 $368 $147 $369 $370 forward $91 $-1 #
coedge $-1 $147 $368 $371 $372 forward $91 $-1 #
coedge $-1 $373 $374 $147 $235 reversed $375 $-1 #
edge $-1 $376 -26.435772281453445 $377 26.435772281453445 $234 $378 forward 7 unknown #
face $-1 $379 $380 $55 $-1 $381 forward single #
loop $-1 $-1 $382 $148 #
plane-surface $-1 -47.188802758873258 -23.463100822342007 0 -1 0 0 0 0 1 forward_v I I I I #
coedge $-1 $383 $384 $385 $386 forward $149 $-1 #
coedge $-1 $387 $151 $388 $389 reversed $94 $-1 #
coedge $-1 $151 $387 $390 $391 reversed $94 $-1 #
coedge $-1 $384 $383 $151 $243 reversed $149 $-1 #
edge $-1 $392 -8.9287996762993735 $393 8.9287996762993735 $242 $394 forward 7 unknown #
face $-1 $395 $396 $56 $-1 $397 reversed single #
loop $-1 $-1 $398 $152 #
plane-surface $-1 -126.02704655820307 -3.5615750904670431 67.94143027694993 0 -1 0 0.74314483375859142 0 -0.66913059716165679 forward_v I I I I #
coedge $-1 $399 $400 $401 $402 reversed $153 $-1 #
coedge $-1 $249 $155 $403 $404 reversed $97 $-1 #
coedge $-1 $155 $248 $399 $405 reversed $97 $-1 #
coedge $-1 $401 $406 $155 $251 forward $407 $-1 #
edge $-1 $408 12.324720520228276 $409 20.268289299518742 $250 $410 forward 7 unknown #
loop $-1 $-1 $257 $156 #
plane-surface $-1 -50.68880275887328 -6.9842653449485255 0.1065725580413357 -0.74314483375859142 0 0.66913059716165679 0.66913059716165679 0 0.74314483375859142 forward_v I I I I #
loop $-1 $-1 $411 $99 #
coedge $-1 $255 $255 $256 $412 reversed $157 $-1 #
coedge $-1 $256 $256 $255 $412 forward $159 $-1 #
coedge $-1 $257 $257 $160 $258 forward $252 $-1 #
edge $-1 $413 0 $413 6.2831853071796004 $257 $414 forward 7 unknown #
loop $-1 $-1 $264 $161 #
plane-surface $-1 -50.68880275887328 -6.9842653449485255 0.1065725580413357 -0.74314483375859142 0 0.66913059716165679 0.66913059716165679 0 0.74314483375859142 forward_v I I I I #
loop $-1 $-1 $415 $102 #
coedge $-1 $262 $262 $263 $416 reversed $162 $-1 #
coedge $-1 $263 $263 $262 $416 forward $164 $-1 #
coedge $-1 $264 $264 $165 $265 forward $259 $-1 #
edge $-1 $417 0 $417 6.2831853071796004 $264 $418 forward 7 unknown #
loop $-1 $-1 $271 $166 #
plane-surface $-1 -50.68880275887328 -6.9842653449485255 0.1065725580413357 -0.74314483375859142 0 0.66913059716165679 0.66913059716165679 0 0.74314483375859142 forward_v I I I I #
loop $-1 $-1 $419 $105 #
coedge $-1 $269 $269 $270 $420 reversed $167 $-1 #
coedge $-1 $270 $270 $269 $420 forward $169 $-1 #
coedge $-1 $271 $271 $170 $272 forward $266 $-1 #
edge $-1 $421 0 $421 6.2831853071796004 $271 $422 forward 7 unknown #
face $-1 $423 $424 $60 $-1 $425 forward single #
loop $-1 $-1 $426 $171 #
plane-surface $-1 -126.02704655820307 16.352298517652891 67.94143027694993 0 -1 0 0.74314483375859142 0 -0.66913059716165679 forward_v I I I I #
coedge $-1 $427 $428 $429 $430 reversed $172 $-1 #
coedge $-1 $278 $174 $431 $432 reversed $109 $-1 #
coedge $-1 $174 $277 $427 $433 reversed $109 $-1 #
coedge $-1 $429 $434 $174 $280 forward $424 $-1 #
edge $-1 $435 12.324720520228276 $436 20.268289299518742 $279 $437 forward 7 unknown #
loop $-1 $-1 $286 $175 #
plane-surface $-1 -50.68880275887328 12.92960826317141 0.1065725580413357 -0.74314483375859142 0 0.66913059716165679 0.66913059716165679 0 0.74314483375859142 forward_v I I I I #
loop $-1 $-1 $438 $111 #
coedge $-1 $284 $284 $285 $439 reversed $176 $-1 #
coedge $-1 $285 $285 $284 $439 forward $178 $-1 #
coedge $-1 $286 $286 $179 $287 forward $281 $-1 #
edge $-1 $440 0 $440 6.2831853071796004 $286 $441 forward 7 unknown #
loop $-1 $-1 $293 $180 #
plane-surface $-1 -50.68880275887328 12.92960826317141 0.1065725580413357 -0.74314483375859142 0 0.66913059716165679 0.66913059716165679 0 0.74314483375859142 forward_v I I I I #
loop $-1 $-1 $442 $114 #
coedge $-1 $291 $291 $292 $443 reversed $181 $-1 #
coedge $-1 $292 $292 $291 $443 forward $183 $-1 #
coedge $-1 $293 $293 $184 $294 forward $288 $-1 #
edge $-1 $444 0 $444 6.2831853071796004 $293 $445 forward 7 unknown #
loop $-1 $-1 $300 $185 #
plane-surface $-1 -50.68880275887328 12.92960826317141 0.1065725580413357 -0.74314483375859142 0 0.66913059716165679 0.66913059716165679 0 0.74314483375859142 forward_v I I I I #
loop $-1 $-1 $446 $117 #
coedge $-1 $298 $298 $299 $447 reversed $186 $-1 #
coedge $-1 $299 $299 $298 $447 forward $188 $-1 #
coedge $-1 $300 $300 $189 $301 forward $295 $-1 #
edge $-1 $448 0 $448 6.2831853071796004 $300 $449 forward 7 unknown #
face $-1 $450 $451 $64 $-1 $452 forward single #
loop $-1 $-1 $453 $190 #
plane-surface $-1 58.192188839294467 -10.406955599430008 143.27967407627972 0 1 0 0.74314483375859142 0 0.66913059716165679 forward_v I I I I #
coedge $-1 $454 $455 $456 $457 reversed $191 $-1 #
coedge $-1 $307 $193 $458 $459 reversed $121 $-1 #
coedge $-1 $193 $306 $454 $460 reversed $121 $-1 #
coedge $-1 $456 $461 $193 $309 forward $451 $-1 #
edge $-1 $462 -21.592708339226025 $463 -13.649139559935552 $308 $464 forward 7 unknown #
loop $-1 $-1 $315 $194 #
plane-surface $-1 -17.146054960035322 -6.9842653449485255 75.444816357371124 0.74314483375859142 0 0.66913059716165679 0.66913059716165679 0 -0.74314483375859142 forward_v I I I I #
loop $-1 $-1 $465 $123 #
coedge $-1 $313 $313 $314 $466 reversed $195 $-1 #
coedge $-1 $314 $314 $313 $466 forward $197 $-1 #
coedge $-1 $315 $315 $198 $316 forward $310 $-1 #
edge $-1 $467 0 $467 6.2831853071796004 $315 $468 forward 7 unknown #
loop $-1 $-1 $322 $199 #
plane-surface $-1 -17.146054960035322 -6.9842653449485255 75.444816357371124 0.74314483375859142 0 0.66913059716165679 0.66913059716165679 0 -0.74314483375859142 forward_v I I I I #
loop $-1 $-1 $469 $126 #
coedge $-1 $320 $320 $321 $470 reversed $200 $-1 #
coedge $-1 $321 $321 $320 $470 forward $202 $-1 #
coedge $-1 $322 $322 $203 $323 forward $317 $-1 #
edge $-1 $471 0 $471 6.2831853071796004 $322 $472 forward 7 unknown #
loop $-1 $-1 $329 $204 #
plane-surface $-1 -17.146054960035322 -6.9842653449485255 75.444816357371124 0.74314483375859142 0 0.66913059716165679 0.66913059716165679 0 -0.74314483375859142 forward_v I I I I #
loop $-1 $-1 $473 $129 #
coedge $-1 $327 $327 $328 $474 reversed $205 $-1 #
coedge $-1 $328 $328 $327 $474 forward $207 $-1 #
coedge $-1 $329 $329 $208 $330 forward $324 $-1 #
edge $-1 $475 0 $475 6.2831853071796004 $329 $476 forward 7 unknown #
face $-1 $477 $478 $68 $-1 $479 reversed single #
loop $-1 $-1 $480 $209 #
plane-surface $-1 58.192188839294467 9.5069180086899276 143.27967407627972 0 1 0 0.74314483375859142 0 0.66913059716165679 forward_v I I I I #
coedge $-1 $481 $482 $483 $484 reversed $210 $-1 #
coedge $-1 $336 $212 $485 $486 reversed $133 $-1 #
coedge $-1 $212 $335 $481 $487 reversed $133 $-1 #
coedge $-1 $483 $488 $212 $338 forward $489 $-1 #
edge $-1 $490 -21.592708339226025 $491 -13.649139559935552 $337 $492 forward 7 unknown #
loop $-1 $-1 $344 $213 #
plane-surface $-1 -17.146054960035322 12.92960826317141 75.444816357371124 0.74314483375859142 0 0.66913059716165679 0.66913059716165679 0 -0.74314483375859142 forward_v I I I I #
loop $-1 $-1 $493 $135 #
coedge $-1 $342 $342 $343 $494 reversed $214 $-1 #
coedge $-1 $343 $343 $342 $494 forward $216 $-1 #
coedge $-1 $344 $344 $217 $345 forward $339 $-1 #
edge $-1 $495 0 $495 6.2831853071796004 $344 $496 forward 7 unknown #
loop $-1 $-1 $351 $218 #
plane-surface $-1 -17.146054960035322 12.92960826317141 75.444816357371124 0.74314483375859142 0 0.66913059716165679 0.66913059716165679 0 -0.74314483375859142 forward_v I I I I #
loop $-1 $-1 $497 $138 #
coedge $-1 $349 $349 $350 $498 reversed $219 $-1 #
coedge $-1 $350 $350 $349 $498 forward $221 $-1 #
coedge $-1 $351 $351 $222 $352 forward $346 $-1 #
edge $-1 $499 0 $499 6.2831853071796004 $351 $500 forward 7 unknown #
loop $-1 $-1 $358 $223 #
plane-surface $-1 -17.146054960035322 12.92960826317141 75.444816357371124 0.74314483375859142 0 0.66913059716165679 0.66913059716165679 0 -0.74314483375859142 forward_v I I I I #
loop $-1 $-1 $501 $141 #
coedge $-1 $356 $356 $357 $502 reversed $224 $-1 #
coedge $-1 $357 $357 $356 $502 forward $226 $-1 #
coedge $-1 $358 $358 $227 $359 forward $353 $-1 #
edge $-1 $503 0 $503 6.2831853071796004 $358 $504 forward 7 unknown #
face $-1 $505 $506 $54 $-1 $507 reversed single #
loop $-1 $-1 $508 $228 #
plane-surface $-1 -50.688802758873258 0 0 1 0 0 0 0 -1 forward_v I I I I #
coedge $-1 $509 $371 $510 $511 forward $229 $-1 #
coedge $-1 $512 $231 $509 $513 forward $145 $-1 #
coedge $-1 $231 $512 $514 $515 forward $145 $-1 #
coedge $-1 $374 $373 $231 $367 reversed $375 $-1 #
edge $-1 $516 -26.435772281453445 $517 26.435772281453445 $366 $518 forward 7 unknown #
coedge $-1 $233 $232 $519 $520 forward $91 $-1 #
coedge $-1 $521 $522 $232 $370 reversed $506 $-1 #
edge $-1 $377 -50.688802758873258 $523 50.688802758873258 $369 $524 forward 7 unknown #
coedge $-1 $363 $525 $233 $372 reversed $229 $-1 #
edge $-1 $526 -50.688802758873258 $376 50.688802758873258 $371 $527 forward 7 unknown #
coedge $-1 $366 $234 $525 $528 forward $375 $-1 #
coedge $-1 $234 $366 $521 $529 reversed $375 $-1 #
loop $-1 $-1 $373 $505 #
vertex $-1 $235 $530 #
vertex $-1 $235 $531 #
straight-curve $-1 50.688802758873258 0 8.9287996762993735 0 1 0 I I #
face $-1 $532 $533 $55 $-1 $534 reversed single #
loop $-1 $-1 $535 $236 #
plane-surface $-1 0 0 8.9287996762993735 0 0 1 1 0 0 forward_v I I I I #
coedge $-1 $536 $537 $538 $539 reversed $237 $-1 #
coedge $-1 $242 $239 $540 $541 reversed $149 $-1 #
coedge $-1 $239 $242 $542 $543 reversed $149 $-1 #
coedge $-1 $537 $536 $239 $386 reversed $237 $-1 #
edge $-1 $544 -8.9287996762993735 $545 8.9287996762993735 $385 $546 forward 7 unknown #
coedge $-1 $241 $240 $547 $548 reversed $94 $-1 #
coedge $-1 $540 $549 $240 $389 forward $533 $-1 #
edge $-1 $550 -14.704221870282442 $393 -8.7588789520595647 $388 $551 forward 7 unknown #
coedge $-1 $552 $542 $241 $391 forward $380 $-1 #
edge $-1 $392 8.7588789520595647 $553 14.704221870282442 $390 $554 forward 7 unknown #
vertex $-1 $391 $555 #
vertex $-1 $389 $556 #
straight-curve $-1 -50.188802758873258 -20.490429363230568 0 0 0 -1 I I #
face $-1 $-1 $407 $56 $-1 $557 forward single #
loop $-1 $-1 $558 $244 #
plane-surface $-1 -50.688802758873258 0 0 1 0 0 0 0 -1 forward_v I I I I #
coedge $-1 $559 $560 $561 $562 reversed $245 $-1 #
coedge $-1 $563 $247 $249 $405 forward $153 $-1 #
coedge $-1 $247 $563 $559 $564 forward $153 $-1 #
coedge $-1 $561 $250 $247 $402 forward $407 $-1 #
edge $-1 $409 -6.9148229269557451 $565 -0.069442417992780392 $401 $566 forward 7 unknown #
coedge $-1 $567 $568 $248 $404 forward $396 $-1 #
edge $-1 $569 -33.864142580433608 $408 -25.041915462175592 $403 $570 forward 7 unknown #
edge $-1 $409 -11.871477426059744 $569 -3.1857706523259225e-014 $249 $571 forward 7 unknown #
coedge $-1 $250 $561 $567 $572 forward $407 $-1 #
loop $-1 $-1 $561 $395 #
vertex $-1 $404 $573 #
vertex $-1 $251 $574 #
straight-curve $-1 -63.013523279101534 -10.406955599430008 8.9287996762993735 1 0 0 I I #
coedge $-1 $411 $411 $-1 $575 reversed $254 $-1 #
edge $-1 $576 0 $576 6.2831853071796004 $255 $577 forward 7 unknown #
vertex $-1 $258 $578 #
ellipse-curve $-1 -46.717018369228029 -9.0378794976374159 4.5176861171703653 -0.74314483375859142 0 0.66913059716165679 0.3345652985808284 0 0.37157241687929571 1 I I #
coedge $-1 $415 $415 $-1 $579 reversed $261 $-1 #
edge $-1 $580 0 $580 6.2831853071796004 $262 $581 forward 7 unknown #
vertex $-1 $265 $582 #
ellipse-curve $-1 -46.717018369228029 -6.9842653449485255 4.5176861171703653 -0.74314483375859142 0 0.66913059716165679 0.3345652985808284 0 0.37157241687929571 1 I I #
coedge $-1 $419 $419 $-1 $583 reversed $268 $-1 #
edge $-1 $584 0 $584 6.2831853071796004 $269 $585 forward 7 unknown #
vertex $-1 $272 $586 #
ellipse-curve $-1 -46.717018369228029 -4.930651192259635 4.5176861171703653 -0.74314483375859142 0 0.66913059716165679 0.3345652985808284 0 0.37157241687929571 1 I I #
face $-1 $-1 $587 $60 $-1 $588 reversed single #
loop $-1 $-1 $279 $273 #
plane-surface $-1 0 0 8.9287996762993735 0 0 1 1 0 0 forward_v I I I I #
coedge $-1 $589 $590 $591 $592 reversed $274 $-1 #
coedge $-1 $593 $276 $278 $433 forward $172 $-1 #
coedge $-1 $276 $593 $589 $594 forward $172 $-1 #
coedge $-1 $591 $279 $276 $430 forward $424 $-1 #
edge $-1 $436 3.0421138771042227 $595 9.8874943860671856 $429 $596 forward 7 unknown #
coedge $-1 $597 $598 $277 $432 forward $587 $-1 #
edge $-1 $599 -33.864142580433608 $435 -25.041915462175592 $431 $600 forward 7 unknown #
edge $-1 $436 -11.871477426059744 $599 -3.1857706523259225e-014 $278 $601 forward 7 unknown #
coedge $-1 $279 $591 $597 $602 forward $424 $-1 #
vertex $-1 $432 $603 #
vertex $-1 $280 $604 #
straight-curve $-1 -63.013523279101534 9.5069180086899276 8.9287996762993735 1 0 0 I I #
coedge $-1 $438 $438 $-1 $605 reversed $283 $-1 #
edge $-1 $606 0 $606 6.2831853071796004 $284 $607 forward 7 unknown #
vertex $-1 $287 $608 #
ellipse-curve $-1 -46.717018369228029 10.875994110482523 4.5176861171703653 -0.74314483375859142 0 0.66913059716165679 0.3345652985808284 0 0.37157241687929571 1 I I #
coedge $-1 $442 $442 $-1 $609 reversed $290 $-1 #
edge $-1 $610 0 $610 6.2831853071796004 $291 $611 forward 7 unknown #
vertex $-1 $294 $612 #
ellipse-curve $-1 -46.717018369228029 12.92960826317141 4.5176861171703653 -0.74314483375859142 0 0.66913059716165679 0.3345652985808284 0 0.37157241687929571 1 I I #
coedge $-1 $446 $446 $-1 $613 reversed $297 $-1 #
edge $-1 $614 0 $614 6.2831853071796004 $298 $615 forward 7 unknown #
vertex $-1 $301 $616 #
ellipse-curve $-1 -46.717018369228029 14.983222415860304 4.5176861171703653 -0.74314483375859142 0 0.66913059716165679 0.3345652985808284 0 0.37157241687929571 1 I I #
face $-1 $-1 $617 $64 $-1 $618 reversed single #
loop $-1 $-1 $308 $302 #
plane-surface $-1 0 0 8.9287996762993735 0 0 1 1 0 0 forward_v I I I I #
coedge $-1 $619 $620 $621 $622 reversed $303 $-1 #
coedge $-1 $623 $305 $307 $460 forward $191 $-1 #
coedge $-1 $305 $623 $619 $624 forward $191 $-1 #
coedge $-1 $621 $308 $305 $457 forward $451 $-1 #
edge $-1 $463 0.069442417992780392 $625 6.9148229269557451 $456 $626 forward 7 unknown #
coedge $-1 $627 $628 $306 $459 forward $617 $-1 #
edge $-1 $629 -71.533264480098509 $462 -62.711037361840482 $458 $630 forward 7 unknown #
edge $-1 $463 89.506128091686747 $629 101.37760551774647 $307 $631 forward 7 unknown #
coedge $-1 $308 $621 $627 $632 forward $451 $-1 #
vertex $-1 $459 $633 #
vertex $-1 $309 $634 #
straight-curve $-1 29.096094419647233 -3.5615750904670431 8.9287996762993771 -1 0 0 I I #
coedge $-1 $465 $465 $-1 $635 reversed $312 $-1 #
edge $-1 $636 0 $636 6.2831853071796004 $313 $637 forward 7 unknown #
vertex $-1 $316 $638 #
ellipse-curve $-1 46.717018369228022 -9.0378794976374159 4.5176861171703617 0.74314483375859142 0 0.66913059716165679 0.3345652985808284 0 -0.37157241687929571 1 I I #
coedge $-1 $469 $469 $-1 $639 reversed $319 $-1 #
edge $-1 $640 0 $640 6.2831853071796004 $320 $641 forward 7 unknown #
vertex $-1 $323 $642 #
ellipse-curve $-1 46.717018369228022 -6.9842653449485255 4.5176861171703617 0.74314483375859142 0 0.66913059716165679 0.3345652985808284 0 -0.37157241687929571 1 I I #
coedge $-1 $473 $473 $-1 $643 reversed $326 $-1 #
edge $-1 $644 0 $644 6.2831853071796004 $327 $645 forward 7 unknown #
vertex $-1 $330 $646 #
ellipse-curve $-1 46.717018369228022 -4.930651192259635 4.5176861171703617 0.74314483375859142 0 0.66913059716165679 0.3345652985808284 0 -0.37157241687929571 1 I I #
face $-1 $-1 $489 $68 $-1 $647 forward single #
loop $-1 $-1 $648 $331 #
plane-surface $-1 50.688802758873258 0 0 -1 0 0 0 0 1 forward_v I I I I #
coedge $-1 $649 $650 $651 $652 reversed $332 $-1 #
coedge $-1 $653 $334 $336 $487 forward $210 $-1 #
coedge $-1 $334 $653 $649 $654 forward $210 $-1 #
coedge $-1 $651 $337 $334 $484 forward $489 $-1 #
edge $-1 $491 -9.8874943860671856 $655 -3.0421138771042227 $483 $656 forward 7 unknown #
coedge $-1 $657 $658 $335 $486 forward $478 $-1 #
edge $-1 $659 -71.533264480098509 $490 -62.711037361840482 $485 $660 forward 7 unknown #
edge $-1 $491 89.506128091686747 $659 101.37760551774647 $336 $661 forward 7 unknown #
coedge $-1 $337 $651 $657 $662 forward $489 $-1 #
loop $-1 $-1 $651 $477 #
vertex $-1 $486 $663 #
vertex $-1 $338 $664 #
straight-curve $-1 29.096094419647233 16.352298517652891 8.9287996762993771 -1 0 0 I I #
coedge $-1 $493 $493 $-1 $665 reversed $341 $-1 #
edge $-1 $666 0 $666 6.2831853071796004 $342 $667 forward 7 unknown #
vertex $-1 $345 $668 #
ellipse-curve $-1 46.717018369228022 10.875994110482523 4.5176861171703617 0.74314483375859142 0 0.66913059716165679 0.3345652985808284 0 -0.37157241687929571 1 I I #
coedge $-1 $497 $497 $-1 $669 reversed $348 $-1 #
edge $-1 $670 0 $670 6.2831853071796004 $349 $671 forward 7 unknown #
vertex $-1 $352 $672 #
ellipse-curve $-1 46.717018369228022 12.92960826317141 4.5176861171703617 0.74314483375859142 0 0.66913059716165679 0.3345652985808284 0 -0.37157241687929571 1 I I #
coedge $-1 $501 $501 $-1 $673 reversed $355 $-1 #
edge $-1 $674 0 $674 6.2831853071796004 $356 $675 forward 7 unknown #
vertex $-1 $359 $676 #
ellipse-curve $-1 46.717018369228022 14.983222415860304 4.5176861171703617 0.74314483375859142 0 0.66913059716165679 0.3345652985808284 0 -0.37157241687929571 1 I I #
face $-1 $-1 $375 $54 $-1 $677 reversed single #
loop $-1 $-1 $521 $360 #
plane-surface $-1 0 26.435772281453445 0 0 -1 0 0 0 -1 forward_v I I I I #
coedge $-1 $678 $519 $522 $679 forward $361 $-1 #
coedge $-1 $525 $363 $364 $513 reversed $229 $-1 #
coedge $-1 $519 $678 $363 $511 reversed $361 $-1 #
edge $-1 $526 -8.9287996762993735 $680 8.9287996762993735 $510 $681 forward 7 unknown #
coedge $-1 $365 $364 $678 $682 forward $145 $-1 #
edge $-1 $517 -50.688802758873258 $680 50.688802758873258 $509 $683 forward 7 unknown #
coedge $-1 $522 $521 $365 $515 reversed $506 $-1 #
edge $-1 $684 -50.688802758873258 $516 50.688802758873258 $514 $685 forward 7 unknown #
vertex $-1 $367 $686 #
vertex $-1 $528 $687 #
straight-curve $-1 50.688802758873258 0 -8.9287996762993735 0 -1 0 I I #
coedge $-1 $508 $510 $368 $520 reversed $361 $-1 #
edge $-1 $523 -26.435772281453445 $526 26.435772281453445 $519 $688 forward 7 unknown #
coedge $-1 $514 $369 $374 $529 forward $506 $-1 #
coedge $-1 $369 $514 $508 $679 reversed $506 $-1 #
vertex $-1 $370 $689 #
straight-curve $-1 0 26.435772281453445 8.9287996762993735 -1 0 0 I I #
coedge $-1 $371 $509 $373 $528 reversed $229 $-1 #
vertex $-1 $520 $690 #
straight-curve $-1 0 -26.435772281453445 8.9287996762993735 1 0 0 I I #
edge $-1 $376 -8.9287996762993735 $517 8.9287996762993735 $373 $691 forward 7 unknown #
edge $-1 $377 -8.9287996762993735 $516 8.9287996762993735 $374 $692 forward 7 unknown #
point $-1 50.688802758873258 -26.435772281453445 8.9287996762993735 #
point $-1 50.688802758873258 26.435772281453445 8.9287996762993735 #
face $-1 $-1 $693 $55 $-1 $694 reversed single #
loop $-1 $-1 $695 $379 #
plane-surface $-1 0 0 -8.9287996762993735 0 0 1 1 0 0 forward_v I I I I #
coedge $-1 $542 $552 $537 $696 forward $380 $-1 #
coedge $-1 $385 $382 $695 $697 reversed $237 $-1 #
coedge $-1 $382 $385 $535 $696 reversed $237 $-1 #
coedge $-1 $698 $699 $382 $539 forward $693 $-1 #
edge $-1 $700 -8.9287996762993735 $701 8.9287996762993735 $538 $702 forward 7 unknown #
coedge $-1 $695 $388 $383 $541 forward $533 $-1 #
edge $-1 $393 -25.844401379436629 $545 -22.844401379436629 $540 $703 forward 7 unknown #
coedge $-1 $390 $535 $384 $543 forward $380 $-1 #
edge $-1 $544 22.844401379436629 $392 25.844401379436629 $542 $704 forward 7 unknown #
vertex $-1 $543 $705 #
vertex $-1 $541 $706 #
straight-curve $-1 -47.188802758873258 -20.490429363230568 0 0 0 -1 I I #
coedge $-1 $699 $698 $387 $548 forward $693 $-1 #
edge $-1 $553 -8.9287996762993735 $550 8.9287996762993735 $547 $707 forward 7 unknown #
coedge $-1 $388 $695 $699 $708 forward $533 $-1 #
vertex $-1 $389 $709 #
straight-curve $-1 -50.188802758873258 -11.731550411171003 -8.9287996762993735 0 1 0 I I #
coedge $-1 $535 $390 $698 $710 forward $380 $-1 #
vertex $-1 $710 $711 #
straight-curve $-1 -50.188802758873258 -11.731550411171003 8.9287996762993735 0 -1 0 I I #
point $-1 -50.188802758873258 -20.490429363230568 8.9287996762993735 #
point $-1 -50.188802758873258 -20.490429363230568 -8.9287996762993735 #
plane-surface $-1 0 0 8.9287996762993735 0 0 1 1 0 0 forward_v I I I I #
coedge $-1 $568 $567 $560 $712 forward $396 $-1 #
coedge $-1 $560 $398 $400 $564 reversed $245 $-1 #
coedge $-1 $398 $559 $558 $712 reversed $245 $-1 #
coedge $-1 $406 $401 $398 $562 forward $407 $-1 #
edge $-1 $565 -20.268289299518742 $713 -12.324720520228276 $561 $714 forward 7 unknown #
coedge $-1 $400 $399 $568 $715 reversed $153 $-1 #
edge $-1 $716 3.1857706523259225e-014 $565 11.871477426059744 $559 $717 forward 7 unknown #
vertex $-1 $402 $718 #
straight-curve $-1 -42.745233979582792 -3.4921326724742627 8.9287996762993735 0 1 0 I I #
coedge $-1 $558 $403 $406 $572 reversed $396 $-1 #
coedge $-1 $403 $558 $563 $715 forward $396 $-1 #
vertex $-1 $404 $719 #
straight-curve $-1 -50.688802758873258 -10.406955599430008 33.970715138474965 0 0 1 I I #
straight-curve $-1 -50.68880275887328 -10.406955599430008 0.1065725580413357 -0.66913059716165679 0 -0.74314483375859142 I I #
edge $-1 $713 3.5615750904670431 $408 10.406955599430008 $567 $720 forward 7 unknown #
point $-1 -50.688802758873258 -10.406955599430008 8.9287996762993735 #
point $-1 -42.745233979582792 -10.406955599430008 8.9287996762993735 #
edge $-1 $721 1 $721 0 $411 $-1 forward 7 unknown #
vertex $-1 $412 $722 #
ellipse-curve $-1 -45.527072644406424 -9.0378794976374159 3.4462542007123553 -0.74314483375859142 0 0.66913059716165679 0.3345652985808284 0 0.37157241687929571 1 I I #
point $-1 -46.382453070647188 -9.0378794976374159 4.8892585340496488 #
edge $-1 $723 1 $723 0 $415 $-1 forward 7 unknown #
vertex $-1 $416 $724 #
ellipse-curve $-1 -45.527072644406424 -6.9842653449485255 3.4462542007123553 -0.74314483375859142 0 0.66913059716165679 0.3345652985808284 0 0.37157241687929571 1 I I #
point $-1 -46.382453070647188 -6.9842653449485255 4.8892585340496488 #
edge $-1 $725 1 $725 0 $419 $-1 forward 7 unknown #
vertex $-1 $420 $726 #
ellipse-curve $-1 -45.527072644406424 -4.930651192259635 3.4462542007123553 -0.74314483375859142 0 0.66913059716165679 0.3345652985808284 0 0.37157241687929571 1 I I #
point $-1 -46.382453070647188 -4.930651192259635 4.8892585340496488 #
loop $-1 $-1 $431 $423 #
plane-surface $-1 -50.688802758873258 0 0 1 0 0 0 0 -1 forward_v I I I I #
coedge $-1 $590 $426 $428 $594 reversed $274 $-1 #
coedge $-1 $426 $589 $727 $728 reversed $274 $-1 #
coedge $-1 $434 $429 $426 $592 forward $424 $-1 #
edge $-1 $595 -20.268289299518742 $729 -12.324720520228276 $591 $730 forward 7 unknown #
coedge $-1 $428 $427 $598 $731 reversed $172 $-1 #
edge $-1 $732 3.1857706523259225e-014 $595 11.871477426059744 $589 $733 forward 7 unknown #
vertex $-1 $430 $734 #
straight-curve $-1 -42.745233979582792 6.464804131585705 8.9287996762993735 0 1 0 I I #
coedge $-1 $727 $431 $434 $602 reversed $587 $-1 #
coedge $-1 $431 $727 $593 $731 forward $587 $-1 #
vertex $-1 $432 $735 #
straight-curve $-1 -50.688802758873258 9.5069180086899276 33.970715138474965 0 0 1 I I #
straight-curve $-1 -50.68880275887328 9.5069180086899276 0.1065725580413357 -0.66913059716165679 0 -0.74314483375859142 I I #
edge $-1 $729 -16.352298517652891 $435 -9.5069180086899276 $597 $736 forward 7 unknown #
point $-1 -50.688802758873258 9.5069180086899276 8.9287996762993735 #
point $-1 -42.745233979582792 9.5069180086899276 8.9287996762993735 #
edge $-1 $737 1 $737 0 $438 $-1 forward 7 unknown #
vertex $-1 $439 $738 #
ellipse-curve $-1 -45.527072644406424 10.875994110482523 3.4462542007123553 -0.74314483375859142 0 0.66913059716165679 0.3345652985808284 0 0.37157241687929571 1 I I #
point $-1 -46.382453070647188 10.875994110482523 4.8892585340496488 #
edge $-1 $739 1 $739 0 $442 $-1 forward 7 unknown #
vertex $-1 $443 $740 #
ellipse-curve $-1 -45.527072644406424 12.92960826317141 3.4462542007123553 -0.74314483375859142 0 0.66913059716165679 0.3345652985808284 0 0.37157241687929571 1 I I #
point $-1 -46.382453070647188 12.92960826317141 4.8892585340496488 #
edge $-1 $741 1 $741 0 $446 $-1 forward 7 unknown #
vertex $-1 $447 $742 #
ellipse-curve $-1 -45.527072644406424 14.983222415860304 3.4462542007123553 -0.74314483375859142 0 0.66913059716165679 0.3345652985808284 0 0.37157241687929571 1 I I #
point $-1 -46.382453070647188 14.983222415860304 4.8892585340496488 #
loop $-1 $-1 $458 $450 #
plane-surface $-1 50.688802758873258 0 0 -1 0 0 0 0 1 forward_v I I I I #
coedge $-1 $620 $453 $455 $624 reversed $303 $-1 #
coedge $-1 $453 $619 $743 $744 reversed $303 $-1 #
coedge $-1 $461 $456 $453 $622 forward $451 $-1 #
edge $-1 $625 13.649139559935552 $745 21.592708339226025 $621 $746 forward 7 unknown #
coedge $-1 $455 $454 $628 $747 reversed $191 $-1 #
edge $-1 $748 -101.37760551774647 $625 -89.506128091686747 $619 $749 forward 7 unknown #
vertex $-1 $457 $750 #
straight-curve $-1 42.745233979582778 -3.4921326724742627 8.9287996762993771 0 -1 0 I I #
coedge $-1 $743 $458 $461 $632 reversed $617 $-1 #
coedge $-1 $458 $743 $623 $747 forward $617 $-1 #
vertex $-1 $459 $751 #
straight-curve $-1 50.688802758873258 -3.5615750904670431 71.639837038139859 0 0 1 I I #
straight-curve $-1 -17.146054960035322 -3.5615750904670431 75.444816357371124 0.66913059716165679 0 -0.74314483375859142 I I #
edge $-1 $745 -10.406955599430008 $462 -3.5615750904670431 $627 $752 forward 7 unknown #
point $-1 50.688802758873258 -3.5615750904670431 8.9287996762993735 #
point $-1 42.745233979582785 -3.5615750904670431 8.9287996762993771 #
edge $-1 $753 1 $753 0 $465 $-1 forward 7 unknown #
vertex $-1 $466 $754 #
ellipse-curve $-1 45.527072644406431 -9.0378794976374159 3.4462542007123642 0.74314483375859142 0 0.66913059716165679 0.3345652985808284 0 -0.37157241687929571 1 I I #
point $-1 47.051583667808849 -9.0378794976374159 4.1461137002910666 #
edge $-1 $755 1 $755 0 $469 $-1 forward 7 unknown #
vertex $-1 $470 $756 #
ellipse-curve $-1 45.527072644406431 -6.9842653449485255 3.4462542007123642 0.74314483375859142 0 0.66913059716165679 0.3345652985808284 0 -0.37157241687929571 1 I I #
point $-1 47.051583667808849 -6.9842653449485255 4.1461137002910666 #
edge $-1 $757 1 $757 0 $473 $-1 forward 7 unknown #
vertex $-1 $474 $758 #
ellipse-curve $-1 45.527072644406431 -4.930651192259635 3.4462542007123642 0.74314483375859142 0 0.66913059716165679 0.3345652985808284 0 -0.37157241687929571 1 I I #
point $-1 47.051583667808849 -4.930651192259635 4.1461137002910666 #
plane-surface $-1 0 0 8.9287996762993735 0 0 1 1 0 0 forward_v I I I I #
coedge $-1 $658 $657 $650 $759 forward $478 $-1 #
coedge $-1 $650 $480 $482 $654 reversed $332 $-1 #
coedge $-1 $480 $649 $648 $759 reversed $332 $-1 #
coedge $-1 $488 $483 $480 $652 forward $489 $-1 #
edge $-1 $655 13.649139559935552 $760 21.592708339226025 $651 $761 forward 7 unknown #
coedge $-1 $482 $481 $658 $762 reversed $210 $-1 #
edge $-1 $763 -101.37760551774647 $655 -89.506128091686747 $649 $764 forward 7 unknown #
vertex $-1 $484 $765 #
straight-curve $-1 42.745233979582778 6.464804131585705 8.9287996762993771 0 -1 0 I I #
coedge $-1 $648 $485 $488 $662 reversed $478 $-1 #
coedge $-1 $485 $648 $653 $762 forward $478 $-1 #
vertex $-1 $486 $766 #
straight-curve $-1 50.688802758873258 16.352298517652891 71.639837038139859 0 0 1 I I #
straight-curve $-1 -17.146054960035322 16.352298517652891 75.444816357371124 0.66913059716165679 0 -0.74314483375859142 I I #
edge $-1 $760 9.5069180086899276 $490 16.352298517652891 $657 $767 forward 7 unknown #
point $-1 50.688802758873258 16.352298517652891 8.9287996762993735 #
point $-1 42.745233979582785 16.352298517652891 8.9287996762993771 #
edge $-1 $768 1 $768 0 $493 $-1 forward 7 unknown #
vertex $-1 $494 $769 #
ellipse-curve $-1 45.527072644406431 10.875994110482523 3.4462542007123642 0.74314483375859142 0 0.66913059716165679 0.3345652985808284 0 -0.37157241687929571 1 I I #
point $-1 47.051583667808849 10.875994110482523 4.1461137002910666 #
edge $-1 $770 1 $770 0 $497 $-1 forward 7 unknown #
vertex $-1 $498 $771 #
ellipse-curve $-1 45.527072644406431 12.92960826317141 3.4462542007123642 0.74314483375859142 0 0.66913059716165679 0.3345652985808284 0 -0.37157241687929571 1 I I #
point $-1 47.051583667808849 12.92960826317141 4.1461137002910666 #
edge $-1 $772 1 $772 0 $501 $-1 forward 7 unknown #
vertex $-1 $502 $773 #
ellipse-curve $-1 45.527072644406431 14.983222415860304 3.4462542007123642 0.74314483375859142 0 0.66913059716165679 0.3345652985808284 0 -0.37157241687929571 1 I I #
point $-1 47.051583667808849 14.983222415860304 4.1461137002910666 #
plane-surface $-1 50.688802758873258 0 0 -1 0 0 0 0 1 forward_v I I I I #
coedge $-1 $510 $508 $512 $682 reversed $361 $-1 #
edge $-1 $523 -8.9287996762993735 $684 8.9287996762993735 $522 $774 forward 7 unknown #
vertex $-1 $682 $775 #
straight-curve $-1 -50.688802758873258 -26.435772281453445 0 0 0 -1 I I #
edge $-1 $680 -26.435772281453445 $684 26.435772281453445 $678 $776 forward 7 unknown #
straight-curve $-1 0 -26.435772281453445 -8.9287996762993735 -1 0 0 I I #
vertex $-1 $515 $777 #
straight-curve $-1 0 26.435772281453445 -8.9287996762993735 1 0 0 I I #
point $-1 50.688802758873258 26.435772281453445 -8.9287996762993735 #
point $-1 50.688802758873258 -26.435772281453445 -8.9287996762993735 #
straight-curve $-1 -50.688802758873258 0 8.9287996762993735 0 -1 0 I I #
point $-1 -50.688802758873258 26.435772281453445 8.9287996762993735 #
point $-1 -50.688802758873258 -26.435772281453445 8.9287996762993735 #
straight-curve $-1 50.688802758873258 -26.435772281453445 0 0 0 -1 I I #
straight-curve $-1 50.688802758873258 26.435772281453445 0 0 0 -1 I I #
loop $-1 $-1 $538 $532 #
plane-surface $-1 0 -26.435772281453445 0 0 1 0 0 0 1 forward_v I I I I #
coedge $-1 $549 $540 $536 $697 forward $533 $-1 #
edge $-1 $701 -14.704221870282442 $544 -8.7588789520595647 $535 $778 forward 7 unknown #
edge $-1 $545 8.7588789520595647 $700 14.704221870282442 $695 $779 forward 7 unknown #
coedge $-1 $547 $538 $552 $710 reversed $693 $-1 #
coedge $-1 $538 $547 $549 $708 reversed $693 $-1 #
vertex $-1 $708 $780 #
vertex $-1 $539 $781 #
straight-curve $-1 -47.188802758873258 -26.435772281453445 0 0 0 1 I I #
straight-curve $-1 -24.344401379436629 -20.490429363230568 -8.9287996762993735 1 0 0 I I #
straight-curve $-1 -24.344401379436629 -20.490429363230568 8.9287996762993735 -1 0 0 I I #
point $-1 -47.188802758873258 -20.490429363230568 8.9287996762993735 #
point $-1 -47.188802758873258 -20.490429363230568 -8.9287996762993735 #
straight-curve $-1 -50.188802758873258 -26.435772281453445 0 0 0 -1 I I #
edge $-1 $700 47.188802758873258 $550 50.188802758873258 $699 $782 forward 7 unknown #
point $-1 -50.188802758873258 -26.435772281453445 -8.9287996762993735 #
edge $-1 $553 -50.188802758873258 $701 -47.188802758873258 $698 $783 forward 7 unknown #
point $-1 -50.188802758873258 -26.435772281453445 8.9287996762993735 #
edge $-1 $713 25.041915462175592 $716 33.864142580433608 $558 $784 forward 7 unknown #
vertex $-1 $572 $785 #
straight-curve $-1 -63.013523279101534 -3.5615750904670431 8.9287996762993735 -1 0 0 I I #
edge $-1 $716 0.069442417992780392 $569 6.9148229269557451 $568 $786 forward 7 unknown #
vertex $-1 $715 $787 #
straight-curve $-1 -50.68880275887328 -3.5615750904670431 0.1065725580413357 0.66913059716165679 0 0.74314483375859142 I I #
point $-1 -42.745233979582792 -3.5615750904670431 8.9287996762993735 #
point $-1 -50.688802758873258 -10.406955599430008 0.10657255804135937 #
straight-curve $-1 -50.688802758873258 0 8.9287996762993735 0 -1 0 I I #
vertex $-1 $575 $788 #
point $-1 -45.192507345825597 -9.0378794976374159 3.8178266175916513 #
vertex $-1 $579 $789 #
point $-1 -45.192507345825597 -6.9842653449485255 3.8178266175916513 #
vertex $-1 $583 $790 #
point $-1 -45.192507345825597 -4.930651192259635 3.8178266175916513 #
coedge $-1 $598 $597 $590 $728 forward $587 $-1 #
edge $-1 $729 25.041915462175592 $732 33.864142580433608 $727 $791 forward 7 unknown #
vertex $-1 $602 $792 #
straight-curve $-1 -63.013523279101534 16.352298517652891 8.9287996762993735 -1 0 0 I I #
edge $-1 $732 -9.8874943860671856 $599 -3.0421138771042227 $598 $793 forward 7 unknown #
vertex $-1 $731 $794 #
straight-curve $-1 -50.68880275887328 16.352298517652891 0.1065725580413357 0.66913059716165679 0 0.74314483375859142 I I #
point $-1 -42.745233979582792 16.352298517652891 8.9287996762993735 #
point $-1 -50.688802758873258 9.5069180086899276 0.10657255804135937 #
straight-curve $-1 -50.688802758873258 0 8.9287996762993735 0 -1 0 I I #
vertex $-1 $605 $795 #
point $-1 -45.192507345825597 10.875994110482523 3.8178266175916513 #
vertex $-1 $609 $796 #
point $-1 -45.192507345825597 12.92960826317141 3.8178266175916513 #
vertex $-1 $613 $797 #
point $-1 -45.192507345825597 14.983222415860304 3.8178266175916513 #
coedge $-1 $628 $627 $620 $744 forward $617 $-1 #
edge $-1 $745 62.711037361840482 $748 71.533264480098509 $743 $798 forward 7 unknown #
vertex $-1 $632 $799 #
straight-curve $-1 29.096094419647233 -10.406955599430008 8.9287996762993771 1 0 0 I I #
edge $-1 $748 -6.9148229269557451 $629 -0.069442417992780392 $628 $800 forward 7 unknown #
vertex $-1 $747 $801 #
straight-curve $-1 -17.146054960035322 -10.406955599430008 75.444816357371124 -0.66913059716165679 0 0.74314483375859142 I I #
point $-1 42.745233979582785 -10.406955599430008 8.9287996762993771 #
point $-1 50.688802758873258 -3.5615750904670431 0.10657255804134991 #
straight-curve $-1 50.688802758873258 0 8.9287996762993735 0 1 0 I I #
vertex $-1 $635 $802 #
point $-1 45.861637942987265 -9.0378794976374159 3.0746817838330687 #
vertex $-1 $639 $803 #
point $-1 45.861637942987265 -6.9842653449485255 3.0746817838330687 #
vertex $-1 $643 $804 #
point $-1 45.861637942987265 -4.930651192259635 3.0746817838330687 #
edge $-1 $760 62.711037361840482 $763 71.533264480098509 $648 $805 forward 7 unknown #
vertex $-1 $662 $806 #
straight-curve $-1 29.096094419647233 9.5069180086899276 8.9287996762993771 1 0 0 I I #
edge $-1 $763 3.0421138771042227 $659 9.8874943860671856 $658 $807 forward 7 unknown #
vertex $-1 $762 $808 #
straight-curve $-1 -17.146054960035322 9.5069180086899276 75.444816357371124 -0.66913059716165679 0 0.74314483375859142 I I #
point $-1 42.745233979582785 9.5069180086899276 8.9287996762993771 #
point $-1 50.688802758873258 16.352298517652891 0.10657255804134991 #
straight-curve $-1 50.688802758873258 0 8.9287996762993735 0 1 0 I I #
vertex $-1 $665 $809 #
point $-1 45.861637942987265 10.875994110482523 3.0746817838330687 #
vertex $-1 $669 $810 #
point $-1 45.861637942987265 12.92960826317141 3.0746817838330687 #
vertex $-1 $673 $811 #
point $-1 45.861637942987265 14.983222415860304 3.0746817838330687 #
straight-curve $-1 -50.688802758873258 26.435772281453445 0 0 0 -1 I I #
point $-1 -50.688802758873258 -26.435772281453445 -8.9287996762993735 #
straight-curve $-1 -50.688802758873258 0 -8.9287996762993735 0 1 0 I I #
point $-1 -50.688802758873258 26.435772281453445 -8.9287996762993735 #
straight-curve $-1 -47.188802758873258 -11.731550411171003 8.9287996762993735 0 1 0 I I #
straight-curve $-1 -47.188802758873258 -11.731550411171003 -8.9287996762993735 0 -1 0 I I #
point $-1 -47.188802758873258 -26.435772281453445 -8.9287996762993735 #
point $-1 -47.188802758873258 -26.435772281453445 8.9287996762993735 #
straight-curve $-1 0 -26.435772281453445 -8.9287996762993735 -1 0 0 I I #
straight-curve $-1 0 -26.435772281453445 8.9287996762993735 1 0 0 I I #
straight-curve $-1 -50.688802758873258 -3.5615750904670431 33.970715138474965 0 0 -1 I I #
point $-1 -50.688802758873258 -3.5615750904670431 8.9287996762993735 #
straight-curve $-1 -50.688802758873258 -3.4921326724742627 0.10657255804135179 0 -1 0 I I #
point $-1 -50.688802758873258 -3.5615750904670431 0.10657255804135937 #
point $-1 -45.155500227527135 -9.0378794976374159 3.1116889021315273 #
point $-1 -45.155500227527135 -6.9842653449485255 3.1116889021315273 #
point $-1 -45.155500227527135 -4.930651192259635 3.1116889021315273 #
straight-curve $-1 -50.688802758873258 16.352298517652891 33.970715138474965 0 0 -1 I I #
point $-1 -50.688802758873258 16.352298517652891 8.9287996762993735 #
straight-curve $-1 -50.688802758873258 6.464804131585705 0.10657255804135179 0 -1 0 I I #
point $-1 -50.688802758873258 16.352298517652891 0.10657255804135937 #
point $-1 -45.155500227527135 10.875994110482523 3.1116889021315273 #
point $-1 -45.155500227527135 12.92960826317141 3.1116889021315273 #
point $-1 -45.155500227527135 14.983222415860304 3.1116889021315273 #
straight-curve $-1 50.688802758873258 -10.406955599430008 71.639837038139859 0 0 -1 I I #
point $-1 50.688802758873258 -10.406955599430008 8.9287996762993735 #
straight-curve $-1 50.688802758873265 -3.4921326724742627 0.10657255804134991 0 1 0 I I #
point $-1 50.688802758873258 -10.406955599430008 0.10657255804134991 #
point $-1 45.155500227527142 -9.0378794976374159 3.1116889021315361 #
point $-1 45.155500227527142 -6.9842653449485255 3.1116889021315361 #
point $-1 45.155500227527142 -4.930651192259635 3.1116889021315361 #
straight-curve $-1 50.688802758873258 9.5069180086899276 71.639837038139859 0 0 -1 I I #
point $-1 50.688802758873258 9.5069180086899276 8.9287996762993735 #
straight-curve $-1 50.688802758873265 6.464804131585705 0.10657255804134991 0 1 0 I I #
point $-1 50.688802758873258 9.5069180086899276 0.10657255804134991 #
point $-1 45.155500227527142 10.875994110482523 3.1116889021315361 #
point $-1 45.155500227527142 12.92960826317141 3.1116889021315361 #
point $-1 45.155500227527142 14.983222415860304 3.1116889021315361 #
End-of-ACIS-data 