500 0 4 0           
7 Unknown 11 ACIS 5.0 NT 24 Fri Mar 26 16:20:22 1999 
-1 9.9999999999999995e-007 1e-010 
body $-1 $4 $-1 $5 #
body $-1 $6 $-1 $7 #
body $-1 $8 $-1 $9 #
body $-1 $10 $-1 $11 #
lump $-1 $-1 $12 $0 #
transform $-1 1 0 0 0 1 0 0 0 1 42.87118137150182 29.94741797078095 8.7420284930667087 1 rotate no_reflect no_shear #
lump $-1 $-1 $13 $1 #
transform $-1 1 0 0 0 1 0 0 0 1 42.87118137150182 29.94741797078095 8.7420284930667087 1 rotate no_reflect no_shear #
lump $-1 $-1 $14 $2 #
transform $-1 1 0 0 0 1 0 0 0 1 42.87118137150182 29.94741797078095 8.7420284930667087 1 rotate no_reflect no_shear #
lump $-1 $-1 $15 $3 #
transform $-1 1 0 0 0 1 0 0 0 1 42.87118137150182 29.94741797078095 8.7420284930667087 1 rotate no_reflect no_shear #
shell $-1 $-1 $-1 $16 $-1 $4 #
shell $-1 $-1 $-1 $17 $-1 $6 #
shell $-1 $-1 $-1 $18 $-1 $8 #
shell $-1 $-1 $-1 $19 $-1 $10 #
face $-1 $20 $21 $12 $-1 $22 forward single #
face $-1 $23 $24 $13 $-1 $25 reversed single #
face $-1 $26 $27 $14 $-1 $28 forward single #
face $-1 $29 $30 $15 $-1 $31 reversed single #
face $-1 $32 $33 $12 $-1 $34 reversed single #
loop $-1 $-1 $35 $16 #
plane-surface $-1 0 0 8.7420284930667087 0 0 1 1 0 0 forward_v I I I I #
face $-1 $36 $37 $13 $-1 $38 forward single #
loop $-1 $-1 $39 $17 #
plane-surface $-1 0 -26.987712940995806 2.4386545918165936 0 0 1 1 0 0 forward_v I I I I #
face $-1 $40 $41 $14 $-1 $42 forward single #
loop $-1 $-1 $43 $18 #
plane-surface $-1 -102.43283205357923 -1.0919730426335548 65.475128913929183 0 1 0 -0.69465837861970381 0 0.71933979245794832 forward_v I I I I #
face $-1 $44 $45 $15 $-1 $46 reversed single #
loop $-1 $47 $48 $19 #
cone-surface $-1 -39.399480358652227 6.5966917205665574 5.3257880232321817 0.69465837861970381 0 -0.71933979245794832 0.71933979245794832 0 0.69465837861970381 1 I I 0 1 1 forward I I I I #
face $-1 $49 $50 $12 $-1 $51 reversed single #
loop $-1 $-1 $52 $20 #
plane-surface $-1 0 0 -8.7420284930667087 0 0 1 1 0 0 forward_v I I I I #
coedge $-1 $53 $54 $55 $56 forward $21 $-1 #
face $-1 $57 $58 $13 $-1 $59 forward single #
loop $-1 $-1 $60 $23 #
plane-surface $-1 0 -26.987712940995806 -0.56134540818340639 0 0 1 1 0 0 forward_v I I I I #
coedge $-1 $61 $62 $63 $64 reversed $24 $-1 #
face $-1 $65 $66 $14 $-1 $67 forward single #
loop $-1 $-1 $68 $26 #
plane-surface $-1 -42.871181371501827 6.5966917205665503 3.7972354935228267 -0.69465837861970381 0 0.71933979245794832 0.71933979245794832 0 0.69465837861970381 forward_v I I I I #
coedge $-1 $69 $70 $71 $72 reversed $27 $-1 #
face $-1 $73 $74 $15 $-1 $75 forward single #
loop $-1 $76 $77 $29 #
cone-surface $-1 -38.140691621590484 6.5966917205665574 4.02227415694062 0.69465837861970381 0 -0.71933979245794832 0.35966989622897416 0 0.3473291893098519 1 I I -0.70710678118654746 0.70710678118654746 0.5 forward I I I I #
loop $-1 $-1 $78 $19 #
coedge $-1 $48 $48 $79 $80 reversed $30 $-1 #
face $-1 $81 $82 $12 $-1 $83 reversed single #
loop $-1 $-1 $84 $32 #
plane-surface $-1 0 -29.94741797078095 0 0 1 0 0 0 1 forward_v I I I I #
coedge $-1 $85 $86 $87 $88 forward $33 $-1 #
coedge $-1 $89 $35 $90 $91 forward $21 $-1 #
coedge $-1 $35 $89 $92 $93 forward $21 $-1 #
coedge $-1 $94 $95 $35 $56 reversed $96 $-1 #
edge $-1 $97 -29.94741797078095 $98 29.94741797078095 $55 $99 forward 7 unknown #
face $-1 $100 $101 $13 $-1 $102 reversed single #
loop $-1 $-1 $103 $36 #
plane-surface $-1 0 -24.028007911210665 0.93865459181659361 0 -1 0 0 0 -1 forward_v I I I I #
coedge $-1 $104 $105 $106 $107 reversed $37 $-1 #
coedge $-1 $108 $39 $109 $110 reversed $24 $-1 #
coedge $-1 $39 $108 $111 $112 reversed $24 $-1 #
coedge $-1 $113 $114 $39 $64 forward $101 $-1 #
edge $-1 $115 -16.453561500283044 $116 -10.534151440712762 $63 $117 forward 7 unknown #
face $-1 $118 $119 $14 $-1 $120 forward single #
loop $-1 $-1 $121 $40 #
plane-surface $-1 -102.43283205357923 14.285356483766655 65.475128913929183 0 -1 0 0.69465837861970381 0 -0.71933979245794832 forward_v I I I I #
coedge $-1 $122 $123 $124 $125 reversed $41 $-1 #
coedge $-1 $70 $43 $123 $126 forward $27 $-1 #
coedge $-1 $43 $69 $127 $128 reversed $27 $-1 #
coedge $-1 $129 $124 $43 $72 forward $119 $-1 #
edge $-1 $130 -13.465717585483198 $131 -8.345234655287797 $71 $132 forward 7 unknown #
face $-1 $133 $134 $15 $-1 $135 forward single #
loop $-1 $-1 $136 $44 #
plane-surface $-1 -102.43283205357923 -1.0919730426335548 65.475128913929183 0 1 0 -0.69465837861970381 0 0.71933979245794832 forward_v I I I I #
loop $-1 $-1 $137 $29 #
coedge $-1 $77 $77 $78 $138 forward $45 $-1 #
coedge $-1 $78 $78 $77 $138 reversed $47 $-1 #
coedge $-1 $79 $79 $48 $80 forward $134 $-1 #
edge $-1 $139 0 $139 6.2831853071796004 $79 $140 forward 7 unknown #
face $-1 $141 $142 $12 $-1 $143 reversed single #
loop $-1 $-1 $144 $49 #
plane-surface $-1 -42.87118137150182 0 0 1 0 0 0 0 -1 forward_v I I I I #
coedge $-1 $145 $92 $146 $147 forward $50 $-1 #
coedge $-1 $148 $52 $145 $149 forward $33 $-1 #
coedge $-1 $52 $148 $150 $151 forward $33 $-1 #
coedge $-1 $95 $94 $52 $88 reversed $96 $-1 #
edge $-1 $152 -29.94741797078095 $153 29.94741797078095 $87 $154 forward 7 unknown #
coedge $-1 $54 $53 $155 $156 forward $21 $-1 #
coedge $-1 $157 $158 $53 $91 reversed $142 $-1 #
edge $-1 $98 -42.87118137150182 $159 42.87118137150182 $90 $160 forward 7 unknown #
coedge $-1 $84 $161 $54 $93 reversed $50 $-1 #
edge $-1 $162 -42.87118137150182 $97 42.87118137150182 $92 $163 forward 7 unknown #
coedge $-1 $87 $55 $161 $164 forward $96 $-1 #
coedge $-1 $55 $87 $157 $165 reversed $96 $-1 #
loop $-1 $-1 $94 $141 #
vertex $-1 $56 $166 #
vertex $-1 $56 $167 #
straight-curve $-1 42.87118137150182 0 8.7420284930667087 0 1 0 I I #
face $-1 $168 $169 $13 $-1 $170 reversed single #
loop $-1 $-1 $63 $57 #
plane-surface $-1 42.87118137150182 0 0 -1 0 0 0 0 1 forward_v I I I I #
coedge $-1 $111 $171 $113 $172 reversed $58 $-1 #
coedge $-1 $173 $60 $171 $174 reversed $37 $-1 #
coedge $-1 $60 $173 $175 $176 reversed $37 $-1 #
coedge $-1 $177 $113 $60 $107 forward $101 $-1 #
edge $-1 $178 10.534151440712762 $179 16.453561500283044 $106 $180 forward 7 unknown #
coedge $-1 $62 $61 $181 $182 reversed $24 $-1 #
coedge $-1 $183 $184 $61 $110 forward $185 $-1 #
edge $-1 $186 -42.87118137150182 $115 42.87118137150182 $109 $187 forward 7 unknown #
coedge $-1 $188 $103 $62 $112 forward $58 $-1 #
edge $-1 $116 -42.87118137150182 $189 42.87118137150182 $111 $190 forward 7 unknown #
coedge $-1 $106 $63 $103 $172 forward $101 $-1 #
coedge $-1 $63 $191 $183 $192 forward $101 $-1 #
vertex $-1 $110 $193 #
vertex $-1 $64 $194 #
straight-curve $-1 42.87118137150182 -13.493856470497903 2.4386545918165936 0 1 0 I I #
face $-1 $195 $196 $14 $-1 $197 reversed single #
loop $-1 $-1 $198 $65 #
plane-surface $-1 0 0 8.7420284930667087 0 0 1 1 0 0 forward_v I I I I #
coedge $-1 $199 $200 $198 $201 reversed $66 $-1 #
coedge $-1 $202 $68 $200 $203 reversed $41 $-1 #
coedge $-1 $68 $202 $69 $126 reversed $41 $-1 #
coedge $-1 $71 $198 $68 $125 forward $119 $-1 #
edge $-1 $204 -10.98701062348338 $130 4.3903189029168299 $124 $205 forward 7 unknown #
edge $-1 $130 -7.1183090159644467 $206 -9.7385709978959816e-015 $69 $207 forward 7 unknown #
coedge $-1 $208 $209 $70 $128 forward $210 $-1 #
edge $-1 $131 23.995535963897883 $206 28.940328963441758 $127 $211 forward 7 unknown #
coedge $-1 $212 $71 $209 $213 forward $119 $-1 #
vertex $-1 $125 $214 #
vertex $-1 $213 $215 #
straight-curve $-1 -51.216416026789616 -1.0919730426335548 8.7420284930667087 -1 0 0 I I #
face $-1 $216 $217 $15 $-1 $218 forward single #
loop $-1 $219 $79 $73 #
plane-surface $-1 -42.871181371501827 6.5966917205665503 3.7972354935228267 -0.69465837861970381 0 0.71933979245794832 0.71933979245794832 0 0.69465837861970381 forward_v I I I I #
coedge $-1 $220 $221 $222 $223 reversed $74 $-1 #
coedge $-1 $137 $137 $-1 $224 forward $76 $-1 #
edge $-1 $225 0 $225 6.2831853071796004 $77 $226 forward 7 unknown #
vertex $-1 $80 $227 #
ellipse-curve $-1 -40.310939906404123 6.5966917205665574 6.2696319932947704 0.69465837861970381 0 -0.71933979245794832 0.71933979245794832 0 0.69465837861970381 1 I I #
face $-1 $-1 $96 $12 $-1 $228 reversed single #
loop $-1 $-1 $157 $81 #
plane-surface $-1 0 29.94741797078095 0 0 -1 0 0 0 -1 forward_v I I I I #
coedge $-1 $229 $155 $158 $230 forward $82 $-1 #
coedge $-1 $161 $84 $85 $149 reversed $50 $-1 #
coedge $-1 $155 $229 $84 $147 reversed $82 $-1 #
edge $-1 $162 -8.7420284930667087 $231 8.7420284930667087 $146 $232 forward 7 unknown #
coedge $-1 $86 $85 $229 $233 forward $33 $-1 #
edge $-1 $153 -42.87118137150182 $231 42.87118137150182 $145 $234 forward 7 unknown #
coedge $-1 $158 $157 $86 $151 reversed $142 $-1 #
edge $-1 $235 -42.87118137150182 $152 42.87118137150182 $150 $236 forward 7 unknown #
vertex $-1 $88 $237 #
vertex $-1 $164 $238 #
straight-curve $-1 42.87118137150182 0 -8.7420284930667087 0 -1 0 I I #
coedge $-1 $144 $146 $89 $156 reversed $82 $-1 #
edge $-1 $159 -29.94741797078095 $162 29.94741797078095 $155 $239 forward 7 unknown #
coedge $-1 $150 $90 $95 $165 forward $142 $-1 #
coedge $-1 $90 $150 $144 $230 reversed $142 $-1 #
vertex $-1 $91 $240 #
straight-curve $-1 0 29.94741797078095 8.7420284930667087 -1 0 0 I I #
coedge $-1 $92 $145 $94 $164 reversed $50 $-1 #
vertex $-1 $156 $241 #
straight-curve $-1 0 -29.94741797078095 8.7420284930667087 1 0 0 I I #
edge $-1 $97 -8.7420284930667087 $153 8.7420284930667087 $94 $242 forward 7 unknown #
edge $-1 $98 -8.7420284930667087 $152 8.7420284930667087 $95 $243 forward 7 unknown #
point $-1 42.87118137150182 -29.94741797078095 8.7420284930667087 #
point $-1 42.87118137150182 29.94741797078095 8.7420284930667087 #
face $-1 $244 $245 $13 $-1 $246 forward single #
loop $-1 $-1 $175 $100 #
plane-surface $-1 0 -29.94741797078095 0 0 1 0 0 0 1 forward_v I I I I #
coedge $-1 $103 $188 $104 $174 forward $58 $-1 #
edge $-1 $116 -1.9693272959082968 $178 1.0306727040917032 $113 $247 forward 7 unknown #
coedge $-1 $105 $104 $248 $249 reversed $37 $-1 #
edge $-1 $250 -42.87118137150182 $178 42.87118137150182 $171 $251 forward 7 unknown #
coedge $-1 $252 $253 $105 $176 forward $169 $-1 #
edge $-1 $179 -42.87118137150182 $254 42.87118137150182 $175 $255 forward 7 unknown #
coedge $-1 $256 $106 $253 $257 forward $101 $-1 #
vertex $-1 $107 $258 #
vertex $-1 $257 $259 #
straight-curve $-1 42.87118137150182 -13.493856470497903 -0.56134540818340639 0 -1 0 I I #
coedge $-1 $260 $261 $108 $182 forward $262 $-1 #
edge $-1 $189 10.534151440712762 $186 16.453561500283044 $181 $263 forward 7 unknown #
coedge $-1 $264 $109 $114 $192 reversed $185 $-1 #
coedge $-1 $109 $264 $260 $265 forward $185 $-1 #
loop $-1 $-1 $109 $266 #
vertex $-1 $182 $267 #
straight-curve $-1 0 -29.94741797078095 2.4386545918165936 1 0 0 I I #
coedge $-1 $171 $111 $261 $268 reversed $58 $-1 #
vertex $-1 $182 $269 #
straight-curve $-1 0 -24.028007911210665 2.4386545918165936 -1 0 0 I I #
coedge $-1 $114 $270 $271 $272 reversed $101 $-1 #
edge $-1 $273 -8.7420284930667087 $115 -2.4386545918165936 $114 $274 forward 7 unknown #
point $-1 42.87118137150182 -29.947417970780947 2.4386545918165936 #
point $-1 42.87118137150182 -24.028007911210665 2.4386545918165936 #
face $-1 $275 $276 $14 $-1 $277 forward single #
loop $-1 $-1 $278 $118 #
plane-surface $-1 0 -26.987712940995806 2.4386545918165936 0 0 1 1 0 0 forward_v I I I I #
coedge $-1 $124 $279 $121 $201 forward $119 $-1 #
coedge $-1 $200 $121 $280 $281 reversed $66 $-1 #
coedge $-1 $121 $199 $122 $203 forward $66 $-1 #
edge $-1 $282 8.345234655287797 $204 13.465717585483198 $198 $283 forward 7 unknown #
coedge $-1 $123 $122 $208 $284 reversed $41 $-1 #
edge $-1 $285 9.7385709978959816e-015 $204 7.1183090159644467 $200 $286 forward 7 unknown #
vertex $-1 $125 $287 #
straight-curve $-1 -37.750698441306419 3.2983458602832751 8.7420284930667087 0 -1 0 I I #
vertex $-1 $284 $288 #
straight-curve $-1 -42.871181371501827 -1.0919730426335548 3.7972354935228267 -0.71933979245794832 0 -0.69465837861970381 I I #
coedge $-1 $280 $127 $202 $284 forward $210 $-1 #
coedge $-1 $127 $289 $129 $213 reversed $210 $-1 #
loop $-1 $-1 $280 $290 #
straight-curve $-1 -42.87118137150182 -1.0919730426335548 32.737564456964591 0 0 -1 I I #
coedge $-1 $291 $129 $292 $293 forward $119 $-1 #
edge $-1 $131 1.0919730426335548 $294 29.94741797078095 $209 $295 forward 7 unknown #
point $-1 -37.750698441306419 -1.0919730426335548 8.7420284930667087 #
point $-1 -42.87118137150182 -1.0919730426335548 8.7420284930667087 #
face $-1 $296 $297 $15 $-1 $298 forward single #
loop $-1 $-1 $299 $133 #
plane-surface $-1 -102.43283205357923 14.285356483766655 65.475128913929183 0 -1 0 0.69465837861970381 0 -0.71933979245794832 forward_v I I I I #
loop $-1 $-1 $300 $73 #
coedge $-1 $221 $136 $301 $302 forward $74 $-1 #
coedge $-1 $136 $220 $303 $304 reversed $74 $-1 #
coedge $-1 $305 $306 $136 $223 forward $297 $-1 #
edge $-1 $307 -13.465717585483198 $308 -8.345234655287797 $222 $309 forward 7 unknown #
edge $-1 $310 1 $310 0 $137 $-1 forward 7 unknown #
vertex $-1 $138 $311 #
ellipse-curve $-1 -38.488020810900338 6.5966917205665574 4.3819440531695939 -0.69465837861970381 0 0.71933979245794832 0.71933979245794832 0 0.69465837861970381 1 I I #
point $-1 -39.591600113946171 6.5966917205665574 6.9642903719144726 #
plane-surface $-1 42.87118137150182 0 0 -1 0 0 0 0 1 forward_v I I I I #
coedge $-1 $146 $144 $148 $233 reversed $82 $-1 #
edge $-1 $159 -8.7420284930667087 $235 8.7420284930667087 $158 $312 forward 7 unknown #
vertex $-1 $233 $313 #
straight-curve $-1 -42.87118137150182 -29.94741797078095 0 0 0 -1 I I #
edge $-1 $231 -29.94741797078095 $235 29.94741797078095 $229 $314 forward 7 unknown #
straight-curve $-1 0 -29.94741797078095 -8.7420284930667087 -1 0 0 I I #
vertex $-1 $151 $315 #
straight-curve $-1 0 29.94741797078095 -8.7420284930667087 1 0 0 I I #
point $-1 42.87118137150182 29.94741797078095 -8.7420284930667087 #
point $-1 42.87118137150182 -29.94741797078095 -8.7420284930667087 #
straight-curve $-1 -42.87118137150182 0 8.7420284930667087 0 -1 0 I I #
point $-1 -42.87118137150182 29.94741797078095 8.7420284930667087 #
point $-1 -42.87118137150182 -29.94741797078095 8.7420284930667087 #
straight-curve $-1 42.87118137150182 -29.94741797078095 0 0 0 -1 I I #
straight-curve $-1 42.87118137150182 29.94741797078095 0 0 0 -1 I I #
face $-1 $266 $316 $13 $-1 $317 reversed single #
loop $-1 $-1 $271 $168 #
plane-surface $-1 0 0 8.7420284930667087 0 0 1 1 0 0 forward_v I I I I #
straight-curve $-1 42.87118137150182 -24.028007911210665 0.4693272959082968 0 0 -1 I I #
coedge $-1 $261 $318 $173 $249 forward $262 $-1 #
edge $-1 $254 -16.453561500283044 $250 -10.534151440712762 $248 $319 forward 7 unknown #
vertex $-1 $249 $320 #
straight-curve $-1 0 -24.028007911210665 -0.56134540818340639 1 0 0 I I #
coedge $-1 $321 $175 $318 $322 forward $169 $-1 #
coedge $-1 $175 $321 $177 $257 reversed $169 $-1 #
vertex $-1 $322 $323 #
straight-curve $-1 0 -29.94741797078095 -0.56134540818340639 -1 0 0 I I #
coedge $-1 $270 $177 $324 $325 reversed $101 $-1 #
edge $-1 $179 0.56134540818340639 $326 8.7420284930667087 $177 $274 forward 7 unknown #
point $-1 42.87118137150182 -24.028007911210665 -0.56134540818340639 #
point $-1 42.87118137150182 -29.947417970780947 -0.56134540818340639 #
coedge $-1 $327 $181 $184 $265 reversed $262 $-1 #
coedge $-1 $181 $248 $188 $268 forward $262 $-1 #
loop $-1 $-1 $181 $328 #
straight-curve $-1 -42.87118137150182 -13.493856470497903 2.4386545918165936 0 -1 0 I I #
coedge $-1 $184 $183 $329 $330 reversed $185 $-1 #
edge $-1 $331 -8.7420284930667087 $186 -2.4386545918165936 $260 $332 forward 7 unknown #
face $-1 $328 $185 $13 $-1 $170 reversed single #
point $-1 -42.87118137150182 -29.947417970780947 2.4386545918165936 #
edge $-1 $250 -1.0306727040917032 $189 1.9693272959082968 $261 $333 forward 7 unknown #
point $-1 -42.87118137150182 -24.028007911210665 2.4386545918165936 #
coedge $-1 $191 $256 $334 $335 reversed $101 $-1 #
coedge $-1 $336 $329 $191 $272 forward $245 $-1 #
edge $-1 $273 -29.94741797078095 $337 29.94741797078095 $191 $338 forward 7 unknown #
vertex $-1 $272 $339 #
straight-curve $-1 42.87118137150182 -29.94741797078095 0 0 0 -1 I I #
face $-1 $340 $341 $14 $-1 $342 forward single #
loop $-1 $-1 $343 $195 #
plane-surface $-1 0 -26.987712940995806 -0.56134540818340639 0 0 1 1 0 0 forward_v I I I I #
coedge $-1 $344 $345 $346 $347 reversed $196 $-1 #
coedge $-1 $198 $348 $349 $350 forward $119 $-1 #
coedge $-1 $349 $208 $199 $281 forward $210 $-1 #
edge $-1 $285 -28.940328963441758 $282 -23.995535963897883 $280 $351 forward 7 unknown #
vertex $-1 $281 $352 #
straight-curve $-1 -51.216416026789616 14.285356483766655 8.7420284930667087 1 0 0 I I #
edge $-1 $206 -4.3903189029168299 $285 10.98701062348338 $208 $353 forward 7 unknown #
vertex $-1 $284 $354 #
straight-curve $-1 -42.871181371501827 14.285356483766655 3.7972354935228267 0.71933979245794832 0 0.69465837861970381 I I #
point $-1 -37.750698441306419 14.285356483766655 8.7420284930667087 #
point $-1 -42.87118137150182 -1.0919730426335548 3.7972354935228334 #
coedge $-1 $209 $355 $356 $357 reversed $210 $-1 #
face $-1 $358 $210 $14 $-1 $359 reversed single #
coedge $-1 $348 $212 $360 $361 forward $119 $-1 #
coedge $-1 $356 $362 $212 $293 reversed $363 $-1 #
edge $-1 $294 -42.87118137150182 $364 42.87118137150182 $292 $365 forward 7 unknown #
vertex $-1 $213 $366 #
straight-curve $-1 -42.87118137150182 0 8.7420284930667087 0 -1 0 I I #
face $-1 $367 $368 $15 $-1 $369 reversed single #
loop $-1 $-1 $370 $216 #
plane-surface $-1 0 0 8.7420284930667087 0 0 1 1 0 0 forward_v I I I I #
coedge $-1 $371 $372 $370 $373 reversed $217 $-1 #
coedge $-1 $374 $301 $306 $375 reversed $219 $-1 #
coedge $-1 $300 $376 $220 $302 reversed $219 $-1 #
edge $-1 $307 -7.1183090159644467 $377 -9.7385709978959816e-015 $220 $378 forward 7 unknown #
coedge $-1 $379 $380 $221 $304 forward $381 $-1 #
edge $-1 $308 23.995535963897883 $377 28.940328963441758 $303 $382 forward 7 unknown #
coedge $-1 $383 $222 $380 $384 forward $297 $-1 #
coedge $-1 $222 $370 $300 $375 forward $297 $-1 #
vertex $-1 $375 $385 #
vertex $-1 $384 $386 #
straight-curve $-1 -51.216416026789616 -1.0919730426335548 8.7420284930667087 -1 0 0 I I #
vertex $-1 $224 $387 #
point $-1 -37.768681018442386 6.5966917205665574 5.0766024317892979 #
straight-curve $-1 -42.87118137150182 29.94741797078095 0 0 0 -1 I I #
point $-1 -42.87118137150182 -29.94741797078095 -8.7420284930667087 #
straight-curve $-1 -42.87118137150182 0 -8.7420284930667087 0 1 0 I I #
point $-1 -42.87118137150182 29.94741797078095 -8.7420284930667087 #
loop $-1 $-1 $324 $244 #
plane-surface $-1 0 0 -8.7420284930667087 0 0 1 1 0 0 forward_v I I I I #
coedge $-1 $248 $388 $252 $322 reversed $262 $-1 #
straight-curve $-1 -42.87118137150182 -13.493856470497903 -0.56134540818340639 0 1 0 I I #
point $-1 -42.87118137150182 -24.028007911210665 -0.56134540818340639 #
coedge $-1 $253 $252 $389 $390 reversed $169 $-1 #
edge $-1 $254 0.56134540818340639 $391 8.7420284930667087 $318 $332 forward 7 unknown #
point $-1 -42.87118137150182 -29.947417970780947 -0.56134540818340639 #
coedge $-1 $389 $392 $256 $325 forward $316 $-1 #
edge $-1 $393 -29.94741797078095 $326 29.94741797078095 $256 $394 forward 7 unknown #
vertex $-1 $257 $395 #
coedge $-1 $396 $260 $397 $398 reversed $262 $-1 #
face $-1 $399 $262 $13 $-1 $400 reversed single #
coedge $-1 $271 $397 $264 $330 forward $245 $-1 #
edge $-1 $331 -42.87118137150182 $273 42.87118137150182 $264 $401 forward 7 unknown #
vertex $-1 $398 $402 #
straight-curve $-1 -42.87118137150182 -29.94741797078095 0 0 0 -1 I I #
straight-curve $-1 -42.87118137150182 -24.028007911210665 0.4693272959082968 0 0 1 I I #
coedge $-1 $403 $404 $270 $335 forward $405 $-1 #
edge $-1 $337 -8.7420284930667087 $393 8.7420284930667087 $270 $406 forward 7 unknown #
coedge $-1 $397 $271 $404 $407 forward $245 $-1 #
vertex $-1 $272 $408 #
straight-curve $-1 42.87118137150182 0 8.7420284930667087 0 1 0 I I #
point $-1 42.87118137150182 -29.94741797078095 8.7420284930667087 #
face $-1 $409 $410 $14 $-1 $411 reversed single #
loop $-1 $-1 $412 $275 #
plane-surface $-1 0 -24.028007911210665 0.93865459181659361 0 -1 0 0 0 -1 forward_v I I I I #
coedge $-1 $413 $414 $415 $416 reversed $276 $-1 #
coedge $-1 $417 $278 $418 $419 reversed $196 $-1 #
coedge $-1 $278 $417 $420 $421 reversed $196 $-1 #
coedge $-1 $422 $423 $278 $347 forward $410 $-1 #
edge $-1 $424 -16.453561500283044 $425 -10.534151440712762 $346 $426 forward 7 unknown #
coedge $-1 $279 $291 $427 $428 forward $119 $-1 #
coedge $-1 $429 $280 $279 $350 reversed $210 $-1 #
edge $-1 $430 -29.94741797078095 $282 -14.285356483766655 $349 $295 forward 7 unknown #
straight-curve $-1 -42.87118137150182 14.285356483766655 32.737564456964591 0 0 1 I I #
point $-1 -42.87118137150182 14.285356483766655 8.7420284930667087 #
straight-curve $-1 -42.87118137150182 3.2983458602832751 3.797235493522833 0 1 0 I I #
point $-1 -42.87118137150182 14.285356483766655 3.7972354935228334 #
coedge $-1 $289 $431 $417 $432 forward $210 $-1 #
coedge $-1 $418 $292 $289 $357 forward $363 $-1 #
edge $-1 $294 -8.7420284930667087 $433 -2.4386545918165936 $289 $434 forward 7 unknown #
face $-1 $-1 $435 $14 $-1 $436 reversed single #
plane-surface $-1 -42.87118137150182 0 0 1 0 0 0 0 -1 forward_v I I I I #
coedge $-1 $423 $437 $291 $361 reversed $410 $-1 #
edge $-1 $364 -29.94741797078095 $438 29.94741797078095 $360 $439 forward 7 unknown #
coedge $-1 $292 $418 $423 $440 reversed $363 $-1 #
loop $-1 $-1 $418 $441 #
vertex $-1 $361 $442 #
straight-curve $-1 0 -29.94741797078095 8.7420284930667087 1 0 0 I I #
point $-1 -42.87118137150182 -29.94741797078095 8.7420284930667087 #
face $-1 $443 $444 $15 $-1 $445 forward single #
loop $-1 $-1 $446 $296 #
plane-surface $-1 0 -26.987712940995806 2.4386545918165936 0 0 1 1 0 0 forward_v I I I I #
coedge $-1 $306 $447 $299 $373 forward $297 $-1 #
coedge $-1 $372 $299 $448 $449 reversed $217 $-1 #
coedge $-1 $299 $371 $374 $450 forward $217 $-1 #
edge $-1 $451 8.345234655287797 $452 13.465717585483198 $370 $453 forward 7 unknown #
coedge $-1 $376 $300 $372 $450 reversed $219 $-1 #
edge $-1 $452 -10.98701062348338 $307 4.3903189029168299 $306 $454 forward 7 unknown #
coedge $-1 $301 $374 $379 $455 reversed $219 $-1 #
vertex $-1 $455 $456 #
straight-curve $-1 -42.871181371501827 -1.0919730426335548 3.7972354935228267 -0.71933979245794832 0 -0.69465837861970381 I I #
coedge $-1 $448 $303 $376 $455 forward $381 $-1 #
coedge $-1 $303 $457 $305 $384 reversed $381 $-1 #
loop $-1 $-1 $448 $458 #
straight-curve $-1 -42.87118137150182 -1.0919730426335548 32.737564456964591 0 0 -1 I I #
coedge $-1 $459 $305 $460 $461 forward $297 $-1 #
edge $-1 $308 1.0919730426335548 $462 29.94741797078095 $380 $463 forward 7 unknown #
point $-1 -37.750698441306419 -1.0919730426335548 8.7420284930667087 #
point $-1 -42.87118137150182 -1.0919730426335548 8.7420284930667087 #
point $-1 -37.793362432280631 6.5966917205665574 3.662604260711646 #
coedge $-1 $318 $396 $464 $465 reversed $262 $-1 #
coedge $-1 $464 $324 $321 $390 forward $316 $-1 #
edge $-1 $326 -42.87118137150182 $391 42.87118137150182 $321 $466 forward 7 unknown #
vertex $-1 $465 $467 #
coedge $-1 $324 $464 $403 $468 forward $316 $-1 #
vertex $-1 $325 $469 #
straight-curve $-1 42.87118137150182 0 -8.7420284930667087 0 -1 0 I I #
point $-1 42.87118137150182 -29.94741797078095 -8.7420284930667087 #
coedge $-1 $388 $327 $470 $471 forward $262 $-1 #
coedge $-1 $329 $336 $327 $398 forward $245 $-1 #
edge $-1 $472 -29.94741797078095 $331 29.94741797078095 $327 $473 forward 7 unknown #
face $-1 $-1 $405 $13 $-1 $474 reversed single #
plane-surface $-1 -42.87118137150182 0 0 1 0 0 0 0 -1 forward_v I I I I #
straight-curve $-1 0 -29.94741797078095 8.7420284930667087 1 0 0 I I #
point $-1 -42.87118137150182 -29.94741797078095 8.7420284930667087 #
coedge $-1 $470 $334 $392 $468 reversed $405 $-1 #
coedge $-1 $334 $470 $336 $407 reversed $405 $-1 #
loop $-1 $-1 $334 $399 #
straight-curve $-1 42.87118137150182 29.94741797078095 0 0 0 -1 I I #
edge $-1 $337 -42.87118137150182 $472 42.87118137150182 $404 $475 forward 7 unknown #
point $-1 42.87118137150182 29.94741797078095 8.7420284930667087 #
face $-1 $476 $477 $14 $-1 $478 reversed single #
loop $-1 $-1 $346 $340 #
plane-surface $-1 42.87118137150182 0 0 -1 0 0 0 0 1 forward_v I I I I #
coedge $-1 $420 $479 $422 $480 reversed $341 $-1 #
coedge $-1 $481 $343 $479 $482 reversed $276 $-1 #
coedge $-1 $343 $481 $483 $484 reversed $276 $-1 #
coedge $-1 $485 $422 $343 $416 forward $410 $-1 #
edge $-1 $486 10.534151440712762 $487 16.453561500283044 $415 $488 forward 7 unknown #
coedge $-1 $345 $344 $355 $432 reversed $196 $-1 #
coedge $-1 $362 $356 $344 $419 forward $363 $-1 #
edge $-1 $433 -42.87118137150182 $424 42.87118137150182 $418 $489 forward 7 unknown #
coedge $-1 $490 $412 $345 $421 forward $341 $-1 #
edge $-1 $425 -42.87118137150182 $491 42.87118137150182 $420 $492 forward 7 unknown #
coedge $-1 $415 $346 $412 $480 forward $410 $-1 #
coedge $-1 $346 $360 $362 $440 forward $410 $-1 #
vertex $-1 $419 $493 #
vertex $-1 $347 $494 #
straight-curve $-1 42.87118137150182 -13.493856470497903 2.4386545918165936 0 1 0 I I #
coedge $-1 $495 $496 $348 $428 reversed $435 $-1 #
edge $-1 $438 -42.87118137150182 $430 42.87118137150182 $427 $497 forward 7 unknown #
coedge $-1 $498 $349 $496 $499 forward $210 $-1 #
vertex $-1 $428 $500 #
coedge $-1 $355 $501 $490 $502 forward $210 $-1 #
edge $-1 $491 10.534151440712762 $433 16.453561500283044 $355 $503 forward 7 unknown #
vertex $-1 $432 $504 #
straight-curve $-1 -42.87118137150182 -29.94741797078095 0 0 0 -1 I I #
loop $-1 $-1 $495 $358 #
plane-surface $-1 0 29.94741797078095 0 0 -1 0 0 0 -1 forward_v I I I I #
coedge $-1 $360 $505 $495 $506 reversed $410 $-1 #
vertex $-1 $361 $507 #
straight-curve $-1 42.87118137150182 0 8.7420284930667087 0 1 0 I I #
edge $-1 $364 -8.7420284930667087 $424 -2.4386545918165936 $423 $508 forward 7 unknown #
face $-1 $290 $363 $14 $-1 $478 reversed single #
point $-1 42.87118137150182 -29.94741797078095 8.7420284930667087 #
face $-1 $509 $510 $15 $-1 $511 forward single #
loop $-1 $-1 $512 $367 #
plane-surface $-1 0 -26.987712940995806 -0.56134540818340639 0 0 1 1 0 0 forward_v I I I I #
coedge $-1 $513 $514 $515 $516 reversed $368 $-1 #
coedge $-1 $370 $517 $518 $519 forward $297 $-1 #
coedge $-1 $518 $379 $371 $449 forward $381 $-1 #
edge $-1 $520 -28.940328963441758 $451 -23.995535963897883 $448 $521 forward 7 unknown #
edge $-1 $520 9.7385709978959816e-015 $452 7.1183090159644467 $372 $522 forward 7 unknown #
vertex $-1 $449 $523 #
vertex $-1 $375 $524 #
straight-curve $-1 -51.216416026789616 14.285356483766655 8.7420284930667087 1 0 0 I I #
straight-curve $-1 -37.750698441306419 3.2983458602832751 8.7420284930667087 0 -1 0 I I #
edge $-1 $377 -4.3903189029168299 $520 10.98701062348338 $379 $525 forward 7 unknown #
point $-1 -42.87118137150182 -1.0919730426335548 3.7972354935228334 #
coedge $-1 $380 $526 $527 $528 reversed $381 $-1 #
face $-1 $529 $381 $15 $-1 $530 reversed single #
coedge $-1 $517 $383 $531 $532 forward $297 $-1 #
coedge $-1 $527 $533 $383 $461 reversed $534 $-1 #
edge $-1 $462 -42.87118137150182 $535 42.87118137150182 $460 $536 forward 7 unknown #
vertex $-1 $384 $537 #
straight-curve $-1 -42.87118137150182 0 8.7420284930667087 0 -1 0 I I #
coedge $-1 $392 $389 $388 $465 forward $316 $-1 #
edge $-1 $391 -29.94741797078095 $538 29.94741797078095 $388 $539 forward 7 unknown #
straight-curve $-1 0 -29.94741797078095 -8.7420284930667087 -1 0 0 I I #
point $-1 -42.87118137150182 -29.94741797078095 -8.7420284930667087 #
edge $-1 $538 -42.87118137150182 $393 42.87118137150182 $403 $540 forward 7 unknown #
point $-1 42.87118137150182 29.94741797078095 -8.7420284930667087 #
coedge $-1 $404 $403 $396 $471 reversed $405 $-1 #
edge $-1 $472 -8.7420284930667087 $538 8.7420284930667087 $470 $541 forward 7 unknown #
vertex $-1 $407 $542 #
straight-curve $-1 -42.87118137150182 0 8.7420284930667087 0 -1 0 I I #
plane-surface $-1 0 29.94741797078095 0 0 -1 0 0 0 -1 forward_v I I I I #
straight-curve $-1 0 29.94741797078095 8.7420284930667087 -1 0 0 I I #
face $-1 $441 $543 $14 $-1 $544 reversed single #
loop $-1 $-1 $483 $409 #
plane-surface $-1 0 -29.94741797078095 0 0 1 0 0 0 1 forward_v I I I I #
coedge $-1 $412 $490 $413 $482 forward $341 $-1 #
edge $-1 $425 -1.9693272959082968 $486 1.0306727040917032 $422 $545 forward 7 unknown #
coedge $-1 $414 $413 $501 $546 reversed $276 $-1 #
edge $-1 $547 -42.87118137150182 $486 42.87118137150182 $479 $548 forward 7 unknown #
coedge $-1 $549 $550 $414 $484 forward $477 $-1 #
edge $-1 $487 -42.87118137150182 $551 42.87118137150182 $483 $552 forward 7 unknown #
coedge $-1 $505 $415 $550 $553 forward $410 $-1 #
vertex $-1 $416 $554 #
vertex $-1 $553 $555 #
straight-curve $-1 42.87118137150182 -13.493856470497903 -0.56134540818340639 0 -1 0 I I #
straight-curve $-1 0 -29.94741797078095 2.4386545918165936 1 0 0 I I #
coedge $-1 $479 $420 $431 $502 reversed $341 $-1 #
vertex $-1 $432 $556 #
straight-curve $-1 0 -24.028007911210665 2.4386545918165936 -1 0 0 I I #
point $-1 42.87118137150182 -29.947417970780947 2.4386545918165936 #
point $-1 42.87118137150182 -24.028007911210665 2.4386545918165936 #
coedge $-1 $557 $427 $437 $506 forward $435 $-1 #
coedge $-1 $427 $557 $429 $499 reversed $435 $-1 #
straight-curve $-1 0 29.94741797078095 8.7420284930667087 -1 0 0 I I #
coedge $-1 $558 $429 $559 $560 reversed $210 $-1 #
edge $-1 $430 -8.7420284930667087 $561 8.7420284930667087 $496 $562 forward 7 unknown #
point $-1 -42.87118137150182 29.94741797078095 8.7420284930667087 #
coedge $-1 $431 $558 $481 $546 forward $210 $-1 #
edge $-1 $547 -1.0306727040917032 $491 1.9693272959082968 $431 $563 forward 7 unknown #
straight-curve $-1 -42.87118137150182 -13.493856470497903 2.4386545918165936 0 -1 0 I I #
point $-1 -42.87118137150182 -29.947417970780947 2.4386545918165936 #
coedge $-1 $437 $485 $564 $565 reversed $410 $-1 #
edge $-1 $438 -8.7420284930667087 $566 8.7420284930667087 $437 $567 forward 7 unknown #
point $-1 42.87118137150182 29.94741797078095 8.7420284930667087 #
straight-curve $-1 42.87118137150182 -29.94741797078095 0 0 0 -1 I I #
face $-1 $568 $569 $15 $-1 $570 reversed single #
loop $-1 $-1 $571 $443 #
plane-surface $-1 0 -24.028007911210665 0.93865459181659361 0 -1 0 0 0 -1 forward_v I I I I #
coedge $-1 $572 $573 $574 $575 reversed $444 $-1 #
coedge $-1 $576 $446 $577 $578 reversed $368 $-1 #
coedge $-1 $446 $576 $579 $580 reversed $368 $-1 #
coedge $-1 $581 $582 $446 $516 forward $569 $-1 #
edge $-1 $583 -16.453561500283044 $584 -10.534151440712762 $515 $585 forward 7 unknown #
coedge $-1 $447 $459 $586 $587 forward $297 $-1 #
coedge $-1 $588 $448 $447 $519 reversed $381 $-1 #
edge $-1 $589 -29.94741797078095 $451 -14.285356483766655 $518 $463 forward 7 unknown #
vertex $-1 $455 $590 #
straight-curve $-1 -42.87118137150182 14.285356483766655 32.737564456964591 0 0 1 I I #
straight-curve $-1 -42.871181371501827 14.285356483766655 3.7972354935228267 0.71933979245794832 0 0.69465837861970381 I I #
point $-1 -42.87118137150182 14.285356483766655 8.7420284930667087 #
point $-1 -37.750698441306419 14.285356483766655 8.7420284930667087 #
straight-curve $-1 -42.87118137150182 3.2983458602832751 3.797235493522833 0 1 0 I I #
coedge $-1 $457 $591 $576 $592 forward $381 $-1 #
coedge $-1 $577 $460 $457 $528 forward $534 $-1 #
edge $-1 $462 -8.7420284930667087 $593 -2.4386545918165936 $457 $594 forward 7 unknown #
face $-1 $-1 $595 $15 $-1 $596 reversed single #
plane-surface $-1 -42.87118137150182 0 0 1 0 0 0 0 -1 forward_v I I I I #
coedge $-1 $582 $597 $459 $532 reversed $569 $-1 #
edge $-1 $535 -29.94741797078095 $598 29.94741797078095 $531 $599 forward 7 unknown #
coedge $-1 $460 $577 $582 $600 reversed $534 $-1 #
loop $-1 $-1 $577 $601 #
vertex $-1 $532 $602 #
straight-curve $-1 0 -29.94741797078095 8.7420284930667087 1 0 0 I I #
point $-1 -42.87118137150182 -29.94741797078095 8.7420284930667087 #
vertex $-1 $468 $603 #
straight-curve $-1 -42.87118137150182 0 -8.7420284930667087 0 1 0 I I #
straight-curve $-1 0 29.94741797078095 -8.7420284930667087 1 0 0 I I #
straight-curve $-1 -42.87118137150182 29.94741797078095 0 0 0 -1 I I #
point $-1 -42.87118137150182 29.94741797078095 8.7420284930667087 #
loop $-1 $-1 $564 $476 #
plane-surface $-1 0 0 -8.7420284930667087 0 0 1 1 0 0 forward_v I I I I #
straight-curve $-1 42.87118137150182 -24.028007911210665 0.4693272959082968 0 0 -1 I I #
edge $-1 $551 -16.453561500283044 $547 -10.534151440712762 $501 $604 forward 7 unknown #
vertex $-1 $546 $605 #
straight-curve $-1 0 -24.028007911210665 -0.56134540818340639 1 0 0 I I #
coedge $-1 $606 $483 $558 $607 forward $477 $-1 #
coedge $-1 $483 $606 $485 $553 reversed $477 $-1 #
vertex $-1 $607 $608 #
straight-curve $-1 0 -29.94741797078095 -0.56134540818340639 -1 0 0 I I #
edge $-1 $487 0.56134540818340639 $609 8.7420284930667087 $485 $508 forward 7 unknown #
point $-1 42.87118137150182 -24.028007911210665 -0.56134540818340639 #
point $-1 42.87118137150182 -29.947417970780947 -0.56134540818340639 #
point $-1 -42.87118137150182 -24.028007911210665 2.4386545918165936 #
coedge $-1 $496 $495 $610 $611 reversed $435 $-1 #
coedge $-1 $501 $498 $549 $607 reversed $210 $-1 #
coedge $-1 $610 $612 $498 $560 forward $543 $-1 #
edge $-1 $613 -29.94741797078095 $561 29.94741797078095 $498 $614 forward 7 unknown #
vertex $-1 $611 $615 #
straight-curve $-1 -42.87118137150182 29.94741797078095 0 0 0 -1 I I #
straight-curve $-1 -42.87118137150182 -24.028007911210665 0.4693272959082968 0 0 1 I I #
coedge $-1 $612 $610 $505 $565 forward $543 $-1 #
edge $-1 $566 -29.94741797078095 $609 29.94741797078095 $505 $616 forward 7 unknown #
vertex $-1 $565 $617 #
straight-curve $-1 42.87118137150182 29.94741797078095 0 0 0 -1 I I #
face $-1 $618 $619 $15 $-1 $620 reversed single #
loop $-1 $-1 $515 $509 #
plane-surface $-1 42.87118137150182 0 0 -1 0 0 0 0 1 forward_v I I I I #
coedge $-1 $579 $621 $581 $622 reversed $510 $-1 #
coedge $-1 $623 $512 $621 $624 reversed $444 $-1 #
coedge $-1 $512 $623 $625 $626 reversed $444 $-1 #
coedge $-1 $627 $581 $512 $575 forward $569 $-1 #
edge $-1 $628 10.534151440712762 $629 16.453561500283044 $574 $630 forward 7 unknown #
coedge $-1 $514 $513 $526 $592 reversed $368 $-1 #
coedge $-1 $533 $527 $513 $578 forward $534 $-1 #
edge $-1 $593 -42.87118137150182 $583 42.87118137150182 $577 $631 forward 7 unknown #
coedge $-1 $632 $571 $514 $580 forward $510 $-1 #
edge $-1 $584 -42.87118137150182 $633 42.87118137150182 $579 $634 forward 7 unknown #
coedge $-1 $574 $515 $571 $622 forward $569 $-1 #
coedge $-1 $515 $531 $533 $600 forward $569 $-1 #
vertex $-1 $578 $635 #
vertex $-1 $516 $636 #
straight-curve $-1 42.87118137150182 -13.493856470497903 2.4386545918165936 0 1 0 I I #
coedge $-1 $637 $638 $517 $587 reversed $595 $-1 #
edge $-1 $598 -42.87118137150182 $589 42.87118137150182 $586 $639 forward 7 unknown #
coedge $-1 $640 $518 $638 $641 forward $381 $-1 #
vertex $-1 $587 $642 #
point $-1 -42.87118137150182 14.285356483766655 3.7972354935228334 #
coedge $-1 $526 $643 $632 $644 forward $381 $-1 #
edge $-1 $633 10.534151440712762 $593 16.453561500283044 $526 $645 forward 7 unknown #
vertex $-1 $592 $646 #
straight-curve $-1 -42.87118137150182 -29.94741797078095 0 0 0 -1 I I #
loop $-1 $-1 $637 $529 #
plane-surface $-1 0 29.94741797078095 0 0 -1 0 0 0 -1 forward_v I I I I #
coedge $-1 $531 $647 $637 $648 reversed $569 $-1 #
vertex $-1 $532 $649 #
straight-curve $-1 42.87118137150182 0 8.7420284930667087 0 1 0 I I #
edge $-1 $535 -8.7420284930667087 $583 -2.4386545918165936 $582 $650 forward 7 unknown #
face $-1 $458 $534 $15 $-1 $620 reversed single #
point $-1 42.87118137150182 -29.94741797078095 8.7420284930667087 #
point $-1 -42.87118137150182 29.94741797078095 -8.7420284930667087 #
straight-curve $-1 -42.87118137150182 -13.493856470497903 -0.56134540818340639 0 1 0 I I #
point $-1 -42.87118137150182 -24.028007911210665 -0.56134540818340639 #
coedge $-1 $550 $549 $612 $651 reversed $477 $-1 #
edge $-1 $551 0.56134540818340639 $613 8.7420284930667087 $558 $434 forward 7 unknown #
point $-1 -42.87118137150182 -29.947417970780947 -0.56134540818340639 #
vertex $-1 $553 $652 #
coedge $-1 $564 $559 $557 $611 forward $543 $-1 #
edge $-1 $561 -42.87118137150182 $566 42.87118137150182 $557 $653 forward 7 unknown #
coedge $-1 $559 $564 $606 $651 forward $543 $-1 #
vertex $-1 $560 $654 #
straight-curve $-1 -42.87118137150182 0 -8.7420284930667087 0 1 0 I I #
point $-1 -42.87118137150182 29.94741797078095 -8.7420284930667087 #
straight-curve $-1 42.87118137150182 0 -8.7420284930667087 0 -1 0 I I #
point $-1 42.87118137150182 29.94741797078095 -8.7420284930667087 #
face $-1 $601 $655 $15 $-1 $656 reversed single #
loop $-1 $-1 $625 $568 #
plane-surface $-1 0 -29.94741797078095 0 0 1 0 0 0 1 forward_v I I I I #
coedge $-1 $571 $632 $572 $624 forward $510 $-1 #
edge $-1 $584 -1.9693272959082968 $628 1.0306727040917032 $581 $657 forward 7 unknown #
coedge $-1 $573 $572 $643 $658 reversed $444 $-1 #
edge $-1 $659 -42.87118137150182 $628 42.87118137150182 $621 $660 forward 7 unknown #
coedge $-1 $661 $662 $573 $626 forward $619 $-1 #
edge $-1 $629 -42.87118137150182 $663 42.87118137150182 $625 $664 forward 7 unknown #
coedge $-1 $647 $574 $662 $665 forward $569 $-1 #
vertex $-1 $575 $666 #
vertex $-1 $665 $667 #
straight-curve $-1 42.87118137150182 -13.493856470497903 -0.56134540818340639 0 -1 0 I I #
straight-curve $-1 0 -29.94741797078095 2.4386545918165936 1 0 0 I I #
coedge $-1 $621 $579 $591 $644 reversed $510 $-1 #
vertex $-1 $592 $668 #
straight-curve $-1 0 -24.028007911210665 2.4386545918165936 -1 0 0 I I #
point $-1 42.87118137150182 -29.947417970780947 2.4386545918165936 #
point $-1 42.87118137150182 -24.028007911210665 2.4386545918165936 #
coedge $-1 $669 $586 $597 $648 forward $595 $-1 #
coedge $-1 $586 $669 $588 $641 reversed $595 $-1 #
straight-curve $-1 0 29.94741797078095 8.7420284930667087 -1 0 0 I I #
coedge $-1 $670 $588 $671 $672 reversed $381 $-1 #
edge $-1 $589 -8.7420284930667087 $673 8.7420284930667087 $638 $674 forward 7 unknown #
point $-1 -42.87118137150182 29.94741797078095 8.7420284930667087 #
coedge $-1 $591 $670 $623 $658 forward $381 $-1 #
edge $-1 $659 -1.0306727040917032 $633 1.9693272959082968 $591 $675 forward 7 unknown #
straight-curve $-1 -42.87118137150182 -13.493856470497903 2.4386545918165936 0 -1 0 I I #
point $-1 -42.87118137150182 -29.947417970780947 2.4386545918165936 #
coedge $-1 $597 $627 $676 $677 reversed $569 $-1 #
edge $-1 $598 -8.7420284930667087 $678 8.7420284930667087 $597 $679 forward 7 unknown #
point $-1 42.87118137150182 29.94741797078095 8.7420284930667087 #
straight-curve $-1 42.87118137150182 -29.94741797078095 0 0 0 -1 I I #
edge $-1 $609 -42.87118137150182 $613 42.87118137150182 $606 $680 forward 7 unknown #
point $-1 42.87118137150182 -29.94741797078095 -8.7420284930667087 #
straight-curve $-1 0 29.94741797078095 -8.7420284930667087 1 0 0 I I #
point $-1 -42.87118137150182 -29.94741797078095 -8.7420284930667087 #
loop $-1 $-1 $676 $618 #
plane-surface $-1 0 0 -8.7420284930667087 0 0 1 1 0 0 forward_v I I I I #
straight-curve $-1 42.87118137150182 -24.028007911210665 0.4693272959082968 0 0 -1 I I #
edge $-1 $663 -16.453561500283044 $659 -10.534151440712762 $643 $681 forward 7 unknown #
vertex $-1 $658 $682 #
straight-curve $-1 0 -24.028007911210665 -0.56134540818340639 1 0 0 I I #
coedge $-1 $683 $625 $670 $684 forward $619 $-1 #
coedge $-1 $625 $683 $627 $665 reversed $619 $-1 #
vertex $-1 $684 $685 #
straight-curve $-1 0 -29.94741797078095 -0.56134540818340639 -1 0 0 I I #
edge $-1 $629 0.56134540818340639 $686 8.7420284930667087 $627 $650 forward 7 unknown #
point $-1 42.87118137150182 -24.028007911210665 -0.56134540818340639 #
point $-1 42.87118137150182 -29.947417970780947 -0.56134540818340639 #
point $-1 -42.87118137150182 -24.028007911210665 2.4386545918165936 #
coedge $-1 $638 $637 $687 $688 reversed $595 $-1 #
coedge $-1 $643 $640 $661 $684 reversed $381 $-1 #
coedge $-1 $687 $689 $640 $672 forward $655 $-1 #
edge $-1 $690 -29.94741797078095 $673 29.94741797078095 $640 $691 forward 7 unknown #
vertex $-1 $688 $692 #
straight-curve $-1 -42.87118137150182 29.94741797078095 0 0 0 -1 I I #
straight-curve $-1 -42.87118137150182 -24.028007911210665 0.4693272959082968 0 0 1 I I #
coedge $-1 $689 $687 $647 $677 forward $655 $-1 #
edge $-1 $678 -29.94741797078095 $686 29.94741797078095 $647 $693 forward 7 unknown #
vertex $-1 $677 $694 #
straight-curve $-1 42.87118137150182 29.94741797078095 0 0 0 -1 I I #
straight-curve $-1 0 -29.94741797078095 -8.7420284930667087 -1 0 0 I I #
straight-curve $-1 -42.87118137150182 -13.493856470497903 -0.56134540818340639 0 1 0 I I #
point $-1 -42.87118137150182 -24.028007911210665 -0.56134540818340639 #
coedge $-1 $662 $661 $689 $695 reversed $619 $-1 #
edge $-1 $663 0.56134540818340639 $690 8.7420284930667087 $670 $594 forward 7 unknown #
point $-1 -42.87118137150182 -29.947417970780947 -0.56134540818340639 #
vertex $-1 $665 $696 #
coedge $-1 $676 $671 $669 $688 forward $655 $-1 #
edge $-1 $673 -42.87118137150182 $678 42.87118137150182 $669 $697 forward 7 unknown #
coedge $-1 $671 $676 $683 $695 forward $655 $-1 #
vertex $-1 $672 $698 #
straight-curve $-1 -42.87118137150182 0 -8.7420284930667087 0 1 0 I I #
point $-1 -42.87118137150182 29.94741797078095 -8.7420284930667087 #
straight-curve $-1 42.87118137150182 0 -8.7420284930667087 0 -1 0 I I #
point $-1 42.87118137150182 29.94741797078095 -8.7420284930667087 #
edge $-1 $686 -42.87118137150182 $690 42.87118137150182 $683 $699 forward 7 unknown #
point $-1 42.87118137150182 -29.94741797078095 -8.7420284930667087 #
straight-curve $-1 0 29.94741797078095 -8.7420284930667087 1 0 0 I I #
point $-1 -42.87118137150182 -29.94741797078095 -8.7420284930667087 #
straight-curve $-1 0 -29.94741797078095 -8.7420284930667087 -1 0 0 I I #
End-of-ACIS-data 