500 0 9 0           
7 Unknown 11 ACIS 5.0 NT 24 Fri Mar 26 19:00:49 1999 
-1 9.9999999999999995e-007 1e-010 
body $-1 $9 $-1 $10 #
body $-1 $11 $-1 $12 #
body $-1 $13 $-1 $14 #
body $-1 $15 $-1 $16 #
body $-1 $17 $-1 $18 #
body $-1 $19 $-1 $20 #
body $-1 $21 $-1 $22 #
body $-1 $23 $-1 $24 #
body $-1 $25 $-1 $26 #
lump $-1 $-1 $27 $0 #
transform $-1 1 0 0 0 1 0 0 0 1 41.506393627735221 27.565960779077983 12.020347221280556 1 rotate no_reflect no_shear #
lump $-1 $-1 $28 $1 #
transform $-1 1 0 0 0 1 0 0 0 1 41.506393627735221 27.565960779077983 12.020347221280556 1 rotate no_reflect no_shear #
lump $-1 $-1 $29 $2 #
transform $-1 1 0 0 0 1 0 0 0 1 41.506393627735221 27.565960779077983 12.020347221280556 1 rotate no_reflect no_shear #
lump $-1 $-1 $30 $3 #
transform $-1 1 0 0 0 1 0 0 0 1 41.506393627735221 27.565960779077983 12.020347221280556 1 rotate no_reflect no_shear #
lump $-1 $-1 $31 $4 #
transform $-1 1 0 0 0 1 0 0 0 1 41.506393627735221 27.565960779077983 12.020347221280556 1 rotate no_reflect no_shear #
lump $-1 $-1 $32 $5 #
transform $-1 1 0 0 0 1 0 0 0 1 41.506393627735221 27.565960779077983 12.020347221280556 1 rotate no_reflect no_shear #
lump $-1 $-1 $33 $6 #
transform $-1 1 0 0 0 1 0 0 0 1 41.506393627735221 27.565960779077983 12.020347221280556 1 rotate no_reflect no_shear #
lump $-1 $-1 $34 $7 #
transform $-1 1 0 0 0 1 0 0 0 1 41.506393627735221 27.565960779077983 12.020347221280556 1 rotate no_reflect no_shear #
lump $-1 $-1 $35 $8 #
transform $-1 1 0 0 0 1 0 0 0 1 41.506393627735221 27.565960779077983 12.020347221280556 1 rotate no_reflect no_shear #
shell $-1 $-1 $-1 $36 $-1 $9 #
shell $-1 $-1 $-1 $37 $-1 $11 #
shell $-1 $-1 $-1 $38 $-1 $13 #
shell $-1 $-1 $-1 $39 $-1 $15 #
shell $-1 $-1 $-1 $40 $-1 $17 #
shell $-1 $-1 $-1 $41 $-1 $19 #
shell $-1 $-1 $-1 $42 $-1 $21 #
shell $-1 $-1 $-1 $43 $-1 $23 #
shell $-1 $-1 $-1 $44 $-1 $25 #
face $-1 $45 $46 $27 $-1 $47 forward single #
face $-1 $48 $49 $28 $-1 $50 reversed single #
face $-1 $51 $52 $29 $-1 $53 forward single #
face $-1 $54 $55 $30 $-1 $56 forward single #
face $-1 $57 $58 $31 $-1 $59 forward single #
face $-1 $60 $61 $32 $-1 $62 reversed single #
face $-1 $63 $64 $33 $-1 $65 forward single #
face $-1 $66 $67 $34 $-1 $68 forward single #
face $-1 $69 $70 $35 $-1 $71 forward single #
face $-1 $72 $73 $27 $-1 $74 reversed single #
loop $-1 $-1 $75 $36 #
plane-surface $-1 0 0 12.020347221280556 0 0 1 1 0 0 forward_v I I I I #
face $-1 $76 $77 $28 $-1 $78 reversed single #
loop $-1 $-1 $79 $37 #
plane-surface $-1 -23.051521365952411 38.692050745672091 105.41351868026173 -1 0 0 0 0.64278761758704617 0.76604443648966558 forward_v I I I I #
face $-1 $80 $81 $29 $-1 $82 forward single #
loop $-1 $83 $84 $38 #
cone-surface $-1 -37.815419175378658 22.496228389481669 7.1629050474908373 0 -0.64278761758704617 -0.76604443648966558 1.5 0 0 1 I I 0 1 1.5 forward I I I I #
face $-1 $85 $86 $30 $-1 $87 forward single #
loop $-1 $88 $89 $39 #
cone-surface $-1 -32.278957496843816 22.496228389481669 7.1629050474908373 0 -0.64278761758704617 -0.76604443648966558 1.5 0 0 1 I I 0 1 1.5 forward I I I I #
face $-1 $90 $91 $31 $-1 $92 forward single #
loop $-1 $93 $94 $40 #
cone-surface $-1 -26.742495818308974 22.496228389481669 7.1629050474908373 0 -0.64278761758704617 -0.76604443648966558 1.5 0 0 1 I I 0 1 1.5 forward I I I I #
face $-1 $95 $96 $32 $-1 $97 reversed single #
loop $-1 $-1 $98 $41 #
plane-surface $-1 32.278957496843816 -14.667541003532065 41.82203484570838 0 0.64278761758704617 0.76604443648966558 1 0 0 forward_v I I I I #
face $-1 $99 $100 $33 $-1 $101 forward single #
loop $-1 $102 $103 $42 #
cone-surface $-1 26.742495818308967 22.496228389481669 7.1629050474908373 0 -0.64278761758704617 -0.76604443648966558 1.5 0 0 1 I I 0 1 1.5 forward I I I I #
face $-1 $104 $105 $34 $-1 $106 forward single #
loop $-1 $107 $108 $43 #
cone-surface $-1 32.278957496843816 22.496228389481669 7.1629050474908373 0 -0.64278761758704617 -0.76604443648966558 1.5 0 0 1 I I 0 1 1.5 forward I I I I #
face $-1 $109 $110 $35 $-1 $111 forward single #
loop $-1 $112 $113 $44 #
cone-surface $-1 37.815419175378651 22.496228389481669 7.1629050474908373 0 -0.64278761758704617 -0.76604443648966558 1.5 0 0 1 I I 0 1 1.5 forward I I I I #
face $-1 $114 $115 $27 $-1 $116 reversed single #
loop $-1 $-1 $117 $45 #
plane-surface $-1 0 0 -12.020347221280556 0 0 1 1 0 0 forward_v I I I I #
coedge $-1 $118 $119 $120 $121 forward $46 $-1 #
face $-1 $122 $123 $28 $-1 $124 reversed single #
loop $-1 $-1 $125 $48 #
plane-surface $-1 -32.278957496843816 -14.667541003532065 41.82203484570838 0 0.64278761758704617 0.76604443648966558 1 0 0 forward_v I I I I #
coedge $-1 $126 $127 $128 $129 reversed $49 $-1 #
face $-1 $-1 $130 $29 $-1 $131 forward single #
loop $-1 $132 $133 $51 #
cone-surface $-1 -37.815419175378658 20.303022404052349 4.5491439898014399 0 -0.64278761758704617 -0.76604443648966558 0.75 0 0 1 I I -0.70710678118654757 0.70710678118654757 0.75 forward I I I I #
loop $-1 $-1 $134 $38 #
coedge $-1 $84 $84 $135 $136 reversed $52 $-1 #
face $-1 $-1 $137 $30 $-1 $138 forward single #
loop $-1 $139 $140 $54 #
cone-surface $-1 -32.278957496843816 20.303022404052349 4.5491439898014399 0 -0.64278761758704617 -0.76604443648966558 0.75 0 0 1 I I -0.70710678118654757 0.70710678118654757 0.75 forward I I I I #
loop $-1 $-1 $141 $39 #
coedge $-1 $89 $89 $142 $143 reversed $55 $-1 #
face $-1 $-1 $144 $31 $-1 $145 forward single #
loop $-1 $146 $147 $57 #
cone-surface $-1 -26.742495818308974 20.303022404052349 4.5491439898014399 0 -0.64278761758704617 -0.76604443648966558 0.75 0 0 1 I I -0.70710678118654757 0.70710678118654757 0.75 forward I I I I #
loop $-1 $-1 $148 $40 #
coedge $-1 $94 $94 $149 $150 reversed $58 $-1 #
face $-1 $151 $152 $32 $-1 $153 forward single #
loop $-1 $-1 $154 $60 #
plane-surface $-1 23.051521365952411 38.692050745672091 105.41351868026173 1 0 0 0 -0.64278761758704617 -0.76604443648966558 forward_v I I I I #
coedge $-1 $155 $156 $157 $158 reversed $61 $-1 #
face $-1 $-1 $159 $33 $-1 $160 forward single #
loop $-1 $161 $162 $63 #
cone-surface $-1 26.742495818308967 20.303022404052349 4.5491439898014399 0 -0.64278761758704617 -0.76604443648966558 0.75 0 0 1 I I -0.70710678118654757 0.70710678118654757 0.75 forward I I I I #
loop $-1 $-1 $163 $42 #
coedge $-1 $103 $103 $164 $165 reversed $64 $-1 #
face $-1 $-1 $166 $34 $-1 $167 forward single #
loop $-1 $168 $169 $66 #
cone-surface $-1 32.278957496843816 20.303022404052349 4.5491439898014399 0 -0.64278761758704617 -0.76604443648966558 0.75 0 0 1 I I -0.70710678118654757 0.70710678118654757 0.75 forward I I I I #
loop $-1 $-1 $170 $43 #
coedge $-1 $108 $108 $171 $172 reversed $67 $-1 #
face $-1 $-1 $173 $35 $-1 $174 forward single #
loop $-1 $175 $176 $69 #
cone-surface $-1 37.815419175378651 20.303022404052349 4.5491439898014399 0 -0.64278761758704617 -0.76604443648966558 0.75 0 0 1 I I -0.70710678118654757 0.70710678118654757 0.75 forward I I I I #
loop $-1 $-1 $177 $44 #
coedge $-1 $113 $113 $178 $179 reversed $70 $-1 #
face $-1 $180 $181 $27 $-1 $182 reversed single #
loop $-1 $-1 $183 $72 #
plane-surface $-1 0 -27.565960779077983 0 0 1 0 0 0 1 forward_v I I I I #
coedge $-1 $184 $185 $186 $187 forward $73 $-1 #
coedge $-1 $188 $75 $189 $190 forward $46 $-1 #
coedge $-1 $75 $188 $191 $192 forward $46 $-1 #
coedge $-1 $193 $194 $75 $121 reversed $195 $-1 #
edge $-1 $196 -27.565960779077983 $197 27.565960779077983 $120 $198 forward 7 unknown #
face $-1 $199 $200 $28 $-1 $201 forward single #
loop $-1 $-1 $128 $76 #
plane-surface $-1 0 27.565960779077983 0 0 -1 0 0 0 -1 forward_v I I I I #
coedge $-1 $202 $203 $204 $205 reversed $77 $-1 #
coedge $-1 $127 $79 $206 $207 reversed $49 $-1 #
coedge $-1 $79 $126 $202 $208 reversed $49 $-1 #
coedge $-1 $204 $209 $79 $129 forward $123 $-1 #
edge $-1 $210 40.686412118850313 $211 46.322841005785484 $128 $212 forward 7 unknown #
loop $-1 $-1 $135 $80 #
plane-surface $-1 -32.278957496843816 -14.667541003532065 41.82203484570838 0 0.64278761758704617 0.76604443648966558 1 0 0 forward_v I I I I #
loop $-1 $-1 $213 $51 #
coedge $-1 $133 $133 $134 $214 reversed $81 $-1 #
coedge $-1 $134 $134 $133 $214 forward $83 $-1 #
coedge $-1 $135 $135 $84 $136 forward $130 $-1 #
edge $-1 $215 2.2208674089242673e-015 $215 6.2831853071796031 $135 $216 forward 7 unknown #
loop $-1 $-1 $142 $85 #
plane-surface $-1 -32.278957496843816 -14.667541003532065 41.82203484570838 0 0.64278761758704617 0.76604443648966558 1 0 0 forward_v I I I I #
loop $-1 $-1 $217 $54 #
coedge $-1 $140 $140 $141 $218 reversed $86 $-1 #
coedge $-1 $141 $141 $140 $218 forward $88 $-1 #
coedge $-1 $142 $142 $89 $143 forward $137 $-1 #
edge $-1 $219 2.2208674089242673e-015 $219 6.2831853071796031 $142 $220 forward 7 unknown #
loop $-1 $-1 $149 $90 #
plane-surface $-1 -32.278957496843816 -14.667541003532065 41.82203484570838 0 0.64278761758704617 0.76604443648966558 1 0 0 forward_v I I I I #
loop $-1 $-1 $221 $57 #
coedge $-1 $147 $147 $148 $222 reversed $91 $-1 #
coedge $-1 $148 $148 $147 $222 forward $93 $-1 #
coedge $-1 $149 $149 $94 $150 forward $144 $-1 #
edge $-1 $223 2.2208674089242673e-015 $223 6.2831853071796031 $149 $224 forward 7 unknown #
face $-1 $225 $226 $32 $-1 $227 reversed single #
loop $-1 $-1 $228 $95 #
plane-surface $-1 0 0 12.020347221280556 0 0 1 1 0 0 forward_v I I I I #
coedge $-1 $229 $230 $231 $232 reversed $96 $-1 #
coedge $-1 $233 $98 $234 $235 reversed $61 $-1 #
coedge $-1 $98 $233 $229 $236 forward $61 $-1 #
coedge $-1 $231 $237 $98 $158 forward $238 $-1 #
edge $-1 $239 -25.366914879313313 $240 -6.9120426175305028 $157 $241 forward 7 unknown #
loop $-1 $-1 $164 $99 #
plane-surface $-1 32.278957496843816 -14.667541003532065 41.82203484570838 0 0.64278761758704617 0.76604443648966558 1 0 0 forward_v I I I I #
loop $-1 $-1 $242 $63 #
coedge $-1 $162 $162 $163 $243 reversed $100 $-1 #
coedge $-1 $163 $163 $162 $243 forward $102 $-1 #
coedge $-1 $164 $164 $103 $165 forward $159 $-1 #
edge $-1 $244 2.2208674089242673e-015 $244 6.2831853071796031 $164 $245 forward 7 unknown #
loop $-1 $-1 $171 $104 #
plane-surface $-1 32.278957496843816 -14.667541003532065 41.82203484570838 0 0.64278761758704617 0.76604443648966558 1 0 0 forward_v I I I I #
loop $-1 $-1 $246 $66 #
coedge $-1 $169 $169 $170 $247 reversed $105 $-1 #
coedge $-1 $170 $170 $169 $247 forward $107 $-1 #
coedge $-1 $171 $171 $108 $172 forward $166 $-1 #
edge $-1 $248 2.2208674089242673e-015 $248 6.2831853071796031 $171 $249 forward 7 unknown #
loop $-1 $-1 $178 $109 #
plane-surface $-1 32.278957496843816 -14.667541003532065 41.82203484570838 0 0.64278761758704617 0.76604443648966558 1 0 0 forward_v I I I I #
loop $-1 $-1 $250 $69 #
coedge $-1 $176 $176 $177 $251 reversed $110 $-1 #
coedge $-1 $177 $177 $176 $251 forward $112 $-1 #
coedge $-1 $178 $178 $113 $179 forward $173 $-1 #
edge $-1 $252 2.2208674089242673e-015 $252 6.2831853071796031 $178 $253 forward 7 unknown #
face $-1 $254 $255 $27 $-1 $256 reversed single #
loop $-1 $-1 $257 $114 #
plane-surface $-1 -41.506393627735221 0 0 1 0 0 0 0 -1 forward_v I I I I #
coedge $-1 $258 $191 $259 $260 forward $115 $-1 #
coedge $-1 $261 $117 $258 $262 forward $73 $-1 #
coedge $-1 $117 $261 $263 $264 forward $73 $-1 #
coedge $-1 $194 $193 $117 $187 reversed $195 $-1 #
edge $-1 $265 -27.565960779077983 $266 27.565960779077983 $186 $267 forward 7 unknown #
coedge $-1 $119 $118 $268 $269 forward $46 $-1 #
coedge $-1 $270 $271 $118 $190 reversed $255 $-1 #
edge $-1 $197 -41.506393627735221 $272 41.506393627735221 $189 $273 forward 7 unknown #
coedge $-1 $183 $274 $119 $192 reversed $115 $-1 #
edge $-1 $275 -41.506393627735221 $196 41.506393627735221 $191 $276 forward 7 unknown #
coedge $-1 $186 $120 $274 $277 forward $195 $-1 #
coedge $-1 $120 $186 $270 $278 reversed $195 $-1 #
loop $-1 $-1 $193 $254 #
vertex $-1 $121 $279 #
vertex $-1 $121 $280 #
straight-curve $-1 41.506393627735221 0 12.020347221280556 0 1 0 I I #
face $-1 $-1 $281 $28 $-1 $282 reversed single #
loop $-1 $-1 $206 $122 #
plane-surface $-1 0 0 12.020347221280556 0 0 1 1 0 0 forward_v I I I I #
coedge $-1 $283 $125 $127 $208 forward $77 $-1 #
coedge $-1 $125 $283 $284 $285 reversed $77 $-1 #
coedge $-1 $286 $128 $125 $205 forward $123 $-1 #
edge $-1 $211 6.9120426175305028 $287 25.366914879313313 $204 $288 forward 7 unknown #
coedge $-1 $289 $290 $126 $207 forward $200 $-1 #
edge $-1 $291 1.502701171527363 $210 8.2199354062419374 $206 $292 forward 7 unknown #
edge $-1 $211 -55.13192155815598 $291 -46.363194948123109 $127 $293 forward 7 unknown #
coedge $-1 $128 $286 $289 $294 reversed $123 $-1 #
vertex $-1 $294 $295 #
vertex $-1 $129 $296 #
straight-curve $-1 -23.051521365952411 27.565960779077983 52.706759340130866 0 0 -1 I I #
coedge $-1 $213 $213 $-1 $297 reversed $132 $-1 #
edge $-1 $298 0 $298 6.2831853071796004 $133 $299 forward 7 unknown #
vertex $-1 $136 $300 #
ellipse-curve $-1 -37.815419175378658 24.207343661720689 9.2021327778129685 0 0.64278761758704617 0.76604443648966558 1.5 0 0 1 I I #
coedge $-1 $217 $217 $-1 $301 reversed $139 $-1 #
edge $-1 $302 0 $302 6.2831853071796004 $140 $303 forward 7 unknown #
vertex $-1 $143 $304 #
ellipse-curve $-1 -32.278957496843816 24.207343661720689 9.2021327778129685 0 0.64278761758704617 0.76604443648966558 1.5 0 0 1 I I #
coedge $-1 $221 $221 $-1 $305 reversed $146 $-1 #
edge $-1 $306 0 $306 6.2831853071796004 $147 $307 forward 7 unknown #
vertex $-1 $150 $308 #
ellipse-curve $-1 -26.742495818308974 24.207343661720689 9.2021327778129685 0 0.64278761758704617 0.76604443648966558 1.5 0 0 1 I I #
face $-1 $-1 $238 $32 $-1 $309 reversed single #
loop $-1 $-1 $234 $151 #
plane-surface $-1 41.506393627735221 0 0 -1 0 0 0 0 1 forward_v I I I I #
coedge $-1 $310 $311 $230 $312 forward $152 $-1 #
coedge $-1 $230 $154 $156 $236 reversed $96 $-1 #
coedge $-1 $154 $229 $228 $312 reversed $96 $-1 #
coedge $-1 $313 $157 $154 $232 forward $238 $-1 #
edge $-1 $240 -46.322841005785484 $314 -40.686412118850313 $231 $315 forward 7 unknown #
coedge $-1 $156 $155 $310 $316 reversed $61 $-1 #
coedge $-1 $317 $318 $155 $235 forward $226 $-1 #
edge $-1 $319 27.303857786195554 $239 36.072584396228436 $234 $320 forward 7 unknown #
edge $-1 $321 46.363194948123109 $240 55.13192155815598 $229 $322 forward 7 unknown #
coedge $-1 $157 $313 $317 $323 forward $238 $-1 #
loop $-1 $-1 $231 $225 #
vertex $-1 $235 $324 #
vertex $-1 $158 $325 #
straight-curve $-1 16.139478748421908 27.565960779077983 6.3839183343453811 -1 0 0 I I #
coedge $-1 $242 $242 $-1 $326 reversed $161 $-1 #
edge $-1 $327 0 $327 6.2831853071796004 $162 $328 forward 7 unknown #
vertex $-1 $165 $329 #
ellipse-curve $-1 26.742495818308967 24.207343661720689 9.2021327778129685 0 0.64278761758704617 0.76604443648966558 1.5 0 0 1 I I #
coedge $-1 $246 $246 $-1 $330 reversed $168 $-1 #
edge $-1 $331 0 $331 6.2831853071796004 $169 $332 forward 7 unknown #
vertex $-1 $172 $333 #
ellipse-curve $-1 32.278957496843816 24.207343661720689 9.2021327778129685 0 0.64278761758704617 0.76604443648966558 1.5 0 0 1 I I #
coedge $-1 $250 $250 $-1 $334 reversed $175 $-1 #
edge $-1 $335 0 $335 6.2831853071796004 $176 $336 forward 7 unknown #
vertex $-1 $179 $337 #
ellipse-curve $-1 37.815419175378651 24.207343661720689 9.2021327778129685 0 0.64278761758704617 0.76604443648966558 1.5 0 0 1 I I #
face $-1 $-1 $195 $27 $-1 $338 reversed single #
loop $-1 $-1 $270 $180 #
plane-surface $-1 0 27.565960779077983 0 0 -1 0 0 0 -1 forward_v I I I I #
coedge $-1 $339 $268 $271 $340 forward $181 $-1 #
coedge $-1 $274 $183 $184 $262 reversed $115 $-1 #
coedge $-1 $268 $339 $183 $260 reversed $181 $-1 #
edge $-1 $275 -12.020347221280556 $341 12.020347221280556 $259 $342 forward 7 unknown #
coedge $-1 $185 $184 $339 $343 forward $73 $-1 #
edge $-1 $266 -41.506393627735221 $341 41.506393627735221 $258 $344 forward 7 unknown #
coedge $-1 $271 $270 $185 $264 reversed $255 $-1 #
edge $-1 $345 -41.506393627735221 $265 41.506393627735221 $263 $346 forward 7 unknown #
vertex $-1 $187 $347 #
vertex $-1 $277 $348 #
straight-curve $-1 41.506393627735221 0 -12.020347221280556 0 -1 0 I I #
coedge $-1 $257 $259 $188 $269 reversed $181 $-1 #
edge $-1 $272 -27.565960779077983 $275 27.565960779077983 $268 $349 forward 7 unknown #
coedge $-1 $263 $189 $194 $278 forward $255 $-1 #
coedge $-1 $189 $263 $257 $340 reversed $255 $-1 #
vertex $-1 $190 $350 #
straight-curve $-1 0 27.565960779077983 12.020347221280556 -1 0 0 I I #
coedge $-1 $191 $258 $193 $277 reversed $115 $-1 #
vertex $-1 $269 $351 #
straight-curve $-1 0 -27.565960779077983 12.020347221280556 1 0 0 I I #
edge $-1 $196 -12.020347221280556 $266 12.020347221280556 $193 $352 forward 7 unknown #
edge $-1 $197 -12.020347221280556 $265 12.020347221280556 $194 $353 forward 7 unknown #
point $-1 41.506393627735221 -27.565960779077983 12.020347221280556 #
point $-1 41.506393627735221 27.565960779077983 12.020347221280556 #
loop $-1 $-1 $284 $199 #
plane-surface $-1 -41.506393627735221 0 0 1 0 0 0 0 -1 forward_v I I I I #
coedge $-1 $203 $202 $290 $354 reversed $77 $-1 #
coedge $-1 $355 $356 $203 $285 forward $281 $-1 #
edge $-1 $287 -36.072584396228436 $357 -27.303857786195554 $284 $358 forward 7 unknown #
coedge $-1 $209 $204 $356 $359 reversed $123 $-1 #
vertex $-1 $205 $360 #
straight-curve $-1 -16.139478748421908 27.565960779077983 6.3839183343453811 -1 0 0 I I #
coedge $-1 $361 $206 $209 $294 forward $200 $-1 #
coedge $-1 $206 $361 $283 $354 forward $200 $-1 #
vertex $-1 $207 $362 #
straight-curve $-1 -23.051521365952411 19.346025372836046 12.020347221280552 0 1 0 I I #
straight-curve $-1 -23.051521365952411 -14.667541003532065 41.82203484570838 0 -0.76604443648966558 0.64278761758704617 I I #
edge $-1 $210 23.051521365952411 $363 41.506393627735221 $209 $364 forward 7 unknown #
point $-1 -23.051521365952411 27.565960779077983 12.020347221280556 #
point $-1 -23.051521365952411 27.565960779077983 6.3839183343453811 #
edge $-1 $365 1 $365 0 $213 $-1 forward 7 unknown #
vertex $-1 $214 $366 #
ellipse-curve $-1 -37.815419175378658 20.785113117242634 5.1236773171686893 0 0.64278761758704617 0.76604443648966558 1.5 0 0 1 I I #
point $-1 -36.315419175378658 24.207343661720707 9.2021327778129844 #
edge $-1 $367 1 $367 0 $217 $-1 forward 7 unknown #
vertex $-1 $218 $368 #
ellipse-curve $-1 -32.278957496843816 20.785113117242634 5.1236773171686893 0 0.64278761758704617 0.76604443648966558 1.5 0 0 1 I I #
point $-1 -30.778957496843816 24.207343661720707 9.2021327778129844 #
edge $-1 $369 1 $369 0 $221 $-1 forward 7 unknown #
vertex $-1 $222 $370 #
ellipse-curve $-1 -26.742495818308974 20.785113117242634 5.1236773171686893 0 0.64278761758704617 0.76604443648966558 1.5 0 0 1 I I #
point $-1 -25.242495818308974 24.207343661720707 9.2021327778129844 #
plane-surface $-1 0 27.565960779077983 0 0 -1 0 0 0 -1 forward_v I I I I #
coedge $-1 $371 $228 $233 $316 forward $152 $-1 #
coedge $-1 $228 $371 $313 $372 forward $152 $-1 #
edge $-1 $314 -8.2199354062419374 $321 -1.502701171527363 $228 $373 forward 7 unknown #
coedge $-1 $237 $231 $311 $372 reversed $238 $-1 #
vertex $-1 $232 $374 #
straight-curve $-1 23.051521365952411 27.565960779077983 52.706759340130866 0 0 1 I I #
edge $-1 $321 6.9120426175305028 $319 25.366914879313313 $310 $375 forward 7 unknown #
coedge $-1 $318 $234 $237 $323 reversed $226 $-1 #
coedge $-1 $234 $317 $371 $376 reversed $226 $-1 #
vertex $-1 $376 $377 #
straight-curve $-1 41.506393627735221 -0.067241807456733582 29.570928918604714 0 0.76604443648966558 -0.64278761758704617 I I #
vertex $-1 $316 $378 #
straight-curve $-1 23.051521365952411 -14.667541003532065 41.82203484570838 0 0.76604443648966558 -0.64278761758704617 I I #
edge $-1 $379 -12.020347221280556 $239 -6.3839183343453811 $317 $380 forward 7 unknown #
point $-1 41.506393627735221 27.565960779077983 6.3839183343453811 #
point $-1 23.051521365952411 27.565960779077983 6.3839183343453811 #
edge $-1 $381 1 $381 0 $242 $-1 forward 7 unknown #
vertex $-1 $243 $382 #
ellipse-curve $-1 26.742495818308967 20.785113117242634 5.1236773171686893 0 0.64278761758704617 0.76604443648966558 1.5 0 0 1 I I #
point $-1 28.242495818308967 24.207343661720707 9.2021327778129844 #
edge $-1 $383 1 $383 0 $246 $-1 forward 7 unknown #
vertex $-1 $247 $384 #
ellipse-curve $-1 32.278957496843816 20.785113117242634 5.1236773171686893 0 0.64278761758704617 0.76604443648966558 1.5 0 0 1 I I #
point $-1 33.778957496843816 24.207343661720707 9.2021327778129844 #
edge $-1 $385 1 $385 0 $250 $-1 forward 7 unknown #
vertex $-1 $251 $386 #
ellipse-curve $-1 37.815419175378651 20.785113117242634 5.1236773171686893 0 0.64278761758704617 0.76604443648966558 1.5 0 0 1 I I #
point $-1 39.315419175378651 24.207343661720707 9.2021327778129844 #
plane-surface $-1 41.506393627735221 0 0 -1 0 0 0 0 1 forward_v I I I I #
coedge $-1 $259 $257 $261 $343 reversed $181 $-1 #
edge $-1 $272 -12.020347221280556 $345 12.020347221280556 $271 $387 forward 7 unknown #
vertex $-1 $343 $388 #
straight-curve $-1 -41.506393627735221 -27.565960779077983 0 0 0 -1 I I #
edge $-1 $341 -27.565960779077983 $345 27.565960779077983 $339 $389 forward 7 unknown #
straight-curve $-1 0 -27.565960779077983 -12.020347221280556 -1 0 0 I I #
vertex $-1 $264 $390 #
straight-curve $-1 0 27.565960779077983 -12.020347221280556 1 0 0 I I #
point $-1 41.506393627735221 27.565960779077983 -12.020347221280556 #
point $-1 41.506393627735221 -27.565960779077983 -12.020347221280556 #
straight-curve $-1 -41.506393627735221 0 12.020347221280556 0 -1 0 I I #
point $-1 -41.506393627735221 27.565960779077983 12.020347221280556 #
point $-1 -41.506393627735221 -27.565960779077983 12.020347221280556 #
straight-curve $-1 41.506393627735221 -27.565960779077983 0 0 0 -1 I I #
straight-curve $-1 41.506393627735221 27.565960779077983 0 0 0 -1 I I #
edge $-1 $357 -25.366914879313313 $291 -6.9120426175305028 $290 $391 forward 7 unknown #
coedge $-1 $356 $284 $361 $392 reversed $281 $-1 #
coedge $-1 $284 $355 $286 $359 forward $281 $-1 #
vertex $-1 $285 $393 #
straight-curve $-1 -41.506393627735221 -0.067241807456733582 29.570928918604714 0 -0.76604443648966558 0.64278761758704617 I I #
edge $-1 $363 -12.020347221280556 $287 -6.3839183343453785 $286 $394 forward 7 unknown #
point $-1 -41.506393627735221 27.565960779077983 6.3839183343453785 #
coedge $-1 $290 $289 $355 $392 forward $200 $-1 #
point $-1 -23.051521365952411 20.848726544363409 12.020347221280556 #
vertex $-1 $294 $395 #
straight-curve $-1 0 27.565960779077983 12.020347221280556 -1 0 0 I I #
vertex $-1 $297 $396 #
point $-1 -36.315419175378658 20.785113117242634 5.1236773171686893 #
vertex $-1 $301 $397 #
point $-1 -30.778957496843816 20.785113117242634 5.1236773171686893 #
vertex $-1 $305 $398 #
point $-1 -25.242495818308974 20.785113117242634 5.1236773171686893 #
coedge $-1 $311 $310 $318 $376 forward $152 $-1 #
edge $-1 $379 -41.506393627735221 $314 -23.051521365952411 $313 $399 forward 7 unknown #
straight-curve $-1 23.051521365952411 19.346025372836046 12.020347221280552 0 -1 0 I I #
point $-1 23.051521365952411 27.565960779077983 12.020347221280556 #
straight-curve $-1 16.139478748421908 20.848726544363405 12.020347221280556 1 0 0 I I #
edge $-1 $319 20.848726544363409 $379 27.565960779077983 $318 $400 forward 7 unknown #
point $-1 41.506393627735221 20.848726544363409 12.020347221280556 #
point $-1 23.051521365952411 20.848726544363409 12.020347221280556 #
vertex $-1 $376 $401 #
straight-curve $-1 41.506393627735221 27.565960779077983 0 0 0 -1 I I #
vertex $-1 $326 $402 #
point $-1 28.242495818308967 20.785113117242634 5.1236773171686893 #
vertex $-1 $330 $403 #
point $-1 33.778957496843816 20.785113117242634 5.1236773171686893 #
vertex $-1 $334 $404 #
point $-1 39.315419175378651 20.785113117242634 5.1236773171686893 #
straight-curve $-1 -41.506393627735221 27.565960779077983 0 0 0 -1 I I #
point $-1 -41.506393627735221 -27.565960779077983 -12.020347221280556 #
straight-curve $-1 -41.506393627735221 0 -12.020347221280556 0 1 0 I I #
point $-1 -41.506393627735221 27.565960779077983 -12.020347221280556 #
straight-curve $-1 -16.139478748421908 20.848726544363405 12.020347221280556 1 0 0 I I #
edge $-1 $363 -27.565960779077983 $357 -20.848726544363409 $355 $405 forward 7 unknown #
point $-1 -41.506393627735221 20.848726544363409 12.020347221280556 #
straight-curve $-1 -41.506393627735221 27.565960779077983 0 0 0 -1 I I #
point $-1 -41.506393627735221 27.565960779077983 12.020347221280556 #
point $-1 -37.815419175378658 19.820931690862064 3.9746106624341908 #
point $-1 -32.278957496843816 19.820931690862064 3.9746106624341908 #
point $-1 -26.742495818308974 19.820931690862064 3.9746106624341908 #
straight-curve $-1 0 27.565960779077983 12.020347221280556 -1 0 0 I I #
straight-curve $-1 41.506393627735221 0 12.020347221280556 0 1 0 I I #
point $-1 41.506393627735221 27.565960779077983 12.020347221280556 #
point $-1 26.742495818308967 19.820931690862064 3.9746106624341908 #
point $-1 32.278957496843816 19.820931690862064 3.9746106624341908 #
point $-1 37.815419175378651 19.820931690862064 3.9746106624341908 #
straight-curve $-1 -41.506393627735221 0 12.020347221280556 0 -1 0 I I #
End-of-ACIS-data 