500 0 14 0           
7 Unknown 11 ACIS 5.0 NT 24 Fri Mar 26 19:26:11 1999 
-1 9.9999999999999995e-007 1e-010 
body $-1 $14 $-1 $15 #
body $-1 $16 $-1 $17 #
body $-1 $18 $-1 $19 #
body $-1 $20 $-1 $21 #
body $-1 $22 $-1 $23 #
body $-1 $24 $-1 $25 #
body $-1 $26 $-1 $27 #
body $-1 $28 $-1 $29 #
body $-1 $30 $-1 $31 #
body $-1 $32 $-1 $33 #
body $-1 $34 $-1 $35 #
body $-1 $36 $-1 $37 #
body $-1 $38 $-1 $39 #
body $-1 $40 $-1 $41 #
lump $-1 $-1 $42 $0 #
transform $-1 1 0 0 0 1 0 0 0 1 58.912930692464982 33.389447794725399 16.173507351844279 1 rotate no_reflect no_shear #
lump $-1 $-1 $43 $1 #
transform $-1 1 0 0 0 1 0 0 0 1 58.912930692464982 33.389447794725399 16.173507351844279 1 rotate no_reflect no_shear #
lump $-1 $-1 $44 $2 #
transform $-1 1 0 0 0 1 0 0 0 1 58.912930692464982 33.389447794725399 16.173507351844279 1 rotate no_reflect no_shear #
lump $-1 $-1 $45 $3 #
transform $-1 1 0 0 0 1 0 0 0 1 58.912930692464982 33.389447794725399 16.173507351844279 1 rotate no_reflect no_shear #
lump $-1 $-1 $46 $4 #
transform $-1 1 0 0 0 1 0 0 0 1 58.912930692464982 33.389447794725399 16.173507351844279 1 rotate no_reflect no_shear #
lump $-1 $-1 $47 $5 #
transform $-1 1 0 0 0 1 0 0 0 1 58.912930692464982 33.389447794725399 16.173507351844279 1 rotate no_reflect no_shear #
lump $-1 $-1 $48 $6 #
transform $-1 1 0 0 0 1 0 0 0 1 58.912930692464982 33.389447794725399 16.173507351844279 1 rotate no_reflect no_shear #
lump $-1 $-1 $49 $7 #
transform $-1 1 0 0 0 1 0 0 0 1 58.912930692464982 33.389447794725399 16.173507351844279 1 rotate no_reflect no_shear #
lump $-1 $-1 $50 $8 #
transform $-1 1 0 0 0 1 0 0 0 1 58.912930692464982 33.389447794725399 16.173507351844279 1 rotate no_reflect no_shear #
lump $-1 $-1 $51 $9 #
transform $-1 1 0 0 0 1 0 0 0 1 58.912930692464982 33.389447794725399 16.173507351844279 1 rotate no_reflect no_shear #
lump $-1 $-1 $52 $10 #
transform $-1 1 0 0 0 1 0 0 0 1 58.912930692464982 33.389447794725399 16.173507351844279 1 rotate no_reflect no_shear #
lump $-1 $-1 $53 $11 #
transform $-1 1 0 0 0 1 0 0 0 1 58.912930692464982 33.389447794725399 16.173507351844279 1 rotate no_reflect no_shear #
lump $-1 $-1 $54 $12 #
transform $-1 1 0 0 0 1 0 0 0 1 58.912930692464982 33.389447794725399 16.173507351844279 1 rotate no_reflect no_shear #
lump $-1 $-1 $55 $13 #
transform $-1 1 0 0 0 1 0 0 0 1 58.912930692464982 33.389447794725399 16.173507351844279 1 rotate no_reflect no_shear #
shell $-1 $-1 $-1 $56 $-1 $14 #
shell $-1 $-1 $-1 $57 $-1 $16 #
shell $-1 $-1 $-1 $58 $-1 $18 #
shell $-1 $-1 $-1 $59 $-1 $20 #
shell $-1 $-1 $-1 $60 $-1 $22 #
shell $-1 $-1 $-1 $61 $-1 $24 #
shell $-1 $-1 $-1 $62 $-1 $26 #
shell $-1 $-1 $-1 $63 $-1 $28 #
shell $-1 $-1 $-1 $64 $-1 $30 #
shell $-1 $-1 $-1 $65 $-1 $32 #
shell $-1 $-1 $-1 $66 $-1 $34 #
shell $-1 $-1 $-1 $67 $-1 $36 #
shell $-1 $-1 $-1 $68 $-1 $38 #
shell $-1 $-1 $-1 $69 $-1 $40 #
face $-1 $70 $71 $42 $-1 $72 forward single #
face $-1 $73 $74 $43 $-1 $75 reversed single #
face $-1 $76 $77 $44 $-1 $78 reversed single #
face $-1 $79 $80 $45 $-1 $81 forward single #
face $-1 $82 $83 $46 $-1 $84 forward single #
face $-1 $85 $86 $47 $-1 $87 reversed single #
face $-1 $88 $89 $48 $-1 $90 forward single #
face $-1 $91 $92 $49 $-1 $93 forward single #
face $-1 $94 $95 $50 $-1 $96 reversed single #
face $-1 $97 $98 $51 $-1 $99 forward single #
face $-1 $100 $101 $52 $-1 $102 forward single #
face $-1 $103 $104 $53 $-1 $105 reversed single #
face $-1 $106 $107 $54 $-1 $108 forward single #
face $-1 $109 $110 $55 $-1 $111 forward single #
face $-1 $112 $113 $42 $-1 $114 reversed single #
loop $-1 $-1 $115 $56 #
plane-surface $-1 0 0 16.173507351844279 0 0 1 1 0 0 forward_v I I I I #
face $-1 $116 $117 $43 $-1 $118 reversed single #
loop $-1 $-1 $119 $57 #
plane-surface $-1 -35.515220526765518 -27.033506694710624 0 1 0 0 0 0 -1 forward_v I I I I #
face $-1 $120 $121 $44 $-1 $122 reversed single #
loop $-1 $-1 $123 $58 #
plane-surface $-1 93.55745172970839 -10.270785742881561 164.79599191131476 0 -1 0 -0.83867057594974714 0 -0.54463902268945019 forward_v I I I I #
face $-1 $124 $125 $45 $-1 $126 forward single #
loop $-1 $127 $128 $59 #
cone-surface $-1 53.828524006156663 -16.25326243569312 8.7176076093822026 -0.83867057594974714 0 -0.54463902268945019 0.13615975567236255 0 -0.20966764398743679 1 I I 0 1 0.25 forward I I I I #
face $-1 $129 $130 $46 $-1 $131 forward single #
loop $-1 $132 $133 $60 #
cone-surface $-1 53.828524006156663 -12.663776420006187 8.7176076093822026 -0.83867057594974714 0 -0.54463902268945019 0.13615975567236255 0 -0.20966764398743679 1 I I 0 1 0.25 forward I I I I #
face $-1 $134 $135 $47 $-1 $136 reversed single #
loop $-1 $-1 $137 $61 #
plane-surface $-1 93.55745172970839 3.6055212756947244 164.79599191131476 0 -1 0 -0.83867057594974714 0 -0.54463902268945019 forward_v I I I I #
face $-1 $138 $139 $48 $-1 $140 forward single #
loop $-1 $141 $142 $62 #
cone-surface $-1 53.828524006156663 -2.3769554171168323 8.7176076093822026 -0.83867057594974714 0 -0.54463902268945019 0.13615975567236255 0 -0.20966764398743679 1 I I 0 1 0.25 forward I I I I #
face $-1 $143 $144 $49 $-1 $145 forward single #
loop $-1 $146 $147 $63 #
cone-surface $-1 53.828524006156663 1.2125305985700976 8.7176076093822026 -0.83867057594974714 0 -0.54463902268945019 0.13615975567236255 0 -0.20966764398743679 1 I I 0 1 0.25 forward I I I I #
face $-1 $148 $149 $50 $-1 $150 reversed single #
loop $-1 $-1 $151 $64 #
plane-surface $-1 93.55745172970839 17.481828294271008 164.79599191131476 0 -1 0 -0.83867057594974714 0 -0.54463902268945019 forward_v I I I I #
face $-1 $152 $153 $51 $-1 $154 forward single #
loop $-1 $155 $156 $65 #
cone-surface $-1 53.828524006156663 11.499351601459452 8.7176076093822026 -0.83867057594974714 0 -0.54463902268945019 0.13615975567236255 0 -0.20966764398743679 1 I I 0 1 0.25 forward I I I I #
face $-1 $157 $158 $52 $-1 $159 forward single #
loop $-1 $160 $161 $66 #
cone-surface $-1 53.828524006156663 15.088837617146382 8.7176076093822026 -0.83867057594974714 0 -0.54463902268945019 0.13615975567236255 0 -0.20966764398743679 1 I I 0 1 0.25 forward I I I I #
face $-1 $162 $163 $53 $-1 $164 reversed single #
loop $-1 $-1 $165 $67 #
plane-surface $-1 93.55745172970839 31.358135312847292 164.79599191131476 0 -1 0 -0.83867057594974714 0 -0.54463902268945019 forward_v I I I I #
face $-1 $166 $167 $54 $-1 $168 forward single #
loop $-1 $169 $170 $68 #
cone-surface $-1 53.828524006156663 25.375658620035736 8.7176076093822026 -0.83867057594974714 0 -0.54463902268945019 0.13615975567236255 0 -0.20966764398743679 1 I I 0 1 0.25 forward I I I I #
face $-1 $171 $172 $55 $-1 $173 forward single #
loop $-1 $174 $175 $69 #
cone-surface $-1 53.828524006156663 28.965144635722666 8.7176076093822026 -0.83867057594974714 0 -0.54463902268945019 0.13615975567236255 0 -0.20966764398743679 1 I I 0 1 0.25 forward I I I I #
face $-1 $176 $177 $42 $-1 $178 reversed single #
loop $-1 $-1 $179 $70 #
plane-surface $-1 0 0 -16.173507351844279 0 0 1 1 0 0 forward_v I I I I #
coedge $-1 $180 $181 $182 $183 forward $71 $-1 #
face $-1 $184 $185 $43 $-1 $186 reversed single #
loop $-1 $-1 $187 $73 #
plane-surface $-1 -31.040568257770971 -20.677565594695849 0 0 -1 0 0 0 -1 forward_v I I I I #
coedge $-1 $188 $189 $190 $191 forward $74 $-1 #
face $-1 $192 $193 $44 $-1 $194 reversed single #
loop $-1 $-1 $195 $76 #
plane-surface $-1 -5.2596312997658998 -14.458519427849652 100.62342991908388 0.83867057594974714 0 0.54463902268945019 0.54463902268945019 0 -0.83867057594974714 forward_v I I I I #
coedge $-1 $196 $197 $198 $199 reversed $77 $-1 #
face $-1 $-1 $200 $45 $-1 $201 forward single #
loop $-1 $202 $203 $79 #
cone-surface $-1 53.304354896188073 -16.25326243569312 8.3772082202012967 -0.83867057594974714 0 -0.54463902268945019 0.068079877836181274 0 -0.10483382199371839 1 I I -0.70710678118654746 0.70710678118654746 0.125 forward I I I I #
loop $-1 $-1 $204 $59 #
coedge $-1 $128 $128 $205 $206 reversed $80 $-1 #
face $-1 $-1 $207 $46 $-1 $208 forward single #
loop $-1 $209 $210 $82 #
cone-surface $-1 53.304354896188073 -12.663776420006187 8.3772082202012967 -0.83867057594974714 0 -0.54463902268945019 0.068079877836181274 0 -0.10483382199371839 1 I I -0.70710678118654746 0.70710678118654746 0.125 forward I I I I #
loop $-1 $-1 $211 $60 #
coedge $-1 $133 $133 $212 $213 reversed $83 $-1 #
face $-1 $214 $215 $47 $-1 $216 reversed single #
loop $-1 $-1 $217 $85 #
plane-surface $-1 -5.2596312997658998 -0.58221240927336737 100.62342991908388 0.83867057594974714 0 0.54463902268945019 0.54463902268945019 0 -0.83867057594974714 forward_v I I I I #
coedge $-1 $218 $219 $220 $221 reversed $86 $-1 #
face $-1 $-1 $222 $48 $-1 $223 forward single #
loop $-1 $224 $225 $88 #
cone-surface $-1 53.304354896188073 -2.3769554171168323 8.3772082202012967 -0.83867057594974714 0 -0.54463902268945019 0.068079877836181274 0 -0.10483382199371839 1 I I -0.70710678118654746 0.70710678118654746 0.125 forward I I I I #
loop $-1 $-1 $226 $62 #
coedge $-1 $142 $142 $227 $228 reversed $89 $-1 #
face $-1 $-1 $229 $49 $-1 $230 forward single #
loop $-1 $231 $232 $91 #
cone-surface $-1 53.304354896188073 1.2125305985700976 8.3772082202012967 -0.83867057594974714 0 -0.54463902268945019 0.068079877836181274 0 -0.10483382199371839 1 I I -0.70710678118654746 0.70710678118654746 0.125 forward I I I I #
loop $-1 $-1 $233 $63 #
coedge $-1 $147 $147 $234 $235 reversed $92 $-1 #
face $-1 $236 $237 $50 $-1 $238 reversed single #
loop $-1 $-1 $239 $94 #
plane-surface $-1 -5.2596312997658998 13.294094609302917 100.62342991908388 0.83867057594974714 0 0.54463902268945019 0.54463902268945019 0 -0.83867057594974714 forward_v I I I I #
coedge $-1 $240 $241 $242 $243 reversed $95 $-1 #
face $-1 $-1 $244 $51 $-1 $245 forward single #
loop $-1 $246 $247 $97 #
cone-surface $-1 53.304354896188073 11.499351601459452 8.3772082202012967 -0.83867057594974714 0 -0.54463902268945019 0.068079877836181274 0 -0.10483382199371839 1 I I -0.70710678118654746 0.70710678118654746 0.125 forward I I I I #
loop $-1 $-1 $248 $65 #
coedge $-1 $156 $156 $249 $250 reversed $98 $-1 #
face $-1 $-1 $251 $52 $-1 $252 forward single #
loop $-1 $253 $254 $100 #
cone-surface $-1 53.304354896188073 15.088837617146382 8.3772082202012967 -0.83867057594974714 0 -0.54463902268945019 0.068079877836181274 0 -0.10483382199371839 1 I I -0.70710678118654746 0.70710678118654746 0.125 forward I I I I #
loop $-1 $-1 $255 $66 #
coedge $-1 $161 $161 $256 $257 reversed $101 $-1 #
face $-1 $258 $259 $53 $-1 $260 reversed single #
loop $-1 $-1 $261 $103 #
plane-surface $-1 -5.2596312997658998 27.170401627879201 100.62342991908388 0.83867057594974714 0 0.54463902268945019 0.54463902268945019 0 -0.83867057594974714 forward_v I I I I #
coedge $-1 $262 $263 $264 $265 reversed $104 $-1 #
face $-1 $-1 $266 $54 $-1 $267 forward single #
loop $-1 $268 $269 $106 #
cone-surface $-1 53.304354896188073 25.375658620035736 8.3772082202012967 -0.83867057594974714 0 -0.54463902268945019 0.068079877836181274 0 -0.10483382199371839 1 I I -0.70710678118654746 0.70710678118654746 0.125 forward I I I I #
loop $-1 $-1 $270 $68 #
coedge $-1 $170 $170 $271 $272 reversed $107 $-1 #
face $-1 $-1 $273 $55 $-1 $274 forward single #
loop $-1 $275 $276 $109 #
cone-surface $-1 53.304354896188073 28.965144635722666 8.3772082202012967 -0.83867057594974714 0 -0.54463902268945019 0.068079877836181274 0 -0.10483382199371839 1 I I -0.70710678118654746 0.70710678118654746 0.125 forward I I I I #
loop $-1 $-1 $277 $69 #
coedge $-1 $175 $175 $278 $279 reversed $110 $-1 #
face $-1 $280 $281 $42 $-1 $282 reversed single #
loop $-1 $-1 $283 $112 #
plane-surface $-1 0 -33.389447794725399 0 0 1 0 0 0 1 forward_v I I I I #
coedge $-1 $284 $285 $286 $287 forward $113 $-1 #
coedge $-1 $288 $115 $289 $290 forward $71 $-1 #
coedge $-1 $115 $288 $291 $292 forward $71 $-1 #
coedge $-1 $293 $294 $115 $183 reversed $295 $-1 #
edge $-1 $296 -33.389447794725399 $297 33.389447794725399 $182 $298 forward 7 unknown #
face $-1 $299 $300 $43 $-1 $301 forward single #
loop $-1 $-1 $302 $116 #
plane-surface $-1 -26.565915988776425 -27.033506694710624 0 -1 0 0 0 0 1 forward_v I I I I #
coedge $-1 $303 $304 $305 $306 forward $117 $-1 #
coedge $-1 $307 $119 $308 $309 reversed $74 $-1 #
coedge $-1 $119 $307 $310 $311 reversed $74 $-1 #
coedge $-1 $304 $303 $119 $191 reversed $117 $-1 #
edge $-1 $312 -16.173507351844279 $313 16.173507351844279 $190 $314 forward 7 unknown #
face $-1 $315 $316 $44 $-1 $317 reversed single #
loop $-1 $-1 $318 $120 #
plane-surface $-1 93.55745172970839 -18.646253112817742 164.79599191131476 0 1 0 0.83867057594974714 0 0.54463902268945019 forward_v I I I I #
coedge $-1 $319 $320 $321 $322 reversed $121 $-1 #
coedge $-1 $197 $123 $323 $324 reversed $77 $-1 #
coedge $-1 $123 $196 $319 $325 reversed $77 $-1 #
coedge $-1 $321 $326 $123 $199 forward $327 $-1 #
edge $-1 $328 -12.134204827610787 $329 -2.8040620309438964 $198 $330 forward 7 unknown #
loop $-1 $-1 $205 $124 #
plane-surface $-1 -5.2596312997658998 -14.458519427849652 100.62342991908388 0.83867057594974714 0 0.54463902268945019 0.54463902268945019 0 -0.83867057594974714 forward_v I I I I #
loop $-1 $-1 $331 $79 #
coedge $-1 $203 $203 $204 $332 reversed $125 $-1 #
coedge $-1 $204 $204 $203 $332 forward $127 $-1 #
coedge $-1 $205 $205 $128 $206 forward $200 $-1 #
edge $-1 $333 0 $333 6.2831853071796004 $205 $334 forward 7 unknown #
loop $-1 $-1 $212 $129 #
plane-surface $-1 -5.2596312997658998 -14.458519427849652 100.62342991908388 0.83867057594974714 0 0.54463902268945019 0.54463902268945019 0 -0.83867057594974714 forward_v I I I I #
loop $-1 $-1 $335 $82 #
coedge $-1 $210 $210 $211 $336 reversed $130 $-1 #
coedge $-1 $211 $211 $210 $336 forward $132 $-1 #
coedge $-1 $212 $212 $133 $213 forward $207 $-1 #
edge $-1 $337 0 $337 6.2831853071796004 $212 $338 forward 7 unknown #
face $-1 $339 $340 $47 $-1 $341 reversed single #
loop $-1 $-1 $342 $134 #
plane-surface $-1 93.55745172970839 -4.7699460942414591 164.79599191131476 0 1 0 0.83867057594974714 0 0.54463902268945019 forward_v I I I I #
coedge $-1 $343 $344 $345 $346 reversed $135 $-1 #
coedge $-1 $219 $137 $347 $348 reversed $86 $-1 #
coedge $-1 $137 $218 $343 $349 reversed $86 $-1 #
coedge $-1 $345 $350 $137 $221 forward $351 $-1 #
edge $-1 $352 -12.134204827610787 $353 -2.8040620309438964 $220 $354 forward 7 unknown #
loop $-1 $-1 $227 $138 #
plane-surface $-1 -5.2596312997658998 -0.58221240927336737 100.62342991908388 0.83867057594974714 0 0.54463902268945019 0.54463902268945019 0 -0.83867057594974714 forward_v I I I I #
loop $-1 $-1 $355 $88 #
coedge $-1 $225 $225 $226 $356 reversed $139 $-1 #
coedge $-1 $226 $226 $225 $356 forward $141 $-1 #
coedge $-1 $227 $227 $142 $228 forward $222 $-1 #
edge $-1 $357 0 $357 6.2831853071796004 $227 $358 forward 7 unknown #
loop $-1 $-1 $234 $143 #
plane-surface $-1 -5.2596312997658998 -0.58221240927336737 100.62342991908388 0.83867057594974714 0 0.54463902268945019 0.54463902268945019 0 -0.83867057594974714 forward_v I I I I #
loop $-1 $-1 $359 $91 #
coedge $-1 $232 $232 $233 $360 reversed $144 $-1 #
coedge $-1 $233 $233 $232 $360 forward $146 $-1 #
coedge $-1 $234 $234 $147 $235 forward $229 $-1 #
edge $-1 $361 0 $361 6.2831853071796004 $234 $362 forward 7 unknown #
face $-1 $363 $364 $50 $-1 $365 reversed single #
loop $-1 $-1 $366 $148 #
plane-surface $-1 93.55745172970839 9.106360924334826 164.79599191131476 0 1 0 0.83867057594974714 0 0.54463902268945019 forward_v I I I I #
coedge $-1 $367 $368 $369 $370 reversed $149 $-1 #
coedge $-1 $241 $151 $371 $372 reversed $95 $-1 #
coedge $-1 $151 $240 $367 $373 reversed $95 $-1 #
coedge $-1 $369 $374 $151 $243 forward $375 $-1 #
edge $-1 $376 -12.134204827610787 $377 -2.8040620309438964 $242 $378 forward 7 unknown #
loop $-1 $-1 $249 $152 #
plane-surface $-1 -5.2596312997658998 13.294094609302917 100.62342991908388 0.83867057594974714 0 0.54463902268945019 0.54463902268945019 0 -0.83867057594974714 forward_v I I I I #
loop $-1 $-1 $379 $97 #
coedge $-1 $247 $247 $248 $380 reversed $153 $-1 #
coedge $-1 $248 $248 $247 $380 forward $155 $-1 #
coedge $-1 $249 $249 $156 $250 forward $244 $-1 #
edge $-1 $381 0 $381 6.2831853071796004 $249 $382 forward 7 unknown #
loop $-1 $-1 $256 $157 #
plane-surface $-1 -5.2596312997658998 13.294094609302917 100.62342991908388 0.83867057594974714 0 0.54463902268945019 0.54463902268945019 0 -0.83867057594974714 forward_v I I I I #
loop $-1 $-1 $383 $100 #
coedge $-1 $254 $254 $255 $384 reversed $158 $-1 #
coedge $-1 $255 $255 $254 $384 forward $160 $-1 #
coedge $-1 $256 $256 $161 $257 forward $251 $-1 #
edge $-1 $385 0 $385 6.2831853071796004 $256 $386 forward 7 unknown #
face $-1 $387 $388 $53 $-1 $389 reversed single #
loop $-1 $-1 $390 $162 #
plane-surface $-1 93.55745172970839 22.98266794291111 164.79599191131476 0 1 0 0.83867057594974714 0 0.54463902268945019 forward_v I I I I #
coedge $-1 $391 $392 $393 $394 reversed $163 $-1 #
coedge $-1 $263 $165 $395 $396 reversed $104 $-1 #
coedge $-1 $165 $262 $391 $397 reversed $104 $-1 #
coedge $-1 $393 $398 $165 $265 forward $399 $-1 #
edge $-1 $400 -12.134204827610787 $401 -2.8040620309438964 $264 $402 forward 7 unknown #
loop $-1 $-1 $271 $166 #
plane-surface $-1 -5.2596312997658998 27.170401627879201 100.62342991908388 0.83867057594974714 0 0.54463902268945019 0.54463902268945019 0 -0.83867057594974714 forward_v I I I I #
loop $-1 $-1 $403 $106 #
coedge $-1 $269 $269 $270 $404 reversed $167 $-1 #
coedge $-1 $270 $270 $269 $404 forward $169 $-1 #
coedge $-1 $271 $271 $170 $272 forward $266 $-1 #
edge $-1 $405 0 $405 6.2831853071796004 $271 $406 forward 7 unknown #
loop $-1 $-1 $278 $171 #
plane-surface $-1 -5.2596312997658998 27.170401627879201 100.62342991908388 0.83867057594974714 0 0.54463902268945019 0.54463902268945019 0 -0.83867057594974714 forward_v I I I I #
loop $-1 $-1 $407 $109 #
coedge $-1 $276 $276 $277 $408 reversed $172 $-1 #
coedge $-1 $277 $277 $276 $408 forward $174 $-1 #
coedge $-1 $278 $278 $175 $279 forward $273 $-1 #
edge $-1 $409 0 $409 6.2831853071796004 $278 $410 forward 7 unknown #
face $-1 $411 $412 $42 $-1 $413 reversed single #
loop $-1 $-1 $414 $176 #
plane-surface $-1 -58.912930692464982 0 0 1 0 0 0 0 -1 forward_v I I I I #
coedge $-1 $415 $291 $416 $417 forward $177 $-1 #
coedge $-1 $418 $179 $415 $419 forward $113 $-1 #
coedge $-1 $179 $418 $420 $421 forward $113 $-1 #
coedge $-1 $294 $293 $179 $287 reversed $295 $-1 #
edge $-1 $422 -33.389447794725399 $423 33.389447794725399 $286 $424 forward 7 unknown #
coedge $-1 $181 $180 $425 $426 forward $71 $-1 #
coedge $-1 $427 $428 $180 $290 reversed $412 $-1 #
edge $-1 $297 -58.912930692464982 $429 58.912930692464982 $289 $430 forward 7 unknown #
coedge $-1 $283 $431 $181 $292 reversed $177 $-1 #
edge $-1 $432 -58.912930692464982 $296 58.912930692464982 $291 $433 forward 7 unknown #
coedge $-1 $286 $182 $431 $434 forward $295 $-1 #
coedge $-1 $182 $286 $427 $435 reversed $295 $-1 #
loop $-1 $-1 $293 $411 #
vertex $-1 $183 $436 #
vertex $-1 $183 $437 #
straight-curve $-1 58.912930692464982 0 16.173507351844279 0 1 0 I I #
face $-1 $438 $439 $43 $-1 $440 reversed single #
loop $-1 $-1 $441 $184 #
plane-surface $-1 0 0 16.173507351844279 0 0 1 1 0 0 forward_v I I I I #
coedge $-1 $442 $443 $444 $445 reversed $185 $-1 #
coedge $-1 $190 $187 $446 $447 reversed $117 $-1 #
coedge $-1 $187 $190 $448 $449 reversed $117 $-1 #
coedge $-1 $443 $442 $187 $306 reversed $185 $-1 #
edge $-1 $450 -16.173507351844279 $451 16.173507351844279 $305 $452 forward 7 unknown #
coedge $-1 $189 $188 $453 $454 reversed $74 $-1 #
coedge $-1 $446 $455 $188 $309 forward $439 $-1 #
edge $-1 $456 -19.872694447370087 $313 -7.1608122473405373 $308 $457 forward 7 unknown #
coedge $-1 $458 $448 $189 $311 forward $300 $-1 #
edge $-1 $312 7.1608122473405373 $459 19.872694447370087 $310 $460 forward 7 unknown #
vertex $-1 $311 $461 #
vertex $-1 $309 $462 #
straight-curve $-1 -35.515220526765518 -20.677565594695849 0 0 0 -1 I I #
face $-1 $-1 $327 $44 $-1 $463 forward single #
loop $-1 $-1 $464 $192 #
plane-surface $-1 58.912930692464982 0 0 -1 0 0 0 0 1 forward_v I I I I #
coedge $-1 $465 $466 $467 $468 reversed $193 $-1 #
coedge $-1 $469 $195 $197 $325 forward $121 $-1 #
coedge $-1 $195 $469 $465 $470 forward $121 $-1 #
coedge $-1 $467 $198 $195 $322 forward $327 $-1 #
edge $-1 $329 3.041526028956735 $471 11.416993398892917 $321 $472 forward 7 unknown #
coedge $-1 $473 $474 $196 $324 forward $316 $-1 #
edge $-1 $475 -80.591649066047793 $328 -66.2244886038131 $323 $476 forward 7 unknown #
edge $-1 $329 100.69498679097551 $475 117.82586138492998 $197 $477 forward 7 unknown #
coedge $-1 $198 $467 $473 $478 forward $327 $-1 #
loop $-1 $-1 $467 $315 #
vertex $-1 $324 $479 #
vertex $-1 $199 $480 #
straight-curve $-1 46.778725864854195 -10.270785742881561 16.173507351844279 -1 0 0 I I #
coedge $-1 $331 $331 $-1 $481 reversed $202 $-1 #
edge $-1 $482 0 $482 6.2831853071796004 $203 $483 forward 7 unknown #
vertex $-1 $206 $484 #
ellipse-curve $-1 54.247859294131544 -16.25326243569312 8.9899271207269322 0.83867057594974714 0 0.54463902268945019 0.13615975567236255 0 -0.20966764398743679 1 I I #
coedge $-1 $335 $335 $-1 $485 reversed $209 $-1 #
edge $-1 $486 0 $486 6.2831853071796004 $210 $487 forward 7 unknown #
vertex $-1 $213 $488 #
ellipse-curve $-1 54.247859294131544 -12.663776420006187 8.9899271207269322 0.83867057594974714 0 0.54463902268945019 0.13615975567236255 0 -0.20966764398743679 1 I I #
face $-1 $-1 $351 $47 $-1 $489 forward single #
loop $-1 $-1 $490 $214 #
plane-surface $-1 58.912930692464982 0 0 -1 0 0 0 0 1 forward_v I I I I #
coedge $-1 $491 $492 $493 $494 reversed $215 $-1 #
coedge $-1 $495 $217 $219 $349 forward $135 $-1 #
coedge $-1 $217 $495 $491 $496 forward $135 $-1 #
coedge $-1 $493 $220 $217 $346 forward $351 $-1 #
edge $-1 $353 -3.896627480331408 $497 4.4788398896047754 $345 $498 forward 7 unknown #
coedge $-1 $499 $500 $218 $348 forward $340 $-1 #
edge $-1 $501 -80.591649066047793 $352 -66.2244886038131 $347 $502 forward 7 unknown #
edge $-1 $353 100.69498679097551 $501 117.82586138492998 $219 $503 forward 7 unknown #
coedge $-1 $220 $493 $499 $504 forward $351 $-1 #
loop $-1 $-1 $493 $339 #
vertex $-1 $348 $505 #
vertex $-1 $221 $506 #
straight-curve $-1 46.778725864854195 3.6055212756947244 16.173507351844279 -1 0 0 I I #
coedge $-1 $355 $355 $-1 $507 reversed $224 $-1 #
edge $-1 $508 0 $508 6.2831853071796004 $225 $509 forward 7 unknown #
vertex $-1 $228 $510 #
ellipse-curve $-1 54.247859294131544 -2.3769554171168323 8.9899271207269322 0.83867057594974714 0 0.54463902268945019 0.13615975567236255 0 -0.20966764398743679 1 I I #
coedge $-1 $359 $359 $-1 $511 reversed $231 $-1 #
edge $-1 $512 0 $512 6.2831853071796004 $232 $513 forward 7 unknown #
vertex $-1 $235 $514 #
ellipse-curve $-1 54.247859294131544 1.2125305985700976 8.9899271207269322 0.83867057594974714 0 0.54463902268945019 0.13615975567236255 0 -0.20966764398743679 1 I I #
face $-1 $-1 $375 $50 $-1 $515 forward single #
loop $-1 $-1 $516 $236 #
plane-surface $-1 58.912930692464982 0 0 -1 0 0 0 0 1 forward_v I I I I #
coedge $-1 $517 $518 $519 $520 reversed $237 $-1 #
coedge $-1 $521 $239 $241 $373 forward $149 $-1 #
coedge $-1 $239 $521 $517 $522 forward $149 $-1 #
coedge $-1 $519 $242 $239 $370 forward $375 $-1 #
edge $-1 $377 -10.834780989619549 $523 -2.4593136196833676 $369 $524 forward 7 unknown #
coedge $-1 $525 $526 $240 $372 forward $364 $-1 #
edge $-1 $527 -80.591649066047793 $376 -66.2244886038131 $371 $528 forward 7 unknown #
edge $-1 $377 100.69498679097551 $527 117.82586138492998 $241 $529 forward 7 unknown #
coedge $-1 $242 $519 $525 $530 forward $375 $-1 #
loop $-1 $-1 $519 $363 #
vertex $-1 $372 $531 #
vertex $-1 $243 $532 #
straight-curve $-1 46.778725864854195 17.481828294271008 16.173507351844279 -1 0 0 I I #
coedge $-1 $379 $379 $-1 $533 reversed $246 $-1 #
edge $-1 $534 0 $534 6.2831853071796004 $247 $535 forward 7 unknown #
vertex $-1 $250 $536 #
ellipse-curve $-1 54.247859294131544 11.499351601459452 8.9899271207269322 0.83867057594974714 0 0.54463902268945019 0.13615975567236255 0 -0.20966764398743679 1 I I #
coedge $-1 $383 $383 $-1 $537 reversed $253 $-1 #
edge $-1 $538 0 $538 6.2831853071796004 $254 $539 forward 7 unknown #
vertex $-1 $257 $540 #
ellipse-curve $-1 54.247859294131544 15.088837617146382 8.9899271207269322 0.83867057594974714 0 0.54463902268945019 0.13615975567236255 0 -0.20966764398743679 1 I I #
face $-1 $-1 $399 $53 $-1 $541 forward single #
loop $-1 $-1 $542 $258 #
plane-surface $-1 58.912930692464982 0 0 -1 0 0 0 0 1 forward_v I I I I #
coedge $-1 $543 $544 $545 $546 reversed $259 $-1 #
coedge $-1 $547 $261 $263 $397 forward $163 $-1 #
coedge $-1 $261 $547 $543 $548 forward $163 $-1 #
coedge $-1 $545 $264 $261 $394 forward $399 $-1 #
edge $-1 $401 -17.772934498907691 $549 -9.3974671289715097 $393 $550 forward 7 unknown #
coedge $-1 $551 $552 $262 $396 forward $388 $-1 #
edge $-1 $553 -80.591649066047793 $400 -66.2244886038131 $395 $554 forward 7 unknown #
edge $-1 $401 100.69498679097551 $553 117.82586138492998 $263 $555 forward 7 unknown #
coedge $-1 $264 $545 $551 $556 forward $399 $-1 #
loop $-1 $-1 $545 $387 #
vertex $-1 $396 $557 #
vertex $-1 $265 $558 #
straight-curve $-1 46.778725864854195 31.358135312847292 16.173507351844279 -1 0 0 I I #
coedge $-1 $403 $403 $-1 $559 reversed $268 $-1 #
edge $-1 $560 0 $560 6.2831853071796004 $269 $561 forward 7 unknown #
vertex $-1 $272 $562 #
ellipse-curve $-1 54.247859294131544 25.375658620035736 8.9899271207269322 0.83867057594974714 0 0.54463902268945019 0.13615975567236255 0 -0.20966764398743679 1 I I #
coedge $-1 $407 $407 $-1 $563 reversed $275 $-1 #
edge $-1 $564 0 $564 6.2831853071796004 $276 $565 forward 7 unknown #
vertex $-1 $279 $566 #
ellipse-curve $-1 54.247859294131544 28.965144635722666 8.9899271207269322 0.83867057594974714 0 0.54463902268945019 0.13615975567236255 0 -0.20966764398743679 1 I I #
face $-1 $-1 $295 $42 $-1 $567 reversed single #
loop $-1 $-1 $427 $280 #
plane-surface $-1 0 33.389447794725399 0 0 -1 0 0 0 -1 forward_v I I I I #
coedge $-1 $568 $425 $428 $569 forward $281 $-1 #
coedge $-1 $431 $283 $284 $419 reversed $177 $-1 #
coedge $-1 $425 $568 $283 $417 reversed $281 $-1 #
edge $-1 $432 -16.173507351844279 $570 16.173507351844279 $416 $571 forward 7 unknown #
coedge $-1 $285 $284 $568 $572 forward $113 $-1 #
edge $-1 $423 -58.912930692464982 $570 58.912930692464982 $415 $573 forward 7 unknown #
coedge $-1 $428 $427 $285 $421 reversed $412 $-1 #
edge $-1 $574 -58.912930692464982 $422 58.912930692464982 $420 $575 forward 7 unknown #
vertex $-1 $287 $576 #
vertex $-1 $434 $577 #
straight-curve $-1 58.912930692464982 0 -16.173507351844279 0 -1 0 I I #
coedge $-1 $414 $416 $288 $426 reversed $281 $-1 #
edge $-1 $429 -33.389447794725399 $432 33.389447794725399 $425 $578 forward 7 unknown #
coedge $-1 $420 $289 $294 $435 forward $412 $-1 #
coedge $-1 $289 $420 $414 $569 reversed $412 $-1 #
vertex $-1 $290 $579 #
straight-curve $-1 0 33.389447794725399 16.173507351844279 -1 0 0 I I #
coedge $-1 $291 $415 $293 $434 reversed $177 $-1 #
vertex $-1 $426 $580 #
straight-curve $-1 0 -33.389447794725399 16.173507351844279 1 0 0 I I #
edge $-1 $296 -16.173507351844279 $423 16.173507351844279 $293 $581 forward 7 unknown #
edge $-1 $297 -16.173507351844279 $422 16.173507351844279 $294 $582 forward 7 unknown #
point $-1 58.912930692464982 -33.389447794725399 16.173507351844279 #
point $-1 58.912930692464982 33.389447794725399 16.173507351844279 #
face $-1 $-1 $583 $43 $-1 $584 reversed single #
loop $-1 $-1 $585 $299 #
plane-surface $-1 0 0 -16.173507351844279 0 0 1 1 0 0 forward_v I I I I #
coedge $-1 $448 $458 $443 $586 forward $300 $-1 #
coedge $-1 $305 $302 $585 $587 reversed $185 $-1 #
coedge $-1 $302 $305 $441 $586 reversed $185 $-1 #
coedge $-1 $588 $589 $302 $445 forward $583 $-1 #
edge $-1 $590 -16.173507351844279 $591 16.173507351844279 $444 $592 forward 7 unknown #
coedge $-1 $585 $308 $303 $447 forward $439 $-1 #
edge $-1 $313 -19.994936397880032 $451 -11.045631859890939 $446 $593 forward 7 unknown #
coedge $-1 $310 $441 $304 $449 forward $300 $-1 #
edge $-1 $450 11.045631859890939 $312 19.994936397880032 $448 $594 forward 7 unknown #
vertex $-1 $449 $595 #
vertex $-1 $447 $596 #
straight-curve $-1 -26.565915988776425 -20.677565594695849 0 0 0 -1 I I #
coedge $-1 $589 $588 $307 $454 forward $583 $-1 #
edge $-1 $459 -16.173507351844279 $456 16.173507351844279 $453 $597 forward 7 unknown #
coedge $-1 $308 $585 $589 $598 forward $439 $-1 #
vertex $-1 $309 $599 #
straight-curve $-1 -35.515220526765518 -13.516753347355312 -16.173507351844279 0 1 0 I I #
coedge $-1 $441 $310 $588 $600 forward $300 $-1 #
vertex $-1 $600 $601 #
straight-curve $-1 -35.515220526765518 -13.516753347355312 16.173507351844279 0 -1 0 I I #
point $-1 -35.515220526765518 -20.677565594695849 16.173507351844279 #
point $-1 -35.515220526765518 -20.677565594695849 -16.173507351844279 #
plane-surface $-1 0 0 16.173507351844279 0 0 1 1 0 0 forward_v I I I I #
coedge $-1 $474 $473 $466 $602 forward $316 $-1 #
coedge $-1 $466 $318 $320 $470 reversed $193 $-1 #
coedge $-1 $318 $465 $464 $602 reversed $193 $-1 #
coedge $-1 $326 $321 $318 $468 forward $327 $-1 #
edge $-1 $471 2.8040620309438964 $603 12.134204827610787 $467 $604 forward 7 unknown #
coedge $-1 $320 $319 $474 $605 reversed $121 $-1 #
edge $-1 $606 -117.82586138492998 $471 -100.69498679097551 $465 $607 forward 7 unknown #
vertex $-1 $322 $608 #
straight-curve $-1 49.582787895798091 -7.2292597139248258 16.173507351844279 0 -1 0 I I #
coedge $-1 $464 $323 $326 $478 reversed $316 $-1 #
coedge $-1 $323 $464 $469 $605 forward $316 $-1 #
vertex $-1 $324 $609 #
straight-curve $-1 58.912930692464982 -10.270785742881561 82.397995955657379 0 0 1 I I #
straight-curve $-1 -5.2596312997658998 -10.270785742881561 100.62342991908388 0.54463902268945019 0 -0.83867057594974714 I I #
edge $-1 $603 -18.646253112817742 $328 -10.270785742881561 $473 $610 forward 7 unknown #
point $-1 58.912930692464982 -10.270785742881561 16.173507351844279 #
point $-1 49.582787895798091 -10.270785742881561 16.173507351844279 #
edge $-1 $611 1 $611 0 $331 $-1 forward 7 unknown #
vertex $-1 $332 $612 #
ellipse-curve $-1 53.409188718181788 -16.25326243569312 8.4452880980374783 0.83867057594974714 0 0.54463902268945019 0.13615975567236255 0 -0.20966764398743679 1 I I #
point $-1 54.384019049803904 -16.25326243569312 8.7802594767394915 #
edge $-1 $613 1 $613 0 $335 $-1 forward 7 unknown #
vertex $-1 $336 $614 #
ellipse-curve $-1 53.409188718181788 -12.663776420006187 8.4452880980374783 0.83867057594974714 0 0.54463902268945019 0.13615975567236255 0 -0.20966764398743679 1 I I #
point $-1 54.384019049803904 -12.663776420006187 8.7802594767394915 #
plane-surface $-1 0 0 16.173507351844279 0 0 1 1 0 0 forward_v I I I I #
coedge $-1 $500 $499 $492 $615 forward $340 $-1 #
coedge $-1 $492 $342 $344 $496 reversed $215 $-1 #
coedge $-1 $342 $491 $490 $615 reversed $215 $-1 #
coedge $-1 $350 $345 $342 $494 forward $351 $-1 #
edge $-1 $497 2.8040620309438964 $616 12.134204827610787 $493 $617 forward 7 unknown #
coedge $-1 $344 $343 $500 $618 reversed $135 $-1 #
edge $-1 $619 -117.82586138492998 $497 -100.69498679097551 $491 $620 forward 7 unknown #
vertex $-1 $346 $621 #
straight-curve $-1 49.582787895798091 -0.29110620463668369 16.173507351844279 0 -1 0 I I #
coedge $-1 $490 $347 $350 $504 reversed $340 $-1 #
coedge $-1 $347 $490 $495 $618 forward $340 $-1 #
vertex $-1 $348 $622 #
straight-curve $-1 58.912930692464982 3.6055212756947244 82.397995955657379 0 0 1 I I #
straight-curve $-1 -5.2596312997658998 3.6055212756947244 100.62342991908388 0.54463902268945019 0 -0.83867057594974714 I I #
edge $-1 $616 -4.7699460942414591 $352 3.6055212756947244 $499 $623 forward 7 unknown #
point $-1 58.912930692464982 3.6055212756947244 16.173507351844279 #
point $-1 49.582787895798091 3.6055212756947244 16.173507351844279 #
edge $-1 $624 1 $624 0 $355 $-1 forward 7 unknown #
vertex $-1 $356 $625 #
ellipse-curve $-1 53.409188718181788 -2.3769554171168323 8.4452880980374783 0.83867057594974714 0 0.54463902268945019 0.13615975567236255 0 -0.20966764398743679 1 I I #
point $-1 54.384019049803904 -2.3769554171168323 8.7802594767394915 #
edge $-1 $626 1 $626 0 $359 $-1 forward 7 unknown #
vertex $-1 $360 $627 #
ellipse-curve $-1 53.409188718181788 1.2125305985700976 8.4452880980374783 0.83867057594974714 0 0.54463902268945019 0.13615975567236255 0 -0.20966764398743679 1 I I #
point $-1 54.384019049803904 1.2125305985700976 8.7802594767394915 #
plane-surface $-1 0 0 16.173507351844279 0 0 1 1 0 0 forward_v I I I I #
coedge $-1 $526 $525 $518 $628 forward $364 $-1 #
coedge $-1 $518 $366 $368 $522 reversed $237 $-1 #
coedge $-1 $366 $517 $516 $628 reversed $237 $-1 #
coedge $-1 $374 $369 $366 $520 forward $375 $-1 #
edge $-1 $523 2.8040620309438964 $629 12.134204827610787 $519 $630 forward 7 unknown #
coedge $-1 $368 $367 $526 $631 reversed $149 $-1 #
edge $-1 $632 -117.82586138492998 $523 -100.69498679097551 $517 $633 forward 7 unknown #
vertex $-1 $370 $634 #
straight-curve $-1 49.582787895798091 6.6470473046514584 16.173507351844279 0 -1 0 I I #
coedge $-1 $516 $371 $374 $530 reversed $364 $-1 #
coedge $-1 $371 $516 $521 $631 forward $364 $-1 #
vertex $-1 $372 $635 #
straight-curve $-1 58.912930692464982 17.481828294271008 82.397995955657379 0 0 1 I I #
straight-curve $-1 -5.2596312997658998 17.481828294271008 100.62342991908388 0.54463902268945019 0 -0.83867057594974714 I I #
edge $-1 $629 9.106360924334826 $376 17.481828294271008 $525 $636 forward 7 unknown #
point $-1 58.912930692464982 17.481828294271008 16.173507351844279 #
point $-1 49.582787895798091 17.481828294271008 16.173507351844279 #
edge $-1 $637 1 $637 0 $379 $-1 forward 7 unknown #
vertex $-1 $380 $638 #
ellipse-curve $-1 53.409188718181788 11.499351601459452 8.4452880980374783 0.83867057594974714 0 0.54463902268945019 0.13615975567236255 0 -0.20966764398743679 1 I I #
point $-1 54.384019049803904 11.499351601459452 8.7802594767394915 #
edge $-1 $639 1 $639 0 $383 $-1 forward 7 unknown #
vertex $-1 $384 $640 #
ellipse-curve $-1 53.409188718181788 15.088837617146382 8.4452880980374783 0.83867057594974714 0 0.54463902268945019 0.13615975567236255 0 -0.20966764398743679 1 I I #
point $-1 54.384019049803904 15.088837617146382 8.7802594767394915 #
plane-surface $-1 0 0 16.173507351844279 0 0 1 1 0 0 forward_v I I I I #
coedge $-1 $552 $551 $544 $641 forward $388 $-1 #
coedge $-1 $544 $390 $392 $548 reversed $259 $-1 #
coedge $-1 $390 $543 $542 $641 reversed $259 $-1 #
coedge $-1 $398 $393 $390 $546 forward $399 $-1 #
edge $-1 $549 2.8040620309438964 $642 12.134204827610787 $545 $643 forward 7 unknown #
coedge $-1 $392 $391 $552 $644 reversed $163 $-1 #
edge $-1 $645 -117.82586138492998 $549 -100.69498679097551 $543 $646 forward 7 unknown #
vertex $-1 $394 $647 #
straight-curve $-1 49.582787895798091 13.585200813939601 16.173507351844279 0 -1 0 I I #
coedge $-1 $542 $395 $398 $556 reversed $388 $-1 #
coedge $-1 $395 $542 $547 $644 forward $388 $-1 #
vertex $-1 $396 $648 #
straight-curve $-1 58.912930692464982 31.358135312847292 82.397995955657379 0 0 1 I I #
straight-curve $-1 -5.2596312997658998 31.358135312847292 100.62342991908388 0.54463902268945019 0 -0.83867057594974714 I I #
edge $-1 $642 22.98266794291111 $400 31.358135312847292 $551 $649 forward 7 unknown #
point $-1 58.912930692464982 31.358135312847292 16.173507351844279 #
point $-1 49.582787895798091 31.358135312847292 16.173507351844279 #
edge $-1 $650 1 $650 0 $403 $-1 forward 7 unknown #
vertex $-1 $404 $651 #
ellipse-curve $-1 53.409188718181788 25.375658620035736 8.4452880980374783 0.83867057594974714 0 0.54463902268945019 0.13615975567236255 0 -0.20966764398743679 1 I I #
point $-1 54.384019049803904 25.375658620035736 8.7802594767394915 #
edge $-1 $652 1 $652 0 $407 $-1 forward 7 unknown #
vertex $-1 $408 $653 #
ellipse-curve $-1 53.409188718181788 28.965144635722666 8.4452880980374783 0.83867057594974714 0 0.54463902268945019 0.13615975567236255 0 -0.20966764398743679 1 I I #
point $-1 54.384019049803904 28.965144635722666 8.7802594767394915 #
plane-surface $-1 58.912930692464982 0 0 -1 0 0 0 0 1 forward_v I I I I #
coedge $-1 $416 $414 $418 $572 reversed $281 $-1 #
edge $-1 $429 -16.173507351844279 $574 16.173507351844279 $428 $654 forward 7 unknown #
vertex $-1 $572 $655 #
straight-curve $-1 -58.912930692464982 -33.389447794725399 0 0 0 -1 I I #
edge $-1 $570 -33.389447794725399 $574 33.389447794725399 $568 $656 forward 7 unknown #
straight-curve $-1 0 -33.389447794725399 -16.173507351844279 -1 0 0 I I #
vertex $-1 $421 $657 #
straight-curve $-1 0 33.389447794725399 -16.173507351844279 1 0 0 I I #
point $-1 58.912930692464982 33.389447794725399 -16.173507351844279 #
point $-1 58.912930692464982 -33.389447794725399 -16.173507351844279 #
straight-curve $-1 -58.912930692464982 0 16.173507351844279 0 -1 0 I I #
point $-1 -58.912930692464982 33.389447794725399 16.173507351844279 #
point $-1 -58.912930692464982 -33.389447794725399 16.173507351844279 #
straight-curve $-1 58.912930692464982 -33.389447794725399 0 0 0 -1 I I #
straight-curve $-1 58.912930692464982 33.389447794725399 0 0 0 -1 I I #
loop $-1 $-1 $444 $438 #
plane-surface $-1 0 -33.389447794725399 0 0 1 0 0 0 1 forward_v I I I I #
coedge $-1 $455 $446 $442 $587 forward $439 $-1 #
edge $-1 $591 -19.872694447370087 $450 -7.1608122473405373 $441 $658 forward 7 unknown #
edge $-1 $451 7.1608122473405373 $590 19.872694447370087 $585 $659 forward 7 unknown #
coedge $-1 $453 $444 $458 $600 reversed $583 $-1 #
coedge $-1 $444 $453 $455 $598 reversed $583 $-1 #
vertex $-1 $598 $660 #
vertex $-1 $445 $661 #
straight-curve $-1 -26.565915988776425 -33.389447794725399 0 0 0 1 I I #
straight-curve $-1 -15.520284128885486 -20.677565594695849 -16.173507351844279 1 0 0 I I #
straight-curve $-1 -15.520284128885486 -20.677565594695849 16.173507351844279 -1 0 0 I I #
point $-1 -26.565915988776425 -20.677565594695849 16.173507351844279 #
point $-1 -26.565915988776425 -20.677565594695849 -16.173507351844279 #
straight-curve $-1 -35.515220526765518 -33.389447794725399 0 0 0 -1 I I #
edge $-1 $590 26.565915988776425 $456 35.515220526765518 $589 $662 forward 7 unknown #
point $-1 -35.515220526765518 -33.389447794725399 -16.173507351844279 #
edge $-1 $459 -35.515220526765518 $591 -26.565915988776425 $588 $663 forward 7 unknown #
point $-1 -35.515220526765518 -33.389447794725399 16.173507351844279 #
edge $-1 $603 66.2244886038131 $606 80.591649066047793 $464 $664 forward 7 unknown #
vertex $-1 $478 $665 #
straight-curve $-1 46.778725864854195 -18.646253112817742 16.173507351844279 1 0 0 I I #
edge $-1 $606 -11.416993398892917 $475 -3.041526028956735 $474 $666 forward 7 unknown #
vertex $-1 $605 $667 #
straight-curve $-1 -5.2596312997658998 -18.646253112817742 100.62342991908388 -0.54463902268945019 0 0.83867057594974714 I I #
point $-1 49.582787895798091 -18.646253112817742 16.173507351844279 #
point $-1 58.912930692464982 -10.270785742881561 1.8063468896095856 #
straight-curve $-1 58.912930692464982 0 16.173507351844279 0 1 0 I I #
vertex $-1 $481 $668 #
point $-1 53.545348473854155 -16.25326243569312 8.2356204540500411 #
vertex $-1 $485 $669 #
point $-1 53.545348473854155 -12.663776420006187 8.2356204540500411 #
edge $-1 $616 66.2244886038131 $619 80.591649066047793 $490 $670 forward 7 unknown #
vertex $-1 $504 $671 #
straight-curve $-1 46.778725864854195 -4.7699460942414591 16.173507351844279 1 0 0 I I #
edge $-1 $619 -4.4788398896047754 $501 3.896627480331408 $500 $672 forward 7 unknown #
vertex $-1 $618 $673 #
straight-curve $-1 -5.2596312997658998 -4.7699460942414591 100.62342991908388 -0.54463902268945019 0 0.83867057594974714 I I #
point $-1 49.582787895798091 -4.7699460942414591 16.173507351844279 #
point $-1 58.912930692464982 3.6055212756947244 1.8063468896095856 #
straight-curve $-1 58.912930692464982 0 16.173507351844279 0 1 0 I I #
vertex $-1 $507 $674 #
point $-1 53.545348473854155 -2.3769554171168323 8.2356204540500411 #
vertex $-1 $511 $675 #
point $-1 53.545348473854155 1.2125305985700976 8.2356204540500411 #
edge $-1 $629 66.2244886038131 $632 80.591649066047793 $516 $676 forward 7 unknown #
vertex $-1 $530 $677 #
straight-curve $-1 46.778725864854195 9.106360924334826 16.173507351844279 1 0 0 I I #
edge $-1 $632 2.4593136196833676 $527 10.834780989619549 $526 $678 forward 7 unknown #
vertex $-1 $631 $679 #
straight-curve $-1 -5.2596312997658998 9.106360924334826 100.62342991908388 -0.54463902268945019 0 0.83867057594974714 I I #
point $-1 49.582787895798091 9.106360924334826 16.173507351844279 #
point $-1 58.912930692464982 17.481828294271008 1.8063468896095856 #
straight-curve $-1 58.912930692464982 0 16.173507351844279 0 1 0 I I #
vertex $-1 $533 $680 #
point $-1 53.545348473854155 11.499351601459452 8.2356204540500411 #
vertex $-1 $537 $681 #
point $-1 53.545348473854155 15.088837617146382 8.2356204540500411 #
edge $-1 $642 66.2244886038131 $645 80.591649066047793 $542 $682 forward 7 unknown #
vertex $-1 $556 $683 #
straight-curve $-1 46.778725864854195 22.98266794291111 16.173507351844279 1 0 0 I I #
edge $-1 $645 9.3974671289715097 $553 17.772934498907691 $552 $684 forward 7 unknown #
vertex $-1 $644 $685 #
straight-curve $-1 -5.2596312997658998 22.98266794291111 100.62342991908388 -0.54463902268945019 0 0.83867057594974714 I I #
point $-1 49.582787895798091 22.98266794291111 16.173507351844279 #
point $-1 58.912930692464982 31.358135312847292 1.8063468896095856 #
straight-curve $-1 58.912930692464982 0 16.173507351844279 0 1 0 I I #
vertex $-1 $559 $686 #
point $-1 53.545348473854155 25.375658620035736 8.2356204540500411 #
vertex $-1 $563 $687 #
point $-1 53.545348473854155 28.965144635722666 8.2356204540500411 #
straight-curve $-1 -58.912930692464982 33.389447794725399 0 0 0 -1 I I #
point $-1 -58.912930692464982 -33.389447794725399 -16.173507351844279 #
straight-curve $-1 -58.912930692464982 0 -16.173507351844279 0 1 0 I I #
point $-1 -58.912930692464982 33.389447794725399 -16.173507351844279 #
straight-curve $-1 -26.565915988776425 -13.516753347355312 16.173507351844279 0 1 0 I I #
straight-curve $-1 -26.565915988776425 -13.516753347355312 -16.173507351844279 0 -1 0 I I #
point $-1 -26.565915988776425 -33.389447794725399 -16.173507351844279 #
point $-1 -26.565915988776425 -33.389447794725399 16.173507351844279 #
straight-curve $-1 0 -33.389447794725399 -16.173507351844279 -1 0 0 I I #
straight-curve $-1 0 -33.389447794725399 16.173507351844279 1 0 0 I I #
straight-curve $-1 58.912930692464982 -18.646253112817742 82.397995955657379 0 0 -1 I I #
point $-1 58.912930692464982 -18.646253112817742 16.173507351844279 #
straight-curve $-1 58.912930692464982 -7.2292597139248258 1.8063468896095998 0 1 0 I I #
point $-1 58.912930692464982 -18.646253112817742 1.8063468896095856 #
point $-1 53.199521074194358 -16.25326243569312 8.3091283423651152 #
point $-1 53.199521074194358 -12.663776420006187 8.3091283423651152 #
straight-curve $-1 58.912930692464982 -4.7699460942414591 82.397995955657379 0 0 -1 I I #
point $-1 58.912930692464982 -4.7699460942414591 16.173507351844279 #
straight-curve $-1 58.912930692464982 -0.29110620463668369 1.8063468896095998 0 1 0 I I #
point $-1 58.912930692464982 -4.7699460942414591 1.8063468896095856 #
point $-1 53.199521074194358 -2.3769554171168323 8.3091283423651152 #
point $-1 53.199521074194358 1.2125305985700976 8.3091283423651152 #
straight-curve $-1 58.912930692464982 9.106360924334826 82.397995955657379 0 0 -1 I I #
point $-1 58.912930692464982 9.106360924334826 16.173507351844279 #
straight-curve $-1 58.912930692464982 6.6470473046514584 1.8063468896095998 0 1 0 I I #
point $-1 58.912930692464982 9.106360924334826 1.8063468896095856 #
point $-1 53.199521074194358 11.499351601459452 8.3091283423651152 #
point $-1 53.199521074194358 15.088837617146382 8.3091283423651152 #
straight-curve $-1 58.912930692464982 22.98266794291111 82.397995955657379 0 0 -1 I I #
point $-1 58.912930692464982 22.98266794291111 16.173507351844279 #
straight-curve $-1 58.912930692464982 13.585200813939601 1.8063468896095998 0 1 0 I I #
point $-1 58.912930692464982 22.98266794291111 1.8063468896095856 #
point $-1 53.199521074194358 25.375658620035736 8.3091283423651152 #
point $-1 53.199521074194358 28.965144635722666 8.3091283423651152 #
End-of-ACIS-data 