500 0 5 0           
7 Unknown 11 ACIS 5.0 NT 24 Thu Mar 25 21:31:37 1999 
-1 9.9999999999999995e-007 1e-010 
body $-1 $5 $-1 $6 #
body $-1 $7 $-1 $8 #
body $-1 $9 $-1 $10 #
body $-1 $11 $-1 $12 #
body $-1 $13 $-1 $14 #
lump $-1 $-1 $15 $0 #
transform $-1 1 0 0 0 1 0 0 0 1 62.058778649250769 42.132052742015986 19.84129477407296 1 rotate no_reflect no_shear #
lump $-1 $-1 $16 $1 #
transform $-1 1 0 0 0 1 0 0 0 1 62.058778649250769 42.132052742015986 19.84129477407296 1 rotate no_reflect no_shear #
lump $-1 $-1 $17 $2 #
transform $-1 1 0 0 0 1 0 0 0 1 62.058778649250769 42.132052742015986 19.84129477407296 1 rotate no_reflect no_shear #
lump $-1 $-1 $18 $3 #
transform $-1 1 0 0 0 1 0 0 0 1 62.058778649250769 42.132052742015986 19.84129477407296 1 rotate no_reflect no_shear #
lump $-1 $-1 $19 $4 #
transform $-1 1 0 0 0 1 0 0 0 1 62.058778649250769 42.132052742015986 19.84129477407296 1 rotate no_reflect no_shear #
shell $-1 $-1 $-1 $20 $-1 $5 #
shell $-1 $-1 $-1 $21 $-1 $7 #
shell $-1 $-1 $-1 $22 $-1 $9 #
shell $-1 $-1 $-1 $23 $-1 $11 #
shell $-1 $-1 $-1 $24 $-1 $13 #
face $-1 $25 $26 $15 $-1 $27 forward single #
face $-1 $28 $29 $16 $-1 $30 forward single #
face $-1 $31 $32 $17 $-1 $33 reversed single #
face $-1 $34 $35 $18 $-1 $36 forward single #
face $-1 $37 $38 $19 $-1 $39 forward single #
face $-1 $40 $41 $15 $-1 $42 reversed single #
loop $-1 $-1 $43 $20 #
plane-surface $-1 0 0 19.84129477407296 0 0 1 1 0 0 forward_v I I I I #
face $-1 $44 $45 $16 $-1 $46 reversed single #
loop $-1 $-1 $47 $21 #
plane-surface $-1 -54.695470519948763 0 19.341294774072953 0 0 1 1 0 0 forward_v I I I I #
face $-1 $48 $49 $17 $-1 $50 reversed single #
loop $-1 $-1 $51 $22 #
plane-surface $-1 47.628335134587935 31.215976572247115 154.5669554963965 1 0 0 0 -0.50000000669873634 -0.8660253999169214 forward_v I I I I #
face $-1 $52 $53 $18 $-1 $54 forward single #
loop $-1 $55 $56 $23 #
cone-surface $-1 51.751318995920187 28.214753507870601 10.631174809058393 0 -0.50000000669873634 -0.8660253999169214 1.5 0 0 1 I I 0 1 1.5 forward I I I I #
face $-1 $57 $58 $19 $-1 $59 forward single #
loop $-1 $60 $61 $24 #
cone-surface $-1 57.935794787918539 28.214753507870601 10.631174809058393 0 -0.50000000669873634 -0.8660253999169214 1.5 0 0 1 I I 0 1 1.5 forward I I I I #
face $-1 $62 $63 $15 $-1 $64 reversed single #
loop $-1 $-1 $65 $25 #
plane-surface $-1 0 0 -19.84129477407296 0 0 1 1 0 0 forward_v I I I I #
coedge $-1 $66 $67 $68 $69 forward $26 $-1 #
face $-1 $70 $71 $16 $-1 $72 reversed single #
loop $-1 $-1 $73 $28 #
plane-surface $-1 -54.695470519948763 0 14.067520162258905 0 0 1 1 0 0 forward_v I I I I #
coedge $-1 $74 $75 $76 $77 forward $29 $-1 #
face $-1 $78 $79 $17 $-1 $80 forward single #
loop $-1 $-1 $81 $31 #
plane-surface $-1 54.843556891919349 -30.842802908434443 47.0779983002503 0 0.50000000669873634 0.8660253999169214 1 0 0 forward_v I I I I #
coedge $-1 $82 $83 $84 $85 reversed $32 $-1 #
face $-1 $-1 $86 $18 $-1 $87 forward single #
loop $-1 $88 $89 $34 #
cone-surface $-1 51.751318995920187 26.822205346265278 8.2192106842569679 0 -0.50000000669873634 -0.8660253999169214 0.75 0 0 1 I I -0.70710678118654757 0.70710678118654757 0.75 forward I I I I #
loop $-1 $-1 $90 $23 #
coedge $-1 $56 $56 $91 $92 reversed $35 $-1 #
face $-1 $-1 $93 $19 $-1 $94 forward single #
loop $-1 $95 $96 $37 #
cone-surface $-1 57.935794787918539 26.822205346265278 8.2192106842569679 0 -0.50000000669873634 -0.8660253999169214 0.75 0 0 1 I I -0.70710678118654757 0.70710678118654757 0.75 forward I I I I #
loop $-1 $-1 $97 $24 #
coedge $-1 $61 $61 $98 $99 reversed $38 $-1 #
face $-1 $100 $101 $15 $-1 $102 reversed single #
loop $-1 $-1 $103 $40 #
plane-surface $-1 0 -42.132052742015986 0 0 1 0 0 0 1 forward_v I I I I #
coedge $-1 $104 $105 $106 $107 forward $41 $-1 #
coedge $-1 $108 $43 $109 $110 forward $26 $-1 #
coedge $-1 $43 $108 $111 $112 forward $26 $-1 #
coedge $-1 $113 $114 $43 $69 reversed $115 $-1 #
edge $-1 $116 -42.132052742015986 $117 42.132052742015986 $68 $118 forward 7 unknown #
face $-1 $119 $120 $16 $-1 $121 reversed single #
loop $-1 $-1 $122 $44 #
plane-surface $-1 -47.332162390646758 0 16.704407468165929 -1 0 0 0 0 1 forward_v I I I I #
coedge $-1 $123 $124 $125 $126 forward $45 $-1 #
coedge $-1 $127 $47 $128 $129 reversed $29 $-1 #
coedge $-1 $47 $127 $130 $131 reversed $29 $-1 #
coedge $-1 $122 $132 $47 $77 reversed $71 $-1 #
edge $-1 $133 -42.132052742015986 $134 42.132052742015986 $76 $135 forward 7 unknown #
face $-1 $136 $137 $17 $-1 $138 reversed single #
loop $-1 $-1 $84 $48 #
plane-surface $-1 0 0 19.84129477407296 0 0 1 1 0 0 forward_v I I I I #
coedge $-1 $139 $140 $141 $142 reversed $49 $-1 #
coedge $-1 $83 $51 $143 $144 reversed $32 $-1 #
coedge $-1 $51 $82 $139 $145 reversed $32 $-1 #
coedge $-1 $141 $146 $51 $85 forward $79 $-1 #
edge $-1 $147 -26.524064455892429 $148 -0.72456230076419814 $84 $149 forward 7 unknown #
loop $-1 $-1 $91 $52 #
plane-surface $-1 54.843556891919349 -30.842802908434443 47.0779983002503 0 0.50000000669873634 0.8660253999169214 1 0 0 forward_v I I I I #
loop $-1 $-1 $150 $34 #
coedge $-1 $89 $89 $90 $151 reversed $53 $-1 #
coedge $-1 $90 $90 $89 $151 forward $55 $-1 #
coedge $-1 $91 $91 $56 $92 forward $86 $-1 #
edge $-1 $152 1.4590412352493665e-015 $152 6.2831853071796022 $91 $153 forward 7 unknown #
loop $-1 $-1 $98 $57 #
plane-surface $-1 54.843556891919349 -30.842802908434443 47.0779983002503 0 0.50000000669873634 0.8660253999169214 1 0 0 forward_v I I I I #
loop $-1 $-1 $154 $37 #
coedge $-1 $96 $96 $97 $155 reversed $58 $-1 #
coedge $-1 $97 $97 $96 $155 forward $60 $-1 #
coedge $-1 $98 $98 $61 $99 forward $93 $-1 #
edge $-1 $156 1.4590412352493665e-015 $156 6.2831853071796022 $98 $157 forward 7 unknown #
face $-1 $158 $159 $15 $-1 $160 reversed single #
loop $-1 $-1 $161 $62 #
plane-surface $-1 -62.058778649250769 0 0 1 0 0 0 0 -1 forward_v I I I I #
coedge $-1 $162 $111 $163 $164 forward $63 $-1 #
coedge $-1 $165 $65 $162 $166 forward $41 $-1 #
coedge $-1 $65 $165 $167 $168 forward $41 $-1 #
coedge $-1 $114 $113 $65 $107 reversed $115 $-1 #
edge $-1 $169 -42.132052742015986 $170 42.132052742015986 $106 $171 forward 7 unknown #
coedge $-1 $67 $66 $172 $173 forward $26 $-1 #
coedge $-1 $174 $175 $66 $110 reversed $159 $-1 #
edge $-1 $117 -62.058778649250769 $176 62.058778649250769 $109 $177 forward 7 unknown #
coedge $-1 $103 $178 $67 $112 reversed $63 $-1 #
edge $-1 $179 -62.058778649250769 $116 62.058778649250769 $111 $180 forward 7 unknown #
coedge $-1 $106 $68 $178 $181 forward $115 $-1 #
coedge $-1 $68 $106 $174 $182 reversed $115 $-1 #
loop $-1 $-1 $113 $158 #
vertex $-1 $69 $183 #
vertex $-1 $69 $184 #
straight-curve $-1 62.058778649250769 0 19.84129477407296 0 1 0 I I #
face $-1 $185 $186 $16 $-1 $187 reversed single #
loop $-1 $-1 $188 $70 #
plane-surface $-1 0 -42.132052742015986 0 0 1 0 0 0 1 forward_v I I I I #
coedge $-1 $125 $76 $189 $190 reversed $71 $-1 #
coedge $-1 $191 $73 $188 $192 reversed $45 $-1 #
coedge $-1 $73 $191 $193 $194 reversed $45 $-1 #
coedge $-1 $132 $122 $73 $126 reversed $71 $-1 #
edge $-1 $195 -42.132052742015986 $196 42.132052742015986 $125 $197 forward 7 unknown #
coedge $-1 $75 $74 $198 $199 reversed $29 $-1 #
coedge $-1 $200 $201 $74 $129 forward $202 $-1 #
edge $-1 $203 -34.711043389276384 $134 -19.984427130672376 $128 $204 forward 7 unknown #
coedge $-1 $205 $189 $75 $131 forward $120 $-1 #
edge $-1 $133 19.984427130672376 $206 34.711043389276384 $130 $207 forward 7 unknown #
coedge $-1 $76 $125 $200 $208 reversed $71 $-1 #
vertex $-1 $131 $209 #
vertex $-1 $129 $210 #
straight-curve $-1 -47.332162390646758 0 19.341294774072953 0 1 0 I I #
face $-1 $-1 $211 $17 $-1 $212 reversed single #
loop $-1 $-1 $213 $78 #
plane-surface $-1 62.058778649250769 0 0 -1 0 0 0 0 1 forward_v I I I I #
coedge $-1 $214 $81 $83 $145 forward $49 $-1 #
coedge $-1 $81 $214 $213 $215 reversed $49 $-1 #
coedge $-1 $216 $84 $81 $142 forward $79 $-1 #
edge $-1 $148 20.206556688628261 $217 34.637000203291088 $141 $218 forward 7 unknown #
coedge $-1 $219 $220 $82 $144 forward $211 $-1 #
edge $-1 $221 -72.33753275442696 $147 -57.442182974125288 $143 $222 forward 7 unknown #
edge $-1 $148 54.473406322548712 $221 84.264105484031958 $83 $223 forward 7 unknown #
coedge $-1 $84 $216 $219 $224 forward $79 $-1 #
vertex $-1 $144 $225 #
vertex $-1 $85 $226 #
straight-curve $-1 47.628335134587935 15.607988286123557 19.841294774072963 0 -1 0 I I #
coedge $-1 $150 $150 $-1 $227 reversed $88 $-1 #
edge $-1 $228 0 $228 6.2831853071796004 $89 $229 forward 7 unknown #
vertex $-1 $92 $230 #
ellipse-curve $-1 51.751318995920187 29.232301664451871 12.393619883922124 0 0.50000000669873634 0.8660253999169214 1.5 0 0 1 I I #
coedge $-1 $154 $154 $-1 $231 reversed $95 $-1 #
edge $-1 $232 0 $232 6.2831853071796004 $96 $233 forward 7 unknown #
vertex $-1 $99 $234 #
ellipse-curve $-1 57.935794787918539 29.232301664451871 12.393619883922124 0 0.50000000669873634 0.8660253999169214 1.5 0 0 1 I I #
face $-1 $-1 $115 $15 $-1 $235 reversed single #
loop $-1 $-1 $174 $100 #
plane-surface $-1 0 42.132052742015986 0 0 -1 0 0 0 -1 forward_v I I I I #
coedge $-1 $236 $172 $175 $237 forward $101 $-1 #
coedge $-1 $178 $103 $104 $166 reversed $63 $-1 #
coedge $-1 $172 $236 $103 $164 reversed $101 $-1 #
edge $-1 $179 -19.84129477407296 $238 19.84129477407296 $163 $239 forward 7 unknown #
coedge $-1 $105 $104 $236 $240 forward $41 $-1 #
edge $-1 $170 -62.058778649250769 $238 62.058778649250769 $162 $241 forward 7 unknown #
coedge $-1 $175 $174 $105 $168 reversed $159 $-1 #
edge $-1 $242 -62.058778649250769 $169 62.058778649250769 $167 $243 forward 7 unknown #
vertex $-1 $107 $244 #
vertex $-1 $181 $245 #
straight-curve $-1 62.058778649250769 0 -19.84129477407296 0 -1 0 I I #
coedge $-1 $161 $163 $108 $173 reversed $101 $-1 #
edge $-1 $176 -42.132052742015986 $179 42.132052742015986 $172 $246 forward 7 unknown #
coedge $-1 $167 $109 $114 $182 forward $159 $-1 #
coedge $-1 $109 $167 $161 $237 reversed $159 $-1 #
vertex $-1 $110 $247 #
straight-curve $-1 0 42.132052742015986 19.84129477407296 -1 0 0 I I #
coedge $-1 $111 $162 $113 $181 reversed $63 $-1 #
vertex $-1 $173 $248 #
straight-curve $-1 0 -42.132052742015986 19.84129477407296 1 0 0 I I #
edge $-1 $116 -19.84129477407296 $170 19.84129477407296 $113 $249 forward 7 unknown #
edge $-1 $117 -19.84129477407296 $169 19.84129477407296 $114 $250 forward 7 unknown #
point $-1 62.058778649250769 -42.132052742015986 19.84129477407296 #
point $-1 62.058778649250769 42.132052742015986 19.84129477407296 #
face $-1 $-1 $202 $16 $-1 $251 reversed single #
loop $-1 $-1 $252 $119 #
plane-surface $-1 -62.058778649250769 0 0 1 0 0 0 0 -1 forward_v I I I I #
coedge $-1 $189 $205 $123 $192 forward $120 $-1 #
coedge $-1 $130 $188 $122 $190 forward $120 $-1 #
edge $-1 $196 5.7153164281759405 $133 10.989091039989988 $189 $253 forward 7 unknown #
coedge $-1 $124 $123 $252 $254 reversed $45 $-1 #
edge $-1 $255 -34.711043389276384 $196 -19.984427130672376 $188 $256 forward 7 unknown #
coedge $-1 $201 $200 $124 $194 forward $202 $-1 #
edge $-1 $195 19.984427130672376 $257 34.711043389276384 $193 $258 forward 7 unknown #
vertex $-1 $194 $259 #
vertex $-1 $192 $260 #
straight-curve $-1 -47.332162390646758 0 14.067520162258905 0 -1 0 I I #
coedge $-1 $261 $262 $127 $199 forward $186 $-1 #
edge $-1 $206 -42.132052742015986 $203 42.132052742015986 $198 $263 forward 7 unknown #
coedge $-1 $193 $128 $132 $208 forward $202 $-1 #
coedge $-1 $128 $193 $261 $264 reversed $202 $-1 #
loop $-1 $-1 $193 $185 #
vertex $-1 $264 $265 #
straight-curve $-1 -27.347735259974382 42.132052742015986 19.341294774072953 1 0 0 I I #
coedge $-1 $188 $130 $262 $266 forward $120 $-1 #
vertex $-1 $266 $267 #
straight-curve $-1 -27.347735259974382 -42.132052742015986 19.341294774072953 -1 0 0 I I #
edge $-1 $134 -10.989091039989988 $195 -5.7153164281759405 $200 $268 forward 7 unknown #
point $-1 -47.332162390646758 -42.132052742015986 19.341294774072953 #
point $-1 -47.332162390646758 42.132052742015986 19.341294774072953 #
loop $-1 $-1 $143 $136 #
plane-surface $-1 0 42.132052742015986 0 0 -1 0 0 0 -1 forward_v I I I I #
coedge $-1 $269 $270 $140 $215 forward $137 $-1 #
coedge $-1 $140 $139 $220 $271 reversed $49 $-1 #
edge $-1 $217 29.348581228136723 $272 59.139280389619977 $213 $273 forward 7 unknown #
coedge $-1 $146 $141 $270 $274 forward $79 $-1 #
vertex $-1 $274 $275 #
straight-curve $-1 27.421778445959674 16.332550586887759 19.84129477407296 1 0 0 I I #
coedge $-1 $276 $143 $146 $224 reversed $211 $-1 #
coedge $-1 $143 $276 $214 $271 forward $211 $-1 #
vertex $-1 $144 $277 #
straight-curve $-1 47.628335134587935 42.132052742015986 77.283477748198251 0 0 1 I I #
straight-curve $-1 47.628335134587935 -30.842802908434443 47.0779983002503 0 0.8660253999169214 -0.50000000669873634 I I #
edge $-1 $278 -62.058778649250769 $147 -47.628335134587935 $219 $279 forward 7 unknown #
point $-1 47.628335134587935 42.132052742015986 19.84129477407296 #
point $-1 47.628335134587935 16.332550586887756 19.84129477407296 #
edge $-1 $280 1 $280 0 $150 $-1 forward 7 unknown #
vertex $-1 $151 $281 #
ellipse-curve $-1 51.751318995920187 27.19720535128933 8.8687297341946589 0 0.50000000669873634 0.8660253999169214 1.5 0 0 1 I I #
point $-1 53.251318995920187 29.232301664451875 12.393619883922126 #
edge $-1 $282 1 $282 0 $154 $-1 forward 7 unknown #
vertex $-1 $155 $283 #
ellipse-curve $-1 57.935794787918539 27.19720535128933 8.8687297341946589 0 0.50000000669873634 0.8660253999169214 1.5 0 0 1 I I #
point $-1 59.435794787918539 29.232301664451875 12.393619883922126 #
plane-surface $-1 62.058778649250769 0 0 -1 0 0 0 0 1 forward_v I I I I #
coedge $-1 $163 $161 $165 $240 reversed $101 $-1 #
edge $-1 $176 -19.84129477407296 $242 19.84129477407296 $175 $284 forward 7 unknown #
vertex $-1 $240 $285 #
straight-curve $-1 -62.058778649250769 -42.132052742015986 0 0 0 -1 I I #
edge $-1 $238 -42.132052742015986 $242 42.132052742015986 $236 $286 forward 7 unknown #
straight-curve $-1 0 -42.132052742015986 -19.84129477407296 -1 0 0 I I #
vertex $-1 $168 $287 #
straight-curve $-1 0 42.132052742015986 -19.84129477407296 1 0 0 I I #
point $-1 62.058778649250769 42.132052742015986 -19.84129477407296 #
point $-1 62.058778649250769 -42.132052742015986 -19.84129477407296 #
straight-curve $-1 -62.058778649250769 0 19.84129477407296 0 -1 0 I I #
point $-1 -62.058778649250769 42.132052742015986 19.84129477407296 #
point $-1 -62.058778649250769 -42.132052742015986 19.84129477407296 #
straight-curve $-1 62.058778649250769 -42.132052742015986 0 0 0 -1 I I #
straight-curve $-1 62.058778649250769 42.132052742015986 0 0 0 -1 I I #
plane-surface $-1 0 42.132052742015986 0 0 -1 0 0 0 -1 forward_v I I I I #
coedge $-1 $262 $261 $191 $254 forward $186 $-1 #
straight-curve $-1 -47.332162390646758 -42.132052742015986 8.3522037340829645 0 0 1 I I #
edge $-1 $257 -42.132052742015986 $255 42.132052742015986 $252 $288 forward 7 unknown #
vertex $-1 $192 $289 #
straight-curve $-1 -27.347735259974382 -42.132052742015986 14.067520162258905 1 0 0 I I #
vertex $-1 $194 $290 #
straight-curve $-1 -27.347735259974382 42.132052742015986 14.067520162258905 -1 0 0 I I #
point $-1 -47.332162390646758 42.132052742015986 14.067520162258905 #
point $-1 -47.332162390646758 -42.132052742015986 14.067520162258905 #
coedge $-1 $252 $198 $201 $264 forward $186 $-1 #
coedge $-1 $198 $252 $205 $266 reversed $186 $-1 #
straight-curve $-1 -62.058778649250769 0 19.341294774072953 0 1 0 I I #
edge $-1 $203 -19.341294774072953 $257 -14.067520162258905 $201 $291 forward 7 unknown #
point $-1 -62.058778649250769 42.132052742015986 19.341294774072953 #
edge $-1 $206 -19.341294774072953 $255 -14.067520162258905 $262 $292 forward 7 unknown #
point $-1 -62.058778649250769 -42.132052742015986 19.341294774072953 #
straight-curve $-1 -47.332162390646758 42.132052742015986 8.3522037340829645 0 0 -1 I I #
coedge $-1 $270 $213 $276 $293 reversed $137 $-1 #
coedge $-1 $213 $269 $216 $274 reversed $137 $-1 #
edge $-1 $272 -34.637000203291088 $221 -20.206556688628261 $220 $294 forward 7 unknown #
vertex $-1 $215 $295 #
straight-curve $-1 62.058778649250769 -9.0840662082036019 34.515585584739725 0 0.8660253999169214 -0.50000000669873634 I I #
edge $-1 $217 16.332550586887756 $278 42.132052742015986 $270 $296 forward 7 unknown #
point $-1 62.058778649250762 16.332550586887756 19.84129477407296 #
coedge $-1 $220 $219 $269 $293 forward $211 $-1 #
point $-1 47.628335134587935 42.132052742015979 4.9459449937712918 #
vertex $-1 $274 $297 #
straight-curve $-1 0 42.132052742015986 19.84129477407296 -1 0 0 I I #
vertex $-1 $227 $298 #
point $-1 53.251318995920187 27.19720535128933 8.8687297341946589 #
vertex $-1 $231 $299 #
point $-1 59.435794787918539 27.19720535128933 8.8687297341946589 #
straight-curve $-1 -62.058778649250769 42.132052742015986 0 0 0 -1 I I #
point $-1 -62.058778649250769 -42.132052742015986 -19.84129477407296 #
straight-curve $-1 -62.058778649250769 0 -19.84129477407296 0 1 0 I I #
point $-1 -62.058778649250769 42.132052742015986 -19.84129477407296 #
straight-curve $-1 -62.058778649250769 0 14.067520162258905 0 -1 0 I I #
point $-1 -62.058778649250769 -42.132052742015986 14.067520162258905 #
point $-1 -62.058778649250769 42.132052742015986 14.067520162258905 #
straight-curve $-1 -62.058778649250769 42.132052742015986 0 0 0 -1 I I #
straight-curve $-1 -62.058778649250769 -42.132052742015986 0 0 0 -1 I I #
edge $-1 $278 -19.84129477407296 $272 -4.9459449937712918 $269 $300 forward 7 unknown #
straight-curve $-1 27.421778445959674 42.132052742015986 4.9459449937712989 -1 0 0 I I #
point $-1 62.058778649250762 42.132052742015979 4.9459449937712918 #
straight-curve $-1 62.058778649250769 0 19.84129477407296 0 1 0 I I #
point $-1 62.058778649250769 42.132052742015986 19.84129477407296 #
point $-1 51.751318995920187 26.447205341241226 7.5696916343192768 #
point $-1 57.935794787918539 26.447205341241226 7.5696916343192768 #
straight-curve $-1 62.058778649250769 42.132052742015986 0 0 0 -1 I I #
End-of-ACIS-data 