500 0 7 0           
7 Unknown 11 ACIS 5.0 NT 24 Fri Mar 26 18:55:50 1999 
-1 9.9999999999999995e-007 1e-010 
body $-1 $7 $-1 $8 #
body $-1 $9 $-1 $10 #
body $-1 $11 $-1 $12 #
body $-1 $13 $-1 $14 #
body $-1 $15 $-1 $16 #
body $-1 $17 $-1 $18 #
body $-1 $19 $-1 $20 #
lump $-1 $-1 $21 $0 #
transform $-1 1 0 0 0 1 0 0 0 1 42.365794854579299 16.998294166483173 5.4075813590325819 1 rotate no_reflect no_shear #
lump $-1 $-1 $22 $1 #
transform $-1 1 0 0 0 1 0 0 0 1 42.365794854579299 16.998294166483173 5.4075813590325819 1 rotate no_reflect no_shear #
lump $-1 $-1 $23 $2 #
transform $-1 1 0 0 0 1 0 0 0 1 42.365794854579299 16.998294166483173 5.4075813590325819 1 rotate no_reflect no_shear #
lump $-1 $-1 $24 $3 #
transform $-1 1 0 0 0 1 0 0 0 1 42.365794854579299 16.998294166483173 5.4075813590325819 1 rotate no_reflect no_shear #
lump $-1 $-1 $25 $4 #
transform $-1 1 0 0 0 1 0 0 0 1 42.365794854579299 16.998294166483173 5.4075813590325819 1 rotate no_reflect no_shear #
lump $-1 $-1 $26 $5 #
transform $-1 1 0 0 0 1 0 0 0 1 42.365794854579299 16.998294166483173 5.4075813590325819 1 rotate no_reflect no_shear #
lump $-1 $-1 $27 $6 #
transform $-1 1 0 0 0 1 0 0 0 1 42.365794854579299 16.998294166483173 5.4075813590325819 1 rotate no_reflect no_shear #
shell $-1 $-1 $-1 $28 $-1 $7 #
shell $-1 $-1 $-1 $29 $-1 $9 #
shell $-1 $-1 $-1 $30 $-1 $11 #
shell $-1 $-1 $-1 $31 $-1 $13 #
shell $-1 $-1 $-1 $32 $-1 $15 #
shell $-1 $-1 $-1 $33 $-1 $17 #
shell $-1 $-1 $-1 $34 $-1 $19 #
face $-1 $35 $36 $21 $-1 $37 forward single #
face $-1 $38 $39 $22 $-1 $40 reversed single #
face $-1 $41 $42 $23 $-1 $43 reversed single #
face $-1 $44 $45 $24 $-1 $46 forward single #
face $-1 $47 $48 $25 $-1 $49 forward single #
face $-1 $50 $51 $26 $-1 $52 reversed single #
face $-1 $53 $54 $27 $-1 $55 forward single #
face $-1 $56 $57 $21 $-1 $58 reversed single #
loop $-1 $-1 $59 $28 #
plane-surface $-1 0 0 5.4075813590325819 0 0 1 1 0 0 forward_v I I I I #
face $-1 $60 $61 $22 $-1 $62 reversed single #
loop $-1 $-1 $63 $29 #
plane-surface $-1 -40.001780564627445 -9.1831314484180098 0 0 1 0 0 0 1 forward_v I I I I #
face $-1 $64 $65 $23 $-1 $66 reversed single #
loop $-1 $-1 $67 $30 #
plane-surface $-1 29.657341283931036 -70.321611998670932 67.638315189638078 -1 0 0 0 -0.62932039886446345 0.77714595512881146 forward_v I I I I #
face $-1 $68 $69 $24 $-1 $70 forward single #
loop $-1 $71 $72 $31 #
cone-surface $-1 21.171597190644334 -13.771582030832786 2.3726167766556729 0 0.62932039886446345 -0.77714595512881146 1 0 0 1 I I 0 1 1 forward I I I I #
face $-1 $73 $74 $25 $-1 $75 forward single #
loop $-1 $76 $77 $32 #
cone-surface $-1 26.26304364661636 -13.771582030832786 2.3726167766556729 0 0.62932039886446345 -0.77714595512881146 1 0 0 1 I I 0 1 1 forward I I I I #
face $-1 $78 $79 $26 $-1 $80 reversed single #
loop $-1 $-1 $81 $33 #
plane-surface $-1 -37.637766274675585 62.837309356969158 79.984974510194434 1 0 0 0 -0.78801076186113728 -0.61566146476048833 forward_v I I I I #
face $-1 $82 $83 $27 $-1 $84 forward single #
loop $-1 $85 $86 $34 #
cone-surface $-1 -25.651149165086444 14.541913411861676 2.6355773450500193 0 -0.78801076186113728 -0.61566146476048833 1 0 0 1 I I 0 1 1 forward I I I I #
face $-1 $87 $88 $21 $-1 $89 reversed single #
loop $-1 $-1 $90 $35 #
plane-surface $-1 0 0 -5.4075813590325819 0 0 1 1 0 0 forward_v I I I I #
coedge $-1 $91 $92 $93 $94 forward $36 $-1 #
face $-1 $95 $96 $22 $-1 $97 reversed single #
loop $-1 $-1 $98 $38 #
plane-surface $-1 -40.001780564627445 -6.1831314484180098 0 0 -1 0 0 0 -1 forward_v I I I I #
coedge $-1 $99 $100 $101 $102 reversed $39 $-1 #
face $-1 $103 $104 $23 $-1 $105 reversed single #
loop $-1 $-1 $106 $41 #
plane-surface $-1 23.717320418630344 -16.998294166483177 1.7895029755314482 0 -0.62932039886446345 0.77714595512881146 1 0 0 forward_v I I I I #
coedge $-1 $107 $108 $109 $110 reversed $42 $-1 #
face $-1 $-1 $111 $24 $-1 $112 forward single #
loop $-1 $113 $114 $44 #
cone-surface $-1 21.171597190644334 -12.464187003771988 0.75811840846493173 0 0.62932039886446345 -0.77714595512881146 0.5 0 0 1 I I -0.70710678118654746 0.70710678118654746 0.5 forward I I I I #
loop $-1 $-1 $115 $31 #
coedge $-1 $72 $72 $116 $117 reversed $45 $-1 #
face $-1 $-1 $118 $25 $-1 $119 forward single #
loop $-1 $120 $121 $47 #
cone-surface $-1 26.26304364661636 -12.464187003771988 0.75811840846493173 0 0.62932039886446345 -0.77714595512881146 0.5 0 0 1 I I -0.70710678118654746 0.70710678118654746 0.5 forward I I I I #
loop $-1 $-1 $122 $32 #
coedge $-1 $77 $77 $123 $124 reversed $48 $-1 #
face $-1 $125 $126 $26 $-1 $127 reversed single #
loop $-1 $-1 $128 $50 #
plane-surface $-1 -25.651149165086441 -3.9320952034502028 27.818999878369134 0 0.78801076186113728 0.61566146476048833 1 0 0 forward_v I I I I #
coedge $-1 $129 $130 $131 $132 reversed $51 $-1 #
face $-1 $-1 $133 $27 $-1 $134 forward single #
loop $-1 $135 $136 $53 #
cone-surface $-1 -25.651149165086444 13.401862623830787 1.744872075489079 0 -0.78801076186113728 -0.61566146476048833 0.5 0 0 1 I I -0.70710678118654768 0.70710678118654735 0.5 forward I I I I #
loop $-1 $-1 $137 $34 #
coedge $-1 $86 $86 $138 $139 reversed $54 $-1 #
face $-1 $140 $141 $21 $-1 $142 reversed single #
loop $-1 $-1 $143 $56 #
plane-surface $-1 0 -16.998294166483173 0 0 1 0 0 0 1 forward_v I I I I #
coedge $-1 $144 $145 $146 $147 forward $57 $-1 #
coedge $-1 $148 $59 $149 $150 forward $36 $-1 #
coedge $-1 $59 $148 $151 $152 forward $36 $-1 #
coedge $-1 $153 $154 $59 $94 reversed $155 $-1 #
edge $-1 $156 -16.998294166483173 $157 16.998294166483173 $93 $158 forward 7 unknown #
face $-1 $159 $160 $22 $-1 $161 reversed single #
loop $-1 $-1 $162 $60 #
plane-surface $-1 -37.637766274675592 -7.6831314484180098 0 -1 0 0 0 0 1 forward_v I I I I #
coedge $-1 $163 $164 $165 $166 forward $61 $-1 #
coedge $-1 $167 $63 $168 $169 reversed $39 $-1 #
coedge $-1 $63 $167 $170 $171 reversed $39 $-1 #
coedge $-1 $172 $173 $63 $102 forward $174 $-1 #
edge $-1 $175 -5.4075813590325819 $176 5.4075813590325819 $101 $177 forward 7 unknown #
face $-1 $178 $179 $23 $-1 $180 reversed single #
loop $-1 $-1 $181 $64 #
plane-surface $-1 17.777299553329652 -70.321611998670932 67.638315189638078 1 0 0 0 0.62932039886446345 -0.77714595512881146 forward_v I I I I #
coedge $-1 $182 $183 $184 $185 reversed $65 $-1 #
coedge $-1 $108 $67 $186 $187 reversed $42 $-1 #
coedge $-1 $67 $107 $182 $188 reversed $42 $-1 #
coedge $-1 $184 $189 $67 $110 forward $190 $-1 #
edge $-1 $191 18.162511832852292 $192 22.630466448895916 $109 $193 forward 7 unknown #
loop $-1 $-1 $116 $68 #
plane-surface $-1 23.717320418630344 -16.998294166483177 1.7895029755314482 0 -0.62932039886446345 0.77714595512881146 1 0 0 forward_v I I I I #
loop $-1 $-1 $194 $44 #
coedge $-1 $114 $114 $115 $195 reversed $69 $-1 #
coedge $-1 $115 $115 $114 $195 forward $71 $-1 #
coedge $-1 $116 $116 $72 $117 forward $111 $-1 #
edge $-1 $196 -9.0595703908643633e-016 $196 6.2831853071795996 $116 $197 forward 7 unknown #
loop $-1 $-1 $123 $73 #
plane-surface $-1 23.717320418630344 -16.998294166483177 1.7895029755314482 0 -0.62932039886446345 0.77714595512881146 1 0 0 forward_v I I I I #
loop $-1 $-1 $198 $47 #
coedge $-1 $121 $121 $122 $199 reversed $74 $-1 #
coedge $-1 $122 $122 $121 $199 forward $76 $-1 #
coedge $-1 $123 $123 $77 $124 forward $118 $-1 #
edge $-1 $200 -9.0595703908643633e-016 $200 6.2831853071795996 $123 $201 forward 7 unknown #
face $-1 $202 $203 $26 $-1 $204 reversed single #
loop $-1 $-1 $205 $78 #
plane-surface $-1 -13.664532055497297 62.837309356969158 79.984974510194434 -1 0 0 0 0.78801076186113728 0.61566146476048833 forward_v I I I I #
coedge $-1 $206 $207 $208 $209 reversed $79 $-1 #
coedge $-1 $130 $81 $210 $211 reversed $51 $-1 #
coedge $-1 $81 $129 $206 $212 reversed $51 $-1 #
coedge $-1 $208 $213 $81 $132 forward $214 $-1 #
edge $-1 $215 14.420360512001405 $216 17.841031207043738 $131 $217 forward 7 unknown #
loop $-1 $-1 $138 $82 #
plane-surface $-1 -25.651149165086441 -3.9320952034502028 27.818999878369134 0 0.78801076186113728 0.61566146476048833 1 0 0 forward_v I I I I #
loop $-1 $-1 $218 $53 #
coedge $-1 $136 $136 $137 $219 reversed $83 $-1 #
coedge $-1 $137 $137 $136 $219 forward $85 $-1 #
coedge $-1 $138 $138 $86 $139 forward $133 $-1 #
edge $-1 $220 -3.9413901525925274e-016 $220 6.2831853071796004 $138 $221 forward 7 unknown #
face $-1 $222 $223 $21 $-1 $224 reversed single #
loop $-1 $-1 $225 $87 #
plane-surface $-1 -42.365794854579299 0 0 1 0 0 0 0 -1 forward_v I I I I #
coedge $-1 $226 $151 $227 $228 forward $88 $-1 #
coedge $-1 $229 $90 $226 $230 forward $57 $-1 #
coedge $-1 $90 $229 $231 $232 forward $57 $-1 #
coedge $-1 $154 $153 $90 $147 reversed $155 $-1 #
edge $-1 $233 -16.998294166483173 $234 16.998294166483173 $146 $235 forward 7 unknown #
coedge $-1 $92 $91 $236 $237 forward $36 $-1 #
coedge $-1 $238 $239 $91 $150 reversed $223 $-1 #
edge $-1 $157 -42.365794854579299 $240 42.365794854579299 $149 $241 forward 7 unknown #
coedge $-1 $143 $242 $92 $152 reversed $88 $-1 #
edge $-1 $243 -42.365794854579299 $156 42.365794854579299 $151 $244 forward 7 unknown #
coedge $-1 $146 $93 $242 $245 forward $155 $-1 #
coedge $-1 $93 $146 $238 $246 reversed $155 $-1 #
loop $-1 $-1 $153 $222 #
vertex $-1 $94 $247 #
vertex $-1 $94 $248 #
straight-curve $-1 42.365794854579299 0 5.4075813590325819 0 1 0 I I #
face $-1 $249 $250 $22 $-1 $251 forward single #
loop $-1 $-1 $252 $95 #
plane-surface $-1 0 0 -5.4075813590325819 0 0 1 1 0 0 forward_v I I I I #
coedge $-1 $253 $254 $167 $255 forward $96 $-1 #
coedge $-1 $256 $98 $252 $257 reversed $61 $-1 #
coedge $-1 $98 $256 $258 $259 reversed $61 $-1 #
coedge $-1 $254 $253 $98 $166 reversed $96 $-1 #
edge $-1 $260 -5.4075813590325819 $261 5.4075813590325819 $165 $262 forward 7 unknown #
coedge $-1 $100 $99 $162 $255 reversed $39 $-1 #
coedge $-1 $263 $264 $99 $169 forward $160 $-1 #
edge $-1 $265 17.636875992361869 $175 22.364904572265576 $168 $266 forward 7 unknown #
coedge $-1 $267 $268 $100 $171 forward $250 $-1 #
edge $-1 $176 -22.364904572265576 $269 -17.636875992361869 $170 $270 forward 7 unknown #
coedge $-1 $271 $101 $268 $272 reversed $174 $-1 #
coedge $-1 $101 $271 $263 $273 reversed $174 $-1 #
loop $-1 $-1 $271 $249 #
vertex $-1 $273 $274 #
vertex $-1 $102 $275 #
straight-curve $-1 -42.365794854579299 -9.1831314484180098 0 0 0 1 I I #
face $-1 $-1 $190 $23 $-1 $276 forward single #
loop $-1 $-1 $277 $103 #
plane-surface $-1 0 -16.998294166483173 0 0 1 0 0 0 1 forward_v I I I I #
coedge $-1 $278 $279 $280 $281 reversed $104 $-1 #
coedge $-1 $282 $106 $108 $188 forward $65 $-1 #
coedge $-1 $106 $282 $278 $283 forward $65 $-1 #
coedge $-1 $280 $109 $106 $185 forward $190 $-1 #
edge $-1 $192 -17.798681074615864 $284 -5.9186393440144798 $184 $285 forward 7 unknown #
coedge $-1 $286 $287 $107 $187 forward $179 $-1 #
edge $-1 $288 -32.029654619287591 $191 -28.411576235786455 $186 $289 forward 7 unknown #
edge $-1 $192 -5.749183388985232 $288 -4.5775606565932064e-015 $108 $290 forward 7 unknown #
coedge $-1 $109 $280 $286 $291 forward $190 $-1 #
loop $-1 $-1 $280 $178 #
vertex $-1 $187 $292 #
vertex $-1 $110 $293 #
straight-curve $-1 29.657341283931036 -35.160805999335466 5.4075813590325836 0 1 0 I I #
coedge $-1 $194 $194 $-1 $294 reversed $113 $-1 #
edge $-1 $295 0 $295 6.2831853071796004 $114 $296 forward 7 unknown #
vertex $-1 $117 $297 #
ellipse-curve $-1 21.171597190644334 -14.76431685846136 3.5985421672820186 0 -0.62932039886446345 0.77714595512881146 1 0 0 1 I I #
coedge $-1 $198 $198 $-1 $298 reversed $120 $-1 #
edge $-1 $299 0 $299 6.2831853071796004 $121 $300 forward 7 unknown #
vertex $-1 $124 $301 #
ellipse-curve $-1 26.26304364661636 -14.76431685846136 3.5985421672820186 0 -0.62932039886446345 0.77714595512881146 1 0 0 1 I I #
face $-1 $-1 $214 $26 $-1 $302 forward single #
loop $-1 $-1 $303 $125 #
plane-surface $-1 0 16.998294166483173 0 0 -1 0 0 0 -1 forward_v I I I I #
coedge $-1 $304 $305 $306 $307 reversed $126 $-1 #
coedge $-1 $308 $128 $130 $212 forward $79 $-1 #
coedge $-1 $128 $308 $304 $309 forward $79 $-1 #
coedge $-1 $306 $131 $128 $209 forward $214 $-1 #
edge $-1 $216 -24.812191692132366 $310 -0.83895747295407652 $208 $311 forward 7 unknown #
coedge $-1 $312 $313 $129 $211 forward $203 $-1 #
edge $-1 $314 -38.963164849668331 $215 -34.584905896064633 $210 $315 forward 7 unknown #
edge $-1 $216 28.440498028738695 $314 33.996588332966326 $130 $316 forward 7 unknown #
coedge $-1 $131 $306 $312 $317 forward $214 $-1 #
loop $-1 $-1 $306 $202 #
vertex $-1 $211 $318 #
vertex $-1 $132 $319 #
straight-curve $-1 -37.637766274675585 31.418654678484579 5.4075813590325836 0 -1 0 I I #
coedge $-1 $218 $218 $-1 $320 reversed $135 $-1 #
edge $-1 $321 0 $321 6.2831853071796004 $136 $322 forward 7 unknown #
vertex $-1 $139 $323 #
ellipse-curve $-1 -25.651149165086444 15.287958818962013 3.2184518822307271 0 0.78801076186113728 0.61566146476048833 1 0 0 1 I I #
face $-1 $-1 $155 $21 $-1 $324 reversed single #
loop $-1 $-1 $238 $140 #
plane-surface $-1 0 16.998294166483173 0 0 -1 0 0 0 -1 forward_v I I I I #
coedge $-1 $325 $236 $239 $326 forward $141 $-1 #
coedge $-1 $242 $143 $144 $230 reversed $88 $-1 #
coedge $-1 $236 $325 $143 $228 reversed $141 $-1 #
edge $-1 $243 -5.4075813590325819 $327 5.4075813590325819 $227 $328 forward 7 unknown #
coedge $-1 $145 $144 $325 $329 forward $57 $-1 #
edge $-1 $234 -42.365794854579299 $327 42.365794854579299 $226 $330 forward 7 unknown #
coedge $-1 $239 $238 $145 $232 reversed $223 $-1 #
edge $-1 $331 -42.365794854579299 $233 42.365794854579299 $231 $332 forward 7 unknown #
vertex $-1 $147 $333 #
vertex $-1 $245 $334 #
straight-curve $-1 42.365794854579299 0 -5.4075813590325819 0 -1 0 I I #
coedge $-1 $225 $227 $148 $237 reversed $141 $-1 #
edge $-1 $240 -16.998294166483173 $243 16.998294166483173 $236 $335 forward 7 unknown #
coedge $-1 $231 $149 $154 $246 forward $223 $-1 #
coedge $-1 $149 $231 $225 $326 reversed $223 $-1 #
vertex $-1 $150 $336 #
straight-curve $-1 0 16.998294166483173 5.4075813590325819 -1 0 0 I I #
coedge $-1 $151 $226 $153 $245 reversed $88 $-1 #
vertex $-1 $237 $337 #
straight-curve $-1 0 -16.998294166483173 5.4075813590325819 1 0 0 I I #
edge $-1 $156 -5.4075813590325819 $234 5.4075813590325819 $153 $338 forward 7 unknown #
edge $-1 $157 -5.4075813590325819 $233 5.4075813590325819 $154 $339 forward 7 unknown #
point $-1 42.365794854579299 -16.998294166483173 5.4075813590325819 #
point $-1 42.365794854579299 16.998294166483173 5.4075813590325819 #
face $-1 $-1 $174 $22 $-1 $340 reversed single #
loop $-1 $-1 $258 $159 #
plane-surface $-1 0 0 5.4075813590325819 0 0 1 1 0 0 forward_v I I I I #
coedge $-1 $264 $263 $163 $257 forward $160 $-1 #
coedge $-1 $165 $162 $264 $341 reversed $96 $-1 #
coedge $-1 $162 $165 $267 $342 reversed $96 $-1 #
edge $-1 $269 -5.4075813590325819 $265 5.4075813590325819 $162 $343 forward 7 unknown #
coedge $-1 $164 $163 $271 $344 reversed $61 $-1 #
edge $-1 $345 -22.364904572265576 $261 -17.636875992361869 $252 $346 forward 7 unknown #
coedge $-1 $268 $267 $164 $259 forward $250 $-1 #
edge $-1 $260 17.636875992361869 $347 22.364904572265576 $258 $348 forward 7 unknown #
vertex $-1 $259 $349 #
vertex $-1 $257 $350 #
straight-curve $-1 -37.637766274675592 -6.1831314484180098 0 0 0 -1 I I #
coedge $-1 $252 $168 $173 $273 forward $160 $-1 #
coedge $-1 $168 $252 $253 $341 forward $160 $-1 #
vertex $-1 $169 $351 #
straight-curve $-1 -20.000890282313723 -9.1831314484180098 -5.4075813590325819 -1 0 0 I I #
coedge $-1 $258 $170 $254 $342 forward $250 $-1 #
coedge $-1 $170 $258 $172 $272 forward $250 $-1 #
vertex $-1 $171 $352 #
straight-curve $-1 -20.000890282313723 -9.1831314484180098 5.4075813590325819 1 0 0 I I #
coedge $-1 $173 $172 $256 $344 forward $174 $-1 #
edge $-1 $347 6.1831314484180098 $176 9.1831314484180098 $172 $353 forward 7 unknown #
edge $-1 $175 -9.1831314484180098 $345 -6.1831314484180098 $173 $354 forward 7 unknown #
point $-1 -42.365794854579299 -9.1831314484180098 -5.4075813590325819 #
point $-1 -42.365794854579299 -9.1831314484180098 5.4075813590325819 #
plane-surface $-1 0 0 5.4075813590325819 0 0 1 1 0 0 forward_v I I I I #
coedge $-1 $287 $286 $279 $355 forward $179 $-1 #
coedge $-1 $279 $181 $183 $283 reversed $104 $-1 #
coedge $-1 $181 $278 $277 $355 reversed $104 $-1 #
coedge $-1 $189 $184 $181 $281 forward $190 $-1 #
edge $-1 $284 -22.630466448895916 $356 -18.162511832852292 $280 $357 forward 7 unknown #
coedge $-1 $183 $182 $287 $358 reversed $65 $-1 #
edge $-1 $359 4.5775606565932064e-015 $284 5.749183388985232 $278 $360 forward 7 unknown #
vertex $-1 $185 $361 #
straight-curve $-1 11.858660209315172 -12.530339550439553 5.4075813590325819 -1 0 0 I I #
coedge $-1 $277 $186 $189 $291 reversed $179 $-1 #
coedge $-1 $186 $277 $282 $358 forward $179 $-1 #
vertex $-1 $187 $362 #
straight-curve $-1 29.657341283931036 -16.998294166483173 33.819157594819039 0 0 1 I I #
straight-curve $-1 29.657341283931036 -16.998294166483177 1.7895029755314482 0 -0.77714595512881146 -0.62932039886446345 I I #
edge $-1 $356 17.777299553329652 $191 29.657341283931036 $286 $363 forward 7 unknown #
point $-1 29.657341283931036 -16.998294166483173 5.4075813590325819 #
point $-1 29.657341283931036 -12.530339550439551 5.4075813590325819 #
edge $-1 $364 1 $364 0 $194 $-1 forward 7 unknown #
vertex $-1 $195 $365 #
ellipse-curve $-1 21.171597190644334 -12.77884720320422 1.1466913860293375 0 -0.62932039886446345 0.77714595512881146 1 0 0 1 I I #
point $-1 22.171597190644334 -14.764316858461353 3.5985421672820084 #
edge $-1 $366 1 $366 0 $198 $-1 forward 7 unknown #
vertex $-1 $199 $367 #
ellipse-curve $-1 26.26304364661636 -12.77884720320422 1.1466913860293375 0 -0.62932039886446345 0.77714595512881146 1 0 0 1 I I #
point $-1 27.26304364661636 -14.764316858461353 3.5985421672820084 #
plane-surface $-1 0 0 5.4075813590325819 0 0 1 1 0 0 forward_v I I I I #
coedge $-1 $313 $312 $305 $368 forward $203 $-1 #
coedge $-1 $305 $205 $207 $309 reversed $126 $-1 #
coedge $-1 $205 $304 $303 $368 reversed $126 $-1 #
coedge $-1 $213 $208 $205 $307 forward $214 $-1 #
edge $-1 $310 -17.841031207043738 $369 -14.420360512001405 $306 $370 forward 7 unknown #
coedge $-1 $207 $206 $313 $371 reversed $79 $-1 #
edge $-1 $372 -33.996588332966326 $310 -28.440498028738695 $304 $373 forward 7 unknown #
vertex $-1 $209 $374 #
straight-curve $-1 -12.82557458254322 13.577623471440845 5.4075813590325819 1 0 0 I I #
coedge $-1 $303 $210 $213 $317 reversed $203 $-1 #
coedge $-1 $210 $303 $308 $371 forward $203 $-1 #
vertex $-1 $211 $375 #
straight-curve $-1 -37.637766274675585 16.998294166483173 39.992487255097217 0 0 1 I I #
straight-curve $-1 -37.637766274675585 -3.9320952034502028 27.818999878369134 0 0.61566146476048833 -0.78801076186113728 I I #
edge $-1 $369 13.664532055497297 $215 37.637766274675585 $312 $376 forward 7 unknown #
point $-1 -37.637766274675585 16.998294166483173 5.4075813590325819 #
point $-1 -37.637766274675585 13.577623471440841 5.4075813590325836 #
edge $-1 $377 1 $377 0 $218 $-1 forward 7 unknown #
vertex $-1 $219 $378 #
ellipse-curve $-1 -25.651149165086444 13.795868004761356 2.052702807869323 0 0.78801076186113728 0.61566146476048833 1 0 0 1 I I #
point $-1 -24.651149165086444 15.287958818961997 3.2184518822307151 #
plane-surface $-1 42.365794854579299 0 0 -1 0 0 0 0 1 forward_v I I I I #
coedge $-1 $227 $225 $229 $329 reversed $141 $-1 #
edge $-1 $240 -5.4075813590325819 $331 5.4075813590325819 $239 $379 forward 7 unknown #
vertex $-1 $329 $380 #
straight-curve $-1 -42.365794854579299 -16.998294166483173 0 0 0 -1 I I #
edge $-1 $327 -16.998294166483173 $331 16.998294166483173 $325 $381 forward 7 unknown #
straight-curve $-1 0 -16.998294166483173 -5.4075813590325819 -1 0 0 I I #
vertex $-1 $232 $382 #
straight-curve $-1 0 16.998294166483173 -5.4075813590325819 1 0 0 I I #
point $-1 42.365794854579299 16.998294166483173 -5.4075813590325819 #
point $-1 42.365794854579299 -16.998294166483173 -5.4075813590325819 #
straight-curve $-1 -42.365794854579299 0 5.4075813590325819 0 -1 0 I I #
point $-1 -42.365794854579299 16.998294166483173 5.4075813590325819 #
point $-1 -42.365794854579299 -16.998294166483173 5.4075813590325819 #
straight-curve $-1 42.365794854579299 -16.998294166483173 0 0 0 -1 I I #
straight-curve $-1 42.365794854579299 16.998294166483173 0 0 0 -1 I I #
plane-surface $-1 -42.365794854579299 0 0 1 0 0 0 0 -1 forward_v I I I I #
edge $-1 $261 2.3415657242090049 $265 5.3415657242090049 $264 $383 forward 7 unknown #
edge $-1 $269 -5.3415657242090049 $260 -2.3415657242090049 $267 $384 forward 7 unknown #
straight-curve $-1 -37.637766274675592 -9.1831314484180098 0 0 0 -1 I I #
edge $-1 $347 -5.4075813590325819 $345 5.4075813590325819 $271 $385 forward 7 unknown #
vertex $-1 $344 $386 #
straight-curve $-1 -20.000890282313723 -6.1831314484180098 -5.4075813590325819 1 0 0 I I #
vertex $-1 $272 $387 #
straight-curve $-1 -20.000890282313723 -6.1831314484180098 5.4075813590325819 -1 0 0 I I #
point $-1 -37.637766274675592 -6.1831314484180098 5.4075813590325819 #
point $-1 -37.637766274675592 -6.1831314484180098 -5.4075813590325819 #
point $-1 -37.637766274675592 -9.1831314484180098 -5.4075813590325819 #
point $-1 -37.637766274675592 -9.1831314484180098 5.4075813590325819 #
straight-curve $-1 -42.365794854579299 0 5.4075813590325819 0 -1 0 I I #
straight-curve $-1 -42.365794854579299 0 -5.4075813590325819 0 1 0 I I #
edge $-1 $356 28.411576235786455 $359 32.029654619287591 $277 $388 forward 7 unknown #
vertex $-1 $291 $389 #
straight-curve $-1 17.777299553329652 -35.160805999335466 5.4075813590325836 0 -1 0 I I #
edge $-1 $359 5.9186393440144798 $288 17.798681074615864 $287 $390 forward 7 unknown #
vertex $-1 $358 $391 #
straight-curve $-1 17.777299553329652 -16.998294166483177 1.7895029755314482 0 0.77714595512881146 0.62932039886446345 I I #
point $-1 17.777299553329652 -12.530339550439551 5.4075813590325819 #
point $-1 29.657341283931036 -16.998294166483173 1.7895029755314511 #
straight-curve $-1 0 -16.998294166483173 5.4075813590325819 1 0 0 I I #
vertex $-1 $294 $392 #
point $-1 22.171597190644334 -12.77884720320422 1.1466913860293375 #
vertex $-1 $298 $393 #
point $-1 27.26304364661636 -12.77884720320422 1.1466913860293375 #
edge $-1 $369 34.584905896064633 $372 38.963164849668331 $303 $394 forward 7 unknown #
vertex $-1 $317 $395 #
straight-curve $-1 -13.664532055497297 31.418654678484579 5.4075813590325836 0 1 0 I I #
edge $-1 $372 0.83895747295407652 $314 24.812191692132366 $313 $396 forward 7 unknown #
vertex $-1 $371 $397 #
straight-curve $-1 -13.664532055497297 -3.9320952034502028 27.818999878369134 0 -0.61566146476048833 0.78801076186113728 I I #
point $-1 -13.664532055497297 13.577623471440841 5.4075813590325836 #
point $-1 -37.637766274675585 16.998294166483173 1.0293224054288892 #
straight-curve $-1 0 16.998294166483173 5.4075813590325819 -1 0 0 I I #
vertex $-1 $320 $398 #
point $-1 -24.651149165086444 13.795868004761356 2.052702807869323 #
straight-curve $-1 -42.365794854579299 16.998294166483173 0 0 0 -1 I I #
point $-1 -42.365794854579299 -16.998294166483173 -5.4075813590325819 #
straight-curve $-1 -42.365794854579299 0 -5.4075813590325819 0 1 0 I I #
point $-1 -42.365794854579299 16.998294166483173 -5.4075813590325819 #
straight-curve $-1 -37.637766274675592 -3.8415657242090049 -5.4075813590325819 0 -1 0 I I #
straight-curve $-1 -37.637766274675592 -3.8415657242090049 5.4075813590325819 0 1 0 I I #
straight-curve $-1 -42.365794854579299 -6.1831314484180098 0 0 0 -1 I I #
point $-1 -42.365794854579299 -6.1831314484180098 -5.4075813590325819 #
point $-1 -42.365794854579299 -6.1831314484180098 5.4075813590325819 #
straight-curve $-1 17.777299553329652 -16.998294166483173 33.819157594819039 0 0 -1 I I #
point $-1 17.777299553329652 -16.998294166483173 5.4075813590325819 #
straight-curve $-1 11.858660209315172 -16.998294166483173 1.7895029755314522 1 0 0 I I #
point $-1 17.777299553329652 -16.998294166483173 1.7895029755314511 #
point $-1 21.171597190644334 -12.149526804339756 0.369545430900526 #
point $-1 26.26304364661636 -12.149526804339756 0.369545430900526 #
straight-curve $-1 -13.664532055497297 16.998294166483173 39.992487255097217 0 0 -1 I I #
point $-1 -13.664532055497297 16.998294166483173 5.4075813590325819 #
straight-curve $-1 -12.82557458254322 16.998294166483173 1.0293224054288856 -1 0 0 I I #
point $-1 -13.664532055497297 16.998294166483173 1.0293224054288892 #
point $-1 -25.651149165086444 13.007857242900219 1.4370413431088349 #
End-of-ACIS-data 