500 0 7 0           
7 Unknown 11 ACIS 5.0 NT 24 Thu Mar 25 17:38:35 1999 
-1 9.9999999999999995e-007 1e-010 
body $-1 $7 $-1 $8 #
body $-1 $9 $-1 $10 #
body $-1 $11 $-1 $12 #
body $-1 $13 $-1 $14 #
body $-1 $15 $-1 $16 #
body $-1 $17 $-1 $18 #
body $-1 $19 $-1 $20 #
lump $-1 $-1 $21 $0 #
transform $-1 1 0 0 0 1 0 0 0 1 72.494888149662771 35.291450509064937 10.362764094148634 1 rotate no_reflect no_shear #
lump $-1 $-1 $22 $1 #
transform $-1 1 0 0 0 1 0 0 0 1 72.494888149662771 35.291450509064937 10.362764094148634 1 rotate no_reflect no_shear #
lump $-1 $-1 $23 $2 #
transform $-1 1 0 0 0 1 0 0 0 1 72.494888149662771 35.291450509064937 10.362764094148634 1 rotate no_reflect no_shear #
lump $-1 $-1 $24 $3 #
transform $-1 1 0 0 0 1 0 0 0 1 72.494888149662771 35.291450509064937 10.362764094148634 1 rotate no_reflect no_shear #
lump $-1 $-1 $25 $4 #
transform $-1 1 0 0 0 1 0 0 0 1 72.494888149662771 35.291450509064937 10.362764094148634 1 rotate no_reflect no_shear #
lump $-1 $-1 $26 $5 #
transform $-1 1 0 0 0 1 0 0 0 1 72.494888149662771 35.291450509064937 10.362764094148634 1 rotate no_reflect no_shear #
lump $-1 $-1 $27 $6 #
transform $-1 1 0 0 0 1 0 0 0 1 72.494888149662771 35.291450509064937 10.362764094148634 1 rotate no_reflect no_shear #
shell $-1 $-1 $-1 $28 $-1 $7 #
shell $-1 $-1 $-1 $29 $-1 $9 #
shell $-1 $-1 $-1 $30 $-1 $11 #
shell $-1 $-1 $-1 $31 $-1 $13 #
shell $-1 $-1 $-1 $32 $-1 $15 #
shell $-1 $-1 $-1 $33 $-1 $17 #
shell $-1 $-1 $-1 $34 $-1 $19 #
face $-1 $35 $36 $21 $-1 $37 forward single #
face $-1 $38 $39 $22 $-1 $40 forward single #
face $-1 $41 $42 $23 $-1 $43 forward single #
face $-1 $44 $45 $24 $-1 $46 reversed single #
face $-1 $47 $48 $25 $-1 $49 forward single #
face $-1 $50 $51 $26 $-1 $52 forward single #
face $-1 $53 $54 $27 $-1 $55 forward single #
face $-1 $56 $57 $21 $-1 $58 reversed single #
loop $-1 $-1 $59 $28 #
plane-surface $-1 0 0 10.362764094148634 0 0 1 1 0 0 forward_v I I I I #
face $-1 $60 $61 $22 $-1 $62 reversed single #
loop $-1 $-1 $63 $29 #
plane-surface $-1 -65.761602562012939 0 -6.0258174976125503 0 0 1 1 0 0 forward_v I I I I #
face $-1 $64 $65 $23 $-1 $66 reversed single #
loop $-1 $-1 $67 $30 #
plane-surface $-1 65.761602562012953 0 -6.0258174976125503 0 0 1 1 0 0 forward_v I I I I #
face $-1 $68 $69 $24 $-1 $70 reversed single #
loop $-1 $-1 $71 $31 #
plane-surface $-1 31.456970434631678 95.810675006059228 152.25580230210926 -1 0 0 0 0.74314483375859142 0.66913059716165679 forward_v I I I I #
face $-1 $72 $73 $25 $-1 $74 forward single #
loop $-1 $75 $76 $32 #
cone-surface $-1 10.771352712903749 31.146798905644911 5.9138083374733581 0 -0.74314483375859142 -0.66913059716165679 1 0 0 1 I I 0 1 1 forward I I I I #
face $-1 $77 $78 $26 $-1 $79 forward single #
loop $-1 $80 $81 $33 #
cone-surface $-1 18.528459358551714 31.146798905644911 5.9138083374733581 0 -0.74314483375859142 -0.66913059716165679 1 0 0 1 I I 0 1 1 forward I I I I #
face $-1 $82 $83 $27 $-1 $84 forward single #
loop $-1 $85 $86 $34 #
cone-surface $-1 26.28556600419968 31.146798905644911 5.9138083374733581 0 -0.74314483375859142 -0.66913059716165679 1 0 0 1 I I 0 1 1 forward I I I I #
face $-1 $87 $88 $21 $-1 $89 reversed single #
loop $-1 $-1 $90 $35 #
plane-surface $-1 0 0 -10.362764094148634 0 0 1 1 0 0 forward_v I I I I #
coedge $-1 $91 $92 $93 $94 forward $36 $-1 #
face $-1 $95 $96 $22 $-1 $97 reversed single #
loop $-1 $-1 $98 $38 #
plane-surface $-1 -59.028316974363115 0 -8.1942907958805922 -1 0 0 0 0 1 forward_v I I I I #
coedge $-1 $99 $100 $101 $102 forward $39 $-1 #
face $-1 $103 $104 $23 $-1 $105 reversed single #
loop $-1 $-1 $106 $41 #
plane-surface $-1 59.028316974363122 0 -8.1942907958805922 1 0 0 0 0 -1 forward_v I I I I #
coedge $-1 $107 $108 $109 $110 reversed $42 $-1 #
face $-1 $111 $112 $24 $-1 $113 reversed single #
loop $-1 $-1 $114 $44 #
plane-surface $-1 18.528459358551729 -11.937728198598407 55.238706704606528 0 0.74314483375859142 0.66913059716165679 1 0 0 forward_v I I I I #
coedge $-1 $115 $116 $117 $118 reversed $45 $-1 #
face $-1 $-1 $119 $25 $-1 $120 forward single #
loop $-1 $121 $122 $47 #
cone-surface $-1 10.771352712903749 30.041924632937601 4.9189750986469214 0 -0.74314483375859142 -0.66913059716165679 0.5 0 0 1 I I -0.70710678118654746 0.70710678118654746 0.5 forward I I I I #
loop $-1 $-1 $123 $32 #
coedge $-1 $76 $76 $124 $125 reversed $48 $-1 #
face $-1 $-1 $126 $26 $-1 $127 forward single #
loop $-1 $128 $129 $50 #
cone-surface $-1 18.528459358551714 30.041924632937601 4.9189750986469214 0 -0.74314483375859142 -0.66913059716165679 0.5 0 0 1 I I -0.70710678118654746 0.70710678118654746 0.5 forward I I I I #
loop $-1 $-1 $130 $33 #
coedge $-1 $81 $81 $131 $132 reversed $51 $-1 #
face $-1 $-1 $133 $27 $-1 $134 forward single #
loop $-1 $135 $136 $53 #
cone-surface $-1 26.28556600419968 30.041924632937601 4.9189750986469214 0 -0.74314483375859142 -0.66913059716165679 0.5 0 0 1 I I -0.70710678118654746 0.70710678118654746 0.5 forward I I I I #
loop $-1 $-1 $137 $34 #
coedge $-1 $86 $86 $138 $139 reversed $54 $-1 #
face $-1 $140 $141 $21 $-1 $142 reversed single #
loop $-1 $-1 $143 $56 #
plane-surface $-1 0 -35.291450509064937 0 0 1 0 0 0 1 forward_v I I I I #
coedge $-1 $144 $145 $146 $147 forward $57 $-1 #
coedge $-1 $148 $59 $149 $150 forward $36 $-1 #
coedge $-1 $59 $148 $151 $152 forward $36 $-1 #
coedge $-1 $153 $154 $59 $94 reversed $155 $-1 #
edge $-1 $156 -35.291450509064937 $157 35.291450509064937 $93 $158 forward 7 unknown #
face $-1 $159 $160 $22 $-1 $161 reversed single #
loop $-1 $-1 $162 $60 #
plane-surface $-1 0 0 -10.362764094148634 0 0 1 1 0 0 forward_v I I I I #
coedge $-1 $163 $101 $164 $165 reversed $61 $-1 #
coedge $-1 $166 $63 $167 $168 reversed $39 $-1 #
coedge $-1 $63 $166 $169 $170 reversed $39 $-1 #
coedge $-1 $98 $171 $63 $102 reversed $61 $-1 #
edge $-1 $172 -35.291450509064937 $173 35.291450509064937 $101 $174 forward 7 unknown #
face $-1 $175 $176 $23 $-1 $177 reversed single #
loop $-1 $-1 $178 $64 #
plane-surface $-1 0 -35.291450509064937 0 0 1 0 0 0 1 forward_v I I I I #
coedge $-1 $179 $180 $181 $182 reversed $65 $-1 #
coedge $-1 $183 $67 $184 $185 reversed $42 $-1 #
coedge $-1 $67 $183 $178 $186 reversed $42 $-1 #
coedge $-1 $187 $188 $67 $110 forward $189 $-1 #
edge $-1 $190 -35.291450509064937 $191 35.291450509064937 $109 $192 forward 7 unknown #
face $-1 $193 $194 $24 $-1 $195 reversed single #
loop $-1 $-1 $196 $68 #
plane-surface $-1 5.5999482824717788 95.810675006059228 152.25580230210926 1 0 0 0 -0.74314483375859142 -0.66913059716165679 forward_v I I I I #
coedge $-1 $197 $198 $199 $200 reversed $69 $-1 #
coedge $-1 $116 $71 $201 $202 reversed $45 $-1 #
coedge $-1 $71 $115 $197 $203 reversed $45 $-1 #
coedge $-1 $199 $204 $71 $118 forward $194 $-1 #
edge $-1 $205 65.765137056905999 $206 73.342512689765329 $117 $207 forward 7 unknown #
loop $-1 $-1 $124 $72 #
plane-surface $-1 18.528459358551729 -11.937728198598407 55.238706704606528 0 0.74314483375859142 0.66913059716165679 1 0 0 forward_v I I I I #
loop $-1 $-1 $208 $47 #
coedge $-1 $122 $122 $123 $209 reversed $73 $-1 #
coedge $-1 $123 $123 $122 $209 forward $75 $-1 #
coedge $-1 $124 $124 $76 $125 forward $119 $-1 #
edge $-1 $210 0 $210 6.2831853071796004 $124 $211 forward 7 unknown #
loop $-1 $-1 $131 $77 #
plane-surface $-1 18.528459358551729 -11.937728198598407 55.238706704606528 0 0.74314483375859142 0.66913059716165679 1 0 0 forward_v I I I I #
loop $-1 $-1 $212 $50 #
coedge $-1 $129 $129 $130 $213 reversed $78 $-1 #
coedge $-1 $130 $130 $129 $213 forward $80 $-1 #
coedge $-1 $131 $131 $81 $132 forward $126 $-1 #
edge $-1 $214 0 $214 6.2831853071796004 $131 $215 forward 7 unknown #
loop $-1 $-1 $138 $82 #
plane-surface $-1 18.528459358551729 -11.937728198598407 55.238706704606528 0 0.74314483375859142 0.66913059716165679 1 0 0 forward_v I I I I #
loop $-1 $-1 $216 $53 #
coedge $-1 $136 $136 $137 $217 reversed $83 $-1 #
coedge $-1 $137 $137 $136 $217 forward $85 $-1 #
coedge $-1 $138 $138 $86 $139 forward $133 $-1 #
edge $-1 $218 0 $218 6.2831853071796004 $138 $219 forward 7 unknown #
face $-1 $220 $221 $21 $-1 $222 reversed single #
loop $-1 $-1 $223 $87 #
plane-surface $-1 -72.494888149662771 0 0 1 0 0 0 0 -1 forward_v I I I I #
coedge $-1 $224 $151 $225 $226 forward $88 $-1 #
coedge $-1 $227 $90 $224 $228 forward $57 $-1 #
coedge $-1 $90 $227 $229 $230 forward $57 $-1 #
coedge $-1 $154 $153 $90 $147 reversed $155 $-1 #
edge $-1 $231 -35.291450509064937 $232 35.291450509064937 $146 $233 forward 7 unknown #
coedge $-1 $92 $91 $234 $235 forward $36 $-1 #
coedge $-1 $236 $237 $91 $150 reversed $221 $-1 #
edge $-1 $157 -72.494888149662771 $238 72.494888149662771 $149 $239 forward 7 unknown #
coedge $-1 $143 $240 $92 $152 reversed $88 $-1 #
edge $-1 $241 -72.494888149662771 $156 72.494888149662771 $151 $242 forward 7 unknown #
coedge $-1 $146 $93 $240 $243 forward $155 $-1 #
coedge $-1 $93 $146 $236 $244 reversed $155 $-1 #
loop $-1 $-1 $153 $220 #
vertex $-1 $94 $245 #
vertex $-1 $94 $246 #
straight-curve $-1 72.494888149662771 0 10.362764094148634 0 1 0 I I #
face $-1 $247 $248 $22 $-1 $249 reversed single #
loop $-1 $-1 $164 $95 #
plane-surface $-1 0 -35.291450509064937 0 0 1 0 0 0 1 forward_v I I I I #
coedge $-1 $250 $251 $163 $252 forward $96 $-1 #
coedge $-1 $171 $98 $162 $252 reversed $61 $-1 #
coedge $-1 $169 $253 $98 $165 forward $160 $-1 #
edge $-1 $254 -6.265618696208338 $172 -1.9286720996722542 $164 $255 forward 7 unknown #
coedge $-1 $100 $99 $256 $257 reversed $39 $-1 #
coedge $-1 $258 $259 $99 $168 forward $260 $-1 #
edge $-1 $261 -39.614086868656301 $173 -26.147515693356645 $167 $262 forward 7 unknown #
coedge $-1 $263 $164 $100 $170 forward $160 $-1 #
edge $-1 $172 26.147515693356645 $264 39.614086868656301 $169 $265 forward 7 unknown #
coedge $-1 $101 $163 $258 $266 reversed $61 $-1 #
vertex $-1 $170 $267 #
vertex $-1 $168 $268 #
straight-curve $-1 -59.028316974363115 0 -6.0258174976125503 0 1 0 I I #
face $-1 $269 $270 $23 $-1 $271 reversed single #
loop $-1 $-1 $272 $103 #
plane-surface $-1 0 0 -10.362764094148634 0 0 1 1 0 0 forward_v I I I I #
coedge $-1 $273 $274 $108 $186 forward $104 $-1 #
coedge $-1 $275 $106 $272 $276 reversed $65 $-1 #
coedge $-1 $106 $275 $183 $277 reversed $65 $-1 #
coedge $-1 $184 $278 $106 $182 forward $270 $-1 #
edge $-1 $279 -6.265618696208338 $280 -1.9286720996722542 $181 $281 forward 7 unknown #
coedge $-1 $108 $107 $180 $277 forward $42 $-1 #
coedge $-1 $282 $181 $107 $185 forward $270 $-1 #
edge $-1 $280 26.147515693356645 $190 39.614086868656308 $184 $283 forward 7 unknown #
edge $-1 $191 -39.614086868656308 $284 -26.147515693356645 $178 $285 forward 7 unknown #
coedge $-1 $286 $109 $274 $287 forward $189 $-1 #
coedge $-1 $109 $286 $282 $288 reversed $189 $-1 #
loop $-1 $-1 $109 $269 #
vertex $-1 $288 $289 #
vertex $-1 $287 $290 #
straight-curve $-1 72.494888149662771 0 -6.0258174976125503 0 -1 0 I I #
face $-1 $-1 $291 $24 $-1 $292 forward single #
loop $-1 $-1 $117 $111 #
plane-surface $-1 0 35.291450509064937 0 0 -1 0 0 0 -1 forward_v I I I I #
coedge $-1 $293 $294 $295 $296 reversed $112 $-1 #
coedge $-1 $297 $114 $116 $203 forward $69 $-1 #
coedge $-1 $114 $297 $293 $298 forward $69 $-1 #
coedge $-1 $295 $117 $114 $200 forward $194 $-1 #
edge $-1 $206 -22.192740755355814 $299 3.6642813968040855 $199 $300 forward 7 unknown #
coedge $-1 $301 $302 $115 $202 forward $291 $-1 #
edge $-1 $303 -19.436586489148688 $205 -12.613886993964677 $201 $304 forward 7 unknown #
edge $-1 $206 -70.58290101812986 $303 -60.386536475655191 $116 $305 forward 7 unknown #
coedge $-1 $117 $295 $301 $306 reversed $194 $-1 #
vertex $-1 $306 $307 #
vertex $-1 $118 $308 #
straight-curve $-1 31.456970434631678 35.291450509064937 76.12790115105463 0 0 -1 I I #
coedge $-1 $208 $208 $-1 $309 reversed $121 $-1 #
edge $-1 $310 0 $310 6.2831853071796004 $122 $311 forward 7 unknown #
vertex $-1 $125 $312 #
ellipse-curve $-1 10.771352712903749 31.880100761472924 6.5740762777189667 0 0.74314483375859142 0.66913059716165679 1 0 0 1 I I #
coedge $-1 $212 $212 $-1 $313 reversed $128 $-1 #
edge $-1 $314 0 $314 6.2831853071796004 $129 $315 forward 7 unknown #
vertex $-1 $132 $316 #
ellipse-curve $-1 18.528459358551714 31.880100761472924 6.5740762777189667 0 0.74314483375859142 0.66913059716165679 1 0 0 1 I I #
coedge $-1 $216 $216 $-1 $317 reversed $135 $-1 #
edge $-1 $318 0 $318 6.2831853071796004 $136 $319 forward 7 unknown #
vertex $-1 $139 $320 #
ellipse-curve $-1 26.28556600419968 31.880100761472924 6.5740762777189667 0 0.74314483375859142 0.66913059716165679 1 0 0 1 I I #
face $-1 $-1 $155 $21 $-1 $321 reversed single #
loop $-1 $-1 $236 $140 #
plane-surface $-1 0 35.291450509064937 0 0 -1 0 0 0 -1 forward_v I I I I #
coedge $-1 $322 $234 $237 $323 forward $141 $-1 #
coedge $-1 $240 $143 $144 $228 reversed $88 $-1 #
coedge $-1 $234 $322 $143 $226 reversed $141 $-1 #
edge $-1 $241 -10.362764094148634 $324 10.362764094148634 $225 $325 forward 7 unknown #
coedge $-1 $145 $144 $322 $326 forward $57 $-1 #
edge $-1 $232 -72.494888149662771 $324 72.494888149662771 $224 $327 forward 7 unknown #
coedge $-1 $237 $236 $145 $230 reversed $221 $-1 #
edge $-1 $328 -72.494888149662771 $231 72.494888149662771 $229 $329 forward 7 unknown #
vertex $-1 $147 $330 #
vertex $-1 $243 $331 #
straight-curve $-1 72.494888149662771 0 -10.362764094148634 0 -1 0 I I #
coedge $-1 $223 $225 $148 $235 reversed $141 $-1 #
edge $-1 $238 -35.291450509064937 $241 35.291450509064937 $234 $332 forward 7 unknown #
coedge $-1 $229 $149 $154 $244 forward $221 $-1 #
coedge $-1 $149 $229 $223 $323 reversed $221 $-1 #
vertex $-1 $150 $333 #
straight-curve $-1 0 35.291450509064937 10.362764094148634 -1 0 0 I I #
coedge $-1 $151 $224 $153 $243 reversed $88 $-1 #
vertex $-1 $235 $334 #
straight-curve $-1 0 -35.291450509064937 10.362764094148634 1 0 0 I I #
edge $-1 $156 -10.362764094148634 $232 10.362764094148634 $153 $335 forward 7 unknown #
edge $-1 $157 -10.362764094148634 $231 10.362764094148634 $154 $336 forward 7 unknown #
point $-1 72.494888149662771 -35.291450509064937 10.362764094148634 #
point $-1 72.494888149662771 35.291450509064937 10.362764094148634 #
face $-1 $-1 $260 $22 $-1 $337 reversed single #
loop $-1 $-1 $256 $159 #
plane-surface $-1 -72.494888149662771 0 0 1 0 0 0 0 -1 forward_v I I I I #
coedge $-1 $338 $162 $253 $339 forward $96 $-1 #
coedge $-1 $162 $338 $340 $341 forward $96 $-1 #
edge $-1 $342 -35.291450509064937 $254 35.291450509064937 $162 $343 forward 7 unknown #
coedge $-1 $164 $263 $250 $339 reversed $160 $-1 #
vertex $-1 $339 $344 #
straight-curve $-1 -59.028316974363115 -35.291450509064937 -4.0971453979402961 0 0 1 I I #
coedge $-1 $345 $346 $166 $257 forward $248 $-1 #
edge $-1 $264 -35.291450509064937 $261 35.291450509064937 $256 $347 forward 7 unknown #
coedge $-1 $340 $167 $171 $266 forward $260 $-1 #
coedge $-1 $167 $340 $345 $348 reversed $260 $-1 #
loop $-1 $-1 $258 $247 #
vertex $-1 $348 $349 #
straight-curve $-1 -32.88080128100647 35.291450509064937 -6.0258174976125503 1 0 0 I I #
coedge $-1 $253 $169 $346 $350 forward $160 $-1 #
vertex $-1 $350 $351 #
straight-curve $-1 -32.88080128100647 -35.291450509064937 -6.0258174976125503 -1 0 0 I I #
edge $-1 $173 1.9286720996722542 $342 6.265618696208338 $258 $352 forward 7 unknown #
point $-1 -59.028316974363115 -35.291450509064937 -6.0258174976125503 #
point $-1 -59.028316974363115 35.291450509064937 -6.0258174976125503 #
face $-1 $-1 $189 $23 $-1 $353 reversed single #
loop $-1 $-1 $184 $175 #
plane-surface $-1 0 35.291450509064937 0 0 -1 0 0 0 -1 forward_v I I I I #
coedge $-1 $354 $355 $179 $276 forward $176 $-1 #
coedge $-1 $356 $178 $275 $357 forward $104 $-1 #
coedge $-1 $178 $356 $187 $287 reversed $104 $-1 #
coedge $-1 $180 $179 $273 $357 reversed $65 $-1 #
edge $-1 $358 -35.291450509064937 $279 35.291450509064937 $272 $359 forward 7 unknown #
edge $-1 $280 -35.291450509064937 $284 35.291450509064937 $180 $360 forward 7 unknown #
coedge $-1 $181 $282 $354 $361 reversed $270 $-1 #
vertex $-1 $361 $362 #
vertex $-1 $185 $363 #
straight-curve $-1 59.028316974363122 35.291450509064937 -4.0971453979402961 0 0 1 I I #
coedge $-1 $278 $184 $188 $288 forward $270 $-1 #
straight-curve $-1 32.880801281006477 35.291450509064937 -6.0258174976125503 1 0 0 I I #
vertex $-1 $186 $364 #
straight-curve $-1 32.880801281006477 -35.291450509064937 -6.0258174976125503 -1 0 0 I I #
coedge $-1 $188 $187 $365 $366 reversed $189 $-1 #
edge $-1 $191 6.0258174976125503 $367 10.362764094148634 $187 $368 forward 7 unknown #
edge $-1 $190 6.0258174976125503 $369 10.362764094148634 $188 $370 forward 7 unknown #
point $-1 72.494888149662785 35.291450509064937 -6.0258174976125503 #
point $-1 72.494888149662785 -35.291450509064937 -6.0258174976125503 #
loop $-1 $-1 $201 $193 #
plane-surface $-1 0 0 10.362764094148634 0 0 1 1 0 0 forward_v I I I I #
coedge $-1 $294 $196 $198 $298 reversed $112 $-1 #
coedge $-1 $196 $293 $371 $372 reversed $112 $-1 #
coedge $-1 $204 $199 $196 $296 forward $194 $-1 #
edge $-1 $299 -73.342512689765329 $373 -65.765137056905999 $295 $374 forward 7 unknown #
coedge $-1 $198 $197 $302 $375 reversed $69 $-1 #
edge $-1 $376 60.386536475655191 $299 70.58290101812986 $293 $377 forward 7 unknown #
vertex $-1 $200 $378 #
straight-curve $-1 9.2642296792758643 35.291450509064937 2.7853884612893047 -1 0 0 I I #
coedge $-1 $371 $201 $204 $306 forward $291 $-1 #
coedge $-1 $201 $371 $297 $375 forward $291 $-1 #
vertex $-1 $202 $379 #
straight-curve $-1 31.456970434631678 47.905337503029614 10.362764094148631 0 1 0 I I #
straight-curve $-1 31.456970434631678 -11.937728198598407 55.238706704606528 0 -0.66913059716165679 0.74314483375859142 I I #
edge $-1 $205 -31.456970434631678 $373 -5.5999482824717788 $204 $380 forward 7 unknown #
point $-1 31.456970434631678 35.291450509064937 10.362764094148634 #
point $-1 31.456970434631678 35.291450509064937 2.7853884612893012 #
edge $-1 $381 1 $381 0 $208 $-1 forward 7 unknown #
vertex $-1 $209 $382 #
ellipse-curve $-1 10.771352712903749 30.413497049816897 5.2535403972277495 0 0.74314483375859142 0.66913059716165679 1 0 0 1 I I #
point $-1 11.771352712903749 31.880100761472924 6.5740762777189667 #
edge $-1 $383 1 $383 0 $212 $-1 forward 7 unknown #
vertex $-1 $213 $384 #
ellipse-curve $-1 18.528459358551714 30.413497049816897 5.2535403972277495 0 0.74314483375859142 0.66913059716165679 1 0 0 1 I I #
point $-1 19.528459358551714 31.880100761472924 6.5740762777189667 #
edge $-1 $385 1 $385 0 $216 $-1 forward 7 unknown #
vertex $-1 $217 $386 #
ellipse-curve $-1 26.28556600419968 30.413497049816897 5.2535403972277495 0 0.74314483375859142 0.66913059716165679 1 0 0 1 I I #
point $-1 27.28556600419968 31.880100761472924 6.5740762777189667 #
plane-surface $-1 72.494888149662771 0 0 -1 0 0 0 0 1 forward_v I I I I #
coedge $-1 $225 $223 $227 $326 reversed $141 $-1 #
edge $-1 $238 -10.362764094148634 $328 10.362764094148634 $237 $387 forward 7 unknown #
vertex $-1 $326 $388 #
straight-curve $-1 -72.494888149662771 -35.291450509064937 0 0 0 -1 I I #
edge $-1 $324 -35.291450509064937 $328 35.291450509064937 $322 $389 forward 7 unknown #
straight-curve $-1 0 -35.291450509064937 -10.362764094148634 -1 0 0 I I #
vertex $-1 $230 $390 #
straight-curve $-1 0 35.291450509064937 -10.362764094148634 1 0 0 I I #
point $-1 72.494888149662771 35.291450509064937 -10.362764094148634 #
point $-1 72.494888149662771 -35.291450509064937 -10.362764094148634 #
straight-curve $-1 -72.494888149662771 0 10.362764094148634 0 -1 0 I I #
point $-1 -72.494888149662771 35.291450509064937 10.362764094148634 #
point $-1 -72.494888149662771 -35.291450509064937 10.362764094148634 #
straight-curve $-1 72.494888149662771 -35.291450509064937 0 0 0 -1 I I #
straight-curve $-1 72.494888149662771 35.291450509064937 0 0 0 -1 I I #
plane-surface $-1 0 35.291450509064937 0 0 -1 0 0 0 -1 forward_v I I I I #
coedge $-1 $251 $250 $391 $392 forward $96 $-1 #
edge $-1 $254 59.028316974363115 $393 72.494888149662771 $253 $394 forward 7 unknown #
coedge $-1 $259 $258 $251 $341 reversed $260 $-1 #
edge $-1 $395 -72.494888149662771 $342 -59.028316974363115 $340 $396 forward 7 unknown #
vertex $-1 $266 $397 #
straight-curve $-1 -59.028316974363115 0 -10.362764094148634 0 -1 0 I I #
point $-1 -59.028316974363115 -35.291450509064937 -10.362764094148634 #
coedge $-1 $391 $256 $259 $348 forward $248 $-1 #
coedge $-1 $256 $391 $263 $350 reversed $248 $-1 #
straight-curve $-1 -72.494888149662771 0 -6.0258174976125503 0 1 0 I I #
edge $-1 $261 6.0258174976125503 $395 10.362764094148634 $259 $398 forward 7 unknown #
point $-1 -72.494888149662771 35.291450509064937 -6.0258174976125503 #
edge $-1 $264 6.0258174976125503 $393 10.362764094148634 $346 $399 forward 7 unknown #
point $-1 -72.494888149662771 -35.291450509064937 -6.0258174976125503 #
straight-curve $-1 -59.028316974363115 35.291450509064937 -4.0971453979402961 0 0 -1 I I #
plane-surface $-1 72.494888149662771 0 0 -1 0 0 0 0 1 forward_v I I I I #
coedge $-1 $365 $272 $278 $361 forward $176 $-1 #
coedge $-1 $272 $365 $356 $400 forward $176 $-1 #
coedge $-1 $274 $273 $355 $400 reversed $104 $-1 #
edge $-1 $284 1.9286720996722542 $358 6.265618696208338 $273 $401 forward 7 unknown #
vertex $-1 $276 $402 #
straight-curve $-1 59.028316974363122 0 -10.362764094148634 0 1 0 I I #
straight-curve $-1 59.028316974363122 0 -6.0258174976125503 0 -1 0 I I #
edge $-1 $279 59.028316974363122 $369 72.494888149662771 $278 $403 forward 7 unknown #
point $-1 59.028316974363122 35.291450509064937 -10.362764094148634 #
point $-1 59.028316974363122 35.291450509064937 -6.0258174976125503 #
point $-1 59.028316974363122 -35.291450509064937 -6.0258174976125503 #
coedge $-1 $355 $354 $286 $366 forward $176 $-1 #
edge $-1 $369 -35.291450509064937 $367 35.291450509064937 $286 $404 forward 7 unknown #
vertex $-1 $287 $405 #
straight-curve $-1 72.494888149662771 -35.291450509064937 0 0 0 -1 I I #
vertex $-1 $366 $406 #
straight-curve $-1 72.494888149662771 35.291450509064937 0 0 0 -1 I I #
coedge $-1 $302 $301 $294 $372 forward $291 $-1 #
edge $-1 $373 12.613886993964677 $376 19.436586489148688 $371 $407 forward 7 unknown #
vertex $-1 $372 $408 #
straight-curve $-1 5.5999482824717788 35.291450509064937 76.12790115105463 0 0 1 I I #
edge $-1 $376 -3.6642813968040855 $303 22.192740755355814 $302 $409 forward 7 unknown #
vertex $-1 $375 $410 #
straight-curve $-1 5.5999482824717788 -11.937728198598407 55.238706704606528 0 0.66913059716165679 -0.74314483375859142 I I #
point $-1 5.5999482824717788 35.291450509064937 2.7853884612893012 #
point $-1 31.456970434631678 28.468751013880926 10.362764094148631 #
straight-curve $-1 0 35.291450509064937 10.362764094148634 -1 0 0 I I #
vertex $-1 $309 $411 #
point $-1 11.771352712903749 30.413497049816897 5.2535403972277495 #
vertex $-1 $313 $412 #
point $-1 19.528459358551714 30.413497049816897 5.2535403972277495 #
vertex $-1 $317 $413 #
point $-1 27.28556600419968 30.413497049816897 5.2535403972277495 #
straight-curve $-1 -72.494888149662771 35.291450509064937 0 0 0 -1 I I #
point $-1 -72.494888149662771 -35.291450509064937 -10.362764094148634 #
straight-curve $-1 -72.494888149662771 0 -10.362764094148634 0 1 0 I I #
point $-1 -72.494888149662771 35.291450509064937 -10.362764094148634 #
coedge $-1 $346 $345 $338 $392 reversed $248 $-1 #
edge $-1 $393 -35.291450509064937 $395 35.291450509064937 $391 $414 forward 7 unknown #
vertex $-1 $392 $415 #
straight-curve $-1 0 -35.291450509064937 -10.362764094148634 -1 0 0 I I #
vertex $-1 $341 $416 #
straight-curve $-1 0 35.291450509064937 -10.362764094148634 1 0 0 I I #
point $-1 -59.028316974363115 35.291450509064937 -10.362764094148634 #
straight-curve $-1 -72.494888149662771 35.291450509064937 0 0 0 -1 I I #
straight-curve $-1 -72.494888149662771 -35.291450509064937 0 0 0 -1 I I #
edge $-1 $367 -72.494888149662771 $358 -59.028316974363122 $356 $417 forward 7 unknown #
straight-curve $-1 59.028316974363122 -35.291450509064937 -4.0971453979402961 0 0 -1 I I #
point $-1 59.028316974363122 -35.291450509064937 -10.362764094148634 #
straight-curve $-1 0 35.291450509064937 -10.362764094148634 1 0 0 I I #
straight-curve $-1 72.494888149662771 0 -10.362764094148634 0 -1 0 I I #
point $-1 72.494888149662771 -35.291450509064937 -10.362764094148634 #
point $-1 72.494888149662771 35.291450509064937 -10.362764094148634 #
straight-curve $-1 5.5999482824717788 47.905337503029614 10.362764094148631 0 -1 0 I I #
point $-1 5.5999482824717788 35.291450509064937 10.362764094148634 #
straight-curve $-1 9.2642296792758643 28.468751013880919 10.362764094148638 1 0 0 I I #
point $-1 5.5999482824717788 28.468751013880926 10.362764094148631 #
point $-1 10.771352712903749 29.670352216058305 4.5844098000660933 #
point $-1 18.528459358551714 29.670352216058305 4.5844098000660933 #
point $-1 26.28556600419968 29.670352216058305 4.5844098000660933 #
straight-curve $-1 -72.494888149662771 0 -10.362764094148634 0 1 0 I I #
point $-1 -72.494888149662771 -35.291450509064937 -10.362764094148634 #
point $-1 -72.494888149662771 35.291450509064937 -10.362764094148634 #
straight-curve $-1 0 -35.291450509064937 -10.362764094148634 -1 0 0 I I #
End-of-ACIS-data 