500 0 14 0           
7 Unknown 11 ACIS 5.0 NT 24 Thu Mar 25 21:17:51 1999 
-1 9.9999999999999995e-007 1e-010 
body $-1 $14 $-1 $15 #
body $-1 $16 $-1 $17 #
body $-1 $18 $-1 $19 #
body $-1 $20 $-1 $21 #
body $-1 $22 $-1 $23 #
body $-1 $24 $-1 $25 #
body $-1 $26 $-1 $27 #
body $-1 $28 $-1 $29 #
body $-1 $30 $-1 $31 #
body $-1 $32 $-1 $33 #
body $-1 $34 $-1 $35 #
body $-1 $36 $-1 $37 #
body $-1 $38 $-1 $39 #
body $-1 $40 $-1 $41 #
lump $-1 $-1 $42 $0 #
transform $-1 1 0 0 0 1 0 0 0 1 72.341074861903735 45.242810722068569 21.62395651110532 1 rotate no_reflect no_shear #
lump $-1 $-1 $43 $1 #
transform $-1 1 0 0 0 1 0 0 0 1 72.341074861903735 45.242810722068569 21.62395651110532 1 rotate no_reflect no_shear #
lump $-1 $-1 $44 $2 #
transform $-1 1 0 0 0 1 0 0 0 1 72.341074861903735 45.242810722068569 21.62395651110532 1 rotate no_reflect no_shear #
lump $-1 $-1 $45 $3 #
transform $-1 1 0 0 0 1 0 0 0 1 72.341074861903735 45.242810722068569 21.62395651110532 1 rotate no_reflect no_shear #
lump $-1 $-1 $46 $4 #
transform $-1 1 0 0 0 1 0 0 0 1 72.341074861903735 45.242810722068569 21.62395651110532 1 rotate no_reflect no_shear #
lump $-1 $-1 $47 $5 #
transform $-1 1 0 0 0 1 0 0 0 1 72.341074861903735 45.242810722068569 21.62395651110532 1 rotate no_reflect no_shear #
lump $-1 $-1 $48 $6 #
transform $-1 1 0 0 0 1 0 0 0 1 72.341074861903735 45.242810722068569 21.62395651110532 1 rotate no_reflect no_shear #
lump $-1 $-1 $49 $7 #
transform $-1 1 0 0 0 1 0 0 0 1 72.341074861903735 45.242810722068569 21.62395651110532 1 rotate no_reflect no_shear #
lump $-1 $-1 $50 $8 #
transform $-1 1 0 0 0 1 0 0 0 1 72.341074861903735 45.242810722068569 21.62395651110532 1 rotate no_reflect no_shear #
lump $-1 $-1 $51 $9 #
transform $-1 1 0 0 0 1 0 0 0 1 72.341074861903735 45.242810722068569 21.62395651110532 1 rotate no_reflect no_shear #
lump $-1 $-1 $52 $10 #
transform $-1 1 0 0 0 1 0 0 0 1 72.341074861903735 45.242810722068569 21.62395651110532 1 rotate no_reflect no_shear #
lump $-1 $-1 $53 $11 #
transform $-1 1 0 0 0 1 0 0 0 1 72.341074861903735 45.242810722068569 21.62395651110532 1 rotate no_reflect no_shear #
lump $-1 $-1 $54 $12 #
transform $-1 1 0 0 0 1 0 0 0 1 72.341074861903735 45.242810722068569 21.62395651110532 1 rotate no_reflect no_shear #
lump $-1 $-1 $55 $13 #
transform $-1 1 0 0 0 1 0 0 0 1 72.341074861903735 45.242810722068569 21.62395651110532 1 rotate no_reflect no_shear #
shell $-1 $-1 $-1 $56 $-1 $14 #
shell $-1 $-1 $-1 $57 $-1 $16 #
shell $-1 $-1 $-1 $58 $-1 $18 #
shell $-1 $-1 $-1 $59 $-1 $20 #
shell $-1 $-1 $-1 $60 $-1 $22 #
shell $-1 $-1 $-1 $61 $-1 $24 #
shell $-1 $-1 $-1 $62 $-1 $26 #
shell $-1 $-1 $-1 $63 $-1 $28 #
shell $-1 $-1 $-1 $64 $-1 $30 #
shell $-1 $-1 $-1 $65 $-1 $32 #
shell $-1 $-1 $-1 $66 $-1 $34 #
shell $-1 $-1 $-1 $67 $-1 $36 #
shell $-1 $-1 $-1 $68 $-1 $38 #
shell $-1 $-1 $-1 $69 $-1 $40 #
face $-1 $70 $71 $42 $-1 $72 forward single #
face $-1 $73 $74 $43 $-1 $75 reversed single #
face $-1 $76 $77 $44 $-1 $78 forward single #
face $-1 $79 $80 $45 $-1 $81 reversed single #
face $-1 $82 $83 $46 $-1 $84 forward single #
face $-1 $85 $86 $47 $-1 $87 forward single #
face $-1 $88 $89 $48 $-1 $90 forward single #
face $-1 $91 $92 $49 $-1 $93 reversed single #
face $-1 $94 $95 $50 $-1 $96 forward single #
face $-1 $97 $98 $51 $-1 $99 forward single #
face $-1 $100 $101 $52 $-1 $102 forward single #
face $-1 $103 $104 $53 $-1 $105 reversed single #
face $-1 $106 $107 $54 $-1 $108 forward single #
face $-1 $109 $110 $55 $-1 $111 forward single #
face $-1 $112 $113 $42 $-1 $114 reversed single #
loop $-1 $-1 $115 $56 #
plane-surface $-1 0 0 21.62395651110532 0 0 1 1 0 0 forward_v I I I I #
face $-1 $116 $117 $43 $-1 $118 reversed single #
loop $-1 $-1 $119 $57 #
plane-surface $-1 -59.159456248592164 0 9.7397884870784992 0 0 1 1 0 0 forward_v I I I I #
face $-1 $120 $121 $44 $-1 $122 reversed single #
loop $-1 $-1 $123 $58 #
plane-surface $-1 72.341074861903735 0 0 -1 0 0 0 0 1 forward_v I I I I #
face $-1 $124 $125 $45 $-1 $126 reversed single #
loop $-1 $-1 $127 $59 #
plane-surface $-1 -29.922227591069539 -160.79111435133754 102.73461041892354 -1 0 0 0 -0.79863551827123203 0.60181501223851219 forward_v I I I I #
face $-1 $128 $129 $46 $-1 $130 forward single #
loop $-1 $131 $132 $60 #
cone-surface $-1 -38.770609181904042 -42.495568691089716 18.265668330677148 0 0.79863551827123203 -0.60181501223851219 0.5 0 0 1 I I 0 1 0.5 forward I I I I #
face $-1 $133 $134 $47 $-1 $135 forward single #
loop $-1 $136 $137 $61 #
cone-surface $-1 -35.452466085341108 -42.495568691089716 18.265668330677148 0 0.79863551827123203 -0.60181501223851219 0.5 0 0 1 I I 0 1 0.5 forward I I I I #
face $-1 $138 $139 $48 $-1 $140 forward single #
loop $-1 $141 $142 $62 #
cone-surface $-1 -32.134322988778173 -42.495568691089716 18.265668330677148 0 0.79863551827123203 -0.60181501223851219 0.5 0 0 1 I I 0 1 0.5 forward I I I I #
face $-1 $143 $144 $49 $-1 $145 reversed single #
loop $-1 $-1 $146 $63 #
plane-surface $-1 20.213847980415313 -160.79111435133754 102.73461041892354 -1 0 0 0 -0.79863551827123203 0.60181501223851219 forward_v I I I I #
face $-1 $147 $148 $50 $-1 $149 forward single #
loop $-1 $150 $151 $64 #
cone-surface $-1 11.365466389580803 -42.495568691089716 18.265668330677148 0 0.79863551827123203 -0.60181501223851219 0.5 0 0 1 I I 0 1 0.5 forward I I I I #
face $-1 $152 $153 $51 $-1 $154 forward single #
loop $-1 $155 $156 $65 #
cone-surface $-1 14.683609486143737 -42.495568691089716 18.265668330677148 0 0.79863551827123203 -0.60181501223851219 0.5 0 0 1 I I 0 1 0.5 forward I I I I #
face $-1 $157 $158 $52 $-1 $159 forward single #
loop $-1 $160 $161 $66 #
cone-surface $-1 18.001752582706672 -42.495568691089716 18.265668330677148 0 0.79863551827123203 -0.60181501223851219 0.5 0 0 1 I I 0 1 0.5 forward I I I I #
face $-1 $162 $163 $53 $-1 $164 reversed single #
loop $-1 $-1 $165 $67 #
plane-surface $-1 -39.093250336049778 -27.96159427914084 62.842812440437399 0 0.5877852598018023 0.80901698891910034 1 0 0 forward_v I I I I #
face $-1 $166 $167 $54 $-1 $168 forward single #
loop $-1 $169 $170 $68 #
cone-surface $-1 -42.043787750005841 36.045028039719078 14.316215260911799 0 -0.5877852598018023 -0.80901698891910034 1.5 0 0 1 I I 0 1 1.5 forward I I I I #
face $-1 $171 $172 $55 $-1 $173 forward single #
loop $-1 $174 $175 $69 #
cone-surface $-1 -36.142712922093715 36.045028039719078 14.316215260911799 0 -0.5877852598018023 -0.80901698891910034 1.5 0 0 1 I I 0 1 1.5 forward I I I I #
face $-1 $176 $177 $42 $-1 $178 reversed single #
loop $-1 $-1 $179 $70 #
plane-surface $-1 0 0 -21.62395651110532 0 0 1 1 0 0 forward_v I I I I #
coedge $-1 $180 $181 $182 $183 forward $71 $-1 #
face $-1 $184 $185 $43 $-1 $186 reversed single #
loop $-1 $-1 $187 $73 #
plane-surface $-1 -45.977837635280594 0 15.681872499091909 -1 0 0 0 0 1 forward_v I I I I #
coedge $-1 $188 $189 $190 $191 forward $74 $-1 #
face $-1 $192 $193 $44 $-1 $194 forward single #
loop $-1 $-1 $195 $76 #
plane-surface $-1 0 -45.242810722068569 0 0 1 0 0 0 1 forward_v I I I I #
coedge $-1 $196 $197 $198 $199 forward $77 $-1 #
face $-1 $200 $201 $45 $-1 $202 reversed single #
loop $-1 $-1 $203 $79 #
plane-surface $-1 -35.452466085341101 -45.242810722068569 15.662720712196091 0 -0.79863551827123203 0.60181501223851219 1 0 0 forward_v I I I I #
coedge $-1 $204 $205 $206 $207 reversed $80 $-1 #
face $-1 $-1 $208 $46 $-1 $209 forward single #
loop $-1 $210 $211 $82 #
cone-surface $-1 -38.770609181904042 -41.794724406626386 17.737544296643961 0 0.79863551827123203 -0.60181501223851219 0.25 0 0 1 I I -0.70710678118654746 0.70710678118654746 0.25 forward I I I I #
loop $-1 $-1 $212 $60 #
coedge $-1 $132 $132 $213 $214 reversed $83 $-1 #
face $-1 $-1 $215 $47 $-1 $216 forward single #
loop $-1 $217 $218 $85 #
cone-surface $-1 -35.452466085341108 -41.794724406626386 17.737544296643961 0 0.79863551827123203 -0.60181501223851219 0.25 0 0 1 I I -0.70710678118654746 0.70710678118654746 0.25 forward I I I I #
loop $-1 $-1 $219 $61 #
coedge $-1 $137 $137 $220 $221 reversed $86 $-1 #
face $-1 $-1 $222 $48 $-1 $223 forward single #
loop $-1 $224 $225 $88 #
cone-surface $-1 -32.134322988778173 -41.794724406626386 17.737544296643961 0 0.79863551827123203 -0.60181501223851219 0.25 0 0 1 I I -0.70710678118654746 0.70710678118654746 0.25 forward I I I I #
loop $-1 $-1 $226 $62 #
coedge $-1 $142 $142 $227 $228 reversed $89 $-1 #
face $-1 $229 $230 $49 $-1 $231 reversed single #
loop $-1 $-1 $232 $91 #
plane-surface $-1 14.683609486143752 -45.242810722068569 15.662720712196091 0 -0.79863551827123203 0.60181501223851219 1 0 0 forward_v I I I I #
coedge $-1 $233 $234 $235 $236 reversed $92 $-1 #
face $-1 $-1 $237 $50 $-1 $238 forward single #
loop $-1 $239 $240 $94 #
cone-surface $-1 11.365466389580803 -41.794724406626386 17.737544296643961 0 0.79863551827123203 -0.60181501223851219 0.25 0 0 1 I I -0.70710678118654746 0.70710678118654746 0.25 forward I I I I #
loop $-1 $-1 $241 $64 #
coedge $-1 $151 $151 $242 $243 reversed $95 $-1 #
face $-1 $-1 $244 $51 $-1 $245 forward single #
loop $-1 $246 $247 $97 #
cone-surface $-1 14.683609486143737 -41.794724406626386 17.737544296643961 0 0.79863551827123203 -0.60181501223851219 0.25 0 0 1 I I -0.70710678118654746 0.70710678118654746 0.25 forward I I I I #
loop $-1 $-1 $248 $65 #
coedge $-1 $156 $156 $249 $250 reversed $98 $-1 #
face $-1 $-1 $251 $52 $-1 $252 forward single #
loop $-1 $253 $254 $100 #
cone-surface $-1 18.001752582706672 -41.794724406626386 17.737544296643961 0 0.79863551827123203 -0.60181501223851219 0.25 0 0 1 I I -0.70710678118654746 0.70710678118654746 0.25 forward I I I I #
loop $-1 $-1 $255 $66 #
coedge $-1 $161 $161 $256 $257 reversed $101 $-1 #
face $-1 $258 $259 $53 $-1 $260 forward single #
loop $-1 $-1 $261 $103 #
plane-surface $-1 -32.208663036818962 57.080440684950588 179.89312956033456 -1 0 0 0 0.5877852598018023 0.80901698891910034 forward_v I I I I #
coedge $-1 $262 $263 $264 $265 reversed $104 $-1 #
face $-1 $-1 $266 $54 $-1 $267 forward single #
loop $-1 $268 $269 $106 #
cone-surface $-1 -42.043787750005841 34.642165425000456 12.385340558797751 0 -0.5877852598018023 -0.80901698891910034 0.75 0 0 1 I I -0.70710678118654757 0.70710678118654757 0.75 forward I I I I #
loop $-1 $-1 $270 $68 #
coedge $-1 $170 $170 $271 $272 reversed $107 $-1 #
face $-1 $-1 $273 $55 $-1 $274 forward single #
loop $-1 $275 $276 $109 #
cone-surface $-1 -36.142712922093715 34.642165425000456 12.385340558797751 0 -0.5877852598018023 -0.80901698891910034 0.75 0 0 1 I I -0.70710678118654757 0.70710678118654757 0.75 forward I I I I #
loop $-1 $-1 $277 $69 #
coedge $-1 $175 $175 $278 $279 reversed $110 $-1 #
face $-1 $280 $281 $42 $-1 $282 reversed single #
loop $-1 $-1 $283 $112 #
plane-surface $-1 0 -45.242810722068569 0 0 1 0 0 0 1 forward_v I I I I #
coedge $-1 $284 $285 $286 $287 forward $113 $-1 #
coedge $-1 $288 $115 $289 $290 forward $71 $-1 #
coedge $-1 $115 $288 $291 $292 forward $71 $-1 #
coedge $-1 $293 $294 $115 $183 reversed $295 $-1 #
edge $-1 $296 -45.242810722068569 $297 45.242810722068569 $182 $298 forward 7 unknown #
face $-1 $299 $300 $43 $-1 $301 reversed single #
loop $-1 $-1 $302 $116 #
plane-surface $-1 0 45.242810722068569 0 0 -1 0 0 0 -1 forward_v I I I I #
coedge $-1 $190 $303 $304 $305 reversed $117 $-1 #
coedge $-1 $306 $119 $307 $308 reversed $74 $-1 #
coedge $-1 $119 $306 $309 $310 reversed $74 $-1 #
coedge $-1 $311 $187 $119 $191 reversed $117 $-1 #
edge $-1 $312 -45.242810722068569 $313 45.242810722068569 $190 $314 forward 7 unknown #
face $-1 $315 $316 $44 $-1 $317 reversed single #
loop $-1 $-1 $318 $120 #
plane-surface $-1 81.364455539011061 0 6.4547469005875318 0 0 1 1 0 0 forward_v I I I I #
coedge $-1 $319 $320 $197 $321 forward $121 $-1 #
coedge $-1 $322 $123 $323 $324 reversed $77 $-1 #
coedge $-1 $123 $322 $195 $321 reversed $77 $-1 #
coedge $-1 $325 $326 $123 $199 reversed $193 $-1 #
edge $-1 $327 -45.242810722068569 $328 45.242810722068569 $198 $329 forward 7 unknown #
face $-1 $330 $331 $45 $-1 $332 forward single #
loop $-1 $-1 $333 $124 #
plane-surface $-1 -40.982704579612658 -160.79111435133754 102.73461041892354 1 0 0 0 0.79863551827123203 -0.60181501223851219 forward_v I I I I #
coedge $-1 $334 $335 $336 $337 reversed $125 $-1 #
coedge $-1 $205 $127 $338 $339 reversed $80 $-1 #
coedge $-1 $127 $204 $334 $340 reversed $80 $-1 #
coedge $-1 $336 $341 $127 $207 forward $331 $-1 #
edge $-1 $342 35.152746453600201 $343 39.644859705766891 $206 $344 forward 7 unknown #
loop $-1 $-1 $213 $128 #
plane-surface $-1 -35.452466085341101 -45.242810722068569 15.662720712196091 0 -0.79863551827123203 0.60181501223851219 1 0 0 forward_v I I I I #
loop $-1 $-1 $345 $82 #
coedge $-1 $211 $211 $212 $346 reversed $129 $-1 #
coedge $-1 $212 $212 $211 $346 forward $131 $-1 #
coedge $-1 $213 $213 $132 $214 forward $208 $-1 #
edge $-1 $347 5.674646660276266e-015 $347 6.2831853071796058 $213 $348 forward 7 unknown #
loop $-1 $-1 $220 $133 #
plane-surface $-1 -35.452466085341101 -45.242810722068569 15.662720712196091 0 -0.79863551827123203 0.60181501223851219 1 0 0 forward_v I I I I #
loop $-1 $-1 $349 $85 #
coedge $-1 $218 $218 $219 $350 reversed $134 $-1 #
coedge $-1 $219 $219 $218 $350 forward $136 $-1 #
coedge $-1 $220 $220 $137 $221 forward $215 $-1 #
edge $-1 $351 5.674646660276266e-015 $351 6.2831853071796058 $220 $352 forward 7 unknown #
loop $-1 $-1 $227 $138 #
plane-surface $-1 -35.452466085341101 -45.242810722068569 15.662720712196091 0 -0.79863551827123203 0.60181501223851219 1 0 0 forward_v I I I I #
loop $-1 $-1 $353 $88 #
coedge $-1 $225 $225 $226 $354 reversed $139 $-1 #
coedge $-1 $226 $226 $225 $354 forward $141 $-1 #
coedge $-1 $227 $227 $142 $228 forward $222 $-1 #
edge $-1 $355 5.674646660276266e-015 $355 6.2831853071796058 $227 $356 forward 7 unknown #
face $-1 $357 $358 $49 $-1 $359 reversed single #
loop $-1 $-1 $360 $143 #
plane-surface $-1 9.1533709918721904 -160.79111435133754 102.73461041892354 1 0 0 0 0.79863551827123203 -0.60181501223851219 forward_v I I I I #
coedge $-1 $361 $362 $363 $364 reversed $144 $-1 #
coedge $-1 $234 $146 $365 $366 reversed $92 $-1 #
coedge $-1 $146 $233 $361 $367 reversed $92 $-1 #
coedge $-1 $363 $368 $146 $236 forward $369 $-1 #
edge $-1 $370 35.152746453600201 $371 39.644859705766891 $235 $372 forward 7 unknown #
loop $-1 $-1 $242 $147 #
plane-surface $-1 14.683609486143752 -45.242810722068569 15.662720712196091 0 -0.79863551827123203 0.60181501223851219 1 0 0 forward_v I I I I #
loop $-1 $-1 $373 $94 #
coedge $-1 $240 $240 $241 $374 reversed $148 $-1 #
coedge $-1 $241 $241 $240 $374 forward $150 $-1 #
coedge $-1 $242 $242 $151 $243 forward $237 $-1 #
edge $-1 $375 5.674646660276266e-015 $375 6.2831853071796058 $242 $376 forward 7 unknown #
loop $-1 $-1 $249 $152 #
plane-surface $-1 14.683609486143752 -45.242810722068569 15.662720712196091 0 -0.79863551827123203 0.60181501223851219 1 0 0 forward_v I I I I #
loop $-1 $-1 $377 $97 #
coedge $-1 $247 $247 $248 $378 reversed $153 $-1 #
coedge $-1 $248 $248 $247 $378 forward $155 $-1 #
coedge $-1 $249 $249 $156 $250 forward $244 $-1 #
edge $-1 $379 5.674646660276266e-015 $379 6.2831853071796058 $249 $380 forward 7 unknown #
loop $-1 $-1 $256 $157 #
plane-surface $-1 14.683609486143752 -45.242810722068569 15.662720712196091 0 -0.79863551827123203 0.60181501223851219 1 0 0 forward_v I I I I #
loop $-1 $-1 $381 $100 #
coedge $-1 $254 $254 $255 $382 reversed $158 $-1 #
coedge $-1 $255 $255 $254 $382 forward $160 $-1 #
coedge $-1 $256 $256 $161 $257 forward $251 $-1 #
edge $-1 $383 5.674646660276266e-015 $383 6.2831853071796058 $256 $384 forward 7 unknown #
face $-1 $385 $386 $53 $-1 $387 reversed single #
loop $-1 $-1 $264 $162 #
plane-surface $-1 0 0 21.62395651110532 0 0 1 1 0 0 forward_v I I I I #
coedge $-1 $388 $389 $390 $391 reversed $163 $-1 #
coedge $-1 $392 $165 $393 $394 reversed $104 $-1 #
coedge $-1 $165 $392 $388 $395 forward $104 $-1 #
coedge $-1 $390 $396 $165 $265 forward $259 $-1 #
edge $-1 $397 -26.431212467255705 $398 -12.662037868794073 $264 $399 forward 7 unknown #
loop $-1 $-1 $271 $166 #
plane-surface $-1 -39.093250336049778 -27.96159427914084 62.842812440437399 0 0.5877852598018023 0.80901698891910034 1 0 0 forward_v I I I I #
loop $-1 $-1 $400 $106 #
coedge $-1 $269 $269 $270 $401 reversed $167 $-1 #
coedge $-1 $270 $270 $269 $401 forward $169 $-1 #
coedge $-1 $271 $271 $170 $272 forward $266 $-1 #
edge $-1 $402 3.4419116817049722e-016 $402 6.2831853071796004 $271 $403 forward 7 unknown #
loop $-1 $-1 $278 $171 #
plane-surface $-1 -39.093250336049778 -27.96159427914084 62.842812440437399 0 0.5877852598018023 0.80901698891910034 1 0 0 forward_v I I I I #
loop $-1 $-1 $404 $109 #
coedge $-1 $276 $276 $277 $405 reversed $172 $-1 #
coedge $-1 $277 $277 $276 $405 forward $174 $-1 #
coedge $-1 $278 $278 $175 $279 forward $273 $-1 #
edge $-1 $406 3.4419116817049722e-016 $406 6.2831853071796004 $278 $407 forward 7 unknown #
face $-1 $408 $409 $42 $-1 $410 reversed single #
loop $-1 $-1 $411 $176 #
plane-surface $-1 -72.341074861903735 0 0 1 0 0 0 0 -1 forward_v I I I I #
coedge $-1 $412 $291 $413 $414 forward $177 $-1 #
coedge $-1 $415 $179 $412 $416 forward $113 $-1 #
coedge $-1 $179 $415 $417 $418 forward $113 $-1 #
coedge $-1 $294 $293 $179 $287 reversed $295 $-1 #
edge $-1 $419 -45.242810722068569 $420 45.242810722068569 $286 $421 forward 7 unknown #
coedge $-1 $181 $180 $422 $423 forward $71 $-1 #
coedge $-1 $424 $425 $180 $290 reversed $409 $-1 #
edge $-1 $297 -72.341074861903735 $426 72.341074861903735 $289 $427 forward 7 unknown #
coedge $-1 $283 $428 $181 $292 reversed $177 $-1 #
edge $-1 $429 -72.341074861903735 $296 72.341074861903735 $291 $430 forward 7 unknown #
coedge $-1 $286 $182 $428 $431 forward $295 $-1 #
coedge $-1 $182 $286 $424 $432 reversed $295 $-1 #
loop $-1 $-1 $293 $408 #
vertex $-1 $183 $433 #
vertex $-1 $183 $434 #
straight-curve $-1 72.341074861903735 0 21.62395651110532 0 1 0 I I #
face $-1 $435 $436 $43 $-1 $437 forward single #
loop $-1 $-1 $438 $184 #
plane-surface $-1 -72.341074861903735 0 0 1 0 0 0 0 -1 forward_v I I I I #
coedge $-1 $309 $439 $311 $440 forward $185 $-1 #
coedge $-1 $187 $311 $441 $442 reversed $117 $-1 #
coedge $-1 $443 $307 $187 $305 forward $444 $-1 #
edge $-1 $313 1.8988522375325445 $445 13.783020261559365 $304 $446 forward 7 unknown #
coedge $-1 $189 $188 $438 $447 reversed $74 $-1 #
coedge $-1 $304 $448 $188 $308 forward $444 $-1 #
edge $-1 $449 -42.761346737607653 $313 -16.398109510984511 $307 $450 forward 7 unknown #
coedge $-1 $451 $302 $189 $310 forward $185 $-1 #
edge $-1 $312 16.398109510984511 $452 42.761346737607653 $309 $453 forward 7 unknown #
coedge $-1 $303 $190 $302 $440 reversed $117 $-1 #
vertex $-1 $310 $454 #
vertex $-1 $308 $455 #
straight-curve $-1 -45.977837635280594 0 9.7397884870784992 0 -1 0 I I #
face $-1 $456 $457 $44 $-1 $458 reversed single #
loop $-1 $-1 $459 $192 #
plane-surface $-1 81.364455539011061 0 -1.9906530766828698 0 0 1 1 0 0 forward_v I I I I #
coedge $-1 $326 $325 $460 $461 forward $193 $-1 #
coedge $-1 $462 $195 $463 $464 reversed $121 $-1 #
coedge $-1 $195 $462 $325 $465 reversed $121 $-1 #
edge $-1 $327 -6.4547469005875318 $466 1.9906530766828698 $195 $467 forward 7 unknown #
coedge $-1 $197 $196 $468 $469 forward $77 $-1 #
coedge $-1 $470 $471 $196 $324 forward $472 $-1 #
edge $-1 $473 -1.9906530766828698 $328 6.4547469005875318 $323 $474 forward 7 unknown #
coedge $-1 $318 $198 $320 $465 forward $193 $-1 #
coedge $-1 $198 $318 $470 $475 forward $193 $-1 #
vertex $-1 $321 $476 #
vertex $-1 $475 $477 #
straight-curve $-1 72.341074861903735 0 6.4547469005875318 0 1 0 I I #
face $-1 $-1 $478 $45 $-1 $479 reversed single #
loop $-1 $-1 $206 $200 #
plane-surface $-1 0 0 21.62395651110532 0 0 1 1 0 0 forward_v I I I I #
coedge $-1 $480 $481 $482 $483 reversed $201 $-1 #
coedge $-1 $484 $203 $205 $340 forward $125 $-1 #
coedge $-1 $203 $484 $480 $485 forward $125 $-1 #
coedge $-1 $482 $206 $203 $337 forward $331 $-1 #
edge $-1 $343 12.195994548398989 $486 23.256471536942108 $336 $487 forward 7 unknown #
coedge $-1 $488 $489 $204 $339 forward $478 $-1 #
edge $-1 $490 -35.704584497265678 $342 -29.743348698356449 $338 $491 forward 7 unknown #
edge $-1 $343 -7.4642758336283723 $490 0 $205 $492 forward 7 unknown #
coedge $-1 $206 $482 $488 $493 forward $331 $-1 #
vertex $-1 $207 $494 #
vertex $-1 $207 $495 #
straight-curve $-1 -29.922227591069539 -80.39555717566877 21.62395651110532 0 1 0 I I #
coedge $-1 $345 $345 $-1 $496 reversed $210 $-1 #
edge $-1 $497 0 $497 6.2831853071796004 $211 $498 forward 7 unknown #
vertex $-1 $214 $499 #
ellipse-curve $-1 -38.770609181904042 -42.996754095985224 18.643338611650702 0 -0.79863551827123203 0.60181501223851219 0.5 0 0 1 I I #
coedge $-1 $349 $349 $-1 $500 reversed $217 $-1 #
edge $-1 $501 0 $501 6.2831853071796004 $218 $502 forward 7 unknown #
vertex $-1 $221 $503 #
ellipse-curve $-1 -35.452466085341108 -42.996754095985224 18.643338611650702 0 -0.79863551827123203 0.60181501223851219 0.5 0 0 1 I I #
coedge $-1 $353 $353 $-1 $504 reversed $224 $-1 #
edge $-1 $505 0 $505 6.2831853071796004 $225 $506 forward 7 unknown #
vertex $-1 $228 $507 #
ellipse-curve $-1 -32.134322988778173 -42.996754095985224 18.643338611650702 0 -0.79863551827123203 0.60181501223851219 0.5 0 0 1 I I #
face $-1 $-1 $369 $49 $-1 $508 forward single #
loop $-1 $-1 $509 $229 #
plane-surface $-1 0 -45.242810722068569 0 0 1 0 0 0 1 forward_v I I I I #
coedge $-1 $510 $511 $512 $513 reversed $230 $-1 #
coedge $-1 $514 $232 $234 $367 forward $144 $-1 #
coedge $-1 $232 $514 $510 $515 forward $144 $-1 #
coedge $-1 $512 $235 $232 $364 forward $369 $-1 #
edge $-1 $371 -12.872043237343437 $516 -1.8115662488003146 $363 $517 forward 7 unknown #
coedge $-1 $518 $519 $233 $366 forward $358 $-1 #
edge $-1 $520 -35.704584497265678 $370 -29.743348698356449 $365 $521 forward 7 unknown #
edge $-1 $371 -7.4642758336283723 $520 0 $234 $522 forward 7 unknown #
coedge $-1 $235 $512 $518 $523 forward $369 $-1 #
loop $-1 $-1 $512 $357 #
vertex $-1 $366 $524 #
vertex $-1 $236 $525 #
straight-curve $-1 20.213847980415313 -80.39555717566877 21.62395651110532 0 1 0 I I #
coedge $-1 $373 $373 $-1 $526 reversed $239 $-1 #
edge $-1 $527 0 $527 6.2831853071796004 $240 $528 forward 7 unknown #
vertex $-1 $243 $529 #
ellipse-curve $-1 11.365466389580803 -42.996754095985224 18.643338611650702 0 -0.79863551827123203 0.60181501223851219 0.5 0 0 1 I I #
coedge $-1 $377 $377 $-1 $530 reversed $246 $-1 #
edge $-1 $531 0 $531 6.2831853071796004 $247 $532 forward 7 unknown #
vertex $-1 $250 $533 #
ellipse-curve $-1 14.683609486143737 -42.996754095985224 18.643338611650702 0 -0.79863551827123203 0.60181501223851219 0.5 0 0 1 I I #
coedge $-1 $381 $381 $-1 $534 reversed $253 $-1 #
edge $-1 $535 0 $535 6.2831853071796004 $254 $536 forward 7 unknown #
vertex $-1 $257 $537 #
ellipse-curve $-1 18.001752582706672 -42.996754095985224 18.643338611650702 0 -0.79863551827123203 0.60181501223851219 0.5 0 0 1 I I #
face $-1 $-1 $538 $53 $-1 $539 forward single #
loop $-1 $-1 $540 $258 #
plane-surface $-1 0 45.242810722068569 0 0 -1 0 0 0 -1 forward_v I I I I #
coedge $-1 $389 $261 $263 $395 reversed $163 $-1 #
coedge $-1 $261 $388 $540 $541 reversed $163 $-1 #
coedge $-1 $542 $264 $261 $391 forward $259 $-1 #
edge $-1 $398 0.23107235462885711 $543 16.702590379593275 $390 $544 forward 7 unknown #
coedge $-1 $263 $262 $545 $546 reversed $104 $-1 #
coedge $-1 $547 $548 $262 $394 forward $538 $-1 #
edge $-1 $549 -65.314666371632626 $397 -44.954750262860372 $393 $550 forward 7 unknown #
edge $-1 $551 -90.485621444137138 $398 -70.125705335364884 $388 $552 forward 7 unknown #
coedge $-1 $264 $542 $547 $553 forward $259 $-1 #
vertex $-1 $394 $554 #
vertex $-1 $265 $555 #
straight-curve $-1 -19.546625168024889 28.771292697104137 21.623956511105323 1 0 0 I I #
coedge $-1 $400 $400 $-1 $556 reversed $268 $-1 #
edge $-1 $557 0 $557 6.2831853071796004 $269 $558 forward 7 unknown #
vertex $-1 $272 $559 #
ellipse-curve $-1 -42.043787750005841 37.007051709586349 15.640327221336531 0 0.5877852598018023 0.80901698891910034 1.5 0 0 1 I I #
coedge $-1 $404 $404 $-1 $560 reversed $275 $-1 #
edge $-1 $561 0 $561 6.2831853071796004 $276 $562 forward 7 unknown #
vertex $-1 $279 $563 #
ellipse-curve $-1 -36.142712922093715 37.007051709586349 15.640327221336531 0 0.5877852598018023 0.80901698891910034 1.5 0 0 1 I I #
face $-1 $-1 $295 $42 $-1 $564 reversed single #
loop $-1 $-1 $424 $280 #
plane-surface $-1 0 45.242810722068569 0 0 -1 0 0 0 -1 forward_v I I I I #
coedge $-1 $565 $422 $425 $566 forward $281 $-1 #
coedge $-1 $428 $283 $284 $416 reversed $177 $-1 #
coedge $-1 $422 $565 $283 $414 reversed $281 $-1 #
edge $-1 $429 -21.62395651110532 $567 21.62395651110532 $413 $568 forward 7 unknown #
coedge $-1 $285 $284 $565 $569 forward $113 $-1 #
edge $-1 $420 -72.341074861903735 $567 72.341074861903735 $412 $570 forward 7 unknown #
coedge $-1 $425 $424 $285 $418 reversed $409 $-1 #
edge $-1 $571 -72.341074861903735 $419 72.341074861903735 $417 $572 forward 7 unknown #
vertex $-1 $287 $573 #
vertex $-1 $431 $574 #
straight-curve $-1 72.341074861903735 0 -21.62395651110532 0 -1 0 I I #
coedge $-1 $411 $413 $288 $423 reversed $281 $-1 #
edge $-1 $426 -45.242810722068569 $429 45.242810722068569 $422 $575 forward 7 unknown #
coedge $-1 $417 $289 $294 $432 forward $409 $-1 #
coedge $-1 $289 $417 $411 $566 reversed $409 $-1 #
vertex $-1 $290 $576 #
straight-curve $-1 0 45.242810722068569 21.62395651110532 -1 0 0 I I #
coedge $-1 $291 $412 $293 $431 reversed $177 $-1 #
vertex $-1 $423 $577 #
straight-curve $-1 0 -45.242810722068569 21.62395651110532 1 0 0 I I #
edge $-1 $296 -21.62395651110532 $420 21.62395651110532 $293 $578 forward 7 unknown #
edge $-1 $297 -21.62395651110532 $419 21.62395651110532 $294 $579 forward 7 unknown #
point $-1 72.341074861903735 -45.242810722068569 21.62395651110532 #
point $-1 72.341074861903735 45.242810722068569 21.62395651110532 #
face $-1 $-1 $444 $43 $-1 $580 reversed single #
loop $-1 $-1 $441 $299 #
plane-surface $-1 0 0 21.62395651110532 0 0 1 1 0 0 forward_v I I I I #
coedge $-1 $581 $582 $306 $447 forward $300 $-1 #
coedge $-1 $302 $451 $583 $584 reversed $185 $-1 #
edge $-1 $585 -13.783020261559365 $312 -1.8988522375325445 $302 $586 forward 7 unknown #
coedge $-1 $583 $587 $303 $442 forward $436 $-1 #
edge $-1 $445 -45.242810722068569 $585 45.242810722068569 $441 $588 forward 7 unknown #
coedge $-1 $448 $304 $587 $589 reversed $444 $-1 #
loop $-1 $-1 $304 $435 #
vertex $-1 $305 $590 #
straight-curve $-1 -45.977837635280594 -45.242810722068569 7.8409362495459547 0 0 1 I I #
edge $-1 $452 -45.242810722068569 $449 45.242810722068569 $438 $591 forward 7 unknown #
coedge $-1 $307 $443 $581 $592 forward $444 $-1 #
vertex $-1 $447 $593 #
straight-curve $-1 -29.579728124296082 -45.242810722068569 9.7397884870784992 1 0 0 I I #
coedge $-1 $439 $309 $582 $594 reversed $185 $-1 #
vertex $-1 $447 $595 #
straight-curve $-1 -29.579728124296082 45.242810722068569 9.7397884870784992 -1 0 0 I I #
point $-1 -45.977837635280594 45.242810722068569 9.7397884870784992 #
point $-1 -45.977837635280594 -45.242810722068569 9.7397884870784992 #
face $-1 $-1 $472 $44 $-1 $596 reversed single #
loop $-1 $-1 $597 $315 #
plane-surface $-1 90.387836216118387 0 2.232046911952331 -1 0 0 0 0 1 forward_v I I I I #
coedge $-1 $463 $598 $599 $600 forward $316 $-1 #
coedge $-1 $597 $601 $318 $461 reversed $457 $-1 #
edge $-1 $602 -45.242810722068569 $603 45.242810722068569 $460 $604 forward 7 unknown #
coedge $-1 $320 $319 $597 $605 reversed $121 $-1 #
coedge $-1 $468 $459 $319 $464 forward $316 $-1 #
edge $-1 $606 -9.0233806771073262 $466 9.0233806771073262 $319 $607 forward 7 unknown #
edge $-1 $327 -9.0233806771073262 $602 9.0233806771073262 $320 $608 forward 7 unknown #
vertex $-1 $321 $609 #
straight-curve $-1 72.341074861903735 -45.242810722068569 0 0 0 -1 I I #
coedge $-1 $598 $463 $322 $469 reversed $316 $-1 #
edge $-1 $473 -45.242810722068569 $466 45.242810722068569 $468 $610 forward 7 unknown #
coedge $-1 $611 $323 $326 $475 reversed $472 $-1 #
coedge $-1 $323 $611 $598 $612 reversed $472 $-1 #
loop $-1 $-1 $323 $456 #
vertex $-1 $324 $613 #
straight-curve $-1 72.341074861903735 45.242810722068569 0 0 0 1 I I #
edge $-1 $603 -9.0233806771073262 $328 9.0233806771073262 $470 $614 forward 7 unknown #
point $-1 72.341074861903735 -45.242810722068569 6.4547469005875318 #
point $-1 72.341074861903735 45.242810722068569 6.4547469005875318 #
loop $-1 $-1 $338 $330 #
plane-surface $-1 0 -45.242810722068569 0 0 1 0 0 0 1 forward_v I I I I #
coedge $-1 $481 $333 $335 $485 reversed $201 $-1 #
coedge $-1 $333 $480 $615 $616 reversed $201 $-1 #
coedge $-1 $341 $336 $333 $483 forward $331 $-1 #
edge $-1 $486 -39.644859705766891 $617 -35.152746453600201 $482 $618 forward 7 unknown #
coedge $-1 $335 $334 $489 $619 reversed $125 $-1 #
edge $-1 $620 0 $486 7.4642758336283723 $480 $621 forward 7 unknown #
vertex $-1 $337 $622 #
straight-curve $-1 -17.72623304267055 -40.75069746990188 21.62395651110532 -1 0 0 I I #
coedge $-1 $615 $338 $341 $493 reversed $478 $-1 #
coedge $-1 $338 $615 $484 $619 forward $478 $-1 #
vertex $-1 $339 $623 #
straight-curve $-1 -29.922227591069539 -45.242810722068569 51.367305209461769 0 0 1 I I #
straight-curve $-1 -29.922227591069539 -45.242810722068569 15.662720712196091 0 -0.60181501223851219 -0.79863551827123203 I I #
edge $-1 $617 -40.982704579612658 $342 -29.922227591069539 $488 $624 forward 7 unknown #
point $-1 -29.922227591069539 -45.242810722068569 21.62395651110532 #
point $-1 -29.922227591069539 -40.75069746990188 21.62395651110532 #
edge $-1 $625 1 $625 0 $345 $-1 forward 7 unknown #
vertex $-1 $346 $626 #
ellipse-curve $-1 -38.770609181904042 -41.994383286194193 17.88799804970359 0 -0.79863551827123203 0.60181501223851219 0.5 0 0 1 I I #
point $-1 -38.270609181904042 -42.996754095985224 18.643338611650705 #
edge $-1 $627 1 $627 0 $349 $-1 forward 7 unknown #
vertex $-1 $350 $628 #
ellipse-curve $-1 -35.452466085341108 -41.994383286194193 17.88799804970359 0 -0.79863551827123203 0.60181501223851219 0.5 0 0 1 I I #
point $-1 -34.952466085341108 -42.996754095985224 18.643338611650705 #
edge $-1 $629 1 $629 0 $353 $-1 forward 7 unknown #
vertex $-1 $354 $630 #
ellipse-curve $-1 -32.134322988778173 -41.994383286194193 17.88799804970359 0 -0.79863551827123203 0.60181501223851219 0.5 0 0 1 I I #
point $-1 -31.634322988778173 -42.996754095985224 18.643338611650705 #
plane-surface $-1 0 0 21.62395651110532 0 0 1 1 0 0 forward_v I I I I #
coedge $-1 $519 $518 $511 $631 forward $358 $-1 #
coedge $-1 $511 $360 $362 $515 reversed $230 $-1 #
coedge $-1 $360 $510 $509 $631 reversed $230 $-1 #
coedge $-1 $368 $363 $360 $513 forward $369 $-1 #
edge $-1 $516 -39.644859705766891 $632 -35.152746453600201 $512 $633 forward 7 unknown #
coedge $-1 $362 $361 $519 $634 reversed $144 $-1 #
edge $-1 $635 0 $516 7.4642758336283723 $510 $636 forward 7 unknown #
vertex $-1 $364 $637 #
straight-curve $-1 7.3418047430718758 -40.75069746990188 21.62395651110532 -1 0 0 I I #
coedge $-1 $509 $365 $368 $523 reversed $358 $-1 #
coedge $-1 $365 $509 $514 $634 forward $358 $-1 #
vertex $-1 $366 $638 #
straight-curve $-1 20.213847980415313 -45.242810722068569 51.367305209461769 0 0 1 I I #
straight-curve $-1 20.213847980415313 -45.242810722068569 15.662720712196091 0 -0.60181501223851219 -0.79863551827123203 I I #
edge $-1 $632 9.1533709918721904 $370 20.213847980415313 $518 $639 forward 7 unknown #
point $-1 20.213847980415313 -45.242810722068569 21.62395651110532 #
point $-1 20.213847980415313 -40.75069746990188 21.62395651110532 #
edge $-1 $640 1 $640 0 $373 $-1 forward 7 unknown #
vertex $-1 $374 $641 #
ellipse-curve $-1 11.365466389580803 -41.994383286194193 17.88799804970359 0 -0.79863551827123203 0.60181501223851219 0.5 0 0 1 I I #
point $-1 11.865466389580803 -42.996754095985224 18.643338611650705 #
edge $-1 $642 1 $642 0 $377 $-1 forward 7 unknown #
vertex $-1 $378 $643 #
ellipse-curve $-1 14.683609486143737 -41.994383286194193 17.88799804970359 0 -0.79863551827123203 0.60181501223851219 0.5 0 0 1 I I #
point $-1 15.183609486143737 -42.996754095985224 18.643338611650705 #
edge $-1 $644 1 $644 0 $381 $-1 forward 7 unknown #
vertex $-1 $382 $645 #
ellipse-curve $-1 18.001752582706672 -41.994383286194193 17.88799804970359 0 -0.79863551827123203 0.60181501223851219 0.5 0 0 1 I I #
point $-1 18.501752582706672 -42.996754095985224 18.643338611650705 #
loop $-1 $-1 $393 $385 #
plane-surface $-1 -45.977837635280594 0 15.681872499091909 -1 0 0 0 0 1 forward_v I I I I #
coedge $-1 $545 $646 $389 $541 forward $386 $-1 #
edge $-1 $543 68.322608269061959 $551 80.289866848599559 $540 $647 forward 7 unknown #
coedge $-1 $396 $390 $646 $648 forward $259 $-1 #
vertex $-1 $648 $649 #
straight-curve $-1 -32.208663036818962 28.540220342475294 21.62395651110532 0 1 0 I I #
coedge $-1 $650 $540 $392 $546 forward $386 $-1 #
edge $-1 $551 12.662037868794073 $549 26.431212467255705 $545 $651 forward 7 unknown #
coedge $-1 $548 $393 $396 $553 reversed $538 $-1 #
coedge $-1 $393 $547 $650 $652 reversed $538 $-1 #
vertex $-1 $652 $653 #
straight-curve $-1 -45.977837635280594 -7.5978639981652867 48.047696073685842 0 -0.80901698891910034 0.5877852598018023 I I #
vertex $-1 $546 $654 #
straight-curve $-1 -32.208663036818962 -27.96159427914084 62.842812440437399 0 -0.80901698891910034 0.5877852598018023 I I #
edge $-1 $655 -45.242810722068569 $397 -28.771292697104151 $396 $656 forward 7 unknown #
point $-1 -45.977837635280594 28.771292697104151 21.62395651110532 #
point $-1 -32.208663036818962 28.771292697104151 21.62395651110532 #
edge $-1 $657 1 $657 0 $400 $-1 forward 7 unknown #
vertex $-1 $401 $658 #
ellipse-curve $-1 -42.043787750005841 35.083004369851807 12.992103300487075 0 0.5877852598018023 0.80901698891910034 1.5 0 0 1 I I #
point $-1 -40.543787750005841 37.007051709586342 15.64032722133652 #
edge $-1 $659 1 $659 0 $404 $-1 forward 7 unknown #
vertex $-1 $405 $660 #
ellipse-curve $-1 -36.142712922093715 35.083004369851807 12.992103300487075 0 0.5877852598018023 0.80901698891910034 1.5 0 0 1 I I #
point $-1 -34.642712922093715 37.007051709586342 15.64032722133652 #
plane-surface $-1 72.341074861903735 0 0 -1 0 0 0 0 1 forward_v I I I I #
coedge $-1 $413 $411 $415 $569 reversed $281 $-1 #
edge $-1 $426 -21.62395651110532 $571 21.62395651110532 $425 $661 forward 7 unknown #
vertex $-1 $569 $662 #
straight-curve $-1 -72.341074861903735 -45.242810722068569 0 0 0 -1 I I #
edge $-1 $567 -45.242810722068569 $571 45.242810722068569 $565 $663 forward 7 unknown #
straight-curve $-1 0 -45.242810722068569 -21.62395651110532 -1 0 0 I I #
vertex $-1 $418 $664 #
straight-curve $-1 0 45.242810722068569 -21.62395651110532 1 0 0 I I #
point $-1 72.341074861903735 45.242810722068569 -21.62395651110532 #
point $-1 72.341074861903735 -45.242810722068569 -21.62395651110532 #
straight-curve $-1 -72.341074861903735 0 21.62395651110532 0 -1 0 I I #
point $-1 -72.341074861903735 45.242810722068569 21.62395651110532 #
point $-1 -72.341074861903735 -45.242810722068569 21.62395651110532 #
straight-curve $-1 72.341074861903735 -45.242810722068569 0 0 0 -1 I I #
straight-curve $-1 72.341074861903735 45.242810722068569 0 0 0 -1 I I #
plane-surface $-1 0 -45.242810722068569 0 0 1 0 0 0 1 forward_v I I I I #
coedge $-1 $665 $438 $448 $592 reversed $300 $-1 #
coedge $-1 $438 $665 $451 $594 forward $300 $-1 #
coedge $-1 $666 $441 $439 $584 forward $436 $-1 #
edge $-1 $585 45.977837635280594 $667 72.341074861903735 $439 $668 forward 7 unknown #
vertex $-1 $584 $669 #
straight-curve $-1 -45.977837635280594 45.242810722068569 7.8409362495459547 0 0 -1 I I #
coedge $-1 $441 $666 $443 $589 forward $436 $-1 #
straight-curve $-1 -45.977837635280594 0 21.62395651110532 0 1 0 I I #
edge $-1 $670 -72.341074861903735 $445 -45.977837635280594 $443 $671 forward 7 unknown #
point $-1 -45.977837635280594 -45.242810722068569 21.62395651110532 #
straight-curve $-1 -72.341074861903735 0 9.7397884870784992 0 -1 0 I I #
edge $-1 $670 -21.62395651110532 $449 -9.7397884870784992 $581 $672 forward 7 unknown #
point $-1 -72.341074861903735 -45.242810722068569 9.7397884870784992 #
edge $-1 $667 -21.62395651110532 $452 -9.7397884870784992 $451 $673 forward 7 unknown #
point $-1 -72.341074861903735 45.242810722068569 9.7397884870784992 #
plane-surface $-1 0 45.242810722068569 0 0 -1 0 0 0 -1 forward_v I I I I #
coedge $-1 $599 $460 $462 $605 forward $457 $-1 #
coedge $-1 $459 $468 $471 $612 forward $316 $-1 #
coedge $-1 $601 $597 $459 $600 reversed $457 $-1 #
edge $-1 $674 -45.242810722068569 $606 45.242810722068569 $599 $675 forward 7 unknown #
coedge $-1 $460 $599 $611 $676 reversed $457 $-1 #
vertex $-1 $461 $677 #
vertex $-1 $461 $678 #
straight-curve $-1 90.387836216118387 0 6.4547469005875318 0 1 0 I I #
edge $-1 $602 -4.2226999886352008 $606 4.2226999886352008 $597 $679 forward 7 unknown #
vertex $-1 $605 $680 #
straight-curve $-1 81.364455539011061 -45.242810722068569 -1.9906530766828698 -1 0 0 I I #
straight-curve $-1 81.364455539011061 -45.242810722068569 6.4547469005875318 1 0 0 I I #
point $-1 72.341074861903735 -45.242810722068569 -1.9906530766828698 #
straight-curve $-1 72.341074861903735 0 -1.9906530766828698 0 -1 0 I I #
coedge $-1 $471 $470 $601 $676 forward $472 $-1 #
edge $-1 $473 -9.0233806771073262 $674 9.0233806771073262 $471 $681 forward 7 unknown #
point $-1 72.341074861903735 45.242810722068569 -1.9906530766828698 #
straight-curve $-1 81.364455539011061 45.242810722068569 6.4547469005875318 -1 0 0 I I #
coedge $-1 $489 $488 $481 $616 forward $478 $-1 #
edge $-1 $617 29.743348698356449 $620 35.704584497265678 $615 $682 forward 7 unknown #
vertex $-1 $493 $683 #
straight-curve $-1 -40.982704579612658 -80.39555717566877 21.62395651110532 0 -1 0 I I #
edge $-1 $620 -23.256471536942108 $490 -12.195994548398989 $489 $684 forward 7 unknown #
vertex $-1 $619 $685 #
straight-curve $-1 -40.982704579612658 -45.242810722068569 15.662720712196091 0 0.60181501223851219 0.79863551827123203 I I #
point $-1 -40.982704579612658 -40.75069746990188 21.62395651110532 #
point $-1 -29.922227591069539 -45.242810722068569 15.662720712196091 #
straight-curve $-1 0 -45.242810722068569 21.62395651110532 1 0 0 I I #
vertex $-1 $496 $686 #
point $-1 -38.270609181904042 -41.994383286194193 17.88799804970359 #
vertex $-1 $500 $687 #
point $-1 -34.952466085341108 -41.994383286194193 17.88799804970359 #
vertex $-1 $504 $688 #
point $-1 -31.634322988778173 -41.994383286194193 17.88799804970359 #
edge $-1 $632 29.743348698356449 $635 35.704584497265678 $509 $689 forward 7 unknown #
vertex $-1 $523 $690 #
straight-curve $-1 9.1533709918721904 -80.39555717566877 21.62395651110532 0 -1 0 I I #
edge $-1 $635 1.8115662488003146 $520 12.872043237343437 $519 $691 forward 7 unknown #
vertex $-1 $634 $692 #
straight-curve $-1 9.1533709918721904 -45.242810722068569 15.662720712196091 0 0.60181501223851219 0.79863551827123203 I I #
point $-1 9.1533709918721904 -40.75069746990188 21.62395651110532 #
point $-1 20.213847980415313 -45.242810722068569 15.662720712196091 #
straight-curve $-1 0 -45.242810722068569 21.62395651110532 1 0 0 I I #
vertex $-1 $526 $693 #
point $-1 11.865466389580803 -41.994383286194193 17.88799804970359 #
vertex $-1 $530 $694 #
point $-1 15.183609486143737 -41.994383286194193 17.88799804970359 #
vertex $-1 $534 $695 #
point $-1 18.501752582706672 -41.994383286194193 17.88799804970359 #
coedge $-1 $540 $650 $542 $648 reversed $386 $-1 #
straight-curve $-1 -32.208663036818962 45.242810722068569 89.946564780167279 0 0 -1 I I #
edge $-1 $543 32.208663036818962 $655 45.977837635280594 $646 $696 forward 7 unknown #
point $-1 -32.208663036818962 45.242810722068569 21.62395651110532 #
coedge $-1 $646 $545 $548 $652 forward $386 $-1 #
straight-curve $-1 -19.546625168024889 45.242810722068569 9.6566979315677202 -1 0 0 I I #
edge $-1 $549 -80.289866848599559 $655 -68.322608269061959 $650 $697 forward 7 unknown #
point $-1 -45.977837635280594 45.242810722068569 9.6566979315677202 #
point $-1 -32.208663036818962 45.242810722068569 9.6566979315677202 #
vertex $-1 $553 $698 #
straight-curve $-1 -45.977837635280594 0 21.62395651110532 0 -1 0 I I #
vertex $-1 $556 $699 #
point $-1 -40.543787750005841 35.083004369851807 12.992103300487075 #
vertex $-1 $560 $700 #
point $-1 -34.642712922093715 35.083004369851807 12.992103300487075 #
straight-curve $-1 -72.341074861903735 45.242810722068569 0 0 0 -1 I I #
point $-1 -72.341074861903735 -45.242810722068569 -21.62395651110532 #
straight-curve $-1 -72.341074861903735 0 -21.62395651110532 0 1 0 I I #
point $-1 -72.341074861903735 45.242810722068569 -21.62395651110532 #
coedge $-1 $582 $581 $666 $701 reversed $300 $-1 #
coedge $-1 $587 $583 $665 $701 forward $436 $-1 #
vertex $-1 $584 $702 #
straight-curve $-1 0 45.242810722068569 21.62395651110532 -1 0 0 I I #
point $-1 -45.977837635280594 45.242810722068569 21.62395651110532 #
vertex $-1 $701 $703 #
straight-curve $-1 0 -45.242810722068569 21.62395651110532 1 0 0 I I #
straight-curve $-1 -72.341074861903735 -45.242810722068569 0 0 0 -1 I I #
straight-curve $-1 -72.341074861903735 45.242810722068569 0 0 0 -1 I I #
vertex $-1 $600 $704 #
straight-curve $-1 90.387836216118387 0 -1.9906530766828698 0 -1 0 I I #
edge $-1 $603 -4.2226999886352008 $674 4.2226999886352008 $601 $705 forward 7 unknown #
point $-1 90.387836216118387 -45.242810722068569 6.4547469005875318 #
point $-1 90.387836216118387 45.242810722068569 6.4547469005875318 #
straight-curve $-1 90.387836216118387 -45.242810722068569 2.232046911952331 0 0 -1 I I #
point $-1 90.387836216118387 -45.242810722068569 -1.9906530766828698 #
straight-curve $-1 81.364455539011061 45.242810722068569 -1.9906530766828698 1 0 0 I I #
straight-curve $-1 -40.982704579612658 -45.242810722068569 51.367305209461769 0 0 -1 I I #
point $-1 -40.982704579612658 -45.242810722068569 21.62395651110532 #
straight-curve $-1 -17.72623304267055 -45.242810722068569 15.662720712196094 1 0 0 I I #
point $-1 -40.982704579612658 -45.242810722068569 15.662720712196091 #
point $-1 -38.770609181904042 -41.59506552705858 17.587090543584331 #
point $-1 -35.452466085341108 -41.59506552705858 17.587090543584331 #
point $-1 -32.134322988778173 -41.59506552705858 17.587090543584331 #
straight-curve $-1 9.1533709918721904 -45.242810722068569 51.367305209461769 0 0 -1 I I #
point $-1 9.1533709918721904 -45.242810722068569 21.62395651110532 #
straight-curve $-1 7.3418047430718758 -45.242810722068569 15.662720712196094 1 0 0 I I #
point $-1 9.1533709918721904 -45.242810722068569 15.662720712196091 #
point $-1 11.365466389580803 -41.59506552705858 17.587090543584331 #
point $-1 14.683609486143737 -41.59506552705858 17.587090543584331 #
point $-1 18.001752582706672 -41.59506552705858 17.587090543584331 #
straight-curve $-1 0 45.242810722068569 21.62395651110532 -1 0 0 I I #
straight-curve $-1 -45.977837635280594 45.242810722068569 89.946564780167279 0 0 1 I I #
point $-1 -45.977837635280594 45.242810722068569 21.62395651110532 #
point $-1 -42.043787750005841 34.201326480149106 11.778577817108426 #
point $-1 -36.142712922093715 34.201326480149106 11.778577817108426 #
edge $-1 $667 -45.242810722068569 $670 45.242810722068569 $665 $706 forward 7 unknown #
point $-1 -72.341074861903735 45.242810722068569 21.62395651110532 #
point $-1 -72.341074861903735 -45.242810722068569 21.62395651110532 #
point $-1 90.387836216118387 45.242810722068569 -1.9906530766828698 #
straight-curve $-1 90.387836216118387 45.242810722068569 2.232046911952331 0 0 -1 I I #
straight-curve $-1 -72.341074861903735 0 21.62395651110532 0 -1 0 I I #
End-of-ACIS-data 