500 0 9 0           
7 Unknown 11 ACIS 5.0 NT 24 Fri Mar 26 20:12:14 1999 
-1 9.9999999999999995e-007 1e-010 
body $-1 $9 $-1 $10 #
body $-1 $11 $-1 $12 #
body $-1 $13 $-1 $14 #
body $-1 $15 $-1 $16 #
body $-1 $17 $-1 $18 #
body $-1 $19 $-1 $20 #
body $-1 $21 $-1 $22 #
body $-1 $23 $-1 $24 #
body $-1 $25 $-1 $26 #
lump $-1 $-1 $27 $0 #
transform $-1 1 0 0 0 1 0 0 0 1 66.51326029236732 38.412539480044344 10.161908543010236 1 rotate no_reflect no_shear #
lump $-1 $-1 $28 $1 #
transform $-1 1 0 0 0 1 0 0 0 1 66.51326029236732 38.412539480044344 10.161908543010236 1 rotate no_reflect no_shear #
lump $-1 $-1 $29 $2 #
transform $-1 1 0 0 0 1 0 0 0 1 66.51326029236732 38.412539480044344 10.161908543010236 1 rotate no_reflect no_shear #
lump $-1 $-1 $30 $3 #
transform $-1 1 0 0 0 1 0 0 0 1 66.51326029236732 38.412539480044344 10.161908543010236 1 rotate no_reflect no_shear #
lump $-1 $-1 $31 $4 #
transform $-1 1 0 0 0 1 0 0 0 1 66.51326029236732 38.412539480044344 10.161908543010236 1 rotate no_reflect no_shear #
lump $-1 $-1 $32 $5 #
transform $-1 1 0 0 0 1 0 0 0 1 66.51326029236732 38.412539480044344 10.161908543010236 1 rotate no_reflect no_shear #
lump $-1 $-1 $33 $6 #
transform $-1 1 0 0 0 1 0 0 0 1 66.51326029236732 38.412539480044344 10.161908543010236 1 rotate no_reflect no_shear #
lump $-1 $-1 $34 $7 #
transform $-1 1 0 0 0 1 0 0 0 1 66.51326029236732 38.412539480044344 10.161908543010236 1 rotate no_reflect no_shear #
lump $-1 $-1 $35 $8 #
transform $-1 1 0 0 0 1 0 0 0 1 66.51326029236732 38.412539480044344 10.161908543010236 1 rotate no_reflect no_shear #
shell $-1 $-1 $-1 $36 $-1 $9 #
shell $-1 $-1 $-1 $37 $-1 $11 #
shell $-1 $-1 $-1 $38 $-1 $13 #
shell $-1 $-1 $-1 $39 $-1 $15 #
shell $-1 $-1 $-1 $40 $-1 $17 #
shell $-1 $-1 $-1 $41 $-1 $19 #
shell $-1 $-1 $-1 $42 $-1 $21 #
shell $-1 $-1 $-1 $43 $-1 $23 #
shell $-1 $-1 $-1 $44 $-1 $25 #
face $-1 $45 $46 $27 $-1 $47 forward single #
face $-1 $48 $49 $28 $-1 $50 reversed single #
face $-1 $51 $52 $29 $-1 $53 forward single #
face $-1 $54 $55 $30 $-1 $56 forward single #
face $-1 $57 $58 $31 $-1 $59 forward single #
face $-1 $60 $61 $32 $-1 $62 reversed single #
face $-1 $63 $64 $33 $-1 $65 forward single #
face $-1 $66 $67 $34 $-1 $68 forward single #
face $-1 $69 $70 $35 $-1 $71 forward single #
face $-1 $72 $73 $27 $-1 $74 reversed single #
loop $-1 $-1 $75 $36 #
plane-surface $-1 0 0 10.161908543010236 0 0 1 1 0 0 forward_v I I I I #
face $-1 $76 $77 $28 $-1 $78 reversed single #
loop $-1 $-1 $79 $37 #
plane-surface $-1 92.695607389626829 0.30978319472504268 186.81419977541663 0 -1 0 -0.79863551827123203 0 -0.60181501223851219 forward_v I I I I #
face $-1 $80 $81 $29 $-1 $82 forward single #
loop $-1 $83 $84 $38 #
cone-surface $-1 62.047074312725165 -15.469661777778708 4.7123719017727321 -0.79863551827123203 0 -0.60181501223851219 0.60181501223851219 0 -0.79863551827123203 1 I I 0 1 1 forward I I I I #
face $-1 $85 $86 $30 $-1 $87 forward single #
loop $-1 $88 $89 $39 #
cone-surface $-1 62.047074312725165 -9.5523699130898017 4.7123719017727321 -0.79863551827123203 0 -0.60181501223851219 0.60181501223851219 0 -0.79863551827123203 1 I I 0 1 1 forward I I I I #
face $-1 $90 $91 $31 $-1 $92 forward single #
loop $-1 $93 $94 $40 #
cone-surface $-1 62.047074312725165 -3.6350780484008993 4.7123719017727321 -0.79863551827123203 0 -0.60181501223851219 0.60181501223851219 0 -0.79863551827123203 1 I I 0 1 1 forward I I I I #
face $-1 $95 $96 $32 $-1 $97 reversed single #
loop $-1 $-1 $98 $41 #
plane-surface $-1 -137.00657713491887 -16.971995653440658 119.67928779549743 0 -1 0 0.52991927123019833 0 -0.84804809178421925 forward_v I I I I #
face $-1 $99 $100 $33 $-1 $101 forward single #
loop $-1 $102 $103 $42 #
cone-surface $-1 -63.283804805154396 -34.124430714723609 7.5659594451456931 0.52991927123019833 0 -0.84804809178421925 0.84804809178421925 0 0.52991927123019833 1 I I 0 1 1 forward I I I I #
face $-1 $104 $105 $34 $-1 $106 forward single #
loop $-1 $107 $108 $43 #
cone-surface $-1 -63.283804805154396 -27.692267566742501 7.5659594451456931 0.52991927123019833 0 -0.84804809178421925 0.84804809178421925 0 0.52991927123019833 1 I I 0 1 1 forward I I I I #
face $-1 $109 $110 $35 $-1 $111 forward single #
loop $-1 $112 $113 $44 #
cone-surface $-1 -63.283804805154396 -21.260104418761394 7.5659594451456931 0.52991927123019833 0 -0.84804809178421925 0.84804809178421925 0 0.52991927123019833 1 I I 0 1 1 forward I I I I #
face $-1 $114 $115 $27 $-1 $116 reversed single #
loop $-1 $-1 $117 $45 #
plane-surface $-1 0 0 -10.161908543010236 0 0 1 1 0 0 forward_v I I I I #
coedge $-1 $118 $119 $120 $121 forward $46 $-1 #
face $-1 $122 $123 $28 $-1 $124 reversed single #
loop $-1 $-1 $125 $48 #
plane-surface $-1 -13.54409682138143 -9.5523699130898017 106.75684266166785 0.79863551827123203 0 0.60181501223851219 0.60181501223851219 0 -0.79863551827123203 forward_v I I I I #
coedge $-1 $126 $127 $128 $129 reversed $49 $-1 #
face $-1 $-1 $130 $29 $-1 $131 forward single #
loop $-1 $132 $133 $51 #
cone-surface $-1 60.815498253328656 -15.469661777778708 3.7843128005912998 -0.79863551827123203 0 -0.60181501223851219 0.3009075061192561 0 -0.39931775913561601 1 I I -0.70710678118654724 0.70710678118654791 0.5 forward I I I I #
loop $-1 $-1 $134 $38 #
coedge $-1 $84 $84 $135 $136 reversed $52 $-1 #
face $-1 $-1 $137 $30 $-1 $138 forward single #
loop $-1 $139 $140 $54 #
cone-surface $-1 60.815498253328656 -9.5523699130898017 3.7843128005912998 -0.79863551827123203 0 -0.60181501223851219 0.3009075061192561 0 -0.39931775913561601 1 I I -0.70710678118654724 0.70710678118654791 0.5 forward I I I I #
loop $-1 $-1 $141 $39 #
coedge $-1 $89 $89 $142 $143 reversed $55 $-1 #
face $-1 $-1 $144 $31 $-1 $145 forward single #
loop $-1 $146 $147 $57 #
cone-surface $-1 60.815498253328656 -3.6350780484008993 3.7843128005912998 -0.79863551827123203 0 -0.60181501223851219 0.3009075061192561 0 -0.39931775913561601 1 I I -0.70710678118654724 0.70710678118654791 0.5 forward I I I I #
loop $-1 $-1 $148 $40 #
coedge $-1 $94 $94 $149 $150 reversed $58 $-1 #
face $-1 $151 $152 $32 $-1 $153 reversed single #
loop $-1 $-1 $154 $60 #
plane-surface $-1 -66.51326029236732 -27.692267566742501 6.8664008569190571 -0.52991927123019833 0 0.84804809178421925 0.84804809178421925 0 0.52991927123019833 forward_v I I I I #
coedge $-1 $155 $156 $157 $158 reversed $61 $-1 #
face $-1 $-1 $159 $33 $-1 $160 forward single #
loop $-1 $161 $162 $63 #
cone-surface $-1 -62.42634700429911 -34.124430714723609 6.1937401444346332 0.52991927123019833 0 -0.84804809178421925 0.42402404589210962 0 0.26495963561509916 1 I I -0.70710678118654746 0.70710678118654746 0.5 forward I I I I #
loop $-1 $-1 $163 $42 #
coedge $-1 $103 $103 $164 $165 reversed $64 $-1 #
face $-1 $-1 $166 $34 $-1 $167 forward single #
loop $-1 $168 $169 $66 #
cone-surface $-1 -62.42634700429911 -27.692267566742501 6.1937401444346332 0.52991927123019833 0 -0.84804809178421925 0.42402404589210962 0 0.26495963561509916 1 I I -0.70710678118654746 0.70710678118654746 0.5 forward I I I I #
loop $-1 $-1 $170 $43 #
coedge $-1 $108 $108 $171 $172 reversed $67 $-1 #
face $-1 $-1 $173 $35 $-1 $174 forward single #
loop $-1 $175 $176 $69 #
cone-surface $-1 -62.42634700429911 -21.260104418761394 6.1937401444346332 0.52991927123019833 0 -0.84804809178421925 0.42402404589210962 0 0.26495963561509916 1 I I -0.70710678118654746 0.70710678118654746 0.5 forward I I I I #
loop $-1 $-1 $177 $44 #
coedge $-1 $113 $113 $178 $179 reversed $70 $-1 #
face $-1 $180 $181 $27 $-1 $182 reversed single #
loop $-1 $-1 $183 $72 #
plane-surface $-1 0 -38.412539480044344 0 0 1 0 0 0 1 forward_v I I I I #
coedge $-1 $184 $185 $186 $187 forward $73 $-1 #
coedge $-1 $188 $75 $189 $190 forward $46 $-1 #
coedge $-1 $75 $188 $191 $192 forward $46 $-1 #
coedge $-1 $193 $194 $75 $121 reversed $195 $-1 #
edge $-1 $196 -38.412539480044344 $197 38.412539480044344 $120 $198 forward 7 unknown #
face $-1 $199 $200 $28 $-1 $201 forward single #
loop $-1 $-1 $202 $76 #
plane-surface $-1 92.695607389626829 -19.414523020904646 186.81419977541663 0 1 0 0.79863551827123203 0 0.60181501223851219 forward_v I I I I #
coedge $-1 $203 $204 $205 $206 reversed $77 $-1 #
coedge $-1 $127 $79 $207 $208 reversed $49 $-1 #
coedge $-1 $79 $126 $203 $209 reversed $49 $-1 #
coedge $-1 $205 $210 $79 $129 forward $200 $-1 #
edge $-1 $211 -20.165456597553906 $212 -12.897601238791417 $128 $213 forward 7 unknown #
loop $-1 $-1 $135 $80 #
plane-surface $-1 -13.54409682138143 -9.5523699130898017 106.75684266166785 0.79863551827123203 0 0.60181501223851219 0.60181501223851219 0 -0.79863551827123203 forward_v I I I I #
loop $-1 $-1 $214 $51 #
coedge $-1 $133 $133 $134 $215 reversed $81 $-1 #
coedge $-1 $134 $134 $133 $215 forward $83 $-1 #
coedge $-1 $135 $135 $84 $136 forward $130 $-1 #
edge $-1 $216 0 $216 6.2831853071796004 $135 $217 forward 7 unknown #
loop $-1 $-1 $142 $85 #
plane-surface $-1 -13.54409682138143 -9.5523699130898017 106.75684266166785 0.79863551827123203 0 0.60181501223851219 0.60181501223851219 0 -0.79863551827123203 forward_v I I I I #
loop $-1 $-1 $218 $54 #
coedge $-1 $140 $140 $141 $219 reversed $86 $-1 #
coedge $-1 $141 $141 $140 $219 forward $88 $-1 #
coedge $-1 $142 $142 $89 $143 forward $137 $-1 #
edge $-1 $220 0 $220 6.2831853071796004 $142 $221 forward 7 unknown #
loop $-1 $-1 $149 $90 #
plane-surface $-1 -13.54409682138143 -9.5523699130898017 106.75684266166785 0.79863551827123203 0 0.60181501223851219 0.60181501223851219 0 -0.79863551827123203 forward_v I I I I #
loop $-1 $-1 $222 $57 #
coedge $-1 $147 $147 $148 $223 reversed $91 $-1 #
coedge $-1 $148 $148 $147 $223 forward $93 $-1 #
coedge $-1 $149 $149 $94 $150 forward $144 $-1 #
edge $-1 $224 0 $224 6.2831853071796004 $149 $225 forward 7 unknown #
face $-1 $226 $227 $32 $-1 $228 forward single #
loop $-1 $-1 $229 $95 #
plane-surface $-1 0 -38.412539480044344 0 0 1 0 0 0 1 forward_v I I I I #
coedge $-1 $230 $231 $232 $233 reversed $96 $-1 #
coedge $-1 $156 $98 $234 $235 reversed $61 $-1 #
coedge $-1 $98 $155 $230 $236 reversed $61 $-1 #
coedge $-1 $232 $237 $98 $158 forward $238 $-1 #
edge $-1 $239 49.677735354738481 $240 52.973243040829658 $157 $241 forward 7 unknown #
loop $-1 $-1 $164 $99 #
plane-surface $-1 -66.51326029236732 -27.692267566742501 6.8664008569190571 -0.52991927123019833 0 0.84804809178421925 0.84804809178421925 0 0.52991927123019833 forward_v I I I I #
loop $-1 $-1 $242 $63 #
coedge $-1 $162 $162 $163 $243 reversed $100 $-1 #
coedge $-1 $163 $163 $162 $243 forward $102 $-1 #
coedge $-1 $164 $164 $103 $165 forward $159 $-1 #
edge $-1 $244 0 $244 6.2831853071796004 $164 $245 forward 7 unknown #
loop $-1 $-1 $171 $104 #
plane-surface $-1 -66.51326029236732 -27.692267566742501 6.8664008569190571 -0.52991927123019833 0 0.84804809178421925 0.84804809178421925 0 0.52991927123019833 forward_v I I I I #
loop $-1 $-1 $246 $66 #
coedge $-1 $169 $169 $170 $247 reversed $105 $-1 #
coedge $-1 $170 $170 $169 $247 forward $107 $-1 #
coedge $-1 $171 $171 $108 $172 forward $166 $-1 #
edge $-1 $248 0 $248 6.2831853071796004 $171 $249 forward 7 unknown #
loop $-1 $-1 $178 $109 #
plane-surface $-1 -66.51326029236732 -27.692267566742501 6.8664008569190571 -0.52991927123019833 0 0.84804809178421925 0.84804809178421925 0 0.52991927123019833 forward_v I I I I #
loop $-1 $-1 $250 $69 #
coedge $-1 $176 $176 $177 $251 reversed $110 $-1 #
coedge $-1 $177 $177 $176 $251 forward $112 $-1 #
coedge $-1 $178 $178 $113 $179 forward $173 $-1 #
edge $-1 $252 0 $252 6.2831853071796004 $178 $253 forward 7 unknown #
face $-1 $254 $255 $27 $-1 $256 reversed single #
loop $-1 $-1 $257 $114 #
plane-surface $-1 -66.51326029236732 0 0 1 0 0 0 0 -1 forward_v I I I I #
coedge $-1 $258 $191 $259 $260 forward $115 $-1 #
coedge $-1 $261 $117 $258 $262 forward $73 $-1 #
coedge $-1 $117 $261 $263 $264 forward $73 $-1 #
coedge $-1 $194 $193 $117 $187 reversed $195 $-1 #
edge $-1 $265 -38.412539480044344 $266 38.412539480044344 $186 $267 forward 7 unknown #
coedge $-1 $119 $118 $268 $269 forward $46 $-1 #
coedge $-1 $270 $271 $118 $190 reversed $255 $-1 #
edge $-1 $197 -66.51326029236732 $272 66.51326029236732 $189 $273 forward 7 unknown #
coedge $-1 $183 $274 $119 $192 reversed $115 $-1 #
edge $-1 $275 -66.51326029236732 $196 66.51326029236732 $191 $276 forward 7 unknown #
coedge $-1 $186 $120 $274 $277 forward $195 $-1 #
coedge $-1 $120 $186 $270 $278 reversed $195 $-1 #
loop $-1 $-1 $193 $254 #
vertex $-1 $121 $279 #
vertex $-1 $121 $280 #
straight-curve $-1 66.51326029236732 0 10.161908543010236 0 1 0 I I #
face $-1 $-1 $281 $28 $-1 $282 reversed single #
loop $-1 $-1 $128 $122 #
plane-surface $-1 0 0 10.161908543010236 0 0 1 1 0 0 forward_v I I I I #
coedge $-1 $283 $284 $285 $286 reversed $123 $-1 #
coedge $-1 $287 $125 $127 $209 forward $77 $-1 #
coedge $-1 $125 $287 $283 $288 forward $77 $-1 #
coedge $-1 $285 $128 $125 $206 forward $200 $-1 #
edge $-1 $212 -5.0859681512699435 $289 14.638338064359745 $205 $290 forward 7 unknown #
coedge $-1 $291 $292 $126 $208 forward $281 $-1 #
edge $-1 $293 -92.889961437048711 $211 -83.245191344698071 $207 $294 forward 7 unknown #
edge $-1 $212 120.9499601617419 $293 133.02652058473461 $127 $295 forward 7 unknown #
coedge $-1 $128 $285 $291 $296 forward $200 $-1 #
vertex $-1 $208 $297 #
vertex $-1 $129 $298 #
straight-curve $-1 46.347803694813415 0.30978319472504268 10.161908543010242 -1 0 0 I I #
coedge $-1 $214 $214 $-1 $299 reversed $132 $-1 #
edge $-1 $300 0 $300 6.2831853071796004 $133 $301 forward 7 unknown #
vertex $-1 $136 $302 #
ellipse-curve $-1 62.879332612986083 -15.469661777778708 5.3395234968349303 0.79863551827123203 0 0.60181501223851219 0.60181501223851219 0 -0.79863551827123203 1 I I #
coedge $-1 $218 $218 $-1 $303 reversed $139 $-1 #
edge $-1 $304 0 $304 6.2831853071796004 $140 $305 forward 7 unknown #
vertex $-1 $143 $306 #
ellipse-curve $-1 62.879332612986083 -9.5523699130898017 5.3395234968349303 0.79863551827123203 0 0.60181501223851219 0.60181501223851219 0 -0.79863551827123203 1 I I #
coedge $-1 $222 $222 $-1 $307 reversed $146 $-1 #
edge $-1 $308 0 $308 6.2831853071796004 $147 $309 forward 7 unknown #
vertex $-1 $150 $310 #
ellipse-curve $-1 62.879332612986083 -3.6350780484008993 5.3395234968349303 0.79863551827123203 0 0.60181501223851219 0.60181501223851219 0 -0.79863551827123203 1 I I #
face $-1 $-1 $238 $32 $-1 $311 reversed single #
loop $-1 $-1 $312 $151 #
plane-surface $-1 0 0 10.161908543010236 0 0 1 1 0 0 forward_v I I I I #
coedge $-1 $313 $314 $231 $315 forward $152 $-1 #
coedge $-1 $316 $154 $156 $236 forward $96 $-1 #
coedge $-1 $154 $316 $229 $315 reversed $96 $-1 #
coedge $-1 $317 $157 $154 $233 forward $238 $-1 #
edge $-1 $240 3.1258618700694072 $318 24.566405696673094 $232 $319 forward 7 unknown #
coedge $-1 $320 $312 $155 $235 forward $227 $-1 #
edge $-1 $321 -7.2639429190375822 $239 -1.990028275092115 $234 $322 forward 7 unknown #
edge $-1 $240 0 $321 6.2188862813777579 $156 $323 forward 7 unknown #
coedge $-1 $157 $317 $320 $324 reversed $238 $-1 #
loop $-1 $-1 $232 $226 #
vertex $-1 $324 $325 #
vertex $-1 $158 $326 #
straight-curve $-1 -66.51326029236732 -16.971995653440658 59.839643897748715 0 0 -1 I I #
coedge $-1 $242 $242 $-1 $327 reversed $161 $-1 #
edge $-1 $328 0 $328 6.2831853071796004 $162 $329 forward 7 unknown #
vertex $-1 $165 $330 #
ellipse-curve $-1 -63.876302970394583 -34.124430714723609 8.5141546999646476 -0.52991927123019833 0 0.84804809178421925 0.84804809178421925 0 0.52991927123019833 1 I I #
coedge $-1 $246 $246 $-1 $331 reversed $168 $-1 #
edge $-1 $332 0 $332 6.2831853071796004 $169 $333 forward 7 unknown #
vertex $-1 $172 $334 #
ellipse-curve $-1 -63.876302970394583 -27.692267566742501 8.5141546999646476 -0.52991927123019833 0 0.84804809178421925 0.84804809178421925 0 0.52991927123019833 1 I I #
coedge $-1 $250 $250 $-1 $335 reversed $175 $-1 #
edge $-1 $336 0 $336 6.2831853071796004 $176 $337 forward 7 unknown #
vertex $-1 $179 $338 #
ellipse-curve $-1 -63.876302970394583 -21.260104418761394 8.5141546999646476 -0.52991927123019833 0 0.84804809178421925 0.84804809178421925 0 0.52991927123019833 1 I I #
face $-1 $-1 $195 $27 $-1 $339 reversed single #
loop $-1 $-1 $270 $180 #
plane-surface $-1 0 38.412539480044344 0 0 -1 0 0 0 -1 forward_v I I I I #
coedge $-1 $340 $268 $271 $341 forward $181 $-1 #
coedge $-1 $274 $183 $184 $262 reversed $115 $-1 #
coedge $-1 $268 $340 $183 $260 reversed $181 $-1 #
edge $-1 $275 -10.161908543010236 $342 10.161908543010236 $259 $343 forward 7 unknown #
coedge $-1 $185 $184 $340 $344 forward $73 $-1 #
edge $-1 $266 -66.51326029236732 $342 66.51326029236732 $258 $345 forward 7 unknown #
coedge $-1 $271 $270 $185 $264 reversed $255 $-1 #
edge $-1 $346 -66.51326029236732 $265 66.51326029236732 $263 $347 forward 7 unknown #
vertex $-1 $187 $348 #
vertex $-1 $277 $349 #
straight-curve $-1 66.51326029236732 0 -10.161908543010236 0 -1 0 I I #
coedge $-1 $257 $259 $188 $269 reversed $181 $-1 #
edge $-1 $272 -38.412539480044344 $275 38.412539480044344 $268 $350 forward 7 unknown #
coedge $-1 $263 $189 $194 $278 forward $255 $-1 #
coedge $-1 $189 $263 $257 $341 reversed $255 $-1 #
vertex $-1 $190 $351 #
straight-curve $-1 0 38.412539480044344 10.161908543010236 -1 0 0 I I #
coedge $-1 $191 $258 $193 $277 reversed $115 $-1 #
vertex $-1 $269 $352 #
straight-curve $-1 0 -38.412539480044344 10.161908543010236 1 0 0 I I #
edge $-1 $196 -10.161908543010236 $266 10.161908543010236 $193 $353 forward 7 unknown #
edge $-1 $197 -10.161908543010236 $265 10.161908543010236 $194 $354 forward 7 unknown #
point $-1 66.51326029236732 -38.412539480044344 10.161908543010236 #
point $-1 66.51326029236732 38.412539480044344 10.161908543010236 #
loop $-1 $-1 $207 $199 #
plane-surface $-1 66.51326029236732 0 0 -1 0 0 0 0 1 forward_v I I I I #
coedge $-1 $284 $202 $204 $288 reversed $123 $-1 #
coedge $-1 $202 $283 $355 $356 reversed $123 $-1 #
coedge $-1 $210 $205 $202 $286 forward $200 $-1 #
edge $-1 $289 12.897601238791417 $357 20.165456597553906 $285 $358 forward 7 unknown #
coedge $-1 $204 $203 $292 $359 reversed $77 $-1 #
edge $-1 $360 -133.02652058473461 $289 -120.9499601617419 $283 $361 forward 7 unknown #
vertex $-1 $206 $362 #
straight-curve $-1 59.245404933604831 -4.7761849565449008 10.161908543010242 0 -1 0 I I #
coedge $-1 $355 $207 $210 $296 reversed $281 $-1 #
coedge $-1 $207 $355 $287 $359 forward $281 $-1 #
vertex $-1 $208 $363 #
straight-curve $-1 66.51326029236732 0.30978319472504268 93.407099887708313 0 0 1 I I #
straight-curve $-1 -13.54409682138143 0.30978319472504268 106.75684266166785 0.60181501223851219 0 -0.79863551827123203 I I #
edge $-1 $357 -19.414523020904646 $211 0.30978319472504268 $291 $364 forward 7 unknown #
point $-1 66.51326029236732 0.30978319472504268 10.161908543010236 #
point $-1 59.245404933604831 0.30978319472504268 10.161908543010242 #
edge $-1 $365 1 $365 0 $214 $-1 forward 7 unknown #
vertex $-1 $215 $366 #
ellipse-curve $-1 61.214816012464269 -15.469661777778708 4.0852203067105561 0.79863551827123203 0 0.60181501223851219 0.60181501223851219 0 -0.79863551827123203 1 I I #
point $-1 63.481147625224565 -15.469661777778708 4.5408879785636769 #
edge $-1 $367 1 $367 0 $218 $-1 forward 7 unknown #
vertex $-1 $219 $368 #
ellipse-curve $-1 61.214816012464269 -9.5523699130898017 4.0852203067105561 0.79863551827123203 0 0.60181501223851219 0.60181501223851219 0 -0.79863551827123203 1 I I #
point $-1 63.481147625224565 -9.5523699130898017 4.5408879785636769 #
edge $-1 $369 1 $369 0 $222 $-1 forward 7 unknown #
vertex $-1 $223 $370 #
ellipse-curve $-1 61.214816012464269 -3.6350780484008993 4.0852203067105561 0.79863551827123203 0 0.60181501223851219 0.60181501223851219 0 -0.79863551827123203 1 I I #
point $-1 63.481147625224565 -3.6350780484008993 4.5408879785636769 #
plane-surface $-1 -66.51326029236732 0 0 1 0 0 0 0 -1 forward_v I I I I #
coedge $-1 $234 $371 $316 $372 forward $227 $-1 #
coedge $-1 $314 $229 $371 $373 reversed $152 $-1 #
coedge $-1 $229 $313 $317 $374 forward $152 $-1 #
edge $-1 $318 -26.383902665608119 $375 -20.165016384230359 $229 $376 forward 7 unknown #
coedge $-1 $231 $230 $312 $372 reversed $96 $-1 #
coedge $-1 $237 $232 $314 $374 reversed $238 $-1 #
vertex $-1 $315 $377 #
straight-curve $-1 -66.51326029236732 -13.846133783371251 6.8664008569190589 0 -1 0 I I #
coedge $-1 $371 $234 $237 $324 forward $227 $-1 #
vertex $-1 $235 $378 #
straight-curve $-1 -68.503288567459435 -16.971995653440658 10.161908543010234 -1 0 0 I I #
straight-curve $-1 -66.51326029236732 -16.971995653440658 6.8664008569190571 0.84804809178421925 0 0.52991927123019833 I I #
edge $-1 $239 16.971995653440658 $379 38.412539480044344 $237 $380 forward 7 unknown #
point $-1 -66.51326029236732 -16.971995653440658 10.161908543010236 #
point $-1 -66.51326029236732 -16.971995653440658 6.8664008569190571 #
edge $-1 $381 1 $381 0 $242 $-1 forward 7 unknown #
vertex $-1 $243 $382 #
ellipse-curve $-1 -62.69130663991421 -34.124430714723609 6.617764190326743 -0.52991927123019833 0 0.84804809178421925 0.84804809178421925 0 0.52991927123019833 1 I I #
point $-1 -63.028254878610362 -34.124430714723609 9.0440739711948428 #
edge $-1 $383 1 $383 0 $246 $-1 forward 7 unknown #
vertex $-1 $247 $384 #
ellipse-curve $-1 -62.69130663991421 -27.692267566742501 6.617764190326743 -0.52991927123019833 0 0.84804809178421925 0.84804809178421925 0 0.52991927123019833 1 I I #
point $-1 -63.028254878610362 -27.692267566742501 9.0440739711948428 #
edge $-1 $385 1 $385 0 $250 $-1 forward 7 unknown #
vertex $-1 $251 $386 #
ellipse-curve $-1 -62.69130663991421 -21.260104418761394 6.617764190326743 -0.52991927123019833 0 0.84804809178421925 0.84804809178421925 0 0.52991927123019833 1 I I #
point $-1 -63.028254878610362 -21.260104418761394 9.0440739711948428 #
plane-surface $-1 66.51326029236732 0 0 -1 0 0 0 0 1 forward_v I I I I #
coedge $-1 $259 $257 $261 $344 reversed $181 $-1 #
edge $-1 $272 -10.161908543010236 $346 10.161908543010236 $271 $387 forward 7 unknown #
vertex $-1 $344 $388 #
straight-curve $-1 -66.51326029236732 -38.412539480044344 0 0 0 -1 I I #
edge $-1 $342 -38.412539480044344 $346 38.412539480044344 $340 $389 forward 7 unknown #
straight-curve $-1 0 -38.412539480044344 -10.161908543010236 -1 0 0 I I #
vertex $-1 $264 $390 #
straight-curve $-1 0 38.412539480044344 -10.161908543010236 1 0 0 I I #
point $-1 66.51326029236732 38.412539480044344 -10.161908543010236 #
point $-1 66.51326029236732 -38.412539480044344 -10.161908543010236 #
straight-curve $-1 -66.51326029236732 0 10.161908543010236 0 -1 0 I I #
point $-1 -66.51326029236732 38.412539480044344 10.161908543010236 #
point $-1 -66.51326029236732 -38.412539480044344 10.161908543010236 #
straight-curve $-1 66.51326029236732 -38.412539480044344 0 0 0 -1 I I #
straight-curve $-1 66.51326029236732 38.412539480044344 0 0 0 -1 I I #
coedge $-1 $292 $291 $284 $356 forward $281 $-1 #
edge $-1 $357 83.245191344698071 $360 92.889961437048711 $355 $391 forward 7 unknown #
vertex $-1 $296 $392 #
straight-curve $-1 46.347803694813415 -19.414523020904646 10.161908543010242 1 0 0 I I #
edge $-1 $360 -14.638338064359745 $293 5.0859681512699435 $292 $393 forward 7 unknown #
vertex $-1 $359 $394 #
straight-curve $-1 -13.54409682138143 -19.414523020904646 106.75684266166785 -0.60181501223851219 0 0.79863551827123203 I I #
point $-1 59.245404933604831 -19.414523020904646 10.161908543010242 #
point $-1 66.51326029236732 0.30978319472504268 0.51713845065960129 #
straight-curve $-1 66.51326029236732 0 10.161908543010236 0 1 0 I I #
vertex $-1 $299 $395 #
point $-1 61.816631024702787 -15.469661777778708 3.286584788439324 #
vertex $-1 $303 $396 #
point $-1 61.816631024702787 -9.5523699130898017 3.286584788439324 #
vertex $-1 $307 $397 #
point $-1 61.816631024702787 -3.6350780484008993 3.286584788439324 #
coedge $-1 $312 $320 $313 $373 forward $227 $-1 #
edge $-1 $375 -24.566405696673094 $321 -3.1258618700694072 $312 $398 forward 7 unknown #
edge $-1 $379 -66.51326029236732 $375 -61.239345648421853 $313 $399 forward 7 unknown #
edge $-1 $379 -10.161908543010236 $318 -6.8664008569190571 $317 $400 forward 7 unknown #
vertex $-1 $315 $401 #
straight-curve $-1 -44.138441982977781 -38.412539480044344 20.847739329686597 0.84804809178421925 0 0.52991927123019833 I I #
point $-1 -66.51326029236732 -38.412539480044344 6.8664008569190571 #
point $-1 -61.239345648421853 -16.971995653440658 10.161908543010236 #
vertex $-1 $324 $402 #
straight-curve $-1 -66.51326029236732 0 10.161908543010236 0 -1 0 I I #
vertex $-1 $327 $403 #
point $-1 -61.843258548129988 -34.124430714723609 7.1476834615569409 #
vertex $-1 $331 $404 #
point $-1 -61.843258548129988 -27.692267566742501 7.1476834615569409 #
vertex $-1 $335 $405 #
point $-1 -61.843258548129988 -21.260104418761394 7.1476834615569409 #
straight-curve $-1 -66.51326029236732 38.412539480044344 0 0 0 -1 I I #
point $-1 -66.51326029236732 -38.412539480044344 -10.161908543010236 #
straight-curve $-1 -66.51326029236732 0 -10.161908543010236 0 1 0 I I #
point $-1 -66.51326029236732 38.412539480044344 -10.161908543010236 #
straight-curve $-1 66.51326029236732 -19.414523020904646 93.407099887708313 0 0 -1 I I #
point $-1 66.51326029236732 -19.414523020904646 10.161908543010236 #
straight-curve $-1 66.513260292367306 -4.7761849565449008 0.51713845065962261 0 1 0 I I #
point $-1 66.51326029236732 -19.414523020904646 0.51713845065960129 #
point $-1 60.416180494193043 -15.469661777778708 3.4834052944720435 #
point $-1 60.416180494193043 -9.5523699130898017 3.4834052944720435 #
point $-1 60.416180494193043 -3.6350780484008993 3.4834052944720435 #
straight-curve $-1 -61.239345648421853 -13.846133783371251 10.161908543010234 0 1 0 I I #
straight-curve $-1 0 -38.412539480044344 10.161908543010236 1 0 0 I I #
straight-curve $-1 -66.51326029236732 -38.412539480044344 0 0 0 -1 I I #
point $-1 -61.239345648421853 -38.412539480044344 10.161908543010236 #
point $-1 -66.51326029236732 -38.412539480044344 10.161908543010236 #
point $-1 -62.161387368684011 -34.124430714723609 5.7697160985425233 #
point $-1 -62.161387368684011 -27.692267566742501 5.7697160985425233 #
point $-1 -62.161387368684011 -21.260104418761394 5.7697160985425233 #
End-of-ACIS-data 