500 0 15 0           
7 Unknown 11 ACIS 5.0 NT 24 Thu Mar 25 16:21:28 1999 
-1 9.9999999999999995e-007 1e-010 
body $-1 $15 $-1 $16 #
body $-1 $17 $-1 $18 #
body $-1 $19 $-1 $20 #
body $-1 $21 $-1 $22 #
body $-1 $23 $-1 $24 #
body $-1 $25 $-1 $26 #
body $-1 $27 $-1 $28 #
body $-1 $29 $-1 $30 #
body $-1 $31 $-1 $32 #
body $-1 $33 $-1 $34 #
body $-1 $35 $-1 $36 #
body $-1 $37 $-1 $38 #
body $-1 $39 $-1 $40 #
body $-1 $41 $-1 $42 #
body $-1 $43 $-1 $44 #
lump $-1 $-1 $45 $0 #
transform $-1 1 0 0 0 1 0 0 0 1 47.80907620471816 25.196974996250475 10.051183827585387 1 rotate no_reflect no_shear #
lump $-1 $-1 $46 $1 #
transform $-1 1 0 0 0 1 0 0 0 1 -4.3403924024945235 15.248389123351338 10.051183827585387 1 rotate no_reflect no_shear #
lump $-1 $-1 $47 $2 #
transform $-1 1 0 0 0 1 0 0 0 1 99.958544811930835 15.248389123351338 10.051183827585387 1 rotate no_reflect no_shear #
lump $-1 $-1 $48 $3 #
transform $-1 1 0 0 0 0.66913059716165679 -0.74314483375859142 0 0.74314483375859142 0.66913059716165679 18.517649284499452 87.731952117298334 113.02578833197529 1 rotate no_reflect no_shear #
lump $-1 $-1 $49 $4 #
transform $-1 1 0 0 0 -0.66913059716165679 0.74314483375859142 0 -0.74314483375859142 -0.66913059716165679 18.517649284499452 42.328018838545901 12.034641672674518 1 rotate no_reflect no_shear #
lump $-1 $-1 $50 $5 #
transform $-1 1 0 0 0 0.66913059716165679 -0.74314483375859142 0 0.74314483375859142 0.66913059716165679 38.081794984364009 87.731952117298334 113.02578833197529 1 rotate no_reflect no_shear #
lump $-1 $-1 $51 $6 #
transform $-1 1 0 0 0 -0.66913059716165679 0.74314483375859142 0 -0.74314483375859142 -0.66913059716165679 38.081794984364009 42.328018838545901 12.034641672674518 1 rotate no_reflect no_shear #
lump $-1 $-1 $52 $7 #
transform $-1 1 0 0 0 0.66913059716165679 -0.74314483375859142 0 0.74314483375859142 0.66913059716165679 57.645940684228563 87.731952117298334 113.02578833197529 1 rotate no_reflect no_shear #
lump $-1 $-1 $53 $8 #
transform $-1 1 0 0 0 -0.66913059716165679 0.74314483375859142 0 -0.74314483375859142 -0.66913059716165679 57.645940684228563 42.328018838545901 12.034641672674518 1 rotate no_reflect no_shear #
lump $-1 $-1 $54 $9 #
transform $-1 1 0 0 0 0.66913059716165679 -0.74314483375859142 0 0.74314483375859142 0.66913059716165679 77.210086384093117 87.731952117298334 113.02578833197529 1 rotate no_reflect no_shear #
lump $-1 $-1 $55 $10 #
transform $-1 1 0 0 0 -0.66913059716165679 0.74314483375859142 0 -0.74314483375859142 -0.66913059716165679 77.210086384093117 42.328018838545901 12.034641672674518 1 rotate no_reflect no_shear #
lump $-1 $-1 $56 $11 #
transform $-1 1 0 0 0 0.74314481823134659 0.66913061440640931 0 -0.66913061440640931 0.74314481823134659 27.389722152511453 -63.981033070131808 85.877319054026799 1 rotate no_reflect no_shear #
lump $-1 $-1 $57 $12 #
transform $-1 1 0 0 0 -0.74314481823134659 -0.66913061440640931 0 0.66913061440640931 -0.74314481823134659 22.347478113223261 5.2245465986078923 14.916627182973521 1 rotate no_reflect no_shear #
lump $-1 $-1 $58 $13 #
transform $-1 1 0 0 0 -0.74314481823134659 -0.66913061440640931 0 0.66913061440640931 -0.74314481823134659 27.389722152511453 5.2245465986078923 14.916627182973521 1 rotate no_reflect no_shear #
lump $-1 $-1 $59 $14 #
transform $-1 1 0 0 0 -0.74314481823134659 -0.66913061440640931 0 0.66913061440640931 -0.74314481823134659 32.431966191799646 5.2245465986078923 14.916627182973521 1 rotate no_reflect no_shear #
shell $-1 $-1 $-1 $60 $-1 $15 #
shell $-1 $-1 $-1 $61 $-1 $17 #
shell $-1 $-1 $-1 $62 $-1 $19 #
shell $-1 $-1 $-1 $63 $-1 $21 #
shell $-1 $-1 $-1 $64 $-1 $23 #
shell $-1 $-1 $-1 $65 $-1 $25 #
shell $-1 $-1 $-1 $66 $-1 $27 #
shell $-1 $-1 $-1 $67 $-1 $29 #
shell $-1 $-1 $-1 $68 $-1 $31 #
shell $-1 $-1 $-1 $69 $-1 $33 #
shell $-1 $-1 $-1 $70 $-1 $35 #
shell $-1 $-1 $-1 $71 $-1 $37 #
shell $-1 $-1 $-1 $72 $-1 $39 #
shell $-1 $-1 $-1 $73 $-1 $41 #
shell $-1 $-1 $-1 $74 $-1 $43 #
face $-1 $75 $76 $45 $-1 $77 forward single #
face $-1 $78 $79 $46 $-1 $80 forward single #
face $-1 $81 $82 $47 $-1 $83 forward single #
face $-1 $84 $85 $48 $-1 $86 forward single #
face $-1 $87 $88 $49 $-1 $89 forward single #
face $-1 $90 $91 $50 $-1 $92 forward single #
face $-1 $93 $94 $51 $-1 $95 forward single #
face $-1 $96 $97 $52 $-1 $98 forward single #
face $-1 $99 $100 $53 $-1 $101 forward single #
face $-1 $102 $103 $54 $-1 $104 forward single #
face $-1 $105 $106 $55 $-1 $107 forward single #
face $-1 $108 $109 $56 $-1 $110 forward single #
face $-1 $111 $112 $57 $-1 $113 forward single #
face $-1 $114 $115 $58 $-1 $116 forward single #
face $-1 $117 $118 $59 $-1 $119 forward single #
face $-1 $120 $121 $45 $-1 $122 reversed single #
loop $-1 $-1 $123 $60 #
plane-surface $-1 0 0 10.051183827585387 0 0 1 1 0 0 forward_v I I I I #
face $-1 $124 $125 $46 $-1 $126 reversed single #
loop $-1 $-1 $127 $61 #
plane-surface $-1 0 0 10.051183827585387 0 0 1 1 0 0 forward_v I I I I #
face $-1 $128 $129 $47 $-1 $130 reversed single #
loop $-1 $-1 $131 $62 #
plane-surface $-1 0 0 10.051183827585387 0 0 1 1 0 0 forward_v I I I I #
face $-1 $132 $133 $48 $-1 $134 reversed single #
loop $-1 $-1 $135 $63 #
plane-surface $-1 0 0 95.61815240943632 0 0 1 1 0 0 forward_v I I I I #
face $-1 $136 $137 $49 $-1 $138 forward single #
loop $-1 $139 $140 $64 #
cone-surface $-1 0 0 -3.224906155583362 0 0 1 1.5 0 0 1 I I 0 1 1.5 forward I I I I #
face $-1 $141 $142 $50 $-1 $143 reversed single #
loop $-1 $-1 $144 $65 #
plane-surface $-1 0 0 95.61815240943632 0 0 1 1 0 0 forward_v I I I I #
face $-1 $145 $146 $51 $-1 $147 forward single #
loop $-1 $148 $149 $66 #
cone-surface $-1 0 0 -3.224906155583362 0 0 1 1.5 0 0 1 I I 0 1 1.5 forward I I I I #
face $-1 $150 $151 $52 $-1 $152 reversed single #
loop $-1 $-1 $153 $67 #
plane-surface $-1 0 0 95.61815240943632 0 0 1 1 0 0 forward_v I I I I #
face $-1 $154 $155 $53 $-1 $156 forward single #
loop $-1 $157 $158 $68 #
cone-surface $-1 0 0 -3.224906155583362 0 0 1 1.5 0 0 1 I I 0 1 1.5 forward I I I I #
face $-1 $159 $160 $54 $-1 $161 reversed single #
loop $-1 $-1 $162 $69 #
plane-surface $-1 0 0 95.61815240943632 0 0 1 1 0 0 forward_v I I I I #
face $-1 $163 $164 $55 $-1 $165 forward single #
loop $-1 $166 $167 $70 #
cone-surface $-1 0 0 -3.224906155583362 0 0 1 1.5 0 0 1 I I 0 1 1.5 forward I I I I #
face $-1 $168 $169 $56 $-1 $170 reversed single #
loop $-1 $-1 $171 $71 #
plane-surface $-1 0 0 95.61815240943632 0 0 1 1 0 0 forward_v I I I I #
face $-1 $172 $173 $57 $-1 $174 forward single #
loop $-1 $175 $176 $72 #
cone-surface $-1 0 0 -1.9617450483718368 0 0 1 1 0 0 1 I I 0 1 1 forward I I I I #
face $-1 $177 $178 $58 $-1 $179 forward single #
loop $-1 $180 $181 $73 #
cone-surface $-1 0 0 -1.9617450483718368 0 0 1 1 0 0 1 I I 0 1 1 forward I I I I #
face $-1 $182 $183 $59 $-1 $184 forward single #
loop $-1 $185 $186 $74 #
cone-surface $-1 0 0 -1.9617450483718368 0 0 1 1 0 0 1 I I 0 1 1 forward I I I I #
face $-1 $187 $188 $45 $-1 $189 reversed single #
loop $-1 $-1 $190 $75 #
plane-surface $-1 0 0 -10.051183827585387 0 0 1 1 0 0 forward_v I I I I #
coedge $-1 $191 $192 $193 $194 forward $76 $-1 #
face $-1 $195 $196 $46 $-1 $197 reversed single #
loop $-1 $-1 $198 $78 #
plane-surface $-1 0 0 -10.051183827585387 0 0 1 1 0 0 forward_v I I I I #
coedge $-1 $199 $200 $201 $202 forward $79 $-1 #
face $-1 $203 $204 $47 $-1 $205 reversed single #
loop $-1 $-1 $206 $81 #
plane-surface $-1 0 0 -10.051183827585387 0 0 1 1 0 0 forward_v I I I I #
coedge $-1 $207 $208 $209 $210 forward $82 $-1 #
face $-1 $211 $212 $48 $-1 $213 reversed single #
loop $-1 $-1 $214 $84 #
plane-surface $-1 0 0 -95.61815240943632 0 0 1 1 0 0 forward_v I I I I #
coedge $-1 $215 $216 $217 $218 forward $85 $-1 #
face $-1 $-1 $219 $49 $-1 $220 forward single #
loop $-1 $-1 $221 $87 #
plane-surface $-1 0 0 -5.6998123111667232 0 0 -1 -1 0 0 forward_v I I I I #
loop $-1 $-1 $222 $64 #
coedge $-1 $140 $140 $221 $223 reversed $88 $-1 #
face $-1 $224 $225 $50 $-1 $226 reversed single #
loop $-1 $-1 $227 $90 #
plane-surface $-1 0 0 -95.61815240943632 0 0 1 1 0 0 forward_v I I I I #
coedge $-1 $228 $229 $230 $231 forward $91 $-1 #
face $-1 $-1 $232 $51 $-1 $233 forward single #
loop $-1 $-1 $234 $93 #
plane-surface $-1 0 0 -5.6998123111667232 0 0 -1 -1 0 0 forward_v I I I I #
loop $-1 $-1 $235 $66 #
coedge $-1 $149 $149 $234 $236 reversed $94 $-1 #
face $-1 $237 $238 $52 $-1 $239 reversed single #
loop $-1 $-1 $240 $96 #
plane-surface $-1 0 0 -95.61815240943632 0 0 1 1 0 0 forward_v I I I I #
coedge $-1 $241 $242 $243 $244 forward $97 $-1 #
face $-1 $-1 $245 $53 $-1 $246 forward single #
loop $-1 $-1 $247 $99 #
plane-surface $-1 0 0 -5.6998123111667232 0 0 -1 -1 0 0 forward_v I I I I #
loop $-1 $-1 $248 $68 #
coedge $-1 $158 $158 $247 $249 reversed $100 $-1 #
face $-1 $250 $251 $54 $-1 $252 reversed single #
loop $-1 $-1 $253 $102 #
plane-surface $-1 0 0 -95.61815240943632 0 0 1 1 0 0 forward_v I I I I #
coedge $-1 $254 $255 $256 $257 forward $103 $-1 #
face $-1 $-1 $258 $55 $-1 $259 forward single #
loop $-1 $-1 $260 $105 #
plane-surface $-1 0 0 -5.6998123111667232 0 0 -1 -1 0 0 forward_v I I I I #
loop $-1 $-1 $261 $70 #
coedge $-1 $167 $167 $260 $262 reversed $106 $-1 #
face $-1 $263 $264 $56 $-1 $265 reversed single #
loop $-1 $-1 $266 $108 #
plane-surface $-1 0 0 -95.61815240943632 0 0 1 1 0 0 forward_v I I I I #
coedge $-1 $267 $268 $269 $270 forward $109 $-1 #
face $-1 $-1 $271 $57 $-1 $272 forward single #
loop $-1 $-1 $273 $111 #
plane-surface $-1 0 0 -3.4234900967436745 0 0 -1 -1 0 0 forward_v I I I I #
loop $-1 $-1 $274 $72 #
coedge $-1 $176 $176 $273 $275 reversed $112 $-1 #
face $-1 $-1 $276 $58 $-1 $277 forward single #
loop $-1 $-1 $278 $114 #
plane-surface $-1 0 0 -3.4234900967436745 0 0 -1 -1 0 0 forward_v I I I I #
loop $-1 $-1 $279 $73 #
coedge $-1 $181 $181 $278 $280 reversed $115 $-1 #
face $-1 $-1 $281 $59 $-1 $282 forward single #
loop $-1 $-1 $283 $117 #
plane-surface $-1 0 0 -3.4234900967436745 0 0 -1 -1 0 0 forward_v I I I I #
loop $-1 $-1 $284 $74 #
coedge $-1 $186 $186 $283 $285 reversed $118 $-1 #
face $-1 $286 $287 $45 $-1 $288 reversed single #
loop $-1 $-1 $289 $120 #
plane-surface $-1 0 -25.196974996250475 0 0 1 0 0 0 1 forward_v I I I I #
coedge $-1 $290 $291 $292 $293 forward $121 $-1 #
coedge $-1 $294 $123 $295 $296 forward $76 $-1 #
coedge $-1 $123 $294 $297 $298 forward $76 $-1 #
coedge $-1 $299 $300 $123 $194 reversed $301 $-1 #
edge $-1 $302 -25.196974996250475 $303 25.196974996250475 $193 $304 forward 7 unknown #
face $-1 $305 $306 $46 $-1 $307 reversed single #
loop $-1 $-1 $308 $124 #
plane-surface $-1 0 -1.4999999999999991 0 0 1 0 0 0 1 forward_v I I I I #
coedge $-1 $309 $310 $311 $312 forward $125 $-1 #
coedge $-1 $313 $127 $314 $315 forward $79 $-1 #
coedge $-1 $127 $313 $316 $317 forward $79 $-1 #
coedge $-1 $318 $319 $127 $202 reversed $320 $-1 #
edge $-1 $321 -1.4999999999999991 $322 1.4999999999999991 $201 $323 forward 7 unknown #
face $-1 $324 $325 $47 $-1 $326 reversed single #
loop $-1 $-1 $327 $128 #
plane-surface $-1 0 -1.4999999999999991 0 0 1 0 0 0 1 forward_v I I I I #
coedge $-1 $328 $329 $330 $331 forward $129 $-1 #
coedge $-1 $332 $131 $333 $334 forward $82 $-1 #
coedge $-1 $131 $332 $335 $336 forward $82 $-1 #
coedge $-1 $337 $338 $131 $210 reversed $339 $-1 #
edge $-1 $340 -1.4999999999999991 $341 1.4999999999999991 $209 $342 forward 7 unknown #
face $-1 $343 $344 $48 $-1 $345 reversed single #
loop $-1 $-1 $346 $132 #
plane-surface $-1 0 -191.23630481887264 0 0 1 0 0 0 1 forward_v I I I I #
coedge $-1 $347 $348 $349 $350 forward $133 $-1 #
coedge $-1 $351 $135 $352 $353 forward $85 $-1 #
coedge $-1 $135 $351 $354 $355 forward $85 $-1 #
coedge $-1 $356 $357 $135 $218 reversed $358 $-1 #
edge $-1 $359 -191.23630481887264 $360 191.23630481887264 $217 $361 forward 7 unknown #
loop $-1 $362 $363 $136 #
cone-surface $-1 0 0 0 0 0 1 0.75 0 0 1 I I -0.70710678118654757 0.70710678118654757 0.75 forward I I I I #
coedge $-1 $221 $221 $140 $223 forward $137 $-1 #
coedge $-1 $222 $222 $363 $364 forward $139 $-1 #
edge $-1 $365 0 $365 6.2831853071796004 $221 $366 forward 7 unknown #
face $-1 $367 $368 $50 $-1 $369 reversed single #
loop $-1 $-1 $370 $141 #
plane-surface $-1 0 -191.23630481887264 0 0 1 0 0 0 1 forward_v I I I I #
coedge $-1 $371 $372 $373 $374 forward $142 $-1 #
coedge $-1 $375 $144 $376 $377 forward $91 $-1 #
coedge $-1 $144 $375 $378 $379 forward $91 $-1 #
coedge $-1 $380 $381 $144 $231 reversed $382 $-1 #
edge $-1 $383 -191.23630481887264 $384 191.23630481887264 $230 $385 forward 7 unknown #
loop $-1 $386 $387 $145 #
cone-surface $-1 0 0 0 0 0 1 0.75 0 0 1 I I -0.70710678118654757 0.70710678118654757 0.75 forward I I I I #
coedge $-1 $234 $234 $149 $236 forward $146 $-1 #
coedge $-1 $235 $235 $387 $388 forward $148 $-1 #
edge $-1 $389 0 $389 6.2831853071796004 $234 $390 forward 7 unknown #
face $-1 $391 $392 $52 $-1 $393 reversed single #
loop $-1 $-1 $394 $150 #
plane-surface $-1 0 -191.23630481887264 0 0 1 0 0 0 1 forward_v I I I I #
coedge $-1 $395 $396 $397 $398 forward $151 $-1 #
coedge $-1 $399 $153 $400 $401 forward $97 $-1 #
coedge $-1 $153 $399 $402 $403 forward $97 $-1 #
coedge $-1 $404 $405 $153 $244 reversed $406 $-1 #
edge $-1 $407 -191.23630481887264 $408 191.23630481887264 $243 $409 forward 7 unknown #
loop $-1 $410 $411 $154 #
cone-surface $-1 0 0 0 0 0 1 0.75 0 0 1 I I -0.70710678118654757 0.70710678118654757 0.75 forward I I I I #
coedge $-1 $247 $247 $158 $249 forward $155 $-1 #
coedge $-1 $248 $248 $411 $412 forward $157 $-1 #
edge $-1 $413 0 $413 6.2831853071796004 $247 $414 forward 7 unknown #
face $-1 $415 $416 $54 $-1 $417 reversed single #
loop $-1 $-1 $418 $159 #
plane-surface $-1 0 -191.23630481887264 0 0 1 0 0 0 1 forward_v I I I I #
coedge $-1 $419 $420 $421 $422 forward $160 $-1 #
coedge $-1 $423 $162 $424 $425 forward $103 $-1 #
coedge $-1 $162 $423 $426 $427 forward $103 $-1 #
coedge $-1 $428 $429 $162 $257 reversed $430 $-1 #
edge $-1 $431 -191.23630481887264 $432 191.23630481887264 $256 $433 forward 7 unknown #
loop $-1 $434 $435 $163 #
cone-surface $-1 0 0 0 0 0 1 0.75 0 0 1 I I -0.70710678118654757 0.70710678118654757 0.75 forward I I I I #
coedge $-1 $260 $260 $167 $262 forward $164 $-1 #
coedge $-1 $261 $261 $435 $436 forward $166 $-1 #
edge $-1 $437 0 $437 6.2831853071796004 $260 $438 forward 7 unknown #
face $-1 $439 $440 $56 $-1 $441 reversed single #
loop $-1 $-1 $442 $168 #
plane-surface $-1 0 -191.23630481887264 0 0 1 0 0 0 1 forward_v I I I I #
coedge $-1 $443 $444 $445 $446 forward $169 $-1 #
coedge $-1 $447 $171 $448 $449 forward $109 $-1 #
coedge $-1 $171 $447 $450 $451 forward $109 $-1 #
coedge $-1 $452 $453 $171 $270 reversed $454 $-1 #
edge $-1 $455 -191.23630481887264 $456 191.23630481887264 $269 $457 forward 7 unknown #
loop $-1 $458 $459 $172 #
cone-surface $-1 0 0 0 0 0 1 0.5 0 0 1 I I -0.70710678118654746 0.70710678118654746 0.5 forward I I I I #
coedge $-1 $273 $273 $176 $275 forward $173 $-1 #
coedge $-1 $274 $274 $459 $460 forward $175 $-1 #
edge $-1 $461 0 $461 6.2831853071796004 $273 $462 forward 7 unknown #
loop $-1 $463 $464 $177 #
cone-surface $-1 0 0 0 0 0 1 0.5 0 0 1 I I -0.70710678118654746 0.70710678118654746 0.5 forward I I I I #
coedge $-1 $278 $278 $181 $280 forward $178 $-1 #
coedge $-1 $279 $279 $464 $465 forward $180 $-1 #
edge $-1 $466 0 $466 6.2831853071796004 $278 $467 forward 7 unknown #
loop $-1 $468 $469 $182 #
cone-surface $-1 0 0 0 0 0 1 0.5 0 0 1 I I -0.70710678118654746 0.70710678118654746 0.5 forward I I I I #
coedge $-1 $283 $283 $186 $285 forward $183 $-1 #
coedge $-1 $284 $284 $469 $470 forward $185 $-1 #
edge $-1 $471 0 $471 6.2831853071796004 $283 $472 forward 7 unknown #
face $-1 $473 $474 $45 $-1 $475 reversed single #
loop $-1 $-1 $476 $187 #
plane-surface $-1 -47.80907620471816 0 0 1 0 0 0 0 -1 forward_v I I I I #
coedge $-1 $477 $297 $478 $479 forward $188 $-1 #
coedge $-1 $480 $190 $477 $481 forward $121 $-1 #
coedge $-1 $190 $480 $482 $483 forward $121 $-1 #
coedge $-1 $300 $299 $190 $293 reversed $301 $-1 #
edge $-1 $484 -25.196974996250475 $485 25.196974996250475 $292 $486 forward 7 unknown #
coedge $-1 $192 $191 $487 $488 forward $76 $-1 #
coedge $-1 $489 $490 $191 $296 reversed $474 $-1 #
edge $-1 $303 -47.80907620471816 $491 47.80907620471816 $295 $492 forward 7 unknown #
coedge $-1 $289 $493 $192 $298 reversed $188 $-1 #
edge $-1 $494 -47.80907620471816 $302 47.80907620471816 $297 $495 forward 7 unknown #
coedge $-1 $292 $193 $493 $496 forward $301 $-1 #
coedge $-1 $193 $292 $489 $497 reversed $301 $-1 #
loop $-1 $-1 $299 $473 #
vertex $-1 $194 $498 #
vertex $-1 $194 $499 #
straight-curve $-1 47.80907620471816 0 10.051183827585387 0 1 0 I I #
face $-1 $500 $501 $46 $-1 $502 reversed single #
loop $-1 $-1 $503 $195 #
plane-surface $-1 -4.3403924024945235 0 0 1 0 0 0 0 -1 forward_v I I I I #
coedge $-1 $504 $316 $505 $506 forward $196 $-1 #
coedge $-1 $507 $198 $504 $508 forward $125 $-1 #
coedge $-1 $198 $507 $509 $510 forward $125 $-1 #
coedge $-1 $319 $318 $198 $312 reversed $320 $-1 #
edge $-1 $511 -1.4999999999999991 $512 1.4999999999999991 $311 $513 forward 7 unknown #
coedge $-1 $200 $199 $514 $515 forward $79 $-1 #
coedge $-1 $516 $517 $199 $315 reversed $501 $-1 #
edge $-1 $322 -4.3403924024945235 $518 4.3403924024945235 $314 $519 forward 7 unknown #
coedge $-1 $308 $520 $200 $317 reversed $196 $-1 #
edge $-1 $521 -4.3403924024945235 $321 4.3403924024945235 $316 $522 forward 7 unknown #
coedge $-1 $311 $201 $520 $523 forward $320 $-1 #
coedge $-1 $201 $311 $516 $524 reversed $320 $-1 #
loop $-1 $-1 $318 $500 #
vertex $-1 $202 $525 #
vertex $-1 $202 $526 #
straight-curve $-1 4.3403924024945235 0 10.051183827585387 0 1 0 I I #
face $-1 $527 $528 $47 $-1 $529 reversed single #
loop $-1 $-1 $530 $203 #
plane-surface $-1 -4.3403924024945226 0 0 1 0 0 0 0 -1 forward_v I I I I #
coedge $-1 $531 $335 $532 $533 forward $204 $-1 #
coedge $-1 $534 $206 $531 $535 forward $129 $-1 #
coedge $-1 $206 $534 $536 $537 forward $129 $-1 #
coedge $-1 $338 $337 $206 $331 reversed $339 $-1 #
edge $-1 $538 -1.4999999999999991 $539 1.4999999999999991 $330 $540 forward 7 unknown #
coedge $-1 $208 $207 $541 $542 forward $82 $-1 #
coedge $-1 $543 $544 $207 $334 reversed $528 $-1 #
edge $-1 $341 -4.3403924024945226 $545 4.3403924024945226 $333 $546 forward 7 unknown #
coedge $-1 $327 $547 $208 $336 reversed $204 $-1 #
edge $-1 $548 -4.3403924024945226 $340 4.3403924024945226 $335 $549 forward 7 unknown #
coedge $-1 $330 $209 $547 $550 forward $339 $-1 #
coedge $-1 $209 $330 $543 $551 reversed $339 $-1 #
loop $-1 $-1 $337 $527 #
vertex $-1 $210 $552 #
vertex $-1 $210 $553 #
straight-curve $-1 4.3403924024945226 0 10.051183827585387 0 1 0 I I #
face $-1 $554 $555 $48 $-1 $556 reversed single #
loop $-1 $-1 $557 $211 #
plane-surface $-1 -6.139476942899786 0 0 1 0 0 0 0 -1 forward_v I I I I #
coedge $-1 $558 $354 $559 $560 forward $212 $-1 #
coedge $-1 $561 $214 $558 $562 forward $133 $-1 #
coedge $-1 $214 $561 $563 $564 forward $133 $-1 #
coedge $-1 $357 $356 $214 $350 reversed $358 $-1 #
edge $-1 $565 -191.23630481887264 $566 191.23630481887264 $349 $567 forward 7 unknown #
coedge $-1 $216 $215 $568 $569 forward $85 $-1 #
coedge $-1 $570 $571 $215 $353 reversed $555 $-1 #
edge $-1 $360 -6.139476942899786 $572 6.139476942899786 $352 $573 forward 7 unknown #
coedge $-1 $346 $574 $216 $355 reversed $212 $-1 #
edge $-1 $575 -6.139476942899786 $359 6.139476942899786 $354 $576 forward 7 unknown #
coedge $-1 $349 $217 $574 $577 forward $358 $-1 #
coedge $-1 $217 $349 $570 $578 reversed $358 $-1 #
loop $-1 $-1 $356 $554 #
vertex $-1 $218 $579 #
vertex $-1 $218 $580 #
straight-curve $-1 6.139476942899786 0 95.61815240943632 0 1 0 I I #
loop $-1 $-1 $581 $136 #
coedge $-1 $363 $363 $222 $364 reversed $219 $-1 #
edge $-1 $582 0 $582 6.2831853071796004 $363 $583 forward 7 unknown #
vertex $-1 $223 $584 #
ellipse-curve $-1 0 0 -5.6998123111667232 0 0 -1 1.5 0 0 1 I I #
face $-1 $585 $586 $50 $-1 $587 reversed single #
loop $-1 $-1 $588 $224 #
plane-surface $-1 -6.139476942899786 0 0 1 0 0 0 0 -1 forward_v I I I I #
coedge $-1 $589 $378 $590 $591 forward $225 $-1 #
coedge $-1 $592 $227 $589 $593 forward $142 $-1 #
coedge $-1 $227 $592 $594 $595 forward $142 $-1 #
coedge $-1 $381 $380 $227 $374 reversed $382 $-1 #
edge $-1 $596 -191.23630481887264 $597 191.23630481887264 $373 $598 forward 7 unknown #
coedge $-1 $229 $228 $599 $600 forward $91 $-1 #
coedge $-1 $601 $602 $228 $377 reversed $586 $-1 #
edge $-1 $384 -6.139476942899786 $603 6.139476942899786 $376 $604 forward 7 unknown #
coedge $-1 $370 $605 $229 $379 reversed $225 $-1 #
edge $-1 $606 -6.139476942899786 $383 6.139476942899786 $378 $607 forward 7 unknown #
coedge $-1 $373 $230 $605 $608 forward $382 $-1 #
coedge $-1 $230 $373 $601 $609 reversed $382 $-1 #
loop $-1 $-1 $380 $585 #
vertex $-1 $231 $610 #
vertex $-1 $231 $611 #
straight-curve $-1 6.139476942899786 0 95.61815240943632 0 1 0 I I #
loop $-1 $-1 $612 $145 #
coedge $-1 $387 $387 $235 $388 reversed $232 $-1 #
edge $-1 $613 0 $613 6.2831853071796004 $387 $614 forward 7 unknown #
vertex $-1 $236 $615 #
ellipse-curve $-1 0 0 -5.6998123111667232 0 0 -1 1.5 0 0 1 I I #
face $-1 $616 $617 $52 $-1 $618 reversed single #
loop $-1 $-1 $619 $237 #
plane-surface $-1 -6.139476942899786 0 0 1 0 0 0 0 -1 forward_v I I I I #
coedge $-1 $620 $402 $621 $622 forward $238 $-1 #
coedge $-1 $623 $240 $620 $624 forward $151 $-1 #
coedge $-1 $240 $623 $625 $626 forward $151 $-1 #
coedge $-1 $405 $404 $240 $398 reversed $406 $-1 #
edge $-1 $627 -191.23630481887264 $628 191.23630481887264 $397 $629 forward 7 unknown #
coedge $-1 $242 $241 $630 $631 forward $97 $-1 #
coedge $-1 $632 $633 $241 $401 reversed $617 $-1 #
edge $-1 $408 -6.139476942899786 $634 6.139476942899786 $400 $635 forward 7 unknown #
coedge $-1 $394 $636 $242 $403 reversed $238 $-1 #
edge $-1 $637 -6.139476942899786 $407 6.139476942899786 $402 $638 forward 7 unknown #
coedge $-1 $397 $243 $636 $639 forward $406 $-1 #
coedge $-1 $243 $397 $632 $640 reversed $406 $-1 #
loop $-1 $-1 $404 $616 #
vertex $-1 $244 $641 #
vertex $-1 $244 $642 #
straight-curve $-1 6.139476942899786 0 95.61815240943632 0 1 0 I I #
loop $-1 $-1 $643 $154 #
coedge $-1 $411 $411 $248 $412 reversed $245 $-1 #
edge $-1 $644 0 $644 6.2831853071796004 $411 $645 forward 7 unknown #
vertex $-1 $249 $646 #
ellipse-curve $-1 0 0 -5.6998123111667232 0 0 -1 1.5 0 0 1 I I #
face $-1 $647 $648 $54 $-1 $649 reversed single #
loop $-1 $-1 $650 $250 #
plane-surface $-1 -6.139476942899786 0 0 1 0 0 0 0 -1 forward_v I I I I #
coedge $-1 $651 $426 $652 $653 forward $251 $-1 #
coedge $-1 $654 $253 $651 $655 forward $160 $-1 #
coedge $-1 $253 $654 $656 $657 forward $160 $-1 #
coedge $-1 $429 $428 $253 $422 reversed $430 $-1 #
edge $-1 $658 -191.23630481887264 $659 191.23630481887264 $421 $660 forward 7 unknown #
coedge $-1 $255 $254 $661 $662 forward $103 $-1 #
coedge $-1 $663 $664 $254 $425 reversed $648 $-1 #
edge $-1 $432 -6.139476942899786 $665 6.139476942899786 $424 $666 forward 7 unknown #
coedge $-1 $418 $667 $255 $427 reversed $251 $-1 #
edge $-1 $668 -6.139476942899786 $431 6.139476942899786 $426 $669 forward 7 unknown #
coedge $-1 $421 $256 $667 $670 forward $430 $-1 #
coedge $-1 $256 $421 $663 $671 reversed $430 $-1 #
loop $-1 $-1 $428 $647 #
vertex $-1 $257 $672 #
vertex $-1 $257 $673 #
straight-curve $-1 6.139476942899786 0 95.61815240943632 0 1 0 I I #
loop $-1 $-1 $674 $163 #
coedge $-1 $435 $435 $261 $436 reversed $258 $-1 #
edge $-1 $675 0 $675 6.2831853071796004 $435 $676 forward 7 unknown #
vertex $-1 $262 $677 #
ellipse-curve $-1 0 0 -5.6998123111667232 0 0 -1 1.5 0 0 1 I I #
face $-1 $678 $679 $56 $-1 $680 reversed single #
loop $-1 $-1 $681 $263 #
plane-surface $-1 -8.4037400654803207 0 0 1 0 0 0 0 -1 forward_v I I I I #
coedge $-1 $682 $450 $683 $684 forward $264 $-1 #
coedge $-1 $685 $266 $682 $686 forward $169 $-1 #
coedge $-1 $266 $685 $687 $688 forward $169 $-1 #
coedge $-1 $453 $452 $266 $446 reversed $454 $-1 #
edge $-1 $689 -191.23630481887264 $690 191.23630481887264 $445 $691 forward 7 unknown #
coedge $-1 $268 $267 $692 $693 forward $109 $-1 #
coedge $-1 $694 $695 $267 $449 reversed $679 $-1 #
edge $-1 $456 -8.4037400654803207 $696 8.4037400654803207 $448 $697 forward 7 unknown #
coedge $-1 $442 $698 $268 $451 reversed $264 $-1 #
edge $-1 $699 -8.4037400654803207 $455 8.4037400654803207 $450 $700 forward 7 unknown #
coedge $-1 $445 $269 $698 $701 forward $454 $-1 #
coedge $-1 $269 $445 $694 $702 reversed $454 $-1 #
loop $-1 $-1 $452 $678 #
vertex $-1 $270 $703 #
vertex $-1 $270 $704 #
straight-curve $-1 8.4037400654803207 0 95.61815240943632 0 1 0 I I #
loop $-1 $-1 $705 $172 #
coedge $-1 $459 $459 $274 $460 reversed $271 $-1 #
edge $-1 $706 0 $706 6.2831853071796004 $459 $707 forward 7 unknown #
vertex $-1 $275 $708 #
ellipse-curve $-1 0 0 -3.4234900967436745 0 0 -1 1 0 0 1 I I #
loop $-1 $-1 $709 $177 #
coedge $-1 $464 $464 $279 $465 reversed $276 $-1 #
edge $-1 $710 0 $710 6.2831853071796004 $464 $711 forward 7 unknown #
vertex $-1 $280 $712 #
ellipse-curve $-1 0 0 -3.4234900967436745 0 0 -1 1 0 0 1 I I #
loop $-1 $-1 $713 $182 #
coedge $-1 $469 $469 $284 $470 reversed $281 $-1 #
edge $-1 $714 0 $714 6.2831853071796004 $469 $715 forward 7 unknown #
vertex $-1 $285 $716 #
ellipse-curve $-1 0 0 -3.4234900967436745 0 0 -1 1 0 0 1 I I #
face $-1 $-1 $301 $45 $-1 $717 reversed single #
loop $-1 $-1 $489 $286 #
plane-surface $-1 0 25.196974996250475 0 0 -1 0 0 0 -1 forward_v I I I I #
coedge $-1 $718 $487 $490 $719 forward $287 $-1 #
coedge $-1 $493 $289 $290 $481 reversed $188 $-1 #
coedge $-1 $487 $718 $289 $479 reversed $287 $-1 #
edge $-1 $494 -10.051183827585387 $720 10.051183827585387 $478 $721 forward 7 unknown #
coedge $-1 $291 $290 $718 $722 forward $121 $-1 #
edge $-1 $485 -47.80907620471816 $720 47.80907620471816 $477 $723 forward 7 unknown #
coedge $-1 $490 $489 $291 $483 reversed $474 $-1 #
edge $-1 $724 -47.80907620471816 $484 47.80907620471816 $482 $725 forward 7 unknown #
vertex $-1 $293 $726 #
vertex $-1 $496 $727 #
straight-curve $-1 47.80907620471816 0 -10.051183827585387 0 -1 0 I I #
coedge $-1 $476 $478 $294 $488 reversed $287 $-1 #
edge $-1 $491 -25.196974996250475 $494 25.196974996250475 $487 $728 forward 7 unknown #
coedge $-1 $482 $295 $300 $497 forward $474 $-1 #
coedge $-1 $295 $482 $476 $719 reversed $474 $-1 #
vertex $-1 $296 $729 #
straight-curve $-1 0 25.196974996250475 10.051183827585387 -1 0 0 I I #
coedge $-1 $297 $477 $299 $496 reversed $188 $-1 #
vertex $-1 $488 $730 #
straight-curve $-1 0 -25.196974996250475 10.051183827585387 1 0 0 I I #
edge $-1 $302 -10.051183827585387 $485 10.051183827585387 $299 $731 forward 7 unknown #
edge $-1 $303 -10.051183827585387 $484 10.051183827585387 $300 $732 forward 7 unknown #
point $-1 47.80907620471816 -25.196974996250475 10.051183827585387 #
point $-1 47.80907620471816 25.196974996250475 10.051183827585387 #
face $-1 $-1 $320 $46 $-1 $733 reversed single #
loop $-1 $-1 $516 $305 #
plane-surface $-1 0 1.4999999999999991 0 0 -1 0 0 0 -1 forward_v I I I I #
coedge $-1 $734 $514 $517 $735 forward $306 $-1 #
coedge $-1 $520 $308 $309 $508 reversed $196 $-1 #
coedge $-1 $514 $734 $308 $506 reversed $306 $-1 #
edge $-1 $521 -10.051183827585387 $736 10.051183827585387 $505 $737 forward 7 unknown #
coedge $-1 $310 $309 $734 $738 forward $125 $-1 #
edge $-1 $512 -4.3403924024945235 $736 4.3403924024945235 $504 $739 forward 7 unknown #
coedge $-1 $517 $516 $310 $510 reversed $501 $-1 #
edge $-1 $740 -4.3403924024945235 $511 4.3403924024945235 $509 $741 forward 7 unknown #
vertex $-1 $312 $742 #
vertex $-1 $523 $743 #
straight-curve $-1 4.3403924024945235 0 -10.051183827585387 0 -1 0 I I #
coedge $-1 $503 $505 $313 $515 reversed $306 $-1 #
edge $-1 $518 -1.4999999999999991 $521 1.4999999999999991 $514 $744 forward 7 unknown #
coedge $-1 $509 $314 $319 $524 forward $501 $-1 #
coedge $-1 $314 $509 $503 $735 reversed $501 $-1 #
vertex $-1 $315 $745 #
straight-curve $-1 0 1.4999999999999991 10.051183827585387 -1 0 0 I I #
coedge $-1 $316 $504 $318 $523 reversed $196 $-1 #
vertex $-1 $515 $746 #
straight-curve $-1 0 -1.4999999999999991 10.051183827585387 1 0 0 I I #
edge $-1 $321 -10.051183827585387 $512 10.051183827585387 $318 $747 forward 7 unknown #
edge $-1 $322 -10.051183827585387 $511 10.051183827585387 $319 $748 forward 7 unknown #
point $-1 4.3403924024945235 -1.4999999999999991 10.051183827585387 #
point $-1 4.3403924024945235 1.4999999999999991 10.051183827585387 #
face $-1 $-1 $339 $47 $-1 $749 reversed single #
loop $-1 $-1 $543 $324 #
plane-surface $-1 0 1.4999999999999991 0 0 -1 0 0 0 -1 forward_v I I I I #
coedge $-1 $750 $541 $544 $751 forward $325 $-1 #
coedge $-1 $547 $327 $328 $535 reversed $204 $-1 #
coedge $-1 $541 $750 $327 $533 reversed $325 $-1 #
edge $-1 $548 -10.051183827585387 $752 10.051183827585387 $532 $753 forward 7 unknown #
coedge $-1 $329 $328 $750 $754 forward $129 $-1 #
edge $-1 $539 -4.3403924024945226 $752 4.3403924024945226 $531 $755 forward 7 unknown #
coedge $-1 $544 $543 $329 $537 reversed $528 $-1 #
edge $-1 $756 -4.3403924024945226 $538 4.3403924024945226 $536 $757 forward 7 unknown #
vertex $-1 $331 $758 #
vertex $-1 $550 $759 #
straight-curve $-1 4.3403924024945226 0 -10.051183827585387 0 -1 0 I I #
coedge $-1 $530 $532 $332 $542 reversed $325 $-1 #
edge $-1 $545 -1.4999999999999991 $548 1.4999999999999991 $541 $760 forward 7 unknown #
coedge $-1 $536 $333 $338 $551 forward $528 $-1 #
coedge $-1 $333 $536 $530 $751 reversed $528 $-1 #
vertex $-1 $334 $761 #
straight-curve $-1 0 1.4999999999999991 10.051183827585387 -1 0 0 I I #
coedge $-1 $335 $531 $337 $550 reversed $204 $-1 #
vertex $-1 $542 $762 #
straight-curve $-1 0 -1.4999999999999991 10.051183827585387 1 0 0 I I #
edge $-1 $340 -10.051183827585387 $539 10.051183827585387 $337 $763 forward 7 unknown #
edge $-1 $341 -10.051183827585387 $538 10.051183827585387 $338 $764 forward 7 unknown #
point $-1 4.3403924024945226 -1.4999999999999991 10.051183827585387 #
point $-1 4.3403924024945226 1.4999999999999991 10.051183827585387 #
face $-1 $-1 $358 $48 $-1 $765 reversed single #
loop $-1 $-1 $570 $343 #
plane-surface $-1 0 191.23630481887264 0 0 -1 0 0 0 -1 forward_v I I I I #
coedge $-1 $766 $568 $571 $767 forward $344 $-1 #
coedge $-1 $574 $346 $347 $562 reversed $212 $-1 #
coedge $-1 $568 $766 $346 $560 reversed $344 $-1 #
edge $-1 $575 -95.61815240943632 $768 95.61815240943632 $559 $769 forward 7 unknown #
coedge $-1 $348 $347 $766 $770 forward $133 $-1 #
edge $-1 $566 -6.139476942899786 $768 6.139476942899786 $558 $771 forward 7 unknown #
coedge $-1 $571 $570 $348 $564 reversed $555 $-1 #
edge $-1 $772 -6.139476942899786 $565 6.139476942899786 $563 $773 forward 7 unknown #
vertex $-1 $350 $774 #
vertex $-1 $577 $775 #
straight-curve $-1 6.139476942899786 0 -95.61815240943632 0 -1 0 I I #
coedge $-1 $557 $559 $351 $569 reversed $344 $-1 #
edge $-1 $572 -191.23630481887264 $575 191.23630481887264 $568 $776 forward 7 unknown #
coedge $-1 $563 $352 $357 $578 forward $555 $-1 #
coedge $-1 $352 $563 $557 $767 reversed $555 $-1 #
vertex $-1 $353 $777 #
straight-curve $-1 0 191.23630481887264 95.61815240943632 -1 0 0 I I #
coedge $-1 $354 $558 $356 $577 reversed $212 $-1 #
vertex $-1 $569 $778 #
straight-curve $-1 0 -191.23630481887264 95.61815240943632 1 0 0 I I #
edge $-1 $359 -95.61815240943632 $566 95.61815240943632 $356 $779 forward 7 unknown #
edge $-1 $360 -95.61815240943632 $565 95.61815240943632 $357 $780 forward 7 unknown #
point $-1 6.139476942899786 -191.23630481887264 95.61815240943632 #
point $-1 6.139476942899786 191.23630481887264 95.61815240943632 #
coedge $-1 $581 $581 $-1 $781 reversed $362 $-1 #
vertex $-1 $364 $782 #
ellipse-curve $-1 0 0 -0.75 0 0 -1 1.5 0 0 1 I I #
point $-1 1.5 0 -5.6998123111667232 #
face $-1 $-1 $382 $50 $-1 $783 reversed single #
loop $-1 $-1 $601 $367 #
plane-surface $-1 0 191.23630481887264 0 0 -1 0 0 0 -1 forward_v I I I I #
coedge $-1 $784 $599 $602 $785 forward $368 $-1 #
coedge $-1 $605 $370 $371 $593 reversed $225 $-1 #
coedge $-1 $599 $784 $370 $591 reversed $368 $-1 #
edge $-1 $606 -95.61815240943632 $786 95.61815240943632 $590 $787 forward 7 unknown #
coedge $-1 $372 $371 $784 $788 forward $142 $-1 #
edge $-1 $597 -6.139476942899786 $786 6.139476942899786 $589 $789 forward 7 unknown #
coedge $-1 $602 $601 $372 $595 reversed $586 $-1 #
edge $-1 $790 -6.139476942899786 $596 6.139476942899786 $594 $791 forward 7 unknown #
vertex $-1 $374 $792 #
vertex $-1 $608 $793 #
straight-curve $-1 6.139476942899786 0 -95.61815240943632 0 -1 0 I I #
coedge $-1 $588 $590 $375 $600 reversed $368 $-1 #
edge $-1 $603 -191.23630481887264 $606 191.23630481887264 $599 $794 forward 7 unknown #
coedge $-1 $594 $376 $381 $609 forward $586 $-1 #
coedge $-1 $376 $594 $588 $785 reversed $586 $-1 #
vertex $-1 $377 $795 #
straight-curve $-1 0 191.23630481887264 95.61815240943632 -1 0 0 I I #
coedge $-1 $378 $589 $380 $608 reversed $225 $-1 #
vertex $-1 $600 $796 #
straight-curve $-1 0 -191.23630481887264 95.61815240943632 1 0 0 I I #
edge $-1 $383 -95.61815240943632 $597 95.61815240943632 $380 $797 forward 7 unknown #
edge $-1 $384 -95.61815240943632 $596 95.61815240943632 $381 $798 forward 7 unknown #
point $-1 6.139476942899786 -191.23630481887264 95.61815240943632 #
point $-1 6.139476942899786 191.23630481887264 95.61815240943632 #
coedge $-1 $612 $612 $-1 $799 reversed $386 $-1 #
vertex $-1 $388 $800 #
ellipse-curve $-1 0 0 -0.75 0 0 -1 1.5 0 0 1 I I #
point $-1 1.5 0 -5.6998123111667232 #
face $-1 $-1 $406 $52 $-1 $801 reversed single #
loop $-1 $-1 $632 $391 #
plane-surface $-1 0 191.23630481887264 0 0 -1 0 0 0 -1 forward_v I I I I #
coedge $-1 $802 $630 $633 $803 forward $392 $-1 #
coedge $-1 $636 $394 $395 $624 reversed $238 $-1 #
coedge $-1 $630 $802 $394 $622 reversed $392 $-1 #
edge $-1 $637 -95.61815240943632 $804 95.61815240943632 $621 $805 forward 7 unknown #
coedge $-1 $396 $395 $802 $806 forward $151 $-1 #
edge $-1 $628 -6.139476942899786 $804 6.139476942899786 $620 $807 forward 7 unknown #
coedge $-1 $633 $632 $396 $626 reversed $617 $-1 #
edge $-1 $808 -6.139476942899786 $627 6.139476942899786 $625 $809 forward 7 unknown #
vertex $-1 $398 $810 #
vertex $-1 $639 $811 #
straight-curve $-1 6.139476942899786 0 -95.61815240943632 0 -1 0 I I #
coedge $-1 $619 $621 $399 $631 reversed $392 $-1 #
edge $-1 $634 -191.23630481887264 $637 191.23630481887264 $630 $812 forward 7 unknown #
coedge $-1 $625 $400 $405 $640 forward $617 $-1 #
coedge $-1 $400 $625 $619 $803 reversed $617 $-1 #
vertex $-1 $401 $813 #
straight-curve $-1 0 191.23630481887264 95.61815240943632 -1 0 0 I I #
coedge $-1 $402 $620 $404 $639 reversed $238 $-1 #
vertex $-1 $631 $814 #
straight-curve $-1 0 -191.23630481887264 95.61815240943632 1 0 0 I I #
edge $-1 $407 -95.61815240943632 $628 95.61815240943632 $404 $815 forward 7 unknown #
edge $-1 $408 -95.61815240943632 $627 95.61815240943632 $405 $816 forward 7 unknown #
point $-1 6.139476942899786 -191.23630481887264 95.61815240943632 #
point $-1 6.139476942899786 191.23630481887264 95.61815240943632 #
coedge $-1 $643 $643 $-1 $817 reversed $410 $-1 #
vertex $-1 $412 $818 #
ellipse-curve $-1 0 0 -0.75 0 0 -1 1.5 0 0 1 I I #
point $-1 1.5 0 -5.6998123111667232 #
face $-1 $-1 $430 $54 $-1 $819 reversed single #
loop $-1 $-1 $663 $415 #
plane-surface $-1 0 191.23630481887264 0 0 -1 0 0 0 -1 forward_v I I I I #
coedge $-1 $820 $661 $664 $821 forward $416 $-1 #
coedge $-1 $667 $418 $419 $655 reversed $251 $-1 #
coedge $-1 $661 $820 $418 $653 reversed $416 $-1 #
edge $-1 $668 -95.61815240943632 $822 95.61815240943632 $652 $823 forward 7 unknown #
coedge $-1 $420 $419 $820 $824 forward $160 $-1 #
edge $-1 $659 -6.139476942899786 $822 6.139476942899786 $651 $825 forward 7 unknown #
coedge $-1 $664 $663 $420 $657 reversed $648 $-1 #
edge $-1 $826 -6.139476942899786 $658 6.139476942899786 $656 $827 forward 7 unknown #
vertex $-1 $422 $828 #
vertex $-1 $670 $829 #
straight-curve $-1 6.139476942899786 0 -95.61815240943632 0 -1 0 I I #
coedge $-1 $650 $652 $423 $662 reversed $416 $-1 #
edge $-1 $665 -191.23630481887264 $668 191.23630481887264 $661 $830 forward 7 unknown #
coedge $-1 $656 $424 $429 $671 forward $648 $-1 #
coedge $-1 $424 $656 $650 $821 reversed $648 $-1 #
vertex $-1 $425 $831 #
straight-curve $-1 0 191.23630481887264 95.61815240943632 -1 0 0 I I #
coedge $-1 $426 $651 $428 $670 reversed $251 $-1 #
vertex $-1 $662 $832 #
straight-curve $-1 0 -191.23630481887264 95.61815240943632 1 0 0 I I #
edge $-1 $431 -95.61815240943632 $659 95.61815240943632 $428 $833 forward 7 unknown #
edge $-1 $432 -95.61815240943632 $658 95.61815240943632 $429 $834 forward 7 unknown #
point $-1 6.139476942899786 -191.23630481887264 95.61815240943632 #
point $-1 6.139476942899786 191.23630481887264 95.61815240943632 #
coedge $-1 $674 $674 $-1 $835 reversed $434 $-1 #
vertex $-1 $436 $836 #
ellipse-curve $-1 0 0 -0.75 0 0 -1 1.5 0 0 1 I I #
point $-1 1.5 0 -5.6998123111667232 #
face $-1 $-1 $454 $56 $-1 $837 reversed single #
loop $-1 $-1 $694 $439 #
plane-surface $-1 0 191.23630481887264 0 0 -1 0 0 0 -1 forward_v I I I I #
coedge $-1 $838 $692 $695 $839 forward $440 $-1 #
coedge $-1 $698 $442 $443 $686 reversed $264 $-1 #
coedge $-1 $692 $838 $442 $684 reversed $440 $-1 #
edge $-1 $699 -95.61815240943632 $840 95.61815240943632 $683 $841 forward 7 unknown #
coedge $-1 $444 $443 $838 $842 forward $169 $-1 #
edge $-1 $690 -8.4037400654803207 $840 8.4037400654803207 $682 $843 forward 7 unknown #
coedge $-1 $695 $694 $444 $688 reversed $679 $-1 #
edge $-1 $844 -8.4037400654803207 $689 8.4037400654803207 $687 $845 forward 7 unknown #
vertex $-1 $446 $846 #
vertex $-1 $701 $847 #
straight-curve $-1 8.4037400654803207 0 -95.61815240943632 0 -1 0 I I #
coedge $-1 $681 $683 $447 $693 reversed $440 $-1 #
edge $-1 $696 -191.23630481887264 $699 191.23630481887264 $692 $848 forward 7 unknown #
coedge $-1 $687 $448 $453 $702 forward $679 $-1 #
coedge $-1 $448 $687 $681 $839 reversed $679 $-1 #
vertex $-1 $449 $849 #
straight-curve $-1 0 191.23630481887264 95.61815240943632 -1 0 0 I I #
coedge $-1 $450 $682 $452 $701 reversed $264 $-1 #
vertex $-1 $693 $850 #
straight-curve $-1 0 -191.23630481887264 95.61815240943632 1 0 0 I I #
edge $-1 $455 -95.61815240943632 $690 95.61815240943632 $452 $851 forward 7 unknown #
edge $-1 $456 -95.61815240943632 $689 95.61815240943632 $453 $852 forward 7 unknown #
point $-1 8.4037400654803207 -191.23630481887264 95.61815240943632 #
point $-1 8.4037400654803207 191.23630481887264 95.61815240943632 #
coedge $-1 $705 $705 $-1 $853 reversed $458 $-1 #
vertex $-1 $460 $854 #
ellipse-curve $-1 0 0 -0.5 0 0 -1 1 0 0 1 I I #
point $-1 1 0 -3.4234900967436745 #
coedge $-1 $709 $709 $-1 $855 reversed $463 $-1 #
vertex $-1 $465 $856 #
ellipse-curve $-1 0 0 -0.5 0 0 -1 1 0 0 1 I I #
point $-1 1 0 -3.4234900967436745 #
coedge $-1 $713 $713 $-1 $857 reversed $468 $-1 #
vertex $-1 $470 $858 #
ellipse-curve $-1 0 0 -0.5 0 0 -1 1 0 0 1 I I #
point $-1 1 0 -3.4234900967436745 #
plane-surface $-1 47.80907620471816 0 0 -1 0 0 0 0 1 forward_v I I I I #
coedge $-1 $478 $476 $480 $722 reversed $287 $-1 #
edge $-1 $491 -10.051183827585387 $724 10.051183827585387 $490 $859 forward 7 unknown #
vertex $-1 $722 $860 #
straight-curve $-1 -47.80907620471816 -25.196974996250475 0 0 0 -1 I I #
edge $-1 $720 -25.196974996250475 $724 25.196974996250475 $718 $861 forward 7 unknown #
straight-curve $-1 0 -25.196974996250475 -10.051183827585387 -1 0 0 I I #
vertex $-1 $483 $862 #
straight-curve $-1 0 25.196974996250475 -10.051183827585387 1 0 0 I I #
point $-1 47.80907620471816 25.196974996250475 -10.051183827585387 #
point $-1 47.80907620471816 -25.196974996250475 -10.051183827585387 #
straight-curve $-1 -47.80907620471816 0 10.051183827585387 0 -1 0 I I #
point $-1 -47.80907620471816 25.196974996250475 10.051183827585387 #
point $-1 -47.80907620471816 -25.196974996250475 10.051183827585387 #
straight-curve $-1 47.80907620471816 -25.196974996250475 0 0 0 -1 I I #
straight-curve $-1 47.80907620471816 25.196974996250475 0 0 0 -1 I I #
plane-surface $-1 4.3403924024945235 0 0 -1 0 0 0 0 1 forward_v I I I I #
coedge $-1 $505 $503 $507 $738 reversed $306 $-1 #
edge $-1 $518 -10.051183827585387 $740 10.051183827585387 $517 $863 forward 7 unknown #
vertex $-1 $738 $864 #
straight-curve $-1 -4.3403924024945235 -1.4999999999999991 0 0 0 -1 I I #
edge $-1 $736 -1.4999999999999991 $740 1.4999999999999991 $734 $865 forward 7 unknown #
straight-curve $-1 0 -1.4999999999999991 -10.051183827585387 -1 0 0 I I #
vertex $-1 $510 $866 #
straight-curve $-1 0 1.4999999999999991 -10.051183827585387 1 0 0 I I #
point $-1 4.3403924024945235 1.4999999999999991 -10.051183827585387 #
point $-1 4.3403924024945235 -1.4999999999999991 -10.051183827585387 #
straight-curve $-1 -4.3403924024945235 0 10.051183827585387 0 -1 0 I I #
point $-1 -4.3403924024945235 1.4999999999999991 10.051183827585387 #
point $-1 -4.3403924024945235 -1.4999999999999991 10.051183827585387 #
straight-curve $-1 4.3403924024945235 -1.4999999999999991 0 0 0 -1 I I #
straight-curve $-1 4.3403924024945235 1.4999999999999991 0 0 0 -1 I I #
plane-surface $-1 4.3403924024945226 0 0 -1 0 0 0 0 1 forward_v I I I I #
coedge $-1 $532 $530 $534 $754 reversed $325 $-1 #
edge $-1 $545 -10.051183827585387 $756 10.051183827585387 $544 $867 forward 7 unknown #
vertex $-1 $754 $868 #
straight-curve $-1 -4.3403924024945226 -1.4999999999999991 0 0 0 -1 I I #
edge $-1 $752 -1.4999999999999991 $756 1.4999999999999991 $750 $869 forward 7 unknown #
straight-curve $-1 0 -1.4999999999999991 -10.051183827585387 -1 0 0 I I #
vertex $-1 $537 $870 #
straight-curve $-1 0 1.4999999999999991 -10.051183827585387 1 0 0 I I #
point $-1 4.3403924024945226 1.4999999999999991 -10.051183827585387 #
point $-1 4.3403924024945226 -1.4999999999999991 -10.051183827585387 #
straight-curve $-1 -4.3403924024945226 0 10.051183827585387 0 -1 0 I I #
point $-1 -4.3403924024945226 1.4999999999999991 10.051183827585387 #
point $-1 -4.3403924024945226 -1.4999999999999991 10.051183827585387 #
straight-curve $-1 4.3403924024945226 -1.4999999999999991 0 0 0 -1 I I #
straight-curve $-1 4.3403924024945226 1.4999999999999991 0 0 0 -1 I I #
plane-surface $-1 6.139476942899786 0 0 -1 0 0 0 0 1 forward_v I I I I #
coedge $-1 $559 $557 $561 $770 reversed $344 $-1 #
edge $-1 $572 -95.61815240943632 $772 95.61815240943632 $571 $871 forward 7 unknown #
vertex $-1 $770 $872 #
straight-curve $-1 -6.139476942899786 -191.23630481887264 0 0 0 -1 I I #
edge $-1 $768 -191.23630481887264 $772 191.23630481887264 $766 $873 forward 7 unknown #
straight-curve $-1 0 -191.23630481887264 -95.61815240943632 -1 0 0 I I #
vertex $-1 $564 $874 #
straight-curve $-1 0 191.23630481887264 -95.61815240943632 1 0 0 I I #
point $-1 6.139476942899786 191.23630481887264 -95.61815240943632 #
point $-1 6.139476942899786 -191.23630481887264 -95.61815240943632 #
straight-curve $-1 -6.139476942899786 0 95.61815240943632 0 -1 0 I I #
point $-1 -6.139476942899786 191.23630481887264 95.61815240943632 #
point $-1 -6.139476942899786 -191.23630481887264 95.61815240943632 #
straight-curve $-1 6.139476942899786 -191.23630481887264 0 0 0 -1 I I #
straight-curve $-1 6.139476942899786 191.23630481887264 0 0 0 -1 I I #
edge $-1 $875 1 $875 0 $581 $-1 forward 7 unknown #
point $-1 1.5 0 -0.75 #
plane-surface $-1 6.139476942899786 0 0 -1 0 0 0 0 1 forward_v I I I I #
coedge $-1 $590 $588 $592 $788 reversed $368 $-1 #
edge $-1 $603 -95.61815240943632 $790 95.61815240943632 $602 $876 forward 7 unknown #
vertex $-1 $788 $877 #
straight-curve $-1 -6.139476942899786 -191.23630481887264 0 0 0 -1 I I #
edge $-1 $786 -191.23630481887264 $790 191.23630481887264 $784 $878 forward 7 unknown #
straight-curve $-1 0 -191.23630481887264 -95.61815240943632 -1 0 0 I I #
vertex $-1 $595 $879 #
straight-curve $-1 0 191.23630481887264 -95.61815240943632 1 0 0 I I #
point $-1 6.139476942899786 191.23630481887264 -95.61815240943632 #
point $-1 6.139476942899786 -191.23630481887264 -95.61815240943632 #
straight-curve $-1 -6.139476942899786 0 95.61815240943632 0 -1 0 I I #
point $-1 -6.139476942899786 191.23630481887264 95.61815240943632 #
point $-1 -6.139476942899786 -191.23630481887264 95.61815240943632 #
straight-curve $-1 6.139476942899786 -191.23630481887264 0 0 0 -1 I I #
straight-curve $-1 6.139476942899786 191.23630481887264 0 0 0 -1 I I #
edge $-1 $880 1 $880 0 $612 $-1 forward 7 unknown #
point $-1 1.5 0 -0.75 #
plane-surface $-1 6.139476942899786 0 0 -1 0 0 0 0 1 forward_v I I I I #
coedge $-1 $621 $619 $623 $806 reversed $392 $-1 #
edge $-1 $634 -95.61815240943632 $808 95.61815240943632 $633 $881 forward 7 unknown #
vertex $-1 $806 $882 #
straight-curve $-1 -6.139476942899786 -191.23630481887264 0 0 0 -1 I I #
edge $-1 $804 -191.23630481887264 $808 191.23630481887264 $802 $883 forward 7 unknown #
straight-curve $-1 0 -191.23630481887264 -95.61815240943632 -1 0 0 I I #
vertex $-1 $626 $884 #
straight-curve $-1 0 191.23630481887264 -95.61815240943632 1 0 0 I I #
point $-1 6.139476942899786 191.23630481887264 -95.61815240943632 #
point $-1 6.139476942899786 -191.23630481887264 -95.61815240943632 #
straight-curve $-1 -6.139476942899786 0 95.61815240943632 0 -1 0 I I #
point $-1 -6.139476942899786 191.23630481887264 95.61815240943632 #
point $-1 -6.139476942899786 -191.23630481887264 95.61815240943632 #
straight-curve $-1 6.139476942899786 -191.23630481887264 0 0 0 -1 I I #
straight-curve $-1 6.139476942899786 191.23630481887264 0 0 0 -1 I I #
edge $-1 $885 1 $885 0 $643 $-1 forward 7 unknown #
point $-1 1.5 0 -0.75 #
plane-surface $-1 6.139476942899786 0 0 -1 0 0 0 0 1 forward_v I I I I #
coedge $-1 $652 $650 $654 $824 reversed $416 $-1 #
edge $-1 $665 -95.61815240943632 $826 95.61815240943632 $664 $886 forward 7 unknown #
vertex $-1 $824 $887 #
straight-curve $-1 -6.139476942899786 -191.23630481887264 0 0 0 -1 I I #
edge $-1 $822 -191.23630481887264 $826 191.23630481887264 $820 $888 forward 7 unknown #
straight-curve $-1 0 -191.23630481887264 -95.61815240943632 -1 0 0 I I #
vertex $-1 $657 $889 #
straight-curve $-1 0 191.23630481887264 -95.61815240943632 1 0 0 I I #
point $-1 6.139476942899786 191.23630481887264 -95.61815240943632 #
point $-1 6.139476942899786 -191.23630481887264 -95.61815240943632 #
straight-curve $-1 -6.139476942899786 0 95.61815240943632 0 -1 0 I I #
point $-1 -6.139476942899786 191.23630481887264 95.61815240943632 #
point $-1 -6.139476942899786 -191.23630481887264 95.61815240943632 #
straight-curve $-1 6.139476942899786 -191.23630481887264 0 0 0 -1 I I #
straight-curve $-1 6.139476942899786 191.23630481887264 0 0 0 -1 I I #
edge $-1 $890 1 $890 0 $674 $-1 forward 7 unknown #
point $-1 1.5 0 -0.75 #
plane-surface $-1 8.4037400654803207 0 0 -1 0 0 0 0 1 forward_v I I I I #
coedge $-1 $683 $681 $685 $842 reversed $440 $-1 #
edge $-1 $696 -95.61815240943632 $844 95.61815240943632 $695 $891 forward 7 unknown #
vertex $-1 $842 $892 #
straight-curve $-1 -8.4037400654803207 -191.23630481887264 0 0 0 -1 I I #
edge $-1 $840 -191.23630481887264 $844 191.23630481887264 $838 $893 forward 7 unknown #
straight-curve $-1 0 -191.23630481887264 -95.61815240943632 -1 0 0 I I #
vertex $-1 $688 $894 #
straight-curve $-1 0 191.23630481887264 -95.61815240943632 1 0 0 I I #
point $-1 8.4037400654803207 191.23630481887264 -95.61815240943632 #
point $-1 8.4037400654803207 -191.23630481887264 -95.61815240943632 #
straight-curve $-1 -8.4037400654803207 0 95.61815240943632 0 -1 0 I I #
point $-1 -8.4037400654803207 191.23630481887264 95.61815240943632 #
point $-1 -8.4037400654803207 -191.23630481887264 95.61815240943632 #
straight-curve $-1 8.4037400654803207 -191.23630481887264 0 0 0 -1 I I #
straight-curve $-1 8.4037400654803207 191.23630481887264 0 0 0 -1 I I #
edge $-1 $895 1 $895 0 $705 $-1 forward 7 unknown #
point $-1 1 0 -0.5 #
edge $-1 $896 1 $896 0 $709 $-1 forward 7 unknown #
point $-1 1 0 -0.5 #
edge $-1 $897 1 $897 0 $713 $-1 forward 7 unknown #
point $-1 1 0 -0.5 #
straight-curve $-1 -47.80907620471816 25.196974996250475 0 0 0 -1 I I #
point $-1 -47.80907620471816 -25.196974996250475 -10.051183827585387 #
straight-curve $-1 -47.80907620471816 0 -10.051183827585387 0 1 0 I I #
point $-1 -47.80907620471816 25.196974996250475 -10.051183827585387 #
straight-curve $-1 -4.3403924024945235 1.4999999999999991 0 0 0 -1 I I #
point $-1 -4.3403924024945235 -1.4999999999999991 -10.051183827585387 #
straight-curve $-1 -4.3403924024945235 0 -10.051183827585387 0 1 0 I I #
point $-1 -4.3403924024945235 1.4999999999999991 -10.051183827585387 #
straight-curve $-1 -4.3403924024945226 1.4999999999999991 0 0 0 -1 I I #
point $-1 -4.3403924024945226 -1.4999999999999991 -10.051183827585387 #
straight-curve $-1 -4.3403924024945226 0 -10.051183827585387 0 1 0 I I #
point $-1 -4.3403924024945226 1.4999999999999991 -10.051183827585387 #
straight-curve $-1 -6.139476942899786 191.23630481887264 0 0 0 -1 I I #
point $-1 -6.139476942899786 -191.23630481887264 -95.61815240943632 #
straight-curve $-1 -6.139476942899786 0 -95.61815240943632 0 1 0 I I #
point $-1 -6.139476942899786 191.23630481887264 -95.61815240943632 #
vertex $-1 $781 $898 #
straight-curve $-1 -6.139476942899786 191.23630481887264 0 0 0 -1 I I #
point $-1 -6.139476942899786 -191.23630481887264 -95.61815240943632 #
straight-curve $-1 -6.139476942899786 0 -95.61815240943632 0 1 0 I I #
point $-1 -6.139476942899786 191.23630481887264 -95.61815240943632 #
vertex $-1 $799 $899 #
straight-curve $-1 -6.139476942899786 191.23630481887264 0 0 0 -1 I I #
point $-1 -6.139476942899786 -191.23630481887264 -95.61815240943632 #
straight-curve $-1 -6.139476942899786 0 -95.61815240943632 0 1 0 I I #
point $-1 -6.139476942899786 191.23630481887264 -95.61815240943632 #
vertex $-1 $817 $900 #
straight-curve $-1 -6.139476942899786 191.23630481887264 0 0 0 -1 I I #
point $-1 -6.139476942899786 -191.23630481887264 -95.61815240943632 #
straight-curve $-1 -6.139476942899786 0 -95.61815240943632 0 1 0 I I #
point $-1 -6.139476942899786 191.23630481887264 -95.61815240943632 #
vertex $-1 $835 $901 #
straight-curve $-1 -8.4037400654803207 191.23630481887264 0 0 0 -1 I I #
point $-1 -8.4037400654803207 -191.23630481887264 -95.61815240943632 #
straight-curve $-1 -8.4037400654803207 0 -95.61815240943632 0 1 0 I I #
point $-1 -8.4037400654803207 191.23630481887264 -95.61815240943632 #
vertex $-1 $853 $902 #
vertex $-1 $855 $903 #
vertex $-1 $857 $904 #
point $-1 0 0 0.75 #
point $-1 0 0 0.75 #
point $-1 0 0 0.75 #
point $-1 0 0 0.75 #
point $-1 0 0 0.5 #
point $-1 0 0 0.5 #
point $-1 0 0 0.5 #
End-of-ACIS-data 