500 0 11 0           
7 Unknown 11 ACIS 5.0 NT 24 Fri Mar 26 03:16:26 1999 
-1 9.9999999999999995e-007 1e-010 
body $-1 $11 $-1 $12 #
body $-1 $13 $-1 $14 #
body $-1 $15 $-1 $16 #
body $-1 $17 $-1 $18 #
body $-1 $19 $-1 $20 #
body $-1 $21 $-1 $22 #
body $-1 $23 $-1 $24 #
body $-1 $25 $-1 $26 #
body $-1 $27 $-1 $28 #
body $-1 $29 $-1 $30 #
body $-1 $31 $-1 $32 #
lump $-1 $-1 $33 $0 #
transform $-1 1 0 0 0 1 0 0 0 1 69.458906826990571 42.303223615288388 8.980801246224269 1 rotate no_reflect no_shear #
lump $-1 $-1 $34 $1 #
transform $-1 1 0 0 0 1 0 0 0 1 69.458906826990571 42.303223615288388 8.980801246224269 1 rotate no_reflect no_shear #
lump $-1 $-1 $35 $2 #
transform $-1 1 0 0 0 1 0 0 0 1 69.458906826990571 42.303223615288388 8.980801246224269 1 rotate no_reflect no_shear #
lump $-1 $-1 $36 $3 #
transform $-1 1 0 0 0 1 0 0 0 1 69.458906826990571 42.303223615288388 8.980801246224269 1 rotate no_reflect no_shear #
lump $-1 $-1 $37 $4 #
transform $-1 1 0 0 0 1 0 0 0 1 69.458906826990571 42.303223615288388 8.980801246224269 1 rotate no_reflect no_shear #
lump $-1 $-1 $38 $5 #
transform $-1 1 0 0 0 1 0 0 0 1 69.458906826990571 42.303223615288388 8.980801246224269 1 rotate no_reflect no_shear #
lump $-1 $-1 $39 $6 #
transform $-1 1 0 0 0 1 0 0 0 1 69.458906826990571 42.303223615288388 8.980801246224269 1 rotate no_reflect no_shear #
lump $-1 $-1 $40 $7 #
transform $-1 1 0 0 0 1 0 0 0 1 69.458906826990571 42.303223615288388 8.980801246224269 1 rotate no_reflect no_shear #
lump $-1 $-1 $41 $8 #
transform $-1 1 0 0 0 1 0 0 0 1 69.458906826990571 42.303223615288388 8.980801246224269 1 rotate no_reflect no_shear #
lump $-1 $-1 $42 $9 #
transform $-1 1 0 0 0 1 0 0 0 1 69.458906826990571 42.303223615288388 8.980801246224269 1 rotate no_reflect no_shear #
lump $-1 $-1 $43 $10 #
transform $-1 1 0 0 0 1 0 0 0 1 69.458906826990571 42.303223615288388 8.980801246224269 1 rotate no_reflect no_shear #
shell $-1 $-1 $-1 $44 $-1 $11 #
shell $-1 $-1 $-1 $45 $-1 $13 #
shell $-1 $-1 $-1 $46 $-1 $15 #
shell $-1 $-1 $-1 $47 $-1 $17 #
shell $-1 $-1 $-1 $48 $-1 $19 #
shell $-1 $-1 $-1 $49 $-1 $21 #
shell $-1 $-1 $-1 $50 $-1 $23 #
shell $-1 $-1 $-1 $51 $-1 $25 #
shell $-1 $-1 $-1 $52 $-1 $27 #
shell $-1 $-1 $-1 $53 $-1 $29 #
shell $-1 $-1 $-1 $54 $-1 $31 #
face $-1 $55 $56 $33 $-1 $57 forward single #
face $-1 $58 $59 $34 $-1 $60 reversed single #
face $-1 $61 $62 $35 $-1 $63 reversed single #
face $-1 $64 $65 $36 $-1 $66 reversed single #
face $-1 $67 $68 $37 $-1 $69 forward single #
face $-1 $70 $71 $38 $-1 $72 reversed single #
face $-1 $73 $74 $39 $-1 $75 forward single #
face $-1 $76 $77 $40 $-1 $78 reversed single #
face $-1 $79 $80 $41 $-1 $81 forward single #
face $-1 $82 $83 $42 $-1 $84 reversed single #
face $-1 $85 $86 $43 $-1 $87 forward single #
face $-1 $88 $89 $33 $-1 $90 reversed single #
loop $-1 $-1 $91 $44 #
plane-surface $-1 0 0 8.980801246224269 0 0 1 1 0 0 forward_v I I I I #
face $-1 $92 $93 $34 $-1 $94 reversed single #
loop $-1 $-1 $95 $45 #
plane-surface $-1 -65.461889777454843 -32.91221197363096 0 0 1 0 0 0 1 forward_v I I I I #
face $-1 $96 $97 $35 $-1 $98 reversed single #
loop $-1 $-1 $99 $46 #
plane-surface $-1 65.461889777454829 -32.91221197363096 0 0 1 0 0 0 1 forward_v I I I I #
face $-1 $100 $101 $36 $-1 $102 reversed single #
loop $-1 $-1 $103 $47 #
plane-surface $-1 -38.421793985157386 -119.98508018587258 116.12232776470441 -1 0 0 0 -0.55919291073839883 0.82903756765294845 forward_v I I I I #
face $-1 $104 $105 $37 $-1 $106 forward single #
loop $-1 $107 $108 $48 #
cone-surface $-1 -48.240473039186845 -33.440324352836676 0.64886990615241302 0 0.55919291073839883 -0.82903756765294845 3 0 0 1 I I 0 1 3 forward I I I I #
face $-1 $109 $110 $38 $-1 $111 reversed single #
loop $-1 $-1 $112 $49 #
plane-surface $-1 -6.2614786256994872 -119.98508018587258 116.12232776470441 -1 0 0 0 -0.55919291073839883 0.82903756765294845 forward_v I I I I #
face $-1 $113 $114 $39 $-1 $115 forward single #
loop $-1 $116 $117 $50 #
cone-surface $-1 -16.080157679728948 -33.440324352836676 0.64886990615241302 0 0.55919291073839883 -0.82903756765294845 3 0 0 1 I I 0 1 3 forward I I I I #
face $-1 $118 $119 $40 $-1 $120 reversed single #
loop $-1 $-1 $121 $51 #
plane-surface $-1 25.898836733758401 -119.98508018587258 116.12232776470441 -1 0 0 0 -0.55919291073839883 0.82903756765294845 forward_v I I I I #
face $-1 $122 $123 $41 $-1 $124 forward single #
loop $-1 $125 $126 $52 #
cone-surface $-1 16.080157679728941 -33.440324352836676 0.64886990615241302 0 0.55919291073839883 -0.82903756765294845 3 0 0 1 I I 0 1 3 forward I I I I #
face $-1 $127 $128 $42 $-1 $129 reversed single #
loop $-1 $-1 $130 $53 #
plane-surface $-1 58.059152093216298 -119.98508018587258 116.12232776470441 -1 0 0 0 -0.55919291073839883 0.82903756765294845 forward_v I I I I #
face $-1 $131 $132 $43 $-1 $133 forward single #
loop $-1 $134 $135 $54 #
cone-surface $-1 48.240473039186838 -33.440324352836676 0.64886990615241302 0 0.55919291073839883 -0.82903756765294845 3 0 0 1 I I 0 1 3 forward I I I I #
face $-1 $136 $137 $33 $-1 $138 reversed single #
loop $-1 $-1 $139 $55 #
plane-surface $-1 0 0 -8.980801246224269 0 0 1 1 0 0 forward_v I I I I #
coedge $-1 $140 $141 $142 $143 forward $56 $-1 #
face $-1 $144 $145 $34 $-1 $146 reversed single #
loop $-1 $-1 $147 $58 #
plane-surface $-1 -65.461889777454843 -29.912211973630956 0 0 -1 0 0 0 -1 forward_v I I I I #
coedge $-1 $148 $149 $150 $151 reversed $59 $-1 #
face $-1 $152 $153 $35 $-1 $154 reversed single #
loop $-1 $-1 $155 $61 #
plane-surface $-1 61.464872727919101 -31.412211973630956 0 1 0 0 0 0 -1 forward_v I I I I #
coedge $-1 $156 $157 $158 $159 forward $62 $-1 #
face $-1 $160 $161 $36 $-1 $162 reversed single #
loop $-1 $-1 $163 $64 #
plane-surface $-1 -48.240473039186845 -42.303223615288374 0.95424142934233203 0 -0.55919291073839883 0.82903756765294845 1 0 0 forward_v I I I I #
coedge $-1 $164 $165 $166 $167 reversed $65 $-1 #
face $-1 $-1 $168 $37 $-1 $169 forward single #
loop $-1 $170 $171 $67 #
cone-surface $-1 -48.240473039186845 -29.68856775973704 -4.9133378769579004 0 0.55919291073839883 -0.82903756765294845 1.5 0 0 1 I I -0.70710678118654757 0.70710678118654757 1.5 forward I I I I #
loop $-1 $-1 $172 $48 #
coedge $-1 $108 $108 $173 $174 reversed $68 $-1 #
face $-1 $175 $176 $38 $-1 $177 reversed single #
loop $-1 $-1 $178 $70 #
plane-surface $-1 -16.080157679728948 -42.303223615288374 0.95424142934233203 0 -0.55919291073839883 0.82903756765294845 1 0 0 forward_v I I I I #
coedge $-1 $179 $180 $181 $182 reversed $71 $-1 #
face $-1 $-1 $183 $39 $-1 $184 forward single #
loop $-1 $185 $186 $73 #
cone-surface $-1 -16.080157679728948 -29.68856775973704 -4.9133378769579004 0 0.55919291073839883 -0.82903756765294845 1.5 0 0 1 I I -0.70710678118654757 0.70710678118654757 1.5 forward I I I I #
loop $-1 $-1 $187 $50 #
coedge $-1 $117 $117 $188 $189 reversed $74 $-1 #
face $-1 $190 $191 $40 $-1 $192 reversed single #
loop $-1 $-1 $193 $76 #
plane-surface $-1 16.080157679728941 -42.303223615288374 0.95424142934233203 0 -0.55919291073839883 0.82903756765294845 1 0 0 forward_v I I I I #
coedge $-1 $194 $195 $196 $197 reversed $77 $-1 #
face $-1 $-1 $198 $41 $-1 $199 forward single #
loop $-1 $200 $201 $79 #
cone-surface $-1 16.080157679728941 -29.68856775973704 -4.9133378769579004 0 0.55919291073839883 -0.82903756765294845 1.5 0 0 1 I I -0.70710678118654757 0.70710678118654757 1.5 forward I I I I #
loop $-1 $-1 $202 $52 #
coedge $-1 $126 $126 $203 $204 reversed $80 $-1 #
face $-1 $205 $206 $42 $-1 $207 reversed single #
loop $-1 $-1 $208 $82 #
plane-surface $-1 48.240473039186838 -42.303223615288374 0.95424142934233203 0 -0.55919291073839883 0.82903756765294845 1 0 0 forward_v I I I I #
coedge $-1 $209 $210 $211 $212 reversed $83 $-1 #
face $-1 $-1 $213 $43 $-1 $214 forward single #
loop $-1 $215 $216 $85 #
cone-surface $-1 48.240473039186838 -29.68856775973704 -4.9133378769579004 0 0.55919291073839883 -0.82903756765294845 1.5 0 0 1 I I -0.70710678118654757 0.70710678118654757 1.5 forward I I I I #
loop $-1 $-1 $217 $54 #
coedge $-1 $135 $135 $218 $219 reversed $86 $-1 #
face $-1 $220 $221 $33 $-1 $222 reversed single #
loop $-1 $-1 $223 $88 #
plane-surface $-1 0 -42.303223615288388 0 0 1 0 0 0 1 forward_v I I I I #
coedge $-1 $224 $225 $226 $227 forward $89 $-1 #
coedge $-1 $228 $91 $229 $230 forward $56 $-1 #
coedge $-1 $91 $228 $231 $232 forward $56 $-1 #
coedge $-1 $233 $234 $91 $143 reversed $235 $-1 #
edge $-1 $236 -42.303223615288388 $237 42.303223615288388 $142 $238 forward 7 unknown #
face $-1 $239 $240 $34 $-1 $241 reversed single #
loop $-1 $-1 $242 $92 #
plane-surface $-1 -61.464872727919115 -31.412211973630956 0 -1 0 0 0 0 1 forward_v I I I I #
coedge $-1 $243 $244 $245 $246 forward $93 $-1 #
coedge $-1 $247 $95 $248 $249 reversed $59 $-1 #
coedge $-1 $95 $247 $250 $251 reversed $59 $-1 #
coedge $-1 $252 $253 $95 $151 forward $254 $-1 #
edge $-1 $255 -8.980801246224269 $256 8.980801246224269 $150 $257 forward 7 unknown #
face $-1 $258 $259 $35 $-1 $260 reversed single #
loop $-1 $-1 $261 $96 #
plane-surface $-1 65.461889777454829 -29.912211973630956 0 0 -1 0 0 0 -1 forward_v I I I I #
coedge $-1 $262 $263 $264 $265 forward $97 $-1 #
coedge $-1 $266 $99 $267 $268 reversed $62 $-1 #
coedge $-1 $99 $266 $269 $270 reversed $62 $-1 #
coedge $-1 $263 $262 $99 $159 reversed $97 $-1 #
edge $-1 $271 -8.980801246224269 $272 8.980801246224269 $158 $273 forward 7 unknown #
face $-1 $274 $275 $36 $-1 $276 forward single #
loop $-1 $-1 $277 $100 #
plane-surface $-1 -58.059152093216305 -119.98508018587258 116.12232776470441 1 0 0 0 0.55919291073839883 -0.82903756765294845 forward_v I I I I #
coedge $-1 $278 $279 $280 $281 reversed $101 $-1 #
coedge $-1 $165 $103 $282 $283 reversed $65 $-1 #
coedge $-1 $103 $164 $278 $284 reversed $65 $-1 #
coedge $-1 $280 $285 $103 $167 forward $275 $-1 #
edge $-1 $286 17.6893164776479 $287 29.589180548567285 $166 $288 forward 7 unknown #
loop $-1 $-1 $173 $104 #
plane-surface $-1 -48.240473039186845 -42.303223615288374 0.95424142934233203 0 -0.55919291073839883 0.82903756765294845 1 0 0 forward_v I I I I #
loop $-1 $-1 $289 $67 #
coedge $-1 $171 $171 $172 $290 reversed $105 $-1 #
coedge $-1 $172 $172 $171 $290 forward $107 $-1 #
coedge $-1 $173 $173 $108 $174 forward $168 $-1 #
edge $-1 $291 8.5086869145373378e-016 $291 6.2831853071796013 $173 $292 forward 7 unknown #
face $-1 $293 $294 $38 $-1 $295 reversed single #
loop $-1 $-1 $296 $109 #
plane-surface $-1 -25.898836733758408 -119.98508018587258 116.12232776470441 1 0 0 0 0.55919291073839883 -0.82903756765294845 forward_v I I I I #
coedge $-1 $297 $298 $299 $300 reversed $110 $-1 #
coedge $-1 $180 $112 $301 $302 reversed $71 $-1 #
coedge $-1 $112 $179 $297 $303 reversed $71 $-1 #
coedge $-1 $299 $304 $112 $182 forward $305 $-1 #
edge $-1 $306 17.6893164776479 $307 29.589180548567285 $181 $308 forward 7 unknown #
loop $-1 $-1 $188 $113 #
plane-surface $-1 -16.080157679728948 -42.303223615288374 0.95424142934233203 0 -0.55919291073839883 0.82903756765294845 1 0 0 forward_v I I I I #
loop $-1 $-1 $309 $73 #
coedge $-1 $186 $186 $187 $310 reversed $114 $-1 #
coedge $-1 $187 $187 $186 $310 forward $116 $-1 #
coedge $-1 $188 $188 $117 $189 forward $183 $-1 #
edge $-1 $311 8.5086869145373378e-016 $311 6.2831853071796013 $188 $312 forward 7 unknown #
face $-1 $313 $314 $40 $-1 $315 reversed single #
loop $-1 $-1 $316 $118 #
plane-surface $-1 6.2614786256994801 -119.98508018587258 116.12232776470441 1 0 0 0 0.55919291073839883 -0.82903756765294845 forward_v I I I I #
coedge $-1 $317 $318 $319 $320 reversed $119 $-1 #
coedge $-1 $195 $121 $321 $322 reversed $77 $-1 #
coedge $-1 $121 $194 $317 $323 reversed $77 $-1 #
coedge $-1 $319 $324 $121 $197 forward $325 $-1 #
edge $-1 $326 17.6893164776479 $327 29.589180548567285 $196 $328 forward 7 unknown #
loop $-1 $-1 $203 $122 #
plane-surface $-1 16.080157679728941 -42.303223615288374 0.95424142934233203 0 -0.55919291073839883 0.82903756765294845 1 0 0 forward_v I I I I #
loop $-1 $-1 $329 $79 #
coedge $-1 $201 $201 $202 $330 reversed $123 $-1 #
coedge $-1 $202 $202 $201 $330 forward $125 $-1 #
coedge $-1 $203 $203 $126 $204 forward $198 $-1 #
edge $-1 $331 8.5086869145373378e-016 $331 6.2831853071796013 $203 $332 forward 7 unknown #
face $-1 $333 $334 $42 $-1 $335 reversed single #
loop $-1 $-1 $336 $127 #
plane-surface $-1 38.421793985157379 -119.98508018587258 116.12232776470441 1 0 0 0 0.55919291073839883 -0.82903756765294845 forward_v I I I I #
coedge $-1 $337 $338 $339 $340 reversed $128 $-1 #
coedge $-1 $210 $130 $341 $342 reversed $83 $-1 #
coedge $-1 $130 $209 $337 $343 reversed $83 $-1 #
coedge $-1 $339 $344 $130 $212 forward $345 $-1 #
edge $-1 $346 17.6893164776479 $347 29.589180548567285 $211 $348 forward 7 unknown #
loop $-1 $-1 $218 $131 #
plane-surface $-1 48.240473039186838 -42.303223615288374 0.95424142934233203 0 -0.55919291073839883 0.82903756765294845 1 0 0 forward_v I I I I #
loop $-1 $-1 $349 $85 #
coedge $-1 $216 $216 $217 $350 reversed $132 $-1 #
coedge $-1 $217 $217 $216 $350 forward $134 $-1 #
coedge $-1 $218 $218 $135 $219 forward $213 $-1 #
edge $-1 $351 8.5086869145373378e-016 $351 6.2831853071796013 $218 $352 forward 7 unknown #
face $-1 $353 $354 $33 $-1 $355 reversed single #
loop $-1 $-1 $356 $136 #
plane-surface $-1 -69.458906826990571 0 0 1 0 0 0 0 -1 forward_v I I I I #
coedge $-1 $357 $231 $358 $359 forward $137 $-1 #
coedge $-1 $360 $139 $357 $361 forward $89 $-1 #
coedge $-1 $139 $360 $362 $363 forward $89 $-1 #
coedge $-1 $234 $233 $139 $227 reversed $235 $-1 #
edge $-1 $364 -42.303223615288388 $365 42.303223615288388 $226 $366 forward 7 unknown #
coedge $-1 $141 $140 $367 $368 forward $56 $-1 #
coedge $-1 $369 $370 $140 $230 reversed $354 $-1 #
edge $-1 $237 -69.458906826990571 $371 69.458906826990571 $229 $372 forward 7 unknown #
coedge $-1 $223 $373 $141 $232 reversed $137 $-1 #
edge $-1 $374 -69.458906826990571 $236 69.458906826990571 $231 $375 forward 7 unknown #
coedge $-1 $226 $142 $373 $376 forward $235 $-1 #
coedge $-1 $142 $226 $369 $377 reversed $235 $-1 #
loop $-1 $-1 $233 $353 #
vertex $-1 $143 $378 #
vertex $-1 $143 $379 #
straight-curve $-1 69.458906826990571 0 8.980801246224269 0 1 0 I I #
face $-1 $380 $381 $34 $-1 $382 forward single #
loop $-1 $-1 $383 $144 #
plane-surface $-1 0 0 -8.980801246224269 0 0 1 1 0 0 forward_v I I I I #
coedge $-1 $384 $385 $247 $386 forward $145 $-1 #
coedge $-1 $387 $147 $383 $388 reversed $93 $-1 #
coedge $-1 $147 $387 $389 $390 reversed $93 $-1 #
coedge $-1 $385 $384 $147 $246 reversed $145 $-1 #
edge $-1 $391 -8.980801246224269 $392 8.980801246224269 $245 $393 forward 7 unknown #
coedge $-1 $149 $148 $242 $386 reversed $59 $-1 #
coedge $-1 $394 $395 $148 $249 forward $240 $-1 #
edge $-1 $396 28.733927839191693 $255 36.727961938263149 $248 $397 forward 7 unknown #
coedge $-1 $398 $399 $149 $251 forward $381 $-1 #
edge $-1 $256 -36.727961938263149 $400 -28.733927839191693 $250 $401 forward 7 unknown #
coedge $-1 $402 $150 $399 $403 reversed $254 $-1 #
coedge $-1 $150 $402 $394 $404 reversed $254 $-1 #
loop $-1 $-1 $402 $380 #
vertex $-1 $404 $405 #
vertex $-1 $151 $406 #
straight-curve $-1 -69.458906826990571 -32.91221197363096 0 0 0 1 I I #
face $-1 $407 $408 $35 $-1 $409 forward single #
loop $-1 $-1 $267 $152 #
plane-surface $-1 0 0 -8.980801246224269 0 0 1 1 0 0 forward_v I I I I #
coedge $-1 $410 $411 $412 $413 reversed $153 $-1 #
coedge $-1 $158 $155 $414 $415 reversed $97 $-1 #
coedge $-1 $155 $158 $416 $417 reversed $97 $-1 #
coedge $-1 $411 $410 $155 $265 reversed $153 $-1 #
edge $-1 $418 -8.980801246224269 $419 8.980801246224269 $264 $420 forward 7 unknown #
coedge $-1 $157 $156 $421 $422 reversed $62 $-1 #
coedge $-1 $414 $423 $156 $268 forward $259 $-1 #
edge $-1 $424 -36.727961938263142 $272 -28.733927839191686 $267 $425 forward 7 unknown #
coedge $-1 $426 $416 $157 $270 forward $408 $-1 #
edge $-1 $271 28.733927839191686 $427 36.727961938263142 $269 $428 forward 7 unknown #
vertex $-1 $270 $429 #
vertex $-1 $268 $430 #
straight-curve $-1 61.464872727919101 -32.91221197363096 0 0 0 -1 I I #
face $-1 $-1 $431 $36 $-1 $432 reversed single #
loop $-1 $-1 $166 $160 #
plane-surface $-1 0 0 8.980801246224269 0 0 1 1 0 0 forward_v I I I I #
coedge $-1 $433 $434 $435 $436 reversed $161 $-1 #
coedge $-1 $437 $163 $165 $284 forward $101 $-1 #
coedge $-1 $163 $437 $433 $438 forward $101 $-1 #
coedge $-1 $435 $166 $163 $281 forward $275 $-1 #
edge $-1 $287 14.301557465563963 $439 33.938915573622879 $280 $440 forward 7 unknown #
coedge $-1 $441 $442 $164 $283 forward $431 $-1 #
edge $-1 $443 -57.106922453009879 $286 -49.080362636127937 $282 $444 forward 7 unknown #
edge $-1 $287 -14.353829711973788 $443 1.7120460491857305e-014 $165 $445 forward 7 unknown #
coedge $-1 $166 $435 $441 $446 forward $275 $-1 #
vertex $-1 $167 $447 #
vertex $-1 $167 $448 #
straight-curve $-1 -38.421793985157386 -59.992540092936288 8.9808012462242672 0 1 0 I I #
coedge $-1 $289 $289 $-1 $449 reversed $170 $-1 #
edge $-1 $450 0 $450 6.2831853071796004 $171 $451 forward 7 unknown #
vertex $-1 $174 $452 #
ellipse-curve $-1 -48.240473039186845 -36.353291579828699 4.9675213377832899 0 -0.55919291073839883 0.82903756765294845 3 0 0 1 I I #
face $-1 $-1 $305 $38 $-1 $453 forward single #
loop $-1 $-1 $454 $175 #
plane-surface $-1 0 -42.303223615288388 0 0 1 0 0 0 1 forward_v I I I I #
coedge $-1 $455 $456 $457 $458 reversed $176 $-1 #
coedge $-1 $459 $178 $180 $303 forward $110 $-1 #
coedge $-1 $178 $459 $455 $460 forward $110 $-1 #
coedge $-1 $457 $181 $178 $300 forward $305 $-1 #
edge $-1 $307 -1.778600214164987 $461 17.858757893893934 $299 $462 forward 7 unknown #
coedge $-1 $463 $464 $179 $302 forward $294 $-1 #
edge $-1 $465 -57.106922453009879 $306 -49.080362636127937 $301 $466 forward 7 unknown #
edge $-1 $307 -14.353829711973788 $465 1.7120460491857305e-014 $180 $467 forward 7 unknown #
coedge $-1 $181 $457 $463 $468 forward $305 $-1 #
loop $-1 $-1 $457 $293 #
vertex $-1 $302 $469 #
vertex $-1 $182 $470 #
straight-curve $-1 -6.2614786256994872 -59.992540092936288 8.9808012462242672 0 1 0 I I #
coedge $-1 $309 $309 $-1 $471 reversed $185 $-1 #
edge $-1 $472 0 $472 6.2831853071796004 $186 $473 forward 7 unknown #
vertex $-1 $189 $474 #
ellipse-curve $-1 -16.080157679728948 -36.353291579828699 4.9675213377832899 0 -0.55919291073839883 0.82903756765294845 3 0 0 1 I I #
face $-1 $-1 $325 $40 $-1 $475 forward single #
loop $-1 $-1 $476 $190 #
plane-surface $-1 0 -42.303223615288388 0 0 1 0 0 0 1 forward_v I I I I #
coedge $-1 $477 $478 $479 $480 reversed $191 $-1 #
coedge $-1 $481 $193 $195 $323 forward $119 $-1 #
coedge $-1 $193 $481 $477 $482 forward $119 $-1 #
coedge $-1 $479 $196 $193 $320 forward $325 $-1 #
edge $-1 $327 -17.85875789389393 $483 1.7786002141649906 $319 $484 forward 7 unknown #
coedge $-1 $485 $486 $194 $322 forward $314 $-1 #
edge $-1 $487 -57.106922453009879 $326 -49.080362636127937 $321 $488 forward 7 unknown #
edge $-1 $327 -14.353829711973788 $487 1.7120460491857305e-014 $195 $489 forward 7 unknown #
coedge $-1 $196 $479 $485 $490 forward $325 $-1 #
loop $-1 $-1 $479 $313 #
vertex $-1 $322 $491 #
vertex $-1 $197 $492 #
straight-curve $-1 25.898836733758401 -59.992540092936288 8.9808012462242672 0 1 0 I I #
coedge $-1 $329 $329 $-1 $493 reversed $200 $-1 #
edge $-1 $494 0 $494 6.2831853071796004 $201 $495 forward 7 unknown #
vertex $-1 $204 $496 #
ellipse-curve $-1 16.080157679728941 -36.353291579828699 4.9675213377832899 0 -0.55919291073839883 0.82903756765294845 3 0 0 1 I I #
face $-1 $-1 $345 $42 $-1 $497 forward single #
loop $-1 $-1 $498 $205 #
plane-surface $-1 0 -42.303223615288388 0 0 1 0 0 0 1 forward_v I I I I #
coedge $-1 $499 $500 $501 $502 reversed $206 $-1 #
coedge $-1 $503 $208 $210 $343 forward $128 $-1 #
coedge $-1 $208 $503 $499 $504 forward $128 $-1 #
coedge $-1 $501 $211 $208 $340 forward $345 $-1 #
edge $-1 $347 -33.938915573622879 $505 -14.30155746556396 $339 $506 forward 7 unknown #
coedge $-1 $507 $508 $209 $342 forward $334 $-1 #
edge $-1 $509 -57.106922453009879 $346 -49.080362636127937 $341 $510 forward 7 unknown #
edge $-1 $347 -14.353829711973788 $509 1.7120460491857305e-014 $210 $511 forward 7 unknown #
coedge $-1 $211 $501 $507 $512 forward $345 $-1 #
loop $-1 $-1 $501 $333 #
vertex $-1 $342 $513 #
vertex $-1 $212 $514 #
straight-curve $-1 58.059152093216298 -59.992540092936288 8.9808012462242672 0 1 0 I I #
coedge $-1 $349 $349 $-1 $515 reversed $215 $-1 #
edge $-1 $516 0 $516 6.2831853071796004 $216 $517 forward 7 unknown #
vertex $-1 $219 $518 #
ellipse-curve $-1 48.240473039186838 -36.353291579828699 4.9675213377832899 0 -0.55919291073839883 0.82903756765294845 3 0 0 1 I I #
face $-1 $-1 $235 $33 $-1 $519 reversed single #
loop $-1 $-1 $369 $220 #
plane-surface $-1 0 42.303223615288388 0 0 -1 0 0 0 -1 forward_v I I I I #
coedge $-1 $520 $367 $370 $521 forward $221 $-1 #
coedge $-1 $373 $223 $224 $361 reversed $137 $-1 #
coedge $-1 $367 $520 $223 $359 reversed $221 $-1 #
edge $-1 $374 -8.980801246224269 $522 8.980801246224269 $358 $523 forward 7 unknown #
coedge $-1 $225 $224 $520 $524 forward $89 $-1 #
edge $-1 $365 -69.458906826990571 $522 69.458906826990571 $357 $525 forward 7 unknown #
coedge $-1 $370 $369 $225 $363 reversed $354 $-1 #
edge $-1 $526 -69.458906826990571 $364 69.458906826990571 $362 $527 forward 7 unknown #
vertex $-1 $227 $528 #
vertex $-1 $376 $529 #
straight-curve $-1 69.458906826990571 0 -8.980801246224269 0 -1 0 I I #
coedge $-1 $356 $358 $228 $368 reversed $221 $-1 #
edge $-1 $371 -42.303223615288388 $374 42.303223615288388 $367 $530 forward 7 unknown #
coedge $-1 $362 $229 $234 $377 forward $354 $-1 #
coedge $-1 $229 $362 $356 $521 reversed $354 $-1 #
vertex $-1 $230 $531 #
straight-curve $-1 0 42.303223615288388 8.980801246224269 -1 0 0 I I #
coedge $-1 $231 $357 $233 $376 reversed $137 $-1 #
vertex $-1 $368 $532 #
straight-curve $-1 0 -42.303223615288388 8.980801246224269 1 0 0 I I #
edge $-1 $236 -8.980801246224269 $365 8.980801246224269 $233 $533 forward 7 unknown #
edge $-1 $237 -8.980801246224269 $364 8.980801246224269 $234 $534 forward 7 unknown #
point $-1 69.458906826990571 -42.303223615288388 8.980801246224269 #
point $-1 69.458906826990571 42.303223615288388 8.980801246224269 #
face $-1 $-1 $254 $34 $-1 $535 reversed single #
loop $-1 $-1 $389 $239 #
plane-surface $-1 0 0 8.980801246224269 0 0 1 1 0 0 forward_v I I I I #
coedge $-1 $395 $394 $243 $388 forward $240 $-1 #
coedge $-1 $245 $242 $395 $536 reversed $145 $-1 #
coedge $-1 $242 $245 $398 $537 reversed $145 $-1 #
edge $-1 $400 -8.980801246224269 $396 8.980801246224269 $242 $538 forward 7 unknown #
coedge $-1 $244 $243 $402 $539 reversed $93 $-1 #
edge $-1 $540 -36.727961938263149 $392 -28.733927839191693 $383 $541 forward 7 unknown #
coedge $-1 $399 $398 $244 $390 forward $381 $-1 #
edge $-1 $391 28.733927839191693 $542 36.727961938263149 $389 $543 forward 7 unknown #
vertex $-1 $390 $544 #
vertex $-1 $388 $545 #
straight-curve $-1 -61.464872727919115 -29.912211973630956 0 0 0 -1 I I #
coedge $-1 $383 $248 $253 $404 forward $240 $-1 #
coedge $-1 $248 $383 $384 $536 forward $240 $-1 #
vertex $-1 $249 $546 #
straight-curve $-1 -32.730944888727421 -32.91221197363096 -8.980801246224269 -1 0 0 I I #
coedge $-1 $389 $250 $385 $537 forward $381 $-1 #
coedge $-1 $250 $389 $252 $403 forward $381 $-1 #
vertex $-1 $251 $547 #
straight-curve $-1 -32.730944888727421 -32.91221197363096 8.980801246224269 1 0 0 I I #
coedge $-1 $253 $252 $387 $539 forward $254 $-1 #
edge $-1 $542 29.912211973630956 $256 32.91221197363096 $252 $548 forward 7 unknown #
edge $-1 $255 -32.91221197363096 $540 -29.912211973630956 $253 $549 forward 7 unknown #
point $-1 -69.458906826990571 -32.91221197363096 -8.980801246224269 #
point $-1 -69.458906826990571 -32.91221197363096 8.980801246224269 #
face $-1 $-1 $550 $35 $-1 $551 reversed single #
loop $-1 $-1 $269 $258 #
plane-surface $-1 0 0 8.980801246224269 0 0 1 1 0 0 forward_v I I I I #
coedge $-1 $264 $261 $552 $553 reversed $153 $-1 #
coedge $-1 $261 $264 $554 $555 reversed $153 $-1 #
coedge $-1 $556 $557 $261 $413 forward $550 $-1 #
edge $-1 $558 -8.980801246224269 $559 8.980801246224269 $412 $560 forward 7 unknown #
coedge $-1 $552 $267 $262 $415 forward $259 $-1 #
edge $-1 $272 -17.20610598681548 $419 -14.206105986815478 $414 $561 forward 7 unknown #
coedge $-1 $269 $554 $263 $417 forward $408 $-1 #
edge $-1 $418 14.206105986815478 $271 17.20610598681548 $416 $562 forward 7 unknown #
vertex $-1 $417 $563 #
vertex $-1 $415 $564 #
straight-curve $-1 61.464872727919101 -29.912211973630956 0 0 0 -1 I I #
coedge $-1 $557 $556 $266 $422 forward $550 $-1 #
edge $-1 $427 -8.980801246224269 $424 8.980801246224269 $421 $565 forward 7 unknown #
coedge $-1 $267 $552 $557 $566 forward $259 $-1 #
vertex $-1 $422 $567 #
straight-curve $-1 32.730944888727414 -32.91221197363096 -8.980801246224269 -1 0 0 I I #
coedge $-1 $554 $269 $556 $568 forward $408 $-1 #
vertex $-1 $568 $569 #
straight-curve $-1 32.730944888727414 -32.91221197363096 8.980801246224269 1 0 0 I I #
point $-1 61.464872727919101 -32.91221197363096 8.980801246224269 #
point $-1 61.464872727919101 -32.91221197363096 -8.980801246224269 #
loop $-1 $-1 $282 $274 #
plane-surface $-1 0 -42.303223615288388 0 0 1 0 0 0 1 forward_v I I I I #
coedge $-1 $434 $277 $279 $438 reversed $161 $-1 #
coedge $-1 $277 $433 $570 $571 reversed $161 $-1 #
coedge $-1 $285 $280 $277 $436 forward $275 $-1 #
edge $-1 $439 -29.589180548567285 $572 -17.6893164776479 $435 $573 forward 7 unknown #
coedge $-1 $279 $278 $442 $574 reversed $101 $-1 #
edge $-1 $575 -1.7120460491857305e-014 $439 14.353829711973788 $433 $576 forward 7 unknown #
vertex $-1 $281 $577 #
straight-curve $-1 -24.120236519593423 -30.403359544369003 8.980801246224269 -1 0 0 I I #
coedge $-1 $570 $282 $285 $446 reversed $431 $-1 #
coedge $-1 $282 $570 $437 $574 forward $431 $-1 #
vertex $-1 $283 $578 #
straight-curve $-1 -38.421793985157386 -42.303223615288388 58.061163882352204 0 0 1 I I #
straight-curve $-1 -38.421793985157386 -42.303223615288374 0.95424142934233203 0 -0.82903756765294845 -0.55919291073839883 I I #
edge $-1 $572 -58.059152093216305 $286 -38.421793985157386 $441 $579 forward 7 unknown #
point $-1 -38.421793985157386 -42.303223615288388 8.980801246224269 #
point $-1 -38.421793985157386 -30.403359544369003 8.980801246224269 #
edge $-1 $580 1 $580 0 $289 $-1 forward 7 unknown #
vertex $-1 $290 $581 #
ellipse-curve $-1 -48.240473039186845 -30.527357125844638 -3.6697815254784776 0 -0.55919291073839883 0.82903756765294845 3 0 0 1 I I #
point $-1 -45.240473039186845 -36.353291579828706 4.967521337783305 #
plane-surface $-1 0 0 8.980801246224269 0 0 1 1 0 0 forward_v I I I I #
coedge $-1 $464 $463 $456 $582 forward $294 $-1 #
coedge $-1 $456 $296 $298 $460 reversed $176 $-1 #
coedge $-1 $296 $455 $454 $582 reversed $176 $-1 #
coedge $-1 $304 $299 $296 $458 forward $305 $-1 #
edge $-1 $461 -29.589180548567285 $583 -17.6893164776479 $457 $584 forward 7 unknown #
coedge $-1 $298 $297 $464 $585 reversed $110 $-1 #
edge $-1 $586 -1.7120460491857305e-014 $461 14.353829711973788 $455 $587 forward 7 unknown #
vertex $-1 $300 $588 #
straight-curve $-1 -8.0400788398644742 -30.403359544369003 8.980801246224269 -1 0 0 I I #
coedge $-1 $454 $301 $304 $468 reversed $294 $-1 #
coedge $-1 $301 $454 $459 $585 forward $294 $-1 #
vertex $-1 $302 $589 #
straight-curve $-1 -6.2614786256994872 -42.303223615288388 58.061163882352204 0 0 1 I I #
straight-curve $-1 -6.2614786256994872 -42.303223615288374 0.95424142934233203 0 -0.82903756765294845 -0.55919291073839883 I I #
edge $-1 $583 -25.898836733758408 $306 -6.2614786256994872 $463 $590 forward 7 unknown #
point $-1 -6.2614786256994872 -42.303223615288388 8.980801246224269 #
point $-1 -6.2614786256994872 -30.403359544369003 8.980801246224269 #
edge $-1 $591 1 $591 0 $309 $-1 forward 7 unknown #
vertex $-1 $310 $592 #
ellipse-curve $-1 -16.080157679728948 -30.527357125844638 -3.6697815254784776 0 -0.55919291073839883 0.82903756765294845 3 0 0 1 I I #
point $-1 -13.080157679728948 -36.353291579828706 4.967521337783305 #
plane-surface $-1 0 0 8.980801246224269 0 0 1 1 0 0 forward_v I I I I #
coedge $-1 $486 $485 $478 $593 forward $314 $-1 #
coedge $-1 $478 $316 $318 $482 reversed $191 $-1 #
coedge $-1 $316 $477 $476 $593 reversed $191 $-1 #
coedge $-1 $324 $319 $316 $480 forward $325 $-1 #
edge $-1 $483 -29.589180548567285 $594 -17.6893164776479 $479 $595 forward 7 unknown #
coedge $-1 $318 $317 $486 $596 reversed $119 $-1 #
edge $-1 $597 -1.7120460491857305e-014 $483 14.353829711973788 $477 $598 forward 7 unknown #
vertex $-1 $320 $599 #
straight-curve $-1 8.0400788398644707 -30.403359544369003 8.980801246224269 -1 0 0 I I #
coedge $-1 $476 $321 $324 $490 reversed $314 $-1 #
coedge $-1 $321 $476 $481 $596 forward $314 $-1 #
vertex $-1 $322 $600 #
straight-curve $-1 25.898836733758401 -42.303223615288388 58.061163882352204 0 0 1 I I #
straight-curve $-1 25.898836733758401 -42.303223615288374 0.95424142934233203 0 -0.82903756765294845 -0.55919291073839883 I I #
edge $-1 $594 6.2614786256994801 $326 25.898836733758401 $485 $601 forward 7 unknown #
point $-1 25.898836733758401 -42.303223615288388 8.980801246224269 #
point $-1 25.898836733758401 -30.403359544369003 8.980801246224269 #
edge $-1 $602 1 $602 0 $329 $-1 forward 7 unknown #
vertex $-1 $330 $603 #
ellipse-curve $-1 16.080157679728941 -30.527357125844638 -3.6697815254784776 0 -0.55919291073839883 0.82903756765294845 3 0 0 1 I I #
point $-1 19.080157679728941 -36.353291579828706 4.967521337783305 #
plane-surface $-1 0 0 8.980801246224269 0 0 1 1 0 0 forward_v I I I I #
coedge $-1 $508 $507 $500 $604 forward $334 $-1 #
coedge $-1 $500 $336 $338 $504 reversed $206 $-1 #
coedge $-1 $336 $499 $498 $604 reversed $206 $-1 #
coedge $-1 $344 $339 $336 $502 forward $345 $-1 #
edge $-1 $505 -29.589180548567285 $605 -17.6893164776479 $501 $606 forward 7 unknown #
coedge $-1 $338 $337 $508 $607 reversed $128 $-1 #
edge $-1 $608 -1.7120460491857305e-014 $505 14.353829711973788 $499 $609 forward 7 unknown #
vertex $-1 $340 $610 #
straight-curve $-1 24.120236519593419 -30.403359544369003 8.980801246224269 -1 0 0 I I #
coedge $-1 $498 $341 $344 $512 reversed $334 $-1 #
coedge $-1 $341 $498 $503 $607 forward $334 $-1 #
vertex $-1 $342 $611 #
straight-curve $-1 58.059152093216298 -42.303223615288388 58.061163882352204 0 0 1 I I #
straight-curve $-1 58.059152093216298 -42.303223615288374 0.95424142934233203 0 -0.82903756765294845 -0.55919291073839883 I I #
edge $-1 $605 38.421793985157379 $346 58.059152093216298 $507 $612 forward 7 unknown #
point $-1 58.059152093216298 -42.303223615288388 8.980801246224269 #
point $-1 58.059152093216298 -30.403359544369003 8.980801246224269 #
edge $-1 $613 1 $613 0 $349 $-1 forward 7 unknown #
vertex $-1 $350 $614 #
ellipse-curve $-1 48.240473039186838 -30.527357125844638 -3.6697815254784776 0 -0.55919291073839883 0.82903756765294845 3 0 0 1 I I #
point $-1 51.240473039186838 -36.353291579828706 4.967521337783305 #
plane-surface $-1 69.458906826990571 0 0 -1 0 0 0 0 1 forward_v I I I I #
coedge $-1 $358 $356 $360 $524 reversed $221 $-1 #
edge $-1 $371 -8.980801246224269 $526 8.980801246224269 $370 $615 forward 7 unknown #
vertex $-1 $524 $616 #
straight-curve $-1 -69.458906826990571 -42.303223615288388 0 0 0 -1 I I #
edge $-1 $522 -42.303223615288388 $526 42.303223615288388 $520 $617 forward 7 unknown #
straight-curve $-1 0 -42.303223615288388 -8.980801246224269 -1 0 0 I I #
vertex $-1 $363 $618 #
straight-curve $-1 0 42.303223615288388 -8.980801246224269 1 0 0 I I #
point $-1 69.458906826990571 42.303223615288388 -8.980801246224269 #
point $-1 69.458906826990571 -42.303223615288388 -8.980801246224269 #
straight-curve $-1 -69.458906826990571 0 8.980801246224269 0 -1 0 I I #
point $-1 -69.458906826990571 42.303223615288388 8.980801246224269 #
point $-1 -69.458906826990571 -42.303223615288388 8.980801246224269 #
straight-curve $-1 69.458906826990571 -42.303223615288388 0 0 0 -1 I I #
straight-curve $-1 69.458906826990571 42.303223615288388 0 0 0 -1 I I #
plane-surface $-1 -69.458906826990571 0 0 1 0 0 0 0 -1 forward_v I I I I #
edge $-1 $392 14.206105986815478 $396 17.20610598681548 $395 $619 forward 7 unknown #
edge $-1 $400 -17.20610598681548 $391 -14.206105986815478 $398 $620 forward 7 unknown #
straight-curve $-1 -61.464872727919115 -32.91221197363096 0 0 0 -1 I I #
edge $-1 $542 -8.980801246224269 $540 8.980801246224269 $402 $621 forward 7 unknown #
vertex $-1 $539 $622 #
straight-curve $-1 -32.730944888727421 -29.912211973630956 -8.980801246224269 1 0 0 I I #
vertex $-1 $403 $623 #
straight-curve $-1 -32.730944888727421 -29.912211973630956 8.980801246224269 -1 0 0 I I #
point $-1 -61.464872727919115 -29.912211973630956 8.980801246224269 #
point $-1 -61.464872727919115 -29.912211973630956 -8.980801246224269 #
point $-1 -61.464872727919115 -32.91221197363096 -8.980801246224269 #
point $-1 -61.464872727919115 -32.91221197363096 8.980801246224269 #
straight-curve $-1 -69.458906826990571 0 8.980801246224269 0 -1 0 I I #
straight-curve $-1 -69.458906826990571 0 -8.980801246224269 0 1 0 I I #
loop $-1 $-1 $421 $407 #
plane-surface $-1 69.458906826990571 0 0 -1 0 0 0 0 1 forward_v I I I I #
coedge $-1 $423 $414 $410 $553 forward $259 $-1 #
edge $-1 $419 28.733927839191686 $558 36.727961938263142 $552 $624 forward 7 unknown #
coedge $-1 $416 $426 $411 $555 forward $408 $-1 #
edge $-1 $559 -36.727961938263142 $418 -28.733927839191686 $554 $625 forward 7 unknown #
coedge $-1 $421 $412 $426 $568 reversed $550 $-1 #
coedge $-1 $412 $421 $423 $566 reversed $550 $-1 #
vertex $-1 $566 $626 #
vertex $-1 $413 $627 #
straight-curve $-1 69.458906826990571 -29.912211973630956 0 0 0 1 I I #
straight-curve $-1 61.464872727919101 -15.706105986815478 -8.980801246224269 0 1 0 I I #
straight-curve $-1 61.464872727919101 -15.706105986815478 8.980801246224269 0 -1 0 I I #
point $-1 61.464872727919101 -29.912211973630956 8.980801246224269 #
point $-1 61.464872727919101 -29.912211973630956 -8.980801246224269 #
straight-curve $-1 69.458906826990571 -32.91221197363096 0 0 0 -1 I I #
edge $-1 $558 29.912211973630956 $424 32.91221197363096 $557 $628 forward 7 unknown #
point $-1 69.458906826990557 -32.91221197363096 -8.980801246224269 #
edge $-1 $427 -32.91221197363096 $559 -29.912211973630956 $556 $629 forward 7 unknown #
point $-1 69.458906826990557 -32.91221197363096 8.980801246224269 #
coedge $-1 $442 $441 $434 $571 forward $431 $-1 #
edge $-1 $572 49.080362636127937 $575 57.106922453009879 $570 $630 forward 7 unknown #
vertex $-1 $446 $631 #
straight-curve $-1 -58.059152093216305 -59.992540092936288 8.9808012462242672 0 -1 0 I I #
edge $-1 $575 -33.938915573622879 $443 -14.301557465563963 $442 $632 forward 7 unknown #
vertex $-1 $574 $633 #
straight-curve $-1 -58.059152093216305 -42.303223615288374 0.95424142934233203 0 0.82903756765294845 0.55919291073839883 I I #
point $-1 -58.059152093216305 -30.403359544369003 8.980801246224269 #
point $-1 -38.421793985157386 -42.303223615288388 0.95424142934232248 #
straight-curve $-1 0 -42.303223615288388 8.980801246224269 1 0 0 I I #
vertex $-1 $449 $634 #
point $-1 -45.240473039186845 -30.527357125844638 -3.6697815254784776 #
edge $-1 $583 49.080362636127937 $586 57.106922453009879 $454 $635 forward 7 unknown #
vertex $-1 $468 $636 #
straight-curve $-1 -25.898836733758408 -59.992540092936288 8.9808012462242672 0 -1 0 I I #
edge $-1 $586 -17.858757893893934 $465 1.778600214164987 $464 $637 forward 7 unknown #
vertex $-1 $585 $638 #
straight-curve $-1 -25.898836733758408 -42.303223615288374 0.95424142934233203 0 0.82903756765294845 0.55919291073839883 I I #
point $-1 -25.898836733758408 -30.403359544369003 8.980801246224269 #
point $-1 -6.2614786256994872 -42.303223615288388 0.95424142934232248 #
straight-curve $-1 0 -42.303223615288388 8.980801246224269 1 0 0 I I #
vertex $-1 $471 $639 #
point $-1 -13.080157679728948 -30.527357125844638 -3.6697815254784776 #
edge $-1 $594 49.080362636127937 $597 57.106922453009879 $476 $640 forward 7 unknown #
vertex $-1 $490 $641 #
straight-curve $-1 6.2614786256994801 -59.992540092936288 8.9808012462242672 0 -1 0 I I #
edge $-1 $597 -1.7786002141649906 $487 17.85875789389393 $486 $642 forward 7 unknown #
vertex $-1 $596 $643 #
straight-curve $-1 6.2614786256994801 -42.303223615288374 0.95424142934233203 0 0.82903756765294845 0.55919291073839883 I I #
point $-1 6.2614786256994801 -30.403359544369003 8.980801246224269 #
point $-1 25.898836733758401 -42.303223615288388 0.95424142934232248 #
straight-curve $-1 0 -42.303223615288388 8.980801246224269 1 0 0 I I #
vertex $-1 $493 $644 #
point $-1 19.080157679728941 -30.527357125844638 -3.6697815254784776 #
edge $-1 $605 49.080362636127937 $608 57.106922453009879 $498 $645 forward 7 unknown #
vertex $-1 $512 $646 #
straight-curve $-1 38.421793985157379 -59.992540092936288 8.9808012462242672 0 -1 0 I I #
edge $-1 $608 14.30155746556396 $509 33.938915573622879 $508 $647 forward 7 unknown #
vertex $-1 $607 $648 #
straight-curve $-1 38.421793985157379 -42.303223615288374 0.95424142934233203 0 0.82903756765294845 0.55919291073839883 I I #
point $-1 38.421793985157379 -30.403359544369003 8.980801246224269 #
point $-1 58.059152093216298 -42.303223615288388 0.95424142934232248 #
straight-curve $-1 0 -42.303223615288388 8.980801246224269 1 0 0 I I #
vertex $-1 $515 $649 #
point $-1 51.240473039186838 -30.527357125844638 -3.6697815254784776 #
straight-curve $-1 -69.458906826990571 42.303223615288388 0 0 0 -1 I I #
point $-1 -69.458906826990571 -42.303223615288388 -8.980801246224269 #
straight-curve $-1 -69.458906826990571 0 -8.980801246224269 0 1 0 I I #
point $-1 -69.458906826990571 42.303223615288388 -8.980801246224269 #
straight-curve $-1 -61.464872727919115 -15.706105986815478 -8.980801246224269 0 -1 0 I I #
straight-curve $-1 -61.464872727919115 -15.706105986815478 8.980801246224269 0 1 0 I I #
straight-curve $-1 -69.458906826990571 -29.912211973630956 0 0 0 -1 I I #
point $-1 -69.458906826990571 -29.912211973630956 -8.980801246224269 #
point $-1 -69.458906826990571 -29.912211973630956 8.980801246224269 #
straight-curve $-1 32.730944888727414 -29.912211973630956 -8.980801246224269 1 0 0 I I #
straight-curve $-1 32.730944888727414 -29.912211973630956 8.980801246224269 -1 0 0 I I #
point $-1 69.458906826990557 -29.912211973630956 -8.980801246224269 #
point $-1 69.458906826990557 -29.912211973630956 8.980801246224269 #
straight-curve $-1 69.458906826990571 0 -8.980801246224269 0 -1 0 I I #
straight-curve $-1 69.458906826990571 0 8.980801246224269 0 1 0 I I #
straight-curve $-1 -58.059152093216305 -42.303223615288388 58.061163882352204 0 0 -1 I I #
point $-1 -58.059152093216305 -42.303223615288388 8.980801246224269 #
straight-curve $-1 -24.120236519593423 -42.303223615288388 0.95424142934232004 1 0 0 I I #
point $-1 -58.059152093216305 -42.303223615288388 0.95424142934232248 #
point $-1 -48.240473039186845 -28.849778393629443 -6.1568942284373236 #
straight-curve $-1 -25.898836733758408 -42.303223615288388 58.061163882352204 0 0 -1 I I #
point $-1 -25.898836733758408 -42.303223615288388 8.980801246224269 #
straight-curve $-1 -8.0400788398644742 -42.303223615288388 0.95424142934232004 1 0 0 I I #
point $-1 -25.898836733758408 -42.303223615288388 0.95424142934232248 #
point $-1 -16.080157679728948 -28.849778393629443 -6.1568942284373236 #
straight-curve $-1 6.2614786256994801 -42.303223615288388 58.061163882352204 0 0 -1 I I #
point $-1 6.2614786256994801 -42.303223615288388 8.980801246224269 #
straight-curve $-1 8.0400788398644707 -42.303223615288388 0.95424142934232004 1 0 0 I I #
point $-1 6.2614786256994801 -42.303223615288388 0.95424142934232248 #
point $-1 16.080157679728941 -28.849778393629443 -6.1568942284373236 #
straight-curve $-1 38.421793985157379 -42.303223615288388 58.061163882352204 0 0 -1 I I #
point $-1 38.421793985157379 -42.303223615288388 8.980801246224269 #
straight-curve $-1 24.120236519593419 -42.303223615288388 0.95424142934232004 1 0 0 I I #
point $-1 38.421793985157379 -42.303223615288388 0.95424142934232248 #
point $-1 48.240473039186838 -28.849778393629443 -6.1568942284373236 #
End-of-ACIS-data 