500 0 16 0           
7 Unknown 11 ACIS 5.0 NT 24 Fri Mar 26 15:59:39 1999 
-1 9.9999999999999995e-007 1e-010 
body $-1 $16 $-1 $17 #
body $-1 $18 $-1 $19 #
body $-1 $20 $-1 $21 #
body $-1 $22 $-1 $23 #
body $-1 $24 $-1 $25 #
body $-1 $26 $-1 $27 #
body $-1 $28 $-1 $29 #
body $-1 $30 $-1 $31 #
body $-1 $32 $-1 $33 #
body $-1 $34 $-1 $35 #
body $-1 $36 $-1 $37 #
body $-1 $38 $-1 $39 #
body $-1 $40 $-1 $41 #
body $-1 $42 $-1 $43 #
body $-1 $44 $-1 $45 #
body $-1 $46 $-1 $47 #
lump $-1 $-1 $48 $0 #
transform $-1 1 0 0 0 1 0 0 0 1 49.364299447614982 29.441111042361861 14.639151527515414 1 rotate no_reflect no_shear #
lump $-1 $-1 $49 $1 #
transform $-1 1 0 0 0 1 0 0 0 1 49.364299447614982 29.441111042361861 14.639151527515414 1 rotate no_reflect no_shear #
lump $-1 $-1 $50 $2 #
transform $-1 1 0 0 0 1 0 0 0 1 49.364299447614982 29.441111042361861 14.639151527515414 1 rotate no_reflect no_shear #
lump $-1 $-1 $51 $3 #
transform $-1 1 0 0 0 1 0 0 0 1 49.364299447614982 29.441111042361861 14.639151527515414 1 rotate no_reflect no_shear #
lump $-1 $-1 $52 $4 #
transform $-1 1 0 0 0 1 0 0 0 1 49.364299447614982 29.441111042361861 14.639151527515414 1 rotate no_reflect no_shear #
lump $-1 $-1 $53 $5 #
transform $-1 1 0 0 0 1 0 0 0 1 49.364299447614982 29.441111042361861 14.639151527515414 1 rotate no_reflect no_shear #
lump $-1 $-1 $54 $6 #
transform $-1 1 0 0 0 1 0 0 0 1 49.364299447614982 29.441111042361861 14.639151527515414 1 rotate no_reflect no_shear #
lump $-1 $-1 $55 $7 #
transform $-1 1 0 0 0 1 0 0 0 1 49.364299447614982 29.441111042361861 14.639151527515414 1 rotate no_reflect no_shear #
lump $-1 $-1 $56 $8 #
transform $-1 1 0 0 0 1 0 0 0 1 49.364299447614982 29.441111042361861 14.639151527515414 1 rotate no_reflect no_shear #
lump $-1 $-1 $57 $9 #
transform $-1 1 0 0 0 1 0 0 0 1 49.364299447614982 29.441111042361861 14.639151527515414 1 rotate no_reflect no_shear #
lump $-1 $-1 $58 $10 #
transform $-1 1 0 0 0 1 0 0 0 1 49.364299447614982 29.441111042361861 14.639151527515414 1 rotate no_reflect no_shear #
lump $-1 $-1 $59 $11 #
transform $-1 1 0 0 0 1 0 0 0 1 49.364299447614982 29.441111042361861 14.639151527515414 1 rotate no_reflect no_shear #
lump $-1 $-1 $60 $12 #
transform $-1 1 0 0 0 1 0 0 0 1 49.364299447614982 29.441111042361861 14.639151527515414 1 rotate no_reflect no_shear #
lump $-1 $-1 $61 $13 #
transform $-1 1 0 0 0 1 0 0 0 1 49.364299447614982 29.441111042361861 14.639151527515414 1 rotate no_reflect no_shear #
lump $-1 $-1 $62 $14 #
transform $-1 1 0 0 0 1 0 0 0 1 49.364299447614982 29.441111042361861 14.639151527515414 1 rotate no_reflect no_shear #
lump $-1 $-1 $63 $15 #
transform $-1 1 0 0 0 1 0 0 0 1 49.364299447614982 29.441111042361861 14.639151527515414 1 rotate no_reflect no_shear #
shell $-1 $-1 $-1 $64 $-1 $16 #
shell $-1 $-1 $-1 $65 $-1 $18 #
shell $-1 $-1 $-1 $66 $-1 $20 #
shell $-1 $-1 $-1 $67 $-1 $22 #
shell $-1 $-1 $-1 $68 $-1 $24 #
shell $-1 $-1 $-1 $69 $-1 $26 #
shell $-1 $-1 $-1 $70 $-1 $28 #
shell $-1 $-1 $-1 $71 $-1 $30 #
shell $-1 $-1 $-1 $72 $-1 $32 #
shell $-1 $-1 $-1 $73 $-1 $34 #
shell $-1 $-1 $-1 $74 $-1 $36 #
shell $-1 $-1 $-1 $75 $-1 $38 #
shell $-1 $-1 $-1 $76 $-1 $40 #
shell $-1 $-1 $-1 $77 $-1 $42 #
shell $-1 $-1 $-1 $78 $-1 $44 #
shell $-1 $-1 $-1 $79 $-1 $46 #
face $-1 $80 $81 $48 $-1 $82 reversed single #
face $-1 $83 $84 $49 $-1 $85 forward single #
face $-1 $86 $87 $50 $-1 $88 reversed single #
face $-1 $89 $90 $51 $-1 $91 forward single #
face $-1 $92 $93 $52 $-1 $94 reversed single #
face $-1 $95 $96 $53 $-1 $97 forward single #
face $-1 $98 $99 $54 $-1 $100 reversed single #
face $-1 $101 $102 $55 $-1 $103 forward single #
face $-1 $104 $105 $56 $-1 $106 reversed single #
face $-1 $107 $108 $57 $-1 $109 forward single #
face $-1 $110 $111 $58 $-1 $112 reversed single #
face $-1 $113 $114 $59 $-1 $115 forward single #
face $-1 $116 $117 $60 $-1 $118 forward single #
face $-1 $119 $120 $61 $-1 $121 reversed single #
face $-1 $122 $123 $62 $-1 $124 forward single #
face $-1 $125 $126 $63 $-1 $127 forward single #
face $-1 $128 $129 $48 $-1 $130 forward single #
loop $-1 $-1 $131 $64 #
plane-surface $-1 -49.364299447614982 0 0 1 0 0 0 0 -1 forward_v I I I I #
face $-1 $132 $133 $49 $-1 $134 reversed single #
loop $-1 $-1 $135 $65 #
plane-surface $-1 -49.364299447614982 0 0 1 0 0 0 0 -1 forward_v I I I I #
face $-1 $136 $137 $50 $-1 $138 reversed single #
loop $-1 $-1 $139 $66 #
plane-surface $-1 -30.019587308220146 63.410862829819713 116.10151606020757 1 0 0 0 -0.74314483375859142 -0.66913059716165679 forward_v I I I I #
face $-1 $140 $141 $51 $-1 $142 forward single #
loop $-1 $143 $144 $67 #
cone-surface $-1 -23.529965526596428 24.235705585521877 9.1612151374666553 0 -0.74314483375859142 -0.66913059716165679 2.5 0 0 1 I I 0 1 2.5 forward I I I I #
face $-1 $145 $146 $52 $-1 $147 reversed single #
loop $-1 $-1 $148 $68 #
plane-surface $-1 -9.8048007852355461 63.410862829819713 116.10151606020757 1 0 0 0 -0.74314483375859142 -0.66913059716165679 forward_v I I I I #
face $-1 $149 $150 $53 $-1 $151 forward single #
loop $-1 $152 $153 $69 #
cone-surface $-1 -3.3151790036118314 24.235705585521877 9.1612151374666553 0 -0.74314483375859142 -0.66913059716165679 2.5 0 0 1 I I 0 1 2.5 forward I I I I #
face $-1 $154 $155 $54 $-1 $156 reversed single #
loop $-1 $-1 $157 $70 #
plane-surface $-1 10.40998573774905 63.410862829819713 116.10151606020757 1 0 0 0 -0.74314483375859142 -0.66913059716165679 forward_v I I I I #
face $-1 $158 $159 $55 $-1 $160 forward single #
loop $-1 $161 $162 $71 #
cone-surface $-1 16.899607519372765 24.235705585521877 9.1612151374666553 0 -0.74314483375859142 -0.66913059716165679 2.5 0 0 1 I I 0 1 2.5 forward I I I I #
face $-1 $163 $164 $56 $-1 $165 reversed single #
loop $-1 $-1 $166 $72 #
plane-surface $-1 30.624772260733646 63.410862829819713 116.10151606020757 1 0 0 0 -0.74314483375859142 -0.66913059716165679 forward_v I I I I #
face $-1 $167 $168 $57 $-1 $169 forward single #
loop $-1 $170 $171 $73 #
cone-surface $-1 37.114394042357361 24.235705585521877 9.1612151374666553 0 -0.74314483375859142 -0.66913059716165679 2.5 0 0 1 I I 0 1 2.5 forward I I I I #
face $-1 $172 $173 $58 $-1 $174 reversed single #
loop $-1 $-1 $175 $74 #
plane-surface $-1 -10.514561061310561 -83.21256057755906 88.13637239385767 -1 0 0 0 -0.54463904215088732 0.83867056331134215 forward_v I I I I #
face $-1 $176 $177 $59 $-1 $178 forward single #
loop $-1 $179 $180 $75 #
cone-surface $-1 -17.904247547906785 -21.499460659067445 8.7885212789767646 0 0.54463904215088732 -0.83867056331134215 1 0 0 1 I I 0 1 1 forward I I I I #
face $-1 $181 $182 $60 $-1 $183 forward single #
loop $-1 $184 $185 $76 #
cone-surface $-1 -13.470435655949046 -21.499460659067445 8.7885212789767646 0 0.54463904215088732 -0.83867056331134215 1 0 0 1 I I 0 1 1 forward I I I I #
face $-1 $186 $187 $61 $-1 $188 reversed single #
loop $-1 $-1 $189 $77 #
plane-surface $-1 32.057524128423942 -83.21256057755906 88.13637239385767 -1 0 0 0 -0.54463904215088732 0.83867056331134215 forward_v I I I I #
face $-1 $190 $191 $62 $-1 $192 forward single #
loop $-1 $193 $194 $78 #
cone-surface $-1 24.667837641827717 -21.499460659067445 8.7885212789767646 0 0.54463904215088732 -0.83867056331134215 1 0 0 1 I I 0 1 1 forward I I I I #
face $-1 $195 $196 $63 $-1 $197 forward single #
loop $-1 $198 $199 $79 #
cone-surface $-1 29.101649533785448 -21.499460659067445 8.7885212789767646 0 0.54463904215088732 -0.83867056331134215 1 0 0 1 I I 0 1 1 forward I I I I #
face $-1 $200 $201 $48 $-1 $202 reversed single #
loop $-1 $-1 $203 $80 #
plane-surface $-1 0 0 14.639151527515414 0 0 1 1 0 0 forward_v I I I I #
coedge $-1 $204 $205 $206 $207 reversed $81 $-1 #
face $-1 $208 $209 $49 $-1 $210 reversed single #
loop $-1 $-1 $211 $83 #
plane-surface $-1 0 0 -14.639151527515414 0 0 1 1 0 0 forward_v I I I I #
coedge $-1 $212 $213 $214 $215 forward $84 $-1 #
face $-1 $216 $217 $50 $-1 $218 reversed single #
loop $-1 $-1 $219 $86 #
plane-surface $-1 -23.529965526596431 -9.9587853833946056 50.03918972450866 0 0.74314483375859142 0.66913059716165679 1 0 0 forward_v I I I I #
coedge $-1 $220 $221 $222 $223 reversed $87 $-1 #
face $-1 $-1 $224 $51 $-1 $225 forward single #
loop $-1 $226 $227 $89 #
cone-surface $-1 -23.529965526596428 21.864148915577985 7.0258559737134423 0 -0.74314483375859142 -0.66913059716165679 1.25 0 0 1 I I -0.70710678118654746 0.70710678118654746 1.25 forward I I I I #
loop $-1 $-1 $228 $67 #
coedge $-1 $144 $144 $229 $230 reversed $90 $-1 #
face $-1 $231 $232 $52 $-1 $233 reversed single #
loop $-1 $-1 $234 $92 #
plane-surface $-1 -3.3151790036118314 -9.9587853833946056 50.03918972450866 0 0.74314483375859142 0.66913059716165679 1 0 0 forward_v I I I I #
coedge $-1 $235 $236 $237 $238 reversed $93 $-1 #
face $-1 $-1 $239 $53 $-1 $240 forward single #
loop $-1 $241 $242 $95 #
cone-surface $-1 -3.3151790036118314 21.864148915577985 7.0258559737134423 0 -0.74314483375859142 -0.66913059716165679 1.25 0 0 1 I I -0.70710678118654746 0.70710678118654746 1.25 forward I I I I #
loop $-1 $-1 $243 $69 #
coedge $-1 $153 $153 $244 $245 reversed $96 $-1 #
face $-1 $246 $247 $54 $-1 $248 reversed single #
loop $-1 $-1 $249 $98 #
plane-surface $-1 16.899607519372765 -9.9587853833946056 50.03918972450866 0 0.74314483375859142 0.66913059716165679 1 0 0 forward_v I I I I #
coedge $-1 $250 $251 $252 $253 reversed $99 $-1 #
face $-1 $-1 $254 $55 $-1 $255 forward single #
loop $-1 $256 $257 $101 #
cone-surface $-1 16.899607519372765 21.864148915577985 7.0258559737134423 0 -0.74314483375859142 -0.66913059716165679 1.25 0 0 1 I I -0.70710678118654746 0.70710678118654746 1.25 forward I I I I #
loop $-1 $-1 $258 $71 #
coedge $-1 $162 $162 $259 $260 reversed $102 $-1 #
face $-1 $261 $262 $56 $-1 $263 reversed single #
loop $-1 $-1 $264 $104 #
plane-surface $-1 37.114394042357361 -9.9587853833946056 50.03918972450866 0 0.74314483375859142 0.66913059716165679 1 0 0 forward_v I I I I #
coedge $-1 $265 $266 $267 $268 reversed $105 $-1 #
face $-1 $-1 $269 $57 $-1 $270 forward single #
loop $-1 $271 $272 $107 #
cone-surface $-1 37.114394042357361 21.864148915577985 7.0258559737134423 0 -0.74314483375859142 -0.66913059716165679 1.25 0 0 1 I I -0.70710678118654746 0.70710678118654746 1.25 forward I I I I #
loop $-1 $-1 $273 $73 #
coedge $-1 $171 $171 $274 $275 reversed $108 $-1 #
face $-1 $276 $277 $58 $-1 $278 reversed single #
loop $-1 $-1 $279 $110 #
plane-surface $-1 -15.687341601927919 -29.441111042361861 5.3356027434555955 0 -0.54463904215088732 0.83867056331134215 1 0 0 forward_v I I I I #
coedge $-1 $280 $281 $282 $283 reversed $111 $-1 #
face $-1 $-1 $284 $59 $-1 $285 forward single #
loop $-1 $286 $287 $113 #
cone-surface $-1 -17.904247547906785 -20.448595027123552 7.1703301408123625 0 0.54463904215088732 -0.83867056331134215 0.5 0 0 1 I I -0.70710678118654746 0.70710678118654746 0.5 forward I I I I #
loop $-1 $-1 $288 $75 #
coedge $-1 $180 $180 $289 $290 reversed $114 $-1 #
face $-1 $-1 $291 $60 $-1 $292 forward single #
loop $-1 $293 $294 $116 #
cone-surface $-1 -13.470435655949046 -20.448595027123552 7.1703301408123625 0 0.54463904215088732 -0.83867056331134215 0.5 0 0 1 I I -0.70710678118654746 0.70710678118654746 0.5 forward I I I I #
loop $-1 $-1 $295 $76 #
coedge $-1 $185 $185 $296 $297 reversed $117 $-1 #
face $-1 $298 $299 $61 $-1 $300 reversed single #
loop $-1 $-1 $301 $119 #
plane-surface $-1 26.884743587806582 -29.441111042361861 5.3356027434555955 0 -0.54463904215088732 0.83867056331134215 1 0 0 forward_v I I I I #
coedge $-1 $302 $303 $304 $305 reversed $120 $-1 #
face $-1 $-1 $306 $62 $-1 $307 forward single #
loop $-1 $308 $309 $122 #
cone-surface $-1 24.667837641827717 -20.448595027123552 7.1703301408123625 0 0.54463904215088732 -0.83867056331134215 0.5 0 0 1 I I -0.70710678118654746 0.70710678118654746 0.5 forward I I I I #
loop $-1 $-1 $310 $78 #
coedge $-1 $194 $194 $311 $312 reversed $123 $-1 #
face $-1 $-1 $313 $63 $-1 $314 forward single #
loop $-1 $315 $316 $125 #
cone-surface $-1 29.101649533785448 -20.448595027123552 7.1703301408123625 0 0.54463904215088732 -0.83867056331134215 0.5 0 0 1 I I -0.70710678118654746 0.70710678118654746 0.5 forward I I I I #
loop $-1 $-1 $317 $79 #
coedge $-1 $199 $199 $318 $319 reversed $126 $-1 #
face $-1 $320 $321 $48 $-1 $322 reversed single #
loop $-1 $-1 $323 $128 #
plane-surface $-1 0 0 -14.639151527515414 0 0 1 1 0 0 forward_v I I I I #
coedge $-1 $324 $325 $326 $327 forward $129 $-1 #
coedge $-1 $328 $131 $329 $330 reversed $81 $-1 #
coedge $-1 $131 $328 $331 $332 forward $81 $-1 #
coedge $-1 $333 $334 $131 $207 forward $201 $-1 #
edge $-1 $335 -29.441111042361861 $336 29.441111042361861 $131 $337 forward 7 unknown #
face $-1 $338 $339 $49 $-1 $340 reversed single #
loop $-1 $-1 $341 $132 #
plane-surface $-1 -56.156513705495463 -20.222412546387879 0 0 1 0 0 0 1 forward_v I I I I #
coedge $-1 $342 $343 $213 $344 forward $133 $-1 #
coedge $-1 $345 $135 $346 $347 reversed $84 $-1 #
coedge $-1 $135 $345 $211 $344 reversed $84 $-1 #
coedge $-1 $348 $349 $135 $215 reversed $350 $-1 #
edge $-1 $351 -14.639151527515414 $352 14.639151527515414 $214 $353 forward 7 unknown #
face $-1 $354 $355 $50 $-1 $356 forward single #
loop $-1 $-1 $357 $136 #
plane-surface $-1 -17.040343744972716 63.410862829819713 116.10151606020757 -1 0 0 0 0.74314483375859142 0.66913059716165679 forward_v I I I I #
coedge $-1 $358 $359 $360 $361 reversed $137 $-1 #
coedge $-1 $221 $139 $362 $363 reversed $87 $-1 #
coedge $-1 $139 $220 $358 $364 reversed $87 $-1 #
coedge $-1 $360 $365 $139 $223 forward $355 $-1 #
edge $-1 $366 2.2643203725479957 $367 9.7898800307366365 $222 $368 forward 7 unknown #
loop $-1 $-1 $229 $140 #
plane-surface $-1 -23.529965526596431 -9.9587853833946056 50.03918972450866 0 0.74314483375859142 0.66913059716165679 1 0 0 forward_v I I I I #
loop $-1 $-1 $369 $89 #
coedge $-1 $227 $227 $228 $370 reversed $141 $-1 #
coedge $-1 $228 $228 $227 $370 forward $143 $-1 #
coedge $-1 $229 $229 $144 $230 forward $224 $-1 #
edge $-1 $371 -1.0731393799056408e-016 $371 6.2831853071796004 $229 $372 forward 7 unknown #
face $-1 $373 $374 $52 $-1 $375 forward single #
loop $-1 $-1 $376 $145 #
plane-surface $-1 3.1744427780118833 63.410862829819713 116.10151606020757 -1 0 0 0 0.74314483375859142 0.66913059716165679 forward_v I I I I #
coedge $-1 $377 $378 $379 $380 reversed $146 $-1 #
coedge $-1 $236 $148 $381 $382 reversed $93 $-1 #
coedge $-1 $148 $235 $377 $383 reversed $93 $-1 #
coedge $-1 $379 $384 $148 $238 forward $374 $-1 #
edge $-1 $385 2.2643203725479957 $386 9.7898800307366365 $237 $387 forward 7 unknown #
loop $-1 $-1 $244 $149 #
plane-surface $-1 -3.3151790036118314 -9.9587853833946056 50.03918972450866 0 0.74314483375859142 0.66913059716165679 1 0 0 forward_v I I I I #
loop $-1 $-1 $388 $95 #
coedge $-1 $242 $242 $243 $389 reversed $150 $-1 #
coedge $-1 $243 $243 $242 $389 forward $152 $-1 #
coedge $-1 $244 $244 $153 $245 forward $239 $-1 #
edge $-1 $390 -1.0731393799056408e-016 $390 6.2831853071796004 $244 $391 forward 7 unknown #
face $-1 $392 $393 $54 $-1 $394 forward single #
loop $-1 $-1 $395 $154 #
plane-surface $-1 23.38922930099648 63.410862829819713 116.10151606020757 -1 0 0 0 0.74314483375859142 0.66913059716165679 forward_v I I I I #
coedge $-1 $396 $397 $398 $399 reversed $155 $-1 #
coedge $-1 $251 $157 $400 $401 reversed $99 $-1 #
coedge $-1 $157 $250 $396 $402 reversed $99 $-1 #
coedge $-1 $398 $403 $157 $253 forward $393 $-1 #
edge $-1 $404 2.2643203725479957 $405 9.7898800307366365 $252 $406 forward 7 unknown #
loop $-1 $-1 $259 $158 #
plane-surface $-1 16.899607519372765 -9.9587853833946056 50.03918972450866 0 0.74314483375859142 0.66913059716165679 1 0 0 forward_v I I I I #
loop $-1 $-1 $407 $101 #
coedge $-1 $257 $257 $258 $408 reversed $159 $-1 #
coedge $-1 $258 $258 $257 $408 forward $161 $-1 #
coedge $-1 $259 $259 $162 $260 forward $254 $-1 #
edge $-1 $409 -1.0731393799056408e-016 $409 6.2831853071796004 $259 $410 forward 7 unknown #
face $-1 $411 $412 $56 $-1 $413 forward single #
loop $-1 $-1 $414 $163 #
plane-surface $-1 43.604015823981072 63.410862829819713 116.10151606020757 -1 0 0 0 0.74314483375859142 0.66913059716165679 forward_v I I I I #
coedge $-1 $415 $416 $417 $418 reversed $164 $-1 #
coedge $-1 $266 $166 $419 $420 reversed $105 $-1 #
coedge $-1 $166 $265 $415 $421 reversed $105 $-1 #
coedge $-1 $417 $422 $166 $268 forward $412 $-1 #
edge $-1 $423 2.2643203725479957 $424 9.7898800307366365 $267 $425 forward 7 unknown #
loop $-1 $-1 $274 $167 #
plane-surface $-1 37.114394042357361 -9.9587853833946056 50.03918972450866 0 0.74314483375859142 0.66913059716165679 1 0 0 forward_v I I I I #
loop $-1 $-1 $426 $107 #
coedge $-1 $272 $272 $273 $427 reversed $168 $-1 #
coedge $-1 $273 $273 $272 $427 forward $170 $-1 #
coedge $-1 $274 $274 $171 $275 forward $269 $-1 #
edge $-1 $428 -1.0731393799056408e-016 $428 6.2831853071796004 $274 $429 forward 7 unknown #
face $-1 $430 $431 $58 $-1 $432 forward single #
loop $-1 $-1 $433 $172 #
plane-surface $-1 -20.860122142545279 -83.21256057755906 88.13637239385767 1 0 0 0 0.54463904215088732 -0.83867056331134215 forward_v I I I I #
coedge $-1 $434 $435 $436 $437 reversed $173 $-1 #
coedge $-1 $281 $175 $438 $439 reversed $111 $-1 #
coedge $-1 $175 $280 $434 $440 reversed $111 $-1 #
coedge $-1 $436 $441 $175 $283 forward $431 $-1 #
edge $-1 $442 12.165169246417669 $443 26.491377791269578 $282 $444 forward 7 unknown #
loop $-1 $-1 $289 $176 #
plane-surface $-1 -15.687341601927919 -29.441111042361861 5.3356027434555955 0 -0.54463904215088732 0.83867056331134215 1 0 0 forward_v I I I I #
loop $-1 $-1 $445 $113 #
coedge $-1 $287 $287 $288 $446 reversed $177 $-1 #
coedge $-1 $288 $288 $287 $446 forward $179 $-1 #
coedge $-1 $289 $289 $180 $290 forward $284 $-1 #
edge $-1 $447 -8.1320024813685592e-016 $447 6.2831853071795996 $289 $448 forward 7 unknown #
loop $-1 $-1 $296 $181 #
plane-surface $-1 -15.687341601927919 -29.441111042361861 5.3356027434555955 0 -0.54463904215088732 0.83867056331134215 1 0 0 forward_v I I I I #
loop $-1 $-1 $449 $116 #
coedge $-1 $294 $294 $295 $450 reversed $182 $-1 #
coedge $-1 $295 $295 $294 $450 forward $184 $-1 #
coedge $-1 $296 $296 $185 $297 forward $291 $-1 #
edge $-1 $451 -8.1320024813685592e-016 $451 6.2831853071795996 $296 $452 forward 7 unknown #
face $-1 $453 $454 $61 $-1 $455 reversed single #
loop $-1 $-1 $456 $186 #
plane-surface $-1 21.711963047189222 -83.21256057755906 88.13637239385767 1 0 0 0 0.54463904215088732 -0.83867056331134215 forward_v I I I I #
coedge $-1 $457 $458 $459 $460 reversed $187 $-1 #
coedge $-1 $303 $189 $461 $462 reversed $120 $-1 #
coedge $-1 $189 $302 $457 $463 reversed $120 $-1 #
coedge $-1 $459 $464 $189 $305 forward $465 $-1 #
edge $-1 $466 12.165169246417669 $467 26.491377791269578 $304 $468 forward 7 unknown #
loop $-1 $-1 $311 $190 #
plane-surface $-1 26.884743587806582 -29.441111042361861 5.3356027434555955 0 -0.54463904215088732 0.83867056331134215 1 0 0 forward_v I I I I #
loop $-1 $-1 $469 $122 #
coedge $-1 $309 $309 $310 $470 reversed $191 $-1 #
coedge $-1 $310 $310 $309 $470 forward $193 $-1 #
coedge $-1 $311 $311 $194 $312 forward $306 $-1 #
edge $-1 $471 -8.1320024813685592e-016 $471 6.2831853071795996 $311 $472 forward 7 unknown #
loop $-1 $-1 $318 $195 #
plane-surface $-1 26.884743587806582 -29.441111042361861 5.3356027434555955 0 -0.54463904215088732 0.83867056331134215 1 0 0 forward_v I I I I #
loop $-1 $-1 $473 $125 #
coedge $-1 $316 $316 $317 $474 reversed $196 $-1 #
coedge $-1 $317 $317 $316 $474 forward $198 $-1 #
coedge $-1 $318 $318 $199 $319 forward $313 $-1 #
edge $-1 $475 -8.1320024813685592e-016 $475 6.2831853071795996 $318 $476 forward 7 unknown #
face $-1 $477 $478 $48 $-1 $479 reversed single #
loop $-1 $-1 $329 $200 #
plane-surface $-1 0 -29.441111042361861 0 0 1 0 0 0 1 forward_v I I I I #
coedge $-1 $334 $333 $480 $481 forward $201 $-1 #
coedge $-1 $482 $203 $483 $484 forward $129 $-1 #
coedge $-1 $203 $482 $485 $486 forward $129 $-1 #
coedge $-1 $487 $488 $203 $327 reversed $489 $-1 #
edge $-1 $490 -29.441111042361861 $491 29.441111042361861 $326 $492 forward 7 unknown #
coedge $-1 $205 $204 $482 $493 reversed $81 $-1 #
coedge $-1 $494 $485 $204 $330 forward $321 $-1 #
edge $-1 $495 -14.639151527515414 $335 14.639151527515414 $204 $496 forward 7 unknown #
coedge $-1 $483 $497 $205 $332 reversed $478 $-1 #
edge $-1 $498 -14.639151527515414 $336 14.639151527515414 $331 $499 forward 7 unknown #
coedge $-1 $323 $206 $497 $500 forward $201 $-1 #
coedge $-1 $206 $323 $494 $501 forward $201 $-1 #
vertex $-1 $207 $502 #
vertex $-1 $500 $503 #
straight-curve $-1 -49.364299447614982 0 -14.639151527515414 0 1 0 I I #
face $-1 $504 $350 $49 $-1 $505 reversed single #
loop $-1 $-1 $506 $208 #
plane-surface $-1 -62.948727963375944 -18.722412546387879 0 1 0 0 0 0 -1 forward_v I I I I #
coedge $-1 $507 $508 $509 $510 forward $209 $-1 #
coedge $-1 $511 $211 $507 $512 forward $133 $-1 #
coedge $-1 $211 $511 $348 $513 forward $133 $-1 #
edge $-1 $351 17.222412546387879 $514 20.222412546387879 $211 $515 forward 7 unknown #
coedge $-1 $213 $212 $516 $517 forward $84 $-1 #
coedge $-1 $518 $519 $212 $347 forward $520 $-1 #
edge $-1 $521 -20.222412546387879 $352 -17.222412546387879 $346 $522 forward 7 unknown #
coedge $-1 $523 $214 $343 $513 reversed $350 $-1 #
coedge $-1 $214 $523 $518 $524 reversed $350 $-1 #
loop $-1 $-1 $214 $338 #
vertex $-1 $344 $525 #
vertex $-1 $524 $526 #
straight-curve $-1 -49.364299447614982 -17.222412546387879 0 0 0 1 I I #
face $-1 $-1 $527 $50 $-1 $528 reversed single #
loop $-1 $-1 $222 $216 #
plane-surface $-1 0 0 14.639151527515414 0 0 1 1 0 0 forward_v I I I I #
coedge $-1 $529 $530 $531 $532 reversed $217 $-1 #
coedge $-1 $533 $219 $221 $364 forward $137 $-1 #
coedge $-1 $219 $533 $529 $534 forward $137 $-1 #
coedge $-1 $531 $222 $219 $361 forward $355 $-1 #
edge $-1 $367 -18.254604544921932 $535 -5.2753609816745008 $360 $536 forward 7 unknown #
coedge $-1 $537 $538 $220 $363 forward $527 $-1 #
edge $-1 $539 -51.769587448083584 $366 -43.41160650258837 $362 $540 forward 7 unknown #
edge $-1 $367 47.635449496366746 $539 58.882222084723701 $221 $541 forward 7 unknown #
coedge $-1 $222 $531 $537 $542 forward $355 $-1 #
vertex $-1 $363 $543 #
vertex $-1 $223 $544 #
straight-curve $-1 -30.019587308220146 31.705431414909857 14.639151527515416 0 -1 0 I I #
coedge $-1 $369 $369 $-1 $545 reversed $226 $-1 #
edge $-1 $546 0 $546 6.2831853071796004 $227 $547 forward 7 unknown #
vertex $-1 $230 $548 #
ellipse-curve $-1 -23.529965526596428 25.678331213267541 10.460161054767809 0 0.74314483375859142 0.66913059716165679 2.5 0 0 1 I I #
face $-1 $-1 $549 $52 $-1 $550 reversed single #
loop $-1 $-1 $237 $231 #
plane-surface $-1 0 0 14.639151527515414 0 0 1 1 0 0 forward_v I I I I #
coedge $-1 $551 $552 $553 $554 reversed $232 $-1 #
coedge $-1 $555 $234 $236 $383 forward $146 $-1 #
coedge $-1 $234 $555 $551 $556 forward $146 $-1 #
coedge $-1 $553 $237 $234 $380 forward $374 $-1 #
edge $-1 $386 -8.1472112834296304 $557 4.832032279817799 $379 $558 forward 7 unknown #
coedge $-1 $559 $560 $235 $382 forward $549 $-1 #
edge $-1 $561 -51.769587448083584 $385 -43.41160650258837 $381 $562 forward 7 unknown #
edge $-1 $386 47.635449496366746 $561 58.882222084723701 $236 $563 forward 7 unknown #
coedge $-1 $237 $553 $559 $564 forward $374 $-1 #
vertex $-1 $238 $565 #
vertex $-1 $238 $566 #
straight-curve $-1 -9.8048007852355461 31.705431414909857 14.639151527515416 0 -1 0 I I #
coedge $-1 $388 $388 $-1 $567 reversed $241 $-1 #
edge $-1 $568 0 $568 6.2831853071796004 $242 $569 forward 7 unknown #
vertex $-1 $245 $570 #
ellipse-curve $-1 -3.3151790036118314 25.678331213267541 10.460161054767809 0 0.74314483375859142 0.66913059716165679 2.5 0 0 1 I I #
face $-1 $-1 $571 $54 $-1 $572 reversed single #
loop $-1 $-1 $252 $246 #
plane-surface $-1 0 0 14.639151527515414 0 0 1 1 0 0 forward_v I I I I #
coedge $-1 $573 $574 $575 $576 reversed $247 $-1 #
coedge $-1 $577 $249 $251 $402 forward $155 $-1 #
coedge $-1 $249 $577 $573 $578 forward $155 $-1 #
coedge $-1 $575 $252 $249 $399 forward $393 $-1 #
edge $-1 $405 1.9601819780626677 $579 14.939425541310097 $398 $580 forward 7 unknown #
coedge $-1 $581 $582 $250 $401 forward $571 $-1 #
edge $-1 $583 -51.769587448083584 $404 -43.41160650258837 $400 $584 forward 7 unknown #
edge $-1 $405 47.635449496366746 $583 58.882222084723701 $251 $585 forward 7 unknown #
coedge $-1 $252 $575 $581 $586 forward $393 $-1 #
vertex $-1 $253 $587 #
vertex $-1 $253 $588 #
straight-curve $-1 10.40998573774905 31.705431414909857 14.639151527515416 0 -1 0 I I #
coedge $-1 $407 $407 $-1 $589 reversed $256 $-1 #
edge $-1 $590 0 $590 6.2831853071796004 $257 $591 forward 7 unknown #
vertex $-1 $260 $592 #
ellipse-curve $-1 16.899607519372765 25.678331213267541 10.460161054767809 0 0.74314483375859142 0.66913059716165679 2.5 0 0 1 I I #
face $-1 $-1 $593 $56 $-1 $594 reversed single #
loop $-1 $-1 $267 $261 #
plane-surface $-1 0 0 14.639151527515414 0 0 1 1 0 0 forward_v I I I I #
coedge $-1 $595 $596 $597 $598 reversed $262 $-1 #
coedge $-1 $599 $264 $266 $421 forward $164 $-1 #
coedge $-1 $264 $599 $595 $600 forward $164 $-1 #
coedge $-1 $597 $267 $264 $418 forward $412 $-1 #
edge $-1 $424 12.067575239554966 $601 25.046818802802392 $417 $602 forward 7 unknown #
coedge $-1 $603 $604 $265 $420 forward $593 $-1 #
edge $-1 $605 -51.769587448083584 $423 -43.41160650258837 $419 $606 forward 7 unknown #
edge $-1 $424 47.635449496366746 $605 58.882222084723701 $266 $607 forward 7 unknown #
coedge $-1 $267 $597 $603 $608 forward $412 $-1 #
vertex $-1 $268 $609 #
vertex $-1 $268 $610 #
straight-curve $-1 30.624772260733646 31.705431414909857 14.639151527515416 0 -1 0 I I #
coedge $-1 $426 $426 $-1 $611 reversed $271 $-1 #
edge $-1 $612 0 $612 6.2831853071796004 $272 $613 forward 7 unknown #
vertex $-1 $275 $614 #
ellipse-curve $-1 37.114394042357361 25.678331213267541 10.460161054767809 0 0.74314483375859142 0.66913059716165679 2.5 0 0 1 I I #
face $-1 $-1 $615 $58 $-1 $616 reversed single #
loop $-1 $-1 $282 $276 #
plane-surface $-1 0 0 14.639151527515414 0 0 1 1 0 0 forward_v I I I I #
coedge $-1 $617 $618 $619 $620 reversed $277 $-1 #
coedge $-1 $621 $279 $281 $440 forward $173 $-1 #
coedge $-1 $279 $621 $617 $622 forward $173 $-1 #
coedge $-1 $619 $282 $279 $437 forward $431 $-1 #
edge $-1 $443 2.6708902603466012 $623 13.01645134158132 $436 $624 forward 7 unknown #
coedge $-1 $625 $626 $280 $439 forward $615 $-1 #
edge $-1 $627 -38.732583453473239 $442 -29.429034669413419 $438 $628 forward 7 unknown #
edge $-1 $443 -17.082045288781107 $627 0 $281 $629 forward 7 unknown #
coedge $-1 $282 $619 $625 $630 forward $431 $-1 #
vertex $-1 $283 $631 #
vertex $-1 $283 $632 #
straight-curve $-1 -10.514561061310561 -41.60628028877953 14.639151527515416 0 1 0 I I #
coedge $-1 $445 $445 $-1 $633 reversed $286 $-1 #
edge $-1 $634 0 $634 6.2831853071796004 $287 $635 forward 7 unknown #
vertex $-1 $290 $636 #
ellipse-curve $-1 -17.904247547906785 -22.278006769935903 9.9873771354855077 0 -0.54463904215088732 0.83867056331134215 1 0 0 1 I I #
coedge $-1 $449 $449 $-1 $637 reversed $293 $-1 #
edge $-1 $638 0 $638 6.2831853071796004 $294 $639 forward 7 unknown #
vertex $-1 $297 $640 #
ellipse-curve $-1 -13.470435655949046 -22.278006769935903 9.9873771354855077 0 -0.54463904215088732 0.83867056331134215 1 0 0 1 I I #
face $-1 $-1 $465 $61 $-1 $641 forward single #
loop $-1 $-1 $642 $298 #
plane-surface $-1 0 -29.441111042361861 0 0 1 0 0 0 1 forward_v I I I I #
coedge $-1 $643 $644 $645 $646 reversed $299 $-1 #
coedge $-1 $647 $301 $303 $463 forward $187 $-1 #
coedge $-1 $301 $647 $643 $648 forward $187 $-1 #
coedge $-1 $645 $304 $301 $460 forward $465 $-1 #
edge $-1 $467 -18.615152334520651 $649 -8.269591253285931 $459 $650 forward 7 unknown #
coedge $-1 $651 $652 $302 $462 forward $454 $-1 #
edge $-1 $653 -38.732583453473239 $466 -29.429034669413419 $461 $654 forward 7 unknown #
edge $-1 $467 -17.082045288781107 $653 0 $303 $655 forward 7 unknown #
coedge $-1 $304 $645 $651 $656 forward $465 $-1 #
loop $-1 $-1 $645 $453 #
vertex $-1 $462 $657 #
vertex $-1 $305 $658 #
straight-curve $-1 32.057524128423942 -41.60628028877953 14.639151527515416 0 1 0 I I #
coedge $-1 $469 $469 $-1 $659 reversed $308 $-1 #
edge $-1 $660 0 $660 6.2831853071796004 $309 $661 forward 7 unknown #
vertex $-1 $312 $662 #
ellipse-curve $-1 24.667837641827717 -22.278006769935903 9.9873771354855077 0 -0.54463904215088732 0.83867056331134215 1 0 0 1 I I #
coedge $-1 $473 $473 $-1 $663 reversed $315 $-1 #
edge $-1 $664 0 $664 6.2831853071796004 $316 $665 forward 7 unknown #
vertex $-1 $319 $666 #
ellipse-curve $-1 29.101649533785448 -22.278006769935903 9.9873771354855077 0 -0.54463904215088732 0.83867056331134215 1 0 0 1 I I #
face $-1 $-1 $489 $48 $-1 $667 reversed single #
loop $-1 $-1 $668 $320 #
plane-surface $-1 0 29.441111042361861 0 0 -1 0 0 0 -1 forward_v I I I I #
coedge $-1 $488 $487 $323 $481 reversed $489 $-1 #
edge $-1 $669 -29.441111042361861 $670 29.441111042361861 $480 $671 forward 7 unknown #
coedge $-1 $325 $324 $328 $493 forward $129 $-1 #
coedge $-1 $668 $331 $324 $484 reversed $478 $-1 #
edge $-1 $491 -49.364299447614982 $498 49.364299447614982 $483 $672 forward 7 unknown #
coedge $-1 $329 $673 $325 $486 reversed $321 $-1 #
edge $-1 $495 -49.364299447614982 $490 49.364299447614982 $485 $674 forward 7 unknown #
coedge $-1 $480 $326 $673 $675 forward $489 $-1 #
coedge $-1 $326 $480 $668 $676 reversed $489 $-1 #
loop $-1 $-1 $487 $477 #
vertex $-1 $327 $677 #
vertex $-1 $327 $678 #
straight-curve $-1 49.364299447614982 0 14.639151527515414 0 1 0 I I #
edge $-1 $498 -29.441111042361861 $495 29.441111042361861 $328 $679 forward 7 unknown #
coedge $-1 $673 $329 $334 $501 reversed $321 $-1 #
vertex $-1 $493 $680 #
straight-curve $-1 -49.364299447614982 -29.441111042361861 0 0 0 -1 I I #
coedge $-1 $331 $668 $333 $500 reversed $478 $-1 #
vertex $-1 $484 $681 #
straight-curve $-1 -49.364299447614982 29.441111042361861 0 0 0 -1 I I #
edge $-1 $336 -49.364299447614982 $669 49.364299447614982 $497 $682 forward 7 unknown #
edge $-1 $670 -49.364299447614982 $335 49.364299447614982 $494 $683 forward 7 unknown #
point $-1 -49.364299447614982 -29.441111042361861 -14.639151527515414 #
point $-1 -49.364299447614982 29.441111042361861 -14.639151527515414 #
face $-1 $-1 $520 $49 $-1 $684 forward single #
plane-surface $-1 -56.156513705495463 -17.222412546387879 0 0 -1 0 0 0 -1 forward_v I I I I #
coedge $-1 $685 $686 $523 $687 forward $339 $-1 #
coedge $-1 $516 $341 $342 $512 reversed $209 $-1 #
coedge $-1 $341 $516 $519 $688 reversed $209 $-1 #
coedge $-1 $686 $685 $341 $510 reversed $339 $-1 #
edge $-1 $689 -14.639151527515414 $690 14.639151527515414 $509 $691 forward 7 unknown #
coedge $-1 $343 $342 $685 $692 forward $133 $-1 #
edge $-1 $514 -6.7922142578804809 $690 6.7922142578804809 $507 $693 forward 7 unknown #
edge $-1 $694 -6.7922142578804809 $351 6.7922142578804809 $348 $695 forward 7 unknown #
vertex $-1 $512 $696 #
straight-curve $-1 -49.364299447614982 0 -14.639151527515414 0 -1 0 I I #
coedge $-1 $508 $507 $345 $517 reversed $209 $-1 #
edge $-1 $521 -14.639151527515414 $514 14.639151527515414 $516 $697 forward 7 unknown #
coedge $-1 $698 $346 $349 $524 forward $520 $-1 #
coedge $-1 $346 $698 $508 $688 forward $520 $-1 #
loop $-1 $-1 $346 $504 #
vertex $-1 $347 $699 #
straight-curve $-1 -49.364299447614982 0 14.639151527515414 0 1 0 I I #
coedge $-1 $349 $348 $506 $687 reversed $350 $-1 #
edge $-1 $352 -6.7922142578804809 $700 6.7922142578804809 $349 $701 forward 7 unknown #
point $-1 -49.364299447614982 -17.222412546387879 -14.639151527515414 #
point $-1 -49.364299447614982 -17.222412546387879 14.639151527515414 #
loop $-1 $-1 $362 $354 #
plane-surface $-1 0 29.441111042361861 0 0 -1 0 0 0 -1 forward_v I I I I #
coedge $-1 $530 $357 $359 $534 reversed $217 $-1 #
coedge $-1 $357 $529 $702 $703 reversed $217 $-1 #
coedge $-1 $365 $360 $357 $532 forward $355 $-1 #
edge $-1 $535 -9.7898800307366365 $704 -2.2643203725479957 $531 $705 forward 7 unknown #
coedge $-1 $359 $358 $538 $706 reversed $137 $-1 #
edge $-1 $707 -58.882222084723701 $535 -47.635449496366746 $529 $708 forward 7 unknown #
vertex $-1 $361 $709 #
straight-curve $-1 -11.764982763298216 21.915551384173213 14.639151527515413 1 0 0 I I #
coedge $-1 $702 $362 $365 $542 reversed $527 $-1 #
coedge $-1 $362 $702 $533 $706 forward $527 $-1 #
vertex $-1 $363 $710 #
straight-curve $-1 -30.019587308220146 29.441111042361861 58.050758030103786 0 0 1 I I #
straight-curve $-1 -30.019587308220146 -9.9587853833946056 50.03918972450866 0 0.66913059716165679 -0.74314483375859142 I I #
edge $-1 $704 17.040343744972716 $366 30.019587308220146 $537 $711 forward 7 unknown #
point $-1 -30.019587308220146 29.441111042361861 14.639151527515414 #
point $-1 -30.019587308220146 21.91555138417322 14.639151527515416 #
edge $-1 $712 1 $712 0 $369 $-1 forward 7 unknown #
vertex $-1 $370 $713 #
ellipse-curve $-1 -23.529965526596428 22.793079957776225 7.8622692201655138 0 0.74314483375859142 0.66913059716165679 2.5 0 0 1 I I #
point $-1 -21.029965526596428 25.678331213267526 10.460161054767797 #
loop $-1 $-1 $381 $373 #
plane-surface $-1 0 29.441111042361861 0 0 -1 0 0 0 -1 forward_v I I I I #
coedge $-1 $552 $376 $378 $556 reversed $232 $-1 #
coedge $-1 $376 $551 $714 $715 reversed $232 $-1 #
coedge $-1 $384 $379 $376 $554 forward $374 $-1 #
edge $-1 $557 -9.7898800307366365 $716 -2.2643203725479957 $553 $717 forward 7 unknown #
coedge $-1 $378 $377 $560 $718 reversed $146 $-1 #
edge $-1 $719 -58.882222084723701 $557 -47.635449496366746 $551 $720 forward 7 unknown #
vertex $-1 $380 $721 #
straight-curve $-1 -1.6575895018059157 21.915551384173213 14.639151527515413 1 0 0 I I #
coedge $-1 $714 $381 $384 $564 reversed $549 $-1 #
coedge $-1 $381 $714 $555 $718 forward $549 $-1 #
vertex $-1 $382 $722 #
straight-curve $-1 -9.8048007852355461 29.441111042361861 58.050758030103786 0 0 1 I I #
straight-curve $-1 -9.8048007852355461 -9.9587853833946056 50.03918972450866 0 0.66913059716165679 -0.74314483375859142 I I #
edge $-1 $716 -3.1744427780118833 $385 9.8048007852355461 $559 $723 forward 7 unknown #
point $-1 -9.8048007852355461 29.441111042361861 14.639151527515414 #
point $-1 -9.8048007852355461 21.91555138417322 14.639151527515416 #
edge $-1 $724 1 $724 0 $388 $-1 forward 7 unknown #
vertex $-1 $389 $725 #
ellipse-curve $-1 -3.3151790036118314 22.793079957776225 7.8622692201655138 0 0.74314483375859142 0.66913059716165679 2.5 0 0 1 I I #
point $-1 -0.81517900361183138 25.678331213267526 10.460161054767797 #
loop $-1 $-1 $400 $392 #
plane-surface $-1 0 29.441111042361861 0 0 -1 0 0 0 -1 forward_v I I I I #
coedge $-1 $574 $395 $397 $578 reversed $247 $-1 #
coedge $-1 $395 $573 $726 $727 reversed $247 $-1 #
coedge $-1 $403 $398 $395 $576 forward $393 $-1 #
edge $-1 $579 -9.7898800307366365 $728 -2.2643203725479957 $575 $729 forward 7 unknown #
coedge $-1 $397 $396 $582 $730 reversed $155 $-1 #
edge $-1 $731 -58.882222084723701 $579 -47.635449496366746 $573 $732 forward 7 unknown #
vertex $-1 $399 $733 #
straight-curve $-1 8.4498037596863824 21.915551384173213 14.639151527515413 1 0 0 I I #
coedge $-1 $726 $400 $403 $586 reversed $571 $-1 #
coedge $-1 $400 $726 $577 $730 forward $571 $-1 #
vertex $-1 $401 $734 #
straight-curve $-1 10.40998573774905 29.441111042361861 58.050758030103786 0 0 1 I I #
straight-curve $-1 10.40998573774905 -9.9587853833946056 50.03918972450866 0 0.66913059716165679 -0.74314483375859142 I I #
edge $-1 $728 -23.38922930099648 $404 -10.40998573774905 $581 $735 forward 7 unknown #
point $-1 10.40998573774905 29.441111042361861 14.639151527515414 #
point $-1 10.40998573774905 21.91555138417322 14.639151527515416 #
edge $-1 $736 1 $736 0 $407 $-1 forward 7 unknown #
vertex $-1 $408 $737 #
ellipse-curve $-1 16.899607519372765 22.793079957776225 7.8622692201655138 0 0.74314483375859142 0.66913059716165679 2.5 0 0 1 I I #
point $-1 19.399607519372765 25.678331213267526 10.460161054767797 #
loop $-1 $-1 $419 $411 #
plane-surface $-1 0 29.441111042361861 0 0 -1 0 0 0 -1 forward_v I I I I #
coedge $-1 $596 $414 $416 $600 reversed $262 $-1 #
coedge $-1 $414 $595 $738 $739 reversed $262 $-1 #
coedge $-1 $422 $417 $414 $598 forward $412 $-1 #
edge $-1 $601 -9.7898800307366365 $740 -2.2643203725479957 $597 $741 forward 7 unknown #
coedge $-1 $416 $415 $604 $742 reversed $164 $-1 #
edge $-1 $743 -58.882222084723701 $601 -47.635449496366746 $595 $744 forward 7 unknown #
vertex $-1 $418 $745 #
straight-curve $-1 18.557197021178681 21.915551384173213 14.639151527515413 1 0 0 I I #
coedge $-1 $738 $419 $422 $608 reversed $593 $-1 #
coedge $-1 $419 $738 $599 $742 forward $593 $-1 #
vertex $-1 $420 $746 #
straight-curve $-1 30.624772260733646 29.441111042361861 58.050758030103786 0 0 1 I I #
straight-curve $-1 30.624772260733646 -9.9587853833946056 50.03918972450866 0 0.66913059716165679 -0.74314483375859142 I I #
edge $-1 $740 -43.604015823981072 $423 -30.624772260733646 $603 $747 forward 7 unknown #
point $-1 30.624772260733646 29.441111042361861 14.639151527515414 #
point $-1 30.624772260733646 21.91555138417322 14.639151527515416 #
edge $-1 $748 1 $748 0 $426 $-1 forward 7 unknown #
vertex $-1 $427 $749 #
ellipse-curve $-1 37.114394042357361 22.793079957776225 7.8622692201655138 0 0.74314483375859142 0.66913059716165679 2.5 0 0 1 I I #
point $-1 39.614394042357361 25.678331213267526 10.460161054767797 #
loop $-1 $-1 $438 $430 #
plane-surface $-1 0 -29.441111042361861 0 0 1 0 0 0 1 forward_v I I I I #
coedge $-1 $618 $433 $435 $622 reversed $277 $-1 #
coedge $-1 $433 $617 $750 $751 reversed $277 $-1 #
coedge $-1 $441 $436 $433 $620 forward $431 $-1 #
edge $-1 $623 -26.491377791269578 $752 -12.165169246417669 $619 $753 forward 7 unknown #
coedge $-1 $435 $434 $626 $754 reversed $173 $-1 #
edge $-1 $755 0 $623 17.082045288781107 $617 $756 forward 7 unknown #
vertex $-1 $437 $757 #
straight-curve $-1 -7.8436708009639595 -15.114902497509956 14.639151527515414 -1 0 0 I I #
coedge $-1 $750 $438 $441 $630 reversed $615 $-1 #
coedge $-1 $438 $750 $621 $754 forward $615 $-1 #
vertex $-1 $439 $758 #
straight-curve $-1 -10.514561061310561 -29.441111042361861 44.068186196928835 0 0 1 I I #
straight-curve $-1 -10.514561061310561 -29.441111042361861 5.3356027434555955 0 -0.83867056331134215 -0.54463904215088732 I I #
edge $-1 $752 -20.860122142545279 $442 -10.514561061310561 $625 $759 forward 7 unknown #
point $-1 -10.514561061310561 -29.441111042361861 14.639151527515414 #
point $-1 -10.514561061310561 -15.114902497509952 14.639151527515414 #
edge $-1 $760 1 $760 0 $445 $-1 forward 7 unknown #
vertex $-1 $446 $761 #
ellipse-curve $-1 -17.904247547906785 -20.720914548198998 7.589665422468034 0 -0.54463904215088732 0.83867056331134215 1 0 0 1 I I #
point $-1 -16.904247547906785 -22.278006769935896 9.9873771354854952 #
edge $-1 $762 1 $762 0 $449 $-1 forward 7 unknown #
vertex $-1 $450 $763 #
ellipse-curve $-1 -13.470435655949046 -20.720914548198998 7.589665422468034 0 -0.54463904215088732 0.83867056331134215 1 0 0 1 I I #
point $-1 -12.470435655949046 -22.278006769935896 9.9873771354854952 #
plane-surface $-1 0 0 14.639151527515414 0 0 1 1 0 0 forward_v I I I I #
coedge $-1 $652 $651 $644 $764 forward $454 $-1 #
coedge $-1 $644 $456 $458 $648 reversed $299 $-1 #
coedge $-1 $456 $643 $642 $764 reversed $299 $-1 #
coedge $-1 $464 $459 $456 $646 forward $465 $-1 #
edge $-1 $649 -26.491377791269578 $765 -12.165169246417669 $645 $766 forward 7 unknown #
coedge $-1 $458 $457 $652 $767 reversed $187 $-1 #
edge $-1 $768 0 $649 17.082045288781107 $643 $769 forward 7 unknown #
vertex $-1 $460 $770 #
straight-curve $-1 13.442371793903291 -15.114902497509956 14.639151527515414 -1 0 0 I I #
coedge $-1 $642 $461 $464 $656 reversed $454 $-1 #
coedge $-1 $461 $642 $647 $767 forward $454 $-1 #
vertex $-1 $462 $771 #
straight-curve $-1 32.057524128423942 -29.441111042361861 44.068186196928835 0 0 1 I I #
straight-curve $-1 32.057524128423942 -29.441111042361861 5.3356027434555955 0 -0.83867056331134215 -0.54463904215088732 I I #
edge $-1 $765 21.711963047189222 $466 32.057524128423942 $651 $772 forward 7 unknown #
point $-1 32.057524128423942 -29.441111042361861 14.639151527515414 #
point $-1 32.057524128423942 -15.114902497509952 14.639151527515414 #
edge $-1 $773 1 $773 0 $469 $-1 forward 7 unknown #
vertex $-1 $470 $774 #
ellipse-curve $-1 24.667837641827717 -20.720914548198998 7.589665422468034 0 -0.54463904215088732 0.83867056331134215 1 0 0 1 I I #
point $-1 25.667837641827717 -22.278006769935896 9.9873771354854952 #
edge $-1 $775 1 $775 0 $473 $-1 forward 7 unknown #
vertex $-1 $474 $776 #
ellipse-curve $-1 29.101649533785448 -20.720914548198998 7.589665422468034 0 -0.54463904215088732 0.83867056331134215 1 0 0 1 I I #
point $-1 30.101649533785448 -22.278006769935896 9.9873771354854952 #
plane-surface $-1 49.364299447614982 0 0 -1 0 0 0 0 1 forward_v I I I I #
coedge $-1 $497 $483 $488 $676 forward $478 $-1 #
vertex $-1 $481 $777 #
vertex $-1 $675 $778 #
straight-curve $-1 49.364299447614982 0 -14.639151527515414 0 -1 0 I I #
straight-curve $-1 0 29.441111042361861 14.639151527515414 -1 0 0 I I #
coedge $-1 $485 $494 $487 $675 reversed $321 $-1 #
straight-curve $-1 0 -29.441111042361861 14.639151527515414 1 0 0 I I #
edge $-1 $490 -14.639151527515414 $670 14.639151527515414 $487 $779 forward 7 unknown #
edge $-1 $491 -14.639151527515414 $669 14.639151527515414 $488 $780 forward 7 unknown #
point $-1 49.364299447614982 -29.441111042361861 14.639151527515414 #
point $-1 49.364299447614982 29.441111042361861 14.639151527515414 #
straight-curve $-1 -49.364299447614982 0 14.639151527515414 0 -1 0 I I #
point $-1 -49.364299447614982 -29.441111042361861 14.639151527515414 #
point $-1 -49.364299447614982 29.441111042361861 14.639151527515414 #
straight-curve $-1 0 29.441111042361861 -14.639151527515414 1 0 0 I I #
straight-curve $-1 0 -29.441111042361861 -14.639151527515414 -1 0 0 I I #
plane-surface $-1 0 0 14.639151527515414 0 0 1 1 0 0 forward_v I I I I #
coedge $-1 $509 $506 $511 $692 reversed $339 $-1 #
coedge $-1 $506 $509 $698 $781 reversed $339 $-1 #
edge $-1 $700 -14.639151527515414 $694 14.639151527515414 $523 $782 forward 7 unknown #
edge $-1 $689 -6.7922142578804809 $521 6.7922142578804809 $508 $783 forward 7 unknown #
vertex $-1 $781 $784 #
vertex $-1 $692 $785 #
straight-curve $-1 -62.948727963375944 -20.222412546387879 0 0 0 -1 I I #
edge $-1 $690 -1.5 $694 1.5 $685 $786 forward 7 unknown #
straight-curve $-1 -56.156513705495463 -20.222412546387879 -14.639151527515414 -1 0 0 I I #
vertex $-1 $513 $787 #
straight-curve $-1 -56.156513705495463 -17.222412546387879 -14.639151527515414 1 0 0 I I #
point $-1 -49.364299447614982 -20.222412546387879 -14.639151527515414 #
straight-curve $-1 -49.364299447614982 -20.222412546387879 0 0 0 -1 I I #
coedge $-1 $519 $518 $686 $781 forward $520 $-1 #
point $-1 -49.364299447614982 -20.222412546387879 14.639151527515414 #
vertex $-1 $524 $788 #
straight-curve $-1 -56.156513705495463 -17.222412546387879 14.639151527515414 -1 0 0 I I #
coedge $-1 $538 $537 $530 $703 forward $527 $-1 #
edge $-1 $704 43.41160650258837 $707 51.769587448083584 $702 $789 forward 7 unknown #
vertex $-1 $542 $790 #
straight-curve $-1 -17.040343744972716 31.705431414909857 14.639151527515416 0 1 0 I I #
edge $-1 $707 5.2753609816745008 $539 18.254604544921932 $538 $791 forward 7 unknown #
vertex $-1 $706 $792 #
straight-curve $-1 -17.040343744972716 -9.9587853833946056 50.03918972450866 0 -0.66913059716165679 0.74314483375859142 I I #
point $-1 -17.040343744972716 21.91555138417322 14.639151527515416 #
point $-1 -30.019587308220146 29.441111042361861 6.2811705820202022 #
straight-curve $-1 0 29.441111042361861 14.639151527515414 -1 0 0 I I #
vertex $-1 $545 $793 #
point $-1 -21.029965526596428 22.793079957776225 7.8622692201655138 #
coedge $-1 $560 $559 $552 $715 forward $549 $-1 #
edge $-1 $716 43.41160650258837 $719 51.769587448083584 $714 $794 forward 7 unknown #
vertex $-1 $564 $795 #
straight-curve $-1 3.1744427780118833 31.705431414909857 14.639151527515416 0 1 0 I I #
edge $-1 $719 -4.832032279817799 $561 8.1472112834296304 $560 $796 forward 7 unknown #
vertex $-1 $718 $797 #
straight-curve $-1 3.1744427780118833 -9.9587853833946056 50.03918972450866 0 -0.66913059716165679 0.74314483375859142 I I #
point $-1 3.1744427780118833 21.91555138417322 14.639151527515416 #
point $-1 -9.8048007852355461 29.441111042361861 6.2811705820202022 #
straight-curve $-1 0 29.441111042361861 14.639151527515414 -1 0 0 I I #
vertex $-1 $567 $798 #
point $-1 -0.81517900361183138 22.793079957776225 7.8622692201655138 #
coedge $-1 $582 $581 $574 $727 forward $571 $-1 #
edge $-1 $728 43.41160650258837 $731 51.769587448083584 $726 $799 forward 7 unknown #
vertex $-1 $586 $800 #
straight-curve $-1 23.38922930099648 31.705431414909857 14.639151527515416 0 1 0 I I #
edge $-1 $731 -14.939425541310097 $583 -1.9601819780626677 $582 $801 forward 7 unknown #
vertex $-1 $730 $802 #
straight-curve $-1 23.38922930099648 -9.9587853833946056 50.03918972450866 0 -0.66913059716165679 0.74314483375859142 I I #
point $-1 23.38922930099648 21.91555138417322 14.639151527515416 #
point $-1 10.40998573774905 29.441111042361861 6.2811705820202022 #
straight-curve $-1 0 29.441111042361861 14.639151527515414 -1 0 0 I I #
vertex $-1 $589 $803 #
point $-1 19.399607519372765 22.793079957776225 7.8622692201655138 #
coedge $-1 $604 $603 $596 $739 forward $593 $-1 #
edge $-1 $740 43.41160650258837 $743 51.769587448083584 $738 $804 forward 7 unknown #
vertex $-1 $608 $805 #
straight-curve $-1 43.604015823981072 31.705431414909857 14.639151527515416 0 1 0 I I #
edge $-1 $743 -25.046818802802392 $605 -12.067575239554966 $604 $806 forward 7 unknown #
vertex $-1 $742 $807 #
straight-curve $-1 43.604015823981072 -9.9587853833946056 50.03918972450866 0 -0.66913059716165679 0.74314483375859142 I I #
point $-1 43.604015823981072 21.91555138417322 14.639151527515416 #
point $-1 30.624772260733646 29.441111042361861 6.2811705820202022 #
straight-curve $-1 0 29.441111042361861 14.639151527515414 -1 0 0 I I #
vertex $-1 $611 $808 #
point $-1 39.614394042357361 22.793079957776225 7.8622692201655138 #
coedge $-1 $626 $625 $618 $751 forward $615 $-1 #
edge $-1 $752 29.429034669413419 $755 38.732583453473239 $750 $809 forward 7 unknown #
vertex $-1 $630 $810 #
straight-curve $-1 -20.860122142545279 -41.60628028877953 14.639151527515416 0 -1 0 I I #
edge $-1 $755 -13.01645134158132 $627 -2.6708902603466012 $626 $811 forward 7 unknown #
vertex $-1 $754 $812 #
straight-curve $-1 -20.860122142545279 -29.441111042361861 5.3356027434555955 0 0.83867056331134215 0.54463904215088732 I I #
point $-1 -20.860122142545279 -15.114902497509952 14.639151527515414 #
point $-1 -10.514561061310561 -29.441111042361861 5.3356027434555955 #
straight-curve $-1 0 -29.441111042361861 14.639151527515414 1 0 0 I I #
vertex $-1 $633 $813 #
point $-1 -16.904247547906785 -20.720914548198998 7.589665422468034 #
vertex $-1 $637 $814 #
point $-1 -12.470435655949046 -20.720914548198998 7.589665422468034 #
edge $-1 $765 29.429034669413419 $768 38.732583453473239 $642 $815 forward 7 unknown #
vertex $-1 $656 $816 #
straight-curve $-1 21.711963047189222 -41.60628028877953 14.639151527515416 0 -1 0 I I #
edge $-1 $768 8.269591253285931 $653 18.615152334520651 $652 $817 forward 7 unknown #
vertex $-1 $767 $818 #
straight-curve $-1 21.711963047189222 -29.441111042361861 5.3356027434555955 0 0.83867056331134215 0.54463904215088732 I I #
point $-1 21.711963047189222 -15.114902497509952 14.639151527515414 #
point $-1 32.057524128423942 -29.441111042361861 5.3356027434555955 #
straight-curve $-1 0 -29.441111042361861 14.639151527515414 1 0 0 I I #
vertex $-1 $659 $819 #
point $-1 25.667837641827717 -20.720914548198998 7.589665422468034 #
vertex $-1 $663 $820 #
point $-1 30.101649533785448 -20.720914548198998 7.589665422468034 #
point $-1 49.364299447614982 29.441111042361861 -14.639151527515414 #
point $-1 49.364299447614982 -29.441111042361861 -14.639151527515414 #
straight-curve $-1 49.364299447614982 -29.441111042361861 0 0 0 -1 I I #
straight-curve $-1 49.364299447614982 29.441111042361861 0 0 0 -1 I I #
edge $-1 $700 -1.5 $689 1.5 $686 $821 forward 7 unknown #
straight-curve $-1 -62.948727963375944 -17.222412546387879 0 0 0 -1 I I #
straight-curve $-1 -56.156513705495463 -20.222412546387879 14.639151527515414 1 0 0 I I #
point $-1 -62.948727963375944 -20.222412546387879 14.639151527515414 #
point $-1 -62.948727963375944 -20.222412546387879 -14.639151527515414 #
straight-curve $-1 -62.948727963375944 -18.722412546387879 -14.639151527515414 0 1 0 I I #
point $-1 -62.948727963375944 -17.222412546387879 -14.639151527515414 #
point $-1 -62.948727963375944 -17.222412546387879 14.639151527515414 #
straight-curve $-1 -17.040343744972716 29.441111042361861 58.050758030103786 0 0 -1 I I #
point $-1 -17.040343744972716 29.441111042361861 14.639151527515414 #
straight-curve $-1 -11.764982763298216 29.441111042361868 6.2811705820201986 -1 0 0 I I #
point $-1 -17.040343744972716 29.441111042361861 6.2811705820202022 #
point $-1 -23.529965526596428 20.935217873379745 6.1894427272613708 #
straight-curve $-1 3.1744427780118833 29.441111042361861 58.050758030103786 0 0 -1 I I #
point $-1 3.1744427780118833 29.441111042361861 14.639151527515414 #
straight-curve $-1 -1.6575895018059157 29.441111042361868 6.2811705820201986 -1 0 0 I I #
point $-1 3.1744427780118833 29.441111042361861 6.2811705820202022 #
point $-1 -3.3151790036118314 20.935217873379745 6.1894427272613708 #
straight-curve $-1 23.38922930099648 29.441111042361861 58.050758030103786 0 0 -1 I I #
point $-1 23.38922930099648 29.441111042361861 14.639151527515414 #
straight-curve $-1 8.4498037596863824 29.441111042361868 6.2811705820201986 -1 0 0 I I #
point $-1 23.38922930099648 29.441111042361861 6.2811705820202022 #
point $-1 16.899607519372765 20.935217873379745 6.1894427272613708 #
straight-curve $-1 43.604015823981072 29.441111042361861 58.050758030103786 0 0 -1 I I #
point $-1 43.604015823981072 29.441111042361861 14.639151527515414 #
straight-curve $-1 18.557197021178681 29.441111042361868 6.2811705820201986 -1 0 0 I I #
point $-1 43.604015823981072 29.441111042361861 6.2811705820202022 #
point $-1 37.114394042357361 20.935217873379745 6.1894427272613708 #
straight-curve $-1 -20.860122142545279 -29.441111042361861 44.068186196928835 0 0 -1 I I #
point $-1 -20.860122142545279 -29.441111042361861 14.639151527515414 #
straight-curve $-1 -7.8436708009639595 -29.441111042361861 5.3356027434555955 1 0 0 I I #
point $-1 -20.860122142545279 -29.441111042361861 5.3356027434555955 #
point $-1 -17.904247547906785 -20.176275506048107 6.7509948591566911 #
point $-1 -13.470435655949046 -20.176275506048107 6.7509948591566911 #
straight-curve $-1 21.711963047189222 -29.441111042361861 44.068186196928835 0 0 -1 I I #
point $-1 21.711963047189222 -29.441111042361861 14.639151527515414 #
straight-curve $-1 13.442371793903291 -29.441111042361861 5.3356027434555955 1 0 0 I I #
point $-1 21.711963047189222 -29.441111042361861 5.3356027434555955 #
point $-1 24.667837641827717 -20.176275506048107 6.7509948591566911 #
point $-1 29.101649533785448 -20.176275506048107 6.7509948591566911 #
straight-curve $-1 -62.948727963375944 -18.722412546387879 14.639151527515414 0 -1 0 I I #
End-of-ACIS-data 