500 0 13 0           
7 Unknown 11 ACIS 5.0 NT 24 Fri Mar 26 14:25:15 1999 
-1 9.9999999999999995e-007 1e-010 
body $-1 $13 $-1 $14 #
body $-1 $15 $-1 $16 #
body $-1 $17 $-1 $18 #
body $-1 $19 $-1 $20 #
body $-1 $21 $-1 $22 #
body $-1 $23 $-1 $24 #
body $-1 $25 $-1 $26 #
body $-1 $27 $-1 $28 #
body $-1 $29 $-1 $30 #
body $-1 $31 $-1 $32 #
body $-1 $33 $-1 $34 #
body $-1 $35 $-1 $36 #
body $-1 $37 $-1 $38 #
lump $-1 $-1 $39 $0 #
transform $-1 1 0 0 0 1 0 0 0 1 63.728751487777338 42.194552160777015 13.652996590613675 1 rotate no_reflect no_shear #
lump $-1 $-1 $40 $1 #
transform $-1 1 0 0 0 1 0 0 0 1 63.728751487777338 5.8880594684003844 17.780213481876615 1 rotate no_reflect no_shear #
lump $-1 $-1 $41 $2 #
transform $-1 1 0 0 0 1 0 0 0 1 63.728751487777338 78.501044853153644 17.780213481876615 1 rotate no_reflect no_shear #
lump $-1 $-1 $42 $3 #
transform $-1 0.48480960649040278 0 -0.87461971476443456 0 1 0 0.87461971476443456 0 0.48480960649040278 177.14172601079338 27.206537053549184 190.10272436361961 1 rotate no_reflect no_shear #
lump $-1 $-1 $43 $4 #
transform $-1 0.48480960649040278 0 -0.87461971476443456 0 -1 0 -0.87461971476443456 0 -0.48480960649040278 119.12402424581092 27.206537053549184 19.059221395449001 1 rotate no_reflect no_shear #
lump $-1 $-1 $44 $5 #
transform $-1 0.48480960649040278 0 -0.87461971476443456 0 1 0 0.87461971476443456 0 0.48480960649040278 177.14172601079338 57.182567268004838 190.10272436361961 1 rotate no_reflect no_shear #
lump $-1 $-1 $45 $6 #
transform $-1 0.48480960649040278 0 -0.87461971476443456 0 -1 0 -0.87461971476443456 0 -0.48480960649040278 119.12402424581092 57.182567268004838 19.059221395449001 1 rotate no_reflect no_shear #
lump $-1 $-1 $46 $7 #
transform $-1 0.85716729658548041 0 0.51503808176128008 0 1 0 -0.51503808176128008 0 0.85716729658548041 -65.645467838612319 16.695592894862763 127.26582314577317 1 rotate no_reflect no_shear #
lump $-1 $-1 $47 $8 #
transform $-1 0.85716729658548041 0 0.51503808176128008 0 -1 0 0.51503808176128008 0 -0.85716729658548041 8.7056363417836131 14.587246912836193 21.040500849122992 1 rotate no_reflect no_shear #
lump $-1 $-1 $48 $9 #
transform $-1 0.85716729658548041 0 0.51503808176128008 0 -1 0 0.51503808176128008 0 -0.85716729658548041 8.7056363417836131 18.80393887688933 21.040500849122992 1 rotate no_reflect no_shear #
lump $-1 $-1 $49 $10 #
transform $-1 0.85716729658548041 0 0.51503808176128008 0 1 0 -0.51503808176128008 0 0.85716729658548041 -65.645467838612319 67.693511426691259 127.26582314577317 1 rotate no_reflect no_shear #
lump $-1 $-1 $50 $11 #
transform $-1 0.85716729658548041 0 0.51503808176128008 0 -1 0 0.51503808176128008 0 -0.85716729658548041 8.7056363417836131 65.585165444664696 21.040500849122992 1 rotate no_reflect no_shear #
lump $-1 $-1 $51 $12 #
transform $-1 0.85716729658548041 0 0.51503808176128008 0 -1 0 0.51503808176128008 0 -0.85716729658548041 8.7056363417836131 69.801857408717837 21.040500849122992 1 rotate no_reflect no_shear #
shell $-1 $-1 $-1 $52 $-1 $13 #
shell $-1 $-1 $-1 $53 $-1 $15 #
shell $-1 $-1 $-1 $54 $-1 $17 #
shell $-1 $-1 $-1 $55 $-1 $19 #
shell $-1 $-1 $-1 $56 $-1 $21 #
shell $-1 $-1 $-1 $57 $-1 $23 #
shell $-1 $-1 $-1 $58 $-1 $25 #
shell $-1 $-1 $-1 $59 $-1 $27 #
shell $-1 $-1 $-1 $60 $-1 $29 #
shell $-1 $-1 $-1 $61 $-1 $31 #
shell $-1 $-1 $-1 $62 $-1 $33 #
shell $-1 $-1 $-1 $63 $-1 $35 #
shell $-1 $-1 $-1 $64 $-1 $37 #
face $-1 $65 $66 $39 $-1 $67 forward single #
face $-1 $68 $69 $40 $-1 $70 forward single #
face $-1 $71 $72 $41 $-1 $73 forward single #
face $-1 $74 $75 $42 $-1 $76 forward single #
face $-1 $77 $78 $43 $-1 $79 forward single #
face $-1 $80 $81 $44 $-1 $82 forward single #
face $-1 $83 $84 $45 $-1 $85 forward single #
face $-1 $86 $87 $46 $-1 $88 forward single #
face $-1 $89 $90 $47 $-1 $91 forward single #
face $-1 $92 $93 $48 $-1 $94 forward single #
face $-1 $95 $96 $49 $-1 $97 forward single #
face $-1 $98 $99 $50 $-1 $100 forward single #
face $-1 $101 $102 $51 $-1 $103 forward single #
face $-1 $104 $105 $39 $-1 $106 reversed single #
loop $-1 $-1 $107 $52 #
plane-surface $-1 0 0 13.652996590613675 0 0 1 1 0 0 forward_v I I I I #
face $-1 $108 $109 $40 $-1 $110 reversed single #
loop $-1 $-1 $111 $53 #
plane-surface $-1 0 0 3.9286479981053839 0 0 1 1 0 0 forward_v I I I I #
face $-1 $112 $113 $41 $-1 $114 reversed single #
loop $-1 $-1 $115 $54 #
plane-surface $-1 0 0 3.9286479981053839 0 0 1 1 0 0 forward_v I I I I #
face $-1 $116 $117 $42 $-1 $118 reversed single #
loop $-1 $-1 $119 $55 #
plane-surface $-1 0 0 127.45750297555469 0 0 1 1 0 0 forward_v I I I I #
face $-1 $120 $121 $43 $-1 $122 forward single #
loop $-1 $123 $124 $56 #
cone-surface $-1 0 0 -3.4797280800805694 0 0 1 1.5 0 0 1 I I 0 1 1.5 forward I I I I #
face $-1 $125 $126 $44 $-1 $127 reversed single #
loop $-1 $-1 $128 $57 #
plane-surface $-1 0 0 127.45750297555469 0 0 1 1 0 0 forward_v I I I I #
face $-1 $129 $130 $45 $-1 $131 forward single #
loop $-1 $132 $133 $58 #
cone-surface $-1 0 0 -3.4797280800805694 0 0 1 1.5 0 0 1 I I 0 1 1.5 forward I I I I #
face $-1 $134 $135 $46 $-1 $136 reversed single #
loop $-1 $-1 $137 $59 #
plane-surface $-1 0 0 127.45750297555468 0 0 1 1 0 0 forward_v I I I I #
face $-1 $138 $139 $47 $-1 $140 forward single #
loop $-1 $141 $142 $60 #
cone-surface $-1 0 0 -1.1945097201452661 0 0 1 1 0 0 1 I I 0 1 1 forward I I I I #
face $-1 $143 $144 $48 $-1 $145 forward single #
loop $-1 $146 $147 $61 #
cone-surface $-1 0 0 -1.1945097201452661 0 0 1 1 0 0 1 I I 0 1 1 forward I I I I #
face $-1 $148 $149 $49 $-1 $150 reversed single #
loop $-1 $-1 $151 $62 #
plane-surface $-1 0 0 127.45750297555468 0 0 1 1 0 0 forward_v I I I I #
face $-1 $152 $153 $50 $-1 $154 forward single #
loop $-1 $155 $156 $63 #
cone-surface $-1 0 0 -1.1945097201452661 0 0 1 1 0 0 1 I I 0 1 1 forward I I I I #
face $-1 $157 $158 $51 $-1 $159 forward single #
loop $-1 $160 $161 $64 #
cone-surface $-1 0 0 -1.1945097201452661 0 0 1 1 0 0 1 I I 0 1 1 forward I I I I #
face $-1 $162 $163 $39 $-1 $164 reversed single #
loop $-1 $-1 $165 $65 #
plane-surface $-1 0 0 -13.652996590613675 0 0 1 1 0 0 forward_v I I I I #
coedge $-1 $166 $167 $168 $169 forward $66 $-1 #
face $-1 $170 $171 $40 $-1 $172 reversed single #
loop $-1 $-1 $173 $68 #
plane-surface $-1 0 0 -3.9286479981053839 0 0 1 1 0 0 forward_v I I I I #
coedge $-1 $174 $175 $176 $177 forward $69 $-1 #
face $-1 $178 $179 $41 $-1 $180 reversed single #
loop $-1 $-1 $181 $71 #
plane-surface $-1 0 0 -3.9286479981053839 0 0 1 1 0 0 forward_v I I I I #
coedge $-1 $182 $183 $184 $185 forward $72 $-1 #
face $-1 $186 $187 $42 $-1 $188 reversed single #
loop $-1 $-1 $189 $74 #
plane-surface $-1 0 0 -127.45750297555469 0 0 1 1 0 0 forward_v I I I I #
coedge $-1 $190 $191 $192 $193 forward $75 $-1 #
face $-1 $-1 $194 $43 $-1 $195 forward single #
loop $-1 $-1 $196 $77 #
plane-surface $-1 0 0 -6.2094561601611389 0 0 -1 -1 0 0 forward_v I I I I #
loop $-1 $-1 $197 $56 #
coedge $-1 $124 $124 $196 $198 reversed $78 $-1 #
face $-1 $199 $200 $44 $-1 $201 reversed single #
loop $-1 $-1 $202 $80 #
plane-surface $-1 0 0 -127.45750297555469 0 0 1 1 0 0 forward_v I I I I #
coedge $-1 $203 $204 $205 $206 forward $81 $-1 #
face $-1 $-1 $207 $45 $-1 $208 forward single #
loop $-1 $-1 $209 $83 #
plane-surface $-1 0 0 -6.2094561601611389 0 0 -1 -1 0 0 forward_v I I I I #
loop $-1 $-1 $210 $58 #
coedge $-1 $133 $133 $209 $211 reversed $84 $-1 #
face $-1 $212 $213 $46 $-1 $214 reversed single #
loop $-1 $-1 $215 $86 #
plane-surface $-1 0 0 -127.45750297555468 0 0 1 1 0 0 forward_v I I I I #
coedge $-1 $216 $217 $218 $219 forward $87 $-1 #
face $-1 $-1 $220 $47 $-1 $221 forward single #
loop $-1 $-1 $222 $89 #
plane-surface $-1 0 0 -1.889019440290534 0 0 -1 -1 0 0 forward_v I I I I #
loop $-1 $-1 $223 $60 #
coedge $-1 $142 $142 $222 $224 reversed $90 $-1 #
face $-1 $-1 $225 $48 $-1 $226 forward single #
loop $-1 $-1 $227 $92 #
plane-surface $-1 0 0 -1.889019440290534 0 0 -1 -1 0 0 forward_v I I I I #
loop $-1 $-1 $228 $61 #
coedge $-1 $147 $147 $227 $229 reversed $93 $-1 #
face $-1 $230 $231 $49 $-1 $232 reversed single #
loop $-1 $-1 $233 $95 #
plane-surface $-1 0 0 -127.45750297555468 0 0 1 1 0 0 forward_v I I I I #
coedge $-1 $234 $235 $236 $237 forward $96 $-1 #
face $-1 $-1 $238 $50 $-1 $239 forward single #
loop $-1 $-1 $240 $98 #
plane-surface $-1 0 0 -1.889019440290534 0 0 -1 -1 0 0 forward_v I I I I #
loop $-1 $-1 $241 $63 #
coedge $-1 $156 $156 $240 $242 reversed $99 $-1 #
face $-1 $-1 $243 $51 $-1 $244 forward single #
loop $-1 $-1 $245 $101 #
plane-surface $-1 0 0 -1.889019440290534 0 0 -1 -1 0 0 forward_v I I I I #
loop $-1 $-1 $246 $64 #
coedge $-1 $161 $161 $245 $247 reversed $102 $-1 #
face $-1 $248 $249 $39 $-1 $250 reversed single #
loop $-1 $-1 $251 $104 #
plane-surface $-1 0 -42.194552160777015 0 0 1 0 0 0 1 forward_v I I I I #
coedge $-1 $252 $253 $254 $255 forward $105 $-1 #
coedge $-1 $256 $107 $257 $258 forward $66 $-1 #
coedge $-1 $107 $256 $259 $260 forward $66 $-1 #
coedge $-1 $261 $262 $107 $169 reversed $263 $-1 #
edge $-1 $264 -42.194552160777015 $265 42.194552160777015 $168 $266 forward 7 unknown #
face $-1 $267 $268 $40 $-1 $269 reversed single #
loop $-1 $-1 $270 $108 #
plane-surface $-1 0 -5.8880594684003844 0 0 1 0 0 0 1 forward_v I I I I #
coedge $-1 $271 $272 $273 $274 forward $109 $-1 #
coedge $-1 $275 $111 $276 $277 forward $69 $-1 #
coedge $-1 $111 $275 $278 $279 forward $69 $-1 #
coedge $-1 $280 $281 $111 $177 reversed $282 $-1 #
edge $-1 $283 -5.8880594684003844 $284 5.8880594684003844 $176 $285 forward 7 unknown #
face $-1 $286 $287 $41 $-1 $288 reversed single #
loop $-1 $-1 $289 $112 #
plane-surface $-1 0 -5.8880594684003853 0 0 1 0 0 0 1 forward_v I I I I #
coedge $-1 $290 $291 $292 $293 forward $113 $-1 #
coedge $-1 $294 $115 $295 $296 forward $72 $-1 #
coedge $-1 $115 $294 $297 $298 forward $72 $-1 #
coedge $-1 $299 $300 $115 $185 reversed $301 $-1 #
edge $-1 $302 -5.8880594684003853 $303 5.8880594684003853 $184 $304 forward 7 unknown #
face $-1 $305 $306 $42 $-1 $307 reversed single #
loop $-1 $-1 $308 $116 #
plane-surface $-1 0 -4.3158304690672562 0 0 1 0 0 0 1 forward_v I I I I #
coedge $-1 $309 $310 $311 $312 forward $117 $-1 #
coedge $-1 $313 $119 $314 $315 forward $75 $-1 #
coedge $-1 $119 $313 $316 $317 forward $75 $-1 #
coedge $-1 $318 $319 $119 $193 reversed $320 $-1 #
edge $-1 $321 -4.3158304690672562 $322 4.3158304690672562 $192 $323 forward 7 unknown #
loop $-1 $324 $325 $120 #
cone-surface $-1 0 0 0 0 0 1 0.75 0 0 1 I I -0.70710678118654757 0.70710678118654757 0.75 forward I I I I #
coedge $-1 $196 $196 $124 $198 forward $121 $-1 #
coedge $-1 $197 $197 $325 $326 forward $123 $-1 #
edge $-1 $327 0 $327 6.2831853071796004 $196 $328 forward 7 unknown #
face $-1 $329 $330 $44 $-1 $331 reversed single #
loop $-1 $-1 $332 $125 #
plane-surface $-1 0 -4.3158304690672562 0 0 1 0 0 0 1 forward_v I I I I #
coedge $-1 $333 $334 $335 $336 forward $126 $-1 #
coedge $-1 $337 $128 $338 $339 forward $81 $-1 #
coedge $-1 $128 $337 $340 $341 forward $81 $-1 #
coedge $-1 $342 $343 $128 $206 reversed $344 $-1 #
edge $-1 $345 -4.3158304690672562 $346 4.3158304690672562 $205 $347 forward 7 unknown #
loop $-1 $348 $349 $129 #
cone-surface $-1 0 0 0 0 0 1 0.75 0 0 1 I I -0.70710678118654757 0.70710678118654757 0.75 forward I I I I #
coedge $-1 $209 $209 $133 $211 forward $130 $-1 #
coedge $-1 $210 $210 $349 $350 forward $132 $-1 #
edge $-1 $351 0 $351 6.2831853071796004 $209 $352 forward 7 unknown #
face $-1 $353 $354 $46 $-1 $355 reversed single #
loop $-1 $-1 $356 $134 #
plane-surface $-1 0 -4.9194739580619933 0 0 1 0 0 0 1 forward_v I I I I #
coedge $-1 $357 $358 $359 $360 forward $135 $-1 #
coedge $-1 $361 $137 $362 $363 forward $87 $-1 #
coedge $-1 $137 $361 $364 $365 forward $87 $-1 #
coedge $-1 $366 $367 $137 $219 reversed $368 $-1 #
edge $-1 $369 -4.9194739580619933 $370 4.9194739580619933 $218 $371 forward 7 unknown #
loop $-1 $372 $373 $138 #
cone-surface $-1 0 0 0 0 0 1 0.5 0 0 1 I I -0.70710678118654746 0.70710678118654746 0.5 forward I I I I #
coedge $-1 $222 $222 $142 $224 forward $139 $-1 #
coedge $-1 $223 $223 $373 $374 forward $141 $-1 #
edge $-1 $375 0 $375 6.2831853071796004 $222 $376 forward 7 unknown #
loop $-1 $377 $378 $143 #
cone-surface $-1 0 0 0 0 0 1 0.5 0 0 1 I I -0.70710678118654746 0.70710678118654746 0.5 forward I I I I #
coedge $-1 $227 $227 $147 $229 forward $144 $-1 #
coedge $-1 $228 $228 $378 $379 forward $146 $-1 #
edge $-1 $380 0 $380 6.2831853071796004 $227 $381 forward 7 unknown #
face $-1 $382 $383 $49 $-1 $384 reversed single #
loop $-1 $-1 $385 $148 #
plane-surface $-1 0 -4.9194739580619933 0 0 1 0 0 0 1 forward_v I I I I #
coedge $-1 $386 $387 $388 $389 forward $149 $-1 #
coedge $-1 $390 $151 $391 $392 forward $96 $-1 #
coedge $-1 $151 $390 $393 $394 forward $96 $-1 #
coedge $-1 $395 $396 $151 $237 reversed $397 $-1 #
edge $-1 $398 -4.9194739580619933 $399 4.9194739580619933 $236 $400 forward 7 unknown #
loop $-1 $401 $402 $152 #
cone-surface $-1 0 0 0 0 0 1 0.5 0 0 1 I I -0.70710678118654746 0.70710678118654746 0.5 forward I I I I #
coedge $-1 $240 $240 $156 $242 forward $153 $-1 #
coedge $-1 $241 $241 $402 $403 forward $155 $-1 #
edge $-1 $404 0 $404 6.2831853071796004 $240 $405 forward 7 unknown #
loop $-1 $406 $407 $157 #
cone-surface $-1 0 0 0 0 0 1 0.5 0 0 1 I I -0.70710678118654746 0.70710678118654746 0.5 forward I I I I #
coedge $-1 $245 $245 $161 $247 forward $158 $-1 #
coedge $-1 $246 $246 $407 $408 forward $160 $-1 #
edge $-1 $409 0 $409 6.2831853071796004 $245 $410 forward 7 unknown #
face $-1 $411 $412 $39 $-1 $413 reversed single #
loop $-1 $-1 $414 $162 #
plane-surface $-1 -63.728751487777338 0 0 1 0 0 0 0 -1 forward_v I I I I #
coedge $-1 $415 $259 $416 $417 forward $163 $-1 #
coedge $-1 $418 $165 $415 $419 forward $105 $-1 #
coedge $-1 $165 $418 $420 $421 forward $105 $-1 #
coedge $-1 $262 $261 $165 $255 reversed $263 $-1 #
edge $-1 $422 -42.194552160777015 $423 42.194552160777015 $254 $424 forward 7 unknown #
coedge $-1 $167 $166 $425 $426 forward $66 $-1 #
coedge $-1 $427 $428 $166 $258 reversed $412 $-1 #
edge $-1 $265 -63.728751487777338 $429 63.728751487777338 $257 $430 forward 7 unknown #
coedge $-1 $251 $431 $167 $260 reversed $163 $-1 #
edge $-1 $432 -63.728751487777338 $264 63.728751487777338 $259 $433 forward 7 unknown #
coedge $-1 $254 $168 $431 $434 forward $263 $-1 #
coedge $-1 $168 $254 $427 $435 reversed $263 $-1 #
loop $-1 $-1 $261 $411 #
vertex $-1 $169 $436 #
vertex $-1 $169 $437 #
straight-curve $-1 63.728751487777338 0 13.652996590613675 0 1 0 I I #
face $-1 $438 $439 $40 $-1 $440 reversed single #
loop $-1 $-1 $441 $170 #
plane-surface $-1 -63.728751487777338 0 0 1 0 0 0 0 -1 forward_v I I I I #
coedge $-1 $442 $278 $443 $444 forward $171 $-1 #
coedge $-1 $445 $173 $442 $446 forward $109 $-1 #
coedge $-1 $173 $445 $447 $448 forward $109 $-1 #
coedge $-1 $281 $280 $173 $274 reversed $282 $-1 #
edge $-1 $449 -5.8880594684003844 $450 5.8880594684003844 $273 $451 forward 7 unknown #
coedge $-1 $175 $174 $452 $453 forward $69 $-1 #
coedge $-1 $454 $455 $174 $277 reversed $439 $-1 #
edge $-1 $284 -63.728751487777338 $456 63.728751487777338 $276 $457 forward 7 unknown #
coedge $-1 $270 $458 $175 $279 reversed $171 $-1 #
edge $-1 $459 -63.728751487777338 $283 63.728751487777338 $278 $460 forward 7 unknown #
coedge $-1 $273 $176 $458 $461 forward $282 $-1 #
coedge $-1 $176 $273 $454 $462 reversed $282 $-1 #
loop $-1 $-1 $280 $438 #
vertex $-1 $177 $463 #
vertex $-1 $177 $464 #
straight-curve $-1 63.728751487777338 0 3.9286479981053839 0 1 0 I I #
face $-1 $465 $466 $41 $-1 $467 reversed single #
loop $-1 $-1 $468 $178 #
plane-surface $-1 -63.728751487777338 0 0 1 0 0 0 0 -1 forward_v I I I I #
coedge $-1 $469 $297 $470 $471 forward $179 $-1 #
coedge $-1 $472 $181 $469 $473 forward $113 $-1 #
coedge $-1 $181 $472 $474 $475 forward $113 $-1 #
coedge $-1 $300 $299 $181 $293 reversed $301 $-1 #
edge $-1 $476 -5.8880594684003853 $477 5.8880594684003853 $292 $478 forward 7 unknown #
coedge $-1 $183 $182 $479 $480 forward $72 $-1 #
coedge $-1 $481 $482 $182 $296 reversed $466 $-1 #
edge $-1 $303 -63.728751487777338 $483 63.728751487777338 $295 $484 forward 7 unknown #
coedge $-1 $289 $485 $183 $298 reversed $179 $-1 #
edge $-1 $486 -63.728751487777338 $302 63.728751487777338 $297 $487 forward 7 unknown #
coedge $-1 $292 $184 $485 $488 forward $301 $-1 #
coedge $-1 $184 $292 $481 $489 reversed $301 $-1 #
loop $-1 $-1 $299 $465 #
vertex $-1 $185 $490 #
vertex $-1 $185 $491 #
straight-curve $-1 63.728751487777338 0 3.9286479981053839 0 1 0 I I #
face $-1 $492 $493 $42 $-1 $494 reversed single #
loop $-1 $-1 $495 $186 #
plane-surface $-1 -254.91500595110935 0 0 1 0 0 0 0 -1 forward_v I I I I #
coedge $-1 $496 $316 $497 $498 forward $187 $-1 #
coedge $-1 $499 $189 $496 $500 forward $117 $-1 #
coedge $-1 $189 $499 $501 $502 forward $117 $-1 #
coedge $-1 $319 $318 $189 $312 reversed $320 $-1 #
edge $-1 $503 -4.3158304690672562 $504 4.3158304690672562 $311 $505 forward 7 unknown #
coedge $-1 $191 $190 $506 $507 forward $75 $-1 #
coedge $-1 $508 $509 $190 $315 reversed $493 $-1 #
edge $-1 $322 -254.91500595110935 $510 254.91500595110935 $314 $511 forward 7 unknown #
coedge $-1 $308 $512 $191 $317 reversed $187 $-1 #
edge $-1 $513 -254.91500595110935 $321 254.91500595110935 $316 $514 forward 7 unknown #
coedge $-1 $311 $192 $512 $515 forward $320 $-1 #
coedge $-1 $192 $311 $508 $516 reversed $320 $-1 #
loop $-1 $-1 $318 $492 #
vertex $-1 $193 $517 #
vertex $-1 $193 $518 #
straight-curve $-1 254.91500595110935 0 127.45750297555469 0 1 0 I I #
loop $-1 $-1 $519 $120 #
coedge $-1 $325 $325 $197 $326 reversed $194 $-1 #
edge $-1 $520 0 $520 6.2831853071796004 $325 $521 forward 7 unknown #
vertex $-1 $198 $522 #
ellipse-curve $-1 0 0 -6.2094561601611389 0 0 -1 1.5 0 0 1 I I #
face $-1 $523 $524 $44 $-1 $525 reversed single #
loop $-1 $-1 $526 $199 #
plane-surface $-1 -254.91500595110935 0 0 1 0 0 0 0 -1 forward_v I I I I #
coedge $-1 $527 $340 $528 $529 forward $200 $-1 #
coedge $-1 $530 $202 $527 $531 forward $126 $-1 #
coedge $-1 $202 $530 $532 $533 forward $126 $-1 #
coedge $-1 $343 $342 $202 $336 reversed $344 $-1 #
edge $-1 $534 -4.3158304690672562 $535 4.3158304690672562 $335 $536 forward 7 unknown #
coedge $-1 $204 $203 $537 $538 forward $81 $-1 #
coedge $-1 $539 $540 $203 $339 reversed $524 $-1 #
edge $-1 $346 -254.91500595110935 $541 254.91500595110935 $338 $542 forward 7 unknown #
coedge $-1 $332 $543 $204 $341 reversed $200 $-1 #
edge $-1 $544 -254.91500595110935 $345 254.91500595110935 $340 $545 forward 7 unknown #
coedge $-1 $335 $205 $543 $546 forward $344 $-1 #
coedge $-1 $205 $335 $539 $547 reversed $344 $-1 #
loop $-1 $-1 $342 $523 #
vertex $-1 $206 $548 #
vertex $-1 $206 $549 #
straight-curve $-1 254.91500595110935 0 127.45750297555469 0 1 0 I I #
loop $-1 $-1 $550 $129 #
coedge $-1 $349 $349 $210 $350 reversed $207 $-1 #
edge $-1 $551 0 $551 6.2831853071796004 $349 $552 forward 7 unknown #
vertex $-1 $211 $553 #
ellipse-curve $-1 0 0 -6.2094561601611389 0 0 -1 1.5 0 0 1 I I #
face $-1 $554 $555 $46 $-1 $556 reversed single #
loop $-1 $-1 $557 $212 #
plane-surface $-1 -254.91500595110935 0 0 1 0 0 0 0 -1 forward_v I I I I #
coedge $-1 $558 $364 $559 $560 forward $213 $-1 #
coedge $-1 $561 $215 $558 $562 forward $135 $-1 #
coedge $-1 $215 $561 $563 $564 forward $135 $-1 #
coedge $-1 $367 $366 $215 $360 reversed $368 $-1 #
edge $-1 $565 -4.9194739580619933 $566 4.9194739580619933 $359 $567 forward 7 unknown #
coedge $-1 $217 $216 $568 $569 forward $87 $-1 #
coedge $-1 $570 $571 $216 $363 reversed $555 $-1 #
edge $-1 $370 -254.91500595110935 $572 254.91500595110935 $362 $573 forward 7 unknown #
coedge $-1 $356 $574 $217 $365 reversed $213 $-1 #
edge $-1 $575 -254.91500595110935 $369 254.91500595110935 $364 $576 forward 7 unknown #
coedge $-1 $359 $218 $574 $577 forward $368 $-1 #
coedge $-1 $218 $359 $570 $578 reversed $368 $-1 #
loop $-1 $-1 $366 $554 #
vertex $-1 $219 $579 #
vertex $-1 $219 $580 #
straight-curve $-1 254.91500595110935 0 127.45750297555468 0 1 0 I I #
loop $-1 $-1 $581 $138 #
coedge $-1 $373 $373 $223 $374 reversed $220 $-1 #
edge $-1 $582 0 $582 6.2831853071796004 $373 $583 forward 7 unknown #
vertex $-1 $224 $584 #
ellipse-curve $-1 0 0 -1.889019440290534 0 0 -1 1 0 0 1 I I #
loop $-1 $-1 $585 $143 #
coedge $-1 $378 $378 $228 $379 reversed $225 $-1 #
edge $-1 $586 0 $586 6.2831853071796004 $378 $587 forward 7 unknown #
vertex $-1 $229 $588 #
ellipse-curve $-1 0 0 -1.889019440290534 0 0 -1 1 0 0 1 I I #
face $-1 $589 $590 $49 $-1 $591 reversed single #
loop $-1 $-1 $592 $230 #
plane-surface $-1 -254.91500595110935 0 0 1 0 0 0 0 -1 forward_v I I I I #
coedge $-1 $593 $393 $594 $595 forward $231 $-1 #
coedge $-1 $596 $233 $593 $597 forward $149 $-1 #
coedge $-1 $233 $596 $598 $599 forward $149 $-1 #
coedge $-1 $396 $395 $233 $389 reversed $397 $-1 #
edge $-1 $600 -4.9194739580619933 $601 4.9194739580619933 $388 $602 forward 7 unknown #
coedge $-1 $235 $234 $603 $604 forward $96 $-1 #
coedge $-1 $605 $606 $234 $392 reversed $590 $-1 #
edge $-1 $399 -254.91500595110935 $607 254.91500595110935 $391 $608 forward 7 unknown #
coedge $-1 $385 $609 $235 $394 reversed $231 $-1 #
edge $-1 $610 -254.91500595110935 $398 254.91500595110935 $393 $611 forward 7 unknown #
coedge $-1 $388 $236 $609 $612 forward $397 $-1 #
coedge $-1 $236 $388 $605 $613 reversed $397 $-1 #
loop $-1 $-1 $395 $589 #
vertex $-1 $237 $614 #
vertex $-1 $237 $615 #
straight-curve $-1 254.91500595110935 0 127.45750297555468 0 1 0 I I #
loop $-1 $-1 $616 $152 #
coedge $-1 $402 $402 $241 $403 reversed $238 $-1 #
edge $-1 $617 0 $617 6.2831853071796004 $402 $618 forward 7 unknown #
vertex $-1 $242 $619 #
ellipse-curve $-1 0 0 -1.889019440290534 0 0 -1 1 0 0 1 I I #
loop $-1 $-1 $620 $157 #
coedge $-1 $407 $407 $246 $408 reversed $243 $-1 #
edge $-1 $621 0 $621 6.2831853071796004 $407 $622 forward 7 unknown #
vertex $-1 $247 $623 #
ellipse-curve $-1 0 0 -1.889019440290534 0 0 -1 1 0 0 1 I I #
face $-1 $-1 $263 $39 $-1 $624 reversed single #
loop $-1 $-1 $427 $248 #
plane-surface $-1 0 42.194552160777015 0 0 -1 0 0 0 -1 forward_v I I I I #
coedge $-1 $625 $425 $428 $626 forward $249 $-1 #
coedge $-1 $431 $251 $252 $419 reversed $163 $-1 #
coedge $-1 $425 $625 $251 $417 reversed $249 $-1 #
edge $-1 $432 -13.652996590613675 $627 13.652996590613675 $416 $628 forward 7 unknown #
coedge $-1 $253 $252 $625 $629 forward $105 $-1 #
edge $-1 $423 -63.728751487777338 $627 63.728751487777338 $415 $630 forward 7 unknown #
coedge $-1 $428 $427 $253 $421 reversed $412 $-1 #
edge $-1 $631 -63.728751487777338 $422 63.728751487777338 $420 $632 forward 7 unknown #
vertex $-1 $255 $633 #
vertex $-1 $434 $634 #
straight-curve $-1 63.728751487777338 0 -13.652996590613675 0 -1 0 I I #
coedge $-1 $414 $416 $256 $426 reversed $249 $-1 #
edge $-1 $429 -42.194552160777015 $432 42.194552160777015 $425 $635 forward 7 unknown #
coedge $-1 $420 $257 $262 $435 forward $412 $-1 #
coedge $-1 $257 $420 $414 $626 reversed $412 $-1 #
vertex $-1 $258 $636 #
straight-curve $-1 0 42.194552160777015 13.652996590613675 -1 0 0 I I #
coedge $-1 $259 $415 $261 $434 reversed $163 $-1 #
vertex $-1 $426 $637 #
straight-curve $-1 0 -42.194552160777015 13.652996590613675 1 0 0 I I #
edge $-1 $264 -13.652996590613675 $423 13.652996590613675 $261 $638 forward 7 unknown #
edge $-1 $265 -13.652996590613675 $422 13.652996590613675 $262 $639 forward 7 unknown #
point $-1 63.728751487777338 -42.194552160777015 13.652996590613675 #
point $-1 63.728751487777338 42.194552160777015 13.652996590613675 #
face $-1 $-1 $282 $40 $-1 $640 reversed single #
loop $-1 $-1 $454 $267 #
plane-surface $-1 0 5.8880594684003844 0 0 -1 0 0 0 -1 forward_v I I I I #
coedge $-1 $641 $452 $455 $642 forward $268 $-1 #
coedge $-1 $458 $270 $271 $446 reversed $171 $-1 #
coedge $-1 $452 $641 $270 $444 reversed $268 $-1 #
edge $-1 $459 -3.9286479981053839 $643 3.9286479981053839 $443 $644 forward 7 unknown #
coedge $-1 $272 $271 $641 $645 forward $109 $-1 #
edge $-1 $450 -63.728751487777338 $643 63.728751487777338 $442 $646 forward 7 unknown #
coedge $-1 $455 $454 $272 $448 reversed $439 $-1 #
edge $-1 $647 -63.728751487777338 $449 63.728751487777338 $447 $648 forward 7 unknown #
vertex $-1 $274 $649 #
vertex $-1 $461 $650 #
straight-curve $-1 63.728751487777338 0 -3.9286479981053839 0 -1 0 I I #
coedge $-1 $441 $443 $275 $453 reversed $268 $-1 #
edge $-1 $456 -5.8880594684003844 $459 5.8880594684003844 $452 $651 forward 7 unknown #
coedge $-1 $447 $276 $281 $462 forward $439 $-1 #
coedge $-1 $276 $447 $441 $642 reversed $439 $-1 #
vertex $-1 $277 $652 #
straight-curve $-1 0 5.8880594684003844 3.9286479981053839 -1 0 0 I I #
coedge $-1 $278 $442 $280 $461 reversed $171 $-1 #
vertex $-1 $453 $653 #
straight-curve $-1 0 -5.8880594684003844 3.9286479981053839 1 0 0 I I #
edge $-1 $283 -3.9286479981053839 $450 3.9286479981053839 $280 $654 forward 7 unknown #
edge $-1 $284 -3.9286479981053839 $449 3.9286479981053839 $281 $655 forward 7 unknown #
point $-1 63.728751487777338 -5.8880594684003844 3.9286479981053839 #
point $-1 63.728751487777338 5.8880594684003844 3.9286479981053839 #
face $-1 $-1 $301 $41 $-1 $656 reversed single #
loop $-1 $-1 $481 $286 #
plane-surface $-1 0 5.8880594684003853 0 0 -1 0 0 0 -1 forward_v I I I I #
coedge $-1 $657 $479 $482 $658 forward $287 $-1 #
coedge $-1 $485 $289 $290 $473 reversed $179 $-1 #
coedge $-1 $479 $657 $289 $471 reversed $287 $-1 #
edge $-1 $486 -3.9286479981053839 $659 3.9286479981053839 $470 $660 forward 7 unknown #
coedge $-1 $291 $290 $657 $661 forward $113 $-1 #
edge $-1 $477 -63.728751487777338 $659 63.728751487777338 $469 $662 forward 7 unknown #
coedge $-1 $482 $481 $291 $475 reversed $466 $-1 #
edge $-1 $663 -63.728751487777338 $476 63.728751487777338 $474 $664 forward 7 unknown #
vertex $-1 $293 $665 #
vertex $-1 $488 $666 #
straight-curve $-1 63.728751487777338 0 -3.9286479981053839 0 -1 0 I I #
coedge $-1 $468 $470 $294 $480 reversed $287 $-1 #
edge $-1 $483 -5.8880594684003853 $486 5.8880594684003853 $479 $667 forward 7 unknown #
coedge $-1 $474 $295 $300 $489 forward $466 $-1 #
coedge $-1 $295 $474 $468 $658 reversed $466 $-1 #
vertex $-1 $296 $668 #
straight-curve $-1 0 5.8880594684003853 3.9286479981053839 -1 0 0 I I #
coedge $-1 $297 $469 $299 $488 reversed $179 $-1 #
vertex $-1 $480 $669 #
straight-curve $-1 0 -5.8880594684003853 3.9286479981053839 1 0 0 I I #
edge $-1 $302 -3.9286479981053839 $477 3.9286479981053839 $299 $670 forward 7 unknown #
edge $-1 $303 -3.9286479981053839 $476 3.9286479981053839 $300 $671 forward 7 unknown #
point $-1 63.728751487777338 -5.8880594684003853 3.9286479981053839 #
point $-1 63.728751487777338 5.8880594684003853 3.9286479981053839 #
face $-1 $-1 $320 $42 $-1 $672 reversed single #
loop $-1 $-1 $508 $305 #
plane-surface $-1 0 4.3158304690672562 0 0 -1 0 0 0 -1 forward_v I I I I #
coedge $-1 $673 $506 $509 $674 forward $306 $-1 #
coedge $-1 $512 $308 $309 $500 reversed $187 $-1 #
coedge $-1 $506 $673 $308 $498 reversed $306 $-1 #
edge $-1 $513 -127.45750297555469 $675 127.45750297555469 $497 $676 forward 7 unknown #
coedge $-1 $310 $309 $673 $677 forward $117 $-1 #
edge $-1 $504 -254.91500595110935 $675 254.91500595110935 $496 $678 forward 7 unknown #
coedge $-1 $509 $508 $310 $502 reversed $493 $-1 #
edge $-1 $679 -254.91500595110935 $503 254.91500595110935 $501 $680 forward 7 unknown #
vertex $-1 $312 $681 #
vertex $-1 $515 $682 #
straight-curve $-1 254.91500595110935 0 -127.45750297555469 0 -1 0 I I #
coedge $-1 $495 $497 $313 $507 reversed $306 $-1 #
edge $-1 $510 -4.3158304690672562 $513 4.3158304690672562 $506 $683 forward 7 unknown #
coedge $-1 $501 $314 $319 $516 forward $493 $-1 #
coedge $-1 $314 $501 $495 $674 reversed $493 $-1 #
vertex $-1 $315 $684 #
straight-curve $-1 0 4.3158304690672562 127.45750297555469 -1 0 0 I I #
coedge $-1 $316 $496 $318 $515 reversed $187 $-1 #
vertex $-1 $507 $685 #
straight-curve $-1 0 -4.3158304690672562 127.45750297555469 1 0 0 I I #
edge $-1 $321 -127.45750297555469 $504 127.45750297555469 $318 $686 forward 7 unknown #
edge $-1 $322 -127.45750297555469 $503 127.45750297555469 $319 $687 forward 7 unknown #
point $-1 254.91500595110935 -4.3158304690672562 127.45750297555469 #
point $-1 254.91500595110935 4.3158304690672562 127.45750297555469 #
coedge $-1 $519 $519 $-1 $688 reversed $324 $-1 #
vertex $-1 $326 $689 #
ellipse-curve $-1 0 0 -0.75 0 0 -1 1.5 0 0 1 I I #
point $-1 1.5 0 -6.2094561601611389 #
face $-1 $-1 $344 $44 $-1 $690 reversed single #
loop $-1 $-1 $539 $329 #
plane-surface $-1 0 4.3158304690672562 0 0 -1 0 0 0 -1 forward_v I I I I #
coedge $-1 $691 $537 $540 $692 forward $330 $-1 #
coedge $-1 $543 $332 $333 $531 reversed $200 $-1 #
coedge $-1 $537 $691 $332 $529 reversed $330 $-1 #
edge $-1 $544 -127.45750297555469 $693 127.45750297555469 $528 $694 forward 7 unknown #
coedge $-1 $334 $333 $691 $695 forward $126 $-1 #
edge $-1 $535 -254.91500595110935 $693 254.91500595110935 $527 $696 forward 7 unknown #
coedge $-1 $540 $539 $334 $533 reversed $524 $-1 #
edge $-1 $697 -254.91500595110935 $534 254.91500595110935 $532 $698 forward 7 unknown #
vertex $-1 $336 $699 #
vertex $-1 $546 $700 #
straight-curve $-1 254.91500595110935 0 -127.45750297555469 0 -1 0 I I #
coedge $-1 $526 $528 $337 $538 reversed $330 $-1 #
edge $-1 $541 -4.3158304690672562 $544 4.3158304690672562 $537 $701 forward 7 unknown #
coedge $-1 $532 $338 $343 $547 forward $524 $-1 #
coedge $-1 $338 $532 $526 $692 reversed $524 $-1 #
vertex $-1 $339 $702 #
straight-curve $-1 0 4.3158304690672562 127.45750297555469 -1 0 0 I I #
coedge $-1 $340 $527 $342 $546 reversed $200 $-1 #
vertex $-1 $538 $703 #
straight-curve $-1 0 -4.3158304690672562 127.45750297555469 1 0 0 I I #
edge $-1 $345 -127.45750297555469 $535 127.45750297555469 $342 $704 forward 7 unknown #
edge $-1 $346 -127.45750297555469 $534 127.45750297555469 $343 $705 forward 7 unknown #
point $-1 254.91500595110935 -4.3158304690672562 127.45750297555469 #
point $-1 254.91500595110935 4.3158304690672562 127.45750297555469 #
coedge $-1 $550 $550 $-1 $706 reversed $348 $-1 #
vertex $-1 $350 $707 #
ellipse-curve $-1 0 0 -0.75 0 0 -1 1.5 0 0 1 I I #
point $-1 1.5 0 -6.2094561601611389 #
face $-1 $-1 $368 $46 $-1 $708 reversed single #
loop $-1 $-1 $570 $353 #
plane-surface $-1 0 4.9194739580619933 0 0 -1 0 0 0 -1 forward_v I I I I #
coedge $-1 $709 $568 $571 $710 forward $354 $-1 #
coedge $-1 $574 $356 $357 $562 reversed $213 $-1 #
coedge $-1 $568 $709 $356 $560 reversed $354 $-1 #
edge $-1 $575 -127.45750297555468 $711 127.45750297555468 $559 $712 forward 7 unknown #
coedge $-1 $358 $357 $709 $713 forward $135 $-1 #
edge $-1 $566 -254.91500595110935 $711 254.91500595110935 $558 $714 forward 7 unknown #
coedge $-1 $571 $570 $358 $564 reversed $555 $-1 #
edge $-1 $715 -254.91500595110935 $565 254.91500595110935 $563 $716 forward 7 unknown #
vertex $-1 $360 $717 #
vertex $-1 $577 $718 #
straight-curve $-1 254.91500595110935 0 -127.45750297555468 0 -1 0 I I #
coedge $-1 $557 $559 $361 $569 reversed $354 $-1 #
edge $-1 $572 -4.9194739580619933 $575 4.9194739580619933 $568 $719 forward 7 unknown #
coedge $-1 $563 $362 $367 $578 forward $555 $-1 #
coedge $-1 $362 $563 $557 $710 reversed $555 $-1 #
vertex $-1 $363 $720 #
straight-curve $-1 0 4.9194739580619933 127.45750297555468 -1 0 0 I I #
coedge $-1 $364 $558 $366 $577 reversed $213 $-1 #
vertex $-1 $569 $721 #
straight-curve $-1 0 -4.9194739580619933 127.45750297555468 1 0 0 I I #
edge $-1 $369 -127.45750297555468 $566 127.45750297555468 $366 $722 forward 7 unknown #
edge $-1 $370 -127.45750297555468 $565 127.45750297555468 $367 $723 forward 7 unknown #
point $-1 254.91500595110935 -4.9194739580619933 127.45750297555468 #
point $-1 254.91500595110935 4.9194739580619933 127.45750297555468 #
coedge $-1 $581 $581 $-1 $724 reversed $372 $-1 #
vertex $-1 $374 $725 #
ellipse-curve $-1 0 0 -0.5 0 0 -1 1 0 0 1 I I #
point $-1 1 0 -1.889019440290534 #
coedge $-1 $585 $585 $-1 $726 reversed $377 $-1 #
vertex $-1 $379 $727 #
ellipse-curve $-1 0 0 -0.5 0 0 -1 1 0 0 1 I I #
point $-1 1 0 -1.889019440290534 #
face $-1 $-1 $397 $49 $-1 $728 reversed single #
loop $-1 $-1 $605 $382 #
plane-surface $-1 0 4.9194739580619933 0 0 -1 0 0 0 -1 forward_v I I I I #
coedge $-1 $729 $603 $606 $730 forward $383 $-1 #
coedge $-1 $609 $385 $386 $597 reversed $231 $-1 #
coedge $-1 $603 $729 $385 $595 reversed $383 $-1 #
edge $-1 $610 -127.45750297555468 $731 127.45750297555468 $594 $732 forward 7 unknown #
coedge $-1 $387 $386 $729 $733 forward $149 $-1 #
edge $-1 $601 -254.91500595110935 $731 254.91500595110935 $593 $734 forward 7 unknown #
coedge $-1 $606 $605 $387 $599 reversed $590 $-1 #
edge $-1 $735 -254.91500595110935 $600 254.91500595110935 $598 $736 forward 7 unknown #
vertex $-1 $389 $737 #
vertex $-1 $612 $738 #
straight-curve $-1 254.91500595110935 0 -127.45750297555468 0 -1 0 I I #
coedge $-1 $592 $594 $390 $604 reversed $383 $-1 #
edge $-1 $607 -4.9194739580619933 $610 4.9194739580619933 $603 $739 forward 7 unknown #
coedge $-1 $598 $391 $396 $613 forward $590 $-1 #
coedge $-1 $391 $598 $592 $730 reversed $590 $-1 #
vertex $-1 $392 $740 #
straight-curve $-1 0 4.9194739580619933 127.45750297555468 -1 0 0 I I #
coedge $-1 $393 $593 $395 $612 reversed $231 $-1 #
vertex $-1 $604 $741 #
straight-curve $-1 0 -4.9194739580619933 127.45750297555468 1 0 0 I I #
edge $-1 $398 -127.45750297555468 $601 127.45750297555468 $395 $742 forward 7 unknown #
edge $-1 $399 -127.45750297555468 $600 127.45750297555468 $396 $743 forward 7 unknown #
point $-1 254.91500595110935 -4.9194739580619933 127.45750297555468 #
point $-1 254.91500595110935 4.9194739580619933 127.45750297555468 #
coedge $-1 $616 $616 $-1 $744 reversed $401 $-1 #
vertex $-1 $403 $745 #
ellipse-curve $-1 0 0 -0.5 0 0 -1 1 0 0 1 I I #
point $-1 1 0 -1.889019440290534 #
coedge $-1 $620 $620 $-1 $746 reversed $406 $-1 #
vertex $-1 $408 $747 #
ellipse-curve $-1 0 0 -0.5 0 0 -1 1 0 0 1 I I #
point $-1 1 0 -1.889019440290534 #
plane-surface $-1 63.728751487777338 0 0 -1 0 0 0 0 1 forward_v I I I I #
coedge $-1 $416 $414 $418 $629 reversed $249 $-1 #
edge $-1 $429 -13.652996590613675 $631 13.652996590613675 $428 $748 forward 7 unknown #
vertex $-1 $629 $749 #
straight-curve $-1 -63.728751487777338 -42.194552160777015 0 0 0 -1 I I #
edge $-1 $627 -42.194552160777015 $631 42.194552160777015 $625 $750 forward 7 unknown #
straight-curve $-1 0 -42.194552160777015 -13.652996590613675 -1 0 0 I I #
vertex $-1 $421 $751 #
straight-curve $-1 0 42.194552160777015 -13.652996590613675 1 0 0 I I #
point $-1 63.728751487777338 42.194552160777015 -13.652996590613675 #
point $-1 63.728751487777338 -42.194552160777015 -13.652996590613675 #
straight-curve $-1 -63.728751487777338 0 13.652996590613675 0 -1 0 I I #
point $-1 -63.728751487777338 42.194552160777015 13.652996590613675 #
point $-1 -63.728751487777338 -42.194552160777015 13.652996590613675 #
straight-curve $-1 63.728751487777338 -42.194552160777015 0 0 0 -1 I I #
straight-curve $-1 63.728751487777338 42.194552160777015 0 0 0 -1 I I #
plane-surface $-1 63.728751487777338 0 0 -1 0 0 0 0 1 forward_v I I I I #
coedge $-1 $443 $441 $445 $645 reversed $268 $-1 #
edge $-1 $456 -3.9286479981053839 $647 3.9286479981053839 $455 $752 forward 7 unknown #
vertex $-1 $645 $753 #
straight-curve $-1 -63.728751487777338 -5.8880594684003844 0 0 0 -1 I I #
edge $-1 $643 -5.8880594684003844 $647 5.8880594684003844 $641 $754 forward 7 unknown #
straight-curve $-1 0 -5.8880594684003844 -3.9286479981053839 -1 0 0 I I #
vertex $-1 $448 $755 #
straight-curve $-1 0 5.8880594684003844 -3.9286479981053839 1 0 0 I I #
point $-1 63.728751487777338 5.8880594684003844 -3.9286479981053839 #
point $-1 63.728751487777338 -5.8880594684003844 -3.9286479981053839 #
straight-curve $-1 -63.728751487777338 0 3.9286479981053839 0 -1 0 I I #
point $-1 -63.728751487777338 5.8880594684003844 3.9286479981053839 #
point $-1 -63.728751487777338 -5.8880594684003844 3.9286479981053839 #
straight-curve $-1 63.728751487777338 -5.8880594684003844 0 0 0 -1 I I #
straight-curve $-1 63.728751487777338 5.8880594684003844 0 0 0 -1 I I #
plane-surface $-1 63.728751487777338 0 0 -1 0 0 0 0 1 forward_v I I I I #
coedge $-1 $470 $468 $472 $661 reversed $287 $-1 #
edge $-1 $483 -3.9286479981053839 $663 3.9286479981053839 $482 $756 forward 7 unknown #
vertex $-1 $661 $757 #
straight-curve $-1 -63.728751487777338 -5.8880594684003853 0 0 0 -1 I I #
edge $-1 $659 -5.8880594684003853 $663 5.8880594684003853 $657 $758 forward 7 unknown #
straight-curve $-1 0 -5.8880594684003853 -3.9286479981053839 -1 0 0 I I #
vertex $-1 $475 $759 #
straight-curve $-1 0 5.8880594684003853 -3.9286479981053839 1 0 0 I I #
point $-1 63.728751487777338 5.8880594684003853 -3.9286479981053839 #
point $-1 63.728751487777338 -5.8880594684003853 -3.9286479981053839 #
straight-curve $-1 -63.728751487777338 0 3.9286479981053839 0 -1 0 I I #
point $-1 -63.728751487777338 5.8880594684003853 3.9286479981053839 #
point $-1 -63.728751487777338 -5.8880594684003853 3.9286479981053839 #
straight-curve $-1 63.728751487777338 -5.8880594684003853 0 0 0 -1 I I #
straight-curve $-1 63.728751487777338 5.8880594684003853 0 0 0 -1 I I #
plane-surface $-1 254.91500595110935 0 0 -1 0 0 0 0 1 forward_v I I I I #
coedge $-1 $497 $495 $499 $677 reversed $306 $-1 #
edge $-1 $510 -127.45750297555469 $679 127.45750297555469 $509 $760 forward 7 unknown #
vertex $-1 $677 $761 #
straight-curve $-1 -254.91500595110935 -4.3158304690672562 0 0 0 -1 I I #
edge $-1 $675 -4.3158304690672562 $679 4.3158304690672562 $673 $762 forward 7 unknown #
straight-curve $-1 0 -4.3158304690672562 -127.45750297555469 -1 0 0 I I #
vertex $-1 $502 $763 #
straight-curve $-1 0 4.3158304690672562 -127.45750297555469 1 0 0 I I #
point $-1 254.91500595110935 4.3158304690672562 -127.45750297555469 #
point $-1 254.91500595110935 -4.3158304690672562 -127.45750297555469 #
straight-curve $-1 -254.91500595110935 0 127.45750297555469 0 -1 0 I I #
point $-1 -254.91500595110935 4.3158304690672562 127.45750297555469 #
point $-1 -254.91500595110935 -4.3158304690672562 127.45750297555469 #
straight-curve $-1 254.91500595110935 -4.3158304690672562 0 0 0 -1 I I #
straight-curve $-1 254.91500595110935 4.3158304690672562 0 0 0 -1 I I #
edge $-1 $764 1 $764 0 $519 $-1 forward 7 unknown #
point $-1 1.5 0 -0.75 #
plane-surface $-1 254.91500595110935 0 0 -1 0 0 0 0 1 forward_v I I I I #
coedge $-1 $528 $526 $530 $695 reversed $330 $-1 #
edge $-1 $541 -127.45750297555469 $697 127.45750297555469 $540 $765 forward 7 unknown #
vertex $-1 $695 $766 #
straight-curve $-1 -254.91500595110935 -4.3158304690672562 0 0 0 -1 I I #
edge $-1 $693 -4.3158304690672562 $697 4.3158304690672562 $691 $767 forward 7 unknown #
straight-curve $-1 0 -4.3158304690672562 -127.45750297555469 -1 0 0 I I #
vertex $-1 $533 $768 #
straight-curve $-1 0 4.3158304690672562 -127.45750297555469 1 0 0 I I #
point $-1 254.91500595110935 4.3158304690672562 -127.45750297555469 #
point $-1 254.91500595110935 -4.3158304690672562 -127.45750297555469 #
straight-curve $-1 -254.91500595110935 0 127.45750297555469 0 -1 0 I I #
point $-1 -254.91500595110935 4.3158304690672562 127.45750297555469 #
point $-1 -254.91500595110935 -4.3158304690672562 127.45750297555469 #
straight-curve $-1 254.91500595110935 -4.3158304690672562 0 0 0 -1 I I #
straight-curve $-1 254.91500595110935 4.3158304690672562 0 0 0 -1 I I #
edge $-1 $769 1 $769 0 $550 $-1 forward 7 unknown #
point $-1 1.5 0 -0.75 #
plane-surface $-1 254.91500595110935 0 0 -1 0 0 0 0 1 forward_v I I I I #
coedge $-1 $559 $557 $561 $713 reversed $354 $-1 #
edge $-1 $572 -127.45750297555468 $715 127.45750297555468 $571 $770 forward 7 unknown #
vertex $-1 $713 $771 #
straight-curve $-1 -254.91500595110935 -4.9194739580619933 0 0 0 -1 I I #
edge $-1 $711 -4.9194739580619933 $715 4.9194739580619933 $709 $772 forward 7 unknown #
straight-curve $-1 0 -4.9194739580619933 -127.45750297555468 -1 0 0 I I #
vertex $-1 $564 $773 #
straight-curve $-1 0 4.9194739580619933 -127.45750297555468 1 0 0 I I #
point $-1 254.91500595110935 4.9194739580619933 -127.45750297555468 #
point $-1 254.91500595110935 -4.9194739580619933 -127.45750297555468 #
straight-curve $-1 -254.91500595110935 0 127.45750297555468 0 -1 0 I I #
point $-1 -254.91500595110935 4.9194739580619933 127.45750297555468 #
point $-1 -254.91500595110935 -4.9194739580619933 127.45750297555468 #
straight-curve $-1 254.91500595110935 -4.9194739580619933 0 0 0 -1 I I #
straight-curve $-1 254.91500595110935 4.9194739580619933 0 0 0 -1 I I #
edge $-1 $774 1 $774 0 $581 $-1 forward 7 unknown #
point $-1 1 0 -0.5 #
edge $-1 $775 1 $775 0 $585 $-1 forward 7 unknown #
point $-1 1 0 -0.5 #
plane-surface $-1 254.91500595110935 0 0 -1 0 0 0 0 1 forward_v I I I I #
coedge $-1 $594 $592 $596 $733 reversed $383 $-1 #
edge $-1 $607 -127.45750297555468 $735 127.45750297555468 $606 $776 forward 7 unknown #
vertex $-1 $733 $777 #
straight-curve $-1 -254.91500595110935 -4.9194739580619933 0 0 0 -1 I I #
edge $-1 $731 -4.9194739580619933 $735 4.9194739580619933 $729 $778 forward 7 unknown #
straight-curve $-1 0 -4.9194739580619933 -127.45750297555468 -1 0 0 I I #
vertex $-1 $599 $779 #
straight-curve $-1 0 4.9194739580619933 -127.45750297555468 1 0 0 I I #
point $-1 254.91500595110935 4.9194739580619933 -127.45750297555468 #
point $-1 254.91500595110935 -4.9194739580619933 -127.45750297555468 #
straight-curve $-1 -254.91500595110935 0 127.45750297555468 0 -1 0 I I #
point $-1 -254.91500595110935 4.9194739580619933 127.45750297555468 #
point $-1 -254.91500595110935 -4.9194739580619933 127.45750297555468 #
straight-curve $-1 254.91500595110935 -4.9194739580619933 0 0 0 -1 I I #
straight-curve $-1 254.91500595110935 4.9194739580619933 0 0 0 -1 I I #
edge $-1 $780 1 $780 0 $616 $-1 forward 7 unknown #
point $-1 1 0 -0.5 #
edge $-1 $781 1 $781 0 $620 $-1 forward 7 unknown #
point $-1 1 0 -0.5 #
straight-curve $-1 -63.728751487777338 42.194552160777015 0 0 0 -1 I I #
point $-1 -63.728751487777338 -42.194552160777015 -13.652996590613675 #
straight-curve $-1 -63.728751487777338 0 -13.652996590613675 0 1 0 I I #
point $-1 -63.728751487777338 42.194552160777015 -13.652996590613675 #
straight-curve $-1 -63.728751487777338 5.8880594684003844 0 0 0 -1 I I #
point $-1 -63.728751487777338 -5.8880594684003844 -3.9286479981053839 #
straight-curve $-1 -63.728751487777338 0 -3.9286479981053839 0 1 0 I I #
point $-1 -63.728751487777338 5.8880594684003844 -3.9286479981053839 #
straight-curve $-1 -63.728751487777338 5.8880594684003853 0 0 0 -1 I I #
point $-1 -63.728751487777338 -5.8880594684003853 -3.9286479981053839 #
straight-curve $-1 -63.728751487777338 0 -3.9286479981053839 0 1 0 I I #
point $-1 -63.728751487777338 5.8880594684003853 -3.9286479981053839 #
straight-curve $-1 -254.91500595110935 4.3158304690672562 0 0 0 -1 I I #
point $-1 -254.91500595110935 -4.3158304690672562 -127.45750297555469 #
straight-curve $-1 -254.91500595110935 0 -127.45750297555469 0 1 0 I I #
point $-1 -254.91500595110935 4.3158304690672562 -127.45750297555469 #
vertex $-1 $688 $782 #
straight-curve $-1 -254.91500595110935 4.3158304690672562 0 0 0 -1 I I #
point $-1 -254.91500595110935 -4.3158304690672562 -127.45750297555469 #
straight-curve $-1 -254.91500595110935 0 -127.45750297555469 0 1 0 I I #
point $-1 -254.91500595110935 4.3158304690672562 -127.45750297555469 #
vertex $-1 $706 $783 #
straight-curve $-1 -254.91500595110935 4.9194739580619933 0 0 0 -1 I I #
point $-1 -254.91500595110935 -4.9194739580619933 -127.45750297555468 #
straight-curve $-1 -254.91500595110935 0 -127.45750297555468 0 1 0 I I #
point $-1 -254.91500595110935 4.9194739580619933 -127.45750297555468 #
vertex $-1 $724 $784 #
vertex $-1 $726 $785 #
straight-curve $-1 -254.91500595110935 4.9194739580619933 0 0 0 -1 I I #
point $-1 -254.91500595110935 -4.9194739580619933 -127.45750297555468 #
straight-curve $-1 -254.91500595110935 0 -127.45750297555468 0 1 0 I I #
point $-1 -254.91500595110935 4.9194739580619933 -127.45750297555468 #
vertex $-1 $744 $786 #
vertex $-1 $746 $787 #
point $-1 0 0 0.75 #
point $-1 0 0 0.75 #
point $-1 0 0 0.5 #
point $-1 0 0 0.5 #
point $-1 0 0 0.5 #
point $-1 0 0 0.5 #
End-of-ACIS-data 