500 0 10 0           
7 Unknown 11 ACIS 5.0 NT 24 Fri Mar 26 18:45:45 1999 
-1 9.9999999999999995e-007 1e-010 
body $-1 $10 $-1 $11 #
body $-1 $12 $-1 $13 #
body $-1 $14 $-1 $15 #
body $-1 $16 $-1 $17 #
body $-1 $18 $-1 $19 #
body $-1 $20 $-1 $21 #
body $-1 $22 $-1 $23 #
body $-1 $24 $-1 $25 #
body $-1 $26 $-1 $27 #
body $-1 $28 $-1 $29 #
lump $-1 $-1 $30 $0 #
transform $-1 1 0 0 0 1 0 0 0 1 79.088106936857201 45.096899283392844 21.136375949727029 1 rotate no_reflect no_shear #
lump $-1 $-1 $31 $1 #
transform $-1 1 0 0 0 1 0 0 0 1 79.088106936857201 45.096899283392844 21.136375949727029 1 rotate no_reflect no_shear #
lump $-1 $-1 $32 $2 #
transform $-1 1 0 0 0 1 0 0 0 1 79.088106936857201 45.096899283392844 21.136375949727029 1 rotate no_reflect no_shear #
lump $-1 $-1 $33 $3 #
transform $-1 1 0 0 0 1 0 0 0 1 79.088106936857201 45.096899283392844 21.136375949727029 1 rotate no_reflect no_shear #
lump $-1 $-1 $34 $4 #
transform $-1 1 0 0 0 1 0 0 0 1 79.088106936857201 45.096899283392844 21.136375949727029 1 rotate no_reflect no_shear #
lump $-1 $-1 $35 $5 #
transform $-1 1 0 0 0 1 0 0 0 1 79.088106936857201 45.096899283392844 21.136375949727029 1 rotate no_reflect no_shear #
lump $-1 $-1 $36 $6 #
transform $-1 1 0 0 0 1 0 0 0 1 79.088106936857201 45.096899283392844 21.136375949727029 1 rotate no_reflect no_shear #
lump $-1 $-1 $37 $7 #
transform $-1 1 0 0 0 1 0 0 0 1 79.088106936857201 45.096899283392844 21.136375949727029 1 rotate no_reflect no_shear #
lump $-1 $-1 $38 $8 #
transform $-1 1 0 0 0 1 0 0 0 1 79.088106936857201 45.096899283392844 21.136375949727029 1 rotate no_reflect no_shear #
lump $-1 $-1 $39 $9 #
transform $-1 1 0 0 0 1 0 0 0 1 79.088106936857201 45.096899283392844 21.136375949727029 1 rotate no_reflect no_shear #
shell $-1 $-1 $-1 $40 $-1 $10 #
shell $-1 $-1 $-1 $41 $-1 $12 #
shell $-1 $-1 $-1 $42 $-1 $14 #
shell $-1 $-1 $-1 $43 $-1 $16 #
shell $-1 $-1 $-1 $44 $-1 $18 #
shell $-1 $-1 $-1 $45 $-1 $20 #
shell $-1 $-1 $-1 $46 $-1 $22 #
shell $-1 $-1 $-1 $47 $-1 $24 #
shell $-1 $-1 $-1 $48 $-1 $26 #
shell $-1 $-1 $-1 $49 $-1 $28 #
face $-1 $50 $51 $30 $-1 $52 forward single #
face $-1 $53 $54 $31 $-1 $55 forward single #
face $-1 $56 $57 $32 $-1 $58 reversed single #
face $-1 $59 $60 $33 $-1 $61 forward single #
face $-1 $62 $63 $34 $-1 $64 forward single #
face $-1 $65 $66 $35 $-1 $67 forward single #
face $-1 $68 $69 $36 $-1 $70 reversed single #
face $-1 $71 $72 $37 $-1 $73 forward single #
face $-1 $74 $75 $38 $-1 $76 forward single #
face $-1 $77 $78 $39 $-1 $79 forward single #
face $-1 $80 $81 $30 $-1 $82 reversed single #
loop $-1 $-1 $83 $40 #
plane-surface $-1 0 0 21.136375949727029 0 0 1 1 0 0 forward_v I I I I #
face $-1 $84 $85 $31 $-1 $86 reversed single #
loop $-1 $-1 $87 $41 #
plane-surface $-1 0 -31.893840503736474 -9.3679421565201473 0 0 1 1 0 0 forward_v I I I I #
face $-1 $88 $89 $32 $-1 $90 reversed single #
loop $-1 $-1 $91 $42 #
plane-surface $-1 -53.344586597273725 80.799710599226231 180.28033887445599 -1 0 0 0 0.6560590369687036 0.75470957328743171 forward_v I I I I #
face $-1 $92 $93 $33 $-1 $94 forward single #
loop $-1 $95 $96 $43 #
cone-surface $-1 -73.939402868940505 32.908101314735291 10.252142897352366 0 -0.6560590369687036 -0.75470957328743171 1.5 0 0 1 I I 0 1 1.5 forward I I I I #
face $-1 $97 $98 $34 $-1 $99 forward single #
loop $-1 $100 $101 $44 #
cone-surface $-1 -66.21634676706546 32.908101314735291 10.252142897352366 0 -0.6560590369687036 -0.75470957328743171 1.5 0 0 1 I I 0 1 1.5 forward I I I I #
face $-1 $102 $103 $35 $-1 $104 forward single #
loop $-1 $105 $106 $45 #
cone-surface $-1 -58.493290665190422 32.908101314735291 10.252142897352366 0 -0.6560590369687036 -0.75470957328743171 1.5 0 0 1 I I 0 1 1.5 forward I I I I #
face $-1 $107 $108 $36 $-1 $109 reversed single #
loop $-1 $-1 $110 $46 #
plane-surface $-1 66.21634676706546 -22.973223946118537 60.90323599760346 0 0.6560590369687036 0.75470957328743171 1 0 0 forward_v I I I I #
face $-1 $111 $112 $37 $-1 $113 forward single #
loop $-1 $114 $115 $47 #
cone-surface $-1 58.493290665190415 32.908101314735291 10.252142897352366 0 -0.6560590369687036 -0.75470957328743171 1.5 0 0 1 I I 0 1 1.5 forward I I I I #
face $-1 $116 $117 $38 $-1 $118 forward single #
loop $-1 $119 $120 $48 #
cone-surface $-1 66.21634676706546 32.908101314735291 10.252142897352366 0 -0.6560590369687036 -0.75470957328743171 1.5 0 0 1 I I 0 1 1.5 forward I I I I #
face $-1 $121 $122 $39 $-1 $123 forward single #
loop $-1 $124 $125 $49 #
cone-surface $-1 73.939402868940505 32.908101314735291 10.252142897352366 0 -0.6560590369687036 -0.75470957328743171 1.5 0 0 1 I I 0 1 1.5 forward I I I I #
face $-1 $126 $127 $30 $-1 $128 reversed single #
loop $-1 $-1 $129 $50 #
plane-surface $-1 0 0 -21.136375949727029 0 0 1 1 0 0 forward_v I I I I #
coedge $-1 $130 $131 $132 $133 forward $51 $-1 #
face $-1 $134 $135 $31 $-1 $136 reversed single #
loop $-1 $-1 $137 $53 #
plane-surface $-1 0 -18.690781724080104 -15.252159053123588 0 -1 0 0 0 -1 forward_v I I I I #
coedge $-1 $138 $139 $140 $141 reversed $54 $-1 #
face $-1 $142 $143 $32 $-1 $144 reversed single #
loop $-1 $-1 $145 $56 #
plane-surface $-1 -66.21634676706546 -22.973223946118537 60.90323599760346 0 0.6560590369687036 0.75470957328743171 1 0 0 forward_v I I I I #
coedge $-1 $146 $147 $148 $149 reversed $57 $-1 #
face $-1 $-1 $150 $33 $-1 $151 forward single #
loop $-1 $152 $153 $59 #
cone-surface $-1 -73.939402868940505 31.389051444727727 8.5046759552112654 0 -0.6560590369687036 -0.75470957328743171 0.75 0 0 1 I I -0.70710678118654757 0.70710678118654757 0.75 forward I I I I #
loop $-1 $-1 $154 $43 #
coedge $-1 $96 $96 $155 $156 reversed $60 $-1 #
face $-1 $-1 $157 $34 $-1 $158 forward single #
loop $-1 $159 $160 $62 #
cone-surface $-1 -66.21634676706546 31.389051444727727 8.5046759552112654 0 -0.6560590369687036 -0.75470957328743171 0.75 0 0 1 I I -0.70710678118654757 0.70710678118654757 0.75 forward I I I I #
loop $-1 $-1 $161 $44 #
coedge $-1 $101 $101 $162 $163 reversed $63 $-1 #
face $-1 $-1 $164 $35 $-1 $165 forward single #
loop $-1 $166 $167 $65 #
cone-surface $-1 -58.493290665190422 31.389051444727727 8.5046759552112654 0 -0.6560590369687036 -0.75470957328743171 0.75 0 0 1 I I -0.70710678118654757 0.70710678118654757 0.75 forward I I I I #
loop $-1 $-1 $168 $45 #
coedge $-1 $106 $106 $169 $170 reversed $66 $-1 #
face $-1 $171 $172 $36 $-1 $173 forward single #
loop $-1 $-1 $174 $68 #
plane-surface $-1 53.344586597273725 80.799710599226231 180.28033887445599 1 0 0 0 -0.6560590369687036 -0.75470957328743171 forward_v I I I I #
coedge $-1 $175 $176 $177 $178 reversed $69 $-1 #
face $-1 $-1 $179 $37 $-1 $180 forward single #
loop $-1 $181 $182 $71 #
cone-surface $-1 58.493290665190415 31.389051444727727 8.5046759552112654 0 -0.6560590369687036 -0.75470957328743171 0.75 0 0 1 I I -0.70710678118654757 0.70710678118654757 0.75 forward I I I I #
loop $-1 $-1 $183 $47 #
coedge $-1 $115 $115 $184 $185 reversed $72 $-1 #
face $-1 $-1 $186 $38 $-1 $187 forward single #
loop $-1 $188 $189 $74 #
cone-surface $-1 66.21634676706546 31.389051444727727 8.5046759552112654 0 -0.6560590369687036 -0.75470957328743171 0.75 0 0 1 I I -0.70710678118654757 0.70710678118654757 0.75 forward I I I I #
loop $-1 $-1 $190 $48 #
coedge $-1 $120 $120 $191 $192 reversed $75 $-1 #
face $-1 $-1 $193 $39 $-1 $194 forward single #
loop $-1 $195 $196 $77 #
cone-surface $-1 73.939402868940505 31.389051444727727 8.5046759552112654 0 -0.6560590369687036 -0.75470957328743171 0.75 0 0 1 I I -0.70710678118654757 0.70710678118654757 0.75 forward I I I I #
loop $-1 $-1 $197 $49 #
coedge $-1 $125 $125 $198 $199 reversed $78 $-1 #
face $-1 $200 $201 $30 $-1 $202 reversed single #
loop $-1 $-1 $203 $80 #
plane-surface $-1 0 -45.096899283392844 0 0 1 0 0 0 1 forward_v I I I I #
coedge $-1 $204 $205 $206 $207 forward $81 $-1 #
coedge $-1 $208 $83 $209 $210 forward $51 $-1 #
coedge $-1 $83 $208 $211 $212 forward $51 $-1 #
coedge $-1 $213 $214 $83 $133 reversed $215 $-1 #
edge $-1 $216 -45.096899283392844 $217 45.096899283392844 $132 $218 forward 7 unknown #
face $-1 $219 $220 $31 $-1 $221 reversed single #
loop $-1 $-1 $222 $84 #
plane-surface $-1 0 0 -21.136375949727029 0 0 1 1 0 0 forward_v I I I I #
coedge $-1 $223 $224 $225 $226 reversed $85 $-1 #
coedge $-1 $227 $87 $224 $228 forward $54 $-1 #
coedge $-1 $87 $227 $229 $230 reversed $54 $-1 #
coedge $-1 $231 $225 $87 $141 forward $220 $-1 #
edge $-1 $232 2.7438614722118668 $233 29.149979031524609 $140 $234 forward 7 unknown #
face $-1 $235 $236 $32 $-1 $237 forward single #
loop $-1 $-1 $148 $88 #
plane-surface $-1 0 45.096899283392844 0 0 -1 0 0 0 -1 forward_v I I I I #
coedge $-1 $238 $239 $240 $241 reversed $89 $-1 #
coedge $-1 $147 $91 $242 $243 reversed $57 $-1 #
coedge $-1 $91 $146 $238 $244 reversed $57 $-1 #
coedge $-1 $240 $245 $91 $149 forward $143 $-1 #
edge $-1 $246 69.003793487500971 $247 88.409390067899182 $148 $248 forward 7 unknown #
loop $-1 $-1 $155 $92 #
plane-surface $-1 -66.21634676706546 -22.973223946118537 60.90323599760346 0 0.6560590369687036 0.75470957328743171 1 0 0 forward_v I I I I #
loop $-1 $-1 $249 $59 #
coedge $-1 $153 $153 $154 $250 reversed $93 $-1 #
coedge $-1 $154 $154 $153 $250 forward $95 $-1 #
coedge $-1 $155 $155 $96 $156 forward $150 $-1 #
edge $-1 $251 1.3961842886045936e-015 $251 6.2831853071796022 $155 $252 forward 7 unknown #
loop $-1 $-1 $162 $97 #
plane-surface $-1 -66.21634676706546 -22.973223946118537 60.90323599760346 0 0.6560590369687036 0.75470957328743171 1 0 0 forward_v I I I I #
loop $-1 $-1 $253 $62 #
coedge $-1 $160 $160 $161 $254 reversed $98 $-1 #
coedge $-1 $161 $161 $160 $254 forward $100 $-1 #
coedge $-1 $162 $162 $101 $163 forward $157 $-1 #
edge $-1 $255 1.3961842886045936e-015 $255 6.2831853071796022 $162 $256 forward 7 unknown #
loop $-1 $-1 $169 $102 #
plane-surface $-1 -66.21634676706546 -22.973223946118537 60.90323599760346 0 0.6560590369687036 0.75470957328743171 1 0 0 forward_v I I I I #
loop $-1 $-1 $257 $65 #
coedge $-1 $167 $167 $168 $258 reversed $103 $-1 #
coedge $-1 $168 $168 $167 $258 forward $105 $-1 #
coedge $-1 $169 $169 $106 $170 forward $164 $-1 #
edge $-1 $259 1.3961842886045936e-015 $259 6.2831853071796022 $169 $260 forward 7 unknown #
face $-1 $261 $262 $36 $-1 $263 reversed single #
loop $-1 $-1 $264 $107 #
plane-surface $-1 0 0 21.136375949727029 0 0 1 1 0 0 forward_v I I I I #
coedge $-1 $265 $266 $267 $268 reversed $108 $-1 #
coedge $-1 $269 $110 $270 $271 reversed $69 $-1 #
coedge $-1 $110 $269 $265 $272 forward $69 $-1 #
coedge $-1 $267 $273 $110 $178 forward $262 $-1 #
edge $-1 $274 -45.979933553324472 $275 -20.236413213740995 $177 $276 forward 7 unknown #
loop $-1 $-1 $184 $111 #
plane-surface $-1 66.21634676706546 -22.973223946118537 60.90323599760346 0 0.6560590369687036 0.75470957328743171 1 0 0 forward_v I I I I #
loop $-1 $-1 $277 $71 #
coedge $-1 $182 $182 $183 $278 reversed $112 $-1 #
coedge $-1 $183 $183 $182 $278 forward $114 $-1 #
coedge $-1 $184 $184 $115 $185 forward $179 $-1 #
edge $-1 $279 1.3961842886045936e-015 $279 6.2831853071796022 $184 $280 forward 7 unknown #
loop $-1 $-1 $191 $116 #
plane-surface $-1 66.21634676706546 -22.973223946118537 60.90323599760346 0 0.6560590369687036 0.75470957328743171 1 0 0 forward_v I I I I #
loop $-1 $-1 $281 $74 #
coedge $-1 $189 $189 $190 $282 reversed $117 $-1 #
coedge $-1 $190 $190 $189 $282 forward $119 $-1 #
coedge $-1 $191 $191 $120 $192 forward $186 $-1 #
edge $-1 $283 1.3961842886045936e-015 $283 6.2831853071796022 $191 $284 forward 7 unknown #
loop $-1 $-1 $198 $121 #
plane-surface $-1 66.21634676706546 -22.973223946118537 60.90323599760346 0 0.6560590369687036 0.75470957328743171 1 0 0 forward_v I I I I #
loop $-1 $-1 $285 $77 #
coedge $-1 $196 $196 $197 $286 reversed $122 $-1 #
coedge $-1 $197 $197 $196 $286 forward $124 $-1 #
coedge $-1 $198 $198 $125 $199 forward $193 $-1 #
edge $-1 $287 1.3961842886045936e-015 $287 6.2831853071796022 $198 $288 forward 7 unknown #
face $-1 $289 $290 $30 $-1 $291 reversed single #
loop $-1 $-1 $292 $126 #
plane-surface $-1 -79.088106936857201 0 0 1 0 0 0 0 -1 forward_v I I I I #
coedge $-1 $293 $211 $294 $295 forward $127 $-1 #
coedge $-1 $296 $129 $293 $297 forward $81 $-1 #
coedge $-1 $129 $296 $298 $299 forward $81 $-1 #
coedge $-1 $214 $213 $129 $207 reversed $215 $-1 #
edge $-1 $300 -45.096899283392844 $301 45.096899283392844 $206 $302 forward 7 unknown #
coedge $-1 $131 $130 $303 $304 forward $51 $-1 #
coedge $-1 $305 $306 $130 $210 reversed $290 $-1 #
edge $-1 $217 -79.088106936857201 $307 79.088106936857201 $209 $308 forward 7 unknown #
coedge $-1 $203 $309 $131 $212 reversed $127 $-1 #
edge $-1 $310 -79.088106936857201 $216 79.088106936857201 $211 $311 forward 7 unknown #
coedge $-1 $206 $132 $309 $312 forward $215 $-1 #
coedge $-1 $132 $206 $305 $313 reversed $215 $-1 #
loop $-1 $-1 $213 $289 #
vertex $-1 $133 $314 #
vertex $-1 $133 $315 #
straight-curve $-1 79.088106936857201 0 21.136375949727029 0 1 0 I I #
face $-1 $316 $317 $31 $-1 $318 reversed single #
loop $-1 $-1 $225 $134 #
plane-surface $-1 79.088106936857201 0 0 -1 0 0 0 0 1 forward_v I I I I #
coedge $-1 $319 $320 $223 $321 forward $135 $-1 #
coedge $-1 $322 $137 $222 $321 reversed $85 $-1 #
coedge $-1 $137 $322 $138 $228 reversed $85 $-1 #
coedge $-1 $140 $323 $137 $226 forward $220 $-1 #
edge $-1 $324 -13.510296423165235 $232 -1.7418626299583533 $225 $325 forward 7 unknown #
coedge $-1 $139 $138 $326 $327 reversed $54 $-1 #
edge $-1 $232 -79.088106936857201 $328 79.088106936857201 $224 $329 forward 7 unknown #
coedge $-1 $330 $331 $139 $230 forward $317 $-1 #
edge $-1 $233 -79.088106936857201 $332 79.088106936857201 $229 $333 forward 7 unknown #
coedge $-1 $323 $140 $331 $334 forward $220 $-1 #
vertex $-1 $141 $335 #
vertex $-1 $334 $336 #
straight-curve $-1 79.088106936857201 -15.946920251868237 -9.3679421565201473 0 -1 0 I I #
face $-1 $-1 $337 $32 $-1 $338 reversed single #
loop $-1 $-1 $242 $142 #
plane-surface $-1 0 0 21.136375949727029 0 0 1 1 0 0 forward_v I I I I #
coedge $-1 $339 $145 $147 $244 forward $89 $-1 #
coedge $-1 $145 $339 $340 $341 reversed $89 $-1 #
coedge $-1 $342 $148 $145 $241 forward $143 $-1 #
edge $-1 $247 20.236413213740995 $343 45.979933553324472 $240 $344 forward 7 unknown #
coedge $-1 $345 $346 $146 $243 forward $236 $-1 #
edge $-1 $347 -17.626540768973278 $246 4.6970439837797286 $242 $348 forward 7 unknown #
edge $-1 $247 -90.193798566785674 $347 -60.614758439450419 $147 $349 forward 7 unknown #
coedge $-1 $148 $342 $345 $350 reversed $143 $-1 #
vertex $-1 $350 $351 #
vertex $-1 $149 $352 #
straight-curve $-1 -53.344586597273725 45.096899283392844 90.140169437227996 0 0 -1 I I #
coedge $-1 $249 $249 $-1 $353 reversed $152 $-1 #
edge $-1 $354 0 $354 6.2831853071796004 $153 $355 forward 7 unknown #
vertex $-1 $156 $356 #
ellipse-curve $-1 -73.939402868940505 33.93510690701634 11.433577659527913 0 0.6560590369687036 0.75470957328743171 1.5 0 0 1 I I #
coedge $-1 $253 $253 $-1 $357 reversed $159 $-1 #
edge $-1 $358 0 $358 6.2831853071796004 $160 $359 forward 7 unknown #
vertex $-1 $163 $360 #
ellipse-curve $-1 -66.21634676706546 33.93510690701634 11.433577659527913 0 0.6560590369687036 0.75470957328743171 1.5 0 0 1 I I #
coedge $-1 $257 $257 $-1 $361 reversed $166 $-1 #
edge $-1 $362 0 $362 6.2831853071796004 $167 $363 forward 7 unknown #
vertex $-1 $170 $364 #
ellipse-curve $-1 -58.493290665190422 33.93510690701634 11.433577659527913 0 0.6560590369687036 0.75470957328743171 1.5 0 0 1 I I #
face $-1 $-1 $365 $36 $-1 $366 reversed single #
loop $-1 $-1 $267 $171 #
plane-surface $-1 0 45.096899283392844 0 0 -1 0 0 0 -1 forward_v I I I I #
coedge $-1 $367 $368 $266 $369 forward $172 $-1 #
coedge $-1 $266 $174 $176 $272 reversed $108 $-1 #
coedge $-1 $174 $265 $264 $369 reversed $108 $-1 #
coedge $-1 $370 $177 $174 $268 forward $262 $-1 #
edge $-1 $275 -88.409390067899182 $371 -69.003793487500971 $267 $372 forward 7 unknown #
coedge $-1 $176 $175 $367 $373 reversed $69 $-1 #
coedge $-1 $374 $375 $175 $271 forward $365 $-1 #
edge $-1 $376 31.967643240311844 $274 61.546683367647105 $270 $377 forward 7 unknown #
edge $-1 $378 60.614758439450419 $275 90.193798566785674 $265 $379 forward 7 unknown #
coedge $-1 $177 $370 $374 $380 forward $262 $-1 #
vertex $-1 $271 $381 #
vertex $-1 $178 $382 #
straight-curve $-1 33.10817338353273 45.096899283392844 1.7307793693288254 -1 0 0 I I #
coedge $-1 $277 $277 $-1 $383 reversed $181 $-1 #
edge $-1 $384 0 $384 6.2831853071796004 $182 $385 forward 7 unknown #
vertex $-1 $185 $386 #
ellipse-curve $-1 58.493290665190415 33.93510690701634 11.433577659527913 0 0.6560590369687036 0.75470957328743171 1.5 0 0 1 I I #
coedge $-1 $281 $281 $-1 $387 reversed $188 $-1 #
edge $-1 $388 0 $388 6.2831853071796004 $189 $389 forward 7 unknown #
vertex $-1 $192 $390 #
ellipse-curve $-1 66.21634676706546 33.93510690701634 11.433577659527913 0 0.6560590369687036 0.75470957328743171 1.5 0 0 1 I I #
coedge $-1 $285 $285 $-1 $391 reversed $195 $-1 #
edge $-1 $392 0 $392 6.2831853071796004 $196 $393 forward 7 unknown #
vertex $-1 $199 $394 #
ellipse-curve $-1 73.939402868940505 33.93510690701634 11.433577659527913 0 0.6560590369687036 0.75470957328743171 1.5 0 0 1 I I #
face $-1 $-1 $215 $30 $-1 $395 reversed single #
loop $-1 $-1 $305 $200 #
plane-surface $-1 0 45.096899283392844 0 0 -1 0 0 0 -1 forward_v I I I I #
coedge $-1 $396 $303 $306 $397 forward $201 $-1 #
coedge $-1 $309 $203 $204 $297 reversed $127 $-1 #
coedge $-1 $303 $396 $203 $295 reversed $201 $-1 #
edge $-1 $310 -21.136375949727029 $398 21.136375949727029 $294 $399 forward 7 unknown #
coedge $-1 $205 $204 $396 $400 forward $81 $-1 #
edge $-1 $301 -79.088106936857201 $398 79.088106936857201 $293 $401 forward 7 unknown #
coedge $-1 $306 $305 $205 $299 reversed $290 $-1 #
edge $-1 $402 -79.088106936857201 $300 79.088106936857201 $298 $403 forward 7 unknown #
vertex $-1 $207 $404 #
vertex $-1 $312 $405 #
straight-curve $-1 79.088106936857201 0 -21.136375949727029 0 -1 0 I I #
coedge $-1 $292 $294 $208 $304 reversed $201 $-1 #
edge $-1 $307 -45.096899283392844 $310 45.096899283392844 $303 $406 forward 7 unknown #
coedge $-1 $298 $209 $214 $313 forward $290 $-1 #
coedge $-1 $209 $298 $292 $397 reversed $290 $-1 #
vertex $-1 $210 $407 #
straight-curve $-1 0 45.096899283392844 21.136375949727029 -1 0 0 I I #
coedge $-1 $211 $293 $213 $312 reversed $127 $-1 #
vertex $-1 $304 $408 #
straight-curve $-1 0 -45.096899283392844 21.136375949727029 1 0 0 I I #
edge $-1 $216 -21.136375949727029 $301 21.136375949727029 $213 $409 forward 7 unknown #
edge $-1 $217 -21.136375949727029 $300 21.136375949727029 $214 $410 forward 7 unknown #
point $-1 79.088106936857201 -45.096899283392844 21.136375949727029 #
point $-1 79.088106936857201 45.096899283392844 21.136375949727029 #
face $-1 $-1 $411 $31 $-1 $412 reversed single #
loop $-1 $-1 $229 $219 #
plane-surface $-1 0 -45.096899283392844 0 0 1 0 0 0 1 forward_v I I I I #
coedge $-1 $413 $222 $323 $414 forward $135 $-1 #
coedge $-1 $222 $413 $415 $416 forward $135 $-1 #
edge $-1 $417 -79.088106936857201 $324 79.088106936857201 $222 $418 forward 7 unknown #
coedge $-1 $224 $223 $419 $420 reversed $85 $-1 #
coedge $-1 $225 $231 $319 $414 reversed $220 $-1 #
vertex $-1 $414 $421 #
straight-curve $-1 79.088106936857201 -18.690781724080104 -7.626079526561794 0 0 1 I I #
coedge $-1 $419 $422 $227 $327 forward $411 $-1 #
edge $-1 $332 -29.149979031524609 $328 -2.7438614722118668 $326 $423 forward 7 unknown #
vertex $-1 $327 $424 #
straight-curve $-1 0 -18.690781724080104 -9.3679421565201473 -1 0 0 I I #
coedge $-1 $425 $229 $422 $426 forward $317 $-1 #
coedge $-1 $229 $425 $231 $334 reversed $317 $-1 #
vertex $-1 $426 $427 #
straight-curve $-1 0 -45.096899283392844 -9.3679421565201473 -1 0 0 I I #
edge $-1 $233 9.3679421565201473 $428 21.136375949727029 $231 $429 forward 7 unknown #
point $-1 79.088106936857201 -18.690781724080104 -9.3679421565201473 #
point $-1 79.088106936857201 -45.096899283392844 -9.3679421565201473 #
loop $-1 $-1 $340 $235 #
plane-surface $-1 -79.088106936857201 0 0 1 0 0 0 0 -1 forward_v I I I I #
coedge $-1 $239 $238 $346 $430 reversed $89 $-1 #
coedge $-1 $431 $432 $239 $341 forward $337 $-1 #
edge $-1 $343 -61.546683367647098 $433 -31.967643240311844 $340 $434 forward 7 unknown #
coedge $-1 $245 $240 $432 $435 reversed $143 $-1 #
vertex $-1 $241 $436 #
straight-curve $-1 -33.10817338353273 45.096899283392844 1.7307793693288254 -1 0 0 I I #
coedge $-1 $437 $242 $245 $350 forward $236 $-1 #
coedge $-1 $242 $437 $339 $430 forward $236 $-1 #
vertex $-1 $243 $438 #
straight-curve $-1 -53.344586597273725 40.399855299613115 21.136375949727025 0 1 0 I I #
straight-curve $-1 -53.344586597273725 -22.973223946118537 60.90323599760346 0 -0.75470957328743171 0.6560590369687036 I I #
edge $-1 $246 53.344586597273725 $439 79.088106936857201 $245 $440 forward 7 unknown #
point $-1 -53.344586597273725 45.096899283392844 21.136375949727029 #
point $-1 -53.344586597273725 45.096899283392844 1.7307793693288147 #
edge $-1 $441 1 $441 0 $249 $-1 forward 7 unknown #
vertex $-1 $250 $442 #
ellipse-curve $-1 -73.939402868940505 31.881095722454255 9.0707081351768384 0 0.6560590369687036 0.75470957328743171 1.5 0 0 1 I I #
point $-1 -72.439402868940505 33.935106907016326 11.433577659527893 #
edge $-1 $443 1 $443 0 $253 $-1 forward 7 unknown #
vertex $-1 $254 $444 #
ellipse-curve $-1 -66.21634676706546 31.881095722454255 9.0707081351768384 0 0.6560590369687036 0.75470957328743171 1.5 0 0 1 I I #
point $-1 -64.71634676706546 33.935106907016326 11.433577659527893 #
edge $-1 $445 1 $445 0 $257 $-1 forward 7 unknown #
vertex $-1 $258 $446 #
ellipse-curve $-1 -58.493290665190422 31.881095722454255 9.0707081351768384 0 0.6560590369687036 0.75470957328743171 1.5 0 0 1 I I #
point $-1 -56.993290665190422 33.935106907016326 11.433577659527893 #
loop $-1 $-1 $270 $261 #
plane-surface $-1 79.088106936857201 0 0 -1 0 0 0 0 1 forward_v I I I I #
coedge $-1 $447 $264 $269 $373 forward $172 $-1 #
coedge $-1 $264 $447 $370 $448 forward $172 $-1 #
edge $-1 $371 -4.6970439837797286 $378 17.626540768973278 $264 $449 forward 7 unknown #
coedge $-1 $273 $267 $368 $448 reversed $262 $-1 #
vertex $-1 $369 $450 #
straight-curve $-1 53.344586597273725 45.096899283392844 90.140169437227996 0 0 1 I I #
edge $-1 $378 20.236413213740995 $376 45.979933553324472 $367 $451 forward 7 unknown #
coedge $-1 $375 $270 $273 $380 reversed $365 $-1 #
coedge $-1 $270 $374 $447 $452 reversed $365 $-1 #
vertex $-1 $452 $453 #
straight-curve $-1 79.088106936857201 -1.3529718582607675 42.1090371881251 0 0.75470957328743171 -0.6560590369687036 I I #
vertex $-1 $373 $454 #
straight-curve $-1 53.344586597273725 -22.973223946118537 60.90323599760346 0 0.75470957328743171 -0.6560590369687036 I I #
edge $-1 $455 -21.136375949727029 $274 -1.7307793693288147 $374 $456 forward 7 unknown #
point $-1 79.088106936857201 45.096899283392844 1.7307793693288147 #
point $-1 53.344586597273725 45.096899283392844 1.7307793693288147 #
edge $-1 $457 1 $457 0 $277 $-1 forward 7 unknown #
vertex $-1 $278 $458 #
ellipse-curve $-1 58.493290665190415 31.881095722454255 9.0707081351768384 0 0.6560590369687036 0.75470957328743171 1.5 0 0 1 I I #
point $-1 59.993290665190415 33.935106907016326 11.433577659527893 #
edge $-1 $459 1 $459 0 $281 $-1 forward 7 unknown #
vertex $-1 $282 $460 #
ellipse-curve $-1 66.21634676706546 31.881095722454255 9.0707081351768384 0 0.6560590369687036 0.75470957328743171 1.5 0 0 1 I I #
point $-1 67.71634676706546 33.935106907016326 11.433577659527893 #
edge $-1 $461 1 $461 0 $285 $-1 forward 7 unknown #
vertex $-1 $286 $462 #
ellipse-curve $-1 73.939402868940505 31.881095722454255 9.0707081351768384 0 0.6560590369687036 0.75470957328743171 1.5 0 0 1 I I #
point $-1 75.439402868940505 33.935106907016326 11.433577659527893 #
plane-surface $-1 79.088106936857201 0 0 -1 0 0 0 0 1 forward_v I I I I #
coedge $-1 $294 $292 $296 $400 reversed $201 $-1 #
edge $-1 $307 -21.136375949727029 $402 21.136375949727029 $306 $463 forward 7 unknown #
vertex $-1 $400 $464 #
straight-curve $-1 -79.088106936857201 -45.096899283392844 0 0 0 -1 I I #
edge $-1 $398 -45.096899283392844 $402 45.096899283392844 $396 $465 forward 7 unknown #
straight-curve $-1 0 -45.096899283392844 -21.136375949727029 -1 0 0 I I #
vertex $-1 $299 $466 #
straight-curve $-1 0 45.096899283392844 -21.136375949727029 1 0 0 I I #
point $-1 79.088106936857201 45.096899283392844 -21.136375949727029 #
point $-1 79.088106936857201 -45.096899283392844 -21.136375949727029 #
straight-curve $-1 -79.088106936857201 0 21.136375949727029 0 -1 0 I I #
point $-1 -79.088106936857201 45.096899283392844 21.136375949727029 #
point $-1 -79.088106936857201 -45.096899283392844 21.136375949727029 #
straight-curve $-1 79.088106936857201 -45.096899283392844 0 0 0 -1 I I #
straight-curve $-1 79.088106936857201 45.096899283392844 0 0 0 -1 I I #
loop $-1 $-1 $419 $316 #
plane-surface $-1 -79.088106936857201 0 0 1 0 0 0 0 -1 forward_v I I I I #
coedge $-1 $320 $319 $425 $467 forward $135 $-1 #
edge $-1 $324 18.690781724080104 $428 45.096899283392844 $323 $468 forward 7 unknown #
coedge $-1 $422 $419 $320 $416 reversed $411 $-1 #
edge $-1 $469 -45.096899283392844 $417 -18.690781724080104 $415 $470 forward 7 unknown #
vertex $-1 $420 $471 #
straight-curve $-1 0 -18.690781724080104 -21.136375949727029 1 0 0 I I #
coedge $-1 $415 $326 $322 $420 forward $411 $-1 #
edge $-1 $328 1.7418626299583533 $417 13.510296423165235 $419 $472 forward 7 unknown #
point $-1 79.088106936857201 -18.690781724080104 -21.136375949727029 #
coedge $-1 $326 $415 $330 $426 reversed $411 $-1 #
straight-curve $-1 -79.088106936857201 -15.946920251868237 -9.3679421565201473 0 1 0 I I #
point $-1 -79.088106936857201 -18.690781724080104 -9.3679421565201473 #
coedge $-1 $331 $330 $413 $467 reversed $317 $-1 #
edge $-1 $332 9.3679421565201473 $469 21.136375949727029 $422 $473 forward 7 unknown #
point $-1 -79.088106936857201 -45.096899283392844 -9.3679421565201473 #
vertex $-1 $334 $474 #
straight-curve $-1 79.088106936857201 -45.096899283392844 0 0 0 -1 I I #
edge $-1 $433 -45.979933553324472 $347 -20.236413213740995 $346 $475 forward 7 unknown #
coedge $-1 $432 $340 $437 $476 reversed $337 $-1 #
coedge $-1 $340 $431 $342 $435 forward $337 $-1 #
vertex $-1 $341 $477 #
straight-curve $-1 -79.088106936857201 -1.3529718582607675 42.1090371881251 0 -0.75470957328743171 0.6560590369687036 I I #
edge $-1 $439 -21.136375949727029 $343 -1.7307793693288218 $342 $478 forward 7 unknown #
point $-1 -79.088106936857201 45.096899283392844 1.7307793693288218 #
coedge $-1 $346 $345 $431 $476 forward $236 $-1 #
point $-1 -53.344586597273725 22.773314530639837 21.136375949727025 #
vertex $-1 $350 $479 #
straight-curve $-1 0 45.096899283392844 21.136375949727029 -1 0 0 I I #
vertex $-1 $353 $480 #
point $-1 -72.439402868940505 31.881095722454255 9.0707081351768384 #
vertex $-1 $357 $481 #
point $-1 -64.71634676706546 31.881095722454255 9.0707081351768384 #
vertex $-1 $361 $482 #
point $-1 -56.993290665190422 31.881095722454255 9.0707081351768384 #
coedge $-1 $368 $367 $375 $452 forward $172 $-1 #
edge $-1 $455 -79.088106936857201 $371 -53.344586597273725 $370 $483 forward 7 unknown #
straight-curve $-1 53.344586597273725 40.399855299613115 21.136375949727025 0 -1 0 I I #
point $-1 53.344586597273725 45.096899283392844 21.136375949727029 #
straight-curve $-1 33.10817338353273 22.77331453063983 21.136375949727032 1 0 0 I I #
edge $-1 $376 22.773314530639837 $455 45.096899283392844 $375 $484 forward 7 unknown #
point $-1 79.088106936857201 22.773314530639837 21.136375949727025 #
point $-1 53.344586597273725 22.773314530639837 21.136375949727025 #
vertex $-1 $452 $485 #
straight-curve $-1 79.088106936857201 45.096899283392844 0 0 0 -1 I I #
vertex $-1 $383 $486 #
point $-1 59.993290665190415 31.881095722454255 9.0707081351768384 #
vertex $-1 $387 $487 #
point $-1 67.71634676706546 31.881095722454255 9.0707081351768384 #
vertex $-1 $391 $488 #
point $-1 75.439402868940505 31.881095722454255 9.0707081351768384 #
straight-curve $-1 -79.088106936857201 45.096899283392844 0 0 0 -1 I I #
point $-1 -79.088106936857201 -45.096899283392844 -21.136375949727029 #
straight-curve $-1 -79.088106936857201 0 -21.136375949727029 0 1 0 I I #
point $-1 -79.088106936857201 45.096899283392844 -21.136375949727029 #
edge $-1 $428 -79.088106936857201 $469 79.088106936857201 $425 $489 forward 7 unknown #
straight-curve $-1 79.088106936857201 0 -21.136375949727029 0 -1 0 I I #
vertex $-1 $416 $490 #
straight-curve $-1 -79.088106936857201 0 -21.136375949727029 0 1 0 I I #
point $-1 -79.088106936857201 -18.690781724080104 -21.136375949727029 #
straight-curve $-1 -79.088106936857201 -18.690781724080104 -7.626079526561794 0 0 -1 I I #
straight-curve $-1 -79.088106936857201 -45.096899283392844 0 0 0 -1 I I #
point $-1 79.088106936857201 -45.096899283392844 -21.136375949727029 #
straight-curve $-1 -33.10817338353273 22.77331453063983 21.136375949727032 1 0 0 I I #
edge $-1 $439 -45.096899283392844 $433 -22.773314530639837 $431 $491 forward 7 unknown #
point $-1 -79.088106936857201 22.773314530639837 21.136375949727025 #
straight-curve $-1 -79.088106936857201 45.096899283392844 0 0 0 -1 I I #
point $-1 -79.088106936857201 45.096899283392844 21.136375949727029 #
point $-1 -73.939402868940505 30.897007167001199 7.9386437752456915 #
point $-1 -66.21634676706546 30.897007167001199 7.9386437752456915 #
point $-1 -58.493290665190422 30.897007167001199 7.9386437752456915 #
straight-curve $-1 0 45.096899283392844 21.136375949727029 -1 0 0 I I #
straight-curve $-1 79.088106936857201 0 21.136375949727029 0 1 0 I I #
point $-1 79.088106936857201 45.096899283392844 21.136375949727029 #
point $-1 58.493290665190415 30.897007167001199 7.9386437752456915 #
point $-1 66.21634676706546 30.897007167001199 7.9386437752456915 #
point $-1 73.939402868940505 30.897007167001199 7.9386437752456915 #
straight-curve $-1 0 -45.096899283392844 -21.136375949727029 -1 0 0 I I #
point $-1 -79.088106936857201 -45.096899283392844 -21.136375949727029 #
straight-curve $-1 -79.088106936857201 0 21.136375949727029 0 -1 0 I I #
End-of-ACIS-data 