500 0 13 0           
7 Unknown 11 ACIS 5.0 NT 24 Fri Mar 26 17:47:30 1999 
-1 9.9999999999999995e-007 1e-010 
body $-1 $13 $-1 $14 #
body $-1 $15 $-1 $16 #
body $-1 $17 $-1 $18 #
body $-1 $19 $-1 $20 #
body $-1 $21 $-1 $22 #
body $-1 $23 $-1 $24 #
body $-1 $25 $-1 $26 #
body $-1 $27 $-1 $28 #
body $-1 $29 $-1 $30 #
body $-1 $31 $-1 $32 #
body $-1 $33 $-1 $34 #
body $-1 $35 $-1 $36 #
body $-1 $37 $-1 $38 #
lump $-1 $-1 $39 $0 #
transform $-1 1 0 0 0 1 0 0 0 1 61.51676992095706 30.274391208056191 13.486041560999523 1 rotate no_reflect no_shear #
lump $-1 $-1 $40 $1 #
transform $-1 1 0 0 0 1 0 0 0 1 61.51676992095706 30.274391208056191 13.486041560999523 1 rotate no_reflect no_shear #
lump $-1 $-1 $41 $2 #
transform $-1 1 0 0 0 1 0 0 0 1 61.51676992095706 30.274391208056191 13.486041560999523 1 rotate no_reflect no_shear #
lump $-1 $-1 $42 $3 #
transform $-1 1 0 0 0 1 0 0 0 1 61.51676992095706 30.274391208056191 13.486041560999523 1 rotate no_reflect no_shear #
lump $-1 $-1 $43 $4 #
transform $-1 1 0 0 0 1 0 0 0 1 61.51676992095706 30.274391208056191 13.486041560999523 1 rotate no_reflect no_shear #
lump $-1 $-1 $44 $5 #
transform $-1 1 0 0 0 1 0 0 0 1 61.51676992095706 30.274391208056191 13.486041560999523 1 rotate no_reflect no_shear #
lump $-1 $-1 $45 $6 #
transform $-1 1 0 0 0 1 0 0 0 1 61.51676992095706 30.274391208056191 13.486041560999523 1 rotate no_reflect no_shear #
lump $-1 $-1 $46 $7 #
transform $-1 1 0 0 0 1 0 0 0 1 61.51676992095706 30.274391208056191 13.486041560999523 1 rotate no_reflect no_shear #
lump $-1 $-1 $47 $8 #
transform $-1 1 0 0 0 1 0 0 0 1 61.51676992095706 30.274391208056191 13.486041560999523 1 rotate no_reflect no_shear #
lump $-1 $-1 $48 $9 #
transform $-1 1 0 0 0 1 0 0 0 1 61.51676992095706 30.274391208056191 13.486041560999523 1 rotate no_reflect no_shear #
lump $-1 $-1 $49 $10 #
transform $-1 1 0 0 0 1 0 0 0 1 61.51676992095706 30.274391208056191 13.486041560999523 1 rotate no_reflect no_shear #
lump $-1 $-1 $50 $11 #
transform $-1 1 0 0 0 1 0 0 0 1 61.51676992095706 30.274391208056191 13.486041560999523 1 rotate no_reflect no_shear #
lump $-1 $-1 $51 $12 #
transform $-1 1 0 0 0 1 0 0 0 1 61.51676992095706 30.274391208056191 13.486041560999523 1 rotate no_reflect no_shear #
shell $-1 $-1 $-1 $52 $-1 $13 #
shell $-1 $-1 $-1 $53 $-1 $15 #
shell $-1 $-1 $-1 $54 $-1 $17 #
shell $-1 $-1 $-1 $55 $-1 $19 #
shell $-1 $-1 $-1 $56 $-1 $21 #
shell $-1 $-1 $-1 $57 $-1 $23 #
shell $-1 $-1 $-1 $58 $-1 $25 #
shell $-1 $-1 $-1 $59 $-1 $27 #
shell $-1 $-1 $-1 $60 $-1 $29 #
shell $-1 $-1 $-1 $61 $-1 $31 #
shell $-1 $-1 $-1 $62 $-1 $33 #
shell $-1 $-1 $-1 $63 $-1 $35 #
shell $-1 $-1 $-1 $64 $-1 $37 #
face $-1 $65 $66 $39 $-1 $67 forward single #
face $-1 $68 $69 $40 $-1 $70 forward single #
face $-1 $71 $72 $41 $-1 $73 reversed single #
face $-1 $74 $75 $42 $-1 $76 forward single #
face $-1 $77 $78 $43 $-1 $79 forward single #
face $-1 $80 $81 $44 $-1 $82 reversed single #
face $-1 $83 $84 $45 $-1 $85 forward single #
face $-1 $86 $87 $46 $-1 $88 forward single #
face $-1 $89 $90 $47 $-1 $91 forward single #
face $-1 $92 $93 $48 $-1 $94 reversed single #
face $-1 $95 $96 $49 $-1 $97 forward single #
face $-1 $98 $99 $50 $-1 $100 forward single #
face $-1 $101 $102 $51 $-1 $103 forward single #
face $-1 $104 $105 $39 $-1 $106 reversed single #
loop $-1 $-1 $107 $52 #
plane-surface $-1 0 0 13.486041560999523 0 0 1 1 0 0 forward_v I I I I #
face $-1 $108 $109 $40 $-1 $110 reversed single #
loop $-1 $-1 $111 $53 #
plane-surface $-1 0 -30.274391208056191 0 0 1 0 0 0 1 forward_v I I I I #
face $-1 $112 $113 $41 $-1 $114 reversed single #
loop $-1 $-1 $115 $54 #
plane-surface $-1 -138.94428628797732 4.0047204945945758 99.31347000533971 0 1 0 -0.62932039886446345 0 0.77714595512881146 forward_v I I I I #
face $-1 $116 $117 $42 $-1 $118 forward single #
loop $-1 $119 $120 $55 #
cone-surface $-1 -54.910156051284517 6.9647146499895491 7.8966529718886722 0.62932039886446345 0 -0.77714595512881146 0.77714595512881146 0 0.62932039886446345 1 I I 0 1 1 forward I I I I #
face $-1 $121 $122 $43 $-1 $123 forward single #
loop $-1 $124 $125 $56 #
cone-surface $-1 -54.910156051284517 11.404705883082006 7.8966529718886722 0.62932039886446345 0 -0.77714595512881146 0.77714595512881146 0 0.62932039886446345 1 I I 0 1 1 forward I I I I #
face $-1 $126 $127 $44 $-1 $128 reversed single #
loop $-1 $-1 $129 $57 #
plane-surface $-1 61.51677193975118 -2.1398303831478902 174.20179249423728 0 -1 0 -0.70710678939079041 0 -0.70710677298230451 forward_v I I I I #
face $-1 $130 $131 $45 $-1 $132 forward single #
loop $-1 $133 $134 $58 #
cone-surface $-1 54.399497583719601 -9.6043238258173211 6.3687690807564854 -0.70710678939079041 0 -0.70710677298230451 0.35355338649115226 0 -0.35355339469539521 1 I I 0 1 0.5 forward I I I I #
face $-1 $135 $136 $46 $-1 $137 forward single #
loop $-1 $138 $139 $59 #
cone-surface $-1 54.399497583719601 -6.8051387848162861 6.3687690807564854 -0.70710678939079041 0 -0.70710677298230451 0.35355338649115226 0 -0.35355339469539521 1 I I 0 1 0.5 forward I I I I #
face $-1 $140 $141 $47 $-1 $142 forward single #
loop $-1 $143 $144 $60 #
cone-surface $-1 54.399497583719601 -4.005953743815251 6.3687690807564854 -0.70710678939079041 0 -0.70710677298230451 0.35355338649115226 0 -0.35355339469539521 1 I I 0 1 0.5 forward I I I I #
face $-1 $145 $146 $48 $-1 $147 reversed single #
loop $-1 $-1 $148 $61 #
plane-surface $-1 61.51677193975118 21.773977201963071 174.20179249423728 0 -1 0 -0.70710678939079041 0 -0.70710677298230451 forward_v I I I I #
face $-1 $149 $150 $49 $-1 $151 forward single #
loop $-1 $152 $153 $62 #
cone-surface $-1 54.399497583719601 14.309483759293638 6.3687690807564854 -0.70710678939079041 0 -0.70710677298230451 0.35355338649115226 0 -0.35355339469539521 1 I I 0 1 0.5 forward I I I I #
face $-1 $154 $155 $50 $-1 $156 forward single #
loop $-1 $157 $158 $63 #
cone-surface $-1 54.399497583719601 17.108668800294669 6.3687690807564854 -0.70710678939079041 0 -0.70710677298230451 0.35355338649115226 0 -0.35355339469539521 1 I I 0 1 0.5 forward I I I I #
face $-1 $159 $160 $51 $-1 $161 forward single #
loop $-1 $162 $163 $64 #
cone-surface $-1 54.399497583719601 19.907853841295701 6.3687690807564854 -0.70710678939079041 0 -0.70710677298230451 0.35355338649115226 0 -0.35355339469539521 1 I I 0 1 0.5 forward I I I I #
face $-1 $164 $165 $39 $-1 $166 reversed single #
loop $-1 $-1 $167 $65 #
plane-surface $-1 0 0 -13.486041560999523 0 0 1 1 0 0 forward_v I I I I #
coedge $-1 $168 $169 $170 $171 forward $66 $-1 #
face $-1 $172 $173 $40 $-1 $174 forward single #
loop $-1 $-1 $175 $68 #
plane-surface $-1 -61.51676992095706 0 0 1 0 0 0 0 -1 forward_v I I I I #
coedge $-1 $176 $177 $178 $179 forward $69 $-1 #
face $-1 $180 $181 $41 $-1 $182 reversed single #
loop $-1 $-1 $183 $71 #
plane-surface $-1 -61.516769920957074 9.1847102665357774 3.6984521720166867 -0.62932039886446345 0 0.77714595512881146 0.77714595512881146 0 0.62932039886446345 forward_v I I I I #
coedge $-1 $184 $185 $186 $187 reversed $72 $-1 #
face $-1 $-1 $188 $42 $-1 $189 forward single #
loop $-1 $190 $191 $74 #
cone-surface $-1 -54.032215010820259 6.9647146499895491 6.812486099704822 0.62932039886446345 0 -0.77714595512881146 0.38857297756440573 0 0.31466019943223172 1 I I -0.70710678118654813 0.70710678118654691 0.5 forward I I I I #
loop $-1 $-1 $192 $55 #
coedge $-1 $120 $120 $193 $194 reversed $75 $-1 #
face $-1 $-1 $195 $43 $-1 $196 forward single #
loop $-1 $197 $198 $77 #
cone-surface $-1 -54.032215010820259 11.404705883082006 6.812486099704822 0.62932039886446345 0 -0.77714595512881146 0.38857297756440573 0 0.31466019943223172 1 I I -0.70710678118654813 0.70710678118654691 0.5 forward I I I I #
loop $-1 $-1 $199 $56 #
coedge $-1 $125 $125 $200 $201 reversed $78 $-1 #
face $-1 $202 $203 $44 $-1 $204 reversed single #
loop $-1 $-1 $205 $80 #
plane-surface $-1 -25.481079405248622 -6.8051387848162825 87.203943168031586 0.70710678939079041 0 0.70710677298230451 0.70710677298230451 0 -0.70710678939079041 forward_v I I I I #
coedge $-1 $206 $207 $208 $209 reversed $81 $-1 #
face $-1 $-1 $210 $45 $-1 $211 forward single #
loop $-1 $212 $213 $83 #
cone-surface $-1 53.745423264036987 -9.6043238258173211 5.7146947762517346 -0.70710678939079041 0 -0.70710677298230451 0.17677669324557613 0 -0.1767766973476976 1 I I -0.70710678118654746 0.70710678118654746 0.25 forward I I I I #
loop $-1 $-1 $214 $58 #
coedge $-1 $134 $134 $215 $216 reversed $84 $-1 #
face $-1 $-1 $217 $46 $-1 $218 forward single #
loop $-1 $219 $220 $86 #
cone-surface $-1 53.745423264036987 -6.8051387848162861 5.7146947762517346 -0.70710678939079041 0 -0.70710677298230451 0.17677669324557613 0 -0.1767766973476976 1 I I -0.70710678118654746 0.70710678118654746 0.25 forward I I I I #
loop $-1 $-1 $221 $59 #
coedge $-1 $139 $139 $222 $223 reversed $87 $-1 #
face $-1 $-1 $224 $47 $-1 $225 forward single #
loop $-1 $226 $227 $89 #
cone-surface $-1 53.745423264036987 -4.005953743815251 5.7146947762517346 -0.70710678939079041 0 -0.70710677298230451 0.17677669324557613 0 -0.1767766973476976 1 I I -0.70710678118654746 0.70710678118654746 0.25 forward I I I I #
loop $-1 $-1 $228 $60 #
coedge $-1 $144 $144 $229 $230 reversed $90 $-1 #
face $-1 $231 $232 $48 $-1 $233 reversed single #
loop $-1 $-1 $234 $92 #
plane-surface $-1 -25.481079405248622 17.108668800294677 87.203943168031586 0.70710678939079041 0 0.70710677298230451 0.70710677298230451 0 -0.70710678939079041 forward_v I I I I #
coedge $-1 $235 $236 $237 $238 reversed $93 $-1 #
face $-1 $-1 $239 $49 $-1 $240 forward single #
loop $-1 $241 $242 $95 #
cone-surface $-1 53.745423264036987 14.309483759293638 5.7146947762517346 -0.70710678939079041 0 -0.70710677298230451 0.17677669324557613 0 -0.1767766973476976 1 I I -0.70710678118654746 0.70710678118654746 0.25 forward I I I I #
loop $-1 $-1 $243 $62 #
coedge $-1 $153 $153 $244 $245 reversed $96 $-1 #
face $-1 $-1 $246 $50 $-1 $247 forward single #
loop $-1 $248 $249 $98 #
cone-surface $-1 53.745423264036987 17.108668800294669 5.7146947762517346 -0.70710678939079041 0 -0.70710677298230451 0.17677669324557613 0 -0.1767766973476976 1 I I -0.70710678118654746 0.70710678118654746 0.25 forward I I I I #
loop $-1 $-1 $250 $63 #
coedge $-1 $158 $158 $251 $252 reversed $99 $-1 #
face $-1 $-1 $253 $51 $-1 $254 forward single #
loop $-1 $255 $256 $101 #
cone-surface $-1 53.745423264036987 19.907853841295701 5.7146947762517346 -0.70710678939079041 0 -0.70710677298230451 0.17677669324557613 0 -0.1767766973476976 1 I I -0.70710678118654746 0.70710678118654746 0.25 forward I I I I #
loop $-1 $-1 $257 $64 #
coedge $-1 $163 $163 $258 $259 reversed $102 $-1 #
face $-1 $260 $261 $39 $-1 $262 reversed single #
loop $-1 $-1 $263 $104 #
plane-surface $-1 0 -30.274391208056191 0 0 1 0 0 0 1 forward_v I I I I #
coedge $-1 $264 $265 $266 $267 forward $105 $-1 #
coedge $-1 $268 $107 $269 $270 forward $66 $-1 #
coedge $-1 $107 $268 $271 $272 forward $66 $-1 #
coedge $-1 $273 $274 $107 $171 reversed $275 $-1 #
edge $-1 $276 -30.274391208056191 $277 30.274391208056191 $170 $278 forward 7 unknown #
face $-1 $279 $280 $40 $-1 $281 reversed single #
loop $-1 $-1 $282 $108 #
plane-surface $-1 0 -35.42615621579538 2.7955884411575784 0 0 1 1 0 0 forward_v I I I I #
coedge $-1 $283 $284 $177 $285 forward $109 $-1 #
coedge $-1 $286 $111 $287 $288 reversed $69 $-1 #
coedge $-1 $111 $286 $175 $285 reversed $69 $-1 #
coedge $-1 $289 $282 $111 $179 reversed $173 $-1 #
edge $-1 $290 -61.51676992095706 $291 61.51676992095706 $178 $292 forward 7 unknown #
face $-1 $293 $294 $41 $-1 $295 forward single #
loop $-1 $-1 $296 $112 #
plane-surface $-1 -138.94428628797732 14.364700038476979 99.31347000533971 0 -1 0 0.62932039886446345 0 -0.77714595512881146 forward_v I I I I #
coedge $-1 $297 $298 $299 $300 reversed $113 $-1 #
coedge $-1 $185 $115 $301 $302 reversed $72 $-1 #
coedge $-1 $115 $184 $297 $303 reversed $72 $-1 #
coedge $-1 $299 $304 $115 $187 forward $294 $-1 #
edge $-1 $305 7.9553732230316001 $306 20.042039280312643 $186 $307 forward 7 unknown #
loop $-1 $-1 $193 $116 #
plane-surface $-1 -61.516769920957074 9.1847102665357774 3.6984521720166867 -0.62932039886446345 0 0.77714595512881146 0.77714595512881146 0 0.62932039886446345 forward_v I I I I #
loop $-1 $-1 $308 $74 #
coedge $-1 $191 $191 $192 $309 reversed $117 $-1 #
coedge $-1 $192 $192 $191 $309 forward $119 $-1 #
coedge $-1 $193 $193 $120 $194 forward $188 $-1 #
edge $-1 $310 0 $310 6.2831853071796004 $193 $311 forward 7 unknown #
loop $-1 $-1 $200 $121 #
plane-surface $-1 -61.516769920957074 9.1847102665357774 3.6984521720166867 -0.62932039886446345 0 0.77714595512881146 0.77714595512881146 0 0.62932039886446345 forward_v I I I I #
loop $-1 $-1 $312 $77 #
coedge $-1 $198 $198 $199 $313 reversed $122 $-1 #
coedge $-1 $199 $199 $198 $313 forward $124 $-1 #
coedge $-1 $200 $200 $125 $201 forward $195 $-1 #
edge $-1 $314 0 $314 6.2831853071796004 $200 $315 forward 7 unknown #
face $-1 $316 $317 $44 $-1 $318 reversed single #
loop $-1 $-1 $319 $126 #
plane-surface $-1 61.51677193975118 -11.470447186484675 174.20179249423728 0 1 0 0.70710678939079041 0 0.70710677298230451 forward_v I I I I #
coedge $-1 $320 $321 $322 $323 reversed $127 $-1 #
coedge $-1 $207 $129 $324 $325 reversed $81 $-1 #
coedge $-1 $129 $206 $320 $326 reversed $81 $-1 #
coedge $-1 $322 $327 $129 $209 forward $328 $-1 #
edge $-1 $329 -30.75838395108147 $330 -17.478434521276341 $208 $331 forward 7 unknown #
loop $-1 $-1 $215 $130 #
plane-surface $-1 -25.481079405248622 -6.8051387848162825 87.203943168031586 0.70710678939079041 0 0.70710677298230451 0.70710677298230451 0 -0.70710678939079041 forward_v I I I I #
loop $-1 $-1 $332 $83 #
coedge $-1 $213 $213 $214 $333 reversed $131 $-1 #
coedge $-1 $214 $214 $213 $333 forward $133 $-1 #
coedge $-1 $215 $215 $134 $216 forward $210 $-1 #
edge $-1 $334 0 $334 6.2831853071796004 $215 $335 forward 7 unknown #
loop $-1 $-1 $222 $135 #
plane-surface $-1 -25.481079405248622 -6.8051387848162825 87.203943168031586 0.70710678939079041 0 0.70710677298230451 0.70710677298230451 0 -0.70710678939079041 forward_v I I I I #
loop $-1 $-1 $336 $86 #
coedge $-1 $220 $220 $221 $337 reversed $136 $-1 #
coedge $-1 $221 $221 $220 $337 forward $138 $-1 #
coedge $-1 $222 $222 $139 $223 forward $217 $-1 #
edge $-1 $338 0 $338 6.2831853071796004 $222 $339 forward 7 unknown #
loop $-1 $-1 $229 $140 #
plane-surface $-1 -25.481079405248622 -6.8051387848162825 87.203943168031586 0.70710678939079041 0 0.70710677298230451 0.70710677298230451 0 -0.70710678939079041 forward_v I I I I #
loop $-1 $-1 $340 $89 #
coedge $-1 $227 $227 $228 $341 reversed $141 $-1 #
coedge $-1 $228 $228 $227 $341 forward $143 $-1 #
coedge $-1 $229 $229 $144 $230 forward $224 $-1 #
edge $-1 $342 0 $342 6.2831853071796004 $229 $343 forward 7 unknown #
face $-1 $344 $345 $48 $-1 $346 reversed single #
loop $-1 $-1 $347 $145 #
plane-surface $-1 61.51677193975118 12.443360398626284 174.20179249423728 0 1 0 0.70710678939079041 0 0.70710677298230451 forward_v I I I I #
coedge $-1 $348 $349 $350 $351 reversed $146 $-1 #
coedge $-1 $236 $148 $352 $353 reversed $93 $-1 #
coedge $-1 $148 $235 $348 $354 reversed $93 $-1 #
coedge $-1 $350 $355 $148 $238 forward $356 $-1 #
edge $-1 $357 -30.75838395108147 $358 -17.478434521276341 $237 $359 forward 7 unknown #
loop $-1 $-1 $244 $149 #
plane-surface $-1 -25.481079405248622 17.108668800294677 87.203943168031586 0.70710678939079041 0 0.70710677298230451 0.70710677298230451 0 -0.70710678939079041 forward_v I I I I #
loop $-1 $-1 $360 $95 #
coedge $-1 $242 $242 $243 $361 reversed $150 $-1 #
coedge $-1 $243 $243 $242 $361 forward $152 $-1 #
coedge $-1 $244 $244 $153 $245 forward $239 $-1 #
edge $-1 $362 0 $362 6.2831853071796004 $244 $363 forward 7 unknown #
loop $-1 $-1 $251 $154 #
plane-surface $-1 -25.481079405248622 17.108668800294677 87.203943168031586 0.70710678939079041 0 0.70710677298230451 0.70710677298230451 0 -0.70710678939079041 forward_v I I I I #
loop $-1 $-1 $364 $98 #
coedge $-1 $249 $249 $250 $365 reversed $155 $-1 #
coedge $-1 $250 $250 $249 $365 forward $157 $-1 #
coedge $-1 $251 $251 $158 $252 forward $246 $-1 #
edge $-1 $366 0 $366 6.2831853071796004 $251 $367 forward 7 unknown #
loop $-1 $-1 $258 $159 #
plane-surface $-1 -25.481079405248622 17.108668800294677 87.203943168031586 0.70710678939079041 0 0.70710677298230451 0.70710677298230451 0 -0.70710678939079041 forward_v I I I I #
loop $-1 $-1 $368 $101 #
coedge $-1 $256 $256 $257 $369 reversed $160 $-1 #
coedge $-1 $257 $257 $256 $369 forward $162 $-1 #
coedge $-1 $258 $258 $163 $259 forward $253 $-1 #
edge $-1 $370 0 $370 6.2831853071796004 $258 $371 forward 7 unknown #
face $-1 $372 $373 $39 $-1 $374 reversed single #
loop $-1 $-1 $375 $164 #
plane-surface $-1 -61.51676992095706 0 0 1 0 0 0 0 -1 forward_v I I I I #
coedge $-1 $376 $271 $377 $378 forward $165 $-1 #
coedge $-1 $379 $167 $376 $380 forward $105 $-1 #
coedge $-1 $167 $379 $381 $382 forward $105 $-1 #
coedge $-1 $274 $273 $167 $267 reversed $275 $-1 #
edge $-1 $383 -30.274391208056191 $384 30.274391208056191 $266 $385 forward 7 unknown #
coedge $-1 $169 $168 $386 $387 forward $66 $-1 #
coedge $-1 $388 $389 $168 $270 reversed $373 $-1 #
edge $-1 $277 -61.51676992095706 $390 61.51676992095706 $269 $391 forward 7 unknown #
coedge $-1 $263 $392 $169 $272 reversed $165 $-1 #
edge $-1 $393 -61.51676992095706 $276 61.51676992095706 $271 $394 forward 7 unknown #
coedge $-1 $266 $170 $392 $395 forward $275 $-1 #
coedge $-1 $170 $266 $388 $396 reversed $275 $-1 #
loop $-1 $-1 $273 $372 #
vertex $-1 $171 $397 #
vertex $-1 $171 $398 #
straight-curve $-1 61.51676992095706 0 13.486041560999523 0 1 0 I I #
face $-1 $399 $400 $40 $-1 $401 reversed single #
loop $-1 $-1 $402 $172 #
plane-surface $-1 0 -35.42615621579538 -3.313238136597219 0 0 1 1 0 0 forward_v I I I I #
coedge $-1 $178 $403 $404 $405 forward $173 $-1 #
coedge $-1 $406 $175 $407 $408 reversed $109 $-1 #
coedge $-1 $175 $406 $289 $409 reversed $109 $-1 #
edge $-1 $290 -2.7955884411575784 $410 3.313238136597219 $175 $411 forward 7 unknown #
coedge $-1 $177 $176 $412 $413 forward $69 $-1 #
coedge $-1 $404 $414 $176 $288 forward $415 $-1 #
edge $-1 $416 -3.313238136597219 $291 2.7955884411575784 $287 $417 forward 7 unknown #
coedge $-1 $403 $178 $284 $409 forward $173 $-1 #
vertex $-1 $285 $418 #
vertex $-1 $405 $419 #
straight-curve $-1 0 -30.274391208056191 2.7955884411575784 1 0 0 I I #
face $-1 $-1 $420 $41 $-1 $421 reversed single #
loop $-1 $-1 $186 $180 #
plane-surface $-1 0 0 13.486041560999523 0 0 1 1 0 0 forward_v I I I I #
coedge $-1 $422 $423 $424 $425 reversed $181 $-1 #
coedge $-1 $426 $183 $185 $303 forward $113 $-1 #
coedge $-1 $183 $426 $422 $427 forward $113 $-1 #
coedge $-1 $424 $186 $183 $300 forward $294 $-1 #
edge $-1 $306 -0.58763463867331289 $428 9.7723449052090903 $299 $429 forward 7 unknown #
coedge $-1 $430 $431 $184 $302 forward $420 $-1 #
edge $-1 $432 -45.958282830653154 $305 -36.170693441670331 $301 $433 forward 7 unknown #
edge $-1 $306 -15.552633295604942 $432 -1.8310242626372826e-014 $185 $434 forward 7 unknown #
coedge $-1 $186 $424 $430 $435 forward $294 $-1 #
vertex $-1 $302 $436 #
vertex $-1 $187 $437 #
straight-curve $-1 -69.47214314398866 4.0047204945945758 13.486041560999524 1 0 0 I I #
coedge $-1 $308 $308 $-1 $438 reversed $190 $-1 #
edge $-1 $439 0 $439 6.2831853071796004 $191 $440 forward 7 unknown #
vertex $-1 $194 $441 #
ellipse-curve $-1 -55.473436892316535 6.9647146499895491 8.5922468665081109 -0.62932039886446345 0 0.77714595512881146 0.77714595512881146 0 0.62932039886446345 1 I I #
coedge $-1 $312 $312 $-1 $442 reversed $197 $-1 #
edge $-1 $443 0 $443 6.2831853071796004 $198 $444 forward 7 unknown #
vertex $-1 $201 $445 #
ellipse-curve $-1 -55.473436892316535 11.404705883082006 8.5922468665081109 -0.62932039886446345 0 0.77714595512881146 0.77714595512881146 0 0.62932039886446345 1 I I #
face $-1 $-1 $328 $44 $-1 $446 forward single #
loop $-1 $-1 $447 $202 #
plane-surface $-1 61.51676992095706 0 0 -1 0 0 0 0 1 forward_v I I I I #
coedge $-1 $448 $449 $450 $451 reversed $203 $-1 #
coedge $-1 $452 $205 $207 $326 forward $127 $-1 #
coedge $-1 $205 $452 $448 $453 forward $127 $-1 #
coedge $-1 $450 $208 $205 $323 forward $328 $-1 #
edge $-1 $330 -1.2627390092602511 $454 8.0678777940765336 $322 $455 forward 7 unknown #
coedge $-1 $456 $457 $206 $325 forward $317 $-1 #
edge $-1 $458 -86.894804424086843 $329 -73.614854686119116 $324 $459 forward 7 unknown #
edge $-1 $330 104.25285503275101 $458 123.03353984191415 $207 $460 forward 7 unknown #
coedge $-1 $208 $450 $456 $461 forward $328 $-1 #
loop $-1 $-1 $450 $316 #
vertex $-1 $325 $462 #
vertex $-1 $209 $463 #
straight-curve $-1 30.75838596987559 -2.1398303831478902 13.486041560999524 -1 0 0 I I #
coedge $-1 $332 $332 $-1 $464 reversed $212 $-1 #
edge $-1 $465 0 $465 6.2831853071796004 $213 $466 forward 7 unknown #
vertex $-1 $216 $467 #
ellipse-curve $-1 54.876795206054517 -9.6043238258173211 6.8460666920156612 0.70710678939079041 0 0.70710677298230451 0.35355338649115226 0 -0.35355339469539521 1 I I #
coedge $-1 $336 $336 $-1 $468 reversed $219 $-1 #
edge $-1 $469 0 $469 6.2831853071796004 $220 $470 forward 7 unknown #
vertex $-1 $223 $471 #
ellipse-curve $-1 54.876795206054517 -6.8051387848162861 6.8460666920156612 0.70710678939079041 0 0.70710677298230451 0.35355338649115226 0 -0.35355339469539521 1 I I #
coedge $-1 $340 $340 $-1 $472 reversed $226 $-1 #
edge $-1 $473 0 $473 6.2831853071796004 $227 $474 forward 7 unknown #
vertex $-1 $230 $475 #
ellipse-curve $-1 54.876795206054517 -4.005953743815251 6.8460666920156612 0.70710678939079041 0 0.70710677298230451 0.35355338649115226 0 -0.35355339469539521 1 I I #
face $-1 $-1 $356 $48 $-1 $476 forward single #
loop $-1 $-1 $477 $231 #
plane-surface $-1 61.51676992095706 0 0 -1 0 0 0 0 1 forward_v I I I I #
coedge $-1 $478 $479 $480 $481 reversed $232 $-1 #
coedge $-1 $482 $234 $236 $354 forward $146 $-1 #
coedge $-1 $234 $482 $478 $483 forward $146 $-1 #
coedge $-1 $480 $237 $234 $351 forward $356 $-1 #
edge $-1 $358 -13.219642801815732 $484 -3.8890259984789459 $350 $485 forward 7 unknown #
coedge $-1 $486 $487 $235 $353 forward $345 $-1 #
edge $-1 $488 -86.894804424086843 $357 -73.614854686119116 $352 $489 forward 7 unknown #
edge $-1 $358 104.25285503275101 $488 123.03353984191415 $236 $490 forward 7 unknown #
coedge $-1 $237 $480 $486 $491 forward $356 $-1 #
loop $-1 $-1 $480 $344 #
vertex $-1 $353 $492 #
vertex $-1 $238 $493 #
straight-curve $-1 30.75838596987559 21.773977201963071 13.486041560999524 -1 0 0 I I #
coedge $-1 $360 $360 $-1 $494 reversed $241 $-1 #
edge $-1 $495 0 $495 6.2831853071796004 $242 $496 forward 7 unknown #
vertex $-1 $245 $497 #
ellipse-curve $-1 54.876795206054517 14.309483759293638 6.8460666920156612 0.70710678939079041 0 0.70710677298230451 0.35355338649115226 0 -0.35355339469539521 1 I I #
coedge $-1 $364 $364 $-1 $498 reversed $248 $-1 #
edge $-1 $499 0 $499 6.2831853071796004 $249 $500 forward 7 unknown #
vertex $-1 $252 $501 #
ellipse-curve $-1 54.876795206054517 17.108668800294669 6.8460666920156612 0.70710678939079041 0 0.70710677298230451 0.35355338649115226 0 -0.35355339469539521 1 I I #
coedge $-1 $368 $368 $-1 $502 reversed $255 $-1 #
edge $-1 $503 0 $503 6.2831853071796004 $256 $504 forward 7 unknown #
vertex $-1 $259 $505 #
ellipse-curve $-1 54.876795206054517 19.907853841295701 6.8460666920156612 0.70710678939079041 0 0.70710677298230451 0.35355338649115226 0 -0.35355339469539521 1 I I #
face $-1 $-1 $275 $39 $-1 $506 reversed single #
loop $-1 $-1 $388 $260 #
plane-surface $-1 0 30.274391208056191 0 0 -1 0 0 0 -1 forward_v I I I I #
coedge $-1 $507 $386 $389 $508 forward $261 $-1 #
coedge $-1 $392 $263 $264 $380 reversed $165 $-1 #
coedge $-1 $386 $507 $263 $378 reversed $261 $-1 #
edge $-1 $393 -13.486041560999523 $509 13.486041560999523 $377 $510 forward 7 unknown #
coedge $-1 $265 $264 $507 $511 forward $105 $-1 #
edge $-1 $384 -61.51676992095706 $509 61.51676992095706 $376 $512 forward 7 unknown #
coedge $-1 $389 $388 $265 $382 reversed $373 $-1 #
edge $-1 $513 -61.51676992095706 $383 61.51676992095706 $381 $514 forward 7 unknown #
vertex $-1 $267 $515 #
vertex $-1 $395 $516 #
straight-curve $-1 61.51676992095706 0 -13.486041560999523 0 -1 0 I I #
coedge $-1 $375 $377 $268 $387 reversed $261 $-1 #
edge $-1 $390 -30.274391208056191 $393 30.274391208056191 $386 $517 forward 7 unknown #
coedge $-1 $381 $269 $274 $396 forward $373 $-1 #
coedge $-1 $269 $381 $375 $508 reversed $373 $-1 #
vertex $-1 $270 $518 #
straight-curve $-1 0 30.274391208056191 13.486041560999523 -1 0 0 I I #
coedge $-1 $271 $376 $273 $395 reversed $165 $-1 #
vertex $-1 $387 $519 #
straight-curve $-1 0 -30.274391208056191 13.486041560999523 1 0 0 I I #
edge $-1 $276 -13.486041560999523 $384 13.486041560999523 $273 $520 forward 7 unknown #
edge $-1 $277 -13.486041560999523 $383 13.486041560999523 $274 $521 forward 7 unknown #
point $-1 61.51676992095706 -30.274391208056191 13.486041560999523 #
point $-1 61.51676992095706 30.274391208056191 13.486041560999523 #
face $-1 $-1 $415 $40 $-1 $522 reversed single #
loop $-1 $-1 $523 $279 #
plane-surface $-1 0 -40.577921223534574 -0.25882484771982028 0 1 0 0 0 1 forward_v I I I I #
coedge $-1 $524 $412 $414 $525 forward $280 $-1 #
coedge $-1 $282 $289 $526 $527 forward $173 $-1 #
coedge $-1 $528 $287 $282 $405 reversed $415 $-1 #
edge $-1 $529 -5.1517650077391934 $291 5.1517650077391899 $404 $530 forward 7 unknown #
coedge $-1 $284 $283 $523 $531 reversed $109 $-1 #
coedge $-1 $412 $524 $283 $408 forward $280 $-1 #
edge $-1 $532 -5.1517650077391934 $410 5.1517650077391899 $283 $533 forward 7 unknown #
edge $-1 $290 -5.1517650077391899 $534 5.1517650077391934 $284 $535 forward 7 unknown #
vertex $-1 $285 $536 #
straight-curve $-1 -61.51676992095706 -30.274391208056191 0 0 0 -1 I I #
coedge $-1 $402 $407 $286 $413 reversed $280 $-1 #
edge $-1 $416 -61.51676992095706 $410 61.51676992095706 $412 $537 forward 7 unknown #
coedge $-1 $287 $528 $402 $525 reversed $415 $-1 #
loop $-1 $-1 $287 $399 #
vertex $-1 $288 $538 #
straight-curve $-1 61.51676992095706 -30.274391208056191 0 0 0 1 I I #
point $-1 -61.51676992095706 -30.274391208056191 2.7955884411575784 #
point $-1 61.51676992095706 -30.274391208056191 2.7955884411575784 #
loop $-1 $-1 $301 $293 #
plane-surface $-1 -61.51676992095706 0 0 1 0 0 0 0 -1 forward_v I I I I #
coedge $-1 $423 $296 $298 $427 reversed $181 $-1 #
coedge $-1 $296 $422 $539 $540 reversed $181 $-1 #
coedge $-1 $304 $299 $296 $425 forward $294 $-1 #
edge $-1 $428 -20.042039280312643 $541 -7.9553732230316001 $424 $542 forward 7 unknown #
coedge $-1 $298 $297 $431 $543 reversed $113 $-1 #
edge $-1 $544 1.8310242626372826e-014 $428 15.552633295604942 $422 $545 forward 7 unknown #
vertex $-1 $300 $546 #
straight-curve $-1 -49.430103863676017 4.5923551332678887 13.486041560999523 0 1 0 I I #
coedge $-1 $539 $301 $304 $435 reversed $420 $-1 #
coedge $-1 $301 $539 $426 $543 forward $420 $-1 #
vertex $-1 $302 $547 #
straight-curve $-1 -61.51676992095706 4.0047204945945758 49.656735002669855 0 0 1 I I #
straight-curve $-1 -61.516769920957074 4.0047204945945758 3.6984521720166867 -0.77714595512881146 0 -0.62932039886446345 I I #
edge $-1 $541 -14.364700038476979 $305 -4.0047204945945758 $430 $548 forward 7 unknown #
point $-1 -61.51676992095706 4.0047204945945758 13.486041560999523 #
point $-1 -49.430103863676017 4.0047204945945758 13.486041560999523 #
edge $-1 $549 1 $549 0 $308 $-1 forward 7 unknown #
vertex $-1 $309 $550 #
ellipse-curve $-1 -54.346875210252492 6.9647146499895491 7.2010590772692273 -0.62932039886446345 0 0.77714595512881146 0.77714595512881146 0 0.62932039886446345 1 I I #
point $-1 -54.696290937187733 6.9647146499895491 9.2215672653725811 #
edge $-1 $551 1 $551 0 $312 $-1 forward 7 unknown #
vertex $-1 $313 $552 #
ellipse-curve $-1 -54.346875210252492 11.404705883082006 7.2010590772692273 -0.62932039886446345 0 0.77714595512881146 0.77714595512881146 0 0.62932039886446345 1 I I #
point $-1 -54.696290937187733 11.404705883082006 9.2215672653725811 #
plane-surface $-1 0 0 13.486041560999523 0 0 1 1 0 0 forward_v I I I I #
coedge $-1 $457 $456 $449 $553 forward $317 $-1 #
coedge $-1 $449 $319 $321 $453 reversed $203 $-1 #
coedge $-1 $319 $448 $447 $553 reversed $203 $-1 #
coedge $-1 $327 $322 $319 $451 forward $328 $-1 #
edge $-1 $454 17.478434521276341 $554 30.75838395108147 $450 $555 forward 7 unknown #
coedge $-1 $321 $320 $457 $556 reversed $127 $-1 #
edge $-1 $557 -123.03353984191415 $454 -104.25285503275101 $448 $558 forward 7 unknown #
vertex $-1 $323 $559 #
straight-curve $-1 48.236820491151938 -3.4025693924081413 13.486041560999524 0 -1 0 I I #
coedge $-1 $447 $324 $327 $461 reversed $317 $-1 #
coedge $-1 $324 $447 $452 $556 forward $317 $-1 #
vertex $-1 $325 $560 #
straight-curve $-1 61.51676992095706 -2.1398303831478902 87.100896247118641 0 0 1 I I #
straight-curve $-1 -25.481079405248622 -2.1398303831478902 87.203943168031586 0.70710677298230451 0 -0.70710678939079041 I I #
edge $-1 $554 -11.470447186484675 $329 -2.1398303831478902 $456 $561 forward 7 unknown #
point $-1 61.51676992095706 -2.1398303831478902 13.486041560999523 #
point $-1 48.236820491151931 -2.1398303831478902 13.486041560999524 #
edge $-1 $562 1 $562 0 $332 $-1 forward 7 unknown #
vertex $-1 $333 $563 #
ellipse-curve $-1 53.922199961384685 -9.6043238258173211 5.8914714694973105 0.70710678939079041 0 0.70710677298230451 0.35355338649115226 0 -0.35355339469539521 1 I I #
point $-1 55.230348592545667 -9.6043238258173211 6.4925132973202651 #
edge $-1 $564 1 $564 0 $336 $-1 forward 7 unknown #
vertex $-1 $337 $565 #
ellipse-curve $-1 53.922199961384685 -6.8051387848162861 5.8914714694973105 0.70710678939079041 0 0.70710677298230451 0.35355338649115226 0 -0.35355339469539521 1 I I #
point $-1 55.230348592545667 -6.8051387848162861 6.4925132973202651 #
edge $-1 $566 1 $566 0 $340 $-1 forward 7 unknown #
vertex $-1 $341 $567 #
ellipse-curve $-1 53.922199961384685 -4.005953743815251 5.8914714694973105 0.70710678939079041 0 0.70710677298230451 0.35355338649115226 0 -0.35355339469539521 1 I I #
point $-1 55.230348592545667 -4.005953743815251 6.4925132973202651 #
plane-surface $-1 0 0 13.486041560999523 0 0 1 1 0 0 forward_v I I I I #
coedge $-1 $487 $486 $479 $568 forward $345 $-1 #
coedge $-1 $479 $347 $349 $483 reversed $232 $-1 #
coedge $-1 $347 $478 $477 $568 reversed $232 $-1 #
coedge $-1 $355 $350 $347 $481 forward $356 $-1 #
edge $-1 $484 17.478434521276341 $569 30.75838395108147 $480 $570 forward 7 unknown #
coedge $-1 $349 $348 $487 $571 reversed $146 $-1 #
edge $-1 $572 -123.03353984191415 $484 -104.25285503275101 $478 $573 forward 7 unknown #
vertex $-1 $351 $574 #
straight-curve $-1 48.236820491151938 8.5543344001473383 13.486041560999524 0 -1 0 I I #
coedge $-1 $477 $352 $355 $491 reversed $345 $-1 #
coedge $-1 $352 $477 $482 $571 forward $345 $-1 #
vertex $-1 $353 $575 #
straight-curve $-1 61.51676992095706 21.773977201963071 87.100896247118641 0 0 1 I I #
straight-curve $-1 -25.481079405248622 21.773977201963071 87.203943168031586 0.70710677298230451 0 -0.70710678939079041 I I #
edge $-1 $569 12.443360398626284 $357 21.773977201963071 $486 $576 forward 7 unknown #
point $-1 61.51676992095706 21.773977201963071 13.486041560999523 #
point $-1 48.236820491151931 21.773977201963071 13.486041560999524 #
edge $-1 $577 1 $577 0 $360 $-1 forward 7 unknown #
vertex $-1 $361 $578 #
ellipse-curve $-1 53.922199961384685 14.309483759293638 5.8914714694973105 0.70710678939079041 0 0.70710677298230451 0.35355338649115226 0 -0.35355339469539521 1 I I #
point $-1 55.230348592545667 14.309483759293638 6.4925132973202651 #
edge $-1 $579 1 $579 0 $364 $-1 forward 7 unknown #
vertex $-1 $365 $580 #
ellipse-curve $-1 53.922199961384685 17.108668800294669 5.8914714694973105 0.70710678939079041 0 0.70710677298230451 0.35355338649115226 0 -0.35355339469539521 1 I I #
point $-1 55.230348592545667 17.108668800294669 6.4925132973202651 #
edge $-1 $581 1 $581 0 $368 $-1 forward 7 unknown #
vertex $-1 $369 $582 #
ellipse-curve $-1 53.922199961384685 19.907853841295701 5.8914714694973105 0.70710678939079041 0 0.70710677298230451 0.35355338649115226 0 -0.35355339469539521 1 I I #
point $-1 55.230348592545667 19.907853841295701 6.4925132973202651 #
plane-surface $-1 61.51676992095706 0 0 -1 0 0 0 0 1 forward_v I I I I #
coedge $-1 $377 $375 $379 $511 reversed $261 $-1 #
edge $-1 $390 -13.486041560999523 $513 13.486041560999523 $389 $583 forward 7 unknown #
vertex $-1 $511 $584 #
straight-curve $-1 -61.51676992095706 -30.274391208056191 0 0 0 -1 I I #
edge $-1 $509 -30.274391208056191 $513 30.274391208056191 $507 $585 forward 7 unknown #
straight-curve $-1 0 -30.274391208056191 -13.486041560999523 -1 0 0 I I #
vertex $-1 $382 $586 #
straight-curve $-1 0 30.274391208056191 -13.486041560999523 1 0 0 I I #
point $-1 61.51676992095706 30.274391208056191 -13.486041560999523 #
point $-1 61.51676992095706 -30.274391208056191 -13.486041560999523 #
straight-curve $-1 -61.51676992095706 0 13.486041560999523 0 -1 0 I I #
point $-1 -61.51676992095706 30.274391208056191 13.486041560999523 #
point $-1 -61.51676992095706 -30.274391208056191 13.486041560999523 #
straight-curve $-1 61.51676992095706 -30.274391208056191 0 0 0 -1 I I #
straight-curve $-1 61.51676992095706 30.274391208056191 0 0 0 -1 I I #
plane-surface $-1 61.51676992095706 0 0 -1 0 0 0 0 1 forward_v I I I I #
coedge $-1 $587 $526 $406 $531 forward $400 $-1 #
coedge $-1 $407 $402 $587 $588 forward $280 $-1 #
edge $-1 $416 -5.1517650077391899 $589 5.1517650077391934 $414 $590 forward 7 unknown #
coedge $-1 $523 $591 $403 $527 reversed $400 $-1 #
edge $-1 $534 -61.51676992095706 $529 61.51676992095706 $526 $592 forward 7 unknown #
coedge $-1 $414 $404 $591 $593 forward $415 $-1 #
vertex $-1 $405 $594 #
straight-curve $-1 61.51676992095706 -35.42615621579538 2.7955884411575784 0 1 0 I I #
edge $-1 $534 -3.0544132888773987 $532 3.0544132888773987 $406 $595 forward 7 unknown #
vertex $-1 $408 $596 #
straight-curve $-1 -61.51676992095706 -35.42615621579538 -3.313238136597219 0 1 0 I I #
vertex $-1 $409 $597 #
straight-curve $-1 -61.51676992095706 -35.42615621579538 2.7955884411575784 0 -1 0 I I #
point $-1 -61.51676992095706 -30.274391208056191 -3.313238136597219 #
straight-curve $-1 0 -30.274391208056191 -3.313238136597219 -1 0 0 I I #
point $-1 61.51676992095706 -30.274391208056191 -3.313238136597219 #
coedge $-1 $431 $430 $423 $540 forward $420 $-1 #
edge $-1 $541 36.170693441670331 $544 45.958282830653154 $539 $598 forward 7 unknown #
vertex $-1 $435 $599 #
straight-curve $-1 -69.47214314398866 14.364700038476979 13.486041560999524 -1 0 0 I I #
edge $-1 $544 -9.7723449052090903 $432 0.58763463867331289 $431 $600 forward 7 unknown #
vertex $-1 $543 $601 #
straight-curve $-1 -61.516769920957074 14.364700038476979 3.6984521720166867 0.77714595512881146 0 0.62932039886446345 I I #
point $-1 -49.430103863676017 14.364700038476979 13.486041560999523 #
point $-1 -61.51676992095706 4.0047204945945758 3.6984521720166983 #
straight-curve $-1 -61.51676992095706 0 13.486041560999523 0 -1 0 I I #
vertex $-1 $438 $602 #
point $-1 -53.569729255123676 6.9647146499895491 7.8303794761336905 #
vertex $-1 $442 $603 #
point $-1 -53.569729255123676 11.404705883082006 7.8303794761336905 #
edge $-1 $554 73.614854686119116 $557 86.894804424086843 $447 $604 forward 7 unknown #
vertex $-1 $461 $605 #
straight-curve $-1 30.75838596987559 -11.470447186484675 13.486041560999524 1 0 0 I I #
edge $-1 $557 -8.0678777940765336 $458 1.2627390092602511 $457 $606 forward 7 unknown #
vertex $-1 $556 $607 #
straight-curve $-1 -25.481079405248622 -11.470447186484675 87.203943168031586 -0.70710677298230451 0 0.70710678939079041 I I #
point $-1 48.236820491151931 -11.470447186484675 13.486041560999524 #
point $-1 61.51676992095706 -2.1398303831478902 0.20609182303179807 #
straight-curve $-1 61.51676992095706 0 13.486041560999523 0 1 0 I I #
vertex $-1 $464 $608 #
point $-1 54.275753347875835 -9.6043238258173211 5.5379180748019152 #
vertex $-1 $468 $609 #
point $-1 54.275753347875835 -6.8051387848162861 5.5379180748019152 #
vertex $-1 $472 $610 #
point $-1 54.275753347875835 -4.005953743815251 5.5379180748019152 #
edge $-1 $569 73.614854686119116 $572 86.894804424086843 $477 $611 forward 7 unknown #
vertex $-1 $491 $612 #
straight-curve $-1 30.75838596987559 12.443360398626284 13.486041560999524 1 0 0 I I #
edge $-1 $572 3.8890259984789459 $488 13.219642801815732 $487 $613 forward 7 unknown #
vertex $-1 $571 $614 #
straight-curve $-1 -25.481079405248622 12.443360398626284 87.203943168031586 -0.70710677298230451 0 0.70710678939079041 I I #
point $-1 48.236820491151931 12.443360398626284 13.486041560999524 #
point $-1 61.51676992095706 21.773977201963071 0.20609182303179807 #
straight-curve $-1 61.51676992095706 0 13.486041560999523 0 1 0 I I #
vertex $-1 $494 $615 #
point $-1 54.275753347875835 14.309483759293638 5.5379180748019152 #
vertex $-1 $498 $616 #
point $-1 54.275753347875835 17.108668800294669 5.5379180748019152 #
vertex $-1 $502 $617 #
point $-1 54.275753347875835 19.907853841295701 5.5379180748019152 #
straight-curve $-1 -61.51676992095706 30.274391208056191 0 0 0 -1 I I #
point $-1 -61.51676992095706 -30.274391208056191 -13.486041560999523 #
straight-curve $-1 -61.51676992095706 0 -13.486041560999523 0 1 0 I I #
point $-1 -61.51676992095706 30.274391208056191 -13.486041560999523 #
coedge $-1 $591 $523 $524 $588 reversed $400 $-1 #
edge $-1 $589 -61.51676992095706 $532 61.51676992095706 $587 $618 forward 7 unknown #
vertex $-1 $593 $619 #
straight-curve $-1 61.51676992095706 -35.42615621579538 -3.313238136597219 0 -1 0 I I #
coedge $-1 $526 $587 $528 $593 reversed $400 $-1 #
straight-curve $-1 0 -40.577921223534574 2.7955884411575784 1 0 0 I I #
edge $-1 $529 -3.0544132888773987 $589 3.0544132888773987 $528 $620 forward 7 unknown #
point $-1 61.51676992095706 -40.577921223534574 2.7955884411575784 #
straight-curve $-1 -61.51676992095706 -40.577921223534574 -0.25882484771982028 0 0 -1 I I #
point $-1 -61.51676992095706 -40.577921223534574 -3.313238136597219 #
point $-1 -61.51676992095706 -40.577921223534574 2.7955884411575784 #
straight-curve $-1 -61.51676992095706 14.364700038476979 49.656735002669855 0 0 -1 I I #
point $-1 -61.51676992095706 14.364700038476979 13.486041560999523 #
straight-curve $-1 -61.51676992095706 4.5923551332678887 3.6984521720166956 0 -1 0 I I #
point $-1 -61.51676992095706 14.364700038476979 3.6984521720166983 #
point $-1 -53.717554811388027 6.9647146499895491 6.4239131221404167 #
point $-1 -53.717554811388027 11.404705883082006 6.4239131221404167 #
straight-curve $-1 61.51676992095706 -11.470447186484675 87.100896247118641 0 0 -1 I I #
point $-1 61.51676992095706 -11.470447186484675 13.486041560999523 #
straight-curve $-1 61.51676992095706 -3.4025693924081413 0.20609182303180518 0 1 0 I I #
point $-1 61.51676992095706 -11.470447186484675 0.20609182303179807 #
point $-1 53.568646566689289 -9.6043238258173211 5.5379180830061587 #
point $-1 53.568646566689289 -6.8051387848162861 5.5379180830061587 #
point $-1 53.568646566689289 -4.005953743815251 5.5379180830061587 #
straight-curve $-1 61.51676992095706 12.443360398626284 87.100896247118641 0 0 -1 I I #
point $-1 61.51676992095706 12.443360398626284 13.486041560999523 #
straight-curve $-1 61.51676992095706 8.5543344001473383 0.20609182303180518 0 1 0 I I #
point $-1 61.51676992095706 12.443360398626284 0.20609182303179807 #
point $-1 53.568646566689289 14.309483759293638 5.5379180830061587 #
point $-1 53.568646566689289 17.108668800294669 5.5379180830061587 #
point $-1 53.568646566689289 19.907853841295701 5.5379180830061587 #
straight-curve $-1 0 -40.577921223534574 -3.313238136597219 -1 0 0 I I #
point $-1 61.51676992095706 -40.577921223534574 -3.313238136597219 #
straight-curve $-1 61.51676992095706 -40.577921223534574 -0.25882484771982028 0 0 -1 I I #
End-of-ACIS-data 