500 0 5 0           
7 Unknown 11 ACIS 5.0 NT 24 Fri Mar 26 15:25:14 1999 
-1 9.9999999999999995e-007 1e-010 
body $-1 $5 $-1 $6 #
body $-1 $7 $-1 $8 #
body $-1 $9 $-1 $10 #
body $-1 $11 $-1 $12 #
body $-1 $13 $-1 $14 #
lump $-1 $-1 $15 $0 #
transform $-1 1 0 0 0 1 0 0 0 1 45.269936216315195 29.126693816743121 11.457696624337711 1 rotate no_reflect no_shear #
lump $-1 $-1 $16 $1 #
transform $-1 1 0 0 0 1 0 0 0 1 45.269936216315195 29.126693816743121 11.457696624337711 1 rotate no_reflect no_shear #
lump $-1 $-1 $17 $2 #
transform $-1 1 0 0 0 1 0 0 0 1 45.269936216315195 29.126693816743121 11.457696624337711 1 rotate no_reflect no_shear #
lump $-1 $-1 $18 $3 #
transform $-1 1 0 0 0 1 0 0 0 1 45.269936216315195 29.126693816743121 11.457696624337711 1 rotate no_reflect no_shear #
lump $-1 $-1 $19 $4 #
transform $-1 1 0 0 0 1 0 0 0 1 45.269936216315195 29.126693816743121 11.457696624337711 1 rotate no_reflect no_shear #
shell $-1 $-1 $-1 $20 $-1 $5 #
shell $-1 $-1 $-1 $21 $-1 $7 #
shell $-1 $-1 $-1 $22 $-1 $9 #
shell $-1 $-1 $-1 $23 $-1 $11 #
shell $-1 $-1 $-1 $24 $-1 $13 #
face $-1 $25 $26 $15 $-1 $27 forward single #
face $-1 $28 $29 $16 $-1 $30 reversed single #
face $-1 $31 $32 $17 $-1 $33 forward single #
face $-1 $34 $35 $18 $-1 $36 reversed single #
face $-1 $37 $38 $19 $-1 $39 reversed single #
face $-1 $40 $41 $15 $-1 $42 reversed single #
loop $-1 $-1 $43 $20 #
plane-surface $-1 0 0 11.457696624337711 0 0 1 1 0 0 forward_v I I I I #
face $-1 $44 $45 $16 $-1 $46 forward single #
loop $-1 $-1 $47 $21 #
plane-surface $-1 0 -21.645272844092322 10.500039896624356 0 0 1 1 0 0 forward_v I I I I #
face $-1 $48 $49 $17 $-1 $50 forward single #
loop $-1 $-1 $51 $22 #
plane-surface $-1 43.035284155943593 -5.2014713283721701 128.85925270747163 0 1 0 0.69465837861970381 0 0.71933979245794832 forward_v I I I I #
face $-1 $52 $53 $18 $-1 $54 reversed single #
loop $-1 $55 $56 $23 #
cone-surface $-1 38.289172258411512 -1.6648551891049834 4.6129990853271607 -0.69465837861970381 0 -0.71933979245794832 1.0790096886869225 0 -1.0419875679295556 1 I I 0 1 1.5 forward I I I I #
face $-1 $57 $58 $19 $-1 $59 reversed single #
loop $-1 $60 $61 $24 #
cone-surface $-1 38.289172258411512 3.6400690197957957 4.6129990853271607 -0.69465837861970381 0 -0.71933979245794832 1.0790096886869225 0 -1.0419875679295556 1 I I 0 1 1.5 forward I I I I #
face $-1 $62 $63 $15 $-1 $64 reversed single #
loop $-1 $-1 $65 $25 #
plane-surface $-1 0 0 -11.457696624337711 0 0 1 1 0 0 forward_v I I I I #
coedge $-1 $66 $67 $68 $69 forward $26 $-1 #
face $-1 $70 $71 $16 $-1 $72 forward single #
loop $-1 $-1 $73 $28 #
plane-surface $-1 0 -21.645272844092322 4.1963660746209488 0 0 1 1 0 0 forward_v I I I I #
coedge $-1 $74 $75 $76 $77 reversed $29 $-1 #
face $-1 $78 $79 $17 $-1 $80 forward single #
loop $-1 $-1 $81 $31 #
plane-surface $-1 -19.858996828542253 0.98760691534540257 63.730319662614164 0.69465837861970381 0 0.71933979245794832 0.71933979245794832 0 -0.69465837861970381 forward_v I I I I #
coedge $-1 $82 $83 $84 $85 reversed $32 $-1 #
face $-1 $86 $87 $18 $-1 $88 forward single #
loop $-1 $89 $90 $34 #
cone-surface $-1 36.286938784693056 -1.6648551891049834 2.5396256750778541 -0.69465837861970381 0 -0.71933979245794832 0.53950484434346124 0 -0.5209937839647778 1 I I -0.70710678118654757 0.70710678118654757 0.75 forward I I I I #
loop $-1 $-1 $91 $23 #
coedge $-1 $56 $56 $92 $93 reversed $35 $-1 #
face $-1 $94 $95 $19 $-1 $96 reversed single #
loop $-1 $97 $98 $37 #
cone-surface $-1 36.286938784693056 3.6400690197957957 2.5396256750778541 -0.69465837861970381 0 -0.71933979245794832 0.53950484434346124 0 -0.5209937839647778 1 I I -0.70710678118654757 0.70710678118654757 0.75 forward I I I I #
loop $-1 $-1 $99 $24 #
coedge $-1 $61 $61 $100 $101 reversed $38 $-1 #
face $-1 $102 $103 $15 $-1 $104 reversed single #
loop $-1 $-1 $105 $40 #
plane-surface $-1 0 -29.126693816743121 0 0 1 0 0 0 1 forward_v I I I I #
coedge $-1 $106 $107 $108 $109 forward $41 $-1 #
coedge $-1 $110 $43 $111 $112 forward $26 $-1 #
coedge $-1 $43 $110 $113 $114 forward $26 $-1 #
coedge $-1 $115 $116 $43 $69 reversed $117 $-1 #
edge $-1 $118 -29.126693816743121 $119 29.126693816743121 $68 $120 forward 7 unknown #
face $-1 $121 $122 $16 $-1 $123 reversed single #
loop $-1 $-1 $124 $44 #
plane-surface $-1 0 -14.163851871441523 7.3482029856226525 0 -1 0 0 0 -1 forward_v I I I I #
coedge $-1 $125 $126 $127 $128 reversed $45 $-1 #
coedge $-1 $129 $47 $130 $131 reversed $29 $-1 #
coedge $-1 $47 $129 $132 $133 reversed $29 $-1 #
coedge $-1 $134 $135 $47 $77 forward $122 $-1 #
edge $-1 $136 -18.304057394696962 $137 -3.3412154493953619 $76 $138 forward 7 unknown #
face $-1 $139 $140 $17 $-1 $141 reversed single #
loop $-1 $-1 $142 $48 #
plane-surface $-1 43.035284155943593 7.1766851590629752 128.85925270747163 0 -1 0 -0.69465837861970381 0 -0.71933979245794832 forward_v I I I I #
coedge $-1 $143 $144 $145 $146 reversed $49 $-1 #
coedge $-1 $83 $51 $144 $147 forward $32 $-1 #
coedge $-1 $51 $82 $148 $149 reversed $32 $-1 #
coedge $-1 $150 $145 $51 $85 forward $140 $-1 #
edge $-1 $151 -63.59358767560748 $152 -52.971929729398099 $84 $153 forward 7 unknown #
face $-1 $154 $155 $18 $-1 $156 forward single #
loop $-1 $-1 $157 $52 #
plane-surface $-1 43.035284155943593 -5.2014713283721701 128.85925270747163 0 1 0 0.69465837861970381 0 0.71933979245794832 forward_v I I I I #
loop $-1 $-1 $158 $34 #
coedge $-1 $90 $90 $91 $159 forward $53 $-1 #
coedge $-1 $91 $91 $90 $159 reversed $55 $-1 #
coedge $-1 $92 $92 $56 $93 forward $155 $-1 #
edge $-1 $160 0 $160 6.2831853071796004 $92 $161 forward 7 unknown #
face $-1 $162 $163 $19 $-1 $164 reversed single #
loop $-1 $165 $166 $57 #
cone-surface $-1 38.289172258411512 -1.6648551891049834 4.6129990853271607 -0.69465837861970381 0 -0.71933979245794832 1.0790096886869225 0 -1.0419875679295556 1 I I 0 1 1.5 forward I I I I #
loop $-1 $-1 $167 $37 #
coedge $-1 $98 $98 $99 $168 forward $58 $-1 #
coedge $-1 $99 $99 $98 $168 reversed $60 $-1 #
coedge $-1 $100 $100 $61 $101 forward $169 $-1 #
edge $-1 $170 0 $170 6.2831853071796004 $100 $171 forward 7 unknown #
face $-1 $172 $173 $15 $-1 $174 reversed single #
loop $-1 $-1 $175 $62 #
plane-surface $-1 -45.269936216315195 0 0 1 0 0 0 0 -1 forward_v I I I I #
coedge $-1 $176 $113 $177 $178 forward $63 $-1 #
coedge $-1 $179 $65 $176 $180 forward $41 $-1 #
coedge $-1 $65 $179 $181 $182 forward $41 $-1 #
coedge $-1 $116 $115 $65 $109 reversed $117 $-1 #
edge $-1 $183 -29.126693816743121 $184 29.126693816743121 $108 $185 forward 7 unknown #
coedge $-1 $67 $66 $186 $187 forward $26 $-1 #
coedge $-1 $188 $189 $66 $112 reversed $173 $-1 #
edge $-1 $119 -45.269936216315195 $190 45.269936216315195 $111 $191 forward 7 unknown #
coedge $-1 $105 $192 $67 $114 reversed $63 $-1 #
edge $-1 $193 -45.269936216315195 $118 45.269936216315195 $113 $194 forward 7 unknown #
coedge $-1 $108 $68 $192 $195 forward $117 $-1 #
coedge $-1 $68 $108 $188 $196 reversed $117 $-1 #
loop $-1 $-1 $115 $172 #
vertex $-1 $69 $197 #
vertex $-1 $69 $198 #
straight-curve $-1 45.269936216315195 0 11.457696624337711 0 1 0 I I #
face $-1 $199 $200 $16 $-1 $201 reversed single #
loop $-1 $-1 $76 $70 #
plane-surface $-1 45.269936216315195 0 0 -1 0 0 0 0 1 forward_v I I I I #
coedge $-1 $132 $202 $134 $203 reversed $71 $-1 #
coedge $-1 $204 $73 $202 $205 reversed $45 $-1 #
coedge $-1 $73 $204 $206 $207 reversed $45 $-1 #
coedge $-1 $208 $134 $73 $128 forward $122 $-1 #
edge $-1 $209 3.3412154493953619 $210 18.304057394696962 $127 $211 forward 7 unknown #
coedge $-1 $75 $74 $212 $213 reversed $29 $-1 #
coedge $-1 $214 $215 $74 $131 forward $216 $-1 #
edge $-1 $217 -45.269936216315195 $136 45.269936216315195 $130 $218 forward 7 unknown #
coedge $-1 $219 $124 $75 $133 forward $71 $-1 #
edge $-1 $137 -45.269936216315195 $220 45.269936216315195 $132 $221 forward 7 unknown #
coedge $-1 $127 $76 $124 $203 forward $122 $-1 #
coedge $-1 $76 $222 $214 $223 forward $122 $-1 #
vertex $-1 $131 $224 #
vertex $-1 $77 $225 #
straight-curve $-1 45.269936216315195 -10.822636422046161 10.500039896624356 0 1 0 I I #
face $-1 $226 $227 $17 $-1 $228 reversed single #
loop $-1 $-1 $229 $78 #
plane-surface $-1 45.269936216315195 0 0 -1 0 0 0 0 1 forward_v I I I I #
coedge $-1 $230 $231 $229 $232 reversed $79 $-1 #
coedge $-1 $233 $81 $231 $234 reversed $49 $-1 #
coedge $-1 $81 $233 $82 $147 reversed $49 $-1 #
coedge $-1 $84 $229 $81 $146 forward $140 $-1 #
edge $-1 $235 -6.6828817013902739 $151 5.6952747860448714 $145 $236 forward 7 unknown #
edge $-1 $151 -90.539872432630375 $237 -75.249395454126528 $82 $238 forward 7 unknown #
coedge $-1 $239 $240 $83 $149 forward $241 $-1 #
edge $-1 $152 -23.752294138343398 $237 -12.753245602043418 $148 $242 forward 7 unknown #
coedge $-1 $243 $84 $240 $244 reversed $140 $-1 #
vertex $-1 $146 $245 #
vertex $-1 $149 $246 #
straight-curve $-1 45.269936216315195 -5.2014713283721701 64.429626353735813 0 0 1 I I #
face $-1 $247 $248 $18 $-1 $249 forward single #
loop $-1 $250 $92 $86 #
plane-surface $-1 -19.858996828542253 0.98760691534540257 63.730319662614164 0.69465837861970381 0 0.71933979245794832 0.71933979245794832 0 -0.69465837861970381 forward_v I I I I #
coedge $-1 $251 $252 $253 $254 reversed $87 $-1 #
coedge $-1 $158 $158 $-1 $255 forward $89 $-1 #
edge $-1 $256 0 $256 6.2831853071796004 $90 $257 forward 7 unknown #
vertex $-1 $93 $258 #
ellipse-curve $-1 39.770411948165197 -1.6648551891049834 6.1468676512330189 -0.69465837861970381 0 -0.71933979245794832 1.0790096886869225 0 -1.0419875679295556 1 I I #
face $-1 $259 $260 $19 $-1 $261 forward single #
loop $-1 $262 $263 $94 #
cone-surface $-1 36.286938784693056 -1.6648551891049834 2.5396256750778541 -0.69465837861970381 0 -0.71933979245794832 0.53950484434346124 0 -0.5209937839647778 1 I I -0.70710678118654757 0.70710678118654757 0.75 forward I I I I #
loop $-1 $-1 $264 $57 #
coedge $-1 $166 $166 $265 $266 reversed $95 $-1 #
coedge $-1 $167 $167 $-1 $267 forward $97 $-1 #
edge $-1 $268 0 $268 6.2831853071796004 $98 $269 forward 7 unknown #
loop $-1 $270 $100 $259 #
vertex $-1 $101 $271 #
ellipse-curve $-1 39.770411948165197 3.6400690197957957 6.1468676512330189 -0.69465837861970381 0 -0.71933979245794832 1.0790096886869225 0 -1.0419875679295556 1 I I #
face $-1 $-1 $117 $15 $-1 $272 reversed single #
loop $-1 $-1 $188 $102 #
plane-surface $-1 0 29.126693816743121 0 0 -1 0 0 0 -1 forward_v I I I I #
coedge $-1 $273 $186 $189 $274 forward $103 $-1 #
coedge $-1 $192 $105 $106 $180 reversed $63 $-1 #
coedge $-1 $186 $273 $105 $178 reversed $103 $-1 #
edge $-1 $193 -11.457696624337711 $275 11.457696624337711 $177 $276 forward 7 unknown #
coedge $-1 $107 $106 $273 $277 forward $41 $-1 #
edge $-1 $184 -45.269936216315195 $275 45.269936216315195 $176 $278 forward 7 unknown #
coedge $-1 $189 $188 $107 $182 reversed $173 $-1 #
edge $-1 $279 -45.269936216315195 $183 45.269936216315195 $181 $280 forward 7 unknown #
vertex $-1 $109 $281 #
vertex $-1 $195 $282 #
straight-curve $-1 45.269936216315195 0 -11.457696624337711 0 -1 0 I I #
coedge $-1 $175 $177 $110 $187 reversed $103 $-1 #
edge $-1 $190 -29.126693816743121 $193 29.126693816743121 $186 $283 forward 7 unknown #
coedge $-1 $181 $111 $116 $196 forward $173 $-1 #
coedge $-1 $111 $181 $175 $274 reversed $173 $-1 #
vertex $-1 $112 $284 #
straight-curve $-1 0 29.126693816743121 11.457696624337711 -1 0 0 I I #
coedge $-1 $113 $176 $115 $195 reversed $63 $-1 #
vertex $-1 $187 $285 #
straight-curve $-1 0 -29.126693816743121 11.457696624337711 1 0 0 I I #
edge $-1 $118 -11.457696624337711 $184 11.457696624337711 $115 $286 forward 7 unknown #
edge $-1 $119 -11.457696624337711 $183 11.457696624337711 $116 $287 forward 7 unknown #
point $-1 45.269936216315195 -29.126693816743121 11.457696624337711 #
point $-1 45.269936216315195 29.126693816743121 11.457696624337711 #
face $-1 $288 $289 $16 $-1 $290 forward single #
loop $-1 $-1 $206 $121 #
plane-surface $-1 0 -29.126693816743121 0 0 1 0 0 0 1 forward_v I I I I #
coedge $-1 $124 $219 $125 $205 forward $71 $-1 #
edge $-1 $137 -6.82593840381303 $209 -0.52226458180962254 $134 $291 forward 7 unknown #
coedge $-1 $126 $125 $292 $293 reversed $45 $-1 #
edge $-1 $294 -45.269936216315195 $209 45.269936216315195 $202 $295 forward 7 unknown #
coedge $-1 $296 $297 $126 $207 forward $200 $-1 #
edge $-1 $210 -45.269936216315195 $298 45.269936216315195 $206 $299 forward 7 unknown #
coedge $-1 $300 $127 $297 $301 forward $122 $-1 #
vertex $-1 $128 $302 #
vertex $-1 $301 $303 #
straight-curve $-1 45.269936216315195 -10.822636422046161 4.1963660746209488 0 -1 0 I I #
coedge $-1 $304 $305 $129 $213 forward $306 $-1 #
edge $-1 $220 3.3412154493953619 $217 18.304057394696962 $212 $307 forward 7 unknown #
coedge $-1 $308 $130 $135 $223 reversed $216 $-1 #
coedge $-1 $130 $308 $304 $309 forward $216 $-1 #
loop $-1 $-1 $130 $310 #
vertex $-1 $213 $311 #
straight-curve $-1 0 -29.126693816743121 10.500039896624356 1 0 0 I I #
coedge $-1 $202 $132 $305 $312 reversed $71 $-1 #
vertex $-1 $213 $313 #
straight-curve $-1 0 -14.163851871441523 10.500039896624356 -1 0 0 I I #
coedge $-1 $135 $314 $315 $316 reversed $122 $-1 #
edge $-1 $317 -11.457696624337711 $136 -10.500039896624356 $135 $318 forward 7 unknown #
point $-1 45.269936216315195 -29.126693816743121 10.500039896624356 #
point $-1 45.269936216315195 -14.163851871441523 10.500039896624356 #
face $-1 $319 $320 $17 $-1 $321 forward single #
loop $-1 $-1 $322 $139 #
plane-surface $-1 0 -21.645272844092322 10.500039896624356 0 0 1 1 0 0 forward_v I I I I #
coedge $-1 $145 $323 $142 $232 forward $140 $-1 #
coedge $-1 $231 $142 $324 $325 reversed $79 $-1 #
coedge $-1 $142 $230 $143 $234 forward $79 $-1 #
edge $-1 $326 52.971929729398099 $235 63.59358767560748 $229 $327 forward 7 unknown #
coedge $-1 $144 $143 $239 $328 reversed $49 $-1 #
edge $-1 $329 75.249395454126528 $235 90.539872432630375 $231 $330 forward 7 unknown #
vertex $-1 $146 $331 #
straight-curve $-1 45.269936216315187 0.49380345767270128 0.83603867812833244 0 -1 0 I I #
vertex $-1 $328 $332 #
straight-curve $-1 -19.858996828542253 -5.2014713283721701 63.730319662614164 -0.71933979245794832 0 0.69465837861970381 I I #
coedge $-1 $324 $148 $233 $328 forward $241 $-1 #
coedge $-1 $148 $333 $150 $244 forward $241 $-1 #
loop $-1 $-1 $324 $334 #
straight-curve $-1 21.517642077971797 -5.2014713283721701 11.457696624337714 -1 0 0 I I #
coedge $-1 $335 $150 $336 $337 forward $140 $-1 #
edge $-1 $338 -29.126693816743121 $152 -5.2014713283721701 $150 $339 forward 7 unknown #
point $-1 45.269936216315195 -5.2014713283721701 0.83603867812833244 #
point $-1 45.269936216315195 -5.2014713283721701 11.457696624337711 #
face $-1 $340 $341 $18 $-1 $342 reversed single #
loop $-1 $-1 $343 $154 #
plane-surface $-1 43.035284155943593 7.1766851590629752 128.85925270747163 0 -1 0 -0.69465837861970381 0 -0.71933979245794832 forward_v I I I I #
loop $-1 $-1 $344 $86 #
coedge $-1 $252 $157 $345 $346 forward $87 $-1 #
coedge $-1 $157 $251 $347 $348 reversed $87 $-1 #
coedge $-1 $349 $350 $157 $254 forward $341 $-1 #
edge $-1 $351 -63.59358767560748 $352 -52.971929729398099 $253 $353 forward 7 unknown #
edge $-1 $354 1 $354 0 $158 $-1 forward 7 unknown #
vertex $-1 $159 $355 #
ellipse-curve $-1 36.807932568657833 -1.6648551891049834 3.0791305194213154 0.69465837861970381 0 0.71933979245794832 1.0790096886869225 0 -1.0419875679295556 1 I I #
point $-1 40.849421636852107 -1.6648551891049834 5.1048800833034509 #
face $-1 $356 $169 $19 $-1 $357 forward single #
loop $-1 $-1 $358 $162 #
plane-surface $-1 43.035284155943593 -5.2014713283721701 128.85925270747163 0 1 0 0.69465837861970381 0 0.71933979245794832 forward_v I I I I #
loop $-1 $-1 $359 $94 #
coedge $-1 $263 $263 $264 $360 forward $163 $-1 #
coedge $-1 $264 $264 $263 $360 reversed $165 $-1 #
coedge $-1 $265 $265 $166 $266 forward $270 $-1 #
edge $-1 $361 0 $361 6.2831853071796004 $265 $362 forward 7 unknown #
edge $-1 $363 1 $363 0 $167 $-1 forward 7 unknown #
vertex $-1 $168 $364 #
ellipse-curve $-1 36.807932568657833 3.6400690197957957 3.0791305194213154 0.69465837861970381 0 0.71933979245794832 1.0790096886869225 0 -1.0419875679295556 1 I I #
loop $-1 $365 $265 $259 #
point $-1 40.849421636852107 3.6400690197957957 5.1048800833034509 #
plane-surface $-1 45.269936216315195 0 0 -1 0 0 0 0 1 forward_v I I I I #
coedge $-1 $177 $175 $179 $277 reversed $103 $-1 #
edge $-1 $190 -11.457696624337711 $279 11.457696624337711 $189 $366 forward 7 unknown #
vertex $-1 $277 $367 #
straight-curve $-1 -45.269936216315195 -29.126693816743121 0 0 0 -1 I I #
edge $-1 $275 -29.126693816743121 $279 29.126693816743121 $273 $368 forward 7 unknown #
straight-curve $-1 0 -29.126693816743121 -11.457696624337711 -1 0 0 I I #
vertex $-1 $182 $369 #
straight-curve $-1 0 29.126693816743121 -11.457696624337711 1 0 0 I I #
point $-1 45.269936216315195 29.126693816743121 -11.457696624337711 #
point $-1 45.269936216315195 -29.126693816743121 -11.457696624337711 #
straight-curve $-1 -45.269936216315195 0 11.457696624337711 0 -1 0 I I #
point $-1 -45.269936216315195 29.126693816743121 11.457696624337711 #
point $-1 -45.269936216315195 -29.126693816743121 11.457696624337711 #
straight-curve $-1 45.269936216315195 -29.126693816743121 0 0 0 -1 I I #
straight-curve $-1 45.269936216315195 29.126693816743121 0 0 0 -1 I I #
face $-1 $310 $370 $16 $-1 $371 reversed single #
loop $-1 $-1 $315 $199 #
plane-surface $-1 0 0 11.457696624337711 0 0 1 1 0 0 forward_v I I I I #
straight-curve $-1 45.269936216315195 -14.163851871441523 3.6741014928113263 0 0 -1 I I #
coedge $-1 $305 $372 $204 $293 forward $306 $-1 #
edge $-1 $298 -18.304057394696962 $294 -3.3412154493953619 $292 $373 forward 7 unknown #
vertex $-1 $293 $374 #
straight-curve $-1 0 -14.163851871441523 4.1963660746209488 1 0 0 I I #
coedge $-1 $375 $206 $372 $376 forward $200 $-1 #
coedge $-1 $206 $375 $208 $301 reversed $200 $-1 #
vertex $-1 $376 $377 #
straight-curve $-1 0 -29.126693816743121 4.1963660746209488 -1 0 0 I I #
coedge $-1 $314 $208 $378 $379 reversed $122 $-1 #
edge $-1 $210 -4.1963660746209488 $380 11.457696624337711 $208 $318 forward 7 unknown #
point $-1 45.269936216315195 -14.163851871441523 4.1963660746209488 #
point $-1 45.269936216315195 -29.126693816743121 4.1963660746209488 #
coedge $-1 $381 $212 $215 $309 reversed $306 $-1 #
coedge $-1 $212 $292 $219 $312 forward $306 $-1 #
loop $-1 $-1 $212 $382 #
straight-curve $-1 -45.269936216315195 -10.822636422046161 10.500039896624356 0 -1 0 I I #
coedge $-1 $215 $214 $383 $384 reversed $216 $-1 #
edge $-1 $385 -11.457696624337711 $217 -10.500039896624356 $304 $386 forward 7 unknown #
face $-1 $382 $216 $16 $-1 $201 reversed single #
point $-1 -45.269936216315195 -29.126693816743121 10.500039896624356 #
edge $-1 $294 0.52226458180962254 $220 6.82593840381303 $305 $387 forward 7 unknown #
point $-1 -45.269936216315195 -14.163851871441523 10.500039896624356 #
coedge $-1 $222 $300 $388 $389 reversed $122 $-1 #
coedge $-1 $390 $383 $222 $316 forward $289 $-1 #
edge $-1 $317 -29.126693816743121 $391 29.126693816743121 $222 $392 forward 7 unknown #
vertex $-1 $316 $393 #
straight-curve $-1 45.269936216315195 -29.126693816743121 0 0 0 -1 I I #
face $-1 $394 $395 $17 $-1 $396 forward single #
loop $-1 $-1 $397 $226 #
plane-surface $-1 0 -21.645272844092322 4.1963660746209488 0 0 1 1 0 0 forward_v I I I I #
coedge $-1 $398 $399 $335 $400 reversed $227 $-1 #
coedge $-1 $229 $401 $402 $403 reversed $140 $-1 #
coedge $-1 $402 $239 $230 $325 forward $241 $-1 #
edge $-1 $329 12.753245602043418 $326 23.752294138343398 $324 $404 forward 7 unknown #
vertex $-1 $403 $405 #
straight-curve $-1 45.269936216315195 7.1766851590629752 64.429626353735813 0 0 -1 I I #
edge $-1 $237 -5.6952747860448714 $329 6.6828817013902739 $239 $406 forward 7 unknown #
vertex $-1 $328 $407 #
straight-curve $-1 -19.858996828542253 7.1766851590629752 63.730319662614164 0.71933979245794832 0 -0.69465837861970381 I I #
point $-1 45.269936216315195 7.1766851590629752 0.83603867812833244 #
point $-1 34.270887680015214 -5.2014713283721701 11.457696624337707 #
coedge $-1 $240 $408 $409 $410 forward $241 $-1 #
face $-1 $411 $241 $17 $-1 $412 forward single #
coedge $-1 $413 $243 $322 $400 forward $140 $-1 #
coedge $-1 $409 $414 $243 $337 reversed $415 $-1 #
edge $-1 $338 -11.457696624337711 $416 -10.500039896624356 $243 $417 forward 7 unknown #
vertex $-1 $244 $418 #
straight-curve $-1 45.269936216315195 0 11.457696624337711 0 1 0 I I #
face $-1 $419 $420 $18 $-1 $421 reversed single #
loop $-1 $-1 $422 $247 #
plane-surface $-1 45.269936216315195 0 0 -1 0 0 0 0 1 forward_v I I I I #
coedge $-1 $423 $424 $422 $425 reversed $248 $-1 #
coedge $-1 $426 $345 $350 $427 reversed $250 $-1 #
coedge $-1 $344 $428 $251 $346 reversed $250 $-1 #
edge $-1 $351 -90.539872432630375 $429 -75.249395454126528 $251 $430 forward 7 unknown #
coedge $-1 $431 $432 $252 $348 forward $433 $-1 #
edge $-1 $352 -23.752294138343398 $429 -12.753245602043418 $347 $434 forward 7 unknown #
coedge $-1 $435 $253 $432 $436 reversed $341 $-1 #
coedge $-1 $253 $422 $344 $427 forward $341 $-1 #
vertex $-1 $427 $437 #
vertex $-1 $348 $438 #
straight-curve $-1 45.269936216315195 -5.2014713283721701 64.429626353735813 0 0 1 I I #
vertex $-1 $255 $439 #
point $-1 37.886942257344757 -1.6648551891049834 2.0371429514917598 #
face $-1 $440 $441 $19 $-1 $442 forward single #
plane-surface $-1 -19.858996828542253 0.98760691534540257 63.730319662614164 0.69465837861970381 0 0.71933979245794832 0.71933979245794832 0 -0.69465837861970381 forward_v I I I I #
coedge $-1 $443 $444 $445 $446 reversed $260 $-1 #
coedge $-1 $359 $359 $-1 $447 forward $262 $-1 #
edge $-1 $448 0 $448 6.2831853071796004 $263 $449 forward 7 unknown #
vertex $-1 $266 $450 #
ellipse-curve $-1 39.770411948165197 -1.6648551891049834 6.1468676512330189 -0.69465837861970381 0 -0.71933979245794832 1.0790096886869225 0 -1.0419875679295556 1 I I #
vertex $-1 $267 $451 #
point $-1 37.886942257344757 3.6400690197957957 2.0371429514917598 #
loop $-1 $-1 $452 $259 #
straight-curve $-1 -45.269936216315195 29.126693816743121 0 0 0 -1 I I #
point $-1 -45.269936216315195 -29.126693816743121 -11.457696624337711 #
straight-curve $-1 -45.269936216315195 0 -11.457696624337711 0 1 0 I I #
point $-1 -45.269936216315195 29.126693816743121 -11.457696624337711 #
loop $-1 $-1 $378 $288 #
plane-surface $-1 0 0 -11.457696624337711 0 0 1 1 0 0 forward_v I I I I #
coedge $-1 $292 $453 $296 $376 reversed $306 $-1 #
straight-curve $-1 -45.269936216315195 -10.822636422046161 4.1963660746209488 0 1 0 I I #
point $-1 -45.269936216315195 -14.163851871441523 4.1963660746209488 #
coedge $-1 $297 $296 $454 $455 reversed $200 $-1 #
edge $-1 $298 -4.1963660746209488 $456 11.457696624337711 $372 $386 forward 7 unknown #
point $-1 -45.269936216315195 -29.126693816743121 4.1963660746209488 #
coedge $-1 $454 $457 $300 $379 forward $370 $-1 #
edge $-1 $458 -29.126693816743121 $380 29.126693816743121 $300 $459 forward 7 unknown #
vertex $-1 $301 $460 #
coedge $-1 $461 $304 $462 $463 reversed $306 $-1 #
face $-1 $464 $306 $16 $-1 $465 reversed single #
coedge $-1 $315 $462 $308 $384 forward $289 $-1 #
edge $-1 $385 -45.269936216315195 $317 45.269936216315195 $308 $466 forward 7 unknown #
vertex $-1 $463 $467 #
straight-curve $-1 -45.269936216315195 -29.126693816743121 0 0 0 -1 I I #
straight-curve $-1 -45.269936216315195 -14.163851871441523 3.6741014928113263 0 0 1 I I #
coedge $-1 $468 $469 $314 $389 forward $470 $-1 #
edge $-1 $391 -11.457696624337711 $458 11.457696624337711 $314 $471 forward 7 unknown #
coedge $-1 $462 $315 $469 $472 forward $289 $-1 #
vertex $-1 $316 $473 #
straight-curve $-1 45.269936216315195 0 11.457696624337711 0 1 0 I I #
point $-1 45.269936216315195 -29.126693816743121 11.457696624337711 #
face $-1 $334 $474 $17 $-1 $475 reversed single #
loop $-1 $-1 $476 $319 #
plane-surface $-1 0 -14.163851871441523 7.3482029856226525 0 -1 0 0 0 -1 forward_v I I I I #
coedge $-1 $477 $478 $479 $480 reversed $320 $-1 #
coedge $-1 $481 $322 $414 $482 reversed $227 $-1 #
coedge $-1 $322 $481 $483 $484 reversed $227 $-1 #
edge $-1 $416 -18.304057394696962 $485 -3.3412154493953619 $335 $486 forward 7 unknown #
coedge $-1 $323 $487 $488 $489 reversed $140 $-1 #
coedge $-1 $490 $324 $323 $403 forward $241 $-1 #
edge $-1 $326 7.1766851590629752 $491 29.126693816743121 $323 $339 forward 7 unknown #
straight-curve $-1 21.517642077971797 7.1766851590629752 11.457696624337714 1 0 0 I I #
point $-1 45.269936216315195 7.1766851590629752 11.457696624337711 #
straight-curve $-1 34.270887680015207 0.49380345767270128 11.457696624337714 0 1 0 I I #
point $-1 34.270887680015214 7.1766851590629752 11.457696624337707 #
coedge $-1 $333 $490 $492 $493 forward $241 $-1 #
coedge $-1 $494 $336 $333 $410 reversed $415 $-1 #
edge $-1 $495 -45.269936216315195 $338 45.269936216315195 $409 $496 forward 7 unknown #
face $-1 $497 $498 $17 $-1 $499 reversed single #
plane-surface $-1 0 0 11.457696624337711 0 0 1 1 0 0 forward_v I I I I #
coedge $-1 $479 $335 $476 $500 forward $140 $-1 #
coedge $-1 $336 $494 $398 $482 forward $415 $-1 #
loop $-1 $-1 $414 $497 #
vertex $-1 $482 $501 #
straight-curve $-1 45.269936216315195 -29.126693816743121 0 0 0 -1 I I #
point $-1 45.269936216315195 -29.126693816743121 11.457696624337711 #
face $-1 $502 $503 $18 $-1 $504 forward single #
loop $-1 $-1 $505 $340 #
plane-surface $-1 0 -21.645272844092322 10.500039896624356 0 0 1 1 0 0 forward_v I I I I #
coedge $-1 $350 $506 $343 $425 forward $341 $-1 #
coedge $-1 $424 $343 $507 $508 reversed $248 $-1 #
coedge $-1 $343 $423 $426 $509 forward $248 $-1 #
edge $-1 $510 52.971929729398099 $511 63.59358767560748 $422 $512 forward 7 unknown #
coedge $-1 $428 $344 $424 $509 reversed $250 $-1 #
edge $-1 $511 -6.6828817013902739 $351 5.6952747860448714 $350 $513 forward 7 unknown #
coedge $-1 $345 $426 $431 $514 reversed $250 $-1 #
vertex $-1 $514 $515 #
straight-curve $-1 -19.858996828542253 -5.2014713283721701 63.730319662614164 -0.71933979245794832 0 0.69465837861970381 I I #
coedge $-1 $507 $347 $428 $514 forward $433 $-1 #
coedge $-1 $347 $516 $349 $436 forward $433 $-1 #
loop $-1 $-1 $507 $517 #
straight-curve $-1 21.517642077971797 -5.2014713283721701 11.457696624337714 -1 0 0 I I #
coedge $-1 $518 $349 $519 $520 forward $341 $-1 #
edge $-1 $521 -29.126693816743121 $352 -5.2014713283721701 $349 $522 forward 7 unknown #
point $-1 45.269936216315195 -5.2014713283721701 0.83603867812833244 #
point $-1 45.269936216315195 -5.2014713283721701 11.457696624337711 #
point $-1 35.76594500072828 -1.6648551891049834 2.0001208307343927 #
face $-1 $523 $524 $19 $-1 $525 reversed single #
loop $-1 $-1 $526 $356 #
plane-surface $-1 43.035284155943593 7.1766851590629752 128.85925270747163 0 -1 0 -0.69465837861970381 0 -0.71933979245794832 forward_v I I I I #
coedge $-1 $444 $358 $527 $528 forward $260 $-1 #
coedge $-1 $358 $443 $529 $530 reversed $260 $-1 #
coedge $-1 $531 $532 $358 $446 forward $524 $-1 #
edge $-1 $533 -63.59358767560748 $534 -52.971929729398099 $445 $535 forward 7 unknown #
edge $-1 $536 1 $536 0 $359 $-1 forward 7 unknown #
vertex $-1 $360 $537 #
ellipse-curve $-1 36.807932568657833 -1.6648551891049834 3.0791305194213154 0.69465837861970381 0 0.71933979245794832 1.0790096886869225 0 -1.0419875679295556 1 I I #
point $-1 40.849421636852107 -1.6648551891049834 5.1048800833034509 #
point $-1 35.76594500072828 3.6400690197957957 2.0001208307343927 #
coedge $-1 $538 $527 $532 $539 reversed $365 $-1 #
coedge $-1 $372 $461 $540 $541 reversed $306 $-1 #
coedge $-1 $540 $378 $375 $455 forward $370 $-1 #
edge $-1 $380 -45.269936216315195 $456 45.269936216315195 $375 $542 forward 7 unknown #
vertex $-1 $541 $543 #
coedge $-1 $378 $540 $468 $544 forward $370 $-1 #
vertex $-1 $379 $545 #
straight-curve $-1 45.269936216315195 0 -11.457696624337711 0 -1 0 I I #
point $-1 45.269936216315195 -29.126693816743121 -11.457696624337711 #
coedge $-1 $453 $381 $546 $547 forward $306 $-1 #
coedge $-1 $383 $390 $381 $463 forward $289 $-1 #
edge $-1 $548 -29.126693816743121 $385 29.126693816743121 $381 $549 forward 7 unknown #
face $-1 $-1 $470 $16 $-1 $550 reversed single #
plane-surface $-1 -45.269936216315195 0 0 1 0 0 0 0 -1 forward_v I I I I #
straight-curve $-1 0 -29.126693816743121 11.457696624337711 1 0 0 I I #
point $-1 -45.269936216315195 -29.126693816743121 11.457696624337711 #
coedge $-1 $546 $388 $457 $544 reversed $470 $-1 #
coedge $-1 $388 $546 $390 $472 reversed $470 $-1 #
loop $-1 $-1 $388 $464 #
straight-curve $-1 45.269936216315195 29.126693816743121 0 0 0 -1 I I #
edge $-1 $391 -45.269936216315195 $548 45.269936216315195 $469 $551 forward 7 unknown #
point $-1 45.269936216315195 29.126693816743121 11.457696624337711 #
loop $-1 $-1 $552 $394 #
plane-surface $-1 0 -29.126693816743121 0 0 1 0 0 0 1 forward_v I I I I #
coedge $-1 $483 $553 $413 $500 reversed $395 $-1 #
coedge $-1 $554 $397 $553 $555 reversed $320 $-1 #
coedge $-1 $397 $554 $552 $556 reversed $320 $-1 #
coedge $-1 $557 $413 $397 $480 forward $140 $-1 #
edge $-1 $558 3.3412154493953619 $559 18.304057394696962 $479 $560 forward 7 unknown #
coedge $-1 $399 $398 $561 $562 reversed $227 $-1 #
edge $-1 $563 -45.269936216315195 $416 45.269936216315195 $414 $564 forward 7 unknown #
coedge $-1 $565 $476 $399 $484 forward $395 $-1 #
edge $-1 $485 -45.269936216315195 $566 45.269936216315195 $483 $567 forward 7 unknown #
vertex $-1 $400 $568 #
straight-curve $-1 45.269936216315195 -10.822636422046161 10.500039896624356 0 1 0 I I #
coedge $-1 $401 $557 $569 $570 reversed $140 $-1 #
coedge $-1 $571 $572 $401 $489 forward $573 $-1 #
edge $-1 $491 -11.457696624337711 $574 11.457696624337711 $401 $575 forward 7 unknown #
coedge $-1 $408 $402 $572 $576 forward $241 $-1 #
vertex $-1 $403 $577 #
coedge $-1 $578 $579 $408 $493 reversed $580 $-1 #
edge $-1 $581 -29.126693816743121 $495 29.126693816743121 $492 $582 forward 7 unknown #
coedge $-1 $414 $409 $579 $583 forward $415 $-1 #
vertex $-1 $493 $584 #
straight-curve $-1 0 -29.126693816743121 11.457696624337711 1 0 0 I I #
face $-1 $585 $415 $17 $-1 $475 reversed single #
loop $-1 $-1 $569 $411 #
plane-surface $-1 0 0 -11.457696624337711 0 0 1 1 0 0 forward_v I I I I #
edge $-1 $485 -6.82593840381303 $558 -0.52226458180962254 $413 $586 forward 7 unknown #
point $-1 45.269936216315195 -29.126693816743121 10.500039896624356 #
face $-1 $587 $588 $18 $-1 $589 forward single #
loop $-1 $-1 $590 $419 #
plane-surface $-1 0 -21.645272844092322 4.1963660746209488 0 0 1 1 0 0 forward_v I I I I #
coedge $-1 $591 $592 $518 $593 reversed $420 $-1 #
coedge $-1 $422 $594 $595 $596 reversed $341 $-1 #
coedge $-1 $595 $431 $423 $508 forward $433 $-1 #
edge $-1 $597 12.753245602043418 $510 23.752294138343398 $507 $598 forward 7 unknown #
edge $-1 $597 75.249395454126528 $511 90.539872432630375 $424 $599 forward 7 unknown #
vertex $-1 $596 $600 #
vertex $-1 $427 $601 #
straight-curve $-1 45.269936216315195 7.1766851590629752 64.429626353735813 0 0 -1 I I #
straight-curve $-1 45.269936216315187 0.49380345767270128 0.83603867812833244 0 -1 0 I I #
edge $-1 $429 -5.6952747860448714 $597 6.6828817013902739 $431 $602 forward 7 unknown #
point $-1 34.270887680015214 -5.2014713283721701 11.457696624337707 #
coedge $-1 $432 $603 $604 $605 forward $433 $-1 #
face $-1 $606 $433 $18 $-1 $607 forward single #
coedge $-1 $608 $435 $505 $593 forward $341 $-1 #
coedge $-1 $604 $609 $435 $520 reversed $610 $-1 #
edge $-1 $521 -11.457696624337711 $611 -10.500039896624356 $435 $612 forward 7 unknown #
vertex $-1 $436 $613 #
straight-curve $-1 45.269936216315195 0 11.457696624337711 0 1 0 I I #
face $-1 $614 $615 $19 $-1 $616 reversed single #
loop $-1 $-1 $617 $440 #
plane-surface $-1 45.269936216315195 0 0 -1 0 0 0 0 1 forward_v I I I I #
coedge $-1 $618 $619 $617 $620 reversed $441 $-1 #
coedge $-1 $452 $621 $443 $528 reversed $365 $-1 #
edge $-1 $533 -90.539872432630375 $622 -75.249395454126528 $443 $623 forward 7 unknown #
coedge $-1 $624 $625 $444 $530 forward $626 $-1 #
edge $-1 $534 -23.752294138343398 $622 -12.753245602043418 $529 $627 forward 7 unknown #
coedge $-1 $628 $445 $625 $629 reversed $524 $-1 #
coedge $-1 $445 $617 $452 $539 forward $524 $-1 #
vertex $-1 $539 $630 #
vertex $-1 $530 $631 #
straight-curve $-1 45.269936216315195 -5.2014713283721701 64.429626353735813 0 0 1 I I #
vertex $-1 $447 $632 #
point $-1 37.886942257344757 -1.6648551891049834 2.0371429514917598 #
coedge $-1 $621 $452 $619 $633 reversed $365 $-1 #
edge $-1 $634 -6.6828817013902739 $533 5.6952747860448714 $532 $635 forward 7 unknown #
coedge $-1 $457 $454 $453 $541 forward $370 $-1 #
edge $-1 $456 -29.126693816743121 $636 29.126693816743121 $453 $637 forward 7 unknown #
straight-curve $-1 0 -29.126693816743121 -11.457696624337711 -1 0 0 I I #
point $-1 -45.269936216315195 -29.126693816743121 -11.457696624337711 #
edge $-1 $636 -45.269936216315195 $458 45.269936216315195 $468 $638 forward 7 unknown #
point $-1 45.269936216315195 29.126693816743121 -11.457696624337711 #
coedge $-1 $469 $468 $461 $547 reversed $470 $-1 #
edge $-1 $548 -11.457696624337711 $636 11.457696624337711 $546 $639 forward 7 unknown #
vertex $-1 $472 $640 #
straight-curve $-1 -45.269936216315195 0 11.457696624337711 0 -1 0 I I #
plane-surface $-1 0 29.126693816743121 0 0 -1 0 0 0 -1 forward_v I I I I #
straight-curve $-1 0 29.126693816743121 11.457696624337711 -1 0 0 I I #
coedge $-1 $641 $642 $478 $556 forward $474 $-1 #
coedge $-1 $476 $565 $477 $555 forward $395 $-1 #
coedge $-1 $478 $477 $643 $644 reversed $320 $-1 #
edge $-1 $645 -45.269936216315195 $558 45.269936216315195 $553 $646 forward 7 unknown #
edge $-1 $559 -45.269936216315195 $647 45.269936216315195 $552 $648 forward 7 unknown #
coedge $-1 $487 $479 $642 $649 forward $140 $-1 #
vertex $-1 $480 $650 #
vertex $-1 $649 $651 #
straight-curve $-1 45.269936216315195 -10.822636422046161 4.1963660746209488 0 -1 0 I I #
coedge $-1 $579 $652 $481 $562 forward $580 $-1 #
edge $-1 $566 3.3412154493953619 $563 18.304057394696962 $561 $653 forward 7 unknown #
vertex $-1 $562 $654 #
straight-curve $-1 0 -29.126693816743121 10.500039896624356 1 0 0 I I #
coedge $-1 $553 $483 $652 $655 reversed $395 $-1 #
vertex $-1 $562 $656 #
straight-curve $-1 0 -14.163851871441523 10.500039896624356 -1 0 0 I I #
point $-1 45.269936216315195 -14.163851871441523 10.500039896624356 #
coedge $-1 $657 $658 $487 $570 forward $498 $-1 #
edge $-1 $574 -29.126693816743121 $659 29.126693816743121 $487 $660 forward 7 unknown #
coedge $-1 $661 $488 $658 $662 reversed $573 $-1 #
coedge $-1 $488 $661 $490 $576 reversed $573 $-1 #
loop $-1 $-1 $488 $663 #
vertex $-1 $570 $664 #
straight-curve $-1 45.269936216315195 29.126693816743121 0 0 0 -1 I I #
edge $-1 $491 -45.269936216315195 $581 45.269936216315195 $572 $665 forward 7 unknown #
point $-1 45.269936216315195 29.126693816743121 11.457696624337711 #
coedge $-1 $666 $492 $661 $667 forward $580 $-1 #
coedge $-1 $492 $561 $494 $583 reversed $580 $-1 #
loop $-1 $-1 $561 $585 #
vertex $-1 $576 $668 #
straight-curve $-1 -45.269936216315195 0 11.457696624337711 0 -1 0 I I #
edge $-1 $495 -11.457696624337711 $563 -10.500039896624356 $579 $669 forward 7 unknown #
point $-1 -45.269936216315195 -29.126693816743121 11.457696624337711 #
face $-1 $663 $580 $17 $-1 $670 reversed single #
straight-curve $-1 45.269936216315195 -14.163851871441523 3.6741014928113263 0 0 -1 I I #
face $-1 $517 $671 $18 $-1 $672 reversed single #
loop $-1 $-1 $673 $502 #
plane-surface $-1 0 -14.163851871441523 7.3482029856226525 0 -1 0 0 0 -1 forward_v I I I I #
coedge $-1 $674 $675 $676 $677 reversed $503 $-1 #
coedge $-1 $678 $505 $609 $679 reversed $420 $-1 #
coedge $-1 $505 $678 $680 $681 reversed $420 $-1 #
edge $-1 $611 -18.304057394696962 $682 -3.3412154493953619 $518 $683 forward 7 unknown #
coedge $-1 $506 $684 $685 $686 reversed $341 $-1 #
coedge $-1 $687 $507 $506 $596 forward $433 $-1 #
edge $-1 $510 7.1766851590629752 $688 29.126693816743121 $506 $522 forward 7 unknown #
vertex $-1 $514 $689 #
straight-curve $-1 21.517642077971797 7.1766851590629752 11.457696624337714 1 0 0 I I #
straight-curve $-1 -19.858996828542253 7.1766851590629752 63.730319662614164 0.71933979245794832 0 -0.69465837861970381 I I #
point $-1 45.269936216315195 7.1766851590629752 11.457696624337711 #
point $-1 45.269936216315195 7.1766851590629752 0.83603867812833244 #
straight-curve $-1 34.270887680015207 0.49380345767270128 11.457696624337714 0 1 0 I I #
coedge $-1 $516 $687 $690 $691 forward $433 $-1 #
coedge $-1 $692 $519 $516 $605 reversed $610 $-1 #
edge $-1 $693 -45.269936216315195 $521 45.269936216315195 $604 $694 forward 7 unknown #
face $-1 $695 $696 $18 $-1 $697 reversed single #
plane-surface $-1 0 0 11.457696624337711 0 0 1 1 0 0 forward_v I I I I #
coedge $-1 $676 $518 $673 $698 forward $341 $-1 #
coedge $-1 $519 $692 $591 $679 forward $610 $-1 #
loop $-1 $-1 $609 $695 #
vertex $-1 $679 $699 #
straight-curve $-1 45.269936216315195 -29.126693816743121 0 0 0 -1 I I #
point $-1 45.269936216315195 -29.126693816743121 11.457696624337711 #
face $-1 $700 $701 $19 $-1 $702 forward single #
loop $-1 $-1 $703 $523 #
plane-surface $-1 0 -21.645272844092322 10.500039896624356 0 0 1 1 0 0 forward_v I I I I #
coedge $-1 $532 $704 $526 $620 forward $524 $-1 #
coedge $-1 $619 $526 $705 $706 reversed $441 $-1 #
coedge $-1 $526 $618 $538 $633 forward $441 $-1 #
edge $-1 $707 52.971929729398099 $634 63.59358767560748 $617 $708 forward 7 unknown #
coedge $-1 $527 $538 $624 $709 reversed $365 $-1 #
vertex $-1 $709 $710 #
straight-curve $-1 -19.858996828542253 -5.2014713283721701 63.730319662614164 -0.71933979245794832 0 0.69465837861970381 I I #
coedge $-1 $705 $529 $621 $709 forward $626 $-1 #
coedge $-1 $529 $711 $531 $629 forward $626 $-1 #
loop $-1 $-1 $705 $712 #
straight-curve $-1 21.517642077971797 -5.2014713283721701 11.457696624337714 -1 0 0 I I #
coedge $-1 $713 $531 $714 $715 forward $524 $-1 #
edge $-1 $716 -29.126693816743121 $534 -5.2014713283721701 $531 $717 forward 7 unknown #
point $-1 45.269936216315195 -5.2014713283721701 0.83603867812833244 #
point $-1 45.269936216315195 -5.2014713283721701 11.457696624337711 #
point $-1 35.76594500072828 -1.6648551891049834 2.0001208307343927 #
edge $-1 $718 75.249395454126528 $634 90.539872432630375 $619 $719 forward 7 unknown #
vertex $-1 $539 $720 #
straight-curve $-1 45.269936216315187 0.49380345767270128 0.83603867812833244 0 -1 0 I I #
vertex $-1 $544 $721 #
straight-curve $-1 -45.269936216315195 0 -11.457696624337711 0 1 0 I I #
straight-curve $-1 0 29.126693816743121 -11.457696624337711 1 0 0 I I #
straight-curve $-1 -45.269936216315195 29.126693816743121 0 0 0 -1 I I #
point $-1 -45.269936216315195 29.126693816743121 11.457696624337711 #
coedge $-1 $722 $552 $723 $724 forward $474 $-1 #
coedge $-1 $552 $722 $557 $649 reversed $474 $-1 #
coedge $-1 $652 $723 $554 $644 forward $580 $-1 #
edge $-1 $647 -18.304057394696962 $645 -3.3412154493953619 $643 $725 forward 7 unknown #
vertex $-1 $644 $726 #
straight-curve $-1 0 -14.163851871441523 4.1963660746209488 1 0 0 I I #
vertex $-1 $724 $727 #
straight-curve $-1 0 -29.126693816743121 4.1963660746209488 -1 0 0 I I #
edge $-1 $559 -4.1963660746209488 $659 11.457696624337711 $557 $417 forward 7 unknown #
point $-1 45.269936216315195 -14.163851871441523 4.1963660746209488 #
point $-1 45.269936216315195 -29.126693816743121 4.1963660746209488 #
coedge $-1 $561 $643 $565 $655 forward $580 $-1 #
straight-curve $-1 -45.269936216315195 -10.822636422046161 10.500039896624356 0 -1 0 I I #
point $-1 -45.269936216315195 -29.126693816743121 10.500039896624356 #
edge $-1 $645 0.52226458180962254 $566 6.82593840381303 $652 $728 forward 7 unknown #
point $-1 -45.269936216315195 -14.163851871441523 10.500039896624356 #
coedge $-1 $729 $569 $722 $730 forward $498 $-1 #
coedge $-1 $569 $729 $571 $662 forward $498 $-1 #
vertex $-1 $649 $731 #
straight-curve $-1 45.269936216315195 0 -11.457696624337711 0 -1 0 I I #
coedge $-1 $572 $571 $578 $667 reversed $573 $-1 #
edge $-1 $732 -45.269936216315195 $574 45.269936216315195 $571 $733 forward 7 unknown #
face $-1 $-1 $573 $17 $-1 $734 reversed single #
point $-1 45.269936216315195 29.126693816743121 -11.457696624337711 #
straight-curve $-1 0 29.126693816743121 11.457696624337711 -1 0 0 I I #
coedge $-1 $723 $578 $729 $735 reversed $580 $-1 #
edge $-1 $581 -11.457696624337711 $732 11.457696624337711 $661 $736 forward 7 unknown #
point $-1 -45.269936216315195 29.126693816743121 11.457696624337711 #
straight-curve $-1 -45.269936216315195 -29.126693816743121 0 0 0 -1 I I #
plane-surface $-1 -45.269936216315195 0 0 1 0 0 0 0 -1 forward_v I I I I #
loop $-1 $-1 $737 $587 #
plane-surface $-1 0 -29.126693816743121 0 0 1 0 0 0 1 forward_v I I I I #
coedge $-1 $680 $738 $608 $698 reversed $588 $-1 #
coedge $-1 $739 $590 $738 $740 reversed $503 $-1 #
coedge $-1 $590 $739 $737 $741 reversed $503 $-1 #
coedge $-1 $742 $608 $590 $677 forward $341 $-1 #
edge $-1 $743 3.3412154493953619 $744 18.304057394696962 $676 $745 forward 7 unknown #
coedge $-1 $592 $591 $746 $747 reversed $420 $-1 #
edge $-1 $748 -45.269936216315195 $611 45.269936216315195 $609 $749 forward 7 unknown #
coedge $-1 $750 $673 $592 $681 forward $588 $-1 #
edge $-1 $682 -45.269936216315195 $751 45.269936216315195 $680 $752 forward 7 unknown #
vertex $-1 $593 $753 #
straight-curve $-1 45.269936216315195 -10.822636422046161 10.500039896624356 0 1 0 I I #
coedge $-1 $594 $742 $754 $755 reversed $341 $-1 #
coedge $-1 $756 $757 $594 $686 forward $758 $-1 #
edge $-1 $688 -11.457696624337711 $759 11.457696624337711 $594 $760 forward 7 unknown #
coedge $-1 $603 $595 $757 $761 forward $433 $-1 #
vertex $-1 $596 $762 #
point $-1 34.270887680015214 7.1766851590629752 11.457696624337707 #
coedge $-1 $763 $764 $603 $691 reversed $765 $-1 #
edge $-1 $766 -29.126693816743121 $693 29.126693816743121 $690 $767 forward 7 unknown #
coedge $-1 $609 $604 $764 $768 forward $610 $-1 #
vertex $-1 $691 $769 #
straight-curve $-1 0 -29.126693816743121 11.457696624337711 1 0 0 I I #
face $-1 $770 $610 $18 $-1 $672 reversed single #
loop $-1 $-1 $754 $606 #
plane-surface $-1 0 0 -11.457696624337711 0 0 1 1 0 0 forward_v I I I I #
edge $-1 $682 -6.82593840381303 $743 -0.52226458180962254 $608 $771 forward 7 unknown #
point $-1 45.269936216315195 -29.126693816743121 10.500039896624356 #
face $-1 $772 $773 $19 $-1 $774 forward single #
loop $-1 $-1 $775 $614 #
plane-surface $-1 0 -21.645272844092322 4.1963660746209488 0 0 1 1 0 0 forward_v I I I I #
coedge $-1 $776 $777 $713 $778 reversed $615 $-1 #
coedge $-1 $617 $779 $780 $781 reversed $524 $-1 #
coedge $-1 $780 $624 $618 $706 forward $626 $-1 #
edge $-1 $718 12.753245602043418 $707 23.752294138343398 $705 $782 forward 7 unknown #
vertex $-1 $781 $783 #
straight-curve $-1 45.269936216315195 7.1766851590629752 64.429626353735813 0 0 -1 I I #
edge $-1 $622 -5.6952747860448714 $718 6.6828817013902739 $624 $784 forward 7 unknown #
point $-1 34.270887680015214 -5.2014713283721701 11.457696624337707 #
coedge $-1 $625 $785 $786 $787 forward $626 $-1 #
face $-1 $788 $626 $19 $-1 $789 forward single #
coedge $-1 $790 $628 $703 $778 forward $524 $-1 #
coedge $-1 $786 $791 $628 $715 reversed $792 $-1 #
edge $-1 $716 -11.457696624337711 $793 -10.500039896624356 $628 $794 forward 7 unknown #
vertex $-1 $629 $795 #
straight-curve $-1 45.269936216315195 0 11.457696624337711 0 1 0 I I #
vertex $-1 $709 $796 #
straight-curve $-1 -19.858996828542253 7.1766851590629752 63.730319662614164 0.71933979245794832 0 -0.69465837861970381 I I #
point $-1 45.269936216315195 7.1766851590629752 0.83603867812833244 #
point $-1 -45.269936216315195 29.126693816743121 -11.457696624337711 #
coedge $-1 $642 $641 $657 $730 reversed $474 $-1 #
coedge $-1 $643 $666 $641 $724 reversed $580 $-1 #
edge $-1 $647 -4.1963660746209488 $797 11.457696624337711 $723 $669 forward 7 unknown #
straight-curve $-1 -45.269936216315195 -10.822636422046161 4.1963660746209488 0 1 0 I I #
point $-1 -45.269936216315195 -14.163851871441523 4.1963660746209488 #
point $-1 -45.269936216315195 -29.126693816743121 4.1963660746209488 #
straight-curve $-1 -45.269936216315195 -14.163851871441523 3.6741014928113263 0 0 1 I I #
coedge $-1 $658 $657 $666 $735 forward $498 $-1 #
edge $-1 $659 -45.269936216315195 $797 45.269936216315195 $722 $798 forward 7 unknown #
point $-1 45.269936216315195 -29.126693816743121 -11.457696624337711 #
vertex $-1 $662 $799 #
straight-curve $-1 0 29.126693816743121 -11.457696624337711 1 0 0 I I #
plane-surface $-1 0 29.126693816743121 0 0 -1 0 0 0 -1 forward_v I I I I #
edge $-1 $797 -29.126693816743121 $732 29.126693816743121 $666 $800 forward 7 unknown #
straight-curve $-1 -45.269936216315195 29.126693816743121 0 0 0 -1 I I #
coedge $-1 $801 $802 $675 $741 forward $671 $-1 #
coedge $-1 $673 $750 $674 $740 forward $588 $-1 #
coedge $-1 $675 $674 $803 $804 reversed $503 $-1 #
edge $-1 $805 -45.269936216315195 $743 45.269936216315195 $738 $806 forward 7 unknown #
edge $-1 $744 -45.269936216315195 $807 45.269936216315195 $737 $808 forward 7 unknown #
coedge $-1 $684 $676 $802 $809 forward $341 $-1 #
vertex $-1 $677 $810 #
vertex $-1 $809 $811 #
straight-curve $-1 45.269936216315195 -10.822636422046161 4.1963660746209488 0 -1 0 I I #
coedge $-1 $764 $812 $678 $747 forward $765 $-1 #
edge $-1 $751 3.3412154493953619 $748 18.304057394696962 $746 $813 forward 7 unknown #
vertex $-1 $747 $814 #
straight-curve $-1 0 -29.126693816743121 10.500039896624356 1 0 0 I I #
coedge $-1 $738 $680 $812 $815 reversed $588 $-1 #
vertex $-1 $747 $816 #
straight-curve $-1 0 -14.163851871441523 10.500039896624356 -1 0 0 I I #
point $-1 45.269936216315195 -14.163851871441523 10.500039896624356 #
coedge $-1 $817 $818 $684 $755 forward $696 $-1 #
edge $-1 $759 -29.126693816743121 $819 29.126693816743121 $684 $820 forward 7 unknown #
coedge $-1 $821 $685 $818 $822 reversed $758 $-1 #
coedge $-1 $685 $821 $687 $761 reversed $758 $-1 #
loop $-1 $-1 $685 $823 #
vertex $-1 $755 $824 #
straight-curve $-1 45.269936216315195 29.126693816743121 0 0 0 -1 I I #
edge $-1 $688 -45.269936216315195 $766 45.269936216315195 $757 $825 forward 7 unknown #
point $-1 45.269936216315195 29.126693816743121 11.457696624337711 #
coedge $-1 $826 $690 $821 $827 forward $765 $-1 #
coedge $-1 $690 $746 $692 $768 reversed $765 $-1 #
loop $-1 $-1 $746 $770 #
vertex $-1 $761 $828 #
straight-curve $-1 -45.269936216315195 0 11.457696624337711 0 -1 0 I I #
edge $-1 $693 -11.457696624337711 $748 -10.500039896624356 $764 $829 forward 7 unknown #
point $-1 -45.269936216315195 -29.126693816743121 11.457696624337711 #
face $-1 $823 $765 $18 $-1 $830 reversed single #
straight-curve $-1 45.269936216315195 -14.163851871441523 3.6741014928113263 0 0 -1 I I #
face $-1 $712 $831 $19 $-1 $832 reversed single #
loop $-1 $-1 $833 $700 #
plane-surface $-1 0 -14.163851871441523 7.3482029856226525 0 -1 0 0 0 -1 forward_v I I I I #
coedge $-1 $834 $835 $836 $837 reversed $701 $-1 #
coedge $-1 $838 $703 $791 $839 reversed $615 $-1 #
coedge $-1 $703 $838 $840 $841 reversed $615 $-1 #
edge $-1 $793 -18.304057394696962 $842 -3.3412154493953619 $713 $843 forward 7 unknown #
coedge $-1 $704 $844 $845 $846 reversed $524 $-1 #
coedge $-1 $847 $705 $704 $781 forward $626 $-1 #
edge $-1 $707 7.1766851590629752 $848 29.126693816743121 $704 $717 forward 7 unknown #
straight-curve $-1 21.517642077971797 7.1766851590629752 11.457696624337714 1 0 0 I I #
point $-1 45.269936216315195 7.1766851590629752 11.457696624337711 #
straight-curve $-1 34.270887680015207 0.49380345767270128 11.457696624337714 0 1 0 I I #
coedge $-1 $711 $847 $849 $850 forward $626 $-1 #
coedge $-1 $851 $714 $711 $787 reversed $792 $-1 #
edge $-1 $852 -45.269936216315195 $716 45.269936216315195 $786 $853 forward 7 unknown #
face $-1 $854 $855 $19 $-1 $856 reversed single #
plane-surface $-1 0 0 11.457696624337711 0 0 1 1 0 0 forward_v I I I I #
coedge $-1 $836 $713 $833 $857 forward $524 $-1 #
coedge $-1 $714 $851 $776 $839 forward $792 $-1 #
loop $-1 $-1 $791 $854 #
vertex $-1 $839 $858 #
straight-curve $-1 45.269936216315195 -29.126693816743121 0 0 0 -1 I I #
point $-1 45.269936216315195 -29.126693816743121 11.457696624337711 #
point $-1 34.270887680015214 7.1766851590629752 11.457696624337707 #
vertex $-1 $735 $859 #
straight-curve $-1 0 -29.126693816743121 -11.457696624337711 -1 0 0 I I #
point $-1 -45.269936216315195 29.126693816743121 -11.457696624337711 #
straight-curve $-1 -45.269936216315195 0 -11.457696624337711 0 1 0 I I #
coedge $-1 $860 $737 $861 $862 forward $671 $-1 #
coedge $-1 $737 $860 $742 $809 reversed $671 $-1 #
coedge $-1 $812 $861 $739 $804 forward $765 $-1 #
edge $-1 $807 -18.304057394696962 $805 -3.3412154493953619 $803 $863 forward 7 unknown #
vertex $-1 $804 $864 #
straight-curve $-1 0 -14.163851871441523 4.1963660746209488 1 0 0 I I #
vertex $-1 $862 $865 #
straight-curve $-1 0 -29.126693816743121 4.1963660746209488 -1 0 0 I I #
edge $-1 $744 -4.1963660746209488 $819 11.457696624337711 $742 $612 forward 7 unknown #
point $-1 45.269936216315195 -14.163851871441523 4.1963660746209488 #
point $-1 45.269936216315195 -29.126693816743121 4.1963660746209488 #
coedge $-1 $746 $803 $750 $815 forward $765 $-1 #
straight-curve $-1 -45.269936216315195 -10.822636422046161 10.500039896624356 0 -1 0 I I #
point $-1 -45.269936216315195 -29.126693816743121 10.500039896624356 #
edge $-1 $805 0.52226458180962254 $751 6.82593840381303 $812 $866 forward 7 unknown #
point $-1 -45.269936216315195 -14.163851871441523 10.500039896624356 #
coedge $-1 $867 $754 $860 $868 forward $696 $-1 #
coedge $-1 $754 $867 $756 $822 forward $696 $-1 #
vertex $-1 $809 $869 #
straight-curve $-1 45.269936216315195 0 -11.457696624337711 0 -1 0 I I #
coedge $-1 $757 $756 $763 $827 reversed $758 $-1 #
edge $-1 $870 -45.269936216315195 $759 45.269936216315195 $756 $871 forward 7 unknown #
face $-1 $-1 $758 $18 $-1 $872 reversed single #
point $-1 45.269936216315195 29.126693816743121 -11.457696624337711 #
straight-curve $-1 0 29.126693816743121 11.457696624337711 -1 0 0 I I #
coedge $-1 $861 $763 $867 $873 reversed $765 $-1 #
edge $-1 $766 -11.457696624337711 $870 11.457696624337711 $821 $874 forward 7 unknown #
point $-1 -45.269936216315195 29.126693816743121 11.457696624337711 #
straight-curve $-1 -45.269936216315195 -29.126693816743121 0 0 0 -1 I I #
plane-surface $-1 -45.269936216315195 0 0 1 0 0 0 0 -1 forward_v I I I I #
loop $-1 $-1 $875 $772 #
plane-surface $-1 0 -29.126693816743121 0 0 1 0 0 0 1 forward_v I I I I #
coedge $-1 $840 $876 $790 $857 reversed $773 $-1 #
coedge $-1 $877 $775 $876 $878 reversed $701 $-1 #
coedge $-1 $775 $877 $875 $879 reversed $701 $-1 #
coedge $-1 $880 $790 $775 $837 forward $524 $-1 #
edge $-1 $881 3.3412154493953619 $882 18.304057394696962 $836 $883 forward 7 unknown #
coedge $-1 $777 $776 $884 $885 reversed $615 $-1 #
edge $-1 $886 -45.269936216315195 $793 45.269936216315195 $791 $887 forward 7 unknown #
coedge $-1 $888 $833 $777 $841 forward $773 $-1 #
edge $-1 $842 -45.269936216315195 $889 45.269936216315195 $840 $890 forward 7 unknown #
vertex $-1 $778 $891 #
straight-curve $-1 45.269936216315195 -10.822636422046161 10.500039896624356 0 1 0 I I #
coedge $-1 $779 $880 $892 $893 reversed $524 $-1 #
coedge $-1 $894 $895 $779 $846 forward $896 $-1 #
edge $-1 $848 -11.457696624337711 $897 11.457696624337711 $779 $898 forward 7 unknown #
coedge $-1 $785 $780 $895 $899 forward $626 $-1 #
vertex $-1 $781 $900 #
coedge $-1 $901 $902 $785 $850 reversed $903 $-1 #
edge $-1 $904 -29.126693816743121 $852 29.126693816743121 $849 $905 forward 7 unknown #
coedge $-1 $791 $786 $902 $906 forward $792 $-1 #
vertex $-1 $850 $907 #
straight-curve $-1 0 -29.126693816743121 11.457696624337711 1 0 0 I I #
face $-1 $908 $792 $19 $-1 $832 reversed single #
loop $-1 $-1 $892 $788 #
plane-surface $-1 0 0 -11.457696624337711 0 0 1 1 0 0 forward_v I I I I #
edge $-1 $842 -6.82593840381303 $881 -0.52226458180962254 $790 $909 forward 7 unknown #
point $-1 45.269936216315195 -29.126693816743121 10.500039896624356 #
point $-1 -45.269936216315195 -29.126693816743121 -11.457696624337711 #
coedge $-1 $802 $801 $817 $868 reversed $671 $-1 #
coedge $-1 $803 $826 $801 $862 reversed $765 $-1 #
edge $-1 $807 -4.1963660746209488 $910 11.457696624337711 $861 $829 forward 7 unknown #
straight-curve $-1 -45.269936216315195 -10.822636422046161 4.1963660746209488 0 1 0 I I #
point $-1 -45.269936216315195 -14.163851871441523 4.1963660746209488 #
point $-1 -45.269936216315195 -29.126693816743121 4.1963660746209488 #
straight-curve $-1 -45.269936216315195 -14.163851871441523 3.6741014928113263 0 0 1 I I #
coedge $-1 $818 $817 $826 $873 forward $696 $-1 #
edge $-1 $819 -45.269936216315195 $910 45.269936216315195 $860 $911 forward 7 unknown #
point $-1 45.269936216315195 -29.126693816743121 -11.457696624337711 #
vertex $-1 $822 $912 #
straight-curve $-1 0 29.126693816743121 -11.457696624337711 1 0 0 I I #
plane-surface $-1 0 29.126693816743121 0 0 -1 0 0 0 -1 forward_v I I I I #
edge $-1 $910 -29.126693816743121 $870 29.126693816743121 $826 $913 forward 7 unknown #
straight-curve $-1 -45.269936216315195 29.126693816743121 0 0 0 -1 I I #
coedge $-1 $914 $915 $835 $879 forward $831 $-1 #
coedge $-1 $833 $888 $834 $878 forward $773 $-1 #
coedge $-1 $835 $834 $916 $917 reversed $701 $-1 #
edge $-1 $918 -45.269936216315195 $881 45.269936216315195 $876 $919 forward 7 unknown #
edge $-1 $882 -45.269936216315195 $920 45.269936216315195 $875 $921 forward 7 unknown #
coedge $-1 $844 $836 $915 $922 forward $524 $-1 #
vertex $-1 $837 $923 #
vertex $-1 $922 $924 #
straight-curve $-1 45.269936216315195 -10.822636422046161 4.1963660746209488 0 -1 0 I I #
coedge $-1 $902 $925 $838 $885 forward $903 $-1 #
edge $-1 $889 3.3412154493953619 $886 18.304057394696962 $884 $926 forward 7 unknown #
vertex $-1 $885 $927 #
straight-curve $-1 0 -29.126693816743121 10.500039896624356 1 0 0 I I #
coedge $-1 $876 $840 $925 $928 reversed $773 $-1 #
vertex $-1 $885 $929 #
straight-curve $-1 0 -14.163851871441523 10.500039896624356 -1 0 0 I I #
point $-1 45.269936216315195 -14.163851871441523 10.500039896624356 #
coedge $-1 $930 $931 $844 $893 forward $855 $-1 #
edge $-1 $897 -29.126693816743121 $932 29.126693816743121 $844 $933 forward 7 unknown #
coedge $-1 $934 $845 $931 $935 reversed $896 $-1 #
coedge $-1 $845 $934 $847 $899 reversed $896 $-1 #
loop $-1 $-1 $845 $936 #
vertex $-1 $893 $937 #
straight-curve $-1 45.269936216315195 29.126693816743121 0 0 0 -1 I I #
edge $-1 $848 -45.269936216315195 $904 45.269936216315195 $895 $938 forward 7 unknown #
point $-1 45.269936216315195 29.126693816743121 11.457696624337711 #
coedge $-1 $939 $849 $934 $940 forward $903 $-1 #
coedge $-1 $849 $884 $851 $906 reversed $903 $-1 #
loop $-1 $-1 $884 $908 #
vertex $-1 $899 $941 #
straight-curve $-1 -45.269936216315195 0 11.457696624337711 0 -1 0 I I #
edge $-1 $852 -11.457696624337711 $886 -10.500039896624356 $902 $942 forward 7 unknown #
point $-1 -45.269936216315195 -29.126693816743121 11.457696624337711 #
face $-1 $936 $903 $19 $-1 $943 reversed single #
straight-curve $-1 45.269936216315195 -14.163851871441523 3.6741014928113263 0 0 -1 I I #
vertex $-1 $873 $944 #
straight-curve $-1 0 -29.126693816743121 -11.457696624337711 -1 0 0 I I #
point $-1 -45.269936216315195 29.126693816743121 -11.457696624337711 #
straight-curve $-1 -45.269936216315195 0 -11.457696624337711 0 1 0 I I #
coedge $-1 $945 $875 $946 $947 forward $831 $-1 #
coedge $-1 $875 $945 $880 $922 reversed $831 $-1 #
coedge $-1 $925 $946 $877 $917 forward $903 $-1 #
edge $-1 $920 -18.304057394696962 $918 -3.3412154493953619 $916 $948 forward 7 unknown #
vertex $-1 $917 $949 #
straight-curve $-1 0 -14.163851871441523 4.1963660746209488 1 0 0 I I #
vertex $-1 $947 $950 #
straight-curve $-1 0 -29.126693816743121 4.1963660746209488 -1 0 0 I I #
edge $-1 $882 -4.1963660746209488 $932 11.457696624337711 $880 $794 forward 7 unknown #
point $-1 45.269936216315195 -14.163851871441523 4.1963660746209488 #
point $-1 45.269936216315195 -29.126693816743121 4.1963660746209488 #
coedge $-1 $884 $916 $888 $928 forward $903 $-1 #
straight-curve $-1 -45.269936216315195 -10.822636422046161 10.500039896624356 0 -1 0 I I #
point $-1 -45.269936216315195 -29.126693816743121 10.500039896624356 #
edge $-1 $918 0.52226458180962254 $889 6.82593840381303 $925 $951 forward 7 unknown #
point $-1 -45.269936216315195 -14.163851871441523 10.500039896624356 #
coedge $-1 $952 $892 $945 $953 forward $855 $-1 #
coedge $-1 $892 $952 $894 $935 forward $855 $-1 #
vertex $-1 $922 $954 #
straight-curve $-1 45.269936216315195 0 -11.457696624337711 0 -1 0 I I #
coedge $-1 $895 $894 $901 $940 reversed $896 $-1 #
edge $-1 $955 -45.269936216315195 $897 45.269936216315195 $894 $956 forward 7 unknown #
face $-1 $-1 $896 $19 $-1 $957 reversed single #
point $-1 45.269936216315195 29.126693816743121 -11.457696624337711 #
straight-curve $-1 0 29.126693816743121 11.457696624337711 -1 0 0 I I #
coedge $-1 $946 $901 $952 $958 reversed $903 $-1 #
edge $-1 $904 -11.457696624337711 $955 11.457696624337711 $934 $959 forward 7 unknown #
point $-1 -45.269936216315195 29.126693816743121 11.457696624337711 #
straight-curve $-1 -45.269936216315195 -29.126693816743121 0 0 0 -1 I I #
plane-surface $-1 -45.269936216315195 0 0 1 0 0 0 0 -1 forward_v I I I I #
point $-1 -45.269936216315195 -29.126693816743121 -11.457696624337711 #
coedge $-1 $915 $914 $930 $953 reversed $831 $-1 #
coedge $-1 $916 $939 $914 $947 reversed $903 $-1 #
edge $-1 $920 -4.1963660746209488 $960 11.457696624337711 $946 $942 forward 7 unknown #
straight-curve $-1 -45.269936216315195 -10.822636422046161 4.1963660746209488 0 1 0 I I #
point $-1 -45.269936216315195 -14.163851871441523 4.1963660746209488 #
point $-1 -45.269936216315195 -29.126693816743121 4.1963660746209488 #
straight-curve $-1 -45.269936216315195 -14.163851871441523 3.6741014928113263 0 0 1 I I #
coedge $-1 $931 $930 $939 $958 forward $855 $-1 #
edge $-1 $932 -45.269936216315195 $960 45.269936216315195 $945 $961 forward 7 unknown #
point $-1 45.269936216315195 -29.126693816743121 -11.457696624337711 #
vertex $-1 $935 $962 #
straight-curve $-1 0 29.126693816743121 -11.457696624337711 1 0 0 I I #
plane-surface $-1 0 29.126693816743121 0 0 -1 0 0 0 -1 forward_v I I I I #
edge $-1 $960 -29.126693816743121 $955 29.126693816743121 $939 $963 forward 7 unknown #
straight-curve $-1 -45.269936216315195 29.126693816743121 0 0 0 -1 I I #
vertex $-1 $958 $964 #
straight-curve $-1 0 -29.126693816743121 -11.457696624337711 -1 0 0 I I #
point $-1 -45.269936216315195 29.126693816743121 -11.457696624337711 #
straight-curve $-1 -45.269936216315195 0 -11.457696624337711 0 1 0 I I #
point $-1 -45.269936216315195 -29.126693816743121 -11.457696624337711 #
End-of-ACIS-data 