500 0 7 0           
7 Unknown 11 ACIS 5.0 NT 24 Thu Mar 25 15:29:32 1999 
-1 9.9999999999999995e-007 1e-010 
body $-1 $7 $-1 $8 #
body $-1 $9 $-1 $10 #
body $-1 $11 $-1 $12 #
body $-1 $13 $-1 $14 #
body $-1 $15 $-1 $16 #
body $-1 $17 $-1 $18 #
body $-1 $19 $-1 $20 #
lump $-1 $-1 $21 $0 #
transform $-1 1 0 0 0 1 0 0 0 1 43.17148350474563 26.62515968069404 12.934739352919953 1 rotate no_reflect no_shear #
lump $-1 $-1 $22 $1 #
transform $-1 1 0 0 0 1 0 0 0 1 43.17148350474563 26.62515968069404 12.934739352919953 1 rotate no_reflect no_shear #
lump $-1 $-1 $23 $2 #
transform $-1 1 0 0 0 1 0 0 0 1 43.17148350474563 26.62515968069404 12.934739352919953 1 rotate no_reflect no_shear #
lump $-1 $-1 $24 $3 #
transform $-1 1 0 0 0 1 0 0 0 1 43.17148350474563 26.62515968069404 12.934739352919953 1 rotate no_reflect no_shear #
lump $-1 $-1 $25 $4 #
transform $-1 1 0 0 0 1 0 0 0 1 43.17148350474563 26.62515968069404 12.934739352919953 1 rotate no_reflect no_shear #
lump $-1 $-1 $26 $5 #
transform $-1 1 0 0 0 1 0 0 0 1 43.17148350474563 26.62515968069404 12.934739352919953 1 rotate no_reflect no_shear #
lump $-1 $-1 $27 $6 #
transform $-1 1 0 0 0 1 0 0 0 1 43.17148350474563 26.62515968069404 12.934739352919953 1 rotate no_reflect no_shear #
shell $-1 $-1 $-1 $28 $-1 $7 #
shell $-1 $-1 $-1 $29 $-1 $9 #
shell $-1 $-1 $-1 $30 $-1 $11 #
shell $-1 $-1 $-1 $31 $-1 $13 #
shell $-1 $-1 $-1 $32 $-1 $15 #
shell $-1 $-1 $-1 $33 $-1 $17 #
shell $-1 $-1 $-1 $34 $-1 $19 #
face $-1 $35 $36 $21 $-1 $37 forward single #
face $-1 $38 $39 $22 $-1 $40 forward single #
face $-1 $41 $42 $23 $-1 $43 reversed single #
face $-1 $44 $45 $24 $-1 $46 forward single #
face $-1 $47 $48 $25 $-1 $49 forward single #
face $-1 $50 $51 $26 $-1 $52 reversed single #
face $-1 $53 $54 $27 $-1 $55 forward single #
face $-1 $56 $57 $21 $-1 $58 reversed single #
loop $-1 $-1 $59 $28 #
plane-surface $-1 0 0 12.934739352919953 0 0 1 1 0 0 forward_v I I I I #
face $-1 $60 $61 $22 $-1 $62 reversed single #
loop $-1 $-1 $63 $29 #
plane-surface $-1 -38.00196158211552 0 -7.278539325689847 0 0 1 1 0 0 forward_v I I I I #
face $-1 $64 $65 $23 $-1 $66 reversed single #
loop $-1 $-1 $67 $30 #
plane-surface $-1 26.87193919286576 60.214737246979595 97.644725510857683 1 0 0 0 -0.77714596973225614 -0.62932038083071107 forward_v I I I I #
face $-1 $68 $69 $24 $-1 $70 forward single #
loop $-1 $71 $72 $31 #
cone-surface $-1 31.528951853402866 20.123486792058717 5.7745771713049106 0 -0.77714596973225614 -0.62932038083071107 1.5 0 0 1 I I 0 1 1.5 forward I I I I #
face $-1 $73 $74 $25 $-1 $75 forward single #
loop $-1 $76 $77 $32 #
cone-surface $-1 38.514470844208525 20.123486792058717 5.7745771713049106 0 -0.77714596973225614 -0.62932038083071107 1.5 0 0 1 I I 0 1 1.5 forward I I I I #
face $-1 $78 $79 $26 $-1 $80 reversed single #
loop $-1 $-1 $81 $33 #
plane-surface $-1 39.098742988741257 -26.625159680694033 8.6182734491027446 0 -0.61566148304635926 0.78801074757464917 1 0 0 forward_v I I I I #
face $-1 $82 $83 $27 $-1 $84 forward single #
loop $-1 $85 $86 $34 #
cone-surface $-1 39.098742988741272 -23.070440597149499 9.7623997934762823 0 0.61566148304635926 -0.78801074757464917 1 0 0 1 I I 0 1 1 forward I I I I #
face $-1 $87 $88 $21 $-1 $89 reversed single #
loop $-1 $-1 $90 $35 #
plane-surface $-1 0 0 -12.934739352919953 0 0 1 1 0 0 forward_v I I I I #
coedge $-1 $91 $92 $93 $94 forward $36 $-1 #
face $-1 $95 $96 $22 $-1 $97 reversed single #
loop $-1 $-1 $98 $38 #
plane-surface $-1 -32.832439659485409 0 -10.1066393393049 -1 0 0 0 0 1 forward_v I I I I #
coedge $-1 $99 $100 $101 $102 forward $39 $-1 #
face $-1 $103 $104 $23 $-1 $105 reversed single #
loop $-1 $-1 $106 $41 #
plane-surface $-1 35.021711348805702 -6.8863515791716878 43.30733663039112 0 0.77714596973225614 0.62932038083071107 1 0 0 forward_v I I I I #
coedge $-1 $107 $108 $109 $110 reversed $42 $-1 #
face $-1 $-1 $111 $24 $-1 $112 forward single #
loop $-1 $113 $114 $44 #
cone-surface $-1 31.528951853402866 17.49708822571985 3.6477616046603938 0 -0.77714596973225614 -0.62932038083071107 0.75 0 0 1 I I -0.70710678118654757 0.70710678118654757 0.75 forward I I I I #
loop $-1 $-1 $115 $31 #
coedge $-1 $72 $72 $116 $117 reversed $45 $-1 #
face $-1 $-1 $118 $25 $-1 $119 forward single #
loop $-1 $120 $121 $47 #
cone-surface $-1 38.514470844208525 17.49708822571985 3.6477616046603938 0 -0.77714596973225614 -0.62932038083071107 0.75 0 0 1 I I -0.70710678118654757 0.70710678118654757 0.75 forward I I I I #
loop $-1 $-1 $122 $32 #
coedge $-1 $77 $77 $123 $124 reversed $48 $-1 #
face $-1 $125 $126 $26 $-1 $127 forward single #
loop $-1 $-1 $128 $50 #
plane-surface $-1 35.026002472736891 -79.783198800380291 76.657459430065231 1 0 0 0 0.61566148304635926 -0.78801074757464917 forward_v I I I I #
coedge $-1 $129 $130 $131 $132 reversed $51 $-1 #
face $-1 $-1 $133 $27 $-1 $134 forward single #
loop $-1 $135 $136 $53 #
cone-surface $-1 39.098742988741272 -21.970302923412799 8.3542878121538902 0 0.61566148304635926 -0.78801074757464917 0.5 0 0 1 I I -0.70710678118654746 0.70710678118654746 0.5 forward I I I I #
loop $-1 $-1 $137 $34 #
coedge $-1 $86 $86 $138 $139 reversed $54 $-1 #
face $-1 $140 $141 $21 $-1 $142 reversed single #
loop $-1 $-1 $143 $56 #
plane-surface $-1 0 -26.62515968069404 0 0 1 0 0 0 1 forward_v I I I I #
coedge $-1 $144 $145 $146 $147 forward $57 $-1 #
coedge $-1 $148 $59 $149 $150 forward $36 $-1 #
coedge $-1 $59 $148 $151 $152 forward $36 $-1 #
coedge $-1 $153 $154 $59 $94 reversed $155 $-1 #
edge $-1 $156 -26.62515968069404 $157 26.62515968069404 $93 $158 forward 7 unknown #
face $-1 $159 $160 $22 $-1 $161 reversed single #
loop $-1 $-1 $162 $60 #
plane-surface $-1 0 0 -12.934739352919953 0 0 1 1 0 0 forward_v I I I I #
coedge $-1 $163 $101 $164 $165 reversed $61 $-1 #
coedge $-1 $166 $63 $167 $168 reversed $39 $-1 #
coedge $-1 $63 $166 $169 $170 reversed $39 $-1 #
coedge $-1 $98 $171 $63 $102 reversed $61 $-1 #
edge $-1 $172 -26.62515968069404 $173 26.62515968069404 $101 $174 forward 7 unknown #
face $-1 $175 $176 $23 $-1 $177 reversed single #
loop $-1 $-1 $178 $64 #
plane-surface $-1 43.17148350474563 0 0 -1 0 0 0 0 1 forward_v I I I I #
coedge $-1 $179 $180 $181 $182 reversed $65 $-1 #
coedge $-1 $108 $67 $183 $184 reversed $42 $-1 #
coedge $-1 $67 $107 $179 $185 reversed $42 $-1 #
coedge $-1 $181 $186 $67 $110 forward $187 $-1 #
edge $-1 $188 3.4822089427957579 $189 12.398476541987034 $109 $190 forward 7 unknown #
loop $-1 $-1 $116 $68 #
plane-surface $-1 35.021711348805702 -6.8863515791716878 43.30733663039112 0 0.77714596973225614 0.62932038083071107 1 0 0 forward_v I I I I #
loop $-1 $-1 $191 $44 #
coedge $-1 $114 $114 $115 $192 reversed $69 $-1 #
coedge $-1 $115 $115 $114 $192 forward $71 $-1 #
coedge $-1 $116 $116 $72 $117 forward $111 $-1 #
edge $-1 $193 7.0024265568967864e-016 $193 6.2831853071796013 $116 $194 forward 7 unknown #
loop $-1 $-1 $123 $73 #
plane-surface $-1 35.021711348805702 -6.8863515791716878 43.30733663039112 0 0.77714596973225614 0.62932038083071107 1 0 0 forward_v I I I I #
loop $-1 $-1 $195 $47 #
coedge $-1 $121 $121 $122 $196 reversed $74 $-1 #
coedge $-1 $122 $122 $121 $196 forward $76 $-1 #
coedge $-1 $123 $123 $77 $124 forward $118 $-1 #
edge $-1 $197 7.0024265568967864e-016 $197 6.2831853071796013 $123 $198 forward 7 unknown #
face $-1 $199 $200 $26 $-1 $201 reversed single #
loop $-1 $-1 $131 $78 #
plane-surface $-1 0 0 12.934739352919953 0 0 1 1 0 0 forward_v I I I I #
coedge $-1 $202 $203 $204 $205 reversed $79 $-1 #
coedge $-1 $206 $81 $207 $208 reversed $51 $-1 #
coedge $-1 $81 $206 $202 $209 forward $51 $-1 #
coedge $-1 $204 $210 $81 $132 forward $126 $-1 #
edge $-1 $211 -23.622112010374995 $212 -15.476630978366263 $131 $213 forward 7 unknown #
loop $-1 $-1 $138 $82 #
plane-surface $-1 39.098742988741257 -26.625159680694033 8.6182734491027446 0 -0.61566148304635926 0.78801074757464917 1 0 0 forward_v I I I I #
loop $-1 $-1 $214 $53 #
coedge $-1 $136 $136 $137 $215 reversed $83 $-1 #
coedge $-1 $137 $137 $136 $215 forward $85 $-1 #
coedge $-1 $138 $138 $86 $139 forward $133 $-1 #
edge $-1 $216 2.1872689723294032e-015 $216 6.2831853071796022 $138 $217 forward 7 unknown #
face $-1 $218 $219 $21 $-1 $220 reversed single #
loop $-1 $-1 $221 $87 #
plane-surface $-1 -43.17148350474563 0 0 1 0 0 0 0 -1 forward_v I I I I #
coedge $-1 $222 $151 $223 $224 forward $88 $-1 #
coedge $-1 $225 $90 $222 $226 forward $57 $-1 #
coedge $-1 $90 $225 $227 $228 forward $57 $-1 #
coedge $-1 $154 $153 $90 $147 reversed $155 $-1 #
edge $-1 $229 -26.62515968069404 $230 26.62515968069404 $146 $231 forward 7 unknown #
coedge $-1 $92 $91 $232 $233 forward $36 $-1 #
coedge $-1 $234 $235 $91 $150 reversed $219 $-1 #
edge $-1 $157 -43.17148350474563 $236 43.17148350474563 $149 $237 forward 7 unknown #
coedge $-1 $143 $238 $92 $152 reversed $88 $-1 #
edge $-1 $239 -43.17148350474563 $156 43.17148350474563 $151 $240 forward 7 unknown #
coedge $-1 $146 $93 $238 $241 forward $155 $-1 #
coedge $-1 $93 $146 $234 $242 reversed $155 $-1 #
loop $-1 $-1 $153 $218 #
vertex $-1 $94 $243 #
vertex $-1 $94 $244 #
straight-curve $-1 43.17148350474563 0 12.934739352919953 0 1 0 I I #
face $-1 $245 $246 $22 $-1 $247 reversed single #
loop $-1 $-1 $164 $95 #
plane-surface $-1 0 -26.62515968069404 0 0 1 0 0 0 1 forward_v I I I I #
coedge $-1 $248 $249 $163 $250 forward $96 $-1 #
coedge $-1 $171 $98 $162 $250 reversed $61 $-1 #
coedge $-1 $169 $251 $98 $165 forward $160 $-1 #
edge $-1 $252 -7.8814196832675032 $172 -2.2252196560373969 $164 $253 forward 7 unknown #
coedge $-1 $100 $99 $254 $255 reversed $39 $-1 #
coedge $-1 $256 $257 $99 $168 forward $258 $-1 #
edge $-1 $259 -24.170502713687871 $173 -13.831458868427649 $167 $260 forward 7 unknown #
coedge $-1 $261 $164 $100 $170 forward $160 $-1 #
edge $-1 $172 13.831458868427649 $262 24.170502713687871 $169 $263 forward 7 unknown #
coedge $-1 $101 $163 $256 $264 reversed $61 $-1 #
vertex $-1 $170 $265 #
vertex $-1 $168 $266 #
straight-curve $-1 -32.832439659485409 0 -7.278539325689847 0 1 0 I I #
face $-1 $-1 $187 $23 $-1 $267 forward single #
loop $-1 $-1 $268 $103 #
plane-surface $-1 0 26.62515968069404 0 0 -1 0 0 0 -1 forward_v I I I I #
coedge $-1 $269 $270 $180 $271 forward $104 $-1 #
coedge $-1 $272 $106 $108 $185 forward $65 $-1 #
coedge $-1 $106 $272 $178 $271 reversed $65 $-1 #
coedge $-1 $273 $109 $106 $182 forward $187 $-1 #
edge $-1 $189 9.3610835184629089 $274 25.660627830342793 $181 $275 forward 7 unknown #
coedge $-1 $276 $268 $107 $184 forward $176 $-1 #
edge $-1 $277 -46.898297203695989 $188 -35.887623402508886 $183 $278 forward 7 unknown #
edge $-1 $189 39.08222967164739 $277 53.250319361388073 $108 $279 forward 7 unknown #
coedge $-1 $109 $273 $276 $280 forward $187 $-1 #
loop $-1 $-1 $181 $175 #
vertex $-1 $184 $281 #
vertex $-1 $110 $282 #
straight-curve $-1 26.87193919286576 30.107368623489798 12.934739352919955 0 -1 0 I I #
coedge $-1 $191 $191 $-1 $283 reversed $113 $-1 #
edge $-1 $284 0 $284 6.2831853071796004 $114 $285 forward 7 unknown #
vertex $-1 $117 $286 #
ellipse-curve $-1 31.528951853402866 22.167025881098404 7.4294024523264 0 0.77714596973225614 0.62932038083071107 1.5 0 0 1 I I #
coedge $-1 $195 $195 $-1 $287 reversed $120 $-1 #
edge $-1 $288 0 $288 6.2831853071796004 $121 $289 forward 7 unknown #
vertex $-1 $124 $290 #
ellipse-curve $-1 38.514470844208525 22.167025881098404 7.4294024523264 0 0.77714596973225614 0.62932038083071107 1.5 0 0 1 I I #
face $-1 $-1 $291 $26 $-1 $292 reversed single #
loop $-1 $-1 $293 $125 #
plane-surface $-1 0 -26.62515968069404 0 0 1 0 0 0 1 forward_v I I I I #
coedge $-1 $203 $128 $130 $209 reversed $79 $-1 #
coedge $-1 $128 $202 $294 $295 reversed $79 $-1 #
coedge $-1 $296 $131 $128 $205 forward $126 $-1 #
edge $-1 $212 -18.791264022158156 $297 -13.266439719496105 $204 $298 forward 7 unknown #
coedge $-1 $130 $129 $293 $299 reversed $51 $-1 #
coedge $-1 $300 $301 $129 $208 forward $291 $-1 #
edge $-1 $302 -7.837486485652235 $211 -0.82638375682977394 $207 $303 forward 7 unknown #
edge $-1 $304 -8.8800565823946346e-015 $212 7.0111027288224532 $202 $305 forward 7 unknown #
coedge $-1 $131 $296 $300 $306 forward $126 $-1 #
vertex $-1 $208 $307 #
vertex $-1 $132 $308 #
straight-curve $-1 19.549371494370629 -21.100335378031989 12.934739352919953 -1 0 0 I I #
coedge $-1 $214 $214 $-1 $309 reversed $135 $-1 #
edge $-1 $310 0 $310 6.2831853071796004 $136 $311 forward 7 unknown #
vertex $-1 $139 $312 #
ellipse-curve $-1 39.098742988741272 -23.862747529363016 10.776506401011346 0 -0.61566148304635926 0.78801074757464917 1 0 0 1 I I #
face $-1 $-1 $155 $21 $-1 $313 reversed single #
loop $-1 $-1 $234 $140 #
plane-surface $-1 0 26.62515968069404 0 0 -1 0 0 0 -1 forward_v I I I I #
coedge $-1 $314 $232 $235 $315 forward $141 $-1 #
coedge $-1 $238 $143 $144 $226 reversed $88 $-1 #
coedge $-1 $232 $314 $143 $224 reversed $141 $-1 #
edge $-1 $239 -12.934739352919953 $316 12.934739352919953 $223 $317 forward 7 unknown #
coedge $-1 $145 $144 $314 $318 forward $57 $-1 #
edge $-1 $230 -43.17148350474563 $316 43.17148350474563 $222 $319 forward 7 unknown #
coedge $-1 $235 $234 $145 $228 reversed $219 $-1 #
edge $-1 $320 -43.17148350474563 $229 43.17148350474563 $227 $321 forward 7 unknown #
vertex $-1 $147 $322 #
vertex $-1 $241 $323 #
straight-curve $-1 43.17148350474563 0 -12.934739352919953 0 -1 0 I I #
coedge $-1 $221 $223 $148 $233 reversed $141 $-1 #
edge $-1 $236 -26.62515968069404 $239 26.62515968069404 $232 $324 forward 7 unknown #
coedge $-1 $227 $149 $154 $242 forward $219 $-1 #
coedge $-1 $149 $227 $221 $315 reversed $219 $-1 #
vertex $-1 $150 $325 #
straight-curve $-1 0 26.62515968069404 12.934739352919953 -1 0 0 I I #
coedge $-1 $151 $222 $153 $241 reversed $88 $-1 #
vertex $-1 $233 $326 #
straight-curve $-1 0 -26.62515968069404 12.934739352919953 1 0 0 I I #
edge $-1 $156 -12.934739352919953 $230 12.934739352919953 $153 $327 forward 7 unknown #
edge $-1 $157 -12.934739352919953 $229 12.934739352919953 $154 $328 forward 7 unknown #
point $-1 43.17148350474563 -26.62515968069404 12.934739352919953 #
point $-1 43.17148350474563 26.62515968069404 12.934739352919953 #
face $-1 $-1 $258 $22 $-1 $329 reversed single #
loop $-1 $-1 $254 $159 #
plane-surface $-1 -43.17148350474563 0 0 1 0 0 0 0 -1 forward_v I I I I #
coedge $-1 $330 $162 $251 $331 forward $96 $-1 #
coedge $-1 $162 $330 $332 $333 forward $96 $-1 #
edge $-1 $334 -26.62515968069404 $252 26.62515968069404 $162 $335 forward 7 unknown #
coedge $-1 $164 $261 $248 $331 reversed $160 $-1 #
vertex $-1 $331 $336 #
straight-curve $-1 -32.832439659485409 -26.62515968069404 -5.0533196696524501 0 0 1 I I #
coedge $-1 $337 $338 $166 $255 forward $246 $-1 #
edge $-1 $262 -26.62515968069404 $259 26.62515968069404 $254 $339 forward 7 unknown #
coedge $-1 $332 $167 $171 $264 forward $258 $-1 #
coedge $-1 $167 $332 $337 $340 reversed $258 $-1 #
loop $-1 $-1 $256 $245 #
vertex $-1 $340 $341 #
straight-curve $-1 -19.00098079105776 26.62515968069404 -7.278539325689847 1 0 0 I I #
coedge $-1 $251 $169 $338 $342 forward $160 $-1 #
vertex $-1 $342 $343 #
straight-curve $-1 -19.00098079105776 -26.62515968069404 -7.278539325689847 -1 0 0 I I #
edge $-1 $173 2.2252196560373969 $334 7.8814196832675032 $256 $344 forward 7 unknown #
point $-1 -32.832439659485409 -26.62515968069404 -7.278539325689847 #
point $-1 -32.832439659485409 26.62515968069404 -7.278539325689847 #
plane-surface $-1 0 0 12.934739352919953 0 0 1 1 0 0 forward_v I I I I #
coedge $-1 $183 $345 $272 $346 forward $176 $-1 #
coedge $-1 $270 $178 $345 $347 reversed $104 $-1 #
coedge $-1 $178 $269 $273 $348 reversed $104 $-1 #
edge $-1 $274 20.08730791140486 $349 34.255397601145539 $178 $350 forward 7 unknown #
coedge $-1 $180 $179 $268 $346 reversed $65 $-1 #
coedge $-1 $186 $181 $270 $348 forward $187 $-1 #
vertex $-1 $348 $351 #
straight-curve $-1 17.510855674402851 17.708892081502761 12.934739352919955 1 0 0 I I #
coedge $-1 $345 $183 $186 $280 reversed $176 $-1 #
vertex $-1 $184 $352 #
straight-curve $-1 26.87193919286576 26.62515968069404 48.822362755428841 0 0 1 I I #
straight-curve $-1 26.87193919286576 -6.8863515791716878 43.30733663039112 0 0.62932038083071107 -0.77714596973225614 I I #
edge $-1 $353 -43.17148350474563 $188 -26.87193919286576 $276 $354 forward 7 unknown #
point $-1 26.87193919286576 26.62515968069404 12.934739352919953 #
point $-1 26.87193919286576 17.708892081502764 12.934739352919955 #
edge $-1 $355 1 $355 0 $191 $-1 forward 7 unknown #
vertex $-1 $192 $356 #
ellipse-curve $-1 31.528951853402866 18.079947703019041 4.1197518902834274 0 0.77714596973225614 0.62932038083071107 1.5 0 0 1 I I #
point $-1 33.028951853402866 22.167025881098397 7.4294024523263928 #
edge $-1 $357 1 $357 0 $195 $-1 forward 7 unknown #
vertex $-1 $196 $358 #
ellipse-curve $-1 38.514470844208525 18.079947703019041 4.1197518902834274 0 0.77714596973225614 0.62932038083071107 1.5 0 0 1 I I #
point $-1 40.014470844208525 22.167025881098397 7.4294024523263928 #
loop $-1 $-1 $207 $199 #
plane-surface $-1 43.17148350474563 0 0 -1 0 0 0 0 1 forward_v I I I I #
coedge $-1 $359 $294 $206 $299 forward $200 $-1 #
coedge $-1 $293 $360 $203 $295 forward $200 $-1 #
edge $-1 $297 25.39399036211266 $304 29.710456265929878 $294 $361 forward 7 unknown #
coedge $-1 $210 $204 $360 $362 forward $126 $-1 #
vertex $-1 $362 $363 #
straight-curve $-1 35.026002472736891 -39.891599400190145 12.934739352919955 0 -1 0 I I #
edge $-1 $304 15.476630978366263 $302 23.622112010374995 $293 $364 forward 7 unknown #
coedge $-1 $301 $207 $210 $306 reversed $291 $-1 #
coedge $-1 $207 $300 $359 $365 forward $291 $-1 #
vertex $-1 $299 $366 #
straight-curve $-1 43.17148350474563 -20.449136096029012 13.443512002215193 0 0.78801074757464917 0.61566148304635926 I I #
vertex $-1 $299 $367 #
straight-curve $-1 35.026002472736891 -26.625159680694033 8.6182734491027446 0 0.78801074757464917 0.61566148304635926 I I #
edge $-1 $368 -26.62515968069404 $211 -21.100335378031989 $300 $369 forward 7 unknown #
point $-1 43.171483504745623 -21.100335378031989 12.934739352919953 #
point $-1 35.026002472736891 -21.100335378031989 12.934739352919953 #
edge $-1 $370 1 $370 0 $214 $-1 forward 7 unknown #
vertex $-1 $215 $371 #
ellipse-curve $-1 39.098742988741272 -22.278133664935979 8.7482931859412147 0 -0.61566148304635926 0.78801074757464917 1 0 0 1 I I #
point $-1 40.098742988741272 -23.862747529363016 10.77650640101135 #
plane-surface $-1 43.17148350474563 0 0 -1 0 0 0 0 1 forward_v I I I I #
coedge $-1 $223 $221 $225 $318 reversed $141 $-1 #
edge $-1 $236 -12.934739352919953 $320 12.934739352919953 $235 $372 forward 7 unknown #
vertex $-1 $318 $373 #
straight-curve $-1 -43.17148350474563 -26.62515968069404 0 0 0 -1 I I #
edge $-1 $316 -26.62515968069404 $320 26.62515968069404 $314 $374 forward 7 unknown #
straight-curve $-1 0 -26.62515968069404 -12.934739352919953 -1 0 0 I I #
vertex $-1 $228 $375 #
straight-curve $-1 0 26.62515968069404 -12.934739352919953 1 0 0 I I #
point $-1 43.17148350474563 26.62515968069404 -12.934739352919953 #
point $-1 43.17148350474563 -26.62515968069404 -12.934739352919953 #
straight-curve $-1 -43.17148350474563 0 12.934739352919953 0 -1 0 I I #
point $-1 -43.17148350474563 26.62515968069404 12.934739352919953 #
point $-1 -43.17148350474563 -26.62515968069404 12.934739352919953 #
straight-curve $-1 43.17148350474563 -26.62515968069404 0 0 0 -1 I I #
straight-curve $-1 43.17148350474563 26.62515968069404 0 0 0 -1 I I #
plane-surface $-1 0 26.62515968069404 0 0 -1 0 0 0 -1 forward_v I I I I #
coedge $-1 $249 $248 $376 $377 forward $96 $-1 #
edge $-1 $252 32.832439659485409 $378 43.17148350474563 $251 $379 forward 7 unknown #
coedge $-1 $257 $256 $249 $333 reversed $258 $-1 #
edge $-1 $380 -43.17148350474563 $334 -32.832439659485409 $332 $381 forward 7 unknown #
vertex $-1 $264 $382 #
straight-curve $-1 -32.832439659485409 0 -12.934739352919953 0 -1 0 I I #
point $-1 -32.832439659485409 -26.62515968069404 -12.934739352919953 #
coedge $-1 $376 $254 $257 $340 forward $246 $-1 #
coedge $-1 $254 $376 $261 $342 reversed $246 $-1 #
straight-curve $-1 -43.17148350474563 0 -7.278539325689847 0 1 0 I I #
edge $-1 $259 7.278539325689847 $380 12.934739352919953 $257 $383 forward 7 unknown #
point $-1 -43.17148350474563 26.62515968069404 -7.278539325689847 #
edge $-1 $262 7.278539325689847 $378 12.934739352919953 $338 $384 forward 7 unknown #
point $-1 -43.17148350474563 -26.62515968069404 -7.278539325689847 #
straight-curve $-1 -32.832439659485409 26.62515968069404 -5.0533196696524501 0 0 -1 I I #
coedge $-1 $268 $276 $269 $347 forward $176 $-1 #
edge $-1 $349 -25.660627830342793 $277 -9.3610835184629089 $268 $385 forward 7 unknown #
edge $-1 $353 -12.934739352919953 $349 -1.924065551732852 $269 $386 forward 7 unknown #
edge $-1 $274 17.708892081502764 $353 26.62515968069404 $270 $387 forward 7 unknown #
vertex $-1 $271 $388 #
straight-curve $-1 43.17148350474563 5.0675398168337011 28.545509739039105 0 0.62932038083071107 -0.77714596973225614 I I #
point $-1 43.171483504745645 17.708892081502764 12.934739352919955 #
point $-1 26.87193919286576 26.62515968069404 1.924065551732852 #
vertex $-1 $348 $389 #
straight-curve $-1 0 26.62515968069404 12.934739352919953 -1 0 0 I I #
vertex $-1 $283 $390 #
point $-1 33.028951853402866 18.079947703019041 4.1197518902834274 #
vertex $-1 $287 $391 #
point $-1 40.014470844208525 18.079947703019041 4.1197518902834274 #
coedge $-1 $360 $293 $301 $365 reversed $200 $-1 #
coedge $-1 $294 $359 $296 $362 reversed $200 $-1 #
straight-curve $-1 35.026002472736891 -26.62515968069404 38.328729715032615 0 0 -1 I I #
edge $-1 $297 35.026002472736891 $368 43.17148350474563 $360 $392 forward 7 unknown #
point $-1 35.026002472736891 -26.62515968069404 12.934739352919953 #
straight-curve $-1 19.549371494370629 -26.62515968069404 8.6182734491027393 1 0 0 I I #
edge $-1 $368 -12.934739352919953 $302 -8.6182734491027393 $301 $393 forward 7 unknown #
point $-1 43.171483504745623 -26.62515968069404 8.6182734491027393 #
point $-1 35.026002472736891 -26.62515968069404 8.6182734491027393 #
vertex $-1 $306 $394 #
straight-curve $-1 43.17148350474563 0 12.934739352919953 0 1 0 I I #
vertex $-1 $309 $395 #
point $-1 40.098742988741272 -22.278133664935979 8.7482931859412147 #
straight-curve $-1 -43.17148350474563 26.62515968069404 0 0 0 -1 I I #
point $-1 -43.17148350474563 -26.62515968069404 -12.934739352919953 #
straight-curve $-1 -43.17148350474563 0 -12.934739352919953 0 1 0 I I #
point $-1 -43.17148350474563 26.62515968069404 -12.934739352919953 #
coedge $-1 $338 $337 $330 $377 reversed $246 $-1 #
edge $-1 $378 -26.62515968069404 $380 26.62515968069404 $376 $396 forward 7 unknown #
vertex $-1 $377 $397 #
straight-curve $-1 0 -26.62515968069404 -12.934739352919953 -1 0 0 I I #
vertex $-1 $333 $398 #
straight-curve $-1 0 26.62515968069404 -12.934739352919953 1 0 0 I I #
point $-1 -32.832439659485409 26.62515968069404 -12.934739352919953 #
straight-curve $-1 -43.17148350474563 26.62515968069404 0 0 0 -1 I I #
straight-curve $-1 -43.17148350474563 -26.62515968069404 0 0 0 -1 I I #
straight-curve $-1 17.510855674402851 26.62515968069404 1.9240655517328555 -1 0 0 I I #
straight-curve $-1 43.17148350474563 26.62515968069404 0 0 0 -1 I I #
straight-curve $-1 43.17148350474563 0 12.934739352919953 0 1 0 I I #
point $-1 43.171483504745645 26.62515968069404 1.924065551732852 #
point $-1 43.17148350474563 26.62515968069404 12.934739352919953 #
point $-1 31.528951853402866 16.914228748420658 3.1757713190373607 #
point $-1 38.514470844208525 16.914228748420658 3.1757713190373607 #
straight-curve $-1 0 -26.62515968069404 12.934739352919953 1 0 0 I I #
straight-curve $-1 43.17148350474563 -26.62515968069404 0 0 0 -1 I I #
point $-1 43.17148350474563 -26.62515968069404 12.934739352919953 #
point $-1 39.098742988741272 -21.662472181889619 7.9602824383665656 #
straight-curve $-1 -43.17148350474563 0 -12.934739352919953 0 1 0 I I #
point $-1 -43.17148350474563 -26.62515968069404 -12.934739352919953 #
point $-1 -43.17148350474563 26.62515968069404 -12.934739352919953 #
End-of-ACIS-data 