500 0 8 0           
7 Unknown 11 ACIS 5.0 NT 24 Thu Mar 25 17:00:11 1999 
-1 9.9999999999999995e-007 1e-010 
body $-1 $8 $-1 $9 #
body $-1 $10 $-1 $11 #
body $-1 $12 $-1 $13 #
body $-1 $14 $-1 $15 #
body $-1 $16 $-1 $17 #
body $-1 $18 $-1 $19 #
body $-1 $20 $-1 $21 #
body $-1 $22 $-1 $23 #
lump $-1 $-1 $24 $0 #
transform $-1 1 0 0 0 1 0 0 0 1 51.06723227637562 32.101117490543743 16.026164756639574 1 rotate no_reflect no_shear #
lump $-1 $-1 $25 $1 #
transform $-1 1 0 0 0 1 0 0 0 1 51.06723227637562 32.101117490543743 16.026164756639574 1 rotate no_reflect no_shear #
lump $-1 $-1 $26 $2 #
transform $-1 1 0 0 0 1 0 0 0 1 51.06723227637562 32.101117490543743 16.026164756639574 1 rotate no_reflect no_shear #
lump $-1 $-1 $27 $3 #
transform $-1 1 0 0 0 1 0 0 0 1 51.06723227637562 32.101117490543743 16.026164756639574 1 rotate no_reflect no_shear #
lump $-1 $-1 $28 $4 #
transform $-1 1 0 0 0 1 0 0 0 1 51.06723227637562 32.101117490543743 16.026164756639574 1 rotate no_reflect no_shear #
lump $-1 $-1 $29 $5 #
transform $-1 1 0 0 0 1 0 0 0 1 51.06723227637562 32.101117490543743 16.026164756639574 1 rotate no_reflect no_shear #
lump $-1 $-1 $30 $6 #
transform $-1 1 0 0 0 1 0 0 0 1 51.06723227637562 32.101117490543743 16.026164756639574 1 rotate no_reflect no_shear #
lump $-1 $-1 $31 $7 #
transform $-1 1 0 0 0 1 0 0 0 1 51.06723227637562 32.101117490543743 16.026164756639574 1 rotate no_reflect no_shear #
shell $-1 $-1 $-1 $32 $-1 $8 #
shell $-1 $-1 $-1 $33 $-1 $10 #
shell $-1 $-1 $-1 $34 $-1 $12 #
shell $-1 $-1 $-1 $35 $-1 $14 #
shell $-1 $-1 $-1 $36 $-1 $16 #
shell $-1 $-1 $-1 $37 $-1 $18 #
shell $-1 $-1 $-1 $38 $-1 $20 #
shell $-1 $-1 $-1 $39 $-1 $22 #
face $-1 $40 $41 $24 $-1 $42 forward single #
face $-1 $43 $44 $25 $-1 $45 forward single #
face $-1 $46 $47 $26 $-1 $48 reversed single #
face $-1 $49 $50 $27 $-1 $51 forward single #
face $-1 $52 $53 $28 $-1 $54 forward single #
face $-1 $55 $56 $29 $-1 $57 reversed single #
face $-1 $58 $59 $30 $-1 $60 forward single #
face $-1 $61 $62 $31 $-1 $63 forward single #
face $-1 $64 $65 $24 $-1 $66 reversed single #
loop $-1 $-1 $67 $32 #
plane-surface $-1 0 0 16.026164756639574 0 0 1 1 0 0 forward_v I I I I #
face $-1 $68 $69 $25 $-1 $70 reversed single #
loop $-1 $-1 $71 $33 #
plane-surface $-1 -44.974981142052712 0 9.2126308196155122 0 0 1 1 0 0 forward_v I I I I #
face $-1 $72 $73 $26 $-1 $74 reversed single #
loop $-1 $-1 $75 $34 #
plane-surface $-1 -23.7468583366622 63.011718647748154 124.86537678866851 -1 0 0 0 0.73135370988377701 0.68199835119979291 forward_v I I I I #
face $-1 $76 $77 $27 $-1 $78 forward single #
loop $-1 $79 $80 $35 #
cone-surface $-1 -34.558195244567628 27.057257613678825 10.815968074681157 0 -0.73135370988377701 -0.68199835119979291 2 0 0 1 I I 0 1 2 forward I I I I #
face $-1 $81 $82 $28 $-1 $83 forward single #
loop $-1 $84 $85 $36 #
cone-surface $-1 -28.071393099824373 27.057257613678825 10.815968074681157 0 -0.73135370988377701 -0.68199835119979291 2 0 0 1 I I 0 1 2 forward I I I I #
face $-1 $86 $87 $29 $-1 $88 reversed single #
loop $-1 $-1 $89 $37 #
plane-surface $-1 -31.314794172196002 -32.101117490543743 8.2552976267701439 0 -0.73135370988377701 0.68199835119979291 1 0 0 forward_v I I I I #
face $-1 $90 $91 $30 $-1 $92 forward single #
loop $-1 $93 $94 $38 #
cone-surface $-1 -34.558195244567628 -27.057257613678818 10.815968074681157 0 0.73135370988377701 -0.68199835119979291 2 0 0 1 I I 0 1 2 forward I I I I #
face $-1 $95 $96 $31 $-1 $97 forward single #
loop $-1 $98 $99 $39 #
cone-surface $-1 -28.071393099824373 -27.057257613678818 10.815968074681157 0 0.73135370988377701 -0.68199835119979291 2 0 0 1 I I 0 1 2 forward I I I I #
face $-1 $100 $101 $24 $-1 $102 reversed single #
loop $-1 $-1 $103 $40 #
plane-surface $-1 0 0 -16.026164756639574 0 0 1 1 0 0 forward_v I I I I #
coedge $-1 $104 $105 $106 $107 forward $41 $-1 #
face $-1 $108 $109 $25 $-1 $110 reversed single #
loop $-1 $-1 $111 $43 #
plane-surface $-1 -44.974981142052712 0 4.567503186334811 0 0 1 1 0 0 forward_v I I I I #
coedge $-1 $112 $113 $114 $115 forward $44 $-1 #
face $-1 $116 $117 $26 $-1 $118 forward single #
loop $-1 $-1 $119 $46 #
plane-surface $-1 -31.314794172196002 -11.68470090989959 55.209840363018472 0 0.73135370988377701 0.68199835119979291 1 0 0 forward_v I I I I #
coedge $-1 $120 $121 $122 $123 reversed $47 $-1 #
face $-1 $-1 $124 $27 $-1 $125 forward single #
loop $-1 $126 $127 $49 #
cone-surface $-1 -34.558195244567628 24.905269354388864 8.8092066064576642 0 -0.73135370988377701 -0.68199835119979291 1 0 0 1 I I -0.70710678118654746 0.70710678118654746 1 forward I I I I #
loop $-1 $-1 $128 $35 #
coedge $-1 $80 $80 $129 $130 reversed $50 $-1 #
face $-1 $-1 $131 $28 $-1 $132 forward single #
loop $-1 $133 $134 $52 #
cone-surface $-1 -28.071393099824373 24.905269354388864 8.8092066064576642 0 -0.73135370988377701 -0.68199835119979291 1 0 0 1 I I -0.70710678118654746 0.70710678118654746 1 forward I I I I #
loop $-1 $-1 $135 $36 #
coedge $-1 $85 $85 $136 $137 reversed $53 $-1 #
face $-1 $138 $139 $29 $-1 $140 forward single #
loop $-1 $-1 $141 $55 #
plane-surface $-1 -23.7468583366622 -106.79753704819149 77.910834052420185 -1 0 0 0 -0.73135370988377701 0.68199835119979291 forward_v I I I I #
coedge $-1 $142 $143 $144 $145 reversed $56 $-1 #
face $-1 $-1 $146 $30 $-1 $147 forward single #
loop $-1 $148 $149 $58 #
cone-surface $-1 -34.558195244567628 -24.905269354388857 8.8092066064576642 0 0.73135370988377701 -0.68199835119979291 1 0 0 1 I I -0.70710678118654746 0.70710678118654746 1 forward I I I I #
loop $-1 $-1 $150 $38 #
coedge $-1 $94 $94 $151 $152 reversed $59 $-1 #
face $-1 $-1 $153 $31 $-1 $154 forward single #
loop $-1 $155 $156 $61 #
cone-surface $-1 -28.071393099824373 -24.905269354388857 8.8092066064576642 0 0.73135370988377701 -0.68199835119979291 1 0 0 1 I I -0.70710678118654746 0.70710678118654746 1 forward I I I I #
loop $-1 $-1 $157 $39 #
coedge $-1 $99 $99 $158 $159 reversed $62 $-1 #
face $-1 $160 $161 $24 $-1 $162 reversed single #
loop $-1 $-1 $163 $64 #
plane-surface $-1 0 -32.101117490543743 0 0 1 0 0 0 1 forward_v I I I I #
coedge $-1 $164 $165 $166 $167 forward $65 $-1 #
coedge $-1 $168 $67 $169 $170 forward $41 $-1 #
coedge $-1 $67 $168 $171 $172 forward $41 $-1 #
coedge $-1 $173 $174 $67 $107 reversed $175 $-1 #
edge $-1 $176 -32.101117490543743 $177 32.101117490543743 $106 $178 forward 7 unknown #
face $-1 $179 $180 $25 $-1 $181 reversed single #
loop $-1 $-1 $182 $68 #
plane-surface $-1 -38.882730007729805 0 6.8900670029751616 -1 0 0 0 0 1 forward_v I I I I #
coedge $-1 $183 $184 $185 $186 forward $69 $-1 #
coedge $-1 $187 $71 $188 $189 reversed $44 $-1 #
coedge $-1 $71 $187 $190 $191 reversed $44 $-1 #
coedge $-1 $182 $192 $71 $115 reversed $109 $-1 #
edge $-1 $193 -32.101117490543743 $194 32.101117490543743 $114 $195 forward 7 unknown #
face $-1 $196 $197 $26 $-1 $198 forward single #
loop $-1 $-1 $199 $72 #
plane-surface $-1 0 0 16.026164756639574 0 0 1 1 0 0 forward_v I I I I #
coedge $-1 $200 $201 $202 $203 reversed $73 $-1 #
coedge $-1 $121 $75 $204 $205 reversed $47 $-1 #
coedge $-1 $75 $120 $200 $206 reversed $47 $-1 #
coedge $-1 $202 $207 $75 $123 forward $208 $-1 #
edge $-1 $209 46.406523637694683 $210 54.17739076756412 $122 $211 forward 7 unknown #
loop $-1 $-1 $129 $76 #
plane-surface $-1 -31.314794172196002 -11.68470090989959 55.209840363018472 0 0.73135370988377701 0.68199835119979291 1 0 0 forward_v I I I I #
loop $-1 $-1 $212 $49 #
coedge $-1 $127 $127 $128 $213 reversed $77 $-1 #
coedge $-1 $128 $128 $127 $213 forward $79 $-1 #
coedge $-1 $129 $129 $80 $130 forward $124 $-1 #
edge $-1 $214 3.8655439540835408e-016 $214 6.2831853071796004 $129 $215 forward 7 unknown #
loop $-1 $-1 $136 $81 #
plane-surface $-1 -31.314794172196002 -11.68470090989959 55.209840363018472 0 0.73135370988377701 0.68199835119979291 1 0 0 forward_v I I I I #
loop $-1 $-1 $216 $52 #
coedge $-1 $134 $134 $135 $217 reversed $82 $-1 #
coedge $-1 $135 $135 $134 $217 forward $84 $-1 #
coedge $-1 $136 $136 $85 $137 forward $131 $-1 #
edge $-1 $218 3.8655439540835408e-016 $218 6.2831853071796004 $136 $219 forward 7 unknown #
face $-1 $220 $221 $29 $-1 $222 forward single #
loop $-1 $-1 $223 $86 #
plane-surface $-1 0 0 16.026164756639574 0 0 1 1 0 0 forward_v I I I I #
coedge $-1 $224 $225 $226 $227 reversed $87 $-1 #
coedge $-1 $228 $89 $229 $230 reversed $56 $-1 #
coedge $-1 $89 $228 $224 $231 forward $56 $-1 #
coedge $-1 $226 $232 $89 $145 forward $233 $-1 #
edge $-1 $234 -23.225332921631804 $235 -8.0894612505641987 $144 $236 forward 7 unknown #
loop $-1 $-1 $151 $90 #
plane-surface $-1 -31.314794172196002 -32.101117490543743 8.2552976267701439 0 -0.73135370988377701 0.68199835119979291 1 0 0 forward_v I I I I #
loop $-1 $-1 $237 $58 #
coedge $-1 $149 $149 $150 $238 reversed $91 $-1 #
coedge $-1 $150 $150 $149 $238 forward $93 $-1 #
coedge $-1 $151 $151 $94 $152 forward $146 $-1 #
edge $-1 $239 -6.4957258228639693e-016 $239 6.2831853071795996 $151 $240 forward 7 unknown #
loop $-1 $-1 $158 $95 #
plane-surface $-1 -31.314794172196002 -32.101117490543743 8.2552976267701439 0 -0.73135370988377701 0.68199835119979291 1 0 0 forward_v I I I I #
loop $-1 $-1 $241 $61 #
coedge $-1 $156 $156 $157 $242 reversed $96 $-1 #
coedge $-1 $157 $157 $156 $242 forward $98 $-1 #
coedge $-1 $158 $158 $99 $159 forward $153 $-1 #
edge $-1 $243 -6.4957258228639693e-016 $243 6.2831853071795996 $158 $244 forward 7 unknown #
face $-1 $245 $246 $24 $-1 $247 reversed single #
loop $-1 $-1 $248 $100 #
plane-surface $-1 -51.06723227637562 0 0 1 0 0 0 0 -1 forward_v I I I I #
coedge $-1 $249 $171 $250 $251 forward $101 $-1 #
coedge $-1 $252 $103 $249 $253 forward $65 $-1 #
coedge $-1 $103 $252 $254 $255 forward $65 $-1 #
coedge $-1 $174 $173 $103 $167 reversed $175 $-1 #
edge $-1 $256 -32.101117490543743 $257 32.101117490543743 $166 $258 forward 7 unknown #
coedge $-1 $105 $104 $259 $260 forward $41 $-1 #
coedge $-1 $261 $262 $104 $170 reversed $246 $-1 #
edge $-1 $177 -51.06723227637562 $263 51.06723227637562 $169 $264 forward 7 unknown #
coedge $-1 $163 $265 $105 $172 reversed $101 $-1 #
edge $-1 $266 -51.06723227637562 $176 51.06723227637562 $171 $267 forward 7 unknown #
coedge $-1 $166 $106 $265 $268 forward $175 $-1 #
coedge $-1 $106 $166 $261 $269 reversed $175 $-1 #
loop $-1 $-1 $173 $245 #
vertex $-1 $107 $270 #
vertex $-1 $107 $271 #
straight-curve $-1 51.06723227637562 0 16.026164756639574 0 1 0 I I #
face $-1 $272 $273 $25 $-1 $274 reversed single #
loop $-1 $-1 $275 $108 #
plane-surface $-1 0 -32.101117490543743 0 0 1 0 0 0 1 forward_v I I I I #
coedge $-1 $185 $114 $276 $277 reversed $109 $-1 #
coedge $-1 $278 $111 $275 $279 reversed $69 $-1 #
coedge $-1 $111 $278 $280 $281 reversed $69 $-1 #
coedge $-1 $192 $182 $111 $186 reversed $109 $-1 #
edge $-1 $282 -32.101117490543743 $283 32.101117490543743 $185 $284 forward 7 unknown #
coedge $-1 $113 $112 $285 $286 reversed $44 $-1 #
coedge $-1 $287 $288 $112 $189 forward $289 $-1 #
edge $-1 $290 -28.579741705349264 $194 -16.395239436703449 $188 $291 forward 7 unknown #
coedge $-1 $292 $276 $113 $191 forward $180 $-1 #
edge $-1 $193 16.395239436703449 $293 28.579741705349264 $190 $294 forward 7 unknown #
coedge $-1 $114 $185 $287 $295 reversed $109 $-1 #
vertex $-1 $191 $296 #
vertex $-1 $189 $297 #
straight-curve $-1 -38.882730007729805 0 9.2126308196155122 0 1 0 I I #
face $-1 $-1 $208 $26 $-1 $298 reversed single #
loop $-1 $-1 $299 $116 #
plane-surface $-1 -38.882730007729805 0 6.8900670029751616 -1 0 0 0 0 1 forward_v I I I I #
coedge $-1 $300 $301 $302 $303 forward $117 $-1 #
coedge $-1 $304 $119 $121 $206 forward $73 $-1 #
coedge $-1 $119 $304 $299 $305 forward $73 $-1 #
coedge $-1 $306 $122 $119 $203 forward $208 $-1 #
edge $-1 $210 8.0894612505641987 $307 23.225332921631804 $202 $308 forward 7 unknown #
coedge $-1 $301 $300 $120 $205 forward $117 $-1 #
edge $-1 $309 -6.6511924882478155 $209 0.59525816666966591 $204 $310 forward 7 unknown #
edge $-1 $210 -64.202234981087486 $309 -53.576915077939191 $121 $311 forward 7 unknown #
coedge $-1 $122 $306 $301 $312 reversed $208 $-1 #
loop $-1 $-1 $306 $196 #
vertex $-1 $312 $313 #
vertex $-1 $123 $314 #
straight-curve $-1 -23.7468583366622 32.101117490543743 62.432688394334257 0 0 -1 I I #
coedge $-1 $212 $212 $-1 $315 reversed $126 $-1 #
edge $-1 $316 0 $316 6.2831853071796004 $127 $317 forward 7 unknown #
vertex $-1 $130 $318 #
ellipse-curve $-1 -34.558195244567628 28.477892163085002 12.14073119170485 0 0.73135370988377701 0.68199835119979291 2 0 0 1 I I #
coedge $-1 $216 $216 $-1 $319 reversed $133 $-1 #
edge $-1 $320 0 $320 6.2831853071796004 $134 $321 forward 7 unknown #
vertex $-1 $137 $322 #
ellipse-curve $-1 -28.071393099824373 28.477892163085002 12.14073119170485 0 0.73135370988377701 0.68199835119979291 2 0 0 1 I I #
face $-1 $-1 $233 $29 $-1 $323 reversed single #
loop $-1 $-1 $229 $138 #
plane-surface $-1 -38.882730007729805 0 6.8900670029751616 -1 0 0 0 0 1 forward_v I I I I #
coedge $-1 $324 $325 $225 $326 forward $139 $-1 #
coedge $-1 $225 $141 $143 $231 reversed $87 $-1 #
coedge $-1 $141 $224 $223 $326 reversed $87 $-1 #
coedge $-1 $327 $144 $141 $227 forward $233 $-1 #
edge $-1 $235 -30.700119399439949 $328 -22.929252269570519 $226 $329 forward 7 unknown #
coedge $-1 $143 $142 $324 $330 reversed $56 $-1 #
coedge $-1 $331 $332 $142 $230 forward $221 $-1 #
edge $-1 $333 -0.17809854381714849 $234 10.447221359331133 $229 $334 forward 7 unknown #
edge $-1 $335 -10.625319903148281 $235 0 $224 $336 forward 7 unknown #
coedge $-1 $144 $327 $331 $337 forward $233 $-1 #
loop $-1 $-1 $226 $220 #
vertex $-1 $230 $338 #
vertex $-1 $145 $339 #
straight-curve $-1 -15.657397086098001 -32.101117490543743 8.2552976267701439 1 0 0 I I #
coedge $-1 $237 $237 $-1 $340 reversed $148 $-1 #
edge $-1 $341 0 $341 6.2831853071796004 $149 $342 forward 7 unknown #
vertex $-1 $152 $343 #
ellipse-curve $-1 -34.558195244567628 -28.477892163085006 12.140731191704861 0 -0.73135370988377701 0.68199835119979291 2 0 0 1 I I #
coedge $-1 $241 $241 $-1 $344 reversed $155 $-1 #
edge $-1 $345 0 $345 6.2831853071796004 $156 $346 forward 7 unknown #
vertex $-1 $159 $347 #
ellipse-curve $-1 -28.071393099824373 -28.477892163085006 12.140731191704861 0 -0.73135370988377701 0.68199835119979291 2 0 0 1 I I #
face $-1 $-1 $175 $24 $-1 $348 reversed single #
loop $-1 $-1 $261 $160 #
plane-surface $-1 0 32.101117490543743 0 0 -1 0 0 0 -1 forward_v I I I I #
coedge $-1 $349 $259 $262 $350 forward $161 $-1 #
coedge $-1 $265 $163 $164 $253 reversed $101 $-1 #
coedge $-1 $259 $349 $163 $251 reversed $161 $-1 #
edge $-1 $266 -16.026164756639574 $351 16.026164756639574 $250 $352 forward 7 unknown #
coedge $-1 $165 $164 $349 $353 forward $65 $-1 #
edge $-1 $257 -51.06723227637562 $351 51.06723227637562 $249 $354 forward 7 unknown #
coedge $-1 $262 $261 $165 $255 reversed $246 $-1 #
edge $-1 $355 -51.06723227637562 $256 51.06723227637562 $254 $356 forward 7 unknown #
vertex $-1 $167 $357 #
vertex $-1 $268 $358 #
straight-curve $-1 51.06723227637562 0 -16.026164756639574 0 -1 0 I I #
coedge $-1 $248 $250 $168 $260 reversed $161 $-1 #
edge $-1 $263 -32.101117490543743 $266 32.101117490543743 $259 $359 forward 7 unknown #
coedge $-1 $254 $169 $174 $269 forward $246 $-1 #
coedge $-1 $169 $254 $248 $350 reversed $246 $-1 #
vertex $-1 $170 $360 #
straight-curve $-1 0 32.101117490543743 16.026164756639574 -1 0 0 I I #
coedge $-1 $171 $249 $173 $268 reversed $101 $-1 #
vertex $-1 $260 $361 #
straight-curve $-1 0 -32.101117490543743 16.026164756639574 1 0 0 I I #
edge $-1 $176 -16.026164756639574 $257 16.026164756639574 $173 $362 forward 7 unknown #
edge $-1 $177 -16.026164756639574 $256 16.026164756639574 $174 $363 forward 7 unknown #
point $-1 51.06723227637562 -32.101117490543743 16.026164756639574 #
point $-1 51.06723227637562 32.101117490543743 16.026164756639574 #
face $-1 $-1 $289 $25 $-1 $364 reversed single #
loop $-1 $-1 $365 $179 #
plane-surface $-1 -51.06723227637562 0 0 1 0 0 0 0 -1 forward_v I I I I #
coedge $-1 $276 $292 $183 $279 forward $180 $-1 #
coedge $-1 $190 $275 $182 $277 forward $180 $-1 #
edge $-1 $283 1.1224696848472302 $193 5.7675973181279314 $276 $366 forward 7 unknown #
coedge $-1 $184 $183 $365 $367 reversed $69 $-1 #
edge $-1 $368 -28.579741705349264 $283 -16.395239436703449 $275 $369 forward 7 unknown #
coedge $-1 $288 $287 $184 $281 forward $289 $-1 #
edge $-1 $282 16.395239436703449 $370 28.579741705349264 $280 $371 forward 7 unknown #
vertex $-1 $281 $372 #
vertex $-1 $279 $373 #
straight-curve $-1 -38.882730007729805 0 4.567503186334811 0 -1 0 I I #
coedge $-1 $374 $375 $187 $286 forward $273 $-1 #
edge $-1 $293 -32.101117490543743 $290 32.101117490543743 $285 $376 forward 7 unknown #
coedge $-1 $280 $188 $192 $295 forward $289 $-1 #
coedge $-1 $188 $280 $374 $377 reversed $289 $-1 #
loop $-1 $-1 $280 $272 #
vertex $-1 $377 $378 #
straight-curve $-1 -22.487490571026356 32.101117490543743 9.2126308196155122 1 0 0 I I #
coedge $-1 $275 $190 $375 $379 forward $180 $-1 #
vertex $-1 $379 $380 #
straight-curve $-1 -22.487490571026356 -32.101117490543743 9.2126308196155122 -1 0 0 I I #
edge $-1 $194 -5.7675973181279314 $282 -1.1224696848472302 $287 $381 forward 7 unknown #
point $-1 -38.882730007729805 -32.101117490543743 9.2126308196155122 #
point $-1 -38.882730007729805 32.101117490543743 9.2126308196155122 #
plane-surface $-1 0 32.101117490543743 0 0 -1 0 0 0 -1 forward_v I I I I #
coedge $-1 $302 $382 $201 $305 reversed $197 $-1 #
coedge $-1 $204 $199 $304 $383 forward $117 $-1 #
coedge $-1 $199 $204 $207 $312 forward $117 $-1 #
coedge $-1 $382 $299 $199 $303 reversed $197 $-1 #
edge $-1 $384 -0.59525816666966591 $385 6.6511924882478155 $199 $386 forward 7 unknown #
coedge $-1 $201 $200 $300 $383 reversed $73 $-1 #
edge $-1 $385 53.576915077939191 $307 64.202234981087486 $299 $387 forward 7 unknown #
coedge $-1 $207 $202 $382 $388 forward $208 $-1 #
vertex $-1 $388 $389 #
straight-curve $-1 -15.657397086098001 32.101117490543743 8.2552976267701297 -1 0 0 I I #
vertex $-1 $205 $390 #
straight-curve $-1 -23.7468583366622 31.505859323874077 16.026164756639574 0 1 0 I I #
straight-curve $-1 -23.7468583366622 -11.68470090989959 55.209840363018472 0 -0.68199835119979291 0.73135370988377701 I I #
edge $-1 $209 23.7468583366622 $384 38.882730007729805 $207 $391 forward 7 unknown #
point $-1 -23.7468583366622 32.101117490543743 16.026164756639574 #
point $-1 -23.7468583366622 32.101117490543743 8.2552976267701368 #
edge $-1 $392 1 $392 0 $212 $-1 forward 7 unknown #
vertex $-1 $213 $393 #
ellipse-curve $-1 -34.558195244567628 25.636623064272641 9.4912049576574571 0 0.73135370988377701 0.68199835119979291 2 0 0 1 I I #
point $-1 -32.558195244567628 28.477892163085013 12.140731191704859 #
edge $-1 $394 1 $394 0 $216 $-1 forward 7 unknown #
vertex $-1 $217 $395 #
ellipse-curve $-1 -28.071393099824373 25.636623064272641 9.4912049576574571 0 0.73135370988377701 0.68199835119979291 2 0 0 1 I I #
point $-1 -26.071393099824373 28.477892163085013 12.140731191704859 #
plane-surface $-1 0 -32.101117490543743 0 0 1 0 0 0 1 forward_v I I I I #
coedge $-1 $396 $223 $228 $330 forward $139 $-1 #
coedge $-1 $223 $396 $327 $397 forward $139 $-1 #
edge $-1 $328 21.297651033552 $335 28.544101688469471 $223 $398 forward 7 unknown #
coedge $-1 $232 $226 $325 $397 reversed $233 $-1 #
vertex $-1 $227 $399 #
straight-curve $-1 -23.7468583366622 -32.101117490543743 38.955417026210093 0 0 1 I I #
edge $-1 $335 8.0894612505641987 $333 23.225332921631804 $324 $400 forward 7 unknown #
coedge $-1 $332 $229 $232 $337 reversed $221 $-1 #
coedge $-1 $229 $331 $396 $401 reversed $221 $-1 #
vertex $-1 $401 $402 #
straight-curve $-1 -38.882730007729805 -24.97612974886065 15.895911725894003 0 -0.68199835119979291 -0.73135370988377701 I I #
vertex $-1 $330 $403 #
straight-curve $-1 -23.7468583366622 -32.101117490543743 8.2552976267701439 0 -0.68199835119979291 -0.73135370988377701 I I #
edge $-1 $404 22.929252269570519 $234 30.700119399439949 $232 $405 forward 7 unknown #
point $-1 -38.882730007729805 -32.101117490543743 8.2552976267701439 #
point $-1 -23.7468583366622 -32.101117490543743 8.2552976267701439 #
edge $-1 $406 1 $406 0 $237 $-1 forward 7 unknown #
vertex $-1 $238 $407 #
ellipse-curve $-1 -34.558195244567628 -25.636623064272634 9.4912049576574571 0 -0.73135370988377701 0.68199835119979291 2 0 0 1 I I #
point $-1 -32.558195244567628 -28.477892163085006 12.140731191704859 #
edge $-1 $408 1 $408 0 $241 $-1 forward 7 unknown #
vertex $-1 $242 $409 #
ellipse-curve $-1 -28.071393099824373 -25.636623064272634 9.4912049576574571 0 -0.73135370988377701 0.68199835119979291 2 0 0 1 I I #
point $-1 -26.071393099824373 -28.477892163085006 12.140731191704859 #
plane-surface $-1 51.06723227637562 0 0 -1 0 0 0 0 1 forward_v I I I I #
coedge $-1 $250 $248 $252 $353 reversed $161 $-1 #
edge $-1 $263 -16.026164756639574 $355 16.026164756639574 $262 $410 forward 7 unknown #
vertex $-1 $353 $411 #
straight-curve $-1 -51.06723227637562 -32.101117490543743 0 0 0 -1 I I #
edge $-1 $351 -32.101117490543743 $355 32.101117490543743 $349 $412 forward 7 unknown #
straight-curve $-1 0 -32.101117490543743 -16.026164756639574 -1 0 0 I I #
vertex $-1 $255 $413 #
straight-curve $-1 0 32.101117490543743 -16.026164756639574 1 0 0 I I #
point $-1 51.06723227637562 32.101117490543743 -16.026164756639574 #
point $-1 51.06723227637562 -32.101117490543743 -16.026164756639574 #
straight-curve $-1 -51.06723227637562 0 16.026164756639574 0 -1 0 I I #
point $-1 -51.06723227637562 32.101117490543743 16.026164756639574 #
point $-1 -51.06723227637562 -32.101117490543743 16.026164756639574 #
straight-curve $-1 51.06723227637562 -32.101117490543743 0 0 0 -1 I I #
straight-curve $-1 51.06723227637562 32.101117490543743 0 0 0 -1 I I #
plane-surface $-1 0 32.101117490543743 0 0 -1 0 0 0 -1 forward_v I I I I #
coedge $-1 $375 $374 $278 $367 forward $273 $-1 #
straight-curve $-1 -38.882730007729805 -32.101117490543743 3.4450335014875808 0 0 1 I I #
edge $-1 $370 -32.101117490543743 $368 32.101117490543743 $365 $414 forward 7 unknown #
vertex $-1 $279 $415 #
straight-curve $-1 -22.487490571026356 -32.101117490543743 4.567503186334811 1 0 0 I I #
vertex $-1 $281 $416 #
straight-curve $-1 -22.487490571026356 32.101117490543743 4.567503186334811 -1 0 0 I I #
point $-1 -38.882730007729805 32.101117490543743 4.567503186334811 #
point $-1 -38.882730007729805 -32.101117490543743 4.567503186334811 #
coedge $-1 $365 $285 $288 $377 forward $273 $-1 #
coedge $-1 $285 $365 $292 $379 reversed $273 $-1 #
straight-curve $-1 -51.06723227637562 0 9.2126308196155122 0 1 0 I I #
edge $-1 $290 -9.2126308196155122 $370 -4.567503186334811 $288 $417 forward 7 unknown #
point $-1 -51.06723227637562 32.101117490543743 9.2126308196155122 #
edge $-1 $293 -9.2126308196155122 $368 -4.567503186334811 $375 $418 forward 7 unknown #
point $-1 -51.06723227637562 -32.101117490543743 9.2126308196155122 #
straight-curve $-1 -38.882730007729805 32.101117490543743 3.4450335014875808 0 0 -1 I I #
coedge $-1 $299 $302 $306 $388 reversed $197 $-1 #
edge $-1 $385 -23.225332921631804 $309 -8.0894612505641987 $300 $419 forward 7 unknown #
vertex $-1 $388 $420 #
vertex $-1 $383 $421 #
straight-curve $-1 -38.882730007729805 31.505859323874077 16.026164756639574 0 -1 0 I I #
straight-curve $-1 -38.882730007729805 -11.68470090989959 55.209840363018472 0 0.68199835119979291 -0.73135370988377701 I I #
edge $-1 $307 -54.17739076756412 $384 -46.406523637694683 $306 $422 forward 7 unknown #
point $-1 -38.882730007729805 32.101117490543743 8.2552976267701332 #
point $-1 -23.7468583366622 24.854666835626261 16.026164756639574 #
straight-curve $-1 0 32.101117490543743 16.026164756639574 -1 0 0 I I #
vertex $-1 $315 $423 #
point $-1 -32.558195244567628 25.636623064272641 9.4912049576574571 #
vertex $-1 $319 $424 #
point $-1 -26.071393099824373 25.636623064272641 9.4912049576574571 #
coedge $-1 $325 $324 $332 $401 forward $139 $-1 #
edge $-1 $404 -38.882730007729805 $328 -23.7468583366622 $327 $425 forward 7 unknown #
straight-curve $-1 -23.7468583366622 -53.398768524095743 16.026164756639574 0 1 0 I I #
point $-1 -23.7468583366622 -32.101117490543743 16.026164756639574 #
straight-curve $-1 -15.657397086098001 -24.854666835626269 16.026164756639574 -1 0 0 I I #
edge $-1 $333 -28.544101688469471 $404 -21.297651033552 $396 $426 forward 7 unknown #
point $-1 -38.882730007729805 -24.854666835626272 16.026164756639574 #
point $-1 -23.7468583366622 -24.854666835626272 16.026164756639574 #
vertex $-1 $397 $427 #
straight-curve $-1 -38.882730007729805 -32.101117490543743 38.955417026210093 0 0 -1 I I #
vertex $-1 $340 $428 #
point $-1 -32.558195244567628 -25.636623064272634 9.4912049576574571 #
vertex $-1 $344 $429 #
point $-1 -26.071393099824373 -25.636623064272634 9.4912049576574571 #
straight-curve $-1 -51.06723227637562 32.101117490543743 0 0 0 -1 I I #
point $-1 -51.06723227637562 -32.101117490543743 -16.026164756639574 #
straight-curve $-1 -51.06723227637562 0 -16.026164756639574 0 1 0 I I #
point $-1 -51.06723227637562 32.101117490543743 -16.026164756639574 #
straight-curve $-1 -51.06723227637562 0 4.567503186334811 0 -1 0 I I #
point $-1 -51.06723227637562 -32.101117490543743 4.567503186334811 #
point $-1 -51.06723227637562 32.101117490543743 4.567503186334811 #
straight-curve $-1 -51.06723227637562 32.101117490543743 0 0 0 -1 I I #
straight-curve $-1 -51.06723227637562 -32.101117490543743 0 0 0 -1 I I #
straight-curve $-1 -15.657397086098001 24.854666835626261 16.026164756639574 1 0 0 I I #
point $-1 -38.882730007729805 32.101117490543743 16.026164756639574 #
point $-1 -38.882730007729805 24.854666835626261 16.026164756639574 #
straight-curve $-1 -38.882730007729805 32.101117490543743 62.432688394334257 0 0 1 I I #
point $-1 -34.558195244567628 24.173915644505087 8.1272082552578713 #
point $-1 -28.071393099824373 24.173915644505087 8.1272082552578713 #
straight-curve $-1 0 -32.101117490543743 16.026164756639574 1 0 0 I I #
straight-curve $-1 -38.882730007729805 -53.398768524095743 16.026164756639574 0 -1 0 I I #
point $-1 -38.882730007729805 -32.101117490543743 16.026164756639574 #
point $-1 -34.558195244567628 -24.17391564450508 8.1272082552578713 #
point $-1 -28.071393099824373 -24.17391564450508 8.1272082552578713 #
End-of-ACIS-data 