500 0 16 0           
7 Unknown 11 ACIS 5.0 NT 24 Fri Mar 26 18:23:17 1999 
-1 9.9999999999999995e-007 1e-010 
body $-1 $16 $-1 $17 #
body $-1 $18 $-1 $19 #
body $-1 $20 $-1 $21 #
body $-1 $22 $-1 $23 #
body $-1 $24 $-1 $25 #
body $-1 $26 $-1 $27 #
body $-1 $28 $-1 $29 #
body $-1 $30 $-1 $31 #
body $-1 $32 $-1 $33 #
body $-1 $34 $-1 $35 #
body $-1 $36 $-1 $37 #
body $-1 $38 $-1 $39 #
body $-1 $40 $-1 $41 #
body $-1 $42 $-1 $43 #
body $-1 $44 $-1 $45 #
body $-1 $46 $-1 $47 #
lump $-1 $-1 $48 $0 #
transform $-1 1 0 0 0 1 0 0 0 1 46.556596575823235 26.250407077770532 9.377388530150073 1 rotate no_reflect no_shear #
lump $-1 $-1 $49 $1 #
transform $-1 1 0 0 0 1 0 0 0 1 46.556596575823235 26.250407077770532 9.377388530150073 1 rotate no_reflect no_shear #
lump $-1 $-1 $50 $2 #
transform $-1 1 0 0 0 1 0 0 0 1 46.556596575823235 26.250407077770532 9.377388530150073 1 rotate no_reflect no_shear #
lump $-1 $-1 $51 $3 #
transform $-1 1 0 0 0 1 0 0 0 1 46.556596575823235 26.250407077770532 9.377388530150073 1 rotate no_reflect no_shear #
lump $-1 $-1 $52 $4 #
transform $-1 1 0 0 0 1 0 0 0 1 46.556596575823235 26.250407077770532 9.377388530150073 1 rotate no_reflect no_shear #
lump $-1 $-1 $53 $5 #
transform $-1 1 0 0 0 1 0 0 0 1 46.556596575823235 26.250407077770532 9.377388530150073 1 rotate no_reflect no_shear #
lump $-1 $-1 $54 $6 #
transform $-1 1 0 0 0 1 0 0 0 1 46.556596575823235 26.250407077770532 9.377388530150073 1 rotate no_reflect no_shear #
lump $-1 $-1 $55 $7 #
transform $-1 1 0 0 0 1 0 0 0 1 46.556596575823235 26.250407077770532 9.377388530150073 1 rotate no_reflect no_shear #
lump $-1 $-1 $56 $8 #
transform $-1 1 0 0 0 1 0 0 0 1 46.556596575823235 26.250407077770532 9.377388530150073 1 rotate no_reflect no_shear #
lump $-1 $-1 $57 $9 #
transform $-1 1 0 0 0 1 0 0 0 1 46.556596575823235 26.250407077770532 9.377388530150073 1 rotate no_reflect no_shear #
lump $-1 $-1 $58 $10 #
transform $-1 1 0 0 0 1 0 0 0 1 46.556596575823235 26.250407077770532 9.377388530150073 1 rotate no_reflect no_shear #
lump $-1 $-1 $59 $11 #
transform $-1 1 0 0 0 1 0 0 0 1 46.556596575823235 26.250407077770532 9.377388530150073 1 rotate no_reflect no_shear #
lump $-1 $-1 $60 $12 #
transform $-1 1 0 0 0 1 0 0 0 1 46.556596575823235 26.250407077770532 9.377388530150073 1 rotate no_reflect no_shear #
lump $-1 $-1 $61 $13 #
transform $-1 1 0 0 0 1 0 0 0 1 46.556596575823235 26.250407077770532 9.377388530150073 1 rotate no_reflect no_shear #
lump $-1 $-1 $62 $14 #
transform $-1 1 0 0 0 1 0 0 0 1 46.556596575823235 26.250407077770532 9.377388530150073 1 rotate no_reflect no_shear #
lump $-1 $-1 $63 $15 #
transform $-1 1 0 0 0 1 0 0 0 1 46.556596575823235 26.250407077770532 9.377388530150073 1 rotate no_reflect no_shear #
shell $-1 $-1 $-1 $64 $-1 $16 #
shell $-1 $-1 $-1 $65 $-1 $18 #
shell $-1 $-1 $-1 $66 $-1 $20 #
shell $-1 $-1 $-1 $67 $-1 $22 #
shell $-1 $-1 $-1 $68 $-1 $24 #
shell $-1 $-1 $-1 $69 $-1 $26 #
shell $-1 $-1 $-1 $70 $-1 $28 #
shell $-1 $-1 $-1 $71 $-1 $30 #
shell $-1 $-1 $-1 $72 $-1 $32 #
shell $-1 $-1 $-1 $73 $-1 $34 #
shell $-1 $-1 $-1 $74 $-1 $36 #
shell $-1 $-1 $-1 $75 $-1 $38 #
shell $-1 $-1 $-1 $76 $-1 $40 #
shell $-1 $-1 $-1 $77 $-1 $42 #
shell $-1 $-1 $-1 $78 $-1 $44 #
shell $-1 $-1 $-1 $79 $-1 $46 #
face $-1 $80 $81 $48 $-1 $82 forward single #
face $-1 $83 $84 $49 $-1 $85 forward single #
face $-1 $86 $87 $50 $-1 $88 reversed single #
face $-1 $89 $90 $51 $-1 $91 forward single #
face $-1 $92 $93 $52 $-1 $94 forward single #
face $-1 $95 $96 $53 $-1 $97 reversed single #
face $-1 $98 $99 $54 $-1 $100 forward single #
face $-1 $101 $102 $55 $-1 $103 forward single #
face $-1 $104 $105 $56 $-1 $106 reversed single #
face $-1 $107 $108 $57 $-1 $109 forward single #
face $-1 $110 $111 $58 $-1 $112 forward single #
face $-1 $113 $114 $59 $-1 $115 reversed single #
face $-1 $116 $117 $60 $-1 $118 forward single #
face $-1 $119 $120 $61 $-1 $121 forward single #
face $-1 $122 $123 $62 $-1 $124 reversed single #
face $-1 $125 $126 $63 $-1 $127 forward single #
face $-1 $128 $129 $48 $-1 $130 reversed single #
loop $-1 $-1 $131 $64 #
plane-surface $-1 0 0 9.377388530150073 0 0 1 1 0 0 forward_v I I I I #
face $-1 $132 $133 $49 $-1 $134 reversed single #
loop $-1 $-1 $135 $65 #
plane-surface $-1 0 -26.250407077770532 0 0 1 0 0 0 1 forward_v I I I I #
face $-1 $136 $137 $50 $-1 $138 reversed single #
loop $-1 $-1 $139 $66 #
plane-surface $-1 -97.269676905546532 -10.260142921115758 81.828159284167583 0 1 0 -0.54463904215088732 0 0.83867056331134215 forward_v I I I I #
face $-1 $140 $141 $51 $-1 $142 forward single #
loop $-1 $143 $144 $67 #
cone-surface $-1 -41.9414549564179 -8.5214260867547047 6.1377915493985729 0.54463904215088732 0 -0.83867056331134215 0.41933528165567108 0 0.27231952107544366 1 I I 0 1 0.5 forward I I I I #
face $-1 $145 $146 $52 $-1 $147 forward single #
loop $-1 $148 $149 $68 #
cone-surface $-1 -41.9414549564179 -5.9133508352131265 6.1377915493985729 0.54463904215088732 0 -0.83867056331134215 0.41933528165567108 0 0.27231952107544366 1 I I 0 1 0.5 forward I I I I #
face $-1 $150 $151 $53 $-1 $152 reversed single #
loop $-1 $-1 $153 $69 #
plane-surface $-1 -97.269676905546532 -0.11846256157489066 81.828159284167583 0 1 0 -0.54463904215088732 0 0.83867056331134215 forward_v I I I I #
face $-1 $154 $155 $54 $-1 $156 forward single #
loop $-1 $157 $158 $70 #
cone-surface $-1 -41.9414549564179 1.6202542727861626 6.1377915493985729 0.54463904215088732 0 -0.83867056331134215 0.41933528165567108 0 0.27231952107544366 1 I I 0 1 0.5 forward I I I I #
face $-1 $159 $160 $55 $-1 $161 forward single #
loop $-1 $162 $163 $71 #
cone-surface $-1 -41.9414549564179 4.2283295243277408 6.1377915493985729 0.54463904215088732 0 -0.83867056331134215 0.41933528165567108 0 0.27231952107544366 1 I I 0 1 0.5 forward I I I I #
face $-1 $164 $165 $56 $-1 $166 reversed single #
loop $-1 $-1 $167 $72 #
plane-surface $-1 -97.269676905546532 10.023217797965973 81.828159284167583 0 1 0 -0.54463904215088732 0 0.83867056331134215 forward_v I I I I #
face $-1 $168 $169 $57 $-1 $170 forward single #
loop $-1 $171 $172 $73 #
cone-surface $-1 -41.9414549564179 11.761934632327026 6.1377915493985729 0.54463904215088732 0 -0.83867056331134215 0.41933528165567108 0 0.27231952107544366 1 I I 0 1 0.5 forward I I I I #
face $-1 $173 $174 $58 $-1 $175 forward single #
loop $-1 $176 $177 $74 #
cone-surface $-1 -41.9414549564179 14.370009883868605 6.1377915493985729 0.54463904215088732 0 -0.83867056331134215 0.41933528165567108 0 0.27231952107544366 1 I I 0 1 0.5 forward I I I I #
face $-1 $178 $179 $59 $-1 $180 reversed single #
loop $-1 $-1 $181 $75 #
plane-surface $-1 -97.269676905546532 20.164898157506844 81.828159284167583 0 1 0 -0.54463904215088732 0 0.83867056331134215 forward_v I I I I #
face $-1 $182 $183 $60 $-1 $184 forward single #
loop $-1 $185 $186 $76 #
cone-surface $-1 -41.9414549564179 21.903614991867897 6.1377915493985729 0.54463904215088732 0 -0.83867056331134215 0.41933528165567108 0 0.27231952107544366 1 I I 0 1 0.5 forward I I I I #
face $-1 $187 $188 $61 $-1 $189 forward single #
loop $-1 $190 $191 $77 #
cone-surface $-1 -41.9414549564179 24.511690243409475 6.1377915493985729 0.54463904215088732 0 -0.83867056331134215 0.41933528165567108 0 0.27231952107544366 1 I I 0 1 0.5 forward I I I I #
face $-1 $192 $193 $62 $-1 $194 reversed single #
loop $-1 $-1 $195 $78 #
plane-surface $-1 41.960964583444238 5.0046136553591918 136.26482521245839 0 -1 0 -0.68199836817093118 0 -0.7313536940579346 forward_v I I I I #
face $-1 $196 $197 $63 $-1 $198 forward single #
loop $-1 $199 $200 $79 #
cone-surface $-1 42.897521948950796 0.61110168902298057 5.8070231222879718 -0.68199836817093118 0 -0.7313536940579346 1.0970305410869019 0 -1.0229975522563968 1 I I 0 1 1.5 forward I I I I #
face $-1 $201 $202 $48 $-1 $203 reversed single #
loop $-1 $-1 $204 $80 #
plane-surface $-1 0 0 -9.377388530150073 0 0 1 1 0 0 forward_v I I I I #
coedge $-1 $205 $206 $207 $208 forward $81 $-1 #
face $-1 $209 $210 $49 $-1 $211 reversed single #
loop $-1 $-1 $212 $83 #
plane-surface $-1 0 0 -9.377388530150073 0 0 1 1 0 0 forward_v I I I I #
coedge $-1 $213 $214 $215 $216 forward $84 $-1 #
face $-1 $217 $218 $50 $-1 $219 reversed single #
loop $-1 $-1 $220 $86 #
plane-surface $-1 -46.556596575823235 -7.2173884609839156 3.7368651319584245 -0.54463904215088732 0 0.83867056331134215 0.83867056331134215 0 0.54463904215088732 forward_v I I I I #
coedge $-1 $221 $222 $223 $224 reversed $87 $-1 #
face $-1 $-1 $225 $51 $-1 $226 forward single #
loop $-1 $227 $228 $89 #
cone-surface $-1 -41.532975674804732 -8.5214260867547047 5.5087886269150665 0.54463904215088732 0 -0.83867056331134215 0.20966764082783554 0 0.13615976053772183 1 I I -0.70710678118654746 0.70710678118654746 0.25 forward I I I I #
loop $-1 $-1 $229 $67 #
coedge $-1 $144 $144 $230 $231 reversed $90 $-1 #
face $-1 $-1 $232 $52 $-1 $233 forward single #
loop $-1 $234 $235 $92 #
cone-surface $-1 -41.532975674804732 -5.9133508352131265 5.5087886269150665 0.54463904215088732 0 -0.83867056331134215 0.20966764082783554 0 0.13615976053772183 1 I I -0.70710678118654746 0.70710678118654746 0.25 forward I I I I #
loop $-1 $-1 $236 $68 #
coedge $-1 $149 $149 $237 $238 reversed $93 $-1 #
face $-1 $239 $240 $53 $-1 $241 reversed single #
loop $-1 $-1 $242 $95 #
plane-surface $-1 -46.556596575823235 2.9242918985569517 3.7368651319584245 -0.54463904215088732 0 0.83867056331134215 0.83867056331134215 0 0.54463904215088732 forward_v I I I I #
coedge $-1 $243 $244 $245 $246 reversed $96 $-1 #
face $-1 $-1 $247 $54 $-1 $248 forward single #
loop $-1 $249 $250 $98 #
cone-surface $-1 -41.532975674804732 1.6202542727861626 5.5087886269150665 0.54463904215088732 0 -0.83867056331134215 0.20966764082783554 0 0.13615976053772183 1 I I -0.70710678118654746 0.70710678118654746 0.25 forward I I I I #
loop $-1 $-1 $251 $70 #
coedge $-1 $158 $158 $252 $253 reversed $99 $-1 #
face $-1 $-1 $254 $55 $-1 $255 forward single #
loop $-1 $256 $257 $101 #
cone-surface $-1 -41.532975674804732 4.2283295243277408 5.5087886269150665 0.54463904215088732 0 -0.83867056331134215 0.20966764082783554 0 0.13615976053772183 1 I I -0.70710678118654746 0.70710678118654746 0.25 forward I I I I #
loop $-1 $-1 $258 $71 #
coedge $-1 $163 $163 $259 $260 reversed $102 $-1 #
face $-1 $261 $262 $56 $-1 $263 reversed single #
loop $-1 $-1 $264 $104 #
plane-surface $-1 -46.556596575823235 13.065972258097815 3.7368651319584245 -0.54463904215088732 0 0.83867056331134215 0.83867056331134215 0 0.54463904215088732 forward_v I I I I #
coedge $-1 $265 $266 $267 $268 reversed $105 $-1 #
face $-1 $-1 $269 $57 $-1 $270 forward single #
loop $-1 $271 $272 $107 #
cone-surface $-1 -41.532975674804732 11.761934632327026 5.5087886269150665 0.54463904215088732 0 -0.83867056331134215 0.20966764082783554 0 0.13615976053772183 1 I I -0.70710678118654746 0.70710678118654746 0.25 forward I I I I #
loop $-1 $-1 $273 $73 #
coedge $-1 $172 $172 $274 $275 reversed $108 $-1 #
face $-1 $-1 $276 $58 $-1 $277 forward single #
loop $-1 $278 $279 $110 #
cone-surface $-1 -41.532975674804732 14.370009883868605 5.5087886269150665 0.54463904215088732 0 -0.83867056331134215 0.20966764082783554 0 0.13615976053772183 1 I I -0.70710678118654746 0.70710678118654746 0.25 forward I I I I #
loop $-1 $-1 $280 $74 #
coedge $-1 $177 $177 $281 $282 reversed $111 $-1 #
face $-1 $283 $284 $59 $-1 $285 forward single #
loop $-1 $-1 $286 $113 #
plane-surface $-1 -46.556596575823235 23.207652617638686 3.7368651319584245 -0.54463904215088732 0 0.83867056331134215 0.83867056331134215 0 0.54463904215088732 forward_v I I I I #
coedge $-1 $287 $288 $289 $290 reversed $114 $-1 #
face $-1 $-1 $291 $60 $-1 $292 forward single #
loop $-1 $293 $294 $116 #
cone-surface $-1 -41.532975674804732 21.903614991867897 5.5087886269150665 0.54463904215088732 0 -0.83867056331134215 0.20966764082783554 0 0.13615976053772183 1 I I -0.70710678118654746 0.70710678118654746 0.25 forward I I I I #
loop $-1 $-1 $295 $76 #
coedge $-1 $186 $186 $296 $297 reversed $117 $-1 #
face $-1 $-1 $298 $61 $-1 $299 forward single #
loop $-1 $300 $301 $119 #
cone-surface $-1 -41.532975674804732 24.511690243409475 5.5087886269150665 0.54463904215088732 0 -0.83867056331134215 0.20966764082783554 0 0.13615976053772183 1 I I -0.70710678118654746 0.70710678118654746 0.25 forward I I I I #
loop $-1 $-1 $302 $77 #
coedge $-1 $191 $191 $303 $304 reversed $120 $-1 #
face $-1 $305 $306 $62 $-1 $307 reversed single #
loop $-1 $-1 $308 $122 #
plane-surface $-1 -21.542081201163377 0.61110168902298057 68.166147435471771 0.68199836817093118 0 0.7313536940579346 0.7313536940579346 0 -0.68199836817093118 forward_v I I I I #
coedge $-1 $309 $310 $311 $312 reversed $123 $-1 #
face $-1 $-1 $313 $63 $-1 $314 forward single #
loop $-1 $315 $316 $125 #
cone-surface $-1 41.254675359477119 0.61110168902298057 4.0452858835253789 -0.68199836817093118 0 -0.7313536940579346 0.54851527054345095 0 -0.51149877612819838 1 I I -0.70710678118654757 0.70710678118654757 0.75 forward I I I I #
loop $-1 $-1 $317 $79 #
coedge $-1 $200 $200 $318 $319 reversed $126 $-1 #
face $-1 $320 $321 $48 $-1 $322 reversed single #
loop $-1 $-1 $323 $128 #
plane-surface $-1 0 -26.250407077770532 0 0 1 0 0 0 1 forward_v I I I I #
coedge $-1 $324 $325 $326 $327 forward $129 $-1 #
coedge $-1 $328 $131 $329 $330 forward $81 $-1 #
coedge $-1 $131 $328 $331 $332 forward $81 $-1 #
coedge $-1 $333 $334 $131 $208 reversed $335 $-1 #
edge $-1 $336 -26.250407077770532 $337 26.250407077770532 $207 $338 forward 7 unknown #
face $-1 $339 $340 $49 $-1 $341 forward single #
loop $-1 $-1 $342 $132 #
plane-surface $-1 46.556596575823235 0 0 -1 0 0 0 0 1 forward_v I I I I #
coedge $-1 $343 $344 $345 $346 forward $133 $-1 #
coedge $-1 $345 $135 $342 $347 reversed $84 $-1 #
coedge $-1 $135 $345 $348 $349 reversed $84 $-1 #
coedge $-1 $350 $351 $135 $216 reversed $340 $-1 #
edge $-1 $352 -46.556596575823235 $353 46.556596575823235 $215 $354 forward 7 unknown #
face $-1 $355 $356 $50 $-1 $357 forward single #
loop $-1 $-1 $358 $136 #
plane-surface $-1 -97.269676905546532 -4.1746340008520733 81.828159284167583 0 -1 0 0.54463904215088732 0 -0.83867056331134215 forward_v I I I I #
coedge $-1 $359 $360 $361 $362 reversed $137 $-1 #
coedge $-1 $222 $139 $363 $364 reversed $87 $-1 #
coedge $-1 $139 $221 $359 $365 reversed $87 $-1 #
coedge $-1 $361 $366 $139 $224 forward $356 $-1 #
edge $-1 $367 2.078241876950031 $368 10.763886073609811 $223 $369 forward 7 unknown #
loop $-1 $-1 $230 $140 #
plane-surface $-1 -46.556596575823235 -7.2173884609839156 3.7368651319584245 -0.54463904215088732 0 0.83867056331134215 0.83867056331134215 0 0.54463904215088732 forward_v I I I I #
loop $-1 $-1 $370 $89 #
coedge $-1 $228 $228 $229 $371 reversed $141 $-1 #
coedge $-1 $229 $229 $228 $371 forward $143 $-1 #
coedge $-1 $230 $230 $144 $231 forward $225 $-1 #
edge $-1 $372 0 $372 6.2831853071796004 $230 $373 forward 7 unknown #
loop $-1 $-1 $237 $145 #
plane-surface $-1 -46.556596575823235 -7.2173884609839156 3.7368651319584245 -0.54463904215088732 0 0.83867056331134215 0.83867056331134215 0 0.54463904215088732 forward_v I I I I #
loop $-1 $-1 $374 $92 #
coedge $-1 $235 $235 $236 $375 reversed $146 $-1 #
coedge $-1 $236 $236 $235 $375 forward $148 $-1 #
coedge $-1 $237 $237 $149 $238 forward $232 $-1 #
edge $-1 $376 0 $376 6.2831853071796004 $237 $377 forward 7 unknown #
face $-1 $378 $379 $53 $-1 $380 forward single #
loop $-1 $-1 $381 $150 #
plane-surface $-1 -97.269676905546532 5.9670463586887941 81.828159284167583 0 -1 0 0.54463904215088732 0 -0.83867056331134215 forward_v I I I I #
coedge $-1 $382 $383 $384 $385 reversed $151 $-1 #
coedge $-1 $244 $153 $386 $387 reversed $96 $-1 #
coedge $-1 $153 $243 $382 $388 reversed $96 $-1 #
coedge $-1 $384 $389 $153 $246 forward $379 $-1 #
edge $-1 $390 2.078241876950031 $391 10.763886073609811 $245 $392 forward 7 unknown #
loop $-1 $-1 $252 $154 #
plane-surface $-1 -46.556596575823235 2.9242918985569517 3.7368651319584245 -0.54463904215088732 0 0.83867056331134215 0.83867056331134215 0 0.54463904215088732 forward_v I I I I #
loop $-1 $-1 $393 $98 #
coedge $-1 $250 $250 $251 $394 reversed $155 $-1 #
coedge $-1 $251 $251 $250 $394 forward $157 $-1 #
coedge $-1 $252 $252 $158 $253 forward $247 $-1 #
edge $-1 $395 0 $395 6.2831853071796004 $252 $396 forward 7 unknown #
loop $-1 $-1 $259 $159 #
plane-surface $-1 -46.556596575823235 2.9242918985569517 3.7368651319584245 -0.54463904215088732 0 0.83867056331134215 0.83867056331134215 0 0.54463904215088732 forward_v I I I I #
loop $-1 $-1 $397 $101 #
coedge $-1 $257 $257 $258 $398 reversed $160 $-1 #
coedge $-1 $258 $258 $257 $398 forward $162 $-1 #
coedge $-1 $259 $259 $163 $260 forward $254 $-1 #
edge $-1 $399 0 $399 6.2831853071796004 $259 $400 forward 7 unknown #
face $-1 $401 $402 $56 $-1 $403 forward single #
loop $-1 $-1 $404 $164 #
plane-surface $-1 -97.269676905546532 16.108726718229658 81.828159284167583 0 -1 0 0.54463904215088732 0 -0.83867056331134215 forward_v I I I I #
coedge $-1 $405 $406 $407 $408 reversed $165 $-1 #
coedge $-1 $266 $167 $409 $410 reversed $105 $-1 #
coedge $-1 $167 $265 $405 $411 reversed $105 $-1 #
coedge $-1 $407 $412 $167 $268 forward $402 $-1 #
edge $-1 $413 2.078241876950031 $414 10.763886073609811 $267 $415 forward 7 unknown #
loop $-1 $-1 $274 $168 #
plane-surface $-1 -46.556596575823235 13.065972258097815 3.7368651319584245 -0.54463904215088732 0 0.83867056331134215 0.83867056331134215 0 0.54463904215088732 forward_v I I I I #
loop $-1 $-1 $416 $107 #
coedge $-1 $272 $272 $273 $417 reversed $169 $-1 #
coedge $-1 $273 $273 $272 $417 forward $171 $-1 #
coedge $-1 $274 $274 $172 $275 forward $269 $-1 #
edge $-1 $418 0 $418 6.2831853071796004 $274 $419 forward 7 unknown #
loop $-1 $-1 $281 $173 #
plane-surface $-1 -46.556596575823235 13.065972258097815 3.7368651319584245 -0.54463904215088732 0 0.83867056331134215 0.83867056331134215 0 0.54463904215088732 forward_v I I I I #
loop $-1 $-1 $420 $110 #
coedge $-1 $279 $279 $280 $421 reversed $174 $-1 #
coedge $-1 $280 $280 $279 $421 forward $176 $-1 #
coedge $-1 $281 $281 $177 $282 forward $276 $-1 #
edge $-1 $422 0 $422 6.2831853071796004 $281 $423 forward 7 unknown #
face $-1 $424 $425 $59 $-1 $426 reversed single #
loop $-1 $-1 $289 $178 #
plane-surface $-1 0 0 9.377388530150073 0 0 1 1 0 0 forward_v I I I I #
coedge $-1 $427 $428 $429 $430 reversed $179 $-1 #
coedge $-1 $288 $181 $431 $432 reversed $114 $-1 #
coedge $-1 $181 $287 $427 $433 reversed $114 $-1 #
coedge $-1 $429 $434 $181 $290 forward $284 $-1 #
edge $-1 $435 2.078241876950031 $436 10.763886073609811 $289 $437 forward 7 unknown #
loop $-1 $-1 $296 $182 #
plane-surface $-1 -46.556596575823235 23.207652617638686 3.7368651319584245 -0.54463904215088732 0 0.83867056331134215 0.83867056331134215 0 0.54463904215088732 forward_v I I I I #
loop $-1 $-1 $438 $116 #
coedge $-1 $294 $294 $295 $439 reversed $183 $-1 #
coedge $-1 $295 $295 $294 $439 forward $185 $-1 #
coedge $-1 $296 $296 $186 $297 forward $291 $-1 #
edge $-1 $440 0 $440 6.2831853071796004 $296 $441 forward 7 unknown #
loop $-1 $-1 $303 $187 #
plane-surface $-1 -46.556596575823235 23.207652617638686 3.7368651319584245 -0.54463904215088732 0 0.83867056331134215 0.83867056331134215 0 0.54463904215088732 forward_v I I I I #
loop $-1 $-1 $442 $119 #
coedge $-1 $301 $301 $302 $443 reversed $188 $-1 #
coedge $-1 $302 $302 $301 $443 forward $190 $-1 #
coedge $-1 $303 $303 $191 $304 forward $298 $-1 #
edge $-1 $444 0 $444 6.2831853071796004 $303 $445 forward 7 unknown #
face $-1 $446 $447 $62 $-1 $448 forward single #
loop $-1 $-1 $449 $192 #
plane-surface $-1 41.960964583444238 -3.7824102773132307 136.26482521245839 0 1 0 0.68199836817093118 0 0.7313536940579346 forward_v I I I I #
coedge $-1 $450 $451 $452 $453 reversed $193 $-1 #
coedge $-1 $310 $195 $454 $455 reversed $123 $-1 #
coedge $-1 $195 $309 $450 $456 reversed $123 $-1 #
coedge $-1 $452 $457 $195 $312 forward $447 $-1 #
edge $-1 $458 -25.576114284101116 $459 -20.520660657047181 $311 $460 forward 7 unknown #
loop $-1 $-1 $318 $196 #
plane-surface $-1 -21.542081201163377 0.61110168902298057 68.166147435471771 0.68199836817093118 0 0.7313536940579346 0.7313536940579346 0 -0.68199836817093118 forward_v I I I I #
loop $-1 $-1 $461 $125 #
coedge $-1 $316 $316 $317 $462 reversed $197 $-1 #
coedge $-1 $317 $317 $316 $462 forward $199 $-1 #
coedge $-1 $318 $318 $200 $319 forward $313 $-1 #
edge $-1 $463 0 $463 6.2831853071796004 $318 $464 forward 7 unknown #
face $-1 $465 $466 $48 $-1 $467 reversed single #
loop $-1 $-1 $468 $201 #
plane-surface $-1 -46.556596575823235 0 0 1 0 0 0 0 -1 forward_v I I I I #
coedge $-1 $469 $331 $470 $471 forward $202 $-1 #
coedge $-1 $472 $204 $469 $473 forward $129 $-1 #
coedge $-1 $204 $472 $474 $475 forward $129 $-1 #
coedge $-1 $334 $333 $204 $327 reversed $335 $-1 #
edge $-1 $476 -26.250407077770532 $477 26.250407077770532 $326 $478 forward 7 unknown #
coedge $-1 $206 $205 $479 $480 forward $81 $-1 #
coedge $-1 $481 $482 $205 $330 reversed $466 $-1 #
edge $-1 $337 -46.556596575823235 $483 46.556596575823235 $329 $484 forward 7 unknown #
coedge $-1 $323 $485 $206 $332 reversed $202 $-1 #
edge $-1 $486 -46.556596575823235 $336 46.556596575823235 $331 $487 forward 7 unknown #
coedge $-1 $326 $207 $485 $488 forward $335 $-1 #
coedge $-1 $207 $326 $481 $489 reversed $335 $-1 #
loop $-1 $-1 $333 $465 #
vertex $-1 $208 $490 #
vertex $-1 $208 $491 #
straight-curve $-1 46.556596575823235 0 9.377388530150073 0 1 0 I I #
face $-1 $492 $493 $49 $-1 $494 reversed single #
loop $-1 $-1 $351 $209 #
plane-surface $-1 0 -32.21745343645933 -3.8215856036931068 0 0 1 1 0 0 forward_v I I I I #
coedge $-1 $495 $496 $213 $347 forward $210 $-1 #
coedge $-1 $497 $212 $496 $498 forward $133 $-1 #
coedge $-1 $212 $497 $499 $500 forward $133 $-1 #
coedge $-1 $214 $213 $212 $346 reversed $84 $-1 #
edge $-1 $501 -46.556596575823235 $502 46.556596575823235 $212 $503 forward 7 unknown #
edge $-1 $502 -9.377388530150073 $353 -3.8215856036931068 $342 $504 forward 7 unknown #
coedge $-1 $499 $505 $214 $349 forward $506 $-1 #
edge $-1 $352 3.8215856036931068 $501 9.377388530150073 $348 $507 forward 7 unknown #
coedge $-1 $508 $215 $505 $509 forward $340 $-1 #
coedge $-1 $215 $508 $495 $510 forward $340 $-1 #
vertex $-1 $349 $511 #
vertex $-1 $510 $512 #
straight-curve $-1 0 -26.250407077770532 -3.8215856036931068 1 0 0 I I #
face $-1 $-1 $513 $50 $-1 $514 reversed single #
loop $-1 $-1 $223 $217 #
plane-surface $-1 0 0 9.377388530150073 0 0 1 1 0 0 forward_v I I I I #
coedge $-1 $515 $516 $517 $518 reversed $218 $-1 #
coedge $-1 $519 $220 $222 $365 forward $137 $-1 #
coedge $-1 $220 $519 $515 $520 forward $137 $-1 #
coedge $-1 $517 $223 $220 $362 forward $356 $-1 #
edge $-1 $368 -6.6514486906238002 $521 -0.56593977036011545 $361 $522 forward 7 unknown #
coedge $-1 $523 $524 $221 $364 forward $513 $-1 #
edge $-1 $525 -37.177214510125367 $367 -31.53669111193372 $363 $526 forward 7 unknown #
edge $-1 $368 -10.356443371955315 $525 0 $222 $527 forward 7 unknown #
coedge $-1 $223 $517 $523 $528 forward $356 $-1 #
vertex $-1 $364 $529 #
vertex $-1 $224 $530 #
straight-curve $-1 -48.634838452773266 -10.260142921115758 9.3773885301500712 1 0 0 I I #
coedge $-1 $370 $370 $-1 $531 reversed $227 $-1 #
edge $-1 $532 0 $532 6.2831853071796004 $228 $533 forward 7 unknown #
vertex $-1 $231 $534 #
ellipse-curve $-1 -42.213774477493345 -8.5214260867547047 6.5571268310542479 -0.54463904215088732 0 0.83867056331134215 0.41933528165567108 0 0.27231952107544366 1 I I #
coedge $-1 $374 $374 $-1 $535 reversed $234 $-1 #
edge $-1 $536 0 $536 6.2831853071796004 $235 $537 forward 7 unknown #
vertex $-1 $238 $538 #
ellipse-curve $-1 -42.213774477493345 -5.9133508352131265 6.5571268310542479 -0.54463904215088732 0 0.83867056331134215 0.41933528165567108 0 0.27231952107544366 1 I I #
face $-1 $-1 $539 $53 $-1 $540 reversed single #
loop $-1 $-1 $245 $239 #
plane-surface $-1 0 0 9.377388530150073 0 0 1 1 0 0 forward_v I I I I #
coedge $-1 $541 $542 $543 $544 reversed $240 $-1 #
coedge $-1 $545 $242 $244 $388 forward $151 $-1 #
coedge $-1 $242 $545 $541 $546 forward $151 $-1 #
coedge $-1 $543 $245 $242 $385 forward $379 $-1 #
edge $-1 $391 -1.5806085108533665 $547 4.5049004094103182 $384 $548 forward 7 unknown #
coedge $-1 $549 $550 $243 $387 forward $539 $-1 #
edge $-1 $551 -37.177214510125367 $390 -31.53669111193372 $386 $552 forward 7 unknown #
edge $-1 $391 -10.356443371955315 $551 0 $244 $553 forward 7 unknown #
coedge $-1 $245 $543 $549 $554 forward $379 $-1 #
vertex $-1 $246 $555 #
vertex $-1 $246 $556 #
straight-curve $-1 -48.634838452773266 -0.11846256157489066 9.3773885301500712 1 0 0 I I #
coedge $-1 $393 $393 $-1 $557 reversed $249 $-1 #
edge $-1 $558 0 $558 6.2831853071796004 $250 $559 forward 7 unknown #
vertex $-1 $253 $560 #
ellipse-curve $-1 -42.213774477493345 1.6202542727861626 6.5571268310542479 -0.54463904215088732 0 0.83867056331134215 0.41933528165567108 0 0.27231952107544366 1 I I #
coedge $-1 $397 $397 $-1 $561 reversed $256 $-1 #
edge $-1 $562 0 $562 6.2831853071796004 $257 $563 forward 7 unknown #
vertex $-1 $260 $564 #
ellipse-curve $-1 -42.213774477493345 4.2283295243277408 6.5571268310542479 -0.54463904215088732 0 0.83867056331134215 0.41933528165567108 0 0.27231952107544366 1 I I #
face $-1 $-1 $565 $56 $-1 $566 reversed single #
loop $-1 $-1 $267 $261 #
plane-surface $-1 0 0 9.377388530150073 0 0 1 1 0 0 forward_v I I I I #
coedge $-1 $567 $568 $569 $570 reversed $262 $-1 #
coedge $-1 $571 $264 $266 $411 forward $165 $-1 #
coedge $-1 $264 $571 $567 $572 forward $165 $-1 #
coedge $-1 $569 $267 $264 $408 forward $402 $-1 #
edge $-1 $414 3.4902316689170654 $573 9.5757405891807501 $407 $574 forward 7 unknown #
coedge $-1 $575 $576 $265 $410 forward $565 $-1 #
edge $-1 $577 -37.177214510125367 $413 -31.53669111193372 $409 $578 forward 7 unknown #
edge $-1 $414 -10.356443371955315 $577 0 $266 $579 forward 7 unknown #
coedge $-1 $267 $569 $575 $580 forward $402 $-1 #
vertex $-1 $268 $581 #
vertex $-1 $268 $582 #
straight-curve $-1 -48.634838452773266 10.023217797965973 9.3773885301500712 1 0 0 I I #
coedge $-1 $416 $416 $-1 $583 reversed $271 $-1 #
edge $-1 $584 0 $584 6.2831853071796004 $272 $585 forward 7 unknown #
vertex $-1 $275 $586 #
ellipse-curve $-1 -42.213774477493345 11.761934632327026 6.5571268310542479 -0.54463904215088732 0 0.83867056331134215 0.41933528165567108 0 0.27231952107544366 1 I I #
coedge $-1 $420 $420 $-1 $587 reversed $278 $-1 #
edge $-1 $588 0 $588 6.2831853071796004 $279 $589 forward 7 unknown #
vertex $-1 $282 $590 #
ellipse-curve $-1 -42.213774477493345 14.370009883868605 6.5571268310542479 -0.54463904215088732 0 0.83867056331134215 0.41933528165567108 0 0.27231952107544366 1 I I #
face $-1 $-1 $591 $59 $-1 $592 reversed single #
loop $-1 $-1 $593 $283 #
plane-surface $-1 0 26.250407077770532 0 0 -1 0 0 0 -1 forward_v I I I I #
coedge $-1 $594 $286 $288 $433 forward $179 $-1 #
coedge $-1 $286 $594 $593 $595 reversed $179 $-1 #
coedge $-1 $596 $289 $286 $430 forward $284 $-1 #
edge $-1 $436 8.5610718486875008 $597 14.646580768951186 $429 $598 forward 7 unknown #
coedge $-1 $599 $600 $287 $432 forward $591 $-1 #
edge $-1 $601 -37.177214510125367 $435 -31.53669111193372 $431 $602 forward 7 unknown #
edge $-1 $436 -10.356443371955315 $601 0 $288 $603 forward 7 unknown #
coedge $-1 $289 $596 $599 $604 forward $284 $-1 #
vertex $-1 $432 $605 #
vertex $-1 $290 $606 #
straight-curve $-1 -48.634838452773266 20.164898157506844 9.3773885301500712 1 0 0 I I #
coedge $-1 $438 $438 $-1 $607 reversed $293 $-1 #
edge $-1 $608 0 $608 6.2831853071796004 $294 $609 forward 7 unknown #
vertex $-1 $297 $610 #
ellipse-curve $-1 -42.213774477493345 21.903614991867897 6.5571268310542479 -0.54463904215088732 0 0.83867056331134215 0.41933528165567108 0 0.27231952107544366 1 I I #
coedge $-1 $442 $442 $-1 $611 reversed $300 $-1 #
edge $-1 $612 0 $612 6.2831853071796004 $301 $613 forward 7 unknown #
vertex $-1 $304 $614 #
ellipse-curve $-1 -42.213774477493345 24.511690243409475 6.5571268310542479 -0.54463904215088732 0 0.83867056331134215 0.41933528165567108 0 0.27231952107544366 1 I I #
face $-1 $-1 $615 $62 $-1 $616 reversed single #
loop $-1 $-1 $311 $305 #
plane-surface $-1 0 0 9.377388530150073 0 0 1 1 0 0 forward_v I I I I #
coedge $-1 $617 $618 $619 $620 reversed $306 $-1 #
coedge $-1 $621 $308 $310 $456 forward $193 $-1 #
coedge $-1 $308 $621 $617 $622 forward $193 $-1 #
coedge $-1 $619 $311 $308 $453 forward $447 $-1 #
edge $-1 $459 -4.6990628108477015 $623 4.0879611218247209 $452 $624 forward 7 unknown #
coedge $-1 $625 $626 $309 $455 forward $615 $-1 #
edge $-1 $627 -63.469310955365039 $458 -58.755024076079124 $454 $628 forward 7 unknown #
edge $-1 $459 86.200732507599355 $627 93.11319315164647 $310 $629 forward 7 unknown #
coedge $-1 $311 $619 $625 $630 forward $447 $-1 #
vertex $-1 $455 $631 #
vertex $-1 $312 $632 #
straight-curve $-1 20.980482291722119 5.0046136553591918 9.3773885301500712 -1 0 0 I I #
coedge $-1 $461 $461 $-1 $633 reversed $315 $-1 #
edge $-1 $634 0 $634 6.2831853071796004 $316 $635 forward 7 unknown #
vertex $-1 $319 $636 #
ellipse-curve $-1 44.028869762296267 0.61110168902298057 7.0202450905071103 0.68199836817093118 0 0.7313536940579346 1.0970305410869019 0 -1.0229975522563968 1 I I #
face $-1 $-1 $335 $48 $-1 $637 reversed single #
loop $-1 $-1 $481 $320 #
plane-surface $-1 0 26.250407077770532 0 0 -1 0 0 0 -1 forward_v I I I I #
coedge $-1 $638 $479 $482 $639 forward $321 $-1 #
coedge $-1 $485 $323 $324 $473 reversed $202 $-1 #
coedge $-1 $479 $638 $323 $471 reversed $321 $-1 #
edge $-1 $486 -9.377388530150073 $640 9.377388530150073 $470 $641 forward 7 unknown #
coedge $-1 $325 $324 $638 $642 forward $129 $-1 #
edge $-1 $477 -46.556596575823235 $640 46.556596575823235 $469 $643 forward 7 unknown #
coedge $-1 $482 $481 $325 $475 reversed $466 $-1 #
edge $-1 $644 -46.556596575823235 $476 46.556596575823235 $474 $645 forward 7 unknown #
vertex $-1 $327 $646 #
vertex $-1 $488 $647 #
straight-curve $-1 46.556596575823235 0 -9.377388530150073 0 -1 0 I I #
coedge $-1 $468 $470 $328 $480 reversed $321 $-1 #
edge $-1 $483 -26.250407077770532 $486 26.250407077770532 $479 $648 forward 7 unknown #
coedge $-1 $474 $329 $334 $489 forward $466 $-1 #
coedge $-1 $329 $474 $468 $639 reversed $466 $-1 #
vertex $-1 $330 $649 #
straight-curve $-1 0 26.250407077770532 9.377388530150073 -1 0 0 I I #
coedge $-1 $331 $469 $333 $488 reversed $202 $-1 #
vertex $-1 $480 $650 #
straight-curve $-1 0 -26.250407077770532 9.377388530150073 1 0 0 I I #
edge $-1 $336 -9.377388530150073 $477 9.377388530150073 $333 $651 forward 7 unknown #
edge $-1 $337 -9.377388530150073 $476 9.377388530150073 $334 $652 forward 7 unknown #
point $-1 46.556596575823235 -26.250407077770532 9.377388530150073 #
point $-1 46.556596575823235 26.250407077770532 9.377388530150073 #
face $-1 $-1 $506 $49 $-1 $653 reversed single #
loop $-1 $-1 $654 $339 #
plane-surface $-1 0 -38.184499795148128 -6.5994870669215899 0 1 0 0 0 1 forward_v I I I I #
coedge $-1 $655 $342 $351 $510 reversed $210 $-1 #
coedge $-1 $342 $655 $343 $498 reversed $210 $-1 #
coedge $-1 $344 $343 $656 $657 forward $133 $-1 #
edge $-1 $502 26.250407077770532 $658 38.184499795148128 $496 $659 forward 7 unknown #
coedge $-1 $660 $348 $344 $500 reversed $506 $-1 #
edge $-1 $661 -38.184499795148128 $501 -26.250407077770532 $499 $662 forward 7 unknown #
vertex $-1 $349 $663 #
vertex $-1 $498 $664 #
straight-curve $-1 0 -26.250407077770532 -9.377388530150073 1 0 0 I I #
straight-curve $-1 46.556596575823235 -26.250407077770532 0 0 0 1 I I #
coedge $-1 $348 $660 $350 $509 reversed $506 $-1 #
loop $-1 $-1 $348 $492 #
straight-curve $-1 -46.556596575823235 -26.250407077770532 0 0 0 -1 I I #
coedge $-1 $351 $350 $665 $666 forward $340 $-1 #
edge $-1 $352 -5.9670463586887976 $667 5.9670463586887976 $505 $668 forward 7 unknown #
edge $-1 $669 -5.9670463586887976 $353 5.9670463586887976 $495 $670 forward 7 unknown #
point $-1 -46.556596575823235 -26.250407077770532 -3.8215856036931068 #
point $-1 46.556596575823235 -26.250407077770532 -3.8215856036931068 #
loop $-1 $-1 $363 $355 #
plane-surface $-1 -46.556596575823235 0 0 1 0 0 0 0 -1 forward_v I I I I #
coedge $-1 $516 $358 $360 $520 reversed $218 $-1 #
coedge $-1 $358 $515 $671 $672 reversed $218 $-1 #
coedge $-1 $366 $361 $358 $518 forward $356 $-1 #
edge $-1 $521 -10.763886073609811 $673 -2.078241876950031 $517 $674 forward 7 unknown #
coedge $-1 $360 $359 $524 $675 reversed $137 $-1 #
edge $-1 $676 0 $521 10.356443371955315 $515 $677 forward 7 unknown #
vertex $-1 $362 $678 #
straight-curve $-1 -37.870952379163455 -3.6086942304919578 9.377388530150073 0 1 0 I I #
coedge $-1 $671 $363 $366 $528 reversed $513 $-1 #
coedge $-1 $363 $671 $519 $675 forward $513 $-1 #
vertex $-1 $364 $679 #
straight-curve $-1 -46.556596575823235 -10.260142921115758 40.914079642083792 0 0 1 I I #
straight-curve $-1 -46.556596575823235 -10.260142921115758 3.7368651319584245 -0.83867056331134215 0 -0.54463904215088732 I I #
edge $-1 $673 4.1746340008520733 $367 10.260142921115758 $523 $680 forward 7 unknown #
point $-1 -46.556596575823235 -10.260142921115758 9.377388530150073 #
point $-1 -37.870952379163455 -10.260142921115758 9.377388530150073 #
edge $-1 $681 1 $681 0 $370 $-1 forward 7 unknown #
vertex $-1 $371 $682 #
ellipse-curve $-1 -41.669135435342454 -8.5214260867547047 5.7184562677429023 -0.54463904215088732 0 0.83867056331134215 0.41933528165567108 0 0.27231952107544366 1 I I #
point $-1 -41.794439195837668 -8.5214260867547047 6.829446352129688 #
edge $-1 $683 1 $683 0 $374 $-1 forward 7 unknown #
vertex $-1 $375 $684 #
ellipse-curve $-1 -41.669135435342454 -5.9133508352131265 5.7184562677429023 -0.54463904215088732 0 0.83867056331134215 0.41933528165567108 0 0.27231952107544366 1 I I #
point $-1 -41.794439195837668 -5.9133508352131265 6.829446352129688 #
loop $-1 $-1 $386 $378 #
plane-surface $-1 -46.556596575823235 0 0 1 0 0 0 0 -1 forward_v I I I I #
coedge $-1 $542 $381 $383 $546 reversed $240 $-1 #
coedge $-1 $381 $541 $685 $686 reversed $240 $-1 #
coedge $-1 $389 $384 $381 $544 forward $379 $-1 #
edge $-1 $547 -10.763886073609811 $687 -2.078241876950031 $543 $688 forward 7 unknown #
coedge $-1 $383 $382 $550 $689 reversed $151 $-1 #
edge $-1 $690 0 $547 10.356443371955315 $541 $691 forward 7 unknown #
vertex $-1 $385 $692 #
straight-curve $-1 -37.870952379163455 1.4621459492784759 9.377388530150073 0 1 0 I I #
coedge $-1 $685 $386 $389 $554 reversed $539 $-1 #
coedge $-1 $386 $685 $545 $689 forward $539 $-1 #
vertex $-1 $387 $693 #
straight-curve $-1 -46.556596575823235 -0.11846256157489066 40.914079642083792 0 0 1 I I #
straight-curve $-1 -46.556596575823235 -0.11846256157489066 3.7368651319584245 -0.83867056331134215 0 -0.54463904215088732 I I #
edge $-1 $687 -5.9670463586887941 $390 0.11846256157489066 $549 $694 forward 7 unknown #
point $-1 -46.556596575823235 -0.11846256157489066 9.377388530150073 #
point $-1 -37.870952379163455 -0.11846256157489066 9.377388530150073 #
edge $-1 $695 1 $695 0 $393 $-1 forward 7 unknown #
vertex $-1 $394 $696 #
ellipse-curve $-1 -41.669135435342454 1.6202542727861626 5.7184562677429023 -0.54463904215088732 0 0.83867056331134215 0.41933528165567108 0 0.27231952107544366 1 I I #
point $-1 -41.794439195837668 1.6202542727861626 6.829446352129688 #
edge $-1 $697 1 $697 0 $397 $-1 forward 7 unknown #
vertex $-1 $398 $698 #
ellipse-curve $-1 -41.669135435342454 4.2283295243277408 5.7184562677429023 -0.54463904215088732 0 0.83867056331134215 0.41933528165567108 0 0.27231952107544366 1 I I #
point $-1 -41.794439195837668 4.2283295243277408 6.829446352129688 #
loop $-1 $-1 $409 $401 #
plane-surface $-1 -46.556596575823235 0 0 1 0 0 0 0 -1 forward_v I I I I #
coedge $-1 $568 $404 $406 $572 reversed $262 $-1 #
coedge $-1 $404 $567 $699 $700 reversed $262 $-1 #
coedge $-1 $412 $407 $404 $570 forward $402 $-1 #
edge $-1 $573 -10.763886073609811 $701 -2.078241876950031 $569 $702 forward 7 unknown #
coedge $-1 $406 $405 $576 $703 reversed $165 $-1 #
edge $-1 $704 0 $573 10.356443371955315 $567 $705 forward 7 unknown #
vertex $-1 $408 $706 #
straight-curve $-1 -37.870952379163455 6.5329861290489077 9.377388530150073 0 1 0 I I #
coedge $-1 $699 $409 $412 $580 reversed $565 $-1 #
coedge $-1 $409 $699 $571 $703 forward $565 $-1 #
vertex $-1 $410 $707 #
straight-curve $-1 -46.556596575823235 10.023217797965973 40.914079642083792 0 0 1 I I #
straight-curve $-1 -46.556596575823235 10.023217797965973 3.7368651319584245 -0.83867056331134215 0 -0.54463904215088732 I I #
edge $-1 $701 -16.108726718229658 $413 -10.023217797965973 $575 $708 forward 7 unknown #
point $-1 -46.556596575823235 10.023217797965973 9.377388530150073 #
point $-1 -37.870952379163455 10.023217797965973 9.377388530150073 #
edge $-1 $709 1 $709 0 $416 $-1 forward 7 unknown #
vertex $-1 $417 $710 #
ellipse-curve $-1 -41.669135435342454 11.761934632327026 5.7184562677429023 -0.54463904215088732 0 0.83867056331134215 0.41933528165567108 0 0.27231952107544366 1 I I #
point $-1 -41.794439195837668 11.761934632327026 6.829446352129688 #
edge $-1 $711 1 $711 0 $420 $-1 forward 7 unknown #
vertex $-1 $421 $712 #
ellipse-curve $-1 -41.669135435342454 14.370009883868605 5.7184562677429023 -0.54463904215088732 0 0.83867056331134215 0.41933528165567108 0 0.27231952107544366 1 I I #
point $-1 -41.794439195837668 14.370009883868605 6.829446352129688 #
loop $-1 $-1 $431 $424 #
plane-surface $-1 -46.556596575823235 0 0 1 0 0 0 0 -1 forward_v I I I I #
coedge $-1 $713 $714 $428 $595 forward $425 $-1 #
coedge $-1 $428 $427 $600 $715 reversed $179 $-1 #
edge $-1 $597 8.1487588430385287 $716 18.505202214993844 $593 $717 forward 7 unknown #
coedge $-1 $434 $429 $714 $718 forward $284 $-1 #
vertex $-1 $718 $719 #
straight-curve $-1 -37.870952379163455 11.603826308819343 9.377388530150073 0 1 0 I I #
coedge $-1 $720 $431 $434 $604 reversed $591 $-1 #
coedge $-1 $431 $720 $594 $715 forward $591 $-1 #
vertex $-1 $432 $721 #
straight-curve $-1 -46.556596575823235 20.164898157506844 40.914079642083792 0 0 1 I I #
straight-curve $-1 -46.556596575823235 20.164898157506844 3.7368651319584245 -0.83867056331134215 0 -0.54463904215088732 I I #
edge $-1 $722 -26.250407077770532 $435 -20.164898157506844 $599 $723 forward 7 unknown #
point $-1 -46.556596575823235 20.164898157506844 9.377388530150073 #
point $-1 -37.870952379163455 20.164898157506844 9.377388530150073 #
edge $-1 $724 1 $724 0 $438 $-1 forward 7 unknown #
vertex $-1 $439 $725 #
ellipse-curve $-1 -41.669135435342454 21.903614991867897 5.7184562677429023 -0.54463904215088732 0 0.83867056331134215 0.41933528165567108 0 0.27231952107544366 1 I I #
point $-1 -41.794439195837668 21.903614991867897 6.829446352129688 #
edge $-1 $726 1 $726 0 $442 $-1 forward 7 unknown #
vertex $-1 $443 $727 #
ellipse-curve $-1 -41.669135435342454 24.511690243409475 5.7184562677429023 -0.54463904215088732 0 0.83867056331134215 0.41933528165567108 0 0.27231952107544366 1 I I #
point $-1 -41.794439195837668 24.511690243409475 6.829446352129688 #
loop $-1 $-1 $454 $446 #
plane-surface $-1 46.556596575823235 0 0 -1 0 0 0 0 1 forward_v I I I I #
coedge $-1 $618 $449 $451 $622 reversed $306 $-1 #
coedge $-1 $449 $617 $728 $729 reversed $306 $-1 #
coedge $-1 $457 $452 $449 $620 forward $447 $-1 #
edge $-1 $623 20.520660657047181 $730 25.576114284101116 $619 $731 forward 7 unknown #
coedge $-1 $451 $450 $626 $732 reversed $193 $-1 #
edge $-1 $733 -93.11319315164647 $623 -86.200732507599355 $617 $734 forward 7 unknown #
vertex $-1 $453 $735 #
straight-curve $-1 41.501142948769299 0.30555084451149028 9.3773885301500712 0 -1 0 I I #
coedge $-1 $728 $454 $457 $630 reversed $615 $-1 #
coedge $-1 $454 $728 $621 $732 forward $615 $-1 #
vertex $-1 $455 $736 #
straight-curve $-1 46.556596575823235 5.0046136553591918 68.132412606229195 0 0 1 I I #
straight-curve $-1 -21.542081201163377 5.0046136553591918 68.166147435471771 0.7313536940579346 0 -0.68199836817093118 I I #
edge $-1 $730 -3.7824102773132307 $458 5.0046136553591918 $625 $737 forward 7 unknown #
point $-1 46.556596575823235 5.0046136553591918 9.377388530150073 #
point $-1 41.501142948769299 5.0046136553591918 9.3773885301500712 #
edge $-1 $738 1 $738 0 $461 $-1 forward 7 unknown #
vertex $-1 $462 $739 #
ellipse-curve $-1 41.766174135605318 0.61110168902298057 4.5938011540688297 0.68199836817093118 0 0.7313536940579346 1.0970305410869019 0 -1.0229975522563968 1 I I #
point $-1 45.125900303383169 0.61110168902298057 5.9972475382507167 #
plane-surface $-1 46.556596575823235 0 0 -1 0 0 0 0 1 forward_v I I I I #
coedge $-1 $470 $468 $472 $642 reversed $321 $-1 #
edge $-1 $483 -9.377388530150073 $644 9.377388530150073 $482 $740 forward 7 unknown #
vertex $-1 $642 $741 #
straight-curve $-1 -46.556596575823235 -26.250407077770532 0 0 0 -1 I I #
edge $-1 $640 -26.250407077770532 $644 26.250407077770532 $638 $742 forward 7 unknown #
straight-curve $-1 0 -26.250407077770532 -9.377388530150073 -1 0 0 I I #
vertex $-1 $475 $743 #
straight-curve $-1 0 26.250407077770532 -9.377388530150073 1 0 0 I I #
point $-1 46.556596575823235 26.250407077770532 -9.377388530150073 #
point $-1 46.556596575823235 -26.250407077770532 -9.377388530150073 #
straight-curve $-1 -46.556596575823235 0 9.377388530150073 0 -1 0 I I #
point $-1 -46.556596575823235 26.250407077770532 9.377388530150073 #
point $-1 -46.556596575823235 -26.250407077770532 9.377388530150073 #
straight-curve $-1 46.556596575823235 -26.250407077770532 0 0 0 -1 I I #
straight-curve $-1 46.556596575823235 26.250407077770532 0 0 0 -1 I I #
plane-surface $-1 -46.556596575823235 0 0 1 0 0 0 0 -1 forward_v I I I I #
coedge $-1 $656 $665 $660 $744 forward $493 $-1 #
coedge $-1 $496 $495 $745 $746 forward $210 $-1 #
coedge $-1 $745 $654 $497 $657 reversed $493 $-1 #
edge $-1 $658 -46.556596575823235 $661 46.556596575823235 $656 $747 forward 7 unknown #
vertex $-1 $746 $748 #
straight-curve $-1 46.556596575823235 0 -9.377388530150073 0 -1 0 I I #
coedge $-1 $505 $499 $654 $744 reversed $506 $-1 #
vertex $-1 $500 $749 #
straight-curve $-1 -46.556596575823235 0 -9.377388530150073 0 1 0 I I #
point $-1 -46.556596575823235 -26.250407077770532 -9.377388530150073 #
point $-1 46.556596575823235 -26.250407077770532 -9.377388530150073 #
coedge $-1 $654 $745 $508 $666 reversed $493 $-1 #
edge $-1 $667 -46.556596575823235 $669 46.556596575823235 $665 $750 forward 7 unknown #
vertex $-1 $509 $751 #
straight-curve $-1 -46.556596575823235 -32.21745343645933 -3.8215856036931068 0 -1 0 I I #
vertex $-1 $510 $752 #
straight-curve $-1 46.556596575823235 -32.21745343645933 -3.8215856036931068 0 1 0 I I #
coedge $-1 $524 $523 $516 $672 forward $513 $-1 #
edge $-1 $673 31.53669111193372 $676 37.177214510125367 $671 $753 forward 7 unknown #
vertex $-1 $528 $754 #
straight-curve $-1 -48.634838452773266 -4.1746340008520733 9.3773885301500712 -1 0 0 I I #
edge $-1 $676 0.56593977036011545 $525 6.6514486906238002 $524 $755 forward 7 unknown #
vertex $-1 $675 $756 #
straight-curve $-1 -46.556596575823235 -4.1746340008520733 3.7368651319584245 0.83867056331134215 0 0.54463904215088732 I I #
point $-1 -37.870952379163455 -4.1746340008520733 9.377388530150073 #
point $-1 -46.556596575823235 -10.260142921115758 3.7368651319584245 #
straight-curve $-1 -46.556596575823235 0 9.377388530150073 0 -1 0 I I #
vertex $-1 $531 $757 #
point $-1 -41.249800153686785 -8.5214260867547047 5.9907757888183459 #
vertex $-1 $535 $758 #
point $-1 -41.249800153686785 -5.9133508352131265 5.9907757888183459 #
coedge $-1 $550 $549 $542 $686 forward $539 $-1 #
edge $-1 $687 31.53669111193372 $690 37.177214510125367 $685 $759 forward 7 unknown #
vertex $-1 $554 $760 #
straight-curve $-1 -48.634838452773266 5.9670463586887941 9.3773885301500712 -1 0 0 I I #
edge $-1 $690 -4.5049004094103182 $551 1.5806085108533665 $550 $761 forward 7 unknown #
vertex $-1 $689 $762 #
straight-curve $-1 -46.556596575823235 5.9670463586887941 3.7368651319584245 0.83867056331134215 0 0.54463904215088732 I I #
point $-1 -37.870952379163455 5.9670463586887941 9.377388530150073 #
point $-1 -46.556596575823235 -0.11846256157489066 3.7368651319584245 #
straight-curve $-1 -46.556596575823235 0 9.377388530150073 0 -1 0 I I #
vertex $-1 $557 $763 #
point $-1 -41.249800153686785 1.6202542727861626 5.9907757888183459 #
vertex $-1 $561 $764 #
point $-1 -41.249800153686785 4.2283295243277408 5.9907757888183459 #
coedge $-1 $576 $575 $568 $700 forward $565 $-1 #
edge $-1 $701 31.53669111193372 $704 37.177214510125367 $699 $765 forward 7 unknown #
vertex $-1 $580 $766 #
straight-curve $-1 -48.634838452773266 16.108726718229658 9.3773885301500712 -1 0 0 I I #
edge $-1 $704 -9.5757405891807501 $577 -3.4902316689170654 $576 $767 forward 7 unknown #
vertex $-1 $703 $768 #
straight-curve $-1 -46.556596575823235 16.108726718229658 3.7368651319584245 0.83867056331134215 0 0.54463904215088732 I I #
point $-1 -37.870952379163455 16.108726718229658 9.377388530150073 #
point $-1 -46.556596575823235 10.023217797965973 3.7368651319584245 #
straight-curve $-1 -46.556596575823235 0 9.377388530150073 0 -1 0 I I #
vertex $-1 $583 $769 #
point $-1 -41.249800153686785 11.761934632327026 5.9907757888183459 #
vertex $-1 $587 $770 #
point $-1 -41.249800153686785 14.370009883868605 5.9907757888183459 #
coedge $-1 $714 $593 $720 $771 reversed $425 $-1 #
coedge $-1 $593 $713 $596 $718 reversed $425 $-1 #
edge $-1 $716 -14.646580768951186 $601 -8.5610718486875008 $600 $772 forward 7 unknown #
vertex $-1 $595 $773 #
straight-curve $-1 -31.036828209984051 26.250407077770532 13.815520741141151 -0.83867056331134215 0 -0.54463904215088732 I I #
edge $-1 $597 37.870952379163455 $722 46.556596575823235 $714 $774 forward 7 unknown #
point $-1 -37.870952379163455 26.250407077770529 9.377388530150073 #
coedge $-1 $600 $599 $713 $771 forward $591 $-1 #
point $-1 -46.556596575823235 20.164898157506844 3.7368651319584245 #
vertex $-1 $718 $775 #
straight-curve $-1 -46.556596575823235 0 9.377388530150073 0 -1 0 I I #
vertex $-1 $607 $776 #
point $-1 -41.249800153686785 21.903614991867897 5.9907757888183459 #
vertex $-1 $611 $777 #
point $-1 -41.249800153686785 24.511690243409475 5.9907757888183459 #
coedge $-1 $626 $625 $618 $729 forward $615 $-1 #
edge $-1 $730 58.755024076079124 $733 63.469310955365039 $728 $778 forward 7 unknown #
vertex $-1 $630 $779 #
straight-curve $-1 20.980482291722119 -3.7824102773132307 9.3773885301500712 1 0 0 I I #
edge $-1 $733 -4.0879611218247209 $627 4.6990628108477015 $626 $780 forward 7 unknown #
vertex $-1 $732 $781 #
straight-curve $-1 -21.542081201163377 -3.7824102773132307 68.166147435471771 -0.7313536940579346 0 0.68199836817093118 I I #
point $-1 41.501142948769299 -3.7824102773132307 9.3773885301500712 #
point $-1 46.556596575823242 5.0046136553591918 4.6631016508641565 #
straight-curve $-1 46.556596575823235 0 9.377388530150073 0 1 0 I I #
vertex $-1 $633 $782 #
point $-1 42.86320467669222 0.61110168902298057 3.5708036018124329 #
straight-curve $-1 -46.556596575823235 26.250407077770532 0 0 0 -1 I I #
point $-1 -46.556596575823235 -26.250407077770532 -9.377388530150073 #
straight-curve $-1 -46.556596575823235 0 -9.377388530150073 0 1 0 I I #
point $-1 -46.556596575823235 26.250407077770532 -9.377388530150073 #
edge $-1 $667 -2.7779014632284831 $661 2.7779014632284831 $660 $783 forward 7 unknown #
coedge $-1 $665 $656 $655 $746 reversed $493 $-1 #
edge $-1 $669 -2.7779014632284831 $658 2.7779014632284831 $655 $784 forward 7 unknown #
straight-curve $-1 0 -38.184499795148128 -9.377388530150073 -1 0 0 I I #
point $-1 46.556596575823235 -38.184499795148128 -9.377388530150073 #
point $-1 -46.556596575823235 -38.184499795148128 -9.377388530150073 #
straight-curve $-1 0 -38.184499795148128 -3.8215856036931068 1 0 0 I I #
point $-1 -46.556596575823235 -38.184499795148128 -3.8215856036931068 #
point $-1 46.556596575823235 -38.184499795148128 -3.8215856036931068 #
straight-curve $-1 -46.556596575823235 -4.1746340008520733 40.914079642083792 0 0 -1 I I #
point $-1 -46.556596575823235 -4.1746340008520733 9.377388530150073 #
straight-curve $-1 -46.556596575823235 -3.6086942304919578 3.7368651319584245 0 -1 0 I I #
point $-1 -46.556596575823235 -4.1746340008520733 3.7368651319584245 #
point $-1 -41.396815914267009 -8.5214260867547047 5.2991209860872308 #
point $-1 -41.396815914267009 -5.9133508352131265 5.2991209860872308 #
straight-curve $-1 -46.556596575823235 5.9670463586887941 40.914079642083792 0 0 -1 I I #
point $-1 -46.556596575823235 5.9670463586887941 9.377388530150073 #
straight-curve $-1 -46.556596575823235 1.4621459492784759 3.7368651319584245 0 -1 0 I I #
point $-1 -46.556596575823235 5.9670463586887941 3.7368651319584245 #
point $-1 -41.396815914267009 1.6202542727861626 5.2991209860872308 #
point $-1 -41.396815914267009 4.2283295243277408 5.2991209860872308 #
straight-curve $-1 -46.556596575823235 16.108726718229658 40.914079642083792 0 0 -1 I I #
point $-1 -46.556596575823235 16.108726718229658 9.377388530150073 #
straight-curve $-1 -46.556596575823235 6.5329861290489077 3.7368651319584245 0 -1 0 I I #
point $-1 -46.556596575823235 16.108726718229658 3.7368651319584245 #
point $-1 -41.396815914267009 11.761934632327026 5.2991209860872308 #
point $-1 -41.396815914267009 14.370009883868605 5.2991209860872308 #
edge $-1 $722 -9.377388530150073 $716 -3.7368651319584245 $713 $785 forward 7 unknown #
straight-curve $-1 -46.556596575823235 11.603826308819343 3.7368651319584245 0 -1 0 I I #
point $-1 -46.556596575823235 26.250407077770529 3.7368651319584245 #
straight-curve $-1 0 26.250407077770532 9.377388530150073 -1 0 0 I I #
point $-1 -46.556596575823235 26.250407077770532 9.377388530150073 #
point $-1 -41.396815914267009 21.903614991867897 5.2991209860872308 #
point $-1 -41.396815914267009 24.511690243409475 5.2991209860872308 #
straight-curve $-1 46.556596575823235 -3.7824102773132307 68.132412606229195 0 0 -1 I I #
point $-1 46.556596575823235 -3.7824102773132307 9.377388530150073 #
straight-curve $-1 46.556596575823235 0.30555084451149028 4.6631016508641636 0 1 0 I I #
point $-1 46.556596575823242 -3.7824102773132307 4.6631016508641565 #
point $-1 40.743176583348919 0.61110168902298057 3.496770612981928 #
straight-curve $-1 -46.556596575823235 -38.184499795148128 -6.5994870669215899 0 0 -1 I I #
straight-curve $-1 46.556596575823235 -38.184499795148128 -6.5994870669215899 0 0 -1 I I #
straight-curve $-1 -46.556596575823235 26.250407077770532 0 0 0 -1 I I #
End-of-ACIS-data 