500 0 4 0           
7 Unknown 11 ACIS 5.0 NT 24 Thu Mar 25 22:35:22 1999 
-1 9.9999999999999995e-007 1e-010 
body $-1 $4 $-1 $5 #
body $-1 $6 $-1 $7 #
body $-1 $8 $-1 $9 #
body $-1 $10 $-1 $11 #
lump $-1 $-1 $12 $0 #
transform $-1 1 0 0 0 1 0 0 0 1 52.50404370250557 28.667877641842939 13.353874837816745 1 rotate no_reflect no_shear #
lump $-1 $-1 $13 $1 #
transform $-1 1 0 0 0 1 0 0 0 1 52.50404370250557 28.667877641842939 13.353874837816745 1 rotate no_reflect no_shear #
lump $-1 $-1 $14 $2 #
transform $-1 1 0 0 0 1 0 0 0 1 52.50404370250557 28.667877641842939 13.353874837816745 1 rotate no_reflect no_shear #
lump $-1 $-1 $15 $3 #
transform $-1 1 0 0 0 1 0 0 0 1 52.50404370250557 28.667877641842939 13.353874837816745 1 rotate no_reflect no_shear #
shell $-1 $-1 $-1 $16 $-1 $4 #
shell $-1 $-1 $-1 $17 $-1 $6 #
shell $-1 $-1 $-1 $18 $-1 $8 #
shell $-1 $-1 $-1 $19 $-1 $10 #
face $-1 $20 $21 $12 $-1 $22 forward single #
face $-1 $23 $24 $13 $-1 $25 forward single #
face $-1 $26 $27 $14 $-1 $28 forward single #
face $-1 $29 $30 $15 $-1 $31 reversed single #
face $-1 $32 $33 $12 $-1 $34 reversed single #
loop $-1 $-1 $35 $16 #
plane-surface $-1 0 0 13.353874837816745 0 0 1 1 0 0 forward_v I I I I #
face $-1 $36 $37 $13 $-1 $38 forward single #
loop $-1 $-1 $39 $17 #
plane-surface $-1 0 -23.492094746429427 10.353874837816745 0 0 1 1 0 0 forward_v I I I I #
face $-1 $40 $41 $14 $-1 $42 forward single #
loop $-1 $-1 $43 $18 #
plane-surface $-1 14.068417218996828 11.084751854464901 147.56889721643279 0 -1 0 -0.50000000669873634 0 -0.8660253999169214 forward_v I I I I #
face $-1 $44 $45 $15 $-1 $46 reversed single #
loop $-1 $47 $48 $19 #
cone-surface $-1 42.771672198285337 4.7497540765410626 5.7256056376748976 -0.50000000669873634 0 -0.8660253999169214 2.1650634997923035 0 -1.2500000167468408 1 I I 0 1 2.5 forward I I I I #
face $-1 $49 $50 $12 $-1 $51 reversed single #
loop $-1 $-1 $52 $20 #
plane-surface $-1 0 0 -13.353874837816745 0 0 1 1 0 0 forward_v I I I I #
coedge $-1 $53 $54 $55 $56 forward $21 $-1 #
face $-1 $57 $58 $13 $-1 $59 forward single #
loop $-1 $-1 $60 $23 #
plane-surface $-1 0 -18.316311851015914 11.853874837816745 0 -1 0 0 0 -1 forward_v I I I I #
coedge $-1 $61 $62 $63 $64 reversed $24 $-1 #
face $-1 $65 $66 $14 $-1 $67 forward single #
loop $-1 $-1 $68 $26 #
plane-surface $-1 -38.435627186930233 4.7497540765410626 56.629226326996985 0.50000000669873634 0 0.8660253999169214 0.8660253999169214 0 -0.50000000669873634 forward_v I I I I #
coedge $-1 $69 $70 $71 $72 reversed $27 $-1 #
face $-1 $73 $74 $15 $-1 $75 forward single #
loop $-1 $76 $77 $29 #
cone-surface $-1 40.406583052551454 4.7497540765410626 1.629151146010317 -0.50000000669873634 0 -0.8660253999169214 1.0825317498961518 0 -0.6250000083734204 1 I I -0.70710678118654746 0.70710678118654746 1.25 forward I I I I #
loop $-1 $-1 $78 $19 #
coedge $-1 $48 $48 $79 $80 reversed $30 $-1 #
face $-1 $81 $82 $12 $-1 $83 reversed single #
loop $-1 $-1 $84 $32 #
plane-surface $-1 0 -28.667877641842939 0 0 1 0 0 0 1 forward_v I I I I #
coedge $-1 $85 $86 $87 $88 forward $33 $-1 #
coedge $-1 $89 $35 $90 $91 forward $21 $-1 #
coedge $-1 $35 $89 $92 $93 forward $21 $-1 #
coedge $-1 $94 $95 $35 $56 reversed $96 $-1 #
edge $-1 $97 -28.667877641842939 $98 28.667877641842939 $55 $99 forward 7 unknown #
face $-1 $100 $101 $13 $-1 $102 reversed single #
loop $-1 $-1 $103 $36 #
plane-surface $-1 0 0 13.353874837816745 0 0 1 1 0 0 forward_v I I I I #
coedge $-1 $104 $105 $106 $107 reversed $37 $-1 #
coedge $-1 $108 $39 $105 $109 reversed $24 $-1 #
coedge $-1 $39 $108 $110 $111 reversed $24 $-1 #
coedge $-1 $112 $106 $39 $64 forward $101 $-1 #
edge $-1 $113 6.5702644778012012 $114 16.921830268628227 $63 $115 forward 7 unknown #
face $-1 $116 $117 $14 $-1 $118 forward single #
loop $-1 $-1 $119 $40 #
plane-surface $-1 14.068417218996828 -1.585243701382776 147.56889721643279 0 1 0 0.50000000669873634 0 0.8660253999169214 forward_v I I I I #
coedge $-1 $120 $121 $122 $123 reversed $41 $-1 #
coedge $-1 $70 $43 $121 $124 forward $27 $-1 #
coedge $-1 $43 $69 $125 $126 reversed $27 $-1 #
coedge $-1 $127 $122 $43 $72 forward $117 $-1 #
edge $-1 $128 29.485270359287675 $129 45.469835093007156 $71 $130 forward 7 unknown #
face $-1 $131 $132 $15 $-1 $133 forward single #
loop $-1 $-1 $134 $44 #
plane-surface $-1 14.068417218996828 11.084751854464901 147.56889721643279 0 -1 0 -0.50000000669873634 0 -0.8660253999169214 forward_v I I I I #
loop $-1 $-1 $135 $29 #
coedge $-1 $77 $77 $78 $136 forward $45 $-1 #
coedge $-1 $78 $78 $77 $136 reversed $47 $-1 #
coedge $-1 $79 $79 $48 $80 forward $132 $-1 #
edge $-1 $137 0 $137 6.2831853071796004 $79 $138 forward 7 unknown #
face $-1 $139 $140 $12 $-1 $141 reversed single #
loop $-1 $-1 $142 $49 #
plane-surface $-1 -52.50404370250557 0 0 1 0 0 0 0 -1 forward_v I I I I #
coedge $-1 $143 $92 $144 $145 forward $50 $-1 #
coedge $-1 $146 $52 $143 $147 forward $33 $-1 #
coedge $-1 $52 $146 $148 $149 forward $33 $-1 #
coedge $-1 $95 $94 $52 $88 reversed $96 $-1 #
edge $-1 $150 -28.667877641842939 $151 28.667877641842939 $87 $152 forward 7 unknown #
coedge $-1 $54 $53 $153 $154 forward $21 $-1 #
coedge $-1 $155 $156 $53 $91 reversed $140 $-1 #
edge $-1 $98 -52.50404370250557 $157 52.50404370250557 $90 $158 forward 7 unknown #
coedge $-1 $84 $159 $54 $93 reversed $50 $-1 #
edge $-1 $160 -52.50404370250557 $97 52.50404370250557 $92 $161 forward 7 unknown #
coedge $-1 $87 $55 $159 $162 forward $96 $-1 #
coedge $-1 $55 $87 $155 $163 reversed $96 $-1 #
loop $-1 $-1 $94 $139 #
vertex $-1 $56 $164 #
vertex $-1 $56 $165 #
straight-curve $-1 52.50404370250557 0 13.353874837816745 0 1 0 I I #
face $-1 $166 $167 $13 $-1 $168 reversed single #
loop $-1 $-1 $106 $57 #
plane-surface $-1 52.50404370250557 0 0 -1 0 0 0 0 1 forward_v I I I I #
coedge $-1 $169 $170 $104 $171 forward $58 $-1 #
coedge $-1 $172 $60 $103 $171 reversed $37 $-1 #
coedge $-1 $60 $172 $61 $109 forward $37 $-1 #
coedge $-1 $63 $173 $60 $107 forward $101 $-1 #
edge $-1 $174 -7.4269374189083726 $113 -4.4269374189083726 $106 $175 forward 7 unknown #
coedge $-1 $62 $61 $176 $177 reversed $24 $-1 #
edge $-1 $178 -52.50404370250557 $113 52.50404370250557 $105 $179 forward 7 unknown #
coedge $-1 $180 $181 $62 $111 forward $182 $-1 #
edge $-1 $114 -52.50404370250557 $183 52.50404370250557 $110 $184 forward 7 unknown #
coedge $-1 $185 $63 $181 $186 forward $101 $-1 #
vertex $-1 $64 $187 #
vertex $-1 $186 $188 #
straight-curve $-1 52.50404370250557 -11.746047373214713 10.353874837816745 0 -1 0 I I #
face $-1 $189 $190 $14 $-1 $191 forward single #
loop $-1 $-1 $192 $65 #
plane-surface $-1 0 0 13.353874837816745 0 0 1 1 0 0 forward_v I I I I #
coedge $-1 $193 $194 $192 $195 reversed $66 $-1 #
coedge $-1 $196 $68 $194 $197 reversed $41 $-1 #
coedge $-1 $68 $196 $69 $124 reversed $41 $-1 #
coedge $-1 $71 $192 $68 $123 forward $117 $-1 #
edge $-1 $198 -3.9601207396533074 $128 8.70987481619437 $122 $199 forward 7 unknown #
edge $-1 $128 86.550701818799823 $200 105.00808740501114 $69 $201 forward 7 unknown #
coedge $-1 $202 $203 $70 $126 forward $204 $-1 #
edge $-1 $129 60.430573770399647 $200 69.65926668714647 $125 $205 forward 7 unknown #
coedge $-1 $206 $71 $203 $207 forward $117 $-1 #
vertex $-1 $123 $208 #
vertex $-1 $207 $209 #
straight-curve $-1 7.034208609498414 11.084751854464901 13.353874837816747 1 0 0 I I #
face $-1 $210 $211 $15 $-1 $212 forward single #
loop $-1 $213 $79 $73 #
plane-surface $-1 -38.435627186930233 4.7497540765410626 56.629226326996985 0.50000000669873634 0 0.8660253999169214 0.8660253999169214 0 -0.50000000669873634 forward_v I I I I #
coedge $-1 $214 $215 $216 $217 reversed $74 $-1 #
coedge $-1 $135 $135 $-1 $218 forward $76 $-1 #
edge $-1 $219 0 $219 6.2831853071796004 $77 $220 forward 7 unknown #
vertex $-1 $80 $221 #
ellipse-curve $-1 44.511761335645815 4.7497540765410626 8.739528379443346 -0.50000000669873634 0 -0.8660253999169214 2.1650634997923035 0 -1.2500000167468408 1 I I #
face $-1 $-1 $96 $12 $-1 $222 reversed single #
loop $-1 $-1 $155 $81 #
plane-surface $-1 0 28.667877641842939 0 0 -1 0 0 0 -1 forward_v I I I I #
coedge $-1 $223 $153 $156 $224 forward $82 $-1 #
coedge $-1 $159 $84 $85 $147 reversed $50 $-1 #
coedge $-1 $153 $223 $84 $145 reversed $82 $-1 #
edge $-1 $160 -13.353874837816745 $225 13.353874837816745 $144 $226 forward 7 unknown #
coedge $-1 $86 $85 $223 $227 forward $33 $-1 #
edge $-1 $151 -52.50404370250557 $225 52.50404370250557 $143 $228 forward 7 unknown #
coedge $-1 $156 $155 $86 $149 reversed $140 $-1 #
edge $-1 $229 -52.50404370250557 $150 52.50404370250557 $148 $230 forward 7 unknown #
vertex $-1 $88 $231 #
vertex $-1 $162 $232 #
straight-curve $-1 52.50404370250557 0 -13.353874837816745 0 -1 0 I I #
coedge $-1 $142 $144 $89 $154 reversed $82 $-1 #
edge $-1 $157 -28.667877641842939 $160 28.667877641842939 $153 $233 forward 7 unknown #
coedge $-1 $148 $90 $95 $163 forward $140 $-1 #
coedge $-1 $90 $148 $142 $224 reversed $140 $-1 #
vertex $-1 $91 $234 #
straight-curve $-1 0 28.667877641842939 13.353874837816745 -1 0 0 I I #
coedge $-1 $92 $143 $94 $162 reversed $50 $-1 #
vertex $-1 $154 $235 #
straight-curve $-1 0 -28.667877641842939 13.353874837816745 1 0 0 I I #
edge $-1 $97 -13.353874837816745 $151 13.353874837816745 $94 $236 forward 7 unknown #
edge $-1 $98 -13.353874837816745 $150 13.353874837816745 $95 $237 forward 7 unknown #
point $-1 52.50404370250557 -28.667877641842939 13.353874837816745 #
point $-1 52.50404370250557 28.667877641842939 13.353874837816745 #
face $-1 $238 $182 $13 $-1 $239 reversed single #
loop $-1 $-1 $240 $100 #
plane-surface $-1 0 0 -13.353874837816745 0 0 1 1 0 0 forward_v I I I I #
coedge $-1 $241 $103 $173 $242 forward $58 $-1 #
coedge $-1 $103 $241 $243 $244 forward $58 $-1 #
edge $-1 $245 -52.50404370250557 $174 52.50404370250557 $103 $246 forward 7 unknown #
coedge $-1 $105 $104 $247 $248 reversed $37 $-1 #
coedge $-1 $106 $249 $169 $242 reversed $101 $-1 #
vertex $-1 $242 $250 #
straight-curve $-1 52.50404370250557 -18.316311851015914 5.9269374189083726 0 0 -1 I I #
coedge $-1 $247 $251 $108 $177 forward $252 $-1 #
edge $-1 $183 -16.921830268628227 $178 -6.5702644778012012 $176 $253 forward 7 unknown #
vertex $-1 $177 $254 #
straight-curve $-1 0 -18.316311851015914 10.353874837816745 1 0 0 I I #
coedge $-1 $255 $110 $251 $256 forward $182 $-1 #
coedge $-1 $110 $255 $112 $186 reversed $182 $-1 #
loop $-1 $-1 $110 $166 #
vertex $-1 $256 $257 #
straight-curve $-1 0 -28.667877641842939 10.353874837816745 -1 0 0 I I #
coedge $-1 $249 $112 $240 $258 reversed $101 $-1 #
edge $-1 $114 -10.353874837816745 $259 13.353874837816745 $112 $260 forward 7 unknown #
point $-1 52.50404370250557 -18.316311851015914 10.353874837816745 #
point $-1 52.50404370250557 -28.667877641842939 10.353874837816745 #
face $-1 $261 $262 $14 $-1 $263 forward single #
loop $-1 $-1 $264 $116 #
plane-surface $-1 0 -23.492094746429427 10.353874837816745 0 0 1 1 0 0 forward_v I I I I #
coedge $-1 $122 $265 $119 $195 forward $117 $-1 #
coedge $-1 $194 $119 $266 $267 reversed $66 $-1 #
coedge $-1 $119 $193 $120 $197 forward $66 $-1 #
edge $-1 $268 -45.469835093007156 $198 -29.485270359287675 $192 $269 forward 7 unknown #
coedge $-1 $121 $120 $202 $270 reversed $41 $-1 #
edge $-1 $271 -105.00808740501114 $198 -86.550701818799823 $194 $272 forward 7 unknown #
vertex $-1 $123 $273 #
straight-curve $-1 36.519478968786082 2.3748770382705313 13.35387483781675 0 1 0 I I #
vertex $-1 $270 $274 #
straight-curve $-1 -38.435627186930233 11.084751854464901 56.629226326996985 0.8660253999169214 0 -0.50000000669873634 I I #
coedge $-1 $266 $125 $196 $270 forward $204 $-1 #
coedge $-1 $125 $275 $127 $207 reversed $204 $-1 #
loop $-1 $-1 $266 $261 #
straight-curve $-1 52.50404370250557 11.084751854464901 73.784448608216394 0 0 -1 I I #
coedge $-1 $276 $127 $277 $278 forward $117 $-1 #
edge $-1 $129 11.084751854464901 $279 28.667877641842939 $203 $280 forward 7 unknown #
point $-1 36.519478968786089 11.084751854464901 13.353874837816747 #
point $-1 52.50404370250557 11.084751854464901 13.353874837816745 #
face $-1 $281 $282 $15 $-1 $283 forward single #
loop $-1 $-1 $284 $131 #
plane-surface $-1 14.068417218996828 -1.585243701382776 147.56889721643279 0 1 0 0.50000000669873634 0 0.8660253999169214 forward_v I I I I #
loop $-1 $-1 $285 $73 #
coedge $-1 $215 $134 $286 $287 forward $74 $-1 #
coedge $-1 $134 $214 $288 $289 reversed $74 $-1 #
coedge $-1 $290 $291 $134 $217 forward $282 $-1 #
edge $-1 $292 29.485270359287675 $293 45.469835093007156 $216 $294 forward 7 unknown #
edge $-1 $295 1 $295 0 $135 $-1 forward 7 unknown #
vertex $-1 $136 $296 #
ellipse-curve $-1 41.031583060924874 4.7497540765410626 2.7116828959064687 0.50000000669873634 0 0.8660253999169214 2.1650634997923035 0 -1.2500000167468408 1 I I #
point $-1 46.676824835438111 4.7497540765410626 7.4895283626964844 #
plane-surface $-1 52.50404370250557 0 0 -1 0 0 0 0 1 forward_v I I I I #
coedge $-1 $144 $142 $146 $227 reversed $82 $-1 #
edge $-1 $157 -13.353874837816745 $229 13.353874837816745 $156 $297 forward 7 unknown #
vertex $-1 $227 $298 #
straight-curve $-1 -52.50404370250557 -28.667877641842939 0 0 0 -1 I I #
edge $-1 $225 -28.667877641842939 $229 28.667877641842939 $223 $299 forward 7 unknown #
straight-curve $-1 0 -28.667877641842939 -13.353874837816745 -1 0 0 I I #
vertex $-1 $149 $300 #
straight-curve $-1 0 28.667877641842939 -13.353874837816745 1 0 0 I I #
point $-1 52.50404370250557 28.667877641842939 -13.353874837816745 #
point $-1 52.50404370250557 -28.667877641842939 -13.353874837816745 #
straight-curve $-1 -52.50404370250557 0 13.353874837816745 0 -1 0 I I #
point $-1 -52.50404370250557 28.667877641842939 13.353874837816745 #
point $-1 -52.50404370250557 -28.667877641842939 13.353874837816745 #
straight-curve $-1 52.50404370250557 -28.667877641842939 0 0 0 -1 I I #
straight-curve $-1 52.50404370250557 28.667877641842939 0 0 0 -1 I I #
face $-1 $301 $252 $13 $-1 $302 reversed single #
plane-surface $-1 0 -28.667877641842939 0 0 1 0 0 0 1 forward_v I I I I #
coedge $-1 $303 $304 $185 $258 forward $167 $-1 #
coedge $-1 $170 $169 $305 $306 forward $58 $-1 #
edge $-1 $174 -18.316311851015914 $307 28.667877641842939 $173 $308 forward 7 unknown #
coedge $-1 $309 $247 $170 $244 reversed $252 $-1 #
edge $-1 $310 -28.667877641842939 $245 18.316311851015914 $243 $311 forward 7 unknown #
vertex $-1 $248 $312 #
straight-curve $-1 0 -18.316311851015914 13.353874837816745 1 0 0 I I #
coedge $-1 $243 $176 $172 $248 forward $252 $-1 #
edge $-1 $178 4.4269374189083726 $245 7.4269374189083726 $247 $313 forward 7 unknown #
coedge $-1 $173 $185 $314 $315 reversed $101 $-1 #
point $-1 52.50404370250557 -18.316311851015914 13.353874837816745 #
coedge $-1 $176 $316 $180 $256 reversed $252 $-1 #
loop $-1 $-1 $247 $238 #
straight-curve $-1 -52.50404370250557 -11.746047373214713 10.353874837816745 0 1 0 I I #
point $-1 -52.50404370250557 -18.316311851015914 10.353874837816745 #
coedge $-1 $181 $180 $303 $317 reversed $182 $-1 #
edge $-1 $183 -10.353874837816745 $318 13.353874837816745 $251 $319 forward 7 unknown #
point $-1 -52.50404370250557 -28.667877641842939 10.353874837816745 #
edge $-1 $320 -28.667877641842939 $259 28.667877641842939 $185 $321 forward 7 unknown #
vertex $-1 $186 $322 #
straight-curve $-1 52.50404370250557 -28.667877641842939 0 0 0 -1 I I #
face $-1 $323 $204 $14 $-1 $324 reversed single #
loop $-1 $-1 $325 $189 #
plane-surface $-1 0 -18.316311851015914 11.853874837816745 0 -1 0 0 0 -1 forward_v I I I I #
coedge $-1 $326 $327 $328 $329 reversed $190 $-1 #
coedge $-1 $192 $330 $331 $332 forward $117 $-1 #
coedge $-1 $331 $202 $193 $267 forward $204 $-1 #
edge $-1 $271 -69.65926668714647 $268 -60.430573770399647 $266 $333 forward 7 unknown #
vertex $-1 $267 $334 #
straight-curve $-1 7.034208609498414 -1.585243701382776 13.353874837816747 -1 0 0 I I #
edge $-1 $200 -8.70987481619437 $271 3.9601207396533074 $202 $335 forward 7 unknown #
vertex $-1 $270 $336 #
straight-curve $-1 -38.435627186930233 -1.585243701382776 56.629226326996985 -0.8660253999169214 0 0.50000000669873634 I I #
point $-1 36.519478968786089 -1.585243701382776 13.353874837816747 #
point $-1 52.50404370250557 11.084751854464901 4.1251819210699239 #
coedge $-1 $203 $337 $338 $339 reversed $204 $-1 #
coedge $-1 $330 $206 $340 $341 forward $117 $-1 #
coedge $-1 $338 $342 $206 $278 reversed $343 $-1 #
edge $-1 $279 -52.50404370250557 $344 52.50404370250557 $277 $345 forward 7 unknown #
vertex $-1 $207 $346 #
straight-curve $-1 52.50404370250557 0 13.353874837816745 0 1 0 I I #
face $-1 $347 $348 $15 $-1 $349 forward single #
loop $-1 $-1 $350 $210 #
plane-surface $-1 0 0 13.353874837816745 0 0 1 1 0 0 forward_v I I I I #
coedge $-1 $351 $352 $350 $353 reversed $211 $-1 #
coedge $-1 $354 $286 $291 $355 reversed $213 $-1 #
coedge $-1 $285 $356 $214 $287 reversed $213 $-1 #
edge $-1 $292 86.550701818799823 $357 105.00808740501114 $214 $358 forward 7 unknown #
coedge $-1 $359 $360 $215 $289 forward $361 $-1 #
edge $-1 $293 60.430573770399647 $357 69.65926668714647 $288 $362 forward 7 unknown #
coedge $-1 $363 $216 $360 $364 forward $282 $-1 #
coedge $-1 $216 $350 $285 $355 forward $282 $-1 #
vertex $-1 $355 $365 #
vertex $-1 $364 $366 #
straight-curve $-1 7.034208609498414 11.084751854464901 13.353874837816747 1 0 0 I I #
vertex $-1 $218 $367 #
point $-1 43.196646560717177 4.7497540765410626 1.4616828791596279 #
straight-curve $-1 -52.50404370250557 28.667877641842939 0 0 0 -1 I I #
point $-1 -52.50404370250557 -28.667877641842939 -13.353874837816745 #
straight-curve $-1 -52.50404370250557 0 -13.353874837816745 0 1 0 I I #
point $-1 -52.50404370250557 28.667877641842939 -13.353874837816745 #
face $-1 $-1 $368 $13 $-1 $369 reversed single #
plane-surface $-1 -52.50404370250557 0 0 1 0 0 0 0 -1 forward_v I I I I #
coedge $-1 $370 $240 $255 $317 forward $167 $-1 #
coedge $-1 $240 $370 $371 $372 forward $167 $-1 #
coedge $-1 $314 $373 $241 $306 reversed $368 $-1 #
edge $-1 $307 -52.50404370250557 $310 52.50404370250557 $305 $374 forward 7 unknown #
vertex $-1 $242 $375 #
straight-curve $-1 52.50404370250557 0 13.353874837816745 0 1 0 I I #
coedge $-1 $316 $243 $373 $376 forward $252 $-1 #
vertex $-1 $306 $377 #
straight-curve $-1 -52.50404370250557 0 13.353874837816745 0 -1 0 I I #
point $-1 -52.50404370250557 -18.316311851015914 13.353874837816745 #
straight-curve $-1 -52.50404370250557 -18.316311851015914 5.9269374189083726 0 0 1 I I #
coedge $-1 $371 $305 $249 $315 forward $368 $-1 #
edge $-1 $307 -13.353874837816745 $320 13.353874837816745 $249 $378 forward 7 unknown #
coedge $-1 $251 $309 $370 $379 reversed $252 $-1 #
edge $-1 $259 -52.50404370250557 $318 52.50404370250557 $255 $380 forward 7 unknown #
vertex $-1 $379 $381 #
straight-curve $-1 -52.50404370250557 -28.667877641842939 0 0 0 -1 I I #
vertex $-1 $258 $382 #
straight-curve $-1 52.50404370250557 0 -13.353874837816745 0 -1 0 I I #
point $-1 52.50404370250557 -28.667877641842939 -13.353874837816745 #
face $-1 $383 $384 $14 $-1 $385 reversed single #
plane-surface $-1 52.50404370250557 0 0 -1 0 0 0 0 1 forward_v I I I I #
coedge $-1 $386 $387 $388 $389 reversed $262 $-1 #
coedge $-1 $390 $264 $387 $391 reversed $190 $-1 #
coedge $-1 $264 $390 $392 $393 reversed $190 $-1 #
coedge $-1 $394 $388 $264 $329 forward $204 $-1 #
edge $-1 $395 6.5702644778012012 $396 16.921830268628227 $328 $397 forward 7 unknown #
coedge $-1 $265 $276 $386 $398 forward $117 $-1 #
coedge $-1 $388 $266 $265 $332 reversed $204 $-1 #
edge $-1 $399 -18.316311851015914 $268 -1.585243701382776 $331 $280 forward 7 unknown #
straight-curve $-1 52.50404370250557 -1.585243701382776 73.784448608216394 0 0 1 I I #
point $-1 52.50404370250557 -1.585243701382776 13.353874837816745 #
straight-curve $-1 52.50404370250557 2.3748770382705313 4.125181921069931 0 -1 0 I I #
point $-1 52.50404370250557 -1.585243701382776 4.1251819210699239 #
coedge $-1 $275 $394 $400 $401 reversed $204 $-1 #
coedge $-1 $402 $277 $275 $339 forward $343 $-1 #
edge $-1 $279 -13.353874837816745 $403 13.353874837816745 $275 $404 forward 7 unknown #
coedge $-1 $405 $406 $276 $341 reversed $407 $-1 #
edge $-1 $344 -28.667877641842939 $408 18.316311851015914 $340 $409 forward 7 unknown #
coedge $-1 $277 $402 $405 $410 reversed $343 $-1 #
loop $-1 $-1 $338 $411 #
vertex $-1 $278 $412 #
straight-curve $-1 0 28.667877641842939 13.353874837816745 -1 0 0 I I #
point $-1 52.50404370250557 28.667877641842939 13.353874837816745 #
face $-1 $413 $414 $15 $-1 $415 forward single #
loop $-1 $-1 $416 $281 #
plane-surface $-1 0 -23.492094746429427 10.353874837816745 0 0 1 1 0 0 forward_v I I I I #
coedge $-1 $291 $417 $284 $353 forward $282 $-1 #
coedge $-1 $352 $284 $418 $419 reversed $211 $-1 #
coedge $-1 $284 $351 $354 $420 forward $211 $-1 #
edge $-1 $421 -45.469835093007156 $422 -29.485270359287675 $350 $423 forward 7 unknown #
coedge $-1 $356 $285 $352 $420 reversed $213 $-1 #
edge $-1 $422 -3.9601207396533074 $292 8.70987481619437 $291 $424 forward 7 unknown #
coedge $-1 $286 $354 $359 $425 reversed $213 $-1 #
vertex $-1 $425 $426 #
straight-curve $-1 -38.435627186930233 11.084751854464901 56.629226326996985 0.8660253999169214 0 -0.50000000669873634 I I #
coedge $-1 $418 $288 $356 $425 forward $361 $-1 #
coedge $-1 $288 $427 $290 $364 reversed $361 $-1 #
loop $-1 $-1 $418 $413 #
straight-curve $-1 52.50404370250557 11.084751854464901 73.784448608216394 0 0 -1 I I #
coedge $-1 $428 $290 $429 $430 forward $282 $-1 #
edge $-1 $293 11.084751854464901 $431 28.667877641842939 $360 $432 forward 7 unknown #
point $-1 36.519478968786089 11.084751854464901 13.353874837816747 #
point $-1 52.50404370250557 11.084751854464901 13.353874837816745 #
point $-1 39.781583044178035 4.7497540765410626 0.54661939611416521 #
loop $-1 $-1 $314 $301 #
plane-surface $-1 0 28.667877641842939 0 0 -1 0 0 0 -1 forward_v I I I I #
coedge $-1 $304 $303 $316 $379 forward $167 $-1 #
coedge $-1 $373 $314 $304 $372 reversed $368 $-1 #
edge $-1 $433 -52.50404370250557 $320 52.50404370250557 $371 $434 forward 7 unknown #
coedge $-1 $305 $371 $309 $376 reversed $368 $-1 #
straight-curve $-1 0 28.667877641842939 13.353874837816745 -1 0 0 I I #
point $-1 52.50404370250557 28.667877641842939 13.353874837816745 #
edge $-1 $310 -13.353874837816745 $433 13.353874837816745 $373 $435 forward 7 unknown #
point $-1 -52.50404370250557 28.667877641842939 13.353874837816745 #
straight-curve $-1 52.50404370250557 28.667877641842939 0 0 0 -1 I I #
edge $-1 $318 -28.667877641842939 $433 28.667877641842939 $316 $436 forward 7 unknown #
straight-curve $-1 0 -28.667877641842939 -13.353874837816745 -1 0 0 I I #
point $-1 -52.50404370250557 -28.667877641842939 -13.353874837816745 #
point $-1 52.50404370250557 28.667877641842939 -13.353874837816745 #
face $-1 $437 $438 $14 $-1 $439 reversed single #
loop $-1 $-1 $400 $323 #
plane-surface $-1 0 0 -13.353874837816745 0 0 1 1 0 0 forward_v I I I I #
coedge $-1 $440 $325 $330 $398 reversed $262 $-1 #
coedge $-1 $325 $440 $326 $391 forward $262 $-1 #
coedge $-1 $328 $331 $325 $389 forward $204 $-1 #
edge $-1 $399 -7.4269374189083726 $395 -4.4269374189083726 $388 $441 forward 7 unknown #
coedge $-1 $327 $326 $442 $443 reversed $190 $-1 #
edge $-1 $444 -52.50404370250557 $395 52.50404370250557 $387 $445 forward 7 unknown #
coedge $-1 $446 $447 $327 $393 forward $438 $-1 #
edge $-1 $396 -52.50404370250557 $448 52.50404370250557 $392 $449 forward 7 unknown #
coedge $-1 $337 $328 $447 $450 forward $204 $-1 #
vertex $-1 $329 $451 #
vertex $-1 $450 $452 #
straight-curve $-1 52.50404370250557 -11.746047373214713 10.353874837816745 0 -1 0 I I #
edge $-1 $408 -52.50404370250557 $399 52.50404370250557 $330 $453 forward 7 unknown #
vertex $-1 $332 $454 #
coedge $-1 $455 $456 $337 $401 forward $384 $-1 #
edge $-1 $403 -28.667877641842939 $457 28.667877641842939 $337 $458 forward 7 unknown #
coedge $-1 $342 $338 $456 $459 reversed $343 $-1 #
vertex $-1 $401 $460 #
straight-curve $-1 52.50404370250557 28.667877641842939 0 0 0 -1 I I #
coedge $-1 $461 $340 $342 $410 forward $407 $-1 #
coedge $-1 $340 $442 $440 $462 forward $407 $-1 #
loop $-1 $-1 $406 $437 #
vertex $-1 $462 $463 #
straight-curve $-1 -52.50404370250557 0 13.353874837816745 0 -1 0 I I #
edge $-1 $344 -13.353874837816745 $464 13.353874837816745 $342 $465 forward 7 unknown #
face $-1 $-1 $343 $14 $-1 $466 reversed single #
point $-1 -52.50404370250557 28.667877641842939 13.353874837816745 #
face $-1 $467 $361 $15 $-1 $468 reversed single #
loop $-1 $-1 $469 $347 #
plane-surface $-1 0 -18.316311851015914 11.853874837816745 0 -1 0 0 0 -1 forward_v I I I I #
coedge $-1 $470 $471 $472 $473 reversed $348 $-1 #
coedge $-1 $350 $474 $475 $476 forward $282 $-1 #
coedge $-1 $475 $359 $351 $419 forward $361 $-1 #
edge $-1 $477 -69.65926668714647 $421 -60.430573770399647 $418 $478 forward 7 unknown #
edge $-1 $477 -105.00808740501114 $422 -86.550701818799823 $352 $479 forward 7 unknown #
vertex $-1 $419 $480 #
vertex $-1 $355 $481 #
straight-curve $-1 7.034208609498414 -1.585243701382776 13.353874837816747 -1 0 0 I I #
straight-curve $-1 36.519478968786082 2.3748770382705313 13.35387483781675 0 1 0 I I #
edge $-1 $357 -8.70987481619437 $477 3.9601207396533074 $359 $482 forward 7 unknown #
point $-1 52.50404370250557 11.084751854464901 4.1251819210699239 #
coedge $-1 $360 $483 $484 $485 reversed $361 $-1 #
coedge $-1 $474 $363 $486 $487 forward $282 $-1 #
coedge $-1 $484 $488 $363 $430 reversed $489 $-1 #
edge $-1 $431 -52.50404370250557 $490 52.50404370250557 $429 $491 forward 7 unknown #
vertex $-1 $364 $492 #
straight-curve $-1 52.50404370250557 0 13.353874837816745 0 1 0 I I #
vertex $-1 $372 $493 #
straight-curve $-1 0 28.667877641842939 -13.353874837816745 1 0 0 I I #
straight-curve $-1 -52.50404370250557 28.667877641842939 0 0 0 -1 I I #
straight-curve $-1 -52.50404370250557 0 -13.353874837816745 0 1 0 I I #
face $-1 $411 $407 $14 $-1 $494 reversed single #
loop $-1 $-1 $392 $383 #
plane-surface $-1 0 -28.667877641842939 0 0 1 0 0 0 1 forward_v I I I I #
coedge $-1 $387 $386 $406 $462 reversed $262 $-1 #
straight-curve $-1 52.50404370250557 -18.316311851015914 5.9269374189083726 0 0 -1 I I #
coedge $-1 $406 $495 $390 $443 forward $407 $-1 #
edge $-1 $448 -16.921830268628227 $444 -6.5702644778012012 $442 $496 forward 7 unknown #
vertex $-1 $443 $497 #
straight-curve $-1 0 -18.316311851015914 10.353874837816745 1 0 0 I I #
coedge $-1 $498 $392 $495 $499 forward $438 $-1 #
coedge $-1 $392 $498 $394 $450 reversed $438 $-1 #
vertex $-1 $499 $500 #
straight-curve $-1 0 -28.667877641842939 10.353874837816745 -1 0 0 I I #
edge $-1 $396 -10.353874837816745 $457 13.353874837816745 $394 $501 forward 7 unknown #
point $-1 52.50404370250557 -18.316311851015914 10.353874837816745 #
point $-1 52.50404370250557 -28.667877641842939 10.353874837816745 #
straight-curve $-1 0 -18.316311851015914 13.353874837816745 1 0 0 I I #
point $-1 52.50404370250557 -18.316311851015914 13.353874837816745 #
coedge $-1 $502 $400 $498 $503 forward $384 $-1 #
coedge $-1 $400 $502 $402 $459 forward $384 $-1 #
vertex $-1 $450 $504 #
straight-curve $-1 52.50404370250557 0 -13.353874837816745 0 -1 0 I I #
edge $-1 $464 -52.50404370250557 $403 52.50404370250557 $402 $505 forward 7 unknown #
point $-1 52.50404370250557 28.667877641842939 -13.353874837816745 #
coedge $-1 $495 $405 $502 $506 reversed $407 $-1 #
edge $-1 $444 4.4269374189083726 $408 7.4269374189083726 $406 $507 forward 7 unknown #
point $-1 -52.50404370250557 -18.316311851015914 13.353874837816745 #
vertex $-1 $459 $508 #
straight-curve $-1 -52.50404370250557 28.667877641842939 0 0 0 -1 I I #
plane-surface $-1 0 28.667877641842939 0 0 -1 0 0 0 -1 forward_v I I I I #
face $-1 $509 $510 $15 $-1 $511 reversed single #
plane-surface $-1 52.50404370250557 0 0 -1 0 0 0 0 1 forward_v I I I I #
coedge $-1 $512 $513 $514 $515 reversed $414 $-1 #
coedge $-1 $516 $416 $513 $517 reversed $348 $-1 #
coedge $-1 $416 $516 $518 $519 reversed $348 $-1 #
coedge $-1 $520 $514 $416 $473 forward $361 $-1 #
edge $-1 $521 6.5702644778012012 $522 16.921830268628227 $472 $523 forward 7 unknown #
coedge $-1 $417 $428 $512 $524 forward $282 $-1 #
coedge $-1 $514 $418 $417 $476 reversed $361 $-1 #
edge $-1 $525 -18.316311851015914 $421 -1.585243701382776 $475 $432 forward 7 unknown #
vertex $-1 $425 $526 #
straight-curve $-1 52.50404370250557 -1.585243701382776 73.784448608216394 0 0 1 I I #
straight-curve $-1 -38.435627186930233 -1.585243701382776 56.629226326996985 -0.8660253999169214 0 0.50000000669873634 I I #
point $-1 52.50404370250557 -1.585243701382776 13.353874837816745 #
point $-1 36.519478968786089 -1.585243701382776 13.353874837816747 #
straight-curve $-1 52.50404370250557 2.3748770382705313 4.125181921069931 0 -1 0 I I #
coedge $-1 $427 $520 $527 $528 reversed $361 $-1 #
coedge $-1 $529 $429 $427 $485 forward $489 $-1 #
edge $-1 $431 -13.353874837816745 $530 13.353874837816745 $427 $531 forward 7 unknown #
coedge $-1 $532 $533 $428 $487 reversed $534 $-1 #
edge $-1 $490 -28.667877641842939 $535 18.316311851015914 $486 $536 forward 7 unknown #
coedge $-1 $429 $529 $532 $537 reversed $489 $-1 #
loop $-1 $-1 $484 $538 #
vertex $-1 $430 $539 #
straight-curve $-1 0 28.667877641842939 13.353874837816745 -1 0 0 I I #
point $-1 52.50404370250557 28.667877641842939 13.353874837816745 #
point $-1 -52.50404370250557 28.667877641842939 -13.353874837816745 #
plane-surface $-1 -52.50404370250557 0 0 1 0 0 0 0 -1 forward_v I I I I #
coedge $-1 $442 $461 $446 $499 reversed $407 $-1 #
straight-curve $-1 -52.50404370250557 -11.746047373214713 10.353874837816745 0 1 0 I I #
point $-1 -52.50404370250557 -18.316311851015914 10.353874837816745 #
coedge $-1 $447 $446 $455 $503 reversed $438 $-1 #
edge $-1 $448 -10.353874837816745 $540 13.353874837816745 $495 $541 forward 7 unknown #
point $-1 -52.50404370250557 -28.667877641842939 10.353874837816745 #
straight-curve $-1 52.50404370250557 -28.667877641842939 0 0 0 -1 I I #
coedge $-1 $456 $455 $461 $506 forward $384 $-1 #
edge $-1 $457 -52.50404370250557 $540 52.50404370250557 $498 $542 forward 7 unknown #
point $-1 52.50404370250557 -28.667877641842939 -13.353874837816745 #
straight-curve $-1 0 28.667877641842939 -13.353874837816745 1 0 0 I I #
edge $-1 $540 -28.667877641842939 $464 28.667877641842939 $461 $543 forward 7 unknown #
straight-curve $-1 -52.50404370250557 -18.316311851015914 5.9269374189083726 0 0 1 I I #
point $-1 -52.50404370250557 28.667877641842939 -13.353874837816745 #
face $-1 $544 $545 $15 $-1 $546 reversed single #
loop $-1 $-1 $527 $467 #
plane-surface $-1 0 0 -13.353874837816745 0 0 1 1 0 0 forward_v I I I I #
coedge $-1 $547 $469 $474 $524 reversed $414 $-1 #
coedge $-1 $469 $547 $470 $517 forward $414 $-1 #
coedge $-1 $472 $475 $469 $515 forward $361 $-1 #
edge $-1 $525 -7.4269374189083726 $521 -4.4269374189083726 $514 $548 forward 7 unknown #
coedge $-1 $471 $470 $549 $550 reversed $348 $-1 #
edge $-1 $551 -52.50404370250557 $521 52.50404370250557 $513 $552 forward 7 unknown #
coedge $-1 $553 $554 $471 $519 forward $545 $-1 #
edge $-1 $522 -52.50404370250557 $555 52.50404370250557 $518 $556 forward 7 unknown #
coedge $-1 $483 $472 $554 $557 forward $361 $-1 #
vertex $-1 $473 $558 #
vertex $-1 $557 $559 #
straight-curve $-1 52.50404370250557 -11.746047373214713 10.353874837816745 0 -1 0 I I #
edge $-1 $535 -52.50404370250557 $525 52.50404370250557 $474 $560 forward 7 unknown #
vertex $-1 $476 $561 #
point $-1 52.50404370250557 -1.585243701382776 4.1251819210699239 #
coedge $-1 $562 $563 $483 $528 forward $510 $-1 #
edge $-1 $530 -28.667877641842939 $564 28.667877641842939 $483 $565 forward 7 unknown #
coedge $-1 $488 $484 $563 $566 reversed $489 $-1 #
vertex $-1 $528 $567 #
straight-curve $-1 52.50404370250557 28.667877641842939 0 0 0 -1 I I #
coedge $-1 $568 $486 $488 $537 forward $534 $-1 #
coedge $-1 $486 $549 $547 $569 forward $534 $-1 #
loop $-1 $-1 $533 $544 #
vertex $-1 $569 $570 #
straight-curve $-1 -52.50404370250557 0 13.353874837816745 0 -1 0 I I #
edge $-1 $490 -13.353874837816745 $571 13.353874837816745 $488 $572 forward 7 unknown #
face $-1 $-1 $489 $15 $-1 $573 reversed single #
point $-1 -52.50404370250557 28.667877641842939 13.353874837816745 #
vertex $-1 $506 $574 #
straight-curve $-1 -52.50404370250557 -28.667877641842939 0 0 0 -1 I I #
straight-curve $-1 0 -28.667877641842939 -13.353874837816745 -1 0 0 I I #
straight-curve $-1 -52.50404370250557 0 -13.353874837816745 0 1 0 I I #
face $-1 $538 $534 $15 $-1 $575 reversed single #
loop $-1 $-1 $518 $509 #
plane-surface $-1 0 -28.667877641842939 0 0 1 0 0 0 1 forward_v I I I I #
coedge $-1 $513 $512 $533 $569 reversed $414 $-1 #
straight-curve $-1 52.50404370250557 -18.316311851015914 5.9269374189083726 0 0 -1 I I #
coedge $-1 $533 $576 $516 $550 forward $534 $-1 #
edge $-1 $555 -16.921830268628227 $551 -6.5702644778012012 $549 $577 forward 7 unknown #
vertex $-1 $550 $578 #
straight-curve $-1 0 -18.316311851015914 10.353874837816745 1 0 0 I I #
coedge $-1 $579 $518 $576 $580 forward $545 $-1 #
coedge $-1 $518 $579 $520 $557 reversed $545 $-1 #
vertex $-1 $580 $581 #
straight-curve $-1 0 -28.667877641842939 10.353874837816745 -1 0 0 I I #
edge $-1 $522 -10.353874837816745 $564 13.353874837816745 $520 $582 forward 7 unknown #
point $-1 52.50404370250557 -18.316311851015914 10.353874837816745 #
point $-1 52.50404370250557 -28.667877641842939 10.353874837816745 #
straight-curve $-1 0 -18.316311851015914 13.353874837816745 1 0 0 I I #
point $-1 52.50404370250557 -18.316311851015914 13.353874837816745 #
coedge $-1 $583 $527 $579 $584 forward $510 $-1 #
coedge $-1 $527 $583 $529 $566 forward $510 $-1 #
vertex $-1 $557 $585 #
straight-curve $-1 52.50404370250557 0 -13.353874837816745 0 -1 0 I I #
edge $-1 $571 -52.50404370250557 $530 52.50404370250557 $529 $586 forward 7 unknown #
point $-1 52.50404370250557 28.667877641842939 -13.353874837816745 #
coedge $-1 $576 $532 $583 $587 reversed $534 $-1 #
edge $-1 $551 4.4269374189083726 $535 7.4269374189083726 $533 $588 forward 7 unknown #
point $-1 -52.50404370250557 -18.316311851015914 13.353874837816745 #
vertex $-1 $566 $589 #
straight-curve $-1 -52.50404370250557 28.667877641842939 0 0 0 -1 I I #
plane-surface $-1 0 28.667877641842939 0 0 -1 0 0 0 -1 forward_v I I I I #
point $-1 -52.50404370250557 -28.667877641842939 -13.353874837816745 #
plane-surface $-1 -52.50404370250557 0 0 1 0 0 0 0 -1 forward_v I I I I #
coedge $-1 $549 $568 $553 $580 reversed $534 $-1 #
straight-curve $-1 -52.50404370250557 -11.746047373214713 10.353874837816745 0 1 0 I I #
point $-1 -52.50404370250557 -18.316311851015914 10.353874837816745 #
coedge $-1 $554 $553 $562 $584 reversed $545 $-1 #
edge $-1 $555 -10.353874837816745 $590 13.353874837816745 $576 $591 forward 7 unknown #
point $-1 -52.50404370250557 -28.667877641842939 10.353874837816745 #
straight-curve $-1 52.50404370250557 -28.667877641842939 0 0 0 -1 I I #
coedge $-1 $563 $562 $568 $587 forward $510 $-1 #
edge $-1 $564 -52.50404370250557 $590 52.50404370250557 $579 $592 forward 7 unknown #
point $-1 52.50404370250557 -28.667877641842939 -13.353874837816745 #
straight-curve $-1 0 28.667877641842939 -13.353874837816745 1 0 0 I I #
edge $-1 $590 -28.667877641842939 $571 28.667877641842939 $568 $593 forward 7 unknown #
straight-curve $-1 -52.50404370250557 -18.316311851015914 5.9269374189083726 0 0 1 I I #
point $-1 -52.50404370250557 28.667877641842939 -13.353874837816745 #
vertex $-1 $587 $594 #
straight-curve $-1 -52.50404370250557 -28.667877641842939 0 0 0 -1 I I #
straight-curve $-1 0 -28.667877641842939 -13.353874837816745 -1 0 0 I I #
straight-curve $-1 -52.50404370250557 0 -13.353874837816745 0 1 0 I I #
point $-1 -52.50404370250557 -28.667877641842939 -13.353874837816745 #
End-of-ACIS-data 