600 0 7 0           
108 GICL ACIS Healer - Source: /gicl/data5/repository/Drexel/CICIRELLO-THESISDATA/Part10004.smdg.delta.sat - 6 0 18 ACIS 6.0.3 Solaris 24 Fri Apr 12 10:15:49 2002 
1 9.999999999999999547e-07 1.000000000000000036e-10 
body $-1 $7 $-1 $-1 #
body $-1 $8 $-1 $-1 #
body $-1 $9 $-1 $-1 #
body $-1 $10 $-1 $-1 #
body $-1 $11 $-1 $-1 #
body $-1 $12 $-1 $-1 #
body $-1 $13 $-1 $-1 #
lump $-1 $-1 $14 $0 #
lump $-1 $-1 $15 $1 #
lump $-1 $-1 $16 $2 #
lump $-1 $-1 $17 $3 #
lump $-1 $-1 $18 $4 #
lump $-1 $-1 $19 $5 #
lump $-1 $-1 $20 $6 #
shell $-1 $-1 $-1 $21 $-1 $7 #
shell $-1 $-1 $-1 $22 $-1 $8 #
shell $-1 $-1 $-1 $23 $-1 $9 #
shell $-1 $-1 $-1 $24 $-1 $10 #
shell $-1 $-1 $-1 $25 $-1 $11 #
shell $-1 $-1 $-1 $26 $-1 $12 #
shell $-1 $-1 $-1 $27 $-1 $13 #
face $-1 $28 $29 $14 $-1 $30 forward single #
face $-1 $31 $32 $15 $-1 $33 reversed single #
face $-1 $34 $35 $16 $-1 $36 reversed single #
face $-1 $37 $38 $17 $-1 $39 reversed single #
face $-1 $40 $41 $18 $-1 $42 forward single #
face $-1 $43 $44 $19 $-1 $45 forward single #
face $-1 $46 $47 $20 $-1 $48 forward single #
face $-1 $49 $50 $14 $-1 $51 reversed single #
loop $-1 $-1 $52 $21 #
plane-surface $-1 76.69789727469711238 53.25105023344704591 46.43032640063423599 0 0 1 1 0 0 forward_v I I I I #
face $-1 $53 $54 $15 $-1 $55 reversed single #
loop $-1 $-1 $56 $22 #
plane-surface $-1 3.408343321261199321 19.45469926653242965 23.215163200317118 0 -1 0 0 0 -1 forward_v I I I I #
face $-1 $57 $58 $16 $-1 $59 reversed single #
loop $-1 $-1 $60 $23 #
plane-surface $-1 3.408343321261199321 87.04740120036166218 23.215163200317118 0 1 0 0 0 1 forward_v I I I I #
face $-1 $61 $62 $17 $-1 $63 reversed single #
loop $-1 $-1 $64 $24 #
plane-surface $-1 179.8334519181778717 87.04740120036166218 257.7822370334146171 0 -1 0 -0.7880107618611372766 0 -0.6156614647604883306 forward_v I I I I #
face $-1 $65 $66 $18 $-1 $67 forward single #
loop $-1 $68 $69 $25 #
cone-surface $-1 151.2691876098788839 73.03980542938387543 43.99637273935896076 -0.7880107618611372766 0 -0.6156614647604883306 0.6156614647604883306 0 -0.7880107618611372766 1 I I 0 1 1 forward I I I I #
face $-1 $70 $71 $19 $-1 $72 forward single #
loop $-1 $73 $74 $26 #
cone-surface $-1 151.2691876098788839 78.29265384350054546 43.99637273935896076 -0.7880107618611372766 0 -0.6156614647604883306 0.6156614647604883306 0 -0.7880107618611372766 1 I I 0 1 1 forward I I I I #
face $-1 $75 $76 $20 $-1 $77 forward single #
loop $-1 $78 $79 $27 #
cone-surface $-1 151.2691876098788839 83.54550225761721549 43.99637273935896076 -0.7880107618611372766 0 -0.6156614647604883306 0.6156614647604883306 0 -0.7880107618611372766 1 I I 0 1 1 forward I I I I #
face $-1 $80 $81 $14 $-1 $82 reversed single #
loop $-1 $-1 $83 $28 #
plane-surface $-1 76.69789727469711238 53.25105023344704591 0 0 0 1 1 0 0 forward_v I I I I #
coedge $-1 $84 $85 $86 $87 forward $29 $-1 #
face $-1 $88 $89 $15 $-1 $90 forward single #
loop $-1 $-1 $91 $31 #
plane-surface $-1 6.816686642522398643 9.727349633266214823 23.215163200317118 -1 0 0 0 0 1 forward_v I I I I #
coedge $-1 $92 $93 $94 $95 forward $32 $-1 #
face $-1 $96 $97 $16 $-1 $98 reversed single #
loop $-1 $-1 $99 $34 #
plane-surface $-1 6.816686642522398643 96.774750833627877 23.215163200317118 -1 0 0 0 0 1 forward_v I I I I #
coedge $-1 $100 $101 $102 $103 reversed $35 $-1 #
face $-1 $104 $105 $17 $-1 $106 reversed single #
loop $-1 $-1 $107 $37 #
plane-surface $-1 58.95591498901524119 78.29265384350054546 163.3423574730356336 0.7880107618611372766 0 0.6156614647604883306 0.6156614647604883306 0 -0.7880107618611372766 forward_v I I I I #
coedge $-1 $108 $109 $110 $111 reversed $38 $-1 #
face $-1 $-1 $112 $18 $-1 $113 forward single #
loop $-1 $114 $115 $40 #
cone-surface $-1 150.2976716104805632 73.03980542938387543 43.23734127408408767 -0.7880107618611372766 0 -0.6156614647604883306 0.3078307323802441653 0 -0.3940053809305686383 1 I I -0.7071067811865474617 0.7071067811865474617 0.5 forward I I I I #
loop $-1 $-1 $116 $25 #
coedge $-1 $69 $69 $117 $118 reversed $41 $-1 #
face $-1 $-1 $119 $19 $-1 $120 forward single #
loop $-1 $121 $122 $43 #
cone-surface $-1 150.2976716104805632 78.29265384350054546 43.23734127408408767 -0.7880107618611372766 0 -0.6156614647604883306 0.3078307323802441653 0 -0.3940053809305686383 1 I I -0.7071067811865474617 0.7071067811865474617 0.5 forward I I I I #
loop $-1 $-1 $123 $26 #
coedge $-1 $74 $74 $124 $125 reversed $44 $-1 #
face $-1 $-1 $126 $20 $-1 $127 forward single #
loop $-1 $128 $129 $46 #
cone-surface $-1 150.2976716104805632 83.54550225761721549 43.23734127408408767 -0.7880107618611372766 0 -0.6156614647604883306 0.3078307323802441653 0 -0.3940053809305686383 1 I I -0.7071067811865474617 0.7071067811865474617 0.5 forward I I I I #
loop $-1 $-1 $130 $27 #
coedge $-1 $79 $79 $131 $132 reversed $47 $-1 #
face $-1 $133 $134 $14 $-1 $135 reversed single #
loop $-1 $-1 $136 $49 #
plane-surface $-1 76.69789727469711238 0 23.215163200317118 0 1 0 0 0 1 forward_v I I I I #
coedge $-1 $137 $138 $139 $140 forward $50 $-1 #
coedge $-1 $141 $52 $142 $143 forward $29 $-1 #
coedge $-1 $52 $141 $144 $145 forward $29 $-1 #
coedge $-1 $146 $147 $52 $87 reversed $148 $-1 #
edge $-1 $149 -53.25105023344704591 $150 53.25105023344704591 $86 $151 forward 7 unknown #
face $-1 $152 $153 $15 $-1 $154 reversed single #
loop $-1 $-1 $155 $53 #
plane-surface $-1 76.69789727469711238 53.25105023344704591 46.43032640063423599 0 0 1 1 0 0 forward_v I I I I #
coedge $-1 $156 $157 $158 $159 reversed $54 $-1 #
coedge $-1 $160 $56 $161 $162 reversed $32 $-1 #
coedge $-1 $56 $160 $163 $164 reversed $32 $-1 #
coedge $-1 $157 $156 $56 $95 reversed $54 $-1 #
edge $-1 $165 -23.215163200317118 $166 23.215163200317118 $94 $167 forward 7 unknown #
face $-1 $168 $169 $16 $-1 $170 reversed single #
loop $-1 $-1 $171 $57 #
plane-surface $-1 76.69789727469711238 53.25105023344704591 0 0 0 1 1 0 0 forward_v I I I I #
coedge $-1 $172 $173 $174 $175 forward $58 $-1 #
coedge $-1 $174 $60 $176 $177 reversed $35 $-1 #
coedge $-1 $60 $174 $178 $179 reversed $35 $-1 #
coedge $-1 $180 $181 $60 $103 forward $169 $-1 #
edge $-1 $182 -23.215163200317118 $183 23.215163200317118 $102 $184 forward 7 unknown #
face $-1 $185 $186 $17 $-1 $187 reversed single #
loop $-1 $-1 $188 $61 #
plane-surface $-1 179.8334519181778717 69.53790648663942875 257.7822370334146171 0 1 0 0.7880107618611372766 0 0.6156614647604883306 forward_v I I I I #
coedge $-1 $189 $190 $191 $192 reversed $62 $-1 #
coedge $-1 $109 $64 $193 $194 reversed $38 $-1 #
coedge $-1 $64 $108 $189 $195 reversed $38 $-1 #
coedge $-1 $191 $196 $64 $111 forward $197 $-1 #
edge $-1 $198 -25.13011995295673273 $199 -22.03192731086164713 $110 $200 forward 7 unknown #
loop $-1 $-1 $117 $65 #
plane-surface $-1 58.95591498901524119 78.29265384350054546 163.3423574730356336 0.7880107618611372766 0 0.6156614647604883306 0.6156614647604883306 0 -0.7880107618611372766 forward_v I I I I #
loop $-1 $-1 $201 $40 #
coedge $-1 $115 $115 $116 $202 reversed $66 $-1 #
coedge $-1 $116 $116 $115 $202 forward $68 $-1 #
coedge $-1 $117 $117 $69 $118 forward $112 $-1 #
edge $-1 $203 0 $203 6.283185307179586232 $117 $204 forward 7 unknown #
loop $-1 $-1 $124 $70 #
plane-surface $-1 58.95591498901524119 78.29265384350054546 163.3423574730356336 0.7880107618611372766 0 0.6156614647604883306 0.6156614647604883306 0 -0.7880107618611372766 forward_v I I I I #
loop $-1 $-1 $205 $43 #
coedge $-1 $122 $122 $123 $206 reversed $71 $-1 #
coedge $-1 $123 $123 $122 $206 forward $73 $-1 #
coedge $-1 $124 $124 $74 $125 forward $119 $-1 #
edge $-1 $207 0 $207 6.283185307179586232 $124 $208 forward 7 unknown #
loop $-1 $-1 $131 $75 #
plane-surface $-1 58.95591498901524119 78.29265384350054546 163.3423574730356336 0.7880107618611372766 0 0.6156614647604883306 0.6156614647604883306 0 -0.7880107618611372766 forward_v I I I I #
loop $-1 $-1 $209 $46 #
coedge $-1 $129 $129 $130 $210 reversed $76 $-1 #
coedge $-1 $130 $130 $129 $210 forward $78 $-1 #
coedge $-1 $131 $131 $79 $132 forward $126 $-1 #
edge $-1 $211 0 $211 6.283185307179586232 $131 $212 forward 7 unknown #
face $-1 $213 $214 $14 $-1 $215 reversed single #
loop $-1 $-1 $216 $80 #
plane-surface $-1 0 53.25105023344704591 23.215163200317118 1 0 0 0 0 -1 forward_v I I I I #
coedge $-1 $217 $144 $218 $219 forward $81 $-1 #
coedge $-1 $220 $83 $217 $221 forward $50 $-1 #
coedge $-1 $83 $220 $222 $223 forward $50 $-1 #
coedge $-1 $147 $146 $83 $140 reversed $148 $-1 #
edge $-1 $224 -53.25105023344704591 $225 53.25105023344704591 $139 $226 forward 7 unknown #
coedge $-1 $85 $84 $227 $228 forward $29 $-1 #
coedge $-1 $229 $230 $84 $143 reversed $214 $-1 #
edge $-1 $150 -76.69789727469711238 $231 76.69789727469711238 $142 $232 forward 7 unknown #
coedge $-1 $136 $233 $85 $145 reversed $81 $-1 #
edge $-1 $234 -76.69789727469711238 $149 76.69789727469711238 $144 $235 forward 7 unknown #
coedge $-1 $139 $86 $233 $236 forward $148 $-1 #
coedge $-1 $86 $139 $229 $237 reversed $148 $-1 #
loop $-1 $-1 $146 $213 #
vertex $-1 $87 $238 #
vertex $-1 $87 $239 #
straight-curve $-1 153.3957945493942248 53.25105023344704591 46.43032640063423599 0 1 0 I I #
face $-1 $240 $241 $15 $-1 $242 reversed single #
loop $-1 $-1 $243 $88 #
plane-surface $-1 0 53.25105023344704591 23.215163200317118 1 0 0 0 0 -1 forward_v I I I I #
coedge $-1 $163 $244 $157 $245 forward $89 $-1 #
coedge $-1 $94 $91 $246 $247 reversed $54 $-1 #
coedge $-1 $91 $94 $155 $245 reversed $54 $-1 #
coedge $-1 $248 $249 $91 $159 forward $250 $-1 #
edge $-1 $251 -23.215163200317118 $252 23.215163200317118 $158 $253 forward 7 unknown #
coedge $-1 $93 $92 $243 $254 reversed $32 $-1 #
coedge $-1 $246 $255 $92 $162 forward $241 $-1 #
edge $-1 $256 -40.05312029797915585 $166 -33.23643365545675721 $161 $257 forward 7 unknown #
coedge $-1 $258 $155 $93 $164 forward $89 $-1 #
edge $-1 $165 33.23643365545675721 $259 40.05312029797915585 $163 $260 forward 7 unknown #
vertex $-1 $164 $261 #
vertex $-1 $162 $262 #
straight-curve $-1 6.816686642522398643 19.45469926653242965 23.215163200317118 0 0 -1 I I #
face $-1 $263 $264 $16 $-1 $265 forward single #
loop $-1 $-1 $102 $96 #
plane-surface $-1 0 53.25105023344704591 23.215163200317118 1 0 0 0 0 -1 forward_v I I I I #
coedge $-1 $176 $266 $172 $267 forward $97 $-1 #
coedge $-1 $268 $99 $171 $267 reversed $58 $-1 #
coedge $-1 $99 $268 $269 $270 reversed $58 $-1 #
coedge $-1 $101 $100 $99 $175 reversed $35 $-1 #
edge $-1 $271 -23.215163200317118 $272 23.215163200317118 $99 $273 forward 7 unknown #
coedge $-1 $274 $171 $100 $177 forward $97 $-1 #
edge $-1 $272 33.23643365545675721 $182 40.05312029797915585 $176 $275 forward 7 unknown #
coedge $-1 $269 $276 $101 $179 forward $264 $-1 #
edge $-1 $183 -40.05312029797915585 $271 -33.23643365545675721 $178 $277 forward 7 unknown #
coedge $-1 $278 $102 $276 $279 reversed $169 $-1 #
coedge $-1 $102 $278 $274 $280 reversed $169 $-1 #
vertex $-1 $280 $281 #
vertex $-1 $103 $282 #
straight-curve $-1 0 87.04740120036166218 23.215163200317118 0 0 1 I I #
face $-1 $-1 $197 $17 $-1 $283 forward single #
loop $-1 $-1 $284 $104 #
plane-surface $-1 153.3957945493942248 53.25105023344704591 23.215163200317118 -1 0 0 0 0 1 forward_v I I I I #
coedge $-1 $285 $286 $287 $288 reversed $105 $-1 #
coedge $-1 $289 $107 $109 $195 forward $62 $-1 #
coedge $-1 $107 $289 $285 $290 forward $62 $-1 #
coedge $-1 $287 $110 $107 $192 forward $197 $-1 #
edge $-1 $199 -21.27554916188786649 $291 -3.766054448165633062 $191 $292 forward 7 unknown #
coedge $-1 $293 $294 $108 $194 forward $186 $-1 #
edge $-1 $295 -98.03387957299285915 $198 -94.06837371623163335 $193 $296 forward 7 unknown #
edge $-1 $199 148.3634954379005819 $295 153.3957945493942248 $109 $297 forward 7 unknown #
coedge $-1 $110 $287 $293 $298 forward $197 $-1 #
loop $-1 $-1 $287 $185 #
vertex $-1 $194 $299 #
vertex $-1 $111 $300 #
straight-curve $-1 128.265674596437492 87.04740120036166218 46.4303264006342431 -1 0 0 I I #
coedge $-1 $201 $201 $-1 $301 reversed $114 $-1 #
edge $-1 $302 0 $302 6.283185307179586232 $115 $303 forward 7 unknown #
vertex $-1 $118 $304 #
ellipse-curve $-1 151.8466982283466962 73.03980542938387543 44.44757347225361599 0.7880107618611372766 0 0.6156614647604883306 0.6156614647604883306 0 -0.7880107618611372766 1 I I #
coedge $-1 $205 $205 $-1 $305 reversed $121 $-1 #
edge $-1 $306 0 $306 6.283185307179586232 $122 $307 forward 7 unknown #
vertex $-1 $125 $308 #
ellipse-curve $-1 151.8466982283466962 78.29265384350054546 44.44757347225361599 0.7880107618611372766 0 0.6156614647604883306 0.6156614647604883306 0 -0.7880107618611372766 1 I I #
coedge $-1 $209 $209 $-1 $309 reversed $128 $-1 #
edge $-1 $310 0 $310 6.283185307179586232 $129 $311 forward 7 unknown #
vertex $-1 $132 $312 #
ellipse-curve $-1 151.8466982283466962 83.54550225761721549 44.44757347225361599 0.7880107618611372766 0 0.6156614647604883306 0.6156614647604883306 0 -0.7880107618611372766 1 I I #
face $-1 $-1 $148 $14 $-1 $313 reversed single #
loop $-1 $-1 $229 $133 #
plane-surface $-1 76.69789727469711238 106.5021004668940918 23.215163200317118 0 -1 0 0 0 -1 forward_v I I I I #
coedge $-1 $314 $227 $230 $315 forward $134 $-1 #
coedge $-1 $233 $136 $137 $221 reversed $81 $-1 #
coedge $-1 $227 $314 $136 $219 reversed $134 $-1 #
edge $-1 $234 -23.215163200317118 $316 23.215163200317118 $218 $317 forward 7 unknown #
coedge $-1 $138 $137 $314 $318 forward $50 $-1 #
edge $-1 $225 -76.69789727469711238 $316 76.69789727469711238 $217 $319 forward 7 unknown #
coedge $-1 $230 $229 $138 $223 reversed $214 $-1 #
edge $-1 $320 -76.69789727469711238 $224 76.69789727469711238 $222 $321 forward 7 unknown #
vertex $-1 $140 $322 #
vertex $-1 $236 $323 #
straight-curve $-1 153.3957945493942248 53.25105023344704591 0 0 -1 0 I I #
coedge $-1 $216 $218 $141 $228 reversed $134 $-1 #
edge $-1 $231 -53.25105023344704591 $234 53.25105023344704591 $227 $324 forward 7 unknown #
coedge $-1 $222 $142 $147 $237 forward $214 $-1 #
coedge $-1 $142 $222 $216 $315 reversed $214 $-1 #
vertex $-1 $143 $325 #
straight-curve $-1 76.69789727469711238 106.5021004668940918 46.43032640063423599 -1 0 0 I I #
coedge $-1 $144 $217 $146 $236 reversed $81 $-1 #
vertex $-1 $228 $326 #
straight-curve $-1 76.69789727469711238 0 46.43032640063423599 1 0 0 I I #
edge $-1 $149 -23.215163200317118 $225 23.215163200317118 $146 $327 forward 7 unknown #
edge $-1 $150 -23.215163200317118 $224 23.215163200317118 $147 $328 forward 7 unknown #
point $-1 153.3957945493942248 0 46.43032640063423599 #
point $-1 153.3957945493942248 106.5021004668940918 46.43032640063423599 #
face $-1 $-1 $250 $15 $-1 $329 reversed single #
loop $-1 $-1 $246 $152 #
plane-surface $-1 76.69789727469711238 53.25105023344704591 0 0 0 1 1 0 0 forward_v I I I I #
coedge $-1 $330 $331 $160 $254 forward $153 $-1 #
coedge $-1 $155 $258 $248 $332 forward $89 $-1 #
edge $-1 $252 -31.48919993335663037 $165 -12.03450066682420072 $155 $333 forward 7 unknown #
coedge $-1 $334 $161 $156 $247 forward $241 $-1 #
edge $-1 $166 12.03450066682420072 $251 31.48919993335663037 $246 $335 forward 7 unknown #
coedge $-1 $336 $158 $244 $332 reversed $250 $-1 #
coedge $-1 $158 $336 $334 $337 reversed $250 $-1 #
loop $-1 $-1 $158 $240 #
vertex $-1 $337 $338 #
vertex $-1 $159 $339 #
straight-curve $-1 6.816686642522398643 0 23.215163200317118 0 0 1 I I #
edge $-1 $259 -23.215163200317118 $256 23.215163200317118 $243 $340 forward 7 unknown #
coedge $-1 $161 $334 $330 $341 forward $241 $-1 #
vertex $-1 $162 $342 #
straight-curve $-1 40.05312029797915585 19.45469926653242965 0 1 0 0 I I #
coedge $-1 $244 $163 $331 $343 forward $89 $-1 #
vertex $-1 $343 $344 #
straight-curve $-1 40.05312029797915585 19.45469926653242965 46.43032640063423599 -1 0 0 I I #
point $-1 6.816686642522398643 19.45469926653242965 46.43032640063423599 #
point $-1 6.816686642522398643 19.45469926653242965 0 #
face $-1 $-1 $345 $16 $-1 $346 reversed single #
loop $-1 $-1 $269 $168 #
plane-surface $-1 76.69789727469711238 53.25105023344704591 46.43032640063423599 0 0 1 1 0 0 forward_v I I I I #
coedge $-1 $171 $274 $347 $348 forward $97 $-1 #
edge $-1 $349 -31.48919993335663037 $272 -12.03450066682420072 $171 $350 forward 7 unknown #
coedge $-1 $173 $172 $351 $352 reversed $58 $-1 #
coedge $-1 $353 $178 $173 $270 forward $264 $-1 #
edge $-1 $271 12.03450066682420072 $354 31.48919993335663037 $269 $355 forward 7 unknown #
vertex $-1 $179 $356 #
vertex $-1 $177 $357 #
straight-curve $-1 6.816686642522398643 87.04740120036166218 23.215163200317118 0 0 -1 I I #
coedge $-1 $266 $176 $181 $280 forward $97 $-1 #
straight-curve $-1 40.05312029797915585 87.04740120036166218 0 -1 0 0 I I #
coedge $-1 $178 $353 $180 $279 forward $264 $-1 #
straight-curve $-1 40.05312029797915585 87.04740120036166218 46.43032640063423599 1 0 0 I I #
coedge $-1 $181 $180 $358 $359 forward $169 $-1 #
edge $-1 $360 -53.25105023344704591 $183 -33.79635096691461627 $180 $361 forward 7 unknown #
edge $-1 $182 33.79635096691461627 $362 53.25105023344704591 $181 $363 forward 7 unknown #
point $-1 0 87.04740120036166218 0 #
point $-1 0 87.04740120036166218 46.43032640063423599 #
plane-surface $-1 76.69789727469711238 53.25105023344704591 46.43032640063423599 0 0 1 1 0 0 forward_v I I I I #
coedge $-1 $294 $293 $286 $364 forward $186 $-1 #
coedge $-1 $286 $188 $190 $290 reversed $105 $-1 #
coedge $-1 $188 $285 $284 $364 reversed $105 $-1 #
coedge $-1 $196 $191 $188 $288 forward $197 $-1 #
edge $-1 $291 22.03192731086164713 $365 25.13011995295673273 $287 $366 forward 7 unknown #
coedge $-1 $190 $189 $294 $367 reversed $62 $-1 #
edge $-1 $368 -153.3957945493942248 $291 -148.3634954379005819 $285 $369 forward 7 unknown #
vertex $-1 $192 $370 #
straight-curve $-1 150.2976019072991392 65.77185203847379569 46.4303264006342431 0 -1 0 I I #
coedge $-1 $284 $193 $196 $298 reversed $186 $-1 #
coedge $-1 $193 $284 $289 $367 forward $186 $-1 #
vertex $-1 $194 $371 #
straight-curve $-1 153.3957945493942248 87.04740120036166218 140.4987001168658765 0 0 1 I I #
straight-curve $-1 58.95591498901524119 87.04740120036166218 163.3423574730356336 0.6156614647604883306 0 -0.7880107618611372766 I I #
edge $-1 $365 16.28685625319238284 $198 33.79635096691461627 $293 $372 forward 7 unknown #
point $-1 153.3957945493942248 87.04740120036166218 46.43032640063423599 #
point $-1 150.2976019072991392 87.04740120036166218 46.4303264006342431 #
edge $-1 $373 1 $373 0 $201 $-1 forward 7 unknown #
vertex $-1 $202 $374 #
ellipse-curve $-1 150.6916769914111285 73.03980542938387543 43.54517200646432684 0.7880107618611372766 0 0.6156614647604883306 0.6156614647604883306 0 -0.7880107618611372766 1 I I #
point $-1 152.4623596931071461 73.03980542938387543 43.65956271039245706 #
edge $-1 $375 1 $375 0 $205 $-1 forward 7 unknown #
vertex $-1 $206 $376 #
ellipse-curve $-1 150.6916769914111285 78.29265384350054546 43.54517200646432684 0.7880107618611372766 0 0.6156614647604883306 0.6156614647604883306 0 -0.7880107618611372766 1 I I #
point $-1 152.4623596931071461 78.29265384350054546 43.65956271039245706 #
edge $-1 $377 1 $377 0 $209 $-1 forward 7 unknown #
vertex $-1 $210 $378 #
ellipse-curve $-1 150.6916769914111285 83.54550225761721549 43.54517200646432684 0.7880107618611372766 0 0.6156614647604883306 0.6156614647604883306 0 -0.7880107618611372766 1 I I #
point $-1 152.4623596931071461 83.54550225761721549 43.65956271039245706 #
plane-surface $-1 153.3957945493942248 53.25105023344704591 23.215163200317118 -1 0 0 0 0 1 forward_v I I I I #
coedge $-1 $218 $216 $220 $318 reversed $134 $-1 #
edge $-1 $231 -23.215163200317118 $320 23.215163200317118 $230 $379 forward 7 unknown #
vertex $-1 $318 $380 #
straight-curve $-1 0 0 23.215163200317118 0 0 -1 I I #
edge $-1 $316 -53.25105023344704591 $320 53.25105023344704591 $314 $381 forward 7 unknown #
straight-curve $-1 76.69789727469711238 0 0 -1 0 0 I I #
vertex $-1 $223 $382 #
straight-curve $-1 76.69789727469711238 106.5021004668940918 0 1 0 0 I I #
point $-1 153.3957945493942248 106.5021004668940918 0 #
point $-1 153.3957945493942248 0 0 #
straight-curve $-1 0 53.25105023344704591 46.43032640063423599 0 -1 0 I I #
point $-1 0 106.5021004668940918 46.43032640063423599 #
point $-1 0 0 46.43032640063423599 #
straight-curve $-1 153.3957945493942248 0 23.215163200317118 0 0 -1 I I #
straight-curve $-1 153.3957945493942248 106.5021004668940918 23.215163200317118 0 0 -1 I I #
plane-surface $-1 76.69789727469711238 0 23.215163200317118 0 1 0 0 0 1 forward_v I I I I #
coedge $-1 $383 $243 $255 $341 reversed $153 $-1 #
coedge $-1 $243 $383 $258 $343 reversed $153 $-1 #
edge $-1 $384 -76.69789727469711238 $252 -69.88121063217471374 $248 $385 forward 7 unknown #
straight-curve $-1 6.816686642522398643 31.48919993335663037 46.43032640063423599 0 1 0 I I #
coedge $-1 $255 $246 $249 $337 forward $241 $-1 #
straight-curve $-1 6.816686642522398643 31.48919993335663037 0 0 -1 0 I I #
coedge $-1 $249 $248 $383 $386 forward $250 $-1 #
edge $-1 $251 69.88121063217471374 $387 76.69789727469711238 $249 $388 forward 7 unknown #
point $-1 6.816686642522398643 0 0 #
point $-1 6.816686642522398643 0 46.43032640063423599 #
straight-curve $-1 0 19.45469926653242965 23.215163200317118 0 0 -1 I I #
edge $-1 $387 -53.25105023344704591 $256 -33.79635096691461627 $330 $389 forward 7 unknown #
point $-1 0 19.45469926653242965 0 #
edge $-1 $259 33.79635096691461627 $384 53.25105023344704591 $331 $390 forward 7 unknown #
point $-1 0 19.45469926653242965 46.43032640063423599 #
loop $-1 $-1 $351 $263 #
plane-surface $-1 76.69789727469711238 106.5021004668940918 23.215163200317118 0 -1 0 0 0 -1 forward_v I I I I #
coedge $-1 $358 $351 $266 $348 reversed $345 $-1 #
edge $-1 $362 -76.69789727469711238 $349 -69.88121063217471374 $347 $391 forward 7 unknown #
vertex $-1 $267 $392 #
straight-curve $-1 6.816686642522398643 75.01290053353746146 0 0 -1 0 I I #
coedge $-1 $347 $393 $268 $352 forward $345 $-1 #
edge $-1 $354 -23.215163200317118 $349 23.215163200317118 $351 $394 forward 7 unknown #
coedge $-1 $276 $269 $393 $395 forward $264 $-1 #
vertex $-1 $395 $396 #
straight-curve $-1 6.816686642522398643 75.01290053353746146 46.43032640063423599 0 1 0 I I #
point $-1 6.816686642522398643 87.04740120036166218 46.43032640063423599 #
point $-1 6.816686642522398643 87.04740120036166218 0 #
coedge $-1 $393 $347 $278 $359 reversed $345 $-1 #
edge $-1 $360 -23.215163200317118 $362 23.215163200317118 $358 $397 forward 7 unknown #
vertex $-1 $395 $398 #
straight-curve $-1 0 53.25105023344704591 46.43032640063423599 0 -1 0 I I #
vertex $-1 $348 $399 #
straight-curve $-1 0 53.25105023344704591 0 0 1 0 I I #
edge $-1 $365 94.06837371623163335 $368 98.03387957299285915 $284 $400 forward 7 unknown #
vertex $-1 $298 $401 #
straight-curve $-1 128.265674596437492 69.53790648663942875 46.4303264006342431 1 0 0 I I #
edge $-1 $368 3.766054448165633062 $295 21.27554916188786649 $294 $402 forward 7 unknown #
vertex $-1 $367 $403 #
straight-curve $-1 58.95591498901524119 69.53790648663942875 163.3423574730356336 -0.6156614647604883306 0 0.7880107618611372766 I I #
point $-1 150.2976019072991392 69.53790648663942875 46.4303264006342431 #
point $-1 153.3957945493942248 87.04740120036166218 42.4648205438730173 #
straight-curve $-1 153.3957945493942248 53.25105023344704591 46.43032640063423599 0 1 0 I I #
vertex $-1 $301 $404 #
point $-1 151.3073384561716352 73.03980542938387543 42.75716124460319634 #
vertex $-1 $305 $405 #
point $-1 151.3073384561716352 78.29265384350054546 42.75716124460319634 #
vertex $-1 $309 $406 #
point $-1 151.3073384561716352 83.54550225761721549 42.75716124460319634 #
straight-curve $-1 0 106.5021004668940918 23.215163200317118 0 0 -1 I I #
point $-1 0 0 0 #
straight-curve $-1 0 53.25105023344704591 0 0 1 0 I I #
point $-1 0 106.5021004668940918 0 #
coedge $-1 $331 $330 $336 $386 reversed $153 $-1 #
vertex $-1 $343 $407 #
straight-curve $-1 76.69789727469711238 0 46.43032640063423599 1 0 0 I I #
edge $-1 $384 -23.215163200317118 $387 23.215163200317118 $383 $408 forward 7 unknown #
vertex $-1 $341 $409 #
straight-curve $-1 76.69789727469711238 0 0 -1 0 0 I I #
straight-curve $-1 0 53.25105023344704591 0 0 1 0 I I #
straight-curve $-1 0 53.25105023344704591 46.43032640063423599 0 -1 0 I I #
straight-curve $-1 76.69789727469711238 106.5021004668940918 0 1 0 0 I I #
point $-1 6.816686642522398643 106.5021004668940918 0 #
coedge $-1 $351 $358 $353 $395 reversed $345 $-1 #
straight-curve $-1 6.816686642522398643 106.5021004668940918 23.215163200317118 0 0 -1 I I #
edge $-1 $354 69.88121063217471374 $360 76.69789727469711238 $393 $410 forward 7 unknown #
point $-1 6.816686642522398643 106.5021004668940918 46.43032640063423599 #
straight-curve $-1 0 106.5021004668940918 23.215163200317118 0 0 -1 I I #
point $-1 0 106.5021004668940918 46.43032640063423599 #
point $-1 0 106.5021004668940918 0 #
straight-curve $-1 153.3957945493942248 69.53790648663942875 140.4987001168658765 0 0 -1 I I #
point $-1 153.3957945493942248 69.53790648663942875 46.43032640063423599 #
straight-curve $-1 153.3957945493942248 65.77185203847379569 42.46482054387298888 0 1 0 I I #
point $-1 153.3957945493942248 69.53790648663942875 42.4648205438730173 #
point $-1 149.903666229549998 73.03980542938387543 42.9295105417038485 #
point $-1 149.903666229549998 78.29265384350054546 42.9295105417038485 #
point $-1 149.903666229549998 83.54550225761721549 42.9295105417038485 #
point $-1 0 0 46.43032640063423599 #
straight-curve $-1 0 0 23.215163200317118 0 0 -1 I I #
point $-1 0 0 0 #
straight-curve $-1 76.69789727469711238 106.5021004668940918 46.43032640063423599 -1 0 0 I I #
End-of-ACIS-data 