500 0 12 0           
7 Unknown 11 ACIS 5.0 NT 24 Thu Mar 25 18:03:25 1999 
-1 9.9999999999999995e-007 1e-010 
body $-1 $12 $-1 $13 #
body $-1 $14 $-1 $15 #
body $-1 $16 $-1 $17 #
body $-1 $18 $-1 $19 #
body $-1 $20 $-1 $21 #
body $-1 $22 $-1 $23 #
body $-1 $24 $-1 $25 #
body $-1 $26 $-1 $27 #
body $-1 $28 $-1 $29 #
body $-1 $30 $-1 $31 #
body $-1 $32 $-1 $33 #
body $-1 $34 $-1 $35 #
lump $-1 $-1 $36 $0 #
transform $-1 1 0 0 0 1 0 0 0 1 56.091799676503797 27.254345891585576 10.473380919756684 1 rotate no_reflect no_shear #
lump $-1 $-1 $37 $1 #
transform $-1 1 0 0 0 1 0 0 0 1 56.091799676503797 27.254345891585576 10.473380919756684 1 rotate no_reflect no_shear #
lump $-1 $-1 $38 $2 #
transform $-1 1 0 0 0 1 0 0 0 1 56.091799676503797 27.254345891585576 10.473380919756684 1 rotate no_reflect no_shear #
lump $-1 $-1 $39 $3 #
transform $-1 1 0 0 0 1 0 0 0 1 56.091799676503797 27.254345891585576 10.473380919756684 1 rotate no_reflect no_shear #
lump $-1 $-1 $40 $4 #
transform $-1 1 0 0 0 1 0 0 0 1 56.091799676503797 27.254345891585576 10.473380919756684 1 rotate no_reflect no_shear #
lump $-1 $-1 $41 $5 #
transform $-1 1 0 0 0 1 0 0 0 1 56.091799676503797 27.254345891585576 10.473380919756684 1 rotate no_reflect no_shear #
lump $-1 $-1 $42 $6 #
transform $-1 1 0 0 0 1 0 0 0 1 56.091799676503797 27.254345891585576 10.473380919756684 1 rotate no_reflect no_shear #
lump $-1 $-1 $43 $7 #
transform $-1 1 0 0 0 1 0 0 0 1 56.091799676503797 27.254345891585576 10.473380919756684 1 rotate no_reflect no_shear #
lump $-1 $-1 $44 $8 #
transform $-1 1 0 0 0 1 0 0 0 1 56.091799676503797 27.254345891585576 10.473380919756684 1 rotate no_reflect no_shear #
lump $-1 $-1 $45 $9 #
transform $-1 1 0 0 0 1 0 0 0 1 56.091799676503797 27.254345891585576 10.473380919756684 1 rotate no_reflect no_shear #
lump $-1 $-1 $46 $10 #
transform $-1 1 0 0 0 1 0 0 0 1 56.091799676503797 27.254345891585576 10.473380919756684 1 rotate no_reflect no_shear #
lump $-1 $-1 $47 $11 #
transform $-1 1 0 0 0 1 0 0 0 1 56.091799676503797 27.254345891585576 10.473380919756684 1 rotate no_reflect no_shear #
shell $-1 $-1 $-1 $48 $-1 $12 #
shell $-1 $-1 $-1 $49 $-1 $14 #
shell $-1 $-1 $-1 $50 $-1 $16 #
shell $-1 $-1 $-1 $51 $-1 $18 #
shell $-1 $-1 $-1 $52 $-1 $20 #
shell $-1 $-1 $-1 $53 $-1 $22 #
shell $-1 $-1 $-1 $54 $-1 $24 #
shell $-1 $-1 $-1 $55 $-1 $26 #
shell $-1 $-1 $-1 $56 $-1 $28 #
shell $-1 $-1 $-1 $57 $-1 $30 #
shell $-1 $-1 $-1 $58 $-1 $32 #
shell $-1 $-1 $-1 $59 $-1 $34 #
face $-1 $60 $61 $36 $-1 $62 forward single #
face $-1 $63 $64 $37 $-1 $65 forward single #
face $-1 $66 $67 $38 $-1 $68 reversed single #
face $-1 $69 $70 $39 $-1 $71 forward single #
face $-1 $72 $73 $40 $-1 $74 forward single #
face $-1 $75 $76 $41 $-1 $77 forward single #
face $-1 $78 $79 $42 $-1 $80 reversed single #
face $-1 $81 $82 $43 $-1 $83 forward single #
face $-1 $84 $85 $44 $-1 $86 forward single #
face $-1 $87 $88 $45 $-1 $89 reversed single #
face $-1 $90 $91 $46 $-1 $92 forward single #
face $-1 $93 $94 $47 $-1 $95 forward single #
face $-1 $96 $97 $36 $-1 $98 reversed single #
loop $-1 $-1 $99 $48 #
plane-surface $-1 0 0 10.473380919756684 0 0 1 1 0 0 forward_v I I I I #
face $-1 $100 $101 $37 $-1 $102 reversed single #
loop $-1 $-1 $103 $49 #
plane-surface $-1 -56.091799676503797 0 0 1 0 0 0 0 -1 forward_v I I I I #
face $-1 $104 $105 $38 $-1 $106 reversed single #
loop $-1 $-1 $107 $50 #
plane-surface $-1 -0.99490920990646359 38.310103731242592 126.7954631272341 1 0 0 0 -0.51503808176128008 -0.85716729658548041 forward_v I I I I #
face $-1 $108 $109 $39 $-1 $110 forward single #
loop $-1 $111 $112 $51 #
cone-surface $-1 2.9169051538414905 20.28906438777117 5.8827110064425678 0 -0.51503808176128008 -0.85716729658548041 1 0 0 1 I I 0 1 1 forward I I I I #
face $-1 $113 $114 $40 $-1 $115 forward single #
loop $-1 $116 $117 $52 #
cone-surface $-1 8.7846266994634163 20.28906438777117 5.8827110064425678 0 -0.51503808176128008 -0.85716729658548041 1 0 0 1 I I 0 1 1 forward I I I I #
face $-1 $118 $119 $41 $-1 $120 forward single #
loop $-1 $121 $122 $53 #
cone-surface $-1 14.652348245085349 20.28906438777117 5.8827110064425678 0 -0.51503808176128008 -0.85716729658548041 1 0 0 1 I I 0 1 1 forward I I I I #
face $-1 $123 $124 $42 $-1 $125 reversed single #
loop $-1 $-1 $126 $54 #
plane-surface $-1 -8.5533380199852935 -118.01278517640388 68.920823139824449 -1 0 0 0 -0.80901700255871778 0.5877852410284794 forward_v I I I I #
face $-1 $127 $128 $43 $-1 $129 forward single #
loop $-1 $130 $131 $55 #
cone-surface $-1 -16.966131414180921 -23.028413034100847 5.6343400997383659 0 0.80901700255871778 -0.5877852410284794 1 0 0 1 I I 0 1 1 forward I I I I #
face $-1 $132 $133 $44 $-1 $134 forward single #
loop $-1 $135 $136 $56 #
cone-surface $-1 -11.918455377663541 -23.028413034100847 5.6343400997383659 0 0.80901700255871778 -0.5877852410284794 1 0 0 1 I I 0 1 1 forward I I I I #
face $-1 $137 $138 $45 $-1 $139 reversed single #
loop $-1 $-1 $140 $57 #
plane-surface $-1 27.887943172675786 -118.01278517640388 68.920823139824449 -1 0 0 0 -0.80901700255871778 0.5877852410284794 forward_v I I I I #
face $-1 $141 $142 $46 $-1 $143 forward single #
loop $-1 $144 $145 $58 #
cone-surface $-1 19.475149778480159 -23.028413034100847 5.6343400997383659 0 0.80901700255871778 -0.5877852410284794 1 0 0 1 I I 0 1 1 forward I I I I #
face $-1 $146 $147 $47 $-1 $148 forward single #
loop $-1 $149 $150 $59 #
cone-surface $-1 24.522825814997546 -23.028413034100847 5.6343400997383659 0 0.80901700255871778 -0.5877852410284794 1 0 0 1 I I 0 1 1 forward I I I I #
face $-1 $151 $152 $36 $-1 $153 reversed single #
loop $-1 $-1 $154 $60 #
plane-surface $-1 0 0 -10.473380919756684 0 0 1 1 0 0 forward_v I I I I #
coedge $-1 $155 $156 $157 $158 forward $61 $-1 #
face $-1 $159 $160 $37 $-1 $161 reversed single #
loop $-1 $-1 $162 $63 #
plane-surface $-1 0 0 -10.473380919756684 0 0 1 1 0 0 forward_v I I I I #
coedge $-1 $163 $164 $165 $166 forward $64 $-1 #
face $-1 $167 $168 $38 $-1 $169 reversed single #
loop $-1 $-1 $170 $66 #
plane-surface $-1 8.7846266994634163 -19.468722084606419 30.635350548587937 0 0.51503808176128008 0.85716729658548041 1 0 0 forward_v I I I I #
coedge $-1 $171 $172 $173 $174 reversed $67 $-1 #
face $-1 $-1 $175 $39 $-1 $176 forward single #
loop $-1 $177 $178 $69 #
cone-surface $-1 2.9169051538414905 19.650221946410515 4.8194986580807413 0 -0.51503808176128008 -0.85716729658548041 0.5 0 0 1 I I -0.70710678118654746 0.70710678118654746 0.5 forward I I I I #
loop $-1 $-1 $179 $51 #
coedge $-1 $112 $112 $180 $181 reversed $70 $-1 #
face $-1 $-1 $182 $40 $-1 $183 forward single #
loop $-1 $184 $185 $72 #
cone-surface $-1 8.7846266994634163 19.650221946410515 4.8194986580807413 0 -0.51503808176128008 -0.85716729658548041 0.5 0 0 1 I I -0.70710678118654746 0.70710678118654746 0.5 forward I I I I #
loop $-1 $-1 $186 $52 #
coedge $-1 $117 $117 $187 $188 reversed $73 $-1 #
face $-1 $-1 $189 $41 $-1 $190 forward single #
loop $-1 $191 $192 $75 #
cone-surface $-1 14.652348245085349 19.650221946410515 4.8194986580807413 0 -0.51503808176128008 -0.85716729658548041 0.5 0 0 1 I I -0.70710678118654746 0.70710678118654746 0.5 forward I I I I #
loop $-1 $-1 $193 $53 #
coedge $-1 $122 $122 $194 $195 reversed $76 $-1 #
face $-1 $196 $197 $42 $-1 $198 reversed single #
loop $-1 $-1 $199 $78 #
plane-surface $-1 -14.442293395922235 -27.254345891585572 2.9809591546745082 0 -0.80901700255871778 0.5877852410284794 1 0 0 forward_v I I I I #
coedge $-1 $200 $201 $202 $203 reversed $79 $-1 #
face $-1 $-1 $204 $43 $-1 $205 forward single #
loop $-1 $206 $207 $81 #
cone-surface $-1 -16.966131414180921 -21.119753120687911 4.2476175417468927 0 0.80901700255871778 -0.5877852410284794 0.5 0 0 1 I I -0.70710678118654746 0.70710678118654746 0.5 forward I I I I #
loop $-1 $-1 $208 $55 #
coedge $-1 $131 $131 $209 $210 reversed $82 $-1 #
face $-1 $-1 $211 $44 $-1 $212 forward single #
loop $-1 $213 $214 $84 #
cone-surface $-1 -11.918455377663541 -21.119753120687911 4.2476175417468927 0 0.80901700255871778 -0.5877852410284794 0.5 0 0 1 I I -0.70710678118654746 0.70710678118654746 0.5 forward I I I I #
loop $-1 $-1 $215 $56 #
coedge $-1 $136 $136 $216 $217 reversed $85 $-1 #
face $-1 $218 $219 $45 $-1 $220 reversed single #
loop $-1 $-1 $221 $87 #
plane-surface $-1 21.998987796738845 -27.254345891585572 2.9809591546745082 0 -0.80901700255871778 0.5877852410284794 1 0 0 forward_v I I I I #
coedge $-1 $222 $223 $224 $225 reversed $88 $-1 #
face $-1 $-1 $226 $46 $-1 $227 forward single #
loop $-1 $228 $229 $90 #
cone-surface $-1 19.475149778480159 -21.119753120687911 4.2476175417468927 0 0.80901700255871778 -0.5877852410284794 0.5 0 0 1 I I -0.70710678118654746 0.70710678118654746 0.5 forward I I I I #
loop $-1 $-1 $230 $58 #
coedge $-1 $145 $145 $231 $232 reversed $91 $-1 #
face $-1 $-1 $233 $47 $-1 $234 forward single #
loop $-1 $235 $236 $93 #
cone-surface $-1 24.522825814997546 -21.119753120687911 4.2476175417468927 0 0.80901700255871778 -0.5877852410284794 0.5 0 0 1 I I -0.70710678118654746 0.70710678118654746 0.5 forward I I I I #
loop $-1 $-1 $237 $59 #
coedge $-1 $150 $150 $238 $239 reversed $94 $-1 #
face $-1 $240 $241 $36 $-1 $242 reversed single #
loop $-1 $-1 $243 $96 #
plane-surface $-1 0 -27.254345891585576 0 0 1 0 0 0 1 forward_v I I I I #
coedge $-1 $244 $245 $246 $247 forward $97 $-1 #
coedge $-1 $248 $99 $249 $250 forward $61 $-1 #
coedge $-1 $99 $248 $251 $252 forward $61 $-1 #
coedge $-1 $253 $254 $99 $158 reversed $255 $-1 #
edge $-1 $256 -27.254345891585576 $257 27.254345891585576 $157 $258 forward 7 unknown #
face $-1 $259 $260 $37 $-1 $261 reversed single #
loop $-1 $-1 $262 $100 #
plane-surface $-1 -59.870146876912116 -10.248710228310003 0 0 1 0 0 0 1 forward_v I I I I #
coedge $-1 $263 $264 $164 $265 forward $101 $-1 #
coedge $-1 $266 $103 $267 $268 reversed $64 $-1 #
coedge $-1 $103 $266 $162 $265 reversed $64 $-1 #
coedge $-1 $269 $270 $103 $166 reversed $271 $-1 #
edge $-1 $272 -10.473380919756684 $273 10.473380919756684 $165 $274 forward 7 unknown #
face $-1 $275 $276 $38 $-1 $277 forward single #
loop $-1 $-1 $278 $104 #
plane-surface $-1 18.564162608833296 38.310103731242592 126.7954631272341 -1 0 0 0 0.51503808176128008 0.85716729658548041 forward_v I I I I #
coedge $-1 $279 $280 $281 $282 reversed $105 $-1 #
coedge $-1 $172 $107 $283 $284 reversed $67 $-1 #
coedge $-1 $107 $171 $279 $285 reversed $67 $-1 #
coedge $-1 $281 $286 $107 $174 forward $276 $-1 #
edge $-1 $287 -8.0992940259642801 $288 5.06862218070453 $173 $289 forward 7 unknown #
loop $-1 $-1 $180 $108 #
plane-surface $-1 8.7846266994634163 -19.468722084606419 30.635350548587937 0 0.51503808176128008 0.85716729658548041 1 0 0 forward_v I I I I #
loop $-1 $-1 $290 $69 #
coedge $-1 $178 $178 $179 $291 reversed $109 $-1 #
coedge $-1 $179 $179 $178 $291 forward $111 $-1 #
coedge $-1 $180 $180 $112 $181 forward $175 $-1 #
edge $-1 $292 -1.5684998720914107e-016 $292 6.2831853071796004 $180 $293 forward 7 unknown #
loop $-1 $-1 $187 $113 #
plane-surface $-1 8.7846266994634163 -19.468722084606419 30.635350548587937 0 0.51503808176128008 0.85716729658548041 1 0 0 forward_v I I I I #
loop $-1 $-1 $294 $72 #
coedge $-1 $185 $185 $186 $295 reversed $114 $-1 #
coedge $-1 $186 $186 $185 $295 forward $116 $-1 #
coedge $-1 $187 $187 $117 $188 forward $182 $-1 #
edge $-1 $296 -1.5684998720914107e-016 $296 6.2831853071796004 $187 $297 forward 7 unknown #
loop $-1 $-1 $194 $118 #
plane-surface $-1 8.7846266994634163 -19.468722084606419 30.635350548587937 0 0.51503808176128008 0.85716729658548041 1 0 0 forward_v I I I I #
loop $-1 $-1 $298 $75 #
coedge $-1 $192 $192 $193 $299 reversed $119 $-1 #
coedge $-1 $193 $193 $192 $299 forward $121 $-1 #
coedge $-1 $194 $194 $122 $195 forward $189 $-1 #
edge $-1 $300 -1.5684998720914107e-016 $300 6.2831853071796004 $194 $301 forward 7 unknown #
face $-1 $302 $303 $42 $-1 $304 forward single #
loop $-1 $-1 $305 $123 #
plane-surface $-1 -20.331248771859176 -118.01278517640388 68.920823139824449 1 0 0 0 0.80901700255871778 -0.5877852410284794 forward_v I I I I #
coedge $-1 $306 $307 $308 $309 reversed $124 $-1 #
coedge $-1 $201 $126 $310 $311 reversed $79 $-1 #
coedge $-1 $126 $200 $306 $312 reversed $79 $-1 #
coedge $-1 $308 $313 $126 $203 forward $303 $-1 #
edge $-1 $314 31.752046696616365 $315 37.195609587318678 $202 $316 forward 7 unknown #
loop $-1 $-1 $209 $127 #
plane-surface $-1 -14.442293395922235 -27.254345891585572 2.9809591546745082 0 -0.80901700255871778 0.5877852410284794 1 0 0 forward_v I I I I #
loop $-1 $-1 $317 $81 #
coedge $-1 $207 $207 $208 $318 reversed $128 $-1 #
coedge $-1 $208 $208 $207 $318 forward $130 $-1 #
coedge $-1 $209 $209 $131 $210 forward $204 $-1 #
edge $-1 $319 -1.30225956062532e-015 $319 6.2831853071795996 $209 $320 forward 7 unknown #
loop $-1 $-1 $216 $132 #
plane-surface $-1 -14.442293395922235 -27.254345891585572 2.9809591546745082 0 -0.80901700255871778 0.5877852410284794 1 0 0 forward_v I I I I #
loop $-1 $-1 $321 $84 #
coedge $-1 $214 $214 $215 $322 reversed $133 $-1 #
coedge $-1 $215 $215 $214 $322 forward $135 $-1 #
coedge $-1 $216 $216 $136 $217 forward $211 $-1 #
edge $-1 $323 -1.30225956062532e-015 $323 6.2831853071795996 $216 $324 forward 7 unknown #
face $-1 $325 $326 $45 $-1 $327 reversed single #
loop $-1 $-1 $328 $137 #
plane-surface $-1 16.110032420801904 -118.01278517640388 68.920823139824449 1 0 0 0 0.80901700255871778 -0.5877852410284794 forward_v I I I I #
coedge $-1 $329 $330 $331 $332 reversed $138 $-1 #
coedge $-1 $223 $140 $333 $334 reversed $88 $-1 #
coedge $-1 $140 $222 $329 $335 reversed $88 $-1 #
coedge $-1 $331 $336 $140 $225 forward $337 $-1 #
edge $-1 $338 31.752046696616365 $339 37.195609587318678 $224 $340 forward 7 unknown #
loop $-1 $-1 $231 $141 #
plane-surface $-1 21.998987796738845 -27.254345891585572 2.9809591546745082 0 -0.80901700255871778 0.5877852410284794 1 0 0 forward_v I I I I #
loop $-1 $-1 $341 $90 #
coedge $-1 $229 $229 $230 $342 reversed $142 $-1 #
coedge $-1 $230 $230 $229 $342 forward $144 $-1 #
coedge $-1 $231 $231 $145 $232 forward $226 $-1 #
edge $-1 $343 -1.30225956062532e-015 $343 6.2831853071795996 $231 $344 forward 7 unknown #
loop $-1 $-1 $238 $146 #
plane-surface $-1 21.998987796738845 -27.254345891585572 2.9809591546745082 0 -0.80901700255871778 0.5877852410284794 1 0 0 forward_v I I I I #
loop $-1 $-1 $345 $93 #
coedge $-1 $236 $236 $237 $346 reversed $147 $-1 #
coedge $-1 $237 $237 $236 $346 forward $149 $-1 #
coedge $-1 $238 $238 $150 $239 forward $233 $-1 #
edge $-1 $347 -1.30225956062532e-015 $347 6.2831853071795996 $238 $348 forward 7 unknown #
face $-1 $349 $350 $36 $-1 $351 reversed single #
loop $-1 $-1 $352 $151 #
plane-surface $-1 -56.091799676503797 0 0 1 0 0 0 0 -1 forward_v I I I I #
coedge $-1 $353 $251 $354 $355 forward $152 $-1 #
coedge $-1 $356 $154 $353 $357 forward $97 $-1 #
coedge $-1 $154 $356 $358 $359 forward $97 $-1 #
coedge $-1 $254 $253 $154 $247 reversed $255 $-1 #
edge $-1 $360 -27.254345891585576 $361 27.254345891585576 $246 $362 forward 7 unknown #
coedge $-1 $156 $155 $363 $364 forward $61 $-1 #
coedge $-1 $365 $366 $155 $250 reversed $350 $-1 #
edge $-1 $257 -56.091799676503797 $367 56.091799676503797 $249 $368 forward 7 unknown #
coedge $-1 $243 $369 $156 $252 reversed $152 $-1 #
edge $-1 $370 -56.091799676503797 $256 56.091799676503797 $251 $371 forward 7 unknown #
coedge $-1 $246 $157 $369 $372 forward $255 $-1 #
coedge $-1 $157 $246 $365 $373 reversed $255 $-1 #
loop $-1 $-1 $253 $349 #
vertex $-1 $158 $374 #
vertex $-1 $158 $375 #
straight-curve $-1 56.091799676503797 0 10.473380919756684 0 1 0 I I #
face $-1 $376 $271 $37 $-1 $377 reversed single #
loop $-1 $-1 $378 $159 #
plane-surface $-1 -63.648494077320436 -8.2781471401911055 0 1 0 0 0 0 -1 forward_v I I I I #
coedge $-1 $379 $380 $381 $382 forward $160 $-1 #
coedge $-1 $383 $162 $379 $384 forward $101 $-1 #
coedge $-1 $162 $383 $269 $385 forward $101 $-1 #
edge $-1 $272 6.3075840520722082 $386 10.248710228310003 $162 $387 forward 7 unknown #
coedge $-1 $164 $163 $388 $389 forward $64 $-1 #
coedge $-1 $390 $391 $163 $268 forward $392 $-1 #
edge $-1 $393 -10.248710228310003 $273 -6.3075840520722082 $267 $394 forward 7 unknown #
coedge $-1 $395 $165 $264 $385 reversed $271 $-1 #
coedge $-1 $165 $395 $390 $396 reversed $271 $-1 #
loop $-1 $-1 $165 $259 #
vertex $-1 $265 $397 #
vertex $-1 $396 $398 #
straight-curve $-1 -56.091799676503797 -6.3075840520722082 0 0 0 1 I I #
face $-1 $-1 $399 $38 $-1 $400 reversed single #
loop $-1 $-1 $173 $167 #
plane-surface $-1 0 0 10.473380919756684 0 0 1 1 0 0 forward_v I I I I #
coedge $-1 $401 $402 $403 $404 reversed $168 $-1 #
coedge $-1 $405 $170 $172 $285 forward $105 $-1 #
coedge $-1 $170 $405 $401 $406 forward $105 $-1 #
coedge $-1 $403 $173 $170 $282 forward $276 $-1 #
edge $-1 $288 -5.3872225596381718 $407 14.171849259101588 $281 $408 forward 7 unknown #
coedge $-1 $409 $410 $171 $284 forward $399 $-1 #
edge $-1 $411 -60.836433070350424 $287 -52.924350643860365 $283 $412 forward 7 unknown #
edge $-1 $288 39.146560890960124 $411 54.508691783171145 $172 $413 forward 7 unknown #
coedge $-1 $173 $403 $409 $414 forward $276 $-1 #
vertex $-1 $284 $415 #
vertex $-1 $174 $416 #
straight-curve $-1 -0.99490920990646359 19.155051865621296 10.473380919756686 0 -1 0 I I #
coedge $-1 $290 $290 $-1 $417 reversed $177 $-1 #
edge $-1 $418 0 $418 6.2831853071796004 $178 $419 forward 7 unknown #
vertex $-1 $181 $420 #
ellipse-curve $-1 2.9169051538414905 20.67038778825118 6.5173397065116481 0 0.51503808176128008 0.85716729658548041 1 0 0 1 I I #
coedge $-1 $294 $294 $-1 $421 reversed $184 $-1 #
edge $-1 $422 0 $422 6.2831853071796004 $185 $423 forward 7 unknown #
vertex $-1 $188 $424 #
ellipse-curve $-1 8.7846266994634163 20.67038778825118 6.5173397065116481 0 0.51503808176128008 0.85716729658548041 1 0 0 1 I I #
coedge $-1 $298 $298 $-1 $425 reversed $191 $-1 #
edge $-1 $426 0 $426 6.2831853071796004 $192 $427 forward 7 unknown #
vertex $-1 $195 $428 #
ellipse-curve $-1 14.652348245085349 20.67038778825118 6.5173397065116481 0 0.51503808176128008 0.85716729658548041 1 0 0 1 I I #
face $-1 $-1 $429 $42 $-1 $430 reversed single #
loop $-1 $-1 $202 $196 #
plane-surface $-1 0 0 10.473380919756684 0 0 1 1 0 0 forward_v I I I I #
coedge $-1 $431 $432 $433 $434 reversed $197 $-1 #
coedge $-1 $435 $199 $201 $312 forward $124 $-1 #
coedge $-1 $199 $435 $431 $436 forward $124 $-1 #
coedge $-1 $433 $202 $199 $309 forward $303 $-1 #
edge $-1 $315 1.3321913220241761 $437 13.110102073898059 $308 $438 forward 7 unknown #
coedge $-1 $439 $440 $200 $311 forward $429 $-1 #
edge $-1 $441 -31.47945241523772 $314 -23.987030650155539 $310 $442 forward 7 unknown #
edge $-1 $315 -9.2611425240576217 $441 6.040265601636166e-015 $201 $443 forward 7 unknown #
coedge $-1 $202 $433 $439 $444 forward $303 $-1 #
vertex $-1 $203 $445 #
vertex $-1 $203 $446 #
straight-curve $-1 -8.5533380199852935 -59.00639258820194 10.473380919756686 0 1 0 I I #
coedge $-1 $317 $317 $-1 $447 reversed $206 $-1 #
edge $-1 $448 0 $448 6.2831853071796004 $207 $449 forward 7 unknown #
vertex $-1 $210 $450 #
ellipse-curve $-1 -16.966131414180921 -24.532564446234417 6.7271700372155951 0 -0.80901700255871778 0.5877852410284794 1 0 0 1 I I #
coedge $-1 $321 $321 $-1 $451 reversed $213 $-1 #
edge $-1 $452 0 $452 6.2831853071796004 $214 $453 forward 7 unknown #
vertex $-1 $217 $454 #
ellipse-curve $-1 -11.918455377663541 -24.532564446234417 6.7271700372155951 0 -0.80901700255871778 0.5877852410284794 1 0 0 1 I I #
face $-1 $-1 $337 $45 $-1 $455 forward single #
loop $-1 $-1 $456 $218 #
plane-surface $-1 0 -27.254345891585576 0 0 1 0 0 0 1 forward_v I I I I #
coedge $-1 $457 $458 $459 $460 reversed $219 $-1 #
coedge $-1 $461 $221 $223 $335 forward $138 $-1 #
coedge $-1 $221 $461 $457 $462 forward $138 $-1 #
coedge $-1 $459 $224 $221 $332 forward $337 $-1 #
edge $-1 $339 -16.888449274306364 $463 -5.1105385224324813 $331 $464 forward 7 unknown #
coedge $-1 $465 $466 $222 $334 forward $326 $-1 #
edge $-1 $467 -31.47945241523772 $338 -23.987030650155539 $333 $468 forward 7 unknown #
edge $-1 $339 -9.2611425240576217 $467 6.040265601636166e-015 $223 $469 forward 7 unknown #
coedge $-1 $224 $459 $465 $470 forward $337 $-1 #
loop $-1 $-1 $459 $325 #
vertex $-1 $334 $471 #
vertex $-1 $225 $472 #
straight-curve $-1 27.887943172675786 -59.00639258820194 10.473380919756686 0 1 0 I I #
coedge $-1 $341 $341 $-1 $473 reversed $228 $-1 #
edge $-1 $474 0 $474 6.2831853071796004 $229 $475 forward 7 unknown #
vertex $-1 $232 $476 #
ellipse-curve $-1 19.475149778480159 -24.532564446234417 6.7271700372155951 0 -0.80901700255871778 0.5877852410284794 1 0 0 1 I I #
coedge $-1 $345 $345 $-1 $477 reversed $235 $-1 #
edge $-1 $478 0 $478 6.2831853071796004 $236 $479 forward 7 unknown #
vertex $-1 $239 $480 #
ellipse-curve $-1 24.522825814997546 -24.532564446234417 6.7271700372155951 0 -0.80901700255871778 0.5877852410284794 1 0 0 1 I I #
face $-1 $-1 $255 $36 $-1 $481 reversed single #
loop $-1 $-1 $365 $240 #
plane-surface $-1 0 27.254345891585576 0 0 -1 0 0 0 -1 forward_v I I I I #
coedge $-1 $482 $363 $366 $483 forward $241 $-1 #
coedge $-1 $369 $243 $244 $357 reversed $152 $-1 #
coedge $-1 $363 $482 $243 $355 reversed $241 $-1 #
edge $-1 $370 -10.473380919756684 $484 10.473380919756684 $354 $485 forward 7 unknown #
coedge $-1 $245 $244 $482 $486 forward $97 $-1 #
edge $-1 $361 -56.091799676503797 $484 56.091799676503797 $353 $487 forward 7 unknown #
coedge $-1 $366 $365 $245 $359 reversed $350 $-1 #
edge $-1 $488 -56.091799676503797 $360 56.091799676503797 $358 $489 forward 7 unknown #
vertex $-1 $247 $490 #
vertex $-1 $372 $491 #
straight-curve $-1 56.091799676503797 0 -10.473380919756684 0 -1 0 I I #
coedge $-1 $352 $354 $248 $364 reversed $241 $-1 #
edge $-1 $367 -27.254345891585576 $370 27.254345891585576 $363 $492 forward 7 unknown #
coedge $-1 $358 $249 $254 $373 forward $350 $-1 #
coedge $-1 $249 $358 $352 $483 reversed $350 $-1 #
vertex $-1 $250 $493 #
straight-curve $-1 0 27.254345891585576 10.473380919756684 -1 0 0 I I #
coedge $-1 $251 $353 $253 $372 reversed $152 $-1 #
vertex $-1 $364 $494 #
straight-curve $-1 0 -27.254345891585576 10.473380919756684 1 0 0 I I #
edge $-1 $256 -10.473380919756684 $361 10.473380919756684 $253 $495 forward 7 unknown #
edge $-1 $257 -10.473380919756684 $360 10.473380919756684 $254 $496 forward 7 unknown #
point $-1 56.091799676503797 -27.254345891585576 10.473380919756684 #
point $-1 56.091799676503797 27.254345891585576 10.473380919756684 #
face $-1 $-1 $392 $37 $-1 $497 forward single #
plane-surface $-1 -59.870146876912116 -6.3075840520722082 0 0 -1 0 0 0 -1 forward_v I I I I #
coedge $-1 $498 $499 $395 $500 forward $260 $-1 #
coedge $-1 $388 $262 $263 $384 reversed $160 $-1 #
coedge $-1 $262 $388 $391 $501 reversed $160 $-1 #
coedge $-1 $499 $498 $262 $382 reversed $260 $-1 #
edge $-1 $502 -10.473380919756684 $503 10.473380919756684 $381 $504 forward 7 unknown #
coedge $-1 $264 $263 $498 $505 forward $101 $-1 #
edge $-1 $386 -3.7783472004083194 $503 3.7783472004083194 $379 $506 forward 7 unknown #
edge $-1 $507 -3.7783472004083194 $272 3.7783472004083194 $269 $508 forward 7 unknown #
vertex $-1 $384 $509 #
straight-curve $-1 -56.091799676503797 0 -10.473380919756684 0 -1 0 I I #
coedge $-1 $380 $379 $266 $389 reversed $160 $-1 #
edge $-1 $393 -10.473380919756684 $386 10.473380919756684 $388 $510 forward 7 unknown #
coedge $-1 $511 $267 $270 $396 forward $392 $-1 #
coedge $-1 $267 $511 $380 $501 forward $392 $-1 #
loop $-1 $-1 $267 $376 #
vertex $-1 $268 $512 #
straight-curve $-1 -56.091799676503797 0 10.473380919756684 0 1 0 I I #
coedge $-1 $270 $269 $378 $500 reversed $271 $-1 #
edge $-1 $273 -3.7783472004083194 $513 3.7783472004083194 $270 $514 forward 7 unknown #
point $-1 -56.091799676503797 -6.3075840520722082 -10.473380919756684 #
point $-1 -56.091799676503797 -6.3075840520722082 10.473380919756684 #
loop $-1 $-1 $283 $275 #
plane-surface $-1 0 27.254345891585576 0 0 -1 0 0 0 -1 forward_v I I I I #
coedge $-1 $402 $278 $280 $406 reversed $168 $-1 #
coedge $-1 $278 $401 $515 $516 reversed $168 $-1 #
coedge $-1 $286 $281 $278 $404 forward $276 $-1 #
edge $-1 $407 -5.06862218070453 $517 8.0992940259642801 $403 $518 forward 7 unknown #
coedge $-1 $280 $279 $410 $519 reversed $105 $-1 #
edge $-1 $520 -54.508691783171145 $407 -39.146560890960124 $401 $521 forward 7 unknown #
vertex $-1 $282 $522 #
straight-curve $-1 4.3923133497317082 14.086429684916769 10.473380919756682 1 0 0 I I #
coedge $-1 $515 $283 $286 $414 reversed $399 $-1 #
coedge $-1 $283 $515 $405 $519 forward $399 $-1 #
vertex $-1 $284 $523 #
straight-curve $-1 -0.99490920990646359 27.254345891585576 63.39773156361705 0 0 1 I I #
straight-curve $-1 -0.99490920990646359 -19.468722084606419 30.635350548587937 0 0.85716729658548041 -0.51503808176128008 I I #
edge $-1 $517 -18.564162608833296 $287 0.99490920990646359 $409 $524 forward 7 unknown #
point $-1 -0.99490920990646359 27.254345891585576 10.473380919756684 #
point $-1 -0.99490920990646359 14.086429684916766 10.473380919756686 #
edge $-1 $525 1 $525 0 $290 $-1 forward 7 unknown #
vertex $-1 $291 $526 #
ellipse-curve $-1 2.9169051538414905 19.907740987291156 5.2480823063734814 0 0.51503808176128008 0.85716729658548041 1 0 0 1 I I #
point $-1 3.9169051538414905 20.670387788251183 6.5173397065116543 #
edge $-1 $527 1 $527 0 $294 $-1 forward 7 unknown #
vertex $-1 $295 $528 #
ellipse-curve $-1 8.7846266994634163 19.907740987291156 5.2480823063734814 0 0.51503808176128008 0.85716729658548041 1 0 0 1 I I #
point $-1 9.7846266994634163 20.670387788251183 6.5173397065116543 #
edge $-1 $529 1 $529 0 $298 $-1 forward 7 unknown #
vertex $-1 $299 $530 #
ellipse-curve $-1 14.652348245085349 19.907740987291156 5.2480823063734814 0 0.51503808176128008 0.85716729658548041 1 0 0 1 I I #
point $-1 15.652348245085349 20.670387788251183 6.5173397065116543 #
loop $-1 $-1 $310 $302 #
plane-surface $-1 0 -27.254345891585576 0 0 1 0 0 0 1 forward_v I I I I #
coedge $-1 $432 $305 $307 $436 reversed $197 $-1 #
coedge $-1 $305 $431 $531 $532 reversed $197 $-1 #
coedge $-1 $313 $308 $305 $434 forward $303 $-1 #
edge $-1 $437 -37.195609587318678 $533 -31.752046696616365 $433 $534 forward 7 unknown #
coedge $-1 $307 $306 $440 $535 reversed $124 $-1 #
edge $-1 $536 -6.040265601636166e-015 $437 9.2611425240576217 $431 $537 forward 7 unknown #
vertex $-1 $309 $538 #
straight-curve $-1 -7.2211466979611174 -21.810783000883266 10.473380919756684 -1 0 0 I I #
coedge $-1 $531 $310 $313 $444 reversed $429 $-1 #
coedge $-1 $310 $531 $435 $535 forward $429 $-1 #
vertex $-1 $311 $539 #
straight-curve $-1 -8.5533380199852935 -27.254345891585572 34.460411569912225 0 0 1 I I #
straight-curve $-1 -8.5533380199852935 -27.254345891585572 2.9809591546745082 0 -0.5877852410284794 -0.80901700255871778 I I #
edge $-1 $533 -20.331248771859176 $314 -8.5533380199852935 $439 $540 forward 7 unknown #
point $-1 -8.5533380199852935 -27.254345891585576 10.473380919756684 #
point $-1 -8.5533380199852935 -21.810783000883262 10.473380919756682 #
edge $-1 $541 1 $541 0 $317 $-1 forward 7 unknown #
vertex $-1 $318 $542 #
ellipse-curve $-1 -16.966131414180921 -21.52426162196727 4.5415101622611322 0 -0.80901700255871778 0.5877852410284794 1 0 0 1 I I #
point $-1 -15.966131414180921 -24.532564446234424 6.7271700372155987 #
edge $-1 $543 1 $543 0 $321 $-1 forward 7 unknown #
vertex $-1 $322 $544 #
ellipse-curve $-1 -11.918455377663541 -21.52426162196727 4.5415101622611322 0 -0.80901700255871778 0.5877852410284794 1 0 0 1 I I #
point $-1 -10.918455377663541 -24.532564446234424 6.7271700372155987 #
plane-surface $-1 0 0 10.473380919756684 0 0 1 1 0 0 forward_v I I I I #
coedge $-1 $466 $465 $458 $545 forward $326 $-1 #
coedge $-1 $458 $328 $330 $462 reversed $219 $-1 #
coedge $-1 $328 $457 $456 $545 reversed $219 $-1 #
coedge $-1 $336 $331 $328 $460 forward $337 $-1 #
edge $-1 $463 -37.195609587318678 $546 -31.752046696616365 $459 $547 forward 7 unknown #
coedge $-1 $330 $329 $466 $548 reversed $138 $-1 #
edge $-1 $549 -6.040265601636166e-015 $463 9.2611425240576217 $457 $550 forward 7 unknown #
vertex $-1 $332 $551 #
straight-curve $-1 10.999493898369423 -21.810783000883266 10.473380919756684 -1 0 0 I I #
coedge $-1 $456 $333 $336 $470 reversed $326 $-1 #
coedge $-1 $333 $456 $461 $548 forward $326 $-1 #
vertex $-1 $334 $552 #
straight-curve $-1 27.887943172675786 -27.254345891585572 34.460411569912225 0 0 1 I I #
straight-curve $-1 27.887943172675786 -27.254345891585572 2.9809591546745082 0 -0.5877852410284794 -0.80901700255871778 I I #
edge $-1 $546 16.110032420801904 $338 27.887943172675786 $465 $553 forward 7 unknown #
point $-1 27.887943172675786 -27.254345891585576 10.473380919756684 #
point $-1 27.887943172675786 -21.810783000883262 10.473380919756682 #
edge $-1 $554 1 $554 0 $341 $-1 forward 7 unknown #
vertex $-1 $342 $555 #
ellipse-curve $-1 19.475149778480159 -21.52426162196727 4.5415101622611322 0 -0.80901700255871778 0.5877852410284794 1 0 0 1 I I #
point $-1 20.475149778480159 -24.532564446234424 6.7271700372155987 #
edge $-1 $556 1 $556 0 $345 $-1 forward 7 unknown #
vertex $-1 $346 $557 #
ellipse-curve $-1 24.522825814997546 -21.52426162196727 4.5415101622611322 0 -0.80901700255871778 0.5877852410284794 1 0 0 1 I I #
point $-1 25.522825814997546 -24.532564446234424 6.7271700372155987 #
plane-surface $-1 56.091799676503797 0 0 -1 0 0 0 0 1 forward_v I I I I #
coedge $-1 $354 $352 $356 $486 reversed $241 $-1 #
edge $-1 $367 -10.473380919756684 $488 10.473380919756684 $366 $558 forward 7 unknown #
vertex $-1 $486 $559 #
straight-curve $-1 -56.091799676503797 -27.254345891585576 0 0 0 -1 I I #
edge $-1 $484 -27.254345891585576 $488 27.254345891585576 $482 $560 forward 7 unknown #
straight-curve $-1 0 -27.254345891585576 -10.473380919756684 -1 0 0 I I #
vertex $-1 $359 $561 #
straight-curve $-1 0 27.254345891585576 -10.473380919756684 1 0 0 I I #
point $-1 56.091799676503797 27.254345891585576 -10.473380919756684 #
point $-1 56.091799676503797 -27.254345891585576 -10.473380919756684 #
straight-curve $-1 -56.091799676503797 0 10.473380919756684 0 -1 0 I I #
point $-1 -56.091799676503797 27.254345891585576 10.473380919756684 #
point $-1 -56.091799676503797 -27.254345891585576 10.473380919756684 #
straight-curve $-1 56.091799676503797 -27.254345891585576 0 0 0 -1 I I #
straight-curve $-1 56.091799676503797 27.254345891585576 0 0 0 -1 I I #
plane-surface $-1 0 0 10.473380919756684 0 0 1 1 0 0 forward_v I I I I #
coedge $-1 $381 $378 $383 $505 reversed $260 $-1 #
coedge $-1 $378 $381 $511 $562 reversed $260 $-1 #
edge $-1 $513 -10.473380919756684 $507 10.473380919756684 $395 $563 forward 7 unknown #
edge $-1 $502 -3.7783472004083194 $393 3.7783472004083194 $380 $564 forward 7 unknown #
vertex $-1 $562 $565 #
vertex $-1 $505 $566 #
straight-curve $-1 -63.648494077320436 -10.248710228310003 0 0 0 -1 I I #
edge $-1 $503 -1.9705630881188974 $507 1.9705630881188974 $498 $567 forward 7 unknown #
straight-curve $-1 -59.870146876912116 -10.248710228310003 -10.473380919756684 -1 0 0 I I #
vertex $-1 $385 $568 #
straight-curve $-1 -59.870146876912116 -6.3075840520722082 -10.473380919756684 1 0 0 I I #
point $-1 -56.091799676503797 -10.248710228310003 -10.473380919756684 #
straight-curve $-1 -56.091799676503797 -10.248710228310003 0 0 0 -1 I I #
coedge $-1 $391 $390 $499 $562 forward $392 $-1 #
point $-1 -56.091799676503797 -10.248710228310003 10.473380919756684 #
vertex $-1 $396 $569 #
straight-curve $-1 -59.870146876912116 -6.3075840520722082 10.473380919756684 -1 0 0 I I #
coedge $-1 $410 $409 $402 $516 forward $399 $-1 #
edge $-1 $517 52.924350643860365 $520 60.836433070350424 $515 $570 forward 7 unknown #
vertex $-1 $414 $571 #
straight-curve $-1 18.564162608833296 19.155051865621296 10.473380919756686 0 1 0 I I #
edge $-1 $520 -14.171849259101588 $411 5.3872225596381718 $410 $572 forward 7 unknown #
vertex $-1 $519 $573 #
straight-curve $-1 18.564162608833296 -19.468722084606419 30.635350548587937 0 -0.85716729658548041 0.51503808176128008 I I #
point $-1 18.564162608833296 14.086429684916766 10.473380919756686 #
point $-1 -0.99490920990646359 27.254345891585579 2.561298493266623 #
straight-curve $-1 0 27.254345891585576 10.473380919756684 -1 0 0 I I #
vertex $-1 $417 $574 #
point $-1 3.9169051538414905 19.907740987291156 5.2480823063734814 #
vertex $-1 $421 $575 #
point $-1 9.7846266994634163 19.907740987291156 5.2480823063734814 #
vertex $-1 $425 $576 #
point $-1 15.652348245085349 19.907740987291156 5.2480823063734814 #
coedge $-1 $440 $439 $432 $532 forward $429 $-1 #
edge $-1 $533 23.987030650155539 $536 31.47945241523772 $531 $577 forward 7 unknown #
vertex $-1 $444 $578 #
straight-curve $-1 -20.331248771859176 -59.00639258820194 10.473380919756686 0 -1 0 I I #
edge $-1 $536 -13.110102073898059 $441 -1.3321913220241761 $440 $579 forward 7 unknown #
vertex $-1 $535 $580 #
straight-curve $-1 -20.331248771859176 -27.254345891585572 2.9809591546745082 0 0.5877852410284794 0.80901700255871778 I I #
point $-1 -20.331248771859176 -21.810783000883262 10.473380919756682 #
point $-1 -8.5533380199852935 -27.254345891585576 2.9809591546745033 #
straight-curve $-1 0 -27.254345891585576 10.473380919756684 1 0 0 I I #
vertex $-1 $447 $581 #
point $-1 -15.966131414180921 -21.52426162196727 4.5415101622611322 #
vertex $-1 $451 $582 #
point $-1 -10.918455377663541 -21.52426162196727 4.5415101622611322 #
edge $-1 $546 23.987030650155539 $549 31.47945241523772 $456 $583 forward 7 unknown #
vertex $-1 $470 $584 #
straight-curve $-1 16.110032420801904 -59.00639258820194 10.473380919756686 0 -1 0 I I #
edge $-1 $549 5.1105385224324813 $467 16.888449274306364 $466 $585 forward 7 unknown #
vertex $-1 $548 $586 #
straight-curve $-1 16.110032420801904 -27.254345891585572 2.9809591546745082 0 0.5877852410284794 0.80901700255871778 I I #
point $-1 16.110032420801904 -21.810783000883262 10.473380919756682 #
point $-1 27.887943172675786 -27.254345891585576 2.9809591546745033 #
straight-curve $-1 0 -27.254345891585576 10.473380919756684 1 0 0 I I #
vertex $-1 $473 $587 #
point $-1 20.475149778480159 -21.52426162196727 4.5415101622611322 #
vertex $-1 $477 $588 #
point $-1 25.522825814997546 -21.52426162196727 4.5415101622611322 #
straight-curve $-1 -56.091799676503797 27.254345891585576 0 0 0 -1 I I #
point $-1 -56.091799676503797 -27.254345891585576 -10.473380919756684 #
straight-curve $-1 -56.091799676503797 0 -10.473380919756684 0 1 0 I I #
point $-1 -56.091799676503797 27.254345891585576 -10.473380919756684 #
edge $-1 $513 -1.9705630881188974 $502 1.9705630881188974 $499 $589 forward 7 unknown #
straight-curve $-1 -63.648494077320436 -6.3075840520722082 0 0 0 -1 I I #
straight-curve $-1 -59.870146876912116 -10.248710228310003 10.473380919756684 1 0 0 I I #
point $-1 -63.648494077320436 -10.248710228310003 10.473380919756684 #
point $-1 -63.648494077320436 -10.248710228310003 -10.473380919756684 #
straight-curve $-1 -63.648494077320436 -8.2781471401911055 -10.473380919756684 0 1 0 I I #
point $-1 -63.648494077320436 -6.3075840520722082 -10.473380919756684 #
point $-1 -63.648494077320436 -6.3075840520722082 10.473380919756684 #
straight-curve $-1 18.564162608833296 27.254345891585576 63.39773156361705 0 0 -1 I I #
point $-1 18.564162608833296 27.254345891585576 10.473380919756684 #
straight-curve $-1 4.3923133497317082 27.254345891585572 2.5612984932666265 -1 0 0 I I #
point $-1 18.564162608833296 27.254345891585579 2.561298493266623 #
point $-1 2.9169051538414905 19.392702905529873 4.3909150097880012 #
point $-1 8.7846266994634163 19.392702905529873 4.3909150097880012 #
point $-1 14.652348245085349 19.392702905529873 4.3909150097880012 #
straight-curve $-1 -20.331248771859176 -27.254345891585572 34.460411569912225 0 0 -1 I I #
point $-1 -20.331248771859176 -27.254345891585576 10.473380919756684 #
straight-curve $-1 -7.2211466979611174 -27.254345891585576 2.9809591546744998 1 0 0 I I #
point $-1 -20.331248771859176 -27.254345891585576 2.9809591546745033 #
point $-1 -16.966131414180921 -20.715244619408551 3.9537249212326531 #
point $-1 -11.918455377663541 -20.715244619408551 3.9537249212326531 #
straight-curve $-1 16.110032420801904 -27.254345891585572 34.460411569912225 0 0 -1 I I #
point $-1 16.110032420801904 -27.254345891585576 10.473380919756684 #
straight-curve $-1 10.999493898369423 -27.254345891585576 2.9809591546744998 1 0 0 I I #
point $-1 16.110032420801904 -27.254345891585576 2.9809591546745033 #
point $-1 19.475149778480159 -20.715244619408551 3.9537249212326531 #
point $-1 24.522825814997546 -20.715244619408551 3.9537249212326531 #
straight-curve $-1 -63.648494077320436 -8.2781471401911055 10.473380919756684 0 -1 0 I I #
End-of-ACIS-data 