500 0 9 0           
7 Unknown 11 ACIS 5.0 NT 24 Fri Mar 26 17:45:41 1999 
-1 9.9999999999999995e-007 1e-010 
body $-1 $9 $-1 $10 #
body $-1 $11 $-1 $12 #
body $-1 $13 $-1 $14 #
body $-1 $15 $-1 $16 #
body $-1 $17 $-1 $18 #
body $-1 $19 $-1 $20 #
body $-1 $21 $-1 $22 #
body $-1 $23 $-1 $24 #
body $-1 $25 $-1 $26 #
lump $-1 $-1 $27 $0 #
transform $-1 1 0 0 0 1 0 0 0 1 61.216467787713249 26.543514237930612 10.990037200938659 1 rotate no_reflect no_shear #
lump $-1 $-1 $28 $1 #
transform $-1 1 0 0 0 1 0 0 0 1 61.216467787713249 26.543514237930612 10.990037200938659 1 rotate no_reflect no_shear #
lump $-1 $-1 $29 $2 #
transform $-1 1 0 0 0 1 0 0 0 1 61.216467787713249 26.543514237930612 10.990037200938659 1 rotate no_reflect no_shear #
lump $-1 $-1 $30 $3 #
transform $-1 1 0 0 0 1 0 0 0 1 61.216467787713249 26.543514237930612 10.990037200938659 1 rotate no_reflect no_shear #
lump $-1 $-1 $31 $4 #
transform $-1 1 0 0 0 1 0 0 0 1 61.216467787713249 26.543514237930612 10.990037200938659 1 rotate no_reflect no_shear #
lump $-1 $-1 $32 $5 #
transform $-1 1 0 0 0 1 0 0 0 1 61.216467787713249 26.543514237930612 10.990037200938659 1 rotate no_reflect no_shear #
lump $-1 $-1 $33 $6 #
transform $-1 1 0 0 0 1 0 0 0 1 61.216467787713249 26.543514237930612 10.990037200938659 1 rotate no_reflect no_shear #
lump $-1 $-1 $34 $7 #
transform $-1 1 0 0 0 1 0 0 0 1 61.216467787713249 26.543514237930612 10.990037200938659 1 rotate no_reflect no_shear #
lump $-1 $-1 $35 $8 #
transform $-1 1 0 0 0 1 0 0 0 1 61.216467787713249 26.543514237930612 10.990037200938659 1 rotate no_reflect no_shear #
shell $-1 $-1 $-1 $36 $-1 $9 #
shell $-1 $-1 $-1 $37 $-1 $11 #
shell $-1 $-1 $-1 $38 $-1 $13 #
shell $-1 $-1 $-1 $39 $-1 $15 #
shell $-1 $-1 $-1 $40 $-1 $17 #
shell $-1 $-1 $-1 $41 $-1 $19 #
shell $-1 $-1 $-1 $42 $-1 $21 #
shell $-1 $-1 $-1 $43 $-1 $23 #
shell $-1 $-1 $-1 $44 $-1 $25 #
face $-1 $45 $46 $27 $-1 $47 forward single #
face $-1 $48 $49 $28 $-1 $50 forward single #
face $-1 $51 $52 $29 $-1 $53 reversed single #
face $-1 $54 $55 $30 $-1 $56 forward single #
face $-1 $57 $58 $31 $-1 $59 forward single #
face $-1 $60 $61 $32 $-1 $62 forward single #
face $-1 $63 $64 $33 $-1 $65 reversed single #
face $-1 $66 $67 $34 $-1 $68 forward single #
face $-1 $69 $70 $35 $-1 $71 forward single #
face $-1 $72 $73 $27 $-1 $74 reversed single #
loop $-1 $-1 $75 $36 #
plane-surface $-1 0 0 10.990037200938659 0 0 1 1 0 0 forward_v I I I I #
face $-1 $76 $77 $28 $-1 $78 reversed single #
loop $-1 $-1 $79 $37 #
plane-surface $-1 -61.216467787713249 0 0 1 0 0 0 0 -1 forward_v I I I I #
face $-1 $80 $81 $29 $-1 $82 reversed single #
loop $-1 $-1 $83 $38 #
plane-surface $-1 -12.143740101653798 64.574866396945382 133.83426202755027 1 0 0 0 -0.64278761758704617 -0.76604443648966558 forward_v I I I I #
face $-1 $84 $85 $30 $-1 $86 forward single #
loop $-1 $87 $88 $39 #
cone-surface $-1 -7.1204397819141079 22.783119737596955 7.5736655940417439 0 -0.64278761758704617 -0.76604443648966558 1 0 0 1 I I 0 1 1 forward I I I I #
face $-1 $89 $90 $31 $-1 $91 forward single #
loop $-1 $92 $93 $40 #
cone-surface $-1 0.41451069769543381 22.783119737596955 7.5736655940417439 0 -0.64278761758704617 -0.76604443648966558 1 0 0 1 I I 0 1 1 forward I I I I #
face $-1 $94 $95 $32 $-1 $96 forward single #
loop $-1 $97 $98 $41 #
cone-surface $-1 7.9494611773049755 22.783119737596955 7.5736655940417439 0 -0.64278761758704617 -0.76604443648966558 1 0 0 1 I I 0 1 1 forward I I I I #
face $-1 $99 $100 $33 $-1 $101 reversed single #
loop $-1 $-1 $102 $42 #
plane-surface $-1 36.017621442903135 -114.61439867834758 88.699651386483836 -1 0 0 0 -0.71933980857756763 0.69465836192734942 forward_v I I I I #
face $-1 $103 $104 $34 $-1 $105 forward single #
loop $-1 $106 $107 $43 #
cone-surface $-1 23.802155925055438 -22.176820933692262 6.5256651887539618 0 0.71933980857756763 -0.69465836192734942 1.5 0 0 1 I I 0 1 1.5 forward I I I I #
face $-1 $108 $109 $35 $-1 $110 forward single #
loop $-1 $111 $112 $44 #
cone-surface $-1 31.131435235764052 -22.176820933692262 6.5256651887539618 0 0.71933980857756763 -0.69465836192734942 1.5 0 0 1 I I 0 1 1.5 forward I I I I #
face $-1 $113 $114 $27 $-1 $115 reversed single #
loop $-1 $-1 $116 $45 #
plane-surface $-1 0 0 -10.990037200938659 0 0 1 1 0 0 forward_v I I I I #
coedge $-1 $117 $118 $119 $120 forward $46 $-1 #
face $-1 $121 $122 $28 $-1 $123 reversed single #
loop $-1 $-1 $124 $48 #
plane-surface $-1 0 0 -10.990037200938659 0 0 1 1 0 0 forward_v I I I I #
coedge $-1 $125 $126 $127 $128 forward $49 $-1 #
face $-1 $129 $130 $29 $-1 $131 reversed single #
loop $-1 $-1 $132 $51 #
plane-surface $-1 0.41451069769543381 -14.123508575771311 40.045192886897155 0 0.64278761758704617 0.76604443648966558 1 0 0 forward_v I I I I #
coedge $-1 $133 $134 $135 $136 reversed $52 $-1 #
face $-1 $-1 $137 $30 $-1 $138 forward single #
loop $-1 $139 $140 $54 #
cone-surface $-1 -7.1204397819141079 21.721550111884408 6.308536205308009 0 -0.64278761758704617 -0.76604443648966558 0.5 0 0 1 I I -0.70710678118654746 0.70710678118654746 0.5 forward I I I I #
loop $-1 $-1 $141 $39 #
coedge $-1 $88 $88 $142 $143 reversed $55 $-1 #
face $-1 $-1 $144 $31 $-1 $145 forward single #
loop $-1 $146 $147 $57 #
cone-surface $-1 0.41451069769543381 21.721550111884408 6.308536205308009 0 -0.64278761758704617 -0.76604443648966558 0.5 0 0 1 I I -0.70710678118654746 0.70710678118654746 0.5 forward I I I I #
loop $-1 $-1 $148 $40 #
coedge $-1 $93 $93 $149 $150 reversed $58 $-1 #
face $-1 $-1 $151 $32 $-1 $152 forward single #
loop $-1 $153 $154 $60 #
cone-surface $-1 7.9494611773049755 21.721550111884408 6.308536205308009 0 -0.64278761758704617 -0.76604443648966558 0.5 0 0 1 I I -0.70710678118654746 0.70710678118654746 0.5 forward I I I I #
loop $-1 $-1 $155 $41 #
coedge $-1 $98 $98 $156 $157 reversed $61 $-1 #
face $-1 $158 $159 $33 $-1 $160 reversed single #
loop $-1 $-1 $161 $63 #
plane-surface $-1 27.466795580409745 -26.543514237930623 3.6505889137013554 0 -0.71933980857756763 0.69465836192734942 1 0 0 forward_v I I I I #
coedge $-1 $162 $163 $164 $165 reversed $64 $-1 #
face $-1 $-1 $166 $34 $-1 $167 forward single #
loop $-1 $168 $169 $66 #
cone-surface $-1 23.802155925055438 -20.814434101038582 5.2100235487423987 0 0.71933980857756763 -0.69465836192734942 0.75 0 0 1 I I -0.70710678118654757 0.70710678118654757 0.75 forward I I I I #
loop $-1 $-1 $170 $43 #
coedge $-1 $107 $107 $171 $172 reversed $67 $-1 #
face $-1 $-1 $173 $35 $-1 $174 forward single #
loop $-1 $175 $176 $69 #
cone-surface $-1 31.131435235764052 -20.814434101038582 5.2100235487423987 0 0.71933980857756763 -0.69465836192734942 0.75 0 0 1 I I -0.70710678118654757 0.70710678118654757 0.75 forward I I I I #
loop $-1 $-1 $177 $44 #
coedge $-1 $112 $112 $178 $179 reversed $70 $-1 #
face $-1 $180 $181 $27 $-1 $182 reversed single #
loop $-1 $-1 $183 $72 #
plane-surface $-1 0 -26.543514237930612 0 0 1 0 0 0 1 forward_v I I I I #
coedge $-1 $184 $185 $186 $187 forward $73 $-1 #
coedge $-1 $188 $75 $189 $190 forward $46 $-1 #
coedge $-1 $75 $188 $191 $192 forward $46 $-1 #
coedge $-1 $193 $194 $75 $120 reversed $195 $-1 #
edge $-1 $196 -26.543514237930612 $197 26.543514237930612 $119 $198 forward 7 unknown #
face $-1 $199 $200 $28 $-1 $201 reversed single #
loop $-1 $-1 $202 $76 #
plane-surface $-1 -66.412759421008658 -24.498574605378629 0 0 1 0 0 0 1 forward_v I I I I #
coedge $-1 $203 $204 $126 $205 forward $77 $-1 #
coedge $-1 $206 $79 $207 $208 reversed $49 $-1 #
coedge $-1 $79 $206 $124 $205 reversed $49 $-1 #
coedge $-1 $209 $210 $79 $128 reversed $211 $-1 #
edge $-1 $212 -10.990037200938659 $213 10.990037200938659 $127 $214 forward 7 unknown #
face $-1 $215 $216 $29 $-1 $217 forward single #
loop $-1 $-1 $218 $80 #
plane-surface $-1 12.972761497044665 64.574866396945382 133.83426202755027 -1 0 0 0 0.64278761758704617 0.76604443648966558 forward_v I I I I #
coedge $-1 $219 $220 $221 $222 reversed $81 $-1 #
coedge $-1 $134 $83 $223 $224 reversed $52 $-1 #
coedge $-1 $83 $133 $219 $225 reversed $52 $-1 #
coedge $-1 $221 $226 $83 $136 forward $216 $-1 #
edge $-1 $227 5.7439189605420786 $228 11.784356327371313 $135 $229 forward 7 unknown #
loop $-1 $-1 $142 $84 #
plane-surface $-1 0.41451069769543381 -14.123508575771311 40.045192886897155 0 0.64278761758704617 0.76604443648966558 1 0 0 forward_v I I I I #
loop $-1 $-1 $230 $54 #
coedge $-1 $140 $140 $141 $231 reversed $85 $-1 #
coedge $-1 $141 $141 $140 $231 forward $87 $-1 #
coedge $-1 $142 $142 $88 $143 forward $137 $-1 #
edge $-1 $232 -6.0976456530054579e-016 $232 6.2831853071795996 $142 $233 forward 7 unknown #
loop $-1 $-1 $149 $89 #
plane-surface $-1 0.41451069769543381 -14.123508575771311 40.045192886897155 0 0.64278761758704617 0.76604443648966558 1 0 0 forward_v I I I I #
loop $-1 $-1 $234 $57 #
coedge $-1 $147 $147 $148 $235 reversed $90 $-1 #
coedge $-1 $148 $148 $147 $235 forward $92 $-1 #
coedge $-1 $149 $149 $93 $150 forward $144 $-1 #
edge $-1 $236 -6.0976456530054579e-016 $236 6.2831853071795996 $149 $237 forward 7 unknown #
loop $-1 $-1 $156 $94 #
plane-surface $-1 0.41451069769543381 -14.123508575771311 40.045192886897155 0 0.64278761758704617 0.76604443648966558 1 0 0 forward_v I I I I #
loop $-1 $-1 $238 $60 #
coedge $-1 $154 $154 $155 $239 reversed $95 $-1 #
coedge $-1 $155 $155 $154 $239 forward $97 $-1 #
coedge $-1 $156 $156 $98 $157 forward $151 $-1 #
edge $-1 $240 -6.0976456530054579e-016 $240 6.2831853071795996 $156 $241 forward 7 unknown #
face $-1 $242 $243 $33 $-1 $244 forward single #
loop $-1 $-1 $245 $99 #
plane-surface $-1 18.915969717916354 -114.61439867834758 88.699651386483836 1 0 0 0 0.71933980857756763 -0.69465836192734942 forward_v I I I I #
coedge $-1 $246 $247 $248 $249 reversed $100 $-1 #
coedge $-1 $163 $102 $250 $251 reversed $64 $-1 #
coedge $-1 $102 $162 $246 $252 reversed $64 $-1 #
coedge $-1 $248 $253 $102 $165 forward $243 $-1 #
edge $-1 $254 30.76368510124318 $255 37.851307757278875 $164 $256 forward 7 unknown #
loop $-1 $-1 $171 $103 #
plane-surface $-1 27.466795580409745 -26.543514237930623 3.6505889137013554 0 -0.71933980857756763 0.69465836192734942 1 0 0 forward_v I I I I #
loop $-1 $-1 $257 $66 #
coedge $-1 $169 $169 $170 $258 reversed $104 $-1 #
coedge $-1 $170 $170 $169 $258 forward $106 $-1 #
coedge $-1 $171 $171 $107 $172 forward $166 $-1 #
edge $-1 $259 0 $259 6.2831853071796004 $171 $260 forward 7 unknown #
loop $-1 $-1 $178 $108 #
plane-surface $-1 27.466795580409745 -26.543514237930623 3.6505889137013554 0 -0.71933980857756763 0.69465836192734942 1 0 0 forward_v I I I I #
loop $-1 $-1 $261 $69 #
coedge $-1 $176 $176 $177 $262 reversed $109 $-1 #
coedge $-1 $177 $177 $176 $262 forward $111 $-1 #
coedge $-1 $178 $178 $112 $179 forward $173 $-1 #
edge $-1 $263 0 $263 6.2831853071796004 $178 $264 forward 7 unknown #
face $-1 $265 $266 $27 $-1 $267 reversed single #
loop $-1 $-1 $268 $113 #
plane-surface $-1 -61.216467787713249 0 0 1 0 0 0 0 -1 forward_v I I I I #
coedge $-1 $269 $191 $270 $271 forward $114 $-1 #
coedge $-1 $272 $116 $269 $273 forward $73 $-1 #
coedge $-1 $116 $272 $274 $275 forward $73 $-1 #
coedge $-1 $194 $193 $116 $187 reversed $195 $-1 #
edge $-1 $276 -26.543514237930612 $277 26.543514237930612 $186 $278 forward 7 unknown #
coedge $-1 $118 $117 $279 $280 forward $46 $-1 #
coedge $-1 $281 $282 $117 $190 reversed $266 $-1 #
edge $-1 $197 -61.216467787713249 $283 61.216467787713249 $189 $284 forward 7 unknown #
coedge $-1 $183 $285 $118 $192 reversed $114 $-1 #
edge $-1 $286 -61.216467787713249 $196 61.216467787713249 $191 $287 forward 7 unknown #
coedge $-1 $186 $119 $285 $288 forward $195 $-1 #
coedge $-1 $119 $186 $281 $289 reversed $195 $-1 #
loop $-1 $-1 $193 $265 #
vertex $-1 $120 $290 #
vertex $-1 $120 $291 #
straight-curve $-1 61.216467787713249 0 10.990037200938659 0 1 0 I I #
face $-1 $292 $211 $28 $-1 $293 reversed single #
loop $-1 $-1 $294 $121 #
plane-surface $-1 -71.609051054304061 -22.369491773632099 0 1 0 0 0 0 -1 forward_v I I I I #
coedge $-1 $295 $296 $297 $298 forward $122 $-1 #
coedge $-1 $299 $124 $295 $300 forward $77 $-1 #
coedge $-1 $124 $299 $209 $301 forward $77 $-1 #
edge $-1 $212 20.240408941885569 $302 24.498574605378629 $124 $303 forward 7 unknown #
coedge $-1 $126 $125 $304 $305 forward $49 $-1 #
coedge $-1 $306 $307 $125 $208 forward $308 $-1 #
edge $-1 $309 -24.498574605378629 $213 -20.240408941885569 $207 $310 forward 7 unknown #
coedge $-1 $311 $127 $204 $301 reversed $211 $-1 #
coedge $-1 $127 $311 $306 $312 reversed $211 $-1 #
loop $-1 $-1 $127 $199 #
vertex $-1 $205 $313 #
vertex $-1 $312 $314 #
straight-curve $-1 -61.216467787713249 -20.240408941885569 0 0 0 1 I I #
face $-1 $-1 $315 $29 $-1 $316 reversed single #
loop $-1 $-1 $135 $129 #
plane-surface $-1 0 0 10.990037200938659 0 0 1 1 0 0 forward_v I I I I #
coedge $-1 $317 $318 $319 $320 reversed $130 $-1 #
coedge $-1 $321 $132 $134 $225 forward $81 $-1 #
coedge $-1 $132 $321 $317 $322 forward $81 $-1 #
coedge $-1 $319 $135 $132 $222 forward $216 $-1 #
edge $-1 $228 -12.350995450501514 $323 12.765506148196948 $221 $324 forward 7 unknown #
coedge $-1 $325 $326 $133 $224 forward $315 $-1 #
edge $-1 $327 -60.995622685652478 $227 -55.927093812836475 $223 $328 forward 7 unknown #
edge $-1 $228 45.201797438208828 $327 53.087028475861196 $134 $329 forward 7 unknown #
coedge $-1 $135 $319 $325 $330 forward $216 $-1 #
vertex $-1 $224 $331 #
vertex $-1 $136 $332 #
straight-curve $-1 -12.143740101653798 32.287433198472691 10.990037200938659 0 -1 0 I I #
coedge $-1 $230 $230 $-1 $333 reversed $139 $-1 #
edge $-1 $334 0 $334 6.2831853071796004 $140 $335 forward 7 unknown #
vertex $-1 $143 $336 #
ellipse-curve $-1 -7.1204397819141079 23.523295554515993 8.4557727645306606 0 0.64278761758704617 0.76604443648966558 1 0 0 1 I I #
coedge $-1 $234 $234 $-1 $337 reversed $146 $-1 #
edge $-1 $338 0 $338 6.2831853071796004 $147 $339 forward 7 unknown #
vertex $-1 $150 $340 #
ellipse-curve $-1 0.41451069769543381 23.523295554515993 8.4557727645306606 0 0.64278761758704617 0.76604443648966558 1 0 0 1 I I #
coedge $-1 $238 $238 $-1 $341 reversed $153 $-1 #
edge $-1 $342 0 $342 6.2831853071796004 $154 $343 forward 7 unknown #
vertex $-1 $157 $344 #
ellipse-curve $-1 7.9494611773049755 23.523295554515993 8.4557727645306606 0 0.64278761758704617 0.76604443648966558 1 0 0 1 I I #
face $-1 $-1 $345 $33 $-1 $346 reversed single #
loop $-1 $-1 $164 $158 #
plane-surface $-1 0 0 10.990037200938659 0 0 1 1 0 0 forward_v I I I I #
coedge $-1 $347 $348 $349 $350 reversed $159 $-1 #
coedge $-1 $351 $161 $163 $252 forward $100 $-1 #
coedge $-1 $161 $351 $347 $352 forward $100 $-1 #
coedge $-1 $349 $164 $161 $249 forward $243 $-1 #
edge $-1 $255 -22.284223652698262 $353 -5.1825719277114821 $248 $354 forward 7 unknown #
coedge $-1 $355 $356 $162 $251 forward $345 $-1 #
edge $-1 $357 -40.699236779540549 $254 -33.359788492303259 $250 $358 forward 7 unknown #
edge $-1 $255 -10.203033670207171 $357 -1.5390042973660013e-014 $163 $359 forward 7 unknown #
coedge $-1 $164 $349 $355 $360 forward $243 $-1 #
vertex $-1 $165 $361 #
vertex $-1 $165 $362 #
straight-curve $-1 36.017621442903135 -57.307199339173792 10.990037200938659 0 1 0 I I #
coedge $-1 $257 $257 $-1 $363 reversed $168 $-1 #
edge $-1 $364 0 $364 6.2831853071796004 $169 $365 forward 7 unknown #
vertex $-1 $172 $366 #
ellipse-curve $-1 23.802155925055438 -22.999702909912767 7.3203130573200124 0 -0.71933980857756763 0.69465836192734942 1.5 0 0 1 I I #
coedge $-1 $261 $261 $-1 $367 reversed $175 $-1 #
edge $-1 $368 0 $368 6.2831853071796004 $176 $369 forward 7 unknown #
vertex $-1 $179 $370 #
ellipse-curve $-1 31.131435235764052 -22.999702909912767 7.3203130573200124 0 -0.71933980857756763 0.69465836192734942 1.5 0 0 1 I I #
face $-1 $-1 $195 $27 $-1 $371 reversed single #
loop $-1 $-1 $281 $180 #
plane-surface $-1 0 26.543514237930612 0 0 -1 0 0 0 -1 forward_v I I I I #
coedge $-1 $372 $279 $282 $373 forward $181 $-1 #
coedge $-1 $285 $183 $184 $273 reversed $114 $-1 #
coedge $-1 $279 $372 $183 $271 reversed $181 $-1 #
edge $-1 $286 -10.990037200938659 $374 10.990037200938659 $270 $375 forward 7 unknown #
coedge $-1 $185 $184 $372 $376 forward $73 $-1 #
edge $-1 $277 -61.216467787713249 $374 61.216467787713249 $269 $377 forward 7 unknown #
coedge $-1 $282 $281 $185 $275 reversed $266 $-1 #
edge $-1 $378 -61.216467787713249 $276 61.216467787713249 $274 $379 forward 7 unknown #
vertex $-1 $187 $380 #
vertex $-1 $288 $381 #
straight-curve $-1 61.216467787713249 0 -10.990037200938659 0 -1 0 I I #
coedge $-1 $268 $270 $188 $280 reversed $181 $-1 #
edge $-1 $283 -26.543514237930612 $286 26.543514237930612 $279 $382 forward 7 unknown #
coedge $-1 $274 $189 $194 $289 forward $266 $-1 #
coedge $-1 $189 $274 $268 $373 reversed $266 $-1 #
vertex $-1 $190 $383 #
straight-curve $-1 0 26.543514237930612 10.990037200938659 -1 0 0 I I #
coedge $-1 $191 $269 $193 $288 reversed $114 $-1 #
vertex $-1 $280 $384 #
straight-curve $-1 0 -26.543514237930612 10.990037200938659 1 0 0 I I #
edge $-1 $196 -10.990037200938659 $277 10.990037200938659 $193 $385 forward 7 unknown #
edge $-1 $197 -10.990037200938659 $276 10.990037200938659 $194 $386 forward 7 unknown #
point $-1 61.216467787713249 -26.543514237930612 10.990037200938659 #
point $-1 61.216467787713249 26.543514237930612 10.990037200938659 #
face $-1 $-1 $308 $28 $-1 $387 forward single #
plane-surface $-1 -66.412759421008658 -20.240408941885569 0 0 -1 0 0 0 -1 forward_v I I I I #
coedge $-1 $388 $389 $311 $390 forward $200 $-1 #
coedge $-1 $304 $202 $203 $300 reversed $122 $-1 #
coedge $-1 $202 $304 $307 $391 reversed $122 $-1 #
coedge $-1 $389 $388 $202 $298 reversed $200 $-1 #
edge $-1 $392 -10.990037200938659 $393 10.990037200938659 $297 $394 forward 7 unknown #
coedge $-1 $204 $203 $388 $395 forward $77 $-1 #
edge $-1 $302 -5.1962916332954023 $393 5.1962916332954023 $295 $396 forward 7 unknown #
edge $-1 $397 -5.1962916332954023 $212 5.1962916332954023 $209 $398 forward 7 unknown #
vertex $-1 $300 $399 #
straight-curve $-1 -61.216467787713249 0 -10.990037200938659 0 -1 0 I I #
coedge $-1 $296 $295 $206 $305 reversed $122 $-1 #
edge $-1 $309 -10.990037200938659 $302 10.990037200938659 $304 $400 forward 7 unknown #
coedge $-1 $401 $207 $210 $312 forward $308 $-1 #
coedge $-1 $207 $401 $296 $391 forward $308 $-1 #
loop $-1 $-1 $207 $292 #
vertex $-1 $208 $402 #
straight-curve $-1 -61.216467787713249 0 10.990037200938659 0 1 0 I I #
coedge $-1 $210 $209 $294 $390 reversed $211 $-1 #
edge $-1 $213 -5.1962916332954023 $403 5.1962916332954023 $210 $404 forward 7 unknown #
point $-1 -61.216467787713256 -20.240408941885569 -10.990037200938659 #
point $-1 -61.216467787713256 -20.240408941885569 10.990037200938659 #
loop $-1 $-1 $223 $215 #
plane-surface $-1 0 26.543514237930612 0 0 -1 0 0 0 -1 forward_v I I I I #
coedge $-1 $318 $218 $220 $322 reversed $130 $-1 #
coedge $-1 $218 $317 $405 $406 reversed $130 $-1 #
coedge $-1 $226 $221 $218 $320 forward $216 $-1 #
edge $-1 $323 -11.784356327371313 $407 -5.7439189605420786 $319 $408 forward 7 unknown #
coedge $-1 $220 $219 $326 $409 reversed $81 $-1 #
edge $-1 $410 -53.087028475861196 $323 -45.201797438208828 $317 $411 forward 7 unknown #
vertex $-1 $222 $412 #
straight-curve $-1 0.2072553488477169 20.503076871101374 10.990037200938659 1 0 0 I I #
coedge $-1 $405 $223 $226 $330 reversed $315 $-1 #
coedge $-1 $223 $405 $321 $409 forward $315 $-1 #
vertex $-1 $224 $413 #
straight-curve $-1 -12.143740101653798 26.543514237930612 66.917131013775133 0 0 1 I I #
straight-curve $-1 -12.143740101653798 -14.123508575771311 40.045192886897155 0 0.76604443648966558 -0.64278761758704617 I I #
edge $-1 $407 -12.972761497044665 $227 12.143740101653798 $325 $414 forward 7 unknown #
point $-1 -12.143740101653798 26.543514237930612 10.990037200938659 #
point $-1 -12.143740101653798 20.503076871101378 10.990037200938659 #
edge $-1 $415 1 $415 0 $230 $-1 forward 7 unknown #
vertex $-1 $231 $416 #
ellipse-curve $-1 -7.1204397819141079 22.042943920677931 6.6915584235528414 0 0.64278761758704617 0.76604443648966558 1 0 0 1 I I #
point $-1 -6.1204397819141079 23.523295554515979 8.4557727645306446 #
edge $-1 $417 1 $417 0 $234 $-1 forward 7 unknown #
vertex $-1 $235 $418 #
ellipse-curve $-1 0.41451069769543381 22.042943920677931 6.6915584235528414 0 0.64278761758704617 0.76604443648966558 1 0 0 1 I I #
point $-1 1.4145106976954338 23.523295554515979 8.4557727645306446 #
edge $-1 $419 1 $419 0 $238 $-1 forward 7 unknown #
vertex $-1 $239 $420 #
ellipse-curve $-1 7.9494611773049755 22.042943920677931 6.6915584235528414 0 0.64278761758704617 0.76604443648966558 1 0 0 1 I I #
point $-1 8.9494611773049755 23.523295554515979 8.4557727645306446 #
loop $-1 $-1 $250 $242 #
plane-surface $-1 0 -26.543514237930612 0 0 1 0 0 0 1 forward_v I I I I #
coedge $-1 $348 $245 $247 $352 reversed $159 $-1 #
coedge $-1 $245 $347 $421 $422 reversed $159 $-1 #
coedge $-1 $253 $248 $245 $350 forward $243 $-1 #
edge $-1 $353 -37.851307757278875 $423 -30.76368510124318 $349 $424 forward 7 unknown #
coedge $-1 $247 $246 $356 $425 reversed $100 $-1 #
edge $-1 $426 1.5390042973660013e-014 $353 10.203033670207171 $347 $427 forward 7 unknown #
vertex $-1 $249 $428 #
straight-curve $-1 13.733397790204872 -19.455891581894917 10.990037200938659 -1 0 0 I I #
coedge $-1 $421 $250 $253 $360 reversed $345 $-1 #
coedge $-1 $250 $421 $351 $425 forward $345 $-1 #
vertex $-1 $251 $429 #
straight-curve $-1 36.017621442903135 -26.543514237930609 44.349825693241918 0 0 1 I I #
straight-curve $-1 36.017621442903135 -26.543514237930623 3.6505889137013554 0 -0.69465836192734942 -0.71933980857756763 I I #
edge $-1 $423 18.915969717916354 $254 36.017621442903135 $355 $430 forward 7 unknown #
point $-1 36.017621442903135 -26.543514237930612 10.990037200938659 #
point $-1 36.017621442903135 -19.455891581894917 10.990037200938659 #
edge $-1 $431 1 $431 0 $257 $-1 forward 7 unknown #
vertex $-1 $258 $432 #
ellipse-curve $-1 23.802155925055438 -21.353938957471758 5.7310173201879104 0 -0.71933980857756763 0.69465836192734942 1.5 0 0 1 I I #
point $-1 25.302155925055438 -22.999702909912767 7.3203130573200124 #
edge $-1 $433 1 $433 0 $261 $-1 forward 7 unknown #
vertex $-1 $262 $434 #
ellipse-curve $-1 31.131435235764052 -21.353938957471758 5.7310173201879104 0 -0.71933980857756763 0.69465836192734942 1.5 0 0 1 I I #
point $-1 32.631435235764052 -22.999702909912767 7.3203130573200124 #
plane-surface $-1 61.216467787713249 0 0 -1 0 0 0 0 1 forward_v I I I I #
coedge $-1 $270 $268 $272 $376 reversed $181 $-1 #
edge $-1 $283 -10.990037200938659 $378 10.990037200938659 $282 $435 forward 7 unknown #
vertex $-1 $376 $436 #
straight-curve $-1 -61.216467787713249 -26.543514237930612 0 0 0 -1 I I #
edge $-1 $374 -26.543514237930612 $378 26.543514237930612 $372 $437 forward 7 unknown #
straight-curve $-1 0 -26.543514237930612 -10.990037200938659 -1 0 0 I I #
vertex $-1 $275 $438 #
straight-curve $-1 0 26.543514237930612 -10.990037200938659 1 0 0 I I #
point $-1 61.216467787713249 26.543514237930612 -10.990037200938659 #
point $-1 61.216467787713249 -26.543514237930612 -10.990037200938659 #
straight-curve $-1 -61.216467787713249 0 10.990037200938659 0 -1 0 I I #
point $-1 -61.216467787713249 26.543514237930612 10.990037200938659 #
point $-1 -61.216467787713249 -26.543514237930612 10.990037200938659 #
straight-curve $-1 61.216467787713249 -26.543514237930612 0 0 0 -1 I I #
straight-curve $-1 61.216467787713249 26.543514237930612 0 0 0 -1 I I #
plane-surface $-1 0 0 10.990037200938659 0 0 1 1 0 0 forward_v I I I I #
coedge $-1 $297 $294 $299 $395 reversed $200 $-1 #
coedge $-1 $294 $297 $401 $439 reversed $200 $-1 #
edge $-1 $403 -10.990037200938659 $397 10.990037200938659 $311 $440 forward 7 unknown #
edge $-1 $392 -5.1962916332954023 $309 5.1962916332954023 $296 $441 forward 7 unknown #
vertex $-1 $439 $442 #
vertex $-1 $395 $443 #
straight-curve $-1 -71.609051054304061 -24.498574605378629 0 0 0 -1 I I #
edge $-1 $393 -2.1290828317465298 $397 2.1290828317465298 $388 $444 forward 7 unknown #
straight-curve $-1 -66.412759421008658 -24.498574605378629 -10.990037200938659 -1 0 0 I I #
vertex $-1 $301 $445 #
straight-curve $-1 -66.412759421008658 -20.240408941885569 -10.990037200938659 1 0 0 I I #
point $-1 -61.216467787713256 -24.498574605378629 -10.990037200938659 #
straight-curve $-1 -61.216467787713249 -24.498574605378629 0 0 0 -1 I I #
coedge $-1 $307 $306 $389 $439 forward $308 $-1 #
point $-1 -61.216467787713256 -24.498574605378629 10.990037200938659 #
vertex $-1 $312 $446 #
straight-curve $-1 -66.412759421008658 -20.240408941885569 10.990037200938659 -1 0 0 I I #
coedge $-1 $326 $325 $318 $406 forward $315 $-1 #
edge $-1 $407 55.927093812836475 $410 60.995622685652478 $405 $447 forward 7 unknown #
vertex $-1 $330 $448 #
straight-curve $-1 12.972761497044665 32.287433198472691 10.990037200938659 0 1 0 I I #
edge $-1 $410 -12.765506148196948 $327 12.350995450501514 $326 $449 forward 7 unknown #
vertex $-1 $409 $450 #
straight-curve $-1 12.972761497044665 -14.123508575771311 40.045192886897155 0 -0.76604443648966558 0.64278761758704617 I I #
point $-1 12.972761497044665 20.503076871101378 10.990037200938659 #
point $-1 -12.143740101653798 26.543514237930609 5.9215083281226555 #
straight-curve $-1 0 26.543514237930612 10.990037200938659 -1 0 0 I I #
vertex $-1 $333 $451 #
point $-1 -6.1204397819141079 22.042943920677931 6.6915584235528414 #
vertex $-1 $337 $452 #
point $-1 1.4145106976954338 22.042943920677931 6.6915584235528414 #
vertex $-1 $341 $453 #
point $-1 8.9494611773049755 22.042943920677931 6.6915584235528414 #
coedge $-1 $356 $355 $348 $422 forward $345 $-1 #
edge $-1 $423 33.359788492303259 $426 40.699236779540549 $421 $454 forward 7 unknown #
vertex $-1 $360 $455 #
straight-curve $-1 18.915969717916354 -57.307199339173792 10.990037200938659 0 -1 0 I I #
edge $-1 $426 5.1825719277114821 $357 22.284223652698262 $356 $456 forward 7 unknown #
vertex $-1 $425 $457 #
straight-curve $-1 18.915969717916354 -26.543514237930623 3.6505889137013554 0 0.69465836192734942 0.71933980857756763 I I #
point $-1 18.915969717916354 -19.455891581894917 10.990037200938659 #
point $-1 36.017621442903135 -26.543514237930612 3.6505889137013665 #
straight-curve $-1 0 -26.543514237930612 10.990037200938659 1 0 0 I I #
vertex $-1 $363 $458 #
point $-1 25.302155925055438 -21.353938957471758 5.7310173201879104 #
vertex $-1 $367 $459 #
point $-1 32.631435235764052 -21.353938957471758 5.7310173201879104 #
straight-curve $-1 -61.216467787713249 26.543514237930612 0 0 0 -1 I I #
point $-1 -61.216467787713249 -26.543514237930612 -10.990037200938659 #
straight-curve $-1 -61.216467787713249 0 -10.990037200938659 0 1 0 I I #
point $-1 -61.216467787713249 26.543514237930612 -10.990037200938659 #
edge $-1 $403 -2.1290828317465298 $392 2.1290828317465298 $389 $460 forward 7 unknown #
straight-curve $-1 -71.609051054304061 -20.240408941885569 0 0 0 -1 I I #
straight-curve $-1 -66.412759421008658 -24.498574605378629 10.990037200938659 1 0 0 I I #
point $-1 -71.609051054304061 -24.498574605378629 10.990037200938659 #
point $-1 -71.609051054304061 -24.498574605378629 -10.990037200938659 #
straight-curve $-1 -71.609051054304061 -22.369491773632099 -10.990037200938659 0 1 0 I I #
point $-1 -71.609051054304061 -20.240408941885569 -10.990037200938659 #
point $-1 -71.609051054304061 -20.240408941885569 10.990037200938659 #
straight-curve $-1 12.972761497044665 26.543514237930612 66.917131013775133 0 0 -1 I I #
point $-1 12.972761497044665 26.543514237930612 10.990037200938659 #
straight-curve $-1 0.2072553488477169 26.543514237930609 5.921508328122659 -1 0 0 I I #
point $-1 12.972761497044665 26.543514237930609 5.9215083281226555 #
point $-1 -7.1204397819141079 21.400156303090885 5.9255139870631766 #
point $-1 0.41451069769543381 21.400156303090885 5.9255139870631766 #
point $-1 7.9494611773049755 21.400156303090885 5.9255139870631766 #
straight-curve $-1 18.915969717916354 -26.543514237930609 44.349825693241918 0 0 -1 I I #
point $-1 18.915969717916354 -26.543514237930612 10.990037200938659 #
straight-curve $-1 13.733397790204872 -26.543514237930612 3.6505889137013643 1 0 0 I I #
point $-1 18.915969717916354 -26.543514237930612 3.6505889137013665 #
point $-1 23.802155925055438 -20.274929244605406 4.689029777296887 #
point $-1 31.131435235764052 -20.274929244605406 4.689029777296887 #
straight-curve $-1 -71.609051054304061 -22.369491773632099 10.990037200938659 0 -1 0 I I #
End-of-ACIS-data 