500 0 13 0           
7 Unknown 11 ACIS 5.0 NT 24 Thu Mar 25 23:54:20 1999 
-1 9.9999999999999995e-007 1e-010 
body $-1 $13 $-1 $14 #
body $-1 $15 $-1 $16 #
body $-1 $17 $-1 $18 #
body $-1 $19 $-1 $20 #
body $-1 $21 $-1 $22 #
body $-1 $23 $-1 $24 #
body $-1 $25 $-1 $26 #
body $-1 $27 $-1 $28 #
body $-1 $29 $-1 $30 #
body $-1 $31 $-1 $32 #
body $-1 $33 $-1 $34 #
body $-1 $35 $-1 $36 #
body $-1 $37 $-1 $38 #
lump $-1 $-1 $39 $0 #
transform $-1 1 0 0 0 1 0 0 0 1 41.928769798883025 29.043417886263853 8.6116255732161537 1 rotate no_reflect no_shear #
lump $-1 $-1 $40 $1 #
transform $-1 1 0 0 0 1 0 0 0 1 41.928769798883025 29.043417886263853 8.6116255732161537 1 rotate no_reflect no_shear #
lump $-1 $-1 $41 $2 #
transform $-1 1 0 0 0 1 0 0 0 1 41.928769798883025 29.043417886263853 8.6116255732161537 1 rotate no_reflect no_shear #
lump $-1 $-1 $42 $3 #
transform $-1 1 0 0 0 1 0 0 0 1 41.928769798883025 29.043417886263853 8.6116255732161537 1 rotate no_reflect no_shear #
lump $-1 $-1 $43 $4 #
transform $-1 1 0 0 0 1 0 0 0 1 41.928769798883025 29.043417886263853 8.6116255732161537 1 rotate no_reflect no_shear #
lump $-1 $-1 $44 $5 #
transform $-1 1 0 0 0 1 0 0 0 1 41.928769798883025 29.043417886263853 8.6116255732161537 1 rotate no_reflect no_shear #
lump $-1 $-1 $45 $6 #
transform $-1 1 0 0 0 1 0 0 0 1 41.928769798883025 29.043417886263853 8.6116255732161537 1 rotate no_reflect no_shear #
lump $-1 $-1 $46 $7 #
transform $-1 1 0 0 0 1 0 0 0 1 41.928769798883025 29.043417886263853 8.6116255732161537 1 rotate no_reflect no_shear #
lump $-1 $-1 $47 $8 #
transform $-1 1 0 0 0 1 0 0 0 1 41.928769798883025 29.043417886263853 8.6116255732161537 1 rotate no_reflect no_shear #
lump $-1 $-1 $48 $9 #
transform $-1 1 0 0 0 1 0 0 0 1 41.928769798883025 29.043417886263853 8.6116255732161537 1 rotate no_reflect no_shear #
lump $-1 $-1 $49 $10 #
transform $-1 1 0 0 0 1 0 0 0 1 41.928769798883025 29.043417886263853 8.6116255732161537 1 rotate no_reflect no_shear #
lump $-1 $-1 $50 $11 #
transform $-1 1 0 0 0 1 0 0 0 1 41.928769798883025 29.043417886263853 8.6116255732161537 1 rotate no_reflect no_shear #
lump $-1 $-1 $51 $12 #
transform $-1 1 0 0 0 1 0 0 0 1 41.928769798883025 29.043417886263853 8.6116255732161537 1 rotate no_reflect no_shear #
shell $-1 $-1 $-1 $52 $-1 $13 #
shell $-1 $-1 $-1 $53 $-1 $15 #
shell $-1 $-1 $-1 $54 $-1 $17 #
shell $-1 $-1 $-1 $55 $-1 $19 #
shell $-1 $-1 $-1 $56 $-1 $21 #
shell $-1 $-1 $-1 $57 $-1 $23 #
shell $-1 $-1 $-1 $58 $-1 $25 #
shell $-1 $-1 $-1 $59 $-1 $27 #
shell $-1 $-1 $-1 $60 $-1 $29 #
shell $-1 $-1 $-1 $61 $-1 $31 #
shell $-1 $-1 $-1 $62 $-1 $33 #
shell $-1 $-1 $-1 $63 $-1 $35 #
shell $-1 $-1 $-1 $64 $-1 $37 #
face $-1 $65 $66 $39 $-1 $67 forward single #
face $-1 $68 $69 $40 $-1 $70 reversed single #
face $-1 $71 $72 $41 $-1 $73 reversed single #
face $-1 $74 $75 $42 $-1 $76 forward single #
face $-1 $77 $78 $43 $-1 $79 forward single #
face $-1 $80 $81 $44 $-1 $82 reversed single #
face $-1 $83 $84 $45 $-1 $85 forward single #
face $-1 $86 $87 $46 $-1 $88 forward single #
face $-1 $89 $90 $47 $-1 $91 forward single #
face $-1 $92 $93 $48 $-1 $94 reversed single #
face $-1 $95 $96 $49 $-1 $97 forward single #
face $-1 $98 $99 $50 $-1 $100 forward single #
face $-1 $101 $102 $51 $-1 $103 forward single #
face $-1 $104 $105 $39 $-1 $106 reversed single #
loop $-1 $-1 $107 $52 #
plane-surface $-1 0 0 8.6116255732161537 0 0 1 1 0 0 forward_v I I I I #
face $-1 $108 $109 $40 $-1 $110 reversed single #
loop $-1 $-1 $111 $53 #
plane-surface $-1 -36.741531497352852 0 4.9996679663879764 0 0 1 1 0 0 forward_v I I I I #
face $-1 $112 $113 $41 $-1 $114 reversed single #
loop $-1 $-1 $115 $54 #
plane-surface $-1 23.55407951148652 50.757814349538748 103.72983921761039 1 0 0 0 -0.73135370988377701 -0.68199835119979291 forward_v I I I I #
face $-1 $116 $117 $42 $-1 $118 forward single #
loop $-1 $119 $120 $55 #
cone-surface $-1 28.803991022171232 25.578610155572413 5.0836502753504922 0 -0.73135370988377701 -0.68199835119979291 1.5 0 0 1 I I 0 1 1.5 forward I I I I #
face $-1 $121 $122 $43 $-1 $123 forward single #
loop $-1 $124 $125 $56 #
cone-surface $-1 36.678858288198299 25.578610155572413 5.0836502753504922 0 -0.73135370988377701 -0.68199835119979291 1.5 0 0 1 I I 0 1 1.5 forward I I I I #
face $-1 $126 $127 $44 $-1 $128 reversed single #
loop $-1 $-1 $129 $57 #
plane-surface $-1 -15.584544907293958 -90.372940572815793 60.604227131506939 -1 0 0 0 -0.73135370988377701 0.68199835119979291 forward_v I I I I #
face $-1 $130 $131 $45 $-1 $132 forward single #
loop $-1 $133 $134 $58 #
cone-surface $-1 -22.607719993257881 -26.254086737713269 5.6715753060877478 0 0.73135370988377701 -0.68199835119979291 0.5 0 0 1 I I 0 1 0.5 forward I I I I #
face $-1 $135 $136 $46 $-1 $137 forward single #
loop $-1 $138 $139 $59 #
cone-surface $-1 -19.97402933602141 -26.254086737713269 5.6715753060877478 0 0.73135370988377701 -0.68199835119979291 0.5 0 0 1 I I 0 1 0.5 forward I I I I #
face $-1 $140 $141 $47 $-1 $142 forward single #
loop $-1 $143 $144 $60 #
cone-surface $-1 -17.340338678784939 -26.254086737713269 5.6715753060877478 0 0.73135370988377701 -0.68199835119979291 0.5 0 0 1 I I 0 1 0.5 forward I I I I #
face $-1 $145 $146 $48 $-1 $147 reversed single #
loop $-1 $-1 $148 $61 #
plane-surface $-1 34.737990367809225 -90.372940572815793 60.604227131506939 -1 0 0 0 -0.73135370988377701 0.68199835119979291 forward_v I I I I #
face $-1 $149 $150 $49 $-1 $151 forward single #
loop $-1 $152 $153 $62 #
cone-surface $-1 27.71481528184529 -26.254086737713269 5.6715753060877478 0 0.73135370988377701 -0.68199835119979291 0.5 0 0 1 I I 0 1 0.5 forward I I I I #
face $-1 $154 $155 $50 $-1 $156 forward single #
loop $-1 $157 $158 $63 #
cone-surface $-1 30.348505939081775 -26.254086737713269 5.6715753060877478 0 0.73135370988377701 -0.68199835119979291 0.5 0 0 1 I I 0 1 0.5 forward I I I I #
face $-1 $159 $160 $51 $-1 $161 forward single #
loop $-1 $162 $163 $64 #
cone-surface $-1 32.982196596318232 -26.254086737713269 5.6715753060877478 0 0.73135370988377701 -0.68199835119979291 0.5 0 0 1 I I 0 1 0.5 forward I I I I #
face $-1 $164 $165 $39 $-1 $166 reversed single #
loop $-1 $-1 $167 $65 #
plane-surface $-1 0 0 -8.6116255732161537 0 0 1 1 0 0 forward_v I I I I #
coedge $-1 $168 $169 $170 $171 forward $66 $-1 #
face $-1 $172 $173 $40 $-1 $174 reversed single #
loop $-1 $-1 $175 $68 #
plane-surface $-1 -31.55429319582268 0 6.8056467698020651 -1 0 0 0 0 1 forward_v I I I I #
coedge $-1 $176 $177 $178 $179 forward $69 $-1 #
face $-1 $180 $181 $41 $-1 $182 forward single #
loop $-1 $-1 $183 $71 #
plane-surface $-1 32.741424655184773 -10.571708337013185 46.539135476262601 0 0.73135370988377701 0.68199835119979291 1 0 0 forward_v I I I I #
coedge $-1 $184 $185 $186 $187 reversed $72 $-1 #
face $-1 $-1 $188 $42 $-1 $189 forward single #
loop $-1 $190 $191 $74 #
cone-surface $-1 28.803991022171232 23.688863101636983 3.3214326813856783 0 -0.73135370988377701 -0.68199835119979291 0.75 0 0 1 I I -0.70710678118654724 0.70710678118654768 0.75 forward I I I I #
loop $-1 $-1 $192 $55 #
coedge $-1 $120 $120 $193 $194 reversed $75 $-1 #
face $-1 $-1 $195 $43 $-1 $196 forward single #
loop $-1 $197 $198 $77 #
cone-surface $-1 36.678858288198299 23.688863101636983 3.3214326813856783 0 -0.73135370988377701 -0.68199835119979291 0.75 0 0 1 I I -0.70710678118654724 0.70710678118654768 0.75 forward I I I I #
loop $-1 $-1 $199 $56 #
coedge $-1 $125 $125 $200 $201 reversed $78 $-1 #
face $-1 $202 $203 $44 $-1 $204 reversed single #
loop $-1 $-1 $205 $80 #
plane-surface $-1 -19.97402933602141 -29.04341788626386 3.4135233901591491 0 -0.73135370988377701 0.68199835119979291 1 0 0 forward_v I I I I #
coedge $-1 $206 $207 $208 $209 reversed $81 $-1 #
face $-1 $-1 $210 $45 $-1 $211 forward single #
loop $-1 $212 $213 $83 #
cone-surface $-1 -22.607719993257881 -25.705571455300436 5.1600765426879036 0 0.73135370988377701 -0.68199835119979291 0.25 0 0 1 I I -0.70710678118654746 0.70710678118654746 0.25 forward I I I I #
loop $-1 $-1 $214 $58 #
coedge $-1 $134 $134 $215 $216 reversed $84 $-1 #
face $-1 $-1 $217 $46 $-1 $218 forward single #
loop $-1 $219 $220 $86 #
cone-surface $-1 -19.97402933602141 -25.705571455300436 5.1600765426879036 0 0.73135370988377701 -0.68199835119979291 0.25 0 0 1 I I -0.70710678118654746 0.70710678118654746 0.25 forward I I I I #
loop $-1 $-1 $221 $59 #
coedge $-1 $139 $139 $222 $223 reversed $87 $-1 #
face $-1 $-1 $224 $47 $-1 $225 forward single #
loop $-1 $226 $227 $89 #
cone-surface $-1 -17.340338678784939 -25.705571455300436 5.1600765426879036 0 0.73135370988377701 -0.68199835119979291 0.25 0 0 1 I I -0.70710678118654746 0.70710678118654746 0.25 forward I I I I #
loop $-1 $-1 $228 $60 #
coedge $-1 $144 $144 $229 $230 reversed $90 $-1 #
face $-1 $231 $232 $48 $-1 $233 reversed single #
loop $-1 $-1 $234 $92 #
plane-surface $-1 30.348505939081775 -29.04341788626386 3.4135233901591491 0 -0.73135370988377701 0.68199835119979291 1 0 0 forward_v I I I I #
coedge $-1 $235 $236 $237 $238 reversed $93 $-1 #
face $-1 $-1 $239 $49 $-1 $240 forward single #
loop $-1 $241 $242 $95 #
cone-surface $-1 27.71481528184529 -25.705571455300436 5.1600765426879036 0 0.73135370988377701 -0.68199835119979291 0.25 0 0 1 I I -0.70710678118654746 0.70710678118654746 0.25 forward I I I I #
loop $-1 $-1 $243 $62 #
coedge $-1 $153 $153 $244 $245 reversed $96 $-1 #
face $-1 $-1 $246 $50 $-1 $247 forward single #
loop $-1 $248 $249 $98 #
cone-surface $-1 30.348505939081775 -25.705571455300436 5.1600765426879036 0 0.73135370988377701 -0.68199835119979291 0.25 0 0 1 I I -0.70710678118654746 0.70710678118654746 0.25 forward I I I I #
loop $-1 $-1 $250 $63 #
coedge $-1 $158 $158 $251 $252 reversed $99 $-1 #
face $-1 $-1 $253 $51 $-1 $254 forward single #
loop $-1 $255 $256 $101 #
cone-surface $-1 32.982196596318232 -25.705571455300436 5.1600765426879036 0 0.73135370988377701 -0.68199835119979291 0.25 0 0 1 I I -0.70710678118654746 0.70710678118654746 0.25 forward I I I I #
loop $-1 $-1 $257 $64 #
coedge $-1 $163 $163 $258 $259 reversed $102 $-1 #
face $-1 $260 $261 $39 $-1 $262 reversed single #
loop $-1 $-1 $263 $104 #
plane-surface $-1 0 -29.043417886263853 0 0 1 0 0 0 1 forward_v I I I I #
coedge $-1 $264 $265 $266 $267 forward $105 $-1 #
coedge $-1 $268 $107 $269 $270 forward $66 $-1 #
coedge $-1 $107 $268 $271 $272 forward $66 $-1 #
coedge $-1 $273 $274 $107 $171 reversed $275 $-1 #
edge $-1 $276 -29.043417886263853 $277 29.043417886263853 $170 $278 forward 7 unknown #
face $-1 $279 $280 $40 $-1 $281 reversed single #
loop $-1 $-1 $282 $108 #
plane-surface $-1 0 29.043417886263853 0 0 -1 0 0 0 -1 forward_v I I I I #
coedge $-1 $178 $283 $284 $285 reversed $109 $-1 #
coedge $-1 $286 $111 $287 $288 reversed $69 $-1 #
coedge $-1 $111 $286 $289 $290 reversed $69 $-1 #
coedge $-1 $291 $175 $111 $179 reversed $109 $-1 #
edge $-1 $292 -29.043417886263853 $293 29.043417886263853 $178 $294 forward 7 unknown #
face $-1 $295 $296 $41 $-1 $297 reversed single #
loop $-1 $-1 $186 $112 #
plane-surface $-1 0 0 8.6116255732161537 0 0 1 1 0 0 forward_v I I I I #
coedge $-1 $298 $299 $300 $301 reversed $113 $-1 #
coedge $-1 $185 $115 $302 $303 reversed $72 $-1 #
coedge $-1 $115 $184 $298 $304 reversed $72 $-1 #
coedge $-1 $300 $305 $115 $187 forward $181 $-1 #
edge $-1 $306 -3.6645107114944793 $307 0.58264120684320631 $186 $308 forward 7 unknown #
loop $-1 $-1 $193 $116 #
plane-surface $-1 32.741424655184773 -10.571708337013185 46.539135476262601 0 0.73135370988377701 0.68199835119979291 1 0 0 forward_v I I I I #
loop $-1 $-1 $309 $74 #
coedge $-1 $191 $191 $192 $310 reversed $117 $-1 #
coedge $-1 $192 $192 $191 $310 forward $119 $-1 #
coedge $-1 $193 $193 $120 $194 forward $188 $-1 #
edge $-1 $311 -7.4919980443606559e-016 $311 6.2831853071795996 $193 $312 forward 7 unknown #
loop $-1 $-1 $200 $121 #
plane-surface $-1 32.741424655184773 -10.571708337013185 46.539135476262601 0 0.73135370988377701 0.68199835119979291 1 0 0 forward_v I I I I #
loop $-1 $-1 $313 $77 #
coedge $-1 $198 $198 $199 $314 reversed $122 $-1 #
coedge $-1 $199 $199 $198 $314 forward $124 $-1 #
coedge $-1 $200 $200 $125 $201 forward $195 $-1 #
edge $-1 $315 -7.4919980443606559e-016 $315 6.2831853071795996 $200 $316 forward 7 unknown #
face $-1 $317 $318 $44 $-1 $319 reversed single #
loop $-1 $-1 $320 $126 #
plane-surface $-1 -24.363513764748859 -90.372940572815793 60.604227131506939 1 0 0 0 0.73135370988377701 -0.68199835119979291 forward_v I I I I #
coedge $-1 $321 $322 $323 $324 reversed $127 $-1 #
coedge $-1 $207 $129 $325 $326 reversed $81 $-1 #
coedge $-1 $129 $206 $321 $327 reversed $81 $-1 #
coedge $-1 $323 $328 $129 $209 forward $329 $-1 #
edge $-1 $330 16.143052400144043 $331 20.990360987361417 $208 $332 forward 7 unknown #
loop $-1 $-1 $215 $130 #
plane-surface $-1 -19.97402933602141 -29.04341788626386 3.4135233901591491 0 -0.73135370988377701 0.68199835119979291 1 0 0 forward_v I I I I #
loop $-1 $-1 $333 $83 #
coedge $-1 $213 $213 $214 $334 reversed $131 $-1 #
coedge $-1 $214 $214 $213 $334 forward $133 $-1 #
coedge $-1 $215 $215 $134 $216 forward $210 $-1 #
edge $-1 $335 1.5462175816334163e-015 $335 6.2831853071796022 $215 $336 forward 7 unknown #
loop $-1 $-1 $222 $135 #
plane-surface $-1 -19.97402933602141 -29.04341788626386 3.4135233901591491 0 -0.73135370988377701 0.68199835119979291 1 0 0 forward_v I I I I #
loop $-1 $-1 $337 $86 #
coedge $-1 $220 $220 $221 $338 reversed $136 $-1 #
coedge $-1 $221 $221 $220 $338 forward $138 $-1 #
coedge $-1 $222 $222 $139 $223 forward $217 $-1 #
edge $-1 $339 1.5462175816334163e-015 $339 6.2831853071796022 $222 $340 forward 7 unknown #
loop $-1 $-1 $229 $140 #
plane-surface $-1 -19.97402933602141 -29.04341788626386 3.4135233901591491 0 -0.73135370988377701 0.68199835119979291 1 0 0 forward_v I I I I #
loop $-1 $-1 $341 $89 #
coedge $-1 $227 $227 $228 $342 reversed $141 $-1 #
coedge $-1 $228 $228 $227 $342 forward $143 $-1 #
coedge $-1 $229 $229 $144 $230 forward $224 $-1 #
edge $-1 $343 1.5462175816334163e-015 $343 6.2831853071796022 $229 $344 forward 7 unknown #
face $-1 $345 $346 $48 $-1 $347 reversed single #
loop $-1 $-1 $348 $145 #
plane-surface $-1 25.959021510354326 -90.372940572815793 60.604227131506939 1 0 0 0 0.73135370988377701 -0.68199835119979291 forward_v I I I I #
coedge $-1 $349 $350 $351 $352 reversed $146 $-1 #
coedge $-1 $236 $148 $353 $354 reversed $93 $-1 #
coedge $-1 $148 $235 $349 $355 reversed $93 $-1 #
coedge $-1 $351 $356 $148 $238 forward $357 $-1 #
edge $-1 $358 16.143052400144043 $359 20.990360987361417 $237 $360 forward 7 unknown #
loop $-1 $-1 $244 $149 #
plane-surface $-1 30.348505939081775 -29.04341788626386 3.4135233901591491 0 -0.73135370988377701 0.68199835119979291 1 0 0 forward_v I I I I #
loop $-1 $-1 $361 $95 #
coedge $-1 $242 $242 $243 $362 reversed $150 $-1 #
coedge $-1 $243 $243 $242 $362 forward $152 $-1 #
coedge $-1 $244 $244 $153 $245 forward $239 $-1 #
edge $-1 $363 1.5462175816334163e-015 $363 6.2831853071796022 $244 $364 forward 7 unknown #
loop $-1 $-1 $251 $154 #
plane-surface $-1 30.348505939081775 -29.04341788626386 3.4135233901591491 0 -0.73135370988377701 0.68199835119979291 1 0 0 forward_v I I I I #
loop $-1 $-1 $365 $98 #
coedge $-1 $249 $249 $250 $366 reversed $155 $-1 #
coedge $-1 $250 $250 $249 $366 forward $157 $-1 #
coedge $-1 $251 $251 $158 $252 forward $246 $-1 #
edge $-1 $367 1.5462175816334163e-015 $367 6.2831853071796022 $251 $368 forward 7 unknown #
loop $-1 $-1 $258 $159 #
plane-surface $-1 30.348505939081775 -29.04341788626386 3.4135233901591491 0 -0.73135370988377701 0.68199835119979291 1 0 0 forward_v I I I I #
loop $-1 $-1 $369 $101 #
coedge $-1 $256 $256 $257 $370 reversed $160 $-1 #
coedge $-1 $257 $257 $256 $370 forward $162 $-1 #
coedge $-1 $258 $258 $163 $259 forward $253 $-1 #
edge $-1 $371 1.5462175816334163e-015 $371 6.2831853071796022 $258 $372 forward 7 unknown #
face $-1 $373 $374 $39 $-1 $375 reversed single #
loop $-1 $-1 $376 $164 #
plane-surface $-1 -41.928769798883025 0 0 1 0 0 0 0 -1 forward_v I I I I #
coedge $-1 $377 $271 $378 $379 forward $165 $-1 #
coedge $-1 $380 $167 $377 $381 forward $105 $-1 #
coedge $-1 $167 $380 $382 $383 forward $105 $-1 #
coedge $-1 $274 $273 $167 $267 reversed $275 $-1 #
edge $-1 $384 -29.043417886263853 $385 29.043417886263853 $266 $386 forward 7 unknown #
coedge $-1 $169 $168 $387 $388 forward $66 $-1 #
coedge $-1 $389 $390 $168 $270 reversed $374 $-1 #
edge $-1 $277 -41.928769798883025 $391 41.928769798883025 $269 $392 forward 7 unknown #
coedge $-1 $263 $393 $169 $272 reversed $165 $-1 #
edge $-1 $394 -41.928769798883025 $276 41.928769798883025 $271 $395 forward 7 unknown #
coedge $-1 $266 $170 $393 $396 forward $275 $-1 #
coedge $-1 $170 $266 $389 $397 reversed $275 $-1 #
loop $-1 $-1 $273 $373 #
vertex $-1 $171 $398 #
vertex $-1 $171 $399 #
straight-curve $-1 41.928769798883025 0 8.6116255732161537 0 1 0 I I #
face $-1 $400 $401 $40 $-1 $402 forward single #
loop $-1 $-1 $403 $172 #
plane-surface $-1 -41.928769798883025 0 0 1 0 0 0 0 -1 forward_v I I I I #
coedge $-1 $289 $404 $291 $405 forward $173 $-1 #
coedge $-1 $175 $291 $406 $407 reversed $109 $-1 #
coedge $-1 $408 $287 $175 $285 forward $409 $-1 #
edge $-1 $293 1.5968445814869439 $410 5.2088021883151212 $284 $411 forward 7 unknown #
coedge $-1 $177 $176 $403 $412 reversed $69 $-1 #
coedge $-1 $284 $413 $176 $288 forward $409 $-1 #
edge $-1 $414 -23.558004050206598 $293 -13.183527447146254 $287 $415 forward 7 unknown #
coedge $-1 $416 $282 $177 $290 forward $173 $-1 #
edge $-1 $292 13.183527447146254 $417 23.558004050206598 $289 $418 forward 7 unknown #
coedge $-1 $283 $178 $282 $405 reversed $109 $-1 #
vertex $-1 $290 $419 #
vertex $-1 $288 $420 #
straight-curve $-1 -31.55429319582268 0 4.9996679663879764 0 -1 0 I I #
face $-1 $-1 $421 $41 $-1 $422 reversed single #
loop $-1 $-1 $423 $180 #
plane-surface $-1 41.928769798883025 0 0 -1 0 0 0 0 1 forward_v I I I I #
coedge $-1 $424 $183 $185 $304 forward $113 $-1 #
coedge $-1 $183 $424 $423 $425 reversed $113 $-1 #
coedge $-1 $426 $186 $183 $301 forward $181 $-1 #
edge $-1 $307 7.1833671838941342 $427 25.558057471290638 $300 $428 forward 7 unknown #
coedge $-1 $429 $430 $184 $303 forward $421 $-1 #
edge $-1 $431 -47.80780697019042 $306 -43.253294035589043 $302 $432 forward 7 unknown #
edge $-1 $307 51.859325235491994 $431 58.086835772527692 $185 $433 forward 7 unknown #
coedge $-1 $186 $426 $429 $434 forward $181 $-1 #
vertex $-1 $303 $435 #
vertex $-1 $187 $436 #
straight-curve $-1 23.55407951148652 25.378907174769374 8.611625573216152 0 -1 0 I I #
coedge $-1 $309 $309 $-1 $437 reversed $190 $-1 #
edge $-1 $438 0 $438 6.2831853071796004 $191 $439 forward 7 unknown #
vertex $-1 $194 $440 #
ellipse-curve $-1 28.803991022171232 26.919841927095014 6.3343691059154628 0 0.73135370988377701 0.68199835119979291 1.5 0 0 1 I I #
coedge $-1 $313 $313 $-1 $441 reversed $197 $-1 #
edge $-1 $442 0 $442 6.2831853071796004 $198 $443 forward 7 unknown #
vertex $-1 $201 $444 #
ellipse-curve $-1 36.678858288198299 26.919841927095014 6.3343691059154628 0 0.73135370988377701 0.68199835119979291 1.5 0 0 1 I I #
face $-1 $-1 $329 $44 $-1 $445 forward single #
loop $-1 $-1 $446 $202 #
plane-surface $-1 0 -29.043417886263853 0 0 1 0 0 0 1 forward_v I I I I #
coedge $-1 $447 $448 $449 $450 reversed $203 $-1 #
coedge $-1 $451 $205 $207 $327 forward $127 $-1 #
coedge $-1 $205 $451 $447 $452 forward $127 $-1 #
coedge $-1 $449 $208 $205 $324 forward $329 $-1 #
edge $-1 $331 5.5975302392832536 $453 14.376499096738154 $323 $454 forward 7 unknown #
coedge $-1 $455 $456 $206 $326 forward $318 $-1 #
edge $-1 $457 -26.888590175594313 $330 -21.690487992537314 $325 $458 forward 7 unknown #
edge $-1 $331 -7.1075077801725515 $457 -1.0367256691888158e-014 $207 $459 forward 7 unknown #
coedge $-1 $208 $449 $455 $460 forward $329 $-1 #
loop $-1 $-1 $449 $317 #
vertex $-1 $326 $461 #
vertex $-1 $209 $462 #
straight-curve $-1 -15.584544907293958 -45.186470286407896 8.611625573216152 0 1 0 I I #
coedge $-1 $333 $333 $-1 $463 reversed $212 $-1 #
edge $-1 $464 0 $464 6.2831853071796004 $213 $465 forward 7 unknown #
vertex $-1 $216 $466 #
ellipse-curve $-1 -22.607719993257881 -26.619763592655168 6.0125744816876541 0 -0.73135370988377701 0.68199835119979291 0.5 0 0 1 I I #
coedge $-1 $337 $337 $-1 $467 reversed $219 $-1 #
edge $-1 $468 0 $468 6.2831853071796004 $220 $469 forward 7 unknown #
vertex $-1 $223 $470 #
ellipse-curve $-1 -19.97402933602141 -26.619763592655168 6.0125744816876541 0 -0.73135370988377701 0.68199835119979291 0.5 0 0 1 I I #
coedge $-1 $341 $341 $-1 $471 reversed $226 $-1 #
edge $-1 $472 0 $472 6.2831853071796004 $227 $473 forward 7 unknown #
vertex $-1 $230 $474 #
ellipse-curve $-1 -17.340338678784939 -26.619763592655168 6.0125744816876541 0 -0.73135370988377701 0.68199835119979291 0.5 0 0 1 I I #
face $-1 $-1 $357 $48 $-1 $475 forward single #
loop $-1 $-1 $476 $231 #
plane-surface $-1 0 -29.043417886263853 0 0 1 0 0 0 1 forward_v I I I I #
coedge $-1 $477 $478 $479 $480 reversed $232 $-1 #
coedge $-1 $481 $234 $236 $355 forward $146 $-1 #
coedge $-1 $234 $481 $477 $482 forward $146 $-1 #
coedge $-1 $479 $237 $234 $352 forward $357 $-1 #
edge $-1 $359 -19.563737398268337 $483 -10.784768540813438 $351 $484 forward 7 unknown #
coedge $-1 $485 $486 $235 $354 forward $346 $-1 #
edge $-1 $487 -26.888590175594313 $358 -21.690487992537314 $353 $488 forward 7 unknown #
edge $-1 $359 -7.1075077801725515 $487 -1.0367256691888158e-014 $236 $489 forward 7 unknown #
coedge $-1 $237 $479 $485 $490 forward $357 $-1 #
loop $-1 $-1 $479 $345 #
vertex $-1 $354 $491 #
vertex $-1 $238 $492 #
straight-curve $-1 34.737990367809225 -45.186470286407896 8.611625573216152 0 1 0 I I #
coedge $-1 $361 $361 $-1 $493 reversed $241 $-1 #
edge $-1 $494 0 $494 6.2831853071796004 $242 $495 forward 7 unknown #
vertex $-1 $245 $496 #
ellipse-curve $-1 27.71481528184529 -26.619763592655168 6.0125744816876541 0 -0.73135370988377701 0.68199835119979291 0.5 0 0 1 I I #
coedge $-1 $365 $365 $-1 $497 reversed $248 $-1 #
edge $-1 $498 0 $498 6.2831853071796004 $249 $499 forward 7 unknown #
vertex $-1 $252 $500 #
ellipse-curve $-1 30.348505939081775 -26.619763592655168 6.0125744816876541 0 -0.73135370988377701 0.68199835119979291 0.5 0 0 1 I I #
coedge $-1 $369 $369 $-1 $501 reversed $255 $-1 #
edge $-1 $502 0 $502 6.2831853071796004 $256 $503 forward 7 unknown #
vertex $-1 $259 $504 #
ellipse-curve $-1 32.982196596318232 -26.619763592655168 6.0125744816876541 0 -0.73135370988377701 0.68199835119979291 0.5 0 0 1 I I #
face $-1 $-1 $275 $39 $-1 $505 reversed single #
loop $-1 $-1 $389 $260 #
plane-surface $-1 0 29.043417886263853 0 0 -1 0 0 0 -1 forward_v I I I I #
coedge $-1 $506 $387 $390 $507 forward $261 $-1 #
coedge $-1 $393 $263 $264 $381 reversed $165 $-1 #
coedge $-1 $387 $506 $263 $379 reversed $261 $-1 #
edge $-1 $394 -8.6116255732161537 $508 8.6116255732161537 $378 $509 forward 7 unknown #
coedge $-1 $265 $264 $506 $510 forward $105 $-1 #
edge $-1 $385 -41.928769798883025 $508 41.928769798883025 $377 $511 forward 7 unknown #
coedge $-1 $390 $389 $265 $383 reversed $374 $-1 #
edge $-1 $512 -41.928769798883025 $384 41.928769798883025 $382 $513 forward 7 unknown #
vertex $-1 $267 $514 #
vertex $-1 $396 $515 #
straight-curve $-1 41.928769798883025 0 -8.6116255732161537 0 -1 0 I I #
coedge $-1 $376 $378 $268 $388 reversed $261 $-1 #
edge $-1 $391 -29.043417886263853 $394 29.043417886263853 $387 $516 forward 7 unknown #
coedge $-1 $382 $269 $274 $397 forward $374 $-1 #
coedge $-1 $269 $382 $376 $507 reversed $374 $-1 #
vertex $-1 $270 $517 #
straight-curve $-1 0 29.043417886263853 8.6116255732161537 -1 0 0 I I #
coedge $-1 $271 $377 $273 $396 reversed $165 $-1 #
vertex $-1 $388 $518 #
straight-curve $-1 0 -29.043417886263853 8.6116255732161537 1 0 0 I I #
edge $-1 $276 -8.6116255732161537 $385 8.6116255732161537 $273 $519 forward 7 unknown #
edge $-1 $277 -8.6116255732161537 $384 8.6116255732161537 $274 $520 forward 7 unknown #
point $-1 41.928769798883025 -29.043417886263853 8.6116255732161537 #
point $-1 41.928769798883025 29.043417886263853 8.6116255732161537 #
face $-1 $-1 $409 $40 $-1 $521 reversed single #
loop $-1 $-1 $406 $279 #
plane-surface $-1 0 0 8.6116255732161537 0 0 1 1 0 0 forward_v I I I I #
coedge $-1 $522 $523 $286 $412 forward $280 $-1 #
coedge $-1 $282 $416 $524 $525 reversed $173 $-1 #
edge $-1 $526 -5.2088021883151212 $292 -1.5968445814869439 $282 $527 forward 7 unknown #
coedge $-1 $524 $528 $283 $407 forward $401 $-1 #
edge $-1 $410 -29.043417886263853 $526 29.043417886263853 $406 $529 forward 7 unknown #
coedge $-1 $413 $284 $528 $530 reversed $409 $-1 #
loop $-1 $-1 $284 $400 #
vertex $-1 $285 $531 #
straight-curve $-1 -31.55429319582268 -29.043417886263853 3.4028233849010325 0 0 1 I I #
edge $-1 $417 -29.043417886263853 $414 29.043417886263853 $403 $532 forward 7 unknown #
coedge $-1 $287 $408 $522 $533 forward $409 $-1 #
vertex $-1 $412 $534 #
straight-curve $-1 -18.370765748676426 -29.043417886263853 4.9996679663879764 1 0 0 I I #
coedge $-1 $404 $289 $523 $535 reversed $173 $-1 #
vertex $-1 $412 $536 #
straight-curve $-1 -18.370765748676426 29.043417886263853 4.9996679663879764 -1 0 0 I I #
point $-1 -31.55429319582268 29.043417886263853 4.9996679663879764 #
point $-1 -31.55429319582268 -29.043417886263853 4.9996679663879764 #
loop $-1 $-1 $302 $295 #
plane-surface $-1 0 29.043417886263853 0 0 -1 0 0 0 -1 forward_v I I I I #
coedge $-1 $537 $538 $299 $425 forward $296 $-1 #
coedge $-1 $299 $298 $430 $539 reversed $113 $-1 #
edge $-1 $427 31.236096715213769 $540 37.463607252249474 $423 $541 forward 7 unknown #
coedge $-1 $305 $300 $538 $542 forward $181 $-1 #
vertex $-1 $542 $543 #
straight-curve $-1 16.370712327592386 24.796265967926171 8.6116255732161484 1 0 0 I I #
coedge $-1 $544 $302 $305 $434 reversed $421 $-1 #
coedge $-1 $302 $544 $424 $539 forward $421 $-1 #
vertex $-1 $303 $545 #
straight-curve $-1 23.55407951148652 29.043417886263853 51.864919608805195 0 0 1 I I #
straight-curve $-1 23.55407951148652 -10.571708337013185 46.539135476262601 0 0.68199835119979291 -0.73135370988377701 I I #
edge $-1 $546 -41.928769798883025 $306 -23.55407951148652 $429 $547 forward 7 unknown #
point $-1 23.55407951148652 29.043417886263853 8.6116255732161537 #
point $-1 23.55407951148652 24.796265967926168 8.611625573216152 #
edge $-1 $548 1 $548 0 $309 $-1 forward 7 unknown #
vertex $-1 $310 $549 #
ellipse-curve $-1 28.803991022171232 24.237378384049816 3.8329314447855234 0 0.73135370988377701 0.68199835119979291 1.5 0 0 1 I I #
point $-1 30.303991022171232 26.91984192709501 6.334369105915461 #
edge $-1 $550 1 $550 0 $313 $-1 forward 7 unknown #
vertex $-1 $314 $551 #
ellipse-curve $-1 36.678858288198299 24.237378384049816 3.8329314447855234 0 0.73135370988377701 0.68199835119979291 1.5 0 0 1 I I #
point $-1 38.178858288198299 26.91984192709501 6.334369105915461 #
plane-surface $-1 0 0 8.6116255732161537 0 0 1 1 0 0 forward_v I I I I #
coedge $-1 $456 $455 $448 $552 forward $318 $-1 #
coedge $-1 $448 $320 $322 $452 reversed $203 $-1 #
coedge $-1 $320 $447 $446 $552 reversed $203 $-1 #
coedge $-1 $328 $323 $320 $450 forward $329 $-1 #
edge $-1 $453 -20.990360987361417 $553 -16.143052400144043 $449 $554 forward 7 unknown #
coedge $-1 $322 $321 $456 $555 reversed $127 $-1 #
edge $-1 $556 1.0367256691888158e-014 $453 7.1075077801725515 $447 $557 forward 7 unknown #
vertex $-1 $324 $558 #
straight-curve $-1 -9.9870146680107048 -24.196109299046476 8.6116255732161537 -1 0 0 I I #
coedge $-1 $446 $325 $328 $460 reversed $318 $-1 #
coedge $-1 $325 $446 $451 $555 forward $318 $-1 #
vertex $-1 $326 $559 #
straight-curve $-1 -15.584544907293958 -29.043417886263853 30.302113565753469 0 0 1 I I #
straight-curve $-1 -15.584544907293958 -29.04341788626386 3.4135233901591491 0 -0.68199835119979291 -0.73135370988377701 I I #
edge $-1 $553 -24.363513764748859 $330 -15.584544907293958 $455 $560 forward 7 unknown #
point $-1 -15.584544907293958 -29.043417886263853 8.6116255732161537 #
point $-1 -15.584544907293958 -24.19610929904648 8.6116255732161537 #
edge $-1 $561 1 $561 0 $333 $-1 forward 7 unknown #
vertex $-1 $334 $562 #
ellipse-curve $-1 -22.607719993257881 -25.888409882771381 5.3305761304878523 0 -0.73135370988377701 0.68199835119979291 0.5 0 0 1 I I #
point $-1 -22.107719993257881 -26.619763592655158 6.0125744816876452 #
edge $-1 $563 1 $563 0 $337 $-1 forward 7 unknown #
vertex $-1 $338 $564 #
ellipse-curve $-1 -19.97402933602141 -25.888409882771381 5.3305761304878523 0 -0.73135370988377701 0.68199835119979291 0.5 0 0 1 I I #
point $-1 -19.47402933602141 -26.619763592655158 6.0125744816876452 #
edge $-1 $565 1 $565 0 $341 $-1 forward 7 unknown #
vertex $-1 $342 $566 #
ellipse-curve $-1 -17.340338678784939 -25.888409882771381 5.3305761304878523 0 -0.73135370988377701 0.68199835119979291 0.5 0 0 1 I I #
point $-1 -16.840338678784939 -26.619763592655158 6.0125744816876452 #
plane-surface $-1 0 0 8.6116255732161537 0 0 1 1 0 0 forward_v I I I I #
coedge $-1 $486 $485 $478 $567 forward $346 $-1 #
coedge $-1 $478 $348 $350 $482 reversed $232 $-1 #
coedge $-1 $348 $477 $476 $567 reversed $232 $-1 #
coedge $-1 $356 $351 $348 $480 forward $357 $-1 #
edge $-1 $483 -20.990360987361417 $568 -16.143052400144043 $479 $569 forward 7 unknown #
coedge $-1 $350 $349 $486 $570 reversed $146 $-1 #
edge $-1 $571 1.0367256691888158e-014 $483 7.1075077801725515 $477 $572 forward 7 unknown #
vertex $-1 $352 $573 #
straight-curve $-1 15.174252969540888 -24.196109299046476 8.6116255732161537 -1 0 0 I I #
coedge $-1 $476 $353 $356 $490 reversed $346 $-1 #
coedge $-1 $353 $476 $481 $570 forward $346 $-1 #
vertex $-1 $354 $574 #
straight-curve $-1 34.737990367809225 -29.043417886263853 30.302113565753469 0 0 1 I I #
straight-curve $-1 34.737990367809225 -29.04341788626386 3.4135233901591491 0 -0.68199835119979291 -0.73135370988377701 I I #
edge $-1 $568 25.959021510354326 $358 34.737990367809225 $485 $575 forward 7 unknown #
point $-1 34.737990367809225 -29.043417886263853 8.6116255732161537 #
point $-1 34.737990367809225 -24.19610929904648 8.6116255732161537 #
edge $-1 $576 1 $576 0 $361 $-1 forward 7 unknown #
vertex $-1 $362 $577 #
ellipse-curve $-1 27.71481528184529 -25.888409882771381 5.3305761304878523 0 -0.73135370988377701 0.68199835119979291 0.5 0 0 1 I I #
point $-1 28.21481528184529 -26.619763592655158 6.0125744816876452 #
edge $-1 $578 1 $578 0 $365 $-1 forward 7 unknown #
vertex $-1 $366 $579 #
ellipse-curve $-1 30.348505939081775 -25.888409882771381 5.3305761304878523 0 -0.73135370988377701 0.68199835119979291 0.5 0 0 1 I I #
point $-1 30.848505939081775 -26.619763592655158 6.0125744816876452 #
edge $-1 $580 1 $580 0 $369 $-1 forward 7 unknown #
vertex $-1 $370 $581 #
ellipse-curve $-1 32.982196596318232 -25.888409882771381 5.3305761304878523 0 -0.73135370988377701 0.68199835119979291 0.5 0 0 1 I I #
point $-1 33.482196596318232 -26.619763592655158 6.0125744816876452 #
plane-surface $-1 41.928769798883025 0 0 -1 0 0 0 0 1 forward_v I I I I #
coedge $-1 $378 $376 $380 $510 reversed $261 $-1 #
edge $-1 $391 -8.6116255732161537 $512 8.6116255732161537 $390 $582 forward 7 unknown #
vertex $-1 $510 $583 #
straight-curve $-1 -41.928769798883025 -29.043417886263853 0 0 0 -1 I I #
edge $-1 $508 -29.043417886263853 $512 29.043417886263853 $506 $584 forward 7 unknown #
straight-curve $-1 0 -29.043417886263853 -8.6116255732161537 -1 0 0 I I #
vertex $-1 $383 $585 #
straight-curve $-1 0 29.043417886263853 -8.6116255732161537 1 0 0 I I #
point $-1 41.928769798883025 29.043417886263853 -8.6116255732161537 #
point $-1 41.928769798883025 -29.043417886263853 -8.6116255732161537 #
straight-curve $-1 -41.928769798883025 0 8.6116255732161537 0 -1 0 I I #
point $-1 -41.928769798883025 29.043417886263853 8.6116255732161537 #
point $-1 -41.928769798883025 -29.043417886263853 8.6116255732161537 #
straight-curve $-1 41.928769798883025 -29.043417886263853 0 0 0 -1 I I #
straight-curve $-1 41.928769798883025 29.043417886263853 0 0 0 -1 I I #
plane-surface $-1 0 -29.043417886263853 0 0 1 0 0 0 1 forward_v I I I I #
coedge $-1 $586 $403 $413 $533 reversed $280 $-1 #
coedge $-1 $403 $586 $416 $535 forward $280 $-1 #
coedge $-1 $587 $406 $404 $525 forward $401 $-1 #
edge $-1 $526 31.55429319582268 $588 41.928769798883025 $404 $589 forward 7 unknown #
vertex $-1 $525 $590 #
straight-curve $-1 -31.55429319582268 29.043417886263853 3.4028233849010325 0 0 -1 I I #
coedge $-1 $406 $587 $408 $530 forward $401 $-1 #
straight-curve $-1 -31.55429319582268 0 8.6116255732161537 0 1 0 I I #
edge $-1 $591 -41.928769798883025 $410 -31.55429319582268 $408 $592 forward 7 unknown #
point $-1 -31.55429319582268 -29.043417886263853 8.6116255732161537 #
straight-curve $-1 -41.928769798883025 0 4.9996679663879764 0 -1 0 I I #
edge $-1 $591 -8.6116255732161537 $414 -4.9996679663879764 $522 $593 forward 7 unknown #
point $-1 -41.928769798883025 -29.043417886263853 4.9996679663879764 #
edge $-1 $588 -8.6116255732161537 $417 -4.9996679663879764 $416 $594 forward 7 unknown #
point $-1 -41.928769798883025 29.043417886263853 4.9996679663879764 #
coedge $-1 $538 $423 $544 $595 reversed $296 $-1 #
coedge $-1 $423 $537 $426 $542 reversed $296 $-1 #
edge $-1 $540 -25.558057471290638 $431 -7.1833671838941342 $430 $596 forward 7 unknown #
vertex $-1 $425 $597 #
straight-curve $-1 41.928769798883025 3.4932995102331095 31.456260788176202 0 0.68199835119979291 -0.73135370988377701 I I #
edge $-1 $427 24.796265967926168 $546 29.043417886263853 $538 $598 forward 7 unknown #
point $-1 41.928769798883025 24.796265967926168 8.611625573216152 #
coedge $-1 $430 $429 $537 $595 forward $421 $-1 #
point $-1 23.55407951148652 29.043417886263853 4.0571126386147753 #
vertex $-1 $542 $599 #
straight-curve $-1 0 29.043417886263853 8.6116255732161537 -1 0 0 I I #
vertex $-1 $437 $600 #
point $-1 30.303991022171232 24.237378384049816 3.8329314447855234 #
vertex $-1 $441 $601 #
point $-1 38.178858288198299 24.237378384049816 3.8329314447855234 #
edge $-1 $553 21.690487992537314 $556 26.888590175594313 $446 $602 forward 7 unknown #
vertex $-1 $460 $603 #
straight-curve $-1 -24.363513764748859 -45.186470286407896 8.611625573216152 0 -1 0 I I #
edge $-1 $556 -14.376499096738154 $457 -5.5975302392832536 $456 $604 forward 7 unknown #
vertex $-1 $555 $605 #
straight-curve $-1 -24.363513764748859 -29.04341788626386 3.4135233901591491 0 0.68199835119979291 0.73135370988377701 I I #
point $-1 -24.363513764748859 -24.19610929904648 8.6116255732161537 #
point $-1 -15.584544907293958 -29.043417886263853 3.4135233901591566 #
straight-curve $-1 0 -29.043417886263853 8.6116255732161537 1 0 0 I I #
vertex $-1 $463 $606 #
point $-1 -22.107719993257881 -25.888409882771381 5.3305761304878523 #
vertex $-1 $467 $607 #
point $-1 -19.47402933602141 -25.888409882771381 5.3305761304878523 #
vertex $-1 $471 $608 #
point $-1 -16.840338678784939 -25.888409882771381 5.3305761304878523 #
edge $-1 $568 21.690487992537314 $571 26.888590175594313 $476 $609 forward 7 unknown #
vertex $-1 $490 $610 #
straight-curve $-1 25.959021510354326 -45.186470286407896 8.611625573216152 0 -1 0 I I #
edge $-1 $571 10.784768540813438 $487 19.563737398268337 $486 $611 forward 7 unknown #
vertex $-1 $570 $612 #
straight-curve $-1 25.959021510354326 -29.04341788626386 3.4135233901591491 0 0.68199835119979291 0.73135370988377701 I I #
point $-1 25.959021510354326 -24.19610929904648 8.6116255732161537 #
point $-1 34.737990367809225 -29.043417886263853 3.4135233901591566 #
straight-curve $-1 0 -29.043417886263853 8.6116255732161537 1 0 0 I I #
vertex $-1 $493 $613 #
point $-1 28.21481528184529 -25.888409882771381 5.3305761304878523 #
vertex $-1 $497 $614 #
point $-1 30.848505939081775 -25.888409882771381 5.3305761304878523 #
vertex $-1 $501 $615 #
point $-1 33.482196596318232 -25.888409882771381 5.3305761304878523 #
straight-curve $-1 -41.928769798883025 29.043417886263853 0 0 0 -1 I I #
point $-1 -41.928769798883025 -29.043417886263853 -8.6116255732161537 #
straight-curve $-1 -41.928769798883025 0 -8.6116255732161537 0 1 0 I I #
point $-1 -41.928769798883025 29.043417886263853 -8.6116255732161537 #
coedge $-1 $523 $522 $587 $616 reversed $280 $-1 #
coedge $-1 $528 $524 $586 $616 forward $401 $-1 #
vertex $-1 $525 $617 #
straight-curve $-1 0 29.043417886263853 8.6116255732161537 -1 0 0 I I #
point $-1 -31.55429319582268 29.043417886263853 8.6116255732161537 #
vertex $-1 $616 $618 #
straight-curve $-1 0 -29.043417886263853 8.6116255732161537 1 0 0 I I #
straight-curve $-1 -41.928769798883025 -29.043417886263853 0 0 0 -1 I I #
straight-curve $-1 -41.928769798883025 29.043417886263853 0 0 0 -1 I I #
edge $-1 $546 -8.6116255732161537 $540 -4.0571126386147753 $537 $619 forward 7 unknown #
straight-curve $-1 16.370712327592386 29.043417886263853 4.0571126386147824 -1 0 0 I I #
point $-1 41.928769798883025 29.043417886263853 4.0571126386147753 #
straight-curve $-1 41.928769798883025 0 8.6116255732161537 0 1 0 I I #
point $-1 41.928769798883025 29.043417886263853 8.6116255732161537 #
point $-1 28.803991022171232 23.14034781922415 2.8099339179858331 #
point $-1 36.678858288198299 23.14034781922415 2.8099339179858331 #
straight-curve $-1 -24.363513764748859 -29.043417886263853 30.302113565753469 0 0 -1 I I #
point $-1 -24.363513764748859 -29.043417886263853 8.6116255732161537 #
straight-curve $-1 -9.9870146680107048 -29.043417886263853 3.4135233901591548 1 0 0 I I #
point $-1 -24.363513764748859 -29.043417886263853 3.4135233901591566 #
point $-1 -22.607719993257881 -25.522733027829492 4.9895769548879549 #
point $-1 -19.97402933602141 -25.522733027829492 4.9895769548879549 #
point $-1 -17.340338678784939 -25.522733027829492 4.9895769548879549 #
straight-curve $-1 25.959021510354326 -29.043417886263853 30.302113565753469 0 0 -1 I I #
point $-1 25.959021510354326 -29.043417886263853 8.6116255732161537 #
straight-curve $-1 15.174252969540888 -29.043417886263853 3.4135233901591548 1 0 0 I I #
point $-1 25.959021510354326 -29.043417886263853 3.4135233901591566 #
point $-1 27.71481528184529 -25.522733027829492 4.9895769548879549 #
point $-1 30.348505939081775 -25.522733027829492 4.9895769548879549 #
point $-1 32.982196596318232 -25.522733027829492 4.9895769548879549 #
edge $-1 $588 -29.043417886263853 $591 29.043417886263853 $586 $620 forward 7 unknown #
point $-1 -41.928769798883025 29.043417886263853 8.6116255732161537 #
point $-1 -41.928769798883025 -29.043417886263853 8.6116255732161537 #
straight-curve $-1 41.928769798883025 29.043417886263853 0 0 0 -1 I I #
straight-curve $-1 -41.928769798883025 0 8.6116255732161537 0 -1 0 I I #
End-of-ACIS-data 