500 0 8 0           
7 Unknown 11 ACIS 5.0 NT 24 Fri Mar 26 03:31:34 1999 
-1 9.9999999999999995e-007 1e-010 
body $-1 $8 $-1 $9 #
body $-1 $10 $-1 $11 #
body $-1 $12 $-1 $13 #
body $-1 $14 $-1 $15 #
body $-1 $16 $-1 $17 #
body $-1 $18 $-1 $19 #
body $-1 $20 $-1 $21 #
body $-1 $22 $-1 $23 #
lump $-1 $-1 $24 $0 #
transform $-1 1 0 0 0 1 0 0 0 1 46.203802606280711 21.880920661739601 7.6980881187943391 1 rotate no_reflect no_shear #
lump $-1 $-1 $25 $1 #
transform $-1 1 0 0 0 1 0 0 0 1 46.203802606280711 21.880920661739601 7.6980881187943391 1 rotate no_reflect no_shear #
lump $-1 $-1 $26 $2 #
transform $-1 1 0 0 0 1 0 0 0 1 46.203802606280711 21.880920661739601 7.6980881187943391 1 rotate no_reflect no_shear #
lump $-1 $-1 $27 $3 #
transform $-1 1 0 0 0 1 0 0 0 1 46.203802606280711 21.880920661739601 7.6980881187943391 1 rotate no_reflect no_shear #
lump $-1 $-1 $28 $4 #
transform $-1 1 0 0 0 1 0 0 0 1 46.203802606280711 21.880920661739601 7.6980881187943391 1 rotate no_reflect no_shear #
lump $-1 $-1 $29 $5 #
transform $-1 1 0 0 0 1 0 0 0 1 46.203802606280711 21.880920661739601 7.6980881187943391 1 rotate no_reflect no_shear #
lump $-1 $-1 $30 $6 #
transform $-1 1 0 0 0 1 0 0 0 1 46.203802606280711 21.880920661739601 7.6980881187943391 1 rotate no_reflect no_shear #
lump $-1 $-1 $31 $7 #
transform $-1 1 0 0 0 1 0 0 0 1 46.203802606280711 21.880920661739601 7.6980881187943391 1 rotate no_reflect no_shear #
shell $-1 $-1 $-1 $32 $-1 $8 #
shell $-1 $-1 $-1 $33 $-1 $10 #
shell $-1 $-1 $-1 $34 $-1 $12 #
shell $-1 $-1 $-1 $35 $-1 $14 #
shell $-1 $-1 $-1 $36 $-1 $16 #
shell $-1 $-1 $-1 $37 $-1 $18 #
shell $-1 $-1 $-1 $38 $-1 $20 #
shell $-1 $-1 $-1 $39 $-1 $22 #
face $-1 $40 $41 $24 $-1 $42 forward single #
face $-1 $43 $44 $25 $-1 $45 forward single #
face $-1 $46 $47 $26 $-1 $48 reversed single #
face $-1 $49 $50 $27 $-1 $51 forward single #
face $-1 $52 $53 $28 $-1 $54 forward single #
face $-1 $55 $56 $29 $-1 $57 forward single #
face $-1 $58 $59 $30 $-1 $60 reversed single #
face $-1 $61 $62 $31 $-1 $63 forward single #
face $-1 $64 $65 $24 $-1 $66 reversed single #
loop $-1 $-1 $67 $32 #
plane-surface $-1 0 0 7.6980881187943391 0 0 1 1 0 0 forward_v I I I I #
face $-1 $68 $69 $25 $-1 $70 reversed single #
loop $-1 $-1 $71 $33 #
plane-surface $-1 0 -18.657915096366175 -4.6980881187943391 0 0 1 1 0 0 forward_v I I I I #
face $-1 $72 $73 $26 $-1 $74 reversed single #
loop $-1 $-1 $75 $34 #
plane-surface $-1 -114.87603701999922 -8.9952762483646058 65.915893160946965 0 1 0 -0.74314483375859142 0 0.66913059716165679 forward_v I I I I #
face $-1 $76 $77 $27 $-1 $78 forward single #
loop $-1 $79 $80 $35 #
cone-surface $-1 -44.083106868593752 -7.6932107726291328 5.4464995633017343 0.74314483375859142 0 -0.66913059716165679 0.3345652985808284 0 0.37157241687929571 1 I I 0 1 0.5 forward I I I I #
face $-1 $81 $82 $28 $-1 $83 forward single #
loop $-1 $84 $85 $36 #
cone-surface $-1 -44.083106868593752 -5.7401125590259205 5.4464995633017343 0.74314483375859142 0 -0.66913059716165679 0.3345652985808284 0 0.37157241687929571 1 I I 0 1 0.5 forward I I I I #
face $-1 $86 $87 $29 $-1 $88 forward single #
loop $-1 $89 $90 $37 #
cone-surface $-1 -44.083106868593752 -3.7870143454227083 5.4464995633017343 0.74314483375859142 0 -0.66913059716165679 0.3345652985808284 0 0.37157241687929571 1 I I 0 1 0.5 forward I I I I #
face $-1 $91 $92 $30 $-1 $93 reversed single #
loop $-1 $-1 $94 $38 #
plane-surface $-1 21.268104081401923 13.849977986149451 132.15184001709511 0 -1 0 -0.55919291073839883 0 -0.82903756765294845 forward_v I I I I #
face $-1 $95 $96 $31 $-1 $97 forward single #
loop $-1 $98 $99 $39 #
cone-surface $-1 42.057178425111516 10.729252823408594 3.8441920255466036 -0.55919291073839883 0 -0.82903756765294845 1.2435563514794228 0 -0.83878936610759824 1 I I 0 1 1.5 forward I I I I #
face $-1 $100 $101 $24 $-1 $102 reversed single #
loop $-1 $-1 $103 $40 #
plane-surface $-1 0 0 -7.6980881187943391 0 0 1 1 0 0 forward_v I I I I #
coedge $-1 $104 $105 $106 $107 forward $41 $-1 #
face $-1 $108 $109 $25 $-1 $110 reversed single #
loop $-1 $-1 $111 $43 #
plane-surface $-1 0 -15.43490953099275 -6.1980881187943391 0 -1 0 0 0 -1 forward_v I I I I #
coedge $-1 $112 $113 $114 $115 reversed $44 $-1 #
face $-1 $116 $117 $26 $-1 $118 reversed single #
loop $-1 $-1 $119 $46 #
plane-surface $-1 -46.203802606280718 -5.740112559025917 4.0831371027871128 -0.74314483375859142 0 0.66913059716165679 0.66913059716165679 0 0.74314483375859142 forward_v I I I I #
coedge $-1 $120 $121 $122 $123 reversed $47 $-1 #
face $-1 $-1 $124 $27 $-1 $125 forward single #
loop $-1 $126 $127 $49 #
cone-surface $-1 -43.404083139337985 -7.6932107726291328 4.8351038665223305 0.74314483375859142 0 -0.66913059716165679 0.1672826492904142 0 0.18578620843964785 1 I I -0.70710678118654746 0.70710678118654746 0.25 forward I I I I #
loop $-1 $-1 $128 $35 #
coedge $-1 $80 $80 $129 $130 reversed $50 $-1 #
face $-1 $-1 $131 $28 $-1 $132 forward single #
loop $-1 $133 $134 $52 #
cone-surface $-1 -43.404083139337985 -5.7401125590259205 4.8351038665223305 0.74314483375859142 0 -0.66913059716165679 0.1672826492904142 0 0.18578620843964785 1 I I -0.70710678118654746 0.70710678118654746 0.25 forward I I I I #
loop $-1 $-1 $135 $36 #
coedge $-1 $85 $85 $136 $137 reversed $53 $-1 #
face $-1 $-1 $138 $29 $-1 $139 forward single #
loop $-1 $140 $141 $55 #
cone-surface $-1 -43.404083139337985 -3.7870143454227083 4.8351038665223305 0.74314483375859142 0 -0.66913059716165679 0.1672826492904142 0 0.18578620843964785 1 I I -0.70710678118654746 0.70710678118654746 0.25 forward I I I I #
loop $-1 $-1 $142 $37 #
coedge $-1 $90 $90 $143 $144 reversed $56 $-1 #
face $-1 $145 $146 $30 $-1 $147 reversed single #
loop $-1 $-1 $148 $58 #
plane-surface $-1 -30.405573651775136 10.729252823408594 55.542463759039265 0.55919291073839883 0 0.82903756765294845 0.82903756765294845 0 -0.55919291073839883 forward_v I I I I #
coedge $-1 $149 $150 $151 $152 reversed $59 $-1 #
face $-1 $-1 $153 $31 $-1 $154 forward single #
loop $-1 $155 $156 $61 #
cone-surface $-1 40.329746417024417 10.729252823408594 1.2831688030252044 -0.55919291073839883 0 -0.82903756765294845 0.62177817573971139 0 -0.41939468305379912 1 I I -0.70710678118654757 0.70710678118654757 0.75 forward I I I I #
loop $-1 $-1 $157 $39 #
coedge $-1 $99 $99 $158 $159 reversed $62 $-1 #
face $-1 $160 $161 $24 $-1 $162 reversed single #
loop $-1 $-1 $163 $64 #
plane-surface $-1 0 -21.880920661739601 0 0 1 0 0 0 1 forward_v I I I I #
coedge $-1 $164 $165 $166 $167 forward $65 $-1 #
coedge $-1 $168 $67 $169 $170 forward $41 $-1 #
coedge $-1 $67 $168 $171 $172 forward $41 $-1 #
coedge $-1 $173 $174 $67 $107 reversed $175 $-1 #
edge $-1 $176 -21.880920661739601 $177 21.880920661739601 $106 $178 forward 7 unknown #
face $-1 $179 $180 $25 $-1 $181 reversed single #
loop $-1 $-1 $182 $68 #
plane-surface $-1 0 0 -7.6980881187943391 0 0 1 1 0 0 forward_v I I I I #
coedge $-1 $183 $184 $185 $186 reversed $69 $-1 #
coedge $-1 $187 $71 $184 $188 forward $44 $-1 #
coedge $-1 $71 $187 $189 $190 reversed $44 $-1 #
coedge $-1 $191 $185 $71 $115 forward $180 $-1 #
edge $-1 $192 6.1059519828096622 $193 12.551963113556514 $114 $194 forward 7 unknown #
face $-1 $195 $196 $26 $-1 $197 forward single #
loop $-1 $-1 $198 $72 #
plane-surface $-1 -114.87603701999922 -2.4849488696872282 65.915893160946965 0 -1 0 0.74314483375859142 0 -0.66913059716165679 forward_v I I I I #
coedge $-1 $199 $200 $201 $202 reversed $73 $-1 #
coedge $-1 $121 $75 $203 $204 reversed $47 $-1 #
coedge $-1 $75 $120 $199 $205 reversed $47 $-1 #
coedge $-1 $201 $206 $75 $123 forward $196 $-1 #
edge $-1 $207 11.234215903718898 $208 14.489132337460553 $122 $209 forward 7 unknown #
loop $-1 $-1 $129 $76 #
plane-surface $-1 -46.203802606280718 -5.740112559025917 4.0831371027871128 -0.74314483375859142 0 0.66913059716165679 0.66913059716165679 0 0.74314483375859142 forward_v I I I I #
loop $-1 $-1 $210 $49 #
coedge $-1 $127 $127 $128 $211 reversed $77 $-1 #
coedge $-1 $128 $128 $127 $211 forward $79 $-1 #
coedge $-1 $129 $129 $80 $130 forward $124 $-1 #
edge $-1 $212 0 $212 6.2831853071796004 $129 $213 forward 7 unknown #
loop $-1 $-1 $136 $81 #
plane-surface $-1 -46.203802606280718 -5.740112559025917 4.0831371027871128 -0.74314483375859142 0 0.66913059716165679 0.66913059716165679 0 0.74314483375859142 forward_v I I I I #
loop $-1 $-1 $214 $52 #
coedge $-1 $134 $134 $135 $215 reversed $82 $-1 #
coedge $-1 $135 $135 $134 $215 forward $84 $-1 #
coedge $-1 $136 $136 $85 $137 forward $131 $-1 #
edge $-1 $216 0 $216 6.2831853071796004 $136 $217 forward 7 unknown #
loop $-1 $-1 $143 $86 #
plane-surface $-1 -46.203802606280718 -5.740112559025917 4.0831371027871128 -0.74314483375859142 0 0.66913059716165679 0.66913059716165679 0 0.74314483375859142 forward_v I I I I #
loop $-1 $-1 $218 $55 #
coedge $-1 $141 $141 $142 $219 reversed $87 $-1 #
coedge $-1 $142 $142 $141 $219 forward $89 $-1 #
coedge $-1 $143 $143 $90 $144 forward $138 $-1 #
edge $-1 $220 0 $220 6.2831853071796004 $143 $221 forward 7 unknown #
face $-1 $222 $223 $30 $-1 $224 reversed single #
loop $-1 $-1 $225 $91 #
plane-surface $-1 21.268104081401923 7.6085276606677361 132.15184001709511 0 1 0 0.55919291073839883 0 0.82903756765294845 forward_v I I I I #
coedge $-1 $226 $227 $228 $229 reversed $92 $-1 #
coedge $-1 $150 $94 $230 $231 reversed $59 $-1 #
coedge $-1 $94 $149 $226 $232 reversed $59 $-1 #
coedge $-1 $228 $233 $94 $152 forward $234 $-1 #
edge $-1 $235 -35.569750565579753 $236 -29.892576853307926 $151 $237 forward 7 unknown #
loop $-1 $-1 $158 $95 #
plane-surface $-1 -30.405573651775136 10.729252823408594 55.542463759039265 0.55919291073839883 0 0.82903756765294845 0.82903756765294845 0 -0.55919291073839883 forward_v I I I I #
loop $-1 $-1 $238 $61 #
coedge $-1 $156 $156 $157 $239 reversed $96 $-1 #
coedge $-1 $157 $157 $156 $239 forward $98 $-1 #
coedge $-1 $158 $158 $99 $159 forward $153 $-1 #
edge $-1 $240 0 $240 6.2831853071796004 $158 $241 forward 7 unknown #
face $-1 $242 $243 $24 $-1 $244 reversed single #
loop $-1 $-1 $245 $100 #
plane-surface $-1 -46.203802606280711 0 0 1 0 0 0 0 -1 forward_v I I I I #
coedge $-1 $246 $171 $247 $248 forward $101 $-1 #
coedge $-1 $249 $103 $246 $250 forward $65 $-1 #
coedge $-1 $103 $249 $251 $252 forward $65 $-1 #
coedge $-1 $174 $173 $103 $167 reversed $175 $-1 #
edge $-1 $253 -21.880920661739601 $254 21.880920661739601 $166 $255 forward 7 unknown #
coedge $-1 $105 $104 $256 $257 forward $41 $-1 #
coedge $-1 $258 $259 $104 $170 reversed $243 $-1 #
edge $-1 $177 -46.203802606280711 $260 46.203802606280711 $169 $261 forward 7 unknown #
coedge $-1 $163 $262 $105 $172 reversed $101 $-1 #
edge $-1 $263 -46.203802606280711 $176 46.203802606280711 $171 $264 forward 7 unknown #
coedge $-1 $166 $106 $262 $265 forward $175 $-1 #
coedge $-1 $106 $166 $258 $266 reversed $175 $-1 #
loop $-1 $-1 $173 $242 #
vertex $-1 $107 $267 #
vertex $-1 $107 $268 #
straight-curve $-1 46.203802606280711 0 7.6980881187943391 0 1 0 I I #
face $-1 $269 $270 $25 $-1 $271 reversed single #
loop $-1 $-1 $185 $108 #
plane-surface $-1 46.203802606280711 0 0 -1 0 0 0 0 1 forward_v I I I I #
coedge $-1 $272 $273 $183 $274 forward $109 $-1 #
coedge $-1 $275 $111 $182 $274 reversed $69 $-1 #
coedge $-1 $111 $275 $112 $188 reversed $69 $-1 #
coedge $-1 $114 $276 $111 $186 forward $180 $-1 #
edge $-1 $277 -4.5990440593971691 $192 -1.5990440593971695 $185 $278 forward 7 unknown #
coedge $-1 $113 $112 $279 $280 reversed $44 $-1 #
edge $-1 $192 -46.203802606280711 $281 46.203802606280711 $184 $282 forward 7 unknown #
coedge $-1 $283 $284 $113 $190 forward $270 $-1 #
edge $-1 $193 -46.203802606280711 $285 46.203802606280711 $189 $286 forward 7 unknown #
coedge $-1 $276 $114 $284 $287 forward $180 $-1 #
vertex $-1 $115 $288 #
vertex $-1 $287 $289 #
straight-curve $-1 46.203802606280711 -9.3289575481830873 -4.6980881187943391 0 -1 0 I I #
face $-1 $-1 $290 $26 $-1 $291 reversed single #
loop $-1 $-1 $122 $116 #
plane-surface $-1 0 0 7.6980881187943391 0 0 1 1 0 0 forward_v I I I I #
coedge $-1 $292 $293 $294 $295 reversed $117 $-1 #
coedge $-1 $296 $119 $121 $205 forward $73 $-1 #
coedge $-1 $119 $296 $292 $297 forward $73 $-1 #
coedge $-1 $294 $122 $119 $202 forward $196 $-1 #
edge $-1 $208 -6.1252199688516473 $298 0.38510740982573033 $201 $299 forward 7 unknown #
coedge $-1 $300 $301 $120 $204 forward $290 $-1 #
edge $-1 $302 -28.874809477686362 $207 -25.259858461679144 $203 $303 forward 7 unknown #
edge $-1 $208 -4.8643963488569897 $302 -1.0694865687384493e-014 $121 $304 forward 7 unknown #
coedge $-1 $122 $294 $300 $305 forward $196 $-1 #
vertex $-1 $204 $306 #
vertex $-1 $123 $307 #
straight-curve $-1 -57.438018509999608 -8.9952762483646058 7.6980881187943382 1 0 0 I I #
coedge $-1 $210 $210 $-1 $308 reversed $126 $-1 #
edge $-1 $309 0 $309 6.2831853071796004 $127 $310 forward 7 unknown #
vertex $-1 $130 $311 #
ellipse-curve $-1 -44.576344389409883 -7.6932107726291328 5.8906126107907317 -0.74314483375859142 0 0.66913059716165679 0.3345652985808284 0 0.37157241687929571 1 I I #
coedge $-1 $214 $214 $-1 $312 reversed $133 $-1 #
edge $-1 $313 0 $313 6.2831853071796004 $134 $314 forward 7 unknown #
vertex $-1 $137 $315 #
ellipse-curve $-1 -44.576344389409883 -5.7401125590259205 5.8906126107907317 -0.74314483375859142 0 0.66913059716165679 0.3345652985808284 0 0.37157241687929571 1 I I #
coedge $-1 $218 $218 $-1 $316 reversed $140 $-1 #
edge $-1 $317 0 $317 6.2831853071796004 $141 $318 forward 7 unknown #
vertex $-1 $144 $319 #
ellipse-curve $-1 -44.576344389409883 -3.7870143454227083 5.8906126107907317 -0.74314483375859142 0 0.66913059716165679 0.3345652985808284 0 0.37157241687929571 1 I I #
face $-1 $-1 $234 $30 $-1 $320 forward single #
loop $-1 $-1 $321 $145 #
plane-surface $-1 46.203802606280711 0 0 -1 0 0 0 0 1 forward_v I I I I #
coedge $-1 $322 $323 $324 $325 reversed $146 $-1 #
coedge $-1 $326 $148 $150 $232 forward $92 $-1 #
coedge $-1 $148 $326 $322 $327 forward $92 $-1 #
coedge $-1 $324 $151 $148 $229 forward $234 $-1 #
edge $-1 $236 -8.4853515744451542 $328 -2.2439012489634393 $228 $329 forward 7 unknown #
coedge $-1 $330 $331 $149 $231 forward $223 $-1 #
edge $-1 $332 -62.207133982685349 $235 -58.377831889753217 $230 $333 forward 7 unknown #
edge $-1 $236 85.559696343552972 $332 92.407605212561421 $150 $334 forward 7 unknown #
coedge $-1 $151 $324 $330 $335 forward $234 $-1 #
loop $-1 $-1 $324 $222 #
vertex $-1 $231 $336 #
vertex $-1 $152 $337 #
straight-curve $-1 10.634052040700961 13.849977986149451 7.6980881187943382 -1 0 0 I I #
coedge $-1 $238 $238 $-1 $338 reversed $155 $-1 #
edge $-1 $339 0 $339 6.2831853071796004 $156 $340 forward 7 unknown #
vertex $-1 $159 $341 #
ellipse-curve $-1 43.365215750144799 10.729252823408594 5.7834370723282653 0.55919291073839883 0 0.82903756765294845 1.2435563514794228 0 -0.83878936610759824 1 I I #
face $-1 $-1 $175 $24 $-1 $342 reversed single #
loop $-1 $-1 $258 $160 #
plane-surface $-1 0 21.880920661739601 0 0 -1 0 0 0 -1 forward_v I I I I #
coedge $-1 $343 $256 $259 $344 forward $161 $-1 #
coedge $-1 $262 $163 $164 $250 reversed $101 $-1 #
coedge $-1 $256 $343 $163 $248 reversed $161 $-1 #
edge $-1 $263 -7.6980881187943391 $345 7.6980881187943391 $247 $346 forward 7 unknown #
coedge $-1 $165 $164 $343 $347 forward $65 $-1 #
edge $-1 $254 -46.203802606280711 $345 46.203802606280711 $246 $348 forward 7 unknown #
coedge $-1 $259 $258 $165 $252 reversed $243 $-1 #
edge $-1 $349 -46.203802606280711 $253 46.203802606280711 $251 $350 forward 7 unknown #
vertex $-1 $167 $351 #
vertex $-1 $265 $352 #
straight-curve $-1 46.203802606280711 0 -7.6980881187943391 0 -1 0 I I #
coedge $-1 $245 $247 $168 $257 reversed $161 $-1 #
edge $-1 $260 -21.880920661739601 $263 21.880920661739601 $256 $353 forward 7 unknown #
coedge $-1 $251 $169 $174 $266 forward $243 $-1 #
coedge $-1 $169 $251 $245 $344 reversed $243 $-1 #
vertex $-1 $170 $354 #
straight-curve $-1 0 21.880920661739601 7.6980881187943391 -1 0 0 I I #
coedge $-1 $171 $246 $173 $265 reversed $101 $-1 #
vertex $-1 $257 $355 #
straight-curve $-1 0 -21.880920661739601 7.6980881187943391 1 0 0 I I #
edge $-1 $176 -7.6980881187943391 $254 7.6980881187943391 $173 $356 forward 7 unknown #
edge $-1 $177 -7.6980881187943391 $253 7.6980881187943391 $174 $357 forward 7 unknown #
point $-1 46.203802606280711 -21.880920661739601 7.6980881187943391 #
point $-1 46.203802606280711 21.880920661739601 7.6980881187943391 #
face $-1 $-1 $358 $25 $-1 $359 reversed single #
loop $-1 $-1 $189 $179 #
plane-surface $-1 0 -21.880920661739601 0 0 1 0 0 0 1 forward_v I I I I #
coedge $-1 $360 $182 $276 $361 forward $109 $-1 #
coedge $-1 $182 $360 $362 $363 forward $109 $-1 #
edge $-1 $364 -46.203802606280711 $277 46.203802606280711 $182 $365 forward 7 unknown #
coedge $-1 $184 $183 $366 $367 reversed $69 $-1 #
coedge $-1 $185 $191 $272 $361 reversed $180 $-1 #
vertex $-1 $361 $368 #
straight-curve $-1 46.203802606280711 -15.43490953099275 -3.0990440593971695 0 0 1 I I #
coedge $-1 $366 $369 $187 $280 forward $358 $-1 #
edge $-1 $285 -12.551963113556514 $281 -6.1059519828096622 $279 $370 forward 7 unknown #
vertex $-1 $280 $371 #
straight-curve $-1 0 -15.43490953099275 -4.6980881187943391 -1 0 0 I I #
coedge $-1 $372 $189 $369 $373 forward $270 $-1 #
coedge $-1 $189 $372 $191 $287 reversed $270 $-1 #
vertex $-1 $373 $374 #
straight-curve $-1 0 -21.880920661739601 -4.6980881187943391 -1 0 0 I I #
edge $-1 $193 4.6980881187943391 $375 7.6980881187943391 $191 $376 forward 7 unknown #
point $-1 46.203802606280711 -15.43490953099275 -4.6980881187943391 #
point $-1 46.203802606280711 -21.880920661739601 -4.6980881187943391 #
loop $-1 $-1 $203 $195 #
plane-surface $-1 -46.203802606280711 0 0 1 0 0 0 0 -1 forward_v I I I I #
coedge $-1 $293 $198 $200 $297 reversed $117 $-1 #
coedge $-1 $198 $292 $377 $378 reversed $117 $-1 #
coedge $-1 $206 $201 $198 $295 forward $196 $-1 #
edge $-1 $298 -14.489132337460553 $379 -11.234215903718898 $294 $380 forward 7 unknown #
coedge $-1 $200 $199 $301 $381 reversed $73 $-1 #
edge $-1 $382 1.0694865687384493e-014 $298 4.8643963488569897 $292 $383 forward 7 unknown #
vertex $-1 $202 $384 #
straight-curve $-1 -42.948886172539055 -2.8700562795129585 7.6980881187943382 0 1 0 I I #
coedge $-1 $377 $203 $206 $305 reversed $290 $-1 #
coedge $-1 $203 $377 $296 $381 forward $290 $-1 #
vertex $-1 $204 $385 #
straight-curve $-1 -46.203802606280711 -8.9952762483646058 32.957946580473482 0 0 1 I I #
straight-curve $-1 -46.203802606280718 -8.9952762483646058 4.0831371027871128 -0.66913059716165679 0 -0.74314483375859142 I I #
edge $-1 $379 2.4849488696872282 $207 8.9952762483646058 $300 $386 forward 7 unknown #
point $-1 -46.203802606280711 -8.9952762483646058 7.6980881187943391 #
point $-1 -42.948886172539055 -8.9952762483646058 7.6980881187943382 #
edge $-1 $387 1 $387 0 $210 $-1 forward 7 unknown #
vertex $-1 $211 $388 #
ellipse-curve $-1 -43.589869347777629 -7.6932107726291328 5.002386515812745 -0.74314483375859142 0 0.66913059716165679 0.3345652985808284 0 0.37157241687929571 1 I I #
point $-1 -44.241779090829048 -7.6932107726291328 6.2621850276700197 #
edge $-1 $389 1 $389 0 $214 $-1 forward 7 unknown #
vertex $-1 $215 $390 #
ellipse-curve $-1 -43.589869347777629 -5.7401125590259205 5.002386515812745 -0.74314483375859142 0 0.66913059716165679 0.3345652985808284 0 0.37157241687929571 1 I I #
point $-1 -44.241779090829048 -5.7401125590259205 6.2621850276700197 #
edge $-1 $391 1 $391 0 $218 $-1 forward 7 unknown #
vertex $-1 $219 $392 #
ellipse-curve $-1 -43.589869347777629 -3.7870143454227083 5.002386515812745 -0.74314483375859142 0 0.66913059716165679 0.3345652985808284 0 0.37157241687929571 1 I I #
point $-1 -44.241779090829048 -3.7870143454227083 6.2621850276700197 #
plane-surface $-1 0 0 7.6980881187943391 0 0 1 1 0 0 forward_v I I I I #
coedge $-1 $331 $330 $323 $393 forward $223 $-1 #
coedge $-1 $323 $225 $227 $327 reversed $146 $-1 #
coedge $-1 $225 $322 $321 $393 reversed $146 $-1 #
coedge $-1 $233 $228 $225 $325 forward $234 $-1 #
edge $-1 $328 29.892576853307926 $394 35.569750565579753 $324 $395 forward 7 unknown #
coedge $-1 $227 $226 $331 $396 reversed $92 $-1 #
edge $-1 $397 -92.407605212561421 $328 -85.559696343552972 $322 $398 forward 7 unknown #
vertex $-1 $229 $399 #
straight-curve $-1 40.526628894008894 5.3646264117042968 7.6980881187943311 0 -1 0 I I #
coedge $-1 $321 $230 $233 $335 reversed $223 $-1 #
coedge $-1 $230 $321 $326 $396 forward $223 $-1 #
vertex $-1 $231 $400 #
straight-curve $-1 46.203802606280711 13.849977986149451 66.075920008547556 0 0 1 I I #
straight-curve $-1 -30.405573651775136 13.849977986149451 55.542463759039265 0.82903756765294845 0 -0.55919291073839883 I I #
edge $-1 $394 7.6085276606677361 $235 13.849977986149451 $330 $401 forward 7 unknown #
point $-1 46.203802606280711 13.849977986149451 7.6980881187943391 #
point $-1 40.526628894008887 13.849977986149451 7.6980881187943382 #
edge $-1 $402 1 $402 0 $238 $-1 forward 7 unknown #
vertex $-1 $239 $403 #
ellipse-curve $-1 40.749141100078219 10.729252823408594 1.9049469787649158 0.55919291073839883 0 0.82903756765294845 1.2435563514794228 0 -0.83878936610759824 1 I I #
point $-1 44.608772101624233 10.729252823408594 4.9446477062206924 #
plane-surface $-1 46.203802606280711 0 0 -1 0 0 0 0 1 forward_v I I I I #
coedge $-1 $247 $245 $249 $347 reversed $161 $-1 #
edge $-1 $260 -7.6980881187943391 $349 7.6980881187943391 $259 $404 forward 7 unknown #
vertex $-1 $347 $405 #
straight-curve $-1 -46.203802606280711 -21.880920661739601 0 0 0 -1 I I #
edge $-1 $345 -21.880920661739601 $349 21.880920661739601 $343 $406 forward 7 unknown #
straight-curve $-1 0 -21.880920661739601 -7.6980881187943391 -1 0 0 I I #
vertex $-1 $252 $407 #
straight-curve $-1 0 21.880920661739601 -7.6980881187943391 1 0 0 I I #
point $-1 46.203802606280711 21.880920661739601 -7.6980881187943391 #
point $-1 46.203802606280711 -21.880920661739601 -7.6980881187943391 #
straight-curve $-1 -46.203802606280711 0 7.6980881187943391 0 -1 0 I I #
point $-1 -46.203802606280711 21.880920661739601 7.6980881187943391 #
point $-1 -46.203802606280711 -21.880920661739601 7.6980881187943391 #
straight-curve $-1 46.203802606280711 -21.880920661739601 0 0 0 -1 I I #
straight-curve $-1 46.203802606280711 21.880920661739601 0 0 0 -1 I I #
loop $-1 $-1 $366 $269 #
plane-surface $-1 -46.203802606280711 0 0 1 0 0 0 0 -1 forward_v I I I I #
coedge $-1 $273 $272 $372 $408 forward $109 $-1 #
edge $-1 $277 15.43490953099275 $375 21.880920661739601 $276 $409 forward 7 unknown #
coedge $-1 $369 $366 $273 $363 reversed $358 $-1 #
edge $-1 $410 -21.880920661739601 $364 -15.43490953099275 $362 $411 forward 7 unknown #
vertex $-1 $367 $412 #
straight-curve $-1 0 -15.43490953099275 -7.6980881187943391 1 0 0 I I #
coedge $-1 $362 $279 $275 $367 forward $358 $-1 #
edge $-1 $281 1.5990440593971695 $364 4.5990440593971691 $366 $413 forward 7 unknown #
point $-1 46.203802606280711 -15.43490953099275 -7.6980881187943391 #
coedge $-1 $279 $362 $283 $373 reversed $358 $-1 #
straight-curve $-1 -46.203802606280711 -9.3289575481830873 -4.6980881187943391 0 1 0 I I #
point $-1 -46.203802606280711 -15.43490953099275 -4.6980881187943391 #
coedge $-1 $284 $283 $360 $408 reversed $270 $-1 #
edge $-1 $285 4.6980881187943391 $410 7.6980881187943391 $369 $414 forward 7 unknown #
point $-1 -46.203802606280711 -21.880920661739601 -4.6980881187943391 #
vertex $-1 $287 $415 #
straight-curve $-1 46.203802606280711 -21.880920661739601 0 0 0 -1 I I #
coedge $-1 $301 $300 $293 $378 forward $290 $-1 #
edge $-1 $379 25.259858461679144 $382 28.874809477686362 $377 $416 forward 7 unknown #
vertex $-1 $305 $417 #
straight-curve $-1 -57.438018509999608 -2.4849488696872282 7.6980881187943382 -1 0 0 I I #
edge $-1 $382 -0.38510740982573033 $302 6.1252199688516473 $301 $418 forward 7 unknown #
vertex $-1 $381 $419 #
straight-curve $-1 -46.203802606280718 -2.4849488696872282 4.0831371027871128 0.66913059716165679 0 0.74314483375859142 I I #
point $-1 -42.948886172539055 -2.4849488696872282 7.6980881187943382 #
point $-1 -46.203802606280711 -8.9952762483646058 4.0831371027871208 #
straight-curve $-1 -46.203802606280711 0 7.6980881187943391 0 -1 0 I I #
vertex $-1 $308 $420 #
point $-1 -43.255304049196802 -7.6932107726291328 5.3739589326920401 #
vertex $-1 $312 $421 #
point $-1 -43.255304049196802 -5.7401125590259205 5.3739589326920401 #
vertex $-1 $316 $422 #
point $-1 -43.255304049196802 -3.7870143454227083 5.3739589326920401 #
edge $-1 $394 58.377831889753217 $397 62.207133982685349 $321 $423 forward 7 unknown #
vertex $-1 $335 $424 #
straight-curve $-1 10.634052040700961 7.6085276606677361 7.6980881187943382 1 0 0 I I #
edge $-1 $397 2.2439012489634393 $332 8.4853515744451542 $331 $425 forward 7 unknown #
vertex $-1 $396 $426 #
straight-curve $-1 -30.405573651775136 7.6085276606677361 55.542463759039265 -0.82903756765294845 0 0.55919291073839883 I I #
point $-1 40.526628894008887 7.6085276606677361 7.6980881187943382 #
point $-1 46.203802606280711 13.849977986149451 3.8687860258622067 #
straight-curve $-1 46.203802606280711 0 7.6980881187943391 0 1 0 I I #
vertex $-1 $338 $427 #
point $-1 41.992697451557639 10.729252823408594 1.0661576126573176 #
straight-curve $-1 -46.203802606280711 21.880920661739601 0 0 0 -1 I I #
point $-1 -46.203802606280711 -21.880920661739601 -7.6980881187943391 #
straight-curve $-1 -46.203802606280711 0 -7.6980881187943391 0 1 0 I I #
point $-1 -46.203802606280711 21.880920661739601 -7.6980881187943391 #
edge $-1 $375 -46.203802606280711 $410 46.203802606280711 $372 $428 forward 7 unknown #
straight-curve $-1 46.203802606280711 0 -7.6980881187943391 0 -1 0 I I #
vertex $-1 $363 $429 #
straight-curve $-1 -46.203802606280711 0 -7.6980881187943391 0 1 0 I I #
point $-1 -46.203802606280711 -15.43490953099275 -7.6980881187943391 #
straight-curve $-1 -46.203802606280711 -15.43490953099275 -3.0990440593971695 0 0 -1 I I #
straight-curve $-1 -46.203802606280711 -21.880920661739601 0 0 0 -1 I I #
point $-1 46.203802606280711 -21.880920661739601 -7.6980881187943391 #
straight-curve $-1 -46.203802606280711 -2.4849488696872282 32.957946580473482 0 0 -1 I I #
point $-1 -46.203802606280711 -2.4849488696872282 7.6980881187943391 #
straight-curve $-1 -46.203802606280711 -2.8700562795129585 4.0831371027871226 0 -1 0 I I #
point $-1 -46.203802606280711 -2.4849488696872282 4.0831371027871208 #
point $-1 -43.21829693089834 -7.6932107726291328 4.667821217231916 #
point $-1 -43.21829693089834 -5.7401125590259205 4.667821217231916 #
point $-1 -43.21829693089834 -3.7870143454227083 4.667821217231916 #
straight-curve $-1 46.203802606280711 7.6085276606677361 66.075920008547556 0 0 -1 I I #
point $-1 46.203802606280711 7.6085276606677361 7.6980881187943391 #
straight-curve $-1 46.203802606280711 5.3646264117042968 3.868786025862196 0 1 0 I I #
point $-1 46.203802606280711 7.6085276606677361 3.8687860258622067 #
point $-1 39.910351733970614 10.729252823408594 0.66139062728549303 #
straight-curve $-1 0 -21.880920661739601 -7.6980881187943391 -1 0 0 I I #
point $-1 -46.203802606280711 -21.880920661739601 -7.6980881187943391 #
End-of-ACIS-data 