500 0 10 0           
7 Unknown 11 ACIS 5.0 NT 24 Fri Mar 26 14:58:41 1999 
-1 9.9999999999999995e-007 1e-010 
body $-1 $10 $-1 $11 #
body $-1 $12 $-1 $13 #
body $-1 $14 $-1 $15 #
body $-1 $16 $-1 $17 #
body $-1 $18 $-1 $19 #
body $-1 $20 $-1 $21 #
body $-1 $22 $-1 $23 #
body $-1 $24 $-1 $25 #
body $-1 $26 $-1 $27 #
body $-1 $28 $-1 $29 #
lump $-1 $-1 $30 $0 #
transform $-1 1 0 0 0 1 0 0 0 1 42.635578478347121 29.392096276422478 8.7987021202865119 1 rotate no_reflect no_shear #
lump $-1 $-1 $31 $1 #
transform $-1 1 0 0 0 1 0 0 0 1 42.635578478347121 29.392096276422478 8.7987021202865119 1 rotate no_reflect no_shear #
lump $-1 $-1 $32 $2 #
transform $-1 1 0 0 0 1 0 0 0 1 42.635578478347121 29.392096276422478 8.7987021202865119 1 rotate no_reflect no_shear #
lump $-1 $-1 $33 $3 #
transform $-1 1 0 0 0 1 0 0 0 1 42.635578478347121 29.392096276422478 8.7987021202865119 1 rotate no_reflect no_shear #
lump $-1 $-1 $34 $4 #
transform $-1 1 0 0 0 1 0 0 0 1 42.635578478347121 29.392096276422478 8.7987021202865119 1 rotate no_reflect no_shear #
lump $-1 $-1 $35 $5 #
transform $-1 1 0 0 0 1 0 0 0 1 42.635578478347121 29.392096276422478 8.7987021202865119 1 rotate no_reflect no_shear #
lump $-1 $-1 $36 $6 #
transform $-1 1 0 0 0 1 0 0 0 1 42.635578478347121 29.392096276422478 8.7987021202865119 1 rotate no_reflect no_shear #
lump $-1 $-1 $37 $7 #
transform $-1 1 0 0 0 1 0 0 0 1 42.635578478347121 29.392096276422478 8.7987021202865119 1 rotate no_reflect no_shear #
lump $-1 $-1 $38 $8 #
transform $-1 1 0 0 0 1 0 0 0 1 42.635578478347121 29.392096276422478 8.7987021202865119 1 rotate no_reflect no_shear #
lump $-1 $-1 $39 $9 #
transform $-1 1 0 0 0 1 0 0 0 1 42.635578478347121 29.392096276422478 8.7987021202865119 1 rotate no_reflect no_shear #
shell $-1 $-1 $-1 $40 $-1 $10 #
shell $-1 $-1 $-1 $41 $-1 $12 #
shell $-1 $-1 $-1 $42 $-1 $14 #
shell $-1 $-1 $-1 $43 $-1 $16 #
shell $-1 $-1 $-1 $44 $-1 $18 #
shell $-1 $-1 $-1 $45 $-1 $20 #
shell $-1 $-1 $-1 $46 $-1 $22 #
shell $-1 $-1 $-1 $47 $-1 $24 #
shell $-1 $-1 $-1 $48 $-1 $26 #
shell $-1 $-1 $-1 $49 $-1 $28 #
face $-1 $50 $51 $30 $-1 $52 forward single #
face $-1 $53 $54 $31 $-1 $55 reversed single #
face $-1 $56 $57 $32 $-1 $58 reversed single #
face $-1 $59 $60 $33 $-1 $61 reversed single #
face $-1 $62 $63 $34 $-1 $64 forward single #
face $-1 $65 $66 $35 $-1 $67 forward single #
face $-1 $68 $69 $36 $-1 $70 reversed single #
face $-1 $71 $72 $37 $-1 $73 forward single #
face $-1 $74 $75 $38 $-1 $76 forward single #
face $-1 $77 $78 $39 $-1 $79 forward single #
face $-1 $80 $81 $30 $-1 $82 reversed single #
loop $-1 $-1 $83 $40 #
plane-surface $-1 0 0 8.7987021202865119 0 0 1 1 0 0 forward_v I I I I #
face $-1 $84 $85 $31 $-1 $86 reversed single #
loop $-1 $-1 $87 $41 #
plane-surface $-1 0 -25.53584964941032 5.6031140453122505 0 0 1 1 0 0 forward_v I I I I #
face $-1 $88 $89 $32 $-1 $90 reversed single #
loop $-1 $-1 $91 $42 #
plane-surface $-1 0 25.535849649410324 5.6031140453122505 0 0 1 1 0 0 forward_v I I I I #
face $-1 $92 $93 $33 $-1 $94 reversed single #
loop $-1 $-1 $95 $43 #
plane-surface $-1 -90.318604938991854 12.927349126997328 74.279066951299683 0 1 0 -0.55919291073839883 0 0.82903756765294845 forward_v I I I I #
face $-1 $96 $97 $34 $-1 $98 forward single #
loop $-1 $99 $100 $44 #
cone-surface $-1 -38.491962893056339 14.665648987856308 5.7778694748013208 0.55919291073839883 0 -0.82903756765294845 0.41451878382647422 0 0.27959645536919941 1 I I 0 1 0.5 forward I I I I #
face $-1 $101 $102 $35 $-1 $103 forward single #
loop $-1 $104 $105 $45 #
cone-surface $-1 -38.491962893056339 17.273098779144775 5.7778694748013208 0.55919291073839883 0 -0.82903756765294845 0.41451878382647422 0 0.27959645536919941 1 I I 0 1 0.5 forward I I I I #
face $-1 $106 $107 $36 $-1 $108 reversed single #
loop $-1 $-1 $109 $46 #
plane-surface $-1 -11.027298491515047 16.496989014797506 69.61902022635968 0.77714596973225614 0 0.62932038083071107 0.62932038083071107 0 -0.77714596973225614 forward_v I I I I #
face $-1 $110 $111 $37 $-1 $112 forward single #
loop $-1 $113 $114 $47 #
cone-surface $-1 38.967330308727085 13.387420610237115 4.8905081493134182 -0.77714596973225614 0 -0.62932038083071107 0.62932038083071107 0 -0.77714596973225614 1 I I 0 1 1 forward I I I I #
face $-1 $115 $116 $38 $-1 $117 forward single #
loop $-1 $118 $119 $48 #
cone-surface $-1 38.967330308727085 16.496989014797506 4.8905081493134182 -0.77714596973225614 0 -0.62932038083071107 0.62932038083071107 0 -0.77714596973225614 1 I I 0 1 1 forward I I I I #
face $-1 $120 $121 $39 $-1 $122 forward single #
loop $-1 $123 $124 $49 #
cone-surface $-1 38.967330308727085 19.606557419357898 4.8905081493134182 -0.77714596973225614 0 -0.62932038083071107 0.62932038083071107 0 -0.77714596973225614 1 I I 0 1 1 forward I I I I #
face $-1 $125 $126 $30 $-1 $127 reversed single #
loop $-1 $-1 $128 $50 #
plane-surface $-1 0 0 -8.7987021202865119 0 0 1 1 0 0 forward_v I I I I #
coedge $-1 $129 $130 $131 $132 forward $51 $-1 #
face $-1 $133 $134 $31 $-1 $135 reversed single #
loop $-1 $-1 $136 $53 #
plane-surface $-1 0 -21.679603022398162 7.2009080827993817 0 -1 0 0 0 -1 forward_v I I I I #
coedge $-1 $137 $138 $139 $140 reversed $54 $-1 #
face $-1 $141 $142 $32 $-1 $143 forward single #
loop $-1 $-1 $144 $56 #
plane-surface $-1 0 21.679603022398165 7.2009080827993817 0 1 0 0 0 1 forward_v I I I I #
coedge $-1 $145 $146 $147 $148 reversed $57 $-1 #
face $-1 $149 $150 $33 $-1 $151 reversed single #
loop $-1 $-1 $152 $59 #
plane-surface $-1 -42.635578478347135 15.969373883500538 3.5860743969690958 -0.55919291073839883 0 0.82903756765294845 0.82903756765294845 0 0.55919291073839883 forward_v I I I I #
coedge $-1 $153 $154 $155 $156 reversed $60 $-1 #
face $-1 $-1 $157 $34 $-1 $158 forward single #
loop $-1 $159 $160 $62 #
cone-surface $-1 -38.072568210002537 14.665648987856308 5.1560912990616092 0.55919291073839883 0 -0.82903756765294845 0.20725939191323711 0 0.13979822768459971 1 I I -0.70710678118654746 0.70710678118654746 0.25 forward I I I I #
loop $-1 $-1 $161 $44 #
coedge $-1 $100 $100 $162 $163 reversed $63 $-1 #
face $-1 $-1 $164 $35 $-1 $165 forward single #
loop $-1 $166 $167 $65 #
cone-surface $-1 -38.072568210002537 17.273098779144775 5.1560912990616092 0.55919291073839883 0 -0.82903756765294845 0.20725939191323711 0 0.13979822768459971 1 I I -0.70710678118654746 0.70710678118654746 0.25 forward I I I I #
loop $-1 $-1 $168 $45 #
coedge $-1 $105 $105 $169 $170 reversed $66 $-1 #
face $-1 $171 $172 $36 $-1 $173 forward single #
loop $-1 $-1 $174 $68 #
plane-surface $-1 55.240837471786513 11.314375007196851 123.28189719622183 0 1 0 0.77714596973225614 0 0.62932038083071107 forward_v I I I I #
coedge $-1 $175 $176 $177 $178 reversed $69 $-1 #
face $-1 $-1 $179 $37 $-1 $180 forward single #
loop $-1 $181 $182 $71 #
cone-surface $-1 37.11628705320404 13.387420610237115 3.3915629165391739 -0.77714596973225614 0 -0.62932038083071107 0.31466019041535553 0 -0.38857298486612807 1 I I -0.70710678118654746 0.70710678118654746 0.5 forward I I I I #
loop $-1 $-1 $183 $47 #
coedge $-1 $114 $114 $184 $185 reversed $72 $-1 #
face $-1 $-1 $186 $38 $-1 $187 forward single #
loop $-1 $188 $189 $74 #
cone-surface $-1 37.11628705320404 16.496989014797506 3.3915629165391739 -0.77714596973225614 0 -0.62932038083071107 0.31466019041535553 0 -0.38857298486612807 1 I I -0.70710678118654746 0.70710678118654746 0.5 forward I I I I #
loop $-1 $-1 $190 $48 #
coedge $-1 $119 $119 $191 $192 reversed $75 $-1 #
face $-1 $-1 $193 $39 $-1 $194 forward single #
loop $-1 $195 $196 $77 #
cone-surface $-1 37.11628705320404 19.606557419357898 3.3915629165391739 -0.77714596973225614 0 -0.62932038083071107 0.31466019041535553 0 -0.38857298486612807 1 I I -0.70710678118654746 0.70710678118654746 0.5 forward I I I I #
loop $-1 $-1 $197 $49 #
coedge $-1 $124 $124 $198 $199 reversed $78 $-1 #
face $-1 $200 $201 $30 $-1 $202 reversed single #
loop $-1 $-1 $203 $80 #
plane-surface $-1 0 -29.392096276422478 0 0 1 0 0 0 1 forward_v I I I I #
coedge $-1 $204 $205 $206 $207 forward $81 $-1 #
coedge $-1 $208 $83 $209 $210 forward $51 $-1 #
coedge $-1 $83 $208 $211 $212 forward $51 $-1 #
coedge $-1 $213 $214 $83 $132 reversed $215 $-1 #
edge $-1 $216 -29.392096276422478 $217 29.392096276422478 $131 $218 forward 7 unknown #
face $-1 $219 $220 $31 $-1 $221 reversed single #
loop $-1 $-1 $222 $84 #
plane-surface $-1 -42.635578478347121 0 0 1 0 0 0 0 -1 forward_v I I I I #
coedge $-1 $223 $224 $225 $226 reversed $85 $-1 #
coedge $-1 $227 $87 $228 $229 reversed $54 $-1 #
coedge $-1 $87 $227 $223 $230 forward $54 $-1 #
coedge $-1 $225 $231 $87 $140 forward $232 $-1 #
edge $-1 $233 -16.624171451717316 $234 -8.9116781976930017 $139 $235 forward 7 unknown #
face $-1 $236 $237 $32 $-1 $238 reversed single #
loop $-1 $-1 $239 $88 #
plane-surface $-1 0 0 8.7987021202865119 0 0 1 1 0 0 forward_v I I I I #
coedge $-1 $240 $241 $239 $242 reversed $89 $-1 #
coedge $-1 $243 $91 $244 $245 forward $57 $-1 #
coedge $-1 $91 $243 $246 $247 reversed $57 $-1 #
coedge $-1 $248 $249 $91 $148 forward $237 $-1 #
edge $-1 $250 8.9116781976930035 $251 16.62417145171732 $147 $252 forward 7 unknown #
face $-1 $253 $254 $33 $-1 $255 reversed single #
loop $-1 $-1 $256 $92 #
plane-surface $-1 -90.318604938991854 19.011398640003748 74.279066951299683 0 -1 0 0.55919291073839883 0 -0.82903756765294845 forward_v I I I I #
coedge $-1 $257 $258 $259 $260 reversed $93 $-1 #
coedge $-1 $154 $95 $261 $262 reversed $60 $-1 #
coedge $-1 $95 $153 $257 $263 reversed $60 $-1 #
coedge $-1 $259 $264 $95 $156 forward $265 $-1 #
edge $-1 $266 2.5237239911488061 $267 10.251762250991931 $155 $268 forward 7 unknown #
loop $-1 $-1 $162 $96 #
plane-surface $-1 -42.635578478347135 15.969373883500538 3.5860743969690958 -0.55919291073839883 0 0.82903756765294845 0.82903756765294845 0 0.55919291073839883 forward_v I I I I #
loop $-1 $-1 $269 $62 #
coedge $-1 $160 $160 $161 $270 reversed $97 $-1 #
coedge $-1 $161 $161 $160 $270 forward $99 $-1 #
coedge $-1 $162 $162 $100 $163 forward $157 $-1 #
edge $-1 $271 0 $271 6.2831853071796004 $162 $272 forward 7 unknown #
loop $-1 $-1 $169 $101 #
plane-surface $-1 -42.635578478347135 15.969373883500538 3.5860743969690958 -0.55919291073839883 0 0.82903756765294845 0.82903756765294845 0 0.55919291073839883 forward_v I I I I #
loop $-1 $-1 $273 $65 #
coedge $-1 $167 $167 $168 $274 reversed $102 $-1 #
coedge $-1 $168 $168 $167 $274 forward $104 $-1 #
coedge $-1 $169 $169 $105 $170 forward $164 $-1 #
edge $-1 $275 0 $275 6.2831853071796004 $169 $276 forward 7 unknown #
face $-1 $277 $278 $36 $-1 $279 reversed single #
loop $-1 $-1 $177 $106 #
plane-surface $-1 0 0 8.7987021202865119 0 0 1 1 0 0 forward_v I I I I #
coedge $-1 $280 $281 $282 $283 reversed $107 $-1 #
coedge $-1 $284 $109 $285 $286 reversed $69 $-1 #
coedge $-1 $109 $284 $280 $287 forward $69 $-1 #
coedge $-1 $282 $288 $109 $178 forward $172 $-1 #
edge $-1 $289 -13.431108514999408 $290 -3.065880499798098 $177 $291 forward 7 unknown #
loop $-1 $-1 $184 $110 #
plane-surface $-1 -11.027298491515047 16.496989014797506 69.61902022635968 0.77714596973225614 0 0.62932038083071107 0.62932038083071107 0 -0.77714596973225614 forward_v I I I I #
loop $-1 $-1 $292 $71 #
coedge $-1 $182 $182 $183 $293 reversed $111 $-1 #
coedge $-1 $183 $183 $182 $293 forward $113 $-1 #
coedge $-1 $184 $184 $114 $185 forward $179 $-1 #
edge $-1 $294 0 $294 6.2831853071796004 $184 $295 forward 7 unknown #
loop $-1 $-1 $191 $115 #
plane-surface $-1 -11.027298491515047 16.496989014797506 69.61902022635968 0.77714596973225614 0 0.62932038083071107 0.62932038083071107 0 -0.77714596973225614 forward_v I I I I #
loop $-1 $-1 $296 $74 #
coedge $-1 $189 $189 $190 $297 reversed $116 $-1 #
coedge $-1 $190 $190 $189 $297 forward $118 $-1 #
coedge $-1 $191 $191 $119 $192 forward $186 $-1 #
edge $-1 $298 0 $298 6.2831853071796004 $191 $299 forward 7 unknown #
loop $-1 $-1 $198 $120 #
plane-surface $-1 -11.027298491515047 16.496989014797506 69.61902022635968 0.77714596973225614 0 0.62932038083071107 0.62932038083071107 0 -0.77714596973225614 forward_v I I I I #
loop $-1 $-1 $300 $77 #
coedge $-1 $196 $196 $197 $301 reversed $121 $-1 #
coedge $-1 $197 $197 $196 $301 forward $123 $-1 #
coedge $-1 $198 $198 $124 $199 forward $193 $-1 #
edge $-1 $302 0 $302 6.2831853071796004 $198 $303 forward 7 unknown #
face $-1 $304 $305 $30 $-1 $306 reversed single #
loop $-1 $-1 $307 $125 #
plane-surface $-1 -42.635578478347121 0 0 1 0 0 0 0 -1 forward_v I I I I #
coedge $-1 $308 $211 $309 $310 forward $126 $-1 #
coedge $-1 $311 $128 $308 $312 forward $81 $-1 #
coedge $-1 $128 $311 $313 $314 forward $81 $-1 #
coedge $-1 $214 $213 $128 $207 reversed $215 $-1 #
edge $-1 $315 -29.392096276422478 $316 29.392096276422478 $206 $317 forward 7 unknown #
coedge $-1 $130 $129 $318 $319 forward $51 $-1 #
coedge $-1 $320 $321 $129 $210 reversed $305 $-1 #
edge $-1 $217 -42.635578478347121 $322 42.635578478347121 $209 $323 forward 7 unknown #
coedge $-1 $203 $324 $130 $212 reversed $126 $-1 #
edge $-1 $325 -42.635578478347121 $216 42.635578478347121 $211 $326 forward 7 unknown #
coedge $-1 $206 $131 $324 $327 forward $215 $-1 #
coedge $-1 $131 $206 $320 $328 reversed $215 $-1 #
loop $-1 $-1 $213 $304 #
vertex $-1 $132 $329 #
vertex $-1 $132 $330 #
straight-curve $-1 42.635578478347121 0 8.7987021202865119 0 1 0 I I #
face $-1 $331 $332 $31 $-1 $333 forward single #
loop $-1 $-1 $228 $133 #
plane-surface $-1 0 -29.392096276422478 0 0 1 0 0 0 1 forward_v I I I I #
coedge $-1 $334 $335 $336 $337 forward $134 $-1 #
coedge $-1 $336 $136 $138 $230 reversed $85 $-1 #
coedge $-1 $136 $336 $338 $339 reversed $85 $-1 #
coedge $-1 $340 $139 $136 $226 forward $232 $-1 #
edge $-1 $234 2.0026600039125597 $341 5.1982480788868228 $225 $342 forward 7 unknown #
coedge $-1 $138 $137 $334 $343 reversed $54 $-1 #
coedge $-1 $344 $345 $137 $229 forward $220 $-1 #
edge $-1 $346 -42.635578478347121 $233 42.635578478347121 $228 $347 forward 7 unknown #
edge $-1 $348 -42.635578478347121 $234 42.635578478347121 $223 $349 forward 7 unknown #
coedge $-1 $139 $340 $344 $350 forward $232 $-1 #
loop $-1 $-1 $225 $331 #
vertex $-1 $229 $351 #
vertex $-1 $140 $352 #
straight-curve $-1 42.635578478347121 -12.76792482470516 5.6031140453122505 0 1 0 I I #
face $-1 $353 $354 $32 $-1 $355 reversed single #
loop $-1 $-1 $249 $141 #
plane-surface $-1 42.635578478347121 0 0 -1 0 0 0 0 1 forward_v I I I I #
coedge $-1 $356 $357 $144 $242 forward $142 $-1 #
coedge $-1 $244 $144 $358 $359 reversed $89 $-1 #
coedge $-1 $144 $244 $249 $360 reversed $89 $-1 #
edge $-1 $361 -42.635578478347121 $362 42.635578478347121 $239 $363 forward 7 unknown #
coedge $-1 $146 $145 $364 $365 reversed $57 $-1 #
coedge $-1 $241 $240 $145 $245 reversed $89 $-1 #
edge $-1 $250 -42.635578478347121 $366 42.635578478347121 $244 $367 forward 7 unknown #
coedge $-1 $368 $369 $146 $247 forward $370 $-1 #
edge $-1 $251 -42.635578478347121 $371 42.635578478347121 $246 $372 forward 7 unknown #
coedge $-1 $373 $147 $369 $374 reversed $237 $-1 #
coedge $-1 $147 $373 $241 $360 forward $237 $-1 #
vertex $-1 $148 $375 #
vertex $-1 $247 $376 #
straight-curve $-1 42.635578478347121 12.767924824705162 5.6031140453122505 0 1 0 I I #
face $-1 $-1 $265 $33 $-1 $377 forward single #
loop $-1 $-1 $378 $149 #
plane-surface $-1 -42.635578478347121 0 0 1 0 0 0 0 -1 forward_v I I I I #
coedge $-1 $379 $380 $381 $382 reversed $150 $-1 #
coedge $-1 $383 $152 $154 $263 forward $93 $-1 #
coedge $-1 $152 $383 $379 $384 forward $93 $-1 #
coedge $-1 $381 $155 $152 $260 forward $265 $-1 #
edge $-1 $267 4.9426621852470589 $385 11.026711698253479 $259 $386 forward 7 unknown #
coedge $-1 $387 $388 $153 $262 forward $254 $-1 #
edge $-1 $389 -33.553459078680739 $266 -28.340831355363328 $261 $390 forward 7 unknown #
edge $-1 $267 -9.3216985108668204 $389 -1.7244626260799089e-014 $154 $391 forward 7 unknown #
coedge $-1 $155 $381 $387 $392 forward $265 $-1 #
loop $-1 $-1 $381 $253 #
vertex $-1 $262 $393 #
vertex $-1 $156 $394 #
straight-curve $-1 -45.159302469495927 12.927349126997328 8.7987021202865137 1 0 0 I I #
coedge $-1 $269 $269 $-1 $395 reversed $159 $-1 #
edge $-1 $396 0 $396 6.2831853071796004 $160 $397 forward 7 unknown #
vertex $-1 $163 $398 #
ellipse-curve $-1 -38.771559348425548 14.665648987856308 6.1923882586278127 -0.55919291073839883 0 0.82903756765294845 0.41451878382647422 0 0.27959645536919941 1 I I #
coedge $-1 $273 $273 $-1 $399 reversed $166 $-1 #
edge $-1 $400 0 $400 6.2831853071796004 $167 $401 forward 7 unknown #
vertex $-1 $170 $402 #
ellipse-curve $-1 -38.771559348425548 17.273098779144775 6.1923882586278127 -0.55919291073839883 0 0.82903756765294845 0.41451878382647422 0 0.27959645536919941 1 I I #
face $-1 $-1 $403 $36 $-1 $404 forward single #
loop $-1 $-1 $405 $171 #
plane-surface $-1 42.635578478347121 0 0 -1 0 0 0 0 1 forward_v I I I I #
coedge $-1 $281 $174 $176 $287 reversed $107 $-1 #
coedge $-1 $174 $280 $405 $406 reversed $107 $-1 #
coedge $-1 $407 $177 $174 $283 forward $172 $-1 #
edge $-1 $290 10.603603944527638 $408 15.015159742453864 $282 $409 forward 7 unknown #
coedge $-1 $176 $175 $410 $411 reversed $69 $-1 #
coedge $-1 $412 $413 $175 $286 forward $403 $-1 #
edge $-1 $414 -57.547312968255227 $289 -50.537281301867893 $285 $415 forward 7 unknown #
edge $-1 $416 -85.271156956694256 $290 -78.261125290306921 $280 $417 forward 7 unknown #
coedge $-1 $177 $407 $412 $418 forward $172 $-1 #
vertex $-1 $286 $419 #
vertex $-1 $178 $420 #
straight-curve $-1 38.224022680420894 8.2484945073987532 8.7987021202865137 0 -1 0 I I #
coedge $-1 $292 $292 $-1 $421 reversed $181 $-1 #
edge $-1 $422 0 $422 6.2831853071796004 $182 $423 forward 7 unknown #
vertex $-1 $185 $424 #
ellipse-curve $-1 40.429800579384008 13.387420610237115 6.0747931916723097 0.77714596973225614 0 0.62932038083071107 0.62932038083071107 0 -0.77714596973225614 1 I I #
coedge $-1 $296 $296 $-1 $425 reversed $188 $-1 #
edge $-1 $426 0 $426 6.2831853071796004 $189 $427 forward 7 unknown #
vertex $-1 $192 $428 #
ellipse-curve $-1 40.429800579384008 16.496989014797506 6.0747931916723097 0.77714596973225614 0 0.62932038083071107 0.62932038083071107 0 -0.77714596973225614 1 I I #
coedge $-1 $300 $300 $-1 $429 reversed $195 $-1 #
edge $-1 $430 0 $430 6.2831853071796004 $196 $431 forward 7 unknown #
vertex $-1 $199 $432 #
ellipse-curve $-1 40.429800579384008 19.606557419357898 6.0747931916723097 0.77714596973225614 0 0.62932038083071107 0.62932038083071107 0 -0.77714596973225614 1 I I #
face $-1 $-1 $215 $30 $-1 $433 reversed single #
loop $-1 $-1 $320 $200 #
plane-surface $-1 0 29.392096276422478 0 0 -1 0 0 0 -1 forward_v I I I I #
coedge $-1 $434 $318 $321 $435 forward $201 $-1 #
coedge $-1 $324 $203 $204 $312 reversed $126 $-1 #
coedge $-1 $318 $434 $203 $310 reversed $201 $-1 #
edge $-1 $325 -8.7987021202865119 $436 8.7987021202865119 $309 $437 forward 7 unknown #
coedge $-1 $205 $204 $434 $438 forward $81 $-1 #
edge $-1 $316 -42.635578478347121 $436 42.635578478347121 $308 $439 forward 7 unknown #
coedge $-1 $321 $320 $205 $314 reversed $305 $-1 #
edge $-1 $440 -42.635578478347121 $315 42.635578478347121 $313 $441 forward 7 unknown #
vertex $-1 $207 $442 #
vertex $-1 $327 $443 #
straight-curve $-1 42.635578478347121 0 -8.7987021202865119 0 -1 0 I I #
coedge $-1 $307 $309 $208 $319 reversed $201 $-1 #
edge $-1 $322 -29.392096276422478 $325 29.392096276422478 $318 $444 forward 7 unknown #
coedge $-1 $313 $209 $214 $328 forward $305 $-1 #
coedge $-1 $209 $313 $307 $435 reversed $305 $-1 #
vertex $-1 $210 $445 #
straight-curve $-1 0 29.392096276422478 8.7987021202865119 -1 0 0 I I #
coedge $-1 $211 $308 $213 $327 reversed $126 $-1 #
vertex $-1 $319 $446 #
straight-curve $-1 0 -29.392096276422478 8.7987021202865119 1 0 0 I I #
edge $-1 $216 -8.7987021202865119 $316 8.7987021202865119 $213 $447 forward 7 unknown #
edge $-1 $217 -8.7987021202865119 $315 8.7987021202865119 $214 $448 forward 7 unknown #
point $-1 42.635578478347121 -29.392096276422478 8.7987021202865119 #
point $-1 42.635578478347121 29.392096276422478 8.7987021202865119 #
face $-1 $-1 $232 $31 $-1 $449 reversed single #
loop $-1 $-1 $338 $219 #
plane-surface $-1 0 0 8.7987021202865119 0 0 1 1 0 0 forward_v I I I I #
coedge $-1 $450 $222 $227 $343 forward $134 $-1 #
coedge $-1 $222 $450 $451 $452 reversed $134 $-1 #
coedge $-1 $224 $223 $222 $337 reversed $85 $-1 #
edge $-1 $453 -5.1982480788868228 $348 -2.0026600039125597 $222 $454 forward 7 unknown #
coedge $-1 $451 $455 $224 $339 forward $332 $-1 #
edge $-1 $341 -42.635578478347121 $453 42.635578478347121 $338 $456 forward 7 unknown #
coedge $-1 $231 $225 $455 $457 reversed $232 $-1 #
vertex $-1 $226 $458 #
straight-curve $-1 42.635578478347121 -21.679603022398162 3.6004540413996908 0 0 1 I I #
edge $-1 $348 8.9116781976930017 $346 16.624171451717316 $334 $459 forward 7 unknown #
coedge $-1 $460 $228 $231 $350 reversed $220 $-1 #
coedge $-1 $228 $460 $450 $461 forward $220 $-1 #
vertex $-1 $229 $462 #
straight-curve $-1 0 -29.392096276422478 5.6031140453122505 1 0 0 I I #
vertex $-1 $343 $463 #
straight-curve $-1 0 -21.679603022398162 5.6031140453122505 1 0 0 I I #
edge $-1 $464 -8.7987021202865119 $233 -5.6031140453122505 $231 $465 forward 7 unknown #
point $-1 42.635578478347121 -29.392096276422478 5.6031140453122505 #
point $-1 42.635578478347121 -21.679603022398162 5.6031140453122505 #
face $-1 $-1 $370 $32 $-1 $466 reversed single #
loop $-1 $-1 $358 $236 #
plane-surface $-1 -42.635578478347121 0 0 1 0 0 0 0 -1 forward_v I I I I #
coedge $-1 $467 $239 $373 $468 forward $142 $-1 #
coedge $-1 $239 $467 $469 $470 forward $142 $-1 #
coedge $-1 $469 $364 $240 $359 forward $354 $-1 #
edge $-1 $366 2.0026600039125597 $361 5.1982480788868228 $358 $471 forward 7 unknown #
edge $-1 $362 -5.1982480788868228 $250 -2.0026600039125597 $249 $472 forward 7 unknown #
vertex $-1 $359 $473 #
vertex $-1 $468 $474 #
straight-curve $-1 0 21.679603022398165 8.7987021202865119 1 0 0 I I #
coedge $-1 $358 $475 $243 $365 forward $354 $-1 #
edge $-1 $371 -16.62417145171732 $366 -8.9116781976930035 $364 $476 forward 7 unknown #
vertex $-1 $365 $477 #
straight-curve $-1 0 21.679603022398165 5.6031140453122505 -1 0 0 I I #
coedge $-1 $478 $246 $475 $479 reversed $370 $-1 #
coedge $-1 $246 $478 $248 $374 forward $370 $-1 #
loop $-1 $-1 $246 $353 #
vertex $-1 $247 $480 #
straight-curve $-1 0 29.392096276422478 5.6031140453122505 -1 0 0 I I #
coedge $-1 $249 $248 $356 $468 reversed $237 $-1 #
edge $-1 $481 -8.7987021202865119 $251 -5.6031140453122505 $248 $482 forward 7 unknown #
point $-1 42.635578478347121 21.679603022398165 5.6031140453122505 #
point $-1 42.635578478347121 29.392096276422482 5.6031140453122505 #
plane-surface $-1 0 0 8.7987021202865119 0 0 1 1 0 0 forward_v I I I I #
coedge $-1 $388 $387 $380 $483 forward $254 $-1 #
coedge $-1 $380 $256 $258 $384 reversed $150 $-1 #
coedge $-1 $256 $379 $378 $483 reversed $150 $-1 #
coedge $-1 $264 $259 $256 $382 forward $265 $-1 #
edge $-1 $385 -10.251762250991931 $484 -2.5237239911488061 $381 $485 forward 7 unknown #
coedge $-1 $258 $257 $388 $486 reversed $93 $-1 #
edge $-1 $487 1.7244626260799089e-014 $385 9.3216985108668204 $379 $488 forward 7 unknown #
vertex $-1 $260 $489 #
straight-curve $-1 -34.907540218503996 7.9846869417502688 8.7987021202865119 0 1 0 I I #
coedge $-1 $378 $261 $264 $392 reversed $254 $-1 #
coedge $-1 $261 $378 $383 $486 forward $254 $-1 #
vertex $-1 $262 $490 #
straight-curve $-1 -42.635578478347121 12.927349126997328 37.139533475649841 0 0 1 I I #
straight-curve $-1 -42.635578478347135 12.927349126997328 3.5860743969690958 -0.82903756765294845 0 -0.55919291073839883 I I #
edge $-1 $484 -19.011398640003748 $266 -12.927349126997328 $387 $491 forward 7 unknown #
point $-1 -42.635578478347121 12.927349126997328 8.7987021202865119 #
point $-1 -34.907540218503996 12.927349126997328 8.7987021202865119 #
edge $-1 $492 1 $492 0 $269 $-1 forward 7 unknown #
vertex $-1 $270 $493 #
ellipse-curve $-1 -38.212366437687137 14.665648987856308 5.3633506909748467 -0.55919291073839883 0 0.82903756765294845 0.41451878382647422 0 0.27959645536919941 1 I I #
point $-1 -38.35704056459906 14.665648987856308 6.4719847139969939 #
edge $-1 $494 1 $494 0 $273 $-1 forward 7 unknown #
vertex $-1 $274 $495 #
ellipse-curve $-1 -38.212366437687137 17.273098779144775 5.3633506909748467 -0.55919291073839883 0 0.82903756765294845 0.41451878382647422 0 0.27959645536919941 1 I I #
point $-1 -38.35704056459906 17.273098779144775 6.4719847139969939 #
loop $-1 $-1 $285 $277 #
plane-surface $-1 0 21.679603022398165 7.2009080827993817 0 1 0 0 0 1 forward_v I I I I #
coedge $-1 $410 $496 $281 $406 forward $278 $-1 #
edge $-1 $408 52.842246477824403 $416 58.290064335052811 $405 $497 forward 7 unknown #
coedge $-1 $288 $282 $496 $498 forward $172 $-1 #
vertex $-1 $498 $499 #
straight-curve $-1 27.620418735893256 11.314375007196851 8.7987021202865137 1 0 0 I I #
coedge $-1 $500 $405 $284 $411 forward $278 $-1 #
edge $-1 $416 3.065880499798098 $414 13.431108514999408 $410 $501 forward 7 unknown #
coedge $-1 $413 $285 $288 $418 reversed $403 $-1 #
coedge $-1 $285 $412 $500 $502 reversed $403 $-1 #
vertex $-1 $502 $503 #
straight-curve $-1 6.4198815653806207 21.679603022398165 48.073546605258457 -0.62932038083071107 0 0.77714596973225614 I I #
vertex $-1 $411 $504 #
straight-curve $-1 -11.027298491515047 11.314375007196851 69.61902022635968 -0.62932038083071107 0 0.77714596973225614 I I #
edge $-1 $505 -42.635578478347121 $289 -38.224022680420894 $288 $506 forward 7 unknown #
point $-1 38.224022680420894 21.679603022398162 8.7987021202865137 #
point $-1 38.224022680420894 11.314375007196851 8.7987021202865137 #
edge $-1 $507 1 $507 0 $292 $-1 forward 7 unknown #
vertex $-1 $293 $508 #
ellipse-curve $-1 37.50486003807017 13.387420610237115 3.7062231069545293 0.77714596973225614 0 0.62932038083071107 0.62932038083071107 0 -0.77714596973225614 1 I I #
point $-1 41.059120960214713 13.387420610237115 5.2976472219400517 #
edge $-1 $509 1 $509 0 $296 $-1 forward 7 unknown #
vertex $-1 $297 $510 #
ellipse-curve $-1 37.50486003807017 16.496989014797506 3.7062231069545293 0.77714596973225614 0 0.62932038083071107 0.62932038083071107 0 -0.77714596973225614 1 I I #
point $-1 41.059120960214713 16.496989014797506 5.2976472219400517 #
edge $-1 $511 1 $511 0 $300 $-1 forward 7 unknown #
vertex $-1 $301 $512 #
ellipse-curve $-1 37.50486003807017 19.606557419357898 3.7062231069545293 0.77714596973225614 0 0.62932038083071107 0.62932038083071107 0 -0.77714596973225614 1 I I #
point $-1 41.059120960214713 19.606557419357898 5.2976472219400517 #
plane-surface $-1 42.635578478347121 0 0 -1 0 0 0 0 1 forward_v I I I I #
coedge $-1 $309 $307 $311 $438 reversed $201 $-1 #
edge $-1 $322 -8.7987021202865119 $440 8.7987021202865119 $321 $513 forward 7 unknown #
vertex $-1 $438 $514 #
straight-curve $-1 -42.635578478347121 -29.392096276422478 0 0 0 -1 I I #
edge $-1 $436 -29.392096276422478 $440 29.392096276422478 $434 $515 forward 7 unknown #
straight-curve $-1 0 -29.392096276422478 -8.7987021202865119 -1 0 0 I I #
vertex $-1 $314 $516 #
straight-curve $-1 0 29.392096276422478 -8.7987021202865119 1 0 0 I I #
point $-1 42.635578478347121 29.392096276422478 -8.7987021202865119 #
point $-1 42.635578478347121 -29.392096276422478 -8.7987021202865119 #
straight-curve $-1 -42.635578478347121 0 8.7987021202865119 0 -1 0 I I #
point $-1 -42.635578478347121 29.392096276422478 8.7987021202865119 #
point $-1 -42.635578478347121 -29.392096276422478 8.7987021202865119 #
straight-curve $-1 42.635578478347121 -29.392096276422478 0 0 0 -1 I I #
straight-curve $-1 42.635578478347121 29.392096276422478 0 0 0 -1 I I #
plane-surface $-1 42.635578478347121 0 0 -1 0 0 0 0 1 forward_v I I I I #
coedge $-1 $335 $334 $345 $461 reversed $134 $-1 #
coedge $-1 $517 $338 $335 $452 forward $332 $-1 #
edge $-1 $453 21.679603022398162 $518 29.392096276422478 $335 $519 forward 7 unknown #
vertex $-1 $452 $520 #
straight-curve $-1 -42.635578478347121 -21.679603022398162 3.6004540413996908 0 0 -1 I I #
coedge $-1 $338 $517 $340 $457 forward $332 $-1 #
straight-curve $-1 0 -21.679603022398162 8.7987021202865119 -1 0 0 I I #
edge $-1 $464 -29.392096276422478 $341 -21.679603022398162 $340 $521 forward 7 unknown #
point $-1 42.635578478347121 -21.679603022398162 8.7987021202865137 #
straight-curve $-1 -42.635578478347121 -12.76792482470516 5.6031140453122505 0 -1 0 I I #
coedge $-1 $345 $344 $517 $522 reversed $220 $-1 #
edge $-1 $518 -8.7987021202865119 $346 -5.6031140453122505 $450 $523 forward 7 unknown #
point $-1 -42.635578478347121 -29.392096276422478 5.6031140453122505 #
point $-1 -42.635578478347121 -21.679603022398162 5.6031140453122505 #
vertex $-1 $457 $524 #
straight-curve $-1 42.635578478347121 -29.392096276422478 0 0 0 -1 I I #
plane-surface $-1 0 29.392096276422478 0 0 -1 0 0 0 -1 forward_v I I I I #
coedge $-1 $357 $356 $478 $525 forward $142 $-1 #
edge $-1 $362 21.679603022398165 $481 29.392096276422478 $373 $526 forward 7 unknown #
coedge $-1 $475 $358 $357 $470 reversed $354 $-1 #
edge $-1 $527 -29.392096276422478 $361 -21.679603022398165 $469 $528 forward 7 unknown #
straight-curve $-1 -42.635578478347121 21.679603022398165 3.6004540413996908 0 0 1 I I #
straight-curve $-1 42.635578478347121 21.679603022398165 3.6004540413996908 0 0 -1 I I #
point $-1 -42.635578478347121 21.679603022398165 8.7987021202865137 #
point $-1 42.635578478347121 21.679603022398165 8.7987021202865137 #
coedge $-1 $364 $469 $368 $479 forward $354 $-1 #
straight-curve $-1 -42.635578478347121 12.767924824705162 5.6031140453122505 0 -1 0 I I #
point $-1 -42.635578478347121 21.679603022398165 5.6031140453122505 #
coedge $-1 $369 $368 $467 $525 reversed $370 $-1 #
edge $-1 $527 -8.7987021202865119 $371 -5.6031140453122505 $368 $529 forward 7 unknown #
point $-1 -42.635578478347121 29.392096276422482 5.6031140453122505 #
vertex $-1 $468 $530 #
straight-curve $-1 42.635578478347121 29.392096276422478 0 0 0 -1 I I #
edge $-1 $484 28.340831355363328 $487 33.553459078680739 $378 $531 forward 7 unknown #
vertex $-1 $392 $532 #
straight-curve $-1 -45.159302469495927 19.011398640003748 8.7987021202865137 -1 0 0 I I #
edge $-1 $487 -11.026711698253479 $389 -4.9426621852470589 $388 $533 forward 7 unknown #
vertex $-1 $486 $534 #
straight-curve $-1 -42.635578478347135 19.011398640003748 3.5860743969690958 0.82903756765294845 0 0.55919291073839883 I I #
point $-1 -34.907540218503996 19.011398640003748 8.7987021202865119 #
point $-1 -42.635578478347121 12.927349126997328 3.5860743969691056 #
straight-curve $-1 -42.635578478347121 0 8.7987021202865119 0 -1 0 I I #
vertex $-1 $395 $535 #
point $-1 -37.797847653860664 14.665648987856308 5.6429471463440457 #
vertex $-1 $399 $536 #
point $-1 -37.797847653860664 17.273098779144775 5.6429471463440457 #
coedge $-1 $405 $500 $407 $498 reversed $278 $-1 #
straight-curve $-1 42.635578478347121 11.314375007196851 61.640948598110917 0 0 -1 I I #
edge $-1 $408 11.314375007196851 $505 21.679603022398165 $496 $537 forward 7 unknown #
point $-1 42.635578478347121 11.314375007196851 8.7987021202865119 #
coedge $-1 $496 $410 $413 $502 forward $278 $-1 #
straight-curve $-1 42.635578478347121 8.2484945073987532 3.3508842630580986 0 1 0 I I #
edge $-1 $414 -58.290064335052811 $505 -52.842246477824403 $500 $538 forward 7 unknown #
point $-1 42.635578478347121 21.679603022398162 3.3508842630581057 #
point $-1 42.635578478347121 11.314375007196851 3.3508842630581057 #
vertex $-1 $418 $539 #
straight-curve $-1 0 21.679603022398165 8.7987021202865119 -1 0 0 I I #
vertex $-1 $421 $540 #
point $-1 38.134180418900883 13.387420610237115 2.929077137222273 #
vertex $-1 $425 $541 #
point $-1 38.134180418900883 16.496989014797506 2.929077137222273 #
vertex $-1 $429 $542 #
point $-1 38.134180418900883 19.606557419357898 2.929077137222273 #
straight-curve $-1 -42.635578478347121 29.392096276422478 0 0 0 -1 I I #
point $-1 -42.635578478347121 -29.392096276422478 -8.7987021202865119 #
straight-curve $-1 -42.635578478347121 0 -8.7987021202865119 0 1 0 I I #
point $-1 -42.635578478347121 29.392096276422478 -8.7987021202865119 #
coedge $-1 $455 $451 $460 $522 forward $332 $-1 #
vertex $-1 $452 $543 #
straight-curve $-1 -42.635578478347121 0 8.7987021202865119 0 -1 0 I I #
point $-1 -42.635578478347121 -21.679603022398162 8.7987021202865137 #
straight-curve $-1 42.635578478347121 0 8.7987021202865119 0 1 0 I I #
edge $-1 $518 -42.635578478347121 $464 42.635578478347121 $460 $544 forward 7 unknown #
straight-curve $-1 -42.635578478347121 -29.392096276422478 0 0 0 -1 I I #
point $-1 42.635578478347121 -29.392096276422478 8.7987021202865119 #
edge $-1 $481 -42.635578478347121 $527 42.635578478347121 $478 $545 forward 7 unknown #
straight-curve $-1 42.635578478347121 0 8.7987021202865119 0 1 0 I I #
vertex $-1 $525 $546 #
straight-curve $-1 -42.635578478347121 0 8.7987021202865119 0 -1 0 I I #
straight-curve $-1 -42.635578478347121 29.392096276422478 0 0 0 -1 I I #
point $-1 42.635578478347121 29.392096276422478 8.7987021202865119 #
straight-curve $-1 -42.635578478347121 19.011398640003748 37.139533475649841 0 0 -1 I I #
point $-1 -42.635578478347121 19.011398640003748 8.7987021202865119 #
straight-curve $-1 -42.635578478347121 7.9846869417502688 3.5860743969691056 0 -1 0 I I #
point $-1 -42.635578478347121 19.011398640003748 3.5860743969691056 #
point $-1 -37.932769982317936 14.665648987856308 4.9488319071483717 #
point $-1 -37.932769982317936 17.273098779144775 4.9488319071483717 #
straight-curve $-1 42.635578478347121 0 8.7987021202865119 0 1 0 I I #
straight-curve $-1 42.635578478347121 21.679603022398162 61.640948598110917 0 0 1 I I #
point $-1 42.635578478347121 21.679603022398165 8.7987021202865137 #
point $-1 36.72771406833791 13.387420610237115 3.0769027261238184 #
point $-1 36.72771406833791 16.496989014797506 3.0769027261238184 #
point $-1 36.72771406833791 19.606557419357898 3.0769027261238184 #
point $-1 -42.635578478347121 -29.392096276422478 8.7987021202865119 #
straight-curve $-1 0 -29.392096276422478 8.7987021202865119 1 0 0 I I #
straight-curve $-1 0 29.392096276422478 8.7987021202865119 -1 0 0 I I #
point $-1 -42.635578478347121 29.392096276422478 8.7987021202865119 #
End-of-ACIS-data 