500 0 14 0           
7 Unknown 11 ACIS 5.0 NT 24 Fri Mar 26 18:45:03 1999 
-1 9.9999999999999995e-007 1e-010 
body $-1 $14 $-1 $15 #
body $-1 $16 $-1 $17 #
body $-1 $18 $-1 $19 #
body $-1 $20 $-1 $21 #
body $-1 $22 $-1 $23 #
body $-1 $24 $-1 $25 #
body $-1 $26 $-1 $27 #
body $-1 $28 $-1 $29 #
body $-1 $30 $-1 $31 #
body $-1 $32 $-1 $33 #
body $-1 $34 $-1 $35 #
body $-1 $36 $-1 $37 #
body $-1 $38 $-1 $39 #
body $-1 $40 $-1 $41 #
lump $-1 $-1 $42 $0 #
transform $-1 1 0 0 0 1 0 0 0 1 43.700064088869901 21.281359070787865 8.9184657273551071 1 rotate no_reflect no_shear #
lump $-1 $-1 $43 $1 #
transform $-1 1 0 0 0 1 0 0 0 1 43.700064088869901 21.281359070787865 8.9184657273551071 1 rotate no_reflect no_shear #
lump $-1 $-1 $44 $2 #
transform $-1 1 0 0 0 1 0 0 0 1 43.700064088869901 21.281359070787865 8.9184657273551071 1 rotate no_reflect no_shear #
lump $-1 $-1 $45 $3 #
transform $-1 1 0 0 0 1 0 0 0 1 43.700064088869901 21.281359070787865 8.9184657273551071 1 rotate no_reflect no_shear #
lump $-1 $-1 $46 $4 #
transform $-1 1 0 0 0 1 0 0 0 1 43.700064088869901 21.281359070787865 8.9184657273551071 1 rotate no_reflect no_shear #
lump $-1 $-1 $47 $5 #
transform $-1 1 0 0 0 1 0 0 0 1 43.700064088869901 21.281359070787865 8.9184657273551071 1 rotate no_reflect no_shear #
lump $-1 $-1 $48 $6 #
transform $-1 1 0 0 0 1 0 0 0 1 43.700064088869901 21.281359070787865 8.9184657273551071 1 rotate no_reflect no_shear #
lump $-1 $-1 $49 $7 #
transform $-1 1 0 0 0 1 0 0 0 1 43.700064088869901 21.281359070787865 8.9184657273551071 1 rotate no_reflect no_shear #
lump $-1 $-1 $50 $8 #
transform $-1 1 0 0 0 1 0 0 0 1 43.700064088869901 21.281359070787865 8.9184657273551071 1 rotate no_reflect no_shear #
lump $-1 $-1 $51 $9 #
transform $-1 1 0 0 0 1 0 0 0 1 43.700064088869901 21.281359070787865 8.9184657273551071 1 rotate no_reflect no_shear #
lump $-1 $-1 $52 $10 #
transform $-1 1 0 0 0 1 0 0 0 1 43.700064088869901 21.281359070787865 8.9184657273551071 1 rotate no_reflect no_shear #
lump $-1 $-1 $53 $11 #
transform $-1 1 0 0 0 1 0 0 0 1 43.700064088869901 21.281359070787865 8.9184657273551071 1 rotate no_reflect no_shear #
lump $-1 $-1 $54 $12 #
transform $-1 1 0 0 0 1 0 0 0 1 43.700064088869901 21.281359070787865 8.9184657273551071 1 rotate no_reflect no_shear #
lump $-1 $-1 $55 $13 #
transform $-1 1 0 0 0 1 0 0 0 1 43.700064088869901 21.281359070787865 8.9184657273551071 1 rotate no_reflect no_shear #
shell $-1 $-1 $-1 $56 $-1 $14 #
shell $-1 $-1 $-1 $57 $-1 $16 #
shell $-1 $-1 $-1 $58 $-1 $18 #
shell $-1 $-1 $-1 $59 $-1 $20 #
shell $-1 $-1 $-1 $60 $-1 $22 #
shell $-1 $-1 $-1 $61 $-1 $24 #
shell $-1 $-1 $-1 $62 $-1 $26 #
shell $-1 $-1 $-1 $63 $-1 $28 #
shell $-1 $-1 $-1 $64 $-1 $30 #
shell $-1 $-1 $-1 $65 $-1 $32 #
shell $-1 $-1 $-1 $66 $-1 $34 #
shell $-1 $-1 $-1 $67 $-1 $36 #
shell $-1 $-1 $-1 $68 $-1 $38 #
shell $-1 $-1 $-1 $69 $-1 $40 #
face $-1 $70 $71 $42 $-1 $72 forward single #
face $-1 $73 $74 $43 $-1 $75 forward single #
face $-1 $76 $77 $44 $-1 $78 reversed single #
face $-1 $79 $80 $45 $-1 $81 forward single #
face $-1 $82 $83 $46 $-1 $84 forward single #
face $-1 $85 $86 $47 $-1 $87 reversed single #
face $-1 $88 $89 $48 $-1 $90 forward single #
face $-1 $91 $92 $49 $-1 $93 forward single #
face $-1 $94 $95 $50 $-1 $96 reversed single #
face $-1 $97 $98 $51 $-1 $99 forward single #
face $-1 $100 $101 $52 $-1 $102 forward single #
face $-1 $103 $104 $53 $-1 $105 reversed single #
face $-1 $106 $107 $54 $-1 $108 forward single #
face $-1 $109 $110 $55 $-1 $111 forward single #
face $-1 $112 $113 $42 $-1 $114 reversed single #
loop $-1 $-1 $115 $56 #
plane-surface $-1 0 0 8.9184657273551071 0 0 1 1 0 0 forward_v I I I I #
face $-1 $116 $117 $43 $-1 $118 reversed single #
loop $-1 $-1 $119 $57 #
plane-surface $-1 -40.718078844297537 0 -5.9184657273551071 0 0 1 1 0 0 forward_v I I I I #
face $-1 $120 $121 $44 $-1 $122 reversed single #
loop $-1 $-1 $123 $58 #
plane-surface $-1 71.504566577020086 -10.640679535393932 120.46035256058673 0 -1 0 -0.84804810408105047 0 -0.52991925155115449 forward_v I I I I #
face $-1 $124 $125 $45 $-1 $126 forward single #
loop $-1 $127 $128 $59 #
cone-surface $-1 40.497672071733902 -15.103903355850422 4.2071877646974105 -0.84804810408105047 0 -0.52991925155115449 0.26495962577557725 0 -0.42402405204052523 1 I I 0 1 0.5 forward I I I I #
face $-1 $129 $130 $46 $-1 $131 forward single #
loop $-1 $132 $133 $60 #
cone-surface $-1 40.497672071733902 -12.425969063576527 4.2071877646974105 -0.84804810408105047 0 -0.52991925155115449 0.26495962577557725 0 -0.42402405204052523 1 I I 0 1 0.5 forward I I I I #
face $-1 $134 $135 $47 $-1 $136 reversed single #
loop $-1 $-1 $137 $61 #
plane-surface $-1 71.504566577020086 -1.4640553955849507 120.46035256058673 0 -1 0 -0.84804810408105047 0 -0.52991925155115449 forward_v I I I I #
face $-1 $138 $139 $48 $-1 $140 forward single #
loop $-1 $141 $142 $62 #
cone-surface $-1 40.497672071733902 -5.9272792160414394 4.2071877646974105 -0.84804810408105047 0 -0.52991925155115449 0.26495962577557725 0 -0.42402405204052523 1 I I 0 1 0.5 forward I I I I #
face $-1 $143 $144 $49 $-1 $145 forward single #
loop $-1 $146 $147 $63 #
cone-surface $-1 40.497672071733902 -3.2493449237675449 4.2071877646974105 -0.84804810408105047 0 -0.52991925155115449 0.26495962577557725 0 -0.42402405204052523 1 I I 0 1 0.5 forward I I I I #
face $-1 $148 $149 $50 $-1 $150 reversed single #
loop $-1 $-1 $151 $64 #
plane-surface $-1 71.504566577020086 7.7125687442240318 120.46035256058673 0 -1 0 -0.84804810408105047 0 -0.52991925155115449 forward_v I I I I #
face $-1 $152 $153 $51 $-1 $154 forward single #
loop $-1 $155 $156 $65 #
cone-surface $-1 40.497672071733902 3.2493449237675449 4.2071877646974105 -0.84804810408105047 0 -0.52991925155115449 0.26495962577557725 0 -0.42402405204052523 1 I I 0 1 0.5 forward I I I I #
face $-1 $157 $158 $52 $-1 $159 forward single #
loop $-1 $160 $161 $66 #
cone-surface $-1 40.497672071733902 5.9272792160414376 4.2071877646974105 -0.84804810408105047 0 -0.52991925155115449 0.26495962577557725 0 -0.42402405204052523 1 I I 0 1 0.5 forward I I I I #
face $-1 $162 $163 $53 $-1 $164 reversed single #
loop $-1 $-1 $165 $67 #
plane-surface $-1 71.504566577020086 16.889192884033019 120.46035256058673 0 -1 0 -0.84804810408105047 0 -0.52991925155115449 forward_v I I I I #
face $-1 $166 $167 $54 $-1 $168 forward single #
loop $-1 $169 $170 $68 #
cone-surface $-1 40.497672071733902 12.425969063576524 4.2071877646974105 -0.84804810408105047 0 -0.52991925155115449 0.26495962577557725 0 -0.42402405204052523 1 I I 0 1 0.5 forward I I I I #
face $-1 $171 $172 $55 $-1 $173 forward single #
loop $-1 $174 $175 $69 #
cone-surface $-1 40.497672071733902 15.10390335585042 4.2071877646974105 -0.84804810408105047 0 -0.52991925155115449 0.26495962577557725 0 -0.42402405204052523 1 I I 0 1 0.5 forward I I I I #
face $-1 $176 $177 $42 $-1 $178 reversed single #
loop $-1 $-1 $179 $70 #
plane-surface $-1 0 0 -8.9184657273551071 0 0 1 1 0 0 forward_v I I I I #
coedge $-1 $180 $181 $182 $183 forward $71 $-1 #
face $-1 $184 $185 $43 $-1 $186 reversed single #
loop $-1 $-1 $187 $73 #
plane-surface $-1 -37.736093599725173 0 -7.4184657273551071 -1 0 0 0 0 1 forward_v I I I I #
coedge $-1 $188 $189 $190 $191 forward $74 $-1 #
face $-1 $192 $193 $44 $-1 $194 reversed single #
loop $-1 $-1 $195 $76 #
plane-surface $-1 -2.614946420552954 -13.764936209713476 74.14534205116388 0.84804810408105047 0 0.52991925155115449 0.52991925155115449 0 -0.84804810408105047 forward_v I I I I #
coedge $-1 $196 $197 $198 $199 reversed $77 $-1 #
face $-1 $-1 $200 $45 $-1 $201 forward single #
loop $-1 $202 $203 $79 #
cone-surface $-1 39.861635993673111 -15.103903355850422 3.809748326034045 -0.84804810408105047 0 -0.52991925155115449 0.13247981288778862 0 -0.21201202602026262 1 I I -0.70710678118654746 0.70710678118654746 0.25 forward I I I I #
loop $-1 $-1 $204 $59 #
coedge $-1 $128 $128 $205 $206 reversed $80 $-1 #
face $-1 $-1 $207 $46 $-1 $208 forward single #
loop $-1 $209 $210 $82 #
cone-surface $-1 39.861635993673111 -12.425969063576527 3.809748326034045 -0.84804810408105047 0 -0.52991925155115449 0.13247981288778862 0 -0.21201202602026262 1 I I -0.70710678118654746 0.70710678118654746 0.25 forward I I I I #
loop $-1 $-1 $211 $60 #
coedge $-1 $133 $133 $212 $213 reversed $83 $-1 #
face $-1 $214 $215 $47 $-1 $216 reversed single #
loop $-1 $-1 $217 $85 #
plane-surface $-1 -2.614946420552954 -4.588312069904493 74.14534205116388 0.84804810408105047 0 0.52991925155115449 0.52991925155115449 0 -0.84804810408105047 forward_v I I I I #
coedge $-1 $218 $219 $220 $221 reversed $86 $-1 #
face $-1 $-1 $222 $48 $-1 $223 forward single #
loop $-1 $224 $225 $88 #
cone-surface $-1 39.861635993673111 -5.9272792160414394 3.809748326034045 -0.84804810408105047 0 -0.52991925155115449 0.13247981288778862 0 -0.21201202602026262 1 I I -0.70710678118654746 0.70710678118654746 0.25 forward I I I I #
loop $-1 $-1 $226 $62 #
coedge $-1 $142 $142 $227 $228 reversed $89 $-1 #
face $-1 $-1 $229 $49 $-1 $230 forward single #
loop $-1 $231 $232 $91 #
cone-surface $-1 39.861635993673111 -3.2493449237675449 3.809748326034045 -0.84804810408105047 0 -0.52991925155115449 0.13247981288778862 0 -0.21201202602026262 1 I I -0.70710678118654746 0.70710678118654746 0.25 forward I I I I #
loop $-1 $-1 $233 $63 #
coedge $-1 $147 $147 $234 $235 reversed $92 $-1 #
face $-1 $236 $237 $50 $-1 $238 reversed single #
loop $-1 $-1 $239 $94 #
plane-surface $-1 -2.614946420552954 4.5883120699044895 74.14534205116388 0.84804810408105047 0 0.52991925155115449 0.52991925155115449 0 -0.84804810408105047 forward_v I I I I #
coedge $-1 $240 $241 $242 $243 reversed $95 $-1 #
face $-1 $-1 $244 $51 $-1 $245 forward single #
loop $-1 $246 $247 $97 #
cone-surface $-1 39.861635993673111 3.2493449237675449 3.809748326034045 -0.84804810408105047 0 -0.52991925155115449 0.13247981288778862 0 -0.21201202602026262 1 I I -0.70710678118654746 0.70710678118654746 0.25 forward I I I I #
loop $-1 $-1 $248 $65 #
coedge $-1 $156 $156 $249 $250 reversed $98 $-1 #
face $-1 $-1 $251 $52 $-1 $252 forward single #
loop $-1 $253 $254 $100 #
cone-surface $-1 39.861635993673111 5.9272792160414376 3.809748326034045 -0.84804810408105047 0 -0.52991925155115449 0.13247981288778862 0 -0.21201202602026262 1 I I -0.70710678118654746 0.70710678118654746 0.25 forward I I I I #
loop $-1 $-1 $255 $66 #
coedge $-1 $161 $161 $256 $257 reversed $101 $-1 #
face $-1 $258 $259 $53 $-1 $260 reversed single #
loop $-1 $-1 $261 $103 #
plane-surface $-1 -2.614946420552954 13.764936209713476 74.14534205116388 0.84804810408105047 0 0.52991925155115449 0.52991925155115449 0 -0.84804810408105047 forward_v I I I I #
coedge $-1 $262 $263 $264 $265 reversed $104 $-1 #
face $-1 $-1 $266 $54 $-1 $267 forward single #
loop $-1 $268 $269 $106 #
cone-surface $-1 39.861635993673111 12.425969063576524 3.809748326034045 -0.84804810408105047 0 -0.52991925155115449 0.13247981288778862 0 -0.21201202602026262 1 I I -0.70710678118654746 0.70710678118654746 0.25 forward I I I I #
loop $-1 $-1 $270 $68 #
coedge $-1 $170 $170 $271 $272 reversed $107 $-1 #
face $-1 $-1 $273 $55 $-1 $274 forward single #
loop $-1 $275 $276 $109 #
cone-surface $-1 39.861635993673111 15.10390335585042 3.809748326034045 -0.84804810408105047 0 -0.52991925155115449 0.13247981288778862 0 -0.21201202602026262 1 I I -0.70710678118654746 0.70710678118654746 0.25 forward I I I I #
loop $-1 $-1 $277 $69 #
coedge $-1 $175 $175 $278 $279 reversed $110 $-1 #
face $-1 $280 $281 $42 $-1 $282 reversed single #
loop $-1 $-1 $283 $112 #
plane-surface $-1 0 -21.281359070787865 0 0 1 0 0 0 1 forward_v I I I I #
coedge $-1 $284 $285 $286 $287 forward $113 $-1 #
coedge $-1 $288 $115 $289 $290 forward $71 $-1 #
coedge $-1 $115 $288 $291 $292 forward $71 $-1 #
coedge $-1 $293 $294 $115 $183 reversed $295 $-1 #
edge $-1 $296 -21.281359070787865 $297 21.281359070787865 $182 $298 forward 7 unknown #
face $-1 $299 $300 $43 $-1 $301 reversed single #
loop $-1 $-1 $302 $116 #
plane-surface $-1 0 0 -8.9184657273551071 0 0 1 1 0 0 forward_v I I I I #
coedge $-1 $303 $190 $304 $305 reversed $117 $-1 #
coedge $-1 $306 $119 $307 $308 reversed $74 $-1 #
coedge $-1 $119 $306 $309 $310 reversed $74 $-1 #
coedge $-1 $187 $311 $119 $191 reversed $117 $-1 #
edge $-1 $312 -21.281359070787865 $313 21.281359070787865 $190 $314 forward 7 unknown #
face $-1 $315 $316 $44 $-1 $317 forward single #
loop $-1 $-1 $318 $120 #
plane-surface $-1 71.504566577020086 -16.889192884033019 120.46035256058673 0 1 0 0.84804810408105047 0 0.52991925155115449 forward_v I I I I #
coedge $-1 $319 $320 $321 $322 reversed $121 $-1 #
coedge $-1 $197 $123 $323 $324 reversed $77 $-1 #
coedge $-1 $123 $196 $319 $325 reversed $77 $-1 #
coedge $-1 $321 $326 $123 $199 forward $316 $-1 #
edge $-1 $327 -7.9477808003598582 $328 -2.3910448701688694 $198 $329 forward 7 unknown #
loop $-1 $-1 $205 $124 #
plane-surface $-1 -2.614946420552954 -13.764936209713476 74.14534205116388 0.84804810408105047 0 0.52991925155115449 0.52991925155115449 0 -0.84804810408105047 forward_v I I I I #
loop $-1 $-1 $330 $79 #
coedge $-1 $203 $203 $204 $331 reversed $125 $-1 #
coedge $-1 $204 $204 $203 $331 forward $127 $-1 #
coedge $-1 $205 $205 $128 $206 forward $200 $-1 #
edge $-1 $332 0 $332 6.2831853071796004 $205 $333 forward 7 unknown #
loop $-1 $-1 $212 $129 #
plane-surface $-1 -2.614946420552954 -13.764936209713476 74.14534205116388 0.84804810408105047 0 0.52991925155115449 0.52991925155115449 0 -0.84804810408105047 forward_v I I I I #
loop $-1 $-1 $334 $82 #
coedge $-1 $210 $210 $211 $335 reversed $130 $-1 #
coedge $-1 $211 $211 $210 $335 forward $132 $-1 #
coedge $-1 $212 $212 $133 $213 forward $207 $-1 #
edge $-1 $336 0 $336 6.2831853071796004 $212 $337 forward 7 unknown #
face $-1 $338 $339 $47 $-1 $340 reversed single #
loop $-1 $-1 $341 $134 #
plane-surface $-1 71.504566577020086 -7.7125687442240354 120.46035256058673 0 1 0 0.84804810408105047 0 0.52991925155115449 forward_v I I I I #
coedge $-1 $342 $343 $344 $345 reversed $135 $-1 #
coedge $-1 $219 $137 $346 $347 reversed $86 $-1 #
coedge $-1 $137 $218 $342 $348 reversed $86 $-1 #
coedge $-1 $344 $349 $137 $221 forward $350 $-1 #
edge $-1 $351 -7.9477808003598582 $352 -2.3910448701688694 $220 $353 forward 7 unknown #
loop $-1 $-1 $227 $138 #
plane-surface $-1 -2.614946420552954 -4.588312069904493 74.14534205116388 0.84804810408105047 0 0.52991925155115449 0.52991925155115449 0 -0.84804810408105047 forward_v I I I I #
loop $-1 $-1 $354 $88 #
coedge $-1 $225 $225 $226 $355 reversed $139 $-1 #
coedge $-1 $226 $226 $225 $355 forward $141 $-1 #
coedge $-1 $227 $227 $142 $228 forward $222 $-1 #
edge $-1 $356 0 $356 6.2831853071796004 $227 $357 forward 7 unknown #
loop $-1 $-1 $234 $143 #
plane-surface $-1 -2.614946420552954 -4.588312069904493 74.14534205116388 0.84804810408105047 0 0.52991925155115449 0.52991925155115449 0 -0.84804810408105047 forward_v I I I I #
loop $-1 $-1 $358 $91 #
coedge $-1 $232 $232 $233 $359 reversed $144 $-1 #
coedge $-1 $233 $233 $232 $359 forward $146 $-1 #
coedge $-1 $234 $234 $147 $235 forward $229 $-1 #
edge $-1 $360 0 $360 6.2831853071796004 $234 $361 forward 7 unknown #
face $-1 $362 $363 $50 $-1 $364 reversed single #
loop $-1 $-1 $365 $148 #
plane-surface $-1 71.504566577020086 1.4640553955849471 120.46035256058673 0 1 0 0.84804810408105047 0 0.52991925155115449 forward_v I I I I #
coedge $-1 $366 $367 $368 $369 reversed $149 $-1 #
coedge $-1 $241 $151 $370 $371 reversed $95 $-1 #
coedge $-1 $151 $240 $366 $372 reversed $95 $-1 #
coedge $-1 $368 $373 $151 $243 forward $374 $-1 #
edge $-1 $375 -7.9477808003598582 $376 -2.3910448701688694 $242 $377 forward 7 unknown #
loop $-1 $-1 $249 $152 #
plane-surface $-1 -2.614946420552954 4.5883120699044895 74.14534205116388 0.84804810408105047 0 0.52991925155115449 0.52991925155115449 0 -0.84804810408105047 forward_v I I I I #
loop $-1 $-1 $378 $97 #
coedge $-1 $247 $247 $248 $379 reversed $153 $-1 #
coedge $-1 $248 $248 $247 $379 forward $155 $-1 #
coedge $-1 $249 $249 $156 $250 forward $244 $-1 #
edge $-1 $380 0 $380 6.2831853071796004 $249 $381 forward 7 unknown #
loop $-1 $-1 $256 $157 #
plane-surface $-1 -2.614946420552954 4.5883120699044895 74.14534205116388 0.84804810408105047 0 0.52991925155115449 0.52991925155115449 0 -0.84804810408105047 forward_v I I I I #
loop $-1 $-1 $382 $100 #
coedge $-1 $254 $254 $255 $383 reversed $158 $-1 #
coedge $-1 $255 $255 $254 $383 forward $160 $-1 #
coedge $-1 $256 $256 $161 $257 forward $251 $-1 #
edge $-1 $384 0 $384 6.2831853071796004 $256 $385 forward 7 unknown #
face $-1 $386 $387 $53 $-1 $388 reversed single #
loop $-1 $-1 $389 $162 #
plane-surface $-1 71.504566577020086 10.640679535393932 120.46035256058673 0 1 0 0.84804810408105047 0 0.52991925155115449 forward_v I I I I #
coedge $-1 $390 $391 $392 $393 reversed $163 $-1 #
coedge $-1 $263 $165 $394 $395 reversed $104 $-1 #
coedge $-1 $165 $262 $390 $396 reversed $104 $-1 #
coedge $-1 $392 $397 $165 $265 forward $398 $-1 #
edge $-1 $399 -7.9477808003598582 $400 -2.3910448701688694 $264 $401 forward 7 unknown #
loop $-1 $-1 $271 $166 #
plane-surface $-1 -2.614946420552954 13.764936209713476 74.14534205116388 0.84804810408105047 0 0.52991925155115449 0.52991925155115449 0 -0.84804810408105047 forward_v I I I I #
loop $-1 $-1 $402 $106 #
coedge $-1 $269 $269 $270 $403 reversed $167 $-1 #
coedge $-1 $270 $270 $269 $403 forward $169 $-1 #
coedge $-1 $271 $271 $170 $272 forward $266 $-1 #
edge $-1 $404 0 $404 6.2831853071796004 $271 $405 forward 7 unknown #
loop $-1 $-1 $278 $171 #
plane-surface $-1 -2.614946420552954 13.764936209713476 74.14534205116388 0.84804810408105047 0 0.52991925155115449 0.52991925155115449 0 -0.84804810408105047 forward_v I I I I #
loop $-1 $-1 $406 $109 #
coedge $-1 $276 $276 $277 $407 reversed $172 $-1 #
coedge $-1 $277 $277 $276 $407 forward $174 $-1 #
coedge $-1 $278 $278 $175 $279 forward $273 $-1 #
edge $-1 $408 0 $408 6.2831853071796004 $278 $409 forward 7 unknown #
face $-1 $410 $411 $42 $-1 $412 reversed single #
loop $-1 $-1 $413 $176 #
plane-surface $-1 -43.700064088869901 0 0 1 0 0 0 0 -1 forward_v I I I I #
coedge $-1 $414 $291 $415 $416 forward $177 $-1 #
coedge $-1 $417 $179 $414 $418 forward $113 $-1 #
coedge $-1 $179 $417 $419 $420 forward $113 $-1 #
coedge $-1 $294 $293 $179 $287 reversed $295 $-1 #
edge $-1 $421 -21.281359070787865 $422 21.281359070787865 $286 $423 forward 7 unknown #
coedge $-1 $181 $180 $424 $425 forward $71 $-1 #
coedge $-1 $426 $427 $180 $290 reversed $411 $-1 #
edge $-1 $297 -43.700064088869901 $428 43.700064088869901 $289 $429 forward 7 unknown #
coedge $-1 $283 $430 $181 $292 reversed $177 $-1 #
edge $-1 $431 -43.700064088869901 $296 43.700064088869901 $291 $432 forward 7 unknown #
coedge $-1 $286 $182 $430 $433 forward $295 $-1 #
coedge $-1 $182 $286 $426 $434 reversed $295 $-1 #
loop $-1 $-1 $293 $410 #
vertex $-1 $183 $435 #
vertex $-1 $183 $436 #
straight-curve $-1 43.700064088869901 0 8.9184657273551071 0 1 0 I I #
face $-1 $437 $438 $43 $-1 $439 reversed single #
loop $-1 $-1 $304 $184 #
plane-surface $-1 0 -21.281359070787865 0 0 1 0 0 0 1 forward_v I I I I #
coedge $-1 $440 $441 $303 $442 forward $185 $-1 #
coedge $-1 $311 $187 $302 $442 reversed $117 $-1 #
coedge $-1 $309 $443 $187 $305 forward $300 $-1 #
edge $-1 $444 -5.2092328636775536 $312 -2.2092328636775536 $304 $445 forward 7 unknown #
coedge $-1 $189 $188 $446 $447 reversed $74 $-1 #
coedge $-1 $448 $449 $188 $308 forward $450 $-1 #
edge $-1 $451 -23.341024666721133 $313 -17.377054177576404 $307 $452 forward 7 unknown #
coedge $-1 $453 $304 $189 $310 forward $300 $-1 #
edge $-1 $312 17.377054177576404 $454 23.341024666721133 $309 $455 forward 7 unknown #
coedge $-1 $190 $303 $448 $456 reversed $117 $-1 #
vertex $-1 $310 $457 #
vertex $-1 $308 $458 #
straight-curve $-1 -37.736093599725173 0 -5.9184657273551071 0 1 0 I I #
face $-1 $-1 $459 $44 $-1 $460 reversed single #
loop $-1 $-1 $198 $192 #
plane-surface $-1 0 0 8.9184657273551071 0 0 1 1 0 0 forward_v I I I I #
coedge $-1 $461 $462 $463 $464 reversed $193 $-1 #
coedge $-1 $465 $195 $197 $325 forward $121 $-1 #
coedge $-1 $195 $465 $461 $466 forward $121 $-1 #
coedge $-1 $463 $198 $195 $322 forward $316 $-1 #
edge $-1 $328 3.7582114305371945 $467 10.006724779176281 $321 $468 forward 7 unknown #
coedge $-1 $469 $470 $196 $324 forward $459 $-1 #
edge $-1 $471 -60.204347226702538 $327 -51.311710552938258 $323 $472 forward 7 unknown #
edge $-1 $328 76.91412316107818 $471 87.400128177739816 $197 $473 forward 7 unknown #
coedge $-1 $198 $463 $469 $474 forward $316 $-1 #
vertex $-1 $324 $475 #
vertex $-1 $199 $476 #
straight-curve $-1 35.752283288510043 -10.640679535393932 8.9184657273551053 -1 0 0 I I #
coedge $-1 $330 $330 $-1 $477 reversed $202 $-1 #
edge $-1 $478 0 $478 6.2831853071796004 $203 $479 forward 7 unknown #
vertex $-1 $206 $480 #
ellipse-curve $-1 40.921696123774403 -15.103903355850422 4.4721473904729727 0.84804810408105047 0 0.52991925155115449 0.26495962577557725 0 -0.42402405204052523 1 I I #
coedge $-1 $334 $334 $-1 $481 reversed $209 $-1 #
edge $-1 $482 0 $482 6.2831853071796004 $210 $483 forward 7 unknown #
vertex $-1 $213 $484 #
ellipse-curve $-1 40.921696123774403 -12.425969063576527 4.4721473904729727 0.84804810408105047 0 0.52991925155115449 0.26495962577557725 0 -0.42402405204052523 1 I I #
face $-1 $-1 $350 $47 $-1 $485 forward single #
loop $-1 $-1 $486 $214 #
plane-surface $-1 43.700064088869901 0 0 -1 0 0 0 0 1 forward_v I I I I #
coedge $-1 $487 $488 $489 $490 reversed $215 $-1 #
coedge $-1 $491 $217 $219 $348 forward $135 $-1 #
coedge $-1 $217 $491 $487 $492 forward $135 $-1 #
coedge $-1 $489 $220 $217 $345 forward $350 $-1 #
edge $-1 $352 -0.83010063936729583 $493 5.4184127092717889 $344 $494 forward 7 unknown #
coedge $-1 $495 $496 $218 $347 forward $339 $-1 #
edge $-1 $497 -60.204347226702538 $351 -51.311710552938258 $346 $498 forward 7 unknown #
edge $-1 $352 76.91412316107818 $497 87.400128177739816 $219 $499 forward 7 unknown #
coedge $-1 $220 $489 $495 $500 forward $350 $-1 #
loop $-1 $-1 $489 $338 #
vertex $-1 $347 $501 #
vertex $-1 $221 $502 #
straight-curve $-1 35.752283288510043 -1.4640553955849507 8.9184657273551053 -1 0 0 I I #
coedge $-1 $354 $354 $-1 $503 reversed $224 $-1 #
edge $-1 $504 0 $504 6.2831853071796004 $225 $505 forward 7 unknown #
vertex $-1 $228 $506 #
ellipse-curve $-1 40.921696123774403 -5.9272792160414394 4.4721473904729727 0.84804810408105047 0 0.52991925155115449 0.26495962577557725 0 -0.42402405204052523 1 I I #
coedge $-1 $358 $358 $-1 $507 reversed $231 $-1 #
edge $-1 $508 0 $508 6.2831853071796004 $232 $509 forward 7 unknown #
vertex $-1 $235 $510 #
ellipse-curve $-1 40.921696123774403 -3.2493449237675449 4.4721473904729727 0.84804810408105047 0 0.52991925155115449 0.26495962577557725 0 -0.42402405204052523 1 I I #
face $-1 $-1 $374 $50 $-1 $511 forward single #
loop $-1 $-1 $512 $236 #
plane-surface $-1 43.700064088869901 0 0 -1 0 0 0 0 1 forward_v I I I I #
coedge $-1 $513 $514 $515 $516 reversed $237 $-1 #
coedge $-1 $517 $239 $241 $372 forward $149 $-1 #
coedge $-1 $239 $517 $513 $518 forward $149 $-1 #
coedge $-1 $515 $242 $239 $369 forward $374 $-1 #
edge $-1 $376 -5.4184127092717871 $519 0.83010063936729761 $368 $520 forward 7 unknown #
coedge $-1 $521 $522 $240 $371 forward $363 $-1 #
edge $-1 $523 -60.204347226702538 $375 -51.311710552938258 $370 $524 forward 7 unknown #
edge $-1 $376 76.91412316107818 $523 87.400128177739816 $241 $525 forward 7 unknown #
coedge $-1 $242 $515 $521 $526 forward $374 $-1 #
loop $-1 $-1 $515 $362 #
vertex $-1 $371 $527 #
vertex $-1 $243 $528 #
straight-curve $-1 35.752283288510043 7.7125687442240318 8.9184657273551053 -1 0 0 I I #
coedge $-1 $378 $378 $-1 $529 reversed $246 $-1 #
edge $-1 $530 0 $530 6.2831853071796004 $247 $531 forward 7 unknown #
vertex $-1 $250 $532 #
ellipse-curve $-1 40.921696123774403 3.2493449237675449 4.4721473904729727 0.84804810408105047 0 0.52991925155115449 0.26495962577557725 0 -0.42402405204052523 1 I I #
coedge $-1 $382 $382 $-1 $533 reversed $253 $-1 #
edge $-1 $534 0 $534 6.2831853071796004 $254 $535 forward 7 unknown #
vertex $-1 $257 $536 #
ellipse-curve $-1 40.921696123774403 5.9272792160414376 4.4721473904729727 0.84804810408105047 0 0.52991925155115449 0.26495962577557725 0 -0.42402405204052523 1 I I #
face $-1 $-1 $398 $53 $-1 $537 forward single #
loop $-1 $-1 $538 $258 #
plane-surface $-1 43.700064088869901 0 0 -1 0 0 0 0 1 forward_v I I I I #
coedge $-1 $539 $540 $541 $542 reversed $259 $-1 #
coedge $-1 $543 $261 $263 $396 forward $163 $-1 #
coedge $-1 $261 $543 $539 $544 forward $163 $-1 #
coedge $-1 $541 $264 $261 $393 forward $398 $-1 #
edge $-1 $400 -10.006724779176281 $545 -3.7582114305371945 $392 $546 forward 7 unknown #
coedge $-1 $547 $548 $262 $395 forward $387 $-1 #
edge $-1 $549 -60.204347226702538 $399 -51.311710552938258 $394 $550 forward 7 unknown #
edge $-1 $400 76.91412316107818 $549 87.400128177739816 $263 $551 forward 7 unknown #
coedge $-1 $264 $541 $547 $552 forward $398 $-1 #
loop $-1 $-1 $541 $386 #
vertex $-1 $395 $553 #
vertex $-1 $265 $554 #
straight-curve $-1 35.752283288510043 16.889192884033019 8.9184657273551053 -1 0 0 I I #
coedge $-1 $402 $402 $-1 $555 reversed $268 $-1 #
edge $-1 $556 0 $556 6.2831853071796004 $269 $557 forward 7 unknown #
vertex $-1 $272 $558 #
ellipse-curve $-1 40.921696123774403 12.425969063576524 4.4721473904729727 0.84804810408105047 0 0.52991925155115449 0.26495962577557725 0 -0.42402405204052523 1 I I #
coedge $-1 $406 $406 $-1 $559 reversed $275 $-1 #
edge $-1 $560 0 $560 6.2831853071796004 $276 $561 forward 7 unknown #
vertex $-1 $279 $562 #
ellipse-curve $-1 40.921696123774403 15.10390335585042 4.4721473904729727 0.84804810408105047 0 0.52991925155115449 0.26495962577557725 0 -0.42402405204052523 1 I I #
face $-1 $-1 $295 $42 $-1 $563 reversed single #
loop $-1 $-1 $426 $280 #
plane-surface $-1 0 21.281359070787865 0 0 -1 0 0 0 -1 forward_v I I I I #
coedge $-1 $564 $424 $427 $565 forward $281 $-1 #
coedge $-1 $430 $283 $284 $418 reversed $177 $-1 #
coedge $-1 $424 $564 $283 $416 reversed $281 $-1 #
edge $-1 $431 -8.9184657273551071 $566 8.9184657273551071 $415 $567 forward 7 unknown #
coedge $-1 $285 $284 $564 $568 forward $113 $-1 #
edge $-1 $422 -43.700064088869901 $566 43.700064088869901 $414 $569 forward 7 unknown #
coedge $-1 $427 $426 $285 $420 reversed $411 $-1 #
edge $-1 $570 -43.700064088869901 $421 43.700064088869901 $419 $571 forward 7 unknown #
vertex $-1 $287 $572 #
vertex $-1 $433 $573 #
straight-curve $-1 43.700064088869901 0 -8.9184657273551071 0 -1 0 I I #
coedge $-1 $413 $415 $288 $425 reversed $281 $-1 #
edge $-1 $428 -21.281359070787865 $431 21.281359070787865 $424 $574 forward 7 unknown #
coedge $-1 $419 $289 $294 $434 forward $411 $-1 #
coedge $-1 $289 $419 $413 $565 reversed $411 $-1 #
vertex $-1 $290 $575 #
straight-curve $-1 0 21.281359070787865 8.9184657273551071 -1 0 0 I I #
coedge $-1 $291 $414 $293 $433 reversed $177 $-1 #
vertex $-1 $425 $576 #
straight-curve $-1 0 -21.281359070787865 8.9184657273551071 1 0 0 I I #
edge $-1 $296 -8.9184657273551071 $422 8.9184657273551071 $293 $577 forward 7 unknown #
edge $-1 $297 -8.9184657273551071 $421 8.9184657273551071 $294 $578 forward 7 unknown #
point $-1 43.700064088869901 -21.281359070787865 8.9184657273551071 #
point $-1 43.700064088869901 21.281359070787865 8.9184657273551071 #
face $-1 $-1 $450 $43 $-1 $579 reversed single #
loop $-1 $-1 $446 $299 #
plane-surface $-1 -43.700064088869901 0 0 1 0 0 0 0 -1 forward_v I I I I #
coedge $-1 $580 $302 $443 $581 forward $185 $-1 #
coedge $-1 $302 $580 $582 $583 forward $185 $-1 #
edge $-1 $584 -21.281359070787865 $444 21.281359070787865 $302 $585 forward 7 unknown #
coedge $-1 $304 $453 $440 $581 reversed $300 $-1 #
vertex $-1 $581 $586 #
straight-curve $-1 -37.736093599725173 -21.281359070787865 -3.7092328636775536 0 0 1 I I #
coedge $-1 $587 $588 $306 $447 forward $438 $-1 #
edge $-1 $454 -21.281359070787865 $451 21.281359070787865 $446 $589 forward 7 unknown #
coedge $-1 $582 $307 $311 $456 forward $450 $-1 #
coedge $-1 $307 $582 $587 $590 reversed $450 $-1 #
loop $-1 $-1 $448 $437 #
vertex $-1 $590 $591 #
straight-curve $-1 -20.359039422148768 21.281359070787865 -5.9184657273551071 1 0 0 I I #
coedge $-1 $443 $309 $588 $592 forward $300 $-1 #
vertex $-1 $592 $593 #
straight-curve $-1 -20.359039422148768 -21.281359070787865 -5.9184657273551071 -1 0 0 I I #
edge $-1 $313 2.2092328636775536 $584 5.2092328636775536 $448 $594 forward 7 unknown #
point $-1 -37.736093599725173 -21.281359070787865 -5.9184657273551071 #
point $-1 -37.736093599725173 21.281359070787865 -5.9184657273551071 #
loop $-1 $-1 $323 $315 #
plane-surface $-1 43.700064088869901 0 0 -1 0 0 0 0 1 forward_v I I I I #
coedge $-1 $462 $318 $320 $466 reversed $193 $-1 #
coedge $-1 $318 $461 $595 $596 reversed $193 $-1 #
coedge $-1 $326 $321 $318 $464 forward $316 $-1 #
edge $-1 $467 2.3910448701688694 $597 7.9477808003598582 $463 $598 forward 7 unknown #
coedge $-1 $320 $319 $470 $599 reversed $121 $-1 #
edge $-1 $600 -87.400128177739816 $467 -76.91412316107818 $461 $601 forward 7 unknown #
vertex $-1 $322 $602 #
straight-curve $-1 38.143328158678919 -6.8824681048567378 8.9184657273551124 0 -1 0 I I #
coedge $-1 $595 $323 $326 $474 reversed $459 $-1 #
coedge $-1 $323 $595 $465 $599 forward $459 $-1 #
vertex $-1 $324 $603 #
straight-curve $-1 43.700064088869901 -10.640679535393932 60.230176280293364 0 0 1 I I #
straight-curve $-1 -2.614946420552954 -10.640679535393932 74.14534205116388 0.52991925155115449 0 -0.84804810408105047 I I #
edge $-1 $597 -16.889192884033019 $327 -10.640679535393932 $469 $604 forward 7 unknown #
point $-1 43.700064088869901 -10.640679535393932 8.9184657273551071 #
point $-1 38.143328158678912 -10.640679535393932 8.9184657273551124 #
edge $-1 $605 1 $605 0 $330 $-1 forward 7 unknown #
vertex $-1 $331 $606 #
ellipse-curve $-1 40.073648019693373 -15.103903355850422 3.9422281389218337 0.84804810408105047 0 0.52991925155115449 0.26495962577557725 0 -0.42402405204052523 1 I I #
point $-1 41.186655749549999 -15.103903355850422 4.0481233384324629 #
edge $-1 $607 1 $607 0 $334 $-1 forward 7 unknown #
vertex $-1 $335 $608 #
ellipse-curve $-1 40.073648019693373 -12.425969063576527 3.9422281389218337 0.84804810408105047 0 0.52991925155115449 0.26495962577557725 0 -0.42402405204052523 1 I I #
point $-1 41.186655749549999 -12.425969063576527 4.0481233384324629 #
plane-surface $-1 0 0 8.9184657273551071 0 0 1 1 0 0 forward_v I I I I #
coedge $-1 $496 $495 $488 $609 forward $339 $-1 #
coedge $-1 $488 $341 $343 $492 reversed $215 $-1 #
coedge $-1 $341 $487 $486 $609 reversed $215 $-1 #
coedge $-1 $349 $344 $341 $490 forward $350 $-1 #
edge $-1 $493 2.3910448701688694 $610 7.9477808003598582 $489 $611 forward 7 unknown #
coedge $-1 $343 $342 $496 $612 reversed $135 $-1 #
edge $-1 $613 -87.400128177739816 $493 -76.91412316107818 $487 $614 forward 7 unknown #
vertex $-1 $345 $615 #
straight-curve $-1 38.143328158678919 -2.2941560349522465 8.9184657273551124 0 -1 0 I I #
coedge $-1 $486 $346 $349 $500 reversed $339 $-1 #
coedge $-1 $346 $486 $491 $612 forward $339 $-1 #
vertex $-1 $347 $616 #
straight-curve $-1 43.700064088869901 -1.4640553955849507 60.230176280293364 0 0 1 I I #
straight-curve $-1 -2.614946420552954 -1.4640553955849507 74.14534205116388 0.52991925155115449 0 -0.84804810408105047 I I #
edge $-1 $610 -7.7125687442240354 $351 -1.4640553955849507 $495 $617 forward 7 unknown #
point $-1 43.700064088869901 -1.4640553955849507 8.9184657273551071 #
point $-1 38.143328158678912 -1.4640553955849507 8.9184657273551124 #
edge $-1 $618 1 $618 0 $354 $-1 forward 7 unknown #
vertex $-1 $355 $619 #
ellipse-curve $-1 40.073648019693373 -5.9272792160414394 3.9422281389218337 0.84804810408105047 0 0.52991925155115449 0.26495962577557725 0 -0.42402405204052523 1 I I #
point $-1 41.186655749549999 -5.9272792160414394 4.0481233384324629 #
edge $-1 $620 1 $620 0 $358 $-1 forward 7 unknown #
vertex $-1 $359 $621 #
ellipse-curve $-1 40.073648019693373 -3.2493449237675449 3.9422281389218337 0.84804810408105047 0 0.52991925155115449 0.26495962577557725 0 -0.42402405204052523 1 I I #
point $-1 41.186655749549999 -3.2493449237675449 4.0481233384324629 #
plane-surface $-1 0 0 8.9184657273551071 0 0 1 1 0 0 forward_v I I I I #
coedge $-1 $522 $521 $514 $622 forward $363 $-1 #
coedge $-1 $514 $365 $367 $518 reversed $237 $-1 #
coedge $-1 $365 $513 $512 $622 reversed $237 $-1 #
coedge $-1 $373 $368 $365 $516 forward $374 $-1 #
edge $-1 $519 2.3910448701688694 $623 7.9477808003598582 $515 $624 forward 7 unknown #
coedge $-1 $367 $366 $522 $625 reversed $149 $-1 #
edge $-1 $626 -87.400128177739816 $519 -76.91412316107818 $513 $627 forward 7 unknown #
vertex $-1 $369 $628 #
straight-curve $-1 38.143328158678919 2.2941560349522447 8.9184657273551124 0 -1 0 I I #
coedge $-1 $512 $370 $373 $526 reversed $363 $-1 #
coedge $-1 $370 $512 $517 $625 forward $363 $-1 #
vertex $-1 $371 $629 #
straight-curve $-1 43.700064088869901 7.7125687442240318 60.230176280293364 0 0 1 I I #
straight-curve $-1 -2.614946420552954 7.7125687442240318 74.14534205116388 0.52991925155115449 0 -0.84804810408105047 I I #
edge $-1 $623 1.4640553955849471 $375 7.7125687442240318 $521 $630 forward 7 unknown #
point $-1 43.700064088869901 7.7125687442240318 8.9184657273551071 #
point $-1 38.143328158678912 7.7125687442240318 8.9184657273551124 #
edge $-1 $631 1 $631 0 $378 $-1 forward 7 unknown #
vertex $-1 $379 $632 #
ellipse-curve $-1 40.073648019693373 3.2493449237675449 3.9422281389218337 0.84804810408105047 0 0.52991925155115449 0.26495962577557725 0 -0.42402405204052523 1 I I #
point $-1 41.186655749549999 3.2493449237675449 4.0481233384324629 #
edge $-1 $633 1 $633 0 $382 $-1 forward 7 unknown #
vertex $-1 $383 $634 #
ellipse-curve $-1 40.073648019693373 5.9272792160414376 3.9422281389218337 0.84804810408105047 0 0.52991925155115449 0.26495962577557725 0 -0.42402405204052523 1 I I #
point $-1 41.186655749549999 5.9272792160414376 4.0481233384324629 #
plane-surface $-1 0 0 8.9184657273551071 0 0 1 1 0 0 forward_v I I I I #
coedge $-1 $548 $547 $540 $635 forward $387 $-1 #
coedge $-1 $540 $389 $391 $544 reversed $259 $-1 #
coedge $-1 $389 $539 $538 $635 reversed $259 $-1 #
coedge $-1 $397 $392 $389 $542 forward $398 $-1 #
edge $-1 $545 2.3910448701688694 $636 7.9477808003598582 $541 $637 forward 7 unknown #
coedge $-1 $391 $390 $548 $638 reversed $163 $-1 #
edge $-1 $639 -87.400128177739816 $545 -76.91412316107818 $539 $640 forward 7 unknown #
vertex $-1 $393 $641 #
straight-curve $-1 38.143328158678919 6.8824681048567378 8.9184657273551124 0 -1 0 I I #
coedge $-1 $538 $394 $397 $552 reversed $387 $-1 #
coedge $-1 $394 $538 $543 $638 forward $387 $-1 #
vertex $-1 $395 $642 #
straight-curve $-1 43.700064088869901 16.889192884033019 60.230176280293364 0 0 1 I I #
straight-curve $-1 -2.614946420552954 16.889192884033019 74.14534205116388 0.52991925155115449 0 -0.84804810408105047 I I #
edge $-1 $636 10.640679535393932 $399 16.889192884033019 $547 $643 forward 7 unknown #
point $-1 43.700064088869901 16.889192884033019 8.9184657273551071 #
point $-1 38.143328158678912 16.889192884033019 8.9184657273551124 #
edge $-1 $644 1 $644 0 $402 $-1 forward 7 unknown #
vertex $-1 $403 $645 #
ellipse-curve $-1 40.073648019693373 12.425969063576524 3.9422281389218337 0.84804810408105047 0 0.52991925155115449 0.26495962577557725 0 -0.42402405204052523 1 I I #
point $-1 41.186655749549999 12.425969063576524 4.0481233384324629 #
edge $-1 $646 1 $646 0 $406 $-1 forward 7 unknown #
vertex $-1 $407 $647 #
ellipse-curve $-1 40.073648019693373 15.10390335585042 3.9422281389218337 0.84804810408105047 0 0.52991925155115449 0.26495962577557725 0 -0.42402405204052523 1 I I #
point $-1 41.186655749549999 15.10390335585042 4.0481233384324629 #
plane-surface $-1 43.700064088869901 0 0 -1 0 0 0 0 1 forward_v I I I I #
coedge $-1 $415 $413 $417 $568 reversed $281 $-1 #
edge $-1 $428 -8.9184657273551071 $570 8.9184657273551071 $427 $648 forward 7 unknown #
vertex $-1 $568 $649 #
straight-curve $-1 -43.700064088869901 -21.281359070787865 0 0 0 -1 I I #
edge $-1 $566 -21.281359070787865 $570 21.281359070787865 $564 $650 forward 7 unknown #
straight-curve $-1 0 -21.281359070787865 -8.9184657273551071 -1 0 0 I I #
vertex $-1 $420 $651 #
straight-curve $-1 0 21.281359070787865 -8.9184657273551071 1 0 0 I I #
point $-1 43.700064088869901 21.281359070787865 -8.9184657273551071 #
point $-1 43.700064088869901 -21.281359070787865 -8.9184657273551071 #
straight-curve $-1 -43.700064088869901 0 8.9184657273551071 0 -1 0 I I #
point $-1 -43.700064088869901 21.281359070787865 8.9184657273551071 #
point $-1 -43.700064088869901 -21.281359070787865 8.9184657273551071 #
straight-curve $-1 43.700064088869901 -21.281359070787865 0 0 0 -1 I I #
straight-curve $-1 43.700064088869901 21.281359070787865 0 0 0 -1 I I #
plane-surface $-1 0 21.281359070787865 0 0 -1 0 0 0 -1 forward_v I I I I #
coedge $-1 $441 $440 $652 $653 forward $185 $-1 #
edge $-1 $444 37.736093599725173 $654 43.700064088869901 $443 $655 forward 7 unknown #
coedge $-1 $449 $448 $441 $583 reversed $450 $-1 #
edge $-1 $656 -43.700064088869901 $584 -37.736093599725173 $582 $657 forward 7 unknown #
vertex $-1 $456 $658 #
straight-curve $-1 -37.736093599725173 0 -8.9184657273551071 0 -1 0 I I #
point $-1 -37.736093599725173 -21.281359070787865 -8.9184657273551071 #
coedge $-1 $652 $446 $449 $590 forward $438 $-1 #
coedge $-1 $446 $652 $453 $592 reversed $438 $-1 #
straight-curve $-1 -43.700064088869901 0 -5.9184657273551071 0 1 0 I I #
edge $-1 $451 5.9184657273551071 $656 8.9184657273551071 $449 $659 forward 7 unknown #
point $-1 -43.700064088869901 21.281359070787865 -5.9184657273551071 #
edge $-1 $454 5.9184657273551071 $654 8.9184657273551071 $588 $660 forward 7 unknown #
point $-1 -43.700064088869901 -21.281359070787865 -5.9184657273551071 #
straight-curve $-1 -37.736093599725173 21.281359070787865 -3.7092328636775536 0 0 -1 I I #
coedge $-1 $470 $469 $462 $596 forward $459 $-1 #
edge $-1 $597 51.311710552938258 $600 60.204347226702538 $595 $661 forward 7 unknown #
vertex $-1 $474 $662 #
straight-curve $-1 35.752283288510043 -16.889192884033019 8.9184657273551053 1 0 0 I I #
edge $-1 $600 -10.006724779176281 $471 -3.7582114305371945 $470 $663 forward 7 unknown #
vertex $-1 $599 $664 #
straight-curve $-1 -2.614946420552954 -16.889192884033019 74.14534205116388 -0.52991925155115449 0 0.84804810408105047 I I #
point $-1 38.143328158678912 -16.889192884033019 8.9184657273551124 #
point $-1 43.700064088869894 -10.640679535393932 0.025829053590825879 #
straight-curve $-1 43.700064088869901 0 8.9184657273551071 0 1 0 I I #
vertex $-1 $477 $665 #
point $-1 40.338607645468954 -15.103903355850422 3.5182040868813083 #
vertex $-1 $481 $666 #
point $-1 40.338607645468954 -12.425969063576527 3.5182040868813083 #
edge $-1 $610 51.311710552938258 $613 60.204347226702538 $486 $667 forward 7 unknown #
vertex $-1 $500 $668 #
straight-curve $-1 35.752283288510043 -7.7125687442240354 8.9184657273551053 1 0 0 I I #
edge $-1 $613 -5.4184127092717889 $497 0.83010063936729583 $496 $669 forward 7 unknown #
vertex $-1 $612 $670 #
straight-curve $-1 -2.614946420552954 -7.7125687442240354 74.14534205116388 -0.52991925155115449 0 0.84804810408105047 I I #
point $-1 38.143328158678912 -7.7125687442240354 8.9184657273551124 #
point $-1 43.700064088869894 -1.4640553955849507 0.025829053590825879 #
straight-curve $-1 43.700064088869901 0 8.9184657273551071 0 1 0 I I #
vertex $-1 $503 $671 #
point $-1 40.338607645468954 -5.9272792160414394 3.5182040868813083 #
vertex $-1 $507 $672 #
point $-1 40.338607645468954 -3.2493449237675449 3.5182040868813083 #
edge $-1 $623 51.311710552938258 $626 60.204347226702538 $512 $673 forward 7 unknown #
vertex $-1 $526 $674 #
straight-curve $-1 35.752283288510043 1.4640553955849471 8.9184657273551053 1 0 0 I I #
edge $-1 $626 -0.83010063936729761 $523 5.4184127092717871 $522 $675 forward 7 unknown #
vertex $-1 $625 $676 #
straight-curve $-1 -2.614946420552954 1.4640553955849471 74.14534205116388 -0.52991925155115449 0 0.84804810408105047 I I #
point $-1 38.143328158678912 1.4640553955849471 8.9184657273551124 #
point $-1 43.700064088869894 7.7125687442240318 0.025829053590825879 #
straight-curve $-1 43.700064088869901 0 8.9184657273551071 0 1 0 I I #
vertex $-1 $529 $677 #
point $-1 40.338607645468954 3.2493449237675449 3.5182040868813083 #
vertex $-1 $533 $678 #
point $-1 40.338607645468954 5.9272792160414376 3.5182040868813083 #
edge $-1 $636 51.311710552938258 $639 60.204347226702538 $538 $679 forward 7 unknown #
vertex $-1 $552 $680 #
straight-curve $-1 35.752283288510043 10.640679535393932 8.9184657273551053 1 0 0 I I #
edge $-1 $639 3.7582114305371945 $549 10.006724779176281 $548 $681 forward 7 unknown #
vertex $-1 $638 $682 #
straight-curve $-1 -2.614946420552954 10.640679535393932 74.14534205116388 -0.52991925155115449 0 0.84804810408105047 I I #
point $-1 38.143328158678912 10.640679535393932 8.9184657273551124 #
point $-1 43.700064088869894 16.889192884033019 0.025829053590825879 #
straight-curve $-1 43.700064088869901 0 8.9184657273551071 0 1 0 I I #
vertex $-1 $555 $683 #
point $-1 40.338607645468954 12.425969063576524 3.5182040868813083 #
vertex $-1 $559 $684 #
point $-1 40.338607645468954 15.10390335585042 3.5182040868813083 #
straight-curve $-1 -43.700064088869901 21.281359070787865 0 0 0 -1 I I #
point $-1 -43.700064088869901 -21.281359070787865 -8.9184657273551071 #
straight-curve $-1 -43.700064088869901 0 -8.9184657273551071 0 1 0 I I #
point $-1 -43.700064088869901 21.281359070787865 -8.9184657273551071 #
coedge $-1 $588 $587 $580 $653 reversed $438 $-1 #
edge $-1 $654 -21.281359070787865 $656 21.281359070787865 $652 $685 forward 7 unknown #
vertex $-1 $653 $686 #
straight-curve $-1 0 -21.281359070787865 -8.9184657273551071 -1 0 0 I I #
vertex $-1 $583 $687 #
straight-curve $-1 0 21.281359070787865 -8.9184657273551071 1 0 0 I I #
point $-1 -37.736093599725173 21.281359070787865 -8.9184657273551071 #
straight-curve $-1 -43.700064088869901 21.281359070787865 0 0 0 -1 I I #
straight-curve $-1 -43.700064088869901 -21.281359070787865 0 0 0 -1 I I #
straight-curve $-1 43.700064088869901 -16.889192884033019 60.230176280293364 0 0 -1 I I #
point $-1 43.700064088869901 -16.889192884033019 8.9184657273551071 #
straight-curve $-1 43.700064088869894 -6.8824681048567378 0.02582905359084009 0 1 0 I I #
point $-1 43.700064088869894 -16.889192884033019 0.025829053590825879 #
point $-1 39.64962396765285 -15.103903355850422 3.6772685131462564 #
point $-1 39.64962396765285 -12.425969063576527 3.6772685131462564 #
straight-curve $-1 43.700064088869901 -7.7125687442240354 60.230176280293364 0 0 -1 I I #
point $-1 43.700064088869901 -7.7125687442240354 8.9184657273551071 #
straight-curve $-1 43.700064088869894 -2.2941560349522465 0.02582905359084009 0 1 0 I I #
point $-1 43.700064088869894 -7.7125687442240354 0.025829053590825879 #
point $-1 39.64962396765285 -5.9272792160414394 3.6772685131462564 #
point $-1 39.64962396765285 -3.2493449237675449 3.6772685131462564 #
straight-curve $-1 43.700064088869901 1.4640553955849471 60.230176280293364 0 0 -1 I I #
point $-1 43.700064088869901 1.4640553955849471 8.9184657273551071 #
straight-curve $-1 43.700064088869894 2.2941560349522447 0.02582905359084009 0 1 0 I I #
point $-1 43.700064088869894 1.4640553955849471 0.025829053590825879 #
point $-1 39.64962396765285 3.2493449237675449 3.6772685131462564 #
point $-1 39.64962396765285 5.9272792160414376 3.6772685131462564 #
straight-curve $-1 43.700064088869901 10.640679535393932 60.230176280293364 0 0 -1 I I #
point $-1 43.700064088869901 10.640679535393932 8.9184657273551071 #
straight-curve $-1 43.700064088869894 6.8824681048567378 0.02582905359084009 0 1 0 I I #
point $-1 43.700064088869894 10.640679535393932 0.025829053590825879 #
point $-1 39.64962396765285 12.425969063576524 3.6772685131462564 #
point $-1 39.64962396765285 15.10390335585042 3.6772685131462564 #
straight-curve $-1 -43.700064088869901 0 -8.9184657273551071 0 1 0 I I #
point $-1 -43.700064088869901 -21.281359070787865 -8.9184657273551071 #
point $-1 -43.700064088869901 21.281359070787865 -8.9184657273551071 #
End-of-ACIS-data 