500 0 4 0           
7 Unknown 11 ACIS 5.0 NT 24 Fri Mar 26 01:53:10 1999 
-1 9.9999999999999995e-007 1e-010 
body $-1 $4 $-1 $5 #
body $-1 $6 $-1 $7 #
body $-1 $8 $-1 $9 #
body $-1 $10 $-1 $11 #
lump $-1 $-1 $12 $0 #
transform $-1 1 0 0 0 1 0 0 0 1 52.441785943174537 36.058189076763711 16.220627851509285 1 rotate no_reflect no_shear #
lump $-1 $-1 $13 $1 #
transform $-1 1 0 0 0 1 0 0 0 1 52.441785943174537 36.058189076763711 16.220627851509285 1 rotate no_reflect no_shear #
lump $-1 $-1 $14 $2 #
transform $-1 1 0 0 0 1 0 0 0 1 52.441785943174537 36.058189076763711 16.220627851509285 1 rotate no_reflect no_shear #
lump $-1 $-1 $15 $3 #
transform $-1 1 0 0 0 1 0 0 0 1 52.441785943174537 36.058189076763711 16.220627851509285 1 rotate no_reflect no_shear #
shell $-1 $-1 $-1 $16 $-1 $4 #
shell $-1 $-1 $-1 $17 $-1 $6 #
shell $-1 $-1 $-1 $18 $-1 $8 #
shell $-1 $-1 $-1 $19 $-1 $10 #
face $-1 $20 $21 $12 $-1 $22 forward single #
face $-1 $23 $24 $13 $-1 $25 forward single #
face $-1 $26 $27 $14 $-1 $28 reversed single #
face $-1 $29 $30 $15 $-1 $31 forward single #
face $-1 $32 $33 $12 $-1 $34 reversed single #
loop $-1 $-1 $35 $16 #
plane-surface $-1 0 0 16.220627851509285 0 0 1 1 0 0 forward_v I I I I #
face $-1 $36 $37 $13 $-1 $38 reversed single #
loop $-1 $-1 $39 $17 #
plane-surface $-1 -52.441785943174537 0 0 1 0 0 0 0 -1 forward_v I I I I #
face $-1 $40 $41 $14 $-1 $42 reversed single #
loop $-1 $-1 $43 $18 #
plane-surface $-1 22.402867928312631 34.921152196190732 136.79935437592434 1 0 0 0 -0.55919291073839883 -0.82903756765294845 forward_v I I I I #
face $-1 $44 $45 $15 $-1 $46 forward single #
loop $-1 $47 $48 $19 #
cone-surface $-1 30.182206550883279 30.412431861169349 11.864101640534466 0 -0.55919291073839883 -0.82903756765294845 2 0 0 1 I I 0 1 2 forward I I I I #
face $-1 $49 $50 $12 $-1 $51 reversed single #
loop $-1 $-1 $52 $20 #
plane-surface $-1 0 0 -16.220627851509285 0 0 1 1 0 0 forward_v I I I I #
coedge $-1 $53 $54 $55 $56 forward $21 $-1 #
face $-1 $57 $58 $13 $-1 $59 reversed single #
loop $-1 $-1 $60 $23 #
plane-surface $-1 0 36.058189076763711 0 0 -1 0 0 0 -1 forward_v I I I I #
coedge $-1 $61 $62 $63 $64 forward $24 $-1 #
face $-1 $65 $66 $14 $-1 $67 reversed single #
loop $-1 $-1 $68 $26 #
plane-surface $-1 30.182206550883279 -23.728997655576904 49.846933052512341 0 0.55919291073839883 0.82903756765294845 1 0 0 forward_v I I I I #
coedge $-1 $69 $70 $71 $72 reversed $27 $-1 #
face $-1 $-1 $73 $15 $-1 $74 forward single #
loop $-1 $75 $76 $29 #
cone-surface $-1 30.182206550883279 29.174551769207298 10.028868967196221 0 -0.55919291073839883 -0.82903756765294845 1 0 0 1 I I -0.70710678118654691 0.70710678118654813 1 forward I I I I #
loop $-1 $-1 $77 $19 #
coedge $-1 $48 $48 $78 $79 reversed $30 $-1 #
face $-1 $80 $81 $12 $-1 $82 reversed single #
loop $-1 $-1 $83 $32 #
plane-surface $-1 0 -36.058189076763711 0 0 1 0 0 0 1 forward_v I I I I #
coedge $-1 $84 $85 $86 $87 forward $33 $-1 #
coedge $-1 $88 $35 $89 $90 forward $21 $-1 #
coedge $-1 $35 $88 $91 $92 forward $21 $-1 #
coedge $-1 $93 $94 $35 $56 reversed $95 $-1 #
edge $-1 $96 -36.058189076763711 $97 36.058189076763711 $55 $98 forward 7 unknown #
face $-1 $99 $100 $13 $-1 $101 reversed single #
loop $-1 $-1 $63 $36 #
plane-surface $-1 -62.289271836926005 0 11.556559993867445 0 0 1 1 0 0 forward_v I I I I #
coedge $-1 $102 $103 $61 $104 forward $37 $-1 #
coedge $-1 $105 $39 $60 $104 reversed $24 $-1 #
coedge $-1 $39 $105 $106 $107 reversed $24 $-1 #
coedge $-1 $108 $109 $39 $64 reversed $58 $-1 #
edge $-1 $110 -36.058189076763711 $111 36.058189076763711 $63 $112 forward 7 unknown #
face $-1 $113 $114 $14 $-1 $115 forward single #
loop $-1 $-1 $116 $40 #
plane-surface $-1 37.961545173453928 34.921152196190732 136.79935437592434 -1 0 0 0 0.55919291073839883 0.82903756765294845 forward_v I I I I #
coedge $-1 $117 $118 $119 $120 reversed $41 $-1 #
coedge $-1 $70 $43 $121 $122 reversed $27 $-1 #
coedge $-1 $43 $69 $117 $123 reversed $27 $-1 #
coedge $-1 $119 $124 $43 $72 forward $114 $-1 #
edge $-1 $125 -18.597612978668344 $126 -8.6634729099269379 $71 $127 forward 7 unknown #
loop $-1 $-1 $78 $44 #
plane-surface $-1 30.182206550883279 -23.728997655576904 49.846933052512341 0 0.55919291073839883 0.82903756765294845 1 0 0 forward_v I I I I #
loop $-1 $-1 $128 $29 #
coedge $-1 $76 $76 $77 $129 reversed $45 $-1 #
coedge $-1 $77 $77 $76 $129 forward $47 $-1 #
coedge $-1 $78 $78 $48 $79 forward $73 $-1 #
edge $-1 $130 1.7322673881370137e-017 $130 6.2831853071796004 $78 $131 forward 7 unknown #
face $-1 $132 $133 $12 $-1 $134 reversed single #
loop $-1 $-1 $135 $49 #
plane-surface $-1 -52.441785943174537 0 0 1 0 0 0 0 -1 forward_v I I I I #
coedge $-1 $136 $91 $137 $138 forward $50 $-1 #
coedge $-1 $139 $52 $136 $140 forward $33 $-1 #
coedge $-1 $52 $139 $141 $142 forward $33 $-1 #
coedge $-1 $94 $93 $52 $87 reversed $95 $-1 #
edge $-1 $143 -36.058189076763711 $144 36.058189076763711 $86 $145 forward 7 unknown #
coedge $-1 $54 $53 $146 $147 forward $21 $-1 #
coedge $-1 $148 $149 $53 $90 reversed $133 $-1 #
edge $-1 $97 -52.441785943174537 $150 52.441785943174537 $89 $151 forward 7 unknown #
coedge $-1 $83 $152 $54 $92 reversed $50 $-1 #
edge $-1 $153 -52.441785943174537 $96 52.441785943174537 $91 $154 forward 7 unknown #
coedge $-1 $86 $55 $152 $155 forward $95 $-1 #
coedge $-1 $55 $86 $148 $156 reversed $95 $-1 #
loop $-1 $-1 $93 $132 #
vertex $-1 $56 $157 #
vertex $-1 $56 $158 #
straight-curve $-1 52.441785943174537 0 16.220627851509285 0 1 0 I I #
face $-1 $159 $160 $13 $-1 $161 forward single #
loop $-1 $-1 $162 $57 #
plane-surface $-1 -72.136757730677473 0 13.888593922688365 1 0 0 0 0 -1 forward_v I I I I #
coedge $-1 $163 $60 $109 $164 reversed $37 $-1 #
coedge $-1 $60 $163 $165 $166 reversed $37 $-1 #
edge $-1 $167 -16.220627851509285 $111 -11.556559993867445 $60 $168 forward 7 unknown #
coedge $-1 $62 $61 $169 $170 reversed $24 $-1 #
coedge $-1 $171 $172 $62 $107 forward $173 $-1 #
edge $-1 $110 11.556559993867445 $174 16.220627851509285 $106 $175 forward 7 unknown #
coedge $-1 $176 $63 $172 $177 forward $58 $-1 #
coedge $-1 $63 $176 $102 $164 forward $58 $-1 #
vertex $-1 $107 $178 #
vertex $-1 $104 $179 #
straight-curve $-1 -52.441785943174537 0 11.556559993867445 0 1 0 I I #
face $-1 $-1 $180 $14 $-1 $181 reversed single #
loop $-1 $-1 $71 $65 #
plane-surface $-1 0 0 16.220627851509285 0 0 1 1 0 0 forward_v I I I I #
coedge $-1 $182 $183 $184 $185 reversed $66 $-1 #
coedge $-1 $186 $68 $70 $123 forward $41 $-1 #
coedge $-1 $68 $186 $182 $187 forward $41 $-1 #
coedge $-1 $184 $71 $68 $120 forward $114 $-1 #
edge $-1 $126 7.3117646528709912 $188 22.870441898012288 $119 $189 forward 7 unknown #
coedge $-1 $190 $191 $69 $122 forward $180 $-1 #
edge $-1 $192 -58.87971154703191 $125 -52.179049336452884 $121 $193 forward 7 unknown #
edge $-1 $126 60.133640028805885 $192 72.116378153527435 $70 $194 forward 7 unknown #
coedge $-1 $71 $184 $190 $195 forward $114 $-1 #
vertex $-1 $122 $196 #
vertex $-1 $72 $197 #
straight-curve $-1 22.402867928312631 17.460576098095366 16.220627851509285 0 -1 0 I I #
coedge $-1 $128 $128 $-1 $198 reversed $75 $-1 #
edge $-1 $199 0 $199 6.2831853071796004 $76 $200 forward 7 unknown #
vertex $-1 $79 $201 #
ellipse-curve $-1 30.182206550883279 31.091119042393004 12.870296746219768 0 0.55919291073839883 0.82903756765294845 2 0 0 1 I I #
face $-1 $-1 $95 $12 $-1 $202 reversed single #
loop $-1 $-1 $148 $80 #
plane-surface $-1 0 36.058189076763711 0 0 -1 0 0 0 -1 forward_v I I I I #
coedge $-1 $203 $146 $149 $204 forward $81 $-1 #
coedge $-1 $152 $83 $84 $140 reversed $50 $-1 #
coedge $-1 $146 $203 $83 $138 reversed $81 $-1 #
edge $-1 $153 -16.220627851509285 $205 16.220627851509285 $137 $206 forward 7 unknown #
coedge $-1 $85 $84 $203 $207 forward $33 $-1 #
edge $-1 $144 -52.441785943174537 $205 52.441785943174537 $136 $208 forward 7 unknown #
coedge $-1 $149 $148 $85 $142 reversed $133 $-1 #
edge $-1 $209 -52.441785943174537 $143 52.441785943174537 $141 $210 forward 7 unknown #
vertex $-1 $87 $211 #
vertex $-1 $155 $212 #
straight-curve $-1 52.441785943174537 0 -16.220627851509285 0 -1 0 I I #
coedge $-1 $135 $137 $88 $147 reversed $81 $-1 #
edge $-1 $150 -36.058189076763711 $153 36.058189076763711 $146 $213 forward 7 unknown #
coedge $-1 $141 $89 $94 $156 forward $133 $-1 #
coedge $-1 $89 $141 $135 $204 reversed $133 $-1 #
vertex $-1 $90 $214 #
straight-curve $-1 0 36.058189076763711 16.220627851509285 -1 0 0 I I #
coedge $-1 $91 $136 $93 $155 reversed $50 $-1 #
vertex $-1 $147 $215 #
straight-curve $-1 0 -36.058189076763711 16.220627851509285 1 0 0 I I #
edge $-1 $96 -16.220627851509285 $144 16.220627851509285 $93 $216 forward 7 unknown #
edge $-1 $97 -16.220627851509285 $143 16.220627851509285 $94 $217 forward 7 unknown #
point $-1 52.441785943174537 -36.058189076763711 16.220627851509285 #
point $-1 52.441785943174537 36.058189076763711 16.220627851509285 #
face $-1 $-1 $173 $13 $-1 $218 reversed single #
loop $-1 $-1 $169 $99 #
plane-surface $-1 0 0 16.220627851509285 0 0 1 1 0 0 forward_v I I I I #
coedge $-1 $219 $220 $163 $221 forward $100 $-1 #
coedge $-1 $103 $102 $162 $221 reversed $37 $-1 #
edge $-1 $222 -9.8474858937514682 $111 9.8474858937514682 $102 $223 forward 7 unknown #
coedge $-1 $224 $169 $103 $166 forward $160 $-1 #
edge $-1 $167 52.441785943174537 $225 72.136757730677473 $103 $226 forward 7 unknown #
vertex $-1 $166 $227 #
straight-curve $-1 -52.441785943174537 36.058189076763711 0 0 0 -1 I I #
coedge $-1 $165 $228 $105 $170 forward $160 $-1 #
edge $-1 $174 -36.058189076763711 $167 36.058189076763711 $169 $229 forward 7 unknown #
coedge $-1 $230 $106 $228 $231 reversed $173 $-1 #
coedge $-1 $106 $230 $108 $177 reversed $173 $-1 #
loop $-1 $-1 $106 $159 #
vertex $-1 $107 $232 #
straight-curve $-1 -52.441785943174537 -36.058189076763711 0 0 0 1 I I #
coedge $-1 $109 $108 $219 $233 forward $58 $-1 #
edge $-1 $110 -9.8474858937514682 $234 9.8474858937514682 $172 $235 forward 7 unknown #
point $-1 -52.441785943174537 -36.058189076763711 11.556559993867445 #
point $-1 -52.441785943174537 36.058189076763711 11.556559993867445 #
loop $-1 $-1 $121 $113 #
plane-surface $-1 0 36.058189076763711 0 0 -1 0 0 0 -1 forward_v I I I I #
coedge $-1 $183 $116 $118 $187 reversed $66 $-1 #
coedge $-1 $116 $182 $236 $237 reversed $66 $-1 #
coedge $-1 $124 $119 $116 $185 forward $114 $-1 #
edge $-1 $188 8.6634729099269379 $238 18.597612978668344 $184 $239 forward 7 unknown #
coedge $-1 $118 $117 $191 $240 reversed $41 $-1 #
edge $-1 $241 -72.116378153527435 $188 -60.133640028805885 $182 $242 forward 7 unknown #
vertex $-1 $120 $243 #
straight-curve $-1 15.09110327544164 26.124049008022311 16.220627851509285 1 0 0 I I #
coedge $-1 $236 $121 $124 $195 reversed $180 $-1 #
coedge $-1 $121 $236 $186 $240 forward $180 $-1 #
vertex $-1 $122 $244 #
straight-curve $-1 22.402867928312631 36.058189076763711 68.399677187962169 0 0 1 I I #
straight-curve $-1 22.402867928312631 -23.728997655576904 49.846933052512341 0 0.82903756765294845 -0.55919291073839883 I I #
edge $-1 $238 -37.961545173453928 $125 -22.402867928312631 $190 $245 forward 7 unknown #
point $-1 22.402867928312631 36.058189076763711 16.220627851509285 #
point $-1 22.402867928312631 26.124049008022304 16.220627851509285 #
edge $-1 $246 1 $246 0 $128 $-1 forward 7 unknown #
vertex $-1 $129 $247 #
ellipse-curve $-1 30.182206550883279 29.733744679945698 10.857906534849171 0 0.55919291073839883 0.82903756765294845 2 0 0 1 I I #
point $-1 32.182206550883279 31.091119042393 12.870296746219763 #
plane-surface $-1 52.441785943174537 0 0 -1 0 0 0 0 1 forward_v I I I I #
coedge $-1 $137 $135 $139 $207 reversed $81 $-1 #
edge $-1 $150 -16.220627851509285 $209 16.220627851509285 $149 $248 forward 7 unknown #
vertex $-1 $207 $249 #
straight-curve $-1 -52.441785943174537 -36.058189076763711 0 0 0 -1 I I #
edge $-1 $205 -36.058189076763711 $209 36.058189076763711 $203 $250 forward 7 unknown #
straight-curve $-1 0 -36.058189076763711 -16.220627851509285 -1 0 0 I I #
vertex $-1 $142 $251 #
straight-curve $-1 0 36.058189076763711 -16.220627851509285 1 0 0 I I #
point $-1 52.441785943174537 36.058189076763711 -16.220627851509285 #
point $-1 52.441785943174537 -36.058189076763711 -16.220627851509285 #
straight-curve $-1 -52.441785943174537 0 16.220627851509285 0 -1 0 I I #
point $-1 -52.441785943174537 36.058189076763711 16.220627851509285 #
point $-1 -52.441785943174537 -36.058189076763711 16.220627851509285 #
straight-curve $-1 52.441785943174537 -36.058189076763711 0 0 0 -1 I I #
straight-curve $-1 52.441785943174537 36.058189076763711 0 0 0 -1 I I #
plane-surface $-1 0 -36.058189076763711 0 0 1 0 0 0 1 forward_v I I I I #
coedge $-1 $252 $162 $176 $233 reversed $100 $-1 #
coedge $-1 $162 $252 $224 $253 reversed $100 $-1 #
edge $-1 $225 -2.3320339288209198 $222 2.3320339288209198 $163 $254 forward 7 unknown #
vertex $-1 $164 $255 #
straight-curve $-1 -62.289271836926005 36.058189076763711 11.556559993867445 1 0 0 I I #
coedge $-1 $228 $165 $220 $253 forward $160 $-1 #
vertex $-1 $166 $256 #
straight-curve $-1 0 36.058189076763711 16.220627851509285 -1 0 0 I I #
point $-1 -52.441785943174537 36.058189076763711 16.220627851509285 #
coedge $-1 $169 $224 $171 $231 forward $160 $-1 #
straight-curve $-1 -52.441785943174537 0 16.220627851509285 0 1 0 I I #
coedge $-1 $172 $171 $252 $257 forward $173 $-1 #
edge $-1 $258 -72.136757730677473 $174 -52.441785943174537 $171 $259 forward 7 unknown #
point $-1 -52.441785943174537 -36.058189076763711 16.220627851509285 #
edge $-1 $234 -36.058189076763711 $222 36.058189076763711 $219 $260 forward 7 unknown #
vertex $-1 $233 $261 #
straight-curve $-1 -62.289271836926005 -36.058189076763711 11.556559993867445 -1 0 0 I I #
coedge $-1 $191 $190 $183 $237 forward $180 $-1 #
edge $-1 $238 52.179049336452884 $241 58.87971154703191 $236 $262 forward 7 unknown #
vertex $-1 $195 $263 #
straight-curve $-1 37.961545173453928 17.460576098095366 16.220627851509285 0 1 0 I I #
edge $-1 $241 -22.870441898012288 $192 -7.3117646528709912 $191 $264 forward 7 unknown #
vertex $-1 $240 $265 #
straight-curve $-1 37.961545173453928 -23.728997655576904 49.846933052512341 0 -0.82903756765294845 0.55919291073839883 I I #
point $-1 37.961545173453928 26.124049008022304 16.220627851509285 #
point $-1 22.402867928312631 36.058189076763711 9.5199656409302591 #
straight-curve $-1 0 36.058189076763711 16.220627851509285 -1 0 0 I I #
vertex $-1 $198 $266 #
point $-1 32.182206550883279 29.733744679945698 10.857906534849171 #
straight-curve $-1 -52.441785943174537 36.058189076763711 0 0 0 -1 I I #
point $-1 -52.441785943174537 -36.058189076763711 -16.220627851509285 #
straight-curve $-1 -52.441785943174537 0 -16.220627851509285 0 1 0 I I #
point $-1 -52.441785943174537 36.058189076763711 -16.220627851509285 #
coedge $-1 $220 $219 $230 $257 reversed $100 $-1 #
edge $-1 $225 -36.058189076763711 $258 36.058189076763711 $220 $267 forward 7 unknown #
straight-curve $-1 -72.136757730677473 36.058189076763711 13.888593922688365 0 0 -1 I I #
point $-1 -72.136757730677473 36.058189076763711 11.556559993867445 #
point $-1 -72.136757730677473 36.058189076763711 16.220627851509285 #
edge $-1 $258 -2.3320339288209198 $234 2.3320339288209198 $252 $268 forward 7 unknown #
vertex $-1 $253 $269 #
straight-curve $-1 0 -36.058189076763711 16.220627851509285 1 0 0 I I #
straight-curve $-1 -72.136757730677473 0 11.556559993867445 0 1 0 I I #
point $-1 -72.136757730677473 -36.058189076763711 11.556559993867445 #
straight-curve $-1 37.961545173453928 36.058189076763711 68.399677187962169 0 0 -1 I I #
point $-1 37.961545173453928 36.058189076763711 16.220627851509285 #
straight-curve $-1 15.09110327544164 36.058189076763711 9.5199656409302555 -1 0 0 I I #
point $-1 37.961545173453928 36.058189076763711 9.5199656409302591 #
point $-1 30.182206550883279 28.615358858468898 9.199831399543271 #
straight-curve $-1 -72.136757730677473 0 16.220627851509285 0 -1 0 I I #
straight-curve $-1 -72.136757730677473 -36.058189076763711 13.888593922688365 0 0 -1 I I #
point $-1 -72.136757730677473 -36.058189076763711 16.220627851509285 #
End-of-ACIS-data 