500 0 4 0           
7 Unknown 11 ACIS 5.0 NT 24 Fri Mar 26 20:39:22 1999 
-1 9.9999999999999995e-007 1e-010 
body $-1 $4 $-1 $5 #
body $-1 $6 $-1 $7 #
body $-1 $8 $-1 $9 #
body $-1 $10 $-1 $11 #
lump $-1 $-1 $12 $0 #
transform $-1 1 0 0 0 1 0 0 0 1 51.501815851313822 31.355327762109123 9.7929060717146026 1 rotate no_reflect no_shear #
lump $-1 $-1 $13 $1 #
transform $-1 1 0 0 0 1 0 0 0 1 51.501815851313822 31.355327762109123 9.7929060717146026 1 rotate no_reflect no_shear #
lump $-1 $-1 $14 $2 #
transform $-1 1 0 0 0 1 0 0 0 1 51.501815851313822 31.355327762109123 9.7929060717146026 1 rotate no_reflect no_shear #
lump $-1 $-1 $15 $3 #
transform $-1 1 0 0 0 1 0 0 0 1 51.501815851313822 31.355327762109123 9.7929060717146026 1 rotate no_reflect no_shear #
shell $-1 $-1 $-1 $16 $-1 $4 #
shell $-1 $-1 $-1 $17 $-1 $6 #
shell $-1 $-1 $-1 $18 $-1 $8 #
shell $-1 $-1 $-1 $19 $-1 $10 #
face $-1 $20 $21 $12 $-1 $22 forward single #
face $-1 $23 $24 $13 $-1 $25 forward single #
face $-1 $26 $27 $14 $-1 $28 reversed single #
face $-1 $29 $30 $15 $-1 $31 forward single #
face $-1 $32 $33 $12 $-1 $34 reversed single #
loop $-1 $-1 $35 $16 #
plane-surface $-1 0 0 9.7929060717146026 0 0 1 1 0 0 forward_v I I I I #
face $-1 $36 $37 $13 $-1 $38 forward single #
loop $-1 $-1 $39 $17 #
plane-surface $-1 0 -31.355327762109123 0 0 1 0 0 0 1 forward_v I I I I #
face $-1 $40 $41 $14 $-1 $42 reversed single #
loop $-1 $-1 $43 $18 #
plane-surface $-1 89.203763913256708 -6.258322280576758 146.46110699723923 0 -1 0 -0.86602541151947299 0 -0.49999998660252726 forward_v I I I I #
face $-1 $44 $45 $15 $-1 $46 forward single #
loop $-1 $47 $48 $19 #
cone-surface $-1 49.722890042182811 -13.461919230618573 7.4200507392009571 -0.86602541151947299 0 -0.49999998660252726 0.49999998660252726 0 -0.86602541151947299 1 I I 0 1 1 forward I I I I #
face $-1 $49 $50 $12 $-1 $51 reversed single #
loop $-1 $-1 $52 $20 #
plane-surface $-1 0 0 -9.7929060717146026 0 0 1 1 0 0 forward_v I I I I #
coedge $-1 $53 $54 $55 $56 forward $21 $-1 #
face $-1 $57 $58 $13 $-1 $59 reversed single #
loop $-1 $-1 $60 $23 #
plane-surface $-1 0 0 9.7929060717146026 0 0 1 1 0 0 forward_v I I I I #
coedge $-1 $61 $62 $63 $64 forward $24 $-1 #
face $-1 $65 $66 $14 $-1 $67 reversed single #
loop $-1 $-1 $68 $26 #
plane-surface $-1 1.3799883618048625e-006 -13.461919230618573 94.959292525913753 0.86602541151947299 0 0.49999998660252726 0.49999998660252726 0 -0.86602541151947299 forward_v I I I I #
coedge $-1 $69 $70 $71 $72 reversed $27 $-1 #
face $-1 $-1 $73 $15 $-1 $74 forward single #
loop $-1 $75 $76 $29 #
cone-surface $-1 48.676441568688247 -13.461919230618573 6.8158834529206391 -0.86602541151947299 0 -0.49999998660252726 0.24999999330126363 0 -0.43301270575973649 1 I I -0.70710678118654746 0.70710678118654746 0.5 forward I I I I #
loop $-1 $-1 $77 $19 #
coedge $-1 $48 $48 $78 $79 reversed $30 $-1 #
face $-1 $80 $81 $12 $-1 $82 reversed single #
loop $-1 $-1 $83 $32 #
plane-surface $-1 0 -31.355327762109123 0 0 1 0 0 0 1 forward_v I I I I #
coedge $-1 $84 $85 $86 $87 forward $33 $-1 #
coedge $-1 $88 $35 $89 $90 forward $21 $-1 #
coedge $-1 $35 $88 $91 $92 forward $21 $-1 #
coedge $-1 $93 $94 $35 $56 reversed $95 $-1 #
edge $-1 $96 -31.355327762109123 $97 31.355327762109123 $55 $98 forward 7 unknown #
face $-1 $99 $100 $13 $-1 $101 reversed single #
loop $-1 $-1 $102 $36 #
plane-surface $-1 -51.501815851313822 0 0 1 0 0 0 0 -1 forward_v I I I I #
coedge $-1 $103 $104 $62 $105 forward $37 $-1 #
coedge $-1 $106 $39 $107 $108 reversed $24 $-1 #
coedge $-1 $39 $106 $60 $105 reversed $24 $-1 #
coedge $-1 $109 $110 $39 $64 reversed $111 $-1 #
edge $-1 $112 -9.7929060717146026 $113 9.7929060717146026 $63 $114 forward 7 unknown #
face $-1 $115 $116 $14 $-1 $117 forward single #
loop $-1 $-1 $118 $40 #
plane-surface $-1 89.203763913256708 -20.66551618066039 146.46110699723923 0 1 0 0.86602541151947299 0 0.49999998660252726 forward_v I I I I #
coedge $-1 $119 $120 $121 $122 reversed $41 $-1 #
coedge $-1 $70 $43 $123 $124 reversed $27 $-1 #
coedge $-1 $43 $69 $119 $125 reversed $27 $-1 #
coedge $-1 $121 $126 $43 $72 forward $116 $-1 #
edge $-1 $127 -6.8999338946854678 $128 -4.5689538118931097 $71 $129 forward 7 unknown #
loop $-1 $-1 $78 $44 #
plane-surface $-1 1.3799883618048625e-006 -13.461919230618573 94.959292525913753 0.86602541151947299 0 0.49999998660252726 0.49999998660252726 0 -0.86602541151947299 forward_v I I I I #
loop $-1 $-1 $130 $29 #
coedge $-1 $76 $76 $77 $131 reversed $45 $-1 #
coedge $-1 $77 $77 $76 $131 forward $47 $-1 #
coedge $-1 $78 $78 $48 $79 forward $73 $-1 #
edge $-1 $132 0 $132 6.2831853071796004 $78 $133 forward 7 unknown #
face $-1 $134 $135 $12 $-1 $136 reversed single #
loop $-1 $-1 $137 $49 #
plane-surface $-1 -51.501815851313822 0 0 1 0 0 0 0 -1 forward_v I I I I #
coedge $-1 $138 $91 $139 $140 forward $50 $-1 #
coedge $-1 $141 $52 $138 $142 forward $33 $-1 #
coedge $-1 $52 $141 $143 $144 forward $33 $-1 #
coedge $-1 $94 $93 $52 $87 reversed $95 $-1 #
edge $-1 $145 -31.355327762109123 $146 31.355327762109123 $86 $147 forward 7 unknown #
coedge $-1 $54 $53 $148 $149 forward $21 $-1 #
coedge $-1 $150 $151 $53 $90 reversed $135 $-1 #
edge $-1 $97 -51.501815851313822 $152 51.501815851313822 $89 $153 forward 7 unknown #
coedge $-1 $83 $154 $54 $92 reversed $50 $-1 #
edge $-1 $155 -51.501815851313822 $96 51.501815851313822 $91 $156 forward 7 unknown #
coedge $-1 $86 $55 $154 $157 forward $95 $-1 #
coedge $-1 $55 $86 $150 $158 reversed $95 $-1 #
loop $-1 $-1 $93 $134 #
vertex $-1 $56 $159 #
vertex $-1 $56 $160 #
straight-curve $-1 51.501815851313822 0 9.7929060717146026 0 1 0 I I #
face $-1 $161 $111 $13 $-1 $162 reversed single #
loop $-1 $-1 $163 $57 #
plane-surface $-1 -50.001815851313822 -42.045139343557864 0 0 1 0 0 0 1 forward_v I I I I #
coedge $-1 $164 $165 $106 $166 forward $58 $-1 #
coedge $-1 $167 $60 $165 $168 forward $37 $-1 #
coedge $-1 $60 $167 $109 $169 forward $37 $-1 #
edge $-1 $112 48.501815851313822 $170 51.501815851313822 $60 $171 forward 7 unknown #
coedge $-1 $62 $61 $102 $166 reversed $24 $-1 #
coedge $-1 $172 $173 $61 $108 forward $174 $-1 #
edge $-1 $175 -51.501815851313822 $113 -48.501815851313822 $107 $176 forward 7 unknown #
coedge $-1 $177 $63 $104 $169 reversed $111 $-1 #
coedge $-1 $63 $177 $172 $178 reversed $111 $-1 #
loop $-1 $-1 $177 $99 #
vertex $-1 $105 $179 #
vertex $-1 $178 $180 #
straight-curve $-1 -48.501815851313822 -31.355327762109123 0 0 0 -1 I I #
face $-1 $-1 $181 $14 $-1 $182 reversed single #
loop $-1 $-1 $71 $65 #
plane-surface $-1 0 0 9.7929060717146026 0 0 1 1 0 0 forward_v I I I I #
coedge $-1 $183 $184 $185 $186 reversed $66 $-1 #
coedge $-1 $187 $68 $70 $125 forward $41 $-1 #
coedge $-1 $68 $187 $183 $188 forward $41 $-1 #
coedge $-1 $185 $71 $68 $122 forward $116 $-1 #
edge $-1 $128 -0.47263733473252856 $189 13.934556565351103 $121 $190 forward 7 unknown #
coedge $-1 $191 $192 $69 $124 forward $181 $-1 #
edge $-1 $193 -67.475023505974178 $127 -63.437647426905009 $123 $194 forward 7 unknown #
edge $-1 $128 98.341671412125933 $193 103.00363170262762 $70 $195 forward 7 unknown #
coedge $-1 $71 $185 $191 $196 forward $116 $-1 #
vertex $-1 $124 $197 #
vertex $-1 $72 $198 #
straight-curve $-1 44.601881956628354 -6.258322280576758 9.7929060717145973 -1 0 0 I I #
coedge $-1 $130 $130 $-1 $199 reversed $75 $-1 #
edge $-1 $200 0 $200 6.2831853071796004 $76 $201 forward 7 unknown #
vertex $-1 $79 $202 #
ellipse-curve $-1 50.336325809917639 -13.461919230618573 7.7742180321800154 0.86602541151947299 0 0.49999998660252726 0.49999998660252726 0 -0.86602541151947299 1 I I #
face $-1 $-1 $95 $12 $-1 $203 reversed single #
loop $-1 $-1 $150 $80 #
plane-surface $-1 0 31.355327762109123 0 0 -1 0 0 0 -1 forward_v I I I I #
coedge $-1 $204 $148 $151 $205 forward $81 $-1 #
coedge $-1 $154 $83 $84 $142 reversed $50 $-1 #
coedge $-1 $148 $204 $83 $140 reversed $81 $-1 #
edge $-1 $155 -9.7929060717146026 $206 9.7929060717146026 $139 $207 forward 7 unknown #
coedge $-1 $85 $84 $204 $208 forward $33 $-1 #
edge $-1 $146 -51.501815851313822 $206 51.501815851313822 $138 $209 forward 7 unknown #
coedge $-1 $151 $150 $85 $144 reversed $135 $-1 #
edge $-1 $210 -51.501815851313822 $145 51.501815851313822 $143 $211 forward 7 unknown #
vertex $-1 $87 $212 #
vertex $-1 $157 $213 #
straight-curve $-1 51.501815851313822 0 -9.7929060717146026 0 -1 0 I I #
coedge $-1 $137 $139 $88 $149 reversed $81 $-1 #
edge $-1 $152 -31.355327762109123 $155 31.355327762109123 $148 $214 forward 7 unknown #
coedge $-1 $143 $89 $94 $158 forward $135 $-1 #
coedge $-1 $89 $143 $137 $205 reversed $135 $-1 #
vertex $-1 $90 $215 #
straight-curve $-1 0 31.355327762109123 9.7929060717146026 -1 0 0 I I #
coedge $-1 $91 $138 $93 $157 reversed $50 $-1 #
vertex $-1 $149 $216 #
straight-curve $-1 0 -31.355327762109123 9.7929060717146026 1 0 0 I I #
edge $-1 $96 -9.7929060717146026 $146 9.7929060717146026 $93 $217 forward 7 unknown #
edge $-1 $97 -9.7929060717146026 $145 9.7929060717146026 $94 $218 forward 7 unknown #
point $-1 51.501815851313822 -31.355327762109123 9.7929060717146026 #
point $-1 51.501815851313822 31.355327762109123 9.7929060717146026 #
face $-1 $-1 $174 $13 $-1 $219 reversed single #
plane-surface $-1 -48.501815851313822 -36.700233552833495 0 -1 0 0 0 0 1 forward_v I I I I #
coedge $-1 $220 $221 $222 $223 forward $100 $-1 #
coedge $-1 $222 $102 $173 $224 reversed $58 $-1 #
coedge $-1 $102 $222 $103 $168 reversed $58 $-1 #
edge $-1 $170 -9.7929060717146026 $175 9.7929060717146026 $102 $225 forward 7 unknown #
coedge $-1 $104 $103 $221 $226 forward $37 $-1 #
edge $-1 $170 31.355327762109123 $227 42.045139343557864 $165 $228 forward 7 unknown #
edge $-1 $229 -5.3449057907243684 $112 5.3449057907243684 $109 $230 forward 7 unknown #
vertex $-1 $168 $231 #
straight-curve $-1 0 -31.355327762109123 9.7929060717146026 -1 0 0 I I #
coedge $-1 $232 $107 $110 $178 forward $174 $-1 #
coedge $-1 $107 $232 $164 $224 forward $174 $-1 #
loop $-1 $-1 $107 $161 #
vertex $-1 $166 $233 #
straight-curve $-1 0 -31.355327762109123 -9.7929060717146026 1 0 0 I I #
coedge $-1 $110 $109 $234 $235 forward $111 $-1 #
edge $-1 $113 -5.3449057907243684 $236 5.3449057907243684 $110 $237 forward 7 unknown #
point $-1 -48.501815851313822 -31.355327762109127 9.7929060717146026 #
point $-1 -48.501815851313822 -31.355327762109127 -9.7929060717146026 #
loop $-1 $-1 $123 $115 #
plane-surface $-1 51.501815851313822 0 0 -1 0 0 0 0 1 forward_v I I I I #
coedge $-1 $184 $118 $120 $188 reversed $66 $-1 #
coedge $-1 $118 $183 $238 $239 reversed $66 $-1 #
coedge $-1 $126 $121 $118 $186 forward $116 $-1 #
edge $-1 $189 4.5689538118931097 $240 6.8999338946854678 $185 $241 forward 7 unknown #
coedge $-1 $120 $119 $192 $242 reversed $41 $-1 #
edge $-1 $243 -103.00363170262762 $189 -98.341671412125933 $183 $244 forward 7 unknown #
vertex $-1 $122 $245 #
straight-curve $-1 49.170835768521457 -6.7309596153092865 9.7929060717146044 0 -1 0 I I #
coedge $-1 $238 $123 $126 $196 reversed $181 $-1 #
coedge $-1 $123 $238 $187 $242 forward $181 $-1 #
vertex $-1 $124 $246 #
straight-curve $-1 51.501815851313822 -6.258322280576758 73.230553498619614 0 0 1 I I #
straight-curve $-1 1.3799883618048625e-006 -6.258322280576758 94.959292525913753 0.49999998660252726 0 -0.86602541151947299 I I #
edge $-1 $240 -20.66551618066039 $127 -6.258322280576758 $191 $247 forward 7 unknown #
point $-1 51.501815851313822 -6.258322280576758 9.7929060717146026 #
point $-1 49.170835768521464 -6.258322280576758 9.7929060717145973 #
edge $-1 $248 1 $248 0 $130 $-1 forward 7 unknown #
vertex $-1 $131 $249 #
ellipse-curve $-1 49.109454274447984 -13.461919230618573 7.0658834462219025 0.86602541151947299 0 0.49999998660252726 0.49999998660252726 0 -0.86602541151947299 1 I I #
point $-1 50.836325796520157 -13.461919230618573 6.9081926206605377 #
plane-surface $-1 51.501815851313822 0 0 -1 0 0 0 0 1 forward_v I I I I #
coedge $-1 $139 $137 $141 $208 reversed $81 $-1 #
edge $-1 $152 -9.7929060717146026 $210 9.7929060717146026 $151 $250 forward 7 unknown #
vertex $-1 $208 $251 #
straight-curve $-1 -51.501815851313822 -31.355327762109123 0 0 0 -1 I I #
edge $-1 $206 -31.355327762109123 $210 31.355327762109123 $204 $252 forward 7 unknown #
straight-curve $-1 0 -31.355327762109123 -9.7929060717146026 -1 0 0 I I #
vertex $-1 $144 $253 #
straight-curve $-1 0 31.355327762109123 -9.7929060717146026 1 0 0 I I #
point $-1 51.501815851313822 31.355327762109123 -9.7929060717146026 #
point $-1 51.501815851313822 -31.355327762109123 -9.7929060717146026 #
straight-curve $-1 -51.501815851313822 0 9.7929060717146026 0 -1 0 I I #
point $-1 -51.501815851313822 31.355327762109123 9.7929060717146026 #
point $-1 -51.501815851313822 -31.355327762109123 9.7929060717146026 #
straight-curve $-1 51.501815851313822 -31.355327762109123 0 0 0 -1 I I #
straight-curve $-1 51.501815851313822 31.355327762109123 0 0 0 -1 I I #
plane-surface $-1 0 0 -9.7929060717146026 0 0 1 1 0 0 forward_v I I I I #
coedge $-1 $234 $163 $232 $254 reversed $100 $-1 #
coedge $-1 $163 $234 $167 $226 reversed $100 $-1 #
coedge $-1 $165 $164 $163 $223 reversed $58 $-1 #
edge $-1 $227 -9.7929060717146026 $255 9.7929060717146026 $222 $256 forward 7 unknown #
edge $-1 $255 -42.045139343557864 $175 -31.355327762109123 $164 $257 forward 7 unknown #
straight-curve $-1 -51.501815851313822 -31.355327762109123 0 0 0 -1 I I #
edge $-1 $227 -1.5 $229 1.5 $221 $258 forward 7 unknown #
vertex $-1 $168 $259 #
straight-curve $-1 -51.501815851313822 0 9.7929060717146026 0 -1 0 I I #
vertex $-1 $169 $260 #
straight-curve $-1 -48.501815851313822 -36.700233552833495 9.7929060717146026 0 1 0 I I #
point $-1 -51.501815851313822 -31.355327762109123 9.7929060717146026 #
coedge $-1 $173 $172 $220 $254 forward $174 $-1 #
point $-1 -51.501815851313822 -31.355327762109123 -9.7929060717146026 #
coedge $-1 $221 $220 $177 $235 reversed $100 $-1 #
edge $-1 $229 -9.7929060717146026 $236 9.7929060717146026 $177 $261 forward 7 unknown #
vertex $-1 $235 $262 #
straight-curve $-1 -48.501815851313822 -36.700233552833495 -9.7929060717146026 0 -1 0 I I #
coedge $-1 $192 $191 $184 $239 forward $181 $-1 #
edge $-1 $240 63.437647426905009 $243 67.475023505974178 $238 $263 forward 7 unknown #
vertex $-1 $196 $264 #
straight-curve $-1 44.601881956628354 -20.66551618066039 9.7929060717145973 1 0 0 I I #
edge $-1 $243 -13.934556565351103 $193 0.47263733473252856 $192 $265 forward 7 unknown #
vertex $-1 $242 $266 #
straight-curve $-1 1.3799883618048625e-006 -20.66551618066039 94.959292525913753 -0.49999998660252726 0 0.86602541151947299 I I #
point $-1 49.170835768521464 -20.66551618066039 9.7929060717145973 #
point $-1 51.501815851313822 -6.258322280576758 5.7555299926454353 #
straight-curve $-1 51.501815851313822 0 9.7929060717146026 0 1 0 I I #
vertex $-1 $199 $267 #
point $-1 49.609454261050509 -13.461919230618573 6.1998580347024301 #
straight-curve $-1 -51.501815851313822 31.355327762109123 0 0 0 -1 I I #
point $-1 -51.501815851313822 -31.355327762109123 -9.7929060717146026 #
straight-curve $-1 -51.501815851313822 0 -9.7929060717146026 0 1 0 I I #
point $-1 -51.501815851313822 31.355327762109123 -9.7929060717146026 #
edge $-1 $236 -1.5 $255 1.5 $220 $268 forward 7 unknown #
vertex $-1 $224 $269 #
straight-curve $-1 -51.501815851313822 -42.045139343557864 0 0 0 -1 I I #
straight-curve $-1 -51.501815851313822 0 -9.7929060717146026 0 1 0 I I #
straight-curve $-1 -50.001815851313822 -42.045139343557864 9.7929060717146026 1 0 0 I I #
point $-1 -51.501815851313822 -42.045139343557864 9.7929060717146026 #
point $-1 -48.501815851313822 -42.045139343557864 9.7929060717146026 #
straight-curve $-1 -48.501815851313822 -42.045139343557864 0 0 0 -1 I I #
point $-1 -48.501815851313822 -42.045139343557864 -9.7929060717146026 #
straight-curve $-1 51.501815851313822 -20.66551618066039 73.230553498619614 0 0 -1 I I #
point $-1 51.501815851313822 -20.66551618066039 9.7929060717146026 #
straight-curve $-1 51.501815851313822 -6.7309596153092865 5.7555299926454424 0 1 0 I I #
point $-1 51.501815851313822 -20.66551618066039 5.7555299926454353 #
point $-1 48.243428862928511 -13.461919230618573 6.5658834596193758 #
straight-curve $-1 -50.001815851313822 -42.045139343557864 -9.7929060717146026 -1 0 0 I I #
point $-1 -51.501815851313822 -42.045139343557864 -9.7929060717146026 #
End-of-ACIS-data 