500 0 14 0           
7 Unknown 11 ACIS 5.0 NT 24 Fri Mar 26 20:25:23 1999 
-1 9.9999999999999995e-007 1e-010 
body $-1 $14 $-1 $15 #
body $-1 $16 $-1 $17 #
body $-1 $18 $-1 $19 #
body $-1 $20 $-1 $21 #
body $-1 $22 $-1 $23 #
body $-1 $24 $-1 $25 #
body $-1 $26 $-1 $27 #
body $-1 $28 $-1 $29 #
body $-1 $30 $-1 $31 #
body $-1 $32 $-1 $33 #
body $-1 $34 $-1 $35 #
body $-1 $36 $-1 $37 #
body $-1 $38 $-1 $39 #
body $-1 $40 $-1 $41 #
lump $-1 $-1 $42 $0 #
transform $-1 1 0 0 0 1 0 0 0 1 41.042512283700063 24.678991524232121 9.6421069183133046 1 rotate no_reflect no_shear #
lump $-1 $-1 $43 $1 #
transform $-1 1 0 0 0 1 0 0 0 1 41.042512283700063 24.678991524232121 9.6421069183133046 1 rotate no_reflect no_shear #
lump $-1 $-1 $44 $2 #
transform $-1 1 0 0 0 1 0 0 0 1 41.042512283700063 24.678991524232121 9.6421069183133046 1 rotate no_reflect no_shear #
lump $-1 $-1 $45 $3 #
transform $-1 1 0 0 0 1 0 0 0 1 41.042512283700063 24.678991524232121 9.6421069183133046 1 rotate no_reflect no_shear #
lump $-1 $-1 $46 $4 #
transform $-1 1 0 0 0 1 0 0 0 1 41.042512283700063 24.678991524232121 9.6421069183133046 1 rotate no_reflect no_shear #
lump $-1 $-1 $47 $5 #
transform $-1 1 0 0 0 1 0 0 0 1 41.042512283700063 24.678991524232121 9.6421069183133046 1 rotate no_reflect no_shear #
lump $-1 $-1 $48 $6 #
transform $-1 1 0 0 0 1 0 0 0 1 41.042512283700063 24.678991524232121 9.6421069183133046 1 rotate no_reflect no_shear #
lump $-1 $-1 $49 $7 #
transform $-1 1 0 0 0 1 0 0 0 1 41.042512283700063 24.678991524232121 9.6421069183133046 1 rotate no_reflect no_shear #
lump $-1 $-1 $50 $8 #
transform $-1 1 0 0 0 1 0 0 0 1 41.042512283700063 24.678991524232121 9.6421069183133046 1 rotate no_reflect no_shear #
lump $-1 $-1 $51 $9 #
transform $-1 1 0 0 0 1 0 0 0 1 41.042512283700063 24.678991524232121 9.6421069183133046 1 rotate no_reflect no_shear #
lump $-1 $-1 $52 $10 #
transform $-1 1 0 0 0 1 0 0 0 1 41.042512283700063 24.678991524232121 9.6421069183133046 1 rotate no_reflect no_shear #
lump $-1 $-1 $53 $11 #
transform $-1 1 0 0 0 1 0 0 0 1 41.042512283700063 24.678991524232121 9.6421069183133046 1 rotate no_reflect no_shear #
lump $-1 $-1 $54 $12 #
transform $-1 1 0 0 0 1 0 0 0 1 41.042512283700063 24.678991524232121 9.6421069183133046 1 rotate no_reflect no_shear #
lump $-1 $-1 $55 $13 #
transform $-1 1 0 0 0 1 0 0 0 1 41.042512283700063 24.678991524232121 9.6421069183133046 1 rotate no_reflect no_shear #
shell $-1 $-1 $-1 $56 $-1 $14 #
shell $-1 $-1 $-1 $57 $-1 $16 #
shell $-1 $-1 $-1 $58 $-1 $18 #
shell $-1 $-1 $-1 $59 $-1 $20 #
shell $-1 $-1 $-1 $60 $-1 $22 #
shell $-1 $-1 $-1 $61 $-1 $24 #
shell $-1 $-1 $-1 $62 $-1 $26 #
shell $-1 $-1 $-1 $63 $-1 $28 #
shell $-1 $-1 $-1 $64 $-1 $30 #
shell $-1 $-1 $-1 $65 $-1 $32 #
shell $-1 $-1 $-1 $66 $-1 $34 #
shell $-1 $-1 $-1 $67 $-1 $36 #
shell $-1 $-1 $-1 $68 $-1 $38 #
shell $-1 $-1 $-1 $69 $-1 $40 #
face $-1 $70 $71 $42 $-1 $72 forward single #
face $-1 $73 $74 $43 $-1 $75 forward single #
face $-1 $76 $77 $44 $-1 $78 forward single #
face $-1 $79 $80 $45 $-1 $81 reversed single #
face $-1 $82 $83 $46 $-1 $84 forward single #
face $-1 $85 $86 $47 $-1 $87 forward single #
face $-1 $88 $89 $48 $-1 $90 forward single #
face $-1 $91 $92 $49 $-1 $93 reversed single #
face $-1 $94 $95 $50 $-1 $96 forward single #
face $-1 $97 $98 $51 $-1 $99 forward single #
face $-1 $100 $101 $52 $-1 $102 forward single #
face $-1 $103 $104 $53 $-1 $105 reversed single #
face $-1 $106 $107 $54 $-1 $108 forward single #
face $-1 $109 $110 $55 $-1 $111 forward single #
face $-1 $112 $113 $42 $-1 $114 reversed single #
loop $-1 $-1 $115 $56 #
plane-surface $-1 0 0 9.6421069183133046 0 0 1 1 0 0 forward_v I I I I #
face $-1 $116 $117 $43 $-1 $118 reversed single #
loop $-1 $-1 $119 $57 #
plane-surface $-1 -35.35827441364092 0 7.6701302190813196 0 0 1 1 0 0 forward_v I I I I #
face $-1 $120 $121 $44 $-1 $122 reversed single #
loop $-1 $-1 $123 $58 #
plane-surface $-1 35.358274413640913 0 7.6701302190813196 0 0 1 1 0 0 forward_v I I I I #
face $-1 $124 $125 $45 $-1 $126 reversed single #
loop $-1 $-1 $127 $59 #
plane-surface $-1 -13.467460685844975 55.83306968235317 96.695402497346308 -1 0 0 0 0.7660444514056185 0.64278759981090561 forward_v I I I I #
face $-1 $128 $129 $46 $-1 $130 forward single #
loop $-1 $131 $132 $60 #
cone-surface $-1 -22.924944457521359 21.710338830963057 6.6302550605542869 0 -0.7660444514056185 -0.64278759981090561 1 0 0 1 I I 0 1 1 forward I I I I #
face $-1 $133 $134 $47 $-1 $135 forward single #
loop $-1 $136 $137 $61 #
cone-surface $-1 -19.378388043142717 21.710338830963057 6.6302550605542869 0 -0.7660444514056185 -0.64278759981090561 1 0 0 1 I I 0 1 1 forward I I I I #
face $-1 $138 $139 $48 $-1 $140 forward single #
loop $-1 $141 $142 $62 #
cone-surface $-1 -15.831831628764075 21.710338830963057 6.6302550605542869 0 -0.7660444514056185 -0.64278759981090561 1 0 0 1 I I 0 1 1 forward I I I I #
face $-1 $143 $144 $49 $-1 $145 reversed single #
loop $-1 $-1 $146 $63 #
plane-surface $-1 25.289315400440451 55.83306968235317 96.695402497346308 -1 0 0 0 0.7660444514056185 0.64278759981090561 forward_v I I I I #
face $-1 $147 $148 $50 $-1 $149 forward single #
loop $-1 $150 $151 $64 #
cone-surface $-1 15.831831628764064 21.710338830963057 6.6302550605542869 0 -0.7660444514056185 -0.64278759981090561 1 0 0 1 I I 0 1 1 forward I I I I #
face $-1 $152 $153 $51 $-1 $154 forward single #
loop $-1 $155 $156 $65 #
cone-surface $-1 19.378388043142706 21.710338830963057 6.6302550605542869 0 -0.7660444514056185 -0.64278759981090561 1 0 0 1 I I 0 1 1 forward I I I I #
face $-1 $157 $158 $52 $-1 $159 forward single #
loop $-1 $160 $161 $66 #
cone-surface $-1 22.924944457521349 21.710338830963057 6.6302550605542869 0 -0.7660444514056185 -0.64278759981090561 1 0 0 1 I I 0 1 1 forward I I I I #
face $-1 $162 $163 $53 $-1 $164 reversed single #
loop $-1 $-1 $165 $67 #
plane-surface $-1 10.532531684921224 -66.955905118753421 74.905091381014458 1 0 0 0 0.51503808176128008 -0.85716729658548041 forward_v I I I I #
face $-1 $166 $167 $54 $-1 $168 forward single #
loop $-1 $169 $170 $68 #
cone-surface $-1 14.392589355264029 -20.115077077435966 6.5574231429934215 0 0.51503808176128008 -0.85716729658548041 0.5 0 0 1 I I 0 1 0.5 forward I I I I #
face $-1 $171 $172 $55 $-1 $173 forward single #
loop $-1 $174 $175 $69 #
cone-surface $-1 20.182675860778239 -20.115077077435966 6.5574231429934215 0 0.51503808176128008 -0.85716729658548041 0.5 0 0 1 I I 0 1 0.5 forward I I I I #
face $-1 $176 $177 $42 $-1 $178 reversed single #
loop $-1 $-1 $179 $70 #
plane-surface $-1 0 0 -9.6421069183133046 0 0 1 1 0 0 forward_v I I I I #
coedge $-1 $180 $181 $182 $183 forward $71 $-1 #
face $-1 $184 $185 $43 $-1 $186 reversed single #
loop $-1 $-1 $187 $73 #
plane-surface $-1 -35.35827441364092 0 4.6701302190813214 0 0 1 1 0 0 forward_v I I I I #
coedge $-1 $188 $189 $190 $191 forward $74 $-1 #
face $-1 $192 $193 $44 $-1 $194 reversed single #
loop $-1 $-1 $195 $76 #
plane-surface $-1 35.358274413640913 0 4.6701302190813214 0 0 1 1 0 0 forward_v I I I I #
coedge $-1 $196 $197 $198 $199 reversed $77 $-1 #
face $-1 $200 $201 $45 $-1 $202 reversed single #
loop $-1 $-1 $203 $79 #
plane-surface $-1 -19.378388043142714 -7.047707930997575 43.932166575247962 0 0.7660444514056185 0.64278759981090561 1 0 0 forward_v I I I I #
coedge $-1 $204 $205 $206 $207 reversed $80 $-1 #
face $-1 $-1 $208 $46 $-1 $209 forward single #
loop $-1 $210 $211 $82 #
cone-surface $-1 -22.924944457521359 19.835625810668528 5.0571840978467879 0 -0.7660444514056185 -0.64278759981090561 0.5 0 0 1 I I -0.70710678118654746 0.70710678118654746 0.5 forward I I I I #
loop $-1 $-1 $212 $60 #
coedge $-1 $132 $132 $213 $214 reversed $83 $-1 #
face $-1 $-1 $215 $47 $-1 $216 forward single #
loop $-1 $217 $218 $85 #
cone-surface $-1 -19.378388043142717 19.835625810668528 5.0571840978467879 0 -0.7660444514056185 -0.64278759981090561 0.5 0 0 1 I I -0.70710678118654746 0.70710678118654746 0.5 forward I I I I #
loop $-1 $-1 $219 $61 #
coedge $-1 $137 $137 $220 $221 reversed $86 $-1 #
face $-1 $-1 $222 $48 $-1 $223 forward single #
loop $-1 $224 $225 $88 #
cone-surface $-1 -15.831831628764075 19.835625810668528 5.0571840978467879 0 -0.7660444514056185 -0.64278759981090561 0.5 0 0 1 I I -0.70710678118654746 0.70710678118654746 0.5 forward I I I I #
loop $-1 $-1 $226 $62 #
coedge $-1 $142 $142 $227 $228 reversed $89 $-1 #
face $-1 $229 $230 $49 $-1 $231 reversed single #
loop $-1 $-1 $232 $91 #
plane-surface $-1 19.378388043142714 -7.047707930997575 43.932166575247962 0 0.7660444514056185 0.64278759981090561 1 0 0 forward_v I I I I #
coedge $-1 $233 $234 $235 $236 reversed $92 $-1 #
face $-1 $-1 $237 $50 $-1 $238 forward single #
loop $-1 $239 $240 $94 #
cone-surface $-1 15.831831628764064 19.835625810668528 5.0571840978467879 0 -0.7660444514056185 -0.64278759981090561 0.5 0 0 1 I I -0.70710678118654746 0.70710678118654746 0.5 forward I I I I #
loop $-1 $-1 $241 $64 #
coedge $-1 $151 $151 $242 $243 reversed $95 $-1 #
face $-1 $-1 $244 $51 $-1 $245 forward single #
loop $-1 $246 $247 $97 #
cone-surface $-1 19.378388043142706 19.835625810668528 5.0571840978467879 0 -0.7660444514056185 -0.64278759981090561 0.5 0 0 1 I I -0.70710678118654746 0.70710678118654746 0.5 forward I I I I #
loop $-1 $-1 $248 $65 #
coedge $-1 $156 $156 $249 $250 reversed $98 $-1 #
face $-1 $-1 $251 $52 $-1 $252 forward single #
loop $-1 $253 $254 $100 #
cone-surface $-1 22.924944457521349 19.835625810668528 5.0571840978467879 0 -0.7660444514056185 -0.64278759981090561 0.5 0 0 1 I I -0.70710678118654746 0.70710678118654746 0.5 forward I I I I #
loop $-1 $-1 $255 $66 #
coedge $-1 $161 $161 $256 $257 reversed $101 $-1 #
face $-1 $258 $259 $53 $-1 $260 reversed single #
loop $-1 $-1 $261 $103 #
plane-surface $-1 17.287632608021134 -24.67899152423211 4.5444927824233474 0 -0.51503808176128008 0.85716729658548041 1 0 0 forward_v I I I I #
coedge $-1 $262 $263 $264 $265 reversed $104 $-1 #
face $-1 $-1 $266 $54 $-1 $267 forward single #
loop $-1 $268 $269 $106 #
cone-surface $-1 14.392589355264029 -19.664330341050341 5.8072546114721444 0 0.51503808176128008 -0.85716729658548041 0.25 0 0 1 I I -0.70710678118654746 0.70710678118654746 0.25 forward I I I I #
loop $-1 $-1 $270 $68 #
coedge $-1 $170 $170 $271 $272 reversed $107 $-1 #
face $-1 $-1 $273 $55 $-1 $274 forward single #
loop $-1 $275 $276 $109 #
cone-surface $-1 20.182675860778239 -19.664330341050341 5.8072546114721444 0 0.51503808176128008 -0.85716729658548041 0.25 0 0 1 I I -0.70710678118654746 0.70710678118654746 0.25 forward I I I I #
loop $-1 $-1 $277 $69 #
coedge $-1 $175 $175 $278 $279 reversed $110 $-1 #
face $-1 $280 $281 $42 $-1 $282 reversed single #
loop $-1 $-1 $283 $112 #
plane-surface $-1 0 -24.678991524232121 0 0 1 0 0 0 1 forward_v I I I I #
coedge $-1 $284 $285 $286 $287 forward $113 $-1 #
coedge $-1 $288 $115 $289 $290 forward $71 $-1 #
coedge $-1 $115 $288 $291 $292 forward $71 $-1 #
coedge $-1 $293 $294 $115 $183 reversed $295 $-1 #
edge $-1 $296 -24.678991524232121 $297 24.678991524232121 $182 $298 forward 7 unknown #
face $-1 $299 $300 $43 $-1 $301 reversed single #
loop $-1 $-1 $302 $116 #
plane-surface $-1 -29.674036543581778 0 6.1701302190813205 -1 0 0 0 0 1 forward_v I I I I #
coedge $-1 $303 $304 $305 $306 forward $117 $-1 #
coedge $-1 $307 $119 $308 $309 reversed $74 $-1 #
coedge $-1 $119 $307 $310 $311 reversed $74 $-1 #
coedge $-1 $302 $312 $119 $191 reversed $185 $-1 #
edge $-1 $313 -24.678991524232121 $314 24.678991524232121 $190 $315 forward 7 unknown #
face $-1 $316 $317 $44 $-1 $318 reversed single #
loop $-1 $-1 $319 $120 #
plane-surface $-1 29.674036543581771 0 6.1701302190813205 1 0 0 0 0 -1 forward_v I I I I #
coedge $-1 $320 $321 $322 $323 reversed $121 $-1 #
coedge $-1 $324 $123 $325 $326 reversed $77 $-1 #
coedge $-1 $123 $324 $327 $328 reversed $77 $-1 #
coedge $-1 $329 $330 $123 $199 forward $331 $-1 #
edge $-1 $332 -24.678991524232121 $333 24.678991524232121 $198 $334 forward 7 unknown #
face $-1 $335 $336 $45 $-1 $337 reversed single #
loop $-1 $-1 $338 $124 #
plane-surface $-1 -25.289315400440451 55.83306968235317 96.695402497346308 1 0 0 0 -0.7660444514056185 -0.64278759981090561 forward_v I I I I #
coedge $-1 $339 $340 $341 $342 reversed $125 $-1 #
coedge $-1 $205 $127 $343 $344 reversed $80 $-1 #
coedge $-1 $127 $204 $339 $345 reversed $80 $-1 #
coedge $-1 $341 $346 $127 $207 forward $336 $-1 #
edge $-1 $347 38.705594330359851 $348 42.225943720273797 $206 $349 forward 7 unknown #
loop $-1 $-1 $213 $128 #
plane-surface $-1 -19.378388043142714 -7.047707930997575 43.932166575247962 0 0.7660444514056185 0.64278759981090561 1 0 0 forward_v I I I I #
loop $-1 $-1 $350 $82 #
coedge $-1 $211 $211 $212 $351 reversed $129 $-1 #
coedge $-1 $212 $212 $211 $351 forward $131 $-1 #
coedge $-1 $213 $213 $132 $214 forward $208 $-1 #
edge $-1 $352 2.5261281460146181e-015 $352 6.2831853071796031 $213 $353 forward 7 unknown #
loop $-1 $-1 $220 $133 #
plane-surface $-1 -19.378388043142714 -7.047707930997575 43.932166575247962 0 0.7660444514056185 0.64278759981090561 1 0 0 forward_v I I I I #
loop $-1 $-1 $354 $85 #
coedge $-1 $218 $218 $219 $355 reversed $134 $-1 #
coedge $-1 $219 $219 $218 $355 forward $136 $-1 #
coedge $-1 $220 $220 $137 $221 forward $215 $-1 #
edge $-1 $356 2.5261281460146181e-015 $356 6.2831853071796031 $220 $357 forward 7 unknown #
loop $-1 $-1 $227 $138 #
plane-surface $-1 -19.378388043142714 -7.047707930997575 43.932166575247962 0 0.7660444514056185 0.64278759981090561 1 0 0 forward_v I I I I #
loop $-1 $-1 $358 $88 #
coedge $-1 $225 $225 $226 $359 reversed $139 $-1 #
coedge $-1 $226 $226 $225 $359 forward $141 $-1 #
coedge $-1 $227 $227 $142 $228 forward $222 $-1 #
edge $-1 $360 2.5261281460146181e-015 $360 6.2831853071796031 $227 $361 forward 7 unknown #
face $-1 $362 $363 $49 $-1 $364 forward single #
loop $-1 $-1 $365 $143 #
plane-surface $-1 13.467460685844975 55.83306968235317 96.695402497346308 1 0 0 0 -0.7660444514056185 -0.64278759981090561 forward_v I I I I #
coedge $-1 $366 $367 $368 $369 reversed $144 $-1 #
coedge $-1 $234 $146 $370 $371 reversed $92 $-1 #
coedge $-1 $146 $233 $366 $372 reversed $92 $-1 #
coedge $-1 $368 $373 $146 $236 forward $374 $-1 #
edge $-1 $375 38.705594330359851 $376 42.225943720273797 $235 $377 forward 7 unknown #
loop $-1 $-1 $242 $147 #
plane-surface $-1 19.378388043142714 -7.047707930997575 43.932166575247962 0 0.7660444514056185 0.64278759981090561 1 0 0 forward_v I I I I #
loop $-1 $-1 $378 $94 #
coedge $-1 $240 $240 $241 $379 reversed $148 $-1 #
coedge $-1 $241 $241 $240 $379 forward $150 $-1 #
coedge $-1 $242 $242 $151 $243 forward $237 $-1 #
edge $-1 $380 2.5261281460146181e-015 $380 6.2831853071796031 $242 $381 forward 7 unknown #
loop $-1 $-1 $249 $152 #
plane-surface $-1 19.378388043142714 -7.047707930997575 43.932166575247962 0 0.7660444514056185 0.64278759981090561 1 0 0 forward_v I I I I #
loop $-1 $-1 $382 $97 #
coedge $-1 $247 $247 $248 $383 reversed $153 $-1 #
coedge $-1 $248 $248 $247 $383 forward $155 $-1 #
coedge $-1 $249 $249 $156 $250 forward $244 $-1 #
edge $-1 $384 2.5261281460146181e-015 $384 6.2831853071796031 $249 $385 forward 7 unknown #
loop $-1 $-1 $256 $157 #
plane-surface $-1 19.378388043142714 -7.047707930997575 43.932166575247962 0 0.7660444514056185 0.64278759981090561 1 0 0 forward_v I I I I #
loop $-1 $-1 $386 $100 #
coedge $-1 $254 $254 $255 $387 reversed $158 $-1 #
coedge $-1 $255 $255 $254 $387 forward $160 $-1 #
coedge $-1 $256 $256 $161 $257 forward $251 $-1 #
edge $-1 $388 2.5261281460146181e-015 $388 6.2831853071796031 $256 $389 forward 7 unknown #
face $-1 $390 $391 $53 $-1 $392 forward single #
loop $-1 $-1 $393 $162 #
plane-surface $-1 24.042733531121044 -66.955905118753421 74.905091381014458 -1 0 0 0 -0.51503808176128008 0.85716729658548041 forward_v I I I I #
coedge $-1 $394 $395 $396 $397 reversed $163 $-1 #
coedge $-1 $263 $165 $398 $399 reversed $104 $-1 #
coedge $-1 $165 $262 $394 $400 reversed $104 $-1 #
coedge $-1 $396 $401 $165 $265 forward $402 $-1 #
edge $-1 $403 27.810438772193926 $404 32.908052908083889 $264 $405 forward 7 unknown #
loop $-1 $-1 $271 $166 #
plane-surface $-1 17.287632608021134 -24.67899152423211 4.5444927824233474 0 -0.51503808176128008 0.85716729658548041 1 0 0 forward_v I I I I #
loop $-1 $-1 $406 $106 #
coedge $-1 $269 $269 $270 $407 reversed $167 $-1 #
coedge $-1 $270 $270 $269 $407 forward $169 $-1 #
coedge $-1 $271 $271 $170 $272 forward $266 $-1 #
edge $-1 $408 -3.9470571466046113e-015 $408 6.2831853071795969 $271 $409 forward 7 unknown #
loop $-1 $-1 $278 $171 #
plane-surface $-1 17.287632608021134 -24.67899152423211 4.5444927824233474 0 -0.51503808176128008 0.85716729658548041 1 0 0 forward_v I I I I #
loop $-1 $-1 $410 $109 #
coedge $-1 $276 $276 $277 $411 reversed $172 $-1 #
coedge $-1 $277 $277 $276 $411 forward $174 $-1 #
coedge $-1 $278 $278 $175 $279 forward $273 $-1 #
edge $-1 $412 -3.9470571466046113e-015 $412 6.2831853071795969 $278 $413 forward 7 unknown #
face $-1 $414 $415 $42 $-1 $416 reversed single #
loop $-1 $-1 $417 $176 #
plane-surface $-1 -41.042512283700063 0 0 1 0 0 0 0 -1 forward_v I I I I #
coedge $-1 $418 $291 $419 $420 forward $177 $-1 #
coedge $-1 $421 $179 $418 $422 forward $113 $-1 #
coedge $-1 $179 $421 $423 $424 forward $113 $-1 #
coedge $-1 $294 $293 $179 $287 reversed $295 $-1 #
edge $-1 $425 -24.678991524232121 $426 24.678991524232121 $286 $427 forward 7 unknown #
coedge $-1 $181 $180 $428 $429 forward $71 $-1 #
coedge $-1 $430 $431 $180 $290 reversed $415 $-1 #
edge $-1 $297 -41.042512283700063 $432 41.042512283700063 $289 $433 forward 7 unknown #
coedge $-1 $283 $434 $181 $292 reversed $177 $-1 #
edge $-1 $435 -41.042512283700063 $296 41.042512283700063 $291 $436 forward 7 unknown #
coedge $-1 $286 $182 $434 $437 forward $295 $-1 #
coedge $-1 $182 $286 $430 $438 reversed $295 $-1 #
loop $-1 $-1 $293 $414 #
vertex $-1 $183 $439 #
vertex $-1 $183 $440 #
straight-curve $-1 41.042512283700063 0 9.6421069183133046 0 1 0 I I #
face $-1 $441 $442 $43 $-1 $443 reversed single #
loop $-1 $-1 $444 $184 #
plane-surface $-1 0 -24.678991524232121 0 0 1 0 0 0 1 forward_v I I I I #
coedge $-1 $305 $190 $445 $446 reversed $185 $-1 #
coedge $-1 $447 $187 $444 $448 reversed $117 $-1 #
coedge $-1 $187 $447 $449 $450 reversed $117 $-1 #
coedge $-1 $312 $302 $187 $306 reversed $185 $-1 #
edge $-1 $451 -24.678991524232121 $452 24.678991524232121 $305 $453 forward 7 unknown #
coedge $-1 $189 $188 $454 $455 reversed $74 $-1 #
coedge $-1 $456 $457 $188 $309 forward $458 $-1 #
edge $-1 $459 -23.363375076879603 $314 -11.994899336761318 $308 $460 forward 7 unknown #
coedge $-1 $461 $445 $189 $311 forward $300 $-1 #
edge $-1 $313 11.994899336761318 $462 23.363375076879603 $310 $463 forward 7 unknown #
coedge $-1 $190 $305 $456 $464 reversed $185 $-1 #
vertex $-1 $311 $465 #
vertex $-1 $309 $466 #
straight-curve $-1 -29.674036543581778 0 7.6701302190813196 0 1 0 I I #
face $-1 $467 $468 $44 $-1 $469 reversed single #
loop $-1 $-1 $327 $192 #
plane-surface $-1 0 -24.678991524232121 0 0 1 0 0 0 1 forward_v I I I I #
coedge $-1 $470 $471 $472 $473 reversed $193 $-1 #
coedge $-1 $474 $195 $475 $476 reversed $121 $-1 #
coedge $-1 $195 $474 $477 $478 reversed $121 $-1 #
coedge $-1 $330 $329 $195 $323 forward $331 $-1 #
edge $-1 $479 -24.678991524232121 $480 24.678991524232121 $322 $481 forward 7 unknown #
coedge $-1 $197 $196 $471 $482 forward $77 $-1 #
coedge $-1 $483 $472 $196 $326 forward $468 $-1 #
edge $-1 $484 11.994899336761314 $332 23.363375076879599 $325 $485 forward 7 unknown #
coedge $-1 $486 $487 $197 $328 forward $317 $-1 #
edge $-1 $333 -23.363375076879599 $488 -11.994899336761314 $327 $489 forward 7 unknown #
coedge $-1 $322 $198 $487 $490 forward $331 $-1 #
coedge $-1 $198 $322 $483 $491 reversed $331 $-1 #
loop $-1 $-1 $198 $467 #
vertex $-1 $491 $492 #
vertex $-1 $490 $493 #
straight-curve $-1 41.042512283700063 0 7.6701302190813196 0 -1 0 I I #
face $-1 $-1 $494 $45 $-1 $495 forward single #
loop $-1 $-1 $206 $200 #
plane-surface $-1 0 24.678991524232121 0 0 -1 0 0 0 -1 forward_v I I I I #
coedge $-1 $496 $497 $498 $499 reversed $201 $-1 #
coedge $-1 $500 $203 $205 $345 forward $125 $-1 #
coedge $-1 $203 $500 $496 $501 forward $125 $-1 #
coedge $-1 $498 $206 $203 $342 forward $336 $-1 #
edge $-1 $348 3.7782666642736178 $502 15.600121378869094 $341 $503 forward 7 unknown #
coedge $-1 $504 $505 $204 $344 forward $494 $-1 #
edge $-1 $506 -6.1914671142991473 $347 -3.2375433169444641 $343 $507 forward 7 unknown #
edge $-1 $348 -49.357983048464256 $506 -44.762493343585582 $205 $508 forward 7 unknown #
coedge $-1 $206 $498 $504 $509 reversed $336 $-1 #
vertex $-1 $509 $510 #
vertex $-1 $207 $511 #
straight-curve $-1 -13.467460685844975 24.678991524232121 48.347701248673154 0 0 -1 I I #
coedge $-1 $350 $350 $-1 $512 reversed $210 $-1 #
edge $-1 $513 0 $513 6.2831853071796004 $211 $514 forward 7 unknown #
vertex $-1 $214 $515 #
ellipse-curve $-1 -22.924944457521359 23.202029625554772 7.8819322233563298 0 0.7660444514056185 0.64278759981090561 1 0 0 1 I I #
coedge $-1 $354 $354 $-1 $516 reversed $217 $-1 #
edge $-1 $517 0 $517 6.2831853071796004 $218 $518 forward 7 unknown #
vertex $-1 $221 $519 #
ellipse-curve $-1 -19.378388043142717 23.202029625554772 7.8819322233563298 0 0.7660444514056185 0.64278759981090561 1 0 0 1 I I #
coedge $-1 $358 $358 $-1 $520 reversed $224 $-1 #
edge $-1 $521 0 $521 6.2831853071796004 $225 $522 forward 7 unknown #
vertex $-1 $228 $523 #
ellipse-curve $-1 -15.831831628764075 23.202029625554772 7.8819322233563298 0 0.7660444514056185 0.64278759981090561 1 0 0 1 I I #
face $-1 $-1 $374 $49 $-1 $524 reversed single #
loop $-1 $-1 $525 $229 #
plane-surface $-1 0 0 9.6421069183133046 0 0 1 1 0 0 forward_v I I I I #
coedge $-1 $526 $527 $528 $529 reversed $230 $-1 #
coedge $-1 $530 $232 $234 $372 forward $144 $-1 #
coedge $-1 $232 $530 $526 $531 forward $144 $-1 #
coedge $-1 $528 $235 $232 $369 forward $374 $-1 #
edge $-1 $376 -15.600121378869094 $532 -3.7782666642736178 $368 $533 forward 7 unknown #
coedge $-1 $534 $535 $233 $371 forward $363 $-1 #
edge $-1 $536 -6.1914671142991473 $375 -3.2375433169444641 $370 $537 forward 7 unknown #
edge $-1 $376 -49.357983048464256 $536 -44.762493343585582 $234 $538 forward 7 unknown #
coedge $-1 $235 $528 $534 $539 reversed $374 $-1 #
loop $-1 $-1 $528 $362 #
vertex $-1 $539 $540 #
vertex $-1 $236 $541 #
straight-curve $-1 25.289315400440451 24.678991524232121 48.347701248673154 0 0 -1 I I #
coedge $-1 $378 $378 $-1 $542 reversed $239 $-1 #
edge $-1 $543 0 $543 6.2831853071796004 $240 $544 forward 7 unknown #
vertex $-1 $243 $545 #
ellipse-curve $-1 15.831831628764064 23.202029625554772 7.8819322233563298 0 0.7660444514056185 0.64278759981090561 1 0 0 1 I I #
coedge $-1 $382 $382 $-1 $546 reversed $246 $-1 #
edge $-1 $547 0 $547 6.2831853071796004 $247 $548 forward 7 unknown #
vertex $-1 $250 $549 #
ellipse-curve $-1 19.378388043142706 23.202029625554772 7.8819322233563298 0 0.7660444514056185 0.64278759981090561 1 0 0 1 I I #
coedge $-1 $386 $386 $-1 $550 reversed $253 $-1 #
edge $-1 $551 0 $551 6.2831853071796004 $254 $552 forward 7 unknown #
vertex $-1 $257 $553 #
ellipse-curve $-1 22.924944457521349 23.202029625554772 7.8819322233563298 0 0.7660444514056185 0.64278759981090561 1 0 0 1 I I #
face $-1 $-1 $402 $53 $-1 $554 reversed single #
loop $-1 $-1 $555 $258 #
plane-surface $-1 0 0 9.6421069183133046 0 0 1 1 0 0 forward_v I I I I #
coedge $-1 $556 $557 $558 $559 reversed $259 $-1 #
coedge $-1 $560 $261 $263 $400 forward $163 $-1 #
coedge $-1 $261 $560 $556 $561 forward $163 $-1 #
coedge $-1 $558 $264 $261 $397 forward $402 $-1 #
edge $-1 $404 1.8887153809106572 $562 15.398917227110477 $396 $563 forward 7 unknown #
coedge $-1 $564 $565 $262 $399 forward $391 $-1 #
edge $-1 $566 -17.282815496846304 $403 -8.7989610351445897 $398 $567 forward 7 unknown #
edge $-1 $404 -1.2337929905607871e-014 $566 9.8975479996694649 $263 $568 forward 7 unknown #
coedge $-1 $264 $558 $564 $569 reversed $402 $-1 #
loop $-1 $-1 $558 $390 #
vertex $-1 $569 $570 #
vertex $-1 $265 $571 #
straight-curve $-1 10.532531684921224 -24.678991524232121 37.452545690507229 0 0 -1 I I #
coedge $-1 $406 $406 $-1 $572 reversed $268 $-1 #
edge $-1 $573 0 $573 6.2831853071796004 $269 $574 forward 7 unknown #
vertex $-1 $272 $575 #
ellipse-curve $-1 14.392589355264029 -20.437064293381265 7.0932998503683198 0 -0.51503808176128008 0.85716729658548041 0.5 0 0 1 I I #
coedge $-1 $410 $410 $-1 $576 reversed $275 $-1 #
edge $-1 $577 0 $577 6.2831853071796004 $276 $578 forward 7 unknown #
vertex $-1 $279 $579 #
ellipse-curve $-1 20.182675860778239 -20.437064293381265 7.0932998503683198 0 -0.51503808176128008 0.85716729658548041 0.5 0 0 1 I I #
face $-1 $-1 $295 $42 $-1 $580 reversed single #
loop $-1 $-1 $430 $280 #
plane-surface $-1 0 24.678991524232121 0 0 -1 0 0 0 -1 forward_v I I I I #
coedge $-1 $581 $428 $431 $582 forward $281 $-1 #
coedge $-1 $434 $283 $284 $422 reversed $177 $-1 #
coedge $-1 $428 $581 $283 $420 reversed $281 $-1 #
edge $-1 $435 -9.6421069183133046 $583 9.6421069183133046 $419 $584 forward 7 unknown #
coedge $-1 $285 $284 $581 $585 forward $113 $-1 #
edge $-1 $426 -41.042512283700063 $583 41.042512283700063 $418 $586 forward 7 unknown #
coedge $-1 $431 $430 $285 $424 reversed $415 $-1 #
edge $-1 $587 -41.042512283700063 $425 41.042512283700063 $423 $588 forward 7 unknown #
vertex $-1 $287 $589 #
vertex $-1 $437 $590 #
straight-curve $-1 41.042512283700063 0 -9.6421069183133046 0 -1 0 I I #
coedge $-1 $417 $419 $288 $429 reversed $281 $-1 #
edge $-1 $432 -24.678991524232121 $435 24.678991524232121 $428 $591 forward 7 unknown #
coedge $-1 $423 $289 $294 $438 forward $415 $-1 #
coedge $-1 $289 $423 $417 $582 reversed $415 $-1 #
vertex $-1 $290 $592 #
straight-curve $-1 0 24.678991524232121 9.6421069183133046 -1 0 0 I I #
coedge $-1 $291 $418 $293 $437 reversed $177 $-1 #
vertex $-1 $429 $593 #
straight-curve $-1 0 -24.678991524232121 9.6421069183133046 1 0 0 I I #
edge $-1 $296 -9.6421069183133046 $426 9.6421069183133046 $293 $594 forward 7 unknown #
edge $-1 $297 -9.6421069183133046 $425 9.6421069183133046 $294 $595 forward 7 unknown #
point $-1 41.042512283700063 -24.678991524232121 9.6421069183133046 #
point $-1 41.042512283700063 24.678991524232121 9.6421069183133046 #
face $-1 $-1 $458 $43 $-1 $596 reversed single #
loop $-1 $-1 $597 $299 #
plane-surface $-1 -41.042512283700063 0 0 1 0 0 0 0 -1 forward_v I I I I #
coedge $-1 $445 $461 $303 $448 forward $300 $-1 #
coedge $-1 $310 $444 $302 $446 forward $300 $-1 #
edge $-1 $452 1.5850651095406612 $313 4.5850651095406594 $445 $598 forward 7 unknown #
coedge $-1 $304 $303 $597 $599 reversed $117 $-1 #
edge $-1 $600 -23.363375076879603 $452 -11.994899336761318 $444 $601 forward 7 unknown #
coedge $-1 $457 $456 $304 $450 forward $458 $-1 #
edge $-1 $451 11.994899336761318 $602 23.363375076879603 $449 $603 forward 7 unknown #
vertex $-1 $450 $604 #
vertex $-1 $448 $605 #
straight-curve $-1 -29.674036543581778 0 4.6701302190813214 0 -1 0 I I #
coedge $-1 $606 $607 $307 $455 forward $442 $-1 #
edge $-1 $462 -24.678991524232121 $459 24.678991524232121 $454 $608 forward 7 unknown #
coedge $-1 $449 $308 $312 $464 forward $458 $-1 #
coedge $-1 $308 $449 $606 $609 reversed $458 $-1 #
loop $-1 $-1 $449 $441 #
vertex $-1 $609 $610 #
straight-curve $-1 -17.67913720682046 24.678991524232121 7.6701302190813196 1 0 0 I I #
coedge $-1 $444 $310 $607 $611 forward $300 $-1 #
vertex $-1 $611 $612 #
straight-curve $-1 -17.67913720682046 -24.678991524232121 7.6701302190813196 -1 0 0 I I #
edge $-1 $314 -4.5850651095406594 $451 -1.5850651095406612 $456 $613 forward 7 unknown #
point $-1 -29.674036543581778 -24.678991524232121 7.6701302190813196 #
point $-1 -29.674036543581778 24.678991524232121 7.6701302190813196 #
face $-1 $-1 $331 $44 $-1 $614 reversed single #
loop $-1 $-1 $325 $316 #
plane-surface $-1 0 24.678991524232121 0 0 -1 0 0 0 -1 forward_v I I I I #
coedge $-1 $615 $319 $474 $616 reversed $193 $-1 #
coedge $-1 $319 $615 $324 $482 reversed $193 $-1 #
coedge $-1 $325 $477 $319 $473 forward $468 $-1 #
edge $-1 $617 1.5850651095406612 $484 4.5850651095406594 $472 $618 forward 7 unknown #
coedge $-1 $321 $320 $470 $616 forward $121 $-1 #
coedge $-1 $487 $486 $320 $476 forward $317 $-1 #
edge $-1 $619 11.994899336761314 $479 23.363375076879599 $475 $620 forward 7 unknown #
coedge $-1 $472 $483 $321 $478 forward $468 $-1 #
edge $-1 $480 -23.363375076879599 $617 -11.994899336761314 $477 $621 forward 7 unknown #
vertex $-1 $323 $622 #
vertex $-1 $323 $623 #
straight-curve $-1 41.042512283700063 0 4.6701302190813214 0 1 0 I I #
edge $-1 $484 -24.678991524232121 $488 24.678991524232121 $471 $624 forward 7 unknown #
coedge $-1 $477 $325 $330 $491 forward $468 $-1 #
vertex $-1 $326 $625 #
straight-curve $-1 17.679137206820457 24.678991524232121 7.6701302190813196 1 0 0 I I #
coedge $-1 $475 $327 $615 $626 forward $317 $-1 #
coedge $-1 $327 $475 $329 $490 reversed $317 $-1 #
vertex $-1 $328 $627 #
straight-curve $-1 17.679137206820457 -24.678991524232121 7.6701302190813196 -1 0 0 I I #
edge $-1 $333 -7.6701302190813196 $479 -4.6701302190813214 $329 $628 forward 7 unknown #
edge $-1 $332 -7.6701302190813196 $480 -4.6701302190813214 $330 $629 forward 7 unknown #
point $-1 41.042512283700056 24.678991524232121 7.6701302190813196 #
point $-1 41.042512283700056 -24.678991524232121 7.6701302190813196 #
loop $-1 $-1 $343 $335 #
plane-surface $-1 0 0 9.6421069183133046 0 0 1 1 0 0 forward_v I I I I #
coedge $-1 $497 $338 $340 $501 reversed $201 $-1 #
coedge $-1 $338 $496 $630 $631 reversed $201 $-1 #
coedge $-1 $346 $341 $338 $499 forward $336 $-1 #
edge $-1 $502 -42.225943720273797 $632 -38.705594330359851 $498 $633 forward 7 unknown #
coedge $-1 $340 $339 $505 $634 reversed $125 $-1 #
edge $-1 $635 44.762493343585582 $502 49.357983048464256 $496 $636 forward 7 unknown #
vertex $-1 $342 $637 #
straight-curve $-1 -9.6891940215713568 24.678991524232121 6.1217575283993533 -1 0 0 I I #
coedge $-1 $630 $343 $346 $509 forward $494 $-1 #
coedge $-1 $343 $630 $500 $634 forward $494 $-1 #
vertex $-1 $344 $638 #
straight-curve $-1 -13.467460685844975 27.916534841176585 9.6421069183133028 0 1 0 I I #
straight-curve $-1 -13.467460685844975 -7.047707930997575 43.932166575247962 0 -0.64278759981090561 0.7660444514056185 I I #
edge $-1 $347 13.467460685844975 $632 25.289315400440451 $346 $639 forward 7 unknown #
point $-1 -13.467460685844975 24.678991524232121 9.6421069183133046 #
point $-1 -13.467460685844975 24.678991524232121 6.1217575283993568 #
edge $-1 $640 1 $640 0 $350 $-1 forward 7 unknown #
vertex $-1 $351 $641 #
ellipse-curve $-1 -22.924944457521359 20.218648036371338 5.3785778977522405 0 0.7660444514056185 0.64278759981090561 1 0 0 1 I I #
point $-1 -21.924944457521359 23.202029625554779 7.8819322233563325 #
edge $-1 $642 1 $642 0 $354 $-1 forward 7 unknown #
vertex $-1 $355 $643 #
ellipse-curve $-1 -19.378388043142717 20.218648036371338 5.3785778977522405 0 0.7660444514056185 0.64278759981090561 1 0 0 1 I I #
point $-1 -18.378388043142717 23.202029625554779 7.8819322233563325 #
edge $-1 $644 1 $644 0 $358 $-1 forward 7 unknown #
vertex $-1 $359 $645 #
ellipse-curve $-1 -15.831831628764075 20.218648036371338 5.3785778977522405 0 0.7660444514056185 0.64278759981090561 1 0 0 1 I I #
point $-1 -14.831831628764075 23.202029625554779 7.8819322233563325 #
plane-surface $-1 0 24.678991524232121 0 0 -1 0 0 0 -1 forward_v I I I I #
coedge $-1 $535 $534 $527 $646 forward $363 $-1 #
coedge $-1 $527 $365 $367 $531 reversed $230 $-1 #
coedge $-1 $365 $526 $525 $646 reversed $230 $-1 #
coedge $-1 $373 $368 $365 $529 forward $374 $-1 #
edge $-1 $532 -42.225943720273797 $647 -38.705594330359851 $528 $648 forward 7 unknown #
coedge $-1 $367 $366 $535 $649 reversed $144 $-1 #
edge $-1 $650 44.762493343585582 $532 49.357983048464256 $526 $651 forward 7 unknown #
vertex $-1 $369 $652 #
straight-curve $-1 9.6891940215713568 24.678991524232121 6.1217575283993533 -1 0 0 I I #
coedge $-1 $525 $370 $373 $539 forward $363 $-1 #
coedge $-1 $370 $525 $530 $649 forward $363 $-1 #
vertex $-1 $371 $653 #
straight-curve $-1 25.289315400440451 27.916534841176585 9.6421069183133028 0 1 0 I I #
straight-curve $-1 25.289315400440451 -7.047707930997575 43.932166575247962 0 -0.64278759981090561 0.7660444514056185 I I #
edge $-1 $375 -25.289315400440451 $647 -13.467460685844975 $373 $654 forward 7 unknown #
point $-1 25.289315400440451 24.678991524232121 9.6421069183133046 #
point $-1 25.289315400440451 24.678991524232121 6.1217575283993568 #
edge $-1 $655 1 $655 0 $378 $-1 forward 7 unknown #
vertex $-1 $379 $656 #
ellipse-curve $-1 15.831831628764064 20.218648036371338 5.3785778977522405 0 0.7660444514056185 0.64278759981090561 1 0 0 1 I I #
point $-1 16.831831628764064 23.202029625554779 7.8819322233563325 #
edge $-1 $657 1 $657 0 $382 $-1 forward 7 unknown #
vertex $-1 $383 $658 #
ellipse-curve $-1 19.378388043142706 20.218648036371338 5.3785778977522405 0 0.7660444514056185 0.64278759981090561 1 0 0 1 I I #
point $-1 20.378388043142706 23.202029625554779 7.8819322233563325 #
edge $-1 $659 1 $659 0 $386 $-1 forward 7 unknown #
vertex $-1 $387 $660 #
ellipse-curve $-1 22.924944457521349 20.218648036371338 5.3785778977522405 0 0.7660444514056185 0.64278759981090561 1 0 0 1 I I #
point $-1 23.924944457521349 23.202029625554779 7.8819322233563325 #
plane-surface $-1 0 -24.678991524232121 0 0 1 0 0 0 1 forward_v I I I I #
coedge $-1 $565 $564 $557 $661 forward $391 $-1 #
coedge $-1 $557 $393 $395 $561 reversed $259 $-1 #
coedge $-1 $393 $556 $555 $661 reversed $259 $-1 #
coedge $-1 $401 $396 $393 $559 forward $402 $-1 #
edge $-1 $562 -32.908052908083889 $662 -27.810438772193926 $558 $663 forward 7 unknown #
coedge $-1 $395 $394 $565 $664 reversed $163 $-1 #
edge $-1 $665 -9.8975479996694649 $562 1.2337929905607871e-014 $556 $666 forward 7 unknown #
vertex $-1 $397 $667 #
straight-curve $-1 8.6438163040105671 -24.678991524232121 4.544492782423343 1 0 0 I I #
coedge $-1 $555 $398 $401 $569 forward $391 $-1 #
coedge $-1 $398 $555 $560 $664 forward $391 $-1 #
vertex $-1 $399 $668 #
straight-curve $-1 10.532531684921224 -33.47795255937671 9.6421069183133028 0 -1 0 I I #
straight-curve $-1 10.532531684921224 -24.67899152423211 4.5444927824233474 0 0.85716729658548041 0.51503808176128008 I I #
edge $-1 $403 10.532531684921224 $662 24.042733531121044 $401 $669 forward 7 unknown #
point $-1 10.532531684921224 -24.678991524232121 9.6421069183133046 #
point $-1 10.532531684921224 -24.678991524232121 4.5444927824233412 #
edge $-1 $670 1 $670 0 $406 $-1 forward 7 unknown #
vertex $-1 $407 $671 #
ellipse-curve $-1 14.392589355264029 -19.79308986149066 6.0215464356185144 0 -0.51503808176128008 0.85716729658548041 0.5 0 0 1 I I #
point $-1 14.892589355264029 -20.437064293381273 7.0932998503683278 #
edge $-1 $672 1 $672 0 $410 $-1 forward 7 unknown #
vertex $-1 $411 $673 #
ellipse-curve $-1 20.182675860778239 -19.79308986149066 6.0215464356185144 0 -0.51503808176128008 0.85716729658548041 0.5 0 0 1 I I #
point $-1 20.682675860778239 -20.437064293381273 7.0932998503683278 #
plane-surface $-1 41.042512283700063 0 0 -1 0 0 0 0 1 forward_v I I I I #
coedge $-1 $419 $417 $421 $585 reversed $281 $-1 #
edge $-1 $432 -9.6421069183133046 $587 9.6421069183133046 $431 $674 forward 7 unknown #
vertex $-1 $585 $675 #
straight-curve $-1 -41.042512283700063 -24.678991524232121 0 0 0 -1 I I #
edge $-1 $583 -24.678991524232121 $587 24.678991524232121 $581 $676 forward 7 unknown #
straight-curve $-1 0 -24.678991524232121 -9.6421069183133046 -1 0 0 I I #
vertex $-1 $424 $677 #
straight-curve $-1 0 24.678991524232121 -9.6421069183133046 1 0 0 I I #
point $-1 41.042512283700063 24.678991524232121 -9.6421069183133046 #
point $-1 41.042512283700063 -24.678991524232121 -9.6421069183133046 #
straight-curve $-1 -41.042512283700063 0 9.6421069183133046 0 -1 0 I I #
point $-1 -41.042512283700063 24.678991524232121 9.6421069183133046 #
point $-1 -41.042512283700063 -24.678991524232121 9.6421069183133046 #
straight-curve $-1 41.042512283700063 -24.678991524232121 0 0 0 -1 I I #
straight-curve $-1 41.042512283700063 24.678991524232121 0 0 0 -1 I I #
plane-surface $-1 0 24.678991524232121 0 0 -1 0 0 0 -1 forward_v I I I I #
coedge $-1 $607 $606 $447 $599 forward $442 $-1 #
straight-curve $-1 -29.674036543581778 -24.678991524232121 3.0850651095406603 0 0 1 I I #
edge $-1 $602 -24.678991524232121 $600 24.678991524232121 $597 $678 forward 7 unknown #
vertex $-1 $448 $679 #
straight-curve $-1 -17.67913720682046 -24.678991524232121 4.6701302190813214 1 0 0 I I #
vertex $-1 $450 $680 #
straight-curve $-1 -17.67913720682046 24.678991524232121 4.6701302190813214 -1 0 0 I I #
point $-1 -29.674036543581778 24.678991524232121 4.6701302190813214 #
point $-1 -29.674036543581778 -24.678991524232121 4.6701302190813214 #
coedge $-1 $597 $454 $457 $609 forward $442 $-1 #
coedge $-1 $454 $597 $461 $611 reversed $442 $-1 #
straight-curve $-1 -41.042512283700063 0 7.6701302190813196 0 1 0 I I #
edge $-1 $459 -7.6701302190813196 $602 -4.6701302190813214 $457 $681 forward 7 unknown #
point $-1 -41.042512283700063 24.678991524232121 7.6701302190813196 #
edge $-1 $462 -7.6701302190813196 $600 -4.6701302190813214 $607 $682 forward 7 unknown #
point $-1 -41.042512283700063 -24.678991524232121 7.6701302190813196 #
straight-curve $-1 -29.674036543581778 24.678991524232121 3.0850651095406603 0 0 -1 I I #
plane-surface $-1 41.042512283700063 0 0 -1 0 0 0 0 1 forward_v I I I I #
coedge $-1 $471 $470 $486 $626 reversed $193 $-1 #
edge $-1 $619 -24.678991524232121 $617 24.678991524232121 $470 $683 forward 7 unknown #
vertex $-1 $478 $684 #
straight-curve $-1 29.674036543581771 24.678991524232121 3.0850651095406603 0 0 1 I I #
vertex $-1 $476 $685 #
straight-curve $-1 17.679137206820457 -24.678991524232121 4.6701302190813214 1 0 0 I I #
straight-curve $-1 17.679137206820457 24.678991524232121 4.6701302190813214 -1 0 0 I I #
point $-1 41.042512283700056 -24.678991524232121 4.6701302190813214 #
point $-1 41.042512283700056 24.678991524232121 4.6701302190813214 #
straight-curve $-1 29.674036543581771 0 7.6701302190813196 0 -1 0 I I #
point $-1 29.674036543581771 24.678991524232121 7.6701302190813196 #
edge $-1 $488 -4.5850651095406594 $619 -1.5850651095406612 $486 $686 forward 7 unknown #
point $-1 29.674036543581771 -24.678991524232121 7.6701302190813196 #
straight-curve $-1 41.042512283700063 -24.678991524232121 0 0 0 -1 I I #
straight-curve $-1 41.042512283700063 24.678991524232121 0 0 0 -1 I I #
coedge $-1 $505 $504 $497 $631 forward $494 $-1 #
edge $-1 $632 3.2375433169444641 $635 6.1914671142991473 $630 $687 forward 7 unknown #
vertex $-1 $631 $688 #
straight-curve $-1 -25.289315400440451 24.678991524232121 48.347701248673154 0 0 1 I I #
edge $-1 $635 -15.600121378869094 $506 -3.7782666642736178 $505 $689 forward 7 unknown #
vertex $-1 $634 $690 #
straight-curve $-1 -25.289315400440451 -7.047707930997575 43.932166575247962 0 0.64278759981090561 -0.7660444514056185 I I #
point $-1 -25.289315400440451 24.678991524232121 6.1217575283993568 #
point $-1 -13.467460685844975 21.725067726877437 9.6421069183133028 #
straight-curve $-1 0 24.678991524232121 9.6421069183133046 -1 0 0 I I #
vertex $-1 $512 $691 #
point $-1 -21.924944457521359 20.218648036371338 5.3785778977522405 #
vertex $-1 $516 $692 #
point $-1 -18.378388043142717 20.218648036371338 5.3785778977522405 #
vertex $-1 $520 $693 #
point $-1 -14.831831628764075 20.218648036371338 5.3785778977522405 #
edge $-1 $647 3.2375433169444641 $650 6.1914671142991473 $525 $694 forward 7 unknown #
vertex $-1 $646 $695 #
straight-curve $-1 13.467460685844975 24.678991524232121 48.347701248673154 0 0 1 I I #
edge $-1 $650 3.7782666642736178 $536 15.600121378869094 $535 $696 forward 7 unknown #
vertex $-1 $649 $697 #
straight-curve $-1 13.467460685844975 -7.047707930997575 43.932166575247962 0 0.64278759981090561 -0.7660444514056185 I I #
point $-1 13.467460685844975 24.678991524232121 6.1217575283993568 #
point $-1 25.289315400440451 21.725067726877437 9.6421069183133028 #
straight-curve $-1 0 24.678991524232121 9.6421069183133046 -1 0 0 I I #
vertex $-1 $542 $698 #
point $-1 16.831831628764064 20.218648036371338 5.3785778977522405 #
vertex $-1 $546 $699 #
point $-1 20.378388043142706 20.218648036371338 5.3785778977522405 #
vertex $-1 $550 $700 #
point $-1 23.924944457521349 20.218648036371338 5.3785778977522405 #
edge $-1 $662 8.7989610351445897 $665 17.282815496846304 $555 $701 forward 7 unknown #
vertex $-1 $559 $702 #
straight-curve $-1 24.042733531121044 -24.678991524232121 37.452545690507229 0 0 1 I I #
edge $-1 $665 -15.398917227110477 $566 -1.8887153809106572 $565 $703 forward 7 unknown #
vertex $-1 $664 $704 #
straight-curve $-1 24.042733531121044 -24.67899152423211 4.5444927824233474 0 -0.85716729658548041 -0.51503808176128008 I I #
point $-1 24.042733531121044 -24.678991524232121 4.5444927824233412 #
point $-1 10.532531684921224 -16.195137062530407 9.6421069183133046 #
straight-curve $-1 0 -24.678991524232121 9.6421069183133046 1 0 0 I I #
vertex $-1 $572 $705 #
point $-1 14.892589355264029 -19.79308986149066 6.0215464356185144 #
vertex $-1 $576 $706 #
point $-1 20.682675860778239 -19.79308986149066 6.0215464356185144 #
straight-curve $-1 -41.042512283700063 24.678991524232121 0 0 0 -1 I I #
point $-1 -41.042512283700063 -24.678991524232121 -9.6421069183133046 #
straight-curve $-1 -41.042512283700063 0 -9.6421069183133046 0 1 0 I I #
point $-1 -41.042512283700063 24.678991524232121 -9.6421069183133046 #
straight-curve $-1 -41.042512283700063 0 4.6701302190813214 0 -1 0 I I #
point $-1 -41.042512283700063 -24.678991524232121 4.6701302190813214 #
point $-1 -41.042512283700063 24.678991524232121 4.6701302190813214 #
straight-curve $-1 -41.042512283700063 24.678991524232121 0 0 0 -1 I I #
straight-curve $-1 -41.042512283700063 -24.678991524232121 0 0 0 -1 I I #
straight-curve $-1 29.674036543581771 0 4.6701302190813214 0 1 0 I I #
point $-1 29.674036543581771 24.678991524232121 4.6701302190813214 #
point $-1 29.674036543581771 -24.678991524232121 4.6701302190813214 #
straight-curve $-1 29.674036543581771 -24.678991524232121 3.0850651095406603 0 0 -1 I I #
straight-curve $-1 -25.289315400440451 27.916534841176585 9.6421069183133028 0 -1 0 I I #
point $-1 -25.289315400440451 24.678991524232121 9.6421069183133046 #
straight-curve $-1 -9.6891940215713568 21.725067726877434 9.6421069183133028 1 0 0 I I #
point $-1 -25.289315400440451 21.725067726877437 9.6421069183133028 #
point $-1 -22.924944457521359 19.452603584965718 4.7357902979413353 #
point $-1 -19.378388043142717 19.452603584965718 4.7357902979413353 #
point $-1 -15.831831628764075 19.452603584965718 4.7357902979413353 #
straight-curve $-1 13.467460685844975 27.916534841176585 9.6421069183133028 0 -1 0 I I #
point $-1 13.467460685844975 24.678991524232121 9.6421069183133046 #
straight-curve $-1 9.6891940215713568 21.725067726877434 9.6421069183133028 1 0 0 I I #
point $-1 13.467460685844975 21.725067726877437 9.6421069183133028 #
point $-1 15.831831628764064 19.452603584965718 4.7357902979413353 #
point $-1 19.378388043142706 19.452603584965718 4.7357902979413353 #
point $-1 22.924944457521349 19.452603584965718 4.7357902979413353 #
straight-curve $-1 24.042733531121044 -33.47795255937671 9.6421069183133028 0 1 0 I I #
point $-1 24.042733531121044 -24.678991524232121 9.6421069183133046 #
straight-curve $-1 8.6438163040105671 -16.195137062530407 9.6421069183133046 -1 0 0 I I #
point $-1 24.042733531121044 -16.195137062530407 9.6421069183133046 #
point $-1 14.392589355264029 -19.535570820610022 5.5929627873257743 #
point $-1 20.182675860778239 -19.535570820610022 5.5929627873257743 #
End-of-ACIS-data 