500 0 9 0           
7 Unknown 11 ACIS 5.0 NT 24 Thu Mar 25 21:01:05 1999 
-1 9.9999999999999995e-007 1e-010 
body $-1 $9 $-1 $10 #
body $-1 $11 $-1 $12 #
body $-1 $13 $-1 $14 #
body $-1 $15 $-1 $16 #
body $-1 $17 $-1 $18 #
body $-1 $19 $-1 $20 #
body $-1 $21 $-1 $22 #
body $-1 $23 $-1 $24 #
body $-1 $25 $-1 $26 #
lump $-1 $-1 $27 $0 #
transform $-1 1 0 0 0 1 0 0 0 1 77.640308847315907 47.643573781110113 15.739376734695297 1 rotate no_reflect no_shear #
lump $-1 $-1 $28 $1 #
transform $-1 1 0 0 0 1 0 0 0 1 77.640308847315907 47.643573781110113 15.739376734695297 1 rotate no_reflect no_shear #
lump $-1 $-1 $29 $2 #
transform $-1 1 0 0 0 1 0 0 0 1 77.640308847315907 47.643573781110113 15.739376734695297 1 rotate no_reflect no_shear #
lump $-1 $-1 $30 $3 #
transform $-1 1 0 0 0 1 0 0 0 1 77.640308847315907 47.643573781110113 15.739376734695297 1 rotate no_reflect no_shear #
lump $-1 $-1 $31 $4 #
transform $-1 1 0 0 0 1 0 0 0 1 77.640308847315907 47.643573781110113 15.739376734695297 1 rotate no_reflect no_shear #
lump $-1 $-1 $32 $5 #
transform $-1 1 0 0 0 1 0 0 0 1 77.640308847315907 47.643573781110113 15.739376734695297 1 rotate no_reflect no_shear #
lump $-1 $-1 $33 $6 #
transform $-1 1 0 0 0 1 0 0 0 1 77.640308847315907 47.643573781110113 15.739376734695297 1 rotate no_reflect no_shear #
lump $-1 $-1 $34 $7 #
transform $-1 1 0 0 0 1 0 0 0 1 77.640308847315907 47.643573781110113 15.739376734695297 1 rotate no_reflect no_shear #
lump $-1 $-1 $35 $8 #
transform $-1 1 0 0 0 1 0 0 0 1 77.640308847315907 47.643573781110113 15.739376734695297 1 rotate no_reflect no_shear #
shell $-1 $-1 $-1 $36 $-1 $9 #
shell $-1 $-1 $-1 $37 $-1 $11 #
shell $-1 $-1 $-1 $38 $-1 $13 #
shell $-1 $-1 $-1 $39 $-1 $15 #
shell $-1 $-1 $-1 $40 $-1 $17 #
shell $-1 $-1 $-1 $41 $-1 $19 #
shell $-1 $-1 $-1 $42 $-1 $21 #
shell $-1 $-1 $-1 $43 $-1 $23 #
shell $-1 $-1 $-1 $44 $-1 $25 #
face $-1 $45 $46 $27 $-1 $47 forward single #
face $-1 $48 $49 $28 $-1 $50 forward single #
face $-1 $51 $52 $29 $-1 $53 reversed single #
face $-1 $54 $55 $30 $-1 $56 forward single #
face $-1 $57 $58 $31 $-1 $59 forward single #
face $-1 $60 $61 $32 $-1 $62 forward single #
face $-1 $63 $64 $33 $-1 $65 reversed single #
face $-1 $66 $67 $34 $-1 $68 forward single #
face $-1 $69 $70 $35 $-1 $71 forward single #
face $-1 $72 $73 $27 $-1 $74 reversed single #
loop $-1 $-1 $75 $36 #
plane-surface $-1 0 0 15.739376734695297 0 0 1 1 0 0 forward_v I I I I #
face $-1 $76 $77 $28 $-1 $78 reversed single #
loop $-1 $-1 $79 $37 #
plane-surface $-1 0 -38.145952460323848 -8.274761044137362 0 0 1 1 0 0 forward_v I I I I #
face $-1 $80 $81 $29 $-1 $82 reversed single #
loop $-1 $-1 $83 $38 #
plane-surface $-1 58.500913873041782 -16.858441343502427 225.24383222043727 0 -1 0 -0.64278761758704617 0 -0.76604443648966558 forward_v I I I I #
face $-1 $84 $85 $30 $-1 $86 forward single #
loop $-1 $87 $88 $39 #
cone-surface $-1 71.245454040841693 -26.290353180330548 10.064135965958201 -0.64278761758704617 0 -0.76604443648966558 0.76604443648966558 0 -0.64278761758704617 1 I I 0 1 1 forward I I I I #
face $-1 $89 $90 $31 $-1 $91 forward single #
loop $-1 $92 $93 $40 #
cone-surface $-1 71.245454040841693 -22.753386241520005 10.064135965958201 -0.64278761758704617 0 -0.76604443648966558 0.76604443648966558 0 -0.64278761758704617 1 I I 0 1 1 forward I I I I #
face $-1 $94 $95 $32 $-1 $96 forward single #
loop $-1 $97 $98 $41 #
cone-surface $-1 71.245454040841693 -19.216419302709461 10.064135965958201 -0.64278761758704617 0 -0.76604443648966558 0.76604443648966558 0 -0.64278761758704617 1 I I 0 1 1 forward I I I I #
face $-1 $99 $100 $33 $-1 $101 reversed single #
loop $-1 $-1 $102 $42 #
plane-surface $-1 -191.20536467132936 33.876944360524973 115.29110378334923 0 1 0 -0.73135370988377701 0 0.68199835119979291 forward_v I I I I #
face $-1 $103 $104 $34 $-1 $105 forward single #
loop $-1 $106 $107 $43 #
cone-surface $-1 -72.594417997379409 37.810267052120729 10.619977042007859 0.73135370988377701 0 -0.68199835119979291 1.0229975267996894 0 1.0970305648256655 1 I I 0 1 1.5 forward I I I I #
face $-1 $108 $109 $35 $-1 $110 forward single #
loop $-1 $111 $112 $44 #
cone-surface $-1 -72.594417997379409 43.710251089514365 10.619977042007859 0.73135370988377701 0 -0.68199835119979291 1.0229975267996894 0 1.0970305648256655 1 I I 0 1 1.5 forward I I I I #
face $-1 $113 $114 $27 $-1 $115 reversed single #
loop $-1 $-1 $116 $45 #
plane-surface $-1 0 0 -15.739376734695297 0 0 1 1 0 0 forward_v I I I I #
coedge $-1 $117 $118 $119 $120 forward $46 $-1 #
face $-1 $121 $122 $28 $-1 $123 reversed single #
loop $-1 $-1 $124 $48 #
plane-surface $-1 0 -28.648331139537582 -12.007068889416329 0 -1 0 0 0 -1 forward_v I I I I #
coedge $-1 $125 $126 $127 $128 reversed $49 $-1 #
face $-1 $129 $130 $29 $-1 $131 reversed single #
loop $-1 $-1 $132 $51 #
plane-surface $-1 -41.311544432335523 -22.753386241520005 106.29197894078585 0.64278761758704617 0 0.76604443648966558 0.76604443648966558 0 -0.64278761758704617 forward_v I I I I #
coedge $-1 $133 $134 $135 $136 reversed $52 $-1 #
face $-1 $-1 $137 $30 $-1 $138 forward single #
loop $-1 $139 $140 $54 #
cone-surface $-1 70.04693869662043 -26.290353180330548 8.6358010286196407 -0.64278761758704617 0 -0.76604443648966558 0.38302221824483279 0 -0.32139380879352308 1 I I -0.70710678118654746 0.70710678118654746 0.5 forward I I I I #
loop $-1 $-1 $141 $39 #
coedge $-1 $88 $88 $142 $143 reversed $55 $-1 #
face $-1 $-1 $144 $31 $-1 $145 forward single #
loop $-1 $146 $147 $57 #
cone-surface $-1 70.04693869662043 -22.753386241520005 8.6358010286196407 -0.64278761758704617 0 -0.76604443648966558 0.38302221824483279 0 -0.32139380879352308 1 I I -0.70710678118654746 0.70710678118654746 0.5 forward I I I I #
loop $-1 $-1 $148 $40 #
coedge $-1 $93 $93 $149 $150 reversed $58 $-1 #
face $-1 $-1 $151 $32 $-1 $152 forward single #
loop $-1 $153 $154 $60 #
cone-surface $-1 70.04693869662043 -19.216419302709461 8.6358010286196407 -0.64278761758704617 0 -0.76604443648966558 0.38302221824483279 0 -0.32139380879352308 1 I I -0.70710678118654746 0.70710678118654746 0.5 forward I I I I #
loop $-1 $-1 $155 $41 #
coedge $-1 $98 $98 $156 $157 reversed $61 $-1 #
face $-1 $158 $159 $33 $-1 $160 reversed single #
loop $-1 $-1 $161 $63 #
plane-surface $-1 -77.640308847315922 40.760259070817547 9.3899785423249398 -0.73135370988377701 0 0.68199835119979291 0.68199835119979291 0 0.73135370988377701 forward_v I I I I #
coedge $-1 $162 $163 $164 $165 reversed $64 $-1 #
face $-1 $-1 $166 $34 $-1 $167 forward single #
loop $-1 $168 $169 $66 #
cone-surface $-1 -69.960466594244252 37.810267052120729 8.1637776821057653 0.73135370988377701 0 -0.68199835119979291 0.51149876339984468 0 0.54851528241283276 1 I I -0.70710678118654757 0.70710678118654757 0.75 forward I I I I #
loop $-1 $-1 $170 $43 #
coedge $-1 $107 $107 $171 $172 reversed $67 $-1 #
face $-1 $-1 $173 $35 $-1 $174 forward single #
loop $-1 $175 $176 $69 #
cone-surface $-1 -69.960466594244252 43.710251089514365 8.1637776821057653 0.73135370988377701 0 -0.68199835119979291 0.51149876339984468 0 0.54851528241283276 1 I I -0.70710678118654757 0.70710678118654757 0.75 forward I I I I #
loop $-1 $-1 $177 $44 #
coedge $-1 $112 $112 $178 $179 reversed $70 $-1 #
face $-1 $180 $181 $27 $-1 $182 reversed single #
loop $-1 $-1 $183 $72 #
plane-surface $-1 0 -47.643573781110113 0 0 1 0 0 0 1 forward_v I I I I #
coedge $-1 $184 $185 $186 $187 forward $73 $-1 #
coedge $-1 $188 $75 $189 $190 forward $46 $-1 #
coedge $-1 $75 $188 $191 $192 forward $46 $-1 #
coedge $-1 $193 $194 $75 $120 reversed $195 $-1 #
edge $-1 $196 -47.643573781110113 $197 47.643573781110113 $119 $198 forward 7 unknown #
face $-1 $199 $200 $28 $-1 $201 reversed single #
loop $-1 $-1 $202 $76 #
plane-surface $-1 0 0 -15.739376734695297 0 0 1 1 0 0 forward_v I I I I #
coedge $-1 $203 $204 $205 $206 reversed $77 $-1 #
coedge $-1 $207 $79 $204 $208 forward $49 $-1 #
coedge $-1 $79 $207 $209 $210 reversed $49 $-1 #
coedge $-1 $211 $205 $79 $128 forward $200 $-1 #
edge $-1 $212 9.5753549093756583 $213 28.57059755094819 $127 $214 forward 7 unknown #
face $-1 $215 $216 $29 $-1 $217 reversed single #
loop $-1 $-1 $218 $80 #
plane-surface $-1 58.500913873041782 -28.648331139537582 225.24383222043727 0 1 0 0.64278761758704617 0 0.76604443648966558 forward_v I I I I #
coedge $-1 $219 $220 $221 $222 reversed $81 $-1 #
coedge $-1 $134 $83 $223 $224 reversed $52 $-1 #
coedge $-1 $83 $133 $219 $225 reversed $52 $-1 #
coedge $-1 $221 $226 $83 $136 forward $227 $-1 #
edge $-1 $228 -48.389851910795016 $229 -37.354385368702012 $135 $230 forward 7 unknown #
loop $-1 $-1 $142 $84 #
plane-surface $-1 -41.311544432335523 -22.753386241520005 106.29197894078585 0.64278761758704617 0 0.76604443648966558 0.76604443648966558 0 -0.64278761758704617 forward_v I I I I #
loop $-1 $-1 $231 $54 #
coedge $-1 $140 $140 $141 $232 reversed $85 $-1 #
coedge $-1 $141 $141 $140 $232 forward $87 $-1 #
coedge $-1 $142 $142 $88 $143 forward $137 $-1 #
edge $-1 $233 0 $233 6.2831853071796004 $142 $234 forward 7 unknown #
loop $-1 $-1 $149 $89 #
plane-surface $-1 -41.311544432335523 -22.753386241520005 106.29197894078585 0.64278761758704617 0 0.76604443648966558 0.76604443648966558 0 -0.64278761758704617 forward_v I I I I #
loop $-1 $-1 $235 $57 #
coedge $-1 $147 $147 $148 $236 reversed $90 $-1 #
coedge $-1 $148 $148 $147 $236 forward $92 $-1 #
coedge $-1 $149 $149 $93 $150 forward $144 $-1 #
edge $-1 $237 0 $237 6.2831853071796004 $149 $238 forward 7 unknown #
loop $-1 $-1 $156 $94 #
plane-surface $-1 -41.311544432335523 -22.753386241520005 106.29197894078585 0.64278761758704617 0 0.76604443648966558 0.76604443648966558 0 -0.64278761758704617 forward_v I I I I #
loop $-1 $-1 $239 $60 #
coedge $-1 $154 $154 $155 $240 reversed $95 $-1 #
coedge $-1 $155 $155 $154 $240 forward $97 $-1 #
coedge $-1 $156 $156 $98 $157 forward $151 $-1 #
edge $-1 $241 0 $241 6.2831853071796004 $156 $242 forward 7 unknown #
face $-1 $243 $244 $33 $-1 $245 reversed single #
loop $-1 $-1 $246 $99 #
plane-surface $-1 0 47.643573781110113 0 0 -1 0 0 0 -1 forward_v I I I I #
coedge $-1 $247 $248 $249 $250 reversed $100 $-1 #
coedge $-1 $163 $102 $251 $252 reversed $64 $-1 #
coedge $-1 $102 $162 $247 $253 reversed $64 $-1 #
coedge $-1 $249 $254 $102 $165 forward $255 $-1 #
edge $-1 $256 17.962373488348774 $257 23.883282946777129 $164 $258 forward 7 unknown #
loop $-1 $-1 $171 $103 #
plane-surface $-1 -77.640308847315922 40.760259070817547 9.3899785423249398 -0.73135370988377701 0 0.68199835119979291 0.68199835119979291 0 0.73135370988377701 forward_v I I I I #
loop $-1 $-1 $259 $66 #
coedge $-1 $169 $169 $170 $260 reversed $104 $-1 #
coedge $-1 $170 $170 $169 $260 forward $106 $-1 #
coedge $-1 $171 $171 $107 $172 forward $166 $-1 #
edge $-1 $261 0 $261 6.2831853071796004 $171 $262 forward 7 unknown #
loop $-1 $-1 $178 $108 #
plane-surface $-1 -77.640308847315922 40.760259070817547 9.3899785423249398 -0.73135370988377701 0 0.68199835119979291 0.68199835119979291 0 0.73135370988377701 forward_v I I I I #
loop $-1 $-1 $263 $69 #
coedge $-1 $176 $176 $177 $264 reversed $109 $-1 #
coedge $-1 $177 $177 $176 $264 forward $111 $-1 #
coedge $-1 $178 $178 $112 $179 forward $173 $-1 #
edge $-1 $265 0 $265 6.2831853071796004 $178 $266 forward 7 unknown #
face $-1 $267 $268 $27 $-1 $269 reversed single #
loop $-1 $-1 $270 $113 #
plane-surface $-1 -77.640308847315907 0 0 1 0 0 0 0 -1 forward_v I I I I #
coedge $-1 $271 $191 $272 $273 forward $114 $-1 #
coedge $-1 $274 $116 $271 $275 forward $73 $-1 #
coedge $-1 $116 $274 $276 $277 forward $73 $-1 #
coedge $-1 $194 $193 $116 $187 reversed $195 $-1 #
edge $-1 $278 -47.643573781110113 $279 47.643573781110113 $186 $280 forward 7 unknown #
coedge $-1 $118 $117 $281 $282 forward $46 $-1 #
coedge $-1 $283 $284 $117 $190 reversed $268 $-1 #
edge $-1 $197 -77.640308847315907 $285 77.640308847315907 $189 $286 forward 7 unknown #
coedge $-1 $183 $287 $118 $192 reversed $114 $-1 #
edge $-1 $288 -77.640308847315907 $196 77.640308847315907 $191 $289 forward 7 unknown #
coedge $-1 $186 $119 $287 $290 forward $195 $-1 #
coedge $-1 $119 $186 $283 $291 reversed $195 $-1 #
loop $-1 $-1 $193 $267 #
vertex $-1 $120 $292 #
vertex $-1 $120 $293 #
straight-curve $-1 77.640308847315907 0 15.739376734695297 0 1 0 I I #
face $-1 $294 $295 $28 $-1 $296 reversed single #
loop $-1 $-1 $205 $121 #
plane-surface $-1 77.640308847315907 0 0 -1 0 0 0 0 1 forward_v I I I I #
coedge $-1 $297 $298 $203 $299 forward $122 $-1 #
coedge $-1 $300 $124 $202 $299 reversed $77 $-1 #
coedge $-1 $124 $300 $125 $208 reversed $77 $-1 #
coedge $-1 $127 $301 $124 $206 forward $200 $-1 #
edge $-1 $302 -9.7358422899871329 $212 -2.2712265994291974 $205 $303 forward 7 unknown #
coedge $-1 $126 $125 $304 $305 reversed $49 $-1 #
edge $-1 $212 -77.640308847315907 $306 77.640308847315907 $204 $307 forward 7 unknown #
coedge $-1 $308 $309 $126 $210 forward $295 $-1 #
edge $-1 $213 -77.640308847315907 $310 77.640308847315907 $209 $311 forward 7 unknown #
coedge $-1 $301 $127 $309 $312 forward $200 $-1 #
vertex $-1 $128 $313 #
vertex $-1 $312 $314 #
straight-curve $-1 77.640308847315907 -19.072976230161924 -8.274761044137362 0 -1 0 I I #
face $-1 $-1 $227 $29 $-1 $315 forward single #
loop $-1 $-1 $316 $129 #
plane-surface $-1 77.640308847315907 0 0 -1 0 0 0 0 1 forward_v I I I I #
coedge $-1 $317 $318 $319 $320 reversed $130 $-1 #
coedge $-1 $321 $132 $134 $225 forward $81 $-1 #
coedge $-1 $132 $321 $317 $322 forward $81 $-1 #
coedge $-1 $319 $135 $132 $222 forward $227 $-1 #
edge $-1 $229 5.481748222742425 $323 17.27163801877758 $221 $324 forward 7 unknown #
coedge $-1 $325 $326 $133 $224 forward $216 $-1 #
edge $-1 $327 -106.14239547481009 $228 -96.882539375523336 $223 $328 forward 7 unknown #
edge $-1 $229 140.87483910473421 $327 155.28061769463181 $134 $329 forward 7 unknown #
coedge $-1 $135 $319 $325 $330 forward $227 $-1 #
loop $-1 $-1 $319 $215 #
vertex $-1 $224 $331 #
vertex $-1 $136 $332 #
straight-curve $-1 29.250456936520891 -16.858441343502427 15.739376734695298 -1 0 0 I I #
coedge $-1 $231 $231 $-1 $333 reversed $139 $-1 #
edge $-1 $334 0 $334 6.2831853071796004 $140 $335 forward 7 unknown #
vertex $-1 $143 $336 #
ellipse-curve $-1 72.122575576269412 -26.290353180330548 11.109448685051909 0.64278761758704617 0 0.76604443648966558 0.76604443648966558 0 -0.64278761758704617 1 I I #
coedge $-1 $235 $235 $-1 $337 reversed $146 $-1 #
edge $-1 $338 0 $338 6.2831853071796004 $147 $339 forward 7 unknown #
vertex $-1 $150 $340 #
ellipse-curve $-1 72.122575576269412 -22.753386241520005 11.109448685051909 0.64278761758704617 0 0.76604443648966558 0.76604443648966558 0 -0.64278761758704617 1 I I #
coedge $-1 $239 $239 $-1 $341 reversed $153 $-1 #
edge $-1 $342 0 $342 6.2831853071796004 $154 $343 forward 7 unknown #
vertex $-1 $157 $344 #
ellipse-curve $-1 72.122575576269412 -19.216419302709461 11.109448685051909 0.64278761758704617 0 0.76604443648966558 0.76604443648966558 0 -0.64278761758704617 1 I I #
face $-1 $-1 $255 $33 $-1 $345 forward single #
loop $-1 $-1 $346 $158 #
plane-surface $-1 -77.640308847315907 0 0 1 0 0 0 0 -1 forward_v I I I I #
coedge $-1 $347 $348 $248 $349 forward $159 $-1 #
coedge $-1 $350 $161 $163 $253 forward $100 $-1 #
coedge $-1 $161 $350 $246 $349 reversed $100 $-1 #
coedge $-1 $351 $164 $161 $250 forward $255 $-1 #
edge $-1 $257 13.4968148251162 $352 27.263444245701347 $249 $353 forward 7 unknown #
coedge $-1 $354 $346 $162 $252 forward $244 $-1 #
edge $-1 $355 -48.25557334934966 $256 -41.906175156979316 $251 $356 forward 7 unknown #
edge $-1 $257 -8.6817064117708149 $355 -2.1384085966062714e-014 $163 $357 forward 7 unknown #
coedge $-1 $164 $351 $354 $358 forward $255 $-1 #
loop $-1 $-1 $249 $243 #
vertex $-1 $252 $359 #
vertex $-1 $165 $360 #
straight-curve $-1 -95.602682335664682 33.876944360524973 15.739376734695298 1 0 0 I I #
coedge $-1 $259 $259 $-1 $361 reversed $168 $-1 #
edge $-1 $362 0 $362 6.2831853071796004 $169 $363 forward 7 unknown #
vertex $-1 $172 $364 #
ellipse-curve $-1 -74.679854118101744 37.810267052120729 12.564677638510117 -0.73135370988377701 0 0.68199835119979291 1.0229975267996894 0 1.0970305648256655 1 I I #
coedge $-1 $263 $263 $-1 $365 reversed $175 $-1 #
edge $-1 $366 0 $366 6.2831853071796004 $176 $367 forward 7 unknown #
vertex $-1 $179 $368 #
ellipse-curve $-1 -74.679854118101744 43.710251089514365 12.564677638510117 -0.73135370988377701 0 0.68199835119979291 1.0229975267996894 0 1.0970305648256655 1 I I #
face $-1 $-1 $195 $27 $-1 $369 reversed single #
loop $-1 $-1 $283 $180 #
plane-surface $-1 0 47.643573781110113 0 0 -1 0 0 0 -1 forward_v I I I I #
coedge $-1 $370 $281 $284 $371 forward $181 $-1 #
coedge $-1 $287 $183 $184 $275 reversed $114 $-1 #
coedge $-1 $281 $370 $183 $273 reversed $181 $-1 #
edge $-1 $288 -15.739376734695297 $372 15.739376734695297 $272 $373 forward 7 unknown #
coedge $-1 $185 $184 $370 $374 forward $73 $-1 #
edge $-1 $279 -77.640308847315907 $372 77.640308847315907 $271 $375 forward 7 unknown #
coedge $-1 $284 $283 $185 $277 reversed $268 $-1 #
edge $-1 $376 -77.640308847315907 $278 77.640308847315907 $276 $377 forward 7 unknown #
vertex $-1 $187 $378 #
vertex $-1 $290 $379 #
straight-curve $-1 77.640308847315907 0 -15.739376734695297 0 -1 0 I I #
coedge $-1 $270 $272 $188 $282 reversed $181 $-1 #
edge $-1 $285 -47.643573781110113 $288 47.643573781110113 $281 $380 forward 7 unknown #
coedge $-1 $276 $189 $194 $291 forward $268 $-1 #
coedge $-1 $189 $276 $270 $371 reversed $268 $-1 #
vertex $-1 $190 $381 #
straight-curve $-1 0 47.643573781110113 15.739376734695297 -1 0 0 I I #
coedge $-1 $191 $271 $193 $290 reversed $114 $-1 #
vertex $-1 $282 $382 #
straight-curve $-1 0 -47.643573781110113 15.739376734695297 1 0 0 I I #
edge $-1 $196 -15.739376734695297 $279 15.739376734695297 $193 $383 forward 7 unknown #
edge $-1 $197 -15.739376734695297 $278 15.739376734695297 $194 $384 forward 7 unknown #
point $-1 77.640308847315907 -47.643573781110113 15.739376734695297 #
point $-1 77.640308847315907 47.643573781110113 15.739376734695297 #
face $-1 $-1 $385 $28 $-1 $386 reversed single #
loop $-1 $-1 $209 $199 #
plane-surface $-1 0 -47.643573781110113 0 0 1 0 0 0 1 forward_v I I I I #
coedge $-1 $387 $202 $301 $388 forward $122 $-1 #
coedge $-1 $202 $387 $389 $390 forward $122 $-1 #
edge $-1 $391 -77.640308847315907 $302 77.640308847315907 $202 $392 forward 7 unknown #
coedge $-1 $204 $203 $393 $394 reversed $77 $-1 #
coedge $-1 $205 $211 $297 $388 reversed $200 $-1 #
vertex $-1 $388 $395 #
straight-curve $-1 77.640308847315907 -28.648331139537582 -6.0035344447081647 0 0 1 I I #
coedge $-1 $393 $396 $207 $305 forward $385 $-1 #
edge $-1 $310 -28.57059755094819 $306 -9.5753549093756583 $304 $397 forward 7 unknown #
vertex $-1 $305 $398 #
straight-curve $-1 0 -28.648331139537582 -8.274761044137362 -1 0 0 I I #
coedge $-1 $399 $209 $396 $400 forward $295 $-1 #
coedge $-1 $209 $399 $211 $312 reversed $295 $-1 #
vertex $-1 $400 $401 #
straight-curve $-1 0 -47.643573781110113 -8.274761044137362 -1 0 0 I I #
edge $-1 $213 8.274761044137362 $402 15.739376734695297 $211 $403 forward 7 unknown #
point $-1 77.640308847315907 -28.648331139537582 -8.274761044137362 #
point $-1 77.640308847315907 -47.643573781110113 -8.274761044137362 #
plane-surface $-1 0 0 15.739376734695297 0 0 1 1 0 0 forward_v I I I I #
coedge $-1 $326 $325 $318 $404 forward $216 $-1 #
coedge $-1 $318 $218 $220 $322 reversed $130 $-1 #
coedge $-1 $218 $317 $316 $404 reversed $130 $-1 #
coedge $-1 $226 $221 $218 $320 forward $227 $-1 #
edge $-1 $323 37.354385368702012 $405 48.389851910795016 $319 $406 forward 7 unknown #
coedge $-1 $220 $219 $326 $407 reversed $81 $-1 #
edge $-1 $408 -155.28061769463181 $323 -140.87483910473421 $317 $409 forward 7 unknown #
vertex $-1 $222 $410 #
straight-curve $-1 66.604842305222888 -11.376693120760002 15.739376734695313 0 -1 0 I I #
coedge $-1 $316 $223 $226 $330 reversed $216 $-1 #
coedge $-1 $223 $316 $321 $407 forward $216 $-1 #
vertex $-1 $224 $411 #
straight-curve $-1 77.640308847315907 -16.858441343502427 112.62191611021863 0 0 1 I I #
straight-curve $-1 -41.311544432335523 -16.858441343502427 106.29197894078585 0.76604443648966558 0 -0.64278761758704617 I I #
edge $-1 $405 -28.648331139537582 $228 -16.858441343502427 $325 $412 forward 7 unknown #
point $-1 77.640308847315907 -16.858441343502427 15.739376734695297 #
point $-1 66.604842305222903 -16.858441343502427 15.739376734695298 #
edge $-1 $413 1 $413 0 $231 $-1 forward 7 unknown #
vertex $-1 $232 $414 #
ellipse-curve $-1 70.368332505413946 -26.290353180330548 9.0188232468644731 0.64278761758704617 0 0.76604443648966558 0.76604443648966558 0 -0.64278761758704617 1 I I #
point $-1 72.888620012759105 -26.290353180330548 10.466661067464884 #
edge $-1 $415 1 $415 0 $235 $-1 forward 7 unknown #
vertex $-1 $236 $416 #
ellipse-curve $-1 70.368332505413946 -22.753386241520005 9.0188232468644731 0.64278761758704617 0 0.76604443648966558 0.76604443648966558 0 -0.64278761758704617 1 I I #
point $-1 72.888620012759105 -22.753386241520005 10.466661067464884 #
edge $-1 $417 1 $417 0 $239 $-1 forward 7 unknown #
vertex $-1 $240 $418 #
ellipse-curve $-1 70.368332505413946 -19.216419302709461 9.0188232468644731 0.64278761758704617 0 0.76604443648966558 0.76604443648966558 0 -0.64278761758704617 1 I I #
point $-1 72.888620012759105 -19.216419302709461 10.466661067464884 #
plane-surface $-1 0 0 15.739376734695297 0 0 1 1 0 0 forward_v I I I I #
coedge $-1 $251 $419 $350 $420 forward $244 $-1 #
coedge $-1 $348 $246 $419 $421 reversed $159 $-1 #
coedge $-1 $246 $347 $351 $422 reversed $159 $-1 #
edge $-1 $352 14.35987707715606 $423 23.041583488926854 $246 $424 forward 7 unknown #
coedge $-1 $248 $247 $346 $420 reversed $100 $-1 #
coedge $-1 $254 $249 $348 $422 forward $255 $-1 #
vertex $-1 $422 $425 #
straight-curve $-1 -71.719399388887553 20.380129535408773 15.739376734695297 0 1 0 I I #
coedge $-1 $419 $251 $254 $358 reversed $244 $-1 #
vertex $-1 $252 $426 #
straight-curve $-1 -77.640308847315907 33.876944360524973 57.645551891674614 0 0 1 I I #
straight-curve $-1 -77.640308847315922 33.876944360524973 9.3899785423249398 -0.68199835119979291 0 -0.73135370988377701 I I #
edge $-1 $427 -47.643573781110113 $256 -33.876944360524973 $354 $428 forward 7 unknown #
point $-1 -77.640308847315907 33.876944360524973 15.739376734695297 #
point $-1 -71.719399388887553 33.876944360524973 15.739376734695297 #
edge $-1 $429 1 $429 0 $259 $-1 forward 7 unknown #
vertex $-1 $260 $430 #
ellipse-curve $-1 -70.508981876657089 37.810267052120729 8.6752764455056095 -0.73135370988377701 0 0.68199835119979291 1.0229975267996894 0 1.0970305648256655 1 I I #
point $-1 -73.656856591302031 37.810267052120729 13.661708203335774 #
edge $-1 $431 1 $431 0 $263 $-1 forward 7 unknown #
vertex $-1 $264 $432 #
ellipse-curve $-1 -70.508981876657089 43.710251089514365 8.6752764455056095 -0.73135370988377701 0 0.68199835119979291 1.0229975267996894 0 1.0970305648256655 1 I I #
point $-1 -73.656856591302031 43.710251089514365 13.661708203335774 #
plane-surface $-1 77.640308847315907 0 0 -1 0 0 0 0 1 forward_v I I I I #
coedge $-1 $272 $270 $274 $374 reversed $181 $-1 #
edge $-1 $285 -15.739376734695297 $376 15.739376734695297 $284 $433 forward 7 unknown #
vertex $-1 $374 $434 #
straight-curve $-1 -77.640308847315907 -47.643573781110113 0 0 0 -1 I I #
edge $-1 $372 -47.643573781110113 $376 47.643573781110113 $370 $435 forward 7 unknown #
straight-curve $-1 0 -47.643573781110113 -15.739376734695297 -1 0 0 I I #
vertex $-1 $277 $436 #
straight-curve $-1 0 47.643573781110113 -15.739376734695297 1 0 0 I I #
point $-1 77.640308847315907 47.643573781110113 -15.739376734695297 #
point $-1 77.640308847315907 -47.643573781110113 -15.739376734695297 #
straight-curve $-1 -77.640308847315907 0 15.739376734695297 0 -1 0 I I #
point $-1 -77.640308847315907 47.643573781110113 15.739376734695297 #
point $-1 -77.640308847315907 -47.643573781110113 15.739376734695297 #
straight-curve $-1 77.640308847315907 -47.643573781110113 0 0 0 -1 I I #
straight-curve $-1 77.640308847315907 47.643573781110113 0 0 0 -1 I I #
loop $-1 $-1 $393 $294 #
plane-surface $-1 -77.640308847315907 0 0 1 0 0 0 0 -1 forward_v I I I I #
coedge $-1 $298 $297 $399 $437 forward $122 $-1 #
edge $-1 $302 28.648331139537582 $402 47.643573781110113 $301 $438 forward 7 unknown #
coedge $-1 $396 $393 $298 $390 reversed $385 $-1 #
edge $-1 $439 -47.643573781110113 $391 -28.648331139537582 $389 $440 forward 7 unknown #
vertex $-1 $394 $441 #
straight-curve $-1 0 -28.648331139537582 -15.739376734695297 1 0 0 I I #
coedge $-1 $389 $304 $300 $394 forward $385 $-1 #
edge $-1 $306 2.2712265994291974 $391 9.7358422899871329 $393 $442 forward 7 unknown #
point $-1 77.640308847315907 -28.648331139537582 -15.739376734695297 #
coedge $-1 $304 $389 $308 $400 reversed $385 $-1 #
straight-curve $-1 -77.640308847315907 -19.072976230161924 -8.274761044137362 0 1 0 I I #
point $-1 -77.640308847315907 -28.648331139537582 -8.274761044137362 #
coedge $-1 $309 $308 $387 $437 reversed $295 $-1 #
edge $-1 $310 8.274761044137362 $439 15.739376734695297 $396 $443 forward 7 unknown #
point $-1 -77.640308847315907 -47.643573781110113 -8.274761044137362 #
vertex $-1 $312 $444 #
straight-curve $-1 77.640308847315907 -47.643573781110113 0 0 0 -1 I I #
edge $-1 $405 96.882539375523336 $408 106.14239547481009 $316 $445 forward 7 unknown #
vertex $-1 $330 $446 #
straight-curve $-1 29.250456936520891 -28.648331139537582 15.739376734695298 1 0 0 I I #
edge $-1 $408 -17.27163801877758 $327 -5.481748222742425 $326 $447 forward 7 unknown #
vertex $-1 $407 $448 #
straight-curve $-1 -41.311544432335523 -28.648331139537582 106.29197894078585 -0.76604443648966558 0 0.64278761758704617 I I #
point $-1 66.604842305222903 -28.648331139537582 15.739376734695298 #
point $-1 77.640308847315893 -16.858441343502427 6.4795206354085479 #
straight-curve $-1 77.640308847315907 0 15.739376734695297 0 1 0 I I #
vertex $-1 $333 $449 #
point $-1 71.134376941903625 -26.290353180330548 8.3760356292774265 #
vertex $-1 $337 $450 #
point $-1 71.134376941903625 -22.753386241520005 8.3760356292774265 #
vertex $-1 $341 $451 #
point $-1 71.134376941903625 -19.216419302709461 8.3760356292774265 #
coedge $-1 $346 $354 $347 $421 forward $244 $-1 #
edge $-1 $423 -27.263444245701347 $355 -13.4968148251162 $346 $452 forward 7 unknown #
edge $-1 $427 -15.739376734695297 $423 -9.3899785423249558 $347 $453 forward 7 unknown #
edge $-1 $352 71.719399388887553 $427 77.640308847315907 $348 $454 forward 7 unknown #
vertex $-1 $349 $455 #
straight-curve $-1 -61.925986898835419 47.643573781110113 26.241526108548392 -0.68199835119979291 0 -0.73135370988377701 I I #
point $-1 -71.719399388887553 47.643573781110121 15.739376734695297 #
point $-1 -77.640308847315907 33.876944360524973 9.3899785423249558 #
vertex $-1 $422 $456 #
straight-curve $-1 -77.640308847315907 0 15.739376734695297 0 -1 0 I I #
vertex $-1 $361 $457 #
point $-1 -69.485984349857389 37.810267052120729 9.772307010331275 #
vertex $-1 $365 $458 #
point $-1 -69.485984349857389 43.710251089514365 9.772307010331275 #
straight-curve $-1 -77.640308847315907 47.643573781110113 0 0 0 -1 I I #
point $-1 -77.640308847315907 -47.643573781110113 -15.739376734695297 #
straight-curve $-1 -77.640308847315907 0 -15.739376734695297 0 1 0 I I #
point $-1 -77.640308847315907 47.643573781110113 -15.739376734695297 #
edge $-1 $402 -77.640308847315907 $439 77.640308847315907 $399 $459 forward 7 unknown #
straight-curve $-1 77.640308847315907 0 -15.739376734695297 0 -1 0 I I #
vertex $-1 $390 $460 #
straight-curve $-1 -77.640308847315907 0 -15.739376734695297 0 1 0 I I #
point $-1 -77.640308847315907 -28.648331139537582 -15.739376734695297 #
straight-curve $-1 -77.640308847315907 -28.648331139537582 -6.0035344447081647 0 0 -1 I I #
straight-curve $-1 -77.640308847315907 -47.643573781110113 0 0 0 -1 I I #
point $-1 77.640308847315907 -47.643573781110113 -15.739376734695297 #
straight-curve $-1 77.640308847315907 -28.648331139537582 112.62191611021863 0 0 -1 I I #
point $-1 77.640308847315907 -28.648331139537582 15.739376734695297 #
straight-curve $-1 77.640308847315907 -11.376693120760002 6.4795206354085479 0 1 0 I I #
point $-1 77.640308847315893 -28.648331139537582 6.4795206354085479 #
point $-1 69.725544887826914 -26.290353180330548 8.2527788103748083 #
point $-1 69.725544887826914 -22.753386241520005 8.2527788103748083 #
point $-1 69.725544887826914 -19.216419302709461 8.2527788103748083 #
straight-curve $-1 -77.640308847315907 20.380129535408773 9.3899785423249487 0 -1 0 I I #
straight-curve $-1 -77.640308847315907 47.643573781110113 0 0 0 -1 I I #
straight-curve $-1 0 47.643573781110113 15.739376734695297 -1 0 0 I I #
point $-1 -77.640308847315907 47.643573781110121 9.3899785423249558 #
point $-1 -77.640308847315907 47.643573781110113 15.739376734695297 #
point $-1 -69.411951311831416 37.810267052120729 7.652278918705921 #
point $-1 -69.411951311831416 43.710251089514365 7.652278918705921 #
straight-curve $-1 0 -47.643573781110113 -15.739376734695297 -1 0 0 I I #
point $-1 -77.640308847315907 -47.643573781110113 -15.739376734695297 #
End-of-ACIS-data 