500 0 8 0           
7 Unknown 11 ACIS 5.0 NT 24 Fri Mar 26 00:55:44 1999 
-1 9.9999999999999995e-007 1e-010 
body $-1 $8 $-1 $9 #
body $-1 $10 $-1 $11 #
body $-1 $12 $-1 $13 #
body $-1 $14 $-1 $15 #
body $-1 $16 $-1 $17 #
body $-1 $18 $-1 $19 #
body $-1 $20 $-1 $21 #
body $-1 $22 $-1 $23 #
lump $-1 $-1 $24 $0 #
transform $-1 1 0 0 0 1 0 0 0 1 51.788689840388194 33.559835985164426 13.197894298789249 1 rotate no_reflect no_shear #
lump $-1 $-1 $25 $1 #
transform $-1 1 0 0 0 1 0 0 0 1 51.788689840388194 33.559835985164426 13.197894298789249 1 rotate no_reflect no_shear #
lump $-1 $-1 $26 $2 #
transform $-1 1 0 0 0 1 0 0 0 1 51.788689840388194 33.559835985164426 13.197894298789249 1 rotate no_reflect no_shear #
lump $-1 $-1 $27 $3 #
transform $-1 1 0 0 0 1 0 0 0 1 51.788689840388194 33.559835985164426 13.197894298789249 1 rotate no_reflect no_shear #
lump $-1 $-1 $28 $4 #
transform $-1 1 0 0 0 1 0 0 0 1 51.788689840388194 33.559835985164426 13.197894298789249 1 rotate no_reflect no_shear #
lump $-1 $-1 $29 $5 #
transform $-1 1 0 0 0 1 0 0 0 1 51.788689840388194 33.559835985164426 13.197894298789249 1 rotate no_reflect no_shear #
lump $-1 $-1 $30 $6 #
transform $-1 1 0 0 0 1 0 0 0 1 51.788689840388194 33.559835985164426 13.197894298789249 1 rotate no_reflect no_shear #
lump $-1 $-1 $31 $7 #
transform $-1 1 0 0 0 1 0 0 0 1 51.788689840388194 33.559835985164426 13.197894298789249 1 rotate no_reflect no_shear #
shell $-1 $-1 $-1 $32 $-1 $8 #
shell $-1 $-1 $-1 $33 $-1 $10 #
shell $-1 $-1 $-1 $34 $-1 $12 #
shell $-1 $-1 $-1 $35 $-1 $14 #
shell $-1 $-1 $-1 $36 $-1 $16 #
shell $-1 $-1 $-1 $37 $-1 $18 #
shell $-1 $-1 $-1 $38 $-1 $20 #
shell $-1 $-1 $-1 $39 $-1 $22 #
face $-1 $40 $41 $24 $-1 $42 reversed single #
face $-1 $43 $44 $25 $-1 $45 forward single #
face $-1 $46 $47 $26 $-1 $48 reversed single #
face $-1 $49 $50 $27 $-1 $51 forward single #
face $-1 $52 $53 $28 $-1 $54 reversed single #
face $-1 $55 $56 $29 $-1 $57 forward single #
face $-1 $58 $59 $30 $-1 $60 forward single #
face $-1 $61 $62 $31 $-1 $63 forward single #
face $-1 $64 $65 $24 $-1 $66 forward single #
loop $-1 $-1 $67 $32 #
plane-surface $-1 0 -33.559835985164426 0 0 1 0 0 0 1 forward_v I I I I #
face $-1 $68 $69 $25 $-1 $70 reversed single #
loop $-1 $-1 $71 $33 #
plane-surface $-1 0 -33.559835985164426 0 0 1 0 0 0 1 forward_v I I I I #
face $-1 $72 $73 $26 $-1 $74 reversed single #
loop $-1 $-1 $75 $34 #
plane-surface $-1 -135.58455108261614 9.585420711425332 69.733103270898795 0 1 0 -0.80901700255871778 0 0.5877852410284794 forward_v I I I I #
face $-1 $76 $77 $27 $-1 $78 forward single #
loop $-1 $79 $80 $35 #
cone-surface $-1 -49.540143126598899 16.350516693409254 10.538267150686259 0.80901700255871778 0 -0.5877852410284794 0.5877852410284794 0 0.80901700255871778 1 I I 0 1 1 forward I I I I #
face $-1 $81 $82 $28 $-1 $83 reversed single #
loop $-1 $-1 $84 $36 #
plane-surface $-1 39.022071510666869 27.11249465076898 150.72875059784658 0 1 0 0.64278761758704617 0 0.76604443648966558 forward_v I I I I #
face $-1 $85 $86 $29 $-1 $87 forward single #
loop $-1 $88 $89 $37 #
cone-surface $-1 46.238476934000069 28.401962917648071 8.3469467926992795 -0.64278761758704617 0 -0.76604443648966558 0.38302221824483279 0 -0.32139380879352308 1 I I 0 1 0.5 forward I I I I #
face $-1 $90 $91 $30 $-1 $92 forward single #
loop $-1 $93 $94 $38 #
cone-surface $-1 46.238476934000069 30.336165317966703 8.3469467926992795 -0.64278761758704617 0 -0.76604443648966558 0.38302221824483279 0 -0.32139380879352308 1 I I 0 1 0.5 forward I I I I #
face $-1 $95 $96 $31 $-1 $97 forward single #
loop $-1 $98 $99 $39 #
cone-surface $-1 46.238476934000069 32.270367718285343 8.3469467926992795 -0.64278761758704617 0 -0.76604443648966558 0.38302221824483279 0 -0.32139380879352308 1 I I 0 1 0.5 forward I I I I #
face $-1 $100 $101 $24 $-1 $102 reversed single #
loop $-1 $-1 $103 $40 #
plane-surface $-1 0 0 13.197894298789249 0 0 1 1 0 0 forward_v I I I I #
coedge $-1 $104 $105 $106 $107 reversed $41 $-1 #
face $-1 $108 $109 $25 $-1 $110 reversed single #
loop $-1 $-1 $111 $43 #
plane-surface $-1 0 0 -13.197894298789249 0 0 1 1 0 0 forward_v I I I I #
coedge $-1 $112 $113 $114 $115 forward $44 $-1 #
face $-1 $116 $117 $26 $-1 $118 reversed single #
loop $-1 $-1 $119 $46 #
plane-surface $-1 -51.788689840388173 16.350516693409261 8.8518481901353141 -0.80901700255871778 0 0.5877852410284794 0.5877852410284794 0 0.80901700255871778 forward_v I I I I #
coedge $-1 $120 $121 $122 $123 reversed $47 $-1 #
face $-1 $-1 $124 $27 $-1 $125 forward single #
loop $-1 $126 $127 $49 #
cone-surface $-1 -48.46588152860916 16.350516693409254 9.7577704363959921 0.80901700255871778 0 -0.5877852410284794 0.2938926205142397 0 0.40450850127935889 1 I I -0.70710678118654746 0.70710678118654746 0.5 forward I I I I #
loop $-1 $-1 $128 $35 #
coedge $-1 $80 $80 $129 $130 reversed $50 $-1 #
face $-1 $131 $132 $28 $-1 $133 reversed single #
loop $-1 $-1 $134 $52 #
plane-surface $-1 -27.556185610248299 30.336165317966703 71.383875147210105 0.64278761758704617 0 0.76604443648966558 0.76604443648966558 0 -0.64278761758704617 forward_v I I I I #
coedge $-1 $135 $136 $137 $138 reversed $53 $-1 #
face $-1 $-1 $139 $29 $-1 $140 forward single #
loop $-1 $141 $142 $55 #
cone-surface $-1 45.528329717368571 28.401962917648071 7.5006263137340614 -0.64278761758704617 0 -0.76604443648966558 0.1915111091224164 0 -0.16069690439676154 1 I I -0.70710678118654879 0.70710678118654635 0.25 forward I I I I #
loop $-1 $-1 $143 $37 #
coedge $-1 $89 $89 $144 $145 reversed $56 $-1 #
face $-1 $-1 $146 $30 $-1 $147 forward single #
loop $-1 $148 $149 $58 #
cone-surface $-1 45.528329717368571 30.336165317966703 7.5006263137340614 -0.64278761758704617 0 -0.76604443648966558 0.1915111091224164 0 -0.16069690439676154 1 I I -0.70710678118654879 0.70710678118654635 0.25 forward I I I I #
loop $-1 $-1 $150 $38 #
coedge $-1 $94 $94 $151 $152 reversed $59 $-1 #
face $-1 $-1 $153 $31 $-1 $154 forward single #
loop $-1 $155 $156 $61 #
cone-surface $-1 45.528329717368571 32.270367718285343 7.5006263137340614 -0.64278761758704617 0 -0.76604443648966558 0.1915111091224164 0 -0.16069690439676154 1 I I -0.70710678118654879 0.70710678118654635 0.25 forward I I I I #
loop $-1 $-1 $157 $39 #
coedge $-1 $99 $99 $158 $159 reversed $62 $-1 #
face $-1 $160 $161 $24 $-1 $162 reversed single #
loop $-1 $-1 $163 $64 #
plane-surface $-1 0 0 -13.197894298789249 0 0 1 1 0 0 forward_v I I I I #
coedge $-1 $164 $165 $166 $167 forward $65 $-1 #
coedge $-1 $168 $67 $169 $170 reversed $41 $-1 #
coedge $-1 $67 $168 $171 $172 forward $41 $-1 #
coedge $-1 $173 $163 $67 $107 forward $101 $-1 #
edge $-1 $174 -51.788689840388194 $175 51.788689840388194 $67 $176 forward 7 unknown #
face $-1 $177 $178 $25 $-1 $179 reversed single #
loop $-1 $-1 $180 $68 #
plane-surface $-1 -27.772082792341791 -45.40144898043755 0 0 1 0 0 0 1 forward_v I I I I #
coedge $-1 $181 $182 $113 $183 forward $69 $-1 #
coedge $-1 $184 $71 $185 $186 reversed $44 $-1 #
coedge $-1 $71 $184 $111 $183 reversed $44 $-1 #
coedge $-1 $187 $188 $71 $115 reversed $178 $-1 #
edge $-1 $189 -13.197894298789249 $190 13.197894298789249 $114 $191 forward 7 unknown #
face $-1 $192 $193 $26 $-1 $194 reversed single #
loop $-1 $-1 $195 $72 #
plane-surface $-1 -135.58455108261614 23.115612675393191 69.733103270898795 0 -1 0 0.80901700255871778 0 -0.5877852410284794 forward_v I I I I #
coedge $-1 $196 $197 $198 $199 reversed $73 $-1 #
coedge $-1 $121 $75 $200 $201 reversed $47 $-1 #
coedge $-1 $75 $120 $196 $202 reversed $47 $-1 #
coedge $-1 $198 $203 $75 $123 forward $204 $-1 #
edge $-1 $205 16.003585700919878 $206 19.16117293507773 $122 $207 forward 7 unknown #
loop $-1 $-1 $129 $76 #
plane-surface $-1 -51.788689840388173 16.350516693409261 8.8518481901353141 -0.80901700255871778 0 0.5877852410284794 0.5877852410284794 0 0.80901700255871778 forward_v I I I I #
loop $-1 $-1 $208 $49 #
coedge $-1 $127 $127 $128 $209 reversed $77 $-1 #
coedge $-1 $128 $128 $127 $209 forward $79 $-1 #
coedge $-1 $129 $129 $80 $130 forward $124 $-1 #
edge $-1 $210 0 $210 6.2831853071796004 $129 $211 forward 7 unknown #
face $-1 $212 $213 $28 $-1 $214 forward single #
loop $-1 $-1 $215 $81 #
plane-surface $-1 0 33.559835985164426 0 0 -1 0 0 0 -1 forward_v I I I I #
coedge $-1 $216 $217 $218 $219 reversed $82 $-1 #
coedge $-1 $136 $84 $220 $221 reversed $53 $-1 #
coedge $-1 $84 $135 $216 $222 reversed $53 $-1 #
coedge $-1 $218 $223 $84 $138 forward $224 $-1 #
edge $-1 $225 62.166481000134041 $226 70.55875727262837 $137 $227 forward 7 unknown #
loop $-1 $-1 $144 $85 #
plane-surface $-1 -27.556185610248299 30.336165317966703 71.383875147210105 0.64278761758704617 0 0.76604443648966558 0.76604443648966558 0 -0.64278761758704617 forward_v I I I I #
loop $-1 $-1 $228 $55 #
coedge $-1 $142 $142 $143 $229 reversed $86 $-1 #
coedge $-1 $143 $143 $142 $229 forward $88 $-1 #
coedge $-1 $144 $144 $89 $145 forward $139 $-1 #
edge $-1 $230 0 $230 6.2831853071796004 $144 $231 forward 7 unknown #
loop $-1 $-1 $151 $90 #
plane-surface $-1 -27.556185610248299 30.336165317966703 71.383875147210105 0.64278761758704617 0 0.76604443648966558 0.76604443648966558 0 -0.64278761758704617 forward_v I I I I #
loop $-1 $-1 $232 $58 #
coedge $-1 $149 $149 $150 $233 reversed $91 $-1 #
coedge $-1 $150 $150 $149 $233 forward $93 $-1 #
coedge $-1 $151 $151 $94 $152 forward $146 $-1 #
edge $-1 $234 0 $234 6.2831853071796004 $151 $235 forward 7 unknown #
loop $-1 $-1 $158 $95 #
plane-surface $-1 -27.556185610248299 30.336165317966703 71.383875147210105 0.64278761758704617 0 0.76604443648966558 0.76604443648966558 0 -0.64278761758704617 forward_v I I I I #
loop $-1 $-1 $236 $61 #
coedge $-1 $156 $156 $157 $237 reversed $96 $-1 #
coedge $-1 $157 $157 $156 $237 forward $98 $-1 #
coedge $-1 $158 $158 $99 $159 forward $153 $-1 #
edge $-1 $238 0 $238 6.2831853071796004 $158 $239 forward 7 unknown #
face $-1 $240 $241 $24 $-1 $242 reversed single #
loop $-1 $-1 $243 $100 #
plane-surface $-1 -51.788689840388194 0 0 1 0 0 0 0 -1 forward_v I I I I #
coedge $-1 $106 $244 $245 $246 forward $101 $-1 #
coedge $-1 $247 $103 $248 $249 forward $65 $-1 #
coedge $-1 $103 $247 $168 $250 forward $65 $-1 #
coedge $-1 $169 $251 $103 $167 reversed $252 $-1 #
edge $-1 $253 -33.559835985164426 $254 33.559835985164426 $166 $255 forward 7 unknown #
coedge $-1 $105 $104 $165 $250 reversed $41 $-1 #
coedge $-1 $245 $166 $104 $170 forward $252 $-1 #
edge $-1 $253 -13.197894298789249 $174 13.197894298789249 $169 $256 forward 7 unknown #
coedge $-1 $257 $258 $105 $172 reversed $161 $-1 #
edge $-1 $259 -13.197894298789249 $175 13.197894298789249 $171 $260 forward 7 unknown #
coedge $-1 $244 $106 $258 $261 forward $101 $-1 #
vertex $-1 $170 $262 #
vertex $-1 $261 $263 #
straight-curve $-1 0 -33.559835985164426 -13.197894298789249 -1 0 0 I I #
face $-1 $264 $265 $25 $-1 $266 reversed single #
loop $-1 $-1 $114 $108 #
plane-surface $-1 -30.15126434187389 -39.480642482800988 0 1 0 0 0 0 -1 forward_v I I I I #
coedge $-1 $267 $268 $269 $270 forward $109 $-1 #
coedge $-1 $271 $111 $272 $273 forward $69 $-1 #
coedge $-1 $111 $271 $187 $274 forward $69 $-1 #
edge $-1 $189 -30.15126434187389 $275 -25.392901242809693 $111 $276 forward 7 unknown #
coedge $-1 $113 $112 $277 $278 forward $44 $-1 #
coedge $-1 $279 $280 $112 $186 forward $281 $-1 #
edge $-1 $282 25.392901242809693 $190 30.15126434187389 $185 $283 forward 7 unknown #
coedge $-1 $269 $114 $182 $274 reversed $178 $-1 #
coedge $-1 $114 $269 $279 $284 reversed $178 $-1 #
vertex $-1 $183 $285 #
vertex $-1 $284 $286 #
straight-curve $-1 -30.15126434187389 -33.559835985164426 0 0 0 1 I I #
face $-1 $-1 $204 $26 $-1 $287 forward single #
loop $-1 $-1 $288 $116 #
plane-surface $-1 -51.788689840388194 0 0 1 0 0 0 0 -1 forward_v I I I I #
coedge $-1 $289 $290 $291 $292 reversed $117 $-1 #
coedge $-1 $293 $119 $121 $202 forward $73 $-1 #
coedge $-1 $119 $293 $289 $294 forward $73 $-1 #
coedge $-1 $291 $122 $119 $199 forward $204 $-1 #
edge $-1 $206 1.4101623647207013 $295 14.94035432868856 $198 $296 forward 7 unknown #
coedge $-1 $297 $298 $120 $201 forward $193 $-1 #
edge $-1 $299 -26.014703445314112 $205 -21.668657336660146 $200 $300 forward 7 unknown #
edge $-1 $206 -5.3720083693030958 $299 3.6960145052660132e-014 $121 $301 forward 7 unknown #
coedge $-1 $122 $291 $297 $302 forward $204 $-1 #
loop $-1 $-1 $291 $192 #
vertex $-1 $201 $303 #
vertex $-1 $123 $304 #
straight-curve $-1 -67.792275541308072 9.585420711425332 13.197894298789251 1 0 0 I I #
coedge $-1 $208 $208 $-1 $305 reversed $126 $-1 #
edge $-1 $306 0 $306 6.2831853071796004 $127 $307 forward 7 unknown #
vertex $-1 $130 $308 #
ellipse-curve $-1 -50.209896223309265 16.350516693409254 11.024871244462274 -0.80901700255871778 0 0.5877852410284794 0.5877852410284794 0 0.80901700255871778 1 I I #
face $-1 $-1 $224 $28 $-1 $309 reversed single #
loop $-1 $-1 $310 $131 #
plane-surface $-1 0 0 13.197894298789249 0 0 1 1 0 0 forward_v I I I I #
coedge $-1 $311 $312 $217 $313 forward $132 $-1 #
coedge $-1 $314 $134 $136 $222 forward $82 $-1 #
coedge $-1 $134 $314 $215 $313 reversed $82 $-1 #
coedge $-1 $315 $137 $134 $219 forward $224 $-1 #
edge $-1 $226 11.944411991785628 $316 18.391753326181075 $218 $317 forward 7 unknown #
coedge $-1 $318 $310 $135 $221 forward $213 $-1 #
edge $-1 $319 22.276128896748045 $225 32.277654085054763 $220 $320 forward 7 unknown #
edge $-1 $226 -103.57737968077639 $319 -90.521315682533853 $136 $321 forward 7 unknown #
coedge $-1 $137 $315 $318 $322 reversed $224 $-1 #
loop $-1 $-1 $218 $212 #
vertex $-1 $322 $323 #
vertex $-1 $138 $324 #
straight-curve $-1 51.788689840388194 27.11249465076898 75.364375298923292 0 0 -1 I I #
coedge $-1 $228 $228 $-1 $325 reversed $141 $-1 #
edge $-1 $326 0 $326 6.2831853071796004 $142 $327 forward 7 unknown #
vertex $-1 $145 $328 #
ellipse-curve $-1 46.787927246234823 28.401962917648071 9.0017561625420992 0.64278761758704617 0 0.76604443648966558 0.38302221824483279 0 -0.32139380879352308 1 I I #
coedge $-1 $232 $232 $-1 $329 reversed $148 $-1 #
edge $-1 $330 0 $330 6.2831853071796004 $149 $331 forward 7 unknown #
vertex $-1 $152 $332 #
ellipse-curve $-1 46.787927246234823 30.336165317966703 9.0017561625420992 0.64278761758704617 0 0.76604443648966558 0.38302221824483279 0 -0.32139380879352308 1 I I #
coedge $-1 $236 $236 $-1 $333 reversed $155 $-1 #
edge $-1 $334 0 $334 6.2831853071796004 $156 $335 forward 7 unknown #
vertex $-1 $159 $336 #
ellipse-curve $-1 46.787927246234823 32.270367718285343 9.0017561625420992 0.64278761758704617 0 0.76604443648966558 0.38302221824483279 0 -0.32139380879352308 1 I I #
face $-1 $-1 $252 $24 $-1 $337 reversed single #
loop $-1 $-1 $338 $160 #
plane-surface $-1 0 33.559835985164426 0 0 -1 0 0 0 -1 forward_v I I I I #
coedge $-1 $258 $257 $339 $340 forward $161 $-1 #
coedge $-1 $163 $173 $341 $342 forward $101 $-1 #
coedge $-1 $251 $169 $163 $246 reversed $252 $-1 #
edge $-1 $343 -33.559835985164426 $174 33.559835985164426 $245 $344 forward 7 unknown #
coedge $-1 $165 $164 $257 $345 forward $65 $-1 #
coedge $-1 $338 $339 $164 $249 reversed $241 $-1 #
edge $-1 $254 -51.788689840388194 $346 51.788689840388194 $248 $347 forward 7 unknown #
edge $-1 $259 -51.788689840388194 $253 51.788689840388194 $168 $348 forward 7 unknown #
coedge $-1 $166 $245 $338 $349 reversed $252 $-1 #
loop $-1 $-1 $169 $240 #
vertex $-1 $167 $350 #
vertex $-1 $167 $351 #
straight-curve $-1 51.788689840388194 0 13.197894298789249 0 1 0 I I #
straight-curve $-1 51.788689840388194 -33.559835985164426 0 0 0 -1 I I #
coedge $-1 $243 $171 $247 $345 reversed $161 $-1 #
coedge $-1 $171 $243 $173 $261 reversed $161 $-1 #
vertex $-1 $345 $352 #
straight-curve $-1 -51.788689840388194 -33.559835985164426 0 0 0 -1 I I #
edge $-1 $175 -33.559835985164426 $353 33.559835985164426 $258 $354 forward 7 unknown #
point $-1 51.788689840388194 -33.559835985164426 -13.197894298789249 #
point $-1 -51.788689840388194 -33.559835985164426 -13.197894298789249 #
face $-1 $-1 $281 $25 $-1 $355 forward single #
loop $-1 $-1 $356 $177 #
plane-surface $-1 -25.392901242809693 -39.480642482800988 0 -1 0 0 0 0 1 forward_v I I I I #
coedge $-1 $357 $180 $271 $358 reversed $109 $-1 #
coedge $-1 $180 $357 $359 $360 reversed $109 $-1 #
coedge $-1 $188 $187 $180 $270 reversed $178 $-1 #
edge $-1 $361 -13.197894298789249 $362 13.197894298789249 $269 $363 forward 7 unknown #
coedge $-1 $182 $181 $267 $358 forward $69 $-1 #
coedge $-1 $277 $356 $181 $273 reversed $265 $-1 #
edge $-1 $275 -5.920806497636562 $364 5.920806497636562 $272 $365 forward 7 unknown #
edge $-1 $362 -5.920806497636562 $189 5.920806497636562 $187 $366 forward 7 unknown #
vertex $-1 $273 $367 #
straight-curve $-1 0 -33.559835985164426 -13.197894298789249 1 0 0 I I #
coedge $-1 $368 $272 $184 $278 reversed $265 $-1 #
edge $-1 $282 -13.197894298789249 $275 13.197894298789249 $277 $369 forward 7 unknown #
coedge $-1 $359 $185 $188 $284 forward $281 $-1 #
coedge $-1 $185 $359 $368 $370 forward $281 $-1 #
loop $-1 $-1 $185 $264 #
vertex $-1 $186 $371 #
straight-curve $-1 0 -33.559835985164426 13.197894298789249 -1 0 0 I I #
edge $-1 $190 -5.920806497636562 $361 5.920806497636562 $188 $372 forward 7 unknown #
point $-1 -30.15126434187389 -33.559835985164426 -13.197894298789249 #
point $-1 -30.15126434187389 -33.559835985164426 13.197894298789249 #
plane-surface $-1 0 0 13.197894298789249 0 0 1 1 0 0 forward_v I I I I #
coedge $-1 $298 $297 $290 $373 forward $193 $-1 #
coedge $-1 $290 $195 $197 $294 reversed $117 $-1 #
coedge $-1 $195 $289 $288 $373 reversed $117 $-1 #
coedge $-1 $203 $198 $195 $292 forward $204 $-1 #
edge $-1 $295 -19.16117293507773 $374 -16.003585700919878 $291 $375 forward 7 unknown #
coedge $-1 $197 $196 $298 $376 reversed $73 $-1 #
edge $-1 $377 -3.6960145052660132e-014 $295 5.3720083693030958 $289 $378 forward 7 unknown #
vertex $-1 $199 $379 #
straight-curve $-1 -48.631102606230343 8.1752583467046307 13.197894298789249 0 1 0 I I #
coedge $-1 $288 $200 $203 $302 reversed $193 $-1 #
coedge $-1 $200 $288 $293 $376 forward $193 $-1 #
vertex $-1 $201 $380 #
straight-curve $-1 -51.788689840388194 9.585420711425332 34.866551635449397 0 0 1 I I #
straight-curve $-1 -51.788689840388173 9.585420711425332 8.8518481901353141 -0.5877852410284794 0 -0.80901700255871778 I I #
edge $-1 $374 -23.115612675393191 $205 -9.585420711425332 $297 $381 forward 7 unknown #
point $-1 -51.788689840388194 9.585420711425332 13.197894298789249 #
point $-1 -48.631102606230343 9.585420711425332 13.197894298789249 #
edge $-1 $382 1 $382 0 $208 $-1 forward 7 unknown #
vertex $-1 $209 $383 #
ellipse-curve $-1 -48.870390029888519 16.350516693409254 10.051663056910233 -0.80901700255871778 0 0.5877852410284794 0.5877852410284794 0 0.80901700255871778 1 I I #
point $-1 -49.622110982280802 16.350516693409254 11.833888247021003 #
plane-surface $-1 51.788689840388194 0 0 -1 0 0 0 0 1 forward_v I I I I #
coedge $-1 $220 $384 $314 $385 forward $213 $-1 #
coedge $-1 $312 $215 $384 $386 reversed $132 $-1 #
coedge $-1 $215 $311 $315 $387 forward $132 $-1 #
edge $-1 $316 -70.080412821969588 $388 -57.024348823727038 $215 $389 forward 7 unknown #
coedge $-1 $217 $216 $310 $385 reversed $82 $-1 #
coedge $-1 $223 $218 $312 $387 reversed $224 $-1 #
vertex $-1 $219 $390 #
straight-curve $-1 51.788689840388194 15.168082658983352 4.8056180262949226 0 1 0 I I #
coedge $-1 $384 $220 $223 $322 forward $213 $-1 #
vertex $-1 $221 $391 #
straight-curve $-1 19.511035755333435 27.11249465076898 13.197894298789251 1 0 0 I I #
straight-curve $-1 -27.556185610248299 27.11249465076898 71.383875147210105 -0.76604443648966558 0 0.64278761758704617 I I #
edge $-1 $225 27.11249465076898 $392 33.559835985164426 $223 $393 forward 7 unknown #
point $-1 51.788689840388194 27.11249465076898 13.197894298789249 #
point $-1 51.788689840388194 27.11249465076898 4.8056180262949226 #
edge $-1 $394 1 $394 0 $228 $-1 forward 7 unknown #
vertex $-1 $229 $395 #
ellipse-curve $-1 45.689026621765329 28.401962917648071 7.6921374228564767 0.64278761758704617 0 0.76604443648966558 0.38302221824483279 0 -0.32139380879352308 1 I I #
point $-1 47.170949464479634 28.401962917648071 8.6803623537485564 #
edge $-1 $396 1 $396 0 $232 $-1 forward 7 unknown #
vertex $-1 $233 $397 #
ellipse-curve $-1 45.689026621765329 30.336165317966703 7.6921374228564767 0.64278761758704617 0 0.76604443648966558 0.38302221824483279 0 -0.32139380879352308 1 I I #
point $-1 47.170949464479634 30.336165317966703 8.6803623537485564 #
edge $-1 $398 1 $398 0 $236 $-1 forward 7 unknown #
vertex $-1 $237 $399 #
ellipse-curve $-1 45.689026621765329 32.270367718285343 7.6921374228564767 0.64278761758704617 0 0.76604443648966558 0.38302221824483279 0 -0.32139380879352308 1 I I #
point $-1 47.170949464479634 32.270367718285343 8.6803623537485564 #
plane-surface $-1 51.788689840388194 0 0 -1 0 0 0 0 1 forward_v I I I I #
coedge $-1 $341 $248 $251 $349 forward $241 $-1 #
coedge $-1 $248 $341 $243 $340 reversed $241 $-1 #
edge $-1 $346 -13.197894298789249 $353 13.197894298789249 $339 $400 forward 7 unknown #
coedge $-1 $339 $338 $244 $342 reversed $241 $-1 #
edge $-1 $353 -51.788689840388194 $343 51.788689840388194 $341 $401 forward 7 unknown #
vertex $-1 $246 $402 #
straight-curve $-1 51.788689840388194 0 -13.197894298789249 0 -1 0 I I #
edge $-1 $346 -33.559835985164426 $259 33.559835985164426 $257 $403 forward 7 unknown #
vertex $-1 $249 $404 #
straight-curve $-1 0 33.559835985164426 13.197894298789249 -1 0 0 I I #
straight-curve $-1 0 -33.559835985164426 13.197894298789249 1 0 0 I I #
edge $-1 $254 -13.197894298789249 $343 13.197894298789249 $251 $405 forward 7 unknown #
point $-1 51.788689840388194 -33.559835985164426 13.197894298789249 #
point $-1 51.788689840388194 33.559835985164426 13.197894298789249 #
point $-1 -51.788689840388194 -33.559835985164426 13.197894298789249 #
vertex $-1 $342 $406 #
straight-curve $-1 -51.788689840388194 0 -13.197894298789249 0 1 0 I I #
plane-surface $-1 0 0 13.197894298789249 0 0 1 1 0 0 forward_v I I I I #
coedge $-1 $272 $368 $357 $407 forward $265 $-1 #
coedge $-1 $268 $267 $356 $407 reversed $109 $-1 #
edge $-1 $364 -2.3791815495320989 $362 2.3791815495320989 $267 $408 forward 7 unknown #
coedge $-1 $280 $279 $268 $360 forward $281 $-1 #
edge $-1 $361 -2.3791815495320989 $409 2.3791815495320989 $268 $410 forward 7 unknown #
vertex $-1 $284 $411 #
vertex $-1 $274 $412 #
straight-curve $-1 -30.15126434187389 -45.40144898043755 0 0 0 -1 I I #
vertex $-1 $407 $413 #
straight-curve $-1 -25.392901242809693 -39.480642482800988 -13.197894298789249 0 -1 0 I I #
straight-curve $-1 -30.15126434187389 -39.480642482800988 -13.197894298789249 0 1 0 I I #
point $-1 -25.392901242809693 -33.559835985164426 -13.197894298789249 #
coedge $-1 $356 $277 $280 $370 reversed $265 $-1 #
straight-curve $-1 -25.392901242809693 -33.559835985164426 0 0 0 -1 I I #
edge $-1 $409 -5.920806497636562 $282 5.920806497636562 $368 $414 forward 7 unknown #
point $-1 -25.392901242809693 -33.559835985164426 13.197894298789249 #
straight-curve $-1 -30.15126434187389 -39.480642482800988 13.197894298789249 0 -1 0 I I #
edge $-1 $374 21.668657336660146 $377 26.014703445314112 $288 $415 forward 7 unknown #
vertex $-1 $302 $416 #
straight-curve $-1 -67.792275541308072 23.115612675393191 13.197894298789251 -1 0 0 I I #
edge $-1 $377 -14.94035432868856 $299 -1.4101623647207013 $298 $417 forward 7 unknown #
vertex $-1 $376 $418 #
straight-curve $-1 -51.788689840388173 23.115612675393191 8.8518481901353141 0.5877852410284794 0 0.80901700255871778 I I #
point $-1 -48.631102606230343 23.115612675393191 13.197894298789249 #
point $-1 -51.788689840388194 9.585420711425332 8.8518481901352839 #
straight-curve $-1 -51.788689840388194 0 13.197894298789249 0 -1 0 I I #
vertex $-1 $305 $419 #
point $-1 -48.282604788860041 16.350516693409254 10.860680059468949 #
coedge $-1 $310 $318 $311 $386 forward $213 $-1 #
edge $-1 $388 -18.391753326181075 $319 -11.944411991785628 $310 $420 forward 7 unknown #
edge $-1 $392 -51.788689840388194 $388 -41.787164652081479 $311 $421 forward 7 unknown #
edge $-1 $392 -13.197894298789249 $316 -4.80561802629492 $315 $422 forward 7 unknown #
vertex $-1 $385 $423 #
straight-curve $-1 -1.8960205087806301 33.559835985164426 49.852439623645431 -0.76604443648966558 0 0.64278761758704617 I I #
point $-1 51.788689840388194 33.559835985164426 4.80561802629492 #
point $-1 41.787164652081479 27.11249465076898 13.197894298789251 #
vertex $-1 $322 $424 #
straight-curve $-1 51.788689840388194 0 13.197894298789249 0 1 0 I I #
vertex $-1 $325 $425 #
point $-1 46.072048840010162 28.401962917648071 7.3707436140629543 #
vertex $-1 $329 $426 #
point $-1 46.072048840010162 30.336165317966703 7.3707436140629543 #
vertex $-1 $333 $427 #
point $-1 46.072048840010162 32.270367718285343 7.3707436140629543 #
straight-curve $-1 -51.788689840388194 33.559835985164426 0 0 0 -1 I I #
straight-curve $-1 0 33.559835985164426 -13.197894298789249 1 0 0 I I #
point $-1 51.788689840388194 33.559835985164426 -13.197894298789249 #
straight-curve $-1 -51.788689840388194 0 13.197894298789249 0 -1 0 I I #
point $-1 -51.788689840388194 33.559835985164426 13.197894298789249 #
straight-curve $-1 51.788689840388194 33.559835985164426 0 0 0 -1 I I #
point $-1 -51.788689840388194 33.559835985164426 -13.197894298789249 #
edge $-1 $409 -13.197894298789249 $364 13.197894298789249 $356 $428 forward 7 unknown #
straight-curve $-1 -27.772082792341791 -45.40144898043755 -13.197894298789249 -1 0 0 I I #
vertex $-1 $370 $429 #
straight-curve $-1 -27.772082792341791 -45.40144898043755 13.197894298789249 1 0 0 I I #
point $-1 -30.15126434187389 -45.40144898043755 13.197894298789249 #
point $-1 -30.15126434187389 -45.40144898043755 -13.197894298789249 #
point $-1 -25.392901242809693 -45.40144898043755 -13.197894298789249 #
straight-curve $-1 -25.392901242809693 -39.480642482800988 13.197894298789249 0 1 0 I I #
straight-curve $-1 -51.788689840388194 23.115612675393191 34.866551635449397 0 0 -1 I I #
point $-1 -51.788689840388194 23.115612675393191 13.197894298789249 #
straight-curve $-1 -51.788689840388194 8.1752583467046307 8.8518481901352857 0 -1 0 I I #
point $-1 -51.788689840388194 23.115612675393191 8.8518481901352839 #
point $-1 -48.0613730273298 16.350516693409254 9.4638778158817516 #
straight-curve $-1 41.787164652081472 15.168082658983352 13.197894298789258 0 -1 0 I I #
straight-curve $-1 0 33.559835985164426 13.197894298789249 -1 0 0 I I #
straight-curve $-1 51.788689840388194 33.559835985164426 0 0 0 -1 I I #
point $-1 41.787164652081479 33.559835985164426 13.197894298789251 #
point $-1 51.788689840388194 33.559835985164426 13.197894298789249 #
point $-1 45.367632812971813 28.401962917648071 7.3091152046116461 #
point $-1 45.367632812971813 30.336165317966703 7.3091152046116461 #
point $-1 45.367632812971813 32.270367718285343 7.3091152046116461 #
straight-curve $-1 -25.392901242809693 -45.40144898043755 0 0 0 -1 I I #
point $-1 -25.392901242809693 -45.40144898043755 13.197894298789249 #
End-of-ACIS-data 