500 0 10 0           
7 Unknown 11 ACIS 5.0 NT 24 Thu Mar 25 22:58:31 1999 
-1 9.9999999999999995e-007 1e-010 
body $-1 $10 $-1 $11 #
body $-1 $12 $-1 $13 #
body $-1 $14 $-1 $15 #
body $-1 $16 $-1 $17 #
body $-1 $18 $-1 $19 #
body $-1 $20 $-1 $21 #
body $-1 $22 $-1 $23 #
body $-1 $24 $-1 $25 #
body $-1 $26 $-1 $27 #
body $-1 $28 $-1 $29 #
lump $-1 $-1 $30 $0 #
transform $-1 1 0 0 0 1 0 0 0 1 55.330057679982907 36.880513620060015 13.850761820035297 1 rotate no_reflect no_shear #
lump $-1 $-1 $31 $1 #
transform $-1 1 0 0 0 1 0 0 0 1 7.5860217114616315 36.880513620060015 14.02872685378596 1 rotate no_reflect no_shear #
lump $-1 $-1 $32 $2 #
transform $-1 1 0 0 0 1 0 0 0 1 103.36563301516205 6.7683296197696974 13.850761820035297 1 rotate no_reflect no_shear #
lump $-1 $-1 $33 $3 #
transform $-1 1 0 0 0 0.77714595512881146 0.62932039886446345 0 -0.62932039886446345 0.77714595512881146 42.903149364260088 -69.640667936721229 106.85130781014962 1 rotate no_reflect no_shear #
lump $-1 $-1 $34 $4 #
transform $-1 1 0 0 0 -0.77714595512881146 -0.62932039886446345 0 0.62932039886446345 -0.77714595512881146 42.903149364260081 6.630137950991398 21.311820912207345 1 rotate no_reflect no_shear #
lump $-1 $-1 $35 $5 #
transform $-1 1 0 0 0 0.77714595512881146 0.62932039886446345 0 -0.62932039886446345 0.77714595512881146 83.352702987977608 -69.640667936721229 106.85130781014962 1 rotate no_reflect no_shear #
lump $-1 $-1 $36 $6 #
transform $-1 1 0 0 0 -0.77714595512881146 -0.62932039886446345 0 0.62932039886446345 -0.77714595512881146 83.352702987977594 6.630137950991398 21.311820912207345 1 rotate no_reflect no_shear #
lump $-1 $-1 $37 $7 #
transform $-1 1 0 0 0 0.68199835119979291 -0.73135370988377701 0 0.73135370988377701 0.68199835119979291 46.513241281458903 104.38781418423288 152.43072967379035 1 rotate no_reflect no_shear #
lump $-1 $-1 $38 $8 #
transform $-1 1 0 0 0 -0.68199835119979291 0.73135370988377701 0 -0.73135370988377701 -0.68199835119979291 42.162351439595923 69.482139524008375 23.405818741432341 1 rotate no_reflect no_shear #
lump $-1 $-1 $39 $9 #
transform $-1 1 0 0 0 -0.68199835119979291 0.73135370988377701 0 -0.73135370988377701 -0.68199835119979291 50.864131123321897 69.482139524008375 23.405818741432341 1 rotate no_reflect no_shear #
shell $-1 $-1 $-1 $40 $-1 $10 #
shell $-1 $-1 $-1 $41 $-1 $12 #
shell $-1 $-1 $-1 $42 $-1 $14 #
shell $-1 $-1 $-1 $43 $-1 $16 #
shell $-1 $-1 $-1 $44 $-1 $18 #
shell $-1 $-1 $-1 $45 $-1 $20 #
shell $-1 $-1 $-1 $46 $-1 $22 #
shell $-1 $-1 $-1 $47 $-1 $24 #
shell $-1 $-1 $-1 $48 $-1 $26 #
shell $-1 $-1 $-1 $49 $-1 $28 #
face $-1 $50 $51 $30 $-1 $52 forward single #
face $-1 $53 $54 $31 $-1 $55 forward single #
face $-1 $56 $57 $32 $-1 $58 forward single #
face $-1 $59 $60 $33 $-1 $61 forward single #
face $-1 $62 $63 $34 $-1 $64 forward single #
face $-1 $65 $66 $35 $-1 $67 forward single #
face $-1 $68 $69 $36 $-1 $70 forward single #
face $-1 $71 $72 $37 $-1 $73 forward single #
face $-1 $74 $75 $38 $-1 $76 forward single #
face $-1 $77 $78 $39 $-1 $79 forward single #
face $-1 $80 $81 $30 $-1 $82 reversed single #
loop $-1 $-1 $83 $40 #
plane-surface $-1 0 0 13.850761820035297 0 0 1 1 0 0 forward_v I I I I #
face $-1 $84 $85 $31 $-1 $86 reversed single #
loop $-1 $-1 $87 $41 #
plane-surface $-1 0 0 2.6580933729950242 0 0 1 1 0 0 forward_v I I I I #
face $-1 $88 $89 $32 $-1 $90 reversed single #
loop $-1 $-1 $91 $42 #
plane-surface $-1 0 0 13.850761820035297 0 0 1 1 0 0 forward_v I I I I #
face $-1 $92 $93 $33 $-1 $94 reversed single #
loop $-1 $-1 $95 $43 #
plane-surface $-1 0 0 110.66011535996581 0 0 1 1 0 0 forward_v I I I I #
face $-1 $96 $97 $34 $-1 $98 forward single #
loop $-1 $99 $100 $44 #
cone-surface $-1 0 0 -2.2826624347666851 0 0 1 1.5 0 0 1 I I 0 1 1.5 forward I I I I #
face $-1 $101 $102 $35 $-1 $103 reversed single #
loop $-1 $-1 $104 $45 #
plane-surface $-1 0 0 110.66011535996581 0 0 1 1 0 0 forward_v I I I I #
face $-1 $105 $106 $36 $-1 $107 forward single #
loop $-1 $108 $109 $46 #
cone-surface $-1 0 0 -2.2826624347666851 0 0 1 1.5 0 0 1 I I 0 1 1.5 forward I I I I #
face $-1 $110 $111 $37 $-1 $112 reversed single #
loop $-1 $-1 $113 $47 #
plane-surface $-1 0 0 110.66011535996581 0 0 1 1 0 0 forward_v I I I I #
face $-1 $114 $115 $38 $-1 $116 forward single #
loop $-1 $117 $118 $48 #
cone-surface $-1 0 0 -1.8065279091769177 0 0 1 1.5 0 0 1 I I 0 1 1.5 forward I I I I #
face $-1 $119 $120 $39 $-1 $121 forward single #
loop $-1 $122 $123 $49 #
cone-surface $-1 0 0 -1.8065279091769177 0 0 1 1.5 0 0 1 I I 0 1 1.5 forward I I I I #
face $-1 $124 $125 $30 $-1 $126 reversed single #
loop $-1 $-1 $127 $50 #
plane-surface $-1 0 0 -13.850761820035297 0 0 1 1 0 0 forward_v I I I I #
coedge $-1 $128 $129 $130 $131 forward $51 $-1 #
face $-1 $132 $133 $31 $-1 $134 reversed single #
loop $-1 $-1 $135 $53 #
plane-surface $-1 0 0 -2.6580933729950242 0 0 1 1 0 0 forward_v I I I I #
coedge $-1 $136 $137 $138 $139 forward $54 $-1 #
face $-1 $140 $141 $32 $-1 $142 reversed single #
loop $-1 $-1 $143 $56 #
plane-surface $-1 0 0 -13.850761820035297 0 0 1 1 0 0 forward_v I I I I #
coedge $-1 $144 $145 $146 $147 forward $57 $-1 #
face $-1 $148 $149 $33 $-1 $150 reversed single #
loop $-1 $-1 $151 $59 #
plane-surface $-1 0 0 -110.66011535996581 0 0 1 1 0 0 forward_v I I I I #
coedge $-1 $152 $153 $154 $155 forward $60 $-1 #
face $-1 $-1 $156 $34 $-1 $157 forward single #
loop $-1 $-1 $158 $62 #
plane-surface $-1 0 0 -3.8153248695333719 0 0 -1 -1 0 0 forward_v I I I I #
loop $-1 $-1 $159 $44 #
coedge $-1 $100 $100 $158 $160 reversed $63 $-1 #
face $-1 $161 $162 $35 $-1 $163 reversed single #
loop $-1 $-1 $164 $65 #
plane-surface $-1 0 0 -110.66011535996581 0 0 1 1 0 0 forward_v I I I I #
coedge $-1 $165 $166 $167 $168 forward $66 $-1 #
face $-1 $-1 $169 $36 $-1 $170 forward single #
loop $-1 $-1 $171 $68 #
plane-surface $-1 0 0 -3.8153248695333719 0 0 -1 -1 0 0 forward_v I I I I #
loop $-1 $-1 $172 $46 #
coedge $-1 $109 $109 $171 $173 reversed $69 $-1 #
face $-1 $174 $175 $37 $-1 $176 reversed single #
loop $-1 $-1 $177 $71 #
plane-surface $-1 0 0 -110.66011535996581 0 0 1 1 0 0 forward_v I I I I #
coedge $-1 $178 $179 $180 $181 forward $72 $-1 #
face $-1 $-1 $182 $38 $-1 $183 forward single #
loop $-1 $-1 $184 $74 #
plane-surface $-1 0 0 -2.8630558183538337 0 0 -1 -1 0 0 forward_v I I I I #
loop $-1 $-1 $185 $48 #
coedge $-1 $118 $118 $184 $186 reversed $75 $-1 #
face $-1 $-1 $187 $39 $-1 $188 forward single #
loop $-1 $-1 $189 $77 #
plane-surface $-1 0 0 -2.8630558183538337 0 0 -1 -1 0 0 forward_v I I I I #
loop $-1 $-1 $190 $49 #
coedge $-1 $123 $123 $189 $191 reversed $78 $-1 #
face $-1 $192 $193 $30 $-1 $194 reversed single #
loop $-1 $-1 $195 $80 #
plane-surface $-1 0 -36.880513620060015 0 0 1 0 0 0 1 forward_v I I I I #
coedge $-1 $196 $197 $198 $199 forward $81 $-1 #
coedge $-1 $200 $83 $201 $202 forward $51 $-1 #
coedge $-1 $83 $200 $203 $204 forward $51 $-1 #
coedge $-1 $205 $206 $83 $131 reversed $207 $-1 #
edge $-1 $208 -36.880513620060015 $209 36.880513620060015 $130 $210 forward 7 unknown #
face $-1 $211 $212 $31 $-1 $213 reversed single #
loop $-1 $-1 $214 $84 #
plane-surface $-1 0 -36.880513620060015 0 0 1 0 0 0 1 forward_v I I I I #
coedge $-1 $215 $216 $217 $218 forward $85 $-1 #
coedge $-1 $219 $87 $220 $221 forward $54 $-1 #
coedge $-1 $87 $219 $222 $223 forward $54 $-1 #
coedge $-1 $224 $225 $87 $139 reversed $226 $-1 #
edge $-1 $227 -36.880513620060015 $228 36.880513620060015 $138 $229 forward 7 unknown #
face $-1 $230 $231 $32 $-1 $232 reversed single #
loop $-1 $-1 $233 $88 #
plane-surface $-1 0 -3.9124270204077485 0 0 1 0 0 0 1 forward_v I I I I #
coedge $-1 $234 $235 $236 $237 forward $89 $-1 #
coedge $-1 $238 $91 $239 $240 forward $57 $-1 #
coedge $-1 $91 $238 $241 $242 forward $57 $-1 #
coedge $-1 $243 $244 $91 $147 reversed $245 $-1 #
edge $-1 $246 -3.9124270204077485 $247 3.9124270204077485 $146 $248 forward 7 unknown #
face $-1 $249 $250 $33 $-1 $251 reversed single #
loop $-1 $-1 $252 $92 #
plane-surface $-1 0 -221.32023071993163 0 0 1 0 0 0 1 forward_v I I I I #
coedge $-1 $253 $254 $255 $256 forward $93 $-1 #
coedge $-1 $257 $95 $258 $259 forward $60 $-1 #
coedge $-1 $95 $257 $260 $261 forward $60 $-1 #
coedge $-1 $262 $263 $95 $155 reversed $264 $-1 #
edge $-1 $265 -221.32023071993163 $266 221.32023071993163 $154 $267 forward 7 unknown #
loop $-1 $268 $269 $96 #
cone-surface $-1 0 0 0 0 0 1 0.75 0 0 1 I I -0.70710678118654757 0.70710678118654757 0.75 forward I I I I #
coedge $-1 $158 $158 $100 $160 forward $97 $-1 #
coedge $-1 $159 $159 $269 $270 forward $99 $-1 #
edge $-1 $271 0 $271 6.2831853071796004 $158 $272 forward 7 unknown #
face $-1 $273 $274 $35 $-1 $275 reversed single #
loop $-1 $-1 $276 $101 #
plane-surface $-1 0 -221.32023071993163 0 0 1 0 0 0 1 forward_v I I I I #
coedge $-1 $277 $278 $279 $280 forward $102 $-1 #
coedge $-1 $281 $104 $282 $283 forward $66 $-1 #
coedge $-1 $104 $281 $284 $285 forward $66 $-1 #
coedge $-1 $286 $287 $104 $168 reversed $288 $-1 #
edge $-1 $289 -221.32023071993163 $290 221.32023071993163 $167 $291 forward 7 unknown #
loop $-1 $292 $293 $105 #
cone-surface $-1 0 0 0 0 0 1 0.75 0 0 1 I I -0.70710678118654757 0.70710678118654757 0.75 forward I I I I #
coedge $-1 $171 $171 $109 $173 forward $106 $-1 #
coedge $-1 $172 $172 $293 $294 forward $108 $-1 #
edge $-1 $295 0 $295 6.2831853071796004 $171 $296 forward 7 unknown #
face $-1 $297 $298 $37 $-1 $299 reversed single #
loop $-1 $-1 $300 $110 #
plane-surface $-1 0 -221.32023071993163 0 0 1 0 0 0 1 forward_v I I I I #
coedge $-1 $301 $302 $303 $304 forward $111 $-1 #
coedge $-1 $305 $113 $306 $307 forward $72 $-1 #
coedge $-1 $113 $305 $308 $309 forward $72 $-1 #
coedge $-1 $310 $311 $113 $181 reversed $312 $-1 #
edge $-1 $313 -221.32023071993163 $314 221.32023071993163 $180 $315 forward 7 unknown #
loop $-1 $316 $317 $114 #
cone-surface $-1 0 0 0 0 0 1 0.75 0 0 1 I I -0.70710678118654757 0.70710678118654757 0.75 forward I I I I #
coedge $-1 $184 $184 $118 $186 forward $115 $-1 #
coedge $-1 $185 $185 $317 $318 forward $117 $-1 #
edge $-1 $319 0 $319 6.2831853071796004 $184 $320 forward 7 unknown #
loop $-1 $321 $322 $119 #
cone-surface $-1 0 0 0 0 0 1 0.75 0 0 1 I I -0.70710678118654757 0.70710678118654757 0.75 forward I I I I #
coedge $-1 $189 $189 $123 $191 forward $120 $-1 #
coedge $-1 $190 $190 $322 $323 forward $122 $-1 #
edge $-1 $324 0 $324 6.2831853071796004 $189 $325 forward 7 unknown #
face $-1 $326 $327 $30 $-1 $328 reversed single #
loop $-1 $-1 $329 $124 #
plane-surface $-1 -55.330057679982907 0 0 1 0 0 0 0 -1 forward_v I I I I #
coedge $-1 $330 $203 $331 $332 forward $125 $-1 #
coedge $-1 $333 $127 $330 $334 forward $81 $-1 #
coedge $-1 $127 $333 $335 $336 forward $81 $-1 #
coedge $-1 $206 $205 $127 $199 reversed $207 $-1 #
edge $-1 $337 -36.880513620060015 $338 36.880513620060015 $198 $339 forward 7 unknown #
coedge $-1 $129 $128 $340 $341 forward $51 $-1 #
coedge $-1 $342 $343 $128 $202 reversed $327 $-1 #
edge $-1 $209 -55.330057679982907 $344 55.330057679982907 $201 $345 forward 7 unknown #
coedge $-1 $195 $346 $129 $204 reversed $125 $-1 #
edge $-1 $347 -55.330057679982907 $208 55.330057679982907 $203 $348 forward 7 unknown #
coedge $-1 $198 $130 $346 $349 forward $207 $-1 #
coedge $-1 $130 $198 $342 $350 reversed $207 $-1 #
loop $-1 $-1 $205 $326 #
vertex $-1 $131 $351 #
vertex $-1 $131 $352 #
straight-curve $-1 55.330057679982907 0 13.850761820035297 0 1 0 I I #
face $-1 $353 $354 $31 $-1 $355 reversed single #
loop $-1 $-1 $356 $132 #
plane-surface $-1 -7.5860217114616315 0 0 1 0 0 0 0 -1 forward_v I I I I #
coedge $-1 $357 $222 $358 $359 forward $133 $-1 #
coedge $-1 $360 $135 $357 $361 forward $85 $-1 #
coedge $-1 $135 $360 $362 $363 forward $85 $-1 #
coedge $-1 $225 $224 $135 $218 reversed $226 $-1 #
edge $-1 $364 -36.880513620060015 $365 36.880513620060015 $217 $366 forward 7 unknown #
coedge $-1 $137 $136 $367 $368 forward $54 $-1 #
coedge $-1 $369 $370 $136 $221 reversed $354 $-1 #
edge $-1 $228 -7.5860217114616315 $371 7.5860217114616315 $220 $372 forward 7 unknown #
coedge $-1 $214 $373 $137 $223 reversed $133 $-1 #
edge $-1 $374 -7.5860217114616315 $227 7.5860217114616315 $222 $375 forward 7 unknown #
coedge $-1 $217 $138 $373 $376 forward $226 $-1 #
coedge $-1 $138 $217 $369 $377 reversed $226 $-1 #
loop $-1 $-1 $224 $353 #
vertex $-1 $139 $378 #
vertex $-1 $139 $379 #
straight-curve $-1 7.5860217114616315 0 2.6580933729950242 0 1 0 I I #
face $-1 $380 $381 $32 $-1 $382 reversed single #
loop $-1 $-1 $383 $140 #
plane-surface $-1 -7.294482344803761 0 0 1 0 0 0 0 -1 forward_v I I I I #
coedge $-1 $384 $241 $385 $386 forward $141 $-1 #
coedge $-1 $387 $143 $384 $388 forward $89 $-1 #
coedge $-1 $143 $387 $389 $390 forward $89 $-1 #
coedge $-1 $244 $243 $143 $237 reversed $245 $-1 #
edge $-1 $391 -3.9124270204077485 $392 3.9124270204077485 $236 $393 forward 7 unknown #
coedge $-1 $145 $144 $394 $395 forward $57 $-1 #
coedge $-1 $396 $397 $144 $240 reversed $381 $-1 #
edge $-1 $247 -7.294482344803761 $398 7.294482344803761 $239 $399 forward 7 unknown #
coedge $-1 $233 $400 $145 $242 reversed $141 $-1 #
edge $-1 $401 -7.294482344803761 $246 7.294482344803761 $241 $402 forward 7 unknown #
coedge $-1 $236 $146 $400 $403 forward $245 $-1 #
coedge $-1 $146 $236 $396 $404 reversed $245 $-1 #
loop $-1 $-1 $243 $380 #
vertex $-1 $147 $405 #
vertex $-1 $147 $406 #
straight-curve $-1 7.294482344803761 0 13.850761820035297 0 1 0 I I #
face $-1 $407 $408 $33 $-1 $409 reversed single #
loop $-1 $-1 $410 $148 #
plane-surface $-1 -6.9282220612222964 0 0 1 0 0 0 0 -1 forward_v I I I I #
coedge $-1 $411 $260 $412 $413 forward $149 $-1 #
coedge $-1 $414 $151 $411 $415 forward $93 $-1 #
coedge $-1 $151 $414 $416 $417 forward $93 $-1 #
coedge $-1 $263 $262 $151 $256 reversed $264 $-1 #
edge $-1 $418 -221.32023071993163 $419 221.32023071993163 $255 $420 forward 7 unknown #
coedge $-1 $153 $152 $421 $422 forward $60 $-1 #
coedge $-1 $423 $424 $152 $259 reversed $408 $-1 #
edge $-1 $266 -6.9282220612222964 $425 6.9282220612222964 $258 $426 forward 7 unknown #
coedge $-1 $252 $427 $153 $261 reversed $149 $-1 #
edge $-1 $428 -6.9282220612222964 $265 6.9282220612222964 $260 $429 forward 7 unknown #
coedge $-1 $255 $154 $427 $430 forward $264 $-1 #
coedge $-1 $154 $255 $423 $431 reversed $264 $-1 #
loop $-1 $-1 $262 $407 #
vertex $-1 $155 $432 #
vertex $-1 $155 $433 #
straight-curve $-1 6.9282220612222964 0 110.66011535996581 0 1 0 I I #
loop $-1 $-1 $434 $96 #
coedge $-1 $269 $269 $159 $270 reversed $156 $-1 #
edge $-1 $435 0 $435 6.2831853071796004 $269 $436 forward 7 unknown #
vertex $-1 $160 $437 #
ellipse-curve $-1 0 0 -3.8153248695333719 0 0 -1 1.5 0 0 1 I I #
face $-1 $438 $439 $35 $-1 $440 reversed single #
loop $-1 $-1 $441 $161 #
plane-surface $-1 -6.9282220612222964 0 0 1 0 0 0 0 -1 forward_v I I I I #
coedge $-1 $442 $284 $443 $444 forward $162 $-1 #
coedge $-1 $445 $164 $442 $446 forward $102 $-1 #
coedge $-1 $164 $445 $447 $448 forward $102 $-1 #
coedge $-1 $287 $286 $164 $280 reversed $288 $-1 #
edge $-1 $449 -221.32023071993163 $450 221.32023071993163 $279 $451 forward 7 unknown #
coedge $-1 $166 $165 $452 $453 forward $66 $-1 #
coedge $-1 $454 $455 $165 $283 reversed $439 $-1 #
edge $-1 $290 -6.9282220612222964 $456 6.9282220612222964 $282 $457 forward 7 unknown #
coedge $-1 $276 $458 $166 $285 reversed $162 $-1 #
edge $-1 $459 -6.9282220612222964 $289 6.9282220612222964 $284 $460 forward 7 unknown #
coedge $-1 $279 $167 $458 $461 forward $288 $-1 #
coedge $-1 $167 $279 $454 $462 reversed $288 $-1 #
loop $-1 $-1 $286 $438 #
vertex $-1 $168 $463 #
vertex $-1 $168 $464 #
straight-curve $-1 6.9282220612222964 0 110.66011535996581 0 1 0 I I #
loop $-1 $-1 $465 $105 #
coedge $-1 $293 $293 $172 $294 reversed $169 $-1 #
edge $-1 $466 0 $466 6.2831853071796004 $293 $467 forward 7 unknown #
vertex $-1 $173 $468 #
ellipse-curve $-1 0 0 -3.8153248695333719 0 0 -1 1.5 0 0 1 I I #
face $-1 $469 $470 $37 $-1 $471 reversed single #
loop $-1 $-1 $472 $174 #
plane-surface $-1 -10.152076297680299 0 0 1 0 0 0 0 -1 forward_v I I I I #
coedge $-1 $473 $308 $474 $475 forward $175 $-1 #
coedge $-1 $476 $177 $473 $477 forward $111 $-1 #
coedge $-1 $177 $476 $478 $479 forward $111 $-1 #
coedge $-1 $311 $310 $177 $304 reversed $312 $-1 #
edge $-1 $480 -221.32023071993163 $481 221.32023071993163 $303 $482 forward 7 unknown #
coedge $-1 $179 $178 $483 $484 forward $72 $-1 #
coedge $-1 $485 $486 $178 $307 reversed $470 $-1 #
edge $-1 $314 -10.152076297680299 $487 10.152076297680299 $306 $488 forward 7 unknown #
coedge $-1 $300 $489 $179 $309 reversed $175 $-1 #
edge $-1 $490 -10.152076297680299 $313 10.152076297680299 $308 $491 forward 7 unknown #
coedge $-1 $303 $180 $489 $492 forward $312 $-1 #
coedge $-1 $180 $303 $485 $493 reversed $312 $-1 #
loop $-1 $-1 $310 $469 #
vertex $-1 $181 $494 #
vertex $-1 $181 $495 #
straight-curve $-1 10.152076297680299 0 110.66011535996581 0 1 0 I I #
loop $-1 $-1 $496 $114 #
coedge $-1 $317 $317 $185 $318 reversed $182 $-1 #
edge $-1 $497 0 $497 6.2831853071796004 $317 $498 forward 7 unknown #
vertex $-1 $186 $499 #
ellipse-curve $-1 0 0 -2.8630558183538337 0 0 -1 1.5 0 0 1 I I #
loop $-1 $-1 $500 $119 #
coedge $-1 $322 $322 $190 $323 reversed $187 $-1 #
edge $-1 $501 0 $501 6.2831853071796004 $322 $502 forward 7 unknown #
vertex $-1 $191 $503 #
ellipse-curve $-1 0 0 -2.8630558183538337 0 0 -1 1.5 0 0 1 I I #
face $-1 $-1 $207 $30 $-1 $504 reversed single #
loop $-1 $-1 $342 $192 #
plane-surface $-1 0 36.880513620060015 0 0 -1 0 0 0 -1 forward_v I I I I #
coedge $-1 $505 $340 $343 $506 forward $193 $-1 #
coedge $-1 $346 $195 $196 $334 reversed $125 $-1 #
coedge $-1 $340 $505 $195 $332 reversed $193 $-1 #
edge $-1 $347 -13.850761820035297 $507 13.850761820035297 $331 $508 forward 7 unknown #
coedge $-1 $197 $196 $505 $509 forward $81 $-1 #
edge $-1 $338 -55.330057679982907 $507 55.330057679982907 $330 $510 forward 7 unknown #
coedge $-1 $343 $342 $197 $336 reversed $327 $-1 #
edge $-1 $511 -55.330057679982907 $337 55.330057679982907 $335 $512 forward 7 unknown #
vertex $-1 $199 $513 #
vertex $-1 $349 $514 #
straight-curve $-1 55.330057679982907 0 -13.850761820035297 0 -1 0 I I #
coedge $-1 $329 $331 $200 $341 reversed $193 $-1 #
edge $-1 $344 -36.880513620060015 $347 36.880513620060015 $340 $515 forward 7 unknown #
coedge $-1 $335 $201 $206 $350 forward $327 $-1 #
coedge $-1 $201 $335 $329 $506 reversed $327 $-1 #
vertex $-1 $202 $516 #
straight-curve $-1 0 36.880513620060015 13.850761820035297 -1 0 0 I I #
coedge $-1 $203 $330 $205 $349 reversed $125 $-1 #
vertex $-1 $341 $517 #
straight-curve $-1 0 -36.880513620060015 13.850761820035297 1 0 0 I I #
edge $-1 $208 -13.850761820035297 $338 13.850761820035297 $205 $518 forward 7 unknown #
edge $-1 $209 -13.850761820035297 $337 13.850761820035297 $206 $519 forward 7 unknown #
point $-1 55.330057679982907 -36.880513620060015 13.850761820035297 #
point $-1 55.330057679982907 36.880513620060015 13.850761820035297 #
face $-1 $-1 $226 $31 $-1 $520 reversed single #
loop $-1 $-1 $369 $211 #
plane-surface $-1 0 36.880513620060015 0 0 -1 0 0 0 -1 forward_v I I I I #
coedge $-1 $521 $367 $370 $522 forward $212 $-1 #
coedge $-1 $373 $214 $215 $361 reversed $133 $-1 #
coedge $-1 $367 $521 $214 $359 reversed $212 $-1 #
edge $-1 $374 -2.6580933729950242 $523 2.6580933729950242 $358 $524 forward 7 unknown #
coedge $-1 $216 $215 $521 $525 forward $85 $-1 #
edge $-1 $365 -7.5860217114616315 $523 7.5860217114616315 $357 $526 forward 7 unknown #
coedge $-1 $370 $369 $216 $363 reversed $354 $-1 #
edge $-1 $527 -7.5860217114616315 $364 7.5860217114616315 $362 $528 forward 7 unknown #
vertex $-1 $218 $529 #
vertex $-1 $376 $530 #
straight-curve $-1 7.5860217114616315 0 -2.6580933729950242 0 -1 0 I I #
coedge $-1 $356 $358 $219 $368 reversed $212 $-1 #
edge $-1 $371 -36.880513620060015 $374 36.880513620060015 $367 $531 forward 7 unknown #
coedge $-1 $362 $220 $225 $377 forward $354 $-1 #
coedge $-1 $220 $362 $356 $522 reversed $354 $-1 #
vertex $-1 $221 $532 #
straight-curve $-1 0 36.880513620060015 2.6580933729950242 -1 0 0 I I #
coedge $-1 $222 $357 $224 $376 reversed $133 $-1 #
vertex $-1 $368 $533 #
straight-curve $-1 0 -36.880513620060015 2.6580933729950242 1 0 0 I I #
edge $-1 $227 -2.6580933729950242 $365 2.6580933729950242 $224 $534 forward 7 unknown #
edge $-1 $228 -2.6580933729950242 $364 2.6580933729950242 $225 $535 forward 7 unknown #
point $-1 7.5860217114616315 -36.880513620060015 2.6580933729950242 #
point $-1 7.5860217114616315 36.880513620060015 2.6580933729950242 #
face $-1 $-1 $245 $32 $-1 $536 reversed single #
loop $-1 $-1 $396 $230 #
plane-surface $-1 0 3.9124270204077485 0 0 -1 0 0 0 -1 forward_v I I I I #
coedge $-1 $537 $394 $397 $538 forward $231 $-1 #
coedge $-1 $400 $233 $234 $388 reversed $141 $-1 #
coedge $-1 $394 $537 $233 $386 reversed $231 $-1 #
edge $-1 $401 -13.850761820035297 $539 13.850761820035297 $385 $540 forward 7 unknown #
coedge $-1 $235 $234 $537 $541 forward $89 $-1 #
edge $-1 $392 -7.294482344803761 $539 7.294482344803761 $384 $542 forward 7 unknown #
coedge $-1 $397 $396 $235 $390 reversed $381 $-1 #
edge $-1 $543 -7.294482344803761 $391 7.294482344803761 $389 $544 forward 7 unknown #
vertex $-1 $237 $545 #
vertex $-1 $403 $546 #
straight-curve $-1 7.294482344803761 0 -13.850761820035297 0 -1 0 I I #
coedge $-1 $383 $385 $238 $395 reversed $231 $-1 #
edge $-1 $398 -3.9124270204077485 $401 3.9124270204077485 $394 $547 forward 7 unknown #
coedge $-1 $389 $239 $244 $404 forward $381 $-1 #
coedge $-1 $239 $389 $383 $538 reversed $381 $-1 #
vertex $-1 $240 $548 #
straight-curve $-1 0 3.9124270204077485 13.850761820035297 -1 0 0 I I #
coedge $-1 $241 $384 $243 $403 reversed $141 $-1 #
vertex $-1 $395 $549 #
straight-curve $-1 0 -3.9124270204077485 13.850761820035297 1 0 0 I I #
edge $-1 $246 -13.850761820035297 $392 13.850761820035297 $243 $550 forward 7 unknown #
edge $-1 $247 -13.850761820035297 $391 13.850761820035297 $244 $551 forward 7 unknown #
point $-1 7.294482344803761 -3.9124270204077485 13.850761820035297 #
point $-1 7.294482344803761 3.9124270204077485 13.850761820035297 #
face $-1 $-1 $264 $33 $-1 $552 reversed single #
loop $-1 $-1 $423 $249 #
plane-surface $-1 0 221.32023071993163 0 0 -1 0 0 0 -1 forward_v I I I I #
coedge $-1 $553 $421 $424 $554 forward $250 $-1 #
coedge $-1 $427 $252 $253 $415 reversed $149 $-1 #
coedge $-1 $421 $553 $252 $413 reversed $250 $-1 #
edge $-1 $428 -110.66011535996581 $555 110.66011535996581 $412 $556 forward 7 unknown #
coedge $-1 $254 $253 $553 $557 forward $93 $-1 #
edge $-1 $419 -6.9282220612222964 $555 6.9282220612222964 $411 $558 forward 7 unknown #
coedge $-1 $424 $423 $254 $417 reversed $408 $-1 #
edge $-1 $559 -6.9282220612222964 $418 6.9282220612222964 $416 $560 forward 7 unknown #
vertex $-1 $256 $561 #
vertex $-1 $430 $562 #
straight-curve $-1 6.9282220612222964 0 -110.66011535996581 0 -1 0 I I #
coedge $-1 $410 $412 $257 $422 reversed $250 $-1 #
edge $-1 $425 -221.32023071993163 $428 221.32023071993163 $421 $563 forward 7 unknown #
coedge $-1 $416 $258 $263 $431 forward $408 $-1 #
coedge $-1 $258 $416 $410 $554 reversed $408 $-1 #
vertex $-1 $259 $564 #
straight-curve $-1 0 221.32023071993163 110.66011535996581 -1 0 0 I I #
coedge $-1 $260 $411 $262 $430 reversed $149 $-1 #
vertex $-1 $422 $565 #
straight-curve $-1 0 -221.32023071993163 110.66011535996581 1 0 0 I I #
edge $-1 $265 -110.66011535996581 $419 110.66011535996581 $262 $566 forward 7 unknown #
edge $-1 $266 -110.66011535996581 $418 110.66011535996581 $263 $567 forward 7 unknown #
point $-1 6.9282220612222964 -221.32023071993163 110.66011535996581 #
point $-1 6.9282220612222964 221.32023071993163 110.66011535996581 #
coedge $-1 $434 $434 $-1 $568 reversed $268 $-1 #
vertex $-1 $270 $569 #
ellipse-curve $-1 0 0 -0.75 0 0 -1 1.5 0 0 1 I I #
point $-1 1.5 0 -3.8153248695333719 #
face $-1 $-1 $288 $35 $-1 $570 reversed single #
loop $-1 $-1 $454 $273 #
plane-surface $-1 0 221.32023071993163 0 0 -1 0 0 0 -1 forward_v I I I I #
coedge $-1 $571 $452 $455 $572 forward $274 $-1 #
coedge $-1 $458 $276 $277 $446 reversed $162 $-1 #
coedge $-1 $452 $571 $276 $444 reversed $274 $-1 #
edge $-1 $459 -110.66011535996581 $573 110.66011535996581 $443 $574 forward 7 unknown #
coedge $-1 $278 $277 $571 $575 forward $102 $-1 #
edge $-1 $450 -6.9282220612222964 $573 6.9282220612222964 $442 $576 forward 7 unknown #
coedge $-1 $455 $454 $278 $448 reversed $439 $-1 #
edge $-1 $577 -6.9282220612222964 $449 6.9282220612222964 $447 $578 forward 7 unknown #
vertex $-1 $280 $579 #
vertex $-1 $461 $580 #
straight-curve $-1 6.9282220612222964 0 -110.66011535996581 0 -1 0 I I #
coedge $-1 $441 $443 $281 $453 reversed $274 $-1 #
edge $-1 $456 -221.32023071993163 $459 221.32023071993163 $452 $581 forward 7 unknown #
coedge $-1 $447 $282 $287 $462 forward $439 $-1 #
coedge $-1 $282 $447 $441 $572 reversed $439 $-1 #
vertex $-1 $283 $582 #
straight-curve $-1 0 221.32023071993163 110.66011535996581 -1 0 0 I I #
coedge $-1 $284 $442 $286 $461 reversed $162 $-1 #
vertex $-1 $453 $583 #
straight-curve $-1 0 -221.32023071993163 110.66011535996581 1 0 0 I I #
edge $-1 $289 -110.66011535996581 $450 110.66011535996581 $286 $584 forward 7 unknown #
edge $-1 $290 -110.66011535996581 $449 110.66011535996581 $287 $585 forward 7 unknown #
point $-1 6.9282220612222964 -221.32023071993163 110.66011535996581 #
point $-1 6.9282220612222964 221.32023071993163 110.66011535996581 #
coedge $-1 $465 $465 $-1 $586 reversed $292 $-1 #
vertex $-1 $294 $587 #
ellipse-curve $-1 0 0 -0.75 0 0 -1 1.5 0 0 1 I I #
point $-1 1.5 0 -3.8153248695333719 #
face $-1 $-1 $312 $37 $-1 $588 reversed single #
loop $-1 $-1 $485 $297 #
plane-surface $-1 0 221.32023071993163 0 0 -1 0 0 0 -1 forward_v I I I I #
coedge $-1 $589 $483 $486 $590 forward $298 $-1 #
coedge $-1 $489 $300 $301 $477 reversed $175 $-1 #
coedge $-1 $483 $589 $300 $475 reversed $298 $-1 #
edge $-1 $490 -110.66011535996581 $591 110.66011535996581 $474 $592 forward 7 unknown #
coedge $-1 $302 $301 $589 $593 forward $111 $-1 #
edge $-1 $481 -10.152076297680299 $591 10.152076297680299 $473 $594 forward 7 unknown #
coedge $-1 $486 $485 $302 $479 reversed $470 $-1 #
edge $-1 $595 -10.152076297680299 $480 10.152076297680299 $478 $596 forward 7 unknown #
vertex $-1 $304 $597 #
vertex $-1 $492 $598 #
straight-curve $-1 10.152076297680299 0 -110.66011535996581 0 -1 0 I I #
coedge $-1 $472 $474 $305 $484 reversed $298 $-1 #
edge $-1 $487 -221.32023071993163 $490 221.32023071993163 $483 $599 forward 7 unknown #
coedge $-1 $478 $306 $311 $493 forward $470 $-1 #
coedge $-1 $306 $478 $472 $590 reversed $470 $-1 #
vertex $-1 $307 $600 #
straight-curve $-1 0 221.32023071993163 110.66011535996581 -1 0 0 I I #
coedge $-1 $308 $473 $310 $492 reversed $175 $-1 #
vertex $-1 $484 $601 #
straight-curve $-1 0 -221.32023071993163 110.66011535996581 1 0 0 I I #
edge $-1 $313 -110.66011535996581 $481 110.66011535996581 $310 $602 forward 7 unknown #
edge $-1 $314 -110.66011535996581 $480 110.66011535996581 $311 $603 forward 7 unknown #
point $-1 10.152076297680299 -221.32023071993163 110.66011535996581 #
point $-1 10.152076297680299 221.32023071993163 110.66011535996581 #
coedge $-1 $496 $496 $-1 $604 reversed $316 $-1 #
vertex $-1 $318 $605 #
ellipse-curve $-1 0 0 -0.75 0 0 -1 1.5 0 0 1 I I #
point $-1 1.5 0 -2.8630558183538337 #
coedge $-1 $500 $500 $-1 $606 reversed $321 $-1 #
vertex $-1 $323 $607 #
ellipse-curve $-1 0 0 -0.75 0 0 -1 1.5 0 0 1 I I #
point $-1 1.5 0 -2.8630558183538337 #
plane-surface $-1 55.330057679982907 0 0 -1 0 0 0 0 1 forward_v I I I I #
coedge $-1 $331 $329 $333 $509 reversed $193 $-1 #
edge $-1 $344 -13.850761820035297 $511 13.850761820035297 $343 $608 forward 7 unknown #
vertex $-1 $509 $609 #
straight-curve $-1 -55.330057679982907 -36.880513620060015 0 0 0 -1 I I #
edge $-1 $507 -36.880513620060015 $511 36.880513620060015 $505 $610 forward 7 unknown #
straight-curve $-1 0 -36.880513620060015 -13.850761820035297 -1 0 0 I I #
vertex $-1 $336 $611 #
straight-curve $-1 0 36.880513620060015 -13.850761820035297 1 0 0 I I #
point $-1 55.330057679982907 36.880513620060015 -13.850761820035297 #
point $-1 55.330057679982907 -36.880513620060015 -13.850761820035297 #
straight-curve $-1 -55.330057679982907 0 13.850761820035297 0 -1 0 I I #
point $-1 -55.330057679982907 36.880513620060015 13.850761820035297 #
point $-1 -55.330057679982907 -36.880513620060015 13.850761820035297 #
straight-curve $-1 55.330057679982907 -36.880513620060015 0 0 0 -1 I I #
straight-curve $-1 55.330057679982907 36.880513620060015 0 0 0 -1 I I #
plane-surface $-1 7.5860217114616315 0 0 -1 0 0 0 0 1 forward_v I I I I #
coedge $-1 $358 $356 $360 $525 reversed $212 $-1 #
edge $-1 $371 -2.6580933729950242 $527 2.6580933729950242 $370 $612 forward 7 unknown #
vertex $-1 $525 $613 #
straight-curve $-1 -7.5860217114616315 -36.880513620060015 0 0 0 -1 I I #
edge $-1 $523 -36.880513620060015 $527 36.880513620060015 $521 $614 forward 7 unknown #
straight-curve $-1 0 -36.880513620060015 -2.6580933729950242 -1 0 0 I I #
vertex $-1 $363 $615 #
straight-curve $-1 0 36.880513620060015 -2.6580933729950242 1 0 0 I I #
point $-1 7.5860217114616315 36.880513620060015 -2.6580933729950242 #
point $-1 7.5860217114616315 -36.880513620060015 -2.6580933729950242 #
straight-curve $-1 -7.5860217114616315 0 2.6580933729950242 0 -1 0 I I #
point $-1 -7.5860217114616315 36.880513620060015 2.6580933729950242 #
point $-1 -7.5860217114616315 -36.880513620060015 2.6580933729950242 #
straight-curve $-1 7.5860217114616315 -36.880513620060015 0 0 0 -1 I I #
straight-curve $-1 7.5860217114616315 36.880513620060015 0 0 0 -1 I I #
plane-surface $-1 7.294482344803761 0 0 -1 0 0 0 0 1 forward_v I I I I #
coedge $-1 $385 $383 $387 $541 reversed $231 $-1 #
edge $-1 $398 -13.850761820035297 $543 13.850761820035297 $397 $616 forward 7 unknown #
vertex $-1 $541 $617 #
straight-curve $-1 -7.294482344803761 -3.9124270204077485 0 0 0 -1 I I #
edge $-1 $539 -3.9124270204077485 $543 3.9124270204077485 $537 $618 forward 7 unknown #
straight-curve $-1 0 -3.9124270204077485 -13.850761820035297 -1 0 0 I I #
vertex $-1 $390 $619 #
straight-curve $-1 0 3.9124270204077485 -13.850761820035297 1 0 0 I I #
point $-1 7.294482344803761 3.9124270204077485 -13.850761820035297 #
point $-1 7.294482344803761 -3.9124270204077485 -13.850761820035297 #
straight-curve $-1 -7.294482344803761 0 13.850761820035297 0 -1 0 I I #
point $-1 -7.294482344803761 3.9124270204077485 13.850761820035297 #
point $-1 -7.294482344803761 -3.9124270204077485 13.850761820035297 #
straight-curve $-1 7.294482344803761 -3.9124270204077485 0 0 0 -1 I I #
straight-curve $-1 7.294482344803761 3.9124270204077485 0 0 0 -1 I I #
plane-surface $-1 6.9282220612222964 0 0 -1 0 0 0 0 1 forward_v I I I I #
coedge $-1 $412 $410 $414 $557 reversed $250 $-1 #
edge $-1 $425 -110.66011535996581 $559 110.66011535996581 $424 $620 forward 7 unknown #
vertex $-1 $557 $621 #
straight-curve $-1 -6.9282220612222964 -221.32023071993163 0 0 0 -1 I I #
edge $-1 $555 -221.32023071993163 $559 221.32023071993163 $553 $622 forward 7 unknown #
straight-curve $-1 0 -221.32023071993163 -110.66011535996581 -1 0 0 I I #
vertex $-1 $417 $623 #
straight-curve $-1 0 221.32023071993163 -110.66011535996581 1 0 0 I I #
point $-1 6.9282220612222964 221.32023071993163 -110.66011535996581 #
point $-1 6.9282220612222964 -221.32023071993163 -110.66011535996581 #
straight-curve $-1 -6.9282220612222964 0 110.66011535996581 0 -1 0 I I #
point $-1 -6.9282220612222964 221.32023071993163 110.66011535996581 #
point $-1 -6.9282220612222964 -221.32023071993163 110.66011535996581 #
straight-curve $-1 6.9282220612222964 -221.32023071993163 0 0 0 -1 I I #
straight-curve $-1 6.9282220612222964 221.32023071993163 0 0 0 -1 I I #
edge $-1 $624 1 $624 0 $434 $-1 forward 7 unknown #
point $-1 1.5 0 -0.75 #
plane-surface $-1 6.9282220612222964 0 0 -1 0 0 0 0 1 forward_v I I I I #
coedge $-1 $443 $441 $445 $575 reversed $274 $-1 #
edge $-1 $456 -110.66011535996581 $577 110.66011535996581 $455 $625 forward 7 unknown #
vertex $-1 $575 $626 #
straight-curve $-1 -6.9282220612222964 -221.32023071993163 0 0 0 -1 I I #
edge $-1 $573 -221.32023071993163 $577 221.32023071993163 $571 $627 forward 7 unknown #
straight-curve $-1 0 -221.32023071993163 -110.66011535996581 -1 0 0 I I #
vertex $-1 $448 $628 #
straight-curve $-1 0 221.32023071993163 -110.66011535996581 1 0 0 I I #
point $-1 6.9282220612222964 221.32023071993163 -110.66011535996581 #
point $-1 6.9282220612222964 -221.32023071993163 -110.66011535996581 #
straight-curve $-1 -6.9282220612222964 0 110.66011535996581 0 -1 0 I I #
point $-1 -6.9282220612222964 221.32023071993163 110.66011535996581 #
point $-1 -6.9282220612222964 -221.32023071993163 110.66011535996581 #
straight-curve $-1 6.9282220612222964 -221.32023071993163 0 0 0 -1 I I #
straight-curve $-1 6.9282220612222964 221.32023071993163 0 0 0 -1 I I #
edge $-1 $629 1 $629 0 $465 $-1 forward 7 unknown #
point $-1 1.5 0 -0.75 #
plane-surface $-1 10.152076297680299 0 0 -1 0 0 0 0 1 forward_v I I I I #
coedge $-1 $474 $472 $476 $593 reversed $298 $-1 #
edge $-1 $487 -110.66011535996581 $595 110.66011535996581 $486 $630 forward 7 unknown #
vertex $-1 $593 $631 #
straight-curve $-1 -10.152076297680299 -221.32023071993163 0 0 0 -1 I I #
edge $-1 $591 -221.32023071993163 $595 221.32023071993163 $589 $632 forward 7 unknown #
straight-curve $-1 0 -221.32023071993163 -110.66011535996581 -1 0 0 I I #
vertex $-1 $479 $633 #
straight-curve $-1 0 221.32023071993163 -110.66011535996581 1 0 0 I I #
point $-1 10.152076297680299 221.32023071993163 -110.66011535996581 #
point $-1 10.152076297680299 -221.32023071993163 -110.66011535996581 #
straight-curve $-1 -10.152076297680299 0 110.66011535996581 0 -1 0 I I #
point $-1 -10.152076297680299 221.32023071993163 110.66011535996581 #
point $-1 -10.152076297680299 -221.32023071993163 110.66011535996581 #
straight-curve $-1 10.152076297680299 -221.32023071993163 0 0 0 -1 I I #
straight-curve $-1 10.152076297680299 221.32023071993163 0 0 0 -1 I I #
edge $-1 $634 1 $634 0 $496 $-1 forward 7 unknown #
point $-1 1.5 0 -0.75 #
edge $-1 $635 1 $635 0 $500 $-1 forward 7 unknown #
point $-1 1.5 0 -0.75 #
straight-curve $-1 -55.330057679982907 36.880513620060015 0 0 0 -1 I I #
point $-1 -55.330057679982907 -36.880513620060015 -13.850761820035297 #
straight-curve $-1 -55.330057679982907 0 -13.850761820035297 0 1 0 I I #
point $-1 -55.330057679982907 36.880513620060015 -13.850761820035297 #
straight-curve $-1 -7.5860217114616315 36.880513620060015 0 0 0 -1 I I #
point $-1 -7.5860217114616315 -36.880513620060015 -2.6580933729950242 #
straight-curve $-1 -7.5860217114616315 0 -2.6580933729950242 0 1 0 I I #
point $-1 -7.5860217114616315 36.880513620060015 -2.6580933729950242 #
straight-curve $-1 -7.294482344803761 3.9124270204077485 0 0 0 -1 I I #
point $-1 -7.294482344803761 -3.9124270204077485 -13.850761820035297 #
straight-curve $-1 -7.294482344803761 0 -13.850761820035297 0 1 0 I I #
point $-1 -7.294482344803761 3.9124270204077485 -13.850761820035297 #
straight-curve $-1 -6.9282220612222964 221.32023071993163 0 0 0 -1 I I #
point $-1 -6.9282220612222964 -221.32023071993163 -110.66011535996581 #
straight-curve $-1 -6.9282220612222964 0 -110.66011535996581 0 1 0 I I #
point $-1 -6.9282220612222964 221.32023071993163 -110.66011535996581 #
vertex $-1 $568 $636 #
straight-curve $-1 -6.9282220612222964 221.32023071993163 0 0 0 -1 I I #
point $-1 -6.9282220612222964 -221.32023071993163 -110.66011535996581 #
straight-curve $-1 -6.9282220612222964 0 -110.66011535996581 0 1 0 I I #
point $-1 -6.9282220612222964 221.32023071993163 -110.66011535996581 #
vertex $-1 $586 $637 #
straight-curve $-1 -10.152076297680299 221.32023071993163 0 0 0 -1 I I #
point $-1 -10.152076297680299 -221.32023071993163 -110.66011535996581 #
straight-curve $-1 -10.152076297680299 0 -110.66011535996581 0 1 0 I I #
point $-1 -10.152076297680299 221.32023071993163 -110.66011535996581 #
vertex $-1 $604 $638 #
vertex $-1 $606 $639 #
point $-1 0 0 0.75 #
point $-1 0 0 0.75 #
point $-1 0 0 0.75 #
point $-1 0 0 0.75 #
End-of-ACIS-data 