500 0 11 0           
7 Unknown 11 ACIS 5.0 NT 24 Thu Mar 25 15:31:07 1999 
-1 9.9999999999999995e-007 1e-010 
body $-1 $11 $-1 $12 #
body $-1 $13 $-1 $14 #
body $-1 $15 $-1 $16 #
body $-1 $17 $-1 $18 #
body $-1 $19 $-1 $20 #
body $-1 $21 $-1 $22 #
body $-1 $23 $-1 $24 #
body $-1 $25 $-1 $26 #
body $-1 $27 $-1 $28 #
body $-1 $29 $-1 $30 #
body $-1 $31 $-1 $32 #
lump $-1 $-1 $33 $0 #
transform $-1 1 0 0 0 1 0 0 0 1 63.966795861690116 34.862264896305255 7.3893063801330383 1 rotate no_reflect no_shear #
lump $-1 $-1 $34 $1 #
transform $-1 1 0 0 0 1 0 0 0 1 63.966795861690116 34.862264896305255 7.3893063801330383 1 rotate no_reflect no_shear #
lump $-1 $-1 $35 $2 #
transform $-1 1 0 0 0 1 0 0 0 1 63.966795861690116 34.862264896305255 7.3893063801330383 1 rotate no_reflect no_shear #
lump $-1 $-1 $36 $3 #
transform $-1 1 0 0 0 1 0 0 0 1 63.966795861690116 34.862264896305255 7.3893063801330383 1 rotate no_reflect no_shear #
lump $-1 $-1 $37 $4 #
transform $-1 1 0 0 0 1 0 0 0 1 63.966795861690116 34.862264896305255 7.3893063801330383 1 rotate no_reflect no_shear #
lump $-1 $-1 $38 $5 #
transform $-1 1 0 0 0 1 0 0 0 1 63.966795861690116 34.862264896305255 7.3893063801330383 1 rotate no_reflect no_shear #
lump $-1 $-1 $39 $6 #
transform $-1 1 0 0 0 1 0 0 0 1 63.966795861690116 34.862264896305255 7.3893063801330383 1 rotate no_reflect no_shear #
lump $-1 $-1 $40 $7 #
transform $-1 1 0 0 0 1 0 0 0 1 63.966795861690116 34.862264896305255 7.3893063801330383 1 rotate no_reflect no_shear #
lump $-1 $-1 $41 $8 #
transform $-1 1 0 0 0 1 0 0 0 1 63.966795861690116 34.862264896305255 7.3893063801330383 1 rotate no_reflect no_shear #
lump $-1 $-1 $42 $9 #
transform $-1 1 0 0 0 1 0 0 0 1 63.966795861690116 34.862264896305255 7.3893063801330383 1 rotate no_reflect no_shear #
lump $-1 $-1 $43 $10 #
transform $-1 1 0 0 0 1 0 0 0 1 63.966795861690116 34.862264896305255 7.3893063801330383 1 rotate no_reflect no_shear #
shell $-1 $-1 $-1 $44 $-1 $11 #
shell $-1 $-1 $-1 $45 $-1 $13 #
shell $-1 $-1 $-1 $46 $-1 $15 #
shell $-1 $-1 $-1 $47 $-1 $17 #
shell $-1 $-1 $-1 $48 $-1 $19 #
shell $-1 $-1 $-1 $49 $-1 $21 #
shell $-1 $-1 $-1 $50 $-1 $23 #
shell $-1 $-1 $-1 $51 $-1 $25 #
shell $-1 $-1 $-1 $52 $-1 $27 #
shell $-1 $-1 $-1 $53 $-1 $29 #
shell $-1 $-1 $-1 $54 $-1 $31 #
face $-1 $55 $56 $33 $-1 $57 forward single #
face $-1 $58 $59 $34 $-1 $60 reversed single #
face $-1 $61 $62 $35 $-1 $63 reversed single #
face $-1 $64 $65 $36 $-1 $66 reversed single #
face $-1 $67 $68 $37 $-1 $69 forward single #
face $-1 $70 $71 $38 $-1 $72 reversed single #
face $-1 $73 $74 $39 $-1 $75 forward single #
face $-1 $76 $77 $40 $-1 $78 reversed single #
face $-1 $79 $80 $41 $-1 $81 forward single #
face $-1 $82 $83 $42 $-1 $84 reversed single #
face $-1 $85 $86 $43 $-1 $87 forward single #
face $-1 $88 $89 $33 $-1 $90 reversed single #
loop $-1 $-1 $91 $44 #
plane-surface $-1 0 0 7.3893063801330383 0 0 1 1 0 0 forward_v I I I I #
face $-1 $92 $93 $34 $-1 $94 reversed single #
loop $-1 $-1 $95 $45 #
plane-surface $-1 0 -26.857066470675797 5.7370577441480313 0 -1 0 0 0 -1 forward_v I I I I #
face $-1 $96 $97 $35 $-1 $98 reversed single #
loop $-1 $-1 $99 $46 #
plane-surface $-1 0 30.859665683490526 4.0848091081630242 0 0 1 1 0 0 forward_v I I I I #
face $-1 $100 $101 $36 $-1 $102 reversed single #
loop $-1 $-1 $103 $47 #
plane-surface $-1 51.346078424997472 -13.651613673082348 182.11318740980246 0 -1 0 -0.6560590369687036 0 -0.75470957328743171 forward_v I I I I #
face $-1 $104 $105 $37 $-1 $106 forward single #
loop $-1 $107 $108 $48 #
cone-surface $-1 59.120006061586807 -20.254340071879071 2.7450848566475412 -0.6560590369687036 0 -0.75470957328743171 1.5094191465748634 0 -1.3121180739374072 1 I I 0 1 2 forward I I I I #
face $-1 $109 $110 $38 $-1 $111 reversed single #
loop $-1 $-1 $112 $49 #
plane-surface $-1 51.346078424997472 13.205452797593448 182.11318740980246 0 -1 0 -0.6560590369687036 0 -0.75470957328743171 forward_v I I I I #
face $-1 $113 $114 $39 $-1 $115 forward single #
loop $-1 $116 $117 $50 #
cone-surface $-1 59.120006061586807 6.602726398796726 2.7450848566475412 -0.6560590369687036 0 -0.75470957328743171 1.5094191465748634 0 -1.3121180739374072 1 I I 0 1 2 forward I I I I #
face $-1 $118 $119 $40 $-1 $120 reversed single #
loop $-1 $-1 $121 $51 #
plane-surface $-1 -63.96679586169013 -20.254340071879071 1.6284920091335096 -0.6560590369687036 0 0.75470957328743171 0.75470957328743171 0 0.6560590369687036 forward_v I I I I #
face $-1 $122 $123 $41 $-1 $124 forward single #
loop $-1 $125 $126 $52 #
cone-surface $-1 -59.120006061586807 -20.254340071879071 2.7450848566475439 0.6560590369687036 0 -0.75470957328743171 1.5094191465748634 0 1.3121180739374072 1 I I 0 1 2 forward I I I I #
face $-1 $127 $128 $42 $-1 $129 reversed single #
loop $-1 $-1 $130 $53 #
plane-surface $-1 -147.89878484367827 3.5527136788005009e-015 98.181198427814309 0 1 0 -0.6560590369687036 0 0.75470957328743171 forward_v I I I I #
face $-1 $131 $132 $43 $-1 $133 forward single #
loop $-1 $134 $135 $54 #
cone-surface $-1 -59.120006061586807 6.602726398796726 2.7450848566475439 0.6560590369687036 0 -0.75470957328743171 1.5094191465748634 0 1.3121180739374072 1 I I 0 1 2 forward I I I I #
face $-1 $136 $137 $33 $-1 $138 reversed single #
loop $-1 $-1 $139 $55 #
plane-surface $-1 0 0 -7.3893063801330383 0 0 1 1 0 0 forward_v I I I I #
coedge $-1 $140 $141 $142 $143 forward $56 $-1 #
face $-1 $144 $145 $34 $-1 $146 reversed single #
loop $-1 $-1 $147 $58 #
plane-surface $-1 0 -30.859665683490526 4.0848091081630242 0 0 1 1 0 0 forward_v I I I I #
coedge $-1 $148 $149 $150 $151 reversed $59 $-1 #
face $-1 $152 $153 $35 $-1 $154 forward single #
loop $-1 $-1 $155 $61 #
plane-surface $-1 0 26.857066470675797 5.7370577441480313 0 1 0 0 0 1 forward_v I I I I #
coedge $-1 $156 $157 $158 $159 reversed $62 $-1 #
face $-1 $160 $161 $36 $-1 $162 forward single #
loop $-1 $-1 $163 $64 #
plane-surface $-1 -32.585910556990669 -20.254340071879071 85.560480991121665 0.6560590369687036 0 0.75470957328743171 0.75470957328743171 0 -0.6560590369687036 forward_v I I I I #
coedge $-1 $164 $165 $166 $167 reversed $65 $-1 #
face $-1 $-1 $168 $37 $-1 $169 forward single #
loop $-1 $170 $171 $67 #
cone-surface $-1 56.930686579901575 -20.254340071879071 0.22656094537438509 -0.6560590369687036 0 -0.75470957328743171 0.75470957328743171 0 -0.6560590369687036 1 I I -0.70710678118654746 0.70710678118654746 1 forward I I I I #
loop $-1 $-1 $172 $48 #
coedge $-1 $108 $108 $173 $174 reversed $68 $-1 #
face $-1 $175 $176 $38 $-1 $177 reversed single #
loop $-1 $-1 $178 $70 #
plane-surface $-1 -32.585910556990669 6.602726398796726 85.560480991121665 0.6560590369687036 0 0.75470957328743171 0.75470957328743171 0 -0.6560590369687036 forward_v I I I I #
coedge $-1 $179 $180 $181 $182 reversed $71 $-1 #
face $-1 $-1 $183 $39 $-1 $184 forward single #
loop $-1 $185 $186 $73 #
cone-surface $-1 56.930686579901575 6.602726398796726 0.22656094537438509 -0.6560590369687036 0 -0.75470957328743171 0.75470957328743171 0 -0.6560590369687036 1 I I -0.70710678118654746 0.70710678118654746 1 forward I I I I #
loop $-1 $-1 $187 $50 #
coedge $-1 $117 $117 $188 $189 reversed $74 $-1 #
face $-1 $190 $191 $40 $-1 $192 reversed single #
loop $-1 $-1 $193 $76 #
plane-surface $-1 -147.89878484367827 -13.651613673082348 98.181198427814309 0 -1 0 0.6560590369687036 0 -0.75470957328743171 forward_v I I I I #
coedge $-1 $194 $195 $196 $197 reversed $77 $-1 #
face $-1 $-1 $198 $41 $-1 $199 forward single #
loop $-1 $200 $201 $79 #
cone-surface $-1 -56.930686579901575 -20.254340071879071 0.22656094537438776 0.6560590369687036 0 -0.75470957328743171 0.75470957328743171 0 0.6560590369687036 1 I I -0.70710678118654746 0.70710678118654746 1 forward I I I I #
loop $-1 $-1 $202 $52 #
coedge $-1 $126 $126 $203 $204 reversed $80 $-1 #
face $-1 $205 $206 $42 $-1 $207 reversed single #
loop $-1 $-1 $208 $82 #
plane-surface $-1 -63.96679586169013 6.602726398796726 1.6284920091335096 -0.6560590369687036 0 0.75470957328743171 0.75470957328743171 0 0.6560590369687036 forward_v I I I I #
coedge $-1 $209 $210 $211 $212 reversed $83 $-1 #
face $-1 $-1 $213 $43 $-1 $214 forward single #
loop $-1 $215 $216 $85 #
cone-surface $-1 -56.930686579901575 6.602726398796726 0.22656094537438776 0.6560590369687036 0 -0.75470957328743171 0.75470957328743171 0 0.6560590369687036 1 I I -0.70710678118654746 0.70710678118654746 1 forward I I I I #
loop $-1 $-1 $217 $54 #
coedge $-1 $135 $135 $218 $219 reversed $86 $-1 #
face $-1 $220 $221 $33 $-1 $222 reversed single #
loop $-1 $-1 $223 $88 #
plane-surface $-1 0 -34.862264896305255 0 0 1 0 0 0 1 forward_v I I I I #
coedge $-1 $224 $225 $226 $227 forward $89 $-1 #
coedge $-1 $228 $91 $229 $230 forward $56 $-1 #
coedge $-1 $91 $228 $231 $232 forward $56 $-1 #
coedge $-1 $233 $234 $91 $143 reversed $235 $-1 #
edge $-1 $236 -34.862264896305255 $237 34.862264896305255 $142 $238 forward 7 unknown #
face $-1 $239 $240 $34 $-1 $241 reversed single #
loop $-1 $-1 $242 $92 #
plane-surface $-1 -63.966795861690116 0 0 1 0 0 0 0 -1 forward_v I I I I #
coedge $-1 $243 $244 $245 $246 reversed $93 $-1 #
coedge $-1 $247 $95 $248 $249 reversed $59 $-1 #
coedge $-1 $95 $247 $242 $250 reversed $59 $-1 #
coedge $-1 $251 $252 $95 $151 forward $253 $-1 #
edge $-1 $254 -63.966795861690116 $255 63.966795861690116 $150 $256 forward 7 unknown #
face $-1 $257 $258 $35 $-1 $259 reversed single #
loop $-1 $-1 $260 $96 #
plane-surface $-1 0 0 7.3893063801330383 0 0 1 1 0 0 forward_v I I I I #
coedge $-1 $261 $262 $263 $264 reversed $97 $-1 #
coedge $-1 $265 $99 $261 $266 forward $62 $-1 #
coedge $-1 $99 $265 $267 $268 reversed $62 $-1 #
coedge $-1 $269 $270 $99 $159 forward $258 $-1 #
edge $-1 $271 11.427233628930534 $272 19.432432054559992 $158 $273 forward 7 unknown #
face $-1 $274 $275 $36 $-1 $276 forward single #
loop $-1 $-1 $166 $100 #
plane-surface $-1 0 0 7.3893063801330383 0 0 1 1 0 0 forward_v I I I I #
coedge $-1 $277 $278 $279 $280 reversed $101 $-1 #
coedge $-1 $165 $103 $281 $282 reversed $65 $-1 #
coedge $-1 $103 $164 $277 $283 reversed $65 $-1 #
coedge $-1 $279 $284 $103 $167 forward $161 $-1 #
edge $-1 $285 -38.29375664919138 $286 -31.666697938417855 $166 $287 forward 7 unknown #
loop $-1 $-1 $173 $104 #
plane-surface $-1 -32.585910556990669 -20.254340071879071 85.560480991121665 0.6560590369687036 0 0.75470957328743171 0.75470957328743171 0 -0.6560590369687036 forward_v I I I I #
loop $-1 $-1 $288 $67 #
coedge $-1 $171 $171 $172 $289 reversed $105 $-1 #
coedge $-1 $172 $172 $171 $289 forward $107 $-1 #
coedge $-1 $173 $173 $108 $174 forward $168 $-1 #
edge $-1 $290 0 $290 6.2831853071796004 $173 $291 forward 7 unknown #
face $-1 $292 $293 $38 $-1 $294 reversed single #
loop $-1 $-1 $295 $109 #
plane-surface $-1 51.346078424997472 3.5527136788005009e-015 182.11318740980246 0 1 0 0.6560590369687036 0 0.75470957328743171 forward_v I I I I #
coedge $-1 $296 $297 $298 $299 reversed $110 $-1 #
coedge $-1 $180 $112 $300 $301 reversed $71 $-1 #
coedge $-1 $112 $179 $296 $302 reversed $71 $-1 #
coedge $-1 $298 $303 $112 $182 forward $304 $-1 #
edge $-1 $305 -38.29375664919138 $306 -31.666697938417855 $181 $307 forward 7 unknown #
loop $-1 $-1 $188 $113 #
plane-surface $-1 -32.585910556990669 6.602726398796726 85.560480991121665 0.6560590369687036 0 0.75470957328743171 0.75470957328743171 0 -0.6560590369687036 forward_v I I I I #
loop $-1 $-1 $308 $73 #
coedge $-1 $186 $186 $187 $309 reversed $114 $-1 #
coedge $-1 $187 $187 $186 $309 forward $116 $-1 #
coedge $-1 $188 $188 $117 $189 forward $183 $-1 #
edge $-1 $310 0 $310 6.2831853071796004 $188 $311 forward 7 unknown #
face $-1 $312 $313 $40 $-1 $314 forward single #
loop $-1 $-1 $315 $118 #
plane-surface $-1 -63.966795861690116 0 0 1 0 0 0 0 -1 forward_v I I I I #
coedge $-1 $316 $317 $318 $319 reversed $119 $-1 #
coedge $-1 $320 $121 $321 $322 reversed $77 $-1 #
coedge $-1 $121 $320 $316 $323 forward $77 $-1 #
coedge $-1 $318 $324 $121 $197 forward $313 $-1 #
edge $-1 $325 -16.729896434736258 $326 -3.5244436371428129 $196 $327 forward 7 unknown #
loop $-1 $-1 $203 $122 #
plane-surface $-1 -63.96679586169013 -20.254340071879071 1.6284920091335096 -0.6560590369687036 0 0.75470957328743171 0.75470957328743171 0 0.6560590369687036 forward_v I I I I #
loop $-1 $-1 $328 $79 #
coedge $-1 $201 $201 $202 $329 reversed $123 $-1 #
coedge $-1 $202 $202 $201 $329 forward $125 $-1 #
coedge $-1 $203 $203 $126 $204 forward $198 $-1 #
edge $-1 $330 0 $330 6.2831853071796004 $203 $331 forward 7 unknown #
face $-1 $332 $333 $42 $-1 $334 forward single #
loop $-1 $-1 $335 $127 #
plane-surface $-1 -147.89878484367827 13.205452797593448 98.181198427814309 0 -1 0 0.6560590369687036 0 -0.75470957328743171 forward_v I I I I #
coedge $-1 $336 $337 $338 $339 reversed $128 $-1 #
coedge $-1 $210 $130 $340 $341 reversed $83 $-1 #
coedge $-1 $130 $209 $336 $342 reversed $83 $-1 #
coedge $-1 $338 $343 $130 $212 forward $333 $-1 #
edge $-1 $344 9.9825965601490196 $345 16.609655270922559 $211 $346 forward 7 unknown #
loop $-1 $-1 $218 $131 #
plane-surface $-1 -63.96679586169013 6.602726398796726 1.6284920091335096 -0.6560590369687036 0 0.75470957328743171 0.75470957328743171 0 0.6560590369687036 forward_v I I I I #
loop $-1 $-1 $347 $85 #
coedge $-1 $216 $216 $217 $348 reversed $132 $-1 #
coedge $-1 $217 $217 $216 $348 forward $134 $-1 #
coedge $-1 $218 $218 $135 $219 forward $213 $-1 #
edge $-1 $349 0 $349 6.2831853071796004 $218 $350 forward 7 unknown #
face $-1 $351 $352 $33 $-1 $353 reversed single #
loop $-1 $-1 $354 $136 #
plane-surface $-1 -63.966795861690116 0 0 1 0 0 0 0 -1 forward_v I I I I #
coedge $-1 $355 $231 $356 $357 forward $137 $-1 #
coedge $-1 $358 $139 $355 $359 forward $89 $-1 #
coedge $-1 $139 $358 $360 $361 forward $89 $-1 #
coedge $-1 $234 $233 $139 $227 reversed $235 $-1 #
edge $-1 $362 -34.862264896305255 $363 34.862264896305255 $226 $364 forward 7 unknown #
coedge $-1 $141 $140 $365 $366 forward $56 $-1 #
coedge $-1 $367 $368 $140 $230 reversed $352 $-1 #
edge $-1 $237 -63.966795861690116 $369 63.966795861690116 $229 $370 forward 7 unknown #
coedge $-1 $223 $371 $141 $232 reversed $137 $-1 #
edge $-1 $372 -63.966795861690116 $236 63.966795861690116 $231 $373 forward 7 unknown #
coedge $-1 $226 $142 $371 $374 forward $235 $-1 #
coedge $-1 $142 $226 $367 $375 reversed $235 $-1 #
loop $-1 $-1 $233 $351 #
vertex $-1 $143 $376 #
vertex $-1 $143 $377 #
straight-curve $-1 63.966795861690116 0 7.3893063801330383 0 1 0 I I #
face $-1 $378 $253 $34 $-1 $379 forward single #
loop $-1 $-1 $380 $144 #
plane-surface $-1 0 -34.862264896305255 0 0 1 0 0 0 1 forward_v I I I I #
coedge $-1 $381 $382 $149 $250 forward $145 $-1 #
coedge $-1 $383 $147 $380 $384 reversed $93 $-1 #
coedge $-1 $147 $383 $247 $385 forward $93 $-1 #
coedge $-1 $248 $386 $147 $246 forward $387 $-1 #
edge $-1 $388 -19.432432054559992 $389 -11.427233628930534 $245 $390 forward 7 unknown #
coedge $-1 $149 $148 $244 $385 reversed $59 $-1 #
coedge $-1 $391 $245 $148 $249 forward $387 $-1 #
edge $-1 $389 1.2162802360890086 $254 4.5207775080590231 $248 $392 forward 7 unknown #
edge $-1 $255 -4.5207775080590231 $393 -1.2162802360890086 $242 $394 forward 7 unknown #
coedge $-1 $395 $150 $382 $396 forward $253 $-1 #
coedge $-1 $150 $395 $391 $397 forward $253 $-1 #
loop $-1 $-1 $150 $239 #
vertex $-1 $249 $398 #
vertex $-1 $396 $399 #
straight-curve $-1 0 -26.857066470675797 7.3893063801330383 -1 0 0 I I #
face $-1 $400 $401 $35 $-1 $402 reversed single #
loop $-1 $-1 $270 $152 #
plane-surface $-1 63.966795861690116 0 0 -1 0 0 0 0 1 forward_v I I I I #
coedge $-1 $403 $404 $262 $405 forward $153 $-1 #
coedge $-1 $406 $155 $156 $266 reversed $97 $-1 #
coedge $-1 $155 $406 $260 $405 reversed $97 $-1 #
coedge $-1 $407 $408 $155 $264 forward $401 $-1 #
edge $-1 $409 1.2162802360890086 $410 4.5207775080590231 $263 $411 forward 7 unknown #
coedge $-1 $157 $156 $408 $412 reversed $62 $-1 #
edge $-1 $271 -63.966795861690116 $409 63.966795861690116 $261 $413 forward 7 unknown #
coedge $-1 $414 $415 $157 $268 forward $416 $-1 #
edge $-1 $272 -63.966795861690116 $417 63.966795861690116 $267 $418 forward 7 unknown #
coedge $-1 $419 $158 $415 $420 reversed $258 $-1 #
coedge $-1 $158 $419 $406 $421 forward $258 $-1 #
vertex $-1 $159 $422 #
vertex $-1 $268 $423 #
straight-curve $-1 63.966795861690116 15.429832841745263 4.0848091081630242 0 1 0 I I #
face $-1 $-1 $424 $36 $-1 $425 reversed single #
loop $-1 $-1 $426 $160 #
plane-surface $-1 0 -26.857066470675797 5.7370577441480313 0 -1 0 0 0 -1 forward_v I I I I #
coedge $-1 $427 $163 $165 $283 forward $101 $-1 #
coedge $-1 $163 $427 $426 $428 forward $101 $-1 #
coedge $-1 $429 $166 $163 $280 forward $161 $-1 #
edge $-1 $286 3.5244436371428129 $430 16.729896434736258 $279 $431 forward 7 unknown #
coedge $-1 $432 $433 $164 $282 forward $424 $-1 #
edge $-1 $434 -89.428101695767708 $285 -83.667287324768196 $281 $435 forward 7 unknown #
edge $-1 $286 119.15265274322817 $434 127.93359172338022 $165 $436 forward 7 unknown #
coedge $-1 $166 $429 $432 $437 forward $161 $-1 #
vertex $-1 $282 $438 #
vertex $-1 $167 $439 #
straight-curve $-1 25.673039212498736 -13.651613673082348 7.3893063801330356 -1 0 0 I I #
coedge $-1 $288 $288 $-1 $440 reversed $170 $-1 #
edge $-1 $441 0 $441 6.2831853071796004 $171 $442 forward 7 unknown #
vertex $-1 $174 $443 #
ellipse-curve $-1 60.653266506303346 -20.254340071879071 4.508899194633285 0.6560590369687036 0 0.75470957328743171 1.5094191465748634 0 -1.3121180739374072 1 I I #
face $-1 $-1 $304 $38 $-1 $444 forward single #
loop $-1 $-1 $445 $175 #
plane-surface $-1 63.966795861690116 0 0 -1 0 0 0 0 1 forward_v I I I I #
coedge $-1 $446 $447 $448 $449 reversed $176 $-1 #
coedge $-1 $450 $178 $180 $302 forward $110 $-1 #
coedge $-1 $178 $450 $446 $451 forward $110 $-1 #
coedge $-1 $448 $181 $178 $299 forward $304 $-1 #
edge $-1 $306 -9.9040895981950854 $452 3.3013631993983594 $298 $453 forward 7 unknown #
coedge $-1 $454 $455 $179 $301 forward $293 $-1 #
edge $-1 $456 -89.428101695767708 $305 -83.667287324768196 $300 $457 forward 7 unknown #
edge $-1 $306 119.15265274322817 $456 127.93359172338022 $180 $458 forward 7 unknown #
coedge $-1 $181 $448 $454 $459 forward $304 $-1 #
loop $-1 $-1 $448 $292 #
vertex $-1 $301 $460 #
vertex $-1 $182 $461 #
straight-curve $-1 25.673039212498736 13.205452797593448 7.3893063801330356 -1 0 0 I I #
coedge $-1 $308 $308 $-1 $462 reversed $185 $-1 #
edge $-1 $463 0 $463 6.2831853071796004 $186 $464 forward 7 unknown #
vertex $-1 $189 $465 #
ellipse-curve $-1 60.653266506303346 6.602726398796726 4.508899194633285 0.6560590369687036 0 0.75470957328743171 1.5094191465748634 0 -1.3121180739374072 1 I I #
face $-1 $-1 $466 $40 $-1 $467 forward single #
loop $-1 $-1 $318 $190 #
plane-surface $-1 0 0 7.3893063801330383 0 0 1 1 0 0 forward_v I I I I #
coedge $-1 $468 $469 $317 $470 forward $191 $-1 #
coedge $-1 $317 $193 $195 $323 reversed $119 $-1 #
coedge $-1 $193 $316 $315 $470 reversed $119 $-1 #
coedge $-1 $471 $196 $193 $319 forward $313 $-1 #
edge $-1 $326 -16.609655270922559 $472 -9.9825965601490196 $318 $473 forward 7 unknown #
coedge $-1 $195 $194 $468 $474 reversed $77 $-1 #
coedge $-1 $475 $476 $194 $322 forward $466 $-1 #
edge $-1 $477 -25.48590744438831 $325 -16.704968464236241 $321 $478 forward 7 unknown #
edge $-1 $479 1.888283279974768e-014 $326 8.7809389801520847 $316 $480 forward 7 unknown #
coedge $-1 $196 $471 $475 $481 forward $313 $-1 #
vertex $-1 $322 $482 #
vertex $-1 $197 $483 #
straight-curve $-1 -57.339737150916577 -10.127170035939535 7.389306380133041 0 1 0 I I #
coedge $-1 $328 $328 $-1 $484 reversed $200 $-1 #
edge $-1 $485 0 $485 6.2831853071796004 $201 $486 forward 7 unknown #
vertex $-1 $204 $487 #
ellipse-curve $-1 -60.653266506303339 -20.254340071879071 4.5088991946332815 -0.6560590369687036 0 0.75470957328743171 1.5094191465748634 0 1.3121180739374072 1 I I #
face $-1 $-1 $488 $42 $-1 $489 reversed single #
loop $-1 $-1 $211 $205 #
plane-surface $-1 0 0 7.3893063801330383 0 0 1 1 0 0 forward_v I I I I #
coedge $-1 $490 $491 $492 $493 reversed $206 $-1 #
coedge $-1 $494 $208 $210 $342 forward $128 $-1 #
coedge $-1 $208 $494 $490 $495 forward $128 $-1 #
coedge $-1 $492 $211 $208 $339 forward $333 $-1 #
edge $-1 $345 -3.3013631993983594 $496 9.9040895981950854 $338 $497 forward 7 unknown #
coedge $-1 $498 $499 $209 $341 forward $488 $-1 #
edge $-1 $500 -47.462107204773631 $344 -41.701292833774119 $340 $501 forward 7 unknown #
edge $-1 $345 -8.7809389801520847 $500 -1.888283279974768e-014 $210 $502 forward 7 unknown #
coedge $-1 $211 $492 $498 $503 forward $333 $-1 #
vertex $-1 $341 $504 #
vertex $-1 $212 $505 #
straight-curve $-1 -73.949392421839136 3.5527136788005009e-015 7.3893063801330356 1 0 0 I I #
coedge $-1 $347 $347 $-1 $506 reversed $215 $-1 #
edge $-1 $507 0 $507 6.2831853071796004 $216 $508 forward 7 unknown #
vertex $-1 $219 $509 #
ellipse-curve $-1 -60.653266506303339 6.602726398796726 4.5088991946332815 -0.6560590369687036 0 0.75470957328743171 1.5094191465748634 0 1.3121180739374072 1 I I #
face $-1 $-1 $235 $33 $-1 $510 reversed single #
loop $-1 $-1 $367 $220 #
plane-surface $-1 0 34.862264896305255 0 0 -1 0 0 0 -1 forward_v I I I I #
coedge $-1 $511 $365 $368 $512 forward $221 $-1 #
coedge $-1 $371 $223 $224 $359 reversed $137 $-1 #
coedge $-1 $365 $511 $223 $357 reversed $221 $-1 #
edge $-1 $372 -7.3893063801330383 $513 7.3893063801330383 $356 $514 forward 7 unknown #
coedge $-1 $225 $224 $511 $515 forward $89 $-1 #
edge $-1 $363 -63.966795861690116 $513 63.966795861690116 $355 $516 forward 7 unknown #
coedge $-1 $368 $367 $225 $361 reversed $352 $-1 #
edge $-1 $517 -63.966795861690116 $362 63.966795861690116 $360 $518 forward 7 unknown #
vertex $-1 $227 $519 #
vertex $-1 $374 $520 #
straight-curve $-1 63.966795861690116 0 -7.3893063801330383 0 -1 0 I I #
coedge $-1 $354 $356 $228 $366 reversed $221 $-1 #
edge $-1 $369 -34.862264896305255 $372 34.862264896305255 $365 $521 forward 7 unknown #
coedge $-1 $360 $229 $234 $375 forward $352 $-1 #
coedge $-1 $229 $360 $354 $512 reversed $352 $-1 #
vertex $-1 $230 $522 #
straight-curve $-1 0 34.862264896305255 7.3893063801330383 -1 0 0 I I #
coedge $-1 $231 $355 $233 $374 reversed $137 $-1 #
vertex $-1 $366 $523 #
straight-curve $-1 0 -34.862264896305255 7.3893063801330383 1 0 0 I I #
edge $-1 $236 -7.3893063801330383 $363 7.3893063801330383 $233 $524 forward 7 unknown #
edge $-1 $237 -7.3893063801330383 $362 7.3893063801330383 $234 $525 forward 7 unknown #
point $-1 63.966795861690116 -34.862264896305255 7.3893063801330383 #
point $-1 63.966795861690116 34.862264896305255 7.3893063801330383 #
face $-1 $-1 $387 $34 $-1 $526 reversed single #
plane-surface $-1 0 0 7.3893063801330383 0 0 1 1 0 0 forward_v I I I I #
coedge $-1 $527 $528 $243 $384 forward $240 $-1 #
coedge $-1 $529 $242 $383 $530 forward $145 $-1 #
coedge $-1 $242 $529 $251 $396 reversed $145 $-1 #
coedge $-1 $244 $243 $381 $530 reversed $93 $-1 #
edge $-1 $531 -63.966795861690116 $388 63.966795861690116 $380 $532 forward 7 unknown #
edge $-1 $393 -63.966795861690116 $389 63.966795861690116 $247 $533 forward 7 unknown #
coedge $-1 $245 $391 $527 $534 forward $387 $-1 #
loop $-1 $-1 $248 $378 #
vertex $-1 $384 $535 #
vertex $-1 $246 $536 #
straight-curve $-1 63.966795861690116 -15.429832841745263 4.0848091081630242 0 1 0 I I #
coedge $-1 $386 $248 $252 $397 reversed $387 $-1 #
straight-curve $-1 63.966795861690116 -26.857066470675797 2.8685288720740156 0 0 1 I I #
vertex $-1 $530 $537 #
straight-curve $-1 -63.966795861690116 -26.857066470675797 2.8685288720740156 0 0 -1 I I #
coedge $-1 $252 $251 $538 $539 forward $253 $-1 #
edge $-1 $255 26.857066470675797 $540 34.862264896305255 $382 $541 forward 7 unknown #
edge $-1 $542 -34.862264896305255 $254 -26.857066470675797 $391 $543 forward 7 unknown #
point $-1 63.966795861690116 -26.857066470675797 7.3893063801330383 #
point $-1 -63.966795861690116 -26.857066470675797 7.3893063801330383 #
face $-1 $-1 $416 $35 $-1 $544 reversed single #
loop $-1 $-1 $263 $257 #
plane-surface $-1 -63.966795861690116 0 0 1 0 0 0 0 -1 forward_v I I I I #
coedge $-1 $545 $260 $419 $546 forward $153 $-1 #
coedge $-1 $260 $545 $407 $547 forward $153 $-1 #
edge $-1 $410 -63.966795861690116 $548 63.966795861690116 $260 $549 forward 7 unknown #
coedge $-1 $262 $261 $270 $421 reversed $97 $-1 #
coedge $-1 $550 $263 $404 $547 reversed $401 $-1 #
coedge $-1 $263 $550 $265 $412 forward $401 $-1 #
vertex $-1 $412 $551 #
vertex $-1 $264 $552 #
straight-curve $-1 -63.966795861690116 26.857066470675797 2.8685288720740156 0 0 1 I I #
edge $-1 $417 -19.432432054559992 $409 -11.427233628930534 $408 $553 forward 7 unknown #
straight-curve $-1 0 26.857066470675797 4.0848091081630242 -1 0 0 I I #
coedge $-1 $554 $267 $550 $555 reversed $416 $-1 #
coedge $-1 $267 $554 $269 $420 forward $416 $-1 #
loop $-1 $-1 $267 $400 #
vertex $-1 $268 $556 #
straight-curve $-1 0 34.862264896305255 4.0848091081630242 -1 0 0 I I #
coedge $-1 $270 $269 $403 $546 reversed $258 $-1 #
edge $-1 $557 -7.3893063801330383 $272 -4.0848091081630242 $269 $558 forward 7 unknown #
edge $-1 $548 -4.5207775080590231 $271 -1.2162802360890086 $270 $559 forward 7 unknown #
point $-1 63.966795861690116 26.857066470675797 4.0848091081630242 #
point $-1 63.966795861690116 34.862264896305255 4.0848091081630242 #
loop $-1 $-1 $281 $274 #
plane-surface $-1 63.966795861690116 0 0 -1 0 0 0 0 1 forward_v I I I I #
coedge $-1 $560 $561 $278 $428 reversed $275 $-1 #
coedge $-1 $278 $277 $433 $562 reversed $101 $-1 #
edge $-1 $563 -127.93359172338022 $430 -119.15265274322817 $426 $564 forward 7 unknown #
coedge $-1 $284 $279 $561 $565 forward $161 $-1 #
vertex $-1 $565 $566 #
straight-curve $-1 57.339737150916577 -10.127170035939535 7.3893063801330499 0 -1 0 I I #
coedge $-1 $567 $281 $284 $437 reversed $424 $-1 #
coedge $-1 $281 $567 $427 $562 forward $424 $-1 #
vertex $-1 $282 $568 #
straight-curve $-1 63.966795861690116 -13.651613673082348 91.056593704901232 0 0 1 I I #
straight-curve $-1 -32.585910556990669 -13.651613673082348 85.560480991121665 0.75470957328743171 0 -0.6560590369687036 I I #
edge $-1 $569 -26.857066470675797 $285 -13.651613673082348 $432 $570 forward 7 unknown #
point $-1 63.966795861690116 -13.651613673082348 7.3893063801330383 #
point $-1 57.339737150916591 -13.651613673082348 7.3893063801330356 #
edge $-1 $571 1 $571 0 $288 $-1 forward 7 unknown #
vertex $-1 $289 $572 #
ellipse-curve $-1 57.586745616870282 -20.254340071879071 0.9812705186618168 0.6560590369687036 0 0.75470957328743171 1.5094191465748634 0 -1.3121180739374072 1 I I #
point $-1 62.162685652878189 -20.254340071879071 3.1967811206958592 #
plane-surface $-1 0 0 7.3893063801330383 0 0 1 1 0 0 forward_v I I I I #
coedge $-1 $455 $454 $447 $573 forward $293 $-1 #
coedge $-1 $447 $295 $297 $451 reversed $176 $-1 #
coedge $-1 $295 $446 $445 $573 reversed $176 $-1 #
coedge $-1 $303 $298 $295 $449 forward $304 $-1 #
edge $-1 $452 31.666697938417855 $574 38.29375664919138 $448 $575 forward 7 unknown #
coedge $-1 $297 $296 $455 $576 reversed $110 $-1 #
edge $-1 $577 -127.93359172338022 $452 -119.15265274322817 $446 $578 forward 7 unknown #
vertex $-1 $299 $579 #
straight-curve $-1 57.339737150916577 3.301363199398363 7.3893063801330499 0 -1 0 I I #
coedge $-1 $445 $300 $303 $459 reversed $293 $-1 #
coedge $-1 $300 $445 $450 $576 forward $293 $-1 #
vertex $-1 $301 $580 #
straight-curve $-1 63.966795861690116 13.205452797593448 91.056593704901232 0 0 1 I I #
straight-curve $-1 -32.585910556990669 13.205452797593448 85.560480991121665 0.75470957328743171 0 -0.6560590369687036 I I #
edge $-1 $574 3.5527136788005009e-015 $305 13.205452797593448 $454 $581 forward 7 unknown #
point $-1 63.966795861690116 13.205452797593448 7.3893063801330383 #
point $-1 57.339737150916591 13.205452797593448 7.3893063801330356 #
edge $-1 $582 1 $582 0 $308 $-1 forward 7 unknown #
vertex $-1 $309 $583 #
ellipse-curve $-1 57.586745616870282 6.602726398796726 0.9812705186618168 0.6560590369687036 0 0.75470957328743171 1.5094191465748634 0 -1.3121180739374072 1 I I #
point $-1 62.162685652878189 6.602726398796726 3.1967811206958592 #
loop $-1 $-1 $321 $312 #
plane-surface $-1 0 -26.857066470675797 5.7370577441480313 0 -1 0 0 0 -1 forward_v I I I I #
coedge $-1 $584 $315 $320 $474 forward $191 $-1 #
coedge $-1 $315 $584 $471 $585 reversed $191 $-1 #
edge $-1 $472 41.701292833774119 $479 47.462107204773631 $315 $586 forward 7 unknown #
coedge $-1 $324 $318 $469 $585 forward $313 $-1 #
vertex $-1 $585 $587 #
straight-curve $-1 -73.949392421839136 -13.651613673082348 7.3893063801330356 -1 0 0 I I #
edge $-1 $479 3.5244436371428129 $477 16.729896434736258 $468 $588 forward 7 unknown #
coedge $-1 $476 $321 $324 $481 reversed $466 $-1 #
coedge $-1 $321 $475 $584 $589 reversed $466 $-1 #
vertex $-1 $589 $590 #
straight-curve $-1 -44.732337529492838 -26.857066470675797 18.348751903372428 0.75470957328743171 0 0.6560590369687036 I I #
vertex $-1 $474 $591 #
straight-curve $-1 -63.96679586169013 -13.651613673082348 1.6284920091335096 0.75470957328743171 0 0.6560590369687036 I I #
edge $-1 $592 -63.966795861690116 $325 -57.339737150916577 $324 $593 forward 7 unknown #
point $-1 -57.339737150916577 -26.857066470675793 7.3893063801330374 #
point $-1 -57.339737150916577 -13.651613673082348 7.3893063801330374 #
edge $-1 $594 1 $594 0 $328 $-1 forward 7 unknown #
vertex $-1 $329 $595 #
ellipse-curve $-1 -57.586745616870282 -20.254340071879071 0.98127051866181947 -0.6560590369687036 0 0.75470957328743171 1.5094191465748634 0 1.3121180739374072 1 I I #
point $-1 -59.143847359728468 -20.254340071879071 5.8210172685706763 #
loop $-1 $-1 $340 $332 #
plane-surface $-1 -63.966795861690116 0 0 1 0 0 0 0 -1 forward_v I I I I #
coedge $-1 $491 $335 $337 $495 reversed $206 $-1 #
coedge $-1 $335 $490 $596 $597 reversed $206 $-1 #
coedge $-1 $343 $338 $335 $493 forward $333 $-1 #
edge $-1 $496 -16.609655270922559 $598 -9.9825965601490196 $492 $599 forward 7 unknown #
coedge $-1 $337 $336 $499 $600 reversed $128 $-1 #
edge $-1 $601 1.888283279974768e-014 $496 8.7809389801520847 $490 $602 forward 7 unknown #
vertex $-1 $339 $603 #
straight-curve $-1 -57.339737150916577 3.301363199398363 7.389306380133041 0 1 0 I I #
coedge $-1 $596 $340 $343 $503 reversed $488 $-1 #
coedge $-1 $340 $596 $494 $600 forward $488 $-1 #
vertex $-1 $341 $604 #
straight-curve $-1 -63.966795861690116 3.5527136788005009e-015 49.090599213907154 0 0 1 I I #
straight-curve $-1 -63.96679586169013 3.5527136788005009e-015 1.6284920091335096 -0.75470957328743171 0 -0.6560590369687036 I I #
edge $-1 $598 -13.205452797593448 $344 -3.5527136788005009e-015 $498 $605 forward 7 unknown #
point $-1 -63.966795861690116 3.5527136788005009e-015 7.3893063801330383 #
point $-1 -57.339737150916577 3.5527136788005009e-015 7.3893063801330374 #
edge $-1 $606 1 $606 0 $347 $-1 forward 7 unknown #
vertex $-1 $348 $607 #
ellipse-curve $-1 -57.586745616870282 6.602726398796726 0.98127051866181947 -0.6560590369687036 0 0.75470957328743171 1.5094191465748634 0 1.3121180739374072 1 I I #
point $-1 -59.143847359728468 6.602726398796726 5.8210172685706763 #
plane-surface $-1 63.966795861690116 0 0 -1 0 0 0 0 1 forward_v I I I I #
coedge $-1 $356 $354 $358 $515 reversed $221 $-1 #
edge $-1 $369 -7.3893063801330383 $517 7.3893063801330383 $368 $608 forward 7 unknown #
vertex $-1 $515 $609 #
straight-curve $-1 -63.966795861690116 -34.862264896305255 0 0 0 -1 I I #
edge $-1 $513 -34.862264896305255 $517 34.862264896305255 $511 $610 forward 7 unknown #
straight-curve $-1 0 -34.862264896305255 -7.3893063801330383 -1 0 0 I I #
vertex $-1 $361 $611 #
straight-curve $-1 0 34.862264896305255 -7.3893063801330383 1 0 0 I I #
point $-1 63.966795861690116 34.862264896305255 -7.3893063801330383 #
point $-1 63.966795861690116 -34.862264896305255 -7.3893063801330383 #
straight-curve $-1 -63.966795861690116 0 7.3893063801330383 0 -1 0 I I #
point $-1 -63.966795861690116 34.862264896305255 7.3893063801330383 #
point $-1 -63.966795861690116 -34.862264896305255 7.3893063801330383 #
straight-curve $-1 63.966795861690116 -34.862264896305255 0 0 0 -1 I I #
straight-curve $-1 63.966795861690116 34.862264896305255 0 0 0 -1 I I #
plane-surface $-1 63.966795861690116 0 0 -1 0 0 0 0 1 forward_v I I I I #
coedge $-1 $538 $380 $386 $534 reversed $240 $-1 #
coedge $-1 $380 $538 $529 $612 forward $240 $-1 #
coedge $-1 $382 $381 $528 $612 reversed $145 $-1 #
edge $-1 $393 11.427233628930534 $531 19.432432054559992 $381 $613 forward 7 unknown #
vertex $-1 $384 $614 #
straight-curve $-1 0 -34.862264896305255 4.0848091081630242 1 0 0 I I #
straight-curve $-1 0 -26.857066470675797 4.0848091081630242 1 0 0 I I #
edge $-1 $542 -7.3893063801330383 $388 -4.0848091081630242 $386 $615 forward 7 unknown #
point $-1 63.966795861690116 -34.862264896305255 4.0848091081630242 #
point $-1 63.966795861690116 -26.857066470675797 4.0848091081630242 #
point $-1 -63.966795861690116 -26.857066470675797 4.0848091081630242 #
coedge $-1 $528 $527 $395 $539 reversed $240 $-1 #
edge $-1 $540 -63.966795861690116 $542 63.966795861690116 $538 $616 forward 7 unknown #
vertex $-1 $396 $617 #
straight-curve $-1 -63.966795861690116 0 7.3893063801330383 0 -1 0 I I #
vertex $-1 $397 $618 #
straight-curve $-1 63.966795861690116 0 7.3893063801330383 0 1 0 I I #
plane-surface $-1 0 34.862264896305255 0 0 -1 0 0 0 -1 forward_v I I I I #
coedge $-1 $404 $403 $554 $619 forward $153 $-1 #
edge $-1 $548 26.857066470675797 $557 34.862264896305255 $419 $620 forward 7 unknown #
edge $-1 $621 -34.862264896305255 $410 -26.857066470675797 $407 $622 forward 7 unknown #
vertex $-1 $546 $623 #
straight-curve $-1 0 26.857066470675797 7.3893063801330383 1 0 0 I I #
coedge $-1 $408 $407 $414 $555 forward $401 $-1 #
point $-1 -63.966795861690116 26.857066470675797 4.0848091081630242 #
point $-1 -63.966795861690116 26.857066470675797 7.3893063801330383 #
straight-curve $-1 -63.966795861690116 15.429832841745263 4.0848091081630242 0 -1 0 I I #
coedge $-1 $415 $414 $545 $619 reversed $416 $-1 #
edge $-1 $621 -7.3893063801330383 $417 -4.0848091081630242 $414 $624 forward 7 unknown #
point $-1 -63.966795861690116 34.862264896305255 4.0848091081630242 #
vertex $-1 $546 $625 #
straight-curve $-1 63.966795861690116 34.862264896305255 0 0 0 -1 I I #
straight-curve $-1 63.966795861690116 26.857066470675797 2.8685288720740156 0 0 -1 I I #
coedge $-1 $561 $426 $567 $626 reversed $275 $-1 #
coedge $-1 $426 $560 $429 $565 reversed $275 $-1 #
edge $-1 $563 -16.729896434736258 $434 -3.5244436371428129 $433 $627 forward 7 unknown #
vertex $-1 $626 $628 #
straight-curve $-1 -32.585910556990669 -26.857066470675793 85.560480991121665 -0.75470957328743171 0 0.6560590369687036 I I #
edge $-1 $430 57.339737150916591 $569 63.966795861690116 $429 $629 forward 7 unknown #
point $-1 57.339737150916591 -26.857066470675793 7.3893063801330356 #
coedge $-1 $433 $432 $560 $626 forward $424 $-1 #
point $-1 63.966795861690116 -13.651613673082348 1.6284920091335238 #
vertex $-1 $437 $630 #
straight-curve $-1 63.966795861690116 0 7.3893063801330383 0 1 0 I I #
vertex $-1 $440 $631 #
point $-1 59.096164763445145 -20.254340071879071 -0.3308475552755904 #
edge $-1 $574 83.667287324768196 $577 89.428101695767708 $445 $632 forward 7 unknown #
vertex $-1 $459 $633 #
straight-curve $-1 25.673039212498736 3.5527136788005009e-015 7.3893063801330356 1 0 0 I I #
edge $-1 $577 -3.3013631993983594 $456 9.9040895981950854 $455 $634 forward 7 unknown #
vertex $-1 $576 $635 #
straight-curve $-1 -32.585910556990669 3.5527136788005009e-015 85.560480991121665 -0.75470957328743171 0 0.6560590369687036 I I #
point $-1 57.339737150916591 3.5527136788005009e-015 7.3893063801330356 #
point $-1 63.966795861690116 13.205452797593448 1.6284920091335238 #
straight-curve $-1 63.966795861690116 0 7.3893063801330383 0 1 0 I I #
vertex $-1 $462 $636 #
point $-1 59.096164763445145 6.602726398796726 -0.3308475552755904 #
coedge $-1 $469 $468 $476 $589 forward $191 $-1 #
edge $-1 $472 13.651613673082348 $592 26.857066470675797 $469 $637 forward 7 unknown #
straight-curve $-1 -63.966795861690116 -13.651613673082348 49.090599213907154 0 0 -1 I I #
point $-1 -63.966795861690116 -13.651613673082348 7.3893063801330383 #
straight-curve $-1 -63.966795861690116 -10.127170035939535 1.6284920091335229 0 -1 0 I I #
edge $-1 $477 -47.462107204773631 $592 -41.701292833774119 $584 $638 forward 7 unknown #
point $-1 -63.966795861690116 -26.857066470675793 1.628492009133522 #
point $-1 -63.966795861690116 -13.651613673082348 1.628492009133522 #
vertex $-1 $589 $639 #
straight-curve $-1 0 -26.857066470675797 7.3893063801330383 1 0 0 I I #
vertex $-1 $484 $640 #
point $-1 -56.077326470295418 -20.254340071879071 2.2933885925992268 #
coedge $-1 $499 $498 $491 $597 forward $488 $-1 #
edge $-1 $598 41.701292833774119 $601 47.462107204773631 $596 $641 forward 7 unknown #
vertex $-1 $503 $642 #
straight-curve $-1 -73.949392421839136 13.205452797593448 7.3893063801330356 -1 0 0 I I #
edge $-1 $601 -9.9040895981950854 $500 3.3013631993983594 $499 $643 forward 7 unknown #
vertex $-1 $600 $644 #
straight-curve $-1 -63.96679586169013 13.205452797593448 1.6284920091335096 0.75470957328743171 0 0.6560590369687036 I I #
point $-1 -57.339737150916577 13.205452797593448 7.3893063801330374 #
point $-1 -63.966795861690116 3.5527136788005009e-015 1.628492009133522 #
straight-curve $-1 -63.966795861690116 0 7.3893063801330383 0 -1 0 I I #
vertex $-1 $506 $645 #
point $-1 -56.077326470295418 6.602726398796726 2.2933885925992268 #
straight-curve $-1 -63.966795861690116 34.862264896305255 0 0 0 -1 I I #
point $-1 -63.966795861690116 -34.862264896305255 -7.3893063801330383 #
straight-curve $-1 -63.966795861690116 0 -7.3893063801330383 0 1 0 I I #
point $-1 -63.966795861690116 34.862264896305255 -7.3893063801330383 #
edge $-1 $540 -7.3893063801330383 $531 -4.0848091081630242 $529 $646 forward 7 unknown #
straight-curve $-1 -63.966795861690116 -15.429832841745263 4.0848091081630242 0 -1 0 I I #
point $-1 -63.966795861690116 -34.862264896305255 4.0848091081630242 #
straight-curve $-1 63.966795861690116 -34.862264896305255 0 0 0 -1 I I #
straight-curve $-1 0 -34.862264896305255 7.3893063801330383 1 0 0 I I #
point $-1 -63.966795861690116 -34.862264896305255 7.3893063801330383 #
point $-1 63.966795861690116 -34.862264896305255 7.3893063801330383 #
edge $-1 $557 -63.966795861690116 $621 63.966795861690116 $554 $647 forward 7 unknown #
straight-curve $-1 63.966795861690116 0 7.3893063801330383 0 1 0 I I #
vertex $-1 $619 $648 #
straight-curve $-1 -63.966795861690116 0 7.3893063801330383 0 -1 0 I I #
point $-1 63.966795861690116 26.857066470675797 7.3893063801330383 #
straight-curve $-1 -63.966795861690116 34.862264896305255 0 0 0 -1 I I #
point $-1 63.966795861690116 34.862264896305255 7.3893063801330383 #
edge $-1 $569 83.667287324768196 $563 89.428101695767708 $567 $649 forward 7 unknown #
straight-curve $-1 63.966795861690123 -10.127170035939535 1.6284920091335238 0 1 0 I I #
point $-1 63.966795861690116 -26.857066470675793 1.6284920091335238 #
straight-curve $-1 0 -26.857066470675797 7.3893063801330383 1 0 0 I I #
point $-1 63.966795861690116 -26.857066470675797 7.3893063801330383 #
point $-1 56.274627542932869 -20.254340071879071 -0.52814862791304662 #
straight-curve $-1 63.966795861690116 3.5527136788005009e-015 91.056593704901232 0 0 -1 I I #
point $-1 63.966795861690116 3.5527136788005009e-015 7.3893063801330383 #
straight-curve $-1 63.966795861690123 3.301363199398363 1.6284920091335238 0 1 0 I I #
point $-1 63.966795861690116 3.5527136788005009e-015 1.6284920091335238 #
point $-1 56.274627542932869 6.602726398796726 -0.52814862791304662 #
straight-curve $-1 -63.966795861690116 0 7.3893063801330383 0 -1 0 I I #
straight-curve $-1 -63.966795861690116 -26.857066470675793 49.090599213907154 0 0 1 I I #
point $-1 -63.966795861690116 -26.857066470675797 7.3893063801330383 #
point $-1 -56.274627542932869 -20.254340071879071 -0.52814862791304396 #
straight-curve $-1 -63.966795861690116 13.205452797593448 49.090599213907154 0 0 -1 I I #
point $-1 -63.966795861690116 13.205452797593448 7.3893063801330383 #
straight-curve $-1 -63.966795861690116 3.301363199398363 1.6284920091335229 0 -1 0 I I #
point $-1 -63.966795861690116 13.205452797593448 1.628492009133522 #
point $-1 -56.274627542932869 6.602726398796726 -0.52814862791304396 #
straight-curve $-1 -63.966795861690116 -34.862264896305255 0 0 0 -1 I I #
straight-curve $-1 0 34.862264896305255 7.3893063801330383 -1 0 0 I I #
point $-1 -63.966795861690116 34.862264896305255 7.3893063801330383 #
straight-curve $-1 63.966795861690116 -26.857066470675793 91.056593704901232 0 0 -1 I I #
End-of-ACIS-data 