500 0 14 0           
7 Unknown 11 ACIS 5.0 NT 24 Fri Mar 26 19:39:09 1999 
-1 9.9999999999999995e-007 1e-010 
body $-1 $14 $-1 $15 #
body $-1 $16 $-1 $17 #
body $-1 $18 $-1 $19 #
body $-1 $20 $-1 $21 #
body $-1 $22 $-1 $23 #
body $-1 $24 $-1 $25 #
body $-1 $26 $-1 $27 #
body $-1 $28 $-1 $29 #
body $-1 $30 $-1 $31 #
body $-1 $32 $-1 $33 #
body $-1 $34 $-1 $35 #
body $-1 $36 $-1 $37 #
body $-1 $38 $-1 $39 #
body $-1 $40 $-1 $41 #
lump $-1 $-1 $42 $0 #
transform $-1 1 0 0 0 1 0 0 0 1 51.488387707144383 25.12838223998444 7.5729476186360154 1 rotate no_reflect no_shear #
lump $-1 $-1 $43 $1 #
transform $-1 1 0 0 0 1 0 0 0 1 51.488387707144383 25.12838223998444 7.5729476186360154 1 rotate no_reflect no_shear #
lump $-1 $-1 $44 $2 #
transform $-1 1 0 0 0 1 0 0 0 1 51.488387707144383 25.12838223998444 7.5729476186360154 1 rotate no_reflect no_shear #
lump $-1 $-1 $45 $3 #
transform $-1 1 0 0 0 1 0 0 0 1 51.488387707144383 25.12838223998444 7.5729476186360154 1 rotate no_reflect no_shear #
lump $-1 $-1 $46 $4 #
transform $-1 1 0 0 0 1 0 0 0 1 51.488387707144383 25.12838223998444 7.5729476186360154 1 rotate no_reflect no_shear #
lump $-1 $-1 $47 $5 #
transform $-1 1 0 0 0 1 0 0 0 1 51.488387707144383 25.12838223998444 7.5729476186360154 1 rotate no_reflect no_shear #
lump $-1 $-1 $48 $6 #
transform $-1 1 0 0 0 1 0 0 0 1 51.488387707144383 25.12838223998444 7.5729476186360154 1 rotate no_reflect no_shear #
lump $-1 $-1 $49 $7 #
transform $-1 1 0 0 0 1 0 0 0 1 51.488387707144383 25.12838223998444 7.5729476186360154 1 rotate no_reflect no_shear #
lump $-1 $-1 $50 $8 #
transform $-1 1 0 0 0 1 0 0 0 1 51.488387707144383 25.12838223998444 7.5729476186360154 1 rotate no_reflect no_shear #
lump $-1 $-1 $51 $9 #
transform $-1 1 0 0 0 1 0 0 0 1 51.488387707144383 25.12838223998444 7.5729476186360154 1 rotate no_reflect no_shear #
lump $-1 $-1 $52 $10 #
transform $-1 1 0 0 0 1 0 0 0 1 51.488387707144383 25.12838223998444 7.5729476186360154 1 rotate no_reflect no_shear #
lump $-1 $-1 $53 $11 #
transform $-1 1 0 0 0 1 0 0 0 1 51.488387707144383 25.12838223998444 7.5729476186360154 1 rotate no_reflect no_shear #
lump $-1 $-1 $54 $12 #
transform $-1 1 0 0 0 1 0 0 0 1 51.488387707144383 25.12838223998444 7.5729476186360154 1 rotate no_reflect no_shear #
lump $-1 $-1 $55 $13 #
transform $-1 1 0 0 0 1 0 0 0 1 51.488387707144383 25.12838223998444 7.5729476186360154 1 rotate no_reflect no_shear #
shell $-1 $-1 $-1 $56 $-1 $14 #
shell $-1 $-1 $-1 $57 $-1 $16 #
shell $-1 $-1 $-1 $58 $-1 $18 #
shell $-1 $-1 $-1 $59 $-1 $20 #
shell $-1 $-1 $-1 $60 $-1 $22 #
shell $-1 $-1 $-1 $61 $-1 $24 #
shell $-1 $-1 $-1 $62 $-1 $26 #
shell $-1 $-1 $-1 $63 $-1 $28 #
shell $-1 $-1 $-1 $64 $-1 $30 #
shell $-1 $-1 $-1 $65 $-1 $32 #
shell $-1 $-1 $-1 $66 $-1 $34 #
shell $-1 $-1 $-1 $67 $-1 $36 #
shell $-1 $-1 $-1 $68 $-1 $38 #
shell $-1 $-1 $-1 $69 $-1 $40 #
face $-1 $70 $71 $42 $-1 $72 forward single #
face $-1 $73 $74 $43 $-1 $75 forward single #
face $-1 $76 $77 $44 $-1 $78 reversed single #
face $-1 $79 $80 $45 $-1 $81 forward single #
face $-1 $82 $83 $46 $-1 $84 forward single #
face $-1 $85 $86 $47 $-1 $87 reversed single #
face $-1 $88 $89 $48 $-1 $90 forward single #
face $-1 $91 $92 $49 $-1 $93 forward single #
face $-1 $94 $95 $50 $-1 $96 reversed single #
face $-1 $97 $98 $51 $-1 $99 forward single #
face $-1 $100 $101 $52 $-1 $102 forward single #
face $-1 $103 $104 $53 $-1 $105 reversed single #
face $-1 $106 $107 $54 $-1 $108 forward single #
face $-1 $109 $110 $55 $-1 $111 forward single #
face $-1 $112 $113 $42 $-1 $114 reversed single #
loop $-1 $-1 $115 $56 #
plane-surface $-1 0 0 7.5729476186360154 0 0 1 1 0 0 forward_v I I I I #
face $-1 $116 $117 $43 $-1 $118 reversed single #
loop $-1 $-1 $119 $57 #
plane-surface $-1 0 -22.541982695251907 -4.4009856786741066 0 0 1 1 0 0 forward_v I I I I #
face $-1 $120 $121 $44 $-1 $122 reversed single #
loop $-1 $-1 $123 $58 #
plane-surface $-1 33.740416200996833 -7.7272581040359398 147.9944355297209 0 -1 0 -0.61566148304635926 0 -0.78801074757464917 forward_v I I I I #
face $-1 $124 $125 $45 $-1 $126 forward single #
loop $-1 $127 $128 $59 #
cone-surface $-1 48.541220010198252 -12.440637632129617 5.1168661764244714 -0.61566148304635926 0 -0.78801074757464917 0.19700268689366229 0 -0.15391537076158981 1 I I 0 1 0.25 forward I I I I #
face $-1 $129 $130 $46 $-1 $131 forward single #
loop $-1 $132 $133 $60 #
cone-surface $-1 48.541220010198252 -9.6126099152734099 5.1168661764244714 -0.61566148304635926 0 -0.78801074757464917 0.19700268689366229 0 -0.15391537076158981 1 I I 0 1 0.25 forward I I I I #
face $-1 $134 $135 $47 $-1 $136 reversed single #
loop $-1 $-1 $137 $61 #
plane-surface $-1 33.740416200996833 14.814724591215969 147.9944355297209 0 -1 0 -0.61566148304635926 0 -0.78801074757464917 forward_v I I I I #
face $-1 $138 $139 $48 $-1 $140 forward single #
loop $-1 $141 $142 $62 #
cone-surface $-1 48.541220010198252 10.101345063122288 5.1168661764244714 -0.61566148304635926 0 -0.78801074757464917 0.19700268689366229 0 -0.15391537076158981 1 I I 0 1 0.25 forward I I I I #
face $-1 $143 $144 $49 $-1 $145 forward single #
loop $-1 $146 $147 $63 #
cone-surface $-1 48.541220010198252 12.9293727799785 5.1168661764244714 -0.61566148304635926 0 -0.78801074757464917 0.19700268689366229 0 -0.15391537076158981 1 I I 0 1 0.25 forward I I I I #
face $-1 $148 $149 $50 $-1 $150 reversed single #
loop $-1 $-1 $151 $64 #
plane-surface $-1 -114.88722197803727 -14.325989443367089 84.595601258828012 0 1 0 -0.61566148304635926 0 0.78801074757464917 forward_v I I I I #
face $-1 $152 $153 $51 $-1 $154 forward single #
loop $-1 $155 $156 $65 #
cone-surface $-1 -48.541220010198238 -12.440637632129617 5.1168661764244678 0.61566148304635926 0 -0.78801074757464917 0.19700268689366229 0 0.15391537076158981 1 I I 0 1 0.25 forward I I I I #
face $-1 $157 $158 $52 $-1 $159 forward single #
loop $-1 $160 $161 $66 #
cone-surface $-1 -48.541220010198238 -9.6126099152734099 5.1168661764244678 0.61566148304635926 0 -0.78801074757464917 0.19700268689366229 0 0.15391537076158981 1 I I 0 1 0.25 forward I I I I #
face $-1 $162 $163 $53 $-1 $164 reversed single #
loop $-1 $-1 $165 $67 #
plane-surface $-1 -114.88722197803727 8.2159932518848198 84.595601258828012 0 1 0 -0.61566148304635926 0 0.78801074757464917 forward_v I I I I #
face $-1 $166 $167 $54 $-1 $168 forward single #
loop $-1 $169 $170 $68 #
cone-surface $-1 -48.541220010198238 10.101345063122288 5.1168661764244678 0.61566148304635926 0 -0.78801074757464917 0.19700268689366229 0 0.15391537076158981 1 I I 0 1 0.25 forward I I I I #
face $-1 $171 $172 $55 $-1 $173 forward single #
loop $-1 $174 $175 $69 #
cone-surface $-1 -48.541220010198238 12.9293727799785 5.1168661764244678 0.61566148304635926 0 -0.78801074757464917 0.19700268689366229 0 0.15391537076158981 1 I I 0 1 0.25 forward I I I I #
face $-1 $176 $177 $42 $-1 $178 reversed single #
loop $-1 $-1 $179 $70 #
plane-surface $-1 0 0 -7.5729476186360154 0 0 1 1 0 0 forward_v I I I I #
coedge $-1 $180 $181 $182 $183 forward $71 $-1 #
face $-1 $184 $185 $43 $-1 $186 reversed single #
loop $-1 $-1 $187 $73 #
plane-surface $-1 0 -19.955583150519374 -5.986966648655061 0 -1 0 0 0 -1 forward_v I I I I #
coedge $-1 $188 $189 $190 $191 reversed $74 $-1 #
face $-1 $192 $193 $44 $-1 $194 reversed single #
loop $-1 $-1 $195 $76 #
plane-surface $-1 -29.658418069896058 -11.026623773701514 66.847629752680461 0.61566148304635926 0 0.78801074757464917 0.78801074757464917 0 -0.61566148304635926 forward_v I I I I #
coedge $-1 $196 $197 $198 $199 reversed $77 $-1 #
face $-1 $-1 $200 $45 $-1 $201 forward single #
loop $-1 $202 $203 $79 #
cone-surface $-1 48.156431583294278 -12.440637632129617 4.6243594591903152 -0.61566148304635926 0 -0.78801074757464917 0.098501343446831147 0 -0.076957685380794907 1 I I -0.70710678118654746 0.70710678118654746 0.125 forward I I I I #
loop $-1 $-1 $204 $59 #
coedge $-1 $128 $128 $205 $206 reversed $80 $-1 #
face $-1 $-1 $207 $46 $-1 $208 forward single #
loop $-1 $209 $210 $82 #
cone-surface $-1 48.156431583294278 -9.6126099152734099 4.6243594591903152 -0.61566148304635926 0 -0.78801074757464917 0.098501343446831147 0 -0.076957685380794907 1 I I -0.70710678118654746 0.70710678118654746 0.125 forward I I I I #
loop $-1 $-1 $211 $60 #
coedge $-1 $133 $133 $212 $213 reversed $83 $-1 #
face $-1 $214 $215 $47 $-1 $216 reversed single #
loop $-1 $-1 $217 $85 #
plane-surface $-1 -29.658418069896058 11.515358921550394 66.847629752680461 0.61566148304635926 0 0.78801074757464917 0.78801074757464917 0 -0.61566148304635926 forward_v I I I I #
coedge $-1 $218 $219 $220 $221 reversed $86 $-1 #
face $-1 $-1 $222 $48 $-1 $223 forward single #
loop $-1 $224 $225 $88 #
cone-surface $-1 48.156431583294278 10.101345063122288 4.6243594591903152 -0.61566148304635926 0 -0.78801074757464917 0.098501343446831147 0 -0.076957685380794907 1 I I -0.70710678118654746 0.70710678118654746 0.125 forward I I I I #
loop $-1 $-1 $226 $62 #
coedge $-1 $142 $142 $227 $228 reversed $89 $-1 #
face $-1 $-1 $229 $49 $-1 $230 forward single #
loop $-1 $231 $232 $91 #
cone-surface $-1 48.156431583294278 12.9293727799785 4.6243594591903152 -0.61566148304635926 0 -0.78801074757464917 0.098501343446831147 0 -0.076957685380794907 1 I I -0.70710678118654746 0.70710678118654746 0.125 forward I I I I #
loop $-1 $-1 $233 $63 #
coedge $-1 $147 $147 $234 $235 reversed $92 $-1 #
face $-1 $236 $237 $50 $-1 $238 reversed single #
loop $-1 $-1 $239 $94 #
plane-surface $-1 -51.488387707144383 -11.026623773701514 3.4487954817875703 -0.61566148304635926 0 0.78801074757464917 0.78801074757464917 0 0.61566148304635926 forward_v I I I I #
coedge $-1 $240 $241 $242 $243 reversed $95 $-1 #
face $-1 $-1 $244 $51 $-1 $245 forward single #
loop $-1 $246 $247 $97 #
cone-surface $-1 -48.156431583294264 -12.440637632129617 4.6243594591903117 0.61566148304635926 0 -0.78801074757464917 0.098501343446831147 0 0.076957685380794907 1 I I -0.70710678118654746 0.70710678118654746 0.125 forward I I I I #
loop $-1 $-1 $248 $65 #
coedge $-1 $156 $156 $249 $250 reversed $98 $-1 #
face $-1 $-1 $251 $52 $-1 $252 forward single #
loop $-1 $253 $254 $100 #
cone-surface $-1 -48.156431583294264 -9.6126099152734099 4.6243594591903117 0.61566148304635926 0 -0.78801074757464917 0.098501343446831147 0 0.076957685380794907 1 I I -0.70710678118654746 0.70710678118654746 0.125 forward I I I I #
loop $-1 $-1 $255 $66 #
coedge $-1 $161 $161 $256 $257 reversed $101 $-1 #
face $-1 $258 $259 $53 $-1 $260 reversed single #
loop $-1 $-1 $261 $103 #
plane-surface $-1 -51.488387707144383 11.515358921550394 3.4487954817875703 -0.61566148304635926 0 0.78801074757464917 0.78801074757464917 0 0.61566148304635926 forward_v I I I I #
coedge $-1 $262 $263 $264 $265 reversed $104 $-1 #
face $-1 $-1 $266 $54 $-1 $267 forward single #
loop $-1 $268 $269 $106 #
cone-surface $-1 -48.156431583294264 10.101345063122288 4.6243594591903117 0.61566148304635926 0 -0.78801074757464917 0.098501343446831147 0 0.076957685380794907 1 I I -0.70710678118654746 0.70710678118654746 0.125 forward I I I I #
loop $-1 $-1 $270 $68 #
coedge $-1 $170 $170 $271 $272 reversed $107 $-1 #
face $-1 $-1 $273 $55 $-1 $274 forward single #
loop $-1 $275 $276 $109 #
cone-surface $-1 -48.156431583294264 12.9293727799785 4.6243594591903117 0.61566148304635926 0 -0.78801074757464917 0.098501343446831147 0 0.076957685380794907 1 I I -0.70710678118654746 0.70710678118654746 0.125 forward I I I I #
loop $-1 $-1 $277 $69 #
coedge $-1 $175 $175 $278 $279 reversed $110 $-1 #
face $-1 $280 $281 $42 $-1 $282 reversed single #
loop $-1 $-1 $283 $112 #
plane-surface $-1 0 -25.12838223998444 0 0 1 0 0 0 1 forward_v I I I I #
coedge $-1 $284 $285 $286 $287 forward $113 $-1 #
coedge $-1 $288 $115 $289 $290 forward $71 $-1 #
coedge $-1 $115 $288 $291 $292 forward $71 $-1 #
coedge $-1 $293 $294 $115 $183 reversed $295 $-1 #
edge $-1 $296 -25.12838223998444 $297 25.12838223998444 $182 $298 forward 7 unknown #
face $-1 $299 $300 $43 $-1 $301 reversed single #
loop $-1 $-1 $302 $116 #
plane-surface $-1 0 0 -7.5729476186360154 0 0 1 1 0 0 forward_v I I I I #
coedge $-1 $303 $304 $305 $306 reversed $117 $-1 #
coedge $-1 $307 $119 $304 $308 forward $74 $-1 #
coedge $-1 $119 $307 $309 $310 reversed $74 $-1 #
coedge $-1 $311 $305 $119 $191 forward $300 $-1 #
edge $-1 $312 8.6845918028934204 $313 13.857390892358486 $190 $314 forward 7 unknown #
face $-1 $315 $316 $44 $-1 $317 reversed single #
loop $-1 $-1 $318 $120 #
plane-surface $-1 33.740416200996833 -14.325989443367089 147.9944355297209 0 1 0 0.61566148304635926 0 0.78801074757464917 forward_v I I I I #
coedge $-1 $319 $320 $321 $322 reversed $121 $-1 #
coedge $-1 $197 $123 $323 $324 reversed $77 $-1 #
coedge $-1 $123 $196 $319 $325 reversed $77 $-1 #
coedge $-1 $321 $326 $123 $199 forward $327 $-1 #
edge $-1 $328 -34.618179606645967 $329 -29.339505695800042 $198 $330 forward 7 unknown #
loop $-1 $-1 $205 $124 #
plane-surface $-1 -29.658418069896058 -11.026623773701514 66.847629752680461 0.61566148304635926 0 0.78801074757464917 0.78801074757464917 0 -0.61566148304635926 forward_v I I I I #
loop $-1 $-1 $331 $79 #
coedge $-1 $203 $203 $204 $332 reversed $125 $-1 #
coedge $-1 $204 $204 $203 $332 forward $127 $-1 #
coedge $-1 $205 $205 $128 $206 forward $200 $-1 #
edge $-1 $333 0 $333 6.2831853071796004 $205 $334 forward 7 unknown #
loop $-1 $-1 $212 $129 #
plane-surface $-1 -29.658418069896058 -11.026623773701514 66.847629752680461 0.61566148304635926 0 0.78801074757464917 0.78801074757464917 0 -0.61566148304635926 forward_v I I I I #
loop $-1 $-1 $335 $82 #
coedge $-1 $210 $210 $211 $336 reversed $130 $-1 #
coedge $-1 $211 $211 $210 $336 forward $132 $-1 #
coedge $-1 $212 $212 $133 $213 forward $207 $-1 #
edge $-1 $337 0 $337 6.2831853071796004 $212 $338 forward 7 unknown #
face $-1 $339 $340 $47 $-1 $341 reversed single #
loop $-1 $-1 $342 $134 #
plane-surface $-1 33.740416200996833 8.2159932518848198 147.9944355297209 0 1 0 0.61566148304635926 0 0.78801074757464917 forward_v I I I I #
coedge $-1 $343 $344 $345 $346 reversed $135 $-1 #
coedge $-1 $219 $137 $347 $348 reversed $86 $-1 #
coedge $-1 $137 $218 $343 $349 reversed $86 $-1 #
coedge $-1 $345 $350 $137 $221 forward $351 $-1 #
edge $-1 $352 -34.618179606645967 $353 -29.339505695800042 $220 $354 forward 7 unknown #
loop $-1 $-1 $227 $138 #
plane-surface $-1 -29.658418069896058 11.515358921550394 66.847629752680461 0.61566148304635926 0 0.78801074757464917 0.78801074757464917 0 -0.61566148304635926 forward_v I I I I #
loop $-1 $-1 $355 $88 #
coedge $-1 $225 $225 $226 $356 reversed $139 $-1 #
coedge $-1 $226 $226 $225 $356 forward $141 $-1 #
coedge $-1 $227 $227 $142 $228 forward $222 $-1 #
edge $-1 $357 0 $357 6.2831853071796004 $227 $358 forward 7 unknown #
loop $-1 $-1 $234 $143 #
plane-surface $-1 -29.658418069896058 11.515358921550394 66.847629752680461 0.61566148304635926 0 0.78801074757464917 0.78801074757464917 0 -0.61566148304635926 forward_v I I I I #
loop $-1 $-1 $359 $91 #
coedge $-1 $232 $232 $233 $360 reversed $144 $-1 #
coedge $-1 $233 $233 $232 $360 forward $146 $-1 #
coedge $-1 $234 $234 $147 $235 forward $229 $-1 #
edge $-1 $361 0 $361 6.2831853071796004 $234 $362 forward 7 unknown #
face $-1 $363 $364 $50 $-1 $365 forward single #
loop $-1 $-1 $366 $148 #
plane-surface $-1 -114.88722197803727 -7.7272581040359398 84.595601258828012 0 -1 0 0.61566148304635926 0 -0.78801074757464917 forward_v I I I I #
coedge $-1 $367 $368 $369 $370 reversed $149 $-1 #
coedge $-1 $241 $151 $371 $372 reversed $95 $-1 #
coedge $-1 $151 $240 $367 $373 reversed $95 $-1 #
coedge $-1 $369 $374 $151 $243 forward $364 $-1 #
edge $-1 $375 5.9552232818742539 $376 11.233897192720185 $242 $377 forward 7 unknown #
loop $-1 $-1 $249 $152 #
plane-surface $-1 -51.488387707144383 -11.026623773701514 3.4487954817875703 -0.61566148304635926 0 0.78801074757464917 0.78801074757464917 0 0.61566148304635926 forward_v I I I I #
loop $-1 $-1 $378 $97 #
coedge $-1 $247 $247 $248 $379 reversed $153 $-1 #
coedge $-1 $248 $248 $247 $379 forward $155 $-1 #
coedge $-1 $249 $249 $156 $250 forward $244 $-1 #
edge $-1 $380 0 $380 6.2831853071796004 $249 $381 forward 7 unknown #
loop $-1 $-1 $256 $157 #
plane-surface $-1 -51.488387707144383 -11.026623773701514 3.4487954817875703 -0.61566148304635926 0 0.78801074757464917 0.78801074757464917 0 0.61566148304635926 forward_v I I I I #
loop $-1 $-1 $382 $100 #
coedge $-1 $254 $254 $255 $383 reversed $158 $-1 #
coedge $-1 $255 $255 $254 $383 forward $160 $-1 #
coedge $-1 $256 $256 $161 $257 forward $251 $-1 #
edge $-1 $384 0 $384 6.2831853071796004 $256 $385 forward 7 unknown #
face $-1 $386 $387 $53 $-1 $388 forward single #
loop $-1 $-1 $389 $162 #
plane-surface $-1 -114.88722197803727 14.814724591215969 84.595601258828012 0 -1 0 0.61566148304635926 0 -0.78801074757464917 forward_v I I I I #
coedge $-1 $390 $391 $392 $393 reversed $163 $-1 #
coedge $-1 $263 $165 $394 $395 reversed $104 $-1 #
coedge $-1 $165 $262 $390 $396 reversed $104 $-1 #
coedge $-1 $392 $397 $165 $265 forward $387 $-1 #
edge $-1 $398 5.9552232818742539 $399 11.233897192720185 $264 $400 forward 7 unknown #
loop $-1 $-1 $271 $166 #
plane-surface $-1 -51.488387707144383 11.515358921550394 3.4487954817875703 -0.61566148304635926 0 0.78801074757464917 0.78801074757464917 0 0.61566148304635926 forward_v I I I I #
loop $-1 $-1 $401 $106 #
coedge $-1 $269 $269 $270 $402 reversed $167 $-1 #
coedge $-1 $270 $270 $269 $402 forward $169 $-1 #
coedge $-1 $271 $271 $170 $272 forward $266 $-1 #
edge $-1 $403 0 $403 6.2831853071796004 $271 $404 forward 7 unknown #
loop $-1 $-1 $278 $171 #
plane-surface $-1 -51.488387707144383 11.515358921550394 3.4487954817875703 -0.61566148304635926 0 0.78801074757464917 0.78801074757464917 0 0.61566148304635926 forward_v I I I I #
loop $-1 $-1 $405 $109 #
coedge $-1 $276 $276 $277 $406 reversed $172 $-1 #
coedge $-1 $277 $277 $276 $406 forward $174 $-1 #
coedge $-1 $278 $278 $175 $279 forward $273 $-1 #
edge $-1 $407 0 $407 6.2831853071796004 $278 $408 forward 7 unknown #
face $-1 $409 $410 $42 $-1 $411 reversed single #
loop $-1 $-1 $412 $176 #
plane-surface $-1 -51.488387707144383 0 0 1 0 0 0 0 -1 forward_v I I I I #
coedge $-1 $413 $291 $414 $415 forward $177 $-1 #
coedge $-1 $416 $179 $413 $417 forward $113 $-1 #
coedge $-1 $179 $416 $418 $419 forward $113 $-1 #
coedge $-1 $294 $293 $179 $287 reversed $295 $-1 #
edge $-1 $420 -25.12838223998444 $421 25.12838223998444 $286 $422 forward 7 unknown #
coedge $-1 $181 $180 $423 $424 forward $71 $-1 #
coedge $-1 $425 $426 $180 $290 reversed $410 $-1 #
edge $-1 $297 -51.488387707144383 $427 51.488387707144383 $289 $428 forward 7 unknown #
coedge $-1 $283 $429 $181 $292 reversed $177 $-1 #
edge $-1 $430 -51.488387707144383 $296 51.488387707144383 $291 $431 forward 7 unknown #
coedge $-1 $286 $182 $429 $432 forward $295 $-1 #
coedge $-1 $182 $286 $425 $433 reversed $295 $-1 #
loop $-1 $-1 $293 $409 #
vertex $-1 $183 $434 #
vertex $-1 $183 $435 #
straight-curve $-1 51.488387707144383 0 7.5729476186360154 0 1 0 I I #
face $-1 $436 $437 $43 $-1 $438 reversed single #
loop $-1 $-1 $305 $184 #
plane-surface $-1 51.488387707144383 0 0 -1 0 0 0 0 1 forward_v I I I I #
coedge $-1 $439 $440 $303 $441 forward $185 $-1 #
coedge $-1 $442 $187 $302 $441 reversed $117 $-1 #
coedge $-1 $187 $442 $188 $308 reversed $117 $-1 #
coedge $-1 $190 $443 $187 $306 forward $300 $-1 #
edge $-1 $444 -4.5794642943084849 $312 -1.4075023543465761 $305 $445 forward 7 unknown #
coedge $-1 $189 $188 $446 $447 reversed $74 $-1 #
edge $-1 $312 -51.488387707144383 $448 51.488387707144383 $304 $449 forward 7 unknown #
coedge $-1 $450 $451 $189 $310 forward $437 $-1 #
edge $-1 $313 -51.488387707144383 $452 51.488387707144383 $309 $453 forward 7 unknown #
coedge $-1 $443 $190 $451 $454 forward $300 $-1 #
vertex $-1 $191 $455 #
vertex $-1 $454 $456 #
straight-curve $-1 51.488387707144383 -11.270991347625953 -4.4009856786741066 0 -1 0 I I #
face $-1 $-1 $327 $44 $-1 $457 forward single #
loop $-1 $-1 $458 $192 #
plane-surface $-1 51.488387707144383 0 0 -1 0 0 0 0 1 forward_v I I I I #
coedge $-1 $459 $460 $461 $462 reversed $193 $-1 #
coedge $-1 $463 $195 $197 $325 forward $121 $-1 #
coedge $-1 $195 $463 $459 $464 forward $121 $-1 #
coedge $-1 $461 $198 $195 $322 forward $327 $-1 #
edge $-1 $329 2.2139462171851827 $465 8.8126775565163307 $321 $466 forward 7 unknown #
coedge $-1 $467 $468 $196 $324 forward $316 $-1 #
edge $-1 $469 -70.548422283072881 $328 -66.42427014622443 $323 $470 forward 7 unknown #
edge $-1 $329 96.278042018719347 $469 102.97677541428877 $197 $471 forward 7 unknown #
coedge $-1 $198 $461 $467 $472 forward $327 $-1 #
loop $-1 $-1 $461 $315 #
vertex $-1 $324 $473 #
vertex $-1 $199 $474 #
straight-curve $-1 16.870208100498417 -7.7272581040359398 7.5729476186360216 -1 0 0 I I #
coedge $-1 $331 $331 $-1 $475 reversed $202 $-1 #
edge $-1 $476 0 $476 6.2831853071796004 $203 $477 forward 7 unknown #
vertex $-1 $206 $478 #
ellipse-curve $-1 48.849050751721428 -12.440637632129617 5.5108715502117906 0.61566148304635926 0 0.78801074757464917 0.19700268689366229 0 -0.15391537076158981 1 I I #
coedge $-1 $335 $335 $-1 $479 reversed $209 $-1 #
edge $-1 $480 0 $480 6.2831853071796004 $210 $481 forward 7 unknown #
vertex $-1 $213 $482 #
ellipse-curve $-1 48.849050751721428 -9.6126099152734099 5.5108715502117906 0.61566148304635926 0 0.78801074757464917 0.19700268689366229 0 -0.15391537076158981 1 I I #
face $-1 $-1 $351 $47 $-1 $483 forward single #
loop $-1 $-1 $484 $214 #
plane-surface $-1 51.488387707144383 0 0 -1 0 0 0 0 1 forward_v I I I I #
coedge $-1 $485 $486 $487 $488 reversed $215 $-1 #
coedge $-1 $489 $217 $219 $349 forward $135 $-1 #
coedge $-1 $217 $489 $485 $490 forward $135 $-1 #
coedge $-1 $487 $220 $217 $346 forward $351 $-1 #
edge $-1 $353 -9.0570451304407715 $491 -2.4583137911096227 $345 $492 forward 7 unknown #
coedge $-1 $493 $494 $218 $348 forward $340 $-1 #
edge $-1 $495 -70.548422283072881 $352 -66.42427014622443 $347 $496 forward 7 unknown #
edge $-1 $353 96.278042018719347 $495 102.97677541428877 $219 $497 forward 7 unknown #
coedge $-1 $220 $487 $493 $498 forward $351 $-1 #
loop $-1 $-1 $487 $339 #
vertex $-1 $348 $499 #
vertex $-1 $221 $500 #
straight-curve $-1 16.870208100498417 14.814724591215969 7.5729476186360216 -1 0 0 I I #
coedge $-1 $355 $355 $-1 $501 reversed $224 $-1 #
edge $-1 $502 0 $502 6.2831853071796004 $225 $503 forward 7 unknown #
vertex $-1 $228 $504 #
ellipse-curve $-1 48.849050751721428 10.101345063122288 5.5108715502117906 0.61566148304635926 0 0.78801074757464917 0.19700268689366229 0 -0.15391537076158981 1 I I #
coedge $-1 $359 $359 $-1 $505 reversed $231 $-1 #
edge $-1 $506 0 $506 6.2831853071796004 $232 $507 forward 7 unknown #
vertex $-1 $235 $508 #
ellipse-curve $-1 48.849050751721428 12.9293727799785 5.5108715502117906 0.61566148304635926 0 0.78801074757464917 0.19700268689366229 0 -0.15391537076158981 1 I I #
face $-1 $-1 $509 $50 $-1 $510 reversed single #
loop $-1 $-1 $242 $236 #
plane-surface $-1 0 0 7.5729476186360154 0 0 1 1 0 0 forward_v I I I I #
coedge $-1 $511 $512 $513 $514 reversed $237 $-1 #
coedge $-1 $515 $239 $241 $373 forward $149 $-1 #
coedge $-1 $239 $515 $511 $516 forward $149 $-1 #
coedge $-1 $513 $242 $239 $370 forward $364 $-1 #
edge $-1 $376 -8.8126775565163307 $517 -2.2139462171851827 $369 $518 forward 7 unknown #
coedge $-1 $519 $520 $240 $372 forward $509 $-1 #
edge $-1 $521 -38.849005147626436 $375 -34.724853010777991 $371 $522 forward 7 unknown #
edge $-1 $376 -6.698733395569425 $521 0 $241 $523 forward 7 unknown #
coedge $-1 $242 $513 $519 $524 forward $364 $-1 #
vertex $-1 $372 $525 #
vertex $-1 $243 $526 #
straight-curve $-1 -57.443610989018637 -14.325989443367089 7.5729476186360145 1 0 0 I I #
coedge $-1 $378 $378 $-1 $527 reversed $246 $-1 #
edge $-1 $528 0 $528 6.2831853071796004 $247 $529 forward 7 unknown #
vertex $-1 $250 $530 #
ellipse-curve $-1 -48.849050751721421 -12.440637632129617 5.5108715502117933 -0.61566148304635926 0 0.78801074757464917 0.19700268689366229 0 0.15391537076158981 1 I I #
coedge $-1 $382 $382 $-1 $531 reversed $253 $-1 #
edge $-1 $532 0 $532 6.2831853071796004 $254 $533 forward 7 unknown #
vertex $-1 $257 $534 #
ellipse-curve $-1 -48.849050751721421 -9.6126099152734099 5.5108715502117933 -0.61566148304635926 0 0.78801074757464917 0.19700268689366229 0 0.15391537076158981 1 I I #
face $-1 $-1 $535 $53 $-1 $536 reversed single #
loop $-1 $-1 $264 $258 #
plane-surface $-1 0 0 7.5729476186360154 0 0 1 1 0 0 forward_v I I I I #
coedge $-1 $537 $538 $539 $540 reversed $259 $-1 #
coedge $-1 $541 $261 $263 $396 forward $163 $-1 #
coedge $-1 $261 $541 $537 $542 forward $163 $-1 #
coedge $-1 $539 $264 $261 $393 forward $387 $-1 #
edge $-1 $399 2.4583137911096227 $543 9.0570451304407715 $392 $544 forward 7 unknown #
coedge $-1 $545 $546 $262 $395 forward $535 $-1 #
edge $-1 $547 -38.849005147626436 $398 -34.724853010777991 $394 $548 forward 7 unknown #
edge $-1 $399 -6.698733395569425 $547 0 $263 $549 forward 7 unknown #
coedge $-1 $264 $539 $545 $550 forward $387 $-1 #
vertex $-1 $265 $551 #
vertex $-1 $265 $552 #
straight-curve $-1 -57.443610989018637 8.2159932518848198 7.5729476186360145 1 0 0 I I #
coedge $-1 $401 $401 $-1 $553 reversed $268 $-1 #
edge $-1 $554 0 $554 6.2831853071796004 $269 $555 forward 7 unknown #
vertex $-1 $272 $556 #
ellipse-curve $-1 -48.849050751721421 10.101345063122288 5.5108715502117933 -0.61566148304635926 0 0.78801074757464917 0.19700268689366229 0 0.15391537076158981 1 I I #
coedge $-1 $405 $405 $-1 $557 reversed $275 $-1 #
edge $-1 $558 0 $558 6.2831853071796004 $276 $559 forward 7 unknown #
vertex $-1 $279 $560 #
ellipse-curve $-1 -48.849050751721421 12.9293727799785 5.5108715502117933 -0.61566148304635926 0 0.78801074757464917 0.19700268689366229 0 0.15391537076158981 1 I I #
face $-1 $-1 $295 $42 $-1 $561 reversed single #
loop $-1 $-1 $425 $280 #
plane-surface $-1 0 25.12838223998444 0 0 -1 0 0 0 -1 forward_v I I I I #
coedge $-1 $562 $423 $426 $563 forward $281 $-1 #
coedge $-1 $429 $283 $284 $417 reversed $177 $-1 #
coedge $-1 $423 $562 $283 $415 reversed $281 $-1 #
edge $-1 $430 -7.5729476186360154 $564 7.5729476186360154 $414 $565 forward 7 unknown #
coedge $-1 $285 $284 $562 $566 forward $113 $-1 #
edge $-1 $421 -51.488387707144383 $564 51.488387707144383 $413 $567 forward 7 unknown #
coedge $-1 $426 $425 $285 $419 reversed $410 $-1 #
edge $-1 $568 -51.488387707144383 $420 51.488387707144383 $418 $569 forward 7 unknown #
vertex $-1 $287 $570 #
vertex $-1 $432 $571 #
straight-curve $-1 51.488387707144383 0 -7.5729476186360154 0 -1 0 I I #
coedge $-1 $412 $414 $288 $424 reversed $281 $-1 #
edge $-1 $427 -25.12838223998444 $430 25.12838223998444 $423 $572 forward 7 unknown #
coedge $-1 $418 $289 $294 $433 forward $410 $-1 #
coedge $-1 $289 $418 $412 $563 reversed $410 $-1 #
vertex $-1 $290 $573 #
straight-curve $-1 0 25.12838223998444 7.5729476186360154 -1 0 0 I I #
coedge $-1 $291 $413 $293 $432 reversed $177 $-1 #
vertex $-1 $424 $574 #
straight-curve $-1 0 -25.12838223998444 7.5729476186360154 1 0 0 I I #
edge $-1 $296 -7.5729476186360154 $421 7.5729476186360154 $293 $575 forward 7 unknown #
edge $-1 $297 -7.5729476186360154 $420 7.5729476186360154 $294 $576 forward 7 unknown #
point $-1 51.488387707144383 -25.12838223998444 7.5729476186360154 #
point $-1 51.488387707144383 25.12838223998444 7.5729476186360154 #
face $-1 $-1 $577 $43 $-1 $578 reversed single #
loop $-1 $-1 $309 $299 #
plane-surface $-1 0 -25.12838223998444 0 0 1 0 0 0 1 forward_v I I I I #
coedge $-1 $579 $302 $443 $580 forward $185 $-1 #
coedge $-1 $302 $579 $581 $582 forward $185 $-1 #
edge $-1 $583 -51.488387707144383 $444 51.488387707144383 $302 $584 forward 7 unknown #
coedge $-1 $304 $303 $585 $586 reversed $117 $-1 #
coedge $-1 $305 $311 $439 $580 reversed $300 $-1 #
vertex $-1 $580 $587 #
straight-curve $-1 51.488387707144383 -19.955583150519374 -2.9934833243275305 0 0 1 I I #
coedge $-1 $585 $588 $307 $447 forward $577 $-1 #
edge $-1 $452 -13.857390892358486 $448 -8.6845918028934204 $446 $589 forward 7 unknown #
vertex $-1 $447 $590 #
straight-curve $-1 0 -19.955583150519374 -4.4009856786741066 -1 0 0 I I #
coedge $-1 $591 $309 $588 $592 forward $437 $-1 #
coedge $-1 $309 $591 $311 $454 reversed $437 $-1 #
vertex $-1 $592 $593 #
straight-curve $-1 0 -25.12838223998444 -4.4009856786741066 -1 0 0 I I #
edge $-1 $313 4.4009856786741066 $594 7.5729476186360154 $311 $595 forward 7 unknown #
point $-1 51.488387707144383 -19.955583150519374 -4.4009856786741066 #
point $-1 51.488387707144383 -25.12838223998444 -4.4009856786741066 #
plane-surface $-1 0 0 7.5729476186360154 0 0 1 1 0 0 forward_v I I I I #
coedge $-1 $468 $467 $460 $596 forward $316 $-1 #
coedge $-1 $460 $318 $320 $464 reversed $193 $-1 #
coedge $-1 $318 $459 $458 $596 reversed $193 $-1 #
coedge $-1 $326 $321 $318 $462 forward $327 $-1 #
edge $-1 $465 29.339505695800042 $597 34.618179606645967 $461 $598 forward 7 unknown #
coedge $-1 $320 $319 $468 $599 reversed $121 $-1 #
edge $-1 $600 -102.97677541428877 $465 -96.278042018719347 $459 $601 forward 7 unknown #
vertex $-1 $322 $602 #
straight-curve $-1 46.209713796298466 -5.5133118868507571 7.5729476186360145 0 -1 0 I I #
coedge $-1 $458 $323 $326 $472 reversed $316 $-1 #
coedge $-1 $323 $458 $463 $599 forward $316 $-1 #
vertex $-1 $324 $603 #
straight-curve $-1 51.488387707144383 -7.7272581040359398 73.997217764860451 0 0 1 I I #
straight-curve $-1 -29.658418069896058 -7.7272581040359398 66.847629752680461 0.78801074757464917 0 -0.61566148304635926 I I #
edge $-1 $597 -14.325989443367089 $328 -7.7272581040359398 $467 $604 forward 7 unknown #
point $-1 51.488387707144383 -7.7272581040359398 7.5729476186360154 #
point $-1 46.209713796298459 -7.7272581040359398 7.5729476186360145 #
edge $-1 $605 1 $605 0 $331 $-1 forward 7 unknown #
vertex $-1 $332 $606 #
ellipse-curve $-1 48.233389268675076 -12.440637632129617 4.7228608026371468 0.61566148304635926 0 0.78801074757464917 0.19700268689366229 0 -0.15391537076158981 1 I I #
point $-1 49.046053438615097 -12.440637632129617 5.3569561794502061 #
edge $-1 $607 1 $607 0 $335 $-1 forward 7 unknown #
vertex $-1 $336 $608 #
ellipse-curve $-1 48.233389268675076 -9.6126099152734099 4.7228608026371468 0.61566148304635926 0 0.78801074757464917 0.19700268689366229 0 -0.15391537076158981 1 I I #
point $-1 49.046053438615097 -9.6126099152734099 5.3569561794502061 #
plane-surface $-1 0 0 7.5729476186360154 0 0 1 1 0 0 forward_v I I I I #
coedge $-1 $494 $493 $486 $609 forward $340 $-1 #
coedge $-1 $486 $342 $344 $490 reversed $215 $-1 #
coedge $-1 $342 $485 $484 $609 reversed $215 $-1 #
coedge $-1 $350 $345 $342 $488 forward $351 $-1 #
edge $-1 $491 29.339505695800042 $610 34.618179606645967 $487 $611 forward 7 unknown #
coedge $-1 $344 $343 $494 $612 reversed $135 $-1 #
edge $-1 $613 -102.97677541428877 $491 -96.278042018719347 $485 $614 forward 7 unknown #
vertex $-1 $346 $615 #
straight-curve $-1 46.209713796298466 5.7576794607751971 7.5729476186360145 0 -1 0 I I #
coedge $-1 $484 $347 $350 $498 reversed $340 $-1 #
coedge $-1 $347 $484 $489 $612 forward $340 $-1 #
vertex $-1 $348 $616 #
straight-curve $-1 51.488387707144383 14.814724591215969 73.997217764860451 0 0 1 I I #
straight-curve $-1 -29.658418069896058 14.814724591215969 66.847629752680461 0.78801074757464917 0 -0.61566148304635926 I I #
edge $-1 $610 8.2159932518848198 $352 14.814724591215969 $493 $617 forward 7 unknown #
point $-1 51.488387707144383 14.814724591215969 7.5729476186360154 #
point $-1 46.209713796298459 14.814724591215969 7.5729476186360145 #
edge $-1 $618 1 $618 0 $355 $-1 forward 7 unknown #
vertex $-1 $356 $619 #
ellipse-curve $-1 48.233389268675076 10.101345063122288 4.7228608026371468 0.61566148304635926 0 0.78801074757464917 0.19700268689366229 0 -0.15391537076158981 1 I I #
point $-1 49.046053438615097 10.101345063122288 5.3569561794502061 #
edge $-1 $620 1 $620 0 $359 $-1 forward 7 unknown #
vertex $-1 $360 $621 #
ellipse-curve $-1 48.233389268675076 12.9293727799785 4.7228608026371468 0.61566148304635926 0 0.78801074757464917 0.19700268689366229 0 -0.15391537076158981 1 I I #
point $-1 49.046053438615097 12.9293727799785 5.3569561794502061 #
loop $-1 $-1 $371 $363 #
plane-surface $-1 -51.488387707144383 0 0 1 0 0 0 0 -1 forward_v I I I I #
coedge $-1 $512 $366 $368 $516 reversed $237 $-1 #
coedge $-1 $366 $511 $622 $623 reversed $237 $-1 #
coedge $-1 $374 $369 $366 $514 forward $364 $-1 #
edge $-1 $517 -11.233897192720185 $624 -5.9552232818742539 $513 $625 forward 7 unknown #
coedge $-1 $368 $367 $520 $626 reversed $149 $-1 #
edge $-1 $627 0 $517 6.698733395569425 $511 $628 forward 7 unknown #
vertex $-1 $370 $629 #
straight-curve $-1 -46.209713796298452 -5.5133118868507571 7.5729476186360145 0 1 0 I I #
coedge $-1 $622 $371 $374 $524 reversed $509 $-1 #
coedge $-1 $371 $622 $515 $626 forward $509 $-1 #
vertex $-1 $372 $630 #
straight-curve $-1 -51.488387707144383 -14.325989443367089 42.297800629414006 0 0 1 I I #
straight-curve $-1 -51.488387707144383 -14.325989443367089 3.4487954817875703 -0.78801074757464917 0 -0.61566148304635926 I I #
edge $-1 $624 7.7272581040359398 $375 14.325989443367089 $519 $631 forward 7 unknown #
point $-1 -51.488387707144383 -14.325989443367089 7.5729476186360154 #
point $-1 -46.209713796298452 -14.325989443367089 7.5729476186360154 #
edge $-1 $632 1 $632 0 $378 $-1 forward 7 unknown #
vertex $-1 $379 $633 #
ellipse-curve $-1 -48.233389268675062 -12.440637632129617 4.7228608026371433 -0.61566148304635926 0 0.78801074757464917 0.19700268689366229 0 0.15391537076158981 1 I I #
point $-1 -48.652048064827753 -12.440637632129617 5.6647869209733823 #
edge $-1 $634 1 $634 0 $382 $-1 forward 7 unknown #
vertex $-1 $383 $635 #
ellipse-curve $-1 -48.233389268675062 -9.6126099152734099 4.7228608026371433 -0.61566148304635926 0 0.78801074757464917 0.19700268689366229 0 0.15391537076158981 1 I I #
point $-1 -48.652048064827753 -9.6126099152734099 5.6647869209733823 #
loop $-1 $-1 $394 $386 #
plane-surface $-1 -51.488387707144383 0 0 1 0 0 0 0 -1 forward_v I I I I #
coedge $-1 $538 $389 $391 $542 reversed $259 $-1 #
coedge $-1 $389 $537 $636 $637 reversed $259 $-1 #
coedge $-1 $397 $392 $389 $540 forward $387 $-1 #
edge $-1 $543 -11.233897192720185 $638 -5.9552232818742539 $539 $639 forward 7 unknown #
coedge $-1 $391 $390 $546 $640 reversed $163 $-1 #
edge $-1 $641 0 $543 6.698733395569425 $537 $642 forward 7 unknown #
vertex $-1 $393 $643 #
straight-curve $-1 -46.209713796298452 5.7576794607751971 7.5729476186360145 0 1 0 I I #
coedge $-1 $636 $394 $397 $550 reversed $535 $-1 #
coedge $-1 $394 $636 $541 $640 forward $535 $-1 #
vertex $-1 $395 $644 #
straight-curve $-1 -51.488387707144383 8.2159932518848198 42.297800629414006 0 0 1 I I #
straight-curve $-1 -51.488387707144383 8.2159932518848198 3.4487954817875703 -0.78801074757464917 0 -0.61566148304635926 I I #
edge $-1 $638 -14.814724591215969 $398 -8.2159932518848198 $545 $645 forward 7 unknown #
point $-1 -51.488387707144383 8.2159932518848198 7.5729476186360154 #
point $-1 -46.209713796298452 8.2159932518848198 7.5729476186360154 #
edge $-1 $646 1 $646 0 $401 $-1 forward 7 unknown #
vertex $-1 $402 $647 #
ellipse-curve $-1 -48.233389268675062 10.101345063122288 4.7228608026371433 -0.61566148304635926 0 0.78801074757464917 0.19700268689366229 0 0.15391537076158981 1 I I #
point $-1 -48.652048064827753 10.101345063122288 5.6647869209733823 #
edge $-1 $648 1 $648 0 $405 $-1 forward 7 unknown #
vertex $-1 $406 $649 #
ellipse-curve $-1 -48.233389268675062 12.9293727799785 4.7228608026371433 -0.61566148304635926 0 0.78801074757464917 0.19700268689366229 0 0.15391537076158981 1 I I #
point $-1 -48.652048064827753 12.9293727799785 5.6647869209733823 #
plane-surface $-1 51.488387707144383 0 0 -1 0 0 0 0 1 forward_v I I I I #
coedge $-1 $414 $412 $416 $566 reversed $281 $-1 #
edge $-1 $427 -7.5729476186360154 $568 7.5729476186360154 $426 $650 forward 7 unknown #
vertex $-1 $566 $651 #
straight-curve $-1 -51.488387707144383 -25.12838223998444 0 0 0 -1 I I #
edge $-1 $564 -25.12838223998444 $568 25.12838223998444 $562 $652 forward 7 unknown #
straight-curve $-1 0 -25.12838223998444 -7.5729476186360154 -1 0 0 I I #
vertex $-1 $419 $653 #
straight-curve $-1 0 25.12838223998444 -7.5729476186360154 1 0 0 I I #
point $-1 51.488387707144383 25.12838223998444 -7.5729476186360154 #
point $-1 51.488387707144383 -25.12838223998444 -7.5729476186360154 #
straight-curve $-1 -51.488387707144383 0 7.5729476186360154 0 -1 0 I I #
point $-1 -51.488387707144383 25.12838223998444 7.5729476186360154 #
point $-1 -51.488387707144383 -25.12838223998444 7.5729476186360154 #
straight-curve $-1 51.488387707144383 -25.12838223998444 0 0 0 -1 I I #
straight-curve $-1 51.488387707144383 25.12838223998444 0 0 0 -1 I I #
loop $-1 $-1 $585 $436 #
plane-surface $-1 -51.488387707144383 0 0 1 0 0 0 0 -1 forward_v I I I I #
coedge $-1 $440 $439 $591 $654 forward $185 $-1 #
edge $-1 $444 19.955583150519374 $594 25.12838223998444 $443 $655 forward 7 unknown #
coedge $-1 $588 $585 $440 $582 reversed $577 $-1 #
edge $-1 $656 -25.12838223998444 $583 -19.955583150519374 $581 $657 forward 7 unknown #
vertex $-1 $586 $658 #
straight-curve $-1 0 -19.955583150519374 -7.5729476186360154 1 0 0 I I #
coedge $-1 $581 $446 $442 $586 forward $577 $-1 #
edge $-1 $448 1.4075023543465761 $583 4.5794642943084849 $585 $659 forward 7 unknown #
point $-1 51.488387707144383 -19.955583150519374 -7.5729476186360154 #
coedge $-1 $446 $581 $450 $592 reversed $577 $-1 #
straight-curve $-1 -51.488387707144383 -11.270991347625953 -4.4009856786741066 0 1 0 I I #
point $-1 -51.488387707144383 -19.955583150519374 -4.4009856786741066 #
coedge $-1 $451 $450 $579 $654 reversed $437 $-1 #
edge $-1 $452 4.4009856786741066 $656 7.5729476186360154 $588 $660 forward 7 unknown #
point $-1 -51.488387707144383 -25.12838223998444 -4.4009856786741066 #
vertex $-1 $454 $661 #
straight-curve $-1 51.488387707144383 -25.12838223998444 0 0 0 -1 I I #
edge $-1 $597 66.42427014622443 $600 70.548422283072881 $458 $662 forward 7 unknown #
vertex $-1 $472 $663 #
straight-curve $-1 16.870208100498417 -14.325989443367089 7.5729476186360216 1 0 0 I I #
edge $-1 $600 -8.8126775565163307 $469 -2.2139462171851827 $468 $664 forward 7 unknown #
vertex $-1 $599 $665 #
straight-curve $-1 -29.658418069896058 -14.325989443367089 66.847629752680461 -0.78801074757464917 0 0.61566148304635926 I I #
point $-1 46.209713796298459 -14.325989443367089 7.5729476186360145 #
point $-1 51.488387707144383 -7.7272581040359398 3.4487954817875703 #
straight-curve $-1 51.488387707144383 0 7.5729476186360154 0 1 0 I I #
vertex $-1 $475 $666 #
point $-1 48.430391955568737 -12.440637632129617 4.5689454318755569 #
vertex $-1 $479 $667 #
point $-1 48.430391955568737 -9.6126099152734099 4.5689454318755569 #
edge $-1 $610 66.42427014622443 $613 70.548422283072881 $484 $668 forward 7 unknown #
vertex $-1 $498 $669 #
straight-curve $-1 16.870208100498417 8.2159932518848198 7.5729476186360216 1 0 0 I I #
edge $-1 $613 2.4583137911096227 $495 9.0570451304407715 $494 $670 forward 7 unknown #
vertex $-1 $612 $671 #
straight-curve $-1 -29.658418069896058 8.2159932518848198 66.847629752680461 -0.78801074757464917 0 0.61566148304635926 I I #
point $-1 46.209713796298459 8.2159932518848198 7.5729476186360145 #
point $-1 51.488387707144383 14.814724591215969 3.4487954817875703 #
straight-curve $-1 51.488387707144383 0 7.5729476186360154 0 1 0 I I #
vertex $-1 $501 $672 #
point $-1 48.430391955568737 10.101345063122288 4.5689454318755569 #
vertex $-1 $505 $673 #
point $-1 48.430391955568737 12.9293727799785 4.5689454318755569 #
coedge $-1 $520 $519 $512 $623 forward $509 $-1 #
edge $-1 $624 34.724853010777991 $627 38.849005147626436 $622 $674 forward 7 unknown #
vertex $-1 $524 $675 #
straight-curve $-1 -57.443610989018637 -7.7272581040359398 7.5729476186360145 -1 0 0 I I #
edge $-1 $627 2.2139462171851827 $521 8.8126775565163307 $520 $676 forward 7 unknown #
vertex $-1 $626 $677 #
straight-curve $-1 -51.488387707144383 -7.7272581040359398 3.4487954817875703 0.78801074757464917 0 0.61566148304635926 I I #
point $-1 -46.209713796298452 -7.7272581040359398 7.5729476186360154 #
point $-1 -51.488387707144383 -14.325989443367089 3.4487954817875703 #
straight-curve $-1 -51.488387707144383 0 7.5729476186360154 0 -1 0 I I #
vertex $-1 $527 $678 #
point $-1 -48.036386581781393 -12.440637632129617 4.8767761733987323 #
vertex $-1 $531 $679 #
point $-1 -48.036386581781393 -9.6126099152734099 4.8767761733987323 #
coedge $-1 $546 $545 $538 $637 forward $535 $-1 #
edge $-1 $638 34.724853010777991 $641 38.849005147626436 $636 $680 forward 7 unknown #
vertex $-1 $550 $681 #
straight-curve $-1 -57.443610989018637 14.814724591215969 7.5729476186360145 -1 0 0 I I #
edge $-1 $641 -9.0570451304407715 $547 -2.4583137911096227 $546 $682 forward 7 unknown #
vertex $-1 $640 $683 #
straight-curve $-1 -51.488387707144383 14.814724591215969 3.4487954817875703 0.78801074757464917 0 0.61566148304635926 I I #
point $-1 -46.209713796298452 14.814724591215969 7.5729476186360154 #
point $-1 -51.488387707144383 8.2159932518848198 3.4487954817875703 #
straight-curve $-1 -51.488387707144383 0 7.5729476186360154 0 -1 0 I I #
vertex $-1 $553 $684 #
point $-1 -48.036386581781393 10.101345063122288 4.8767761733987323 #
vertex $-1 $557 $685 #
point $-1 -48.036386581781393 12.9293727799785 4.8767761733987323 #
straight-curve $-1 -51.488387707144383 25.12838223998444 0 0 0 -1 I I #
point $-1 -51.488387707144383 -25.12838223998444 -7.5729476186360154 #
straight-curve $-1 -51.488387707144383 0 -7.5729476186360154 0 1 0 I I #
point $-1 -51.488387707144383 25.12838223998444 -7.5729476186360154 #
edge $-1 $594 -51.488387707144383 $656 51.488387707144383 $591 $686 forward 7 unknown #
straight-curve $-1 51.488387707144383 0 -7.5729476186360154 0 -1 0 I I #
vertex $-1 $582 $687 #
straight-curve $-1 -51.488387707144383 0 -7.5729476186360154 0 1 0 I I #
point $-1 -51.488387707144383 -19.955583150519374 -7.5729476186360154 #
straight-curve $-1 -51.488387707144383 -19.955583150519374 -2.9934833243275305 0 0 -1 I I #
straight-curve $-1 -51.488387707144383 -25.12838223998444 0 0 0 -1 I I #
point $-1 51.488387707144383 -25.12838223998444 -7.5729476186360154 #
straight-curve $-1 51.488387707144383 -14.325989443367089 73.997217764860451 0 0 -1 I I #
point $-1 51.488387707144383 -14.325989443367089 7.5729476186360154 #
straight-curve $-1 51.488387707144383 -5.5133118868507571 3.4487954817875739 0 1 0 I I #
point $-1 51.488387707144383 -14.325989443367089 3.4487954817875703 #
point $-1 48.079473897913481 -12.440637632129617 4.5258581157434836 #
point $-1 48.079473897913481 -9.6126099152734099 4.5258581157434836 #
straight-curve $-1 51.488387707144383 8.2159932518848198 73.997217764860451 0 0 -1 I I #
point $-1 51.488387707144383 8.2159932518848198 7.5729476186360154 #
straight-curve $-1 51.488387707144383 5.7576794607751971 3.4487954817875739 0 1 0 I I #
point $-1 51.488387707144383 8.2159932518848198 3.4487954817875703 #
point $-1 48.079473897913481 10.101345063122288 4.5258581157434836 #
point $-1 48.079473897913481 12.9293727799785 4.5258581157434836 #
straight-curve $-1 -51.488387707144383 -7.7272581040359398 42.297800629414006 0 0 -1 I I #
point $-1 -51.488387707144383 -7.7272581040359398 7.5729476186360154 #
straight-curve $-1 -51.488387707144383 -5.5133118868507571 3.4487954817875681 0 -1 0 I I #
point $-1 -51.488387707144383 -7.7272581040359398 3.4487954817875703 #
point $-1 -48.079473897913466 -12.440637632129617 4.5258581157434801 #
point $-1 -48.079473897913466 -9.6126099152734099 4.5258581157434801 #
straight-curve $-1 -51.488387707144383 14.814724591215969 42.297800629414006 0 0 -1 I I #
point $-1 -51.488387707144383 14.814724591215969 7.5729476186360154 #
straight-curve $-1 -51.488387707144383 5.7576794607751971 3.4487954817875681 0 -1 0 I I #
point $-1 -51.488387707144383 14.814724591215969 3.4487954817875703 #
point $-1 -48.079473897913466 10.101345063122288 4.5258581157434801 #
point $-1 -48.079473897913466 12.9293727799785 4.5258581157434801 #
straight-curve $-1 0 -25.12838223998444 -7.5729476186360154 -1 0 0 I I #
point $-1 -51.488387707144383 -25.12838223998444 -7.5729476186360154 #
End-of-ACIS-data 