500 0 5 0           
7 Unknown 11 ACIS 5.0 NT 24 Thu Mar 25 22:35:54 1999 
-1 9.9999999999999995e-007 1e-010 
body $-1 $5 $-1 $6 #
body $-1 $7 $-1 $8 #
body $-1 $9 $-1 $10 #
body $-1 $11 $-1 $12 #
body $-1 $13 $-1 $14 #
lump $-1 $-1 $15 $0 #
transform $-1 1 0 0 0 1 0 0 0 1 74.346751304666284 46.474036935726723 14.852204125487519 1 rotate no_reflect no_shear #
lump $-1 $-1 $16 $1 #
transform $-1 1 0 0 0 1 0 0 0 1 74.346751304666284 46.474036935726723 14.852204125487519 1 rotate no_reflect no_shear #
lump $-1 $-1 $17 $2 #
transform $-1 1 0 0 0 1 0 0 0 1 74.346751304666284 46.474036935726723 14.852204125487519 1 rotate no_reflect no_shear #
lump $-1 $-1 $18 $3 #
transform $-1 1 0 0 0 1 0 0 0 1 74.346751304666284 46.474036935726723 14.852204125487519 1 rotate no_reflect no_shear #
lump $-1 $-1 $19 $4 #
transform $-1 1 0 0 0 1 0 0 0 1 74.346751304666284 46.474036935726723 14.852204125487519 1 rotate no_reflect no_shear #
shell $-1 $-1 $-1 $20 $-1 $5 #
shell $-1 $-1 $-1 $21 $-1 $7 #
shell $-1 $-1 $-1 $22 $-1 $9 #
shell $-1 $-1 $-1 $23 $-1 $11 #
shell $-1 $-1 $-1 $24 $-1 $13 #
face $-1 $25 $26 $15 $-1 $27 reversed single #
face $-1 $28 $29 $16 $-1 $30 forward single #
face $-1 $31 $32 $17 $-1 $33 reversed single #
face $-1 $34 $35 $18 $-1 $36 forward single #
face $-1 $37 $38 $19 $-1 $39 forward single #
face $-1 $40 $41 $15 $-1 $42 forward single #
loop $-1 $-1 $43 $20 #
plane-surface $-1 0 -46.474036935726723 0 0 1 0 0 0 1 forward_v I I I I #
face $-1 $44 $45 $16 $-1 $46 reversed single #
loop $-1 $-1 $47 $21 #
plane-surface $-1 0 -46.474036935726723 0 0 1 0 0 0 1 forward_v I I I I #
face $-1 $48 $49 $17 $-1 $50 reversed single #
loop $-1 $-1 $51 $22 #
plane-surface $-1 33.762006268911833 97.71502689993585 176.59247246478898 1 0 0 0 -0.75470958851134928 -0.65605901945558964 forward_v I I I I #
face $-1 $52 $53 $18 $-1 $54 forward single #
loop $-1 $55 $56 $23 #
cone-surface $-1 45.357647707698817 43.050365266871246 11.147886549413915 0 -0.75470958851134928 -0.65605901945558964 1 0 0 1 I I 0 1 1 forward I I I I #
face $-1 $57 $58 $19 $-1 $59 forward single #
loop $-1 $60 $61 $24 #
cone-surface $-1 62.751109865879286 43.050365266871246 11.147886549413915 0 -0.75470958851134928 -0.65605901945558964 1 0 0 1 I I 0 1 1 forward I I I I #
face $-1 $62 $63 $15 $-1 $64 reversed single #
loop $-1 $-1 $65 $25 #
plane-surface $-1 0 0 14.852204125487519 0 0 1 1 0 0 forward_v I I I I #
coedge $-1 $66 $67 $68 $69 reversed $26 $-1 #
face $-1 $70 $71 $16 $-1 $72 reversed single #
loop $-1 $-1 $73 $28 #
plane-surface $-1 0 0 -14.852204125487519 0 0 1 1 0 0 forward_v I I I I #
coedge $-1 $74 $75 $76 $77 forward $29 $-1 #
face $-1 $78 $79 $17 $-1 $80 forward single #
loop $-1 $-1 $81 $31 #
plane-surface $-1 54.054378786789059 -14.505385268664767 79.040758943493103 0 0.75470958851134928 0.65605901945558964 1 0 0 forward_v I I I I #
coedge $-1 $82 $83 $84 $85 reversed $32 $-1 #
face $-1 $-1 $86 $18 $-1 $87 forward single #
loop $-1 $88 $89 $34 #
cone-surface $-1 45.357647707698817 41.839920906391761 10.095663346833289 0 -0.75470958851134928 -0.65605901945558964 0.5 0 0 1 I I -0.70710678118654746 0.70710678118654746 0.5 forward I I I I #
loop $-1 $-1 $90 $23 #
coedge $-1 $56 $56 $91 $92 reversed $35 $-1 #
face $-1 $-1 $93 $19 $-1 $94 forward single #
loop $-1 $95 $96 $37 #
cone-surface $-1 62.751109865879286 41.839920906391761 10.095663346833289 0 -0.75470958851134928 -0.65605901945558964 0.5 0 0 1 I I -0.70710678118654746 0.70710678118654746 0.5 forward I I I I #
loop $-1 $-1 $97 $24 #
coedge $-1 $61 $61 $98 $99 reversed $38 $-1 #
face $-1 $100 $101 $15 $-1 $102 reversed single #
loop $-1 $-1 $103 $40 #
plane-surface $-1 0 0 -14.852204125487519 0 0 1 1 0 0 forward_v I I I I #
coedge $-1 $104 $105 $106 $107 forward $41 $-1 #
coedge $-1 $108 $43 $109 $110 reversed $26 $-1 #
coedge $-1 $43 $108 $111 $112 forward $26 $-1 #
coedge $-1 $113 $103 $43 $69 forward $63 $-1 #
edge $-1 $114 -74.346751304666284 $115 74.346751304666284 $43 $116 forward 7 unknown #
face $-1 $117 $118 $16 $-1 $119 reversed single #
loop $-1 $-1 $120 $44 #
plane-surface $-1 -54.428851808641156 -65.300242513347385 0 0 1 0 0 0 1 forward_v I I I I #
coedge $-1 $121 $122 $75 $123 forward $45 $-1 #
coedge $-1 $124 $47 $125 $126 reversed $29 $-1 #
coedge $-1 $47 $124 $73 $123 reversed $29 $-1 #
coedge $-1 $127 $128 $47 $77 reversed $118 $-1 #
edge $-1 $129 -14.852204125487519 $130 14.852204125487519 $76 $131 forward 7 unknown #
face $-1 $132 $133 $17 $-1 $134 reversed single #
loop $-1 $-1 $84 $48 #
plane-surface $-1 0 0 14.852204125487519 0 0 1 1 0 0 forward_v I I I I #
coedge $-1 $135 $136 $137 $138 reversed $49 $-1 #
coedge $-1 $83 $51 $139 $140 reversed $32 $-1 #
coedge $-1 $51 $82 $135 $141 reversed $32 $-1 #
coedge $-1 $137 $142 $51 $85 forward $79 $-1 #
edge $-1 $143 2.3834765142412024 $144 7.5646407195045384 $84 $145 forward 7 unknown #
loop $-1 $-1 $91 $52 #
plane-surface $-1 54.054378786789059 -14.505385268664767 79.040758943493103 0 0.75470958851134928 0.65605901945558964 1 0 0 forward_v I I I I #
loop $-1 $-1 $146 $34 #
coedge $-1 $89 $89 $90 $147 reversed $53 $-1 #
coedge $-1 $90 $90 $89 $147 forward $55 $-1 #
coedge $-1 $91 $91 $56 $92 forward $86 $-1 #
edge $-1 $148 6.39679087101383e-016 $148 6.2831853071796013 $91 $149 forward 7 unknown #
loop $-1 $-1 $98 $57 #
plane-surface $-1 54.054378786789059 -14.505385268664767 79.040758943493103 0 0.75470958851134928 0.65605901945558964 1 0 0 forward_v I I I I #
loop $-1 $-1 $150 $37 #
coedge $-1 $96 $96 $97 $151 reversed $58 $-1 #
coedge $-1 $97 $97 $96 $151 forward $60 $-1 #
coedge $-1 $98 $98 $61 $99 forward $93 $-1 #
edge $-1 $152 6.39679087101383e-016 $152 6.2831853071796013 $98 $153 forward 7 unknown #
face $-1 $154 $155 $15 $-1 $156 reversed single #
loop $-1 $-1 $157 $62 #
plane-surface $-1 -74.346751304666284 0 0 1 0 0 0 0 -1 forward_v I I I I #
coedge $-1 $68 $158 $159 $160 forward $63 $-1 #
coedge $-1 $161 $65 $162 $163 forward $41 $-1 #
coedge $-1 $65 $161 $108 $164 forward $41 $-1 #
coedge $-1 $109 $165 $65 $107 reversed $166 $-1 #
edge $-1 $167 -46.474036935726723 $168 46.474036935726723 $106 $169 forward 7 unknown #
coedge $-1 $67 $66 $105 $164 reversed $26 $-1 #
coedge $-1 $159 $106 $66 $110 forward $166 $-1 #
edge $-1 $167 -14.852204125487519 $114 14.852204125487519 $109 $170 forward 7 unknown #
coedge $-1 $171 $172 $67 $112 reversed $101 $-1 #
edge $-1 $173 -14.852204125487519 $115 14.852204125487519 $111 $174 forward 7 unknown #
coedge $-1 $158 $68 $172 $175 forward $63 $-1 #
vertex $-1 $110 $176 #
vertex $-1 $175 $177 #
straight-curve $-1 0 -46.474036935726723 -14.852204125487519 -1 0 0 I I #
face $-1 $178 $179 $16 $-1 $180 reversed single #
loop $-1 $-1 $76 $70 #
plane-surface $-1 -57.222382471985135 -55.887139724537057 0 1 0 0 0 0 -1 forward_v I I I I #
coedge $-1 $181 $182 $183 $184 forward $71 $-1 #
coedge $-1 $185 $73 $186 $187 forward $45 $-1 #
coedge $-1 $73 $185 $127 $188 forward $45 $-1 #
edge $-1 $129 -57.222382471985135 $189 -51.635321145297176 $73 $190 forward 7 unknown #
coedge $-1 $75 $74 $191 $192 forward $29 $-1 #
coedge $-1 $193 $194 $74 $126 forward $195 $-1 #
edge $-1 $196 51.635321145297176 $130 57.222382471985135 $125 $197 forward 7 unknown #
coedge $-1 $183 $76 $122 $188 reversed $118 $-1 #
coedge $-1 $76 $183 $193 $198 reversed $118 $-1 #
vertex $-1 $123 $199 #
vertex $-1 $198 $200 #
straight-curve $-1 -57.222382471985135 -46.474036935726723 0 0 0 1 I I #
face $-1 $-1 $201 $17 $-1 $202 reversed single #
loop $-1 $-1 $203 $78 #
plane-surface $-1 74.346751304666284 0 0 -1 0 0 0 0 1 forward_v I I I I #
coedge $-1 $204 $81 $83 $141 forward $49 $-1 #
coedge $-1 $81 $204 $203 $205 reversed $49 $-1 #
coedge $-1 $206 $84 $81 $138 forward $79 $-1 #
edge $-1 $144 6.7348168755173035 $207 47.319561911271755 $137 $208 forward 7 unknown #
coedge $-1 $209 $210 $82 $140 forward $201 $-1 #
edge $-1 $211 -79.404279873348543 $143 -73.444032106906974 $139 $212 forward 7 unknown #
edge $-1 $144 85.050668224073249 $211 92.948073871453502 $83 $213 forward 7 unknown #
coedge $-1 $84 $206 $209 $214 forward $79 $-1 #
vertex $-1 $140 $215 #
vertex $-1 $85 $216 #
straight-curve $-1 33.762006268911833 48.857513449967925 14.852204125487518 0 -1 0 I I #
coedge $-1 $146 $146 $-1 $217 reversed $88 $-1 #
edge $-1 $218 0 $218 6.2831853071796004 $89 $219 forward 7 unknown #
vertex $-1 $92 $220 #
ellipse-curve $-1 45.357647707698817 43.883454833095044 11.872080242266739 0 0.75470958851134928 0.65605901945558964 1 0 0 1 I I #
coedge $-1 $150 $150 $-1 $221 reversed $95 $-1 #
edge $-1 $222 0 $222 6.2831853071796004 $96 $223 forward 7 unknown #
vertex $-1 $99 $224 #
ellipse-curve $-1 62.751109865879286 43.883454833095044 11.872080242266739 0 0.75470958851134928 0.65605901945558964 1 0 0 1 I I #
face $-1 $-1 $166 $15 $-1 $225 reversed single #
loop $-1 $-1 $226 $100 #
plane-surface $-1 0 46.474036935726723 0 0 -1 0 0 0 -1 forward_v I I I I #
coedge $-1 $172 $171 $227 $228 forward $101 $-1 #
coedge $-1 $103 $113 $229 $230 forward $63 $-1 #
coedge $-1 $165 $109 $103 $160 reversed $166 $-1 #
edge $-1 $231 -46.474036935726723 $114 46.474036935726723 $159 $232 forward 7 unknown #
coedge $-1 $105 $104 $171 $233 forward $41 $-1 #
coedge $-1 $226 $227 $104 $163 reversed $155 $-1 #
edge $-1 $168 -74.346751304666284 $234 74.346751304666284 $162 $235 forward 7 unknown #
edge $-1 $173 -74.346751304666284 $167 74.346751304666284 $108 $236 forward 7 unknown #
coedge $-1 $106 $159 $226 $237 reversed $166 $-1 #
loop $-1 $-1 $109 $154 #
vertex $-1 $107 $238 #
vertex $-1 $107 $239 #
straight-curve $-1 74.346751304666284 0 14.852204125487519 0 1 0 I I #
straight-curve $-1 74.346751304666284 -46.474036935726723 0 0 0 -1 I I #
coedge $-1 $157 $111 $161 $233 reversed $101 $-1 #
coedge $-1 $111 $157 $113 $175 reversed $101 $-1 #
vertex $-1 $233 $240 #
straight-curve $-1 -74.346751304666284 -46.474036935726723 0 0 0 -1 I I #
edge $-1 $115 -46.474036935726723 $241 46.474036935726723 $172 $242 forward 7 unknown #
point $-1 74.346751304666284 -46.474036935726723 -14.852204125487519 #
point $-1 -74.346751304666284 -46.474036935726723 -14.852204125487519 #
face $-1 $-1 $195 $16 $-1 $243 forward single #
loop $-1 $-1 $244 $117 #
plane-surface $-1 -51.635321145297176 -55.887139724537057 0 -1 0 0 0 0 1 forward_v I I I I #
coedge $-1 $245 $120 $185 $246 reversed $71 $-1 #
coedge $-1 $120 $245 $247 $248 reversed $71 $-1 #
coedge $-1 $128 $127 $120 $184 reversed $118 $-1 #
edge $-1 $249 -14.852204125487519 $250 14.852204125487519 $183 $251 forward 7 unknown #
coedge $-1 $122 $121 $181 $246 forward $45 $-1 #
coedge $-1 $191 $244 $121 $187 reversed $179 $-1 #
edge $-1 $189 -9.4131027888103347 $252 9.4131027888103276 $186 $253 forward 7 unknown #
edge $-1 $250 -9.4131027888103276 $129 9.4131027888103347 $127 $254 forward 7 unknown #
vertex $-1 $187 $255 #
straight-curve $-1 0 -46.474036935726723 -14.852204125487519 1 0 0 I I #
coedge $-1 $256 $186 $124 $192 reversed $179 $-1 #
edge $-1 $196 -14.852204125487519 $189 14.852204125487519 $191 $257 forward 7 unknown #
coedge $-1 $247 $125 $128 $198 forward $195 $-1 #
coedge $-1 $125 $247 $256 $258 forward $195 $-1 #
loop $-1 $-1 $125 $178 #
vertex $-1 $126 $259 #
straight-curve $-1 0 -46.474036935726723 14.852204125487519 -1 0 0 I I #
edge $-1 $130 -9.4131027888103347 $249 9.4131027888103276 $128 $260 forward 7 unknown #
point $-1 -57.222382471985135 -46.474036935726723 -14.852204125487519 #
point $-1 -57.222382471985135 -46.474036935726723 14.852204125487519 #
loop $-1 $-1 $139 $132 #
plane-surface $-1 0 46.474036935726723 0 0 -1 0 0 0 -1 forward_v I I I I #
coedge $-1 $261 $262 $136 $205 forward $133 $-1 #
coedge $-1 $136 $135 $210 $263 reversed $49 $-1 #
edge $-1 $207 50.466064477046125 $264 58.363470124426392 $203 $265 forward 7 unknown #
coedge $-1 $142 $137 $262 $266 forward $79 $-1 #
vertex $-1 $266 $267 #
straight-curve $-1 27.027189393394529 41.29287273046338 14.852204125487511 1 0 0 I I #
coedge $-1 $268 $139 $142 $214 reversed $201 $-1 #
coedge $-1 $139 $268 $204 $263 forward $201 $-1 #
vertex $-1 $140 $269 #
straight-curve $-1 33.762006268911833 46.474036935726723 88.296236232394492 0 0 1 I I #
straight-curve $-1 33.762006268911833 -14.505385268664767 79.040758943493103 0 0.65605901945558964 -0.75470958851134928 I I #
edge $-1 $270 -74.346751304666284 $143 -33.762006268911833 $209 $271 forward 7 unknown #
point $-1 33.762006268911833 46.474036935726723 14.852204125487519 #
point $-1 33.762006268911833 41.292872730463387 14.852204125487518 #
edge $-1 $272 1 $272 0 $146 $-1 forward 7 unknown #
vertex $-1 $147 $273 #
ellipse-curve $-1 45.357647707698817 42.217275700647434 10.423692856561084 0 0.75470958851134928 0.65605901945558964 1 0 0 1 I I #
point $-1 46.357647707698817 43.883454833095051 11.872080242266744 #
edge $-1 $274 1 $274 0 $150 $-1 forward 7 unknown #
vertex $-1 $151 $275 #
ellipse-curve $-1 62.751109865879286 42.217275700647434 10.423692856561084 0 0.75470958851134928 0.65605901945558964 1 0 0 1 I I #
point $-1 63.751109865879286 43.883454833095051 11.872080242266744 #
plane-surface $-1 74.346751304666284 0 0 -1 0 0 0 0 1 forward_v I I I I #
coedge $-1 $229 $162 $165 $237 forward $155 $-1 #
coedge $-1 $162 $229 $157 $228 reversed $155 $-1 #
edge $-1 $234 -14.852204125487519 $241 14.852204125487519 $227 $276 forward 7 unknown #
coedge $-1 $227 $226 $158 $230 reversed $155 $-1 #
edge $-1 $241 -74.346751304666284 $231 74.346751304666284 $229 $277 forward 7 unknown #
vertex $-1 $160 $278 #
straight-curve $-1 74.346751304666284 0 -14.852204125487519 0 -1 0 I I #
edge $-1 $234 -46.474036935726723 $173 46.474036935726723 $171 $279 forward 7 unknown #
vertex $-1 $163 $280 #
straight-curve $-1 0 46.474036935726723 14.852204125487519 -1 0 0 I I #
straight-curve $-1 0 -46.474036935726723 14.852204125487519 1 0 0 I I #
edge $-1 $168 -14.852204125487519 $231 14.852204125487519 $165 $281 forward 7 unknown #
point $-1 74.346751304666284 -46.474036935726723 14.852204125487519 #
point $-1 74.346751304666284 46.474036935726723 14.852204125487519 #
point $-1 -74.346751304666284 -46.474036935726723 14.852204125487519 #
vertex $-1 $230 $282 #
straight-curve $-1 -74.346751304666284 0 -14.852204125487519 0 1 0 I I #
plane-surface $-1 0 0 14.852204125487519 0 0 1 1 0 0 forward_v I I I I #
coedge $-1 $186 $256 $245 $283 forward $179 $-1 #
coedge $-1 $182 $181 $244 $283 reversed $71 $-1 #
edge $-1 $252 -2.7935306633439794 $250 2.7935306633439794 $181 $284 forward 7 unknown #
coedge $-1 $194 $193 $182 $248 forward $195 $-1 #
edge $-1 $249 -2.7935306633439794 $285 2.7935306633439794 $182 $286 forward 7 unknown #
vertex $-1 $198 $287 #
vertex $-1 $188 $288 #
straight-curve $-1 -57.222382471985135 -65.300242513347385 0 0 0 -1 I I #
vertex $-1 $283 $289 #
straight-curve $-1 -51.635321145297176 -55.887139724537057 -14.852204125487519 0 -1 0 I I #
straight-curve $-1 -57.222382471985135 -55.887139724537057 -14.852204125487519 0 1 0 I I #
point $-1 -51.635321145297176 -46.474036935726723 -14.852204125487519 #
coedge $-1 $244 $191 $194 $258 reversed $179 $-1 #
straight-curve $-1 -51.635321145297176 -46.474036935726723 0 0 0 -1 I I #
edge $-1 $285 -9.4131027888103276 $196 9.4131027888103347 $256 $290 forward 7 unknown #
point $-1 -51.635321145297176 -46.474036935726723 14.852204125487519 #
straight-curve $-1 -57.222382471985135 -55.887139724537057 14.852204125487519 0 -1 0 I I #
coedge $-1 $262 $203 $268 $291 reversed $133 $-1 #
coedge $-1 $203 $261 $206 $266 reversed $133 $-1 #
edge $-1 $264 -47.319561911271755 $211 -6.7348168755173035 $210 $292 forward 7 unknown #
vertex $-1 $205 $293 #
straight-curve $-1 74.346751304666284 8.1841559538699418 52.939426880746211 0 0.65605901945558975 -0.75470958851134939 I I #
edge $-1 $207 41.292872730463387 $270 46.474036935726723 $262 $294 forward 7 unknown #
point $-1 74.346751304666284 41.292872730463387 14.852204125487518 #
coedge $-1 $210 $209 $261 $291 forward $201 $-1 #
point $-1 33.762006268911833 46.474036935726723 8.8919563590459489 #
vertex $-1 $266 $295 #
straight-curve $-1 0 46.474036935726723 14.852204125487519 -1 0 0 I I #
vertex $-1 $217 $296 #
point $-1 46.357647707698817 42.217275700647434 10.423692856561084 #
vertex $-1 $221 $297 #
point $-1 63.751109865879286 42.217275700647434 10.423692856561084 #
straight-curve $-1 -74.346751304666284 46.474036935726723 0 0 0 -1 I I #
straight-curve $-1 0 46.474036935726723 -14.852204125487519 1 0 0 I I #
point $-1 74.346751304666284 46.474036935726723 -14.852204125487519 #
straight-curve $-1 -74.346751304666284 0 14.852204125487519 0 -1 0 I I #
point $-1 -74.346751304666284 46.474036935726723 14.852204125487519 #
straight-curve $-1 74.346751304666284 46.474036935726723 0 0 0 -1 I I #
point $-1 -74.346751304666284 46.474036935726723 -14.852204125487519 #
edge $-1 $285 -14.852204125487519 $252 14.852204125487519 $244 $298 forward 7 unknown #
straight-curve $-1 -54.428851808641156 -65.300242513347385 -14.852204125487519 -1 0 0 I I #
vertex $-1 $258 $299 #
straight-curve $-1 -54.428851808641156 -65.300242513347385 14.852204125487519 1 0 0 I I #
point $-1 -57.222382471985135 -65.300242513347385 14.852204125487519 #
point $-1 -57.222382471985135 -65.300242513347385 -14.852204125487519 #
point $-1 -51.635321145297176 -65.300242513347385 -14.852204125487519 #
straight-curve $-1 -51.635321145297176 -55.887139724537057 14.852204125487519 0 1 0 I I #
edge $-1 $270 -14.852204125487519 $264 -8.8919563590459489 $261 $300 forward 7 unknown #
straight-curve $-1 27.027189393394529 46.47403693572673 8.8919563590459418 -1 0 0 I I #
point $-1 74.346751304666284 46.474036935726723 8.8919563590459489 #
straight-curve $-1 74.346751304666284 0 14.852204125487519 0 1 0 I I #
point $-1 74.346751304666284 46.474036935726723 14.852204125487519 #
point $-1 45.357647707698817 41.462566112136088 9.7676338371054943 #
point $-1 62.751109865879286 41.462566112136088 9.7676338371054943 #
straight-curve $-1 -51.635321145297176 -65.300242513347385 0 0 0 -1 I I #
point $-1 -51.635321145297176 -65.300242513347385 14.852204125487519 #
straight-curve $-1 74.346751304666284 46.474036935726723 0 0 0 -1 I I #
End-of-ACIS-data 