500 0 14 0           
7 Unknown 11 ACIS 5.0 NT 24 Thu Mar 25 22:11:52 1999 
-1 9.9999999999999995e-007 1e-010 
body $-1 $14 $-1 $15 #
body $-1 $16 $-1 $17 #
body $-1 $18 $-1 $19 #
body $-1 $20 $-1 $21 #
body $-1 $22 $-1 $23 #
body $-1 $24 $-1 $25 #
body $-1 $26 $-1 $27 #
body $-1 $28 $-1 $29 #
body $-1 $30 $-1 $31 #
body $-1 $32 $-1 $33 #
body $-1 $34 $-1 $35 #
body $-1 $36 $-1 $37 #
body $-1 $38 $-1 $39 #
body $-1 $40 $-1 $41 #
lump $-1 $-1 $42 $0 #
transform $-1 1 0 0 0 1 0 0 0 1 75.98254341257973 31.014939364093568 11.578046198783195 1 rotate no_reflect no_shear #
lump $-1 $-1 $43 $1 #
transform $-1 1 0 0 0 1 0 0 0 1 75.98254341257973 31.014939364093568 11.578046198783195 1 rotate no_reflect no_shear #
lump $-1 $-1 $44 $2 #
transform $-1 1 0 0 0 1 0 0 0 1 75.98254341257973 31.014939364093568 11.578046198783195 1 rotate no_reflect no_shear #
lump $-1 $-1 $45 $3 #
transform $-1 1 0 0 0 1 0 0 0 1 75.98254341257973 31.014939364093568 11.578046198783195 1 rotate no_reflect no_shear #
lump $-1 $-1 $46 $4 #
transform $-1 1 0 0 0 1 0 0 0 1 75.98254341257973 31.014939364093568 11.578046198783195 1 rotate no_reflect no_shear #
lump $-1 $-1 $47 $5 #
transform $-1 1 0 0 0 1 0 0 0 1 75.98254341257973 31.014939364093568 11.578046198783195 1 rotate no_reflect no_shear #
lump $-1 $-1 $48 $6 #
transform $-1 1 0 0 0 1 0 0 0 1 75.98254341257973 31.014939364093568 11.578046198783195 1 rotate no_reflect no_shear #
lump $-1 $-1 $49 $7 #
transform $-1 1 0 0 0 1 0 0 0 1 75.98254341257973 31.014939364093568 11.578046198783195 1 rotate no_reflect no_shear #
lump $-1 $-1 $50 $8 #
transform $-1 1 0 0 0 1 0 0 0 1 75.98254341257973 31.014939364093568 11.578046198783195 1 rotate no_reflect no_shear #
lump $-1 $-1 $51 $9 #
transform $-1 1 0 0 0 1 0 0 0 1 75.98254341257973 31.014939364093568 11.578046198783195 1 rotate no_reflect no_shear #
lump $-1 $-1 $52 $10 #
transform $-1 1 0 0 0 1 0 0 0 1 75.98254341257973 31.014939364093568 11.578046198783195 1 rotate no_reflect no_shear #
lump $-1 $-1 $53 $11 #
transform $-1 1 0 0 0 1 0 0 0 1 75.98254341257973 31.014939364093568 11.578046198783195 1 rotate no_reflect no_shear #
lump $-1 $-1 $54 $12 #
transform $-1 1 0 0 0 1 0 0 0 1 75.98254341257973 31.014939364093568 11.578046198783195 1 rotate no_reflect no_shear #
lump $-1 $-1 $55 $13 #
transform $-1 1 0 0 0 1 0 0 0 1 75.98254341257973 31.014939364093568 11.578046198783195 1 rotate no_reflect no_shear #
shell $-1 $-1 $-1 $56 $-1 $14 #
shell $-1 $-1 $-1 $57 $-1 $16 #
shell $-1 $-1 $-1 $58 $-1 $18 #
shell $-1 $-1 $-1 $59 $-1 $20 #
shell $-1 $-1 $-1 $60 $-1 $22 #
shell $-1 $-1 $-1 $61 $-1 $24 #
shell $-1 $-1 $-1 $62 $-1 $26 #
shell $-1 $-1 $-1 $63 $-1 $28 #
shell $-1 $-1 $-1 $64 $-1 $30 #
shell $-1 $-1 $-1 $65 $-1 $32 #
shell $-1 $-1 $-1 $66 $-1 $34 #
shell $-1 $-1 $-1 $67 $-1 $36 #
shell $-1 $-1 $-1 $68 $-1 $38 #
shell $-1 $-1 $-1 $69 $-1 $40 #
face $-1 $70 $71 $42 $-1 $72 forward single #
face $-1 $73 $74 $43 $-1 $75 reversed single #
face $-1 $76 $77 $44 $-1 $78 reversed single #
face $-1 $79 $80 $45 $-1 $81 forward single #
face $-1 $82 $83 $46 $-1 $84 forward single #
face $-1 $85 $86 $47 $-1 $87 reversed single #
face $-1 $88 $89 $48 $-1 $90 forward single #
face $-1 $91 $92 $49 $-1 $93 forward single #
face $-1 $94 $95 $50 $-1 $96 reversed single #
face $-1 $97 $98 $51 $-1 $99 forward single #
face $-1 $100 $101 $52 $-1 $102 forward single #
face $-1 $103 $104 $53 $-1 $105 reversed single #
face $-1 $106 $107 $54 $-1 $108 forward single #
face $-1 $109 $110 $55 $-1 $111 forward single #
face $-1 $112 $113 $42 $-1 $114 reversed single #
loop $-1 $-1 $115 $56 #
plane-surface $-1 0 0 11.578046198783195 0 0 1 1 0 0 forward_v I I I I #
face $-1 $116 $117 $43 $-1 $118 reversed single #
loop $-1 $-1 $119 $57 #
plane-surface $-1 -70.399322407612985 0 8.1796474216398174 0 0 1 1 0 0 forward_v I I I I #
face $-1 $120 $121 $44 $-1 $122 reversed single #
loop $-1 $-1 $123 $58 #
plane-surface $-1 -49.632976265744887 53.278033262270938 163.6007035764402 1 0 0 0 -0.50000000669873634 -0.8660253999169214 forward_v I I I I #
face $-1 $124 $125 $45 $-1 $126 forward single #
loop $-1 $127 $128 $59 #
cone-surface $-1 -40.571843872169325 20.839476471981435 4.5515347191295206 0 -0.50000000669873634 -0.8660253999169214 3 0 0 1 I I 0 1 3 forward I I I I #
face $-1 $129 $130 $46 $-1 $131 forward single #
loop $-1 $132 $133 $60 #
cone-surface $-1 -26.980145281805989 20.839476471981435 4.5515347191295206 0 -0.50000000669873634 -0.8660253999169214 3 0 0 1 I I 0 1 3 forward I I I I #
face $-1 $134 $135 $47 $-1 $136 reversed single #
loop $-1 $-1 $137 $61 #
plane-surface $-1 29.085454898163892 53.278033262270938 163.6007035764402 1 0 0 0 -0.50000000669873634 -0.8660253999169214 forward_v I I I I #
face $-1 $138 $139 $48 $-1 $140 forward single #
loop $-1 $141 $142 $62 #
cone-surface $-1 38.146587291739451 20.839476471981435 4.5515347191295206 0 -0.50000000669873634 -0.8660253999169214 3 0 0 1 I I 0 1 3 forward I I I I #
face $-1 $143 $144 $49 $-1 $145 forward single #
loop $-1 $146 $147 $63 #
cone-surface $-1 51.738285882102787 20.839476471981435 4.5515347191295206 0 -0.50000000669873634 -0.8660253999169214 3 0 0 1 I I 0 1 3 forward I I I I #
face $-1 $148 $149 $50 $-1 $150 reversed single #
loop $-1 $-1 $151 $64 #
plane-surface $-1 -17.91901288823043 -106.99748379464734 132.58576379682481 -1 0 0 0 -0.50000000669873634 0.8660253999169214 forward_v I I I I #
face $-1 $152 $153 $51 $-1 $154 forward single #
loop $-1 $155 $156 $65 #
cone-surface $-1 -40.571843872169325 -20.839476471981431 4.5515347191295188 0 0.50000000669873634 -0.8660253999169214 3 0 0 1 I I 0 1 3 forward I I I I #
face $-1 $157 $158 $52 $-1 $159 forward single #
loop $-1 $160 $161 $66 #
cone-surface $-1 -26.980145281805989 -20.839476471981431 4.5515347191295188 0 0.50000000669873634 -0.8660253999169214 3 0 0 1 I I 0 1 3 forward I I I I #
face $-1 $162 $163 $53 $-1 $164 reversed single #
loop $-1 $-1 $165 $67 #
plane-surface $-1 60.799418275678349 -106.99748379464734 132.58576379682481 -1 0 0 0 -0.50000000669873634 0.8660253999169214 forward_v I I I I #
face $-1 $166 $167 $54 $-1 $168 forward single #
loop $-1 $169 $170 $68 #
cone-surface $-1 38.146587291739451 -20.839476471981431 4.5515347191295188 0 0.50000000669873634 -0.8660253999169214 3 0 0 1 I I 0 1 3 forward I I I I #
face $-1 $171 $172 $55 $-1 $173 forward single #
loop $-1 $174 $175 $69 #
cone-surface $-1 51.738285882102787 -20.839476471981431 4.5515347191295188 0 0.50000000669873634 -0.8660253999169214 3 0 0 1 I I 0 1 3 forward I I I I #
face $-1 $176 $177 $42 $-1 $178 reversed single #
loop $-1 $-1 $179 $70 #
plane-surface $-1 0 0 -11.578046198783195 0 0 1 1 0 0 forward_v I I I I #
coedge $-1 $180 $181 $182 $183 forward $71 $-1 #
face $-1 $184 $185 $43 $-1 $186 reversed single #
loop $-1 $-1 $187 $73 #
plane-surface $-1 -64.81610140264624 0 9.8788468102115061 -1 0 0 0 0 1 forward_v I I I I #
coedge $-1 $188 $189 $190 $191 forward $74 $-1 #
face $-1 $192 $193 $44 $-1 $194 reversed single #
loop $-1 $-1 $195 $76 #
plane-surface $-1 -33.775994576987657 -22.704511168282849 31.99507848527179 0 0.50000000669873634 0.8660253999169214 1 0 0 forward_v I I I I #
coedge $-1 $196 $197 $198 $199 reversed $77 $-1 #
face $-1 $-1 $200 $45 $-1 $201 forward single #
loop $-1 $202 $203 $79 #
cone-surface $-1 -40.571843872169325 19.092070521876071 1.5249388861638451 0 -0.50000000669873634 -0.8660253999169214 1.5 0 0 1 I I -0.70710678118654757 0.70710678118654757 1.5 forward I I I I #
loop $-1 $-1 $204 $59 #
coedge $-1 $128 $128 $205 $206 reversed $80 $-1 #
face $-1 $-1 $207 $46 $-1 $208 forward single #
loop $-1 $209 $210 $82 #
cone-surface $-1 -26.980145281805989 19.092070521876071 1.5249388861638451 0 -0.50000000669873634 -0.8660253999169214 1.5 0 0 1 I I -0.70710678118654757 0.70710678118654757 1.5 forward I I I I #
loop $-1 $-1 $211 $60 #
coedge $-1 $133 $133 $212 $213 reversed $83 $-1 #
face $-1 $214 $215 $47 $-1 $216 reversed single #
loop $-1 $-1 $217 $85 #
plane-surface $-1 44.942436586921119 -22.704511168282849 31.99507848527179 0 0.50000000669873634 0.8660253999169214 1 0 0 forward_v I I I I #
coedge $-1 $218 $219 $220 $221 reversed $86 $-1 #
face $-1 $-1 $222 $48 $-1 $223 forward single #
loop $-1 $224 $225 $88 #
cone-surface $-1 38.146587291739451 19.092070521876071 1.5249388861638451 0 -0.50000000669873634 -0.8660253999169214 1.5 0 0 1 I I -0.70710678118654757 0.70710678118654757 1.5 forward I I I I #
loop $-1 $-1 $226 $62 #
coedge $-1 $142 $142 $227 $228 reversed $89 $-1 #
face $-1 $-1 $229 $49 $-1 $230 forward single #
loop $-1 $231 $232 $91 #
cone-surface $-1 51.738285882102787 19.092070521876071 1.5249388861638451 0 -0.50000000669873634 -0.8660253999169214 1.5 0 0 1 I I -0.70710678118654757 0.70710678118654757 1.5 forward I I I I #
loop $-1 $-1 $233 $63 #
coedge $-1 $147 $147 $234 $235 reversed $92 $-1 #
face $-1 $236 $237 $50 $-1 $238 reversed single #
loop $-1 $-1 $239 $94 #
plane-surface $-1 -33.775994576987657 -31.01493936409355 0.98013870565640104 0 -0.50000000669873634 0.8660253999169214 1 0 0 forward_v I I I I #
coedge $-1 $240 $241 $242 $243 reversed $95 $-1 #
face $-1 $-1 $244 $51 $-1 $245 forward single #
loop $-1 $246 $247 $97 #
cone-surface $-1 -40.571843872169325 -19.092070521876067 1.5249388861638433 0 0.50000000669873634 -0.8660253999169214 1.5 0 0 1 I I -0.70710678118654757 0.70710678118654757 1.5 forward I I I I #
loop $-1 $-1 $248 $65 #
coedge $-1 $156 $156 $249 $250 reversed $98 $-1 #
face $-1 $-1 $251 $52 $-1 $252 forward single #
loop $-1 $253 $254 $100 #
cone-surface $-1 -26.980145281805989 -19.092070521876067 1.5249388861638433 0 0.50000000669873634 -0.8660253999169214 1.5 0 0 1 I I -0.70710678118654757 0.70710678118654757 1.5 forward I I I I #
loop $-1 $-1 $255 $66 #
coedge $-1 $161 $161 $256 $257 reversed $101 $-1 #
face $-1 $258 $259 $53 $-1 $260 reversed single #
loop $-1 $-1 $261 $103 #
plane-surface $-1 44.942436586921119 -31.01493936409355 0.98013870565640104 0 -0.50000000669873634 0.8660253999169214 1 0 0 forward_v I I I I #
coedge $-1 $262 $263 $264 $265 reversed $104 $-1 #
face $-1 $-1 $266 $54 $-1 $267 forward single #
loop $-1 $268 $269 $106 #
cone-surface $-1 38.146587291739451 -19.092070521876067 1.5249388861638433 0 0.50000000669873634 -0.8660253999169214 1.5 0 0 1 I I -0.70710678118654757 0.70710678118654757 1.5 forward I I I I #
loop $-1 $-1 $270 $68 #
coedge $-1 $170 $170 $271 $272 reversed $107 $-1 #
face $-1 $-1 $273 $55 $-1 $274 forward single #
loop $-1 $275 $276 $109 #
cone-surface $-1 51.738285882102787 -19.092070521876067 1.5249388861638433 0 0.50000000669873634 -0.8660253999169214 1.5 0 0 1 I I -0.70710678118654757 0.70710678118654757 1.5 forward I I I I #
loop $-1 $-1 $277 $69 #
coedge $-1 $175 $175 $278 $279 reversed $110 $-1 #
face $-1 $280 $281 $42 $-1 $282 reversed single #
loop $-1 $-1 $283 $112 #
plane-surface $-1 0 -31.014939364093568 0 0 1 0 0 0 1 forward_v I I I I #
coedge $-1 $284 $285 $286 $287 forward $113 $-1 #
coedge $-1 $288 $115 $289 $290 forward $71 $-1 #
coedge $-1 $115 $288 $291 $292 forward $71 $-1 #
coedge $-1 $293 $294 $115 $183 reversed $295 $-1 #
edge $-1 $296 -31.014939364093568 $297 31.014939364093568 $182 $298 forward 7 unknown #
face $-1 $299 $300 $43 $-1 $301 reversed single #
loop $-1 $-1 $302 $116 #
plane-surface $-1 0 31.014939364093568 0 0 -1 0 0 0 -1 forward_v I I I I #
coedge $-1 $190 $303 $304 $305 reversed $117 $-1 #
coedge $-1 $306 $119 $307 $308 reversed $74 $-1 #
coedge $-1 $119 $306 $309 $310 reversed $74 $-1 #
coedge $-1 $311 $187 $119 $191 reversed $117 $-1 #
edge $-1 $312 -31.014939364093568 $313 31.014939364093568 $190 $314 forward 7 unknown #
face $-1 $315 $316 $44 $-1 $317 forward single #
loop $-1 $-1 $318 $120 #
plane-surface $-1 -17.91901288823043 53.278033262270938 163.6007035764402 -1 0 0 0 0.50000000669873634 0.8660253999169214 forward_v I I I I #
coedge $-1 $319 $320 $321 $322 reversed $121 $-1 #
coedge $-1 $197 $123 $323 $324 reversed $77 $-1 #
coedge $-1 $123 $196 $319 $325 reversed $77 $-1 #
coedge $-1 $321 $326 $123 $199 forward $316 $-1 #
edge $-1 $327 -4.3759227329580987 $328 13.980191171151688 $198 $329 forward 7 unknown #
loop $-1 $-1 $205 $124 #
plane-surface $-1 -33.775994576987657 -22.704511168282849 31.99507848527179 0 0.50000000669873634 0.8660253999169214 1 0 0 forward_v I I I I #
loop $-1 $-1 $330 $79 #
coedge $-1 $203 $203 $204 $331 reversed $125 $-1 #
coedge $-1 $204 $204 $203 $331 forward $127 $-1 #
coedge $-1 $205 $205 $128 $206 forward $200 $-1 #
edge $-1 $332 4.1220498967510696e-016 $332 6.2831853071796004 $205 $333 forward 7 unknown #
loop $-1 $-1 $212 $129 #
plane-surface $-1 -33.775994576987657 -22.704511168282849 31.99507848527179 0 0.50000000669873634 0.8660253999169214 1 0 0 forward_v I I I I #
loop $-1 $-1 $334 $82 #
coedge $-1 $210 $210 $211 $335 reversed $130 $-1 #
coedge $-1 $211 $211 $210 $335 forward $132 $-1 #
coedge $-1 $212 $212 $133 $213 forward $207 $-1 #
edge $-1 $336 4.1220498967510696e-016 $336 6.2831853071796004 $212 $337 forward 7 unknown #
face $-1 $338 $339 $47 $-1 $340 forward single #
loop $-1 $-1 $341 $134 #
plane-surface $-1 60.799418275678349 53.278033262270938 163.6007035764402 -1 0 0 0 0.50000000669873634 0.8660253999169214 forward_v I I I I #
coedge $-1 $342 $343 $344 $345 reversed $135 $-1 #
coedge $-1 $219 $137 $346 $347 reversed $86 $-1 #
coedge $-1 $137 $218 $342 $348 reversed $86 $-1 #
coedge $-1 $344 $349 $137 $221 forward $339 $-1 #
edge $-1 $350 -4.3759227329580987 $351 13.980191171151688 $220 $352 forward 7 unknown #
loop $-1 $-1 $227 $138 #
plane-surface $-1 44.942436586921119 -22.704511168282849 31.99507848527179 0 0.50000000669873634 0.8660253999169214 1 0 0 forward_v I I I I #
loop $-1 $-1 $353 $88 #
coedge $-1 $225 $225 $226 $354 reversed $139 $-1 #
coedge $-1 $226 $226 $225 $354 forward $141 $-1 #
coedge $-1 $227 $227 $142 $228 forward $222 $-1 #
edge $-1 $355 4.1220498967510696e-016 $355 6.2831853071796004 $227 $356 forward 7 unknown #
loop $-1 $-1 $234 $143 #
plane-surface $-1 44.942436586921119 -22.704511168282849 31.99507848527179 0 0.50000000669873634 0.8660253999169214 1 0 0 forward_v I I I I #
loop $-1 $-1 $357 $91 #
coedge $-1 $232 $232 $233 $358 reversed $144 $-1 #
coedge $-1 $233 $233 $232 $358 forward $146 $-1 #
coedge $-1 $234 $234 $147 $235 forward $229 $-1 #
edge $-1 $359 4.1220498967510696e-016 $359 6.2831853071796004 $234 $360 forward 7 unknown #
face $-1 $361 $362 $50 $-1 $363 reversed single #
loop $-1 $-1 $364 $148 #
plane-surface $-1 -49.632976265744887 -106.99748379464734 132.58576379682481 1 0 0 0 0.50000000669873634 -0.8660253999169214 forward_v I I I I #
coedge $-1 $365 $366 $367 $368 reversed $149 $-1 #
coedge $-1 $241 $151 $369 $370 reversed $95 $-1 #
coedge $-1 $151 $240 $365 $371 reversed $95 $-1 #
coedge $-1 $367 $372 $151 $243 forward $373 $-1 #
edge $-1 $374 22.483802533230101 $375 40.839916437339923 $242 $376 forward 7 unknown #
loop $-1 $-1 $249 $152 #
plane-surface $-1 -33.775994576987657 -31.01493936409355 0.98013870565640104 0 -0.50000000669873634 0.8660253999169214 1 0 0 forward_v I I I I #
loop $-1 $-1 $377 $97 #
coedge $-1 $247 $247 $248 $378 reversed $153 $-1 #
coedge $-1 $248 $248 $247 $378 forward $155 $-1 #
coedge $-1 $249 $249 $156 $250 forward $244 $-1 #
edge $-1 $379 -2.4291910032544193e-016 $379 6.2831853071796004 $249 $380 forward 7 unknown #
loop $-1 $-1 $256 $157 #
plane-surface $-1 -33.775994576987657 -31.01493936409355 0.98013870565640104 0 -0.50000000669873634 0.8660253999169214 1 0 0 forward_v I I I I #
loop $-1 $-1 $381 $100 #
coedge $-1 $254 $254 $255 $382 reversed $158 $-1 #
coedge $-1 $255 $255 $254 $382 forward $160 $-1 #
coedge $-1 $256 $256 $161 $257 forward $251 $-1 #
edge $-1 $383 -2.4291910032544193e-016 $383 6.2831853071796004 $256 $384 forward 7 unknown #
face $-1 $385 $386 $53 $-1 $387 reversed single #
loop $-1 $-1 $388 $162 #
plane-surface $-1 29.085454898163892 -106.99748379464734 132.58576379682481 1 0 0 0 0.50000000669873634 -0.8660253999169214 forward_v I I I I #
coedge $-1 $389 $390 $391 $392 reversed $163 $-1 #
coedge $-1 $263 $165 $393 $394 reversed $104 $-1 #
coedge $-1 $165 $262 $389 $395 reversed $104 $-1 #
coedge $-1 $391 $396 $165 $265 forward $397 $-1 #
edge $-1 $398 22.483802533230101 $399 40.839916437339923 $264 $400 forward 7 unknown #
loop $-1 $-1 $271 $166 #
plane-surface $-1 44.942436586921119 -31.01493936409355 0.98013870565640104 0 -0.50000000669873634 0.8660253999169214 1 0 0 forward_v I I I I #
loop $-1 $-1 $401 $106 #
coedge $-1 $269 $269 $270 $402 reversed $167 $-1 #
coedge $-1 $270 $270 $269 $402 forward $169 $-1 #
coedge $-1 $271 $271 $170 $272 forward $266 $-1 #
edge $-1 $403 -2.4291910032544193e-016 $403 6.2831853071796004 $271 $404 forward 7 unknown #
loop $-1 $-1 $278 $171 #
plane-surface $-1 44.942436586921119 -31.01493936409355 0.98013870565640104 0 -0.50000000669873634 0.8660253999169214 1 0 0 forward_v I I I I #
loop $-1 $-1 $405 $109 #
coedge $-1 $276 $276 $277 $406 reversed $172 $-1 #
coedge $-1 $277 $277 $276 $406 forward $174 $-1 #
coedge $-1 $278 $278 $175 $279 forward $273 $-1 #
edge $-1 $407 -2.4291910032544193e-016 $407 6.2831853071796004 $278 $408 forward 7 unknown #
face $-1 $409 $410 $42 $-1 $411 reversed single #
loop $-1 $-1 $412 $176 #
plane-surface $-1 -75.98254341257973 0 0 1 0 0 0 0 -1 forward_v I I I I #
coedge $-1 $413 $291 $414 $415 forward $177 $-1 #
coedge $-1 $416 $179 $413 $417 forward $113 $-1 #
coedge $-1 $179 $416 $418 $419 forward $113 $-1 #
coedge $-1 $294 $293 $179 $287 reversed $295 $-1 #
edge $-1 $420 -31.014939364093568 $421 31.014939364093568 $286 $422 forward 7 unknown #
coedge $-1 $181 $180 $423 $424 forward $71 $-1 #
coedge $-1 $425 $426 $180 $290 reversed $410 $-1 #
edge $-1 $297 -75.98254341257973 $427 75.98254341257973 $289 $428 forward 7 unknown #
coedge $-1 $283 $429 $181 $292 reversed $177 $-1 #
edge $-1 $430 -75.98254341257973 $296 75.98254341257973 $291 $431 forward 7 unknown #
coedge $-1 $286 $182 $429 $432 forward $295 $-1 #
coedge $-1 $182 $286 $425 $433 reversed $295 $-1 #
loop $-1 $-1 $293 $409 #
vertex $-1 $183 $434 #
vertex $-1 $183 $435 #
straight-curve $-1 75.98254341257973 0 11.578046198783195 0 1 0 I I #
face $-1 $436 $437 $43 $-1 $438 forward single #
loop $-1 $-1 $439 $184 #
plane-surface $-1 -75.98254341257973 0 0 1 0 0 0 0 -1 forward_v I I I I #
coedge $-1 $309 $440 $311 $441 forward $185 $-1 #
coedge $-1 $187 $311 $442 $443 reversed $117 $-1 #
coedge $-1 $444 $307 $187 $305 forward $445 $-1 #
edge $-1 $313 3.2402240165340643 $446 6.6386227936774418 $304 $447 forward 7 unknown #
coedge $-1 $189 $188 $439 $448 reversed $74 $-1 #
coedge $-1 $304 $449 $188 $308 forward $445 $-1 #
edge $-1 $450 -40.782882208773238 $313 -29.616440198839747 $307 $451 forward 7 unknown #
coedge $-1 $452 $302 $189 $310 forward $185 $-1 #
edge $-1 $312 29.616440198839747 $453 40.782882208773238 $309 $454 forward 7 unknown #
coedge $-1 $303 $190 $302 $441 reversed $117 $-1 #
vertex $-1 $310 $455 #
vertex $-1 $308 $456 #
straight-curve $-1 -64.81610140264624 0 8.1796474216398174 0 -1 0 I I #
face $-1 $-1 $457 $44 $-1 $458 reversed single #
loop $-1 $-1 $198 $192 #
plane-surface $-1 0 0 11.578046198783195 0 0 1 1 0 0 forward_v I I I I #
coedge $-1 $459 $460 $461 $462 reversed $193 $-1 #
coedge $-1 $463 $195 $197 $325 forward $121 $-1 #
coedge $-1 $195 $463 $459 $464 forward $121 $-1 #
coedge $-1 $461 $198 $195 $322 forward $316 $-1 #
edge $-1 $328 -32.744978977251058 $465 -1.0310155997366017 $321 $466 forward 7 unknown #
coedge $-1 $467 $468 $196 $324 forward $457 $-1 #
edge $-1 $469 -80.820213082563683 $327 -70.2223055894369 $323 $470 forward 7 unknown #
edge $-1 $328 40.834064025903942 $469 62.02987872818715 $197 $471 forward 7 unknown #
coedge $-1 $198 $461 $467 $472 forward $316 $-1 #
vertex $-1 $324 $473 #
vertex $-1 $199 $474 #
straight-curve $-1 -49.632976265744887 26.639016631135469 11.578046198783198 0 -1 0 I I #
coedge $-1 $330 $330 $-1 $475 reversed $202 $-1 #
edge $-1 $476 0 $476 6.2831853071796004 $203 $477 forward 7 unknown #
vertex $-1 $206 $478 #
ellipse-curve $-1 -40.571843872169325 21.836882412038683 6.2790924522197988 0 0.50000000669873634 0.8660253999169214 3 0 0 1 I I #
coedge $-1 $334 $334 $-1 $479 reversed $209 $-1 #
edge $-1 $480 0 $480 6.2831853071796004 $210 $481 forward 7 unknown #
vertex $-1 $213 $482 #
ellipse-curve $-1 -26.980145281805989 21.836882412038683 6.2790924522197988 0 0.50000000669873634 0.8660253999169214 3 0 0 1 I I #
face $-1 $-1 $483 $47 $-1 $484 reversed single #
loop $-1 $-1 $220 $214 #
plane-surface $-1 0 0 11.578046198783195 0 0 1 1 0 0 forward_v I I I I #
coedge $-1 $485 $486 $487 $488 reversed $215 $-1 #
coedge $-1 $489 $217 $219 $348 forward $135 $-1 #
coedge $-1 $217 $489 $485 $490 forward $135 $-1 #
coedge $-1 $487 $220 $217 $345 forward $339 $-1 #
edge $-1 $351 6.6142366047033327 $491 38.328199982217789 $344 $492 forward 7 unknown #
coedge $-1 $493 $494 $218 $347 forward $483 $-1 #
edge $-1 $495 -80.820213082563683 $350 -70.2223055894369 $346 $496 forward 7 unknown #
edge $-1 $351 40.834064025903942 $495 62.02987872818715 $219 $497 forward 7 unknown #
coedge $-1 $220 $487 $493 $498 forward $339 $-1 #
vertex $-1 $221 $499 #
vertex $-1 $221 $500 #
straight-curve $-1 29.085454898163892 26.639016631135469 11.578046198783198 0 -1 0 I I #
coedge $-1 $353 $353 $-1 $501 reversed $224 $-1 #
edge $-1 $502 0 $502 6.2831853071796004 $225 $503 forward 7 unknown #
vertex $-1 $228 $504 #
ellipse-curve $-1 38.146587291739451 21.836882412038683 6.2790924522197988 0 0.50000000669873634 0.8660253999169214 3 0 0 1 I I #
coedge $-1 $357 $357 $-1 $505 reversed $231 $-1 #
edge $-1 $506 0 $506 6.2831853071796004 $232 $507 forward 7 unknown #
vertex $-1 $235 $508 #
ellipse-curve $-1 51.738285882102787 21.836882412038683 6.2790924522197988 0 0.50000000669873634 0.8660253999169214 3 0 0 1 I I #
face $-1 $-1 $373 $50 $-1 $509 forward single #
loop $-1 $-1 $510 $236 #
plane-surface $-1 0 -31.014939364093568 0 0 1 0 0 0 1 forward_v I I I I #
coedge $-1 $511 $512 $513 $514 reversed $237 $-1 #
coedge $-1 $515 $239 $241 $371 forward $149 $-1 #
coedge $-1 $239 $515 $511 $516 forward $149 $-1 #
coedge $-1 $513 $242 $239 $368 forward $373 $-1 #
edge $-1 $375 1.0310155997366017 $517 32.744978977251058 $367 $518 forward 7 unknown #
coedge $-1 $519 $520 $240 $370 forward $362 $-1 #
edge $-1 $521 -65.312743192756017 $374 -54.714835699629205 $369 $522 forward 7 unknown #
edge $-1 $375 -21.19581470228324 $521 2.0490727404064563e-014 $241 $523 forward 7 unknown #
coedge $-1 $242 $513 $519 $524 forward $373 $-1 #
loop $-1 $-1 $513 $361 #
vertex $-1 $370 $525 #
vertex $-1 $243 $526 #
straight-curve $-1 -17.91901288823043 -53.498741897323669 11.578046198783198 0 1 0 I I #
coedge $-1 $377 $377 $-1 $527 reversed $246 $-1 #
edge $-1 $528 0 $528 6.2831853071796004 $247 $529 forward 7 unknown #
vertex $-1 $250 $530 #
ellipse-curve $-1 -40.571843872169325 -21.836882412038673 6.2790924522197837 0 -0.50000000669873634 0.8660253999169214 3 0 0 1 I I #
coedge $-1 $381 $381 $-1 $531 reversed $253 $-1 #
edge $-1 $532 0 $532 6.2831853071796004 $254 $533 forward 7 unknown #
vertex $-1 $257 $534 #
ellipse-curve $-1 -26.980145281805989 -21.836882412038673 6.2790924522197837 0 -0.50000000669873634 0.8660253999169214 3 0 0 1 I I #
face $-1 $-1 $397 $53 $-1 $535 forward single #
loop $-1 $-1 $536 $258 #
plane-surface $-1 0 -31.014939364093568 0 0 1 0 0 0 1 forward_v I I I I #
coedge $-1 $537 $538 $539 $540 reversed $259 $-1 #
coedge $-1 $541 $261 $263 $395 forward $163 $-1 #
coedge $-1 $261 $541 $537 $542 forward $163 $-1 #
coedge $-1 $539 $264 $261 $392 forward $397 $-1 #
edge $-1 $399 -38.328199982217789 $543 -6.6142366047033327 $391 $544 forward 7 unknown #
coedge $-1 $545 $546 $262 $394 forward $386 $-1 #
edge $-1 $547 -65.312743192756017 $398 -54.714835699629205 $393 $548 forward 7 unknown #
edge $-1 $399 -21.19581470228324 $547 2.0490727404064563e-014 $263 $549 forward 7 unknown #
coedge $-1 $264 $539 $545 $550 forward $397 $-1 #
loop $-1 $-1 $539 $385 #
vertex $-1 $394 $551 #
vertex $-1 $265 $552 #
straight-curve $-1 60.799418275678349 -53.498741897323669 11.578046198783198 0 1 0 I I #
coedge $-1 $401 $401 $-1 $553 reversed $268 $-1 #
edge $-1 $554 0 $554 6.2831853071796004 $269 $555 forward 7 unknown #
vertex $-1 $272 $556 #
ellipse-curve $-1 38.146587291739451 -21.836882412038673 6.2790924522197837 0 -0.50000000669873634 0.8660253999169214 3 0 0 1 I I #
coedge $-1 $405 $405 $-1 $557 reversed $275 $-1 #
edge $-1 $558 0 $558 6.2831853071796004 $276 $559 forward 7 unknown #
vertex $-1 $279 $560 #
ellipse-curve $-1 51.738285882102787 -21.836882412038673 6.2790924522197837 0 -0.50000000669873634 0.8660253999169214 3 0 0 1 I I #
face $-1 $-1 $295 $42 $-1 $561 reversed single #
loop $-1 $-1 $425 $280 #
plane-surface $-1 0 31.014939364093568 0 0 -1 0 0 0 -1 forward_v I I I I #
coedge $-1 $562 $423 $426 $563 forward $281 $-1 #
coedge $-1 $429 $283 $284 $417 reversed $177 $-1 #
coedge $-1 $423 $562 $283 $415 reversed $281 $-1 #
edge $-1 $430 -11.578046198783195 $564 11.578046198783195 $414 $565 forward 7 unknown #
coedge $-1 $285 $284 $562 $566 forward $113 $-1 #
edge $-1 $421 -75.98254341257973 $564 75.98254341257973 $413 $567 forward 7 unknown #
coedge $-1 $426 $425 $285 $419 reversed $410 $-1 #
edge $-1 $568 -75.98254341257973 $420 75.98254341257973 $418 $569 forward 7 unknown #
vertex $-1 $287 $570 #
vertex $-1 $432 $571 #
straight-curve $-1 75.98254341257973 0 -11.578046198783195 0 -1 0 I I #
coedge $-1 $412 $414 $288 $424 reversed $281 $-1 #
edge $-1 $427 -31.014939364093568 $430 31.014939364093568 $423 $572 forward 7 unknown #
coedge $-1 $418 $289 $294 $433 forward $410 $-1 #
coedge $-1 $289 $418 $412 $563 reversed $410 $-1 #
vertex $-1 $290 $573 #
straight-curve $-1 0 31.014939364093568 11.578046198783195 -1 0 0 I I #
coedge $-1 $291 $413 $293 $432 reversed $177 $-1 #
vertex $-1 $424 $574 #
straight-curve $-1 0 -31.014939364093568 11.578046198783195 1 0 0 I I #
edge $-1 $296 -11.578046198783195 $421 11.578046198783195 $293 $575 forward 7 unknown #
edge $-1 $297 -11.578046198783195 $420 11.578046198783195 $294 $576 forward 7 unknown #
point $-1 75.98254341257973 -31.014939364093568 11.578046198783195 #
point $-1 75.98254341257973 31.014939364093568 11.578046198783195 #
face $-1 $-1 $445 $43 $-1 $577 reversed single #
loop $-1 $-1 $442 $299 #
plane-surface $-1 0 0 11.578046198783195 0 0 1 1 0 0 forward_v I I I I #
coedge $-1 $578 $579 $306 $448 forward $300 $-1 #
coedge $-1 $302 $452 $580 $581 reversed $185 $-1 #
edge $-1 $582 -6.6386227936774418 $312 -3.2402240165340643 $302 $583 forward 7 unknown #
coedge $-1 $580 $584 $303 $443 forward $437 $-1 #
edge $-1 $446 -31.014939364093568 $582 31.014939364093568 $442 $585 forward 7 unknown #
coedge $-1 $449 $304 $584 $586 reversed $445 $-1 #
loop $-1 $-1 $304 $436 #
vertex $-1 $305 $587 #
straight-curve $-1 -64.81610140264624 -31.014939364093568 4.9394234051057531 0 0 1 I I #
edge $-1 $453 -31.014939364093568 $450 31.014939364093568 $439 $588 forward 7 unknown #
coedge $-1 $307 $444 $578 $589 forward $445 $-1 #
vertex $-1 $448 $590 #
straight-curve $-1 -35.199661203806492 -31.014939364093568 8.1796474216398174 1 0 0 I I #
coedge $-1 $440 $309 $579 $591 reversed $185 $-1 #
vertex $-1 $448 $592 #
straight-curve $-1 -35.199661203806492 31.014939364093568 8.1796474216398174 -1 0 0 I I #
point $-1 -64.81610140264624 31.014939364093568 8.1796474216398174 #
point $-1 -64.81610140264624 -31.014939364093568 8.1796474216398174 #
loop $-1 $-1 $323 $315 #
plane-surface $-1 0 31.014939364093568 0 0 -1 0 0 0 -1 forward_v I I I I #
coedge $-1 $460 $318 $320 $464 reversed $193 $-1 #
coedge $-1 $318 $459 $593 $594 reversed $193 $-1 #
coedge $-1 $326 $321 $318 $462 forward $316 $-1 #
edge $-1 $465 -13.980191171151688 $595 4.3759227329580987 $461 $596 forward 7 unknown #
coedge $-1 $320 $319 $468 $597 reversed $121 $-1 #
edge $-1 $598 -62.02987872818715 $465 -40.834064025903942 $459 $599 forward 7 unknown #
vertex $-1 $322 $600 #
straight-curve $-1 -16.887997288493828 12.658825459983779 11.578046198783195 1 0 0 I I #
coedge $-1 $593 $323 $326 $472 reversed $457 $-1 #
coedge $-1 $323 $593 $463 $597 forward $457 $-1 #
vertex $-1 $324 $601 #
straight-curve $-1 -49.632976265744887 31.014939364093568 81.800351788220098 0 0 1 I I #
straight-curve $-1 -49.632976265744887 -22.704511168282849 31.99507848527179 0 0.8660253999169214 -0.50000000669873634 I I #
edge $-1 $595 17.91901288823043 $327 49.632976265744887 $467 $602 forward 7 unknown #
point $-1 -49.632976265744887 31.014939364093568 11.578046198783195 #
point $-1 -49.632976265744887 12.658825459983781 11.578046198783195 #
edge $-1 $603 1 $603 0 $330 $-1 forward 7 unknown #
vertex $-1 $331 $604 #
ellipse-curve $-1 -40.571843872169325 19.842070531924175 2.8239769860392272 0 0.50000000669873634 0.8660253999169214 3 0 0 1 I I #
point $-1 -37.571843872169325 21.836882412038694 6.2790924522198148 #
edge $-1 $605 1 $605 0 $334 $-1 forward 7 unknown #
vertex $-1 $335 $606 #
ellipse-curve $-1 -26.980145281805989 19.842070531924175 2.8239769860392272 0 0.50000000669873634 0.8660253999169214 3 0 0 1 I I #
point $-1 -23.980145281805989 21.836882412038694 6.2790924522198148 #
loop $-1 $-1 $346 $338 #
plane-surface $-1 0 31.014939364093568 0 0 -1 0 0 0 -1 forward_v I I I I #
coedge $-1 $486 $341 $343 $490 reversed $215 $-1 #
coedge $-1 $341 $485 $607 $608 reversed $215 $-1 #
coedge $-1 $349 $344 $341 $488 forward $339 $-1 #
edge $-1 $491 -13.980191171151688 $609 4.3759227329580987 $487 $610 forward 7 unknown #
coedge $-1 $343 $342 $494 $611 reversed $135 $-1 #
edge $-1 $612 -62.02987872818715 $491 -40.834064025903942 $485 $613 forward 7 unknown #
vertex $-1 $345 $614 #
straight-curve $-1 22.471218293460559 12.658825459983779 11.578046198783195 1 0 0 I I #
coedge $-1 $607 $346 $349 $498 reversed $483 $-1 #
coedge $-1 $346 $607 $489 $611 forward $483 $-1 #
vertex $-1 $347 $615 #
straight-curve $-1 29.085454898163892 31.014939364093568 81.800351788220098 0 0 1 I I #
straight-curve $-1 29.085454898163892 -22.704511168282849 31.99507848527179 0 0.8660253999169214 -0.50000000669873634 I I #
edge $-1 $609 -60.799418275678349 $350 -29.085454898163892 $493 $616 forward 7 unknown #
point $-1 29.085454898163892 31.014939364093568 11.578046198783195 #
point $-1 29.085454898163892 12.658825459983781 11.578046198783195 #
edge $-1 $617 1 $617 0 $353 $-1 forward 7 unknown #
vertex $-1 $354 $618 #
ellipse-curve $-1 38.146587291739451 19.842070531924175 2.8239769860392272 0 0.50000000669873634 0.8660253999169214 3 0 0 1 I I #
point $-1 41.146587291739451 21.836882412038694 6.2790924522198148 #
edge $-1 $619 1 $619 0 $357 $-1 forward 7 unknown #
vertex $-1 $358 $620 #
ellipse-curve $-1 51.738285882102787 19.842070531924175 2.8239769860392272 0 0.50000000669873634 0.8660253999169214 3 0 0 1 I I #
point $-1 54.738285882102787 21.836882412038694 6.2790924522198148 #
plane-surface $-1 0 0 11.578046198783195 0 0 1 1 0 0 forward_v I I I I #
coedge $-1 $520 $519 $512 $621 forward $362 $-1 #
coedge $-1 $512 $364 $366 $516 reversed $237 $-1 #
coedge $-1 $364 $511 $510 $621 reversed $237 $-1 #
coedge $-1 $372 $367 $364 $514 forward $373 $-1 #
edge $-1 $517 -40.839916437339923 $622 -22.483802533230101 $513 $623 forward 7 unknown #
coedge $-1 $366 $365 $520 $624 reversed $149 $-1 #
edge $-1 $625 -2.0490727404064563e-014 $517 21.19581470228324 $511 $626 forward 7 unknown #
vertex $-1 $368 $627 #
straight-curve $-1 -16.887997288493828 -12.658825459983749 11.578046198783195 -1 0 0 I I #
coedge $-1 $510 $369 $372 $524 reversed $362 $-1 #
coedge $-1 $369 $510 $515 $624 forward $362 $-1 #
vertex $-1 $370 $628 #
straight-curve $-1 -17.91901288823043 -31.014939364093564 66.292881898412404 0 0 1 I I #
straight-curve $-1 -17.91901288823043 -31.01493936409355 0.98013870565640104 0 -0.8660253999169214 -0.50000000669873634 I I #
edge $-1 $622 -49.632976265744887 $374 -17.91901288823043 $519 $629 forward 7 unknown #
point $-1 -17.91901288823043 -31.014939364093568 11.578046198783195 #
point $-1 -17.91901288823043 -12.658825459983746 11.578046198783195 #
edge $-1 $630 1 $630 0 $377 $-1 forward 7 unknown #
vertex $-1 $378 $631 #
ellipse-curve $-1 -40.571843872169325 -19.842070531924172 2.8239769860392254 0 -0.50000000669873634 0.8660253999169214 3 0 0 1 I I #
point $-1 -37.571843872169325 -21.83688241203869 6.279092452219813 #
edge $-1 $632 1 $632 0 $381 $-1 forward 7 unknown #
vertex $-1 $382 $633 #
ellipse-curve $-1 -26.980145281805989 -19.842070531924172 2.8239769860392254 0 -0.50000000669873634 0.8660253999169214 3 0 0 1 I I #
point $-1 -23.980145281805989 -21.83688241203869 6.279092452219813 #
plane-surface $-1 0 0 11.578046198783195 0 0 1 1 0 0 forward_v I I I I #
coedge $-1 $546 $545 $538 $634 forward $386 $-1 #
coedge $-1 $538 $388 $390 $542 reversed $259 $-1 #
coedge $-1 $388 $537 $536 $634 reversed $259 $-1 #
coedge $-1 $396 $391 $388 $540 forward $397 $-1 #
edge $-1 $543 -40.839916437339923 $635 -22.483802533230101 $539 $636 forward 7 unknown #
coedge $-1 $390 $389 $546 $637 reversed $163 $-1 #
edge $-1 $638 -2.0490727404064563e-014 $543 21.19581470228324 $537 $639 forward 7 unknown #
vertex $-1 $392 $640 #
straight-curve $-1 22.471218293460559 -12.658825459983749 11.578046198783195 -1 0 0 I I #
coedge $-1 $536 $393 $396 $550 reversed $386 $-1 #
coedge $-1 $393 $536 $541 $637 forward $386 $-1 #
vertex $-1 $394 $641 #
straight-curve $-1 60.799418275678349 -31.014939364093564 66.292881898412404 0 0 1 I I #
straight-curve $-1 60.799418275678349 -31.01493936409355 0.98013870565640104 0 -0.8660253999169214 -0.50000000669873634 I I #
edge $-1 $635 29.085454898163892 $398 60.799418275678349 $545 $642 forward 7 unknown #
point $-1 60.799418275678349 -31.014939364093568 11.578046198783195 #
point $-1 60.799418275678349 -12.658825459983746 11.578046198783195 #
edge $-1 $643 1 $643 0 $401 $-1 forward 7 unknown #
vertex $-1 $402 $644 #
ellipse-curve $-1 38.146587291739451 -19.842070531924172 2.8239769860392254 0 -0.50000000669873634 0.8660253999169214 3 0 0 1 I I #
point $-1 41.146587291739451 -21.83688241203869 6.279092452219813 #
edge $-1 $645 1 $645 0 $405 $-1 forward 7 unknown #
vertex $-1 $406 $646 #
ellipse-curve $-1 51.738285882102787 -19.842070531924172 2.8239769860392254 0 -0.50000000669873634 0.8660253999169214 3 0 0 1 I I #
point $-1 54.738285882102787 -21.83688241203869 6.279092452219813 #
plane-surface $-1 75.98254341257973 0 0 -1 0 0 0 0 1 forward_v I I I I #
coedge $-1 $414 $412 $416 $566 reversed $281 $-1 #
edge $-1 $427 -11.578046198783195 $568 11.578046198783195 $426 $647 forward 7 unknown #
vertex $-1 $566 $648 #
straight-curve $-1 -75.98254341257973 -31.014939364093568 0 0 0 -1 I I #
edge $-1 $564 -31.014939364093568 $568 31.014939364093568 $562 $649 forward 7 unknown #
straight-curve $-1 0 -31.014939364093568 -11.578046198783195 -1 0 0 I I #
vertex $-1 $419 $650 #
straight-curve $-1 0 31.014939364093568 -11.578046198783195 1 0 0 I I #
point $-1 75.98254341257973 31.014939364093568 -11.578046198783195 #
point $-1 75.98254341257973 -31.014939364093568 -11.578046198783195 #
straight-curve $-1 -75.98254341257973 0 11.578046198783195 0 -1 0 I I #
point $-1 -75.98254341257973 31.014939364093568 11.578046198783195 #
point $-1 -75.98254341257973 -31.014939364093568 11.578046198783195 #
straight-curve $-1 75.98254341257973 -31.014939364093568 0 0 0 -1 I I #
straight-curve $-1 75.98254341257973 31.014939364093568 0 0 0 -1 I I #
plane-surface $-1 0 -31.014939364093568 0 0 1 0 0 0 1 forward_v I I I I #
coedge $-1 $651 $439 $449 $589 reversed $300 $-1 #
coedge $-1 $439 $651 $452 $591 forward $300 $-1 #
coedge $-1 $652 $442 $440 $581 forward $437 $-1 #
edge $-1 $582 64.81610140264624 $653 75.98254341257973 $440 $654 forward 7 unknown #
vertex $-1 $581 $655 #
straight-curve $-1 -64.81610140264624 31.014939364093568 4.9394234051057531 0 0 -1 I I #
coedge $-1 $442 $652 $444 $586 forward $437 $-1 #
straight-curve $-1 -64.81610140264624 0 11.578046198783195 0 1 0 I I #
edge $-1 $656 -75.98254341257973 $446 -64.81610140264624 $444 $657 forward 7 unknown #
point $-1 -64.81610140264624 -31.014939364093568 11.578046198783195 #
straight-curve $-1 -75.98254341257973 0 8.1796474216398174 0 -1 0 I I #
edge $-1 $656 -11.578046198783195 $450 -8.1796474216398174 $578 $658 forward 7 unknown #
point $-1 -75.98254341257973 -31.014939364093568 8.1796474216398174 #
edge $-1 $653 -11.578046198783195 $453 -8.1796474216398174 $452 $659 forward 7 unknown #
point $-1 -75.98254341257973 31.014939364093568 8.1796474216398174 #
coedge $-1 $468 $467 $460 $594 forward $457 $-1 #
edge $-1 $595 70.2223055894369 $598 80.820213082563683 $593 $660 forward 7 unknown #
vertex $-1 $472 $661 #
straight-curve $-1 -17.91901288823043 26.639016631135469 11.578046198783198 0 1 0 I I #
edge $-1 $598 1.0310155997366017 $469 32.744978977251058 $468 $662 forward 7 unknown #
vertex $-1 $597 $663 #
straight-curve $-1 -17.91901288823043 -22.704511168282849 31.99507848527179 0 -0.8660253999169214 0.50000000669873634 I I #
point $-1 -17.91901288823043 12.658825459983781 11.578046198783195 #
point $-1 -49.632976265744887 31.014939364093564 0.9801387056564117 #
straight-curve $-1 0 31.014939364093568 11.578046198783195 -1 0 0 I I #
vertex $-1 $475 $664 #
point $-1 -37.571843872169325 19.842070531924175 2.8239769860392272 #
vertex $-1 $479 $665 #
point $-1 -23.980145281805989 19.842070531924175 2.8239769860392272 #
coedge $-1 $494 $493 $486 $608 forward $483 $-1 #
edge $-1 $609 70.2223055894369 $612 80.820213082563683 $607 $666 forward 7 unknown #
vertex $-1 $498 $667 #
straight-curve $-1 60.799418275678349 26.639016631135469 11.578046198783198 0 1 0 I I #
edge $-1 $612 -38.328199982217789 $495 -6.6142366047033327 $494 $668 forward 7 unknown #
vertex $-1 $611 $669 #
straight-curve $-1 60.799418275678349 -22.704511168282849 31.99507848527179 0 -0.8660253999169214 0.50000000669873634 I I #
point $-1 60.799418275678349 12.658825459983781 11.578046198783195 #
point $-1 29.085454898163892 31.014939364093564 0.9801387056564117 #
straight-curve $-1 0 31.014939364093568 11.578046198783195 -1 0 0 I I #
vertex $-1 $501 $670 #
point $-1 41.146587291739451 19.842070531924175 2.8239769860392272 #
vertex $-1 $505 $671 #
point $-1 54.738285882102787 19.842070531924175 2.8239769860392272 #
edge $-1 $622 54.714835699629205 $625 65.312743192756017 $510 $672 forward 7 unknown #
vertex $-1 $524 $673 #
straight-curve $-1 -49.632976265744887 -53.498741897323669 11.578046198783198 0 -1 0 I I #
edge $-1 $625 -32.744978977251058 $521 -1.0310155997366017 $520 $674 forward 7 unknown #
vertex $-1 $624 $675 #
straight-curve $-1 -49.632976265744887 -31.01493936409355 0.98013870565640104 0 0.8660253999169214 0.50000000669873634 I I #
point $-1 -49.632976265744887 -12.658825459983746 11.578046198783195 #
point $-1 -17.91901288823043 -31.014939364093568 0.98013870565639083 #
straight-curve $-1 0 -31.014939364093568 11.578046198783195 1 0 0 I I #
vertex $-1 $527 $676 #
point $-1 -37.571843872169325 -19.842070531924172 2.8239769860392254 #
vertex $-1 $531 $677 #
point $-1 -23.980145281805989 -19.842070531924172 2.8239769860392254 #
edge $-1 $635 54.714835699629205 $638 65.312743192756017 $536 $678 forward 7 unknown #
vertex $-1 $550 $679 #
straight-curve $-1 29.085454898163892 -53.498741897323669 11.578046198783198 0 -1 0 I I #
edge $-1 $638 6.6142366047033327 $547 38.328199982217789 $546 $680 forward 7 unknown #
vertex $-1 $637 $681 #
straight-curve $-1 29.085454898163892 -31.01493936409355 0.98013870565640104 0 0.8660253999169214 0.50000000669873634 I I #
point $-1 29.085454898163892 -12.658825459983746 11.578046198783195 #
point $-1 60.799418275678349 -31.014939364093568 0.98013870565639083 #
straight-curve $-1 0 -31.014939364093568 11.578046198783195 1 0 0 I I #
vertex $-1 $553 $682 #
point $-1 41.146587291739451 -19.842070531924172 2.8239769860392254 #
vertex $-1 $557 $683 #
point $-1 54.738285882102787 -19.842070531924172 2.8239769860392254 #
straight-curve $-1 -75.98254341257973 31.014939364093568 0 0 0 -1 I I #
point $-1 -75.98254341257973 -31.014939364093568 -11.578046198783195 #
straight-curve $-1 -75.98254341257973 0 -11.578046198783195 0 1 0 I I #
point $-1 -75.98254341257973 31.014939364093568 -11.578046198783195 #
coedge $-1 $579 $578 $652 $684 reversed $300 $-1 #
coedge $-1 $584 $580 $651 $684 forward $437 $-1 #
vertex $-1 $581 $685 #
straight-curve $-1 0 31.014939364093568 11.578046198783195 -1 0 0 I I #
point $-1 -64.81610140264624 31.014939364093568 11.578046198783195 #
vertex $-1 $684 $686 #
straight-curve $-1 0 -31.014939364093568 11.578046198783195 1 0 0 I I #
straight-curve $-1 -75.98254341257973 -31.014939364093568 0 0 0 -1 I I #
straight-curve $-1 -75.98254341257973 31.014939364093568 0 0 0 -1 I I #
straight-curve $-1 -17.91901288823043 31.014939364093568 81.800351788220098 0 0 -1 I I #
point $-1 -17.91901288823043 31.014939364093568 11.578046198783195 #
straight-curve $-1 -16.887997288493828 31.014939364093568 0.9801387056564117 -1 0 0 I I #
point $-1 -17.91901288823043 31.014939364093564 0.9801387056564117 #
point $-1 -40.571843872169325 18.342070511827966 0.225900786288463 #
point $-1 -26.980145281805989 18.342070511827966 0.225900786288463 #
straight-curve $-1 60.799418275678349 31.014939364093568 81.800351788220098 0 0 -1 I I #
point $-1 60.799418275678349 31.014939364093568 11.578046198783195 #
straight-curve $-1 22.471218293460559 31.014939364093568 0.9801387056564117 -1 0 0 I I #
point $-1 60.799418275678349 31.014939364093564 0.9801387056564117 #
point $-1 38.146587291739451 18.342070511827966 0.225900786288463 #
point $-1 51.738285882102787 18.342070511827966 0.225900786288463 #
straight-curve $-1 -49.632976265744887 -31.014939364093564 66.292881898412404 0 0 -1 I I #
point $-1 -49.632976265744887 -31.014939364093568 11.578046198783195 #
straight-curve $-1 -16.887997288493828 -31.014939364093568 0.98013870565638894 1 0 0 I I #
point $-1 -49.632976265744887 -31.014939364093568 0.98013870565639083 #
point $-1 -40.571843872169325 -18.342070511827963 0.22590078628846122 #
point $-1 -26.980145281805989 -18.342070511827963 0.22590078628846122 #
straight-curve $-1 29.085454898163892 -31.014939364093564 66.292881898412404 0 0 -1 I I #
point $-1 29.085454898163892 -31.014939364093568 11.578046198783195 #
straight-curve $-1 22.471218293460559 -31.014939364093568 0.98013870565638894 1 0 0 I I #
point $-1 29.085454898163892 -31.014939364093568 0.98013870565639083 #
point $-1 38.146587291739451 -18.342070511827963 0.22590078628846122 #
point $-1 51.738285882102787 -18.342070511827963 0.22590078628846122 #
edge $-1 $653 -31.014939364093568 $656 31.014939364093568 $651 $687 forward 7 unknown #
point $-1 -75.98254341257973 31.014939364093568 11.578046198783195 #
point $-1 -75.98254341257973 -31.014939364093568 11.578046198783195 #
straight-curve $-1 -75.98254341257973 0 11.578046198783195 0 -1 0 I I #
End-of-ACIS-data 