500 0 4 0           
7 Unknown 11 ACIS 5.0 NT 24 Thu Mar 25 22:28:50 1999 
-1 9.9999999999999995e-007 1e-010 
body $-1 $4 $-1 $5 #
body $-1 $6 $-1 $7 #
body $-1 $8 $-1 $9 #
body $-1 $10 $-1 $11 #
lump $-1 $-1 $12 $0 #
transform $-1 1 0 0 0 1 0 0 0 1 46.51509140293588 28.890830323626528 7.7752280686626225 1 rotate no_reflect no_shear #
lump $-1 $-1 $13 $1 #
transform $-1 1 0 0 0 1 0 0 0 1 46.51509140293588 28.890830323626528 7.7752280686626225 1 rotate no_reflect no_shear #
lump $-1 $-1 $14 $2 #
transform $-1 1 0 0 0 1 0 0 0 1 46.51509140293588 28.890830323626528 7.7752280686626225 1 rotate no_reflect no_shear #
lump $-1 $-1 $15 $3 #
transform $-1 1 0 0 0 1 0 0 0 1 46.51509140293588 28.890830323626528 7.7752280686626225 1 rotate no_reflect no_shear #
shell $-1 $-1 $-1 $16 $-1 $4 #
shell $-1 $-1 $-1 $17 $-1 $6 #
shell $-1 $-1 $-1 $18 $-1 $8 #
shell $-1 $-1 $-1 $19 $-1 $10 #
face $-1 $20 $21 $12 $-1 $22 forward single #
face $-1 $23 $24 $13 $-1 $25 forward single #
face $-1 $26 $27 $14 $-1 $28 reversed single #
face $-1 $29 $30 $15 $-1 $31 forward single #
face $-1 $32 $33 $12 $-1 $34 reversed single #
loop $-1 $-1 $35 $16 #
plane-surface $-1 0 0 7.7752280686626225 0 0 1 1 0 0 forward_v I I I I #
face $-1 $36 $37 $13 $-1 $38 reversed single #
loop $-1 $-1 $39 $17 #
plane-surface $-1 0 -28.890830323626528 0 0 1 0 0 0 1 forward_v I I I I #
face $-1 $40 $41 $14 $-1 $42 reversed single #
loop $-1 $-1 $43 $18 #
plane-surface $-1 -35.420006366555796 34.918786595674234 112.16945121381772 -1 0 0 0 0.57357644374324357 0.81915203911291934 forward_v I I I I #
face $-1 $44 $45 $15 $-1 $46 forward single #
loop $-1 $47 $48 $19 #
cone-surface $-1 -40.967548884745838 25.040507884811827 4.8514204814723891 0 -0.57357644374324357 -0.81915203911291934 1 0 0 1 I I 0 1 1 forward I I I I #
face $-1 $49 $50 $12 $-1 $51 reversed single #
loop $-1 $-1 $52 $20 #
plane-surface $-1 0 0 -7.7752280686626225 0 0 1 1 0 0 forward_v I I I I #
coedge $-1 $53 $54 $55 $56 forward $21 $-1 #
face $-1 $57 $58 $13 $-1 $59 reversed single #
loop $-1 $-1 $60 $23 #
plane-surface $-1 0 0 -7.7752280686626225 0 0 1 1 0 0 forward_v I I I I #
coedge $-1 $61 $62 $63 $64 forward $24 $-1 #
face $-1 $65 $66 $14 $-1 $67 forward single #
loop $-1 $-1 $68 $26 #
plane-surface $-1 -40.967548884745838 -18.441134818901531 35.963587269340223 0 0.57357644374324357 0.81915203911291934 1 0 0 forward_v I I I I #
coedge $-1 $69 $70 $71 $72 reversed $27 $-1 #
face $-1 $-1 $73 $15 $-1 $74 forward single #
loop $-1 $75 $76 $29 #
cone-surface $-1 -40.967548884745838 24.440805679104205 3.9949569882020537 0 -0.57357644374324357 -0.81915203911291934 0.5 0 0 1 I I -0.70710678118654746 0.70710678118654746 0.5 forward I I I I #
loop $-1 $-1 $77 $19 #
coedge $-1 $48 $48 $78 $79 reversed $30 $-1 #
face $-1 $80 $81 $12 $-1 $82 reversed single #
loop $-1 $-1 $83 $32 #
plane-surface $-1 0 -28.890830323626528 0 0 1 0 0 0 1 forward_v I I I I #
coedge $-1 $84 $85 $86 $87 forward $33 $-1 #
coedge $-1 $88 $35 $89 $90 forward $21 $-1 #
coedge $-1 $35 $88 $91 $92 forward $21 $-1 #
coedge $-1 $93 $94 $35 $56 reversed $95 $-1 #
edge $-1 $96 -28.890830323626528 $97 28.890830323626528 $55 $98 forward 7 unknown #
face $-1 $99 $100 $13 $-1 $101 forward single #
loop $-1 $-1 $102 $36 #
plane-surface $-1 46.51509140293588 0 0 -1 0 0 0 0 1 forward_v I I I I #
coedge $-1 $103 $104 $105 $106 forward $37 $-1 #
coedge $-1 $105 $39 $102 $107 reversed $24 $-1 #
coedge $-1 $39 $105 $108 $109 reversed $24 $-1 #
coedge $-1 $110 $111 $39 $64 reversed $100 $-1 #
edge $-1 $112 -46.51509140293588 $113 46.51509140293588 $63 $114 forward 7 unknown #
face $-1 $115 $116 $14 $-1 $117 reversed single #
loop $-1 $-1 $118 $40 #
plane-surface $-1 0 0 7.7752280686626225 0 0 1 1 0 0 forward_v I I I I #
coedge $-1 $119 $120 $121 $122 reversed $41 $-1 #
coedge $-1 $70 $43 $123 $124 reversed $27 $-1 #
coedge $-1 $43 $69 $119 $125 reversed $27 $-1 #
coedge $-1 $121 $126 $43 $72 forward $116 $-1 #
edge $-1 $127 48.309497538246241 $128 53.263337765198969 $71 $129 forward 7 unknown #
loop $-1 $-1 $78 $44 #
plane-surface $-1 -40.967548884745838 -18.441134818901531 35.963587269340223 0 0.57357644374324357 0.81915203911291934 1 0 0 forward_v I I I I #
loop $-1 $-1 $130 $29 #
coedge $-1 $76 $76 $77 $131 reversed $45 $-1 #
coedge $-1 $77 $77 $76 $131 forward $47 $-1 #
coedge $-1 $78 $78 $48 $79 forward $73 $-1 #
edge $-1 $132 3.6302155746833221e-016 $132 6.2831853071796004 $78 $133 forward 7 unknown #
face $-1 $134 $135 $12 $-1 $136 reversed single #
loop $-1 $-1 $137 $49 #
plane-surface $-1 -46.51509140293588 0 0 1 0 0 0 0 -1 forward_v I I I I #
coedge $-1 $91 $138 $93 $139 reversed $50 $-1 #
coedge $-1 $140 $52 $138 $141 forward $33 $-1 #
coedge $-1 $52 $140 $142 $143 forward $33 $-1 #
coedge $-1 $94 $93 $52 $87 reversed $95 $-1 #
edge $-1 $144 -28.890830323626528 $145 28.890830323626528 $86 $146 forward 7 unknown #
coedge $-1 $54 $53 $147 $148 forward $21 $-1 #
coedge $-1 $149 $150 $53 $90 reversed $135 $-1 #
edge $-1 $97 -46.51509140293588 $151 46.51509140293588 $89 $152 forward 7 unknown #
coedge $-1 $153 $83 $54 $92 reversed $50 $-1 #
edge $-1 $154 -46.51509140293588 $96 46.51509140293588 $91 $155 forward 7 unknown #
coedge $-1 $86 $55 $83 $139 forward $95 $-1 #
coedge $-1 $55 $86 $149 $156 reversed $95 $-1 #
loop $-1 $-1 $93 $134 #
vertex $-1 $56 $157 #
vertex $-1 $56 $158 #
straight-curve $-1 46.51509140293588 0 7.7752280686626225 0 1 0 I I #
face $-1 $159 $160 $13 $-1 $161 reversed single #
loop $-1 $-1 $111 $57 #
plane-surface $-1 0 -33.23175531708781 -3.9554073220664385 0 0 1 1 0 0 forward_v I I I I #
coedge $-1 $162 $163 $61 $107 forward $58 $-1 #
coedge $-1 $164 $60 $163 $165 forward $37 $-1 #
coedge $-1 $60 $164 $166 $167 forward $37 $-1 #
coedge $-1 $62 $61 $60 $106 reversed $24 $-1 #
edge $-1 $168 -46.51509140293588 $169 46.51509140293588 $60 $170 forward 7 unknown #
edge $-1 $169 -7.7752280686626225 $113 -3.9554073220664385 $102 $171 forward 7 unknown #
coedge $-1 $166 $172 $62 $109 forward $173 $-1 #
edge $-1 $112 3.9554073220664385 $168 7.7752280686626225 $108 $174 forward 7 unknown #
coedge $-1 $175 $63 $172 $176 forward $100 $-1 #
coedge $-1 $63 $175 $162 $177 forward $100 $-1 #
vertex $-1 $109 $178 #
vertex $-1 $177 $179 #
straight-curve $-1 0 -28.890830323626528 -3.9554073220664385 1 0 0 I I #
face $-1 $-1 $180 $14 $-1 $181 reversed single #
loop $-1 $-1 $71 $65 #
plane-surface $-1 0 28.890830323626528 0 0 -1 0 0 0 -1 forward_v I I I I #
coedge $-1 $123 $182 $183 $184 forward $66 $-1 #
coedge $-1 $183 $68 $70 $125 forward $41 $-1 #
coedge $-1 $68 $183 $185 $186 reversed $41 $-1 #
coedge $-1 $187 $71 $68 $122 forward $116 $-1 #
edge $-1 $128 14.936231924182877 $188 26.031316960562961 $121 $189 forward 7 unknown #
coedge $-1 $190 $118 $69 $124 forward $66 $-1 #
edge $-1 $191 4.3566201158320013 $127 11.43143702578941 $123 $192 forward 7 unknown #
edge $-1 $128 -57.781660647253048 $191 -49.144903888863098 $70 $193 forward 7 unknown #
coedge $-1 $71 $187 $190 $194 reversed $116 $-1 #
vertex $-1 $194 $195 #
vertex $-1 $72 $196 #
straight-curve $-1 -35.420006366555796 28.890830323626528 56.084725606908862 0 0 -1 I I #
coedge $-1 $130 $130 $-1 $197 reversed $75 $-1 #
edge $-1 $198 0 $198 6.2831853071796004 $76 $199 forward 7 unknown #
vertex $-1 $79 $200 #
ellipse-curve $-1 -40.967548884745838 25.353421868647825 5.2983079551862602 0 0.57357644374324357 0.81915203911291934 1 0 0 1 I I #
face $-1 $-1 $95 $12 $-1 $201 reversed single #
loop $-1 $-1 $149 $80 #
plane-surface $-1 0 28.890830323626528 0 0 -1 0 0 0 -1 forward_v I I I I #
coedge $-1 $202 $147 $150 $203 forward $81 $-1 #
coedge $-1 $83 $153 $84 $141 reversed $50 $-1 #
edge $-1 $96 -7.7752280686626225 $145 7.7752280686626225 $93 $204 forward 7 unknown #
coedge $-1 $85 $84 $202 $205 forward $33 $-1 #
edge $-1 $145 -46.51509140293588 $206 46.51509140293588 $138 $207 forward 7 unknown #
coedge $-1 $150 $149 $85 $143 reversed $135 $-1 #
edge $-1 $208 -46.51509140293588 $144 46.51509140293588 $142 $209 forward 7 unknown #
vertex $-1 $87 $210 #
vertex $-1 $139 $211 #
straight-curve $-1 46.51509140293588 0 -7.7752280686626225 0 -1 0 I I #
coedge $-1 $137 $212 $88 $148 reversed $81 $-1 #
edge $-1 $151 -28.890830323626528 $154 28.890830323626528 $147 $213 forward 7 unknown #
coedge $-1 $142 $89 $94 $156 forward $135 $-1 #
coedge $-1 $89 $142 $137 $203 reversed $135 $-1 #
vertex $-1 $90 $214 #
straight-curve $-1 0 28.890830323626528 7.7752280686626225 -1 0 0 I I #
coedge $-1 $138 $91 $212 $215 forward $50 $-1 #
vertex $-1 $148 $216 #
straight-curve $-1 0 -28.890830323626528 7.7752280686626225 1 0 0 I I #
edge $-1 $97 -7.7752280686626225 $144 7.7752280686626225 $94 $217 forward 7 unknown #
point $-1 46.51509140293588 -28.890830323626528 7.7752280686626225 #
point $-1 46.51509140293588 28.890830323626528 7.7752280686626225 #
face $-1 $-1 $173 $13 $-1 $218 reversed single #
loop $-1 $-1 $219 $99 #
plane-surface $-1 0 -37.572680310549089 -5.8653176953645305 0 1 0 0 0 1 forward_v I I I I #
coedge $-1 $220 $102 $111 $177 reversed $58 $-1 #
coedge $-1 $102 $220 $103 $165 reversed $58 $-1 #
coedge $-1 $104 $103 $221 $222 forward $37 $-1 #
edge $-1 $169 28.890830323626528 $223 37.572680310549089 $163 $224 forward 7 unknown #
coedge $-1 $225 $108 $104 $167 reversed $173 $-1 #
edge $-1 $226 -37.572680310549089 $168 -28.890830323626528 $166 $227 forward 7 unknown #
vertex $-1 $109 $228 #
vertex $-1 $165 $229 #
straight-curve $-1 0 -28.890830323626528 -7.7752280686626225 1 0 0 I I #
straight-curve $-1 46.51509140293588 -28.890830323626528 0 0 0 1 I I #
coedge $-1 $108 $225 $110 $176 reversed $173 $-1 #
loop $-1 $-1 $108 $159 #
straight-curve $-1 -46.51509140293588 -28.890830323626528 0 0 0 -1 I I #
coedge $-1 $111 $110 $230 $231 forward $100 $-1 #
edge $-1 $112 -4.3409249934612788 $232 4.3409249934612788 $172 $233 forward 7 unknown #
edge $-1 $234 -4.3409249934612788 $113 4.3409249934612788 $162 $235 forward 7 unknown #
point $-1 -46.51509140293588 -28.890830323626531 -3.9554073220664385 #
point $-1 46.51509140293588 -28.890830323626531 -3.9554073220664385 #
loop $-1 $-1 $185 $115 #
plane-surface $-1 -46.51509140293588 0 0 1 0 0 0 0 -1 forward_v I I I I #
coedge $-1 $118 $190 $236 $237 forward $66 $-1 #
coedge $-1 $120 $119 $118 $184 reversed $41 $-1 #
edge $-1 $238 -26.031316960562961 $191 -14.936231924182877 $118 $239 forward 7 unknown #
coedge $-1 $236 $240 $120 $186 forward $180 $-1 #
edge $-1 $188 -39.914680806924352 $238 -31.277924048534402 $185 $241 forward 7 unknown #
coedge $-1 $126 $121 $240 $242 reversed $116 $-1 #
vertex $-1 $122 $243 #
straight-curve $-1 -20.483774442372919 28.890830323626531 2.8213878417098925 -1 0 0 I I #
coedge $-1 $182 $123 $126 $194 forward $66 $-1 #
vertex $-1 $124 $244 #
straight-curve $-1 -35.420006366555796 17.459393297837117 7.7752280686626207 0 1 0 I I #
straight-curve $-1 -35.420006366555796 -18.441134818901531 35.963587269340223 0 -0.81915203911291934 0.57357644374324357 I I #
edge $-1 $127 35.420006366555796 $245 46.51509140293588 $126 $246 forward 7 unknown #
point $-1 -35.420006366555796 28.890830323626528 7.7752280686626225 #
point $-1 -35.420006366555796 28.890830323626531 2.8213878417098925 #
edge $-1 $247 1 $247 0 $130 $-1 forward 7 unknown #
vertex $-1 $131 $248 #
ellipse-curve $-1 -40.967548884745838 24.727593900975826 4.4045330077585136 0 0.57357644374324357 0.81915203911291934 1 0 0 1 I I #
point $-1 -39.967548884745838 25.353421868647828 5.2983079551862646 #
plane-surface $-1 46.51509140293588 0 0 -1 0 0 0 0 1 forward_v I I I I #
coedge $-1 $212 $137 $140 $205 reversed $81 $-1 #
edge $-1 $151 -7.7752280686626225 $208 7.7752280686626225 $150 $249 forward 7 unknown #
straight-curve $-1 46.51509140293588 -28.890830323626528 0 0 0 -1 I I #
edge $-1 $206 -28.890830323626528 $208 28.890830323626528 $202 $250 forward 7 unknown #
vertex $-1 $205 $251 #
straight-curve $-1 0 -28.890830323626528 -7.7752280686626225 -1 0 0 I I #
vertex $-1 $143 $252 #
straight-curve $-1 0 28.890830323626528 -7.7752280686626225 1 0 0 I I #
point $-1 46.51509140293588 28.890830323626528 -7.7752280686626225 #
point $-1 46.51509140293588 -28.890830323626528 -7.7752280686626225 #
coedge $-1 $147 $202 $153 $215 reversed $81 $-1 #
straight-curve $-1 -46.51509140293588 0 7.7752280686626225 0 -1 0 I I #
point $-1 -46.51509140293588 28.890830323626528 7.7752280686626225 #
edge $-1 $154 -7.7752280686626225 $206 7.7752280686626225 $212 $253 forward 7 unknown #
point $-1 -46.51509140293588 -28.890830323626528 7.7752280686626225 #
straight-curve $-1 46.51509140293588 28.890830323626528 0 0 0 -1 I I #
plane-surface $-1 -46.51509140293588 0 0 1 0 0 0 0 -1 forward_v I I I I #
coedge $-1 $221 $230 $225 $254 forward $160 $-1 #
coedge $-1 $163 $162 $255 $256 forward $58 $-1 #
coedge $-1 $255 $219 $164 $222 reversed $160 $-1 #
edge $-1 $223 -46.51509140293588 $226 46.51509140293588 $221 $257 forward 7 unknown #
vertex $-1 $256 $258 #
straight-curve $-1 46.51509140293588 0 -7.7752280686626225 0 -1 0 I I #
coedge $-1 $172 $166 $219 $254 reversed $173 $-1 #
vertex $-1 $167 $259 #
straight-curve $-1 -46.51509140293588 0 -7.7752280686626225 0 1 0 I I #
point $-1 -46.51509140293588 -28.890830323626528 -7.7752280686626225 #
point $-1 46.51509140293588 -28.890830323626528 -7.7752280686626225 #
coedge $-1 $219 $255 $175 $231 reversed $160 $-1 #
edge $-1 $232 -46.51509140293588 $234 46.51509140293588 $230 $260 forward 7 unknown #
vertex $-1 $176 $261 #
straight-curve $-1 -46.51509140293588 -33.23175531708781 -3.9554073220664385 0 -1 0 I I #
vertex $-1 $177 $262 #
straight-curve $-1 46.51509140293588 -33.23175531708781 -3.9554073220664385 0 1 0 I I #
coedge $-1 $240 $185 $182 $237 reversed $180 $-1 #
edge $-1 $245 -28.890830323626528 $238 -21.816013413669118 $236 $263 forward 7 unknown #
vertex $-1 $186 $264 #
straight-curve $-1 -20.483774442372919 21.816013413669125 7.7752280686626243 1 0 0 I I #
coedge $-1 $185 $236 $187 $242 forward $180 $-1 #
straight-curve $-1 -46.51509140293588 -3.8053618499068547 25.715508512092264 0 -0.81915203911291934 0.57357644374324357 I I #
edge $-1 $245 -7.7752280686626225 $188 -2.821387841709893 $187 $265 forward 7 unknown #
point $-1 -46.51509140293588 28.890830323626528 2.821387841709893 #
point $-1 -35.420006366555796 21.816013413669118 7.7752280686626243 #
vertex $-1 $194 $266 #
straight-curve $-1 0 28.890830323626528 7.7752280686626225 -1 0 0 I I #
vertex $-1 $197 $267 #
point $-1 -39.967548884745838 24.727593900975826 4.4045330077585136 #
straight-curve $-1 -46.51509140293588 28.890830323626528 0 0 0 -1 I I #
straight-curve $-1 -46.51509140293588 0 -7.7752280686626225 0 1 0 I I #
point $-1 -46.51509140293588 -28.890830323626528 -7.7752280686626225 #
point $-1 -46.51509140293588 28.890830323626528 -7.7752280686626225 #
straight-curve $-1 -46.51509140293588 -28.890830323626528 0 0 0 -1 I I #
edge $-1 $232 -1.909910373298092 $226 1.909910373298092 $225 $268 forward 7 unknown #
coedge $-1 $230 $221 $220 $256 reversed $160 $-1 #
edge $-1 $234 -1.909910373298092 $223 1.909910373298092 $220 $269 forward 7 unknown #
straight-curve $-1 0 -37.572680310549089 -7.7752280686626225 -1 0 0 I I #
point $-1 46.51509140293588 -37.572680310549089 -7.7752280686626225 #
point $-1 -46.51509140293588 -37.572680310549089 -7.7752280686626225 #
straight-curve $-1 0 -37.572680310549089 -3.9554073220664385 1 0 0 I I #
point $-1 -46.51509140293588 -37.572680310549089 -3.9554073220664385 #
point $-1 46.51509140293588 -37.572680310549089 -3.9554073220664385 #
straight-curve $-1 -46.51509140293588 0 7.7752280686626225 0 -1 0 I I #
point $-1 -46.51509140293588 21.816013413669118 7.7752280686626243 #
straight-curve $-1 -46.51509140293588 28.890830323626528 0 0 0 -1 I I #
point $-1 -46.51509140293588 28.890830323626528 7.7752280686626225 #
point $-1 -40.967548884745838 24.154017457232584 3.5853809686455942 #
straight-curve $-1 -46.51509140293588 -37.572680310549089 -5.8653176953645305 0 0 -1 I I #
straight-curve $-1 46.51509140293588 -37.572680310549089 -5.8653176953645305 0 0 -1 I I #
End-of-ACIS-data 