500 0 15 0           
7 Unknown 11 ACIS 5.0 NT 24 Fri Mar 26 19:14:33 1999 
-1 9.9999999999999995e-007 1e-010 
body $-1 $15 $-1 $16 #
body $-1 $17 $-1 $18 #
body $-1 $19 $-1 $20 #
body $-1 $21 $-1 $22 #
body $-1 $23 $-1 $24 #
body $-1 $25 $-1 $26 #
body $-1 $27 $-1 $28 #
body $-1 $29 $-1 $30 #
body $-1 $31 $-1 $32 #
body $-1 $33 $-1 $34 #
body $-1 $35 $-1 $36 #
body $-1 $37 $-1 $38 #
body $-1 $39 $-1 $40 #
body $-1 $41 $-1 $42 #
body $-1 $43 $-1 $44 #
lump $-1 $-1 $45 $0 #
transform $-1 1 0 0 0 1 0 0 0 1 71.31199072237311 41.376493655621736 18.602059347466231 1 rotate no_reflect no_shear #
lump $-1 $-1 $46 $1 #
transform $-1 1 0 0 0 1 0 0 0 1 71.31199072237311 41.376493655621736 18.602059347466231 1 rotate no_reflect no_shear #
lump $-1 $-1 $47 $2 #
transform $-1 1 0 0 0 1 0 0 0 1 71.31199072237311 41.376493655621736 18.602059347466231 1 rotate no_reflect no_shear #
lump $-1 $-1 $48 $3 #
transform $-1 1 0 0 0 1 0 0 0 1 71.31199072237311 41.376493655621736 18.602059347466231 1 rotate no_reflect no_shear #
lump $-1 $-1 $49 $4 #
transform $-1 1 0 0 0 1 0 0 0 1 71.31199072237311 41.376493655621736 18.602059347466231 1 rotate no_reflect no_shear #
lump $-1 $-1 $50 $5 #
transform $-1 1 0 0 0 1 0 0 0 1 71.31199072237311 41.376493655621736 18.602059347466231 1 rotate no_reflect no_shear #
lump $-1 $-1 $51 $6 #
transform $-1 1 0 0 0 1 0 0 0 1 71.31199072237311 41.376493655621736 18.602059347466231 1 rotate no_reflect no_shear #
lump $-1 $-1 $52 $7 #
transform $-1 1 0 0 0 1 0 0 0 1 71.31199072237311 41.376493655621736 18.602059347466231 1 rotate no_reflect no_shear #
lump $-1 $-1 $53 $8 #
transform $-1 1 0 0 0 1 0 0 0 1 71.31199072237311 41.376493655621736 18.602059347466231 1 rotate no_reflect no_shear #
lump $-1 $-1 $54 $9 #
transform $-1 1 0 0 0 1 0 0 0 1 71.31199072237311 41.376493655621736 18.602059347466231 1 rotate no_reflect no_shear #
lump $-1 $-1 $55 $10 #
transform $-1 1 0 0 0 1 0 0 0 1 71.31199072237311 41.376493655621736 18.602059347466231 1 rotate no_reflect no_shear #
lump $-1 $-1 $56 $11 #
transform $-1 1 0 0 0 1 0 0 0 1 71.31199072237311 41.376493655621736 18.602059347466231 1 rotate no_reflect no_shear #
lump $-1 $-1 $57 $12 #
transform $-1 1 0 0 0 1 0 0 0 1 71.31199072237311 41.376493655621736 18.602059347466231 1 rotate no_reflect no_shear #
lump $-1 $-1 $58 $13 #
transform $-1 1 0 0 0 1 0 0 0 1 71.31199072237311 41.376493655621736 18.602059347466231 1 rotate no_reflect no_shear #
lump $-1 $-1 $59 $14 #
transform $-1 1 0 0 0 1 0 0 0 1 71.31199072237311 41.376493655621736 18.602059347466231 1 rotate no_reflect no_shear #
shell $-1 $-1 $-1 $60 $-1 $15 #
shell $-1 $-1 $-1 $61 $-1 $17 #
shell $-1 $-1 $-1 $62 $-1 $19 #
shell $-1 $-1 $-1 $63 $-1 $21 #
shell $-1 $-1 $-1 $64 $-1 $23 #
shell $-1 $-1 $-1 $65 $-1 $25 #
shell $-1 $-1 $-1 $66 $-1 $27 #
shell $-1 $-1 $-1 $67 $-1 $29 #
shell $-1 $-1 $-1 $68 $-1 $31 #
shell $-1 $-1 $-1 $69 $-1 $33 #
shell $-1 $-1 $-1 $70 $-1 $35 #
shell $-1 $-1 $-1 $71 $-1 $37 #
shell $-1 $-1 $-1 $72 $-1 $39 #
shell $-1 $-1 $-1 $73 $-1 $41 #
shell $-1 $-1 $-1 $74 $-1 $43 #
face $-1 $75 $76 $45 $-1 $77 reversed single #
face $-1 $78 $79 $46 $-1 $80 forward single #
face $-1 $81 $82 $47 $-1 $83 forward single #
face $-1 $84 $85 $48 $-1 $86 reversed single #
face $-1 $87 $88 $49 $-1 $89 forward single #
face $-1 $90 $91 $50 $-1 $92 forward single #
face $-1 $93 $94 $51 $-1 $95 reversed single #
face $-1 $96 $97 $52 $-1 $98 forward single #
face $-1 $99 $100 $53 $-1 $101 forward single #
face $-1 $102 $103 $54 $-1 $104 reversed single #
face $-1 $105 $106 $55 $-1 $107 forward single #
face $-1 $108 $109 $56 $-1 $110 forward single #
face $-1 $111 $112 $57 $-1 $113 reversed single #
face $-1 $114 $115 $58 $-1 $116 forward single #
face $-1 $117 $118 $59 $-1 $119 forward single #
face $-1 $120 $121 $45 $-1 $122 forward single #
loop $-1 $-1 $123 $60 #
plane-surface $-1 71.31199072237311 0 0 -1 0 0 0 0 1 forward_v I I I I #
face $-1 $124 $125 $46 $-1 $126 reversed single #
loop $-1 $-1 $127 $61 #
plane-surface $-1 -60.865912809800342 0 4.9721473798977787 0 0 1 1 0 0 forward_v I I I I #
face $-1 $128 $129 $47 $-1 $130 reversed single #
loop $-1 $-1 $131 $62 #
plane-surface $-1 71.31199072237311 0 0 -1 0 0 0 0 1 forward_v I I I I #
face $-1 $132 $133 $48 $-1 $134 reversed single #
loop $-1 $-1 $135 $63 #
plane-surface $-1 -50.419834897227567 -166.1182396253937 83.984740810930901 1 0 0 0 0.87461971476443456 -0.48480960649040278 forward_v I I I I #
face $-1 $136 $137 $49 $-1 $138 forward single #
loop $-1 $139 $140 $64 #
cone-surface $-1 -45.029253520960282 -39.266107966814189 16.128931428081039 0 0.87461971476443456 -0.48480960649040278 1 0 0 1 I I 0 1 1 forward I I I I #
face $-1 $141 $142 $50 $-1 $143 forward single #
loop $-1 $144 $145 $65 #
cone-surface $-1 -36.943381456559344 -39.266107966814189 16.128931428081039 0 0.87461971476443456 -0.48480960649040278 1 0 0 1 I I 0 1 1 forward I I I I #
face $-1 $146 $147 $51 $-1 $148 reversed single #
loop $-1 $-1 $149 $66 #
plane-surface $-1 -0.49645988034787969 -166.1182396253937 83.984740810930901 1 0 0 0 0.87461971476443456 -0.48480960649040278 forward_v I I I I #
face $-1 $150 $151 $52 $-1 $152 forward single #
loop $-1 $153 $154 $67 #
cone-surface $-1 4.894121495919407 -39.266107966814189 16.128931428081039 0 0.87461971476443456 -0.48480960649040278 1 0 0 1 I I 0 1 1 forward I I I I #
face $-1 $155 $156 $53 $-1 $157 forward single #
loop $-1 $158 $159 $68 #
cone-surface $-1 12.979993560320338 -39.266107966814189 16.128931428081039 0 0.87461971476443456 -0.48480960649040278 1 0 0 1 I I 0 1 1 forward I I I I #
face $-1 $160 $161 $54 $-1 $162 reversed single #
loop $-1 $-1 $163 $69 #
plane-surface $-1 -50.419834897227567 125.99879641112443 156.36213496899555 1 0 0 0 -0.87461971476443456 -0.48480960649040278 forward_v I I I I #
face $-1 $164 $165 $55 $-1 $166 forward single #
loop $-1 $167 $168 $70 #
cone-surface $-1 -45.029253520960282 39.266107966814204 16.128931428081053 0 -0.87461971476443456 -0.48480960649040278 1 0 0 1 I I 0 1 1 forward I I I I #
face $-1 $169 $170 $56 $-1 $171 forward single #
loop $-1 $172 $173 $71 #
cone-surface $-1 -36.943381456559344 39.266107966814204 16.128931428081053 0 -0.87461971476443456 -0.48480960649040278 1 0 0 1 I I 0 1 1 forward I I I I #
face $-1 $174 $175 $57 $-1 $176 reversed single #
loop $-1 $-1 $177 $72 #
plane-surface $-1 -0.49645988034787969 125.99879641112443 156.36213496899555 1 0 0 0 -0.87461971476443456 -0.48480960649040278 forward_v I I I I #
face $-1 $178 $179 $58 $-1 $180 forward single #
loop $-1 $181 $182 $73 #
cone-surface $-1 4.894121495919407 39.266107966814204 16.128931428081053 0 -0.87461971476443456 -0.48480960649040278 1 0 0 1 I I 0 1 1 forward I I I I #
face $-1 $183 $184 $59 $-1 $185 forward single #
loop $-1 $186 $187 $74 #
cone-surface $-1 12.979993560320338 39.266107966814204 16.128931428081053 0 -0.87461971476443456 -0.48480960649040278 1 0 0 1 I I 0 1 1 forward I I I I #
face $-1 $188 $189 $45 $-1 $190 reversed single #
loop $-1 $-1 $191 $75 #
plane-surface $-1 0 0 18.602059347466231 0 0 1 1 0 0 forward_v I I I I #
coedge $-1 $192 $193 $194 $195 reversed $76 $-1 #
face $-1 $196 $197 $46 $-1 $198 reversed single #
loop $-1 $-1 $199 $78 #
plane-surface $-1 -60.865912809800342 0 -1.8935890420019081 0 0 1 1 0 0 forward_v I I I I #
coedge $-1 $200 $201 $202 $203 forward $79 $-1 #
face $-1 $204 $205 $47 $-1 $206 forward single #
loop $-1 $-1 $207 $81 #
plane-surface $-1 0 41.376493655621736 0 0 -1 0 0 0 -1 forward_v I I I I #
coedge $-1 $208 $209 $210 $211 forward $82 $-1 #
face $-1 $212 $213 $48 $-1 $214 reversed single #
loop $-1 $-1 $215 $84 #
plane-surface $-1 -40.986317488759809 -41.376493655621758 14.839264490608983 0 -0.87461971476443456 0.48480960649040278 1 0 0 forward_v I I I I #
coedge $-1 $216 $217 $218 $219 reversed $85 $-1 #
face $-1 $-1 $220 $49 $-1 $221 forward single #
loop $-1 $222 $223 $87 #
cone-surface $-1 -45.029253520960282 -37.76128800590002 15.294796133879267 0 0.87461971476443456 -0.48480960649040278 0.5 0 0 1 I I -0.70710678118654746 0.70710678118654746 0.5 forward I I I I #
loop $-1 $-1 $224 $64 #
coedge $-1 $140 $140 $225 $226 reversed $88 $-1 #
face $-1 $-1 $227 $50 $-1 $228 forward single #
loop $-1 $229 $230 $90 #
cone-surface $-1 -36.943381456559344 -37.76128800590002 15.294796133879267 0 0.87461971476443456 -0.48480960649040278 0.5 0 0 1 I I -0.70710678118654746 0.70710678118654746 0.5 forward I I I I #
loop $-1 $-1 $231 $65 #
coedge $-1 $145 $145 $232 $233 reversed $91 $-1 #
face $-1 $234 $235 $51 $-1 $236 reversed single #
loop $-1 $-1 $237 $93 #
plane-surface $-1 8.9370575281198796 -41.376493655621758 14.839264490608983 0 -0.87461971476443456 0.48480960649040278 1 0 0 forward_v I I I I #
coedge $-1 $238 $239 $240 $241 reversed $94 $-1 #
face $-1 $-1 $242 $52 $-1 $243 forward single #
loop $-1 $244 $245 $96 #
cone-surface $-1 4.894121495919407 -37.76128800590002 15.294796133879267 0 0.87461971476443456 -0.48480960649040278 0.5 0 0 1 I I -0.70710678118654746 0.70710678118654746 0.5 forward I I I I #
loop $-1 $-1 $246 $67 #
coedge $-1 $154 $154 $247 $248 reversed $97 $-1 #
face $-1 $-1 $249 $53 $-1 $250 forward single #
loop $-1 $251 $252 $99 #
cone-surface $-1 12.979993560320338 -37.76128800590002 15.294796133879267 0 0.87461971476443456 -0.48480960649040278 0.5 0 0 1 I I -0.70710678118654746 0.70710678118654746 0.5 forward I I I I #
loop $-1 $-1 $253 $68 #
coedge $-1 $159 $159 $254 $255 reversed $100 $-1 #
face $-1 $256 $257 $54 $-1 $258 reversed single #
loop $-1 $-1 $259 $102 #
plane-surface $-1 -40.986317488759809 1.2570504413524901 87.216658648673629 0 0.87461971476443456 0.48480960649040278 1 0 0 forward_v I I I I #
coedge $-1 $260 $261 $262 $263 reversed $103 $-1 #
face $-1 $-1 $264 $55 $-1 $265 forward single #
loop $-1 $266 $267 $105 #
cone-surface $-1 -45.029253520960282 37.761288005900035 15.294796133879281 0 -0.87461971476443456 -0.48480960649040278 0.5 0 0 1 I I -0.70710678118654746 0.70710678118654746 0.5 forward I I I I #
loop $-1 $-1 $268 $70 #
coedge $-1 $168 $168 $269 $270 reversed $106 $-1 #
face $-1 $-1 $271 $56 $-1 $272 forward single #
loop $-1 $273 $274 $108 #
cone-surface $-1 -36.943381456559344 37.761288005900035 15.294796133879281 0 -0.87461971476443456 -0.48480960649040278 0.5 0 0 1 I I -0.70710678118654746 0.70710678118654746 0.5 forward I I I I #
loop $-1 $-1 $275 $71 #
coedge $-1 $173 $173 $276 $277 reversed $109 $-1 #
face $-1 $278 $279 $57 $-1 $280 reversed single #
loop $-1 $-1 $281 $111 #
plane-surface $-1 8.9370575281198796 1.2570504413524901 87.216658648673629 0 0.87461971476443456 0.48480960649040278 1 0 0 forward_v I I I I #
coedge $-1 $282 $283 $284 $285 reversed $112 $-1 #
face $-1 $-1 $286 $58 $-1 $287 forward single #
loop $-1 $288 $289 $114 #
cone-surface $-1 4.894121495919407 37.761288005900035 15.294796133879281 0 -0.87461971476443456 -0.48480960649040278 0.5 0 0 1 I I -0.70710678118654746 0.70710678118654746 0.5 forward I I I I #
loop $-1 $-1 $290 $73 #
coedge $-1 $182 $182 $291 $292 reversed $115 $-1 #
face $-1 $-1 $293 $59 $-1 $294 forward single #
loop $-1 $295 $296 $117 #
cone-surface $-1 12.979993560320338 37.761288005900035 15.294796133879281 0 -0.87461971476443456 -0.48480960649040278 0.5 0 0 1 I I -0.70710678118654746 0.70710678118654746 0.5 forward I I I I #
loop $-1 $-1 $297 $74 #
coedge $-1 $187 $187 $298 $299 reversed $118 $-1 #
face $-1 $300 $301 $45 $-1 $302 reversed single #
loop $-1 $-1 $303 $120 #
plane-surface $-1 0 0 -18.602059347466231 0 0 1 1 0 0 forward_v I I I I #
coedge $-1 $304 $305 $192 $306 forward $121 $-1 #
coedge $-1 $307 $123 $191 $306 reversed $76 $-1 #
coedge $-1 $123 $307 $303 $308 reversed $76 $-1 #
coedge $-1 $309 $310 $123 $195 forward $311 $-1 #
edge $-1 $312 -18.602059347466231 $313 18.602059347466231 $123 $314 forward 7 unknown #
face $-1 $315 $316 $46 $-1 $317 reversed single #
loop $-1 $-1 $318 $124 #
plane-surface $-1 -50.419834897227574 0 1.5392791689479353 -1 0 0 0 0 1 forward_v I I I I #
coedge $-1 $319 $320 $321 $322 forward $125 $-1 #
coedge $-1 $323 $127 $324 $325 reversed $79 $-1 #
coedge $-1 $127 $323 $326 $327 reversed $79 $-1 #
coedge $-1 $318 $328 $127 $203 reversed $197 $-1 #
edge $-1 $329 -41.376493655621736 $330 41.376493655621736 $202 $331 forward 7 unknown #
face $-1 $332 $333 $47 $-1 $334 reversed single #
loop $-1 $-1 $335 $128 #
plane-surface $-1 82.254528515293771 0 -10.949908473971188 0 0 1 1 0 0 forward_v I I I I #
coedge $-1 $336 $337 $209 $338 forward $129 $-1 #
coedge $-1 $339 $131 $340 $341 reversed $82 $-1 #
coedge $-1 $131 $339 $207 $338 reversed $82 $-1 #
coedge $-1 $342 $343 $131 $211 reversed $333 $-1 #
edge $-1 $344 -41.376493655621736 $345 41.376493655621736 $210 $346 forward 7 unknown #
face $-1 $347 $348 $48 $-1 $349 forward single #
loop $-1 $-1 $350 $132 #
plane-surface $-1 -31.552800080292052 -166.1182396253937 83.984740810930901 -1 0 0 0 -0.87461971476443456 0.48480960649040278 forward_v I I I I #
coedge $-1 $351 $352 $353 $354 reversed $133 $-1 #
coedge $-1 $217 $135 $355 $356 reversed $85 $-1 #
coedge $-1 $135 $216 $351 $357 reversed $85 $-1 #
coedge $-1 $353 $358 $135 $219 forward $359 $-1 #
edge $-1 $360 23.39031105799922 $361 27.153105914856429 $218 $362 forward 7 unknown #
loop $-1 $-1 $225 $136 #
plane-surface $-1 -40.986317488759809 -41.376493655621758 14.839264490608983 0 -0.87461971476443456 0.48480960649040278 1 0 0 forward_v I I I I #
loop $-1 $-1 $363 $87 #
coedge $-1 $223 $223 $224 $364 reversed $137 $-1 #
coedge $-1 $224 $224 $223 $364 forward $139 $-1 #
coedge $-1 $225 $225 $140 $226 forward $220 $-1 #
edge $-1 $365 6.7501203358497052e-016 $365 6.2831853071796013 $225 $366 forward 7 unknown #
loop $-1 $-1 $232 $141 #
plane-surface $-1 -40.986317488759809 -41.376493655621758 14.839264490608983 0 -0.87461971476443456 0.48480960649040278 1 0 0 forward_v I I I I #
loop $-1 $-1 $367 $90 #
coedge $-1 $230 $230 $231 $368 reversed $142 $-1 #
coedge $-1 $231 $231 $230 $368 forward $144 $-1 #
coedge $-1 $232 $232 $145 $233 forward $227 $-1 #
edge $-1 $369 6.7501203358497052e-016 $369 6.2831853071796013 $232 $370 forward 7 unknown #
face $-1 $371 $372 $51 $-1 $373 reversed single #
loop $-1 $-1 $374 $146 #
plane-surface $-1 18.370574936587637 -166.1182396253937 83.984740810930901 -1 0 0 0 -0.87461971476443456 0.48480960649040278 forward_v I I I I #
coedge $-1 $375 $376 $377 $378 reversed $147 $-1 #
coedge $-1 $239 $149 $379 $380 reversed $94 $-1 #
coedge $-1 $149 $238 $375 $381 reversed $94 $-1 #
coedge $-1 $377 $382 $149 $241 forward $372 $-1 #
edge $-1 $383 23.39031105799922 $384 27.153105914856429 $240 $385 forward 7 unknown #
loop $-1 $-1 $247 $150 #
plane-surface $-1 8.9370575281198796 -41.376493655621758 14.839264490608983 0 -0.87461971476443456 0.48480960649040278 1 0 0 forward_v I I I I #
loop $-1 $-1 $386 $96 #
coedge $-1 $245 $245 $246 $387 reversed $151 $-1 #
coedge $-1 $246 $246 $245 $387 forward $153 $-1 #
coedge $-1 $247 $247 $154 $248 forward $242 $-1 #
edge $-1 $388 6.7501203358497052e-016 $388 6.2831853071796013 $247 $389 forward 7 unknown #
loop $-1 $-1 $254 $155 #
plane-surface $-1 8.9370575281198796 -41.376493655621758 14.839264490608983 0 -0.87461971476443456 0.48480960649040278 1 0 0 forward_v I I I I #
loop $-1 $-1 $390 $99 #
coedge $-1 $252 $252 $253 $391 reversed $156 $-1 #
coedge $-1 $253 $253 $252 $391 forward $158 $-1 #
coedge $-1 $254 $254 $159 $255 forward $249 $-1 #
edge $-1 $392 6.7501203358497052e-016 $392 6.2831853071796013 $254 $393 forward 7 unknown #
face $-1 $394 $395 $54 $-1 $396 reversed single #
loop $-1 $-1 $397 $160 #
plane-surface $-1 -31.552800080292052 125.99879641112443 156.36213496899555 -1 0 0 0 0.87461971476443456 0.48480960649040278 forward_v I I I I #
coedge $-1 $398 $399 $400 $401 reversed $161 $-1 #
coedge $-1 $261 $163 $402 $403 reversed $103 $-1 #
coedge $-1 $163 $260 $398 $404 reversed $103 $-1 #
coedge $-1 $400 $405 $163 $263 forward $406 $-1 #
edge $-1 $407 21.622904549940479 $408 23.708655720491684 $262 $409 forward 7 unknown #
loop $-1 $-1 $269 $164 #
plane-surface $-1 -40.986317488759809 1.2570504413524901 87.216658648673629 0 0.87461971476443456 0.48480960649040278 1 0 0 forward_v I I I I #
loop $-1 $-1 $410 $105 #
coedge $-1 $267 $267 $268 $411 reversed $165 $-1 #
coedge $-1 $268 $268 $267 $411 forward $167 $-1 #
coedge $-1 $269 $269 $168 $270 forward $264 $-1 #
edge $-1 $412 1.350024067169941e-015 $412 6.2831853071796022 $269 $413 forward 7 unknown #
loop $-1 $-1 $276 $169 #
plane-surface $-1 -40.986317488759809 1.2570504413524901 87.216658648673629 0 0.87461971476443456 0.48480960649040278 1 0 0 forward_v I I I I #
loop $-1 $-1 $414 $108 #
coedge $-1 $274 $274 $275 $415 reversed $170 $-1 #
coedge $-1 $275 $275 $274 $415 forward $172 $-1 #
coedge $-1 $276 $276 $173 $277 forward $271 $-1 #
edge $-1 $416 1.350024067169941e-015 $416 6.2831853071796022 $276 $417 forward 7 unknown #
face $-1 $418 $419 $57 $-1 $420 reversed single #
loop $-1 $-1 $421 $174 #
plane-surface $-1 18.370574936587637 125.99879641112443 156.36213496899555 -1 0 0 0 0.87461971476443456 0.48480960649040278 forward_v I I I I #
coedge $-1 $422 $423 $424 $425 reversed $175 $-1 #
coedge $-1 $283 $177 $426 $427 reversed $112 $-1 #
coedge $-1 $177 $282 $422 $428 reversed $112 $-1 #
coedge $-1 $424 $429 $177 $285 forward $430 $-1 #
edge $-1 $431 21.622904549940479 $432 23.708655720491684 $284 $433 forward 7 unknown #
loop $-1 $-1 $291 $178 #
plane-surface $-1 8.9370575281198796 1.2570504413524901 87.216658648673629 0 0.87461971476443456 0.48480960649040278 1 0 0 forward_v I I I I #
loop $-1 $-1 $434 $114 #
coedge $-1 $289 $289 $290 $435 reversed $179 $-1 #
coedge $-1 $290 $290 $289 $435 forward $181 $-1 #
coedge $-1 $291 $291 $182 $292 forward $286 $-1 #
edge $-1 $436 1.350024067169941e-015 $436 6.2831853071796022 $291 $437 forward 7 unknown #
loop $-1 $-1 $298 $183 #
plane-surface $-1 8.9370575281198796 1.2570504413524901 87.216658648673629 0 0.87461971476443456 0.48480960649040278 1 0 0 forward_v I I I I #
loop $-1 $-1 $438 $117 #
coedge $-1 $296 $296 $297 $439 reversed $184 $-1 #
coedge $-1 $297 $297 $296 $439 forward $186 $-1 #
coedge $-1 $298 $298 $187 $299 forward $293 $-1 #
edge $-1 $440 1.350024067169941e-015 $440 6.2831853071796022 $298 $441 forward 7 unknown #
face $-1 $442 $443 $45 $-1 $444 reversed single #
loop $-1 $-1 $445 $188 #
plane-surface $-1 0 -41.376493655621736 0 0 1 0 0 0 1 forward_v I I I I #
coedge $-1 $446 $447 $193 $308 forward $189 $-1 #
coedge $-1 $448 $191 $310 $449 forward $121 $-1 #
coedge $-1 $191 $448 $450 $451 forward $121 $-1 #
edge $-1 $452 -41.376493655621736 $312 41.376493655621736 $192 $453 forward 7 unknown #
coedge $-1 $193 $192 $454 $455 forward $76 $-1 #
edge $-1 $313 -41.376493655621736 $456 41.376493655621736 $193 $457 forward 7 unknown #
coedge $-1 $458 $194 $447 $459 reversed $311 $-1 #
coedge $-1 $194 $458 $304 $449 reversed $311 $-1 #
loop $-1 $-1 $194 $442 #
vertex $-1 $306 $460 #
vertex $-1 $308 $461 #
straight-curve $-1 71.31199072237311 41.376493655621736 0 0 0 -1 I I #
face $-1 $462 $463 $46 $-1 $464 reversed single #
loop $-1 $-1 $465 $196 #
plane-surface $-1 0 -41.376493655621736 0 0 1 0 0 0 1 forward_v I I I I #
coedge $-1 $321 $202 $466 $467 reversed $197 $-1 #
coedge $-1 $468 $199 $465 $469 reversed $125 $-1 #
coedge $-1 $199 $468 $470 $471 reversed $125 $-1 #
coedge $-1 $328 $318 $199 $322 reversed $197 $-1 #
edge $-1 $472 -41.376493655621736 $473 41.376493655621736 $321 $474 forward 7 unknown #
coedge $-1 $201 $200 $475 $476 reversed $79 $-1 #
coedge $-1 $477 $478 $200 $325 forward $479 $-1 #
edge $-1 $480 -40.879034317472943 $330 -19.986878492327403 $324 $481 forward 7 unknown #
coedge $-1 $482 $466 $201 $327 forward $316 $-1 #
edge $-1 $329 19.986878492327403 $483 40.879034317472943 $326 $484 forward 7 unknown #
coedge $-1 $202 $321 $477 $485 reversed $197 $-1 #
vertex $-1 $327 $486 #
vertex $-1 $325 $487 #
straight-curve $-1 -50.419834897227574 0 4.9721473798977787 0 1 0 I I #
face $-1 $488 $489 $47 $-1 $490 reversed single #
loop $-1 $-1 $491 $204 #
plane-surface $-1 82.254528515293771 0 -17.906023870086297 0 0 1 1 0 0 forward_v I I I I #
coedge $-1 $492 $493 $494 $495 forward $205 $-1 #
coedge $-1 $496 $207 $492 $497 reversed $129 $-1 #
coedge $-1 $207 $496 $342 $498 reversed $129 $-1 #
edge $-1 $344 -17.906023870086297 $499 -10.949908473971188 $207 $500 forward 7 unknown #
coedge $-1 $209 $208 $501 $502 forward $82 $-1 #
coedge $-1 $503 $504 $208 $341 forward $505 $-1 #
edge $-1 $506 10.949908473971188 $345 17.906023870086297 $340 $507 forward 7 unknown #
coedge $-1 $491 $210 $337 $498 forward $333 $-1 #
coedge $-1 $210 $491 $503 $508 forward $333 $-1 #
vertex $-1 $338 $509 #
vertex $-1 $341 $510 #
straight-curve $-1 71.31199072237311 0 -17.906023870086297 0 -1 0 I I #
face $-1 $-1 $359 $48 $-1 $511 reversed single #
loop $-1 $-1 $512 $212 #
plane-surface $-1 0 0 18.602059347466231 0 0 1 1 0 0 forward_v I I I I #
coedge $-1 $513 $514 $515 $516 reversed $213 $-1 #
coedge $-1 $517 $215 $217 $357 forward $133 $-1 #
coedge $-1 $215 $517 $513 $518 forward $133 $-1 #
coedge $-1 $515 $218 $215 $354 forward $359 $-1 #
edge $-1 $361 -29.926676152847662 $519 -11.059641335912147 $353 $520 forward 7 unknown #
coedge $-1 $521 $522 $216 $356 forward $348 $-1 #
edge $-1 $523 -43.76837732762629 $360 -41.682626157075113 $355 $524 forward 7 unknown #
edge $-1 $361 4.4514345991868243e-014 $523 4.3022067686533907 $217 $525 forward 7 unknown #
coedge $-1 $218 $515 $521 $526 reversed $359 $-1 #
loop $-1 $-1 $515 $347 #
vertex $-1 $526 $527 #
vertex $-1 $219 $528 #
straight-curve $-1 -50.419834897227567 -41.376493655621736 41.992370405465451 0 0 -1 I I #
coedge $-1 $363 $363 $-1 $529 reversed $222 $-1 #
edge $-1 $530 0 $530 6.2831853071796004 $223 $531 forward 7 unknown #
vertex $-1 $226 $532 #
ellipse-curve $-1 -45.029253520960282 -40.333618070346155 16.720661919037617 0 -0.87461971476443456 0.48480960649040278 1 0 0 1 I I #
coedge $-1 $367 $367 $-1 $533 reversed $229 $-1 #
edge $-1 $534 0 $534 6.2831853071796004 $230 $535 forward 7 unknown #
vertex $-1 $233 $536 #
ellipse-curve $-1 -36.943381456559344 -40.333618070346155 16.720661919037617 0 -0.87461971476443456 0.48480960649040278 1 0 0 1 I I #
face $-1 $-1 $537 $51 $-1 $538 forward single #
loop $-1 $-1 $240 $234 #
plane-surface $-1 0 -41.376493655621736 0 0 1 0 0 0 1 forward_v I I I I #
coedge $-1 $539 $540 $541 $542 reversed $235 $-1 #
coedge $-1 $543 $237 $239 $381 forward $147 $-1 #
coedge $-1 $237 $543 $539 $544 forward $147 $-1 #
coedge $-1 $541 $240 $237 $378 forward $372 $-1 #
edge $-1 $384 -4.9649886444078195 $545 13.902046172527697 $377 $546 forward 7 unknown #
coedge $-1 $547 $548 $238 $380 forward $537 $-1 #
edge $-1 $549 -43.76837732762629 $383 -41.682626157075113 $379 $550 forward 7 unknown #
edge $-1 $384 4.4514345991868243e-014 $549 4.3022067686533907 $239 $551 forward 7 unknown #
coedge $-1 $240 $541 $547 $552 reversed $372 $-1 #
vertex $-1 $552 $553 #
vertex $-1 $241 $554 #
straight-curve $-1 -0.49645988034787969 -41.376493655621736 41.992370405465451 0 0 -1 I I #
coedge $-1 $386 $386 $-1 $555 reversed $244 $-1 #
edge $-1 $556 0 $556 6.2831853071796004 $245 $557 forward 7 unknown #
vertex $-1 $248 $558 #
ellipse-curve $-1 4.894121495919407 -40.333618070346155 16.720661919037617 0 -0.87461971476443456 0.48480960649040278 1 0 0 1 I I #
coedge $-1 $390 $390 $-1 $559 reversed $251 $-1 #
edge $-1 $560 0 $560 6.2831853071796004 $252 $561 forward 7 unknown #
vertex $-1 $255 $562 #
ellipse-curve $-1 12.979993560320338 -40.333618070346155 16.720661919037617 0 -0.87461971476443456 0.48480960649040278 1 0 0 1 I I #
face $-1 $-1 $406 $54 $-1 $563 forward single #
loop $-1 $-1 $564 $256 #
plane-surface $-1 0 41.376493655621736 0 0 -1 0 0 0 -1 forward_v I I I I #
coedge $-1 $565 $566 $567 $568 reversed $257 $-1 #
coedge $-1 $569 $259 $261 $404 forward $161 $-1 #
coedge $-1 $259 $569 $565 $570 forward $161 $-1 #
coedge $-1 $567 $262 $259 $401 forward $406 $-1 #
edge $-1 $408 -29.926676152847662 $571 -11.059641335912147 $400 $572 forward 7 unknown #
coedge $-1 $573 $574 $260 $403 forward $395 $-1 #
edge $-1 $575 -63.341802993888791 $407 -59.579008137031543 $402 $576 forward 7 unknown #
edge $-1 $408 78.450780542590081 $575 82.752987311243487 $261 $577 forward 7 unknown #
coedge $-1 $262 $567 $573 $578 forward $406 $-1 #
loop $-1 $-1 $567 $394 #
vertex $-1 $403 $579 #
vertex $-1 $263 $580 #
straight-curve $-1 -50.419834897227567 62.999398205562215 18.602059347466223 0 -1 0 I I #
coedge $-1 $410 $410 $-1 $581 reversed $266 $-1 #
edge $-1 $582 0 $582 6.2831853071796004 $267 $583 forward 7 unknown #
vertex $-1 $270 $584 #
ellipse-curve $-1 -45.029253520960282 40.333618070346127 16.72066191903761 0 0.87461971476443456 0.48480960649040278 1 0 0 1 I I #
coedge $-1 $414 $414 $-1 $585 reversed $273 $-1 #
edge $-1 $586 0 $586 6.2831853071796004 $274 $587 forward 7 unknown #
vertex $-1 $277 $588 #
ellipse-curve $-1 -36.943381456559344 40.333618070346127 16.72066191903761 0 0.87461971476443456 0.48480960649040278 1 0 0 1 I I #
face $-1 $-1 $430 $57 $-1 $589 forward single #
loop $-1 $-1 $590 $278 #
plane-surface $-1 0 41.376493655621736 0 0 -1 0 0 0 -1 forward_v I I I I #
coedge $-1 $591 $592 $593 $594 reversed $279 $-1 #
coedge $-1 $595 $281 $283 $428 forward $175 $-1 #
coedge $-1 $281 $595 $591 $596 forward $175 $-1 #
coedge $-1 $593 $284 $281 $425 forward $430 $-1 #
edge $-1 $432 -4.9649886444078195 $597 13.902046172527697 $424 $598 forward 7 unknown #
coedge $-1 $599 $600 $282 $427 forward $419 $-1 #
edge $-1 $601 -63.341802993888791 $431 -59.579008137031543 $426 $602 forward 7 unknown #
edge $-1 $432 78.450780542590081 $601 82.752987311243487 $283 $603 forward 7 unknown #
coedge $-1 $284 $593 $599 $604 forward $430 $-1 #
loop $-1 $-1 $593 $418 #
vertex $-1 $427 $605 #
vertex $-1 $285 $606 #
straight-curve $-1 -0.49645988034787969 62.999398205562215 18.602059347466223 0 -1 0 I I #
coedge $-1 $434 $434 $-1 $607 reversed $288 $-1 #
edge $-1 $608 0 $608 6.2831853071796004 $289 $609 forward 7 unknown #
vertex $-1 $292 $610 #
ellipse-curve $-1 4.894121495919407 40.333618070346127 16.72066191903761 0 0.87461971476443456 0.48480960649040278 1 0 0 1 I I #
coedge $-1 $438 $438 $-1 $611 reversed $295 $-1 #
edge $-1 $612 0 $612 6.2831853071796004 $296 $613 forward 7 unknown #
vertex $-1 $299 $614 #
ellipse-curve $-1 12.979993560320338 40.333618070346127 16.72066191903761 0 0.87461971476443456 0.48480960649040278 1 0 0 1 I I #
face $-1 $-1 $311 $45 $-1 $615 reversed single #
loop $-1 $-1 $616 $300 #
plane-surface $-1 -71.31199072237311 0 0 1 0 0 0 0 -1 forward_v I I I I #
coedge $-1 $617 $450 $618 $619 forward $301 $-1 #
coedge $-1 $620 $303 $617 $621 forward $189 $-1 #
coedge $-1 $303 $620 $309 $459 forward $189 $-1 #
coedge $-1 $305 $304 $622 $623 forward $121 $-1 #
edge $-1 $312 -71.31199072237311 $624 71.31199072237311 $310 $625 forward 7 unknown #
coedge $-1 $445 $454 $305 $451 reversed $301 $-1 #
edge $-1 $626 -71.31199072237311 $452 71.31199072237311 $450 $627 forward 7 unknown #
vertex $-1 $306 $628 #
straight-curve $-1 71.31199072237311 0 18.602059347466231 0 1 0 I I #
coedge $-1 $450 $617 $307 $455 reversed $301 $-1 #
edge $-1 $452 -18.602059347466231 $456 18.602059347466231 $307 $629 forward 7 unknown #
vertex $-1 $455 $630 #
straight-curve $-1 71.31199072237311 0 -18.602059347466231 0 -1 0 I I #
coedge $-1 $310 $309 $616 $631 reversed $311 $-1 #
edge $-1 $632 -71.31199072237311 $313 71.31199072237311 $309 $633 forward 7 unknown #
point $-1 71.31199072237311 41.376493655621736 18.602059347466231 #
point $-1 71.31199072237311 41.376493655621736 -18.602059347466231 #
face $-1 $-1 $479 $46 $-1 $634 reversed single #
loop $-1 $-1 $635 $315 #
plane-surface $-1 -71.31199072237311 0 0 1 0 0 0 0 -1 forward_v I I I I #
coedge $-1 $466 $482 $319 $469 forward $316 $-1 #
coedge $-1 $326 $465 $318 $467 forward $316 $-1 #
edge $-1 $473 -2.6632286264758758 $329 4.202507795423811 $466 $636 forward 7 unknown #
coedge $-1 $320 $319 $635 $637 reversed $125 $-1 #
edge $-1 $638 -40.879034317472943 $473 -19.986878492327403 $465 $639 forward 7 unknown #
coedge $-1 $478 $477 $320 $471 forward $479 $-1 #
edge $-1 $472 19.986878492327403 $640 40.879034317472943 $470 $641 forward 7 unknown #
vertex $-1 $471 $642 #
vertex $-1 $469 $643 #
straight-curve $-1 -50.419834897227574 0 -1.8935890420019081 0 -1 0 I I #
coedge $-1 $644 $645 $323 $476 forward $463 $-1 #
edge $-1 $483 -41.376493655621736 $480 41.376493655621736 $475 $646 forward 7 unknown #
coedge $-1 $470 $324 $328 $485 forward $479 $-1 #
coedge $-1 $324 $470 $644 $647 reversed $479 $-1 #
loop $-1 $-1 $470 $462 #
vertex $-1 $647 $648 #
straight-curve $-1 -30.432956404900171 41.376493655621736 4.9721473798977787 1 0 0 I I #
coedge $-1 $465 $326 $645 $649 forward $316 $-1 #
vertex $-1 $649 $650 #
straight-curve $-1 -30.432956404900171 -41.376493655621736 4.9721473798977787 -1 0 0 I I #
edge $-1 $330 -4.202507795423811 $472 2.6632286264758758 $477 $651 forward 7 unknown #
point $-1 -50.419834897227574 -41.376493655621736 4.9721473798977787 #
point $-1 -50.419834897227574 41.376493655621736 4.9721473798977787 #
face $-1 $-1 $505 $47 $-1 $652 reversed single #
loop $-1 $-1 $653 $332 #
plane-surface $-1 93.197066308214431 0 -14.427966172028743 -1 0 0 0 0 1 forward_v I I I I #
coedge $-1 $343 $342 $654 $655 forward $333 $-1 #
coedge $-1 $501 $335 $336 $497 forward $205 $-1 #
coedge $-1 $335 $501 $504 $656 forward $205 $-1 #
coedge $-1 $653 $657 $335 $495 reversed $489 $-1 #
edge $-1 $658 -41.376493655621736 $659 41.376493655621736 $494 $660 forward 7 unknown #
coedge $-1 $337 $336 $657 $661 forward $129 $-1 #
edge $-1 $659 -10.94253779292066 $499 10.94253779292066 $336 $662 forward 7 unknown #
edge $-1 $344 -10.94253779292066 $663 10.94253779292066 $337 $664 forward 7 unknown #
vertex $-1 $497 $665 #
straight-curve $-1 71.31199072237311 41.376493655621736 0 0 0 1 I I #
coedge $-1 $493 $492 $339 $502 reversed $205 $-1 #
edge $-1 $506 -41.376493655621736 $499 41.376493655621736 $501 $666 forward 7 unknown #
coedge $-1 $667 $340 $343 $508 reversed $505 $-1 #
coedge $-1 $340 $667 $493 $656 reversed $505 $-1 #
loop $-1 $-1 $340 $488 #
vertex $-1 $341 $668 #
straight-curve $-1 71.31199072237311 -41.376493655621736 0 0 0 -1 I I #
edge $-1 $669 -10.94253779292066 $345 10.94253779292066 $503 $670 forward 7 unknown #
point $-1 71.31199072237311 41.376493655621736 -17.906023870086297 #
point $-1 71.31199072237311 -41.376493655621736 -17.906023870086297 #
plane-surface $-1 0 -41.376493655621736 0 0 1 0 0 0 1 forward_v I I I I #
coedge $-1 $522 $521 $514 $671 forward $348 $-1 #
coedge $-1 $514 $350 $352 $518 reversed $213 $-1 #
coedge $-1 $350 $513 $512 $671 reversed $213 $-1 #
coedge $-1 $358 $353 $350 $516 forward $359 $-1 #
edge $-1 $519 -27.153105914856429 $672 -23.39031105799922 $515 $673 forward 7 unknown #
coedge $-1 $352 $351 $522 $674 reversed $133 $-1 #
edge $-1 $675 -4.3022067686533907 $519 -4.4514345991868243e-014 $513 $676 forward 7 unknown #
vertex $-1 $354 $677 #
straight-curve $-1 -20.493158744379905 -41.376493655621736 14.839264490609013 1 0 0 I I #
coedge $-1 $512 $355 $358 $526 forward $348 $-1 #
coedge $-1 $355 $512 $517 $674 forward $348 $-1 #
vertex $-1 $356 $678 #
straight-curve $-1 -50.419834897227567 -83.059119812696849 18.602059347466231 0 -1 0 I I #
straight-curve $-1 -50.419834897227567 -41.376493655621758 14.839264490608983 0 0.48480960649040278 0.87461971476443456 I I #
edge $-1 $360 -50.419834897227567 $672 -31.552800080292052 $358 $679 forward 7 unknown #
point $-1 -50.419834897227567 -41.376493655621736 18.602059347466231 #
point $-1 -50.419834897227567 -41.376493655621736 14.839264490609022 #
edge $-1 $680 1 $680 0 $363 $-1 forward 7 unknown #
vertex $-1 $364 $681 #
ellipse-curve $-1 -45.029253520960282 -38.198597863282238 15.537200937124467 0 -0.87461971476443456 0.48480960649040278 1 0 0 1 I I #
point $-1 -44.029253520960282 -40.333618070346141 16.72066191903761 #
edge $-1 $682 1 $682 0 $367 $-1 forward 7 unknown #
vertex $-1 $368 $683 #
ellipse-curve $-1 -36.943381456559344 -38.198597863282238 15.537200937124467 0 -0.87461971476443456 0.48480960649040278 1 0 0 1 I I #
point $-1 -35.943381456559344 -40.333618070346141 16.72066191903761 #
loop $-1 $-1 $379 $371 #
plane-surface $-1 0 0 18.602059347466231 0 0 1 1 0 0 forward_v I I I I #
coedge $-1 $540 $374 $376 $544 reversed $235 $-1 #
coedge $-1 $374 $539 $684 $685 reversed $235 $-1 #
coedge $-1 $382 $377 $374 $542 forward $372 $-1 #
edge $-1 $545 -27.153105914856429 $686 -23.39031105799922 $541 $687 forward 7 unknown #
coedge $-1 $376 $375 $548 $688 reversed $147 $-1 #
edge $-1 $689 -4.3022067686533907 $545 -4.4514345991868243e-014 $539 $690 forward 7 unknown #
vertex $-1 $378 $691 #
straight-curve $-1 4.4685287640599398 -41.376493655621736 14.839264490609013 1 0 0 I I #
coedge $-1 $684 $379 $382 $552 forward $537 $-1 #
coedge $-1 $379 $684 $543 $688 forward $537 $-1 #
vertex $-1 $380 $692 #
straight-curve $-1 -0.49645988034787969 -83.059119812696849 18.602059347466231 0 -1 0 I I #
straight-curve $-1 -0.49645988034787969 -41.376493655621758 14.839264490608983 0 0.48480960649040278 0.87461971476443456 I I #
edge $-1 $383 -0.49645988034787969 $686 18.370574936587637 $382 $693 forward 7 unknown #
point $-1 -0.49645988034787969 -41.376493655621736 18.602059347466231 #
point $-1 -0.49645988034787969 -41.376493655621736 14.839264490609022 #
edge $-1 $694 1 $694 0 $386 $-1 forward 7 unknown #
vertex $-1 $387 $695 #
ellipse-curve $-1 4.894121495919407 -38.198597863282238 15.537200937124467 0 -0.87461971476443456 0.48480960649040278 1 0 0 1 I I #
point $-1 5.894121495919407 -40.333618070346141 16.72066191903761 #
edge $-1 $696 1 $696 0 $390 $-1 forward 7 unknown #
vertex $-1 $391 $697 #
ellipse-curve $-1 12.979993560320338 -38.198597863282238 15.537200937124467 0 -0.87461971476443456 0.48480960649040278 1 0 0 1 I I #
point $-1 13.979993560320338 -40.333618070346141 16.72066191903761 #
plane-surface $-1 0 0 18.602059347466231 0 0 1 1 0 0 forward_v I I I I #
coedge $-1 $574 $573 $566 $698 forward $395 $-1 #
coedge $-1 $566 $397 $399 $570 reversed $257 $-1 #
coedge $-1 $397 $565 $564 $698 reversed $257 $-1 #
coedge $-1 $405 $400 $397 $568 forward $406 $-1 #
edge $-1 $571 -23.708655720491684 $699 -21.622904549940479 $567 $700 forward 7 unknown #
coedge $-1 $399 $398 $574 $701 reversed $161 $-1 #
edge $-1 $702 -82.752987311243487 $571 -78.450780542590081 $565 $703 forward 7 unknown #
vertex $-1 $401 $704 #
straight-curve $-1 -20.493158744379905 39.290742485070538 18.602059347466238 1 0 0 I I #
coedge $-1 $564 $402 $405 $578 reversed $395 $-1 #
coedge $-1 $402 $564 $569 $701 forward $395 $-1 #
vertex $-1 $403 $705 #
straight-curve $-1 -50.419834897227567 41.376493655621736 78.181067484497774 0 0 1 I I #
straight-curve $-1 -50.419834897227567 1.2570504413524901 87.216658648673629 0 0.48480960649040278 -0.87461971476443456 I I #
edge $-1 $699 31.552800080292052 $407 50.419834897227567 $573 $706 forward 7 unknown #
point $-1 -50.419834897227567 41.376493655621736 18.602059347466231 #
point $-1 -50.419834897227567 39.290742485070531 18.602059347466238 #
edge $-1 $707 1 $707 0 $410 $-1 forward 7 unknown #
vertex $-1 $411 $708 #
ellipse-curve $-1 -45.029253520960282 38.198597863282252 15.537200937124481 0 0.87461971476443456 0.48480960649040278 1 0 0 1 I I #
point $-1 -44.029253520960282 40.333618070346155 16.720661919037624 #
edge $-1 $709 1 $709 0 $414 $-1 forward 7 unknown #
vertex $-1 $415 $710 #
ellipse-curve $-1 -36.943381456559344 38.198597863282252 15.537200937124481 0 0.87461971476443456 0.48480960649040278 1 0 0 1 I I #
point $-1 -35.943381456559344 40.333618070346155 16.720661919037624 #
plane-surface $-1 0 0 18.602059347466231 0 0 1 1 0 0 forward_v I I I I #
coedge $-1 $600 $599 $592 $711 forward $419 $-1 #
coedge $-1 $592 $421 $423 $596 reversed $279 $-1 #
coedge $-1 $421 $591 $590 $711 reversed $279 $-1 #
coedge $-1 $429 $424 $421 $594 forward $430 $-1 #
edge $-1 $597 -23.708655720491684 $712 -21.622904549940479 $593 $713 forward 7 unknown #
coedge $-1 $423 $422 $600 $714 reversed $175 $-1 #
edge $-1 $715 -82.752987311243487 $597 -78.450780542590081 $591 $716 forward 7 unknown #
vertex $-1 $425 $717 #
straight-curve $-1 4.4685287640599398 39.290742485070538 18.602059347466238 1 0 0 I I #
coedge $-1 $590 $426 $429 $604 reversed $419 $-1 #
coedge $-1 $426 $590 $595 $714 forward $419 $-1 #
vertex $-1 $427 $718 #
straight-curve $-1 -0.49645988034787969 41.376493655621736 78.181067484497774 0 0 1 I I #
straight-curve $-1 -0.49645988034787969 1.2570504413524901 87.216658648673629 0 0.48480960649040278 -0.87461971476443456 I I #
edge $-1 $712 -18.370574936587637 $431 0.49645988034787969 $599 $719 forward 7 unknown #
point $-1 -0.49645988034787969 41.376493655621736 18.602059347466231 #
point $-1 -0.49645988034787969 39.290742485070531 18.602059347466238 #
edge $-1 $720 1 $720 0 $434 $-1 forward 7 unknown #
vertex $-1 $435 $721 #
ellipse-curve $-1 4.894121495919407 38.198597863282252 15.537200937124481 0 0.87461971476443456 0.48480960649040278 1 0 0 1 I I #
point $-1 5.894121495919407 40.333618070346155 16.720661919037624 #
edge $-1 $722 1 $722 0 $438 $-1 forward 7 unknown #
vertex $-1 $439 $723 #
ellipse-curve $-1 12.979993560320338 38.198597863282252 15.537200937124481 0 0.87461971476443456 0.48480960649040278 1 0 0 1 I I #
point $-1 13.979993560320338 40.333618070346155 16.720661919037624 #
plane-surface $-1 0 41.376493655621736 0 0 -1 0 0 0 -1 forward_v I I I I #
coedge $-1 $724 $622 $458 $631 forward $443 $-1 #
coedge $-1 $454 $445 $446 $621 reversed $301 $-1 #
coedge $-1 $622 $724 $445 $619 reversed $443 $-1 #
edge $-1 $626 -18.602059347466231 $725 18.602059347466231 $618 $726 forward 7 unknown #
coedge $-1 $447 $446 $724 $727 forward $189 $-1 #
edge $-1 $456 -71.31199072237311 $725 71.31199072237311 $617 $728 forward 7 unknown #
coedge $-1 $616 $618 $448 $623 reversed $443 $-1 #
edge $-1 $624 -41.376493655621736 $626 41.376493655621736 $622 $729 forward 7 unknown #
vertex $-1 $449 $730 #
straight-curve $-1 0 41.376493655621736 18.602059347466231 -1 0 0 I I #
vertex $-1 $623 $731 #
straight-curve $-1 0 -41.376493655621736 18.602059347466231 1 0 0 I I #
point $-1 71.31199072237311 -41.376493655621736 18.602059347466231 #
straight-curve $-1 71.31199072237311 -41.376493655621736 0 0 0 -1 I I #
point $-1 71.31199072237311 -41.376493655621736 -18.602059347466231 #
edge $-1 $624 -18.602059347466231 $632 18.602059347466231 $458 $732 forward 7 unknown #
vertex $-1 $459 $733 #
straight-curve $-1 0 41.376493655621736 -18.602059347466231 1 0 0 I I #
plane-surface $-1 0 41.376493655621736 0 0 -1 0 0 0 -1 forward_v I I I I #
coedge $-1 $645 $644 $468 $637 forward $463 $-1 #
straight-curve $-1 -50.419834897227574 -41.376493655621736 0.76963958447396763 0 0 1 I I #
edge $-1 $640 -41.376493655621736 $638 41.376493655621736 $635 $734 forward 7 unknown #
vertex $-1 $469 $735 #
straight-curve $-1 -30.432956404900171 -41.376493655621736 -1.8935890420019081 1 0 0 I I #
vertex $-1 $471 $736 #
straight-curve $-1 -30.432956404900171 41.376493655621736 -1.8935890420019081 -1 0 0 I I #
point $-1 -50.419834897227574 41.376493655621736 -1.8935890420019081 #
point $-1 -50.419834897227574 -41.376493655621736 -1.8935890420019081 #
coedge $-1 $635 $475 $478 $647 forward $463 $-1 #
coedge $-1 $475 $635 $482 $649 reversed $463 $-1 #
straight-curve $-1 -71.31199072237311 0 4.9721473798977787 0 1 0 I I #
edge $-1 $480 -4.9721473798977787 $640 1.8935890420019081 $478 $737 forward 7 unknown #
point $-1 -71.31199072237311 41.376493655621736 4.9721473798977787 #
edge $-1 $483 -4.9721473798977787 $638 1.8935890420019081 $645 $738 forward 7 unknown #
point $-1 -71.31199072237311 -41.376493655621736 4.9721473798977787 #
straight-curve $-1 -50.419834897227574 41.376493655621736 0.76963958447396763 0 0 -1 I I #
plane-surface $-1 0 -41.376493655621736 0 0 1 0 0 0 1 forward_v I I I I #
coedge $-1 $654 $494 $667 $739 forward $489 $-1 #
coedge $-1 $657 $653 $491 $655 reversed $489 $-1 #
edge $-1 $663 -41.376493655621736 $669 41.376493655621736 $654 $740 forward 7 unknown #
edge $-1 $506 -10.94253779292066 $658 10.94253779292066 $504 $741 forward 7 unknown #
coedge $-1 $494 $654 $496 $661 reversed $489 $-1 #
vertex $-1 $495 $742 #
vertex $-1 $495 $743 #
straight-curve $-1 93.197066308214431 0 -10.949908473971188 0 1 0 I I #
edge $-1 $659 -3.4780576980575546 $663 3.4780576980575546 $657 $744 forward 7 unknown #
straight-curve $-1 82.254528515293771 41.376493655621736 -10.949908473971188 -1 0 0 I I #
vertex $-1 $655 $745 #
straight-curve $-1 82.254528515293771 41.376493655621736 -17.906023870086297 1 0 0 I I #
point $-1 71.31199072237311 41.376493655621736 -10.949908473971188 #
straight-curve $-1 71.31199072237311 0 -10.949908473971188 0 1 0 I I #
coedge $-1 $504 $503 $653 $739 reversed $505 $-1 #
point $-1 71.31199072237311 -41.376493655621736 -10.949908473971188 #
vertex $-1 $739 $746 #
straight-curve $-1 82.254528515293771 -41.376493655621736 -17.906023870086297 -1 0 0 I I #
edge $-1 $672 41.682626157075113 $675 43.76837732762629 $512 $747 forward 7 unknown #
vertex $-1 $516 $748 #
straight-curve $-1 -31.552800080292052 -41.376493655621736 41.992370405465451 0 0 1 I I #
edge $-1 $675 11.059641335912147 $523 29.926676152847662 $522 $749 forward 7 unknown #
vertex $-1 $674 $750 #
straight-curve $-1 -31.552800080292052 -41.376493655621758 14.839264490608983 0 -0.48480960649040278 -0.87461971476443456 I I #
point $-1 -31.552800080292052 -41.376493655621736 14.839264490609022 #
point $-1 -50.419834897227567 -39.29074248507056 18.602059347466231 #
straight-curve $-1 0 -41.376493655621736 18.602059347466231 1 0 0 I I #
vertex $-1 $529 $751 #
point $-1 -44.029253520960282 -38.198597863282238 15.537200937124467 #
vertex $-1 $533 $752 #
point $-1 -35.943381456559344 -38.198597863282238 15.537200937124467 #
coedge $-1 $548 $547 $540 $685 forward $537 $-1 #
edge $-1 $686 41.682626157075113 $689 43.76837732762629 $684 $753 forward 7 unknown #
vertex $-1 $685 $754 #
straight-curve $-1 18.370574936587637 -41.376493655621736 41.992370405465451 0 0 1 I I #
edge $-1 $689 -13.902046172527697 $549 4.9649886444078195 $548 $755 forward 7 unknown #
vertex $-1 $688 $756 #
straight-curve $-1 18.370574936587637 -41.376493655621758 14.839264490608983 0 -0.48480960649040278 -0.87461971476443456 I I #
point $-1 18.370574936587637 -41.376493655621736 14.839264490609022 #
point $-1 -0.49645988034787969 -39.29074248507056 18.602059347466231 #
straight-curve $-1 0 -41.376493655621736 18.602059347466231 1 0 0 I I #
vertex $-1 $555 $757 #
point $-1 5.894121495919407 -38.198597863282238 15.537200937124467 #
vertex $-1 $559 $758 #
point $-1 13.979993560320338 -38.198597863282238 15.537200937124467 #
edge $-1 $699 59.579008137031543 $702 63.341802993888791 $564 $759 forward 7 unknown #
vertex $-1 $578 $760 #
straight-curve $-1 -31.552800080292052 62.999398205562215 18.602059347466223 0 1 0 I I #
edge $-1 $702 11.059641335912147 $575 29.926676152847662 $574 $761 forward 7 unknown #
vertex $-1 $701 $762 #
straight-curve $-1 -31.552800080292052 1.2570504413524901 87.216658648673629 0 -0.48480960649040278 0.87461971476443456 I I #
point $-1 -31.552800080292052 39.290742485070531 18.602059347466238 #
point $-1 -50.419834897227567 41.376493655621736 14.839264490608983 #
straight-curve $-1 0 41.376493655621736 18.602059347466231 -1 0 0 I I #
vertex $-1 $581 $763 #
point $-1 -44.029253520960282 38.198597863282252 15.537200937124481 #
vertex $-1 $585 $764 #
point $-1 -35.943381456559344 38.198597863282252 15.537200937124481 #
edge $-1 $712 59.579008137031543 $715 63.341802993888791 $590 $765 forward 7 unknown #
vertex $-1 $604 $766 #
straight-curve $-1 18.370574936587637 62.999398205562215 18.602059347466223 0 1 0 I I #
edge $-1 $715 -13.902046172527697 $601 4.9649886444078195 $600 $767 forward 7 unknown #
vertex $-1 $714 $768 #
straight-curve $-1 18.370574936587637 1.2570504413524901 87.216658648673629 0 -0.48480960649040278 0.87461971476443456 I I #
point $-1 18.370574936587637 39.290742485070531 18.602059347466238 #
point $-1 -0.49645988034787969 41.376493655621736 14.839264490608983 #
straight-curve $-1 0 41.376493655621736 18.602059347466231 -1 0 0 I I #
vertex $-1 $607 $769 #
point $-1 5.894121495919407 38.198597863282252 15.537200937124481 #
vertex $-1 $611 $770 #
point $-1 13.979993560320338 38.198597863282252 15.537200937124481 #
coedge $-1 $618 $616 $620 $727 reversed $443 $-1 #
vertex $-1 $727 $771 #
straight-curve $-1 -71.31199072237311 -41.376493655621736 0 0 0 -1 I I #
edge $-1 $725 -41.376493655621736 $632 41.376493655621736 $724 $772 forward 7 unknown #
straight-curve $-1 0 -41.376493655621736 -18.602059347466231 -1 0 0 I I #
straight-curve $-1 -71.31199072237311 0 18.602059347466231 0 -1 0 I I #
point $-1 -71.31199072237311 41.376493655621736 18.602059347466231 #
point $-1 -71.31199072237311 -41.376493655621736 18.602059347466231 #
straight-curve $-1 -71.31199072237311 41.376493655621736 0 0 0 -1 I I #
point $-1 -71.31199072237311 41.376493655621736 -18.602059347466231 #
straight-curve $-1 -71.31199072237311 0 -1.8935890420019081 0 -1 0 I I #
point $-1 -71.31199072237311 -41.376493655621736 -1.8935890420019081 #
point $-1 -71.31199072237311 41.376493655621736 -1.8935890420019081 #
straight-curve $-1 -71.31199072237311 41.376493655621736 0 0 0 -1 I I #
straight-curve $-1 -71.31199072237311 -41.376493655621736 0 0 0 -1 I I #
edge $-1 $658 -3.4780576980575546 $669 3.4780576980575546 $653 $773 forward 7 unknown #
straight-curve $-1 93.197066308214431 0 -17.906023870086297 0 -1 0 I I #
straight-curve $-1 82.254528515293771 -41.376493655621736 -10.949908473971188 1 0 0 I I #
point $-1 93.197066308214431 -41.376493655621736 -10.949908473971188 #
point $-1 93.197066308214431 41.376493655621736 -10.949908473971188 #
straight-curve $-1 93.197066308214431 41.376493655621736 -14.427966172028743 0 0 -1 I I #
point $-1 93.197066308214431 41.376493655621736 -17.906023870086297 #
point $-1 93.197066308214431 -41.376493655621736 -17.906023870086297 #
straight-curve $-1 -31.552800080292052 -83.059119812696849 18.602059347466231 0 1 0 I I #
point $-1 -31.552800080292052 -41.376493655621736 18.602059347466231 #
straight-curve $-1 -20.493158744379905 -39.29074248507056 18.602059347466231 -1 0 0 I I #
point $-1 -31.552800080292052 -39.29074248507056 18.602059347466231 #
point $-1 -45.029253520960282 -37.323978148517803 15.052391330634066 #
point $-1 -36.943381456559344 -37.323978148517803 15.052391330634066 #
straight-curve $-1 18.370574936587637 -83.059119812696849 18.602059347466231 0 1 0 I I #
point $-1 18.370574936587637 -41.376493655621736 18.602059347466231 #
straight-curve $-1 4.4685287640599398 -39.29074248507056 18.602059347466231 -1 0 0 I I #
point $-1 18.370574936587637 -39.29074248507056 18.602059347466231 #
point $-1 4.894121495919407 -37.323978148517803 15.052391330634066 #
point $-1 12.979993560320338 -37.323978148517803 15.052391330634066 #
straight-curve $-1 -31.552800080292052 41.376493655621736 78.181067484497774 0 0 -1 I I #
point $-1 -31.552800080292052 41.376493655621736 18.602059347466231 #
straight-curve $-1 -20.493158744379905 41.376493655621729 14.83926449060899 -1 0 0 I I #
point $-1 -31.552800080292052 41.376493655621736 14.839264490608983 #
point $-1 -45.029253520960282 37.323978148517817 15.05239133063408 #
point $-1 -36.943381456559344 37.323978148517817 15.05239133063408 #
straight-curve $-1 18.370574936587637 41.376493655621736 78.181067484497774 0 0 -1 I I #
point $-1 18.370574936587637 41.376493655621736 18.602059347466231 #
straight-curve $-1 4.4685287640599398 41.376493655621729 14.83926449060899 -1 0 0 I I #
point $-1 18.370574936587637 41.376493655621736 14.839264490608983 #
point $-1 4.894121495919407 37.323978148517817 15.05239133063408 #
point $-1 12.979993560320338 37.323978148517817 15.05239133063408 #
point $-1 -71.31199072237311 -41.376493655621736 -18.602059347466231 #
straight-curve $-1 -71.31199072237311 0 -18.602059347466231 0 1 0 I I #
straight-curve $-1 93.197066308214431 -41.376493655621736 -14.427966172028743 0 0 -1 I I #
End-of-ACIS-data 