500 0 8 0           
7 Unknown 11 ACIS 5.0 NT 24 Fri Mar 26 00:55:48 1999 
-1 9.9999999999999995e-007 1e-010 
body $-1 $8 $-1 $9 #
body $-1 $10 $-1 $11 #
body $-1 $12 $-1 $13 #
body $-1 $14 $-1 $15 #
body $-1 $16 $-1 $17 #
body $-1 $18 $-1 $19 #
body $-1 $20 $-1 $21 #
body $-1 $22 $-1 $23 #
lump $-1 $-1 $24 $0 #
transform $-1 1 0 0 0 1 0 0 0 1 41.407513657032993 28.715713288886832 8.1001149436277995 1 rotate no_reflect no_shear #
lump $-1 $-1 $25 $1 #
transform $-1 1 0 0 0 1 0 0 0 1 41.407513657032993 28.715713288886832 8.1001149436277995 1 rotate no_reflect no_shear #
lump $-1 $-1 $26 $2 #
transform $-1 1 0 0 0 1 0 0 0 1 41.407513657032993 28.715713288886832 8.1001149436277995 1 rotate no_reflect no_shear #
lump $-1 $-1 $27 $3 #
transform $-1 1 0 0 0 1 0 0 0 1 41.407513657032993 28.715713288886832 8.1001149436277995 1 rotate no_reflect no_shear #
lump $-1 $-1 $28 $4 #
transform $-1 1 0 0 0 1 0 0 0 1 41.407513657032993 28.715713288886832 8.1001149436277995 1 rotate no_reflect no_shear #
lump $-1 $-1 $29 $5 #
transform $-1 1 0 0 0 1 0 0 0 1 41.407513657032993 28.715713288886832 8.1001149436277995 1 rotate no_reflect no_shear #
lump $-1 $-1 $30 $6 #
transform $-1 1 0 0 0 1 0 0 0 1 41.407513657032993 28.715713288886832 8.1001149436277995 1 rotate no_reflect no_shear #
lump $-1 $-1 $31 $7 #
transform $-1 1 0 0 0 1 0 0 0 1 41.407513657032993 28.715713288886832 8.1001149436277995 1 rotate no_reflect no_shear #
shell $-1 $-1 $-1 $32 $-1 $8 #
shell $-1 $-1 $-1 $33 $-1 $10 #
shell $-1 $-1 $-1 $34 $-1 $12 #
shell $-1 $-1 $-1 $35 $-1 $14 #
shell $-1 $-1 $-1 $36 $-1 $16 #
shell $-1 $-1 $-1 $37 $-1 $18 #
shell $-1 $-1 $-1 $38 $-1 $20 #
shell $-1 $-1 $-1 $39 $-1 $22 #
face $-1 $40 $41 $24 $-1 $42 forward single #
face $-1 $43 $44 $25 $-1 $45 reversed single #
face $-1 $46 $47 $26 $-1 $48 reversed single #
face $-1 $49 $50 $27 $-1 $51 forward single #
face $-1 $52 $53 $28 $-1 $54 reversed single #
face $-1 $55 $56 $29 $-1 $57 forward single #
face $-1 $58 $59 $30 $-1 $60 reversed single #
face $-1 $61 $62 $31 $-1 $63 forward single #
face $-1 $64 $65 $24 $-1 $66 reversed single #
loop $-1 $-1 $67 $32 #
plane-surface $-1 0 0 8.1001149436277995 0 0 1 1 0 0 forward_v I I I I #
face $-1 $68 $69 $25 $-1 $70 reversed single #
loop $-1 $-1 $71 $33 #
plane-surface $-1 -36.543558652863396 0 3.8417391374227403 0 0 1 1 0 0 forward_v I I I I #
face $-1 $72 $73 $26 $-1 $74 reversed single #
loop $-1 $-1 $75 $34 #
plane-surface $-1 -12.637639327981669 65.257237682047361 96.880629631476353 1 0 0 0 -0.82903758062907751 -0.55919289150049634 forward_v I I I I #
face $-1 $76 $77 $27 $-1 $78 forward single #
loop $-1 $79 $80 $35 #
cone-surface $-1 -5.021563335659998 24.974834734313625 4.1756023347396312 0 -0.82903758062907751 -0.55919289150049634 1.5 0 0 1 I I 0 1 1.5 forward I I I I #
face $-1 $81 $82 $28 $-1 $83 reversed single #
loop $-1 $-1 $84 $36 #
plane-surface $-1 23.905919324881737 65.257237682047361 96.880629631476353 1 0 0 0 -0.82903758062907751 -0.55919289150049634 forward_v I I I I #
face $-1 $85 $86 $29 $-1 $87 forward single #
loop $-1 $88 $89 $37 #
cone-surface $-1 31.521995317203405 24.974834734313625 4.1756023347396312 0 -0.82903758062907751 -0.55919289150049634 1.5 0 0 1 I I 0 1 1.5 forward I I I I #
face $-1 $90 $91 $30 $-1 $92 reversed single #
loop $-1 $-1 $93 $38 #
plane-surface $-1 -3.0435047632509367 -85.195426777110924 64.948253414375642 -1 0 0 0 -0.68199836817093118 0.7313536940579346 forward_v I I I I #
face $-1 $94 $95 $31 $-1 $96 forward single #
loop $-1 $97 $98 $39 #
cone-surface $-1 -11.920153415423421 -26.014150916249424 5.481917145194414 0 0.68199836817093118 -0.7313536940579346 1 0 0 1 I I 0 1 1 forward I I I I #
face $-1 $99 $100 $24 $-1 $101 reversed single #
loop $-1 $-1 $102 $40 #
plane-surface $-1 0 0 -8.1001149436277995 0 0 1 1 0 0 forward_v I I I I #
coedge $-1 $103 $104 $105 $106 forward $41 $-1 #
face $-1 $107 $108 $25 $-1 $109 reversed single #
loop $-1 $-1 $110 $43 #
plane-surface $-1 -31.679603648693799 0 5.9709270405252699 -1 0 0 0 0 1 forward_v I I I I #
coedge $-1 $111 $112 $113 $114 forward $44 $-1 #
face $-1 $115 $116 $26 $-1 $117 reversed single #
loop $-1 $-1 $118 $46 #
plane-surface $-1 -5.021563335659998 -3.3995322021368821 50.571055048031212 0 0.82903758062907751 0.55919289150049634 1 0 0 forward_v I I I I #
coedge $-1 $119 $120 $121 $122 reversed $47 $-1 #
face $-1 $-1 $123 $27 $-1 $124 forward single #
loop $-1 $125 $126 $49 #
cone-surface $-1 -5.021563335659998 22.346295776528649 2.4026304760813719 0 -0.82903758062907751 -0.55919289150049634 0.75 0 0 1 I I -0.70710678118654757 0.70710678118654757 0.75 forward I I I I #
loop $-1 $-1 $127 $35 #
coedge $-1 $80 $80 $128 $129 reversed $50 $-1 #
face $-1 $130 $131 $28 $-1 $132 reversed single #
loop $-1 $-1 $133 $52 #
plane-surface $-1 31.521995317203405 -3.3995322021368821 50.571055048031212 0 0.82903758062907751 0.55919289150049634 1 0 0 forward_v I I I I #
coedge $-1 $134 $135 $136 $137 reversed $53 $-1 #
face $-1 $-1 $138 $29 $-1 $139 forward single #
loop $-1 $140 $141 $55 #
cone-surface $-1 31.521995317203405 22.346295776528649 2.4026304760813719 0 -0.82903758062907751 -0.55919289150049634 0.75 0 0 1 I I -0.70710678118654757 0.70710678118654757 0.75 forward I I I I #
loop $-1 $-1 $142 $37 #
coedge $-1 $89 $89 $143 $144 reversed $56 $-1 #
face $-1 $145 $146 $30 $-1 $147 reversed single #
loop $-1 $-1 $148 $58 #
plane-surface $-1 -11.920153415423417 -28.715713288886825 4.3811772647247267 0 -0.68199836817093118 0.7313536940579346 1 0 0 forward_v I I I I #
coedge $-1 $149 $150 $151 $152 reversed $59 $-1 #
face $-1 $-1 $153 $31 $-1 $154 forward single #
loop $-1 $155 $156 $61 #
cone-surface $-1 -11.920153415423421 -24.965625515897027 4.357511339183592 0 0.68199836817093118 -0.7313536940579346 0.5 0 0 1 I I -0.70710678118654746 0.70710678118654746 0.5 forward I I I I #
loop $-1 $-1 $157 $39 #
coedge $-1 $98 $98 $158 $159 reversed $62 $-1 #
face $-1 $160 $161 $24 $-1 $162 reversed single #
loop $-1 $-1 $163 $64 #
plane-surface $-1 0 -28.715713288886832 0 0 1 0 0 0 1 forward_v I I I I #
coedge $-1 $164 $165 $166 $167 forward $65 $-1 #
coedge $-1 $168 $67 $169 $170 forward $41 $-1 #
coedge $-1 $67 $168 $171 $172 forward $41 $-1 #
coedge $-1 $173 $174 $67 $106 reversed $175 $-1 #
edge $-1 $176 -28.715713288886832 $177 28.715713288886832 $105 $178 forward 7 unknown #
face $-1 $179 $180 $25 $-1 $181 reversed single #
loop $-1 $-1 $182 $68 #
plane-surface $-1 0 28.715713288886832 0 0 -1 0 0 0 -1 forward_v I I I I #
coedge $-1 $113 $183 $184 $185 reversed $69 $-1 #
coedge $-1 $186 $71 $187 $188 reversed $44 $-1 #
coedge $-1 $71 $186 $189 $190 reversed $44 $-1 #
coedge $-1 $191 $110 $71 $114 reversed $69 $-1 #
edge $-1 $192 -28.715713288886832 $193 28.715713288886832 $113 $194 forward 7 unknown #
face $-1 $195 $196 $26 $-1 $197 forward single #
loop $-1 $-1 $198 $72 #
plane-surface $-1 2.5945126566616725 65.257237682047361 96.880629631476353 -1 0 0 0 0.82903758062907751 0.55919289150049634 forward_v I I I I #
coedge $-1 $199 $200 $201 $202 reversed $73 $-1 #
coedge $-1 $120 $75 $203 $204 reversed $47 $-1 #
coedge $-1 $75 $119 $199 $205 reversed $47 $-1 #
coedge $-1 $201 $206 $75 $122 forward $196 $-1 #
edge $-1 $207 3.9129055521368485 $208 7.3811411166569343 $121 $209 forward 7 unknown #
loop $-1 $-1 $128 $76 #
plane-surface $-1 -5.021563335659998 -3.3995322021368821 50.571055048031212 0 0.82903758062907751 0.55919289150049634 1 0 0 forward_v I I I I #
loop $-1 $-1 $210 $49 #
coedge $-1 $126 $126 $127 $211 reversed $77 $-1 #
coedge $-1 $127 $127 $126 $211 forward $79 $-1 #
coedge $-1 $128 $128 $80 $129 forward $123 $-1 #
edge $-1 $212 1.1762030698254583e-015 $212 6.2831853071796013 $128 $213 forward 7 unknown #
face $-1 $214 $215 $28 $-1 $216 forward single #
loop $-1 $-1 $217 $81 #
plane-surface $-1 39.138071309525074 65.257237682047361 96.880629631476353 -1 0 0 0 0.82903758062907751 0.55919289150049634 forward_v I I I I #
coedge $-1 $218 $219 $220 $221 reversed $82 $-1 #
coedge $-1 $135 $84 $222 $223 reversed $53 $-1 #
coedge $-1 $84 $134 $218 $224 reversed $53 $-1 #
coedge $-1 $220 $225 $84 $137 forward $215 $-1 #
edge $-1 $226 3.9129055521368485 $227 7.3811411166569343 $136 $228 forward 7 unknown #
loop $-1 $-1 $143 $85 #
plane-surface $-1 31.521995317203405 -3.3995322021368821 50.571055048031212 0 0.82903758062907751 0.55919289150049634 1 0 0 forward_v I I I I #
loop $-1 $-1 $229 $55 #
coedge $-1 $141 $141 $142 $230 reversed $86 $-1 #
coedge $-1 $142 $142 $141 $230 forward $88 $-1 #
coedge $-1 $143 $143 $89 $144 forward $138 $-1 #
edge $-1 $231 1.1762030698254583e-015 $231 6.2831853071796013 $143 $232 forward 7 unknown #
face $-1 $233 $234 $30 $-1 $235 reversed single #
loop $-1 $-1 $236 $90 #
plane-surface $-1 -20.796802067595898 -85.195426777110924 64.948253414375642 1 0 0 0 0.68199836817093118 -0.7313536940579346 forward_v I I I I #
coedge $-1 $237 $238 $239 $240 reversed $91 $-1 #
coedge $-1 $150 $93 $241 $242 reversed $59 $-1 #
coedge $-1 $93 $149 $237 $243 reversed $59 $-1 #
coedge $-1 $239 $244 $93 $152 forward $245 $-1 #
edge $-1 $246 13.88200009966863 $247 17.870072412409591 $151 $248 forward 7 unknown #
loop $-1 $-1 $158 $94 #
plane-surface $-1 -11.920153415423417 -28.715713288886825 4.3811772647247267 0 -0.68199836817093118 0.7313536940579346 1 0 0 forward_v I I I I #
loop $-1 $-1 $249 $61 #
coedge $-1 $156 $156 $157 $250 reversed $95 $-1 #
coedge $-1 $157 $157 $156 $250 forward $97 $-1 #
coedge $-1 $158 $158 $98 $159 forward $153 $-1 #
edge $-1 $251 -9.5642691568094888e-016 $251 6.2831853071795996 $158 $252 forward 7 unknown #
face $-1 $253 $254 $24 $-1 $255 reversed single #
loop $-1 $-1 $256 $99 #
plane-surface $-1 -41.407513657032993 0 0 1 0 0 0 0 -1 forward_v I I I I #
coedge $-1 $257 $171 $258 $259 forward $100 $-1 #
coedge $-1 $260 $102 $257 $261 forward $65 $-1 #
coedge $-1 $102 $260 $262 $263 forward $65 $-1 #
coedge $-1 $174 $173 $102 $167 reversed $175 $-1 #
edge $-1 $264 -28.715713288886832 $265 28.715713288886832 $166 $266 forward 7 unknown #
coedge $-1 $104 $103 $267 $268 forward $41 $-1 #
coedge $-1 $269 $270 $103 $170 reversed $254 $-1 #
edge $-1 $177 -41.407513657032993 $271 41.407513657032993 $169 $272 forward 7 unknown #
coedge $-1 $163 $273 $104 $172 reversed $100 $-1 #
edge $-1 $274 -41.407513657032993 $176 41.407513657032993 $171 $275 forward 7 unknown #
coedge $-1 $166 $105 $273 $276 forward $175 $-1 #
coedge $-1 $105 $166 $269 $277 reversed $175 $-1 #
loop $-1 $-1 $173 $253 #
vertex $-1 $106 $278 #
vertex $-1 $106 $279 #
straight-curve $-1 41.407513657032993 0 8.1001149436277995 0 1 0 I I #
face $-1 $280 $281 $25 $-1 $282 forward single #
loop $-1 $-1 $283 $107 #
plane-surface $-1 -41.407513657032993 0 0 1 0 0 0 0 -1 forward_v I I I I #
coedge $-1 $189 $284 $191 $285 forward $108 $-1 #
coedge $-1 $110 $191 $286 $287 reversed $69 $-1 #
coedge $-1 $288 $187 $110 $185 forward $289 $-1 #
edge $-1 $193 0.85627561716010536 $290 5.1146514233651645 $184 $291 forward 7 unknown #
coedge $-1 $112 $111 $283 $292 reversed $44 $-1 #
coedge $-1 $184 $293 $111 $188 forward $289 $-1 #
edge $-1 $294 -23.135734330601295 $193 -13.407824322262101 $187 $295 forward 7 unknown #
coedge $-1 $296 $182 $112 $190 forward $108 $-1 #
edge $-1 $192 13.407824322262101 $297 23.135734330601295 $189 $298 forward 7 unknown #
coedge $-1 $183 $113 $182 $285 reversed $69 $-1 #
vertex $-1 $190 $299 #
vertex $-1 $188 $300 #
straight-curve $-1 -31.679603648693799 0 3.8417391374227403 0 -1 0 I I #
face $-1 $-1 $301 $26 $-1 $302 reversed single #
loop $-1 $-1 $121 $115 #
plane-surface $-1 0 0 8.1001149436277995 0 0 1 1 0 0 forward_v I I I I #
coedge $-1 $303 $304 $305 $306 reversed $116 $-1 #
coedge $-1 $307 $118 $120 $205 forward $73 $-1 #
coedge $-1 $118 $307 $303 $308 forward $73 $-1 #
coedge $-1 $305 $121 $118 $202 forward $196 $-1 #
edge $-1 $208 -10.12685766015167 $309 5.1052943244916715 $201 $310 forward 7 unknown #
coedge $-1 $311 $312 $119 $204 forward $301 $-1 #
edge $-1 $313 -45.482070709820945 $207 -40.340199872110375 $203 $314 forward 7 unknown #
edge $-1 $208 51.229209744842045 $313 57.431426577773664 $120 $315 forward 7 unknown #
coedge $-1 $121 $305 $311 $316 forward $196 $-1 #
vertex $-1 $204 $317 #
vertex $-1 $122 $318 #
straight-curve $-1 -12.637639327981669 32.62861884102368 8.1001149436278013 0 -1 0 I I #
coedge $-1 $210 $210 $-1 $319 reversed $125 $-1 #
edge $-1 $320 0 $320 6.2831853071796004 $126 $321 forward 7 unknown #
vertex $-1 $129 $322 #
ellipse-curve $-1 -5.021563335659998 26.981595506626789 5.5291795247725162 0 0.82903758062907751 0.55919289150049634 1.5 0 0 1 I I #
face $-1 $-1 $323 $28 $-1 $324 reversed single #
loop $-1 $-1 $136 $130 #
plane-surface $-1 0 0 8.1001149436277995 0 0 1 1 0 0 forward_v I I I I #
coedge $-1 $325 $326 $327 $328 reversed $131 $-1 #
coedge $-1 $329 $133 $135 $224 forward $82 $-1 #
coedge $-1 $133 $329 $325 $330 forward $82 $-1 #
coedge $-1 $327 $136 $133 $221 forward $215 $-1 #
edge $-1 $227 8.1449216662800339 $331 23.377073650923371 $220 $332 forward 7 unknown #
coedge $-1 $333 $334 $134 $223 forward $323 $-1 #
edge $-1 $335 -45.482070709820945 $226 -40.340199872110375 $222 $336 forward 7 unknown #
edge $-1 $227 51.229209744842045 $335 57.431426577773664 $135 $337 forward 7 unknown #
coedge $-1 $136 $327 $333 $338 forward $215 $-1 #
vertex $-1 $137 $339 #
vertex $-1 $137 $340 #
straight-curve $-1 23.905919324881737 32.62861884102368 8.1001149436278013 0 -1 0 I I #
coedge $-1 $229 $229 $-1 $341 reversed $140 $-1 #
edge $-1 $342 0 $342 6.2831853071796004 $141 $343 forward 7 unknown #
vertex $-1 $144 $344 #
ellipse-curve $-1 31.521995317203405 26.981595506626789 5.5291795247725162 0 0.82903758062907751 0.55919289150049634 1.5 0 0 1 I I #
face $-1 $-1 $245 $30 $-1 $345 forward single #
loop $-1 $-1 $346 $145 #
plane-surface $-1 0 -28.715713288886832 0 0 1 0 0 0 1 forward_v I I I I #
coedge $-1 $347 $348 $349 $350 reversed $146 $-1 #
coedge $-1 $351 $148 $150 $243 forward $91 $-1 #
coedge $-1 $148 $351 $347 $352 forward $91 $-1 #
coedge $-1 $349 $151 $148 $240 forward $245 $-1 #
edge $-1 $247 -2.9165719444607721 $353 14.83672535988419 $239 $354 forward 7 unknown #
coedge $-1 $355 $356 $149 $242 forward $234 $-1 #
edge $-1 $357 -28.092949442463102 $246 -24.37401176356002 $241 $358 forward 7 unknown #
edge $-1 $247 -5.4530008464345538 $357 9.4367341760026555e-015 $150 $359 forward 7 unknown #
coedge $-1 $151 $349 $355 $360 forward $245 $-1 #
loop $-1 $-1 $349 $233 #
vertex $-1 $242 $361 #
vertex $-1 $152 $362 #
straight-curve $-1 -3.0435047632509367 -42.597713388555462 8.1001149436278013 0 1 0 I I #
coedge $-1 $249 $249 $-1 $363 reversed $155 $-1 #
edge $-1 $364 0 $364 6.2831853071796004 $156 $365 forward 7 unknown #
vertex $-1 $159 $366 #
ellipse-curve $-1 -11.920153415423421 -26.721677132516348 6.2406461041762613 0 -0.68199836817093118 0.7313536940579346 1 0 0 1 I I #
face $-1 $-1 $175 $24 $-1 $367 reversed single #
loop $-1 $-1 $269 $160 #
plane-surface $-1 0 28.715713288886832 0 0 -1 0 0 0 -1 forward_v I I I I #
coedge $-1 $368 $267 $270 $369 forward $161 $-1 #
coedge $-1 $273 $163 $164 $261 reversed $100 $-1 #
coedge $-1 $267 $368 $163 $259 reversed $161 $-1 #
edge $-1 $274 -8.1001149436277995 $370 8.1001149436277995 $258 $371 forward 7 unknown #
coedge $-1 $165 $164 $368 $372 forward $65 $-1 #
edge $-1 $265 -41.407513657032993 $370 41.407513657032993 $257 $373 forward 7 unknown #
coedge $-1 $270 $269 $165 $263 reversed $254 $-1 #
edge $-1 $374 -41.407513657032993 $264 41.407513657032993 $262 $375 forward 7 unknown #
vertex $-1 $167 $376 #
vertex $-1 $276 $377 #
straight-curve $-1 41.407513657032993 0 -8.1001149436277995 0 -1 0 I I #
coedge $-1 $256 $258 $168 $268 reversed $161 $-1 #
edge $-1 $271 -28.715713288886832 $274 28.715713288886832 $267 $378 forward 7 unknown #
coedge $-1 $262 $169 $174 $277 forward $254 $-1 #
coedge $-1 $169 $262 $256 $369 reversed $254 $-1 #
vertex $-1 $170 $379 #
straight-curve $-1 0 28.715713288886832 8.1001149436277995 -1 0 0 I I #
coedge $-1 $171 $257 $173 $276 reversed $100 $-1 #
vertex $-1 $268 $380 #
straight-curve $-1 0 -28.715713288886832 8.1001149436277995 1 0 0 I I #
edge $-1 $176 -8.1001149436277995 $265 8.1001149436277995 $173 $381 forward 7 unknown #
edge $-1 $177 -8.1001149436277995 $264 8.1001149436277995 $174 $382 forward 7 unknown #
point $-1 41.407513657032993 -28.715713288886832 8.1001149436277995 #
point $-1 41.407513657032993 28.715713288886832 8.1001149436277995 #
face $-1 $-1 $289 $25 $-1 $383 reversed single #
loop $-1 $-1 $286 $179 #
plane-surface $-1 0 0 8.1001149436277995 0 0 1 1 0 0 forward_v I I I I #
coedge $-1 $384 $385 $186 $292 forward $180 $-1 #
coedge $-1 $182 $296 $386 $387 reversed $108 $-1 #
edge $-1 $388 -5.1146514233651645 $192 -0.85627561716010536 $182 $389 forward 7 unknown #
coedge $-1 $386 $390 $183 $287 forward $281 $-1 #
edge $-1 $290 -28.715713288886832 $388 28.715713288886832 $286 $391 forward 7 unknown #
coedge $-1 $293 $184 $390 $392 reversed $289 $-1 #
loop $-1 $-1 $184 $280 #
vertex $-1 $185 $393 #
straight-curve $-1 -31.679603648693799 -28.715713288886832 2.985463520262635 0 0 1 I I #
edge $-1 $297 -28.715713288886832 $294 28.715713288886832 $283 $394 forward 7 unknown #
coedge $-1 $187 $288 $384 $395 forward $289 $-1 #
vertex $-1 $292 $396 #
straight-curve $-1 -18.271779326431698 -28.715713288886832 3.8417391374227403 1 0 0 I I #
coedge $-1 $284 $189 $385 $397 reversed $108 $-1 #
vertex $-1 $292 $398 #
straight-curve $-1 -18.271779326431698 28.715713288886832 3.8417391374227403 -1 0 0 I I #
point $-1 -31.679603648693799 28.715713288886832 3.8417391374227403 #
point $-1 -31.679603648693799 -28.715713288886832 3.8417391374227403 #
loop $-1 $-1 $203 $195 #
plane-surface $-1 0 28.715713288886832 0 0 -1 0 0 0 -1 forward_v I I I I #
coedge $-1 $304 $198 $200 $308 reversed $116 $-1 #
coedge $-1 $198 $303 $399 $400 reversed $116 $-1 #
coedge $-1 $206 $201 $198 $306 forward $196 $-1 #
edge $-1 $309 -7.3811411166569343 $401 -3.9129055521368485 $305 $402 forward 7 unknown #
coedge $-1 $200 $199 $312 $403 reversed $73 $-1 #
edge $-1 $404 -57.431426577773664 $309 -51.229209744842045 $303 $405 forward 7 unknown #
vertex $-1 $202 $406 #
straight-curve $-1 -2.510781667829999 25.247477724366746 8.1001149436278013 1 0 0 I I #
coedge $-1 $399 $203 $206 $316 reversed $301 $-1 #
coedge $-1 $203 $399 $307 $403 forward $301 $-1 #
vertex $-1 $204 $407 #
straight-curve $-1 -12.637639327981669 28.715713288886832 48.440314815738176 0 0 1 I I #
straight-curve $-1 -12.637639327981669 -3.3995322021368821 50.571055048031212 0 0.55919289150049634 -0.82903758062907751 I I #
edge $-1 $401 -2.5945126566616725 $207 12.637639327981669 $311 $408 forward 7 unknown #
point $-1 -12.637639327981669 28.715713288886832 8.1001149436277995 #
point $-1 -12.637639327981669 25.247477724366746 8.1001149436278013 #
edge $-1 $409 1 $409 0 $210 $-1 forward 7 unknown #
vertex $-1 $211 $410 #
ellipse-curve $-1 -5.021563335659998 22.968073962000457 2.8220251447067444 0 0.82903758062907751 0.55919289150049634 1.5 0 0 1 I I #
point $-1 -3.521563335659998 26.981595506626796 5.5291795247725188 #
loop $-1 $-1 $222 $214 #
plane-surface $-1 0 28.715713288886832 0 0 -1 0 0 0 -1 forward_v I I I I #
coedge $-1 $326 $217 $219 $330 reversed $131 $-1 #
coedge $-1 $217 $325 $411 $412 reversed $131 $-1 #
coedge $-1 $225 $220 $217 $328 forward $215 $-1 #
edge $-1 $331 -7.3811411166569343 $413 -3.9129055521368485 $327 $414 forward 7 unknown #
coedge $-1 $219 $218 $334 $415 reversed $82 $-1 #
edge $-1 $416 -57.431426577773664 $331 -51.229209744842045 $325 $417 forward 7 unknown #
vertex $-1 $221 $418 #
straight-curve $-1 15.760997658601703 25.247477724366746 8.1001149436278013 1 0 0 I I #
coedge $-1 $411 $222 $225 $338 reversed $323 $-1 #
coedge $-1 $222 $411 $329 $415 forward $323 $-1 #
vertex $-1 $223 $419 #
straight-curve $-1 23.905919324881737 28.715713288886832 48.440314815738176 0 0 1 I I #
straight-curve $-1 23.905919324881737 -3.3995322021368821 50.571055048031212 0 0.55919289150049634 -0.82903758062907751 I I #
edge $-1 $413 -39.138071309525074 $226 -23.905919324881737 $333 $420 forward 7 unknown #
point $-1 23.905919324881737 28.715713288886832 8.1001149436277995 #
point $-1 23.905919324881737 25.247477724366746 8.1001149436278013 #
edge $-1 $421 1 $421 0 $229 $-1 forward 7 unknown #
vertex $-1 $230 $422 #
ellipse-curve $-1 31.521995317203405 22.968073962000457 2.8220251447067444 0 0.82903758062907751 0.55919289150049634 1.5 0 0 1 I I #
point $-1 33.021995317203405 26.981595506626796 5.5291795247725188 #
plane-surface $-1 0 0 8.1001149436277995 0 0 1 1 0 0 forward_v I I I I #
coedge $-1 $356 $355 $348 $423 forward $234 $-1 #
coedge $-1 $348 $236 $238 $352 reversed $146 $-1 #
coedge $-1 $236 $347 $346 $423 reversed $146 $-1 #
coedge $-1 $244 $239 $236 $350 forward $245 $-1 #
edge $-1 $353 -17.870072412409591 $424 -13.88200009966863 $349 $425 forward 7 unknown #
coedge $-1 $238 $237 $356 $426 reversed $91 $-1 #
edge $-1 $427 -9.4367341760026555e-015 $353 5.4530008464345538 $347 $428 forward 7 unknown #
vertex $-1 $240 $429 #
straight-curve $-1 -5.9600767077117087 -24.727640976145867 8.1001149436278013 -1 0 0 I I #
coedge $-1 $346 $241 $244 $360 reversed $234 $-1 #
coedge $-1 $241 $346 $351 $426 forward $234 $-1 #
vertex $-1 $242 $430 #
straight-curve $-1 -3.0435047632509367 -28.715713288886832 32.474126707187821 0 0 1 I I #
straight-curve $-1 -3.0435047632509367 -28.715713288886825 4.3811772647247267 0 -0.7313536940579346 -0.68199836817093118 I I #
edge $-1 $424 -20.796802067595898 $246 -3.0435047632509367 $355 $431 forward 7 unknown #
point $-1 -3.0435047632509367 -28.715713288886832 8.1001149436277995 #
point $-1 -3.0435047632509367 -24.727640976145871 8.1001149436277995 #
edge $-1 $432 1 $432 0 $249 $-1 forward 7 unknown #
vertex $-1 $250 $433 #
ellipse-curve $-1 -11.920153415423421 -25.306624699982493 4.7231881862125595 0 -0.68199836817093118 0.7313536940579346 1 0 0 1 I I #
point $-1 -10.920153415423421 -26.721677132516355 6.2406461041762675 #
plane-surface $-1 41.407513657032993 0 0 -1 0 0 0 0 1 forward_v I I I I #
coedge $-1 $258 $256 $260 $372 reversed $161 $-1 #
edge $-1 $271 -8.1001149436277995 $374 8.1001149436277995 $270 $434 forward 7 unknown #
vertex $-1 $372 $435 #
straight-curve $-1 -41.407513657032993 -28.715713288886832 0 0 0 -1 I I #
edge $-1 $370 -28.715713288886832 $374 28.715713288886832 $368 $436 forward 7 unknown #
straight-curve $-1 0 -28.715713288886832 -8.1001149436277995 -1 0 0 I I #
vertex $-1 $263 $437 #
straight-curve $-1 0 28.715713288886832 -8.1001149436277995 1 0 0 I I #
point $-1 41.407513657032993 28.715713288886832 -8.1001149436277995 #
point $-1 41.407513657032993 -28.715713288886832 -8.1001149436277995 #
straight-curve $-1 -41.407513657032993 0 8.1001149436277995 0 -1 0 I I #
point $-1 -41.407513657032993 28.715713288886832 8.1001149436277995 #
point $-1 -41.407513657032993 -28.715713288886832 8.1001149436277995 #
straight-curve $-1 41.407513657032993 -28.715713288886832 0 0 0 -1 I I #
straight-curve $-1 41.407513657032993 28.715713288886832 0 0 0 -1 I I #
plane-surface $-1 0 -28.715713288886832 0 0 1 0 0 0 1 forward_v I I I I #
coedge $-1 $438 $283 $293 $395 reversed $180 $-1 #
coedge $-1 $283 $438 $296 $397 forward $180 $-1 #
coedge $-1 $439 $286 $284 $387 forward $281 $-1 #
edge $-1 $388 31.679603648693799 $440 41.407513657032993 $284 $441 forward 7 unknown #
vertex $-1 $387 $442 #
straight-curve $-1 -31.679603648693799 28.715713288886832 2.985463520262635 0 0 -1 I I #
coedge $-1 $286 $439 $288 $392 forward $281 $-1 #
straight-curve $-1 -31.679603648693799 0 8.1001149436277995 0 1 0 I I #
edge $-1 $443 -41.407513657032993 $290 -31.679603648693799 $288 $444 forward 7 unknown #
point $-1 -31.679603648693799 -28.715713288886832 8.1001149436277995 #
straight-curve $-1 -41.407513657032993 0 3.8417391374227403 0 -1 0 I I #
edge $-1 $443 -8.1001149436277995 $294 -3.8417391374227403 $384 $445 forward 7 unknown #
point $-1 -41.407513657032993 -28.715713288886832 3.8417391374227403 #
edge $-1 $440 -8.1001149436277995 $297 -3.8417391374227403 $296 $446 forward 7 unknown #
point $-1 -41.407513657032993 28.715713288886832 3.8417391374227403 #
coedge $-1 $312 $311 $304 $400 forward $301 $-1 #
edge $-1 $401 40.340199872110375 $404 45.482070709820945 $399 $447 forward 7 unknown #
vertex $-1 $316 $448 #
straight-curve $-1 2.5945126566616725 32.62861884102368 8.1001149436278013 0 1 0 I I #
edge $-1 $404 -5.1052943244916715 $313 10.12685766015167 $312 $449 forward 7 unknown #
vertex $-1 $403 $450 #
straight-curve $-1 2.5945126566616725 -3.3995322021368821 50.571055048031212 0 -0.55919289150049634 0.82903758062907751 I I #
point $-1 2.5945126566616725 25.247477724366746 8.1001149436278013 #
point $-1 -12.637639327981669 28.715713288886832 2.9582441059172311 #
straight-curve $-1 0 28.715713288886832 8.1001149436277995 -1 0 0 I I #
vertex $-1 $319 $451 #
point $-1 -3.521563335659998 22.968073962000457 2.8220251447067444 #
coedge $-1 $334 $333 $326 $412 forward $323 $-1 #
edge $-1 $413 40.340199872110375 $416 45.482070709820945 $411 $452 forward 7 unknown #
vertex $-1 $338 $453 #
straight-curve $-1 39.138071309525074 32.62861884102368 8.1001149436278013 0 1 0 I I #
edge $-1 $416 -23.377073650923371 $335 -8.1449216662800339 $334 $454 forward 7 unknown #
vertex $-1 $415 $455 #
straight-curve $-1 39.138071309525074 -3.3995322021368821 50.571055048031212 0 -0.55919289150049634 0.82903758062907751 I I #
point $-1 39.138071309525074 25.247477724366746 8.1001149436278013 #
point $-1 23.905919324881737 28.715713288886832 2.9582441059172311 #
straight-curve $-1 0 28.715713288886832 8.1001149436277995 -1 0 0 I I #
vertex $-1 $341 $456 #
point $-1 33.021995317203405 22.968073962000457 2.8220251447067444 #
edge $-1 $424 24.37401176356002 $427 28.092949442463102 $346 $457 forward 7 unknown #
vertex $-1 $360 $458 #
straight-curve $-1 -20.796802067595898 -42.597713388555462 8.1001149436278013 0 -1 0 I I #
edge $-1 $427 -14.83672535988419 $357 2.9165719444607721 $356 $459 forward 7 unknown #
vertex $-1 $426 $460 #
straight-curve $-1 -20.796802067595898 -28.715713288886825 4.3811772647247267 0 0.7313536940579346 0.68199836817093118 I I #
point $-1 -20.796802067595898 -24.727640976145871 8.1001149436277995 #
point $-1 -3.0435047632509367 -28.715713288886832 4.3811772647247205 #
straight-curve $-1 0 -28.715713288886832 8.1001149436277995 1 0 0 I I #
vertex $-1 $363 $461 #
point $-1 -10.920153415423421 -25.306624699982493 4.7231881862125595 #
straight-curve $-1 -41.407513657032993 28.715713288886832 0 0 0 -1 I I #
point $-1 -41.407513657032993 -28.715713288886832 -8.1001149436277995 #
straight-curve $-1 -41.407513657032993 0 -8.1001149436277995 0 1 0 I I #
point $-1 -41.407513657032993 28.715713288886832 -8.1001149436277995 #
coedge $-1 $385 $384 $439 $462 reversed $180 $-1 #
coedge $-1 $390 $386 $438 $462 forward $281 $-1 #
vertex $-1 $387 $463 #
straight-curve $-1 0 28.715713288886832 8.1001149436277995 -1 0 0 I I #
point $-1 -31.679603648693799 28.715713288886832 8.1001149436277995 #
vertex $-1 $462 $464 #
straight-curve $-1 0 -28.715713288886832 8.1001149436277995 1 0 0 I I #
straight-curve $-1 -41.407513657032993 -28.715713288886832 0 0 0 -1 I I #
straight-curve $-1 -41.407513657032993 28.715713288886832 0 0 0 -1 I I #
straight-curve $-1 2.5945126566616725 28.715713288886832 48.440314815738176 0 0 -1 I I #
point $-1 2.5945126566616725 28.715713288886832 8.1001149436277995 #
straight-curve $-1 -2.510781667829999 28.715713288886832 2.9582441059172275 -1 0 0 I I #
point $-1 2.5945126566616725 28.715713288886832 2.9582441059172311 #
point $-1 -5.021563335659998 21.724517591056841 1.9832358074559997 #
straight-curve $-1 39.138071309525074 28.715713288886832 48.440314815738176 0 0 -1 I I #
point $-1 39.138071309525074 28.715713288886832 8.1001149436277995 #
straight-curve $-1 15.760997658601703 28.715713288886832 2.9582441059172275 -1 0 0 I I #
point $-1 39.138071309525074 28.715713288886832 2.9582441059172311 #
point $-1 31.521995317203405 21.724517591056841 1.9832358074559997 #
straight-curve $-1 -20.796802067595898 -28.715713288886832 32.474126707187821 0 0 -1 I I #
point $-1 -20.796802067595898 -28.715713288886832 8.1001149436277995 #
straight-curve $-1 -5.9600767077117087 -28.715713288886832 4.3811772647247214 1 0 0 I I #
point $-1 -20.796802067595898 -28.715713288886832 4.3811772647247205 #
point $-1 -11.920153415423421 -24.624626331811562 3.9918344921546245 #
edge $-1 $440 -28.715713288886832 $443 28.715713288886832 $438 $465 forward 7 unknown #
point $-1 -41.407513657032993 28.715713288886832 8.1001149436277995 #
point $-1 -41.407513657032993 -28.715713288886832 8.1001149436277995 #
straight-curve $-1 -41.407513657032993 0 8.1001149436277995 0 -1 0 I I #
End-of-ACIS-data 