500 0 4 0           
7 Unknown 11 ACIS 5.0 NT 24 Fri Mar 26 00:14:58 1999 
-1 9.9999999999999995e-007 1e-010 
body $-1 $4 $-1 $5 #
body $-1 $6 $-1 $7 #
body $-1 $8 $-1 $9 #
body $-1 $10 $-1 $11 #
lump $-1 $-1 $12 $0 #
transform $-1 1 0 0 0 1 0 0 0 1 71.43162327951903 37.753445182023576 18.373450858613097 1 rotate no_reflect no_shear #
lump $-1 $-1 $13 $1 #
transform $-1 1 0 0 0 1 0 0 0 1 71.43162327951903 37.753445182023576 18.373450858613097 1 rotate no_reflect no_shear #
lump $-1 $-1 $14 $2 #
transform $-1 1 0 0 0 1 0 0 0 1 71.43162327951903 37.753445182023576 18.373450858613097 1 rotate no_reflect no_shear #
lump $-1 $-1 $15 $3 #
transform $-1 1 0 0 0 1 0 0 0 1 71.43162327951903 37.753445182023576 18.373450858613097 1 rotate no_reflect no_shear #
shell $-1 $-1 $-1 $16 $-1 $4 #
shell $-1 $-1 $-1 $17 $-1 $6 #
shell $-1 $-1 $-1 $18 $-1 $8 #
shell $-1 $-1 $-1 $19 $-1 $10 #
face $-1 $20 $21 $12 $-1 $22 forward single #
face $-1 $23 $24 $13 $-1 $25 forward single #
face $-1 $26 $27 $14 $-1 $28 forward single #
face $-1 $29 $30 $15 $-1 $31 reversed single #
face $-1 $32 $33 $12 $-1 $34 reversed single #
loop $-1 $-1 $35 $16 #
plane-surface $-1 0 0 18.373450858613097 0 0 1 1 0 0 forward_v I I I I #
face $-1 $36 $37 $13 $-1 $38 reversed single #
loop $-1 $-1 $39 $17 #
plane-surface $-1 0 -47.128918049103426 -13.407286581309933 0 0 1 1 0 0 forward_v I I I I #
face $-1 $40 $41 $14 $-1 $42 forward single #
loop $-1 $-1 $43 $18 #
plane-surface $-1 -54.681041689652133 52.23694067100093 165.86553537174959 -1 0 0 0 0.54463904215088732 0.83867056331134215 forward_v I I I I #
face $-1 $44 $45 $15 $-1 $46 reversed single #
loop $-1 $47 $48 $19 #
cone-surface $-1 -63.056332484585582 25.875809823983801 9.3027315229317082 0 -0.54463904215088732 -0.83867056331134215 1.5 0 0 1 I I 0 1 1.5 forward I I I I #
face $-1 $49 $50 $12 $-1 $51 reversed single #
loop $-1 $-1 $52 $20 #
plane-surface $-1 0 0 -18.373450858613097 0 0 1 1 0 0 forward_v I I I I #
coedge $-1 $53 $54 $55 $56 forward $21 $-1 #
face $-1 $57 $58 $13 $-1 $59 forward single #
loop $-1 $-1 $60 $23 #
plane-surface $-1 0 -56.504390916183276 -15.890368719961515 0 1 0 0 0 1 forward_v I I I I #
coedge $-1 $61 $62 $63 $64 forward $24 $-1 #
face $-1 $65 $66 $14 $-1 $67 reversed single #
loop $-1 $-1 $68 $26 #
plane-surface $-1 -63.056332484585582 -25.571961093479608 46.050335903593975 0 0.54463904215088732 0.83867056331134215 1 0 0 forward_v I I I I #
coedge $-1 $69 $70 $71 $72 reversed $27 $-1 #
face $-1 $73 $74 $15 $-1 $75 forward single #
loop $-1 $76 $77 $29 #
cone-surface $-1 -63.056332484585582 23.943065924877274 6.3265669641097091 0 -0.54463904215088732 -0.83867056331134215 0.75 0 0 1 I I -0.70710678118654757 0.70710678118654757 0.75 forward I I I I #
loop $-1 $-1 $78 $19 #
coedge $-1 $48 $48 $79 $80 reversed $30 $-1 #
face $-1 $81 $82 $12 $-1 $83 reversed single #
loop $-1 $-1 $84 $32 #
plane-surface $-1 0 -37.753445182023576 0 0 1 0 0 0 1 forward_v I I I I #
coedge $-1 $85 $86 $87 $88 forward $33 $-1 #
coedge $-1 $89 $35 $90 $91 forward $21 $-1 #
coedge $-1 $35 $89 $92 $93 forward $21 $-1 #
coedge $-1 $94 $95 $35 $56 reversed $96 $-1 #
edge $-1 $97 -37.753445182023576 $98 37.753445182023576 $55 $99 forward 7 unknown #
face $-1 $100 $101 $13 $-1 $102 reversed single #
loop $-1 $-1 $103 $36 #
plane-surface $-1 0 0 18.373450858613097 0 0 1 1 0 0 forward_v I I I I #
coedge $-1 $104 $105 $106 $107 forward $37 $-1 #
coedge $-1 $108 $39 $109 $110 reversed $24 $-1 #
coedge $-1 $39 $108 $105 $111 forward $24 $-1 #
coedge $-1 $112 $113 $39 $64 reversed $114 $-1 #
edge $-1 $115 -9.3754728670798499 $116 9.3754728670798499 $63 $117 forward 7 unknown #
face $-1 $118 $119 $14 $-1 $120 forward single #
loop $-1 $-1 $121 $40 #
plane-surface $-1 0 37.753445182023576 0 0 -1 0 0 0 -1 forward_v I I I I #
coedge $-1 $122 $123 $121 $124 reversed $41 $-1 #
coedge $-1 $70 $43 $123 $125 forward $27 $-1 #
coedge $-1 $43 $69 $126 $127 reversed $27 $-1 #
coedge $-1 $128 $121 $43 $72 forward $66 $-1 #
edge $-1 $129 -78.00643222594752 $130 -64.559316827261696 $71 $131 forward 7 unknown #
face $-1 $132 $133 $15 $-1 $134 forward single #
loop $-1 $-1 $135 $44 #
plane-surface $-1 -54.681041689652133 52.23694067100093 165.86553537174959 -1 0 0 0 0.54463904215088732 0.83867056331134215 forward_v I I I I #
loop $-1 $-1 $136 $29 #
coedge $-1 $77 $77 $78 $137 forward $45 $-1 #
coedge $-1 $78 $78 $77 $137 reversed $47 $-1 #
coedge $-1 $79 $79 $48 $80 forward $133 $-1 #
edge $-1 $138 4.3928480582972053e-016 $138 6.2831853071796004 $79 $139 forward 7 unknown #
face $-1 $140 $141 $12 $-1 $142 reversed single #
loop $-1 $-1 $143 $49 #
plane-surface $-1 -71.43162327951903 0 0 1 0 0 0 0 -1 forward_v I I I I #
coedge $-1 $144 $92 $145 $146 forward $50 $-1 #
coedge $-1 $147 $52 $144 $148 forward $33 $-1 #
coedge $-1 $52 $147 $149 $150 forward $33 $-1 #
coedge $-1 $95 $94 $52 $88 reversed $96 $-1 #
edge $-1 $151 -37.753445182023576 $152 37.753445182023576 $87 $153 forward 7 unknown #
coedge $-1 $54 $53 $154 $155 forward $21 $-1 #
coedge $-1 $156 $157 $53 $91 reversed $141 $-1 #
edge $-1 $98 -71.43162327951903 $158 71.43162327951903 $90 $159 forward 7 unknown #
coedge $-1 $84 $160 $54 $93 reversed $50 $-1 #
edge $-1 $161 -71.43162327951903 $97 71.43162327951903 $92 $162 forward 7 unknown #
coedge $-1 $87 $55 $160 $163 forward $96 $-1 #
coedge $-1 $55 $87 $156 $164 reversed $96 $-1 #
loop $-1 $-1 $94 $140 #
vertex $-1 $56 $165 #
vertex $-1 $56 $166 #
straight-curve $-1 71.43162327951903 0 18.373450858613097 0 1 0 I I #
face $-1 $167 $168 $13 $-1 $169 reversed single #
loop $-1 $-1 $170 $57 #
plane-surface $-1 0 0 -18.373450858613097 0 0 1 1 0 0 forward_v I I I I #
coedge $-1 $171 $172 $173 $174 forward $58 $-1 #
coedge $-1 $175 $60 $176 $177 reversed $37 $-1 #
coedge $-1 $60 $175 $62 $111 reversed $37 $-1 #
coedge $-1 $178 $179 $60 $107 reversed $180 $-1 #
edge $-1 $181 -2.4830821386515822 $182 2.4830821386515822 $106 $183 forward 7 unknown #
coedge $-1 $62 $61 $178 $184 forward $24 $-1 #
coedge $-1 $185 $186 $61 $110 forward $168 $-1 #
edge $-1 $187 -71.43162327951903 $116 71.43162327951903 $109 $188 forward 7 unknown #
edge $-1 $181 -71.43162327951903 $115 71.43162327951903 $105 $189 forward 7 unknown #
coedge $-1 $190 $63 $175 $191 forward $114 $-1 #
coedge $-1 $63 $173 $185 $192 forward $114 $-1 #
loop $-1 $-1 $113 $193 #
vertex $-1 $64 $194 #
vertex $-1 $64 $195 #
straight-curve $-1 71.43162327951903 -47.128918049103426 -13.407286581309933 0 1 0 I I #
face $-1 $196 $197 $14 $-1 $198 forward single #
loop $-1 $-1 $126 $65 #
plane-surface $-1 0 0 18.373450858613097 0 0 1 1 0 0 forward_v I I I I #
coedge $-1 $71 $199 $68 $124 forward $66 $-1 #
coedge $-1 $200 $68 $201 $202 reversed $41 $-1 #
coedge $-1 $68 $200 $69 $125 reversed $41 $-1 #
edge $-1 $203 -39.903457037226239 $129 -23.152875447359342 $121 $204 forward 7 unknown #
edge $-1 $129 -75.506890364047166 $205 -50.816931771323965 $69 $206 forward 7 unknown #
coedge $-1 $207 $208 $70 $127 forward $119 $-1 #
edge $-1 $130 -11.634974846523111 $205 9.0717666345697658 $126 $209 forward 7 unknown #
coedge $-1 $210 $71 $208 $211 reversed $66 $-1 #
vertex $-1 $124 $212 #
vertex $-1 $127 $213 #
straight-curve $-1 -54.681041689652133 37.753445182023576 82.932767685874794 0 0 1 I I #
face $-1 $214 $215 $15 $-1 $216 reversed single #
loop $-1 $217 $79 $73 #
plane-surface $-1 -63.056332484585582 -25.571961093479608 46.050335903593975 0 0.54463904215088732 0.83867056331134215 1 0 0 forward_v I I I I #
coedge $-1 $218 $219 $220 $221 reversed $74 $-1 #
coedge $-1 $136 $136 $-1 $222 forward $76 $-1 #
edge $-1 $223 0 $223 6.2831853071796004 $77 $224 forward 7 unknown #
vertex $-1 $80 $225 #
ellipse-curve $-1 -63.056332484585582 27.400074441477148 11.649893159270176 0 -0.54463904215088732 -0.83867056331134215 1.5 0 0 1 I I #
face $-1 $-1 $96 $12 $-1 $226 reversed single #
loop $-1 $-1 $156 $81 #
plane-surface $-1 0 37.753445182023576 0 0 -1 0 0 0 -1 forward_v I I I I #
coedge $-1 $227 $154 $157 $228 forward $82 $-1 #
coedge $-1 $160 $84 $85 $148 reversed $50 $-1 #
coedge $-1 $154 $227 $84 $146 reversed $82 $-1 #
edge $-1 $161 -18.373450858613097 $229 18.373450858613097 $145 $230 forward 7 unknown #
coedge $-1 $86 $85 $227 $231 forward $33 $-1 #
edge $-1 $152 -71.43162327951903 $229 71.43162327951903 $144 $232 forward 7 unknown #
coedge $-1 $157 $156 $86 $150 reversed $141 $-1 #
edge $-1 $233 -71.43162327951903 $151 71.43162327951903 $149 $234 forward 7 unknown #
vertex $-1 $88 $235 #
vertex $-1 $163 $236 #
straight-curve $-1 71.43162327951903 0 -18.373450858613097 0 -1 0 I I #
coedge $-1 $143 $145 $89 $155 reversed $82 $-1 #
edge $-1 $158 -37.753445182023576 $161 37.753445182023576 $154 $237 forward 7 unknown #
coedge $-1 $149 $90 $95 $164 forward $141 $-1 #
coedge $-1 $90 $149 $143 $228 reversed $141 $-1 #
vertex $-1 $91 $238 #
straight-curve $-1 0 37.753445182023576 18.373450858613097 -1 0 0 I I #
coedge $-1 $92 $144 $94 $163 reversed $50 $-1 #
vertex $-1 $155 $239 #
straight-curve $-1 0 -37.753445182023576 18.373450858613097 1 0 0 I I #
edge $-1 $97 -18.373450858613097 $152 18.373450858613097 $94 $240 forward 7 unknown #
edge $-1 $98 -18.373450858613097 $151 18.373450858613097 $95 $241 forward 7 unknown #
point $-1 71.43162327951903 -37.753445182023576 18.373450858613097 #
point $-1 71.43162327951903 37.753445182023576 18.373450858613097 #
face $-1 $242 $180 $13 $-1 $243 reversed single #
loop $-1 $-1 $109 $100 #
plane-surface $-1 0 -37.753445182023576 0 0 1 0 0 0 1 forward_v I I I I #
coedge $-1 $176 $244 $190 $245 forward $101 $-1 #
coedge $-1 $246 $103 $247 $248 forward $58 $-1 #
coedge $-1 $103 $246 $249 $250 forward $58 $-1 #
coedge $-1 $113 $251 $103 $174 reversed $114 $-1 #
edge $-1 $252 -37.753445182023576 $253 37.753445182023576 $173 $254 forward 7 unknown #
coedge $-1 $105 $104 $112 $191 reversed $37 $-1 #
coedge $-1 $255 $170 $104 $177 forward $101 $-1 #
edge $-1 $256 -71.43162327951903 $182 71.43162327951903 $104 $257 forward 7 unknown #
coedge $-1 $258 $106 $108 $184 reversed $180 $-1 #
coedge $-1 $106 $259 $255 $260 reversed $180 $-1 #
loop $-1 $-1 $259 $167 #
vertex $-1 $184 $261 #
vertex $-1 $260 $262 #
straight-curve $-1 -71.43162327951903 -56.504390916183276 -15.890368719961515 0 0 -1 I I #
edge $-1 $187 -9.3754728670798499 $181 9.3754728670798499 $178 $263 forward 7 unknown #
coedge $-1 $249 $109 $113 $192 reversed $168 $-1 #
coedge $-1 $109 $249 $258 $264 forward $168 $-1 #
vertex $-1 $264 $265 #
straight-curve $-1 0 -37.753445182023576 -13.407286581309933 1 0 0 I I #
straight-curve $-1 0 -56.504390916183276 -13.407286581309933 1 0 0 I I #
coedge $-1 $251 $112 $170 $245 reversed $114 $-1 #
edge $-1 $115 -2.4830821386515822 $256 2.4830821386515822 $112 $266 forward 7 unknown #
edge $-1 $252 -18.373450858613097 $116 13.407286581309933 $113 $267 forward 7 unknown #
face $-1 $-1 $114 $13 $-1 $268 reversed single #
point $-1 71.43162327951903 -56.504390916183276 -13.407286581309933 #
point $-1 71.43162327951903 -37.753445182023576 -13.407286581309933 #
face $-1 $269 $270 $14 $-1 $271 reversed single #
loop $-1 $-1 $272 $118 #
plane-surface $-1 0 -47.128918049103426 -13.407286581309933 0 0 1 1 0 0 forward_v I I I I #
coedge $-1 $121 $273 $274 $275 reversed $66 $-1 #
coedge $-1 $123 $122 $207 $276 reversed $41 $-1 #
coedge $-1 $274 $277 $122 $202 forward $278 $-1 #
edge $-1 $279 27.55330084507181 $203 52.243259437795004 $201 $280 forward 7 unknown #
vertex $-1 $275 $281 #
straight-curve $-1 -31.528166242292791 37.753445182023576 4.926335459927266 1 0 0 I I #
vertex $-1 $276 $282 #
straight-curve $-1 -54.681041689652133 -25.571961093479608 46.050335903593975 0 -0.83867056331134215 0.54463904215088732 I I #
coedge $-1 $283 $126 $200 $276 forward $119 $-1 #
coedge $-1 $126 $284 $128 $211 forward $119 $-1 #
straight-curve $-1 -54.681041689652133 26.118470335500465 18.373450858613097 0 -1 0 I I #
coedge $-1 $273 $128 $285 $286 forward $66 $-1 #
edge $-1 $287 -71.43162327951903 $130 54.681041689652133 $128 $288 forward 7 unknown #
point $-1 -54.681041689652133 37.753445182023583 4.926335459927266 #
point $-1 -54.681041689652133 37.753445182023576 18.373450858613097 #
face $-1 $289 $290 $15 $-1 $291 forward single #
loop $-1 $-1 $292 $132 #
plane-surface $-1 0 37.753445182023576 0 0 -1 0 0 0 -1 forward_v I I I I #
loop $-1 $-1 $293 $73 #
coedge $-1 $219 $135 $294 $295 forward $74 $-1 #
coedge $-1 $135 $218 $296 $297 reversed $74 $-1 #
coedge $-1 $298 $292 $135 $221 forward $215 $-1 #
edge $-1 $299 -78.00643222594752 $300 -64.559316827261696 $220 $301 forward 7 unknown #
edge $-1 $302 1 $302 0 $136 $-1 forward 7 unknown #
vertex $-1 $137 $303 #
ellipse-curve $-1 -63.056332484585582 24.351545206490439 6.9555698865932154 0 0.54463904215088732 0.83867056331134215 1.5 0 0 1 I I #
point $-1 -61.556332484585582 27.400074441477162 11.649893159270199 #
plane-surface $-1 71.43162327951903 0 0 -1 0 0 0 0 1 forward_v I I I I #
coedge $-1 $145 $143 $147 $231 reversed $82 $-1 #
edge $-1 $158 -18.373450858613097 $233 18.373450858613097 $157 $304 forward 7 unknown #
vertex $-1 $231 $305 #
straight-curve $-1 -71.43162327951903 -37.753445182023576 0 0 0 -1 I I #
edge $-1 $229 -37.753445182023576 $233 37.753445182023576 $227 $306 forward 7 unknown #
straight-curve $-1 0 -37.753445182023576 -18.373450858613097 -1 0 0 I I #
vertex $-1 $150 $307 #
straight-curve $-1 0 37.753445182023576 -18.373450858613097 1 0 0 I I #
point $-1 71.43162327951903 37.753445182023576 -18.373450858613097 #
point $-1 71.43162327951903 -37.753445182023576 -18.373450858613097 #
straight-curve $-1 -71.43162327951903 0 18.373450858613097 0 -1 0 I I #
point $-1 -71.43162327951903 37.753445182023576 18.373450858613097 #
point $-1 -71.43162327951903 -37.753445182023576 18.373450858613097 #
straight-curve $-1 71.43162327951903 -37.753445182023576 0 0 0 -1 I I #
straight-curve $-1 71.43162327951903 37.753445182023576 0 0 0 -1 I I #
face $-1 $193 $308 $13 $-1 $309 reversed single #
plane-surface $-1 -71.43162327951903 0 0 1 0 0 0 0 -1 forward_v I I I I #
coedge $-1 $170 $255 $310 $311 forward $101 $-1 #
edge $-1 $312 -37.753445182023576 $256 56.504390916183276 $190 $313 forward 7 unknown #
coedge $-1 $172 $171 $314 $315 forward $58 $-1 #
coedge $-1 $316 $317 $171 $248 reversed $308 $-1 #
edge $-1 $253 -71.43162327951903 $318 71.43162327951903 $247 $319 forward 7 unknown #
coedge $-1 $186 $185 $172 $250 reversed $168 $-1 #
edge $-1 $320 -71.43162327951903 $252 71.43162327951903 $249 $321 forward 7 unknown #
coedge $-1 $173 $190 $316 $322 reversed $114 $-1 #
vertex $-1 $174 $323 #
vertex $-1 $174 $324 #
straight-curve $-1 71.43162327951903 0 18.373450858613097 0 1 0 I I #
coedge $-1 $244 $176 $179 $260 forward $101 $-1 #
vertex $-1 $191 $325 #
straight-curve $-1 0 -56.504390916183276 -18.373450858613097 -1 0 0 I I #
coedge $-1 $314 $178 $186 $264 reversed $180 $-1 #
coedge $-1 $179 $314 $317 $326 forward $180 $-1 #
edge $-1 $182 -56.504390916183276 $327 37.753445182023576 $179 $328 forward 7 unknown #
point $-1 -71.43162327951903 -56.504390916183276 -13.407286581309933 #
point $-1 -71.43162327951903 -56.504390916183276 -18.373450858613097 #
straight-curve $-1 -71.43162327951903 -47.128918049103426 -13.407286581309933 0 -1 0 I I #
edge $-1 $320 -18.373450858613097 $187 13.407286581309933 $258 $329 forward 7 unknown #
point $-1 -71.43162327951903 -37.753445182023576 -13.407286581309933 #
straight-curve $-1 71.43162327951903 -56.504390916183276 -15.890368719961515 0 0 -1 I I #
straight-curve $-1 71.43162327951903 -37.753445182023576 0 0 0 -1 I I #
plane-surface $-1 71.43162327951903 0 0 -1 0 0 0 0 1 forward_v I I I I #
face $-1 $330 $331 $14 $-1 $332 reversed single #
loop $-1 $-1 $333 $196 #
plane-surface $-1 0 -56.504390916183276 -15.890368719961515 0 1 0 0 0 1 forward_v I I I I #
coedge $-1 $334 $335 $336 $337 forward $197 $-1 #
coedge $-1 $199 $210 $338 $339 reversed $66 $-1 #
coedge $-1 $340 $201 $199 $275 forward $278 $-1 #
edge $-1 $203 -4.9263354599272615 $341 18.373450858613097 $199 $342 forward 7 unknown #
edge $-1 $205 23.152875447359342 $279 39.903457037226239 $207 $343 forward 7 unknown #
coedge $-1 $201 $344 $283 $345 reversed $278 $-1 #
loop $-1 $-1 $201 $346 #
vertex $-1 $345 $347 #
straight-curve $-1 -71.43162327951903 -6.0614386398925539 33.380054238968242 0 0.83867056331134215 -0.54463904215088732 I I #
point $-1 -71.43162327951903 37.753445182023576 4.9263354599272615 #
point $-1 -54.681041689652133 17.046703700930699 18.373450858613097 #
coedge $-1 $348 $207 $277 $345 forward $119 $-1 #
coedge $-1 $208 $348 $349 $350 forward $119 $-1 #
coedge $-1 $349 $351 $210 $286 reversed $352 $-1 #
edge $-1 $287 -18.373450858613097 $353 18.373450858613097 $285 $354 forward 7 unknown #
vertex $-1 $350 $355 #
straight-curve $-1 0 37.753445182023576 18.373450858613097 -1 0 0 I I #
face $-1 $356 $357 $15 $-1 $358 forward single #
loop $-1 $-1 $296 $214 #
plane-surface $-1 0 0 18.373450858613097 0 0 1 1 0 0 forward_v I I I I #
coedge $-1 $220 $359 $293 $360 forward $215 $-1 #
coedge $-1 $361 $294 $292 $360 reversed $217 $-1 #
coedge $-1 $293 $362 $218 $295 reversed $217 $-1 #
edge $-1 $299 -75.506890364047166 $363 -50.816931771323965 $218 $364 forward 7 unknown #
coedge $-1 $365 $366 $219 $297 forward $290 $-1 #
edge $-1 $300 -11.634974846523111 $363 9.0717666345697658 $296 $367 forward 7 unknown #
coedge $-1 $368 $220 $366 $369 reversed $215 $-1 #
vertex $-1 $360 $370 #
vertex $-1 $297 $371 #
straight-curve $-1 -54.681041689652133 37.753445182023576 82.932767685874794 0 0 1 I I #
vertex $-1 $222 $372 #
point $-1 -61.556332484585582 24.351545206490439 6.9555698865932154 #
straight-curve $-1 -71.43162327951903 37.753445182023576 0 0 0 -1 I I #
point $-1 -71.43162327951903 -37.753445182023576 -18.373450858613097 #
straight-curve $-1 -71.43162327951903 0 -18.373450858613097 0 1 0 I I #
point $-1 -71.43162327951903 37.753445182023576 -18.373450858613097 #
loop $-1 $-1 $316 $242 #
plane-surface $-1 0 37.753445182023576 0 0 -1 0 0 0 -1 forward_v I I I I #
coedge $-1 $317 $316 $244 $311 reversed $308 $-1 #
edge $-1 $327 -71.43162327951903 $312 71.43162327951903 $310 $373 forward 7 unknown #
vertex $-1 $245 $374 #
straight-curve $-1 71.43162327951903 0 -18.373450858613097 0 -1 0 I I #
coedge $-1 $259 $258 $246 $315 reversed $180 $-1 #
edge $-1 $318 -37.753445182023576 $320 37.753445182023576 $314 $375 forward 7 unknown #
coedge $-1 $310 $247 $251 $322 forward $308 $-1 #
coedge $-1 $247 $310 $259 $326 reversed $308 $-1 #
vertex $-1 $248 $376 #
straight-curve $-1 0 37.753445182023576 18.373450858613097 -1 0 0 I I #
vertex $-1 $315 $377 #
straight-curve $-1 0 -37.753445182023576 18.373450858613097 1 0 0 I I #
edge $-1 $253 -18.373450858613097 $312 18.373450858613097 $251 $378 forward 7 unknown #
point $-1 71.43162327951903 -37.753445182023576 18.373450858613097 #
point $-1 71.43162327951903 37.753445182023576 18.373450858613097 #
point $-1 71.43162327951903 -56.504390916183276 -18.373450858613097 #
edge $-1 $318 -18.373450858613097 $327 18.373450858613097 $317 $379 forward 7 unknown #
vertex $-1 $311 $380 #
straight-curve $-1 -71.43162327951903 0 -18.373450858613097 0 1 0 I I #
straight-curve $-1 -71.43162327951903 -37.753445182023576 0 0 0 -1 I I #
face $-1 $346 $381 $14 $-1 $382 reversed single #
loop $-1 $-1 $383 $269 #
plane-surface $-1 0 0 -18.373450858613097 0 0 1 1 0 0 forward_v I I I I #
coedge $-1 $384 $385 $386 $387 forward $270 $-1 #
coedge $-1 $388 $272 $389 $390 reversed $197 $-1 #
coedge $-1 $272 $388 $385 $391 forward $197 $-1 #
coedge $-1 $392 $393 $272 $337 reversed $352 $-1 #
edge $-1 $394 -9.3754728670798499 $395 9.3754728670798499 $336 $396 forward 7 unknown #
coedge $-1 $383 $397 $273 $339 forward $331 $-1 #
edge $-1 $341 -71.43162327951903 $353 71.43162327951903 $273 $398 forward 7 unknown #
coedge $-1 $386 $274 $397 $399 reversed $278 $-1 #
vertex $-1 $339 $400 #
straight-curve $-1 -71.43162327951903 37.753445182023576 0 0 0 -1 I I #
straight-curve $-1 -31.528166242292791 17.046703700930706 18.373450858613097 -1 0 0 I I #
coedge $-1 $277 $401 $402 $403 reversed $278 $-1 #
edge $-1 $279 -17.046703700930699 $404 37.753445182023576 $277 $405 forward 7 unknown #
face $-1 $406 $278 $14 $-1 $407 reversed single #
point $-1 -71.43162327951903 17.046703700930699 18.373450858613097 #
coedge $-1 $284 $283 $408 $409 forward $119 $-1 #
coedge $-1 $393 $285 $284 $350 reversed $352 $-1 #
edge $-1 $410 -37.753445182023576 $287 37.753445182023576 $349 $411 forward 7 unknown #
coedge $-1 $285 $392 $383 $412 reversed $352 $-1 #
loop $-1 $-1 $393 $406 #
vertex $-1 $412 $413 #
straight-curve $-1 71.43162327951903 37.753445182023576 0 0 0 -1 I I #
point $-1 71.43162327951903 37.753445182023576 18.373450858613097 #
face $-1 $414 $415 $15 $-1 $416 reversed single #
loop $-1 $-1 $417 $289 #
plane-surface $-1 0 -47.128918049103426 -13.407286581309933 0 0 1 1 0 0 forward_v I I I I #
coedge $-1 $292 $418 $419 $420 reversed $215 $-1 #
edge $-1 $421 -39.903457037226239 $299 -23.152875447359342 $292 $422 forward 7 unknown #
coedge $-1 $362 $293 $423 $424 reversed $217 $-1 #
coedge $-1 $294 $361 $365 $425 reversed $217 $-1 #
vertex $-1 $425 $426 #
straight-curve $-1 -54.681041689652133 -25.571961093479608 46.050335903593975 0 -0.83867056331134215 0.54463904215088732 I I #
coedge $-1 $427 $296 $362 $425 forward $290 $-1 #
coedge $-1 $296 $428 $298 $369 forward $290 $-1 #
straight-curve $-1 -54.681041689652133 26.118470335500465 18.373450858613097 0 -1 0 I I #
coedge $-1 $418 $298 $429 $430 forward $215 $-1 #
edge $-1 $431 -71.43162327951903 $300 54.681041689652133 $298 $432 forward 7 unknown #
point $-1 -54.681041689652133 37.753445182023583 4.926335459927266 #
point $-1 -54.681041689652133 37.753445182023576 18.373450858613097 #
point $-1 -63.056332484585582 23.53458664326411 5.6975640416262028 #
straight-curve $-1 0 37.753445182023576 -18.373450858613097 1 0 0 I I #
point $-1 71.43162327951903 37.753445182023576 -18.373450858613097 #
straight-curve $-1 -71.43162327951903 0 18.373450858613097 0 -1 0 I I #
point $-1 -71.43162327951903 37.753445182023576 18.373450858613097 #
point $-1 -71.43162327951903 -37.753445182023576 18.373450858613097 #
straight-curve $-1 71.43162327951903 37.753445182023576 0 0 0 -1 I I #
straight-curve $-1 -71.43162327951903 37.753445182023576 0 0 0 -1 I I #
point $-1 -71.43162327951903 37.753445182023576 -18.373450858613097 #
loop $-1 $-1 $389 $330 #
plane-surface $-1 0 -37.753445182023576 0 0 1 0 0 0 1 forward_v I I I I #
coedge $-1 $433 $338 $351 $412 forward $331 $-1 #
coedge $-1 $434 $333 $433 $435 reversed $270 $-1 #
coedge $-1 $333 $434 $335 $391 reversed $270 $-1 #
coedge $-1 $401 $340 $333 $387 reversed $278 $-1 #
edge $-1 $436 -2.4830821386515822 $437 2.4830821386515822 $386 $438 forward 7 unknown #
coedge $-1 $335 $334 $401 $439 forward $197 $-1 #
coedge $-1 $440 $402 $334 $390 forward $381 $-1 #
edge $-1 $441 -71.43162327951903 $395 71.43162327951903 $389 $442 forward 7 unknown #
edge $-1 $436 -71.43162327951903 $394 71.43162327951903 $385 $443 forward 7 unknown #
coedge $-1 $351 $336 $434 $444 forward $352 $-1 #
coedge $-1 $336 $349 $440 $445 forward $352 $-1 #
vertex $-1 $337 $446 #
vertex $-1 $337 $447 #
straight-curve $-1 71.43162327951903 -47.128918049103426 -13.407286581309933 0 1 0 I I #
coedge $-1 $338 $433 $340 $399 forward $331 $-1 #
straight-curve $-1 0 37.753445182023576 -18.373450858613097 1 0 0 I I #
edge $-1 $437 -56.504390916183276 $341 37.753445182023576 $340 $448 forward 7 unknown #
point $-1 -71.43162327951903 37.753445182023576 -18.373450858613097 #
coedge $-1 $344 $386 $388 $439 reversed $278 $-1 #
coedge $-1 $389 $408 $344 $403 forward $381 $-1 #
edge $-1 $404 -18.373450858613097 $441 13.407286581309933 $344 $449 forward 7 unknown #
vertex $-1 $345 $450 #
straight-curve $-1 -71.43162327951903 0 18.373450858613097 0 -1 0 I I #
face $-1 $-1 $352 $14 $-1 $451 reversed single #
plane-surface $-1 -71.43162327951903 0 0 1 0 0 0 0 -1 forward_v I I I I #
coedge $-1 $402 $440 $348 $409 reversed $381 $-1 #
edge $-1 $404 -71.43162327951903 $410 71.43162327951903 $408 $452 forward 7 unknown #
vertex $-1 $350 $453 #
straight-curve $-1 71.43162327951903 0 18.373450858613097 0 1 0 I I #
edge $-1 $353 -37.753445182023576 $454 56.504390916183276 $351 $455 forward 7 unknown #
point $-1 71.43162327951903 37.753445182023576 -18.373450858613097 #
face $-1 $456 $457 $15 $-1 $458 reversed single #
loop $-1 $-1 $459 $356 #
plane-surface $-1 0 -56.504390916183276 -15.890368719961515 0 1 0 0 0 1 forward_v I I I I #
coedge $-1 $460 $461 $462 $463 forward $357 $-1 #
coedge $-1 $359 $368 $464 $465 reversed $215 $-1 #
coedge $-1 $466 $423 $359 $420 forward $467 $-1 #
edge $-1 $421 -4.9263354599272615 $468 18.373450858613097 $359 $469 forward 7 unknown #
vertex $-1 $420 $470 #
straight-curve $-1 -31.528166242292791 37.753445182023576 4.926335459927266 1 0 0 I I #
coedge $-1 $419 $471 $361 $424 forward $467 $-1 #
edge $-1 $472 27.55330084507181 $421 52.243259437795004 $423 $473 forward 7 unknown #
edge $-1 $363 23.152875447359342 $472 39.903457037226239 $365 $474 forward 7 unknown #
point $-1 -54.681041689652133 17.046703700930699 18.373450858613097 #
coedge $-1 $475 $365 $471 $476 forward $290 $-1 #
coedge $-1 $366 $475 $477 $478 forward $290 $-1 #
coedge $-1 $477 $479 $368 $430 reversed $480 $-1 #
edge $-1 $431 -18.373450858613097 $481 18.373450858613097 $429 $482 forward 7 unknown #
vertex $-1 $478 $483 #
straight-curve $-1 0 37.753445182023576 18.373450858613097 -1 0 0 I I #
coedge $-1 $397 $383 $384 $435 forward $331 $-1 #
coedge $-1 $385 $384 $392 $444 reversed $270 $-1 #
edge $-1 $454 -71.43162327951903 $437 71.43162327951903 $384 $484 forward 7 unknown #
vertex $-1 $439 $485 #
vertex $-1 $399 $486 #
straight-curve $-1 -71.43162327951903 -56.504390916183276 -15.890368719961515 0 0 -1 I I #
edge $-1 $441 -9.3754728670798499 $436 9.3754728670798499 $401 $487 forward 7 unknown #
coedge $-1 $408 $389 $393 $445 reversed $381 $-1 #
vertex $-1 $403 $488 #
straight-curve $-1 0 -37.753445182023576 -13.407286581309933 1 0 0 I I #
straight-curve $-1 0 -56.504390916183276 -13.407286581309933 1 0 0 I I #
edge $-1 $394 -2.4830821386515822 $454 2.4830821386515822 $392 $489 forward 7 unknown #
edge $-1 $410 -18.373450858613097 $395 13.407286581309933 $393 $490 forward 7 unknown #
point $-1 71.43162327951903 -56.504390916183276 -13.407286581309933 #
point $-1 71.43162327951903 -37.753445182023576 -13.407286581309933 #
straight-curve $-1 -71.43162327951903 0 -18.373450858613097 0 1 0 I I #
straight-curve $-1 -71.43162327951903 -37.753445182023576 0 0 0 -1 I I #
point $-1 -71.43162327951903 -37.753445182023576 18.373450858613097 #
plane-surface $-1 71.43162327951903 0 0 -1 0 0 0 0 1 forward_v I I I I #
straight-curve $-1 0 -37.753445182023576 18.373450858613097 1 0 0 I I #
point $-1 71.43162327951903 -37.753445182023576 18.373450858613097 #
vertex $-1 $444 $491 #
straight-curve $-1 71.43162327951903 0 -18.373450858613097 0 -1 0 I I #
face $-1 $492 $493 $15 $-1 $494 reversed single #
loop $-1 $-1 $495 $414 #
plane-surface $-1 0 0 -18.373450858613097 0 0 1 1 0 0 forward_v I I I I #
coedge $-1 $496 $497 $498 $499 forward $415 $-1 #
coedge $-1 $500 $417 $501 $502 reversed $357 $-1 #
coedge $-1 $417 $500 $497 $503 forward $357 $-1 #
coedge $-1 $504 $505 $417 $463 reversed $480 $-1 #
edge $-1 $506 -9.3754728670798499 $507 9.3754728670798499 $462 $508 forward 7 unknown #
coedge $-1 $495 $509 $418 $465 forward $457 $-1 #
edge $-1 $468 -71.43162327951903 $481 71.43162327951903 $418 $510 forward 7 unknown #
coedge $-1 $498 $419 $509 $511 reversed $467 $-1 #
loop $-1 $-1 $423 $492 #
vertex $-1 $465 $512 #
straight-curve $-1 -71.43162327951903 37.753445182023576 0 0 0 -1 I I #
point $-1 -71.43162327951903 37.753445182023576 4.9263354599272615 #
coedge $-1 $423 $513 $427 $476 reversed $467 $-1 #
vertex $-1 $476 $514 #
straight-curve $-1 -71.43162327951903 -6.0614386398925539 33.380054238968242 0 0.83867056331134215 -0.54463904215088732 I I #
straight-curve $-1 -31.528166242292791 17.046703700930706 18.373450858613097 -1 0 0 I I #
coedge $-1 $428 $427 $515 $516 forward $290 $-1 #
edge $-1 $472 -17.046703700930699 $517 37.753445182023576 $471 $518 forward 7 unknown #
coedge $-1 $505 $429 $428 $478 reversed $480 $-1 #
edge $-1 $519 -37.753445182023576 $431 37.753445182023576 $477 $520 forward 7 unknown #
coedge $-1 $429 $504 $495 $521 reversed $480 $-1 #
loop $-1 $-1 $505 $522 #
vertex $-1 $521 $523 #
straight-curve $-1 71.43162327951903 37.753445182023576 0 0 0 -1 I I #
point $-1 71.43162327951903 37.753445182023576 18.373450858613097 #
straight-curve $-1 0 -56.504390916183276 -18.373450858613097 -1 0 0 I I #
point $-1 -71.43162327951903 -56.504390916183276 -13.407286581309933 #
point $-1 -71.43162327951903 -56.504390916183276 -18.373450858613097 #
straight-curve $-1 -71.43162327951903 -47.128918049103426 -13.407286581309933 0 -1 0 I I #
point $-1 -71.43162327951903 -37.753445182023576 -13.407286581309933 #
straight-curve $-1 71.43162327951903 -56.504390916183276 -15.890368719961515 0 0 -1 I I #
straight-curve $-1 71.43162327951903 -37.753445182023576 0 0 0 -1 I I #
point $-1 71.43162327951903 -56.504390916183276 -18.373450858613097 #
face $-1 $522 $467 $15 $-1 $524 reversed single #
loop $-1 $-1 $501 $456 #
plane-surface $-1 0 -37.753445182023576 0 0 1 0 0 0 1 forward_v I I I I #
coedge $-1 $525 $464 $479 $521 forward $457 $-1 #
coedge $-1 $526 $459 $525 $527 reversed $415 $-1 #
coedge $-1 $459 $526 $461 $503 reversed $415 $-1 #
coedge $-1 $528 $466 $459 $499 reversed $467 $-1 #
edge $-1 $529 -2.4830821386515822 $530 2.4830821386515822 $498 $531 forward 7 unknown #
coedge $-1 $461 $460 $528 $532 forward $357 $-1 #
coedge $-1 $533 $534 $460 $502 forward $493 $-1 #
edge $-1 $535 -71.43162327951903 $507 71.43162327951903 $501 $536 forward 7 unknown #
edge $-1 $529 -71.43162327951903 $506 71.43162327951903 $497 $537 forward 7 unknown #
coedge $-1 $479 $462 $526 $538 forward $480 $-1 #
coedge $-1 $462 $477 $533 $539 forward $480 $-1 #
vertex $-1 $463 $540 #
vertex $-1 $463 $541 #
straight-curve $-1 71.43162327951903 -47.128918049103426 -13.407286581309933 0 1 0 I I #
coedge $-1 $464 $525 $466 $511 forward $457 $-1 #
straight-curve $-1 0 37.753445182023576 -18.373450858613097 1 0 0 I I #
edge $-1 $530 -56.504390916183276 $468 37.753445182023576 $466 $542 forward 7 unknown #
point $-1 -71.43162327951903 37.753445182023576 -18.373450858613097 #
coedge $-1 $471 $528 $534 $543 reversed $467 $-1 #
point $-1 -71.43162327951903 17.046703700930699 18.373450858613097 #
coedge $-1 $534 $533 $475 $516 reversed $493 $-1 #
edge $-1 $517 -71.43162327951903 $519 71.43162327951903 $515 $544 forward 7 unknown #
vertex $-1 $476 $545 #
straight-curve $-1 -71.43162327951903 0 18.373450858613097 0 -1 0 I I #
vertex $-1 $478 $546 #
straight-curve $-1 71.43162327951903 0 18.373450858613097 0 1 0 I I #
edge $-1 $481 -37.753445182023576 $547 56.504390916183276 $479 $548 forward 7 unknown #
face $-1 $-1 $480 $15 $-1 $549 reversed single #
point $-1 71.43162327951903 37.753445182023576 -18.373450858613097 #
plane-surface $-1 -71.43162327951903 0 0 1 0 0 0 0 -1 forward_v I I I I #
coedge $-1 $509 $495 $496 $527 forward $457 $-1 #
coedge $-1 $497 $496 $504 $538 reversed $415 $-1 #
edge $-1 $547 -71.43162327951903 $530 71.43162327951903 $496 $550 forward 7 unknown #
coedge $-1 $513 $498 $500 $532 reversed $467 $-1 #
vertex $-1 $532 $551 #
vertex $-1 $511 $552 #
straight-curve $-1 -71.43162327951903 -56.504390916183276 -15.890368719961515 0 0 -1 I I #
edge $-1 $535 -9.3754728670798499 $529 9.3754728670798499 $528 $553 forward 7 unknown #
coedge $-1 $515 $501 $505 $539 reversed $493 $-1 #
coedge $-1 $501 $515 $513 $543 forward $493 $-1 #
vertex $-1 $543 $554 #
straight-curve $-1 0 -37.753445182023576 -13.407286581309933 1 0 0 I I #
straight-curve $-1 0 -56.504390916183276 -13.407286581309933 1 0 0 I I #
edge $-1 $506 -2.4830821386515822 $547 2.4830821386515822 $504 $555 forward 7 unknown #
edge $-1 $519 -18.373450858613097 $507 13.407286581309933 $505 $556 forward 7 unknown #
point $-1 71.43162327951903 -56.504390916183276 -13.407286581309933 #
point $-1 71.43162327951903 -37.753445182023576 -13.407286581309933 #
straight-curve $-1 -71.43162327951903 0 -18.373450858613097 0 1 0 I I #
edge $-1 $517 -18.373450858613097 $535 13.407286581309933 $513 $557 forward 7 unknown #
straight-curve $-1 0 -37.753445182023576 18.373450858613097 1 0 0 I I #
point $-1 -71.43162327951903 -37.753445182023576 18.373450858613097 #
point $-1 71.43162327951903 -37.753445182023576 18.373450858613097 #
vertex $-1 $538 $558 #
straight-curve $-1 71.43162327951903 0 -18.373450858613097 0 -1 0 I I #
plane-surface $-1 71.43162327951903 0 0 -1 0 0 0 0 1 forward_v I I I I #
straight-curve $-1 0 -56.504390916183276 -18.373450858613097 -1 0 0 I I #
point $-1 -71.43162327951903 -56.504390916183276 -13.407286581309933 #
point $-1 -71.43162327951903 -56.504390916183276 -18.373450858613097 #
straight-curve $-1 -71.43162327951903 -47.128918049103426 -13.407286581309933 0 -1 0 I I #
point $-1 -71.43162327951903 -37.753445182023576 -13.407286581309933 #
straight-curve $-1 71.43162327951903 -56.504390916183276 -15.890368719961515 0 0 -1 I I #
straight-curve $-1 71.43162327951903 -37.753445182023576 0 0 0 -1 I I #
straight-curve $-1 -71.43162327951903 -37.753445182023576 0 0 0 -1 I I #
point $-1 71.43162327951903 -56.504390916183276 -18.373450858613097 #
End-of-ACIS-data 