500 0 8 0           
7 Unknown 11 ACIS 5.0 NT 24 Fri Mar 26 01:25:21 1999 
-1 9.9999999999999995e-007 1e-010 
body $-1 $8 $-1 $9 #
body $-1 $10 $-1 $11 #
body $-1 $12 $-1 $13 #
body $-1 $14 $-1 $15 #
body $-1 $16 $-1 $17 #
body $-1 $18 $-1 $19 #
body $-1 $20 $-1 $21 #
body $-1 $22 $-1 $23 #
lump $-1 $-1 $24 $0 #
transform $-1 1 0 0 0 1 0 0 0 1 45.298013245033111 19.011285987335427 4 1 rotate no_reflect no_shear #
lump $-1 $-1 $25 $1 #
transform $-1 1 0 0 0 1 0 0 0 1 45.298013245033111 19.011285987335427 4 1 rotate no_reflect no_shear #
lump $-1 $-1 $26 $2 #
transform $-1 1 0 0 0 1 0 0 0 1 45.298013245033111 19.011285987335427 4 1 rotate no_reflect no_shear #
lump $-1 $-1 $27 $3 #
transform $-1 1 0 0 0 1 0 0 0 1 45.298013245033111 19.011285987335427 4 1 rotate no_reflect no_shear #
lump $-1 $-1 $28 $4 #
transform $-1 1 0 0 0 1 0 0 0 1 45.298013245033111 19.011285987335427 4 1 rotate no_reflect no_shear #
lump $-1 $-1 $29 $5 #
transform $-1 1 0 0 0 1 0 0 0 1 45.298013245033111 19.011285987335427 4 1 rotate no_reflect no_shear #
lump $-1 $-1 $30 $6 #
transform $-1 1 0 0 0 1 0 0 0 1 45.298013245033111 19.011285987335427 4 1 rotate no_reflect no_shear #
lump $-1 $-1 $31 $7 #
transform $-1 1 0 0 0 1 0 0 0 1 45.298013245033111 19.011285987335427 4 1 rotate no_reflect no_shear #
shell $-1 $-1 $-1 $32 $-1 $8 #
shell $-1 $-1 $-1 $33 $-1 $10 #
shell $-1 $-1 $-1 $34 $-1 $12 #
shell $-1 $-1 $-1 $35 $-1 $14 #
shell $-1 $-1 $-1 $36 $-1 $16 #
shell $-1 $-1 $-1 $37 $-1 $18 #
shell $-1 $-1 $-1 $38 $-1 $20 #
shell $-1 $-1 $-1 $39 $-1 $22 #
face $-1 $40 $41 $24 $-1 $42 forward single #
face $-1 $43 $44 $25 $-1 $45 reversed single #
face $-1 $46 $47 $26 $-1 $48 reversed single #
face $-1 $49 $50 $27 $-1 $51 forward single #
face $-1 $52 $53 $28 $-1 $54 forward single #
face $-1 $55 $56 $29 $-1 $57 forward single #
face $-1 $58 $59 $30 $-1 $60 reversed single #
face $-1 $61 $62 $31 $-1 $63 forward single #
face $-1 $64 $65 $24 $-1 $66 reversed single #
loop $-1 $-1 $67 $32 #
plane-surface $-1 0 0 4 0 0 1 1 0 0 forward_v I I I I #
face $-1 $68 $69 $25 $-1 $70 reversed single #
loop $-1 $-1 $71 $33 #
plane-surface $-1 -43.245642262031922 -16.011285987335427 0 0 -1 0 0 0 -1 forward_v I I I I #
face $-1 $72 $73 $26 $-1 $74 reversed single #
loop $-1 $-1 $75 $34 #
plane-surface $-1 -41.193271279030732 43.167160513174373 95.8853756196511 1 0 0 0 -0.6018150307709319 -0.79863550430605224 forward_v I I I I #
face $-1 $76 $77 $27 $-1 $78 forward single #
loop $-1 $79 $80 $35 #
cone-surface $-1 -36.245052284478263 15.697445521768863 0.87728621476679103 0 -0.6018150307709319 -0.79863550430605224 1 0 0 1 I I 0 1 1 forward I I I I #
face $-1 $81 $82 $28 $-1 $83 forward single #
loop $-1 $84 $85 $36 #
cone-surface $-1 -28.822723792649569 15.697445521768863 0.87728621476679103 0 -0.6018150307709319 -0.79863550430605224 1 0 0 1 I I 0 1 1 forward I I I I #
face $-1 $86 $87 $29 $-1 $88 forward single #
loop $-1 $89 $90 $37 #
cone-surface $-1 -21.400395300820875 15.697445521768863 0.87728621476679103 0 -0.6018150307709319 -0.79863550430605224 1 0 0 1 I I 0 1 1 forward I I I I #
face $-1 $91 $92 $30 $-1 $93 reversed single #
loop $-1 $-1 $94 $38 #
plane-surface $-1 38.027144145458543 -19.011285987335427 0.36170537430951555 0 -0.83867057594974714 0.54463902268945019 1 0 0 forward_v I I I I #
face $-1 $95 $96 $31 $-1 $97 forward single #
loop $-1 $98 $99 $39 #
cone-surface $-1 38.027144145458529 -17.126446432839451 1.7240129588041673 0 0.83867057594974714 -0.54463902268945019 0.5 0 0 1 I I 0 1 0.5 forward I I I I #
face $-1 $100 $101 $24 $-1 $102 reversed single #
loop $-1 $-1 $103 $40 #
plane-surface $-1 0 0 -4 0 0 1 1 0 0 forward_v I I I I #
coedge $-1 $104 $105 $106 $107 forward $41 $-1 #
face $-1 $108 $109 $25 $-1 $110 forward single #
loop $-1 $-1 $111 $43 #
plane-surface $-1 -41.193271279030732 -17.511285987335427 0 -1 0 0 0 0 1 forward_v I I I I #
coedge $-1 $112 $113 $114 $115 forward $44 $-1 #
face $-1 $116 $117 $26 $-1 $118 reversed single #
loop $-1 $-1 $119 $46 #
plane-surface $-1 -28.822723792649573 -11.354889956668991 23.532172315632593 0 0.6018150307709319 0.79863550430605224 1 0 0 forward_v I I I I #
coedge $-1 $120 $121 $122 $123 reversed $47 $-1 #
face $-1 $-1 $124 $27 $-1 $125 forward single #
loop $-1 $126 $127 $49 #
cone-surface $-1 -36.245052284478263 14.305751706829405 -0.96955381897247861 0 -0.6018150307709319 -0.79863550430605224 0.5 0 0 1 I I -0.70710678118654746 0.70710678118654746 0.5 forward I I I I #
loop $-1 $-1 $128 $35 #
coedge $-1 $80 $80 $129 $130 reversed $50 $-1 #
face $-1 $-1 $131 $28 $-1 $132 forward single #
loop $-1 $133 $134 $52 #
cone-surface $-1 -28.822723792649569 14.305751706829405 -0.96955381897247861 0 -0.6018150307709319 -0.79863550430605224 0.5 0 0 1 I I -0.70710678118654746 0.70710678118654746 0.5 forward I I I I #
loop $-1 $-1 $135 $36 #
coedge $-1 $85 $85 $136 $137 reversed $53 $-1 #
face $-1 $-1 $138 $29 $-1 $139 forward single #
loop $-1 $140 $141 $55 #
cone-surface $-1 -21.400395300820875 14.305751706829405 -0.96955381897247861 0 -0.6018150307709319 -0.79863550430605224 0.5 0 0 1 I I -0.70710678118654746 0.70710678118654746 0.5 forward I I I I #
loop $-1 $-1 $142 $37 #
coedge $-1 $90 $90 $143 $144 reversed $56 $-1 #
face $-1 $145 $146 $30 $-1 $147 forward single #
loop $-1 $-1 $148 $58 #
plane-surface $-1 30.756275045883967 -94.991507702517808 49.703836701406722 1 0 0 0 0.83867057594974714 -0.54463902268945019 forward_v I I I I #
coedge $-1 $149 $150 $151 $152 reversed $59 $-1 #
face $-1 $-1 $153 $31 $-1 $154 forward single #
loop $-1 $155 $156 $61 #
cone-surface $-1 38.027144145458529 -16.213307274452319 1.1310134747812119 0 0.83867057594974714 -0.54463902268945019 0.25 0 0 1 I I -0.70710678118654746 0.70710678118654746 0.25 forward I I I I #
loop $-1 $-1 $157 $39 #
coedge $-1 $99 $99 $158 $159 reversed $62 $-1 #
face $-1 $160 $161 $24 $-1 $162 reversed single #
loop $-1 $-1 $163 $64 #
plane-surface $-1 0 -19.011285987335427 0 0 1 0 0 0 1 forward_v I I I I #
coedge $-1 $164 $165 $166 $167 forward $65 $-1 #
coedge $-1 $168 $67 $169 $170 forward $41 $-1 #
coedge $-1 $67 $168 $171 $172 forward $41 $-1 #
coedge $-1 $173 $174 $67 $107 reversed $175 $-1 #
edge $-1 $176 -19.011285987335427 $177 19.011285987335427 $106 $178 forward 7 unknown #
face $-1 $179 $180 $25 $-1 $181 reversed single #
loop $-1 $-1 $182 $68 #
plane-surface $-1 0 0 4 0 0 1 1 0 0 forward_v I I I I #
coedge $-1 $183 $184 $185 $186 reversed $69 $-1 #
coedge $-1 $187 $71 $188 $189 reversed $44 $-1 #
coedge $-1 $71 $187 $190 $191 reversed $44 $-1 #
coedge $-1 $184 $183 $71 $115 reversed $69 $-1 #
edge $-1 $192 -4 $193 4 $114 $194 forward 7 unknown #
face $-1 $195 $196 $26 $-1 $197 reversed single #
loop $-1 $-1 $198 $72 #
plane-surface $-1 -16.452176306268413 43.167160513174373 95.8853756196511 -1 0 0 0 0.6018150307709319 0.79863550430605224 forward_v I I I I #
coedge $-1 $199 $200 $201 $202 reversed $73 $-1 #
coedge $-1 $121 $75 $203 $204 reversed $47 $-1 #
coedge $-1 $75 $120 $199 $205 reversed $47 $-1 #
coedge $-1 $201 $206 $75 $123 forward $207 $-1 #
edge $-1 $208 2.5722942692517599 $209 7.0184026012768932 $122 $210 forward 7 unknown #
loop $-1 $-1 $129 $76 #
plane-surface $-1 -28.822723792649573 -11.354889956668991 23.532172315632593 0 0.6018150307709319 0.79863550430605224 1 0 0 forward_v I I I I #
loop $-1 $-1 $211 $49 #
coedge $-1 $127 $127 $128 $212 reversed $77 $-1 #
coedge $-1 $128 $128 $127 $212 forward $79 $-1 #
coedge $-1 $129 $129 $80 $130 forward $124 $-1 #
edge $-1 $213 -1.398493577192428e-015 $213 6.2831853071795987 $129 $214 forward 7 unknown #
loop $-1 $-1 $136 $81 #
plane-surface $-1 -28.822723792649573 -11.354889956668991 23.532172315632593 0 0.6018150307709319 0.79863550430605224 1 0 0 forward_v I I I I #
loop $-1 $-1 $215 $52 #
coedge $-1 $134 $134 $135 $216 reversed $82 $-1 #
coedge $-1 $135 $135 $134 $216 forward $84 $-1 #
coedge $-1 $136 $136 $85 $137 forward $131 $-1 #
edge $-1 $217 -1.398493577192428e-015 $217 6.2831853071795987 $136 $218 forward 7 unknown #
loop $-1 $-1 $143 $86 #
plane-surface $-1 -28.822723792649573 -11.354889956668991 23.532172315632593 0 0.6018150307709319 0.79863550430605224 1 0 0 forward_v I I I I #
loop $-1 $-1 $219 $55 #
coedge $-1 $141 $141 $142 $220 reversed $87 $-1 #
coedge $-1 $142 $142 $141 $220 forward $89 $-1 #
coedge $-1 $143 $143 $90 $144 forward $138 $-1 #
edge $-1 $221 -1.398493577192428e-015 $221 6.2831853071795987 $143 $222 forward 7 unknown #
face $-1 $223 $224 $30 $-1 $225 reversed single #
loop $-1 $-1 $151 $91 #
plane-surface $-1 0 0 4 0 0 1 1 0 0 forward_v I I I I #
coedge $-1 $226 $227 $228 $229 reversed $92 $-1 #
coedge $-1 $230 $94 $231 $232 reversed $59 $-1 #
coedge $-1 $94 $230 $226 $233 forward $59 $-1 #
coedge $-1 $228 $234 $94 $152 forward $146 $-1 #
edge $-1 $235 -26.284441172303847 $236 -11.742702973154696 $151 $237 forward 7 unknown #
loop $-1 $-1 $158 $95 #
plane-surface $-1 38.027144145458543 -19.011285987335427 0.36170537430951555 0 -0.83867057594974714 0.54463902268945019 1 0 0 forward_v I I I I #
loop $-1 $-1 $238 $61 #
coedge $-1 $156 $156 $157 $239 reversed $96 $-1 #
coedge $-1 $157 $157 $156 $239 forward $98 $-1 #
coedge $-1 $158 $158 $99 $159 forward $153 $-1 #
edge $-1 $240 1.4897782135920807e-015 $240 6.2831853071796022 $158 $241 forward 7 unknown #
face $-1 $242 $243 $24 $-1 $244 reversed single #
loop $-1 $-1 $245 $100 #
plane-surface $-1 -45.298013245033111 0 0 1 0 0 0 0 -1 forward_v I I I I #
coedge $-1 $246 $171 $247 $248 forward $101 $-1 #
coedge $-1 $249 $103 $246 $250 forward $65 $-1 #
coedge $-1 $103 $249 $251 $252 forward $65 $-1 #
coedge $-1 $174 $173 $103 $167 reversed $175 $-1 #
edge $-1 $253 -19.011285987335427 $254 19.011285987335427 $166 $255 forward 7 unknown #
coedge $-1 $105 $104 $256 $257 forward $41 $-1 #
coedge $-1 $258 $259 $104 $170 reversed $243 $-1 #
edge $-1 $177 -45.298013245033111 $260 45.298013245033111 $169 $261 forward 7 unknown #
coedge $-1 $163 $262 $105 $172 reversed $101 $-1 #
edge $-1 $263 -45.298013245033111 $176 45.298013245033111 $171 $264 forward 7 unknown #
coedge $-1 $166 $106 $262 $265 forward $175 $-1 #
coedge $-1 $106 $166 $258 $266 reversed $175 $-1 #
loop $-1 $-1 $173 $242 #
vertex $-1 $107 $267 #
vertex $-1 $107 $268 #
straight-curve $-1 45.298013245033111 0 4 0 1 0 I I #
face $-1 $269 $270 $25 $-1 $271 reversed single #
loop $-1 $-1 $272 $108 #
plane-surface $-1 -45.298013245033111 0 0 1 0 0 0 0 -1 forward_v I I I I #
coedge $-1 $190 $273 $184 $274 forward $109 $-1 #
coedge $-1 $114 $111 $275 $276 reversed $69 $-1 #
coedge $-1 $111 $114 $182 $274 reversed $69 $-1 #
coedge $-1 $277 $278 $111 $186 forward $279 $-1 #
edge $-1 $280 -4 $281 4 $185 $282 forward 7 unknown #
coedge $-1 $113 $112 $272 $283 reversed $44 $-1 #
coedge $-1 $275 $284 $112 $189 forward $270 $-1 #
edge $-1 $285 -23.67519211401715 $193 -19.570450148014771 $188 $286 forward 7 unknown #
coedge $-1 $287 $182 $113 $191 forward $109 $-1 #
edge $-1 $192 19.570450148014771 $288 23.67519211401715 $190 $289 forward 7 unknown #
vertex $-1 $191 $290 #
vertex $-1 $189 $291 #
straight-curve $-1 -41.193271279030732 -16.011285987335427 0 0 0 -1 I I #
face $-1 $-1 $207 $26 $-1 $292 forward single #
loop $-1 $-1 $293 $116 #
plane-surface $-1 0 19.011285987335427 0 0 -1 0 0 0 -1 forward_v I I I I #
coedge $-1 $294 $295 $296 $297 reversed $117 $-1 #
coedge $-1 $298 $119 $121 $205 forward $73 $-1 #
coedge $-1 $119 $298 $294 $299 forward $73 $-1 #
coedge $-1 $296 $122 $119 $202 forward $207 $-1 #
edge $-1 $209 -26.781909382705948 $300 -2.0408144099436267 $201 $301 forward 7 unknown #
coedge $-1 $302 $303 $120 $204 forward $196 $-1 #
edge $-1 $304 -47.293070817119464 $208 -43.94268780982555 $203 $305 forward 7 unknown #
edge $-1 $209 32.455441152095617 $304 38.022571974670853 $121 $306 forward 7 unknown #
coedge $-1 $122 $296 $302 $307 forward $207 $-1 #
loop $-1 $-1 $296 $195 #
vertex $-1 $204 $308 #
vertex $-1 $123 $309 #
straight-curve $-1 -41.193271279030732 21.583580256587187 4 0 -1 0 I I #
coedge $-1 $211 $211 $-1 $310 reversed $126 $-1 #
edge $-1 $311 0 $311 6.2831853071796004 $127 $312 forward 7 unknown #
vertex $-1 $130 $313 #
ellipse-curve $-1 -36.245052284478263 16.78823182132286 2.3248084963530418 0 0.6018150307709319 0.79863550430605224 1 0 0 1 I I #
coedge $-1 $215 $215 $-1 $314 reversed $133 $-1 #
edge $-1 $315 0 $315 6.2831853071796004 $134 $316 forward 7 unknown #
vertex $-1 $137 $317 #
ellipse-curve $-1 -28.822723792649569 16.78823182132286 2.3248084963530418 0 0.6018150307709319 0.79863550430605224 1 0 0 1 I I #
coedge $-1 $219 $219 $-1 $318 reversed $140 $-1 #
edge $-1 $319 0 $319 6.2831853071796004 $141 $320 forward 7 unknown #
vertex $-1 $144 $321 #
ellipse-curve $-1 -21.400395300820875 16.78823182132286 2.3248084963530418 0 0.6018150307709319 0.79863550430605224 1 0 0 1 I I #
face $-1 $-1 $322 $30 $-1 $323 reversed single #
loop $-1 $-1 $324 $145 #
plane-surface $-1 0 -19.011285987335427 0 0 1 0 0 0 1 forward_v I I I I #
coedge $-1 $227 $148 $150 $233 reversed $92 $-1 #
coedge $-1 $148 $226 $325 $326 reversed $92 $-1 #
coedge $-1 $327 $151 $148 $229 forward $146 $-1 #
edge $-1 $236 -30.847203944116039 $328 -28.484467863923477 $228 $329 forward 7 unknown #
coedge $-1 $150 $149 $324 $330 reversed $59 $-1 #
coedge $-1 $331 $332 $149 $232 forward $322 $-1 #
edge $-1 $333 -5.0254682828078625 $235 -0.68729936401597513 $231 $334 forward 7 unknown #
edge $-1 $335 0 $236 4.3381689187918875 $226 $336 forward 7 unknown #
coedge $-1 $151 $327 $331 $337 forward $146 $-1 #
vertex $-1 $152 $338 #
vertex $-1 $152 $339 #
straight-curve $-1 19.013572072729271 -16.648549907142865 4 -1 0 0 I I #
coedge $-1 $238 $238 $-1 $340 reversed $155 $-1 #
edge $-1 $341 0 $341 6.2831853071796004 $156 $342 forward 7 unknown #
vertex $-1 $159 $343 #
ellipse-curve $-1 38.027144145458529 -17.829917947239146 2.1808526871547587 0 -0.83867057594974714 0.54463902268945019 0.5 0 0 1 I I #
face $-1 $-1 $175 $24 $-1 $344 reversed single #
loop $-1 $-1 $258 $160 #
plane-surface $-1 0 19.011285987335427 0 0 -1 0 0 0 -1 forward_v I I I I #
coedge $-1 $345 $256 $259 $346 forward $161 $-1 #
coedge $-1 $262 $163 $164 $250 reversed $101 $-1 #
coedge $-1 $256 $345 $163 $248 reversed $161 $-1 #
edge $-1 $263 -4 $347 4 $247 $348 forward 7 unknown #
coedge $-1 $165 $164 $345 $349 forward $65 $-1 #
edge $-1 $254 -45.298013245033111 $347 45.298013245033111 $246 $350 forward 7 unknown #
coedge $-1 $259 $258 $165 $252 reversed $243 $-1 #
edge $-1 $351 -45.298013245033111 $253 45.298013245033111 $251 $352 forward 7 unknown #
vertex $-1 $167 $353 #
vertex $-1 $265 $354 #
straight-curve $-1 45.298013245033111 0 -4 0 -1 0 I I #
coedge $-1 $245 $247 $168 $257 reversed $161 $-1 #
edge $-1 $260 -19.011285987335427 $263 19.011285987335427 $256 $355 forward 7 unknown #
coedge $-1 $251 $169 $174 $266 forward $243 $-1 #
coedge $-1 $169 $251 $245 $346 reversed $243 $-1 #
vertex $-1 $170 $356 #
straight-curve $-1 0 19.011285987335427 4 -1 0 0 I I #
coedge $-1 $171 $246 $173 $265 reversed $101 $-1 #
vertex $-1 $257 $357 #
straight-curve $-1 0 -19.011285987335427 4 1 0 0 I I #
edge $-1 $176 -4 $254 4 $173 $358 forward 7 unknown #
edge $-1 $177 -4 $253 4 $174 $359 forward 7 unknown #
point $-1 45.298013245033111 -19.011285987335427 4 #
point $-1 45.298013245033111 19.011285987335427 4 #
face $-1 $-1 $279 $25 $-1 $360 reversed single #
loop $-1 $-1 $275 $179 #
plane-surface $-1 0 0 -4 0 0 1 1 0 0 forward_v I I I I #
coedge $-1 $361 $362 $187 $283 forward $180 $-1 #
coedge $-1 $182 $287 $277 $363 forward $109 $-1 #
edge $-1 $281 -10.255642993667713 $192 -7.2556429936677134 $182 $364 forward 7 unknown #
coedge $-1 $365 $188 $183 $276 forward $270 $-1 #
edge $-1 $193 7.2556429936677134 $280 10.255642993667713 $275 $366 forward 7 unknown #
coedge $-1 $367 $185 $273 $363 reversed $279 $-1 #
coedge $-1 $185 $367 $365 $368 reversed $279 $-1 #
loop $-1 $-1 $185 $269 #
vertex $-1 $368 $369 #
vertex $-1 $186 $370 #
straight-curve $-1 -41.193271279030732 -19.011285987335427 0 0 0 1 I I #
edge $-1 $288 -4 $285 4 $272 $371 forward 7 unknown #
coedge $-1 $188 $365 $361 $372 forward $270 $-1 #
vertex $-1 $189 $373 #
straight-curve $-1 -21.622821131015961 -16.011285987335427 -4 1 0 0 I I #
coedge $-1 $273 $190 $362 $374 forward $109 $-1 #
vertex $-1 $374 $375 #
straight-curve $-1 -21.622821131015961 -16.011285987335427 4 -1 0 0 I I #
point $-1 -41.193271279030732 -16.011285987335427 4 #
point $-1 -41.193271279030732 -16.011285987335427 -4 #
plane-surface $-1 0 0 4 0 0 1 1 0 0 forward_v I I I I #
coedge $-1 $303 $302 $295 $376 forward $196 $-1 #
coedge $-1 $295 $198 $200 $299 reversed $117 $-1 #
coedge $-1 $198 $294 $293 $376 reversed $117 $-1 #
coedge $-1 $206 $201 $198 $297 forward $207 $-1 #
edge $-1 $300 -7.0184026012768932 $377 -2.5722942692517599 $296 $378 forward 7 unknown #
coedge $-1 $200 $199 $303 $379 reversed $73 $-1 #
edge $-1 $380 -38.022571974670853 $300 -32.455441152095617 $294 $381 forward 7 unknown #
vertex $-1 $202 $382 #
straight-curve $-1 -14.411361896324786 14.565177655310295 3.9999999999999982 1 0 0 I I #
coedge $-1 $293 $203 $206 $307 reversed $196 $-1 #
coedge $-1 $203 $293 $298 $379 forward $196 $-1 #
vertex $-1 $204 $383 #
straight-curve $-1 -41.193271279030732 19.011285987335427 47.94268780982555 0 0 1 I I #
straight-curve $-1 -41.193271279030732 -11.354889956668991 23.532172315632593 0 0.79863550430605224 -0.6018150307709319 I I #
edge $-1 $377 16.452176306268413 $208 41.193271279030732 $302 $384 forward 7 unknown #
point $-1 -41.193271279030732 19.011285987335427 4 #
point $-1 -41.193271279030732 14.565177655310293 4 #
edge $-1 $385 1 $385 0 $211 $-1 forward 7 unknown #
vertex $-1 $212 $386 #
ellipse-curve $-1 -36.245052284478263 14.606659222214871 -0.57023606681945249 0 0.6018150307709319 0.79863550430605224 1 0 0 1 I I #
point $-1 -35.245052284478263 16.788231821322853 2.3248084963530347 #
edge $-1 $387 1 $387 0 $215 $-1 forward 7 unknown #
vertex $-1 $216 $388 #
ellipse-curve $-1 -28.822723792649569 14.606659222214871 -0.57023606681945249 0 0.6018150307709319 0.79863550430605224 1 0 0 1 I I #
point $-1 -27.822723792649569 16.788231821322853 2.3248084963530347 #
edge $-1 $389 1 $389 0 $219 $-1 forward 7 unknown #
vertex $-1 $220 $390 #
ellipse-curve $-1 -21.400395300820875 14.606659222214871 -0.57023606681945249 0 0.6018150307709319 0.79863550430605224 1 0 0 1 I I #
point $-1 -20.400395300820875 16.788231821322853 2.3248084963530347 #
loop $-1 $-1 $231 $223 #
plane-surface $-1 45.298013245033111 0 0 -1 0 0 0 0 1 forward_v I I I I #
coedge $-1 $391 $325 $230 $330 forward $224 $-1 #
coedge $-1 $324 $392 $227 $326 forward $224 $-1 #
edge $-1 $328 20.851918350703361 $335 24.490212976393845 $325 $393 forward 7 unknown #
coedge $-1 $234 $228 $392 $394 forward $146 $-1 #
vertex $-1 $394 $395 #
straight-curve $-1 30.756275045883967 -47.495753851258904 4 0 -1 0 I I #
edge $-1 $335 11.742702973154696 $333 26.284441172303847 $324 $396 forward 7 unknown #
coedge $-1 $332 $231 $234 $337 reversed $322 $-1 #
coedge $-1 $231 $331 $391 $397 forward $322 $-1 #
vertex $-1 $330 $398 #
straight-curve $-1 45.298013245033111 -16.274219853230125 4.5764177534691735 0 0.54463902268945019 0.83867057594974714 I I #
vertex $-1 $330 $399 #
straight-curve $-1 30.756275045883967 -19.011285987335427 0.36170537430951555 0 0.54463902268945019 0.83867057594974714 I I #
edge $-1 $400 -19.011285987335427 $235 -16.648549907142865 $331 $401 forward 7 unknown #
point $-1 45.298013245033118 -16.648549907142865 3.9999999999999996 #
point $-1 30.756275045883967 -16.648549907142865 3.9999999999999996 #
edge $-1 $402 1 $402 0 $238 $-1 forward 7 unknown #
vertex $-1 $239 $403 #
ellipse-curve $-1 38.027144145458529 -16.422974918439756 1.2671732304535746 0 -0.83867057594974714 0.54463902268945019 0.5 0 0 1 I I #
point $-1 38.527144145458529 -17.829917947239146 2.1808526871547596 #
plane-surface $-1 45.298013245033111 0 0 -1 0 0 0 0 1 forward_v I I I I #
coedge $-1 $247 $245 $249 $349 reversed $161 $-1 #
edge $-1 $260 -4 $351 4 $259 $404 forward 7 unknown #
vertex $-1 $349 $405 #
straight-curve $-1 -45.298013245033111 -19.011285987335427 0 0 0 -1 I I #
edge $-1 $347 -19.011285987335427 $351 19.011285987335427 $345 $406 forward 7 unknown #
straight-curve $-1 0 -19.011285987335427 -4 -1 0 0 I I #
vertex $-1 $252 $407 #
straight-curve $-1 0 19.011285987335427 -4 1 0 0 I I #
point $-1 45.298013245033111 19.011285987335427 -4 #
point $-1 45.298013245033111 -19.011285987335427 -4 #
straight-curve $-1 -45.298013245033111 0 4 0 -1 0 I I #
point $-1 -45.298013245033111 19.011285987335427 4 #
point $-1 -45.298013245033111 -19.011285987335427 4 #
straight-curve $-1 45.298013245033111 -19.011285987335427 0 0 0 -1 I I #
straight-curve $-1 45.298013245033111 19.011285987335427 0 0 0 -1 I I #
plane-surface $-1 0 -19.011285987335427 0 0 1 0 0 0 1 forward_v I I I I #
coedge $-1 $408 $272 $284 $372 reversed $180 $-1 #
coedge $-1 $272 $408 $287 $374 reversed $180 $-1 #
edge $-1 $409 -45.298013245033111 $281 -41.193271279030732 $277 $410 forward 7 unknown #
straight-curve $-1 -41.193271279030732 -8.7556429936677134 4 0 1 0 I I #
coedge $-1 $284 $275 $278 $368 forward $270 $-1 #
straight-curve $-1 -41.193271279030732 -8.7556429936677134 -4 0 -1 0 I I #
coedge $-1 $278 $277 $408 $411 forward $279 $-1 #
edge $-1 $280 41.193271279030732 $412 45.298013245033111 $278 $413 forward 7 unknown #
point $-1 -41.193271279030732 -19.011285987335427 -4 #
point $-1 -41.193271279030732 -19.011285987335427 4 #
straight-curve $-1 -45.298013245033111 -16.011285987335427 0 0 0 -1 I I #
edge $-1 $412 -19.011285987335427 $285 -16.011285987335427 $361 $414 forward 7 unknown #
point $-1 -45.298013245033111 -16.011285987335427 -4 #
edge $-1 $288 16.011285987335427 $409 19.011285987335427 $362 $415 forward 7 unknown #
point $-1 -45.298013245033111 -16.011285987335427 4 #
edge $-1 $377 43.94268780982555 $380 47.293070817119464 $293 $416 forward 7 unknown #
vertex $-1 $307 $417 #
straight-curve $-1 -16.452176306268413 21.583580256587187 4 0 1 0 I I #
edge $-1 $380 2.0408144099436267 $304 26.781909382705948 $303 $418 forward 7 unknown #
vertex $-1 $379 $419 #
straight-curve $-1 -16.452176306268413 -11.354889956668991 23.532172315632593 0 -0.79863550430605224 0.6018150307709319 I I #
point $-1 -16.452176306268413 14.565177655310293 4 #
point $-1 -41.193271279030732 19.01128598733543 0.64961699270608619 #
straight-curve $-1 0 19.011285987335427 4 -1 0 0 I I #
vertex $-1 $310 $420 #
point $-1 -35.245052284478263 14.606659222214871 -0.57023606681945249 #
vertex $-1 $314 $421 #
point $-1 -27.822723792649569 14.606659222214871 -0.57023606681945249 #
vertex $-1 $318 $422 #
point $-1 -20.400395300820875 14.606659222214871 -0.57023606681945249 #
coedge $-1 $392 $324 $332 $397 reversed $224 $-1 #
coedge $-1 $325 $391 $327 $394 reversed $224 $-1 #
straight-curve $-1 30.756275045883967 -19.011285987335427 24.851918350703361 0 0 -1 I I #
edge $-1 $328 30.756275045883967 $400 45.298013245033111 $392 $423 forward 7 unknown #
point $-1 30.756275045883967 -19.011285987335427 4 #
straight-curve $-1 19.013572072729271 -19.011285987335427 0.36170537430951455 1 0 0 I I #
edge $-1 $400 -4 $333 -0.36170537430951555 $332 $424 forward 7 unknown #
point $-1 45.298013245033118 -19.011285987335427 0.36170537430951555 #
point $-1 30.756275045883967 -19.011285987335427 0.36170537430951555 #
vertex $-1 $337 $425 #
straight-curve $-1 45.298013245033111 0 4 0 1 0 I I #
vertex $-1 $340 $426 #
point $-1 38.527144145458529 -16.422974918439756 1.2671732304535746 #
straight-curve $-1 -45.298013245033111 19.011285987335427 0 0 0 -1 I I #
point $-1 -45.298013245033111 -19.011285987335427 -4 #
straight-curve $-1 -45.298013245033111 0 -4 0 1 0 I I #
point $-1 -45.298013245033111 19.011285987335427 -4 #
coedge $-1 $362 $361 $367 $411 reversed $180 $-1 #
vertex $-1 $374 $427 #
straight-curve $-1 0 -19.011285987335427 4 1 0 0 I I #
edge $-1 $409 -4 $412 4 $408 $428 forward 7 unknown #
vertex $-1 $372 $429 #
straight-curve $-1 0 -19.011285987335427 -4 -1 0 0 I I #
straight-curve $-1 -45.298013245033111 0 -4 0 1 0 I I #
straight-curve $-1 -45.298013245033111 0 4 0 -1 0 I I #
straight-curve $-1 -16.452176306268413 19.011285987335427 47.94268780982555 0 0 -1 I I #
point $-1 -16.452176306268413 19.011285987335427 4 #
straight-curve $-1 -14.411361896324786 19.011285987335423 0.64961699270608797 -1 0 0 I I #
point $-1 -16.452176306268413 19.01128598733543 0.64961699270608619 #
point $-1 -36.245052284478263 14.004844191443938 -1.3688715711255046 #
point $-1 -28.822723792649569 14.004844191443938 -1.3688715711255046 #
point $-1 -21.400395300820875 14.004844191443938 -1.3688715711255046 #
straight-curve $-1 0 -19.011285987335427 4 1 0 0 I I #
straight-curve $-1 45.298013245033111 -19.011285987335427 0 0 0 -1 I I #
point $-1 45.298013245033111 -19.011285987335427 4 #
point $-1 38.027144145458529 -16.003639630464882 0.99485371910884934 #
point $-1 -45.298013245033111 -19.011285987335427 4 #
straight-curve $-1 -45.298013245033111 -19.011285987335427 0 0 0 -1 I I #
point $-1 -45.298013245033111 -19.011285987335427 -4 #
End-of-ACIS-data 