500 0 9 0           
7 Unknown 11 ACIS 5.0 NT 24 Thu Mar 25 16:01:39 1999 
-1 9.9999999999999995e-007 1e-010 
body $-1 $9 $-1 $10 #
body $-1 $11 $-1 $12 #
body $-1 $13 $-1 $14 #
body $-1 $15 $-1 $16 #
body $-1 $17 $-1 $18 #
body $-1 $19 $-1 $20 #
body $-1 $21 $-1 $22 #
body $-1 $23 $-1 $24 #
body $-1 $25 $-1 $26 #
lump $-1 $-1 $27 $0 #
transform $-1 1 0 0 0 1 0 0 0 1 68.977935117648855 43.812682651130054 14.914255953466441 1 rotate no_reflect no_shear #
lump $-1 $-1 $28 $1 #
transform $-1 1 0 0 0 1 0 0 0 1 68.977935117648855 43.812682651130054 14.914255953466441 1 rotate no_reflect no_shear #
lump $-1 $-1 $29 $2 #
transform $-1 1 0 0 0 1 0 0 0 1 68.977935117648855 43.812682651130054 14.914255953466441 1 rotate no_reflect no_shear #
lump $-1 $-1 $30 $3 #
transform $-1 1 0 0 0 1 0 0 0 1 68.977935117648855 43.812682651130054 14.914255953466441 1 rotate no_reflect no_shear #
lump $-1 $-1 $31 $4 #
transform $-1 1 0 0 0 1 0 0 0 1 68.977935117648855 43.812682651130054 14.914255953466441 1 rotate no_reflect no_shear #
lump $-1 $-1 $32 $5 #
transform $-1 1 0 0 0 1 0 0 0 1 68.977935117648855 43.812682651130054 14.914255953466441 1 rotate no_reflect no_shear #
lump $-1 $-1 $33 $6 #
transform $-1 1 0 0 0 1 0 0 0 1 68.977935117648855 43.812682651130054 14.914255953466441 1 rotate no_reflect no_shear #
lump $-1 $-1 $34 $7 #
transform $-1 1 0 0 0 1 0 0 0 1 68.977935117648855 43.812682651130054 14.914255953466441 1 rotate no_reflect no_shear #
lump $-1 $-1 $35 $8 #
transform $-1 1 0 0 0 1 0 0 0 1 68.977935117648855 43.812682651130054 14.914255953466441 1 rotate no_reflect no_shear #
shell $-1 $-1 $-1 $36 $-1 $9 #
shell $-1 $-1 $-1 $37 $-1 $11 #
shell $-1 $-1 $-1 $38 $-1 $13 #
shell $-1 $-1 $-1 $39 $-1 $15 #
shell $-1 $-1 $-1 $40 $-1 $17 #
shell $-1 $-1 $-1 $41 $-1 $19 #
shell $-1 $-1 $-1 $42 $-1 $21 #
shell $-1 $-1 $-1 $43 $-1 $23 #
shell $-1 $-1 $-1 $44 $-1 $25 #
face $-1 $45 $46 $27 $-1 $47 forward single #
face $-1 $48 $49 $28 $-1 $50 forward single #
face $-1 $51 $52 $29 $-1 $53 reversed single #
face $-1 $54 $55 $30 $-1 $56 forward single #
face $-1 $57 $58 $31 $-1 $59 reversed single #
face $-1 $60 $61 $32 $-1 $62 forward single #
face $-1 $63 $64 $33 $-1 $65 reversed single #
face $-1 $66 $67 $34 $-1 $68 forward single #
face $-1 $69 $70 $35 $-1 $71 forward single #
face $-1 $72 $73 $27 $-1 $74 reversed single #
loop $-1 $-1 $75 $36 #
plane-surface $-1 0 0 14.914255953466441 0 0 1 1 0 0 forward_v I I I I #
face $-1 $76 $77 $28 $-1 $78 forward single #
loop $-1 $-1 $79 $37 #
plane-surface $-1 -68.977935117648855 0 0 1 0 0 0 0 -1 forward_v I I I I #
face $-1 $80 $81 $29 $-1 $82 reversed single #
loop $-1 $-1 $83 $38 #
plane-surface $-1 -29.218883565729527 39.755611936372397 167.26205651266886 1 0 0 0 -0.51503808176128008 -0.85716729658548041 forward_v I I I I #
face $-1 $84 $85 $30 $-1 $86 forward single #
loop $-1 $87 $88 $39 #
cone-surface $-1 -13.612943632294268 33.502434613749038 7.5191285323975379 0 -0.51503808176128008 -0.85716729658548041 4 0 0 1 I I 0 1 4 forward I I I I #
face $-1 $89 $90 $31 $-1 $91 reversed single #
loop $-1 $-1 $92 $40 #
plane-surface $-1 33.766549298999188 39.755611936372397 167.26205651266886 1 0 0 0 -0.51503808176128008 -0.85716729658548041 forward_v I I I I #
face $-1 $93 $94 $32 $-1 $95 forward single #
loop $-1 $96 $97 $41 #
cone-surface $-1 49.372489232434447 33.502434613749038 7.5191285323975379 0 -0.51503808176128008 -0.85716729658548041 4 0 0 1 I I 0 1 4 forward I I I I #
face $-1 $98 $99 $33 $-1 $100 reversed single #
loop $-1 $-1 $101 $42 #
plane-surface $-1 59.614986268477224 -43.812682651130046 4.5396125851932823 0 -0.61566148304635926 0.78801074757464917 1 0 0 forward_v I I I I #
face $-1 $102 $103 $34 $-1 $104 forward single #
loop $-1 $105 $106 $43 #
cone-surface $-1 55.602293904546499 -36.103505028542806 8.3577695033673525 0 0.61566148304635926 -0.78801074757464917 1.5 0 0 1 I I 0 1 1.5 forward I I I I #
face $-1 $107 $108 $35 $-1 $109 forward single #
loop $-1 $110 $111 $44 #
cone-surface $-1 63.627678632407907 -36.103505028542806 8.3577695033673525 0 0.61566148304635926 -0.78801074757464917 1.5 0 0 1 I I 0 1 1.5 forward I I I I #
face $-1 $112 $113 $27 $-1 $114 reversed single #
loop $-1 $-1 $115 $45 #
plane-surface $-1 0 0 -14.914255953466441 0 0 1 1 0 0 forward_v I I I I #
coedge $-1 $116 $117 $118 $119 forward $46 $-1 #
face $-1 $120 $121 $28 $-1 $122 reversed single #
loop $-1 $-1 $123 $48 #
plane-surface $-1 0 0 14.914255953466441 0 0 1 1 0 0 forward_v I I I I #
coedge $-1 $124 $125 $126 $127 forward $49 $-1 #
face $-1 $128 $129 $29 $-1 $130 reversed single #
loop $-1 $-1 $131 $51 #
plane-surface $-1 -13.612943632294268 -31.296914837323406 49.01079617498138 0 0.51503808176128008 0.85716729658548041 1 0 0 forward_v I I I I #
coedge $-1 $132 $133 $134 $135 reversed $52 $-1 #
face $-1 $-1 $136 $30 $-1 $137 forward single #
loop $-1 $138 $139 $54 #
cone-surface $-1 -13.612943632294268 31.343823515862745 3.9265964368539379 0 -0.51503808176128008 -0.85716729658548041 2 0 0 1 I I -0.70710678118654746 0.70710678118654746 2 forward I I I I #
loop $-1 $-1 $140 $39 #
coedge $-1 $88 $88 $141 $142 reversed $55 $-1 #
face $-1 $143 $144 $31 $-1 $145 reversed single #
loop $-1 $-1 $146 $57 #
plane-surface $-1 49.372489232434447 -31.296914837323406 49.01079617498138 0 0.51503808176128008 0.85716729658548041 1 0 0 forward_v I I I I #
coedge $-1 $147 $148 $149 $150 reversed $58 $-1 #
face $-1 $-1 $151 $32 $-1 $152 forward single #
loop $-1 $153 $154 $60 #
cone-surface $-1 49.372489232434447 31.343823515862745 3.9265964368539379 0 -0.51503808176128008 -0.85716729658548041 2 0 0 1 I I -0.70710678118654746 0.70710678118654746 2 forward I I I I #
loop $-1 $-1 $155 $41 #
coedge $-1 $97 $97 $156 $157 reversed $61 $-1 #
face $-1 $158 $159 $33 $-1 $160 reversed single #
loop $-1 $-1 $161 $63 #
plane-surface $-1 50.25203741930558 -128.74679831514453 113.25032102162152 1 0 0 0 0.61566148304635926 -0.78801074757464917 forward_v I I I I #
coedge $-1 $162 $163 $164 $165 reversed $64 $-1 #
face $-1 $-1 $166 $34 $-1 $167 forward single #
loop $-1 $168 $169 $66 #
cone-surface $-1 55.602293904546499 -34.572050142688994 6.3975966767238504 0 0.61566148304635926 -0.78801074757464917 0.75 0 0 1 I I -0.70710678118654757 0.70710678118654757 0.75 forward I I I I #
loop $-1 $-1 $170 $43 #
coedge $-1 $106 $106 $171 $172 reversed $67 $-1 #
face $-1 $-1 $173 $35 $-1 $174 forward single #
loop $-1 $175 $176 $69 #
cone-surface $-1 63.627678632407907 -34.572050142688994 6.3975966767238504 0 0.61566148304635926 -0.78801074757464917 0.75 0 0 1 I I -0.70710678118654757 0.70710678118654757 0.75 forward I I I I #
loop $-1 $-1 $177 $44 #
coedge $-1 $111 $111 $178 $179 reversed $70 $-1 #
face $-1 $180 $181 $27 $-1 $182 reversed single #
loop $-1 $-1 $183 $72 #
plane-surface $-1 0 -43.812682651130054 0 0 1 0 0 0 1 forward_v I I I I #
coedge $-1 $184 $185 $186 $187 forward $73 $-1 #
coedge $-1 $188 $75 $189 $190 forward $46 $-1 #
coedge $-1 $75 $188 $191 $192 forward $46 $-1 #
coedge $-1 $193 $194 $75 $119 reversed $195 $-1 #
edge $-1 $196 -43.812682651130054 $197 43.812682651130054 $118 $198 forward 7 unknown #
face $-1 $199 $200 $28 $-1 $201 reversed single #
loop $-1 $-1 $202 $76 #
plane-surface $-1 -80.96293962348912 -40.51818281846959 0 1 0 0 0 0 -1 forward_v I I I I #
coedge $-1 $203 $204 $124 $205 forward $77 $-1 #
coedge $-1 $206 $79 $123 $205 reversed $49 $-1 #
coedge $-1 $79 $206 $207 $208 reversed $49 $-1 #
coedge $-1 $209 $210 $79 $127 reversed $200 $-1 #
edge $-1 $211 -14.914255953466441 $212 14.914255953466441 $126 $213 forward 7 unknown #
face $-1 $214 $215 $29 $-1 $216 forward single #
loop $-1 $-1 $217 $80 #
plane-surface $-1 1.992996301140991 39.755611936372397 167.26205651266886 -1 0 0 0 0.51503808176128008 0.85716729658548041 forward_v I I I I #
coedge $-1 $218 $219 $220 $221 reversed $81 $-1 #
coedge $-1 $133 $83 $222 $223 reversed $52 $-1 #
coedge $-1 $83 $132 $218 $224 reversed $52 $-1 #
coedge $-1 $220 $225 $83 $135 forward $215 $-1 #
edge $-1 $226 -23.934876682943855 $227 -5.5714504769092734 $134 $228 forward 7 unknown #
loop $-1 $-1 $141 $84 #
plane-surface $-1 -13.612943632294268 -31.296914837323406 49.01079617498138 0 0.51503808176128008 0.85716729658548041 1 0 0 forward_v I I I I #
loop $-1 $-1 $229 $54 #
coedge $-1 $139 $139 $140 $230 reversed $85 $-1 #
coedge $-1 $140 $140 $139 $230 forward $87 $-1 #
coedge $-1 $141 $141 $88 $142 forward $136 $-1 #
edge $-1 $231 -1.1436142738602941e-015 $231 6.2831853071795996 $141 $232 forward 7 unknown #
face $-1 $233 $234 $31 $-1 $235 forward single #
loop $-1 $-1 $236 $89 #
plane-surface $-1 64.978429165869699 39.755611936372397 167.26205651266886 -1 0 0 0 0.51503808176128008 0.85716729658548041 forward_v I I I I #
coedge $-1 $237 $238 $239 $240 reversed $90 $-1 #
coedge $-1 $148 $92 $241 $242 reversed $58 $-1 #
coedge $-1 $92 $147 $237 $243 reversed $58 $-1 #
coedge $-1 $239 $244 $92 $150 forward $234 $-1 #
edge $-1 $245 -23.934876682943855 $246 -5.5714504769092734 $149 $247 forward 7 unknown #
loop $-1 $-1 $156 $93 #
plane-surface $-1 49.372489232434447 -31.296914837323406 49.01079617498138 0 0.51503808176128008 0.85716729658548041 1 0 0 forward_v I I I I #
loop $-1 $-1 $248 $60 #
coedge $-1 $154 $154 $155 $249 reversed $94 $-1 #
coedge $-1 $155 $155 $154 $249 forward $96 $-1 #
coedge $-1 $156 $156 $97 $157 forward $151 $-1 #
edge $-1 $250 -1.1436142738602941e-015 $250 6.2831853071795996 $156 $251 forward 7 unknown #
face $-1 $252 $253 $33 $-1 $254 forward single #
loop $-1 $-1 $255 $98 #
plane-surface $-1 0 -43.812682651130054 0 0 1 0 0 0 1 forward_v I I I I #
coedge $-1 $256 $257 $258 $259 reversed $99 $-1 #
coedge $-1 $260 $101 $261 $262 reversed $64 $-1 #
coedge $-1 $101 $260 $256 $263 forward $64 $-1 #
coedge $-1 $258 $264 $101 $165 forward $253 $-1 #
edge $-1 $265 -39.170441983410257 $266 -20.444544285066968 $164 $267 forward 7 unknown #
loop $-1 $-1 $171 $102 #
plane-surface $-1 59.614986268477224 -43.812682651130046 4.5396125851932823 0 -0.61566148304635926 0.78801074757464917 1 0 0 forward_v I I I I #
loop $-1 $-1 $268 $66 #
coedge $-1 $169 $169 $170 $269 reversed $103 $-1 #
coedge $-1 $170 $170 $169 $269 forward $105 $-1 #
coedge $-1 $171 $171 $106 $172 forward $166 $-1 #
edge $-1 $270 -3.8200892113183675e-015 $270 6.2831853071795969 $171 $271 forward 7 unknown #
loop $-1 $-1 $178 $107 #
plane-surface $-1 59.614986268477224 -43.812682651130046 4.5396125851932823 0 -0.61566148304635926 0.78801074757464917 1 0 0 forward_v I I I I #
loop $-1 $-1 $272 $69 #
coedge $-1 $176 $176 $177 $273 reversed $108 $-1 #
coedge $-1 $177 $177 $176 $273 forward $110 $-1 #
coedge $-1 $178 $178 $111 $179 forward $173 $-1 #
edge $-1 $274 -3.8200892113183675e-015 $274 6.2831853071795969 $178 $275 forward 7 unknown #
face $-1 $276 $277 $27 $-1 $278 reversed single #
loop $-1 $-1 $279 $112 #
plane-surface $-1 -68.977935117648855 0 0 1 0 0 0 0 -1 forward_v I I I I #
coedge $-1 $280 $191 $281 $282 forward $113 $-1 #
coedge $-1 $283 $115 $280 $284 forward $73 $-1 #
coedge $-1 $115 $283 $285 $286 forward $73 $-1 #
coedge $-1 $194 $193 $115 $187 reversed $195 $-1 #
edge $-1 $287 -43.812682651130054 $288 43.812682651130054 $186 $289 forward 7 unknown #
coedge $-1 $117 $116 $279 $290 forward $46 $-1 #
coedge $-1 $291 $292 $116 $190 reversed $277 $-1 #
edge $-1 $197 -68.977935117648855 $293 68.977935117648855 $189 $294 forward 7 unknown #
coedge $-1 $183 $295 $117 $192 reversed $113 $-1 #
edge $-1 $296 -68.977935117648855 $196 68.977935117648855 $191 $297 forward 7 unknown #
coedge $-1 $186 $118 $295 $298 forward $195 $-1 #
coedge $-1 $118 $186 $291 $299 reversed $195 $-1 #
loop $-1 $-1 $193 $276 #
vertex $-1 $119 $300 #
vertex $-1 $119 $301 #
straight-curve $-1 68.977935117648855 0 14.914255953466441 0 1 0 I I #
face $-1 $302 $303 $28 $-1 $304 reversed single #
loop $-1 $-1 $126 $120 #
plane-surface $-1 -74.970437370568987 -37.223682985809127 0 0 -1 0 0 0 -1 forward_v I I I I #
coedge $-1 $305 $306 $307 $308 forward $121 $-1 #
coedge $-1 $309 $123 $210 $310 forward $77 $-1 #
coedge $-1 $123 $309 $311 $312 forward $77 $-1 #
edge $-1 $313 -43.812682651130054 $212 -37.223682985809127 $123 $314 forward 7 unknown #
coedge $-1 $125 $124 $315 $316 reversed $49 $-1 #
coedge $-1 $317 $318 $125 $208 forward $303 $-1 #
edge $-1 $211 37.223682985809127 $319 43.812682651130054 $207 $320 forward 7 unknown #
coedge $-1 $307 $126 $318 $321 reversed $200 $-1 #
coedge $-1 $126 $307 $203 $310 reversed $200 $-1 #
vertex $-1 $208 $322 #
vertex $-1 $310 $323 #
straight-curve $-1 -68.977935117648855 -37.223682985809127 0 0 0 1 I I #
face $-1 $-1 $324 $29 $-1 $325 reversed single #
loop $-1 $-1 $134 $128 #
plane-surface $-1 0 0 14.914255953466441 0 0 1 1 0 0 forward_v I I I I #
coedge $-1 $326 $327 $328 $329 reversed $129 $-1 #
coedge $-1 $330 $131 $133 $224 forward $81 $-1 #
coedge $-1 $131 $330 $326 $331 forward $81 $-1 #
coedge $-1 $328 $134 $131 $221 forward $215 $-1 #
edge $-1 $227 -22.412411749582393 $332 8.7994681172881251 $220 $333 forward 7 unknown #
coedge $-1 $334 $335 $132 $223 forward $324 $-1 #
edge $-1 $336 -79.750632140260535 $226 -68.716772302867994 $222 $337 forward 7 unknown #
edge $-1 $227 66.201978900113005 $336 87.625365302260107 $133 $338 forward 7 unknown #
coedge $-1 $134 $328 $334 $339 forward $215 $-1 #
vertex $-1 $223 $340 #
vertex $-1 $135 $341 #
straight-curve $-1 -29.218883565729527 19.877805968186198 14.914255953466437 0 -1 0 I I #
coedge $-1 $229 $229 $-1 $342 reversed $138 $-1 #
edge $-1 $343 0 $343 6.2831853071796004 $139 $344 forward 7 unknown #
vertex $-1 $142 $345 #
ellipse-curve $-1 -13.612943632294268 34.630969548112766 9.3973260347701686 0 0.51503808176128008 0.85716729658548041 4 0 0 1 I I #
face $-1 $-1 $346 $31 $-1 $347 reversed single #
loop $-1 $-1 $149 $143 #
plane-surface $-1 0 0 14.914255953466441 0 0 1 1 0 0 forward_v I I I I #
coedge $-1 $348 $349 $350 $351 reversed $144 $-1 #
coedge $-1 $352 $146 $148 $243 forward $90 $-1 #
coedge $-1 $146 $352 $348 $353 forward $90 $-1 #
coedge $-1 $350 $149 $146 $240 forward $234 $-1 #
edge $-1 $246 9.0803046827819642 $354 40.292184549652475 $239 $355 forward 7 unknown #
coedge $-1 $356 $357 $147 $242 forward $346 $-1 #
edge $-1 $358 -79.750632140260535 $245 -68.716772302867994 $241 $359 forward 7 unknown #
edge $-1 $246 66.201978900113005 $358 87.625365302260107 $148 $360 forward 7 unknown #
coedge $-1 $149 $350 $356 $361 forward $234 $-1 #
vertex $-1 $150 $362 #
vertex $-1 $150 $363 #
straight-curve $-1 33.766549298999188 19.877805968186198 14.914255953466437 0 -1 0 I I #
coedge $-1 $248 $248 $-1 $364 reversed $153 $-1 #
edge $-1 $365 0 $365 6.2831853071796004 $154 $366 forward 7 unknown #
vertex $-1 $157 $367 #
ellipse-curve $-1 49.372489232434447 34.630969548112766 9.3973260347701686 0 0.51503808176128008 0.85716729658548041 4 0 0 1 I I #
face $-1 $-1 $368 $33 $-1 $369 reversed single #
loop $-1 $-1 $258 $158 #
plane-surface $-1 0 0 14.914255953466441 0 0 1 1 0 0 forward_v I I I I #
coedge $-1 $370 $371 $257 $372 forward $159 $-1 #
coedge $-1 $257 $161 $163 $263 reversed $99 $-1 #
coedge $-1 $161 $256 $255 $372 reversed $99 $-1 #
coedge $-1 $373 $164 $161 $259 forward $253 $-1 #
edge $-1 $266 -33.839654204478634 $374 -20.560716506442212 $258 $375 forward 7 unknown #
coedge $-1 $163 $162 $370 $376 reversed $64 $-1 #
coedge $-1 $377 $378 $162 $262 forward $368 $-1 #
edge $-1 $379 -15.86500009625593 $265 0.986213848359075 $261 $380 forward 7 unknown #
edge $-1 $381 -8.8800565823946346e-015 $266 16.851213944614994 $256 $382 forward 7 unknown #
coedge $-1 $164 $373 $377 $383 forward $253 $-1 #
vertex $-1 $262 $384 #
vertex $-1 $165 $385 #
straight-curve $-1 29.807493134238612 -30.533744953093631 14.914255953466441 -1 0 0 I I #
coedge $-1 $268 $268 $-1 $386 reversed $168 $-1 #
edge $-1 $387 0 $387 6.2831853071796004 $169 $388 forward 7 unknown #
vertex $-1 $172 $389 #
ellipse-curve $-1 55.602293904546499 -37.173213802111839 9.7269342693298579 0 -0.61566148304635926 0.78801074757464917 1.5 0 0 1 I I #
coedge $-1 $272 $272 $-1 $390 reversed $175 $-1 #
edge $-1 $391 0 $391 6.2831853071796004 $176 $392 forward 7 unknown #
vertex $-1 $179 $393 #
ellipse-curve $-1 63.627678632407907 -37.173213802111839 9.7269342693298579 0 -0.61566148304635926 0.78801074757464917 1.5 0 0 1 I I #
face $-1 $-1 $195 $27 $-1 $394 reversed single #
loop $-1 $-1 $291 $180 #
plane-surface $-1 0 43.812682651130054 0 0 -1 0 0 0 -1 forward_v I I I I #
coedge $-1 $395 $281 $188 $290 reversed $181 $-1 #
coedge $-1 $295 $183 $184 $284 reversed $113 $-1 #
coedge $-1 $279 $396 $183 $282 reversed $181 $-1 #
edge $-1 $296 -14.914255953466441 $397 14.914255953466441 $281 $398 forward 7 unknown #
coedge $-1 $185 $184 $396 $399 forward $73 $-1 #
edge $-1 $288 -68.977935117648855 $397 68.977935117648855 $280 $400 forward 7 unknown #
coedge $-1 $292 $291 $185 $286 reversed $277 $-1 #
edge $-1 $401 -68.977935117648855 $287 68.977935117648855 $285 $402 forward 7 unknown #
vertex $-1 $187 $403 #
vertex $-1 $298 $404 #
straight-curve $-1 68.977935117648855 0 -14.914255953466441 0 -1 0 I I #
edge $-1 $293 -43.812682651130054 $296 43.812682651130054 $279 $405 forward 7 unknown #
coedge $-1 $285 $189 $194 $299 forward $277 $-1 #
coedge $-1 $189 $285 $395 $406 reversed $277 $-1 #
vertex $-1 $190 $407 #
straight-curve $-1 0 43.812682651130054 14.914255953466441 -1 0 0 I I #
coedge $-1 $191 $280 $193 $298 reversed $113 $-1 #
vertex $-1 $290 $408 #
straight-curve $-1 0 -43.812682651130054 14.914255953466441 1 0 0 I I #
edge $-1 $196 -14.914255953466441 $288 14.914255953466441 $193 $409 forward 7 unknown #
edge $-1 $197 -14.914255953466441 $287 14.914255953466441 $194 $410 forward 7 unknown #
point $-1 68.977935117648855 -43.812682651130054 14.914255953466441 #
point $-1 68.977935117648855 43.812682651130054 14.914255953466441 #
face $-1 $-1 $411 $28 $-1 $412 reversed single #
loop $-1 $-1 $207 $199 #
plane-surface $-1 0 0 -14.914255953466441 0 0 1 1 0 0 forward_v I I I I #
coedge $-1 $413 $202 $414 $415 reversed $121 $-1 #
coedge $-1 $202 $413 $309 $416 reversed $121 $-1 #
coedge $-1 $210 $209 $202 $308 reversed $200 $-1 #
edge $-1 $417 -14.914255953466441 $418 14.914255953466441 $307 $419 forward 7 unknown #
coedge $-1 $204 $203 $306 $416 forward $77 $-1 #
edge $-1 $212 -5.9925022529201328 $417 5.9925022529201328 $210 $420 forward 7 unknown #
coedge $-1 $421 $315 $204 $312 reversed $411 $-1 #
edge $-1 $422 -80.96293962348912 $313 -68.977935117648855 $311 $423 forward 7 unknown #
vertex $-1 $316 $424 #
straight-curve $-1 -68.977935117648855 0 14.914255953466441 0 1 0 I I #
coedge $-1 $311 $425 $206 $316 forward $411 $-1 #
edge $-1 $319 -14.914255953466441 $313 14.914255953466441 $315 $426 forward 7 unknown #
coedge $-1 $414 $207 $425 $427 forward $303 $-1 #
coedge $-1 $207 $414 $209 $321 forward $303 $-1 #
vertex $-1 $427 $428 #
straight-curve $-1 -68.977935117648855 0 -14.914255953466441 0 -1 0 I I #
edge $-1 $418 -5.9925022529201328 $211 5.9925022529201328 $209 $429 forward 7 unknown #
point $-1 -68.977935117648855 -37.223682985809127 -14.914255953466441 #
point $-1 -68.977935117648855 -37.223682985809127 14.914255953466441 #
loop $-1 $-1 $222 $214 #
plane-surface $-1 0 43.812682651130054 0 0 -1 0 0 0 -1 forward_v I I I I #
coedge $-1 $327 $217 $219 $331 reversed $129 $-1 #
coedge $-1 $217 $326 $430 $431 reversed $129 $-1 #
coedge $-1 $225 $220 $217 $329 forward $215 $-1 #
edge $-1 $332 5.5714504769092734 $432 23.934876682943855 $328 $433 forward 7 unknown #
coedge $-1 $219 $218 $335 $434 reversed $81 $-1 #
edge $-1 $435 -87.625365302260107 $332 -66.201978900113005 $326 $436 forward 7 unknown #
vertex $-1 $221 $437 #
straight-curve $-1 -6.806471816147134 25.449256445095479 14.914255953466437 1 0 0 I I #
coedge $-1 $430 $222 $225 $339 reversed $324 $-1 #
coedge $-1 $222 $430 $330 $434 forward $324 $-1 #
vertex $-1 $223 $438 #
straight-curve $-1 -29.218883565729527 43.812682651130054 83.631028256334432 0 0 1 I I #
straight-curve $-1 -29.218883565729527 -31.296914837323406 49.01079617498138 0 0.85716729658548041 -0.51503808176128008 I I #
edge $-1 $432 -1.992996301140991 $226 29.218883565729527 $334 $439 forward 7 unknown #
point $-1 -29.218883565729527 43.812682651130054 14.914255953466441 #
point $-1 -29.218883565729527 25.449256445095472 14.914255953466437 #
edge $-1 $440 1 $440 0 $229 $-1 forward 7 unknown #
vertex $-1 $230 $441 #
ellipse-curve $-1 -13.612943632294268 32.373899679385303 5.6409310300248983 0 0.51503808176128008 0.85716729658548041 4 0 0 1 I I #
point $-1 -9.6129436322942681 34.630969548112766 9.3973260347701775 #
loop $-1 $-1 $241 $233 #
plane-surface $-1 0 43.812682651130054 0 0 -1 0 0 0 -1 forward_v I I I I #
coedge $-1 $349 $236 $238 $353 reversed $144 $-1 #
coedge $-1 $236 $348 $442 $443 reversed $144 $-1 #
coedge $-1 $244 $239 $236 $351 forward $234 $-1 #
edge $-1 $354 5.5714504769092734 $444 23.934876682943855 $350 $445 forward 7 unknown #
coedge $-1 $238 $237 $357 $446 reversed $90 $-1 #
edge $-1 $447 -87.625365302260107 $354 -66.201978900113005 $348 $448 forward 7 unknown #
vertex $-1 $240 $449 #
straight-curve $-1 24.686244616217223 25.449256445095479 14.914255953466437 1 0 0 I I #
coedge $-1 $442 $241 $244 $361 reversed $346 $-1 #
coedge $-1 $241 $442 $352 $446 forward $346 $-1 #
vertex $-1 $242 $450 #
straight-curve $-1 33.766549298999188 43.812682651130054 83.631028256334432 0 0 1 I I #
straight-curve $-1 33.766549298999188 -31.296914837323406 49.01079617498138 0 0.85716729658548041 -0.51503808176128008 I I #
edge $-1 $444 -64.978429165869699 $245 -33.766549298999188 $356 $451 forward 7 unknown #
point $-1 33.766549298999188 43.812682651130054 14.914255953466441 #
point $-1 33.766549298999188 25.449256445095472 14.914255953466437 #
edge $-1 $452 1 $452 0 $248 $-1 forward 7 unknown #
vertex $-1 $249 $453 #
ellipse-curve $-1 49.372489232434447 32.373899679385303 5.6409310300248983 0 0.51503808176128008 0.85716729658548041 4 0 0 1 I I #
point $-1 53.372489232434447 34.630969548112766 9.3973260347701775 #
loop $-1 $-1 $261 $252 #
plane-surface $-1 68.977935117648855 0 0 -1 0 0 0 0 1 forward_v I I I I #
coedge $-1 $454 $255 $260 $376 forward $159 $-1 #
coedge $-1 $255 $454 $373 $455 reversed $159 $-1 #
edge $-1 $374 41.710904557344321 $381 52.085547925617483 $255 $456 forward 7 unknown #
coedge $-1 $264 $258 $371 $455 forward $253 $-1 #
vertex $-1 $455 $457 #
straight-curve $-1 50.25203741930558 -64.373399157572265 14.914255953466437 0 -1 0 I I #
edge $-1 $381 20.444544285066968 $379 39.170441983410257 $370 $458 forward 7 unknown #
coedge $-1 $378 $261 $264 $383 reversed $368 $-1 #
coedge $-1 $261 $377 $454 $459 forward $368 $-1 #
vertex $-1 $376 $460 #
straight-curve $-1 68.977935117648855 -31.310892065007536 14.307082072984834 0 0.78801074757464917 0.61566148304635926 I I #
vertex $-1 $376 $461 #
straight-curve $-1 50.25203741930558 -43.812682651130046 4.5396125851932823 0 0.78801074757464917 0.61566148304635926 I I #
edge $-1 $462 -43.812682651130054 $265 -30.533744953093631 $377 $463 forward 7 unknown #
point $-1 68.977935117648869 -30.533744953093631 14.914255953466441 #
point $-1 50.25203741930558 -30.533744953093631 14.914255953466441 #
edge $-1 $464 1 $464 0 $268 $-1 forward 7 unknown #
vertex $-1 $269 $465 #
ellipse-curve $-1 55.602293904546499 -35.033796254973765 6.9886047374048372 0 -0.61566148304635926 0.78801074757464917 1.5 0 0 1 I I #
point $-1 57.102293904546499 -37.173213802111853 9.7269342693298668 #
edge $-1 $466 1 $466 0 $272 $-1 forward 7 unknown #
vertex $-1 $273 $467 #
ellipse-curve $-1 63.627678632407907 -35.033796254973765 6.9886047374048372 0 -0.61566148304635926 0.78801074757464917 1.5 0 0 1 I I #
point $-1 65.127678632407907 -37.173213802111853 9.7269342693298668 #
plane-surface $-1 68.977935117648855 0 0 -1 0 0 0 0 1 forward_v I I I I #
coedge $-1 $396 $279 $292 $406 forward $181 $-1 #
coedge $-1 $281 $395 $283 $399 reversed $181 $-1 #
vertex $-1 $399 $468 #
straight-curve $-1 -68.977935117648855 -43.812682651130054 0 0 0 -1 I I #
edge $-1 $397 -43.812682651130054 $401 43.812682651130054 $396 $469 forward 7 unknown #
straight-curve $-1 0 -43.812682651130054 -14.914255953466441 -1 0 0 I I #
vertex $-1 $286 $470 #
straight-curve $-1 0 43.812682651130054 -14.914255953466441 1 0 0 I I #
point $-1 68.977935117648855 43.812682651130054 -14.914255953466441 #
point $-1 68.977935117648855 -43.812682651130054 -14.914255953466441 #
straight-curve $-1 -68.977935117648855 0 14.914255953466441 0 -1 0 I I #
edge $-1 $293 -14.914255953466441 $401 14.914255953466441 $292 $471 forward 7 unknown #
point $-1 -68.977935117648855 43.812682651130054 14.914255953466441 #
point $-1 -68.977935117648855 -43.812682651130054 14.914255953466441 #
straight-curve $-1 68.977935117648855 -43.812682651130054 0 0 0 -1 I I #
straight-curve $-1 68.977935117648855 43.812682651130054 0 0 0 -1 I I #
loop $-1 $-1 $315 $302 #
plane-surface $-1 0 -43.812682651130054 0 0 1 0 0 0 1 forward_v I I I I #
coedge $-1 $306 $305 $421 $472 reversed $121 $-1 #
coedge $-1 $318 $317 $305 $415 forward $303 $-1 #
edge $-1 $473 -3.2944998326604633 $418 3.2944998326604633 $305 $474 forward 7 unknown #
edge $-1 $417 -3.2944998326604633 $422 3.2944998326604633 $306 $475 forward 7 unknown #
vertex $-1 $310 $476 #
vertex $-1 $321 $477 #
straight-curve $-1 -80.96293962348912 -37.223682985809127 0 0 0 -1 I I #
straight-curve $-1 -74.970437370568987 -37.223682985809127 14.914255953466441 -1 0 0 I I #
coedge $-1 $425 $311 $413 $472 forward $411 $-1 #
vertex $-1 $416 $478 #
straight-curve $-1 0 -43.812682651130054 14.914255953466441 1 0 0 I I #
point $-1 -68.977935117648855 -43.812682651130054 14.914255953466441 #
coedge $-1 $315 $421 $317 $427 reversed $411 $-1 #
straight-curve $-1 -68.977935117648855 -43.812682651130054 0 0 0 1 I I #
edge $-1 $319 -5.9925022529201328 $473 5.9925022529201328 $425 $479 forward 7 unknown #
point $-1 -68.977935117648855 -43.812682651130054 -14.914255953466441 #
straight-curve $-1 -74.970437370568987 -37.223682985809127 -14.914255953466441 1 0 0 I I #
coedge $-1 $335 $334 $327 $431 forward $324 $-1 #
edge $-1 $432 68.716772302867994 $435 79.750632140260535 $430 $480 forward 7 unknown #
vertex $-1 $339 $481 #
straight-curve $-1 1.992996301140991 19.877805968186198 14.914255953466437 0 1 0 I I #
edge $-1 $435 -8.7994681172881251 $336 22.412411749582393 $335 $482 forward 7 unknown #
vertex $-1 $434 $483 #
straight-curve $-1 1.992996301140991 -31.296914837323406 49.01079617498138 0 -0.85716729658548041 0.51503808176128008 I I #
point $-1 1.992996301140991 25.449256445095472 14.914255953466437 #
point $-1 -29.218883565729527 43.812682651130054 3.8803961160738965 #
straight-curve $-1 0 43.812682651130054 14.914255953466441 -1 0 0 I I #
vertex $-1 $342 $484 #
point $-1 -9.6129436322942681 32.373899679385303 5.6409310300248983 #
coedge $-1 $357 $356 $349 $443 forward $346 $-1 #
edge $-1 $444 68.716772302867994 $447 79.750632140260535 $442 $485 forward 7 unknown #
vertex $-1 $361 $486 #
straight-curve $-1 64.978429165869699 19.877805968186198 14.914255953466437 0 1 0 I I #
edge $-1 $447 -40.292184549652475 $358 -9.0803046827819642 $357 $487 forward 7 unknown #
vertex $-1 $446 $488 #
straight-curve $-1 64.978429165869699 -31.296914837323406 49.01079617498138 0 -0.85716729658548041 0.51503808176128008 I I #
point $-1 64.978429165869699 25.449256445095472 14.914255953466437 #
point $-1 33.766549298999188 43.812682651130054 3.8803961160738965 #
straight-curve $-1 0 43.812682651130054 14.914255953466441 -1 0 0 I I #
vertex $-1 $364 $489 #
point $-1 53.372489232434447 32.373899679385303 5.6409310300248983 #
coedge $-1 $371 $370 $378 $459 reversed $159 $-1 #
edge $-1 $374 50.25203741930558 $462 68.977935117648855 $371 $490 forward 7 unknown #
straight-curve $-1 50.25203741930558 -43.812682651130054 56.625160510810758 0 0 -1 I I #
point $-1 50.25203741930558 -43.812682651130054 14.914255953466441 #
straight-curve $-1 29.807493134238612 -43.812682651130054 4.5396125851932743 1 0 0 I I #
edge $-1 $462 -14.914255953466441 $379 -4.5396125851932769 $378 $491 forward 7 unknown #
point $-1 68.977935117648869 -43.812682651130054 4.5396125851932769 #
point $-1 50.25203741930558 -43.812682651130054 4.5396125851932769 #
vertex $-1 $383 $492 #
straight-curve $-1 68.977935117648855 0 14.914255953466441 0 1 0 I I #
vertex $-1 $386 $493 #
point $-1 57.102293904546499 -35.033796254973765 6.9886047374048372 #
vertex $-1 $390 $494 #
point $-1 65.127678632407907 -35.033796254973765 6.9886047374048372 #
point $-1 -68.977935117648855 -43.812682651130054 -14.914255953466441 #
straight-curve $-1 -68.977935117648855 0 -14.914255953466441 0 1 0 I I #
point $-1 -68.977935117648855 43.812682651130054 -14.914255953466441 #
straight-curve $-1 -68.977935117648855 43.812682651130054 0 0 0 -1 I I #
edge $-1 $422 -14.914255953466441 $473 14.914255953466441 $413 $495 forward 7 unknown #
vertex $-1 $415 $496 #
straight-curve $-1 -80.96293962348912 -40.51818281846959 -14.914255953466441 0 1 0 I I #
straight-curve $-1 -80.96293962348912 -40.51818281846959 14.914255953466441 0 -1 0 I I #
point $-1 -80.96293962348912 -37.223682985809127 14.914255953466441 #
point $-1 -80.96293962348912 -37.223682985809127 -14.914255953466441 #
point $-1 -80.96293962348912 -43.812682651130054 14.914255953466441 #
straight-curve $-1 -74.970437370568987 -43.812682651130054 -14.914255953466441 -1 0 0 I I #
straight-curve $-1 1.992996301140991 43.812682651130054 83.631028256334432 0 0 -1 I I #
point $-1 1.992996301140991 43.812682651130054 14.914255953466441 #
straight-curve $-1 -6.806471816147134 43.812682651130054 3.8803961160739071 -1 0 0 I I #
point $-1 1.992996301140991 43.812682651130054 3.8803961160738965 #
point $-1 -13.612943632294268 30.313747352340187 2.2122618436829771 #
straight-curve $-1 64.978429165869699 43.812682651130054 83.631028256334432 0 0 -1 I I #
point $-1 64.978429165869699 43.812682651130054 14.914255953466441 #
straight-curve $-1 24.686244616217223 43.812682651130054 3.8803961160739071 -1 0 0 I I #
point $-1 64.978429165869699 43.812682651130054 3.8803961160738965 #
point $-1 49.372489232434447 30.313747352340187 2.2122618436829771 #
straight-curve $-1 0 -43.812682651130054 14.914255953466441 1 0 0 I I #
straight-curve $-1 68.977935117648855 -43.812682651130054 0 0 0 -1 I I #
point $-1 68.977935117648855 -43.812682651130054 14.914255953466441 #
point $-1 55.602293904546499 -34.110304030404222 5.8065886160428635 #
point $-1 63.627678632407907 -34.110304030404222 5.8065886160428635 #
straight-curve $-1 -80.96293962348912 -43.812682651130054 0 0 0 -1 I I #
point $-1 -80.96293962348912 -43.812682651130054 -14.914255953466441 #
End-of-ACIS-data 