500 0 7 0           
7 Unknown 11 ACIS 5.0 NT 24 Thu Mar 25 21:12:15 1999 
-1 9.9999999999999995e-007 1e-010 
body $-1 $7 $-1 $8 #
body $-1 $9 $-1 $10 #
body $-1 $11 $-1 $12 #
body $-1 $13 $-1 $14 #
body $-1 $15 $-1 $16 #
body $-1 $17 $-1 $18 #
body $-1 $19 $-1 $20 #
lump $-1 $-1 $21 $0 #
transform $-1 1 0 0 0 1 0 0 0 1 41.337931455427714 25.740737694543611 5.5582145293732683 1 rotate no_reflect no_shear #
lump $-1 $-1 $22 $1 #
transform $-1 1 0 0 0 1 0 0 0 1 41.337931455427714 25.740737694543611 5.5582145293732683 1 rotate no_reflect no_shear #
lump $-1 $-1 $23 $2 #
transform $-1 1 0 0 0 1 0 0 0 1 41.337931455427714 25.740737694543611 5.5582145293732683 1 rotate no_reflect no_shear #
lump $-1 $-1 $24 $3 #
transform $-1 1 0 0 0 1 0 0 0 1 41.337931455427714 25.740737694543611 5.5582145293732683 1 rotate no_reflect no_shear #
lump $-1 $-1 $25 $4 #
transform $-1 1 0 0 0 1 0 0 0 1 41.337931455427714 25.740737694543611 5.5582145293732683 1 rotate no_reflect no_shear #
lump $-1 $-1 $26 $5 #
transform $-1 1 0 0 0 1 0 0 0 1 41.337931455427714 25.740737694543611 5.5582145293732683 1 rotate no_reflect no_shear #
lump $-1 $-1 $27 $6 #
transform $-1 1 0 0 0 1 0 0 0 1 41.337931455427714 25.740737694543611 5.5582145293732683 1 rotate no_reflect no_shear #
shell $-1 $-1 $-1 $28 $-1 $7 #
shell $-1 $-1 $-1 $29 $-1 $9 #
shell $-1 $-1 $-1 $30 $-1 $11 #
shell $-1 $-1 $-1 $31 $-1 $13 #
shell $-1 $-1 $-1 $32 $-1 $15 #
shell $-1 $-1 $-1 $33 $-1 $17 #
shell $-1 $-1 $-1 $34 $-1 $19 #
face $-1 $35 $36 $21 $-1 $37 forward single #
face $-1 $38 $39 $22 $-1 $40 forward single #
face $-1 $41 $42 $23 $-1 $43 reversed single #
face $-1 $44 $45 $24 $-1 $46 forward single #
face $-1 $47 $48 $25 $-1 $49 reversed single #
face $-1 $50 $51 $26 $-1 $52 forward single #
face $-1 $53 $54 $27 $-1 $55 forward single #
face $-1 $56 $57 $21 $-1 $58 reversed single #
loop $-1 $-1 $59 $28 #
plane-surface $-1 0 0 5.5582145293732683 0 0 1 1 0 0 forward_v I I I I #
face $-1 $60 $61 $22 $-1 $62 reversed single #
loop $-1 $-1 $63 $29 #
plane-surface $-1 0 -25.740737694543611 0 0 1 0 0 0 1 forward_v I I I I #
face $-1 $64 $65 $23 $-1 $66 reversed single #
loop $-1 $-1 $67 $30 #
plane-surface $-1 -106.48740117533785 -5.1643844516637785 52.77245279380459 0 1 0 -0.78801076186113728 0 0.61566146476048833 forward_v I I I I #
face $-1 $68 $69 $24 $-1 $70 forward single #
loop $-1 $71 $72 $31 #
cone-surface $-1 -39.263192106892781 1.1392497701912419 3.2192106306178809 0.78801076186113728 0 -0.61566146476048833 0.30783073238024417 0 0.39400538093056864 1 I I 0 1 0.5 forward I I I I #
face $-1 $73 $74 $25 $-1 $75 reversed single #
loop $-1 $-1 $76 $32 #
plane-surface $-1 71.59939930774874 10.164063699611731 115.14975822815035 0 -1 0 -0.86602541151947299 0 -0.49999998660252726 forward_v I I I I #
face $-1 $77 $78 $26 $-1 $79 forward single #
loop $-1 $80 $81 $33 #
cone-surface $-1 39.939073892533926 0.74329529960294494 3.6353221115199386 -0.86602541151947299 0 -0.49999998660252726 0.24999999330126363 0 -0.43301270575973649 1 I I 0 1 0.5 forward I I I I #
face $-1 $82 $83 $27 $-1 $84 forward single #
loop $-1 $85 $86 $34 #
cone-surface $-1 39.939073892533926 6.3957563396082122 3.6353221115199386 -0.86602541151947299 0 -0.49999998660252726 0.24999999330126363 0 -0.43301270575973649 1 I I 0 1 0.5 forward I I I I #
face $-1 $87 $88 $21 $-1 $89 reversed single #
loop $-1 $-1 $90 $35 #
plane-surface $-1 0 0 -5.5582145293732683 0 0 1 1 0 0 forward_v I I I I #
coedge $-1 $91 $92 $93 $94 forward $36 $-1 #
face $-1 $95 $96 $22 $-1 $97 reversed single #
loop $-1 $-1 $98 $38 #
plane-surface $-1 0 0 -5.5582145293732683 0 0 1 1 0 0 forward_v I I I I #
coedge $-1 $99 $100 $101 $102 forward $39 $-1 #
face $-1 $103 $104 $23 $-1 $105 reversed single #
loop $-1 $-1 $106 $41 #
plane-surface $-1 -41.337931455427722 1.1392497701912419 1.8721099337700053 -0.78801076186113728 0 0.61566146476048833 0.61566146476048833 0 0.78801076186113728 forward_v I I I I #
coedge $-1 $107 $108 $109 $110 reversed $42 $-1 #
face $-1 $-1 $111 $24 $-1 $112 forward single #
loop $-1 $113 $114 $44 #
cone-surface $-1 -38.431400297271146 1.1392497701912419 2.5693436634740046 0.78801076186113728 0 -0.61566146476048833 0.15391536619012208 0 0.19700269046528432 1 I I -0.70710678118654746 0.70710678118654746 0.25 forward I I I I #
loop $-1 $-1 $115 $31 #
coedge $-1 $72 $72 $116 $117 reversed $45 $-1 #
face $-1 $118 $119 $25 $-1 $120 reversed single #
loop $-1 $-1 $121 $47 #
plane-surface $-1 1.1076476340576846e-006 3.5695258196055804 73.811827880370259 0.86602541151947299 0 0.49999998660252726 0.49999998660252726 0 -0.86602541151947299 forward_v I I I I #
coedge $-1 $122 $123 $124 $125 reversed $48 $-1 #
face $-1 $-1 $126 $26 $-1 $127 forward single #
loop $-1 $128 $129 $50 #
cone-surface $-1 39.289554833894321 0.74329529960294494 3.2603221215680431 -0.86602541151947299 0 -0.49999998660252726 0.12499999665063181 0 -0.21650635287986825 1 I I -0.70710678118654746 0.70710678118654746 0.25 forward I I I I #
loop $-1 $-1 $130 $33 #
coedge $-1 $81 $81 $131 $132 reversed $51 $-1 #
face $-1 $-1 $133 $27 $-1 $134 forward single #
loop $-1 $135 $136 $53 #
cone-surface $-1 39.289554833894321 6.3957563396082122 3.2603221215680431 -0.86602541151947299 0 -0.49999998660252726 0.12499999665063181 0 -0.21650635287986825 1 I I -0.70710678118654746 0.70710678118654746 0.25 forward I I I I #
loop $-1 $-1 $137 $34 #
coedge $-1 $86 $86 $138 $139 reversed $54 $-1 #
face $-1 $140 $141 $21 $-1 $142 reversed single #
loop $-1 $-1 $143 $56 #
plane-surface $-1 0 -25.740737694543611 0 0 1 0 0 0 1 forward_v I I I I #
coedge $-1 $144 $145 $146 $147 forward $57 $-1 #
coedge $-1 $148 $59 $149 $150 forward $36 $-1 #
coedge $-1 $59 $148 $151 $152 forward $36 $-1 #
coedge $-1 $153 $154 $59 $94 reversed $155 $-1 #
edge $-1 $156 -25.740737694543611 $157 25.740737694543611 $93 $158 forward 7 unknown #
face $-1 $159 $160 $22 $-1 $161 reversed single #
loop $-1 $-1 $162 $60 #
plane-surface $-1 -31.721502396681178 -32.733991717829809 0 0 1 0 0 0 1 forward_v I I I I #
coedge $-1 $163 $164 $100 $165 forward $61 $-1 #
coedge $-1 $166 $63 $167 $168 reversed $39 $-1 #
coedge $-1 $63 $166 $98 $165 reversed $39 $-1 #
coedge $-1 $169 $170 $63 $102 reversed $160 $-1 #
edge $-1 $171 -5.5582145293732683 $172 5.5582145293732683 $101 $173 forward 7 unknown #
face $-1 $174 $175 $23 $-1 $176 reversed single #
loop $-1 $-1 $177 $64 #
plane-surface $-1 -106.48740117533785 7.4428839920462622 52.77245279380459 0 -1 0 0.78801076186113728 0 -0.61566146476048833 forward_v I I I I #
coedge $-1 $178 $179 $180 $181 reversed $65 $-1 #
coedge $-1 $108 $67 $182 $183 reversed $42 $-1 #
coedge $-1 $67 $107 $178 $184 reversed $42 $-1 #
coedge $-1 $180 $185 $67 $110 forward $186 $-1 #
edge $-1 $187 11.905769132241211 $188 14.785669590998367 $109 $189 forward 7 unknown #
loop $-1 $-1 $116 $68 #
plane-surface $-1 -41.337931455427722 1.1392497701912419 1.8721099337700053 -0.78801076186113728 0 0.61566146476048833 0.61566146476048833 0 0.78801076186113728 forward_v I I I I #
loop $-1 $-1 $190 $44 #
coedge $-1 $114 $114 $115 $191 reversed $69 $-1 #
coedge $-1 $115 $115 $114 $191 forward $71 $-1 #
coedge $-1 $116 $116 $72 $117 forward $111 $-1 #
edge $-1 $192 0 $192 6.2831853071796004 $116 $193 forward 7 unknown #
face $-1 $194 $195 $25 $-1 $196 forward single #
loop $-1 $-1 $197 $73 #
plane-surface $-1 71.59939930774874 -3.0250120604005701 115.14975822815035 0 1 0 0.86602541151947299 0 0.49999998660252726 forward_v I I I I #
coedge $-1 $198 $199 $200 $201 reversed $74 $-1 #
coedge $-1 $123 $76 $202 $203 reversed $48 $-1 #
coedge $-1 $76 $122 $198 $204 reversed $48 $-1 #
coedge $-1 $200 $205 $76 $125 forward $195 $-1 #
edge $-1 $206 -5.5382318015533443 $207 -3.6065420872852201 $124 $208 forward 7 unknown #
loop $-1 $-1 $131 $77 #
plane-surface $-1 1.1076476340576846e-006 3.5695258196055804 73.811827880370259 0.86602541151947299 0 0.49999998660252726 0.49999998660252726 0 -0.86602541151947299 forward_v I I I I #
loop $-1 $-1 $209 $50 #
coedge $-1 $129 $129 $130 $210 reversed $78 $-1 #
coedge $-1 $130 $130 $129 $210 forward $80 $-1 #
coedge $-1 $131 $131 $81 $132 forward $126 $-1 #
edge $-1 $211 0 $211 6.2831853071796004 $131 $212 forward 7 unknown #
loop $-1 $-1 $138 $82 #
plane-surface $-1 1.1076476340576846e-006 3.5695258196055804 73.811827880370259 0.86602541151947299 0 0.49999998660252726 0.49999998660252726 0 -0.86602541151947299 forward_v I I I I #
loop $-1 $-1 $213 $53 #
coedge $-1 $136 $136 $137 $214 reversed $83 $-1 #
coedge $-1 $137 $137 $136 $214 forward $85 $-1 #
coedge $-1 $138 $138 $86 $139 forward $133 $-1 #
edge $-1 $215 0 $215 6.2831853071796004 $138 $216 forward 7 unknown #
face $-1 $217 $218 $21 $-1 $219 reversed single #
loop $-1 $-1 $220 $87 #
plane-surface $-1 -41.337931455427714 0 0 1 0 0 0 0 -1 forward_v I I I I #
coedge $-1 $221 $151 $222 $223 forward $88 $-1 #
coedge $-1 $224 $90 $221 $225 forward $57 $-1 #
coedge $-1 $90 $224 $226 $227 forward $57 $-1 #
coedge $-1 $154 $153 $90 $147 reversed $155 $-1 #
edge $-1 $228 -25.740737694543611 $229 25.740737694543611 $146 $230 forward 7 unknown #
coedge $-1 $92 $91 $231 $232 forward $36 $-1 #
coedge $-1 $233 $234 $91 $150 reversed $218 $-1 #
edge $-1 $157 -41.337931455427714 $235 41.337931455427714 $149 $236 forward 7 unknown #
coedge $-1 $143 $237 $92 $152 reversed $88 $-1 #
edge $-1 $238 -41.337931455427714 $156 41.337931455427714 $151 $239 forward 7 unknown #
coedge $-1 $146 $93 $237 $240 forward $155 $-1 #
coedge $-1 $93 $146 $233 $241 reversed $155 $-1 #
loop $-1 $-1 $153 $217 #
vertex $-1 $94 $242 #
vertex $-1 $94 $243 #
straight-curve $-1 41.337931455427714 0 5.5582145293732683 0 1 0 I I #
face $-1 $244 $245 $22 $-1 $246 reversed single #
loop $-1 $-1 $101 $95 #
plane-surface $-1 -33.221502396681174 -29.23736470618671 0 1 0 0 0 0 -1 forward_v I I I I #
coedge $-1 $247 $248 $249 $250 forward $96 $-1 #
coedge $-1 $251 $98 $252 $253 forward $61 $-1 #
coedge $-1 $98 $251 $169 $254 forward $61 $-1 #
edge $-1 $171 -33.221502396681174 $255 -30.221502396681178 $98 $256 forward 7 unknown #
coedge $-1 $100 $99 $257 $258 forward $39 $-1 #
coedge $-1 $259 $260 $99 $168 forward $261 $-1 #
edge $-1 $262 30.221502396681178 $172 33.221502396681174 $167 $263 forward 7 unknown #
coedge $-1 $249 $101 $164 $254 reversed $160 $-1 #
coedge $-1 $101 $249 $259 $264 reversed $160 $-1 #
vertex $-1 $165 $265 #
vertex $-1 $264 $266 #
straight-curve $-1 -33.221502396681174 -25.740737694543611 0 0 0 1 I I #
face $-1 $-1 $186 $23 $-1 $267 forward single #
loop $-1 $-1 $268 $103 #
plane-surface $-1 -41.337931455427714 0 0 1 0 0 0 0 -1 forward_v I I I I #
coedge $-1 $269 $270 $271 $272 reversed $104 $-1 #
coedge $-1 $273 $106 $108 $184 forward $65 $-1 #
coedge $-1 $106 $273 $269 $274 forward $65 $-1 #
coedge $-1 $271 $109 $106 $181 forward $186 $-1 #
edge $-1 $188 -5.7340093367593994 $275 6.8732591069506412 $180 $276 forward 7 unknown #
coedge $-1 $277 $278 $107 $183 forward $175 $-1 #
edge $-1 $279 -24.514116463132279 $187 -20.828011867529028 $182 $280 forward 7 unknown #
edge $-1 $188 -4.6777338254840037 $279 -1.1548452884789174e-014 $108 $281 forward 7 unknown #
coedge $-1 $109 $271 $277 $282 forward $186 $-1 #
loop $-1 $-1 $271 $174 #
vertex $-1 $183 $283 #
vertex $-1 $110 $284 #
straight-curve $-1 -53.243700587668926 -5.1643844516637785 5.5582145293732701 1 0 0 I I #
coedge $-1 $190 $190 $-1 $285 reversed $113 $-1 #
edge $-1 $286 0 $286 6.2831853071796004 $114 $287 forward 7 unknown #
vertex $-1 $117 $288 #
ellipse-curve $-1 -39.89798122604914 1.1392497701912419 3.7151622315716395 -0.78801076186113728 0 0.61566146476048833 0.30783073238024417 0 0.39400538093056864 1 I I #
face $-1 $-1 $289 $25 $-1 $290 reversed single #
loop $-1 $-1 $124 $118 #
plane-surface $-1 0 0 5.5582145293732683 0 0 1 1 0 0 forward_v I I I I #
coedge $-1 $291 $292 $293 $294 reversed $119 $-1 #
coedge $-1 $295 $121 $123 $204 forward $74 $-1 #
coedge $-1 $121 $295 $291 $296 forward $74 $-1 #
coedge $-1 $293 $124 $121 $201 forward $195 $-1 #
edge $-1 $207 -8.3793007898089407 $297 4.8097749702033603 $200 $298 forward 7 unknown #
coedge $-1 $299 $300 $122 $203 forward $289 $-1 #
edge $-1 $301 -55.362449433805992 $206 -52.016664584701907 $202 $302 forward 7 unknown #
edge $-1 $207 78.81248337880011 $301 82.6758629108554 $123 $303 forward 7 unknown #
coedge $-1 $124 $293 $299 $304 forward $195 $-1 #
vertex $-1 $125 $305 #
vertex $-1 $125 $306 #
straight-curve $-1 35.79969965387437 10.164063699611731 5.5582145293732665 -1 0 0 I I #
coedge $-1 $209 $209 $-1 $307 reversed $128 $-1 #
edge $-1 $308 0 $308 6.2831853071796004 $129 $309 forward 7 unknown #
vertex $-1 $132 $310 #
ellipse-curve $-1 40.372086598293663 0.74329529960294494 3.8853221048212023 0.86602541151947299 0 0.49999998660252726 0.24999999330126363 0 -0.43301270575973649 1 I I #
coedge $-1 $213 $213 $-1 $311 reversed $135 $-1 #
edge $-1 $312 0 $312 6.2831853071796004 $136 $313 forward 7 unknown #
vertex $-1 $139 $314 #
ellipse-curve $-1 40.372086598293663 6.3957563396082122 3.8853221048212023 0.86602541151947299 0 0.49999998660252726 0.24999999330126363 0 -0.43301270575973649 1 I I #
face $-1 $-1 $155 $21 $-1 $315 reversed single #
loop $-1 $-1 $233 $140 #
plane-surface $-1 0 25.740737694543611 0 0 -1 0 0 0 -1 forward_v I I I I #
coedge $-1 $316 $231 $234 $317 forward $141 $-1 #
coedge $-1 $237 $143 $144 $225 reversed $88 $-1 #
coedge $-1 $231 $316 $143 $223 reversed $141 $-1 #
edge $-1 $238 -5.5582145293732683 $318 5.5582145293732683 $222 $319 forward 7 unknown #
coedge $-1 $145 $144 $316 $320 forward $57 $-1 #
edge $-1 $229 -41.337931455427714 $318 41.337931455427714 $221 $321 forward 7 unknown #
coedge $-1 $234 $233 $145 $227 reversed $218 $-1 #
edge $-1 $322 -41.337931455427714 $228 41.337931455427714 $226 $323 forward 7 unknown #
vertex $-1 $147 $324 #
vertex $-1 $240 $325 #
straight-curve $-1 41.337931455427714 0 -5.5582145293732683 0 -1 0 I I #
coedge $-1 $220 $222 $148 $232 reversed $141 $-1 #
edge $-1 $235 -25.740737694543611 $238 25.740737694543611 $231 $326 forward 7 unknown #
coedge $-1 $226 $149 $154 $241 forward $218 $-1 #
coedge $-1 $149 $226 $220 $317 reversed $218 $-1 #
vertex $-1 $150 $327 #
straight-curve $-1 0 25.740737694543611 5.5582145293732683 -1 0 0 I I #
coedge $-1 $151 $221 $153 $240 reversed $88 $-1 #
vertex $-1 $232 $328 #
straight-curve $-1 0 -25.740737694543611 5.5582145293732683 1 0 0 I I #
edge $-1 $156 -5.5582145293732683 $229 5.5582145293732683 $153 $329 forward 7 unknown #
edge $-1 $157 -5.5582145293732683 $228 5.5582145293732683 $154 $330 forward 7 unknown #
point $-1 41.337931455427714 -25.740737694543611 5.5582145293732683 #
point $-1 41.337931455427714 25.740737694543611 5.5582145293732683 #
face $-1 $-1 $261 $22 $-1 $331 forward single #
loop $-1 $-1 $332 $159 #
plane-surface $-1 -30.221502396681178 -29.23736470618671 0 -1 0 0 0 0 1 forward_v I I I I #
coedge $-1 $333 $162 $251 $334 reversed $96 $-1 #
coedge $-1 $162 $333 $335 $336 reversed $96 $-1 #
coedge $-1 $170 $169 $162 $250 reversed $160 $-1 #
edge $-1 $337 -5.5582145293732683 $338 5.5582145293732683 $249 $339 forward 7 unknown #
coedge $-1 $164 $163 $247 $334 forward $61 $-1 #
coedge $-1 $257 $332 $163 $253 reversed $245 $-1 #
edge $-1 $255 -3.4966270116430991 $340 3.4966270116430991 $252 $341 forward 7 unknown #
edge $-1 $338 -3.4966270116430991 $171 3.4966270116430991 $169 $342 forward 7 unknown #
vertex $-1 $253 $343 #
straight-curve $-1 0 -25.740737694543611 -5.5582145293732683 1 0 0 I I #
coedge $-1 $344 $252 $166 $258 reversed $245 $-1 #
edge $-1 $262 -5.5582145293732683 $255 5.5582145293732683 $257 $345 forward 7 unknown #
coedge $-1 $335 $167 $170 $264 forward $261 $-1 #
coedge $-1 $167 $335 $344 $346 forward $261 $-1 #
loop $-1 $-1 $167 $244 #
vertex $-1 $168 $347 #
straight-curve $-1 0 -25.740737694543611 5.5582145293732683 -1 0 0 I I #
edge $-1 $172 -3.4966270116430991 $337 3.4966270116430991 $170 $348 forward 7 unknown #
point $-1 -33.221502396681174 -25.740737694543611 -5.5582145293732683 #
point $-1 -33.221502396681174 -25.740737694543611 5.5582145293732683 #
plane-surface $-1 0 0 5.5582145293732683 0 0 1 1 0 0 forward_v I I I I #
coedge $-1 $278 $277 $270 $349 forward $175 $-1 #
coedge $-1 $270 $177 $179 $274 reversed $104 $-1 #
coedge $-1 $177 $269 $268 $349 reversed $104 $-1 #
coedge $-1 $185 $180 $177 $272 forward $186 $-1 #
edge $-1 $275 -14.785669590998367 $350 -11.905769132241211 $271 $351 forward 7 unknown #
coedge $-1 $179 $178 $278 $352 reversed $65 $-1 #
edge $-1 $353 1.1548452884789174e-014 $275 4.6777338254840037 $269 $354 forward 7 unknown #
vertex $-1 $181 $355 #
straight-curve $-1 -38.458030996670558 0.56962488509562093 5.5582145293732683 0 1 0 I I #
coedge $-1 $268 $182 $185 $282 reversed $175 $-1 #
coedge $-1 $182 $268 $273 $352 forward $175 $-1 #
vertex $-1 $183 $356 #
straight-curve $-1 -41.337931455427714 -5.1643844516637785 26.386226396902295 0 0 1 I I #
straight-curve $-1 -41.337931455427722 -5.1643844516637785 1.8721099337700053 -0.61566146476048833 0 -0.78801076186113728 I I #
edge $-1 $350 -7.4428839920462622 $187 5.1643844516637785 $277 $357 forward 7 unknown #
point $-1 -41.337931455427714 -5.1643844516637785 5.5582145293732683 #
point $-1 -38.458030996670558 -5.1643844516637785 5.5582145293732683 #
edge $-1 $358 1 $358 0 $190 $-1 forward 7 unknown #
vertex $-1 $191 $359 #
ellipse-curve $-1 -38.628402987736429 1.1392497701912419 2.7232590296641268 -0.78801076186113728 0 0.61566146476048833 0.30783073238024417 0 0.39400538093056864 1 I I #
point $-1 -39.590150493668887 1.1392497701912419 4.109167612502203 #
loop $-1 $-1 $202 $194 #
plane-surface $-1 41.337931455427714 0 0 -1 0 0 0 0 1 forward_v I I I I #
coedge $-1 $292 $197 $199 $296 reversed $119 $-1 #
coedge $-1 $197 $291 $360 $361 reversed $119 $-1 #
coedge $-1 $205 $200 $197 $294 forward $195 $-1 #
edge $-1 $297 3.6065420872852201 $362 5.5382318015533443 $293 $363 forward 7 unknown #
coedge $-1 $199 $198 $300 $364 reversed $74 $-1 #
edge $-1 $365 -82.6758629108554 $297 -78.81248337880011 $291 $366 forward 7 unknown #
vertex $-1 $201 $367 #
straight-curve $-1 39.40624174115959 1.7847629098027902 5.5582145293732594 0 -1 0 I I #
coedge $-1 $360 $202 $205 $304 reversed $289 $-1 #
coedge $-1 $202 $360 $295 $364 forward $289 $-1 #
vertex $-1 $203 $368 #
straight-curve $-1 41.337931455427714 10.164063699611731 57.574879114075173 0 0 1 I I #
straight-curve $-1 1.1076476340576846e-006 10.164063699611731 73.811827880370259 0.49999998660252726 0 -0.86602541151947299 I I #
edge $-1 $362 -3.0250120604005701 $206 10.164063699611731 $299 $369 forward 7 unknown #
point $-1 41.337931455427714 10.164063699611731 5.5582145293732683 #
point $-1 39.40624174115959 10.164063699611731 5.5582145293732736 #
edge $-1 $370 1 $370 0 $209 $-1 forward 7 unknown #
vertex $-1 $210 $371 #
ellipse-curve $-1 39.50606118677419 0.74329529960294494 3.3853221182186748 0.86602541151947299 0 0.49999998660252726 0.24999999330126363 0 -0.43301270575973649 1 I I #
point $-1 40.622086591594929 0.74329529960294494 3.4523093990614657 #
edge $-1 $372 1 $372 0 $213 $-1 forward 7 unknown #
vertex $-1 $214 $373 #
ellipse-curve $-1 39.50606118677419 6.3957563396082122 3.3853221182186748 0.86602541151947299 0 0.49999998660252726 0.24999999330126363 0 -0.43301270575973649 1 I I #
point $-1 40.622086591594929 6.3957563396082122 3.4523093990614657 #
plane-surface $-1 41.337931455427714 0 0 -1 0 0 0 0 1 forward_v I I I I #
coedge $-1 $222 $220 $224 $320 reversed $141 $-1 #
edge $-1 $235 -5.5582145293732683 $322 5.5582145293732683 $234 $374 forward 7 unknown #
vertex $-1 $320 $375 #
straight-curve $-1 -41.337931455427714 -25.740737694543611 0 0 0 -1 I I #
edge $-1 $318 -25.740737694543611 $322 25.740737694543611 $316 $376 forward 7 unknown #
straight-curve $-1 0 -25.740737694543611 -5.5582145293732683 -1 0 0 I I #
vertex $-1 $227 $377 #
straight-curve $-1 0 25.740737694543611 -5.5582145293732683 1 0 0 I I #
point $-1 41.337931455427714 25.740737694543611 -5.5582145293732683 #
point $-1 41.337931455427714 -25.740737694543611 -5.5582145293732683 #
straight-curve $-1 -41.337931455427714 0 5.5582145293732683 0 -1 0 I I #
point $-1 -41.337931455427714 25.740737694543611 5.5582145293732683 #
point $-1 -41.337931455427714 -25.740737694543611 5.5582145293732683 #
straight-curve $-1 41.337931455427714 -25.740737694543611 0 0 0 -1 I I #
straight-curve $-1 41.337931455427714 25.740737694543611 0 0 0 -1 I I #
plane-surface $-1 0 0 5.5582145293732683 0 0 1 1 0 0 forward_v I I I I #
coedge $-1 $252 $344 $333 $378 forward $245 $-1 #
coedge $-1 $248 $247 $332 $378 reversed $96 $-1 #
edge $-1 $340 -1.5 $338 1.4999999999999964 $247 $379 forward 7 unknown #
coedge $-1 $260 $259 $248 $336 forward $261 $-1 #
edge $-1 $337 -1.4999999999999964 $380 1.5 $248 $381 forward 7 unknown #
vertex $-1 $264 $382 #
vertex $-1 $254 $383 #
straight-curve $-1 -33.221502396681174 -32.733991717829809 0 0 0 -1 I I #
vertex $-1 $378 $384 #
straight-curve $-1 -30.221502396681178 -29.23736470618671 -5.5582145293732683 0 -1 0 I I #
straight-curve $-1 -33.221502396681174 -29.23736470618671 -5.5582145293732683 0 1 0 I I #
point $-1 -30.221502396681178 -25.740737694543611 -5.5582145293732683 #
coedge $-1 $332 $257 $260 $346 reversed $245 $-1 #
straight-curve $-1 -30.221502396681178 -25.740737694543611 0 0 0 -1 I I #
edge $-1 $380 -3.4966270116430991 $262 3.4966270116430991 $344 $385 forward 7 unknown #
point $-1 -30.221502396681178 -25.740737694543611 5.5582145293732683 #
straight-curve $-1 -33.221502396681174 -29.23736470618671 5.5582145293732683 0 -1 0 I I #
edge $-1 $350 20.828011867529028 $353 24.514116463132279 $268 $386 forward 7 unknown #
vertex $-1 $282 $387 #
straight-curve $-1 -53.243700587668926 7.4428839920462622 5.5582145293732701 -1 0 0 I I #
edge $-1 $353 -6.8732591069506412 $279 5.7340093367593994 $278 $388 forward 7 unknown #
vertex $-1 $352 $389 #
straight-curve $-1 -41.337931455427722 7.4428839920462622 1.8721099337700053 0.61566146476048833 0 0.78801076186113728 I I #
point $-1 -38.458030996670558 7.4428839920462622 5.5582145293732683 #
point $-1 -41.337931455427714 -5.1643844516637785 1.8721099337700144 #
straight-curve $-1 -41.337931455427714 0 5.5582145293732683 0 -1 0 I I #
vertex $-1 $285 $390 #
point $-1 -38.32057225535619 1.1392497701912419 3.1172644105946952 #
coedge $-1 $300 $299 $292 $361 forward $289 $-1 #
edge $-1 $362 52.016664584701907 $365 55.362449433805992 $360 $391 forward 7 unknown #
vertex $-1 $304 $392 #
straight-curve $-1 35.79969965387437 -3.0250120604005701 5.5582145293732665 1 0 0 I I #
edge $-1 $365 -4.8097749702033603 $301 8.3793007898089407 $300 $393 forward 7 unknown #
vertex $-1 $364 $394 #
straight-curve $-1 1.1076476340576846e-006 -3.0250120604005701 73.811827880370259 -0.49999998660252726 0 0.86602541151947299 I I #
point $-1 39.40624174115959 -3.0250120604005701 5.5582145293732736 #
point $-1 41.337931455427714 10.164063699611731 2.2124296802691816 #
straight-curve $-1 41.337931455427714 0 5.5582145293732683 0 1 0 I I #
vertex $-1 $307 $395 #
point $-1 39.756061180075456 0.74329529960294494 2.9523094124589386 #
vertex $-1 $311 $396 #
point $-1 39.756061180075456 6.3957563396082122 2.9523094124589386 #
straight-curve $-1 -41.337931455427714 25.740737694543611 0 0 0 -1 I I #
point $-1 -41.337931455427714 -25.740737694543611 -5.5582145293732683 #
straight-curve $-1 -41.337931455427714 0 -5.5582145293732683 0 1 0 I I #
point $-1 -41.337931455427714 25.740737694543611 -5.5582145293732683 #
edge $-1 $380 -5.5582145293732683 $340 5.5582145293732683 $332 $397 forward 7 unknown #
straight-curve $-1 -31.721502396681178 -32.733991717829809 -5.5582145293732683 -1 0 0 I I #
vertex $-1 $346 $398 #
straight-curve $-1 -31.721502396681178 -32.733991717829809 5.5582145293732683 1 0 0 I I #
point $-1 -33.221502396681174 -32.733991717829809 5.5582145293732683 #
point $-1 -33.221502396681174 -32.733991717829809 -5.5582145293732683 #
point $-1 -30.221502396681178 -32.733991717829809 -5.5582145293732683 #
straight-curve $-1 -30.221502396681178 -29.23736470618671 5.5582145293732683 0 1 0 I I #
straight-curve $-1 -41.337931455427714 7.4428839920462622 26.386226396902295 0 0 -1 I I #
point $-1 -41.337931455427714 7.4428839920462622 5.5582145293732683 #
straight-curve $-1 -41.337931455427714 0.56962488509562093 1.8721099337700229 0 -1 0 I I #
point $-1 -41.337931455427714 7.4428839920462622 1.8721099337700144 #
point $-1 -38.234397606805864 1.1392497701912419 2.4154282972838823 #
straight-curve $-1 41.337931455427714 -3.0250120604005701 57.574879114075173 0 0 -1 I I #
point $-1 41.337931455427714 -3.0250120604005701 5.5582145293732683 #
straight-curve $-1 41.337931455427714 1.7847629098027902 2.2124296802691674 0 1 0 I I #
point $-1 41.337931455427714 -3.0250120604005701 2.2124296802691816 #
point $-1 39.073048481014453 0.74329529960294494 3.1353221249174115 #
point $-1 39.073048481014453 6.3957563396082122 3.1353221249174115 #
straight-curve $-1 -30.221502396681178 -32.733991717829809 0 0 0 -1 I I #
point $-1 -30.221502396681178 -32.733991717829809 5.5582145293732683 #
End-of-ACIS-data 