500 0 15 0           
7 Unknown 11 ACIS 5.0 NT 24 Fri Mar 26 00:41:46 1999 
-1 9.9999999999999995e-007 1e-010 
body $-1 $15 $-1 $16 #
body $-1 $17 $-1 $18 #
body $-1 $19 $-1 $20 #
body $-1 $21 $-1 $22 #
body $-1 $23 $-1 $24 #
body $-1 $25 $-1 $26 #
body $-1 $27 $-1 $28 #
body $-1 $29 $-1 $30 #
body $-1 $31 $-1 $32 #
body $-1 $33 $-1 $34 #
body $-1 $35 $-1 $36 #
body $-1 $37 $-1 $38 #
body $-1 $39 $-1 $40 #
body $-1 $41 $-1 $42 #
body $-1 $43 $-1 $44 #
lump $-1 $-1 $45 $0 #
transform $-1 1 0 0 0 1 0 0 0 1 41.152378917813657 20.959618557805371 6.3183332080579282 1 rotate no_reflect no_shear #
lump $-1 $-1 $46 $1 #
transform $-1 1 0 0 0 1 0 0 0 1 41.152378917813657 20.959618557805371 6.3183332080579282 1 rotate no_reflect no_shear #
lump $-1 $-1 $47 $2 #
transform $-1 1 0 0 0 1 0 0 0 1 41.152378917813657 20.959618557805371 6.3183332080579282 1 rotate no_reflect no_shear #
lump $-1 $-1 $48 $3 #
transform $-1 1 0 0 0 1 0 0 0 1 41.152378917813657 20.959618557805371 6.3183332080579282 1 rotate no_reflect no_shear #
lump $-1 $-1 $49 $4 #
transform $-1 1 0 0 0 1 0 0 0 1 41.152378917813657 20.959618557805371 6.3183332080579282 1 rotate no_reflect no_shear #
lump $-1 $-1 $50 $5 #
transform $-1 1 0 0 0 1 0 0 0 1 41.152378917813657 20.959618557805371 6.3183332080579282 1 rotate no_reflect no_shear #
lump $-1 $-1 $51 $6 #
transform $-1 1 0 0 0 1 0 0 0 1 41.152378917813657 20.959618557805371 6.3183332080579282 1 rotate no_reflect no_shear #
lump $-1 $-1 $52 $7 #
transform $-1 1 0 0 0 1 0 0 0 1 41.152378917813657 20.959618557805371 6.3183332080579282 1 rotate no_reflect no_shear #
lump $-1 $-1 $53 $8 #
transform $-1 1 0 0 0 1 0 0 0 1 41.152378917813657 20.959618557805371 6.3183332080579282 1 rotate no_reflect no_shear #
lump $-1 $-1 $54 $9 #
transform $-1 1 0 0 0 1 0 0 0 1 41.152378917813657 20.959618557805371 6.3183332080579282 1 rotate no_reflect no_shear #
lump $-1 $-1 $55 $10 #
transform $-1 1 0 0 0 1 0 0 0 1 41.152378917813657 20.959618557805371 6.3183332080579282 1 rotate no_reflect no_shear #
lump $-1 $-1 $56 $11 #
transform $-1 1 0 0 0 1 0 0 0 1 41.152378917813657 20.959618557805371 6.3183332080579282 1 rotate no_reflect no_shear #
lump $-1 $-1 $57 $12 #
transform $-1 1 0 0 0 1 0 0 0 1 41.152378917813657 20.959618557805371 6.3183332080579282 1 rotate no_reflect no_shear #
lump $-1 $-1 $58 $13 #
transform $-1 1 0 0 0 1 0 0 0 1 41.152378917813657 20.959618557805371 6.3183332080579282 1 rotate no_reflect no_shear #
lump $-1 $-1 $59 $14 #
transform $-1 1 0 0 0 1 0 0 0 1 41.152378917813657 20.959618557805371 6.3183332080579282 1 rotate no_reflect no_shear #
shell $-1 $-1 $-1 $60 $-1 $15 #
shell $-1 $-1 $-1 $61 $-1 $17 #
shell $-1 $-1 $-1 $62 $-1 $19 #
shell $-1 $-1 $-1 $63 $-1 $21 #
shell $-1 $-1 $-1 $64 $-1 $23 #
shell $-1 $-1 $-1 $65 $-1 $25 #
shell $-1 $-1 $-1 $66 $-1 $27 #
shell $-1 $-1 $-1 $67 $-1 $29 #
shell $-1 $-1 $-1 $68 $-1 $31 #
shell $-1 $-1 $-1 $69 $-1 $33 #
shell $-1 $-1 $-1 $70 $-1 $35 #
shell $-1 $-1 $-1 $71 $-1 $37 #
shell $-1 $-1 $-1 $72 $-1 $39 #
shell $-1 $-1 $-1 $73 $-1 $41 #
shell $-1 $-1 $-1 $74 $-1 $43 #
face $-1 $75 $76 $45 $-1 $77 forward single #
face $-1 $78 $79 $46 $-1 $80 forward single #
face $-1 $81 $82 $47 $-1 $83 reversed single #
face $-1 $84 $85 $48 $-1 $86 forward single #
face $-1 $87 $88 $49 $-1 $89 forward single #
face $-1 $90 $91 $50 $-1 $92 reversed single #
face $-1 $93 $94 $51 $-1 $95 forward single #
face $-1 $96 $97 $52 $-1 $98 forward single #
face $-1 $99 $100 $53 $-1 $101 reversed single #
face $-1 $102 $103 $54 $-1 $104 forward single #
face $-1 $105 $106 $55 $-1 $107 forward single #
face $-1 $108 $109 $56 $-1 $110 reversed single #
face $-1 $111 $112 $57 $-1 $113 forward single #
face $-1 $114 $115 $58 $-1 $116 forward single #
face $-1 $117 $118 $59 $-1 $119 forward single #
face $-1 $120 $121 $45 $-1 $122 reversed single #
loop $-1 $-1 $123 $60 #
plane-surface $-1 0 0 6.3183332080579282 0 0 1 1 0 0 forward_v I I I I #
face $-1 $124 $125 $46 $-1 $126 reversed single #
loop $-1 $-1 $127 $61 #
plane-surface $-1 0 -20.959618557805371 0 0 1 0 0 0 1 forward_v I I I I #
face $-1 $128 $129 $47 $-1 $130 reversed single #
loop $-1 $-1 $131 $62 #
plane-surface $-1 65.352574704935762 -5.2457123808977304 114.6158328328617 0 -1 0 -0.83867057594974714 0 -0.54463902268945019 forward_v I I I I #
face $-1 $132 $133 $48 $-1 $134 forward single #
loop $-1 $135 $136 $63 #
cone-surface $-1 37.717766703373286 -10.599076977214986 2.4815920923415145 -0.83867057594974714 0 -0.54463902268945019 0.54463902268945019 0 -0.83867057594974714 1 I I 0 1 1 forward I I I I #
face $-1 $137 $138 $49 $-1 $139 forward single #
loop $-1 $140 $141 $64 #
cone-surface $-1 37.717766703373286 -7.3870582194246328 2.4815920923415145 -0.83867057594974714 0 -0.54463902268945019 0.54463902268945019 0 -0.83867057594974714 1 I I 0 1 1 forward I I I I #
face $-1 $142 $143 $50 $-1 $144 reversed single #
loop $-1 $-1 $145 $65 #
plane-surface $-1 65.352574704935762 6.7050628845394371 114.6158328328617 0 -1 0 -0.83867057594974714 0 -0.54463902268945019 forward_v I I I I #
face $-1 $146 $147 $51 $-1 $148 forward single #
loop $-1 $149 $150 $66 #
cone-surface $-1 37.717766703373286 1.3516982882221811 2.4815920923415145 -0.83867057594974714 0 -0.54463902268945019 0.54463902268945019 0 -0.83867057594974714 1 I I 0 1 1 forward I I I I #
face $-1 $151 $152 $52 $-1 $153 forward single #
loop $-1 $154 $155 $67 #
cone-surface $-1 37.717766703373286 4.5637170460125347 2.4815920923415145 -0.83867057594974714 0 -0.54463902268945019 0.54463902268945019 0 -0.83867057594974714 1 I I 0 1 1 forward I I I I #
face $-1 $156 $157 $53 $-1 $158 reversed single #
loop $-1 $-1 $159 $68 #
plane-surface $-1 65.352574704935762 18.655838149976606 114.6158328328617 0 -1 0 -0.83867057594974714 0 -0.54463902268945019 forward_v I I I I #
face $-1 $160 $161 $54 $-1 $162 forward single #
loop $-1 $163 $164 $69 #
cone-surface $-1 37.717766703373286 13.302473553659347 2.4815920923415145 -0.83867057594974714 0 -0.54463902268945019 0.54463902268945019 0 -0.83867057594974714 1 I I 0 1 1 forward I I I I #
face $-1 $165 $166 $55 $-1 $167 forward single #
loop $-1 $168 $169 $70 #
cone-surface $-1 37.717766703373286 16.5144923114497 2.4815920923415145 -0.83867057594974714 0 -0.54463902268945019 0.54463902268945019 0 -0.83867057594974714 1 I I 0 1 1 forward I I I I #
face $-1 $170 $171 $56 $-1 $172 reversed single #
loop $-1 $-1 $173 $71 #
plane-surface $-1 -104.20148198207906 3.5854625396587831 55.676658693667797 0 1 0 -0.7660444514056185 0 0.64278759981090561 forward_v I I I I #
face $-1 $174 $175 $57 $-1 $176 forward single #
loop $-1 $177 $178 $72 #
cone-surface $-1 -38.962615854820953 4.8783879564538708 3.9562296477304528 0.7660444514056185 0 -0.64278759981090561 0.3213937999054528 0 0.38302222570280925 1 I I 0 1 0.5 forward I I I I #
face $-1 $179 $180 $58 $-1 $181 forward single #
loop $-1 $182 $183 $73 #
cone-surface $-1 -38.962615854820953 6.8177760816464996 3.9562296477304528 0.7660444514056185 0 -0.64278759981090561 0.3213937999054528 0 0.38302222570280925 1 I I 0 1 0.5 forward I I I I #
face $-1 $184 $185 $59 $-1 $186 forward single #
loop $-1 $187 $188 $74 #
cone-surface $-1 -38.962615854820953 8.7571642068391284 3.9562296477304528 0.7660444514056185 0 -0.64278759981090561 0.3213937999054528 0 0.38302222570280925 1 I I 0 1 0.5 forward I I I I #
face $-1 $189 $190 $45 $-1 $191 reversed single #
loop $-1 $-1 $192 $75 #
plane-surface $-1 0 0 -6.3183332080579282 0 0 1 1 0 0 forward_v I I I I #
coedge $-1 $193 $194 $195 $196 forward $76 $-1 #
face $-1 $197 $198 $46 $-1 $199 forward single #
loop $-1 $-1 $200 $78 #
plane-surface $-1 -41.152378917813657 0 0 1 0 0 0 0 -1 forward_v I I I I #
coedge $-1 $201 $202 $203 $204 forward $79 $-1 #
face $-1 $205 $206 $47 $-1 $207 reversed single #
loop $-1 $-1 $208 $81 #
plane-surface $-1 -3.6740039524742656 -8.9930675983198096 69.789449962573769 0.83867057594974714 0 0.54463902268945019 0.54463902268945019 0 -0.83867057594974714 forward_v I I I I #
coedge $-1 $209 $210 $211 $212 reversed $82 $-1 #
face $-1 $-1 $213 $48 $-1 $214 forward single #
loop $-1 $215 $216 $84 #
cone-surface $-1 35.667698714648076 -10.599076977214986 1.1502624167274655 -0.83867057594974714 0 -0.54463902268945019 0.2723195113447251 0 -0.41933528797487357 1 I I -0.70710678118654768 0.70710678118654735 0.5 forward I I I I #
loop $-1 $-1 $217 $63 #
coedge $-1 $136 $136 $218 $219 reversed $85 $-1 #
face $-1 $-1 $220 $49 $-1 $221 forward single #
loop $-1 $222 $223 $87 #
cone-surface $-1 35.667698714648076 -7.3870582194246328 1.1502624167274655 -0.83867057594974714 0 -0.54463902268945019 0.2723195113447251 0 -0.41933528797487357 1 I I -0.70710678118654768 0.70710678118654735 0.5 forward I I I I #
loop $-1 $-1 $224 $64 #
coedge $-1 $141 $141 $225 $226 reversed $88 $-1 #
face $-1 $227 $228 $50 $-1 $229 reversed single #
loop $-1 $-1 $230 $90 #
plane-surface $-1 -3.6740039524742656 2.9577076671173579 69.789449962573769 0.83867057594974714 0 0.54463902268945019 0.54463902268945019 0 -0.83867057594974714 forward_v I I I I #
coedge $-1 $231 $232 $233 $234 reversed $91 $-1 #
face $-1 $-1 $235 $51 $-1 $236 forward single #
loop $-1 $237 $238 $93 #
cone-surface $-1 35.667698714648076 1.3516982882221811 1.1502624167274655 -0.83867057594974714 0 -0.54463902268945019 0.2723195113447251 0 -0.41933528797487357 1 I I -0.70710678118654768 0.70710678118654735 0.5 forward I I I I #
loop $-1 $-1 $239 $66 #
coedge $-1 $150 $150 $240 $241 reversed $94 $-1 #
face $-1 $-1 $242 $52 $-1 $243 forward single #
loop $-1 $244 $245 $96 #
cone-surface $-1 35.667698714648076 4.5637170460125347 1.1502624167274655 -0.83867057594974714 0 -0.54463902268945019 0.2723195113447251 0 -0.41933528797487357 1 I I -0.70710678118654768 0.70710678118654735 0.5 forward I I I I #
loop $-1 $-1 $246 $67 #
coedge $-1 $155 $155 $247 $248 reversed $97 $-1 #
face $-1 $249 $250 $53 $-1 $251 reversed single #
loop $-1 $-1 $252 $99 #
plane-surface $-1 -3.6740039524742656 14.908482932554527 69.789449962573769 0.83867057594974714 0 0.54463902268945019 0.54463902268945019 0 -0.83867057594974714 forward_v I I I I #
coedge $-1 $253 $254 $255 $256 reversed $100 $-1 #
face $-1 $-1 $257 $54 $-1 $258 forward single #
loop $-1 $259 $260 $102 #
cone-surface $-1 35.667698714648076 13.302473553659347 1.1502624167274655 -0.83867057594974714 0 -0.54463902268945019 0.2723195113447251 0 -0.41933528797487357 1 I I -0.70710678118654768 0.70710678118654735 0.5 forward I I I I #
loop $-1 $-1 $261 $69 #
coedge $-1 $164 $164 $262 $263 reversed $103 $-1 #
face $-1 $-1 $264 $55 $-1 $265 forward single #
loop $-1 $266 $267 $105 #
cone-surface $-1 35.667698714648076 16.5144923114497 1.1502624167274655 -0.83867057594974714 0 -0.54463902268945019 0.2723195113447251 0 -0.41933528797487357 1 I I -0.70710678118654768 0.70710678118654735 0.5 forward I I I I #
loop $-1 $-1 $268 $70 #
coedge $-1 $169 $169 $269 $270 reversed $106 $-1 #
face $-1 $271 $272 $56 $-1 $273 reversed single #
loop $-1 $-1 $274 $108 #
plane-surface $-1 -41.152378917813657 6.8177760816464996 2.772180951487087 -0.7660444514056185 0 0.64278759981090561 0.64278759981090561 0 0.7660444514056185 forward_v I I I I #
coedge $-1 $275 $276 $277 $278 reversed $109 $-1 #
face $-1 $-1 $279 $57 $-1 $280 forward single #
loop $-1 $281 $282 $111 #
cone-surface $-1 -38.069129165318323 4.8783879564538708 3.2065053157356678 0.7660444514056185 0 -0.64278759981090561 0.1606968999527264 0 0.19151111285140462 1 I I -0.70710678118654746 0.70710678118654746 0.25 forward I I I I #
loop $-1 $-1 $283 $72 #
coedge $-1 $178 $178 $284 $285 reversed $112 $-1 #
face $-1 $-1 $286 $58 $-1 $287 forward single #
loop $-1 $288 $289 $114 #
cone-surface $-1 -38.069129165318323 6.8177760816464996 3.2065053157356678 0.7660444514056185 0 -0.64278759981090561 0.1606968999527264 0 0.19151111285140462 1 I I -0.70710678118654746 0.70710678118654746 0.25 forward I I I I #
loop $-1 $-1 $290 $73 #
coedge $-1 $183 $183 $291 $292 reversed $115 $-1 #
face $-1 $-1 $293 $59 $-1 $294 forward single #
loop $-1 $295 $296 $117 #
cone-surface $-1 -38.069129165318323 8.7571642068391284 3.2065053157356678 0.7660444514056185 0 -0.64278759981090561 0.1606968999527264 0 0.19151111285140462 1 I I -0.70710678118654746 0.70710678118654746 0.25 forward I I I I #
loop $-1 $-1 $297 $74 #
coedge $-1 $188 $188 $298 $299 reversed $118 $-1 #
face $-1 $300 $301 $45 $-1 $302 reversed single #
loop $-1 $-1 $303 $120 #
plane-surface $-1 0 -20.959618557805371 0 0 1 0 0 0 1 forward_v I I I I #
coedge $-1 $304 $305 $306 $307 forward $121 $-1 #
coedge $-1 $308 $123 $309 $310 forward $76 $-1 #
coedge $-1 $123 $308 $311 $312 forward $76 $-1 #
coedge $-1 $313 $314 $123 $196 reversed $315 $-1 #
edge $-1 $316 -20.959618557805371 $317 20.959618557805371 $195 $318 forward 7 unknown #
face $-1 $319 $320 $46 $-1 $321 reversed single #
loop $-1 $-1 $322 $124 #
plane-surface $-1 0 -23.917326224922725 3.4844693044922446 0 0 1 1 0 0 forward_v I I I I #
coedge $-1 $323 $324 $202 $325 forward $125 $-1 #
coedge $-1 $326 $127 $327 $328 reversed $79 $-1 #
coedge $-1 $127 $326 $200 $325 reversed $79 $-1 #
coedge $-1 $329 $322 $127 $204 reversed $198 $-1 #
edge $-1 $330 -41.152378917813657 $331 41.152378917813657 $203 $332 forward 7 unknown #
face $-1 $333 $334 $47 $-1 $335 reversed single #
loop $-1 $-1 $336 $128 #
plane-surface $-1 65.352574704935762 -12.740422815741889 114.6158328328617 0 1 0 0.83867057594974714 0 0.54463902268945019 forward_v I I I I #
coedge $-1 $337 $338 $339 $340 reversed $129 $-1 #
coedge $-1 $210 $131 $341 $342 reversed $82 $-1 #
coedge $-1 $131 $209 $337 $343 reversed $82 $-1 #
coedge $-1 $339 $344 $131 $212 forward $345 $-1 #
edge $-1 $346 -8.4760915653457758 $347 -4.8683325379656921 $211 $348 forward 7 unknown #
loop $-1 $-1 $218 $132 #
plane-surface $-1 -3.6740039524742656 -8.9930675983198096 69.789449962573769 0.83867057594974714 0 0.54463902268945019 0.54463902268945019 0 -0.83867057594974714 forward_v I I I I #
loop $-1 $-1 $349 $84 #
coedge $-1 $216 $216 $217 $350 reversed $133 $-1 #
coedge $-1 $217 $217 $216 $350 forward $135 $-1 #
coedge $-1 $218 $218 $136 $219 forward $213 $-1 #
edge $-1 $351 0 $351 6.2831853071796004 $218 $352 forward 7 unknown #
loop $-1 $-1 $225 $137 #
plane-surface $-1 -3.6740039524742656 -8.9930675983198096 69.789449962573769 0.83867057594974714 0 0.54463902268945019 0.54463902268945019 0 -0.83867057594974714 forward_v I I I I #
loop $-1 $-1 $353 $87 #
coedge $-1 $223 $223 $224 $354 reversed $138 $-1 #
coedge $-1 $224 $224 $223 $354 forward $140 $-1 #
coedge $-1 $225 $225 $141 $226 forward $220 $-1 #
edge $-1 $355 0 $355 6.2831853071796004 $225 $356 forward 7 unknown #
face $-1 $357 $358 $50 $-1 $359 reversed single #
loop $-1 $-1 $360 $142 #
plane-surface $-1 65.352574704935762 -0.78964755030472134 114.6158328328617 0 1 0 0.83867057594974714 0 0.54463902268945019 forward_v I I I I #
coedge $-1 $361 $362 $363 $364 reversed $143 $-1 #
coedge $-1 $232 $145 $365 $366 reversed $91 $-1 #
coedge $-1 $145 $231 $361 $367 reversed $91 $-1 #
coedge $-1 $363 $368 $145 $234 forward $369 $-1 #
edge $-1 $370 -8.4760915653457758 $371 -4.8683325379656921 $233 $372 forward 7 unknown #
loop $-1 $-1 $240 $146 #
plane-surface $-1 -3.6740039524742656 2.9577076671173579 69.789449962573769 0.83867057594974714 0 0.54463902268945019 0.54463902268945019 0 -0.83867057594974714 forward_v I I I I #
loop $-1 $-1 $373 $93 #
coedge $-1 $238 $238 $239 $374 reversed $147 $-1 #
coedge $-1 $239 $239 $238 $374 forward $149 $-1 #
coedge $-1 $240 $240 $150 $241 forward $235 $-1 #
edge $-1 $375 0 $375 6.2831853071796004 $240 $376 forward 7 unknown #
loop $-1 $-1 $247 $151 #
plane-surface $-1 -3.6740039524742656 2.9577076671173579 69.789449962573769 0.83867057594974714 0 0.54463902268945019 0.54463902268945019 0 -0.83867057594974714 forward_v I I I I #
loop $-1 $-1 $377 $96 #
coedge $-1 $245 $245 $246 $378 reversed $152 $-1 #
coedge $-1 $246 $246 $245 $378 forward $154 $-1 #
coedge $-1 $247 $247 $155 $248 forward $242 $-1 #
edge $-1 $379 0 $379 6.2831853071796004 $247 $380 forward 7 unknown #
face $-1 $381 $382 $53 $-1 $383 reversed single #
loop $-1 $-1 $384 $156 #
plane-surface $-1 65.352574704935762 11.161127715132448 114.6158328328617 0 1 0 0.83867057594974714 0 0.54463902268945019 forward_v I I I I #
coedge $-1 $385 $386 $387 $388 reversed $157 $-1 #
coedge $-1 $254 $159 $389 $390 reversed $100 $-1 #
coedge $-1 $159 $253 $385 $391 reversed $100 $-1 #
coedge $-1 $387 $392 $159 $256 forward $393 $-1 #
edge $-1 $394 -8.4760915653457758 $395 -4.8683325379656921 $255 $396 forward 7 unknown #
loop $-1 $-1 $262 $160 #
plane-surface $-1 -3.6740039524742656 14.908482932554527 69.789449962573769 0.83867057594974714 0 0.54463902268945019 0.54463902268945019 0 -0.83867057594974714 forward_v I I I I #
loop $-1 $-1 $397 $102 #
coedge $-1 $260 $260 $261 $398 reversed $161 $-1 #
coedge $-1 $261 $261 $260 $398 forward $163 $-1 #
coedge $-1 $262 $262 $164 $263 forward $257 $-1 #
edge $-1 $399 0 $399 6.2831853071796004 $262 $400 forward 7 unknown #
loop $-1 $-1 $269 $165 #
plane-surface $-1 -3.6740039524742656 14.908482932554527 69.789449962573769 0.83867057594974714 0 0.54463902268945019 0.54463902268945019 0 -0.83867057594974714 forward_v I I I I #
loop $-1 $-1 $401 $105 #
coedge $-1 $267 $267 $268 $402 reversed $166 $-1 #
coedge $-1 $268 $268 $267 $402 forward $168 $-1 #
coedge $-1 $269 $269 $169 $270 forward $264 $-1 #
edge $-1 $403 0 $403 6.2831853071796004 $269 $404 forward 7 unknown #
face $-1 $405 $406 $56 $-1 $407 forward single #
loop $-1 $-1 $408 $170 #
plane-surface $-1 -104.20148198207906 10.050089623634216 55.676658693667797 0 -1 0 0.7660444514056185 0 -0.64278759981090561 forward_v I I I I #
coedge $-1 $409 $410 $411 $412 reversed $171 $-1 #
coedge $-1 $276 $173 $413 $414 reversed $109 $-1 #
coedge $-1 $173 $275 $409 $415 reversed $109 $-1 #
coedge $-1 $411 $416 $173 $278 forward $406 $-1 #
edge $-1 $417 10.948362073225873 $418 13.923937045908822 $277 $419 forward 7 unknown #
loop $-1 $-1 $284 $174 #
plane-surface $-1 -41.152378917813657 6.8177760816464996 2.772180951487087 -0.7660444514056185 0 0.64278759981090561 0.64278759981090561 0 0.7660444514056185 forward_v I I I I #
loop $-1 $-1 $420 $111 #
coedge $-1 $282 $282 $283 $421 reversed $175 $-1 #
coedge $-1 $283 $283 $282 $421 forward $177 $-1 #
coedge $-1 $284 $284 $178 $285 forward $279 $-1 #
edge $-1 $422 0 $422 6.2831853071796004 $284 $423 forward 7 unknown #
loop $-1 $-1 $291 $179 #
plane-surface $-1 -41.152378917813657 6.8177760816464996 2.772180951487087 -0.7660444514056185 0 0.64278759981090561 0.64278759981090561 0 0.7660444514056185 forward_v I I I I #
loop $-1 $-1 $424 $114 #
coedge $-1 $289 $289 $290 $425 reversed $180 $-1 #
coedge $-1 $290 $290 $289 $425 forward $182 $-1 #
coedge $-1 $291 $291 $183 $292 forward $286 $-1 #
edge $-1 $426 0 $426 6.2831853071796004 $291 $427 forward 7 unknown #
loop $-1 $-1 $298 $184 #
plane-surface $-1 -41.152378917813657 6.8177760816464996 2.772180951487087 -0.7660444514056185 0 0.64278759981090561 0.64278759981090561 0 0.7660444514056185 forward_v I I I I #
loop $-1 $-1 $428 $117 #
coedge $-1 $296 $296 $297 $429 reversed $185 $-1 #
coedge $-1 $297 $297 $296 $429 forward $187 $-1 #
coedge $-1 $298 $298 $188 $299 forward $293 $-1 #
edge $-1 $430 0 $430 6.2831853071796004 $298 $431 forward 7 unknown #
face $-1 $432 $433 $45 $-1 $434 reversed single #
loop $-1 $-1 $435 $189 #
plane-surface $-1 -41.152378917813657 0 0 1 0 0 0 0 -1 forward_v I I I I #
coedge $-1 $436 $311 $437 $438 forward $190 $-1 #
coedge $-1 $439 $192 $436 $440 forward $121 $-1 #
coedge $-1 $192 $439 $441 $442 forward $121 $-1 #
coedge $-1 $314 $313 $192 $307 reversed $315 $-1 #
edge $-1 $443 -20.959618557805371 $444 20.959618557805371 $306 $445 forward 7 unknown #
coedge $-1 $194 $193 $446 $447 forward $76 $-1 #
coedge $-1 $448 $449 $193 $310 reversed $433 $-1 #
edge $-1 $317 -41.152378917813657 $450 41.152378917813657 $309 $451 forward 7 unknown #
coedge $-1 $303 $452 $194 $312 reversed $190 $-1 #
edge $-1 $453 -41.152378917813657 $316 41.152378917813657 $311 $454 forward 7 unknown #
coedge $-1 $306 $195 $452 $455 forward $315 $-1 #
coedge $-1 $195 $306 $448 $456 reversed $315 $-1 #
loop $-1 $-1 $313 $432 #
vertex $-1 $196 $457 #
vertex $-1 $196 $458 #
straight-curve $-1 41.152378917813657 0 6.3183332080579282 0 1 0 I I #
face $-1 $459 $460 $46 $-1 $461 reversed single #
loop $-1 $-1 $462 $197 #
plane-surface $-1 0 -23.917326224922725 0.42960234438059164 0 0 1 1 0 0 forward_v I I I I #
coedge $-1 $203 $463 $464 $465 forward $198 $-1 #
coedge $-1 $466 $200 $467 $468 reversed $125 $-1 #
coedge $-1 $200 $466 $329 $469 reversed $125 $-1 #
edge $-1 $330 -3.4844693044922446 $470 -0.42960234438059164 $200 $471 forward 7 unknown #
coedge $-1 $202 $201 $472 $473 forward $79 $-1 #
coedge $-1 $464 $474 $201 $328 forward $475 $-1 #
edge $-1 $476 0.42960234438059164 $331 3.4844693044922446 $327 $477 forward 7 unknown #
coedge $-1 $463 $203 $324 $469 forward $198 $-1 #
vertex $-1 $325 $478 #
vertex $-1 $465 $479 #
straight-curve $-1 0 -20.959618557805371 3.4844693044922446 1 0 0 I I #
face $-1 $-1 $345 $47 $-1 $480 forward single #
loop $-1 $-1 $481 $205 #
plane-surface $-1 41.152378917813657 0 0 -1 0 0 0 0 1 forward_v I I I I #
coedge $-1 $482 $483 $484 $485 reversed $206 $-1 #
coedge $-1 $486 $208 $210 $343 forward $129 $-1 #
coedge $-1 $208 $486 $482 $487 forward $129 $-1 #
coedge $-1 $484 $211 $208 $340 forward $345 $-1 #
edge $-1 $347 0.74917858173782559 $488 8.2438890165819849 $339 $489 forward 7 unknown #
coedge $-1 $490 $491 $209 $342 forward $334 $-1 #
edge $-1 $492 -56.545045111267093 $346 -50.98958320837292 $341 $493 forward 7 unknown #
edge $-1 $347 75.680629051088857 $492 82.304757835627299 $210 $494 forward 7 unknown #
coedge $-1 $211 $484 $490 $495 forward $345 $-1 #
loop $-1 $-1 $484 $333 #
vertex $-1 $342 $496 #
vertex $-1 $212 $497 #
straight-curve $-1 32.676287352467881 -5.2457123808977304 6.3183332080579291 -1 0 0 I I #
coedge $-1 $349 $349 $-1 $498 reversed $215 $-1 #
edge $-1 $499 0 $499 6.2831853071796004 $216 $500 forward 7 unknown #
vertex $-1 $219 $501 #
ellipse-curve $-1 39.348499404123615 -10.599076977214986 3.5406022566108355 0.83867057594974714 0 0.54463902268945019 0.54463902268945019 0 -0.83867057594974714 1 I I #
coedge $-1 $353 $353 $-1 $502 reversed $222 $-1 #
edge $-1 $503 0 $503 6.2831853071796004 $223 $504 forward 7 unknown #
vertex $-1 $226 $505 #
ellipse-curve $-1 39.348499404123615 -7.3870582194246328 3.5406022566108355 0.83867057594974714 0 0.54463902268945019 0.54463902268945019 0 -0.83867057594974714 1 I I #
face $-1 $-1 $369 $50 $-1 $506 forward single #
loop $-1 $-1 $507 $227 #
plane-surface $-1 41.152378917813657 0 0 -1 0 0 0 0 1 forward_v I I I I #
coedge $-1 $508 $509 $510 $511 reversed $228 $-1 #
coedge $-1 $512 $230 $232 $367 forward $143 $-1 #
coedge $-1 $230 $512 $508 $513 forward $143 $-1 #
coedge $-1 $510 $233 $230 $364 forward $369 $-1 #
edge $-1 $371 -5.2262090509807582 $514 2.2685013838634003 $363 $515 forward 7 unknown #
coedge $-1 $516 $517 $231 $366 forward $358 $-1 #
edge $-1 $518 -56.545045111267093 $370 -50.98958320837292 $365 $519 forward 7 unknown #
edge $-1 $371 75.680629051088857 $518 82.304757835627299 $232 $520 forward 7 unknown #
coedge $-1 $233 $510 $516 $521 forward $369 $-1 #
loop $-1 $-1 $510 $357 #
vertex $-1 $366 $522 #
vertex $-1 $234 $523 #
straight-curve $-1 32.676287352467881 6.7050628845394371 6.3183332080579291 -1 0 0 I I #
coedge $-1 $373 $373 $-1 $524 reversed $237 $-1 #
edge $-1 $525 0 $525 6.2831853071796004 $238 $526 forward 7 unknown #
vertex $-1 $241 $527 #
ellipse-curve $-1 39.348499404123615 1.3516982882221811 3.5406022566108355 0.83867057594974714 0 0.54463902268945019 0.54463902268945019 0 -0.83867057594974714 1 I I #
coedge $-1 $377 $377 $-1 $528 reversed $244 $-1 #
edge $-1 $529 0 $529 6.2831853071796004 $245 $530 forward 7 unknown #
vertex $-1 $248 $531 #
ellipse-curve $-1 39.348499404123615 4.5637170460125347 3.5406022566108355 0.83867057594974714 0 0.54463902268945019 0.54463902268945019 0 -0.83867057594974714 1 I I #
face $-1 $-1 $393 $53 $-1 $532 forward single #
loop $-1 $-1 $533 $249 #
plane-surface $-1 41.152378917813657 0 0 -1 0 0 0 0 1 forward_v I I I I #
coedge $-1 $534 $535 $536 $537 reversed $250 $-1 #
coedge $-1 $538 $252 $254 $391 forward $157 $-1 #
coedge $-1 $252 $538 $534 $539 forward $157 $-1 #
coedge $-1 $536 $255 $252 $388 forward $393 $-1 #
edge $-1 $395 -11.201596683699343 $540 -3.7068862488551844 $387 $541 forward 7 unknown #
coedge $-1 $542 $543 $253 $390 forward $382 $-1 #
edge $-1 $544 -56.545045111267093 $394 -50.98958320837292 $389 $545 forward 7 unknown #
edge $-1 $395 75.680629051088857 $544 82.304757835627299 $254 $546 forward 7 unknown #
coedge $-1 $255 $536 $542 $547 forward $393 $-1 #
loop $-1 $-1 $536 $381 #
vertex $-1 $390 $548 #
vertex $-1 $256 $549 #
straight-curve $-1 32.676287352467881 18.655838149976606 6.3183332080579291 -1 0 0 I I #
coedge $-1 $397 $397 $-1 $550 reversed $259 $-1 #
edge $-1 $551 0 $551 6.2831853071796004 $260 $552 forward 7 unknown #
vertex $-1 $263 $553 #
ellipse-curve $-1 39.348499404123615 13.302473553659347 3.5406022566108355 0.83867057594974714 0 0.54463902268945019 0.54463902268945019 0 -0.83867057594974714 1 I I #
coedge $-1 $401 $401 $-1 $554 reversed $266 $-1 #
edge $-1 $555 0 $555 6.2831853071796004 $267 $556 forward 7 unknown #
vertex $-1 $270 $557 #
ellipse-curve $-1 39.348499404123615 16.5144923114497 3.5406022566108355 0.83867057594974714 0 0.54463902268945019 0.54463902268945019 0 -0.83867057594974714 1 I I #
face $-1 $-1 $558 $56 $-1 $559 reversed single #
loop $-1 $-1 $277 $271 #
plane-surface $-1 0 0 6.3183332080579282 0 0 1 1 0 0 forward_v I I I I #
coedge $-1 $560 $561 $562 $563 reversed $272 $-1 #
coedge $-1 $564 $274 $276 $415 forward $171 $-1 #
coedge $-1 $274 $564 $560 $565 forward $171 $-1 #
coedge $-1 $562 $277 $274 $412 forward $406 $-1 #
edge $-1 $418 0.17657449883553333 $566 6.6412015828109663 $411 $567 forward 7 unknown #
coedge $-1 $568 $569 $275 $414 forward $558 $-1 #
edge $-1 $570 -25.066148395346811 $417 -21.519996138775969 $413 $571 forward 7 unknown #
edge $-1 $418 -4.6291729547338809 $570 0 $276 $572 forward 7 unknown #
coedge $-1 $277 $562 $568 $573 forward $406 $-1 #
vertex $-1 $278 $574 #
vertex $-1 $278 $575 #
straight-curve $-1 -52.10074099103953 3.5854625396587831 6.3183332080579291 1 0 0 I I #
coedge $-1 $420 $420 $-1 $576 reversed $281 $-1 #
edge $-1 $577 0 $577 6.2831853071796004 $282 $578 forward 7 unknown #
vertex $-1 $285 $579 #
ellipse-curve $-1 -39.664591431472182 4.8783879564538708 4.5452570797725107 -0.7660444514056185 0 0.64278759981090561 0.3213937999054528 0 0.38302222570280925 1 I I #
coedge $-1 $424 $424 $-1 $580 reversed $288 $-1 #
edge $-1 $581 0 $581 6.2831853071796004 $289 $582 forward 7 unknown #
vertex $-1 $292 $583 #
ellipse-curve $-1 -39.664591431472182 6.8177760816464996 4.5452570797725107 -0.7660444514056185 0 0.64278759981090561 0.3213937999054528 0 0.38302222570280925 1 I I #
coedge $-1 $428 $428 $-1 $584 reversed $295 $-1 #
edge $-1 $585 0 $585 6.2831853071796004 $296 $586 forward 7 unknown #
vertex $-1 $299 $587 #
ellipse-curve $-1 -39.664591431472182 8.7571642068391284 4.5452570797725107 -0.7660444514056185 0 0.64278759981090561 0.3213937999054528 0 0.38302222570280925 1 I I #
face $-1 $-1 $315 $45 $-1 $588 reversed single #
loop $-1 $-1 $448 $300 #
plane-surface $-1 0 20.959618557805371 0 0 -1 0 0 0 -1 forward_v I I I I #
coedge $-1 $589 $446 $449 $590 forward $301 $-1 #
coedge $-1 $452 $303 $304 $440 reversed $190 $-1 #
coedge $-1 $446 $589 $303 $438 reversed $301 $-1 #
edge $-1 $453 -6.3183332080579282 $591 6.3183332080579282 $437 $592 forward 7 unknown #
coedge $-1 $305 $304 $589 $593 forward $121 $-1 #
edge $-1 $444 -41.152378917813657 $591 41.152378917813657 $436 $594 forward 7 unknown #
coedge $-1 $449 $448 $305 $442 reversed $433 $-1 #
edge $-1 $595 -41.152378917813657 $443 41.152378917813657 $441 $596 forward 7 unknown #
vertex $-1 $307 $597 #
vertex $-1 $455 $598 #
straight-curve $-1 41.152378917813657 0 -6.3183332080579282 0 -1 0 I I #
coedge $-1 $435 $437 $308 $447 reversed $301 $-1 #
edge $-1 $450 -20.959618557805371 $453 20.959618557805371 $446 $599 forward 7 unknown #
coedge $-1 $441 $309 $314 $456 forward $433 $-1 #
coedge $-1 $309 $441 $435 $590 reversed $433 $-1 #
vertex $-1 $310 $600 #
straight-curve $-1 0 20.959618557805371 6.3183332080579282 -1 0 0 I I #
coedge $-1 $311 $436 $313 $455 reversed $190 $-1 #
vertex $-1 $447 $601 #
straight-curve $-1 0 -20.959618557805371 6.3183332080579282 1 0 0 I I #
edge $-1 $316 -6.3183332080579282 $444 6.3183332080579282 $313 $602 forward 7 unknown #
edge $-1 $317 -6.3183332080579282 $443 6.3183332080579282 $314 $603 forward 7 unknown #
point $-1 41.152378917813657 -20.959618557805371 6.3183332080579282 #
point $-1 41.152378917813657 20.959618557805371 6.3183332080579282 #
face $-1 $-1 $475 $46 $-1 $604 reversed single #
loop $-1 $-1 $605 $319 #
plane-surface $-1 0 -26.875033892040079 1.9570358244364181 0 1 0 0 0 1 forward_v I I I I #
coedge $-1 $606 $472 $474 $607 forward $320 $-1 #
coedge $-1 $322 $329 $608 $609 forward $198 $-1 #
coedge $-1 $610 $327 $322 $465 reversed $475 $-1 #
edge $-1 $611 -2.9577076671173543 $331 2.9577076671173543 $464 $612 forward 7 unknown #
coedge $-1 $324 $323 $605 $613 reversed $125 $-1 #
coedge $-1 $472 $606 $323 $468 forward $320 $-1 #
edge $-1 $614 -2.9577076671173543 $470 2.9577076671173543 $323 $615 forward 7 unknown #
edge $-1 $330 -2.9577076671173543 $616 2.9577076671173543 $324 $617 forward 7 unknown #
vertex $-1 $325 $618 #
straight-curve $-1 -41.152378917813657 -20.959618557805371 0 0 0 -1 I I #
coedge $-1 $462 $467 $326 $473 reversed $320 $-1 #
edge $-1 $476 -41.152378917813657 $470 41.152378917813657 $472 $619 forward 7 unknown #
coedge $-1 $327 $610 $462 $607 reversed $475 $-1 #
loop $-1 $-1 $327 $459 #
vertex $-1 $328 $620 #
straight-curve $-1 41.152378917813657 -20.959618557805371 0 0 0 1 I I #
point $-1 -41.152378917813657 -20.959618557805371 3.4844693044922446 #
point $-1 41.152378917813657 -20.959618557805371 3.4844693044922446 #
plane-surface $-1 0 0 6.3183332080579282 0 0 1 1 0 0 forward_v I I I I #
coedge $-1 $491 $490 $483 $621 forward $334 $-1 #
coedge $-1 $483 $336 $338 $487 reversed $206 $-1 #
coedge $-1 $336 $482 $481 $621 reversed $206 $-1 #
coedge $-1 $344 $339 $336 $485 forward $345 $-1 #
edge $-1 $488 4.8683325379656921 $622 8.4760915653457758 $484 $623 forward 7 unknown #
coedge $-1 $338 $337 $491 $624 reversed $129 $-1 #
edge $-1 $625 -82.304757835627299 $488 -75.680629051088857 $482 $626 forward 7 unknown #
vertex $-1 $340 $627 #
straight-curve $-1 37.544619890433573 -4.4965337991599048 6.3183332080579291 0 -1 0 I I #
coedge $-1 $481 $341 $344 $495 reversed $334 $-1 #
coedge $-1 $341 $481 $486 $624 forward $334 $-1 #
vertex $-1 $342 $628 #
straight-curve $-1 41.152378917813657 -5.2457123808977304 57.307916416430849 0 0 1 I I #
straight-curve $-1 -3.6740039524742656 -5.2457123808977304 69.789449962573769 0.54463902268945019 0 -0.83867057594974714 I I #
edge $-1 $622 -12.740422815741889 $346 -5.2457123808977304 $490 $629 forward 7 unknown #
point $-1 41.152378917813657 -5.2457123808977304 6.3183332080579282 #
point $-1 37.544619890433573 -5.2457123808977304 6.318333208057922 #
edge $-1 $630 1 $630 0 $349 $-1 forward 7 unknown #
vertex $-1 $350 $631 #
ellipse-curve $-1 36.08703400262295 -10.599076977214986 1.4225819280721905 0.83867057594974714 0 0.54463902268945019 0.54463902268945019 0 -0.83867057594974714 1 I I #
point $-1 39.893138426813067 -10.599076977214986 2.7019316806610916 #
edge $-1 $632 1 $632 0 $353 $-1 forward 7 unknown #
vertex $-1 $354 $633 #
ellipse-curve $-1 36.08703400262295 -7.3870582194246328 1.4225819280721905 0.83867057594974714 0 0.54463902268945019 0.54463902268945019 0 -0.83867057594974714 1 I I #
point $-1 39.893138426813067 -7.3870582194246328 2.7019316806610916 #
plane-surface $-1 0 0 6.3183332080579282 0 0 1 1 0 0 forward_v I I I I #
coedge $-1 $517 $516 $509 $634 forward $358 $-1 #
coedge $-1 $509 $360 $362 $513 reversed $228 $-1 #
coedge $-1 $360 $508 $507 $634 reversed $228 $-1 #
coedge $-1 $368 $363 $360 $511 forward $369 $-1 #
edge $-1 $514 4.8683325379656921 $635 8.4760915653457758 $510 $636 forward 7 unknown #
coedge $-1 $362 $361 $517 $637 reversed $143 $-1 #
edge $-1 $638 -82.304757835627299 $514 -75.680629051088857 $508 $639 forward 7 unknown #
vertex $-1 $364 $640 #
straight-curve $-1 37.544619890433573 1.4788538335586789 6.3183332080579291 0 -1 0 I I #
coedge $-1 $507 $365 $368 $521 reversed $358 $-1 #
coedge $-1 $365 $507 $512 $637 forward $358 $-1 #
vertex $-1 $366 $641 #
straight-curve $-1 41.152378917813657 6.7050628845394371 57.307916416430849 0 0 1 I I #
straight-curve $-1 -3.6740039524742656 6.7050628845394371 69.789449962573769 0.54463902268945019 0 -0.83867057594974714 I I #
edge $-1 $635 -0.78964755030472134 $370 6.7050628845394371 $516 $642 forward 7 unknown #
point $-1 41.152378917813657 6.7050628845394371 6.3183332080579282 #
point $-1 37.544619890433573 6.7050628845394371 6.318333208057922 #
edge $-1 $643 1 $643 0 $373 $-1 forward 7 unknown #
vertex $-1 $374 $644 #
ellipse-curve $-1 36.08703400262295 1.3516982882221811 1.4225819280721905 0.83867057594974714 0 0.54463902268945019 0.54463902268945019 0 -0.83867057594974714 1 I I #
point $-1 39.893138426813067 1.3516982882221811 2.7019316806610916 #
edge $-1 $645 1 $645 0 $377 $-1 forward 7 unknown #
vertex $-1 $378 $646 #
ellipse-curve $-1 36.08703400262295 4.5637170460125347 1.4225819280721905 0.83867057594974714 0 0.54463902268945019 0.54463902268945019 0 -0.83867057594974714 1 I I #
point $-1 39.893138426813067 4.5637170460125347 2.7019316806610916 #
plane-surface $-1 0 0 6.3183332080579282 0 0 1 1 0 0 forward_v I I I I #
coedge $-1 $543 $542 $535 $647 forward $382 $-1 #
coedge $-1 $535 $384 $386 $539 reversed $250 $-1 #
coedge $-1 $384 $534 $533 $647 reversed $250 $-1 #
coedge $-1 $392 $387 $384 $537 forward $393 $-1 #
edge $-1 $540 4.8683325379656921 $648 8.4760915653457758 $536 $649 forward 7 unknown #
coedge $-1 $386 $385 $543 $650 reversed $157 $-1 #
edge $-1 $651 -82.304757835627299 $540 -75.680629051088857 $534 $652 forward 7 unknown #
vertex $-1 $388 $653 #
straight-curve $-1 37.544619890433573 7.4542414662772636 6.3183332080579291 0 -1 0 I I #
coedge $-1 $533 $389 $392 $547 reversed $382 $-1 #
coedge $-1 $389 $533 $538 $650 forward $382 $-1 #
vertex $-1 $390 $654 #
straight-curve $-1 41.152378917813657 18.655838149976606 57.307916416430849 0 0 1 I I #
straight-curve $-1 -3.6740039524742656 18.655838149976606 69.789449962573769 0.54463902268945019 0 -0.83867057594974714 I I #
edge $-1 $648 11.161127715132448 $394 18.655838149976606 $542 $655 forward 7 unknown #
point $-1 41.152378917813657 18.655838149976606 6.3183332080579282 #
point $-1 37.544619890433573 18.655838149976606 6.318333208057922 #
edge $-1 $656 1 $656 0 $397 $-1 forward 7 unknown #
vertex $-1 $398 $657 #
ellipse-curve $-1 36.08703400262295 13.302473553659347 1.4225819280721905 0.83867057594974714 0 0.54463902268945019 0.54463902268945019 0 -0.83867057594974714 1 I I #
point $-1 39.893138426813067 13.302473553659347 2.7019316806610916 #
edge $-1 $658 1 $658 0 $401 $-1 forward 7 unknown #
vertex $-1 $402 $659 #
ellipse-curve $-1 36.08703400262295 16.5144923114497 1.4225819280721905 0.83867057594974714 0 0.54463902268945019 0.54463902268945019 0 -0.83867057594974714 1 I I #
point $-1 39.893138426813067 16.5144923114497 2.7019316806610916 #
loop $-1 $-1 $413 $405 #
plane-surface $-1 -41.152378917813657 0 0 1 0 0 0 0 -1 forward_v I I I I #
coedge $-1 $561 $408 $410 $565 reversed $272 $-1 #
coedge $-1 $408 $560 $660 $661 reversed $272 $-1 #
coedge $-1 $416 $411 $408 $563 forward $406 $-1 #
edge $-1 $566 -13.923937045908822 $662 -10.948362073225873 $562 $663 forward 7 unknown #
coedge $-1 $410 $409 $569 $664 reversed $171 $-1 #
edge $-1 $665 0 $566 4.6291729547338809 $560 $666 forward 7 unknown #
vertex $-1 $412 $667 #
straight-curve $-1 -38.176803945130708 3.4088880408232498 6.3183332080579282 0 1 0 I I #
coedge $-1 $660 $413 $416 $573 reversed $558 $-1 #
coedge $-1 $413 $660 $564 $664 forward $558 $-1 #
vertex $-1 $414 $668 #
straight-curve $-1 -41.152378917813657 3.5854625396587831 27.838329346833898 0 0 1 I I #
straight-curve $-1 -41.152378917813657 3.5854625396587831 2.772180951487087 -0.64278759981090561 0 -0.7660444514056185 I I #
edge $-1 $662 -10.050089623634216 $417 -3.5854625396587831 $568 $669 forward 7 unknown #
point $-1 -41.152378917813657 3.5854625396587831 6.3183332080579282 #
point $-1 -38.176803945130708 3.5854625396587831 6.3183332080579273 #
edge $-1 $670 1 $670 0 $420 $-1 forward 7 unknown #
vertex $-1 $421 $671 #
ellipse-curve $-1 -38.260640278169724 4.8783879564538708 3.3672022156883941 -0.7660444514056185 0 0.64278759981090561 0.3213937999054528 0 0.38302222570280925 1 I I #
point $-1 -39.343197631566731 4.8783879564538708 4.9282793054753213 #
edge $-1 $672 1 $672 0 $424 $-1 forward 7 unknown #
vertex $-1 $425 $673 #
ellipse-curve $-1 -38.260640278169724 6.8177760816464996 3.3672022156883941 -0.7660444514056185 0 0.64278759981090561 0.3213937999054528 0 0.38302222570280925 1 I I #
point $-1 -39.343197631566731 6.8177760816464996 4.9282793054753213 #
edge $-1 $674 1 $674 0 $428 $-1 forward 7 unknown #
vertex $-1 $429 $675 #
ellipse-curve $-1 -38.260640278169724 8.7571642068391284 3.3672022156883941 -0.7660444514056185 0 0.64278759981090561 0.3213937999054528 0 0.38302222570280925 1 I I #
point $-1 -39.343197631566731 8.7571642068391284 4.9282793054753213 #
plane-surface $-1 41.152378917813657 0 0 -1 0 0 0 0 1 forward_v I I I I #
coedge $-1 $437 $435 $439 $593 reversed $301 $-1 #
edge $-1 $450 -6.3183332080579282 $595 6.3183332080579282 $449 $676 forward 7 unknown #
vertex $-1 $593 $677 #
straight-curve $-1 -41.152378917813657 -20.959618557805371 0 0 0 -1 I I #
edge $-1 $591 -20.959618557805371 $595 20.959618557805371 $589 $678 forward 7 unknown #
straight-curve $-1 0 -20.959618557805371 -6.3183332080579282 -1 0 0 I I #
vertex $-1 $442 $679 #
straight-curve $-1 0 20.959618557805371 -6.3183332080579282 1 0 0 I I #
point $-1 41.152378917813657 20.959618557805371 -6.3183332080579282 #
point $-1 41.152378917813657 -20.959618557805371 -6.3183332080579282 #
straight-curve $-1 -41.152378917813657 0 6.3183332080579282 0 -1 0 I I #
point $-1 -41.152378917813657 20.959618557805371 6.3183332080579282 #
point $-1 -41.152378917813657 -20.959618557805371 6.3183332080579282 #
straight-curve $-1 41.152378917813657 -20.959618557805371 0 0 0 -1 I I #
straight-curve $-1 41.152378917813657 20.959618557805371 0 0 0 -1 I I #
plane-surface $-1 41.152378917813657 0 0 -1 0 0 0 0 1 forward_v I I I I #
coedge $-1 $680 $608 $466 $613 forward $460 $-1 #
coedge $-1 $467 $462 $680 $681 forward $320 $-1 #
edge $-1 $476 -2.9577076671173543 $682 2.9577076671173543 $474 $683 forward 7 unknown #
coedge $-1 $605 $684 $463 $609 reversed $460 $-1 #
edge $-1 $616 -41.152378917813657 $611 41.152378917813657 $608 $685 forward 7 unknown #
coedge $-1 $474 $464 $684 $686 forward $475 $-1 #
vertex $-1 $465 $687 #
straight-curve $-1 41.152378917813657 -23.917326224922725 3.4844693044922446 0 1 0 I I #
edge $-1 $616 -1.5274334800558265 $614 1.5274334800558265 $466 $688 forward 7 unknown #
vertex $-1 $468 $689 #
straight-curve $-1 -41.152378917813657 -23.917326224922725 0.42960234438059164 0 1 0 I I #
vertex $-1 $469 $690 #
straight-curve $-1 -41.152378917813657 -23.917326224922725 3.4844693044922446 0 -1 0 I I #
point $-1 -41.152378917813657 -20.959618557805371 0.42960234438059164 #
straight-curve $-1 0 -20.959618557805371 0.42960234438059164 -1 0 0 I I #
point $-1 41.152378917813657 -20.959618557805371 0.42960234438059164 #
edge $-1 $622 50.98958320837292 $625 56.545045111267093 $481 $691 forward 7 unknown #
vertex $-1 $495 $692 #
straight-curve $-1 32.676287352467881 -12.740422815741889 6.3183332080579291 1 0 0 I I #
edge $-1 $625 -8.2438890165819849 $492 -0.74917858173782559 $491 $693 forward 7 unknown #
vertex $-1 $624 $694 #
straight-curve $-1 -3.6740039524742656 -12.740422815741889 69.789449962573769 -0.54463902268945019 0 0.83867057594974714 I I #
point $-1 37.544619890433573 -12.740422815741889 6.318333208057922 #
point $-1 41.152378917813657 -5.2457123808977304 0.76287130516375612 #
straight-curve $-1 41.152378917813657 0 6.3183332080579282 0 1 0 I I #
vertex $-1 $498 $695 #
point $-1 36.631673025312402 -10.599076977214986 0.58391135212244338 #
vertex $-1 $502 $696 #
point $-1 36.631673025312402 -7.3870582194246328 0.58391135212244338 #
edge $-1 $635 50.98958320837292 $638 56.545045111267093 $507 $697 forward 7 unknown #
vertex $-1 $521 $698 #
straight-curve $-1 32.676287352467881 -0.78964755030472134 6.3183332080579291 1 0 0 I I #
edge $-1 $638 -2.2685013838634003 $518 5.2262090509807582 $517 $699 forward 7 unknown #
vertex $-1 $637 $700 #
straight-curve $-1 -3.6740039524742656 -0.78964755030472134 69.789449962573769 -0.54463902268945019 0 0.83867057594974714 I I #
point $-1 37.544619890433573 -0.78964755030472134 6.318333208057922 #
point $-1 41.152378917813657 6.7050628845394371 0.76287130516375612 #
straight-curve $-1 41.152378917813657 0 6.3183332080579282 0 1 0 I I #
vertex $-1 $524 $701 #
point $-1 36.631673025312402 1.3516982882221811 0.58391135212244338 #
vertex $-1 $528 $702 #
point $-1 36.631673025312402 4.5637170460125347 0.58391135212244338 #
edge $-1 $648 50.98958320837292 $651 56.545045111267093 $533 $703 forward 7 unknown #
vertex $-1 $547 $704 #
straight-curve $-1 32.676287352467881 11.161127715132448 6.3183332080579291 1 0 0 I I #
edge $-1 $651 3.7068862488551844 $544 11.201596683699343 $543 $705 forward 7 unknown #
vertex $-1 $650 $706 #
straight-curve $-1 -3.6740039524742656 11.161127715132448 69.789449962573769 -0.54463902268945019 0 0.83867057594974714 I I #
point $-1 37.544619890433573 11.161127715132448 6.318333208057922 #
point $-1 41.152378917813657 18.655838149976606 0.76287130516375612 #
straight-curve $-1 41.152378917813657 0 6.3183332080579282 0 1 0 I I #
vertex $-1 $550 $707 #
point $-1 36.631673025312402 13.302473553659347 0.58391135212244338 #
vertex $-1 $554 $708 #
point $-1 36.631673025312402 16.5144923114497 0.58391135212244338 #
coedge $-1 $569 $568 $561 $661 forward $558 $-1 #
edge $-1 $662 21.519996138775969 $665 25.066148395346811 $660 $709 forward 7 unknown #
vertex $-1 $573 $710 #
straight-curve $-1 -52.10074099103953 10.050089623634216 6.3183332080579291 -1 0 0 I I #
edge $-1 $665 -6.6412015828109663 $570 -0.17657449883553333 $569 $711 forward 7 unknown #
vertex $-1 $664 $712 #
straight-curve $-1 -41.152378917813657 10.050089623634216 2.772180951487087 0.64278759981090561 0 0.7660444514056185 I I #
point $-1 -38.176803945130708 10.050089623634216 6.3183332080579273 #
point $-1 -41.152378917813657 3.5854625396587831 2.772180951487087 #
straight-curve $-1 -41.152378917813657 0 6.3183332080579282 0 -1 0 I I #
vertex $-1 $576 $713 #
point $-1 -37.939246478264273 4.8783879564538708 3.7502244413912034 #
vertex $-1 $580 $714 #
point $-1 -37.939246478264273 6.8177760816464996 3.7502244413912034 #
vertex $-1 $584 $715 #
point $-1 -37.939246478264273 8.7571642068391284 3.7502244413912034 #
straight-curve $-1 -41.152378917813657 20.959618557805371 0 0 0 -1 I I #
point $-1 -41.152378917813657 -20.959618557805371 -6.3183332080579282 #
straight-curve $-1 -41.152378917813657 0 -6.3183332080579282 0 1 0 I I #
point $-1 -41.152378917813657 20.959618557805371 -6.3183332080579282 #
coedge $-1 $684 $605 $606 $681 reversed $460 $-1 #
edge $-1 $682 -41.152378917813657 $614 41.152378917813657 $680 $716 forward 7 unknown #
vertex $-1 $686 $717 #
straight-curve $-1 41.152378917813657 -23.917326224922725 0.42960234438059164 0 -1 0 I I #
coedge $-1 $608 $680 $610 $686 reversed $460 $-1 #
straight-curve $-1 0 -26.875033892040079 3.4844693044922446 1 0 0 I I #
edge $-1 $611 -1.5274334800558265 $682 1.5274334800558265 $610 $718 forward 7 unknown #
point $-1 41.152378917813657 -26.875033892040079 3.4844693044922446 #
straight-curve $-1 -41.152378917813657 -26.875033892040079 1.9570358244364181 0 0 -1 I I #
point $-1 -41.152378917813657 -26.875033892040079 0.42960234438059164 #
point $-1 -41.152378917813657 -26.875033892040079 3.4844693044922446 #
straight-curve $-1 41.152378917813657 -12.740422815741889 57.307916416430849 0 0 -1 I I #
point $-1 41.152378917813657 -12.740422815741889 6.3183332080579282 #
straight-curve $-1 41.152378917813657 -4.4965337991599048 0.76287130516375612 0 1 0 I I #
point $-1 41.152378917813657 -12.740422815741889 0.76287130516375612 #
point $-1 35.248363426673201 -10.599076977214986 0.87794290538274056 #
point $-1 35.248363426673201 -7.3870582194246328 0.87794290538274056 #
straight-curve $-1 41.152378917813657 -0.78964755030472134 57.307916416430849 0 0 -1 I I #
point $-1 41.152378917813657 -0.78964755030472134 6.3183332080579282 #
straight-curve $-1 41.152378917813657 1.4788538335586789 0.76287130516375612 0 1 0 I I #
point $-1 41.152378917813657 -0.78964755030472134 0.76287130516375612 #
point $-1 35.248363426673201 1.3516982882221811 0.87794290538274056 #
point $-1 35.248363426673201 4.5637170460125347 0.87794290538274056 #
straight-curve $-1 41.152378917813657 11.161127715132448 57.307916416430849 0 0 -1 I I #
point $-1 41.152378917813657 11.161127715132448 6.3183332080579282 #
straight-curve $-1 41.152378917813657 7.4542414662772636 0.76287130516375612 0 1 0 I I #
point $-1 41.152378917813657 11.161127715132448 0.76287130516375612 #
point $-1 35.248363426673201 13.302473553659347 0.87794290538274056 #
point $-1 35.248363426673201 16.5144923114497 0.87794290538274056 #
straight-curve $-1 -41.152378917813657 10.050089623634216 27.838329346833898 0 0 -1 I I #
point $-1 -41.152378917813657 10.050089623634216 6.3183332080579282 #
straight-curve $-1 -41.152378917813657 3.4088880408232498 2.772180951487091 0 -1 0 I I #
point $-1 -41.152378917813657 10.050089623634216 2.772180951487087 #
point $-1 -37.877618052466921 4.8783879564538708 3.0458084157829415 #
point $-1 -37.877618052466921 6.8177760816464996 3.0458084157829415 #
point $-1 -37.877618052466921 8.7571642068391284 3.0458084157829415 #
straight-curve $-1 0 -26.875033892040079 0.42960234438059164 -1 0 0 I I #
point $-1 41.152378917813657 -26.875033892040079 0.42960234438059164 #
straight-curve $-1 41.152378917813657 -26.875033892040079 1.9570358244364181 0 0 -1 I I #
End-of-ACIS-data 