500 0 8 0           
7 Unknown 11 ACIS 5.0 NT 24 Thu Mar 25 20:47:35 1999 
-1 9.9999999999999995e-007 1e-010 
body $-1 $8 $-1 $9 #
body $-1 $10 $-1 $11 #
body $-1 $12 $-1 $13 #
body $-1 $14 $-1 $15 #
body $-1 $16 $-1 $17 #
body $-1 $18 $-1 $19 #
body $-1 $20 $-1 $21 #
body $-1 $22 $-1 $23 #
lump $-1 $-1 $24 $0 #
transform $-1 1 0 0 0 1 0 0 0 1 76.959135715811641 41.220944950941352 9.1744813206189217 1 rotate no_reflect no_shear #
lump $-1 $-1 $25 $1 #
transform $-1 1 0 0 0 1 0 0 0 1 76.959135715811641 41.220944950941352 9.1744813206189217 1 rotate no_reflect no_shear #
lump $-1 $-1 $26 $2 #
transform $-1 1 0 0 0 1 0 0 0 1 76.959135715811641 41.220944950941352 9.1744813206189217 1 rotate no_reflect no_shear #
lump $-1 $-1 $27 $3 #
transform $-1 1 0 0 0 1 0 0 0 1 76.959135715811641 41.220944950941352 9.1744813206189217 1 rotate no_reflect no_shear #
lump $-1 $-1 $28 $4 #
transform $-1 1 0 0 0 1 0 0 0 1 76.959135715811641 41.220944950941352 9.1744813206189217 1 rotate no_reflect no_shear #
lump $-1 $-1 $29 $5 #
transform $-1 1 0 0 0 1 0 0 0 1 76.959135715811641 41.220944950941352 9.1744813206189217 1 rotate no_reflect no_shear #
lump $-1 $-1 $30 $6 #
transform $-1 1 0 0 0 1 0 0 0 1 76.959135715811641 41.220944950941352 9.1744813206189217 1 rotate no_reflect no_shear #
lump $-1 $-1 $31 $7 #
transform $-1 1 0 0 0 1 0 0 0 1 76.959135715811641 41.220944950941352 9.1744813206189217 1 rotate no_reflect no_shear #
shell $-1 $-1 $-1 $32 $-1 $8 #
shell $-1 $-1 $-1 $33 $-1 $10 #
shell $-1 $-1 $-1 $34 $-1 $12 #
shell $-1 $-1 $-1 $35 $-1 $14 #
shell $-1 $-1 $-1 $36 $-1 $16 #
shell $-1 $-1 $-1 $37 $-1 $18 #
shell $-1 $-1 $-1 $38 $-1 $20 #
shell $-1 $-1 $-1 $39 $-1 $22 #
face $-1 $40 $41 $24 $-1 $42 forward single #
face $-1 $43 $44 $25 $-1 $45 reversed single #
face $-1 $46 $47 $26 $-1 $48 reversed single #
face $-1 $49 $50 $27 $-1 $51 forward single #
face $-1 $52 $53 $28 $-1 $54 reversed single #
face $-1 $55 $56 $29 $-1 $57 forward single #
face $-1 $58 $59 $30 $-1 $60 reversed single #
face $-1 $61 $62 $31 $-1 $63 forward single #
face $-1 $64 $65 $24 $-1 $66 reversed single #
loop $-1 $-1 $67 $32 #
plane-surface $-1 0 0 9.1744813206189217 0 0 1 1 0 0 forward_v I I I I #
face $-1 $68 $69 $25 $-1 $70 reversed single #
loop $-1 $-1 $71 $33 #
plane-surface $-1 -74.237142397697042 -33.556412964868976 0 0 -1 0 0 0 -1 forward_v I I I I #
face $-1 $72 $73 $26 $-1 $74 reversed single #
loop $-1 $-1 $75 $34 #
plane-surface $-1 27.993297563555686 21.550896393437046 215.12986959182362 0 1 0 0.52991927123019833 0 0.84804809178421925 forward_v I I I I #
face $-1 $76 $77 $27 $-1 $78 forward single #
loop $-1 $79 $80 $35 #
cone-surface $-1 70.735746759540078 31.385920672189208 4.0066569238498406 -0.52991927123019833 0 -0.84804809178421925 1.6960961835684385 0 -1.0598385424603967 1 I I 0 1 2 forward I I I I #
face $-1 $81 $82 $28 $-1 $83 reversed single #
loop $-1 $-1 $84 $36 #
plane-surface $-1 -193.12273101235019 -3.76801821982475 101.78541086127463 0 1 0 -0.75470958851134928 0 0.65605901945558964 forward_v I I I I #
face $-1 $85 $86 $29 $-1 $87 forward single #
loop $-1 $88 $89 $37 #
cone-surface $-1 -72.554254820258905 0.032123886605724294 4.3229897221795071 0.75470958851134928 0 -0.65605901945558964 0.65605901945558964 0 0.75470958851134928 1 I I 0 1 1 forward I I I I #
face $-1 $90 $91 $30 $-1 $92 reversed single #
loop $-1 $-1 $93 $38 #
plane-surface $-1 -76.959135715811612 0.032123886605724294 0.80594062954456547 -0.75470958851134928 0 0.65605901945558964 0.65605901945558964 0 0.75470958851134928 forward_v I I I I #
face $-1 $94 $95 $31 $-1 $96 forward single #
loop $-1 $97 $98 $39 #
cone-surface $-1 -72.554254820258905 7.6324080994666659 4.3229897221795071 0.75470958851134928 0 -0.65605901945558964 0.65605901945558964 0 0.75470958851134928 1 I I 0 1 1 forward I I I I #
face $-1 $99 $100 $24 $-1 $101 reversed single #
loop $-1 $-1 $102 $40 #
plane-surface $-1 0 0 -9.1744813206189217 0 0 1 1 0 0 forward_v I I I I #
coedge $-1 $103 $104 $105 $106 forward $41 $-1 #
face $-1 $107 $108 $25 $-1 $109 forward single #
loop $-1 $-1 $110 $43 #
plane-surface $-1 -71.515149079582443 -37.388678957905164 0 -1 0 0 0 0 1 forward_v I I I I #
coedge $-1 $111 $112 $113 $114 forward $44 $-1 #
face $-1 $115 $116 $26 $-1 $117 reversed single #
loop $-1 $-1 $118 $46 #
plane-surface $-1 -53.570960662501975 31.385920672189208 84.599773213509991 0.52991927123019833 0 0.84804809178421925 0.84804809178421925 0 -0.52991927123019833 forward_v I I I I #
coedge $-1 $119 $120 $121 $122 reversed $47 $-1 #
face $-1 $-1 $123 $27 $-1 $124 forward single #
loop $-1 $125 $126 $49 #
cone-surface $-1 68.894638339646292 31.385920672189208 1.0602676018798451 -0.52991927123019833 0 -0.84804809178421925 0.84804809178421925 0 -0.52991927123019833 1 I I -0.70710678118654746 0.70710678118654746 1 forward I I I I #
loop $-1 $-1 $127 $35 #
coedge $-1 $80 $80 $128 $129 reversed $50 $-1 #
face $-1 $130 $131 $28 $-1 $132 reversed single #
loop $-1 $-1 $133 $52 #
plane-surface $-1 -76.959135715811612 0.032123886605724294 0.80594062954456547 -0.75470958851134928 0 0.65605901945558964 0.65605901945558964 0 0.75470958851134928 forward_v I I I I #
coedge $-1 $134 $135 $136 $137 reversed $53 $-1 #
face $-1 $-1 $138 $29 $-1 $139 forward single #
loop $-1 $140 $141 $55 #
cone-surface $-1 -71.409349756453182 0.032123886605724294 3.3277389595494693 0.75470958851134928 0 -0.65605901945558964 0.32802950972779482 0 0.37735479425567464 1 I I -0.70710678118654746 0.70710678118654746 0.5 forward I I I I #
loop $-1 $-1 $142 $37 #
coedge $-1 $89 $89 $143 $144 reversed $56 $-1 #
face $-1 $145 $146 $30 $-1 $147 reversed single #
loop $-1 $-1 $148 $58 #
plane-surface $-1 -193.12273101235019 11.43255020589714 101.78541086127463 0 -1 0 0.75470958851134928 0 -0.65605901945558964 forward_v I I I I #
coedge $-1 $149 $150 $151 $152 reversed $59 $-1 #
face $-1 $-1 $153 $31 $-1 $154 forward single #
loop $-1 $155 $156 $61 #
cone-surface $-1 -71.409349756453182 7.6324080994666659 3.3277389595494693 0.75470958851134928 0 -0.65605901945558964 0.32802950972779482 0 0.37735479425567464 1 I I -0.70710678118654746 0.70710678118654746 0.5 forward I I I I #
loop $-1 $-1 $157 $39 #
coedge $-1 $98 $98 $158 $159 reversed $62 $-1 #
face $-1 $160 $161 $24 $-1 $162 reversed single #
loop $-1 $-1 $163 $64 #
plane-surface $-1 0 -41.220944950941352 0 0 1 0 0 0 1 forward_v I I I I #
coedge $-1 $164 $165 $166 $167 forward $65 $-1 #
coedge $-1 $168 $67 $169 $170 forward $41 $-1 #
coedge $-1 $67 $168 $171 $172 forward $41 $-1 #
coedge $-1 $173 $174 $67 $106 reversed $175 $-1 #
edge $-1 $176 -41.220944950941352 $177 41.220944950941352 $105 $178 forward 7 unknown #
face $-1 $179 $180 $25 $-1 $181 reversed single #
loop $-1 $-1 $182 $68 #
plane-surface $-1 0 0 9.1744813206189217 0 0 1 1 0 0 forward_v I I I I #
coedge $-1 $183 $184 $185 $186 reversed $69 $-1 #
coedge $-1 $187 $71 $188 $189 reversed $44 $-1 #
coedge $-1 $71 $187 $190 $191 reversed $44 $-1 #
coedge $-1 $184 $183 $71 $114 reversed $69 $-1 #
edge $-1 $192 -9.1744813206189217 $193 9.1744813206189217 $113 $194 forward 7 unknown #
face $-1 $195 $196 $26 $-1 $197 reversed single #
loop $-1 $-1 $121 $72 #
plane-surface $-1 76.959135715811641 0 0 -1 0 0 0 0 1 forward_v I I I I #
coedge $-1 $198 $199 $200 $201 reversed $73 $-1 #
coedge $-1 $120 $75 $202 $203 reversed $47 $-1 #
coedge $-1 $75 $119 $198 $204 reversed $47 $-1 #
coedge $-1 $200 $205 $75 $122 forward $116 $-1 #
edge $-1 $206 98.390453475292887 $207 104.52941980845947 $121 $208 forward 7 unknown #
loop $-1 $-1 $128 $76 #
plane-surface $-1 -53.570960662501975 31.385920672189208 84.599773213509991 0.52991927123019833 0 0.84804809178421925 0.84804809178421925 0 -0.52991927123019833 forward_v I I I I #
loop $-1 $-1 $209 $49 #
coedge $-1 $126 $126 $127 $210 reversed $77 $-1 #
coedge $-1 $127 $127 $126 $210 forward $79 $-1 #
coedge $-1 $128 $128 $80 $129 forward $123 $-1 #
edge $-1 $211 0 $211 6.2831853071796004 $128 $212 forward 7 unknown #
face $-1 $213 $214 $28 $-1 $215 reversed single #
loop $-1 $-1 $216 $81 #
plane-surface $-1 -193.12273101235019 3.8322659930361986 101.78541086127463 0 -1 0 0.75470958851134928 0 -0.65605901945558964 forward_v I I I I #
coedge $-1 $217 $218 $219 $220 reversed $82 $-1 #
coedge $-1 $135 $84 $221 $222 reversed $53 $-1 #
coedge $-1 $84 $134 $217 $223 reversed $53 $-1 #
coedge $-1 $219 $224 $84 $137 forward $225 $-1 #
edge $-1 $226 19.602229790363452 $227 26.876891042368868 $136 $228 forward 7 unknown #
loop $-1 $-1 $143 $85 #
plane-surface $-1 -76.959135715811612 0.032123886605724294 0.80594062954456547 -0.75470958851134928 0 0.65605901945558964 0.65605901945558964 0 0.75470958851134928 forward_v I I I I #
loop $-1 $-1 $229 $55 #
coedge $-1 $141 $141 $142 $230 reversed $86 $-1 #
coedge $-1 $142 $142 $141 $230 forward $88 $-1 #
coedge $-1 $143 $143 $89 $144 forward $138 $-1 #
edge $-1 $231 0 $231 6.2831853071796004 $143 $232 forward 7 unknown #
face $-1 $233 $234 $30 $-1 $235 forward single #
loop $-1 $-1 $236 $90 #
plane-surface $-1 -76.959135715811641 0 0 1 0 0 0 0 -1 forward_v I I I I #
coedge $-1 $237 $238 $239 $240 reversed $91 $-1 #
coedge $-1 $241 $93 $242 $243 reversed $59 $-1 #
coedge $-1 $93 $241 $244 $245 reversed $59 $-1 #
coedge $-1 $246 $247 $93 $152 forward $234 $-1 #
edge $-1 $248 -4.328046010504047e-014 $249 11.088425029263439 $151 $250 forward 7 unknown #
loop $-1 $-1 $158 $94 #
plane-surface $-1 -76.959135715811612 0.032123886605724294 0.80594062954456547 -0.75470958851134928 0 0.65605901945558964 0.65605901945558964 0 0.75470958851134928 forward_v I I I I #
loop $-1 $-1 $251 $61 #
coedge $-1 $156 $156 $157 $252 reversed $95 $-1 #
coedge $-1 $157 $157 $156 $252 forward $97 $-1 #
coedge $-1 $158 $158 $98 $159 forward $153 $-1 #
edge $-1 $253 0 $253 6.2831853071796004 $158 $254 forward 7 unknown #
face $-1 $255 $256 $24 $-1 $257 reversed single #
loop $-1 $-1 $258 $99 #
plane-surface $-1 -76.959135715811641 0 0 1 0 0 0 0 -1 forward_v I I I I #
coedge $-1 $259 $171 $260 $261 forward $100 $-1 #
coedge $-1 $262 $102 $259 $263 forward $65 $-1 #
coedge $-1 $102 $262 $264 $265 forward $65 $-1 #
coedge $-1 $174 $173 $102 $167 reversed $175 $-1 #
edge $-1 $266 -41.220944950941352 $267 41.220944950941352 $166 $268 forward 7 unknown #
coedge $-1 $104 $103 $269 $270 forward $41 $-1 #
coedge $-1 $271 $272 $103 $170 reversed $256 $-1 #
edge $-1 $177 -76.959135715811641 $273 76.959135715811641 $169 $274 forward 7 unknown #
coedge $-1 $163 $275 $104 $172 reversed $100 $-1 #
edge $-1 $276 -76.959135715811641 $176 76.959135715811641 $171 $277 forward 7 unknown #
coedge $-1 $166 $105 $275 $278 forward $175 $-1 #
coedge $-1 $105 $166 $271 $279 reversed $175 $-1 #
loop $-1 $-1 $173 $255 #
vertex $-1 $106 $280 #
vertex $-1 $106 $281 #
straight-curve $-1 76.959135715811641 0 9.1744813206189217 0 1 0 I I #
face $-1 $282 $283 $25 $-1 $284 reversed single #
loop $-1 $-1 $285 $107 #
plane-surface $-1 -76.959135715811641 0 0 1 0 0 0 0 -1 forward_v I I I I #
coedge $-1 $190 $286 $184 $287 forward $108 $-1 #
coedge $-1 $113 $110 $288 $289 reversed $69 $-1 #
coedge $-1 $110 $113 $182 $287 reversed $69 $-1 #
coedge $-1 $290 $291 $110 $186 forward $292 $-1 #
edge $-1 $293 -9.1744813206189217 $294 9.1744813206189217 $185 $295 forward 7 unknown #
coedge $-1 $112 $111 $285 $296 reversed $44 $-1 #
coedge $-1 $288 $297 $111 $189 forward $283 $-1 #
edge $-1 $298 -39.84056451696312 $193 -34.396577880733922 $188 $299 forward 7 unknown #
coedge $-1 $300 $182 $112 $191 forward $108 $-1 #
edge $-1 $192 34.396577880733922 $301 39.84056451696312 $190 $302 forward 7 unknown #
vertex $-1 $191 $303 #
vertex $-1 $189 $304 #
straight-curve $-1 -71.515149079582443 -33.556412964868976 0 0 0 -1 I I #
face $-1 $-1 $305 $26 $-1 $306 forward single #
loop $-1 $-1 $307 $115 #
plane-surface $-1 0 41.220944950941352 0 0 -1 0 0 0 -1 forward_v I I I I #
coedge $-1 $308 $118 $120 $204 forward $73 $-1 #
coedge $-1 $118 $308 $307 $309 reversed $73 $-1 #
coedge $-1 $310 $121 $118 $201 forward $116 $-1 #
edge $-1 $207 5.8579360573424424 $311 25.527984614846748 $200 $312 forward 7 unknown #
coedge $-1 $313 $314 $119 $203 forward $305 $-1 #
edge $-1 $315 53.138087318817817 $206 62.962486934033798 $202 $316 forward 7 unknown #
edge $-1 $207 -153.91827143162325 $315 -142.33355151963536 $120 $317 forward 7 unknown #
coedge $-1 $121 $310 $313 $318 reversed $116 $-1 #
vertex $-1 $318 $319 #
vertex $-1 $122 $320 #
straight-curve $-1 76.959135715811641 21.550896393437046 107.56493479591181 0 0 -1 I I #
coedge $-1 $209 $209 $-1 $321 reversed $125 $-1 #
edge $-1 $322 0 $322 6.2831853071796004 $126 $323 forward 7 unknown #
vertex $-1 $129 $324 #
ellipse-curve $-1 72.046935908203665 31.385920672189208 6.1049981540356182 0.52991927123019833 0 0.84804809178421925 1.6960961835684385 0 -1.0598385424603967 1 I I #
face $-1 $-1 $225 $28 $-1 $325 forward single #
loop $-1 $-1 $326 $130 #
plane-surface $-1 -76.959135715811641 0 0 1 0 0 0 0 -1 forward_v I I I I #
coedge $-1 $327 $328 $329 $330 reversed $131 $-1 #
coedge $-1 $331 $133 $135 $223 forward $82 $-1 #
coedge $-1 $133 $331 $327 $332 forward $82 $-1 #
coedge $-1 $329 $136 $133 $220 forward $225 $-1 #
edge $-1 $227 -3.7840801631276122 $333 3.8162040497333365 $219 $334 forward 7 unknown #
coedge $-1 $335 $336 $134 $222 forward $214 $-1 #
edge $-1 $337 -50.086764801092784 $226 -41.71822411001839 $221 $338 forward 7 unknown #
edge $-1 $227 -11.088425029263439 $337 4.328046010504047e-014 $135 $339 forward 7 unknown #
coedge $-1 $136 $329 $335 $340 forward $225 $-1 #
loop $-1 $-1 $329 $213 #
vertex $-1 $222 $341 #
vertex $-1 $137 $342 #
straight-curve $-1 -96.561365506175093 -3.76801821982475 9.1744813206189235 1 0 0 I I #
coedge $-1 $229 $229 $-1 $343 reversed $140 $-1 #
edge $-1 $344 0 $344 6.2831853071796004 $141 $345 forward 7 unknown #
vertex $-1 $144 $346 #
ellipse-curve $-1 -73.321805089808933 0.032123886605724294 4.9902109750817294 -0.75470958851134928 0 0.65605901945558964 0.65605901945558964 0 0.75470958851134928 1 I I #
face $-1 $-1 $347 $30 $-1 $348 forward single #
loop $-1 $-1 $246 $145 #
plane-surface $-1 -193.12273101235019 3.8322659930361986 101.78541086127463 0 -1 0 0.75470958851134928 0 -0.65605901945558964 forward_v I I I I #
coedge $-1 $242 $349 $238 $350 forward $146 $-1 #
coedge $-1 $238 $148 $241 $351 reversed $91 $-1 #
coedge $-1 $148 $237 $236 $350 reversed $91 $-1 #
coedge $-1 $352 $244 $148 $240 forward $347 $-1 #
edge $-1 $353 -26.876891042368868 $354 -19.602229790363452 $239 $355 forward 7 unknown #
coedge $-1 $150 $149 $237 $351 forward $59 $-1 #
coedge $-1 $356 $236 $149 $243 forward $146 $-1 #
edge $-1 $357 -11.416488262594278 $248 -3.8162040497333365 $242 $358 forward 7 unknown #
coedge $-1 $239 $359 $150 $245 forward $347 $-1 #
edge $-1 $249 3.8162040497333365 $353 11.416488262594278 $244 $360 forward 7 unknown #
coedge $-1 $247 $151 $359 $361 reversed $234 $-1 #
coedge $-1 $151 $246 $356 $362 reversed $234 $-1 #
vertex $-1 $243 $363 #
vertex $-1 $245 $364 #
straight-curve $-1 -76.959135715811612 3.8322659930361986 0.80594062954456547 0.65605901945558964 0 0.75470958851134928 I I #
coedge $-1 $251 $251 $-1 $365 reversed $155 $-1 #
edge $-1 $366 0 $366 6.2831853071796004 $156 $367 forward 7 unknown #
vertex $-1 $159 $368 #
ellipse-curve $-1 -73.321805089808933 7.6324080994666659 4.9902109750817294 -0.75470958851134928 0 0.65605901945558964 0.65605901945558964 0 0.75470958851134928 1 I I #
face $-1 $-1 $175 $24 $-1 $369 reversed single #
loop $-1 $-1 $271 $160 #
plane-surface $-1 0 41.220944950941352 0 0 -1 0 0 0 -1 forward_v I I I I #
coedge $-1 $370 $269 $272 $371 forward $161 $-1 #
coedge $-1 $275 $163 $164 $263 reversed $100 $-1 #
coedge $-1 $269 $370 $163 $261 reversed $161 $-1 #
edge $-1 $276 -9.1744813206189217 $372 9.1744813206189217 $260 $373 forward 7 unknown #
coedge $-1 $165 $164 $370 $374 forward $65 $-1 #
edge $-1 $267 -76.959135715811641 $372 76.959135715811641 $259 $375 forward 7 unknown #
coedge $-1 $272 $271 $165 $265 reversed $256 $-1 #
edge $-1 $376 -76.959135715811641 $266 76.959135715811641 $264 $377 forward 7 unknown #
vertex $-1 $167 $378 #
vertex $-1 $278 $379 #
straight-curve $-1 76.959135715811641 0 -9.1744813206189217 0 -1 0 I I #
coedge $-1 $258 $260 $168 $270 reversed $161 $-1 #
edge $-1 $273 -41.220944950941352 $276 41.220944950941352 $269 $380 forward 7 unknown #
coedge $-1 $264 $169 $174 $279 forward $256 $-1 #
coedge $-1 $169 $264 $258 $371 reversed $256 $-1 #
vertex $-1 $170 $381 #
straight-curve $-1 0 41.220944950941352 9.1744813206189217 -1 0 0 I I #
coedge $-1 $171 $259 $173 $278 reversed $100 $-1 #
vertex $-1 $270 $382 #
straight-curve $-1 0 -41.220944950941352 9.1744813206189217 1 0 0 I I #
edge $-1 $176 -9.1744813206189217 $267 9.1744813206189217 $173 $383 forward 7 unknown #
edge $-1 $177 -9.1744813206189217 $266 9.1744813206189217 $174 $384 forward 7 unknown #
point $-1 76.959135715811641 -41.220944950941352 9.1744813206189217 #
point $-1 76.959135715811641 41.220944950941352 9.1744813206189217 #
face $-1 $-1 $292 $25 $-1 $385 reversed single #
loop $-1 $-1 $288 $179 #
plane-surface $-1 0 0 -9.1744813206189217 0 0 1 1 0 0 forward_v I I I I #
coedge $-1 $386 $387 $187 $296 forward $180 $-1 #
coedge $-1 $182 $300 $290 $388 forward $108 $-1 #
edge $-1 $294 -22.52660547198877 $192 -14.862073485916394 $182 $389 forward 7 unknown #
coedge $-1 $390 $188 $183 $289 forward $283 $-1 #
edge $-1 $193 14.862073485916394 $293 22.52660547198877 $288 $391 forward 7 unknown #
coedge $-1 $392 $185 $286 $388 reversed $292 $-1 #
coedge $-1 $185 $392 $390 $393 reversed $292 $-1 #
loop $-1 $-1 $185 $282 #
vertex $-1 $393 $394 #
vertex $-1 $186 $395 #
straight-curve $-1 -71.515149079582443 -41.220944950941352 0 0 0 1 I I #
edge $-1 $301 -9.1744813206189217 $298 9.1744813206189217 $285 $396 forward 7 unknown #
coedge $-1 $188 $390 $386 $397 forward $283 $-1 #
vertex $-1 $189 $398 #
straight-curve $-1 -37.118571198848521 -33.556412964868976 -9.1744813206189217 1 0 0 I I #
coedge $-1 $286 $190 $387 $399 forward $108 $-1 #
vertex $-1 $399 $400 #
straight-curve $-1 -37.118571198848521 -33.556412964868976 9.1744813206189217 -1 0 0 I I #
point $-1 -71.515149079582443 -33.556412964868976 9.1744813206189217 #
point $-1 -71.515149079582443 -33.556412964868976 -9.1744813206189217 #
loop $-1 $-1 $202 $195 #
plane-surface $-1 0 0 9.1744813206189217 0 0 1 1 0 0 forward_v I I I I #
coedge $-1 $401 $402 $199 $309 forward $196 $-1 #
coedge $-1 $199 $198 $314 $403 reversed $73 $-1 #
edge $-1 $311 -108.78737086541048 $404 -97.202650953422591 $307 $405 forward 7 unknown #
coedge $-1 $205 $200 $402 $406 reversed $116 $-1 #
vertex $-1 $309 $407 #
straight-curve $-1 76.959135715811655 15.692960336094604 3.0355149874523377 0 1 0 I I #
coedge $-1 $408 $202 $205 $318 forward $305 $-1 #
coedge $-1 $202 $408 $308 $403 forward $305 $-1 #
vertex $-1 $203 $409 #
straight-curve $-1 13.996648781777843 21.550896393437046 9.1744813206189235 1 0 0 I I #
straight-curve $-1 -53.570960662501975 21.550896393437046 84.599773213509991 -0.84804809178421925 0 0.52991927123019833 I I #
edge $-1 $206 21.550896393437046 $410 41.220944950941352 $205 $411 forward 7 unknown #
point $-1 76.959135715811641 21.550896393437046 9.1744813206189217 #
point $-1 76.959135715811627 21.550896393437046 3.0355149874523448 #
edge $-1 $412 1 $412 0 $209 $-1 forward 7 unknown #
vertex $-1 $210 $413 #
ellipse-curve $-1 69.424557610876491 31.385920672189208 1.9083156936640644 0.52991927123019833 0 0.84804809178421925 1.6960961835684385 0 -1.0598385424603967 1 I I #
point $-1 73.743032091772093 31.385920672189208 5.0451596115752206 #
plane-surface $-1 0 0 9.1744813206189217 0 0 1 1 0 0 forward_v I I I I #
coedge $-1 $336 $335 $328 $414 forward $214 $-1 #
coedge $-1 $328 $216 $218 $332 reversed $131 $-1 #
coedge $-1 $216 $327 $326 $414 reversed $131 $-1 #
coedge $-1 $224 $219 $216 $330 forward $225 $-1 #
edge $-1 $333 -26.876891042368868 $415 -19.602229790363452 $329 $416 forward 7 unknown #
coedge $-1 $218 $217 $336 $417 reversed $82 $-1 #
edge $-1 $418 -4.328046010504047e-014 $333 11.088425029263439 $327 $419 forward 7 unknown #
vertex $-1 $220 $420 #
straight-curve $-1 -69.684474463806225 0.016061943302862147 9.17448132061892 0 1 0 I I #
coedge $-1 $326 $221 $224 $340 reversed $214 $-1 #
coedge $-1 $221 $326 $331 $417 forward $214 $-1 #
vertex $-1 $222 $421 #
straight-curve $-1 -76.959135715811641 -3.76801821982475 50.892705430637314 0 0 1 I I #
straight-curve $-1 -76.959135715811612 -3.76801821982475 0.80594062954456547 -0.65605901945558964 0 -0.75470958851134928 I I #
edge $-1 $415 -3.8322659930361986 $226 3.76801821982475 $335 $422 forward 7 unknown #
point $-1 -76.959135715811641 -3.76801821982475 9.1744813206189217 #
point $-1 -69.684474463806225 -3.76801821982475 9.1744813206189217 #
edge $-1 $423 1 $423 0 $229 $-1 forward 7 unknown #
vertex $-1 $230 $424 #
ellipse-curve $-1 -71.786704550708862 0.032123886605724294 3.6557684692772643 -0.75470958851134928 0 0.65605901945558964 0.65605901945558964 0 0.75470958851134928 1 I I #
point $-1 -72.665746070353364 0.032123886605724294 5.7449205635930998 #
loop $-1 $-1 $239 $233 #
plane-surface $-1 0 0 9.1744813206189217 0 0 1 1 0 0 forward_v I I I I #
coedge $-1 $236 $356 $352 $425 reversed $146 $-1 #
edge $-1 $354 41.71822411001839 $357 50.086764801092784 $236 $426 forward 7 unknown #
edge $-1 $357 -4.328046010504047e-014 $353 11.088425029263439 $237 $427 forward 7 unknown #
coedge $-1 $359 $239 $349 $425 forward $347 $-1 #
vertex $-1 $240 $428 #
vertex $-1 $425 $429 #
straight-curve $-1 -96.561365506175093 11.43255020589714 9.1744813206189235 -1 0 0 I I #
coedge $-1 $349 $242 $247 $362 forward $146 $-1 #
vertex $-1 $350 $430 #
straight-curve $-1 -76.959135715811641 0.016061943302862147 0.80594062954452461 0 -1 0 I I #
coedge $-1 $244 $352 $246 $361 forward $347 $-1 #
straight-curve $-1 -69.684474463806225 0.016061943302862147 9.17448132061892 0 1 0 I I #
edge $-1 $431 19.602229790363452 $249 26.876891042368868 $359 $432 forward 7 unknown #
edge $-1 $248 -50.086764801092784 $431 -41.71822411001839 $356 $433 forward 7 unknown #
point $-1 -76.959135715811641 3.8322659930361986 0.80594062954453283 #
point $-1 -69.684474463806225 3.8322659930361986 9.1744813206189217 #
edge $-1 $434 1 $434 0 $251 $-1 forward 7 unknown #
vertex $-1 $252 $435 #
ellipse-curve $-1 -71.786704550708862 7.6324080994666659 3.6557684692772643 -0.75470958851134928 0 0.65605901945558964 0.65605901945558964 0 0.75470958851134928 1 I I #
point $-1 -72.665746070353364 7.6324080994666659 5.7449205635930998 #
plane-surface $-1 76.959135715811641 0 0 -1 0 0 0 0 1 forward_v I I I I #
coedge $-1 $260 $258 $262 $374 reversed $161 $-1 #
edge $-1 $273 -9.1744813206189217 $376 9.1744813206189217 $272 $436 forward 7 unknown #
vertex $-1 $374 $437 #
straight-curve $-1 -76.959135715811641 -41.220944950941352 0 0 0 -1 I I #
edge $-1 $372 -41.220944950941352 $376 41.220944950941352 $370 $438 forward 7 unknown #
straight-curve $-1 0 -41.220944950941352 -9.1744813206189217 -1 0 0 I I #
vertex $-1 $265 $439 #
straight-curve $-1 0 41.220944950941352 -9.1744813206189217 1 0 0 I I #
point $-1 76.959135715811641 41.220944950941352 -9.1744813206189217 #
point $-1 76.959135715811641 -41.220944950941352 -9.1744813206189217 #
straight-curve $-1 -76.959135715811641 0 9.1744813206189217 0 -1 0 I I #
point $-1 -76.959135715811641 41.220944950941352 9.1744813206189217 #
point $-1 -76.959135715811641 -41.220944950941352 9.1744813206189217 #
straight-curve $-1 76.959135715811641 -41.220944950941352 0 0 0 -1 I I #
straight-curve $-1 76.959135715811641 41.220944950941352 0 0 0 -1 I I #
plane-surface $-1 0 -41.220944950941352 0 0 1 0 0 0 1 forward_v I I I I #
coedge $-1 $440 $285 $297 $397 reversed $180 $-1 #
coedge $-1 $285 $440 $300 $399 reversed $180 $-1 #
edge $-1 $441 -76.959135715811641 $294 -71.515149079582443 $290 $442 forward 7 unknown #
straight-curve $-1 -71.515149079582443 -18.694339478952582 9.1744813206189217 0 1 0 I I #
coedge $-1 $297 $288 $291 $393 forward $283 $-1 #
straight-curve $-1 -71.515149079582443 -18.694339478952582 -9.1744813206189217 0 -1 0 I I #
coedge $-1 $291 $290 $440 $443 forward $292 $-1 #
edge $-1 $293 71.515149079582443 $444 76.959135715811641 $291 $445 forward 7 unknown #
point $-1 -71.515149079582443 -41.220944950941352 -9.1744813206189217 #
point $-1 -71.515149079582443 -41.220944950941352 9.1744813206189217 #
straight-curve $-1 -76.959135715811641 -33.556412964868976 0 0 0 -1 I I #
edge $-1 $444 -41.220944950941352 $298 -33.556412964868976 $386 $446 forward 7 unknown #
point $-1 -76.959135715811641 -33.556412964868976 -9.1744813206189217 #
edge $-1 $301 33.556412964868976 $441 41.220944950941352 $387 $447 forward 7 unknown #
point $-1 -76.959135715811641 -33.556412964868976 9.1744813206189217 #
coedge $-1 $402 $307 $408 $448 reversed $196 $-1 #
coedge $-1 $307 $401 $310 $406 forward $196 $-1 #
edge $-1 $404 -25.527984614846769 $315 -5.8579360573424424 $314 $449 forward 7 unknown #
vertex $-1 $309 $450 #
straight-curve $-1 -15.297786556821894 41.220944950941352 60.684039275499984 -0.84804809178421925 0 0.52991927123019833 I I #
edge $-1 $410 -9.1744813206189217 $311 -3.0355149874523493 $310 $451 forward 7 unknown #
point $-1 76.959135715811641 41.220944950941352 3.0355149874523493 #
coedge $-1 $314 $313 $401 $448 forward $305 $-1 #
point $-1 67.13473610059566 21.550896393437046 9.1744813206189377 #
vertex $-1 $318 $452 #
straight-curve $-1 76.959135715811641 0 9.1744813206189217 0 1 0 I I #
vertex $-1 $321 $453 #
point $-1 71.120653794444934 31.385920672189208 0.84847715120366773 #
edge $-1 $415 41.71822411001839 $418 50.086764801092784 $326 $454 forward 7 unknown #
vertex $-1 $340 $455 #
straight-curve $-1 -96.561365506175093 3.8322659930361986 9.1744813206189235 -1 0 0 I I #
edge $-1 $418 -3.8162040497333365 $337 3.7840801631276122 $336 $456 forward 7 unknown #
vertex $-1 $417 $457 #
straight-curve $-1 -76.959135715811612 3.8322659930361986 0.80594062954456547 0.65605901945558964 0 0.75470958851134928 I I #
point $-1 -69.684474463806225 3.8322659930361986 9.1744813206189217 #
point $-1 -76.959135715811641 -3.76801821982475 0.80594062954453283 #
straight-curve $-1 -76.959135715811641 0 9.1744813206189217 0 -1 0 I I #
vertex $-1 $343 $458 #
point $-1 -71.130645531253265 0.032123886605724294 4.4104780577886133 #
edge $-1 $354 -11.43255020589714 $431 -3.8322659930361986 $349 $459 forward 7 unknown #
straight-curve $-1 -76.959135715811641 11.43255020589714 50.892705430637314 0 0 -1 I I #
straight-curve $-1 -76.959135715811612 11.43255020589714 0.80594062954456547 0.65605901945558964 0 0.75470958851134928 I I #
point $-1 -69.684474463806225 11.43255020589714 9.1744813206189217 #
point $-1 -76.959135715811641 11.43255020589714 9.1744813206189217 #
point $-1 -76.959135715811641 11.43255020589714 0.80594062954453283 #
vertex $-1 $362 $460 #
straight-curve $-1 -96.561365506175093 3.8322659930361986 9.1744813206189235 1 0 0 I I #
straight-curve $-1 -76.959135715811641 3.8322659930361986 50.892705430637314 0 0 1 I I #
vertex $-1 $365 $461 #
point $-1 -71.130645531253265 7.6324080994666659 4.4104780577886133 #
straight-curve $-1 -76.959135715811641 41.220944950941352 0 0 0 -1 I I #
point $-1 -76.959135715811641 -41.220944950941352 -9.1744813206189217 #
straight-curve $-1 -76.959135715811641 0 -9.1744813206189217 0 1 0 I I #
point $-1 -76.959135715811641 41.220944950941352 -9.1744813206189217 #
coedge $-1 $387 $386 $392 $443 reversed $180 $-1 #
vertex $-1 $399 $462 #
straight-curve $-1 0 -41.220944950941352 9.1744813206189217 1 0 0 I I #
edge $-1 $441 -9.1744813206189217 $444 9.1744813206189217 $440 $463 forward 7 unknown #
vertex $-1 $397 $464 #
straight-curve $-1 0 -41.220944950941352 -9.1744813206189217 -1 0 0 I I #
straight-curve $-1 -76.959135715811641 0 -9.1744813206189217 0 1 0 I I #
straight-curve $-1 -76.959135715811641 0 9.1744813206189217 0 -1 0 I I #
edge $-1 $410 -76.959135715811641 $404 -67.13473610059566 $401 $465 forward 7 unknown #
straight-curve $-1 67.134736100595674 15.692960336094604 9.1744813206189235 0 -1 0 I I #
point $-1 67.13473610059566 41.220944950941373 9.1744813206189377 #
straight-curve $-1 76.959135715811641 41.220944950941352 0 0 0 -1 I I #
point $-1 76.959135715811641 41.220944950941352 9.1744813206189217 #
point $-1 68.364719068416093 31.385920672189208 0.2122195100956259 #
straight-curve $-1 -76.959135715811641 3.8322659930361986 50.892705430637314 0 0 -1 I I #
point $-1 -76.959135715811641 3.8322659930361986 9.1744813206189217 #
straight-curve $-1 -76.959135715811641 0.016061943302862147 0.80594062954452461 0 -1 0 I I #
point $-1 -76.959135715811641 3.8322659930361986 0.80594062954453283 #
point $-1 -71.031994962197501 0.032123886605724294 2.9997094498216743 #
straight-curve $-1 -76.959135715811641 0 9.1744813206189217 0 -1 0 I I #
point $-1 -76.959135715811641 3.8322659930361986 9.1744813206189217 #
point $-1 -71.031994962197501 7.6324080994666659 2.9997094498216743 #
point $-1 -76.959135715811641 -41.220944950941352 9.1744813206189217 #
straight-curve $-1 -76.959135715811641 -41.220944950941352 0 0 0 -1 I I #
point $-1 -76.959135715811641 -41.220944950941352 -9.1744813206189217 #
straight-curve $-1 0 41.220944950941352 9.1744813206189217 -1 0 0 I I #
End-of-ACIS-data 