500 0 3 0           
7 Unknown 11 ACIS 5.0 NT 24 Fri Mar 26 00:21:15 1999 
-1 9.9999999999999995e-007 1e-010 
body $-1 $3 $-1 $4 #
body $-1 $5 $-1 $6 #
body $-1 $7 $-1 $8 #
lump $-1 $-1 $9 $0 #
transform $-1 1 0 0 0 1 0 0 0 1 61.201818903164771 29.290655966046021 11.504763951970137 1 rotate no_reflect no_shear #
lump $-1 $-1 $10 $1 #
transform $-1 1 0 0 0 1 0 0 0 1 61.201818903164771 29.290655966046021 11.504763951970137 1 rotate no_reflect no_shear #
lump $-1 $-1 $11 $2 #
transform $-1 1 0 0 0 1 0 0 0 1 61.201818903164771 29.290655966046021 11.504763951970137 1 rotate no_reflect no_shear #
shell $-1 $-1 $-1 $12 $-1 $3 #
shell $-1 $-1 $-1 $13 $-1 $5 #
shell $-1 $-1 $-1 $14 $-1 $7 #
face $-1 $15 $16 $9 $-1 $17 forward single #
face $-1 $18 $19 $10 $-1 $20 forward single #
face $-1 $21 $22 $11 $-1 $23 reversed single #
face $-1 $24 $25 $9 $-1 $26 reversed single #
loop $-1 $-1 $27 $12 #
plane-surface $-1 0 0 11.504763951970137 0 0 1 1 0 0 forward_v I I I I #
face $-1 $28 $29 $10 $-1 $30 forward single #
loop $-1 $-1 $31 $13 #
plane-surface $-1 -45.587828639306352 -25.432790895097103 0 1 0 0 0 0 -1 forward_v I I I I #
face $-1 $32 $33 $11 $-1 $34 reversed single #
loop $-1 $-1 $35 $14 #
plane-surface $-1 -59.701818903164771 38.450999926558438 0 0 -1 0 0 0 -1 forward_v I I I I #
face $-1 $36 $37 $9 $-1 $38 reversed single #
loop $-1 $-1 $39 $15 #
plane-surface $-1 0 0 -11.504763951970137 0 0 1 1 0 0 forward_v I I I I #
coedge $-1 $40 $41 $42 $43 forward $16 $-1 #
face $-1 $44 $45 $10 $-1 $46 forward single #
loop $-1 $-1 $47 $18 #
plane-surface $-1 -44.087828639306352 -21.574925824148185 0 0 -1 0 0 0 -1 forward_v I I I I #
coedge $-1 $48 $49 $50 $51 reversed $19 $-1 #
face $-1 $52 $53 $11 $-1 $54 forward single #
loop $-1 $-1 $55 $21 #
plane-surface $-1 -58.201818903164771 33.870827946302228 0 -1 0 0 0 0 1 forward_v I I I I #
coedge $-1 $56 $57 $58 $59 forward $22 $-1 #
face $-1 $60 $61 $9 $-1 $62 reversed single #
loop $-1 $-1 $63 $24 #
plane-surface $-1 0 -29.290655966046021 0 0 1 0 0 0 1 forward_v I I I I #
coedge $-1 $64 $65 $66 $67 forward $25 $-1 #
coedge $-1 $68 $27 $69 $70 forward $16 $-1 #
coedge $-1 $27 $68 $71 $72 forward $16 $-1 #
coedge $-1 $73 $74 $27 $43 reversed $75 $-1 #
edge $-1 $76 -29.290655966046021 $77 29.290655966046021 $42 $78 forward 7 unknown #
face $-1 $79 $80 $10 $-1 $81 forward single #
loop $-1 $-1 $82 $28 #
plane-surface $-1 -42.587828639306352 -25.432790895097103 0 -1 0 0 0 0 1 forward_v I I I I #
coedge $-1 $83 $84 $85 $86 reversed $29 $-1 #
coedge $-1 $87 $31 $88 $89 reversed $19 $-1 #
coedge $-1 $31 $87 $90 $91 reversed $19 $-1 #
coedge $-1 $84 $83 $31 $51 forward $29 $-1 #
edge $-1 $92 -11.504763951970137 $93 11.504763951970137 $50 $94 forward 7 unknown #
face $-1 $95 $96 $11 $-1 $97 forward single #
loop $-1 $-1 $98 $32 #
plane-surface $-1 -45.587828639306352 -25.432790895097103 0 1 0 0 0 0 -1 forward_v I I I I #
coedge $-1 $99 $100 $101 $102 reversed $33 $-1 #
coedge $-1 $103 $35 $104 $105 reversed $22 $-1 #
coedge $-1 $35 $103 $106 $107 reversed $22 $-1 #
coedge $-1 $100 $99 $35 $59 reversed $33 $-1 #
edge $-1 $108 -11.504763951970137 $109 11.504763951970137 $58 $110 forward 7 unknown #
face $-1 $111 $112 $9 $-1 $113 reversed single #
loop $-1 $-1 $114 $36 #
plane-surface $-1 -61.201818903164771 0 0 1 0 0 0 0 -1 forward_v I I I I #
coedge $-1 $115 $71 $116 $117 forward $37 $-1 #
coedge $-1 $118 $39 $115 $119 forward $25 $-1 #
coedge $-1 $39 $118 $120 $121 forward $25 $-1 #
coedge $-1 $74 $73 $39 $67 reversed $75 $-1 #
edge $-1 $122 -29.290655966046021 $123 29.290655966046021 $66 $124 forward 7 unknown #
coedge $-1 $41 $40 $125 $126 forward $16 $-1 #
coedge $-1 $127 $128 $40 $70 reversed $112 $-1 #
edge $-1 $77 -61.201818903164771 $129 61.201818903164771 $69 $130 forward 7 unknown #
coedge $-1 $63 $131 $41 $72 reversed $37 $-1 #
edge $-1 $132 -61.201818903164771 $76 61.201818903164771 $71 $133 forward 7 unknown #
coedge $-1 $66 $42 $131 $134 forward $75 $-1 #
coedge $-1 $42 $66 $127 $135 reversed $75 $-1 #
loop $-1 $-1 $73 $111 #
vertex $-1 $43 $136 #
vertex $-1 $43 $137 #
straight-curve $-1 61.201818903164771 0 11.504763951970137 0 1 0 I I #
face $-1 $138 $139 $10 $-1 $140 reversed single #
loop $-1 $-1 $88 $44 #
plane-surface $-1 0 0 11.504763951970137 0 0 1 1 0 0 forward_v I I I I #
coedge $-1 $141 $142 $143 $144 reversed $45 $-1 #
coedge $-1 $50 $47 $145 $146 reversed $29 $-1 #
coedge $-1 $47 $50 $147 $148 reversed $29 $-1 #
coedge $-1 $142 $141 $47 $86 forward $45 $-1 #
edge $-1 $149 -11.504763951970137 $150 11.504763951970137 $85 $151 forward 7 unknown #
coedge $-1 $49 $48 $152 $153 reversed $19 $-1 #
coedge $-1 $145 $154 $48 $89 forward $80 $-1 #
edge $-1 $155 -16.574260518497468 $92 -8.8585303765996333 $88 $156 forward 7 unknown #
coedge $-1 $157 $147 $49 $91 forward $158 $-1 #
edge $-1 $93 8.8585303765996333 $159 16.574260518497468 $90 $160 forward 7 unknown #
vertex $-1 $89 $161 #
vertex $-1 $91 $162 #
straight-curve $-1 -45.587828639306352 -21.574925824148185 0 0 0 -1 I I #
face $-1 $163 $164 $11 $-1 $165 forward single #
loop $-1 $-1 $166 $52 #
plane-surface $-1 -44.087828639306352 -21.574925824148185 0 0 -1 0 0 0 -1 forward_v I I I I #
coedge $-1 $167 $168 $169 $170 reversed $53 $-1 #
coedge $-1 $58 $55 $171 $172 reversed $33 $-1 #
coedge $-1 $55 $58 $173 $174 reversed $33 $-1 #
coedge $-1 $175 $176 $55 $102 forward $177 $-1 #
edge $-1 $178 -11.504763951970137 $179 11.504763951970137 $101 $180 forward 7 unknown #
coedge $-1 $57 $56 $181 $182 reversed $22 $-1 #
coedge $-1 $171 $183 $56 $105 forward $184 $-1 #
edge $-1 $185 -1.5 $109 1.5 $56 $186 forward 7 unknown #
coedge $-1 $187 $173 $57 $107 forward $188 $-1 #
edge $-1 $108 -1.5 $189 1.5 $57 $190 forward 7 unknown #
vertex $-1 $174 $191 #
vertex $-1 $172 $192 #
straight-curve $-1 -58.201818903164771 38.450999926558438 0 0 0 -1 I I #
face $-1 $-1 $75 $9 $-1 $193 reversed single #
loop $-1 $-1 $127 $60 #
plane-surface $-1 0 29.290655966046021 0 0 -1 0 0 0 -1 forward_v I I I I #
coedge $-1 $194 $125 $128 $195 forward $61 $-1 #
coedge $-1 $131 $63 $64 $119 reversed $37 $-1 #
coedge $-1 $125 $194 $63 $117 reversed $61 $-1 #
edge $-1 $132 -11.504763951970137 $196 11.504763951970137 $116 $197 forward 7 unknown #
coedge $-1 $65 $64 $194 $198 forward $25 $-1 #
edge $-1 $123 -61.201818903164771 $196 61.201818903164771 $115 $199 forward 7 unknown #
coedge $-1 $128 $127 $65 $121 reversed $112 $-1 #
edge $-1 $200 -61.201818903164771 $122 61.201818903164771 $120 $201 forward 7 unknown #
vertex $-1 $67 $202 #
vertex $-1 $134 $203 #
straight-curve $-1 61.201818903164771 0 -11.504763951970137 0 -1 0 I I #
coedge $-1 $114 $116 $68 $126 reversed $61 $-1 #
edge $-1 $129 -29.290655966046021 $132 29.290655966046021 $125 $204 forward 7 unknown #
coedge $-1 $120 $69 $74 $135 forward $112 $-1 #
coedge $-1 $69 $120 $114 $195 reversed $112 $-1 #
vertex $-1 $70 $205 #
straight-curve $-1 0 29.290655966046021 11.504763951970137 -1 0 0 I I #
coedge $-1 $71 $115 $73 $134 reversed $37 $-1 #
vertex $-1 $126 $206 #
straight-curve $-1 0 -29.290655966046021 11.504763951970137 1 0 0 I I #
edge $-1 $76 -11.504763951970137 $123 11.504763951970137 $73 $207 forward 7 unknown #
edge $-1 $77 -11.504763951970137 $122 11.504763951970137 $74 $208 forward 7 unknown #
point $-1 61.201818903164771 -29.290655966046021 11.504763951970137 #
point $-1 61.201818903164771 29.290655966046021 11.504763951970137 #
face $-1 $209 $158 $10 $-1 $210 reversed single #
loop $-1 $-1 $143 $79 #
plane-surface $-1 0 -29.290655966046021 0 0 1 0 0 0 1 forward_v I I I I #
coedge $-1 $85 $82 $211 $212 reversed $45 $-1 #
coedge $-1 $82 $85 $213 $214 reversed $45 $-1 #
coedge $-1 $215 $216 $82 $144 forward $139 $-1 #
edge $-1 $217 -11.504763951970137 $218 11.504763951970137 $143 $219 forward 7 unknown #
coedge $-1 $211 $88 $83 $146 forward $80 $-1 #
edge $-1 $92 -23.543914319653176 $149 -20.543914319653176 $145 $220 forward 7 unknown #
coedge $-1 $90 $213 $84 $148 forward $158 $-1 #
edge $-1 $150 20.543914319653176 $93 23.543914319653176 $147 $221 forward 7 unknown #
vertex $-1 $146 $222 #
vertex $-1 $148 $223 #
straight-curve $-1 -42.587828639306352 -21.574925824148185 0 0 0 -1 I I #
coedge $-1 $224 $225 $87 $153 forward $226 $-1 #
edge $-1 $159 -11.504763951970137 $155 11.504763951970137 $152 $227 forward 7 unknown #
coedge $-1 $88 $228 $224 $229 forward $80 $-1 #
vertex $-1 $153 $230 #
straight-curve $-1 -45.587828639306352 -12.716395447548551 11.504763951970137 0 1 0 I I #
coedge $-1 $231 $90 $225 $232 forward $158 $-1 #
loop $-1 $-1 $90 $138 #
vertex $-1 $232 $233 #
straight-curve $-1 -45.587828639306352 -12.716395447548551 -11.504763951970137 0 -1 0 I I #
point $-1 -45.587828639306352 -21.574925824148185 11.504763951970137 #
point $-1 -45.587828639306352 -21.574925824148185 -11.504763951970137 #
face $-1 $234 $188 $11 $-1 $235 forward single #
loop $-1 $-1 $236 $95 #
plane-surface $-1 -42.587828639306352 -25.432790895097103 0 -1 0 0 0 0 1 forward_v I I I I #
coedge $-1 $237 $238 $239 $240 reversed $96 $-1 #
coedge $-1 $241 $98 $242 $243 reversed $53 $-1 #
coedge $-1 $98 $241 $244 $245 reversed $53 $-1 #
coedge $-1 $238 $237 $98 $170 forward $96 $-1 #
edge $-1 $246 -11.504763951970137 $247 11.504763951970137 $169 $248 forward 7 unknown #
coedge $-1 $249 $104 $99 $172 forward $184 $-1 #
edge $-1 $109 -4.5801719802562104 $178 4.5801719802562069 $99 $250 forward 7 unknown #
coedge $-1 $106 $251 $100 $174 forward $188 $-1 #
edge $-1 $179 -4.5801719802562069 $108 4.5801719802562104 $100 $252 forward 7 unknown #
coedge $-1 $253 $101 $251 $254 reversed $177 $-1 #
coedge $-1 $101 $253 $249 $255 reversed $177 $-1 #
loop $-1 $-1 $101 $256 #
vertex $-1 $255 $257 #
vertex $-1 $174 $258 #
straight-curve $-1 -58.201818903164771 29.290655966046021 0 0 0 1 I I #
coedge $-1 $259 $260 $103 $182 forward $261 $-1 #
edge $-1 $189 -11.504763951970137 $185 11.504763951970137 $103 $262 forward 7 unknown #
coedge $-1 $104 $263 $259 $264 forward $184 $-1 #
loop $-1 $-1 $244 $265 #
vertex $-1 $105 $266 #
straight-curve $-1 -59.701818903164771 38.450999926558438 -11.504763951970137 1 0 0 I I #
coedge $-1 $267 $106 $260 $268 forward $188 $-1 #
loop $-1 $-1 $242 $163 #
vertex $-1 $107 $269 #
straight-curve $-1 -59.701818903164771 38.450999926558438 11.504763951970137 -1 0 0 I I #
point $-1 -58.201818903164771 38.450999926558438 11.504763951970137 #
point $-1 -58.201818903164771 38.450999926558438 -11.504763951970137 #
plane-surface $-1 61.201818903164771 0 0 -1 0 0 0 0 1 forward_v I I I I #
coedge $-1 $116 $114 $118 $198 reversed $61 $-1 #
edge $-1 $129 -11.504763951970137 $200 11.504763951970137 $128 $270 forward 7 unknown #
vertex $-1 $198 $271 #
straight-curve $-1 -61.201818903164771 -29.290655966046021 0 0 0 -1 I I #
edge $-1 $196 -29.290655966046021 $200 29.290655966046021 $194 $272 forward 7 unknown #
straight-curve $-1 0 -29.290655966046021 -11.504763951970137 -1 0 0 I I #
vertex $-1 $121 $273 #
straight-curve $-1 0 29.290655966046021 -11.504763951970137 1 0 0 I I #
point $-1 61.201818903164771 29.290655966046021 -11.504763951970137 #
point $-1 61.201818903164771 -29.290655966046021 -11.504763951970137 #
straight-curve $-1 -61.201818903164771 0 11.504763951970137 0 -1 0 I I #
point $-1 -61.201818903164771 29.290655966046021 11.504763951970137 #
point $-1 -61.201818903164771 -29.290655966046021 11.504763951970137 #
straight-curve $-1 61.201818903164771 -29.290655966046021 0 0 0 -1 I I #
straight-curve $-1 61.201818903164771 29.290655966046021 0 0 0 -1 I I #
face $-1 $274 $226 $10 $-1 $140 reversed single #
plane-surface $-1 0 0 -11.504763951970137 0 0 1 1 0 0 forward_v I I I I #
coedge $-1 $275 $145 $141 $212 forward $80 $-1 #
edge $-1 $149 8.8585303765996333 $217 16.574260518497468 $211 $276 forward 7 unknown #
coedge $-1 $147 $277 $142 $214 forward $158 $-1 #
edge $-1 $218 -16.574260518497468 $150 -8.8585303765996333 $213 $278 forward 7 unknown #
coedge $-1 $279 $143 $277 $280 reversed $139 $-1 #
coedge $-1 $143 $279 $275 $281 reversed $139 $-1 #
vertex $-1 $281 $282 #
vertex $-1 $144 $283 #
straight-curve $-1 -42.587828639306352 -29.290655966046021 0 0 0 -1 I I #
straight-curve $-1 -22.043914319653176 -21.574925824148185 11.504763951970137 1 0 0 I I #
straight-curve $-1 -22.043914319653176 -21.574925824148185 -11.504763951970137 -1 0 0 I I #
point $-1 -42.587828639306352 -21.574925824148185 11.504763951970137 #
point $-1 -42.587828639306352 -21.574925824148185 -11.504763951970137 #
coedge $-1 $284 $152 $154 $229 reversed $226 $-1 #
coedge $-1 $152 $284 $157 $232 reversed $226 $-1 #
loop $-1 $-1 $152 $209 #
straight-curve $-1 -45.587828639306352 -29.290655966046021 0 0 0 1 I I #
coedge $-1 $154 $285 $286 $287 forward $80 $-1 #
edge $-1 $288 -61.201818903164771 $155 -45.587828639306352 $224 $289 forward 7 unknown #
point $-1 -45.587828639306352 -29.290655966046021 11.504763951970137 #
coedge $-1 $290 $157 $291 $292 forward $158 $-1 #
edge $-1 $159 45.587828639306352 $293 61.201818903164771 $225 $294 forward 7 unknown #
point $-1 -45.587828639306352 -29.290655966046021 -11.504763951970137 #
face $-1 $265 $295 $11 $-1 $296 reversed single #
plane-surface $-1 0 0 11.504763951970137 0 0 1 1 0 0 forward_v I I I I #
coedge $-1 $297 $298 $299 $300 reversed $164 $-1 #
coedge $-1 $169 $166 $301 $302 reversed $96 $-1 #
coedge $-1 $166 $169 $303 $304 reversed $96 $-1 #
coedge $-1 $298 $297 $166 $240 forward $164 $-1 #
edge $-1 $305 -11.504763951970137 $306 11.504763951970137 $239 $307 forward 7 unknown #
coedge $-1 $168 $167 $308 $309 reversed $53 $-1 #
coedge $-1 $301 $267 $167 $243 forward $188 $-1 #
edge $-1 $310 -16.574260518497468 $246 -8.8585303765996333 $242 $311 forward 7 unknown #
coedge $-1 $263 $303 $168 $245 forward $184 $-1 #
edge $-1 $247 8.8585303765996333 $312 16.574260518497468 $244 $313 forward 7 unknown #
vertex $-1 $243 $314 #
vertex $-1 $245 $315 #
straight-curve $-1 -45.587828639306352 -21.574925824148185 0 0 0 -1 I I #
coedge $-1 $316 $171 $176 $255 forward $184 $-1 #
straight-curve $-1 -58.201818903164771 33.870827946302228 -11.504763951970137 0 -1 0 I I #
coedge $-1 $173 $317 $175 $254 forward $188 $-1 #
straight-curve $-1 -58.201818903164771 33.870827946302228 11.504763951970137 0 1 0 I I #
coedge $-1 $176 $175 $318 $319 forward $177 $-1 #
edge $-1 $320 -61.201818903164771 $179 58.201818903164771 $175 $321 forward 7 unknown #
edge $-1 $178 -58.201818903164771 $322 61.201818903164771 $176 $323 forward 7 unknown #
face $-1 $324 $177 $11 $-1 $325 reversed single #
point $-1 -58.201818903164771 29.290655966046021 -11.504763951970137 #
point $-1 -58.201818903164771 29.290655966046021 11.504763951970137 #
coedge $-1 $326 $181 $183 $264 reversed $261 $-1 #
coedge $-1 $181 $326 $187 $268 reversed $261 $-1 #
loop $-1 $-1 $259 $327 #
straight-curve $-1 -61.201818903164771 38.450999926558438 0 0 0 -1 I I #
coedge $-1 $183 $244 $328 $329 forward $184 $-1 #
edge $-1 $330 -63.161483912348245 $185 4.5801719802562104 $259 $331 forward 7 unknown #
face $-1 $332 $184 $11 $-1 $333 reversed single #
point $-1 -61.201818903164771 38.450999926558438 -11.504763951970137 #
coedge $-1 $242 $187 $334 $335 forward $188 $-1 #
edge $-1 $189 -38.450999926558438 $336 29.290655966046021 $260 $337 forward 7 unknown #
point $-1 -61.201818903164771 38.450999926558438 11.504763951970137 #
straight-curve $-1 -61.201818903164771 29.290655966046021 0 0 0 -1 I I #
point $-1 -61.201818903164771 -29.290655966046021 -11.504763951970137 #
straight-curve $-1 -61.201818903164771 0 -11.504763951970137 0 1 0 I I #
point $-1 -61.201818903164771 29.290655966046021 -11.504763951970137 #
face $-1 $338 $339 $10 $-1 $340 reversed single #
coedge $-1 $341 $211 $216 $281 forward $80 $-1 #
straight-curve $-1 -42.587828639306352 -12.716395447548551 11.504763951970137 0 -1 0 I I #
coedge $-1 $213 $342 $215 $280 forward $158 $-1 #
straight-curve $-1 -42.587828639306352 -12.716395447548551 -11.504763951970137 0 1 0 I I #
coedge $-1 $216 $215 $343 $344 reversed $139 $-1 #
edge $-1 $345 -61.201818903164771 $218 42.587828639306352 $215 $294 forward 7 unknown #
edge $-1 $217 -42.587828639306352 $346 61.201818903164771 $216 $289 forward 7 unknown #
point $-1 -42.587828639306352 -29.290655966046021 11.504763951970137 #
point $-1 -42.587828639306352 -29.290655966046021 -11.504763951970137 #
coedge $-1 $225 $224 $347 $348 forward $226 $-1 #
coedge $-1 $228 $341 $349 $350 forward $80 $-1 #
coedge $-1 $351 $347 $228 $287 reversed $339 $-1 #
edge $-1 $352 -29.290655966046021 $288 29.290655966046021 $286 $353 forward 7 unknown #
vertex $-1 $287 $354 #
straight-curve $-1 0 -29.290655966046021 11.504763951970137 1 0 0 I I #
coedge $-1 $342 $231 $355 $356 forward $158 $-1 #
coedge $-1 $347 $351 $231 $292 reversed $339 $-1 #
edge $-1 $293 -29.290655966046021 $357 29.290655966046021 $291 $358 forward 7 unknown #
vertex $-1 $292 $359 #
straight-curve $-1 0 -29.290655966046021 -11.504763951970137 -1 0 0 I I #
loop $-1 $-1 $299 $234 #
plane-surface $-1 0 -29.290655966046021 0 0 1 0 0 0 1 forward_v I I I I #
coedge $-1 $239 $236 $360 $361 reversed $164 $-1 #
coedge $-1 $236 $239 $362 $363 reversed $164 $-1 #
coedge $-1 $364 $365 $236 $300 forward $295 $-1 #
edge $-1 $366 -11.504763951970137 $367 11.504763951970137 $299 $368 forward 7 unknown #
coedge $-1 $360 $242 $237 $302 forward $188 $-1 #
edge $-1 $246 -23.543914319653176 $305 -20.543914319653176 $301 $369 forward 7 unknown #
coedge $-1 $244 $362 $238 $304 forward $184 $-1 #
edge $-1 $306 20.543914319653176 $247 23.543914319653176 $303 $370 forward 7 unknown #
vertex $-1 $302 $371 #
vertex $-1 $304 $372 #
straight-curve $-1 -42.587828639306352 -21.574925824148185 0 0 0 -1 I I #
coedge $-1 $334 $328 $241 $309 forward $373 $-1 #
edge $-1 $312 -11.504763951970137 $310 11.504763951970137 $308 $374 forward 7 unknown #
vertex $-1 $309 $375 #
straight-curve $-1 -45.587828639306352 -12.716395447548551 11.504763951970137 0 1 0 I I #
vertex $-1 $329 $376 #
straight-curve $-1 -45.587828639306352 -12.716395447548551 -11.504763951970137 0 -1 0 I I #
point $-1 -45.587828639306352 -21.574925824148185 11.504763951970137 #
point $-1 -45.587828639306352 -21.574925824148185 -11.504763951970137 #
coedge $-1 $377 $249 $378 $379 forward $184 $-1 #
coedge $-1 $251 $380 $381 $382 forward $188 $-1 #
coedge $-1 $381 $378 $253 $319 reversed $383 $-1 #
edge $-1 $320 -11.504763951970137 $322 11.504763951970137 $318 $384 forward 7 unknown #
vertex $-1 $382 $385 #
straight-curve $-1 0 29.290655966046021 11.504763951970137 -1 0 0 I I #
vertex $-1 $379 $386 #
straight-curve $-1 0 29.290655966046021 -11.504763951970137 1 0 0 I I #
face $-1 $-1 $383 $11 $-1 $387 reversed single #
plane-surface $-1 0 29.290655966046021 0 0 -1 0 0 0 -1 forward_v I I I I #
coedge $-1 $260 $259 $388 $389 reversed $261 $-1 #
face $-1 $256 $261 $11 $-1 $390 reversed single #
coedge $-1 $308 $388 $263 $329 reversed $373 $-1 #
edge $-1 $312 45.587828639306352 $330 61.201818903164771 $328 $391 forward 7 unknown #
vertex $-1 $264 $392 #
straight-curve $-1 -61.201818903164771 33.870827946302228 -11.504763951970137 0 1 0 I I #
face $-1 $327 $373 $11 $-1 $296 reversed single #
plane-surface $-1 0 0 -11.504763951970137 0 0 1 1 0 0 forward_v I I I I #
coedge $-1 $388 $308 $267 $335 reversed $373 $-1 #
edge $-1 $336 -61.201818903164771 $310 -45.587828639306352 $334 $393 forward 7 unknown #
vertex $-1 $268 $394 #
straight-curve $-1 -61.201818903164771 0 11.504763951970137 0 -1 0 I I #
face $-1 $395 $396 $10 $-1 $397 reversed single #
loop $-1 $-1 $351 $274 #
plane-surface $-1 -61.201818903164771 0 0 1 0 0 0 0 -1 forward_v I I I I #
coedge $-1 $285 $275 $398 $399 forward $80 $-1 #
coedge $-1 $277 $290 $400 $401 forward $158 $-1 #
coedge $-1 $400 $398 $279 $344 forward $402 $-1 #
edge $-1 $346 -11.504763951970137 $345 11.504763951970137 $343 $403 forward 7 unknown #
vertex $-1 $344 $404 #
vertex $-1 $399 $405 #
coedge $-1 $286 $291 $284 $348 reversed $339 $-1 #
edge $-1 $288 -11.504763951970137 $293 11.504763951970137 $347 $406 forward 7 unknown #
coedge $-1 $407 $408 $285 $350 reversed $396 $-1 #
edge $-1 $409 -61.201818903164771 $352 61.201818903164771 $349 $410 forward 7 unknown #
coedge $-1 $291 $286 $408 $411 forward $339 $-1 #
vertex $-1 $350 $412 #
straight-curve $-1 -61.201818903164771 0 11.504763951970137 0 -1 0 I I #
point $-1 -61.201818903164771 -29.290655966046021 11.504763951970137 #
coedge $-1 $408 $407 $290 $356 reversed $396 $-1 #
edge $-1 $357 -61.201818903164771 $413 61.201818903164771 $355 $414 forward 7 unknown #
vertex $-1 $356 $415 #
straight-curve $-1 -61.201818903164771 0 -11.504763951970137 0 1 0 I I #
point $-1 -61.201818903164771 -29.290655966046021 -11.504763951970137 #
coedge $-1 $380 $301 $297 $361 forward $188 $-1 #
edge $-1 $305 8.8585303765996333 $366 16.574260518497468 $360 $416 forward 7 unknown #
coedge $-1 $303 $377 $298 $363 forward $184 $-1 #
edge $-1 $367 -16.574260518497468 $306 -8.8585303765996333 $362 $417 forward 7 unknown #
coedge $-1 $418 $299 $377 $419 reversed $295 $-1 #
coedge $-1 $299 $418 $380 $420 reversed $295 $-1 #
vertex $-1 $420 $421 #
vertex $-1 $300 $422 #
straight-curve $-1 -42.587828639306352 -29.290655966046021 0 0 0 -1 I I #
straight-curve $-1 -22.043914319653176 -21.574925824148185 11.504763951970137 1 0 0 I I #
straight-curve $-1 -22.043914319653176 -21.574925824148185 -11.504763951970137 -1 0 0 I I #
point $-1 -42.587828639306352 -21.574925824148185 11.504763951970137 #
point $-1 -42.587828639306352 -21.574925824148185 -11.504763951970137 #
loop $-1 $-1 $308 $332 #
straight-curve $-1 -45.587828639306352 -29.290655966046021 0 0 0 1 I I #
point $-1 -45.587828639306352 -29.290655966046021 11.504763951970137 #
point $-1 -45.587828639306352 -29.290655966046021 -11.504763951970137 #
coedge $-1 $362 $316 $364 $419 forward $184 $-1 #
coedge $-1 $318 $423 $316 $379 reversed $383 $-1 #
edge $-1 $322 -29.290655966046021 $424 29.290655966046021 $378 $425 forward 7 unknown #
coedge $-1 $317 $360 $365 $420 forward $188 $-1 #
coedge $-1 $423 $318 $317 $382 reversed $383 $-1 #
edge $-1 $426 -29.290655966046021 $320 29.290655966046021 $381 $427 forward 7 unknown #
loop $-1 $-1 $423 $324 #
straight-curve $-1 61.201818903164771 29.290655966046021 0 0 0 -1 I I #
point $-1 61.201818903164771 29.290655966046021 11.504763951970137 #
point $-1 61.201818903164771 29.290655966046021 -11.504763951970137 #
plane-surface $-1 61.201818903164771 0 0 -1 0 0 0 0 1 forward_v I I I I #
coedge $-1 $328 $334 $326 $389 forward $373 $-1 #
edge $-1 $336 -11.504763951970137 $330 11.504763951970137 $326 $428 forward 7 unknown #
plane-surface $-1 -61.201818903164771 0 0 1 0 0 0 0 -1 forward_v I I I I #
straight-curve $-1 0 -29.290655966046021 -11.504763951970137 -1 0 0 I I #
point $-1 -61.201818903164771 -29.290655966046021 -11.504763951970137 #
straight-curve $-1 0 -29.290655966046021 11.504763951970137 1 0 0 I I #
point $-1 -61.201818903164771 -29.290655966046021 11.504763951970137 #
face $-1 $-1 $402 $10 $-1 $429 reversed single #
loop $-1 $-1 $407 $338 #
plane-surface $-1 0 29.290655966046021 0 0 -1 0 0 0 -1 forward_v I I I I #
coedge $-1 $343 $430 $341 $399 reversed $402 $-1 #
edge $-1 $346 -29.290655966046021 $409 29.290655966046021 $398 $431 forward 7 unknown #
coedge $-1 $430 $343 $342 $401 reversed $402 $-1 #
edge $-1 $413 -29.290655966046021 $345 29.290655966046021 $400 $432 forward 7 unknown #
loop $-1 $-1 $343 $395 #
straight-curve $-1 61.201818903164771 -29.290655966046021 0 0 0 -1 I I #
point $-1 61.201818903164771 -29.290655966046021 -11.504763951970137 #
point $-1 61.201818903164771 -29.290655966046021 11.504763951970137 #
straight-curve $-1 -61.201818903164771 -29.290655966046021 0 0 0 -1 I I #
coedge $-1 $355 $349 $430 $433 forward $396 $-1 #
coedge $-1 $349 $355 $351 $411 reversed $396 $-1 #
vertex $-1 $399 $434 #
straight-curve $-1 0 29.290655966046021 11.504763951970137 -1 0 0 I I #
edge $-1 $352 -11.504763951970137 $357 11.504763951970137 $408 $435 forward 7 unknown #
point $-1 -61.201818903164771 29.290655966046021 11.504763951970137 #
vertex $-1 $401 $436 #
straight-curve $-1 0 29.290655966046021 -11.504763951970137 1 0 0 I I #
point $-1 -61.201818903164771 29.290655966046021 -11.504763951970137 #
straight-curve $-1 -42.587828639306352 -12.716395447548551 11.504763951970137 0 -1 0 I I #
straight-curve $-1 -42.587828639306352 -12.716395447548551 -11.504763951970137 0 1 0 I I #
coedge $-1 $365 $364 $423 $437 reversed $295 $-1 #
edge $-1 $424 -61.201818903164771 $367 42.587828639306352 $364 $391 forward 7 unknown #
edge $-1 $366 -42.587828639306352 $426 61.201818903164771 $365 $393 forward 7 unknown #
point $-1 -42.587828639306352 -29.290655966046021 11.504763951970137 #
point $-1 -42.587828639306352 -29.290655966046021 -11.504763951970137 #
coedge $-1 $378 $381 $418 $437 forward $383 $-1 #
vertex $-1 $437 $438 #
straight-curve $-1 61.201818903164771 0 -11.504763951970137 0 -1 0 I I #
vertex $-1 $382 $439 #
straight-curve $-1 61.201818903164771 0 11.504763951970137 0 1 0 I I #
straight-curve $-1 -61.201818903164771 -29.290655966046021 0 0 0 -1 I I #
plane-surface $-1 61.201818903164771 0 0 -1 0 0 0 0 1 forward_v I I I I #
coedge $-1 $398 $400 $407 $433 reversed $402 $-1 #
straight-curve $-1 61.201818903164771 0 11.504763951970137 0 1 0 I I #
straight-curve $-1 61.201818903164771 0 -11.504763951970137 0 -1 0 I I #
edge $-1 $409 -11.504763951970137 $413 11.504763951970137 $430 $440 forward 7 unknown #
point $-1 61.201818903164771 29.290655966046021 11.504763951970137 #
straight-curve $-1 -61.201818903164771 29.290655966046021 0 0 0 -1 I I #
point $-1 61.201818903164771 29.290655966046021 -11.504763951970137 #
edge $-1 $426 -11.504763951970137 $424 11.504763951970137 $423 $441 forward 7 unknown #
point $-1 61.201818903164771 -29.290655966046021 -11.504763951970137 #
point $-1 61.201818903164771 -29.290655966046021 11.504763951970137 #
straight-curve $-1 61.201818903164771 29.290655966046021 0 0 0 -1 I I #
straight-curve $-1 61.201818903164771 -29.290655966046021 0 0 0 -1 I I #
End-of-ACIS-data 