500 0 10 0           
7 Unknown 11 ACIS 5.0 NT 24 Fri Mar 26 02:31:38 1999 
-1 9.9999999999999995e-007 1e-010 
body $-1 $10 $-1 $11 #
body $-1 $12 $-1 $13 #
body $-1 $14 $-1 $15 #
body $-1 $16 $-1 $17 #
body $-1 $18 $-1 $19 #
body $-1 $20 $-1 $21 #
body $-1 $22 $-1 $23 #
body $-1 $24 $-1 $25 #
body $-1 $26 $-1 $27 #
body $-1 $28 $-1 $29 #
lump $-1 $-1 $30 $0 #
transform $-1 1 0 0 0 1 0 0 0 1 69.898373363444932 35.592771362765937 14.953808595313992 1 rotate no_reflect no_shear #
lump $-1 $-1 $31 $1 #
transform $-1 1 0 0 0 1 0 0 0 1 69.898373363444932 35.592771362765937 14.953808595313992 1 rotate no_reflect no_shear #
lump $-1 $-1 $32 $2 #
transform $-1 1 0 0 0 1 0 0 0 1 69.898373363444932 35.592771362765937 14.953808595313992 1 rotate no_reflect no_shear #
lump $-1 $-1 $33 $3 #
transform $-1 1 0 0 0 1 0 0 0 1 69.898373363444932 35.592771362765937 14.953808595313992 1 rotate no_reflect no_shear #
lump $-1 $-1 $34 $4 #
transform $-1 1 0 0 0 1 0 0 0 1 69.898373363444932 35.592771362765937 14.953808595313992 1 rotate no_reflect no_shear #
lump $-1 $-1 $35 $5 #
transform $-1 1 0 0 0 1 0 0 0 1 69.898373363444932 35.592771362765937 14.953808595313992 1 rotate no_reflect no_shear #
lump $-1 $-1 $36 $6 #
transform $-1 1 0 0 0 1 0 0 0 1 69.898373363444932 35.592771362765937 14.953808595313992 1 rotate no_reflect no_shear #
lump $-1 $-1 $37 $7 #
transform $-1 1 0 0 0 1 0 0 0 1 69.898373363444932 35.592771362765937 14.953808595313992 1 rotate no_reflect no_shear #
lump $-1 $-1 $38 $8 #
transform $-1 1 0 0 0 1 0 0 0 1 69.898373363444932 35.592771362765937 14.953808595313992 1 rotate no_reflect no_shear #
lump $-1 $-1 $39 $9 #
transform $-1 1 0 0 0 1 0 0 0 1 69.898373363444932 35.592771362765937 14.953808595313992 1 rotate no_reflect no_shear #
shell $-1 $-1 $-1 $40 $-1 $10 #
shell $-1 $-1 $-1 $41 $-1 $12 #
shell $-1 $-1 $-1 $42 $-1 $14 #
shell $-1 $-1 $-1 $43 $-1 $16 #
shell $-1 $-1 $-1 $44 $-1 $18 #
shell $-1 $-1 $-1 $45 $-1 $20 #
shell $-1 $-1 $-1 $46 $-1 $22 #
shell $-1 $-1 $-1 $47 $-1 $24 #
shell $-1 $-1 $-1 $48 $-1 $26 #
shell $-1 $-1 $-1 $49 $-1 $28 #
face $-1 $50 $51 $30 $-1 $52 reversed single #
face $-1 $53 $54 $31 $-1 $55 forward single #
face $-1 $56 $57 $32 $-1 $58 reversed single #
face $-1 $59 $60 $33 $-1 $61 forward single #
face $-1 $62 $63 $34 $-1 $64 forward single #
face $-1 $65 $66 $35 $-1 $67 forward single #
face $-1 $68 $69 $36 $-1 $70 reversed single #
face $-1 $71 $72 $37 $-1 $73 forward single #
face $-1 $74 $75 $38 $-1 $76 forward single #
face $-1 $77 $78 $39 $-1 $79 forward single #
face $-1 $80 $81 $30 $-1 $82 forward single #
loop $-1 $-1 $83 $40 #
plane-surface $-1 -69.898373363444932 0 0 1 0 0 0 0 -1 forward_v I I I I #
face $-1 $84 $85 $31 $-1 $86 reversed single #
loop $-1 $-1 $87 $41 #
plane-surface $-1 -69.898373363444932 0 0 1 0 0 0 0 -1 forward_v I I I I #
face $-1 $88 $89 $32 $-1 $90 reversed single #
loop $-1 $-1 $91 $42 #
plane-surface $-1 -21.983028164085965 -113.76612107673421 126.94801753828735 -1 0 0 0 -0.55919291073839883 0.82903756765294845 forward_v I I I I #
face $-1 $92 $93 $33 $-1 $94 forward single #
loop $-1 $95 $96 $43 #
cone-surface $-1 -46.696357376240911 -31.573206246473021 11.332157888558937 0 0.55919291073839883 -0.82903756765294845 1.5 0 0 1 I I 0 1 1.5 forward I I I I #
face $-1 $97 $98 $34 $-1 $99 forward single #
loop $-1 $100 $101 $44 #
cone-surface $-1 -37.428858921682803 -31.573206246473021 11.332157888558937 0 0.55919291073839883 -0.82903756765294845 1.5 0 0 1 I I 0 1 1.5 forward I I I I #
face $-1 $102 $103 $35 $-1 $104 forward single #
loop $-1 $105 $106 $45 #
cone-surface $-1 -28.161360467124702 -31.573206246473021 11.332157888558937 0 0.55919291073839883 -0.82903756765294845 1.5 0 0 1 I I 0 1 1.5 forward I I I I #
face $-1 $107 $108 $36 $-1 $109 reversed single #
loop $-1 $-1 $110 $46 #
plane-surface $-1 23.674549172322486 104.39889037105669 146.46439027424896 1 0 0 0 -0.79863551827123203 -0.60181501223851219 forward_v I I I I #
face $-1 $111 $112 $37 $-1 $113 forward single #
loop $-1 $114 $115 $47 #
cone-surface $-1 28.032211691929092 31.15304338260275 9.5614328652734404 0 -0.79863551827123203 -0.60181501223851219 1.5 0 0 1 I I 0 1 1.5 forward I I I I #
face $-1 $116 $117 $38 $-1 $118 forward single #
loop $-1 $119 $120 $48 #
cone-surface $-1 34.568705471339001 31.15304338260275 9.5614328652734404 0 -0.79863551827123203 -0.60181501223851219 1.5 0 0 1 I I 0 1 1.5 forward I I I I #
face $-1 $121 $122 $39 $-1 $123 forward single #
loop $-1 $124 $125 $49 #
cone-surface $-1 41.10519925074891 31.15304338260275 9.5614328652734404 0 -0.79863551827123203 -0.60181501223851219 1.5 0 0 1 I I 0 1 1.5 forward I I I I #
face $-1 $126 $127 $30 $-1 $128 reversed single #
loop $-1 $-1 $129 $50 #
plane-surface $-1 0 0 14.953808595313992 0 0 1 1 0 0 forward_v I I I I #
coedge $-1 $130 $131 $132 $133 reversed $51 $-1 #
face $-1 $134 $135 $31 $-1 $136 reversed single #
loop $-1 $-1 $137 $53 #
plane-surface $-1 0 0 -14.953808595313992 0 0 1 1 0 0 forward_v I I I I #
coedge $-1 $138 $139 $140 $141 forward $54 $-1 #
face $-1 $142 $143 $32 $-1 $144 reversed single #
loop $-1 $-1 $145 $56 #
plane-surface $-1 -37.428858921682803 -35.59277136276593 11.051262666031292 0 -0.55919291073839883 0.82903756765294845 1 0 0 forward_v I I I I #
coedge $-1 $146 $147 $148 $149 reversed $57 $-1 #
face $-1 $-1 $150 $33 $-1 $151 forward single #
loop $-1 $152 $153 $59 #
cone-surface $-1 -46.696357376240911 -30.027127528714281 9.0400019707055268 0 0.55919291073839883 -0.82903756765294845 0.75 0 0 1 I I -0.70710678118654757 0.70710678118654757 0.75 forward I I I I #
loop $-1 $-1 $154 $43 #
coedge $-1 $96 $96 $155 $156 reversed $60 $-1 #
face $-1 $-1 $157 $34 $-1 $158 forward single #
loop $-1 $159 $160 $62 #
cone-surface $-1 -37.428858921682803 -30.027127528714281 9.0400019707055268 0 0.55919291073839883 -0.82903756765294845 0.75 0 0 1 I I -0.70710678118654757 0.70710678118654757 0.75 forward I I I I #
loop $-1 $-1 $161 $44 #
coedge $-1 $101 $101 $162 $163 reversed $63 $-1 #
face $-1 $-1 $164 $35 $-1 $165 forward single #
loop $-1 $166 $167 $65 #
cone-surface $-1 -28.161360467124702 -30.027127528714281 9.0400019707055268 0 0.55919291073839883 -0.82903756765294845 0.75 0 0 1 I I -0.70710678118654757 0.70710678118654757 0.75 forward I I I I #
loop $-1 $-1 $168 $45 #
coedge $-1 $106 $106 $169 $170 reversed $66 $-1 #
face $-1 $171 $172 $36 $-1 $173 reversed single #
loop $-1 $-1 $174 $68 #
plane-surface $-1 34.568705471338987 -7.2477569038051541 62.332609431901545 0 0.79863551827123203 0.60181501223851219 1 0 0 forward_v I I I I #
coedge $-1 $175 $176 $177 $178 reversed $69 $-1 #
face $-1 $-1 $179 $37 $-1 $180 forward single #
loop $-1 $181 $182 $71 #
cone-surface $-1 28.032211691929092 29.683359774853592 8.4539468617722608 0 -0.79863551827123203 -0.60181501223851219 0.75 0 0 1 I I -0.70710678118654757 0.70710678118654757 0.75 forward I I I I #
loop $-1 $-1 $183 $47 #
coedge $-1 $115 $115 $184 $185 reversed $72 $-1 #
face $-1 $-1 $186 $38 $-1 $187 forward single #
loop $-1 $188 $189 $74 #
cone-surface $-1 34.568705471339001 29.683359774853592 8.4539468617722608 0 -0.79863551827123203 -0.60181501223851219 0.75 0 0 1 I I -0.70710678118654757 0.70710678118654757 0.75 forward I I I I #
loop $-1 $-1 $190 $48 #
coedge $-1 $120 $120 $191 $192 reversed $75 $-1 #
face $-1 $-1 $193 $39 $-1 $194 forward single #
loop $-1 $195 $196 $77 #
cone-surface $-1 41.10519925074891 29.683359774853592 8.4539468617722608 0 -0.79863551827123203 -0.60181501223851219 0.75 0 0 1 I I -0.70710678118654757 0.70710678118654757 0.75 forward I I I I #
loop $-1 $-1 $197 $49 #
coedge $-1 $125 $125 $198 $199 reversed $78 $-1 #
face $-1 $200 $201 $30 $-1 $202 reversed single #
loop $-1 $-1 $203 $80 #
plane-surface $-1 0 0 -14.953808595313992 0 0 1 1 0 0 forward_v I I I I #
coedge $-1 $204 $205 $206 $207 forward $81 $-1 #
coedge $-1 $208 $83 $209 $210 reversed $51 $-1 #
coedge $-1 $83 $208 $211 $212 forward $51 $-1 #
coedge $-1 $213 $214 $83 $133 forward $127 $-1 #
edge $-1 $215 -35.592771362765937 $216 35.592771362765937 $83 $217 forward 7 unknown #
face $-1 $218 $219 $31 $-1 $220 reversed single #
loop $-1 $-1 $221 $84 #
plane-surface $-1 -78.410215205527578 -34.789429342098821 0 0 1 0 0 0 1 forward_v I I I I #
coedge $-1 $222 $223 $139 $224 forward $85 $-1 #
coedge $-1 $225 $87 $226 $227 reversed $54 $-1 #
coedge $-1 $87 $225 $137 $224 reversed $54 $-1 #
coedge $-1 $228 $229 $87 $141 reversed $230 $-1 #
edge $-1 $231 -14.953808595313992 $232 14.953808595313992 $140 $233 forward 7 unknown #
face $-1 $234 $235 $32 $-1 $236 forward single #
loop $-1 $-1 $237 $88 #
plane-surface $-1 -52.874689679279641 -113.76612107673421 126.94801753828735 1 0 0 0 0.55919291073839883 -0.82903756765294845 forward_v I I I I #
coedge $-1 $238 $239 $240 $241 reversed $89 $-1 #
coedge $-1 $147 $91 $242 $243 reversed $57 $-1 #
coedge $-1 $91 $146 $238 $244 reversed $57 $-1 #
coedge $-1 $240 $245 $91 $149 forward $235 $-1 #
edge $-1 $246 21.290289175601167 $247 27.076051338777109 $148 $248 forward 7 unknown #
loop $-1 $-1 $155 $92 #
plane-surface $-1 -37.428858921682803 -35.59277136276593 11.051262666031292 0 -0.55919291073839883 0.82903756765294845 1 0 0 forward_v I I I I #
loop $-1 $-1 $249 $59 #
coedge $-1 $153 $153 $154 $250 reversed $93 $-1 #
coedge $-1 $154 $154 $153 $250 forward $95 $-1 #
coedge $-1 $155 $155 $96 $156 forward $150 $-1 #
edge $-1 $251 1.9404585060515909e-015 $251 6.2831853071796022 $155 $252 forward 7 unknown #
loop $-1 $-1 $162 $97 #
plane-surface $-1 -37.428858921682803 -35.59277136276593 11.051262666031292 0 -0.55919291073839883 0.82903756765294845 1 0 0 forward_v I I I I #
loop $-1 $-1 $253 $62 #
coedge $-1 $160 $160 $161 $254 reversed $98 $-1 #
coedge $-1 $161 $161 $160 $254 forward $100 $-1 #
coedge $-1 $162 $162 $101 $163 forward $157 $-1 #
edge $-1 $255 1.9404585060515909e-015 $255 6.2831853071796022 $162 $256 forward 7 unknown #
loop $-1 $-1 $169 $102 #
plane-surface $-1 -37.428858921682803 -35.59277136276593 11.051262666031292 0 -0.55919291073839883 0.82903756765294845 1 0 0 forward_v I I I I #
loop $-1 $-1 $257 $65 #
coedge $-1 $167 $167 $168 $258 reversed $103 $-1 #
coedge $-1 $168 $168 $167 $258 forward $105 $-1 #
coedge $-1 $169 $169 $106 $170 forward $164 $-1 #
edge $-1 $259 1.9404585060515909e-015 $259 6.2831853071796022 $169 $260 forward 7 unknown #
face $-1 $261 $262 $36 $-1 $263 reversed single #
loop $-1 $-1 $264 $107 #
plane-surface $-1 45.462861770355488 104.39889037105669 146.46439027424896 -1 0 0 0 0.79863551827123203 0.60181501223851219 forward_v I I I I #
coedge $-1 $265 $266 $267 $268 reversed $108 $-1 #
coedge $-1 $176 $110 $269 $270 reversed $69 $-1 #
coedge $-1 $110 $175 $265 $271 reversed $69 $-1 #
coedge $-1 $267 $272 $110 $178 forward $273 $-1 #
edge $-1 $274 16.60667382276241 $275 23.744715844997309 $177 $276 forward 7 unknown #
loop $-1 $-1 $184 $111 #
plane-surface $-1 34.568705471338987 -7.2477569038051541 62.332609431901545 0 0.79863551827123203 0.60181501223851219 1 0 0 forward_v I I I I #
loop $-1 $-1 $277 $71 #
coedge $-1 $182 $182 $183 $278 reversed $112 $-1 #
coedge $-1 $183 $183 $182 $278 forward $114 $-1 #
coedge $-1 $184 $184 $115 $185 forward $179 $-1 #
edge $-1 $279 -9.5921968135758198e-016 $279 6.2831853071795996 $184 $280 forward 7 unknown #
loop $-1 $-1 $191 $116 #
plane-surface $-1 34.568705471338987 -7.2477569038051541 62.332609431901545 0 0.79863551827123203 0.60181501223851219 1 0 0 forward_v I I I I #
loop $-1 $-1 $281 $74 #
coedge $-1 $189 $189 $190 $282 reversed $117 $-1 #
coedge $-1 $190 $190 $189 $282 forward $119 $-1 #
coedge $-1 $191 $191 $120 $192 forward $186 $-1 #
edge $-1 $283 -9.5921968135758198e-016 $283 6.2831853071795996 $191 $284 forward 7 unknown #
loop $-1 $-1 $198 $121 #
plane-surface $-1 34.568705471338987 -7.2477569038051541 62.332609431901545 0 0.79863551827123203 0.60181501223851219 1 0 0 forward_v I I I I #
loop $-1 $-1 $285 $77 #
coedge $-1 $196 $196 $197 $286 reversed $122 $-1 #
coedge $-1 $197 $197 $196 $286 forward $124 $-1 #
coedge $-1 $198 $198 $125 $199 forward $193 $-1 #
edge $-1 $287 -9.5921968135758198e-016 $287 6.2831853071795996 $198 $288 forward 7 unknown #
face $-1 $289 $290 $30 $-1 $291 reversed single #
loop $-1 $-1 $209 $126 #
plane-surface $-1 0 -35.592771362765937 0 0 1 0 0 0 1 forward_v I I I I #
coedge $-1 $214 $213 $292 $293 forward $127 $-1 #
coedge $-1 $294 $129 $295 $296 forward $81 $-1 #
coedge $-1 $129 $294 $297 $298 forward $81 $-1 #
coedge $-1 $299 $300 $129 $207 reversed $301 $-1 #
edge $-1 $302 -35.592771362765937 $303 35.592771362765937 $206 $304 forward 7 unknown #
coedge $-1 $131 $130 $294 $305 reversed $51 $-1 #
coedge $-1 $306 $297 $130 $210 forward $201 $-1 #
edge $-1 $307 -14.953808595313992 $215 14.953808595313992 $130 $308 forward 7 unknown #
coedge $-1 $295 $309 $131 $212 reversed $290 $-1 #
edge $-1 $310 -14.953808595313992 $216 14.953808595313992 $211 $311 forward 7 unknown #
coedge $-1 $203 $132 $309 $312 forward $127 $-1 #
coedge $-1 $132 $203 $306 $313 forward $127 $-1 #
vertex $-1 $133 $314 #
vertex $-1 $312 $315 #
straight-curve $-1 -69.898373363444932 0 -14.953808595313992 0 1 0 I I #
face $-1 $316 $230 $31 $-1 $317 reversed single #
loop $-1 $-1 $318 $134 #
plane-surface $-1 -86.922057047610224 -32.739105056196323 0 1 0 0 0 0 -1 forward_v I I I I #
coedge $-1 $319 $320 $321 $322 forward $135 $-1 #
coedge $-1 $323 $137 $319 $324 forward $85 $-1 #
coedge $-1 $137 $323 $228 $325 forward $85 $-1 #
edge $-1 $231 30.688780770293825 $326 34.789429342098821 $137 $327 forward 7 unknown #
coedge $-1 $139 $138 $328 $329 forward $54 $-1 #
coedge $-1 $330 $331 $138 $227 forward $332 $-1 #
edge $-1 $333 -34.789429342098821 $232 -30.688780770293825 $226 $334 forward 7 unknown #
coedge $-1 $335 $140 $223 $325 reversed $230 $-1 #
coedge $-1 $140 $335 $330 $336 reversed $230 $-1 #
loop $-1 $-1 $140 $218 #
vertex $-1 $224 $337 #
vertex $-1 $336 $338 #
straight-curve $-1 -69.898373363444932 -30.688780770293825 0 0 0 1 I I #
face $-1 $-1 $339 $32 $-1 $340 reversed single #
loop $-1 $-1 $148 $142 #
plane-surface $-1 0 0 14.953808595313992 0 0 1 1 0 0 forward_v I I I I #
coedge $-1 $341 $342 $343 $344 reversed $143 $-1 #
coedge $-1 $345 $145 $147 $244 forward $89 $-1 #
coedge $-1 $145 $345 $341 $346 forward $89 $-1 #
coedge $-1 $343 $148 $145 $241 forward $235 $-1 #
edge $-1 $247 3.2685987032445638 $347 34.160260218438239 $240 $348 forward 7 unknown #
coedge $-1 $349 $350 $146 $243 forward $339 $-1 #
edge $-1 $351 -52.422746103112388 $246 -48.520200173829679 $242 $352 forward 7 unknown #
edge $-1 $247 -6.9788902082637216 $351 8.8706446682831169e-015 $147 $353 forward 7 unknown #
coedge $-1 $148 $343 $349 $354 forward $235 $-1 #
vertex $-1 $149 $355 #
vertex $-1 $149 $356 #
straight-curve $-1 -21.983028164085965 -56.883060538367104 14.953808595313994 0 1 0 I I #
coedge $-1 $249 $249 $-1 $357 reversed $152 $-1 #
edge $-1 $358 0 $358 6.2831853071796004 $153 $359 forward 7 unknown #
vertex $-1 $156 $360 #
ellipse-curve $-1 -46.696357376240911 -32.699890281177964 13.002535630672641 0 -0.55919291073839883 0.82903756765294845 1.5 0 0 1 I I #
coedge $-1 $253 $253 $-1 $361 reversed $159 $-1 #
edge $-1 $362 0 $362 6.2831853071796004 $160 $363 forward 7 unknown #
vertex $-1 $163 $364 #
ellipse-curve $-1 -37.428858921682803 -32.699890281177964 13.002535630672641 0 -0.55919291073839883 0.82903756765294845 1.5 0 0 1 I I #
coedge $-1 $257 $257 $-1 $365 reversed $166 $-1 #
edge $-1 $366 0 $366 6.2831853071796004 $167 $367 forward 7 unknown #
vertex $-1 $170 $368 #
ellipse-curve $-1 -28.161360467124702 -32.699890281177964 13.002535630672641 0 -0.55919291073839883 0.82903756765294845 1.5 0 0 1 I I #
face $-1 $-1 $273 $36 $-1 $369 forward single #
loop $-1 $-1 $370 $171 #
plane-surface $-1 0 35.592771362765937 0 0 -1 0 0 0 -1 forward_v I I I I #
coedge $-1 $371 $372 $373 $374 reversed $172 $-1 #
coedge $-1 $375 $174 $176 $271 forward $108 $-1 #
coedge $-1 $174 $375 $371 $376 forward $108 $-1 #
coedge $-1 $373 $177 $174 $268 forward $273 $-1 #
edge $-1 $275 6.3901964366529924 $377 28.178509034685995 $267 $378 forward 7 unknown #
coedge $-1 $379 $380 $175 $270 forward $262 $-1 #
edge $-1 $381 -67.750888513246991 $274 -58.278386541810484 $269 $382 forward 7 unknown #
edge $-1 $275 59.324685357278078 $381 71.18554272553186 $176 $383 forward 7 unknown #
coedge $-1 $177 $373 $379 $384 forward $273 $-1 #
loop $-1 $-1 $373 $261 #
vertex $-1 $270 $385 #
vertex $-1 $178 $386 #
straight-curve $-1 23.674549172322486 52.199445185528347 14.953808595313987 0 -1 0 I I #
coedge $-1 $277 $277 $-1 $387 reversed $181 $-1 #
edge $-1 $388 0 $388 6.2831853071796004 $182 $389 forward 7 unknown #
vertex $-1 $185 $390 #
ellipse-curve $-1 28.032211691929092 32.023750351648488 10.217557609595739 0 0.79863551827123203 0.60181501223851219 1.5 0 0 1 I I #
coedge $-1 $281 $281 $-1 $391 reversed $188 $-1 #
edge $-1 $392 0 $392 6.2831853071796004 $189 $393 forward 7 unknown #
vertex $-1 $192 $394 #
ellipse-curve $-1 34.568705471339001 32.023750351648488 10.217557609595739 0 0.79863551827123203 0.60181501223851219 1.5 0 0 1 I I #
coedge $-1 $285 $285 $-1 $395 reversed $195 $-1 #
edge $-1 $396 0 $396 6.2831853071796004 $196 $397 forward 7 unknown #
vertex $-1 $199 $398 #
ellipse-curve $-1 41.10519925074891 32.023750351648488 10.217557609595739 0 0.79863551827123203 0.60181501223851219 1.5 0 0 1 I I #
face $-1 $-1 $301 $30 $-1 $399 reversed single #
loop $-1 $-1 $400 $200 #
plane-surface $-1 0 35.592771362765937 0 0 -1 0 0 0 -1 forward_v I I I I #
coedge $-1 $300 $299 $203 $293 reversed $301 $-1 #
edge $-1 $401 -35.592771362765937 $402 35.592771362765937 $292 $403 forward 7 unknown #
coedge $-1 $205 $204 $208 $305 forward $81 $-1 #
coedge $-1 $400 $211 $204 $296 reversed $290 $-1 #
edge $-1 $303 -69.898373363444932 $310 69.898373363444932 $295 $404 forward 7 unknown #
coedge $-1 $209 $405 $205 $298 reversed $201 $-1 #
edge $-1 $307 -69.898373363444932 $302 69.898373363444932 $297 $406 forward 7 unknown #
coedge $-1 $292 $206 $405 $407 forward $301 $-1 #
coedge $-1 $206 $292 $400 $408 reversed $301 $-1 #
loop $-1 $-1 $299 $289 #
vertex $-1 $207 $409 #
vertex $-1 $207 $410 #
straight-curve $-1 69.898373363444932 0 14.953808595313992 0 1 0 I I #
edge $-1 $310 -35.592771362765937 $307 35.592771362765937 $208 $411 forward 7 unknown #
coedge $-1 $405 $209 $214 $313 reversed $201 $-1 #
vertex $-1 $305 $412 #
straight-curve $-1 -69.898373363444932 -35.592771362765937 0 0 0 -1 I I #
coedge $-1 $211 $400 $213 $312 reversed $290 $-1 #
vertex $-1 $296 $413 #
straight-curve $-1 -69.898373363444932 35.592771362765937 0 0 0 -1 I I #
edge $-1 $216 -69.898373363444932 $401 69.898373363444932 $309 $414 forward 7 unknown #
edge $-1 $402 -69.898373363444932 $215 69.898373363444932 $306 $415 forward 7 unknown #
point $-1 -69.898373363444932 -35.592771362765937 -14.953808595313992 #
point $-1 -69.898373363444932 35.592771362765937 -14.953808595313992 #
face $-1 $-1 $332 $31 $-1 $416 forward single #
plane-surface $-1 -78.410215205527578 -30.688780770293825 0 0 -1 0 0 0 -1 forward_v I I I I #
coedge $-1 $417 $418 $335 $419 forward $219 $-1 #
coedge $-1 $328 $221 $222 $324 reversed $135 $-1 #
coedge $-1 $221 $328 $331 $420 reversed $135 $-1 #
coedge $-1 $418 $417 $221 $322 reversed $219 $-1 #
edge $-1 $421 -14.953808595313992 $422 14.953808595313992 $321 $423 forward 7 unknown #
coedge $-1 $223 $222 $417 $424 forward $85 $-1 #
edge $-1 $326 -8.5118418420826458 $422 8.5118418420826458 $319 $425 forward 7 unknown #
edge $-1 $426 -8.5118418420826458 $231 8.5118418420826458 $228 $427 forward 7 unknown #
vertex $-1 $324 $428 #
straight-curve $-1 -69.898373363444932 0 -14.953808595313992 0 -1 0 I I #
coedge $-1 $320 $319 $225 $329 reversed $135 $-1 #
edge $-1 $333 -14.953808595313992 $326 14.953808595313992 $328 $429 forward 7 unknown #
coedge $-1 $430 $226 $229 $336 forward $332 $-1 #
coedge $-1 $226 $430 $320 $420 forward $332 $-1 #
loop $-1 $-1 $226 $316 #
vertex $-1 $227 $431 #
straight-curve $-1 -69.898373363444932 0 14.953808595313992 0 1 0 I I #
coedge $-1 $229 $228 $318 $419 reversed $230 $-1 #
edge $-1 $232 -8.5118418420826458 $432 8.5118418420826458 $229 $433 forward 7 unknown #
point $-1 -69.898373363444932 -30.688780770293825 -14.953808595313992 #
point $-1 -69.898373363444932 -30.688780770293825 14.953808595313992 #
loop $-1 $-1 $242 $234 #
plane-surface $-1 0 -35.592771362765937 0 0 1 0 0 0 1 forward_v I I I I #
coedge $-1 $342 $237 $239 $346 reversed $143 $-1 #
coedge $-1 $237 $341 $434 $435 reversed $143 $-1 #
coedge $-1 $245 $240 $237 $344 forward $235 $-1 #
edge $-1 $347 -27.076051338777109 $436 -21.290289175601167 $343 $437 forward 7 unknown #
coedge $-1 $239 $238 $350 $438 reversed $89 $-1 #
edge $-1 $439 -8.8706446682831169e-015 $347 6.9788902082637216 $341 $440 forward 7 unknown #
vertex $-1 $241 $441 #
straight-curve $-1 -18.714429460841401 -29.807009199589999 14.953808595313992 -1 0 0 I I #
coedge $-1 $434 $242 $245 $354 reversed $339 $-1 #
coedge $-1 $242 $434 $345 $438 forward $339 $-1 #
vertex $-1 $243 $442 #
straight-curve $-1 -21.983028164085965 -35.592771362765937 63.474008769143673 0 0 1 I I #
straight-curve $-1 -21.983028164085965 -35.59277136276593 11.051262666031292 0 -0.82903756765294845 -0.55919291073839883 I I #
edge $-1 $436 -52.874689679279641 $246 -21.983028164085965 $349 $443 forward 7 unknown #
point $-1 -21.983028164085965 -35.592771362765937 14.953808595313992 #
point $-1 -21.983028164085965 -29.807009199589995 14.953808595313992 #
edge $-1 $444 1 $444 0 $249 $-1 forward 7 unknown #
vertex $-1 $250 $445 #
ellipse-curve $-1 -46.696357376240911 -30.44652221176808 9.6617801464452384 0 -0.55919291073839883 0.82903756765294845 1.5 0 0 1 I I #
point $-1 -45.196357376240911 -32.699890281177957 13.002535630672636 #
edge $-1 $446 1 $446 0 $253 $-1 forward 7 unknown #
vertex $-1 $254 $447 #
ellipse-curve $-1 -37.428858921682803 -30.44652221176808 9.6617801464452384 0 -0.55919291073839883 0.82903756765294845 1.5 0 0 1 I I #
point $-1 -35.928858921682803 -32.699890281177957 13.002535630672636 #
edge $-1 $448 1 $448 0 $257 $-1 forward 7 unknown #
vertex $-1 $258 $449 #
ellipse-curve $-1 -28.161360467124702 -30.44652221176808 9.6617801464452384 0 -0.55919291073839883 0.82903756765294845 1.5 0 0 1 I I #
point $-1 -26.661360467124702 -32.699890281177957 13.002535630672636 #
plane-surface $-1 0 0 14.953808595313992 0 0 1 1 0 0 forward_v I I I I #
coedge $-1 $380 $379 $372 $450 forward $262 $-1 #
coedge $-1 $372 $264 $266 $376 reversed $172 $-1 #
coedge $-1 $264 $371 $370 $450 reversed $172 $-1 #
coedge $-1 $272 $267 $264 $374 forward $273 $-1 #
edge $-1 $377 -23.744715844997309 $451 -16.60667382276241 $373 $452 forward 7 unknown #
coedge $-1 $266 $265 $380 $453 reversed $108 $-1 #
edge $-1 $454 -71.18554272553186 $377 -59.324685357278078 $371 $455 forward 7 unknown #
vertex $-1 $268 $456 #
straight-curve $-1 17.284352735669493 28.454729340531031 14.953808595313998 1 0 0 I I #
coedge $-1 $370 $269 $272 $384 reversed $262 $-1 #
coedge $-1 $269 $370 $375 $453 forward $262 $-1 #
vertex $-1 $270 $457 #
straight-curve $-1 23.674549172322486 35.592771362765937 73.232195137124478 0 0 1 I I #
straight-curve $-1 23.674549172322486 -7.2477569038051541 62.332609431901545 0 0.60181501223851219 -0.79863551827123203 I I #
edge $-1 $451 -45.462861770355488 $274 -23.674549172322486 $379 $458 forward 7 unknown #
point $-1 23.674549172322486 35.592771362765937 14.953808595313992 #
point $-1 23.674549172322486 28.454729340531038 14.953808595313994 #
edge $-1 $459 1 $459 0 $277 $-1 forward 7 unknown #
vertex $-1 $278 $460 #
ellipse-curve $-1 28.032211691929092 30.282336413557015 8.9053081209511458 0 0.79863551827123203 0.60181501223851219 1.5 0 0 1 I I #
point $-1 29.532211691929092 32.023750351648481 10.217557609595735 #
edge $-1 $461 1 $461 0 $281 $-1 forward 7 unknown #
vertex $-1 $282 $462 #
ellipse-curve $-1 34.568705471339001 30.282336413557015 8.9053081209511458 0 0.79863551827123203 0.60181501223851219 1.5 0 0 1 I I #
point $-1 36.068705471339001 32.023750351648481 10.217557609595735 #
edge $-1 $463 1 $463 0 $285 $-1 forward 7 unknown #
vertex $-1 $286 $464 #
ellipse-curve $-1 41.10519925074891 30.282336413557015 8.9053081209511458 0 0.79863551827123203 0.60181501223851219 1.5 0 0 1 I I #
point $-1 42.60519925074891 32.023750351648481 10.217557609595735 #
plane-surface $-1 69.898373363444932 0 0 -1 0 0 0 0 1 forward_v I I I I #
coedge $-1 $309 $295 $300 $408 forward $290 $-1 #
vertex $-1 $293 $465 #
vertex $-1 $407 $466 #
straight-curve $-1 69.898373363444932 0 -14.953808595313992 0 -1 0 I I #
straight-curve $-1 0 35.592771362765937 14.953808595313992 -1 0 0 I I #
coedge $-1 $297 $306 $299 $407 reversed $201 $-1 #
straight-curve $-1 0 -35.592771362765937 14.953808595313992 1 0 0 I I #
edge $-1 $302 -14.953808595313992 $402 14.953808595313992 $299 $467 forward 7 unknown #
edge $-1 $303 -14.953808595313992 $401 14.953808595313992 $300 $468 forward 7 unknown #
point $-1 69.898373363444932 -35.592771362765937 14.953808595313992 #
point $-1 69.898373363444932 35.592771362765937 14.953808595313992 #
straight-curve $-1 -69.898373363444932 0 14.953808595313992 0 -1 0 I I #
point $-1 -69.898373363444932 -35.592771362765937 14.953808595313992 #
point $-1 -69.898373363444932 35.592771362765937 14.953808595313992 #
straight-curve $-1 0 35.592771362765937 -14.953808595313992 1 0 0 I I #
straight-curve $-1 0 -35.592771362765937 -14.953808595313992 -1 0 0 I I #
plane-surface $-1 0 0 14.953808595313992 0 0 1 1 0 0 forward_v I I I I #
coedge $-1 $321 $318 $323 $424 reversed $219 $-1 #
coedge $-1 $318 $321 $430 $469 reversed $219 $-1 #
edge $-1 $432 -14.953808595313992 $426 14.953808595313992 $335 $470 forward 7 unknown #
edge $-1 $421 -8.5118418420826458 $333 8.5118418420826458 $320 $471 forward 7 unknown #
vertex $-1 $469 $472 #
vertex $-1 $424 $473 #
straight-curve $-1 -86.922057047610224 -34.789429342098821 0 0 0 -1 I I #
edge $-1 $422 -2.0503242859024979 $426 2.0503242859024979 $417 $474 forward 7 unknown #
straight-curve $-1 -78.410215205527578 -34.789429342098821 -14.953808595313992 -1 0 0 I I #
vertex $-1 $325 $475 #
straight-curve $-1 -78.410215205527578 -30.688780770293825 -14.953808595313992 1 0 0 I I #
point $-1 -69.898373363444932 -34.789429342098821 -14.953808595313992 #
straight-curve $-1 -69.898373363444932 -34.789429342098821 0 0 0 -1 I I #
coedge $-1 $331 $330 $418 $469 forward $332 $-1 #
point $-1 -69.898373363444932 -34.789429342098821 14.953808595313992 #
vertex $-1 $336 $476 #
straight-curve $-1 -78.410215205527578 -30.688780770293825 14.953808595313992 -1 0 0 I I #
coedge $-1 $350 $349 $342 $435 forward $339 $-1 #
edge $-1 $436 48.520200173829679 $439 52.422746103112388 $434 $477 forward 7 unknown #
vertex $-1 $354 $478 #
straight-curve $-1 -52.874689679279641 -56.883060538367104 14.953808595313994 0 -1 0 I I #
edge $-1 $439 -34.160260218438239 $351 -3.2685987032445638 $350 $479 forward 7 unknown #
vertex $-1 $438 $480 #
straight-curve $-1 -52.874689679279641 -35.59277136276593 11.051262666031292 0 0.82903756765294845 0.55919291073839883 I I #
point $-1 -52.874689679279641 -29.807009199589995 14.953808595313992 #
point $-1 -21.983028164085965 -35.592771362765937 11.051262666031286 #
straight-curve $-1 0 -35.592771362765937 14.953808595313992 1 0 0 I I #
vertex $-1 $357 $481 #
point $-1 -45.196357376240911 -30.44652221176808 9.6617801464452384 #
vertex $-1 $361 $482 #
point $-1 -35.928858921682803 -30.44652221176808 9.6617801464452384 #
vertex $-1 $365 $483 #
point $-1 -26.661360467124702 -30.44652221176808 9.6617801464452384 #
edge $-1 $451 58.278386541810484 $454 67.750888513246991 $370 $484 forward 7 unknown #
vertex $-1 $384 $485 #
straight-curve $-1 45.462861770355488 52.199445185528347 14.953808595313987 0 1 0 I I #
edge $-1 $454 -28.178509034685995 $381 -6.3901964366529924 $380 $486 forward 7 unknown #
vertex $-1 $453 $487 #
straight-curve $-1 45.462861770355488 -7.2477569038051541 62.332609431901545 0 -0.60181501223851219 0.79863551827123203 I I #
point $-1 45.462861770355488 28.454729340531038 14.953808595313994 #
point $-1 23.674549172322486 35.592771362765937 5.4813066238774795 #
straight-curve $-1 0 35.592771362765937 14.953808595313992 -1 0 0 I I #
vertex $-1 $387 $488 #
point $-1 29.532211691929092 30.282336413557015 8.9053081209511458 #
vertex $-1 $391 $489 #
point $-1 36.068705471339001 30.282336413557015 8.9053081209511458 #
vertex $-1 $395 $490 #
point $-1 42.60519925074891 30.282336413557015 8.9053081209511458 #
point $-1 69.898373363444932 35.592771362765937 -14.953808595313992 #
point $-1 69.898373363444932 -35.592771362765937 -14.953808595313992 #
straight-curve $-1 69.898373363444932 -35.592771362765937 0 0 0 -1 I I #
straight-curve $-1 69.898373363444932 35.592771362765937 0 0 0 -1 I I #
edge $-1 $432 -2.0503242859024979 $421 2.0503242859024979 $418 $491 forward 7 unknown #
straight-curve $-1 -86.922057047610224 -30.688780770293825 0 0 0 -1 I I #
straight-curve $-1 -78.410215205527578 -34.789429342098821 14.953808595313992 1 0 0 I I #
point $-1 -86.922057047610224 -34.789429342098821 14.953808595313992 #
point $-1 -86.922057047610224 -34.789429342098821 -14.953808595313992 #
straight-curve $-1 -86.922057047610224 -32.739105056196323 -14.953808595313992 0 1 0 I I #
point $-1 -86.922057047610224 -30.688780770293825 -14.953808595313992 #
point $-1 -86.922057047610224 -30.688780770293825 14.953808595313992 #
straight-curve $-1 -52.874689679279641 -35.592771362765937 63.474008769143673 0 0 -1 I I #
point $-1 -52.874689679279641 -35.592771362765937 14.953808595313992 #
straight-curve $-1 -18.714429460841401 -35.592771362765937 11.051262666031283 1 0 0 I I #
point $-1 -52.874689679279641 -35.592771362765937 11.051262666031286 #
point $-1 -46.696357376240911 -29.607732845660482 8.4182237949658152 #
point $-1 -37.428858921682803 -29.607732845660482 8.4182237949658152 #
point $-1 -28.161360467124702 -29.607732845660482 8.4182237949658152 #
straight-curve $-1 45.462861770355488 35.592771362765937 73.232195137124478 0 0 -1 I I #
point $-1 45.462861770355488 35.592771362765937 14.953808595313992 #
straight-curve $-1 17.284352735669493 35.592771362765937 5.481306623877483 -1 0 0 I I #
point $-1 45.462861770355488 35.592771362765937 5.4813066238774795 #
point $-1 28.032211691929092 29.084383136150169 8.0025856025933759 #
point $-1 34.568705471339001 29.084383136150169 8.0025856025933759 #
point $-1 41.10519925074891 29.084383136150169 8.0025856025933759 #
straight-curve $-1 -86.922057047610224 -32.739105056196323 14.953808595313992 0 -1 0 I I #
End-of-ACIS-data 