500 0 14 0           
7 Unknown 11 ACIS 5.0 NT 24 Fri Mar 26 18:54:32 1999 
-1 9.9999999999999995e-007 1e-010 
body $-1 $14 $-1 $15 #
body $-1 $16 $-1 $17 #
body $-1 $18 $-1 $19 #
body $-1 $20 $-1 $21 #
body $-1 $22 $-1 $23 #
body $-1 $24 $-1 $25 #
body $-1 $26 $-1 $27 #
body $-1 $28 $-1 $29 #
body $-1 $30 $-1 $31 #
body $-1 $32 $-1 $33 #
body $-1 $34 $-1 $35 #
body $-1 $36 $-1 $37 #
body $-1 $38 $-1 $39 #
body $-1 $40 $-1 $41 #
lump $-1 $-1 $42 $0 #
transform $-1 1 0 0 0 1 0 0 0 1 66.029847102267524 35.163860864585047 14.416571259765893 1 rotate no_reflect no_shear #
lump $-1 $-1 $43 $1 #
transform $-1 1 0 0 0 1 0 0 0 1 66.029847102267524 35.163860864585047 14.416571259765893 1 rotate no_reflect no_shear #
lump $-1 $-1 $44 $2 #
transform $-1 1 0 0 0 1 0 0 0 1 66.029847102267524 35.163860864585047 14.416571259765893 1 rotate no_reflect no_shear #
lump $-1 $-1 $45 $3 #
transform $-1 1 0 0 0 1 0 0 0 1 66.029847102267524 35.163860864585047 14.416571259765893 1 rotate no_reflect no_shear #
lump $-1 $-1 $46 $4 #
transform $-1 1 0 0 0 1 0 0 0 1 66.029847102267524 35.163860864585047 14.416571259765893 1 rotate no_reflect no_shear #
lump $-1 $-1 $47 $5 #
transform $-1 1 0 0 0 1 0 0 0 1 66.029847102267524 35.163860864585047 14.416571259765893 1 rotate no_reflect no_shear #
lump $-1 $-1 $48 $6 #
transform $-1 1 0 0 0 1 0 0 0 1 66.029847102267524 35.163860864585047 14.416571259765893 1 rotate no_reflect no_shear #
lump $-1 $-1 $49 $7 #
transform $-1 1 0 0 0 1 0 0 0 1 66.029847102267524 35.163860864585047 14.416571259765893 1 rotate no_reflect no_shear #
lump $-1 $-1 $50 $8 #
transform $-1 1 0 0 0 1 0 0 0 1 66.029847102267524 35.163860864585047 14.416571259765893 1 rotate no_reflect no_shear #
lump $-1 $-1 $51 $9 #
transform $-1 1 0 0 0 1 0 0 0 1 66.029847102267524 35.163860864585047 14.416571259765893 1 rotate no_reflect no_shear #
lump $-1 $-1 $52 $10 #
transform $-1 1 0 0 0 1 0 0 0 1 66.029847102267524 35.163860864585047 14.416571259765893 1 rotate no_reflect no_shear #
lump $-1 $-1 $53 $11 #
transform $-1 1 0 0 0 1 0 0 0 1 66.029847102267524 35.163860864585047 14.416571259765893 1 rotate no_reflect no_shear #
lump $-1 $-1 $54 $12 #
transform $-1 1 0 0 0 1 0 0 0 1 66.029847102267524 35.163860864585047 14.416571259765893 1 rotate no_reflect no_shear #
lump $-1 $-1 $55 $13 #
transform $-1 1 0 0 0 1 0 0 0 1 66.029847102267524 35.163860864585047 14.416571259765893 1 rotate no_reflect no_shear #
shell $-1 $-1 $-1 $56 $-1 $14 #
shell $-1 $-1 $-1 $57 $-1 $16 #
shell $-1 $-1 $-1 $58 $-1 $18 #
shell $-1 $-1 $-1 $59 $-1 $20 #
shell $-1 $-1 $-1 $60 $-1 $22 #
shell $-1 $-1 $-1 $61 $-1 $24 #
shell $-1 $-1 $-1 $62 $-1 $26 #
shell $-1 $-1 $-1 $63 $-1 $28 #
shell $-1 $-1 $-1 $64 $-1 $30 #
shell $-1 $-1 $-1 $65 $-1 $32 #
shell $-1 $-1 $-1 $66 $-1 $34 #
shell $-1 $-1 $-1 $67 $-1 $36 #
shell $-1 $-1 $-1 $68 $-1 $38 #
shell $-1 $-1 $-1 $69 $-1 $40 #
face $-1 $70 $71 $42 $-1 $72 forward single #
face $-1 $73 $74 $43 $-1 $75 forward single #
face $-1 $76 $77 $44 $-1 $78 reversed single #
face $-1 $79 $80 $45 $-1 $81 forward single #
face $-1 $82 $83 $46 $-1 $84 forward single #
face $-1 $85 $86 $47 $-1 $87 forward single #
face $-1 $88 $89 $48 $-1 $90 reversed single #
face $-1 $91 $92 $49 $-1 $93 forward single #
face $-1 $94 $95 $50 $-1 $96 forward single #
face $-1 $97 $98 $51 $-1 $99 forward single #
face $-1 $100 $101 $52 $-1 $102 reversed single #
face $-1 $103 $104 $53 $-1 $105 forward single #
face $-1 $106 $107 $54 $-1 $108 forward single #
face $-1 $109 $110 $55 $-1 $111 forward single #
face $-1 $112 $113 $42 $-1 $114 reversed single #
loop $-1 $-1 $115 $56 #
plane-surface $-1 0 0 14.416571259765893 0 0 1 1 0 0 forward_v I I I I #
face $-1 $116 $117 $43 $-1 $118 reversed single #
loop $-1 $-1 $119 $57 #
plane-surface $-1 0 -29.399639008977005 -8.3431060971309154 0 0 1 1 0 0 forward_v I I I I #
face $-1 $120 $121 $44 $-1 $122 reversed single #
loop $-1 $-1 $123 $58 #
plane-surface $-1 66.029849269167187 6.647386041885408 193.82615362033903 0 -1 0 -0.70710678939079041 0 -0.70710677298230451 forward_v I I I I #
face $-1 $124 $125 $45 $-1 $126 forward single #
loop $-1 $127 $128 $59 #
cone-surface $-1 61.699222922141516 -6.0415360402953517 10.085947009551088 -0.70710678939079041 0 -0.70710677298230451 0.70710677298230451 0 -0.70710678939079041 1 I I 0 1 1 forward I I I I #
face $-1 $129 $130 $46 $-1 $131 forward single #
loop $-1 $132 $133 $60 #
cone-surface $-1 61.699222922141516 -1.2831902594775642 10.085947009551088 -0.70710678939079041 0 -0.70710677298230451 0.70710677298230451 0 -0.70710678939079041 1 I I 0 1 1 forward I I I I #
face $-1 $134 $135 $47 $-1 $136 forward single #
loop $-1 $137 $138 $61 #
cone-surface $-1 61.699222922141516 3.4751555213402199 10.085947009551088 -0.70710678939079041 0 -0.70710677298230451 0.70710677298230451 0 -0.70710678939079041 1 I I 0 1 1 forward I I I I #
face $-1 $139 $140 $48 $-1 $141 reversed single #
loop $-1 $-1 $142 $62 #
plane-surface $-1 -141.77617686592498 -12.056350469423542 109.922535650528 0 1 0 -0.57357644374324357 0 0.81915203911291934 forward_v I I I I #
face $-1 $143 $144 $49 $-1 $145 forward single #
loop $-1 $146 $147 $63 #
cone-surface $-1 -56.695024928533485 -9.6720365291262489 7.6714935394537633 0.57357644374324357 0 -0.81915203911291934 0.40957601955645967 0 0.28678822187162178 1 I I 0 1 0.5 forward I I I I #
face $-1 $148 $149 $50 $-1 $150 forward single #
loop $-1 $151 $152 $64 #
cone-surface $-1 -56.695024928533485 -6.0955656186803111 7.6714935394537633 0.57357644374324357 0 -0.81915203911291934 0.40957601955645967 0 0.28678822187162178 1 I I 0 1 0.5 forward I I I I #
face $-1 $153 $154 $51 $-1 $155 forward single #
loop $-1 $156 $157 $65 #
cone-surface $-1 -56.695024928533485 -2.5190947082343698 7.6714935394537633 0.57357644374324357 0 -0.81915203911291934 0.40957601955645967 0 0.28678822187162178 1 I I 0 1 0.5 forward I I I I #
face $-1 $158 $159 $52 $-1 $160 reversed single #
loop $-1 $-1 $161 $66 #
plane-surface $-1 -141.77617686592498 11.663224479153161 109.922535650528 0 1 0 -0.57357644374324357 0 0.81915203911291934 forward_v I I I I #
face $-1 $162 $163 $53 $-1 $164 forward single #
loop $-1 $165 $166 $67 #
cone-surface $-1 -56.695024928533485 14.047538419450447 7.6714935394537633 0.57357644374324357 0 -0.81915203911291934 0.40957601955645967 0 0.28678822187162178 1 I I 0 1 0.5 forward I I I I #
face $-1 $167 $168 $54 $-1 $169 forward single #
loop $-1 $170 $171 $68 #
cone-surface $-1 -56.695024928533485 17.624009329896388 7.6714935394537633 0.57357644374324357 0 -0.81915203911291934 0.40957601955645967 0 0.28678822187162178 1 I I 0 1 0.5 forward I I I I #
face $-1 $172 $173 $55 $-1 $174 forward single #
loop $-1 $175 $176 $69 #
cone-surface $-1 -56.695024928533485 21.20048024034233 7.6714935394537633 0.57357644374324357 0 -0.81915203911291934 0.40957601955645967 0 0.28678822187162178 1 I I 0 1 0.5 forward I I I I #
face $-1 $177 $178 $42 $-1 $179 reversed single #
loop $-1 $-1 $180 $70 #
plane-surface $-1 0 0 -14.416571259765893 0 0 1 1 0 0 forward_v I I I I #
coedge $-1 $181 $182 $183 $184 forward $71 $-1 #
face $-1 $185 $186 $43 $-1 $187 reversed single #
loop $-1 $-1 $188 $73 #
plane-surface $-1 0 -23.635417153368962 -11.379838678448404 0 -1 0 0 0 -1 forward_v I I I I #
coedge $-1 $189 $190 $191 $192 reversed $74 $-1 #
face $-1 $193 $194 $44 $-1 $195 reversed single #
loop $-1 $-1 $196 $76 #
plane-surface $-1 -27.35045710773116 -1.2831902594775642 100.44584941034032 0.70710678939079041 0 0.70710677298230451 0.70710677298230451 0 -0.70710678939079041 forward_v I I I I #
coedge $-1 $197 $198 $199 $200 reversed $77 $-1 #
face $-1 $-1 $201 $45 $-1 $202 forward single #
loop $-1 $203 $204 $79 #
cone-surface $-1 60.690559375191384 -6.0415360402953517 9.077283486007099 -0.70710678939079041 0 -0.70710677298230451 0.35355338649115226 0 -0.35355339469539521 1 I I -0.70710678118654746 0.70710678118654746 0.5 forward I I I I #
loop $-1 $-1 $205 $59 #
coedge $-1 $128 $128 $206 $207 reversed $80 $-1 #
face $-1 $-1 $208 $46 $-1 $209 forward single #
loop $-1 $210 $211 $82 #
cone-surface $-1 60.690559375191384 -1.2831902594775642 9.077283486007099 -0.70710678939079041 0 -0.70710677298230451 0.35355338649115226 0 -0.35355339469539521 1 I I -0.70710678118654746 0.70710678118654746 0.5 forward I I I I #
loop $-1 $-1 $212 $60 #
coedge $-1 $133 $133 $213 $214 reversed $83 $-1 #
face $-1 $-1 $215 $47 $-1 $216 forward single #
loop $-1 $217 $218 $85 #
cone-surface $-1 60.690559375191384 3.4751555213402199 9.077283486007099 -0.70710678939079041 0 -0.70710677298230451 0.35355338649115226 0 -0.35355339469539521 1 I I -0.70710678118654746 0.70710678118654746 0.5 forward I I I I #
loop $-1 $-1 $219 $61 #
coedge $-1 $138 $138 $220 $221 reversed $86 $-1 #
face $-1 $222 $223 $48 $-1 $224 reversed single #
loop $-1 $-1 $225 $88 #
plane-surface $-1 -66.029847102267539 -6.0955656186803076 1.745567858254546 -0.57357644374324357 0 0.81915203911291934 0.81915203911291934 0 0.57357644374324357 forward_v I I I I #
coedge $-1 $226 $227 $228 $229 reversed $89 $-1 #
face $-1 $-1 $230 $49 $-1 $231 forward single #
loop $-1 $232 $233 $91 #
cone-surface $-1 -56.264842595726051 -9.6720365291262489 7.0571295101190739 0.57357644374324357 0 -0.81915203911291934 0.20478800977822983 0 0.14339411093581089 1 I I -0.70710678118654746 0.70710678118654746 0.25 forward I I I I #
loop $-1 $-1 $234 $63 #
coedge $-1 $147 $147 $235 $236 reversed $92 $-1 #
face $-1 $-1 $237 $50 $-1 $238 forward single #
loop $-1 $239 $240 $94 #
cone-surface $-1 -56.264842595726051 -6.0955656186803111 7.0571295101190739 0.57357644374324357 0 -0.81915203911291934 0.20478800977822983 0 0.14339411093581089 1 I I -0.70710678118654746 0.70710678118654746 0.25 forward I I I I #
loop $-1 $-1 $241 $64 #
coedge $-1 $152 $152 $242 $243 reversed $95 $-1 #
face $-1 $-1 $244 $51 $-1 $245 forward single #
loop $-1 $246 $247 $97 #
cone-surface $-1 -56.264842595726051 -2.5190947082343698 7.0571295101190739 0.57357644374324357 0 -0.81915203911291934 0.20478800977822983 0 0.14339411093581089 1 I I -0.70710678118654746 0.70710678118654746 0.25 forward I I I I #
loop $-1 $-1 $248 $65 #
coedge $-1 $157 $157 $249 $250 reversed $98 $-1 #
face $-1 $251 $252 $52 $-1 $253 reversed single #
loop $-1 $-1 $254 $100 #
plane-surface $-1 -66.029847102267539 17.624009329896396 1.745567858254546 -0.57357644374324357 0 0.81915203911291934 0.81915203911291934 0 0.57357644374324357 forward_v I I I I #
coedge $-1 $255 $256 $257 $258 reversed $101 $-1 #
face $-1 $-1 $259 $53 $-1 $260 forward single #
loop $-1 $261 $262 $103 #
cone-surface $-1 -56.264842595726051 14.047538419450447 7.0571295101190739 0.57357644374324357 0 -0.81915203911291934 0.20478800977822983 0 0.14339411093581089 1 I I -0.70710678118654746 0.70710678118654746 0.25 forward I I I I #
loop $-1 $-1 $263 $67 #
coedge $-1 $166 $166 $264 $265 reversed $104 $-1 #
face $-1 $-1 $266 $54 $-1 $267 forward single #
loop $-1 $268 $269 $106 #
cone-surface $-1 -56.264842595726051 17.624009329896388 7.0571295101190739 0.57357644374324357 0 -0.81915203911291934 0.20478800977822983 0 0.14339411093581089 1 I I -0.70710678118654746 0.70710678118654746 0.25 forward I I I I #
loop $-1 $-1 $270 $68 #
coedge $-1 $171 $171 $271 $272 reversed $107 $-1 #
face $-1 $-1 $273 $55 $-1 $274 forward single #
loop $-1 $275 $276 $109 #
cone-surface $-1 -56.264842595726051 21.20048024034233 7.0571295101190739 0.57357644374324357 0 -0.81915203911291934 0.20478800977822983 0 0.14339411093581089 1 I I -0.70710678118654746 0.70710678118654746 0.25 forward I I I I #
loop $-1 $-1 $277 $69 #
coedge $-1 $176 $176 $278 $279 reversed $110 $-1 #
face $-1 $280 $281 $42 $-1 $282 reversed single #
loop $-1 $-1 $283 $112 #
plane-surface $-1 0 -35.163860864585047 0 0 1 0 0 0 1 forward_v I I I I #
coedge $-1 $284 $285 $286 $287 forward $113 $-1 #
coedge $-1 $288 $115 $289 $290 forward $71 $-1 #
coedge $-1 $115 $288 $291 $292 forward $71 $-1 #
coedge $-1 $293 $294 $115 $184 reversed $295 $-1 #
edge $-1 $296 -35.163860864585047 $297 35.163860864585047 $183 $298 forward 7 unknown #
face $-1 $299 $300 $43 $-1 $301 reversed single #
loop $-1 $-1 $302 $116 #
plane-surface $-1 0 0 -14.416571259765893 0 0 1 1 0 0 forward_v I I I I #
coedge $-1 $303 $304 $305 $306 reversed $117 $-1 #
coedge $-1 $307 $119 $304 $308 forward $74 $-1 #
coedge $-1 $119 $307 $309 $310 reversed $74 $-1 #
coedge $-1 $311 $305 $119 $192 forward $300 $-1 #
edge $-1 $312 8.93559764888046 $313 20.464041360096545 $191 $314 forward 7 unknown #
face $-1 $315 $316 $44 $-1 $317 reversed single #
loop $-1 $-1 $318 $120 #
plane-surface $-1 66.029849269167187 -9.2137665608405364 193.82615362033903 0 1 0 0.70710678939079041 0 0.70710677298230451 forward_v I I I I #
coedge $-1 $319 $320 $321 $322 reversed $121 $-1 #
coedge $-1 $198 $123 $323 $324 reversed $77 $-1 #
coedge $-1 $123 $197 $319 $325 reversed $77 $-1 #
coedge $-1 $321 $326 $123 $200 forward $327 $-1 #
edge $-1 $328 -33.014922467683931 $329 -25.663894411941413 $199 $330 forward 7 unknown #
loop $-1 $-1 $206 $124 #
plane-surface $-1 -27.35045710773116 -1.2831902594775642 100.44584941034032 0.70710678939079041 0 0.70710677298230451 0.70710677298230451 0 -0.70710678939079041 forward_v I I I I #
loop $-1 $-1 $331 $79 #
coedge $-1 $204 $204 $205 $332 reversed $125 $-1 #
coedge $-1 $205 $205 $204 $332 forward $127 $-1 #
coedge $-1 $206 $206 $128 $207 forward $201 $-1 #
edge $-1 $333 0 $333 6.2831853071796004 $206 $334 forward 7 unknown #
loop $-1 $-1 $213 $129 #
plane-surface $-1 -27.35045710773116 -1.2831902594775642 100.44584941034032 0.70710678939079041 0 0.70710677298230451 0.70710677298230451 0 -0.70710678939079041 forward_v I I I I #
loop $-1 $-1 $335 $82 #
coedge $-1 $211 $211 $212 $336 reversed $130 $-1 #
coedge $-1 $212 $212 $211 $336 forward $132 $-1 #
coedge $-1 $213 $213 $133 $214 forward $208 $-1 #
edge $-1 $337 0 $337 6.2831853071796004 $213 $338 forward 7 unknown #
loop $-1 $-1 $220 $134 #
plane-surface $-1 -27.35045710773116 -1.2831902594775642 100.44584941034032 0.70710678939079041 0 0.70710677298230451 0.70710677298230451 0 -0.70710678939079041 forward_v I I I I #
loop $-1 $-1 $339 $85 #
coedge $-1 $218 $218 $219 $340 reversed $135 $-1 #
coedge $-1 $219 $219 $218 $340 forward $137 $-1 #
coedge $-1 $220 $220 $138 $221 forward $215 $-1 #
edge $-1 $341 0 $341 6.2831853071796004 $220 $342 forward 7 unknown #
face $-1 $343 $344 $48 $-1 $345 forward single #
loop $-1 $-1 $346 $139 #
plane-surface $-1 -141.77617686592498 -0.13478076793707316 109.922535650528 0 -1 0 0.57357644374324357 0 -0.81915203911291934 forward_v I I I I #
coedge $-1 $347 $348 $349 $350 reversed $140 $-1 #
coedge $-1 $227 $142 $351 $352 reversed $89 $-1 #
coedge $-1 $142 $226 $347 $353 reversed $89 $-1 #
coedge $-1 $349 $354 $142 $229 forward $344 $-1 #
edge $-1 $355 4.8582413306949661 $356 22.95430923441981 $228 $357 forward 7 unknown #
loop $-1 $-1 $235 $143 #
plane-surface $-1 -66.029847102267539 -6.0955656186803076 1.745567858254546 -0.57357644374324357 0 0.81915203911291934 0.81915203911291934 0 0.57357644374324357 forward_v I I I I #
loop $-1 $-1 $358 $91 #
coedge $-1 $233 $233 $234 $359 reversed $144 $-1 #
coedge $-1 $234 $234 $233 $359 forward $146 $-1 #
coedge $-1 $235 $235 $147 $236 forward $230 $-1 #
edge $-1 $360 0 $360 6.2831853071796004 $235 $361 forward 7 unknown #
loop $-1 $-1 $242 $148 #
plane-surface $-1 -66.029847102267539 -6.0955656186803076 1.745567858254546 -0.57357644374324357 0 0.81915203911291934 0.81915203911291934 0 0.57357644374324357 forward_v I I I I #
loop $-1 $-1 $362 $94 #
coedge $-1 $240 $240 $241 $363 reversed $149 $-1 #
coedge $-1 $241 $241 $240 $363 forward $151 $-1 #
coedge $-1 $242 $242 $152 $243 forward $237 $-1 #
edge $-1 $364 0 $364 6.2831853071796004 $242 $365 forward 7 unknown #
loop $-1 $-1 $249 $153 #
plane-surface $-1 -66.029847102267539 -6.0955656186803076 1.745567858254546 -0.57357644374324357 0 0.81915203911291934 0.81915203911291934 0 0.57357644374324357 forward_v I I I I #
loop $-1 $-1 $366 $97 #
coedge $-1 $247 $247 $248 $367 reversed $154 $-1 #
coedge $-1 $248 $248 $247 $367 forward $156 $-1 #
coedge $-1 $249 $249 $157 $250 forward $244 $-1 #
edge $-1 $368 0 $368 6.2831853071796004 $249 $369 forward 7 unknown #
face $-1 $370 $371 $52 $-1 $372 forward single #
loop $-1 $-1 $373 $158 #
plane-surface $-1 -141.77617686592498 23.58479418063963 109.922535650528 0 -1 0 0.57357644374324357 0 -0.81915203911291934 forward_v I I I I #
coedge $-1 $374 $375 $376 $377 reversed $159 $-1 #
coedge $-1 $256 $161 $378 $379 reversed $101 $-1 #
coedge $-1 $161 $255 $374 $380 reversed $101 $-1 #
coedge $-1 $376 $381 $161 $258 forward $371 $-1 #
edge $-1 $382 4.8582413306949661 $383 22.95430923441981 $257 $384 forward 7 unknown #
loop $-1 $-1 $264 $162 #
plane-surface $-1 -66.029847102267539 17.624009329896396 1.745567858254546 -0.57357644374324357 0 0.81915203911291934 0.81915203911291934 0 0.57357644374324357 forward_v I I I I #
loop $-1 $-1 $385 $103 #
coedge $-1 $262 $262 $263 $386 reversed $163 $-1 #
coedge $-1 $263 $263 $262 $386 forward $165 $-1 #
coedge $-1 $264 $264 $166 $265 forward $259 $-1 #
edge $-1 $387 0 $387 6.2831853071796004 $264 $388 forward 7 unknown #
loop $-1 $-1 $271 $167 #
plane-surface $-1 -66.029847102267539 17.624009329896396 1.745567858254546 -0.57357644374324357 0 0.81915203911291934 0.81915203911291934 0 0.57357644374324357 forward_v I I I I #
loop $-1 $-1 $389 $106 #
coedge $-1 $269 $269 $270 $390 reversed $168 $-1 #
coedge $-1 $270 $270 $269 $390 forward $170 $-1 #
coedge $-1 $271 $271 $171 $272 forward $266 $-1 #
edge $-1 $391 0 $391 6.2831853071796004 $271 $392 forward 7 unknown #
loop $-1 $-1 $278 $172 #
plane-surface $-1 -66.029847102267539 17.624009329896396 1.745567858254546 -0.57357644374324357 0 0.81915203911291934 0.81915203911291934 0 0.57357644374324357 forward_v I I I I #
loop $-1 $-1 $393 $109 #
coedge $-1 $276 $276 $277 $394 reversed $173 $-1 #
coedge $-1 $277 $277 $276 $394 forward $175 $-1 #
coedge $-1 $278 $278 $176 $279 forward $273 $-1 #
edge $-1 $395 0 $395 6.2831853071796004 $278 $396 forward 7 unknown #
face $-1 $397 $398 $42 $-1 $399 reversed single #
loop $-1 $-1 $400 $177 #
plane-surface $-1 -66.029847102267524 0 0 1 0 0 0 0 -1 forward_v I I I I #
coedge $-1 $401 $291 $402 $403 forward $178 $-1 #
coedge $-1 $404 $180 $401 $405 forward $113 $-1 #
coedge $-1 $180 $404 $406 $407 forward $113 $-1 #
coedge $-1 $294 $293 $180 $287 reversed $295 $-1 #
edge $-1 $408 -35.163860864585047 $409 35.163860864585047 $286 $410 forward 7 unknown #
coedge $-1 $182 $181 $411 $412 forward $71 $-1 #
coedge $-1 $413 $414 $181 $290 reversed $398 $-1 #
edge $-1 $297 -66.029847102267524 $415 66.029847102267524 $289 $416 forward 7 unknown #
coedge $-1 $283 $417 $182 $292 reversed $178 $-1 #
edge $-1 $418 -66.029847102267524 $296 66.029847102267524 $291 $419 forward 7 unknown #
coedge $-1 $286 $183 $417 $420 forward $295 $-1 #
coedge $-1 $183 $286 $413 $421 reversed $295 $-1 #
loop $-1 $-1 $293 $397 #
vertex $-1 $184 $422 #
vertex $-1 $184 $423 #
straight-curve $-1 66.029847102267524 0 14.416571259765893 0 1 0 I I #
face $-1 $424 $425 $43 $-1 $426 reversed single #
loop $-1 $-1 $305 $185 #
plane-surface $-1 66.029847102267524 0 0 -1 0 0 0 0 1 forward_v I I I I #
coedge $-1 $427 $428 $303 $429 forward $186 $-1 #
coedge $-1 $430 $188 $302 $429 reversed $117 $-1 #
coedge $-1 $188 $430 $189 $308 reversed $117 $-1 #
coedge $-1 $191 $431 $188 $306 forward $300 $-1 #
edge $-1 $432 -8.7266519205416913 $312 -2.6531867579067132 $305 $433 forward 7 unknown #
coedge $-1 $190 $189 $434 $435 reversed $74 $-1 #
edge $-1 $312 -66.029847102267524 $436 66.029847102267524 $304 $437 forward 7 unknown #
coedge $-1 $438 $439 $190 $310 forward $425 $-1 #
edge $-1 $313 -66.029847102267524 $440 66.029847102267524 $309 $441 forward 7 unknown #
coedge $-1 $431 $191 $439 $442 forward $300 $-1 #
vertex $-1 $192 $443 #
vertex $-1 $442 $444 #
straight-curve $-1 66.029847102267524 -14.699819504488502 -8.3431060971309154 0 -1 0 I I #
face $-1 $-1 $327 $44 $-1 $445 forward single #
loop $-1 $-1 $446 $193 #
plane-surface $-1 66.029847102267524 0 0 -1 0 0 0 0 1 forward_v I I I I #
coedge $-1 $447 $448 $449 $450 reversed $194 $-1 #
coedge $-1 $451 $196 $198 $325 forward $121 $-1 #
coedge $-1 $196 $451 $447 $452 forward $121 $-1 #
coedge $-1 $449 $199 $196 $322 forward $327 $-1 #
edge $-1 $329 -7.2889811716241901 $453 8.5721714311017543 $321 $454 forward 7 unknown #
coedge $-1 $455 $456 $197 $324 forward $316 $-1 #
edge $-1 $457 -89.847533776727516 $328 -82.496505550403626 $323 $458 forward 7 unknown #
edge $-1 $329 121.66377051009958 $457 132.05969420453505 $198 $459 forward 7 unknown #
coedge $-1 $199 $449 $455 $460 forward $327 $-1 #
loop $-1 $-1 $449 $315 #
vertex $-1 $324 $461 #
vertex $-1 $200 $462 #
straight-curve $-1 33.014924634583593 6.647386041885408 14.416571259765888 -1 0 0 I I #
coedge $-1 $331 $331 $-1 $463 reversed $203 $-1 #
edge $-1 $464 0 $464 6.2831853071796004 $204 $465 forward 7 unknown #
vertex $-1 $207 $466 #
ellipse-curve $-1 62.354333074396266 -6.0415360402953517 10.741057146603941 0.70710678939079041 0 0.70710677298230451 0.70710677298230451 0 -0.70710678939079041 1 I I #
coedge $-1 $335 $335 $-1 $467 reversed $210 $-1 #
edge $-1 $468 0 $468 6.2831853071796004 $211 $469 forward 7 unknown #
vertex $-1 $214 $470 #
ellipse-curve $-1 62.354333074396266 -1.2831902594775642 10.741057146603941 0.70710678939079041 0 0.70710677298230451 0.70710677298230451 0 -0.70710678939079041 1 I I #
coedge $-1 $339 $339 $-1 $471 reversed $217 $-1 #
edge $-1 $472 0 $472 6.2831853071796004 $218 $473 forward 7 unknown #
vertex $-1 $221 $474 #
ellipse-curve $-1 62.354333074396266 3.4751555213402199 10.741057146603941 0.70710678939079041 0 0.70710677298230451 0.70710677298230451 0 -0.70710678939079041 1 I I #
face $-1 $-1 $475 $48 $-1 $476 reversed single #
loop $-1 $-1 $228 $222 #
plane-surface $-1 0 0 14.416571259765893 0 0 1 1 0 0 forward_v I I I I #
coedge $-1 $477 $478 $479 $480 reversed $223 $-1 #
coedge $-1 $481 $225 $227 $353 forward $140 $-1 #
coedge $-1 $225 $481 $477 $482 forward $140 $-1 #
coedge $-1 $479 $228 $225 $350 forward $344 $-1 #
edge $-1 $356 -9.0085676600833882 $483 2.9130020414030806 $349 $484 forward 7 unknown #
coedge $-1 $485 $486 $226 $352 forward $475 $-1 #
edge $-1 $487 -53.215699967009449 $355 -40.544696565498107 $351 $488 forward 7 unknown #
edge $-1 $356 -22.091219992959491 $487 -1.7372030585532449e-014 $227 $489 forward 7 unknown #
coedge $-1 $228 $479 $485 $490 forward $344 $-1 #
vertex $-1 $352 $491 #
vertex $-1 $229 $492 #
straight-curve $-1 -70.888088432962491 -12.056350469423542 14.416571259765895 1 0 0 I I #
coedge $-1 $358 $358 $-1 $493 reversed $232 $-1 #
edge $-1 $494 0 $494 6.2831853071796004 $233 $495 forward 7 unknown #
vertex $-1 $236 $496 #
ellipse-curve $-1 -56.98181315040511 -9.6720365291262489 8.0810695590102224 -0.57357644374324357 0 0.81915203911291934 0.40957601955645967 0 0.28678822187162178 1 I I #
coedge $-1 $362 $362 $-1 $497 reversed $239 $-1 #
edge $-1 $498 0 $498 6.2831853071796004 $240 $499 forward 7 unknown #
vertex $-1 $243 $500 #
ellipse-curve $-1 -56.98181315040511 -6.0955656186803111 8.0810695590102224 -0.57357644374324357 0 0.81915203911291934 0.40957601955645967 0 0.28678822187162178 1 I I #
coedge $-1 $366 $366 $-1 $501 reversed $246 $-1 #
edge $-1 $502 0 $502 6.2831853071796004 $247 $503 forward 7 unknown #
vertex $-1 $250 $504 #
ellipse-curve $-1 -56.98181315040511 -2.5190947082343698 8.0810695590102224 -0.57357644374324357 0 0.81915203911291934 0.40957601955645967 0 0.28678822187162178 1 I I #
face $-1 $-1 $505 $52 $-1 $506 reversed single #
loop $-1 $-1 $257 $251 #
plane-surface $-1 0 0 14.416571259765893 0 0 1 1 0 0 forward_v I I I I #
coedge $-1 $507 $508 $509 $510 reversed $252 $-1 #
coedge $-1 $511 $254 $256 $380 forward $159 $-1 #
coedge $-1 $254 $511 $507 $512 forward $159 $-1 #
coedge $-1 $509 $257 $254 $377 forward $371 $-1 #
edge $-1 $383 2.8512198142049634 $513 14.772789515691432 $376 $514 forward 7 unknown #
coedge $-1 $515 $516 $255 $379 forward $505 $-1 #
edge $-1 $517 -53.215699967009449 $382 -40.544696565498107 $378 $518 forward 7 unknown #
edge $-1 $383 -22.091219992959491 $517 -1.7372030585532449e-014 $256 $519 forward 7 unknown #
coedge $-1 $257 $509 $515 $520 forward $371 $-1 #
vertex $-1 $258 $521 #
vertex $-1 $258 $522 #
straight-curve $-1 -70.888088432962491 11.663224479153161 14.416571259765895 1 0 0 I I #
coedge $-1 $385 $385 $-1 $523 reversed $261 $-1 #
edge $-1 $524 0 $524 6.2831853071796004 $262 $525 forward 7 unknown #
vertex $-1 $265 $526 #
ellipse-curve $-1 -56.98181315040511 14.047538419450447 8.0810695590102224 -0.57357644374324357 0 0.81915203911291934 0.40957601955645967 0 0.28678822187162178 1 I I #
coedge $-1 $389 $389 $-1 $527 reversed $268 $-1 #
edge $-1 $528 0 $528 6.2831853071796004 $269 $529 forward 7 unknown #
vertex $-1 $272 $530 #
ellipse-curve $-1 -56.98181315040511 17.624009329896388 8.0810695590102224 -0.57357644374324357 0 0.81915203911291934 0.40957601955645967 0 0.28678822187162178 1 I I #
coedge $-1 $393 $393 $-1 $531 reversed $275 $-1 #
edge $-1 $532 0 $532 6.2831853071796004 $276 $533 forward 7 unknown #
vertex $-1 $279 $534 #
ellipse-curve $-1 -56.98181315040511 21.20048024034233 8.0810695590102224 -0.57357644374324357 0 0.81915203911291934 0.40957601955645967 0 0.28678822187162178 1 I I #
face $-1 $-1 $295 $42 $-1 $535 reversed single #
loop $-1 $-1 $413 $280 #
plane-surface $-1 0 35.163860864585047 0 0 -1 0 0 0 -1 forward_v I I I I #
coedge $-1 $536 $411 $414 $537 forward $281 $-1 #
coedge $-1 $417 $283 $284 $405 reversed $178 $-1 #
coedge $-1 $411 $536 $283 $403 reversed $281 $-1 #
edge $-1 $418 -14.416571259765893 $538 14.416571259765893 $402 $539 forward 7 unknown #
coedge $-1 $285 $284 $536 $540 forward $113 $-1 #
edge $-1 $409 -66.029847102267524 $538 66.029847102267524 $401 $541 forward 7 unknown #
coedge $-1 $414 $413 $285 $407 reversed $398 $-1 #
edge $-1 $542 -66.029847102267524 $408 66.029847102267524 $406 $543 forward 7 unknown #
vertex $-1 $287 $544 #
vertex $-1 $420 $545 #
straight-curve $-1 66.029847102267524 0 -14.416571259765893 0 -1 0 I I #
coedge $-1 $400 $402 $288 $412 reversed $281 $-1 #
edge $-1 $415 -35.163860864585047 $418 35.163860864585047 $411 $546 forward 7 unknown #
coedge $-1 $406 $289 $294 $421 forward $398 $-1 #
coedge $-1 $289 $406 $400 $537 reversed $398 $-1 #
vertex $-1 $290 $547 #
straight-curve $-1 0 35.163860864585047 14.416571259765893 -1 0 0 I I #
coedge $-1 $291 $401 $293 $420 reversed $178 $-1 #
vertex $-1 $412 $548 #
straight-curve $-1 0 -35.163860864585047 14.416571259765893 1 0 0 I I #
edge $-1 $296 -14.416571259765893 $409 14.416571259765893 $293 $549 forward 7 unknown #
edge $-1 $297 -14.416571259765893 $408 14.416571259765893 $294 $550 forward 7 unknown #
point $-1 66.029847102267524 -35.163860864585047 14.416571259765893 #
point $-1 66.029847102267524 35.163860864585047 14.416571259765893 #
face $-1 $-1 $551 $43 $-1 $552 reversed single #
loop $-1 $-1 $309 $299 #
plane-surface $-1 0 -35.163860864585047 0 0 1 0 0 0 1 forward_v I I I I #
coedge $-1 $553 $302 $431 $554 forward $186 $-1 #
coedge $-1 $302 $553 $555 $556 forward $186 $-1 #
edge $-1 $557 -66.029847102267524 $432 66.029847102267524 $302 $558 forward 7 unknown #
coedge $-1 $304 $303 $559 $560 reversed $117 $-1 #
coedge $-1 $305 $311 $427 $554 reversed $300 $-1 #
vertex $-1 $554 $561 #
straight-curve $-1 66.029847102267524 -23.635417153368962 -5.6899193392242022 0 0 1 I I #
coedge $-1 $559 $562 $307 $435 forward $551 $-1 #
edge $-1 $440 -20.464041360096545 $436 -8.93559764888046 $434 $563 forward 7 unknown #
vertex $-1 $435 $564 #
straight-curve $-1 0 -23.635417153368962 -8.3431060971309154 -1 0 0 I I #
coedge $-1 $565 $309 $562 $566 forward $425 $-1 #
coedge $-1 $309 $565 $311 $442 reversed $425 $-1 #
vertex $-1 $566 $567 #
straight-curve $-1 0 -35.163860864585047 -8.3431060971309154 -1 0 0 I I #
edge $-1 $313 8.3431060971309154 $568 14.416571259765893 $311 $569 forward 7 unknown #
point $-1 66.029847102267524 -23.635417153368962 -8.3431060971309154 #
point $-1 66.029847102267524 -35.163860864585047 -8.3431060971309154 #
plane-surface $-1 0 0 14.416571259765893 0 0 1 1 0 0 forward_v I I I I #
coedge $-1 $456 $455 $448 $570 forward $316 $-1 #
coedge $-1 $448 $318 $320 $452 reversed $194 $-1 #
coedge $-1 $318 $447 $446 $570 reversed $194 $-1 #
coedge $-1 $326 $321 $318 $450 forward $327 $-1 #
edge $-1 $453 25.663894411941413 $571 33.014922467683931 $449 $572 forward 7 unknown #
coedge $-1 $320 $319 $456 $573 reversed $121 $-1 #
edge $-1 $574 -132.05969420453505 $453 -121.66377051009958 $447 $575 forward 7 unknown #
vertex $-1 $322 $576 #
straight-curve $-1 58.678819046525007 -0.64159512973878208 14.416571259765888 0 -1 0 I I #
coedge $-1 $446 $323 $326 $460 reversed $316 $-1 #
coedge $-1 $323 $446 $451 $573 forward $316 $-1 #
vertex $-1 $324 $577 #
straight-curve $-1 66.029847102267524 6.647386041885408 96.913076810169514 0 0 1 I I #
straight-curve $-1 -27.35045710773116 6.647386041885408 100.44584941034032 0.70710677298230451 0 -0.70710678939079041 I I #
edge $-1 $571 -9.2137665608405364 $328 6.647386041885408 $455 $578 forward 7 unknown #
point $-1 66.029847102267524 6.647386041885408 14.416571259765893 #
point $-1 58.678819046525007 6.647386041885408 14.416571259765888 #
edge $-1 $579 1 $579 0 $331 $-1 forward 7 unknown #
vertex $-1 $332 $580 #
ellipse-curve $-1 61.04411276988678 -6.0415360402953517 9.4308368724982508 0.70710678939079041 0 0.70710677298230451 0.70710677298230451 0 -0.70710678939079041 1 I I #
point $-1 63.061439847378551 -6.0415360402953517 10.033950357213135 #
edge $-1 $581 1 $581 0 $335 $-1 forward 7 unknown #
vertex $-1 $336 $582 #
ellipse-curve $-1 61.04411276988678 -1.2831902594775642 9.4308368724982508 0.70710678939079041 0 0.70710677298230451 0.70710677298230451 0 -0.70710678939079041 1 I I #
point $-1 63.061439847378551 -1.2831902594775642 10.033950357213135 #
edge $-1 $583 1 $583 0 $339 $-1 forward 7 unknown #
vertex $-1 $340 $584 #
ellipse-curve $-1 61.04411276988678 3.4751555213402199 9.4308368724982508 0.70710678939079041 0 0.70710677298230451 0.70710677298230451 0 -0.70710678939079041 1 I I #
point $-1 63.061439847378551 3.4751555213402199 10.033950357213135 #
loop $-1 $-1 $351 $343 #
plane-surface $-1 -66.029847102267524 0 0 1 0 0 0 0 -1 forward_v I I I I #
coedge $-1 $478 $346 $348 $482 reversed $223 $-1 #
coedge $-1 $346 $477 $585 $586 reversed $223 $-1 #
coedge $-1 $354 $349 $346 $480 forward $344 $-1 #
edge $-1 $483 -22.95430923441981 $587 -4.8582413306949661 $479 $588 forward 7 unknown #
coedge $-1 $348 $347 $486 $589 reversed $140 $-1 #
edge $-1 $590 1.7372030585532449e-014 $483 22.091219992959491 $477 $591 forward 7 unknown #
vertex $-1 $350 $592 #
straight-curve $-1 -47.93377919854268 -3.0477828093401538 14.416571259765893 0 1 0 I I #
coedge $-1 $585 $351 $354 $490 reversed $475 $-1 #
coedge $-1 $351 $585 $481 $589 forward $475 $-1 #
vertex $-1 $352 $593 #
straight-curve $-1 -66.029847102267524 -12.056350469423542 54.961267825264002 0 0 1 I I #
straight-curve $-1 -66.029847102267539 -12.056350469423542 1.745567858254546 -0.81915203911291934 0 -0.57357644374324357 I I #
edge $-1 $587 0.13478076793707316 $355 12.056350469423542 $485 $594 forward 7 unknown #
point $-1 -66.029847102267524 -12.056350469423542 14.416571259765893 #
point $-1 -47.93377919854268 -12.056350469423542 14.416571259765893 #
edge $-1 $595 1 $595 0 $358 $-1 forward 7 unknown #
vertex $-1 $359 $596 #
ellipse-curve $-1 -56.40823670666186 -9.6720365291262489 7.2619175198973034 -0.57357644374324357 0 0.81915203911291934 0.40957601955645967 0 0.28678822187162178 1 I I #
point $-1 -56.572237130848649 -9.6720365291262489 8.3678577808818453 #
edge $-1 $597 1 $597 0 $362 $-1 forward 7 unknown #
vertex $-1 $363 $598 #
ellipse-curve $-1 -56.40823670666186 -6.0955656186803111 7.2619175198973034 -0.57357644374324357 0 0.81915203911291934 0.40957601955645967 0 0.28678822187162178 1 I I #
point $-1 -56.572237130848649 -6.0955656186803111 8.3678577808818453 #
edge $-1 $599 1 $599 0 $366 $-1 forward 7 unknown #
vertex $-1 $367 $600 #
ellipse-curve $-1 -56.40823670666186 -2.5190947082343698 7.2619175198973034 -0.57357644374324357 0 0.81915203911291934 0.40957601955645967 0 0.28678822187162178 1 I I #
point $-1 -56.572237130848649 -2.5190947082343698 8.3678577808818453 #
loop $-1 $-1 $378 $370 #
plane-surface $-1 -66.029847102267524 0 0 1 0 0 0 0 -1 forward_v I I I I #
coedge $-1 $508 $373 $375 $512 reversed $252 $-1 #
coedge $-1 $373 $507 $601 $602 reversed $252 $-1 #
coedge $-1 $381 $376 $373 $510 forward $371 $-1 #
edge $-1 $513 -22.95430923441981 $603 -4.8582413306949661 $509 $604 forward 7 unknown #
coedge $-1 $375 $374 $516 $605 reversed $159 $-1 #
edge $-1 $606 1.7372030585532449e-014 $513 22.091219992959491 $507 $607 forward 7 unknown #
vertex $-1 $377 $608 #
straight-curve $-1 -47.93377919854268 8.8120046649481978 14.416571259765893 0 1 0 I I #
coedge $-1 $601 $378 $381 $520 reversed $505 $-1 #
coedge $-1 $378 $601 $511 $605 forward $505 $-1 #
vertex $-1 $379 $609 #
straight-curve $-1 -66.029847102267524 11.663224479153161 54.961267825264002 0 0 1 I I #
straight-curve $-1 -66.029847102267539 11.663224479153161 1.745567858254546 -0.81915203911291934 0 -0.57357644374324357 I I #
edge $-1 $603 -23.58479418063963 $382 -11.663224479153161 $515 $610 forward 7 unknown #
point $-1 -66.029847102267524 11.663224479153161 14.416571259765893 #
point $-1 -47.93377919854268 11.663224479153161 14.416571259765893 #
edge $-1 $611 1 $611 0 $385 $-1 forward 7 unknown #
vertex $-1 $386 $612 #
ellipse-curve $-1 -56.40823670666186 14.047538419450447 7.2619175198973034 -0.57357644374324357 0 0.81915203911291934 0.40957601955645967 0 0.28678822187162178 1 I I #
point $-1 -56.572237130848649 14.047538419450447 8.3678577808818453 #
edge $-1 $613 1 $613 0 $389 $-1 forward 7 unknown #
vertex $-1 $390 $614 #
ellipse-curve $-1 -56.40823670666186 17.624009329896388 7.2619175198973034 -0.57357644374324357 0 0.81915203911291934 0.40957601955645967 0 0.28678822187162178 1 I I #
point $-1 -56.572237130848649 17.624009329896388 8.3678577808818453 #
edge $-1 $615 1 $615 0 $393 $-1 forward 7 unknown #
vertex $-1 $394 $616 #
ellipse-curve $-1 -56.40823670666186 21.20048024034233 7.2619175198973034 -0.57357644374324357 0 0.81915203911291934 0.40957601955645967 0 0.28678822187162178 1 I I #
point $-1 -56.572237130848649 21.20048024034233 8.3678577808818453 #
plane-surface $-1 66.029847102267524 0 0 -1 0 0 0 0 1 forward_v I I I I #
coedge $-1 $402 $400 $404 $540 reversed $281 $-1 #
edge $-1 $415 -14.416571259765893 $542 14.416571259765893 $414 $617 forward 7 unknown #
vertex $-1 $540 $618 #
straight-curve $-1 -66.029847102267524 -35.163860864585047 0 0 0 -1 I I #
edge $-1 $538 -35.163860864585047 $542 35.163860864585047 $536 $619 forward 7 unknown #
straight-curve $-1 0 -35.163860864585047 -14.416571259765893 -1 0 0 I I #
vertex $-1 $407 $620 #
straight-curve $-1 0 35.163860864585047 -14.416571259765893 1 0 0 I I #
point $-1 66.029847102267524 35.163860864585047 -14.416571259765893 #
point $-1 66.029847102267524 -35.163860864585047 -14.416571259765893 #
straight-curve $-1 -66.029847102267524 0 14.416571259765893 0 -1 0 I I #
point $-1 -66.029847102267524 35.163860864585047 14.416571259765893 #
point $-1 -66.029847102267524 -35.163860864585047 14.416571259765893 #
straight-curve $-1 66.029847102267524 -35.163860864585047 0 0 0 -1 I I #
straight-curve $-1 66.029847102267524 35.163860864585047 0 0 0 -1 I I #
loop $-1 $-1 $559 $424 #
plane-surface $-1 -66.029847102267524 0 0 1 0 0 0 0 -1 forward_v I I I I #
coedge $-1 $428 $427 $565 $621 forward $186 $-1 #
edge $-1 $432 23.635417153368962 $568 35.163860864585047 $431 $622 forward 7 unknown #
coedge $-1 $562 $559 $428 $556 reversed $551 $-1 #
edge $-1 $623 -35.163860864585047 $557 -23.635417153368962 $555 $624 forward 7 unknown #
vertex $-1 $560 $625 #
straight-curve $-1 0 -23.635417153368962 -14.416571259765893 1 0 0 I I #
coedge $-1 $555 $434 $430 $560 forward $551 $-1 #
edge $-1 $436 2.6531867579067132 $557 8.7266519205416913 $559 $626 forward 7 unknown #
point $-1 66.029847102267524 -23.635417153368962 -14.416571259765893 #
coedge $-1 $434 $555 $438 $566 reversed $551 $-1 #
straight-curve $-1 -66.029847102267524 -14.699819504488502 -8.3431060971309154 0 1 0 I I #
point $-1 -66.029847102267524 -23.635417153368962 -8.3431060971309154 #
coedge $-1 $439 $438 $553 $621 reversed $425 $-1 #
edge $-1 $440 8.3431060971309154 $623 14.416571259765893 $562 $627 forward 7 unknown #
point $-1 -66.029847102267524 -35.163860864585047 -8.3431060971309154 #
vertex $-1 $442 $628 #
straight-curve $-1 66.029847102267524 -35.163860864585047 0 0 0 -1 I I #
edge $-1 $571 82.496505550403626 $574 89.847533776727516 $446 $629 forward 7 unknown #
vertex $-1 $460 $630 #
straight-curve $-1 33.014924634583593 -9.2137665608405364 14.416571259765888 1 0 0 I I #
edge $-1 $574 -8.5721714311017543 $457 7.2889811716241901 $456 $631 forward 7 unknown #
vertex $-1 $573 $632 #
straight-curve $-1 -27.35045710773116 -9.2137665608405364 100.44584941034032 -0.70710677298230451 0 0.70710678939079041 I I #
point $-1 58.678819046525007 -9.2137665608405364 14.416571259765888 #
point $-1 66.029847102267539 6.647386041885408 7.0655430334419975 #
straight-curve $-1 66.029847102267524 0 14.416571259765893 0 1 0 I I #
vertex $-1 $463 $633 #
point $-1 61.75121954286908 -6.0415360402953517 8.7237300831074602 #
vertex $-1 $467 $634 #
point $-1 61.75121954286908 -1.2831902594775642 8.7237300831074602 #
vertex $-1 $471 $635 #
point $-1 61.75121954286908 3.4751555213402199 8.7237300831074602 #
coedge $-1 $486 $485 $478 $586 forward $475 $-1 #
edge $-1 $587 40.544696565498107 $590 53.215699967009449 $585 $636 forward 7 unknown #
vertex $-1 $490 $637 #
straight-curve $-1 -70.888088432962491 -0.13478076793707316 14.416571259765895 -1 0 0 I I #
edge $-1 $590 -2.9130020414030806 $487 9.0085676600833882 $486 $638 forward 7 unknown #
vertex $-1 $589 $639 #
straight-curve $-1 -66.029847102267539 -0.13478076793707316 1.745567858254546 0.81915203911291934 0 0.57357644374324357 I I #
point $-1 -47.93377919854268 -0.13478076793707316 14.416571259765893 #
point $-1 -66.029847102267524 -12.056350469423542 1.745567858254556 #
straight-curve $-1 -66.029847102267524 0 14.416571259765893 0 -1 0 I I #
vertex $-1 $493 $640 #
point $-1 -55.998660687105399 -9.6720365291262489 7.5487057417689254 #
vertex $-1 $497 $641 #
point $-1 -55.998660687105399 -6.0955656186803111 7.5487057417689254 #
vertex $-1 $501 $642 #
point $-1 -55.998660687105399 -2.5190947082343698 7.5487057417689254 #
coedge $-1 $516 $515 $508 $602 forward $505 $-1 #
edge $-1 $603 40.544696565498107 $606 53.215699967009449 $601 $643 forward 7 unknown #
vertex $-1 $520 $644 #
straight-curve $-1 -70.888088432962491 23.58479418063963 14.416571259765895 -1 0 0 I I #
edge $-1 $606 -14.772789515691432 $517 -2.8512198142049634 $516 $645 forward 7 unknown #
vertex $-1 $605 $646 #
straight-curve $-1 -66.029847102267539 23.58479418063963 1.745567858254546 0.81915203911291934 0 0.57357644374324357 I I #
point $-1 -47.93377919854268 23.58479418063963 14.416571259765893 #
point $-1 -66.029847102267524 11.663224479153161 1.745567858254556 #
straight-curve $-1 -66.029847102267524 0 14.416571259765893 0 -1 0 I I #
vertex $-1 $523 $647 #
point $-1 -55.998660687105399 14.047538419450447 7.5487057417689254 #
vertex $-1 $527 $648 #
point $-1 -55.998660687105399 17.624009329896388 7.5487057417689254 #
vertex $-1 $531 $649 #
point $-1 -55.998660687105399 21.20048024034233 7.5487057417689254 #
straight-curve $-1 -66.029847102267524 35.163860864585047 0 0 0 -1 I I #
point $-1 -66.029847102267524 -35.163860864585047 -14.416571259765893 #
straight-curve $-1 -66.029847102267524 0 -14.416571259765893 0 1 0 I I #
point $-1 -66.029847102267524 35.163860864585047 -14.416571259765893 #
edge $-1 $568 -66.029847102267524 $623 66.029847102267524 $565 $650 forward 7 unknown #
straight-curve $-1 66.029847102267524 0 -14.416571259765893 0 -1 0 I I #
vertex $-1 $556 $651 #
straight-curve $-1 -66.029847102267524 0 -14.416571259765893 0 1 0 I I #
point $-1 -66.029847102267524 -23.635417153368962 -14.416571259765893 #
straight-curve $-1 -66.029847102267524 -23.635417153368962 -5.6899193392242022 0 0 -1 I I #
straight-curve $-1 -66.029847102267524 -35.163860864585047 0 0 0 -1 I I #
point $-1 66.029847102267524 -35.163860864585047 -14.416571259765893 #
straight-curve $-1 66.029847102267524 -9.2137665608405364 96.913076810169514 0 0 -1 I I #
point $-1 66.029847102267524 -9.2137665608405364 14.416571259765893 #
straight-curve $-1 66.029847102267524 -0.64159512973878208 7.0655430334420046 0 1 0 I I #
point $-1 66.029847102267539 -9.2137665608405364 7.0655430334419975 #
point $-1 60.337005980495988 -6.0415360402953517 8.7237300995159472 #
point $-1 60.337005980495988 -1.2831902594775642 8.7237300995159472 #
point $-1 60.337005980495988 3.4751555213402199 8.7237300995159472 #
straight-curve $-1 -66.029847102267524 -0.13478076793707316 54.961267825264002 0 0 -1 I I #
point $-1 -66.029847102267524 -0.13478076793707316 14.416571259765893 #
straight-curve $-1 -66.029847102267524 -3.0477828093401538 1.7455678582545497 0 -1 0 I I #
point $-1 -66.029847102267524 -0.13478076793707316 1.745567858254556 #
point $-1 -56.121448484790243 -9.6720365291262489 6.8523415003408443 #
point $-1 -56.121448484790243 -6.0955656186803111 6.8523415003408443 #
point $-1 -56.121448484790243 -2.5190947082343698 6.8523415003408443 #
straight-curve $-1 -66.029847102267524 23.58479418063963 54.961267825264002 0 0 -1 I I #
point $-1 -66.029847102267524 23.58479418063963 14.416571259765893 #
straight-curve $-1 -66.029847102267524 8.8120046649481978 1.7455678582545497 0 -1 0 I I #
point $-1 -66.029847102267524 23.58479418063963 1.745567858254556 #
point $-1 -56.121448484790243 14.047538419450447 6.8523415003408443 #
point $-1 -56.121448484790243 17.624009329896388 6.8523415003408443 #
point $-1 -56.121448484790243 21.20048024034233 6.8523415003408443 #
straight-curve $-1 0 -35.163860864585047 -14.416571259765893 -1 0 0 I I #
point $-1 -66.029847102267524 -35.163860864585047 -14.416571259765893 #
End-of-ACIS-data 