500 0 5 0           
7 Unknown 11 ACIS 5.0 NT 24 Fri Mar 26 15:22:49 1999 
-1 9.9999999999999995e-007 1e-010 
body $-1 $5 $-1 $6 #
body $-1 $7 $-1 $8 #
body $-1 $9 $-1 $10 #
body $-1 $11 $-1 $12 #
body $-1 $13 $-1 $14 #
lump $-1 $-1 $15 $0 #
transform $-1 1 0 0 0 1 0 0 0 1 52.72499771111179 31.179465716970864 14.703363269711412 1 rotate no_reflect no_shear #
lump $-1 $-1 $16 $1 #
transform $-1 1 0 0 0 1 0 0 0 1 52.72499771111179 31.179465716970864 14.703363269711412 1 rotate no_reflect no_shear #
lump $-1 $-1 $17 $2 #
transform $-1 1 0 0 0 1 0 0 0 1 52.72499771111179 31.179465716970864 14.703363269711412 1 rotate no_reflect no_shear #
lump $-1 $-1 $18 $3 #
transform $-1 1 0 0 0 1 0 0 0 1 52.72499771111179 31.179465716970864 14.703363269711412 1 rotate no_reflect no_shear #
lump $-1 $-1 $19 $4 #
transform $-1 1 0 0 0 1 0 0 0 1 52.72499771111179 31.179465716970864 14.703363269711412 1 rotate no_reflect no_shear #
shell $-1 $-1 $-1 $20 $-1 $5 #
shell $-1 $-1 $-1 $21 $-1 $7 #
shell $-1 $-1 $-1 $22 $-1 $9 #
shell $-1 $-1 $-1 $23 $-1 $11 #
shell $-1 $-1 $-1 $24 $-1 $13 #
face $-1 $25 $26 $15 $-1 $27 forward single #
face $-1 $28 $29 $16 $-1 $30 forward single #
face $-1 $31 $32 $17 $-1 $33 reversed single #
face $-1 $34 $35 $18 $-1 $36 forward single #
face $-1 $37 $38 $19 $-1 $39 forward single #
face $-1 $40 $41 $15 $-1 $42 reversed single #
loop $-1 $-1 $43 $20 #
plane-surface $-1 0 0 14.703363269711412 0 0 1 1 0 0 forward_v I I I I #
face $-1 $44 $45 $16 $-1 $46 forward single #
loop $-1 $-1 $47 $21 #
plane-surface $-1 0 -31.179465716970864 0 0 1 0 0 0 1 forward_v I I I I #
face $-1 $48 $49 $17 $-1 $50 reversed single #
loop $-1 $-1 $51 $22 #
plane-surface $-1 -37.343078612030332 71.875301747716861 123.4543886602853 -1 0 0 0 0.7660444514056185 0.64278759981090561 forward_v I I I I #
face $-1 $52 $53 $18 $-1 $54 forward single #
loop $-1 $55 $56 $23 #
cone-surface $-1 -48.330163682802805 27.193546195922927 10.352585161403121 0 -0.7660444514056185 -0.64278759981090561 2 0 0 1 I I 0 1 2 forward I I I I #
face $-1 $57 $58 $19 $-1 $59 forward single #
loop $-1 $60 $61 $24 #
cone-surface $-1 -41.737912640339317 27.193546195922927 10.352585161403121 0 -0.7660444514056185 -0.64278759981090561 2 0 0 1 I I 0 1 2 forward I I I I #
face $-1 $62 $63 $15 $-1 $64 reversed single #
loop $-1 $-1 $65 $25 #
plane-surface $-1 0 0 -14.703363269711412 0 0 1 1 0 0 forward_v I I I I #
coedge $-1 $66 $67 $68 $69 forward $26 $-1 #
face $-1 $70 $71 $16 $-1 $72 reversed single #
loop $-1 $-1 $73 $28 #
plane-surface $-1 0 0 14.703363269711412 0 0 1 1 0 0 forward_v I I I I #
coedge $-1 $74 $75 $76 $77 forward $29 $-1 #
face $-1 $78 $79 $17 $-1 $80 reversed single #
loop $-1 $-1 $81 $31 #
plane-surface $-1 -45.034038161571061 -8.9040821462253774 55.672439202763229 0 0.7660444514056185 0.64278759981090561 1 0 0 forward_v I I I I #
coedge $-1 $82 $83 $84 $85 reversed $32 $-1 #
face $-1 $-1 $86 $18 $-1 $87 forward single #
loop $-1 $88 $89 $34 #
cone-surface $-1 -48.330163682802805 25.294788352535935 8.7593381970352464 0 -0.7660444514056185 -0.64278759981090561 1 0 0 1 I I -0.70710678118654746 0.70710678118654746 1 forward I I I I #
loop $-1 $-1 $90 $23 #
coedge $-1 $56 $56 $91 $92 reversed $35 $-1 #
face $-1 $-1 $93 $19 $-1 $94 forward single #
loop $-1 $95 $96 $37 #
cone-surface $-1 -41.737912640339317 25.294788352535935 8.7593381970352464 0 -0.7660444514056185 -0.64278759981090561 1 0 0 1 I I -0.70710678118654746 0.70710678118654746 1 forward I I I I #
loop $-1 $-1 $97 $24 #
coedge $-1 $61 $61 $98 $99 reversed $38 $-1 #
face $-1 $100 $101 $15 $-1 $102 reversed single #
loop $-1 $-1 $103 $40 #
plane-surface $-1 0 -31.179465716970864 0 0 1 0 0 0 1 forward_v I I I I #
coedge $-1 $104 $105 $106 $107 forward $41 $-1 #
coedge $-1 $108 $43 $109 $110 forward $26 $-1 #
coedge $-1 $43 $108 $111 $112 forward $26 $-1 #
coedge $-1 $113 $114 $43 $69 reversed $115 $-1 #
edge $-1 $116 -31.179465716970864 $117 31.179465716970864 $68 $118 forward 7 unknown #
face $-1 $119 $120 $16 $-1 $121 reversed single #
loop $-1 $-1 $122 $44 #
plane-surface $-1 -52.72499771111179 0 0 1 0 0 0 0 -1 forward_v I I I I #
coedge $-1 $123 $124 $125 $126 forward $45 $-1 #
coedge $-1 $125 $47 $122 $127 reversed $29 $-1 #
coedge $-1 $47 $125 $128 $129 reversed $29 $-1 #
coedge $-1 $130 $131 $47 $77 reversed $120 $-1 #
edge $-1 $132 -52.72499771111179 $133 52.72499771111179 $76 $134 forward 7 unknown #
face $-1 $135 $136 $17 $-1 $137 forward single #
loop $-1 $-1 $84 $48 #
plane-surface $-1 0 31.179465716970864 0 0 -1 0 0 0 -1 forward_v I I I I #
coedge $-1 $138 $139 $140 $141 reversed $49 $-1 #
coedge $-1 $83 $51 $142 $143 reversed $32 $-1 #
coedge $-1 $51 $82 $138 $144 reversed $32 $-1 #
coedge $-1 $140 $145 $51 $85 forward $79 $-1 #
edge $-1 $146 47.023831060431242 $147 53.824468547933897 $84 $148 forward 7 unknown #
loop $-1 $-1 $91 $52 #
plane-surface $-1 -45.034038161571061 -8.9040821462253774 55.672439202763229 0 0.7660444514056185 0.64278759981090561 1 0 0 forward_v I I I I #
loop $-1 $-1 $149 $34 #
coedge $-1 $89 $89 $90 $150 reversed $53 $-1 #
coedge $-1 $90 $90 $89 $150 forward $55 $-1 #
coedge $-1 $91 $91 $56 $92 forward $86 $-1 #
edge $-1 $151 2.4248784760307189e-016 $151 6.2831853071796004 $91 $152 forward 7 unknown #
loop $-1 $-1 $98 $57 #
plane-surface $-1 -45.034038161571061 -8.9040821462253774 55.672439202763229 0 0.7660444514056185 0.64278759981090561 1 0 0 forward_v I I I I #
loop $-1 $-1 $153 $37 #
coedge $-1 $96 $96 $97 $154 reversed $58 $-1 #
coedge $-1 $97 $97 $96 $154 forward $60 $-1 #
coedge $-1 $98 $98 $61 $99 forward $93 $-1 #
edge $-1 $155 2.4248784760307189e-016 $155 6.2831853071796004 $98 $156 forward 7 unknown #
face $-1 $157 $158 $15 $-1 $159 reversed single #
loop $-1 $-1 $160 $62 #
plane-surface $-1 -52.72499771111179 0 0 1 0 0 0 0 -1 forward_v I I I I #
coedge $-1 $161 $111 $162 $163 forward $63 $-1 #
coedge $-1 $164 $65 $161 $165 forward $41 $-1 #
coedge $-1 $65 $164 $166 $167 forward $41 $-1 #
coedge $-1 $114 $113 $65 $107 reversed $115 $-1 #
edge $-1 $168 -31.179465716970864 $169 31.179465716970864 $106 $170 forward 7 unknown #
coedge $-1 $67 $66 $171 $172 forward $26 $-1 #
coedge $-1 $173 $174 $66 $110 reversed $158 $-1 #
edge $-1 $117 -52.72499771111179 $175 52.72499771111179 $109 $176 forward 7 unknown #
coedge $-1 $103 $177 $67 $112 reversed $63 $-1 #
edge $-1 $178 -52.72499771111179 $116 52.72499771111179 $111 $179 forward 7 unknown #
coedge $-1 $106 $68 $177 $180 forward $115 $-1 #
coedge $-1 $68 $106 $173 $181 reversed $115 $-1 #
loop $-1 $-1 $113 $157 #
vertex $-1 $69 $182 #
vertex $-1 $69 $183 #
straight-curve $-1 52.72499771111179 0 14.703363269711412 0 1 0 I I #
face $-1 $184 $185 $16 $-1 $186 reversed single #
loop $-1 $-1 $130 $70 #
plane-surface $-1 0 -40.504602821998674 10.451516950981484 0 0 1 1 0 0 forward_v I I I I #
coedge $-1 $187 $188 $74 $127 forward $71 $-1 #
coedge $-1 $189 $73 $188 $190 forward $45 $-1 #
coedge $-1 $73 $189 $191 $192 forward $45 $-1 #
coedge $-1 $75 $74 $73 $126 reversed $29 $-1 #
edge $-1 $193 -52.72499771111179 $194 52.72499771111179 $73 $195 forward 7 unknown #
edge $-1 $194 -14.703363269711412 $133 -10.451516950981484 $122 $196 forward 7 unknown #
coedge $-1 $191 $197 $75 $129 forward $198 $-1 #
edge $-1 $132 10.451516950981484 $193 14.703363269711412 $128 $199 forward 7 unknown #
coedge $-1 $200 $76 $197 $201 forward $120 $-1 #
coedge $-1 $76 $200 $187 $202 forward $120 $-1 #
vertex $-1 $129 $203 #
vertex $-1 $127 $204 #
straight-curve $-1 0 -31.179465716970864 10.451516950981484 -1 0 0 I I #
face $-1 $-1 $205 $17 $-1 $206 reversed single #
loop $-1 $-1 $142 $78 #
plane-surface $-1 0 0 14.703363269711412 0 0 1 1 0 0 forward_v I I I I #
coedge $-1 $207 $81 $83 $144 forward $49 $-1 #
coedge $-1 $81 $207 $208 $209 reversed $49 $-1 #
coedge $-1 $210 $84 $81 $141 forward $79 $-1 #
edge $-1 $147 14.826059531244802 $211 30.207978630326259 $140 $212 forward 7 unknown #
coedge $-1 $213 $214 $82 $143 forward $136 $-1 #
edge $-1 $215 -10.464597415020705 $146 -4.758185156887567 $142 $216 forward 7 unknown #
edge $-1 $147 -62.358931433941756 $215 -53.481329781682362 $83 $217 forward 7 unknown #
coedge $-1 $84 $210 $213 $218 reversed $79 $-1 #
vertex $-1 $218 $219 #
vertex $-1 $85 $220 #
straight-curve $-1 -37.343078612030332 31.179465716970864 61.727194330142652 0 0 -1 I I #
coedge $-1 $149 $149 $-1 $221 reversed $88 $-1 #
edge $-1 $222 0 $222 6.2831853071796004 $89 $223 forward 7 unknown #
vertex $-1 $92 $224 #
ellipse-curve $-1 -48.330163682802805 28.326259587904293 11.303044525960084 0 0.7660444514056185 0.64278759981090561 2 0 0 1 I I #
coedge $-1 $153 $153 $-1 $225 reversed $95 $-1 #
edge $-1 $226 0 $226 6.2831853071796004 $96 $227 forward 7 unknown #
vertex $-1 $99 $228 #
ellipse-curve $-1 -41.737912640339317 28.326259587904293 11.303044525960084 0 0.7660444514056185 0.64278759981090561 2 0 0 1 I I #
face $-1 $-1 $115 $15 $-1 $229 reversed single #
loop $-1 $-1 $173 $100 #
plane-surface $-1 0 31.179465716970864 0 0 -1 0 0 0 -1 forward_v I I I I #
coedge $-1 $230 $171 $174 $231 forward $101 $-1 #
coedge $-1 $177 $103 $104 $165 reversed $63 $-1 #
coedge $-1 $171 $230 $103 $163 reversed $101 $-1 #
edge $-1 $178 -14.703363269711412 $232 14.703363269711412 $162 $233 forward 7 unknown #
coedge $-1 $105 $104 $230 $234 forward $41 $-1 #
edge $-1 $169 -52.72499771111179 $232 52.72499771111179 $161 $235 forward 7 unknown #
coedge $-1 $174 $173 $105 $167 reversed $158 $-1 #
edge $-1 $236 -52.72499771111179 $168 52.72499771111179 $166 $237 forward 7 unknown #
vertex $-1 $107 $238 #
vertex $-1 $180 $239 #
straight-curve $-1 52.72499771111179 0 -14.703363269711412 0 -1 0 I I #
coedge $-1 $160 $162 $108 $172 reversed $101 $-1 #
edge $-1 $175 -31.179465716970864 $178 31.179465716970864 $171 $240 forward 7 unknown #
coedge $-1 $166 $109 $114 $181 forward $158 $-1 #
coedge $-1 $109 $166 $160 $231 reversed $158 $-1 #
vertex $-1 $110 $241 #
straight-curve $-1 0 31.179465716970864 14.703363269711412 -1 0 0 I I #
coedge $-1 $111 $161 $113 $180 reversed $63 $-1 #
vertex $-1 $172 $242 #
straight-curve $-1 0 -31.179465716970864 14.703363269711412 1 0 0 I I #
edge $-1 $116 -14.703363269711412 $169 14.703363269711412 $113 $243 forward 7 unknown #
edge $-1 $117 -14.703363269711412 $168 14.703363269711412 $114 $244 forward 7 unknown #
point $-1 52.72499771111179 -31.179465716970864 14.703363269711412 #
point $-1 52.72499771111179 31.179465716970864 14.703363269711412 #
face $-1 $-1 $198 $16 $-1 $245 reversed single #
loop $-1 $-1 $246 $119 #
plane-surface $-1 0 -49.82973992702648 12.577440110346446 0 1 0 0 0 1 forward_v I I I I #
coedge $-1 $247 $122 $131 $202 reversed $71 $-1 #
coedge $-1 $122 $247 $123 $190 reversed $71 $-1 #
coedge $-1 $124 $123 $248 $249 forward $45 $-1 #
edge $-1 $194 31.179465716970864 $250 49.82973992702648 $188 $251 forward 7 unknown #
coedge $-1 $252 $128 $124 $192 reversed $198 $-1 #
edge $-1 $253 -49.82973992702648 $193 -31.179465716970864 $191 $254 forward 7 unknown #
vertex $-1 $129 $255 #
vertex $-1 $190 $256 #
straight-curve $-1 0 -31.179465716970864 14.703363269711412 -1 0 0 I I #
straight-curve $-1 -52.72499771111179 -31.179465716970864 0 0 0 -1 I I #
coedge $-1 $128 $252 $130 $201 reversed $198 $-1 #
loop $-1 $-1 $128 $184 #
straight-curve $-1 52.72499771111179 -31.179465716970864 0 0 0 1 I I #
coedge $-1 $131 $130 $257 $258 forward $120 $-1 #
edge $-1 $132 -9.3251371050278067 $259 9.3251371050278067 $197 $260 forward 7 unknown #
edge $-1 $261 -9.3251371050278067 $133 9.3251371050278067 $187 $262 forward 7 unknown #
point $-1 52.72499771111179 -31.179465716970867 10.451516950981484 #
point $-1 -52.72499771111179 -31.179465716970867 10.451516950981484 #
loop $-1 $-1 $208 $135 #
plane-surface $-1 -52.72499771111179 0 0 1 0 0 0 0 -1 forward_v I I I I #
coedge $-1 $139 $138 $214 $263 reversed $49 $-1 #
coedge $-1 $264 $265 $139 $209 forward $205 $-1 #
edge $-1 $211 -38.173433064549357 $266 -29.295831412289971 $208 $267 forward 7 unknown #
coedge $-1 $145 $140 $265 $268 reversed $79 $-1 #
vertex $-1 $141 $269 #
straight-curve $-1 -22.517019080785531 31.179465716970864 7.9027257822087513 -1 0 0 I I #
coedge $-1 $270 $142 $145 $218 forward $136 $-1 #
coedge $-1 $142 $270 $207 $263 forward $136 $-1 #
vertex $-1 $143 $271 #
straight-curve $-1 -37.343078612030332 35.937650873858431 14.70336326971141 0 1 0 I I #
straight-curve $-1 -37.343078612030332 -8.9040821462253774 55.672439202763229 0 -0.64278759981090561 0.7660444514056185 I I #
edge $-1 $146 37.343078612030332 $272 52.72499771111179 $145 $273 forward 7 unknown #
point $-1 -37.343078612030332 31.179465716970864 14.703363269711412 #
point $-1 -37.343078612030332 31.179465716970867 7.9027257822087549 #
edge $-1 $274 1 $274 0 $149 $-1 forward 7 unknown #
vertex $-1 $150 $275 #
ellipse-curve $-1 -48.330163682802805 26.060832803941555 9.4021257968461516 0 0.7660444514056185 0.64278759981090561 2 0 0 1 I I #
point $-1 -46.330163682802805 28.3262595879043 11.30304452596009 #
edge $-1 $276 1 $276 0 $153 $-1 forward 7 unknown #
vertex $-1 $154 $277 #
ellipse-curve $-1 -41.737912640339317 26.060832803941555 9.4021257968461516 0 0.7660444514056185 0.64278759981090561 2 0 0 1 I I #
point $-1 -39.737912640339317 28.3262595879043 11.30304452596009 #
plane-surface $-1 52.72499771111179 0 0 -1 0 0 0 0 1 forward_v I I I I #
coedge $-1 $162 $160 $164 $234 reversed $101 $-1 #
edge $-1 $175 -14.703363269711412 $236 14.703363269711412 $174 $278 forward 7 unknown #
vertex $-1 $234 $279 #
straight-curve $-1 -52.72499771111179 -31.179465716970864 0 0 0 -1 I I #
edge $-1 $232 -31.179465716970864 $236 31.179465716970864 $230 $280 forward 7 unknown #
straight-curve $-1 0 -31.179465716970864 -14.703363269711412 -1 0 0 I I #
vertex $-1 $167 $281 #
straight-curve $-1 0 31.179465716970864 -14.703363269711412 1 0 0 I I #
point $-1 52.72499771111179 31.179465716970864 -14.703363269711412 #
point $-1 52.72499771111179 -31.179465716970864 -14.703363269711412 #
straight-curve $-1 -52.72499771111179 0 14.703363269711412 0 -1 0 I I #
point $-1 -52.72499771111179 31.179465716970864 14.703363269711412 #
point $-1 -52.72499771111179 -31.179465716970864 14.703363269711412 #
straight-curve $-1 52.72499771111179 -31.179465716970864 0 0 0 -1 I I #
straight-curve $-1 52.72499771111179 31.179465716970864 0 0 0 -1 I I #
plane-surface $-1 52.72499771111179 0 0 -1 0 0 0 0 1 forward_v I I I I #
coedge $-1 $257 $248 $247 $282 forward $185 $-1 #
coedge $-1 $188 $187 $246 $282 reversed $71 $-1 #
coedge $-1 $246 $283 $189 $249 reversed $185 $-1 #
edge $-1 $250 -52.72499771111179 $253 52.72499771111179 $248 $284 forward 7 unknown #
vertex $-1 $190 $285 #
straight-curve $-1 -52.72499771111179 0 14.703363269711412 0 -1 0 I I #
coedge $-1 $197 $191 $283 $286 forward $198 $-1 #
vertex $-1 $192 $287 #
straight-curve $-1 52.72499771111179 0 14.703363269711412 0 1 0 I I #
point $-1 52.72499771111179 -31.179465716970864 14.703363269711412 #
point $-1 -52.72499771111179 -31.179465716970864 14.703363269711412 #
coedge $-1 $283 $246 $200 $258 reversed $185 $-1 #
edge $-1 $259 -52.72499771111179 $261 52.72499771111179 $257 $288 forward 7 unknown #
vertex $-1 $286 $289 #
straight-curve $-1 52.72499771111179 -40.504602821998674 10.451516950981484 0 -1 0 I I #
vertex $-1 $202 $290 #
straight-curve $-1 -52.72499771111179 -40.504602821998674 10.451516950981484 0 1 0 I I #
edge $-1 $266 -30.207978630326259 $215 -14.826059531244802 $214 $291 forward 7 unknown #
coedge $-1 $265 $208 $270 $292 reversed $205 $-1 #
coedge $-1 $208 $264 $210 $268 forward $205 $-1 #
vertex $-1 $209 $293 #
straight-curve $-1 -52.72499771111179 6.6420563008669209 37.14527237241056 0 -0.64278759981090572 0.76604445140561861 I I #
edge $-1 $272 -14.703363269711412 $211 -7.902725782208754 $210 $294 forward 7 unknown #
point $-1 -52.72499771111179 31.179465716970864 7.902725782208754 #
coedge $-1 $214 $213 $264 $292 forward $136 $-1 #
point $-1 -37.343078612030332 25.473053458837725 14.70336326971141 #
vertex $-1 $218 $295 #
straight-curve $-1 0 31.179465716970864 14.703363269711412 -1 0 0 I I #
vertex $-1 $221 $296 #
point $-1 -46.330163682802805 26.060832803941555 9.4021257968461516 #
vertex $-1 $225 $297 #
point $-1 -39.737912640339317 26.060832803941555 9.4021257968461516 #
straight-curve $-1 -52.72499771111179 31.179465716970864 0 0 0 -1 I I #
point $-1 -52.72499771111179 -31.179465716970864 -14.703363269711412 #
straight-curve $-1 -52.72499771111179 0 -14.703363269711412 0 1 0 I I #
point $-1 -52.72499771111179 31.179465716970864 -14.703363269711412 #
edge $-1 $250 -2.1259231593649623 $261 2.1259231593649623 $247 $298 forward 7 unknown #
coedge $-1 $248 $257 $252 $286 reversed $185 $-1 #
straight-curve $-1 0 -49.82973992702648 14.703363269711408 1 0 0 I I #
point $-1 -52.72499771111179 -49.82973992702648 14.703363269711408 #
edge $-1 $253 -2.1259231593649623 $259 2.1259231593649623 $252 $299 forward 7 unknown #
point $-1 52.72499771111179 -49.82973992702648 14.703363269711408 #
straight-curve $-1 0 -49.82973992702648 10.451516950981484 -1 0 0 I I #
point $-1 52.72499771111179 -49.82973992702648 10.451516950981484 #
point $-1 -52.72499771111179 -49.82973992702648 10.451516950981484 #
straight-curve $-1 -22.517019080785531 25.473053458837725 14.703363269711407 1 0 0 I I #
edge $-1 $272 -31.179465716970864 $266 -25.473053458837725 $264 $300 forward 7 unknown #
point $-1 -52.72499771111179 25.473053458837725 14.70336326971141 #
straight-curve $-1 -52.72499771111179 31.179465716970864 0 0 0 -1 I I #
point $-1 -52.72499771111179 31.179465716970864 14.703363269711412 #
point $-1 -48.330163682802805 24.528743901130316 8.1165505972243412 #
point $-1 -41.737912640339317 24.528743901130316 8.1165505972243412 #
straight-curve $-1 -52.72499771111179 -49.82973992702648 12.577440110346446 0 0 -1 I I #
straight-curve $-1 52.72499771111179 -49.82973992702648 12.577440110346446 0 0 -1 I I #
straight-curve $-1 -52.72499771111179 0 14.703363269711412 0 -1 0 I I #
End-of-ACIS-data 