500 0 5 0           
7 Unknown 11 ACIS 5.0 NT 24 Fri Mar 26 02:15:11 1999 
-1 9.9999999999999995e-007 1e-010 
body $-1 $5 $-1 $6 #
body $-1 $7 $-1 $8 #
body $-1 $9 $-1 $10 #
body $-1 $11 $-1 $12 #
body $-1 $13 $-1 $14 #
lump $-1 $-1 $15 $0 #
transform $-1 1 0 0 0 1 0 0 0 1 62.780236213263343 33.451115454408622 16.574876107249153 1 rotate no_reflect no_shear #
lump $-1 $-1 $16 $1 #
transform $-1 1 0 0 0 1 0 0 0 1 62.780236213263343 33.451115454408622 16.574876107249153 1 rotate no_reflect no_shear #
lump $-1 $-1 $17 $2 #
transform $-1 1 0 0 0 1 0 0 0 1 62.780236213263343 33.451115454408622 16.574876107249153 1 rotate no_reflect no_shear #
lump $-1 $-1 $18 $3 #
transform $-1 1 0 0 0 1 0 0 0 1 62.780236213263343 33.451115454408622 16.574876107249153 1 rotate no_reflect no_shear #
lump $-1 $-1 $19 $4 #
transform $-1 1 0 0 0 1 0 0 0 1 62.780236213263343 33.451115454408622 16.574876107249153 1 rotate no_reflect no_shear #
shell $-1 $-1 $-1 $20 $-1 $5 #
shell $-1 $-1 $-1 $21 $-1 $7 #
shell $-1 $-1 $-1 $22 $-1 $9 #
shell $-1 $-1 $-1 $23 $-1 $11 #
shell $-1 $-1 $-1 $24 $-1 $13 #
face $-1 $25 $26 $15 $-1 $27 reversed single #
face $-1 $28 $29 $16 $-1 $30 forward single #
face $-1 $31 $32 $17 $-1 $33 forward single #
face $-1 $34 $35 $18 $-1 $36 reversed single #
face $-1 $37 $38 $19 $-1 $39 forward single #
face $-1 $40 $41 $15 $-1 $42 reversed single #
loop $-1 $-1 $43 $20 #
plane-surface $-1 0 33.451115454408622 0 0 -1 0 0 0 -1 forward_v I I I I #
face $-1 $44 $45 $16 $-1 $46 reversed single #
loop $-1 $-1 $47 $21 #
plane-surface $-1 0 -33.451115454408622 0 0 1 0 0 0 1 forward_v I I I I #
face $-1 $48 $49 $17 $-1 $50 reversed single #
loop $-1 $-1 $51 $22 #
plane-surface $-1 0 33.451115454408622 0 0 -1 0 0 0 -1 forward_v I I I I #
face $-1 $52 $53 $18 $-1 $54 reversed single #
loop $-1 $-1 $55 $23 #
plane-surface $-1 22.835831212006731 -1.325436514694033 174.38288782939281 0 -1 0 -0.52991927123019833 0 -0.84804809178421925 forward_v I I I I #
face $-1 $56 $57 $19 $-1 $58 forward single #
loop $-1 $59 $60 $24 #
cone-surface $-1 49.543923358645536 -5.4260521656953813 7.2644620165445914 -0.52991927123019833 0 -0.84804809178421925 1.2720721376763289 0 -0.79487890684529749 1 I I 0 1 1.5 forward I I I I #
face $-1 $61 $62 $15 $-1 $63 forward single #
loop $-1 $-1 $64 $25 #
plane-surface $-1 0 -33.451115454408622 0 0 1 0 0 0 1 forward_v I I I I #
coedge $-1 $65 $66 $67 $68 reversed $26 $-1 #
face $-1 $69 $70 $16 $-1 $71 reversed single #
loop $-1 $-1 $72 $28 #
plane-surface $-1 0 0 -16.574876107249153 0 0 1 1 0 0 forward_v I I I I #
coedge $-1 $73 $74 $75 $76 forward $29 $-1 #
face $-1 $77 $78 $17 $-1 $79 reversed single #
loop $-1 $-1 $80 $31 #
plane-surface $-1 0 0 -16.574876107249153 0 0 1 1 0 0 forward_v I I I I #
coedge $-1 $81 $82 $83 $84 forward $32 $-1 #
face $-1 $85 $86 $18 $-1 $87 reversed single #
loop $-1 $-1 $88 $34 #
plane-surface $-1 -43.7010828315777 -5.4260521656953813 67.901568784551785 0.52991927123019833 0 0.84804809178421925 0.84804809178421925 0 -0.52991927123019833 forward_v I I I I #
coedge $-1 $89 $90 $91 $92 reversed $35 $-1 #
face $-1 $-1 $93 $19 $-1 $94 forward single #
loop $-1 $95 $96 $37 #
cone-surface $-1 48.080892050566071 -5.4260521656953813 4.9231225401427423 -0.52991927123019833 0 -0.84804809178421925 0.63603606883816444 0 -0.39743945342264875 1 I I -0.70710678118654757 0.70710678118654757 0.75 forward I I I I #
loop $-1 $-1 $97 $24 #
coedge $-1 $60 $60 $98 $99 reversed $38 $-1 #
face $-1 $100 $101 $15 $-1 $102 reversed single #
loop $-1 $-1 $103 $40 #
plane-surface $-1 0 0 16.574876107249153 0 0 1 1 0 0 forward_v I I I I #
coedge $-1 $104 $105 $106 $107 reversed $41 $-1 #
coedge $-1 $108 $43 $109 $110 reversed $26 $-1 #
coedge $-1 $43 $108 $111 $112 forward $26 $-1 #
coedge $-1 $113 $114 $43 $68 forward $101 $-1 #
edge $-1 $115 -62.780236213263343 $116 62.780236213263343 $43 $117 forward 7 unknown #
face $-1 $118 $119 $16 $-1 $120 reversed single #
loop $-1 $-1 $121 $44 #
plane-surface $-1 -33.944140146101944 -50.878332826977001 0 0 1 0 0 0 1 forward_v I I I I #
coedge $-1 $122 $123 $74 $124 forward $45 $-1 #
coedge $-1 $125 $47 $126 $127 reversed $29 $-1 #
coedge $-1 $47 $125 $72 $124 reversed $29 $-1 #
coedge $-1 $128 $129 $47 $76 reversed $119 $-1 #
edge $-1 $130 -16.574876107249153 $131 16.574876107249153 $75 $132 forward 7 unknown #
face $-1 $133 $134 $17 $-1 $135 reversed single #
loop $-1 $-1 $136 $48 #
plane-surface $-1 -38.257796293438858 42.164724140692812 0 1 0 0 0 0 -1 forward_v I I I I #
coedge $-1 $137 $138 $82 $139 forward $49 $-1 #
coedge $-1 $140 $51 $141 $142 reversed $32 $-1 #
coedge $-1 $51 $140 $80 $139 reversed $32 $-1 #
coedge $-1 $143 $144 $51 $84 reversed $145 $-1 #
edge $-1 $146 -16.574876107249153 $147 16.574876107249153 $83 $148 forward 7 unknown #
face $-1 $149 $150 $18 $-1 $151 forward single #
loop $-1 $-1 $152 $52 #
plane-surface $-1 22.835831212006731 -9.5266678166967296 174.38288782939281 0 1 0 0.52991927123019833 0 0.84804809178421925 forward_v I I I I #
coedge $-1 $153 $154 $155 $156 reversed $53 $-1 #
coedge $-1 $90 $55 $157 $158 reversed $35 $-1 #
coedge $-1 $55 $89 $153 $159 reversed $35 $-1 #
coedge $-1 $155 $160 $55 $92 forward $150 $-1 #
edge $-1 $161 -51.362320607259974 $162 -27.020878607337895 $91 $163 forward 7 unknown #
loop $-1 $-1 $98 $56 #
plane-surface $-1 -43.7010828315777 -5.4260521656953813 67.901568784551785 0.52991927123019833 0 0.84804809178421925 0.84804809178421925 0 -0.52991927123019833 forward_v I I I I #
loop $-1 $-1 $164 $37 #
coedge $-1 $96 $96 $97 $165 reversed $57 $-1 #
coedge $-1 $97 $97 $96 $165 forward $59 $-1 #
coedge $-1 $98 $98 $60 $99 forward $93 $-1 #
edge $-1 $166 0 $166 6.2831853071796004 $98 $167 forward 7 unknown #
face $-1 $168 $169 $15 $-1 $170 reversed single #
loop $-1 $-1 $113 $61 #
plane-surface $-1 0 0 -16.574876107249153 0 0 1 1 0 0 forward_v I I I I #
coedge $-1 $171 $172 $173 $174 forward $62 $-1 #
coedge $-1 $175 $64 $176 $177 reversed $41 $-1 #
coedge $-1 $64 $175 $178 $179 forward $41 $-1 #
coedge $-1 $114 $113 $64 $107 forward $101 $-1 #
edge $-1 $180 -62.780236213263343 $181 62.780236213263343 $64 $182 forward 7 unknown #
coedge $-1 $66 $65 $171 $183 reversed $26 $-1 #
coedge $-1 $184 $185 $65 $110 forward $169 $-1 #
edge $-1 $186 -16.574876107249153 $115 16.574876107249153 $65 $187 forward 7 unknown #
coedge $-1 $173 $188 $66 $112 reversed $189 $-1 #
edge $-1 $190 -16.574876107249153 $116 16.574876107249153 $111 $191 forward 7 unknown #
coedge $-1 $106 $67 $188 $192 forward $101 $-1 #
coedge $-1 $67 $106 $184 $193 forward $101 $-1 #
vertex $-1 $68 $194 #
vertex $-1 $192 $195 #
straight-curve $-1 0 33.451115454408622 -16.574876107249153 1 0 0 I I #
face $-1 $196 $197 $16 $-1 $198 reversed single #
loop $-1 $-1 $75 $69 #
plane-surface $-1 -38.257796293438858 -42.164724140692812 0 1 0 0 0 0 -1 forward_v I I I I #
coedge $-1 $199 $200 $201 $202 forward $70 $-1 #
coedge $-1 $203 $72 $204 $205 forward $45 $-1 #
coedge $-1 $72 $203 $128 $206 forward $45 $-1 #
edge $-1 $130 -38.257796293438858 $207 -29.630483998765033 $72 $208 forward 7 unknown #
coedge $-1 $74 $73 $209 $210 forward $29 $-1 #
coedge $-1 $211 $212 $73 $127 forward $213 $-1 #
edge $-1 $214 29.630483998765033 $131 38.257796293438858 $126 $215 forward 7 unknown #
coedge $-1 $201 $75 $123 $206 reversed $119 $-1 #
coedge $-1 $75 $201 $211 $216 reversed $119 $-1 #
vertex $-1 $124 $217 #
vertex $-1 $216 $218 #
straight-curve $-1 -38.257796293438858 -33.451115454408622 0 0 0 1 I I #
face $-1 $219 $145 $17 $-1 $220 reversed single #
loop $-1 $-1 $221 $77 #
plane-surface $-1 -33.944140146101944 50.878332826977001 0 0 -1 0 0 0 -1 forward_v I I I I #
coedge $-1 $222 $223 $224 $225 forward $78 $-1 #
coedge $-1 $226 $80 $222 $227 forward $49 $-1 #
coedge $-1 $80 $226 $143 $228 forward $49 $-1 #
edge $-1 $146 29.630483998765033 $229 38.257796293438858 $80 $230 forward 7 unknown #
coedge $-1 $82 $81 $231 $232 forward $32 $-1 #
coedge $-1 $233 $234 $81 $142 forward $235 $-1 #
edge $-1 $236 -38.257796293438858 $147 -29.630483998765033 $141 $237 forward 7 unknown #
coedge $-1 $238 $83 $138 $228 reversed $145 $-1 #
coedge $-1 $83 $238 $233 $239 reversed $145 $-1 #
loop $-1 $-1 $83 $133 #
vertex $-1 $139 $240 #
vertex $-1 $239 $241 #
straight-curve $-1 -29.630483998765033 33.451115454408622 0 0 0 1 I I #
face $-1 $-1 $242 $18 $-1 $243 reversed single #
loop $-1 $-1 $91 $85 #
plane-surface $-1 0 0 16.574876107249153 0 0 1 1 0 0 forward_v I I I I #
coedge $-1 $244 $245 $246 $247 reversed $86 $-1 #
coedge $-1 $248 $88 $90 $159 forward $53 $-1 #
coedge $-1 $88 $248 $244 $249 forward $53 $-1 #
coedge $-1 $246 $91 $88 $156 forward $150 $-1 #
edge $-1 $162 -1.3875895681536576 $250 6.8136417338490389 $155 $251 forward 7 unknown #
coedge $-1 $252 $253 $89 $158 forward $242 $-1 #
edge $-1 $254 -85.826789173729068 $161 -70.616567807447254 $157 $255 forward 7 unknown #
edge $-1 $162 96.857569565546484 $254 125.5604724265267 $90 $256 forward 7 unknown #
coedge $-1 $91 $246 $252 $257 forward $150 $-1 #
vertex $-1 $92 $258 #
vertex $-1 $92 $259 #
straight-curve $-1 11.417915606003366 -1.325436514694033 16.574876107249153 -1 0 0 I I #
coedge $-1 $164 $164 $-1 $260 reversed $95 $-1 #
edge $-1 $261 0 $261 6.2831853071796004 $96 $262 forward 7 unknown #
vertex $-1 $99 $263 #
ellipse-curve $-1 50.60951521330233 -5.4260521656953813 8.9697654241082336 0.52991927123019833 0 0.84804809178421925 1.2720721376763289 0 -0.79487890684529749 1 I I #
face $-1 $-1 $189 $15 $-1 $264 reversed single #
loop $-1 $-1 $109 $100 #
plane-surface $-1 -62.780236213263343 0 0 1 0 0 0 0 -1 forward_v I I I I #
coedge $-1 $265 $103 $108 $183 forward $62 $-1 #
coedge $-1 $103 $265 $175 $266 forward $62 $-1 #
coedge $-1 $176 $111 $103 $174 reversed $189 $-1 #
edge $-1 $267 -33.451115454408622 $190 33.451115454408622 $173 $268 forward 7 unknown #
coedge $-1 $105 $104 $172 $266 reversed $41 $-1 #
coedge $-1 $188 $173 $104 $177 forward $189 $-1 #
edge $-1 $267 -16.574876107249153 $180 16.574876107249153 $176 $269 forward 7 unknown #
coedge $-1 $185 $184 $105 $179 reversed $169 $-1 #
edge $-1 $270 -16.574876107249153 $181 16.574876107249153 $178 $271 forward 7 unknown #
vertex $-1 $177 $272 #
vertex $-1 $193 $273 #
straight-curve $-1 0 -33.451115454408622 -16.574876107249153 -1 0 0 I I #
edge $-1 $190 -62.780236213263343 $186 62.780236213263343 $108 $274 forward 7 unknown #
coedge $-1 $178 $109 $114 $193 reversed $169 $-1 #
coedge $-1 $109 $178 $265 $275 reversed $169 $-1 #
vertex $-1 $183 $276 #
straight-curve $-1 -62.780236213263343 33.451115454408622 0 0 0 -1 I I #
coedge $-1 $111 $176 $113 $192 reversed $189 $-1 #
loop $-1 $-1 $176 $168 #
vertex $-1 $174 $277 #
straight-curve $-1 62.780236213263343 33.451115454408622 0 0 0 -1 I I #
edge $-1 $116 -33.451115454408622 $180 33.451115454408622 $188 $278 forward 7 unknown #
edge $-1 $181 -33.451115454408622 $115 33.451115454408622 $184 $279 forward 7 unknown #
point $-1 -62.780236213263343 33.451115454408622 -16.574876107249153 #
point $-1 62.780236213263343 33.451115454408622 -16.574876107249153 #
face $-1 $-1 $213 $16 $-1 $280 forward single #
loop $-1 $-1 $281 $118 #
plane-surface $-1 -29.630483998765033 -42.164724140692812 0 -1 0 0 0 0 1 forward_v I I I I #
coedge $-1 $282 $121 $203 $283 reversed $70 $-1 #
coedge $-1 $121 $282 $284 $285 reversed $70 $-1 #
coedge $-1 $129 $128 $121 $202 reversed $119 $-1 #
edge $-1 $286 -16.574876107249153 $287 16.574876107249153 $201 $288 forward 7 unknown #
coedge $-1 $123 $122 $199 $283 forward $45 $-1 #
coedge $-1 $209 $281 $122 $205 reversed $197 $-1 #
edge $-1 $207 -8.7136086862841893 $289 8.7136086862841893 $204 $290 forward 7 unknown #
edge $-1 $287 -8.7136086862841893 $130 8.7136086862841893 $128 $291 forward 7 unknown #
vertex $-1 $205 $292 #
straight-curve $-1 0 -33.451115454408622 -16.574876107249153 1 0 0 I I #
coedge $-1 $293 $204 $125 $210 reversed $197 $-1 #
edge $-1 $214 -16.574876107249153 $207 16.574876107249153 $209 $294 forward 7 unknown #
coedge $-1 $284 $126 $129 $216 forward $213 $-1 #
coedge $-1 $126 $284 $293 $295 forward $213 $-1 #
loop $-1 $-1 $126 $196 #
vertex $-1 $127 $296 #
straight-curve $-1 0 -33.451115454408622 16.574876107249153 -1 0 0 I I #
edge $-1 $131 -8.7136086862841893 $286 8.7136086862841893 $129 $297 forward 7 unknown #
point $-1 -38.257796293438858 -33.451115454408622 -16.574876107249153 #
point $-1 -38.257796293438858 -33.451115454408622 16.574876107249153 #
face $-1 $-1 $235 $17 $-1 $298 forward single #
plane-surface $-1 -29.630483998765033 42.164724140692812 0 -1 0 0 0 0 1 forward_v I I I I #
coedge $-1 $299 $300 $238 $301 forward $134 $-1 #
coedge $-1 $231 $136 $137 $227 reversed $78 $-1 #
coedge $-1 $136 $231 $234 $302 reversed $78 $-1 #
coedge $-1 $300 $299 $136 $225 reversed $134 $-1 #
edge $-1 $303 -16.574876107249153 $304 16.574876107249153 $224 $305 forward 7 unknown #
coedge $-1 $138 $137 $299 $306 forward $49 $-1 #
edge $-1 $229 -8.7136086862841893 $304 8.7136086862841893 $222 $307 forward 7 unknown #
edge $-1 $308 -8.7136086862841893 $146 8.7136086862841893 $143 $309 forward 7 unknown #
vertex $-1 $227 $310 #
straight-curve $-1 0 33.451115454408622 -16.574876107249153 -1 0 0 I I #
coedge $-1 $223 $222 $140 $232 reversed $78 $-1 #
edge $-1 $236 -16.574876107249153 $229 16.574876107249153 $231 $311 forward 7 unknown #
coedge $-1 $312 $141 $144 $239 forward $235 $-1 #
coedge $-1 $141 $312 $223 $302 forward $235 $-1 #
loop $-1 $-1 $141 $219 #
vertex $-1 $142 $313 #
straight-curve $-1 0 33.451115454408622 16.574876107249153 1 0 0 I I #
coedge $-1 $144 $143 $221 $301 reversed $145 $-1 #
edge $-1 $147 -8.7136086862841893 $314 8.7136086862841893 $144 $315 forward 7 unknown #
point $-1 -29.630483998765033 33.451115454408622 -16.574876107249153 #
point $-1 -29.630483998765033 33.451115454408622 16.574876107249153 #
loop $-1 $-1 $157 $149 #
plane-surface $-1 62.780236213263343 0 0 -1 0 0 0 0 1 forward_v I I I I #
coedge $-1 $245 $152 $154 $249 reversed $86 $-1 #
coedge $-1 $152 $244 $316 $317 reversed $86 $-1 #
coedge $-1 $160 $155 $152 $247 forward $150 $-1 #
edge $-1 $250 27.020878607337895 $318 51.362320607259974 $246 $319 forward 7 unknown #
coedge $-1 $154 $153 $253 $320 reversed $53 $-1 #
edge $-1 $321 -125.5604724265267 $250 -96.857569565546484 $244 $322 forward 7 unknown #
vertex $-1 $156 $323 #
straight-curve $-1 38.438794213341275 -2.7130260828476906 16.574876107249146 0 -1 0 I I #
coedge $-1 $316 $157 $160 $257 reversed $242 $-1 #
coedge $-1 $157 $316 $248 $320 forward $242 $-1 #
vertex $-1 $158 $324 #
straight-curve $-1 62.780236213263343 -1.325436514694033 87.191443914696407 0 0 1 I I #
straight-curve $-1 -43.7010828315777 -1.325436514694033 67.901568784551785 0.84804809178421925 0 -0.52991927123019833 I I #
edge $-1 $318 -9.5266678166967296 $161 -1.325436514694033 $252 $325 forward 7 unknown #
point $-1 62.780236213263343 -1.325436514694033 16.574876107249153 #
point $-1 38.438794213341261 -1.325436514694033 16.574876107249153 #
edge $-1 $326 1 $326 0 $164 $-1 forward 7 unknown #
vertex $-1 $165 $327 #
ellipse-curve $-1 48.47833150398872 -5.4260521656953813 5.5591586089809066 0.52991927123019833 0 0.84804809178421925 1.2720721376763289 0 -0.79487890684529749 1 I I #
point $-1 51.881587350978684 -5.4260521656953813 8.1748865172629799 #
plane-surface $-1 62.780236213263343 0 0 -1 0 0 0 0 1 forward_v I I I I #
coedge $-1 $172 $171 $185 $275 forward $62 $-1 #
edge $-1 $270 -62.780236213263343 $267 62.780236213263343 $175 $328 forward 7 unknown #
vertex $-1 $174 $329 #
straight-curve $-1 62.780236213263343 0 16.574876107249153 0 1 0 I I #
straight-curve $-1 62.780236213263343 -33.451115454408622 0 0 0 -1 I I #
vertex $-1 $275 $330 #
straight-curve $-1 -62.780236213263343 -33.451115454408622 0 0 0 -1 I I #
point $-1 62.780236213263343 -33.451115454408622 -16.574876107249153 #
point $-1 -62.780236213263343 -33.451115454408622 -16.574876107249153 #
straight-curve $-1 0 33.451115454408622 16.574876107249153 -1 0 0 I I #
edge $-1 $186 -33.451115454408622 $270 33.451115454408622 $185 $331 forward 7 unknown #
point $-1 -62.780236213263343 33.451115454408622 16.574876107249153 #
point $-1 62.780236213263343 33.451115454408622 16.574876107249153 #
straight-curve $-1 62.780236213263343 0 -16.574876107249153 0 -1 0 I I #
straight-curve $-1 -62.780236213263343 0 -16.574876107249153 0 1 0 I I #
plane-surface $-1 0 0 16.574876107249153 0 0 1 1 0 0 forward_v I I I I #
coedge $-1 $204 $293 $282 $332 forward $197 $-1 #
coedge $-1 $200 $199 $281 $332 reversed $70 $-1 #
edge $-1 $289 -4.3136561473369106 $287 4.3136561473369142 $199 $333 forward 7 unknown #
coedge $-1 $212 $211 $200 $285 forward $213 $-1 #
edge $-1 $286 -4.3136561473369142 $334 4.3136561473369106 $200 $335 forward 7 unknown #
vertex $-1 $216 $336 #
vertex $-1 $206 $337 #
straight-curve $-1 -38.257796293438858 -50.878332826977001 0 0 0 -1 I I #
vertex $-1 $332 $338 #
straight-curve $-1 -29.630483998765033 -42.164724140692812 -16.574876107249153 0 -1 0 I I #
straight-curve $-1 -38.257796293438858 -42.164724140692812 -16.574876107249153 0 1 0 I I #
point $-1 -29.630483998765033 -33.451115454408622 -16.574876107249153 #
coedge $-1 $281 $209 $212 $295 reversed $197 $-1 #
straight-curve $-1 -29.630483998765033 -33.451115454408622 0 0 0 -1 I I #
edge $-1 $334 -8.7136086862841893 $214 8.7136086862841893 $293 $339 forward 7 unknown #
point $-1 -29.630483998765033 -33.451115454408622 16.574876107249153 #
straight-curve $-1 -38.257796293438858 -42.164724140692812 16.574876107249153 0 -1 0 I I #
plane-surface $-1 0 0 16.574876107249153 0 0 1 1 0 0 forward_v I I I I #
coedge $-1 $224 $221 $226 $306 reversed $134 $-1 #
coedge $-1 $221 $224 $312 $340 reversed $134 $-1 #
edge $-1 $314 -16.574876107249153 $308 16.574876107249153 $238 $341 forward 7 unknown #
edge $-1 $303 -8.7136086862841893 $236 8.7136086862841893 $223 $342 forward 7 unknown #
vertex $-1 $340 $343 #
vertex $-1 $306 $344 #
straight-curve $-1 -38.257796293438858 50.878332826977001 0 0 0 -1 I I #
edge $-1 $304 -4.3136561473369142 $308 4.3136561473369106 $299 $345 forward 7 unknown #
straight-curve $-1 -38.257796293438858 42.164724140692812 -16.574876107249153 0 1 0 I I #
vertex $-1 $228 $346 #
straight-curve $-1 -29.630483998765033 42.164724140692812 -16.574876107249153 0 -1 0 I I #
point $-1 -38.257796293438858 33.451115454408622 -16.574876107249153 #
straight-curve $-1 -38.257796293438858 33.451115454408622 0 0 0 -1 I I #
coedge $-1 $234 $233 $300 $340 forward $235 $-1 #
point $-1 -38.257796293438858 33.451115454408622 16.574876107249153 #
vertex $-1 $239 $347 #
straight-curve $-1 -29.630483998765033 42.164724140692812 16.574876107249153 0 1 0 I I #
coedge $-1 $253 $252 $245 $317 forward $242 $-1 #
edge $-1 $318 70.616567807447254 $321 85.826789173729068 $316 $348 forward 7 unknown #
vertex $-1 $257 $349 #
straight-curve $-1 11.417915606003366 -9.5266678166967296 16.574876107249153 1 0 0 I I #
edge $-1 $321 -6.8136417338490389 $254 1.3875895681536576 $253 $350 forward 7 unknown #
vertex $-1 $320 $351 #
straight-curve $-1 -43.7010828315777 -9.5266678166967296 67.901568784551785 -0.84804809178421925 0 0.52991927123019833 I I #
point $-1 38.438794213341261 -9.5266678166967296 16.574876107249153 #
point $-1 62.780236213263343 -1.325436514694033 1.3646547409673389 #
straight-curve $-1 62.780236213263343 0 16.574876107249153 0 1 0 I I #
vertex $-1 $260 $352 #
point $-1 49.750403641665045 -5.4260521656953813 4.7642797021356094 #
straight-curve $-1 0 -33.451115454408622 16.574876107249153 1 0 0 I I #
point $-1 62.780236213263343 -33.451115454408622 16.574876107249153 #
point $-1 -62.780236213263343 -33.451115454408622 16.574876107249153 #
straight-curve $-1 -62.780236213263343 0 16.574876107249153 0 -1 0 I I #
edge $-1 $334 -16.574876107249153 $289 16.574876107249153 $281 $353 forward 7 unknown #
straight-curve $-1 -33.944140146101944 -50.878332826977001 -16.574876107249153 -1 0 0 I I #
vertex $-1 $295 $354 #
straight-curve $-1 -33.944140146101944 -50.878332826977001 16.574876107249153 1 0 0 I I #
point $-1 -38.257796293438858 -50.878332826977001 16.574876107249153 #
point $-1 -38.257796293438858 -50.878332826977001 -16.574876107249153 #
point $-1 -29.630483998765033 -50.878332826977001 -16.574876107249153 #
straight-curve $-1 -29.630483998765033 -42.164724140692812 16.574876107249153 0 1 0 I I #
edge $-1 $314 -4.3136561473369106 $303 4.3136561473369142 $300 $355 forward 7 unknown #
straight-curve $-1 -29.630483998765033 50.878332826977001 0 0 0 -1 I I #
straight-curve $-1 -38.257796293438858 42.164724140692812 16.574876107249153 0 -1 0 I I #
point $-1 -38.257796293438858 50.878332826977001 16.574876107249153 #
point $-1 -38.257796293438858 50.878332826977001 -16.574876107249153 #
straight-curve $-1 -33.944140146101944 50.878332826977001 -16.574876107249153 1 0 0 I I #
point $-1 -29.630483998765033 50.878332826977001 -16.574876107249153 #
point $-1 -29.630483998765033 50.878332826977001 16.574876107249153 #
straight-curve $-1 62.780236213263343 -9.5266678166967296 87.191443914696407 0 0 -1 I I #
point $-1 62.780236213263343 -9.5266678166967296 16.574876107249153 #
straight-curve $-1 62.780236213263358 -2.7130260828476906 1.3646547409673389 0 1 0 I I #
point $-1 62.780236213263343 -9.5266678166967296 1.3646547409673389 #
point $-1 47.683452597143422 -5.4260521656953813 4.287086471304578 #
straight-curve $-1 -29.630483998765033 -50.878332826977001 0 0 0 -1 I I #
point $-1 -29.630483998765033 -50.878332826977001 16.574876107249153 #
straight-curve $-1 -33.944140146101944 50.878332826977001 16.574876107249153 -1 0 0 I I #
End-of-ACIS-data 