500 0 7 0           
7 Unknown 11 ACIS 5.0 NT 24 Thu Mar 25 18:37:14 1999 
-1 9.9999999999999995e-007 1e-010 
body $-1 $7 $-1 $8 #
body $-1 $9 $-1 $10 #
body $-1 $11 $-1 $12 #
body $-1 $13 $-1 $14 #
body $-1 $15 $-1 $16 #
body $-1 $17 $-1 $18 #
body $-1 $19 $-1 $20 #
lump $-1 $-1 $21 $0 #
transform $-1 1 0 0 0 1 0 0 0 1 50.934171575060276 24.003585237039729 6.4584126873169163 1 rotate no_reflect no_shear #
lump $-1 $-1 $22 $1 #
transform $-1 1 0 0 0 1 0 0 0 1 50.934171575060276 24.003585237039729 6.4584126873169163 1 rotate no_reflect no_shear #
lump $-1 $-1 $23 $2 #
transform $-1 1 0 0 0 1 0 0 0 1 50.934171575060276 24.003585237039729 6.4584126873169163 1 rotate no_reflect no_shear #
lump $-1 $-1 $24 $3 #
transform $-1 1 0 0 0 1 0 0 0 1 50.934171575060276 24.003585237039729 6.4584126873169163 1 rotate no_reflect no_shear #
lump $-1 $-1 $25 $4 #
transform $-1 1 0 0 0 1 0 0 0 1 50.934171575060276 24.003585237039729 6.4584126873169163 1 rotate no_reflect no_shear #
lump $-1 $-1 $26 $5 #
transform $-1 1 0 0 0 1 0 0 0 1 50.934171575060276 24.003585237039729 6.4584126873169163 1 rotate no_reflect no_shear #
lump $-1 $-1 $27 $6 #
transform $-1 1 0 0 0 1 0 0 0 1 50.934171575060276 24.003585237039729 6.4584126873169163 1 rotate no_reflect no_shear #
shell $-1 $-1 $-1 $28 $-1 $7 #
shell $-1 $-1 $-1 $29 $-1 $9 #
shell $-1 $-1 $-1 $30 $-1 $11 #
shell $-1 $-1 $-1 $31 $-1 $13 #
shell $-1 $-1 $-1 $32 $-1 $15 #
shell $-1 $-1 $-1 $33 $-1 $17 #
shell $-1 $-1 $-1 $34 $-1 $19 #
face $-1 $35 $36 $21 $-1 $37 forward single #
face $-1 $38 $39 $22 $-1 $40 reversed single #
face $-1 $41 $42 $23 $-1 $43 forward single #
face $-1 $44 $45 $24 $-1 $46 forward single #
face $-1 $47 $48 $25 $-1 $49 reversed single #
face $-1 $50 $51 $26 $-1 $52 forward single #
face $-1 $53 $54 $27 $-1 $55 forward single #
face $-1 $56 $57 $21 $-1 $58 reversed single #
loop $-1 $-1 $59 $28 #
plane-surface $-1 0 0 6.4584126873169163 0 0 1 1 0 0 forward_v I I I I #
face $-1 $60 $61 $22 $-1 $62 reversed single #
loop $-1 $-1 $63 $29 #
plane-surface $-1 -112.24007164253393 13.87238442364918 81.883614697568206 0 1 0 -0.6018150307709319 0 0.79863550430605224 forward_v I I I I #
face $-1 $64 $65 $23 $-1 $66 forward single #
loop $-1 $67 $68 $30 #
cone-surface $-1 -45.920036759899276 16.767013227475054 2.0611183819202878 0.6018150307709319 0 -0.79863550430605224 0.79863550430605224 0 0.6018150307709319 1 I I 0 1 1 forward I I I I #
face $-1 $69 $70 $24 $-1 $71 forward single #
loop $-1 $72 $73 $31 #
cone-surface $-1 -45.920036759899276 21.108956433213862 2.0611183819202878 0.6018150307709319 0 -0.79863550430605224 0.79863550430605224 0 0.6018150307709319 1 I I 0 1 1 forward I I I I #
face $-1 $74 $75 $25 $-1 $76 reversed single #
loop $-1 $-1 $77 $32 #
plane-surface $-1 75.95055388569628 0.98062365292374487 144.00918001110824 0 -1 0 -0.81915205242281985 0 -0.57357642473473569 forward_v I I I I #
face $-1 $78 $79 $26 $-1 $80 forward single #
loop $-1 $81 $82 $33 #
cone-surface $-1 48.332217099471755 -6.0268177618586876 3.534468184577312 -0.81915205242281985 0 -0.57357642473473569 0.57357642473473569 0 -0.81915205242281985 1 I I 0 1 1 forward I I I I #
face $-1 $83 $84 $27 $-1 $85 forward single #
loop $-1 $86 $87 $34 #
cone-surface $-1 48.332217099471755 -1.8223529129892313 3.534468184577312 -0.81915205242281985 0 -0.57357642473473569 0.57357642473473569 0 -0.81915205242281985 1 I I 0 1 1 forward I I I I #
face $-1 $88 $89 $21 $-1 $90 reversed single #
loop $-1 $-1 $91 $35 #
plane-surface $-1 0 0 -6.4584126873169163 0 0 1 1 0 0 forward_v I I I I #
coedge $-1 $92 $93 $94 $95 forward $36 $-1 #
face $-1 $96 $97 $22 $-1 $98 forward single #
loop $-1 $-1 $99 $38 #
plane-surface $-1 -50.934171575060283 18.937984830344455 0.52793909304969588 -0.6018150307709319 0 0.79863550430605224 0.79863550430605224 0 0.6018150307709319 forward_v I I I I #
coedge $-1 $100 $101 $102 $103 reversed $39 $-1 #
face $-1 $-1 $104 $23 $-1 $105 forward single #
loop $-1 $106 $107 $41 #
cone-surface $-1 -44.539996487762764 16.767013227475054 0.22974312150424492 0.6018150307709319 0 -0.79863550430605224 0.39931775215302612 0 0.30090751538546595 1 I I -0.70710678118654746 0.70710678118654746 0.5 forward I I I I #
loop $-1 $-1 $108 $30 #
coedge $-1 $68 $68 $109 $110 reversed $42 $-1 #
face $-1 $-1 $111 $24 $-1 $112 forward single #
loop $-1 $113 $114 $44 #
cone-surface $-1 -44.539996487762764 21.108956433213862 0.22974312150424492 0.6018150307709319 0 -0.79863550430605224 0.39931775215302612 0 0.30090751538546595 1 I I -0.70710678118654746 0.70710678118654746 0.5 forward I I I I #
loop $-1 $-1 $115 $31 #
coedge $-1 $73 $73 $116 $117 reversed $45 $-1 #
face $-1 $118 $119 $25 $-1 $120 reversed single #
loop $-1 $-1 $121 $47 #
plane-surface $-1 -7.4951084826370789 -3.9245853374239559 85.579899953410887 0.81915205242281985 0 0.57357642473473569 0.57357642473473569 0 -0.81915205242281985 forward_v I I I I #
coedge $-1 $122 $123 $124 $125 reversed $48 $-1 #
face $-1 $-1 $126 $26 $-1 $127 forward single #
loop $-1 $128 $129 $50 #
cone-surface $-1 46.834596553542383 -6.0268177618586876 2.4858230205900247 -0.81915205242281985 0 -0.57357642473473569 0.28678821236736785 0 -0.40957602621140993 1 I I -0.70710678118654746 0.70710678118654746 0.5 forward I I I I #
loop $-1 $-1 $130 $33 #
coedge $-1 $82 $82 $131 $132 reversed $51 $-1 #
face $-1 $-1 $133 $27 $-1 $134 forward single #
loop $-1 $135 $136 $53 #
cone-surface $-1 46.834596553542383 -1.8223529129892313 2.4858230205900247 -0.81915205242281985 0 -0.57357642473473569 0.28678821236736785 0 -0.40957602621140993 1 I I -0.70710678118654746 0.70710678118654746 0.5 forward I I I I #
loop $-1 $-1 $137 $34 #
coedge $-1 $87 $87 $138 $139 reversed $54 $-1 #
face $-1 $140 $141 $21 $-1 $142 reversed single #
loop $-1 $-1 $143 $56 #
plane-surface $-1 0 -24.003585237039729 0 0 1 0 0 0 1 forward_v I I I I #
coedge $-1 $144 $145 $146 $147 forward $57 $-1 #
coedge $-1 $148 $59 $149 $150 forward $36 $-1 #
coedge $-1 $59 $148 $151 $152 forward $36 $-1 #
coedge $-1 $153 $154 $59 $95 reversed $155 $-1 #
edge $-1 $156 -24.003585237039729 $157 24.003585237039729 $94 $158 forward 7 unknown #
face $-1 $159 $160 $22 $-1 $161 reversed single #
loop $-1 $-1 $102 $60 #
plane-surface $-1 0 0 6.4584126873169163 0 0 1 1 0 0 forward_v I I I I #
coedge $-1 $162 $163 $164 $165 reversed $61 $-1 #
coedge $-1 $101 $63 $166 $167 reversed $39 $-1 #
coedge $-1 $63 $100 $162 $168 reversed $39 $-1 #
coedge $-1 $164 $169 $63 $103 forward $97 $-1 #
edge $-1 $170 5.1858642462066911 $171 13.055868363026583 $102 $172 forward 7 unknown #
loop $-1 $-1 $109 $64 #
plane-surface $-1 -50.934171575060283 18.937984830344455 0.52793909304969588 -0.6018150307709319 0 0.79863550430605224 0.79863550430605224 0 0.6018150307709319 forward_v I I I I #
loop $-1 $-1 $173 $41 #
coedge $-1 $107 $107 $108 $174 reversed $65 $-1 #
coedge $-1 $108 $108 $107 $174 forward $67 $-1 #
coedge $-1 $109 $109 $68 $110 forward $104 $-1 #
edge $-1 $175 0 $175 6.2831853071796004 $109 $176 forward 7 unknown #
loop $-1 $-1 $116 $69 #
plane-surface $-1 -50.934171575060283 18.937984830344455 0.52793909304969588 -0.6018150307709319 0 0.79863550430605224 0.79863550430605224 0 0.6018150307709319 forward_v I I I I #
loop $-1 $-1 $177 $44 #
coedge $-1 $114 $114 $115 $178 reversed $70 $-1 #
coedge $-1 $115 $115 $114 $178 forward $72 $-1 #
coedge $-1 $116 $116 $73 $117 forward $111 $-1 #
edge $-1 $179 0 $179 6.2831853071796004 $116 $180 forward 7 unknown #
face $-1 $181 $182 $25 $-1 $183 forward single #
loop $-1 $-1 $184 $74 #
plane-surface $-1 75.95055388569628 -8.8297943277716566 144.00918001110824 0 1 0 0.81915205242281985 0 0.57357642473473569 forward_v I I I I #
coedge $-1 $185 $186 $187 $188 reversed $75 $-1 #
coedge $-1 $123 $77 $189 $190 reversed $48 $-1 #
coedge $-1 $77 $122 $185 $191 reversed $48 $-1 #
coedge $-1 $187 $192 $77 $125 forward $182 $-1 #
edge $-1 $193 -12.958894632212136 $194 -9.9310747204710026 $124 $195 forward 7 unknown #
loop $-1 $-1 $131 $78 #
plane-surface $-1 -7.4951084826370789 -3.9245853374239559 85.579899953410887 0.81915205242281985 0 0.57357642473473569 0.57357642473473569 0 -0.81915205242281985 forward_v I I I I #
loop $-1 $-1 $196 $50 #
coedge $-1 $129 $129 $130 $197 reversed $79 $-1 #
coedge $-1 $130 $130 $129 $197 forward $81 $-1 #
coedge $-1 $131 $131 $82 $132 forward $126 $-1 #
edge $-1 $198 0 $198 6.2831853071796004 $131 $199 forward 7 unknown #
loop $-1 $-1 $138 $83 #
plane-surface $-1 -7.4951084826370789 -3.9245853374239559 85.579899953410887 0.81915205242281985 0 0.57357642473473569 0.57357642473473569 0 -0.81915205242281985 forward_v I I I I #
loop $-1 $-1 $200 $53 #
coedge $-1 $136 $136 $137 $201 reversed $84 $-1 #
coedge $-1 $137 $137 $136 $201 forward $86 $-1 #
coedge $-1 $138 $138 $87 $139 forward $133 $-1 #
edge $-1 $202 0 $202 6.2831853071796004 $138 $203 forward 7 unknown #
face $-1 $204 $205 $21 $-1 $206 reversed single #
loop $-1 $-1 $207 $88 #
plane-surface $-1 -50.934171575060276 0 0 1 0 0 0 0 -1 forward_v I I I I #
coedge $-1 $208 $151 $209 $210 forward $89 $-1 #
coedge $-1 $211 $91 $208 $212 forward $57 $-1 #
coedge $-1 $91 $211 $213 $214 forward $57 $-1 #
coedge $-1 $154 $153 $91 $147 reversed $155 $-1 #
edge $-1 $215 -24.003585237039729 $216 24.003585237039729 $146 $217 forward 7 unknown #
coedge $-1 $93 $92 $218 $219 forward $36 $-1 #
coedge $-1 $220 $221 $92 $150 reversed $205 $-1 #
edge $-1 $157 -50.934171575060276 $222 50.934171575060276 $149 $223 forward 7 unknown #
coedge $-1 $143 $224 $93 $152 reversed $89 $-1 #
edge $-1 $225 -50.934171575060276 $156 50.934171575060276 $151 $226 forward 7 unknown #
coedge $-1 $146 $94 $224 $227 forward $155 $-1 #
coedge $-1 $94 $146 $220 $228 reversed $155 $-1 #
loop $-1 $-1 $153 $204 #
vertex $-1 $95 $229 #
vertex $-1 $95 $230 #
straight-curve $-1 50.934171575060276 0 6.4584126873169163 0 1 0 I I #
face $-1 $-1 $231 $22 $-1 $232 reversed single #
loop $-1 $-1 $233 $96 #
plane-surface $-1 0 24.003585237039729 0 0 -1 0 0 0 -1 forward_v I I I I #
coedge $-1 $234 $99 $101 $168 forward $61 $-1 #
coedge $-1 $99 $234 $233 $235 reversed $61 $-1 #
coedge $-1 $236 $102 $99 $165 forward $97 $-1 #
edge $-1 $171 4.4033920084769527 $237 14.534592821867502 $164 $238 forward 7 unknown #
coedge $-1 $239 $240 $100 $167 forward $231 $-1 #
edge $-1 $241 -40.4138682557344 $170 -34.483394661467187 $166 $242 forward 7 unknown #
edge $-1 $171 -9.8543128553472936 $241 -8.8817612989391469e-015 $101 $243 forward 7 unknown #
coedge $-1 $102 $236 $239 $244 forward $97 $-1 #
vertex $-1 $167 $245 #
vertex $-1 $103 $246 #
straight-curve $-1 -56.120035821266967 13.87238442364918 6.4584126873169154 1 0 0 I I #
coedge $-1 $173 $173 $-1 $247 reversed $106 $-1 #
edge $-1 $248 0 $248 6.2831853071796004 $107 $249 forward 7 unknown #
vertex $-1 $110 $250 #
ellipse-curve $-1 -46.999169516650326 16.767013227475054 3.4931758901833119 -0.6018150307709319 0 0.79863550430605224 0.79863550430605224 0 0.6018150307709319 1 I I #
coedge $-1 $177 $177 $-1 $251 reversed $113 $-1 #
edge $-1 $252 0 $252 6.2831853071796004 $114 $253 forward 7 unknown #
vertex $-1 $117 $254 #
ellipse-curve $-1 -46.999169516650326 21.108956433213862 3.4931758901833119 -0.6018150307709319 0 0.79863550430605224 0.79863550430605224 0 0.6018150307709319 1 I I #
face $-1 $-1 $255 $25 $-1 $256 reversed single #
loop $-1 $-1 $124 $118 #
plane-surface $-1 0 0 6.4584126873169163 0 0 1 1 0 0 forward_v I I I I #
coedge $-1 $257 $258 $259 $260 reversed $119 $-1 #
coedge $-1 $261 $121 $123 $191 forward $75 $-1 #
coedge $-1 $121 $261 $257 $262 forward $75 $-1 #
coedge $-1 $259 $124 $121 $188 forward $182 $-1 #
edge $-1 $194 -2.9429163216357228 $263 6.8675016590596787 $187 $264 forward 7 unknown #
coedge $-1 $265 $266 $122 $190 forward $255 $-1 #
edge $-1 $267 -69.870352420476593 $193 -65.546177318237199 $189 $268 forward 7 unknown #
edge $-1 $194 96.589500120368399 $267 101.86834315012058 $123 $269 forward 7 unknown #
coedge $-1 $124 $259 $265 $270 forward $182 $-1 #
vertex $-1 $190 $271 #
vertex $-1 $125 $272 #
straight-curve $-1 37.97527694284814 0.98062365292374487 6.4584126873169225 -1 0 0 I I #
coedge $-1 $196 $196 $-1 $273 reversed $128 $-1 #
edge $-1 $274 0 $274 6.2831853071796004 $129 $275 forward 7 unknown #
vertex $-1 $132 $276 #
ellipse-curve $-1 49.420261619189709 -6.0268177618586876 4.2963251361972263 0.81915205242281985 0 0.57357642473473569 0.57357642473473569 0 -0.81915205242281985 1 I I #
coedge $-1 $200 $200 $-1 $277 reversed $135 $-1 #
edge $-1 $278 0 $278 6.2831853071796004 $136 $279 forward 7 unknown #
vertex $-1 $139 $280 #
ellipse-curve $-1 49.420261619189709 -1.8223529129892313 4.2963251361972263 0.81915205242281985 0 0.57357642473473569 0.57357642473473569 0 -0.81915205242281985 1 I I #
face $-1 $-1 $155 $21 $-1 $281 reversed single #
loop $-1 $-1 $220 $140 #
plane-surface $-1 0 24.003585237039729 0 0 -1 0 0 0 -1 forward_v I I I I #
coedge $-1 $282 $218 $221 $283 forward $141 $-1 #
coedge $-1 $224 $143 $144 $212 reversed $89 $-1 #
coedge $-1 $218 $282 $143 $210 reversed $141 $-1 #
edge $-1 $225 -6.4584126873169163 $284 6.4584126873169163 $209 $285 forward 7 unknown #
coedge $-1 $145 $144 $282 $286 forward $57 $-1 #
edge $-1 $216 -50.934171575060276 $284 50.934171575060276 $208 $287 forward 7 unknown #
coedge $-1 $221 $220 $145 $214 reversed $205 $-1 #
edge $-1 $288 -50.934171575060276 $215 50.934171575060276 $213 $289 forward 7 unknown #
vertex $-1 $147 $290 #
vertex $-1 $227 $291 #
straight-curve $-1 50.934171575060276 0 -6.4584126873169163 0 -1 0 I I #
coedge $-1 $207 $209 $148 $219 reversed $141 $-1 #
edge $-1 $222 -24.003585237039729 $225 24.003585237039729 $218 $292 forward 7 unknown #
coedge $-1 $213 $149 $154 $228 forward $205 $-1 #
coedge $-1 $149 $213 $207 $283 reversed $205 $-1 #
vertex $-1 $150 $293 #
straight-curve $-1 0 24.003585237039729 6.4584126873169163 -1 0 0 I I #
coedge $-1 $151 $208 $153 $227 reversed $89 $-1 #
vertex $-1 $219 $294 #
straight-curve $-1 0 -24.003585237039729 6.4584126873169163 1 0 0 I I #
edge $-1 $156 -6.4584126873169163 $216 6.4584126873169163 $153 $295 forward 7 unknown #
edge $-1 $157 -6.4584126873169163 $215 6.4584126873169163 $154 $296 forward 7 unknown #
point $-1 50.934171575060276 -24.003585237039729 6.4584126873169163 #
point $-1 50.934171575060276 24.003585237039729 6.4584126873169163 #
loop $-1 $-1 $166 $159 #
plane-surface $-1 -50.934171575060276 0 0 1 0 0 0 0 -1 forward_v I I I I #
coedge $-1 $297 $298 $163 $235 forward $160 $-1 #
coedge $-1 $163 $162 $240 $299 reversed $61 $-1 #
edge $-1 $237 10.325745205017897 $300 20.180058060365184 $233 $301 forward 7 unknown #
coedge $-1 $169 $164 $298 $302 forward $97 $-1 #
vertex $-1 $302 $303 #
straight-curve $-1 -43.064167458240384 9.4689924151722273 6.4584126873169172 0 1 0 I I #
coedge $-1 $304 $166 $169 $244 reversed $231 $-1 #
coedge $-1 $166 $304 $234 $299 forward $231 $-1 #
vertex $-1 $167 $305 #
straight-curve $-1 -50.934171575060276 13.87238442364918 40.941807348784103 0 0 1 I I #
straight-curve $-1 -50.934171575060283 13.87238442364918 0.52793909304969588 -0.79863550430605224 0 -0.6018150307709319 I I #
edge $-1 $306 -24.003585237039729 $170 -13.87238442364918 $239 $307 forward 7 unknown #
point $-1 -50.934171575060276 13.87238442364918 6.4584126873169163 #
point $-1 -43.064167458240384 13.87238442364918 6.4584126873169163 #
edge $-1 $308 1 $308 0 $173 $-1 forward 7 unknown #
vertex $-1 $174 $309 #
ellipse-curve $-1 -44.840904003148232 16.767013227475054 0.62906087365727104 -0.6018150307709319 0 0.79863550430605224 0.79863550430605224 0 0.6018150307709319 1 I I #
point $-1 -46.200534012344271 16.767013227475054 4.0949909209542366 #
edge $-1 $310 1 $310 0 $177 $-1 forward 7 unknown #
vertex $-1 $178 $311 #
ellipse-curve $-1 -44.840904003148232 21.108956433213862 0.62906087365727104 -0.6018150307709319 0 0.79863550430605224 0.79863550430605224 0 0.6018150307709319 1 I I #
point $-1 -46.200534012344271 21.108956433213862 4.0949909209542366 #
loop $-1 $-1 $189 $181 #
plane-surface $-1 50.934171575060276 0 0 -1 0 0 0 0 1 forward_v I I I I #
coedge $-1 $258 $184 $186 $262 reversed $119 $-1 #
coedge $-1 $184 $257 $312 $313 reversed $119 $-1 #
coedge $-1 $192 $187 $184 $260 forward $182 $-1 #
edge $-1 $263 9.9310747204710026 $314 12.958894632212136 $259 $315 forward 7 unknown #
coedge $-1 $186 $185 $266 $316 reversed $75 $-1 #
edge $-1 $317 -101.86834315012058 $263 -96.589500120368399 $257 $318 forward 7 unknown #
vertex $-1 $188 $319 #
straight-curve $-1 47.90635166331915 -1.9622926687119779 6.4584126873169154 0 -1 0 I I #
coedge $-1 $312 $189 $192 $270 reversed $255 $-1 #
coedge $-1 $189 $312 $261 $316 forward $255 $-1 #
vertex $-1 $190 $320 #
straight-curve $-1 50.934171575060276 0.98062365292374487 72.004590005554121 0 0 1 I I #
straight-curve $-1 -7.4951084826370789 0.98062365292374487 85.579899953410887 0.57357642473473569 0 -0.81915205242281985 I I #
edge $-1 $314 -8.8297943277716566 $193 0.98062365292374487 $265 $321 forward 7 unknown #
point $-1 50.934171575060276 0.98062365292374487 6.4584126873169163 #
point $-1 47.906351663319143 0.98062365292374487 6.4584126873169225 #
edge $-1 $322 1 $322 0 $196 $-1 forward 7 unknown #
vertex $-1 $197 $323 #
ellipse-curve $-1 47.244172579753794 -6.0268177618586876 2.7726112329573924 0.81915205242281985 0 0.57357642473473569 0.57357642473473569 0 -0.81915205242281985 1 I I #
point $-1 49.993838043924448 -6.0268177618586876 3.4771730837744119 #
edge $-1 $324 1 $324 0 $200 $-1 forward 7 unknown #
vertex $-1 $201 $325 #
ellipse-curve $-1 47.244172579753794 -1.8223529129892313 2.7726112329573924 0.81915205242281985 0 0.57357642473473569 0.57357642473473569 0 -0.81915205242281985 1 I I #
point $-1 49.993838043924448 -1.8223529129892313 3.4771730837744119 #
plane-surface $-1 50.934171575060276 0 0 -1 0 0 0 0 1 forward_v I I I I #
coedge $-1 $209 $207 $211 $286 reversed $141 $-1 #
edge $-1 $222 -6.4584126873169163 $288 6.4584126873169163 $221 $326 forward 7 unknown #
vertex $-1 $286 $327 #
straight-curve $-1 -50.934171575060276 -24.003585237039729 0 0 0 -1 I I #
edge $-1 $284 -24.003585237039729 $288 24.003585237039729 $282 $328 forward 7 unknown #
straight-curve $-1 0 -24.003585237039729 -6.4584126873169163 -1 0 0 I I #
vertex $-1 $214 $329 #
straight-curve $-1 0 24.003585237039729 -6.4584126873169163 1 0 0 I I #
point $-1 50.934171575060276 24.003585237039729 -6.4584126873169163 #
point $-1 50.934171575060276 -24.003585237039729 -6.4584126873169163 #
straight-curve $-1 -50.934171575060276 0 6.4584126873169163 0 -1 0 I I #
point $-1 -50.934171575060276 24.003585237039729 6.4584126873169163 #
point $-1 -50.934171575060276 -24.003585237039729 6.4584126873169163 #
straight-curve $-1 50.934171575060276 -24.003585237039729 0 0 0 -1 I I #
straight-curve $-1 50.934171575060276 24.003585237039729 0 0 0 -1 I I #
coedge $-1 $298 $233 $304 $330 reversed $160 $-1 #
coedge $-1 $233 $297 $236 $302 reversed $160 $-1 #
edge $-1 $300 -14.534592821867502 $241 -4.4033920084769527 $240 $331 forward 7 unknown #
vertex $-1 $235 $332 #
straight-curve $-1 -34.817660729095117 24.003585237039729 12.672601355607565 -0.79863550430605224 0 -0.6018150307709319 I I #
edge $-1 $237 43.064167458240384 $306 50.934171575060276 $298 $333 forward 7 unknown #
point $-1 -43.064167458240384 24.003585237039729 6.4584126873169163 #
coedge $-1 $240 $239 $297 $330 forward $231 $-1 #
point $-1 -50.934171575060276 13.87238442364918 0.52793909304970121 #
vertex $-1 $302 $334 #
straight-curve $-1 -50.934171575060276 0 6.4584126873169163 0 -1 0 I I #
vertex $-1 $247 $335 #
point $-1 -44.042268498842176 16.767013227475054 1.2308759044282029 #
vertex $-1 $251 $336 #
point $-1 -44.042268498842176 21.108956433213862 1.2308759044282029 #
coedge $-1 $266 $265 $258 $313 forward $255 $-1 #
edge $-1 $314 65.546177318237199 $317 69.870352420476593 $312 $337 forward 7 unknown #
vertex $-1 $270 $338 #
straight-curve $-1 37.97527694284814 -8.8297943277716566 6.4584126873169225 1 0 0 I I #
edge $-1 $317 -6.8675016590596787 $267 2.9429163216357228 $266 $339 forward 7 unknown #
vertex $-1 $316 $340 #
straight-curve $-1 -7.4951084826370789 -8.8297943277716566 85.579899953410887 -0.57357642473473569 0 0.81915205242281985 I I #
point $-1 47.906351663319143 -8.8297943277716566 6.4584126873169225 #
point $-1 50.934171575060276 0.98062365292374487 2.1342375850775284 #
straight-curve $-1 50.934171575060276 0 6.4584126873169163 0 1 0 I I #
vertex $-1 $273 $341 #
point $-1 47.817749004488526 -6.0268177618586876 1.9534591805345727 #
vertex $-1 $277 $342 #
point $-1 47.817749004488526 -1.8223529129892313 1.9534591805345727 #
straight-curve $-1 -50.934171575060276 24.003585237039729 0 0 0 -1 I I #
point $-1 -50.934171575060276 -24.003585237039729 -6.4584126873169163 #
straight-curve $-1 -50.934171575060276 0 -6.4584126873169163 0 1 0 I I #
point $-1 -50.934171575060276 24.003585237039729 -6.4584126873169163 #
edge $-1 $306 -6.4584126873169163 $300 -0.52793909304970121 $297 $343 forward 7 unknown #
straight-curve $-1 -50.934171575060276 9.4689924151722273 0.52793909304969777 0 -1 0 I I #
point $-1 -50.934171575060276 24.003585237039729 0.52793909304970121 #
straight-curve $-1 0 24.003585237039729 6.4584126873169163 -1 0 0 I I #
point $-1 -50.934171575060276 24.003585237039729 6.4584126873169163 #
point $-1 -44.239088972377296 16.767013227475054 -0.1695746306487812 #
point $-1 -44.239088972377296 21.108956433213862 -0.1695746306487812 #
straight-curve $-1 50.934171575060276 -8.8297943277716566 72.004590005554121 0 0 -1 I I #
point $-1 50.934171575060276 -8.8297943277716566 6.4584126873169163 #
straight-curve $-1 50.934171575060276 -1.9622926687119779 2.1342375850775213 0 1 0 I I #
point $-1 50.934171575060276 -8.8297943277716566 2.1342375850775284 #
point $-1 46.425020527330972 -6.0268177618586876 2.199034808222657 #
point $-1 46.425020527330972 -1.8223529129892313 2.199034808222657 #
straight-curve $-1 -50.934171575060276 24.003585237039729 0 0 0 -1 I I #
End-of-ACIS-data 