500 0 14 0           
7 Unknown 11 ACIS 5.0 NT 24 Thu Mar 25 20:36:49 1999 
-1 9.9999999999999995e-007 1e-010 
body $-1 $14 $-1 $15 #
body $-1 $16 $-1 $17 #
body $-1 $18 $-1 $19 #
body $-1 $20 $-1 $21 #
body $-1 $22 $-1 $23 #
body $-1 $24 $-1 $25 #
body $-1 $26 $-1 $27 #
body $-1 $28 $-1 $29 #
body $-1 $30 $-1 $31 #
body $-1 $32 $-1 $33 #
body $-1 $34 $-1 $35 #
body $-1 $36 $-1 $37 #
body $-1 $38 $-1 $39 #
body $-1 $40 $-1 $41 #
lump $-1 $-1 $42 $0 #
transform $-1 1 0 0 0 1 0 0 0 1 49.581591235084076 29.848520423086288 13.002010759448149 1 rotate no_reflect no_shear #
lump $-1 $-1 $43 $1 #
transform $-1 1 0 0 0 1 0 0 0 1 49.581591235084076 29.848520423086288 13.002010759448149 1 rotate no_reflect no_shear #
lump $-1 $-1 $44 $2 #
transform $-1 1 0 0 0 1 0 0 0 1 49.581591235084076 29.848520423086288 13.002010759448149 1 rotate no_reflect no_shear #
lump $-1 $-1 $45 $3 #
transform $-1 1 0 0 0 1 0 0 0 1 49.581591235084076 29.848520423086288 13.002010759448149 1 rotate no_reflect no_shear #
lump $-1 $-1 $46 $4 #
transform $-1 1 0 0 0 1 0 0 0 1 49.581591235084076 29.848520423086288 13.002010759448149 1 rotate no_reflect no_shear #
lump $-1 $-1 $47 $5 #
transform $-1 1 0 0 0 1 0 0 0 1 49.581591235084076 29.848520423086288 13.002010759448149 1 rotate no_reflect no_shear #
lump $-1 $-1 $48 $6 #
transform $-1 1 0 0 0 1 0 0 0 1 49.581591235084076 29.848520423086288 13.002010759448149 1 rotate no_reflect no_shear #
lump $-1 $-1 $49 $7 #
transform $-1 1 0 0 0 1 0 0 0 1 49.581591235084076 29.848520423086288 13.002010759448149 1 rotate no_reflect no_shear #
lump $-1 $-1 $50 $8 #
transform $-1 1 0 0 0 1 0 0 0 1 49.581591235084076 29.848520423086288 13.002010759448149 1 rotate no_reflect no_shear #
lump $-1 $-1 $51 $9 #
transform $-1 1 0 0 0 1 0 0 0 1 49.581591235084076 29.848520423086288 13.002010759448149 1 rotate no_reflect no_shear #
lump $-1 $-1 $52 $10 #
transform $-1 1 0 0 0 1 0 0 0 1 49.581591235084076 29.848520423086288 13.002010759448149 1 rotate no_reflect no_shear #
lump $-1 $-1 $53 $11 #
transform $-1 1 0 0 0 1 0 0 0 1 49.581591235084076 29.848520423086288 13.002010759448149 1 rotate no_reflect no_shear #
lump $-1 $-1 $54 $12 #
transform $-1 1 0 0 0 1 0 0 0 1 49.581591235084076 29.848520423086288 13.002010759448149 1 rotate no_reflect no_shear #
lump $-1 $-1 $55 $13 #
transform $-1 1 0 0 0 1 0 0 0 1 49.581591235084076 29.848520423086288 13.002010759448149 1 rotate no_reflect no_shear #
shell $-1 $-1 $-1 $56 $-1 $14 #
shell $-1 $-1 $-1 $57 $-1 $16 #
shell $-1 $-1 $-1 $58 $-1 $18 #
shell $-1 $-1 $-1 $59 $-1 $20 #
shell $-1 $-1 $-1 $60 $-1 $22 #
shell $-1 $-1 $-1 $61 $-1 $24 #
shell $-1 $-1 $-1 $62 $-1 $26 #
shell $-1 $-1 $-1 $63 $-1 $28 #
shell $-1 $-1 $-1 $64 $-1 $30 #
shell $-1 $-1 $-1 $65 $-1 $32 #
shell $-1 $-1 $-1 $66 $-1 $34 #
shell $-1 $-1 $-1 $67 $-1 $36 #
shell $-1 $-1 $-1 $68 $-1 $38 #
shell $-1 $-1 $-1 $69 $-1 $40 #
face $-1 $70 $71 $42 $-1 $72 forward single #
face $-1 $73 $74 $43 $-1 $75 reversed single #
face $-1 $76 $77 $44 $-1 $78 reversed single #
face $-1 $79 $80 $45 $-1 $81 forward single #
face $-1 $82 $83 $46 $-1 $84 forward single #
face $-1 $85 $86 $47 $-1 $87 reversed single #
face $-1 $88 $89 $48 $-1 $90 forward single #
face $-1 $91 $92 $49 $-1 $93 forward single #
face $-1 $94 $95 $50 $-1 $96 reversed single #
face $-1 $97 $98 $51 $-1 $99 forward single #
face $-1 $100 $101 $52 $-1 $102 forward single #
face $-1 $103 $104 $53 $-1 $105 reversed single #
face $-1 $106 $107 $54 $-1 $108 forward single #
face $-1 $109 $110 $55 $-1 $111 forward single #
face $-1 $112 $113 $42 $-1 $114 reversed single #
loop $-1 $-1 $115 $56 #
plane-surface $-1 0 0 13.002010759448149 0 0 1 1 0 0 forward_v I I I I #
face $-1 $116 $117 $43 $-1 $118 reversed single #
loop $-1 $-1 $119 $57 #
plane-surface $-1 -46.683944713557231 -18.823242258013959 0 0 -1 0 0 0 -1 forward_v I I I I #
face $-1 $120 $121 $44 $-1 $122 reversed single #
loop $-1 $-1 $123 $58 #
plane-surface $-1 -39.800924262015812 43.85756262107995 121.50310286663003 1 0 0 0 -0.61566148304635926 -0.78801074757464917 forward_v I I I I #
face $-1 $124 $125 $45 $-1 $126 forward single #
loop $-1 $127 $128 $59 #
cone-surface $-1 -36.556674003374113 23.92047331248612 7.4548573988454434 0 -0.61566148304635926 -0.78801074757464917 1.5 0 0 1 I I 0 1 1.5 forward I I I I #
face $-1 $129 $130 $46 $-1 $131 forward single #
loop $-1 $132 $133 $60 #
cone-surface $-1 -31.690298615411557 23.92047331248612 7.4548573988454434 0 -0.61566148304635926 -0.78801074757464917 1.5 0 0 1 I I 0 1 1.5 forward I I I I #
face $-1 $134 $135 $47 $-1 $136 reversed single #
loop $-1 $-1 $137 $61 #
plane-surface $-1 -15.010128644473781 43.85756262107995 121.50310286663003 1 0 0 0 -0.61566148304635926 -0.78801074757464917 forward_v I I I I #
face $-1 $138 $139 $48 $-1 $140 forward single #
loop $-1 $141 $142 $62 #
cone-surface $-1 -11.765878385832075 23.92047331248612 7.4548573988454434 0 -0.61566148304635926 -0.78801074757464917 1.5 0 0 1 I I 0 1 1.5 forward I I I I #
face $-1 $143 $144 $49 $-1 $145 forward single #
loop $-1 $146 $147 $63 #
cone-surface $-1 -6.8995029978695186 23.92047331248612 7.4548573988454434 0 -0.61566148304635926 -0.78801074757464917 1.5 0 0 1 I I 0 1 1.5 forward I I I I #
face $-1 $148 $149 $50 $-1 $150 reversed single #
loop $-1 $-1 $151 $64 #
plane-surface $-1 9.7806669730682643 43.85756262107995 121.50310286663003 1 0 0 0 -0.61566148304635926 -0.78801074757464917 forward_v I I I I #
face $-1 $152 $153 $51 $-1 $154 forward single #
loop $-1 $155 $156 $65 #
cone-surface $-1 13.024917231709964 23.92047331248612 7.4548573988454434 0 -0.61566148304635926 -0.78801074757464917 1.5 0 0 1 I I 0 1 1.5 forward I I I I #
face $-1 $157 $158 $52 $-1 $159 forward single #
loop $-1 $160 $161 $66 #
cone-surface $-1 17.891292619672512 23.92047331248612 7.4548573988454434 0 -0.61566148304635926 -0.78801074757464917 1.5 0 0 1 I I 0 1 1.5 forward I I I I #
face $-1 $162 $163 $53 $-1 $164 reversed single #
loop $-1 $-1 $165 $67 #
plane-surface $-1 34.571462590610309 43.85756262107995 121.50310286663003 1 0 0 0 -0.61566148304635926 -0.78801074757464917 forward_v I I I I #
face $-1 $166 $167 $54 $-1 $168 forward single #
loop $-1 $169 $170 $68 #
cone-surface $-1 37.815712849251994 23.92047331248612 7.4548573988454434 0 -0.61566148304635926 -0.78801074757464917 1.5 0 0 1 I I 0 1 1.5 forward I I I I #
face $-1 $171 $172 $55 $-1 $173 forward single #
loop $-1 $174 $175 $69 #
cone-surface $-1 42.682088237214558 23.92047331248612 7.4548573988454434 0 -0.61566148304635926 -0.78801074757464917 1.5 0 0 1 I I 0 1 1.5 forward I I I I #
face $-1 $176 $177 $42 $-1 $178 reversed single #
loop $-1 $-1 $179 $70 #
plane-surface $-1 0 0 -13.002010759448149 0 0 1 1 0 0 forward_v I I I I #
coedge $-1 $180 $181 $182 $183 forward $71 $-1 #
face $-1 $184 $185 $43 $-1 $186 forward single #
loop $-1 $-1 $187 $73 #
plane-surface $-1 -43.786298192030387 -24.335881340550124 0 -1 0 0 0 0 1 forward_v I I I I #
coedge $-1 $188 $189 $190 $191 forward $74 $-1 #
face $-1 $192 $193 $44 $-1 $194 reversed single #
loop $-1 $-1 $195 $76 #
plane-surface $-1 -34.123486309392831 -17.193389362100511 43.361449316431475 0 0.61566148304635926 0.78801074757464917 1 0 0 forward_v I I I I #
coedge $-1 $196 $197 $198 $199 reversed $77 $-1 #
face $-1 $-1 $200 $45 $-1 $201 forward single #
loop $-1 $202 $203 $79 #
cone-surface $-1 -36.556674003374113 21.622480705026963 4.5135610494869258 0 -0.61566148304635926 -0.78801074757464917 0.75 0 0 1 I I -0.70710678118654757 0.70710678118654757 0.75 forward I I I I #
loop $-1 $-1 $204 $59 #
coedge $-1 $128 $128 $205 $206 reversed $80 $-1 #
face $-1 $-1 $207 $46 $-1 $208 forward single #
loop $-1 $209 $210 $82 #
cone-surface $-1 -31.690298615411557 21.622480705026963 4.5135610494869258 0 -0.61566148304635926 -0.78801074757464917 0.75 0 0 1 I I -0.70710678118654757 0.70710678118654757 0.75 forward I I I I #
loop $-1 $-1 $211 $60 #
coedge $-1 $133 $133 $212 $213 reversed $83 $-1 #
face $-1 $214 $215 $47 $-1 $216 reversed single #
loop $-1 $-1 $217 $85 #
plane-surface $-1 -9.3326906918508001 -17.193389362100511 43.361449316431475 0 0.61566148304635926 0.78801074757464917 1 0 0 forward_v I I I I #
coedge $-1 $218 $219 $220 $221 reversed $86 $-1 #
face $-1 $-1 $222 $48 $-1 $223 forward single #
loop $-1 $224 $225 $88 #
cone-surface $-1 -11.765878385832075 21.622480705026963 4.5135610494869258 0 -0.61566148304635926 -0.78801074757464917 0.75 0 0 1 I I -0.70710678118654757 0.70710678118654757 0.75 forward I I I I #
loop $-1 $-1 $226 $62 #
coedge $-1 $142 $142 $227 $228 reversed $89 $-1 #
face $-1 $-1 $229 $49 $-1 $230 forward single #
loop $-1 $231 $232 $91 #
cone-surface $-1 -6.8995029978695186 21.622480705026963 4.5135610494869258 0 -0.61566148304635926 -0.78801074757464917 0.75 0 0 1 I I -0.70710678118654757 0.70710678118654757 0.75 forward I I I I #
loop $-1 $-1 $233 $63 #
coedge $-1 $147 $147 $234 $235 reversed $92 $-1 #
face $-1 $236 $237 $50 $-1 $238 reversed single #
loop $-1 $-1 $239 $94 #
plane-surface $-1 15.458104925691245 -17.193389362100511 43.361449316431475 0 0.61566148304635926 0.78801074757464917 1 0 0 forward_v I I I I #
coedge $-1 $240 $241 $242 $243 reversed $95 $-1 #
face $-1 $-1 $244 $51 $-1 $245 forward single #
loop $-1 $246 $247 $97 #
cone-surface $-1 13.024917231709964 21.622480705026963 4.5135610494869258 0 -0.61566148304635926 -0.78801074757464917 0.75 0 0 1 I I -0.70710678118654757 0.70710678118654757 0.75 forward I I I I #
loop $-1 $-1 $248 $65 #
coedge $-1 $156 $156 $249 $250 reversed $98 $-1 #
face $-1 $-1 $251 $52 $-1 $252 forward single #
loop $-1 $253 $254 $100 #
cone-surface $-1 17.891292619672512 21.622480705026963 4.5135610494869258 0 -0.61566148304635926 -0.78801074757464917 0.75 0 0 1 I I -0.70710678118654757 0.70710678118654757 0.75 forward I I I I #
loop $-1 $-1 $255 $66 #
coedge $-1 $161 $161 $256 $257 reversed $101 $-1 #
face $-1 $258 $259 $53 $-1 $260 reversed single #
loop $-1 $-1 $261 $103 #
plane-surface $-1 40.24890054323329 -17.193389362100511 43.361449316431475 0 0.61566148304635926 0.78801074757464917 1 0 0 forward_v I I I I #
coedge $-1 $262 $263 $264 $265 reversed $104 $-1 #
face $-1 $-1 $266 $54 $-1 $267 forward single #
loop $-1 $268 $269 $106 #
cone-surface $-1 37.815712849251994 21.622480705026963 4.5135610494869258 0 -0.61566148304635926 -0.78801074757464917 0.75 0 0 1 I I -0.70710678118654757 0.70710678118654757 0.75 forward I I I I #
loop $-1 $-1 $270 $68 #
coedge $-1 $170 $170 $271 $272 reversed $107 $-1 #
face $-1 $-1 $273 $55 $-1 $274 forward single #
loop $-1 $275 $276 $109 #
cone-surface $-1 42.682088237214558 21.622480705026963 4.5135610494869258 0 -0.61566148304635926 -0.78801074757464917 0.75 0 0 1 I I -0.70710678118654757 0.70710678118654757 0.75 forward I I I I #
loop $-1 $-1 $277 $69 #
coedge $-1 $175 $175 $278 $279 reversed $110 $-1 #
face $-1 $280 $281 $42 $-1 $282 reversed single #
loop $-1 $-1 $283 $112 #
plane-surface $-1 0 -29.848520423086288 0 0 1 0 0 0 1 forward_v I I I I #
coedge $-1 $284 $285 $286 $287 forward $113 $-1 #
coedge $-1 $288 $115 $289 $290 forward $71 $-1 #
coedge $-1 $115 $288 $291 $292 forward $71 $-1 #
coedge $-1 $293 $294 $115 $183 reversed $295 $-1 #
edge $-1 $296 -29.848520423086288 $297 29.848520423086288 $182 $298 forward 7 unknown #
face $-1 $299 $300 $43 $-1 $301 reversed single #
loop $-1 $-1 $302 $116 #
plane-surface $-1 0 0 13.002010759448149 0 0 1 1 0 0 forward_v I I I I #
coedge $-1 $303 $304 $305 $306 reversed $117 $-1 #
coedge $-1 $307 $119 $308 $309 reversed $74 $-1 #
coedge $-1 $119 $307 $310 $311 reversed $74 $-1 #
coedge $-1 $304 $303 $119 $191 reversed $117 $-1 #
edge $-1 $312 -13.002010759448149 $313 13.002010759448149 $190 $314 forward 7 unknown #
face $-1 $315 $316 $44 $-1 $317 reversed single #
loop $-1 $-1 $318 $120 #
plane-surface $-1 -28.44604835676985 43.85756262107995 121.50310286663003 -1 0 0 0 0.61566148304635926 0.78801074757464917 forward_v I I I I #
coedge $-1 $319 $320 $321 $322 reversed $121 $-1 #
coedge $-1 $197 $123 $323 $324 reversed $77 $-1 #
coedge $-1 $123 $196 $319 $325 reversed $77 $-1 #
coedge $-1 $321 $326 $123 $199 forward $327 $-1 #
edge $-1 $328 -7.9197391125463135 $329 0.26386211830524786 $198 $330 forward 7 unknown #
loop $-1 $-1 $205 $124 #
plane-surface $-1 -34.123486309392831 -17.193389362100511 43.361449316431475 0 0.61566148304635926 0.78801074757464917 1 0 0 forward_v I I I I #
loop $-1 $-1 $331 $79 #
coedge $-1 $203 $203 $204 $332 reversed $125 $-1 #
coedge $-1 $204 $204 $203 $332 forward $127 $-1 #
coedge $-1 $205 $205 $128 $206 forward $200 $-1 #
edge $-1 $333 -1.1372947171903754e-015 $333 6.2831853071795996 $205 $334 forward 7 unknown #
loop $-1 $-1 $212 $129 #
plane-surface $-1 -34.123486309392831 -17.193389362100511 43.361449316431475 0 0.61566148304635926 0.78801074757464917 1 0 0 forward_v I I I I #
loop $-1 $-1 $335 $82 #
coedge $-1 $210 $210 $211 $336 reversed $130 $-1 #
coedge $-1 $211 $211 $210 $336 forward $132 $-1 #
coedge $-1 $212 $212 $133 $213 forward $207 $-1 #
edge $-1 $337 -1.1372947171903754e-015 $337 6.2831853071795996 $212 $338 forward 7 unknown #
face $-1 $339 $340 $47 $-1 $341 forward single #
loop $-1 $-1 $342 $134 #
plane-surface $-1 -3.6552527392278193 43.85756262107995 121.50310286663003 -1 0 0 0 0.61566148304635926 0.78801074757464917 forward_v I I I I #
coedge $-1 $343 $344 $345 $346 reversed $135 $-1 #
coedge $-1 $219 $137 $347 $348 reversed $86 $-1 #
coedge $-1 $137 $218 $343 $349 reversed $86 $-1 #
coedge $-1 $345 $350 $137 $221 forward $340 $-1 #
edge $-1 $351 -7.9197391125463135 $352 0.26386211830524786 $220 $353 forward 7 unknown #
loop $-1 $-1 $227 $138 #
plane-surface $-1 -9.3326906918508001 -17.193389362100511 43.361449316431475 0 0.61566148304635926 0.78801074757464917 1 0 0 forward_v I I I I #
loop $-1 $-1 $354 $88 #
coedge $-1 $225 $225 $226 $355 reversed $139 $-1 #
coedge $-1 $226 $226 $225 $355 forward $141 $-1 #
coedge $-1 $227 $227 $142 $228 forward $222 $-1 #
edge $-1 $356 -1.1372947171903754e-015 $356 6.2831853071795996 $227 $357 forward 7 unknown #
loop $-1 $-1 $234 $143 #
plane-surface $-1 -9.3326906918508001 -17.193389362100511 43.361449316431475 0 0.61566148304635926 0.78801074757464917 1 0 0 forward_v I I I I #
loop $-1 $-1 $358 $91 #
coedge $-1 $232 $232 $233 $359 reversed $144 $-1 #
coedge $-1 $233 $233 $232 $359 forward $146 $-1 #
coedge $-1 $234 $234 $147 $235 forward $229 $-1 #
edge $-1 $360 -1.1372947171903754e-015 $360 6.2831853071795996 $234 $361 forward 7 unknown #
face $-1 $362 $363 $50 $-1 $364 forward single #
loop $-1 $-1 $365 $148 #
plane-surface $-1 21.135542878314226 43.85756262107995 121.50310286663003 -1 0 0 0 0.61566148304635926 0.78801074757464917 forward_v I I I I #
coedge $-1 $366 $367 $368 $369 reversed $149 $-1 #
coedge $-1 $241 $151 $370 $371 reversed $95 $-1 #
coedge $-1 $151 $240 $366 $372 reversed $95 $-1 #
coedge $-1 $368 $373 $151 $243 forward $363 $-1 #
edge $-1 $374 -7.9197391125463135 $375 0.26386211830524786 $242 $376 forward 7 unknown #
loop $-1 $-1 $249 $152 #
plane-surface $-1 15.458104925691245 -17.193389362100511 43.361449316431475 0 0.61566148304635926 0.78801074757464917 1 0 0 forward_v I I I I #
loop $-1 $-1 $377 $97 #
coedge $-1 $247 $247 $248 $378 reversed $153 $-1 #
coedge $-1 $248 $248 $247 $378 forward $155 $-1 #
coedge $-1 $249 $249 $156 $250 forward $244 $-1 #
edge $-1 $379 -1.1372947171903754e-015 $379 6.2831853071795996 $249 $380 forward 7 unknown #
loop $-1 $-1 $256 $157 #
plane-surface $-1 15.458104925691245 -17.193389362100511 43.361449316431475 0 0.61566148304635926 0.78801074757464917 1 0 0 forward_v I I I I #
loop $-1 $-1 $381 $100 #
coedge $-1 $254 $254 $255 $382 reversed $158 $-1 #
coedge $-1 $255 $255 $254 $382 forward $160 $-1 #
coedge $-1 $256 $256 $161 $257 forward $251 $-1 #
edge $-1 $383 -1.1372947171903754e-015 $383 6.2831853071795996 $256 $384 forward 7 unknown #
face $-1 $385 $386 $53 $-1 $387 forward single #
loop $-1 $-1 $388 $162 #
plane-surface $-1 45.926338495856271 43.85756262107995 121.50310286663003 -1 0 0 0 0.61566148304635926 0.78801074757464917 forward_v I I I I #
coedge $-1 $389 $390 $391 $392 reversed $163 $-1 #
coedge $-1 $263 $165 $393 $394 reversed $104 $-1 #
coedge $-1 $165 $262 $389 $395 reversed $104 $-1 #
coedge $-1 $391 $396 $165 $265 forward $386 $-1 #
edge $-1 $397 -7.9197391125463135 $398 0.26386211830524786 $264 $399 forward 7 unknown #
loop $-1 $-1 $271 $166 #
plane-surface $-1 40.24890054323329 -17.193389362100511 43.361449316431475 0 0.61566148304635926 0.78801074757464917 1 0 0 forward_v I I I I #
loop $-1 $-1 $400 $106 #
coedge $-1 $269 $269 $270 $401 reversed $167 $-1 #
coedge $-1 $270 $270 $269 $401 forward $169 $-1 #
coedge $-1 $271 $271 $170 $272 forward $266 $-1 #
edge $-1 $402 -1.1372947171903754e-015 $402 6.2831853071795996 $271 $403 forward 7 unknown #
loop $-1 $-1 $278 $171 #
plane-surface $-1 40.24890054323329 -17.193389362100511 43.361449316431475 0 0.61566148304635926 0.78801074757464917 1 0 0 forward_v I I I I #
loop $-1 $-1 $404 $109 #
coedge $-1 $276 $276 $277 $405 reversed $172 $-1 #
coedge $-1 $277 $277 $276 $405 forward $174 $-1 #
coedge $-1 $278 $278 $175 $279 forward $273 $-1 #
edge $-1 $406 -1.1372947171903754e-015 $406 6.2831853071795996 $278 $407 forward 7 unknown #
face $-1 $408 $409 $42 $-1 $410 reversed single #
loop $-1 $-1 $411 $176 #
plane-surface $-1 -49.581591235084076 0 0 1 0 0 0 0 -1 forward_v I I I I #
coedge $-1 $412 $291 $413 $414 forward $177 $-1 #
coedge $-1 $415 $179 $412 $416 forward $113 $-1 #
coedge $-1 $179 $415 $417 $418 forward $113 $-1 #
coedge $-1 $294 $293 $179 $287 reversed $295 $-1 #
edge $-1 $419 -29.848520423086288 $420 29.848520423086288 $286 $421 forward 7 unknown #
coedge $-1 $181 $180 $422 $423 forward $71 $-1 #
coedge $-1 $424 $425 $180 $290 reversed $409 $-1 #
edge $-1 $297 -49.581591235084076 $426 49.581591235084076 $289 $427 forward 7 unknown #
coedge $-1 $283 $428 $181 $292 reversed $177 $-1 #
edge $-1 $429 -49.581591235084076 $296 49.581591235084076 $291 $430 forward 7 unknown #
coedge $-1 $286 $182 $428 $431 forward $295 $-1 #
coedge $-1 $182 $286 $424 $432 reversed $295 $-1 #
loop $-1 $-1 $293 $408 #
vertex $-1 $183 $433 #
vertex $-1 $183 $434 #
straight-curve $-1 49.581591235084076 0 13.002010759448149 0 1 0 I I #
face $-1 $435 $436 $43 $-1 $437 reversed single #
loop $-1 $-1 $438 $184 #
plane-surface $-1 -49.581591235084076 0 0 1 0 0 0 0 -1 forward_v I I I I #
coedge $-1 $310 $439 $304 $440 forward $185 $-1 #
coedge $-1 $190 $187 $441 $442 reversed $117 $-1 #
coedge $-1 $187 $190 $302 $440 reversed $117 $-1 #
coedge $-1 $443 $444 $187 $306 forward $445 $-1 #
edge $-1 $446 -13.002010759448149 $447 13.002010759448149 $305 $448 forward 7 unknown #
coedge $-1 $189 $188 $438 $449 reversed $74 $-1 #
coedge $-1 $441 $450 $188 $309 forward $436 $-1 #
edge $-1 $451 -26.23961887830546 $313 -20.444325835251771 $308 $452 forward 7 unknown #
coedge $-1 $453 $302 $189 $311 forward $185 $-1 #
edge $-1 $312 20.444325835251771 $454 26.23961887830546 $310 $455 forward 7 unknown #
vertex $-1 $311 $456 #
vertex $-1 $309 $457 #
straight-curve $-1 -43.786298192030387 -18.823242258013959 0 0 0 -1 I I #
face $-1 $-1 $327 $44 $-1 $458 forward single #
loop $-1 $-1 $459 $192 #
plane-surface $-1 0 29.848520423086288 0 0 -1 0 0 0 -1 forward_v I I I I #
coedge $-1 $460 $461 $462 $463 reversed $193 $-1 #
coedge $-1 $464 $195 $197 $325 forward $121 $-1 #
coedge $-1 $195 $464 $460 $465 forward $121 $-1 #
coedge $-1 $462 $198 $195 $322 forward $327 $-1 #
edge $-1 $329 -22.739181107319396 $466 -11.384305202073435 $321 $467 forward 7 unknown #
coedge $-1 $468 $469 $196 $324 forward $316 $-1 #
edge $-1 $470 -54.143270817717223 $328 -47.749540673866868 $323 $471 forward 7 unknown #
edge $-1 $329 49.311901739835271 $470 59.697040846172555 $197 $472 forward 7 unknown #
coedge $-1 $198 $462 $468 $473 forward $327 $-1 #
loop $-1 $-1 $462 $315 #
vertex $-1 $324 $474 #
vertex $-1 $199 $475 #
straight-curve $-1 -39.800924262015812 21.928781310539975 13.002010759448147 0 -1 0 I I #
coedge $-1 $331 $331 $-1 $476 reversed $202 $-1 #
edge $-1 $477 0 $477 6.2831853071796004 $203 $478 forward 7 unknown #
vertex $-1 $206 $479 #
ellipse-curve $-1 -36.556674003374113 25.75671980766051 9.805145687522975 0 0.61566148304635926 0.78801074757464917 1.5 0 0 1 I I #
coedge $-1 $335 $335 $-1 $480 reversed $209 $-1 #
edge $-1 $481 0 $481 6.2831853071796004 $210 $482 forward 7 unknown #
vertex $-1 $213 $483 #
ellipse-curve $-1 -31.690298615411557 25.75671980766051 9.805145687522975 0 0.61566148304635926 0.78801074757464917 1.5 0 0 1 I I #
face $-1 $-1 $484 $47 $-1 $485 reversed single #
loop $-1 $-1 $220 $214 #
plane-surface $-1 0 0 13.002010759448149 0 0 1 1 0 0 forward_v I I I I #
coedge $-1 $486 $487 $488 $489 reversed $215 $-1 #
coedge $-1 $490 $217 $219 $349 forward $135 $-1 #
coedge $-1 $217 $490 $486 $491 forward $135 $-1 #
coedge $-1 $488 $220 $217 $346 forward $340 $-1 #
edge $-1 $352 -10.343783298548381 $492 1.0110926066975807 $345 $493 forward 7 unknown #
coedge $-1 $494 $495 $218 $348 forward $484 $-1 #
edge $-1 $496 -54.143270817717223 $351 -47.749540673866868 $347 $497 forward 7 unknown #
edge $-1 $352 49.311901739835271 $496 59.697040846172555 $219 $498 forward 7 unknown #
coedge $-1 $220 $488 $494 $499 forward $340 $-1 #
vertex $-1 $348 $500 #
vertex $-1 $221 $501 #
straight-curve $-1 -15.010128644473781 21.928781310539975 13.002010759448147 0 -1 0 I I #
coedge $-1 $354 $354 $-1 $502 reversed $224 $-1 #
edge $-1 $503 0 $503 6.2831853071796004 $225 $504 forward 7 unknown #
vertex $-1 $228 $505 #
ellipse-curve $-1 -11.765878385832075 25.75671980766051 9.805145687522975 0 0.61566148304635926 0.78801074757464917 1.5 0 0 1 I I #
coedge $-1 $358 $358 $-1 $506 reversed $231 $-1 #
edge $-1 $507 0 $507 6.2831853071796004 $232 $508 forward 7 unknown #
vertex $-1 $235 $509 #
ellipse-curve $-1 -6.8995029978695186 25.75671980766051 9.805145687522975 0 0.61566148304635926 0.78801074757464917 1.5 0 0 1 I I #
face $-1 $-1 $510 $50 $-1 $511 reversed single #
loop $-1 $-1 $242 $236 #
plane-surface $-1 0 0 13.002010759448149 0 0 1 1 0 0 forward_v I I I I #
coedge $-1 $512 $513 $514 $515 reversed $237 $-1 #
coedge $-1 $516 $239 $241 $372 forward $149 $-1 #
coedge $-1 $239 $516 $512 $517 forward $149 $-1 #
coedge $-1 $514 $242 $239 $369 forward $363 $-1 #
edge $-1 $375 2.0516145102226417 $518 13.406490415468603 $368 $519 forward 7 unknown #
coedge $-1 $520 $521 $240 $371 forward $510 $-1 #
edge $-1 $522 -54.143270817717223 $374 -47.749540673866868 $370 $523 forward 7 unknown #
edge $-1 $375 49.311901739835271 $522 59.697040846172555 $241 $524 forward 7 unknown #
coedge $-1 $242 $514 $520 $525 forward $363 $-1 #
vertex $-1 $243 $526 #
vertex $-1 $243 $527 #
straight-curve $-1 9.7806669730682643 21.928781310539975 13.002010759448147 0 -1 0 I I #
coedge $-1 $377 $377 $-1 $528 reversed $246 $-1 #
edge $-1 $529 0 $529 6.2831853071796004 $247 $530 forward 7 unknown #
vertex $-1 $250 $531 #
ellipse-curve $-1 13.024917231709964 25.75671980766051 9.805145687522975 0 0.61566148304635926 0.78801074757464917 1.5 0 0 1 I I #
coedge $-1 $381 $381 $-1 $532 reversed $253 $-1 #
edge $-1 $533 0 $533 6.2831853071796004 $254 $534 forward 7 unknown #
vertex $-1 $257 $535 #
ellipse-curve $-1 17.891292619672512 25.75671980766051 9.805145687522975 0 0.61566148304635926 0.78801074757464917 1.5 0 0 1 I I #
face $-1 $-1 $536 $53 $-1 $537 reversed single #
loop $-1 $-1 $264 $258 #
plane-surface $-1 0 0 13.002010759448149 0 0 1 1 0 0 forward_v I I I I #
coedge $-1 $538 $539 $540 $541 reversed $259 $-1 #
coedge $-1 $542 $261 $263 $395 forward $163 $-1 #
coedge $-1 $261 $542 $538 $543 forward $163 $-1 #
coedge $-1 $540 $264 $261 $392 forward $386 $-1 #
edge $-1 $398 14.447012318993664 $544 25.801888224239626 $391 $545 forward 7 unknown #
coedge $-1 $546 $547 $262 $394 forward $536 $-1 #
edge $-1 $548 -54.143270817717223 $397 -47.749540673866868 $393 $549 forward 7 unknown #
edge $-1 $398 49.311901739835271 $548 59.697040846172555 $263 $550 forward 7 unknown #
coedge $-1 $264 $540 $546 $551 forward $386 $-1 #
vertex $-1 $265 $552 #
vertex $-1 $265 $553 #
straight-curve $-1 34.571462590610309 21.928781310539975 13.002010759448147 0 -1 0 I I #
coedge $-1 $400 $400 $-1 $554 reversed $268 $-1 #
edge $-1 $555 0 $555 6.2831853071796004 $269 $556 forward 7 unknown #
vertex $-1 $272 $557 #
ellipse-curve $-1 37.815712849251994 25.75671980766051 9.805145687522975 0 0.61566148304635926 0.78801074757464917 1.5 0 0 1 I I #
coedge $-1 $404 $404 $-1 $558 reversed $275 $-1 #
edge $-1 $559 0 $559 6.2831853071796004 $276 $560 forward 7 unknown #
vertex $-1 $279 $561 #
ellipse-curve $-1 42.682088237214558 25.75671980766051 9.805145687522975 0 0.61566148304635926 0.78801074757464917 1.5 0 0 1 I I #
face $-1 $-1 $295 $42 $-1 $562 reversed single #
loop $-1 $-1 $424 $280 #
plane-surface $-1 0 29.848520423086288 0 0 -1 0 0 0 -1 forward_v I I I I #
coedge $-1 $563 $422 $425 $564 forward $281 $-1 #
coedge $-1 $428 $283 $284 $416 reversed $177 $-1 #
coedge $-1 $422 $563 $283 $414 reversed $281 $-1 #
edge $-1 $429 -13.002010759448149 $565 13.002010759448149 $413 $566 forward 7 unknown #
coedge $-1 $285 $284 $563 $567 forward $113 $-1 #
edge $-1 $420 -49.581591235084076 $565 49.581591235084076 $412 $568 forward 7 unknown #
coedge $-1 $425 $424 $285 $418 reversed $409 $-1 #
edge $-1 $569 -49.581591235084076 $419 49.581591235084076 $417 $570 forward 7 unknown #
vertex $-1 $287 $571 #
vertex $-1 $431 $572 #
straight-curve $-1 49.581591235084076 0 -13.002010759448149 0 -1 0 I I #
coedge $-1 $411 $413 $288 $423 reversed $281 $-1 #
edge $-1 $426 -29.848520423086288 $429 29.848520423086288 $422 $573 forward 7 unknown #
coedge $-1 $417 $289 $294 $432 forward $409 $-1 #
coedge $-1 $289 $417 $411 $564 reversed $409 $-1 #
vertex $-1 $290 $574 #
straight-curve $-1 0 29.848520423086288 13.002010759448149 -1 0 0 I I #
coedge $-1 $291 $412 $293 $431 reversed $177 $-1 #
vertex $-1 $423 $575 #
straight-curve $-1 0 -29.848520423086288 13.002010759448149 1 0 0 I I #
edge $-1 $296 -13.002010759448149 $420 13.002010759448149 $293 $576 forward 7 unknown #
edge $-1 $297 -13.002010759448149 $419 13.002010759448149 $294 $577 forward 7 unknown #
point $-1 49.581591235084076 -29.848520423086288 13.002010759448149 #
point $-1 49.581591235084076 29.848520423086288 13.002010759448149 #
face $-1 $-1 $445 $43 $-1 $578 reversed single #
loop $-1 $-1 $441 $299 #
plane-surface $-1 0 0 -13.002010759448149 0 0 1 1 0 0 forward_v I I I I #
coedge $-1 $579 $580 $307 $449 forward $300 $-1 #
coedge $-1 $302 $453 $443 $581 forward $185 $-1 #
edge $-1 $447 -17.680579752811227 $312 -6.6553015877388972 $302 $582 forward 7 unknown #
coedge $-1 $583 $308 $303 $442 forward $436 $-1 #
edge $-1 $313 6.6553015877388972 $446 17.680579752811227 $441 $584 forward 7 unknown #
coedge $-1 $585 $305 $439 $581 reversed $445 $-1 #
coedge $-1 $305 $585 $583 $586 reversed $445 $-1 #
loop $-1 $-1 $305 $435 #
vertex $-1 $586 $587 #
vertex $-1 $306 $588 #
straight-curve $-1 -43.786298192030387 -29.848520423086288 0 0 0 1 I I #
edge $-1 $454 -13.002010759448149 $451 13.002010759448149 $438 $589 forward 7 unknown #
coedge $-1 $308 $583 $579 $590 forward $436 $-1 #
vertex $-1 $309 $591 #
straight-curve $-1 -23.341972356778616 -18.823242258013959 -13.002010759448149 1 0 0 I I #
coedge $-1 $439 $310 $580 $592 forward $185 $-1 #
vertex $-1 $592 $593 #
straight-curve $-1 -23.341972356778616 -18.823242258013959 13.002010759448149 -1 0 0 I I #
point $-1 -43.786298192030387 -18.823242258013959 13.002010759448149 #
point $-1 -43.786298192030387 -18.823242258013959 -13.002010759448149 #
plane-surface $-1 0 0 13.002010759448149 0 0 1 1 0 0 forward_v I I I I #
coedge $-1 $469 $468 $461 $594 forward $316 $-1 #
coedge $-1 $461 $318 $320 $465 reversed $193 $-1 #
coedge $-1 $318 $460 $459 $594 reversed $193 $-1 #
coedge $-1 $326 $321 $318 $463 forward $327 $-1 #
edge $-1 $466 -0.26386211830524786 $595 7.9197391125463135 $462 $596 forward 7 unknown #
coedge $-1 $320 $319 $469 $597 reversed $121 $-1 #
edge $-1 $598 -59.697040846172555 $466 -49.311901739835271 $460 $599 forward 7 unknown #
vertex $-1 $322 $600 #
straight-curve $-1 -17.061743154696416 21.664919192234727 13.002010759448144 1 0 0 I I #
coedge $-1 $459 $323 $326 $473 reversed $316 $-1 #
coedge $-1 $323 $459 $464 $597 forward $316 $-1 #
vertex $-1 $324 $601 #
straight-curve $-1 -39.800924262015812 29.848520423086288 60.751551433315015 0 0 1 I I #
straight-curve $-1 -39.800924262015812 -17.193389362100511 43.361449316431475 0 0.78801074757464917 -0.61566148304635926 I I #
edge $-1 $595 28.44604835676985 $328 39.800924262015812 $468 $602 forward 7 unknown #
point $-1 -39.800924262015812 29.848520423086288 13.002010759448149 #
point $-1 -39.800924262015812 21.664919192234727 13.002010759448147 #
edge $-1 $603 1 $603 0 $331 $-1 forward 7 unknown #
vertex $-1 $332 $604 #
ellipse-curve $-1 -36.556674003374113 22.08422681731173 5.1045691101679127 0 0.61566148304635926 0.78801074757464917 1.5 0 0 1 I I #
point $-1 -35.056674003374113 25.756719807660506 9.8051456875229732 #
edge $-1 $605 1 $605 0 $335 $-1 forward 7 unknown #
vertex $-1 $336 $606 #
ellipse-curve $-1 -31.690298615411557 22.08422681731173 5.1045691101679127 0 0.61566148304635926 0.78801074757464917 1.5 0 0 1 I I #
point $-1 -30.190298615411557 25.756719807660506 9.8051456875229732 #
loop $-1 $-1 $347 $339 #
plane-surface $-1 0 29.848520423086288 0 0 -1 0 0 0 -1 forward_v I I I I #
coedge $-1 $487 $342 $344 $491 reversed $215 $-1 #
coedge $-1 $342 $486 $607 $608 reversed $215 $-1 #
coedge $-1 $350 $345 $342 $489 forward $340 $-1 #
edge $-1 $492 -0.26386211830524786 $609 7.9197391125463135 $488 $610 forward 7 unknown #
coedge $-1 $344 $343 $495 $611 reversed $135 $-1 #
edge $-1 $612 -59.697040846172555 $492 -49.311901739835271 $486 $613 forward 7 unknown #
vertex $-1 $346 $614 #
straight-curve $-1 -4.6663453459254001 21.664919192234727 13.002010759448144 1 0 0 I I #
coedge $-1 $607 $347 $350 $499 reversed $484 $-1 #
coedge $-1 $347 $607 $490 $611 forward $484 $-1 #
vertex $-1 $348 $615 #
straight-curve $-1 -15.010128644473781 29.848520423086288 60.751551433315015 0 0 1 I I #
straight-curve $-1 -15.010128644473781 -17.193389362100511 43.361449316431475 0 0.78801074757464917 -0.61566148304635926 I I #
edge $-1 $609 3.6552527392278193 $351 15.010128644473781 $494 $616 forward 7 unknown #
point $-1 -15.010128644473781 29.848520423086288 13.002010759448149 #
point $-1 -15.010128644473781 21.664919192234727 13.002010759448147 #
edge $-1 $617 1 $617 0 $354 $-1 forward 7 unknown #
vertex $-1 $355 $618 #
ellipse-curve $-1 -11.765878385832075 22.08422681731173 5.1045691101679127 0 0.61566148304635926 0.78801074757464917 1.5 0 0 1 I I #
point $-1 -10.265878385832075 25.756719807660506 9.8051456875229732 #
edge $-1 $619 1 $619 0 $358 $-1 forward 7 unknown #
vertex $-1 $359 $620 #
ellipse-curve $-1 -6.8995029978695186 22.08422681731173 5.1045691101679127 0 0.61566148304635926 0.78801074757464917 1.5 0 0 1 I I #
point $-1 -5.3995029978695186 25.756719807660506 9.8051456875229732 #
loop $-1 $-1 $370 $362 #
plane-surface $-1 0 29.848520423086288 0 0 -1 0 0 0 -1 forward_v I I I I #
coedge $-1 $513 $365 $367 $517 reversed $237 $-1 #
coedge $-1 $365 $512 $621 $622 reversed $237 $-1 #
coedge $-1 $373 $368 $365 $515 forward $363 $-1 #
edge $-1 $518 -0.26386211830524786 $623 7.9197391125463135 $514 $624 forward 7 unknown #
coedge $-1 $367 $366 $521 $625 reversed $149 $-1 #
edge $-1 $626 -59.697040846172555 $518 -49.311901739835271 $512 $627 forward 7 unknown #
vertex $-1 $369 $628 #
straight-curve $-1 7.7290524628456225 21.664919192234727 13.002010759448144 1 0 0 I I #
coedge $-1 $621 $370 $373 $525 reversed $510 $-1 #
coedge $-1 $370 $621 $516 $625 forward $510 $-1 #
vertex $-1 $371 $629 #
straight-curve $-1 9.7806669730682643 29.848520423086288 60.751551433315015 0 0 1 I I #
straight-curve $-1 9.7806669730682643 -17.193389362100511 43.361449316431475 0 0.78801074757464917 -0.61566148304635926 I I #
edge $-1 $623 -21.135542878314226 $374 -9.7806669730682643 $520 $630 forward 7 unknown #
point $-1 9.7806669730682643 29.848520423086288 13.002010759448149 #
point $-1 9.7806669730682643 21.664919192234727 13.002010759448147 #
edge $-1 $631 1 $631 0 $377 $-1 forward 7 unknown #
vertex $-1 $378 $632 #
ellipse-curve $-1 13.024917231709964 22.08422681731173 5.1045691101679127 0 0.61566148304635926 0.78801074757464917 1.5 0 0 1 I I #
point $-1 14.524917231709964 25.756719807660506 9.8051456875229732 #
edge $-1 $633 1 $633 0 $381 $-1 forward 7 unknown #
vertex $-1 $382 $634 #
ellipse-curve $-1 17.891292619672512 22.08422681731173 5.1045691101679127 0 0.61566148304635926 0.78801074757464917 1.5 0 0 1 I I #
point $-1 19.391292619672512 25.756719807660506 9.8051456875229732 #
loop $-1 $-1 $393 $385 #
plane-surface $-1 0 29.848520423086288 0 0 -1 0 0 0 -1 forward_v I I I I #
coedge $-1 $539 $388 $390 $543 reversed $259 $-1 #
coedge $-1 $388 $538 $635 $636 reversed $259 $-1 #
coedge $-1 $396 $391 $388 $541 forward $386 $-1 #
edge $-1 $544 -0.26386211830524786 $637 7.9197391125463135 $540 $638 forward 7 unknown #
coedge $-1 $390 $389 $547 $639 reversed $163 $-1 #
edge $-1 $640 -59.697040846172555 $544 -49.311901739835271 $538 $641 forward 7 unknown #
vertex $-1 $392 $642 #
straight-curve $-1 20.124450271616645 21.664919192234727 13.002010759448144 1 0 0 I I #
coedge $-1 $635 $393 $396 $551 reversed $536 $-1 #
coedge $-1 $393 $635 $542 $639 forward $536 $-1 #
vertex $-1 $394 $643 #
straight-curve $-1 34.571462590610309 29.848520423086288 60.751551433315015 0 0 1 I I #
straight-curve $-1 34.571462590610309 -17.193389362100511 43.361449316431475 0 0.78801074757464917 -0.61566148304635926 I I #
edge $-1 $637 -45.926338495856271 $397 -34.571462590610309 $546 $644 forward 7 unknown #
point $-1 34.571462590610309 29.848520423086288 13.002010759448149 #
point $-1 34.571462590610309 21.664919192234727 13.002010759448147 #
edge $-1 $645 1 $645 0 $400 $-1 forward 7 unknown #
vertex $-1 $401 $646 #
ellipse-curve $-1 37.815712849251994 22.08422681731173 5.1045691101679127 0 0.61566148304635926 0.78801074757464917 1.5 0 0 1 I I #
point $-1 39.315712849251994 25.756719807660506 9.8051456875229732 #
edge $-1 $647 1 $647 0 $404 $-1 forward 7 unknown #
vertex $-1 $405 $648 #
ellipse-curve $-1 42.682088237214558 22.08422681731173 5.1045691101679127 0 0.61566148304635926 0.78801074757464917 1.5 0 0 1 I I #
point $-1 44.182088237214558 25.756719807660506 9.8051456875229732 #
plane-surface $-1 49.581591235084076 0 0 -1 0 0 0 0 1 forward_v I I I I #
coedge $-1 $413 $411 $415 $567 reversed $281 $-1 #
edge $-1 $426 -13.002010759448149 $569 13.002010759448149 $425 $649 forward 7 unknown #
vertex $-1 $567 $650 #
straight-curve $-1 -49.581591235084076 -29.848520423086288 0 0 0 -1 I I #
edge $-1 $565 -29.848520423086288 $569 29.848520423086288 $563 $651 forward 7 unknown #
straight-curve $-1 0 -29.848520423086288 -13.002010759448149 -1 0 0 I I #
vertex $-1 $418 $652 #
straight-curve $-1 0 29.848520423086288 -13.002010759448149 1 0 0 I I #
point $-1 49.581591235084076 29.848520423086288 -13.002010759448149 #
point $-1 49.581591235084076 -29.848520423086288 -13.002010759448149 #
straight-curve $-1 -49.581591235084076 0 13.002010759448149 0 -1 0 I I #
point $-1 -49.581591235084076 29.848520423086288 13.002010759448149 #
point $-1 -49.581591235084076 -29.848520423086288 13.002010759448149 #
straight-curve $-1 49.581591235084076 -29.848520423086288 0 0 0 -1 I I #
straight-curve $-1 49.581591235084076 29.848520423086288 0 0 0 -1 I I #
plane-surface $-1 0 -29.848520423086288 0 0 1 0 0 0 1 forward_v I I I I #
coedge $-1 $653 $438 $450 $590 reversed $300 $-1 #
coedge $-1 $438 $653 $453 $592 reversed $300 $-1 #
edge $-1 $654 -49.581591235084076 $447 -43.786298192030387 $443 $655 forward 7 unknown #
straight-curve $-1 -43.786298192030387 -12.167940670275062 13.002010759448149 0 1 0 I I #
coedge $-1 $450 $441 $444 $586 forward $436 $-1 #
straight-curve $-1 -43.786298192030387 -12.167940670275062 -13.002010759448149 0 -1 0 I I #
coedge $-1 $444 $443 $653 $656 forward $445 $-1 #
edge $-1 $446 43.786298192030387 $657 49.581591235084076 $444 $658 forward 7 unknown #
point $-1 -43.786298192030387 -29.848520423086288 -13.002010759448149 #
point $-1 -43.786298192030387 -29.848520423086288 13.002010759448149 #
straight-curve $-1 -49.581591235084076 -18.823242258013959 0 0 0 -1 I I #
edge $-1 $657 -29.848520423086288 $451 -18.823242258013959 $579 $659 forward 7 unknown #
point $-1 -49.581591235084076 -18.823242258013959 -13.002010759448149 #
edge $-1 $454 18.823242258013959 $654 29.848520423086288 $580 $660 forward 7 unknown #
point $-1 -49.581591235084076 -18.823242258013959 13.002010759448149 #
edge $-1 $595 47.749540673866868 $598 54.143270817717223 $459 $661 forward 7 unknown #
vertex $-1 $473 $662 #
straight-curve $-1 -28.44604835676985 21.928781310539975 13.002010759448147 0 1 0 I I #
edge $-1 $598 11.384305202073435 $470 22.739181107319396 $469 $663 forward 7 unknown #
vertex $-1 $597 $664 #
straight-curve $-1 -28.44604835676985 -17.193389362100511 43.361449316431475 0 -0.78801074757464917 0.61566148304635926 I I #
point $-1 -28.44604835676985 21.664919192234727 13.002010759448147 #
point $-1 -39.800924262015812 29.848520423086292 6.608280615597792 #
straight-curve $-1 0 29.848520423086288 13.002010759448149 -1 0 0 I I #
vertex $-1 $476 $665 #
point $-1 -35.056674003374113 22.08422681731173 5.1045691101679127 #
vertex $-1 $480 $666 #
point $-1 -30.190298615411557 22.08422681731173 5.1045691101679127 #
coedge $-1 $495 $494 $487 $608 forward $484 $-1 #
edge $-1 $609 47.749540673866868 $612 54.143270817717223 $607 $667 forward 7 unknown #
vertex $-1 $499 $668 #
straight-curve $-1 -3.6552527392278193 21.928781310539975 13.002010759448147 0 1 0 I I #
edge $-1 $612 -1.0110926066975807 $496 10.343783298548381 $495 $669 forward 7 unknown #
vertex $-1 $611 $670 #
straight-curve $-1 -3.6552527392278193 -17.193389362100511 43.361449316431475 0 -0.78801074757464917 0.61566148304635926 I I #
point $-1 -3.6552527392278193 21.664919192234727 13.002010759448147 #
point $-1 -15.010128644473781 29.848520423086292 6.608280615597792 #
straight-curve $-1 0 29.848520423086288 13.002010759448149 -1 0 0 I I #
vertex $-1 $502 $671 #
point $-1 -10.265878385832075 22.08422681731173 5.1045691101679127 #
vertex $-1 $506 $672 #
point $-1 -5.3995029978695186 22.08422681731173 5.1045691101679127 #
coedge $-1 $521 $520 $513 $622 forward $510 $-1 #
edge $-1 $623 47.749540673866868 $626 54.143270817717223 $621 $673 forward 7 unknown #
vertex $-1 $525 $674 #
straight-curve $-1 21.135542878314226 21.928781310539975 13.002010759448147 0 1 0 I I #
edge $-1 $626 -13.406490415468603 $522 -2.0516145102226417 $521 $675 forward 7 unknown #
vertex $-1 $625 $676 #
straight-curve $-1 21.135542878314226 -17.193389362100511 43.361449316431475 0 -0.78801074757464917 0.61566148304635926 I I #
point $-1 21.135542878314226 21.664919192234727 13.002010759448147 #
point $-1 9.7806669730682643 29.848520423086292 6.608280615597792 #
straight-curve $-1 0 29.848520423086288 13.002010759448149 -1 0 0 I I #
vertex $-1 $528 $677 #
point $-1 14.524917231709964 22.08422681731173 5.1045691101679127 #
vertex $-1 $532 $678 #
point $-1 19.391292619672512 22.08422681731173 5.1045691101679127 #
coedge $-1 $547 $546 $539 $636 forward $536 $-1 #
edge $-1 $637 47.749540673866868 $640 54.143270817717223 $635 $679 forward 7 unknown #
vertex $-1 $551 $680 #
straight-curve $-1 45.926338495856271 21.928781310539975 13.002010759448147 0 1 0 I I #
edge $-1 $640 -25.801888224239626 $548 -14.447012318993664 $547 $681 forward 7 unknown #
vertex $-1 $639 $682 #
straight-curve $-1 45.926338495856271 -17.193389362100511 43.361449316431475 0 -0.78801074757464917 0.61566148304635926 I I #
point $-1 45.926338495856271 21.664919192234727 13.002010759448147 #
point $-1 34.571462590610309 29.848520423086292 6.608280615597792 #
straight-curve $-1 0 29.848520423086288 13.002010759448149 -1 0 0 I I #
vertex $-1 $554 $683 #
point $-1 39.315712849251994 22.08422681731173 5.1045691101679127 #
vertex $-1 $558 $684 #
point $-1 44.182088237214558 22.08422681731173 5.1045691101679127 #
straight-curve $-1 -49.581591235084076 29.848520423086288 0 0 0 -1 I I #
point $-1 -49.581591235084076 -29.848520423086288 -13.002010759448149 #
straight-curve $-1 -49.581591235084076 0 -13.002010759448149 0 1 0 I I #
point $-1 -49.581591235084076 29.848520423086288 -13.002010759448149 #
coedge $-1 $580 $579 $585 $656 reversed $300 $-1 #
vertex $-1 $592 $685 #
straight-curve $-1 0 -29.848520423086288 13.002010759448149 1 0 0 I I #
edge $-1 $654 -13.002010759448149 $657 13.002010759448149 $653 $686 forward 7 unknown #
vertex $-1 $590 $687 #
straight-curve $-1 0 -29.848520423086288 -13.002010759448149 -1 0 0 I I #
straight-curve $-1 -49.581591235084076 0 -13.002010759448149 0 1 0 I I #
straight-curve $-1 -49.581591235084076 0 13.002010759448149 0 -1 0 I I #
straight-curve $-1 -28.44604835676985 29.848520423086288 60.751551433315015 0 0 -1 I I #
point $-1 -28.44604835676985 29.848520423086288 13.002010759448149 #
straight-curve $-1 -17.061743154696416 29.848520423086292 6.6082806155977956 -1 0 0 I I #
point $-1 -28.44604835676985 29.848520423086292 6.608280615597792 #
point $-1 -36.556674003374113 21.160734592742195 3.9225529888059389 #
point $-1 -31.690298615411557 21.160734592742195 3.9225529888059389 #
straight-curve $-1 -3.6552527392278193 29.848520423086288 60.751551433315015 0 0 -1 I I #
point $-1 -3.6552527392278193 29.848520423086288 13.002010759448149 #
straight-curve $-1 -4.6663453459254001 29.848520423086292 6.6082806155977956 -1 0 0 I I #
point $-1 -3.6552527392278193 29.848520423086292 6.608280615597792 #
point $-1 -11.765878385832075 21.160734592742195 3.9225529888059389 #
point $-1 -6.8995029978695186 21.160734592742195 3.9225529888059389 #
straight-curve $-1 21.135542878314226 29.848520423086288 60.751551433315015 0 0 -1 I I #
point $-1 21.135542878314226 29.848520423086288 13.002010759448149 #
straight-curve $-1 7.7290524628456225 29.848520423086292 6.6082806155977956 -1 0 0 I I #
point $-1 21.135542878314226 29.848520423086292 6.608280615597792 #
point $-1 13.024917231709964 21.160734592742195 3.9225529888059389 #
point $-1 17.891292619672512 21.160734592742195 3.9225529888059389 #
straight-curve $-1 45.926338495856271 29.848520423086288 60.751551433315015 0 0 -1 I I #
point $-1 45.926338495856271 29.848520423086288 13.002010759448149 #
straight-curve $-1 20.124450271616645 29.848520423086292 6.6082806155977956 -1 0 0 I I #
point $-1 45.926338495856271 29.848520423086292 6.608280615597792 #
point $-1 37.815712849251994 21.160734592742195 3.9225529888059389 #
point $-1 42.682088237214558 21.160734592742195 3.9225529888059389 #
point $-1 -49.581591235084076 -29.848520423086288 13.002010759448149 #
straight-curve $-1 -49.581591235084076 -29.848520423086288 0 0 0 -1 I I #
point $-1 -49.581591235084076 -29.848520423086288 -13.002010759448149 #
End-of-ACIS-data 