500 0 8 0           
7 Unknown 11 ACIS 5.0 NT 24 Thu Mar 25 21:09:32 1999 
-1 9.9999999999999995e-007 1e-010 
body $-1 $8 $-1 $9 #
body $-1 $10 $-1 $11 #
body $-1 $12 $-1 $13 #
body $-1 $14 $-1 $15 #
body $-1 $16 $-1 $17 #
body $-1 $18 $-1 $19 #
body $-1 $20 $-1 $21 #
body $-1 $22 $-1 $23 #
lump $-1 $-1 $24 $0 #
transform $-1 1 0 0 0 1 0 0 0 1 73.696096682638029 51.336943401569329 17.40132337328868 1 rotate no_reflect no_shear #
lump $-1 $-1 $25 $1 #
transform $-1 1 0 0 0 1 0 0 0 1 73.696096682638029 51.336943401569329 17.40132337328868 1 rotate no_reflect no_shear #
lump $-1 $-1 $26 $2 #
transform $-1 1 0 0 0 1 0 0 0 1 73.696096682638029 51.336943401569329 17.40132337328868 1 rotate no_reflect no_shear #
lump $-1 $-1 $27 $3 #
transform $-1 1 0 0 0 1 0 0 0 1 73.696096682638029 51.336943401569329 17.40132337328868 1 rotate no_reflect no_shear #
lump $-1 $-1 $28 $4 #
transform $-1 1 0 0 0 1 0 0 0 1 73.696096682638029 51.336943401569329 17.40132337328868 1 rotate no_reflect no_shear #
lump $-1 $-1 $29 $5 #
transform $-1 1 0 0 0 1 0 0 0 1 73.696096682638029 51.336943401569329 17.40132337328868 1 rotate no_reflect no_shear #
lump $-1 $-1 $30 $6 #
transform $-1 1 0 0 0 1 0 0 0 1 73.696096682638029 51.336943401569329 17.40132337328868 1 rotate no_reflect no_shear #
lump $-1 $-1 $31 $7 #
transform $-1 1 0 0 0 1 0 0 0 1 73.696096682638029 51.336943401569329 17.40132337328868 1 rotate no_reflect no_shear #
shell $-1 $-1 $-1 $32 $-1 $8 #
shell $-1 $-1 $-1 $33 $-1 $10 #
shell $-1 $-1 $-1 $34 $-1 $12 #
shell $-1 $-1 $-1 $35 $-1 $14 #
shell $-1 $-1 $-1 $36 $-1 $16 #
shell $-1 $-1 $-1 $37 $-1 $18 #
shell $-1 $-1 $-1 $38 $-1 $20 #
shell $-1 $-1 $-1 $39 $-1 $22 #
face $-1 $40 $41 $24 $-1 $42 forward single #
face $-1 $43 $44 $25 $-1 $45 reversed single #
face $-1 $46 $47 $26 $-1 $48 reversed single #
face $-1 $49 $50 $27 $-1 $51 forward single #
face $-1 $52 $53 $28 $-1 $54 forward single #
face $-1 $55 $56 $29 $-1 $57 reversed single #
face $-1 $58 $59 $30 $-1 $60 forward single #
face $-1 $61 $62 $31 $-1 $63 forward single #
face $-1 $64 $65 $24 $-1 $66 reversed single #
loop $-1 $-1 $67 $32 #
plane-surface $-1 0 0 17.40132337328868 0 0 1 1 0 0 forward_v I I I I #
face $-1 $68 $69 $25 $-1 $70 reversed single #
loop $-1 $-1 $71 $33 #
plane-surface $-1 -65.326268824583224 -42.705500394952892 0 1 0 0 0 0 -1 forward_v I I I I #
face $-1 $72 $73 $26 $-1 $74 reversed single #
loop $-1 $-1 $75 $34 #
plane-surface $-1 -158.23678678860955 20.033106997842033 124.22146614357621 0 1 0 -0.57357644374324357 0 0.81915203911291934 forward_v I I I I #
face $-1 $76 $77 $27 $-1 $78 forward single #
loop $-1 $79 $80 $35 #
cone-surface $-1 -62.898550694770456 25.155853044024099 9.2146588191084895 0.57357644374324357 0 -0.81915203911291934 1.228728058669379 0 0.86036466561486535 1 I I 0 1 1.5 forward I I I I #
face $-1 $81 $82 $28 $-1 $83 forward single #
loop $-1 $84 $85 $36 #
cone-surface $-1 -62.898550694770456 32.839972113297193 9.2146588191084895 0.57357644374324357 0 -0.81915203911291934 1.228728058669379 0 0.86036466561486535 1 I I 0 1 1.5 forward I I I I #
face $-1 $86 $87 $29 $-1 $88 reversed single #
loop $-1 $-1 $89 $37 #
plane-surface $-1 80.970691253400361 34.564669937942853 209.16135308112729 0 1 0 0.73135370988377701 0 0.68199835119979291 forward_v I I I I #
face $-1 $90 $91 $30 $-1 $92 forward single #
loop $-1 $93 $94 $38 #
cone-surface $-1 63.944906870412062 39.356748070407562 7.2285439816057258 -0.73135370988377701 0 -0.68199835119979291 1.0229975267996894 0 -1.0970305648256655 1 I I 0 1 1.5 forward I I I I #
face $-1 $95 $96 $31 $-1 $97 forward single #
loop $-1 $98 $99 $39 #
cone-surface $-1 63.944906870412062 46.544865269104619 7.2285439816057258 -0.73135370988377701 0 -0.68199835119979291 1.0229975267996894 0 -1.0970305648256655 1 I I 0 1 1.5 forward I I I I #
face $-1 $100 $101 $24 $-1 $102 reversed single #
loop $-1 $-1 $103 $40 #
plane-surface $-1 0 0 -17.40132337328868 0 0 1 1 0 0 forward_v I I I I #
coedge $-1 $104 $105 $106 $107 forward $41 $-1 #
face $-1 $108 $109 $25 $-1 $110 reversed single #
loop $-1 $-1 $111 $43 #
plane-surface $-1 -62.492785110536111 -34.074057388336456 0 0 -1 0 0 0 -1 forward_v I I I I #
coedge $-1 $112 $113 $114 $115 forward $44 $-1 #
face $-1 $116 $117 $26 $-1 $118 reversed single #
loop $-1 $-1 $119 $46 #
plane-surface $-1 -73.696096682638014 28.997912578660646 3.4848503990846211 -0.57357644374324357 0 0.81915203911291934 0.81915203911291934 0 0.57357644374324357 forward_v I I I I #
coedge $-1 $120 $121 $122 $123 reversed $47 $-1 #
face $-1 $-1 $124 $27 $-1 $125 forward single #
loop $-1 $126 $127 $49 #
cone-surface $-1 -61.60821375272576 25.155853044024099 7.3718667226956356 0.57357644374324357 0 -0.81915203911291934 0.61436402933468948 0 0.43018233280743268 1 I I -0.70710678118654757 0.70710678118654757 0.75 forward I I I I #
loop $-1 $-1 $128 $35 #
coedge $-1 $80 $80 $129 $130 reversed $50 $-1 #
face $-1 $-1 $131 $28 $-1 $132 forward single #
loop $-1 $133 $134 $52 #
cone-surface $-1 -61.60821375272576 32.839972113297193 7.3718667226956356 0.57357644374324357 0 -0.81915203911291934 0.61436402933468948 0 0.43018233280743268 1 I I -0.70710678118654757 0.70710678118654757 0.75 forward I I I I #
loop $-1 $-1 $135 $36 #
coedge $-1 $85 $85 $136 $137 reversed $53 $-1 #
face $-1 $138 $139 $29 $-1 $140 forward single #
loop $-1 $-1 $141 $55 #
plane-surface $-1 -26.825136172201312 42.950806669756091 108.64012022628796 0.73135370988377701 0 0.68199835119979291 0.68199835119979291 0 -0.73135370988377701 forward_v I I I I #
coedge $-1 $142 $143 $144 $145 reversed $56 $-1 #
face $-1 $-1 $146 $30 $-1 $147 forward single #
loop $-1 $148 $149 $58 #
cone-surface $-1 61.365041983512015 39.356748070407562 4.8227811128241136 -0.73135370988377701 0 -0.68199835119979291 0.51149876339984468 0 -0.54851528241283276 1 I I -0.70710678118654757 0.70710678118654757 0.75 forward I I I I #
loop $-1 $-1 $150 $38 #
coedge $-1 $94 $94 $151 $152 reversed $59 $-1 #
face $-1 $-1 $153 $31 $-1 $154 forward single #
loop $-1 $155 $156 $61 #
cone-surface $-1 61.365041983512015 46.544865269104619 4.8227811128241136 -0.73135370988377701 0 -0.68199835119979291 0.51149876339984468 0 -0.54851528241283276 1 I I -0.70710678118654757 0.70710678118654757 0.75 forward I I I I #
loop $-1 $-1 $157 $39 #
coedge $-1 $99 $99 $158 $159 reversed $62 $-1 #
face $-1 $160 $161 $24 $-1 $162 reversed single #
loop $-1 $-1 $163 $64 #
plane-surface $-1 0 -51.336943401569329 0 0 1 0 0 0 1 forward_v I I I I #
coedge $-1 $164 $165 $166 $167 forward $65 $-1 #
coedge $-1 $168 $67 $169 $170 forward $41 $-1 #
coedge $-1 $67 $168 $171 $172 forward $41 $-1 #
coedge $-1 $173 $174 $67 $107 reversed $175 $-1 #
edge $-1 $176 -51.336943401569329 $177 51.336943401569329 $106 $178 forward 7 unknown #
face $-1 $179 $180 $25 $-1 $181 forward single #
loop $-1 $-1 $182 $68 #
plane-surface $-1 -59.659301396488999 -42.705500394952892 0 -1 0 0 0 0 1 forward_v I I I I #
coedge $-1 $183 $184 $185 $186 forward $69 $-1 #
coedge $-1 $187 $71 $188 $189 reversed $44 $-1 #
coedge $-1 $71 $187 $190 $191 reversed $44 $-1 #
coedge $-1 $184 $183 $71 $115 reversed $69 $-1 #
edge $-1 $192 -17.40132337328868 $193 17.40132337328868 $114 $194 forward 7 unknown #
face $-1 $195 $196 $26 $-1 $197 reversed single #
loop $-1 $-1 $198 $72 #
plane-surface $-1 -158.23678678860955 37.962718159479259 124.22146614357621 0 -1 0 0.57357644374324357 0 -0.81915203911291934 forward_v I I I I #
coedge $-1 $199 $200 $201 $202 reversed $73 $-1 #
coedge $-1 $121 $75 $203 $204 reversed $47 $-1 #
coedge $-1 $75 $120 $199 $205 reversed $47 $-1 #
coedge $-1 $201 $206 $75 $123 forward $207 $-1 #
edge $-1 $208 5.4222967116667462 $209 25.297079468927386 $122 $210 forward 7 unknown #
loop $-1 $-1 $129 $76 #
plane-surface $-1 -73.696096682638014 28.997912578660646 3.4848503990846211 -0.57357644374324357 0 0.81915203911291934 0.81915203911291934 0 0.57357644374324357 forward_v I I I I #
loop $-1 $-1 $211 $49 #
coedge $-1 $127 $127 $128 $212 reversed $77 $-1 #
coedge $-1 $128 $128 $127 $212 forward $79 $-1 #
coedge $-1 $129 $129 $80 $130 forward $124 $-1 #
edge $-1 $213 0 $213 6.2831853071796004 $129 $214 forward 7 unknown #
loop $-1 $-1 $136 $81 #
plane-surface $-1 -73.696096682638014 28.997912578660646 3.4848503990846211 -0.57357644374324357 0 0.81915203911291934 0.81915203911291934 0 0.57357644374324357 forward_v I I I I #
loop $-1 $-1 $215 $52 #
coedge $-1 $134 $134 $135 $216 reversed $82 $-1 #
coedge $-1 $135 $135 $134 $216 forward $84 $-1 #
coedge $-1 $136 $136 $85 $137 forward $131 $-1 #
edge $-1 $217 0 $217 6.2831853071796004 $136 $218 forward 7 unknown #
face $-1 $219 $220 $29 $-1 $221 reversed single #
loop $-1 $-1 $222 $86 #
plane-surface $-1 0 0 17.40132337328868 0 0 1 1 0 0 forward_v I I I I #
coedge $-1 $223 $224 $225 $226 reversed $87 $-1 #
coedge $-1 $143 $89 $227 $228 reversed $56 $-1 #
coedge $-1 $89 $142 $223 $229 reversed $56 $-1 #
coedge $-1 $225 $230 $89 $145 forward $231 $-1 #
edge $-1 $232 87.179353167274968 $233 103.73638373987737 $144 $234 forward 7 unknown #
loop $-1 $-1 $151 $90 #
plane-surface $-1 -26.825136172201312 42.950806669756091 108.64012022628796 0.73135370988377701 0 0.68199835119979291 0.68199835119979291 0 -0.73135370988377701 forward_v I I I I #
loop $-1 $-1 $235 $58 #
coedge $-1 $149 $149 $150 $236 reversed $91 $-1 #
coedge $-1 $150 $150 $149 $236 forward $93 $-1 #
coedge $-1 $151 $151 $94 $152 forward $146 $-1 #
edge $-1 $237 0 $237 6.2831853071796004 $151 $238 forward 7 unknown #
loop $-1 $-1 $158 $95 #
plane-surface $-1 -26.825136172201312 42.950806669756091 108.64012022628796 0.73135370988377701 0 0.68199835119979291 0.68199835119979291 0 -0.73135370988377701 forward_v I I I I #
loop $-1 $-1 $239 $61 #
coedge $-1 $156 $156 $157 $240 reversed $96 $-1 #
coedge $-1 $157 $157 $156 $240 forward $98 $-1 #
coedge $-1 $158 $158 $99 $159 forward $153 $-1 #
edge $-1 $241 0 $241 6.2831853071796004 $158 $242 forward 7 unknown #
face $-1 $243 $244 $24 $-1 $245 reversed single #
loop $-1 $-1 $246 $100 #
plane-surface $-1 -73.696096682638029 0 0 1 0 0 0 0 -1 forward_v I I I I #
coedge $-1 $247 $171 $248 $249 forward $101 $-1 #
coedge $-1 $250 $103 $247 $251 forward $65 $-1 #
coedge $-1 $103 $250 $252 $253 forward $65 $-1 #
coedge $-1 $174 $173 $103 $167 reversed $175 $-1 #
edge $-1 $254 -51.336943401569329 $255 51.336943401569329 $166 $256 forward 7 unknown #
coedge $-1 $105 $104 $257 $258 forward $41 $-1 #
coedge $-1 $259 $260 $104 $170 reversed $244 $-1 #
edge $-1 $177 -73.696096682638029 $261 73.696096682638029 $169 $262 forward 7 unknown #
coedge $-1 $163 $263 $105 $172 reversed $101 $-1 #
edge $-1 $264 -73.696096682638029 $176 73.696096682638029 $171 $265 forward 7 unknown #
coedge $-1 $166 $106 $263 $266 forward $175 $-1 #
coedge $-1 $106 $166 $259 $267 reversed $175 $-1 #
loop $-1 $-1 $173 $243 #
vertex $-1 $107 $268 #
vertex $-1 $107 $269 #
straight-curve $-1 73.696096682638029 0 17.40132337328868 0 1 0 I I #
face $-1 $270 $271 $25 $-1 $272 reversed single #
loop $-1 $-1 $273 $108 #
plane-surface $-1 0 0 17.40132337328868 0 0 1 1 0 0 forward_v I I I I #
coedge $-1 $274 $275 $276 $277 reversed $109 $-1 #
coedge $-1 $114 $111 $278 $279 reversed $69 $-1 #
coedge $-1 $111 $114 $280 $281 reversed $69 $-1 #
coedge $-1 $275 $274 $111 $186 reversed $109 $-1 #
edge $-1 $282 -17.40132337328868 $283 17.40132337328868 $185 $284 forward 7 unknown #
coedge $-1 $113 $112 $285 $286 reversed $44 $-1 #
coedge $-1 $278 $287 $112 $189 forward $271 $-1 #
edge $-1 $288 -29.984193204092882 $193 -12.72130719086001 $188 $289 forward 7 unknown #
coedge $-1 $290 $280 $113 $191 forward $180 $-1 #
edge $-1 $192 12.72130719086001 $291 29.984193204092882 $190 $292 forward 7 unknown #
vertex $-1 $191 $293 #
vertex $-1 $189 $294 #
straight-curve $-1 -65.326268824583224 -34.074057388336456 0 0 0 -1 I I #
face $-1 $-1 $207 $26 $-1 $295 forward single #
loop $-1 $-1 $296 $116 #
plane-surface $-1 -73.696096682638029 0 0 1 0 0 0 0 -1 forward_v I I I I #
coedge $-1 $297 $298 $299 $300 reversed $117 $-1 #
coedge $-1 $301 $119 $121 $205 forward $73 $-1 #
coedge $-1 $119 $301 $297 $302 forward $73 $-1 #
coedge $-1 $299 $122 $119 $202 forward $207 $-1 #
edge $-1 $209 5.5341507085117101 $303 23.463761870148936 $201 $304 forward 7 unknown #
coedge $-1 $305 $306 $120 $204 forward $196 $-1 #
edge $-1 $307 -58.62588267270349 $208 -44.709409698499428 $203 $308 forward 7 unknown #
edge $-1 $209 -24.262629900529255 $307 1.7244671030687178e-014 $121 $309 forward 7 unknown #
coedge $-1 $122 $299 $305 $310 forward $207 $-1 #
loop $-1 $-1 $299 $195 #
vertex $-1 $204 $311 #
vertex $-1 $123 $312 #
straight-curve $-1 -79.118393394304775 20.033106997842033 17.401323373288676 1 0 0 I I #
coedge $-1 $211 $211 $-1 $313 reversed $126 $-1 #
edge $-1 $314 0 $314 6.2831853071796004 $127 $315 forward 7 unknown #
vertex $-1 $130 $316 #
ellipse-curve $-1 -63.758705304007712 25.155853044024099 10.443086886186643 -0.57357644374324357 0 0.81915203911291934 1.228728058669379 0 0.86036466561486535 1 I I #
coedge $-1 $215 $215 $-1 $317 reversed $133 $-1 #
edge $-1 $318 0 $318 6.2831853071796004 $134 $319 forward 7 unknown #
vertex $-1 $137 $320 #
ellipse-curve $-1 -63.758705304007712 32.839972113297193 10.443086886186643 -0.57357644374324357 0 0.81915203911291934 1.228728058669379 0 0.86036466561486535 1 I I #
face $-1 $-1 $231 $29 $-1 $321 reversed single #
loop $-1 $-1 $322 $138 #
plane-surface $-1 0 51.336943401569329 0 0 -1 0 0 0 -1 forward_v I I I I #
coedge $-1 $227 $323 $324 $325 forward $139 $-1 #
coedge $-1 $324 $141 $143 $229 forward $87 $-1 #
coedge $-1 $141 $324 $322 $326 reversed $87 $-1 #
coedge $-1 $327 $144 $141 $226 forward $231 $-1 #
edge $-1 $233 13.089266603064807 $328 29.861540066691283 $225 $329 forward 7 unknown #
coedge $-1 $330 $222 $142 $228 forward $139 $-1 #
edge $-1 $331 17.771070640460309 $232 33.210751055937848 $227 $332 forward 7 unknown #
edge $-1 $233 -147.39219336527606 $331 -124.75331104493677 $143 $333 forward 7 unknown #
coedge $-1 $144 $327 $330 $334 reversed $231 $-1 #
loop $-1 $-1 $225 $219 #
vertex $-1 $334 $335 #
vertex $-1 $145 $336 #
straight-curve $-1 73.696096682638029 34.564669937942853 104.58067654056364 0 0 -1 I I #
coedge $-1 $235 $235 $-1 $337 reversed $148 $-1 #
edge $-1 $338 0 $338 6.2831853071796004 $149 $339 forward 7 unknown #
vertex $-1 $152 $340 #
ellipse-curve $-1 65.976256474899259 39.356748070407562 9.1228080869874777 0.73135370988377701 0 0.68199835119979291 1.0229975267996894 0 -1.0970305648256655 1 I I #
coedge $-1 $239 $239 $-1 $341 reversed $155 $-1 #
edge $-1 $342 0 $342 6.2831853071796004 $156 $343 forward 7 unknown #
vertex $-1 $159 $344 #
ellipse-curve $-1 65.976256474899259 46.544865269104619 9.1228080869874777 0.73135370988377701 0 0.68199835119979291 1.0229975267996894 0 -1.0970305648256655 1 I I #
face $-1 $-1 $175 $24 $-1 $345 reversed single #
loop $-1 $-1 $259 $160 #
plane-surface $-1 0 51.336943401569329 0 0 -1 0 0 0 -1 forward_v I I I I #
coedge $-1 $346 $257 $260 $347 forward $161 $-1 #
coedge $-1 $263 $163 $164 $251 reversed $101 $-1 #
coedge $-1 $257 $346 $163 $249 reversed $161 $-1 #
edge $-1 $264 -17.40132337328868 $348 17.40132337328868 $248 $349 forward 7 unknown #
coedge $-1 $165 $164 $346 $350 forward $65 $-1 #
edge $-1 $255 -73.696096682638029 $348 73.696096682638029 $247 $351 forward 7 unknown #
coedge $-1 $260 $259 $165 $253 reversed $244 $-1 #
edge $-1 $352 -73.696096682638029 $254 73.696096682638029 $252 $353 forward 7 unknown #
vertex $-1 $167 $354 #
vertex $-1 $266 $355 #
straight-curve $-1 73.696096682638029 0 -17.40132337328868 0 -1 0 I I #
coedge $-1 $246 $248 $168 $258 reversed $161 $-1 #
edge $-1 $261 -51.336943401569329 $264 51.336943401569329 $257 $356 forward 7 unknown #
coedge $-1 $252 $169 $174 $267 forward $244 $-1 #
coedge $-1 $169 $252 $246 $347 reversed $244 $-1 #
vertex $-1 $170 $357 #
straight-curve $-1 0 51.336943401569329 17.40132337328868 -1 0 0 I I #
coedge $-1 $171 $247 $173 $266 reversed $101 $-1 #
vertex $-1 $258 $358 #
straight-curve $-1 0 -51.336943401569329 17.40132337328868 1 0 0 I I #
edge $-1 $176 -17.40132337328868 $255 17.40132337328868 $173 $359 forward 7 unknown #
edge $-1 $177 -17.40132337328868 $254 17.40132337328868 $174 $360 forward 7 unknown #
point $-1 73.696096682638029 -51.336943401569329 17.40132337328868 #
point $-1 73.696096682638029 51.336943401569329 17.40132337328868 #
face $-1 $-1 $361 $25 $-1 $362 reversed single #
loop $-1 $-1 $363 $179 #
plane-surface $-1 0 0 -17.40132337328868 0 0 1 1 0 0 forward_v I I I I #
coedge $-1 $280 $290 $275 $364 forward $180 $-1 #
coedge $-1 $185 $182 $363 $365 reversed $109 $-1 #
coedge $-1 $182 $185 $273 $364 reversed $109 $-1 #
coedge $-1 $366 $367 $182 $277 forward $361 $-1 #
edge $-1 $368 -17.40132337328868 $369 17.40132337328868 $276 $370 forward 7 unknown #
coedge $-1 $363 $188 $183 $279 forward $271 $-1 #
edge $-1 $193 -34.079876269315164 $283 -28.412908841220943 $278 $371 forward 7 unknown #
coedge $-1 $190 $273 $184 $281 forward $180 $-1 #
edge $-1 $282 28.412908841220943 $192 34.079876269315164 $280 $372 forward 7 unknown #
vertex $-1 $281 $373 #
vertex $-1 $279 $374 #
straight-curve $-1 -59.659301396488999 -34.074057388336456 0 0 0 -1 I I #
coedge $-1 $367 $366 $187 $286 forward $361 $-1 #
edge $-1 $291 -17.40132337328868 $288 17.40132337328868 $285 $375 forward 7 unknown #
coedge $-1 $188 $363 $367 $376 forward $271 $-1 #
vertex $-1 $189 $377 #
straight-curve $-1 -65.326268824583224 -21.352750197476446 -17.40132337328868 0 1 0 I I #
coedge $-1 $273 $190 $366 $378 forward $180 $-1 #
vertex $-1 $378 $379 #
straight-curve $-1 -65.326268824583224 -21.352750197476446 17.40132337328868 0 -1 0 I I #
point $-1 -65.326268824583224 -34.074057388336456 17.40132337328868 #
point $-1 -65.326268824583224 -34.074057388336456 -17.40132337328868 #
plane-surface $-1 0 0 17.40132337328868 0 0 1 1 0 0 forward_v I I I I #
coedge $-1 $306 $305 $298 $380 forward $196 $-1 #
coedge $-1 $298 $198 $200 $302 reversed $117 $-1 #
coedge $-1 $198 $297 $296 $380 reversed $117 $-1 #
coedge $-1 $206 $201 $198 $300 forward $207 $-1 #
edge $-1 $303 -25.297079468927386 $381 -5.4222967116667462 $299 $382 forward 7 unknown #
coedge $-1 $200 $199 $306 $383 reversed $73 $-1 #
edge $-1 $384 -1.7244671030687178e-014 $303 24.262629900529255 $297 $385 forward 7 unknown #
vertex $-1 $202 $386 #
straight-curve $-1 -53.821313925377382 14.498956289330323 17.40132337328868 0 1 0 I I #
coedge $-1 $296 $203 $206 $310 reversed $196 $-1 #
coedge $-1 $203 $296 $301 $383 forward $196 $-1 #
vertex $-1 $204 $387 #
straight-curve $-1 -73.696096682638029 20.033106997842033 62.110733071788104 0 0 1 I I #
straight-curve $-1 -73.696096682638014 20.033106997842033 3.4848503990846211 -0.81915203911291934 0 -0.57357644374324357 I I #
edge $-1 $381 -37.962718159479259 $208 -20.033106997842033 $305 $388 forward 7 unknown #
point $-1 -73.696096682638029 20.033106997842033 17.40132337328868 #
point $-1 -53.821313925377389 20.033106997842033 17.40132337328868 #
edge $-1 $389 1 $389 0 $211 $-1 forward 7 unknown #
vertex $-1 $212 $390 #
ellipse-curve $-1 -62.038396085533194 25.155853044024099 7.9862307520303251 -0.57357644374324357 0 0.81915203911291934 1.228728058669379 0 0.86036466561486535 1 I I #
point $-1 -62.529977245338337 25.155853044024099 11.303451551801517 #
edge $-1 $391 1 $391 0 $215 $-1 forward 7 unknown #
vertex $-1 $216 $392 #
ellipse-curve $-1 -62.038396085533194 32.839972113297193 7.9862307520303251 -0.57357644374324357 0 0.81915203911291934 1.228728058669379 0 0.86036466561486535 1 I I #
point $-1 -62.529977245338337 32.839972113297193 11.303451551801517 #
plane-surface $-1 73.696096682638029 0 0 -1 0 0 0 0 1 forward_v I I I I #
coedge $-1 $393 $394 $224 $326 forward $220 $-1 #
coedge $-1 $222 $330 $393 $395 forward $139 $-1 #
coedge $-1 $224 $223 $222 $325 reversed $87 $-1 #
edge $-1 $396 -29.861540066691283 $331 -13.089266603064807 $222 $397 forward 7 unknown #
edge $-1 $328 -98.517666560342832 $396 -75.87878424000354 $322 $398 forward 7 unknown #
coedge $-1 $230 $225 $394 $399 reversed $231 $-1 #
vertex $-1 $226 $400 #
straight-curve $-1 73.696096682638029 21.475403334878045 0.84429280068628998 0 1 0 I I #
coedge $-1 $323 $227 $230 $334 forward $139 $-1 #
vertex $-1 $228 $401 #
straight-curve $-1 40.48534562670018 34.564669937942853 17.401323373288676 1 0 0 I I #
straight-curve $-1 -26.825136172201312 34.564669937942853 108.64012022628796 -0.68199835119979291 0 0.73135370988377701 I I #
edge $-1 $232 34.564669937942853 $402 51.336943401569329 $230 $403 forward 7 unknown #
point $-1 73.696096682638029 34.564669937942853 17.40132337328868 #
point $-1 73.696096682638029 34.564669937942853 0.84429280068627577 #
edge $-1 $404 1 $404 0 $235 $-1 forward 7 unknown #
vertex $-1 $236 $405 #
ellipse-curve $-1 61.913557265924851 39.356748070407562 5.3342798762239578 0.73135370988377701 0 0.68199835119979291 1.0229975267996894 0 -1.0970305648256655 1 I I #
point $-1 66.999254001698958 39.356748070407562 8.0257775221618282 #
edge $-1 $406 1 $406 0 $239 $-1 forward 7 unknown #
vertex $-1 $240 $407 #
ellipse-curve $-1 61.913557265924851 46.544865269104619 5.3342798762239578 0.73135370988377701 0 0.68199835119979291 1.0229975267996894 0 -1.0970305648256655 1 I I #
point $-1 66.999254001698958 46.544865269104619 8.0257775221618282 #
plane-surface $-1 73.696096682638029 0 0 -1 0 0 0 0 1 forward_v I I I I #
coedge $-1 $248 $246 $250 $350 reversed $161 $-1 #
edge $-1 $261 -17.40132337328868 $352 17.40132337328868 $260 $408 forward 7 unknown #
vertex $-1 $350 $409 #
straight-curve $-1 -73.696096682638029 -51.336943401569329 0 0 0 -1 I I #
edge $-1 $348 -51.336943401569329 $352 51.336943401569329 $346 $410 forward 7 unknown #
straight-curve $-1 0 -51.336943401569329 -17.40132337328868 -1 0 0 I I #
vertex $-1 $253 $411 #
straight-curve $-1 0 51.336943401569329 -17.40132337328868 1 0 0 I I #
point $-1 73.696096682638029 51.336943401569329 -17.40132337328868 #
point $-1 73.696096682638029 -51.336943401569329 -17.40132337328868 #
straight-curve $-1 -73.696096682638029 0 17.40132337328868 0 -1 0 I I #
point $-1 -73.696096682638029 51.336943401569329 17.40132337328868 #
point $-1 -73.696096682638029 -51.336943401569329 17.40132337328868 #
straight-curve $-1 73.696096682638029 -51.336943401569329 0 0 0 -1 I I #
straight-curve $-1 73.696096682638029 51.336943401569329 0 0 0 -1 I I #
loop $-1 $-1 $276 $270 #
plane-surface $-1 0 -51.336943401569329 0 0 1 0 0 0 1 forward_v I I I I #
coedge $-1 $287 $278 $274 $365 forward $271 $-1 #
edge $-1 $369 -29.984193204092882 $282 -12.72130719086001 $273 $412 forward 7 unknown #
edge $-1 $283 12.72130719086001 $368 29.984193204092882 $363 $413 forward 7 unknown #
coedge $-1 $285 $276 $290 $378 reversed $361 $-1 #
coedge $-1 $276 $285 $287 $376 reversed $361 $-1 #
vertex $-1 $376 $414 #
vertex $-1 $277 $415 #
straight-curve $-1 -59.659301396488999 -51.336943401569329 0 0 0 1 I I #
straight-curve $-1 -31.246392555268056 -34.074057388336456 -17.40132337328868 1 0 0 I I #
straight-curve $-1 -31.246392555268056 -34.074057388336456 17.40132337328868 -1 0 0 I I #
point $-1 -59.659301396488999 -34.074057388336456 17.40132337328868 #
point $-1 -59.659301396488999 -34.074057388336456 -17.40132337328868 #
straight-curve $-1 -65.326268824583224 -51.336943401569329 0 0 0 -1 I I #
edge $-1 $368 59.659301396488999 $288 65.326268824583224 $367 $416 forward 7 unknown #
point $-1 -65.326268824583224 -51.336943401569329 -17.40132337328868 #
edge $-1 $291 -65.326268824583224 $369 -59.659301396488999 $366 $417 forward 7 unknown #
point $-1 -65.326268824583224 -51.336943401569329 17.40132337328868 #
edge $-1 $381 44.709409698499428 $384 58.62588267270349 $296 $418 forward 7 unknown #
vertex $-1 $310 $419 #
straight-curve $-1 -79.118393394304775 37.962718159479259 17.401323373288676 -1 0 0 I I #
edge $-1 $384 -23.463761870148936 $307 -5.5341507085117101 $306 $420 forward 7 unknown #
vertex $-1 $383 $421 #
straight-curve $-1 -73.696096682638014 37.962718159479259 3.4848503990846211 0.81915203911291934 0 0.57357644374324357 I I #
point $-1 -53.821313925377389 37.962718159479259 17.40132337328868 #
point $-1 -73.696096682638029 20.033106997842033 3.4848503990846114 #
straight-curve $-1 -73.696096682638029 0 17.40132337328868 0 -1 0 I I #
vertex $-1 $313 $422 #
point $-1 -60.809668026863811 25.155853044024099 8.8465954176451902 #
vertex $-1 $317 $423 #
point $-1 -60.809668026863811 32.839972113297193 8.8465954176451902 #
coedge $-1 $394 $322 $323 $395 reversed $220 $-1 #
coedge $-1 $322 $393 $327 $399 forward $220 $-1 #
edge $-1 $402 -73.696096682638029 $396 -58.256416267160489 $393 $424 forward 7 unknown #
vertex $-1 $326 $425 #
straight-curve $-1 58.256416267160489 21.475403334878045 17.401323373288676 0 -1 0 I I #
straight-curve $-1 6.5072105244332441 51.336943401569329 72.89555372868594 -0.68199835119979291 0 0.73135370988377701 I I #
edge $-1 $402 -17.40132337328868 $328 -0.84429280068628265 $327 $426 forward 7 unknown #
point $-1 73.696096682638029 51.336943401569329 0.84429280068628265 #
point $-1 58.256416267160489 34.564669937942853 17.401323373288676 #
vertex $-1 $334 $427 #
straight-curve $-1 73.696096682638029 0 17.40132337328868 0 1 0 I I #
vertex $-1 $337 $428 #
point $-1 62.936554792724536 39.356748070407562 4.2372493113982923 #
vertex $-1 $341 $429 #
point $-1 62.936554792724536 46.544865269104619 4.2372493113982923 #
straight-curve $-1 -73.696096682638029 51.336943401569329 0 0 0 -1 I I #
point $-1 -73.696096682638029 -51.336943401569329 -17.40132337328868 #
straight-curve $-1 -73.696096682638029 0 -17.40132337328868 0 1 0 I I #
point $-1 -73.696096682638029 51.336943401569329 -17.40132337328868 #
straight-curve $-1 -59.659301396488999 -21.352750197476446 17.40132337328868 0 1 0 I I #
straight-curve $-1 -59.659301396488999 -21.352750197476446 -17.40132337328868 0 -1 0 I I #
point $-1 -59.659301396488999 -51.336943401569329 -17.40132337328868 #
point $-1 -59.659301396488999 -51.336943401569329 17.40132337328868 #
straight-curve $-1 0 -51.336943401569329 -17.40132337328868 -1 0 0 I I #
straight-curve $-1 0 -51.336943401569329 17.40132337328868 1 0 0 I I #
straight-curve $-1 -73.696096682638029 37.962718159479259 62.110733071788104 0 0 -1 I I #
point $-1 -73.696096682638029 37.962718159479259 17.40132337328868 #
straight-curve $-1 -73.696096682638029 14.498956289330323 3.4848503990846122 0 -1 0 I I #
point $-1 -73.696096682638029 37.962718159479259 3.4848503990846114 #
point $-1 -61.178031419918327 25.155853044024099 6.7575026933609461 #
point $-1 -61.178031419918327 32.839972113297193 6.7575026933609461 #
straight-curve $-1 0 51.336943401569329 17.40132337328868 -1 0 0 I I #
point $-1 58.256416267160489 51.336943401569329 17.401323373288676 #
straight-curve $-1 73.696096682638029 51.336943401569329 0 0 0 -1 I I #
point $-1 73.696096682638029 51.336943401569329 17.40132337328868 #
point $-1 60.816526701099178 39.356748070407562 4.3112823494242694 #
point $-1 60.816526701099178 46.544865269104619 4.3112823494242694 #
End-of-ACIS-data 