500 0 12 0           
7 Unknown 11 ACIS 5.0 NT 24 Fri Mar 26 19:34:02 1999 
-1 9.9999999999999995e-007 1e-010 
body $-1 $12 $-1 $13 #
body $-1 $14 $-1 $15 #
body $-1 $16 $-1 $17 #
body $-1 $18 $-1 $19 #
body $-1 $20 $-1 $21 #
body $-1 $22 $-1 $23 #
body $-1 $24 $-1 $25 #
body $-1 $26 $-1 $27 #
body $-1 $28 $-1 $29 #
body $-1 $30 $-1 $31 #
body $-1 $32 $-1 $33 #
body $-1 $34 $-1 $35 #
lump $-1 $-1 $36 $0 #
transform $-1 1 0 0 0 1 0 0 0 1 62.616657002471996 31.77823529639295 11.973839663789359 1 rotate no_reflect no_shear #
lump $-1 $-1 $37 $1 #
transform $-1 1 0 0 0 1 0 0 0 1 62.616657002471996 31.77823529639295 11.973839663789359 1 rotate no_reflect no_shear #
lump $-1 $-1 $38 $2 #
transform $-1 1 0 0 0 1 0 0 0 1 62.616657002471996 31.77823529639295 11.973839663789359 1 rotate no_reflect no_shear #
lump $-1 $-1 $39 $3 #
transform $-1 1 0 0 0 1 0 0 0 1 62.616657002471996 31.77823529639295 11.973839663789359 1 rotate no_reflect no_shear #
lump $-1 $-1 $40 $4 #
transform $-1 1 0 0 0 1 0 0 0 1 62.616657002471996 31.77823529639295 11.973839663789359 1 rotate no_reflect no_shear #
lump $-1 $-1 $41 $5 #
transform $-1 1 0 0 0 1 0 0 0 1 62.616657002471996 31.77823529639295 11.973839663789359 1 rotate no_reflect no_shear #
lump $-1 $-1 $42 $6 #
transform $-1 1 0 0 0 1 0 0 0 1 62.616657002471996 31.77823529639295 11.973839663789359 1 rotate no_reflect no_shear #
lump $-1 $-1 $43 $7 #
transform $-1 1 0 0 0 1 0 0 0 1 62.616657002471996 31.77823529639295 11.973839663789359 1 rotate no_reflect no_shear #
lump $-1 $-1 $44 $8 #
transform $-1 1 0 0 0 1 0 0 0 1 62.616657002471996 31.77823529639295 11.973839663789359 1 rotate no_reflect no_shear #
lump $-1 $-1 $45 $9 #
transform $-1 1 0 0 0 1 0 0 0 1 62.616657002471996 31.77823529639295 11.973839663789359 1 rotate no_reflect no_shear #
lump $-1 $-1 $46 $10 #
transform $-1 1 0 0 0 1 0 0 0 1 62.616657002471996 31.77823529639295 11.973839663789359 1 rotate no_reflect no_shear #
lump $-1 $-1 $47 $11 #
transform $-1 1 0 0 0 1 0 0 0 1 62.616657002471996 31.77823529639295 11.973839663789359 1 rotate no_reflect no_shear #
shell $-1 $-1 $-1 $48 $-1 $12 #
shell $-1 $-1 $-1 $49 $-1 $14 #
shell $-1 $-1 $-1 $50 $-1 $16 #
shell $-1 $-1 $-1 $51 $-1 $18 #
shell $-1 $-1 $-1 $52 $-1 $20 #
shell $-1 $-1 $-1 $53 $-1 $22 #
shell $-1 $-1 $-1 $54 $-1 $24 #
shell $-1 $-1 $-1 $55 $-1 $26 #
shell $-1 $-1 $-1 $56 $-1 $28 #
shell $-1 $-1 $-1 $57 $-1 $30 #
shell $-1 $-1 $-1 $58 $-1 $32 #
shell $-1 $-1 $-1 $59 $-1 $34 #
face $-1 $60 $61 $36 $-1 $62 forward single #
face $-1 $63 $64 $37 $-1 $65 forward single #
face $-1 $66 $67 $38 $-1 $68 forward single #
face $-1 $69 $70 $39 $-1 $71 reversed single #
face $-1 $72 $73 $40 $-1 $74 forward single #
face $-1 $75 $76 $41 $-1 $77 forward single #
face $-1 $78 $79 $42 $-1 $80 reversed single #
face $-1 $81 $82 $43 $-1 $83 forward single #
face $-1 $84 $85 $44 $-1 $86 forward single #
face $-1 $87 $88 $45 $-1 $89 reversed single #
face $-1 $90 $91 $46 $-1 $92 forward single #
face $-1 $93 $94 $47 $-1 $95 forward single #
face $-1 $96 $97 $36 $-1 $98 reversed single #
loop $-1 $-1 $99 $48 #
plane-surface $-1 0 0 11.973839663789359 0 0 1 1 0 0 forward_v I I I I #
face $-1 $100 $101 $37 $-1 $102 reversed single #
loop $-1 $-1 $103 $49 #
plane-surface $-1 -57.951277506601599 0 -7.3803901767516393 0 0 1 1 0 0 forward_v I I I I #
face $-1 $104 $105 $38 $-1 $106 reversed single #
loop $-1 $-1 $107 $50 #
plane-surface $-1 57.951277506601599 0 -7.3803901767516393 0 0 1 1 0 0 forward_v I I I I #
face $-1 $108 $109 $39 $-1 $110 reversed single #
loop $-1 $-1 $111 $51 #
plane-surface $-1 1.2853978035102962 39.353375275344433 141.96595686781245 -1 0 0 0 0.50000000669873634 0.8660253999169214 forward_v I I I I #
face $-1 $112 $113 $40 $-1 $114 forward single #
loop $-1 $115 $116 $52 #
cone-surface $-1 -6.4156177354584756 21.91903783302029 5.1385578537567724 0 -0.50000000669873634 -0.8660253999169214 1 0 0 1 I I 0 1 1 forward I I I I #
face $-1 $117 $118 $41 $-1 $119 forward single #
loop $-1 $120 $121 $53 #
cone-surface $-1 -1.795008412077209 21.91903783302029 5.1385578537567724 0 -0.50000000669873634 -0.8660253999169214 1 0 0 1 I I 0 1 1 forward I I I I #
face $-1 $122 $123 $42 $-1 $124 reversed single #
loop $-1 $-1 $125 $54 #
plane-surface $-1 -36.439071306347969 -139.12413800117878 66.999244618643303 1 0 0 0 0.85716730853699208 -0.51503806187062418 forward_v I I I I #
face $-1 $126 $127 $43 $-1 $128 forward single #
loop $-1 $129 $130 $55 #
cone-surface $-1 -30.216927670542709 -27.611462587315657 6.4432400030604953 0 0.85716730853699208 -0.51503806187062418 1.5 0 0 1 I I 0 1 1.5 forward I I I I #
face $-1 $131 $132 $44 $-1 $133 forward single #
loop $-1 $134 $135 $56 #
cone-surface $-1 -20.883712216834823 -27.611462587315657 6.4432400030604953 0 0.85716730853699208 -0.51503806187062418 1.5 0 0 1 I I 0 1 1.5 forward I I I I #
face $-1 $136 $137 $45 $-1 $138 reversed single #
loop $-1 $-1 $139 $57 #
plane-surface $-1 14.661568581029563 -139.12413800117878 66.999244618643303 1 0 0 0 0.85716730853699208 -0.51503806187062418 forward_v I I I I #
face $-1 $140 $141 $46 $-1 $142 forward single #
loop $-1 $143 $144 $58 #
cone-surface $-1 20.883712216834837 -27.611462587315657 6.4432400030604953 0 0.85716730853699208 -0.51503806187062418 1.5 0 0 1 I I 0 1 1.5 forward I I I I #
face $-1 $145 $146 $47 $-1 $147 forward single #
loop $-1 $148 $149 $59 #
cone-surface $-1 30.216927670542717 -27.611462587315657 6.4432400030604953 0 0.85716730853699208 -0.51503806187062418 1.5 0 0 1 I I 0 1 1.5 forward I I I I #
face $-1 $150 $151 $36 $-1 $152 reversed single #
loop $-1 $-1 $153 $60 #
plane-surface $-1 0 0 -11.973839663789359 0 0 1 1 0 0 forward_v I I I I #
coedge $-1 $154 $155 $156 $157 forward $61 $-1 #
face $-1 $158 $159 $37 $-1 $160 reversed single #
loop $-1 $-1 $161 $63 #
plane-surface $-1 -53.285898010731202 0 -9.6771149202704994 -1 0 0 0 0 1 forward_v I I I I #
coedge $-1 $162 $163 $164 $165 forward $64 $-1 #
face $-1 $166 $167 $38 $-1 $168 reversed single #
loop $-1 $-1 $169 $66 #
plane-surface $-1 53.285898010731202 0 -9.6771149202704994 1 0 0 0 0 -1 forward_v I I I I #
coedge $-1 $170 $171 $172 $173 reversed $67 $-1 #
face $-1 $174 $175 $39 $-1 $176 reversed single #
loop $-1 $-1 $177 $69 #
plane-surface $-1 -4.1053130737678458 -23.263282566032515 33.510726023759432 0 0.50000000669873634 0.8660253999169214 1 0 0 forward_v I I I I #
coedge $-1 $178 $179 $180 $181 reversed $70 $-1 #
face $-1 $-1 $182 $40 $-1 $183 forward single #
loop $-1 $184 $185 $72 #
cone-surface $-1 -6.4156177354584756 20.679108924535456 2.9909380248511894 0 -0.50000000669873634 -0.8660253999169214 0.5 0 0 1 I I -0.70710678118654746 0.70710678118654746 0.5 forward I I I I #
loop $-1 $-1 $186 $52 #
coedge $-1 $116 $116 $187 $188 reversed $73 $-1 #
face $-1 $-1 $189 $41 $-1 $190 forward single #
loop $-1 $191 $192 $75 #
cone-surface $-1 -1.795008412077209 20.679108924535456 2.9909380248511894 0 -0.50000000669873634 -0.8660253999169214 0.5 0 0 1 I I -0.70710678118654746 0.70710678118654746 0.5 forward I I I I #
loop $-1 $-1 $193 $53 #
coedge $-1 $121 $121 $194 $195 reversed $76 $-1 #
face $-1 $196 $197 $42 $-1 $198 reversed single #
loop $-1 $-1 $199 $78 #
plane-surface $-1 -25.55031994368877 -31.778235296392936 2.4993212919016514 0 -0.85716730853699208 0.51503806187062418 1 0 0 forward_v I I I I #
coedge $-1 $200 $201 $202 $203 reversed $79 $-1 #
face $-1 $-1 $204 $43 $-1 $205 forward single #
loop $-1 $206 $207 $81 #
cone-surface $-1 -30.216927670542709 -25.648246785713919 5.2636209818725135 0 0.85716730853699208 -0.51503806187062418 0.75 0 0 1 I I -0.70710678118654757 0.70710678118654757 0.75 forward I I I I #
loop $-1 $-1 $208 $55 #
coedge $-1 $130 $130 $209 $210 reversed $82 $-1 #
face $-1 $-1 $211 $44 $-1 $212 forward single #
loop $-1 $213 $214 $84 #
cone-surface $-1 -20.883712216834823 -25.648246785713919 5.2636209818725135 0 0.85716730853699208 -0.51503806187062418 0.75 0 0 1 I I -0.70710678118654757 0.70710678118654757 0.75 forward I I I I #
loop $-1 $-1 $215 $56 #
coedge $-1 $135 $135 $216 $217 reversed $85 $-1 #
face $-1 $218 $219 $45 $-1 $220 reversed single #
loop $-1 $-1 $221 $87 #
plane-surface $-1 25.550319943688763 -31.778235296392936 2.4993212919016514 0 -0.85716730853699208 0.51503806187062418 1 0 0 forward_v I I I I #
coedge $-1 $222 $223 $224 $225 reversed $88 $-1 #
face $-1 $-1 $226 $46 $-1 $227 forward single #
loop $-1 $228 $229 $90 #
cone-surface $-1 20.883712216834837 -25.648246785713919 5.2636209818725135 0 0.85716730853699208 -0.51503806187062418 0.75 0 0 1 I I -0.70710678118654757 0.70710678118654757 0.75 forward I I I I #
loop $-1 $-1 $230 $58 #
coedge $-1 $144 $144 $231 $232 reversed $91 $-1 #
face $-1 $-1 $233 $47 $-1 $234 forward single #
loop $-1 $235 $236 $93 #
cone-surface $-1 30.216927670542717 -25.648246785713919 5.2636209818725135 0 0.85716730853699208 -0.51503806187062418 0.75 0 0 1 I I -0.70710678118654757 0.70710678118654757 0.75 forward I I I I #
loop $-1 $-1 $237 $59 #
coedge $-1 $149 $149 $238 $239 reversed $94 $-1 #
face $-1 $240 $241 $36 $-1 $242 reversed single #
loop $-1 $-1 $243 $96 #
plane-surface $-1 0 -31.77823529639295 0 0 1 0 0 0 1 forward_v I I I I #
coedge $-1 $244 $245 $246 $247 forward $97 $-1 #
coedge $-1 $248 $99 $249 $250 forward $61 $-1 #
coedge $-1 $99 $248 $251 $252 forward $61 $-1 #
coedge $-1 $253 $254 $99 $157 reversed $255 $-1 #
edge $-1 $256 -31.77823529639295 $257 31.77823529639295 $156 $258 forward 7 unknown #
face $-1 $259 $260 $37 $-1 $261 reversed single #
loop $-1 $-1 $262 $100 #
plane-surface $-1 0 0 -11.973839663789359 0 0 1 1 0 0 forward_v I I I I #
coedge $-1 $263 $164 $264 $265 reversed $101 $-1 #
coedge $-1 $266 $103 $267 $268 reversed $64 $-1 #
coedge $-1 $103 $266 $269 $270 reversed $64 $-1 #
coedge $-1 $161 $271 $103 $165 reversed $101 $-1 #
edge $-1 $272 -31.77823529639295 $273 31.77823529639295 $164 $274 forward 7 unknown #
face $-1 $275 $276 $38 $-1 $277 reversed single #
loop $-1 $-1 $278 $104 #
plane-surface $-1 0 -31.77823529639295 0 0 1 0 0 0 1 forward_v I I I I #
coedge $-1 $279 $280 $281 $282 reversed $105 $-1 #
coedge $-1 $283 $107 $284 $285 reversed $67 $-1 #
coedge $-1 $107 $283 $278 $286 reversed $67 $-1 #
coedge $-1 $287 $288 $107 $173 forward $289 $-1 #
edge $-1 $290 -31.77823529639295 $291 31.77823529639295 $172 $292 forward 7 unknown #
face $-1 $293 $294 $39 $-1 $295 reversed single #
loop $-1 $-1 $296 $108 #
plane-surface $-1 -9.4960239510459878 39.353375275344433 141.96595686781245 1 0 0 0 -0.50000000669873634 -0.8660253999169214 forward_v I I I I #
coedge $-1 $297 $298 $299 $300 reversed $109 $-1 #
coedge $-1 $179 $111 $301 $302 reversed $70 $-1 #
coedge $-1 $111 $178 $297 $303 reversed $70 $-1 #
coedge $-1 $299 $304 $111 $181 forward $294 $-1 #
edge $-1 $305 59.009138770116863 $306 69.250488132287785 $180 $307 forward 7 unknown #
loop $-1 $-1 $187 $112 #
plane-surface $-1 -4.1053130737678458 -23.263282566032515 33.510726023759432 0 0.50000000669873634 0.8660253999169214 1 0 0 forward_v I I I I #
loop $-1 $-1 $308 $72 #
coedge $-1 $185 $185 $186 $309 reversed $113 $-1 #
coedge $-1 $186 $186 $185 $309 forward $115 $-1 #
coedge $-1 $187 $187 $116 $188 forward $182 $-1 #
edge $-1 $310 -1.3003834212745784e-015 $310 6.2831853071795996 $187 $311 forward 7 unknown #
loop $-1 $-1 $194 $117 #
plane-surface $-1 -4.1053130737678458 -23.263282566032515 33.510726023759432 0 0.50000000669873634 0.8660253999169214 1 0 0 forward_v I I I I #
loop $-1 $-1 $312 $75 #
coedge $-1 $192 $192 $193 $313 reversed $118 $-1 #
coedge $-1 $193 $193 $192 $313 forward $120 $-1 #
coedge $-1 $194 $194 $121 $195 forward $189 $-1 #
edge $-1 $314 -1.3003834212745784e-015 $314 6.2831853071795996 $194 $315 forward 7 unknown #
face $-1 $316 $317 $42 $-1 $318 forward single #
loop $-1 $-1 $319 $122 #
plane-surface $-1 -14.66156858102957 -139.12413800117878 66.999244618643303 -1 0 0 0 -0.85716730853699208 0.51503806187062418 forward_v I I I I #
coedge $-1 $320 $321 $322 $323 reversed $123 $-1 #
coedge $-1 $201 $125 $324 $325 reversed $79 $-1 #
coedge $-1 $125 $200 $320 $326 reversed $79 $-1 #
coedge $-1 $322 $327 $125 $203 forward $328 $-1 #
edge $-1 $329 21.525782645532292 $330 31.000301017420025 $202 $331 forward 7 unknown #
loop $-1 $-1 $209 $126 #
plane-surface $-1 -25.55031994368877 -31.778235296392936 2.4993212919016514 0 -0.85716730853699208 0.51503806187062418 1 0 0 forward_v I I I I #
loop $-1 $-1 $332 $81 #
coedge $-1 $207 $207 $208 $333 reversed $127 $-1 #
coedge $-1 $208 $208 $207 $333 forward $129 $-1 #
coedge $-1 $209 $209 $130 $210 forward $204 $-1 #
edge $-1 $334 -3.1151568027180219e-016 $334 6.2831853071796004 $209 $335 forward 7 unknown #
loop $-1 $-1 $216 $131 #
plane-surface $-1 -25.55031994368877 -31.778235296392936 2.4993212919016514 0 -0.85716730853699208 0.51503806187062418 1 0 0 forward_v I I I I #
loop $-1 $-1 $336 $84 #
coedge $-1 $214 $214 $215 $337 reversed $132 $-1 #
coedge $-1 $215 $215 $214 $337 forward $134 $-1 #
coedge $-1 $216 $216 $135 $217 forward $211 $-1 #
edge $-1 $338 -3.1151568027180219e-016 $338 6.2831853071796004 $216 $339 forward 7 unknown #
face $-1 $340 $341 $45 $-1 $342 reversed single #
loop $-1 $-1 $343 $136 #
plane-surface $-1 36.439071306347962 -139.12413800117878 66.999244618643303 -1 0 0 0 -0.85716730853699208 0.51503806187062418 forward_v I I I I #
coedge $-1 $344 $345 $346 $347 reversed $137 $-1 #
coedge $-1 $223 $139 $348 $349 reversed $88 $-1 #
coedge $-1 $139 $222 $344 $350 reversed $88 $-1 #
coedge $-1 $346 $351 $139 $225 forward $341 $-1 #
edge $-1 $352 21.525782645532292 $353 31.000301017420025 $224 $354 forward 7 unknown #
loop $-1 $-1 $231 $140 #
plane-surface $-1 25.550319943688763 -31.778235296392936 2.4993212919016514 0 -0.85716730853699208 0.51503806187062418 1 0 0 forward_v I I I I #
loop $-1 $-1 $355 $90 #
coedge $-1 $229 $229 $230 $356 reversed $141 $-1 #
coedge $-1 $230 $230 $229 $356 forward $143 $-1 #
coedge $-1 $231 $231 $144 $232 forward $226 $-1 #
edge $-1 $357 -3.1151568027180219e-016 $357 6.2831853071796004 $231 $358 forward 7 unknown #
loop $-1 $-1 $238 $145 #
plane-surface $-1 25.550319943688763 -31.778235296392936 2.4993212919016514 0 -0.85716730853699208 0.51503806187062418 1 0 0 forward_v I I I I #
loop $-1 $-1 $359 $93 #
coedge $-1 $236 $236 $237 $360 reversed $146 $-1 #
coedge $-1 $237 $237 $236 $360 forward $148 $-1 #
coedge $-1 $238 $238 $149 $239 forward $233 $-1 #
edge $-1 $361 -3.1151568027180219e-016 $361 6.2831853071796004 $238 $362 forward 7 unknown #
face $-1 $363 $364 $36 $-1 $365 reversed single #
loop $-1 $-1 $366 $150 #
plane-surface $-1 -62.616657002471996 0 0 1 0 0 0 0 -1 forward_v I I I I #
coedge $-1 $367 $251 $368 $369 forward $151 $-1 #
coedge $-1 $370 $153 $367 $371 forward $97 $-1 #
coedge $-1 $153 $370 $372 $373 forward $97 $-1 #
coedge $-1 $254 $253 $153 $247 reversed $255 $-1 #
edge $-1 $374 -31.77823529639295 $375 31.77823529639295 $246 $376 forward 7 unknown #
coedge $-1 $155 $154 $377 $378 forward $61 $-1 #
coedge $-1 $379 $380 $154 $250 reversed $364 $-1 #
edge $-1 $257 -62.616657002471996 $381 62.616657002471996 $249 $382 forward 7 unknown #
coedge $-1 $243 $383 $155 $252 reversed $151 $-1 #
edge $-1 $384 -62.616657002471996 $256 62.616657002471996 $251 $385 forward 7 unknown #
coedge $-1 $246 $156 $383 $386 forward $255 $-1 #
coedge $-1 $156 $246 $379 $387 reversed $255 $-1 #
loop $-1 $-1 $253 $363 #
vertex $-1 $157 $388 #
vertex $-1 $157 $389 #
straight-curve $-1 62.616657002471996 0 11.973839663789359 0 1 0 I I #
face $-1 $390 $391 $37 $-1 $392 reversed single #
loop $-1 $-1 $264 $158 #
plane-surface $-1 0 -31.77823529639295 0 0 1 0 0 0 1 forward_v I I I I #
coedge $-1 $393 $394 $263 $395 forward $159 $-1 #
coedge $-1 $271 $161 $262 $395 reversed $101 $-1 #
coedge $-1 $269 $396 $161 $265 forward $260 $-1 #
edge $-1 $397 -7.1352822036541097 $272 -2.5418327166163897 $264 $398 forward 7 unknown #
coedge $-1 $163 $162 $399 $400 reversed $64 $-1 #
coedge $-1 $401 $402 $162 $268 forward $403 $-1 #
edge $-1 $404 -33.641018249171196 $273 -24.310259257430403 $267 $405 forward 7 unknown #
coedge $-1 $406 $264 $163 $270 forward $260 $-1 #
edge $-1 $272 24.310259257430403 $407 33.641018249171196 $269 $408 forward 7 unknown #
coedge $-1 $164 $263 $401 $409 reversed $101 $-1 #
vertex $-1 $270 $410 #
vertex $-1 $268 $411 #
straight-curve $-1 -53.285898010731202 0 -7.3803901767516393 0 1 0 I I #
face $-1 $412 $413 $38 $-1 $414 reversed single #
loop $-1 $-1 $415 $166 #
plane-surface $-1 0 0 -11.973839663789359 0 0 1 1 0 0 forward_v I I I I #
coedge $-1 $416 $417 $171 $286 forward $167 $-1 #
coedge $-1 $418 $169 $415 $419 reversed $105 $-1 #
coedge $-1 $169 $418 $283 $420 reversed $105 $-1 #
coedge $-1 $284 $421 $169 $282 forward $413 $-1 #
edge $-1 $422 -7.1352822036541097 $423 -2.5418327166163897 $281 $424 forward 7 unknown #
coedge $-1 $171 $170 $280 $420 forward $67 $-1 #
coedge $-1 $425 $281 $170 $285 forward $413 $-1 #
edge $-1 $423 24.310259257430403 $290 33.641018249171196 $284 $426 forward 7 unknown #
edge $-1 $291 -33.641018249171196 $427 -24.310259257430403 $278 $428 forward 7 unknown #
coedge $-1 $429 $172 $417 $430 forward $289 $-1 #
coedge $-1 $172 $429 $425 $431 reversed $289 $-1 #
loop $-1 $-1 $172 $412 #
vertex $-1 $431 $432 #
vertex $-1 $430 $433 #
straight-curve $-1 62.616657002471996 0 -7.3803901767516393 0 -1 0 I I #
face $-1 $-1 $434 $39 $-1 $435 forward single #
loop $-1 $-1 $180 $174 #
plane-surface $-1 0 31.77823529639295 0 0 -1 0 0 0 -1 forward_v I I I I #
coedge $-1 $436 $437 $438 $439 reversed $175 $-1 #
coedge $-1 $440 $177 $179 $303 forward $109 $-1 #
coedge $-1 $177 $440 $436 $441 forward $109 $-1 #
coedge $-1 $438 $180 $177 $300 forward $294 $-1 #
edge $-1 $306 -3.3380543403942191 $442 7.4433674141620649 $299 $443 forward 7 unknown #
coedge $-1 $444 $445 $178 $302 forward $434 $-1 #
edge $-1 $446 -5.636989457753657 $305 12.101547658720733 $301 $447 forward 7 unknown #
edge $-1 $306 -63.556470592785899 $446 -43.073772142860456 $179 $448 forward 7 unknown #
coedge $-1 $180 $438 $444 $449 reversed $294 $-1 #
vertex $-1 $449 $450 #
vertex $-1 $181 $451 #
straight-curve $-1 1.2853978035102962 31.77823529639295 70.982978433906226 0 0 -1 I I #
coedge $-1 $308 $308 $-1 $452 reversed $184 $-1 #
edge $-1 $453 0 $453 6.2831853071796004 $185 $454 forward 7 unknown #
vertex $-1 $188 $455 #
ellipse-curve $-1 -6.4156177354584756 22.908966738155758 6.8531649827038983 0 0.50000000669873634 0.8660253999169214 1 0 0 1 I I #
coedge $-1 $312 $312 $-1 $456 reversed $191 $-1 #
edge $-1 $457 0 $457 6.2831853071796004 $192 $458 forward 7 unknown #
vertex $-1 $195 $459 #
ellipse-curve $-1 -1.795008412077209 22.908966738155758 6.8531649827038983 0 0.50000000669873634 0.8660253999169214 1 0 0 1 I I #
face $-1 $-1 $328 $42 $-1 $460 reversed single #
loop $-1 $-1 $461 $196 #
plane-surface $-1 0 0 11.973839663789359 0 0 1 1 0 0 forward_v I I I I #
coedge $-1 $462 $463 $464 $465 reversed $197 $-1 #
coedge $-1 $466 $199 $201 $326 forward $123 $-1 #
coedge $-1 $199 $466 $462 $467 forward $123 $-1 #
coedge $-1 $464 $202 $199 $323 forward $328 $-1 #
edge $-1 $330 -23.663911334503585 $468 -1.8864086091851853 $322 $469 forward 7 unknown #
coedge $-1 $470 $471 $200 $325 forward $317 $-1 #
edge $-1 $472 -43.476698481953051 $329 -37.783833704196439 $324 $473 forward 7 unknown #
edge $-1 $330 -2.7494044966190042e-014 $472 11.053289454142575 $201 $474 forward 7 unknown #
coedge $-1 $202 $464 $470 $475 reversed $328 $-1 #
loop $-1 $-1 $464 $316 #
vertex $-1 $475 $476 #
vertex $-1 $203 $477 #
straight-curve $-1 -36.439071306347969 -31.77823529639295 33.499622309321651 0 0 -1 I I #
coedge $-1 $332 $332 $-1 $478 reversed $206 $-1 #
edge $-1 $479 0 $479 6.2831853071796004 $207 $480 forward 7 unknown #
vertex $-1 $210 $481 #
ellipse-curve $-1 -30.216927670542709 -28.931802907514637 7.236580477845501 0 -0.85716730853699208 0.51503806187062418 1.5 0 0 1 I I #
coedge $-1 $336 $336 $-1 $482 reversed $213 $-1 #
edge $-1 $483 0 $483 6.2831853071796004 $214 $484 forward 7 unknown #
vertex $-1 $217 $485 #
ellipse-curve $-1 -20.883712216834823 -28.931802907514637 7.236580477845501 0 -0.85716730853699208 0.51503806187062418 1.5 0 0 1 I I #
face $-1 $-1 $486 $45 $-1 $487 forward single #
loop $-1 $-1 $224 $218 #
plane-surface $-1 0 -31.77823529639295 0 0 1 0 0 0 1 forward_v I I I I #
coedge $-1 $488 $489 $490 $491 reversed $219 $-1 #
coedge $-1 $492 $221 $223 $350 forward $137 $-1 #
coedge $-1 $221 $492 $488 $493 forward $137 $-1 #
coedge $-1 $490 $224 $221 $347 forward $341 $-1 #
edge $-1 $353 1.8864086091851817 $494 23.663911334503581 $346 $495 forward 7 unknown #
coedge $-1 $496 $497 $222 $349 forward $486 $-1 #
edge $-1 $498 -43.476698481953051 $352 -37.783833704196439 $348 $499 forward 7 unknown #
edge $-1 $353 -2.7494044966190042e-014 $498 11.053289454142575 $223 $500 forward 7 unknown #
coedge $-1 $224 $490 $496 $501 reversed $341 $-1 #
vertex $-1 $501 $502 #
vertex $-1 $225 $503 #
straight-curve $-1 14.661568581029563 -31.77823529639295 33.499622309321651 0 0 -1 I I #
coedge $-1 $355 $355 $-1 $504 reversed $228 $-1 #
edge $-1 $505 0 $505 6.2831853071796004 $229 $506 forward 7 unknown #
vertex $-1 $232 $507 #
ellipse-curve $-1 20.883712216834837 -28.931802907514637 7.236580477845501 0 -0.85716730853699208 0.51503806187062418 1.5 0 0 1 I I #
coedge $-1 $359 $359 $-1 $508 reversed $235 $-1 #
edge $-1 $509 0 $509 6.2831853071796004 $236 $510 forward 7 unknown #
vertex $-1 $239 $511 #
ellipse-curve $-1 30.216927670542717 -28.931802907514637 7.236580477845501 0 -0.85716730853699208 0.51503806187062418 1.5 0 0 1 I I #
face $-1 $-1 $255 $36 $-1 $512 reversed single #
loop $-1 $-1 $379 $240 #
plane-surface $-1 0 31.77823529639295 0 0 -1 0 0 0 -1 forward_v I I I I #
coedge $-1 $513 $377 $380 $514 forward $241 $-1 #
coedge $-1 $383 $243 $244 $371 reversed $151 $-1 #
coedge $-1 $377 $513 $243 $369 reversed $241 $-1 #
edge $-1 $384 -11.973839663789359 $515 11.973839663789359 $368 $516 forward 7 unknown #
coedge $-1 $245 $244 $513 $517 forward $97 $-1 #
edge $-1 $375 -62.616657002471996 $515 62.616657002471996 $367 $518 forward 7 unknown #
coedge $-1 $380 $379 $245 $373 reversed $364 $-1 #
edge $-1 $519 -62.616657002471996 $374 62.616657002471996 $372 $520 forward 7 unknown #
vertex $-1 $247 $521 #
vertex $-1 $386 $522 #
straight-curve $-1 62.616657002471996 0 -11.973839663789359 0 -1 0 I I #
coedge $-1 $366 $368 $248 $378 reversed $241 $-1 #
edge $-1 $381 -31.77823529639295 $384 31.77823529639295 $377 $523 forward 7 unknown #
coedge $-1 $372 $249 $254 $387 forward $364 $-1 #
coedge $-1 $249 $372 $366 $514 reversed $364 $-1 #
vertex $-1 $250 $524 #
straight-curve $-1 0 31.77823529639295 11.973839663789359 -1 0 0 I I #
coedge $-1 $251 $367 $253 $386 reversed $151 $-1 #
vertex $-1 $378 $525 #
straight-curve $-1 0 -31.77823529639295 11.973839663789359 1 0 0 I I #
edge $-1 $256 -11.973839663789359 $375 11.973839663789359 $253 $526 forward 7 unknown #
edge $-1 $257 -11.973839663789359 $374 11.973839663789359 $254 $527 forward 7 unknown #
point $-1 62.616657002471996 -31.77823529639295 11.973839663789359 #
point $-1 62.616657002471996 31.77823529639295 11.973839663789359 #
face $-1 $-1 $403 $37 $-1 $528 reversed single #
loop $-1 $-1 $399 $259 #
plane-surface $-1 -62.616657002471996 0 0 1 0 0 0 0 -1 forward_v I I I I #
coedge $-1 $529 $262 $396 $530 forward $159 $-1 #
coedge $-1 $262 $529 $531 $532 forward $159 $-1 #
edge $-1 $533 -31.77823529639295 $397 31.77823529639295 $262 $534 forward 7 unknown #
coedge $-1 $264 $406 $393 $530 reversed $260 $-1 #
vertex $-1 $530 $535 #
straight-curve $-1 -53.285898010731202 -31.77823529639295 -4.8385574601352497 0 0 1 I I #
coedge $-1 $536 $537 $266 $400 forward $391 $-1 #
edge $-1 $407 -31.77823529639295 $404 31.77823529639295 $399 $538 forward 7 unknown #
coedge $-1 $531 $267 $271 $409 forward $403 $-1 #
coedge $-1 $267 $531 $536 $539 reversed $403 $-1 #
loop $-1 $-1 $401 $390 #
vertex $-1 $539 $540 #
straight-curve $-1 -28.9756387533008 31.77823529639295 -7.3803901767516393 1 0 0 I I #
coedge $-1 $396 $269 $537 $541 forward $260 $-1 #
vertex $-1 $541 $542 #
straight-curve $-1 -28.9756387533008 -31.77823529639295 -7.3803901767516393 -1 0 0 I I #
edge $-1 $273 2.5418327166163897 $533 7.1352822036541097 $401 $543 forward 7 unknown #
point $-1 -53.285898010731202 -31.77823529639295 -7.3803901767516393 #
point $-1 -53.285898010731202 31.77823529639295 -7.3803901767516393 #
face $-1 $-1 $289 $38 $-1 $544 reversed single #
loop $-1 $-1 $284 $275 #
plane-surface $-1 0 31.77823529639295 0 0 -1 0 0 0 -1 forward_v I I I I #
coedge $-1 $545 $546 $279 $419 forward $276 $-1 #
coedge $-1 $547 $278 $418 $548 forward $167 $-1 #
coedge $-1 $278 $547 $287 $430 reversed $167 $-1 #
coedge $-1 $280 $279 $416 $548 reversed $105 $-1 #
edge $-1 $549 -31.77823529639295 $422 31.77823529639295 $415 $550 forward 7 unknown #
edge $-1 $423 -31.77823529639295 $427 31.77823529639295 $280 $551 forward 7 unknown #
coedge $-1 $281 $425 $545 $552 reversed $413 $-1 #
vertex $-1 $552 $553 #
vertex $-1 $285 $554 #
straight-curve $-1 53.285898010731202 31.77823529639295 -4.8385574601352497 0 0 1 I I #
coedge $-1 $421 $284 $288 $431 forward $413 $-1 #
straight-curve $-1 28.9756387533008 31.77823529639295 -7.3803901767516393 1 0 0 I I #
vertex $-1 $286 $555 #
straight-curve $-1 28.9756387533008 -31.77823529639295 -7.3803901767516393 -1 0 0 I I #
coedge $-1 $288 $287 $556 $557 reversed $289 $-1 #
edge $-1 $291 7.3803901767516393 $558 11.973839663789359 $287 $559 forward 7 unknown #
edge $-1 $290 7.3803901767516393 $560 11.973839663789359 $288 $561 forward 7 unknown #
point $-1 62.616657002471996 31.77823529639295 -7.3803901767516393 #
point $-1 62.616657002471996 -31.77823529639295 -7.3803901767516393 #
loop $-1 $-1 $301 $293 #
plane-surface $-1 0 0 11.973839663789359 0 0 1 1 0 0 forward_v I I I I #
coedge $-1 $437 $296 $298 $441 reversed $175 $-1 #
coedge $-1 $296 $436 $562 $563 reversed $175 $-1 #
coedge $-1 $304 $299 $296 $439 forward $294 $-1 #
edge $-1 $442 -69.250488132287785 $564 -59.009138770116863 $438 $565 forward 7 unknown #
coedge $-1 $298 $297 $445 $566 reversed $109 $-1 #
edge $-1 $567 43.073772142860456 $442 63.556470592785899 $436 $568 forward 7 unknown #
vertex $-1 $300 $569 #
straight-curve $-1 -2.0526565368839229 31.77823529639295 1.7324903016184425 -1 0 0 I I #
coedge $-1 $562 $301 $304 $449 forward $434 $-1 #
coedge $-1 $301 $562 $440 $566 forward $434 $-1 #
vertex $-1 $302 $570 #
straight-curve $-1 1.2853978035102962 19.676687637672217 11.973839663789363 0 1 0 I I #
straight-curve $-1 1.2853978035102962 -23.263282566032515 33.510726023759432 0 -0.8660253999169214 0.50000000669873634 I I #
edge $-1 $305 -1.2853978035102962 $564 9.4960239510459878 $304 $571 forward 7 unknown #
point $-1 1.2853978035102962 31.77823529639295 11.973839663789359 #
point $-1 1.2853978035102962 31.77823529639295 1.7324903016184443 #
edge $-1 $572 1 $572 0 $308 $-1 forward 7 unknown #
vertex $-1 $309 $573 #
ellipse-curve $-1 -6.4156177354584756 20.929108927884823 3.4239507248096501 0 0.50000000669873634 0.8660253999169214 1 0 0 1 I I #
point $-1 -5.4156177354584756 22.908966738155755 6.8531649827038947 #
edge $-1 $574 1 $574 0 $312 $-1 forward 7 unknown #
vertex $-1 $313 $575 #
ellipse-curve $-1 -1.795008412077209 20.929108927884823 3.4239507248096501 0 0.50000000669873634 0.8660253999169214 1 0 0 1 I I #
point $-1 -0.79500841207720896 22.908966738155755 6.8531649827038947 #
plane-surface $-1 0 -31.77823529639295 0 0 1 0 0 0 1 forward_v I I I I #
coedge $-1 $471 $470 $463 $576 forward $317 $-1 #
coedge $-1 $463 $319 $321 $467 reversed $197 $-1 #
coedge $-1 $319 $462 $461 $576 reversed $197 $-1 #
coedge $-1 $327 $322 $319 $465 forward $328 $-1 #
edge $-1 $468 -31.000301017420025 $577 -21.525782645532292 $464 $578 forward 7 unknown #
coedge $-1 $321 $320 $471 $579 reversed $123 $-1 #
edge $-1 $580 -11.053289454142575 $468 2.7494044966190042e-014 $462 $581 forward 7 unknown #
vertex $-1 $323 $582 #
straight-curve $-1 -12.775159971844385 -31.77823529639295 2.4993212919016301 1 0 0 I I #
coedge $-1 $461 $324 $327 $475 forward $317 $-1 #
coedge $-1 $324 $461 $466 $579 forward $317 $-1 #
vertex $-1 $325 $583 #
straight-curve $-1 -36.439071306347969 -69.562069000589389 11.973839663789359 0 -1 0 I I #
straight-curve $-1 -36.439071306347969 -31.778235296392936 2.4993212919016514 0 0.51503806187062418 0.85716730853699208 I I #
edge $-1 $329 -36.439071306347969 $577 -14.66156858102957 $327 $584 forward 7 unknown #
point $-1 -36.439071306347969 -31.77823529639295 11.973839663789359 #
point $-1 -36.439071306347969 -31.77823529639295 2.4993212919016279 #
edge $-1 $585 1 $585 0 $332 $-1 forward 7 unknown #
vertex $-1 $333 $586 #
ellipse-curve $-1 -30.216927670542709 -26.291122267116663 5.6498995282754816 0 -0.85716730853699208 0.51503806187062418 1.5 0 0 1 I I #
point $-1 -28.716927670542709 -28.931802907514651 7.236580477845509 #
edge $-1 $587 1 $587 0 $336 $-1 forward 7 unknown #
vertex $-1 $337 $588 #
ellipse-curve $-1 -20.883712216834823 -26.291122267116663 5.6498995282754816 0 -0.85716730853699208 0.51503806187062418 1.5 0 0 1 I I #
point $-1 -19.383712216834823 -28.931802907514651 7.236580477845509 #
loop $-1 $-1 $348 $340 #
plane-surface $-1 0 0 11.973839663789359 0 0 1 1 0 0 forward_v I I I I #
coedge $-1 $489 $343 $345 $493 reversed $219 $-1 #
coedge $-1 $343 $488 $589 $590 reversed $219 $-1 #
coedge $-1 $351 $346 $343 $491 forward $341 $-1 #
edge $-1 $494 -31.000301017420025 $591 -21.525782645532292 $490 $592 forward 7 unknown #
coedge $-1 $345 $344 $497 $593 reversed $137 $-1 #
edge $-1 $594 -11.053289454142575 $494 2.7494044966190042e-014 $488 $595 forward 7 unknown #
vertex $-1 $347 $596 #
straight-curve $-1 12.775159971844381 -31.77823529639295 2.4993212919016301 1 0 0 I I #
coedge $-1 $589 $348 $351 $501 forward $486 $-1 #
coedge $-1 $348 $589 $492 $593 forward $486 $-1 #
vertex $-1 $349 $597 #
straight-curve $-1 14.661568581029563 -69.562069000589389 11.973839663789359 0 -1 0 I I #
straight-curve $-1 14.661568581029563 -31.778235296392936 2.4993212919016514 0 0.51503806187062418 0.85716730853699208 I I #
edge $-1 $352 14.661568581029563 $591 36.439071306347962 $351 $598 forward 7 unknown #
point $-1 14.661568581029563 -31.77823529639295 11.973839663789359 #
point $-1 14.661568581029563 -31.77823529639295 2.4993212919016279 #
edge $-1 $599 1 $599 0 $355 $-1 forward 7 unknown #
vertex $-1 $356 $600 #
ellipse-curve $-1 20.883712216834837 -26.291122267116663 5.6498995282754816 0 -0.85716730853699208 0.51503806187062418 1.5 0 0 1 I I #
point $-1 22.383712216834837 -28.931802907514651 7.236580477845509 #
edge $-1 $601 1 $601 0 $359 $-1 forward 7 unknown #
vertex $-1 $360 $602 #
ellipse-curve $-1 30.216927670542717 -26.291122267116663 5.6498995282754816 0 -0.85716730853699208 0.51503806187062418 1.5 0 0 1 I I #
point $-1 31.716927670542717 -28.931802907514651 7.236580477845509 #
plane-surface $-1 62.616657002471996 0 0 -1 0 0 0 0 1 forward_v I I I I #
coedge $-1 $368 $366 $370 $517 reversed $241 $-1 #
edge $-1 $381 -11.973839663789359 $519 11.973839663789359 $380 $603 forward 7 unknown #
vertex $-1 $517 $604 #
straight-curve $-1 -62.616657002471996 -31.77823529639295 0 0 0 -1 I I #
edge $-1 $515 -31.77823529639295 $519 31.77823529639295 $513 $605 forward 7 unknown #
straight-curve $-1 0 -31.77823529639295 -11.973839663789359 -1 0 0 I I #
vertex $-1 $373 $606 #
straight-curve $-1 0 31.77823529639295 -11.973839663789359 1 0 0 I I #
point $-1 62.616657002471996 31.77823529639295 -11.973839663789359 #
point $-1 62.616657002471996 -31.77823529639295 -11.973839663789359 #
straight-curve $-1 -62.616657002471996 0 11.973839663789359 0 -1 0 I I #
point $-1 -62.616657002471996 31.77823529639295 11.973839663789359 #
point $-1 -62.616657002471996 -31.77823529639295 11.973839663789359 #
straight-curve $-1 62.616657002471996 -31.77823529639295 0 0 0 -1 I I #
straight-curve $-1 62.616657002471996 31.77823529639295 0 0 0 -1 I I #
plane-surface $-1 0 31.77823529639295 0 0 -1 0 0 0 -1 forward_v I I I I #
coedge $-1 $394 $393 $607 $608 forward $159 $-1 #
edge $-1 $397 53.285898010731202 $609 62.616657002471996 $396 $610 forward 7 unknown #
coedge $-1 $402 $401 $394 $532 reversed $403 $-1 #
edge $-1 $611 -62.616657002471996 $533 -53.285898010731202 $531 $612 forward 7 unknown #
vertex $-1 $409 $613 #
straight-curve $-1 -53.285898010731202 0 -11.973839663789359 0 -1 0 I I #
point $-1 -53.285898010731202 -31.77823529639295 -11.973839663789359 #
coedge $-1 $607 $399 $402 $539 forward $391 $-1 #
coedge $-1 $399 $607 $406 $541 reversed $391 $-1 #
straight-curve $-1 -62.616657002471996 0 -7.3803901767516393 0 1 0 I I #
edge $-1 $404 7.3803901767516393 $611 11.973839663789359 $402 $614 forward 7 unknown #
point $-1 -62.616657002471996 31.77823529639295 -7.3803901767516393 #
edge $-1 $407 7.3803901767516393 $609 11.973839663789359 $537 $615 forward 7 unknown #
point $-1 -62.616657002471996 -31.77823529639295 -7.3803901767516393 #
straight-curve $-1 -53.285898010731202 31.77823529639295 -4.8385574601352497 0 0 -1 I I #
plane-surface $-1 62.616657002471996 0 0 -1 0 0 0 0 1 forward_v I I I I #
coedge $-1 $556 $415 $421 $552 forward $276 $-1 #
coedge $-1 $415 $556 $547 $616 forward $276 $-1 #
coedge $-1 $417 $416 $546 $616 reversed $167 $-1 #
edge $-1 $427 2.5418327166163897 $549 7.1352822036541097 $416 $617 forward 7 unknown #
vertex $-1 $419 $618 #
straight-curve $-1 53.285898010731202 0 -11.973839663789359 0 1 0 I I #
straight-curve $-1 53.285898010731202 0 -7.3803901767516393 0 -1 0 I I #
edge $-1 $422 53.285898010731202 $560 62.616657002471996 $421 $619 forward 7 unknown #
point $-1 53.285898010731202 31.77823529639295 -11.973839663789359 #
point $-1 53.285898010731202 31.77823529639295 -7.3803901767516393 #
point $-1 53.285898010731202 -31.77823529639295 -7.3803901767516393 #
coedge $-1 $546 $545 $429 $557 forward $276 $-1 #
edge $-1 $560 -31.77823529639295 $558 31.77823529639295 $429 $620 forward 7 unknown #
vertex $-1 $430 $621 #
straight-curve $-1 62.616657002471996 -31.77823529639295 0 0 0 -1 I I #
vertex $-1 $557 $622 #
straight-curve $-1 62.616657002471996 31.77823529639295 0 0 0 -1 I I #
coedge $-1 $445 $444 $437 $563 forward $434 $-1 #
edge $-1 $564 -12.101547658720733 $567 5.636989457753657 $562 $623 forward 7 unknown #
vertex $-1 $563 $624 #
straight-curve $-1 -9.4960239510459878 31.77823529639295 70.982978433906226 0 0 1 I I #
edge $-1 $567 -7.4433674141620649 $446 3.3380543403942191 $445 $625 forward 7 unknown #
vertex $-1 $566 $626 #
straight-curve $-1 -9.4960239510459878 -23.263282566032515 33.510726023759432 0 0.8660253999169214 -0.50000000669873634 I I #
point $-1 -9.4960239510459878 31.77823529639295 1.7324903016184443 #
point $-1 1.2853978035102962 14.03969817991856 11.973839663789359 #
straight-curve $-1 0 31.77823529639295 11.973839663789359 -1 0 0 I I #
vertex $-1 $452 $627 #
point $-1 -5.4156177354584756 20.929108927884823 3.4239507248096501 #
vertex $-1 $456 $628 #
point $-1 -0.79500841207720896 20.929108927884823 3.4239507248096501 #
edge $-1 $577 37.783833704196439 $580 43.476698481953051 $461 $629 forward 7 unknown #
vertex $-1 $465 $630 #
straight-curve $-1 -14.66156858102957 -31.77823529639295 33.499622309321651 0 0 1 I I #
edge $-1 $580 1.8864086091851853 $472 23.663911334503585 $471 $631 forward 7 unknown #
vertex $-1 $579 $632 #
straight-curve $-1 -14.66156858102957 -31.778235296392936 2.4993212919016514 0 -0.51503806187062418 -0.85716730853699208 I I #
point $-1 -14.66156858102957 -31.77823529639295 2.4993212919016279 #
point $-1 -36.439071306347969 -26.085370518636335 11.973839663789359 #
straight-curve $-1 0 -31.77823529639295 11.973839663789359 1 0 0 I I #
vertex $-1 $478 $633 #
point $-1 -28.716927670542709 -26.291122267116663 5.6498995282754816 #
vertex $-1 $482 $634 #
point $-1 -19.383712216834823 -26.291122267116663 5.6498995282754816 #
coedge $-1 $497 $496 $489 $590 forward $486 $-1 #
edge $-1 $591 37.783833704196439 $594 43.476698481953051 $589 $635 forward 7 unknown #
vertex $-1 $590 $636 #
straight-curve $-1 36.439071306347962 -31.77823529639295 33.499622309321651 0 0 1 I I #
edge $-1 $594 -23.663911334503581 $498 -1.8864086091851817 $497 $637 forward 7 unknown #
vertex $-1 $593 $638 #
straight-curve $-1 36.439071306347962 -31.778235296392936 2.4993212919016514 0 -0.51503806187062418 -0.85716730853699208 I I #
point $-1 36.439071306347962 -31.77823529639295 2.4993212919016279 #
point $-1 14.661568581029563 -26.085370518636335 11.973839663789359 #
straight-curve $-1 0 -31.77823529639295 11.973839663789359 1 0 0 I I #
vertex $-1 $504 $639 #
point $-1 22.383712216834837 -26.291122267116663 5.6498995282754816 #
vertex $-1 $508 $640 #
point $-1 31.716927670542717 -26.291122267116663 5.6498995282754816 #
straight-curve $-1 -62.616657002471996 31.77823529639295 0 0 0 -1 I I #
point $-1 -62.616657002471996 -31.77823529639295 -11.973839663789359 #
straight-curve $-1 -62.616657002471996 0 -11.973839663789359 0 1 0 I I #
point $-1 -62.616657002471996 31.77823529639295 -11.973839663789359 #
coedge $-1 $537 $536 $529 $608 reversed $391 $-1 #
edge $-1 $609 -31.77823529639295 $611 31.77823529639295 $607 $641 forward 7 unknown #
vertex $-1 $608 $642 #
straight-curve $-1 0 -31.77823529639295 -11.973839663789359 -1 0 0 I I #
vertex $-1 $532 $643 #
straight-curve $-1 0 31.77823529639295 -11.973839663789359 1 0 0 I I #
point $-1 -53.285898010731202 31.77823529639295 -11.973839663789359 #
straight-curve $-1 -62.616657002471996 31.77823529639295 0 0 0 -1 I I #
straight-curve $-1 -62.616657002471996 -31.77823529639295 0 0 0 -1 I I #
edge $-1 $558 -62.616657002471996 $549 -53.285898010731202 $547 $644 forward 7 unknown #
straight-curve $-1 53.285898010731202 -31.77823529639295 -4.8385574601352497 0 0 -1 I I #
point $-1 53.285898010731202 -31.77823529639295 -11.973839663789359 #
straight-curve $-1 0 31.77823529639295 -11.973839663789359 1 0 0 I I #
straight-curve $-1 62.616657002471996 0 -11.973839663789359 0 -1 0 I I #
point $-1 62.616657002471996 -31.77823529639295 -11.973839663789359 #
point $-1 62.616657002471996 31.77823529639295 -11.973839663789359 #
straight-curve $-1 -9.4960239510459878 19.676687637672217 11.973839663789363 0 -1 0 I I #
point $-1 -9.4960239510459878 31.77823529639295 11.973839663789359 #
straight-curve $-1 -2.0526565368839229 14.039698179918567 11.973839663789361 1 0 0 I I #
point $-1 -9.4960239510459878 14.03969817991856 11.973839663789359 #
point $-1 -6.4156177354584756 20.429108921186089 2.5579253248927287 #
point $-1 -1.795008412077209 20.429108921186089 2.5579253248927287 #
straight-curve $-1 -14.66156858102957 -69.562069000589389 11.973839663789359 0 1 0 I I #
point $-1 -14.66156858102957 -31.77823529639295 11.973839663789359 #
straight-curve $-1 -12.775159971844385 -26.085370518636335 11.973839663789359 -1 0 0 I I #
point $-1 -14.66156858102957 -26.085370518636335 11.973839663789359 #
point $-1 -30.216927670542709 -25.005371304311176 4.8773424354695454 #
point $-1 -20.883712216834823 -25.005371304311176 4.8773424354695454 #
straight-curve $-1 36.439071306347962 -69.562069000589389 11.973839663789359 0 1 0 I I #
point $-1 36.439071306347962 -31.77823529639295 11.973839663789359 #
straight-curve $-1 12.775159971844381 -26.085370518636335 11.973839663789359 -1 0 0 I I #
point $-1 36.439071306347962 -26.085370518636335 11.973839663789359 #
point $-1 20.883712216834837 -25.005371304311176 4.8773424354695454 #
point $-1 30.216927670542717 -25.005371304311176 4.8773424354695454 #
straight-curve $-1 -62.616657002471996 0 -11.973839663789359 0 1 0 I I #
point $-1 -62.616657002471996 -31.77823529639295 -11.973839663789359 #
point $-1 -62.616657002471996 31.77823529639295 -11.973839663789359 #
straight-curve $-1 0 -31.77823529639295 -11.973839663789359 -1 0 0 I I #
End-of-ACIS-data 