500 0 18 0           
7 Unknown 11 ACIS 5.0 NT 24 Thu Mar 25 18:20:06 1999 
-1 9.9999999999999995e-007 1e-010 
body $-1 $18 $-1 $19 #
body $-1 $20 $-1 $21 #
body $-1 $22 $-1 $23 #
body $-1 $24 $-1 $25 #
body $-1 $26 $-1 $27 #
body $-1 $28 $-1 $29 #
body $-1 $30 $-1 $31 #
body $-1 $32 $-1 $33 #
body $-1 $34 $-1 $35 #
body $-1 $36 $-1 $37 #
body $-1 $38 $-1 $39 #
body $-1 $40 $-1 $41 #
body $-1 $42 $-1 $43 #
body $-1 $44 $-1 $45 #
body $-1 $46 $-1 $47 #
body $-1 $48 $-1 $49 #
body $-1 $50 $-1 $51 #
body $-1 $52 $-1 $53 #
lump $-1 $-1 $54 $0 #
transform $-1 1 0 0 0 1 0 0 0 1 76.299935911130092 35.650957023229928 7.5506000411942225 1 rotate no_reflect no_shear #
lump $-1 $-1 $55 $1 #
transform $-1 1 0 0 0 1 0 0 0 1 76.299935911130092 35.650957023229928 7.5506000411942225 1 rotate no_reflect no_shear #
lump $-1 $-1 $56 $2 #
transform $-1 1 0 0 0 1 0 0 0 1 76.299935911130092 35.650957023229928 7.5506000411942225 1 rotate no_reflect no_shear #
lump $-1 $-1 $57 $3 #
transform $-1 1 0 0 0 1 0 0 0 1 76.299935911130092 35.650957023229928 7.5506000411942225 1 rotate no_reflect no_shear #
lump $-1 $-1 $58 $4 #
transform $-1 1 0 0 0 1 0 0 0 1 76.299935911130092 35.650957023229928 7.5506000411942225 1 rotate no_reflect no_shear #
lump $-1 $-1 $59 $5 #
transform $-1 1 0 0 0 1 0 0 0 1 76.299935911130092 35.650957023229928 7.5506000411942225 1 rotate no_reflect no_shear #
lump $-1 $-1 $60 $6 #
transform $-1 1 0 0 0 1 0 0 0 1 76.299935911130092 35.650957023229928 7.5506000411942225 1 rotate no_reflect no_shear #
lump $-1 $-1 $61 $7 #
transform $-1 1 0 0 0 1 0 0 0 1 76.299935911130092 35.650957023229928 7.5506000411942225 1 rotate no_reflect no_shear #
lump $-1 $-1 $62 $8 #
transform $-1 1 0 0 0 1 0 0 0 1 76.299935911130092 35.650957023229928 7.5506000411942225 1 rotate no_reflect no_shear #
lump $-1 $-1 $63 $9 #
transform $-1 1 0 0 0 1 0 0 0 1 76.299935911130092 35.650957023229928 7.5506000411942225 1 rotate no_reflect no_shear #
lump $-1 $-1 $64 $10 #
transform $-1 1 0 0 0 1 0 0 0 1 76.299935911130092 35.650957023229928 7.5506000411942225 1 rotate no_reflect no_shear #
lump $-1 $-1 $65 $11 #
transform $-1 1 0 0 0 1 0 0 0 1 76.299935911130092 35.650957023229928 7.5506000411942225 1 rotate no_reflect no_shear #
lump $-1 $-1 $66 $12 #
transform $-1 1 0 0 0 1 0 0 0 1 76.299935911130092 35.650957023229928 7.5506000411942225 1 rotate no_reflect no_shear #
lump $-1 $-1 $67 $13 #
transform $-1 1 0 0 0 1 0 0 0 1 76.299935911130092 35.650957023229928 7.5506000411942225 1 rotate no_reflect no_shear #
lump $-1 $-1 $68 $14 #
transform $-1 1 0 0 0 1 0 0 0 1 76.299935911130092 35.650957023229928 7.5506000411942225 1 rotate no_reflect no_shear #
lump $-1 $-1 $69 $15 #
transform $-1 1 0 0 0 1 0 0 0 1 76.299935911130092 35.650957023229928 7.5506000411942225 1 rotate no_reflect no_shear #
lump $-1 $-1 $70 $16 #
transform $-1 1 0 0 0 1 0 0 0 1 76.299935911130092 35.650957023229928 7.5506000411942225 1 rotate no_reflect no_shear #
lump $-1 $-1 $71 $17 #
transform $-1 1 0 0 0 1 0 0 0 1 76.299935911130092 35.650957023229928 7.5506000411942225 1 rotate no_reflect no_shear #
shell $-1 $-1 $-1 $72 $-1 $18 #
shell $-1 $-1 $-1 $73 $-1 $20 #
shell $-1 $-1 $-1 $74 $-1 $22 #
shell $-1 $-1 $-1 $75 $-1 $24 #
shell $-1 $-1 $-1 $76 $-1 $26 #
shell $-1 $-1 $-1 $77 $-1 $28 #
shell $-1 $-1 $-1 $78 $-1 $30 #
shell $-1 $-1 $-1 $79 $-1 $32 #
shell $-1 $-1 $-1 $80 $-1 $34 #
shell $-1 $-1 $-1 $81 $-1 $36 #
shell $-1 $-1 $-1 $82 $-1 $38 #
shell $-1 $-1 $-1 $83 $-1 $40 #
shell $-1 $-1 $-1 $84 $-1 $42 #
shell $-1 $-1 $-1 $85 $-1 $44 #
shell $-1 $-1 $-1 $86 $-1 $46 #
shell $-1 $-1 $-1 $87 $-1 $48 #
shell $-1 $-1 $-1 $88 $-1 $50 #
shell $-1 $-1 $-1 $89 $-1 $52 #
face $-1 $90 $91 $54 $-1 $92 forward single #
face $-1 $93 $94 $55 $-1 $95 forward single #
face $-1 $96 $97 $56 $-1 $98 reversed single #
face $-1 $99 $100 $57 $-1 $101 forward single #
face $-1 $102 $103 $58 $-1 $104 forward single #
face $-1 $105 $106 $59 $-1 $107 forward single #
face $-1 $108 $109 $60 $-1 $110 reversed single #
face $-1 $111 $112 $61 $-1 $113 forward single #
face $-1 $114 $115 $62 $-1 $116 forward single #
face $-1 $117 $118 $63 $-1 $119 forward single #
face $-1 $120 $121 $64 $-1 $122 reversed single #
face $-1 $123 $124 $65 $-1 $125 forward single #
face $-1 $126 $127 $66 $-1 $128 forward single #
face $-1 $129 $130 $67 $-1 $131 forward single #
face $-1 $132 $133 $68 $-1 $134 reversed single #
face $-1 $135 $136 $69 $-1 $137 forward single #
face $-1 $138 $139 $70 $-1 $140 forward single #
face $-1 $141 $142 $71 $-1 $143 forward single #
face $-1 $144 $145 $54 $-1 $146 reversed single #
loop $-1 $-1 $147 $72 #
plane-surface $-1 0 0 7.5506000411942225 0 0 1 1 0 0 forward_v I I I I #
face $-1 $148 $149 $55 $-1 $150 reversed single #
loop $-1 $-1 $151 $73 #
plane-surface $-1 0 -35.650957023229928 0 0 1 0 0 0 1 forward_v I I I I #
face $-1 $152 $153 $56 $-1 $154 reversed single #
loop $-1 $-1 $155 $74 #
plane-surface $-1 -202.81096445096404 -28.246202673678901 86.046594073555099 0 1 0 -0.82903758062907751 0 0.55919289150049634 forward_v I I I I #
face $-1 $156 $157 $57 $-1 $158 forward single #
loop $-1 $159 $160 $75 #
cone-surface $-1 -73.187655018930442 -26.152896465175157 3.5881895531265906 0.82903758062907751 0 -0.55919289150049634 0.27959644575024817 0 0.41451879031453875 1 I I 0 1 0.5 forward I I I I #
face $-1 $161 $162 $58 $-1 $163 forward single #
loop $-1 $164 $165 $76 #
cone-surface $-1 -73.187655018930442 -23.012937152419539 3.5881895531265906 0.82903758062907751 0 -0.55919289150049634 0.27959644575024817 0 0.41451879031453875 1 I I 0 1 0.5 forward I I I I #
face $-1 $166 $167 $59 $-1 $168 forward single #
loop $-1 $169 $170 $77 #
cone-surface $-1 -73.187655018930442 -19.872977839663921 3.5881895531265906 0.82903758062907751 0 -0.55919289150049634 0.27959644575024817 0 0.41451879031453875 1 I I 0 1 0.5 forward I I I I #
face $-1 $171 $172 $60 $-1 $173 reversed single #
loop $-1 $-1 $174 $78 #
plane-surface $-1 -202.81096445096404 -12.271912749451694 86.046594073555099 0 1 0 -0.82903758062907751 0 0.55919289150049634 forward_v I I I I #
face $-1 $175 $176 $61 $-1 $177 forward single #
loop $-1 $178 $179 $79 #
cone-surface $-1 -73.187655018930442 -10.17860654094795 3.5881895531265906 0.82903758062907751 0 -0.55919289150049634 0.27959644575024817 0 0.41451879031453875 1 I I 0 1 0.5 forward I I I I #
face $-1 $180 $181 $62 $-1 $182 forward single #
loop $-1 $183 $184 $80 #
cone-surface $-1 -73.187655018930442 -7.0386472281923318 3.5881895531265906 0.82903758062907751 0 -0.55919289150049634 0.27959644575024817 0 0.41451879031453875 1 I I 0 1 0.5 forward I I I I #
face $-1 $185 $186 $63 $-1 $187 forward single #
loop $-1 $188 $189 $81 #
cone-surface $-1 -73.187655018930442 -3.8986879154367138 3.5881895531265906 0.82903758062907751 0 -0.55919289150049634 0.27959644575024817 0 0.41451879031453875 1 I I 0 1 0.5 forward I I I I #
face $-1 $190 $191 $64 $-1 $192 reversed single #
loop $-1 $-1 $193 $82 #
plane-surface $-1 -202.81096445096404 3.7023771747755125 86.046594073555099 0 1 0 -0.82903758062907751 0 0.55919289150049634 forward_v I I I I #
face $-1 $194 $195 $65 $-1 $196 forward single #
loop $-1 $197 $198 $83 #
cone-surface $-1 -73.187655018930442 5.7956833832792611 3.5881895531265906 0.82903758062907751 0 -0.55919289150049634 0.27959644575024817 0 0.41451879031453875 1 I I 0 1 0.5 forward I I I I #
face $-1 $199 $200 $66 $-1 $201 forward single #
loop $-1 $202 $203 $84 #
cone-surface $-1 -73.187655018930442 8.9356426960348756 3.5881895531265906 0.82903758062907751 0 -0.55919289150049634 0.27959644575024817 0 0.41451879031453875 1 I I 0 1 0.5 forward I I I I #
face $-1 $204 $205 $67 $-1 $206 forward single #
loop $-1 $207 $208 $85 #
cone-surface $-1 -73.187655018930442 12.07560200879049 3.5881895531265906 0.82903758062907751 0 -0.55919289150049634 0.27959644575024817 0 0.41451879031453875 1 I I 0 1 0.5 forward I I I I #
face $-1 $209 $210 $68 $-1 $211 reversed single #
loop $-1 $-1 $212 $86 #
plane-surface $-1 -202.81096445096404 19.676667099002721 86.046594073555099 0 1 0 -0.82903758062907751 0 0.55919289150049634 forward_v I I I I #
face $-1 $213 $214 $69 $-1 $215 forward single #
loop $-1 $216 $217 $87 #
cone-surface $-1 -73.187655018930442 21.769973307506469 3.5881895531265906 0.82903758062907751 0 -0.55919289150049634 0.27959644575024817 0 0.41451879031453875 1 I I 0 1 0.5 forward I I I I #
face $-1 $218 $219 $70 $-1 $220 forward single #
loop $-1 $221 $222 $88 #
cone-surface $-1 -73.187655018930442 24.909932620262083 3.5881895531265906 0.82903758062907751 0 -0.55919289150049634 0.27959644575024817 0 0.41451879031453875 1 I I 0 1 0.5 forward I I I I #
face $-1 $223 $224 $71 $-1 $225 forward single #
loop $-1 $226 $227 $89 #
cone-surface $-1 -73.187655018930442 28.049891933017697 3.5881895531265906 0.82903758062907751 0 -0.55919289150049634 0.27959644575024817 0 0.41451879031453875 1 I I 0 1 0.5 forward I I I I #
face $-1 $228 $229 $54 $-1 $230 reversed single #
loop $-1 $-1 $231 $90 #
plane-surface $-1 0 0 -7.5506000411942225 0 0 1 1 0 0 forward_v I I I I #
coedge $-1 $232 $233 $234 $235 forward $91 $-1 #
face $-1 $236 $237 $55 $-1 $238 reversed single #
loop $-1 $-1 $239 $93 #
plane-surface $-1 0 0 -7.5506000411942225 0 0 1 1 0 0 forward_v I I I I #
coedge $-1 $240 $241 $242 $243 forward $94 $-1 #
face $-1 $244 $245 $56 $-1 $246 reversed single #
loop $-1 $-1 $247 $96 #
plane-surface $-1 -76.29993591113012 -23.012937152419539 0.71383050666031522 -0.82903758062907751 0 0.55919289150049634 0.55919289150049634 0 0.82903758062907751 forward_v I I I I #
coedge $-1 $248 $249 $250 $251 reversed $97 $-1 #
face $-1 $-1 $252 $57 $-1 $253 forward single #
loop $-1 $254 $255 $99 #
cone-surface $-1 -72.17384429912677 -26.152896465175157 2.9043656094507924 0.82903758062907751 0 -0.55919289150049634 0.13979822287512408 0 0.20725939515726938 1 I I -0.70710678118654746 0.70710678118654746 0.25 forward I I I I #
loop $-1 $-1 $256 $75 #
coedge $-1 $160 $160 $257 $258 reversed $100 $-1 #
face $-1 $-1 $259 $58 $-1 $260 forward single #
loop $-1 $261 $262 $102 #
cone-surface $-1 -72.17384429912677 -23.012937152419539 2.9043656094507924 0.82903758062907751 0 -0.55919289150049634 0.13979822287512408 0 0.20725939515726938 1 I I -0.70710678118654746 0.70710678118654746 0.25 forward I I I I #
loop $-1 $-1 $263 $76 #
coedge $-1 $165 $165 $264 $265 reversed $103 $-1 #
face $-1 $-1 $266 $59 $-1 $267 forward single #
loop $-1 $268 $269 $105 #
cone-surface $-1 -72.17384429912677 -19.872977839663921 2.9043656094507924 0.82903758062907751 0 -0.55919289150049634 0.13979822287512408 0 0.20725939515726938 1 I I -0.70710678118654746 0.70710678118654746 0.25 forward I I I I #
loop $-1 $-1 $270 $77 #
coedge $-1 $170 $170 $271 $272 reversed $106 $-1 #
face $-1 $273 $274 $60 $-1 $275 reversed single #
loop $-1 $-1 $276 $108 #
plane-surface $-1 -76.29993591113012 -7.0386472281923318 0.71383050666031522 -0.82903758062907751 0 0.55919289150049634 0.55919289150049634 0 0.82903758062907751 forward_v I I I I #
coedge $-1 $277 $278 $279 $280 reversed $109 $-1 #
face $-1 $-1 $281 $61 $-1 $282 forward single #
loop $-1 $283 $284 $111 #
cone-surface $-1 -72.17384429912677 -10.17860654094795 2.9043656094507924 0.82903758062907751 0 -0.55919289150049634 0.13979822287512408 0 0.20725939515726938 1 I I -0.70710678118654746 0.70710678118654746 0.25 forward I I I I #
loop $-1 $-1 $285 $79 #
coedge $-1 $179 $179 $286 $287 reversed $112 $-1 #
face $-1 $-1 $288 $62 $-1 $289 forward single #
loop $-1 $290 $291 $114 #
cone-surface $-1 -72.17384429912677 -7.0386472281923318 2.9043656094507924 0.82903758062907751 0 -0.55919289150049634 0.13979822287512408 0 0.20725939515726938 1 I I -0.70710678118654746 0.70710678118654746 0.25 forward I I I I #
loop $-1 $-1 $292 $80 #
coedge $-1 $184 $184 $293 $294 reversed $115 $-1 #
face $-1 $-1 $295 $63 $-1 $296 forward single #
loop $-1 $297 $298 $117 #
cone-surface $-1 -72.17384429912677 -3.8986879154367138 2.9043656094507924 0.82903758062907751 0 -0.55919289150049634 0.13979822287512408 0 0.20725939515726938 1 I I -0.70710678118654746 0.70710678118654746 0.25 forward I I I I #
loop $-1 $-1 $299 $81 #
coedge $-1 $189 $189 $300 $301 reversed $118 $-1 #
face $-1 $302 $303 $64 $-1 $304 reversed single #
loop $-1 $-1 $305 $120 #
plane-surface $-1 -76.29993591113012 8.9356426960348756 0.71383050666031522 -0.82903758062907751 0 0.55919289150049634 0.55919289150049634 0 0.82903758062907751 forward_v I I I I #
coedge $-1 $306 $307 $308 $309 reversed $121 $-1 #
face $-1 $-1 $310 $65 $-1 $311 forward single #
loop $-1 $312 $313 $123 #
cone-surface $-1 -72.17384429912677 5.7956833832792611 2.9043656094507924 0.82903758062907751 0 -0.55919289150049634 0.13979822287512408 0 0.20725939515726938 1 I I -0.70710678118654746 0.70710678118654746 0.25 forward I I I I #
loop $-1 $-1 $314 $83 #
coedge $-1 $198 $198 $315 $316 reversed $124 $-1 #
face $-1 $-1 $317 $66 $-1 $318 forward single #
loop $-1 $319 $320 $126 #
cone-surface $-1 -72.17384429912677 8.9356426960348756 2.9043656094507924 0.82903758062907751 0 -0.55919289150049634 0.13979822287512408 0 0.20725939515726938 1 I I -0.70710678118654746 0.70710678118654746 0.25 forward I I I I #
loop $-1 $-1 $321 $84 #
coedge $-1 $203 $203 $322 $323 reversed $127 $-1 #
face $-1 $-1 $324 $67 $-1 $325 forward single #
loop $-1 $326 $327 $129 #
cone-surface $-1 -72.17384429912677 12.07560200879049 2.9043656094507924 0.82903758062907751 0 -0.55919289150049634 0.13979822287512408 0 0.20725939515726938 1 I I -0.70710678118654746 0.70710678118654746 0.25 forward I I I I #
loop $-1 $-1 $328 $85 #
coedge $-1 $208 $208 $329 $330 reversed $130 $-1 #
face $-1 $331 $332 $68 $-1 $333 reversed single #
loop $-1 $-1 $334 $132 #
plane-surface $-1 -76.29993591113012 24.909932620262083 0.71383050666031522 -0.82903758062907751 0 0.55919289150049634 0.55919289150049634 0 0.82903758062907751 forward_v I I I I #
coedge $-1 $335 $336 $337 $338 reversed $133 $-1 #
face $-1 $-1 $339 $69 $-1 $340 forward single #
loop $-1 $341 $342 $135 #
cone-surface $-1 -72.17384429912677 21.769973307506469 2.9043656094507924 0.82903758062907751 0 -0.55919289150049634 0.13979822287512408 0 0.20725939515726938 1 I I -0.70710678118654746 0.70710678118654746 0.25 forward I I I I #
loop $-1 $-1 $343 $87 #
coedge $-1 $217 $217 $344 $345 reversed $136 $-1 #
face $-1 $-1 $346 $70 $-1 $347 forward single #
loop $-1 $348 $349 $138 #
cone-surface $-1 -72.17384429912677 24.909932620262083 2.9043656094507924 0.82903758062907751 0 -0.55919289150049634 0.13979822287512408 0 0.20725939515726938 1 I I -0.70710678118654746 0.70710678118654746 0.25 forward I I I I #
loop $-1 $-1 $350 $88 #
coedge $-1 $222 $222 $351 $352 reversed $139 $-1 #
face $-1 $-1 $353 $71 $-1 $354 forward single #
loop $-1 $355 $356 $141 #
cone-surface $-1 -72.17384429912677 28.049891933017697 2.9043656094507924 0.82903758062907751 0 -0.55919289150049634 0.13979822287512408 0 0.20725939515726938 1 I I -0.70710678118654746 0.70710678118654746 0.25 forward I I I I #
loop $-1 $-1 $357 $89 #
coedge $-1 $227 $227 $358 $359 reversed $142 $-1 #
face $-1 $360 $361 $54 $-1 $362 reversed single #
loop $-1 $-1 $363 $144 #
plane-surface $-1 0 -35.650957023229928 0 0 1 0 0 0 1 forward_v I I I I #
coedge $-1 $364 $365 $366 $367 forward $145 $-1 #
coedge $-1 $368 $147 $369 $370 forward $91 $-1 #
coedge $-1 $147 $368 $371 $372 forward $91 $-1 #
coedge $-1 $373 $374 $147 $235 reversed $375 $-1 #
edge $-1 $376 -35.650957023229928 $377 35.650957023229928 $234 $378 forward 7 unknown #
face $-1 $379 $380 $55 $-1 $381 reversed single #
loop $-1 $-1 $382 $148 #
plane-surface $-1 -70.187985270886344 -43.055711372780955 0 0 1 0 0 0 1 forward_v I I I I #
coedge $-1 $383 $384 $241 $385 forward $149 $-1 #
coedge $-1 $386 $151 $387 $388 reversed $94 $-1 #
coedge $-1 $151 $386 $239 $385 reversed $94 $-1 #
coedge $-1 $389 $390 $151 $243 reversed $380 $-1 #
edge $-1 $391 -7.5506000411942225 $392 7.5506000411942225 $242 $393 forward 7 unknown #
face $-1 $394 $395 $56 $-1 $396 reversed single #
loop $-1 $-1 $397 $152 #
plane-surface $-1 -202.81096445096404 -17.779671631160177 86.046594073555099 0 -1 0 0.82903758062907751 0 -0.55919289150049634 forward_v I I I I #
coedge $-1 $398 $399 $400 $401 reversed $153 $-1 #
coedge $-1 $249 $155 $402 $403 reversed $97 $-1 #
coedge $-1 $155 $248 $398 $404 reversed $97 $-1 #
coedge $-1 $400 $405 $155 $251 forward $406 $-1 #
edge $-1 $407 25.105546314351926 $408 29.717005449458355 $250 $409 forward 7 unknown #
loop $-1 $-1 $257 $156 #
plane-surface $-1 -76.29993591113012 -23.012937152419539 0.71383050666031522 -0.82903758062907751 0 0.55919289150049634 0.55919289150049634 0 0.82903758062907751 forward_v I I I I #
loop $-1 $-1 $410 $99 #
coedge $-1 $255 $255 $256 $411 reversed $157 $-1 #
coedge $-1 $256 $256 $255 $411 forward $159 $-1 #
coedge $-1 $257 $257 $160 $258 forward $252 $-1 #
edge $-1 $412 0 $412 6.2831853071796004 $257 $413 forward 7 unknown #
loop $-1 $-1 $264 $161 #
plane-surface $-1 -76.29993591113012 -23.012937152419539 0.71383050666031522 -0.82903758062907751 0 0.55919289150049634 0.55919289150049634 0 0.82903758062907751 forward_v I I I I #
loop $-1 $-1 $414 $102 #
coedge $-1 $262 $262 $263 $415 reversed $162 $-1 #
coedge $-1 $263 $263 $262 $415 forward $164 $-1 #
coedge $-1 $264 $264 $165 $265 forward $259 $-1 #
edge $-1 $416 0 $416 6.2831853071796004 $264 $417 forward 7 unknown #
loop $-1 $-1 $271 $166 #
plane-surface $-1 -76.29993591113012 -23.012937152419539 0.71383050666031522 -0.82903758062907751 0 0.55919289150049634 0.55919289150049634 0 0.82903758062907751 forward_v I I I I #
loop $-1 $-1 $418 $105 #
coedge $-1 $269 $269 $270 $419 reversed $167 $-1 #
coedge $-1 $270 $270 $269 $419 forward $169 $-1 #
coedge $-1 $271 $271 $170 $272 forward $266 $-1 #
edge $-1 $420 0 $420 6.2831853071796004 $271 $421 forward 7 unknown #
face $-1 $422 $423 $60 $-1 $424 forward single #
loop $-1 $-1 $425 $171 #
plane-surface $-1 -202.81096445096404 -1.8053817069329687 86.046594073555099 0 -1 0 0.82903758062907751 0 -0.55919289150049634 forward_v I I I I #
coedge $-1 $426 $427 $428 $429 reversed $172 $-1 #
coedge $-1 $278 $174 $430 $431 reversed $109 $-1 #
coedge $-1 $174 $277 $426 $432 reversed $109 $-1 #
coedge $-1 $428 $433 $174 $280 forward $423 $-1 #
edge $-1 $434 25.105546314351926 $435 29.717005449458355 $279 $436 forward 7 unknown #
loop $-1 $-1 $286 $175 #
plane-surface $-1 -76.29993591113012 -7.0386472281923318 0.71383050666031522 -0.82903758062907751 0 0.55919289150049634 0.55919289150049634 0 0.82903758062907751 forward_v I I I I #
loop $-1 $-1 $437 $111 #
coedge $-1 $284 $284 $285 $438 reversed $176 $-1 #
coedge $-1 $285 $285 $284 $438 forward $178 $-1 #
coedge $-1 $286 $286 $179 $287 forward $281 $-1 #
edge $-1 $439 0 $439 6.2831853071796004 $286 $440 forward 7 unknown #
loop $-1 $-1 $293 $180 #
plane-surface $-1 -76.29993591113012 -7.0386472281923318 0.71383050666031522 -0.82903758062907751 0 0.55919289150049634 0.55919289150049634 0 0.82903758062907751 forward_v I I I I #
loop $-1 $-1 $441 $114 #
coedge $-1 $291 $291 $292 $442 reversed $181 $-1 #
coedge $-1 $292 $292 $291 $442 forward $183 $-1 #
coedge $-1 $293 $293 $184 $294 forward $288 $-1 #
edge $-1 $443 0 $443 6.2831853071796004 $293 $444 forward 7 unknown #
loop $-1 $-1 $300 $185 #
plane-surface $-1 -76.29993591113012 -7.0386472281923318 0.71383050666031522 -0.82903758062907751 0 0.55919289150049634 0.55919289150049634 0 0.82903758062907751 forward_v I I I I #
loop $-1 $-1 $445 $117 #
coedge $-1 $298 $298 $299 $446 reversed $186 $-1 #
coedge $-1 $299 $299 $298 $446 forward $188 $-1 #
coedge $-1 $300 $300 $189 $301 forward $295 $-1 #
edge $-1 $447 0 $447 6.2831853071796004 $300 $448 forward 7 unknown #
face $-1 $449 $450 $64 $-1 $451 forward single #
loop $-1 $-1 $452 $190 #
plane-surface $-1 -202.81096445096404 14.168908217294238 86.046594073555099 0 -1 0 0.82903758062907751 0 -0.55919289150049634 forward_v I I I I #
coedge $-1 $453 $454 $455 $456 reversed $191 $-1 #
coedge $-1 $307 $193 $457 $458 reversed $121 $-1 #
coedge $-1 $193 $306 $453 $459 reversed $121 $-1 #
coedge $-1 $455 $460 $193 $309 forward $450 $-1 #
edge $-1 $461 25.105546314351926 $462 29.717005449458355 $308 $463 forward 7 unknown #
loop $-1 $-1 $315 $194 #
plane-surface $-1 -76.29993591113012 8.9356426960348756 0.71383050666031522 -0.82903758062907751 0 0.55919289150049634 0.55919289150049634 0 0.82903758062907751 forward_v I I I I #
loop $-1 $-1 $464 $123 #
coedge $-1 $313 $313 $314 $465 reversed $195 $-1 #
coedge $-1 $314 $314 $313 $465 forward $197 $-1 #
coedge $-1 $315 $315 $198 $316 forward $310 $-1 #
edge $-1 $466 0 $466 6.2831853071796004 $315 $467 forward 7 unknown #
loop $-1 $-1 $322 $199 #
plane-surface $-1 -76.29993591113012 8.9356426960348756 0.71383050666031522 -0.82903758062907751 0 0.55919289150049634 0.55919289150049634 0 0.82903758062907751 forward_v I I I I #
loop $-1 $-1 $468 $126 #
coedge $-1 $320 $320 $321 $469 reversed $200 $-1 #
coedge $-1 $321 $321 $320 $469 forward $202 $-1 #
coedge $-1 $322 $322 $203 $323 forward $317 $-1 #
edge $-1 $470 0 $470 6.2831853071796004 $322 $471 forward 7 unknown #
loop $-1 $-1 $329 $204 #
plane-surface $-1 -76.29993591113012 8.9356426960348756 0.71383050666031522 -0.82903758062907751 0 0.55919289150049634 0.55919289150049634 0 0.82903758062907751 forward_v I I I I #
loop $-1 $-1 $472 $129 #
coedge $-1 $327 $327 $328 $473 reversed $205 $-1 #
coedge $-1 $328 $328 $327 $473 forward $207 $-1 #
coedge $-1 $329 $329 $208 $330 forward $324 $-1 #
edge $-1 $474 0 $474 6.2831853071796004 $329 $475 forward 7 unknown #
face $-1 $476 $477 $68 $-1 $478 forward single #
loop $-1 $-1 $479 $209 #
plane-surface $-1 -202.81096445096404 30.143198141521445 86.046594073555099 0 -1 0 0.82903758062907751 0 -0.55919289150049634 forward_v I I I I #
coedge $-1 $480 $481 $482 $483 reversed $210 $-1 #
coedge $-1 $336 $212 $484 $485 reversed $133 $-1 #
coedge $-1 $212 $335 $480 $486 reversed $133 $-1 #
coedge $-1 $482 $487 $212 $338 forward $477 $-1 #
edge $-1 $488 25.105546314351926 $489 29.717005449458355 $337 $490 forward 7 unknown #
loop $-1 $-1 $344 $213 #
plane-surface $-1 -76.29993591113012 24.909932620262083 0.71383050666031522 -0.82903758062907751 0 0.55919289150049634 0.55919289150049634 0 0.82903758062907751 forward_v I I I I #
loop $-1 $-1 $491 $135 #
coedge $-1 $342 $342 $343 $492 reversed $214 $-1 #
coedge $-1 $343 $343 $342 $492 forward $216 $-1 #
coedge $-1 $344 $344 $217 $345 forward $339 $-1 #
edge $-1 $493 0 $493 6.2831853071796004 $344 $494 forward 7 unknown #
loop $-1 $-1 $351 $218 #
plane-surface $-1 -76.29993591113012 24.909932620262083 0.71383050666031522 -0.82903758062907751 0 0.55919289150049634 0.55919289150049634 0 0.82903758062907751 forward_v I I I I #
loop $-1 $-1 $495 $138 #
coedge $-1 $349 $349 $350 $496 reversed $219 $-1 #
coedge $-1 $350 $350 $349 $496 forward $221 $-1 #
coedge $-1 $351 $351 $222 $352 forward $346 $-1 #
edge $-1 $497 0 $497 6.2831853071796004 $351 $498 forward 7 unknown #
loop $-1 $-1 $358 $223 #
plane-surface $-1 -76.29993591113012 24.909932620262083 0.71383050666031522 -0.82903758062907751 0 0.55919289150049634 0.55919289150049634 0 0.82903758062907751 forward_v I I I I #
loop $-1 $-1 $499 $141 #
coedge $-1 $356 $356 $357 $500 reversed $224 $-1 #
coedge $-1 $357 $357 $356 $500 forward $226 $-1 #
coedge $-1 $358 $358 $227 $359 forward $353 $-1 #
edge $-1 $501 0 $501 6.2831853071796004 $358 $502 forward 7 unknown #
face $-1 $503 $504 $54 $-1 $505 reversed single #
loop $-1 $-1 $506 $228 #
plane-surface $-1 -76.299935911130092 0 0 1 0 0 0 0 -1 forward_v I I I I #
coedge $-1 $507 $371 $508 $509 forward $229 $-1 #
coedge $-1 $510 $231 $507 $511 forward $145 $-1 #
coedge $-1 $231 $510 $512 $513 forward $145 $-1 #
coedge $-1 $374 $373 $231 $367 reversed $375 $-1 #
edge $-1 $514 -35.650957023229928 $515 35.650957023229928 $366 $516 forward 7 unknown #
coedge $-1 $233 $232 $517 $518 forward $91 $-1 #
coedge $-1 $519 $520 $232 $370 reversed $504 $-1 #
edge $-1 $377 -76.299935911130092 $521 76.299935911130092 $369 $522 forward 7 unknown #
coedge $-1 $363 $523 $233 $372 reversed $229 $-1 #
edge $-1 $524 -76.299935911130092 $376 76.299935911130092 $371 $525 forward 7 unknown #
coedge $-1 $366 $234 $523 $526 forward $375 $-1 #
coedge $-1 $234 $366 $519 $527 reversed $375 $-1 #
loop $-1 $-1 $373 $503 #
vertex $-1 $235 $528 #
vertex $-1 $235 $529 #
straight-curve $-1 76.299935911130092 0 7.5506000411942225 0 1 0 I I #
face $-1 $530 $531 $55 $-1 $532 reversed single #
loop $-1 $-1 $242 $236 #
plane-surface $-1 -71.687985270886344 -39.353334198005442 0 1 0 0 0 0 -1 forward_v I I I I #
coedge $-1 $533 $534 $535 $536 forward $237 $-1 #
coedge $-1 $537 $239 $538 $539 forward $149 $-1 #
coedge $-1 $239 $537 $389 $540 forward $149 $-1 #
edge $-1 $391 -71.687985270886344 $541 -68.687985270886344 $239 $542 forward 7 unknown #
coedge $-1 $241 $240 $543 $544 forward $94 $-1 #
coedge $-1 $545 $546 $240 $388 forward $547 $-1 #
edge $-1 $548 68.687985270886344 $392 71.687985270886344 $387 $549 forward 7 unknown #
coedge $-1 $535 $242 $384 $540 reversed $380 $-1 #
coedge $-1 $242 $535 $545 $550 reversed $380 $-1 #
vertex $-1 $385 $551 #
vertex $-1 $550 $552 #
straight-curve $-1 -71.687985270886344 -35.650957023229928 0 0 0 1 I I #
face $-1 $-1 $406 $56 $-1 $553 forward single #
loop $-1 $-1 $554 $244 #
plane-surface $-1 -76.299935911130092 0 0 1 0 0 0 0 -1 forward_v I I I I #
coedge $-1 $555 $556 $557 $558 reversed $245 $-1 #
coedge $-1 $559 $247 $249 $404 forward $153 $-1 #
coedge $-1 $247 $559 $555 $560 forward $153 $-1 #
coedge $-1 $557 $250 $247 $401 forward $406 $-1 #
edge $-1 $408 -16.739734097469132 $561 -6.2732030549504074 $400 $562 forward 7 unknown #
coedge $-1 $563 $564 $248 $403 forward $395 $-1 #
edge $-1 $565 -42.309466530117191 $407 -35.472696995583327 $402 $566 forward 7 unknown #
edge $-1 $408 -8.2466340420251338 $565 -5.0869049068944123e-014 $249 $567 forward 7 unknown #
coedge $-1 $250 $557 $563 $568 forward $406 $-1 #
loop $-1 $-1 $557 $394 #
vertex $-1 $403 $569 #
vertex $-1 $251 $570 #
straight-curve $-1 -101.40548222548202 -28.246202673678901 7.5506000411942225 1 0 0 I I #
coedge $-1 $410 $410 $-1 $571 reversed $254 $-1 #
edge $-1 $572 0 $572 6.2831853071796004 $255 $573 forward 7 unknown #
vertex $-1 $258 $574 #
ellipse-curve $-1 -73.994206343576877 -26.152896465175157 4.1322152739272839 -0.82903758062907751 0 0.55919289150049634 0.27959644575024817 0 0.41451879031453875 1 I I #
coedge $-1 $414 $414 $-1 $575 reversed $261 $-1 #
edge $-1 $576 0 $576 6.2831853071796004 $262 $577 forward 7 unknown #
vertex $-1 $265 $578 #
ellipse-curve $-1 -73.994206343576877 -23.012937152419539 4.1322152739272839 -0.82903758062907751 0 0.55919289150049634 0.27959644575024817 0 0.41451879031453875 1 I I #
coedge $-1 $418 $418 $-1 $579 reversed $268 $-1 #
edge $-1 $580 0 $580 6.2831853071796004 $269 $581 forward 7 unknown #
vertex $-1 $272 $582 #
ellipse-curve $-1 -73.994206343576877 -19.872977839663921 4.1322152739272839 -0.82903758062907751 0 0.55919289150049634 0.27959644575024817 0 0.41451879031453875 1 I I #
face $-1 $-1 $583 $60 $-1 $584 reversed single #
loop $-1 $-1 $279 $273 #
plane-surface $-1 0 0 7.5506000411942225 0 0 1 1 0 0 forward_v I I I I #
coedge $-1 $585 $586 $587 $588 reversed $274 $-1 #
coedge $-1 $589 $276 $278 $432 forward $172 $-1 #
coedge $-1 $276 $589 $585 $590 forward $172 $-1 #
coedge $-1 $587 $279 $276 $429 forward $423 $-1 #
edge $-1 $435 -8.7525891353555281 $591 1.7139419071631972 $428 $592 forward 7 unknown #
coedge $-1 $593 $594 $277 $431 forward $583 $-1 #
edge $-1 $595 -42.309466530117191 $434 -35.472696995583327 $430 $596 forward 7 unknown #
edge $-1 $435 -8.2466340420251338 $595 -5.0869049068944123e-014 $278 $597 forward 7 unknown #
coedge $-1 $279 $587 $593 $598 forward $423 $-1 #
vertex $-1 $280 $599 #
vertex $-1 $280 $600 #
straight-curve $-1 -101.40548222548202 -12.271912749451694 7.5506000411942225 1 0 0 I I #
coedge $-1 $437 $437 $-1 $601 reversed $283 $-1 #
edge $-1 $602 0 $602 6.2831853071796004 $284 $603 forward 7 unknown #
vertex $-1 $287 $604 #
ellipse-curve $-1 -73.994206343576877 -10.17860654094795 4.1322152739272839 -0.82903758062907751 0 0.55919289150049634 0.27959644575024817 0 0.41451879031453875 1 I I #
coedge $-1 $441 $441 $-1 $605 reversed $290 $-1 #
edge $-1 $606 0 $606 6.2831853071796004 $291 $607 forward 7 unknown #
vertex $-1 $294 $608 #
ellipse-curve $-1 -73.994206343576877 -7.0386472281923318 4.1322152739272839 -0.82903758062907751 0 0.55919289150049634 0.27959644575024817 0 0.41451879031453875 1 I I #
coedge $-1 $445 $445 $-1 $609 reversed $297 $-1 #
edge $-1 $610 0 $610 6.2831853071796004 $298 $611 forward 7 unknown #
vertex $-1 $301 $612 #
ellipse-curve $-1 -73.994206343576877 -3.8986879154367138 4.1322152739272839 -0.82903758062907751 0 0.55919289150049634 0.27959644575024817 0 0.41451879031453875 1 I I #
face $-1 $-1 $613 $64 $-1 $614 reversed single #
loop $-1 $-1 $308 $302 #
plane-surface $-1 0 0 7.5506000411942225 0 0 1 1 0 0 forward_v I I I I #
coedge $-1 $615 $616 $617 $618 reversed $303 $-1 #
coedge $-1 $619 $305 $307 $459 forward $191 $-1 #
coedge $-1 $305 $619 $615 $620 forward $191 $-1 #
coedge $-1 $617 $308 $305 $456 forward $450 $-1 #
edge $-1 $462 -0.76544417324192526 $621 9.7010868692768 $455 $622 forward 7 unknown #
coedge $-1 $623 $624 $306 $458 forward $613 $-1 #
edge $-1 $625 -42.309466530117191 $461 -35.472696995583327 $457 $626 forward 7 unknown #
edge $-1 $462 -8.2466340420251338 $625 -5.0869049068944123e-014 $307 $627 forward 7 unknown #
coedge $-1 $308 $617 $623 $628 forward $450 $-1 #
vertex $-1 $309 $629 #
vertex $-1 $309 $630 #
straight-curve $-1 -101.40548222548202 3.7023771747755125 7.5506000411942225 1 0 0 I I #
coedge $-1 $464 $464 $-1 $631 reversed $312 $-1 #
edge $-1 $632 0 $632 6.2831853071796004 $313 $633 forward 7 unknown #
vertex $-1 $316 $634 #
ellipse-curve $-1 -73.994206343576877 5.7956833832792611 4.1322152739272839 -0.82903758062907751 0 0.55919289150049634 0.27959644575024817 0 0.41451879031453875 1 I I #
coedge $-1 $468 $468 $-1 $635 reversed $319 $-1 #
edge $-1 $636 0 $636 6.2831853071796004 $320 $637 forward 7 unknown #
vertex $-1 $323 $638 #
ellipse-curve $-1 -73.994206343576877 8.9356426960348756 4.1322152739272839 -0.82903758062907751 0 0.55919289150049634 0.27959644575024817 0 0.41451879031453875 1 I I #
coedge $-1 $472 $472 $-1 $639 reversed $326 $-1 #
edge $-1 $640 0 $640 6.2831853071796004 $327 $641 forward 7 unknown #
vertex $-1 $330 $642 #
ellipse-curve $-1 -73.994206343576877 12.07560200879049 4.1322152739272839 -0.82903758062907751 0 0.55919289150049634 0.27959644575024817 0 0.41451879031453875 1 I I #
face $-1 $-1 $643 $68 $-1 $644 reversed single #
loop $-1 $-1 $337 $331 #
plane-surface $-1 0 0 7.5506000411942225 0 0 1 1 0 0 forward_v I I I I #
coedge $-1 $645 $646 $647 $648 reversed $332 $-1 #
coedge $-1 $649 $334 $336 $486 forward $210 $-1 #
coedge $-1 $334 $649 $645 $650 forward $210 $-1 #
coedge $-1 $647 $337 $334 $483 forward $477 $-1 #
edge $-1 $489 7.2217007888716793 $651 17.688231831390404 $482 $652 forward 7 unknown #
coedge $-1 $653 $654 $335 $485 forward $643 $-1 #
edge $-1 $655 -42.309466530117191 $488 -35.472696995583327 $484 $656 forward 7 unknown #
edge $-1 $489 -8.2466340420251338 $655 -5.0869049068944123e-014 $336 $657 forward 7 unknown #
coedge $-1 $337 $647 $653 $658 forward $477 $-1 #
vertex $-1 $338 $659 #
vertex $-1 $338 $660 #
straight-curve $-1 -101.40548222548202 19.676667099002721 7.5506000411942225 1 0 0 I I #
coedge $-1 $491 $491 $-1 $661 reversed $341 $-1 #
edge $-1 $662 0 $662 6.2831853071796004 $342 $663 forward 7 unknown #
vertex $-1 $345 $664 #
ellipse-curve $-1 -73.994206343576877 21.769973307506469 4.1322152739272839 -0.82903758062907751 0 0.55919289150049634 0.27959644575024817 0 0.41451879031453875 1 I I #
coedge $-1 $495 $495 $-1 $665 reversed $348 $-1 #
edge $-1 $666 0 $666 6.2831853071796004 $349 $667 forward 7 unknown #
vertex $-1 $352 $668 #
ellipse-curve $-1 -73.994206343576877 24.909932620262083 4.1322152739272839 -0.82903758062907751 0 0.55919289150049634 0.27959644575024817 0 0.41451879031453875 1 I I #
coedge $-1 $499 $499 $-1 $669 reversed $355 $-1 #
edge $-1 $670 0 $670 6.2831853071796004 $356 $671 forward 7 unknown #
vertex $-1 $359 $672 #
ellipse-curve $-1 -73.994206343576877 28.049891933017697 4.1322152739272839 -0.82903758062907751 0 0.55919289150049634 0.27959644575024817 0 0.41451879031453875 1 I I #
face $-1 $-1 $375 $54 $-1 $673 reversed single #
loop $-1 $-1 $519 $360 #
plane-surface $-1 0 35.650957023229928 0 0 -1 0 0 0 -1 forward_v I I I I #
coedge $-1 $674 $517 $520 $675 forward $361 $-1 #
coedge $-1 $523 $363 $364 $511 reversed $229 $-1 #
coedge $-1 $517 $674 $363 $509 reversed $361 $-1 #
edge $-1 $524 -7.5506000411942225 $676 7.5506000411942225 $508 $677 forward 7 unknown #
coedge $-1 $365 $364 $674 $678 forward $145 $-1 #
edge $-1 $515 -76.299935911130092 $676 76.299935911130092 $507 $679 forward 7 unknown #
coedge $-1 $520 $519 $365 $513 reversed $504 $-1 #
edge $-1 $680 -76.299935911130092 $514 76.299935911130092 $512 $681 forward 7 unknown #
vertex $-1 $367 $682 #
vertex $-1 $526 $683 #
straight-curve $-1 76.299935911130092 0 -7.5506000411942225 0 -1 0 I I #
coedge $-1 $506 $508 $368 $518 reversed $361 $-1 #
edge $-1 $521 -35.650957023229928 $524 35.650957023229928 $517 $684 forward 7 unknown #
coedge $-1 $512 $369 $374 $527 forward $504 $-1 #
coedge $-1 $369 $512 $506 $675 reversed $504 $-1 #
vertex $-1 $370 $685 #
straight-curve $-1 0 35.650957023229928 7.5506000411942225 -1 0 0 I I #
coedge $-1 $371 $507 $373 $526 reversed $229 $-1 #
vertex $-1 $518 $686 #
straight-curve $-1 0 -35.650957023229928 7.5506000411942225 1 0 0 I I #
edge $-1 $376 -7.5506000411942225 $515 7.5506000411942225 $373 $687 forward 7 unknown #
edge $-1 $377 -7.5506000411942225 $514 7.5506000411942225 $374 $688 forward 7 unknown #
point $-1 76.299935911130092 -35.650957023229928 7.5506000411942225 #
point $-1 76.299935911130092 35.650957023229928 7.5506000411942225 #
face $-1 $-1 $547 $55 $-1 $689 forward single #
loop $-1 $-1 $690 $379 #
plane-surface $-1 -68.687985270886344 -39.353334198005442 0 -1 0 0 0 0 1 forward_v I I I I #
coedge $-1 $691 $382 $537 $692 reversed $237 $-1 #
coedge $-1 $382 $691 $693 $694 reversed $237 $-1 #
coedge $-1 $390 $389 $382 $536 reversed $380 $-1 #
edge $-1 $695 -7.5506000411942225 $696 7.5506000411942225 $535 $697 forward 7 unknown #
coedge $-1 $384 $383 $533 $692 forward $149 $-1 #
coedge $-1 $543 $690 $383 $539 reversed $531 $-1 #
edge $-1 $541 -3.7023771747755134 $698 3.7023771747755134 $538 $699 forward 7 unknown #
edge $-1 $696 -3.7023771747755134 $391 3.7023771747755134 $389 $700 forward 7 unknown #
vertex $-1 $539 $701 #
straight-curve $-1 0 -35.650957023229928 -7.5506000411942225 1 0 0 I I #
coedge $-1 $702 $538 $386 $544 reversed $531 $-1 #
edge $-1 $548 -7.5506000411942225 $541 7.5506000411942225 $543 $703 forward 7 unknown #
coedge $-1 $693 $387 $390 $550 forward $547 $-1 #
coedge $-1 $387 $693 $702 $704 forward $547 $-1 #
loop $-1 $-1 $387 $530 #
vertex $-1 $388 $705 #
straight-curve $-1 0 -35.650957023229928 7.5506000411942225 -1 0 0 I I #
edge $-1 $392 -3.7023771747755134 $695 3.7023771747755134 $390 $706 forward 7 unknown #
point $-1 -71.687985270886344 -35.650957023229928 -7.5506000411942225 #
point $-1 -71.687985270886344 -35.650957023229928 7.5506000411942225 #
plane-surface $-1 0 0 7.5506000411942225 0 0 1 1 0 0 forward_v I I I I #
coedge $-1 $564 $563 $556 $707 forward $395 $-1 #
coedge $-1 $556 $397 $399 $560 reversed $245 $-1 #
coedge $-1 $397 $555 $554 $707 reversed $245 $-1 #
coedge $-1 $405 $400 $397 $558 forward $406 $-1 #
edge $-1 $561 -29.717005449458355 $708 -25.105546314351926 $557 $709 forward 7 unknown #
coedge $-1 $399 $398 $564 $710 reversed $153 $-1 #
edge $-1 $711 5.0869049068944123e-014 $561 8.2466340420251338 $555 $712 forward 7 unknown #
vertex $-1 $401 $713 #
straight-curve $-1 -71.688476776023663 -11.50646857620977 7.5506000411942225 0 1 0 I I #
coedge $-1 $554 $402 $405 $568 reversed $395 $-1 #
coedge $-1 $402 $554 $559 $710 forward $395 $-1 #
vertex $-1 $403 $714 #
straight-curve $-1 -76.299935911130092 -28.246202673678901 43.023297036777549 0 0 1 I I #
straight-curve $-1 -76.29993591113012 -28.246202673678901 0.71383050666031522 -0.55919289150049634 0 -0.82903758062907751 I I #
edge $-1 $708 17.779671631160177 $407 28.246202673678901 $563 $715 forward 7 unknown #
point $-1 -76.299935911130092 -28.246202673678901 7.5506000411942225 #
point $-1 -71.688476776023663 -28.246202673678901 7.5506000411942225 #
edge $-1 $716 1 $716 0 $410 $-1 forward 7 unknown #
vertex $-1 $411 $717 #
ellipse-curve $-1 -72.381103694284036 -26.152896465175157 3.0441638323259164 -0.82903758062907751 0 0.55919289150049634 0.27959644575024817 0 0.41451879031453875 1 I I #
point $-1 -73.714609897826605 -26.152896465175157 4.5467340642418037 #
edge $-1 $718 1 $718 0 $414 $-1 forward 7 unknown #
vertex $-1 $415 $719 #
ellipse-curve $-1 -72.381103694284036 -23.012937152419539 3.0441638323259164 -0.82903758062907751 0 0.55919289150049634 0.27959644575024817 0 0.41451879031453875 1 I I #
point $-1 -73.714609897826605 -23.012937152419539 4.5467340642418037 #
edge $-1 $720 1 $720 0 $418 $-1 forward 7 unknown #
vertex $-1 $419 $721 #
ellipse-curve $-1 -72.381103694284036 -19.872977839663921 3.0441638323259164 -0.82903758062907751 0 0.55919289150049634 0.27959644575024817 0 0.41451879031453875 1 I I #
point $-1 -73.714609897826605 -19.872977839663921 4.5467340642418037 #
loop $-1 $-1 $430 $422 #
plane-surface $-1 -76.299935911130092 0 0 1 0 0 0 0 -1 forward_v I I I I #
coedge $-1 $586 $425 $427 $590 reversed $274 $-1 #
coedge $-1 $425 $585 $722 $723 reversed $274 $-1 #
coedge $-1 $433 $428 $425 $588 forward $423 $-1 #
edge $-1 $591 -29.717005449458355 $724 -25.105546314351926 $587 $725 forward 7 unknown #
coedge $-1 $427 $426 $594 $726 reversed $172 $-1 #
edge $-1 $727 5.0869049068944123e-014 $591 8.2466340420251338 $585 $728 forward 7 unknown #
vertex $-1 $429 $729 #
straight-curve $-1 -71.688476776023663 -3.5193236140961659 7.5506000411942225 0 1 0 I I #
coedge $-1 $722 $430 $433 $598 reversed $583 $-1 #
coedge $-1 $430 $722 $589 $726 forward $583 $-1 #
vertex $-1 $431 $730 #
straight-curve $-1 -76.299935911130092 -12.271912749451694 43.023297036777549 0 0 1 I I #
straight-curve $-1 -76.29993591113012 -12.271912749451694 0.71383050666031522 -0.55919289150049634 0 -0.82903758062907751 I I #
edge $-1 $724 1.8053817069329687 $434 12.271912749451694 $593 $731 forward 7 unknown #
point $-1 -76.299935911130092 -12.271912749451694 7.5506000411942225 #
point $-1 -71.688476776023663 -12.271912749451694 7.5506000411942225 #
edge $-1 $732 1 $732 0 $437 $-1 forward 7 unknown #
vertex $-1 $438 $733 #
ellipse-curve $-1 -72.381103694284036 -10.17860654094795 3.0441638323259164 -0.82903758062907751 0 0.55919289150049634 0.27959644575024817 0 0.41451879031453875 1 I I #
point $-1 -73.714609897826605 -10.17860654094795 4.5467340642418037 #
edge $-1 $734 1 $734 0 $441 $-1 forward 7 unknown #
vertex $-1 $442 $735 #
ellipse-curve $-1 -72.381103694284036 -7.0386472281923318 3.0441638323259164 -0.82903758062907751 0 0.55919289150049634 0.27959644575024817 0 0.41451879031453875 1 I I #
point $-1 -73.714609897826605 -7.0386472281923318 4.5467340642418037 #
edge $-1 $736 1 $736 0 $445 $-1 forward 7 unknown #
vertex $-1 $446 $737 #
ellipse-curve $-1 -72.381103694284036 -3.8986879154367138 3.0441638323259164 -0.82903758062907751 0 0.55919289150049634 0.27959644575024817 0 0.41451879031453875 1 I I #
point $-1 -73.714609897826605 -3.8986879154367138 4.5467340642418037 #
loop $-1 $-1 $457 $449 #
plane-surface $-1 -76.299935911130092 0 0 1 0 0 0 0 -1 forward_v I I I I #
coedge $-1 $616 $452 $454 $620 reversed $303 $-1 #
coedge $-1 $452 $615 $738 $739 reversed $303 $-1 #
coedge $-1 $460 $455 $452 $618 forward $450 $-1 #
edge $-1 $621 -29.717005449458355 $740 -25.105546314351926 $617 $741 forward 7 unknown #
coedge $-1 $454 $453 $624 $742 reversed $191 $-1 #
edge $-1 $743 5.0869049068944123e-014 $621 8.2466340420251338 $615 $744 forward 7 unknown #
vertex $-1 $456 $745 #
straight-curve $-1 -71.688476776023663 4.4678213480174378 7.5506000411942225 0 1 0 I I #
coedge $-1 $738 $457 $460 $628 reversed $613 $-1 #
coedge $-1 $457 $738 $619 $742 forward $613 $-1 #
vertex $-1 $458 $746 #
straight-curve $-1 -76.299935911130092 3.7023771747755125 43.023297036777549 0 0 1 I I #
straight-curve $-1 -76.29993591113012 3.7023771747755125 0.71383050666031522 -0.55919289150049634 0 -0.82903758062907751 I I #
edge $-1 $740 -14.168908217294238 $461 -3.7023771747755125 $623 $747 forward 7 unknown #
point $-1 -76.299935911130092 3.7023771747755125 7.5506000411942225 #
point $-1 -71.688476776023663 3.7023771747755125 7.5506000411942225 #
edge $-1 $748 1 $748 0 $464 $-1 forward 7 unknown #
vertex $-1 $465 $749 #
ellipse-curve $-1 -72.381103694284036 5.7956833832792611 3.0441638323259164 -0.82903758062907751 0 0.55919289150049634 0.27959644575024817 0 0.41451879031453875 1 I I #
point $-1 -73.714609897826605 5.7956833832792611 4.5467340642418037 #
edge $-1 $750 1 $750 0 $468 $-1 forward 7 unknown #
vertex $-1 $469 $751 #
ellipse-curve $-1 -72.381103694284036 8.9356426960348756 3.0441638323259164 -0.82903758062907751 0 0.55919289150049634 0.27959644575024817 0 0.41451879031453875 1 I I #
point $-1 -73.714609897826605 8.9356426960348756 4.5467340642418037 #
edge $-1 $752 1 $752 0 $472 $-1 forward 7 unknown #
vertex $-1 $473 $753 #
ellipse-curve $-1 -72.381103694284036 12.07560200879049 3.0441638323259164 -0.82903758062907751 0 0.55919289150049634 0.27959644575024817 0 0.41451879031453875 1 I I #
point $-1 -73.714609897826605 12.07560200879049 4.5467340642418037 #
loop $-1 $-1 $484 $476 #
plane-surface $-1 -76.299935911130092 0 0 1 0 0 0 0 -1 forward_v I I I I #
coedge $-1 $646 $479 $481 $650 reversed $332 $-1 #
coedge $-1 $479 $645 $754 $755 reversed $332 $-1 #
coedge $-1 $487 $482 $479 $648 forward $477 $-1 #
edge $-1 $651 -29.717005449458355 $756 -25.105546314351926 $647 $757 forward 7 unknown #
coedge $-1 $481 $480 $654 $758 reversed $210 $-1 #
edge $-1 $759 5.0869049068944123e-014 $651 8.2466340420251338 $645 $760 forward 7 unknown #
vertex $-1 $483 $761 #
straight-curve $-1 -71.688476776023663 12.454966310131041 7.5506000411942225 0 1 0 I I #
coedge $-1 $754 $484 $487 $658 reversed $643 $-1 #
coedge $-1 $484 $754 $649 $758 forward $643 $-1 #
vertex $-1 $485 $762 #
straight-curve $-1 -76.299935911130092 19.676667099002721 43.023297036777549 0 0 1 I I #
straight-curve $-1 -76.29993591113012 19.676667099002721 0.71383050666031522 -0.55919289150049634 0 -0.82903758062907751 I I #
edge $-1 $756 -30.143198141521445 $488 -19.676667099002721 $653 $763 forward 7 unknown #
point $-1 -76.299935911130092 19.676667099002721 7.5506000411942225 #
point $-1 -71.688476776023663 19.676667099002721 7.5506000411942225 #
edge $-1 $764 1 $764 0 $491 $-1 forward 7 unknown #
vertex $-1 $492 $765 #
ellipse-curve $-1 -72.381103694284036 21.769973307506469 3.0441638323259164 -0.82903758062907751 0 0.55919289150049634 0.27959644575024817 0 0.41451879031453875 1 I I #
point $-1 -73.714609897826605 21.769973307506469 4.5467340642418037 #
edge $-1 $766 1 $766 0 $495 $-1 forward 7 unknown #
vertex $-1 $496 $767 #
ellipse-curve $-1 -72.381103694284036 24.909932620262083 3.0441638323259164 -0.82903758062907751 0 0.55919289150049634 0.27959644575024817 0 0.41451879031453875 1 I I #
point $-1 -73.714609897826605 24.909932620262083 4.5467340642418037 #
edge $-1 $768 1 $768 0 $499 $-1 forward 7 unknown #
vertex $-1 $500 $769 #
ellipse-curve $-1 -72.381103694284036 28.049891933017697 3.0441638323259164 -0.82903758062907751 0 0.55919289150049634 0.27959644575024817 0 0.41451879031453875 1 I I #
point $-1 -73.714609897826605 28.049891933017697 4.5467340642418037 #
plane-surface $-1 76.299935911130092 0 0 -1 0 0 0 0 1 forward_v I I I I #
coedge $-1 $508 $506 $510 $678 reversed $361 $-1 #
edge $-1 $521 -7.5506000411942225 $680 7.5506000411942225 $520 $770 forward 7 unknown #
vertex $-1 $678 $771 #
straight-curve $-1 -76.299935911130092 -35.650957023229928 0 0 0 -1 I I #
edge $-1 $676 -35.650957023229928 $680 35.650957023229928 $674 $772 forward 7 unknown #
straight-curve $-1 0 -35.650957023229928 -7.5506000411942225 -1 0 0 I I #
vertex $-1 $513 $773 #
straight-curve $-1 0 35.650957023229928 -7.5506000411942225 1 0 0 I I #
point $-1 76.299935911130092 35.650957023229928 -7.5506000411942225 #
point $-1 76.299935911130092 -35.650957023229928 -7.5506000411942225 #
straight-curve $-1 -76.299935911130092 0 7.5506000411942225 0 -1 0 I I #
point $-1 -76.299935911130092 35.650957023229928 7.5506000411942225 #
point $-1 -76.299935911130092 -35.650957023229928 7.5506000411942225 #
straight-curve $-1 76.299935911130092 -35.650957023229928 0 0 0 -1 I I #
straight-curve $-1 76.299935911130092 35.650957023229928 0 0 0 -1 I I #
plane-surface $-1 0 0 7.5506000411942225 0 0 1 1 0 0 forward_v I I I I #
coedge $-1 $538 $702 $691 $774 forward $531 $-1 #
coedge $-1 $534 $533 $690 $774 reversed $237 $-1 #
edge $-1 $698 -1.5 $696 1.5 $533 $775 forward 7 unknown #
coedge $-1 $546 $545 $534 $694 forward $547 $-1 #
edge $-1 $695 -1.5 $776 1.5 $534 $777 forward 7 unknown #
vertex $-1 $550 $778 #
vertex $-1 $540 $779 #
straight-curve $-1 -71.687985270886344 -43.055711372780955 0 0 0 -1 I I #
vertex $-1 $774 $780 #
straight-curve $-1 -68.687985270886344 -39.353334198005442 -7.5506000411942225 0 -1 0 I I #
straight-curve $-1 -71.687985270886344 -39.353334198005442 -7.5506000411942225 0 1 0 I I #
point $-1 -68.687985270886344 -35.650957023229928 -7.5506000411942225 #
coedge $-1 $690 $543 $546 $704 reversed $531 $-1 #
straight-curve $-1 -68.687985270886344 -35.650957023229928 0 0 0 -1 I I #
edge $-1 $776 -3.7023771747755134 $548 3.7023771747755134 $702 $781 forward 7 unknown #
point $-1 -68.687985270886344 -35.650957023229928 7.5506000411942225 #
straight-curve $-1 -71.687985270886344 -39.353334198005442 7.5506000411942225 0 -1 0 I I #
edge $-1 $708 35.472696995583327 $711 42.309466530117191 $554 $782 forward 7 unknown #
vertex $-1 $568 $783 #
straight-curve $-1 -101.40548222548202 -17.779671631160177 7.5506000411942225 -1 0 0 I I #
edge $-1 $711 6.2732030549504074 $565 16.739734097469132 $564 $784 forward 7 unknown #
vertex $-1 $710 $785 #
straight-curve $-1 -76.29993591113012 -17.779671631160177 0.71383050666031522 0.55919289150049634 0 0.82903758062907751 I I #
point $-1 -71.688476776023663 -17.779671631160177 7.5506000411942225 #
point $-1 -76.299935911130092 -28.246202673678901 0.71383050666035741 #
straight-curve $-1 -76.299935911130092 0 7.5506000411942225 0 -1 0 I I #
vertex $-1 $571 $786 #
point $-1 -72.101507248533792 -26.152896465175157 3.4586826226404552 #
vertex $-1 $575 $787 #
point $-1 -72.101507248533792 -23.012937152419539 3.4586826226404552 #
vertex $-1 $579 $788 #
point $-1 -72.101507248533792 -19.872977839663921 3.4586826226404552 #
coedge $-1 $594 $593 $586 $723 forward $583 $-1 #
edge $-1 $724 35.472696995583327 $727 42.309466530117191 $722 $789 forward 7 unknown #
vertex $-1 $598 $790 #
straight-curve $-1 -101.40548222548202 -1.8053817069329687 7.5506000411942225 -1 0 0 I I #
edge $-1 $727 -1.7139419071631972 $595 8.7525891353555281 $594 $791 forward 7 unknown #
vertex $-1 $726 $792 #
straight-curve $-1 -76.29993591113012 -1.8053817069329687 0.71383050666031522 0.55919289150049634 0 0.82903758062907751 I I #
point $-1 -71.688476776023663 -1.8053817069329687 7.5506000411942225 #
point $-1 -76.299935911130092 -12.271912749451694 0.71383050666035741 #
straight-curve $-1 -76.299935911130092 0 7.5506000411942225 0 -1 0 I I #
vertex $-1 $601 $793 #
point $-1 -72.101507248533792 -10.17860654094795 3.4586826226404552 #
vertex $-1 $605 $794 #
point $-1 -72.101507248533792 -7.0386472281923318 3.4586826226404552 #
vertex $-1 $609 $795 #
point $-1 -72.101507248533792 -3.8986879154367138 3.4586826226404552 #
coedge $-1 $624 $623 $616 $739 forward $613 $-1 #
edge $-1 $740 35.472696995583327 $743 42.309466530117191 $738 $796 forward 7 unknown #
vertex $-1 $628 $797 #
straight-curve $-1 -101.40548222548202 14.168908217294238 7.5506000411942225 -1 0 0 I I #
edge $-1 $743 -9.7010868692768 $625 0.76544417324192526 $624 $798 forward 7 unknown #
vertex $-1 $742 $799 #
straight-curve $-1 -76.29993591113012 14.168908217294238 0.71383050666031522 0.55919289150049634 0 0.82903758062907751 I I #
point $-1 -71.688476776023663 14.168908217294238 7.5506000411942225 #
point $-1 -76.299935911130092 3.7023771747755125 0.71383050666035741 #
straight-curve $-1 -76.299935911130092 0 7.5506000411942225 0 -1 0 I I #
vertex $-1 $631 $800 #
point $-1 -72.101507248533792 5.7956833832792611 3.4586826226404552 #
vertex $-1 $635 $801 #
point $-1 -72.101507248533792 8.9356426960348756 3.4586826226404552 #
vertex $-1 $639 $802 #
point $-1 -72.101507248533792 12.07560200879049 3.4586826226404552 #
coedge $-1 $654 $653 $646 $755 forward $643 $-1 #
edge $-1 $756 35.472696995583327 $759 42.309466530117191 $754 $803 forward 7 unknown #
vertex $-1 $658 $804 #
straight-curve $-1 -101.40548222548202 30.143198141521445 7.5506000411942225 -1 0 0 I I #
edge $-1 $759 -17.688231831390404 $655 -7.2217007888716793 $654 $805 forward 7 unknown #
vertex $-1 $758 $806 #
straight-curve $-1 -76.29993591113012 30.143198141521445 0.71383050666031522 0.55919289150049634 0 0.82903758062907751 I I #
point $-1 -71.688476776023663 30.143198141521445 7.5506000411942225 #
point $-1 -76.299935911130092 19.676667099002721 0.71383050666035741 #
straight-curve $-1 -76.299935911130092 0 7.5506000411942225 0 -1 0 I I #
vertex $-1 $661 $807 #
point $-1 -72.101507248533792 21.769973307506469 3.4586826226404552 #
vertex $-1 $665 $808 #
point $-1 -72.101507248533792 24.909932620262083 3.4586826226404552 #
vertex $-1 $669 $809 #
point $-1 -72.101507248533792 28.049891933017697 3.4586826226404552 #
straight-curve $-1 -76.299935911130092 35.650957023229928 0 0 0 -1 I I #
point $-1 -76.299935911130092 -35.650957023229928 -7.5506000411942225 #
straight-curve $-1 -76.299935911130092 0 -7.5506000411942225 0 1 0 I I #
point $-1 -76.299935911130092 35.650957023229928 -7.5506000411942225 #
edge $-1 $776 -7.5506000411942225 $698 7.5506000411942225 $690 $810 forward 7 unknown #
straight-curve $-1 -70.187985270886344 -43.055711372780955 -7.5506000411942225 -1 0 0 I I #
vertex $-1 $704 $811 #
straight-curve $-1 -70.187985270886344 -43.055711372780955 7.5506000411942225 1 0 0 I I #
point $-1 -71.687985270886344 -43.055711372780955 7.5506000411942225 #
point $-1 -71.687985270886344 -43.055711372780955 -7.5506000411942225 #
point $-1 -68.687985270886344 -43.055711372780955 -7.5506000411942225 #
straight-curve $-1 -68.687985270886344 -39.353334198005442 7.5506000411942225 0 1 0 I I #
straight-curve $-1 -76.299935911130092 -17.779671631160177 43.023297036777549 0 0 -1 I I #
point $-1 -76.299935911130092 -17.779671631160177 7.5506000411942225 #
straight-curve $-1 -76.299935911130092 -11.50646857620977 0.71383050666036052 0 -1 0 I I #
point $-1 -76.299935911130092 -17.779671631160177 0.71383050666035741 #
point $-1 -71.966584903969505 -26.152896465175157 2.7645673865756684 #
point $-1 -71.966584903969505 -23.012937152419539 2.7645673865756684 #
point $-1 -71.966584903969505 -19.872977839663921 2.7645673865756684 #
straight-curve $-1 -76.299935911130092 -1.8053817069329687 43.023297036777549 0 0 -1 I I #
point $-1 -76.299935911130092 -1.8053817069329687 7.5506000411942225 #
straight-curve $-1 -76.299935911130092 -3.5193236140961659 0.71383050666036052 0 -1 0 I I #
point $-1 -76.299935911130092 -1.8053817069329687 0.71383050666035741 #
point $-1 -71.966584903969505 -10.17860654094795 2.7645673865756684 #
point $-1 -71.966584903969505 -7.0386472281923318 2.7645673865756684 #
point $-1 -71.966584903969505 -3.8986879154367138 2.7645673865756684 #
straight-curve $-1 -76.299935911130092 14.168908217294238 43.023297036777549 0 0 -1 I I #
point $-1 -76.299935911130092 14.168908217294238 7.5506000411942225 #
straight-curve $-1 -76.299935911130092 4.4678213480174378 0.71383050666036052 0 -1 0 I I #
point $-1 -76.299935911130092 14.168908217294238 0.71383050666035741 #
point $-1 -71.966584903969505 5.7956833832792611 2.7645673865756684 #
point $-1 -71.966584903969505 8.9356426960348756 2.7645673865756684 #
point $-1 -71.966584903969505 12.07560200879049 2.7645673865756684 #
straight-curve $-1 -76.299935911130092 30.143198141521445 43.023297036777549 0 0 -1 I I #
point $-1 -76.299935911130092 30.143198141521445 7.5506000411942225 #
straight-curve $-1 -76.299935911130092 12.454966310131041 0.71383050666036052 0 -1 0 I I #
point $-1 -76.299935911130092 30.143198141521445 0.71383050666035741 #
point $-1 -71.966584903969505 21.769973307506469 2.7645673865756684 #
point $-1 -71.966584903969505 24.909932620262083 2.7645673865756684 #
point $-1 -71.966584903969505 28.049891933017697 2.7645673865756684 #
straight-curve $-1 -68.687985270886344 -43.055711372780955 0 0 0 -1 I I #
point $-1 -68.687985270886344 -43.055711372780955 7.5506000411942225 #
End-of-ACIS-data 