500 0 16 0           
7 Unknown 11 ACIS 5.0 NT 24 Thu Mar 25 16:35:11 1999 
-1 9.9999999999999995e-007 1e-010 
body $-1 $16 $-1 $17 #
body $-1 $18 $-1 $19 #
body $-1 $20 $-1 $21 #
body $-1 $22 $-1 $23 #
body $-1 $24 $-1 $25 #
body $-1 $26 $-1 $27 #
body $-1 $28 $-1 $29 #
body $-1 $30 $-1 $31 #
body $-1 $32 $-1 $33 #
body $-1 $34 $-1 $35 #
body $-1 $36 $-1 $37 #
body $-1 $38 $-1 $39 #
body $-1 $40 $-1 $41 #
body $-1 $42 $-1 $43 #
body $-1 $44 $-1 $45 #
body $-1 $46 $-1 $47 #
lump $-1 $-1 $48 $0 #
transform $-1 1 0 0 0 1 0 0 0 1 41.297647022919399 26.50702209928378 12.540740970852898 1 rotate no_reflect no_shear #
lump $-1 $-1 $49 $1 #
transform $-1 1 0 0 0 1 0 0 0 1 41.297647022919399 26.50702209928378 12.540740970852898 1 rotate no_reflect no_shear #
lump $-1 $-1 $50 $2 #
transform $-1 1 0 0 0 1 0 0 0 1 41.297647022919399 26.50702209928378 12.540740970852898 1 rotate no_reflect no_shear #
lump $-1 $-1 $51 $3 #
transform $-1 1 0 0 0 1 0 0 0 1 41.297647022919399 26.50702209928378 12.540740970852898 1 rotate no_reflect no_shear #
lump $-1 $-1 $52 $4 #
transform $-1 1 0 0 0 1 0 0 0 1 41.297647022919399 26.50702209928378 12.540740970852898 1 rotate no_reflect no_shear #
lump $-1 $-1 $53 $5 #
transform $-1 1 0 0 0 1 0 0 0 1 41.297647022919399 26.50702209928378 12.540740970852898 1 rotate no_reflect no_shear #
lump $-1 $-1 $54 $6 #
transform $-1 1 0 0 0 1 0 0 0 1 41.297647022919399 26.50702209928378 12.540740970852898 1 rotate no_reflect no_shear #
lump $-1 $-1 $55 $7 #
transform $-1 1 0 0 0 1 0 0 0 1 41.297647022919399 26.50702209928378 12.540740970852898 1 rotate no_reflect no_shear #
lump $-1 $-1 $56 $8 #
transform $-1 1 0 0 0 1 0 0 0 1 41.297647022919399 26.50702209928378 12.540740970852898 1 rotate no_reflect no_shear #
lump $-1 $-1 $57 $9 #
transform $-1 1 0 0 0 1 0 0 0 1 41.297647022919399 26.50702209928378 12.540740970852898 1 rotate no_reflect no_shear #
lump $-1 $-1 $58 $10 #
transform $-1 1 0 0 0 1 0 0 0 1 41.297647022919399 26.50702209928378 12.540740970852898 1 rotate no_reflect no_shear #
lump $-1 $-1 $59 $11 #
transform $-1 1 0 0 0 1 0 0 0 1 41.297647022919399 26.50702209928378 12.540740970852898 1 rotate no_reflect no_shear #
lump $-1 $-1 $60 $12 #
transform $-1 1 0 0 0 1 0 0 0 1 41.297647022919399 26.50702209928378 12.540740970852898 1 rotate no_reflect no_shear #
lump $-1 $-1 $61 $13 #
transform $-1 1 0 0 0 1 0 0 0 1 41.297647022919399 26.50702209928378 12.540740970852898 1 rotate no_reflect no_shear #
lump $-1 $-1 $62 $14 #
transform $-1 1 0 0 0 1 0 0 0 1 41.297647022919399 26.50702209928378 12.540740970852898 1 rotate no_reflect no_shear #
lump $-1 $-1 $63 $15 #
transform $-1 1 0 0 0 1 0 0 0 1 41.297647022919399 26.50702209928378 12.540740970852898 1 rotate no_reflect no_shear #
shell $-1 $-1 $-1 $64 $-1 $16 #
shell $-1 $-1 $-1 $65 $-1 $18 #
shell $-1 $-1 $-1 $66 $-1 $20 #
shell $-1 $-1 $-1 $67 $-1 $22 #
shell $-1 $-1 $-1 $68 $-1 $24 #
shell $-1 $-1 $-1 $69 $-1 $26 #
shell $-1 $-1 $-1 $70 $-1 $28 #
shell $-1 $-1 $-1 $71 $-1 $30 #
shell $-1 $-1 $-1 $72 $-1 $32 #
shell $-1 $-1 $-1 $73 $-1 $34 #
shell $-1 $-1 $-1 $74 $-1 $36 #
shell $-1 $-1 $-1 $75 $-1 $38 #
shell $-1 $-1 $-1 $76 $-1 $40 #
shell $-1 $-1 $-1 $77 $-1 $42 #
shell $-1 $-1 $-1 $78 $-1 $44 #
shell $-1 $-1 $-1 $79 $-1 $46 #
face $-1 $80 $81 $48 $-1 $82 forward single #
face $-1 $83 $84 $49 $-1 $85 reversed single #
face $-1 $86 $87 $50 $-1 $88 forward single #
face $-1 $89 $90 $51 $-1 $91 forward single #
face $-1 $92 $93 $52 $-1 $94 reversed single #
face $-1 $95 $96 $53 $-1 $97 forward single #
face $-1 $98 $99 $54 $-1 $100 forward single #
face $-1 $101 $102 $55 $-1 $103 reversed single #
face $-1 $104 $105 $56 $-1 $106 forward single #
face $-1 $107 $108 $57 $-1 $109 forward single #
face $-1 $110 $111 $58 $-1 $112 reversed single #
face $-1 $113 $114 $59 $-1 $115 forward single #
face $-1 $116 $117 $60 $-1 $118 forward single #
face $-1 $119 $120 $61 $-1 $121 reversed single #
face $-1 $122 $123 $62 $-1 $124 forward single #
face $-1 $125 $126 $63 $-1 $127 forward single #
face $-1 $128 $129 $48 $-1 $130 reversed single #
loop $-1 $-1 $131 $64 #
plane-surface $-1 0 0 12.540740970852898 0 0 1 1 0 0 forward_v I I I I #
face $-1 $132 $133 $49 $-1 $134 reversed single #
loop $-1 $-1 $135 $65 #
plane-surface $-1 53.50734500574179 7.5971453287405879 119.79052006787124 0 -1 0 -0.77714596973225614 0 -0.62932038083071107 forward_v I I I I #
face $-1 $136 $137 $50 $-1 $138 forward single #
loop $-1 $139 $140 $66 #
cone-surface $-1 36.603346577439908 1.6861260232100861 7.2044091539331268 -0.77714596973225614 0 -0.62932038083071107 0.62932038083071107 0 -0.77714596973225614 1 I I 0 1 1 forward I I I I #
face $-1 $141 $142 $51 $-1 $143 forward single #
loop $-1 $144 $145 $67 #
cone-surface $-1 36.603346577439908 5.232737606528385 7.2044091539331268 -0.77714596973225614 0 -0.62932038083071107 0.62932038083071107 0 -0.77714596973225614 1 I I 0 1 1 forward I I I I #
face $-1 $146 $147 $52 $-1 $148 reversed single #
loop $-1 $-1 $149 $68 #
plane-surface $-1 -100.711730031261 -22.151112412160735 63.807147985026049 0 1 0 -0.71933980857756763 0 0.69465836192734942 forward_v I I I I #
face $-1 $150 $151 $53 $-1 $152 forward single #
loop $-1 $153 $154 $69 #
cone-surface $-1 -37.851066835111453 -20.23452571304275 9.0064022531996937 0.71933980857756763 0 -0.69465836192734942 0.34732918096367471 0 0.35966990428878381 1 I I 0 1 0.5 forward I I I I #
face $-1 $155 $156 $54 $-1 $157 forward single #
loop $-1 $158 $159 $70 #
cone-surface $-1 -37.851066835111453 -17.359645664365775 9.0064022531996937 0.71933980857756763 0 -0.69465836192734942 0.34732918096367471 0 0.35966990428878381 1 I I 0 1 0.5 forward I I I I #
face $-1 $160 $161 $55 $-1 $162 reversed single #
loop $-1 $-1 $163 $71 #
plane-surface $-1 -100.711730031261 -8.897601362518845 63.807147985026049 0 1 0 -0.71933980857756763 0 0.69465836192734942 forward_v I I I I #
face $-1 $164 $165 $56 $-1 $166 forward single #
loop $-1 $167 $168 $72 #
cone-surface $-1 -37.851066835111453 -6.9810146634008596 9.0064022531996937 0.71933980857756763 0 -0.69465836192734942 0.34732918096367471 0 0.35966990428878381 1 I I 0 1 0.5 forward I I I I #
face $-1 $169 $170 $57 $-1 $171 forward single #
loop $-1 $172 $173 $73 #
cone-surface $-1 -37.851066835111453 -4.1061346147238851 9.0064022531996937 0.71933980857756763 0 -0.69465836192734942 0.34732918096367471 0 0.35966990428878381 1 I I 0 1 0.5 forward I I I I #
face $-1 $174 $175 $58 $-1 $176 reversed single #
loop $-1 $-1 $177 $74 #
plane-surface $-1 -100.711730031261 4.355909687123046 63.807147985026049 0 1 0 -0.71933980857756763 0 0.69465836192734942 forward_v I I I I #
face $-1 $178 $179 $59 $-1 $180 forward single #
loop $-1 $181 $182 $75 #
cone-surface $-1 -37.851066835111453 6.2724963862410306 9.0064022531996937 0.71933980857756763 0 -0.69465836192734942 0.34732918096367471 0 0.35966990428878381 1 I I 0 1 0.5 forward I I I I #
face $-1 $183 $184 $60 $-1 $185 forward single #
loop $-1 $186 $187 $76 #
cone-surface $-1 -37.851066835111453 9.1473764349180087 9.0064022531996937 0.71933980857756763 0 -0.69465836192734942 0.34732918096367471 0 0.35966990428878381 1 I I 0 1 0.5 forward I I I I #
face $-1 $188 $189 $61 $-1 $190 reversed single #
loop $-1 $-1 $191 $77 #
plane-surface $-1 -100.711730031261 17.609420736764939 63.807147985026049 0 1 0 -0.71933980857756763 0 0.69465836192734942 forward_v I I I I #
face $-1 $192 $193 $62 $-1 $194 forward single #
loop $-1 $195 $196 $78 #
cone-surface $-1 -37.851066835111453 19.526007435882924 9.0064022531996937 0.71933980857756763 0 -0.69465836192734942 0.34732918096367471 0 0.35966990428878381 1 I I 0 1 0.5 forward I I I I #
face $-1 $197 $198 $63 $-1 $199 forward single #
loop $-1 $200 $201 $79 #
cone-surface $-1 -37.851066835111453 22.400887484559895 9.0064022531996937 0.71933980857756763 0 -0.69465836192734942 0.34732918096367471 0 0.35966990428878381 1 I I 0 1 0.5 forward I I I I #
face $-1 $202 $203 $48 $-1 $204 reversed single #
loop $-1 $-1 $205 $80 #
plane-surface $-1 0 0 -12.540740970852898 0 0 1 1 0 0 forward_v I I I I #
coedge $-1 $206 $207 $208 $209 forward $81 $-1 #
face $-1 $210 $211 $49 $-1 $212 reversed single #
loop $-1 $-1 $213 $83 #
plane-surface $-1 -10.681254880832448 3.4594318148692373 67.811618164119409 0.77714596973225614 0 0.62932038083071107 0.62932038083071107 0 -0.77714596973225614 forward_v I I I I #
coedge $-1 $214 $215 $216 $217 reversed $84 $-1 #
face $-1 $-1 $218 $50 $-1 $219 forward single #
loop $-1 $220 $221 $86 #
cone-surface $-1 35.131187774764932 1.6861260232100861 6.0122784932518591 -0.77714596973225614 0 -0.62932038083071107 0.31466019041535553 0 -0.38857298486612807 1 I I -0.70710678118654746 0.70710678118654746 0.5 forward I I I I #
loop $-1 $-1 $222 $66 #
coedge $-1 $140 $140 $223 $224 reversed $87 $-1 #
face $-1 $-1 $225 $51 $-1 $226 forward single #
loop $-1 $227 $228 $89 #
cone-surface $-1 35.131187774764932 5.232737606528385 6.0122784932518591 -0.77714596973225614 0 -0.62932038083071107 0.31466019041535553 0 -0.38857298486612807 1 I I -0.70710678118654746 0.70710678118654746 0.5 forward I I I I #
loop $-1 $-1 $229 $67 #
coedge $-1 $145 $145 $230 $231 reversed $90 $-1 #
face $-1 $232 $233 $52 $-1 $234 reversed single #
loop $-1 $-1 $235 $92 #
plane-surface $-1 -41.297647022919406 -18.797085688704264 6.4316363202359099 -0.71933980857756763 0 0.69465836192734942 0.69465836192734942 0 0.71933980857756763 forward_v I I I I #
coedge $-1 $236 $237 $238 $239 reversed $93 $-1 #
face $-1 $-1 $240 $53 $-1 $241 forward single #
loop $-1 $242 $243 $95 #
cone-surface $-1 -37.174398517757453 -20.23452571304275 8.3529512703731577 0.71933980857756763 0 -0.69465836192734942 0.17366459048183736 0 0.17983495214439191 1 I I -0.70710678118654746 0.70710678118654746 0.25 forward I I I I #
loop $-1 $-1 $244 $69 #
coedge $-1 $154 $154 $245 $246 reversed $96 $-1 #
face $-1 $-1 $247 $54 $-1 $248 forward single #
loop $-1 $249 $250 $98 #
cone-surface $-1 -37.174398517757453 -17.359645664365775 8.3529512703731577 0.71933980857756763 0 -0.69465836192734942 0.17366459048183736 0 0.17983495214439191 1 I I -0.70710678118654746 0.70710678118654746 0.25 forward I I I I #
loop $-1 $-1 $251 $70 #
coedge $-1 $159 $159 $252 $253 reversed $99 $-1 #
face $-1 $254 $255 $55 $-1 $256 reversed single #
loop $-1 $-1 $257 $101 #
plane-surface $-1 -41.297647022919406 -5.5435746390623741 6.4316363202359099 -0.71933980857756763 0 0.69465836192734942 0.69465836192734942 0 0.71933980857756763 forward_v I I I I #
coedge $-1 $258 $259 $260 $261 reversed $102 $-1 #
face $-1 $-1 $262 $56 $-1 $263 forward single #
loop $-1 $264 $265 $104 #
cone-surface $-1 -37.174398517757453 -6.9810146634008596 8.3529512703731577 0.71933980857756763 0 -0.69465836192734942 0.17366459048183736 0 0.17983495214439191 1 I I -0.70710678118654746 0.70710678118654746 0.25 forward I I I I #
loop $-1 $-1 $266 $72 #
coedge $-1 $168 $168 $267 $268 reversed $105 $-1 #
face $-1 $-1 $269 $57 $-1 $270 forward single #
loop $-1 $271 $272 $107 #
cone-surface $-1 -37.174398517757453 -4.1061346147238851 8.3529512703731577 0.71933980857756763 0 -0.69465836192734942 0.17366459048183736 0 0.17983495214439191 1 I I -0.70710678118654746 0.70710678118654746 0.25 forward I I I I #
loop $-1 $-1 $273 $73 #
coedge $-1 $173 $173 $274 $275 reversed $108 $-1 #
face $-1 $276 $277 $58 $-1 $278 reversed single #
loop $-1 $-1 $279 $110 #
plane-surface $-1 -41.297647022919406 7.7099364105795161 6.4316363202359099 -0.71933980857756763 0 0.69465836192734942 0.69465836192734942 0 0.71933980857756763 forward_v I I I I #
coedge $-1 $280 $281 $282 $283 reversed $111 $-1 #
face $-1 $-1 $284 $59 $-1 $285 forward single #
loop $-1 $286 $287 $113 #
cone-surface $-1 -37.174398517757453 6.2724963862410306 8.3529512703731577 0.71933980857756763 0 -0.69465836192734942 0.17366459048183736 0 0.17983495214439191 1 I I -0.70710678118654746 0.70710678118654746 0.25 forward I I I I #
loop $-1 $-1 $288 $75 #
coedge $-1 $182 $182 $289 $290 reversed $114 $-1 #
face $-1 $-1 $291 $60 $-1 $292 forward single #
loop $-1 $293 $294 $116 #
cone-surface $-1 -37.174398517757453 9.1473764349180087 8.3529512703731577 0.71933980857756763 0 -0.69465836192734942 0.17366459048183736 0 0.17983495214439191 1 I I -0.70710678118654746 0.70710678118654746 0.25 forward I I I I #
loop $-1 $-1 $295 $76 #
coedge $-1 $187 $187 $296 $297 reversed $117 $-1 #
face $-1 $298 $299 $61 $-1 $300 reversed single #
loop $-1 $-1 $301 $119 #
plane-surface $-1 -41.297647022919406 20.96344746022141 6.4316363202359099 -0.71933980857756763 0 0.69465836192734942 0.69465836192734942 0 0.71933980857756763 forward_v I I I I #
coedge $-1 $302 $303 $304 $305 reversed $120 $-1 #
face $-1 $-1 $306 $62 $-1 $307 forward single #
loop $-1 $308 $309 $122 #
cone-surface $-1 -37.174398517757453 19.526007435882924 8.3529512703731577 0.71933980857756763 0 -0.69465836192734942 0.17366459048183736 0 0.17983495214439191 1 I I -0.70710678118654746 0.70710678118654746 0.25 forward I I I I #
loop $-1 $-1 $310 $78 #
coedge $-1 $196 $196 $311 $312 reversed $123 $-1 #
face $-1 $-1 $313 $63 $-1 $314 forward single #
loop $-1 $315 $316 $125 #
cone-surface $-1 -37.174398517757453 22.400887484559895 8.3529512703731577 0.71933980857756763 0 -0.69465836192734942 0.17366459048183736 0 0.17983495214439191 1 I I -0.70710678118654746 0.70710678118654746 0.25 forward I I I I #
loop $-1 $-1 $317 $79 #
coedge $-1 $201 $201 $318 $319 reversed $126 $-1 #
face $-1 $320 $321 $48 $-1 $322 reversed single #
loop $-1 $-1 $323 $128 #
plane-surface $-1 0 -26.50702209928378 0 0 1 0 0 0 1 forward_v I I I I #
coedge $-1 $324 $325 $326 $327 forward $129 $-1 #
coedge $-1 $328 $131 $329 $330 forward $81 $-1 #
coedge $-1 $131 $328 $331 $332 forward $81 $-1 #
coedge $-1 $333 $334 $131 $209 reversed $335 $-1 #
edge $-1 $336 -26.50702209928378 $337 26.50702209928378 $208 $338 forward 7 unknown #
face $-1 $339 $340 $49 $-1 $341 forward single #
loop $-1 $-1 $342 $132 #
plane-surface $-1 53.50734500574179 -0.67828169900211321 119.79052006787124 0 1 0 0.77714596973225614 0 0.62932038083071107 forward_v I I I I #
coedge $-1 $343 $344 $345 $346 reversed $133 $-1 #
coedge $-1 $215 $135 $347 $348 reversed $84 $-1 #
coedge $-1 $135 $214 $343 $349 reversed $84 $-1 #
coedge $-1 $345 $350 $135 $217 forward $340 $-1 #
edge $-1 $351 -14.543974520048504 $352 -7.3225452647072053 $216 $353 forward 7 unknown #
loop $-1 $-1 $223 $136 #
plane-surface $-1 -10.681254880832448 3.4594318148692373 67.811618164119409 0.77714596973225614 0 0.62932038083071107 0.62932038083071107 0 -0.77714596973225614 forward_v I I I I #
loop $-1 $-1 $354 $86 #
coedge $-1 $221 $221 $222 $355 reversed $137 $-1 #
coedge $-1 $222 $222 $221 $355 forward $139 $-1 #
coedge $-1 $223 $223 $140 $224 forward $218 $-1 #
edge $-1 $356 0 $356 6.2831853071796004 $223 $357 forward 7 unknown #
loop $-1 $-1 $230 $141 #
plane-surface $-1 -10.681254880832448 3.4594318148692373 67.811618164119409 0.77714596973225614 0 0.62932038083071107 0.62932038083071107 0 -0.77714596973225614 forward_v I I I I #
loop $-1 $-1 $358 $89 #
coedge $-1 $228 $228 $229 $359 reversed $142 $-1 #
coedge $-1 $229 $229 $228 $359 forward $144 $-1 #
coedge $-1 $230 $230 $145 $231 forward $225 $-1 #
edge $-1 $360 0 $360 6.2831853071796004 $230 $361 forward 7 unknown #
face $-1 $362 $363 $52 $-1 $364 reversed single #
loop $-1 $-1 $365 $146 #
plane-surface $-1 -100.711730031261 -15.443058965247793 63.807147985026049 0 -1 0 0.71933980857756763 0 -0.69465836192734942 forward_v I I I I #
coedge $-1 $366 $367 $368 $369 reversed $147 $-1 #
coedge $-1 $237 $149 $370 $371 reversed $93 $-1 #
coedge $-1 $149 $236 $366 $372 reversed $93 $-1 #
coedge $-1 $368 $373 $149 $239 forward $374 $-1 #
edge $-1 $375 9.0582179927111 $376 14.957711637907764 $238 $377 forward 7 unknown #
loop $-1 $-1 $245 $150 #
plane-surface $-1 -41.297647022919406 -18.797085688704264 6.4316363202359099 -0.71933980857756763 0 0.69465836192734942 0.69465836192734942 0 0.71933980857756763 forward_v I I I I #
loop $-1 $-1 $378 $95 #
coedge $-1 $243 $243 $244 $379 reversed $151 $-1 #
coedge $-1 $244 $244 $243 $379 forward $153 $-1 #
coedge $-1 $245 $245 $154 $246 forward $240 $-1 #
edge $-1 $380 0 $380 6.2831853071796004 $245 $381 forward 7 unknown #
loop $-1 $-1 $252 $155 #
plane-surface $-1 -41.297647022919406 -18.797085688704264 6.4316363202359099 -0.71933980857756763 0 0.69465836192734942 0.69465836192734942 0 0.71933980857756763 forward_v I I I I #
loop $-1 $-1 $382 $98 #
coedge $-1 $250 $250 $251 $383 reversed $156 $-1 #
coedge $-1 $251 $251 $250 $383 forward $158 $-1 #
coedge $-1 $252 $252 $159 $253 forward $247 $-1 #
edge $-1 $384 0 $384 6.2831853071796004 $252 $385 forward 7 unknown #
face $-1 $386 $387 $55 $-1 $388 forward single #
loop $-1 $-1 $389 $160 #
plane-surface $-1 -100.711730031261 -2.1895479156059041 63.807147985026049 0 -1 0 0.71933980857756763 0 -0.69465836192734942 forward_v I I I I #
coedge $-1 $390 $391 $392 $393 reversed $161 $-1 #
coedge $-1 $259 $163 $394 $395 reversed $102 $-1 #
coedge $-1 $163 $258 $390 $396 reversed $102 $-1 #
coedge $-1 $392 $397 $163 $261 forward $387 $-1 #
edge $-1 $398 9.0582179927111 $399 14.957711637907764 $260 $400 forward 7 unknown #
loop $-1 $-1 $267 $164 #
plane-surface $-1 -41.297647022919406 -5.5435746390623741 6.4316363202359099 -0.71933980857756763 0 0.69465836192734942 0.69465836192734942 0 0.71933980857756763 forward_v I I I I #
loop $-1 $-1 $401 $104 #
coedge $-1 $265 $265 $266 $402 reversed $165 $-1 #
coedge $-1 $266 $266 $265 $402 forward $167 $-1 #
coedge $-1 $267 $267 $168 $268 forward $262 $-1 #
edge $-1 $403 0 $403 6.2831853071796004 $267 $404 forward 7 unknown #
loop $-1 $-1 $274 $169 #
plane-surface $-1 -41.297647022919406 -5.5435746390623741 6.4316363202359099 -0.71933980857756763 0 0.69465836192734942 0.69465836192734942 0 0.71933980857756763 forward_v I I I I #
loop $-1 $-1 $405 $107 #
coedge $-1 $272 $272 $273 $406 reversed $170 $-1 #
coedge $-1 $273 $273 $272 $406 forward $172 $-1 #
coedge $-1 $274 $274 $173 $275 forward $269 $-1 #
edge $-1 $407 0 $407 6.2831853071796004 $274 $408 forward 7 unknown #
face $-1 $409 $410 $58 $-1 $411 forward single #
loop $-1 $-1 $412 $174 #
plane-surface $-1 -100.711730031261 11.063963134035987 63.807147985026049 0 -1 0 0.71933980857756763 0 -0.69465836192734942 forward_v I I I I #
coedge $-1 $413 $414 $415 $416 reversed $175 $-1 #
coedge $-1 $281 $177 $417 $418 reversed $111 $-1 #
coedge $-1 $177 $280 $413 $419 reversed $111 $-1 #
coedge $-1 $415 $420 $177 $283 forward $410 $-1 #
edge $-1 $421 9.0582179927111 $422 14.957711637907764 $282 $423 forward 7 unknown #
loop $-1 $-1 $289 $178 #
plane-surface $-1 -41.297647022919406 7.7099364105795161 6.4316363202359099 -0.71933980857756763 0 0.69465836192734942 0.69465836192734942 0 0.71933980857756763 forward_v I I I I #
loop $-1 $-1 $424 $113 #
coedge $-1 $287 $287 $288 $425 reversed $179 $-1 #
coedge $-1 $288 $288 $287 $425 forward $181 $-1 #
coedge $-1 $289 $289 $182 $290 forward $284 $-1 #
edge $-1 $426 0 $426 6.2831853071796004 $289 $427 forward 7 unknown #
loop $-1 $-1 $296 $183 #
plane-surface $-1 -41.297647022919406 7.7099364105795161 6.4316363202359099 -0.71933980857756763 0 0.69465836192734942 0.69465836192734942 0 0.71933980857756763 forward_v I I I I #
loop $-1 $-1 $428 $116 #
coedge $-1 $294 $294 $295 $429 reversed $184 $-1 #
coedge $-1 $295 $295 $294 $429 forward $186 $-1 #
coedge $-1 $296 $296 $187 $297 forward $291 $-1 #
edge $-1 $430 0 $430 6.2831853071796004 $296 $431 forward 7 unknown #
face $-1 $432 $433 $61 $-1 $434 forward single #
loop $-1 $-1 $435 $188 #
plane-surface $-1 -100.711730031261 24.317474183677881 63.807147985026049 0 -1 0 0.71933980857756763 0 -0.69465836192734942 forward_v I I I I #
coedge $-1 $436 $437 $438 $439 reversed $189 $-1 #
coedge $-1 $303 $191 $440 $441 reversed $120 $-1 #
coedge $-1 $191 $302 $436 $442 reversed $120 $-1 #
coedge $-1 $438 $443 $191 $305 forward $433 $-1 #
edge $-1 $444 9.0582179927111 $445 14.957711637907764 $304 $446 forward 7 unknown #
loop $-1 $-1 $311 $192 #
plane-surface $-1 -41.297647022919406 20.96344746022141 6.4316363202359099 -0.71933980857756763 0 0.69465836192734942 0.69465836192734942 0 0.71933980857756763 forward_v I I I I #
loop $-1 $-1 $447 $122 #
coedge $-1 $309 $309 $310 $448 reversed $193 $-1 #
coedge $-1 $310 $310 $309 $448 forward $195 $-1 #
coedge $-1 $311 $311 $196 $312 forward $306 $-1 #
edge $-1 $449 0 $449 6.2831853071796004 $311 $450 forward 7 unknown #
loop $-1 $-1 $318 $197 #
plane-surface $-1 -41.297647022919406 20.96344746022141 6.4316363202359099 -0.71933980857756763 0 0.69465836192734942 0.69465836192734942 0 0.71933980857756763 forward_v I I I I #
loop $-1 $-1 $451 $125 #
coedge $-1 $316 $316 $317 $452 reversed $198 $-1 #
coedge $-1 $317 $317 $316 $452 forward $200 $-1 #
coedge $-1 $318 $318 $201 $319 forward $313 $-1 #
edge $-1 $453 0 $453 6.2831853071796004 $318 $454 forward 7 unknown #
face $-1 $455 $456 $48 $-1 $457 reversed single #
loop $-1 $-1 $458 $202 #
plane-surface $-1 -41.297647022919399 0 0 1 0 0 0 0 -1 forward_v I I I I #
coedge $-1 $459 $331 $460 $461 forward $203 $-1 #
coedge $-1 $462 $205 $459 $463 forward $129 $-1 #
coedge $-1 $205 $462 $464 $465 forward $129 $-1 #
coedge $-1 $334 $333 $205 $327 reversed $335 $-1 #
edge $-1 $466 -26.50702209928378 $467 26.50702209928378 $326 $468 forward 7 unknown #
coedge $-1 $207 $206 $469 $470 forward $81 $-1 #
coedge $-1 $471 $472 $206 $330 reversed $456 $-1 #
edge $-1 $337 -41.297647022919399 $473 41.297647022919399 $329 $474 forward 7 unknown #
coedge $-1 $323 $475 $207 $332 reversed $203 $-1 #
edge $-1 $476 -41.297647022919399 $336 41.297647022919399 $331 $477 forward 7 unknown #
coedge $-1 $326 $208 $475 $478 forward $335 $-1 #
coedge $-1 $208 $326 $471 $479 reversed $335 $-1 #
loop $-1 $-1 $333 $455 #
vertex $-1 $209 $480 #
vertex $-1 $209 $481 #
straight-curve $-1 41.297647022919399 0 12.540740970852898 0 1 0 I I #
face $-1 $-1 $482 $49 $-1 $483 reversed single #
loop $-1 $-1 $216 $210 #
plane-surface $-1 0 0 12.540740970852898 0 0 1 1 0 0 forward_v I I I I #
coedge $-1 $484 $485 $486 $487 reversed $211 $-1 #
coedge $-1 $488 $213 $215 $349 forward $133 $-1 #
coedge $-1 $213 $488 $484 $489 forward $133 $-1 #
coedge $-1 $486 $216 $213 $346 forward $340 $-1 #
edge $-1 $352 -5.8674294213059692 $490 2.4079976064367319 $345 $491 forward 7 unknown #
coedge $-1 $492 $493 $214 $348 forward $482 $-1 #
edge $-1 $494 -56.272241756390464 $351 -47.354519063082719 $347 $495 forward 7 unknown #
edge $-1 $352 71.120329186431405 $494 82.595294045838813 $215 $496 forward 7 unknown #
coedge $-1 $216 $486 $492 $497 forward $340 $-1 #
vertex $-1 $348 $498 #
vertex $-1 $217 $499 #
straight-curve $-1 26.753672502870895 7.5971453287405879 12.540740970852895 -1 0 0 I I #
coedge $-1 $354 $354 $-1 $500 reversed $220 $-1 #
edge $-1 $501 0 $501 6.2831853071796004 $221 $502 forward 7 unknown #
vertex $-1 $224 $503 #
ellipse-curve $-1 37.686932395248746 1.6861260232100861 8.0818796241990309 0.77714596973225614 0 0.62932038083071107 0.62932038083071107 0 -0.77714596973225614 1 I I #
coedge $-1 $358 $358 $-1 $504 reversed $227 $-1 #
edge $-1 $505 0 $505 6.2831853071796004 $228 $506 forward 7 unknown #
vertex $-1 $231 $507 #
ellipse-curve $-1 37.686932395248746 5.232737606528385 8.0818796241990309 0.77714596973225614 0 0.62932038083071107 0.62932038083071107 0 -0.77714596973225614 1 I I #
face $-1 $-1 $374 $52 $-1 $508 forward single #
loop $-1 $-1 $509 $232 #
plane-surface $-1 -41.297647022919399 0 0 1 0 0 0 0 -1 forward_v I I I I #
coedge $-1 $510 $511 $512 $513 reversed $233 $-1 #
coedge $-1 $514 $235 $237 $372 forward $147 $-1 #
coedge $-1 $235 $514 $510 $515 forward $147 $-1 #
coedge $-1 $512 $238 $235 $369 forward $374 $-1 #
edge $-1 $376 -12.752569567808603 $516 -6.0445161208956613 $368 $517 forward 7 unknown #
coedge $-1 $518 $519 $236 $371 forward $363 $-1 #
edge $-1 $520 -25.471937672277107 $375 -19.362833021660126 $370 $521 forward 7 unknown #
edge $-1 $376 -8.4926547617282786 $520 -1.0047061284303404e-014 $237 $522 forward 7 unknown #
coedge $-1 $238 $512 $518 $523 forward $374 $-1 #
loop $-1 $-1 $512 $362 #
vertex $-1 $371 $524 #
vertex $-1 $239 $525 #
straight-curve $-1 -50.355865015630499 -22.151112412160735 12.540740970852898 1 0 0 I I #
coedge $-1 $378 $378 $-1 $526 reversed $242 $-1 #
edge $-1 $527 0 $527 6.2831853071796004 $243 $528 forward 7 unknown #
vertex $-1 $246 $529 #
ellipse-curve $-1 -38.347900200321071 -20.23452571304275 9.486188645544404 -0.71933980857756763 0 0.69465836192734942 0.34732918096367471 0 0.35966990428878381 1 I I #
coedge $-1 $382 $382 $-1 $530 reversed $249 $-1 #
edge $-1 $531 0 $531 6.2831853071796004 $250 $532 forward 7 unknown #
vertex $-1 $253 $533 #
ellipse-curve $-1 -38.347900200321071 -17.359645664365775 9.486188645544404 -0.71933980857756763 0 0.69465836192734942 0.34732918096367471 0 0.35966990428878381 1 I I #
face $-1 $-1 $534 $55 $-1 $535 reversed single #
loop $-1 $-1 $260 $254 #
plane-surface $-1 0 0 12.540740970852898 0 0 1 1 0 0 forward_v I I I I #
coedge $-1 $536 $537 $538 $539 reversed $255 $-1 #
coedge $-1 $540 $257 $259 $396 forward $161 $-1 #
coedge $-1 $257 $540 $536 $541 forward $161 $-1 #
coedge $-1 $538 $260 $257 $393 forward $387 $-1 #
edge $-1 $399 -6.125814042987658 $542 0.58223940392528295 $392 $543 forward 7 unknown #
coedge $-1 $544 $545 $258 $395 forward $534 $-1 #
edge $-1 $546 -25.471937672277107 $398 -19.362833021660126 $394 $547 forward 7 unknown #
edge $-1 $399 -8.4926547617282786 $546 -1.0047061284303404e-014 $259 $548 forward 7 unknown #
coedge $-1 $260 $538 $544 $549 forward $387 $-1 #
vertex $-1 $261 $550 #
vertex $-1 $261 $551 #
straight-curve $-1 -50.355865015630499 -8.897601362518845 12.540740970852898 1 0 0 I I #
coedge $-1 $401 $401 $-1 $552 reversed $264 $-1 #
edge $-1 $553 0 $553 6.2831853071796004 $265 $554 forward 7 unknown #
vertex $-1 $268 $555 #
ellipse-curve $-1 -38.347900200321071 -6.9810146634008596 9.486188645544404 -0.71933980857756763 0 0.69465836192734942 0.34732918096367471 0 0.35966990428878381 1 I I #
coedge $-1 $405 $405 $-1 $556 reversed $271 $-1 #
edge $-1 $557 0 $557 6.2831853071796004 $272 $558 forward 7 unknown #
vertex $-1 $275 $559 #
ellipse-curve $-1 -38.347900200321071 -4.1061346147238851 9.486188645544404 -0.71933980857756763 0 0.69465836192734942 0.34732918096367471 0 0.35966990428878381 1 I I #
face $-1 $-1 $560 $58 $-1 $561 reversed single #
loop $-1 $-1 $282 $276 #
plane-surface $-1 0 0 12.540740970852898 0 0 1 1 0 0 forward_v I I I I #
coedge $-1 $562 $563 $564 $565 reversed $277 $-1 #
coedge $-1 $566 $279 $281 $419 forward $175 $-1 #
coedge $-1 $279 $566 $562 $567 forward $175 $-1 #
coedge $-1 $564 $282 $279 $416 forward $410 $-1 #
edge $-1 $422 0.50094148183328802 $568 7.2089949287462289 $415 $569 forward 7 unknown #
coedge $-1 $570 $571 $280 $418 forward $560 $-1 #
edge $-1 $572 -25.471937672277107 $421 -19.362833021660126 $417 $573 forward 7 unknown #
edge $-1 $422 -8.4926547617282786 $572 -1.0047061284303404e-014 $281 $574 forward 7 unknown #
coedge $-1 $282 $564 $570 $575 forward $410 $-1 #
vertex $-1 $283 $576 #
vertex $-1 $283 $577 #
straight-curve $-1 -50.355865015630499 4.355909687123046 12.540740970852898 1 0 0 I I #
coedge $-1 $424 $424 $-1 $578 reversed $286 $-1 #
edge $-1 $579 0 $579 6.2831853071796004 $287 $580 forward 7 unknown #
vertex $-1 $290 $581 #
ellipse-curve $-1 -38.347900200321071 6.2724963862410306 9.486188645544404 -0.71933980857756763 0 0.69465836192734942 0.34732918096367471 0 0.35966990428878381 1 I I #
coedge $-1 $428 $428 $-1 $582 reversed $293 $-1 #
edge $-1 $583 0 $583 6.2831853071796004 $294 $584 forward 7 unknown #
vertex $-1 $297 $585 #
ellipse-curve $-1 -38.347900200321071 9.1473764349180087 9.486188645544404 -0.71933980857756763 0 0.69465836192734942 0.34732918096367471 0 0.35966990428878381 1 I I #
face $-1 $-1 $586 $61 $-1 $587 reversed single #
loop $-1 $-1 $304 $298 #
plane-surface $-1 0 0 12.540740970852898 0 0 1 1 0 0 forward_v I I I I #
coedge $-1 $588 $589 $590 $591 reversed $299 $-1 #
coedge $-1 $592 $301 $303 $442 forward $189 $-1 #
coedge $-1 $301 $592 $588 $593 forward $189 $-1 #
coedge $-1 $590 $304 $301 $439 forward $433 $-1 #
edge $-1 $445 7.127697006654234 $594 13.835750453567176 $438 $595 forward 7 unknown #
coedge $-1 $596 $597 $302 $441 forward $586 $-1 #
edge $-1 $598 -25.471937672277107 $444 -19.362833021660126 $440 $599 forward 7 unknown #
edge $-1 $445 -8.4926547617282786 $598 -1.0047061284303404e-014 $303 $600 forward 7 unknown #
coedge $-1 $304 $590 $596 $601 forward $433 $-1 #
vertex $-1 $305 $602 #
vertex $-1 $305 $603 #
straight-curve $-1 -50.355865015630499 17.609420736764939 12.540740970852898 1 0 0 I I #
coedge $-1 $447 $447 $-1 $604 reversed $308 $-1 #
edge $-1 $605 0 $605 6.2831853071796004 $309 $606 forward 7 unknown #
vertex $-1 $312 $607 #
ellipse-curve $-1 -38.347900200321071 19.526007435882924 9.486188645544404 -0.71933980857756763 0 0.69465836192734942 0.34732918096367471 0 0.35966990428878381 1 I I #
coedge $-1 $451 $451 $-1 $608 reversed $315 $-1 #
edge $-1 $609 0 $609 6.2831853071796004 $316 $610 forward 7 unknown #
vertex $-1 $319 $611 #
ellipse-curve $-1 -38.347900200321071 22.400887484559895 9.486188645544404 -0.71933980857756763 0 0.69465836192734942 0.34732918096367471 0 0.35966990428878381 1 I I #
face $-1 $-1 $335 $48 $-1 $612 reversed single #
loop $-1 $-1 $471 $320 #
plane-surface $-1 0 26.50702209928378 0 0 -1 0 0 0 -1 forward_v I I I I #
coedge $-1 $613 $469 $472 $614 forward $321 $-1 #
coedge $-1 $475 $323 $324 $463 reversed $203 $-1 #
coedge $-1 $469 $613 $323 $461 reversed $321 $-1 #
edge $-1 $476 -12.540740970852898 $615 12.540740970852898 $460 $616 forward 7 unknown #
coedge $-1 $325 $324 $613 $617 forward $129 $-1 #
edge $-1 $467 -41.297647022919399 $615 41.297647022919399 $459 $618 forward 7 unknown #
coedge $-1 $472 $471 $325 $465 reversed $456 $-1 #
edge $-1 $619 -41.297647022919399 $466 41.297647022919399 $464 $620 forward 7 unknown #
vertex $-1 $327 $621 #
vertex $-1 $478 $622 #
straight-curve $-1 41.297647022919399 0 -12.540740970852898 0 -1 0 I I #
coedge $-1 $458 $460 $328 $470 reversed $321 $-1 #
edge $-1 $473 -26.50702209928378 $476 26.50702209928378 $469 $623 forward 7 unknown #
coedge $-1 $464 $329 $334 $479 forward $456 $-1 #
coedge $-1 $329 $464 $458 $614 reversed $456 $-1 #
vertex $-1 $330 $624 #
straight-curve $-1 0 26.50702209928378 12.540740970852898 -1 0 0 I I #
coedge $-1 $331 $459 $333 $478 reversed $203 $-1 #
vertex $-1 $470 $625 #
straight-curve $-1 0 -26.50702209928378 12.540740970852898 1 0 0 I I #
edge $-1 $336 -12.540740970852898 $467 12.540740970852898 $333 $626 forward 7 unknown #
edge $-1 $337 -12.540740970852898 $466 12.540740970852898 $334 $627 forward 7 unknown #
point $-1 41.297647022919399 -26.50702209928378 12.540740970852898 #
point $-1 41.297647022919399 26.50702209928378 12.540740970852898 #
loop $-1 $-1 $347 $339 #
plane-surface $-1 41.297647022919399 0 0 -1 0 0 0 0 1 forward_v I I I I #
coedge $-1 $485 $342 $344 $489 reversed $211 $-1 #
coedge $-1 $342 $484 $628 $629 reversed $211 $-1 #
coedge $-1 $350 $345 $342 $487 forward $340 $-1 #
edge $-1 $490 7.3225452647072053 $630 14.543974520048504 $486 $631 forward 7 unknown #
coedge $-1 $344 $343 $493 $632 reversed $133 $-1 #
edge $-1 $633 -82.595294045838813 $490 -71.120329186431405 $484 $634 forward 7 unknown #
vertex $-1 $346 $635 #
straight-curve $-1 34.0762177675781 1.7297159074346187 12.540740970852895 0 -1 0 I I #
coedge $-1 $628 $347 $350 $497 reversed $482 $-1 #
coedge $-1 $347 $628 $488 $632 forward $482 $-1 #
vertex $-1 $348 $636 #
straight-curve $-1 41.297647022919399 7.5971453287405879 59.895260033935621 0 0 1 I I #
straight-curve $-1 -10.681254880832448 7.5971453287405879 67.811618164119409 0.62932038083071107 0 -0.77714596973225614 I I #
edge $-1 $630 -0.67828169900211321 $351 7.5971453287405879 $492 $637 forward 7 unknown #
point $-1 41.297647022919399 7.5971453287405879 12.540740970852898 #
point $-1 34.0762177675781 7.5971453287405879 12.540740970852895 #
edge $-1 $638 1 $638 0 $354 $-1 forward 7 unknown #
vertex $-1 $355 $639 #
ellipse-curve $-1 35.519760759631062 1.6861260232100861 6.3269386836672146 0.77714596973225614 0 0.62932038083071107 0.62932038083071107 0 -0.77714596973225614 1 I I #
point $-1 38.316252776079466 1.6861260232100861 7.3047336544667818 #
edge $-1 $640 1 $640 0 $358 $-1 forward 7 unknown #
vertex $-1 $359 $641 #
ellipse-curve $-1 35.519760759631062 5.232737606528385 6.3269386836672146 0.77714596973225614 0 0.62932038083071107 0.62932038083071107 0 -0.77714596973225614 1 I I #
point $-1 38.316252776079466 5.232737606528385 7.3047336544667818 #
plane-surface $-1 0 0 12.540740970852898 0 0 1 1 0 0 forward_v I I I I #
coedge $-1 $519 $518 $511 $642 forward $363 $-1 #
coedge $-1 $511 $365 $367 $515 reversed $233 $-1 #
coedge $-1 $365 $510 $509 $642 reversed $233 $-1 #
coedge $-1 $373 $368 $365 $513 forward $374 $-1 #
edge $-1 $516 -14.957711637907764 $643 -9.0582179927111 $512 $644 forward 7 unknown #
coedge $-1 $367 $366 $519 $645 reversed $147 $-1 #
edge $-1 $646 1.0047061284303404e-014 $516 8.4926547617282786 $510 $647 forward 7 unknown #
vertex $-1 $369 $648 #
straight-curve $-1 -35.398153377722736 -9.3985428443521322 12.540740970852898 0 1 0 I I #
coedge $-1 $509 $370 $373 $523 reversed $363 $-1 #
coedge $-1 $370 $509 $514 $645 forward $363 $-1 #
vertex $-1 $371 $649 #
straight-curve $-1 -41.297647022919399 -22.151112412160735 31.903573992513024 0 0 1 I I #
straight-curve $-1 -41.297647022919406 -22.151112412160735 6.4316363202359099 -0.69465836192734942 0 -0.71933980857756763 I I #
edge $-1 $643 15.443058965247793 $375 22.151112412160735 $518 $650 forward 7 unknown #
point $-1 -41.297647022919399 -22.151112412160735 12.540740970852898 #
point $-1 -35.398153377722736 -22.151112412160735 12.540740970852898 #
edge $-1 $651 1 $651 0 $378 $-1 forward 7 unknown #
vertex $-1 $379 $652 #
ellipse-curve $-1 -37.354233469901843 -20.23452571304275 8.5266158608549958 -0.71933980857756763 0 0.69465836192734942 0.34732918096367471 0 0.35966990428878381 1 I I #
point $-1 -38.000571019357388 -20.23452571304275 9.8458585498331797 #
edge $-1 $653 1 $653 0 $382 $-1 forward 7 unknown #
vertex $-1 $383 $654 #
ellipse-curve $-1 -37.354233469901843 -17.359645664365775 8.5266158608549958 -0.71933980857756763 0 0.69465836192734942 0.34732918096367471 0 0.35966990428878381 1 I I #
point $-1 -38.000571019357388 -17.359645664365775 9.8458585498331797 #
loop $-1 $-1 $394 $386 #
plane-surface $-1 -41.297647022919399 0 0 1 0 0 0 0 -1 forward_v I I I I #
coedge $-1 $537 $389 $391 $541 reversed $255 $-1 #
coedge $-1 $389 $536 $655 $656 reversed $255 $-1 #
coedge $-1 $397 $392 $389 $539 forward $387 $-1 #
edge $-1 $542 -14.957711637907764 $657 -9.0582179927111 $538 $658 forward 7 unknown #
coedge $-1 $391 $390 $545 $659 reversed $161 $-1 #
edge $-1 $660 1.0047061284303404e-014 $542 8.4926547617282786 $536 $661 forward 7 unknown #
vertex $-1 $393 $662 #
straight-curve $-1 -35.398153377722736 -2.7717873195311871 12.540740970852898 0 1 0 I I #
coedge $-1 $655 $394 $397 $549 reversed $534 $-1 #
coedge $-1 $394 $655 $540 $659 forward $534 $-1 #
vertex $-1 $395 $663 #
straight-curve $-1 -41.297647022919399 -8.897601362518845 31.903573992513024 0 0 1 I I #
straight-curve $-1 -41.297647022919406 -8.897601362518845 6.4316363202359099 -0.69465836192734942 0 -0.71933980857756763 I I #
edge $-1 $657 2.1895479156059041 $398 8.897601362518845 $544 $664 forward 7 unknown #
point $-1 -41.297647022919399 -8.897601362518845 12.540740970852898 #
point $-1 -35.398153377722736 -8.897601362518845 12.540740970852898 #
edge $-1 $665 1 $665 0 $401 $-1 forward 7 unknown #
vertex $-1 $402 $666 #
ellipse-curve $-1 -37.354233469901843 -6.9810146634008596 8.5266158608549958 -0.71933980857756763 0 0.69465836192734942 0.34732918096367471 0 0.35966990428878381 1 I I #
point $-1 -38.000571019357388 -6.9810146634008596 9.8458585498331797 #
edge $-1 $667 1 $667 0 $405 $-1 forward 7 unknown #
vertex $-1 $406 $668 #
ellipse-curve $-1 -37.354233469901843 -4.1061346147238851 8.5266158608549958 -0.71933980857756763 0 0.69465836192734942 0.34732918096367471 0 0.35966990428878381 1 I I #
point $-1 -38.000571019357388 -4.1061346147238851 9.8458585498331797 #
loop $-1 $-1 $417 $409 #
plane-surface $-1 -41.297647022919399 0 0 1 0 0 0 0 -1 forward_v I I I I #
coedge $-1 $563 $412 $414 $567 reversed $277 $-1 #
coedge $-1 $412 $562 $669 $670 reversed $277 $-1 #
coedge $-1 $420 $415 $412 $565 forward $410 $-1 #
edge $-1 $568 -14.957711637907764 $671 -9.0582179927111 $564 $672 forward 7 unknown #
coedge $-1 $414 $413 $571 $673 reversed $175 $-1 #
edge $-1 $674 1.0047061284303404e-014 $568 8.4926547617282786 $562 $675 forward 7 unknown #
vertex $-1 $416 $676 #
straight-curve $-1 -35.398153377722736 3.854968205289758 12.540740970852898 0 1 0 I I #
coedge $-1 $669 $417 $420 $575 reversed $560 $-1 #
coedge $-1 $417 $669 $566 $673 forward $560 $-1 #
vertex $-1 $418 $677 #
straight-curve $-1 -41.297647022919399 4.355909687123046 31.903573992513024 0 0 1 I I #
straight-curve $-1 -41.297647022919406 4.355909687123046 6.4316363202359099 -0.69465836192734942 0 -0.71933980857756763 I I #
edge $-1 $671 -11.063963134035987 $421 -4.355909687123046 $570 $678 forward 7 unknown #
point $-1 -41.297647022919399 4.355909687123046 12.540740970852898 #
point $-1 -35.398153377722736 4.355909687123046 12.540740970852898 #
edge $-1 $679 1 $679 0 $424 $-1 forward 7 unknown #
vertex $-1 $425 $680 #
ellipse-curve $-1 -37.354233469901843 6.2724963862410306 8.5266158608549958 -0.71933980857756763 0 0.69465836192734942 0.34732918096367471 0 0.35966990428878381 1 I I #
point $-1 -38.000571019357388 6.2724963862410306 9.8458585498331797 #
edge $-1 $681 1 $681 0 $428 $-1 forward 7 unknown #
vertex $-1 $429 $682 #
ellipse-curve $-1 -37.354233469901843 9.1473764349180087 8.5266158608549958 -0.71933980857756763 0 0.69465836192734942 0.34732918096367471 0 0.35966990428878381 1 I I #
point $-1 -38.000571019357388 9.1473764349180087 9.8458585498331797 #
loop $-1 $-1 $440 $432 #
plane-surface $-1 -41.297647022919399 0 0 1 0 0 0 0 -1 forward_v I I I I #
coedge $-1 $589 $435 $437 $593 reversed $299 $-1 #
coedge $-1 $435 $588 $683 $684 reversed $299 $-1 #
coedge $-1 $443 $438 $435 $591 forward $433 $-1 #
edge $-1 $594 -14.957711637907764 $685 -9.0582179927111 $590 $686 forward 7 unknown #
coedge $-1 $437 $436 $597 $687 reversed $189 $-1 #
edge $-1 $688 1.0047061284303404e-014 $594 8.4926547617282786 $588 $689 forward 7 unknown #
vertex $-1 $439 $690 #
straight-curve $-1 -35.398153377722736 10.481723730110705 12.540740970852898 0 1 0 I I #
coedge $-1 $683 $440 $443 $601 reversed $586 $-1 #
coedge $-1 $440 $683 $592 $687 forward $586 $-1 #
vertex $-1 $441 $691 #
straight-curve $-1 -41.297647022919399 17.609420736764939 31.903573992513024 0 0 1 I I #
straight-curve $-1 -41.297647022919406 17.609420736764939 6.4316363202359099 -0.69465836192734942 0 -0.71933980857756763 I I #
edge $-1 $685 -24.317474183677881 $444 -17.609420736764939 $596 $692 forward 7 unknown #
point $-1 -41.297647022919399 17.609420736764939 12.540740970852898 #
point $-1 -35.398153377722736 17.609420736764939 12.540740970852898 #
edge $-1 $693 1 $693 0 $447 $-1 forward 7 unknown #
vertex $-1 $448 $694 #
ellipse-curve $-1 -37.354233469901843 19.526007435882924 8.5266158608549958 -0.71933980857756763 0 0.69465836192734942 0.34732918096367471 0 0.35966990428878381 1 I I #
point $-1 -38.000571019357388 19.526007435882924 9.8458585498331797 #
edge $-1 $695 1 $695 0 $451 $-1 forward 7 unknown #
vertex $-1 $452 $696 #
ellipse-curve $-1 -37.354233469901843 22.400887484559895 8.5266158608549958 -0.71933980857756763 0 0.69465836192734942 0.34732918096367471 0 0.35966990428878381 1 I I #
point $-1 -38.000571019357388 22.400887484559895 9.8458585498331797 #
plane-surface $-1 41.297647022919399 0 0 -1 0 0 0 0 1 forward_v I I I I #
coedge $-1 $460 $458 $462 $617 reversed $321 $-1 #
edge $-1 $473 -12.540740970852898 $619 12.540740970852898 $472 $697 forward 7 unknown #
vertex $-1 $617 $698 #
straight-curve $-1 -41.297647022919399 -26.50702209928378 0 0 0 -1 I I #
edge $-1 $615 -26.50702209928378 $619 26.50702209928378 $613 $699 forward 7 unknown #
straight-curve $-1 0 -26.50702209928378 -12.540740970852898 -1 0 0 I I #
vertex $-1 $465 $700 #
straight-curve $-1 0 26.50702209928378 -12.540740970852898 1 0 0 I I #
point $-1 41.297647022919399 26.50702209928378 -12.540740970852898 #
point $-1 41.297647022919399 -26.50702209928378 -12.540740970852898 #
straight-curve $-1 -41.297647022919399 0 12.540740970852898 0 -1 0 I I #
point $-1 -41.297647022919399 26.50702209928378 12.540740970852898 #
point $-1 -41.297647022919399 -26.50702209928378 12.540740970852898 #
straight-curve $-1 41.297647022919399 -26.50702209928378 0 0 0 -1 I I #
straight-curve $-1 41.297647022919399 26.50702209928378 0 0 0 -1 I I #
coedge $-1 $493 $492 $485 $629 forward $482 $-1 #
edge $-1 $630 47.354519063082719 $633 56.272241756390464 $628 $701 forward 7 unknown #
vertex $-1 $497 $702 #
straight-curve $-1 26.753672502870895 -0.67828169900211321 12.540740970852895 1 0 0 I I #
edge $-1 $633 -2.4079976064367319 $494 5.8674294213059692 $493 $703 forward 7 unknown #
vertex $-1 $632 $704 #
straight-curve $-1 -10.681254880832448 -0.67828169900211321 67.811618164119409 -0.62932038083071107 0 0.77714596973225614 I I #
point $-1 34.0762177675781 -0.67828169900211321 12.540740970852895 #
point $-1 41.297647022919399 7.5971453287405879 3.6230182775451567 #
straight-curve $-1 41.297647022919399 0 12.540740970852898 0 1 0 I I #
vertex $-1 $500 $705 #
point $-1 36.149081140461774 1.6861260232100861 5.5497927139349583 #
vertex $-1 $504 $706 #
point $-1 36.149081140461774 5.232737606528385 5.5497927139349583 #
edge $-1 $643 19.362833021660126 $646 25.471937672277107 $509 $707 forward 7 unknown #
vertex $-1 $523 $708 #
straight-curve $-1 -50.355865015630499 -15.443058965247793 12.540740970852898 -1 0 0 I I #
edge $-1 $646 6.0445161208956613 $520 12.752569567808603 $519 $709 forward 7 unknown #
vertex $-1 $645 $710 #
straight-curve $-1 -41.297647022919406 -15.443058965247793 6.4316363202359099 0.69465836192734942 0 0.71933980857756763 I I #
point $-1 -35.398153377722736 -15.443058965247793 12.540740970852898 #
point $-1 -41.297647022919399 -22.151112412160735 6.431636320235917 #
straight-curve $-1 -41.297647022919399 0 12.540740970852898 0 -1 0 I I #
vertex $-1 $526 $711 #
point $-1 -37.006904288938173 -20.23452571304275 8.8862857651437785 #
vertex $-1 $530 $712 #
point $-1 -37.006904288938173 -17.359645664365775 8.8862857651437785 #
coedge $-1 $545 $544 $537 $656 forward $534 $-1 #
edge $-1 $657 19.362833021660126 $660 25.471937672277107 $655 $713 forward 7 unknown #
vertex $-1 $549 $714 #
straight-curve $-1 -50.355865015630499 -2.1895479156059041 12.540740970852898 -1 0 0 I I #
edge $-1 $660 -0.58223940392528295 $546 6.125814042987658 $545 $715 forward 7 unknown #
vertex $-1 $659 $716 #
straight-curve $-1 -41.297647022919406 -2.1895479156059041 6.4316363202359099 0.69465836192734942 0 0.71933980857756763 I I #
point $-1 -35.398153377722736 -2.1895479156059041 12.540740970852898 #
point $-1 -41.297647022919399 -8.897601362518845 6.431636320235917 #
straight-curve $-1 -41.297647022919399 0 12.540740970852898 0 -1 0 I I #
vertex $-1 $552 $717 #
point $-1 -37.006904288938173 -6.9810146634008596 8.8862857651437785 #
vertex $-1 $556 $718 #
point $-1 -37.006904288938173 -4.1061346147238851 8.8862857651437785 #
coedge $-1 $571 $570 $563 $670 forward $560 $-1 #
edge $-1 $671 19.362833021660126 $674 25.471937672277107 $669 $719 forward 7 unknown #
vertex $-1 $575 $720 #
straight-curve $-1 -50.355865015630499 11.063963134035987 12.540740970852898 -1 0 0 I I #
edge $-1 $674 -7.2089949287462289 $572 -0.50094148183328802 $571 $721 forward 7 unknown #
vertex $-1 $673 $722 #
straight-curve $-1 -41.297647022919406 11.063963134035987 6.4316363202359099 0.69465836192734942 0 0.71933980857756763 I I #
point $-1 -35.398153377722736 11.063963134035987 12.540740970852898 #
point $-1 -41.297647022919399 4.355909687123046 6.431636320235917 #
straight-curve $-1 -41.297647022919399 0 12.540740970852898 0 -1 0 I I #
vertex $-1 $578 $723 #
point $-1 -37.006904288938173 6.2724963862410306 8.8862857651437785 #
vertex $-1 $582 $724 #
point $-1 -37.006904288938173 9.1473764349180087 8.8862857651437785 #
coedge $-1 $597 $596 $589 $684 forward $586 $-1 #
edge $-1 $685 19.362833021660126 $688 25.471937672277107 $683 $725 forward 7 unknown #
vertex $-1 $601 $726 #
straight-curve $-1 -50.355865015630499 24.317474183677881 12.540740970852898 -1 0 0 I I #
edge $-1 $688 -13.835750453567176 $598 -7.127697006654234 $597 $727 forward 7 unknown #
vertex $-1 $687 $728 #
straight-curve $-1 -41.297647022919406 24.317474183677881 6.4316363202359099 0.69465836192734942 0 0.71933980857756763 I I #
point $-1 -35.398153377722736 24.317474183677881 12.540740970852898 #
point $-1 -41.297647022919399 17.609420736764939 6.431636320235917 #
straight-curve $-1 -41.297647022919399 0 12.540740970852898 0 -1 0 I I #
vertex $-1 $604 $729 #
point $-1 -37.006904288938173 19.526007435882924 8.8862857651437785 #
vertex $-1 $608 $730 #
point $-1 -37.006904288938173 22.400887484559895 8.8862857651437785 #
straight-curve $-1 -41.297647022919399 26.50702209928378 0 0 0 -1 I I #
point $-1 -41.297647022919399 -26.50702209928378 -12.540740970852898 #
straight-curve $-1 -41.297647022919399 0 -12.540740970852898 0 1 0 I I #
point $-1 -41.297647022919399 26.50702209928378 -12.540740970852898 #
straight-curve $-1 41.297647022919399 -0.67828169900211321 59.895260033935621 0 0 -1 I I #
point $-1 41.297647022919399 -0.67828169900211321 12.540740970852898 #
straight-curve $-1 41.297647022919392 1.7297159074346187 3.6230182775451603 0 1 0 I I #
point $-1 41.297647022919399 -0.67828169900211321 3.6230182775451567 #
point $-1 34.742614789898802 1.6861260232100861 5.6976183028365037 #
point $-1 34.742614789898802 5.232737606528385 5.6976183028365037 #
straight-curve $-1 -41.297647022919399 -15.443058965247793 31.903573992513024 0 0 -1 I I #
point $-1 -41.297647022919399 -15.443058965247793 12.540740970852898 #
straight-curve $-1 -41.297647022919399 -9.3985428443521322 6.4316363202359179 0 -1 0 I I #
point $-1 -41.297647022919399 -15.443058965247793 6.431636320235917 #
point $-1 -36.994563565613063 -20.23452571304275 8.1792866798913195 #
point $-1 -36.994563565613063 -17.359645664365775 8.1792866798913195 #
straight-curve $-1 -41.297647022919399 -2.1895479156059041 31.903573992513024 0 0 -1 I I #
point $-1 -41.297647022919399 -2.1895479156059041 12.540740970852898 #
straight-curve $-1 -41.297647022919399 -2.7717873195311871 6.4316363202359179 0 -1 0 I I #
point $-1 -41.297647022919399 -2.1895479156059041 6.431636320235917 #
point $-1 -36.994563565613063 -6.9810146634008596 8.1792866798913195 #
point $-1 -36.994563565613063 -4.1061346147238851 8.1792866798913195 #
straight-curve $-1 -41.297647022919399 11.063963134035987 31.903573992513024 0 0 -1 I I #
point $-1 -41.297647022919399 11.063963134035987 12.540740970852898 #
straight-curve $-1 -41.297647022919399 3.854968205289758 6.4316363202359179 0 -1 0 I I #
point $-1 -41.297647022919399 11.063963134035987 6.431636320235917 #
point $-1 -36.994563565613063 6.2724963862410306 8.1792866798913195 #
point $-1 -36.994563565613063 9.1473764349180087 8.1792866798913195 #
straight-curve $-1 -41.297647022919399 24.317474183677881 31.903573992513024 0 0 -1 I I #
point $-1 -41.297647022919399 24.317474183677881 12.540740970852898 #
straight-curve $-1 -41.297647022919399 10.481723730110705 6.4316363202359179 0 -1 0 I I #
point $-1 -41.297647022919399 24.317474183677881 6.431636320235917 #
point $-1 -36.994563565613063 19.526007435882924 8.1792866798913195 #
point $-1 -36.994563565613063 22.400887484559895 8.1792866798913195 #
End-of-ACIS-data 