500 0 10 0           
7 Unknown 11 ACIS 5.0 NT 24 Thu Mar 25 17:00:45 1999 
-1 9.9999999999999995e-007 1e-010 
body $-1 $10 $-1 $11 #
body $-1 $12 $-1 $13 #
body $-1 $14 $-1 $15 #
body $-1 $16 $-1 $17 #
body $-1 $18 $-1 $19 #
body $-1 $20 $-1 $21 #
body $-1 $22 $-1 $23 #
body $-1 $24 $-1 $25 #
body $-1 $26 $-1 $27 #
body $-1 $28 $-1 $29 #
lump $-1 $-1 $30 $0 #
transform $-1 1 0 0 0 1 0 0 0 1 57.395550401318403 25.636632469211584 8.1781851214384851 1 rotate no_reflect no_shear #
lump $-1 $-1 $31 $1 #
transform $-1 1 0 0 0 1 0 0 0 1 57.395550401318403 25.636632469211584 8.1781851214384851 1 rotate no_reflect no_shear #
lump $-1 $-1 $32 $2 #
transform $-1 1 0 0 0 1 0 0 0 1 57.395550401318403 25.636632469211584 8.1781851214384851 1 rotate no_reflect no_shear #
lump $-1 $-1 $33 $3 #
transform $-1 1 0 0 0 1 0 0 0 1 57.395550401318403 25.636632469211584 8.1781851214384851 1 rotate no_reflect no_shear #
lump $-1 $-1 $34 $4 #
transform $-1 1 0 0 0 1 0 0 0 1 57.395550401318403 25.636632469211584 8.1781851214384851 1 rotate no_reflect no_shear #
lump $-1 $-1 $35 $5 #
transform $-1 1 0 0 0 1 0 0 0 1 57.395550401318403 25.636632469211584 8.1781851214384851 1 rotate no_reflect no_shear #
lump $-1 $-1 $36 $6 #
transform $-1 1 0 0 0 1 0 0 0 1 57.395550401318403 25.636632469211584 8.1781851214384851 1 rotate no_reflect no_shear #
lump $-1 $-1 $37 $7 #
transform $-1 1 0 0 0 1 0 0 0 1 57.395550401318403 25.636632469211584 8.1781851214384851 1 rotate no_reflect no_shear #
lump $-1 $-1 $38 $8 #
transform $-1 1 0 0 0 1 0 0 0 1 57.395550401318403 25.636632469211584 8.1781851214384851 1 rotate no_reflect no_shear #
lump $-1 $-1 $39 $9 #
transform $-1 1 0 0 0 1 0 0 0 1 57.395550401318403 25.636632469211584 8.1781851214384851 1 rotate no_reflect no_shear #
shell $-1 $-1 $-1 $40 $-1 $10 #
shell $-1 $-1 $-1 $41 $-1 $12 #
shell $-1 $-1 $-1 $42 $-1 $14 #
shell $-1 $-1 $-1 $43 $-1 $16 #
shell $-1 $-1 $-1 $44 $-1 $18 #
shell $-1 $-1 $-1 $45 $-1 $20 #
shell $-1 $-1 $-1 $46 $-1 $22 #
shell $-1 $-1 $-1 $47 $-1 $24 #
shell $-1 $-1 $-1 $48 $-1 $26 #
shell $-1 $-1 $-1 $49 $-1 $28 #
face $-1 $50 $51 $30 $-1 $52 reversed single #
face $-1 $53 $54 $31 $-1 $55 forward single #
face $-1 $56 $57 $32 $-1 $58 forward single #
face $-1 $59 $60 $33 $-1 $61 reversed single #
face $-1 $62 $63 $34 $-1 $64 forward single #
face $-1 $65 $66 $35 $-1 $67 forward single #
face $-1 $68 $69 $36 $-1 $70 forward single #
face $-1 $71 $72 $37 $-1 $73 reversed single #
face $-1 $74 $75 $38 $-1 $76 forward single #
face $-1 $77 $78 $39 $-1 $79 forward single #
face $-1 $80 $81 $30 $-1 $82 reversed single #
loop $-1 $-1 $83 $40 #
plane-surface $-1 57.395550401318403 0 0 -1 0 0 0 0 1 forward_v I I I I #
face $-1 $84 $85 $31 $-1 $86 reversed single #
loop $-1 $-1 $87 $41 #
plane-surface $-1 -57.395550401318403 0 0 1 0 0 0 0 -1 forward_v I I I I #
face $-1 $88 $89 $32 $-1 $90 reversed single #
loop $-1 $-1 $91 $42 #
plane-surface $-1 57.395550401318403 0 0 -1 0 0 0 0 1 forward_v I I I I #
face $-1 $92 $93 $33 $-1 $94 reversed single #
loop $-1 $-1 $95 $43 #
plane-surface $-1 29.096717550196054 51.628207064889942 123.31188317168481 1 0 0 0 -0.5877852598018023 -0.80901698891910034 forward_v I I I I #
face $-1 $96 $97 $34 $-1 $98 forward single #
loop $-1 $99 $100 $44 #
cone-surface $-1 32.877544653650418 19.683236240464105 3.5044686095192406 0 -0.5877852598018023 -0.80901698891910034 1.5 0 0 1 I I 0 1 1.5 forward I I I I #
face $-1 $101 $102 $35 $-1 $103 forward single #
loop $-1 $104 $105 $45 #
cone-surface $-1 38.548785308831967 19.683236240464105 3.5044686095192406 0 -0.5877852598018023 -0.80901698891910034 1.5 0 0 1 I I 0 1 1.5 forward I I I I #
face $-1 $106 $107 $36 $-1 $108 forward single #
loop $-1 $109 $110 $46 #
cone-surface $-1 44.220025964013516 19.683236240464105 3.5044686095192406 0 -0.5877852598018023 -0.80901698891910034 1.5 0 0 1 I I 0 1 1.5 forward I I I I #
face $-1 $111 $112 $37 $-1 $113 reversed single #
loop $-1 $-1 $114 $47 #
plane-surface $-1 -7.5515463865609824 -119.66799829156633 69.363336727702375 -1 0 0 0 -0.81915205242281985 0.57357642473473569 forward_v I I I I #
face $-1 $115 $116 $38 $-1 $117 forward single #
loop $-1 $118 $119 $48 #
cone-surface $-1 -27.743718432132848 -23.59686215607811 5.5632381173325252 0 0.81915205242281985 -0.57357642473473569 0.5 0 0 1 I I 0 1 0.5 forward I I I I #
face $-1 $120 $121 $39 $-1 $122 forward single #
loop $-1 $123 $124 $49 #
cone-surface $-1 -15.628415204789732 -23.59686215607811 5.5632381173325252 0 0.81915205242281985 -0.57357642473473569 0.5 0 0 1 I I 0 1 0.5 forward I I I I #
face $-1 $125 $126 $30 $-1 $127 forward single #
loop $-1 $-1 $128 $50 #
plane-surface $-1 -57.395550401318403 0 0 1 0 0 0 0 -1 forward_v I I I I #
coedge $-1 $129 $130 $131 $132 reversed $51 $-1 #
face $-1 $133 $134 $31 $-1 $135 reversed single #
loop $-1 $-1 $136 $53 #
plane-surface $-1 0 0 -8.1781851214384851 0 0 1 1 0 0 forward_v I I I I #
coedge $-1 $137 $138 $139 $140 forward $54 $-1 #
face $-1 $141 $142 $32 $-1 $143 reversed single #
loop $-1 $-1 $144 $56 #
plane-surface $-1 0 0 -8.1781851214384851 0 0 1 1 0 0 forward_v I I I I #
coedge $-1 $145 $146 $147 $148 forward $57 $-1 #
face $-1 $149 $150 $33 $-1 $151 reversed single #
loop $-1 $-1 $152 $59 #
plane-surface $-1 38.548785308831967 -15.844309943322806 30.443932445626658 0 0.5877852598018023 0.80901698891910034 1 0 0 forward_v I I I I #
coedge $-1 $153 $154 $155 $156 reversed $60 $-1 #
face $-1 $-1 $157 $34 $-1 $158 forward single #
loop $-1 $159 $160 $62 #
cone-surface $-1 32.877544653650418 18.706386540834387 2.1599503701754337 0 -0.5877852598018023 -0.80901698891910034 0.75 0 0 1 I I -0.70710678118654757 0.70710678118654757 0.75 forward I I I I #
loop $-1 $-1 $161 $44 #
coedge $-1 $100 $100 $162 $163 reversed $63 $-1 #
face $-1 $-1 $164 $35 $-1 $165 forward single #
loop $-1 $166 $167 $65 #
cone-surface $-1 38.548785308831967 18.706386540834387 2.1599503701754337 0 -0.5877852598018023 -0.80901698891910034 0.75 0 0 1 I I -0.70710678118654757 0.70710678118654757 0.75 forward I I I I #
loop $-1 $-1 $168 $45 #
coedge $-1 $105 $105 $169 $170 reversed $66 $-1 #
face $-1 $-1 $171 $36 $-1 $172 forward single #
loop $-1 $173 $174 $68 #
cone-surface $-1 44.220025964013516 18.706386540834387 2.1599503701754337 0 -0.5877852598018023 -0.80901698891910034 0.75 0 0 1 I I -0.70710678118654757 0.70710678118654757 0.75 forward I I I I #
loop $-1 $-1 $175 $46 #
coedge $-1 $110 $110 $176 $177 reversed $69 $-1 #
face $-1 $178 $179 $37 $-1 $180 reversed single #
loop $-1 $-1 $181 $71 #
plane-surface $-1 -21.686066818461285 -25.636632469211591 3.5218675379613131 0 -0.81915205242281985 0.57357642473473569 1 0 0 forward_v I I I I #
coedge $-1 $182 $183 $184 $185 reversed $72 $-1 #
face $-1 $-1 $186 $38 $-1 $187 forward single #
loop $-1 $188 $189 $74 #
cone-surface $-1 -27.743718432132848 -22.982498116760997 5.1330557987814736 0 0.81915205242281985 -0.57357642473473569 0.25 0 0 1 I I -0.70710678118654746 0.70710678118654746 0.25 forward I I I I #
loop $-1 $-1 $190 $48 #
coedge $-1 $119 $119 $191 $192 reversed $75 $-1 #
face $-1 $-1 $193 $39 $-1 $194 forward single #
loop $-1 $195 $196 $77 #
cone-surface $-1 -15.628415204789732 -22.982498116760997 5.1330557987814736 0 0.81915205242281985 -0.57357642473473569 0.25 0 0 1 I I -0.70710678118654746 0.70710678118654746 0.25 forward I I I I #
loop $-1 $-1 $197 $49 #
coedge $-1 $124 $124 $198 $199 reversed $78 $-1 #
face $-1 $200 $201 $30 $-1 $202 reversed single #
loop $-1 $-1 $203 $80 #
plane-surface $-1 0 0 8.1781851214384851 0 0 1 1 0 0 forward_v I I I I #
coedge $-1 $204 $205 $206 $207 reversed $81 $-1 #
coedge $-1 $208 $83 $209 $210 reversed $51 $-1 #
coedge $-1 $83 $208 $211 $212 forward $51 $-1 #
coedge $-1 $213 $214 $83 $132 forward $201 $-1 #
edge $-1 $215 -25.636632469211584 $216 25.636632469211584 $83 $217 forward 7 unknown #
face $-1 $218 $219 $31 $-1 $220 reversed single #
loop $-1 $-1 $221 $84 #
plane-surface $-1 -62.092899068243675 -21.948320100968115 0 0 1 0 0 0 1 forward_v I I I I #
coedge $-1 $222 $223 $138 $224 forward $85 $-1 #
coedge $-1 $225 $87 $226 $227 reversed $54 $-1 #
coedge $-1 $87 $225 $136 $224 reversed $54 $-1 #
coedge $-1 $228 $229 $87 $140 reversed $230 $-1 #
edge $-1 $231 -8.1781851214384851 $232 8.1781851214384851 $139 $233 forward 7 unknown #
face $-1 $234 $235 $32 $-1 $236 reversed single #
loop $-1 $-1 $147 $88 #
plane-surface $-1 62.092899068243682 -21.948320100968115 0 0 1 0 0 0 1 forward_v I I I I #
coedge $-1 $237 $238 $146 $239 forward $89 $-1 #
coedge $-1 $240 $91 $241 $242 reversed $57 $-1 #
coedge $-1 $91 $240 $144 $239 reversed $57 $-1 #
coedge $-1 $243 $244 $91 $148 reversed $142 $-1 #
edge $-1 $245 -8.1781851214384851 $246 8.1781851214384851 $147 $247 forward 7 unknown #
face $-1 $248 $249 $33 $-1 $250 reversed single #
loop $-1 $-1 $251 $92 #
plane-surface $-1 48.000853067467879 51.628207064889942 123.31188317168481 -1 0 0 0 0.5877852598018023 0.80901698891910034 forward_v I I I I #
coedge $-1 $252 $253 $254 $255 reversed $93 $-1 #
coedge $-1 $154 $95 $256 $257 reversed $60 $-1 #
coedge $-1 $95 $153 $252 $258 reversed $60 $-1 #
coedge $-1 $254 $259 $95 $156 forward $260 $-1 #
edge $-1 $261 0.17747106323338713 $262 11.012242011171619 $155 $263 forward 7 unknown #
loop $-1 $-1 $162 $96 #
plane-surface $-1 38.548785308831967 -15.844309943322806 30.443932445626658 0 0.5877852598018023 0.80901698891910034 1 0 0 forward_v I I I I #
loop $-1 $-1 $264 $62 #
coedge $-1 $160 $160 $161 $265 reversed $97 $-1 #
coedge $-1 $161 $161 $160 $265 forward $99 $-1 #
coedge $-1 $162 $162 $100 $163 forward $157 $-1 #
edge $-1 $266 1.5680983598273928e-015 $266 6.2831853071796022 $162 $267 forward 7 unknown #
loop $-1 $-1 $169 $101 #
plane-surface $-1 38.548785308831967 -15.844309943322806 30.443932445626658 0 0.5877852598018023 0.80901698891910034 1 0 0 forward_v I I I I #
loop $-1 $-1 $268 $65 #
coedge $-1 $167 $167 $168 $269 reversed $102 $-1 #
coedge $-1 $168 $168 $167 $269 forward $104 $-1 #
coedge $-1 $169 $169 $105 $170 forward $164 $-1 #
edge $-1 $270 1.5680983598273928e-015 $270 6.2831853071796022 $169 $271 forward 7 unknown #
loop $-1 $-1 $176 $106 #
plane-surface $-1 38.548785308831967 -15.844309943322806 30.443932445626658 0 0.5877852598018023 0.80901698891910034 1 0 0 forward_v I I I I #
loop $-1 $-1 $272 $68 #
coedge $-1 $174 $174 $175 $273 reversed $107 $-1 #
coedge $-1 $175 $175 $174 $273 forward $109 $-1 #
coedge $-1 $176 $176 $110 $177 forward $171 $-1 #
edge $-1 $274 1.5680983598273928e-015 $274 6.2831853071796022 $176 $275 forward 7 unknown #
face $-1 $276 $277 $37 $-1 $278 forward single #
loop $-1 $-1 $279 $111 #
plane-surface $-1 -35.820587250361584 -119.66799829156633 69.363336727702375 1 0 0 0 0.81915205242281985 -0.57357642473473569 forward_v I I I I #
coedge $-1 $280 $281 $282 $283 reversed $112 $-1 #
coedge $-1 $183 $114 $284 $285 reversed $72 $-1 #
coedge $-1 $114 $182 $280 $286 reversed $72 $-1 #
coedge $-1 $282 $287 $114 $185 forward $277 $-1 #
edge $-1 $288 34.197366676571583 $289 37.457755250415694 $184 $290 forward 7 unknown #
loop $-1 $-1 $191 $115 #
plane-surface $-1 -21.686066818461285 -25.636632469211591 3.5218675379613131 0 -0.81915205242281985 0.57357642473473569 1 0 0 forward_v I I I I #
loop $-1 $-1 $291 $74 #
coedge $-1 $189 $189 $190 $292 reversed $116 $-1 #
coedge $-1 $190 $190 $189 $292 forward $118 $-1 #
coedge $-1 $191 $191 $119 $192 forward $186 $-1 #
edge $-1 $293 5.8566605331526036e-016 $293 6.2831853071796013 $191 $294 forward 7 unknown #
loop $-1 $-1 $198 $120 #
plane-surface $-1 -21.686066818461285 -25.636632469211591 3.5218675379613131 0 -0.81915205242281985 0.57357642473473569 1 0 0 forward_v I I I I #
loop $-1 $-1 $295 $77 #
coedge $-1 $196 $196 $197 $296 reversed $121 $-1 #
coedge $-1 $197 $197 $196 $296 forward $123 $-1 #
coedge $-1 $198 $198 $124 $199 forward $193 $-1 #
edge $-1 $297 5.8566605331526036e-016 $297 6.2831853071796013 $198 $298 forward 7 unknown #
face $-1 $299 $300 $30 $-1 $301 reversed single #
loop $-1 $-1 $131 $125 #
plane-surface $-1 0 0 -8.1781851214384851 0 0 1 1 0 0 forward_v I I I I #
coedge $-1 $302 $303 $208 $304 forward $126 $-1 #
coedge $-1 $305 $128 $306 $307 reversed $81 $-1 #
coedge $-1 $128 $305 $308 $309 forward $81 $-1 #
coedge $-1 $214 $213 $128 $207 forward $201 $-1 #
edge $-1 $310 -25.636632469211584 $311 25.636632469211584 $128 $312 forward 7 unknown #
coedge $-1 $130 $129 $203 $304 reversed $51 $-1 #
coedge $-1 $313 $314 $129 $210 forward $315 $-1 #
edge $-1 $316 -8.1781851214384851 $215 8.1781851214384851 $129 $317 forward 7 unknown #
coedge $-1 $318 $319 $130 $212 reversed $300 $-1 #
edge $-1 $320 -8.1781851214384851 $216 8.1781851214384851 $130 $321 forward 7 unknown #
coedge $-1 $206 $131 $319 $322 forward $201 $-1 #
coedge $-1 $131 $206 $313 $323 forward $201 $-1 #
vertex $-1 $132 $324 #
vertex $-1 $212 $325 #
straight-curve $-1 57.395550401318403 0 -8.1781851214384851 0 -1 0 I I #
face $-1 $326 $230 $31 $-1 $327 reversed single #
loop $-1 $-1 $328 $133 #
plane-surface $-1 -66.790247735168947 -20.226750609951353 0 1 0 0 0 0 -1 forward_v I I I I #
coedge $-1 $329 $330 $331 $332 forward $134 $-1 #
coedge $-1 $333 $136 $329 $334 forward $85 $-1 #
coedge $-1 $136 $333 $228 $335 forward $85 $-1 #
edge $-1 $231 18.505181118934591 $336 21.948320100968115 $136 $337 forward 7 unknown #
coedge $-1 $138 $137 $338 $339 forward $54 $-1 #
coedge $-1 $340 $341 $137 $227 forward $342 $-1 #
edge $-1 $343 -21.948320100968115 $232 -18.505181118934591 $226 $344 forward 7 unknown #
coedge $-1 $345 $139 $223 $335 reversed $230 $-1 #
coedge $-1 $139 $345 $340 $346 reversed $230 $-1 #
loop $-1 $-1 $139 $218 #
vertex $-1 $224 $347 #
vertex $-1 $346 $348 #
straight-curve $-1 -57.395550401318403 -18.505181118934591 0 0 0 1 I I #
face $-1 $349 $350 $32 $-1 $351 reversed single #
loop $-1 $-1 $352 $141 #
plane-surface $-1 62.092899068243682 -18.505181118934591 0 0 -1 0 0 0 -1 forward_v I I I I #
coedge $-1 $353 $144 $354 $355 forward $89 $-1 #
coedge $-1 $144 $353 $243 $356 forward $89 $-1 #
edge $-1 $245 -21.948320100968115 $357 -18.505181118934591 $144 $358 forward 7 unknown #
coedge $-1 $146 $145 $359 $360 forward $57 $-1 #
coedge $-1 $361 $362 $145 $242 forward $363 $-1 #
edge $-1 $364 18.505181118934591 $246 21.948320100968115 $241 $365 forward 7 unknown #
coedge $-1 $366 $147 $238 $356 reversed $142 $-1 #
coedge $-1 $147 $366 $361 $367 reversed $142 $-1 #
vertex $-1 $239 $368 #
vertex $-1 $367 $369 #
straight-curve $-1 57.395550401318403 -21.948320100968115 0 0 0 1 I I #
face $-1 $-1 $260 $33 $-1 $370 forward single #
loop $-1 $-1 $371 $149 #
plane-surface $-1 0 25.636632469211584 0 0 -1 0 0 0 -1 forward_v I I I I #
coedge $-1 $372 $373 $374 $375 reversed $150 $-1 #
coedge $-1 $376 $152 $154 $258 forward $93 $-1 #
coedge $-1 $152 $376 $372 $377 forward $93 $-1 #
coedge $-1 $374 $155 $152 $255 forward $260 $-1 #
edge $-1 $262 9.8223248957800706 $378 28.726460413051896 $254 $379 forward 7 unknown #
coedge $-1 $380 $381 $153 $257 forward $249 $-1 #
edge $-1 $382 -61.34967849293345 $261 -53.477756464403924 $256 $383 forward 7 unknown #
edge $-1 $262 37.88075143581527 $382 51.273264938423161 $154 $384 forward 7 unknown #
coedge $-1 $155 $374 $380 $385 forward $260 $-1 #
loop $-1 $-1 $374 $248 #
vertex $-1 $257 $386 #
vertex $-1 $156 $387 #
straight-curve $-1 29.096717550196054 25.814103532444971 8.1781851214384886 0 -1 0 I I #
coedge $-1 $264 $264 $-1 $388 reversed $159 $-1 #
edge $-1 $389 0 $389 6.2831853071796004 $160 $390 forward 7 unknown #
vertex $-1 $163 $391 #
ellipse-curve $-1 32.877544653650418 20.219246995242468 4.2422241071737217 0 0.5877852598018023 0.80901698891910034 1.5 0 0 1 I I #
coedge $-1 $268 $268 $-1 $392 reversed $166 $-1 #
edge $-1 $393 0 $393 6.2831853071796004 $167 $394 forward 7 unknown #
vertex $-1 $170 $395 #
ellipse-curve $-1 38.548785308831967 20.219246995242468 4.2422241071737217 0 0.5877852598018023 0.80901698891910034 1.5 0 0 1 I I #
coedge $-1 $272 $272 $-1 $396 reversed $173 $-1 #
edge $-1 $397 0 $397 6.2831853071796004 $174 $398 forward 7 unknown #
vertex $-1 $177 $399 #
ellipse-curve $-1 44.220025964013516 20.219246995242468 4.2422241071737217 0 0.5877852598018023 0.80901698891910034 1.5 0 0 1 I I #
face $-1 $-1 $400 $37 $-1 $401 reversed single #
loop $-1 $-1 $184 $178 #
plane-surface $-1 0 0 8.1781851214384851 0 0 1 1 0 0 forward_v I I I I #
coedge $-1 $402 $403 $404 $405 reversed $179 $-1 #
coedge $-1 $406 $181 $183 $286 forward $112 $-1 #
coedge $-1 $181 $406 $402 $407 forward $112 $-1 #
coedge $-1 $404 $184 $181 $283 forward $277 $-1 #
edge $-1 $289 -3.29148702266966 $408 24.977553841130941 $282 $409 forward 7 unknown #
coedge $-1 $410 $411 $182 $285 forward $400 $-1 #
edge $-1 $412 -31.159800825889864 $288 -26.503483242412702 $284 $413 forward 7 unknown #
edge $-1 $289 -5.6843141266692827 $412 -1.2442367137257826e-014 $183 $414 forward 7 unknown #
coedge $-1 $184 $404 $410 $415 forward $277 $-1 #
vertex $-1 $185 $416 #
vertex $-1 $185 $417 #
straight-curve $-1 -7.5515463865609824 -59.833999145783167 8.1781851214384851 0 1 0 I I #
coedge $-1 $291 $291 $-1 $418 reversed $188 $-1 #
edge $-1 $419 0 $419 6.2831853071796004 $189 $420 forward 7 unknown #
vertex $-1 $192 $421 #
ellipse-curve $-1 -27.743718432132848 -24.006438182289532 5.8500263296999 0 -0.81915205242281985 0.57357642473473569 0.5 0 0 1 I I #
coedge $-1 $295 $295 $-1 $422 reversed $195 $-1 #
edge $-1 $423 0 $423 6.2831853071796004 $196 $424 forward 7 unknown #
vertex $-1 $199 $425 #
ellipse-curve $-1 -15.628415204789732 -24.006438182289532 5.8500263296999 0 -0.81915205242281985 0.57357642473473569 0.5 0 0 1 I I #
face $-1 $-1 $315 $30 $-1 $426 reversed single #
loop $-1 $-1 $306 $200 #
plane-surface $-1 0 -25.636632469211584 0 0 1 0 0 0 1 forward_v I I I I #
coedge $-1 $427 $203 $314 $428 forward $126 $-1 #
coedge $-1 $203 $427 $318 $429 forward $126 $-1 #
edge $-1 $320 -25.636632469211584 $316 25.636632469211584 $208 $430 forward 7 unknown #
coedge $-1 $205 $204 $427 $431 reversed $81 $-1 #
coedge $-1 $319 $318 $204 $307 forward $300 $-1 #
edge $-1 $432 -8.1781851214384851 $310 8.1781851214384851 $204 $433 forward 7 unknown #
coedge $-1 $314 $313 $205 $309 reversed $315 $-1 #
edge $-1 $434 -8.1781851214384851 $311 8.1781851214384851 $308 $435 forward 7 unknown #
vertex $-1 $207 $436 #
vertex $-1 $323 $437 #
straight-curve $-1 -57.395550401318403 0 -8.1781851214384851 0 1 0 I I #
coedge $-1 $308 $209 $214 $323 reversed $315 $-1 #
coedge $-1 $209 $308 $302 $428 reversed $315 $-1 #
loop $-1 $-1 $209 $299 #
vertex $-1 $304 $438 #
straight-curve $-1 57.395550401318403 25.636632469211584 0 0 0 -1 I I #
coedge $-1 $306 $211 $303 $429 reversed $300 $-1 #
coedge $-1 $211 $306 $213 $322 reversed $300 $-1 #
vertex $-1 $304 $439 #
straight-curve $-1 57.395550401318403 -25.636632469211584 0 0 0 -1 I I #
edge $-1 $216 -57.395550401318403 $310 57.395550401318403 $319 $440 forward 7 unknown #
edge $-1 $311 -57.395550401318403 $215 57.395550401318403 $313 $441 forward 7 unknown #
point $-1 57.395550401318403 25.636632469211584 -8.1781851214384851 #
point $-1 57.395550401318403 -25.636632469211584 -8.1781851214384851 #
face $-1 $-1 $342 $31 $-1 $442 forward single #
plane-surface $-1 -62.092899068243675 -18.505181118934591 0 0 -1 0 0 0 -1 forward_v I I I I #
coedge $-1 $443 $444 $345 $445 forward $219 $-1 #
coedge $-1 $338 $221 $222 $334 reversed $134 $-1 #
coedge $-1 $221 $338 $341 $446 reversed $134 $-1 #
coedge $-1 $444 $443 $221 $332 reversed $219 $-1 #
edge $-1 $447 -8.1781851214384851 $448 8.1781851214384851 $331 $449 forward 7 unknown #
coedge $-1 $223 $222 $443 $450 forward $85 $-1 #
edge $-1 $336 -4.6973486669252722 $448 4.6973486669252722 $329 $451 forward 7 unknown #
edge $-1 $452 -4.6973486669252722 $231 4.6973486669252722 $228 $453 forward 7 unknown #
vertex $-1 $334 $454 #
straight-curve $-1 -57.395550401318403 0 -8.1781851214384851 0 -1 0 I I #
coedge $-1 $330 $329 $225 $339 reversed $134 $-1 #
edge $-1 $343 -8.1781851214384851 $336 8.1781851214384851 $338 $455 forward 7 unknown #
coedge $-1 $456 $226 $229 $346 forward $342 $-1 #
coedge $-1 $226 $456 $330 $446 forward $342 $-1 #
loop $-1 $-1 $226 $326 #
vertex $-1 $227 $457 #
straight-curve $-1 -57.395550401318403 0 8.1781851214384851 0 1 0 I I #
coedge $-1 $229 $228 $328 $445 reversed $230 $-1 #
edge $-1 $232 -4.6973486669252722 $458 4.6973486669252722 $229 $459 forward 7 unknown #
point $-1 -57.395550401318403 -18.505181118934591 -8.1781851214384851 #
point $-1 -57.395550401318403 -18.505181118934591 8.1781851214384851 #
face $-1 $-1 $363 $32 $-1 $460 forward single #
loop $-1 $-1 $461 $234 #
plane-surface $-1 66.790247735168947 -20.226750609951353 0 -1 0 0 0 0 1 forward_v I I I I #
coedge $-1 $354 $462 $463 $464 forward $235 $-1 #
coedge $-1 $238 $237 $465 $466 forward $89 $-1 #
coedge $-1 $359 $352 $237 $355 reversed $235 $-1 #
edge $-1 $357 -4.6973486669252722 $467 4.6973486669252651 $354 $468 forward 7 unknown #
edge $-1 $469 -4.6973486669252651 $245 4.6973486669252722 $243 $470 forward 7 unknown #
vertex $-1 $355 $471 #
straight-curve $-1 57.395550401318403 0 -8.1781851214384851 0 1 0 I I #
coedge $-1 $462 $354 $240 $360 reversed $235 $-1 #
edge $-1 $364 -8.1781851214384851 $357 8.1781851214384851 $359 $472 forward 7 unknown #
coedge $-1 $473 $241 $244 $367 forward $363 $-1 #
coedge $-1 $241 $473 $462 $474 forward $363 $-1 #
loop $-1 $-1 $241 $349 #
vertex $-1 $242 $475 #
straight-curve $-1 57.395550401318403 0 8.1781851214384851 0 -1 0 I I #
coedge $-1 $244 $243 $461 $476 reversed $142 $-1 #
edge $-1 $246 -4.6973486669252722 $477 4.6973486669252651 $244 $478 forward 7 unknown #
point $-1 57.39555040131841 -21.948320100968115 -8.1781851214384851 #
point $-1 57.39555040131841 -21.948320100968115 8.1781851214384851 #
plane-surface $-1 0 0 8.1781851214384851 0 0 1 1 0 0 forward_v I I I I #
coedge $-1 $381 $380 $373 $479 forward $249 $-1 #
coedge $-1 $373 $251 $253 $377 reversed $150 $-1 #
coedge $-1 $251 $372 $371 $479 reversed $150 $-1 #
coedge $-1 $259 $254 $251 $375 forward $260 $-1 #
edge $-1 $378 -11.012242011171619 $480 -0.17747106323338713 $374 $481 forward 7 unknown #
coedge $-1 $253 $252 $381 $482 reversed $93 $-1 #
edge $-1 $483 -51.273264938423161 $378 -37.88075143581527 $372 $484 forward 7 unknown #
vertex $-1 $255 $485 #
straight-curve $-1 19.274392654415983 14.801861521273345 8.1781851214384869 1 0 0 I I #
coedge $-1 $371 $256 $259 $385 reversed $249 $-1 #
coedge $-1 $256 $371 $376 $482 forward $249 $-1 #
vertex $-1 $257 $486 #
straight-curve $-1 29.096717550196054 25.636632469211584 61.655941585842406 0 0 1 I I #
straight-curve $-1 29.096717550196054 -15.844309943322806 30.443932445626658 0 0.80901698891910034 -0.5877852598018023 I I #
edge $-1 $480 -48.000853067467879 $261 -29.096717550196054 $380 $487 forward 7 unknown #
point $-1 29.096717550196054 25.636632469211584 8.1781851214384851 #
point $-1 29.096717550196054 14.801861521273352 8.1781851214384851 #
edge $-1 $488 1 $488 0 $264 $-1 forward 7 unknown #
vertex $-1 $265 $489 #
ellipse-curve $-1 32.877544653650418 19.147225485685738 2.766713111864759 0 0.5877852598018023 0.80901698891910034 1.5 0 0 1 I I #
point $-1 34.377544653650418 20.219246995242472 4.2422241071737226 #
edge $-1 $490 1 $490 0 $268 $-1 forward 7 unknown #
vertex $-1 $269 $491 #
ellipse-curve $-1 38.548785308831967 19.147225485685738 2.766713111864759 0 0.5877852598018023 0.80901698891910034 1.5 0 0 1 I I #
point $-1 40.048785308831967 20.219246995242472 4.2422241071737226 #
edge $-1 $492 1 $492 0 $272 $-1 forward 7 unknown #
vertex $-1 $273 $493 #
ellipse-curve $-1 44.220025964013516 19.147225485685738 2.766713111864759 0 0.5877852598018023 0.80901698891910034 1.5 0 0 1 I I #
point $-1 45.720025964013516 20.219246995242472 4.2422241071737226 #
loop $-1 $-1 $284 $276 #
plane-surface $-1 0 -25.636632469211584 0 0 1 0 0 0 1 forward_v I I I I #
coedge $-1 $403 $279 $281 $407 reversed $179 $-1 #
coedge $-1 $279 $402 $494 $495 reversed $179 $-1 #
coedge $-1 $287 $282 $279 $405 forward $277 $-1 #
edge $-1 $408 -37.457755250415694 $496 -34.197366676571583 $404 $497 forward 7 unknown #
coedge $-1 $281 $280 $411 $498 reversed $112 $-1 #
edge $-1 $499 1.2442367137257826e-014 $408 5.6843141266692827 $402 $500 forward 7 unknown #
vertex $-1 $283 $501 #
straight-curve $-1 -10.843033409230642 -22.376243895367473 8.1781851214384851 -1 0 0 I I #
coedge $-1 $494 $284 $287 $415 reversed $400 $-1 #
coedge $-1 $284 $494 $406 $498 forward $400 $-1 #
vertex $-1 $285 $502 #
straight-curve $-1 -7.5515463865609824 -25.636632469211584 34.681668363851188 0 0 1 I I #
straight-curve $-1 -7.5515463865609824 -25.636632469211591 3.5218675379613131 0 -0.57357642473473569 -0.81915205242281985 I I #
edge $-1 $496 -35.820587250361584 $288 -7.5515463865609824 $410 $503 forward 7 unknown #
point $-1 -7.5515463865609824 -25.636632469211584 8.1781851214384851 #
point $-1 -7.5515463865609824 -22.376243895367473 8.1781851214384851 #
edge $-1 $504 1 $504 0 $291 $-1 forward 7 unknown #
vertex $-1 $292 $505 #
ellipse-curve $-1 -27.743718432132848 -23.187286129866703 5.2764499049651574 0 -0.81915205242281985 0.57357642473473569 0.5 0 0 1 I I #
point $-1 -27.243718432132848 -24.006438182289521 5.8500263296998929 #
edge $-1 $506 1 $506 0 $295 $-1 forward 7 unknown #
vertex $-1 $296 $507 #
ellipse-curve $-1 -15.628415204789732 -23.187286129866703 5.2764499049651574 0 -0.81915205242281985 0.57357642473473569 0.5 0 0 1 I I #
point $-1 -15.128415204789732 -24.006438182289521 5.8500263296998929 #
plane-surface $-1 0 25.636632469211584 0 0 -1 0 0 0 -1 forward_v I I I I #
coedge $-1 $303 $302 $305 $431 forward $126 $-1 #
edge $-1 $316 -57.395550401318403 $434 57.395550401318403 $314 $508 forward 7 unknown #
edge $-1 $432 -57.395550401318403 $320 57.395550401318403 $318 $509 forward 7 unknown #
straight-curve $-1 57.395550401318403 0 8.1781851214384851 0 1 0 I I #
edge $-1 $434 -25.636632469211584 $432 25.636632469211584 $305 $510 forward 7 unknown #
vertex $-1 $431 $511 #
straight-curve $-1 -57.395550401318403 -25.636632469211584 0 0 0 -1 I I #
vertex $-1 $428 $512 #
straight-curve $-1 -57.395550401318403 25.636632469211584 0 0 0 -1 I I #
point $-1 -57.395550401318403 -25.636632469211584 -8.1781851214384851 #
point $-1 -57.395550401318403 25.636632469211584 -8.1781851214384851 #
point $-1 57.395550401318403 25.636632469211584 8.1781851214384851 #
point $-1 57.395550401318403 -25.636632469211584 8.1781851214384851 #
straight-curve $-1 0 -25.636632469211584 -8.1781851214384851 -1 0 0 I I #
straight-curve $-1 0 25.636632469211584 -8.1781851214384851 1 0 0 I I #
plane-surface $-1 0 0 8.1781851214384851 0 0 1 1 0 0 forward_v I I I I #
coedge $-1 $331 $328 $333 $450 reversed $219 $-1 #
coedge $-1 $328 $331 $456 $513 reversed $219 $-1 #
edge $-1 $458 -8.1781851214384851 $452 8.1781851214384851 $345 $514 forward 7 unknown #
edge $-1 $447 -4.6973486669252722 $343 4.6973486669252722 $330 $515 forward 7 unknown #
vertex $-1 $513 $516 #
vertex $-1 $450 $517 #
straight-curve $-1 -66.790247735168947 -21.948320100968115 0 0 0 -1 I I #
edge $-1 $448 -1.721569491016762 $452 1.721569491016762 $443 $518 forward 7 unknown #
straight-curve $-1 -62.092899068243675 -21.948320100968115 -8.1781851214384851 -1 0 0 I I #
vertex $-1 $335 $519 #
straight-curve $-1 -62.092899068243675 -18.505181118934591 -8.1781851214384851 1 0 0 I I #
point $-1 -57.395550401318403 -21.948320100968115 -8.1781851214384851 #
straight-curve $-1 -57.395550401318403 -21.948320100968115 0 0 0 -1 I I #
coedge $-1 $341 $340 $444 $513 forward $342 $-1 #
point $-1 -57.395550401318403 -21.948320100968115 8.1781851214384851 #
vertex $-1 $346 $520 #
straight-curve $-1 -62.092899068243675 -18.505181118934591 8.1781851214384851 -1 0 0 I I #
plane-surface $-1 0 0 8.1781851214384851 0 0 1 1 0 0 forward_v I I I I #
coedge $-1 $465 $521 $366 $476 forward $350 $-1 #
coedge $-1 $352 $359 $362 $474 reversed $235 $-1 #
coedge $-1 $521 $465 $352 $464 reversed $350 $-1 #
edge $-1 $522 -8.1781851214384851 $467 8.1781851214384851 $463 $523 forward 7 unknown #
coedge $-1 $463 $461 $353 $466 reversed $350 $-1 #
edge $-1 $467 -1.721569491016762 $469 1.721569491016762 $465 $524 forward 7 unknown #
vertex $-1 $466 $525 #
straight-curve $-1 62.092899068243682 -18.505181118934591 -8.1781851214384851 1 0 0 I I #
vertex $-1 $476 $526 #
straight-curve $-1 62.092899068243682 -21.948320100968115 -8.1781851214384851 -1 0 0 I I #
point $-1 57.39555040131841 -18.505181118934591 -8.1781851214384851 #
straight-curve $-1 57.395550401318403 -18.505181118934591 0 0 0 -1 I I #
coedge $-1 $362 $361 $521 $527 forward $363 $-1 #
edge $-1 $522 -4.6973486669252651 $364 4.6973486669252722 $462 $528 forward 7 unknown #
point $-1 57.39555040131841 -18.505181118934591 8.1781851214384851 #
edge $-1 $477 -8.1781851214384851 $469 8.1781851214384851 $461 $529 forward 7 unknown #
vertex $-1 $527 $530 #
straight-curve $-1 62.092899068243682 -21.948320100968115 8.1781851214384851 1 0 0 I I #
edge $-1 $480 53.477756464403924 $483 61.34967849293345 $371 $531 forward 7 unknown #
vertex $-1 $385 $532 #
straight-curve $-1 48.000853067467879 25.814103532444971 8.1781851214384886 0 1 0 I I #
edge $-1 $483 -28.726460413051896 $382 -9.8223248957800706 $381 $533 forward 7 unknown #
vertex $-1 $482 $534 #
straight-curve $-1 48.000853067467879 -15.844309943322806 30.443932445626658 0 -0.80901698891910034 0.5877852598018023 I I #
point $-1 48.000853067467879 14.801861521273352 8.1781851214384851 #
point $-1 29.096717550196054 25.636632469211584 0.30626309290895648 #
straight-curve $-1 0 25.636632469211584 8.1781851214384851 -1 0 0 I I #
vertex $-1 $388 $535 #
point $-1 34.377544653650418 19.147225485685738 2.766713111864759 #
vertex $-1 $392 $536 #
point $-1 40.048785308831967 19.147225485685738 2.766713111864759 #
vertex $-1 $396 $537 #
point $-1 45.720025964013516 19.147225485685738 2.766713111864759 #
coedge $-1 $411 $410 $403 $495 forward $400 $-1 #
edge $-1 $496 26.503483242412702 $499 31.159800825889864 $494 $538 forward 7 unknown #
vertex $-1 $415 $539 #
straight-curve $-1 -35.820587250361584 -59.833999145783167 8.1781851214384851 0 -1 0 I I #
edge $-1 $499 -24.977553841130941 $412 3.29148702266966 $411 $540 forward 7 unknown #
vertex $-1 $498 $541 #
straight-curve $-1 -35.820587250361584 -25.636632469211591 3.5218675379613131 0 0.57357642473473569 0.81915205242281985 I I #
point $-1 -35.820587250361584 -22.376243895367473 8.1781851214384851 #
point $-1 -7.5515463865609824 -25.636632469211584 3.5218675379613233 #
straight-curve $-1 0 -25.636632469211584 8.1781851214384851 1 0 0 I I #
vertex $-1 $418 $542 #
point $-1 -27.243718432132848 -23.187286129866703 5.2764499049651574 #
vertex $-1 $422 $543 #
point $-1 -15.128415204789732 -23.187286129866703 5.2764499049651574 #
straight-curve $-1 0 25.636632469211584 8.1781851214384851 -1 0 0 I I #
straight-curve $-1 0 -25.636632469211584 8.1781851214384851 1 0 0 I I #
straight-curve $-1 -57.395550401318403 0 8.1781851214384851 0 -1 0 I I #
point $-1 -57.395550401318403 -25.636632469211584 8.1781851214384851 #
point $-1 -57.395550401318403 25.636632469211584 8.1781851214384851 #
edge $-1 $458 -1.721569491016762 $447 1.721569491016762 $444 $544 forward 7 unknown #
straight-curve $-1 -66.790247735168947 -18.505181118934591 0 0 0 -1 I I #
straight-curve $-1 -62.092899068243675 -21.948320100968115 8.1781851214384851 1 0 0 I I #
point $-1 -66.790247735168947 -21.948320100968115 8.1781851214384851 #
point $-1 -66.790247735168947 -21.948320100968115 -8.1781851214384851 #
straight-curve $-1 -66.790247735168947 -20.226750609951353 -8.1781851214384851 0 1 0 I I #
point $-1 -66.790247735168947 -18.505181118934591 -8.1781851214384851 #
point $-1 -66.790247735168947 -18.505181118934591 8.1781851214384851 #
coedge $-1 $461 $463 $473 $527 reversed $350 $-1 #
vertex $-1 $527 $545 #
straight-curve $-1 66.790247735168947 -18.505181118934591 0 0 0 -1 I I #
straight-curve $-1 66.790247735168947 -20.226750609951353 -8.1781851214384851 0 -1 0 I I #
point $-1 66.790247735168947 -18.505181118934591 -8.1781851214384851 #
point $-1 66.790247735168947 -21.948320100968115 -8.1781851214384851 #
edge $-1 $477 -1.721569491016762 $522 1.721569491016762 $521 $546 forward 7 unknown #
straight-curve $-1 62.092899068243682 -18.505181118934591 8.1781851214384851 -1 0 0 I I #
straight-curve $-1 66.790247735168947 -21.948320100968115 0 0 0 -1 I I #
point $-1 66.790247735168947 -21.948320100968115 8.1781851214384851 #
straight-curve $-1 48.000853067467879 25.636632469211584 61.655941585842406 0 0 -1 I I #
point $-1 48.000853067467879 25.636632469211584 8.1781851214384851 #
straight-curve $-1 19.274392654415983 25.636632469211584 0.30626309290895826 -1 0 0 I I #
point $-1 48.000853067467879 25.636632469211584 0.30626309290895648 #
point $-1 32.877544653650418 18.265547595983037 1.5531876284861084 #
point $-1 38.548785308831967 18.265547595983037 1.5531876284861084 #
point $-1 44.220025964013516 18.265547595983037 1.5531876284861084 #
straight-curve $-1 -35.820587250361584 -25.636632469211584 34.681668363851188 0 0 -1 I I #
point $-1 -35.820587250361584 -25.636632469211584 8.1781851214384851 #
straight-curve $-1 -10.843033409230642 -25.636632469211584 3.5218675379613233 1 0 0 I I #
point $-1 -35.820587250361584 -25.636632469211584 3.5218675379613233 #
point $-1 -27.743718432132848 -22.777710103655291 4.9896616925977897 #
point $-1 -15.628415204789732 -22.777710103655291 4.9896616925977897 #
straight-curve $-1 -66.790247735168947 -20.226750609951353 8.1781851214384851 0 -1 0 I I #
point $-1 66.790247735168947 -18.505181118934591 8.1781851214384851 #
straight-curve $-1 66.790247735168947 -20.226750609951353 8.1781851214384851 0 1 0 I I #
End-of-ACIS-data 