500 0 20 0           
7 Unknown 11 ACIS 5.0 NT 24 Thu Mar 25 19:52:57 1999 
-1 9.9999999999999995e-007 1e-010 
body $-1 $20 $-1 $21 #
body $-1 $22 $-1 $23 #
body $-1 $24 $-1 $25 #
body $-1 $26 $-1 $27 #
body $-1 $28 $-1 $29 #
body $-1 $30 $-1 $31 #
body $-1 $32 $-1 $33 #
body $-1 $34 $-1 $35 #
body $-1 $36 $-1 $37 #
body $-1 $38 $-1 $39 #
body $-1 $40 $-1 $41 #
body $-1 $42 $-1 $43 #
body $-1 $44 $-1 $45 #
body $-1 $46 $-1 $47 #
body $-1 $48 $-1 $49 #
body $-1 $50 $-1 $51 #
body $-1 $52 $-1 $53 #
body $-1 $54 $-1 $55 #
body $-1 $56 $-1 $57 #
body $-1 $58 $-1 $59 #
lump $-1 $-1 $60 $0 #
transform $-1 1 0 0 0 1 0 0 0 1 41.977599414044619 27.041070983360424 6.8963932580537755 1 rotate no_reflect no_shear #
lump $-1 $-1 $61 $1 #
transform $-1 1 0 0 0 1 0 0 0 1 41.977599414044619 27.041070983360424 6.8963932580537755 1 rotate no_reflect no_shear #
lump $-1 $-1 $62 $2 #
transform $-1 1 0 0 0 1 0 0 0 1 41.977599414044619 27.041070983360424 6.8963932580537755 1 rotate no_reflect no_shear #
lump $-1 $-1 $63 $3 #
transform $-1 1 0 0 0 1 0 0 0 1 41.977599414044619 27.041070983360424 6.8963932580537755 1 rotate no_reflect no_shear #
lump $-1 $-1 $64 $4 #
transform $-1 1 0 0 0 1 0 0 0 1 41.977599414044619 27.041070983360424 6.8963932580537755 1 rotate no_reflect no_shear #
lump $-1 $-1 $65 $5 #
transform $-1 1 0 0 0 1 0 0 0 1 41.977599414044619 27.041070983360424 6.8963932580537755 1 rotate no_reflect no_shear #
lump $-1 $-1 $66 $6 #
transform $-1 1 0 0 0 1 0 0 0 1 41.977599414044619 27.041070983360424 6.8963932580537755 1 rotate no_reflect no_shear #
lump $-1 $-1 $67 $7 #
transform $-1 1 0 0 0 1 0 0 0 1 41.977599414044619 27.041070983360424 6.8963932580537755 1 rotate no_reflect no_shear #
lump $-1 $-1 $68 $8 #
transform $-1 1 0 0 0 1 0 0 0 1 41.977599414044619 27.041070983360424 6.8963932580537755 1 rotate no_reflect no_shear #
lump $-1 $-1 $69 $9 #
transform $-1 1 0 0 0 1 0 0 0 1 41.977599414044619 27.041070983360424 6.8963932580537755 1 rotate no_reflect no_shear #
lump $-1 $-1 $70 $10 #
transform $-1 1 0 0 0 1 0 0 0 1 41.977599414044619 27.041070983360424 6.8963932580537755 1 rotate no_reflect no_shear #
lump $-1 $-1 $71 $11 #
transform $-1 1 0 0 0 1 0 0 0 1 41.977599414044619 27.041070983360424 6.8963932580537755 1 rotate no_reflect no_shear #
lump $-1 $-1 $72 $12 #
transform $-1 1 0 0 0 1 0 0 0 1 41.977599414044619 27.041070983360424 6.8963932580537755 1 rotate no_reflect no_shear #
lump $-1 $-1 $73 $13 #
transform $-1 1 0 0 0 1 0 0 0 1 41.977599414044619 27.041070983360424 6.8963932580537755 1 rotate no_reflect no_shear #
lump $-1 $-1 $74 $14 #
transform $-1 1 0 0 0 1 0 0 0 1 41.977599414044619 27.041070983360424 6.8963932580537755 1 rotate no_reflect no_shear #
lump $-1 $-1 $75 $15 #
transform $-1 1 0 0 0 1 0 0 0 1 41.977599414044619 27.041070983360424 6.8963932580537755 1 rotate no_reflect no_shear #
lump $-1 $-1 $76 $16 #
transform $-1 1 0 0 0 1 0 0 0 1 41.977599414044619 27.041070983360424 6.8963932580537755 1 rotate no_reflect no_shear #
lump $-1 $-1 $77 $17 #
transform $-1 1 0 0 0 1 0 0 0 1 41.977599414044619 27.041070983360424 6.8963932580537755 1 rotate no_reflect no_shear #
lump $-1 $-1 $78 $18 #
transform $-1 1 0 0 0 1 0 0 0 1 41.977599414044619 27.041070983360424 6.8963932580537755 1 rotate no_reflect no_shear #
lump $-1 $-1 $79 $19 #
transform $-1 1 0 0 0 1 0 0 0 1 41.977599414044619 27.041070983360424 6.8963932580537755 1 rotate no_reflect no_shear #
shell $-1 $-1 $-1 $80 $-1 $20 #
shell $-1 $-1 $-1 $81 $-1 $22 #
shell $-1 $-1 $-1 $82 $-1 $24 #
shell $-1 $-1 $-1 $83 $-1 $26 #
shell $-1 $-1 $-1 $84 $-1 $28 #
shell $-1 $-1 $-1 $85 $-1 $30 #
shell $-1 $-1 $-1 $86 $-1 $32 #
shell $-1 $-1 $-1 $87 $-1 $34 #
shell $-1 $-1 $-1 $88 $-1 $36 #
shell $-1 $-1 $-1 $89 $-1 $38 #
shell $-1 $-1 $-1 $90 $-1 $40 #
shell $-1 $-1 $-1 $91 $-1 $42 #
shell $-1 $-1 $-1 $92 $-1 $44 #
shell $-1 $-1 $-1 $93 $-1 $46 #
shell $-1 $-1 $-1 $94 $-1 $48 #
shell $-1 $-1 $-1 $95 $-1 $50 #
shell $-1 $-1 $-1 $96 $-1 $52 #
shell $-1 $-1 $-1 $97 $-1 $54 #
shell $-1 $-1 $-1 $98 $-1 $56 #
shell $-1 $-1 $-1 $99 $-1 $58 #
face $-1 $100 $101 $60 $-1 $102 forward single #
face $-1 $103 $104 $61 $-1 $105 reversed single #
face $-1 $106 $107 $62 $-1 $108 reversed single #
face $-1 $109 $110 $63 $-1 $111 forward single #
face $-1 $112 $113 $64 $-1 $114 forward single #
face $-1 $115 $116 $65 $-1 $117 forward single #
face $-1 $118 $119 $66 $-1 $120 reversed single #
face $-1 $121 $122 $67 $-1 $123 forward single #
face $-1 $124 $125 $68 $-1 $126 forward single #
face $-1 $127 $128 $69 $-1 $129 forward single #
face $-1 $130 $131 $70 $-1 $132 reversed single #
face $-1 $133 $134 $71 $-1 $135 forward single #
face $-1 $136 $137 $72 $-1 $138 forward single #
face $-1 $139 $140 $73 $-1 $141 forward single #
face $-1 $142 $143 $74 $-1 $144 reversed single #
face $-1 $145 $146 $75 $-1 $147 forward single #
face $-1 $148 $149 $76 $-1 $150 forward single #
face $-1 $151 $152 $77 $-1 $153 forward single #
face $-1 $154 $155 $78 $-1 $156 reversed single #
face $-1 $157 $158 $79 $-1 $159 forward single #
face $-1 $160 $161 $60 $-1 $162 reversed single #
loop $-1 $-1 $163 $80 #
plane-surface $-1 0 0 6.8963932580537755 0 0 1 1 0 0 forward_v I I I I #
face $-1 $164 $165 $61 $-1 $166 reversed single #
loop $-1 $-1 $167 $81 #
plane-surface $-1 -38.890146429789503 0 3.8963932580537755 0 0 1 1 0 0 forward_v I I I I #
face $-1 $168 $169 $62 $-1 $170 reversed single #
loop $-1 $-1 $171 $82 #
plane-surface $-1 -22.088461491453685 -93.1986711740863 53.131217019272796 -1 0 0 0 -0.78801076186113728 0.61566146476048833 forward_v I I I I #
face $-1 $172 $173 $63 $-1 $174 forward single #
loop $-1 $175 $176 $83 #
cone-surface $-1 -30.492255748377566 -24.51682909957653 3.8619840639033147 0 0.78801076186113728 -0.61566146476048833 0.5 0 0 1 I I 0 1 0.5 forward I I I I #
face $-1 $177 $178 $64 $-1 $179 forward single #
loop $-1 $180 $181 $84 #
cone-surface $-1 -27.34083290203111 -24.51682909957653 3.8619840639033147 0 0.78801076186113728 -0.61566146476048833 0.5 0 0 1 I I 0 1 0.5 forward I I I I #
face $-1 $182 $183 $65 $-1 $184 forward single #
loop $-1 $185 $186 $85 #
cone-surface $-1 -24.189410055684657 -24.51682909957653 3.8619840639033147 0 0.78801076186113728 -0.61566146476048833 0.5 0 0 1 I I 0 1 0.5 forward I I I I #
face $-1 $187 $188 $66 $-1 $189 reversed single #
loop $-1 $-1 $190 $86 #
plane-surface $-1 -1.8029375672628722 -93.1986711740863 53.131217019272796 -1 0 0 0 -0.78801076186113728 0.61566146476048833 forward_v I I I I #
face $-1 $191 $192 $67 $-1 $193 forward single #
loop $-1 $194 $195 $87 #
cone-surface $-1 -10.20673182418675 -24.51682909957653 3.8619840639033147 0 0.78801076186113728 -0.61566146476048833 0.5 0 0 1 I I 0 1 0.5 forward I I I I #
face $-1 $196 $197 $68 $-1 $198 forward single #
loop $-1 $199 $200 $88 #
cone-surface $-1 -7.0553089778402978 -24.51682909957653 3.8619840639033147 0 0.78801076186113728 -0.61566146476048833 0.5 0 0 1 I I 0 1 0.5 forward I I I I #
face $-1 $201 $202 $69 $-1 $203 forward single #
loop $-1 $204 $205 $89 #
cone-surface $-1 -3.9038861314938416 -24.51682909957653 3.8619840639033147 0 0.78801076186113728 -0.61566146476048833 0.5 0 0 1 I I 0 1 0.5 forward I I I I #
face $-1 $206 $207 $70 $-1 $208 reversed single #
loop $-1 $-1 $209 $90 #
plane-surface $-1 18.482586356927939 -93.1986711740863 53.131217019272796 -1 0 0 0 -0.78801076186113728 0.61566146476048833 forward_v I I I I #
face $-1 $210 $211 $71 $-1 $212 forward single #
loop $-1 $213 $214 $91 #
cone-surface $-1 10.078792100004065 -24.51682909957653 3.8619840639033147 0 0.78801076186113728 -0.61566146476048833 0.5 0 0 1 I I 0 1 0.5 forward I I I I #
face $-1 $215 $216 $72 $-1 $217 forward single #
loop $-1 $218 $219 $92 #
cone-surface $-1 13.230214946350515 -24.51682909957653 3.8619840639033147 0 0.78801076186113728 -0.61566146476048833 0.5 0 0 1 I I 0 1 0.5 forward I I I I #
face $-1 $220 $221 $73 $-1 $222 forward single #
loop $-1 $223 $224 $93 #
cone-surface $-1 16.381637792696978 -24.51682909957653 3.8619840639033147 0 0.78801076186113728 -0.61566146476048833 0.5 0 0 1 I I 0 1 0.5 forward I I I I #
face $-1 $225 $226 $74 $-1 $227 reversed single #
loop $-1 $-1 $228 $94 #
plane-surface $-1 38.768110281118751 -93.1986711740863 53.131217019272796 -1 0 0 0 -0.78801076186113728 0.61566146476048833 forward_v I I I I #
face $-1 $229 $230 $75 $-1 $231 forward single #
loop $-1 $232 $233 $95 #
cone-surface $-1 30.364316024194878 -24.51682909957653 3.8619840639033147 0 0.78801076186113728 -0.61566146476048833 0.5 0 0 1 I I 0 1 0.5 forward I I I I #
face $-1 $234 $235 $76 $-1 $236 forward single #
loop $-1 $237 $238 $96 #
cone-surface $-1 33.515738870541327 -24.51682909957653 3.8619840639033147 0 0.78801076186113728 -0.61566146476048833 0.5 0 0 1 I I 0 1 0.5 forward I I I I #
face $-1 $239 $240 $77 $-1 $241 forward single #
loop $-1 $242 $243 $97 #
cone-surface $-1 36.66716171688779 -24.51682909957653 3.8619840639033147 0 0.78801076186113728 -0.61566146476048833 0.5 0 0 1 I I 0 1 0.5 forward I I I I #
face $-1 $244 $245 $78 $-1 $246 reversed single #
loop $-1 $-1 $247 $98 #
plane-surface $-1 -10.279715899525973 23.923752118500101 103.13042933326057 1 0 0 0 -0.51503808176128008 -0.85716729658548041 forward_v I I I I #
face $-1 $248 $249 $79 $-1 $250 forward single #
loop $-1 $251 $252 $99 #
cone-surface $-1 -2.4645376044048177 23.590943263330587 4.3259249446824484 0 -0.51503808176128008 -0.85716729658548041 1 0 0 1 I I 0 1 1 forward I I I I #
face $-1 $253 $254 $60 $-1 $255 reversed single #
loop $-1 $-1 $256 $100 #
plane-surface $-1 0 0 -6.8963932580537755 0 0 1 1 0 0 forward_v I I I I #
coedge $-1 $257 $258 $259 $260 forward $101 $-1 #
face $-1 $261 $262 $61 $-1 $263 reversed single #
loop $-1 $-1 $264 $103 #
plane-surface $-1 -35.802693445534388 0 5.3963932580537755 -1 0 0 0 0 1 forward_v I I I I #
coedge $-1 $265 $266 $267 $268 forward $104 $-1 #
face $-1 $269 $270 $62 $-1 $271 reversed single #
loop $-1 $-1 $272 $106 #
plane-surface $-1 -27.34083290203111 -27.041070983360441 1.4432363345133439 0 -0.78801076186113728 0.61566146476048833 1 0 0 forward_v I I I I #
coedge $-1 $273 $274 $275 $276 reversed $107 $-1 #
face $-1 $-1 $277 $63 $-1 $278 forward single #
loop $-1 $279 $280 $109 #
cone-surface $-1 -30.492255748377566 -23.925821028180678 3.4002379653329484 0 0.78801076186113728 -0.61566146476048833 0.25 0 0 1 I I -0.70710678118654746 0.70710678118654746 0.25 forward I I I I #
loop $-1 $-1 $281 $83 #
coedge $-1 $176 $176 $282 $283 reversed $110 $-1 #
face $-1 $-1 $284 $64 $-1 $285 forward single #
loop $-1 $286 $287 $112 #
cone-surface $-1 -27.34083290203111 -23.925821028180678 3.4002379653329484 0 0.78801076186113728 -0.61566146476048833 0.25 0 0 1 I I -0.70710678118654746 0.70710678118654746 0.25 forward I I I I #
loop $-1 $-1 $288 $84 #
coedge $-1 $181 $181 $289 $290 reversed $113 $-1 #
face $-1 $-1 $291 $65 $-1 $292 forward single #
loop $-1 $293 $294 $115 #
cone-surface $-1 -24.189410055684657 -23.925821028180678 3.4002379653329484 0 0.78801076186113728 -0.61566146476048833 0.25 0 0 1 I I -0.70710678118654746 0.70710678118654746 0.25 forward I I I I #
loop $-1 $-1 $295 $85 #
coedge $-1 $186 $186 $296 $297 reversed $116 $-1 #
face $-1 $298 $299 $66 $-1 $300 reversed single #
loop $-1 $-1 $301 $118 #
plane-surface $-1 -7.0553089778402978 -27.041070983360441 1.4432363345133439 0 -0.78801076186113728 0.61566146476048833 1 0 0 forward_v I I I I #
coedge $-1 $302 $303 $304 $305 reversed $119 $-1 #
face $-1 $-1 $306 $67 $-1 $307 forward single #
loop $-1 $308 $309 $121 #
cone-surface $-1 -10.20673182418675 -23.925821028180678 3.4002379653329484 0 0.78801076186113728 -0.61566146476048833 0.25 0 0 1 I I -0.70710678118654746 0.70710678118654746 0.25 forward I I I I #
loop $-1 $-1 $310 $87 #
coedge $-1 $195 $195 $311 $312 reversed $122 $-1 #
face $-1 $-1 $313 $68 $-1 $314 forward single #
loop $-1 $315 $316 $124 #
cone-surface $-1 -7.0553089778402978 -23.925821028180678 3.4002379653329484 0 0.78801076186113728 -0.61566146476048833 0.25 0 0 1 I I -0.70710678118654746 0.70710678118654746 0.25 forward I I I I #
loop $-1 $-1 $317 $88 #
coedge $-1 $200 $200 $318 $319 reversed $125 $-1 #
face $-1 $-1 $320 $69 $-1 $321 forward single #
loop $-1 $322 $323 $127 #
cone-surface $-1 -3.9038861314938416 -23.925821028180678 3.4002379653329484 0 0.78801076186113728 -0.61566146476048833 0.25 0 0 1 I I -0.70710678118654746 0.70710678118654746 0.25 forward I I I I #
loop $-1 $-1 $324 $89 #
coedge $-1 $205 $205 $325 $326 reversed $128 $-1 #
face $-1 $327 $328 $70 $-1 $329 reversed single #
loop $-1 $-1 $330 $130 #
plane-surface $-1 13.230214946350515 -27.041070983360441 1.4432363345133439 0 -0.78801076186113728 0.61566146476048833 1 0 0 forward_v I I I I #
coedge $-1 $331 $332 $333 $334 reversed $131 $-1 #
face $-1 $-1 $335 $71 $-1 $336 forward single #
loop $-1 $337 $338 $133 #
cone-surface $-1 10.078792100004065 -23.925821028180678 3.4002379653329484 0 0.78801076186113728 -0.61566146476048833 0.25 0 0 1 I I -0.70710678118654746 0.70710678118654746 0.25 forward I I I I #
loop $-1 $-1 $339 $91 #
coedge $-1 $214 $214 $340 $341 reversed $134 $-1 #
face $-1 $-1 $342 $72 $-1 $343 forward single #
loop $-1 $344 $345 $136 #
cone-surface $-1 13.230214946350515 -23.925821028180678 3.4002379653329484 0 0.78801076186113728 -0.61566146476048833 0.25 0 0 1 I I -0.70710678118654746 0.70710678118654746 0.25 forward I I I I #
loop $-1 $-1 $346 $92 #
coedge $-1 $219 $219 $347 $348 reversed $137 $-1 #
face $-1 $-1 $349 $73 $-1 $350 forward single #
loop $-1 $351 $352 $139 #
cone-surface $-1 16.381637792696978 -23.925821028180678 3.4002379653329484 0 0.78801076186113728 -0.61566146476048833 0.25 0 0 1 I I -0.70710678118654746 0.70710678118654746 0.25 forward I I I I #
loop $-1 $-1 $353 $93 #
coedge $-1 $224 $224 $354 $355 reversed $140 $-1 #
face $-1 $356 $357 $74 $-1 $358 reversed single #
loop $-1 $-1 $359 $142 #
plane-surface $-1 33.515738870541327 -27.041070983360441 1.4432363345133439 0 -0.78801076186113728 0.61566146476048833 1 0 0 forward_v I I I I #
coedge $-1 $360 $361 $362 $363 reversed $143 $-1 #
face $-1 $-1 $364 $75 $-1 $365 forward single #
loop $-1 $366 $367 $145 #
cone-surface $-1 30.364316024194878 -23.925821028180678 3.4002379653329484 0 0.78801076186113728 -0.61566146476048833 0.25 0 0 1 I I -0.70710678118654746 0.70710678118654746 0.25 forward I I I I #
loop $-1 $-1 $368 $95 #
coedge $-1 $233 $233 $369 $370 reversed $146 $-1 #
face $-1 $-1 $371 $76 $-1 $372 forward single #
loop $-1 $373 $374 $148 #
cone-surface $-1 33.515738870541327 -23.925821028180678 3.4002379653329484 0 0.78801076186113728 -0.61566146476048833 0.25 0 0 1 I I -0.70710678118654746 0.70710678118654746 0.25 forward I I I I #
loop $-1 $-1 $375 $96 #
coedge $-1 $238 $238 $376 $377 reversed $149 $-1 #
face $-1 $-1 $378 $77 $-1 $379 forward single #
loop $-1 $380 $381 $151 #
cone-surface $-1 36.66716171688779 -23.925821028180678 3.4002379653329484 0 0.78801076186113728 -0.61566146476048833 0.25 0 0 1 I I -0.70710678118654746 0.70710678118654746 0.25 forward I I I I #
loop $-1 $-1 $382 $97 #
coedge $-1 $243 $243 $383 $384 reversed $152 $-1 #
face $-1 $385 $386 $78 $-1 $387 reversed single #
loop $-1 $-1 $388 $154 #
plane-surface $-1 -2.4645376044048177 -19.31637243980585 31.166778519490819 0 0.51503808176128008 0.85716729658548041 1 0 0 forward_v I I I I #
coedge $-1 $389 $390 $391 $392 reversed $155 $-1 #
face $-1 $-1 $393 $79 $-1 $394 forward single #
loop $-1 $395 $396 $157 #
cone-surface $-1 -2.4645376044048177 22.865666469981488 3.1188616803404106 0 -0.51503808176128008 -0.85716729658548041 0.5 0 0 1 I I -0.70710678118654746 0.70710678118654746 0.5 forward I I I I #
loop $-1 $-1 $397 $99 #
coedge $-1 $252 $252 $398 $399 reversed $158 $-1 #
face $-1 $400 $401 $60 $-1 $402 reversed single #
loop $-1 $-1 $403 $160 #
plane-surface $-1 0 -27.041070983360424 0 0 1 0 0 0 1 forward_v I I I I #
coedge $-1 $404 $405 $406 $407 forward $161 $-1 #
coedge $-1 $408 $163 $409 $410 forward $101 $-1 #
coedge $-1 $163 $408 $411 $412 forward $101 $-1 #
coedge $-1 $413 $414 $163 $260 reversed $415 $-1 #
edge $-1 $416 -27.041070983360424 $417 27.041070983360424 $259 $418 forward 7 unknown #
face $-1 $419 $420 $61 $-1 $421 reversed single #
loop $-1 $-1 $422 $164 #
plane-surface $-1 0 27.041070983360424 0 0 -1 0 0 0 -1 forward_v I I I I #
coedge $-1 $267 $423 $424 $425 reversed $165 $-1 #
coedge $-1 $426 $167 $427 $428 reversed $104 $-1 #
coedge $-1 $167 $426 $429 $430 reversed $104 $-1 #
coedge $-1 $431 $264 $167 $268 reversed $165 $-1 #
edge $-1 $432 -27.041070983360424 $433 27.041070983360424 $267 $434 forward 7 unknown #
face $-1 $435 $436 $62 $-1 $437 reversed single #
loop $-1 $-1 $438 $168 #
plane-surface $-1 -32.593204312608535 -93.1986711740863 53.131217019272796 1 0 0 0 0.78801076186113728 -0.61566146476048833 forward_v I I I I #
coedge $-1 $439 $440 $441 $442 reversed $169 $-1 #
coedge $-1 $274 $171 $443 $444 reversed $107 $-1 #
coedge $-1 $171 $273 $439 $445 reversed $107 $-1 #
coedge $-1 $441 $446 $171 $276 forward $447 $-1 #
edge $-1 $448 19.558264603682726 $449 23.818737609389352 $275 $450 forward 7 unknown #
loop $-1 $-1 $282 $172 #
plane-surface $-1 -27.34083290203111 -27.041070983360441 1.4432363345133439 0 -0.78801076186113728 0.61566146476048833 1 0 0 forward_v I I I I #
loop $-1 $-1 $451 $109 #
coedge $-1 $280 $280 $281 $452 reversed $173 $-1 #
coedge $-1 $281 $281 $280 $452 forward $175 $-1 #
coedge $-1 $282 $282 $176 $283 forward $277 $-1 #
edge $-1 $453 -6.9909672366991746e-016 $453 6.2831853071795996 $282 $454 forward 7 unknown #
loop $-1 $-1 $289 $177 #
plane-surface $-1 -27.34083290203111 -27.041070983360441 1.4432363345133439 0 -0.78801076186113728 0.61566146476048833 1 0 0 forward_v I I I I #
loop $-1 $-1 $455 $112 #
coedge $-1 $287 $287 $288 $456 reversed $178 $-1 #
coedge $-1 $288 $288 $287 $456 forward $180 $-1 #
coedge $-1 $289 $289 $181 $290 forward $284 $-1 #
edge $-1 $457 -6.9909672366991746e-016 $457 6.2831853071795996 $289 $458 forward 7 unknown #
loop $-1 $-1 $296 $182 #
plane-surface $-1 -27.34083290203111 -27.041070983360441 1.4432363345133439 0 -0.78801076186113728 0.61566146476048833 1 0 0 forward_v I I I I #
loop $-1 $-1 $459 $115 #
coedge $-1 $294 $294 $295 $460 reversed $183 $-1 #
coedge $-1 $295 $295 $294 $460 forward $185 $-1 #
coedge $-1 $296 $296 $186 $297 forward $291 $-1 #
edge $-1 $461 -6.9909672366991746e-016 $461 6.2831853071795996 $296 $462 forward 7 unknown #
face $-1 $463 $464 $66 $-1 $465 reversed single #
loop $-1 $-1 $466 $187 #
plane-surface $-1 -12.307680388417722 -93.1986711740863 53.131217019272796 1 0 0 0 0.78801076186113728 -0.61566146476048833 forward_v I I I I #
coedge $-1 $467 $468 $469 $470 reversed $188 $-1 #
coedge $-1 $303 $190 $471 $472 reversed $119 $-1 #
coedge $-1 $190 $302 $467 $473 reversed $119 $-1 #
coedge $-1 $469 $474 $190 $305 forward $475 $-1 #
edge $-1 $476 19.558264603682726 $477 23.818737609389352 $304 $478 forward 7 unknown #
loop $-1 $-1 $311 $191 #
plane-surface $-1 -7.0553089778402978 -27.041070983360441 1.4432363345133439 0 -0.78801076186113728 0.61566146476048833 1 0 0 forward_v I I I I #
loop $-1 $-1 $479 $121 #
coedge $-1 $309 $309 $310 $480 reversed $192 $-1 #
coedge $-1 $310 $310 $309 $480 forward $194 $-1 #
coedge $-1 $311 $311 $195 $312 forward $306 $-1 #
edge $-1 $481 -6.9909672366991746e-016 $481 6.2831853071795996 $311 $482 forward 7 unknown #
loop $-1 $-1 $318 $196 #
plane-surface $-1 -7.0553089778402978 -27.041070983360441 1.4432363345133439 0 -0.78801076186113728 0.61566146476048833 1 0 0 forward_v I I I I #
loop $-1 $-1 $483 $124 #
coedge $-1 $316 $316 $317 $484 reversed $197 $-1 #
coedge $-1 $317 $317 $316 $484 forward $199 $-1 #
coedge $-1 $318 $318 $200 $319 forward $313 $-1 #
edge $-1 $485 -6.9909672366991746e-016 $485 6.2831853071795996 $318 $486 forward 7 unknown #
loop $-1 $-1 $325 $201 #
plane-surface $-1 -7.0553089778402978 -27.041070983360441 1.4432363345133439 0 -0.78801076186113728 0.61566146476048833 1 0 0 forward_v I I I I #
loop $-1 $-1 $487 $127 #
coedge $-1 $323 $323 $324 $488 reversed $202 $-1 #
coedge $-1 $324 $324 $323 $488 forward $204 $-1 #
coedge $-1 $325 $325 $205 $326 forward $320 $-1 #
edge $-1 $489 -6.9909672366991746e-016 $489 6.2831853071795996 $325 $490 forward 7 unknown #
face $-1 $491 $492 $70 $-1 $493 reversed single #
loop $-1 $-1 $494 $206 #
plane-surface $-1 7.977843535773089 -93.1986711740863 53.131217019272796 1 0 0 0 0.78801076186113728 -0.61566146476048833 forward_v I I I I #
coedge $-1 $495 $496 $497 $498 reversed $207 $-1 #
coedge $-1 $332 $209 $499 $500 reversed $131 $-1 #
coedge $-1 $209 $331 $495 $501 reversed $131 $-1 #
coedge $-1 $497 $502 $209 $334 forward $503 $-1 #
edge $-1 $504 19.558264603682726 $505 23.818737609389352 $333 $506 forward 7 unknown #
loop $-1 $-1 $340 $210 #
plane-surface $-1 13.230214946350515 -27.041070983360441 1.4432363345133439 0 -0.78801076186113728 0.61566146476048833 1 0 0 forward_v I I I I #
loop $-1 $-1 $507 $133 #
coedge $-1 $338 $338 $339 $508 reversed $211 $-1 #
coedge $-1 $339 $339 $338 $508 forward $213 $-1 #
coedge $-1 $340 $340 $214 $341 forward $335 $-1 #
edge $-1 $509 -6.9909672366991746e-016 $509 6.2831853071795996 $340 $510 forward 7 unknown #
loop $-1 $-1 $347 $215 #
plane-surface $-1 13.230214946350515 -27.041070983360441 1.4432363345133439 0 -0.78801076186113728 0.61566146476048833 1 0 0 forward_v I I I I #
loop $-1 $-1 $511 $136 #
coedge $-1 $345 $345 $346 $512 reversed $216 $-1 #
coedge $-1 $346 $346 $345 $512 forward $218 $-1 #
coedge $-1 $347 $347 $219 $348 forward $342 $-1 #
edge $-1 $513 -6.9909672366991746e-016 $513 6.2831853071795996 $347 $514 forward 7 unknown #
loop $-1 $-1 $354 $220 #
plane-surface $-1 13.230214946350515 -27.041070983360441 1.4432363345133439 0 -0.78801076186113728 0.61566146476048833 1 0 0 forward_v I I I I #
loop $-1 $-1 $515 $139 #
coedge $-1 $352 $352 $353 $516 reversed $221 $-1 #
coedge $-1 $353 $353 $352 $516 forward $223 $-1 #
coedge $-1 $354 $354 $224 $355 forward $349 $-1 #
edge $-1 $517 -6.9909672366991746e-016 $517 6.2831853071795996 $354 $518 forward 7 unknown #
face $-1 $519 $520 $74 $-1 $521 reversed single #
loop $-1 $-1 $522 $225 #
plane-surface $-1 28.263367459963902 -93.1986711740863 53.131217019272796 1 0 0 0 0.78801076186113728 -0.61566146476048833 forward_v I I I I #
coedge $-1 $523 $524 $525 $526 reversed $226 $-1 #
coedge $-1 $361 $228 $527 $528 reversed $143 $-1 #
coedge $-1 $228 $360 $523 $529 reversed $143 $-1 #
coedge $-1 $525 $530 $228 $363 forward $531 $-1 #
edge $-1 $532 19.558264603682726 $533 23.818737609389352 $362 $534 forward 7 unknown #
loop $-1 $-1 $369 $229 #
plane-surface $-1 33.515738870541327 -27.041070983360441 1.4432363345133439 0 -0.78801076186113728 0.61566146476048833 1 0 0 forward_v I I I I #
loop $-1 $-1 $535 $145 #
coedge $-1 $367 $367 $368 $536 reversed $230 $-1 #
coedge $-1 $368 $368 $367 $536 forward $232 $-1 #
coedge $-1 $369 $369 $233 $370 forward $364 $-1 #
edge $-1 $537 -6.9909672366991746e-016 $537 6.2831853071795996 $369 $538 forward 7 unknown #
loop $-1 $-1 $376 $234 #
plane-surface $-1 33.515738870541327 -27.041070983360441 1.4432363345133439 0 -0.78801076186113728 0.61566146476048833 1 0 0 forward_v I I I I #
loop $-1 $-1 $539 $148 #
coedge $-1 $374 $374 $375 $540 reversed $235 $-1 #
coedge $-1 $375 $375 $374 $540 forward $237 $-1 #
coedge $-1 $376 $376 $238 $377 forward $371 $-1 #
edge $-1 $541 -6.9909672366991746e-016 $541 6.2831853071795996 $376 $542 forward 7 unknown #
loop $-1 $-1 $383 $239 #
plane-surface $-1 33.515738870541327 -27.041070983360441 1.4432363345133439 0 -0.78801076186113728 0.61566146476048833 1 0 0 forward_v I I I I #
loop $-1 $-1 $543 $151 #
coedge $-1 $381 $381 $382 $544 reversed $240 $-1 #
coedge $-1 $382 $382 $381 $544 forward $242 $-1 #
coedge $-1 $383 $383 $243 $384 forward $378 $-1 #
edge $-1 $545 -6.9909672366991746e-016 $545 6.2831853071795996 $383 $546 forward 7 unknown #
face $-1 $547 $548 $78 $-1 $549 forward single #
loop $-1 $-1 $550 $244 #
plane-surface $-1 5.3506406907163377 23.923752118500101 103.13042933326057 -1 0 0 0 0.51503808176128008 0.85716729658548041 forward_v I I I I #
coedge $-1 $551 $552 $553 $554 reversed $245 $-1 #
coedge $-1 $390 $247 $555 $556 reversed $155 $-1 #
coedge $-1 $247 $389 $551 $557 reversed $155 $-1 #
coedge $-1 $553 $558 $247 $392 forward $548 $-1 #
edge $-1 $559 -15.079194924110373 $560 -9.114454988987573 $391 $561 forward 7 unknown #
loop $-1 $-1 $398 $248 #
plane-surface $-1 -2.4645376044048177 -19.31637243980585 31.166778519490819 0 0.51503808176128008 0.85716729658548041 1 0 0 forward_v I I I I #
loop $-1 $-1 $562 $157 #
coedge $-1 $396 $396 $397 $563 reversed $249 $-1 #
coedge $-1 $397 $397 $396 $563 forward $251 $-1 #
coedge $-1 $398 $398 $252 $399 forward $393 $-1 #
edge $-1 $564 -3.5158199412271055e-015 $564 6.2831853071795969 $398 $565 forward 7 unknown #
face $-1 $566 $567 $60 $-1 $568 reversed single #
loop $-1 $-1 $569 $253 #
plane-surface $-1 -41.977599414044619 0 0 1 0 0 0 0 -1 forward_v I I I I #
coedge $-1 $570 $411 $571 $572 forward $254 $-1 #
coedge $-1 $573 $256 $570 $574 forward $161 $-1 #
coedge $-1 $256 $573 $575 $576 forward $161 $-1 #
coedge $-1 $414 $413 $256 $407 reversed $415 $-1 #
edge $-1 $577 -27.041070983360424 $578 27.041070983360424 $406 $579 forward 7 unknown #
coedge $-1 $258 $257 $580 $581 forward $101 $-1 #
coedge $-1 $582 $583 $257 $410 reversed $567 $-1 #
edge $-1 $417 -41.977599414044619 $584 41.977599414044619 $409 $585 forward 7 unknown #
coedge $-1 $403 $586 $258 $412 reversed $254 $-1 #
edge $-1 $587 -41.977599414044619 $416 41.977599414044619 $411 $588 forward 7 unknown #
coedge $-1 $406 $259 $586 $589 forward $415 $-1 #
coedge $-1 $259 $406 $582 $590 reversed $415 $-1 #
loop $-1 $-1 $413 $566 #
vertex $-1 $260 $591 #
vertex $-1 $260 $592 #
straight-curve $-1 41.977599414044619 0 6.8963932580537755 0 1 0 I I #
face $-1 $593 $594 $61 $-1 $595 forward single #
loop $-1 $-1 $596 $261 #
plane-surface $-1 -41.977599414044619 0 0 1 0 0 0 0 -1 forward_v I I I I #
coedge $-1 $429 $597 $431 $598 forward $262 $-1 #
coedge $-1 $264 $431 $599 $600 reversed $165 $-1 #
coedge $-1 $601 $427 $264 $425 forward $602 $-1 #
edge $-1 $433 1.1981966290268877 $603 4.1981966290268877 $424 $604 forward 7 unknown #
coedge $-1 $266 $265 $596 $605 reversed $104 $-1 #
coedge $-1 $424 $606 $265 $428 forward $602 $-1 #
edge $-1 $607 -22.532526199149867 $433 -16.357620230639636 $427 $608 forward 7 unknown #
coedge $-1 $609 $422 $266 $430 forward $262 $-1 #
edge $-1 $432 16.357620230639636 $610 22.532526199149867 $429 $611 forward 7 unknown #
coedge $-1 $423 $267 $422 $598 reversed $165 $-1 #
vertex $-1 $430 $612 #
vertex $-1 $428 $613 #
straight-curve $-1 -35.802693445534388 0 3.8963932580537755 0 -1 0 I I #
face $-1 $-1 $447 $62 $-1 $614 forward single #
loop $-1 $-1 $615 $269 #
plane-surface $-1 0 -27.041070983360424 0 0 1 0 0 0 1 forward_v I I I I #
coedge $-1 $616 $617 $618 $619 reversed $270 $-1 #
coedge $-1 $620 $272 $274 $445 forward $169 $-1 #
coedge $-1 $272 $620 $616 $621 forward $169 $-1 #
coedge $-1 $618 $275 $272 $442 forward $447 $-1 #
edge $-1 $449 8.4180450404381304 $622 18.92278786159298 $441 $623 forward 7 unknown #
coedge $-1 $624 $625 $273 $444 forward $436 $-1 #
edge $-1 $626 -25.122372175123033 $448 -19.669215251582621 $443 $627 forward 7 unknown #
edge $-1 $449 -6.9201553931333031 $626 -2.8783645442825868e-014 $274 $628 forward 7 unknown #
coedge $-1 $275 $618 $624 $629 forward $447 $-1 #
loop $-1 $-1 $618 $435 #
vertex $-1 $444 $630 #
vertex $-1 $276 $631 #
straight-curve $-1 -22.088461491453685 -46.59933558704315 6.8963932580537772 0 1 0 I I #
coedge $-1 $451 $451 $-1 $632 reversed $279 $-1 #
edge $-1 $633 0 $633 6.2831853071796004 $280 $634 forward 7 unknown #
vertex $-1 $283 $635 #
ellipse-curve $-1 -30.492255748377566 -24.910834480507113 4.1698147962835703 0 -0.78801076186113728 0.61566146476048833 0.5 0 0 1 I I #
coedge $-1 $455 $455 $-1 $636 reversed $286 $-1 #
edge $-1 $637 0 $637 6.2831853071796004 $287 $638 forward 7 unknown #
vertex $-1 $290 $639 #
ellipse-curve $-1 -27.34083290203111 -24.910834480507113 4.1698147962835703 0 -0.78801076186113728 0.61566146476048833 0.5 0 0 1 I I #
coedge $-1 $459 $459 $-1 $640 reversed $293 $-1 #
edge $-1 $641 0 $641 6.2831853071796004 $294 $642 forward 7 unknown #
vertex $-1 $297 $643 #
ellipse-curve $-1 -24.189410055684657 -24.910834480507113 4.1698147962835703 0 -0.78801076186113728 0.61566146476048833 0.5 0 0 1 I I #
face $-1 $-1 $475 $66 $-1 $644 forward single #
loop $-1 $-1 $645 $298 #
plane-surface $-1 0 -27.041070983360424 0 0 1 0 0 0 1 forward_v I I I I #
coedge $-1 $646 $647 $648 $649 reversed $299 $-1 #
coedge $-1 $650 $301 $303 $473 forward $188 $-1 #
coedge $-1 $301 $650 $646 $651 forward $188 $-1 #
coedge $-1 $648 $304 $301 $470 forward $475 $-1 #
edge $-1 $477 -1.7247169216572766 $652 8.7800258994975735 $469 $653 forward 7 unknown #
coedge $-1 $654 $655 $302 $472 forward $464 $-1 #
edge $-1 $656 -25.122372175123033 $476 -19.669215251582621 $471 $657 forward 7 unknown #
edge $-1 $477 -6.9201553931333031 $656 -2.8783645442825868e-014 $303 $658 forward 7 unknown #
coedge $-1 $304 $648 $654 $659 forward $475 $-1 #
loop $-1 $-1 $648 $463 #
vertex $-1 $472 $660 #
vertex $-1 $305 $661 #
straight-curve $-1 -1.8029375672628722 -46.59933558704315 6.8963932580537772 0 1 0 I I #
coedge $-1 $479 $479 $-1 $662 reversed $308 $-1 #
edge $-1 $663 0 $663 6.2831853071796004 $309 $664 forward 7 unknown #
vertex $-1 $312 $665 #
ellipse-curve $-1 -10.20673182418675 -24.910834480507113 4.1698147962835703 0 -0.78801076186113728 0.61566146476048833 0.5 0 0 1 I I #
coedge $-1 $483 $483 $-1 $666 reversed $315 $-1 #
edge $-1 $667 0 $667 6.2831853071796004 $316 $668 forward 7 unknown #
vertex $-1 $319 $669 #
ellipse-curve $-1 -7.0553089778402978 -24.910834480507113 4.1698147962835703 0 -0.78801076186113728 0.61566146476048833 0.5 0 0 1 I I #
coedge $-1 $487 $487 $-1 $670 reversed $322 $-1 #
edge $-1 $671 0 $671 6.2831853071796004 $323 $672 forward 7 unknown #
vertex $-1 $326 $673 #
ellipse-curve $-1 -3.9038861314938416 -24.910834480507113 4.1698147962835703 0 -0.78801076186113728 0.61566146476048833 0.5 0 0 1 I I #
face $-1 $-1 $503 $70 $-1 $674 forward single #
loop $-1 $-1 $675 $327 #
plane-surface $-1 0 -27.041070983360424 0 0 1 0 0 0 1 forward_v I I I I #
coedge $-1 $676 $677 $678 $679 reversed $328 $-1 #
coedge $-1 $680 $330 $332 $501 forward $207 $-1 #
coedge $-1 $330 $680 $676 $681 forward $207 $-1 #
coedge $-1 $678 $333 $330 $498 forward $503 $-1 #
edge $-1 $505 -11.867478883752682 $682 -1.3627360625978318 $497 $683 forward 7 unknown #
coedge $-1 $684 $685 $331 $500 forward $492 $-1 #
edge $-1 $686 -25.122372175123033 $504 -19.669215251582621 $499 $687 forward 7 unknown #
edge $-1 $505 -6.9201553931333031 $686 -2.8783645442825868e-014 $332 $688 forward 7 unknown #
coedge $-1 $333 $678 $684 $689 forward $503 $-1 #
loop $-1 $-1 $678 $491 #
vertex $-1 $500 $690 #
vertex $-1 $334 $691 #
straight-curve $-1 18.482586356927939 -46.59933558704315 6.8963932580537772 0 1 0 I I #
coedge $-1 $507 $507 $-1 $692 reversed $337 $-1 #
edge $-1 $693 0 $693 6.2831853071796004 $338 $694 forward 7 unknown #
vertex $-1 $341 $695 #
ellipse-curve $-1 10.078792100004065 -24.910834480507113 4.1698147962835703 0 -0.78801076186113728 0.61566146476048833 0.5 0 0 1 I I #
coedge $-1 $511 $511 $-1 $696 reversed $344 $-1 #
edge $-1 $697 0 $697 6.2831853071796004 $345 $698 forward 7 unknown #
vertex $-1 $348 $699 #
ellipse-curve $-1 13.230214946350515 -24.910834480507113 4.1698147962835703 0 -0.78801076186113728 0.61566146476048833 0.5 0 0 1 I I #
coedge $-1 $515 $515 $-1 $700 reversed $351 $-1 #
edge $-1 $701 0 $701 6.2831853071796004 $352 $702 forward 7 unknown #
vertex $-1 $355 $703 #
ellipse-curve $-1 16.381637792696978 -24.910834480507113 4.1698147962835703 0 -0.78801076186113728 0.61566146476048833 0.5 0 0 1 I I #
face $-1 $-1 $531 $74 $-1 $704 forward single #
loop $-1 $-1 $705 $356 #
plane-surface $-1 0 -27.041070983360424 0 0 1 0 0 0 1 forward_v I I I I #
coedge $-1 $706 $707 $708 $709 reversed $357 $-1 #
coedge $-1 $710 $359 $361 $529 forward $226 $-1 #
coedge $-1 $359 $710 $706 $711 forward $226 $-1 #
coedge $-1 $708 $362 $359 $526 forward $531 $-1 #
edge $-1 $533 -22.010240845848088 $712 -11.505498024693239 $525 $713 forward 7 unknown #
coedge $-1 $714 $715 $360 $528 forward $520 $-1 #
edge $-1 $716 -25.122372175123033 $532 -19.669215251582621 $527 $717 forward 7 unknown #
edge $-1 $533 -6.9201553931333031 $716 -2.8783645442825868e-014 $361 $718 forward 7 unknown #
coedge $-1 $362 $708 $714 $719 forward $531 $-1 #
loop $-1 $-1 $708 $519 #
vertex $-1 $528 $720 #
vertex $-1 $363 $721 #
straight-curve $-1 38.768110281118751 -46.59933558704315 6.8963932580537772 0 1 0 I I #
coedge $-1 $535 $535 $-1 $722 reversed $366 $-1 #
edge $-1 $723 0 $723 6.2831853071796004 $367 $724 forward 7 unknown #
vertex $-1 $370 $725 #
ellipse-curve $-1 30.364316024194878 -24.910834480507113 4.1698147962835703 0 -0.78801076186113728 0.61566146476048833 0.5 0 0 1 I I #
coedge $-1 $539 $539 $-1 $726 reversed $373 $-1 #
edge $-1 $727 0 $727 6.2831853071796004 $374 $728 forward 7 unknown #
vertex $-1 $377 $729 #
ellipse-curve $-1 33.515738870541327 -24.910834480507113 4.1698147962835703 0 -0.78801076186113728 0.61566146476048833 0.5 0 0 1 I I #
coedge $-1 $543 $543 $-1 $730 reversed $380 $-1 #
edge $-1 $731 0 $731 6.2831853071796004 $381 $732 forward 7 unknown #
vertex $-1 $384 $733 #
ellipse-curve $-1 36.66716171688779 -24.910834480507113 4.1698147962835703 0 -0.78801076186113728 0.61566146476048833 0.5 0 0 1 I I #
face $-1 $-1 $734 $78 $-1 $735 reversed single #
loop $-1 $-1 $391 $385 #
plane-surface $-1 0 0 6.8963932580537755 0 0 1 1 0 0 forward_v I I I I #
coedge $-1 $736 $737 $738 $739 reversed $386 $-1 #
coedge $-1 $740 $388 $390 $557 forward $245 $-1 #
coedge $-1 $388 $740 $736 $741 forward $245 $-1 #
coedge $-1 $738 $391 $388 $554 forward $548 $-1 #
edge $-1 $560 -9.0474470973235643 $742 6.5829094929187466 $553 $743 forward 7 unknown #
coedge $-1 $744 $745 $389 $556 forward $734 $-1 #
edge $-1 $746 -48.2527988032206 $559 -44.668821408576505 $555 $747 forward 7 unknown #
edge $-1 $560 47.123477119282903 $746 54.082141966720854 $390 $748 forward 7 unknown #
coedge $-1 $391 $738 $744 $749 forward $548 $-1 #
vertex $-1 $556 $750 #
vertex $-1 $392 $751 #
straight-curve $-1 -10.279715899525973 11.96187605925005 6.8963932580537772 0 -1 0 I I #
coedge $-1 $562 $562 $-1 $752 reversed $395 $-1 #
edge $-1 $753 0 $753 6.2831853071796004 $396 $754 forward 7 unknown #
vertex $-1 $399 $755 #
ellipse-curve $-1 -2.4645376044048177 24.058701015799034 5.1044045607317265 0 0.51503808176128008 0.85716729658548041 1 0 0 1 I I #
face $-1 $-1 $415 $60 $-1 $756 reversed single #
loop $-1 $-1 $582 $400 #
plane-surface $-1 0 27.041070983360424 0 0 -1 0 0 0 -1 forward_v I I I I #
coedge $-1 $757 $580 $583 $758 forward $401 $-1 #
coedge $-1 $586 $403 $404 $574 reversed $254 $-1 #
coedge $-1 $580 $757 $403 $572 reversed $401 $-1 #
edge $-1 $587 -6.8963932580537755 $759 6.8963932580537755 $571 $760 forward 7 unknown #
coedge $-1 $405 $404 $757 $761 forward $161 $-1 #
edge $-1 $578 -41.977599414044619 $759 41.977599414044619 $570 $762 forward 7 unknown #
coedge $-1 $583 $582 $405 $576 reversed $567 $-1 #
edge $-1 $763 -41.977599414044619 $577 41.977599414044619 $575 $764 forward 7 unknown #
vertex $-1 $407 $765 #
vertex $-1 $589 $766 #
straight-curve $-1 41.977599414044619 0 -6.8963932580537755 0 -1 0 I I #
coedge $-1 $569 $571 $408 $581 reversed $401 $-1 #
edge $-1 $584 -27.041070983360424 $587 27.041070983360424 $580 $767 forward 7 unknown #
coedge $-1 $575 $409 $414 $590 forward $567 $-1 #
coedge $-1 $409 $575 $569 $758 reversed $567 $-1 #
vertex $-1 $410 $768 #
straight-curve $-1 0 27.041070983360424 6.8963932580537755 -1 0 0 I I #
coedge $-1 $411 $570 $413 $589 reversed $254 $-1 #
vertex $-1 $581 $769 #
straight-curve $-1 0 -27.041070983360424 6.8963932580537755 1 0 0 I I #
edge $-1 $416 -6.8963932580537755 $578 6.8963932580537755 $413 $770 forward 7 unknown #
edge $-1 $417 -6.8963932580537755 $577 6.8963932580537755 $414 $771 forward 7 unknown #
point $-1 41.977599414044619 -27.041070983360424 6.8963932580537755 #
point $-1 41.977599414044619 27.041070983360424 6.8963932580537755 #
face $-1 $-1 $602 $61 $-1 $772 reversed single #
loop $-1 $-1 $599 $419 #
plane-surface $-1 0 0 6.8963932580537755 0 0 1 1 0 0 forward_v I I I I #
coedge $-1 $773 $774 $426 $605 forward $420 $-1 #
coedge $-1 $422 $609 $775 $776 reversed $262 $-1 #
edge $-1 $777 -4.1981966290268877 $432 -1.1981966290268877 $422 $778 forward 7 unknown #
coedge $-1 $775 $779 $423 $600 forward $594 $-1 #
edge $-1 $603 -27.041070983360424 $777 27.041070983360424 $599 $780 forward 7 unknown #
coedge $-1 $606 $424 $779 $781 reversed $602 $-1 #
loop $-1 $-1 $424 $593 #
vertex $-1 $425 $782 #
straight-curve $-1 -35.802693445534388 -27.041070983360424 2.6981966290268877 0 0 1 I I #
edge $-1 $610 -27.041070983360424 $607 27.041070983360424 $596 $783 forward 7 unknown #
coedge $-1 $427 $601 $773 $784 forward $602 $-1 #
vertex $-1 $605 $785 #
straight-curve $-1 -19.445073214894752 -27.041070983360424 3.8963932580537755 1 0 0 I I #
coedge $-1 $597 $429 $774 $786 reversed $262 $-1 #
vertex $-1 $605 $787 #
straight-curve $-1 -19.445073214894752 27.041070983360424 3.8963932580537755 -1 0 0 I I #
point $-1 -35.802693445534388 27.041070983360424 3.8963932580537755 #
point $-1 -35.802693445534388 -27.041070983360424 3.8963932580537755 #
plane-surface $-1 0 0 6.8963932580537755 0 0 1 1 0 0 forward_v I I I I #
coedge $-1 $625 $624 $617 $788 forward $436 $-1 #
coedge $-1 $617 $438 $440 $621 reversed $270 $-1 #
coedge $-1 $438 $616 $615 $788 reversed $270 $-1 #
coedge $-1 $446 $441 $438 $619 forward $447 $-1 #
edge $-1 $622 -23.818737609389352 $789 -19.558264603682726 $618 $790 forward 7 unknown #
coedge $-1 $440 $439 $625 $791 reversed $169 $-1 #
edge $-1 $792 2.8783645442825868e-014 $622 6.9201553931333031 $616 $793 forward 7 unknown #
vertex $-1 $442 $794 #
straight-curve $-1 -13.670416451015555 -22.780597977653802 6.8963932580537755 -1 0 0 I I #
coedge $-1 $615 $443 $446 $629 reversed $436 $-1 #
coedge $-1 $443 $615 $620 $791 forward $436 $-1 #
vertex $-1 $444 $795 #
straight-curve $-1 -22.088461491453685 -27.041070983360427 26.565608509636398 0 0 1 I I #
straight-curve $-1 -22.088461491453685 -27.041070983360441 1.4432363345133439 0 -0.61566146476048833 -0.78801076186113728 I I #
edge $-1 $789 -32.593204312608535 $448 -22.088461491453685 $624 $796 forward 7 unknown #
point $-1 -22.088461491453685 -27.041070983360424 6.8963932580537755 #
point $-1 -22.088461491453685 -22.780597977653798 6.8963932580537755 #
edge $-1 $797 1 $797 0 $451 $-1 forward 7 unknown #
vertex $-1 $452 $798 #
ellipse-curve $-1 -30.492255748377566 -24.122823718645961 3.5541533315230707 0 -0.78801076186113728 0.61566146476048833 0.5 0 0 1 I I #
point $-1 -29.992255748377566 -24.910834480507098 4.1698147962835588 #
edge $-1 $799 1 $799 0 $455 $-1 forward 7 unknown #
vertex $-1 $456 $800 #
ellipse-curve $-1 -27.34083290203111 -24.122823718645961 3.5541533315230707 0 -0.78801076186113728 0.61566146476048833 0.5 0 0 1 I I #
point $-1 -26.84083290203111 -24.910834480507098 4.1698147962835588 #
edge $-1 $801 1 $801 0 $459 $-1 forward 7 unknown #
vertex $-1 $460 $802 #
ellipse-curve $-1 -24.189410055684657 -24.122823718645961 3.5541533315230707 0 -0.78801076186113728 0.61566146476048833 0.5 0 0 1 I I #
point $-1 -23.689410055684657 -24.910834480507098 4.1698147962835588 #
plane-surface $-1 0 0 6.8963932580537755 0 0 1 1 0 0 forward_v I I I I #
coedge $-1 $655 $654 $647 $803 forward $464 $-1 #
coedge $-1 $647 $466 $468 $651 reversed $299 $-1 #
coedge $-1 $466 $646 $645 $803 reversed $299 $-1 #
coedge $-1 $474 $469 $466 $649 forward $475 $-1 #
edge $-1 $652 -23.818737609389352 $804 -19.558264603682726 $648 $805 forward 7 unknown #
coedge $-1 $468 $467 $655 $806 reversed $188 $-1 #
edge $-1 $807 2.8783645442825868e-014 $652 6.9201553931333031 $646 $808 forward 7 unknown #
vertex $-1 $470 $809 #
straight-curve $-1 -3.5276544889201489 -22.780597977653802 6.8963932580537755 -1 0 0 I I #
coedge $-1 $645 $471 $474 $659 reversed $464 $-1 #
coedge $-1 $471 $645 $650 $806 forward $464 $-1 #
vertex $-1 $472 $810 #
straight-curve $-1 -1.8029375672628722 -27.041070983360427 26.565608509636398 0 0 1 I I #
straight-curve $-1 -1.8029375672628722 -27.041070983360441 1.4432363345133439 0 -0.61566146476048833 -0.78801076186113728 I I #
edge $-1 $804 -12.307680388417722 $476 -1.8029375672628722 $654 $811 forward 7 unknown #
point $-1 -1.8029375672628722 -27.041070983360424 6.8963932580537755 #
point $-1 -1.8029375672628722 -22.780597977653798 6.8963932580537755 #
edge $-1 $812 1 $812 0 $479 $-1 forward 7 unknown #
vertex $-1 $480 $813 #
ellipse-curve $-1 -10.20673182418675 -24.122823718645961 3.5541533315230707 0 -0.78801076186113728 0.61566146476048833 0.5 0 0 1 I I #
point $-1 -9.7067318241867504 -24.910834480507098 4.1698147962835588 #
edge $-1 $814 1 $814 0 $483 $-1 forward 7 unknown #
vertex $-1 $484 $815 #
ellipse-curve $-1 -7.0553089778402978 -24.122823718645961 3.5541533315230707 0 -0.78801076186113728 0.61566146476048833 0.5 0 0 1 I I #
point $-1 -6.5553089778402978 -24.910834480507098 4.1698147962835588 #
edge $-1 $816 1 $816 0 $487 $-1 forward 7 unknown #
vertex $-1 $488 $817 #
ellipse-curve $-1 -3.9038861314938416 -24.122823718645961 3.5541533315230707 0 -0.78801076186113728 0.61566146476048833 0.5 0 0 1 I I #
point $-1 -3.4038861314938416 -24.910834480507098 4.1698147962835588 #
plane-surface $-1 0 0 6.8963932580537755 0 0 1 1 0 0 forward_v I I I I #
coedge $-1 $685 $684 $677 $818 forward $492 $-1 #
coedge $-1 $677 $494 $496 $681 reversed $328 $-1 #
coedge $-1 $494 $676 $675 $818 reversed $328 $-1 #
coedge $-1 $502 $497 $494 $679 forward $503 $-1 #
edge $-1 $682 -23.818737609389352 $819 -19.558264603682726 $678 $820 forward 7 unknown #
coedge $-1 $496 $495 $685 $821 reversed $207 $-1 #
edge $-1 $822 2.8783645442825868e-014 $682 6.9201553931333031 $676 $823 forward 7 unknown #
vertex $-1 $498 $824 #
straight-curve $-1 6.6151074731752573 -22.780597977653802 6.8963932580537755 -1 0 0 I I #
coedge $-1 $675 $499 $502 $689 reversed $492 $-1 #
coedge $-1 $499 $675 $680 $821 forward $492 $-1 #
vertex $-1 $500 $825 #
straight-curve $-1 18.482586356927939 -27.041070983360427 26.565608509636398 0 0 1 I I #
straight-curve $-1 18.482586356927939 -27.041070983360441 1.4432363345133439 0 -0.61566146476048833 -0.78801076186113728 I I #
edge $-1 $819 7.977843535773089 $504 18.482586356927939 $684 $826 forward 7 unknown #
point $-1 18.482586356927939 -27.041070983360424 6.8963932580537755 #
point $-1 18.482586356927939 -22.780597977653798 6.8963932580537755 #
edge $-1 $827 1 $827 0 $507 $-1 forward 7 unknown #
vertex $-1 $508 $828 #
ellipse-curve $-1 10.078792100004065 -24.122823718645961 3.5541533315230707 0 -0.78801076186113728 0.61566146476048833 0.5 0 0 1 I I #
point $-1 10.578792100004065 -24.910834480507098 4.1698147962835588 #
edge $-1 $829 1 $829 0 $511 $-1 forward 7 unknown #
vertex $-1 $512 $830 #
ellipse-curve $-1 13.230214946350515 -24.122823718645961 3.5541533315230707 0 -0.78801076186113728 0.61566146476048833 0.5 0 0 1 I I #
point $-1 13.730214946350515 -24.910834480507098 4.1698147962835588 #
edge $-1 $831 1 $831 0 $515 $-1 forward 7 unknown #
vertex $-1 $516 $832 #
ellipse-curve $-1 16.381637792696978 -24.122823718645961 3.5541533315230707 0 -0.78801076186113728 0.61566146476048833 0.5 0 0 1 I I #
point $-1 16.881637792696978 -24.910834480507098 4.1698147962835588 #
plane-surface $-1 0 0 6.8963932580537755 0 0 1 1 0 0 forward_v I I I I #
coedge $-1 $715 $714 $707 $833 forward $520 $-1 #
coedge $-1 $707 $522 $524 $711 reversed $357 $-1 #
coedge $-1 $522 $706 $705 $833 reversed $357 $-1 #
coedge $-1 $530 $525 $522 $709 forward $531 $-1 #
edge $-1 $712 -23.818737609389352 $834 -19.558264603682726 $708 $835 forward 7 unknown #
coedge $-1 $524 $523 $715 $836 reversed $226 $-1 #
edge $-1 $837 2.8783645442825868e-014 $712 6.9201553931333031 $706 $838 forward 7 unknown #
vertex $-1 $526 $839 #
straight-curve $-1 16.757869435270663 -22.780597977653802 6.8963932580537755 -1 0 0 I I #
coedge $-1 $705 $527 $530 $719 reversed $520 $-1 #
coedge $-1 $527 $705 $710 $836 forward $520 $-1 #
vertex $-1 $528 $840 #
straight-curve $-1 38.768110281118751 -27.041070983360427 26.565608509636398 0 0 1 I I #
straight-curve $-1 38.768110281118751 -27.041070983360441 1.4432363345133439 0 -0.61566146476048833 -0.78801076186113728 I I #
edge $-1 $834 28.263367459963902 $532 38.768110281118751 $714 $841 forward 7 unknown #
point $-1 38.768110281118751 -27.041070983360424 6.8963932580537755 #
point $-1 38.768110281118751 -22.780597977653798 6.8963932580537755 #
edge $-1 $842 1 $842 0 $535 $-1 forward 7 unknown #
vertex $-1 $536 $843 #
ellipse-curve $-1 30.364316024194878 -24.122823718645961 3.5541533315230707 0 -0.78801076186113728 0.61566146476048833 0.5 0 0 1 I I #
point $-1 30.864316024194878 -24.910834480507098 4.1698147962835588 #
edge $-1 $844 1 $844 0 $539 $-1 forward 7 unknown #
vertex $-1 $540 $845 #
ellipse-curve $-1 33.515738870541327 -24.122823718645961 3.5541533315230707 0 -0.78801076186113728 0.61566146476048833 0.5 0 0 1 I I #
point $-1 34.015738870541327 -24.910834480507098 4.1698147962835588 #
edge $-1 $846 1 $846 0 $543 $-1 forward 7 unknown #
vertex $-1 $544 $847 #
ellipse-curve $-1 36.66716171688779 -24.122823718645961 3.5541533315230707 0 -0.78801076186113728 0.61566146476048833 0.5 0 0 1 I I #
point $-1 37.16716171688779 -24.910834480507098 4.1698147962835588 #
loop $-1 $-1 $555 $547 #
plane-surface $-1 0 27.041070983360424 0 0 -1 0 0 0 -1 forward_v I I I I #
coedge $-1 $737 $550 $552 $741 reversed $386 $-1 #
coedge $-1 $550 $736 $848 $849 reversed $386 $-1 #
coedge $-1 $558 $553 $550 $739 forward $548 $-1 #
edge $-1 $742 9.114454988987573 $850 15.079194924110373 $738 $851 forward 7 unknown #
coedge $-1 $552 $551 $745 $852 reversed $245 $-1 #
edge $-1 $853 -54.082141966720854 $742 -47.123477119282903 $736 $854 forward 7 unknown #
vertex $-1 $554 $855 #
straight-curve $-1 -1.2322688022024089 21.076331048237634 6.8963932580537737 1 0 0 I I #
coedge $-1 $848 $555 $558 $749 reversed $734 $-1 #
coedge $-1 $555 $848 $740 $852 forward $734 $-1 #
vertex $-1 $556 $856 #
straight-curve $-1 -10.279715899525973 27.041070983360424 51.565214666630283 0 0 1 I I #
straight-curve $-1 -10.279715899525973 -19.31637243980585 31.166778519490819 0 0.85716729658548041 -0.51503808176128008 I I #
edge $-1 $850 -5.3506406907163377 $559 10.279715899525973 $744 $857 forward 7 unknown #
point $-1 -10.279715899525973 27.041070983360424 6.8963932580537755 #
point $-1 -10.279715899525973 21.076331048237623 6.8963932580537772 #
edge $-1 $858 1 $858 0 $562 $-1 forward 7 unknown #
vertex $-1 $563 $859 #
ellipse-curve $-1 -2.4645376044048177 23.123185510862129 3.5474453286331507 0 0.51503808176128008 0.85716729658548041 1 0 0 1 I I #
point $-1 -1.4645376044048177 24.058701015799041 5.1044045607317452 #
plane-surface $-1 41.977599414044619 0 0 -1 0 0 0 0 1 forward_v I I I I #
coedge $-1 $571 $569 $573 $761 reversed $401 $-1 #
edge $-1 $584 -6.8963932580537755 $763 6.8963932580537755 $583 $860 forward 7 unknown #
vertex $-1 $761 $861 #
straight-curve $-1 -41.977599414044619 -27.041070983360424 0 0 0 -1 I I #
edge $-1 $759 -27.041070983360424 $763 27.041070983360424 $757 $862 forward 7 unknown #
straight-curve $-1 0 -27.041070983360424 -6.8963932580537755 -1 0 0 I I #
vertex $-1 $576 $863 #
straight-curve $-1 0 27.041070983360424 -6.8963932580537755 1 0 0 I I #
point $-1 41.977599414044619 27.041070983360424 -6.8963932580537755 #
point $-1 41.977599414044619 -27.041070983360424 -6.8963932580537755 #
straight-curve $-1 -41.977599414044619 0 6.8963932580537755 0 -1 0 I I #
point $-1 -41.977599414044619 27.041070983360424 6.8963932580537755 #
point $-1 -41.977599414044619 -27.041070983360424 6.8963932580537755 #
straight-curve $-1 41.977599414044619 -27.041070983360424 0 0 0 -1 I I #
straight-curve $-1 41.977599414044619 27.041070983360424 0 0 0 -1 I I #
plane-surface $-1 0 -27.041070983360424 0 0 1 0 0 0 1 forward_v I I I I #
coedge $-1 $864 $596 $606 $784 reversed $420 $-1 #
coedge $-1 $596 $864 $609 $786 forward $420 $-1 #
coedge $-1 $865 $599 $597 $776 forward $594 $-1 #
edge $-1 $777 35.802693445534388 $866 41.977599414044619 $597 $867 forward 7 unknown #
vertex $-1 $776 $868 #
straight-curve $-1 -35.802693445534388 27.041070983360424 2.6981966290268877 0 0 -1 I I #
coedge $-1 $599 $865 $601 $781 forward $594 $-1 #
straight-curve $-1 -35.802693445534388 0 6.8963932580537755 0 1 0 I I #
edge $-1 $869 -41.977599414044619 $603 -35.802693445534388 $601 $870 forward 7 unknown #
point $-1 -35.802693445534388 -27.041070983360424 6.8963932580537755 #
straight-curve $-1 -41.977599414044619 0 3.8963932580537755 0 -1 0 I I #
edge $-1 $869 -6.8963932580537755 $607 -3.8963932580537755 $773 $871 forward 7 unknown #
point $-1 -41.977599414044619 -27.041070983360424 3.8963932580537755 #
edge $-1 $866 -6.8963932580537755 $610 -3.8963932580537755 $609 $872 forward 7 unknown #
point $-1 -41.977599414044619 27.041070983360424 3.8963932580537755 #
edge $-1 $789 19.669215251582621 $792 25.122372175123033 $615 $873 forward 7 unknown #
vertex $-1 $629 $874 #
straight-curve $-1 -32.593204312608535 -46.59933558704315 6.8963932580537772 0 -1 0 I I #
edge $-1 $792 -18.92278786159298 $626 -8.4180450404381304 $625 $875 forward 7 unknown #
vertex $-1 $791 $876 #
straight-curve $-1 -32.593204312608535 -27.041070983360441 1.4432363345133439 0 0.61566146476048833 0.78801076186113728 I I #
point $-1 -32.593204312608535 -22.780597977653798 6.8963932580537755 #
point $-1 -22.088461491453685 -27.041070983360424 1.4432363345133665 #
straight-curve $-1 0 -27.041070983360424 6.8963932580537755 1 0 0 I I #
vertex $-1 $632 $877 #
point $-1 -29.992255748377566 -24.122823718645961 3.5541533315230707 #
vertex $-1 $636 $878 #
point $-1 -26.84083290203111 -24.122823718645961 3.5541533315230707 #
vertex $-1 $640 $879 #
point $-1 -23.689410055684657 -24.122823718645961 3.5541533315230707 #
edge $-1 $804 19.669215251582621 $807 25.122372175123033 $645 $880 forward 7 unknown #
vertex $-1 $659 $881 #
straight-curve $-1 -12.307680388417722 -46.59933558704315 6.8963932580537772 0 -1 0 I I #
edge $-1 $807 -8.7800258994975735 $656 1.7247169216572766 $655 $882 forward 7 unknown #
vertex $-1 $806 $883 #
straight-curve $-1 -12.307680388417722 -27.041070983360441 1.4432363345133439 0 0.61566146476048833 0.78801076186113728 I I #
point $-1 -12.307680388417722 -22.780597977653798 6.8963932580537755 #
point $-1 -1.8029375672628722 -27.041070983360424 1.4432363345133665 #
straight-curve $-1 0 -27.041070983360424 6.8963932580537755 1 0 0 I I #
vertex $-1 $662 $884 #
point $-1 -9.7067318241867504 -24.122823718645961 3.5541533315230707 #
vertex $-1 $666 $885 #
point $-1 -6.5553089778402978 -24.122823718645961 3.5541533315230707 #
vertex $-1 $670 $886 #
point $-1 -3.4038861314938416 -24.122823718645961 3.5541533315230707 #
edge $-1 $819 19.669215251582621 $822 25.122372175123033 $675 $887 forward 7 unknown #
vertex $-1 $689 $888 #
straight-curve $-1 7.977843535773089 -46.59933558704315 6.8963932580537772 0 -1 0 I I #
edge $-1 $822 1.3627360625978318 $686 11.867478883752682 $685 $889 forward 7 unknown #
vertex $-1 $821 $890 #
straight-curve $-1 7.977843535773089 -27.041070983360441 1.4432363345133439 0 0.61566146476048833 0.78801076186113728 I I #
point $-1 7.977843535773089 -22.780597977653798 6.8963932580537755 #
point $-1 18.482586356927939 -27.041070983360424 1.4432363345133665 #
straight-curve $-1 0 -27.041070983360424 6.8963932580537755 1 0 0 I I #
vertex $-1 $692 $891 #
point $-1 10.578792100004065 -24.122823718645961 3.5541533315230707 #
vertex $-1 $696 $892 #
point $-1 13.730214946350515 -24.122823718645961 3.5541533315230707 #
vertex $-1 $700 $893 #
point $-1 16.881637792696978 -24.122823718645961 3.5541533315230707 #
edge $-1 $834 19.669215251582621 $837 25.122372175123033 $705 $894 forward 7 unknown #
vertex $-1 $719 $895 #
straight-curve $-1 28.263367459963902 -46.59933558704315 6.8963932580537772 0 -1 0 I I #
edge $-1 $837 11.505498024693239 $716 22.010240845848088 $715 $896 forward 7 unknown #
vertex $-1 $836 $897 #
straight-curve $-1 28.263367459963902 -27.041070983360441 1.4432363345133439 0 0.61566146476048833 0.78801076186113728 I I #
point $-1 28.263367459963902 -22.780597977653798 6.8963932580537755 #
point $-1 38.768110281118751 -27.041070983360424 1.4432363345133665 #
straight-curve $-1 0 -27.041070983360424 6.8963932580537755 1 0 0 I I #
vertex $-1 $722 $898 #
point $-1 30.864316024194878 -24.122823718645961 3.5541533315230707 #
vertex $-1 $726 $899 #
point $-1 34.015738870541327 -24.122823718645961 3.5541533315230707 #
vertex $-1 $730 $900 #
point $-1 37.16716171688779 -24.122823718645961 3.5541533315230707 #
coedge $-1 $745 $744 $737 $849 forward $734 $-1 #
edge $-1 $850 44.668821408576505 $853 48.2527988032206 $848 $901 forward 7 unknown #
vertex $-1 $749 $902 #
straight-curve $-1 5.3506406907163377 11.96187605925005 6.8963932580537772 0 1 0 I I #
edge $-1 $853 -6.5829094929187466 $746 9.0474470973235643 $745 $903 forward 7 unknown #
vertex $-1 $852 $904 #
straight-curve $-1 5.3506406907163377 -19.31637243980585 31.166778519490819 0 -0.85716729658548041 0.51503808176128008 I I #
point $-1 5.3506406907163377 21.076331048237623 6.8963932580537772 #
point $-1 -10.279715899525973 27.041070983360424 3.3124158634096865 #
straight-curve $-1 0 27.041070983360424 6.8963932580537755 -1 0 0 I I #
vertex $-1 $752 $905 #
point $-1 -1.4645376044048177 23.123185510862129 3.5474453286331507 #
straight-curve $-1 -41.977599414044619 27.041070983360424 0 0 0 -1 I I #
point $-1 -41.977599414044619 -27.041070983360424 -6.8963932580537755 #
straight-curve $-1 -41.977599414044619 0 -6.8963932580537755 0 1 0 I I #
point $-1 -41.977599414044619 27.041070983360424 -6.8963932580537755 #
coedge $-1 $774 $773 $865 $906 reversed $420 $-1 #
coedge $-1 $779 $775 $864 $906 forward $594 $-1 #
vertex $-1 $776 $907 #
straight-curve $-1 0 27.041070983360424 6.8963932580537755 -1 0 0 I I #
point $-1 -35.802693445534388 27.041070983360424 6.8963932580537755 #
vertex $-1 $906 $908 #
straight-curve $-1 0 -27.041070983360424 6.8963932580537755 1 0 0 I I #
straight-curve $-1 -41.977599414044619 -27.041070983360424 0 0 0 -1 I I #
straight-curve $-1 -41.977599414044619 27.041070983360424 0 0 0 -1 I I #
straight-curve $-1 -32.593204312608535 -27.041070983360427 26.565608509636398 0 0 -1 I I #
point $-1 -32.593204312608535 -27.041070983360424 6.8963932580537755 #
straight-curve $-1 -13.670416451015555 -27.041070983360424 1.4432363345133683 1 0 0 I I #
point $-1 -32.593204312608535 -27.041070983360424 1.4432363345133665 #
point $-1 -30.492255748377566 -23.728818337715396 3.2463225991428262 #
point $-1 -27.34083290203111 -23.728818337715396 3.2463225991428262 #
point $-1 -24.189410055684657 -23.728818337715396 3.2463225991428262 #
straight-curve $-1 -12.307680388417722 -27.041070983360427 26.565608509636398 0 0 -1 I I #
point $-1 -12.307680388417722 -27.041070983360424 6.8963932580537755 #
straight-curve $-1 -3.5276544889201489 -27.041070983360424 1.4432363345133683 1 0 0 I I #
point $-1 -12.307680388417722 -27.041070983360424 1.4432363345133665 #
point $-1 -10.20673182418675 -23.728818337715396 3.2463225991428262 #
point $-1 -7.0553089778402978 -23.728818337715396 3.2463225991428262 #
point $-1 -3.9038861314938416 -23.728818337715396 3.2463225991428262 #
straight-curve $-1 7.977843535773089 -27.041070983360427 26.565608509636398 0 0 -1 I I #
point $-1 7.977843535773089 -27.041070983360424 6.8963932580537755 #
straight-curve $-1 6.6151074731752573 -27.041070983360424 1.4432363345133683 1 0 0 I I #
point $-1 7.977843535773089 -27.041070983360424 1.4432363345133665 #
point $-1 10.078792100004065 -23.728818337715396 3.2463225991428262 #
point $-1 13.230214946350515 -23.728818337715396 3.2463225991428262 #
point $-1 16.381637792696978 -23.728818337715396 3.2463225991428262 #
straight-curve $-1 28.263367459963902 -27.041070983360427 26.565608509636398 0 0 -1 I I #
point $-1 28.263367459963902 -27.041070983360424 6.8963932580537755 #
straight-curve $-1 16.757869435270663 -27.041070983360424 1.4432363345133683 1 0 0 I I #
point $-1 28.263367459963902 -27.041070983360424 1.4432363345133665 #
point $-1 30.364316024194878 -23.728818337715396 3.2463225991428262 #
point $-1 33.515738870541327 -23.728818337715396 3.2463225991428262 #
point $-1 36.66716171688779 -23.728818337715396 3.2463225991428262 #
straight-curve $-1 5.3506406907163377 27.041070983360424 51.565214666630283 0 0 -1 I I #
point $-1 5.3506406907163377 27.041070983360424 6.8963932580537755 #
straight-curve $-1 -1.2322688022024089 27.041070983360424 3.3124158634096901 -1 0 0 I I #
point $-1 5.3506406907163377 27.041070983360424 3.3124158634096865 #
point $-1 -2.4645376044048177 22.608147429100846 2.6902780320476705 #
edge $-1 $866 -27.041070983360424 $869 27.041070983360424 $864 $909 forward 7 unknown #
point $-1 -41.977599414044619 27.041070983360424 6.8963932580537755 #
point $-1 -41.977599414044619 -27.041070983360424 6.8963932580537755 #
straight-curve $-1 -41.977599414044619 0 6.8963932580537755 0 -1 0 I I #
End-of-ACIS-data 