500 0 13 0           
7 Unknown 11 ACIS 5.0 NT 24 Thu Mar 25 17:48:04 1999 
-1 9.9999999999999995e-007 1e-010 
body $-1 $13 $-1 $14 #
body $-1 $15 $-1 $16 #
body $-1 $17 $-1 $18 #
body $-1 $19 $-1 $20 #
body $-1 $21 $-1 $22 #
body $-1 $23 $-1 $24 #
body $-1 $25 $-1 $26 #
body $-1 $27 $-1 $28 #
body $-1 $29 $-1 $30 #
body $-1 $31 $-1 $32 #
body $-1 $33 $-1 $34 #
body $-1 $35 $-1 $36 #
body $-1 $37 $-1 $38 #
lump $-1 $-1 $39 $0 #
transform $-1 1 0 0 0 1 0 0 0 1 75.468611713003938 46.031776499443588 17.218472091455741 1 rotate no_reflect no_shear #
lump $-1 $-1 $40 $1 #
transform $-1 1 0 0 0 1 0 0 0 1 75.468611713003938 46.031776499443588 17.218472091455741 1 rotate no_reflect no_shear #
lump $-1 $-1 $41 $2 #
transform $-1 1 0 0 0 1 0 0 0 1 75.468611713003938 46.031776499443588 17.218472091455741 1 rotate no_reflect no_shear #
lump $-1 $-1 $42 $3 #
transform $-1 1 0 0 0 1 0 0 0 1 75.468611713003938 46.031776499443588 17.218472091455741 1 rotate no_reflect no_shear #
lump $-1 $-1 $43 $4 #
transform $-1 1 0 0 0 1 0 0 0 1 75.468611713003938 46.031776499443588 17.218472091455741 1 rotate no_reflect no_shear #
lump $-1 $-1 $44 $5 #
transform $-1 1 0 0 0 1 0 0 0 1 75.468611713003938 46.031776499443588 17.218472091455741 1 rotate no_reflect no_shear #
lump $-1 $-1 $45 $6 #
transform $-1 1 0 0 0 1 0 0 0 1 75.468611713003938 46.031776499443588 17.218472091455741 1 rotate no_reflect no_shear #
lump $-1 $-1 $46 $7 #
transform $-1 1 0 0 0 1 0 0 0 1 75.468611713003938 46.031776499443588 17.218472091455741 1 rotate no_reflect no_shear #
lump $-1 $-1 $47 $8 #
transform $-1 1 0 0 0 1 0 0 0 1 75.468611713003938 46.031776499443588 17.218472091455741 1 rotate no_reflect no_shear #
lump $-1 $-1 $48 $9 #
transform $-1 1 0 0 0 1 0 0 0 1 75.468611713003938 46.031776499443588 17.218472091455741 1 rotate no_reflect no_shear #
lump $-1 $-1 $49 $10 #
transform $-1 1 0 0 0 1 0 0 0 1 75.468611713003938 46.031776499443588 17.218472091455741 1 rotate no_reflect no_shear #
lump $-1 $-1 $50 $11 #
transform $-1 1 0 0 0 1 0 0 0 1 75.468611713003938 46.031776499443588 17.218472091455741 1 rotate no_reflect no_shear #
lump $-1 $-1 $51 $12 #
transform $-1 1 0 0 0 1 0 0 0 1 75.468611713003938 46.031776499443588 17.218472091455741 1 rotate no_reflect no_shear #
shell $-1 $-1 $-1 $52 $-1 $13 #
shell $-1 $-1 $-1 $53 $-1 $15 #
shell $-1 $-1 $-1 $54 $-1 $17 #
shell $-1 $-1 $-1 $55 $-1 $19 #
shell $-1 $-1 $-1 $56 $-1 $21 #
shell $-1 $-1 $-1 $57 $-1 $23 #
shell $-1 $-1 $-1 $58 $-1 $25 #
shell $-1 $-1 $-1 $59 $-1 $27 #
shell $-1 $-1 $-1 $60 $-1 $29 #
shell $-1 $-1 $-1 $61 $-1 $31 #
shell $-1 $-1 $-1 $62 $-1 $33 #
shell $-1 $-1 $-1 $63 $-1 $35 #
shell $-1 $-1 $-1 $64 $-1 $37 #
face $-1 $65 $66 $39 $-1 $67 forward single #
face $-1 $68 $69 $40 $-1 $70 forward single #
face $-1 $71 $72 $41 $-1 $73 forward single #
face $-1 $74 $75 $42 $-1 $76 reversed single #
face $-1 $77 $78 $43 $-1 $79 forward single #
face $-1 $80 $81 $44 $-1 $82 forward single #
face $-1 $83 $84 $45 $-1 $85 forward single #
face $-1 $86 $87 $46 $-1 $88 reversed single #
face $-1 $89 $90 $47 $-1 $91 forward single #
face $-1 $92 $93 $48 $-1 $94 forward single #
face $-1 $95 $96 $49 $-1 $97 forward single #
face $-1 $98 $99 $50 $-1 $100 reversed single #
face $-1 $101 $102 $51 $-1 $103 forward single #
face $-1 $104 $105 $39 $-1 $106 reversed single #
loop $-1 $-1 $107 $52 #
plane-surface $-1 0 0 17.218472091455741 0 0 1 1 0 0 forward_v I I I I #
face $-1 $108 $109 $40 $-1 $110 reversed single #
loop $-1 $-1 $111 $53 #
plane-surface $-1 0 -38.584376130142843 2.0274256785087568 0 0 1 1 0 0 forward_v I I I I #
face $-1 $112 $113 $41 $-1 $114 reversed single #
loop $-1 $-1 $115 $54 #
plane-surface $-1 0 38.584376130142836 2.0274256785087568 0 0 1 1 0 0 forward_v I I I I #
face $-1 $116 $117 $42 $-1 $118 reversed single #
loop $-1 $-1 $119 $55 #
plane-surface $-1 -206.18408274411905 -21.428514801468481 77.331456478406167 0 -1 0 0.86602541151947299 0 -0.49999998660252726 forward_v I I I I #
face $-1 $120 $121 $43 $-1 $122 forward single #
loop $-1 $123 $124 $56 #
cone-surface $-1 -70.576871110888177 -29.19528356896738 9.2756824880923467 0.86602541151947299 0 -0.49999998660252726 0.24999999330126363 0 0.43301270575973649 1 I I 0 1 0.5 forward I I I I #
face $-1 $125 $126 $44 $-1 $127 forward single #
loop $-1 $128 $129 $57 #
cone-surface $-1 -70.576871110888177 -26.282745281155293 9.2756824880923467 0.86602541151947299 0 -0.49999998660252726 0.24999999330126363 0 0.43301270575973649 1 I I 0 1 0.5 forward I I I I #
face $-1 $130 $131 $45 $-1 $132 forward single #
loop $-1 $133 $134 $58 #
cone-surface $-1 -70.576871110888177 -23.370206993343206 9.2756824880923467 0.86602541151947299 0 -0.49999998660252726 0.24999999330126363 0 0.43301270575973649 1 I I 0 1 0.5 forward I I I I #
face $-1 $135 $136 $46 $-1 $137 reversed single #
loop $-1 $-1 $138 $59 #
plane-surface $-1 -206.18408274411905 8.8817841970012523e-016 77.331456478406167 0 1 0 -0.86602541151947299 0 0.49999998660252726 forward_v I I I I #
face $-1 $139 $140 $47 $-1 $141 forward single #
loop $-1 $142 $143 $60 #
cone-surface $-1 -70.576871110888177 1.9416921918747221 9.2756824880923467 0.86602541151947299 0 -0.49999998660252726 0.24999999330126363 0 0.43301270575973649 1 I I 0 1 0.5 forward I I I I #
face $-1 $144 $145 $48 $-1 $146 forward single #
loop $-1 $147 $148 $61 #
cone-surface $-1 -70.576871110888177 4.8542304796868123 9.2756824880923467 0.86602541151947299 0 -0.49999998660252726 0.24999999330126363 0 0.43301270575973649 1 I I 0 1 0.5 forward I I I I #
face $-1 $149 $150 $49 $-1 $151 forward single #
loop $-1 $152 $153 $62 #
cone-surface $-1 -70.576871110888177 7.7667687674988954 9.2756824880923467 0.86602541151947299 0 -0.49999998660252726 0.24999999330126363 0 0.43301270575973649 1 I I 0 1 0.5 forward I I I I #
face $-1 $154 $155 $50 $-1 $156 reversed single #
loop $-1 $-1 $157 $63 #
plane-surface $-1 34.7390084419781 -13.951630546607376 219.12152585775743 0 -1 0 -0.55919291073839883 0 -0.82903756765294845 forward_v I I I I #
face $-1 $158 $159 $51 $-1 $160 forward single #
loop $-1 $161 $162 $64 #
cone-surface $-1 67.806633950914005 -22.544303153724741 10.431000772556272 -0.55919291073839883 0 -0.82903756765294845 1.6580751353058969 0 -1.1183858214767977 1 I I 0 1 2 forward I I I I #
face $-1 $163 $164 $39 $-1 $165 reversed single #
loop $-1 $-1 $166 $65 #
plane-surface $-1 0 0 -17.218472091455741 0 0 1 1 0 0 forward_v I I I I #
coedge $-1 $167 $168 $169 $170 forward $66 $-1 #
face $-1 $171 $172 $40 $-1 $173 reversed single #
loop $-1 $-1 $174 $68 #
plane-surface $-1 0 -38.584376130142843 -5.2047845145118226 0 0 1 1 0 0 forward_v I I I I #
coedge $-1 $175 $176 $177 $178 reversed $69 $-1 #
face $-1 $179 $180 $41 $-1 $181 reversed single #
loop $-1 $-1 $182 $71 #
plane-surface $-1 0 38.584376130142836 -5.2047845145118226 0 0 1 1 0 0 forward_v I I I I #
coedge $-1 $183 $184 $185 $186 reversed $72 $-1 #
face $-1 $187 $188 $42 $-1 $189 forward single #
loop $-1 $-1 $190 $74 #
plane-surface $-1 -75.468611713003952 -26.282745281155293 1.8628467875795707 -0.86602541151947299 0 0.49999998660252726 0.49999998660252726 0 0.86602541151947299 forward_v I I I I #
coedge $-1 $191 $192 $193 $194 reversed $75 $-1 #
face $-1 $-1 $195 $43 $-1 $196 forward single #
loop $-1 $197 $198 $77 #
cone-surface $-1 -69.901411198908121 -29.19528356896738 8.8857055400164136 0.86602541151947299 0 -0.49999998660252726 0.12499999665063181 0 0.21650635287986825 1 I I -0.70710678118654746 0.70710678118654746 0.25 forward I I I I #
loop $-1 $-1 $199 $56 #
coedge $-1 $124 $124 $200 $201 reversed $78 $-1 #
face $-1 $-1 $202 $44 $-1 $203 forward single #
loop $-1 $204 $205 $80 #
cone-surface $-1 -69.901411198908121 -26.282745281155293 8.8857055400164136 0.86602541151947299 0 -0.49999998660252726 0.12499999665063181 0 0.21650635287986825 1 I I -0.70710678118654746 0.70710678118654746 0.25 forward I I I I #
loop $-1 $-1 $206 $57 #
coedge $-1 $129 $129 $207 $208 reversed $81 $-1 #
face $-1 $-1 $209 $45 $-1 $210 forward single #
loop $-1 $211 $212 $83 #
cone-surface $-1 -69.901411198908121 -23.370206993343206 8.8857055400164136 0.86602541151947299 0 -0.49999998660252726 0.12499999665063181 0 0.21650635287986825 1 I I -0.70710678118654746 0.70710678118654746 0.25 forward I I I I #
loop $-1 $-1 $213 $58 #
coedge $-1 $134 $134 $214 $215 reversed $84 $-1 #
face $-1 $216 $217 $46 $-1 $218 reversed single #
loop $-1 $-1 $219 $86 #
plane-surface $-1 -75.468611713003952 4.8542304796868123 1.8628467875795707 -0.86602541151947299 0 0.49999998660252726 0.49999998660252726 0 0.86602541151947299 forward_v I I I I #
coedge $-1 $220 $221 $222 $223 reversed $87 $-1 #
face $-1 $-1 $224 $47 $-1 $225 forward single #
loop $-1 $226 $227 $89 #
cone-surface $-1 -69.901411198908121 1.9416921918747221 8.8857055400164136 0.86602541151947299 0 -0.49999998660252726 0.12499999665063181 0 0.21650635287986825 1 I I -0.70710678118654746 0.70710678118654746 0.25 forward I I I I #
loop $-1 $-1 $228 $60 #
coedge $-1 $143 $143 $229 $230 reversed $90 $-1 #
face $-1 $-1 $231 $48 $-1 $232 forward single #
loop $-1 $233 $234 $92 #
cone-surface $-1 -69.901411198908121 4.8542304796868123 8.8857055400164136 0.86602541151947299 0 -0.49999998660252726 0.12499999665063181 0 0.21650635287986825 1 I I -0.70710678118654746 0.70710678118654746 0.25 forward I I I I #
loop $-1 $-1 $235 $61 #
coedge $-1 $148 $148 $236 $237 reversed $93 $-1 #
face $-1 $-1 $238 $49 $-1 $239 forward single #
loop $-1 $240 $241 $95 #
cone-surface $-1 -69.901411198908121 7.7667687674988954 8.8857055400164136 0.86602541151947299 0 -0.49999998660252726 0.12499999665063181 0 0.21650635287986825 1 I I -0.70710678118654746 0.70710678118654746 0.25 forward I I I I #
loop $-1 $-1 $242 $62 #
coedge $-1 $153 $153 $243 $244 reversed $96 $-1 #
face $-1 $245 $246 $50 $-1 $247 reversed single #
loop $-1 $-1 $248 $98 #
plane-surface $-1 -49.664016864383285 -22.544303153724741 93.988897280370239 0.55919291073839883 0 0.82903756765294845 0.82903756765294845 0 -0.55919291073839883 forward_v I I I I #
coedge $-1 $249 $250 $251 $252 reversed $99 $-1 #
face $-1 $-1 $253 $51 $-1 $254 forward single #
loop $-1 $255 $256 $101 #
cone-surface $-1 65.243360682292902 -22.544303153724741 6.6307919447272745 -0.55919291073839883 0 -0.82903756765294845 0.82903756765294845 0 -0.55919291073839883 1 I I -0.70710678118654746 0.70710678118654746 1 forward I I I I #
loop $-1 $-1 $257 $64 #
coedge $-1 $162 $162 $258 $259 reversed $102 $-1 #
face $-1 $260 $261 $39 $-1 $262 reversed single #
loop $-1 $-1 $263 $104 #
plane-surface $-1 0 -46.031776499443588 0 0 1 0 0 0 1 forward_v I I I I #
coedge $-1 $264 $265 $266 $267 forward $105 $-1 #
coedge $-1 $268 $107 $269 $270 forward $66 $-1 #
coedge $-1 $107 $268 $271 $272 forward $66 $-1 #
coedge $-1 $273 $274 $107 $170 reversed $275 $-1 #
edge $-1 $276 -46.031776499443588 $277 46.031776499443588 $169 $278 forward 7 unknown #
face $-1 $279 $280 $40 $-1 $281 reversed single #
loop $-1 $-1 $282 $108 #
plane-surface $-1 0 -31.136975760842102 -1.5886794180015329 0 -1 0 0 0 -1 forward_v I I I I #
coedge $-1 $283 $284 $285 $286 reversed $109 $-1 #
coedge $-1 $287 $111 $288 $289 forward $69 $-1 #
coedge $-1 $111 $287 $290 $291 reversed $69 $-1 #
coedge $-1 $292 $293 $111 $178 forward $294 $-1 #
edge $-1 $295 11.84478769577068 $296 26.739588434372166 $177 $297 forward 7 unknown #
face $-1 $298 $299 $41 $-1 $300 reversed single #
loop $-1 $-1 $301 $112 #
plane-surface $-1 0 31.136975760842091 -1.5886794180015329 0 1 0 0 0 1 forward_v I I I I #
coedge $-1 $302 $303 $304 $305 reversed $113 $-1 #
coedge $-1 $306 $115 $307 $308 reversed $72 $-1 #
coedge $-1 $115 $306 $309 $310 forward $72 $-1 #
coedge $-1 $311 $312 $115 $186 forward $299 $-1 #
edge $-1 $313 -26.739588434372163 $314 -11.844787695770673 $185 $315 forward 7 unknown #
face $-1 $316 $317 $42 $-1 $318 reversed single #
loop $-1 $-1 $319 $116 #
plane-surface $-1 0 0 17.218472091455741 0 0 1 1 0 0 forward_v I I I I #
coedge $-1 $320 $321 $322 $323 reversed $117 $-1 #
coedge $-1 $192 $119 $324 $325 reversed $75 $-1 #
coedge $-1 $119 $191 $320 $326 reversed $75 $-1 #
coedge $-1 $322 $327 $119 $194 forward $317 $-1 #
edge $-1 $328 21.447256147747343 $329 36.802881451623492 $193 $330 forward 7 unknown #
loop $-1 $-1 $200 $120 #
plane-surface $-1 -75.468611713003952 -26.282745281155293 1.8628467875795707 -0.86602541151947299 0 0.49999998660252726 0.49999998660252726 0 0.86602541151947299 forward_v I I I I #
loop $-1 $-1 $331 $77 #
coedge $-1 $198 $198 $199 $332 reversed $121 $-1 #
coedge $-1 $199 $199 $198 $332 forward $123 $-1 #
coedge $-1 $200 $200 $124 $201 forward $195 $-1 #
edge $-1 $333 0 $333 6.2831853071796004 $200 $334 forward 7 unknown #
loop $-1 $-1 $207 $125 #
plane-surface $-1 -75.468611713003952 -26.282745281155293 1.8628467875795707 -0.86602541151947299 0 0.49999998660252726 0.49999998660252726 0 0.86602541151947299 forward_v I I I I #
loop $-1 $-1 $335 $80 #
coedge $-1 $205 $205 $206 $336 reversed $126 $-1 #
coedge $-1 $206 $206 $205 $336 forward $128 $-1 #
coedge $-1 $207 $207 $129 $208 forward $202 $-1 #
edge $-1 $337 0 $337 6.2831853071796004 $207 $338 forward 7 unknown #
loop $-1 $-1 $214 $130 #
plane-surface $-1 -75.468611713003952 -26.282745281155293 1.8628467875795707 -0.86602541151947299 0 0.49999998660252726 0.49999998660252726 0 0.86602541151947299 forward_v I I I I #
loop $-1 $-1 $339 $83 #
coedge $-1 $212 $212 $213 $340 reversed $131 $-1 #
coedge $-1 $213 $213 $212 $340 forward $133 $-1 #
coedge $-1 $214 $214 $134 $215 forward $209 $-1 #
edge $-1 $341 0 $341 6.2831853071796004 $214 $342 forward 7 unknown #
face $-1 $343 $344 $46 $-1 $345 reversed single #
loop $-1 $-1 $346 $135 #
plane-surface $-1 -206.18408274411905 9.7084609593736246 77.331456478406167 0 -1 0 0.86602541151947299 0 -0.49999998660252726 forward_v I I I I #
coedge $-1 $347 $348 $349 $350 reversed $136 $-1 #
coedge $-1 $221 $138 $351 $352 reversed $87 $-1 #
coedge $-1 $138 $220 $347 $353 reversed $87 $-1 #
coedge $-1 $349 $354 $138 $223 forward $355 $-1 #
edge $-1 $356 27.623429659055589 $357 36.489003745086734 $222 $358 forward 7 unknown #
loop $-1 $-1 $229 $139 #
plane-surface $-1 -75.468611713003952 4.8542304796868123 1.8628467875795707 -0.86602541151947299 0 0.49999998660252726 0.49999998660252726 0 0.86602541151947299 forward_v I I I I #
loop $-1 $-1 $359 $89 #
coedge $-1 $227 $227 $228 $360 reversed $140 $-1 #
coedge $-1 $228 $228 $227 $360 forward $142 $-1 #
coedge $-1 $229 $229 $143 $230 forward $224 $-1 #
edge $-1 $361 0 $361 6.2831853071796004 $229 $362 forward 7 unknown #
loop $-1 $-1 $236 $144 #
plane-surface $-1 -75.468611713003952 4.8542304796868123 1.8628467875795707 -0.86602541151947299 0 0.49999998660252726 0.49999998660252726 0 0.86602541151947299 forward_v I I I I #
loop $-1 $-1 $363 $92 #
coedge $-1 $234 $234 $235 $364 reversed $145 $-1 #
coedge $-1 $235 $235 $234 $364 forward $147 $-1 #
coedge $-1 $236 $236 $148 $237 forward $231 $-1 #
edge $-1 $365 0 $365 6.2831853071796004 $236 $366 forward 7 unknown #
loop $-1 $-1 $243 $149 #
plane-surface $-1 -75.468611713003952 4.8542304796868123 1.8628467875795707 -0.86602541151947299 0 0.49999998660252726 0.49999998660252726 0 0.86602541151947299 forward_v I I I I #
loop $-1 $-1 $367 $95 #
coedge $-1 $241 $241 $242 $368 reversed $150 $-1 #
coedge $-1 $242 $242 $241 $368 forward $152 $-1 #
coedge $-1 $243 $243 $153 $244 forward $238 $-1 #
edge $-1 $369 0 $369 6.2831853071796004 $243 $370 forward 7 unknown #
face $-1 $371 $372 $50 $-1 $373 forward single #
loop $-1 $-1 $374 $154 #
plane-surface $-1 34.7390084419781 -31.136975760842105 219.12152585775743 0 1 0 0.55919291073839883 0 0.82903756765294845 forward_v I I I I #
coedge $-1 $375 $376 $377 $378 reversed $155 $-1 #
coedge $-1 $250 $157 $379 $380 reversed $99 $-1 #
coedge $-1 $157 $249 $375 $381 reversed $99 $-1 #
coedge $-1 $377 $382 $157 $252 forward $372 $-1 #
edge $-1 $383 -58.099107492014888 $384 -46.78331268360035 $251 $385 forward 7 unknown #
loop $-1 $-1 $258 $158 #
plane-surface $-1 -49.664016864383285 -22.544303153724741 93.988897280370239 0.55919291073839883 0 0.82903756765294845 0.82903756765294845 0 -0.55919291073839883 forward_v I I I I #
loop $-1 $-1 $386 $101 #
coedge $-1 $256 $256 $257 $387 reversed $159 $-1 #
coedge $-1 $257 $257 $256 $387 forward $161 $-1 #
coedge $-1 $258 $258 $162 $259 forward $253 $-1 #
edge $-1 $388 0 $388 6.2831853071796004 $258 $389 forward 7 unknown #
face $-1 $390 $391 $39 $-1 $392 reversed single #
loop $-1 $-1 $393 $163 #
plane-surface $-1 -75.468611713003938 0 0 1 0 0 0 0 -1 forward_v I I I I #
coedge $-1 $394 $271 $395 $396 forward $164 $-1 #
coedge $-1 $397 $166 $394 $398 forward $105 $-1 #
coedge $-1 $166 $397 $399 $400 forward $105 $-1 #
coedge $-1 $274 $273 $166 $267 reversed $275 $-1 #
edge $-1 $401 -46.031776499443588 $402 46.031776499443588 $266 $403 forward 7 unknown #
coedge $-1 $168 $167 $404 $405 forward $66 $-1 #
coedge $-1 $406 $407 $167 $270 reversed $391 $-1 #
edge $-1 $277 -75.468611713003938 $408 75.468611713003938 $269 $409 forward 7 unknown #
coedge $-1 $263 $410 $168 $272 reversed $164 $-1 #
edge $-1 $411 -75.468611713003938 $276 75.468611713003938 $271 $412 forward 7 unknown #
coedge $-1 $266 $169 $410 $413 forward $275 $-1 #
coedge $-1 $169 $266 $406 $414 reversed $275 $-1 #
loop $-1 $-1 $273 $390 #
vertex $-1 $170 $415 #
vertex $-1 $170 $416 #
straight-curve $-1 75.468611713003938 0 17.218472091455741 0 1 0 I I #
face $-1 $417 $418 $40 $-1 $419 reversed single #
loop $-1 $-1 $420 $171 #
plane-surface $-1 -75.468611713003938 0 0 1 0 0 0 0 -1 forward_v I I I I #
coedge $-1 $421 $288 $293 $422 reversed $172 $-1 #
coedge $-1 $423 $174 $424 $425 reversed $109 $-1 #
coedge $-1 $174 $423 $421 $426 forward $109 $-1 #
coedge $-1 $293 $292 $174 $286 forward $294 $-1 #
edge $-1 $427 -26.739588434372166 $428 -11.84478769577068 $285 $429 forward 7 unknown #
coedge $-1 $176 $175 $420 $430 reversed $69 $-1 #
coedge $-1 $282 $431 $175 $289 reversed $172 $-1 #
edge $-1 $295 -75.468611713003938 $432 75.468611713003938 $288 $433 forward 7 unknown #
coedge $-1 $434 $435 $176 $291 forward $418 $-1 #
edge $-1 $296 -75.468611713003938 $436 75.468611713003938 $290 $437 forward 7 unknown #
coedge $-1 $285 $177 $435 $438 forward $294 $-1 #
coedge $-1 $177 $285 $282 $422 forward $294 $-1 #
loop $-1 $-1 $177 $417 #
vertex $-1 $178 $439 #
vertex $-1 $438 $440 #
straight-curve $-1 75.468611713003938 -19.292188065071421 2.0274256785087568 0 -1 0 I I #
face $-1 $441 $442 $41 $-1 $443 reversed single #
loop $-1 $-1 $185 $179 #
plane-surface $-1 75.468611713003938 0 0 -1 0 0 0 0 1 forward_v I I I I #
coedge $-1 $444 $309 $445 $446 reversed $180 $-1 #
coedge $-1 $447 $182 $444 $448 forward $113 $-1 #
coedge $-1 $182 $447 $449 $450 reversed $113 $-1 #
coedge $-1 $312 $311 $182 $305 forward $299 $-1 #
edge $-1 $451 11.844787695770673 $452 26.739588434372163 $304 $453 forward 7 unknown #
coedge $-1 $184 $183 $454 $455 reversed $72 $-1 #
coedge $-1 $456 $457 $183 $308 forward $458 $-1 #
edge $-1 $459 -75.468611713003938 $313 75.468611713003938 $307 $460 forward 7 unknown #
coedge $-1 $301 $461 $184 $310 reversed $180 $-1 #
edge $-1 $462 -75.468611713003938 $314 75.468611713003938 $309 $463 forward 7 unknown #
coedge $-1 $304 $185 $461 $464 forward $299 $-1 #
coedge $-1 $185 $304 $456 $465 reversed $299 $-1 #
vertex $-1 $465 $466 #
vertex $-1 $186 $467 #
straight-curve $-1 75.468611713003938 19.292188065071418 2.0274256785087568 0 -1 0 I I #
face $-1 $-1 $468 $42 $-1 $469 forward single #
loop $-1 $-1 $470 $187 #
plane-surface $-1 -75.468611713003938 0 0 1 0 0 0 0 -1 forward_v I I I I #
coedge $-1 $471 $472 $473 $474 forward $188 $-1 #
coedge $-1 $475 $190 $192 $326 forward $117 $-1 #
coedge $-1 $190 $475 $476 $477 forward $117 $-1 #
coedge $-1 $470 $193 $190 $323 forward $317 $-1 #
edge $-1 $329 8.2871421608908342 $478 17.995603120264459 $322 $479 forward 7 unknown #
coedge $-1 $472 $471 $191 $325 forward $188 $-1 #
edge $-1 $480 -36.489003745086734 $328 -27.623429659055589 $324 $481 forward 7 unknown #
edge $-1 $329 2.8450313176714033e-014 $480 17.731148647167487 $192 $482 forward 7 unknown #
coedge $-1 $193 $470 $472 $483 reversed $317 $-1 #
vertex $-1 $483 $484 #
vertex $-1 $194 $485 #
straight-curve $-1 -75.468611713003938 -21.428514801468481 38.665728239203084 0 0 -1 I I #
coedge $-1 $331 $331 $-1 $486 reversed $197 $-1 #
edge $-1 $487 0 $487 6.2831853071796004 $198 $488 forward 7 unknown #
vertex $-1 $201 $489 #
ellipse-curve $-1 -71.035824669988372 -29.19528356896738 9.5406594395176558 -0.86602541151947299 0 0.49999998660252726 0.24999999330126363 0 0.43301270575973649 1 I I #
coedge $-1 $335 $335 $-1 $490 reversed $204 $-1 #
edge $-1 $491 0 $491 6.2831853071796004 $205 $492 forward 7 unknown #
vertex $-1 $208 $493 #
ellipse-curve $-1 -71.035824669988372 -26.282745281155293 9.5406594395176558 -0.86602541151947299 0 0.49999998660252726 0.24999999330126363 0 0.43301270575973649 1 I I #
coedge $-1 $339 $339 $-1 $494 reversed $211 $-1 #
edge $-1 $495 0 $495 6.2831853071796004 $212 $496 forward 7 unknown #
vertex $-1 $215 $497 #
ellipse-curve $-1 -71.035824669988372 -23.370206993343206 9.5406594395176558 -0.86602541151947299 0 0.49999998660252726 0.24999999330126363 0 0.43301270575973649 1 I I #
face $-1 $-1 $355 $46 $-1 $498 forward single #
loop $-1 $-1 $499 $216 #
plane-surface $-1 -75.468611713003938 0 0 1 0 0 0 0 -1 forward_v I I I I #
coedge $-1 $500 $501 $502 $503 reversed $217 $-1 #
coedge $-1 $504 $219 $221 $353 forward $136 $-1 #
coedge $-1 $219 $504 $500 $505 forward $136 $-1 #
coedge $-1 $502 $222 $219 $350 forward $355 $-1 #
edge $-1 $357 -2.4271152398434053 $506 7.2813457195302185 $349 $507 forward 7 unknown #
coedge $-1 $508 $509 $220 $352 forward $344 $-1 #
edge $-1 $510 -36.802881451623492 $356 -21.447256147747343 $351 $511 forward 7 unknown #
edge $-1 $357 -17.731148647167487 $510 -2.8450313176714033e-014 $221 $512 forward 7 unknown #
coedge $-1 $222 $502 $508 $513 forward $355 $-1 #
loop $-1 $-1 $502 $343 #
vertex $-1 $352 $514 #
vertex $-1 $223 $515 #
straight-curve $-1 -103.09204137205953 8.8817841970012523e-016 17.218472091455741 1 0 0 I I #
coedge $-1 $359 $359 $-1 $516 reversed $226 $-1 #
edge $-1 $517 0 $517 6.2831853071796004 $227 $518 forward 7 unknown #
vertex $-1 $230 $519 #
ellipse-curve $-1 -71.035824669988372 1.9416921918747221 9.5406594395176558 -0.86602541151947299 0 0.49999998660252726 0.24999999330126363 0 0.43301270575973649 1 I I #
coedge $-1 $363 $363 $-1 $520 reversed $233 $-1 #
edge $-1 $521 0 $521 6.2831853071796004 $234 $522 forward 7 unknown #
vertex $-1 $237 $523 #
ellipse-curve $-1 -71.035824669988372 4.8542304796868123 9.5406594395176558 -0.86602541151947299 0 0.49999998660252726 0.24999999330126363 0 0.43301270575973649 1 I I #
coedge $-1 $367 $367 $-1 $524 reversed $240 $-1 #
edge $-1 $525 0 $525 6.2831853071796004 $241 $526 forward 7 unknown #
vertex $-1 $244 $527 #
ellipse-curve $-1 -71.035824669988372 7.7667687674988954 9.5406594395176558 -0.86602541151947299 0 0.49999998660252726 0.24999999330126363 0 0.43301270575973649 1 I I #
face $-1 $-1 $528 $50 $-1 $529 reversed single #
loop $-1 $-1 $251 $245 #
plane-surface $-1 0 0 17.218472091455741 0 0 1 1 0 0 forward_v I I I I #
coedge $-1 $530 $531 $532 $533 reversed $246 $-1 #
coedge $-1 $534 $248 $250 $381 forward $155 $-1 #
coedge $-1 $248 $534 $530 $535 forward $155 $-1 #
coedge $-1 $532 $251 $248 $378 forward $372 $-1 #
edge $-1 $384 2.6794789697450057 $536 19.864824183979735 $377 $537 forward 7 unknown #
coedge $-1 $538 $539 $249 $380 forward $528 $-1 #
edge $-1 $540 -99.974890954869878 $383 -92.342290837422979 $379 $541 forward 7 unknown #
edge $-1 $384 137.28790854580268 $540 150.9372234260079 $250 $542 forward 7 unknown #
coedge $-1 $251 $532 $538 $543 forward $372 $-1 #
vertex $-1 $252 $544 #
vertex $-1 $252 $545 #
straight-curve $-1 17.36950422098905 -13.951630546607376 17.218472091455737 -1 0 0 I I #
coedge $-1 $386 $386 $-1 $546 reversed $255 $-1 #
edge $-1 $547 0 $547 6.2831853071796004 $256 $548 forward 7 unknown #
vertex $-1 $259 $549 #
ellipse-curve $-1 69.810714308796676 -22.544303153724741 13.402172032732286 0.55919291073839883 0 0.82903756765294845 1.6580751353058969 0 -1.1183858214767977 1 I I #
face $-1 $-1 $275 $39 $-1 $550 reversed single #
loop $-1 $-1 $406 $260 #
plane-surface $-1 0 46.031776499443588 0 0 -1 0 0 0 -1 forward_v I I I I #
coedge $-1 $551 $404 $407 $552 forward $261 $-1 #
coedge $-1 $410 $263 $264 $398 reversed $164 $-1 #
coedge $-1 $404 $551 $263 $396 reversed $261 $-1 #
edge $-1 $411 -17.218472091455741 $553 17.218472091455741 $395 $554 forward 7 unknown #
coedge $-1 $265 $264 $551 $555 forward $105 $-1 #
edge $-1 $402 -75.468611713003938 $553 75.468611713003938 $394 $556 forward 7 unknown #
coedge $-1 $407 $406 $265 $400 reversed $391 $-1 #
edge $-1 $557 -75.468611713003938 $401 75.468611713003938 $399 $558 forward 7 unknown #
vertex $-1 $267 $559 #
vertex $-1 $413 $560 #
straight-curve $-1 75.468611713003938 0 -17.218472091455741 0 -1 0 I I #
coedge $-1 $393 $395 $268 $405 reversed $261 $-1 #
edge $-1 $408 -46.031776499443588 $411 46.031776499443588 $404 $561 forward 7 unknown #
coedge $-1 $399 $269 $274 $414 forward $391 $-1 #
coedge $-1 $269 $399 $393 $552 reversed $391 $-1 #
vertex $-1 $270 $562 #
straight-curve $-1 0 46.031776499443588 17.218472091455741 -1 0 0 I I #
coedge $-1 $271 $394 $273 $413 reversed $164 $-1 #
vertex $-1 $405 $563 #
straight-curve $-1 0 -46.031776499443588 17.218472091455741 1 0 0 I I #
edge $-1 $276 -17.218472091455741 $402 17.218472091455741 $273 $564 forward 7 unknown #
edge $-1 $277 -17.218472091455741 $401 17.218472091455741 $274 $565 forward 7 unknown #
point $-1 75.468611713003938 -46.031776499443588 17.218472091455741 #
point $-1 75.468611713003938 46.031776499443588 17.218472091455741 #
face $-1 $-1 $294 $40 $-1 $566 reversed single #
loop $-1 $-1 $290 $279 #
plane-surface $-1 0 -46.031776499443588 0 0 1 0 0 0 1 forward_v I I I I #
coedge $-1 $567 $568 $287 $430 forward $280 $-1 #
coedge $-1 $431 $282 $284 $426 reversed $172 $-1 #
edge $-1 $428 -4.4104448055110561 $295 2.8217653875095232 $293 $569 forward 7 unknown #
coedge $-1 $284 $283 $570 $571 reversed $109 $-1 #
coedge $-1 $435 $434 $283 $425 forward $418 $-1 #
edge $-1 $572 -75.468611713003938 $427 75.468611713003938 $424 $573 forward 7 unknown #
edge $-1 $574 -75.468611713003938 $428 75.468611713003938 $421 $575 forward 7 unknown #
vertex $-1 $425 $576 #
vertex $-1 $286 $577 #
straight-curve $-1 75.468611713003938 -19.292188065071421 -5.2047845145118226 0 1 0 I I #
edge $-1 $436 -26.739588434372166 $432 -11.84478769577068 $420 $578 forward 7 unknown #
coedge $-1 $288 $421 $567 $579 reversed $172 $-1 #
vertex $-1 $430 $580 #
straight-curve $-1 0 -31.136975760842102 2.0274256785087568 -1 0 0 I I #
coedge $-1 $424 $290 $568 $581 forward $418 $-1 #
coedge $-1 $290 $424 $292 $438 reversed $418 $-1 #
vertex $-1 $581 $582 #
straight-curve $-1 0 -46.031776499443588 2.0274256785087568 -1 0 0 I I #
edge $-1 $296 -2.0274256785087568 $427 5.2047845145118226 $292 $583 forward 7 unknown #
point $-1 75.468611713003938 -31.136975760842102 2.0274256785087568 #
point $-1 75.468611713003938 -46.031776499443588 2.0274256785087568 #
face $-1 $-1 $458 $41 $-1 $584 reversed single #
loop $-1 $-1 $454 $298 #
plane-surface $-1 -75.468611713003938 0 0 1 0 0 0 0 -1 forward_v I I I I #
coedge $-1 $461 $301 $302 $448 reversed $180 $-1 #
coedge $-1 $454 $585 $301 $446 forward $442 $-1 #
edge $-1 $586 -4.4104448055110561 $462 2.8217653875095232 $445 $587 forward 7 unknown #
coedge $-1 $303 $302 $585 $588 reversed $113 $-1 #
edge $-1 $451 -75.468611713003938 $586 75.468611713003938 $444 $589 forward 7 unknown #
coedge $-1 $457 $456 $303 $450 forward $458 $-1 #
edge $-1 $452 -75.468611713003938 $590 75.468611713003938 $449 $591 forward 7 unknown #
vertex $-1 $305 $592 #
vertex $-1 $450 $593 #
straight-curve $-1 75.468611713003938 19.292188065071418 -5.2047845145118226 0 1 0 I I #
coedge $-1 $594 $445 $306 $455 forward $442 $-1 #
edge $-1 $462 11.844787695770673 $459 26.739588434372163 $454 $595 forward 7 unknown #
coedge $-1 $449 $307 $312 $465 forward $458 $-1 #
coedge $-1 $307 $449 $594 $596 reversed $458 $-1 #
loop $-1 $-1 $307 $441 #
vertex $-1 $596 $597 #
straight-curve $-1 0 46.031776499443588 2.0274256785087568 1 0 0 I I #
coedge $-1 $309 $444 $311 $464 reversed $180 $-1 #
vertex $-1 $455 $598 #
straight-curve $-1 0 31.136975760842091 2.0274256785087568 1 0 0 I I #
edge $-1 $314 -2.8217653875095232 $451 4.4104448055110561 $311 $599 forward 7 unknown #
edge $-1 $313 -2.0274256785087568 $452 5.2047845145118226 $312 $600 forward 7 unknown #
point $-1 75.468611713003938 46.031776499443581 2.0274256785087568 #
point $-1 75.468611713003938 31.136975760842091 2.0274256785087568 #
loop $-1 $-1 $476 $316 #
plane-surface $-1 0 -31.136975760842102 -1.5886794180015329 0 -1 0 0 0 -1 forward_v I I I I #
coedge $-1 $327 $322 $601 $602 forward $317 $-1 #
coedge $-1 $324 $319 $475 $603 forward $188 $-1 #
coedge $-1 $319 $324 $327 $483 forward $188 $-1 #
coedge $-1 $601 $476 $319 $474 reversed $468 $-1 #
edge $-1 $604 27.623429659055589 $605 36.489003745086734 $319 $606 forward 7 unknown #
coedge $-1 $321 $320 $471 $603 reversed $117 $-1 #
coedge $-1 $473 $601 $321 $477 reversed $468 $-1 #
edge $-1 $605 -17.731148647167487 $478 -2.8450313176714033e-014 $476 $607 forward 7 unknown #
vertex $-1 $602 $608 #
straight-curve $-1 -75.468611713003938 -13.141372640577647 1.8628467875796035 0 -1 0 I I #
vertex $-1 $325 $609 #
straight-curve $-1 -103.09204137205953 -21.428514801468481 17.218472091455741 -1 0 0 I I #
straight-curve $-1 -75.468611713003952 -21.428514801468481 1.8628467875795707 0.49999998660252726 0 0.86602541151947299 I I #
edge $-1 $328 21.428514801468481 $604 31.136975760842105 $327 $610 forward 7 unknown #
point $-1 -75.468611713003938 -21.428514801468481 17.218472091455741 #
point $-1 -75.468611713003938 -21.428514801468481 1.8628467875795953 #
edge $-1 $611 1 $611 0 $331 $-1 forward 7 unknown #
vertex $-1 $332 $612 #
ellipse-curve $-1 -70.117917551787983 -29.19528356896738 9.0107055366670448 -0.86602541151947299 0 0.49999998660252726 0.24999999330126363 0 0.43301270575973649 1 I I #
point $-1 -70.785824676687085 -29.19528356896738 9.9736721452773871 #
edge $-1 $613 1 $613 0 $335 $-1 forward 7 unknown #
vertex $-1 $336 $614 #
ellipse-curve $-1 -70.117917551787983 -26.282745281155293 9.0107055366670448 -0.86602541151947299 0 0.49999998660252726 0.24999999330126363 0 0.43301270575973649 1 I I #
point $-1 -70.785824676687085 -26.282745281155293 9.9736721452773871 #
edge $-1 $615 1 $615 0 $339 $-1 forward 7 unknown #
vertex $-1 $340 $616 #
ellipse-curve $-1 -70.117917551787983 -23.370206993343206 9.0107055366670448 -0.86602541151947299 0 0.49999998660252726 0.24999999330126363 0 0.43301270575973649 1 I I #
point $-1 -70.785824676687085 -23.370206993343206 9.9736721452773871 #
plane-surface $-1 0 0 17.218472091455741 0 0 1 1 0 0 forward_v I I I I #
coedge $-1 $509 $508 $501 $617 forward $344 $-1 #
coedge $-1 $501 $346 $348 $505 reversed $217 $-1 #
coedge $-1 $346 $500 $499 $617 reversed $217 $-1 #
coedge $-1 $354 $349 $346 $503 forward $355 $-1 #
edge $-1 $506 -36.489003745086734 $618 -27.623429659055589 $502 $619 forward 7 unknown #
coedge $-1 $348 $347 $509 $620 reversed $136 $-1 #
edge $-1 $621 2.8450313176714033e-014 $506 17.731148647167487 $500 $622 forward 7 unknown #
vertex $-1 $350 $623 #
straight-curve $-1 -66.603037626972792 2.4271152398434062 17.218472091455741 0 1 0 I I #
coedge $-1 $499 $351 $354 $513 reversed $344 $-1 #
coedge $-1 $351 $499 $504 $620 forward $344 $-1 #
vertex $-1 $352 $624 #
straight-curve $-1 -75.468611713003938 8.8817841970012523e-016 38.665728239203084 0 0 1 I I #
straight-curve $-1 -75.468611713003952 8.8817841970012523e-016 1.8628467875795707 -0.49999998660252726 0 -0.86602541151947299 I I #
edge $-1 $618 -9.7084609593736246 $356 -8.8817841970012523e-016 $508 $625 forward 7 unknown #
point $-1 -75.468611713003938 8.8817841970012523e-016 17.218472091455741 #
point $-1 -66.603037626972792 8.8817841970012523e-016 17.218472091455741 #
edge $-1 $626 1 $626 0 $359 $-1 forward 7 unknown #
vertex $-1 $360 $627 #
ellipse-curve $-1 -70.117917551787983 1.9416921918747221 9.0107055366670448 -0.86602541151947299 0 0.49999998660252726 0.24999999330126363 0 0.43301270575973649 1 I I #
point $-1 -70.785824676687085 1.9416921918747221 9.9736721452773871 #
edge $-1 $628 1 $628 0 $363 $-1 forward 7 unknown #
vertex $-1 $364 $629 #
ellipse-curve $-1 -70.117917551787983 4.8542304796868123 9.0107055366670448 -0.86602541151947299 0 0.49999998660252726 0.24999999330126363 0 0.43301270575973649 1 I I #
point $-1 -70.785824676687085 4.8542304796868123 9.9736721452773871 #
edge $-1 $630 1 $630 0 $367 $-1 forward 7 unknown #
vertex $-1 $368 $631 #
ellipse-curve $-1 -70.117917551787983 7.7667687674988954 9.0107055366670448 -0.86602541151947299 0 0.49999998660252726 0.24999999330126363 0 0.43301270575973649 1 I I #
point $-1 -70.785824676687085 7.7667687674988954 9.9736721452773871 #
loop $-1 $-1 $379 $371 #
plane-surface $-1 75.468611713003938 0 0 -1 0 0 0 0 1 forward_v I I I I #
coedge $-1 $531 $374 $376 $535 reversed $246 $-1 #
coedge $-1 $374 $530 $632 $633 reversed $246 $-1 #
coedge $-1 $382 $377 $374 $533 forward $372 $-1 #
edge $-1 $536 46.78331268360035 $634 58.099107492014888 $532 $635 forward 7 unknown #
coedge $-1 $376 $375 $539 $636 reversed $155 $-1 #
edge $-1 $637 -150.9372234260079 $536 -137.28790854580268 $530 $638 forward 7 unknown #
vertex $-1 $378 $639 #
straight-curve $-1 64.1528169045894 -11.27215157686237 17.218472091455737 0 -1 0 I I #
coedge $-1 $632 $379 $382 $543 reversed $528 $-1 #
coedge $-1 $379 $632 $534 $636 forward $528 $-1 #
vertex $-1 $380 $640 #
straight-curve $-1 75.468611713003938 -13.951630546607376 109.56076292887872 0 0 1 I I #
straight-curve $-1 -49.664016864383285 -13.951630546607376 93.988897280370239 0.82903756765294845 0 -0.55919291073839883 I I #
edge $-1 $634 -31.136975760842105 $383 -13.951630546607376 $538 $641 forward 7 unknown #
point $-1 75.468611713003938 -13.951630546607376 17.218472091455741 #
point $-1 64.1528169045894 -13.951630546607376 17.218472091455737 #
edge $-1 $642 1 $642 0 $386 $-1 forward 7 unknown #
vertex $-1 $387 $643 #
ellipse-curve $-1 65.802553593031305 -22.544303153724741 7.4598295123802227 0.55919291073839883 0 0.82903756765294845 1.6580751353058969 0 -1.1183858214767977 1 I I #
point $-1 71.468789444102597 -22.544303153724741 12.283786211255528 #
plane-surface $-1 75.468611713003938 0 0 -1 0 0 0 0 1 forward_v I I I I #
coedge $-1 $395 $393 $397 $555 reversed $261 $-1 #
edge $-1 $408 -17.218472091455741 $557 17.218472091455741 $407 $644 forward 7 unknown #
vertex $-1 $555 $645 #
straight-curve $-1 -75.468611713003938 -46.031776499443588 0 0 0 -1 I I #
edge $-1 $553 -46.031776499443588 $557 46.031776499443588 $551 $646 forward 7 unknown #
straight-curve $-1 0 -46.031776499443588 -17.218472091455741 -1 0 0 I I #
vertex $-1 $400 $647 #
straight-curve $-1 0 46.031776499443588 -17.218472091455741 1 0 0 I I #
point $-1 75.468611713003938 46.031776499443588 -17.218472091455741 #
point $-1 75.468611713003938 -46.031776499443588 -17.218472091455741 #
straight-curve $-1 -75.468611713003938 0 17.218472091455741 0 -1 0 I I #
point $-1 -75.468611713003938 46.031776499443588 17.218472091455741 #
point $-1 -75.468611713003938 -46.031776499443588 17.218472091455741 #
straight-curve $-1 75.468611713003938 -46.031776499443588 0 0 0 -1 I I #
straight-curve $-1 75.468611713003938 46.031776499443588 0 0 0 -1 I I #
plane-surface $-1 75.468611713003938 0 0 -1 0 0 0 0 1 forward_v I I I I #
coedge $-1 $570 $420 $431 $579 forward $280 $-1 #
coedge $-1 $420 $570 $434 $581 reversed $280 $-1 #
straight-curve $-1 75.468611713003938 -31.136975760842102 -0.79433970900076645 0 0 1 I I #
coedge $-1 $568 $567 $423 $571 forward $280 $-1 #
edge $-1 $574 11.84478769577068 $572 26.739588434372166 $570 $648 forward 7 unknown #
vertex $-1 $425 $649 #
straight-curve $-1 0 -46.031776499443588 -5.2047845145118226 1 0 0 I I #
vertex $-1 $571 $650 #
straight-curve $-1 0 -31.136975760842102 -5.2047845145118226 1 0 0 I I #
point $-1 75.468611713003938 -46.031776499443588 -5.2047845145118226 #
point $-1 75.468611713003938 -31.136975760842102 -5.2047845145118226 #
straight-curve $-1 -75.468611713003938 -19.292188065071421 2.0274256785087568 0 1 0 I I #
edge $-1 $432 -2.8217653875095232 $574 4.4104448055110561 $567 $651 forward 7 unknown #
point $-1 -75.468611713003938 -31.136975760842102 2.0274256785087568 #
edge $-1 $436 -2.0274256785087568 $572 5.2047845145118226 $568 $652 forward 7 unknown #
point $-1 -75.468611713003938 -46.031776499443588 2.0274256785087568 #
straight-curve $-1 75.468611713003938 -46.031776499443588 0 0 0 -1 I I #
plane-surface $-1 0 46.031776499443588 0 0 -1 0 0 0 -1 forward_v I I I I #
coedge $-1 $445 $594 $447 $588 forward $442 $-1 #
vertex $-1 $588 $653 #
straight-curve $-1 -75.468611713003938 31.136975760842091 -0.79433970900076645 0 0 1 I I #
edge $-1 $590 -26.739588434372163 $586 -11.844787695770673 $585 $654 forward 7 unknown #
straight-curve $-1 0 31.136975760842091 -5.2047845145118226 -1 0 0 I I #
vertex $-1 $450 $655 #
straight-curve $-1 0 46.031776499443588 -5.2047845145118226 -1 0 0 I I #
point $-1 75.468611713003938 31.136975760842091 -5.2047845145118226 #
point $-1 75.468611713003938 46.031776499443581 -5.2047845145118226 #
coedge $-1 $585 $454 $457 $596 forward $442 $-1 #
straight-curve $-1 -75.468611713003938 19.292188065071418 2.0274256785087568 0 1 0 I I #
edge $-1 $459 -2.0274256785087568 $590 5.2047845145118226 $457 $656 forward 7 unknown #
point $-1 -75.468611713003938 46.031776499443581 2.0274256785087568 #
point $-1 -75.468611713003938 31.136975760842091 2.0274256785087568 #
straight-curve $-1 75.468611713003938 31.136975760842091 -0.79433970900076645 0 0 -1 I I #
straight-curve $-1 75.468611713003938 46.031776499443588 0 0 0 -1 I I #
coedge $-1 $476 $473 $470 $602 reversed $468 $-1 #
edge $-1 $478 -36.802881451623492 $604 -21.447256147747343 $470 $657 forward 7 unknown #
edge $-1 $605 -17.995603120264459 $480 -8.2871421608908342 $471 $658 forward 7 unknown #
vertex $-1 $602 $659 #
vertex $-1 $474 $660 #
straight-curve $-1 -103.09204137205953 -31.136975760842105 17.218472091455741 1 0 0 I I #
straight-curve $-1 -75.468611713003952 -31.136975760842105 1.8628467875795707 -0.49999998660252726 0 -0.86602541151947299 I I #
point $-1 -75.468611713003938 -31.136975760842105 1.8628467875795953 #
point $-1 -66.603037626972792 -21.428514801468481 17.218472091455741 #
straight-curve $-1 -75.468611713003938 0 17.218472091455741 0 -1 0 I I #
vertex $-1 $486 $661 #
point $-1 -69.867917558486724 -29.19528356896738 9.4437182424267814 #
vertex $-1 $490 $662 #
point $-1 -69.867917558486724 -26.282745281155293 9.4437182424267814 #
vertex $-1 $494 $663 #
point $-1 -69.867917558486724 -23.370206993343206 9.4437182424267814 #
edge $-1 $618 21.447256147747343 $621 36.802881451623492 $499 $664 forward 7 unknown #
vertex $-1 $513 $665 #
straight-curve $-1 -103.09204137205953 9.7084609593736246 17.218472091455741 -1 0 0 I I #
edge $-1 $621 -7.2813457195302185 $510 2.4271152398434053 $509 $666 forward 7 unknown #
vertex $-1 $620 $667 #
straight-curve $-1 -75.468611713003952 9.7084609593736246 1.8628467875795707 0.49999998660252726 0 0.86602541151947299 I I #
point $-1 -66.603037626972792 9.7084609593736246 17.218472091455741 #
point $-1 -75.468611713003938 8.8817841970012523e-016 1.8628467875795953 #
straight-curve $-1 -75.468611713003938 0 17.218472091455741 0 -1 0 I I #
vertex $-1 $516 $668 #
point $-1 -69.867917558486724 1.9416921918747221 9.4437182424267814 #
vertex $-1 $520 $669 #
point $-1 -69.867917558486724 4.8542304796868123 9.4437182424267814 #
vertex $-1 $524 $670 #
point $-1 -69.867917558486724 7.7667687674988954 9.4437182424267814 #
coedge $-1 $539 $538 $531 $633 forward $528 $-1 #
edge $-1 $634 92.342290837422979 $637 99.974890954869878 $632 $671 forward 7 unknown #
vertex $-1 $543 $672 #
straight-curve $-1 17.36950422098905 -31.136975760842105 17.218472091455737 1 0 0 I I #
edge $-1 $637 -19.864824183979735 $540 -2.6794789697450057 $539 $673 forward 7 unknown #
vertex $-1 $636 $674 #
straight-curve $-1 -49.664016864383285 -31.136975760842105 93.988897280370239 -0.82903756765294845 0 0.55919291073839883 I I #
point $-1 64.1528169045894 -31.136975760842105 17.218472091455737 #
point $-1 75.468611713003938 -13.951630546607376 9.5858719740088389 #
straight-curve $-1 75.468611713003938 0 17.218472091455741 0 1 0 I I #
vertex $-1 $546 $675 #
point $-1 67.460628728337198 -22.544303153724741 6.3414436909034251 #
straight-curve $-1 -75.468611713003938 46.031776499443588 0 0 0 -1 I I #
point $-1 -75.468611713003938 -46.031776499443588 -17.218472091455741 #
straight-curve $-1 -75.468611713003938 0 -17.218472091455741 0 1 0 I I #
point $-1 -75.468611713003938 46.031776499443588 -17.218472091455741 #
straight-curve $-1 -75.468611713003938 -19.292188065071421 -5.2047845145118226 0 -1 0 I I #
point $-1 -75.468611713003938 -46.031776499443588 -5.2047845145118226 #
point $-1 -75.468611713003938 -31.136975760842102 -5.2047845145118226 #
straight-curve $-1 -75.468611713003938 -31.136975760842102 -0.79433970900076645 0 0 -1 I I #
straight-curve $-1 -75.468611713003938 -46.031776499443588 0 0 0 -1 I I #
point $-1 -75.468611713003938 31.136975760842091 -5.2047845145118226 #
straight-curve $-1 -75.468611713003938 19.292188065071418 -5.2047845145118226 0 -1 0 I I #
point $-1 -75.468611713003938 46.031776499443581 -5.2047845145118226 #
straight-curve $-1 -75.468611713003938 46.031776499443588 0 0 0 -1 I I #
straight-curve $-1 -75.468611713003938 -31.136975760842105 38.665728239203084 0 0 1 I I #
straight-curve $-1 -66.603037626972792 -13.141372640577647 17.218472091455741 0 1 0 I I #
point $-1 -75.468611713003938 -31.136975760842105 17.218472091455741 #
point $-1 -66.603037626972792 -31.136975760842105 17.218472091455741 #
point $-1 -69.68490484602826 -29.19528356896738 8.7607055433657823 #
point $-1 -69.68490484602826 -26.282745281155293 8.7607055433657823 #
point $-1 -69.68490484602826 -23.370206993343206 8.7607055433657823 #
straight-curve $-1 -75.468611713003938 9.7084609593736246 38.665728239203084 0 0 -1 I I #
point $-1 -75.468611713003938 9.7084609593736246 17.218472091455741 #
straight-curve $-1 -75.468611713003938 2.4271152398434062 1.8628467875796035 0 -1 0 I I #
point $-1 -75.468611713003938 9.7084609593736246 1.8628467875795953 #
point $-1 -69.68490484602826 1.9416921918747221 8.7607055433657823 #
point $-1 -69.68490484602826 4.8542304796868123 8.7607055433657823 #
point $-1 -69.68490484602826 7.7667687674988954 8.7607055433657823 #
straight-curve $-1 75.468611713003938 -31.136975760842105 109.56076292887872 0 0 -1 I I #
point $-1 75.468611713003938 -31.136975760842105 17.218472091455741 #
straight-curve $-1 75.468611713003952 -11.27215157686237 9.5858719740088318 0 1 0 I I #
point $-1 75.468611713003938 -31.136975760842105 9.5858719740088389 #
point $-1 64.684167771554499 -22.544303153724741 5.8017543770743263 #
End-of-ACIS-data 