500 0 10 0           
7 Unknown 11 ACIS 5.0 NT 24 Thu Mar 25 17:45:16 1999 
-1 9.9999999999999995e-007 1e-010 
body $-1 $10 $-1 $11 #
body $-1 $12 $-1 $13 #
body $-1 $14 $-1 $15 #
body $-1 $16 $-1 $17 #
body $-1 $18 $-1 $19 #
body $-1 $20 $-1 $21 #
body $-1 $22 $-1 $23 #
body $-1 $24 $-1 $25 #
body $-1 $26 $-1 $27 #
body $-1 $28 $-1 $29 #
lump $-1 $-1 $30 $0 #
transform $-1 1 0 0 0 1 0 0 0 1 68.317514572588266 43.25747348230766 9.6218076030289978 1 rotate no_reflect no_shear #
lump $-1 $-1 $31 $1 #
transform $-1 1 0 0 0 1 0 0 0 1 68.317514572588266 43.25747348230766 9.6218076030289978 1 rotate no_reflect no_shear #
lump $-1 $-1 $32 $2 #
transform $-1 1 0 0 0 1 0 0 0 1 68.317514572588266 43.25747348230766 9.6218076030289978 1 rotate no_reflect no_shear #
lump $-1 $-1 $33 $3 #
transform $-1 1 0 0 0 1 0 0 0 1 68.317514572588266 43.25747348230766 9.6218076030289978 1 rotate no_reflect no_shear #
lump $-1 $-1 $34 $4 #
transform $-1 1 0 0 0 1 0 0 0 1 68.317514572588266 43.25747348230766 9.6218076030289978 1 rotate no_reflect no_shear #
lump $-1 $-1 $35 $5 #
transform $-1 1 0 0 0 1 0 0 0 1 68.317514572588266 43.25747348230766 9.6218076030289978 1 rotate no_reflect no_shear #
lump $-1 $-1 $36 $6 #
transform $-1 1 0 0 0 1 0 0 0 1 68.317514572588266 43.25747348230766 9.6218076030289978 1 rotate no_reflect no_shear #
lump $-1 $-1 $37 $7 #
transform $-1 1 0 0 0 1 0 0 0 1 68.317514572588266 43.25747348230766 9.6218076030289978 1 rotate no_reflect no_shear #
lump $-1 $-1 $38 $8 #
transform $-1 1 0 0 0 1 0 0 0 1 68.317514572588266 43.25747348230766 9.6218076030289978 1 rotate no_reflect no_shear #
lump $-1 $-1 $39 $9 #
transform $-1 1 0 0 0 1 0 0 0 1 68.317514572588266 43.25747348230766 9.6218076030289978 1 rotate no_reflect no_shear #
shell $-1 $-1 $-1 $40 $-1 $10 #
shell $-1 $-1 $-1 $41 $-1 $12 #
shell $-1 $-1 $-1 $42 $-1 $14 #
shell $-1 $-1 $-1 $43 $-1 $16 #
shell $-1 $-1 $-1 $44 $-1 $18 #
shell $-1 $-1 $-1 $45 $-1 $20 #
shell $-1 $-1 $-1 $46 $-1 $22 #
shell $-1 $-1 $-1 $47 $-1 $24 #
shell $-1 $-1 $-1 $48 $-1 $26 #
shell $-1 $-1 $-1 $49 $-1 $28 #
face $-1 $50 $51 $30 $-1 $52 forward single #
face $-1 $53 $54 $31 $-1 $55 reversed single #
face $-1 $56 $57 $32 $-1 $58 forward single #
face $-1 $59 $60 $33 $-1 $61 reversed single #
face $-1 $62 $63 $34 $-1 $64 forward single #
face $-1 $65 $66 $35 $-1 $67 forward single #
face $-1 $68 $69 $36 $-1 $70 forward single #
face $-1 $71 $72 $37 $-1 $73 reversed single #
face $-1 $74 $75 $38 $-1 $76 forward single #
face $-1 $77 $78 $39 $-1 $79 forward single #
face $-1 $80 $81 $30 $-1 $82 reversed single #
loop $-1 $-1 $83 $40 #
plane-surface $-1 0 0 9.6218076030289978 0 0 1 1 0 0 forward_v I I I I #
face $-1 $84 $85 $31 $-1 $86 reversed single #
loop $-1 $-1 $87 $41 #
plane-surface $-1 0 -37.187612520754143 6.6218076030289978 0 0 1 1 0 0 forward_v I I I I #
face $-1 $88 $89 $32 $-1 $90 forward single #
loop $-1 $-1 $91 $42 #
plane-surface $-1 0 43.25747348230766 0 0 -1 0 0 0 -1 forward_v I I I I #
face $-1 $92 $93 $33 $-1 $94 reversed single #
loop $-1 $-1 $95 $43 #
plane-surface $-1 71.689864754985962 26.327759288721452 199.16165162997848 0 -1 0 -0.71933980857756763 0 -0.69465836192734942 forward_v I I I I #
face $-1 $96 $97 $34 $-1 $98 forward single #
loop $-1 $99 $100 $44 #
cone-surface $-1 66.165543785656652 10.971539192452923 7.4201868850315655 -0.71933980857756763 0 -0.69465836192734942 0.69465836192734942 0 -0.71933980857756763 1 I I 0 1 1 forward I I I I #
face $-1 $101 $102 $35 $-1 $103 forward single #
loop $-1 $104 $105 $45 #
cone-surface $-1 66.165543785656652 16.730121728553627 7.4201868850315655 -0.71933980857756763 0 -0.69465836192734942 0.69465836192734942 0 -0.71933980857756763 1 I I 0 1 1 forward I I I I #
face $-1 $106 $107 $36 $-1 $108 forward single #
loop $-1 $109 $110 $46 #
cone-surface $-1 66.165543785656652 22.488704264654331 7.4201868850315655 -0.71933980857756763 0 -0.69465836192734942 0.69465836192734942 0 -0.71933980857756763 1 I I 0 1 1 forward I I I I #
face $-1 $111 $112 $37 $-1 $113 reversed single #
loop $-1 $-1 $114 $47 #
plane-surface $-1 -185.4365947568327 24.483564795230144 70.458936217044837 0 1 0 -0.85716730853699208 0 0.51503806187062418 forward_v I I I I #
face $-1 $115 $116 $38 $-1 $117 forward single #
loop $-1 $118 $119 $48 #
cone-surface $-1 -64.61818170274617 27.794595011232744 4.3527154795039964 0.85716730853699208 0 -0.51503806187062418 0.77255709280593621 0 1.2857509628054882 1 I I 0 1 1.5 forward I I I I #
face $-1 $120 $121 $39 $-1 $122 forward single #
loop $-1 $123 $124 $49 #
cone-surface $-1 -64.61818170274617 32.761140335236661 4.3527154795039964 0.85716730853699208 0 -0.51503806187062418 0.77255709280593621 0 1.2857509628054882 1 I I 0 1 1.5 forward I I I I #
face $-1 $125 $126 $30 $-1 $127 reversed single #
loop $-1 $-1 $128 $50 #
plane-surface $-1 0 0 -9.6218076030289978 0 0 1 1 0 0 forward_v I I I I #
coedge $-1 $129 $130 $131 $132 forward $51 $-1 #
face $-1 $133 $134 $31 $-1 $135 reversed single #
loop $-1 $-1 $136 $53 #
plane-surface $-1 0 -31.117751559200627 8.1218076030289978 0 -1 0 0 0 -1 forward_v I I I I #
coedge $-1 $137 $138 $139 $140 reversed $54 $-1 #
face $-1 $141 $142 $32 $-1 $143 reversed single #
loop $-1 $-1 $144 $56 #
plane-surface $-1 0 0 9.6218076030289978 0 0 1 1 0 0 forward_v I I I I #
coedge $-1 $145 $146 $147 $148 forward $57 $-1 #
face $-1 $149 $150 $33 $-1 $151 reversed single #
loop $-1 $-1 $152 $59 #
plane-surface $-1 -26.597150955295703 16.73012172855362 104.24698610209451 0.71933980857756763 0 0.69465836192734942 0.69465836192734942 0 -0.71933980857756763 forward_v I I I I #
coedge $-1 $153 $154 $155 $156 reversed $60 $-1 #
face $-1 $-1 $157 $34 $-1 $158 forward single #
loop $-1 $159 $160 $62 #
cone-surface $-1 65.422000597491177 10.971539192452923 6.7021555916785474 -0.71933980857756763 0 -0.69465836192734942 0.34732918096367471 0 -0.35966990428878381 1 I I -0.70710678118654746 0.70710678118654746 0.5 forward I I I I #
loop $-1 $-1 $161 $44 #
coedge $-1 $100 $100 $162 $163 reversed $63 $-1 #
face $-1 $-1 $164 $35 $-1 $165 forward single #
loop $-1 $166 $167 $65 #
cone-surface $-1 65.422000597491177 16.730121728553627 6.7021555916785474 -0.71933980857756763 0 -0.69465836192734942 0.34732918096367471 0 -0.35966990428878381 1 I I -0.70710678118654746 0.70710678118654746 0.5 forward I I I I #
loop $-1 $-1 $168 $45 #
coedge $-1 $105 $105 $169 $170 reversed $66 $-1 #
face $-1 $-1 $171 $36 $-1 $172 forward single #
loop $-1 $173 $174 $68 #
cone-surface $-1 65.422000597491177 22.488704264654331 6.7021555916785474 -0.71933980857756763 0 -0.69465836192734942 0.34732918096367471 0 -0.35966990428878381 1 I I -0.70710678118654746 0.70710678118654746 0.5 forward I I I I #
loop $-1 $-1 $175 $46 #
coedge $-1 $110 $110 $176 $177 reversed $69 $-1 #
face $-1 $178 $179 $37 $-1 $180 reversed single #
loop $-1 $-1 $181 $71 #
plane-surface $-1 -68.317514572588266 30.277867673234709 0.086695622476867129 -0.85716730853699208 0 0.51503806187062418 0.51503806187062418 0 0.85716730853699208 forward_v I I I I #
coedge $-1 $182 $183 $184 $185 reversed $72 $-1 #
face $-1 $-1 $186 $38 $-1 $187 forward single #
loop $-1 $188 $189 $74 #
cone-surface $-1 -63.140609896357979 27.794595011232744 3.4649007998520922 0.85716730853699208 0 -0.51503806187062418 0.3862785464029681 0 0.64287548140274409 1 I I -0.70710678118654757 0.70710678118654757 0.75 forward I I I I #
loop $-1 $-1 $190 $48 #
coedge $-1 $119 $119 $191 $192 reversed $75 $-1 #
face $-1 $-1 $193 $39 $-1 $194 forward single #
loop $-1 $195 $196 $77 #
cone-surface $-1 -63.140609896357979 32.761140335236661 3.4649007998520922 0.85716730853699208 0 -0.51503806187062418 0.3862785464029681 0 0.64287548140274409 1 I I -0.70710678118654757 0.70710678118654757 0.75 forward I I I I #
loop $-1 $-1 $197 $49 #
coedge $-1 $124 $124 $198 $199 reversed $78 $-1 #
face $-1 $200 $201 $30 $-1 $202 reversed single #
loop $-1 $-1 $203 $80 #
plane-surface $-1 0 -43.25747348230766 0 0 1 0 0 0 1 forward_v I I I I #
coedge $-1 $204 $205 $206 $207 forward $81 $-1 #
coedge $-1 $208 $83 $209 $210 forward $51 $-1 #
coedge $-1 $83 $208 $211 $212 forward $51 $-1 #
coedge $-1 $213 $214 $83 $132 reversed $215 $-1 #
edge $-1 $216 -43.25747348230766 $217 43.25747348230766 $131 $218 forward 7 unknown #
face $-1 $219 $220 $31 $-1 $221 reversed single #
loop $-1 $-1 $222 $84 #
plane-surface $-1 -68.317514572588266 0 0 1 0 0 0 0 -1 forward_v I I I I #
coedge $-1 $223 $224 $225 $226 reversed $85 $-1 #
coedge $-1 $227 $87 $228 $229 reversed $54 $-1 #
coedge $-1 $87 $227 $223 $230 forward $54 $-1 #
coedge $-1 $225 $231 $87 $140 forward $232 $-1 #
edge $-1 $233 -24.663667221930588 $234 -12.523945298823556 $139 $235 forward 7 unknown #
face $-1 $236 $237 $32 $-1 $238 reversed single #
loop $-1 $-1 $239 $88 #
plane-surface $-1 68.317514572588266 0 0 -1 0 0 0 0 1 forward_v I I I I #
coedge $-1 $240 $241 $242 $243 forward $89 $-1 #
coedge $-1 $242 $91 $239 $244 reversed $57 $-1 #
coedge $-1 $91 $242 $245 $246 reversed $57 $-1 #
coedge $-1 $247 $248 $91 $148 reversed $237 $-1 #
edge $-1 $249 -68.317514572588266 $250 68.317514572588266 $147 $251 forward 7 unknown #
face $-1 $252 $253 $33 $-1 $254 forward single #
loop $-1 $-1 $255 $92 #
plane-surface $-1 71.689864754985962 7.1324841683857869 199.16165162997848 0 1 0 0.71933980857756763 0 0.69465836192734942 forward_v I I I I #
coedge $-1 $256 $257 $258 $259 reversed $93 $-1 #
coedge $-1 $154 $95 $260 $261 reversed $60 $-1 #
coedge $-1 $95 $153 $256 $262 reversed $60 $-1 #
coedge $-1 $258 $263 $95 $156 forward $253 $-1 #
edge $-1 $264 -32.472582195095285 $265 -28.936387188985421 $155 $266 forward 7 unknown #
loop $-1 $-1 $162 $96 #
plane-surface $-1 -26.597150955295703 16.73012172855362 104.24698610209451 0.71933980857756763 0 0.69465836192734942 0.69465836192734942 0 -0.71933980857756763 forward_v I I I I #
loop $-1 $-1 $267 $62 #
coedge $-1 $160 $160 $161 $268 reversed $97 $-1 #
coedge $-1 $161 $161 $160 $268 forward $99 $-1 #
coedge $-1 $162 $162 $100 $163 forward $157 $-1 #
edge $-1 $269 0 $269 6.2831853071796004 $162 $270 forward 7 unknown #
loop $-1 $-1 $169 $101 #
plane-surface $-1 -26.597150955295703 16.73012172855362 104.24698610209451 0.71933980857756763 0 0.69465836192734942 0.69465836192734942 0 -0.71933980857756763 forward_v I I I I #
loop $-1 $-1 $271 $65 #
coedge $-1 $167 $167 $168 $272 reversed $102 $-1 #
coedge $-1 $168 $168 $167 $272 forward $104 $-1 #
coedge $-1 $169 $169 $105 $170 forward $164 $-1 #
edge $-1 $273 0 $273 6.2831853071796004 $169 $274 forward 7 unknown #
loop $-1 $-1 $176 $106 #
plane-surface $-1 -26.597150955295703 16.73012172855362 104.24698610209451 0.71933980857756763 0 0.69465836192734942 0.69465836192734942 0 -0.71933980857756763 forward_v I I I I #
loop $-1 $-1 $275 $68 #
coedge $-1 $174 $174 $175 $276 reversed $107 $-1 #
coedge $-1 $175 $175 $174 $276 forward $109 $-1 #
coedge $-1 $176 $176 $110 $177 forward $171 $-1 #
edge $-1 $277 0 $277 6.2831853071796004 $176 $278 forward 7 unknown #
face $-1 $279 $280 $37 $-1 $281 reversed single #
loop $-1 $-1 $282 $111 #
plane-surface $-1 -185.4365947568327 36.072170551239275 70.458936217044837 0 -1 0 0.85716730853699208 0 -0.51503806187062418 forward_v I I I I #
coedge $-1 $283 $284 $285 $286 reversed $112 $-1 #
coedge $-1 $183 $114 $287 $288 reversed $72 $-1 #
coedge $-1 $114 $182 $283 $289 reversed $72 $-1 #
coedge $-1 $285 $290 $114 $185 forward $291 $-1 #
edge $-1 $292 24.400782805828086 $293 30.130055895541354 $184 $294 forward 7 unknown #
loop $-1 $-1 $191 $115 #
plane-surface $-1 -68.317514572588266 30.277867673234709 0.086695622476867129 -0.85716730853699208 0 0.51503806187062418 0.51503806187062418 0 0.85716730853699208 forward_v I I I I #
loop $-1 $-1 $295 $74 #
coedge $-1 $189 $189 $190 $296 reversed $116 $-1 #
coedge $-1 $190 $190 $189 $296 forward $118 $-1 #
coedge $-1 $191 $191 $119 $192 forward $186 $-1 #
edge $-1 $297 0 $297 6.2831853071796004 $191 $298 forward 7 unknown #
loop $-1 $-1 $198 $120 #
plane-surface $-1 -68.317514572588266 30.277867673234709 0.086695622476867129 -0.85716730853699208 0 0.51503806187062418 0.51503806187062418 0 0.85716730853699208 forward_v I I I I #
loop $-1 $-1 $299 $77 #
coedge $-1 $196 $196 $197 $300 reversed $121 $-1 #
coedge $-1 $197 $197 $196 $300 forward $123 $-1 #
coedge $-1 $198 $198 $124 $199 forward $193 $-1 #
edge $-1 $301 0 $301 6.2831853071796004 $198 $302 forward 7 unknown #
face $-1 $303 $304 $30 $-1 $305 reversed single #
loop $-1 $-1 $306 $125 #
plane-surface $-1 -68.317514572588266 0 0 1 0 0 0 0 -1 forward_v I I I I #
coedge $-1 $307 $211 $308 $309 forward $126 $-1 #
coedge $-1 $310 $128 $307 $311 forward $81 $-1 #
coedge $-1 $128 $310 $312 $313 forward $81 $-1 #
coedge $-1 $214 $213 $128 $207 reversed $215 $-1 #
edge $-1 $314 -43.25747348230766 $315 43.25747348230766 $206 $316 forward 7 unknown #
coedge $-1 $130 $129 $317 $318 forward $51 $-1 #
coedge $-1 $319 $320 $129 $210 reversed $304 $-1 #
edge $-1 $217 -68.317514572588266 $321 68.317514572588266 $209 $322 forward 7 unknown #
coedge $-1 $203 $323 $130 $212 reversed $126 $-1 #
edge $-1 $324 -68.317514572588266 $216 68.317514572588266 $211 $325 forward 7 unknown #
coedge $-1 $206 $131 $323 $326 forward $215 $-1 #
coedge $-1 $131 $206 $319 $327 reversed $215 $-1 #
loop $-1 $-1 $213 $303 #
vertex $-1 $132 $328 #
vertex $-1 $132 $329 #
straight-curve $-1 68.317514572588266 0 9.6218076030289978 0 1 0 I I #
face $-1 $330 $331 $31 $-1 $332 forward single #
loop $-1 $-1 $228 $133 #
plane-surface $-1 0 -43.25747348230766 0 0 1 0 0 0 1 forward_v I I I I #
coedge $-1 $333 $334 $335 $336 forward $134 $-1 #
coedge $-1 $335 $136 $138 $230 reversed $85 $-1 #
coedge $-1 $136 $335 $337 $338 reversed $85 $-1 #
coedge $-1 $339 $139 $136 $226 forward $232 $-1 #
edge $-1 $234 2.5609038015144989 $340 5.5609038015144989 $225 $341 forward 7 unknown #
coedge $-1 $138 $137 $333 $342 reversed $54 $-1 #
coedge $-1 $343 $344 $137 $229 forward $220 $-1 #
edge $-1 $345 -68.317514572588266 $233 68.317514572588266 $228 $346 forward 7 unknown #
edge $-1 $347 -68.317514572588266 $234 68.317514572588266 $223 $348 forward 7 unknown #
coedge $-1 $139 $339 $343 $349 forward $232 $-1 #
loop $-1 $-1 $225 $330 #
vertex $-1 $229 $350 #
vertex $-1 $140 $351 #
straight-curve $-1 68.317514572588266 -18.593806260377072 6.6218076030289978 0 1 0 I I #
face $-1 $352 $353 $32 $-1 $354 reversed single #
loop $-1 $-1 $248 $141 #
plane-surface $-1 0 46.850124947841863 6.6218076030289978 0 0 1 1 0 0 forward_v I I I I #
coedge $-1 $355 $356 $145 $244 forward $142 $-1 #
coedge $-1 $357 $144 $356 $358 forward $89 $-1 #
coedge $-1 $144 $357 $359 $360 forward $89 $-1 #
coedge $-1 $146 $145 $144 $243 reversed $57 $-1 #
edge $-1 $361 -68.317514572588266 $362 68.317514572588266 $144 $363 forward 7 unknown #
edge $-1 $362 -9.6218076030289978 $250 -6.6218076030289978 $239 $364 forward 7 unknown #
coedge $-1 $359 $365 $146 $246 forward $366 $-1 #
edge $-1 $249 6.6218076030289978 $361 9.6218076030289978 $245 $367 forward 7 unknown #
coedge $-1 $368 $147 $365 $369 forward $237 $-1 #
coedge $-1 $147 $368 $355 $370 forward $237 $-1 #
vertex $-1 $246 $371 #
vertex $-1 $244 $372 #
straight-curve $-1 0 43.25747348230766 6.6218076030289978 1 0 0 I I #
face $-1 $-1 $373 $33 $-1 $374 reversed single #
loop $-1 $-1 $155 $149 #
plane-surface $-1 0 0 9.6218076030289978 0 0 1 1 0 0 forward_v I I I I #
coedge $-1 $375 $376 $377 $378 reversed $150 $-1 #
coedge $-1 $379 $152 $154 $262 forward $93 $-1 #
coedge $-1 $152 $379 $375 $380 forward $93 $-1 #
coedge $-1 $377 $155 $152 $259 forward $253 $-1 #
edge $-1 $265 -17.962698424444643 $381 1.2325766958910229 $258 $382 forward 7 unknown #
coedge $-1 $383 $384 $153 $261 forward $373 $-1 #
edge $-1 $385 -93.620855423176394 $264 -89.959018211960242 $260 $386 forward 7 unknown #
edge $-1 $265 131.54447643621813 $385 136.63502914517653 $154 $387 forward 7 unknown #
coedge $-1 $155 $377 $383 $388 forward $253 $-1 #
vertex $-1 $261 $389 #
vertex $-1 $156 $390 #
straight-curve $-1 35.844932377492981 26.327759288721452 9.6218076030289978 -1 0 0 I I #
coedge $-1 $267 $267 $-1 $391 reversed $159 $-1 #
edge $-1 $392 0 $392 6.2831853071796004 $160 $393 forward 7 unknown #
vertex $-1 $163 $394 #
ellipse-curve $-1 66.549417069533348 10.971539192452923 7.790888997420919 0.71933980857756763 0 0.69465836192734942 0.69465836192734942 0 -0.71933980857756763 1 I I #
coedge $-1 $271 $271 $-1 $395 reversed $166 $-1 #
edge $-1 $396 0 $396 6.2831853071796004 $167 $397 forward 7 unknown #
vertex $-1 $170 $398 #
ellipse-curve $-1 66.549417069533348 16.730121728553627 7.790888997420919 0.71933980857756763 0 0.69465836192734942 0.69465836192734942 0 -0.71933980857756763 1 I I #
coedge $-1 $275 $275 $-1 $399 reversed $173 $-1 #
edge $-1 $400 0 $400 6.2831853071796004 $174 $401 forward 7 unknown #
vertex $-1 $177 $402 #
ellipse-curve $-1 66.549417069533348 22.488704264654331 7.790888997420919 0.71933980857756763 0 0.69465836192734942 0.69465836192734942 0 -0.71933980857756763 1 I I #
face $-1 $-1 $291 $37 $-1 $403 forward single #
loop $-1 $-1 $404 $178 #
plane-surface $-1 -68.317514572588266 0 0 1 0 0 0 0 -1 forward_v I I I I #
coedge $-1 $405 $406 $407 $408 reversed $179 $-1 #
coedge $-1 $409 $181 $183 $289 forward $112 $-1 #
coedge $-1 $181 $409 $405 $410 forward $112 $-1 #
coedge $-1 $407 $184 $181 $286 forward $291 $-1 #
edge $-1 $293 9.3446309586127896 $411 20.93323671462192 $285 $412 forward 7 unknown #
coedge $-1 $413 $414 $182 $288 forward $280 $-1 #
edge $-1 $415 -35.142772486045551 $292 -25.607660505493421 $287 $416 forward 7 unknown #
edge $-1 $293 -11.123979981022146 $415 0 $183 $417 forward 7 unknown #
coedge $-1 $184 $407 $413 $418 forward $291 $-1 #
loop $-1 $-1 $407 $279 #
vertex $-1 $288 $419 #
vertex $-1 $185 $420 #
straight-curve $-1 -92.718297378416352 24.483564795230144 9.6218076030289978 1 0 0 I I #
coedge $-1 $295 $295 $-1 $421 reversed $188 $-1 #
edge $-1 $422 0 $422 6.2831853071796004 $189 $423 forward 7 unknown #
vertex $-1 $192 $424 #
ellipse-curve $-1 -65.452878027731629 27.794595011232744 4.854251612752936 -0.85716730853699208 0 0.51503806187062418 0.77255709280593621 0 1.2857509628054882 1 I I #
coedge $-1 $299 $299 $-1 $425 reversed $195 $-1 #
edge $-1 $426 0 $426 6.2831853071796004 $196 $427 forward 7 unknown #
vertex $-1 $199 $428 #
ellipse-curve $-1 -65.452878027731629 32.761140335236661 4.854251612752936 -0.85716730853699208 0 0.51503806187062418 0.77255709280593621 0 1.2857509628054882 1 I I #
face $-1 $-1 $215 $30 $-1 $429 reversed single #
loop $-1 $-1 $319 $200 #
plane-surface $-1 0 43.25747348230766 0 0 -1 0 0 0 -1 forward_v I I I I #
coedge $-1 $430 $317 $320 $431 forward $201 $-1 #
coedge $-1 $323 $203 $204 $311 reversed $126 $-1 #
coedge $-1 $317 $430 $203 $309 reversed $201 $-1 #
edge $-1 $324 -9.6218076030289978 $432 9.6218076030289978 $308 $433 forward 7 unknown #
coedge $-1 $205 $204 $430 $434 forward $81 $-1 #
edge $-1 $315 -68.317514572588266 $432 68.317514572588266 $307 $435 forward 7 unknown #
coedge $-1 $320 $319 $205 $313 reversed $304 $-1 #
edge $-1 $436 -68.317514572588266 $314 68.317514572588266 $312 $437 forward 7 unknown #
vertex $-1 $207 $438 #
vertex $-1 $326 $439 #
straight-curve $-1 68.317514572588266 0 -9.6218076030289978 0 -1 0 I I #
coedge $-1 $306 $308 $208 $318 reversed $201 $-1 #
edge $-1 $321 -43.25747348230766 $324 43.25747348230766 $317 $440 forward 7 unknown #
coedge $-1 $312 $209 $214 $327 forward $304 $-1 #
coedge $-1 $209 $312 $306 $431 reversed $304 $-1 #
vertex $-1 $210 $441 #
straight-curve $-1 0 43.25747348230766 9.6218076030289978 -1 0 0 I I #
coedge $-1 $211 $307 $213 $326 reversed $126 $-1 #
vertex $-1 $318 $442 #
straight-curve $-1 0 -43.25747348230766 9.6218076030289978 1 0 0 I I #
edge $-1 $216 -9.6218076030289978 $315 9.6218076030289978 $213 $443 forward 7 unknown #
edge $-1 $217 -9.6218076030289978 $314 9.6218076030289978 $214 $444 forward 7 unknown #
point $-1 68.317514572588266 -43.25747348230766 9.6218076030289978 #
point $-1 68.317514572588266 43.25747348230766 9.6218076030289978 #
face $-1 $-1 $232 $31 $-1 $445 reversed single #
loop $-1 $-1 $337 $219 #
plane-surface $-1 0 0 9.6218076030289978 0 0 1 1 0 0 forward_v I I I I #
coedge $-1 $446 $222 $227 $342 forward $134 $-1 #
coedge $-1 $222 $446 $447 $448 reversed $134 $-1 #
coedge $-1 $224 $223 $222 $336 reversed $85 $-1 #
edge $-1 $449 -5.5609038015144989 $347 -2.5609038015144989 $222 $450 forward 7 unknown #
coedge $-1 $447 $451 $224 $338 forward $331 $-1 #
edge $-1 $340 -68.317514572588266 $449 68.317514572588266 $337 $452 forward 7 unknown #
coedge $-1 $231 $225 $451 $453 reversed $232 $-1 #
vertex $-1 $226 $454 #
straight-curve $-1 68.317514572588266 -31.117751559200627 4.0609038015144989 0 0 1 I I #
edge $-1 $347 12.523945298823556 $345 24.663667221930588 $333 $455 forward 7 unknown #
coedge $-1 $456 $228 $231 $349 reversed $220 $-1 #
coedge $-1 $228 $456 $446 $457 forward $220 $-1 #
vertex $-1 $229 $458 #
straight-curve $-1 0 -43.25747348230766 6.6218076030289978 1 0 0 I I #
vertex $-1 $342 $459 #
straight-curve $-1 0 -31.117751559200627 6.6218076030289978 1 0 0 I I #
edge $-1 $460 -9.6218076030289978 $233 -6.6218076030289978 $231 $461 forward 7 unknown #
point $-1 68.317514572588266 -43.25747348230766 6.6218076030289978 #
point $-1 68.317514572588266 -31.117751559200627 6.6218076030289978 #
face $-1 $-1 $366 $32 $-1 $462 reversed single #
loop $-1 $-1 $463 $236 #
plane-surface $-1 0 50.442776413376059 8.1218076030289978 0 -1 0 0 0 -1 forward_v I I I I #
coedge $-1 $464 $239 $248 $370 reversed $142 $-1 #
coedge $-1 $239 $464 $240 $358 reversed $142 $-1 #
coedge $-1 $241 $240 $465 $466 forward $89 $-1 #
edge $-1 $362 43.25747348230766 $467 50.442776413376059 $356 $468 forward 7 unknown #
coedge $-1 $469 $245 $241 $360 reversed $366 $-1 #
edge $-1 $470 -50.442776413376059 $361 -43.25747348230766 $359 $471 forward 7 unknown #
vertex $-1 $246 $472 #
vertex $-1 $358 $473 #
straight-curve $-1 0 43.25747348230766 9.6218076030289978 1 0 0 I I #
straight-curve $-1 68.317514572588266 43.25747348230766 0 0 0 -1 I I #
coedge $-1 $245 $469 $247 $369 reversed $366 $-1 #
loop $-1 $-1 $245 $352 #
straight-curve $-1 -68.317514572588266 43.25747348230766 0 0 0 1 I I #
coedge $-1 $248 $247 $474 $475 forward $237 $-1 #
edge $-1 $249 -3.5926514655341961 $476 3.5926514655341961 $365 $477 forward 7 unknown #
edge $-1 $478 -3.5926514655341961 $250 3.5926514655341961 $355 $479 forward 7 unknown #
point $-1 -68.317514572588266 43.257473482307667 6.6218076030289978 #
point $-1 68.317514572588266 43.257473482307667 6.6218076030289978 #
loop $-1 $-1 $260 $252 #
plane-surface $-1 68.317514572588266 0 0 -1 0 0 0 0 1 forward_v I I I I #
coedge $-1 $376 $255 $257 $380 reversed $150 $-1 #
coedge $-1 $255 $375 $480 $481 reversed $150 $-1 #
coedge $-1 $263 $258 $255 $378 forward $253 $-1 #
edge $-1 $381 28.936387188985421 $482 32.472582195095285 $377 $483 forward 7 unknown #
coedge $-1 $257 $256 $384 $484 reversed $93 $-1 #
edge $-1 $485 -136.63502914517653 $381 -131.54447643621813 $375 $486 forward 7 unknown #
vertex $-1 $259 $487 #
straight-curve $-1 64.781319566478402 8.3650608642768098 9.621807603029005 0 -1 0 I I #
coedge $-1 $480 $260 $263 $388 reversed $373 $-1 #
coedge $-1 $260 $480 $379 $484 forward $373 $-1 #
vertex $-1 $261 $488 #
straight-curve $-1 68.317514572588266 26.327759288721452 99.58082581498924 0 0 1 I I #
straight-curve $-1 -26.597150955295703 26.327759288721452 104.24698610209451 0.69465836192734942 0 -0.71933980857756763 I I #
edge $-1 $482 7.1324841683857869 $264 26.327759288721452 $383 $489 forward 7 unknown #
point $-1 68.317514572588266 26.327759288721452 9.6218076030289978 #
point $-1 64.781319566478402 26.327759288721452 9.6218076030289978 #
edge $-1 $490 1 $490 0 $267 $-1 forward 7 unknown #
vertex $-1 $268 $491 #
ellipse-curve $-1 65.781670501779956 10.971539192452923 7.0494847726422218 0.71933980857756763 0 0.69465836192734942 0.69465836192734942 0 -0.71933980857756763 1 I I #
point $-1 67.244075431460686 10.971539192452923 7.0715491888433419 #
edge $-1 $492 1 $492 0 $271 $-1 forward 7 unknown #
vertex $-1 $272 $493 #
ellipse-curve $-1 65.781670501779956 16.730121728553627 7.0494847726422218 0.71933980857756763 0 0.69465836192734942 0.69465836192734942 0 -0.71933980857756763 1 I I #
point $-1 67.244075431460686 16.730121728553627 7.0715491888433419 #
edge $-1 $494 1 $494 0 $275 $-1 forward 7 unknown #
vertex $-1 $276 $495 #
ellipse-curve $-1 65.781670501779956 22.488704264654331 7.0494847726422218 0.71933980857756763 0 0.69465836192734942 0.69465836192734942 0 -0.71933980857756763 1 I I #
point $-1 67.244075431460686 22.488704264654331 7.0715491888433419 #
plane-surface $-1 0 0 9.6218076030289978 0 0 1 1 0 0 forward_v I I I I #
coedge $-1 $414 $413 $406 $496 forward $280 $-1 #
coedge $-1 $406 $282 $284 $410 reversed $179 $-1 #
coedge $-1 $282 $405 $404 $496 reversed $179 $-1 #
coedge $-1 $290 $285 $282 $408 forward $291 $-1 #
edge $-1 $411 -30.130055895541354 $497 -24.400782805828086 $407 $498 forward 7 unknown #
coedge $-1 $284 $283 $414 $499 reversed $112 $-1 #
edge $-1 $500 0 $411 11.123979981022146 $405 $501 forward 7 unknown #
vertex $-1 $286 $502 #
straight-curve $-1 -62.588241482874999 15.138933836617355 9.6218076030289978 0 1 0 I I #
coedge $-1 $404 $287 $290 $418 reversed $280 $-1 #
coedge $-1 $287 $404 $409 $499 forward $280 $-1 #
vertex $-1 $288 $503 #
straight-curve $-1 -68.317514572588266 24.483564795230144 35.229468108522418 0 0 1 I I #
straight-curve $-1 -68.317514572588266 24.483564795230144 0.086695622476867129 -0.51503806187062418 0 -0.85716730853699208 I I #
edge $-1 $497 -36.072170551239275 $292 -24.483564795230144 $413 $504 forward 7 unknown #
point $-1 -68.317514572588266 24.483564795230144 9.6218076030289978 #
point $-1 -62.588241482874999 24.483564795230144 9.6218076030289978 #
edge $-1 $505 1 $505 0 $295 $-1 forward 7 unknown #
vertex $-1 $296 $506 #
ellipse-curve $-1 -63.783485377760726 27.794595011232744 3.8511793462550603 -0.85716730853699208 0 0.51503806187062418 0.77255709280593621 0 1.2857509628054882 1 I I #
point $-1 -64.680320934925689 27.794595011232744 6.1400025755584204 #
edge $-1 $507 1 $507 0 $299 $-1 forward 7 unknown #
vertex $-1 $300 $508 #
ellipse-curve $-1 -63.783485377760726 32.761140335236661 3.8511793462550603 -0.85716730853699208 0 0.51503806187062418 0.77255709280593621 0 1.2857509628054882 1 I I #
point $-1 -64.680320934925689 32.761140335236661 6.1400025755584204 #
plane-surface $-1 68.317514572588266 0 0 -1 0 0 0 0 1 forward_v I I I I #
coedge $-1 $308 $306 $310 $434 reversed $201 $-1 #
edge $-1 $321 -9.6218076030289978 $436 9.6218076030289978 $320 $509 forward 7 unknown #
vertex $-1 $434 $510 #
straight-curve $-1 -68.317514572588266 -43.25747348230766 0 0 0 -1 I I #
edge $-1 $432 -43.25747348230766 $436 43.25747348230766 $430 $511 forward 7 unknown #
straight-curve $-1 0 -43.25747348230766 -9.6218076030289978 -1 0 0 I I #
vertex $-1 $313 $512 #
straight-curve $-1 0 43.25747348230766 -9.6218076030289978 1 0 0 I I #
point $-1 68.317514572588266 43.25747348230766 -9.6218076030289978 #
point $-1 68.317514572588266 -43.25747348230766 -9.6218076030289978 #
straight-curve $-1 -68.317514572588266 0 9.6218076030289978 0 -1 0 I I #
point $-1 -68.317514572588266 43.25747348230766 9.6218076030289978 #
point $-1 -68.317514572588266 -43.25747348230766 9.6218076030289978 #
straight-curve $-1 68.317514572588266 -43.25747348230766 0 0 0 -1 I I #
straight-curve $-1 68.317514572588266 43.25747348230766 0 0 0 -1 I I #
plane-surface $-1 68.317514572588266 0 0 -1 0 0 0 0 1 forward_v I I I I #
coedge $-1 $334 $333 $344 $457 reversed $134 $-1 #
coedge $-1 $513 $337 $334 $448 forward $331 $-1 #
edge $-1 $449 31.117751559200627 $514 43.25747348230766 $334 $515 forward 7 unknown #
vertex $-1 $448 $516 #
straight-curve $-1 -68.317514572588266 -31.117751559200627 4.0609038015144989 0 0 -1 I I #
coedge $-1 $337 $513 $339 $453 forward $331 $-1 #
straight-curve $-1 0 -31.117751559200627 9.6218076030289978 -1 0 0 I I #
edge $-1 $460 -43.25747348230766 $340 -31.117751559200627 $339 $517 forward 7 unknown #
point $-1 68.317514572588266 -31.117751559200627 9.6218076030289978 #
straight-curve $-1 -68.317514572588266 -18.593806260377072 6.6218076030289978 0 -1 0 I I #
coedge $-1 $344 $343 $513 $518 reversed $220 $-1 #
edge $-1 $514 -9.6218076030289978 $345 -6.6218076030289978 $446 $519 forward 7 unknown #
point $-1 -68.317514572588266 -43.25747348230766 6.6218076030289978 #
point $-1 -68.317514572588266 -31.117751559200627 6.6218076030289978 #
vertex $-1 $453 $520 #
straight-curve $-1 68.317514572588266 -43.25747348230766 0 0 0 -1 I I #
plane-surface $-1 -68.317514572588266 0 0 1 0 0 0 0 -1 forward_v I I I I #
coedge $-1 $474 $465 $464 $521 forward $353 $-1 #
coedge $-1 $356 $355 $463 $521 reversed $142 $-1 #
coedge $-1 $463 $522 $357 $466 reversed $353 $-1 #
edge $-1 $467 -68.317514572588266 $470 68.317514572588266 $465 $523 forward 7 unknown #
vertex $-1 $358 $524 #
straight-curve $-1 68.317514572588266 0 9.6218076030289978 0 1 0 I I #
coedge $-1 $365 $359 $522 $525 forward $366 $-1 #
vertex $-1 $466 $526 #
straight-curve $-1 -68.317514572588266 0 9.6218076030289978 0 -1 0 I I #
point $-1 -68.317514572588266 43.25747348230766 9.6218076030289978 #
point $-1 68.317514572588266 43.25747348230766 9.6218076030289978 #
coedge $-1 $522 $463 $368 $475 reversed $353 $-1 #
edge $-1 $476 -68.317514572588266 $478 68.317514572588266 $474 $527 forward 7 unknown #
vertex $-1 $475 $528 #
straight-curve $-1 -68.317514572588266 46.850124947841863 6.6218076030289978 0 1 0 I I #
vertex $-1 $370 $529 #
straight-curve $-1 68.317514572588266 46.850124947841863 6.6218076030289978 0 -1 0 I I #
coedge $-1 $384 $383 $376 $481 forward $373 $-1 #
edge $-1 $482 89.959018211960242 $485 93.620855423176394 $480 $530 forward 7 unknown #
vertex $-1 $388 $531 #
straight-curve $-1 35.844932377492981 7.1324841683857869 9.6218076030289978 1 0 0 I I #
edge $-1 $485 -1.2325766958910229 $385 17.962698424444643 $384 $532 forward 7 unknown #
vertex $-1 $484 $533 #
straight-curve $-1 -26.597150955295703 7.1324841683857869 104.24698610209451 -0.69465836192734942 0 0.71933980857756763 I I #
point $-1 64.781319566478402 7.1324841683857869 9.6218076030289978 #
point $-1 68.317514572588266 26.327759288721452 5.9599703918128455 #
straight-curve $-1 68.317514572588266 0 9.6218076030289978 0 1 0 I I #
vertex $-1 $391 $534 #
point $-1 66.476328863707309 10.971539192452923 6.3301449640646545 #
vertex $-1 $395 $535 #
point $-1 66.476328863707309 16.730121728553627 6.3301449640646545 #
vertex $-1 $399 $536 #
point $-1 66.476328863707309 22.488704264654331 6.3301449640646545 #
edge $-1 $497 25.607660505493421 $500 35.142772486045551 $404 $537 forward 7 unknown #
vertex $-1 $418 $538 #
straight-curve $-1 -92.718297378416352 36.072170551239275 9.6218076030289978 -1 0 0 I I #
edge $-1 $500 -20.93323671462192 $415 -9.3446309586127896 $414 $539 forward 7 unknown #
vertex $-1 $499 $540 #
straight-curve $-1 -68.317514572588266 36.072170551239275 0.086695622476867129 0.51503806187062418 0 0.85716730853699208 I I #
point $-1 -62.588241482874999 36.072170551239275 9.6218076030289978 #
point $-1 -68.317514572588266 24.483564795230144 0.086695622476867129 #
straight-curve $-1 -68.317514572588266 0 9.6218076030289978 0 -1 0 I I #
vertex $-1 $421 $541 #
point $-1 -63.010928284954787 27.794595011232744 5.1369303090605483 #
vertex $-1 $425 $542 #
point $-1 -63.010928284954787 32.761140335236661 5.1369303090605483 #
straight-curve $-1 -68.317514572588266 43.25747348230766 0 0 0 -1 I I #
point $-1 -68.317514572588266 -43.25747348230766 -9.6218076030289978 #
straight-curve $-1 -68.317514572588266 0 -9.6218076030289978 0 1 0 I I #
point $-1 -68.317514572588266 43.25747348230766 -9.6218076030289978 #
coedge $-1 $451 $447 $456 $518 forward $331 $-1 #
vertex $-1 $448 $543 #
straight-curve $-1 -68.317514572588266 0 9.6218076030289978 0 -1 0 I I #
point $-1 -68.317514572588266 -31.117751559200627 9.6218076030289978 #
straight-curve $-1 68.317514572588266 0 9.6218076030289978 0 1 0 I I #
edge $-1 $514 -68.317514572588266 $460 68.317514572588266 $456 $544 forward 7 unknown #
straight-curve $-1 -68.317514572588266 -43.25747348230766 0 0 0 -1 I I #
point $-1 68.317514572588266 -43.25747348230766 9.6218076030289978 #
edge $-1 $467 -1.5 $478 1.5 $464 $545 forward 7 unknown #
coedge $-1 $465 $474 $469 $525 reversed $353 $-1 #
straight-curve $-1 0 50.442776413376059 9.6218076030289978 -1 0 0 I I #
point $-1 68.317514572588266 50.442776413376059 9.6218076030289978 #
edge $-1 $470 -1.5 $476 1.5 $522 $546 forward 7 unknown #
point $-1 -68.317514572588266 50.442776413376059 9.6218076030289978 #
straight-curve $-1 0 50.442776413376059 6.6218076030289978 1 0 0 I I #
point $-1 -68.317514572588266 50.442776413376059 6.6218076030289978 #
point $-1 68.317514572588266 50.442776413376059 6.6218076030289978 #
straight-curve $-1 68.317514572588266 7.1324841683857869 99.58082581498924 0 0 -1 I I #
point $-1 68.317514572588266 7.1324841683857869 9.6218076030289978 #
straight-curve $-1 68.317514572588266 8.3650608642768098 5.9599703918128526 0 1 0 I I #
point $-1 68.317514572588266 7.1324841683857869 5.9599703918128455 #
point $-1 65.062330693202398 10.971539192452923 6.3548264107148729 #
point $-1 65.062330693202398 16.730121728553627 6.3548264107148729 #
point $-1 65.062330693202398 22.488704264654331 6.3548264107148729 #
straight-curve $-1 -68.317514572588266 36.072170551239275 35.229468108522418 0 0 -1 I I #
point $-1 -68.317514572588266 36.072170551239275 9.6218076030289978 #
straight-curve $-1 -68.317514572588266 15.138933836617355 0.086695622476867962 0 -1 0 I I #
point $-1 -68.317514572588266 36.072170551239275 0.086695622476867129 #
point $-1 -62.497734414955232 27.794595011232744 3.0786222534491241 #
point $-1 -62.497734414955232 32.761140335236661 3.0786222534491241 #
point $-1 -68.317514572588266 -43.25747348230766 9.6218076030289978 #
straight-curve $-1 0 -43.25747348230766 9.6218076030289978 1 0 0 I I #
straight-curve $-1 68.317514572588266 50.442776413376059 8.1218076030289978 0 0 -1 I I #
straight-curve $-1 -68.317514572588266 50.442776413376059 8.1218076030289978 0 0 -1 I I #
End-of-ACIS-data 