500 0 11 0           
7 Unknown 11 ACIS 5.0 NT 24 Thu Mar 25 21:00:30 1999 
-1 9.9999999999999995e-007 1e-010 
body $-1 $11 $-1 $12 #
body $-1 $13 $-1 $14 #
body $-1 $15 $-1 $16 #
body $-1 $17 $-1 $18 #
body $-1 $19 $-1 $20 #
body $-1 $21 $-1 $22 #
body $-1 $23 $-1 $24 #
body $-1 $25 $-1 $26 #
body $-1 $27 $-1 $28 #
body $-1 $29 $-1 $30 #
body $-1 $31 $-1 $32 #
lump $-1 $-1 $33 $0 #
transform $-1 1 0 0 0 1 0 0 0 1 74.363841669972842 30.60067432298489 8.5452525464698113 1 rotate no_reflect no_shear #
lump $-1 $-1 $34 $1 #
transform $-1 1 0 0 0 1 0 0 0 1 74.363841669972842 30.60067432298489 8.5452525464698113 1 rotate no_reflect no_shear #
lump $-1 $-1 $35 $2 #
transform $-1 1 0 0 0 1 0 0 0 1 74.363841669972842 30.60067432298489 8.5452525464698113 1 rotate no_reflect no_shear #
lump $-1 $-1 $36 $3 #
transform $-1 1 0 0 0 1 0 0 0 1 74.363841669972842 30.60067432298489 8.5452525464698113 1 rotate no_reflect no_shear #
lump $-1 $-1 $37 $4 #
transform $-1 1 0 0 0 1 0 0 0 1 74.363841669972842 30.60067432298489 8.5452525464698113 1 rotate no_reflect no_shear #
lump $-1 $-1 $38 $5 #
transform $-1 1 0 0 0 1 0 0 0 1 74.363841669972842 30.60067432298489 8.5452525464698113 1 rotate no_reflect no_shear #
lump $-1 $-1 $39 $6 #
transform $-1 1 0 0 0 1 0 0 0 1 74.363841669972842 30.60067432298489 8.5452525464698113 1 rotate no_reflect no_shear #
lump $-1 $-1 $40 $7 #
transform $-1 1 0 0 0 1 0 0 0 1 74.363841669972842 30.60067432298489 8.5452525464698113 1 rotate no_reflect no_shear #
lump $-1 $-1 $41 $8 #
transform $-1 1 0 0 0 1 0 0 0 1 74.363841669972842 30.60067432298489 8.5452525464698113 1 rotate no_reflect no_shear #
lump $-1 $-1 $42 $9 #
transform $-1 1 0 0 0 1 0 0 0 1 74.363841669972842 30.60067432298489 8.5452525464698113 1 rotate no_reflect no_shear #
lump $-1 $-1 $43 $10 #
transform $-1 1 0 0 0 1 0 0 0 1 74.363841669972842 30.60067432298489 8.5452525464698113 1 rotate no_reflect no_shear #
shell $-1 $-1 $-1 $44 $-1 $11 #
shell $-1 $-1 $-1 $45 $-1 $13 #
shell $-1 $-1 $-1 $46 $-1 $15 #
shell $-1 $-1 $-1 $47 $-1 $17 #
shell $-1 $-1 $-1 $48 $-1 $19 #
shell $-1 $-1 $-1 $49 $-1 $21 #
shell $-1 $-1 $-1 $50 $-1 $23 #
shell $-1 $-1 $-1 $51 $-1 $25 #
shell $-1 $-1 $-1 $52 $-1 $27 #
shell $-1 $-1 $-1 $53 $-1 $29 #
shell $-1 $-1 $-1 $54 $-1 $31 #
face $-1 $55 $56 $33 $-1 $57 forward single #
face $-1 $58 $59 $34 $-1 $60 forward single #
face $-1 $61 $62 $35 $-1 $63 reversed single #
face $-1 $64 $65 $36 $-1 $66 forward single #
face $-1 $67 $68 $37 $-1 $69 forward single #
face $-1 $70 $71 $38 $-1 $72 reversed single #
face $-1 $73 $74 $39 $-1 $75 forward single #
face $-1 $76 $77 $40 $-1 $78 forward single #
face $-1 $79 $80 $41 $-1 $81 reversed single #
face $-1 $82 $83 $42 $-1 $84 forward single #
face $-1 $85 $86 $43 $-1 $87 forward single #
face $-1 $88 $89 $33 $-1 $90 reversed single #
loop $-1 $-1 $91 $44 #
plane-surface $-1 0 0 8.5452525464698113 0 0 1 1 0 0 forward_v I I I I #
face $-1 $92 $93 $34 $-1 $94 reversed single #
loop $-1 $-1 $95 $45 #
plane-surface $-1 0 -26.020638541885297 5.1823867388111884 0 0 1 1 0 0 forward_v I I I I #
face $-1 $96 $97 $35 $-1 $98 reversed single #
loop $-1 $-1 $99 $46 #
plane-surface $-1 -171.93798237256391 -13.27137187879512 112.28986850285432 0 1 0 -0.6560590369687036 0 0.75470957328743171 forward_v I I I I #
face $-1 $100 $101 $36 $-1 $102 forward single #
loop $-1 $103 $104 $47 #
cone-surface $-1 -68.202647986187557 -10.129648493202012 2.8320937881402157 0.6560590369687036 0 -0.75470957328743171 0.75470957328743171 0 0.6560590369687036 1 I I 0 1 1 forward I I I I #
face $-1 $105 $106 $37 $-1 $107 forward single #
loop $-1 $108 $109 $48 #
cone-surface $-1 -68.202647986187557 -5.4170634148123504 2.8320937881402157 0.6560590369687036 0 -0.75470957328743171 0.75470957328743171 0 0.6560590369687036 1 I I 0 1 1 forward I I I I #
face $-1 $110 $111 $38 $-1 $112 reversed single #
loop $-1 $-1 $113 $49 #
plane-surface $-1 -171.93798237256391 12.749266663090177 112.28986850285432 0 1 0 -0.6560590369687036 0 0.75470957328743171 forward_v I I I I #
face $-1 $114 $115 $39 $-1 $116 forward single #
loop $-1 $117 $118 $50 #
cone-surface $-1 -68.202647986187557 15.890990048683289 2.8320937881402157 0.6560590369687036 0 -0.75470957328743171 0.75470957328743171 0 0.6560590369687036 1 I I 0 1 1 forward I I I I #
face $-1 $119 $120 $40 $-1 $121 forward single #
loop $-1 $122 $123 $51 #
cone-surface $-1 -68.202647986187557 20.603575127072947 2.8320937881402157 0.6560590369687036 0 -0.75470957328743171 0.75470957328743171 0 0.6560590369687036 1 I I 0 1 1 forward I I I I #
face $-1 $124 $125 $41 $-1 $126 reversed single #
loop $-1 $-1 $127 $52 #
plane-surface $-1 -10.942851199233132 23.574368637617749 125.2719369099319 0.81915205242281985 0 0.57357642473473569 0.57357642473473569 0 -0.81915205242281985 forward_v I I I I #
face $-1 $128 $129 $42 $-1 $130 forward single #
loop $-1 $131 $132 $53 #
cone-surface $-1 71.297107005881813 20.563094772460392 5.0971482069467973 -0.81915205242281985 0 -0.57357642473473569 0.86036463710210354 0 -1.2287280786342298 1 I I 0 1 1.5 forward I I I I #
face $-1 $133 $134 $43 $-1 $135 forward single #
loop $-1 $136 $137 $54 #
cone-surface $-1 71.297107005881813 26.585642502775091 5.0971482069467973 -0.81915205242281985 0 -0.57357642473473569 0.86036463710210354 0 -1.2287280786342298 1 I I 0 1 1.5 forward I I I I #
face $-1 $138 $139 $33 $-1 $140 reversed single #
loop $-1 $-1 $141 $55 #
plane-surface $-1 0 0 -8.5452525464698113 0 0 1 1 0 0 forward_v I I I I #
coedge $-1 $142 $143 $144 $145 forward $56 $-1 #
face $-1 $146 $147 $34 $-1 $148 reversed single #
loop $-1 $-1 $149 $58 #
plane-surface $-1 0 -26.020638541885297 2.172002259154227 0 0 1 1 0 0 forward_v I I I I #
coedge $-1 $150 $151 $152 $153 reversed $59 $-1 #
face $-1 $154 $155 $35 $-1 $156 reversed single #
loop $-1 $-1 $157 $61 #
plane-surface $-1 -74.363841669972842 -7.773355954007183 0.043662073335639207 -0.6560590369687036 0 0.75470957328743171 0.75470957328743171 0 0.6560590369687036 forward_v I I I I #
coedge $-1 $158 $159 $160 $161 reversed $62 $-1 #
face $-1 $-1 $162 $36 $-1 $163 forward single #
loop $-1 $164 $165 $64 #
cone-surface $-1 -66.603405225228158 -10.129648493202012 0.99237547973398499 0.6560590369687036 0 -0.75470957328743171 0.37735478664371586 0 0.3280295184843518 1 I I -0.70710678118654746 0.70710678118654746 0.5 forward I I I I #
loop $-1 $-1 $166 $47 #
coedge $-1 $104 $104 $167 $168 reversed $65 $-1 #
face $-1 $-1 $169 $37 $-1 $170 forward single #
loop $-1 $171 $172 $67 #
cone-surface $-1 -66.603405225228158 -5.4170634148123504 0.99237547973398499 0.6560590369687036 0 -0.75470957328743171 0.37735478664371586 0 0.3280295184843518 1 I I -0.70710678118654746 0.70710678118654746 0.5 forward I I I I #
loop $-1 $-1 $173 $48 #
coedge $-1 $109 $109 $174 $175 reversed $68 $-1 #
face $-1 $176 $177 $38 $-1 $178 reversed single #
loop $-1 $-1 $179 $70 #
plane-surface $-1 -74.363841669972842 18.247282587878114 0.043662073335639207 -0.6560590369687036 0 0.75470957328743171 0.75470957328743171 0 0.6560590369687036 forward_v I I I I #
coedge $-1 $180 $181 $182 $183 reversed $71 $-1 #
face $-1 $-1 $184 $39 $-1 $185 forward single #
loop $-1 $186 $187 $73 #
cone-surface $-1 -66.603405225228158 15.890990048683289 0.99237547973398499 0.6560590369687036 0 -0.75470957328743171 0.37735478664371586 0 0.3280295184843518 1 I I -0.70710678118654746 0.70710678118654746 0.5 forward I I I I #
loop $-1 $-1 $188 $50 #
coedge $-1 $118 $118 $189 $190 reversed $74 $-1 #
face $-1 $-1 $191 $40 $-1 $192 forward single #
loop $-1 $193 $194 $76 #
cone-surface $-1 -66.603405225228158 20.603575127072947 0.99237547973398499 0.6560590369687036 0 -0.75470957328743171 0.37735478664371586 0 0.3280295184843518 1 I I -0.70710678118654746 0.70710678118654746 0.5 forward I I I I #
loop $-1 $-1 $195 $51 #
coedge $-1 $123 $123 $196 $197 reversed $77 $-1 #
face $-1 $198 $199 $41 $-1 $200 forward single #
loop $-1 $-1 $201 $79 #
plane-surface $-1 110.88773586077461 16.548062952250596 210.57862977913786 0 1 0 0.81915205242281985 0 0.57357642473473569 forward_v I I I I #
coedge $-1 $202 $203 $204 $205 reversed $80 $-1 #
face $-1 $-1 $206 $42 $-1 $207 forward single #
loop $-1 $208 $209 $82 #
cone-surface $-1 69.402903819746669 20.563094772460392 3.7708128971455608 -0.81915205242281985 0 -0.57357642473473569 0.43018231855105177 0 -0.61436403931711492 1 I I -0.70710678118654757 0.70710678118654757 0.75 forward I I I I #
loop $-1 $-1 $210 $53 #
coedge $-1 $132 $132 $211 $212 reversed $83 $-1 #
face $-1 $-1 $213 $43 $-1 $214 forward single #
loop $-1 $215 $216 $85 #
cone-surface $-1 69.402903819746669 26.585642502775091 3.7708128971455608 -0.81915205242281985 0 -0.57357642473473569 0.43018231855105177 0 -0.61436403931711492 1 I I -0.70710678118654757 0.70710678118654757 0.75 forward I I I I #
loop $-1 $-1 $217 $54 #
coedge $-1 $137 $137 $218 $219 reversed $86 $-1 #
face $-1 $220 $221 $33 $-1 $222 reversed single #
loop $-1 $-1 $223 $88 #
plane-surface $-1 0 -30.60067432298489 0 0 1 0 0 0 1 forward_v I I I I #
coedge $-1 $224 $225 $226 $227 forward $89 $-1 #
coedge $-1 $228 $91 $229 $230 forward $56 $-1 #
coedge $-1 $91 $228 $231 $232 forward $56 $-1 #
coedge $-1 $233 $234 $91 $145 reversed $235 $-1 #
edge $-1 $236 -30.60067432298489 $237 30.60067432298489 $144 $238 forward 7 unknown #
face $-1 $239 $240 $34 $-1 $241 reversed single #
loop $-1 $-1 $242 $92 #
plane-surface $-1 0 -21.440602760785705 3.6771944989827077 0 -1 0 0 0 -1 forward_v I I I I #
coedge $-1 $243 $244 $245 $246 reversed $93 $-1 #
coedge $-1 $247 $95 $248 $249 forward $59 $-1 #
coedge $-1 $95 $247 $250 $251 reversed $59 $-1 #
coedge $-1 $252 $253 $95 $153 forward $254 $-1 #
edge $-1 $255 8.4302834898430561 $256 17.590355052042241 $152 $257 forward 7 unknown #
face $-1 $258 $259 $35 $-1 $260 reversed single #
loop $-1 $-1 $261 $96 #
plane-surface $-1 -171.93798237256391 -2.2753400292192456 112.28986850285432 0 -1 0 0.6560590369687036 0 -0.75470957328743171 forward_v I I I I #
coedge $-1 $262 $263 $264 $265 reversed $97 $-1 #
coedge $-1 $159 $99 $266 $267 reversed $62 $-1 #
coedge $-1 $99 $158 $262 $268 reversed $62 $-1 #
coedge $-1 $264 $269 $99 $161 forward $270 $-1 #
edge $-1 $271 11.605149516309112 $272 21.385110398929598 $160 $273 forward 7 unknown #
loop $-1 $-1 $167 $100 #
plane-surface $-1 -74.363841669972842 -7.773355954007183 0.043662073335639207 -0.6560590369687036 0 0.75470957328743171 0.75470957328743171 0 0.6560590369687036 forward_v I I I I #
loop $-1 $-1 $274 $64 #
coedge $-1 $165 $165 $166 $275 reversed $101 $-1 #
coedge $-1 $166 $166 $165 $275 forward $103 $-1 #
coedge $-1 $167 $167 $104 $168 forward $162 $-1 #
edge $-1 $276 0 $276 6.2831853071796004 $167 $277 forward 7 unknown #
loop $-1 $-1 $174 $105 #
plane-surface $-1 -74.363841669972842 -7.773355954007183 0.043662073335639207 -0.6560590369687036 0 0.75470957328743171 0.75470957328743171 0 0.6560590369687036 forward_v I I I I #
loop $-1 $-1 $278 $67 #
coedge $-1 $172 $172 $173 $279 reversed $106 $-1 #
coedge $-1 $173 $173 $172 $279 forward $108 $-1 #
coedge $-1 $174 $174 $109 $175 forward $169 $-1 #
edge $-1 $280 0 $280 6.2831853071796004 $174 $281 forward 7 unknown #
face $-1 $282 $283 $38 $-1 $284 forward single #
loop $-1 $-1 $285 $110 #
plane-surface $-1 -171.93798237256391 23.745298512666054 112.28986850285432 0 -1 0 0.6560590369687036 0 -0.75470957328743171 forward_v I I I I #
coedge $-1 $286 $287 $288 $289 reversed $111 $-1 #
coedge $-1 $181 $113 $290 $291 reversed $71 $-1 #
coedge $-1 $113 $180 $286 $292 reversed $71 $-1 #
coedge $-1 $288 $293 $113 $183 forward $283 $-1 #
edge $-1 $294 11.605149516309112 $295 21.385110398929598 $182 $296 forward 7 unknown #
loop $-1 $-1 $189 $114 #
plane-surface $-1 -74.363841669972842 18.247282587878114 0.043662073335639207 -0.6560590369687036 0 0.75470957328743171 0.75470957328743171 0 0.6560590369687036 forward_v I I I I #
loop $-1 $-1 $297 $73 #
coedge $-1 $187 $187 $188 $298 reversed $115 $-1 #
coedge $-1 $188 $188 $187 $298 forward $117 $-1 #
coedge $-1 $189 $189 $118 $190 forward $184 $-1 #
edge $-1 $299 0 $299 6.2831853071796004 $189 $300 forward 7 unknown #
loop $-1 $-1 $196 $119 #
plane-surface $-1 -74.363841669972842 18.247282587878114 0.043662073335639207 -0.6560590369687036 0 0.75470957328743171 0.75470957328743171 0 0.6560590369687036 forward_v I I I I #
loop $-1 $-1 $301 $76 #
coedge $-1 $194 $194 $195 $302 reversed $120 $-1 #
coedge $-1 $195 $195 $194 $302 forward $122 $-1 #
coedge $-1 $196 $196 $123 $197 forward $191 $-1 #
edge $-1 $303 0 $303 6.2831853071796004 $196 $304 forward 7 unknown #
face $-1 $305 $306 $41 $-1 $307 reversed single #
loop $-1 $-1 $204 $124 #
plane-surface $-1 0 0 8.5452525464698113 0 0 1 1 0 0 forward_v I I I I #
coedge $-1 $308 $309 $310 $311 reversed $125 $-1 #
coedge $-1 $312 $127 $313 $314 reversed $80 $-1 #
coedge $-1 $127 $312 $308 $315 forward $80 $-1 #
coedge $-1 $310 $316 $127 $205 forward $199 $-1 #
edge $-1 $317 -18.813490004176025 $318 -4.7608786334417221 $204 $319 forward 7 unknown #
loop $-1 $-1 $211 $128 #
plane-surface $-1 -10.942851199233132 23.574368637617749 125.2719369099319 0.81915205242281985 0 0.57357642473473569 0.57357642473473569 0 -0.81915205242281985 forward_v I I I I #
loop $-1 $-1 $320 $82 #
coedge $-1 $209 $209 $210 $321 reversed $129 $-1 #
coedge $-1 $210 $210 $209 $321 forward $131 $-1 #
coedge $-1 $211 $211 $132 $212 forward $206 $-1 #
edge $-1 $322 0 $322 6.2831853071796004 $211 $323 forward 7 unknown #
loop $-1 $-1 $218 $133 #
plane-surface $-1 -10.942851199233132 23.574368637617749 125.2719369099319 0.81915205242281985 0 0.57357642473473569 0.57357642473473569 0 -0.81915205242281985 forward_v I I I I #
loop $-1 $-1 $324 $85 #
coedge $-1 $216 $216 $217 $325 reversed $134 $-1 #
coedge $-1 $217 $217 $216 $325 forward $136 $-1 #
coedge $-1 $218 $218 $137 $219 forward $213 $-1 #
edge $-1 $326 0 $326 6.2831853071796004 $218 $327 forward 7 unknown #
face $-1 $328 $329 $33 $-1 $330 reversed single #
loop $-1 $-1 $331 $138 #
plane-surface $-1 -74.363841669972842 0 0 1 0 0 0 0 -1 forward_v I I I I #
coedge $-1 $332 $231 $333 $334 forward $139 $-1 #
coedge $-1 $335 $141 $332 $336 forward $89 $-1 #
coedge $-1 $141 $335 $337 $338 forward $89 $-1 #
coedge $-1 $234 $233 $141 $227 reversed $235 $-1 #
edge $-1 $339 -30.60067432298489 $340 30.60067432298489 $226 $341 forward 7 unknown #
coedge $-1 $143 $142 $342 $343 forward $56 $-1 #
coedge $-1 $344 $345 $142 $230 reversed $329 $-1 #
edge $-1 $237 -74.363841669972842 $346 74.363841669972842 $229 $347 forward 7 unknown #
coedge $-1 $223 $348 $143 $232 reversed $139 $-1 #
edge $-1 $349 -74.363841669972842 $236 74.363841669972842 $231 $350 forward 7 unknown #
coedge $-1 $226 $144 $348 $351 forward $235 $-1 #
coedge $-1 $144 $226 $344 $352 reversed $235 $-1 #
loop $-1 $-1 $233 $328 #
vertex $-1 $145 $353 #
vertex $-1 $145 $354 #
straight-curve $-1 74.363841669972842 0 8.5452525464698113 0 1 0 I I #
face $-1 $355 $356 $34 $-1 $357 reversed single #
loop $-1 $-1 $358 $146 #
plane-surface $-1 -74.363841669972842 0 0 1 0 0 0 0 -1 forward_v I I I I #
coedge $-1 $359 $248 $253 $360 reversed $147 $-1 #
coedge $-1 $361 $149 $362 $363 reversed $93 $-1 #
coedge $-1 $149 $361 $359 $364 forward $93 $-1 #
coedge $-1 $253 $252 $149 $246 forward $254 $-1 #
edge $-1 $365 -17.590355052042241 $366 -8.4302834898430561 $245 $367 forward 7 unknown #
coedge $-1 $151 $150 $358 $368 reversed $59 $-1 #
coedge $-1 $242 $369 $150 $249 reversed $147 $-1 #
edge $-1 $255 -74.363841669972842 $370 74.363841669972842 $248 $371 forward 7 unknown #
coedge $-1 $372 $373 $151 $251 forward $356 $-1 #
edge $-1 $256 -74.363841669972842 $374 74.363841669972842 $250 $375 forward 7 unknown #
coedge $-1 $245 $152 $373 $376 forward $254 $-1 #
coedge $-1 $152 $245 $242 $360 forward $254 $-1 #
loop $-1 $-1 $152 $355 #
vertex $-1 $153 $377 #
vertex $-1 $376 $378 #
straight-curve $-1 74.363841669972842 -13.010319270942649 5.1823867388111884 0 -1 0 I I #
face $-1 $-1 $270 $35 $-1 $379 forward single #
loop $-1 $-1 $380 $154 #
plane-surface $-1 -74.363841669972842 0 0 1 0 0 0 0 -1 forward_v I I I I #
coedge $-1 $381 $382 $383 $384 reversed $155 $-1 #
coedge $-1 $385 $157 $159 $268 forward $97 $-1 #
coedge $-1 $157 $385 $381 $386 forward $97 $-1 #
coedge $-1 $383 $160 $157 $265 forward $270 $-1 #
edge $-1 $272 -9.384693901791529 $387 1.6113379477843459 $264 $388 forward 7 unknown #
coedge $-1 $389 $390 $158 $267 forward $259 $-1 #
edge $-1 $391 -56.10127217809152 $271 -47.599681704957348 $266 $392 forward 7 unknown #
edge $-1 $272 -12.958575362996992 $391 0 $159 $393 forward 7 unknown #
coedge $-1 $160 $383 $389 $394 forward $270 $-1 #
loop $-1 $-1 $383 $258 #
vertex $-1 $267 $395 #
vertex $-1 $161 $396 #
straight-curve $-1 -85.968991186281954 -13.27137187879512 8.5452525464698113 1 0 0 I I #
coedge $-1 $274 $274 $-1 $397 reversed $164 $-1 #
edge $-1 $398 0 $398 6.2831853071796004 $165 $399 forward 7 unknown #
vertex $-1 $168 $400 #
ellipse-curve $-1 -69.473861228662599 -10.129648493202012 4.2944573099027252 -0.6560590369687036 0 0.75470957328743171 0.75470957328743171 0 0.6560590369687036 1 I I #
coedge $-1 $278 $278 $-1 $401 reversed $171 $-1 #
edge $-1 $402 0 $402 6.2831853071796004 $172 $403 forward 7 unknown #
vertex $-1 $175 $404 #
ellipse-curve $-1 -69.473861228662599 -5.4170634148123504 4.2944573099027252 -0.6560590369687036 0 0.75470957328743171 0.75470957328743171 0 0.6560590369687036 1 I I #
face $-1 $-1 $405 $38 $-1 $406 reversed single #
loop $-1 $-1 $182 $176 #
plane-surface $-1 0 0 8.5452525464698113 0 0 1 1 0 0 forward_v I I I I #
coedge $-1 $407 $408 $409 $410 reversed $177 $-1 #
coedge $-1 $411 $179 $181 $292 forward $111 $-1 #
coedge $-1 $179 $411 $407 $412 forward $111 $-1 #
coedge $-1 $409 $182 $179 $289 forward $283 $-1 #
edge $-1 $295 3.6256253691511198 $413 14.621657218726996 $288 $414 forward 7 unknown #
coedge $-1 $415 $416 $180 $291 forward $405 $-1 #
edge $-1 $417 -56.10127217809152 $294 -47.599681704957348 $290 $418 forward 7 unknown #
edge $-1 $295 -12.958575362996992 $417 0 $181 $419 forward 7 unknown #
coedge $-1 $182 $409 $415 $420 forward $283 $-1 #
vertex $-1 $183 $421 #
vertex $-1 $183 $422 #
straight-curve $-1 -85.968991186281954 12.749266663090177 8.5452525464698113 1 0 0 I I #
coedge $-1 $297 $297 $-1 $423 reversed $186 $-1 #
edge $-1 $424 0 $424 6.2831853071796004 $187 $425 forward 7 unknown #
vertex $-1 $190 $426 #
ellipse-curve $-1 -69.473861228662599 15.890990048683289 4.2944573099027252 -0.6560590369687036 0 0.75470957328743171 0.75470957328743171 0 0.6560590369687036 1 I I #
coedge $-1 $301 $301 $-1 $427 reversed $193 $-1 #
edge $-1 $428 0 $428 6.2831853071796004 $194 $429 forward 7 unknown #
vertex $-1 $197 $430 #
ellipse-curve $-1 -69.473861228662599 20.603575127072947 4.2944573099027252 -0.6560590369687036 0 0.75470957328743171 0.75470957328743171 0 0.6560590369687036 1 I I #
face $-1 $-1 $431 $41 $-1 $432 reversed single #
loop $-1 $-1 $433 $198 #
plane-surface $-1 74.363841669972842 0 0 -1 0 0 0 0 1 forward_v I I I I #
coedge $-1 $309 $201 $203 $315 reversed $125 $-1 #
coedge $-1 $201 $308 $434 $435 reversed $125 $-1 #
coedge $-1 $436 $204 $201 $311 forward $199 $-1 #
edge $-1 $318 15.346182705039517 $437 18.919973739585537 $310 $438 forward 7 unknown #
coedge $-1 $203 $202 $433 $439 reversed $80 $-1 #
coedge $-1 $440 $441 $202 $314 forward $431 $-1 #
edge $-1 $442 -94.281020490939198 $317 -88.050305837353491 $313 $443 forward 7 unknown #
edge $-1 $444 -148.72768333994574 $318 -142.49696868636002 $308 $445 forward 7 unknown #
coedge $-1 $204 $436 $440 $446 forward $199 $-1 #
vertex $-1 $314 $447 #
vertex $-1 $205 $448 #
straight-curve $-1 70.790050635426823 11.787184318808874 8.5452525464698113 0 -1 0 I I #
coedge $-1 $320 $320 $-1 $449 reversed $208 $-1 #
edge $-1 $450 0 $450 6.2831853071796004 $209 $451 forward 7 unknown #
vertex $-1 $212 $452 #
ellipse-curve $-1 72.576946152699833 20.563094772460392 5.9933011981969724 0.81915205242281985 0 0.57357642473473569 0.86036463710210354 0 -1.2287280786342298 1 I I #
coedge $-1 $324 $324 $-1 $453 reversed $215 $-1 #
edge $-1 $454 0 $454 6.2831853071796004 $216 $455 forward 7 unknown #
vertex $-1 $219 $456 #
ellipse-curve $-1 72.576946152699833 26.585642502775091 5.9933011981969724 0.81915205242281985 0 0.57357642473473569 0.86036463710210354 0 -1.2287280786342298 1 I I #
face $-1 $-1 $235 $33 $-1 $457 reversed single #
loop $-1 $-1 $344 $220 #
plane-surface $-1 0 30.60067432298489 0 0 -1 0 0 0 -1 forward_v I I I I #
coedge $-1 $458 $342 $345 $459 forward $221 $-1 #
coedge $-1 $348 $223 $224 $336 reversed $139 $-1 #
coedge $-1 $342 $458 $223 $334 reversed $221 $-1 #
edge $-1 $349 -8.5452525464698113 $460 8.5452525464698113 $333 $461 forward 7 unknown #
coedge $-1 $225 $224 $458 $462 forward $89 $-1 #
edge $-1 $340 -74.363841669972842 $460 74.363841669972842 $332 $463 forward 7 unknown #
coedge $-1 $345 $344 $225 $338 reversed $329 $-1 #
edge $-1 $464 -74.363841669972842 $339 74.363841669972842 $337 $465 forward 7 unknown #
vertex $-1 $227 $466 #
vertex $-1 $351 $467 #
straight-curve $-1 74.363841669972842 0 -8.5452525464698113 0 -1 0 I I #
coedge $-1 $331 $333 $228 $343 reversed $221 $-1 #
edge $-1 $346 -30.60067432298489 $349 30.60067432298489 $342 $468 forward 7 unknown #
coedge $-1 $337 $229 $234 $352 forward $329 $-1 #
coedge $-1 $229 $337 $331 $459 reversed $329 $-1 #
vertex $-1 $230 $469 #
straight-curve $-1 0 30.60067432298489 8.5452525464698113 -1 0 0 I I #
coedge $-1 $231 $332 $233 $351 reversed $139 $-1 #
vertex $-1 $343 $470 #
straight-curve $-1 0 -30.60067432298489 8.5452525464698113 1 0 0 I I #
edge $-1 $236 -8.5452525464698113 $340 8.5452525464698113 $233 $471 forward 7 unknown #
edge $-1 $237 -8.5452525464698113 $339 8.5452525464698113 $234 $472 forward 7 unknown #
point $-1 74.363841669972842 -30.60067432298489 8.5452525464698113 #
point $-1 74.363841669972842 30.60067432298489 8.5452525464698113 #
face $-1 $-1 $254 $34 $-1 $473 reversed single #
loop $-1 $-1 $250 $239 #
plane-surface $-1 0 -30.60067432298489 0 0 1 0 0 0 1 forward_v I I I I #
coedge $-1 $474 $475 $247 $368 forward $240 $-1 #
coedge $-1 $369 $242 $244 $364 reversed $147 $-1 #
edge $-1 $366 0.33340500966287312 $255 3.3437894893198346 $253 $476 forward 7 unknown #
coedge $-1 $244 $243 $477 $478 reversed $93 $-1 #
coedge $-1 $373 $372 $243 $363 forward $356 $-1 #
edge $-1 $479 -74.363841669972842 $365 74.363841669972842 $362 $480 forward 7 unknown #
edge $-1 $481 -74.363841669972842 $366 74.363841669972842 $359 $482 forward 7 unknown #
vertex $-1 $363 $483 #
vertex $-1 $246 $484 #
straight-curve $-1 74.363841669972842 -13.010319270942649 2.172002259154227 0 1 0 I I #
edge $-1 $374 -17.590355052042241 $370 -8.4302834898430561 $358 $485 forward 7 unknown #
coedge $-1 $248 $359 $474 $486 reversed $147 $-1 #
vertex $-1 $368 $487 #
straight-curve $-1 0 -21.440602760785705 5.1823867388111884 -1 0 0 I I #
coedge $-1 $362 $250 $475 $488 forward $356 $-1 #
coedge $-1 $250 $362 $252 $376 reversed $356 $-1 #
vertex $-1 $488 $489 #
straight-curve $-1 0 -30.60067432298489 5.1823867388111884 -1 0 0 I I #
edge $-1 $256 -5.1823867388111884 $365 -2.172002259154227 $252 $490 forward 7 unknown #
point $-1 74.363841669972842 -21.440602760785705 5.1823867388111884 #
point $-1 74.363841669972842 -30.60067432298489 5.1823867388111884 #
plane-surface $-1 0 0 8.5452525464698113 0 0 1 1 0 0 forward_v I I I I #
coedge $-1 $390 $389 $382 $491 forward $259 $-1 #
coedge $-1 $382 $261 $263 $386 reversed $155 $-1 #
coedge $-1 $261 $381 $380 $491 reversed $155 $-1 #
coedge $-1 $269 $264 $261 $384 forward $270 $-1 #
edge $-1 $387 -21.385110398929598 $492 -11.605149516309112 $383 $493 forward 7 unknown #
coedge $-1 $263 $262 $390 $494 reversed $97 $-1 #
edge $-1 $495 0 $387 12.958575362996992 $381 $496 forward 7 unknown #
vertex $-1 $265 $497 #
straight-curve $-1 -64.583880787352356 -3.8866779770035915 8.545252546469813 0 1 0 I I #
coedge $-1 $380 $266 $269 $394 reversed $259 $-1 #
coedge $-1 $266 $380 $385 $494 forward $259 $-1 #
vertex $-1 $267 $498 #
straight-curve $-1 -74.363841669972842 -13.27137187879512 56.144934251427159 0 0 1 I I #
straight-curve $-1 -74.363841669972842 -13.27137187879512 0.043662073335639207 -0.75470957328743171 0 -0.6560590369687036 I I #
edge $-1 $492 2.2753400292192456 $271 13.27137187879512 $389 $499 forward 7 unknown #
point $-1 -74.363841669972842 -13.27137187879512 8.5452525464698113 #
point $-1 -64.583880787352356 -13.27137187879512 8.5452525464698113 #
edge $-1 $500 1 $500 0 $274 $-1 forward 7 unknown #
vertex $-1 $275 $501 #
ellipse-curve $-1 -66.931434743712515 -10.129648493202012 1.3697302663777009 -0.6560590369687036 0 0.75470957328743171 0.75470957328743171 0 0.6560590369687036 1 I I #
point $-1 -68.719151655375185 -10.129648493202012 4.9505163468714342 #
edge $-1 $502 1 $502 0 $278 $-1 forward 7 unknown #
vertex $-1 $279 $503 #
ellipse-curve $-1 -66.931434743712515 -5.4170634148123504 1.3697302663777009 -0.6560590369687036 0 0.75470957328743171 0.75470957328743171 0 0.6560590369687036 1 I I #
point $-1 -68.719151655375185 -5.4170634148123504 4.9505163468714342 #
loop $-1 $-1 $290 $282 #
plane-surface $-1 -74.363841669972842 0 0 1 0 0 0 0 -1 forward_v I I I I #
coedge $-1 $408 $285 $287 $412 reversed $177 $-1 #
coedge $-1 $285 $407 $504 $505 reversed $177 $-1 #
coedge $-1 $293 $288 $285 $410 forward $283 $-1 #
edge $-1 $413 -21.385110398929598 $506 -11.605149516309112 $409 $507 forward 7 unknown #
coedge $-1 $287 $286 $416 $508 reversed $111 $-1 #
edge $-1 $509 0 $413 12.958575362996992 $407 $510 forward 7 unknown #
vertex $-1 $289 $511 #
straight-curve $-1 -64.583880787352356 9.1236412939390572 8.545252546469813 0 1 0 I I #
coedge $-1 $504 $290 $293 $420 reversed $405 $-1 #
coedge $-1 $290 $504 $411 $508 forward $405 $-1 #
vertex $-1 $291 $512 #
straight-curve $-1 -74.363841669972842 12.749266663090177 56.144934251427159 0 0 1 I I #
straight-curve $-1 -74.363841669972842 12.749266663090177 0.043662073335639207 -0.75470957328743171 0 -0.6560590369687036 I I #
edge $-1 $506 -23.745298512666054 $294 -12.749266663090177 $415 $513 forward 7 unknown #
point $-1 -74.363841669972842 12.749266663090177 8.5452525464698113 #
point $-1 -64.583880787352356 12.749266663090177 8.5452525464698113 #
edge $-1 $514 1 $514 0 $297 $-1 forward 7 unknown #
vertex $-1 $298 $515 #
ellipse-curve $-1 -66.931434743712515 15.890990048683289 1.3697302663777009 -0.6560590369687036 0 0.75470957328743171 0.75470957328743171 0 0.6560590369687036 1 I I #
point $-1 -68.719151655375185 15.890990048683289 4.9505163468714342 #
edge $-1 $516 1 $516 0 $301 $-1 forward 7 unknown #
vertex $-1 $302 $517 #
ellipse-curve $-1 -66.931434743712515 20.603575127072947 1.3697302663777009 -0.6560590369687036 0 0.75470957328743171 0.75470957328743171 0 0.6560590369687036 1 I I #
point $-1 -68.719151655375185 20.603575127072947 4.9505163468714342 #
loop $-1 $-1 $313 $305 #
plane-surface $-1 0 30.60067432298489 0 0 -1 0 0 0 -1 forward_v I I I I #
coedge $-1 $518 $434 $312 $439 forward $306 $-1 #
coedge $-1 $433 $519 $309 $435 forward $306 $-1 #
edge $-1 $437 96.744062343099117 $444 101.84796503964479 $434 $520 forward 7 unknown #
coedge $-1 $316 $310 $519 $521 forward $199 $-1 #
vertex $-1 $521 $522 #
straight-curve $-1 55.443867930387306 16.548062952250596 8.5452525464698113 1 0 0 I I #
edge $-1 $444 4.7608786334417221 $442 18.813490004176025 $433 $523 forward 7 unknown #
coedge $-1 $441 $313 $316 $446 reversed $431 $-1 #
coedge $-1 $313 $440 $518 $524 forward $431 $-1 #
vertex $-1 $314 $525 #
straight-curve $-1 20.286471016437595 30.60067432298489 80.671841289594909 -0.57357642473473569 0 0.81915205242281985 I I #
vertex $-1 $439 $526 #
straight-curve $-1 -10.942851199233132 16.548062952250596 125.2719369099319 -0.57357642473473569 0 0.81915205242281985 I I #
edge $-1 $527 -74.363841669972842 $317 -70.790050635426823 $440 $528 forward 7 unknown #
point $-1 70.790050635426823 30.600674322984901 8.5452525464698113 #
point $-1 70.790050635426823 16.548062952250596 8.5452525464698113 #
edge $-1 $529 1 $529 0 $320 $-1 forward 7 unknown #
vertex $-1 $321 $530 #
ellipse-curve $-1 70.017267859063779 20.563094772460392 4.2009952156966124 0.81915205242281985 0 0.57357642473473569 0.86036463710210354 0 -1.2287280786342298 1 I I #
point $-1 73.437310789801941 20.563094772460392 4.7645731195627512 #
edge $-1 $531 1 $531 0 $324 $-1 forward 7 unknown #
vertex $-1 $325 $532 #
ellipse-curve $-1 70.017267859063779 26.585642502775091 4.2009952156966124 0.81915205242281985 0 0.57357642473473569 0.86036463710210354 0 -1.2287280786342298 1 I I #
point $-1 73.437310789801941 26.585642502775091 4.7645731195627512 #
plane-surface $-1 74.363841669972842 0 0 -1 0 0 0 0 1 forward_v I I I I #
coedge $-1 $333 $331 $335 $462 reversed $221 $-1 #
edge $-1 $346 -8.5452525464698113 $464 8.5452525464698113 $345 $533 forward 7 unknown #
vertex $-1 $462 $534 #
straight-curve $-1 -74.363841669972842 -30.60067432298489 0 0 0 -1 I I #
edge $-1 $460 -30.60067432298489 $464 30.60067432298489 $458 $535 forward 7 unknown #
straight-curve $-1 0 -30.60067432298489 -8.5452525464698113 -1 0 0 I I #
vertex $-1 $338 $536 #
straight-curve $-1 0 30.60067432298489 -8.5452525464698113 1 0 0 I I #
point $-1 74.363841669972842 30.60067432298489 -8.5452525464698113 #
point $-1 74.363841669972842 -30.60067432298489 -8.5452525464698113 #
straight-curve $-1 -74.363841669972842 0 8.5452525464698113 0 -1 0 I I #
point $-1 -74.363841669972842 30.60067432298489 8.5452525464698113 #
point $-1 -74.363841669972842 -30.60067432298489 8.5452525464698113 #
straight-curve $-1 74.363841669972842 -30.60067432298489 0 0 0 -1 I I #
straight-curve $-1 74.363841669972842 30.60067432298489 0 0 0 -1 I I #
plane-surface $-1 74.363841669972842 0 0 -1 0 0 0 0 1 forward_v I I I I #
coedge $-1 $477 $358 $369 $486 forward $240 $-1 #
coedge $-1 $358 $477 $372 $488 reversed $240 $-1 #
straight-curve $-1 74.363841669972842 -21.440602760785705 1.8385972494913538 0 0 1 I I #
coedge $-1 $475 $474 $361 $478 forward $240 $-1 #
edge $-1 $481 8.4302834898430561 $479 17.590355052042241 $477 $537 forward 7 unknown #
vertex $-1 $363 $538 #
straight-curve $-1 0 -30.60067432298489 2.172002259154227 1 0 0 I I #
vertex $-1 $478 $539 #
straight-curve $-1 0 -21.440602760785705 2.172002259154227 1 0 0 I I #
point $-1 74.363841669972842 -30.60067432298489 2.172002259154227 #
point $-1 74.363841669972842 -21.440602760785705 2.172002259154227 #
straight-curve $-1 -74.363841669972842 -13.010319270942649 5.1823867388111884 0 1 0 I I #
edge $-1 $370 -3.3437894893198346 $481 -0.33340500966287312 $474 $540 forward 7 unknown #
point $-1 -74.363841669972842 -21.440602760785705 5.1823867388111884 #
edge $-1 $374 -5.1823867388111884 $479 -2.172002259154227 $475 $541 forward 7 unknown #
point $-1 -74.363841669972842 -30.60067432298489 5.1823867388111884 #
straight-curve $-1 74.363841669972842 -30.60067432298489 0 0 0 -1 I I #
edge $-1 $492 47.599681704957348 $495 56.10127217809152 $380 $542 forward 7 unknown #
vertex $-1 $394 $543 #
straight-curve $-1 -85.968991186281954 -2.2753400292192456 8.5452525464698113 -1 0 0 I I #
edge $-1 $495 -1.6113379477843459 $391 9.384693901791529 $390 $544 forward 7 unknown #
vertex $-1 $494 $545 #
straight-curve $-1 -74.363841669972842 -2.2753400292192456 0.043662073335639207 0.75470957328743171 0 0.6560590369687036 I I #
point $-1 -64.583880787352356 -2.2753400292192456 8.5452525464698113 #
point $-1 -74.363841669972842 -13.27137187879512 0.043662073335639207 #
straight-curve $-1 -74.363841669972842 0 8.5452525464698113 0 -1 0 I I #
vertex $-1 $397 $546 #
point $-1 -66.176725170425073 -10.129648493202012 2.0257893033464045 #
vertex $-1 $401 $547 #
point $-1 -66.176725170425073 -5.4170634148123504 2.0257893033464045 #
coedge $-1 $416 $415 $408 $505 forward $405 $-1 #
edge $-1 $506 47.599681704957348 $509 56.10127217809152 $504 $548 forward 7 unknown #
vertex $-1 $420 $549 #
straight-curve $-1 -85.968991186281954 23.745298512666054 8.5452525464698113 -1 0 0 I I #
edge $-1 $509 -14.621657218726996 $417 -3.6256253691511198 $416 $550 forward 7 unknown #
vertex $-1 $508 $551 #
straight-curve $-1 -74.363841669972842 23.745298512666054 0.043662073335639207 0.75470957328743171 0 0.6560590369687036 I I #
point $-1 -64.583880787352356 23.745298512666054 8.5452525464698113 #
point $-1 -74.363841669972842 12.749266663090177 0.043662073335639207 #
straight-curve $-1 -74.363841669972842 0 8.5452525464698113 0 -1 0 I I #
vertex $-1 $423 $552 #
point $-1 -66.176725170425073 15.890990048683289 2.0257893033464045 #
vertex $-1 $427 $553 #
point $-1 -66.176725170425073 20.603575127072947 2.0257893033464045 #
coedge $-1 $519 $433 $441 $524 reversed $306 $-1 #
coedge $-1 $434 $518 $436 $521 reversed $306 $-1 #
straight-curve $-1 74.363841669972842 16.548062952250596 105.28931488956893 0 0 -1 I I #
edge $-1 $437 16.548062952250596 $527 30.60067432298489 $519 $554 forward 7 unknown #
point $-1 74.363841669972842 16.548062952250596 8.5452525464698113 #
straight-curve $-1 74.363841669972857 11.787184318808874 3.44134984992413 0 1 0 I I #
edge $-1 $527 -8.5452525464698113 $442 -3.4413498499241371 $518 $555 forward 7 unknown #
point $-1 74.363841669972842 30.600674322984901 3.4413498499241371 #
point $-1 74.363841669972842 16.548062952250596 3.4413498499241371 #
vertex $-1 $521 $556 #
straight-curve $-1 0 30.60067432298489 8.5452525464698113 -1 0 0 I I #
vertex $-1 $449 $557 #
point $-1 70.877632496165887 20.563094772460392 2.9722671370623828 #
vertex $-1 $453 $558 #
point $-1 70.877632496165887 26.585642502775091 2.9722671370623828 #
straight-curve $-1 -74.363841669972842 30.60067432298489 0 0 0 -1 I I #
point $-1 -74.363841669972842 -30.60067432298489 -8.5452525464698113 #
straight-curve $-1 -74.363841669972842 0 -8.5452525464698113 0 1 0 I I #
point $-1 -74.363841669972842 30.60067432298489 -8.5452525464698113 #
straight-curve $-1 -74.363841669972842 -13.010319270942649 2.172002259154227 0 -1 0 I I #
point $-1 -74.363841669972842 -30.60067432298489 2.172002259154227 #
point $-1 -74.363841669972842 -21.440602760785705 2.172002259154227 #
straight-curve $-1 -74.363841669972842 -21.440602760785705 1.8385972494913538 0 0 -1 I I #
straight-curve $-1 -74.363841669972842 -30.60067432298489 0 0 0 -1 I I #
straight-curve $-1 -74.363841669972842 -2.2753400292192456 56.144934251427159 0 0 -1 I I #
point $-1 -74.363841669972842 -2.2753400292192456 8.5452525464698113 #
straight-curve $-1 -74.363841669972842 -3.8866779770035915 0.043662073335642065 0 -1 0 I I #
point $-1 -74.363841669972842 -2.2753400292192456 0.043662073335639207 #
point $-1 -66.275375706743802 -10.129648493202012 0.61502069309026908 #
point $-1 -66.275375706743802 -5.4170634148123504 0.61502069309026908 #
straight-curve $-1 -74.363841669972842 23.745298512666054 56.144934251427159 0 0 -1 I I #
point $-1 -74.363841669972842 23.745298512666054 8.5452525464698113 #
straight-curve $-1 -74.363841669972842 9.1236412939390572 0.043662073335642065 0 -1 0 I I #
point $-1 -74.363841669972842 23.745298512666054 0.043662073335639207 #
point $-1 -66.275375706743802 15.890990048683289 0.61502069309026908 #
point $-1 -66.275375706743802 20.603575127072947 0.61502069309026908 #
straight-curve $-1 74.363841669972842 0 8.5452525464698113 0 1 0 I I #
straight-curve $-1 74.363841669972842 30.60067432298489 0 0 0 -1 I I #
point $-1 74.363841669972842 30.60067432298489 8.5452525464698113 #
point $-1 68.788539780429559 20.563094772460392 3.3406305785945092 #
point $-1 68.788539780429559 26.585642502775091 3.3406305785945092 #
End-of-ACIS-data 