500 0 10 0           
7 Unknown 11 ACIS 5.0 NT 24 Fri Mar 26 15:56:58 1999 
-1 9.9999999999999995e-007 1e-010 
body $-1 $10 $-1 $11 #
body $-1 $12 $-1 $13 #
body $-1 $14 $-1 $15 #
body $-1 $16 $-1 $17 #
body $-1 $18 $-1 $19 #
body $-1 $20 $-1 $21 #
body $-1 $22 $-1 $23 #
body $-1 $24 $-1 $25 #
body $-1 $26 $-1 $27 #
body $-1 $28 $-1 $29 #
lump $-1 $-1 $30 $0 #
transform $-1 1 0 0 0 1 0 0 0 1 60.894192327646721 24.513225009852111 6.7380509359641101 1 rotate no_reflect no_shear #
lump $-1 $-1 $31 $1 #
transform $-1 1 0 0 0 1 0 0 0 1 60.894192327646721 24.513225009852111 6.7380509359641101 1 rotate no_reflect no_shear #
lump $-1 $-1 $32 $2 #
transform $-1 1 0 0 0 1 0 0 0 1 60.894192327646721 24.513225009852111 6.7380509359641101 1 rotate no_reflect no_shear #
lump $-1 $-1 $33 $3 #
transform $-1 1 0 0 0 1 0 0 0 1 60.894192327646721 24.513225009852111 6.7380509359641101 1 rotate no_reflect no_shear #
lump $-1 $-1 $34 $4 #
transform $-1 1 0 0 0 1 0 0 0 1 60.894192327646721 24.513225009852111 6.7380509359641101 1 rotate no_reflect no_shear #
lump $-1 $-1 $35 $5 #
transform $-1 1 0 0 0 1 0 0 0 1 60.894192327646721 24.513225009852111 6.7380509359641101 1 rotate no_reflect no_shear #
lump $-1 $-1 $36 $6 #
transform $-1 1 0 0 0 1 0 0 0 1 60.894192327646721 24.513225009852111 6.7380509359641101 1 rotate no_reflect no_shear #
lump $-1 $-1 $37 $7 #
transform $-1 1 0 0 0 1 0 0 0 1 60.894192327646721 24.513225009852111 6.7380509359641101 1 rotate no_reflect no_shear #
lump $-1 $-1 $38 $8 #
transform $-1 1 0 0 0 1 0 0 0 1 60.894192327646721 24.513225009852111 6.7380509359641101 1 rotate no_reflect no_shear #
lump $-1 $-1 $39 $9 #
transform $-1 1 0 0 0 1 0 0 0 1 60.894192327646721 24.513225009852111 6.7380509359641101 1 rotate no_reflect no_shear #
shell $-1 $-1 $-1 $40 $-1 $10 #
shell $-1 $-1 $-1 $41 $-1 $12 #
shell $-1 $-1 $-1 $42 $-1 $14 #
shell $-1 $-1 $-1 $43 $-1 $16 #
shell $-1 $-1 $-1 $44 $-1 $18 #
shell $-1 $-1 $-1 $45 $-1 $20 #
shell $-1 $-1 $-1 $46 $-1 $22 #
shell $-1 $-1 $-1 $47 $-1 $24 #
shell $-1 $-1 $-1 $48 $-1 $26 #
shell $-1 $-1 $-1 $49 $-1 $28 #
face $-1 $50 $51 $30 $-1 $52 forward single #
face $-1 $53 $54 $31 $-1 $55 forward single #
face $-1 $56 $57 $32 $-1 $58 reversed single #
face $-1 $59 $60 $33 $-1 $61 forward single #
face $-1 $62 $63 $34 $-1 $64 forward single #
face $-1 $65 $66 $35 $-1 $67 forward single #
face $-1 $68 $69 $36 $-1 $70 reversed single #
face $-1 $71 $72 $37 $-1 $73 forward single #
face $-1 $74 $75 $38 $-1 $76 forward single #
face $-1 $77 $78 $39 $-1 $79 forward single #
face $-1 $80 $81 $30 $-1 $82 reversed single #
loop $-1 $-1 $83 $40 #
plane-surface $-1 0 0 6.7380509359641101 0 0 1 1 0 0 forward_v I I I I #
face $-1 $84 $85 $31 $-1 $86 reversed single #
loop $-1 $-1 $87 $41 #
plane-surface $-1 0 -22.250309610049676 -3.7380509359641101 0 0 1 1 0 0 forward_v I I I I #
face $-1 $88 $89 $32 $-1 $90 reversed single #
loop $-1 $-1 $91 $42 #
plane-surface $-1 75.905445181064039 0.8113394535587819 171.71319530669868 0 -1 0 -0.7660444514056185 0 -0.64278759981090561 forward_v I I I I #
face $-1 $92 $93 $33 $-1 $94 forward single #
loop $-1 $95 $96 $43 #
cone-surface $-1 57.690293454336043 -6.691587222864225 3.0725249000492458 -0.7660444514056185 0 -0.64278759981090561 0.3213937999054528 0 -0.38302222570280925 1 I I 0 1 0.5 forward I I I I #
face $-1 $97 $98 $34 $-1 $99 forward single #
loop $-1 $100 $101 $44 #
cone-surface $-1 57.690293454336043 -3.8779897192055977 3.0725249000492458 -0.7660444514056185 0 -0.64278759981090561 0.3213937999054528 0 -0.38302222570280925 1 I I 0 1 0.5 forward I I I I #
face $-1 $102 $103 $35 $-1 $104 forward single #
loop $-1 $105 $106 $45 #
cone-surface $-1 57.690293454336043 -1.0643922155469703 3.0725249000492458 -0.7660444514056185 0 -0.64278759981090561 0.3213937999054528 0 -0.38302222570280925 1 I I 0 1 0.5 forward I I I I #
face $-1 $107 $108 $36 $-1 $109 reversed single #
loop $-1 $-1 $110 $46 #
plane-surface $-1 -154.18950863848744 -8.5673188919699772 78.417878995857976 0 1 0 -0.7660444514056185 0 0.64278759981090561 forward_v I I I I #
face $-1 $111 $112 $37 $-1 $113 forward single #
loop $-1 $114 $115 $47 #
cone-surface $-1 -57.69029345433605 -6.691587222864225 3.0725249000492565 0.7660444514056185 0 -0.64278759981090561 0.3213937999054528 0 0.38302222570280925 1 I I 0 1 0.5 forward I I I I #
face $-1 $116 $117 $38 $-1 $118 forward single #
loop $-1 $119 $120 $48 #
cone-surface $-1 -57.69029345433605 -3.8779897192055977 3.0725249000492565 0.7660444514056185 0 -0.64278759981090561 0.3213937999054528 0 0.38302222570280925 1 I I 0 1 0.5 forward I I I I #
face $-1 $121 $122 $39 $-1 $123 forward single #
loop $-1 $124 $125 $49 #
cone-surface $-1 -57.69029345433605 -1.0643922155469703 3.0725249000492565 0.7660444514056185 0 -0.64278759981090561 0.3213937999054528 0 0.38302222570280925 1 I I 0 1 0.5 forward I I I I #
face $-1 $126 $127 $30 $-1 $128 reversed single #
loop $-1 $-1 $129 $50 #
plane-surface $-1 0 0 -6.7380509359641101 0 0 1 1 0 0 forward_v I I I I #
coedge $-1 $130 $131 $132 $133 forward $51 $-1 #
face $-1 $134 $135 $31 $-1 $136 reversed single #
loop $-1 $-1 $137 $53 #
plane-surface $-1 0 -19.987394210247242 -5.2380509359641101 0 -1 0 0 0 -1 forward_v I I I I #
coedge $-1 $138 $139 $140 $141 reversed $54 $-1 #
face $-1 $142 $143 $32 $-1 $144 reversed single #
loop $-1 $-1 $145 $56 #
plane-surface $-1 -17.389871129776665 -3.8779897192055977 93.429131849275279 0.7660444514056185 0 0.64278759981090561 0.64278759981090561 0 -0.7660444514056185 forward_v I I I I #
coedge $-1 $146 $147 $148 $149 reversed $57 $-1 #
face $-1 $-1 $150 $33 $-1 $151 forward single #
loop $-1 $152 $153 $59 #
cone-surface $-1 57.065689138768434 -6.691587222864225 2.5484196629464302 -0.7660444514056185 0 -0.64278759981090561 0.1606968999527264 0 -0.19151111285140462 1 I I -0.70710678118654746 0.70710678118654746 0.25 forward I I I I #
loop $-1 $-1 $154 $43 #
coedge $-1 $96 $96 $155 $156 reversed $60 $-1 #
face $-1 $-1 $157 $34 $-1 $158 forward single #
loop $-1 $159 $160 $62 #
cone-surface $-1 57.065689138768434 -3.8779897192055977 2.5484196629464302 -0.7660444514056185 0 -0.64278759981090561 0.1606968999527264 0 -0.19151111285140462 1 I I -0.70710678118654746 0.70710678118654746 0.25 forward I I I I #
loop $-1 $-1 $161 $44 #
coedge $-1 $101 $101 $162 $163 reversed $63 $-1 #
face $-1 $-1 $164 $35 $-1 $165 forward single #
loop $-1 $166 $167 $65 #
cone-surface $-1 57.065689138768434 -1.0643922155469703 2.5484196629464302 -0.7660444514056185 0 -0.64278759981090561 0.1606968999527264 0 -0.19151111285140462 1 I I -0.70710678118654746 0.70710678118654746 0.25 forward I I I I #
loop $-1 $-1 $168 $45 #
coedge $-1 $106 $106 $169 $170 reversed $66 $-1 #
face $-1 $171 $172 $36 $-1 $173 reversed single #
loop $-1 $-1 $174 $68 #
plane-surface $-1 -60.894192327646735 -3.8779897192055977 0.13381553843457539 -0.7660444514056185 0 0.64278759981090561 0.64278759981090561 0 0.7660444514056185 forward_v I I I I #
coedge $-1 $175 $176 $177 $178 reversed $69 $-1 #
face $-1 $-1 $179 $37 $-1 $180 forward single #
loop $-1 $181 $182 $71 #
cone-surface $-1 -57.065689138768441 -6.691587222864225 2.5484196629464408 0.7660444514056185 0 -0.64278759981090561 0.1606968999527264 0 0.19151111285140462 1 I I -0.70710678118654746 0.70710678118654746 0.25 forward I I I I #
loop $-1 $-1 $183 $47 #
coedge $-1 $115 $115 $184 $185 reversed $72 $-1 #
face $-1 $-1 $186 $38 $-1 $187 forward single #
loop $-1 $188 $189 $74 #
cone-surface $-1 -57.065689138768441 -3.8779897192055977 2.5484196629464408 0.7660444514056185 0 -0.64278759981090561 0.1606968999527264 0 0.19151111285140462 1 I I -0.70710678118654746 0.70710678118654746 0.25 forward I I I I #
loop $-1 $-1 $190 $48 #
coedge $-1 $120 $120 $191 $192 reversed $75 $-1 #
face $-1 $-1 $193 $39 $-1 $194 forward single #
loop $-1 $195 $196 $77 #
cone-surface $-1 -57.065689138768441 -1.0643922155469703 2.5484196629464408 0.7660444514056185 0 -0.64278759981090561 0.1606968999527264 0 0.19151111285140462 1 I I -0.70710678118654746 0.70710678118654746 0.25 forward I I I I #
loop $-1 $-1 $197 $49 #
coedge $-1 $125 $125 $198 $199 reversed $78 $-1 #
face $-1 $200 $201 $30 $-1 $202 reversed single #
loop $-1 $-1 $203 $80 #
plane-surface $-1 0 -24.513225009852111 0 0 1 0 0 0 1 forward_v I I I I #
coedge $-1 $204 $205 $206 $207 forward $81 $-1 #
coedge $-1 $208 $83 $209 $210 forward $51 $-1 #
coedge $-1 $83 $208 $211 $212 forward $51 $-1 #
coedge $-1 $213 $214 $83 $133 reversed $215 $-1 #
edge $-1 $216 -24.513225009852111 $217 24.513225009852111 $132 $218 forward 7 unknown #
face $-1 $219 $220 $31 $-1 $221 reversed single #
loop $-1 $-1 $222 $84 #
plane-surface $-1 0 0 -6.7380509359641101 0 0 1 1 0 0 forward_v I I I I #
coedge $-1 $223 $224 $225 $226 reversed $85 $-1 #
coedge $-1 $227 $87 $224 $228 forward $54 $-1 #
coedge $-1 $87 $227 $229 $230 reversed $54 $-1 #
coedge $-1 $231 $225 $87 $141 forward $220 $-1 #
edge $-1 $232 8.8622394052224038 $233 13.388070204827272 $140 $234 forward 7 unknown #
face $-1 $235 $236 $32 $-1 $237 reversed single #
loop $-1 $-1 $238 $88 #
plane-surface $-1 75.905445181064039 -8.5673188919699772 171.71319530669868 0 1 0 0.7660444514056185 0 0.64278759981090561 forward_v I I I I #
coedge $-1 $239 $240 $241 $242 reversed $89 $-1 #
coedge $-1 $147 $91 $243 $244 reversed $57 $-1 #
coedge $-1 $91 $146 $239 $245 reversed $57 $-1 #
coedge $-1 $241 $246 $91 $149 forward $247 $-1 #
edge $-1 $248 -22.941469737114701 $249 -17.399858395925776 $148 $250 forward 7 unknown #
loop $-1 $-1 $155 $92 #
plane-surface $-1 -17.389871129776665 -3.8779897192055977 93.429131849275279 0.7660444514056185 0 0.64278759981090561 0.64278759981090561 0 -0.7660444514056185 forward_v I I I I #
loop $-1 $-1 $251 $59 #
coedge $-1 $153 $153 $154 $252 reversed $93 $-1 #
coedge $-1 $154 $154 $153 $252 forward $95 $-1 #
coedge $-1 $155 $155 $96 $156 forward $150 $-1 #
edge $-1 $253 0 $253 6.2831853071796004 $155 $254 forward 7 unknown #
loop $-1 $-1 $162 $97 #
plane-surface $-1 -17.389871129776665 -3.8779897192055977 93.429131849275279 0.7660444514056185 0 0.64278759981090561 0.64278759981090561 0 -0.7660444514056185 forward_v I I I I #
loop $-1 $-1 $255 $62 #
coedge $-1 $160 $160 $161 $256 reversed $98 $-1 #
coedge $-1 $161 $161 $160 $256 forward $100 $-1 #
coedge $-1 $162 $162 $101 $163 forward $157 $-1 #
edge $-1 $257 0 $257 6.2831853071796004 $162 $258 forward 7 unknown #
loop $-1 $-1 $169 $102 #
plane-surface $-1 -17.389871129776665 -3.8779897192055977 93.429131849275279 0.7660444514056185 0 0.64278759981090561 0.64278759981090561 0 -0.7660444514056185 forward_v I I I I #
loop $-1 $-1 $259 $65 #
coedge $-1 $167 $167 $168 $260 reversed $103 $-1 #
coedge $-1 $168 $168 $167 $260 forward $105 $-1 #
coedge $-1 $169 $169 $106 $170 forward $164 $-1 #
edge $-1 $261 0 $261 6.2831853071796004 $169 $262 forward 7 unknown #
face $-1 $263 $264 $36 $-1 $265 forward single #
loop $-1 $-1 $266 $107 #
plane-surface $-1 -154.18950863848744 0.8113394535587819 78.417878995857976 0 -1 0 0.7660444514056185 0 -0.64278759981090561 forward_v I I I I #
coedge $-1 $267 $268 $269 $270 reversed $108 $-1 #
coedge $-1 $176 $110 $271 $272 reversed $69 $-1 #
coedge $-1 $110 $175 $267 $273 reversed $69 $-1 #
coedge $-1 $269 $274 $110 $178 forward $264 $-1 #
edge $-1 $275 16.200561991596999 $276 21.742173332785917 $177 $277 forward 7 unknown #
loop $-1 $-1 $184 $111 #
plane-surface $-1 -60.894192327646735 -3.8779897192055977 0.13381553843457539 -0.7660444514056185 0 0.64278759981090561 0.64278759981090561 0 0.7660444514056185 forward_v I I I I #
loop $-1 $-1 $278 $71 #
coedge $-1 $182 $182 $183 $279 reversed $112 $-1 #
coedge $-1 $183 $183 $182 $279 forward $114 $-1 #
coedge $-1 $184 $184 $115 $185 forward $179 $-1 #
edge $-1 $280 0 $280 6.2831853071796004 $184 $281 forward 7 unknown #
loop $-1 $-1 $191 $116 #
plane-surface $-1 -60.894192327646735 -3.8779897192055977 0.13381553843457539 -0.7660444514056185 0 0.64278759981090561 0.64278759981090561 0 0.7660444514056185 forward_v I I I I #
loop $-1 $-1 $282 $74 #
coedge $-1 $189 $189 $190 $283 reversed $117 $-1 #
coedge $-1 $190 $190 $189 $283 forward $119 $-1 #
coedge $-1 $191 $191 $120 $192 forward $186 $-1 #
edge $-1 $284 0 $284 6.2831853071796004 $191 $285 forward 7 unknown #
loop $-1 $-1 $198 $121 #
plane-surface $-1 -60.894192327646735 -3.8779897192055977 0.13381553843457539 -0.7660444514056185 0 0.64278759981090561 0.64278759981090561 0 0.7660444514056185 forward_v I I I I #
loop $-1 $-1 $286 $77 #
coedge $-1 $196 $196 $197 $287 reversed $122 $-1 #
coedge $-1 $197 $197 $196 $287 forward $124 $-1 #
coedge $-1 $198 $198 $125 $199 forward $193 $-1 #
edge $-1 $288 0 $288 6.2831853071796004 $198 $289 forward 7 unknown #
face $-1 $290 $291 $30 $-1 $292 reversed single #
loop $-1 $-1 $293 $126 #
plane-surface $-1 -60.894192327646721 0 0 1 0 0 0 0 -1 forward_v I I I I #
coedge $-1 $294 $211 $295 $296 forward $127 $-1 #
coedge $-1 $297 $129 $294 $298 forward $81 $-1 #
coedge $-1 $129 $297 $299 $300 forward $81 $-1 #
coedge $-1 $214 $213 $129 $207 reversed $215 $-1 #
edge $-1 $301 -24.513225009852111 $302 24.513225009852111 $206 $303 forward 7 unknown #
coedge $-1 $131 $130 $304 $305 forward $51 $-1 #
coedge $-1 $306 $307 $130 $210 reversed $291 $-1 #
edge $-1 $217 -60.894192327646721 $308 60.894192327646721 $209 $309 forward 7 unknown #
coedge $-1 $203 $310 $131 $212 reversed $127 $-1 #
edge $-1 $311 -60.894192327646721 $216 60.894192327646721 $211 $312 forward 7 unknown #
coedge $-1 $206 $132 $310 $313 forward $215 $-1 #
coedge $-1 $132 $206 $306 $314 reversed $215 $-1 #
loop $-1 $-1 $213 $290 #
vertex $-1 $133 $315 #
vertex $-1 $133 $316 #
straight-curve $-1 60.894192327646721 0 6.7380509359641101 0 1 0 I I #
face $-1 $317 $318 $31 $-1 $319 reversed single #
loop $-1 $-1 $225 $134 #
plane-surface $-1 60.894192327646721 0 0 -1 0 0 0 0 1 forward_v I I I I #
coedge $-1 $320 $321 $223 $322 forward $135 $-1 #
coedge $-1 $323 $137 $222 $322 reversed $85 $-1 #
coedge $-1 $137 $323 $138 $228 reversed $85 $-1 #
coedge $-1 $140 $324 $137 $226 forward $220 $-1 #
edge $-1 $325 -4.1190254679820555 $232 -1.119025467982055 $225 $326 forward 7 unknown #
coedge $-1 $139 $138 $327 $328 reversed $54 $-1 #
edge $-1 $232 -60.894192327646721 $329 60.894192327646721 $224 $330 forward 7 unknown #
coedge $-1 $331 $332 $139 $230 forward $318 $-1 #
edge $-1 $233 -60.894192327646721 $333 60.894192327646721 $229 $334 forward 7 unknown #
coedge $-1 $324 $140 $332 $335 forward $220 $-1 #
vertex $-1 $141 $336 #
vertex $-1 $335 $337 #
straight-curve $-1 60.894192327646721 -11.125154805024838 -3.7380509359641101 0 -1 0 I I #
face $-1 $-1 $247 $32 $-1 $338 forward single #
loop $-1 $-1 $339 $142 #
plane-surface $-1 60.894192327646721 0 0 -1 0 0 0 0 1 forward_v I I I I #
coedge $-1 $340 $341 $342 $343 reversed $143 $-1 #
coedge $-1 $344 $145 $147 $245 forward $89 $-1 #
coedge $-1 $145 $344 $340 $345 forward $89 $-1 #
coedge $-1 $342 $148 $145 $242 forward $247 $-1 #
edge $-1 $249 -2.7503343131615807 $346 6.6283240323671784 $241 $347 forward 7 unknown #
coedge $-1 $348 $349 $146 $244 forward $236 $-1 #
edge $-1 $350 -85.72278211491475 $248 -79.118546717385229 $243 $351 forward 7 unknown #
edge $-1 $249 113.16716772015165 $350 121.78838465529344 $147 $352 forward 7 unknown #
coedge $-1 $148 $342 $348 $353 forward $247 $-1 #
loop $-1 $-1 $342 $235 #
vertex $-1 $244 $354 #
vertex $-1 $149 $355 #
straight-curve $-1 37.952722590532019 0.8113394535587819 6.738050935964111 -1 0 0 I I #
coedge $-1 $251 $251 $-1 $356 reversed $152 $-1 #
edge $-1 $357 0 $357 6.2831853071796004 $153 $358 forward 7 unknown #
vertex $-1 $156 $359 #
ellipse-curve $-1 58.123386657052258 -6.691587222864225 3.4359332371993432 0.7660444514056185 0 0.64278759981090561 0.3213937999054528 0 -0.38302222570280925 1 I I #
coedge $-1 $255 $255 $-1 $360 reversed $159 $-1 #
edge $-1 $361 0 $361 6.2831853071796004 $160 $362 forward 7 unknown #
vertex $-1 $163 $363 #
ellipse-curve $-1 58.123386657052258 -3.8779897192055977 3.4359332371993432 0.7660444514056185 0 0.64278759981090561 0.3213937999054528 0 -0.38302222570280925 1 I I #
coedge $-1 $259 $259 $-1 $364 reversed $166 $-1 #
edge $-1 $365 0 $365 6.2831853071796004 $167 $366 forward 7 unknown #
vertex $-1 $170 $367 #
ellipse-curve $-1 58.123386657052258 -1.0643922155469703 3.4359332371993432 0.7660444514056185 0 0.64278759981090561 0.3213937999054528 0 -0.38302222570280925 1 I I #
face $-1 $-1 $368 $36 $-1 $369 reversed single #
loop $-1 $-1 $177 $171 #
plane-surface $-1 0 0 6.7380509359641101 0 0 1 1 0 0 forward_v I I I I #
coedge $-1 $370 $371 $372 $373 reversed $172 $-1 #
coedge $-1 $374 $174 $176 $273 forward $108 $-1 #
coedge $-1 $174 $374 $370 $375 forward $108 $-1 #
coedge $-1 $372 $177 $174 $270 forward $264 $-1 #
edge $-1 $276 -6.6283240323671784 $376 2.7503343131615807 $269 $377 forward 7 unknown #
coedge $-1 $378 $379 $175 $272 forward $368 $-1 #
edge $-1 $380 -39.075123959494398 $275 -32.470888561964877 $271 $381 forward 7 unknown #
edge $-1 $276 -8.6212169351418098 $380 -2.2104384058158377e-014 $176 $382 forward 7 unknown #
coedge $-1 $177 $372 $378 $383 forward $264 $-1 #
vertex $-1 $272 $384 #
vertex $-1 $178 $385 #
straight-curve $-1 -77.094754319243719 -8.5673188919699772 6.738050935964111 1 0 0 I I #
coedge $-1 $278 $278 $-1 $386 reversed $181 $-1 #
edge $-1 $387 0 $387 6.2831853071796004 $182 $388 forward 7 unknown #
vertex $-1 $185 $389 #
ellipse-curve $-1 -58.123386657052258 -6.691587222864225 3.4359332371993498 -0.7660444514056185 0 0.64278759981090561 0.3213937999054528 0 0.38302222570280925 1 I I #
coedge $-1 $282 $282 $-1 $390 reversed $188 $-1 #
edge $-1 $391 0 $391 6.2831853071796004 $189 $392 forward 7 unknown #
vertex $-1 $192 $393 #
ellipse-curve $-1 -58.123386657052258 -3.8779897192055977 3.4359332371993498 -0.7660444514056185 0 0.64278759981090561 0.3213937999054528 0 0.38302222570280925 1 I I #
coedge $-1 $286 $286 $-1 $394 reversed $195 $-1 #
edge $-1 $395 0 $395 6.2831853071796004 $196 $396 forward 7 unknown #
vertex $-1 $199 $397 #
ellipse-curve $-1 -58.123386657052258 -1.0643922155469703 3.4359332371993498 -0.7660444514056185 0 0.64278759981090561 0.3213937999054528 0 0.38302222570280925 1 I I #
face $-1 $-1 $215 $30 $-1 $398 reversed single #
loop $-1 $-1 $306 $200 #
plane-surface $-1 0 24.513225009852111 0 0 -1 0 0 0 -1 forward_v I I I I #
coedge $-1 $399 $304 $307 $400 forward $201 $-1 #
coedge $-1 $310 $203 $204 $298 reversed $127 $-1 #
coedge $-1 $304 $399 $203 $296 reversed $201 $-1 #
edge $-1 $311 -6.7380509359641101 $401 6.7380509359641101 $295 $402 forward 7 unknown #
coedge $-1 $205 $204 $399 $403 forward $81 $-1 #
edge $-1 $302 -60.894192327646721 $401 60.894192327646721 $294 $404 forward 7 unknown #
coedge $-1 $307 $306 $205 $300 reversed $291 $-1 #
edge $-1 $405 -60.894192327646721 $301 60.894192327646721 $299 $406 forward 7 unknown #
vertex $-1 $207 $407 #
vertex $-1 $313 $408 #
straight-curve $-1 60.894192327646721 0 -6.7380509359641101 0 -1 0 I I #
coedge $-1 $293 $295 $208 $305 reversed $201 $-1 #
edge $-1 $308 -24.513225009852111 $311 24.513225009852111 $304 $409 forward 7 unknown #
coedge $-1 $299 $209 $214 $314 forward $291 $-1 #
coedge $-1 $209 $299 $293 $400 reversed $291 $-1 #
vertex $-1 $210 $410 #
straight-curve $-1 0 24.513225009852111 6.7380509359641101 -1 0 0 I I #
coedge $-1 $211 $294 $213 $313 reversed $127 $-1 #
vertex $-1 $305 $411 #
straight-curve $-1 0 -24.513225009852111 6.7380509359641101 1 0 0 I I #
edge $-1 $216 -6.7380509359641101 $302 6.7380509359641101 $213 $412 forward 7 unknown #
edge $-1 $217 -6.7380509359641101 $301 6.7380509359641101 $214 $413 forward 7 unknown #
point $-1 60.894192327646721 -24.513225009852111 6.7380509359641101 #
point $-1 60.894192327646721 24.513225009852111 6.7380509359641101 #
face $-1 $-1 $414 $31 $-1 $415 reversed single #
loop $-1 $-1 $229 $219 #
plane-surface $-1 0 -24.513225009852111 0 0 1 0 0 0 1 forward_v I I I I #
coedge $-1 $416 $222 $324 $417 forward $135 $-1 #
coedge $-1 $222 $416 $418 $419 forward $135 $-1 #
edge $-1 $420 -60.894192327646721 $325 60.894192327646721 $222 $421 forward 7 unknown #
coedge $-1 $224 $223 $422 $423 reversed $85 $-1 #
coedge $-1 $225 $231 $320 $417 reversed $220 $-1 #
vertex $-1 $417 $424 #
straight-curve $-1 60.894192327646721 -19.987394210247242 -2.619025467982055 0 0 1 I I #
coedge $-1 $422 $425 $227 $328 forward $414 $-1 #
edge $-1 $333 -13.388070204827272 $329 -8.8622394052224038 $327 $426 forward 7 unknown #
vertex $-1 $328 $427 #
straight-curve $-1 0 -19.987394210247242 -3.7380509359641101 -1 0 0 I I #
coedge $-1 $428 $229 $425 $429 forward $318 $-1 #
coedge $-1 $229 $428 $231 $335 reversed $318 $-1 #
vertex $-1 $429 $430 #
straight-curve $-1 0 -24.513225009852111 -3.7380509359641101 -1 0 0 I I #
edge $-1 $233 3.7380509359641101 $431 6.7380509359641101 $231 $432 forward 7 unknown #
point $-1 60.894192327646721 -19.987394210247242 -3.7380509359641101 #
point $-1 60.894192327646721 -24.513225009852111 -3.7380509359641101 #
plane-surface $-1 0 0 6.7380509359641101 0 0 1 1 0 0 forward_v I I I I #
coedge $-1 $349 $348 $341 $433 forward $236 $-1 #
coedge $-1 $341 $238 $240 $345 reversed $143 $-1 #
coedge $-1 $238 $340 $339 $433 reversed $143 $-1 #
coedge $-1 $246 $241 $238 $343 forward $247 $-1 #
edge $-1 $346 17.399858395925776 $434 22.941469737114701 $342 $435 forward 7 unknown #
coedge $-1 $240 $239 $349 $436 reversed $89 $-1 #
edge $-1 $437 -121.78838465529344 $346 -113.16716772015165 $340 $438 forward 7 unknown #
vertex $-1 $242 $439 #
straight-curve $-1 55.352580986457788 -1.9389948596027988 6.7380509359641181 0 -1 0 I I #
coedge $-1 $339 $243 $246 $353 reversed $236 $-1 #
coedge $-1 $243 $339 $344 $436 forward $236 $-1 #
vertex $-1 $244 $440 #
straight-curve $-1 60.894192327646721 0.8113394535587819 85.85659765334934 0 0 1 I I #
straight-curve $-1 -17.389871129776665 0.8113394535587819 93.429131849275279 0.64278759981090561 0 -0.7660444514056185 I I #
edge $-1 $434 -8.5673188919699772 $248 0.8113394535587819 $348 $441 forward 7 unknown #
point $-1 60.894192327646721 0.8113394535587819 6.7380509359641101 #
point $-1 55.352580986457795 0.8113394535587819 6.738050935964111 #
edge $-1 $442 1 $442 0 $251 $-1 forward 7 unknown #
vertex $-1 $252 $443 #
ellipse-curve $-1 57.257200251619835 -6.691587222864225 2.7091165628991565 0.7660444514056185 0 0.64278759981090561 0.3213937999054528 0 -0.38302222570280925 1 I I #
point $-1 58.444780456957702 -6.691587222864225 3.0529110114965263 #
edge $-1 $444 1 $444 0 $255 $-1 forward 7 unknown #
vertex $-1 $256 $445 #
ellipse-curve $-1 57.257200251619835 -3.8779897192055977 2.7091165628991565 0.7660444514056185 0 0.64278759981090561 0.3213937999054528 0 -0.38302222570280925 1 I I #
point $-1 58.444780456957702 -3.8779897192055977 3.0529110114965263 #
edge $-1 $446 1 $446 0 $259 $-1 forward 7 unknown #
vertex $-1 $260 $447 #
ellipse-curve $-1 57.257200251619835 -1.0643922155469703 2.7091165628991565 0.7660444514056185 0 0.64278759981090561 0.3213937999054528 0 -0.38302222570280925 1 I I #
point $-1 58.444780456957702 -1.0643922155469703 3.0529110114965263 #
loop $-1 $-1 $271 $263 #
plane-surface $-1 -60.894192327646721 0 0 1 0 0 0 0 -1 forward_v I I I I #
coedge $-1 $371 $266 $268 $375 reversed $172 $-1 #
coedge $-1 $266 $370 $448 $449 reversed $172 $-1 #
coedge $-1 $274 $269 $266 $373 forward $264 $-1 #
edge $-1 $376 -21.742173332785917 $450 -16.200561991596999 $372 $451 forward 7 unknown #
coedge $-1 $268 $267 $379 $452 reversed $108 $-1 #
edge $-1 $453 2.2104384058158377e-014 $376 8.6212169351418098 $370 $454 forward 7 unknown #
vertex $-1 $270 $455 #
straight-curve $-1 -55.352580986457802 -1.9389948596027988 6.738050935964111 0 1 0 I I #
coedge $-1 $448 $271 $274 $383 reversed $368 $-1 #
coedge $-1 $271 $448 $374 $452 forward $368 $-1 #
vertex $-1 $272 $456 #
straight-curve $-1 -60.894192327646721 -8.5673188919699772 39.208939497928988 0 0 1 I I #
straight-curve $-1 -60.894192327646735 -8.5673188919699772 0.13381553843457539 -0.64278759981090561 0 -0.7660444514056185 I I #
edge $-1 $450 -0.8113394535587819 $275 8.5673188919699772 $378 $457 forward 7 unknown #
point $-1 -60.894192327646721 -8.5673188919699772 6.7380509359641101 #
point $-1 -55.352580986457802 -8.5673188919699772 6.7380509359641101 #
edge $-1 $458 1 $458 0 $278 $-1 forward 7 unknown #
vertex $-1 $279 $459 #
ellipse-curve $-1 -57.257200251619842 -6.691587222864225 2.7091165628991671 -0.7660444514056185 0 0.64278759981090561 0.3213937999054528 0 0.38302222570280925 1 I I #
point $-1 -57.801992857146807 -6.691587222864225 3.8189554629021552 #
edge $-1 $460 1 $460 0 $282 $-1 forward 7 unknown #
vertex $-1 $283 $461 #
ellipse-curve $-1 -57.257200251619842 -3.8779897192055977 2.7091165628991671 -0.7660444514056185 0 0.64278759981090561 0.3213937999054528 0 0.38302222570280925 1 I I #
point $-1 -57.801992857146807 -3.8779897192055977 3.8189554629021552 #
edge $-1 $462 1 $462 0 $286 $-1 forward 7 unknown #
vertex $-1 $287 $463 #
ellipse-curve $-1 -57.257200251619842 -1.0643922155469703 2.7091165628991671 -0.7660444514056185 0 0.64278759981090561 0.3213937999054528 0 0.38302222570280925 1 I I #
point $-1 -57.801992857146807 -1.0643922155469703 3.8189554629021552 #
plane-surface $-1 60.894192327646721 0 0 -1 0 0 0 0 1 forward_v I I I I #
coedge $-1 $295 $293 $297 $403 reversed $201 $-1 #
edge $-1 $308 -6.7380509359641101 $405 6.7380509359641101 $307 $464 forward 7 unknown #
vertex $-1 $403 $465 #
straight-curve $-1 -60.894192327646721 -24.513225009852111 0 0 0 -1 I I #
edge $-1 $401 -24.513225009852111 $405 24.513225009852111 $399 $466 forward 7 unknown #
straight-curve $-1 0 -24.513225009852111 -6.7380509359641101 -1 0 0 I I #
vertex $-1 $300 $467 #
straight-curve $-1 0 24.513225009852111 -6.7380509359641101 1 0 0 I I #
point $-1 60.894192327646721 24.513225009852111 -6.7380509359641101 #
point $-1 60.894192327646721 -24.513225009852111 -6.7380509359641101 #
straight-curve $-1 -60.894192327646721 0 6.7380509359641101 0 -1 0 I I #
point $-1 -60.894192327646721 24.513225009852111 6.7380509359641101 #
point $-1 -60.894192327646721 -24.513225009852111 6.7380509359641101 #
straight-curve $-1 60.894192327646721 -24.513225009852111 0 0 0 -1 I I #
straight-curve $-1 60.894192327646721 24.513225009852111 0 0 0 -1 I I #
loop $-1 $-1 $422 $317 #
plane-surface $-1 -60.894192327646721 0 0 1 0 0 0 0 -1 forward_v I I I I #
coedge $-1 $321 $320 $428 $468 forward $135 $-1 #
edge $-1 $325 19.987394210247242 $431 24.513225009852111 $324 $469 forward 7 unknown #
coedge $-1 $425 $422 $321 $419 reversed $414 $-1 #
edge $-1 $470 -24.513225009852111 $420 -19.987394210247242 $418 $471 forward 7 unknown #
vertex $-1 $423 $472 #
straight-curve $-1 0 -19.987394210247242 -6.7380509359641101 1 0 0 I I #
coedge $-1 $418 $327 $323 $423 forward $414 $-1 #
edge $-1 $329 1.119025467982055 $420 4.1190254679820555 $422 $473 forward 7 unknown #
point $-1 60.894192327646721 -19.987394210247242 -6.7380509359641101 #
coedge $-1 $327 $418 $331 $429 reversed $414 $-1 #
straight-curve $-1 -60.894192327646721 -11.125154805024838 -3.7380509359641101 0 1 0 I I #
point $-1 -60.894192327646721 -19.987394210247242 -3.7380509359641101 #
coedge $-1 $332 $331 $416 $468 reversed $318 $-1 #
edge $-1 $333 3.7380509359641101 $470 6.7380509359641101 $425 $474 forward 7 unknown #
point $-1 -60.894192327646721 -24.513225009852111 -3.7380509359641101 #
vertex $-1 $335 $475 #
straight-curve $-1 60.894192327646721 -24.513225009852111 0 0 0 -1 I I #
edge $-1 $434 79.118546717385229 $437 85.72278211491475 $339 $476 forward 7 unknown #
vertex $-1 $353 $477 #
straight-curve $-1 37.952722590532019 -8.5673188919699772 6.738050935964111 1 0 0 I I #
edge $-1 $437 -6.6283240323671784 $350 2.7503343131615807 $349 $478 forward 7 unknown #
vertex $-1 $436 $479 #
straight-curve $-1 -17.389871129776665 -8.5673188919699772 93.429131849275279 -0.64278759981090561 0 0.7660444514056185 I I #
point $-1 55.352580986457795 -8.5673188919699772 6.738050935964111 #
point $-1 60.894192327646721 0.8113394535587819 0.1338155384345896 #
straight-curve $-1 60.894192327646721 0 6.7380509359641101 0 1 0 I I #
vertex $-1 $356 $480 #
point $-1 57.578594051525293 -6.691587222864225 2.3260943371963472 #
vertex $-1 $360 $481 #
point $-1 57.578594051525293 -3.8779897192055977 2.3260943371963472 #
vertex $-1 $364 $482 #
point $-1 57.578594051525293 -1.0643922155469703 2.3260943371963472 #
coedge $-1 $379 $378 $371 $449 forward $368 $-1 #
edge $-1 $450 32.470888561964877 $453 39.075123959494398 $448 $483 forward 7 unknown #
vertex $-1 $383 $484 #
straight-curve $-1 -77.094754319243719 0.8113394535587819 6.738050935964111 -1 0 0 I I #
edge $-1 $453 -2.7503343131615807 $380 6.6283240323671784 $379 $485 forward 7 unknown #
vertex $-1 $452 $486 #
straight-curve $-1 -60.894192327646735 0.8113394535587819 0.13381553843457539 0.64278759981090561 0 0.7660444514056185 I I #
point $-1 -55.352580986457802 0.8113394535587819 6.7380509359641101 #
point $-1 -60.894192327646721 -8.5673188919699772 0.13381553843459232 #
straight-curve $-1 -60.894192327646721 0 6.7380509359641101 0 -1 0 I I #
vertex $-1 $386 $487 #
point $-1 -56.935806451714392 -6.691587222864225 3.0921387886019764 #
vertex $-1 $390 $488 #
point $-1 -56.935806451714392 -3.8779897192055977 3.0921387886019764 #
vertex $-1 $394 $489 #
point $-1 -56.935806451714392 -1.0643922155469703 3.0921387886019764 #
straight-curve $-1 -60.894192327646721 24.513225009852111 0 0 0 -1 I I #
point $-1 -60.894192327646721 -24.513225009852111 -6.7380509359641101 #
straight-curve $-1 -60.894192327646721 0 -6.7380509359641101 0 1 0 I I #
point $-1 -60.894192327646721 24.513225009852111 -6.7380509359641101 #
edge $-1 $431 -60.894192327646721 $470 60.894192327646721 $428 $490 forward 7 unknown #
straight-curve $-1 60.894192327646721 0 -6.7380509359641101 0 -1 0 I I #
vertex $-1 $419 $491 #
straight-curve $-1 -60.894192327646721 0 -6.7380509359641101 0 1 0 I I #
point $-1 -60.894192327646721 -19.987394210247242 -6.7380509359641101 #
straight-curve $-1 -60.894192327646721 -19.987394210247242 -2.619025467982055 0 0 -1 I I #
straight-curve $-1 -60.894192327646721 -24.513225009852111 0 0 0 -1 I I #
point $-1 60.894192327646721 -24.513225009852111 -6.7380509359641101 #
straight-curve $-1 60.894192327646721 -8.5673188919699772 85.85659765334934 0 0 -1 I I #
point $-1 60.894192327646721 -8.5673188919699772 6.7380509359641101 #
straight-curve $-1 60.894192327646721 -1.9389948596027988 0.13381553843458249 0 1 0 I I #
point $-1 60.894192327646721 -8.5673188919699772 0.1338155384345896 #
point $-1 56.874178025917033 -6.691587222864225 2.3877227629937039 #
point $-1 56.874178025917033 -3.8779897192055977 2.3877227629937039 #
point $-1 56.874178025917033 -1.0643922155469703 2.3877227629937039 #
straight-curve $-1 -60.894192327646721 0.8113394535587819 39.208939497928988 0 0 -1 I I #
point $-1 -60.894192327646721 0.8113394535587819 6.7380509359641101 #
straight-curve $-1 -60.894192327646721 -1.9389948596027988 0.13381553843459532 0 -1 0 I I #
point $-1 -60.894192327646721 0.8113394535587819 0.13381553843459232 #
point $-1 -56.87417802591704 -6.691587222864225 2.3877227629937146 #
point $-1 -56.87417802591704 -3.8779897192055977 2.3877227629937146 #
point $-1 -56.87417802591704 -1.0643922155469703 2.3877227629937146 #
straight-curve $-1 0 -24.513225009852111 -6.7380509359641101 -1 0 0 I I #
point $-1 -60.894192327646721 -24.513225009852111 -6.7380509359641101 #
End-of-ACIS-data 