500 0 9 0           
7 Unknown 11 ACIS 5.0 NT 24 Fri Mar 26 18:19:36 1999 
-1 9.9999999999999995e-007 1e-010 
body $-1 $9 $-1 $10 #
body $-1 $11 $-1 $12 #
body $-1 $13 $-1 $14 #
body $-1 $15 $-1 $16 #
body $-1 $17 $-1 $18 #
body $-1 $19 $-1 $20 #
body $-1 $21 $-1 $22 #
body $-1 $23 $-1 $24 #
body $-1 $25 $-1 $26 #
lump $-1 $-1 $27 $0 #
transform $-1 1 0 0 0 1 0 0 0 1 40.294198431348612 16.558164674157204 4.8009430006804994 1 rotate no_reflect no_shear #
lump $-1 $-1 $28 $1 #
transform $-1 1 0 0 0 1 0 0 0 1 40.294198431348612 16.558164674157204 4.8009430006804994 1 rotate no_reflect no_shear #
lump $-1 $-1 $29 $2 #
transform $-1 1 0 0 0 1 0 0 0 1 40.294198431348612 16.558164674157204 4.8009430006804994 1 rotate no_reflect no_shear #
lump $-1 $-1 $30 $3 #
transform $-1 1 0 0 0 1 0 0 0 1 40.294198431348612 16.558164674157204 4.8009430006804994 1 rotate no_reflect no_shear #
lump $-1 $-1 $31 $4 #
transform $-1 1 0 0 0 1 0 0 0 1 40.294198431348612 16.558164674157204 4.8009430006804994 1 rotate no_reflect no_shear #
lump $-1 $-1 $32 $5 #
transform $-1 1 0 0 0 1 0 0 0 1 40.294198431348612 16.558164674157204 4.8009430006804994 1 rotate no_reflect no_shear #
lump $-1 $-1 $33 $6 #
transform $-1 1 0 0 0 1 0 0 0 1 40.294198431348612 16.558164674157204 4.8009430006804994 1 rotate no_reflect no_shear #
lump $-1 $-1 $34 $7 #
transform $-1 1 0 0 0 1 0 0 0 1 40.294198431348612 16.558164674157204 4.8009430006804994 1 rotate no_reflect no_shear #
lump $-1 $-1 $35 $8 #
transform $-1 1 0 0 0 1 0 0 0 1 40.294198431348612 16.558164674157204 4.8009430006804994 1 rotate no_reflect no_shear #
shell $-1 $-1 $-1 $36 $-1 $9 #
shell $-1 $-1 $-1 $37 $-1 $11 #
shell $-1 $-1 $-1 $38 $-1 $13 #
shell $-1 $-1 $-1 $39 $-1 $15 #
shell $-1 $-1 $-1 $40 $-1 $17 #
shell $-1 $-1 $-1 $41 $-1 $19 #
shell $-1 $-1 $-1 $42 $-1 $21 #
shell $-1 $-1 $-1 $43 $-1 $23 #
shell $-1 $-1 $-1 $44 $-1 $25 #
face $-1 $45 $46 $27 $-1 $47 forward single #
face $-1 $48 $49 $28 $-1 $50 reversed single #
face $-1 $51 $52 $29 $-1 $53 reversed single #
face $-1 $54 $55 $30 $-1 $56 reversed single #
face $-1 $57 $58 $31 $-1 $59 forward single #
face $-1 $60 $61 $32 $-1 $62 forward single #
face $-1 $63 $64 $33 $-1 $65 reversed single #
face $-1 $66 $67 $34 $-1 $68 forward single #
face $-1 $69 $70 $35 $-1 $71 forward single #
face $-1 $72 $73 $27 $-1 $74 reversed single #
loop $-1 $-1 $75 $36 #
plane-surface $-1 0 0 4.8009430006804994 0 0 1 1 0 0 forward_v I I I I #
face $-1 $76 $77 $28 $-1 $78 reversed single #
loop $-1 $-1 $79 $37 #
plane-surface $-1 -37.374969560197812 -9.9562786727962056 0 0 1 0 0 0 1 forward_v I I I I #
face $-1 $80 $81 $29 $-1 $82 reversed single #
loop $-1 $-1 $83 $38 #
plane-surface $-1 37.374969560197819 -9.9562786727962056 0 0 1 0 0 0 1 forward_v I I I I #
face $-1 $84 $85 $30 $-1 $86 reversed single #
loop $-1 $-1 $87 $39 #
plane-surface $-1 15.828647166067888 -60.449751949932185 68.224511620879355 -1 0 0 0 -0.54463904215088732 0.83867056331134215 forward_v I I I I #
face $-1 $88 $89 $31 $-1 $90 forward single #
loop $-1 $91 $92 $40 #
cone-surface $-1 8.0969898038063732 -12.389302444232804 1.2359531794941319 0 0.54463904215088732 -0.83867056331134215 1.5 0 0 1 I I 0 1 1.5 forward I I I I #
face $-1 $93 $94 $32 $-1 $95 forward single #
loop $-1 $96 $97 $41 #
cone-surface $-1 12.735984221163278 -12.389302444232804 1.2359531794941319 0 0.54463904215088732 -0.83867056331134215 1.5 0 0 1 I I 0 1 1.5 forward I I I I #
face $-1 $98 $99 $33 $-1 $100 reversed single #
loop $-1 $-1 $101 $42 #
plane-surface $-1 -34.455740689047012 38.60959682200501 84.479674383686657 1 0 0 0 -0.6018150307709319 -0.79863550430605224 forward_v I I I I #
face $-1 $102 $103 $34 $-1 $104 forward single #
loop $-1 $105 $106 $43 #
cone-surface $-1 -30.86603082502117 12.828110545198372 1.6059432504120437 0 -0.6018150307709319 -0.79863550430605224 1 0 0 1 I I 0 1 1 forward I I I I #
face $-1 $107 $108 $35 $-1 $109 forward single #
loop $-1 $110 $111 $44 #
cone-surface $-1 -25.481466028982407 12.828110545198372 1.6059432504120437 0 -0.6018150307709319 -0.79863550430605224 1 0 0 1 I I 0 1 1 forward I I I I #
face $-1 $112 $113 $27 $-1 $114 reversed single #
loop $-1 $-1 $115 $45 #
plane-surface $-1 0 0 -4.8009430006804994 0 0 1 1 0 0 forward_v I I I I #
coedge $-1 $116 $117 $118 $119 forward $46 $-1 #
face $-1 $120 $121 $28 $-1 $122 reversed single #
loop $-1 $-1 $123 $48 #
plane-surface $-1 -37.374969560197812 -6.9562786727962056 0 0 -1 0 0 0 -1 forward_v I I I I #
coedge $-1 $124 $125 $126 $127 reversed $49 $-1 #
face $-1 $128 $129 $29 $-1 $130 reversed single #
loop $-1 $-1 $131 $51 #
plane-surface $-1 34.455740689047019 -8.4562786727962056 0 1 0 0 0 0 -1 forward_v I I I I #
coedge $-1 $132 $133 $134 $135 forward $52 $-1 #
face $-1 $136 $137 $30 $-1 $138 reversed single #
loop $-1 $-1 $139 $54 #
plane-surface $-1 10.416487012484829 -16.558164674157197 0.63739542768307444 0 -0.54463904215088732 0.83867056331134215 1 0 0 forward_v I I I I #
coedge $-1 $140 $141 $142 $143 reversed $55 $-1 #
face $-1 $-1 $144 $31 $-1 $145 forward single #
loop $-1 $146 $147 $57 #
cone-surface $-1 8.0969898038063732 -11.017611389398933 -0.87626577767703662 0 0.54463904215088732 -0.83867056331134215 0.75 0 0 1 I I -0.70710678118654757 0.70710678118654757 0.75 forward I I I I #
loop $-1 $-1 $148 $40 #
coedge $-1 $92 $92 $149 $150 reversed $58 $-1 #
face $-1 $-1 $151 $32 $-1 $152 forward single #
loop $-1 $153 $154 $60 #
cone-surface $-1 12.735984221163278 -11.017611389398933 -0.87626577767703662 0 0.54463904215088732 -0.83867056331134215 0.75 0 0 1 I I -0.70710678118654757 0.70710678118654757 0.75 forward I I I I #
loop $-1 $-1 $155 $41 #
coedge $-1 $97 $97 $156 $157 reversed $61 $-1 #
face $-1 $158 $159 $33 $-1 $160 reversed single #
loop $-1 $-1 $161 $63 #
plane-surface $-1 -28.17374842700179 -9.8897117156991925 20.118919414030188 0 0.6018150307709319 0.79863550430605224 1 0 0 forward_v I I I I #
coedge $-1 $162 $163 $164 $165 reversed $64 $-1 #
face $-1 $-1 $166 $34 $-1 $167 forward single #
loop $-1 $168 $169 $66 #
cone-surface $-1 -30.86603082502117 11.857266659000793 0.31758992420379251 0 -0.6018150307709319 -0.79863550430605224 0.5 0 0 1 I I -0.70710678118654746 0.70710678118654746 0.5 forward I I I I #
loop $-1 $-1 $170 $43 #
coedge $-1 $106 $106 $171 $172 reversed $67 $-1 #
face $-1 $-1 $173 $35 $-1 $174 forward single #
loop $-1 $175 $176 $69 #
cone-surface $-1 -25.481466028982407 11.857266659000793 0.31758992420379251 0 -0.6018150307709319 -0.79863550430605224 0.5 0 0 1 I I -0.70710678118654746 0.70710678118654746 0.5 forward I I I I #
loop $-1 $-1 $177 $44 #
coedge $-1 $111 $111 $178 $179 reversed $70 $-1 #
face $-1 $180 $181 $27 $-1 $182 reversed single #
loop $-1 $-1 $183 $72 #
plane-surface $-1 0 -16.558164674157204 0 0 1 0 0 0 1 forward_v I I I I #
coedge $-1 $184 $185 $186 $187 forward $73 $-1 #
coedge $-1 $188 $75 $189 $190 forward $46 $-1 #
coedge $-1 $75 $188 $191 $192 forward $46 $-1 #
coedge $-1 $193 $194 $75 $119 reversed $195 $-1 #
edge $-1 $196 -16.558164674157204 $197 16.558164674157204 $118 $198 forward 7 unknown #
face $-1 $199 $200 $28 $-1 $201 reversed single #
loop $-1 $-1 $202 $76 #
plane-surface $-1 -34.455740689047012 -8.4562786727962056 0 -1 0 0 0 0 1 forward_v I I I I #
coedge $-1 $203 $204 $205 $206 forward $77 $-1 #
coedge $-1 $207 $79 $208 $209 reversed $49 $-1 #
coedge $-1 $79 $207 $210 $211 reversed $49 $-1 #
coedge $-1 $212 $213 $79 $127 forward $214 $-1 #
edge $-1 $215 -4.8009430006804994 $216 4.8009430006804994 $126 $217 forward 7 unknown #
face $-1 $218 $219 $29 $-1 $220 reversed single #
loop $-1 $-1 $221 $80 #
plane-surface $-1 37.374969560197819 -6.9562786727962056 0 0 -1 0 0 0 -1 forward_v I I I I #
coedge $-1 $222 $223 $224 $225 forward $81 $-1 #
coedge $-1 $226 $83 $227 $228 reversed $52 $-1 #
coedge $-1 $83 $226 $229 $230 reversed $52 $-1 #
coedge $-1 $223 $222 $83 $135 reversed $81 $-1 #
edge $-1 $231 -4.8009430006804994 $232 4.8009430006804994 $134 $233 forward 7 unknown #
face $-1 $234 $235 $30 $-1 $236 forward single #
loop $-1 $-1 $237 $84 #
plane-surface $-1 5.00432685890177 -60.449751949932185 68.224511620879355 1 0 0 0 0.54463904215088732 -0.83867056331134215 forward_v I I I I #
coedge $-1 $238 $239 $240 $241 reversed $85 $-1 #
coedge $-1 $141 $87 $242 $243 reversed $55 $-1 #
coedge $-1 $87 $140 $238 $244 reversed $55 $-1 #
coedge $-1 $240 $245 $87 $143 forward $235 $-1 #
edge $-1 $246 13.666711300808888 $247 20.078012214216308 $142 $248 forward 7 unknown #
loop $-1 $-1 $149 $88 #
plane-surface $-1 10.416487012484829 -16.558164674157197 0.63739542768307444 0 -0.54463904215088732 0.83867056331134215 1 0 0 forward_v I I I I #
loop $-1 $-1 $249 $57 #
coedge $-1 $147 $147 $148 $250 reversed $89 $-1 #
coedge $-1 $148 $148 $147 $250 forward $91 $-1 #
coedge $-1 $149 $149 $92 $150 forward $144 $-1 #
edge $-1 $251 -1.2856086616022783e-016 $251 6.2831853071796004 $149 $252 forward 7 unknown #
loop $-1 $-1 $156 $93 #
plane-surface $-1 10.416487012484829 -16.558164674157197 0.63739542768307444 0 -0.54463904215088732 0.83867056331134215 1 0 0 forward_v I I I I #
loop $-1 $-1 $253 $60 #
coedge $-1 $154 $154 $155 $254 reversed $94 $-1 #
coedge $-1 $155 $155 $154 $254 forward $96 $-1 #
coedge $-1 $156 $156 $97 $157 forward $151 $-1 #
edge $-1 $255 -1.2856086616022783e-016 $255 6.2831853071796004 $156 $256 forward 7 unknown #
face $-1 $257 $258 $33 $-1 $259 reversed single #
loop $-1 $-1 $260 $98 #
plane-surface $-1 -21.891756164956568 38.60959682200501 84.479674383686657 -1 0 0 0 0.6018150307709319 0.79863550430605224 forward_v I I I I #
coedge $-1 $261 $262 $263 $264 reversed $99 $-1 #
coedge $-1 $163 $101 $265 $266 reversed $64 $-1 #
coedge $-1 $101 $162 $261 $267 reversed $64 $-1 #
coedge $-1 $263 $268 $101 $165 forward $269 $-1 #
edge $-1 $270 2.7466337368453004 $271 8.866869253138745 $164 $272 forward 7 unknown #
loop $-1 $-1 $171 $102 #
plane-surface $-1 -28.17374842700179 -9.8897117156991925 20.118919414030188 0 0.6018150307709319 0.79863550430605224 1 0 0 forward_v I I I I #
loop $-1 $-1 $273 $66 #
coedge $-1 $169 $169 $170 $274 reversed $103 $-1 #
coedge $-1 $170 $170 $169 $274 forward $105 $-1 #
coedge $-1 $171 $171 $106 $172 forward $166 $-1 #
edge $-1 $275 -8.0177868447286285e-016 $275 6.2831853071795996 $171 $276 forward 7 unknown #
loop $-1 $-1 $178 $107 #
plane-surface $-1 -28.17374842700179 -9.8897117156991925 20.118919414030188 0 0.6018150307709319 0.79863550430605224 1 0 0 forward_v I I I I #
loop $-1 $-1 $277 $69 #
coedge $-1 $176 $176 $177 $278 reversed $108 $-1 #
coedge $-1 $177 $177 $176 $278 forward $110 $-1 #
coedge $-1 $178 $178 $111 $179 forward $173 $-1 #
edge $-1 $279 -8.0177868447286285e-016 $279 6.2831853071795996 $178 $280 forward 7 unknown #
face $-1 $281 $282 $27 $-1 $283 reversed single #
loop $-1 $-1 $284 $112 #
plane-surface $-1 -40.294198431348612 0 0 1 0 0 0 0 -1 forward_v I I I I #
coedge $-1 $285 $191 $286 $287 forward $113 $-1 #
coedge $-1 $288 $115 $285 $289 forward $73 $-1 #
coedge $-1 $115 $288 $290 $291 forward $73 $-1 #
coedge $-1 $194 $193 $115 $187 reversed $195 $-1 #
edge $-1 $292 -16.558164674157204 $293 16.558164674157204 $186 $294 forward 7 unknown #
coedge $-1 $117 $116 $295 $296 forward $46 $-1 #
coedge $-1 $297 $298 $116 $190 reversed $282 $-1 #
edge $-1 $197 -40.294198431348612 $299 40.294198431348612 $189 $300 forward 7 unknown #
coedge $-1 $183 $301 $117 $192 reversed $113 $-1 #
edge $-1 $302 -40.294198431348612 $196 40.294198431348612 $191 $303 forward 7 unknown #
coedge $-1 $186 $118 $301 $304 forward $195 $-1 #
coedge $-1 $118 $186 $297 $305 reversed $195 $-1 #
loop $-1 $-1 $193 $281 #
vertex $-1 $119 $306 #
vertex $-1 $119 $307 #
straight-curve $-1 40.294198431348612 0 4.8009430006804994 0 1 0 I I #
face $-1 $308 $309 $28 $-1 $310 forward single #
loop $-1 $-1 $311 $120 #
plane-surface $-1 0 0 -4.8009430006804994 0 0 1 1 0 0 forward_v I I I I #
coedge $-1 $312 $313 $207 $314 forward $121 $-1 #
coedge $-1 $315 $123 $311 $316 reversed $77 $-1 #
coedge $-1 $123 $315 $317 $318 reversed $77 $-1 #
coedge $-1 $313 $312 $123 $206 reversed $121 $-1 #
edge $-1 $319 -4.8009430006804994 $320 4.8009430006804994 $205 $321 forward 7 unknown #
coedge $-1 $125 $124 $202 $314 reversed $49 $-1 #
coedge $-1 $322 $323 $124 $209 forward $200 $-1 #
edge $-1 $324 15.768255908948106 $215 21.606713651249706 $208 $325 forward 7 unknown #
coedge $-1 $326 $327 $125 $211 forward $309 $-1 #
edge $-1 $216 -21.606713651249706 $328 -15.768255908948106 $210 $329 forward 7 unknown #
coedge $-1 $330 $126 $327 $331 reversed $214 $-1 #
coedge $-1 $126 $330 $322 $332 reversed $214 $-1 #
loop $-1 $-1 $330 $308 #
vertex $-1 $332 $333 #
vertex $-1 $127 $334 #
straight-curve $-1 -40.294198431348612 -9.9562786727962056 0 0 0 1 I I #
face $-1 $335 $336 $29 $-1 $337 forward single #
loop $-1 $-1 $227 $128 #
plane-surface $-1 0 0 -4.8009430006804994 0 0 1 1 0 0 forward_v I I I I #
coedge $-1 $338 $339 $340 $341 reversed $129 $-1 #
coedge $-1 $134 $131 $342 $343 reversed $81 $-1 #
coedge $-1 $131 $134 $344 $345 reversed $81 $-1 #
coedge $-1 $339 $338 $131 $225 reversed $129 $-1 #
edge $-1 $346 -4.8009430006804994 $347 4.8009430006804994 $224 $348 forward 7 unknown #
coedge $-1 $133 $132 $349 $350 reversed $52 $-1 #
coedge $-1 $342 $351 $132 $228 forward $219 $-1 #
edge $-1 $352 -21.606713651249709 $232 -15.76825590894811 $227 $353 forward 7 unknown #
coedge $-1 $354 $344 $133 $230 forward $336 $-1 #
edge $-1 $231 15.76825590894811 $355 21.606713651249709 $229 $356 forward 7 unknown #
vertex $-1 $230 $357 #
vertex $-1 $228 $358 #
straight-curve $-1 34.455740689047019 -9.9562786727962056 0 0 0 -1 I I #
face $-1 $-1 $359 $30 $-1 $360 reversed single #
loop $-1 $-1 $142 $136 #
plane-surface $-1 0 0 4.8009430006804994 0 0 1 1 0 0 forward_v I I I I #
coedge $-1 $361 $362 $363 $364 reversed $137 $-1 #
coedge $-1 $365 $139 $141 $244 forward $85 $-1 #
coedge $-1 $139 $365 $361 $366 forward $85 $-1 #
coedge $-1 $363 $142 $139 $241 forward $235 $-1 #
edge $-1 $247 -10.620403659825474 $367 0.20391664734064463 $240 $368 forward 7 unknown #
coedge $-1 $369 $370 $140 $243 forward $359 $-1 #
edge $-1 $371 -33.47486038275661 $246 -29.31131280975918 $242 $372 forward 7 unknown #
edge $-1 $247 -7.6445999107128859 $371 8.4987301443310198e-015 $141 $373 forward 7 unknown #
coedge $-1 $142 $363 $369 $374 forward $235 $-1 #
vertex $-1 $143 $375 #
vertex $-1 $143 $376 #
straight-curve $-1 15.828647166067888 -30.224875974966093 4.8009430006804976 0 1 0 I I #
coedge $-1 $249 $249 $-1 $377 reversed $146 $-1 #
edge $-1 $378 0 $378 6.2831853071796004 $147 $379 forward 7 unknown #
vertex $-1 $150 $380 #
ellipse-curve $-1 8.0969898038063732 -13.3525142174535 2.7191692141817807 0 -0.54463904215088732 0.83867056331134215 1.5 0 0 1 I I #
coedge $-1 $253 $253 $-1 $381 reversed $153 $-1 #
edge $-1 $382 0 $382 6.2831853071796004 $154 $383 forward 7 unknown #
vertex $-1 $157 $384 #
ellipse-curve $-1 12.735984221163278 -13.3525142174535 2.7191692141817807 0 -0.54463904215088732 0.83867056331134215 1.5 0 0 1 I I #
face $-1 $-1 $269 $33 $-1 $385 forward single #
loop $-1 $-1 $386 $158 #
plane-surface $-1 0 16.558164674157204 0 0 -1 0 0 0 -1 forward_v I I I I #
coedge $-1 $387 $388 $389 $390 reversed $159 $-1 #
coedge $-1 $391 $161 $163 $267 forward $99 $-1 #
coedge $-1 $161 $391 $387 $392 forward $99 $-1 #
coedge $-1 $389 $164 $161 $264 forward $269 $-1 #
edge $-1 $271 -20.368866475546117 $393 -7.8048819514556733 $263 $394 forward 7 unknown #
coedge $-1 $395 $396 $162 $266 forward $258 $-1 #
edge $-1 $397 -42.050822543589291 $270 -37.438894191162831 $265 $398 forward 7 unknown #
edge $-1 $271 25.452964166958722 $397 33.116329348314416 $163 $399 forward 7 unknown #
coedge $-1 $164 $389 $395 $400 forward $269 $-1 #
loop $-1 $-1 $389 $257 #
vertex $-1 $266 $401 #
vertex $-1 $165 $402 #
straight-curve $-1 -34.455740689047012 19.304798411002505 4.8009430006804976 0 -1 0 I I #
coedge $-1 $273 $273 $-1 $403 reversed $168 $-1 #
edge $-1 $404 0 $404 6.2831853071796004 $169 $405 forward 7 unknown #
vertex $-1 $172 $406 #
ellipse-curve $-1 -30.86603082502117 13.498046916010484 2.4949788244672675 0 0.6018150307709319 0.79863550430605224 1 0 0 1 I I #
coedge $-1 $277 $277 $-1 $407 reversed $175 $-1 #
edge $-1 $408 0 $408 6.2831853071796004 $176 $409 forward 7 unknown #
vertex $-1 $179 $410 #
ellipse-curve $-1 -25.481466028982407 13.498046916010484 2.4949788244672675 0 0.6018150307709319 0.79863550430605224 1 0 0 1 I I #
face $-1 $-1 $195 $27 $-1 $411 reversed single #
loop $-1 $-1 $297 $180 #
plane-surface $-1 0 16.558164674157204 0 0 -1 0 0 0 -1 forward_v I I I I #
coedge $-1 $412 $295 $298 $413 forward $181 $-1 #
coedge $-1 $301 $183 $184 $289 reversed $113 $-1 #
coedge $-1 $295 $412 $183 $287 reversed $181 $-1 #
edge $-1 $302 -4.8009430006804994 $414 4.8009430006804994 $286 $415 forward 7 unknown #
coedge $-1 $185 $184 $412 $416 forward $73 $-1 #
edge $-1 $293 -40.294198431348612 $414 40.294198431348612 $285 $417 forward 7 unknown #
coedge $-1 $298 $297 $185 $291 reversed $282 $-1 #
edge $-1 $418 -40.294198431348612 $292 40.294198431348612 $290 $419 forward 7 unknown #
vertex $-1 $187 $420 #
vertex $-1 $304 $421 #
straight-curve $-1 40.294198431348612 0 -4.8009430006804994 0 -1 0 I I #
coedge $-1 $284 $286 $188 $296 reversed $181 $-1 #
edge $-1 $299 -16.558164674157204 $302 16.558164674157204 $295 $422 forward 7 unknown #
coedge $-1 $290 $189 $194 $305 forward $282 $-1 #
coedge $-1 $189 $290 $284 $413 reversed $282 $-1 #
vertex $-1 $190 $423 #
straight-curve $-1 0 16.558164674157204 4.8009430006804994 -1 0 0 I I #
coedge $-1 $191 $285 $193 $304 reversed $113 $-1 #
vertex $-1 $296 $424 #
straight-curve $-1 0 -16.558164674157204 4.8009430006804994 1 0 0 I I #
edge $-1 $196 -4.8009430006804994 $293 4.8009430006804994 $193 $425 forward 7 unknown #
edge $-1 $197 -4.8009430006804994 $292 4.8009430006804994 $194 $426 forward 7 unknown #
point $-1 40.294198431348612 -16.558164674157204 4.8009430006804994 #
point $-1 40.294198431348612 16.558164674157204 4.8009430006804994 #
face $-1 $-1 $214 $28 $-1 $427 reversed single #
loop $-1 $-1 $317 $199 #
plane-surface $-1 0 0 4.8009430006804994 0 0 1 1 0 0 forward_v I I I I #
coedge $-1 $323 $322 $203 $316 forward $200 $-1 #
coedge $-1 $205 $202 $323 $428 reversed $121 $-1 #
coedge $-1 $202 $205 $326 $429 reversed $121 $-1 #
edge $-1 $328 -4.8009430006804994 $324 4.8009430006804994 $202 $430 forward 7 unknown #
coedge $-1 $204 $203 $330 $431 reversed $77 $-1 #
edge $-1 $432 -21.606713651249706 $320 -15.768255908948106 $311 $433 forward 7 unknown #
coedge $-1 $327 $326 $204 $318 forward $309 $-1 #
edge $-1 $319 15.768255908948106 $434 21.606713651249706 $317 $435 forward 7 unknown #
vertex $-1 $318 $436 #
vertex $-1 $316 $437 #
straight-curve $-1 -34.455740689047012 -6.9562786727962056 0 0 0 -1 I I #
coedge $-1 $311 $208 $213 $332 forward $200 $-1 #
coedge $-1 $208 $311 $312 $428 forward $200 $-1 #
vertex $-1 $209 $438 #
straight-curve $-1 -18.687484780098906 -9.9562786727962056 -4.8009430006804994 -1 0 0 I I #
coedge $-1 $317 $210 $313 $429 forward $309 $-1 #
coedge $-1 $210 $317 $212 $331 forward $309 $-1 #
vertex $-1 $211 $439 #
straight-curve $-1 -18.687484780098906 -9.9562786727962056 4.8009430006804994 1 0 0 I I #
coedge $-1 $213 $212 $315 $431 forward $214 $-1 #
edge $-1 $434 6.9562786727962056 $216 9.9562786727962056 $212 $440 forward 7 unknown #
edge $-1 $215 -9.9562786727962056 $432 -6.9562786727962056 $213 $441 forward 7 unknown #
point $-1 -40.294198431348612 -9.9562786727962056 -4.8009430006804994 #
point $-1 -40.294198431348612 -9.9562786727962056 4.8009430006804994 #
face $-1 $-1 $442 $29 $-1 $443 reversed single #
loop $-1 $-1 $229 $218 #
plane-surface $-1 0 0 4.8009430006804994 0 0 1 1 0 0 forward_v I I I I #
coedge $-1 $224 $221 $444 $445 reversed $129 $-1 #
coedge $-1 $221 $224 $446 $447 reversed $129 $-1 #
coedge $-1 $448 $449 $221 $341 forward $442 $-1 #
edge $-1 $450 -4.8009430006804994 $451 4.8009430006804994 $340 $452 forward 7 unknown #
coedge $-1 $444 $227 $222 $343 forward $219 $-1 #
edge $-1 $232 -5.7281393363981028 $347 -2.7281393363981028 $342 $453 forward 7 unknown #
coedge $-1 $229 $446 $223 $345 forward $336 $-1 #
edge $-1 $346 2.7281393363981028 $231 5.7281393363981028 $344 $454 forward 7 unknown #
vertex $-1 $345 $455 #
vertex $-1 $343 $456 #
straight-curve $-1 34.455740689047019 -6.9562786727962056 0 0 0 -1 I I #
coedge $-1 $449 $448 $226 $350 forward $442 $-1 #
edge $-1 $355 -4.8009430006804994 $352 4.8009430006804994 $349 $457 forward 7 unknown #
coedge $-1 $227 $444 $449 $458 forward $219 $-1 #
vertex $-1 $350 $459 #
straight-curve $-1 18.687484780098909 -9.9562786727962056 -4.8009430006804994 -1 0 0 I I #
coedge $-1 $446 $229 $448 $460 forward $336 $-1 #
vertex $-1 $460 $461 #
straight-curve $-1 18.687484780098909 -9.9562786727962056 4.8009430006804994 1 0 0 I I #
point $-1 34.455740689047019 -9.9562786727962056 4.8009430006804994 #
point $-1 34.455740689047019 -9.9562786727962056 -4.8009430006804994 #
loop $-1 $-1 $242 $234 #
plane-surface $-1 0 -16.558164674157204 0 0 1 0 0 0 1 forward_v I I I I #
coedge $-1 $362 $237 $239 $366 reversed $137 $-1 #
coedge $-1 $237 $361 $462 $463 reversed $137 $-1 #
coedge $-1 $245 $240 $237 $364 forward $235 $-1 #
edge $-1 $367 -20.078012214216308 $464 -13.666711300808888 $363 $465 forward 7 unknown #
coedge $-1 $239 $238 $370 $466 reversed $85 $-1 #
edge $-1 $467 -8.4987301443310198e-015 $367 7.6445999107128859 $361 $468 forward 7 unknown #
vertex $-1 $241 $469 #
straight-curve $-1 5.2082435062424146 -10.146863760749785 4.8009430006804994 -1 0 0 I I #
coedge $-1 $462 $242 $245 $374 reversed $359 $-1 #
coedge $-1 $242 $462 $365 $466 forward $359 $-1 #
vertex $-1 $243 $470 #
straight-curve $-1 15.828647166067888 -16.558164674157204 34.112255810439677 0 0 1 I I #
straight-curve $-1 15.828647166067888 -16.558164674157197 0.63739542768307444 0 -0.83867056331134215 -0.54463904215088732 I I #
edge $-1 $464 5.00432685890177 $246 15.828647166067888 $369 $471 forward 7 unknown #
point $-1 15.828647166067888 -16.558164674157204 4.8009430006804994 #
point $-1 15.828647166067888 -10.146863760749785 4.8009430006804994 #
edge $-1 $472 1 $472 0 $249 $-1 forward 7 unknown #
vertex $-1 $250 $473 #
ellipse-curve $-1 8.0969898038063732 -11.426090671012098 -0.24726285519352997 0 -0.54463904215088732 0.83867056331134215 1.5 0 0 1 I I #
point $-1 9.5969898038063732 -13.352514217453509 2.719169214181794 #
edge $-1 $474 1 $474 0 $253 $-1 forward 7 unknown #
vertex $-1 $254 $475 #
ellipse-curve $-1 12.735984221163278 -11.426090671012098 -0.24726285519352997 0 -0.54463904215088732 0.83867056331134215 1.5 0 0 1 I I #
point $-1 14.235984221163278 -13.352514217453509 2.719169214181794 #
plane-surface $-1 0 0 4.8009430006804994 0 0 1 1 0 0 forward_v I I I I #
coedge $-1 $396 $395 $388 $476 forward $258 $-1 #
coedge $-1 $388 $260 $262 $392 reversed $159 $-1 #
coedge $-1 $260 $387 $386 $476 reversed $159 $-1 #
coedge $-1 $268 $263 $260 $390 forward $269 $-1 #
edge $-1 $393 -8.866869253138745 $477 -2.7466337368453004 $389 $478 forward 7 unknown #
coedge $-1 $262 $261 $396 $479 reversed $99 $-1 #
edge $-1 $480 -33.116329348314416 $393 -25.452964166958722 $387 $481 forward 7 unknown #
vertex $-1 $264 $482 #
straight-curve $-1 -14.086874213500895 10.437929157863762 4.8009430006804994 1 0 0 I I #
coedge $-1 $386 $265 $268 $400 reversed $258 $-1 #
coedge $-1 $265 $386 $391 $479 forward $258 $-1 #
vertex $-1 $266 $483 #
straight-curve $-1 -34.455740689047012 16.558164674157204 42.239837191843328 0 0 1 I I #
straight-curve $-1 -34.455740689047012 -9.8897117156991925 20.118919414030188 0 0.79863550430605224 -0.6018150307709319 I I #
edge $-1 $477 21.891756164956568 $270 34.455740689047012 $395 $484 forward 7 unknown #
point $-1 -34.455740689047012 16.558164674157204 4.8009430006804994 #
point $-1 -34.455740689047012 10.43792915786376 4.8009430006804994 #
edge $-1 $485 1 $485 0 $273 $-1 forward 7 unknown #
vertex $-1 $274 $486 #
ellipse-curve $-1 -30.86603082502117 12.158174174386259 0.71690767635681862 0 0.6018150307709319 0.79863550430605224 1 0 0 1 I I #
point $-1 -29.86603082502117 13.498046916010484 2.4949788244672688 #
edge $-1 $487 1 $487 0 $277 $-1 forward 7 unknown #
vertex $-1 $278 $488 #
ellipse-curve $-1 -25.481466028982407 12.158174174386259 0.71690767635681862 0 0.6018150307709319 0.79863550430605224 1 0 0 1 I I #
point $-1 -24.481466028982407 13.498046916010484 2.4949788244672688 #
plane-surface $-1 40.294198431348612 0 0 -1 0 0 0 0 1 forward_v I I I I #
coedge $-1 $286 $284 $288 $416 reversed $181 $-1 #
edge $-1 $299 -4.8009430006804994 $418 4.8009430006804994 $298 $489 forward 7 unknown #
vertex $-1 $416 $490 #
straight-curve $-1 -40.294198431348612 -16.558164674157204 0 0 0 -1 I I #
edge $-1 $414 -16.558164674157204 $418 16.558164674157204 $412 $491 forward 7 unknown #
straight-curve $-1 0 -16.558164674157204 -4.8009430006804994 -1 0 0 I I #
vertex $-1 $291 $492 #
straight-curve $-1 0 16.558164674157204 -4.8009430006804994 1 0 0 I I #
point $-1 40.294198431348612 16.558164674157204 -4.8009430006804994 #
point $-1 40.294198431348612 -16.558164674157204 -4.8009430006804994 #
straight-curve $-1 -40.294198431348612 0 4.8009430006804994 0 -1 0 I I #
point $-1 -40.294198431348612 16.558164674157204 4.8009430006804994 #
point $-1 -40.294198431348612 -16.558164674157204 4.8009430006804994 #
straight-curve $-1 40.294198431348612 -16.558164674157204 0 0 0 -1 I I #
straight-curve $-1 40.294198431348612 16.558164674157204 0 0 0 -1 I I #
plane-surface $-1 -40.294198431348612 0 0 1 0 0 0 0 -1 forward_v I I I I #
edge $-1 $320 2.7281393363981028 $324 5.7281393363981028 $323 $493 forward 7 unknown #
edge $-1 $328 -5.7281393363981028 $319 -2.7281393363981028 $326 $494 forward 7 unknown #
straight-curve $-1 -34.455740689047012 -9.9562786727962056 0 0 0 -1 I I #
edge $-1 $434 -4.8009430006804994 $432 4.8009430006804994 $330 $495 forward 7 unknown #
vertex $-1 $431 $496 #
straight-curve $-1 -18.687484780098906 -6.9562786727962056 -4.8009430006804994 1 0 0 I I #
vertex $-1 $331 $497 #
straight-curve $-1 -18.687484780098906 -6.9562786727962056 4.8009430006804994 -1 0 0 I I #
point $-1 -34.455740689047012 -6.9562786727962056 4.8009430006804994 #
point $-1 -34.455740689047012 -6.9562786727962056 -4.8009430006804994 #
point $-1 -34.455740689047012 -9.9562786727962056 -4.8009430006804994 #
point $-1 -34.455740689047012 -9.9562786727962056 4.8009430006804994 #
straight-curve $-1 -40.294198431348612 0 4.8009430006804994 0 -1 0 I I #
straight-curve $-1 -40.294198431348612 0 -4.8009430006804994 0 1 0 I I #
loop $-1 $-1 $349 $335 #
plane-surface $-1 40.294198431348612 0 0 -1 0 0 0 0 1 forward_v I I I I #
coedge $-1 $351 $342 $338 $445 forward $219 $-1 #
edge $-1 $347 15.76825590894811 $450 21.606713651249709 $444 $498 forward 7 unknown #
coedge $-1 $344 $354 $339 $447 forward $336 $-1 #
edge $-1 $451 -21.606713651249709 $346 -15.76825590894811 $446 $499 forward 7 unknown #
coedge $-1 $349 $340 $354 $460 reversed $442 $-1 #
coedge $-1 $340 $349 $351 $458 reversed $442 $-1 #
vertex $-1 $458 $500 #
vertex $-1 $341 $501 #
straight-curve $-1 40.294198431348612 -6.9562786727962056 0 0 0 1 I I #
straight-curve $-1 34.455740689047019 -4.2281393363981028 -4.8009430006804994 0 1 0 I I #
straight-curve $-1 34.455740689047019 -4.2281393363981028 4.8009430006804994 0 -1 0 I I #
point $-1 34.455740689047019 -6.9562786727962056 4.8009430006804994 #
point $-1 34.455740689047019 -6.9562786727962056 -4.8009430006804994 #
straight-curve $-1 40.294198431348612 -9.9562786727962056 0 0 0 -1 I I #
edge $-1 $450 6.9562786727962056 $352 9.9562786727962056 $449 $502 forward 7 unknown #
point $-1 40.294198431348619 -9.9562786727962056 -4.8009430006804994 #
edge $-1 $355 -9.9562786727962056 $451 -6.9562786727962056 $448 $503 forward 7 unknown #
point $-1 40.294198431348619 -9.9562786727962056 4.8009430006804994 #
coedge $-1 $370 $369 $362 $463 forward $359 $-1 #
edge $-1 $464 29.31131280975918 $467 33.47486038275661 $462 $504 forward 7 unknown #
vertex $-1 $374 $505 #
straight-curve $-1 5.00432685890177 -30.224875974966093 4.8009430006804976 0 -1 0 I I #
edge $-1 $467 -0.20391664734064463 $371 10.620403659825474 $370 $506 forward 7 unknown #
vertex $-1 $466 $507 #
straight-curve $-1 5.00432685890177 -16.558164674157197 0.63739542768307444 0 0.83867056331134215 0.54463904215088732 I I #
point $-1 5.00432685890177 -10.146863760749785 4.8009430006804994 #
point $-1 15.828647166067888 -16.558164674157204 0.63739542768306978 #
straight-curve $-1 0 -16.558164674157204 4.8009430006804994 1 0 0 I I #
vertex $-1 $377 $508 #
point $-1 9.5969898038063732 -11.426090671012098 -0.24726285519352997 #
vertex $-1 $381 $509 #
point $-1 14.235984221163278 -11.426090671012098 -0.24726285519352997 #
edge $-1 $477 37.438894191162831 $480 42.050822543589291 $386 $510 forward 7 unknown #
vertex $-1 $400 $511 #
straight-curve $-1 -21.891756164956568 19.304798411002505 4.8009430006804976 0 1 0 I I #
edge $-1 $480 7.8048819514556733 $397 20.368866475546117 $396 $512 forward 7 unknown #
vertex $-1 $479 $513 #
straight-curve $-1 -21.891756164956568 -9.8897117156991925 20.118919414030188 0 -0.79863550430605224 0.6018150307709319 I I #
point $-1 -21.891756164956568 10.43792915786376 4.8009430006804994 #
point $-1 -34.455740689047012 16.558164674157204 0.18901464825403735 #
straight-curve $-1 0 16.558164674157204 4.8009430006804994 -1 0 0 I I #
vertex $-1 $403 $514 #
point $-1 -29.86603082502117 12.158174174386259 0.71690767635681862 #
vertex $-1 $407 $515 #
point $-1 -24.481466028982407 12.158174174386259 0.71690767635681862 #
straight-curve $-1 -40.294198431348612 16.558164674157204 0 0 0 -1 I I #
point $-1 -40.294198431348612 -16.558164674157204 -4.8009430006804994 #
straight-curve $-1 -40.294198431348612 0 -4.8009430006804994 0 1 0 I I #
point $-1 -40.294198431348612 16.558164674157204 -4.8009430006804994 #
straight-curve $-1 -34.455740689047012 -4.2281393363981028 -4.8009430006804994 0 -1 0 I I #
straight-curve $-1 -34.455740689047012 -4.2281393363981028 4.8009430006804994 0 1 0 I I #
straight-curve $-1 -40.294198431348612 -6.9562786727962056 0 0 0 -1 I I #
point $-1 -40.294198431348612 -6.9562786727962056 -4.8009430006804994 #
point $-1 -40.294198431348612 -6.9562786727962056 4.8009430006804994 #
straight-curve $-1 18.687484780098909 -6.9562786727962056 -4.8009430006804994 1 0 0 I I #
straight-curve $-1 18.687484780098909 -6.9562786727962056 4.8009430006804994 -1 0 0 I I #
point $-1 40.294198431348619 -6.9562786727962056 -4.8009430006804994 #
point $-1 40.294198431348619 -6.9562786727962056 4.8009430006804994 #
straight-curve $-1 40.294198431348612 0 -4.8009430006804994 0 -1 0 I I #
straight-curve $-1 40.294198431348612 0 4.8009430006804994 0 1 0 I I #
straight-curve $-1 5.00432685890177 -16.558164674157204 34.112255810439677 0 0 -1 I I #
point $-1 5.00432685890177 -16.558164674157204 4.8009430006804994 #
straight-curve $-1 5.2082435062424146 -16.558164674157204 0.63739542768307023 1 0 0 I I #
point $-1 5.00432685890177 -16.558164674157204 0.63739542768306978 #
point $-1 8.0969898038063732 -10.609132107785769 -1.5052687001605434 #
point $-1 12.735984221163278 -10.609132107785769 -1.5052687001605434 #
straight-curve $-1 -21.891756164956568 16.558164674157204 42.239837191843328 0 0 -1 I I #
point $-1 -21.891756164956568 16.558164674157204 4.8009430006804994 #
straight-curve $-1 -14.086874213500895 16.558164674157204 0.1890146482540338 -1 0 0 I I #
point $-1 -21.891756164956568 16.558164674157204 0.18901464825403735 #
point $-1 -30.86603082502117 11.556359143615326 -0.081727827949233611 #
point $-1 -25.481466028982407 11.556359143615326 -0.081727827949233611 #
End-of-ACIS-data 