500 0 9 0           
7 Unknown 11 ACIS 5.0 NT 24 Thu Mar 25 17:48:17 1999 
-1 9.9999999999999995e-007 1e-010 
body $-1 $9 $-1 $10 #
body $-1 $11 $-1 $12 #
body $-1 $13 $-1 $14 #
body $-1 $15 $-1 $16 #
body $-1 $17 $-1 $18 #
body $-1 $19 $-1 $20 #
body $-1 $21 $-1 $22 #
body $-1 $23 $-1 $24 #
body $-1 $25 $-1 $26 #
lump $-1 $-1 $27 $0 #
transform $-1 1 0 0 0 1 0 0 0 1 77.886898403881958 38.289300990607977 10.606768550424166 1 rotate no_reflect no_shear #
lump $-1 $-1 $28 $1 #
transform $-1 1 0 0 0 1 0 0 0 1 77.886898403881958 38.289300990607977 10.606768550424166 1 rotate no_reflect no_shear #
lump $-1 $-1 $29 $2 #
transform $-1 1 0 0 0 1 0 0 0 1 77.886898403881958 38.289300990607977 10.606768550424166 1 rotate no_reflect no_shear #
lump $-1 $-1 $30 $3 #
transform $-1 1 0 0 0 1 0 0 0 1 77.886898403881958 38.289300990607977 10.606768550424166 1 rotate no_reflect no_shear #
lump $-1 $-1 $31 $4 #
transform $-1 1 0 0 0 1 0 0 0 1 77.886898403881958 38.289300990607977 10.606768550424166 1 rotate no_reflect no_shear #
lump $-1 $-1 $32 $5 #
transform $-1 1 0 0 0 1 0 0 0 1 77.886898403881958 38.289300990607977 10.606768550424166 1 rotate no_reflect no_shear #
lump $-1 $-1 $33 $6 #
transform $-1 1 0 0 0 1 0 0 0 1 77.886898403881958 38.289300990607977 10.606768550424166 1 rotate no_reflect no_shear #
lump $-1 $-1 $34 $7 #
transform $-1 1 0 0 0 1 0 0 0 1 77.886898403881958 38.289300990607977 10.606768550424166 1 rotate no_reflect no_shear #
lump $-1 $-1 $35 $8 #
transform $-1 1 0 0 0 1 0 0 0 1 77.886898403881958 38.289300990607977 10.606768550424166 1 rotate no_reflect no_shear #
shell $-1 $-1 $-1 $36 $-1 $9 #
shell $-1 $-1 $-1 $37 $-1 $11 #
shell $-1 $-1 $-1 $38 $-1 $13 #
shell $-1 $-1 $-1 $39 $-1 $15 #
shell $-1 $-1 $-1 $40 $-1 $17 #
shell $-1 $-1 $-1 $41 $-1 $19 #
shell $-1 $-1 $-1 $42 $-1 $21 #
shell $-1 $-1 $-1 $43 $-1 $23 #
shell $-1 $-1 $-1 $44 $-1 $25 #
face $-1 $45 $46 $27 $-1 $47 reversed single #
face $-1 $48 $49 $28 $-1 $50 forward single #
face $-1 $51 $52 $29 $-1 $53 reversed single #
face $-1 $54 $55 $30 $-1 $56 forward single #
face $-1 $57 $58 $31 $-1 $59 forward single #
face $-1 $60 $61 $32 $-1 $62 reversed single #
face $-1 $63 $64 $33 $-1 $65 forward single #
face $-1 $66 $67 $34 $-1 $68 forward single #
face $-1 $69 $70 $35 $-1 $71 forward single #
face $-1 $72 $73 $27 $-1 $74 forward single #
loop $-1 $-1 $75 $36 #
plane-surface $-1 0 -38.289300990607977 0 0 1 0 0 0 1 forward_v I I I I #
face $-1 $76 $77 $28 $-1 $78 reversed single #
loop $-1 $-1 $79 $37 #
plane-surface $-1 0 -38.289300990607977 0 0 1 0 0 0 1 forward_v I I I I #
face $-1 $80 $81 $29 $-1 $82 reversed single #
loop $-1 $-1 $83 $38 #
plane-surface $-1 20.869733174230504 -9.6807178964736309 214.72126840909092 0 -1 0 -0.50000000669873634 0 -0.8660253999169214 forward_v I I I I #
face $-1 $84 $85 $30 $-1 $86 forward single #
loop $-1 $87 $88 $39 #
cone-surface $-1 69.591216178977774 -23.010847278983011 4.9146895108666833 -0.50000000669873634 0 -0.8660253999169214 1.2990380998753821 0 -0.75000001004810457 1 I I 0 1 1.5 forward I I I I #
face $-1 $89 $90 $31 $-1 $91 forward single #
loop $-1 $92 $93 $40 #
cone-surface $-1 69.591216178977774 -15.012769649477384 4.9146895108666833 -0.50000000669873634 0 -0.8660253999169214 1.2990380998753821 0 -0.75000001004810457 1 I I 0 1 1.5 forward I I I I #
face $-1 $94 $95 $32 $-1 $96 reversed single #
loop $-1 $-1 $97 $41 #
plane-surface $-1 -178.01636613643313 -12.587408621664512 121.67131958605117 0 1 0 -0.64278761758704617 0 0.76604443648966558 forward_v I I I I #
face $-1 $98 $99 $33 $-1 $100 forward single #
loop $-1 $101 $102 $42 #
cone-surface $-1 -72.051368812316468 -8.6250224699867069 5.3890691288069137 0.64278761758704617 0 -0.76604443648966558 0.76604443648966558 0 0.64278761758704617 1 I I 0 1 1 forward I I I I #
face $-1 $103 $104 $34 $-1 $105 forward single #
loop $-1 $106 $107 $43 #
cone-surface $-1 -72.051368812316468 -2.6814432424699888 5.3890691288069137 0.64278761758704617 0 -0.76604443648966558 0.76604443648966558 0 0.64278761758704617 1 I I 0 1 1 forward I I I I #
face $-1 $108 $109 $35 $-1 $110 forward single #
loop $-1 $111 $112 $44 #
cone-surface $-1 -72.051368812316468 3.2621359850467258 5.3890691288069137 0.64278761758704617 0 -0.76604443648966558 0.76604443648966558 0 0.64278761758704617 1 I I 0 1 1 forward I I I I #
face $-1 $113 $114 $27 $-1 $115 reversed single #
loop $-1 $-1 $116 $45 #
plane-surface $-1 0 0 10.606768550424166 0 0 1 1 0 0 forward_v I I I I #
coedge $-1 $117 $118 $119 $120 reversed $46 $-1 #
face $-1 $121 $122 $28 $-1 $123 reversed single #
loop $-1 $-1 $124 $48 #
plane-surface $-1 0 0 -10.606768550424166 0 0 1 1 0 0 forward_v I I I I #
coedge $-1 $125 $126 $127 $128 forward $49 $-1 #
face $-1 $129 $130 $29 $-1 $131 reversed single #
loop $-1 $-1 $132 $51 #
plane-surface $-1 -57.017166273139054 -19.011808464230196 79.817203732069913 0.50000000669873634 0 0.8660253999169214 0.8660253999169214 0 -0.50000000669873634 forward_v I I I I #
coedge $-1 $133 $134 $135 $136 reversed $52 $-1 #
face $-1 $-1 $137 $30 $-1 $138 forward single #
loop $-1 $139 $140 $54 #
cone-surface $-1 68.434572283968748 -23.010847278983011 2.9113235542334035 -0.50000000669873634 0 -0.8660253999169214 0.64951904993769105 0 -0.37500000502405229 1 I I -0.70710678118654757 0.70710678118654757 0.75 forward I I I I #
loop $-1 $-1 $141 $39 #
coedge $-1 $88 $88 $142 $143 reversed $55 $-1 #
face $-1 $-1 $144 $31 $-1 $145 forward single #
loop $-1 $146 $147 $57 #
cone-surface $-1 68.434572283968748 -15.012769649477384 2.9113235542334035 -0.50000000669873634 0 -0.8660253999169214 0.64951904993769105 0 -0.37500000502405229 1 I I -0.70710678118654757 0.70710678118654757 0.75 forward I I I I #
loop $-1 $-1 $148 $40 #
coedge $-1 $93 $93 $149 $150 reversed $58 $-1 #
face $-1 $151 $152 $32 $-1 $153 reversed single #
loop $-1 $-1 $154 $60 #
plane-surface $-1 -77.886898403881943 -2.6814432424699888 2.3416691905920004 -0.64278761758704617 0 0.76604443648966558 0.76604443648966558 0 0.64278761758704617 forward_v I I I I #
coedge $-1 $155 $156 $157 $158 reversed $61 $-1 #
face $-1 $-1 $159 $33 $-1 $160 forward single #
loop $-1 $161 $162 $63 #
cone-surface $-1 -70.819426236417954 -8.6250224699867069 3.9208971688609005 0.64278761758704617 0 -0.76604443648966558 0.38302221824483279 0 0.32139380879352308 1 I I -0.70710678118654746 0.70710678118654746 0.5 forward I I I I #
loop $-1 $-1 $163 $42 #
coedge $-1 $102 $102 $164 $165 reversed $64 $-1 #
face $-1 $-1 $166 $34 $-1 $167 forward single #
loop $-1 $168 $169 $66 #
cone-surface $-1 -70.819426236417954 -2.6814432424699888 3.9208971688609005 0.64278761758704617 0 -0.76604443648966558 0.38302221824483279 0 0.32139380879352308 1 I I -0.70710678118654746 0.70710678118654746 0.5 forward I I I I #
loop $-1 $-1 $170 $43 #
coedge $-1 $107 $107 $171 $172 reversed $67 $-1 #
face $-1 $-1 $173 $35 $-1 $174 forward single #
loop $-1 $175 $176 $69 #
cone-surface $-1 -70.819426236417954 3.2621359850467258 3.9208971688609005 0.64278761758704617 0 -0.76604443648966558 0.38302221824483279 0 0.32139380879352308 1 I I -0.70710678118654746 0.70710678118654746 0.5 forward I I I I #
loop $-1 $-1 $177 $44 #
coedge $-1 $112 $112 $178 $179 reversed $70 $-1 #
face $-1 $180 $181 $27 $-1 $182 reversed single #
loop $-1 $-1 $183 $72 #
plane-surface $-1 0 0 -10.606768550424166 0 0 1 1 0 0 forward_v I I I I #
coedge $-1 $184 $185 $186 $187 forward $73 $-1 #
coedge $-1 $188 $75 $189 $190 reversed $46 $-1 #
coedge $-1 $75 $188 $191 $192 forward $46 $-1 #
coedge $-1 $193 $183 $75 $120 forward $114 $-1 #
edge $-1 $194 -77.886898403881958 $195 77.886898403881958 $75 $196 forward 7 unknown #
face $-1 $197 $198 $28 $-1 $199 reversed single #
loop $-1 $-1 $200 $76 #
plane-surface $-1 -64.215724786793615 -48.235702949229186 0 0 1 0 0 0 1 forward_v I I I I #
coedge $-1 $201 $202 $126 $203 forward $77 $-1 #
coedge $-1 $204 $79 $205 $206 reversed $49 $-1 #
coedge $-1 $79 $204 $124 $203 reversed $49 $-1 #
coedge $-1 $207 $208 $79 $128 reversed $198 $-1 #
edge $-1 $209 -10.606768550424166 $210 10.606768550424166 $127 $211 forward 7 unknown #
face $-1 $212 $213 $29 $-1 $214 forward single #
loop $-1 $-1 $215 $80 #
plane-surface $-1 20.869733174230504 -28.342899031986761 214.72126840909092 0 1 0 0.50000000669873634 0 0.8660253999169214 forward_v I I I I #
coedge $-1 $216 $217 $218 $219 reversed $81 $-1 #
coedge $-1 $134 $83 $220 $221 reversed $52 $-1 #
coedge $-1 $83 $133 $216 $222 reversed $52 $-1 #
coedge $-1 $218 $223 $83 $136 forward $213 $-1 #
edge $-1 $224 -67.452031816766706 $225 -52.423955146928279 $135 $226 forward 7 unknown #
loop $-1 $-1 $142 $84 #
plane-surface $-1 -57.017166273139054 -19.011808464230196 79.817203732069913 0.50000000669873634 0 0.8660253999169214 0.8660253999169214 0 -0.50000000669873634 forward_v I I I I #
loop $-1 $-1 $227 $54 #
coedge $-1 $140 $140 $141 $228 reversed $85 $-1 #
coedge $-1 $141 $141 $140 $228 forward $87 $-1 #
coedge $-1 $142 $142 $88 $143 forward $137 $-1 #
edge $-1 $229 0 $229 6.2831853071796004 $142 $230 forward 7 unknown #
loop $-1 $-1 $149 $89 #
plane-surface $-1 -57.017166273139054 -19.011808464230196 79.817203732069913 0.50000000669873634 0 0.8660253999169214 0.8660253999169214 0 -0.50000000669873634 forward_v I I I I #
loop $-1 $-1 $231 $57 #
coedge $-1 $147 $147 $148 $232 reversed $90 $-1 #
coedge $-1 $148 $148 $147 $232 forward $92 $-1 #
coedge $-1 $149 $149 $93 $150 forward $144 $-1 #
edge $-1 $233 0 $233 6.2831853071796004 $149 $234 forward 7 unknown #
face $-1 $235 $236 $32 $-1 $237 reversed single #
loop $-1 $-1 $238 $94 #
plane-surface $-1 -178.01636613643313 7.2245221367245342 121.67131958605117 0 -1 0 0.64278761758704617 0 -0.76604443648966558 forward_v I I I I #
coedge $-1 $239 $240 $241 $242 reversed $95 $-1 #
coedge $-1 $156 $97 $243 $244 reversed $61 $-1 #
coedge $-1 $97 $155 $239 $245 reversed $61 $-1 #
coedge $-1 $241 $246 $97 $158 forward $247 $-1 #
edge $-1 $248 11.12128466433461 $249 20.971246313255662 $157 $250 forward 7 unknown #
loop $-1 $-1 $164 $98 #
plane-surface $-1 -77.886898403881943 -2.6814432424699888 2.3416691905920004 -0.64278761758704617 0 0.76604443648966558 0.76604443648966558 0 0.64278761758704617 forward_v I I I I #
loop $-1 $-1 $251 $63 #
coedge $-1 $162 $162 $163 $252 reversed $99 $-1 #
coedge $-1 $163 $163 $162 $252 forward $101 $-1 #
coedge $-1 $164 $164 $102 $165 forward $159 $-1 #
edge $-1 $253 0 $253 6.2831853071796004 $164 $254 forward 7 unknown #
loop $-1 $-1 $171 $103 #
plane-surface $-1 -77.886898403881943 -2.6814432424699888 2.3416691905920004 -0.64278761758704617 0 0.76604443648966558 0.76604443648966558 0 0.64278761758704617 forward_v I I I I #
loop $-1 $-1 $255 $66 #
coedge $-1 $169 $169 $170 $256 reversed $104 $-1 #
coedge $-1 $170 $170 $169 $256 forward $106 $-1 #
coedge $-1 $171 $171 $107 $172 forward $166 $-1 #
edge $-1 $257 0 $257 6.2831853071796004 $171 $258 forward 7 unknown #
loop $-1 $-1 $178 $108 #
plane-surface $-1 -77.886898403881943 -2.6814432424699888 2.3416691905920004 -0.64278761758704617 0 0.76604443648966558 0.76604443648966558 0 0.64278761758704617 forward_v I I I I #
loop $-1 $-1 $259 $69 #
coedge $-1 $176 $176 $177 $260 reversed $109 $-1 #
coedge $-1 $177 $177 $176 $260 forward $111 $-1 #
coedge $-1 $178 $178 $112 $179 forward $173 $-1 #
edge $-1 $261 0 $261 6.2831853071796004 $178 $262 forward 7 unknown #
face $-1 $263 $264 $27 $-1 $265 reversed single #
loop $-1 $-1 $266 $113 #
plane-surface $-1 -77.886898403881958 0 0 1 0 0 0 0 -1 forward_v I I I I #
coedge $-1 $119 $267 $268 $269 forward $114 $-1 #
coedge $-1 $270 $116 $271 $272 forward $73 $-1 #
coedge $-1 $116 $270 $188 $273 forward $73 $-1 #
coedge $-1 $189 $274 $116 $187 reversed $275 $-1 #
edge $-1 $276 -38.289300990607977 $277 38.289300990607977 $186 $278 forward 7 unknown #
coedge $-1 $118 $117 $185 $273 reversed $46 $-1 #
coedge $-1 $268 $186 $117 $190 forward $275 $-1 #
edge $-1 $276 -10.606768550424166 $194 10.606768550424166 $189 $279 forward 7 unknown #
coedge $-1 $280 $281 $118 $192 reversed $181 $-1 #
edge $-1 $282 -10.606768550424166 $195 10.606768550424166 $191 $283 forward 7 unknown #
coedge $-1 $267 $119 $281 $284 forward $114 $-1 #
vertex $-1 $190 $285 #
vertex $-1 $284 $286 #
straight-curve $-1 0 -38.289300990607977 -10.606768550424166 -1 0 0 I I #
face $-1 $287 $288 $28 $-1 $289 reversed single #
loop $-1 $-1 $127 $121 #
plane-surface $-1 -66.595425674834729 -43.262501969918581 0 1 0 0 0 0 -1 forward_v I I I I #
coedge $-1 $290 $291 $292 $293 forward $122 $-1 #
coedge $-1 $294 $124 $295 $296 forward $77 $-1 #
coedge $-1 $124 $294 $207 $297 forward $77 $-1 #
edge $-1 $209 -66.595425674834729 $298 -61.836023898752501 $124 $299 forward 7 unknown #
coedge $-1 $126 $125 $300 $301 forward $49 $-1 #
coedge $-1 $302 $303 $125 $206 forward $304 $-1 #
edge $-1 $305 61.836023898752501 $210 66.595425674834729 $205 $306 forward 7 unknown #
coedge $-1 $292 $127 $202 $297 reversed $198 $-1 #
coedge $-1 $127 $292 $302 $307 reversed $198 $-1 #
vertex $-1 $203 $308 #
vertex $-1 $307 $309 #
straight-curve $-1 -66.595425674834729 -38.289300990607977 0 0 0 1 I I #
face $-1 $-1 $310 $29 $-1 $311 reversed single #
loop $-1 $-1 $135 $129 #
plane-surface $-1 0 0 10.606768550424166 0 0 1 1 0 0 forward_v I I I I #
coedge $-1 $312 $313 $314 $315 reversed $130 $-1 #
coedge $-1 $316 $132 $134 $222 forward $81 $-1 #
coedge $-1 $132 $316 $312 $317 forward $81 $-1 #
coedge $-1 $314 $135 $132 $219 forward $213 $-1 #
edge $-1 $225 0.17481366435853296 $318 18.836994799871661 $218 $319 forward 7 unknown #
coedge $-1 $320 $321 $133 $221 forward $310 $-1 #
edge $-1 $322 -105.43032991984512 $224 -96.753865654121299 $220 $323 forward 7 unknown #
edge $-1 $225 138.4208685088017 $322 155.77379680776394 $134 $324 forward 7 unknown #
coedge $-1 $135 $314 $320 $325 forward $213 $-1 #
vertex $-1 $136 $326 #
vertex $-1 $136 $327 #
straight-curve $-1 10.434866587115252 -9.6807178964736309 10.606768550424164 -1 0 0 I I #
coedge $-1 $227 $227 $-1 $328 reversed $139 $-1 #
edge $-1 $329 0 $329 6.2831853071796004 $140 $330 forward 7 unknown #
vertex $-1 $143 $331 #
ellipse-curve $-1 70.372860068962737 -23.010847278983011 6.2685364175622578 0.50000000669873634 0 0.8660253999169214 1.2990380998753821 0 -0.75000001004810457 1 I I #
coedge $-1 $231 $231 $-1 $332 reversed $146 $-1 #
edge $-1 $333 0 $333 6.2831853071796004 $147 $334 forward 7 unknown #
vertex $-1 $150 $335 #
ellipse-curve $-1 70.372860068962737 -15.012769649477384 6.2685364175622578 0.50000000669873634 0 0.8660253999169214 1.2990380998753821 0 -0.75000001004810457 1 I I #
face $-1 $-1 $247 $32 $-1 $336 forward single #
loop $-1 $-1 $337 $151 #
plane-surface $-1 -77.886898403881958 0 0 1 0 0 0 0 -1 forward_v I I I I #
coedge $-1 $338 $339 $340 $341 reversed $152 $-1 #
coedge $-1 $342 $154 $156 $245 forward $95 $-1 #
coedge $-1 $154 $342 $338 $343 forward $95 $-1 #
coedge $-1 $340 $157 $154 $242 forward $247 $-1 #
edge $-1 $249 -11.246687000429517 $344 8.5652437579595286 $241 $345 forward 7 unknown #
coedge $-1 $346 $347 $155 $244 forward $236 $-1 #
edge $-1 $348 -58.493990602433598 $248 -50.228891242601421 $243 $349 forward 7 unknown #
edge $-1 $249 -12.858211847419271 $348 1.8593432412625586e-014 $156 $350 forward 7 unknown #
coedge $-1 $157 $340 $346 $351 forward $247 $-1 #
loop $-1 $-1 $340 $235 #
vertex $-1 $244 $352 #
vertex $-1 $158 $353 #
straight-curve $-1 -89.008183068216567 -12.587408621664512 10.606768550424164 1 0 0 I I #
coedge $-1 $251 $251 $-1 $354 reversed $161 $-1 #
edge $-1 $355 0 $355 6.2831853071796004 $162 $356 forward 7 unknown #
vertex $-1 $165 $357 #
ellipse-curve $-1 -72.961917579421439 -8.6250224699867069 6.4742188705080714 -0.64278761758704617 0 0.76604443648966558 0.76604443648966558 0 0.64278761758704617 1 I I #
coedge $-1 $255 $255 $-1 $358 reversed $168 $-1 #
edge $-1 $359 0 $359 6.2831853071796004 $169 $360 forward 7 unknown #
vertex $-1 $172 $361 #
ellipse-curve $-1 -72.961917579421439 -2.6814432424699888 6.4742188705080714 -0.64278761758704617 0 0.76604443648966558 0.76604443648966558 0 0.64278761758704617 1 I I #
coedge $-1 $259 $259 $-1 $362 reversed $175 $-1 #
edge $-1 $363 0 $363 6.2831853071796004 $176 $364 forward 7 unknown #
vertex $-1 $179 $365 #
ellipse-curve $-1 -72.961917579421439 3.2621359850467258 6.4742188705080714 -0.64278761758704617 0 0.76604443648966558 0.76604443648966558 0 0.64278761758704617 1 I I #
face $-1 $-1 $275 $27 $-1 $366 reversed single #
loop $-1 $-1 $367 $180 #
plane-surface $-1 0 38.289300990607977 0 0 -1 0 0 0 -1 forward_v I I I I #
coedge $-1 $281 $280 $368 $369 forward $181 $-1 #
coedge $-1 $183 $193 $370 $371 forward $114 $-1 #
coedge $-1 $274 $189 $183 $269 reversed $275 $-1 #
edge $-1 $372 -38.289300990607977 $194 38.289300990607977 $268 $373 forward 7 unknown #
coedge $-1 $185 $184 $280 $374 forward $73 $-1 #
coedge $-1 $367 $368 $184 $272 reversed $264 $-1 #
edge $-1 $277 -77.886898403881958 $375 77.886898403881958 $271 $376 forward 7 unknown #
edge $-1 $282 -77.886898403881958 $276 77.886898403881958 $188 $377 forward 7 unknown #
coedge $-1 $186 $268 $367 $378 reversed $275 $-1 #
loop $-1 $-1 $189 $263 #
vertex $-1 $187 $379 #
vertex $-1 $187 $380 #
straight-curve $-1 77.886898403881958 0 10.606768550424166 0 1 0 I I #
straight-curve $-1 77.886898403881958 -38.289300990607977 0 0 0 -1 I I #
coedge $-1 $266 $191 $270 $374 reversed $181 $-1 #
coedge $-1 $191 $266 $193 $284 reversed $181 $-1 #
vertex $-1 $374 $381 #
straight-curve $-1 -77.886898403881958 -38.289300990607977 0 0 0 -1 I I #
edge $-1 $195 -38.289300990607977 $382 38.289300990607977 $281 $383 forward 7 unknown #
point $-1 77.886898403881958 -38.289300990607977 -10.606768550424166 #
point $-1 -77.886898403881958 -38.289300990607977 -10.606768550424166 #
face $-1 $-1 $304 $28 $-1 $384 forward single #
loop $-1 $-1 $385 $197 #
plane-surface $-1 -61.836023898752501 -43.262501969918581 0 -1 0 0 0 0 1 forward_v I I I I #
coedge $-1 $386 $200 $294 $387 reversed $122 $-1 #
coedge $-1 $200 $386 $388 $389 reversed $122 $-1 #
coedge $-1 $208 $207 $200 $293 reversed $198 $-1 #
edge $-1 $390 -10.606768550424166 $391 10.606768550424166 $292 $392 forward 7 unknown #
coedge $-1 $202 $201 $290 $387 forward $77 $-1 #
coedge $-1 $300 $385 $201 $296 reversed $288 $-1 #
edge $-1 $298 -4.9732009793106045 $393 4.9732009793106045 $295 $394 forward 7 unknown #
edge $-1 $391 -4.9732009793106045 $209 4.9732009793106045 $207 $395 forward 7 unknown #
vertex $-1 $296 $396 #
straight-curve $-1 0 -38.289300990607977 -10.606768550424166 1 0 0 I I #
coedge $-1 $397 $295 $204 $301 reversed $288 $-1 #
edge $-1 $305 -10.606768550424166 $298 10.606768550424166 $300 $398 forward 7 unknown #
coedge $-1 $388 $205 $208 $307 forward $304 $-1 #
coedge $-1 $205 $388 $397 $399 forward $304 $-1 #
loop $-1 $-1 $205 $287 #
vertex $-1 $206 $400 #
straight-curve $-1 0 -38.289300990607977 10.606768550424166 -1 0 0 I I #
edge $-1 $210 -4.9732009793106045 $390 4.9732009793106045 $208 $401 forward 7 unknown #
point $-1 -66.595425674834729 -38.289300990607977 -10.606768550424166 #
point $-1 -66.595425674834729 -38.289300990607977 10.606768550424166 #
loop $-1 $-1 $220 $212 #
plane-surface $-1 77.886898403881958 0 0 -1 0 0 0 0 1 forward_v I I I I #
coedge $-1 $313 $215 $217 $317 reversed $130 $-1 #
coedge $-1 $215 $312 $402 $403 reversed $130 $-1 #
coedge $-1 $223 $218 $215 $315 forward $213 $-1 #
edge $-1 $318 52.423955146928279 $404 67.452031816766706 $314 $405 forward 7 unknown #
coedge $-1 $217 $216 $321 $406 reversed $81 $-1 #
edge $-1 $407 -155.77379680776394 $318 -138.4208685088017 $312 $408 forward 7 unknown #
vertex $-1 $219 $409 #
straight-curve $-1 62.858821734043516 -9.5059042321150979 10.606768550424164 0 -1 0 I I #
coedge $-1 $402 $220 $223 $325 reversed $310 $-1 #
coedge $-1 $220 $402 $316 $406 forward $310 $-1 #
vertex $-1 $221 $410 #
straight-curve $-1 77.886898403881958 -9.6807178964736309 107.36063420454546 0 0 1 I I #
straight-curve $-1 -57.017166273139054 -9.6807178964736309 79.817203732069913 0.8660253999169214 0 -0.50000000669873634 I I #
edge $-1 $404 -28.342899031986761 $224 -9.6807178964736309 $320 $411 forward 7 unknown #
point $-1 77.886898403881958 -9.6807178964736309 10.606768550424166 #
point $-1 62.858821734043531 -9.6807178964736309 10.606768550424164 #
edge $-1 $412 1 $412 0 $227 $-1 forward 7 unknown #
vertex $-1 $228 $413 #
ellipse-curve $-1 68.809572288992797 -23.010847278983011 3.5608426041710945 0.50000000669873634 0 0.8660253999169214 1.2990380998753821 0 -0.75000001004810457 1 I I #
point $-1 71.67189816883814 -23.010847278983011 5.5185364075141674 #
edge $-1 $414 1 $414 0 $231 $-1 forward 7 unknown #
vertex $-1 $232 $415 #
ellipse-curve $-1 68.809572288992797 -15.012769649477384 3.5608426041710945 0.50000000669873634 0 0.8660253999169214 1.2990380998753821 0 -0.75000001004810457 1 I I #
point $-1 71.67189816883814 -15.012769649477384 5.5185364075141674 #
plane-surface $-1 0 0 10.606768550424166 0 0 1 1 0 0 forward_v I I I I #
coedge $-1 $347 $346 $339 $416 forward $236 $-1 #
coedge $-1 $339 $238 $240 $343 reversed $152 $-1 #
coedge $-1 $238 $338 $337 $416 reversed $152 $-1 #
coedge $-1 $246 $241 $238 $341 forward $247 $-1 #
edge $-1 $344 -20.971246313255662 $417 -11.12128466433461 $340 $418 forward 7 unknown #
coedge $-1 $240 $239 $347 $419 reversed $95 $-1 #
edge $-1 $420 -1.8593432412625586e-014 $344 12.858211847419271 $338 $421 forward 7 unknown #
vertex $-1 $242 $422 #
straight-curve $-1 -68.036936754960891 -1.3407216212349944 10.606768550424166 0 1 0 I I #
coedge $-1 $337 $243 $246 $351 reversed $236 $-1 #
coedge $-1 $243 $337 $342 $419 forward $236 $-1 #
vertex $-1 $244 $423 #
straight-curve $-1 -77.886898403881958 -12.587408621664512 60.835659793025584 0 0 1 I I #
straight-curve $-1 -77.886898403881943 -12.587408621664512 2.3416691905920004 -0.76604443648966558 0 -0.64278761758704617 I I #
edge $-1 $417 -7.2245221367245342 $248 12.587408621664512 $346 $424 forward 7 unknown #
point $-1 -77.886898403881958 -12.587408621664512 10.606768550424166 #
point $-1 -68.036936754960905 -12.587408621664512 10.606768550424166 #
edge $-1 $425 1 $425 0 $251 $-1 forward 7 unknown #
vertex $-1 $252 $426 #
ellipse-curve $-1 -71.14082004521147 -8.6250224699867069 4.3039193871057329 -0.64278761758704617 0 0.76604443648966558 0.76604443648966558 0 0.64278761758704617 1 I I #
point $-1 -72.195873142931788 -8.6250224699867069 7.1170064880951394 #
edge $-1 $427 1 $427 0 $255 $-1 forward 7 unknown #
vertex $-1 $256 $428 #
ellipse-curve $-1 -71.14082004521147 -2.6814432424699888 4.3039193871057329 -0.64278761758704617 0 0.76604443648966558 0.76604443648966558 0 0.64278761758704617 1 I I #
point $-1 -72.195873142931788 -2.6814432424699888 7.1170064880951394 #
edge $-1 $429 1 $429 0 $259 $-1 forward 7 unknown #
vertex $-1 $260 $430 #
ellipse-curve $-1 -71.14082004521147 3.2621359850467258 4.3039193871057329 -0.64278761758704617 0 0.76604443648966558 0.76604443648966558 0 0.64278761758704617 1 I I #
point $-1 -72.195873142931788 3.2621359850467258 7.1170064880951394 #
plane-surface $-1 77.886898403881958 0 0 -1 0 0 0 0 1 forward_v I I I I #
coedge $-1 $370 $271 $274 $378 forward $264 $-1 #
coedge $-1 $271 $370 $266 $369 reversed $264 $-1 #
edge $-1 $375 -10.606768550424166 $382 10.606768550424166 $368 $431 forward 7 unknown #
coedge $-1 $368 $367 $267 $371 reversed $264 $-1 #
edge $-1 $382 -77.886898403881958 $372 77.886898403881958 $370 $432 forward 7 unknown #
vertex $-1 $269 $433 #
straight-curve $-1 77.886898403881958 0 -10.606768550424166 0 -1 0 I I #
edge $-1 $375 -38.289300990607977 $282 38.289300990607977 $280 $434 forward 7 unknown #
vertex $-1 $272 $435 #
straight-curve $-1 0 38.289300990607977 10.606768550424166 -1 0 0 I I #
straight-curve $-1 0 -38.289300990607977 10.606768550424166 1 0 0 I I #
edge $-1 $277 -10.606768550424166 $372 10.606768550424166 $274 $436 forward 7 unknown #
point $-1 77.886898403881958 -38.289300990607977 10.606768550424166 #
point $-1 77.886898403881958 38.289300990607977 10.606768550424166 #
point $-1 -77.886898403881958 -38.289300990607977 10.606768550424166 #
vertex $-1 $371 $437 #
straight-curve $-1 -77.886898403881958 0 -10.606768550424166 0 1 0 I I #
plane-surface $-1 0 0 10.606768550424166 0 0 1 1 0 0 forward_v I I I I #
coedge $-1 $295 $397 $386 $438 forward $288 $-1 #
coedge $-1 $291 $290 $385 $438 reversed $122 $-1 #
edge $-1 $393 -2.3797008880411141 $391 2.3797008880411141 $290 $439 forward 7 unknown #
coedge $-1 $303 $302 $291 $389 forward $304 $-1 #
edge $-1 $390 -2.3797008880411141 $440 2.3797008880411141 $291 $441 forward 7 unknown #
vertex $-1 $307 $442 #
vertex $-1 $297 $443 #
straight-curve $-1 -66.595425674834729 -48.235702949229186 0 0 0 -1 I I #
vertex $-1 $438 $444 #
straight-curve $-1 -61.836023898752501 -43.262501969918581 -10.606768550424166 0 -1 0 I I #
straight-curve $-1 -66.595425674834729 -43.262501969918581 -10.606768550424166 0 1 0 I I #
point $-1 -61.836023898752501 -38.289300990607977 -10.606768550424166 #
coedge $-1 $385 $300 $303 $399 reversed $288 $-1 #
straight-curve $-1 -61.836023898752501 -38.289300990607977 0 0 0 -1 I I #
edge $-1 $440 -4.9732009793106045 $305 4.9732009793106045 $397 $445 forward 7 unknown #
point $-1 -61.836023898752501 -38.289300990607977 10.606768550424166 #
straight-curve $-1 -66.595425674834729 -43.262501969918581 10.606768550424166 0 -1 0 I I #
coedge $-1 $321 $320 $313 $403 forward $310 $-1 #
edge $-1 $404 96.753865654121299 $407 105.43032991984512 $402 $446 forward 7 unknown #
vertex $-1 $325 $447 #
straight-curve $-1 10.434866587115252 -28.342899031986761 10.606768550424164 1 0 0 I I #
edge $-1 $407 -18.836994799871661 $322 -0.17481366435853296 $321 $448 forward 7 unknown #
vertex $-1 $406 $449 #
straight-curve $-1 -57.017166273139054 -28.342899031986761 79.817203732069913 -0.8660253999169214 0 0.50000000669873634 I I #
point $-1 62.858821734043531 -28.342899031986761 10.606768550424164 #
point $-1 77.886898403881958 -9.6807178964736309 1.9303042847003411 #
straight-curve $-1 77.886898403881958 0 10.606768550424166 0 1 0 I I #
vertex $-1 $328 $450 #
point $-1 70.108610388868186 -23.010847278983011 2.81084259412299 #
vertex $-1 $332 $451 #
point $-1 70.108610388868186 -15.012769649477384 2.81084259412299 #
edge $-1 $417 50.228891242601421 $420 58.493990602433598 $337 $452 forward 7 unknown #
vertex $-1 $351 $453 #
straight-curve $-1 -89.008183068216567 7.2245221367245342 10.606768550424164 -1 0 0 I I #
edge $-1 $420 -8.5652437579595286 $348 11.246687000429517 $347 $454 forward 7 unknown #
vertex $-1 $419 $455 #
straight-curve $-1 -77.886898403881943 7.2245221367245342 2.3416691905920004 0.76604443648966558 0 0.64278761758704617 I I #
point $-1 -68.036936754960905 7.2245221367245342 10.606768550424166 #
point $-1 -77.886898403881958 -12.587408621664512 2.3416691905919884 #
straight-curve $-1 -77.886898403881958 0 10.606768550424166 0 -1 0 I I #
vertex $-1 $354 $456 #
point $-1 -70.374775608721805 -8.6250224699867069 4.9467070046927795 #
vertex $-1 $358 $457 #
point $-1 -70.374775608721805 -2.6814432424699888 4.9467070046927795 #
vertex $-1 $362 $458 #
point $-1 -70.374775608721805 3.2621359850467258 4.9467070046927795 #
straight-curve $-1 -77.886898403881958 38.289300990607977 0 0 0 -1 I I #
straight-curve $-1 0 38.289300990607977 -10.606768550424166 1 0 0 I I #
point $-1 77.886898403881958 38.289300990607977 -10.606768550424166 #
straight-curve $-1 -77.886898403881958 0 10.606768550424166 0 -1 0 I I #
point $-1 -77.886898403881958 38.289300990607977 10.606768550424166 #
straight-curve $-1 77.886898403881958 38.289300990607977 0 0 0 -1 I I #
point $-1 -77.886898403881958 38.289300990607977 -10.606768550424166 #
edge $-1 $440 -10.606768550424166 $393 10.606768550424166 $385 $459 forward 7 unknown #
straight-curve $-1 -64.215724786793615 -48.235702949229186 -10.606768550424166 -1 0 0 I I #
vertex $-1 $399 $460 #
straight-curve $-1 -64.215724786793615 -48.235702949229186 10.606768550424166 1 0 0 I I #
point $-1 -66.595425674834729 -48.235702949229186 10.606768550424166 #
point $-1 -66.595425674834729 -48.235702949229186 -10.606768550424166 #
point $-1 -61.836023898752501 -48.235702949229186 -10.606768550424166 #
straight-curve $-1 -61.836023898752501 -43.262501969918581 10.606768550424166 0 1 0 I I #
straight-curve $-1 77.886898403881958 -28.342899031986761 107.36063420454546 0 0 -1 I I #
point $-1 77.886898403881958 -28.342899031986761 10.606768550424166 #
straight-curve $-1 77.886898403881958 -9.5059042321150979 1.9303042847003624 0 1 0 I I #
point $-1 77.886898403881958 -28.342899031986761 1.9303042847003411 #
point $-1 68.0595722789447 -23.010847278983011 2.2618045042957124 #
point $-1 68.0595722789447 -15.012769649477384 2.2618045042957124 #
straight-curve $-1 -77.886898403881958 7.2245221367245342 60.835659793025584 0 0 -1 I I #
point $-1 -77.886898403881958 7.2245221367245342 10.606768550424166 #
straight-curve $-1 -77.886898403881958 -1.3407216212349944 2.3416691905919977 0 -1 0 I I #
point $-1 -77.886898403881958 7.2245221367245342 2.3416691905919884 #
point $-1 -70.498032427624437 -8.6250224699867069 3.5378749506160676 #
point $-1 -70.498032427624437 -2.6814432424699888 3.5378749506160676 #
point $-1 -70.498032427624437 3.2621359850467258 3.5378749506160676 #
straight-curve $-1 -61.836023898752501 -48.235702949229186 0 0 0 -1 I I #
point $-1 -61.836023898752501 -48.235702949229186 10.606768550424166 #
End-of-ACIS-data 