500 0 6 0           
7 Unknown 11 ACIS 5.0 NT 24 Fri Mar 26 14:43:02 1999 
-1 9.9999999999999995e-007 1e-010 
body $-1 $6 $-1 $7 #
body $-1 $8 $-1 $9 #
body $-1 $10 $-1 $11 #
body $-1 $12 $-1 $13 #
body $-1 $14 $-1 $15 #
body $-1 $16 $-1 $17 #
lump $-1 $-1 $18 $0 #
transform $-1 1 0 0 0 1 0 0 0 1 69.162266914883872 38.009168910686441 8.2372725690043822 1 rotate no_reflect no_shear #
lump $-1 $-1 $19 $1 #
transform $-1 1 0 0 0 1 0 0 0 1 69.162266914883872 38.009168910686441 8.2372725690043822 1 rotate no_reflect no_shear #
lump $-1 $-1 $20 $2 #
transform $-1 1 0 0 0 1 0 0 0 1 69.162266914883872 38.009168910686441 8.2372725690043822 1 rotate no_reflect no_shear #
lump $-1 $-1 $21 $3 #
transform $-1 1 0 0 0 1 0 0 0 1 69.162266914883872 38.009168910686441 8.2372725690043822 1 rotate no_reflect no_shear #
lump $-1 $-1 $22 $4 #
transform $-1 1 0 0 0 1 0 0 0 1 69.162266914883872 38.009168910686441 8.2372725690043822 1 rotate no_reflect no_shear #
lump $-1 $-1 $23 $5 #
transform $-1 1 0 0 0 1 0 0 0 1 69.162266914883872 38.009168910686441 8.2372725690043822 1 rotate no_reflect no_shear #
shell $-1 $-1 $-1 $24 $-1 $6 #
shell $-1 $-1 $-1 $25 $-1 $8 #
shell $-1 $-1 $-1 $26 $-1 $10 #
shell $-1 $-1 $-1 $27 $-1 $12 #
shell $-1 $-1 $-1 $28 $-1 $14 #
shell $-1 $-1 $-1 $29 $-1 $16 #
face $-1 $30 $31 $18 $-1 $32 forward single #
face $-1 $33 $34 $19 $-1 $35 forward single #
face $-1 $36 $37 $20 $-1 $38 forward single #
face $-1 $39 $40 $21 $-1 $41 reversed single #
face $-1 $42 $43 $22 $-1 $44 forward single #
face $-1 $45 $46 $23 $-1 $47 forward single #
face $-1 $48 $49 $18 $-1 $50 reversed single #
loop $-1 $-1 $51 $24 #
plane-surface $-1 0 0 8.2372725690043822 0 0 1 1 0 0 forward_v I I I I #
face $-1 $52 $53 $19 $-1 $54 reversed single #
loop $-1 $-1 $55 $25 #
plane-surface $-1 -66.381250369300133 0 -5.0103894808286551 0 0 1 1 0 0 forward_v I I I I #
face $-1 $56 $57 $20 $-1 $58 reversed single #
loop $-1 $-1 $59 $26 #
plane-surface $-1 66.381250369300147 0 -5.0103894808286551 0 0 1 1 0 0 forward_v I I I I #
face $-1 $60 $61 $21 $-1 $62 reversed single #
loop $-1 $-1 $63 $27 #
plane-surface $-1 58.893671176471024 76.749983078787764 157.63892495115019 -1 0 0 0 0.68199836817093118 0.7313536940579346 forward_v I I I I #
face $-1 $64 $65 $22 $-1 $66 forward single #
loop $-1 $67 $68 $28 #
cone-surface $-1 45.244392023785011 35.143179802614547 5.4343464423474144 0 -0.68199836817093118 -0.7313536940579346 1 0 0 1 I I 0 1 1 forward I I I I #
face $-1 $69 $70 $23 $-1 $71 forward single #
loop $-1 $72 $73 $29 #
cone-surface $-1 53.433959515396623 35.143179802614547 5.4343464423474144 0 -0.68199836817093118 -0.7313536940579346 1 0 0 1 I I 0 1 1 forward I I I I #
face $-1 $74 $75 $18 $-1 $76 reversed single #
loop $-1 $-1 $77 $30 #
plane-surface $-1 0 0 -8.2372725690043822 0 0 1 1 0 0 forward_v I I I I #
coedge $-1 $78 $79 $80 $81 forward $31 $-1 #
face $-1 $82 $83 $19 $-1 $84 reversed single #
loop $-1 $-1 $85 $33 #
plane-surface $-1 -63.600233823716401 0 -6.6238310249165187 -1 0 0 0 0 1 forward_v I I I I #
coedge $-1 $86 $87 $88 $89 forward $34 $-1 #
face $-1 $90 $91 $20 $-1 $92 reversed single #
loop $-1 $-1 $93 $36 #
plane-surface $-1 63.600233823716408 0 -6.6238310249165187 1 0 0 0 0 -1 forward_v I I I I #
coedge $-1 $94 $95 $96 $97 reversed $37 $-1 #
face $-1 $98 $99 $21 $-1 $100 reversed single #
loop $-1 $-1 $101 $39 #
plane-surface $-1 49.33917576959081 -17.5871232711186 56.474766155907801 0 0.68199836817093118 0.7313536940579346 1 0 0 forward_v I I I I #
coedge $-1 $102 $103 $104 $105 reversed $40 $-1 #
face $-1 $-1 $106 $22 $-1 $107 forward single #
loop $-1 $108 $109 $42 #
cone-surface $-1 45.244392023785011 33.870148789960879 4.0691878478312091 0 -0.68199836817093118 -0.7313536940579346 0.5 0 0 1 I I -0.70710678118654746 0.70710678118654746 0.5 forward I I I I #
loop $-1 $-1 $110 $28 #
coedge $-1 $68 $68 $111 $112 reversed $43 $-1 #
face $-1 $-1 $113 $23 $-1 $114 forward single #
loop $-1 $115 $116 $45 #
cone-surface $-1 53.433959515396623 33.870148789960879 4.0691878478312091 0 -0.68199836817093118 -0.7313536940579346 0.5 0 0 1 I I -0.70710678118654746 0.70710678118654746 0.5 forward I I I I #
loop $-1 $-1 $117 $29 #
coedge $-1 $73 $73 $118 $119 reversed $46 $-1 #
face $-1 $120 $121 $18 $-1 $122 reversed single #
loop $-1 $-1 $123 $48 #
plane-surface $-1 0 -38.009168910686441 0 0 1 0 0 0 1 forward_v I I I I #
coedge $-1 $124 $125 $126 $127 forward $49 $-1 #
coedge $-1 $128 $51 $129 $130 forward $31 $-1 #
coedge $-1 $51 $128 $131 $132 forward $31 $-1 #
coedge $-1 $133 $134 $51 $81 reversed $135 $-1 #
edge $-1 $136 -38.009168910686441 $137 38.009168910686441 $80 $138 forward 7 unknown #
face $-1 $139 $140 $19 $-1 $141 reversed single #
loop $-1 $-1 $142 $52 #
plane-surface $-1 0 0 -8.2372725690043822 0 0 1 1 0 0 forward_v I I I I #
coedge $-1 $143 $88 $144 $145 reversed $53 $-1 #
coedge $-1 $146 $55 $147 $148 reversed $34 $-1 #
coedge $-1 $55 $146 $149 $150 reversed $34 $-1 #
coedge $-1 $85 $151 $55 $89 reversed $53 $-1 #
edge $-1 $152 -38.009168910686441 $153 38.009168910686441 $88 $154 forward 7 unknown #
face $-1 $155 $156 $20 $-1 $157 reversed single #
loop $-1 $-1 $158 $56 #
plane-surface $-1 0 -38.009168910686441 0 0 1 0 0 0 1 forward_v I I I I #
coedge $-1 $159 $160 $161 $162 reversed $57 $-1 #
coedge $-1 $163 $59 $164 $165 reversed $37 $-1 #
coedge $-1 $59 $163 $158 $166 reversed $37 $-1 #
coedge $-1 $167 $168 $59 $97 forward $169 $-1 #
edge $-1 $170 -38.009168910686441 $171 38.009168910686441 $96 $172 forward 7 unknown #
face $-1 $173 $174 $21 $-1 $175 reversed single #
loop $-1 $-1 $176 $60 #
plane-surface $-1 39.784680362710596 76.749983078787764 157.63892495115019 1 0 0 0 -0.68199836817093118 -0.7313536940579346 forward_v I I I I #
coedge $-1 $177 $178 $179 $180 reversed $61 $-1 #
coedge $-1 $103 $63 $181 $182 reversed $40 $-1 #
coedge $-1 $63 $102 $177 $183 reversed $40 $-1 #
coedge $-1 $179 $184 $63 $105 forward $174 $-1 #
edge $-1 $185 70.582189906570704 $186 74.189078664910156 $104 $187 forward 7 unknown #
loop $-1 $-1 $111 $64 #
plane-surface $-1 49.33917576959081 -17.5871232711186 56.474766155907801 0 0.68199836817093118 0.7313536940579346 1 0 0 forward_v I I I I #
loop $-1 $-1 $188 $42 #
coedge $-1 $109 $109 $110 $189 reversed $65 $-1 #
coedge $-1 $110 $110 $109 $189 forward $67 $-1 #
coedge $-1 $111 $111 $68 $112 forward $106 $-1 #
edge $-1 $190 2.3272997987989559e-015 $190 6.2831853071796031 $111 $191 forward 7 unknown #
loop $-1 $-1 $118 $69 #
plane-surface $-1 49.33917576959081 -17.5871232711186 56.474766155907801 0 0.68199836817093118 0.7313536940579346 1 0 0 forward_v I I I I #
loop $-1 $-1 $192 $45 #
coedge $-1 $116 $116 $117 $193 reversed $70 $-1 #
coedge $-1 $117 $117 $116 $193 forward $72 $-1 #
coedge $-1 $118 $118 $73 $119 forward $113 $-1 #
edge $-1 $194 2.3272997987989559e-015 $194 6.2831853071796031 $118 $195 forward 7 unknown #
face $-1 $196 $197 $18 $-1 $198 reversed single #
loop $-1 $-1 $199 $74 #
plane-surface $-1 -69.162266914883872 0 0 1 0 0 0 0 -1 forward_v I I I I #
coedge $-1 $200 $131 $201 $202 forward $75 $-1 #
coedge $-1 $203 $77 $200 $204 forward $49 $-1 #
coedge $-1 $77 $203 $205 $206 forward $49 $-1 #
coedge $-1 $134 $133 $77 $127 reversed $135 $-1 #
edge $-1 $207 -38.009168910686441 $208 38.009168910686441 $126 $209 forward 7 unknown #
coedge $-1 $79 $78 $210 $211 forward $31 $-1 #
coedge $-1 $212 $213 $78 $130 reversed $197 $-1 #
edge $-1 $137 -69.162266914883872 $214 69.162266914883872 $129 $215 forward 7 unknown #
coedge $-1 $123 $216 $79 $132 reversed $75 $-1 #
edge $-1 $217 -69.162266914883872 $136 69.162266914883872 $131 $218 forward 7 unknown #
coedge $-1 $126 $80 $216 $219 forward $135 $-1 #
coedge $-1 $80 $126 $212 $220 reversed $135 $-1 #
loop $-1 $-1 $133 $196 #
vertex $-1 $81 $221 #
vertex $-1 $81 $222 #
straight-curve $-1 69.162266914883872 0 8.2372725690043822 0 1 0 I I #
face $-1 $223 $224 $19 $-1 $225 reversed single #
loop $-1 $-1 $144 $82 #
plane-surface $-1 0 -38.009168910686441 0 0 1 0 0 0 1 forward_v I I I I #
coedge $-1 $226 $227 $143 $228 forward $83 $-1 #
coedge $-1 $151 $85 $142 $228 reversed $53 $-1 #
coedge $-1 $149 $229 $85 $145 forward $140 $-1 #
edge $-1 $230 -4.9253570565461224 $152 -1.6984739683703958 $144 $231 forward 7 unknown #
coedge $-1 $87 $86 $232 $233 reversed $34 $-1 #
coedge $-1 $234 $235 $86 $148 forward $236 $-1 #
edge $-1 $237 -35.971641730233806 $153 -30.409608639066334 $147 $238 forward 7 unknown #
coedge $-1 $239 $144 $87 $150 forward $140 $-1 #
edge $-1 $152 30.409608639066334 $240 35.971641730233806 $149 $241 forward 7 unknown #
coedge $-1 $88 $143 $234 $242 reversed $53 $-1 #
vertex $-1 $150 $243 #
vertex $-1 $148 $244 #
straight-curve $-1 -63.600233823716401 0 -5.0103894808286551 0 1 0 I I #
face $-1 $245 $246 $20 $-1 $247 reversed single #
loop $-1 $-1 $248 $90 #
plane-surface $-1 0 0 -8.2372725690043822 0 0 1 1 0 0 forward_v I I I I #
coedge $-1 $249 $250 $95 $166 forward $91 $-1 #
coedge $-1 $251 $93 $248 $252 reversed $57 $-1 #
coedge $-1 $93 $251 $163 $253 reversed $57 $-1 #
coedge $-1 $164 $254 $93 $162 forward $246 $-1 #
edge $-1 $255 -4.9253570565461224 $256 -1.6984739683703958 $161 $257 forward 7 unknown #
coedge $-1 $95 $94 $160 $253 forward $37 $-1 #
coedge $-1 $258 $161 $94 $165 forward $246 $-1 #
edge $-1 $256 30.409608639066334 $170 35.971641730233813 $164 $259 forward 7 unknown #
edge $-1 $171 -35.971641730233813 $260 -30.409608639066334 $158 $261 forward 7 unknown #
coedge $-1 $262 $96 $250 $263 forward $169 $-1 #
coedge $-1 $96 $262 $258 $264 reversed $169 $-1 #
loop $-1 $-1 $96 $245 #
vertex $-1 $264 $265 #
vertex $-1 $263 $266 #
straight-curve $-1 69.162266914883872 0 -5.0103894808286551 0 -1 0 I I #
face $-1 $-1 $267 $21 $-1 $268 forward single #
loop $-1 $-1 $104 $98 #
plane-surface $-1 0 38.009168910686441 0 0 -1 0 0 0 -1 forward_v I I I I #
coedge $-1 $269 $270 $271 $272 reversed $99 $-1 #
coedge $-1 $273 $101 $103 $183 forward $61 $-1 #
coedge $-1 $101 $273 $269 $274 forward $61 $-1 #
coedge $-1 $271 $104 $101 $180 forward $174 $-1 #
edge $-1 $186 -34.224083291675619 $275 -15.115092477915191 $179 $276 forward 7 unknown #
coedge $-1 $277 $278 $102 $182 forward $267 $-1 #
edge $-1 $279 -4.2337371877147731 $185 -0.36582262870744131 $181 $280 forward 7 unknown #
edge $-1 $186 -76.018337821372853 $279 -70.729631972980798 $103 $281 forward 7 unknown #
coedge $-1 $104 $271 $277 $282 reversed $174 $-1 #
vertex $-1 $282 $283 #
vertex $-1 $105 $284 #
straight-curve $-1 58.893671176471024 38.009168910686441 78.819462475575094 0 0 -1 I I #
coedge $-1 $188 $188 $-1 $285 reversed $108 $-1 #
edge $-1 $286 0 $286 6.2831853071796004 $109 $287 forward 7 unknown #
vertex $-1 $112 $288 #
ellipse-curve $-1 45.244392023785011 36.075211631182768 6.4338281898346699 0 0.68199836817093118 0.7313536940579346 1 0 0 1 I I #
coedge $-1 $192 $192 $-1 $289 reversed $115 $-1 #
edge $-1 $290 0 $290 6.2831853071796004 $116 $291 forward 7 unknown #
vertex $-1 $119 $292 #
ellipse-curve $-1 53.433959515396623 36.075211631182768 6.4338281898346699 0 0.68199836817093118 0.7313536940579346 1 0 0 1 I I #
face $-1 $-1 $135 $18 $-1 $293 reversed single #
loop $-1 $-1 $212 $120 #
plane-surface $-1 0 38.009168910686441 0 0 -1 0 0 0 -1 forward_v I I I I #
coedge $-1 $294 $210 $213 $295 forward $121 $-1 #
coedge $-1 $216 $123 $124 $204 reversed $75 $-1 #
coedge $-1 $210 $294 $123 $202 reversed $121 $-1 #
edge $-1 $217 -8.2372725690043822 $296 8.2372725690043822 $201 $297 forward 7 unknown #
coedge $-1 $125 $124 $294 $298 forward $49 $-1 #
edge $-1 $208 -69.162266914883872 $296 69.162266914883872 $200 $299 forward 7 unknown #
coedge $-1 $213 $212 $125 $206 reversed $197 $-1 #
edge $-1 $300 -69.162266914883872 $207 69.162266914883872 $205 $301 forward 7 unknown #
vertex $-1 $127 $302 #
vertex $-1 $219 $303 #
straight-curve $-1 69.162266914883872 0 -8.2372725690043822 0 -1 0 I I #
coedge $-1 $199 $201 $128 $211 reversed $121 $-1 #
edge $-1 $214 -38.009168910686441 $217 38.009168910686441 $210 $304 forward 7 unknown #
coedge $-1 $205 $129 $134 $220 forward $197 $-1 #
coedge $-1 $129 $205 $199 $295 reversed $197 $-1 #
vertex $-1 $130 $305 #
straight-curve $-1 0 38.009168910686441 8.2372725690043822 -1 0 0 I I #
coedge $-1 $131 $200 $133 $219 reversed $75 $-1 #
vertex $-1 $211 $306 #
straight-curve $-1 0 -38.009168910686441 8.2372725690043822 1 0 0 I I #
edge $-1 $136 -8.2372725690043822 $208 8.2372725690043822 $133 $307 forward 7 unknown #
edge $-1 $137 -8.2372725690043822 $207 8.2372725690043822 $134 $308 forward 7 unknown #
point $-1 69.162266914883872 -38.009168910686441 8.2372725690043822 #
point $-1 69.162266914883872 38.009168910686441 8.2372725690043822 #
face $-1 $-1 $236 $19 $-1 $309 reversed single #
loop $-1 $-1 $232 $139 #
plane-surface $-1 -69.162266914883872 0 0 1 0 0 0 0 -1 forward_v I I I I #
coedge $-1 $310 $142 $229 $311 forward $83 $-1 #
coedge $-1 $142 $310 $312 $313 forward $83 $-1 #
edge $-1 $314 -38.009168910686441 $230 38.009168910686441 $142 $315 forward 7 unknown #
coedge $-1 $144 $239 $226 $311 reversed $140 $-1 #
vertex $-1 $311 $316 #
straight-curve $-1 -63.600233823716401 -38.009168910686441 -3.3119155124582593 0 0 1 I I #
coedge $-1 $317 $318 $146 $233 forward $224 $-1 #
edge $-1 $240 -38.009168910686441 $237 38.009168910686441 $232 $319 forward 7 unknown #
coedge $-1 $312 $147 $151 $242 forward $236 $-1 #
coedge $-1 $147 $312 $317 $320 reversed $236 $-1 #
loop $-1 $-1 $234 $223 #
vertex $-1 $320 $321 #
straight-curve $-1 -33.190625184650067 38.009168910686441 -5.0103894808286551 1 0 0 I I #
coedge $-1 $229 $149 $318 $322 forward $140 $-1 #
vertex $-1 $322 $323 #
straight-curve $-1 -33.190625184650067 -38.009168910686441 -5.0103894808286551 -1 0 0 I I #
edge $-1 $153 1.6984739683703958 $314 4.9253570565461224 $234 $324 forward 7 unknown #
point $-1 -63.600233823716401 -38.009168910686441 -5.0103894808286551 #
point $-1 -63.600233823716401 38.009168910686441 -5.0103894808286551 #
face $-1 $-1 $169 $20 $-1 $325 reversed single #
loop $-1 $-1 $164 $155 #
plane-surface $-1 0 38.009168910686441 0 0 -1 0 0 0 -1 forward_v I I I I #
coedge $-1 $326 $327 $159 $252 forward $156 $-1 #
coedge $-1 $328 $158 $251 $329 forward $91 $-1 #
coedge $-1 $158 $328 $167 $263 reversed $91 $-1 #
coedge $-1 $160 $159 $249 $329 reversed $57 $-1 #
edge $-1 $330 -38.009168910686441 $255 38.009168910686441 $248 $331 forward 7 unknown #
edge $-1 $256 -38.009168910686441 $260 38.009168910686441 $160 $332 forward 7 unknown #
coedge $-1 $161 $258 $326 $333 reversed $246 $-1 #
vertex $-1 $333 $334 #
vertex $-1 $165 $335 #
straight-curve $-1 63.600233823716408 38.009168910686441 -3.3119155124582593 0 0 1 I I #
coedge $-1 $254 $164 $168 $264 forward $246 $-1 #
straight-curve $-1 33.190625184650074 38.009168910686441 -5.0103894808286551 1 0 0 I I #
vertex $-1 $166 $336 #
straight-curve $-1 33.190625184650074 -38.009168910686441 -5.0103894808286551 -1 0 0 I I #
coedge $-1 $168 $167 $337 $338 reversed $169 $-1 #
edge $-1 $171 5.0103894808286551 $339 8.2372725690043822 $167 $340 forward 7 unknown #
edge $-1 $170 5.0103894808286551 $341 8.2372725690043822 $168 $342 forward 7 unknown #
point $-1 69.162266914883887 38.009168910686441 -5.0103894808286551 #
point $-1 69.162266914883887 -38.009168910686441 -5.0103894808286551 #
loop $-1 $-1 $181 $173 #
plane-surface $-1 0 0 8.2372725690043822 0 0 1 1 0 0 forward_v I I I I #
coedge $-1 $270 $176 $178 $274 reversed $99 $-1 #
coedge $-1 $176 $269 $343 $344 reversed $99 $-1 #
coedge $-1 $184 $179 $176 $272 forward $174 $-1 #
edge $-1 $275 -74.189078664910156 $345 -70.582189906570704 $271 $346 forward 7 unknown #
coedge $-1 $178 $177 $278 $347 reversed $61 $-1 #
edge $-1 $348 70.729631972980798 $275 76.018337821372853 $269 $349 forward 7 unknown #
vertex $-1 $180 $350 #
straight-curve $-1 24.669587884795405 38.009168910686441 4.630383810664938 -1 0 0 I I #
coedge $-1 $343 $181 $184 $282 forward $267 $-1 #
coedge $-1 $181 $343 $273 $347 forward $267 $-1 #
vertex $-1 $182 $351 #
straight-curve $-1 58.893671176471024 38.374991539393882 8.2372725690043751 0 1 0 I I #
straight-curve $-1 58.893671176471024 -17.5871232711186 56.474766155907801 0 -0.7313536940579346 0.68199836817093118 I I #
edge $-1 $185 -58.893671176471024 $345 -39.784680362710596 $184 $352 forward 7 unknown #
point $-1 58.893671176471024 38.009168910686441 8.2372725690043822 #
point $-1 58.893671176471024 38.009168910686441 4.630383810664938 #
edge $-1 $353 1 $353 0 $188 $-1 forward 7 unknown #
vertex $-1 $189 $354 #
ellipse-curve $-1 45.244392023785011 34.211147974046348 4.4348646948601766 0 0.68199836817093118 0.7313536940579346 1 0 0 1 I I #
point $-1 46.244392023785011 36.075211631182754 6.4338281898346512 #
edge $-1 $355 1 $355 0 $192 $-1 forward 7 unknown #
vertex $-1 $193 $356 #
ellipse-curve $-1 53.433959515396623 34.211147974046348 4.4348646948601766 0 0.68199836817093118 0.7313536940579346 1 0 0 1 I I #
point $-1 54.433959515396623 36.075211631182754 6.4338281898346512 #
plane-surface $-1 69.162266914883872 0 0 -1 0 0 0 0 1 forward_v I I I I #
coedge $-1 $201 $199 $203 $298 reversed $121 $-1 #
edge $-1 $214 -8.2372725690043822 $300 8.2372725690043822 $213 $357 forward 7 unknown #
vertex $-1 $298 $358 #
straight-curve $-1 -69.162266914883872 -38.009168910686441 0 0 0 -1 I I #
edge $-1 $296 -38.009168910686441 $300 38.009168910686441 $294 $359 forward 7 unknown #
straight-curve $-1 0 -38.009168910686441 -8.2372725690043822 -1 0 0 I I #
vertex $-1 $206 $360 #
straight-curve $-1 0 38.009168910686441 -8.2372725690043822 1 0 0 I I #
point $-1 69.162266914883872 38.009168910686441 -8.2372725690043822 #
point $-1 69.162266914883872 -38.009168910686441 -8.2372725690043822 #
straight-curve $-1 -69.162266914883872 0 8.2372725690043822 0 -1 0 I I #
point $-1 -69.162266914883872 38.009168910686441 8.2372725690043822 #
point $-1 -69.162266914883872 -38.009168910686441 8.2372725690043822 #
straight-curve $-1 69.162266914883872 -38.009168910686441 0 0 0 -1 I I #
straight-curve $-1 69.162266914883872 38.009168910686441 0 0 0 -1 I I #
plane-surface $-1 0 38.009168910686441 0 0 -1 0 0 0 -1 forward_v I I I I #
coedge $-1 $227 $226 $361 $362 forward $83 $-1 #
edge $-1 $230 63.600233823716401 $363 69.162266914883872 $229 $364 forward 7 unknown #
coedge $-1 $235 $234 $227 $313 reversed $236 $-1 #
edge $-1 $365 -69.162266914883872 $314 -63.600233823716401 $312 $366 forward 7 unknown #
vertex $-1 $242 $367 #
straight-curve $-1 -63.600233823716401 0 -8.2372725690043822 0 -1 0 I I #
point $-1 -63.600233823716401 -38.009168910686441 -8.2372725690043822 #
coedge $-1 $361 $232 $235 $320 forward $224 $-1 #
coedge $-1 $232 $361 $239 $322 reversed $224 $-1 #
straight-curve $-1 -69.162266914883872 0 -5.0103894808286551 0 1 0 I I #
edge $-1 $237 5.0103894808286551 $365 8.2372725690043822 $235 $368 forward 7 unknown #
point $-1 -69.162266914883872 38.009168910686441 -5.0103894808286551 #
edge $-1 $240 5.0103894808286551 $363 8.2372725690043822 $318 $369 forward 7 unknown #
point $-1 -69.162266914883872 -38.009168910686441 -5.0103894808286551 #
straight-curve $-1 -63.600233823716401 38.009168910686441 -3.3119155124582593 0 0 -1 I I #
plane-surface $-1 69.162266914883872 0 0 -1 0 0 0 0 1 forward_v I I I I #
coedge $-1 $337 $248 $254 $333 forward $156 $-1 #
coedge $-1 $248 $337 $328 $370 forward $156 $-1 #
coedge $-1 $250 $249 $327 $370 reversed $91 $-1 #
edge $-1 $260 1.6984739683703958 $330 4.9253570565461224 $249 $371 forward 7 unknown #
vertex $-1 $252 $372 #
straight-curve $-1 63.600233823716408 0 -8.2372725690043822 0 1 0 I I #
straight-curve $-1 63.600233823716408 0 -5.0103894808286551 0 -1 0 I I #
edge $-1 $255 63.600233823716408 $341 69.162266914883872 $254 $373 forward 7 unknown #
point $-1 63.600233823716408 38.009168910686441 -8.2372725690043822 #
point $-1 63.600233823716408 38.009168910686441 -5.0103894808286551 #
point $-1 63.600233823716408 -38.009168910686441 -5.0103894808286551 #
coedge $-1 $327 $326 $262 $338 forward $156 $-1 #
edge $-1 $341 -38.009168910686441 $339 38.009168910686441 $262 $374 forward 7 unknown #
vertex $-1 $263 $375 #
straight-curve $-1 69.162266914883872 -38.009168910686441 0 0 0 -1 I I #
vertex $-1 $338 $376 #
straight-curve $-1 69.162266914883872 38.009168910686441 0 0 0 -1 I I #
coedge $-1 $278 $277 $270 $344 forward $267 $-1 #
edge $-1 $345 0.36582262870744131 $348 4.2337371877147731 $343 $377 forward 7 unknown #
vertex $-1 $344 $378 #
straight-curve $-1 39.784680362710596 38.009168910686441 78.819462475575094 0 0 1 I I #
edge $-1 $348 15.115092477915191 $279 34.224083291675619 $278 $379 forward 7 unknown #
vertex $-1 $347 $380 #
straight-curve $-1 39.784680362710596 -17.5871232711186 56.474766155907801 0 0.7313536940579346 -0.68199836817093118 I I #
point $-1 39.784680362710596 38.009168910686441 4.630383810664938 #
point $-1 58.893671176471024 34.141254351679109 8.2372725690043751 #
straight-curve $-1 0 38.009168910686441 8.2372725690043822 -1 0 0 I I #
vertex $-1 $285 $381 #
point $-1 46.244392023785011 34.211147974046348 4.4348646948601766 #
vertex $-1 $289 $382 #
point $-1 54.433959515396623 34.211147974046348 4.4348646948601766 #
straight-curve $-1 -69.162266914883872 38.009168910686441 0 0 0 -1 I I #
point $-1 -69.162266914883872 -38.009168910686441 -8.2372725690043822 #
straight-curve $-1 -69.162266914883872 0 -8.2372725690043822 0 1 0 I I #
point $-1 -69.162266914883872 38.009168910686441 -8.2372725690043822 #
coedge $-1 $318 $317 $310 $362 reversed $224 $-1 #
edge $-1 $363 -38.009168910686441 $365 38.009168910686441 $361 $383 forward 7 unknown #
vertex $-1 $362 $384 #
straight-curve $-1 0 -38.009168910686441 -8.2372725690043822 -1 0 0 I I #
vertex $-1 $313 $385 #
straight-curve $-1 0 38.009168910686441 -8.2372725690043822 1 0 0 I I #
point $-1 -63.600233823716401 38.009168910686441 -8.2372725690043822 #
straight-curve $-1 -69.162266914883872 38.009168910686441 0 0 0 -1 I I #
straight-curve $-1 -69.162266914883872 -38.009168910686441 0 0 0 -1 I I #
edge $-1 $339 -69.162266914883872 $330 -63.600233823716408 $328 $386 forward 7 unknown #
straight-curve $-1 63.600233823716408 -38.009168910686441 -3.3119155124582593 0 0 -1 I I #
point $-1 63.600233823716408 -38.009168910686441 -8.2372725690043822 #
straight-curve $-1 0 38.009168910686441 -8.2372725690043822 1 0 0 I I #
straight-curve $-1 69.162266914883872 0 -8.2372725690043822 0 -1 0 I I #
point $-1 69.162266914883872 -38.009168910686441 -8.2372725690043822 #
point $-1 69.162266914883872 38.009168910686441 -8.2372725690043822 #
straight-curve $-1 39.784680362710596 38.374991539393882 8.2372725690043751 0 -1 0 I I #
point $-1 39.784680362710596 38.009168910686441 8.2372725690043822 #
straight-curve $-1 24.669587884795405 34.141254351679102 8.2372725690043893 1 0 0 I I #
point $-1 39.784680362710596 34.141254351679109 8.2372725690043751 #
point $-1 45.244392023785011 33.529149605875411 3.7035110008022416 #
point $-1 53.433959515396623 33.529149605875411 3.7035110008022416 #
straight-curve $-1 -69.162266914883872 0 -8.2372725690043822 0 1 0 I I #
point $-1 -69.162266914883872 -38.009168910686441 -8.2372725690043822 #
point $-1 -69.162266914883872 38.009168910686441 -8.2372725690043822 #
straight-curve $-1 0 -38.009168910686441 -8.2372725690043822 -1 0 0 I I #
End-of-ACIS-data 