500 0 12 0           
7 Unknown 11 ACIS 5.0 NT 24 Fri Mar 26 03:07:56 1999 
-1 9.9999999999999995e-007 1e-010 
body $-1 $12 $-1 $13 #
body $-1 $14 $-1 $15 #
body $-1 $16 $-1 $17 #
body $-1 $18 $-1 $19 #
body $-1 $20 $-1 $21 #
body $-1 $22 $-1 $23 #
body $-1 $24 $-1 $25 #
body $-1 $26 $-1 $27 #
body $-1 $28 $-1 $29 #
body $-1 $30 $-1 $31 #
body $-1 $32 $-1 $33 #
body $-1 $34 $-1 $35 #
lump $-1 $-1 $36 $0 #
transform $-1 1 0 0 0 1 0 0 0 1 75.024262215033417 47.381804397843041 16.684057770374867 1 rotate no_reflect no_shear #
lump $-1 $-1 $37 $1 #
transform $-1 1 0 0 0 1 0 0 0 1 75.024262215033417 47.381804397843041 16.684057770374867 1 rotate no_reflect no_shear #
lump $-1 $-1 $38 $2 #
transform $-1 1 0 0 0 1 0 0 0 1 75.024262215033417 47.381804397843041 16.684057770374867 1 rotate no_reflect no_shear #
lump $-1 $-1 $39 $3 #
transform $-1 1 0 0 0 1 0 0 0 1 75.024262215033417 47.381804397843041 16.684057770374867 1 rotate no_reflect no_shear #
lump $-1 $-1 $40 $4 #
transform $-1 1 0 0 0 1 0 0 0 1 75.024262215033417 47.381804397843041 16.684057770374867 1 rotate no_reflect no_shear #
lump $-1 $-1 $41 $5 #
transform $-1 1 0 0 0 1 0 0 0 1 75.024262215033417 47.381804397843041 16.684057770374867 1 rotate no_reflect no_shear #
lump $-1 $-1 $42 $6 #
transform $-1 1 0 0 0 1 0 0 0 1 75.024262215033417 47.381804397843041 16.684057770374867 1 rotate no_reflect no_shear #
lump $-1 $-1 $43 $7 #
transform $-1 1 0 0 0 1 0 0 0 1 75.024262215033417 47.381804397843041 16.684057770374867 1 rotate no_reflect no_shear #
lump $-1 $-1 $44 $8 #
transform $-1 1 0 0 0 1 0 0 0 1 75.024262215033417 47.381804397843041 16.684057770374867 1 rotate no_reflect no_shear #
lump $-1 $-1 $45 $9 #
transform $-1 1 0 0 0 1 0 0 0 1 75.024262215033417 47.381804397843041 16.684057770374867 1 rotate no_reflect no_shear #
lump $-1 $-1 $46 $10 #
transform $-1 1 0 0 0 1 0 0 0 1 75.024262215033417 47.381804397843041 16.684057770374867 1 rotate no_reflect no_shear #
lump $-1 $-1 $47 $11 #
transform $-1 1 0 0 0 1 0 0 0 1 75.024262215033417 47.381804397843041 16.684057770374867 1 rotate no_reflect no_shear #
shell $-1 $-1 $-1 $48 $-1 $12 #
shell $-1 $-1 $-1 $49 $-1 $14 #
shell $-1 $-1 $-1 $50 $-1 $16 #
shell $-1 $-1 $-1 $51 $-1 $18 #
shell $-1 $-1 $-1 $52 $-1 $20 #
shell $-1 $-1 $-1 $53 $-1 $22 #
shell $-1 $-1 $-1 $54 $-1 $24 #
shell $-1 $-1 $-1 $55 $-1 $26 #
shell $-1 $-1 $-1 $56 $-1 $28 #
shell $-1 $-1 $-1 $57 $-1 $30 #
shell $-1 $-1 $-1 $58 $-1 $32 #
shell $-1 $-1 $-1 $59 $-1 $34 #
face $-1 $60 $61 $36 $-1 $62 forward single #
face $-1 $63 $64 $37 $-1 $65 reversed single #
face $-1 $66 $67 $38 $-1 $68 reversed single #
face $-1 $69 $70 $39 $-1 $71 forward single #
face $-1 $72 $73 $40 $-1 $74 forward single #
face $-1 $75 $76 $41 $-1 $77 forward single #
face $-1 $78 $79 $42 $-1 $80 reversed single #
face $-1 $81 $82 $43 $-1 $83 forward single #
face $-1 $84 $85 $44 $-1 $86 forward single #
face $-1 $87 $88 $45 $-1 $89 forward single #
face $-1 $90 $91 $46 $-1 $92 reversed single #
face $-1 $93 $94 $47 $-1 $95 forward single #
face $-1 $96 $97 $36 $-1 $98 reversed single #
loop $-1 $-1 $99 $48 #
plane-surface $-1 0 0 16.684057770374867 0 0 1 1 0 0 forward_v I I I I #
face $-1 $100 $101 $37 $-1 $102 reversed single #
loop $-1 $-1 $103 $49 #
plane-surface $-1 -64.998766228035166 -36.412497477342427 0 0 1 0 0 0 1 forward_v I I I I #
face $-1 $104 $105 $38 $-1 $106 reversed single #
loop $-1 $-1 $107 $50 #
plane-surface $-1 -32.137504664720865 71.238002639078942 189.25052559776015 1 0 0 0 -0.64278761758704617 -0.76604443648966558 forward_v I I I I #
face $-1 $108 $109 $39 $-1 $110 forward single #
loop $-1 $111 $112 $51 #
cone-surface $-1 -25.978501115089308 45.092503747621144 14.647181745793347 0 -0.64278761758704617 -0.76604443648966558 1 0 0 1 I I 0 1 1 forward I I I I #
face $-1 $113 $114 $40 $-1 $115 forward single #
loop $-1 $116 $117 $52 #
cone-surface $-1 -16.73999579064197 45.092503747621144 14.647181745793347 0 -0.64278761758704617 -0.76604443648966558 1 0 0 1 I I 0 1 1 forward I I I I #
face $-1 $118 $119 $41 $-1 $120 forward single #
loop $-1 $121 $122 $53 #
cone-surface $-1 -7.5014904661946389 45.092503747621144 14.647181745793347 0 -0.64278761758704617 -0.76604443648966558 1 0 0 1 I I 0 1 1 forward I I I I #
face $-1 $123 $124 $42 $-1 $125 reversed single #
loop $-1 $-1 $126 $54 #
plane-surface $-1 21.393478890559564 71.238002639078942 189.25052559776015 1 0 0 0 -0.64278761758704617 -0.76604443648966558 forward_v I I I I #
face $-1 $127 $128 $43 $-1 $129 forward single #
loop $-1 $130 $131 $55 #
cone-surface $-1 27.552482440191113 45.092503747621144 14.647181745793347 0 -0.64278761758704617 -0.76604443648966558 1 0 0 1 I I 0 1 1 forward I I I I #
face $-1 $132 $133 $44 $-1 $134 forward single #
loop $-1 $135 $136 $56 #
cone-surface $-1 36.790987764638459 45.092503747621144 14.647181745793347 0 -0.64278761758704617 -0.76604443648966558 1 0 0 1 I I 0 1 1 forward I I I I #
face $-1 $137 $138 $45 $-1 $139 forward single #
loop $-1 $140 $141 $57 #
cone-surface $-1 46.02949308908579 45.092503747621144 14.647181745793347 0 -0.64278761758704617 -0.76604443648966558 1 0 0 1 I I 0 1 1 forward I I I I #
face $-1 $142 $143 $46 $-1 $144 reversed single #
loop $-1 $-1 $145 $58 #
plane-surface $-1 -37.938741443569057 -149.71465320560472 110.42510505470442 -1 0 0 0 -0.68199836817093118 0.7313536940579346 forward_v I I I I #
face $-1 $146 $147 $47 $-1 $148 forward single #
loop $-1 $149 $150 $59 #
cone-surface $-1 -46.456005842302986 -37.223979318517117 6.9907332111902551 0 0.68199836817093118 -0.7313536940579346 1.5 0 0 1 I I 0 1 1.5 forward I I I I #
face $-1 $151 $152 $36 $-1 $153 reversed single #
loop $-1 $-1 $154 $60 #
plane-surface $-1 0 0 -16.684057770374867 0 0 1 1 0 0 forward_v I I I I #
coedge $-1 $155 $156 $157 $158 forward $61 $-1 #
face $-1 $159 $160 $37 $-1 $161 reversed single #
loop $-1 $-1 $162 $63 #
plane-surface $-1 -64.998766228035166 -27.651164976508042 0 0 -1 0 0 0 -1 forward_v I I I I #
coedge $-1 $163 $164 $165 $166 reversed $64 $-1 #
face $-1 $167 $168 $38 $-1 $169 reversed single #
loop $-1 $-1 $170 $66 #
plane-surface $-1 -16.73999579064197 -25.211330901775412 74.306688254623779 0 0.64278761758704617 0.76604443648966558 1 0 0 forward_v I I I I #
coedge $-1 $171 $172 $173 $174 reversed $67 $-1 #
face $-1 $-1 $175 $39 $-1 $176 forward single #
loop $-1 $177 $178 $69 #
cone-surface $-1 -25.978501115089308 44.442389210414703 13.872405426707505 0 -0.64278761758704617 -0.76604443648966558 0.5 0 0 1 I I -0.70710678118654746 0.70710678118654746 0.5 forward I I I I #
loop $-1 $-1 $179 $51 #
coedge $-1 $112 $112 $180 $181 reversed $70 $-1 #
face $-1 $-1 $182 $40 $-1 $183 forward single #
loop $-1 $184 $185 $72 #
cone-surface $-1 -16.73999579064197 44.442389210414703 13.872405426707505 0 -0.64278761758704617 -0.76604443648966558 0.5 0 0 1 I I -0.70710678118654746 0.70710678118654746 0.5 forward I I I I #
loop $-1 $-1 $186 $52 #
coedge $-1 $117 $117 $187 $188 reversed $73 $-1 #
face $-1 $-1 $189 $41 $-1 $190 forward single #
loop $-1 $191 $192 $75 #
cone-surface $-1 -7.5014904661946389 44.442389210414703 13.872405426707505 0 -0.64278761758704617 -0.76604443648966558 0.5 0 0 1 I I -0.70710678118654746 0.70710678118654746 0.5 forward I I I I #
loop $-1 $-1 $193 $53 #
coedge $-1 $122 $122 $194 $195 reversed $76 $-1 #
face $-1 $196 $197 $42 $-1 $198 reversed single #
loop $-1 $-1 $199 $78 #
plane-surface $-1 36.790987764638459 -25.211330901775412 74.306688254623779 0 0.64278761758704617 0.76604443648966558 1 0 0 forward_v I I I I #
coedge $-1 $200 $201 $202 $203 reversed $79 $-1 #
face $-1 $-1 $204 $43 $-1 $205 forward single #
loop $-1 $206 $207 $81 #
cone-surface $-1 27.552482440191113 44.442389210414703 13.872405426707505 0 -0.64278761758704617 -0.76604443648966558 0.5 0 0 1 I I -0.70710678118654746 0.70710678118654746 0.5 forward I I I I #
loop $-1 $-1 $208 $55 #
coedge $-1 $131 $131 $209 $210 reversed $82 $-1 #
face $-1 $-1 $211 $44 $-1 $212 forward single #
loop $-1 $213 $214 $84 #
cone-surface $-1 36.790987764638459 44.442389210414703 13.872405426707505 0 -0.64278761758704617 -0.76604443648966558 0.5 0 0 1 I I -0.70710678118654746 0.70710678118654746 0.5 forward I I I I #
loop $-1 $-1 $215 $56 #
coedge $-1 $136 $136 $216 $217 reversed $85 $-1 #
face $-1 $-1 $218 $45 $-1 $219 forward single #
loop $-1 $220 $221 $87 #
cone-surface $-1 46.02949308908579 44.442389210414703 13.872405426707505 0 -0.64278761758704617 -0.76604443648966558 0.5 0 0 1 I I -0.70710678118654746 0.70710678118654746 0.5 forward I I I I #
loop $-1 $-1 $222 $57 #
coedge $-1 $141 $141 $223 $224 reversed $88 $-1 #
face $-1 $225 $226 $46 $-1 $227 reversed single #
loop $-1 $-1 $228 $90 #
plane-surface $-1 -46.456005842302986 -47.381804397843041 0.68656242483278618 0 -0.68199836817093118 0.7313536940579346 1 0 0 forward_v I I I I #
coedge $-1 $229 $230 $231 $232 reversed $91 $-1 #
face $-1 $-1 $233 $47 $-1 $234 forward single #
loop $-1 $235 $236 $93 #
cone-surface $-1 -46.456005842302986 -35.132261996063114 4.747641054233231 0 0.68199836817093118 -0.7313536940579346 0.75 0 0 1 I I -0.70710678118654757 0.70710678118654757 0.75 forward I I I I #
loop $-1 $-1 $237 $59 #
coedge $-1 $150 $150 $238 $239 reversed $94 $-1 #
face $-1 $240 $241 $36 $-1 $242 reversed single #
loop $-1 $-1 $243 $96 #
plane-surface $-1 0 -47.381804397843041 0 0 1 0 0 0 1 forward_v I I I I #
coedge $-1 $244 $245 $246 $247 forward $97 $-1 #
coedge $-1 $248 $99 $249 $250 forward $61 $-1 #
coedge $-1 $99 $248 $251 $252 forward $61 $-1 #
coedge $-1 $253 $254 $99 $158 reversed $255 $-1 #
edge $-1 $256 -47.381804397843041 $257 47.381804397843041 $157 $258 forward 7 unknown #
face $-1 $259 $260 $37 $-1 $261 reversed single #
loop $-1 $-1 $262 $100 #
plane-surface $-1 -54.973270241036914 -32.031831226925235 0 -1 0 0 0 0 1 forward_v I I I I #
coedge $-1 $263 $264 $265 $266 forward $101 $-1 #
coedge $-1 $267 $103 $268 $269 reversed $64 $-1 #
coedge $-1 $103 $267 $270 $271 reversed $64 $-1 #
coedge $-1 $272 $273 $103 $166 forward $274 $-1 #
edge $-1 $275 -16.684057770374867 $276 16.684057770374867 $165 $277 forward 7 unknown #
face $-1 $278 $279 $38 $-1 $280 reversed single #
loop $-1 $-1 $281 $104 #
plane-surface $-1 -1.3424869165630753 71.238002639078942 189.25052559776015 -1 0 0 0 0.64278761758704617 0.76604443648966558 forward_v I I I I #
coedge $-1 $282 $283 $284 $285 reversed $105 $-1 #
coedge $-1 $172 $107 $286 $287 reversed $67 $-1 #
coedge $-1 $107 $171 $282 $288 reversed $67 $-1 #
coedge $-1 $284 $289 $107 $174 forward $290 $-1 #
edge $-1 $291 -11.76280307830357 $292 -7.8416432346856411 $173 $293 forward 7 unknown #
loop $-1 $-1 $180 $108 #
plane-surface $-1 -16.73999579064197 -25.211330901775412 74.306688254623779 0 0.64278761758704617 0.76604443648966558 1 0 0 forward_v I I I I #
loop $-1 $-1 $294 $69 #
coedge $-1 $178 $178 $179 $295 reversed $109 $-1 #
coedge $-1 $179 $179 $178 $295 forward $111 $-1 #
coedge $-1 $180 $180 $112 $181 forward $175 $-1 #
edge $-1 $296 -1.4855569383420891e-015 $296 6.2831853071795987 $180 $297 forward 7 unknown #
loop $-1 $-1 $187 $113 #
plane-surface $-1 -16.73999579064197 -25.211330901775412 74.306688254623779 0 0.64278761758704617 0.76604443648966558 1 0 0 forward_v I I I I #
loop $-1 $-1 $298 $72 #
coedge $-1 $185 $185 $186 $299 reversed $114 $-1 #
coedge $-1 $186 $186 $185 $299 forward $116 $-1 #
coedge $-1 $187 $187 $117 $188 forward $182 $-1 #
edge $-1 $300 -1.4855569383420891e-015 $300 6.2831853071795987 $187 $301 forward 7 unknown #
loop $-1 $-1 $194 $118 #
plane-surface $-1 -16.73999579064197 -25.211330901775412 74.306688254623779 0 0.64278761758704617 0.76604443648966558 1 0 0 forward_v I I I I #
loop $-1 $-1 $302 $75 #
coedge $-1 $192 $192 $193 $303 reversed $119 $-1 #
coedge $-1 $193 $193 $192 $303 forward $121 $-1 #
coedge $-1 $194 $194 $122 $195 forward $189 $-1 #
edge $-1 $304 -1.4855569383420891e-015 $304 6.2831853071795987 $194 $305 forward 7 unknown #
face $-1 $306 $307 $42 $-1 $308 forward single #
loop $-1 $-1 $309 $123 #
plane-surface $-1 52.188496638717353 71.238002639078942 189.25052559776015 -1 0 0 0 0.64278761758704617 0.76604443648966558 forward_v I I I I #
coedge $-1 $310 $311 $312 $313 reversed $124 $-1 #
coedge $-1 $201 $126 $314 $315 reversed $79 $-1 #
coedge $-1 $126 $200 $310 $316 reversed $79 $-1 #
coedge $-1 $312 $317 $126 $203 forward $307 $-1 #
edge $-1 $318 -11.76280307830357 $319 -7.8416432346856411 $202 $320 forward 7 unknown #
loop $-1 $-1 $209 $127 #
plane-surface $-1 36.790987764638459 -25.211330901775412 74.306688254623779 0 0.64278761758704617 0.76604443648966558 1 0 0 forward_v I I I I #
loop $-1 $-1 $321 $81 #
coedge $-1 $207 $207 $208 $322 reversed $128 $-1 #
coedge $-1 $208 $208 $207 $322 forward $130 $-1 #
coedge $-1 $209 $209 $131 $210 forward $204 $-1 #
edge $-1 $323 -1.4855569383420891e-015 $323 6.2831853071795987 $209 $324 forward 7 unknown #
loop $-1 $-1 $216 $132 #
plane-surface $-1 36.790987764638459 -25.211330901775412 74.306688254623779 0 0.64278761758704617 0.76604443648966558 1 0 0 forward_v I I I I #
loop $-1 $-1 $325 $84 #
coedge $-1 $214 $214 $215 $326 reversed $133 $-1 #
coedge $-1 $215 $215 $214 $326 forward $135 $-1 #
coedge $-1 $216 $216 $136 $217 forward $211 $-1 #
edge $-1 $327 -1.4855569383420891e-015 $327 6.2831853071795987 $216 $328 forward 7 unknown #
loop $-1 $-1 $223 $137 #
plane-surface $-1 36.790987764638459 -25.211330901775412 74.306688254623779 0 0.64278761758704617 0.76604443648966558 1 0 0 forward_v I I I I #
loop $-1 $-1 $329 $87 #
coedge $-1 $221 $221 $222 $330 reversed $138 $-1 #
coedge $-1 $222 $222 $221 $330 forward $140 $-1 #
coedge $-1 $223 $223 $141 $224 forward $218 $-1 #
edge $-1 $331 -1.4855569383420891e-015 $331 6.2831853071795987 $223 $332 forward 7 unknown #
face $-1 $333 $334 $46 $-1 $335 forward single #
loop $-1 $-1 $336 $142 #
plane-surface $-1 0 -47.381804397843041 0 0 1 0 0 0 1 forward_v I I I I #
coedge $-1 $337 $338 $339 $340 reversed $143 $-1 #
coedge $-1 $230 $145 $341 $342 reversed $91 $-1 #
coedge $-1 $145 $229 $337 $343 reversed $91 $-1 #
coedge $-1 $339 $344 $145 $232 forward $334 $-1 #
edge $-1 $345 27.475522204959319 $346 44.630735270959576 $231 $347 forward 7 unknown #
loop $-1 $-1 $238 $146 #
plane-surface $-1 -46.456005842302986 -47.381804397843041 0.68656242483278618 0 -0.68199836817093118 0.7313536940579346 1 0 0 forward_v I I I I #
loop $-1 $-1 $348 $93 #
coedge $-1 $236 $236 $237 $349 reversed $147 $-1 #
coedge $-1 $237 $237 $236 $349 forward $149 $-1 #
coedge $-1 $238 $238 $150 $239 forward $233 $-1 #
edge $-1 $350 2.4229449315204878e-015 $350 6.2831853071796031 $238 $351 forward 7 unknown #
face $-1 $352 $353 $36 $-1 $354 reversed single #
loop $-1 $-1 $355 $151 #
plane-surface $-1 -75.024262215033417 0 0 1 0 0 0 0 -1 forward_v I I I I #
coedge $-1 $356 $251 $357 $358 forward $152 $-1 #
coedge $-1 $359 $154 $356 $360 forward $97 $-1 #
coedge $-1 $154 $359 $361 $362 forward $97 $-1 #
coedge $-1 $254 $253 $154 $247 reversed $255 $-1 #
edge $-1 $363 -47.381804397843041 $364 47.381804397843041 $246 $365 forward 7 unknown #
coedge $-1 $156 $155 $366 $367 forward $61 $-1 #
coedge $-1 $368 $369 $155 $250 reversed $353 $-1 #
edge $-1 $257 -75.024262215033417 $370 75.024262215033417 $249 $371 forward 7 unknown #
coedge $-1 $243 $372 $156 $252 reversed $152 $-1 #
edge $-1 $373 -75.024262215033417 $256 75.024262215033417 $251 $374 forward 7 unknown #
coedge $-1 $246 $157 $372 $375 forward $255 $-1 #
coedge $-1 $157 $246 $368 $376 reversed $255 $-1 #
loop $-1 $-1 $253 $352 #
vertex $-1 $158 $377 #
vertex $-1 $158 $378 #
straight-curve $-1 75.024262215033417 0 16.684057770374867 0 1 0 I I #
face $-1 $379 $380 $37 $-1 $381 forward single #
loop $-1 $-1 $382 $159 #
plane-surface $-1 0 0 -16.684057770374867 0 0 1 1 0 0 forward_v I I I I #
coedge $-1 $383 $384 $267 $385 forward $160 $-1 #
coedge $-1 $386 $162 $382 $387 reversed $101 $-1 #
coedge $-1 $162 $386 $388 $389 reversed $101 $-1 #
coedge $-1 $384 $383 $162 $266 reversed $160 $-1 #
edge $-1 $390 -16.684057770374867 $391 16.684057770374867 $265 $392 forward 7 unknown #
coedge $-1 $164 $163 $262 $385 reversed $64 $-1 #
coedge $-1 $393 $394 $163 $269 forward $260 $-1 #
edge $-1 $395 22.473887127019331 $275 42.524879101015834 $268 $396 forward 7 unknown #
coedge $-1 $397 $398 $164 $271 forward $380 $-1 #
edge $-1 $276 -42.524879101015834 $399 -22.473887127019331 $270 $400 forward 7 unknown #
coedge $-1 $401 $165 $398 $402 reversed $274 $-1 #
coedge $-1 $165 $401 $393 $403 reversed $274 $-1 #
loop $-1 $-1 $401 $379 #
vertex $-1 $403 $404 #
vertex $-1 $166 $405 #
straight-curve $-1 -75.024262215033417 -36.412497477342427 0 0 0 1 I I #
face $-1 $-1 $290 $38 $-1 $406 forward single #
loop $-1 $-1 $407 $167 #
plane-surface $-1 0 47.381804397843041 0 0 -1 0 0 0 -1 forward_v I I I I #
coedge $-1 $408 $409 $410 $411 reversed $168 $-1 #
coedge $-1 $412 $170 $172 $288 forward $105 $-1 #
coedge $-1 $170 $412 $408 $413 forward $105 $-1 #
coedge $-1 $410 $173 $170 $285 forward $290 $-1 #
edge $-1 $292 -23.76750676939988 $414 7.0275109787579098 $284 $415 forward 7 unknown #
coedge $-1 $416 $417 $171 $287 forward $279 $-1 #
edge $-1 $418 -81.231448875986189 $291 -77.941205028505209 $286 $419 forward 7 unknown #
edge $-1 $292 89.64489810889313 $418 94.763608795686068 $172 $420 forward 7 unknown #
coedge $-1 $173 $410 $416 $421 forward $290 $-1 #
loop $-1 $-1 $410 $278 #
vertex $-1 $287 $422 #
vertex $-1 $174 $423 #
straight-curve $-1 -32.137504664720865 35.619001319539471 16.684057770374864 0 -1 0 I I #
coedge $-1 $294 $294 $-1 $424 reversed $177 $-1 #
edge $-1 $425 0 $425 6.2831853071796004 $178 $426 forward 7 unknown #
vertex $-1 $181 $427 #
ellipse-curve $-1 -25.978501115089308 45.421224476034084 15.038935846634377 0 0.64278761758704617 0.76604443648966558 1 0 0 1 I I #
coedge $-1 $298 $298 $-1 $428 reversed $184 $-1 #
edge $-1 $429 0 $429 6.2831853071796004 $185 $430 forward 7 unknown #
vertex $-1 $188 $431 #
ellipse-curve $-1 -16.73999579064197 45.421224476034084 15.038935846634377 0 0.64278761758704617 0.76604443648966558 1 0 0 1 I I #
coedge $-1 $302 $302 $-1 $432 reversed $191 $-1 #
edge $-1 $433 0 $433 6.2831853071796004 $192 $434 forward 7 unknown #
vertex $-1 $195 $435 #
ellipse-curve $-1 -7.5014904661946389 45.421224476034084 15.038935846634377 0 0.64278761758704617 0.76604443648966558 1 0 0 1 I I #
face $-1 $-1 $436 $42 $-1 $437 reversed single #
loop $-1 $-1 $202 $196 #
plane-surface $-1 0 0 16.684057770374867 0 0 1 1 0 0 forward_v I I I I #
coedge $-1 $438 $439 $440 $441 reversed $197 $-1 #
coedge $-1 $442 $199 $201 $316 forward $124 $-1 #
coedge $-1 $199 $442 $438 $443 forward $124 $-1 #
coedge $-1 $440 $202 $199 $313 forward $307 $-1 #
edge $-1 $319 2.9979850082403345 $444 33.793002756398124 $312 $445 forward 7 unknown #
coedge $-1 $446 $447 $200 $315 forward $436 $-1 #
edge $-1 $448 -81.231448875986189 $318 -77.941205028505209 $314 $449 forward 7 unknown #
edge $-1 $319 89.64489810889313 $448 94.763608795686068 $201 $450 forward 7 unknown #
coedge $-1 $202 $440 $446 $451 forward $307 $-1 #
vertex $-1 $315 $452 #
vertex $-1 $203 $453 #
straight-curve $-1 21.393478890559564 35.619001319539471 16.684057770374864 0 -1 0 I I #
coedge $-1 $321 $321 $-1 $454 reversed $206 $-1 #
edge $-1 $455 0 $455 6.2831853071796004 $207 $456 forward 7 unknown #
vertex $-1 $210 $457 #
ellipse-curve $-1 27.552482440191113 45.421224476034084 15.038935846634377 0 0.64278761758704617 0.76604443648966558 1 0 0 1 I I #
coedge $-1 $325 $325 $-1 $458 reversed $213 $-1 #
edge $-1 $459 0 $459 6.2831853071796004 $214 $460 forward 7 unknown #
vertex $-1 $217 $461 #
ellipse-curve $-1 36.790987764638459 45.421224476034084 15.038935846634377 0 0.64278761758704617 0.76604443648966558 1 0 0 1 I I #
coedge $-1 $329 $329 $-1 $462 reversed $220 $-1 #
edge $-1 $463 0 $463 6.2831853071796004 $221 $464 forward 7 unknown #
vertex $-1 $224 $465 #
ellipse-curve $-1 46.02949308908579 45.421224476034084 15.038935846634377 0 0.64278761758704617 0.76604443648966558 1 0 0 1 I I #
face $-1 $-1 $466 $46 $-1 $467 forward single #
loop $-1 $-1 $468 $225 #
plane-surface $-1 0 0 16.684057770374867 0 0 1 1 0 0 forward_v I I I I #
coedge $-1 $469 $470 $471 $472 forward $226 $-1 #
coedge $-1 $473 $228 $230 $343 forward $143 $-1 #
coedge $-1 $228 $473 $474 $475 reversed $143 $-1 #
coedge $-1 $468 $231 $228 $340 forward $334 $-1 #
edge $-1 $346 14.710738522417564 $476 31.745267319885421 $339 $477 forward 7 unknown #
coedge $-1 $470 $469 $229 $342 forward $226 $-1 #
edge $-1 $478 -54.525990102519422 $345 -38.528494756977338 $341 $479 forward 7 unknown #
edge $-1 $346 -23.456794168652003 $478 0 $230 $480 forward 7 unknown #
coedge $-1 $231 $468 $470 $481 forward $334 $-1 #
vertex $-1 $232 $482 #
vertex $-1 $232 $483 #
straight-curve $-1 -37.938741443569057 -74.85732660280236 16.684057770374871 0 1 0 I I #
coedge $-1 $348 $348 $-1 $484 reversed $235 $-1 #
edge $-1 $485 0 $485 6.2831853071796004 $236 $486 forward 7 unknown #
vertex $-1 $239 $487 #
ellipse-curve $-1 -46.456005842302986 -38.804197864842912 8.6853100976038231 0 -0.68199836817093118 0.7313536940579346 1.5 0 0 1 I I #
face $-1 $-1 $255 $36 $-1 $488 reversed single #
loop $-1 $-1 $368 $240 #
plane-surface $-1 0 47.381804397843041 0 0 -1 0 0 0 -1 forward_v I I I I #
coedge $-1 $489 $366 $369 $490 forward $241 $-1 #
coedge $-1 $372 $243 $244 $360 reversed $152 $-1 #
coedge $-1 $366 $489 $243 $358 reversed $241 $-1 #
edge $-1 $373 -16.684057770374867 $491 16.684057770374867 $357 $492 forward 7 unknown #
coedge $-1 $245 $244 $489 $493 forward $97 $-1 #
edge $-1 $364 -75.024262215033417 $491 75.024262215033417 $356 $494 forward 7 unknown #
coedge $-1 $369 $368 $245 $362 reversed $353 $-1 #
edge $-1 $495 -75.024262215033417 $363 75.024262215033417 $361 $496 forward 7 unknown #
vertex $-1 $247 $497 #
vertex $-1 $375 $498 #
straight-curve $-1 75.024262215033417 0 -16.684057770374867 0 -1 0 I I #
coedge $-1 $355 $357 $248 $367 reversed $241 $-1 #
edge $-1 $370 -47.381804397843041 $373 47.381804397843041 $366 $499 forward 7 unknown #
coedge $-1 $361 $249 $254 $376 forward $353 $-1 #
coedge $-1 $249 $361 $355 $490 reversed $353 $-1 #
vertex $-1 $250 $500 #
straight-curve $-1 0 47.381804397843041 16.684057770374867 -1 0 0 I I #
coedge $-1 $251 $356 $253 $375 reversed $152 $-1 #
vertex $-1 $367 $501 #
straight-curve $-1 0 -47.381804397843041 16.684057770374867 1 0 0 I I #
edge $-1 $256 -16.684057770374867 $364 16.684057770374867 $253 $502 forward 7 unknown #
edge $-1 $257 -16.684057770374867 $363 16.684057770374867 $254 $503 forward 7 unknown #
point $-1 75.024262215033417 -47.381804397843041 16.684057770374867 #
point $-1 75.024262215033417 47.381804397843041 16.684057770374867 #
face $-1 $-1 $274 $37 $-1 $504 reversed single #
loop $-1 $-1 $388 $259 #
plane-surface $-1 0 0 16.684057770374867 0 0 1 1 0 0 forward_v I I I I #
coedge $-1 $394 $393 $263 $387 forward $260 $-1 #
coedge $-1 $265 $262 $394 $505 reversed $160 $-1 #
coedge $-1 $262 $265 $397 $506 reversed $160 $-1 #
edge $-1 $399 -16.684057770374867 $395 16.684057770374867 $262 $507 forward 7 unknown #
coedge $-1 $264 $263 $401 $508 reversed $101 $-1 #
edge $-1 $509 -42.524879101015834 $391 -22.473887127019331 $382 $510 forward 7 unknown #
coedge $-1 $398 $397 $264 $389 forward $380 $-1 #
edge $-1 $390 22.473887127019331 $511 42.524879101015834 $388 $512 forward 7 unknown #
vertex $-1 $389 $513 #
vertex $-1 $387 $514 #
straight-curve $-1 -54.973270241036914 -27.651164976508042 0 0 0 -1 I I #
coedge $-1 $382 $268 $273 $403 forward $260 $-1 #
coedge $-1 $268 $382 $383 $505 forward $260 $-1 #
vertex $-1 $269 $515 #
straight-curve $-1 -32.499383114017583 -36.412497477342427 -16.684057770374867 -1 0 0 I I #
coedge $-1 $388 $270 $384 $506 forward $380 $-1 #
coedge $-1 $270 $388 $272 $402 forward $380 $-1 #
vertex $-1 $271 $516 #
straight-curve $-1 -32.499383114017583 -36.412497477342427 16.684057770374867 1 0 0 I I #
coedge $-1 $273 $272 $386 $508 forward $274 $-1 #
edge $-1 $511 27.651164976508042 $276 36.412497477342427 $272 $517 forward 7 unknown #
edge $-1 $275 -36.412497477342427 $509 -27.651164976508042 $273 $518 forward 7 unknown #
point $-1 -75.024262215033417 -36.412497477342427 -16.684057770374867 #
point $-1 -75.024262215033417 -36.412497477342427 16.684057770374867 #
plane-surface $-1 0 0 16.684057770374867 0 0 1 1 0 0 forward_v I I I I #
coedge $-1 $417 $416 $409 $519 forward $279 $-1 #
coedge $-1 $409 $281 $283 $413 reversed $168 $-1 #
coedge $-1 $281 $408 $407 $519 reversed $168 $-1 #
coedge $-1 $289 $284 $281 $411 forward $290 $-1 #
edge $-1 $414 7.8416432346856411 $520 11.76280307830357 $410 $521 forward 7 unknown #
coedge $-1 $283 $282 $417 $522 reversed $105 $-1 #
edge $-1 $523 -94.763608795686068 $414 -89.64489810889313 $408 $524 forward 7 unknown #
vertex $-1 $285 $525 #
straight-curve $-1 -8.369997895320985 43.460644554225105 16.684057770374871 1 0 0 I I #
coedge $-1 $407 $286 $289 $421 reversed $279 $-1 #
coedge $-1 $286 $407 $412 $522 forward $279 $-1 #
vertex $-1 $287 $526 #
straight-curve $-1 -32.137504664720865 47.381804397843041 94.625262798880073 0 0 1 I I #
straight-curve $-1 -32.137504664720865 -25.211330901775412 74.306688254623779 0 0.76604443648966558 -0.64278761758704617 I I #
edge $-1 $520 1.3424869165630753 $291 32.137504664720865 $416 $527 forward 7 unknown #
point $-1 -32.137504664720865 47.381804397843041 16.684057770374867 #
point $-1 -32.137504664720865 43.460644554225112 16.684057770374864 #
edge $-1 $528 1 $528 0 $294 $-1 forward 7 unknown #
vertex $-1 $295 $529 #
ellipse-curve $-1 -25.978501115089308 44.763783019208226 14.255427644952338 0 0.64278761758704617 0.76604443648966558 1 0 0 1 I I #
point $-1 -24.978501115089308 45.421224476034062 15.038935846634354 #
edge $-1 $530 1 $530 0 $298 $-1 forward 7 unknown #
vertex $-1 $299 $531 #
ellipse-curve $-1 -16.73999579064197 44.763783019208226 14.255427644952338 0 0.64278761758704617 0.76604443648966558 1 0 0 1 I I #
point $-1 -15.73999579064197 45.421224476034062 15.038935846634354 #
edge $-1 $532 1 $532 0 $302 $-1 forward 7 unknown #
vertex $-1 $303 $533 #
ellipse-curve $-1 -7.5014904661946389 44.763783019208226 14.255427644952338 0 0.64278761758704617 0.76604443648966558 1 0 0 1 I I #
point $-1 -6.5014904661946389 45.421224476034062 15.038935846634354 #
loop $-1 $-1 $314 $306 #
plane-surface $-1 0 47.381804397843041 0 0 -1 0 0 0 -1 forward_v I I I I #
coedge $-1 $439 $309 $311 $443 reversed $197 $-1 #
coedge $-1 $309 $438 $534 $535 reversed $197 $-1 #
coedge $-1 $317 $312 $309 $441 forward $307 $-1 #
edge $-1 $444 7.8416432346856411 $536 11.76280307830357 $440 $537 forward 7 unknown #
coedge $-1 $311 $310 $447 $538 reversed $124 $-1 #
edge $-1 $539 -94.763608795686068 $444 -89.64489810889313 $438 $540 forward 7 unknown #
vertex $-1 $313 $541 #
straight-curve $-1 18.395493882319229 43.460644554225105 16.684057770374871 1 0 0 I I #
coedge $-1 $534 $314 $317 $451 reversed $436 $-1 #
coedge $-1 $314 $534 $442 $538 forward $436 $-1 #
vertex $-1 $315 $542 #
straight-curve $-1 21.393478890559564 47.381804397843041 94.625262798880073 0 0 1 I I #
straight-curve $-1 21.393478890559564 -25.211330901775412 74.306688254623779 0 0.76604443648966558 -0.64278761758704617 I I #
edge $-1 $536 -52.188496638717353 $318 -21.393478890559564 $446 $543 forward 7 unknown #
point $-1 21.393478890559564 47.381804397843041 16.684057770374867 #
point $-1 21.393478890559564 43.460644554225112 16.684057770374864 #
edge $-1 $544 1 $544 0 $321 $-1 forward 7 unknown #
vertex $-1 $322 $545 #
ellipse-curve $-1 27.552482440191113 44.763783019208226 14.255427644952338 0 0.64278761758704617 0.76604443648966558 1 0 0 1 I I #
point $-1 28.552482440191113 45.421224476034062 15.038935846634354 #
edge $-1 $546 1 $546 0 $325 $-1 forward 7 unknown #
vertex $-1 $326 $547 #
ellipse-curve $-1 36.790987764638459 44.763783019208226 14.255427644952338 0 0.64278761758704617 0.76604443648966558 1 0 0 1 I I #
point $-1 37.790987764638459 45.421224476034062 15.038935846634354 #
edge $-1 $548 1 $548 0 $329 $-1 forward 7 unknown #
vertex $-1 $330 $549 #
ellipse-curve $-1 46.02949308908579 44.763783019208226 14.255427644952338 0 0.64278761758704617 0.76604443648966558 1 0 0 1 I I #
point $-1 47.02949308908579 45.421224476034062 15.038935846634354 #
loop $-1 $-1 $474 $333 #
plane-surface $-1 -54.973270241036914 -32.031831226925235 0 -1 0 0 0 0 1 forward_v I I I I #
coedge $-1 $344 $339 $550 $551 forward $334 $-1 #
coedge $-1 $341 $336 $473 $552 forward $226 $-1 #
coedge $-1 $336 $341 $344 $481 reversed $226 $-1 #
coedge $-1 $550 $474 $336 $472 reversed $466 $-1 #
edge $-1 $553 38.528494756977338 $554 54.525990102519422 $336 $555 forward 7 unknown #
coedge $-1 $338 $337 $469 $552 reversed $143 $-1 #
coedge $-1 $471 $550 $338 $475 forward $466 $-1 #
edge $-1 $476 -18.077781604223258 $554 5.379012564428745 $474 $556 forward 7 unknown #
vertex $-1 $551 $557 #
straight-curve $-1 -23.228002921151493 -30.226591331842783 16.684057770374867 -1 0 0 I I #
vertex $-1 $342 $558 #
straight-curve $-1 -37.938741443569057 -47.381804397843041 55.212552527352209 0 0 1 I I #
straight-curve $-1 -37.938741443569057 -47.381804397843041 0.68656242483278618 0 -0.7313536940579346 -0.68199836817093118 I I #
edge $-1 $553 -54.973270241036914 $345 -37.938741443569057 $470 $559 forward 7 unknown #
point $-1 -37.938741443569057 -47.381804397843041 16.684057770374867 #
point $-1 -37.938741443569057 -30.22659133184278 16.684057770374867 #
edge $-1 $560 1 $560 0 $348 $-1 forward 7 unknown #
vertex $-1 $349 $561 #
ellipse-curve $-1 -46.456005842302986 -35.643760772191314 5.2961563247766819 0 -0.68199836817093118 0.7313536940579346 1.5 0 0 1 I I #
point $-1 -44.956005842302986 -38.804197864842912 8.6853100976038284 #
plane-surface $-1 75.024262215033417 0 0 -1 0 0 0 0 1 forward_v I I I I #
coedge $-1 $357 $355 $359 $493 reversed $241 $-1 #
edge $-1 $370 -16.684057770374867 $495 16.684057770374867 $369 $562 forward 7 unknown #
vertex $-1 $493 $563 #
straight-curve $-1 -75.024262215033417 -47.381804397843041 0 0 0 -1 I I #
edge $-1 $491 -47.381804397843041 $495 47.381804397843041 $489 $564 forward 7 unknown #
straight-curve $-1 0 -47.381804397843041 -16.684057770374867 -1 0 0 I I #
vertex $-1 $362 $565 #
straight-curve $-1 0 47.381804397843041 -16.684057770374867 1 0 0 I I #
point $-1 75.024262215033417 47.381804397843041 -16.684057770374867 #
point $-1 75.024262215033417 -47.381804397843041 -16.684057770374867 #
straight-curve $-1 -75.024262215033417 0 16.684057770374867 0 -1 0 I I #
point $-1 -75.024262215033417 47.381804397843041 16.684057770374867 #
point $-1 -75.024262215033417 -47.381804397843041 16.684057770374867 #
straight-curve $-1 75.024262215033417 -47.381804397843041 0 0 0 -1 I I #
straight-curve $-1 75.024262215033417 47.381804397843041 0 0 0 -1 I I #
plane-surface $-1 -75.024262215033417 0 0 1 0 0 0 0 -1 forward_v I I I I #
edge $-1 $391 11.635249363045425 $395 20.39658186387981 $394 $566 forward 7 unknown #
edge $-1 $399 -20.39658186387981 $390 -11.635249363045425 $397 $567 forward 7 unknown #
straight-curve $-1 -54.973270241036914 -36.412497477342427 0 0 0 -1 I I #
edge $-1 $511 -16.684057770374867 $509 16.684057770374867 $401 $568 forward 7 unknown #
vertex $-1 $508 $569 #
straight-curve $-1 -32.499383114017583 -27.651164976508042 -16.684057770374867 1 0 0 I I #
vertex $-1 $402 $570 #
straight-curve $-1 -32.499383114017583 -27.651164976508042 16.684057770374867 -1 0 0 I I #
point $-1 -54.973270241036914 -27.651164976508042 16.684057770374867 #
point $-1 -54.973270241036914 -27.651164976508042 -16.684057770374867 #
point $-1 -54.973270241036914 -36.412497477342427 -16.684057770374867 #
point $-1 -54.973270241036914 -36.412497477342427 16.684057770374867 #
straight-curve $-1 -75.024262215033417 0 16.684057770374867 0 -1 0 I I #
straight-curve $-1 -75.024262215033417 0 -16.684057770374867 0 1 0 I I #
edge $-1 $520 77.941205028505209 $523 81.231448875986189 $407 $571 forward 7 unknown #
vertex $-1 $421 $572 #
straight-curve $-1 -1.3424869165630753 35.619001319539471 16.684057770374864 0 1 0 I I #
edge $-1 $523 -7.0275109787579098 $418 23.76750676939988 $417 $573 forward 7 unknown #
vertex $-1 $522 $574 #
straight-curve $-1 -1.3424869165630753 -25.211330901775412 74.306688254623779 0 -0.76604443648966558 0.64278761758704617 I I #
point $-1 -1.3424869165630753 43.460644554225112 16.684057770374864 #
point $-1 -32.137504664720865 47.381804397843041 13.393813922893877 #
straight-curve $-1 0 47.381804397843041 16.684057770374867 -1 0 0 I I #
vertex $-1 $424 $575 #
point $-1 -24.978501115089308 44.763783019208226 14.255427644952338 #
vertex $-1 $428 $576 #
point $-1 -15.73999579064197 44.763783019208226 14.255427644952338 #
vertex $-1 $432 $577 #
point $-1 -6.5014904661946389 44.763783019208226 14.255427644952338 #
coedge $-1 $447 $446 $439 $535 forward $436 $-1 #
edge $-1 $536 77.941205028505209 $539 81.231448875986189 $534 $578 forward 7 unknown #
vertex $-1 $451 $579 #
straight-curve $-1 52.188496638717353 35.619001319539471 16.684057770374864 0 1 0 I I #
edge $-1 $539 -33.793002756398124 $448 -2.9979850082403345 $447 $580 forward 7 unknown #
vertex $-1 $538 $581 #
straight-curve $-1 52.188496638717353 -25.211330901775412 74.306688254623779 0 -0.76604443648966558 0.64278761758704617 I I #
point $-1 52.188496638717353 43.460644554225112 16.684057770374864 #
point $-1 21.393478890559564 47.381804397843041 13.393813922893877 #
straight-curve $-1 0 47.381804397843041 16.684057770374867 -1 0 0 I I #
vertex $-1 $454 $582 #
point $-1 28.552482440191113 44.763783019208226 14.255427644952338 #
vertex $-1 $458 $583 #
point $-1 37.790987764638459 44.763783019208226 14.255427644952338 #
vertex $-1 $462 $584 #
point $-1 47.02949308908579 44.763783019208226 14.255427644952338 #
coedge $-1 $474 $471 $468 $551 reversed $466 $-1 #
edge $-1 $476 -44.630735270959576 $553 -27.475522204959319 $468 $585 forward 7 unknown #
edge $-1 $554 -31.745267319885421 $478 -14.710738522417564 $469 $586 forward 7 unknown #
vertex $-1 $481 $587 #
vertex $-1 $472 $588 #
straight-curve $-1 -54.973270241036914 -47.381804397843041 55.212552527352209 0 0 -1 I I #
straight-curve $-1 -54.973270241036914 -43.447843688464033 4.3550402161441255 0 -0.7313536940579346 -0.68199836817093118 I I #
point $-1 -54.973270241036914 -30.22659133184278 16.684057770374867 #
point $-1 -37.938741443569057 -47.381804397843041 0.68656242483278618 #
straight-curve $-1 0 -47.381804397843041 16.684057770374867 1 0 0 I I #
vertex $-1 $484 $589 #
point $-1 -44.956005842302986 -35.643760772191314 5.2961563247766819 #
straight-curve $-1 -75.024262215033417 47.381804397843041 0 0 0 -1 I I #
point $-1 -75.024262215033417 -47.381804397843041 -16.684057770374867 #
straight-curve $-1 -75.024262215033417 0 -16.684057770374867 0 1 0 I I #
point $-1 -75.024262215033417 47.381804397843041 -16.684057770374867 #
straight-curve $-1 -54.973270241036914 -16.015915613462617 -16.684057770374867 0 -1 0 I I #
straight-curve $-1 -54.973270241036914 -16.015915613462617 16.684057770374867 0 1 0 I I #
straight-curve $-1 -75.024262215033417 -27.651164976508042 0 0 0 -1 I I #
point $-1 -75.024262215033417 -27.651164976508042 -16.684057770374867 #
point $-1 -75.024262215033417 -27.651164976508042 16.684057770374867 #
straight-curve $-1 -1.3424869165630753 47.381804397843041 94.625262798880073 0 0 -1 I I #
point $-1 -1.3424869165630753 47.381804397843041 16.684057770374867 #
straight-curve $-1 -8.369997895320985 47.381804397843041 13.393813922893877 -1 0 0 I I #
point $-1 -1.3424869165630753 47.381804397843041 13.393813922893877 #
point $-1 -25.978501115089308 44.12099540162118 13.489383208462673 #
point $-1 -16.73999579064197 44.12099540162118 13.489383208462673 #
point $-1 -7.5014904661946389 44.12099540162118 13.489383208462673 #
straight-curve $-1 52.188496638717353 47.381804397843041 94.625262798880073 0 0 -1 I I #
point $-1 52.188496638717353 47.381804397843041 16.684057770374867 #
straight-curve $-1 18.395493882319229 47.381804397843041 13.393813922893877 -1 0 0 I I #
point $-1 52.188496638717353 47.381804397843041 13.393813922893877 #
point $-1 27.552482440191113 44.12099540162118 13.489383208462673 #
point $-1 36.790987764638459 44.12099540162118 13.489383208462673 #
point $-1 46.02949308908579 44.12099540162118 13.489383208462673 #
straight-curve $-1 -54.973270241036914 -74.85732660280236 16.684057770374871 0 -1 0 I I #
straight-curve $-1 -23.228002921151493 -47.381804397843041 0.68656242483278751 1 0 0 I I #
point $-1 -54.973270241036914 -47.381804397843041 16.684057770374867 #
point $-1 -54.973270241036914 -47.381804397843041 0.68656242483278618 #
point $-1 -46.456005842302986 -34.620763219934915 4.1991257836897802 #
End-of-ACIS-data 