500 0 16 0           
7 Unknown 11 ACIS 5.0 NT 24 Thu Mar 25 16:06:38 1999 
-1 9.9999999999999995e-007 1e-010 
body $-1 $16 $-1 $17 #
body $-1 $18 $-1 $19 #
body $-1 $20 $-1 $21 #
body $-1 $22 $-1 $23 #
body $-1 $24 $-1 $25 #
body $-1 $26 $-1 $27 #
body $-1 $28 $-1 $29 #
body $-1 $30 $-1 $31 #
body $-1 $32 $-1 $33 #
body $-1 $34 $-1 $35 #
body $-1 $36 $-1 $37 #
body $-1 $38 $-1 $39 #
body $-1 $40 $-1 $41 #
body $-1 $42 $-1 $43 #
body $-1 $44 $-1 $45 #
body $-1 $46 $-1 $47 #
lump $-1 $-1 $48 $0 #
transform $-1 1 0 0 0 1 0 0 0 1 40.655537583544422 18.001245200265387 4.3633255982722812 1 rotate no_reflect no_shear #
lump $-1 $-1 $49 $1 #
transform $-1 1 0 0 0 1 0 0 0 1 40.655537583544422 2.0749253112199102 7.2266511965445623 1 rotate no_reflect no_shear #
lump $-1 $-1 $50 $2 #
transform $-1 0.65605901945558964 0 0.75470958851134928 0 1 0 -0.75470958851134928 0 0.65605901945558964 -61.366248080768997 7.4569748411534675 58.349972653824103 1 rotate no_reflect no_shear #
lump $-1 $-1 $51 $3 #
transform $-1 0.65605901945558964 0 0.75470958851134928 0 -1 0 0.75470958851134928 0 -0.65605901945558964 4.0775995307205868 7.4569748411534675 4.7273860827678398 1 rotate no_reflect no_shear #
lump $-1 $-1 $52 $4 #
transform $-1 0.65605901945558964 0 0.75470958851134928 0 1 0 -0.75470958851134928 0 0.65605901945558964 -61.366248080768997 20.076170511485298 58.349972653824103 1 rotate no_reflect no_shear #
lump $-1 $-1 $53 $5 #
transform $-1 0.65605901945558964 0 0.75470958851134928 0 -1 0 0.75470958851134928 0 -0.65605901945558964 4.0775995307205868 20.076170511485298 4.7273860827678398 1 rotate no_reflect no_shear #
lump $-1 $-1 $54 $6 #
transform $-1 0.65605901945558964 0 0.75470958851134928 0 1 0 -0.75470958851134928 0 0.65605901945558964 -61.366248080768997 32.695366181817128 58.349972653824103 1 rotate no_reflect no_shear #
lump $-1 $-1 $55 $7 #
transform $-1 0.65605901945558964 0 0.75470958851134928 0 -1 0 0.75470958851134928 0 -0.65605901945558964 4.0775995307205868 32.695366181817128 4.7273860827678398 1 rotate no_reflect no_shear #
lump $-1 $-1 $56 $8 #
transform $-1 0.81915203911291934 0 -0.57357644374324357 0 1 0 0.57357644374324357 0 0.81915203911291934 61.343059472782556 10.617189625588818 118.75596152103743 1 rotate no_reflect no_shear #
lump $-1 $-1 $57 $9 #
transform $-1 0.81915203911291934 0 -0.57357644374324357 0 -1 0 -0.57357644374324357 0 -0.81915203911291934 78.058891524777493 8.811402057284095 5.7531882192345876 1 rotate no_reflect no_shear #
lump $-1 $-1 $58 $10 #
transform $-1 0.81915203911291934 0 -0.57357644374324357 0 -1 0 -0.57357644374324357 0 -0.81915203911291934 78.058891524777493 10.61718962558882 5.7531882192345876 1 rotate no_reflect no_shear #
lump $-1 $-1 $59 $11 #
transform $-1 0.81915203911291934 0 -0.57357644374324357 0 -1 0 -0.57357644374324357 0 -0.81915203911291934 78.058891524777493 12.422977193893544 5.7531882192345876 1 rotate no_reflect no_shear #
lump $-1 $-1 $60 $12 #
transform $-1 0.81915203911291934 0 -0.57357644374324357 0 1 0 0.57357644374324357 0 0.81915203911291934 61.343059472782556 26.543509514634295 118.75596152103743 1 rotate no_reflect no_shear #
lump $-1 $-1 $61 $13 #
transform $-1 0.81915203911291934 0 -0.57357644374324357 0 -1 0 -0.57357644374324357 0 -0.81915203911291934 78.058891524777493 24.737721946329572 5.7531882192345876 1 rotate no_reflect no_shear #
lump $-1 $-1 $62 $14 #
transform $-1 0.81915203911291934 0 -0.57357644374324357 0 -1 0 -0.57357644374324357 0 -0.81915203911291934 78.058891524777493 26.543509514634295 5.7531882192345876 1 rotate no_reflect no_shear #
lump $-1 $-1 $63 $15 #
transform $-1 0.81915203911291934 0 -0.57357644374324357 0 -1 0 -0.57357644374324357 0 -0.81915203911291934 78.058891524777493 28.349297082939021 5.7531882192345876 1 rotate no_reflect no_shear #
shell $-1 $-1 $-1 $64 $-1 $16 #
shell $-1 $-1 $-1 $65 $-1 $18 #
shell $-1 $-1 $-1 $66 $-1 $20 #
shell $-1 $-1 $-1 $67 $-1 $22 #
shell $-1 $-1 $-1 $68 $-1 $24 #
shell $-1 $-1 $-1 $69 $-1 $26 #
shell $-1 $-1 $-1 $70 $-1 $28 #
shell $-1 $-1 $-1 $71 $-1 $30 #
shell $-1 $-1 $-1 $72 $-1 $32 #
shell $-1 $-1 $-1 $73 $-1 $34 #
shell $-1 $-1 $-1 $74 $-1 $36 #
shell $-1 $-1 $-1 $75 $-1 $38 #
shell $-1 $-1 $-1 $76 $-1 $40 #
shell $-1 $-1 $-1 $77 $-1 $42 #
shell $-1 $-1 $-1 $78 $-1 $44 #
shell $-1 $-1 $-1 $79 $-1 $46 #
face $-1 $80 $81 $48 $-1 $82 forward single #
face $-1 $83 $84 $49 $-1 $85 forward single #
face $-1 $86 $87 $50 $-1 $88 forward single #
face $-1 $89 $90 $51 $-1 $91 forward single #
face $-1 $92 $93 $52 $-1 $94 forward single #
face $-1 $95 $96 $53 $-1 $97 forward single #
face $-1 $98 $99 $54 $-1 $100 forward single #
face $-1 $101 $102 $55 $-1 $103 forward single #
face $-1 $104 $105 $56 $-1 $106 forward single #
face $-1 $107 $108 $57 $-1 $109 forward single #
face $-1 $110 $111 $58 $-1 $112 forward single #
face $-1 $113 $114 $59 $-1 $115 forward single #
face $-1 $116 $117 $60 $-1 $118 forward single #
face $-1 $119 $120 $61 $-1 $121 forward single #
face $-1 $122 $123 $62 $-1 $124 forward single #
face $-1 $125 $126 $63 $-1 $127 forward single #
face $-1 $128 $129 $48 $-1 $130 reversed single #
loop $-1 $-1 $131 $64 #
plane-surface $-1 0 0 4.3633255982722812 0 0 1 1 0 0 forward_v I I I I #
face $-1 $132 $133 $49 $-1 $134 reversed single #
loop $-1 $-1 $135 $65 #
plane-surface $-1 0 0 1.5 0 0 1 1 0 0 forward_v I I I I #
face $-1 $136 $137 $50 $-1 $138 reversed single #
loop $-1 $-1 $139 $66 #
plane-surface $-1 0 0 81.311075167088845 0 0 1 1 0 0 forward_v I I I I #
face $-1 $140 $141 $51 $-1 $142 forward single #
loop $-1 $143 $144 $67 #
cone-surface $-1 0 0 -1.8798028504287849 0 0 1 1 0 0 1 I I 0 1 1 forward I I I I #
face $-1 $145 $146 $52 $-1 $147 reversed single #
loop $-1 $-1 $148 $68 #
plane-surface $-1 0 0 81.311075167088845 0 0 1 1 0 0 forward_v I I I I #
face $-1 $149 $150 $53 $-1 $151 forward single #
loop $-1 $152 $153 $69 #
cone-surface $-1 0 0 -1.8798028504287849 0 0 1 1 0 0 1 I I 0 1 1 forward I I I I #
face $-1 $154 $155 $54 $-1 $156 reversed single #
loop $-1 $-1 $157 $70 #
plane-surface $-1 0 0 81.311075167088845 0 0 1 1 0 0 forward_v I I I I #
face $-1 $158 $159 $55 $-1 $160 forward single #
loop $-1 $161 $162 $71 #
cone-surface $-1 0 0 -1.8798028504287849 0 0 1 1 0 0 1 I I 0 1 1 forward I I I I #
face $-1 $163 $164 $56 $-1 $165 reversed single #
loop $-1 $-1 $166 $72 #
plane-surface $-1 0 0 81.311075167088845 0 0 1 1 0 0 forward_v I I I I #
face $-1 $167 $168 $57 $-1 $169 forward single #
loop $-1 $170 $171 $73 #
cone-surface $-1 0 0 -0.95878475295266608 0 0 1 0.5 0 0 1 I I 0 1 0.5 forward I I I I #
face $-1 $172 $173 $58 $-1 $174 forward single #
loop $-1 $175 $176 $74 #
cone-surface $-1 0 0 -0.95878475295266608 0 0 1 0.5 0 0 1 I I 0 1 0.5 forward I I I I #
face $-1 $177 $178 $59 $-1 $179 forward single #
loop $-1 $180 $181 $75 #
cone-surface $-1 0 0 -0.95878475295266608 0 0 1 0.5 0 0 1 I I 0 1 0.5 forward I I I I #
face $-1 $182 $183 $60 $-1 $184 reversed single #
loop $-1 $-1 $185 $76 #
plane-surface $-1 0 0 81.311075167088845 0 0 1 1 0 0 forward_v I I I I #
face $-1 $186 $187 $61 $-1 $188 forward single #
loop $-1 $189 $190 $77 #
cone-surface $-1 0 0 -0.95878475295266608 0 0 1 0.5 0 0 1 I I 0 1 0.5 forward I I I I #
face $-1 $191 $192 $62 $-1 $193 forward single #
loop $-1 $194 $195 $78 #
cone-surface $-1 0 0 -0.95878475295266608 0 0 1 0.5 0 0 1 I I 0 1 0.5 forward I I I I #
face $-1 $196 $197 $63 $-1 $198 forward single #
loop $-1 $199 $200 $79 #
cone-surface $-1 0 0 -0.95878475295266608 0 0 1 0.5 0 0 1 I I 0 1 0.5 forward I I I I #
face $-1 $201 $202 $48 $-1 $203 reversed single #
loop $-1 $-1 $204 $80 #
plane-surface $-1 0 0 -4.3633255982722812 0 0 1 1 0 0 forward_v I I I I #
coedge $-1 $205 $206 $207 $208 forward $81 $-1 #
face $-1 $209 $210 $49 $-1 $211 reversed single #
loop $-1 $-1 $212 $83 #
plane-surface $-1 0 0 -1.5 0 0 1 1 0 0 forward_v I I I I #
coedge $-1 $213 $214 $215 $216 forward $84 $-1 #
face $-1 $217 $218 $50 $-1 $219 reversed single #
loop $-1 $-1 $220 $86 #
plane-surface $-1 0 0 -81.311075167088845 0 0 1 1 0 0 forward_v I I I I #
coedge $-1 $221 $222 $223 $224 forward $87 $-1 #
face $-1 $-1 $225 $51 $-1 $226 forward single #
loop $-1 $-1 $227 $89 #
plane-surface $-1 0 0 -3.2596057008575698 0 0 -1 -1 0 0 forward_v I I I I #
loop $-1 $-1 $228 $67 #
coedge $-1 $144 $144 $227 $229 reversed $90 $-1 #
face $-1 $230 $231 $52 $-1 $232 reversed single #
loop $-1 $-1 $233 $92 #
plane-surface $-1 0 0 -81.311075167088845 0 0 1 1 0 0 forward_v I I I I #
coedge $-1 $234 $235 $236 $237 forward $93 $-1 #
face $-1 $-1 $238 $53 $-1 $239 forward single #
loop $-1 $-1 $240 $95 #
plane-surface $-1 0 0 -3.2596057008575698 0 0 -1 -1 0 0 forward_v I I I I #
loop $-1 $-1 $241 $69 #
coedge $-1 $153 $153 $240 $242 reversed $96 $-1 #
face $-1 $243 $244 $54 $-1 $245 reversed single #
loop $-1 $-1 $246 $98 #
plane-surface $-1 0 0 -81.311075167088845 0 0 1 1 0 0 forward_v I I I I #
coedge $-1 $247 $248 $249 $250 forward $99 $-1 #
face $-1 $-1 $251 $55 $-1 $252 forward single #
loop $-1 $-1 $253 $101 #
plane-surface $-1 0 0 -3.2596057008575698 0 0 -1 -1 0 0 forward_v I I I I #
loop $-1 $-1 $254 $71 #
coedge $-1 $162 $162 $253 $255 reversed $102 $-1 #
face $-1 $256 $257 $56 $-1 $258 reversed single #
loop $-1 $-1 $259 $104 #
plane-surface $-1 0 0 -81.311075167088845 0 0 1 1 0 0 forward_v I I I I #
coedge $-1 $260 $261 $262 $263 forward $105 $-1 #
face $-1 $-1 $264 $57 $-1 $265 forward single #
loop $-1 $-1 $266 $107 #
plane-surface $-1 0 0 -1.6675695059053322 0 0 -1 -1 0 0 forward_v I I I I #
loop $-1 $-1 $267 $73 #
coedge $-1 $171 $171 $266 $268 reversed $108 $-1 #
face $-1 $-1 $269 $58 $-1 $270 forward single #
loop $-1 $-1 $271 $110 #
plane-surface $-1 0 0 -1.6675695059053322 0 0 -1 -1 0 0 forward_v I I I I #
loop $-1 $-1 $272 $74 #
coedge $-1 $176 $176 $271 $273 reversed $111 $-1 #
face $-1 $-1 $274 $59 $-1 $275 forward single #
loop $-1 $-1 $276 $113 #
plane-surface $-1 0 0 -1.6675695059053322 0 0 -1 -1 0 0 forward_v I I I I #
loop $-1 $-1 $277 $75 #
coedge $-1 $181 $181 $276 $278 reversed $114 $-1 #
face $-1 $279 $280 $60 $-1 $281 reversed single #
loop $-1 $-1 $282 $116 #
plane-surface $-1 0 0 -81.311075167088845 0 0 1 1 0 0 forward_v I I I I #
coedge $-1 $283 $284 $285 $286 forward $117 $-1 #
face $-1 $-1 $287 $61 $-1 $288 forward single #
loop $-1 $-1 $289 $119 #
plane-surface $-1 0 0 -1.6675695059053322 0 0 -1 -1 0 0 forward_v I I I I #
loop $-1 $-1 $290 $77 #
coedge $-1 $190 $190 $289 $291 reversed $120 $-1 #
face $-1 $-1 $292 $62 $-1 $293 forward single #
loop $-1 $-1 $294 $122 #
plane-surface $-1 0 0 -1.6675695059053322 0 0 -1 -1 0 0 forward_v I I I I #
loop $-1 $-1 $295 $78 #
coedge $-1 $195 $195 $294 $296 reversed $123 $-1 #
face $-1 $-1 $297 $63 $-1 $298 forward single #
loop $-1 $-1 $299 $125 #
plane-surface $-1 0 0 -1.6675695059053322 0 0 -1 -1 0 0 forward_v I I I I #
loop $-1 $-1 $300 $79 #
coedge $-1 $200 $200 $299 $301 reversed $126 $-1 #
face $-1 $302 $303 $48 $-1 $304 reversed single #
loop $-1 $-1 $305 $128 #
plane-surface $-1 0 -18.001245200265387 0 0 1 0 0 0 1 forward_v I I I I #
coedge $-1 $306 $307 $308 $309 forward $129 $-1 #
coedge $-1 $310 $131 $311 $312 forward $81 $-1 #
coedge $-1 $131 $310 $313 $314 forward $81 $-1 #
coedge $-1 $315 $316 $131 $208 reversed $317 $-1 #
edge $-1 $318 -18.001245200265387 $319 18.001245200265387 $207 $320 forward 7 unknown #
face $-1 $321 $322 $49 $-1 $323 reversed single #
loop $-1 $-1 $324 $132 #
plane-surface $-1 0 -2.0749253112199102 0 0 1 0 0 0 1 forward_v I I I I #
coedge $-1 $325 $326 $327 $328 forward $133 $-1 #
coedge $-1 $329 $135 $330 $331 forward $84 $-1 #
coedge $-1 $135 $329 $332 $333 forward $84 $-1 #
coedge $-1 $334 $335 $135 $216 reversed $336 $-1 #
edge $-1 $337 -2.0749253112199102 $338 2.0749253112199102 $215 $339 forward 7 unknown #
face $-1 $340 $341 $50 $-1 $342 reversed single #
loop $-1 $-1 $343 $136 #
plane-surface $-1 0 -3.3071242187136467 0 0 1 0 0 0 1 forward_v I I I I #
coedge $-1 $344 $345 $346 $347 forward $137 $-1 #
coedge $-1 $348 $139 $349 $350 forward $87 $-1 #
coedge $-1 $139 $348 $351 $352 forward $87 $-1 #
coedge $-1 $353 $354 $139 $224 reversed $355 $-1 #
edge $-1 $356 -3.3071242187136467 $357 3.3071242187136467 $223 $358 forward 7 unknown #
loop $-1 $359 $360 $140 #
cone-surface $-1 0 0 0 0 0 1 0.5 0 0 1 I I -0.70710678118654746 0.70710678118654746 0.5 forward I I I I #
coedge $-1 $227 $227 $144 $229 forward $141 $-1 #
coedge $-1 $228 $228 $360 $361 forward $143 $-1 #
edge $-1 $362 0 $362 6.2831853071796004 $227 $363 forward 7 unknown #
face $-1 $364 $365 $52 $-1 $366 reversed single #
loop $-1 $-1 $367 $145 #
plane-surface $-1 0 -3.3071242187136467 0 0 1 0 0 0 1 forward_v I I I I #
coedge $-1 $368 $369 $370 $371 forward $146 $-1 #
coedge $-1 $372 $148 $373 $374 forward $93 $-1 #
coedge $-1 $148 $372 $375 $376 forward $93 $-1 #
coedge $-1 $377 $378 $148 $237 reversed $379 $-1 #
edge $-1 $380 -3.3071242187136467 $381 3.3071242187136467 $236 $382 forward 7 unknown #
loop $-1 $383 $384 $149 #
cone-surface $-1 0 0 0 0 0 1 0.5 0 0 1 I I -0.70710678118654746 0.70710678118654746 0.5 forward I I I I #
coedge $-1 $240 $240 $153 $242 forward $150 $-1 #
coedge $-1 $241 $241 $384 $385 forward $152 $-1 #
edge $-1 $386 0 $386 6.2831853071796004 $240 $387 forward 7 unknown #
face $-1 $388 $389 $54 $-1 $390 reversed single #
loop $-1 $-1 $391 $154 #
plane-surface $-1 0 -3.3071242187136467 0 0 1 0 0 0 1 forward_v I I I I #
coedge $-1 $392 $393 $394 $395 forward $155 $-1 #
coedge $-1 $396 $157 $397 $398 forward $99 $-1 #
coedge $-1 $157 $396 $399 $400 forward $99 $-1 #
coedge $-1 $401 $402 $157 $250 reversed $403 $-1 #
edge $-1 $404 -3.3071242187136467 $405 3.3071242187136467 $249 $406 forward 7 unknown #
loop $-1 $407 $408 $158 #
cone-surface $-1 0 0 0 0 0 1 0.5 0 0 1 I I -0.70710678118654746 0.70710678118654746 0.5 forward I I I I #
coedge $-1 $253 $253 $162 $255 forward $159 $-1 #
coedge $-1 $254 $254 $408 $409 forward $161 $-1 #
edge $-1 $410 0 $410 6.2831853071796004 $253 $411 forward 7 unknown #
face $-1 $412 $413 $56 $-1 $414 reversed single #
loop $-1 $-1 $415 $163 #
plane-surface $-1 0 -3.00964594717454 0 0 1 0 0 0 1 forward_v I I I I #
coedge $-1 $416 $417 $418 $419 forward $164 $-1 #
coedge $-1 $420 $166 $421 $422 forward $105 $-1 #
coedge $-1 $166 $420 $423 $424 forward $105 $-1 #
coedge $-1 $425 $426 $166 $263 reversed $427 $-1 #
edge $-1 $428 -3.00964594717454 $429 3.00964594717454 $262 $430 forward 7 unknown #
loop $-1 $431 $432 $167 #
cone-surface $-1 0 0 0 0 0 1 0.25 0 0 1 I I -0.70710678118654779 0.70710678118654713 0.25 forward I I I I #
coedge $-1 $266 $266 $171 $268 forward $168 $-1 #
coedge $-1 $267 $267 $432 $433 forward $170 $-1 #
edge $-1 $434 0 $434 6.2831853071796004 $266 $435 forward 7 unknown #
loop $-1 $436 $437 $172 #
cone-surface $-1 0 0 0 0 0 1 0.25 0 0 1 I I -0.70710678118654779 0.70710678118654713 0.25 forward I I I I #
coedge $-1 $271 $271 $176 $273 forward $173 $-1 #
coedge $-1 $272 $272 $437 $438 forward $175 $-1 #
edge $-1 $439 0 $439 6.2831853071796004 $271 $440 forward 7 unknown #
loop $-1 $441 $442 $177 #
cone-surface $-1 0 0 0 0 0 1 0.25 0 0 1 I I -0.70710678118654779 0.70710678118654713 0.25 forward I I I I #
coedge $-1 $276 $276 $181 $278 forward $178 $-1 #
coedge $-1 $277 $277 $442 $443 forward $180 $-1 #
edge $-1 $444 0 $444 6.2831853071796004 $276 $445 forward 7 unknown #
face $-1 $446 $447 $60 $-1 $448 reversed single #
loop $-1 $-1 $449 $182 #
plane-surface $-1 0 -3.00964594717454 0 0 1 0 0 0 1 forward_v I I I I #
coedge $-1 $450 $451 $452 $453 forward $183 $-1 #
coedge $-1 $454 $185 $455 $456 forward $117 $-1 #
coedge $-1 $185 $454 $457 $458 forward $117 $-1 #
coedge $-1 $459 $460 $185 $286 reversed $461 $-1 #
edge $-1 $462 -3.00964594717454 $463 3.00964594717454 $285 $464 forward 7 unknown #
loop $-1 $465 $466 $186 #
cone-surface $-1 0 0 0 0 0 1 0.25 0 0 1 I I -0.70710678118654779 0.70710678118654713 0.25 forward I I I I #
coedge $-1 $289 $289 $190 $291 forward $187 $-1 #
coedge $-1 $290 $290 $466 $467 forward $189 $-1 #
edge $-1 $468 0 $468 6.2831853071796004 $289 $469 forward 7 unknown #
loop $-1 $470 $471 $191 #
cone-surface $-1 0 0 0 0 0 1 0.25 0 0 1 I I -0.70710678118654779 0.70710678118654713 0.25 forward I I I I #
coedge $-1 $294 $294 $195 $296 forward $192 $-1 #
coedge $-1 $295 $295 $471 $472 forward $194 $-1 #
edge $-1 $473 0 $473 6.2831853071796004 $294 $474 forward 7 unknown #
loop $-1 $475 $476 $196 #
cone-surface $-1 0 0 0 0 0 1 0.25 0 0 1 I I -0.70710678118654779 0.70710678118654713 0.25 forward I I I I #
coedge $-1 $299 $299 $200 $301 forward $197 $-1 #
coedge $-1 $300 $300 $476 $477 forward $199 $-1 #
edge $-1 $478 0 $478 6.2831853071796004 $299 $479 forward 7 unknown #
face $-1 $480 $481 $48 $-1 $482 reversed single #
loop $-1 $-1 $483 $201 #
plane-surface $-1 -40.655537583544422 0 0 1 0 0 0 0 -1 forward_v I I I I #
coedge $-1 $484 $313 $485 $486 forward $202 $-1 #
coedge $-1 $487 $204 $484 $488 forward $129 $-1 #
coedge $-1 $204 $487 $489 $490 forward $129 $-1 #
coedge $-1 $316 $315 $204 $309 reversed $317 $-1 #
edge $-1 $491 -18.001245200265387 $492 18.001245200265387 $308 $493 forward 7 unknown #
coedge $-1 $206 $205 $494 $495 forward $81 $-1 #
coedge $-1 $496 $497 $205 $312 reversed $481 $-1 #
edge $-1 $319 -40.655537583544422 $498 40.655537583544422 $311 $499 forward 7 unknown #
coedge $-1 $305 $500 $206 $314 reversed $202 $-1 #
edge $-1 $501 -40.655537583544422 $318 40.655537583544422 $313 $502 forward 7 unknown #
coedge $-1 $308 $207 $500 $503 forward $317 $-1 #
coedge $-1 $207 $308 $496 $504 reversed $317 $-1 #
loop $-1 $-1 $315 $480 #
vertex $-1 $208 $505 #
vertex $-1 $208 $506 #
straight-curve $-1 40.655537583544422 0 4.3633255982722812 0 1 0 I I #
face $-1 $507 $508 $49 $-1 $509 reversed single #
loop $-1 $-1 $510 $209 #
plane-surface $-1 -40.655537583544422 0 0 1 0 0 0 0 -1 forward_v I I I I #
coedge $-1 $511 $332 $512 $513 forward $210 $-1 #
coedge $-1 $514 $212 $511 $515 forward $133 $-1 #
coedge $-1 $212 $514 $516 $517 forward $133 $-1 #
coedge $-1 $335 $334 $212 $328 reversed $336 $-1 #
edge $-1 $518 -2.0749253112199102 $519 2.0749253112199102 $327 $520 forward 7 unknown #
coedge $-1 $214 $213 $521 $522 forward $84 $-1 #
coedge $-1 $523 $524 $213 $331 reversed $508 $-1 #
edge $-1 $338 -40.655537583544422 $525 40.655537583544422 $330 $526 forward 7 unknown #
coedge $-1 $324 $527 $214 $333 reversed $210 $-1 #
edge $-1 $528 -40.655537583544422 $337 40.655537583544422 $332 $529 forward 7 unknown #
coedge $-1 $327 $215 $527 $530 forward $336 $-1 #
coedge $-1 $215 $327 $523 $531 reversed $336 $-1 #
loop $-1 $-1 $334 $507 #
vertex $-1 $216 $532 #
vertex $-1 $216 $533 #
straight-curve $-1 40.655537583544422 0 1.5 0 1 0 I I #
face $-1 $534 $535 $50 $-1 $536 reversed single #
loop $-1 $-1 $537 $217 #
plane-surface $-1 -162.62215033417769 0 0 1 0 0 0 0 -1 forward_v I I I I #
coedge $-1 $538 $351 $539 $540 forward $218 $-1 #
coedge $-1 $541 $220 $538 $542 forward $137 $-1 #
coedge $-1 $220 $541 $543 $544 forward $137 $-1 #
coedge $-1 $354 $353 $220 $347 reversed $355 $-1 #
edge $-1 $545 -3.3071242187136467 $546 3.3071242187136467 $346 $547 forward 7 unknown #
coedge $-1 $222 $221 $548 $549 forward $87 $-1 #
coedge $-1 $550 $551 $221 $350 reversed $535 $-1 #
edge $-1 $357 -162.62215033417769 $552 162.62215033417769 $349 $553 forward 7 unknown #
coedge $-1 $343 $554 $222 $352 reversed $218 $-1 #
edge $-1 $555 -162.62215033417769 $356 162.62215033417769 $351 $556 forward 7 unknown #
coedge $-1 $346 $223 $554 $557 forward $355 $-1 #
coedge $-1 $223 $346 $550 $558 reversed $355 $-1 #
loop $-1 $-1 $353 $534 #
vertex $-1 $224 $559 #
vertex $-1 $224 $560 #
straight-curve $-1 162.62215033417769 0 81.311075167088845 0 1 0 I I #
loop $-1 $-1 $561 $140 #
coedge $-1 $360 $360 $228 $361 reversed $225 $-1 #
edge $-1 $562 0 $562 6.2831853071796004 $360 $563 forward 7 unknown #
vertex $-1 $229 $564 #
ellipse-curve $-1 0 0 -3.2596057008575698 0 0 -1 1 0 0 1 I I #
face $-1 $565 $566 $52 $-1 $567 reversed single #
loop $-1 $-1 $568 $230 #
plane-surface $-1 -162.62215033417769 0 0 1 0 0 0 0 -1 forward_v I I I I #
coedge $-1 $569 $375 $570 $571 forward $231 $-1 #
coedge $-1 $572 $233 $569 $573 forward $146 $-1 #
coedge $-1 $233 $572 $574 $575 forward $146 $-1 #
coedge $-1 $378 $377 $233 $371 reversed $379 $-1 #
edge $-1 $576 -3.3071242187136467 $577 3.3071242187136467 $370 $578 forward 7 unknown #
coedge $-1 $235 $234 $579 $580 forward $93 $-1 #
coedge $-1 $581 $582 $234 $374 reversed $566 $-1 #
edge $-1 $381 -162.62215033417769 $583 162.62215033417769 $373 $584 forward 7 unknown #
coedge $-1 $367 $585 $235 $376 reversed $231 $-1 #
edge $-1 $586 -162.62215033417769 $380 162.62215033417769 $375 $587 forward 7 unknown #
coedge $-1 $370 $236 $585 $588 forward $379 $-1 #
coedge $-1 $236 $370 $581 $589 reversed $379 $-1 #
loop $-1 $-1 $377 $565 #
vertex $-1 $237 $590 #
vertex $-1 $237 $591 #
straight-curve $-1 162.62215033417769 0 81.311075167088845 0 1 0 I I #
loop $-1 $-1 $592 $149 #
coedge $-1 $384 $384 $241 $385 reversed $238 $-1 #
edge $-1 $593 0 $593 6.2831853071796004 $384 $594 forward 7 unknown #
vertex $-1 $242 $595 #
ellipse-curve $-1 0 0 -3.2596057008575698 0 0 -1 1 0 0 1 I I #
face $-1 $596 $597 $54 $-1 $598 reversed single #
loop $-1 $-1 $599 $243 #
plane-surface $-1 -162.62215033417769 0 0 1 0 0 0 0 -1 forward_v I I I I #
coedge $-1 $600 $399 $601 $602 forward $244 $-1 #
coedge $-1 $603 $246 $600 $604 forward $155 $-1 #
coedge $-1 $246 $603 $605 $606 forward $155 $-1 #
coedge $-1 $402 $401 $246 $395 reversed $403 $-1 #
edge $-1 $607 -3.3071242187136467 $608 3.3071242187136467 $394 $609 forward 7 unknown #
coedge $-1 $248 $247 $610 $611 forward $99 $-1 #
coedge $-1 $612 $613 $247 $398 reversed $597 $-1 #
edge $-1 $405 -162.62215033417769 $614 162.62215033417769 $397 $615 forward 7 unknown #
coedge $-1 $391 $616 $248 $400 reversed $244 $-1 #
edge $-1 $617 -162.62215033417769 $404 162.62215033417769 $399 $618 forward 7 unknown #
coedge $-1 $394 $249 $616 $619 forward $403 $-1 #
coedge $-1 $249 $394 $612 $620 reversed $403 $-1 #
loop $-1 $-1 $401 $596 #
vertex $-1 $250 $621 #
vertex $-1 $250 $622 #
straight-curve $-1 162.62215033417769 0 81.311075167088845 0 1 0 I I #
loop $-1 $-1 $623 $158 #
coedge $-1 $408 $408 $254 $409 reversed $251 $-1 #
edge $-1 $624 0 $624 6.2831853071796004 $408 $625 forward 7 unknown #
vertex $-1 $255 $626 #
ellipse-curve $-1 0 0 -3.2596057008575698 0 0 -1 1 0 0 1 I I #
face $-1 $627 $628 $56 $-1 $629 reversed single #
loop $-1 $-1 $630 $256 #
plane-surface $-1 -162.62215033417769 0 0 1 0 0 0 0 -1 forward_v I I I I #
coedge $-1 $631 $423 $632 $633 forward $257 $-1 #
coedge $-1 $634 $259 $631 $635 forward $164 $-1 #
coedge $-1 $259 $634 $636 $637 forward $164 $-1 #
coedge $-1 $426 $425 $259 $419 reversed $427 $-1 #
edge $-1 $638 -3.00964594717454 $639 3.00964594717454 $418 $640 forward 7 unknown #
coedge $-1 $261 $260 $641 $642 forward $105 $-1 #
coedge $-1 $643 $644 $260 $422 reversed $628 $-1 #
edge $-1 $429 -162.62215033417769 $645 162.62215033417769 $421 $646 forward 7 unknown #
coedge $-1 $415 $647 $261 $424 reversed $257 $-1 #
edge $-1 $648 -162.62215033417769 $428 162.62215033417769 $423 $649 forward 7 unknown #
coedge $-1 $418 $262 $647 $650 forward $427 $-1 #
coedge $-1 $262 $418 $643 $651 reversed $427 $-1 #
loop $-1 $-1 $425 $627 #
vertex $-1 $263 $652 #
vertex $-1 $263 $653 #
straight-curve $-1 162.62215033417769 0 81.311075167088845 0 1 0 I I #
loop $-1 $-1 $654 $167 #
coedge $-1 $432 $432 $267 $433 reversed $264 $-1 #
edge $-1 $655 0 $655 6.2831853071796004 $432 $656 forward 7 unknown #
vertex $-1 $268 $657 #
ellipse-curve $-1 0 0 -1.6675695059053322 0 0 -1 0.5 0 0 1 I I #
loop $-1 $-1 $658 $172 #
coedge $-1 $437 $437 $272 $438 reversed $269 $-1 #
edge $-1 $659 0 $659 6.2831853071796004 $437 $660 forward 7 unknown #
vertex $-1 $273 $661 #
ellipse-curve $-1 0 0 -1.6675695059053322 0 0 -1 0.5 0 0 1 I I #
loop $-1 $-1 $662 $177 #
coedge $-1 $442 $442 $277 $443 reversed $274 $-1 #
edge $-1 $663 0 $663 6.2831853071796004 $442 $664 forward 7 unknown #
vertex $-1 $278 $665 #
ellipse-curve $-1 0 0 -1.6675695059053322 0 0 -1 0.5 0 0 1 I I #
face $-1 $666 $667 $60 $-1 $668 reversed single #
loop $-1 $-1 $669 $279 #
plane-surface $-1 -162.62215033417769 0 0 1 0 0 0 0 -1 forward_v I I I I #
coedge $-1 $670 $457 $671 $672 forward $280 $-1 #
coedge $-1 $673 $282 $670 $674 forward $183 $-1 #
coedge $-1 $282 $673 $675 $676 forward $183 $-1 #
coedge $-1 $460 $459 $282 $453 reversed $461 $-1 #
edge $-1 $677 -3.00964594717454 $678 3.00964594717454 $452 $679 forward 7 unknown #
coedge $-1 $284 $283 $680 $681 forward $117 $-1 #
coedge $-1 $682 $683 $283 $456 reversed $667 $-1 #
edge $-1 $463 -162.62215033417769 $684 162.62215033417769 $455 $685 forward 7 unknown #
coedge $-1 $449 $686 $284 $458 reversed $280 $-1 #
edge $-1 $687 -162.62215033417769 $462 162.62215033417769 $457 $688 forward 7 unknown #
coedge $-1 $452 $285 $686 $689 forward $461 $-1 #
coedge $-1 $285 $452 $682 $690 reversed $461 $-1 #
loop $-1 $-1 $459 $666 #
vertex $-1 $286 $691 #
vertex $-1 $286 $692 #
straight-curve $-1 162.62215033417769 0 81.311075167088845 0 1 0 I I #
loop $-1 $-1 $693 $186 #
coedge $-1 $466 $466 $290 $467 reversed $287 $-1 #
edge $-1 $694 0 $694 6.2831853071796004 $466 $695 forward 7 unknown #
vertex $-1 $291 $696 #
ellipse-curve $-1 0 0 -1.6675695059053322 0 0 -1 0.5 0 0 1 I I #
loop $-1 $-1 $697 $191 #
coedge $-1 $471 $471 $295 $472 reversed $292 $-1 #
edge $-1 $698 0 $698 6.2831853071796004 $471 $699 forward 7 unknown #
vertex $-1 $296 $700 #
ellipse-curve $-1 0 0 -1.6675695059053322 0 0 -1 0.5 0 0 1 I I #
loop $-1 $-1 $701 $196 #
coedge $-1 $476 $476 $300 $477 reversed $297 $-1 #
edge $-1 $702 0 $702 6.2831853071796004 $476 $703 forward 7 unknown #
vertex $-1 $301 $704 #
ellipse-curve $-1 0 0 -1.6675695059053322 0 0 -1 0.5 0 0 1 I I #
face $-1 $-1 $317 $48 $-1 $705 reversed single #
loop $-1 $-1 $496 $302 #
plane-surface $-1 0 18.001245200265387 0 0 -1 0 0 0 -1 forward_v I I I I #
coedge $-1 $706 $494 $497 $707 forward $303 $-1 #
coedge $-1 $500 $305 $306 $488 reversed $202 $-1 #
coedge $-1 $494 $706 $305 $486 reversed $303 $-1 #
edge $-1 $501 -4.3633255982722812 $708 4.3633255982722812 $485 $709 forward 7 unknown #
coedge $-1 $307 $306 $706 $710 forward $129 $-1 #
edge $-1 $492 -40.655537583544422 $708 40.655537583544422 $484 $711 forward 7 unknown #
coedge $-1 $497 $496 $307 $490 reversed $481 $-1 #
edge $-1 $712 -40.655537583544422 $491 40.655537583544422 $489 $713 forward 7 unknown #
vertex $-1 $309 $714 #
vertex $-1 $503 $715 #
straight-curve $-1 40.655537583544422 0 -4.3633255982722812 0 -1 0 I I #
coedge $-1 $483 $485 $310 $495 reversed $303 $-1 #
edge $-1 $498 -18.001245200265387 $501 18.001245200265387 $494 $716 forward 7 unknown #
coedge $-1 $489 $311 $316 $504 forward $481 $-1 #
coedge $-1 $311 $489 $483 $707 reversed $481 $-1 #
vertex $-1 $312 $717 #
straight-curve $-1 0 18.001245200265387 4.3633255982722812 -1 0 0 I I #
coedge $-1 $313 $484 $315 $503 reversed $202 $-1 #
vertex $-1 $495 $718 #
straight-curve $-1 0 -18.001245200265387 4.3633255982722812 1 0 0 I I #
edge $-1 $318 -4.3633255982722812 $492 4.3633255982722812 $315 $719 forward 7 unknown #
edge $-1 $319 -4.3633255982722812 $491 4.3633255982722812 $316 $720 forward 7 unknown #
point $-1 40.655537583544422 -18.001245200265387 4.3633255982722812 #
point $-1 40.655537583544422 18.001245200265387 4.3633255982722812 #
face $-1 $-1 $336 $49 $-1 $721 reversed single #
loop $-1 $-1 $523 $321 #
plane-surface $-1 0 2.0749253112199102 0 0 -1 0 0 0 -1 forward_v I I I I #
coedge $-1 $722 $521 $524 $723 forward $322 $-1 #
coedge $-1 $527 $324 $325 $515 reversed $210 $-1 #
coedge $-1 $521 $722 $324 $513 reversed $322 $-1 #
edge $-1 $528 -1.5 $724 1.5 $512 $725 forward 7 unknown #
coedge $-1 $326 $325 $722 $726 forward $133 $-1 #
edge $-1 $519 -40.655537583544422 $724 40.655537583544422 $511 $727 forward 7 unknown #
coedge $-1 $524 $523 $326 $517 reversed $508 $-1 #
edge $-1 $728 -40.655537583544422 $518 40.655537583544422 $516 $729 forward 7 unknown #
vertex $-1 $328 $730 #
vertex $-1 $530 $731 #
straight-curve $-1 40.655537583544422 0 -1.5 0 -1 0 I I #
coedge $-1 $510 $512 $329 $522 reversed $322 $-1 #
edge $-1 $525 -2.0749253112199102 $528 2.0749253112199102 $521 $732 forward 7 unknown #
coedge $-1 $516 $330 $335 $531 forward $508 $-1 #
coedge $-1 $330 $516 $510 $723 reversed $508 $-1 #
vertex $-1 $331 $733 #
straight-curve $-1 0 2.0749253112199102 1.5 -1 0 0 I I #
coedge $-1 $332 $511 $334 $530 reversed $210 $-1 #
vertex $-1 $522 $734 #
straight-curve $-1 0 -2.0749253112199102 1.5 1 0 0 I I #
edge $-1 $337 -1.5 $519 1.5 $334 $735 forward 7 unknown #
edge $-1 $338 -1.5 $518 1.5 $335 $736 forward 7 unknown #
point $-1 40.655537583544422 -2.0749253112199102 1.5 #
point $-1 40.655537583544422 2.0749253112199102 1.5 #
face $-1 $-1 $355 $50 $-1 $737 reversed single #
loop $-1 $-1 $550 $340 #
plane-surface $-1 0 3.3071242187136467 0 0 -1 0 0 0 -1 forward_v I I I I #
coedge $-1 $738 $548 $551 $739 forward $341 $-1 #
coedge $-1 $554 $343 $344 $542 reversed $218 $-1 #
coedge $-1 $548 $738 $343 $540 reversed $341 $-1 #
edge $-1 $555 -81.311075167088845 $740 81.311075167088845 $539 $741 forward 7 unknown #
coedge $-1 $345 $344 $738 $742 forward $137 $-1 #
edge $-1 $546 -162.62215033417769 $740 162.62215033417769 $538 $743 forward 7 unknown #
coedge $-1 $551 $550 $345 $544 reversed $535 $-1 #
edge $-1 $744 -162.62215033417769 $545 162.62215033417769 $543 $745 forward 7 unknown #
vertex $-1 $347 $746 #
vertex $-1 $557 $747 #
straight-curve $-1 162.62215033417769 0 -81.311075167088845 0 -1 0 I I #
coedge $-1 $537 $539 $348 $549 reversed $341 $-1 #
edge $-1 $552 -3.3071242187136467 $555 3.3071242187136467 $548 $748 forward 7 unknown #
coedge $-1 $543 $349 $354 $558 forward $535 $-1 #
coedge $-1 $349 $543 $537 $739 reversed $535 $-1 #
vertex $-1 $350 $749 #
straight-curve $-1 0 3.3071242187136467 81.311075167088845 -1 0 0 I I #
coedge $-1 $351 $538 $353 $557 reversed $218 $-1 #
vertex $-1 $549 $750 #
straight-curve $-1 0 -3.3071242187136467 81.311075167088845 1 0 0 I I #
edge $-1 $356 -81.311075167088845 $546 81.311075167088845 $353 $751 forward 7 unknown #
edge $-1 $357 -81.311075167088845 $545 81.311075167088845 $354 $752 forward 7 unknown #
point $-1 162.62215033417769 -3.3071242187136467 81.311075167088845 #
point $-1 162.62215033417769 3.3071242187136467 81.311075167088845 #
coedge $-1 $561 $561 $-1 $753 reversed $359 $-1 #
vertex $-1 $361 $754 #
ellipse-curve $-1 0 0 -0.5 0 0 -1 1 0 0 1 I I #
point $-1 1 0 -3.2596057008575698 #
face $-1 $-1 $379 $52 $-1 $755 reversed single #
loop $-1 $-1 $581 $364 #
plane-surface $-1 0 3.3071242187136467 0 0 -1 0 0 0 -1 forward_v I I I I #
coedge $-1 $756 $579 $582 $757 forward $365 $-1 #
coedge $-1 $585 $367 $368 $573 reversed $231 $-1 #
coedge $-1 $579 $756 $367 $571 reversed $365 $-1 #
edge $-1 $586 -81.311075167088845 $758 81.311075167088845 $570 $759 forward 7 unknown #
coedge $-1 $369 $368 $756 $760 forward $146 $-1 #
edge $-1 $577 -162.62215033417769 $758 162.62215033417769 $569 $761 forward 7 unknown #
coedge $-1 $582 $581 $369 $575 reversed $566 $-1 #
edge $-1 $762 -162.62215033417769 $576 162.62215033417769 $574 $763 forward 7 unknown #
vertex $-1 $371 $764 #
vertex $-1 $588 $765 #
straight-curve $-1 162.62215033417769 0 -81.311075167088845 0 -1 0 I I #
coedge $-1 $568 $570 $372 $580 reversed $365 $-1 #
edge $-1 $583 -3.3071242187136467 $586 3.3071242187136467 $579 $766 forward 7 unknown #
coedge $-1 $574 $373 $378 $589 forward $566 $-1 #
coedge $-1 $373 $574 $568 $757 reversed $566 $-1 #
vertex $-1 $374 $767 #
straight-curve $-1 0 3.3071242187136467 81.311075167088845 -1 0 0 I I #
coedge $-1 $375 $569 $377 $588 reversed $231 $-1 #
vertex $-1 $580 $768 #
straight-curve $-1 0 -3.3071242187136467 81.311075167088845 1 0 0 I I #
edge $-1 $380 -81.311075167088845 $577 81.311075167088845 $377 $769 forward 7 unknown #
edge $-1 $381 -81.311075167088845 $576 81.311075167088845 $378 $770 forward 7 unknown #
point $-1 162.62215033417769 -3.3071242187136467 81.311075167088845 #
point $-1 162.62215033417769 3.3071242187136467 81.311075167088845 #
coedge $-1 $592 $592 $-1 $771 reversed $383 $-1 #
vertex $-1 $385 $772 #
ellipse-curve $-1 0 0 -0.5 0 0 -1 1 0 0 1 I I #
point $-1 1 0 -3.2596057008575698 #
face $-1 $-1 $403 $54 $-1 $773 reversed single #
loop $-1 $-1 $612 $388 #
plane-surface $-1 0 3.3071242187136467 0 0 -1 0 0 0 -1 forward_v I I I I #
coedge $-1 $774 $610 $613 $775 forward $389 $-1 #
coedge $-1 $616 $391 $392 $604 reversed $244 $-1 #
coedge $-1 $610 $774 $391 $602 reversed $389 $-1 #
edge $-1 $617 -81.311075167088845 $776 81.311075167088845 $601 $777 forward 7 unknown #
coedge $-1 $393 $392 $774 $778 forward $155 $-1 #
edge $-1 $608 -162.62215033417769 $776 162.62215033417769 $600 $779 forward 7 unknown #
coedge $-1 $613 $612 $393 $606 reversed $597 $-1 #
edge $-1 $780 -162.62215033417769 $607 162.62215033417769 $605 $781 forward 7 unknown #
vertex $-1 $395 $782 #
vertex $-1 $619 $783 #
straight-curve $-1 162.62215033417769 0 -81.311075167088845 0 -1 0 I I #
coedge $-1 $599 $601 $396 $611 reversed $389 $-1 #
edge $-1 $614 -3.3071242187136467 $617 3.3071242187136467 $610 $784 forward 7 unknown #
coedge $-1 $605 $397 $402 $620 forward $597 $-1 #
coedge $-1 $397 $605 $599 $775 reversed $597 $-1 #
vertex $-1 $398 $785 #
straight-curve $-1 0 3.3071242187136467 81.311075167088845 -1 0 0 I I #
coedge $-1 $399 $600 $401 $619 reversed $244 $-1 #
vertex $-1 $611 $786 #
straight-curve $-1 0 -3.3071242187136467 81.311075167088845 1 0 0 I I #
edge $-1 $404 -81.311075167088845 $608 81.311075167088845 $401 $787 forward 7 unknown #
edge $-1 $405 -81.311075167088845 $607 81.311075167088845 $402 $788 forward 7 unknown #
point $-1 162.62215033417769 -3.3071242187136467 81.311075167088845 #
point $-1 162.62215033417769 3.3071242187136467 81.311075167088845 #
coedge $-1 $623 $623 $-1 $789 reversed $407 $-1 #
vertex $-1 $409 $790 #
ellipse-curve $-1 0 0 -0.5 0 0 -1 1 0 0 1 I I #
point $-1 1 0 -3.2596057008575698 #
face $-1 $-1 $427 $56 $-1 $791 reversed single #
loop $-1 $-1 $643 $412 #
plane-surface $-1 0 3.00964594717454 0 0 -1 0 0 0 -1 forward_v I I I I #
coedge $-1 $792 $641 $644 $793 forward $413 $-1 #
coedge $-1 $647 $415 $416 $635 reversed $257 $-1 #
coedge $-1 $641 $792 $415 $633 reversed $413 $-1 #
edge $-1 $648 -81.311075167088845 $794 81.311075167088845 $632 $795 forward 7 unknown #
coedge $-1 $417 $416 $792 $796 forward $164 $-1 #
edge $-1 $639 -162.62215033417769 $794 162.62215033417769 $631 $797 forward 7 unknown #
coedge $-1 $644 $643 $417 $637 reversed $628 $-1 #
edge $-1 $798 -162.62215033417769 $638 162.62215033417769 $636 $799 forward 7 unknown #
vertex $-1 $419 $800 #
vertex $-1 $650 $801 #
straight-curve $-1 162.62215033417769 0 -81.311075167088845 0 -1 0 I I #
coedge $-1 $630 $632 $420 $642 reversed $413 $-1 #
edge $-1 $645 -3.00964594717454 $648 3.00964594717454 $641 $802 forward 7 unknown #
coedge $-1 $636 $421 $426 $651 forward $628 $-1 #
coedge $-1 $421 $636 $630 $793 reversed $628 $-1 #
vertex $-1 $422 $803 #
straight-curve $-1 0 3.00964594717454 81.311075167088845 -1 0 0 I I #
coedge $-1 $423 $631 $425 $650 reversed $257 $-1 #
vertex $-1 $642 $804 #
straight-curve $-1 0 -3.00964594717454 81.311075167088845 1 0 0 I I #
edge $-1 $428 -81.311075167088845 $639 81.311075167088845 $425 $805 forward 7 unknown #
edge $-1 $429 -81.311075167088845 $638 81.311075167088845 $426 $806 forward 7 unknown #
point $-1 162.62215033417769 -3.00964594717454 81.311075167088845 #
point $-1 162.62215033417769 3.00964594717454 81.311075167088845 #
coedge $-1 $654 $654 $-1 $807 reversed $431 $-1 #
vertex $-1 $433 $808 #
ellipse-curve $-1 0 0 -0.24999999999999978 0 0 -1 0.5 0 0 1 I I #
point $-1 0.5 0 -1.6675695059053322 #
coedge $-1 $658 $658 $-1 $809 reversed $436 $-1 #
vertex $-1 $438 $810 #
ellipse-curve $-1 0 0 -0.24999999999999978 0 0 -1 0.5 0 0 1 I I #
point $-1 0.5 0 -1.6675695059053322 #
coedge $-1 $662 $662 $-1 $811 reversed $441 $-1 #
vertex $-1 $443 $812 #
ellipse-curve $-1 0 0 -0.24999999999999978 0 0 -1 0.5 0 0 1 I I #
point $-1 0.5 0 -1.6675695059053322 #
face $-1 $-1 $461 $60 $-1 $813 reversed single #
loop $-1 $-1 $682 $446 #
plane-surface $-1 0 3.00964594717454 0 0 -1 0 0 0 -1 forward_v I I I I #
coedge $-1 $814 $680 $683 $815 forward $447 $-1 #
coedge $-1 $686 $449 $450 $674 reversed $280 $-1 #
coedge $-1 $680 $814 $449 $672 reversed $447 $-1 #
edge $-1 $687 -81.311075167088845 $816 81.311075167088845 $671 $817 forward 7 unknown #
coedge $-1 $451 $450 $814 $818 forward $183 $-1 #
edge $-1 $678 -162.62215033417769 $816 162.62215033417769 $670 $819 forward 7 unknown #
coedge $-1 $683 $682 $451 $676 reversed $667 $-1 #
edge $-1 $820 -162.62215033417769 $677 162.62215033417769 $675 $821 forward 7 unknown #
vertex $-1 $453 $822 #
vertex $-1 $689 $823 #
straight-curve $-1 162.62215033417769 0 -81.311075167088845 0 -1 0 I I #
coedge $-1 $669 $671 $454 $681 reversed $447 $-1 #
edge $-1 $684 -3.00964594717454 $687 3.00964594717454 $680 $824 forward 7 unknown #
coedge $-1 $675 $455 $460 $690 forward $667 $-1 #
coedge $-1 $455 $675 $669 $815 reversed $667 $-1 #
vertex $-1 $456 $825 #
straight-curve $-1 0 3.00964594717454 81.311075167088845 -1 0 0 I I #
coedge $-1 $457 $670 $459 $689 reversed $280 $-1 #
vertex $-1 $681 $826 #
straight-curve $-1 0 -3.00964594717454 81.311075167088845 1 0 0 I I #
edge $-1 $462 -81.311075167088845 $678 81.311075167088845 $459 $827 forward 7 unknown #
edge $-1 $463 -81.311075167088845 $677 81.311075167088845 $460 $828 forward 7 unknown #
point $-1 162.62215033417769 -3.00964594717454 81.311075167088845 #
point $-1 162.62215033417769 3.00964594717454 81.311075167088845 #
coedge $-1 $693 $693 $-1 $829 reversed $465 $-1 #
vertex $-1 $467 $830 #
ellipse-curve $-1 0 0 -0.24999999999999978 0 0 -1 0.5 0 0 1 I I #
point $-1 0.5 0 -1.6675695059053322 #
coedge $-1 $697 $697 $-1 $831 reversed $470 $-1 #
vertex $-1 $472 $832 #
ellipse-curve $-1 0 0 -0.24999999999999978 0 0 -1 0.5 0 0 1 I I #
point $-1 0.5 0 -1.6675695059053322 #
coedge $-1 $701 $701 $-1 $833 reversed $475 $-1 #
vertex $-1 $477 $834 #
ellipse-curve $-1 0 0 -0.24999999999999978 0 0 -1 0.5 0 0 1 I I #
point $-1 0.5 0 -1.6675695059053322 #
plane-surface $-1 40.655537583544422 0 0 -1 0 0 0 0 1 forward_v I I I I #
coedge $-1 $485 $483 $487 $710 reversed $303 $-1 #
edge $-1 $498 -4.3633255982722812 $712 4.3633255982722812 $497 $835 forward 7 unknown #
vertex $-1 $710 $836 #
straight-curve $-1 -40.655537583544422 -18.001245200265387 0 0 0 -1 I I #
edge $-1 $708 -18.001245200265387 $712 18.001245200265387 $706 $837 forward 7 unknown #
straight-curve $-1 0 -18.001245200265387 -4.3633255982722812 -1 0 0 I I #
vertex $-1 $490 $838 #
straight-curve $-1 0 18.001245200265387 -4.3633255982722812 1 0 0 I I #
point $-1 40.655537583544422 18.001245200265387 -4.3633255982722812 #
point $-1 40.655537583544422 -18.001245200265387 -4.3633255982722812 #
straight-curve $-1 -40.655537583544422 0 4.3633255982722812 0 -1 0 I I #
point $-1 -40.655537583544422 18.001245200265387 4.3633255982722812 #
point $-1 -40.655537583544422 -18.001245200265387 4.3633255982722812 #
straight-curve $-1 40.655537583544422 -18.001245200265387 0 0 0 -1 I I #
straight-curve $-1 40.655537583544422 18.001245200265387 0 0 0 -1 I I #
plane-surface $-1 40.655537583544422 0 0 -1 0 0 0 0 1 forward_v I I I I #
coedge $-1 $512 $510 $514 $726 reversed $322 $-1 #
edge $-1 $525 -1.5 $728 1.5 $524 $839 forward 7 unknown #
vertex $-1 $726 $840 #
straight-curve $-1 -40.655537583544422 -2.0749253112199102 0 0 0 -1 I I #
edge $-1 $724 -2.0749253112199102 $728 2.0749253112199102 $722 $841 forward 7 unknown #
straight-curve $-1 0 -2.0749253112199102 -1.5 -1 0 0 I I #
vertex $-1 $517 $842 #
straight-curve $-1 0 2.0749253112199102 -1.5 1 0 0 I I #
point $-1 40.655537583544422 2.0749253112199102 -1.5 #
point $-1 40.655537583544422 -2.0749253112199102 -1.5 #
straight-curve $-1 -40.655537583544422 0 1.5 0 -1 0 I I #
point $-1 -40.655537583544422 2.0749253112199102 1.5 #
point $-1 -40.655537583544422 -2.0749253112199102 1.5 #
straight-curve $-1 40.655537583544422 -2.0749253112199102 0 0 0 -1 I I #
straight-curve $-1 40.655537583544422 2.0749253112199102 0 0 0 -1 I I #
plane-surface $-1 162.62215033417769 0 0 -1 0 0 0 0 1 forward_v I I I I #
coedge $-1 $539 $537 $541 $742 reversed $341 $-1 #
edge $-1 $552 -81.311075167088845 $744 81.311075167088845 $551 $843 forward 7 unknown #
vertex $-1 $742 $844 #
straight-curve $-1 -162.62215033417769 -3.3071242187136467 0 0 0 -1 I I #
edge $-1 $740 -3.3071242187136467 $744 3.3071242187136467 $738 $845 forward 7 unknown #
straight-curve $-1 0 -3.3071242187136467 -81.311075167088845 -1 0 0 I I #
vertex $-1 $544 $846 #
straight-curve $-1 0 3.3071242187136467 -81.311075167088845 1 0 0 I I #
point $-1 162.62215033417769 3.3071242187136467 -81.311075167088845 #
point $-1 162.62215033417769 -3.3071242187136467 -81.311075167088845 #
straight-curve $-1 -162.62215033417769 0 81.311075167088845 0 -1 0 I I #
point $-1 -162.62215033417769 3.3071242187136467 81.311075167088845 #
point $-1 -162.62215033417769 -3.3071242187136467 81.311075167088845 #
straight-curve $-1 162.62215033417769 -3.3071242187136467 0 0 0 -1 I I #
straight-curve $-1 162.62215033417769 3.3071242187136467 0 0 0 -1 I I #
edge $-1 $847 1 $847 0 $561 $-1 forward 7 unknown #
point $-1 1 0 -0.5 #
plane-surface $-1 162.62215033417769 0 0 -1 0 0 0 0 1 forward_v I I I I #
coedge $-1 $570 $568 $572 $760 reversed $365 $-1 #
edge $-1 $583 -81.311075167088845 $762 81.311075167088845 $582 $848 forward 7 unknown #
vertex $-1 $760 $849 #
straight-curve $-1 -162.62215033417769 -3.3071242187136467 0 0 0 -1 I I #
edge $-1 $758 -3.3071242187136467 $762 3.3071242187136467 $756 $850 forward 7 unknown #
straight-curve $-1 0 -3.3071242187136467 -81.311075167088845 -1 0 0 I I #
vertex $-1 $575 $851 #
straight-curve $-1 0 3.3071242187136467 -81.311075167088845 1 0 0 I I #
point $-1 162.62215033417769 3.3071242187136467 -81.311075167088845 #
point $-1 162.62215033417769 -3.3071242187136467 -81.311075167088845 #
straight-curve $-1 -162.62215033417769 0 81.311075167088845 0 -1 0 I I #
point $-1 -162.62215033417769 3.3071242187136467 81.311075167088845 #
point $-1 -162.62215033417769 -3.3071242187136467 81.311075167088845 #
straight-curve $-1 162.62215033417769 -3.3071242187136467 0 0 0 -1 I I #
straight-curve $-1 162.62215033417769 3.3071242187136467 0 0 0 -1 I I #
edge $-1 $852 1 $852 0 $592 $-1 forward 7 unknown #
point $-1 1 0 -0.5 #
plane-surface $-1 162.62215033417769 0 0 -1 0 0 0 0 1 forward_v I I I I #
coedge $-1 $601 $599 $603 $778 reversed $389 $-1 #
edge $-1 $614 -81.311075167088845 $780 81.311075167088845 $613 $853 forward 7 unknown #
vertex $-1 $778 $854 #
straight-curve $-1 -162.62215033417769 -3.3071242187136467 0 0 0 -1 I I #
edge $-1 $776 -3.3071242187136467 $780 3.3071242187136467 $774 $855 forward 7 unknown #
straight-curve $-1 0 -3.3071242187136467 -81.311075167088845 -1 0 0 I I #
vertex $-1 $606 $856 #
straight-curve $-1 0 3.3071242187136467 -81.311075167088845 1 0 0 I I #
point $-1 162.62215033417769 3.3071242187136467 -81.311075167088845 #
point $-1 162.62215033417769 -3.3071242187136467 -81.311075167088845 #
straight-curve $-1 -162.62215033417769 0 81.311075167088845 0 -1 0 I I #
point $-1 -162.62215033417769 3.3071242187136467 81.311075167088845 #
point $-1 -162.62215033417769 -3.3071242187136467 81.311075167088845 #
straight-curve $-1 162.62215033417769 -3.3071242187136467 0 0 0 -1 I I #
straight-curve $-1 162.62215033417769 3.3071242187136467 0 0 0 -1 I I #
edge $-1 $857 1 $857 0 $623 $-1 forward 7 unknown #
point $-1 1 0 -0.5 #
plane-surface $-1 162.62215033417769 0 0 -1 0 0 0 0 1 forward_v I I I I #
coedge $-1 $632 $630 $634 $796 reversed $413 $-1 #
edge $-1 $645 -81.311075167088845 $798 81.311075167088845 $644 $858 forward 7 unknown #
vertex $-1 $796 $859 #
straight-curve $-1 -162.62215033417769 -3.00964594717454 0 0 0 -1 I I #
edge $-1 $794 -3.00964594717454 $798 3.00964594717454 $792 $860 forward 7 unknown #
straight-curve $-1 0 -3.00964594717454 -81.311075167088845 -1 0 0 I I #
vertex $-1 $637 $861 #
straight-curve $-1 0 3.00964594717454 -81.311075167088845 1 0 0 I I #
point $-1 162.62215033417769 3.00964594717454 -81.311075167088845 #
point $-1 162.62215033417769 -3.00964594717454 -81.311075167088845 #
straight-curve $-1 -162.62215033417769 0 81.311075167088845 0 -1 0 I I #
point $-1 -162.62215033417769 3.00964594717454 81.311075167088845 #
point $-1 -162.62215033417769 -3.00964594717454 81.311075167088845 #
straight-curve $-1 162.62215033417769 -3.00964594717454 0 0 0 -1 I I #
straight-curve $-1 162.62215033417769 3.00964594717454 0 0 0 -1 I I #
edge $-1 $862 1 $862 0 $654 $-1 forward 7 unknown #
point $-1 0.5 0 -0.24999999999999978 #
edge $-1 $863 1 $863 0 $658 $-1 forward 7 unknown #
point $-1 0.5 0 -0.24999999999999978 #
edge $-1 $864 1 $864 0 $662 $-1 forward 7 unknown #
point $-1 0.5 0 -0.24999999999999978 #
plane-surface $-1 162.62215033417769 0 0 -1 0 0 0 0 1 forward_v I I I I #
coedge $-1 $671 $669 $673 $818 reversed $447 $-1 #
edge $-1 $684 -81.311075167088845 $820 81.311075167088845 $683 $865 forward 7 unknown #
vertex $-1 $818 $866 #
straight-curve $-1 -162.62215033417769 -3.00964594717454 0 0 0 -1 I I #
edge $-1 $816 -3.00964594717454 $820 3.00964594717454 $814 $867 forward 7 unknown #
straight-curve $-1 0 -3.00964594717454 -81.311075167088845 -1 0 0 I I #
vertex $-1 $676 $868 #
straight-curve $-1 0 3.00964594717454 -81.311075167088845 1 0 0 I I #
point $-1 162.62215033417769 3.00964594717454 -81.311075167088845 #
point $-1 162.62215033417769 -3.00964594717454 -81.311075167088845 #
straight-curve $-1 -162.62215033417769 0 81.311075167088845 0 -1 0 I I #
point $-1 -162.62215033417769 3.00964594717454 81.311075167088845 #
point $-1 -162.62215033417769 -3.00964594717454 81.311075167088845 #
straight-curve $-1 162.62215033417769 -3.00964594717454 0 0 0 -1 I I #
straight-curve $-1 162.62215033417769 3.00964594717454 0 0 0 -1 I I #
edge $-1 $869 1 $869 0 $693 $-1 forward 7 unknown #
point $-1 0.5 0 -0.24999999999999978 #
edge $-1 $870 1 $870 0 $697 $-1 forward 7 unknown #
point $-1 0.5 0 -0.24999999999999978 #
edge $-1 $871 1 $871 0 $701 $-1 forward 7 unknown #
point $-1 0.5 0 -0.24999999999999978 #
straight-curve $-1 -40.655537583544422 18.001245200265387 0 0 0 -1 I I #
point $-1 -40.655537583544422 -18.001245200265387 -4.3633255982722812 #
straight-curve $-1 -40.655537583544422 0 -4.3633255982722812 0 1 0 I I #
point $-1 -40.655537583544422 18.001245200265387 -4.3633255982722812 #
straight-curve $-1 -40.655537583544422 2.0749253112199102 0 0 0 -1 I I #
point $-1 -40.655537583544422 -2.0749253112199102 -1.5 #
straight-curve $-1 -40.655537583544422 0 -1.5 0 1 0 I I #
point $-1 -40.655537583544422 2.0749253112199102 -1.5 #
straight-curve $-1 -162.62215033417769 3.3071242187136467 0 0 0 -1 I I #
point $-1 -162.62215033417769 -3.3071242187136467 -81.311075167088845 #
straight-curve $-1 -162.62215033417769 0 -81.311075167088845 0 1 0 I I #
point $-1 -162.62215033417769 3.3071242187136467 -81.311075167088845 #
vertex $-1 $753 $872 #
straight-curve $-1 -162.62215033417769 3.3071242187136467 0 0 0 -1 I I #
point $-1 -162.62215033417769 -3.3071242187136467 -81.311075167088845 #
straight-curve $-1 -162.62215033417769 0 -81.311075167088845 0 1 0 I I #
point $-1 -162.62215033417769 3.3071242187136467 -81.311075167088845 #
vertex $-1 $771 $873 #
straight-curve $-1 -162.62215033417769 3.3071242187136467 0 0 0 -1 I I #
point $-1 -162.62215033417769 -3.3071242187136467 -81.311075167088845 #
straight-curve $-1 -162.62215033417769 0 -81.311075167088845 0 1 0 I I #
point $-1 -162.62215033417769 3.3071242187136467 -81.311075167088845 #
vertex $-1 $789 $874 #
straight-curve $-1 -162.62215033417769 3.00964594717454 0 0 0 -1 I I #
point $-1 -162.62215033417769 -3.00964594717454 -81.311075167088845 #
straight-curve $-1 -162.62215033417769 0 -81.311075167088845 0 1 0 I I #
point $-1 -162.62215033417769 3.00964594717454 -81.311075167088845 #
vertex $-1 $807 $875 #
vertex $-1 $809 $876 #
vertex $-1 $811 $877 #
straight-curve $-1 -162.62215033417769 3.00964594717454 0 0 0 -1 I I #
point $-1 -162.62215033417769 -3.00964594717454 -81.311075167088845 #
straight-curve $-1 -162.62215033417769 0 -81.311075167088845 0 1 0 I I #
point $-1 -162.62215033417769 3.00964594717454 -81.311075167088845 #
vertex $-1 $829 $878 #
vertex $-1 $831 $879 #
vertex $-1 $833 $880 #
point $-1 0 0 0.5 #
point $-1 0 0 0.5 #
point $-1 0 0 0.5 #
point $-1 0 0 0.24999999999999978 #
point $-1 0 0 0.24999999999999978 #
point $-1 0 0 0.24999999999999978 #
point $-1 0 0 0.24999999999999978 #
point $-1 0 0 0.24999999999999978 #
point $-1 0 0 0.24999999999999978 #
End-of-ACIS-data 