500 0 14 0           
7 Unknown 11 ACIS 5.0 NT 24 Fri Mar 26 00:02:10 1999 
-1 9.9999999999999995e-007 1e-010 
body $-1 $14 $-1 $15 #
body $-1 $16 $-1 $17 #
body $-1 $18 $-1 $19 #
body $-1 $20 $-1 $21 #
body $-1 $22 $-1 $23 #
body $-1 $24 $-1 $25 #
body $-1 $26 $-1 $27 #
body $-1 $28 $-1 $29 #
body $-1 $30 $-1 $31 #
body $-1 $32 $-1 $33 #
body $-1 $34 $-1 $35 #
body $-1 $36 $-1 $37 #
body $-1 $38 $-1 $39 #
body $-1 $40 $-1 $41 #
lump $-1 $-1 $42 $0 #
transform $-1 1 0 0 0 1 0 0 0 1 44.455702383495591 20.17513114700068 4.9922166612714474 1 rotate no_reflect no_shear #
lump $-1 $-1 $43 $1 #
transform $-1 1 0 0 0 1 0 0 0 1 44.455702383495591 20.17513114700068 4.9922166612714474 1 rotate no_reflect no_shear #
lump $-1 $-1 $44 $2 #
transform $-1 1 0 0 0 1 0 0 0 1 44.455702383495591 20.17513114700068 4.9922166612714474 1 rotate no_reflect no_shear #
lump $-1 $-1 $45 $3 #
transform $-1 1 0 0 0 1 0 0 0 1 44.455702383495591 20.17513114700068 4.9922166612714474 1 rotate no_reflect no_shear #
lump $-1 $-1 $46 $4 #
transform $-1 1 0 0 0 1 0 0 0 1 44.455702383495591 20.17513114700068 4.9922166612714474 1 rotate no_reflect no_shear #
lump $-1 $-1 $47 $5 #
transform $-1 1 0 0 0 1 0 0 0 1 44.455702383495591 20.17513114700068 4.9922166612714474 1 rotate no_reflect no_shear #
lump $-1 $-1 $48 $6 #
transform $-1 1 0 0 0 1 0 0 0 1 44.455702383495591 20.17513114700068 4.9922166612714474 1 rotate no_reflect no_shear #
lump $-1 $-1 $49 $7 #
transform $-1 1 0 0 0 1 0 0 0 1 44.455702383495591 20.17513114700068 4.9922166612714474 1 rotate no_reflect no_shear #
lump $-1 $-1 $50 $8 #
transform $-1 1 0 0 0 1 0 0 0 1 44.455702383495591 20.17513114700068 4.9922166612714474 1 rotate no_reflect no_shear #
lump $-1 $-1 $51 $9 #
transform $-1 1 0 0 0 1 0 0 0 1 44.455702383495591 20.17513114700068 4.9922166612714474 1 rotate no_reflect no_shear #
lump $-1 $-1 $52 $10 #
transform $-1 1 0 0 0 1 0 0 0 1 44.455702383495591 20.17513114700068 4.9922166612714474 1 rotate no_reflect no_shear #
lump $-1 $-1 $53 $11 #
transform $-1 1 0 0 0 1 0 0 0 1 44.455702383495591 20.17513114700068 4.9922166612714474 1 rotate no_reflect no_shear #
lump $-1 $-1 $54 $12 #
transform $-1 1 0 0 0 1 0 0 0 1 44.455702383495591 20.17513114700068 4.9922166612714474 1 rotate no_reflect no_shear #
lump $-1 $-1 $55 $13 #
transform $-1 1 0 0 0 1 0 0 0 1 44.455702383495591 20.17513114700068 4.9922166612714474 1 rotate no_reflect no_shear #
shell $-1 $-1 $-1 $56 $-1 $14 #
shell $-1 $-1 $-1 $57 $-1 $16 #
shell $-1 $-1 $-1 $58 $-1 $18 #
shell $-1 $-1 $-1 $59 $-1 $20 #
shell $-1 $-1 $-1 $60 $-1 $22 #
shell $-1 $-1 $-1 $61 $-1 $24 #
shell $-1 $-1 $-1 $62 $-1 $26 #
shell $-1 $-1 $-1 $63 $-1 $28 #
shell $-1 $-1 $-1 $64 $-1 $30 #
shell $-1 $-1 $-1 $65 $-1 $32 #
shell $-1 $-1 $-1 $66 $-1 $34 #
shell $-1 $-1 $-1 $67 $-1 $36 #
shell $-1 $-1 $-1 $68 $-1 $38 #
shell $-1 $-1 $-1 $69 $-1 $40 #
face $-1 $70 $71 $42 $-1 $72 forward single #
face $-1 $73 $74 $43 $-1 $75 forward single #
face $-1 $76 $77 $44 $-1 $78 reversed single #
face $-1 $79 $80 $45 $-1 $81 forward single #
face $-1 $82 $83 $46 $-1 $84 forward single #
face $-1 $85 $86 $47 $-1 $87 reversed single #
face $-1 $88 $89 $48 $-1 $90 forward single #
face $-1 $91 $92 $49 $-1 $93 forward single #
face $-1 $94 $95 $50 $-1 $96 reversed single #
face $-1 $97 $98 $51 $-1 $99 forward single #
face $-1 $100 $101 $52 $-1 $102 forward single #
face $-1 $103 $104 $53 $-1 $105 reversed single #
face $-1 $106 $107 $54 $-1 $108 forward single #
face $-1 $109 $110 $55 $-1 $111 forward single #
face $-1 $112 $113 $42 $-1 $114 reversed single #
loop $-1 $-1 $115 $56 #
plane-surface $-1 0 0 4.9922166612714474 0 0 1 1 0 0 forward_v I I I I #
face $-1 $116 $117 $43 $-1 $118 reversed single #
loop $-1 $-1 $119 $57 #
plane-surface $-1 0 -20.17513114700068 0 0 1 0 0 0 1 forward_v I I I I #
face $-1 $120 $121 $44 $-1 $122 reversed single #
loop $-1 $-1 $123 $58 #
plane-surface $-1 -119.02308142792918 -12.288365006960781 49.042404145564618 0 1 0 -0.83867057594974714 0 0.54463902268945019 forward_v I I I I #
face $-1 $124 $125 $45 $-1 $126 forward single #
loop $-1 $127 $128 $59 #
cone-surface $-1 -42.615972101155712 -10.385830135968073 2.5326805929532061 0.83867057594974714 0 -0.54463902268945019 0.2723195113447251 0 0.41933528797487357 1 I I 0 1 0.5 forward I I I I #
face $-1 $129 $130 $46 $-1 $131 forward single #
loop $-1 $132 $133 $60 #
cone-surface $-1 -42.615972101155712 -7.5320278294790111 2.5326805929532061 0.83867057594974714 0 -0.54463902268945019 0.2723195113447251 0 0.41933528797487357 1 I I 0 1 0.5 forward I I I I #
face $-1 $134 $135 $47 $-1 $136 reversed single #
loop $-1 $-1 $137 $61 #
plane-surface $-1 -119.02308142792918 5.393019312082167 49.042404145564618 0 1 0 -0.83867057594974714 0 0.54463902268945019 forward_v I I I I #
face $-1 $138 $139 $48 $-1 $140 forward single #
loop $-1 $141 $142 $62 #
cone-surface $-1 -42.615972101155712 7.2955541830748736 2.5326805929532061 0.83867057594974714 0 -0.54463902268945019 0.2723195113447251 0 0.41933528797487357 1 I I 0 1 0.5 forward I I I I #
face $-1 $143 $144 $49 $-1 $145 forward single #
loop $-1 $146 $147 $63 #
cone-surface $-1 -42.615972101155712 10.149356489563939 2.5326805929532061 0.83867057594974714 0 -0.54463902268945019 0.2723195113447251 0 0.41933528797487357 1 I I 0 1 0.5 forward I I I I #
face $-1 $148 $149 $50 $-1 $150 reversed single #
loop $-1 $-1 $151 $64 #
plane-surface $-1 70.598460829688975 -5.6294929584863027 123.60978318999821 0 -1 0 -0.83867057594974714 0 -0.54463902268945019 forward_v I I I I #
face $-1 $152 $153 $51 $-1 $154 forward single #
loop $-1 $155 $156 $65 #
cone-surface $-1 42.615972101155698 -10.385830135968073 2.5326805929531955 -0.83867057594974714 0 -0.54463902268945019 0.2723195113447251 0 -0.41933528797487357 1 I I 0 1 0.5 forward I I I I #
face $-1 $157 $158 $52 $-1 $159 forward single #
loop $-1 $160 $161 $66 #
cone-surface $-1 42.615972101155698 -7.5320278294790111 2.5326805929531955 -0.83867057594974714 0 -0.54463902268945019 0.2723195113447251 0 -0.41933528797487357 1 I I 0 1 0.5 forward I I I I #
face $-1 $162 $163 $53 $-1 $164 reversed single #
loop $-1 $-1 $165 $67 #
plane-surface $-1 70.598460829688975 12.051891360556645 123.60978318999821 0 -1 0 -0.83867057594974714 0 -0.54463902268945019 forward_v I I I I #
face $-1 $166 $167 $54 $-1 $168 forward single #
loop $-1 $169 $170 $68 #
cone-surface $-1 42.615972101155698 7.2955541830748736 2.5326805929531955 -0.83867057594974714 0 -0.54463902268945019 0.2723195113447251 0 -0.41933528797487357 1 I I 0 1 0.5 forward I I I I #
face $-1 $171 $172 $55 $-1 $173 forward single #
loop $-1 $174 $175 $69 #
cone-surface $-1 42.615972101155698 10.149356489563939 2.5326805929531955 -0.83867057594974714 0 -0.54463902268945019 0.2723195113447251 0 -0.41933528797487357 1 I I 0 1 0.5 forward I I I I #
face $-1 $176 $177 $42 $-1 $178 reversed single #
loop $-1 $-1 $179 $70 #
plane-surface $-1 0 0 -4.9922166612714474 0 0 1 1 0 0 forward_v I I I I #
coedge $-1 $180 $181 $182 $183 forward $71 $-1 #
face $-1 $184 $185 $43 $-1 $186 reversed single #
loop $-1 $-1 $187 $73 #
plane-surface $-1 0 0 -4.9922166612714474 0 0 1 1 0 0 forward_v I I I I #
coedge $-1 $188 $189 $190 $191 forward $74 $-1 #
face $-1 $192 $193 $44 $-1 $194 reversed single #
loop $-1 $-1 $195 $76 #
plane-surface $-1 -44.455702383495591 -8.9589289827235419 0.61778354732441443 -0.83867057594974714 0 0.54463902268945019 0.54463902268945019 0 0.83867057594974714 forward_v I I I I #
coedge $-1 $196 $197 $198 $199 reversed $77 $-1 #
face $-1 $-1 $200 $45 $-1 $201 forward single #
loop $-1 $202 $203 $79 #
cone-surface $-1 -41.986969169193401 -10.385830135968073 2.1242013259361183 0.83867057594974714 0 -0.54463902268945019 0.13615975567236255 0 0.20966764398743679 1 I I -0.70710678118654746 0.70710678118654746 0.25 forward I I I I #
loop $-1 $-1 $204 $59 #
coedge $-1 $128 $128 $205 $206 reversed $80 $-1 #
face $-1 $-1 $207 $46 $-1 $208 forward single #
loop $-1 $209 $210 $82 #
cone-surface $-1 -41.986969169193401 -7.5320278294790111 2.1242013259361183 0.83867057594974714 0 -0.54463902268945019 0.13615975567236255 0 0.20966764398743679 1 I I -0.70710678118654746 0.70710678118654746 0.25 forward I I I I #
loop $-1 $-1 $211 $60 #
coedge $-1 $133 $133 $212 $213 reversed $83 $-1 #
face $-1 $214 $215 $47 $-1 $216 reversed single #
loop $-1 $-1 $217 $85 #
plane-surface $-1 -44.455702383495591 8.7224553363194062 0.61778354732441443 -0.83867057594974714 0 0.54463902268945019 0.54463902268945019 0 0.83867057594974714 forward_v I I I I #
coedge $-1 $218 $219 $220 $221 reversed $86 $-1 #
face $-1 $-1 $222 $48 $-1 $223 forward single #
loop $-1 $224 $225 $88 #
cone-surface $-1 -41.986969169193401 7.2955541830748736 2.1242013259361183 0.83867057594974714 0 -0.54463902268945019 0.13615975567236255 0 0.20966764398743679 1 I I -0.70710678118654746 0.70710678118654746 0.25 forward I I I I #
loop $-1 $-1 $226 $62 #
coedge $-1 $142 $142 $227 $228 reversed $89 $-1 #
face $-1 $-1 $229 $49 $-1 $230 forward single #
loop $-1 $231 $232 $91 #
cone-surface $-1 -41.986969169193401 10.149356489563939 2.1242013259361183 0.83867057594974714 0 -0.54463902268945019 0.13615975567236255 0 0.20966764398743679 1 I I -0.70710678118654746 0.70710678118654746 0.25 forward I I I I #
loop $-1 $-1 $233 $63 #
coedge $-1 $147 $147 $234 $235 reversed $92 $-1 #
face $-1 $236 $237 $50 $-1 $238 reversed single #
loop $-1 $-1 $239 $94 #
plane-surface $-1 -3.9689182147446189 -8.9589289827235419 75.185162591758001 0.83867057594974714 0 0.54463902268945019 0.54463902268945019 0 -0.83867057594974714 forward_v I I I I #
coedge $-1 $240 $241 $242 $243 reversed $95 $-1 #
face $-1 $-1 $244 $51 $-1 $245 forward single #
loop $-1 $246 $247 $97 #
cone-surface $-1 41.986969169193387 -10.385830135968073 2.1242013259361077 -0.83867057594974714 0 -0.54463902268945019 0.13615975567236255 0 -0.20966764398743679 1 I I -0.70710678118654746 0.70710678118654746 0.25 forward I I I I #
loop $-1 $-1 $248 $65 #
coedge $-1 $156 $156 $249 $250 reversed $98 $-1 #
face $-1 $-1 $251 $52 $-1 $252 forward single #
loop $-1 $253 $254 $100 #
cone-surface $-1 41.986969169193387 -7.5320278294790111 2.1242013259361077 -0.83867057594974714 0 -0.54463902268945019 0.13615975567236255 0 -0.20966764398743679 1 I I -0.70710678118654746 0.70710678118654746 0.25 forward I I I I #
loop $-1 $-1 $255 $66 #
coedge $-1 $161 $161 $256 $257 reversed $101 $-1 #
face $-1 $258 $259 $53 $-1 $260 reversed single #
loop $-1 $-1 $261 $103 #
plane-surface $-1 -3.9689182147446189 8.7224553363194062 75.185162591758001 0.83867057594974714 0 0.54463902268945019 0.54463902268945019 0 -0.83867057594974714 forward_v I I I I #
coedge $-1 $262 $263 $264 $265 reversed $104 $-1 #
face $-1 $-1 $266 $54 $-1 $267 forward single #
loop $-1 $268 $269 $106 #
cone-surface $-1 41.986969169193387 7.2955541830748736 2.1242013259361077 -0.83867057594974714 0 -0.54463902268945019 0.13615975567236255 0 -0.20966764398743679 1 I I -0.70710678118654746 0.70710678118654746 0.25 forward I I I I #
loop $-1 $-1 $270 $68 #
coedge $-1 $170 $170 $271 $272 reversed $107 $-1 #
face $-1 $-1 $273 $55 $-1 $274 forward single #
loop $-1 $275 $276 $109 #
cone-surface $-1 41.986969169193387 10.149356489563939 2.1242013259361077 -0.83867057594974714 0 -0.54463902268945019 0.13615975567236255 0 -0.20966764398743679 1 I I -0.70710678118654746 0.70710678118654746 0.25 forward I I I I #
loop $-1 $-1 $277 $69 #
coedge $-1 $175 $175 $278 $279 reversed $110 $-1 #
face $-1 $280 $281 $42 $-1 $282 reversed single #
loop $-1 $-1 $283 $112 #
plane-surface $-1 0 -20.17513114700068 0 0 1 0 0 0 1 forward_v I I I I #
coedge $-1 $284 $285 $286 $287 forward $113 $-1 #
coedge $-1 $288 $115 $289 $290 forward $71 $-1 #
coedge $-1 $115 $288 $291 $292 forward $71 $-1 #
coedge $-1 $293 $294 $115 $183 reversed $295 $-1 #
edge $-1 $296 -20.17513114700068 $297 20.17513114700068 $182 $298 forward 7 unknown #
face $-1 $299 $300 $43 $-1 $301 reversed single #
loop $-1 $-1 $302 $116 #
plane-surface $-1 -35.971269060952693 -25.162624802916145 0 0 1 0 0 0 1 forward_v I I I I #
coedge $-1 $303 $304 $189 $305 forward $117 $-1 #
coedge $-1 $306 $119 $307 $308 reversed $74 $-1 #
coedge $-1 $119 $306 $187 $305 reversed $74 $-1 #
coedge $-1 $309 $310 $119 $191 reversed $300 $-1 #
edge $-1 $311 -4.9922166612714474 $312 4.9922166612714474 $190 $313 forward 7 unknown #
face $-1 $314 $315 $44 $-1 $316 reversed single #
loop $-1 $-1 $317 $120 #
plane-surface $-1 -119.02308142792918 -5.6294929584863027 49.042404145564618 0 -1 0 0.83867057594974714 0 -0.54463902268945019 forward_v I I I I #
coedge $-1 $318 $319 $320 $321 reversed $121 $-1 #
coedge $-1 $197 $123 $322 $323 reversed $77 $-1 #
coedge $-1 $123 $196 $318 $324 reversed $77 $-1 #
coedge $-1 $320 $325 $123 $199 forward $326 $-1 #
edge $-1 $327 15.055838330469001 $328 17.896628319199017 $198 $329 forward 7 unknown #
loop $-1 $-1 $205 $124 #
plane-surface $-1 -44.455702383495591 -8.9589289827235419 0.61778354732441443 -0.83867057594974714 0 0.54463902268945019 0.54463902268945019 0 0.83867057594974714 forward_v I I I I #
loop $-1 $-1 $330 $79 #
coedge $-1 $203 $203 $204 $331 reversed $125 $-1 #
coedge $-1 $204 $204 $203 $331 forward $127 $-1 #
coedge $-1 $205 $205 $128 $206 forward $200 $-1 #
edge $-1 $332 0 $332 6.2831853071796004 $205 $333 forward 7 unknown #
loop $-1 $-1 $212 $129 #
plane-surface $-1 -44.455702383495591 -8.9589289827235419 0.61778354732441443 -0.83867057594974714 0 0.54463902268945019 0.54463902268945019 0 0.83867057594974714 forward_v I I I I #
loop $-1 $-1 $334 $82 #
coedge $-1 $210 $210 $211 $335 reversed $130 $-1 #
coedge $-1 $211 $211 $210 $335 forward $132 $-1 #
coedge $-1 $212 $212 $133 $213 forward $207 $-1 #
edge $-1 $336 0 $336 6.2831853071796004 $212 $337 forward 7 unknown #
face $-1 $338 $339 $47 $-1 $340 forward single #
loop $-1 $-1 $341 $134 #
plane-surface $-1 -119.02308142792918 12.051891360556645 49.042404145564618 0 -1 0 0.83867057594974714 0 -0.54463902268945019 forward_v I I I I #
coedge $-1 $342 $343 $344 $345 reversed $135 $-1 #
coedge $-1 $219 $137 $346 $347 reversed $86 $-1 #
coedge $-1 $137 $218 $342 $348 reversed $86 $-1 #
coedge $-1 $344 $349 $137 $221 forward $339 $-1 #
edge $-1 $350 15.055838330469001 $351 17.896628319199017 $220 $352 forward 7 unknown #
loop $-1 $-1 $227 $138 #
plane-surface $-1 -44.455702383495591 8.7224553363194062 0.61778354732441443 -0.83867057594974714 0 0.54463902268945019 0.54463902268945019 0 0.83867057594974714 forward_v I I I I #
loop $-1 $-1 $353 $88 #
coedge $-1 $225 $225 $226 $354 reversed $139 $-1 #
coedge $-1 $226 $226 $225 $354 forward $141 $-1 #
coedge $-1 $227 $227 $142 $228 forward $222 $-1 #
edge $-1 $355 0 $355 6.2831853071796004 $227 $356 forward 7 unknown #
loop $-1 $-1 $234 $143 #
plane-surface $-1 -44.455702383495591 8.7224553363194062 0.61778354732441443 -0.83867057594974714 0 0.54463902268945019 0.54463902268945019 0 0.83867057594974714 forward_v I I I I #
loop $-1 $-1 $357 $91 #
coedge $-1 $232 $232 $233 $358 reversed $144 $-1 #
coedge $-1 $233 $233 $232 $358 forward $146 $-1 #
coedge $-1 $234 $234 $147 $235 forward $229 $-1 #
edge $-1 $359 0 $359 6.2831853071796004 $234 $360 forward 7 unknown #
face $-1 $361 $362 $50 $-1 $363 forward single #
loop $-1 $-1 $364 $148 #
plane-surface $-1 70.598460829688975 -12.288365006960781 123.60978318999821 0 1 0 0.83867057594974714 0 0.54463902268945019 forward_v I I I I #
coedge $-1 $365 $366 $367 $368 reversed $149 $-1 #
coedge $-1 $241 $151 $369 $370 reversed $95 $-1 #
coedge $-1 $151 $240 $365 $371 reversed $95 $-1 #
coedge $-1 $367 $372 $151 $243 forward $362 $-1 #
edge $-1 $373 -9.156471968651104 $374 -6.3156819799210737 $242 $375 forward 7 unknown #
loop $-1 $-1 $249 $152 #
plane-surface $-1 -3.9689182147446189 -8.9589289827235419 75.185162591758001 0.83867057594974714 0 0.54463902268945019 0.54463902268945019 0 -0.83867057594974714 forward_v I I I I #
loop $-1 $-1 $376 $97 #
coedge $-1 $247 $247 $248 $377 reversed $153 $-1 #
coedge $-1 $248 $248 $247 $377 forward $155 $-1 #
coedge $-1 $249 $249 $156 $250 forward $244 $-1 #
edge $-1 $378 0 $378 6.2831853071796004 $249 $379 forward 7 unknown #
loop $-1 $-1 $256 $157 #
plane-surface $-1 -3.9689182147446189 -8.9589289827235419 75.185162591758001 0.83867057594974714 0 0.54463902268945019 0.54463902268945019 0 -0.83867057594974714 forward_v I I I I #
loop $-1 $-1 $380 $100 #
coedge $-1 $254 $254 $255 $381 reversed $158 $-1 #
coedge $-1 $255 $255 $254 $381 forward $160 $-1 #
coedge $-1 $256 $256 $161 $257 forward $251 $-1 #
edge $-1 $382 0 $382 6.2831853071796004 $256 $383 forward 7 unknown #
face $-1 $384 $385 $53 $-1 $386 reversed single #
loop $-1 $-1 $387 $162 #
plane-surface $-1 70.598460829688975 5.393019312082167 123.60978318999821 0 1 0 0.83867057594974714 0 0.54463902268945019 forward_v I I I I #
coedge $-1 $388 $389 $390 $391 reversed $163 $-1 #
coedge $-1 $263 $165 $392 $393 reversed $104 $-1 #
coedge $-1 $165 $262 $388 $394 reversed $104 $-1 #
coedge $-1 $390 $395 $165 $265 forward $396 $-1 #
edge $-1 $397 -9.156471968651104 $398 -6.3156819799210737 $264 $399 forward 7 unknown #
loop $-1 $-1 $271 $166 #
plane-surface $-1 -3.9689182147446189 8.7224553363194062 75.185162591758001 0.83867057594974714 0 0.54463902268945019 0.54463902268945019 0 -0.83867057594974714 forward_v I I I I #
loop $-1 $-1 $400 $106 #
coedge $-1 $269 $269 $270 $401 reversed $167 $-1 #
coedge $-1 $270 $270 $269 $401 forward $169 $-1 #
coedge $-1 $271 $271 $170 $272 forward $266 $-1 #
edge $-1 $402 0 $402 6.2831853071796004 $271 $403 forward 7 unknown #
loop $-1 $-1 $278 $171 #
plane-surface $-1 -3.9689182147446189 8.7224553363194062 75.185162591758001 0.83867057594974714 0 0.54463902268945019 0.54463902268945019 0 -0.83867057594974714 forward_v I I I I #
loop $-1 $-1 $404 $109 #
coedge $-1 $276 $276 $277 $405 reversed $172 $-1 #
coedge $-1 $277 $277 $276 $405 forward $174 $-1 #
coedge $-1 $278 $278 $175 $279 forward $273 $-1 #
edge $-1 $406 0 $406 6.2831853071796004 $278 $407 forward 7 unknown #
face $-1 $408 $409 $42 $-1 $410 reversed single #
loop $-1 $-1 $411 $176 #
plane-surface $-1 -44.455702383495591 0 0 1 0 0 0 0 -1 forward_v I I I I #
coedge $-1 $412 $291 $413 $414 forward $177 $-1 #
coedge $-1 $415 $179 $412 $416 forward $113 $-1 #
coedge $-1 $179 $415 $417 $418 forward $113 $-1 #
coedge $-1 $294 $293 $179 $287 reversed $295 $-1 #
edge $-1 $419 -20.17513114700068 $420 20.17513114700068 $286 $421 forward 7 unknown #
coedge $-1 $181 $180 $422 $423 forward $71 $-1 #
coedge $-1 $424 $425 $180 $290 reversed $409 $-1 #
edge $-1 $297 -44.455702383495591 $426 44.455702383495591 $289 $427 forward 7 unknown #
coedge $-1 $283 $428 $181 $292 reversed $177 $-1 #
edge $-1 $429 -44.455702383495591 $296 44.455702383495591 $291 $430 forward 7 unknown #
coedge $-1 $286 $182 $428 $431 forward $295 $-1 #
coedge $-1 $182 $286 $424 $432 reversed $295 $-1 #
loop $-1 $-1 $293 $408 #
vertex $-1 $183 $433 #
vertex $-1 $183 $434 #
straight-curve $-1 44.455702383495591 0 4.9922166612714474 0 1 0 I I #
face $-1 $435 $436 $43 $-1 $437 reversed single #
loop $-1 $-1 $190 $184 #
plane-surface $-1 -37.471269060952693 -22.668877974958413 0 1 0 0 0 0 -1 forward_v I I I I #
coedge $-1 $438 $439 $440 $441 forward $185 $-1 #
coedge $-1 $442 $187 $443 $444 forward $117 $-1 #
coedge $-1 $187 $442 $309 $445 forward $117 $-1 #
edge $-1 $311 -37.471269060952693 $446 -34.471269060952693 $187 $447 forward 7 unknown #
coedge $-1 $189 $188 $448 $449 forward $74 $-1 #
coedge $-1 $450 $451 $188 $308 forward $452 $-1 #
edge $-1 $453 34.471269060952693 $312 37.471269060952693 $307 $454 forward 7 unknown #
coedge $-1 $440 $190 $304 $445 reversed $300 $-1 #
coedge $-1 $190 $440 $450 $455 reversed $300 $-1 #
vertex $-1 $305 $456 #
vertex $-1 $455 $457 #
straight-curve $-1 -37.471269060952693 -20.17513114700068 0 0 0 1 I I #
face $-1 $-1 $326 $44 $-1 $458 forward single #
loop $-1 $-1 $459 $192 #
plane-surface $-1 -44.455702383495591 0 0 1 0 0 0 0 -1 forward_v I I I I #
coedge $-1 $460 $461 $462 $463 reversed $193 $-1 #
coedge $-1 $464 $195 $197 $324 forward $121 $-1 #
coedge $-1 $195 $464 $460 $465 forward $121 $-1 #
coedge $-1 $462 $198 $195 $321 forward $326 $-1 #
edge $-1 $328 -7.8089005155990101 $466 -1.1500284671245318 $320 $467 forward 7 unknown #
coedge $-1 $468 $469 $196 $323 forward $315 $-1 #
edge $-1 $470 -23.903418525457894 $327 -19.52898541151086 $322 $471 forward 7 unknown #
edge $-1 $328 -5.2159134222554941 $470 0 $197 $472 forward 7 unknown #
coedge $-1 $198 $462 $468 $473 forward $326 $-1 #
loop $-1 $-1 $462 $314 #
vertex $-1 $323 $474 #
vertex $-1 $199 $475 #
straight-curve $-1 -59.511540713964592 -12.288365006960781 4.9922166612714456 1 0 0 I I #
coedge $-1 $330 $330 $-1 $476 reversed $202 $-1 #
edge $-1 $477 0 $477 6.2831853071796004 $203 $478 forward 7 unknown #
vertex $-1 $206 $479 #
ellipse-curve $-1 -43.03530738913058 -10.385830135968073 2.8050001042979291 -0.83867057594974714 0 0.54463902268945019 0.2723195113447251 0 0.41933528797487357 1 I I #
coedge $-1 $334 $334 $-1 $480 reversed $209 $-1 #
edge $-1 $481 0 $481 6.2831853071796004 $210 $482 forward 7 unknown #
vertex $-1 $213 $483 #
ellipse-curve $-1 -43.03530738913058 -7.5320278294790111 2.8050001042979291 -0.83867057594974714 0 0.54463902268945019 0.2723195113447251 0 0.41933528797487357 1 I I #
face $-1 $-1 $484 $47 $-1 $485 reversed single #
loop $-1 $-1 $220 $214 #
plane-surface $-1 0 0 4.9922166612714474 0 0 1 1 0 0 forward_v I I I I #
coedge $-1 $486 $487 $488 $489 reversed $215 $-1 #
coedge $-1 $490 $217 $219 $348 forward $135 $-1 #
coedge $-1 $217 $490 $486 $491 forward $135 $-1 #
coedge $-1 $488 $220 $217 $345 forward $339 $-1 #
edge $-1 $351 1.0317916439224639 $492 7.6906636923969423 $344 $493 forward 7 unknown #
coedge $-1 $494 $495 $218 $347 forward $484 $-1 #
edge $-1 $496 -23.903418525457894 $350 -19.52898541151086 $346 $497 forward 7 unknown #
edge $-1 $351 -5.2159134222554941 $496 0 $219 $498 forward 7 unknown #
coedge $-1 $220 $488 $494 $499 forward $339 $-1 #
vertex $-1 $221 $500 #
vertex $-1 $221 $501 #
straight-curve $-1 -59.511540713964592 5.393019312082167 4.9922166612714456 1 0 0 I I #
coedge $-1 $353 $353 $-1 $502 reversed $224 $-1 #
edge $-1 $503 0 $503 6.2831853071796004 $225 $504 forward 7 unknown #
vertex $-1 $228 $505 #
ellipse-curve $-1 -43.03530738913058 7.2955541830748736 2.8050001042979291 -0.83867057594974714 0 0.54463902268945019 0.2723195113447251 0 0.41933528797487357 1 I I #
coedge $-1 $357 $357 $-1 $506 reversed $231 $-1 #
edge $-1 $507 0 $507 6.2831853071796004 $232 $508 forward 7 unknown #
vertex $-1 $235 $509 #
ellipse-curve $-1 -43.03530738913058 10.149356489563939 2.8050001042979291 -0.83867057594974714 0 0.54463902268945019 0.2723195113447251 0 0.41933528797487357 1 I I #
face $-1 $-1 $510 $50 $-1 $511 reversed single #
loop $-1 $-1 $242 $236 #
plane-surface $-1 0 0 4.9922166612714474 0 0 1 1 0 0 forward_v I I I I #
coedge $-1 $512 $513 $514 $515 reversed $237 $-1 #
coedge $-1 $516 $239 $241 $371 forward $149 $-1 #
coedge $-1 $239 $516 $512 $517 forward $149 $-1 #
coedge $-1 $514 $242 $239 $368 forward $362 $-1 #
edge $-1 $374 1.1500284671245318 $518 7.8089005155990101 $367 $519 forward 7 unknown #
coedge $-1 $520 $521 $240 $370 forward $510 $-1 #
edge $-1 $522 -61.187108047674712 $373 -56.812674933727656 $369 $523 forward 7 unknown #
edge $-1 $374 83.695491344735686 $522 88.911404766991211 $241 $524 forward 7 unknown #
coedge $-1 $242 $514 $520 $525 forward $362 $-1 #
vertex $-1 $243 $526 #
vertex $-1 $243 $527 #
straight-curve $-1 35.299230414844487 -5.6294929584863027 4.9922166612714491 -1 0 0 I I #
coedge $-1 $376 $376 $-1 $528 reversed $246 $-1 #
edge $-1 $529 0 $529 6.2831853071796004 $247 $530 forward 7 unknown #
vertex $-1 $250 $531 #
ellipse-curve $-1 43.035307389130573 -10.385830135968073 2.8050001042979207 0.83867057594974714 0 0.54463902268945019 0.2723195113447251 0 -0.41933528797487357 1 I I #
coedge $-1 $380 $380 $-1 $532 reversed $253 $-1 #
edge $-1 $533 0 $533 6.2831853071796004 $254 $534 forward 7 unknown #
vertex $-1 $257 $535 #
ellipse-curve $-1 43.035307389130573 -7.5320278294790111 2.8050001042979207 0.83867057594974714 0 0.54463902268945019 0.2723195113447251 0 -0.41933528797487357 1 I I #
face $-1 $-1 $396 $53 $-1 $536 forward single #
loop $-1 $-1 $537 $258 #
plane-surface $-1 44.455702383495591 0 0 -1 0 0 0 0 1 forward_v I I I I #
coedge $-1 $538 $539 $540 $541 reversed $259 $-1 #
coedge $-1 $542 $261 $263 $394 forward $163 $-1 #
coedge $-1 $261 $542 $538 $543 forward $163 $-1 #
coedge $-1 $540 $264 $261 $391 forward $396 $-1 #
edge $-1 $398 -7.6906636923969423 $544 -1.0317916439224639 $390 $545 forward 7 unknown #
coedge $-1 $546 $547 $262 $393 forward $385 $-1 #
edge $-1 $548 -61.187108047674712 $397 -56.812674933727656 $392 $549 forward 7 unknown #
edge $-1 $398 83.695491344735686 $548 88.911404766991211 $263 $550 forward 7 unknown #
coedge $-1 $264 $540 $546 $551 forward $396 $-1 #
loop $-1 $-1 $540 $384 #
vertex $-1 $393 $552 #
vertex $-1 $265 $553 #
straight-curve $-1 35.299230414844487 12.051891360556645 4.9922166612714491 -1 0 0 I I #
coedge $-1 $400 $400 $-1 $554 reversed $268 $-1 #
edge $-1 $555 0 $555 6.2831853071796004 $269 $556 forward 7 unknown #
vertex $-1 $272 $557 #
ellipse-curve $-1 43.035307389130573 7.2955541830748736 2.8050001042979207 0.83867057594974714 0 0.54463902268945019 0.2723195113447251 0 -0.41933528797487357 1 I I #
coedge $-1 $404 $404 $-1 $558 reversed $275 $-1 #
edge $-1 $559 0 $559 6.2831853071796004 $276 $560 forward 7 unknown #
vertex $-1 $279 $561 #
ellipse-curve $-1 43.035307389130573 10.149356489563939 2.8050001042979207 0.83867057594974714 0 0.54463902268945019 0.2723195113447251 0 -0.41933528797487357 1 I I #
face $-1 $-1 $295 $42 $-1 $562 reversed single #
loop $-1 $-1 $424 $280 #
plane-surface $-1 0 20.17513114700068 0 0 -1 0 0 0 -1 forward_v I I I I #
coedge $-1 $563 $422 $425 $564 forward $281 $-1 #
coedge $-1 $428 $283 $284 $416 reversed $177 $-1 #
coedge $-1 $422 $563 $283 $414 reversed $281 $-1 #
edge $-1 $429 -4.9922166612714474 $565 4.9922166612714474 $413 $566 forward 7 unknown #
coedge $-1 $285 $284 $563 $567 forward $113 $-1 #
edge $-1 $420 -44.455702383495591 $565 44.455702383495591 $412 $568 forward 7 unknown #
coedge $-1 $425 $424 $285 $418 reversed $409 $-1 #
edge $-1 $569 -44.455702383495591 $419 44.455702383495591 $417 $570 forward 7 unknown #
vertex $-1 $287 $571 #
vertex $-1 $431 $572 #
straight-curve $-1 44.455702383495591 0 -4.9922166612714474 0 -1 0 I I #
coedge $-1 $411 $413 $288 $423 reversed $281 $-1 #
edge $-1 $426 -20.17513114700068 $429 20.17513114700068 $422 $573 forward 7 unknown #
coedge $-1 $417 $289 $294 $432 forward $409 $-1 #
coedge $-1 $289 $417 $411 $564 reversed $409 $-1 #
vertex $-1 $290 $574 #
straight-curve $-1 0 20.17513114700068 4.9922166612714474 -1 0 0 I I #
coedge $-1 $291 $412 $293 $431 reversed $177 $-1 #
vertex $-1 $423 $575 #
straight-curve $-1 0 -20.17513114700068 4.9922166612714474 1 0 0 I I #
edge $-1 $296 -4.9922166612714474 $420 4.9922166612714474 $293 $576 forward 7 unknown #
edge $-1 $297 -4.9922166612714474 $419 4.9922166612714474 $294 $577 forward 7 unknown #
point $-1 44.455702383495591 -20.17513114700068 4.9922166612714474 #
point $-1 44.455702383495591 20.17513114700068 4.9922166612714474 #
face $-1 $-1 $452 $43 $-1 $578 forward single #
loop $-1 $-1 $579 $299 #
plane-surface $-1 -34.471269060952693 -22.668877974958413 0 -1 0 0 0 0 1 forward_v I I I I #
coedge $-1 $580 $302 $442 $581 reversed $185 $-1 #
coedge $-1 $302 $580 $582 $583 reversed $185 $-1 #
coedge $-1 $310 $309 $302 $441 reversed $300 $-1 #
edge $-1 $584 -4.9922166612714474 $585 4.9922166612714474 $440 $586 forward 7 unknown #
coedge $-1 $304 $303 $438 $581 forward $117 $-1 #
coedge $-1 $448 $579 $303 $444 reversed $436 $-1 #
edge $-1 $446 -2.4937468279577324 $587 2.4937468279577324 $443 $588 forward 7 unknown #
edge $-1 $585 -2.4937468279577324 $311 2.4937468279577324 $309 $589 forward 7 unknown #
vertex $-1 $444 $590 #
straight-curve $-1 0 -20.17513114700068 -4.9922166612714474 1 0 0 I I #
coedge $-1 $591 $443 $306 $449 reversed $436 $-1 #
edge $-1 $453 -4.9922166612714474 $446 4.9922166612714474 $448 $592 forward 7 unknown #
coedge $-1 $582 $307 $310 $455 forward $452 $-1 #
coedge $-1 $307 $582 $591 $593 forward $452 $-1 #
loop $-1 $-1 $307 $435 #
vertex $-1 $308 $594 #
straight-curve $-1 0 -20.17513114700068 4.9922166612714474 -1 0 0 I I #
edge $-1 $312 -2.4937468279577324 $584 2.4937468279577324 $310 $595 forward 7 unknown #
point $-1 -37.471269060952693 -20.17513114700068 -4.9922166612714474 #
point $-1 -37.471269060952693 -20.17513114700068 4.9922166612714474 #
plane-surface $-1 0 0 4.9922166612714474 0 0 1 1 0 0 forward_v I I I I #
coedge $-1 $469 $468 $461 $596 forward $315 $-1 #
coedge $-1 $461 $317 $319 $465 reversed $193 $-1 #
coedge $-1 $317 $460 $459 $596 reversed $193 $-1 #
coedge $-1 $325 $320 $317 $463 forward $326 $-1 #
edge $-1 $466 -17.896628319199017 $597 -15.055838330469001 $462 $598 forward 7 unknown #
coedge $-1 $319 $318 $469 $599 reversed $121 $-1 #
edge $-1 $600 0 $466 5.2159134222554941 $460 $601 forward 7 unknown #
vertex $-1 $321 $602 #
straight-curve $-1 -41.614912394765575 -4.4794644913617709 4.9922166612714483 0 1 0 I I #
coedge $-1 $459 $322 $325 $473 reversed $315 $-1 #
coedge $-1 $322 $459 $464 $599 forward $315 $-1 #
vertex $-1 $323 $603 #
straight-curve $-1 -44.455702383495591 -12.288365006960781 24.521202072782309 0 0 1 I I #
straight-curve $-1 -44.455702383495591 -12.288365006960781 0.61778354732441443 -0.54463902268945019 0 -0.83867057594974714 I I #
edge $-1 $597 5.6294929584863027 $327 12.288365006960781 $468 $604 forward 7 unknown #
point $-1 -44.455702383495591 -12.288365006960781 4.9922166612714474 #
point $-1 -41.614912394765575 -12.288365006960781 4.9922166612714474 #
edge $-1 $605 1 $605 0 $330 $-1 forward 7 unknown #
vertex $-1 $331 $606 #
ellipse-curve $-1 -42.196636813180838 -10.385830135968073 2.2603610816084809 -0.83867057594974714 0 0.54463902268945019 0.2723195113447251 0 0.41933528797487357 1 I I #
point $-1 -42.762987877785861 -10.385830135968073 3.2243353922728044 #
edge $-1 $607 1 $607 0 $334 $-1 forward 7 unknown #
vertex $-1 $335 $608 #
ellipse-curve $-1 -42.196636813180838 -7.5320278294790111 2.2603610816084809 -0.83867057594974714 0 0.54463902268945019 0.2723195113447251 0 0.41933528797487357 1 I I #
point $-1 -42.762987877785861 -7.5320278294790111 3.2243353922728044 #
loop $-1 $-1 $346 $338 #
plane-surface $-1 -44.455702383495591 0 0 1 0 0 0 0 -1 forward_v I I I I #
coedge $-1 $487 $341 $343 $491 reversed $215 $-1 #
coedge $-1 $341 $486 $609 $610 reversed $215 $-1 #
coedge $-1 $349 $344 $341 $489 forward $339 $-1 #
edge $-1 $492 -17.896628319199017 $611 -15.055838330469001 $488 $612 forward 7 unknown #
coedge $-1 $343 $342 $495 $613 reversed $135 $-1 #
edge $-1 $614 0 $492 5.2159134222554941 $486 $615 forward 7 unknown #
vertex $-1 $345 $616 #
straight-curve $-1 -41.614912394765575 4.3612276681597031 4.9922166612714483 0 1 0 I I #
coedge $-1 $609 $346 $349 $499 reversed $484 $-1 #
coedge $-1 $346 $609 $490 $613 forward $484 $-1 #
vertex $-1 $347 $617 #
straight-curve $-1 -44.455702383495591 5.393019312082167 24.521202072782309 0 0 1 I I #
straight-curve $-1 -44.455702383495591 5.393019312082167 0.61778354732441443 -0.54463902268945019 0 -0.83867057594974714 I I #
edge $-1 $611 -12.051891360556645 $350 -5.393019312082167 $494 $618 forward 7 unknown #
point $-1 -44.455702383495591 5.393019312082167 4.9922166612714474 #
point $-1 -41.614912394765575 5.393019312082167 4.9922166612714474 #
edge $-1 $619 1 $619 0 $353 $-1 forward 7 unknown #
vertex $-1 $354 $620 #
ellipse-curve $-1 -42.196636813180838 7.2955541830748736 2.2603610816084809 -0.83867057594974714 0 0.54463902268945019 0.2723195113447251 0 0.41933528797487357 1 I I #
point $-1 -42.762987877785861 7.2955541830748736 3.2243353922728044 #
edge $-1 $621 1 $621 0 $357 $-1 forward 7 unknown #
vertex $-1 $358 $622 #
ellipse-curve $-1 -42.196636813180838 10.149356489563939 2.2603610816084809 -0.83867057594974714 0 0.54463902268945019 0.2723195113447251 0 0.41933528797487357 1 I I #
point $-1 -42.762987877785861 10.149356489563939 3.2243353922728044 #
loop $-1 $-1 $369 $361 #
plane-surface $-1 44.455702383495591 0 0 -1 0 0 0 0 1 forward_v I I I I #
coedge $-1 $513 $364 $366 $517 reversed $237 $-1 #
coedge $-1 $364 $512 $623 $624 reversed $237 $-1 #
coedge $-1 $372 $367 $364 $515 forward $362 $-1 #
edge $-1 $518 6.3156819799210737 $625 9.156471968651104 $514 $626 forward 7 unknown #
coedge $-1 $366 $365 $521 $627 reversed $149 $-1 #
edge $-1 $628 -88.911404766991211 $518 -83.695491344735686 $512 $629 forward 7 unknown #
vertex $-1 $368 $630 #
straight-curve $-1 41.614912394765568 -4.4794644913617709 4.9922166612714491 0 -1 0 I I #
coedge $-1 $623 $369 $372 $525 reversed $510 $-1 #
coedge $-1 $369 $623 $516 $627 forward $510 $-1 #
vertex $-1 $370 $631 #
straight-curve $-1 44.455702383495591 -5.6294929584863027 61.804891594999106 0 0 1 I I #
straight-curve $-1 -3.9689182147446189 -5.6294929584863027 75.185162591758001 0.54463902268945019 0 -0.83867057594974714 I I #
edge $-1 $625 -12.288365006960781 $373 -5.6294929584863027 $520 $632 forward 7 unknown #
point $-1 44.455702383495591 -5.6294929584863027 4.9922166612714474 #
point $-1 41.614912394765561 -5.6294929584863027 4.992216661271442 #
edge $-1 $633 1 $633 0 $376 $-1 forward 7 unknown #
vertex $-1 $377 $634 #
ellipse-curve $-1 42.196636813180824 -10.385830135968073 2.2603610816084703 0.83867057594974714 0 0.54463902268945019 0.2723195113447251 0 -0.41933528797487357 1 I I #
point $-1 43.307626900475299 -10.385830135968073 2.3856648163230467 #
edge $-1 $635 1 $635 0 $380 $-1 forward 7 unknown #
vertex $-1 $381 $636 #
ellipse-curve $-1 42.196636813180824 -7.5320278294790111 2.2603610816084703 0.83867057594974714 0 0.54463902268945019 0.2723195113447251 0 -0.41933528797487357 1 I I #
point $-1 43.307626900475299 -7.5320278294790111 2.3856648163230467 #
plane-surface $-1 0 0 4.9922166612714474 0 0 1 1 0 0 forward_v I I I I #
coedge $-1 $547 $546 $539 $637 forward $385 $-1 #
coedge $-1 $539 $387 $389 $543 reversed $259 $-1 #
coedge $-1 $387 $538 $537 $637 reversed $259 $-1 #
coedge $-1 $395 $390 $387 $541 forward $396 $-1 #
edge $-1 $544 6.3156819799210737 $638 9.156471968651104 $540 $639 forward 7 unknown #
coedge $-1 $389 $388 $547 $640 reversed $163 $-1 #
edge $-1 $641 -88.911404766991211 $544 -83.695491344735686 $538 $642 forward 7 unknown #
vertex $-1 $391 $643 #
straight-curve $-1 41.614912394765568 4.3612276681597031 4.9922166612714491 0 -1 0 I I #
coedge $-1 $537 $392 $395 $551 reversed $385 $-1 #
coedge $-1 $392 $537 $542 $640 forward $385 $-1 #
vertex $-1 $393 $644 #
straight-curve $-1 44.455702383495591 12.051891360556645 61.804891594999106 0 0 1 I I #
straight-curve $-1 -3.9689182147446189 12.051891360556645 75.185162591758001 0.54463902268945019 0 -0.83867057594974714 I I #
edge $-1 $638 5.393019312082167 $397 12.051891360556645 $546 $645 forward 7 unknown #
point $-1 44.455702383495591 12.051891360556645 4.9922166612714474 #
point $-1 41.614912394765561 12.051891360556645 4.992216661271442 #
edge $-1 $646 1 $646 0 $400 $-1 forward 7 unknown #
vertex $-1 $401 $647 #
ellipse-curve $-1 42.196636813180824 7.2955541830748736 2.2603610816084703 0.83867057594974714 0 0.54463902268945019 0.2723195113447251 0 -0.41933528797487357 1 I I #
point $-1 43.307626900475299 7.2955541830748736 2.3856648163230467 #
edge $-1 $648 1 $648 0 $404 $-1 forward 7 unknown #
vertex $-1 $405 $649 #
ellipse-curve $-1 42.196636813180824 10.149356489563939 2.2603610816084703 0.83867057594974714 0 0.54463902268945019 0.2723195113447251 0 -0.41933528797487357 1 I I #
point $-1 43.307626900475299 10.149356489563939 2.3856648163230467 #
plane-surface $-1 44.455702383495591 0 0 -1 0 0 0 0 1 forward_v I I I I #
coedge $-1 $413 $411 $415 $567 reversed $281 $-1 #
edge $-1 $426 -4.9922166612714474 $569 4.9922166612714474 $425 $650 forward 7 unknown #
vertex $-1 $567 $651 #
straight-curve $-1 -44.455702383495591 -20.17513114700068 0 0 0 -1 I I #
edge $-1 $565 -20.17513114700068 $569 20.17513114700068 $563 $652 forward 7 unknown #
straight-curve $-1 0 -20.17513114700068 -4.9922166612714474 -1 0 0 I I #
vertex $-1 $418 $653 #
straight-curve $-1 0 20.17513114700068 -4.9922166612714474 1 0 0 I I #
point $-1 44.455702383495591 20.17513114700068 -4.9922166612714474 #
point $-1 44.455702383495591 -20.17513114700068 -4.9922166612714474 #
straight-curve $-1 -44.455702383495591 0 4.9922166612714474 0 -1 0 I I #
point $-1 -44.455702383495591 20.17513114700068 4.9922166612714474 #
point $-1 -44.455702383495591 -20.17513114700068 4.9922166612714474 #
straight-curve $-1 44.455702383495591 -20.17513114700068 0 0 0 -1 I I #
straight-curve $-1 44.455702383495591 20.17513114700068 0 0 0 -1 I I #
plane-surface $-1 0 0 4.9922166612714474 0 0 1 1 0 0 forward_v I I I I #
coedge $-1 $443 $591 $580 $654 forward $436 $-1 #
coedge $-1 $439 $438 $579 $654 reversed $185 $-1 #
edge $-1 $587 -1.5 $585 1.5 $438 $655 forward 7 unknown #
coedge $-1 $451 $450 $439 $583 forward $452 $-1 #
edge $-1 $584 -1.5 $656 1.5 $439 $657 forward 7 unknown #
vertex $-1 $455 $658 #
vertex $-1 $445 $659 #
straight-curve $-1 -37.471269060952693 -25.162624802916145 0 0 0 -1 I I #
vertex $-1 $654 $660 #
straight-curve $-1 -34.471269060952693 -22.668877974958413 -4.9922166612714474 0 -1 0 I I #
straight-curve $-1 -37.471269060952693 -22.668877974958413 -4.9922166612714474 0 1 0 I I #
point $-1 -34.471269060952693 -20.17513114700068 -4.9922166612714474 #
coedge $-1 $579 $448 $451 $593 reversed $436 $-1 #
straight-curve $-1 -34.471269060952693 -20.17513114700068 0 0 0 -1 I I #
edge $-1 $656 -2.4937468279577324 $453 2.4937468279577324 $591 $661 forward 7 unknown #
point $-1 -34.471269060952693 -20.17513114700068 4.9922166612714474 #
straight-curve $-1 -37.471269060952693 -22.668877974958413 4.9922166612714474 0 -1 0 I I #
edge $-1 $597 19.52898541151086 $600 23.903418525457894 $459 $662 forward 7 unknown #
vertex $-1 $473 $663 #
straight-curve $-1 -59.511540713964592 -5.6294929584863027 4.9922166612714456 -1 0 0 I I #
edge $-1 $600 1.1500284671245318 $470 7.8089005155990101 $469 $664 forward 7 unknown #
vertex $-1 $599 $665 #
straight-curve $-1 -44.455702383495591 -5.6294929584863027 0.61778354732441443 0.54463902268945019 0 0.83867057594974714 I I #
point $-1 -41.614912394765575 -5.6294929584863027 4.9922166612714474 #
point $-1 -44.455702383495591 -12.288365006960781 0.61778354732441443 #
straight-curve $-1 -44.455702383495591 0 4.9922166612714474 0 -1 0 I I #
vertex $-1 $476 $666 #
point $-1 -41.924317301836112 -10.385830135968073 2.6796963695833544 #
vertex $-1 $480 $667 #
point $-1 -41.924317301836112 -7.5320278294790111 2.6796963695833544 #
coedge $-1 $495 $494 $487 $610 forward $484 $-1 #
edge $-1 $611 19.52898541151086 $614 23.903418525457894 $609 $668 forward 7 unknown #
vertex $-1 $499 $669 #
straight-curve $-1 -59.511540713964592 12.051891360556645 4.9922166612714456 -1 0 0 I I #
edge $-1 $614 -7.6906636923969423 $496 -1.0317916439224639 $495 $670 forward 7 unknown #
vertex $-1 $613 $671 #
straight-curve $-1 -44.455702383495591 12.051891360556645 0.61778354732441443 0.54463902268945019 0 0.83867057594974714 I I #
point $-1 -41.614912394765575 12.051891360556645 4.9922166612714474 #
point $-1 -44.455702383495591 5.393019312082167 0.61778354732441443 #
straight-curve $-1 -44.455702383495591 0 4.9922166612714474 0 -1 0 I I #
vertex $-1 $502 $672 #
point $-1 -41.924317301836112 7.2955541830748736 2.6796963695833544 #
vertex $-1 $506 $673 #
point $-1 -41.924317301836112 10.149356489563939 2.6796963695833544 #
coedge $-1 $521 $520 $513 $624 forward $510 $-1 #
edge $-1 $625 56.812674933727656 $628 61.187108047674712 $623 $674 forward 7 unknown #
vertex $-1 $525 $675 #
straight-curve $-1 35.299230414844487 -12.288365006960781 4.9922166612714491 1 0 0 I I #
edge $-1 $628 -7.8089005155990101 $522 -1.1500284671245318 $521 $676 forward 7 unknown #
vertex $-1 $627 $677 #
straight-curve $-1 -3.9689182147446189 -12.288365006960781 75.185162591758001 -0.54463902268945019 0 0.83867057594974714 I I #
point $-1 41.614912394765561 -12.288365006960781 4.992216661271442 #
point $-1 44.455702383495591 -5.6294929584863027 0.61778354732439311 #
straight-curve $-1 44.455702383495591 0 4.9922166612714474 0 1 0 I I #
vertex $-1 $528 $678 #
point $-1 42.46895632452555 -10.385830135968073 1.8410257936335968 #
vertex $-1 $532 $679 #
point $-1 42.46895632452555 -7.5320278294790111 1.8410257936335968 #
edge $-1 $638 56.812674933727656 $641 61.187108047674712 $537 $680 forward 7 unknown #
vertex $-1 $551 $681 #
straight-curve $-1 35.299230414844487 5.393019312082167 4.9922166612714491 1 0 0 I I #
edge $-1 $641 1.0317916439224639 $548 7.6906636923969423 $547 $682 forward 7 unknown #
vertex $-1 $640 $683 #
straight-curve $-1 -3.9689182147446189 5.393019312082167 75.185162591758001 -0.54463902268945019 0 0.83867057594974714 I I #
point $-1 41.614912394765561 5.393019312082167 4.992216661271442 #
point $-1 44.455702383495591 12.051891360556645 0.61778354732439311 #
straight-curve $-1 44.455702383495591 0 4.9922166612714474 0 1 0 I I #
vertex $-1 $554 $684 #
point $-1 42.46895632452555 7.2955541830748736 1.8410257936335968 #
vertex $-1 $558 $685 #
point $-1 42.46895632452555 10.149356489563939 1.8410257936335968 #
straight-curve $-1 -44.455702383495591 20.17513114700068 0 0 0 -1 I I #
point $-1 -44.455702383495591 -20.17513114700068 -4.9922166612714474 #
straight-curve $-1 -44.455702383495591 0 -4.9922166612714474 0 1 0 I I #
point $-1 -44.455702383495591 20.17513114700068 -4.9922166612714474 #
edge $-1 $656 -4.9922166612714474 $587 4.9922166612714474 $579 $686 forward 7 unknown #
straight-curve $-1 -35.971269060952693 -25.162624802916145 -4.9922166612714474 -1 0 0 I I #
vertex $-1 $593 $687 #
straight-curve $-1 -35.971269060952693 -25.162624802916145 4.9922166612714474 1 0 0 I I #
point $-1 -37.471269060952693 -25.162624802916145 4.9922166612714474 #
point $-1 -37.471269060952693 -25.162624802916145 -4.9922166612714474 #
point $-1 -34.471269060952693 -25.162624802916145 -4.9922166612714474 #
straight-curve $-1 -34.471269060952693 -22.668877974958413 4.9922166612714474 0 1 0 I I #
straight-curve $-1 -44.455702383495591 -5.6294929584863027 24.521202072782309 0 0 -1 I I #
point $-1 -44.455702383495591 -5.6294929584863027 4.9922166612714474 #
straight-curve $-1 -44.455702383495591 -4.4794644913617709 0.61778354732441254 0 -1 0 I I #
point $-1 -44.455702383495591 -5.6294929584863027 0.61778354732441443 #
point $-1 -41.777301525205964 -10.385830135968073 1.9880415702637557 #
point $-1 -41.777301525205964 -7.5320278294790111 1.9880415702637557 #
straight-curve $-1 -44.455702383495591 12.051891360556645 24.521202072782309 0 0 -1 I I #
point $-1 -44.455702383495591 12.051891360556645 4.9922166612714474 #
straight-curve $-1 -44.455702383495591 4.3612276681597031 0.61778354732441254 0 -1 0 I I #
point $-1 -44.455702383495591 12.051891360556645 0.61778354732441443 #
point $-1 -41.777301525205964 7.2955541830748736 1.9880415702637557 #
point $-1 -41.777301525205964 10.149356489563939 1.9880415702637557 #
straight-curve $-1 44.455702383495591 -12.288365006960781 61.804891594999106 0 0 -1 I I #
point $-1 44.455702383495591 -12.288365006960781 4.9922166612714474 #
straight-curve $-1 44.455702383495591 -4.4794644913617709 0.61778354732439311 0 1 0 I I #
point $-1 44.455702383495591 -12.288365006960781 0.61778354732439311 #
point $-1 41.777301525205949 -10.385830135968073 1.9880415702637451 #
point $-1 41.777301525205949 -7.5320278294790111 1.9880415702637451 #
straight-curve $-1 44.455702383495591 5.393019312082167 61.804891594999106 0 0 -1 I I #
point $-1 44.455702383495591 5.393019312082167 4.9922166612714474 #
straight-curve $-1 44.455702383495591 4.3612276681597031 0.61778354732439311 0 1 0 I I #
point $-1 44.455702383495591 5.393019312082167 0.61778354732439311 #
point $-1 41.777301525205949 7.2955541830748736 1.9880415702637451 #
point $-1 41.777301525205949 10.149356489563939 1.9880415702637451 #
straight-curve $-1 -34.471269060952693 -25.162624802916145 0 0 0 -1 I I #
point $-1 -34.471269060952693 -25.162624802916145 4.9922166612714474 #
End-of-ACIS-data 