500 0 16 0           
7 Unknown 11 ACIS 5.0 NT 24 Fri Mar 26 15:49:32 1999 
-1 9.9999999999999995e-007 1e-010 
body $-1 $16 $-1 $17 #
body $-1 $18 $-1 $19 #
body $-1 $20 $-1 $21 #
body $-1 $22 $-1 $23 #
body $-1 $24 $-1 $25 #
body $-1 $26 $-1 $27 #
body $-1 $28 $-1 $29 #
body $-1 $30 $-1 $31 #
body $-1 $32 $-1 $33 #
body $-1 $34 $-1 $35 #
body $-1 $36 $-1 $37 #
body $-1 $38 $-1 $39 #
body $-1 $40 $-1 $41 #
body $-1 $42 $-1 $43 #
body $-1 $44 $-1 $45 #
body $-1 $46 $-1 $47 #
lump $-1 $-1 $48 $0 #
transform $-1 1 0 0 0 1 0 0 0 1 59.575792718283637 39.522348527899737 17.625179909628216 1 rotate no_reflect no_shear #
lump $-1 $-1 $49 $1 #
transform $-1 1 0 0 0 1 0 0 0 1 59.575792718283637 39.522348527899737 17.625179909628216 1 rotate no_reflect no_shear #
lump $-1 $-1 $50 $2 #
transform $-1 1 0 0 0 1 0 0 0 1 59.575792718283637 39.522348527899737 17.625179909628216 1 rotate no_reflect no_shear #
lump $-1 $-1 $51 $3 #
transform $-1 1 0 0 0 1 0 0 0 1 59.575792718283637 39.522348527899737 17.625179909628216 1 rotate no_reflect no_shear #
lump $-1 $-1 $52 $4 #
transform $-1 1 0 0 0 1 0 0 0 1 59.575792718283637 39.522348527899737 17.625179909628216 1 rotate no_reflect no_shear #
lump $-1 $-1 $53 $5 #
transform $-1 1 0 0 0 1 0 0 0 1 59.575792718283637 39.522348527899737 17.625179909628216 1 rotate no_reflect no_shear #
lump $-1 $-1 $54 $6 #
transform $-1 1 0 0 0 1 0 0 0 1 59.575792718283637 39.522348527899737 17.625179909628216 1 rotate no_reflect no_shear #
lump $-1 $-1 $55 $7 #
transform $-1 1 0 0 0 1 0 0 0 1 59.575792718283637 39.522348527899737 17.625179909628216 1 rotate no_reflect no_shear #
lump $-1 $-1 $56 $8 #
transform $-1 1 0 0 0 1 0 0 0 1 59.575792718283637 39.522348527899737 17.625179909628216 1 rotate no_reflect no_shear #
lump $-1 $-1 $57 $9 #
transform $-1 1 0 0 0 1 0 0 0 1 59.575792718283637 39.522348527899737 17.625179909628216 1 rotate no_reflect no_shear #
lump $-1 $-1 $58 $10 #
transform $-1 1 0 0 0 1 0 0 0 1 59.575792718283637 39.522348527899737 17.625179909628216 1 rotate no_reflect no_shear #
lump $-1 $-1 $59 $11 #
transform $-1 1 0 0 0 1 0 0 0 1 59.575792718283637 39.522348527899737 17.625179909628216 1 rotate no_reflect no_shear #
lump $-1 $-1 $60 $12 #
transform $-1 1 0 0 0 1 0 0 0 1 59.575792718283637 39.522348527899737 17.625179909628216 1 rotate no_reflect no_shear #
lump $-1 $-1 $61 $13 #
transform $-1 1 0 0 0 1 0 0 0 1 59.575792718283637 39.522348527899737 17.625179909628216 1 rotate no_reflect no_shear #
lump $-1 $-1 $62 $14 #
transform $-1 1 0 0 0 1 0 0 0 1 59.575792718283637 39.522348527899737 17.625179909628216 1 rotate no_reflect no_shear #
lump $-1 $-1 $63 $15 #
transform $-1 1 0 0 0 1 0 0 0 1 59.575792718283637 39.522348527899737 17.625179909628216 1 rotate no_reflect no_shear #
shell $-1 $-1 $-1 $64 $-1 $16 #
shell $-1 $-1 $-1 $65 $-1 $18 #
shell $-1 $-1 $-1 $66 $-1 $20 #
shell $-1 $-1 $-1 $67 $-1 $22 #
shell $-1 $-1 $-1 $68 $-1 $24 #
shell $-1 $-1 $-1 $69 $-1 $26 #
shell $-1 $-1 $-1 $70 $-1 $28 #
shell $-1 $-1 $-1 $71 $-1 $30 #
shell $-1 $-1 $-1 $72 $-1 $32 #
shell $-1 $-1 $-1 $73 $-1 $34 #
shell $-1 $-1 $-1 $74 $-1 $36 #
shell $-1 $-1 $-1 $75 $-1 $38 #
shell $-1 $-1 $-1 $76 $-1 $40 #
shell $-1 $-1 $-1 $77 $-1 $42 #
shell $-1 $-1 $-1 $78 $-1 $44 #
shell $-1 $-1 $-1 $79 $-1 $46 #
face $-1 $80 $81 $48 $-1 $82 forward single #
face $-1 $83 $84 $49 $-1 $85 forward single #
face $-1 $86 $87 $50 $-1 $88 reversed single #
face $-1 $89 $90 $51 $-1 $91 forward single #
face $-1 $92 $93 $52 $-1 $94 forward single #
face $-1 $95 $96 $53 $-1 $97 forward single #
face $-1 $98 $99 $54 $-1 $100 reversed single #
face $-1 $101 $102 $55 $-1 $103 forward single #
face $-1 $104 $105 $56 $-1 $106 forward single #
face $-1 $107 $108 $57 $-1 $109 forward single #
face $-1 $110 $111 $58 $-1 $112 reversed single #
face $-1 $113 $114 $59 $-1 $115 forward single #
face $-1 $116 $117 $60 $-1 $118 forward single #
face $-1 $119 $120 $61 $-1 $121 reversed single #
face $-1 $122 $123 $62 $-1 $124 forward single #
face $-1 $125 $126 $63 $-1 $127 forward single #
face $-1 $128 $129 $48 $-1 $130 reversed single #
loop $-1 $-1 $131 $64 #
plane-surface $-1 0 0 17.625179909628216 0 0 1 1 0 0 forward_v I I I I #
face $-1 $132 $133 $49 $-1 $134 reversed single #
loop $-1 $-1 $135 $65 #
plane-surface $-1 -50.925792049375573 0 -9.5314855799619131 0 0 1 1 0 0 forward_v I I I I #
face $-1 $136 $137 $50 $-1 $138 reversed single #
loop $-1 $-1 $139 $66 #
plane-surface $-1 -27.186027830246985 30.643426665287791 146.09344942993005 1 0 0 0 -0.50000000669873634 -0.8660253999169214 forward_v I I I I #
face $-1 $140 $141 $51 $-1 $142 forward single #
loop $-1 $143 $144 $67 #
cone-surface $-1 -22.655564182681729 26.380589871079874 9.1053648241043312 0 -0.50000000669873634 -0.8660253999169214 1.5 0 0 1 I I 0 1 1.5 forward I I I I #
face $-1 $145 $146 $52 $-1 $147 forward single #
loop $-1 $148 $149 $68 #
cone-surface $-1 -15.859868711333846 26.380589871079874 9.1053648241043312 0 -0.50000000669873634 -0.8660253999169214 1.5 0 0 1 I I 0 1 1.5 forward I I I I #
face $-1 $150 $151 $53 $-1 $152 forward single #
loop $-1 $153 $154 $69 #
cone-surface $-1 -9.064173239985962 26.380589871079874 9.1053648241043312 0 -0.50000000669873634 -0.8660253999169214 1.5 0 0 1 I I 0 1 1.5 forward I I I I #
face $-1 $155 $156 $54 $-1 $157 reversed single #
loop $-1 $-1 $158 $70 #
plane-surface $-1 21.833710930236826 30.643426665287791 146.09344942993005 1 0 0 0 -0.50000000669873634 -0.8660253999169214 forward_v I I I I #
face $-1 $159 $160 $55 $-1 $161 forward single #
loop $-1 $162 $163 $71 #
cone-surface $-1 26.364174577802075 26.380589871079874 9.1053648241043312 0 -0.50000000669873634 -0.8660253999169214 1.5 0 0 1 I I 0 1 1.5 forward I I I I #
face $-1 $164 $165 $56 $-1 $166 forward single #
loop $-1 $167 $168 $72 #
cone-surface $-1 33.159870049149973 26.380589871079874 9.1053648241043312 0 -0.50000000669873634 -0.8660253999169214 1.5 0 0 1 I I 0 1 1.5 forward I I I I #
face $-1 $169 $170 $57 $-1 $171 forward single #
loop $-1 $172 $173 $73 #
cone-surface $-1 39.955565520497842 26.380589871079874 9.1053648241043312 0 -0.50000000669873634 -0.8660253999169214 1.5 0 0 1 I I 0 1 1.5 forward I I I I #
face $-1 $174 $175 $58 $-1 $176 reversed single #
loop $-1 $-1 $177 $74 #
plane-surface $-1 8.6500006689080635 -141.65519232447758 63.185985461885167 -1 0 0 0 -0.85716730853699208 0.51503806187062418 forward_v I I I I #
face $-1 $178 $179 $59 $-1 $180 forward single #
loop $-1 $181 $182 $75 #
cone-surface $-1 -0.96404126538138257 -33.406440381821646 8.9003647709588769 0 0.85716730853699208 -0.51503806187062418 1 0 0 1 I I 0 1 1 forward I I I I #
face $-1 $183 $184 $60 $-1 $185 forward single #
loop $-1 $186 $187 $76 #
cone-surface $-1 4.8043838951922879 -33.406440381821646 8.9003647709588769 0 0.85716730853699208 -0.51503806187062418 1 0 0 1 I I 0 1 1 forward I I I I #
face $-1 $188 $189 $61 $-1 $190 reversed single #
loop $-1 $-1 $191 $77 #
plane-surface $-1 22.109659376913307 -141.65519232447758 63.185985461885167 -1 0 0 0 -0.85716730853699208 0.51503806187062418 forward_v I I I I #
face $-1 $192 $193 $62 $-1 $194 forward single #
loop $-1 $195 $196 $78 #
cone-surface $-1 12.495617442623853 -33.406440381821646 8.9003647709588769 0 0.85716730853699208 -0.51503806187062418 1 0 0 1 I I 0 1 1 forward I I I I #
face $-1 $197 $198 $63 $-1 $199 forward single #
loop $-1 $200 $201 $79 #
cone-surface $-1 18.264042603197524 -33.406440381821646 8.9003647709588769 0 0.85716730853699208 -0.51503806187062418 1 0 0 1 I I 0 1 1 forward I I I I #
face $-1 $202 $203 $48 $-1 $204 reversed single #
loop $-1 $-1 $205 $80 #
plane-surface $-1 0 0 -17.625179909628216 0 0 1 1 0 0 forward_v I I I I #
coedge $-1 $206 $207 $208 $209 forward $81 $-1 #
face $-1 $210 $211 $49 $-1 $212 reversed single #
loop $-1 $-1 $213 $83 #
plane-surface $-1 -42.27579138046751 0 -13.578332744795064 -1 0 0 0 0 1 forward_v I I I I #
coedge $-1 $214 $215 $216 $217 forward $84 $-1 #
face $-1 $218 $219 $50 $-1 $220 reversed single #
loop $-1 $-1 $221 $86 #
plane-surface $-1 -15.859868711333839 -28.932366851160907 42.905150001491634 0 0.50000000669873634 0.8660253999169214 1 0 0 forward_v I I I I #
coedge $-1 $222 $223 $224 $225 reversed $87 $-1 #
face $-1 $-1 $226 $51 $-1 $227 forward single #
loop $-1 $228 $229 $89 #
cone-surface $-1 -22.655564182681729 25.198092983384626 7.0572201714107088 0 -0.50000000669873634 -0.8660253999169214 0.75 0 0 1 I I -0.70710678118654757 0.70710678118654757 0.75 forward I I I I #
loop $-1 $-1 $230 $67 #
coedge $-1 $144 $144 $231 $232 reversed $90 $-1 #
face $-1 $-1 $233 $52 $-1 $234 forward single #
loop $-1 $235 $236 $92 #
cone-surface $-1 -15.859868711333846 25.198092983384626 7.0572201714107088 0 -0.50000000669873634 -0.8660253999169214 0.75 0 0 1 I I -0.70710678118654757 0.70710678118654757 0.75 forward I I I I #
loop $-1 $-1 $237 $68 #
coedge $-1 $149 $149 $238 $239 reversed $93 $-1 #
face $-1 $-1 $240 $53 $-1 $241 forward single #
loop $-1 $242 $243 $95 #
cone-surface $-1 -9.064173239985962 25.198092983384626 7.0572201714107088 0 -0.50000000669873634 -0.8660253999169214 0.75 0 0 1 I I -0.70710678118654757 0.70710678118654757 0.75 forward I I I I #
loop $-1 $-1 $244 $69 #
coedge $-1 $154 $154 $245 $246 reversed $96 $-1 #
face $-1 $247 $248 $54 $-1 $249 reversed single #
loop $-1 $-1 $250 $98 #
plane-surface $-1 33.159870049149973 -28.932366851160907 42.905150001491634 0 0.50000000669873634 0.8660253999169214 1 0 0 forward_v I I I I #
coedge $-1 $251 $252 $253 $254 reversed $99 $-1 #
face $-1 $-1 $255 $55 $-1 $256 forward single #
loop $-1 $257 $258 $101 #
cone-surface $-1 26.364174577802075 25.198092983384626 7.0572201714107088 0 -0.50000000669873634 -0.8660253999169214 0.75 0 0 1 I I -0.70710678118654757 0.70710678118654757 0.75 forward I I I I #
loop $-1 $-1 $259 $71 #
coedge $-1 $163 $163 $260 $261 reversed $102 $-1 #
face $-1 $-1 $262 $56 $-1 $263 forward single #
loop $-1 $264 $265 $104 #
cone-surface $-1 33.159870049149973 25.198092983384626 7.0572201714107088 0 -0.50000000669873634 -0.8660253999169214 0.75 0 0 1 I I -0.70710678118654757 0.70710678118654757 0.75 forward I I I I #
loop $-1 $-1 $266 $72 #
coedge $-1 $168 $168 $267 $268 reversed $105 $-1 #
face $-1 $-1 $269 $57 $-1 $270 forward single #
loop $-1 $271 $272 $107 #
cone-surface $-1 39.955565520497842 25.198092983384626 7.0572201714107088 0 -0.50000000669873634 -0.8660253999169214 0.75 0 0 1 I I -0.70710678118654757 0.70710678118654757 0.75 forward I I I I #
loop $-1 $-1 $273 $73 #
coedge $-1 $173 $173 $274 $275 reversed $108 $-1 #
face $-1 $276 $277 $58 $-1 $278 reversed single #
loop $-1 $-1 $279 $110 #
plane-surface $-1 1.9201713149054527 -39.522348527899752 1.8183838298234676 0 -0.85716730853699208 0.51503806187062418 1 0 0 forward_v I I I I #
coedge $-1 $280 $281 $282 $283 reversed $111 $-1 #
face $-1 $-1 $284 $59 $-1 $285 forward single #
loop $-1 $286 $287 $113 #
cone-surface $-1 -0.96404126538138257 -31.610789056517209 7.8214286412566061 0 0.85716730853699208 -0.51503806187062418 0.5 0 0 1 I I -0.70710678118654813 0.70710678118654691 0.5 forward I I I I #
loop $-1 $-1 $288 $75 #
coedge $-1 $182 $182 $289 $290 reversed $114 $-1 #
face $-1 $-1 $291 $60 $-1 $292 forward single #
loop $-1 $293 $294 $116 #
cone-surface $-1 4.8043838951922879 -31.610789056517209 7.8214286412566061 0 0.85716730853699208 -0.51503806187062418 0.5 0 0 1 I I -0.70710678118654813 0.70710678118654691 0.5 forward I I I I #
loop $-1 $-1 $295 $76 #
coedge $-1 $187 $187 $296 $297 reversed $117 $-1 #
face $-1 $298 $299 $61 $-1 $300 forward single #
loop $-1 $-1 $301 $119 #
plane-surface $-1 1.9201713149054527 -39.522348527899752 1.8183838298234676 0 -0.85716730853699208 0.51503806187062418 1 0 0 forward_v I I I I #
coedge $-1 $302 $303 $304 $305 reversed $120 $-1 #
face $-1 $-1 $306 $62 $-1 $307 forward single #
loop $-1 $308 $309 $122 #
cone-surface $-1 12.495617442623853 -31.610789056517209 7.8214286412566061 0 0.85716730853699208 -0.51503806187062418 0.5 0 0 1 I I -0.70710678118654813 0.70710678118654691 0.5 forward I I I I #
loop $-1 $-1 $310 $78 #
coedge $-1 $196 $196 $311 $312 reversed $123 $-1 #
face $-1 $-1 $313 $63 $-1 $314 forward single #
loop $-1 $315 $316 $125 #
cone-surface $-1 18.264042603197524 -31.610789056517209 7.8214286412566061 0 0.85716730853699208 -0.51503806187062418 0.5 0 0 1 I I -0.70710678118654813 0.70710678118654691 0.5 forward I I I I #
loop $-1 $-1 $317 $79 #
coedge $-1 $201 $201 $318 $319 reversed $126 $-1 #
face $-1 $320 $321 $48 $-1 $322 reversed single #
loop $-1 $-1 $323 $128 #
plane-surface $-1 0 -39.522348527899737 0 0 1 0 0 0 1 forward_v I I I I #
coedge $-1 $324 $325 $326 $327 forward $129 $-1 #
coedge $-1 $328 $131 $329 $330 forward $81 $-1 #
coedge $-1 $131 $328 $331 $332 forward $81 $-1 #
coedge $-1 $333 $334 $131 $209 reversed $335 $-1 #
edge $-1 $336 -39.522348527899737 $337 39.522348527899737 $208 $338 forward 7 unknown #
face $-1 $339 $340 $49 $-1 $341 reversed single #
loop $-1 $-1 $342 $132 #
plane-surface $-1 0 0 -17.625179909628216 0 0 1 1 0 0 forward_v I I I I #
coedge $-1 $343 $216 $344 $345 reversed $133 $-1 #
coedge $-1 $346 $135 $347 $348 reversed $84 $-1 #
coedge $-1 $135 $346 $349 $350 reversed $84 $-1 #
coedge $-1 $213 $351 $135 $217 reversed $133 $-1 #
edge $-1 $352 -39.522348527899737 $353 39.522348527899737 $216 $354 forward 7 unknown #
face $-1 $355 $356 $50 $-1 $357 reversed single #
loop $-1 $-1 $358 $136 #
plane-surface $-1 -4.533709592420692 30.643426665287791 146.09344942993005 -1 0 0 0 0.50000000669873634 0.8660253999169214 forward_v I I I I #
coedge $-1 $359 $360 $361 $362 reversed $137 $-1 #
coedge $-1 $223 $139 $363 $364 reversed $87 $-1 #
coedge $-1 $139 $222 $359 $365 reversed $87 $-1 #
coedge $-1 $361 $366 $139 $225 forward $367 $-1 #
edge $-1 $368 -24.200635195255842 $369 0.46788835304145238 $224 $370 forward 7 unknown #
loop $-1 $-1 $231 $140 #
plane-surface $-1 -15.859868711333839 -28.932366851160907 42.905150001491634 0 0.50000000669873634 0.8660253999169214 1 0 0 forward_v I I I I #
loop $-1 $-1 $371 $89 #
coedge $-1 $229 $229 $230 $372 reversed $141 $-1 #
coedge $-1 $230 $230 $229 $372 forward $143 $-1 #
coedge $-1 $231 $231 $144 $232 forward $226 $-1 #
edge $-1 $373 9.0943458234922426e-016 $373 6.2831853071796013 $231 $374 forward 7 unknown #
loop $-1 $-1 $238 $145 #
plane-surface $-1 -15.859868711333839 -28.932366851160907 42.905150001491634 0 0.50000000669873634 0.8660253999169214 1 0 0 forward_v I I I I #
loop $-1 $-1 $375 $92 #
coedge $-1 $236 $236 $237 $376 reversed $146 $-1 #
coedge $-1 $237 $237 $236 $376 forward $148 $-1 #
coedge $-1 $238 $238 $149 $239 forward $233 $-1 #
edge $-1 $377 9.0943458234922426e-016 $377 6.2831853071796013 $238 $378 forward 7 unknown #
loop $-1 $-1 $245 $150 #
plane-surface $-1 -15.859868711333839 -28.932366851160907 42.905150001491634 0 0.50000000669873634 0.8660253999169214 1 0 0 forward_v I I I I #
loop $-1 $-1 $379 $95 #
coedge $-1 $243 $243 $244 $380 reversed $151 $-1 #
coedge $-1 $244 $244 $243 $380 forward $153 $-1 #
coedge $-1 $245 $245 $154 $246 forward $240 $-1 #
edge $-1 $381 9.0943458234922426e-016 $381 6.2831853071796013 $245 $382 forward 7 unknown #
face $-1 $383 $384 $54 $-1 $385 forward single #
loop $-1 $-1 $386 $155 #
plane-surface $-1 44.486029168063119 30.643426665287791 146.09344942993005 -1 0 0 0 0.50000000669873634 0.8660253999169214 forward_v I I I I #
coedge $-1 $387 $388 $389 $390 reversed $156 $-1 #
coedge $-1 $252 $158 $391 $392 reversed $99 $-1 #
coedge $-1 $158 $251 $387 $393 reversed $99 $-1 #
coedge $-1 $389 $394 $158 $254 forward $384 $-1 #
edge $-1 $395 -24.200635195255842 $396 0.46788835304145238 $253 $397 forward 7 unknown #
loop $-1 $-1 $260 $159 #
plane-surface $-1 33.159870049149973 -28.932366851160907 42.905150001491634 0 0.50000000669873634 0.8660253999169214 1 0 0 forward_v I I I I #
loop $-1 $-1 $398 $101 #
coedge $-1 $258 $258 $259 $399 reversed $160 $-1 #
coedge $-1 $259 $259 $258 $399 forward $162 $-1 #
coedge $-1 $260 $260 $163 $261 forward $255 $-1 #
edge $-1 $400 9.0943458234922426e-016 $400 6.2831853071796013 $260 $401 forward 7 unknown #
loop $-1 $-1 $267 $164 #
plane-surface $-1 33.159870049149973 -28.932366851160907 42.905150001491634 0 0.50000000669873634 0.8660253999169214 1 0 0 forward_v I I I I #
loop $-1 $-1 $402 $104 #
coedge $-1 $265 $265 $266 $403 reversed $165 $-1 #
coedge $-1 $266 $266 $265 $403 forward $167 $-1 #
coedge $-1 $267 $267 $168 $268 forward $262 $-1 #
edge $-1 $404 9.0943458234922426e-016 $404 6.2831853071796013 $267 $405 forward 7 unknown #
loop $-1 $-1 $274 $169 #
plane-surface $-1 33.159870049149973 -28.932366851160907 42.905150001491634 0 0.50000000669873634 0.8660253999169214 1 0 0 forward_v I I I I #
loop $-1 $-1 $406 $107 #
coedge $-1 $272 $272 $273 $407 reversed $170 $-1 #
coedge $-1 $273 $273 $272 $407 forward $172 $-1 #
coedge $-1 $274 $274 $173 $275 forward $269 $-1 #
edge $-1 $408 9.0943458234922426e-016 $408 6.2831853071796013 $274 $409 forward 7 unknown #
face $-1 $410 $411 $58 $-1 $412 forward single #
loop $-1 $-1 $413 $174 #
plane-surface $-1 -4.8096580390971582 -141.65519232447758 63.185985461885167 1 0 0 0 0.85716730853699208 -0.51503806187062418 forward_v I I I I #
coedge $-1 $414 $415 $416 $417 reversed $175 $-1 #
coedge $-1 $281 $177 $418 $419 reversed $111 $-1 #
coedge $-1 $177 $280 $414 $420 reversed $111 $-1 #
coedge $-1 $416 $421 $177 $283 forward $411 $-1 #
edge $-1 $422 31.305247634339054 $423 40.802928584423334 $282 $424 forward 7 unknown #
loop $-1 $-1 $289 $178 #
plane-surface $-1 1.9201713149054527 -39.522348527899752 1.8183838298234676 0 -0.85716730853699208 0.51503806187062418 1 0 0 forward_v I I I I #
loop $-1 $-1 $425 $113 #
coedge $-1 $287 $287 $288 $426 reversed $179 $-1 #
coedge $-1 $288 $288 $287 $426 forward $181 $-1 #
coedge $-1 $289 $289 $182 $290 forward $284 $-1 #
edge $-1 $427 1.2285910259226982e-015 $427 6.2831853071796013 $289 $428 forward 7 unknown #
loop $-1 $-1 $296 $183 #
plane-surface $-1 1.9201713149054527 -39.522348527899752 1.8183838298234676 0 -0.85716730853699208 0.51503806187062418 1 0 0 forward_v I I I I #
loop $-1 $-1 $429 $116 #
coedge $-1 $294 $294 $295 $430 reversed $184 $-1 #
coedge $-1 $295 $295 $294 $430 forward $186 $-1 #
coedge $-1 $296 $296 $187 $297 forward $291 $-1 #
edge $-1 $431 1.2285910259226982e-015 $431 6.2831853071796013 $296 $432 forward 7 unknown #
face $-1 $433 $434 $61 $-1 $435 forward single #
loop $-1 $-1 $436 $188 #
plane-surface $-1 0 0 17.625179909628216 0 0 1 1 0 0 forward_v I I I I #
coedge $-1 $437 $438 $439 $440 reversed $189 $-1 #
coedge $-1 $303 $191 $441 $442 reversed $120 $-1 #
coedge $-1 $191 $302 $436 $443 reversed $120 $-1 #
coedge $-1 $444 $445 $191 $305 forward $446 $-1 #
edge $-1 $447 -29.774608901119091 $448 -13.967812821314368 $304 $449 forward 7 unknown #
loop $-1 $-1 $311 $192 #
plane-surface $-1 1.9201713149054527 -39.522348527899752 1.8183838298234676 0 -0.85716730853699208 0.51503806187062418 1 0 0 forward_v I I I I #
loop $-1 $-1 $450 $122 #
coedge $-1 $309 $309 $310 $451 reversed $193 $-1 #
coedge $-1 $310 $310 $309 $451 forward $195 $-1 #
coedge $-1 $311 $311 $196 $312 forward $306 $-1 #
edge $-1 $452 1.2285910259226982e-015 $452 6.2831853071796013 $311 $453 forward 7 unknown #
loop $-1 $-1 $318 $197 #
plane-surface $-1 1.9201713149054527 -39.522348527899752 1.8183838298234676 0 -0.85716730853699208 0.51503806187062418 1 0 0 forward_v I I I I #
loop $-1 $-1 $454 $125 #
coedge $-1 $316 $316 $317 $455 reversed $198 $-1 #
coedge $-1 $317 $317 $316 $455 forward $200 $-1 #
coedge $-1 $318 $318 $201 $319 forward $313 $-1 #
edge $-1 $456 1.2285910259226982e-015 $456 6.2831853071796013 $318 $457 forward 7 unknown #
face $-1 $458 $459 $48 $-1 $460 reversed single #
loop $-1 $-1 $461 $202 #
plane-surface $-1 -59.575792718283637 0 0 1 0 0 0 0 -1 forward_v I I I I #
coedge $-1 $462 $331 $463 $464 forward $203 $-1 #
coedge $-1 $465 $205 $462 $466 forward $129 $-1 #
coedge $-1 $205 $465 $467 $468 forward $129 $-1 #
coedge $-1 $334 $333 $205 $327 reversed $335 $-1 #
edge $-1 $469 -39.522348527899737 $470 39.522348527899737 $326 $471 forward 7 unknown #
coedge $-1 $207 $206 $472 $473 forward $81 $-1 #
coedge $-1 $474 $475 $206 $330 reversed $459 $-1 #
edge $-1 $337 -59.575792718283637 $476 59.575792718283637 $329 $477 forward 7 unknown #
coedge $-1 $323 $478 $207 $332 reversed $203 $-1 #
edge $-1 $479 -59.575792718283637 $336 59.575792718283637 $331 $480 forward 7 unknown #
coedge $-1 $326 $208 $478 $481 forward $335 $-1 #
coedge $-1 $208 $326 $474 $482 reversed $335 $-1 #
loop $-1 $-1 $333 $458 #
vertex $-1 $209 $483 #
vertex $-1 $209 $484 #
straight-curve $-1 59.575792718283637 0 17.625179909628216 0 1 0 I I #
face $-1 $485 $486 $49 $-1 $487 reversed single #
loop $-1 $-1 $344 $210 #
plane-surface $-1 0 -39.522348527899737 0 0 1 0 0 0 1 forward_v I I I I #
coedge $-1 $488 $489 $343 $490 forward $211 $-1 #
coedge $-1 $351 $213 $342 $490 reversed $133 $-1 #
coedge $-1 $349 $491 $213 $345 forward $340 $-1 #
edge $-1 $492 -10.836013537230684 $352 -2.742319207564381 $344 $493 forward 7 unknown #
coedge $-1 $215 $214 $494 $495 reversed $84 $-1 #
coedge $-1 $496 $497 $214 $348 forward $498 $-1 #
edge $-1 $499 -34.11289669359585 $353 -16.812895355779723 $347 $500 forward 7 unknown #
coedge $-1 $501 $344 $215 $350 forward $340 $-1 #
edge $-1 $352 16.812895355779723 $502 34.11289669359585 $349 $503 forward 7 unknown #
coedge $-1 $216 $343 $496 $504 reversed $133 $-1 #
vertex $-1 $350 $505 #
vertex $-1 $348 $506 #
straight-curve $-1 -42.27579138046751 0 -9.5314855799619131 0 1 0 I I #
face $-1 $-1 $367 $50 $-1 $507 forward single #
loop $-1 $-1 $508 $218 #
plane-surface $-1 0 39.522348527899737 0 0 -1 0 0 0 -1 forward_v I I I I #
coedge $-1 $509 $510 $511 $512 reversed $219 $-1 #
coedge $-1 $513 $221 $223 $365 forward $137 $-1 #
coedge $-1 $221 $513 $509 $514 forward $137 $-1 #
coedge $-1 $511 $224 $221 $362 forward $367 $-1 #
edge $-1 $369 -19.256093474580066 $515 3.3962247632462272 $361 $516 forward 7 unknown #
coedge $-1 $517 $518 $222 $364 forward $356 $-1 #
edge $-1 $519 -69.663923770872714 $368 -55.421544805336808 $363 $520 forward 7 unknown #
edge $-1 $369 50.559939506351434 $519 79.044697055799489 $223 $521 forward 7 unknown #
coedge $-1 $224 $511 $517 $522 forward $367 $-1 #
loop $-1 $-1 $511 $355 #
vertex $-1 $364 $523 #
vertex $-1 $225 $524 #
straight-curve $-1 -27.186027830246985 15.321713332643895 17.625179909628216 0 -1 0 I I #
coedge $-1 $371 $371 $-1 $525 reversed $228 $-1 #
edge $-1 $526 0 $526 6.2831853071796004 $229 $527 forward 7 unknown #
vertex $-1 $232 $528 #
ellipse-curve $-1 -22.655564182681729 27.188086753751076 10.503990426860272 0 0.50000000669873634 0.8660253999169214 1.5 0 0 1 I I #
coedge $-1 $375 $375 $-1 $529 reversed $235 $-1 #
edge $-1 $530 0 $530 6.2831853071796004 $236 $531 forward 7 unknown #
vertex $-1 $239 $532 #
ellipse-curve $-1 -15.859868711333846 27.188086753751076 10.503990426860272 0 0.50000000669873634 0.8660253999169214 1.5 0 0 1 I I #
coedge $-1 $379 $379 $-1 $533 reversed $242 $-1 #
edge $-1 $534 0 $534 6.2831853071796004 $243 $535 forward 7 unknown #
vertex $-1 $246 $536 #
ellipse-curve $-1 -9.064173239985962 27.188086753751076 10.503990426860272 0 0.50000000669873634 0.8660253999169214 1.5 0 0 1 I I #
face $-1 $-1 $537 $54 $-1 $538 reversed single #
loop $-1 $-1 $253 $247 #
plane-surface $-1 0 0 17.625179909628216 0 0 1 1 0 0 forward_v I I I I #
coedge $-1 $539 $540 $541 $542 reversed $248 $-1 #
coedge $-1 $543 $250 $252 $393 forward $156 $-1 #
coedge $-1 $250 $543 $539 $544 forward $156 $-1 #
coedge $-1 $541 $253 $250 $390 forward $384 $-1 #
edge $-1 $396 5.2537759056618398 $545 27.906094143488133 $389 $546 forward 7 unknown #
coedge $-1 $547 $548 $251 $392 forward $537 $-1 #
edge $-1 $549 -69.663923770872714 $395 -55.421544805336808 $391 $550 forward 7 unknown #
edge $-1 $396 50.559939506351434 $549 79.044697055799489 $252 $551 forward 7 unknown #
coedge $-1 $253 $541 $547 $552 forward $384 $-1 #
vertex $-1 $254 $553 #
vertex $-1 $254 $554 #
straight-curve $-1 21.833710930236826 15.321713332643895 17.625179909628216 0 -1 0 I I #
coedge $-1 $398 $398 $-1 $555 reversed $257 $-1 #
edge $-1 $556 0 $556 6.2831853071796004 $258 $557 forward 7 unknown #
vertex $-1 $261 $558 #
ellipse-curve $-1 26.364174577802075 27.188086753751076 10.503990426860272 0 0.50000000669873634 0.8660253999169214 1.5 0 0 1 I I #
coedge $-1 $402 $402 $-1 $559 reversed $264 $-1 #
edge $-1 $560 0 $560 6.2831853071796004 $265 $561 forward 7 unknown #
vertex $-1 $268 $562 #
ellipse-curve $-1 33.159870049149973 27.188086753751076 10.503990426860272 0 0.50000000669873634 0.8660253999169214 1.5 0 0 1 I I #
coedge $-1 $406 $406 $-1 $563 reversed $271 $-1 #
edge $-1 $564 0 $564 6.2831853071796004 $272 $565 forward 7 unknown #
vertex $-1 $275 $566 #
ellipse-curve $-1 39.955565520497842 27.188086753751076 10.503990426860272 0 0.50000000669873634 0.8660253999169214 1.5 0 0 1 I I #
face $-1 $-1 $567 $58 $-1 $568 reversed single #
loop $-1 $-1 $282 $276 #
plane-surface $-1 0 0 17.625179909628216 0 0 1 1 0 0 forward_v I I I I #
coedge $-1 $569 $570 $571 $572 reversed $277 $-1 #
coedge $-1 $573 $279 $281 $420 forward $175 $-1 #
coedge $-1 $279 $573 $569 $574 forward $175 $-1 #
coedge $-1 $571 $282 $279 $417 forward $411 $-1 #
edge $-1 $423 -7.6899150114553372 $575 5.7697436965498845 $416 $576 forward 7 unknown #
coedge $-1 $577 $578 $280 $419 forward $567 $-1 #
edge $-1 $579 -29.774608901119091 $422 -13.967812821314368 $418 $580 forward 7 unknown #
edge $-1 $423 -18.440736041116285 $579 -2.7684374342568793e-014 $281 $581 forward 7 unknown #
coedge $-1 $282 $571 $577 $582 forward $411 $-1 #
vertex $-1 $283 $583 #
vertex $-1 $283 $584 #
straight-curve $-1 8.6500006689080635 -70.827596162238791 17.625179909628216 0 1 0 I I #
coedge $-1 $425 $425 $-1 $585 reversed $286 $-1 #
edge $-1 $586 0 $586 6.2831853071796004 $287 $587 forward 7 unknown #
vertex $-1 $290 $588 #
ellipse-curve $-1 -0.96404126538138257 -34.773508052857601 9.7217818697258451 0 -0.85716730853699208 0.51503806187062418 1 0 0 1 I I #
coedge $-1 $429 $429 $-1 $589 reversed $293 $-1 #
edge $-1 $590 0 $590 6.2831853071796004 $294 $591 forward 7 unknown #
vertex $-1 $297 $592 #
ellipse-curve $-1 4.8043838951922879 -34.773508052857601 9.7217818697258451 0 -0.85716730853699208 0.51503806187062418 1 0 0 1 I I #
face $-1 $-1 $446 $61 $-1 $593 reversed single #
loop $-1 $-1 $594 $298 #
plane-surface $-1 8.6500006689080635 -141.65519232447758 63.185985461885167 -1 0 0 0 -0.85716730853699208 0.51503806187062418 forward_v I I I I #
coedge $-1 $595 $596 $303 $443 forward $299 $-1 #
coedge $-1 $441 $301 $595 $597 reversed $189 $-1 #
coedge $-1 $301 $441 $445 $598 reversed $189 $-1 #
coedge $-1 $599 $594 $301 $440 forward $434 $-1 #
edge $-1 $600 -18.440736041116285 $601 -2.7684374342568793e-014 $439 $602 forward 7 unknown #
coedge $-1 $438 $437 $302 $442 forward $189 $-1 #
edge $-1 $603 -18.440736041116285 $447 -2.7684374342568793e-014 $302 $604 forward 7 unknown #
edge $-1 $448 31.305247634339054 $603 40.802928584423334 $436 $605 forward 7 unknown #
coedge $-1 $606 $304 $596 $607 reversed $446 $-1 #
coedge $-1 $304 $606 $438 $598 forward $446 $-1 #
loop $-1 $-1 $304 $433 #
vertex $-1 $305 $608 #
vertex $-1 $443 $609 #
straight-curve $-1 22.109659376913307 -39.522348527899737 31.592992730942584 0 0 1 I I #
coedge $-1 $450 $450 $-1 $610 reversed $308 $-1 #
edge $-1 $611 0 $611 6.2831853071796004 $309 $612 forward 7 unknown #
vertex $-1 $312 $613 #
ellipse-curve $-1 12.495617442623853 -34.773508052857601 9.7217818697258451 0 -0.85716730853699208 0.51503806187062418 1 0 0 1 I I #
coedge $-1 $454 $454 $-1 $614 reversed $315 $-1 #
edge $-1 $615 0 $615 6.2831853071796004 $316 $616 forward 7 unknown #
vertex $-1 $319 $617 #
ellipse-curve $-1 18.264042603197524 -34.773508052857601 9.7217818697258451 0 -0.85716730853699208 0.51503806187062418 1 0 0 1 I I #
face $-1 $-1 $335 $48 $-1 $618 reversed single #
loop $-1 $-1 $474 $320 #
plane-surface $-1 0 39.522348527899737 0 0 -1 0 0 0 -1 forward_v I I I I #
coedge $-1 $619 $472 $475 $620 forward $321 $-1 #
coedge $-1 $478 $323 $324 $466 reversed $203 $-1 #
coedge $-1 $472 $619 $323 $464 reversed $321 $-1 #
edge $-1 $479 -17.625179909628216 $621 17.625179909628216 $463 $622 forward 7 unknown #
coedge $-1 $325 $324 $619 $623 forward $129 $-1 #
edge $-1 $470 -59.575792718283637 $621 59.575792718283637 $462 $624 forward 7 unknown #
coedge $-1 $475 $474 $325 $468 reversed $459 $-1 #
edge $-1 $625 -59.575792718283637 $469 59.575792718283637 $467 $626 forward 7 unknown #
vertex $-1 $327 $627 #
vertex $-1 $481 $628 #
straight-curve $-1 59.575792718283637 0 -17.625179909628216 0 -1 0 I I #
coedge $-1 $461 $463 $328 $473 reversed $321 $-1 #
edge $-1 $476 -39.522348527899737 $479 39.522348527899737 $472 $629 forward 7 unknown #
coedge $-1 $467 $329 $334 $482 forward $459 $-1 #
coedge $-1 $329 $467 $461 $620 reversed $459 $-1 #
vertex $-1 $330 $630 #
straight-curve $-1 0 39.522348527899737 17.625179909628216 -1 0 0 I I #
coedge $-1 $331 $462 $333 $481 reversed $203 $-1 #
vertex $-1 $473 $631 #
straight-curve $-1 0 -39.522348527899737 17.625179909628216 1 0 0 I I #
edge $-1 $336 -17.625179909628216 $470 17.625179909628216 $333 $632 forward 7 unknown #
edge $-1 $337 -17.625179909628216 $469 17.625179909628216 $334 $633 forward 7 unknown #
point $-1 59.575792718283637 -39.522348527899737 17.625179909628216 #
point $-1 59.575792718283637 39.522348527899737 17.625179909628216 #
face $-1 $-1 $498 $49 $-1 $634 reversed single #
loop $-1 $-1 $494 $339 #
plane-surface $-1 -59.575792718283637 0 0 1 0 0 0 0 -1 forward_v I I I I #
coedge $-1 $635 $342 $491 $636 forward $211 $-1 #
coedge $-1 $342 $635 $637 $638 forward $211 $-1 #
edge $-1 $639 -39.522348527899737 $492 39.522348527899737 $342 $640 forward 7 unknown #
coedge $-1 $344 $501 $488 $636 reversed $340 $-1 #
vertex $-1 $636 $641 #
straight-curve $-1 -42.27579138046751 -39.522348527899737 -6.7891663723975322 0 0 1 I I #
coedge $-1 $642 $643 $346 $495 forward $486 $-1 #
edge $-1 $502 -39.522348527899737 $499 39.522348527899737 $494 $644 forward 7 unknown #
coedge $-1 $637 $347 $351 $504 forward $498 $-1 #
coedge $-1 $347 $637 $642 $645 reversed $498 $-1 #
loop $-1 $-1 $496 $485 #
vertex $-1 $645 $646 #
straight-curve $-1 -25.462896024687787 39.522348527899737 -9.5314855799619131 1 0 0 I I #
coedge $-1 $491 $349 $643 $647 forward $340 $-1 #
vertex $-1 $647 $648 #
straight-curve $-1 -25.462896024687787 -39.522348527899737 -9.5314855799619131 -1 0 0 I I #
edge $-1 $353 2.742319207564381 $639 10.836013537230684 $496 $649 forward 7 unknown #
point $-1 -42.27579138046751 -39.522348527899737 -9.5314855799619131 #
point $-1 -42.27579138046751 39.522348527899737 -9.5314855799619131 #
plane-surface $-1 0 0 17.625179909628216 0 0 1 1 0 0 forward_v I I I I #
coedge $-1 $518 $517 $510 $650 forward $356 $-1 #
coedge $-1 $510 $358 $360 $514 reversed $219 $-1 #
coedge $-1 $358 $509 $508 $650 reversed $219 $-1 #
coedge $-1 $366 $361 $358 $512 forward $367 $-1 #
edge $-1 $515 -0.46788835304145238 $651 24.200635195255842 $511 $652 forward 7 unknown #
coedge $-1 $360 $359 $518 $653 reversed $137 $-1 #
edge $-1 $654 -79.044697055799489 $515 -50.559939506351434 $509 $655 forward 7 unknown #
vertex $-1 $362 $656 #
straight-curve $-1 -7.9299343556669193 14.853824979602445 17.625179909628216 1 0 0 I I #
coedge $-1 $508 $363 $366 $522 reversed $356 $-1 #
coedge $-1 $363 $508 $513 $653 forward $356 $-1 #
vertex $-1 $364 $657 #
straight-curve $-1 -27.186027830246985 39.522348527899737 73.046724714965023 0 0 1 I I #
straight-curve $-1 -27.186027830246985 -28.932366851160907 42.905150001491634 0 0.8660253999169214 -0.50000000669873634 I I #
edge $-1 $651 4.533709592420692 $368 27.186027830246985 $517 $658 forward 7 unknown #
point $-1 -27.186027830246985 39.522348527899737 17.625179909628216 #
point $-1 -27.186027830246985 14.853824979602443 17.625179909628216 #
edge $-1 $659 1 $659 0 $371 $-1 forward 7 unknown #
vertex $-1 $372 $660 #
ellipse-curve $-1 -22.655564182681729 25.573092988408678 7.7067392213483998 0 0.50000000669873634 0.8660253999169214 1.5 0 0 1 I I #
point $-1 -21.155564182681729 27.188086753751072 10.503990426860263 #
edge $-1 $661 1 $661 0 $375 $-1 forward 7 unknown #
vertex $-1 $376 $662 #
ellipse-curve $-1 -15.859868711333846 25.573092988408678 7.7067392213483998 0 0.50000000669873634 0.8660253999169214 1.5 0 0 1 I I #
point $-1 -14.359868711333846 27.188086753751072 10.503990426860263 #
edge $-1 $663 1 $663 0 $379 $-1 forward 7 unknown #
vertex $-1 $380 $664 #
ellipse-curve $-1 -9.064173239985962 25.573092988408678 7.7067392213483998 0 0.50000000669873634 0.8660253999169214 1.5 0 0 1 I I #
point $-1 -7.564173239985962 27.188086753751072 10.503990426860263 #
loop $-1 $-1 $391 $383 #
plane-surface $-1 0 39.522348527899737 0 0 -1 0 0 0 -1 forward_v I I I I #
coedge $-1 $540 $386 $388 $544 reversed $248 $-1 #
coedge $-1 $386 $539 $665 $666 reversed $248 $-1 #
coedge $-1 $394 $389 $386 $542 forward $384 $-1 #
edge $-1 $545 -0.46788835304145238 $667 24.200635195255842 $541 $668 forward 7 unknown #
coedge $-1 $388 $387 $548 $669 reversed $156 $-1 #
edge $-1 $670 -79.044697055799489 $545 -50.559939506351434 $539 $671 forward 7 unknown #
vertex $-1 $390 $672 #
straight-curve $-1 16.579935024574986 14.853824979602445 17.625179909628216 1 0 0 I I #
coedge $-1 $665 $391 $394 $552 reversed $537 $-1 #
coedge $-1 $391 $665 $543 $669 forward $537 $-1 #
vertex $-1 $392 $673 #
straight-curve $-1 21.833710930236826 39.522348527899737 73.046724714965023 0 0 1 I I #
straight-curve $-1 21.833710930236826 -28.932366851160907 42.905150001491634 0 0.8660253999169214 -0.50000000669873634 I I #
edge $-1 $667 -44.486029168063119 $395 -21.833710930236826 $547 $674 forward 7 unknown #
point $-1 21.833710930236826 39.522348527899737 17.625179909628216 #
point $-1 21.833710930236826 14.853824979602443 17.625179909628216 #
edge $-1 $675 1 $675 0 $398 $-1 forward 7 unknown #
vertex $-1 $399 $676 #
ellipse-curve $-1 26.364174577802075 25.573092988408678 7.7067392213483998 0 0.50000000669873634 0.8660253999169214 1.5 0 0 1 I I #
point $-1 27.864174577802075 27.188086753751072 10.503990426860263 #
edge $-1 $677 1 $677 0 $402 $-1 forward 7 unknown #
vertex $-1 $403 $678 #
ellipse-curve $-1 33.159870049149973 25.573092988408678 7.7067392213483998 0 0.50000000669873634 0.8660253999169214 1.5 0 0 1 I I #
point $-1 34.659870049149973 27.188086753751072 10.503990426860263 #
edge $-1 $679 1 $679 0 $406 $-1 forward 7 unknown #
vertex $-1 $407 $680 #
ellipse-curve $-1 39.955565520497842 25.573092988408678 7.7067392213483998 0 0.50000000669873634 0.8660253999169214 1.5 0 0 1 I I #
point $-1 41.455565520497842 27.188086753751072 10.503990426860263 #
loop $-1 $-1 $418 $410 #
plane-surface $-1 0 -39.522348527899737 0 0 1 0 0 0 1 forward_v I I I I #
coedge $-1 $570 $413 $415 $574 reversed $277 $-1 #
coedge $-1 $413 $569 $681 $682 reversed $277 $-1 #
coedge $-1 $421 $416 $413 $572 forward $411 $-1 #
edge $-1 $575 -40.802928584423334 $683 -31.305247634339054 $571 $684 forward 7 unknown #
coedge $-1 $415 $414 $578 $685 reversed $175 $-1 #
edge $-1 $686 2.7684374342568793e-014 $575 18.440736041116285 $569 $687 forward 7 unknown #
vertex $-1 $417 $688 #
straight-curve $-1 0.96008565745272634 -30.024667577815453 17.625179909628216 -1 0 0 I I #
coedge $-1 $681 $418 $421 $582 reversed $567 $-1 #
coedge $-1 $418 $681 $573 $685 forward $567 $-1 #
vertex $-1 $419 $689 #
straight-curve $-1 8.6500006689080635 -39.522348527899737 31.592992730942584 0 0 1 I I #
straight-curve $-1 8.6500006689080635 -39.522348527899752 1.8183838298234676 0 -0.51503806187062418 -0.85716730853699208 I I #
edge $-1 $683 -4.8096580390971582 $422 8.6500006689080635 $577 $690 forward 7 unknown #
point $-1 8.6500006689080635 -39.522348527899737 17.625179909628216 #
point $-1 8.6500006689080635 -30.024667577815457 17.625179909628216 #
edge $-1 $691 1 $691 0 $425 $-1 forward 7 unknown #
vertex $-1 $426 $692 #
ellipse-curve $-1 -0.96404126538138257 -32.039372710785706 8.0789476721919176 0 -0.85716730853699208 0.51503806187062418 1 0 0 1 I I #
point $-1 0.035958734618617427 -34.773508052857586 9.721781869725838 #
edge $-1 $693 1 $693 0 $429 $-1 forward 7 unknown #
vertex $-1 $430 $694 #
ellipse-curve $-1 4.8043838951922879 -32.039372710785706 8.0789476721919176 0 -0.85716730853699208 0.51503806187062418 1 0 0 1 I I #
point $-1 5.8043838951922879 -34.773508052857586 9.721781869725838 #
plane-surface $-1 0 -39.522348527899737 0 0 1 0 0 0 1 forward_v I I I I #
coedge $-1 $439 $599 $695 $696 reversed $434 $-1 #
coedge $-1 $695 $436 $437 $597 forward $299 $-1 #
coedge $-1 $436 $695 $444 $607 forward $299 $-1 #
edge $-1 $603 -21.14957371946058 $600 -7.6899150114553372 $595 $697 forward 7 unknown #
edge $-1 $601 7.6899150114553372 $447 21.14957371946058 $445 $698 forward 7 unknown #
coedge $-1 $594 $439 $606 $699 reversed $434 $-1 #
vertex $-1 $597 $700 #
vertex $-1 $598 $701 #
straight-curve $-1 8.6500006689080635 -39.522348527899752 1.8183838298234676 0 -0.51503806187062418 -0.85716730853699208 I I #
vertex $-1 $443 $702 #
straight-curve $-1 22.109659376913307 -39.522348527899752 1.8183838298234676 0 -0.51503806187062418 -0.85716730853699208 I I #
straight-curve $-1 22.109659376913307 -70.827596162238791 17.625179909628216 0 1 0 I I #
coedge $-1 $445 $444 $599 $699 forward $446 $-1 #
edge $-1 $703 8.6500006689080635 $448 22.109659376913307 $444 $704 forward 7 unknown #
point $-1 22.109659376913307 -39.522348527899737 1.8183838298234913 #
point $-1 22.109659376913307 -39.522348527899737 17.625179909628216 #
edge $-1 $705 1 $705 0 $450 $-1 forward 7 unknown #
vertex $-1 $451 $706 #
ellipse-curve $-1 12.495617442623853 -32.039372710785706 8.0789476721919176 0 -0.85716730853699208 0.51503806187062418 1 0 0 1 I I #
point $-1 13.495617442623853 -34.773508052857586 9.721781869725838 #
edge $-1 $707 1 $707 0 $454 $-1 forward 7 unknown #
vertex $-1 $455 $708 #
ellipse-curve $-1 18.264042603197524 -32.039372710785706 8.0789476721919176 0 -0.85716730853699208 0.51503806187062418 1 0 0 1 I I #
point $-1 19.264042603197524 -34.773508052857586 9.721781869725838 #
plane-surface $-1 59.575792718283637 0 0 -1 0 0 0 0 1 forward_v I I I I #
coedge $-1 $463 $461 $465 $623 reversed $321 $-1 #
edge $-1 $476 -17.625179909628216 $625 17.625179909628216 $475 $709 forward 7 unknown #
vertex $-1 $623 $710 #
straight-curve $-1 -59.575792718283637 -39.522348527899737 0 0 0 -1 I I #
edge $-1 $621 -39.522348527899737 $625 39.522348527899737 $619 $711 forward 7 unknown #
straight-curve $-1 0 -39.522348527899737 -17.625179909628216 -1 0 0 I I #
vertex $-1 $468 $712 #
straight-curve $-1 0 39.522348527899737 -17.625179909628216 1 0 0 I I #
point $-1 59.575792718283637 39.522348527899737 -17.625179909628216 #
point $-1 59.575792718283637 -39.522348527899737 -17.625179909628216 #
straight-curve $-1 -59.575792718283637 0 17.625179909628216 0 -1 0 I I #
point $-1 -59.575792718283637 39.522348527899737 17.625179909628216 #
point $-1 -59.575792718283637 -39.522348527899737 17.625179909628216 #
straight-curve $-1 59.575792718283637 -39.522348527899737 0 0 0 -1 I I #
straight-curve $-1 59.575792718283637 39.522348527899737 0 0 0 -1 I I #
plane-surface $-1 0 39.522348527899737 0 0 -1 0 0 0 -1 forward_v I I I I #
coedge $-1 $489 $488 $713 $714 forward $211 $-1 #
edge $-1 $492 42.27579138046751 $715 59.575792718283637 $491 $716 forward 7 unknown #
coedge $-1 $497 $496 $489 $638 reversed $498 $-1 #
edge $-1 $717 -59.575792718283637 $639 -42.27579138046751 $637 $718 forward 7 unknown #
vertex $-1 $504 $719 #
straight-curve $-1 -42.27579138046751 0 -17.625179909628216 0 -1 0 I I #
point $-1 -42.27579138046751 -39.522348527899737 -17.625179909628216 #
coedge $-1 $713 $494 $497 $645 forward $486 $-1 #
coedge $-1 $494 $713 $501 $647 reversed $486 $-1 #
straight-curve $-1 -59.575792718283637 0 -9.5314855799619131 0 1 0 I I #
edge $-1 $499 9.5314855799619131 $717 17.625179909628216 $497 $720 forward 7 unknown #
point $-1 -59.575792718283637 39.522348527899737 -9.5314855799619131 #
edge $-1 $502 9.5314855799619131 $715 17.625179909628216 $643 $721 forward 7 unknown #
point $-1 -59.575792718283637 -39.522348527899737 -9.5314855799619131 #
straight-curve $-1 -42.27579138046751 39.522348527899737 -6.7891663723975322 0 0 -1 I I #
edge $-1 $651 55.421544805336808 $654 69.663923770872714 $508 $722 forward 7 unknown #
vertex $-1 $522 $723 #
straight-curve $-1 -4.533709592420692 15.321713332643895 17.625179909628216 0 1 0 I I #
edge $-1 $654 -3.3962247632462272 $519 19.256093474580066 $518 $724 forward 7 unknown #
vertex $-1 $653 $725 #
straight-curve $-1 -4.533709592420692 -28.932366851160907 42.905150001491634 0 -0.8660253999169214 0.50000000669873634 I I #
point $-1 -4.533709592420692 14.853824979602443 17.625179909628216 #
point $-1 -27.186027830246985 39.522348527899737 3.3828009440923097 #
straight-curve $-1 0 39.522348527899737 17.625179909628216 -1 0 0 I I #
vertex $-1 $525 $726 #
point $-1 -21.155564182681729 25.573092988408678 7.7067392213483998 #
vertex $-1 $529 $727 #
point $-1 -14.359868711333846 25.573092988408678 7.7067392213483998 #
vertex $-1 $533 $728 #
point $-1 -7.564173239985962 25.573092988408678 7.7067392213483998 #
coedge $-1 $548 $547 $540 $666 forward $537 $-1 #
edge $-1 $667 55.421544805336808 $670 69.663923770872714 $665 $729 forward 7 unknown #
vertex $-1 $552 $730 #
straight-curve $-1 44.486029168063119 15.321713332643895 17.625179909628216 0 1 0 I I #
edge $-1 $670 -27.906094143488133 $549 -5.2537759056618398 $548 $731 forward 7 unknown #
vertex $-1 $669 $732 #
straight-curve $-1 44.486029168063119 -28.932366851160907 42.905150001491634 0 -0.8660253999169214 0.50000000669873634 I I #
point $-1 44.486029168063119 14.853824979602443 17.625179909628216 #
point $-1 21.833710930236826 39.522348527899737 3.3828009440923097 #
straight-curve $-1 0 39.522348527899737 17.625179909628216 -1 0 0 I I #
vertex $-1 $555 $733 #
point $-1 27.864174577802075 25.573092988408678 7.7067392213483998 #
vertex $-1 $559 $734 #
point $-1 34.659870049149973 25.573092988408678 7.7067392213483998 #
vertex $-1 $563 $735 #
point $-1 41.455565520497842 25.573092988408678 7.7067392213483998 #
coedge $-1 $578 $577 $570 $682 forward $567 $-1 #
edge $-1 $683 13.967812821314368 $686 29.774608901119091 $681 $736 forward 7 unknown #
vertex $-1 $582 $737 #
straight-curve $-1 -4.8096580390971582 -70.827596162238791 17.625179909628216 0 -1 0 I I #
edge $-1 $686 -5.7697436965498845 $579 7.6899150114553372 $578 $738 forward 7 unknown #
vertex $-1 $685 $739 #
straight-curve $-1 -4.8096580390971582 -39.522348527899752 1.8183838298234676 0 0.51503806187062418 0.85716730853699208 I I #
point $-1 -4.8096580390971582 -30.024667577815457 17.625179909628216 #
point $-1 8.6500006689080635 -39.522348527899737 1.8183838298234913 #
straight-curve $-1 0 -39.522348527899737 17.625179909628216 1 0 0 I I #
vertex $-1 $585 $740 #
point $-1 0.035958734618617427 -32.039372710785706 8.0789476721919176 #
vertex $-1 $589 $741 #
point $-1 5.8043838951922879 -32.039372710785706 8.0789476721919176 #
coedge $-1 $596 $595 $594 $696 forward $299 $-1 #
edge $-1 $600 -40.802928584423334 $703 -31.305247634339054 $695 $742 forward 7 unknown #
straight-curve $-1 0.96008565745272634 -30.024667577815453 17.625179909628216 -1 0 0 I I #
straight-curve $-1 0.96008565745272634 -39.522348527899737 1.8183838298234916 1 0 0 I I #
edge $-1 $703 13.967812821314368 $601 29.774608901119091 $606 $743 forward 7 unknown #
point $-1 8.6500006689080635 -30.024667577815457 17.625179909628216 #
point $-1 8.6500006689080635 -39.522348527899737 1.8183838298234913 #
point $-1 22.109659376913307 -30.024667577815457 17.625179909628216 #
vertex $-1 $607 $744 #
straight-curve $-1 0 -39.522348527899737 17.625179909628216 1 0 0 I I #
vertex $-1 $610 $745 #
point $-1 13.495617442623853 -32.039372710785706 8.0789476721919176 #
vertex $-1 $614 $746 #
point $-1 19.264042603197524 -32.039372710785706 8.0789476721919176 #
straight-curve $-1 -59.575792718283637 39.522348527899737 0 0 0 -1 I I #
point $-1 -59.575792718283637 -39.522348527899737 -17.625179909628216 #
straight-curve $-1 -59.575792718283637 0 -17.625179909628216 0 1 0 I I #
point $-1 -59.575792718283637 39.522348527899737 -17.625179909628216 #
coedge $-1 $643 $642 $635 $714 reversed $486 $-1 #
edge $-1 $715 -39.522348527899737 $717 39.522348527899737 $713 $747 forward 7 unknown #
vertex $-1 $714 $748 #
straight-curve $-1 0 -39.522348527899737 -17.625179909628216 -1 0 0 I I #
vertex $-1 $638 $749 #
straight-curve $-1 0 39.522348527899737 -17.625179909628216 1 0 0 I I #
point $-1 -42.27579138046751 39.522348527899737 -17.625179909628216 #
straight-curve $-1 -59.575792718283637 39.522348527899737 0 0 0 -1 I I #
straight-curve $-1 -59.575792718283637 -39.522348527899737 0 0 0 -1 I I #
straight-curve $-1 -4.533709592420692 39.522348527899737 73.046724714965023 0 0 -1 I I #
point $-1 -4.533709592420692 39.522348527899737 17.625179909628216 #
straight-curve $-1 -7.9299343556669193 39.522348527899737 3.3828009440923132 -1 0 0 I I #
point $-1 -4.533709592420692 39.522348527899737 3.3828009440923097 #
point $-1 -22.655564182681729 24.823092978360574 6.4077011214730177 #
point $-1 -15.859868711333846 24.823092978360574 6.4077011214730177 #
point $-1 -9.064173239985962 24.823092978360574 6.4077011214730177 #
straight-curve $-1 44.486029168063119 39.522348527899737 73.046724714965023 0 0 -1 I I #
point $-1 44.486029168063119 39.522348527899737 17.625179909628216 #
straight-curve $-1 16.579935024574986 39.522348527899737 3.3828009440923132 -1 0 0 I I #
point $-1 44.486029168063119 39.522348527899737 3.3828009440923097 #
point $-1 26.364174577802075 24.823092978360574 6.4077011214730177 #
point $-1 33.159870049149973 24.823092978360574 6.4077011214730177 #
point $-1 39.955565520497842 24.823092978360574 6.4077011214730177 #
straight-curve $-1 -4.8096580390971582 -39.522348527899737 31.592992730942584 0 0 -1 I I #
point $-1 -4.8096580390971582 -39.522348527899737 17.625179909628216 #
straight-curve $-1 0.96008565745272634 -39.522348527899737 1.8183838298234916 1 0 0 I I #
point $-1 -4.8096580390971582 -39.522348527899737 1.8183838298234913 #
point $-1 -0.96404126538138257 -31.182205402248712 7.5639096103212946 #
point $-1 4.8043838951922879 -31.182205402248712 7.5639096103212946 #
straight-curve $-1 8.6500006689080635 -70.827596162238791 17.625179909628216 0 -1 0 I I #
straight-curve $-1 8.6500006689080635 -39.522348527899737 31.592992730942584 0 0 -1 I I #
point $-1 8.6500006689080635 -39.522348527899737 17.625179909628216 #
point $-1 12.495617442623853 -31.182205402248712 7.5639096103212946 #
point $-1 18.264042603197524 -31.182205402248712 7.5639096103212946 #
straight-curve $-1 -59.575792718283637 0 -17.625179909628216 0 1 0 I I #
point $-1 -59.575792718283637 -39.522348527899737 -17.625179909628216 #
point $-1 -59.575792718283637 39.522348527899737 -17.625179909628216 #
End-of-ACIS-data 