500 0 5 0           
7 Unknown 11 ACIS 5.0 NT 24 Fri Mar 26 17:12:02 1999 
-1 9.9999999999999995e-007 1e-010 
body $-1 $5 $-1 $6 #
body $-1 $7 $-1 $8 #
body $-1 $9 $-1 $10 #
body $-1 $11 $-1 $12 #
body $-1 $13 $-1 $14 #
lump $-1 $-1 $15 $0 #
transform $-1 1 0 0 0 1 0 0 0 1 53.874935148167367 37.502821307065297 14.820636109113414 1 rotate no_reflect no_shear #
lump $-1 $-1 $16 $1 #
transform $-1 1 0 0 0 1 0 0 0 1 53.874935148167367 37.502821307065297 14.820636109113414 1 rotate no_reflect no_shear #
lump $-1 $-1 $17 $2 #
transform $-1 1 0 0 0 1 0 0 0 1 53.874935148167367 37.502821307065297 14.820636109113414 1 rotate no_reflect no_shear #
lump $-1 $-1 $18 $3 #
transform $-1 1 0 0 0 1 0 0 0 1 53.874935148167367 37.502821307065297 14.820636109113414 1 rotate no_reflect no_shear #
lump $-1 $-1 $19 $4 #
transform $-1 1 0 0 0 1 0 0 0 1 53.874935148167367 37.502821307065297 14.820636109113414 1 rotate no_reflect no_shear #
shell $-1 $-1 $-1 $20 $-1 $5 #
shell $-1 $-1 $-1 $21 $-1 $7 #
shell $-1 $-1 $-1 $22 $-1 $9 #
shell $-1 $-1 $-1 $23 $-1 $11 #
shell $-1 $-1 $-1 $24 $-1 $13 #
face $-1 $25 $26 $15 $-1 $27 forward single #
face $-1 $28 $29 $16 $-1 $30 forward single #
face $-1 $31 $32 $17 $-1 $33 reversed single #
face $-1 $34 $35 $18 $-1 $36 forward single #
face $-1 $37 $38 $19 $-1 $39 reversed single #
face $-1 $40 $41 $15 $-1 $42 reversed single #
loop $-1 $-1 $43 $20 #
plane-surface $-1 0 0 14.820636109113414 0 0 1 1 0 0 forward_v I I I I #
face $-1 $44 $45 $16 $-1 $46 forward single #
loop $-1 $-1 $47 $21 #
plane-surface $-1 -32.177936854857634 -30.500928857032235 66.728597086417906 0.6018150307709319 0 0.79863550430605224 0.79863550430605224 0 -0.6018150307709319 forward_v I I I I #
face $-1 $48 $49 $17 $-1 $50 reversed single #
loop $-1 $51 $52 $22 #
cone-surface $-1 44.471686837114717 -30.500928857032235 7.2651445267480064 -0.6018150307709319 0 -0.79863550430605224 1.5972710086121045 0 -1.2036300615418638 1 I I 0 1 2 forward I I I I #
face $-1 $53 $54 $18 $-1 $55 forward single #
loop $-1 $-1 $56 $23 #
plane-surface $-1 32.667554653094982 -1.7763568394002505e-015 152.78146908944291 0 1 0 0.6018150307709319 0 0.79863550430605224 forward_v I I I I #
face $-1 $57 $58 $19 $-1 $59 reversed single #
loop $-1 $60 $61 $24 #
cone-surface $-1 44.471686837114717 7.0018924500330613 7.2651445267480064 -0.6018150307709319 0 -0.79863550430605224 1.5972710086121045 0 -1.2036300615418638 1 I I 0 1 2 forward I I I I #
face $-1 $62 $63 $15 $-1 $64 reversed single #
loop $-1 $-1 $65 $25 #
plane-surface $-1 0 0 -14.820636109113414 0 0 1 1 0 0 forward_v I I I I #
coedge $-1 $66 $67 $68 $69 forward $26 $-1 #
face $-1 $70 $71 $16 $-1 $72 reversed single #
loop $-1 $-1 $73 $28 #
plane-surface $-1 32.667554653094982 -23.499036406999174 152.78146908944291 0 -1 0 -0.6018150307709319 0 -0.79863550430605224 forward_v I I I I #
coedge $-1 $74 $75 $76 $77 reversed $29 $-1 #
face $-1 $78 $79 $17 $-1 $80 forward single #
loop $-1 $81 $82 $31 #
cone-surface $-1 43.050964772529781 -30.500928857032235 5.3797827054006024 -0.6018150307709319 0 -0.79863550430605224 0.79863550430605224 0 -0.6018150307709319 1 I I -0.70710678118654746 0.70710678118654746 1 forward I I I I #
loop $-1 $-1 $83 $22 #
coedge $-1 $52 $52 $84 $85 reversed $32 $-1 #
face $-1 $86 $87 $18 $-1 $88 forward single #
loop $-1 $-1 $89 $34 #
plane-surface $-1 -32.177936854857634 7.0018924500330613 66.728597086417906 0.6018150307709319 0 0.79863550430605224 0.79863550430605224 0 -0.6018150307709319 forward_v I I I I #
coedge $-1 $90 $91 $92 $93 reversed $35 $-1 #
face $-1 $94 $95 $19 $-1 $96 forward single #
loop $-1 $97 $98 $37 #
cone-surface $-1 43.050964772529781 7.0018924500330613 5.3797827054006024 -0.6018150307709319 0 -0.79863550430605224 0.79863550430605224 0 -0.6018150307709319 1 I I -0.70710678118654746 0.70710678118654746 1 forward I I I I #
loop $-1 $-1 $99 $24 #
coedge $-1 $61 $61 $100 $101 reversed $38 $-1 #
face $-1 $102 $103 $15 $-1 $104 reversed single #
loop $-1 $-1 $105 $40 #
plane-surface $-1 0 -37.502821307065297 0 0 1 0 0 0 1 forward_v I I I I #
coedge $-1 $106 $107 $108 $109 forward $41 $-1 #
coedge $-1 $110 $43 $111 $112 forward $26 $-1 #
coedge $-1 $43 $110 $113 $114 forward $26 $-1 #
coedge $-1 $115 $116 $43 $69 reversed $117 $-1 #
edge $-1 $118 -37.502821307065297 $119 37.502821307065297 $68 $120 forward 7 unknown #
face $-1 $121 $122 $16 $-1 $123 reversed single #
loop $-1 $-1 $124 $44 #
plane-surface $-1 53.874935148167367 0 0 -1 0 0 0 0 1 forward_v I I I I #
coedge $-1 $125 $126 $124 $127 reversed $45 $-1 #
coedge $-1 $128 $47 $126 $129 reversed $29 $-1 #
coedge $-1 $47 $128 $130 $131 reversed $29 $-1 #
coedge $-1 $132 $124 $47 $77 forward $71 $-1 #
edge $-1 $133 8.2485719784830565 $134 22.252356878549179 $76 $135 forward 7 unknown #
face $-1 $136 $137 $17 $-1 $138 forward single #
loop $-1 $139 $84 $48 #
plane-surface $-1 -32.177936854857634 -30.500928857032235 66.728597086417906 0.6018150307709319 0 0.79863550430605224 0.79863550430605224 0 -0.6018150307709319 forward_v I I I I #
loop $-1 $-1 $140 $31 #
coedge $-1 $82 $82 $83 $141 forward $49 $-1 #
coedge $-1 $83 $83 $82 $141 reversed $51 $-1 #
coedge $-1 $84 $84 $52 $85 forward $79 $-1 #
edge $-1 $142 0 $142 6.2831853071796004 $84 $143 forward 7 unknown #
face $-1 $144 $145 $18 $-1 $146 reversed single #
loop $-1 $-1 $147 $53 #
plane-surface $-1 32.667554653094982 14.003784900066124 152.78146908944291 0 -1 0 -0.6018150307709319 0 -0.79863550430605224 forward_v I I I I #
coedge $-1 $148 $149 $150 $151 reversed $54 $-1 #
coedge $-1 $91 $56 $149 $152 forward $35 $-1 #
coedge $-1 $56 $90 $153 $154 reversed $35 $-1 #
coedge $-1 $155 $150 $56 $93 forward $145 $-1 #
edge $-1 $156 -74.507628966256149 $157 -61.570098435608038 $92 $158 forward 7 unknown #
face $-1 $159 $160 $19 $-1 $161 forward single #
loop $-1 $-1 $162 $57 #
plane-surface $-1 32.667554653094982 -1.7763568394002505e-015 152.78146908944291 0 1 0 0.6018150307709319 0 0.79863550430605224 forward_v I I I I #
loop $-1 $-1 $163 $37 #
coedge $-1 $98 $98 $99 $164 forward $58 $-1 #
coedge $-1 $99 $99 $98 $164 reversed $60 $-1 #
coedge $-1 $100 $100 $61 $101 forward $160 $-1 #
edge $-1 $165 0 $165 6.2831853071796004 $100 $166 forward 7 unknown #
face $-1 $167 $168 $15 $-1 $169 reversed single #
loop $-1 $-1 $170 $62 #
plane-surface $-1 -53.874935148167367 0 0 1 0 0 0 0 -1 forward_v I I I I #
coedge $-1 $171 $113 $172 $173 forward $63 $-1 #
coedge $-1 $174 $65 $171 $175 forward $41 $-1 #
coedge $-1 $65 $174 $176 $177 forward $41 $-1 #
coedge $-1 $116 $115 $65 $109 reversed $117 $-1 #
edge $-1 $178 -37.502821307065297 $179 37.502821307065297 $108 $180 forward 7 unknown #
coedge $-1 $67 $66 $181 $182 forward $26 $-1 #
coedge $-1 $183 $184 $66 $112 reversed $168 $-1 #
edge $-1 $119 -53.874935148167367 $185 53.874935148167367 $111 $186 forward 7 unknown #
coedge $-1 $105 $187 $67 $114 reversed $63 $-1 #
edge $-1 $188 -53.874935148167367 $118 53.874935148167367 $113 $189 forward 7 unknown #
coedge $-1 $108 $68 $187 $190 forward $117 $-1 #
coedge $-1 $68 $108 $183 $191 reversed $117 $-1 #
loop $-1 $-1 $115 $167 #
vertex $-1 $69 $192 #
vertex $-1 $69 $193 #
straight-curve $-1 53.874935148167367 0 14.820636109113414 0 1 0 I I #
face $-1 $194 $195 $16 $-1 $196 forward single #
loop $-1 $-1 $130 $70 #
plane-surface $-1 0 -37.502821307065297 0 0 1 0 0 0 1 forward_v I I I I #
coedge $-1 $76 $197 $73 $127 forward $71 $-1 #
coedge $-1 $126 $73 $198 $199 reversed $45 $-1 #
coedge $-1 $73 $125 $74 $129 forward $45 $-1 #
edge $-1 $200 61.570098435608038 $133 74.507628966256149 $124 $201 forward 7 unknown #
coedge $-1 $75 $74 $202 $203 reversed $29 $-1 #
edge $-1 $204 86.252350511767375 $133 107.74987029633473 $126 $205 forward 7 unknown #
coedge $-1 $206 $207 $75 $131 forward $122 $-1 #
edge $-1 $134 -74.821512528099106 $208 -53.323992743531761 $130 $209 forward 7 unknown #
coedge $-1 $210 $76 $207 $211 forward $71 $-1 #
vertex $-1 $77 $212 #
vertex $-1 $211 $213 #
straight-curve $-1 53.874935148167367 -15.250464428516118 1.8831055784653117 0 -1 0 I I #
face $-1 $214 $215 $17 $-1 $216 reversed single #
loop $-1 $-1 $217 $78 #
plane-surface $-1 32.667554653094982 -23.499036406999174 152.78146908944291 0 -1 0 -0.6018150307709319 0 -0.79863550430605224 forward_v I I I I #
loop $-1 $-1 $218 $48 #
coedge $-1 $140 $140 $-1 $219 forward $81 $-1 #
edge $-1 $220 0 $220 6.2831853071796004 $82 $221 forward 7 unknown #
vertex $-1 $85 $222 #
ellipse-curve $-1 45.290593870928731 -30.500928857032235 8.3518708437893672 -0.6018150307709319 0 -0.79863550430605224 1.5972710086121045 0 -1.2036300615418638 1 I I #
face $-1 $223 $224 $18 $-1 $225 reversed single #
loop $-1 $-1 $226 $86 #
plane-surface $-1 53.874935148167367 0 0 -1 0 0 0 0 1 forward_v I I I I #
coedge $-1 $227 $228 $226 $229 reversed $87 $-1 #
coedge $-1 $230 $89 $228 $231 reversed $54 $-1 #
coedge $-1 $89 $230 $90 $152 reversed $54 $-1 #
coedge $-1 $92 $226 $89 $151 forward $145 $-1 #
edge $-1 $232 -10.502838675049594 $156 3.5009462250165324 $150 $233 forward 7 unknown #
edge $-1 $156 -107.74987029633473 $234 -86.252350511767375 $90 $235 forward 7 unknown #
coedge $-1 $236 $237 $91 $154 forward $238 $-1 #
edge $-1 $157 -37.541157821619876 $234 -20.37247526714259 $153 $239 forward 7 unknown #
coedge $-1 $240 $92 $237 $241 reversed $145 $-1 #
vertex $-1 $151 $242 #
vertex $-1 $154 $243 #
straight-curve $-1 53.874935148167367 -1.7763568394002505e-015 76.390734544721454 0 0 1 I I #
face $-1 $244 $245 $19 $-1 $246 forward single #
loop $-1 $247 $100 $94 #
plane-surface $-1 -32.177936854857634 7.0018924500330613 66.728597086417906 0.6018150307709319 0 0.79863550430605224 0.79863550430605224 0 -0.6018150307709319 forward_v I I I I #
coedge $-1 $248 $249 $250 $251 reversed $95 $-1 #
coedge $-1 $163 $163 $-1 $252 forward $97 $-1 #
edge $-1 $253 0 $253 6.2831853071796004 $98 $254 forward 7 unknown #
vertex $-1 $101 $255 #
ellipse-curve $-1 45.290593870928731 7.0018924500330613 8.3518708437893672 -0.6018150307709319 0 -0.79863550430605224 1.5972710086121045 0 -1.2036300615418638 1 I I #
face $-1 $-1 $117 $15 $-1 $256 reversed single #
loop $-1 $-1 $183 $102 #
plane-surface $-1 0 37.502821307065297 0 0 -1 0 0 0 -1 forward_v I I I I #
coedge $-1 $257 $181 $184 $258 forward $103 $-1 #
coedge $-1 $187 $105 $106 $175 reversed $63 $-1 #
coedge $-1 $181 $257 $105 $173 reversed $103 $-1 #
edge $-1 $188 -14.820636109113414 $259 14.820636109113414 $172 $260 forward 7 unknown #
coedge $-1 $107 $106 $257 $261 forward $41 $-1 #
edge $-1 $179 -53.874935148167367 $259 53.874935148167367 $171 $262 forward 7 unknown #
coedge $-1 $184 $183 $107 $177 reversed $168 $-1 #
edge $-1 $263 -53.874935148167367 $178 53.874935148167367 $176 $264 forward 7 unknown #
vertex $-1 $109 $265 #
vertex $-1 $190 $266 #
straight-curve $-1 53.874935148167367 0 -14.820636109113414 0 -1 0 I I #
coedge $-1 $170 $172 $110 $182 reversed $103 $-1 #
edge $-1 $185 -37.502821307065297 $188 37.502821307065297 $181 $267 forward 7 unknown #
coedge $-1 $176 $111 $116 $191 forward $168 $-1 #
coedge $-1 $111 $176 $170 $258 reversed $168 $-1 #
vertex $-1 $112 $268 #
straight-curve $-1 0 37.502821307065297 14.820636109113414 -1 0 0 I I #
coedge $-1 $113 $171 $115 $190 reversed $63 $-1 #
vertex $-1 $182 $269 #
straight-curve $-1 0 -37.502821307065297 14.820636109113414 1 0 0 I I #
edge $-1 $118 -14.820636109113414 $179 14.820636109113414 $115 $270 forward 7 unknown #
edge $-1 $119 -14.820636109113414 $178 14.820636109113414 $116 $271 forward 7 unknown #
point $-1 53.874935148167367 -37.502821307065297 14.820636109113414 #
point $-1 53.874935148167367 37.502821307065297 14.820636109113414 #
face $-1 $272 $273 $16 $-1 $274 reversed single #
loop $-1 $-1 $198 $121 #
plane-surface $-1 0 0 14.820636109113414 0 0 1 1 0 0 forward_v I I I I #
coedge $-1 $124 $275 $276 $277 reversed $71 $-1 #
coedge $-1 $276 $202 $125 $199 forward $195 $-1 #
edge $-1 $204 20.37247526714259 $200 37.541157821619876 $198 $278 forward 7 unknown #
vertex $-1 $277 $279 #
straight-curve $-1 53.874935148167367 -23.499036406999174 76.390734544721454 0 0 -1 I I #
coedge $-1 $198 $280 $128 $203 forward $195 $-1 #
edge $-1 $208 -22.252356878549179 $204 -8.2485719784830565 $202 $281 forward 7 unknown #
vertex $-1 $203 $282 #
straight-curve $-1 -32.177936854857634 -23.499036406999174 66.728597086417906 0.79863550430605224 0 -0.6018150307709319 I I #
coedge $-1 $283 $130 $280 $284 reversed $122 $-1 #
coedge $-1 $130 $285 $132 $211 reversed $122 $-1 #
vertex $-1 $203 $286 #
straight-curve $-1 -5.8801812426526681 -37.502821307065297 46.911816442890938 -0.79863550430605224 0 0.6018150307709319 I I #
coedge $-1 $275 $132 $287 $288 reversed $71 $-1 #
edge $-1 $134 -1.8831055784653106 $289 14.820636109113414 $132 $290 forward 7 unknown #
point $-1 53.874935148167367 -23.499036406999174 1.8831055784653046 #
point $-1 53.874935148167367 -37.502821307065297 1.8831055784653106 #
face $-1 $291 $292 $17 $-1 $293 reversed single #
loop $-1 $-1 $294 $136 #
plane-surface $-1 53.874935148167367 0 0 -1 0 0 0 0 1 forward_v I I I I #
coedge $-1 $295 $296 $294 $297 reversed $137 $-1 #
coedge $-1 $298 $299 $300 $301 reversed $139 $-1 #
edge $-1 $302 1 $302 0 $140 $-1 forward 7 unknown #
vertex $-1 $141 $303 #
ellipse-curve $-1 43.65277980330071 -30.500928857032235 6.1784182097066545 0.6018150307709319 0 0.79863550430605224 1.5972710086121045 0 -1.2036300615418638 1 I I #
point $-1 46.887864879540828 -30.500928857032235 7.1482407822474938 #
face $-1 $304 $305 $18 $-1 $306 reversed single #
loop $-1 $307 $308 $144 #
cone-surface $-1 44.471686837114717 -30.500928857032235 7.2651445267480064 -0.6018150307709319 0 -0.79863550430605224 1.5972710086121045 0 -1.2036300615418638 1 I I 0 1 2 forward I I I I #
coedge $-1 $150 $309 $147 $229 forward $145 $-1 #
coedge $-1 $228 $147 $310 $311 reversed $87 $-1 #
coedge $-1 $147 $227 $148 $231 forward $87 $-1 #
edge $-1 $312 61.570098435608038 $232 74.507628966256149 $226 $313 forward 7 unknown #
coedge $-1 $149 $148 $236 $314 reversed $54 $-1 #
edge $-1 $315 86.252350511767375 $232 107.74987029633473 $228 $316 forward 7 unknown #
vertex $-1 $151 $317 #
straight-curve $-1 53.874935148167367 3.5009462250165306 1.8831055784653117 0 -1 0 I I #
vertex $-1 $314 $318 #
straight-curve $-1 -32.177936854857634 -1.7763568394002505e-015 66.728597086417906 -0.79863550430605224 0 0.6018150307709319 I I #
coedge $-1 $310 $153 $230 $314 forward $238 $-1 #
coedge $-1 $153 $319 $155 $241 forward $238 $-1 #
loop $-1 $-1 $310 $320 #
straight-curve $-1 16.333777326547491 -1.7763568394002505e-015 14.820636109113408 -1 0 0 I I #
coedge $-1 $321 $155 $322 $323 forward $145 $-1 #
edge $-1 $324 -23.499036406999174 $157 -1.7763568394002505e-015 $155 $325 forward 7 unknown #
point $-1 53.874935148167367 -1.7763568394002505e-015 1.8831055784653046 #
point $-1 53.874935148167367 -1.7763568394002505e-015 14.820636109113414 #
face $-1 $326 $327 $19 $-1 $328 reversed single #
loop $-1 $-1 $329 $159 #
plane-surface $-1 32.667554653094982 14.003784900066124 152.78146908944291 0 -1 0 -0.6018150307709319 0 -0.79863550430605224 forward_v I I I I #
loop $-1 $-1 $330 $94 #
coedge $-1 $249 $162 $331 $332 forward $95 $-1 #
coedge $-1 $162 $248 $333 $334 reversed $95 $-1 #
coedge $-1 $335 $336 $162 $251 forward $327 $-1 #
edge $-1 $337 -74.507628966256149 $338 -61.570098435608038 $250 $339 forward 7 unknown #
edge $-1 $340 1 $340 0 $163 $-1 forward 7 unknown #
vertex $-1 $164 $341 #
ellipse-curve $-1 43.65277980330071 7.0018924500330613 6.1784182097066545 0.6018150307709319 0 0.79863550430605224 1.5972710086121045 0 -1.2036300615418638 1 I I #
point $-1 46.887864879540828 7.0018924500330613 7.1482407822474938 #
plane-surface $-1 53.874935148167367 0 0 -1 0 0 0 0 1 forward_v I I I I #
coedge $-1 $172 $170 $174 $261 reversed $103 $-1 #
edge $-1 $185 -14.820636109113414 $263 14.820636109113414 $184 $342 forward 7 unknown #
vertex $-1 $261 $343 #
straight-curve $-1 -53.874935148167367 -37.502821307065297 0 0 0 -1 I I #
edge $-1 $259 -37.502821307065297 $263 37.502821307065297 $257 $344 forward 7 unknown #
straight-curve $-1 0 -37.502821307065297 -14.820636109113414 -1 0 0 I I #
vertex $-1 $177 $345 #
straight-curve $-1 0 37.502821307065297 -14.820636109113414 1 0 0 I I #
point $-1 53.874935148167367 37.502821307065297 -14.820636109113414 #
point $-1 53.874935148167367 -37.502821307065297 -14.820636109113414 #
straight-curve $-1 -53.874935148167367 0 14.820636109113414 0 -1 0 I I #
point $-1 -53.874935148167367 37.502821307065297 14.820636109113414 #
point $-1 -53.874935148167367 -37.502821307065297 14.820636109113414 #
straight-curve $-1 53.874935148167367 -37.502821307065297 0 0 0 -1 I I #
straight-curve $-1 53.874935148167367 37.502821307065297 0 0 0 -1 I I #
face $-1 $346 $347 $16 $-1 $348 reversed single #
loop $-1 $-1 $287 $194 #
plane-surface $-1 0 0 -14.820636109113414 0 0 1 1 0 0 forward_v I I I I #
coedge $-1 $197 $210 $349 $350 reversed $71 $-1 #
coedge $-1 $351 $198 $197 $277 forward $195 $-1 #
edge $-1 $200 -23.499036406999174 $352 37.502821307065297 $197 $353 forward 7 unknown #
straight-curve $-1 16.333777326547491 -23.499036406999174 14.820636109113408 1 0 0 I I #
point $-1 53.874935148167367 -23.499036406999174 14.820636109113414 #
coedge $-1 $202 $354 $206 $284 forward $195 $-1 #
straight-curve $-1 36.706252593690081 -15.250464428516118 14.820636109113416 0 1 0 I I #
point $-1 36.706252593690081 -23.499036406999174 14.820636109113423 #
coedge $-1 $285 $206 $355 $356 forward $122 $-1 #
edge $-1 $357 -53.874935148167367 $208 36.706252593690081 $206 $358 forward 7 unknown #
coedge $-1 $207 $283 $359 $360 reversed $122 $-1 #
point $-1 36.706252593690081 -37.502821307065297 14.820636109113423 #
coedge $-1 $359 $361 $210 $288 forward $273 $-1 #
edge $-1 $362 -37.502821307065297 $289 37.502821307065297 $210 $363 forward 7 unknown #
vertex $-1 $211 $364 #
straight-curve $-1 53.874935148167367 -37.502821307065297 0 0 0 -1 I I #
face $-1 $365 $366 $17 $-1 $367 forward single #
loop $-1 $-1 $368 $214 #
plane-surface $-1 0 -37.502821307065297 0 0 1 0 0 0 1 forward_v I I I I #
coedge $-1 $300 $369 $217 $297 forward $215 $-1 #
coedge $-1 $296 $217 $370 $371 reversed $137 $-1 #
coedge $-1 $217 $295 $298 $372 forward $137 $-1 #
edge $-1 $373 61.570098435608038 $374 74.507628966256149 $294 $375 forward 7 unknown #
coedge $-1 $376 $218 $296 $372 reversed $139 $-1 #
coedge $-1 $218 $376 $368 $377 reversed $139 $-1 #
coedge $-1 $378 $294 $218 $301 forward $215 $-1 #
edge $-1 $374 8.2485719784830565 $379 22.252356878549179 $300 $380 forward 7 unknown #
vertex $-1 $219 $381 #
point $-1 45.250050811912814 -30.500928857032235 4.9747881481647909 #
face $-1 $382 $383 $18 $-1 $384 forward single #
loop $-1 $385 $386 $223 #
cone-surface $-1 43.050964772529781 -30.500928857032235 5.3797827054006024 -0.6018150307709319 0 -0.79863550430605224 0.79863550430605224 0 -0.6018150307709319 1 I I -0.70710678118654746 0.70710678118654746 1 forward I I I I #
loop $-1 $-1 $387 $144 #
coedge $-1 $308 $308 $388 $389 reversed $224 $-1 #
coedge $-1 $226 $390 $391 $392 reversed $145 $-1 #
coedge $-1 $391 $236 $227 $311 forward $238 $-1 #
edge $-1 $315 20.37247526714259 $312 37.541157821619876 $310 $393 forward 7 unknown #
vertex $-1 $392 $394 #
straight-curve $-1 53.874935148167367 14.003784900066124 76.390734544721454 0 0 -1 I I #
edge $-1 $234 -3.5009462250165324 $315 10.502838675049594 $236 $395 forward 7 unknown #
vertex $-1 $314 $396 #
straight-curve $-1 -32.177936854857634 14.003784900066124 66.728597086417906 0.79863550430605224 0 -0.6018150307709319 I I #
point $-1 53.874935148167367 14.003784900066124 1.8831055784653046 #
point $-1 36.706252593690081 -1.7763568394002505e-015 14.820636109113423 #
coedge $-1 $237 $397 $398 $399 forward $238 $-1 #
face $-1 $400 $238 $18 $-1 $401 forward single #
coedge $-1 $402 $240 $403 $404 forward $145 $-1 #
coedge $-1 $398 $405 $240 $323 reversed $406 $-1 #
edge $-1 $324 61.570098435608038 $407 74.507628966256149 $240 $408 forward 7 unknown #
vertex $-1 $241 $409 #
straight-curve $-1 53.874935148167367 0 14.820636109113414 0 1 0 I I #
face $-1 $410 $411 $19 $-1 $412 reversed single #
loop $-1 $-1 $413 $244 #
plane-surface $-1 53.874935148167367 0 0 -1 0 0 0 0 1 forward_v I I I I #
coedge $-1 $414 $415 $413 $416 reversed $245 $-1 #
coedge $-1 $417 $331 $336 $418 reversed $247 $-1 #
coedge $-1 $330 $419 $248 $332 reversed $247 $-1 #
edge $-1 $337 -107.74987029633473 $420 -86.252350511767375 $248 $421 forward 7 unknown #
coedge $-1 $422 $423 $249 $334 forward $424 $-1 #
edge $-1 $338 -37.541157821619876 $420 -20.37247526714259 $333 $425 forward 7 unknown #
coedge $-1 $426 $250 $423 $427 reversed $327 $-1 #
coedge $-1 $250 $413 $330 $418 forward $327 $-1 #
vertex $-1 $418 $428 #
vertex $-1 $334 $429 #
straight-curve $-1 53.874935148167367 -1.7763568394002505e-015 76.390734544721454 0 0 1 I I #
vertex $-1 $252 $430 #
point $-1 45.250050811912814 7.0018924500330613 4.9747881481647909 #
straight-curve $-1 -53.874935148167367 37.502821307065297 0 0 0 -1 I I #
point $-1 -53.874935148167367 -37.502821307065297 -14.820636109113414 #
straight-curve $-1 -53.874935148167367 0 -14.820636109113414 0 1 0 I I #
point $-1 -53.874935148167367 37.502821307065297 -14.820636109113414 #
face $-1 $-1 $431 $16 $-1 $432 reversed single #
loop $-1 $-1 $433 $272 #
plane-surface $-1 -53.874935148167367 0 0 1 0 0 0 0 -1 forward_v I I I I #
coedge $-1 $434 $435 $275 $350 forward $431 $-1 #
edge $-1 $352 -14.820636109113414 $362 14.820636109113414 $275 $436 forward 7 unknown #
coedge $-1 $354 $276 $435 $437 forward $195 $-1 #
vertex $-1 $277 $438 #
straight-curve $-1 53.874935148167367 0 14.820636109113414 0 1 0 I I #
coedge $-1 $280 $351 $439 $440 forward $195 $-1 #
coedge $-1 $439 $441 $283 $356 reversed $347 $-1 #
edge $-1 $357 -14.820636109113414 $442 14.820636109113414 $355 $443 forward 7 unknown #
vertex $-1 $440 $444 #
straight-curve $-1 0 -37.502821307065297 14.820636109113414 1 0 0 I I #
coedge $-1 $445 $287 $285 $360 forward $273 $-1 #
edge $-1 $289 -53.874935148167367 $442 53.874935148167367 $285 $446 forward 7 unknown #
coedge $-1 $287 $445 $434 $447 forward $273 $-1 #
vertex $-1 $288 $448 #
straight-curve $-1 53.874935148167367 0 -14.820636109113414 0 -1 0 I I #
point $-1 53.874935148167367 -37.502821307065297 -14.820636109113414 #
face $-1 $449 $450 $17 $-1 $451 reversed single #
loop $-1 $-1 $370 $291 #
plane-surface $-1 0 0 14.820636109113414 0 0 1 1 0 0 forward_v I I I I #
coedge $-1 $452 $453 $299 $377 forward $292 $-1 #
coedge $-1 $294 $454 $455 $456 reversed $215 $-1 #
coedge $-1 $455 $457 $295 $371 forward $366 $-1 #
edge $-1 $458 20.37247526714259 $373 37.541157821619876 $370 $459 forward 7 unknown #
edge $-1 $458 86.252350511767375 $374 107.74987029633473 $296 $460 forward 7 unknown #
vertex $-1 $456 $461 #
vertex $-1 $301 $462 #
straight-curve $-1 53.874935148167367 -23.499036406999174 76.390734544721454 0 0 -1 I I #
coedge $-1 $299 $298 $457 $463 reversed $139 $-1 #
edge $-1 $379 -74.821512528099106 $464 -53.323992743531761 $368 $465 forward 7 unknown #
coedge $-1 $466 $300 $453 $467 forward $215 $-1 #
vertex $-1 $467 $468 #
straight-curve $-1 53.874935148167367 -15.250464428516118 1.8831055784653117 0 -1 0 I I #
point $-1 42.449149741758852 -30.500928857032235 4.5811472010945504 #
face $-1 $469 $406 $18 $-1 $470 forward single #
loop $-1 $471 $388 $304 #
plane-surface $-1 -32.177936854857634 -30.500928857032235 66.728597086417906 0.6018150307709319 0 0.79863550430605224 0.79863550430605224 0 -0.6018150307709319 forward_v I I I I #
loop $-1 $-1 $472 $223 #
coedge $-1 $386 $386 $387 $473 forward $305 $-1 #
coedge $-1 $387 $387 $386 $473 reversed $307 $-1 #
coedge $-1 $388 $388 $308 $389 forward $383 $-1 #
edge $-1 $474 0 $474 6.2831853071796004 $388 $475 forward 7 unknown #
coedge $-1 $309 $476 $477 $478 reversed $145 $-1 #
coedge $-1 $479 $310 $309 $392 forward $238 $-1 #
edge $-1 $312 14.003784900066124 $480 37.502821307065297 $309 $325 forward 7 unknown #
straight-curve $-1 16.333777326547491 14.003784900066124 14.820636109113408 1 0 0 I I #
point $-1 53.874935148167367 14.003784900066124 14.820636109113414 #
straight-curve $-1 36.706252593690081 3.5009462250165306 14.820636109113416 0 1 0 I I #
point $-1 36.706252593690081 14.003784900066124 14.820636109113423 #
coedge $-1 $319 $481 $482 $483 forward $238 $-1 #
coedge $-1 $405 $322 $319 $399 reversed $406 $-1 #
edge $-1 $484 20.37247526714259 $324 37.541157821619876 $319 $485 forward 7 unknown #
face $-1 $486 $487 $18 $-1 $488 reversed single #
plane-surface $-1 0 0 14.820636109113414 0 0 1 1 0 0 forward_v I I I I #
coedge $-1 $476 $321 $489 $490 forward $145 $-1 #
coedge $-1 $491 $492 $321 $404 reversed $471 $-1 #
edge $-1 $407 8.2485719784830565 $493 22.252356878549179 $321 $494 forward 7 unknown #
coedge $-1 $322 $398 $491 $495 forward $406 $-1 #
loop $-1 $-1 $322 $382 #
vertex $-1 $404 $496 #
straight-curve $-1 53.874935148167367 -23.499036406999174 76.390734544721454 0 0 -1 I I #
point $-1 53.874935148167367 -23.499036406999174 14.820636109113414 #
face $-1 $497 $498 $19 $-1 $499 reversed single #
loop $-1 $500 $501 $326 #
cone-surface $-1 44.471686837114717 -30.500928857032235 7.2651445267480064 -0.6018150307709319 0 -0.79863550430605224 1.5972710086121045 0 -1.2036300615418638 1 I I 0 1 2 forward I I I I #
coedge $-1 $336 $502 $329 $416 forward $327 $-1 #
coedge $-1 $415 $329 $503 $504 reversed $245 $-1 #
coedge $-1 $329 $414 $417 $505 forward $245 $-1 #
edge $-1 $506 61.570098435608038 $507 74.507628966256149 $413 $508 forward 7 unknown #
coedge $-1 $419 $330 $415 $505 reversed $247 $-1 #
edge $-1 $507 -10.502838675049594 $337 3.5009462250165324 $336 $509 forward 7 unknown #
coedge $-1 $331 $417 $422 $510 reversed $247 $-1 #
vertex $-1 $510 $511 #
straight-curve $-1 -32.177936854857634 -1.7763568394002505e-015 66.728597086417906 -0.79863550430605224 0 0.6018150307709319 I I #
coedge $-1 $503 $333 $419 $510 forward $424 $-1 #
coedge $-1 $333 $512 $335 $427 forward $424 $-1 #
loop $-1 $-1 $503 $513 #
straight-curve $-1 16.333777326547491 -1.7763568394002505e-015 14.820636109113408 -1 0 0 I I #
coedge $-1 $514 $335 $515 $516 forward $327 $-1 #
edge $-1 $517 -23.499036406999174 $338 -1.7763568394002505e-015 $335 $518 forward 7 unknown #
point $-1 53.874935148167367 -1.7763568394002505e-015 1.8831055784653046 #
point $-1 53.874935148167367 -1.7763568394002505e-015 14.820636109113414 #
point $-1 42.449149741758852 7.0018924500330613 4.5811472010945504 #
loop $-1 $-1 $349 $346 #
plane-surface $-1 0 37.502821307065297 0 0 -1 0 0 0 -1 forward_v I I I I #
coedge $-1 $441 $439 $519 $520 forward $347 $-1 #
coedge $-1 $519 $349 $361 $447 reversed $431 $-1 #
coedge $-1 $349 $519 $351 $437 reversed $431 $-1 #
straight-curve $-1 53.874935148167367 37.502821307065297 0 0 0 -1 I I #
edge $-1 $352 -53.874935148167367 $521 53.874935148167367 $435 $522 forward 7 unknown #
point $-1 53.874935148167367 37.502821307065297 14.820636109113414 #
coedge $-1 $433 $355 $354 $440 reversed $347 $-1 #
edge $-1 $521 -37.502821307065297 $357 37.502821307065297 $439 $523 forward 7 unknown #
coedge $-1 $355 $433 $445 $524 reversed $347 $-1 #
vertex $-1 $524 $525 #
straight-curve $-1 -53.874935148167367 -37.502821307065297 0 0 0 -1 I I #
point $-1 -53.874935148167367 -37.502821307065297 14.820636109113414 #
coedge $-1 $361 $359 $441 $524 forward $273 $-1 #
straight-curve $-1 0 -37.502821307065297 -14.820636109113414 -1 0 0 I I #
edge $-1 $526 -53.874935148167367 $362 53.874935148167367 $434 $527 forward 7 unknown #
point $-1 53.874935148167367 37.502821307065297 -14.820636109113414 #
face $-1 $528 $529 $17 $-1 $530 reversed single #
loop $-1 $-1 $531 $365 #
plane-surface $-1 0 0 -14.820636109113414 0 0 1 1 0 0 forward_v I I I I #
coedge $-1 $532 $368 $533 $534 reversed $292 $-1 #
coedge $-1 $368 $535 $378 $467 reversed $292 $-1 #
coedge $-1 $369 $466 $536 $537 reversed $215 $-1 #
coedge $-1 $538 $370 $369 $456 forward $366 $-1 #
edge $-1 $373 -23.499036406999174 $539 37.502821307065297 $369 $540 forward 7 unknown #
coedge $-1 $370 $533 $376 $463 forward $366 $-1 #
vertex $-1 $463 $541 #
straight-curve $-1 16.333777326547491 -23.499036406999174 14.820636109113408 1 0 0 I I #
straight-curve $-1 -32.177936854857634 -23.499036406999174 66.728597086417906 0.79863550430605224 0 -0.6018150307709319 I I #
point $-1 53.874935148167367 -23.499036406999174 14.820636109113414 #
point $-1 53.874935148167367 -23.499036406999174 1.8831055784653046 #
edge $-1 $464 -22.252356878549179 $458 -8.2485719784830565 $457 $542 forward 7 unknown #
vertex $-1 $463 $543 #
straight-curve $-1 -5.8801812426526681 -37.502821307065297 46.911816442890938 -0.79863550430605224 0 0.6018150307709319 I I #
coedge $-1 $454 $378 $531 $544 reversed $215 $-1 #
edge $-1 $379 -1.8831055784653106 $545 14.820636109113414 $378 $546 forward 7 unknown #
point $-1 53.874935148167367 -37.502821307065297 1.8831055784653106 #
face $-1 $320 $547 $18 $-1 $548 reversed single #
plane-surface $-1 32.667554653094982 -23.499036406999174 152.78146908944291 0 -1 0 -0.6018150307709319 0 -0.79863550430605224 forward_v I I I I #
loop $-1 $-1 $403 $304 #
coedge $-1 $472 $472 $-1 $549 forward $385 $-1 #
edge $-1 $550 0 $550 6.2831853071796004 $386 $551 forward 7 unknown #
vertex $-1 $389 $552 #
ellipse-curve $-1 45.290593870928731 -30.500928857032235 8.3518708437893672 -0.6018150307709319 0 -0.79863550430605224 1.5972710086121045 0 -1.2036300615418638 1 I I #
coedge $-1 $390 $402 $553 $554 reversed $145 $-1 #
coedge $-1 $555 $556 $390 $478 forward $557 $-1 #
edge $-1 $480 -14.820636109113414 $558 14.820636109113414 $390 $559 forward 7 unknown #
coedge $-1 $560 $391 $556 $561 forward $238 $-1 #
vertex $-1 $392 $562 #
coedge $-1 $397 $560 $563 $564 forward $238 $-1 #
coedge $-1 $492 $491 $397 $483 reversed $471 $-1 #
edge $-1 $565 -22.252356878549179 $484 -8.2485719784830565 $397 $566 forward 7 unknown #
vertex $-1 $483 $567 #
straight-curve $-1 16.333777326547491 -23.499036406999174 14.820636109113408 1 0 0 I I #
face $-1 $568 $569 $18 $-1 $570 reversed single #
loop $-1 $-1 $553 $400 #
plane-surface $-1 0 0 -14.820636109113414 0 0 1 1 0 0 forward_v I I I I #
coedge $-1 $571 $572 $402 $490 reversed $547 $-1 #
edge $-1 $493 -1.8831055784653106 $573 14.820636109113414 $402 $574 forward 7 unknown #
coedge $-1 $482 $403 $405 $495 reversed $471 $-1 #
coedge $-1 $403 $482 $571 $575 reversed $471 $-1 #
vertex $-1 $490 $576 #
straight-curve $-1 53.874935148167367 -15.250464428516118 1.8831055784653117 0 -1 0 I I #
edge $-1 $484 86.252350511767375 $407 107.74987029633473 $405 $577 forward 7 unknown #
point $-1 53.874935148167367 -23.499036406999174 1.8831055784653046 #
face $-1 $578 $579 $19 $-1 $580 forward single #
loop $-1 $581 $582 $410 #
cone-surface $-1 43.050964772529781 -30.500928857032235 5.3797827054006024 -0.6018150307709319 0 -0.79863550430605224 0.79863550430605224 0 -0.6018150307709319 1 I I -0.70710678118654746 0.70710678118654746 1 forward I I I I #
loop $-1 $-1 $583 $326 #
coedge $-1 $501 $501 $584 $585 reversed $411 $-1 #
coedge $-1 $413 $586 $587 $588 reversed $327 $-1 #
coedge $-1 $587 $422 $414 $504 forward $424 $-1 #
edge $-1 $589 20.37247526714259 $506 37.541157821619876 $503 $590 forward 7 unknown #
edge $-1 $589 86.252350511767375 $507 107.74987029633473 $415 $591 forward 7 unknown #
vertex $-1 $588 $592 #
vertex $-1 $418 $593 #
straight-curve $-1 53.874935148167367 14.003784900066124 76.390734544721454 0 0 -1 I I #
straight-curve $-1 53.874935148167367 3.5009462250165306 1.8831055784653117 0 -1 0 I I #
edge $-1 $420 -3.5009462250165324 $589 10.502838675049594 $422 $594 forward 7 unknown #
point $-1 36.706252593690081 -1.7763568394002505e-015 14.820636109113423 #
coedge $-1 $423 $595 $596 $597 forward $424 $-1 #
face $-1 $598 $424 $19 $-1 $599 forward single #
coedge $-1 $600 $426 $601 $602 forward $327 $-1 #
coedge $-1 $596 $603 $426 $516 reversed $604 $-1 #
edge $-1 $517 61.570098435608038 $605 74.507628966256149 $426 $606 forward 7 unknown #
vertex $-1 $427 $607 #
straight-curve $-1 53.874935148167367 0 14.820636109113414 0 1 0 I I #
coedge $-1 $435 $434 $433 $520 reversed $431 $-1 #
edge $-1 $521 -14.820636109113414 $526 14.820636109113414 $519 $608 forward 7 unknown #
vertex $-1 $437 $609 #
straight-curve $-1 0 37.502821307065297 14.820636109113414 -1 0 0 I I #
straight-curve $-1 -53.874935148167367 0 14.820636109113414 0 -1 0 I I #
edge $-1 $442 -37.502821307065297 $526 37.502821307065297 $441 $610 forward 7 unknown #
point $-1 -53.874935148167367 -37.502821307065297 -14.820636109113414 #
vertex $-1 $447 $611 #
straight-curve $-1 0 37.502821307065297 -14.820636109113414 1 0 0 I I #
face $-1 $-1 $612 $17 $-1 $613 reversed single #
loop $-1 $-1 $614 $449 #
plane-surface $-1 -53.874935148167367 0 0 1 0 0 0 0 -1 forward_v I I I I #
coedge $-1 $615 $616 $466 $544 forward $450 $-1 #
coedge $-1 $535 $452 $617 $618 forward $292 $-1 #
coedge $-1 $457 $619 $452 $534 forward $366 $-1 #
edge $-1 $620 -53.874935148167367 $464 36.706252593690081 $452 $621 forward 7 unknown #
coedge $-1 $453 $532 $615 $622 reversed $292 $-1 #
coedge $-1 $623 $624 $454 $537 forward $612 $-1 #
edge $-1 $539 -14.820636109113414 $625 14.820636109113414 $454 $626 forward 7 unknown #
coedge $-1 $619 $455 $624 $627 forward $366 $-1 #
vertex $-1 $456 $628 #
straight-curve $-1 53.874935148167367 0 14.820636109113414 0 1 0 I I #
point $-1 36.706252593690081 -23.499036406999174 14.820636109113423 #
straight-curve $-1 36.706252593690081 -15.250464428516118 14.820636109113416 0 1 0 I I #
point $-1 36.706252593690081 -37.502821307065297 14.820636109113423 #
edge $-1 $625 -37.502821307065297 $545 37.502821307065297 $466 $629 forward 7 unknown #
vertex $-1 $467 $630 #
straight-curve $-1 53.874935148167367 -37.502821307065297 0 0 0 -1 I I #
loop $-1 $-1 $571 $469 #
plane-surface $-1 0 -37.502821307065297 0 0 1 0 0 0 1 forward_v I I I I #
edge $-1 $631 1 $631 0 $472 $-1 forward 7 unknown #
vertex $-1 $473 $632 #
ellipse-curve $-1 43.65277980330071 -30.500928857032235 6.1784182097066545 0.6018150307709319 0 0.79863550430605224 1.5972710086121045 0 -1.2036300615418638 1 I I #
point $-1 46.887864879540828 -30.500928857032235 7.1482407822474938 #
coedge $-1 $633 $634 $476 $554 forward $487 $-1 #
edge $-1 $558 -37.502821307065297 $573 37.502821307065297 $476 $635 forward 7 unknown #
coedge $-1 $636 $477 $634 $637 reversed $557 $-1 #
coedge $-1 $477 $636 $479 $561 reversed $557 $-1 #
loop $-1 $-1 $477 $568 #
vertex $-1 $554 $638 #
straight-curve $-1 53.874935148167367 37.502821307065297 0 0 0 -1 I I #
coedge $-1 $481 $479 $639 $640 forward $238 $-1 #
edge $-1 $480 -53.874935148167367 $641 53.874935148167367 $556 $642 forward 7 unknown #
point $-1 53.874935148167367 37.502821307065297 14.820636109113414 #
coedge $-1 $643 $571 $481 $564 reversed $547 $-1 #
edge $-1 $644 -53.874935148167367 $565 36.706252593690081 $563 $645 forward 7 unknown #
vertex $-1 $483 $646 #
straight-curve $-1 36.706252593690081 -15.250464428516118 14.820636109113416 0 1 0 I I #
point $-1 36.706252593690081 -23.499036406999174 14.820636109113423 #
face $-1 $-1 $557 $18 $-1 $647 reversed single #
loop $-1 $-1 $648 $486 #
plane-surface $-1 -53.874935148167367 0 0 1 0 0 0 0 -1 forward_v I I I I #
coedge $-1 $563 $489 $492 $575 forward $547 $-1 #
coedge $-1 $489 $643 $633 $649 reversed $547 $-1 #
vertex $-1 $490 $650 #
straight-curve $-1 53.874935148167367 -37.502821307065297 0 0 0 -1 I I #
edge $-1 $493 -74.821512528099106 $565 -53.323992743531761 $571 $651 forward 7 unknown #
point $-1 53.874935148167367 -37.502821307065297 1.8831055784653106 #
straight-curve $-1 -32.177936854857634 -23.499036406999174 66.728597086417906 0.79863550430605224 0 -0.6018150307709319 I I #
face $-1 $652 $604 $19 $-1 $653 forward single #
loop $-1 $654 $584 $497 #
plane-surface $-1 -32.177936854857634 -30.500928857032235 66.728597086417906 0.6018150307709319 0 0.79863550430605224 0.79863550430605224 0 -0.6018150307709319 forward_v I I I I #
loop $-1 $-1 $655 $410 #
coedge $-1 $582 $582 $583 $656 forward $498 $-1 #
coedge $-1 $583 $583 $582 $656 reversed $500 $-1 #
coedge $-1 $584 $584 $501 $585 forward $579 $-1 #
edge $-1 $657 0 $657 6.2831853071796004 $584 $658 forward 7 unknown #
coedge $-1 $502 $659 $660 $661 reversed $327 $-1 #
coedge $-1 $662 $503 $502 $588 forward $424 $-1 #
edge $-1 $506 14.003784900066124 $663 37.502821307065297 $502 $518 forward 7 unknown #
vertex $-1 $510 $664 #
straight-curve $-1 16.333777326547491 14.003784900066124 14.820636109113408 1 0 0 I I #
straight-curve $-1 -32.177936854857634 14.003784900066124 66.728597086417906 0.79863550430605224 0 -0.6018150307709319 I I #
point $-1 53.874935148167367 14.003784900066124 14.820636109113414 #
point $-1 53.874935148167367 14.003784900066124 1.8831055784653046 #
straight-curve $-1 36.706252593690081 3.5009462250165306 14.820636109113416 0 1 0 I I #
coedge $-1 $512 $665 $666 $667 forward $424 $-1 #
coedge $-1 $603 $515 $512 $597 reversed $604 $-1 #
edge $-1 $668 20.37247526714259 $517 37.541157821619876 $512 $669 forward 7 unknown #
face $-1 $670 $671 $19 $-1 $672 reversed single #
plane-surface $-1 0 0 14.820636109113414 0 0 1 1 0 0 forward_v I I I I #
coedge $-1 $659 $514 $673 $674 forward $327 $-1 #
coedge $-1 $675 $676 $514 $602 reversed $654 $-1 #
edge $-1 $605 8.2485719784830565 $677 22.252356878549179 $514 $678 forward 7 unknown #
coedge $-1 $515 $596 $675 $679 forward $604 $-1 #
loop $-1 $-1 $515 $578 #
vertex $-1 $602 $680 #
straight-curve $-1 53.874935148167367 -23.499036406999174 76.390734544721454 0 0 -1 I I #
point $-1 53.874935148167367 -23.499036406999174 14.820636109113414 #
straight-curve $-1 -53.874935148167367 37.502821307065297 0 0 0 -1 I I #
point $-1 -53.874935148167367 37.502821307065297 14.820636109113414 #
straight-curve $-1 -53.874935148167367 0 -14.820636109113414 0 1 0 I I #
point $-1 -53.874935148167367 37.502821307065297 -14.820636109113414 #
loop $-1 $-1 $536 $528 #
plane-surface $-1 0 37.502821307065297 0 0 -1 0 0 0 -1 forward_v I I I I #
coedge $-1 $681 $682 $683 $684 forward $529 $-1 #
coedge $-1 $685 $531 $535 $622 forward $450 $-1 #
coedge $-1 $531 $685 $623 $686 forward $450 $-1 #
coedge $-1 $682 $681 $532 $618 reversed $529 $-1 #
edge $-1 $620 -14.820636109113414 $687 14.820636109113414 $617 $688 forward 7 unknown #
coedge $-1 $533 $538 $682 $689 forward $366 $-1 #
vertex $-1 $689 $690 #
straight-curve $-1 0 -37.502821307065297 14.820636109113414 1 0 0 I I #
edge $-1 $545 -53.874935148167367 $687 53.874935148167367 $535 $691 forward 7 unknown #
coedge $-1 $683 $536 $616 $686 reversed $612 $-1 #
coedge $-1 $536 $683 $538 $627 reversed $612 $-1 #
vertex $-1 $544 $692 #
straight-curve $-1 53.874935148167367 37.502821307065297 0 0 0 -1 I I #
edge $-1 $539 -53.874935148167367 $693 53.874935148167367 $624 $694 forward 7 unknown #
point $-1 53.874935148167367 37.502821307065297 14.820636109113414 #
straight-curve $-1 53.874935148167367 0 -14.820636109113414 0 -1 0 I I #
point $-1 53.874935148167367 -37.502821307065297 -14.820636109113414 #
vertex $-1 $549 $695 #
point $-1 45.250050811912814 -30.500928857032235 4.9747881481647909 #
coedge $-1 $696 $553 $572 $649 forward $487 $-1 #
coedge $-1 $553 $696 $555 $637 forward $487 $-1 #
straight-curve $-1 53.874935148167367 0 -14.820636109113414 0 -1 0 I I #
coedge $-1 $556 $555 $648 $697 reversed $557 $-1 #
edge $-1 $698 -53.874935148167367 $558 53.874935148167367 $555 $699 forward 7 unknown #
point $-1 53.874935148167367 37.502821307065297 -14.820636109113414 #
coedge $-1 $648 $700 $560 $640 reversed $569 $-1 #
edge $-1 $641 -37.502821307065297 $644 37.502821307065297 $639 $701 forward 7 unknown #
vertex $-1 $561 $702 #
straight-curve $-1 0 37.502821307065297 14.820636109113414 -1 0 0 I I #
coedge $-1 $572 $563 $700 $703 forward $547 $-1 #
vertex $-1 $640 $704 #
straight-curve $-1 0 -37.502821307065297 14.820636109113414 1 0 0 I I #
point $-1 36.706252593690081 -37.502821307065297 14.820636109113423 #
plane-surface $-1 0 37.502821307065297 0 0 -1 0 0 0 -1 forward_v I I I I #
coedge $-1 $705 $639 $636 $697 forward $569 $-1 #
edge $-1 $573 -53.874935148167367 $706 53.874935148167367 $572 $707 forward 7 unknown #
point $-1 53.874935148167367 -37.502821307065297 -14.820636109113414 #
straight-curve $-1 -5.8801812426526681 -37.502821307065297 46.911816442890938 -0.79863550430605224 0 0.6018150307709319 I I #
face $-1 $513 $708 $19 $-1 $709 reversed single #
plane-surface $-1 32.667554653094982 -23.499036406999174 152.78146908944291 0 -1 0 -0.6018150307709319 0 -0.79863550430605224 forward_v I I I I #
loop $-1 $-1 $601 $497 #
coedge $-1 $655 $655 $-1 $710 forward $581 $-1 #
edge $-1 $711 0 $711 6.2831853071796004 $582 $712 forward 7 unknown #
vertex $-1 $585 $713 #
ellipse-curve $-1 45.290593870928731 -30.500928857032235 8.3518708437893672 -0.6018150307709319 0 -0.79863550430605224 1.5972710086121045 0 -1.2036300615418638 1 I I #
coedge $-1 $586 $600 $714 $715 reversed $327 $-1 #
coedge $-1 $716 $717 $586 $661 forward $718 $-1 #
edge $-1 $663 -14.820636109113414 $719 14.820636109113414 $586 $720 forward 7 unknown #
coedge $-1 $721 $587 $717 $722 forward $424 $-1 #
vertex $-1 $588 $723 #
point $-1 36.706252593690081 14.003784900066124 14.820636109113423 #
coedge $-1 $595 $721 $724 $725 forward $424 $-1 #
coedge $-1 $676 $675 $595 $667 reversed $654 $-1 #
edge $-1 $726 -22.252356878549179 $668 -8.2485719784830565 $595 $727 forward 7 unknown #
vertex $-1 $667 $728 #
straight-curve $-1 16.333777326547491 -23.499036406999174 14.820636109113408 1 0 0 I I #
face $-1 $729 $730 $19 $-1 $731 reversed single #
loop $-1 $-1 $714 $598 #
plane-surface $-1 0 0 -14.820636109113414 0 0 1 1 0 0 forward_v I I I I #
coedge $-1 $732 $733 $600 $674 reversed $708 $-1 #
edge $-1 $677 -1.8831055784653106 $734 14.820636109113414 $600 $735 forward 7 unknown #
coedge $-1 $666 $601 $603 $679 reversed $654 $-1 #
coedge $-1 $601 $666 $732 $736 reversed $654 $-1 #
vertex $-1 $674 $737 #
straight-curve $-1 53.874935148167367 -15.250464428516118 1.8831055784653117 0 -1 0 I I #
edge $-1 $668 86.252350511767375 $605 107.74987029633473 $603 $738 forward 7 unknown #
point $-1 53.874935148167367 -23.499036406999174 1.8831055784653046 #
coedge $-1 $617 $614 $685 $739 reversed $529 $-1 #
coedge $-1 $614 $617 $619 $689 reversed $529 $-1 #
coedge $-1 $624 $623 $614 $684 reversed $612 $-1 #
edge $-1 $693 -14.820636109113414 $740 14.820636109113414 $683 $741 forward 7 unknown #
coedge $-1 $616 $615 $681 $739 forward $450 $-1 #
edge $-1 $740 -53.874935148167367 $625 53.874935148167367 $623 $742 forward 7 unknown #
vertex $-1 $739 $743 #
straight-curve $-1 -53.874935148167367 -37.502821307065297 0 0 0 -1 I I #
edge $-1 $693 -37.502821307065297 $620 37.502821307065297 $682 $744 forward 7 unknown #
point $-1 -53.874935148167367 -37.502821307065297 14.820636109113414 #
straight-curve $-1 0 -37.502821307065297 -14.820636109113414 -1 0 0 I I #
point $-1 53.874935148167367 37.502821307065297 -14.820636109113414 #
vertex $-1 $627 $745 #
straight-curve $-1 0 37.502821307065297 14.820636109113414 -1 0 0 I I #
point $-1 42.449149741758852 -30.500928857032235 4.5811472010945504 #
coedge $-1 $634 $633 $705 $746 forward $487 $-1 #
edge $-1 $641 -14.820636109113414 $698 14.820636109113414 $636 $747 forward 7 unknown #
vertex $-1 $637 $748 #
straight-curve $-1 0 37.502821307065297 -14.820636109113414 1 0 0 I I #
coedge $-1 $639 $705 $643 $703 reversed $569 $-1 #
straight-curve $-1 -53.874935148167367 0 14.820636109113414 0 -1 0 I I #
point $-1 -53.874935148167367 37.502821307065297 14.820636109113414 #
edge $-1 $644 -14.820636109113414 $706 14.820636109113414 $700 $749 forward 7 unknown #
point $-1 -53.874935148167367 -37.502821307065297 14.820636109113414 #
coedge $-1 $700 $648 $696 $746 reversed $569 $-1 #
vertex $-1 $746 $750 #
straight-curve $-1 0 -37.502821307065297 -14.820636109113414 -1 0 0 I I #
loop $-1 $-1 $732 $652 #
plane-surface $-1 0 -37.502821307065297 0 0 1 0 0 0 1 forward_v I I I I #
edge $-1 $751 1 $751 0 $655 $-1 forward 7 unknown #
vertex $-1 $656 $752 #
ellipse-curve $-1 43.65277980330071 -30.500928857032235 6.1784182097066545 0.6018150307709319 0 0.79863550430605224 1.5972710086121045 0 -1.2036300615418638 1 I I #
point $-1 46.887864879540828 -30.500928857032235 7.1482407822474938 #
coedge $-1 $753 $754 $659 $715 forward $671 $-1 #
edge $-1 $719 -37.502821307065297 $734 37.502821307065297 $659 $755 forward 7 unknown #
coedge $-1 $756 $660 $754 $757 reversed $718 $-1 #
coedge $-1 $660 $756 $662 $722 reversed $718 $-1 #
loop $-1 $-1 $660 $729 #
vertex $-1 $715 $758 #
straight-curve $-1 53.874935148167367 37.502821307065297 0 0 0 -1 I I #
coedge $-1 $665 $662 $759 $760 forward $424 $-1 #
edge $-1 $663 -53.874935148167367 $761 53.874935148167367 $717 $762 forward 7 unknown #
point $-1 53.874935148167367 37.502821307065297 14.820636109113414 #
coedge $-1 $763 $732 $665 $725 reversed $708 $-1 #
edge $-1 $764 -53.874935148167367 $726 36.706252593690081 $724 $765 forward 7 unknown #
vertex $-1 $667 $766 #
straight-curve $-1 36.706252593690081 -15.250464428516118 14.820636109113416 0 1 0 I I #
point $-1 36.706252593690081 -23.499036406999174 14.820636109113423 #
face $-1 $-1 $718 $19 $-1 $767 reversed single #
loop $-1 $-1 $768 $670 #
plane-surface $-1 -53.874935148167367 0 0 1 0 0 0 0 -1 forward_v I I I I #
coedge $-1 $724 $673 $676 $736 forward $708 $-1 #
coedge $-1 $673 $763 $753 $769 reversed $708 $-1 #
vertex $-1 $674 $770 #
straight-curve $-1 53.874935148167367 -37.502821307065297 0 0 0 -1 I I #
edge $-1 $677 -74.821512528099106 $726 -53.323992743531761 $732 $771 forward 7 unknown #
point $-1 53.874935148167367 -37.502821307065297 1.8831055784653106 #
straight-curve $-1 -32.177936854857634 -23.499036406999174 66.728597086417906 0.79863550430605224 0 -0.6018150307709319 I I #
edge $-1 $687 -37.502821307065297 $740 37.502821307065297 $681 $772 forward 7 unknown #
vertex $-1 $686 $773 #
straight-curve $-1 -53.874935148167367 37.502821307065297 0 0 0 -1 I I #
straight-curve $-1 0 37.502821307065297 -14.820636109113414 1 0 0 I I #
point $-1 -53.874935148167367 -37.502821307065297 -14.820636109113414 #
straight-curve $-1 -53.874935148167367 0 14.820636109113414 0 -1 0 I I #
point $-1 -53.874935148167367 37.502821307065297 14.820636109113414 #
edge $-1 $706 -37.502821307065297 $698 37.502821307065297 $705 $774 forward 7 unknown #
straight-curve $-1 -53.874935148167367 37.502821307065297 0 0 0 -1 I I #
point $-1 -53.874935148167367 37.502821307065297 -14.820636109113414 #
straight-curve $-1 -53.874935148167367 -37.502821307065297 0 0 0 -1 I I #
point $-1 -53.874935148167367 -37.502821307065297 -14.820636109113414 #
vertex $-1 $710 $775 #
point $-1 45.250050811912814 -30.500928857032235 4.9747881481647909 #
coedge $-1 $776 $714 $733 $769 forward $671 $-1 #
coedge $-1 $714 $776 $716 $757 forward $671 $-1 #
straight-curve $-1 53.874935148167367 0 -14.820636109113414 0 -1 0 I I #
coedge $-1 $717 $716 $768 $777 reversed $718 $-1 #
edge $-1 $778 -53.874935148167367 $719 53.874935148167367 $716 $779 forward 7 unknown #
point $-1 53.874935148167367 37.502821307065297 -14.820636109113414 #
coedge $-1 $768 $780 $721 $760 reversed $730 $-1 #
edge $-1 $761 -37.502821307065297 $764 37.502821307065297 $759 $781 forward 7 unknown #
vertex $-1 $722 $782 #
straight-curve $-1 0 37.502821307065297 14.820636109113414 -1 0 0 I I #
coedge $-1 $733 $724 $780 $783 forward $708 $-1 #
vertex $-1 $760 $784 #
straight-curve $-1 0 -37.502821307065297 14.820636109113414 1 0 0 I I #
point $-1 36.706252593690081 -37.502821307065297 14.820636109113423 #
plane-surface $-1 0 37.502821307065297 0 0 -1 0 0 0 -1 forward_v I I I I #
coedge $-1 $785 $759 $756 $777 forward $730 $-1 #
edge $-1 $734 -53.874935148167367 $786 53.874935148167367 $733 $787 forward 7 unknown #
point $-1 53.874935148167367 -37.502821307065297 -14.820636109113414 #
straight-curve $-1 -5.8801812426526681 -37.502821307065297 46.911816442890938 -0.79863550430605224 0 0.6018150307709319 I I #
straight-curve $-1 -53.874935148167367 0 -14.820636109113414 0 1 0 I I #
point $-1 -53.874935148167367 37.502821307065297 -14.820636109113414 #
straight-curve $-1 -53.874935148167367 0 -14.820636109113414 0 1 0 I I #
point $-1 42.449149741758852 -30.500928857032235 4.5811472010945504 #
coedge $-1 $754 $753 $785 $788 forward $671 $-1 #
edge $-1 $761 -14.820636109113414 $778 14.820636109113414 $756 $789 forward 7 unknown #
vertex $-1 $757 $790 #
straight-curve $-1 0 37.502821307065297 -14.820636109113414 1 0 0 I I #
coedge $-1 $759 $785 $763 $783 reversed $730 $-1 #
straight-curve $-1 -53.874935148167367 0 14.820636109113414 0 -1 0 I I #
point $-1 -53.874935148167367 37.502821307065297 14.820636109113414 #
edge $-1 $764 -14.820636109113414 $786 14.820636109113414 $780 $791 forward 7 unknown #
point $-1 -53.874935148167367 -37.502821307065297 14.820636109113414 #
coedge $-1 $780 $768 $776 $788 reversed $730 $-1 #
vertex $-1 $788 $792 #
straight-curve $-1 0 -37.502821307065297 -14.820636109113414 -1 0 0 I I #
edge $-1 $786 -37.502821307065297 $778 37.502821307065297 $785 $793 forward 7 unknown #
straight-curve $-1 -53.874935148167367 37.502821307065297 0 0 0 -1 I I #
point $-1 -53.874935148167367 37.502821307065297 -14.820636109113414 #
straight-curve $-1 -53.874935148167367 -37.502821307065297 0 0 0 -1 I I #
point $-1 -53.874935148167367 -37.502821307065297 -14.820636109113414 #
straight-curve $-1 -53.874935148167367 0 -14.820636109113414 0 1 0 I I #
End-of-ACIS-data 