500 0 10 0           
7 Unknown 11 ACIS 5.0 NT 24 Thu Mar 25 22:39:29 1999 
-1 9.9999999999999995e-007 1e-010 
body $-1 $10 $-1 $11 #
body $-1 $12 $-1 $13 #
body $-1 $14 $-1 $15 #
body $-1 $16 $-1 $17 #
body $-1 $18 $-1 $19 #
body $-1 $20 $-1 $21 #
body $-1 $22 $-1 $23 #
body $-1 $24 $-1 $25 #
body $-1 $26 $-1 $27 #
body $-1 $28 $-1 $29 #
lump $-1 $-1 $30 $0 #
transform $-1 1 0 0 0 1 0 0 0 1 46.3502914517655 27.500107306551502 12.701395427636049 1 rotate no_reflect no_shear #
lump $-1 $-1 $31 $1 #
transform $-1 1 0 0 0 1 0 0 0 1 46.3502914517655 27.500107306551502 12.701395427636049 1 rotate no_reflect no_shear #
lump $-1 $-1 $32 $2 #
transform $-1 1 0 0 0 1 0 0 0 1 46.3502914517655 27.500107306551502 12.701395427636049 1 rotate no_reflect no_shear #
lump $-1 $-1 $33 $3 #
transform $-1 1 0 0 0 1 0 0 0 1 46.3502914517655 27.500107306551502 12.701395427636049 1 rotate no_reflect no_shear #
lump $-1 $-1 $34 $4 #
transform $-1 1 0 0 0 1 0 0 0 1 46.3502914517655 27.500107306551502 12.701395427636049 1 rotate no_reflect no_shear #
lump $-1 $-1 $35 $5 #
transform $-1 1 0 0 0 1 0 0 0 1 46.3502914517655 27.500107306551502 12.701395427636049 1 rotate no_reflect no_shear #
lump $-1 $-1 $36 $6 #
transform $-1 1 0 0 0 1 0 0 0 1 46.3502914517655 27.500107306551502 12.701395427636049 1 rotate no_reflect no_shear #
lump $-1 $-1 $37 $7 #
transform $-1 1 0 0 0 1 0 0 0 1 46.3502914517655 27.500107306551502 12.701395427636049 1 rotate no_reflect no_shear #
lump $-1 $-1 $38 $8 #
transform $-1 1 0 0 0 1 0 0 0 1 46.3502914517655 27.500107306551502 12.701395427636049 1 rotate no_reflect no_shear #
lump $-1 $-1 $39 $9 #
transform $-1 1 0 0 0 1 0 0 0 1 46.3502914517655 27.500107306551502 12.701395427636049 1 rotate no_reflect no_shear #
shell $-1 $-1 $-1 $40 $-1 $10 #
shell $-1 $-1 $-1 $41 $-1 $12 #
shell $-1 $-1 $-1 $42 $-1 $14 #
shell $-1 $-1 $-1 $43 $-1 $16 #
shell $-1 $-1 $-1 $44 $-1 $18 #
shell $-1 $-1 $-1 $45 $-1 $20 #
shell $-1 $-1 $-1 $46 $-1 $22 #
shell $-1 $-1 $-1 $47 $-1 $24 #
shell $-1 $-1 $-1 $48 $-1 $26 #
shell $-1 $-1 $-1 $49 $-1 $28 #
face $-1 $50 $51 $30 $-1 $52 forward single #
face $-1 $53 $54 $31 $-1 $55 forward single #
face $-1 $56 $57 $32 $-1 $58 reversed single #
face $-1 $59 $60 $33 $-1 $61 forward single #
face $-1 $62 $63 $34 $-1 $64 reversed single #
face $-1 $65 $66 $35 $-1 $67 forward single #
face $-1 $68 $69 $36 $-1 $70 reversed single #
face $-1 $71 $72 $37 $-1 $73 forward single #
face $-1 $74 $75 $38 $-1 $76 reversed single #
face $-1 $77 $78 $39 $-1 $79 forward single #
face $-1 $80 $81 $30 $-1 $82 reversed single #
loop $-1 $-1 $83 $40 #
plane-surface $-1 0 0 12.701395427636049 0 0 1 1 0 0 forward_v I I I I #
face $-1 $84 $85 $31 $-1 $86 reversed single #
loop $-1 $-1 $87 $41 #
plane-surface $-1 -46.3502914517655 0 0 1 0 0 0 0 -1 forward_v I I I I #
face $-1 $88 $89 $32 $-1 $90 reversed single #
loop $-1 $-1 $91 $42 #
plane-surface $-1 -18.015781706178615 39.363587324646716 107.84302537367037 1 0 0 0 -0.6018150307709319 -0.79863550430605224 forward_v I I I I #
face $-1 $92 $93 $33 $-1 $94 forward single #
loop $-1 $95 $96 $43 #
cone-surface $-1 -10.277312726259638 18.163438235133349 4.8745756488186833 0 -0.6018150307709319 -0.79863550430605224 2.5 0 0 1 I I 0 1 2.5 forward I I I I #
face $-1 $97 $98 $34 $-1 $99 reversed single #
loop $-1 $-1 $100 $44 #
plane-surface $-1 14.639803933722535 39.363587324646716 107.84302537367037 1 0 0 0 -0.6018150307709319 -0.79863550430605224 forward_v I I I I #
face $-1 $101 $102 $35 $-1 $103 forward single #
loop $-1 $104 $105 $45 #
cone-surface $-1 22.37827291364151 18.163438235133349 4.8745756488186833 0 -0.6018150307709319 -0.79863550430605224 2.5 0 0 1 I I 0 1 2.5 forward I I I I #
face $-1 $106 $107 $36 $-1 $108 reversed single #
loop $-1 $-1 $109 $46 #
plane-surface $-1 -2.5388437463406621 -83.28871145912332 74.743069523877935 -1 0 0 0 -0.6018150307709319 0.79863550430605224 forward_v I I I I #
face $-1 $110 $111 $37 $-1 $112 forward single #
loop $-1 $113 $114 $47 #
cone-surface $-1 -10.277312726259638 -18.163438235133338 4.8745756488186851 0 0.6018150307709319 -0.79863550430605224 2.5 0 0 1 I I 0 1 2.5 forward I I I I #
face $-1 $115 $116 $38 $-1 $117 reversed single #
loop $-1 $-1 $118 $48 #
plane-surface $-1 30.116741893560487 -83.28871145912332 74.743069523877935 -1 0 0 0 -0.6018150307709319 0.79863550430605224 forward_v I I I I #
face $-1 $119 $120 $39 $-1 $121 forward single #
loop $-1 $122 $123 $49 #
cone-surface $-1 22.37827291364151 -18.163438235133338 4.8745756488186851 0 0.6018150307709319 -0.79863550430605224 2.5 0 0 1 I I 0 1 2.5 forward I I I I #
face $-1 $124 $125 $30 $-1 $126 reversed single #
loop $-1 $-1 $127 $50 #
plane-surface $-1 0 0 -12.701395427636049 0 0 1 1 0 0 forward_v I I I I #
coedge $-1 $128 $129 $130 $131 forward $51 $-1 #
face $-1 $132 $133 $31 $-1 $134 forward single #
loop $-1 $-1 $135 $53 #
plane-surface $-1 0 27.500107306551502 0 0 -1 0 0 0 -1 forward_v I I I I #
coedge $-1 $136 $137 $138 $139 forward $54 $-1 #
face $-1 $140 $141 $32 $-1 $142 reversed single #
loop $-1 $-1 $143 $56 #
plane-surface $-1 -10.277312726259638 -16.42501682792512 33.809048597043883 0 0.6018150307709319 0.79863550430605224 1 0 0 forward_v I I I I #
coedge $-1 $144 $145 $146 $147 reversed $57 $-1 #
face $-1 $-1 $148 $33 $-1 $149 forward single #
loop $-1 $150 $151 $59 #
cone-surface $-1 -10.277312726259638 16.031661802967033 2.0456128298110503 0 -0.6018150307709319 -0.79863550430605224 1.25 0 0 1 I I -0.70710678118654746 0.70710678118654746 1.25 forward I I I I #
loop $-1 $-1 $152 $43 #
coedge $-1 $96 $96 $153 $154 reversed $60 $-1 #
face $-1 $155 $156 $34 $-1 $157 reversed single #
loop $-1 $-1 $158 $62 #
plane-surface $-1 22.37827291364151 -16.42501682792512 33.809048597043883 0 0.6018150307709319 0.79863550430605224 1 0 0 forward_v I I I I #
coedge $-1 $159 $160 $161 $162 reversed $63 $-1 #
face $-1 $-1 $163 $35 $-1 $164 forward single #
loop $-1 $165 $166 $65 #
cone-surface $-1 22.37827291364151 16.031661802967033 2.0456128298110503 0 -0.6018150307709319 -0.79863550430605224 1.25 0 0 1 I I -0.70710678118654746 0.70710678118654746 1.25 forward I I I I #
loop $-1 $-1 $167 $45 #
coedge $-1 $105 $105 $168 $169 reversed $66 $-1 #
face $-1 $170 $171 $36 $-1 $172 reversed single #
loop $-1 $-1 $173 $68 #
plane-surface $-1 -10.277312726259638 -27.500107306551484 0.70909274725144655 0 -0.6018150307709319 0.79863550430605224 1 0 0 forward_v I I I I #
coedge $-1 $174 $175 $176 $177 reversed $69 $-1 #
face $-1 $-1 $178 $37 $-1 $179 forward single #
loop $-1 $180 $181 $71 #
cone-surface $-1 -10.277312726259638 -16.031661802967022 2.0456128298110521 0 0.6018150307709319 -0.79863550430605224 1.25 0 0 1 I I -0.70710678118654746 0.70710678118654746 1.25 forward I I I I #
loop $-1 $-1 $182 $47 #
coedge $-1 $114 $114 $183 $184 reversed $72 $-1 #
face $-1 $185 $186 $38 $-1 $187 reversed single #
loop $-1 $-1 $188 $74 #
plane-surface $-1 22.37827291364151 -27.500107306551484 0.70909274725144655 0 -0.6018150307709319 0.79863550430605224 1 0 0 forward_v I I I I #
coedge $-1 $189 $190 $191 $192 reversed $75 $-1 #
face $-1 $-1 $193 $39 $-1 $194 forward single #
loop $-1 $195 $196 $77 #
cone-surface $-1 22.37827291364151 -16.031661802967022 2.0456128298110521 0 0.6018150307709319 -0.79863550430605224 1.25 0 0 1 I I -0.70710678118654746 0.70710678118654746 1.25 forward I I I I #
loop $-1 $-1 $197 $49 #
coedge $-1 $123 $123 $198 $199 reversed $78 $-1 #
face $-1 $200 $201 $30 $-1 $202 reversed single #
loop $-1 $-1 $203 $80 #
plane-surface $-1 0 -27.500107306551502 0 0 1 0 0 0 1 forward_v I I I I #
coedge $-1 $204 $205 $206 $207 forward $81 $-1 #
coedge $-1 $208 $83 $209 $210 forward $51 $-1 #
coedge $-1 $83 $208 $211 $212 forward $51 $-1 #
coedge $-1 $213 $214 $83 $131 reversed $215 $-1 #
edge $-1 $216 -27.500107306551502 $217 27.500107306551502 $130 $218 forward 7 unknown #
face $-1 $219 $220 $31 $-1 $221 reversed single #
loop $-1 $-1 $138 $84 #
plane-surface $-1 -52.400771545456443 0 12.201395427636049 0 0 1 1 0 0 forward_v I I I I #
coedge $-1 $222 $223 $137 $224 forward $85 $-1 #
coedge $-1 $225 $87 $226 $227 reversed $54 $-1 #
coedge $-1 $87 $225 $135 $224 reversed $54 $-1 #
coedge $-1 $228 $229 $87 $139 reversed $133 $-1 #
edge $-1 $230 -27.500107306551502 $231 27.500107306551502 $138 $232 forward 7 unknown #
face $-1 $233 $234 $32 $-1 $235 forward single #
loop $-1 $-1 $236 $88 #
plane-surface $-1 -2.5388437463406621 39.363587324646716 107.84302537367037 -1 0 0 0 0.6018150307709319 0.79863550430605224 forward_v I I I I #
coedge $-1 $237 $238 $239 $240 reversed $89 $-1 #
coedge $-1 $145 $91 $241 $242 reversed $57 $-1 #
coedge $-1 $91 $144 $237 $243 reversed $57 $-1 #
coedge $-1 $239 $244 $91 $147 forward $234 $-1 #
edge $-1 $245 -7.8183136442281445 $246 8.0960092112029152 $146 $247 forward 7 unknown #
loop $-1 $-1 $153 $92 #
plane-surface $-1 -10.277312726259638 -16.42501682792512 33.809048597043883 0 0.6018150307709319 0.79863550430605224 1 0 0 forward_v I I I I #
loop $-1 $-1 $248 $59 #
coedge $-1 $151 $151 $152 $249 reversed $93 $-1 #
coedge $-1 $152 $152 $151 $249 forward $95 $-1 #
coedge $-1 $153 $153 $96 $154 forward $148 $-1 #
edge $-1 $250 -2.2994209964836043e-016 $250 6.2831853071796004 $153 $251 forward 7 unknown #
face $-1 $252 $253 $34 $-1 $254 forward single #
loop $-1 $-1 $255 $97 #
plane-surface $-1 30.116741893560487 39.363587324646716 107.84302537367037 -1 0 0 0 0.6018150307709319 0.79863550430605224 forward_v I I I I #
coedge $-1 $256 $257 $258 $259 reversed $98 $-1 #
coedge $-1 $160 $100 $260 $261 reversed $63 $-1 #
coedge $-1 $100 $159 $256 $262 reversed $63 $-1 #
coedge $-1 $258 $263 $100 $162 forward $253 $-1 #
edge $-1 $264 -7.8183136442281445 $265 8.0960092112029152 $161 $266 forward 7 unknown #
loop $-1 $-1 $168 $101 #
plane-surface $-1 22.37827291364151 -16.42501682792512 33.809048597043883 0 0.6018150307709319 0.79863550430605224 1 0 0 forward_v I I I I #
loop $-1 $-1 $267 $65 #
coedge $-1 $166 $166 $167 $268 reversed $102 $-1 #
coedge $-1 $167 $167 $166 $268 forward $104 $-1 #
coedge $-1 $168 $168 $105 $169 forward $163 $-1 #
edge $-1 $269 -2.2994209964836043e-016 $269 6.2831853071796004 $168 $270 forward 7 unknown #
face $-1 $271 $272 $36 $-1 $273 reversed single #
loop $-1 $-1 $274 $106 #
plane-surface $-1 -18.015781706178615 -83.28871145912332 74.743069523877935 1 0 0 0 0.6018150307709319 -0.79863550430605224 forward_v I I I I #
coedge $-1 $275 $276 $277 $278 reversed $107 $-1 #
coedge $-1 $175 $109 $279 $280 reversed $69 $-1 #
coedge $-1 $109 $174 $275 $281 reversed $69 $-1 #
coedge $-1 $277 $282 $109 $177 forward $283 $-1 #
edge $-1 $284 14.144248423010158 $285 30.058571278441221 $176 $286 forward 7 unknown #
loop $-1 $-1 $183 $110 #
plane-surface $-1 -10.277312726259638 -27.500107306551484 0.70909274725144655 0 -0.6018150307709319 0.79863550430605224 1 0 0 forward_v I I I I #
loop $-1 $-1 $287 $71 #
coedge $-1 $181 $181 $182 $288 reversed $111 $-1 #
coedge $-1 $182 $182 $181 $288 forward $113 $-1 #
coedge $-1 $183 $183 $114 $184 forward $178 $-1 #
edge $-1 $289 1.6134450455596807e-017 $289 6.2831853071796004 $183 $290 forward 7 unknown #
face $-1 $291 $292 $38 $-1 $293 reversed single #
loop $-1 $-1 $294 $115 #
plane-surface $-1 14.639803933722535 -83.28871145912332 74.743069523877935 1 0 0 0 0.6018150307709319 -0.79863550430605224 forward_v I I I I #
coedge $-1 $295 $296 $297 $298 reversed $116 $-1 #
coedge $-1 $190 $118 $299 $300 reversed $75 $-1 #
coedge $-1 $118 $189 $295 $301 reversed $75 $-1 #
coedge $-1 $297 $302 $118 $192 forward $303 $-1 #
edge $-1 $304 14.144248423010158 $305 30.058571278441221 $191 $306 forward 7 unknown #
loop $-1 $-1 $198 $119 #
plane-surface $-1 22.37827291364151 -27.500107306551484 0.70909274725144655 0 -0.6018150307709319 0.79863550430605224 1 0 0 forward_v I I I I #
loop $-1 $-1 $307 $77 #
coedge $-1 $196 $196 $197 $308 reversed $120 $-1 #
coedge $-1 $197 $197 $196 $308 forward $122 $-1 #
coedge $-1 $198 $198 $123 $199 forward $193 $-1 #
edge $-1 $309 1.6134450455596807e-017 $309 6.2831853071796004 $198 $310 forward 7 unknown #
face $-1 $311 $312 $30 $-1 $313 reversed single #
loop $-1 $-1 $314 $124 #
plane-surface $-1 -46.3502914517655 0 0 1 0 0 0 0 -1 forward_v I I I I #
coedge $-1 $315 $211 $314 $316 forward $125 $-1 #
coedge $-1 $317 $127 $315 $318 forward $81 $-1 #
coedge $-1 $127 $317 $319 $320 forward $81 $-1 #
coedge $-1 $214 $213 $127 $207 reversed $215 $-1 #
edge $-1 $321 -27.500107306551502 $322 27.500107306551502 $206 $323 forward 7 unknown #
coedge $-1 $129 $128 $324 $325 forward $51 $-1 #
coedge $-1 $326 $327 $128 $210 reversed $312 $-1 #
edge $-1 $217 -46.3502914517655 $328 46.3502914517655 $209 $329 forward 7 unknown #
coedge $-1 $203 $330 $129 $212 reversed $125 $-1 #
edge $-1 $331 -46.3502914517655 $216 46.3502914517655 $211 $332 forward 7 unknown #
coedge $-1 $206 $130 $330 $333 forward $215 $-1 #
coedge $-1 $130 $206 $326 $334 reversed $215 $-1 #
loop $-1 $-1 $213 $311 #
vertex $-1 $131 $335 #
vertex $-1 $131 $336 #
straight-curve $-1 46.3502914517655 0 12.701395427636049 0 1 0 I I #
face $-1 $337 $338 $31 $-1 $339 reversed single #
loop $-1 $-1 $340 $132 #
plane-surface $-1 -52.400771545456443 0 7.6020382296297395 0 0 1 1 0 0 forward_v I I I I #
coedge $-1 $341 $135 $342 $343 reversed $85 $-1 #
coedge $-1 $135 $341 $228 $344 reversed $85 $-1 #
edge $-1 $230 -12.201395427636049 $345 -7.6020382296297395 $135 $346 forward 7 unknown #
coedge $-1 $137 $136 $340 $347 forward $54 $-1 #
coedge $-1 $348 $349 $136 $227 forward $350 $-1 #
edge $-1 $351 7.6020382296297395 $231 12.201395427636049 $226 $352 forward 7 unknown #
coedge $-1 $353 $138 $223 $344 forward $133 $-1 #
coedge $-1 $138 $353 $348 $354 forward $133 $-1 #
vertex $-1 $224 $355 #
vertex $-1 $354 $356 #
straight-curve $-1 -46.3502914517655 0 12.201395427636049 0 -1 0 I I #
face $-1 $-1 $357 $32 $-1 $358 reversed single #
loop $-1 $-1 $146 $140 #
plane-surface $-1 0 0 12.701395427636049 0 0 1 1 0 0 forward_v I I I I #
coedge $-1 $359 $360 $361 $362 reversed $141 $-1 #
coedge $-1 $363 $143 $145 $243 forward $89 $-1 #
coedge $-1 $143 $363 $359 $364 forward $89 $-1 #
coedge $-1 $361 $146 $143 $240 forward $234 $-1 #
edge $-1 $246 -12.877125343048796 $365 2.5998126167891566 $239 $366 forward 7 unknown #
coedge $-1 $367 $368 $144 $242 forward $357 $-1 #
edge $-1 $369 -53.212419939583739 $245 -41.220117259199135 $241 $370 forward 7 unknown #
edge $-1 $246 35.073323347156496 $369 55.000214613103005 $145 $371 forward 7 unknown #
coedge $-1 $146 $361 $367 $372 forward $234 $-1 #
vertex $-1 $242 $373 #
vertex $-1 $147 $374 #
straight-curve $-1 -18.015781706178615 19.681793662323358 12.701395427636051 0 -1 0 I I #
coedge $-1 $248 $248 $-1 $375 reversed $150 $-1 #
edge $-1 $376 0 $376 6.2831853071796004 $151 $377 forward 7 unknown #
vertex $-1 $154 $378 #
ellipse-curve $-1 -10.277312726259638 19.542945878835987 6.7052440874437353 0 0.6018150307709319 0.79863550430605224 2.5 0 0 1 I I #
face $-1 $-1 $379 $34 $-1 $380 reversed single #
loop $-1 $-1 $161 $155 #
plane-surface $-1 0 0 12.701395427636049 0 0 1 1 0 0 forward_v I I I I #
coedge $-1 $381 $382 $383 $384 reversed $156 $-1 #
coedge $-1 $385 $158 $160 $262 forward $98 $-1 #
coedge $-1 $158 $385 $381 $386 forward $98 $-1 #
coedge $-1 $383 $161 $158 $259 forward $253 $-1 #
edge $-1 $265 3.4506674769017796 $387 18.927605436739732 $258 $388 forward 7 unknown #
coedge $-1 $389 $390 $159 $261 forward $379 $-1 #
edge $-1 $391 -53.212419939583739 $264 -41.220117259199135 $260 $392 forward 7 unknown #
edge $-1 $265 35.073323347156496 $391 55.000214613103005 $160 $393 forward 7 unknown #
coedge $-1 $161 $383 $389 $394 forward $253 $-1 #
vertex $-1 $162 $395 #
vertex $-1 $162 $396 #
straight-curve $-1 14.639803933722535 19.681793662323358 12.701395427636051 0 -1 0 I I #
coedge $-1 $267 $267 $-1 $397 reversed $165 $-1 #
edge $-1 $398 0 $398 6.2831853071796004 $166 $399 forward 7 unknown #
vertex $-1 $169 $400 #
ellipse-curve $-1 22.37827291364151 19.542945878835987 6.7052440874437353 0 0.6018150307709319 0.79863550430605224 2.5 0 0 1 I I #
face $-1 $-1 $283 $36 $-1 $401 forward single #
loop $-1 $-1 $402 $170 #
plane-surface $-1 0 -27.500107306551502 0 0 1 0 0 0 1 forward_v I I I I #
coedge $-1 $403 $404 $405 $406 reversed $171 $-1 #
coedge $-1 $407 $173 $175 $281 forward $107 $-1 #
coedge $-1 $173 $407 $403 $408 forward $107 $-1 #
coedge $-1 $405 $176 $173 $278 forward $283 $-1 #
edge $-1 $285 -2.5998126167891566 $409 12.877125343048796 $277 $410 forward 7 unknown #
coedge $-1 $411 $412 $174 $280 forward $272 $-1 #
edge $-1 $413 -36.662442014687535 $284 -24.670139334302917 $279 $414 forward 7 unknown #
edge $-1 $285 -19.926891265946495 $413 2.2271218137720606e-014 $175 $415 forward 7 unknown #
coedge $-1 $176 $405 $411 $416 forward $283 $-1 #
loop $-1 $-1 $405 $271 #
vertex $-1 $280 $417 #
vertex $-1 $177 $418 #
straight-curve $-1 -2.5388437463406621 -41.64435572956166 12.701395427636051 0 1 0 I I #
coedge $-1 $287 $287 $-1 $419 reversed $180 $-1 #
edge $-1 $420 0 $420 6.2831853071796004 $181 $421 forward 7 unknown #
vertex $-1 $184 $422 #
ellipse-curve $-1 -10.277312726259638 -19.542945878835976 6.705244087443738 0 -0.6018150307709319 0.79863550430605224 2.5 0 0 1 I I #
face $-1 $-1 $303 $38 $-1 $423 forward single #
loop $-1 $-1 $424 $185 #
plane-surface $-1 0 -27.500107306551502 0 0 1 0 0 0 1 forward_v I I I I #
coedge $-1 $425 $426 $427 $428 reversed $186 $-1 #
coedge $-1 $429 $188 $190 $301 forward $116 $-1 #
coedge $-1 $188 $429 $425 $430 forward $116 $-1 #
coedge $-1 $427 $191 $188 $298 forward $303 $-1 #
edge $-1 $305 -18.927605436739732 $431 -3.4506674769017796 $297 $432 forward 7 unknown #
coedge $-1 $433 $434 $189 $300 forward $292 $-1 #
edge $-1 $435 -36.662442014687535 $304 -24.670139334302917 $299 $436 forward 7 unknown #
edge $-1 $305 -19.926891265946495 $435 2.2271218137720606e-014 $190 $437 forward 7 unknown #
coedge $-1 $191 $427 $433 $438 forward $303 $-1 #
loop $-1 $-1 $427 $291 #
vertex $-1 $300 $439 #
vertex $-1 $192 $440 #
straight-curve $-1 30.116741893560487 -41.64435572956166 12.701395427636051 0 1 0 I I #
coedge $-1 $307 $307 $-1 $441 reversed $195 $-1 #
edge $-1 $442 0 $442 6.2831853071796004 $196 $443 forward 7 unknown #
vertex $-1 $199 $444 #
ellipse-curve $-1 22.37827291364151 -19.542945878835976 6.705244087443738 0 -0.6018150307709319 0.79863550430605224 2.5 0 0 1 I I #
face $-1 $-1 $215 $30 $-1 $445 reversed single #
loop $-1 $-1 $326 $200 #
plane-surface $-1 0 27.500107306551502 0 0 -1 0 0 0 -1 forward_v I I I I #
coedge $-1 $324 $446 $203 $316 reversed $201 $-1 #
coedge $-1 $330 $203 $204 $318 reversed $125 $-1 #
edge $-1 $331 -12.701395427636049 $447 12.701395427636049 $314 $448 forward 7 unknown #
coedge $-1 $205 $204 $446 $449 forward $81 $-1 #
edge $-1 $322 -46.3502914517655 $447 46.3502914517655 $315 $450 forward 7 unknown #
coedge $-1 $327 $326 $205 $320 reversed $312 $-1 #
edge $-1 $451 -46.3502914517655 $321 46.3502914517655 $319 $452 forward 7 unknown #
vertex $-1 $207 $453 #
vertex $-1 $333 $454 #
straight-curve $-1 46.3502914517655 0 -12.701395427636049 0 -1 0 I I #
coedge $-1 $455 $314 $208 $325 reversed $201 $-1 #
edge $-1 $328 -27.500107306551502 $331 27.500107306551502 $324 $456 forward 7 unknown #
coedge $-1 $319 $209 $214 $334 forward $312 $-1 #
coedge $-1 $209 $319 $455 $457 reversed $312 $-1 #
vertex $-1 $210 $458 #
straight-curve $-1 0 27.500107306551502 12.701395427636049 -1 0 0 I I #
coedge $-1 $211 $315 $213 $333 reversed $125 $-1 #
vertex $-1 $325 $459 #
straight-curve $-1 0 -27.500107306551502 12.701395427636049 1 0 0 I I #
edge $-1 $216 -12.701395427636049 $322 12.701395427636049 $213 $460 forward 7 unknown #
edge $-1 $217 -12.701395427636049 $321 12.701395427636049 $214 $461 forward 7 unknown #
point $-1 46.3502914517655 -27.500107306551502 12.701395427636049 #
point $-1 46.3502914517655 27.500107306551502 12.701395427636049 #
face $-1 $-1 $350 $31 $-1 $462 reversed single #
loop $-1 $-1 $463 $219 #
plane-surface $-1 -58.451251639147387 0 9.9017168286328943 1 0 0 0 0 -1 forward_v I I I I #
coedge $-1 $464 $342 $225 $347 reversed $220 $-1 #
coedge $-1 $223 $222 $463 $465 reversed $85 $-1 #
coedge $-1 $340 $466 $222 $343 forward $220 $-1 #
edge $-1 $467 -6.0504800936909433 $345 6.0504800936909433 $222 $468 forward 7 unknown #
edge $-1 $230 -6.0504800936909433 $469 6.0504800936909433 $223 $470 forward 7 unknown #
vertex $-1 $224 $471 #
straight-curve $-1 -46.3502914517655 27.500107306551502 0 0 0 -1 I I #
edge $-1 $351 -27.500107306551502 $345 27.500107306551502 $340 $472 forward 7 unknown #
coedge $-1 $473 $226 $229 $354 reversed $350 $-1 #
coedge $-1 $226 $473 $464 $474 reversed $350 $-1 #
loop $-1 $-1 $226 $337 #
vertex $-1 $227 $475 #
straight-curve $-1 -46.3502914517655 -27.500107306551502 0 0 0 1 I I #
coedge $-1 $229 $228 $476 $477 forward $133 $-1 #
edge $-1 $478 -6.0504800936909433 $231 6.0504800936909433 $348 $479 forward 7 unknown #
point $-1 -46.3502914517655 27.500107306551502 12.201395427636049 #
point $-1 -46.3502914517655 -27.500107306551502 12.201395427636049 #
loop $-1 $-1 $241 $233 #
plane-surface $-1 0 27.500107306551502 0 0 -1 0 0 0 -1 forward_v I I I I #
coedge $-1 $360 $236 $238 $364 reversed $141 $-1 #
coedge $-1 $236 $359 $480 $481 reversed $141 $-1 #
coedge $-1 $244 $239 $236 $362 forward $234 $-1 #
edge $-1 $365 -8.0960092112029152 $482 7.8183136442281445 $361 $483 forward 7 unknown #
coedge $-1 $238 $237 $368 $484 reversed $89 $-1 #
edge $-1 $485 -55.000214613103005 $365 -35.073323347156496 $359 $486 forward 7 unknown #
vertex $-1 $240 $487 #
straight-curve $-1 -5.1386563631298188 11.58578445112045 12.701395427636051 1 0 0 I I #
coedge $-1 $480 $241 $244 $372 reversed $357 $-1 #
coedge $-1 $241 $480 $363 $484 forward $357 $-1 #
vertex $-1 $242 $488 #
straight-curve $-1 -18.015781706178615 27.500107306551502 53.921512686835186 0 0 1 I I #
straight-curve $-1 -18.015781706178615 -16.42501682792512 33.809048597043883 0 0.79863550430605224 -0.6018150307709319 I I #
edge $-1 $482 2.5388437463406621 $245 18.015781706178615 $367 $489 forward 7 unknown #
point $-1 -18.015781706178615 27.500107306551502 12.701395427636049 #
point $-1 -18.015781706178615 11.585784451120443 12.701395427636054 #
edge $-1 $490 1 $490 0 $248 $-1 forward 7 unknown #
vertex $-1 $249 $491 #
ellipse-curve $-1 -10.277312726259638 16.783930591430696 3.0439072101936153 0 0.6018150307709319 0.79863550430605224 2.5 0 0 1 I I #
point $-1 -7.7773127262596375 19.542945878835997 6.7052440874437504 #
loop $-1 $-1 $260 $252 #
plane-surface $-1 0 27.500107306551502 0 0 -1 0 0 0 -1 forward_v I I I I #
coedge $-1 $382 $255 $257 $386 reversed $156 $-1 #
coedge $-1 $255 $381 $492 $493 reversed $156 $-1 #
coedge $-1 $263 $258 $255 $384 forward $253 $-1 #
edge $-1 $387 -8.0960092112029152 $494 7.8183136442281445 $383 $495 forward 7 unknown #
coedge $-1 $257 $256 $390 $496 reversed $98 $-1 #
edge $-1 $497 -55.000214613103005 $387 -35.073323347156496 $381 $498 forward 7 unknown #
vertex $-1 $259 $499 #
straight-curve $-1 11.189136456820755 11.58578445112045 12.701395427636051 1 0 0 I I #
coedge $-1 $492 $260 $263 $394 reversed $379 $-1 #
coedge $-1 $260 $492 $385 $496 forward $379 $-1 #
vertex $-1 $261 $500 #
straight-curve $-1 14.639803933722535 27.500107306551502 53.921512686835186 0 0 1 I I #
straight-curve $-1 14.639803933722535 -16.42501682792512 33.809048597043883 0 0.79863550430605224 -0.6018150307709319 I I #
edge $-1 $494 -30.116741893560487 $264 -14.639803933722535 $389 $501 forward 7 unknown #
point $-1 14.639803933722535 27.500107306551502 12.701395427636049 #
point $-1 14.639803933722535 11.585784451120443 12.701395427636054 #
edge $-1 $502 1 $502 0 $267 $-1 forward 7 unknown #
vertex $-1 $268 $503 #
ellipse-curve $-1 22.37827291364151 16.783930591430696 3.0439072101936153 0 0.6018150307709319 0.79863550430605224 2.5 0 0 1 I I #
point $-1 24.87827291364151 19.542945878835997 6.7052440874437504 #
plane-surface $-1 0 0 12.701395427636049 0 0 1 1 0 0 forward_v I I I I #
coedge $-1 $412 $411 $404 $504 forward $272 $-1 #
coedge $-1 $404 $274 $276 $408 reversed $171 $-1 #
coedge $-1 $274 $403 $402 $504 reversed $171 $-1 #
coedge $-1 $282 $277 $274 $406 forward $283 $-1 #
edge $-1 $409 -30.058571278441221 $505 -14.144248423010158 $405 $506 forward 7 unknown #
coedge $-1 $276 $275 $412 $507 reversed $107 $-1 #
edge $-1 $508 -2.2271218137720606e-014 $409 19.926891265946495 $403 $509 forward 7 unknown #
vertex $-1 $278 $510 #
straight-curve $-1 -5.1386563631298188 -11.585784451120441 12.701395427636049 -1 0 0 I I #
coedge $-1 $402 $279 $282 $416 reversed $272 $-1 #
coedge $-1 $279 $402 $407 $507 forward $272 $-1 #
vertex $-1 $280 $511 #
straight-curve $-1 -2.5388437463406621 -27.500107306551502 37.371534761938968 0 0 1 I I #
straight-curve $-1 -2.5388437463406621 -27.500107306551484 0.70909274725144655 0 -0.79863550430605224 -0.6018150307709319 I I #
edge $-1 $505 -18.015781706178615 $284 -2.5388437463406621 $411 $512 forward 7 unknown #
point $-1 -2.5388437463406621 -27.500107306551502 12.701395427636049 #
point $-1 -2.5388437463406621 -11.585784451120441 12.701395427636049 #
edge $-1 $513 1 $513 0 $287 $-1 forward 7 unknown #
vertex $-1 $288 $514 #
ellipse-curve $-1 -10.277312726259638 -16.783930591430686 3.0439072101936171 0 -0.6018150307709319 0.79863550430605224 2.5 0 0 1 I I #
point $-1 -7.7773127262596375 -19.542945878835987 6.7052440874437522 #
plane-surface $-1 0 0 12.701395427636049 0 0 1 1 0 0 forward_v I I I I #
coedge $-1 $434 $433 $426 $515 forward $292 $-1 #
coedge $-1 $426 $294 $296 $430 reversed $186 $-1 #
coedge $-1 $294 $425 $424 $515 reversed $186 $-1 #
coedge $-1 $302 $297 $294 $428 forward $303 $-1 #
edge $-1 $431 -30.058571278441221 $516 -14.144248423010158 $427 $517 forward 7 unknown #
coedge $-1 $296 $295 $434 $518 reversed $116 $-1 #
edge $-1 $519 -2.2271218137720606e-014 $431 19.926891265946495 $425 $520 forward 7 unknown #
vertex $-1 $298 $521 #
straight-curve $-1 11.189136456820755 -11.585784451120441 12.701395427636049 -1 0 0 I I #
coedge $-1 $424 $299 $302 $438 reversed $292 $-1 #
coedge $-1 $299 $424 $429 $518 forward $292 $-1 #
vertex $-1 $300 $522 #
straight-curve $-1 30.116741893560487 -27.500107306551502 37.371534761938968 0 0 1 I I #
straight-curve $-1 30.116741893560487 -27.500107306551484 0.70909274725144655 0 -0.79863550430605224 -0.6018150307709319 I I #
edge $-1 $516 14.639803933722535 $304 30.116741893560487 $433 $523 forward 7 unknown #
point $-1 30.116741893560487 -27.500107306551502 12.701395427636049 #
point $-1 30.116741893560487 -11.585784451120441 12.701395427636049 #
edge $-1 $524 1 $524 0 $307 $-1 forward 7 unknown #
vertex $-1 $308 $525 #
ellipse-curve $-1 22.37827291364151 -16.783930591430686 3.0439072101936171 0 -0.6018150307709319 0.79863550430605224 2.5 0 0 1 I I #
point $-1 24.87827291364151 -19.542945878835987 6.7052440874437522 #
plane-surface $-1 46.3502914517655 0 0 -1 0 0 0 0 1 forward_v I I I I #
coedge $-1 $314 $455 $317 $449 reversed $201 $-1 #
vertex $-1 $449 $526 #
straight-curve $-1 -46.3502914517655 -27.500107306551502 0 0 0 -1 I I #
edge $-1 $447 -27.500107306551502 $451 27.500107306551502 $446 $527 forward 7 unknown #
straight-curve $-1 0 -27.500107306551502 -12.701395427636049 -1 0 0 I I #
vertex $-1 $320 $528 #
straight-curve $-1 0 27.500107306551502 -12.701395427636049 1 0 0 I I #
point $-1 46.3502914517655 27.500107306551502 -12.701395427636049 #
point $-1 46.3502914517655 -27.500107306551502 -12.701395427636049 #
coedge $-1 $446 $324 $327 $457 forward $201 $-1 #
straight-curve $-1 -46.3502914517655 0 12.701395427636049 0 -1 0 I I #
edge $-1 $328 -12.701395427636049 $451 12.701395427636049 $327 $529 forward 7 unknown #
point $-1 -46.3502914517655 27.500107306551502 12.701395427636049 #
point $-1 -46.3502914517655 -27.500107306551502 12.701395427636049 #
straight-curve $-1 46.3502914517655 -27.500107306551502 0 0 0 -1 I I #
straight-curve $-1 46.3502914517655 27.500107306551502 0 0 0 -1 I I #
plane-surface $-1 0 -27.500107306551502 0 0 1 0 0 0 1 forward_v I I I I #
coedge $-1 $530 $476 $341 $465 forward $338 $-1 #
coedge $-1 $466 $340 $349 $474 forward $220 $-1 #
edge $-1 $469 -2.2996785990031547 $467 2.2996785990031547 $341 $531 forward 7 unknown #
coedge $-1 $342 $464 $530 $532 forward $220 $-1 #
vertex $-1 $343 $533 #
straight-curve $-1 -52.400771545456443 27.500107306551502 7.6020382296297395 1 0 0 I I #
vertex $-1 $344 $534 #
straight-curve $-1 -52.400771545456443 27.500107306551502 12.201395427636049 -1 0 0 I I #
point $-1 -46.3502914517655 27.500107306551502 7.6020382296297395 #
straight-curve $-1 -46.3502914517655 0 7.6020382296297395 0 1 0 I I #
coedge $-1 $349 $348 $535 $536 forward $350 $-1 #
edge $-1 $351 -6.0504800936909433 $537 6.0504800936909433 $349 $538 forward 7 unknown #
point $-1 -46.3502914517655 -27.500107306551502 7.6020382296297395 #
coedge $-1 $463 $535 $353 $477 reversed $338 $-1 #
edge $-1 $469 -27.500107306551502 $478 27.500107306551502 $476 $539 forward 7 unknown #
vertex $-1 $477 $540 #
straight-curve $-1 -52.400771545456443 -27.500107306551502 12.201395427636049 1 0 0 I I #
coedge $-1 $368 $367 $360 $481 forward $357 $-1 #
edge $-1 $482 41.220117259199135 $485 53.212419939583739 $480 $541 forward 7 unknown #
vertex $-1 $372 $542 #
straight-curve $-1 -2.5388437463406621 19.681793662323358 12.701395427636051 0 1 0 I I #
edge $-1 $485 -2.5998126167891566 $369 12.877125343048796 $368 $543 forward 7 unknown #
vertex $-1 $484 $544 #
straight-curve $-1 -2.5388437463406621 -16.42501682792512 33.809048597043883 0 -0.79863550430605224 0.6018150307709319 I I #
point $-1 -2.5388437463406621 11.585784451120443 12.701395427636054 #
point $-1 -18.015781706178615 27.500107306551499 0.70909274725144655 #
straight-curve $-1 0 27.500107306551502 12.701395427636049 -1 0 0 I I #
vertex $-1 $375 $545 #
point $-1 -7.7773127262596375 16.783930591430696 3.0439072101936153 #
coedge $-1 $390 $389 $382 $493 forward $379 $-1 #
edge $-1 $494 41.220117259199135 $497 53.212419939583739 $492 $546 forward 7 unknown #
vertex $-1 $394 $547 #
straight-curve $-1 30.116741893560487 19.681793662323358 12.701395427636051 0 1 0 I I #
edge $-1 $497 -18.927605436739732 $391 -3.4506674769017796 $390 $548 forward 7 unknown #
vertex $-1 $496 $549 #
straight-curve $-1 30.116741893560487 -16.42501682792512 33.809048597043883 0 -0.79863550430605224 0.6018150307709319 I I #
point $-1 30.116741893560487 11.585784451120443 12.701395427636054 #
point $-1 14.639803933722535 27.500107306551499 0.70909274725144655 #
straight-curve $-1 0 27.500107306551502 12.701395427636049 -1 0 0 I I #
vertex $-1 $397 $550 #
point $-1 24.87827291364151 16.783930591430696 3.0439072101936153 #
edge $-1 $505 24.670139334302917 $508 36.662442014687535 $402 $551 forward 7 unknown #
vertex $-1 $416 $552 #
straight-curve $-1 -18.015781706178615 -41.64435572956166 12.701395427636051 0 -1 0 I I #
edge $-1 $508 -12.877125343048796 $413 2.5998126167891566 $412 $553 forward 7 unknown #
vertex $-1 $507 $554 #
straight-curve $-1 -18.015781706178615 -27.500107306551484 0.70909274725144655 0 0.79863550430605224 0.6018150307709319 I I #
point $-1 -18.015781706178615 -11.585784451120441 12.701395427636049 #
point $-1 -2.5388437463406621 -27.500107306551502 0.70909274725143312 #
straight-curve $-1 0 -27.500107306551502 12.701395427636049 1 0 0 I I #
vertex $-1 $419 $555 #
point $-1 -7.7773127262596375 -16.783930591430686 3.0439072101936171 #
edge $-1 $516 24.670139334302917 $519 36.662442014687535 $424 $556 forward 7 unknown #
vertex $-1 $438 $557 #
straight-curve $-1 14.639803933722535 -41.64435572956166 12.701395427636051 0 -1 0 I I #
edge $-1 $519 3.4506674769017796 $435 18.927605436739732 $434 $558 forward 7 unknown #
vertex $-1 $518 $559 #
straight-curve $-1 14.639803933722535 -27.500107306551484 0.70909274725144655 0 0.79863550430605224 0.6018150307709319 I I #
point $-1 14.639803933722535 -11.585784451120441 12.701395427636049 #
point $-1 30.116741893560487 -27.500107306551502 0.70909274725143312 #
straight-curve $-1 0 -27.500107306551502 12.701395427636049 1 0 0 I I #
vertex $-1 $441 $560 #
point $-1 24.87827291364151 -16.783930591430686 3.0439072101936171 #
point $-1 -46.3502914517655 -27.500107306551502 -12.701395427636049 #
straight-curve $-1 -46.3502914517655 0 -12.701395427636049 0 1 0 I I #
point $-1 -46.3502914517655 27.500107306551502 -12.701395427636049 #
straight-curve $-1 -46.3502914517655 27.500107306551502 0 0 0 -1 I I #
coedge $-1 $535 $463 $466 $532 reversed $338 $-1 #
straight-curve $-1 -58.451251639147387 27.500107306551502 9.9017168286328943 0 0 -1 I I #
edge $-1 $537 -27.500107306551502 $467 27.500107306551502 $530 $561 forward 7 unknown #
point $-1 -58.451251639147387 27.500107306551502 7.6020382296297395 #
point $-1 -58.451251639147387 27.500107306551502 12.201395427636049 #
coedge $-1 $476 $530 $473 $536 reversed $338 $-1 #
edge $-1 $478 -2.2996785990031547 $537 2.2996785990031547 $535 $562 forward 7 unknown #
vertex $-1 $532 $563 #
straight-curve $-1 -52.400771545456443 -27.500107306551502 7.6020382296297395 -1 0 0 I I #
straight-curve $-1 -58.451251639147387 0 12.201395427636049 0 -1 0 I I #
point $-1 -58.451251639147387 -27.500107306551502 12.201395427636049 #
straight-curve $-1 -2.5388437463406621 27.500107306551502 53.921512686835186 0 0 -1 I I #
point $-1 -2.5388437463406621 27.500107306551502 12.701395427636049 #
straight-curve $-1 -5.1386563631298188 27.500107306551499 0.70909274725143945 -1 0 0 I I #
point $-1 -2.5388437463406621 27.500107306551499 0.70909274725144655 #
point $-1 -10.277312726259638 15.279393014503368 1.0473184494284851 #
straight-curve $-1 30.116741893560487 27.500107306551502 53.921512686835186 0 0 -1 I I #
point $-1 30.116741893560487 27.500107306551502 12.701395427636049 #
straight-curve $-1 11.189136456820755 27.500107306551499 0.70909274725143945 -1 0 0 I I #
point $-1 30.116741893560487 27.500107306551499 0.70909274725144655 #
point $-1 22.37827291364151 15.279393014503368 1.0473184494284851 #
straight-curve $-1 -18.015781706178615 -27.500107306551502 37.371534761938968 0 0 -1 I I #
point $-1 -18.015781706178615 -27.500107306551502 12.701395427636049 #
straight-curve $-1 -5.1386563631298188 -27.500107306551502 0.70909274725143134 1 0 0 I I #
point $-1 -18.015781706178615 -27.500107306551502 0.70909274725143312 #
point $-1 -10.277312726259638 -15.279393014503357 1.0473184494284868 #
straight-curve $-1 14.639803933722535 -27.500107306551502 37.371534761938968 0 0 -1 I I #
point $-1 14.639803933722535 -27.500107306551502 12.701395427636049 #
straight-curve $-1 11.189136456820755 -27.500107306551502 0.70909274725143134 1 0 0 I I #
point $-1 14.639803933722535 -27.500107306551502 0.70909274725143312 #
point $-1 22.37827291364151 -15.279393014503357 1.0473184494284868 #
straight-curve $-1 -58.451251639147387 0 7.6020382296297395 0 1 0 I I #
straight-curve $-1 -58.451251639147387 -27.500107306551502 9.9017168286328943 0 0 -1 I I #
point $-1 -58.451251639147387 -27.500107306551502 7.6020382296297395 #
End-of-ACIS-data 