500 0 5 0           
7 Unknown 11 ACIS 5.0 NT 24 Fri Mar 26 20:42:32 1999 
-1 9.9999999999999995e-007 1e-010 
body $-1 $5 $-1 $6 #
body $-1 $7 $-1 $8 #
body $-1 $9 $-1 $10 #
body $-1 $11 $-1 $12 #
body $-1 $13 $-1 $14 #
lump $-1 $-1 $15 $0 #
transform $-1 1 0 0 0 1 0 0 0 1 75.025482955412457 32.401291294605464 15.013742057077355 1 rotate no_reflect no_shear #
lump $-1 $-1 $16 $1 #
transform $-1 1 0 0 0 1 0 0 0 1 75.025482955412457 32.401291294605464 15.013742057077355 1 rotate no_reflect no_shear #
lump $-1 $-1 $17 $2 #
transform $-1 1 0 0 0 1 0 0 0 1 75.025482955412457 32.401291294605464 15.013742057077355 1 rotate no_reflect no_shear #
lump $-1 $-1 $18 $3 #
transform $-1 1 0 0 0 1 0 0 0 1 75.025482955412457 32.401291294605464 15.013742057077355 1 rotate no_reflect no_shear #
lump $-1 $-1 $19 $4 #
transform $-1 1 0 0 0 1 0 0 0 1 75.025482955412457 32.401291294605464 15.013742057077355 1 rotate no_reflect no_shear #
shell $-1 $-1 $-1 $20 $-1 $5 #
shell $-1 $-1 $-1 $21 $-1 $7 #
shell $-1 $-1 $-1 $22 $-1 $9 #
shell $-1 $-1 $-1 $23 $-1 $11 #
shell $-1 $-1 $-1 $24 $-1 $13 #
face $-1 $25 $26 $15 $-1 $27 forward single #
face $-1 $28 $29 $16 $-1 $30 forward single #
face $-1 $31 $32 $17 $-1 $33 forward single #
face $-1 $34 $35 $18 $-1 $36 forward single #
face $-1 $37 $38 $19 $-1 $39 reversed single #
face $-1 $40 $41 $15 $-1 $42 reversed single #
loop $-1 $-1 $43 $20 #
plane-surface $-1 0 0 15.013742057077355 0 0 1 1 0 0 forward_v I I I I #
face $-1 $44 $45 $16 $-1 $46 forward single #
loop $-1 $-1 $47 $21 #
plane-surface $-1 -72.362384285005334 -22.5895975695883 0 1 0 0 0 0 -1 forward_v I I I I #
face $-1 $48 $49 $17 $-1 $50 forward single #
loop $-1 $-1 $51 $22 #
plane-surface $-1 0 27.373724391279517 6.6841782625398842 0 0 1 1 0 0 forward_v I I I I #
face $-1 $52 $53 $18 $-1 $54 forward single #
loop $-1 $-1 $55 $23 #
plane-surface $-1 -179.25964364534656 -3.1165271610138419 111.62421096706311 0 1 0 -0.69465837861970381 0 0.71933979245794832 forward_v I I I I #
face $-1 $56 $57 $19 $-1 $58 reversed single #
loop $-1 $59 $60 $24 #
cone-surface $-1 -67.968017869890986 0.34367503484155293 8.1151302471962694 0.69465837861970381 0 -0.71933979245794832 1.0790096886869225 0 1.0419875679295556 1 I I 0 1 1.5 forward I I I I #
face $-1 $61 $62 $15 $-1 $63 reversed single #
loop $-1 $-1 $64 $25 #
plane-surface $-1 0 0 -15.013742057077355 0 0 1 1 0 0 forward_v I I I I #
coedge $-1 $65 $66 $67 $68 forward $26 $-1 #
face $-1 $69 $70 $16 $-1 $71 forward single #
loop $-1 $-1 $72 $28 #
plane-surface $-1 -69.546259523598948 -12.777903844571137 0 0 -1 0 0 0 -1 forward_v I I I I #
coedge $-1 $73 $74 $75 $76 reversed $29 $-1 #
face $-1 $77 $78 $17 $-1 $79 forward single #
loop $-1 $-1 $80 $31 #
plane-surface $-1 0 22.346157487953569 10.84896015980862 0 1 0 0 0 1 forward_v I I I I #
coedge $-1 $81 $82 $83 $84 reversed $32 $-1 #
face $-1 $85 $86 $18 $-1 $87 forward single #
loop $-1 $-1 $88 $34 #
plane-surface $-1 -75.025482955412471 0.34367503484155293 3.6865802906556411 -0.69465837861970381 0 0.71933979245794832 0.71933979245794832 0 0.69465837861970381 forward_v I I I I #
coedge $-1 $89 $90 $91 $92 reversed $35 $-1 #
face $-1 $93 $94 $19 $-1 $95 forward single #
loop $-1 $96 $97 $37 #
cone-surface $-1 -66.254368556424026 0.34367503484155293 6.3405944761825914 0.69465837861970381 0 -0.71933979245794832 0.53950484434346124 0 0.5209937839647778 1 I I -0.70710678118654757 0.70710678118654757 0.75 forward I I I I #
loop $-1 $-1 $98 $24 #
coedge $-1 $60 $60 $99 $100 reversed $38 $-1 #
face $-1 $101 $102 $15 $-1 $103 reversed single #
loop $-1 $-1 $104 $40 #
plane-surface $-1 0 -32.401291294605464 0 0 1 0 0 0 1 forward_v I I I I #
coedge $-1 $105 $106 $107 $108 forward $41 $-1 #
coedge $-1 $109 $43 $110 $111 forward $26 $-1 #
coedge $-1 $43 $109 $112 $113 forward $26 $-1 #
coedge $-1 $114 $115 $43 $68 reversed $116 $-1 #
edge $-1 $117 -32.401291294605464 $118 32.401291294605464 $67 $119 forward 7 unknown #
face $-1 $120 $121 $16 $-1 $122 forward single #
loop $-1 $-1 $123 $44 #
plane-surface $-1 -66.730134762192563 -22.5895975695883 0 -1 0 0 0 0 1 forward_v I I I I #
coedge $-1 $124 $125 $126 $127 reversed $45 $-1 #
coedge $-1 $128 $47 $129 $130 reversed $29 $-1 #
coedge $-1 $47 $128 $131 $132 reversed $29 $-1 #
coedge $-1 $125 $124 $47 $76 forward $45 $-1 #
edge $-1 $133 -15.013742057077355 $134 15.013742057077355 $75 $135 forward 7 unknown #
face $-1 $136 $137 $17 $-1 $138 reversed single #
loop $-1 $-1 $139 $48 #
plane-surface $-1 0 0 15.013742057077355 0 0 1 1 0 0 forward_v I I I I #
coedge $-1 $140 $141 $142 $143 reversed $49 $-1 #
coedge $-1 $144 $51 $145 $146 reversed $32 $-1 #
coedge $-1 $51 $144 $141 $147 reversed $32 $-1 #
coedge $-1 $148 $149 $51 $84 forward $150 $-1 #
edge $-1 $151 -18.714429098965706 $152 -8.6592952923138107 $83 $153 forward 7 unknown #
face $-1 $154 $155 $18 $-1 $156 forward single #
loop $-1 $-1 $157 $52 #
plane-surface $-1 -179.25964364534656 3.8038772306969477 111.62421096706311 0 -1 0 0.69465837861970381 0 -0.71933979245794832 forward_v I I I I #
coedge $-1 $158 $159 $160 $161 reversed $53 $-1 #
coedge $-1 $90 $55 $159 $162 forward $35 $-1 #
coedge $-1 $55 $89 $163 $164 reversed $35 $-1 #
coedge $-1 $165 $160 $55 $92 forward $155 $-1 #
edge $-1 $166 -26.333957979299377 $167 -14.604338867260822 $91 $168 forward 7 unknown #
face $-1 $169 $170 $19 $-1 $171 forward single #
loop $-1 $-1 $172 $56 #
plane-surface $-1 -179.25964364534656 -3.1165271610138419 111.62421096706311 0 1 0 -0.69465837861970381 0 0.71933979245794832 forward_v I I I I #
loop $-1 $-1 $173 $37 #
coedge $-1 $97 $97 $98 $174 forward $57 $-1 #
coedge $-1 $98 $98 $97 $174 reversed $59 $-1 #
coedge $-1 $99 $99 $60 $100 forward $170 $-1 #
edge $-1 $175 0 $175 6.2831853071796004 $99 $176 forward 7 unknown #
face $-1 $177 $178 $15 $-1 $179 reversed single #
loop $-1 $-1 $180 $61 #
plane-surface $-1 -75.025482955412457 0 0 1 0 0 0 0 -1 forward_v I I I I #
coedge $-1 $181 $112 $182 $183 forward $62 $-1 #
coedge $-1 $184 $64 $181 $185 forward $41 $-1 #
coedge $-1 $64 $184 $186 $187 forward $41 $-1 #
coedge $-1 $115 $114 $64 $108 reversed $116 $-1 #
edge $-1 $188 -32.401291294605464 $189 32.401291294605464 $107 $190 forward 7 unknown #
coedge $-1 $66 $65 $191 $192 forward $26 $-1 #
coedge $-1 $193 $194 $65 $111 reversed $178 $-1 #
edge $-1 $118 -75.025482955412457 $195 75.025482955412457 $110 $196 forward 7 unknown #
coedge $-1 $104 $197 $66 $113 reversed $62 $-1 #
edge $-1 $198 -75.025482955412457 $117 75.025482955412457 $112 $199 forward 7 unknown #
coedge $-1 $107 $67 $197 $200 forward $116 $-1 #
coedge $-1 $67 $107 $193 $201 reversed $116 $-1 #
loop $-1 $-1 $114 $177 #
vertex $-1 $68 $202 #
vertex $-1 $68 $203 #
straight-curve $-1 75.025482955412457 0 15.013742057077355 0 1 0 I I #
face $-1 $204 $205 $16 $-1 $206 reversed single #
loop $-1 $-1 $129 $69 #
plane-surface $-1 0 0 15.013742057077355 0 0 1 1 0 0 forward_v I I I I #
coedge $-1 $207 $208 $209 $210 reversed $70 $-1 #
coedge $-1 $75 $72 $211 $212 reversed $45 $-1 #
coedge $-1 $72 $75 $213 $214 reversed $45 $-1 #
coedge $-1 $208 $207 $72 $127 forward $70 $-1 #
edge $-1 $215 -15.013742057077355 $216 15.013742057077355 $126 $217 forward 7 unknown #
coedge $-1 $74 $73 $218 $219 reversed $29 $-1 #
coedge $-1 $211 $220 $73 $130 forward $121 $-1 #
edge $-1 $221 -21.106492509811314 $133 -1.483105059776987 $129 $222 forward 7 unknown #
coedge $-1 $223 $213 $74 $132 forward $224 $-1 #
edge $-1 $134 1.483105059776987 $225 21.106492509811314 $131 $226 forward 7 unknown #
vertex $-1 $130 $227 #
vertex $-1 $132 $228 #
straight-curve $-1 -72.362384285005334 -12.777903844571137 0 0 0 -1 I I #
face $-1 $229 $230 $17 $-1 $231 forward single #
loop $-1 $-1 $142 $77 #
plane-surface $-1 -75.025482955412457 0 0 1 0 0 0 0 -1 forward_v I I I I #
coedge $-1 $232 $233 $140 $234 forward $78 $-1 #
coedge $-1 $235 $80 $139 $234 reversed $49 $-1 #
coedge $-1 $80 $235 $82 $147 forward $49 $-1 #
coedge $-1 $236 $237 $80 $143 forward $137 $-1 #
edge $-1 $238 -9.5892619771730452 $239 -1.2596981826355744 $142 $240 forward 7 unknown #
coedge $-1 $82 $81 $236 $241 reversed $32 $-1 #
coedge $-1 $242 $243 $81 $146 forward $244 $-1 #
edge $-1 $245 -75.025482955412457 $151 75.025482955412457 $145 $246 forward 7 unknown #
edge $-1 $152 -75.025482955412457 $239 75.025482955412457 $141 $247 forward 7 unknown #
coedge $-1 $248 $83 $235 $249 forward $150 $-1 #
coedge $-1 $83 $250 $242 $251 reversed $150 $-1 #
loop $-1 $-1 $148 $252 #
vertex $-1 $251 $253 #
vertex $-1 $84 $254 #
straight-curve $-1 75.025482955412457 13.686862195639758 6.6841782625398842 0 -1 0 I I #
face $-1 $255 $256 $18 $-1 $257 forward single #
loop $-1 $-1 $258 $85 #
plane-surface $-1 0 0 15.013742057077355 0 0 1 1 0 0 forward_v I I I I #
coedge $-1 $259 $260 $258 $261 reversed $86 $-1 #
coedge $-1 $262 $88 $260 $263 reversed $53 $-1 #
coedge $-1 $88 $262 $89 $162 reversed $53 $-1 #
coedge $-1 $91 $258 $88 $161 forward $155 $-1 #
edge $-1 $264 -3.6320397132761713 $166 3.2883646784346183 $160 $265 forward 7 unknown #
edge $-1 $166 -16.306089604690218 $266 -1.9785632286268914e-014 $89 $267 forward 7 unknown #
coedge $-1 $268 $269 $90 $164 forward $270 $-1 #
edge $-1 $167 40.798363426454202 $266 52.125525192875898 $163 $271 forward 7 unknown #
coedge $-1 $272 $91 $269 $273 forward $155 $-1 #
vertex $-1 $161 $274 #
vertex $-1 $273 $275 #
straight-curve $-1 -89.629821822673279 -3.1165271610138419 15.013742057077359 -1 0 0 I I #
face $-1 $276 $277 $19 $-1 $278 forward single #
loop $-1 $279 $99 $93 #
plane-surface $-1 -75.025482955412471 0.34367503484155293 3.6865802906556411 -0.69465837861970381 0 0.71933979245794832 0.71933979245794832 0 0.69465837861970381 forward_v I I I I #
coedge $-1 $280 $281 $282 $283 reversed $94 $-1 #
coedge $-1 $173 $173 $-1 $284 forward $96 $-1 #
edge $-1 $285 0 $285 6.2831853071796004 $97 $286 forward 7 unknown #
vertex $-1 $100 $287 #
ellipse-curve $-1 -69.160673399393175 0.34367503484155293 9.3501611738665016 0.69465837861970381 0 -0.71933979245794832 1.0790096886869225 0 1.0419875679295556 1 I I #
face $-1 $-1 $116 $15 $-1 $288 reversed single #
loop $-1 $-1 $193 $101 #
plane-surface $-1 0 32.401291294605464 0 0 -1 0 0 0 -1 forward_v I I I I #
coedge $-1 $289 $191 $194 $290 forward $102 $-1 #
coedge $-1 $197 $104 $105 $185 reversed $62 $-1 #
coedge $-1 $191 $289 $104 $183 reversed $102 $-1 #
edge $-1 $198 -15.013742057077355 $291 15.013742057077355 $182 $292 forward 7 unknown #
coedge $-1 $106 $105 $289 $293 forward $41 $-1 #
edge $-1 $189 -75.025482955412457 $291 75.025482955412457 $181 $294 forward 7 unknown #
coedge $-1 $194 $193 $106 $187 reversed $178 $-1 #
edge $-1 $295 -75.025482955412457 $188 75.025482955412457 $186 $296 forward 7 unknown #
vertex $-1 $108 $297 #
vertex $-1 $200 $298 #
straight-curve $-1 75.025482955412457 0 -15.013742057077355 0 -1 0 I I #
coedge $-1 $180 $182 $109 $192 reversed $102 $-1 #
edge $-1 $195 -32.401291294605464 $198 32.401291294605464 $191 $299 forward 7 unknown #
coedge $-1 $186 $110 $115 $201 forward $178 $-1 #
coedge $-1 $110 $186 $180 $290 reversed $178 $-1 #
vertex $-1 $111 $300 #
straight-curve $-1 0 32.401291294605464 15.013742057077355 -1 0 0 I I #
coedge $-1 $112 $181 $114 $200 reversed $62 $-1 #
vertex $-1 $192 $301 #
straight-curve $-1 0 -32.401291294605464 15.013742057077355 1 0 0 I I #
edge $-1 $117 -15.013742057077355 $189 15.013742057077355 $114 $302 forward 7 unknown #
edge $-1 $118 -15.013742057077355 $188 15.013742057077355 $115 $303 forward 7 unknown #
point $-1 75.025482955412457 -32.401291294605464 15.013742057077355 #
point $-1 75.025482955412457 32.401291294605464 15.013742057077355 #
face $-1 $304 $224 $16 $-1 $305 reversed single #
loop $-1 $-1 $209 $120 #
plane-surface $-1 0 -32.401291294605464 0 0 1 0 0 0 1 forward_v I I I I #
coedge $-1 $126 $123 $306 $307 reversed $70 $-1 #
coedge $-1 $123 $126 $308 $309 reversed $70 $-1 #
coedge $-1 $310 $311 $123 $210 forward $205 $-1 #
edge $-1 $312 -15.013742057077355 $313 15.013742057077355 $209 $314 forward 7 unknown #
coedge $-1 $306 $129 $124 $212 forward $121 $-1 #
edge $-1 $133 -37.589254523205859 $215 -31.957005000393089 $211 $315 forward 7 unknown #
coedge $-1 $131 $308 $125 $214 forward $224 $-1 #
edge $-1 $216 31.957005000393089 $134 37.589254523205859 $213 $316 forward 7 unknown #
vertex $-1 $212 $317 #
vertex $-1 $214 $318 #
straight-curve $-1 -66.730134762192563 -12.777903844571137 0 0 0 -1 I I #
coedge $-1 $319 $320 $128 $219 forward $321 $-1 #
edge $-1 $225 -15.013742057077355 $221 15.013742057077355 $218 $322 forward 7 unknown #
coedge $-1 $129 $323 $319 $324 forward $121 $-1 #
vertex $-1 $219 $325 #
straight-curve $-1 -72.362384285005334 -11.29479878479415 15.013742057077355 0 1 0 I I #
coedge $-1 $326 $131 $320 $327 forward $224 $-1 #
loop $-1 $-1 $131 $204 #
vertex $-1 $327 $328 #
straight-curve $-1 -72.362384285005334 -11.29479878479415 -15.013742057077355 0 -1 0 I I #
point $-1 -72.362384285005334 -12.777903844571137 15.013742057077355 #
point $-1 -72.362384285005334 -12.777903844571137 -15.013742057077355 #
face $-1 $329 $330 $17 $-1 $331 forward single #
loop $-1 $-1 $332 $136 #
plane-surface $-1 -72.362384285005334 -22.5895975695883 0 1 0 0 0 0 -1 forward_v I I I I #
coedge $-1 $333 $139 $237 $334 forward $78 $-1 #
coedge $-1 $139 $335 $248 $336 forward $78 $-1 #
edge $-1 $337 -75.025482955412457 $238 75.025482955412457 $139 $338 forward 7 unknown #
coedge $-1 $141 $140 $148 $249 reversed $49 $-1 #
coedge $-1 $339 $142 $144 $241 forward $137 $-1 #
coedge $-1 $142 $340 $232 $334 reversed $137 $-1 #
vertex $-1 $334 $341 #
vertex $-1 $241 $342 #
straight-curve $-1 -75.025482955412457 22.346157487953569 5.4244800799043098 0 0 -1 I I #
edge $-1 $239 8.6592952923138107 $245 18.714429098965706 $236 $343 forward 7 unknown #
coedge $-1 $344 $145 $149 $251 forward $244 $-1 #
coedge $-1 $145 $344 $339 $345 reversed $244 $-1 #
loop $-1 $-1 $145 $346 #
vertex $-1 $345 $347 #
straight-curve $-1 0 32.401291294605464 6.6841782625398842 1 0 0 I I #
straight-curve $-1 0 22.346157487953569 6.6841782625398842 -1 0 0 I I #
coedge $-1 $348 $148 $233 $336 reversed $150 $-1 #
edge $-1 $152 1.2596981826355744 $337 9.5892619771730452 $148 $349 forward 7 unknown #
coedge $-1 $149 $348 $350 $351 reversed $150 $-1 #
edge $-1 $151 -6.6841782625398842 $352 15.013742057077355 $149 $353 forward 7 unknown #
face $-1 $-1 $150 $17 $-1 $354 reversed single #
point $-1 75.025482955412457 32.401291294605464 6.6841782625398842 #
point $-1 75.025482955412457 22.346157487953569 6.6841782625398842 #
face $-1 $355 $356 $18 $-1 $357 forward single #
loop $-1 $-1 $358 $154 #
plane-surface $-1 0 27.373724391279517 6.6841782625398842 0 0 1 1 0 0 forward_v I I I I #
coedge $-1 $160 $359 $157 $261 forward $155 $-1 #
coedge $-1 $260 $157 $360 $361 reversed $86 $-1 #
coedge $-1 $157 $259 $158 $263 forward $86 $-1 #
edge $-1 $362 14.604338867260822 $264 26.333957979299377 $258 $363 forward 7 unknown #
coedge $-1 $159 $158 $268 $364 reversed $53 $-1 #
edge $-1 $365 1.9785632286268914e-014 $264 16.306089604690218 $260 $366 forward 7 unknown #
vertex $-1 $161 $367 #
straight-curve $-1 -63.295863843373894 0.17183751742077646 15.013742057077353 0 -1 0 I I #
vertex $-1 $364 $368 #
straight-curve $-1 -75.025482955412471 -3.1165271610138419 3.6865802906556411 -0.71933979245794832 0 -0.69465837861970381 I I #
coedge $-1 $360 $163 $262 $364 forward $270 $-1 #
coedge $-1 $163 $369 $165 $273 reversed $270 $-1 #
loop $-1 $-1 $360 $355 #
straight-curve $-1 -75.025482955412457 -3.1165271610138419 55.812105483531553 0 0 -1 I I #
coedge $-1 $370 $165 $371 $372 forward $155 $-1 #
edge $-1 $167 3.1165271610138419 $373 32.401291294605464 $269 $374 forward 7 unknown #
point $-1 -63.295863843373901 -3.1165271610138419 15.013742057077355 #
point $-1 -75.025482955412457 -3.1165271610138419 15.013742057077355 #
face $-1 $375 $376 $19 $-1 $377 forward single #
loop $-1 $-1 $378 $169 #
plane-surface $-1 -179.25964364534656 3.8038772306969477 111.62421096706311 0 -1 0 0.69465837861970381 0 -0.71933979245794832 forward_v I I I I #
loop $-1 $-1 $379 $93 #
coedge $-1 $281 $172 $380 $381 forward $94 $-1 #
coedge $-1 $172 $280 $382 $383 reversed $94 $-1 #
coedge $-1 $384 $385 $172 $283 forward $376 $-1 #
edge $-1 $386 -26.333957979299377 $387 -14.604338867260822 $282 $388 forward 7 unknown #
edge $-1 $389 1 $389 0 $173 $-1 forward 7 unknown #
vertex $-1 $174 $390 #
ellipse-curve $-1 -66.77536234038881 0.34367503484155293 6.8800993205260523 -0.69465837861970381 0 0.71933979245794832 1.0790096886869225 0 1.0419875679295556 1 I I #
point $-1 -68.081663710706238 0.34367503484155293 10.392148741796044 #
plane-surface $-1 75.025482955412457 0 0 -1 0 0 0 0 1 forward_v I I I I #
coedge $-1 $182 $180 $184 $293 reversed $102 $-1 #
edge $-1 $195 -15.013742057077355 $295 15.013742057077355 $194 $391 forward 7 unknown #
vertex $-1 $293 $392 #
straight-curve $-1 -75.025482955412457 -32.401291294605464 0 0 0 -1 I I #
edge $-1 $291 -32.401291294605464 $295 32.401291294605464 $289 $393 forward 7 unknown #
straight-curve $-1 0 -32.401291294605464 -15.013742057077355 -1 0 0 I I #
vertex $-1 $187 $394 #
straight-curve $-1 0 32.401291294605464 -15.013742057077355 1 0 0 I I #
point $-1 75.025482955412457 32.401291294605464 -15.013742057077355 #
point $-1 75.025482955412457 -32.401291294605464 -15.013742057077355 #
straight-curve $-1 -75.025482955412457 0 15.013742057077355 0 -1 0 I I #
point $-1 -75.025482955412457 32.401291294605464 15.013742057077355 #
point $-1 -75.025482955412457 -32.401291294605464 15.013742057077355 #
straight-curve $-1 75.025482955412457 -32.401291294605464 0 0 0 -1 I I #
straight-curve $-1 75.025482955412457 32.401291294605464 0 0 0 -1 I I #
face $-1 $395 $321 $16 $-1 $206 reversed single #
plane-surface $-1 0 0 -15.013742057077355 0 0 1 1 0 0 forward_v I I I I #
coedge $-1 $396 $211 $207 $307 forward $121 $-1 #
edge $-1 $215 1.483105059776987 $312 21.106492509811314 $306 $397 forward 7 unknown #
coedge $-1 $213 $398 $208 $309 forward $224 $-1 #
edge $-1 $313 -21.106492509811314 $216 -1.483105059776987 $308 $399 forward 7 unknown #
coedge $-1 $400 $209 $398 $401 reversed $205 $-1 #
coedge $-1 $209 $400 $396 $402 reversed $205 $-1 #
vertex $-1 $402 $403 #
vertex $-1 $210 $404 #
straight-curve $-1 -66.730134762192563 -32.401291294605464 0 0 0 -1 I I #
straight-curve $-1 -34.773129761799474 -12.777903844571137 15.013742057077355 1 0 0 I I #
straight-curve $-1 -34.773129761799474 -12.777903844571137 -15.013742057077355 -1 0 0 I I #
point $-1 -66.730134762192563 -12.777903844571137 15.013742057077355 #
point $-1 -66.730134762192563 -12.777903844571137 -15.013742057077355 #
coedge $-1 $405 $218 $220 $324 reversed $321 $-1 #
coedge $-1 $218 $405 $223 $327 reversed $321 $-1 #
loop $-1 $-1 $218 $304 #
straight-curve $-1 -72.362384285005334 -32.401291294605464 0 0 0 1 I I #
coedge $-1 $220 $406 $407 $408 forward $121 $-1 #
edge $-1 $409 -75.025482955412457 $221 -72.362384285005334 $319 $410 forward 7 unknown #
point $-1 -72.362384285005334 -32.401291294605464 15.013742057077355 #
coedge $-1 $411 $223 $412 $413 forward $224 $-1 #
edge $-1 $225 72.362384285005334 $414 75.025482955412457 $320 $415 forward 7 unknown #
point $-1 -72.362384285005334 -32.401291294605464 -15.013742057077355 #
face $-1 $416 $417 $17 $-1 $418 forward single #
loop $-1 $-1 $419 $229 #
plane-surface $-1 -69.546259523598948 -12.777903844571137 0 0 -1 0 0 0 -1 forward_v I I I I #
coedge $-1 $420 $421 $422 $423 reversed $230 $-1 #
coedge $-1 $424 $232 $425 $426 forward $78 $-1 #
edge $-1 $238 -22.346157487953569 $427 32.401291294605464 $237 $428 forward 7 unknown #
coedge $-1 $233 $429 $430 $431 forward $78 $-1 #
edge $-1 $432 -32.401291294605464 $337 22.346157487953569 $248 $433 forward 7 unknown #
vertex $-1 $234 $434 #
straight-curve $-1 0 22.346157487953569 15.013742057077355 -1 0 0 I I #
coedge $-1 $435 $236 $243 $345 forward $137 $-1 #
coedge $-1 $237 $435 $436 $437 reversed $137 $-1 #
point $-1 -75.025482955412457 22.346157487953569 15.013742057077355 #
point $-1 -75.025482955412457 22.346157487953569 6.6841782625398842 #
straight-curve $-1 -75.025482955412457 13.686862195639758 6.6841782625398842 0 1 0 I I #
coedge $-1 $243 $242 $438 $439 reversed $244 $-1 #
edge $-1 $245 -6.6841782625398842 $440 15.013742057077355 $243 $441 forward 7 unknown #
face $-1 $252 $244 $17 $-1 $442 reversed single #
point $-1 -75.025482955412457 32.401291294605464 6.6841782625398842 #
coedge $-1 $250 $248 $443 $444 forward $150 $-1 #
straight-curve $-1 75.025482955412457 22.346157487953569 5.4244800799043098 0 0 1 I I #
coedge $-1 $445 $438 $250 $351 forward $446 $-1 #
edge $-1 $352 -32.401291294605464 $447 32.401291294605464 $250 $448 forward 7 unknown #
vertex $-1 $351 $449 #
straight-curve $-1 75.025482955412457 32.401291294605464 0 0 0 -1 I I #
plane-surface $-1 75.025482955412457 0 0 -1 0 0 0 0 1 forward_v I I I I #
face $-1 $450 $270 $18 $-1 $451 reversed single #
loop $-1 $-1 $452 $255 #
plane-surface $-1 0 22.346157487953569 10.84896015980862 0 1 0 0 0 1 forward_v I I I I #
coedge $-1 $453 $454 $455 $456 reversed $256 $-1 #
coedge $-1 $258 $457 $458 $459 forward $155 $-1 #
coedge $-1 $458 $268 $259 $361 forward $270 $-1 #
edge $-1 $365 -52.125525192875898 $362 -40.798363426454202 $360 $460 forward 7 unknown #
vertex $-1 $361 $461 #
straight-curve $-1 -89.629821822673279 3.8038772306969477 15.013742057077359 1 0 0 I I #
edge $-1 $266 -3.2883646784346183 $365 3.6320397132761713 $268 $462 forward 7 unknown #
vertex $-1 $364 $463 #
straight-curve $-1 -75.025482955412471 3.8038772306969477 3.6865802906556411 0.71933979245794832 0 0.69465837861970381 I I #
point $-1 -63.295863843373901 3.8038772306969477 15.013742057077355 #
point $-1 -75.025482955412457 -3.1165271610138419 3.6865802906556548 #
coedge $-1 $269 $464 $465 $466 reversed $270 $-1 #
coedge $-1 $467 $272 $468 $469 forward $155 $-1 #
coedge $-1 $465 $470 $272 $372 reversed $471 $-1 #
edge $-1 $373 -75.025482955412457 $472 -72.362384285005334 $371 $473 forward 7 unknown #
vertex $-1 $273 $474 #
straight-curve $-1 -75.025482955412457 0 15.013742057077355 0 -1 0 I I #
face $-1 $475 $476 $19 $-1 $477 forward single #
loop $-1 $-1 $478 $276 #
plane-surface $-1 0 0 15.013742057077355 0 0 1 1 0 0 forward_v I I I I #
coedge $-1 $479 $480 $478 $481 reversed $277 $-1 #
coedge $-1 $482 $380 $385 $483 reversed $279 $-1 #
coedge $-1 $379 $484 $280 $381 reversed $279 $-1 #
edge $-1 $386 -16.306089604690218 $485 -1.9785632286268914e-014 $280 $486 forward 7 unknown #
coedge $-1 $487 $488 $281 $383 forward $489 $-1 #
edge $-1 $387 40.798363426454202 $485 52.125525192875898 $382 $490 forward 7 unknown #
coedge $-1 $491 $282 $488 $492 forward $376 $-1 #
coedge $-1 $282 $478 $379 $483 forward $376 $-1 #
vertex $-1 $483 $493 #
vertex $-1 $492 $494 #
straight-curve $-1 -89.629821822673279 -3.1165271610138419 15.013742057077359 -1 0 0 I I #
vertex $-1 $284 $495 #
point $-1 -65.696352651701886 0.34367503484155293 7.9220868884556079 #
straight-curve $-1 -75.025482955412457 32.401291294605464 0 0 0 -1 I I #
point $-1 -75.025482955412457 -32.401291294605464 -15.013742057077355 #
straight-curve $-1 -75.025482955412457 0 -15.013742057077355 0 1 0 I I #
point $-1 -75.025482955412457 32.401291294605464 -15.013742057077355 #
face $-1 $496 $497 $16 $-1 $498 reversed single #
coedge $-1 $499 $306 $311 $402 forward $121 $-1 #
straight-curve $-1 -66.730134762192563 -11.29479878479415 15.013742057077355 0 -1 0 I I #
coedge $-1 $308 $500 $310 $401 forward $224 $-1 #
straight-curve $-1 -66.730134762192563 -11.29479878479415 -15.013742057077355 0 1 0 I I #
coedge $-1 $311 $310 $501 $502 reversed $205 $-1 #
edge $-1 $503 -75.025482955412457 $313 66.730134762192563 $310 $415 forward 7 unknown #
edge $-1 $312 -66.730134762192563 $504 75.025482955412457 $311 $410 forward 7 unknown #
point $-1 -66.730134762192563 -32.401291294605464 15.013742057077355 #
point $-1 -66.730134762192563 -32.401291294605464 -15.013742057077355 #
coedge $-1 $320 $319 $505 $506 forward $321 $-1 #
coedge $-1 $323 $499 $507 $508 forward $121 $-1 #
coedge $-1 $509 $505 $323 $408 reversed $497 $-1 #
edge $-1 $510 -32.401291294605464 $409 32.401291294605464 $407 $511 forward 7 unknown #
vertex $-1 $408 $512 #
straight-curve $-1 0 -32.401291294605464 15.013742057077355 1 0 0 I I #
coedge $-1 $500 $326 $513 $514 forward $224 $-1 #
coedge $-1 $505 $509 $326 $413 reversed $497 $-1 #
edge $-1 $414 -32.401291294605464 $515 32.401291294605464 $412 $516 forward 7 unknown #
vertex $-1 $413 $517 #
straight-curve $-1 0 -32.401291294605464 -15.013742057077355 -1 0 0 I I #
face $-1 $518 $519 $17 $-1 $520 reversed single #
loop $-1 $-1 $521 $329 #
plane-surface $-1 -66.730134762192563 -22.5895975695883 0 -1 0 0 0 0 1 forward_v I I I I #
coedge $-1 $522 $523 $524 $525 reversed $330 $-1 #
coedge $-1 $526 $332 $424 $527 reversed $230 $-1 #
coedge $-1 $332 $526 $528 $529 reversed $230 $-1 #
coedge $-1 $523 $522 $332 $423 forward $330 $-1 #
edge $-1 $530 -15.013742057077355 $531 15.013742057077355 $422 $532 forward 7 unknown #
coedge $-1 $533 $333 $420 $527 forward $78 $-1 #
coedge $-1 $436 $534 $333 $426 reversed $535 $-1 #
edge $-1 $427 -75.025482955412457 $536 -72.362384285005334 $425 $537 forward 7 unknown #
vertex $-1 $334 $538 #
straight-curve $-1 -75.025482955412457 0 15.013742057077355 0 -1 0 I I #
coedge $-1 $335 $533 $539 $540 forward $78 $-1 #
coedge $-1 $541 $443 $335 $431 reversed $519 $-1 #
edge $-1 $542 -66.730134762192563 $432 75.025482955412457 $430 $537 forward 7 unknown #
vertex $-1 $336 $543 #
straight-curve $-1 75.025482955412457 0 15.013742057077355 0 1 0 I I #
point $-1 75.025482955412457 22.346157487953569 15.013742057077355 #
coedge $-1 $340 $339 $544 $545 reversed $137 $-1 #
coedge $-1 $546 $425 $340 $437 forward $535 $-1 #
edge $-1 $427 -15.013742057077355 $547 15.013742057077355 $340 $548 forward 7 unknown #
coedge $-1 $350 $544 $344 $439 forward $446 $-1 #
edge $-1 $440 -75.025482955412457 $352 75.025482955412457 $344 $549 forward 7 unknown #
vertex $-1 $439 $550 #
straight-curve $-1 -75.025482955412457 32.401291294605464 0 0 0 -1 I I #
plane-surface $-1 0 32.401291294605464 0 0 -1 0 0 0 -1 forward_v I I I I #
coedge $-1 $430 $551 $348 $444 reversed $519 $-1 #
edge $-1 $432 -15.013742057077355 $447 15.013742057077355 $348 $552 forward 7 unknown #
coedge $-1 $553 $350 $551 $554 forward $446 $-1 #
loop $-1 $-1 $528 $518 #
vertex $-1 $444 $555 #
straight-curve $-1 75.025482955412457 0 -15.013742057077355 0 -1 0 I I #
point $-1 75.025482955412457 32.401291294605464 -15.013742057077355 #
face $-1 $556 $557 $18 $-1 $558 forward single #
plane-surface $-1 -75.025482955412457 0 0 1 0 0 0 0 -1 forward_v I I I I #
coedge $-1 $559 $560 $561 $562 reversed $356 $-1 #
coedge $-1 $563 $358 $564 $565 reversed $256 $-1 #
coedge $-1 $358 $563 $560 $566 reversed $256 $-1 #
coedge $-1 $567 $568 $358 $456 forward $569 $-1 #
edge $-1 $570 -18.714429098965706 $571 -8.6592952923138107 $455 $572 forward 7 unknown #
coedge $-1 $359 $573 $559 $574 forward $155 $-1 #
coedge $-1 $561 $360 $359 $459 reversed $270 $-1 #
edge $-1 $575 -22.346157487953569 $362 -3.8038772306969477 $458 $374 forward 7 unknown #
straight-curve $-1 -75.025482955412457 3.8038772306969477 55.812105483531553 0 0 1 I I #
point $-1 -75.025482955412457 3.8038772306969477 15.013742057077355 #
straight-curve $-1 -75.025482955412457 0.17183751742077646 3.6865802906556526 0 1 0 I I #
point $-1 -75.025482955412457 3.8038772306969477 3.6865802906556548 #
coedge $-1 $369 $576 $577 $578 reversed $270 $-1 #
coedge $-1 $579 $371 $369 $466 forward $471 $-1 #
edge $-1 $373 -15.013742057077355 $580 15.013742057077355 $369 $581 forward 7 unknown #
coedge $-1 $582 $370 $583 $584 forward $155 $-1 #
coedge $-1 $585 $586 $370 $469 reversed $557 $-1 #
edge $-1 $472 -21.106492509811314 $587 -1.483105059776987 $370 $588 forward 7 unknown #
coedge $-1 $371 $579 $585 $589 forward $471 $-1 #
loop $-1 $-1 $470 $590 #
vertex $-1 $589 $591 #
straight-curve $-1 0 -32.401291294605464 15.013742057077355 1 0 0 I I #
point $-1 -75.025482955412457 -32.401291294605464 15.013742057077355 #
face $-1 $592 $593 $19 $-1 $594 forward single #
loop $-1 $-1 $595 $375 #
plane-surface $-1 0 27.373724391279517 6.6841782625398842 0 0 1 1 0 0 forward_v I I I I #
coedge $-1 $385 $596 $378 $481 forward $376 $-1 #
coedge $-1 $480 $378 $597 $598 reversed $277 $-1 #
coedge $-1 $378 $479 $482 $599 forward $277 $-1 #
edge $-1 $600 14.604338867260822 $601 26.333957979299377 $478 $602 forward 7 unknown #
coedge $-1 $484 $379 $480 $599 reversed $279 $-1 #
edge $-1 $601 -3.6320397132761713 $386 3.2883646784346183 $385 $603 forward 7 unknown #
coedge $-1 $380 $482 $487 $604 reversed $279 $-1 #
vertex $-1 $604 $605 #
straight-curve $-1 -75.025482955412471 -3.1165271610138419 3.6865802906556411 -0.71933979245794832 0 -0.69465837861970381 I I #
coedge $-1 $597 $382 $484 $604 forward $489 $-1 #
coedge $-1 $382 $606 $384 $492 reversed $489 $-1 #
loop $-1 $-1 $597 $592 #
straight-curve $-1 -75.025482955412457 -3.1165271610138419 55.812105483531553 0 0 -1 I I #
coedge $-1 $607 $384 $608 $609 forward $376 $-1 #
edge $-1 $387 3.1165271610138419 $610 32.401291294605464 $488 $611 forward 7 unknown #
point $-1 -63.295863843373901 -3.1165271610138419 15.013742057077355 #
point $-1 -75.025482955412457 -3.1165271610138419 15.013742057077355 #
point $-1 -65.733374772459243 0.34367503484155293 5.8010896318391305 #
face $-1 $612 $613 $16 $-1 $614 reversed single #
loop $-1 $-1 $509 $395 #
plane-surface $-1 -75.025482955412457 0 0 1 0 0 0 0 -1 forward_v I I I I #
coedge $-1 $406 $396 $615 $616 forward $121 $-1 #
coedge $-1 $398 $411 $617 $618 forward $224 $-1 #
coedge $-1 $617 $615 $400 $502 forward $619 $-1 #
edge $-1 $504 -15.013742057077355 $503 15.013742057077355 $501 $620 forward 7 unknown #
vertex $-1 $502 $621 #
vertex $-1 $616 $622 #
coedge $-1 $407 $412 $405 $506 reversed $497 $-1 #
edge $-1 $409 -15.013742057077355 $414 15.013742057077355 $505 $623 forward 7 unknown #
coedge $-1 $624 $625 $406 $508 reversed $613 $-1 #
edge $-1 $626 -75.025482955412457 $510 75.025482955412457 $507 $627 forward 7 unknown #
coedge $-1 $412 $407 $625 $628 forward $497 $-1 #
vertex $-1 $508 $629 #
straight-curve $-1 -75.025482955412457 0 15.013742057077355 0 -1 0 I I #
point $-1 -75.025482955412457 -32.401291294605464 15.013742057077355 #
coedge $-1 $625 $624 $411 $514 reversed $613 $-1 #
edge $-1 $515 -75.025482955412457 $630 75.025482955412457 $513 $631 forward 7 unknown #
vertex $-1 $514 $632 #
straight-curve $-1 -75.025482955412457 0 -15.013742057077355 0 1 0 I I #
point $-1 -75.025482955412457 -32.401291294605464 -15.013742057077355 #
face $-1 $633 $446 $17 $-1 $634 reversed single #
loop $-1 $-1 $541 $416 #
plane-surface $-1 0 -32.401291294605464 0 0 1 0 0 0 1 forward_v I I I I #
coedge $-1 $539 $635 $541 $636 reversed $417 $-1 #
coedge $-1 $422 $419 $533 $637 reversed $330 $-1 #
coedge $-1 $419 $422 $638 $639 reversed $330 $-1 #
coedge $-1 $635 $539 $419 $525 forward $417 $-1 #
edge $-1 $640 -15.013742057077355 $641 15.013742057077355 $524 $642 forward 7 unknown #
coedge $-1 $421 $420 $534 $643 reversed $230 $-1 #
edge $-1 $536 -21.106492509811314 $530 -1.483105059776987 $424 $644 forward 7 unknown #
coedge $-1 $645 $638 $421 $529 forward $446 $-1 #
edge $-1 $531 1.483105059776987 $646 21.106492509811314 $528 $647 forward 7 unknown #
vertex $-1 $527 $648 #
vertex $-1 $529 $649 #
straight-curve $-1 -72.362384285005334 -12.777903844571137 0 0 0 -1 I I #
coedge $-1 $429 $424 $522 $637 forward $78 $-1 #
coedge $-1 $425 $546 $526 $643 forward $535 $-1 #
loop $-1 $-1 $534 $633 #
vertex $-1 $643 $650 #
straight-curve $-1 0 -32.401291294605464 15.013742057077355 1 0 0 I I #
point $-1 -75.025482955412457 -32.401291294605464 15.013742057077355 #
coedge $-1 $524 $521 $429 $540 reversed $417 $-1 #
edge $-1 $640 1.483105059776987 $542 21.106492509811314 $429 $651 forward 7 unknown #
coedge $-1 $551 $430 $521 $636 forward $519 $-1 #
vertex $-1 $431 $652 #
point $-1 75.025482955412457 -32.401291294605464 15.013742057077355 #
coedge $-1 $438 $645 $435 $545 forward $446 $-1 #
edge $-1 $547 -32.401291294605464 $440 32.401291294605464 $435 $653 forward 7 unknown #
coedge $-1 $534 $436 $645 $654 reversed $535 $-1 #
vertex $-1 $545 $655 #
straight-curve $-1 -75.025482955412457 -32.401291294605464 0 0 0 -1 I I #
straight-curve $-1 0 32.401291294605464 -15.013742057077355 1 0 0 I I #
point $-1 -75.025482955412457 32.401291294605464 -15.013742057077355 #
coedge $-1 $443 $541 $445 $554 reversed $519 $-1 #
straight-curve $-1 75.025482955412457 -32.401291294605464 0 0 0 -1 I I #
coedge $-1 $638 $445 $635 $656 forward $446 $-1 #
edge $-1 $447 -75.025482955412457 $657 66.730134762192563 $551 $658 forward 7 unknown #
point $-1 75.025482955412457 -32.401291294605464 -15.013742057077355 #
face $-1 $659 $660 $18 $-1 $661 forward single #
loop $-1 $-1 $586 $450 #
plane-surface $-1 -72.362384285005334 -22.5895975695883 0 1 0 0 0 0 -1 forward_v I I I I #
coedge $-1 $662 $452 $457 $574 reversed $356 $-1 #
coedge $-1 $452 $662 $454 $566 forward $356 $-1 #
coedge $-1 $663 $458 $452 $562 forward $270 $-1 #
edge $-1 $575 -9.5892619771730452 $664 -1.2596981826355744 $561 $665 forward 7 unknown #
coedge $-1 $454 $453 $663 $666 reversed $256 $-1 #
coedge $-1 $667 $668 $453 $565 forward $669 $-1 #
edge $-1 $670 -75.025482955412457 $570 75.025482955412457 $564 $671 forward 7 unknown #
edge $-1 $571 -75.025482955412457 $664 75.025482955412457 $560 $672 forward 7 unknown #
coedge $-1 $673 $455 $662 $674 forward $569 $-1 #
coedge $-1 $455 $675 $667 $676 reversed $569 $-1 #
loop $-1 $-1 $567 $677 #
vertex $-1 $676 $678 #
vertex $-1 $456 $679 #
straight-curve $-1 75.025482955412457 13.686862195639758 6.6841782625398842 0 -1 0 I I #
coedge $-1 $457 $680 $673 $681 forward $155 $-1 #
edge $-1 $682 -75.025482955412457 $575 75.025482955412457 $457 $683 forward 7 unknown #
vertex $-1 $459 $684 #
coedge $-1 $464 $663 $668 $685 forward $270 $-1 #
coedge $-1 $686 $687 $464 $578 forward $688 $-1 #
edge $-1 $580 -32.401291294605464 $689 32.401291294605464 $464 $690 forward 7 unknown #
coedge $-1 $470 $465 $687 $691 reversed $471 $-1 #
vertex $-1 $578 $692 #
straight-curve $-1 -75.025482955412457 -32.401291294605464 0 0 0 -1 I I #
coedge $-1 $680 $467 $693 $694 forward $155 $-1 #
coedge $-1 $695 $696 $467 $584 reversed $660 $-1 #
edge $-1 $587 -37.589254523205859 $697 -31.957005000393089 $467 $698 forward 7 unknown #
coedge $-1 $699 $468 $470 $589 reversed $557 $-1 #
coedge $-1 $468 $699 $695 $700 reversed $557 $-1 #
vertex $-1 $469 $701 #
straight-curve $-1 -72.362384285005334 -11.29479878479415 15.013742057077355 0 1 0 I I #
edge $-1 $702 -15.013742057077355 $472 15.013742057077355 $470 $703 forward 7 unknown #
face $-1 $704 $471 $18 $-1 $705 reversed single #
point $-1 -72.362384285005334 -32.401291294605464 15.013742057077355 #
face $-1 $706 $489 $19 $-1 $707 reversed single #
loop $-1 $-1 $708 $475 #
plane-surface $-1 0 22.346157487953569 10.84896015980862 0 1 0 0 0 1 forward_v I I I I #
coedge $-1 $709 $710 $711 $712 reversed $476 $-1 #
coedge $-1 $478 $713 $714 $715 forward $376 $-1 #
coedge $-1 $714 $487 $479 $598 forward $489 $-1 #
edge $-1 $716 -52.125525192875898 $600 -40.798363426454202 $597 $717 forward 7 unknown #
edge $-1 $716 1.9785632286268914e-014 $601 16.306089604690218 $480 $718 forward 7 unknown #
vertex $-1 $598 $719 #
vertex $-1 $483 $720 #
straight-curve $-1 -89.629821822673279 3.8038772306969477 15.013742057077359 1 0 0 I I #
straight-curve $-1 -63.295863843373894 0.17183751742077646 15.013742057077353 0 -1 0 I I #
edge $-1 $485 -3.2883646784346183 $716 3.6320397132761713 $487 $721 forward 7 unknown #
point $-1 -75.025482955412457 -3.1165271610138419 3.6865802906556548 #
coedge $-1 $488 $722 $723 $724 reversed $489 $-1 #
coedge $-1 $725 $491 $726 $727 forward $376 $-1 #
coedge $-1 $723 $728 $491 $609 reversed $729 $-1 #
edge $-1 $610 -75.025482955412457 $730 -72.362384285005334 $608 $731 forward 7 unknown #
vertex $-1 $492 $732 #
straight-curve $-1 -75.025482955412457 0 15.013742057077355 0 -1 0 I I #
face $-1 $-1 $619 $16 $-1 $733 reversed single #
loop $-1 $-1 $624 $496 #
plane-surface $-1 0 32.401291294605464 0 0 -1 0 0 0 -1 forward_v I I I I #
coedge $-1 $501 $734 $499 $616 reversed $619 $-1 #
edge $-1 $504 -32.401291294605464 $626 32.401291294605464 $615 $735 forward 7 unknown #
coedge $-1 $734 $501 $500 $618 reversed $619 $-1 #
edge $-1 $630 -32.401291294605464 $503 32.401291294605464 $617 $736 forward 7 unknown #
loop $-1 $-1 $501 $612 #
straight-curve $-1 75.025482955412457 -32.401291294605464 0 0 0 -1 I I #
point $-1 75.025482955412457 -32.401291294605464 -15.013742057077355 #
point $-1 75.025482955412457 -32.401291294605464 15.013742057077355 #
straight-curve $-1 -75.025482955412457 -32.401291294605464 0 0 0 -1 I I #
coedge $-1 $513 $507 $734 $737 forward $613 $-1 #
coedge $-1 $507 $513 $509 $628 reversed $613 $-1 #
vertex $-1 $616 $738 #
straight-curve $-1 0 32.401291294605464 15.013742057077355 -1 0 0 I I #
edge $-1 $510 -15.013742057077355 $515 15.013742057077355 $625 $739 forward 7 unknown #
point $-1 -75.025482955412457 32.401291294605464 15.013742057077355 #
vertex $-1 $618 $740 #
straight-curve $-1 0 32.401291294605464 -15.013742057077355 1 0 0 I I #
point $-1 -75.025482955412457 32.401291294605464 -15.013742057077355 #
face $-1 $346 $535 $17 $-1 $520 reversed single #
plane-surface $-1 0 0 -15.013742057077355 0 0 1 1 0 0 forward_v I I I I #
coedge $-1 $521 $524 $553 $656 reversed $417 $-1 #
edge $-1 $542 -15.013742057077355 $657 15.013742057077355 $541 $741 forward 7 unknown #
edge $-1 $530 -37.589254523205859 $640 -31.957005000393089 $533 $742 forward 7 unknown #
coedge $-1 $528 $553 $523 $639 forward $446 $-1 #
edge $-1 $641 31.957005000393089 $531 37.589254523205859 $638 $743 forward 7 unknown #
vertex $-1 $637 $744 #
vertex $-1 $639 $745 #
straight-curve $-1 -66.730134762192563 -12.777903844571137 0 0 0 -1 I I #
edge $-1 $646 -15.013742057077355 $536 15.013742057077355 $534 $746 forward 7 unknown #
straight-curve $-1 -72.362384285005334 -11.29479878479415 15.013742057077355 0 1 0 I I #
coedge $-1 $544 $528 $546 $654 forward $446 $-1 #
vertex $-1 $654 $747 #
straight-curve $-1 -72.362384285005334 -11.29479878479415 -15.013742057077355 0 -1 0 I I #
point $-1 -72.362384285005334 -12.777903844571137 15.013742057077355 #
point $-1 -72.362384285005334 -12.777903844571137 -15.013742057077355 #
point $-1 -72.362384285005334 -32.401291294605464 15.013742057077355 #
straight-curve $-1 -66.730134762192563 -11.29479878479415 15.013742057077355 0 -1 0 I I #
point $-1 -66.730134762192563 -32.401291294605464 15.013742057077355 #
straight-curve $-1 -75.025482955412457 0 -15.013742057077355 0 1 0 I I #
edge $-1 $646 72.362384285005334 $547 75.025482955412457 $546 $658 forward 7 unknown #
point $-1 -75.025482955412457 -32.401291294605464 -15.013742057077355 #
edge $-1 $657 -21.106492509811314 $641 -1.483105059776987 $553 $748 forward 7 unknown #
vertex $-1 $636 $749 #
straight-curve $-1 0 -32.401291294605464 -15.013742057077355 -1 0 0 I I #
face $-1 $750 $751 $18 $-1 $752 forward single #
loop $-1 $-1 $696 $556 #
plane-surface $-1 -69.546259523598948 -12.777903844571137 0 0 -1 0 0 0 -1 forward_v I I I I #
coedge $-1 $560 $559 $567 $674 reversed $356 $-1 #
coedge $-1 $576 $561 $563 $666 forward $270 $-1 #
vertex $-1 $666 $753 #
straight-curve $-1 -75.025482955412457 22.346157487953569 5.4244800799043098 0 0 -1 I I #
edge $-1 $664 8.6592952923138107 $670 18.714429098965706 $663 $754 forward 7 unknown #
coedge $-1 $755 $564 $568 $676 forward $669 $-1 #
coedge $-1 $564 $755 $576 $685 reversed $669 $-1 #
loop $-1 $-1 $564 $704 #
vertex $-1 $685 $756 #
straight-curve $-1 0 32.401291294605464 6.6841782625398842 1 0 0 I I #
straight-curve $-1 0 22.346157487953569 6.6841782625398842 -1 0 0 I I #
coedge $-1 $757 $567 $573 $681 reversed $569 $-1 #
edge $-1 $571 1.2596981826355744 $682 9.5892619771730452 $567 $758 forward 7 unknown #
coedge $-1 $568 $757 $759 $760 reversed $569 $-1 #
edge $-1 $570 -6.6841782625398842 $761 15.013742057077355 $568 $762 forward 7 unknown #
face $-1 $-1 $569 $18 $-1 $763 reversed single #
point $-1 75.025482955412457 32.401291294605464 6.6841782625398842 #
point $-1 75.025482955412457 22.346157487953569 6.6841782625398842 #
coedge $-1 $573 $582 $764 $765 forward $155 $-1 #
edge $-1 $766 -32.401291294605464 $682 22.346157487953569 $673 $767 forward 7 unknown #
vertex $-1 $574 $768 #
straight-curve $-1 0 22.346157487953569 15.013742057077355 -1 0 0 I I #
point $-1 -75.025482955412457 22.346157487953569 15.013742057077355 #
edge $-1 $670 -6.6841782625398842 $689 15.013742057077355 $668 $769 forward 7 unknown #
coedge $-1 $759 $577 $755 $770 forward $688 $-1 #
coedge $-1 $577 $771 $579 $691 forward $688 $-1 #
loop $-1 $-1 $771 $772 #
vertex $-1 $770 $773 #
straight-curve $-1 -75.025482955412457 0 -15.013742057077355 0 1 0 I I #
edge $-1 $702 72.362384285005334 $580 75.025482955412457 $579 $774 forward 7 unknown #
point $-1 -75.025482955412457 -32.401291294605464 -15.013742057077355 #
coedge $-1 $775 $776 $582 $694 reversed $751 $-1 #
edge $-1 $697 1.483105059776987 $777 21.106492509811314 $582 $778 forward 7 unknown #
coedge $-1 $779 $583 $586 $700 forward $660 $-1 #
coedge $-1 $583 $779 $775 $780 reversed $660 $-1 #
vertex $-1 $584 $781 #
straight-curve $-1 -34.773129761799474 -12.777903844571137 15.013742057077355 1 0 0 I I #
coedge $-1 $586 $585 $771 $782 reversed $557 $-1 #
edge $-1 $587 -15.013742057077355 $783 15.013742057077355 $695 $784 forward 7 unknown #
point $-1 -72.362384285005334 -12.777903844571137 15.013742057077355 #
vertex $-1 $691 $785 #
straight-curve $-1 -72.362384285005334 -32.401291294605464 0 0 0 1 I I #
face $-1 $677 $669 $18 $-1 $786 reversed single #
plane-surface $-1 0 -32.401291294605464 0 0 1 0 0 0 1 forward_v I I I I #
face $-1 $787 $788 $19 $-1 $789 forward single #
plane-surface $-1 -75.025482955412457 0 0 1 0 0 0 0 -1 forward_v I I I I #
coedge $-1 $790 $791 $792 $793 reversed $593 $-1 #
coedge $-1 $794 $595 $795 $796 reversed $476 $-1 #
coedge $-1 $595 $794 $791 $797 reversed $476 $-1 #
coedge $-1 $798 $799 $595 $712 forward $800 $-1 #
edge $-1 $801 -18.714429098965706 $802 -8.6592952923138107 $711 $803 forward 7 unknown #
coedge $-1 $596 $804 $790 $805 forward $376 $-1 #
coedge $-1 $792 $597 $596 $715 reversed $489 $-1 #
edge $-1 $806 -22.346157487953569 $600 -3.8038772306969477 $714 $611 forward 7 unknown #
vertex $-1 $604 $807 #
straight-curve $-1 -75.025482955412457 3.8038772306969477 55.812105483531553 0 0 1 I I #
straight-curve $-1 -75.025482955412471 3.8038772306969477 3.6865802906556411 0.71933979245794832 0 0.69465837861970381 I I #
point $-1 -75.025482955412457 3.8038772306969477 15.013742057077355 #
point $-1 -63.295863843373901 3.8038772306969477 15.013742057077355 #
straight-curve $-1 -75.025482955412457 0.17183751742077646 3.6865802906556526 0 1 0 I I #
coedge $-1 $606 $808 $809 $810 reversed $489 $-1 #
coedge $-1 $811 $608 $606 $724 forward $729 $-1 #
edge $-1 $610 -15.013742057077355 $812 15.013742057077355 $606 $813 forward 7 unknown #
coedge $-1 $814 $607 $815 $816 forward $376 $-1 #
coedge $-1 $817 $818 $607 $727 reversed $788 $-1 #
edge $-1 $730 -21.106492509811314 $819 -1.483105059776987 $607 $820 forward 7 unknown #
coedge $-1 $608 $811 $817 $821 forward $729 $-1 #
loop $-1 $-1 $728 $822 #
vertex $-1 $821 $823 #
straight-curve $-1 0 -32.401291294605464 15.013742057077355 1 0 0 I I #
point $-1 -75.025482955412457 -32.401291294605464 15.013742057077355 #
plane-surface $-1 75.025482955412457 0 0 -1 0 0 0 0 1 forward_v I I I I #
coedge $-1 $615 $617 $624 $737 reversed $619 $-1 #
straight-curve $-1 75.025482955412457 0 15.013742057077355 0 1 0 I I #
straight-curve $-1 75.025482955412457 0 -15.013742057077355 0 -1 0 I I #
edge $-1 $626 -15.013742057077355 $630 15.013742057077355 $734 $824 forward 7 unknown #
point $-1 75.025482955412457 32.401291294605464 15.013742057077355 #
straight-curve $-1 -75.025482955412457 32.401291294605464 0 0 0 -1 I I #
point $-1 75.025482955412457 32.401291294605464 -15.013742057077355 #
straight-curve $-1 -66.730134762192563 -32.401291294605464 0 0 0 -1 I I #
straight-curve $-1 -34.773129761799474 -12.777903844571137 15.013742057077355 1 0 0 I I #
straight-curve $-1 -34.773129761799474 -12.777903844571137 -15.013742057077355 -1 0 0 I I #
point $-1 -66.730134762192563 -12.777903844571137 15.013742057077355 #
point $-1 -66.730134762192563 -12.777903844571137 -15.013742057077355 #
straight-curve $-1 -72.362384285005334 -32.401291294605464 0 0 0 1 I I #
point $-1 -72.362384285005334 -32.401291294605464 -15.013742057077355 #
straight-curve $-1 -66.730134762192563 -11.29479878479415 -15.013742057077355 0 1 0 I I #
point $-1 -66.730134762192563 -32.401291294605464 -15.013742057077355 #
face $-1 $772 $825 $18 $-1 $705 reversed single #
loop $-1 $-1 $776 $659 #
plane-surface $-1 -66.730134762192563 -22.5895975695883 0 -1 0 0 0 0 1 forward_v I I I I #
point $-1 -75.025482955412457 22.346157487953569 6.6841782625398842 #
straight-curve $-1 -75.025482955412457 13.686862195639758 6.6841782625398842 0 1 0 I I #
coedge $-1 $668 $667 $686 $770 reversed $669 $-1 #
point $-1 -75.025482955412457 32.401291294605464 6.6841782625398842 #
coedge $-1 $675 $673 $826 $827 forward $569 $-1 #
straight-curve $-1 75.025482955412457 22.346157487953569 5.4244800799043098 0 0 1 I I #
coedge $-1 $828 $686 $675 $760 forward $688 $-1 #
edge $-1 $761 -32.401291294605464 $829 32.401291294605464 $675 $830 forward 7 unknown #
vertex $-1 $760 $831 #
straight-curve $-1 75.025482955412457 32.401291294605464 0 0 0 -1 I I #
plane-surface $-1 75.025482955412457 0 0 -1 0 0 0 0 1 forward_v I I I I #
coedge $-1 $832 $826 $680 $765 reversed $825 $-1 #
edge $-1 $777 -66.730134762192563 $766 75.025482955412457 $764 $473 forward 7 unknown #
vertex $-1 $681 $833 #
straight-curve $-1 75.025482955412457 0 15.013742057077355 0 1 0 I I #
point $-1 75.025482955412457 22.346157487953569 15.013742057077355 #
straight-curve $-1 -75.025482955412457 32.401291294605464 0 0 0 -1 I I #
edge $-1 $689 -75.025482955412457 $761 75.025482955412457 $755 $834 forward 7 unknown #
coedge $-1 $687 $835 $699 $782 forward $688 $-1 #
face $-1 $590 $688 $18 $-1 $836 reversed single #
point $-1 -75.025482955412457 32.401291294605464 -15.013742057077355 #
straight-curve $-1 0 -32.401291294605464 -15.013742057077355 -1 0 0 I I #
coedge $-1 $837 $693 $696 $780 forward $751 $-1 #
coedge $-1 $693 $837 $832 $838 reversed $751 $-1 #
vertex $-1 $765 $839 #
straight-curve $-1 -66.730134762192563 -11.29479878479415 15.013742057077355 0 -1 0 I I #
coedge $-1 $696 $695 $835 $840 reversed $660 $-1 #
edge $-1 $697 -15.013742057077355 $841 15.013742057077355 $775 $842 forward 7 unknown #
point $-1 -66.730134762192563 -12.777903844571137 15.013742057077355 #
edge $-1 $783 1.483105059776987 $702 21.106492509811314 $771 $843 forward 7 unknown #
vertex $-1 $782 $844 #
straight-curve $-1 -72.362384285005334 -12.777903844571137 0 0 0 -1 I I #
point $-1 -72.362384285005334 -32.401291294605464 -15.013742057077355 #
plane-surface $-1 0 32.401291294605464 0 0 -1 0 0 0 -1 forward_v I I I I #
face $-1 $845 $846 $19 $-1 $847 forward single #
loop $-1 $-1 $818 $706 #
plane-surface $-1 -72.362384285005334 -22.5895975695883 0 1 0 0 0 0 -1 forward_v I I I I #
coedge $-1 $848 $708 $713 $805 reversed $593 $-1 #
coedge $-1 $708 $848 $710 $797 forward $593 $-1 #
coedge $-1 $849 $714 $708 $793 forward $489 $-1 #
edge $-1 $806 -9.5892619771730452 $850 -1.2596981826355744 $792 $851 forward 7 unknown #
coedge $-1 $710 $709 $849 $852 reversed $476 $-1 #
coedge $-1 $853 $854 $709 $796 forward $855 $-1 #
edge $-1 $856 -75.025482955412457 $801 75.025482955412457 $795 $857 forward 7 unknown #
edge $-1 $802 -75.025482955412457 $850 75.025482955412457 $791 $858 forward 7 unknown #
coedge $-1 $859 $711 $848 $860 forward $800 $-1 #
coedge $-1 $711 $861 $853 $862 reversed $800 $-1 #
loop $-1 $-1 $798 $863 #
vertex $-1 $862 $864 #
vertex $-1 $712 $865 #
straight-curve $-1 75.025482955412457 13.686862195639758 6.6841782625398842 0 -1 0 I I #
coedge $-1 $713 $866 $859 $867 forward $376 $-1 #
edge $-1 $868 -75.025482955412457 $806 75.025482955412457 $713 $869 forward 7 unknown #
vertex $-1 $715 $870 #
point $-1 -75.025482955412457 3.8038772306969477 3.6865802906556548 #
coedge $-1 $722 $849 $854 $871 forward $489 $-1 #
coedge $-1 $872 $873 $722 $810 forward $874 $-1 #
edge $-1 $812 -32.401291294605464 $875 32.401291294605464 $722 $876 forward 7 unknown #
coedge $-1 $728 $723 $873 $877 reversed $729 $-1 #
vertex $-1 $810 $878 #
straight-curve $-1 -75.025482955412457 -32.401291294605464 0 0 0 -1 I I #
coedge $-1 $866 $725 $879 $880 forward $376 $-1 #
coedge $-1 $881 $882 $725 $816 reversed $846 $-1 #
edge $-1 $819 -37.589254523205859 $883 -31.957005000393089 $725 $884 forward 7 unknown #
coedge $-1 $885 $726 $728 $821 reversed $788 $-1 #
coedge $-1 $726 $885 $881 $886 reversed $788 $-1 #
vertex $-1 $727 $887 #
straight-curve $-1 -72.362384285005334 -11.29479878479415 15.013742057077355 0 1 0 I I #
edge $-1 $888 -15.013742057077355 $730 15.013742057077355 $728 $889 forward 7 unknown #
face $-1 $890 $729 $19 $-1 $891 reversed single #
point $-1 -72.362384285005334 -32.401291294605464 15.013742057077355 #
straight-curve $-1 75.025482955412457 32.401291294605464 0 0 0 -1 I I #
loop $-1 $-1 $832 $750 #
coedge $-1 $764 $892 $757 $827 reversed $825 $-1 #
edge $-1 $766 -15.013742057077355 $829 15.013742057077355 $757 $893 forward 7 unknown #
coedge $-1 $894 $759 $892 $895 forward $688 $-1 #
vertex $-1 $827 $896 #
straight-curve $-1 75.025482955412457 0 -15.013742057077355 0 -1 0 I I #
point $-1 75.025482955412457 32.401291294605464 -15.013742057077355 #
coedge $-1 $892 $764 $776 $838 forward $825 $-1 #
point $-1 75.025482955412457 -32.401291294605464 15.013742057077355 #
straight-curve $-1 0 32.401291294605464 -15.013742057077355 1 0 0 I I #
coedge $-1 $771 $894 $779 $840 forward $688 $-1 #
plane-surface $-1 0 0 -15.013742057077355 0 0 1 1 0 0 forward_v I I I I #
coedge $-1 $776 $775 $894 $897 reversed $751 $-1 #
edge $-1 $777 -15.013742057077355 $898 15.013742057077355 $832 $899 forward 7 unknown #
point $-1 -66.730134762192563 -32.401291294605464 15.013742057077355 #
edge $-1 $841 31.957005000393089 $783 37.589254523205859 $835 $900 forward 7 unknown #
vertex $-1 $840 $901 #
straight-curve $-1 -66.730134762192563 -12.777903844571137 0 0 0 -1 I I #
straight-curve $-1 -72.362384285005334 -11.29479878479415 -15.013742057077355 0 -1 0 I I #
point $-1 -72.362384285005334 -12.777903844571137 -15.013742057077355 #
face $-1 $902 $903 $19 $-1 $904 forward single #
loop $-1 $-1 $882 $787 #
plane-surface $-1 -69.546259523598948 -12.777903844571137 0 0 -1 0 0 0 -1 forward_v I I I I #
coedge $-1 $791 $790 $798 $860 reversed $593 $-1 #
coedge $-1 $808 $792 $794 $852 forward $489 $-1 #
vertex $-1 $852 $905 #
straight-curve $-1 -75.025482955412457 22.346157487953569 5.4244800799043098 0 0 -1 I I #
edge $-1 $850 8.6592952923138107 $856 18.714429098965706 $849 $906 forward 7 unknown #
coedge $-1 $907 $795 $799 $862 forward $855 $-1 #
coedge $-1 $795 $907 $808 $871 reversed $855 $-1 #
loop $-1 $-1 $795 $890 #
vertex $-1 $871 $908 #
straight-curve $-1 0 32.401291294605464 6.6841782625398842 1 0 0 I I #
straight-curve $-1 0 22.346157487953569 6.6841782625398842 -1 0 0 I I #
coedge $-1 $909 $798 $804 $867 reversed $800 $-1 #
edge $-1 $802 1.2596981826355744 $868 9.5892619771730452 $798 $910 forward 7 unknown #
coedge $-1 $799 $909 $911 $912 reversed $800 $-1 #
edge $-1 $801 -6.6841782625398842 $913 15.013742057077355 $799 $914 forward 7 unknown #
face $-1 $-1 $800 $19 $-1 $915 reversed single #
point $-1 75.025482955412457 32.401291294605464 6.6841782625398842 #
point $-1 75.025482955412457 22.346157487953569 6.6841782625398842 #
coedge $-1 $804 $814 $916 $917 forward $376 $-1 #
edge $-1 $918 -32.401291294605464 $868 22.346157487953569 $859 $919 forward 7 unknown #
vertex $-1 $805 $920 #
straight-curve $-1 0 22.346157487953569 15.013742057077355 -1 0 0 I I #
point $-1 -75.025482955412457 22.346157487953569 15.013742057077355 #
edge $-1 $856 -6.6841782625398842 $875 15.013742057077355 $854 $921 forward 7 unknown #
coedge $-1 $911 $809 $907 $922 forward $874 $-1 #
coedge $-1 $809 $923 $811 $877 forward $874 $-1 #
loop $-1 $-1 $923 $924 #
vertex $-1 $922 $925 #
straight-curve $-1 -75.025482955412457 0 -15.013742057077355 0 1 0 I I #
edge $-1 $888 72.362384285005334 $812 75.025482955412457 $811 $926 forward 7 unknown #
point $-1 -75.025482955412457 -32.401291294605464 -15.013742057077355 #
coedge $-1 $927 $928 $814 $880 reversed $903 $-1 #
edge $-1 $883 1.483105059776987 $929 21.106492509811314 $814 $930 forward 7 unknown #
coedge $-1 $931 $815 $818 $886 forward $846 $-1 #
coedge $-1 $815 $931 $927 $932 reversed $846 $-1 #
vertex $-1 $816 $933 #
straight-curve $-1 -34.773129761799474 -12.777903844571137 15.013742057077355 1 0 0 I I #
coedge $-1 $818 $817 $923 $934 reversed $788 $-1 #
edge $-1 $819 -15.013742057077355 $935 15.013742057077355 $881 $936 forward 7 unknown #
point $-1 -72.362384285005334 -12.777903844571137 15.013742057077355 #
vertex $-1 $877 $937 #
straight-curve $-1 -72.362384285005334 -32.401291294605464 0 0 0 1 I I #
face $-1 $863 $855 $19 $-1 $938 reversed single #
plane-surface $-1 0 -32.401291294605464 0 0 1 0 0 0 1 forward_v I I I I #
coedge $-1 $826 $832 $828 $895 reversed $825 $-1 #
straight-curve $-1 75.025482955412457 -32.401291294605464 0 0 0 -1 I I #
coedge $-1 $835 $828 $837 $897 forward $688 $-1 #
edge $-1 $829 -75.025482955412457 $898 66.730134762192563 $892 $774 forward 7 unknown #
point $-1 75.025482955412457 -32.401291294605464 -15.013742057077355 #
edge $-1 $898 -21.106492509811314 $841 -1.483105059776987 $894 $939 forward 7 unknown #
vertex $-1 $838 $940 #
straight-curve $-1 -66.730134762192563 -32.401291294605464 0 0 0 -1 I I #
straight-curve $-1 -34.773129761799474 -12.777903844571137 -15.013742057077355 -1 0 0 I I #
point $-1 -66.730134762192563 -12.777903844571137 -15.013742057077355 #
face $-1 $924 $941 $19 $-1 $891 reversed single #
loop $-1 $-1 $928 $845 #
plane-surface $-1 -66.730134762192563 -22.5895975695883 0 -1 0 0 0 0 1 forward_v I I I I #
point $-1 -75.025482955412457 22.346157487953569 6.6841782625398842 #
straight-curve $-1 -75.025482955412457 13.686862195639758 6.6841782625398842 0 1 0 I I #
coedge $-1 $854 $853 $872 $922 reversed $855 $-1 #
point $-1 -75.025482955412457 32.401291294605464 6.6841782625398842 #
coedge $-1 $861 $859 $942 $943 forward $800 $-1 #
straight-curve $-1 75.025482955412457 22.346157487953569 5.4244800799043098 0 0 1 I I #
coedge $-1 $944 $872 $861 $912 forward $874 $-1 #
edge $-1 $913 -32.401291294605464 $945 32.401291294605464 $861 $946 forward 7 unknown #
vertex $-1 $912 $947 #
straight-curve $-1 75.025482955412457 32.401291294605464 0 0 0 -1 I I #
plane-surface $-1 75.025482955412457 0 0 -1 0 0 0 0 1 forward_v I I I I #
coedge $-1 $948 $942 $866 $917 reversed $941 $-1 #
edge $-1 $929 -66.730134762192563 $918 75.025482955412457 $916 $731 forward 7 unknown #
vertex $-1 $867 $949 #
straight-curve $-1 75.025482955412457 0 15.013742057077355 0 1 0 I I #
point $-1 75.025482955412457 22.346157487953569 15.013742057077355 #
straight-curve $-1 -75.025482955412457 32.401291294605464 0 0 0 -1 I I #
edge $-1 $875 -75.025482955412457 $913 75.025482955412457 $907 $950 forward 7 unknown #
coedge $-1 $873 $951 $885 $934 forward $874 $-1 #
face $-1 $822 $874 $19 $-1 $952 reversed single #
point $-1 -75.025482955412457 32.401291294605464 -15.013742057077355 #
straight-curve $-1 0 -32.401291294605464 -15.013742057077355 -1 0 0 I I #
coedge $-1 $953 $879 $882 $932 forward $903 $-1 #
coedge $-1 $879 $953 $948 $954 reversed $903 $-1 #
vertex $-1 $917 $955 #
straight-curve $-1 -66.730134762192563 -11.29479878479415 15.013742057077355 0 -1 0 I I #
coedge $-1 $882 $881 $951 $956 reversed $846 $-1 #
edge $-1 $883 -15.013742057077355 $957 15.013742057077355 $927 $958 forward 7 unknown #
point $-1 -66.730134762192563 -12.777903844571137 15.013742057077355 #
edge $-1 $935 1.483105059776987 $888 21.106492509811314 $923 $959 forward 7 unknown #
vertex $-1 $934 $960 #
straight-curve $-1 -72.362384285005334 -12.777903844571137 0 0 0 -1 I I #
point $-1 -72.362384285005334 -32.401291294605464 -15.013742057077355 #
plane-surface $-1 0 32.401291294605464 0 0 -1 0 0 0 -1 forward_v I I I I #
straight-curve $-1 -66.730134762192563 -11.29479878479415 -15.013742057077355 0 1 0 I I #
point $-1 -66.730134762192563 -32.401291294605464 -15.013742057077355 #
loop $-1 $-1 $948 $902 #
coedge $-1 $916 $961 $909 $943 reversed $941 $-1 #
edge $-1 $918 -15.013742057077355 $945 15.013742057077355 $909 $962 forward 7 unknown #
coedge $-1 $963 $911 $961 $964 forward $874 $-1 #
vertex $-1 $943 $965 #
straight-curve $-1 75.025482955412457 0 -15.013742057077355 0 -1 0 I I #
point $-1 75.025482955412457 32.401291294605464 -15.013742057077355 #
coedge $-1 $961 $916 $928 $954 forward $941 $-1 #
point $-1 75.025482955412457 -32.401291294605464 15.013742057077355 #
straight-curve $-1 0 32.401291294605464 -15.013742057077355 1 0 0 I I #
coedge $-1 $923 $963 $931 $956 forward $874 $-1 #
plane-surface $-1 0 0 -15.013742057077355 0 0 1 1 0 0 forward_v I I I I #
coedge $-1 $928 $927 $963 $966 reversed $903 $-1 #
edge $-1 $929 -15.013742057077355 $967 15.013742057077355 $948 $968 forward 7 unknown #
point $-1 -66.730134762192563 -32.401291294605464 15.013742057077355 #
edge $-1 $957 31.957005000393089 $935 37.589254523205859 $951 $969 forward 7 unknown #
vertex $-1 $956 $970 #
straight-curve $-1 -66.730134762192563 -12.777903844571137 0 0 0 -1 I I #
straight-curve $-1 -72.362384285005334 -11.29479878479415 -15.013742057077355 0 -1 0 I I #
point $-1 -72.362384285005334 -12.777903844571137 -15.013742057077355 #
coedge $-1 $942 $948 $944 $964 reversed $941 $-1 #
straight-curve $-1 75.025482955412457 -32.401291294605464 0 0 0 -1 I I #
coedge $-1 $951 $944 $953 $966 forward $874 $-1 #
edge $-1 $945 -75.025482955412457 $967 66.730134762192563 $961 $926 forward 7 unknown #
point $-1 75.025482955412457 -32.401291294605464 -15.013742057077355 #
edge $-1 $967 -21.106492509811314 $957 -1.483105059776987 $963 $971 forward 7 unknown #
vertex $-1 $954 $972 #
straight-curve $-1 -66.730134762192563 -32.401291294605464 0 0 0 -1 I I #
straight-curve $-1 -34.773129761799474 -12.777903844571137 -15.013742057077355 -1 0 0 I I #
point $-1 -66.730134762192563 -12.777903844571137 -15.013742057077355 #
straight-curve $-1 -66.730134762192563 -11.29479878479415 -15.013742057077355 0 1 0 I I #
point $-1 -66.730134762192563 -32.401291294605464 -15.013742057077355 #
End-of-ACIS-data 