500 0 7 0           
7 Unknown 11 ACIS 5.0 NT 24 Fri Mar 26 16:33:17 1999 
-1 9.9999999999999995e-007 1e-010 
body $-1 $7 $-1 $8 #
body $-1 $9 $-1 $10 #
body $-1 $11 $-1 $12 #
body $-1 $13 $-1 $14 #
body $-1 $15 $-1 $16 #
body $-1 $17 $-1 $18 #
body $-1 $19 $-1 $20 #
lump $-1 $-1 $21 $0 #
transform $-1 1 0 0 0 1 0 0 0 1 57.394329660939363 35.602806014839729 7.9641544092401579 1 rotate no_reflect no_shear #
lump $-1 $-1 $22 $1 #
transform $-1 1 0 0 0 1 0 0 0 1 57.394329660939363 35.602806014839729 7.9641544092401579 1 rotate no_reflect no_shear #
lump $-1 $-1 $23 $2 #
transform $-1 1 0 0 0 1 0 0 0 1 57.394329660939363 35.602806014839729 7.9641544092401579 1 rotate no_reflect no_shear #
lump $-1 $-1 $24 $3 #
transform $-1 1 0 0 0 1 0 0 0 1 57.394329660939363 35.602806014839729 7.9641544092401579 1 rotate no_reflect no_shear #
lump $-1 $-1 $25 $4 #
transform $-1 1 0 0 0 1 0 0 0 1 57.394329660939363 35.602806014839729 7.9641544092401579 1 rotate no_reflect no_shear #
lump $-1 $-1 $26 $5 #
transform $-1 1 0 0 0 1 0 0 0 1 57.394329660939363 35.602806014839729 7.9641544092401579 1 rotate no_reflect no_shear #
lump $-1 $-1 $27 $6 #
transform $-1 1 0 0 0 1 0 0 0 1 57.394329660939363 35.602806014839729 7.9641544092401579 1 rotate no_reflect no_shear #
shell $-1 $-1 $-1 $28 $-1 $7 #
shell $-1 $-1 $-1 $29 $-1 $9 #
shell $-1 $-1 $-1 $30 $-1 $11 #
shell $-1 $-1 $-1 $31 $-1 $13 #
shell $-1 $-1 $-1 $32 $-1 $15 #
shell $-1 $-1 $-1 $33 $-1 $17 #
shell $-1 $-1 $-1 $34 $-1 $19 #
face $-1 $35 $36 $21 $-1 $37 forward single #
face $-1 $38 $39 $22 $-1 $40 reversed single #
face $-1 $41 $42 $23 $-1 $43 reversed single #
face $-1 $44 $45 $24 $-1 $46 reversed single #
face $-1 $47 $48 $25 $-1 $49 forward single #
face $-1 $50 $51 $26 $-1 $52 reversed single #
face $-1 $53 $54 $27 $-1 $55 forward single #
face $-1 $56 $57 $21 $-1 $58 reversed single #
loop $-1 $-1 $59 $28 #
plane-surface $-1 0 0 7.9641544092401579 0 0 1 1 0 0 forward_v I I I I #
face $-1 $60 $61 $22 $-1 $62 reversed single #
loop $-1 $-1 $63 $29 #
plane-surface $-1 -49.340337587197013 0 5.673053340853655 -1 0 0 0 0 1 forward_v I I I I #
face $-1 $64 $65 $23 $-1 $66 reversed single #
loop $-1 $-1 $67 $30 #
plane-surface $-1 53.367333624068195 0 3.3819522724671538 0 0 1 1 0 0 forward_v I I I I #
face $-1 $68 $69 $24 $-1 $70 reversed single #
loop $-1 $-1 $71 $31 #
plane-surface $-1 -36.513837462025258 -9.2083368649619928 58.649671155409521 0 0.77714596973225614 0.62932038083071107 1 0 0 forward_v I I I I #
face $-1 $72 $73 $25 $-1 $74 forward single #
loop $-1 $75 $76 $32 #
cone-surface $-1 -36.513837462025258 32.446758402631346 4.6077747181005098 0 -0.77714596973225614 -0.62932038083071107 1 0 0 1 I I 0 1 1 forward I I I I #
face $-1 $77 $78 $26 $-1 $79 reversed single #
loop $-1 $-1 $80 $33 #
plane-surface $-1 -23.687337336853503 -124.81034997780675 75.551359543716941 -1 0 0 0 -0.77714596973225614 0.62932038083071107 forward_v I I I I #
face $-1 $81 $82 $27 $-1 $83 forward single #
loop $-1 $84 $85 $34 #
cone-surface $-1 -36.513837462025258 -32.446758402631353 4.6077747181005098 0 0.77714596973225614 -0.62932038083071107 1 0 0 1 I I 0 1 1 forward I I I I #
face $-1 $86 $87 $21 $-1 $88 reversed single #
loop $-1 $-1 $89 $35 #
plane-surface $-1 0 0 -7.9641544092401579 0 0 1 1 0 0 forward_v I I I I #
coedge $-1 $90 $91 $92 $93 forward $36 $-1 #
face $-1 $94 $95 $22 $-1 $96 reversed single #
loop $-1 $-1 $97 $38 #
plane-surface $-1 -53.367333624068188 0 3.3819522724671538 0 0 1 1 0 0 forward_v I I I I #
coedge $-1 $98 $99 $97 $100 reversed $39 $-1 #
face $-1 $101 $102 $23 $-1 $103 forward single #
loop $-1 $-1 $104 $41 #
plane-surface $-1 49.34033758719702 0 5.673053340853655 1 0 0 0 0 -1 forward_v I I I I #
coedge $-1 $105 $106 $107 $108 reversed $42 $-1 #
face $-1 $109 $110 $24 $-1 $111 reversed single #
loop $-1 $-1 $112 $44 #
plane-surface $-1 -23.687337336853503 79.99920709800503 130.88851395490099 -1 0 0 0 0.77714596973225614 0.62932038083071107 forward_v I I I I #
coedge $-1 $113 $114 $115 $116 reversed $45 $-1 #
face $-1 $-1 $117 $25 $-1 $118 forward single #
loop $-1 $119 $120 $47 #
cone-surface $-1 -36.513837462025258 30.785548709586919 3.26255366905285 0 -0.77714596973225614 -0.62932038083071107 0.5 0 0 1 I I -0.70710678118654779 0.70710678118654713 0.5 forward I I I I #
loop $-1 $-1 $121 $32 #
coedge $-1 $76 $76 $122 $123 reversed $48 $-1 #
face $-1 $124 $125 $26 $-1 $126 forward single #
loop $-1 $-1 $127 $50 #
plane-surface $-1 -36.513837462025258 -35.602806014839729 3.3125167442254764 0 -0.77714596973225614 0.62932038083071107 1 0 0 forward_v I I I I #
coedge $-1 $128 $129 $130 $131 reversed $51 $-1 #
face $-1 $-1 $132 $27 $-1 $133 forward single #
loop $-1 $134 $135 $53 #
cone-surface $-1 -36.513837462025258 -30.785548709586926 3.26255366905285 0 0.77714596973225614 -0.62932038083071107 0.5 0 0 1 I I -0.70710678118654779 0.70710678118654713 0.5 forward I I I I #
loop $-1 $-1 $136 $34 #
coedge $-1 $85 $85 $137 $138 reversed $54 $-1 #
face $-1 $139 $140 $21 $-1 $141 reversed single #
loop $-1 $-1 $142 $56 #
plane-surface $-1 0 -35.602806014839729 0 0 1 0 0 0 1 forward_v I I I I #
coedge $-1 $143 $144 $145 $146 forward $57 $-1 #
coedge $-1 $147 $59 $148 $149 forward $36 $-1 #
coedge $-1 $59 $147 $150 $151 forward $36 $-1 #
coedge $-1 $152 $153 $59 $93 reversed $154 $-1 #
edge $-1 $155 -35.602806014839729 $156 35.602806014839729 $92 $157 forward 7 unknown #
face $-1 $158 $159 $22 $-1 $160 reversed single #
loop $-1 $-1 $161 $60 #
plane-surface $-1 0 35.602806014839729 0 0 -1 0 0 0 -1 forward_v I I I I #
coedge $-1 $162 $163 $63 $100 forward $61 $-1 #
coedge $-1 $164 $63 $161 $165 reversed $39 $-1 #
coedge $-1 $63 $164 $166 $167 reversed $39 $-1 #
edge $-1 $168 -35.602806014839729 $169 35.602806014839729 $63 $170 forward 7 unknown #
face $-1 $171 $172 $23 $-1 $173 reversed single #
loop $-1 $-1 $174 $64 #
plane-surface $-1 0 0 7.9641544092401579 0 0 1 1 0 0 forward_v I I I I #
coedge $-1 $175 $176 $177 $178 reversed $65 $-1 #
coedge $-1 $179 $67 $180 $181 reversed $42 $-1 #
coedge $-1 $67 $179 $182 $183 reversed $42 $-1 #
coedge $-1 $184 $185 $67 $108 forward $186 $-1 #
edge $-1 $187 -35.602806014839729 $188 35.602806014839729 $107 $189 forward 7 unknown #
face $-1 $190 $191 $24 $-1 $192 forward single #
loop $-1 $-1 $193 $68 #
plane-surface $-1 0 35.602806014839729 0 0 -1 0 0 0 -1 forward_v I I I I #
coedge $-1 $194 $195 $196 $197 reversed $69 $-1 #
coedge $-1 $198 $71 $199 $200 reversed $45 $-1 #
coedge $-1 $71 $198 $194 $201 forward $45 $-1 #
coedge $-1 $196 $202 $71 $116 forward $191 $-1 #
edge $-1 $203 -31.083418856184384 $204 -5.4304186058408739 $115 $205 forward 7 unknown #
loop $-1 $-1 $122 $72 #
plane-surface $-1 -36.513837462025258 -9.2083368649619928 58.649671155409521 0 0.77714596973225614 0.62932038083071107 1 0 0 forward_v I I I I #
loop $-1 $-1 $206 $47 #
coedge $-1 $120 $120 $121 $207 reversed $73 $-1 #
coedge $-1 $121 $121 $120 $207 forward $75 $-1 #
coedge $-1 $122 $122 $76 $123 forward $117 $-1 #
edge $-1 $208 -6.602491500234327e-016 $208 6.2831853071795996 $122 $209 forward 7 unknown #
face $-1 $210 $211 $26 $-1 $212 forward single #
loop $-1 $-1 $130 $77 #
plane-surface $-1 0 0 7.9641544092401579 0 0 1 1 0 0 forward_v I I I I #
coedge $-1 $213 $214 $215 $216 reversed $78 $-1 #
coedge $-1 $129 $80 $217 $218 reversed $51 $-1 #
coedge $-1 $80 $128 $213 $219 reversed $51 $-1 #
coedge $-1 $215 $220 $80 $131 forward $125 $-1 #
edge $-1 $221 26.802368974063647 $222 30.569190782123801 $130 $223 forward 7 unknown #
loop $-1 $-1 $137 $81 #
plane-surface $-1 -36.513837462025258 -35.602806014839729 3.3125167442254764 0 -0.77714596973225614 0.62932038083071107 1 0 0 forward_v I I I I #
loop $-1 $-1 $224 $53 #
coedge $-1 $135 $135 $136 $225 reversed $82 $-1 #
coedge $-1 $136 $136 $135 $225 forward $84 $-1 #
coedge $-1 $137 $137 $85 $138 forward $132 $-1 #
edge $-1 $226 -1.380488558546233e-015 $226 6.2831853071795987 $137 $227 forward 7 unknown #
face $-1 $228 $229 $21 $-1 $230 reversed single #
loop $-1 $-1 $231 $86 #
plane-surface $-1 -57.394329660939363 0 0 1 0 0 0 0 -1 forward_v I I I I #
coedge $-1 $232 $150 $233 $234 forward $87 $-1 #
coedge $-1 $235 $89 $232 $236 forward $57 $-1 #
coedge $-1 $89 $235 $237 $238 forward $57 $-1 #
coedge $-1 $153 $152 $89 $146 reversed $154 $-1 #
edge $-1 $239 -35.602806014839729 $240 35.602806014839729 $145 $241 forward 7 unknown #
coedge $-1 $91 $90 $242 $243 forward $36 $-1 #
coedge $-1 $244 $245 $90 $149 reversed $229 $-1 #
edge $-1 $156 -57.394329660939363 $246 57.394329660939363 $148 $247 forward 7 unknown #
coedge $-1 $142 $248 $91 $151 reversed $87 $-1 #
edge $-1 $249 -57.394329660939363 $155 57.394329660939363 $150 $250 forward 7 unknown #
coedge $-1 $145 $92 $248 $251 forward $154 $-1 #
coedge $-1 $92 $145 $244 $252 reversed $154 $-1 #
loop $-1 $-1 $152 $228 #
vertex $-1 $93 $253 #
vertex $-1 $93 $254 #
straight-curve $-1 57.394329660939363 0 7.9641544092401579 0 1 0 I I #
face $-1 $255 $256 $22 $-1 $257 forward single #
loop $-1 $-1 $258 $94 #
plane-surface $-1 -57.394329660939363 0 0 1 0 0 0 0 -1 forward_v I I I I #
coedge $-1 $259 $260 $98 $165 forward $95 $-1 #
coedge $-1 $261 $97 $262 $263 reversed $61 $-1 #
coedge $-1 $97 $261 $259 $264 reversed $61 $-1 #
coedge $-1 $99 $98 $265 $266 reversed $39 $-1 #
edge $-1 $267 -5.1276277388133291 $168 -0.54542560204032631 $161 $268 forward 7 unknown #
coedge $-1 $269 $262 $99 $167 forward $270 $-1 #
edge $-1 $169 0.54542560204032631 $271 5.1276277388133291 $166 $272 forward 7 unknown #
vertex $-1 $264 $273 #
vertex $-1 $263 $274 #
straight-curve $-1 -49.340337587197013 0 3.3819522724671538 0 -1 0 I I #
face $-1 $275 $276 $23 $-1 $277 reversed single #
loop $-1 $-1 $278 $101 #
plane-surface $-1 0 -35.602806014839729 0 0 1 0 0 0 1 forward_v I I I I #
coedge $-1 $279 $280 $176 $281 forward $102 $-1 #
coedge $-1 $282 $104 $179 $283 reversed $65 $-1 #
coedge $-1 $104 $282 $174 $281 reversed $65 $-1 #
coedge $-1 $284 $182 $104 $178 forward $276 $-1 #
edge $-1 $285 0.54542560204032631 $286 5.1276277388133291 $177 $287 forward 7 unknown #
coedge $-1 $106 $105 $175 $283 forward $42 $-1 #
coedge $-1 $288 $278 $105 $181 forward $172 $-1 #
edge $-1 $289 22.656670775162922 $187 30.710662848905272 $180 $290 forward 7 unknown #
coedge $-1 $177 $291 $106 $183 forward $276 $-1 #
edge $-1 $188 -30.710662848905272 $285 -22.656670775162922 $182 $292 forward 7 unknown #
coedge $-1 $293 $107 $291 $294 reversed $186 $-1 #
coedge $-1 $107 $293 $288 $295 forward $186 $-1 #
loop $-1 $-1 $107 $275 #
vertex $-1 $181 $296 #
vertex $-1 $108 $297 #
straight-curve $-1 57.394329660939363 0 3.3819522724671538 0 1 0 I I #
face $-1 $-1 $298 $24 $-1 $299 forward single #
loop $-1 $-1 $196 $109 #
plane-surface $-1 0 0 7.9641544092401579 0 0 1 1 0 0 forward_v I I I I #
coedge $-1 $300 $301 $195 $302 forward $110 $-1 #
coedge $-1 $195 $112 $114 $201 reversed $69 $-1 #
coedge $-1 $112 $194 $193 $302 reversed $69 $-1 #
coedge $-1 $303 $115 $112 $197 forward $191 $-1 #
edge $-1 $204 -8.1636193422229226 $304 -4.3967975341627863 $196 $305 forward 7 unknown #
coedge $-1 $114 $113 $300 $306 reversed $45 $-1 #
coedge $-1 $307 $308 $113 $200 forward $298 $-1 #
edge $-1 $309 -47.722832486027684 $203 -41.737293287236952 $199 $310 forward 7 unknown #
edge $-1 $311 -71.205612029679429 $204 -65.220072830888697 $194 $312 forward 7 unknown #
coedge $-1 $115 $303 $307 $313 forward $191 $-1 #
vertex $-1 $200 $314 #
vertex $-1 $116 $315 #
straight-curve $-1 -18.256918731012629 31.835984206779578 7.9641544092401588 1 0 0 I I #
coedge $-1 $206 $206 $-1 $316 reversed $119 $-1 #
edge $-1 $317 0 $317 6.2831853071796004 $120 $318 forward 7 unknown #
vertex $-1 $123 $319 #
ellipse-curve $-1 -36.513837462025258 33.719395110809657 5.6383355767328247 0 0.77714596973225614 0.62932038083071107 1 0 0 1 I I #
face $-1 $-1 $320 $26 $-1 $321 reversed single #
loop $-1 $-1 $322 $124 #
plane-surface $-1 -49.340337587197013 0 5.673053340853655 -1 0 0 0 0 1 forward_v I I I I #
coedge $-1 $323 $127 $129 $219 forward $78 $-1 #
coedge $-1 $127 $323 $322 $324 forward $78 $-1 #
coedge $-1 $325 $130 $127 $216 forward $125 $-1 #
edge $-1 $222 5.4304186058408739 $326 31.083418856184384 $215 $327 forward 7 unknown #
coedge $-1 $328 $329 $128 $218 forward $320 $-1 #
edge $-1 $330 -34.463163027632994 $221 -29.811525362618312 $217 $331 forward 7 unknown #
edge $-1 $222 -5.9855391987907662 $330 0 $129 $332 forward 7 unknown #
coedge $-1 $130 $325 $328 $333 forward $125 $-1 #
vertex $-1 $218 $334 #
vertex $-1 $131 $335 #
straight-curve $-1 -23.687337336853503 -62.405174988903376 7.9641544092401588 0 1 0 I I #
coedge $-1 $224 $224 $-1 $336 reversed $134 $-1 #
edge $-1 $337 0 $337 6.2831853071796004 $135 $338 forward 7 unknown #
vertex $-1 $138 $339 #
ellipse-curve $-1 -36.513837462025258 -33.71939511080965 5.6383355767328158 0 -0.77714596973225614 0.62932038083071107 1 0 0 1 I I #
face $-1 $-1 $154 $21 $-1 $340 reversed single #
loop $-1 $-1 $244 $139 #
plane-surface $-1 0 35.602806014839729 0 0 -1 0 0 0 -1 forward_v I I I I #
coedge $-1 $341 $242 $245 $342 forward $140 $-1 #
coedge $-1 $248 $142 $143 $236 reversed $87 $-1 #
coedge $-1 $242 $341 $142 $234 reversed $140 $-1 #
edge $-1 $249 -7.9641544092401579 $343 7.9641544092401579 $233 $344 forward 7 unknown #
coedge $-1 $144 $143 $341 $345 forward $57 $-1 #
edge $-1 $240 -57.394329660939363 $343 57.394329660939363 $232 $346 forward 7 unknown #
coedge $-1 $245 $244 $144 $238 reversed $229 $-1 #
edge $-1 $347 -57.394329660939363 $239 57.394329660939363 $237 $348 forward 7 unknown #
vertex $-1 $146 $349 #
vertex $-1 $251 $350 #
straight-curve $-1 57.394329660939363 0 -7.9641544092401579 0 -1 0 I I #
coedge $-1 $231 $233 $147 $243 reversed $140 $-1 #
edge $-1 $246 -35.602806014839729 $249 35.602806014839729 $242 $351 forward 7 unknown #
coedge $-1 $237 $148 $153 $252 forward $229 $-1 #
coedge $-1 $148 $237 $231 $342 reversed $229 $-1 #
vertex $-1 $149 $352 #
straight-curve $-1 0 35.602806014839729 7.9641544092401579 -1 0 0 I I #
coedge $-1 $150 $232 $152 $251 reversed $87 $-1 #
vertex $-1 $243 $353 #
straight-curve $-1 0 -35.602806014839729 7.9641544092401579 1 0 0 I I #
edge $-1 $155 -7.9641544092401579 $240 7.9641544092401579 $152 $354 forward 7 unknown #
edge $-1 $156 -7.9641544092401579 $239 7.9641544092401579 $153 $355 forward 7 unknown #
point $-1 57.394329660939363 -35.602806014839729 7.9641544092401579 #
point $-1 57.394329660939363 35.602806014839729 7.9641544092401579 #
face $-1 $-1 $270 $22 $-1 $356 reversed single #
loop $-1 $-1 $265 $158 #
plane-surface $-1 0 0 7.9641544092401579 0 0 1 1 0 0 forward_v I I I I #
coedge $-1 $357 $358 $261 $359 forward $159 $-1 #
coedge $-1 $360 $161 $163 $264 forward $95 $-1 #
coedge $-1 $161 $360 $361 $362 reversed $95 $-1 #
coedge $-1 $163 $162 $258 $359 reversed $61 $-1 #
coedge $-1 $166 $363 $162 $263 forward $270 $-1 #
edge $-1 $364 -30.710662848905269 $169 -22.656670775162919 $262 $365 forward 7 unknown #
edge $-1 $168 22.656670775162919 $366 30.710662848905269 $259 $367 forward 7 unknown #
coedge $-1 $361 $368 $164 $266 forward $256 $-1 #
edge $-1 $271 -35.602806014839729 $267 35.602806014839729 $265 $369 forward 7 unknown #
vertex $-1 $362 $370 #
straight-curve $-1 -49.340337587197013 35.602806014839729 2.8365266704268275 0 0 -1 I I #
coedge $-1 $363 $166 $368 $371 reversed $270 $-1 #
loop $-1 $-1 $166 $255 #
vertex $-1 $167 $372 #
straight-curve $-1 -49.340337587197013 -35.602806014839729 2.8365266704268275 0 0 1 I I #
point $-1 -49.340337587197013 35.602806014839729 3.3819522724671538 #
point $-1 -49.340337587197013 -35.602806014839729 3.3819522724671538 #
face $-1 $-1 $186 $23 $-1 $373 reversed single #
loop $-1 $-1 $177 $171 #
plane-surface $-1 0 35.602806014839729 0 0 -1 0 0 0 -1 forward_v I I I I #
coedge $-1 $180 $374 $282 $375 forward $172 $-1 #
coedge $-1 $376 $174 $374 $377 forward $102 $-1 #
coedge $-1 $174 $376 $284 $378 forward $102 $-1 #
edge $-1 $286 -35.602806014839729 $379 35.602806014839729 $174 $380 forward 7 unknown #
coedge $-1 $176 $175 $278 $375 reversed $65 $-1 #
edge $-1 $289 -35.602806014839729 $285 35.602806014839729 $175 $381 forward 7 unknown #
coedge $-1 $291 $177 $280 $378 reversed $276 $-1 #
vertex $-1 $183 $382 #
vertex $-1 $178 $383 #
straight-curve $-1 49.34033758719702 35.602806014839729 2.8365266704268275 0 0 1 I I #
coedge $-1 $374 $180 $185 $295 reversed $172 $-1 #
vertex $-1 $181 $384 #
straight-curve $-1 26.683666812034097 -35.602806014839729 3.3819522724671538 1 0 0 I I #
coedge $-1 $182 $284 $184 $294 forward $276 $-1 #
straight-curve $-1 26.683666812034097 35.602806014839729 3.3819522724671538 -1 0 0 I I #
coedge $-1 $185 $184 $376 $385 reversed $186 $-1 #
edge $-1 $386 -7.9641544092401579 $188 -3.3819522724671538 $184 $387 forward 7 unknown #
edge $-1 $388 -7.9641544092401579 $187 -3.3819522724671538 $185 $389 forward 7 unknown #
point $-1 57.39432966093937 -35.602806014839729 3.3819522724671538 #
point $-1 57.39432966093937 35.602806014839729 3.3819522724671538 #
loop $-1 $-1 $199 $190 #
plane-surface $-1 -49.340337587197013 0 5.673053340853655 -1 0 0 0 0 1 forward_v I I I I #
coedge $-1 $390 $193 $198 $306 forward $110 $-1 #
coedge $-1 $193 $390 $303 $391 reversed $110 $-1 #
edge $-1 $304 57.480102568210334 $311 62.131740233224996 $193 $392 forward 7 unknown #
coedge $-1 $202 $196 $301 $391 forward $191 $-1 #
vertex $-1 $391 $393 #
straight-curve $-1 -23.687337336853503 39.999603549002515 7.9641544092401588 0 1 0 I I #
edge $-1 $311 5.4304186058408739 $309 31.083418856184384 $300 $394 forward 7 unknown #
coedge $-1 $308 $199 $202 $313 reversed $298 $-1 #
coedge $-1 $199 $307 $390 $395 reversed $298 $-1 #
vertex $-1 $395 $396 #
straight-curve $-1 -49.340337587197013 5.5698549004125546 40.400123674949498 0 -0.62932038083071107 0.77714596973225614 I I #
vertex $-1 $306 $397 #
straight-curve $-1 -23.687337336853503 -9.2083368649619928 58.649671155409521 0 -0.62932038083071107 0.77714596973225614 I I #
edge $-1 $398 -35.602806014839729 $203 -31.835984206779592 $202 $399 forward 7 unknown #
point $-1 -49.340337587197013 31.835984206779592 7.9641544092401517 #
point $-1 -23.687337336853503 31.835984206779592 7.9641544092401517 #
edge $-1 $400 1 $400 0 $206 $-1 forward 7 unknown #
vertex $-1 $207 $401 #
ellipse-curve $-1 -36.513837462025258 31.174121694453046 3.5772138594682055 0 0.77714596973225614 0.62932038083071107 1 0 0 1 I I #
point $-1 -35.513837462025258 33.719395110809643 5.638335576732814 #
loop $-1 $-1 $217 $210 #
plane-surface $-1 0 -35.602806014839729 0 0 1 0 0 0 1 forward_v I I I I #
coedge $-1 $402 $403 $214 $324 reversed $211 $-1 #
coedge $-1 $214 $213 $329 $404 reversed $78 $-1 #
edge $-1 $405 0 $326 5.9855391987907662 $322 $406 forward 7 unknown #
coedge $-1 $220 $215 $403 $407 forward $125 $-1 #
vertex $-1 $407 $408 #
straight-curve $-1 -18.256918731012629 -31.835984206779575 7.9641544092401579 -1 0 0 I I #
coedge $-1 $409 $217 $220 $333 reversed $320 $-1 #
coedge $-1 $217 $409 $323 $404 forward $320 $-1 #
vertex $-1 $218 $410 #
straight-curve $-1 -23.687337336853503 -35.602806014839729 37.775679771858471 0 0 1 I I #
straight-curve $-1 -23.687337336853503 -35.602806014839729 3.3125167442254764 0 -0.62932038083071107 -0.77714596973225614 I I #
edge $-1 $411 -49.340337587197013 $221 -23.687337336853503 $328 $412 forward 7 unknown #
point $-1 -23.687337336853503 -35.602806014839729 7.9641544092401579 #
point $-1 -23.687337336853503 -31.835984206779575 7.9641544092401579 #
edge $-1 $413 1 $413 0 $224 $-1 forward 7 unknown #
vertex $-1 $225 $414 #
ellipse-curve $-1 -36.513837462025258 -31.174121694453053 3.5772138594682055 0 -0.77714596973225614 0.62932038083071107 1 0 0 1 I I #
point $-1 -35.513837462025258 -33.71939511080965 5.638335576732814 #
plane-surface $-1 57.394329660939363 0 0 -1 0 0 0 0 1 forward_v I I I I #
coedge $-1 $233 $231 $235 $345 reversed $140 $-1 #
edge $-1 $246 -7.9641544092401579 $347 7.9641544092401579 $245 $415 forward 7 unknown #
vertex $-1 $345 $416 #
straight-curve $-1 -57.394329660939363 -35.602806014839729 0 0 0 -1 I I #
edge $-1 $343 -35.602806014839729 $347 35.602806014839729 $341 $417 forward 7 unknown #
straight-curve $-1 0 -35.602806014839729 -7.9641544092401579 -1 0 0 I I #
vertex $-1 $238 $418 #
straight-curve $-1 0 35.602806014839729 -7.9641544092401579 1 0 0 I I #
point $-1 57.394329660939363 35.602806014839729 -7.9641544092401579 #
point $-1 57.394329660939363 -35.602806014839729 -7.9641544092401579 #
straight-curve $-1 -57.394329660939363 0 7.9641544092401579 0 -1 0 I I #
point $-1 -57.394329660939363 35.602806014839729 7.9641544092401579 #
point $-1 -57.394329660939363 -35.602806014839729 7.9641544092401579 #
straight-curve $-1 57.394329660939363 -35.602806014839729 0 0 0 -1 I I #
straight-curve $-1 57.394329660939363 35.602806014839729 0 0 0 -1 I I #
plane-surface $-1 0 -35.602806014839729 0 0 1 0 0 0 1 forward_v I I I I #
coedge $-1 $419 $258 $363 $420 reversed $159 $-1 #
coedge $-1 $258 $419 $360 $421 forward $159 $-1 #
edge $-1 $366 -35.602806014839729 $364 35.602806014839729 $258 $422 forward 7 unknown #
coedge $-1 $260 $259 $358 $421 reversed $95 $-1 #
coedge $-1 $423 $265 $260 $362 forward $256 $-1 #
edge $-1 $267 49.340337587197013 $424 57.394329660939363 $260 $425 forward 7 unknown #
coedge $-1 $262 $269 $357 $420 forward $270 $-1 #
vertex $-1 $359 $426 #
straight-curve $-1 -26.683666812034094 -35.602806014839729 3.3819522724671538 1 0 0 I I #
vertex $-1 $359 $427 #
straight-curve $-1 -26.683666812034094 35.602806014839729 3.3819522724671538 -1 0 0 I I #
coedge $-1 $265 $423 $269 $371 forward $256 $-1 #
straight-curve $-1 -49.340337587197013 0 7.9641544092401579 0 1 0 I I #
point $-1 -49.340337587197013 35.602806014839729 7.9641544092401562 #
edge $-1 $428 -57.394329660939363 $271 -49.340337587197013 $269 $429 forward 7 unknown #
point $-1 -49.340337587197013 -35.602806014839729 7.9641544092401562 #
plane-surface $-1 57.394329660939363 0 0 -1 0 0 0 0 1 forward_v I I I I #
coedge $-1 $278 $288 $279 $377 reversed $172 $-1 #
edge $-1 $379 -5.1276277388133291 $289 -0.54542560204032631 $278 $430 forward 7 unknown #
coedge $-1 $280 $279 $293 $385 forward $102 $-1 #
edge $-1 $379 49.34033758719702 $388 57.394329660939363 $374 $431 forward 7 unknown #
edge $-1 $386 -57.394329660939363 $286 -49.34033758719702 $284 $432 forward 7 unknown #
vertex $-1 $377 $433 #
straight-curve $-1 49.34033758719702 0 7.9641544092401579 0 -1 0 I I #
straight-curve $-1 49.34033758719702 0 3.3819522724671538 0 1 0 I I #
point $-1 49.34033758719702 35.602806014839729 3.3819522724671538 #
point $-1 49.34033758719702 35.602806014839729 7.9641544092401562 #
point $-1 49.34033758719702 -35.602806014839729 3.3819522724671538 #
edge $-1 $388 -35.602806014839729 $386 35.602806014839729 $293 $434 forward 7 unknown #
vertex $-1 $385 $435 #
straight-curve $-1 57.394329660939363 35.602806014839729 0 0 0 -1 I I #
vertex $-1 $385 $436 #
straight-curve $-1 57.394329660939363 -35.602806014839729 0 0 0 -1 I I #
coedge $-1 $301 $300 $308 $395 forward $110 $-1 #
edge $-1 $304 23.687337336853503 $398 49.340337587197013 $301 $437 forward 7 unknown #
straight-curve $-1 -23.687337336853503 35.602806014839729 65.444256977450493 0 0 -1 I I #
point $-1 -23.687337336853503 35.602806014839729 7.9641544092401579 #
straight-curve $-1 -18.256918731012629 35.602806014839722 3.3125167442254977 -1 0 0 I I #
edge $-1 $309 -62.131740233224996 $398 -57.480102568210334 $390 $438 forward 7 unknown #
point $-1 -49.340337587197013 35.602806014839729 3.3125167442254977 #
point $-1 -23.687337336853503 35.602806014839729 3.3125167442254977 #
vertex $-1 $313 $439 #
straight-curve $-1 -49.340337587197013 0 7.9641544092401579 0 -1 0 I I #
vertex $-1 $316 $440 #
point $-1 -35.513837462025258 31.174121694453046 3.5772138594682055 #
coedge $-1 $403 $322 $409 $441 reversed $211 $-1 #
coedge $-1 $322 $402 $325 $407 reversed $211 $-1 #
edge $-1 $405 -31.083418856184384 $330 -5.4304186058408739 $329 $442 forward 7 unknown #
vertex $-1 $441 $443 #
straight-curve $-1 -49.340337587197013 -35.602806014839729 3.3125167442254764 0 0.62932038083071107 0.77714596973225614 I I #
edge $-1 $326 31.835984206779575 $411 35.602806014839729 $325 $444 forward 7 unknown #
point $-1 -49.340337587197013 -31.835984206779575 7.9641544092401579 #
coedge $-1 $329 $328 $402 $441 forward $320 $-1 #
point $-1 -23.687337336853503 -35.602806014839729 3.3125167442254764 #
vertex $-1 $333 $445 #
straight-curve $-1 0 -35.602806014839729 7.9641544092401579 1 0 0 I I #
vertex $-1 $336 $446 #
point $-1 -35.513837462025258 -31.174121694453053 3.5772138594682055 #
straight-curve $-1 -57.394329660939363 35.602806014839729 0 0 0 -1 I I #
point $-1 -57.394329660939363 -35.602806014839729 -7.9641544092401579 #
straight-curve $-1 -57.394329660939363 0 -7.9641544092401579 0 1 0 I I #
point $-1 -57.394329660939363 35.602806014839729 -7.9641544092401579 #
coedge $-1 $358 $357 $423 $447 reversed $159 $-1 #
edge $-1 $428 -7.9641544092401579 $364 -3.3819522724671538 $357 $448 forward 7 unknown #
edge $-1 $424 -7.9641544092401579 $366 -3.3819522724671538 $360 $449 forward 7 unknown #
straight-curve $-1 -57.394329660939363 0 3.3819522724671538 0 -1 0 I I #
coedge $-1 $368 $361 $419 $447 forward $256 $-1 #
vertex $-1 $362 $450 #
straight-curve $-1 0 35.602806014839729 7.9641544092401579 -1 0 0 I I #
point $-1 -57.394329660939363 -35.602806014839729 3.3819522724671538 #
point $-1 -57.394329660939363 35.602806014839729 3.3819522724671538 #
vertex $-1 $447 $451 #
straight-curve $-1 0 -35.602806014839729 7.9641544092401579 1 0 0 I I #
straight-curve $-1 49.34033758719702 -35.602806014839729 2.8365266704268275 0 0 -1 I I #
straight-curve $-1 0 -35.602806014839729 7.9641544092401579 1 0 0 I I #
straight-curve $-1 0 35.602806014839729 7.9641544092401579 -1 0 0 I I #
point $-1 49.34033758719702 -35.602806014839729 7.9641544092401562 #
straight-curve $-1 57.394329660939363 0 7.9641544092401579 0 1 0 I I #
point $-1 57.394329660939363 35.602806014839729 7.9641544092401579 #
point $-1 57.394329660939363 -35.602806014839729 7.9641544092401579 #
straight-curve $-1 0 35.602806014839729 7.9641544092401579 -1 0 0 I I #
straight-curve $-1 -49.340337587197013 35.602806014839729 65.444256977450493 0 0 1 I I #
point $-1 -49.340337587197013 35.602806014839729 7.9641544092401562 #
point $-1 -36.513837462025258 30.396975724720793 2.9478934786374946 #
edge $-1 $411 29.811525362618315 $405 34.463163027632994 $409 $452 forward 7 unknown #
straight-curve $-1 -18.256918731012629 -35.602806014839729 3.3125167442254764 1 0 0 I I #
point $-1 -49.340337587197013 -35.602806014839729 3.3125167442254764 #
straight-curve $-1 -49.340337587197013 0 7.9641544092401579 0 -1 0 I I #
point $-1 -49.340337587197013 -35.602806014839729 7.9641544092401562 #
point $-1 -36.513837462025258 -30.3969757247208 2.9478934786374946 #
edge $-1 $424 -35.602806014839729 $428 35.602806014839729 $419 $453 forward 7 unknown #
straight-curve $-1 -57.394329660939363 -35.602806014839729 0 0 0 -1 I I #
straight-curve $-1 -57.394329660939363 35.602806014839729 0 0 0 -1 I I #
point $-1 -57.394329660939363 35.602806014839729 7.9641544092401579 #
point $-1 -57.394329660939363 -35.602806014839729 7.9641544092401579 #
straight-curve $-1 -49.340337587197013 -35.602806014839729 37.775679771858471 0 0 -1 I I #
straight-curve $-1 -57.394329660939363 0 7.9641544092401579 0 -1 0 I I #
End-of-ACIS-data 