500 0 15 0           
7 Unknown 11 ACIS 5.0 NT 24 Thu Mar 25 15:44:55 1999 
-1 9.9999999999999995e-007 1e-010 
body $-1 $15 $-1 $16 #
body $-1 $17 $-1 $18 #
body $-1 $19 $-1 $20 #
body $-1 $21 $-1 $22 #
body $-1 $23 $-1 $24 #
body $-1 $25 $-1 $26 #
body $-1 $27 $-1 $28 #
body $-1 $29 $-1 $30 #
body $-1 $31 $-1 $32 #
body $-1 $33 $-1 $34 #
body $-1 $35 $-1 $36 #
body $-1 $37 $-1 $38 #
body $-1 $39 $-1 $40 #
body $-1 $41 $-1 $42 #
body $-1 $43 $-1 $44 #
lump $-1 $-1 $45 $0 #
transform $-1 1 0 0 0 1 0 0 0 1 45.592211676381723 25.495851567604099 6.4976411537703047 1 rotate no_reflect no_shear #
lump $-1 $-1 $46 $1 #
transform $-1 1 0 0 0 1 0 0 0 1 45.592211676381723 25.495851567604099 6.4976411537703047 1 rotate no_reflect no_shear #
lump $-1 $-1 $47 $2 #
transform $-1 1 0 0 0 1 0 0 0 1 45.592211676381723 25.495851567604099 6.4976411537703047 1 rotate no_reflect no_shear #
lump $-1 $-1 $48 $3 #
transform $-1 1 0 0 0 1 0 0 0 1 45.592211676381723 25.495851567604099 6.4976411537703047 1 rotate no_reflect no_shear #
lump $-1 $-1 $49 $4 #
transform $-1 1 0 0 0 1 0 0 0 1 45.592211676381723 25.495851567604099 6.4976411537703047 1 rotate no_reflect no_shear #
lump $-1 $-1 $50 $5 #
transform $-1 1 0 0 0 1 0 0 0 1 45.592211676381723 25.495851567604099 6.4976411537703047 1 rotate no_reflect no_shear #
lump $-1 $-1 $51 $6 #
transform $-1 1 0 0 0 1 0 0 0 1 45.592211676381723 25.495851567604099 6.4976411537703047 1 rotate no_reflect no_shear #
lump $-1 $-1 $52 $7 #
transform $-1 1 0 0 0 1 0 0 0 1 45.592211676381723 25.495851567604099 6.4976411537703047 1 rotate no_reflect no_shear #
lump $-1 $-1 $53 $8 #
transform $-1 1 0 0 0 1 0 0 0 1 45.592211676381723 25.495851567604099 6.4976411537703047 1 rotate no_reflect no_shear #
lump $-1 $-1 $54 $9 #
transform $-1 1 0 0 0 1 0 0 0 1 45.592211676381723 25.495851567604099 6.4976411537703047 1 rotate no_reflect no_shear #
lump $-1 $-1 $55 $10 #
transform $-1 1 0 0 0 1 0 0 0 1 45.592211676381723 25.495851567604099 6.4976411537703047 1 rotate no_reflect no_shear #
lump $-1 $-1 $56 $11 #
transform $-1 1 0 0 0 1 0 0 0 1 45.592211676381723 25.495851567604099 6.4976411537703047 1 rotate no_reflect no_shear #
lump $-1 $-1 $57 $12 #
transform $-1 1 0 0 0 1 0 0 0 1 45.592211676381723 25.495851567604099 6.4976411537703047 1 rotate no_reflect no_shear #
lump $-1 $-1 $58 $13 #
transform $-1 1 0 0 0 1 0 0 0 1 45.592211676381723 25.495851567604099 6.4976411537703047 1 rotate no_reflect no_shear #
lump $-1 $-1 $59 $14 #
transform $-1 1 0 0 0 1 0 0 0 1 45.592211676381723 25.495851567604099 6.4976411537703047 1 rotate no_reflect no_shear #
shell $-1 $-1 $-1 $60 $-1 $15 #
shell $-1 $-1 $-1 $61 $-1 $17 #
shell $-1 $-1 $-1 $62 $-1 $19 #
shell $-1 $-1 $-1 $63 $-1 $21 #
shell $-1 $-1 $-1 $64 $-1 $23 #
shell $-1 $-1 $-1 $65 $-1 $25 #
shell $-1 $-1 $-1 $66 $-1 $27 #
shell $-1 $-1 $-1 $67 $-1 $29 #
shell $-1 $-1 $-1 $68 $-1 $31 #
shell $-1 $-1 $-1 $69 $-1 $33 #
shell $-1 $-1 $-1 $70 $-1 $35 #
shell $-1 $-1 $-1 $71 $-1 $37 #
shell $-1 $-1 $-1 $72 $-1 $39 #
shell $-1 $-1 $-1 $73 $-1 $41 #
shell $-1 $-1 $-1 $74 $-1 $43 #
face $-1 $75 $76 $45 $-1 $77 reversed single #
face $-1 $78 $79 $46 $-1 $80 forward single #
face $-1 $81 $82 $47 $-1 $83 forward single #
face $-1 $84 $85 $48 $-1 $86 reversed single #
face $-1 $87 $88 $49 $-1 $89 forward single #
face $-1 $90 $91 $50 $-1 $92 forward single #
face $-1 $93 $94 $51 $-1 $95 reversed single #
face $-1 $96 $97 $52 $-1 $98 forward single #
face $-1 $99 $100 $53 $-1 $101 forward single #
face $-1 $102 $103 $54 $-1 $104 reversed single #
face $-1 $105 $106 $55 $-1 $107 forward single #
face $-1 $108 $109 $56 $-1 $110 forward single #
face $-1 $111 $112 $57 $-1 $113 reversed single #
face $-1 $114 $115 $58 $-1 $116 forward single #
face $-1 $117 $118 $59 $-1 $119 forward single #
face $-1 $120 $121 $45 $-1 $122 forward single #
loop $-1 $-1 $123 $60 #
plane-surface $-1 0 -25.495851567604099 0 0 1 0 0 0 1 forward_v I I I I #
face $-1 $124 $125 $46 $-1 $126 forward single #
loop $-1 $-1 $127 $61 #
plane-surface $-1 0 -25.495851567604099 0 0 1 0 0 0 1 forward_v I I I I #
face $-1 $128 $129 $47 $-1 $130 forward single #
loop $-1 $-1 $131 $62 #
plane-surface $-1 0 25.495851567604099 0 0 -1 0 0 0 -1 forward_v I I I I #
face $-1 $132 $133 $48 $-1 $134 reversed single #
loop $-1 $-1 $135 $63 #
plane-surface $-1 25.419324029486134 -7.0416257599876033 128.30423629605946 0 -1 0 -0.5877852598018023 0 -0.80901698891910034 forward_v I I I I #
face $-1 $136 $137 $49 $-1 $138 forward single #
loop $-1 $139 $140 $64 #
cone-surface $-1 41.213849702349613 -11.677275146513967 2.9578559600938354 -0.5877852598018023 0 -0.80901698891910034 0.40450849445955017 0 -0.29389262990090115 1 I I 0 1 0.5 forward I I I I #
face $-1 $141 $142 $50 $-1 $143 forward single #
loop $-1 $144 $145 $65 #
cone-surface $-1 41.213849702349613 -8.8958855145981488 2.9578559600938354 -0.5877852598018023 0 -0.80901698891910034 0.40450849445955017 0 -0.29389262990090115 1 I I 0 1 0.5 forward I I I I #
face $-1 $146 $147 $51 $-1 $148 reversed single #
loop $-1 $-1 $149 $66 #
plane-surface $-1 25.419324029486134 11.416975256963967 128.30423629605946 0 -1 0 -0.5877852598018023 0 -0.80901698891910034 forward_v I I I I #
face $-1 $150 $151 $52 $-1 $152 forward single #
loop $-1 $153 $154 $67 #
cone-surface $-1 41.213849702349613 6.7813258704376054 2.9578559600938354 -0.5877852598018023 0 -0.80901698891910034 0.40450849445955017 0 -0.29389262990090115 1 I I 0 1 0.5 forward I I I I #
face $-1 $155 $156 $53 $-1 $157 forward single #
loop $-1 $158 $159 $68 #
cone-surface $-1 41.213849702349613 9.56271550235342 2.9578559600938354 -0.5877852598018023 0 -0.80901698891910034 0.40450849445955017 0 -0.29389262990090115 1 I I 0 1 0.5 forward I I I I #
face $-1 $160 $161 $54 $-1 $162 reversed single #
loop $-1 $-1 $163 $69 #
plane-surface $-1 -99.189071646663308 -13.531534901124513 74.707376325777858 0 1 0 -0.5877852598018023 0 0.80901698891910034 forward_v I I I I #
face $-1 $164 $165 $55 $-1 $166 forward single #
loop $-1 $167 $168 $70 #
cone-surface $-1 -41.213849702349606 -11.677275146513967 2.9578559600938354 0.5877852598018023 0 -0.80901698891910034 0.40450849445955017 0 0.29389262990090115 1 I I 0 1 0.5 forward I I I I #
face $-1 $169 $170 $56 $-1 $171 forward single #
loop $-1 $172 $173 $71 #
cone-surface $-1 -41.213849702349606 -8.8958855145981488 2.9578559600938354 0.5877852598018023 0 -0.80901698891910034 0.40450849445955017 0 0.29389262990090115 1 I I 0 1 0.5 forward I I I I #
face $-1 $174 $175 $57 $-1 $176 reversed single #
loop $-1 $-1 $177 $72 #
plane-surface $-1 -99.189071646663308 4.9270661158270581 74.707376325777858 0 1 0 -0.5877852598018023 0 0.80901698891910034 forward_v I I I I #
face $-1 $178 $179 $58 $-1 $180 forward single #
loop $-1 $181 $182 $73 #
cone-surface $-1 -41.213849702349606 6.7813258704376054 2.9578559600938354 0.5877852598018023 0 -0.80901698891910034 0.40450849445955017 0 0.29389262990090115 1 I I 0 1 0.5 forward I I I I #
face $-1 $183 $184 $59 $-1 $185 forward single #
loop $-1 $186 $187 $74 #
cone-surface $-1 -41.213849702349606 9.56271550235342 2.9578559600938354 0.5877852598018023 0 -0.80901698891910034 0.40450849445955017 0 0.29389262990090115 1 I I 0 1 0.5 forward I I I I #
face $-1 $188 $189 $45 $-1 $190 reversed single #
loop $-1 $-1 $191 $75 #
plane-surface $-1 0 0 6.4976411537703047 0 0 1 1 0 0 forward_v I I I I #
coedge $-1 $192 $193 $194 $195 reversed $76 $-1 #
face $-1 $196 $197 $46 $-1 $198 reversed single #
loop $-1 $-1 $199 $78 #
plane-surface $-1 0 0 6.4976411537703047 0 0 1 1 0 0 forward_v I I I I #
coedge $-1 $200 $201 $202 $203 forward $79 $-1 #
face $-1 $204 $205 $47 $-1 $206 reversed single #
loop $-1 $-1 $207 $81 #
plane-surface $-1 0 0 6.4976411537703047 0 0 1 1 0 0 forward_v I I I I #
coedge $-1 $208 $209 $210 $211 forward $82 $-1 #
face $-1 $212 $213 $48 $-1 $214 reversed single #
loop $-1 $-1 $215 $84 #
plane-surface $-1 -28.177535940795458 -10.286580330556058 54.534488678882283 0.5877852598018023 0 0.80901698891910034 0.80901698891910034 0 -0.5877852598018023 forward_v I I I I #
coedge $-1 $216 $217 $218 $219 reversed $85 $-1 #
face $-1 $-1 $220 $49 $-1 $221 forward single #
loop $-1 $222 $223 $87 #
cone-surface $-1 40.514891642241963 -11.677275146513967 1.9958227417724057 -0.5877852598018023 0 -0.80901698891910034 0.20225424722977509 0 -0.14694631495045057 1 I I -0.70710678118654746 0.70710678118654746 0.25 forward I I I I #
loop $-1 $-1 $224 $64 #
coedge $-1 $140 $140 $225 $226 reversed $88 $-1 #
face $-1 $-1 $227 $50 $-1 $228 forward single #
loop $-1 $229 $230 $90 #
cone-surface $-1 40.514891642241963 -8.8958855145981488 1.9958227417724057 -0.5877852598018023 0 -0.80901698891910034 0.20225424722977509 0 -0.14694631495045057 1 I I -0.70710678118654746 0.70710678118654746 0.25 forward I I I I #
loop $-1 $-1 $231 $65 #
coedge $-1 $145 $145 $232 $233 reversed $91 $-1 #
face $-1 $234 $235 $51 $-1 $236 reversed single #
loop $-1 $-1 $237 $93 #
plane-surface $-1 -28.177535940795458 8.1720206863955127 54.534488678882283 0.5877852598018023 0 0.80901698891910034 0.80901698891910034 0 -0.5877852598018023 forward_v I I I I #
coedge $-1 $238 $239 $240 $241 reversed $94 $-1 #
face $-1 $-1 $242 $52 $-1 $243 forward single #
loop $-1 $244 $245 $96 #
cone-surface $-1 40.514891642241963 6.7813258704376054 1.9958227417724057 -0.5877852598018023 0 -0.80901698891910034 0.20225424722977509 0 -0.14694631495045057 1 I I -0.70710678118654746 0.70710678118654746 0.25 forward I I I I #
loop $-1 $-1 $246 $67 #
coedge $-1 $154 $154 $247 $248 reversed $97 $-1 #
face $-1 $-1 $249 $53 $-1 $250 forward single #
loop $-1 $251 $252 $99 #
cone-surface $-1 40.514891642241963 9.56271550235342 1.9958227417724057 -0.5877852598018023 0 -0.80901698891910034 0.20225424722977509 0 -0.14694631495045057 1 I I -0.70710678118654746 0.70710678118654746 0.25 forward I I I I #
loop $-1 $-1 $253 $68 #
coedge $-1 $159 $159 $254 $255 reversed $100 $-1 #
face $-1 $256 $257 $54 $-1 $258 reversed single #
loop $-1 $-1 $259 $102 #
plane-surface $-1 -45.592211676381716 -10.286580330556058 0.93762870860068404 -0.5877852598018023 0 0.80901698891910034 0.80901698891910034 0 0.5877852598018023 forward_v I I I I #
coedge $-1 $260 $261 $262 $263 reversed $103 $-1 #
face $-1 $-1 $264 $55 $-1 $265 forward single #
loop $-1 $266 $267 $105 #
cone-surface $-1 -40.514891642241956 -11.677275146513967 1.9958227417724057 0.5877852598018023 0 -0.80901698891910034 0.20225424722977509 0 0.14694631495045057 1 I I -0.70710678118654746 0.70710678118654746 0.25 forward I I I I #
loop $-1 $-1 $268 $70 #
coedge $-1 $168 $168 $269 $270 reversed $106 $-1 #
face $-1 $-1 $271 $56 $-1 $272 forward single #
loop $-1 $273 $274 $108 #
cone-surface $-1 -40.514891642241956 -8.8958855145981488 1.9958227417724057 0.5877852598018023 0 -0.80901698891910034 0.20225424722977509 0 0.14694631495045057 1 I I -0.70710678118654746 0.70710678118654746 0.25 forward I I I I #
loop $-1 $-1 $275 $71 #
coedge $-1 $173 $173 $276 $277 reversed $109 $-1 #
face $-1 $278 $279 $57 $-1 $280 reversed single #
loop $-1 $-1 $281 $111 #
plane-surface $-1 -45.592211676381716 8.1720206863955127 0.93762870860068404 -0.5877852598018023 0 0.80901698891910034 0.80901698891910034 0 0.5877852598018023 forward_v I I I I #
coedge $-1 $282 $283 $284 $285 reversed $112 $-1 #
face $-1 $-1 $286 $58 $-1 $287 forward single #
loop $-1 $288 $289 $114 #
cone-surface $-1 -40.514891642241956 6.7813258704376054 1.9958227417724057 0.5877852598018023 0 -0.80901698891910034 0.20225424722977509 0 0.14694631495045057 1 I I -0.70710678118654746 0.70710678118654746 0.25 forward I I I I #
loop $-1 $-1 $290 $73 #
coedge $-1 $182 $182 $291 $292 reversed $115 $-1 #
face $-1 $-1 $293 $59 $-1 $294 forward single #
loop $-1 $295 $296 $117 #
cone-surface $-1 -40.514891642241956 9.56271550235342 1.9958227417724057 0.5877852598018023 0 -0.80901698891910034 0.20225424722977509 0 0.14694631495045057 1 I I -0.70710678118654746 0.70710678118654746 0.25 forward I I I I #
loop $-1 $-1 $297 $74 #
coedge $-1 $187 $187 $298 $299 reversed $118 $-1 #
face $-1 $300 $301 $45 $-1 $302 reversed single #
loop $-1 $-1 $303 $120 #
plane-surface $-1 0 0 -6.4976411537703047 0 0 1 1 0 0 forward_v I I I I #
coedge $-1 $304 $305 $306 $307 forward $121 $-1 #
coedge $-1 $308 $123 $309 $310 reversed $76 $-1 #
coedge $-1 $123 $308 $311 $312 forward $76 $-1 #
coedge $-1 $313 $303 $123 $195 forward $189 $-1 #
edge $-1 $314 -45.592211676381723 $315 45.592211676381723 $123 $316 forward 7 unknown #
face $-1 $317 $318 $46 $-1 $319 reversed single #
loop $-1 $-1 $320 $124 #
plane-surface $-1 -45.592211676381723 0 0 1 0 0 0 0 -1 forward_v I I I I #
coedge $-1 $321 $322 $201 $323 forward $125 $-1 #
coedge $-1 $324 $127 $325 $326 reversed $79 $-1 #
coedge $-1 $127 $324 $199 $323 reversed $79 $-1 #
coedge $-1 $327 $328 $127 $203 reversed $329 $-1 #
edge $-1 $330 -6.4976411537703047 $331 6.4976411537703047 $202 $332 forward 7 unknown #
face $-1 $333 $334 $47 $-1 $335 reversed single #
loop $-1 $-1 $336 $128 #
plane-surface $-1 -43.777722530309624 32.533102118256629 0 0 -1 0 0 0 -1 forward_v I I I I #
coedge $-1 $337 $338 $208 $339 forward $129 $-1 #
coedge $-1 $340 $131 $207 $339 reversed $82 $-1 #
coedge $-1 $131 $340 $341 $342 reversed $82 $-1 #
coedge $-1 $343 $344 $131 $211 reversed $334 $-1 #
edge $-1 $345 -6.4976411537703047 $346 6.4976411537703047 $210 $347 forward 7 unknown #
face $-1 $348 $349 $48 $-1 $350 forward single #
loop $-1 $-1 $351 $132 #
plane-surface $-1 25.419324029486134 -13.531534901124513 128.30423629605946 0 1 0 0.5877852598018023 0 0.80901698891910034 forward_v I I I I #
coedge $-1 $352 $353 $354 $355 reversed $133 $-1 #
coedge $-1 $217 $135 $356 $357 reversed $85 $-1 #
coedge $-1 $135 $216 $352 $358 reversed $85 $-1 #
coedge $-1 $354 $359 $135 $219 forward $349 $-1 #
edge $-1 $360 -32.882549661638656 $361 -25.229849203888847 $218 $362 forward 7 unknown #
loop $-1 $-1 $225 $136 #
plane-surface $-1 -28.177535940795458 -10.286580330556058 54.534488678882283 0.5877852598018023 0 0.80901698891910034 0.80901698891910034 0 -0.5877852598018023 forward_v I I I I #
loop $-1 $-1 $363 $87 #
coedge $-1 $223 $223 $224 $364 reversed $137 $-1 #
coedge $-1 $224 $224 $223 $364 forward $139 $-1 #
coedge $-1 $225 $225 $140 $226 forward $220 $-1 #
edge $-1 $365 0 $365 6.2831853071796004 $225 $366 forward 7 unknown #
loop $-1 $-1 $232 $141 #
plane-surface $-1 -28.177535940795458 -10.286580330556058 54.534488678882283 0.5877852598018023 0 0.80901698891910034 0.80901698891910034 0 -0.5877852598018023 forward_v I I I I #
loop $-1 $-1 $367 $90 #
coedge $-1 $230 $230 $231 $368 reversed $142 $-1 #
coedge $-1 $231 $231 $230 $368 forward $144 $-1 #
coedge $-1 $232 $232 $145 $233 forward $227 $-1 #
edge $-1 $369 0 $369 6.2831853071796004 $232 $370 forward 7 unknown #
face $-1 $371 $372 $51 $-1 $373 reversed single #
loop $-1 $-1 $374 $146 #
plane-surface $-1 25.419324029486134 4.9270661158270581 128.30423629605946 0 1 0 0.5877852598018023 0 0.80901698891910034 forward_v I I I I #
coedge $-1 $375 $376 $377 $378 reversed $147 $-1 #
coedge $-1 $239 $149 $379 $380 reversed $94 $-1 #
coedge $-1 $149 $238 $375 $381 reversed $94 $-1 #
coedge $-1 $377 $382 $149 $241 forward $383 $-1 #
edge $-1 $384 -32.882549661638656 $385 -25.229849203888847 $240 $386 forward 7 unknown #
loop $-1 $-1 $247 $150 #
plane-surface $-1 -28.177535940795458 8.1720206863955127 54.534488678882283 0.5877852598018023 0 0.80901698891910034 0.80901698891910034 0 -0.5877852598018023 forward_v I I I I #
loop $-1 $-1 $387 $96 #
coedge $-1 $245 $245 $246 $388 reversed $151 $-1 #
coedge $-1 $246 $246 $245 $388 forward $153 $-1 #
coedge $-1 $247 $247 $154 $248 forward $242 $-1 #
edge $-1 $389 0 $389 6.2831853071796004 $247 $390 forward 7 unknown #
loop $-1 $-1 $254 $155 #
plane-surface $-1 -28.177535940795458 8.1720206863955127 54.534488678882283 0.5877852598018023 0 0.80901698891910034 0.80901698891910034 0 -0.5877852598018023 forward_v I I I I #
loop $-1 $-1 $391 $99 #
coedge $-1 $252 $252 $253 $392 reversed $156 $-1 #
coedge $-1 $253 $253 $252 $392 forward $158 $-1 #
coedge $-1 $254 $254 $159 $255 forward $249 $-1 #
edge $-1 $393 0 $393 6.2831853071796004 $254 $394 forward 7 unknown #
face $-1 $395 $396 $54 $-1 $397 reversed single #
loop $-1 $-1 $398 $160 #
plane-surface $-1 -99.189071646663308 -7.0416257599876033 74.707376325777858 0 -1 0 0.5877852598018023 0 -0.80901698891910034 forward_v I I I I #
coedge $-1 $399 $400 $401 $402 reversed $161 $-1 #
coedge $-1 $261 $163 $403 $404 reversed $103 $-1 #
coedge $-1 $163 $260 $399 $405 reversed $103 $-1 #
coedge $-1 $401 $406 $163 $263 forward $407 $-1 #
edge $-1 $408 4.0023241469499311 $409 11.655024604699761 $262 $410 forward 7 unknown #
loop $-1 $-1 $269 $164 #
plane-surface $-1 -45.592211676381716 -10.286580330556058 0.93762870860068404 -0.5877852598018023 0 0.80901698891910034 0.80901698891910034 0 0.5877852598018023 forward_v I I I I #
loop $-1 $-1 $411 $105 #
coedge $-1 $267 $267 $268 $412 reversed $165 $-1 #
coedge $-1 $268 $268 $267 $412 forward $167 $-1 #
coedge $-1 $269 $269 $168 $270 forward $264 $-1 #
edge $-1 $413 0 $413 6.2831853071796004 $269 $414 forward 7 unknown #
loop $-1 $-1 $276 $169 #
plane-surface $-1 -45.592211676381716 -10.286580330556058 0.93762870860068404 -0.5877852598018023 0 0.80901698891910034 0.80901698891910034 0 0.5877852598018023 forward_v I I I I #
loop $-1 $-1 $415 $108 #
coedge $-1 $274 $274 $275 $416 reversed $170 $-1 #
coedge $-1 $275 $275 $274 $416 forward $172 $-1 #
coedge $-1 $276 $276 $173 $277 forward $271 $-1 #
edge $-1 $417 0 $417 6.2831853071796004 $276 $418 forward 7 unknown #
face $-1 $419 $420 $57 $-1 $421 forward single #
loop $-1 $-1 $422 $174 #
plane-surface $-1 -99.189071646663308 11.416975256963967 74.707376325777858 0 -1 0 0.5877852598018023 0 -0.80901698891910034 forward_v I I I I #
coedge $-1 $423 $424 $425 $426 reversed $175 $-1 #
coedge $-1 $283 $177 $427 $428 reversed $112 $-1 #
coedge $-1 $177 $282 $423 $429 reversed $112 $-1 #
coedge $-1 $425 $430 $177 $285 forward $420 $-1 #
edge $-1 $431 4.0023241469499311 $432 11.655024604699761 $284 $433 forward 7 unknown #
loop $-1 $-1 $291 $178 #
plane-surface $-1 -45.592211676381716 8.1720206863955127 0.93762870860068404 -0.5877852598018023 0 0.80901698891910034 0.80901698891910034 0 0.5877852598018023 forward_v I I I I #
loop $-1 $-1 $434 $114 #
coedge $-1 $289 $289 $290 $435 reversed $179 $-1 #
coedge $-1 $290 $290 $289 $435 forward $181 $-1 #
coedge $-1 $291 $291 $182 $292 forward $286 $-1 #
edge $-1 $436 0 $436 6.2831853071796004 $291 $437 forward 7 unknown #
loop $-1 $-1 $298 $183 #
plane-surface $-1 -45.592211676381716 8.1720206863955127 0.93762870860068404 -0.5877852598018023 0 0.80901698891910034 0.80901698891910034 0 0.5877852598018023 forward_v I I I I #
loop $-1 $-1 $438 $117 #
coedge $-1 $296 $296 $297 $439 reversed $184 $-1 #
coedge $-1 $297 $297 $296 $439 forward $186 $-1 #
coedge $-1 $298 $298 $187 $299 forward $293 $-1 #
edge $-1 $440 0 $440 6.2831853071796004 $298 $441 forward 7 unknown #
face $-1 $442 $443 $45 $-1 $444 reversed single #
loop $-1 $-1 $445 $188 #
plane-surface $-1 -45.592211676381723 0 0 1 0 0 0 0 -1 forward_v I I I I #
coedge $-1 $194 $446 $447 $448 forward $189 $-1 #
coedge $-1 $449 $191 $450 $451 forward $121 $-1 #
coedge $-1 $191 $449 $308 $452 forward $121 $-1 #
coedge $-1 $309 $453 $191 $307 reversed $454 $-1 #
edge $-1 $455 -25.495851567604099 $456 25.495851567604099 $306 $457 forward 7 unknown #
coedge $-1 $193 $192 $305 $452 reversed $76 $-1 #
coedge $-1 $447 $306 $192 $310 forward $454 $-1 #
edge $-1 $455 -6.4976411537703047 $314 6.4976411537703047 $309 $458 forward 7 unknown #
coedge $-1 $459 $460 $193 $312 reversed $301 $-1 #
edge $-1 $461 -6.4976411537703047 $315 6.4976411537703047 $311 $462 forward 7 unknown #
coedge $-1 $446 $194 $460 $463 forward $189 $-1 #
vertex $-1 $310 $464 #
vertex $-1 $463 $465 #
straight-curve $-1 0 -25.495851567604099 -6.4976411537703047 -1 0 0 I I #
face $-1 $466 $329 $46 $-1 $467 reversed single #
loop $-1 $-1 $468 $196 #
plane-surface $-1 -43.777722530309624 -32.533102118256629 0 0 1 0 0 0 1 forward_v I I I I #
coedge $-1 $469 $470 $324 $471 forward $197 $-1 #
coedge $-1 $472 $199 $470 $473 forward $125 $-1 #
coedge $-1 $199 $472 $327 $474 forward $125 $-1 #
edge $-1 $330 41.963233384237526 $475 45.592211676381723 $199 $476 forward 7 unknown #
coedge $-1 $201 $200 $320 $471 reversed $79 $-1 #
coedge $-1 $477 $478 $200 $326 forward $479 $-1 #
edge $-1 $480 -45.592211676381723 $331 -41.963233384237526 $325 $481 forward 7 unknown #
coedge $-1 $482 $202 $322 $474 reversed $329 $-1 #
coedge $-1 $202 $482 $477 $483 reversed $329 $-1 #
loop $-1 $-1 $482 $317 #
vertex $-1 $323 $484 #
vertex $-1 $483 $485 #
straight-curve $-1 -41.963233384237526 -25.495851567604099 0 0 0 -1 I I #
face $-1 $486 $487 $47 $-1 $488 reversed single #
loop $-1 $-1 $210 $204 #
plane-surface $-1 -41.963233384237526 29.014476842930364 0 -1 0 0 0 0 1 forward_v I I I I #
coedge $-1 $489 $490 $491 $492 forward $205 $-1 #
coedge $-1 $493 $207 $344 $494 forward $129 $-1 #
coedge $-1 $207 $493 $495 $496 forward $129 $-1 #
edge $-1 $497 -45.592211676381723 $346 -41.963233384237526 $207 $498 forward 7 unknown #
coedge $-1 $209 $208 $499 $500 reversed $82 $-1 #
coedge $-1 $501 $502 $209 $342 forward $487 $-1 #
edge $-1 $345 41.963233384237526 $503 45.592211676381723 $341 $504 forward 7 unknown #
coedge $-1 $491 $210 $502 $505 reversed $334 $-1 #
coedge $-1 $210 $491 $337 $494 reversed $334 $-1 #
vertex $-1 $342 $506 #
vertex $-1 $494 $507 #
straight-curve $-1 -41.963233384237526 25.495851567604099 0 0 0 1 I I #
face $-1 $-1 $508 $48 $-1 $509 reversed single #
loop $-1 $-1 $218 $212 #
plane-surface $-1 0 0 6.4976411537703047 0 0 1 1 0 0 forward_v I I I I #
coedge $-1 $510 $511 $512 $513 reversed $213 $-1 #
coedge $-1 $514 $215 $217 $358 forward $133 $-1 #
coedge $-1 $215 $514 $510 $515 forward $133 $-1 #
coedge $-1 $512 $218 $215 $355 forward $349 $-1 #
edge $-1 $361 1.8983355947095744 $516 8.3882447358464844 $354 $517 forward 7 unknown #
coedge $-1 $518 $519 $216 $357 forward $508 $-1 #
edge $-1 $520 -63.214489439429045 $360 -57.654476994259426 $356 $521 forward 7 unknown #
edge $-1 $361 81.725165311749606 $520 91.184423352763446 $217 $522 forward 7 unknown #
coedge $-1 $218 $512 $518 $523 forward $349 $-1 #
vertex $-1 $219 $524 #
vertex $-1 $219 $525 #
straight-curve $-1 12.709662014743067 -7.0416257599876033 6.4976411537703029 -1 0 0 I I #
coedge $-1 $363 $363 $-1 $526 reversed $222 $-1 #
edge $-1 $527 0 $527 6.2831853071796004 $223 $528 forward 7 unknown #
vertex $-1 $226 $529 #
ellipse-curve $-1 41.765861447506815 -11.677275146513967 3.717634931185497 0.5877852598018023 0 0.80901698891910034 0.40450849445955017 0 -0.29389262990090115 1 I I #
coedge $-1 $367 $367 $-1 $530 reversed $229 $-1 #
edge $-1 $531 0 $531 6.2831853071796004 $230 $532 forward 7 unknown #
vertex $-1 $233 $533 #
ellipse-curve $-1 41.765861447506815 -8.8958855145981488 3.717634931185497 0.5877852598018023 0 0.80901698891910034 0.40450849445955017 0 -0.29389262990090115 1 I I #
face $-1 $-1 $383 $51 $-1 $534 forward single #
loop $-1 $-1 $535 $234 #
plane-surface $-1 45.592211676381723 0 0 -1 0 0 0 0 1 forward_v I I I I #
coedge $-1 $536 $537 $538 $539 reversed $235 $-1 #
coedge $-1 $540 $237 $239 $381 forward $147 $-1 #
coedge $-1 $237 $540 $536 $541 forward $147 $-1 #
coedge $-1 $538 $240 $237 $378 forward $383 $-1 #
edge $-1 $385 -7.330964913766211 $542 -0.84105577262930176 $377 $543 forward 7 unknown #
coedge $-1 $544 $545 $238 $380 forward $372 $-1 #
edge $-1 $546 -63.214489439429045 $384 -57.654476994259426 $379 $547 forward 7 unknown #
edge $-1 $385 81.725165311749606 $546 91.184423352763446 $239 $548 forward 7 unknown #
coedge $-1 $240 $538 $544 $549 forward $383 $-1 #
loop $-1 $-1 $538 $371 #
vertex $-1 $380 $550 #
vertex $-1 $241 $551 #
straight-curve $-1 12.709662014743067 11.416975256963967 6.4976411537703029 -1 0 0 I I #
coedge $-1 $387 $387 $-1 $552 reversed $244 $-1 #
edge $-1 $553 0 $553 6.2831853071796004 $245 $554 forward 7 unknown #
vertex $-1 $248 $555 #
ellipse-curve $-1 41.765861447506815 6.7813258704376054 3.717634931185497 0.5877852598018023 0 0.80901698891910034 0.40450849445955017 0 -0.29389262990090115 1 I I #
coedge $-1 $391 $391 $-1 $556 reversed $251 $-1 #
edge $-1 $557 0 $557 6.2831853071796004 $252 $558 forward 7 unknown #
vertex $-1 $255 $559 #
ellipse-curve $-1 41.765861447506815 9.56271550235342 3.717634931185497 0.5877852598018023 0 0.80901698891910034 0.40450849445955017 0 -0.29389262990090115 1 I I #
face $-1 $-1 $407 $54 $-1 $560 forward single #
loop $-1 $-1 $561 $256 #
plane-surface $-1 -45.592211676381723 0 0 1 0 0 0 0 -1 forward_v I I I I #
coedge $-1 $562 $563 $564 $565 reversed $257 $-1 #
coedge $-1 $566 $259 $261 $405 forward $161 $-1 #
coedge $-1 $259 $566 $562 $567 forward $161 $-1 #
coedge $-1 $564 $262 $259 $402 forward $407 $-1 #
edge $-1 $409 -8.3882447358464844 $568 -1.8983355947095744 $401 $569 forward 7 unknown #
coedge $-1 $570 $571 $260 $404 forward $396 $-1 #
edge $-1 $572 -36.416059454288252 $408 -30.856047009118626 $403 $573 forward 7 unknown #
edge $-1 $409 -9.4592580410138627 $572 8.7502459990790685e-015 $261 $574 forward 7 unknown #
coedge $-1 $262 $564 $570 $575 forward $407 $-1 #
loop $-1 $-1 $564 $395 #
vertex $-1 $404 $576 #
vertex $-1 $263 $577 #
straight-curve $-1 -49.594535823331654 -13.531534901124513 6.4976411537703029 1 0 0 I I #
coedge $-1 $411 $411 $-1 $578 reversed $266 $-1 #
edge $-1 $579 0 $579 6.2831853071796004 $267 $580 forward 7 unknown #
vertex $-1 $270 $581 #
ellipse-curve $-1 -41.765861447506808 -11.677275146513967 3.7176349311854926 -0.5877852598018023 0 0.80901698891910034 0.40450849445955017 0 0.29389262990090115 1 I I #
coedge $-1 $415 $415 $-1 $582 reversed $273 $-1 #
edge $-1 $583 0 $583 6.2831853071796004 $274 $584 forward 7 unknown #
vertex $-1 $277 $585 #
ellipse-curve $-1 -41.765861447506808 -8.8958855145981488 3.7176349311854926 -0.5877852598018023 0 0.80901698891910034 0.40450849445955017 0 0.29389262990090115 1 I I #
face $-1 $-1 $586 $57 $-1 $587 reversed single #
loop $-1 $-1 $284 $278 #
plane-surface $-1 0 0 6.4976411537703047 0 0 1 1 0 0 forward_v I I I I #
coedge $-1 $588 $589 $590 $591 reversed $279 $-1 #
coedge $-1 $592 $281 $283 $429 forward $175 $-1 #
coedge $-1 $281 $592 $588 $593 forward $175 $-1 #
coedge $-1 $590 $284 $281 $426 forward $420 $-1 #
edge $-1 $432 0.84105577262930176 $594 7.330964913766211 $425 $595 forward 7 unknown #
coedge $-1 $596 $597 $282 $428 forward $586 $-1 #
edge $-1 $598 -36.416059454288252 $431 -30.856047009118626 $427 $599 forward 7 unknown #
edge $-1 $432 -9.4592580410138627 $598 8.7502459990790685e-015 $283 $600 forward 7 unknown #
coedge $-1 $284 $590 $596 $601 forward $420 $-1 #
vertex $-1 $428 $602 #
vertex $-1 $285 $603 #
straight-curve $-1 -49.594535823331654 4.9270661158270581 6.4976411537703029 1 0 0 I I #
coedge $-1 $434 $434 $-1 $604 reversed $288 $-1 #
edge $-1 $605 0 $605 6.2831853071796004 $289 $606 forward 7 unknown #
vertex $-1 $292 $607 #
ellipse-curve $-1 -41.765861447506808 6.7813258704376054 3.7176349311854926 -0.5877852598018023 0 0.80901698891910034 0.40450849445955017 0 0.29389262990090115 1 I I #
coedge $-1 $438 $438 $-1 $608 reversed $295 $-1 #
edge $-1 $609 0 $609 6.2831853071796004 $296 $610 forward 7 unknown #
vertex $-1 $299 $611 #
ellipse-curve $-1 -41.765861447506808 9.56271550235342 3.7176349311854926 -0.5877852598018023 0 0.80901698891910034 0.40450849445955017 0 0.29389262990090115 1 I I #
face $-1 $-1 $454 $45 $-1 $612 reversed single #
loop $-1 $-1 $450 $300 #
plane-surface $-1 0 25.495851567604099 0 0 -1 0 0 0 -1 forward_v I I I I #
coedge $-1 $460 $459 $613 $614 forward $301 $-1 #
coedge $-1 $303 $313 $615 $616 forward $189 $-1 #
coedge $-1 $453 $309 $303 $448 reversed $454 $-1 #
edge $-1 $617 -25.495851567604099 $314 25.495851567604099 $447 $618 forward 7 unknown #
coedge $-1 $305 $304 $459 $619 forward $121 $-1 #
coedge $-1 $620 $613 $304 $451 reversed $443 $-1 #
edge $-1 $456 -45.592211676381723 $621 45.592211676381723 $450 $622 forward 7 unknown #
edge $-1 $461 -45.592211676381723 $455 45.592211676381723 $308 $623 forward 7 unknown #
coedge $-1 $306 $447 $620 $624 reversed $454 $-1 #
loop $-1 $-1 $309 $442 #
vertex $-1 $307 $625 #
vertex $-1 $307 $626 #
straight-curve $-1 45.592211676381723 0 6.4976411537703047 0 1 0 I I #
straight-curve $-1 45.592211676381723 -25.495851567604099 0 0 0 -1 I I #
coedge $-1 $445 $311 $449 $619 reversed $301 $-1 #
coedge $-1 $311 $445 $313 $463 reversed $301 $-1 #
vertex $-1 $619 $627 #
straight-curve $-1 -45.592211676381723 -25.495851567604099 0 0 0 -1 I I #
edge $-1 $315 -25.495851567604099 $628 25.495851567604099 $460 $629 forward 7 unknown #
point $-1 45.592211676381723 -25.495851567604099 -6.4976411537703047 #
point $-1 -45.592211676381723 -25.495851567604099 -6.4976411537703047 #
face $-1 $-1 $479 $46 $-1 $630 reversed single #
plane-surface $-1 -41.963233384237526 -29.014476842930364 0 -1 0 0 0 0 1 forward_v I I I I #
coedge $-1 $631 $632 $633 $634 forward $318 $-1 #
coedge $-1 $633 $320 $478 $635 reversed $197 $-1 #
coedge $-1 $320 $633 $321 $473 reversed $197 $-1 #
edge $-1 $475 -6.4976411537703047 $480 6.4976411537703047 $320 $636 forward 7 unknown #
coedge $-1 $322 $321 $632 $637 forward $125 $-1 #
edge $-1 $475 25.495851567604099 $638 32.533102118256629 $470 $639 forward 7 unknown #
edge $-1 $640 -3.518625275326265 $330 3.518625275326265 $327 $641 forward 7 unknown #
vertex $-1 $473 $642 #
straight-curve $-1 0 -25.495851567604099 6.4976411537703047 -1 0 0 I I #
coedge $-1 $643 $325 $328 $483 forward $479 $-1 #
coedge $-1 $325 $643 $469 $635 forward $479 $-1 #
loop $-1 $-1 $325 $466 #
vertex $-1 $471 $644 #
straight-curve $-1 0 -25.495851567604099 -6.4976411537703047 1 0 0 I I #
coedge $-1 $328 $327 $645 $646 forward $329 $-1 #
edge $-1 $331 -3.518625275326265 $647 3.518625275326265 $328 $648 forward 7 unknown #
point $-1 -41.963233384237526 -25.495851567604099 6.4976411537703047 #
point $-1 -41.963233384237526 -25.495851567604099 -6.4976411537703047 #
face $-1 $-1 $649 $47 $-1 $650 reversed single #
loop $-1 $-1 $341 $333 #
plane-surface $-1 0 0 -6.4976411537703047 0 0 1 1 0 0 forward_v I I I I #
coedge $-1 $651 $336 $652 $653 reversed $205 $-1 #
coedge $-1 $336 $651 $493 $654 reversed $205 $-1 #
coedge $-1 $344 $343 $336 $492 reversed $334 $-1 #
edge $-1 $655 -6.4976411537703047 $656 6.4976411537703047 $491 $657 forward 7 unknown #
coedge $-1 $338 $337 $490 $654 forward $129 $-1 #
edge $-1 $346 -3.518625275326265 $655 3.518625275326265 $344 $658 forward 7 unknown #
coedge $-1 $659 $499 $338 $496 reversed $649 $-1 #
edge $-1 $660 -32.533102118256629 $497 -25.495851567604099 $495 $661 forward 7 unknown #
vertex $-1 $500 $662 #
straight-curve $-1 0 25.495851567604099 6.4976411537703047 1 0 0 I I #
coedge $-1 $495 $663 $340 $500 forward $649 $-1 #
edge $-1 $503 -6.4976411537703047 $497 6.4976411537703047 $499 $664 forward 7 unknown #
coedge $-1 $652 $341 $663 $665 forward $487 $-1 #
coedge $-1 $341 $652 $343 $505 forward $487 $-1 #
vertex $-1 $665 $666 #
straight-curve $-1 0 25.495851567604099 -6.4976411537703047 -1 0 0 I I #
edge $-1 $656 -3.518625275326265 $345 3.518625275326265 $343 $667 forward 7 unknown #
point $-1 -41.963233384237526 25.495851567604099 -6.4976411537703047 #
point $-1 -41.963233384237526 25.495851567604099 6.4976411537703047 #
loop $-1 $-1 $356 $348 #
plane-surface $-1 45.592211676381723 0 0 -1 0 0 0 0 1 forward_v I I I I #
coedge $-1 $511 $351 $353 $515 reversed $213 $-1 #
coedge $-1 $351 $510 $668 $669 reversed $213 $-1 #
coedge $-1 $359 $354 $351 $513 forward $349 $-1 #
edge $-1 $516 25.229849203888847 $670 32.882549661638656 $512 $671 forward 7 unknown #
coedge $-1 $353 $352 $519 $672 reversed $133 $-1 #
edge $-1 $673 -91.184423352763446 $516 -81.725165311749606 $510 $674 forward 7 unknown #
vertex $-1 $355 $675 #
straight-curve $-1 37.939511218631921 -5.143290165278029 6.4976411537703029 0 -1 0 I I #
coedge $-1 $668 $356 $359 $523 reversed $508 $-1 #
coedge $-1 $356 $668 $514 $672 forward $508 $-1 #
vertex $-1 $357 $676 #
straight-curve $-1 45.592211676381723 -7.0416257599876033 64.152118148029729 0 0 1 I I #
straight-curve $-1 -28.177535940795458 -7.0416257599876033 54.534488678882283 0.80901698891910034 0 -0.5877852598018023 I I #
edge $-1 $670 -13.531534901124513 $360 -7.0416257599876033 $518 $677 forward 7 unknown #
point $-1 45.592211676381723 -7.0416257599876033 6.4976411537703047 #
point $-1 37.939511218631914 -7.0416257599876033 6.4976411537703029 #
edge $-1 $678 1 $678 0 $363 $-1 forward 7 unknown #
vertex $-1 $364 $679 #
ellipse-curve $-1 40.661837957192411 -11.677275146513967 2.198076989002181 0.5877852598018023 0 0.80901698891910034 0.40450849445955017 0 -0.29389262990090115 1 I I #
point $-1 42.170369941966356 -11.677275146513967 3.4237423012845887 #
edge $-1 $680 1 $680 0 $367 $-1 forward 7 unknown #
vertex $-1 $368 $681 #
ellipse-curve $-1 40.661837957192411 -8.8958855145981488 2.198076989002181 0.5877852598018023 0 0.80901698891910034 0.40450849445955017 0 -0.29389262990090115 1 I I #
point $-1 42.170369941966356 -8.8958855145981488 3.4237423012845887 #
plane-surface $-1 0 0 6.4976411537703047 0 0 1 1 0 0 forward_v I I I I #
coedge $-1 $545 $544 $537 $682 forward $372 $-1 #
coedge $-1 $537 $374 $376 $541 reversed $235 $-1 #
coedge $-1 $374 $536 $535 $682 reversed $235 $-1 #
coedge $-1 $382 $377 $374 $539 forward $383 $-1 #
edge $-1 $542 25.229849203888847 $683 32.882549661638656 $538 $684 forward 7 unknown #
coedge $-1 $376 $375 $545 $685 reversed $147 $-1 #
edge $-1 $686 -91.184423352763446 $542 -81.725165311749606 $536 $687 forward 7 unknown #
vertex $-1 $378 $688 #
straight-curve $-1 37.939511218631921 4.0860103431977564 6.4976411537703029 0 -1 0 I I #
coedge $-1 $535 $379 $382 $549 reversed $372 $-1 #
coedge $-1 $379 $535 $540 $685 forward $372 $-1 #
vertex $-1 $380 $689 #
straight-curve $-1 45.592211676381723 11.416975256963967 64.152118148029729 0 0 1 I I #
straight-curve $-1 -28.177535940795458 11.416975256963967 54.534488678882283 0.80901698891910034 0 -0.5877852598018023 I I #
edge $-1 $683 4.9270661158270581 $384 11.416975256963967 $544 $690 forward 7 unknown #
point $-1 45.592211676381723 11.416975256963967 6.4976411537703047 #
point $-1 37.939511218631914 11.416975256963967 6.4976411537703029 #
edge $-1 $691 1 $691 0 $387 $-1 forward 7 unknown #
vertex $-1 $388 $692 #
ellipse-curve $-1 40.661837957192411 6.7813258704376054 2.198076989002181 0.5877852598018023 0 0.80901698891910034 0.40450849445955017 0 -0.29389262990090115 1 I I #
point $-1 42.170369941966356 6.7813258704376054 3.4237423012845887 #
edge $-1 $693 1 $693 0 $391 $-1 forward 7 unknown #
vertex $-1 $392 $694 #
ellipse-curve $-1 40.661837957192411 9.56271550235342 2.198076989002181 0.5877852598018023 0 0.80901698891910034 0.40450849445955017 0 -0.29389262990090115 1 I I #
point $-1 42.170369941966356 9.56271550235342 3.4237423012845887 #
plane-surface $-1 0 0 6.4976411537703047 0 0 1 1 0 0 forward_v I I I I #
coedge $-1 $571 $570 $563 $695 forward $396 $-1 #
coedge $-1 $563 $398 $400 $567 reversed $257 $-1 #
coedge $-1 $398 $562 $561 $695 reversed $257 $-1 #
coedge $-1 $406 $401 $398 $565 forward $407 $-1 #
edge $-1 $568 -11.655024604699761 $696 -4.0023241469499311 $564 $697 forward 7 unknown #
coedge $-1 $400 $399 $571 $698 reversed $161 $-1 #
edge $-1 $699 -8.7502459990790685e-015 $568 9.4592580410138627 $562 $700 forward 7 unknown #
vertex $-1 $402 $701 #
straight-curve $-1 -37.939511218631893 -5.143290165278029 6.4976411537703047 0 1 0 I I #
coedge $-1 $561 $403 $406 $575 reversed $396 $-1 #
coedge $-1 $403 $561 $566 $698 forward $396 $-1 #
vertex $-1 $404 $702 #
straight-curve $-1 -45.592211676381723 -13.531534901124513 37.353688162888929 0 0 1 I I #
straight-curve $-1 -45.592211676381716 -13.531534901124513 0.93762870860068404 -0.80901698891910034 0 -0.5877852598018023 I I #
edge $-1 $696 7.0416257599876033 $408 13.531534901124513 $570 $703 forward 7 unknown #
point $-1 -45.592211676381723 -13.531534901124513 6.4976411537703047 #
point $-1 -37.939511218631893 -13.531534901124513 6.4976411537703047 #
edge $-1 $704 1 $704 0 $411 $-1 forward 7 unknown #
vertex $-1 $412 $705 #
ellipse-curve $-1 -40.661837957192404 -11.677275146513967 2.198076989002181 -0.5877852598018023 0 0.80901698891910034 0.40450849445955017 0 0.29389262990090115 1 I I #
point $-1 -41.361352953047252 -11.677275146513967 4.0115275610863907 #
edge $-1 $706 1 $706 0 $415 $-1 forward 7 unknown #
vertex $-1 $416 $707 #
ellipse-curve $-1 -40.661837957192404 -8.8958855145981488 2.198076989002181 -0.5877852598018023 0 0.80901698891910034 0.40450849445955017 0 0.29389262990090115 1 I I #
point $-1 -41.361352953047252 -8.8958855145981488 4.0115275610863907 #
loop $-1 $-1 $427 $419 #
plane-surface $-1 -45.592211676381723 0 0 1 0 0 0 0 -1 forward_v I I I I #
coedge $-1 $589 $422 $424 $593 reversed $279 $-1 #
coedge $-1 $422 $588 $708 $709 reversed $279 $-1 #
coedge $-1 $430 $425 $422 $591 forward $420 $-1 #
edge $-1 $594 -11.655024604699761 $710 -4.0023241469499311 $590 $711 forward 7 unknown #
coedge $-1 $424 $423 $597 $712 reversed $175 $-1 #
edge $-1 $713 -8.7502459990790685e-015 $594 9.4592580410138627 $588 $714 forward 7 unknown #
vertex $-1 $426 $715 #
straight-curve $-1 -37.939511218631893 4.0860103431977564 6.4976411537703047 0 1 0 I I #
coedge $-1 $708 $427 $430 $601 reversed $586 $-1 #
coedge $-1 $427 $708 $592 $712 forward $586 $-1 #
vertex $-1 $428 $716 #
straight-curve $-1 -45.592211676381723 4.9270661158270581 37.353688162888929 0 0 1 I I #
straight-curve $-1 -45.592211676381716 4.9270661158270581 0.93762870860068404 -0.80901698891910034 0 -0.5877852598018023 I I #
edge $-1 $710 -11.416975256963967 $431 -4.9270661158270581 $596 $717 forward 7 unknown #
point $-1 -45.592211676381723 4.9270661158270581 6.4976411537703047 #
point $-1 -37.939511218631893 4.9270661158270581 6.4976411537703047 #
edge $-1 $718 1 $718 0 $434 $-1 forward 7 unknown #
vertex $-1 $435 $719 #
ellipse-curve $-1 -40.661837957192404 6.7813258704376054 2.198076989002181 -0.5877852598018023 0 0.80901698891910034 0.40450849445955017 0 0.29389262990090115 1 I I #
point $-1 -41.361352953047252 6.7813258704376054 4.0115275610863907 #
edge $-1 $720 1 $720 0 $438 $-1 forward 7 unknown #
vertex $-1 $439 $721 #
ellipse-curve $-1 -40.661837957192404 9.56271550235342 2.198076989002181 -0.5877852598018023 0 0.80901698891910034 0.40450849445955017 0 0.29389262990090115 1 I I #
point $-1 -41.361352953047252 9.56271550235342 4.0115275610863907 #
plane-surface $-1 45.592211676381723 0 0 -1 0 0 0 0 1 forward_v I I I I #
coedge $-1 $450 $615 $445 $614 reversed $443 $-1 #
edge $-1 $621 -6.4976411537703047 $628 6.4976411537703047 $613 $722 forward 7 unknown #
coedge $-1 $613 $620 $446 $616 reversed $443 $-1 #
edge $-1 $628 -45.592211676381723 $617 45.592211676381723 $615 $723 forward 7 unknown #
vertex $-1 $448 $724 #
straight-curve $-1 45.592211676381723 0 -6.4976411537703047 0 -1 0 I I #
edge $-1 $621 -25.495851567604099 $461 25.495851567604099 $459 $725 forward 7 unknown #
coedge $-1 $615 $450 $453 $624 forward $443 $-1 #
vertex $-1 $451 $726 #
straight-curve $-1 0 25.495851567604099 6.4976411537703047 -1 0 0 I I #
straight-curve $-1 0 -25.495851567604099 6.4976411537703047 1 0 0 I I #
edge $-1 $456 -6.4976411537703047 $617 6.4976411537703047 $453 $727 forward 7 unknown #
point $-1 45.592211676381723 -25.495851567604099 6.4976411537703047 #
point $-1 45.592211676381723 25.495851567604099 6.4976411537703047 #
point $-1 -45.592211676381723 -25.495851567604099 6.4976411537703047 #
vertex $-1 $616 $728 #
straight-curve $-1 -45.592211676381723 0 -6.4976411537703047 0 1 0 I I #
plane-surface $-1 0 0 -6.4976411537703047 0 0 1 1 0 0 forward_v I I I I #
coedge $-1 $645 $468 $643 $729 reversed $318 $-1 #
coedge $-1 $468 $645 $472 $637 reversed $318 $-1 #
coedge $-1 $470 $469 $468 $634 reversed $197 $-1 #
edge $-1 $638 -6.4976411537703047 $730 6.4976411537703047 $633 $731 forward 7 unknown #
edge $-1 $730 -32.533102118256629 $480 -25.495851567604099 $469 $732 forward 7 unknown #
straight-curve $-1 -45.592211676381723 -25.495851567604099 0 0 0 -1 I I #
edge $-1 $638 -1.8144891460720984 $640 1.8144891460720984 $632 $733 forward 7 unknown #
vertex $-1 $473 $734 #
straight-curve $-1 -45.592211676381723 0 6.4976411537703047 0 -1 0 I I #
vertex $-1 $474 $735 #
straight-curve $-1 -41.963233384237526 -29.014476842930364 6.4976411537703047 0 1 0 I I #
point $-1 -45.592211676381723 -25.495851567604099 6.4976411537703047 #
coedge $-1 $478 $477 $631 $729 forward $479 $-1 #
point $-1 -45.592211676381723 -25.495851567604099 -6.4976411537703047 #
coedge $-1 $632 $631 $482 $646 reversed $318 $-1 #
edge $-1 $640 -6.4976411537703047 $647 6.4976411537703047 $482 $736 forward 7 unknown #
vertex $-1 $646 $737 #
straight-curve $-1 -41.963233384237526 -29.014476842930364 -6.4976411537703047 0 -1 0 I I #
loop $-1 $-1 $499 $486 #
plane-surface $-1 -45.592211676381723 0 0 1 0 0 0 0 -1 forward_v I I I I #
coedge $-1 $490 $489 $659 $738 reversed $205 $-1 #
coedge $-1 $502 $501 $489 $653 forward $487 $-1 #
edge $-1 $739 -1.8144891460720984 $656 1.8144891460720984 $489 $740 forward 7 unknown #
edge $-1 $655 -1.8144891460720984 $660 1.8144891460720984 $490 $741 forward 7 unknown #
vertex $-1 $494 $742 #
vertex $-1 $505 $743 #
straight-curve $-1 -41.963233384237526 32.533102118256629 0 0 0 -1 I I #
straight-curve $-1 -41.963233384237526 29.014476842930364 6.4976411537703047 0 1 0 I I #
coedge $-1 $663 $495 $651 $738 forward $649 $-1 #
vertex $-1 $654 $744 #
straight-curve $-1 -45.592211676381723 0 6.4976411537703047 0 -1 0 I I #
point $-1 -45.592211676381723 25.495851567604099 6.4976411537703047 #
coedge $-1 $499 $659 $501 $665 reversed $649 $-1 #
straight-curve $-1 -45.592211676381723 25.495851567604099 0 0 0 1 I I #
edge $-1 $503 -3.518625275326265 $739 3.518625275326265 $663 $745 forward 7 unknown #
point $-1 -45.592211676381723 25.495851567604099 -6.4976411537703047 #
straight-curve $-1 -41.963233384237526 29.014476842930364 -6.4976411537703047 0 -1 0 I I #
coedge $-1 $519 $518 $511 $669 forward $508 $-1 #
edge $-1 $670 57.654476994259426 $673 63.214489439429045 $668 $746 forward 7 unknown #
vertex $-1 $523 $747 #
straight-curve $-1 12.709662014743067 -13.531534901124513 6.4976411537703029 1 0 0 I I #
edge $-1 $673 -8.3882447358464844 $520 -1.8983355947095744 $519 $748 forward 7 unknown #
vertex $-1 $672 $749 #
straight-curve $-1 -28.177535940795458 -13.531534901124513 54.534488678882283 -0.80901698891910034 0 0.5877852598018023 I I #
point $-1 37.939511218631914 -13.531534901124513 6.4976411537703029 #
point $-1 45.59221167638173 -7.0416257599876033 0.93762870860068404 #
straight-curve $-1 45.592211676381723 0 6.4976411537703047 0 1 0 I I #
vertex $-1 $526 $750 #
point $-1 41.066346451651967 -11.677275146513967 1.9041843591012797 #
vertex $-1 $530 $751 #
point $-1 41.066346451651967 -8.8958855145981488 1.9041843591012797 #
edge $-1 $683 57.654476994259426 $686 63.214489439429045 $535 $752 forward 7 unknown #
vertex $-1 $549 $753 #
straight-curve $-1 12.709662014743067 4.9270661158270581 6.4976411537703029 1 0 0 I I #
edge $-1 $686 0.84105577262930176 $546 7.330964913766211 $545 $754 forward 7 unknown #
vertex $-1 $685 $755 #
straight-curve $-1 -28.177535940795458 4.9270661158270581 54.534488678882283 -0.80901698891910034 0 0.5877852598018023 I I #
point $-1 37.939511218631914 4.9270661158270581 6.4976411537703029 #
point $-1 45.59221167638173 11.416975256963967 0.93762870860068404 #
straight-curve $-1 45.592211676381723 0 6.4976411537703047 0 1 0 I I #
vertex $-1 $552 $756 #
point $-1 41.066346451651967 6.7813258704376054 1.9041843591012797 #
vertex $-1 $556 $757 #
point $-1 41.066346451651967 9.56271550235342 1.9041843591012797 #
edge $-1 $696 30.856047009118626 $699 36.416059454288252 $561 $758 forward 7 unknown #
vertex $-1 $575 $759 #
straight-curve $-1 -49.594535823331654 -7.0416257599876033 6.4976411537703029 -1 0 0 I I #
edge $-1 $699 1.8983355947095744 $572 8.3882447358464844 $571 $760 forward 7 unknown #
vertex $-1 $698 $761 #
straight-curve $-1 -45.592211676381716 -7.0416257599876033 0.93762870860068404 0.80901698891910034 0 0.5877852598018023 I I #
point $-1 -37.939511218631893 -7.0416257599876033 6.4976411537703047 #
point $-1 -45.592211676381723 -13.531534901124513 0.93762870860067893 #
straight-curve $-1 -45.592211676381723 0 6.4976411537703047 0 -1 0 I I #
vertex $-1 $578 $762 #
point $-1 -40.257329462732855 -11.677275146513967 2.4919696189030818 #
vertex $-1 $582 $763 #
point $-1 -40.257329462732855 -8.8958855145981488 2.4919696189030818 #
coedge $-1 $597 $596 $589 $709 forward $586 $-1 #
edge $-1 $710 30.856047009118626 $713 36.416059454288252 $708 $764 forward 7 unknown #
vertex $-1 $601 $765 #
straight-curve $-1 -49.594535823331654 11.416975256963967 6.4976411537703029 -1 0 0 I I #
edge $-1 $713 -7.330964913766211 $598 -0.84105577262930176 $597 $766 forward 7 unknown #
vertex $-1 $712 $767 #
straight-curve $-1 -45.592211676381716 11.416975256963967 0.93762870860068404 0.80901698891910034 0 0.5877852598018023 I I #
point $-1 -37.939511218631893 11.416975256963967 6.4976411537703047 #
point $-1 -45.592211676381723 4.9270661158270581 0.93762870860067893 #
straight-curve $-1 -45.592211676381723 0 6.4976411537703047 0 -1 0 I I #
vertex $-1 $604 $768 #
point $-1 -40.257329462732855 6.7813258704376054 2.4919696189030818 #
vertex $-1 $608 $769 #
point $-1 -40.257329462732855 9.56271550235342 2.4919696189030818 #
straight-curve $-1 -45.592211676381723 25.495851567604099 0 0 0 -1 I I #
straight-curve $-1 0 25.495851567604099 -6.4976411537703047 1 0 0 I I #
point $-1 45.592211676381723 25.495851567604099 -6.4976411537703047 #
straight-curve $-1 -45.592211676381723 0 6.4976411537703047 0 -1 0 I I #
point $-1 -45.592211676381723 25.495851567604099 6.4976411537703047 #
straight-curve $-1 45.592211676381723 25.495851567604099 0 0 0 -1 I I #
point $-1 -45.592211676381723 25.495851567604099 -6.4976411537703047 #
edge $-1 $647 -1.8144891460720984 $730 1.8144891460720984 $631 $770 forward 7 unknown #
vertex $-1 $635 $771 #
straight-curve $-1 -45.592211676381723 -32.533102118256629 0 0 0 -1 I I #
straight-curve $-1 -45.592211676381723 0 -6.4976411537703047 0 1 0 I I #
straight-curve $-1 -43.777722530309624 -32.533102118256629 6.4976411537703047 1 0 0 I I #
point $-1 -45.592211676381723 -32.533102118256629 6.4976411537703047 #
point $-1 -41.963233384237526 -32.533102118256629 6.4976411537703047 #
straight-curve $-1 -41.963233384237526 -32.533102118256629 0 0 0 -1 I I #
point $-1 -41.963233384237526 -32.533102118256629 -6.4976411537703047 #
edge $-1 $660 -6.4976411537703047 $739 6.4976411537703047 $651 $772 forward 7 unknown #
vertex $-1 $653 $773 #
straight-curve $-1 -43.777722530309624 32.533102118256629 -6.4976411537703047 1 0 0 I I #
straight-curve $-1 -43.777722530309624 32.533102118256629 6.4976411537703047 -1 0 0 I I #
point $-1 -41.963233384237526 32.533102118256629 6.4976411537703047 #
point $-1 -41.963233384237526 32.533102118256629 -6.4976411537703047 #
point $-1 -45.592211676381723 32.533102118256629 6.4976411537703047 #
straight-curve $-1 -45.592211676381723 29.014476842930364 -6.4976411537703047 0 1 0 I I #
straight-curve $-1 45.592211676381723 -13.531534901124513 64.152118148029729 0 0 -1 I I #
point $-1 45.592211676381723 -13.531534901124513 6.4976411537703047 #
straight-curve $-1 45.592211676381723 -5.143290165278029 0.93762870860068759 0 1 0 I I #
point $-1 45.59221167638173 -13.531534901124513 0.93762870860068404 #
point $-1 40.367945327291515 -11.677275146513967 1.7935684945426307 #
point $-1 40.367945327291515 -8.8958855145981488 1.7935684945426307 #
straight-curve $-1 45.592211676381723 4.9270661158270581 64.152118148029729 0 0 -1 I I #
point $-1 45.592211676381723 4.9270661158270581 6.4976411537703047 #
straight-curve $-1 45.592211676381723 4.0860103431977564 0.93762870860068759 0 1 0 I I #
point $-1 45.59221167638173 4.9270661158270581 0.93762870860068404 #
point $-1 40.367945327291515 6.7813258704376054 1.7935684945426307 #
point $-1 40.367945327291515 9.56271550235342 1.7935684945426307 #
straight-curve $-1 -45.592211676381723 -7.0416257599876033 37.353688162888929 0 0 -1 I I #
point $-1 -45.592211676381723 -7.0416257599876033 6.4976411537703047 #
straight-curve $-1 -45.592211676381723 -5.143290165278029 0.93762870860068381 0 -1 0 I I #
point $-1 -45.592211676381723 -7.0416257599876033 0.93762870860067893 #
point $-1 -40.367945327291508 -11.677275146513967 1.7935684945426307 #
point $-1 -40.367945327291508 -8.8958855145981488 1.7935684945426307 #
straight-curve $-1 -45.592211676381723 11.416975256963967 37.353688162888929 0 0 -1 I I #
point $-1 -45.592211676381723 11.416975256963967 6.4976411537703047 #
straight-curve $-1 -45.592211676381723 4.0860103431977564 0.93762870860068381 0 -1 0 I I #
point $-1 -45.592211676381723 11.416975256963967 0.93762870860067893 #
point $-1 -40.367945327291508 6.7813258704376054 1.7935684945426307 #
point $-1 -40.367945327291508 9.56271550235342 1.7935684945426307 #
straight-curve $-1 -43.777722530309624 -32.533102118256629 -6.4976411537703047 -1 0 0 I I #
point $-1 -45.592211676381723 -32.533102118256629 -6.4976411537703047 #
straight-curve $-1 -45.592211676381723 32.533102118256629 0 0 0 -1 I I #
point $-1 -45.592211676381723 32.533102118256629 -6.4976411537703047 #
End-of-ACIS-data 