500 0 15 0           
7 Unknown 11 ACIS 5.0 NT 24 Fri Mar 26 17:59:55 1999 
-1 9.9999999999999995e-007 1e-010 
body $-1 $15 $-1 $16 #
body $-1 $17 $-1 $18 #
body $-1 $19 $-1 $20 #
body $-1 $21 $-1 $22 #
body $-1 $23 $-1 $24 #
body $-1 $25 $-1 $26 #
body $-1 $27 $-1 $28 #
body $-1 $29 $-1 $30 #
body $-1 $31 $-1 $32 #
body $-1 $33 $-1 $34 #
body $-1 $35 $-1 $36 #
body $-1 $37 $-1 $38 #
body $-1 $39 $-1 $40 #
body $-1 $41 $-1 $42 #
body $-1 $43 $-1 $44 #
lump $-1 $-1 $45 $0 #
transform $-1 1 0 0 0 1 0 0 0 1 71.897946104312268 32.809485723867006 14.156631733443675 1 rotate no_reflect no_shear #
lump $-1 $-1 $46 $1 #
transform $-1 1 0 0 0 1 0 0 0 1 71.897946104312268 32.809485723867006 14.156631733443675 1 rotate no_reflect no_shear #
lump $-1 $-1 $47 $2 #
transform $-1 1 0 0 0 1 0 0 0 1 71.897946104312268 32.809485723867006 14.156631733443675 1 rotate no_reflect no_shear #
lump $-1 $-1 $48 $3 #
transform $-1 1 0 0 0 1 0 0 0 1 71.897946104312268 32.809485723867006 14.156631733443675 1 rotate no_reflect no_shear #
lump $-1 $-1 $49 $4 #
transform $-1 1 0 0 0 1 0 0 0 1 71.897946104312268 32.809485723867006 14.156631733443675 1 rotate no_reflect no_shear #
lump $-1 $-1 $50 $5 #
transform $-1 1 0 0 0 1 0 0 0 1 71.897946104312268 32.809485723867006 14.156631733443675 1 rotate no_reflect no_shear #
lump $-1 $-1 $51 $6 #
transform $-1 1 0 0 0 1 0 0 0 1 71.897946104312268 32.809485723867006 14.156631733443675 1 rotate no_reflect no_shear #
lump $-1 $-1 $52 $7 #
transform $-1 1 0 0 0 1 0 0 0 1 71.897946104312268 32.809485723867006 14.156631733443675 1 rotate no_reflect no_shear #
lump $-1 $-1 $53 $8 #
transform $-1 1 0 0 0 1 0 0 0 1 71.897946104312268 32.809485723867006 14.156631733443675 1 rotate no_reflect no_shear #
lump $-1 $-1 $54 $9 #
transform $-1 1 0 0 0 1 0 0 0 1 71.897946104312268 32.809485723867006 14.156631733443675 1 rotate no_reflect no_shear #
lump $-1 $-1 $55 $10 #
transform $-1 1 0 0 0 1 0 0 0 1 71.897946104312268 32.809485723867006 14.156631733443675 1 rotate no_reflect no_shear #
lump $-1 $-1 $56 $11 #
transform $-1 1 0 0 0 1 0 0 0 1 71.897946104312268 32.809485723867006 14.156631733443675 1 rotate no_reflect no_shear #
lump $-1 $-1 $57 $12 #
transform $-1 1 0 0 0 1 0 0 0 1 71.897946104312268 32.809485723867006 14.156631733443675 1 rotate no_reflect no_shear #
lump $-1 $-1 $58 $13 #
transform $-1 1 0 0 0 1 0 0 0 1 71.897946104312268 32.809485723867006 14.156631733443675 1 rotate no_reflect no_shear #
lump $-1 $-1 $59 $14 #
transform $-1 1 0 0 0 1 0 0 0 1 71.897946104312268 32.809485723867006 14.156631733443675 1 rotate no_reflect no_shear #
shell $-1 $-1 $-1 $60 $-1 $15 #
shell $-1 $-1 $-1 $61 $-1 $17 #
shell $-1 $-1 $-1 $62 $-1 $19 #
shell $-1 $-1 $-1 $63 $-1 $21 #
shell $-1 $-1 $-1 $64 $-1 $23 #
shell $-1 $-1 $-1 $65 $-1 $25 #
shell $-1 $-1 $-1 $66 $-1 $27 #
shell $-1 $-1 $-1 $67 $-1 $29 #
shell $-1 $-1 $-1 $68 $-1 $31 #
shell $-1 $-1 $-1 $69 $-1 $33 #
shell $-1 $-1 $-1 $70 $-1 $35 #
shell $-1 $-1 $-1 $71 $-1 $37 #
shell $-1 $-1 $-1 $72 $-1 $39 #
shell $-1 $-1 $-1 $73 $-1 $41 #
shell $-1 $-1 $-1 $74 $-1 $43 #
face $-1 $75 $76 $45 $-1 $77 forward single #
face $-1 $78 $79 $46 $-1 $80 forward single #
face $-1 $81 $82 $47 $-1 $83 forward single #
face $-1 $84 $85 $48 $-1 $86 reversed single #
face $-1 $87 $88 $49 $-1 $89 forward single #
face $-1 $90 $91 $50 $-1 $92 forward single #
face $-1 $93 $94 $51 $-1 $95 reversed single #
face $-1 $96 $97 $52 $-1 $98 forward single #
face $-1 $99 $100 $53 $-1 $101 forward single #
face $-1 $102 $103 $54 $-1 $104 reversed single #
face $-1 $105 $106 $55 $-1 $107 forward single #
face $-1 $108 $109 $56 $-1 $110 forward single #
face $-1 $111 $112 $57 $-1 $113 reversed single #
face $-1 $114 $115 $58 $-1 $116 forward single #
face $-1 $117 $118 $59 $-1 $119 forward single #
face $-1 $120 $121 $45 $-1 $122 reversed single #
loop $-1 $-1 $123 $60 #
plane-surface $-1 0 0 14.156631733443675 0 0 1 1 0 0 forward_v I I I I #
face $-1 $124 $125 $46 $-1 $126 reversed single #
loop $-1 $-1 $127 $61 #
plane-surface $-1 0 -32.809485723867006 0 0 1 0 0 0 1 forward_v I I I I #
face $-1 $128 $129 $47 $-1 $130 reversed single #
loop $-1 $-1 $131 $62 #
plane-surface $-1 0 32.809485723867006 0 0 -1 0 0 0 -1 forward_v I I I I #
face $-1 $132 $133 $48 $-1 $134 reversed single #
loop $-1 $-1 $135 $63 #
plane-surface $-1 36.585184263465592 -3.593011658239126 203.27510649704467 0 -1 0 -0.57357644374324357 0 -0.81915203911291934 forward_v I I I I #
face $-1 $136 $137 $49 $-1 $138 forward single #
loop $-1 $139 $140 $64 #
cone-surface $-1 62.931224694821005 -9.8571863595121023 7.146716935427178 -0.57357644374324357 0 -0.81915203911291934 0.81915203911291934 0 -0.57357644374324357 1 I I 0 1 1 forward I I I I #
face $-1 $141 $142 $50 $-1 $143 forward single #
loop $-1 $144 $145 $65 #
cone-surface $-1 62.931224694821005 -6.0986815387483162 7.146716935427178 -0.57357644374324357 0 -0.81915203911291934 0.81915203911291934 0 -0.57357644374324357 1 I I 0 1 1 forward I I I I #
face $-1 $146 $147 $51 $-1 $148 reversed single #
loop $-1 $-1 $149 $66 #
plane-surface $-1 36.585184263465592 14.76670366733415 203.27510649704467 0 -1 0 -0.57357644374324357 0 -0.81915203911291934 forward_v I I I I #
face $-1 $150 $151 $52 $-1 $152 forward single #
loop $-1 $153 $154 $67 #
cone-surface $-1 62.931224694821005 8.5025289660611776 7.146716935427178 -0.57357644374324357 0 -0.81915203911291934 0.81915203911291934 0 -0.57357644374324357 1 I I 0 1 1 forward I I I I #
face $-1 $155 $156 $53 $-1 $157 forward single #
loop $-1 $158 $159 $68 #
cone-surface $-1 62.931224694821005 12.26103378682496 7.146716935427178 -0.57357644374324357 0 -0.81915203911291934 0.81915203911291934 0 -0.57357644374324357 1 I I 0 1 1 forward I I I I #
face $-1 $160 $161 $54 $-1 $162 reversed single #
loop $-1 $-1 $163 $69 #
plane-surface $-1 -188.23126779919019 -16.092738245160064 86.903808592150256 0 1 0 -0.80901700255871778 0 0.5877852410284794 forward_v I I I I #
face $-1 $164 $165 $55 $-1 $166 forward single #
loop $-1 $167 $168 $70 #
cone-surface $-1 -67.1531516360008 -13.729307898416074 7.9298897151784704 0.80901700255871778 0 -0.5877852410284794 0.2938926205142397 0 0.40450850127935889 1 I I 0 1 0.5 forward I I I I #
face $-1 $169 $170 $56 $-1 $171 forward single #
loop $-1 $172 $173 $71 #
cone-surface $-1 -67.1531516360008 -10.184162378300094 7.9298897151784704 0.80901700255871778 0 -0.5877852410284794 0.2938926205142397 0 0.40450850127935889 1 I I 0 1 0.5 forward I I I I #
face $-1 $174 $175 $57 $-1 $176 reversed single #
loop $-1 $-1 $177 $72 #
plane-surface $-1 -188.23126779919019 2.2669770804132199 86.903808592150256 0 1 0 -0.80901700255871778 0 0.5877852410284794 forward_v I I I I #
face $-1 $178 $179 $58 $-1 $180 forward single #
loop $-1 $181 $182 $73 #
cone-surface $-1 -67.1531516360008 4.6304074271572162 7.9298897151784704 0.80901700255871778 0 -0.5877852410284794 0.2938926205142397 0 0.40450850127935889 1 I I 0 1 0.5 forward I I I I #
face $-1 $183 $184 $59 $-1 $185 forward single #
loop $-1 $186 $187 $74 #
cone-surface $-1 -67.1531516360008 8.1755529472731965 7.9298897151784704 0.80901700255871778 0 -0.5877852410284794 0.2938926205142397 0 0.40450850127935889 1 I I 0 1 0.5 forward I I I I #
face $-1 $188 $189 $45 $-1 $190 reversed single #
loop $-1 $-1 $191 $75 #
plane-surface $-1 0 0 -14.156631733443675 0 0 1 1 0 0 forward_v I I I I #
coedge $-1 $192 $193 $194 $195 forward $76 $-1 #
face $-1 $196 $197 $46 $-1 $198 forward single #
loop $-1 $-1 $199 $78 #
plane-surface $-1 -71.897946104312268 0 0 1 0 0 0 0 -1 forward_v I I I I #
coedge $-1 $200 $201 $202 $203 forward $79 $-1 #
face $-1 $204 $205 $47 $-1 $206 forward single #
loop $-1 $-1 $207 $81 #
plane-surface $-1 71.897946104312268 0 0 -1 0 0 0 0 1 forward_v I I I I #
coedge $-1 $208 $209 $210 $211 forward $82 $-1 #
face $-1 $212 $213 $48 $-1 $214 reversed single #
loop $-1 $-1 $215 $84 #
plane-surface $-1 -45.892752214444059 -7.977933949130211 85.484408178288334 0.57357644374324357 0 0.81915203911291934 0.81915203911291934 0 -0.57357644374324357 forward_v I I I I #
coedge $-1 $216 $217 $218 $219 reversed $85 $-1 #
face $-1 $-1 $220 $49 $-1 $221 forward single #
loop $-1 $222 $223 $87 #
cone-surface $-1 61.639754323572163 -9.8571863595121023 5.3023061343867255 -0.57357644374324357 0 -0.81915203911291934 0.40957601955645967 0 -0.28678822187162178 1 I I -0.70710678118654746 0.70710678118654746 0.5 forward I I I I #
loop $-1 $-1 $224 $64 #
coedge $-1 $140 $140 $225 $226 reversed $88 $-1 #
face $-1 $-1 $227 $50 $-1 $228 forward single #
loop $-1 $229 $230 $90 #
cone-surface $-1 61.639754323572163 -6.0986815387483162 5.3023061343867255 -0.57357644374324357 0 -0.81915203911291934 0.40957601955645967 0 -0.28678822187162178 1 I I -0.70710678118654746 0.70710678118654746 0.5 forward I I I I #
loop $-1 $-1 $231 $65 #
coedge $-1 $145 $145 $232 $233 reversed $91 $-1 #
face $-1 $234 $235 $51 $-1 $236 reversed single #
loop $-1 $-1 $237 $93 #
plane-surface $-1 -45.892752214444059 10.381781376443065 85.484408178288334 0.57357644374324357 0 0.81915203911291934 0.81915203911291934 0 -0.57357644374324357 forward_v I I I I #
coedge $-1 $238 $239 $240 $241 reversed $94 $-1 #
face $-1 $-1 $242 $52 $-1 $243 forward single #
loop $-1 $244 $245 $96 #
cone-surface $-1 61.639754323572163 8.5025289660611776 5.3023061343867255 -0.57357644374324357 0 -0.81915203911291934 0.40957601955645967 0 -0.28678822187162178 1 I I -0.70710678118654746 0.70710678118654746 0.5 forward I I I I #
loop $-1 $-1 $246 $67 #
coedge $-1 $154 $154 $247 $248 reversed $97 $-1 #
face $-1 $-1 $249 $53 $-1 $250 forward single #
loop $-1 $251 $252 $99 #
cone-surface $-1 61.639754323572163 12.26103378682496 5.3023061343867255 -0.57357644374324357 0 -0.81915203911291934 0.40957601955645967 0 -0.28678822187162178 1 I I -0.70710678118654746 0.70710678118654746 0.5 forward I I I I #
loop $-1 $-1 $253 $68 #
coedge $-1 $159 $159 $254 $255 reversed $100 $-1 #
face $-1 $256 $257 $54 $-1 $258 reversed single #
loop $-1 $-1 $259 $102 #
plane-surface $-1 -71.897946104312283 -11.956735138358084 2.3827054313986338 -0.80901700255871778 0 0.5877852410284794 0.5877852410284794 0 0.80901700255871778 forward_v I I I I #
coedge $-1 $260 $261 $262 $263 reversed $103 $-1 #
face $-1 $-1 $264 $55 $-1 $265 forward single #
loop $-1 $266 $267 $105 #
cone-surface $-1 -66.48323188183727 -13.729307898416074 7.443164537678669 0.80901700255871778 0 -0.5877852410284794 0.14694631025711985 0 0.20225425063967944 1 I I -0.70710678118654746 0.70710678118654746 0.25 forward I I I I #
loop $-1 $-1 $268 $70 #
coedge $-1 $168 $168 $269 $270 reversed $106 $-1 #
face $-1 $-1 $271 $56 $-1 $272 forward single #
loop $-1 $273 $274 $108 #
cone-surface $-1 -66.48323188183727 -10.184162378300094 7.443164537678669 0.80901700255871778 0 -0.5877852410284794 0.14694631025711985 0 0.20225425063967944 1 I I -0.70710678118654746 0.70710678118654746 0.25 forward I I I I #
loop $-1 $-1 $275 $71 #
coedge $-1 $173 $173 $276 $277 reversed $109 $-1 #
face $-1 $278 $279 $57 $-1 $280 reversed single #
loop $-1 $-1 $281 $111 #
plane-surface $-1 -71.897946104312283 6.4029801872151992 2.3827054313986338 -0.80901700255871778 0 0.5877852410284794 0.5877852410284794 0 0.80901700255871778 forward_v I I I I #
coedge $-1 $282 $283 $284 $285 reversed $112 $-1 #
face $-1 $-1 $286 $58 $-1 $287 forward single #
loop $-1 $288 $289 $114 #
cone-surface $-1 -66.48323188183727 4.6304074271572162 7.443164537678669 0.80901700255871778 0 -0.5877852410284794 0.14694631025711985 0 0.20225425063967944 1 I I -0.70710678118654746 0.70710678118654746 0.25 forward I I I I #
loop $-1 $-1 $290 $73 #
coedge $-1 $182 $182 $291 $292 reversed $115 $-1 #
face $-1 $-1 $293 $59 $-1 $294 forward single #
loop $-1 $295 $296 $117 #
cone-surface $-1 -66.48323188183727 8.1755529472731965 7.443164537678669 0.80901700255871778 0 -0.5877852410284794 0.14694631025711985 0 0.20225425063967944 1 I I -0.70710678118654746 0.70710678118654746 0.25 forward I I I I #
loop $-1 $-1 $297 $74 #
coedge $-1 $187 $187 $298 $299 reversed $118 $-1 #
face $-1 $300 $301 $45 $-1 $302 reversed single #
loop $-1 $-1 $303 $120 #
plane-surface $-1 0 -32.809485723867006 0 0 1 0 0 0 1 forward_v I I I I #
coedge $-1 $304 $305 $306 $307 forward $121 $-1 #
coedge $-1 $308 $123 $309 $310 forward $76 $-1 #
coedge $-1 $123 $308 $311 $312 forward $76 $-1 #
coedge $-1 $313 $314 $123 $195 reversed $315 $-1 #
edge $-1 $316 -32.809485723867006 $317 32.809485723867006 $194 $318 forward 7 unknown #
face $-1 $319 $320 $46 $-1 $321 reversed single #
loop $-1 $-1 $322 $124 #
plane-surface $-1 0 -40.034370923013867 13.516055537895747 0 0 1 1 0 0 forward_v I I I I #
coedge $-1 $323 $324 $201 $325 forward $125 $-1 #
coedge $-1 $326 $127 $327 $328 reversed $79 $-1 #
coedge $-1 $127 $326 $199 $325 reversed $79 $-1 #
coedge $-1 $329 $322 $127 $203 reversed $197 $-1 #
edge $-1 $330 -71.897946104312268 $331 71.897946104312268 $202 $332 forward 7 unknown #
face $-1 $333 $334 $47 $-1 $335 reversed single #
loop $-1 $-1 $336 $128 #
plane-surface $-1 0 40.034370923013874 13.516055537895747 0 0 1 1 0 0 forward_v I I I I #
coedge $-1 $337 $338 $209 $339 forward $129 $-1 #
coedge $-1 $340 $131 $341 $342 reversed $82 $-1 #
coedge $-1 $131 $340 $207 $339 reversed $82 $-1 #
coedge $-1 $336 $343 $131 $211 reversed $205 $-1 #
edge $-1 $344 -71.897946104312268 $345 71.897946104312268 $210 $346 forward 7 unknown #
face $-1 $347 $348 $48 $-1 $349 forward single #
loop $-1 $-1 $350 $132 #
plane-surface $-1 36.585184263465592 -12.362856240021296 203.27510649704467 0 1 0 0.57357644374324357 0 0.81915203911291934 forward_v I I I I #
coedge $-1 $351 $352 $353 $354 reversed $133 $-1 #
coedge $-1 $217 $135 $355 $356 reversed $85 $-1 #
coedge $-1 $135 $216 $351 $357 reversed $85 $-1 #
coedge $-1 $353 $358 $135 $219 forward $348 $-1 #
edge $-1 $359 -53.605353972579472 $360 -37.681275452351464 $218 $361 forward 7 unknown #
loop $-1 $-1 $225 $136 #
plane-surface $-1 -45.892752214444059 -7.977933949130211 85.484408178288334 0.57357644374324357 0 0.81915203911291934 0.81915203911291934 0 -0.57357644374324357 forward_v I I I I #
loop $-1 $-1 $362 $87 #
coedge $-1 $223 $223 $224 $363 reversed $137 $-1 #
coedge $-1 $224 $224 $223 $363 forward $139 $-1 #
coedge $-1 $225 $225 $140 $226 forward $220 $-1 #
edge $-1 $364 0 $364 6.2831853071796004 $225 $365 forward 7 unknown #
loop $-1 $-1 $232 $141 #
plane-surface $-1 -45.892752214444059 -7.977933949130211 85.484408178288334 0.57357644374324357 0 0.81915203911291934 0.81915203911291934 0 -0.57357644374324357 forward_v I I I I #
loop $-1 $-1 $366 $90 #
coedge $-1 $230 $230 $231 $367 reversed $142 $-1 #
coedge $-1 $231 $231 $230 $367 forward $144 $-1 #
coedge $-1 $232 $232 $145 $233 forward $227 $-1 #
edge $-1 $368 0 $368 6.2831853071796004 $232 $369 forward 7 unknown #
face $-1 $370 $371 $51 $-1 $372 reversed single #
loop $-1 $-1 $373 $146 #
plane-surface $-1 36.585184263465592 5.9968590855519803 203.27510649704467 0 1 0 0.57357644374324357 0 0.81915203911291934 forward_v I I I I #
coedge $-1 $374 $375 $376 $377 reversed $147 $-1 #
coedge $-1 $239 $149 $378 $379 reversed $94 $-1 #
coedge $-1 $149 $238 $374 $380 reversed $94 $-1 #
coedge $-1 $376 $381 $149 $241 forward $382 $-1 #
edge $-1 $383 -53.605353972579472 $384 -37.681275452351464 $240 $385 forward 7 unknown #
loop $-1 $-1 $247 $150 #
plane-surface $-1 -45.892752214444059 10.381781376443065 85.484408178288334 0.57357644374324357 0 0.81915203911291934 0.81915203911291934 0 -0.57357644374324357 forward_v I I I I #
loop $-1 $-1 $386 $96 #
coedge $-1 $245 $245 $246 $387 reversed $151 $-1 #
coedge $-1 $246 $246 $245 $387 forward $153 $-1 #
coedge $-1 $247 $247 $154 $248 forward $242 $-1 #
edge $-1 $388 0 $388 6.2831853071796004 $247 $389 forward 7 unknown #
loop $-1 $-1 $254 $155 #
plane-surface $-1 -45.892752214444059 10.381781376443065 85.484408178288334 0.57357644374324357 0 0.81915203911291934 0.81915203911291934 0 -0.57357644374324357 forward_v I I I I #
loop $-1 $-1 $390 $99 #
coedge $-1 $252 $252 $253 $391 reversed $156 $-1 #
coedge $-1 $253 $253 $252 $391 forward $158 $-1 #
coedge $-1 $254 $254 $159 $255 forward $249 $-1 #
edge $-1 $392 0 $392 6.2831853071796004 $254 $393 forward 7 unknown #
face $-1 $394 $395 $54 $-1 $396 reversed single #
loop $-1 $-1 $397 $160 #
plane-surface $-1 -188.23126779919019 -7.8207320315561049 86.903808592150256 0 -1 0 0.80901700255871778 0 -0.5877852410284794 forward_v I I I I #
coedge $-1 $398 $399 $400 $401 reversed $161 $-1 #
coedge $-1 $261 $163 $402 $403 reversed $103 $-1 #
coedge $-1 $163 $260 $398 $404 reversed $103 $-1 #
coedge $-1 $400 $405 $163 $263 forward $406 $-1 #
edge $-1 $407 22.217687795282828 $408 30.771945724858043 $262 $409 forward 7 unknown #
loop $-1 $-1 $269 $164 #
plane-surface $-1 -71.897946104312283 -11.956735138358084 2.3827054313986338 -0.80901700255871778 0 0.5877852410284794 0.5877852410284794 0 0.80901700255871778 forward_v I I I I #
loop $-1 $-1 $410 $105 #
coedge $-1 $267 $267 $268 $411 reversed $165 $-1 #
coedge $-1 $268 $268 $267 $411 forward $167 $-1 #
coedge $-1 $269 $269 $168 $270 forward $264 $-1 #
edge $-1 $412 0 $412 6.2831853071796004 $269 $413 forward 7 unknown #
loop $-1 $-1 $276 $169 #
plane-surface $-1 -71.897946104312283 -11.956735138358084 2.3827054313986338 -0.80901700255871778 0 0.5877852410284794 0.5877852410284794 0 0.80901700255871778 forward_v I I I I #
loop $-1 $-1 $414 $108 #
coedge $-1 $274 $274 $275 $415 reversed $170 $-1 #
coedge $-1 $275 $275 $274 $415 forward $172 $-1 #
coedge $-1 $276 $276 $173 $277 forward $271 $-1 #
edge $-1 $416 0 $416 6.2831853071796004 $276 $417 forward 7 unknown #
face $-1 $418 $419 $57 $-1 $420 forward single #
loop $-1 $-1 $421 $174 #
plane-surface $-1 -188.23126779919019 10.538983294017179 86.903808592150256 0 -1 0 0.80901700255871778 0 -0.5877852410284794 forward_v I I I I #
coedge $-1 $422 $423 $424 $425 reversed $175 $-1 #
coedge $-1 $283 $177 $426 $427 reversed $112 $-1 #
coedge $-1 $177 $282 $422 $428 reversed $112 $-1 #
coedge $-1 $424 $429 $177 $285 forward $419 $-1 #
edge $-1 $430 22.217687795282828 $431 30.771945724858043 $284 $432 forward 7 unknown #
loop $-1 $-1 $291 $178 #
plane-surface $-1 -71.897946104312283 6.4029801872151992 2.3827054313986338 -0.80901700255871778 0 0.5877852410284794 0.5877852410284794 0 0.80901700255871778 forward_v I I I I #
loop $-1 $-1 $433 $114 #
coedge $-1 $289 $289 $290 $434 reversed $179 $-1 #
coedge $-1 $290 $290 $289 $434 forward $181 $-1 #
coedge $-1 $291 $291 $182 $292 forward $286 $-1 #
edge $-1 $435 0 $435 6.2831853071796004 $291 $436 forward 7 unknown #
loop $-1 $-1 $298 $183 #
plane-surface $-1 -71.897946104312283 6.4029801872151992 2.3827054313986338 -0.80901700255871778 0 0.5877852410284794 0.5877852410284794 0 0.80901700255871778 forward_v I I I I #
loop $-1 $-1 $437 $117 #
coedge $-1 $296 $296 $297 $438 reversed $184 $-1 #
coedge $-1 $297 $297 $296 $438 forward $186 $-1 #
coedge $-1 $298 $298 $187 $299 forward $293 $-1 #
edge $-1 $439 0 $439 6.2831853071796004 $298 $440 forward 7 unknown #
face $-1 $441 $442 $45 $-1 $443 reversed single #
loop $-1 $-1 $444 $188 #
plane-surface $-1 -71.897946104312268 0 0 1 0 0 0 0 -1 forward_v I I I I #
coedge $-1 $445 $311 $446 $447 forward $189 $-1 #
coedge $-1 $448 $191 $445 $449 forward $121 $-1 #
coedge $-1 $191 $448 $450 $451 forward $121 $-1 #
coedge $-1 $314 $313 $191 $307 reversed $315 $-1 #
edge $-1 $452 -32.809485723867006 $453 32.809485723867006 $306 $454 forward 7 unknown #
coedge $-1 $193 $192 $455 $456 forward $76 $-1 #
coedge $-1 $457 $458 $192 $310 reversed $442 $-1 #
edge $-1 $317 -71.897946104312268 $459 71.897946104312268 $309 $460 forward 7 unknown #
coedge $-1 $303 $461 $193 $312 reversed $189 $-1 #
edge $-1 $462 -71.897946104312268 $316 71.897946104312268 $311 $463 forward 7 unknown #
coedge $-1 $306 $194 $461 $464 forward $315 $-1 #
coedge $-1 $194 $306 $457 $465 reversed $315 $-1 #
loop $-1 $-1 $313 $441 #
vertex $-1 $195 $466 #
vertex $-1 $195 $467 #
straight-curve $-1 71.897946104312268 0 14.156631733443675 0 1 0 I I #
face $-1 $468 $469 $46 $-1 $470 reversed single #
loop $-1 $-1 $471 $196 #
plane-surface $-1 0 -40.034370923013867 5.5614343595816447 0 0 1 1 0 0 forward_v I I I I #
coedge $-1 $202 $472 $473 $474 forward $197 $-1 #
coedge $-1 $475 $199 $476 $477 reversed $125 $-1 #
coedge $-1 $199 $475 $329 $478 reversed $125 $-1 #
edge $-1 $330 -13.516055537895747 $479 -5.5614343595816447 $199 $480 forward 7 unknown #
coedge $-1 $201 $200 $481 $482 forward $79 $-1 #
coedge $-1 $473 $483 $200 $328 forward $484 $-1 #
edge $-1 $485 5.5614343595816447 $331 13.516055537895747 $327 $486 forward 7 unknown #
coedge $-1 $472 $202 $324 $478 forward $197 $-1 #
vertex $-1 $325 $487 #
vertex $-1 $474 $488 #
straight-curve $-1 0 -32.809485723867006 13.516055537895747 1 0 0 I I #
face $-1 $489 $490 $47 $-1 $491 reversed single #
loop $-1 $-1 $492 $204 #
plane-surface $-1 0 40.034370923013874 5.5614343595816447 0 0 1 1 0 0 forward_v I I I I #
coedge $-1 $493 $210 $338 $494 forward $205 $-1 #
coedge $-1 $495 $207 $492 $496 reversed $129 $-1 #
coedge $-1 $207 $495 $336 $494 reversed $129 $-1 #
edge $-1 $344 -13.516055537895747 $497 -5.5614343595816447 $207 $498 forward 7 unknown #
coedge $-1 $209 $208 $499 $500 forward $82 $-1 #
coedge $-1 $501 $502 $208 $342 forward $503 $-1 #
edge $-1 $504 5.5614343595816447 $345 13.516055537895747 $341 $505 forward 7 unknown #
coedge $-1 $210 $493 $501 $506 forward $205 $-1 #
vertex $-1 $339 $507 #
vertex $-1 $506 $508 #
straight-curve $-1 0 32.809485723867006 13.516055537895747 -1 0 0 I I #
face $-1 $-1 $509 $48 $-1 $510 reversed single #
loop $-1 $-1 $218 $212 #
plane-surface $-1 0 0 14.156631733443675 0 0 1 1 0 0 forward_v I I I I #
coedge $-1 $511 $512 $513 $514 reversed $213 $-1 #
coedge $-1 $515 $215 $217 $357 forward $133 $-1 #
coedge $-1 $215 $515 $511 $516 forward $133 $-1 #
coedge $-1 $513 $218 $215 $354 forward $348 $-1 #
edge $-1 $360 -0.39595531632597947 $517 8.3738892654561905 $353 $518 forward 7 unknown #
coedge $-1 $519 $520 $216 $356 forward $509 $-1 #
edge $-1 $521 -98.631081548143641 $359 -87.480921515078663 $355 $522 forward 7 unknown #
edge $-1 $360 124.35618167885205 $521 143.79589220862451 $217 $523 forward 7 unknown #
coedge $-1 $218 $513 $519 $524 forward $348 $-1 #
vertex $-1 $356 $525 #
vertex $-1 $219 $526 #
straight-curve $-1 18.292592131732796 -3.593011658239126 14.156631733443675 -1 0 0 I I #
coedge $-1 $362 $362 $-1 $527 reversed $222 $-1 #
edge $-1 $528 0 $528 6.2831853071796004 $223 $529 forward 7 unknown #
vertex $-1 $226 $530 #
ellipse-curve $-1 63.935906844198243 -9.8571863595121023 8.5815517169111892 0.57357644374324357 0 0.81915203911291934 0.81915203911291934 0 -0.57357644374324357 1 I I #
coedge $-1 $366 $366 $-1 $531 reversed $229 $-1 #
edge $-1 $532 0 $532 6.2831853071796004 $230 $533 forward 7 unknown #
vertex $-1 $233 $534 #
ellipse-curve $-1 63.935906844198243 -6.0986815387483162 8.5815517169111892 0.57357644374324357 0 0.81915203911291934 0.81915203911291934 0 -0.57357644374324357 1 I I #
face $-1 $-1 $382 $51 $-1 $535 forward single #
loop $-1 $-1 $536 $234 #
plane-surface $-1 71.897946104312268 0 0 -1 0 0 0 0 1 forward_v I I I I #
coedge $-1 $537 $538 $539 $540 reversed $235 $-1 #
coedge $-1 $541 $237 $239 $380 forward $147 $-1 #
coedge $-1 $237 $541 $537 $542 forward $147 $-1 #
coedge $-1 $539 $240 $237 $377 forward $382 $-1 #
edge $-1 $384 -9.5758129791126176 $543 -0.80596839733044767 $376 $544 forward 7 unknown #
coedge $-1 $545 $546 $238 $379 forward $371 $-1 #
edge $-1 $547 -98.631081548143641 $383 -87.480921515078663 $378 $548 forward 7 unknown #
edge $-1 $384 124.35618167885205 $547 143.79589220862451 $239 $549 forward 7 unknown #
coedge $-1 $240 $539 $545 $550 forward $382 $-1 #
loop $-1 $-1 $539 $370 #
vertex $-1 $379 $551 #
vertex $-1 $241 $552 #
straight-curve $-1 18.292592131732796 14.76670366733415 14.156631733443675 -1 0 0 I I #
coedge $-1 $386 $386 $-1 $553 reversed $244 $-1 #
edge $-1 $554 0 $554 6.2831853071796004 $245 $555 forward 7 unknown #
vertex $-1 $248 $556 #
ellipse-curve $-1 63.935906844198243 8.5025289660611776 8.5815517169111892 0.57357644374324357 0 0.81915203911291934 0.81915203911291934 0 -0.57357644374324357 1 I I #
coedge $-1 $390 $390 $-1 $557 reversed $251 $-1 #
edge $-1 $558 0 $558 6.2831853071796004 $252 $559 forward 7 unknown #
vertex $-1 $255 $560 #
ellipse-curve $-1 63.935906844198243 12.26103378682496 8.5815517169111892 0.57357644374324357 0 0.81915203911291934 0.81915203911291934 0 -0.57357644374324357 1 I I #
face $-1 $-1 $406 $54 $-1 $561 forward single #
loop $-1 $-1 $562 $256 #
plane-surface $-1 -71.897946104312268 0 0 1 0 0 0 0 -1 forward_v I I I I #
coedge $-1 $563 $564 $565 $566 reversed $257 $-1 #
coedge $-1 $567 $259 $261 $404 forward $161 $-1 #
coedge $-1 $259 $567 $563 $568 forward $161 $-1 #
coedge $-1 $565 $262 $259 $401 forward $406 $-1 #
edge $-1 $408 -10.114370675981021 $569 -1.8423644623770628 $400 $570 forward 7 unknown #
coedge $-1 $571 $572 $260 $403 forward $395 $-1 #
edge $-1 $573 -41.069198864676473 $407 -29.295272562631453 $402 $574 forward 7 unknown #
edge $-1 $408 -14.553373124182885 $573 -2.4161062406544664e-014 $261 $575 forward 7 unknown #
coedge $-1 $262 $565 $571 $576 forward $406 $-1 #
loop $-1 $-1 $565 $394 #
vertex $-1 $403 $577 #
vertex $-1 $263 $578 #
straight-curve $-1 -94.115633899595096 -16.092738245160064 14.156631733443675 1 0 0 I I #
coedge $-1 $410 $410 $-1 $579 reversed $266 $-1 #
edge $-1 $580 0 $580 6.2831853071796004 $267 $581 forward 7 unknown #
vertex $-1 $270 $582 #
ellipse-curve $-1 -67.620817139524661 -13.729307898416074 8.2696685824211613 -0.80901700255871778 0 0.5877852410284794 0.2938926205142397 0 0.40450850127935889 1 I I #
coedge $-1 $414 $414 $-1 $583 reversed $273 $-1 #
edge $-1 $584 0 $584 6.2831853071796004 $274 $585 forward 7 unknown #
vertex $-1 $277 $586 #
ellipse-curve $-1 -67.620817139524661 -10.184162378300094 8.2696685824211613 -0.80901700255871778 0 0.5877852410284794 0.2938926205142397 0 0.40450850127935889 1 I I #
face $-1 $-1 $587 $57 $-1 $588 reversed single #
loop $-1 $-1 $284 $278 #
plane-surface $-1 0 0 14.156631733443675 0 0 1 1 0 0 forward_v I I I I #
coedge $-1 $589 $590 $591 $592 reversed $279 $-1 #
coedge $-1 $593 $281 $283 $428 forward $175 $-1 #
coedge $-1 $281 $593 $589 $594 forward $175 $-1 #
coedge $-1 $591 $284 $281 $425 forward $419 $-1 #
edge $-1 $431 -0.93451301319437974 $595 7.337493200409579 $424 $596 forward 7 unknown #
coedge $-1 $597 $598 $282 $427 forward $587 $-1 #
edge $-1 $599 -41.069198864676473 $430 -29.295272562631453 $426 $600 forward 7 unknown #
edge $-1 $431 -14.553373124182885 $599 -2.4161062406544664e-014 $283 $601 forward 7 unknown #
coedge $-1 $284 $591 $597 $602 forward $419 $-1 #
vertex $-1 $285 $603 #
vertex $-1 $285 $604 #
straight-curve $-1 -94.115633899595096 2.2669770804132199 14.156631733443675 1 0 0 I I #
coedge $-1 $433 $433 $-1 $605 reversed $288 $-1 #
edge $-1 $606 0 $606 6.2831853071796004 $289 $607 forward 7 unknown #
vertex $-1 $292 $608 #
ellipse-curve $-1 -67.620817139524661 4.6304074271572162 8.2696685824211613 -0.80901700255871778 0 0.5877852410284794 0.2938926205142397 0 0.40450850127935889 1 I I #
coedge $-1 $437 $437 $-1 $609 reversed $295 $-1 #
edge $-1 $610 0 $610 6.2831853071796004 $296 $611 forward 7 unknown #
vertex $-1 $299 $612 #
ellipse-curve $-1 -67.620817139524661 8.1755529472731965 8.2696685824211613 -0.80901700255871778 0 0.5877852410284794 0.2938926205142397 0 0.40450850127935889 1 I I #
face $-1 $-1 $315 $45 $-1 $613 reversed single #
loop $-1 $-1 $458 $300 #
plane-surface $-1 0 32.809485723867006 0 0 -1 0 0 0 -1 forward_v I I I I #
coedge $-1 $614 $455 $458 $615 forward $301 $-1 #
coedge $-1 $461 $303 $304 $449 reversed $189 $-1 #
coedge $-1 $455 $614 $303 $447 reversed $301 $-1 #
edge $-1 $462 -14.156631733443675 $616 14.156631733443675 $446 $617 forward 7 unknown #
coedge $-1 $305 $304 $614 $618 forward $121 $-1 #
edge $-1 $453 -71.897946104312268 $616 71.897946104312268 $445 $619 forward 7 unknown #
coedge $-1 $458 $457 $305 $451 reversed $442 $-1 #
edge $-1 $620 -71.897946104312268 $452 71.897946104312268 $450 $621 forward 7 unknown #
vertex $-1 $307 $622 #
vertex $-1 $464 $623 #
straight-curve $-1 71.897946104312268 0 -14.156631733443675 0 -1 0 I I #
coedge $-1 $444 $446 $308 $456 reversed $301 $-1 #
edge $-1 $459 -32.809485723867006 $462 32.809485723867006 $455 $624 forward 7 unknown #
coedge $-1 $450 $309 $314 $465 forward $442 $-1 #
coedge $-1 $309 $450 $444 $615 reversed $442 $-1 #
vertex $-1 $310 $625 #
straight-curve $-1 0 32.809485723867006 14.156631733443675 -1 0 0 I I #
coedge $-1 $311 $445 $313 $464 reversed $189 $-1 #
vertex $-1 $456 $626 #
straight-curve $-1 0 -32.809485723867006 14.156631733443675 1 0 0 I I #
edge $-1 $316 -14.156631733443675 $453 14.156631733443675 $313 $627 forward 7 unknown #
edge $-1 $317 -14.156631733443675 $452 14.156631733443675 $314 $628 forward 7 unknown #
point $-1 71.897946104312268 -32.809485723867006 14.156631733443675 #
point $-1 71.897946104312268 32.809485723867006 14.156631733443675 #
face $-1 $-1 $484 $46 $-1 $629 reversed single #
loop $-1 $-1 $630 $319 #
plane-surface $-1 0 -47.259256122160728 9.5387449487386959 0 1 0 0 0 1 forward_v I I I I #
coedge $-1 $631 $481 $483 $632 forward $320 $-1 #
coedge $-1 $322 $329 $633 $634 forward $197 $-1 #
coedge $-1 $635 $327 $322 $474 reversed $484 $-1 #
edge $-1 $636 -7.2248851991468612 $331 7.2248851991468612 $473 $637 forward 7 unknown #
coedge $-1 $324 $323 $630 $638 reversed $125 $-1 #
coedge $-1 $481 $631 $323 $477 forward $320 $-1 #
edge $-1 $639 -7.2248851991468612 $479 7.2248851991468612 $323 $640 forward 7 unknown #
edge $-1 $330 -7.2248851991468612 $641 7.2248851991468612 $324 $642 forward 7 unknown #
vertex $-1 $325 $643 #
straight-curve $-1 -71.897946104312268 -32.809485723867006 0 0 0 -1 I I #
coedge $-1 $471 $476 $326 $482 reversed $320 $-1 #
edge $-1 $485 -71.897946104312268 $479 71.897946104312268 $481 $644 forward 7 unknown #
coedge $-1 $327 $635 $471 $632 reversed $484 $-1 #
loop $-1 $-1 $327 $468 #
vertex $-1 $328 $645 #
straight-curve $-1 71.897946104312268 -32.809485723867006 0 0 0 1 I I #
point $-1 -71.897946104312268 -32.809485723867006 13.516055537895747 #
point $-1 71.897946104312268 -32.809485723867006 13.516055537895747 #
face $-1 $-1 $503 $47 $-1 $646 reversed single #
loop $-1 $-1 $647 $333 #
plane-surface $-1 0 47.259256122160735 9.5387449487386959 0 -1 0 0 0 -1 forward_v I I I I #
coedge $-1 $499 $648 $337 $496 forward $334 $-1 #
coedge $-1 $343 $336 $649 $650 forward $205 $-1 #
edge $-1 $344 -7.2248851991468612 $651 7.2248851991468612 $338 $652 forward 7 unknown #
coedge $-1 $338 $337 $647 $653 reversed $129 $-1 #
edge $-1 $654 -7.2248851991468612 $497 7.2248851991468612 $337 $655 forward 7 unknown #
vertex $-1 $339 $656 #
straight-curve $-1 71.897946104312268 32.809485723867006 0 0 0 -1 I I #
coedge $-1 $657 $492 $340 $500 reversed $334 $-1 #
edge $-1 $504 -71.897946104312268 $497 71.897946104312268 $499 $658 forward 7 unknown #
coedge $-1 $659 $341 $343 $506 reversed $503 $-1 #
coedge $-1 $341 $659 $657 $660 reversed $503 $-1 #
loop $-1 $-1 $341 $489 #
vertex $-1 $342 $661 #
straight-curve $-1 -71.897946104312268 32.809485723867006 0 0 0 1 I I #
edge $-1 $662 -7.2248851991468612 $345 7.2248851991468612 $501 $663 forward 7 unknown #
point $-1 71.897946104312268 32.809485723867013 13.516055537895747 #
point $-1 -71.897946104312268 32.809485723867013 13.516055537895747 #
loop $-1 $-1 $355 $347 #
plane-surface $-1 71.897946104312268 0 0 -1 0 0 0 0 1 forward_v I I I I #
coedge $-1 $512 $350 $352 $516 reversed $213 $-1 #
coedge $-1 $350 $511 $664 $665 reversed $213 $-1 #
coedge $-1 $358 $353 $350 $514 forward $348 $-1 #
edge $-1 $517 37.681275452351464 $666 53.605353972579472 $513 $667 forward 7 unknown #
coedge $-1 $352 $351 $520 $668 reversed $133 $-1 #
edge $-1 $669 -143.79589220862451 $517 -124.35618167885205 $511 $670 forward 7 unknown #
vertex $-1 $354 $671 #
straight-curve $-1 55.973867584084232 -3.9889669745651055 14.156631733443682 0 -1 0 I I #
coedge $-1 $664 $355 $358 $524 reversed $509 $-1 #
coedge $-1 $355 $664 $515 $668 forward $509 $-1 #
vertex $-1 $356 $672 #
straight-curve $-1 71.897946104312268 -3.593011658239126 101.63755324852234 0 0 1 I I #
straight-curve $-1 -45.892752214444059 -3.593011658239126 85.484408178288334 0.81915203911291934 0 -0.57357644374324357 I I #
edge $-1 $666 -12.362856240021296 $359 -3.593011658239126 $519 $673 forward 7 unknown #
point $-1 71.897946104312268 -3.593011658239126 14.156631733443675 #
point $-1 55.97386758408426 -3.593011658239126 14.156631733443675 #
edge $-1 $674 1 $674 0 $362 $-1 forward 7 unknown #
vertex $-1 $363 $675 #
ellipse-curve $-1 61.926542545443787 -9.8571863595121023 5.7118821539431854 0.57357644374324357 0 0.81915203911291934 0.81915203911291934 0 -0.57357644374324357 1 I I #
point $-1 64.75505888331115 -9.8571863595121023 8.0079752731679275 #
edge $-1 $676 1 $676 0 $366 $-1 forward 7 unknown #
vertex $-1 $367 $677 #
ellipse-curve $-1 61.926542545443787 -6.0986815387483162 5.7118821539431854 0.57357644374324357 0 0.81915203911291934 0.81915203911291934 0 -0.57357644374324357 1 I I #
point $-1 64.75505888331115 -6.0986815387483162 8.0079752731679275 #
plane-surface $-1 0 0 14.156631733443675 0 0 1 1 0 0 forward_v I I I I #
coedge $-1 $546 $545 $538 $678 forward $371 $-1 #
coedge $-1 $538 $373 $375 $542 reversed $235 $-1 #
coedge $-1 $373 $537 $536 $678 reversed $235 $-1 #
coedge $-1 $381 $376 $373 $540 forward $382 $-1 #
edge $-1 $543 37.681275452351464 $679 53.605353972579472 $539 $680 forward 7 unknown #
coedge $-1 $375 $374 $546 $681 reversed $147 $-1 #
edge $-1 $682 -143.79589220862451 $543 -124.35618167885205 $537 $683 forward 7 unknown #
vertex $-1 $377 $684 #
straight-curve $-1 55.973867584084232 5.1908906882215327 14.156631733443682 0 -1 0 I I #
coedge $-1 $536 $378 $381 $550 reversed $371 $-1 #
coedge $-1 $378 $536 $541 $681 forward $371 $-1 #
vertex $-1 $379 $685 #
straight-curve $-1 71.897946104312268 14.76670366733415 101.63755324852234 0 0 1 I I #
straight-curve $-1 -45.892752214444059 14.76670366733415 85.484408178288334 0.81915203911291934 0 -0.57357644374324357 I I #
edge $-1 $679 5.9968590855519803 $383 14.76670366733415 $545 $686 forward 7 unknown #
point $-1 71.897946104312268 14.76670366733415 14.156631733443675 #
point $-1 55.97386758408426 14.76670366733415 14.156631733443675 #
edge $-1 $687 1 $687 0 $386 $-1 forward 7 unknown #
vertex $-1 $387 $688 #
ellipse-curve $-1 61.926542545443787 8.5025289660611776 5.7118821539431854 0.57357644374324357 0 0.81915203911291934 0.81915203911291934 0 -0.57357644374324357 1 I I #
point $-1 64.75505888331115 8.5025289660611776 8.0079752731679275 #
edge $-1 $689 1 $689 0 $390 $-1 forward 7 unknown #
vertex $-1 $391 $690 #
ellipse-curve $-1 61.926542545443787 12.26103378682496 5.7118821539431854 0.57357644374324357 0 0.81915203911291934 0.81915203911291934 0 -0.57357644374324357 1 I I #
point $-1 64.75505888331115 12.26103378682496 8.0079752731679275 #
plane-surface $-1 0 0 14.156631733443675 0 0 1 1 0 0 forward_v I I I I #
coedge $-1 $572 $571 $564 $691 forward $395 $-1 #
coedge $-1 $564 $397 $399 $568 reversed $257 $-1 #
coedge $-1 $397 $563 $562 $691 reversed $257 $-1 #
coedge $-1 $405 $400 $397 $566 forward $406 $-1 #
edge $-1 $569 -30.771945724858043 $692 -22.217687795282828 $565 $693 forward 7 unknown #
coedge $-1 $399 $398 $572 $694 reversed $161 $-1 #
edge $-1 $695 2.4161062406544664e-014 $569 14.553373124182885 $563 $696 forward 7 unknown #
vertex $-1 $401 $697 #
straight-curve $-1 -63.343688174737046 -5.9783675691790421 14.156631733443675 0 1 0 I I #
coedge $-1 $562 $402 $405 $576 reversed $395 $-1 #
coedge $-1 $402 $562 $567 $694 forward $395 $-1 #
vertex $-1 $403 $698 #
straight-curve $-1 -71.897946104312268 -16.092738245160064 43.451904296075128 0 0 1 I I #
straight-curve $-1 -71.897946104312283 -16.092738245160064 2.3827054313986338 -0.5877852410284794 0 -0.80901700255871778 I I #
edge $-1 $692 7.8207320315561049 $407 16.092738245160064 $571 $699 forward 7 unknown #
point $-1 -71.897946104312268 -16.092738245160064 14.156631733443675 #
point $-1 -63.343688174737053 -16.092738245160064 14.156631733443675 #
edge $-1 $700 1 $700 0 $410 $-1 forward 7 unknown #
vertex $-1 $411 $701 #
ellipse-curve $-1 -66.685486132476953 -13.729307898416074 7.5901108479357893 -0.80901700255871778 0 0.5877852410284794 0.2938926205142397 0 0.40450850127935889 1 I I #
point $-1 -67.326924519010404 -13.729307898416074 8.6741770837005099 #
edge $-1 $702 1 $702 0 $414 $-1 forward 7 unknown #
vertex $-1 $415 $703 #
ellipse-curve $-1 -66.685486132476953 -10.184162378300094 7.5901108479357893 -0.80901700255871778 0 0.5877852410284794 0.2938926205142397 0 0.40450850127935889 1 I I #
point $-1 -67.326924519010404 -10.184162378300094 8.6741770837005099 #
loop $-1 $-1 $426 $418 #
plane-surface $-1 -71.897946104312268 0 0 1 0 0 0 0 -1 forward_v I I I I #
coedge $-1 $590 $421 $423 $594 reversed $279 $-1 #
coedge $-1 $421 $589 $704 $705 reversed $279 $-1 #
coedge $-1 $429 $424 $421 $592 forward $419 $-1 #
edge $-1 $595 -30.771945724858043 $706 -22.217687795282828 $591 $707 forward 7 unknown #
coedge $-1 $423 $422 $598 $708 reversed $175 $-1 #
edge $-1 $709 2.4161062406544664e-014 $595 14.553373124182885 $589 $710 forward 7 unknown #
vertex $-1 $425 $711 #
straight-curve $-1 -63.343688174737046 3.2014900936075996 14.156631733443675 0 1 0 I I #
coedge $-1 $704 $426 $429 $602 reversed $587 $-1 #
coedge $-1 $426 $704 $593 $708 forward $587 $-1 #
vertex $-1 $427 $712 #
straight-curve $-1 -71.897946104312268 2.2669770804132199 43.451904296075128 0 0 1 I I #
straight-curve $-1 -71.897946104312283 2.2669770804132199 2.3827054313986338 -0.5877852410284794 0 -0.80901700255871778 I I #
edge $-1 $706 -10.538983294017179 $430 -2.2669770804132199 $597 $713 forward 7 unknown #
point $-1 -71.897946104312268 2.2669770804132199 14.156631733443675 #
point $-1 -63.343688174737053 2.2669770804132199 14.156631733443675 #
edge $-1 $714 1 $714 0 $433 $-1 forward 7 unknown #
vertex $-1 $434 $715 #
ellipse-curve $-1 -66.685486132476953 4.6304074271572162 7.5901108479357893 -0.80901700255871778 0 0.5877852410284794 0.2938926205142397 0 0.40450850127935889 1 I I #
point $-1 -67.326924519010404 4.6304074271572162 8.6741770837005099 #
edge $-1 $716 1 $716 0 $437 $-1 forward 7 unknown #
vertex $-1 $438 $717 #
ellipse-curve $-1 -66.685486132476953 8.1755529472731965 7.5901108479357893 -0.80901700255871778 0 0.5877852410284794 0.2938926205142397 0 0.40450850127935889 1 I I #
point $-1 -67.326924519010404 8.1755529472731965 8.6741770837005099 #
plane-surface $-1 71.897946104312268 0 0 -1 0 0 0 0 1 forward_v I I I I #
coedge $-1 $446 $444 $448 $618 reversed $301 $-1 #
edge $-1 $459 -14.156631733443675 $620 14.156631733443675 $458 $718 forward 7 unknown #
vertex $-1 $618 $719 #
straight-curve $-1 -71.897946104312268 -32.809485723867006 0 0 0 -1 I I #
edge $-1 $616 -32.809485723867006 $620 32.809485723867006 $614 $720 forward 7 unknown #
straight-curve $-1 0 -32.809485723867006 -14.156631733443675 -1 0 0 I I #
vertex $-1 $451 $721 #
straight-curve $-1 0 32.809485723867006 -14.156631733443675 1 0 0 I I #
point $-1 71.897946104312268 32.809485723867006 -14.156631733443675 #
point $-1 71.897946104312268 -32.809485723867006 -14.156631733443675 #
straight-curve $-1 -71.897946104312268 0 14.156631733443675 0 -1 0 I I #
point $-1 -71.897946104312268 32.809485723867006 14.156631733443675 #
point $-1 -71.897946104312268 -32.809485723867006 14.156631733443675 #
straight-curve $-1 71.897946104312268 -32.809485723867006 0 0 0 -1 I I #
straight-curve $-1 71.897946104312268 32.809485723867006 0 0 0 -1 I I #
plane-surface $-1 71.897946104312268 0 0 -1 0 0 0 0 1 forward_v I I I I #
coedge $-1 $722 $633 $475 $638 forward $469 $-1 #
coedge $-1 $476 $471 $722 $723 forward $320 $-1 #
edge $-1 $485 -7.2248851991468612 $724 7.2248851991468612 $483 $725 forward 7 unknown #
coedge $-1 $630 $726 $472 $634 reversed $469 $-1 #
edge $-1 $641 -71.897946104312268 $636 71.897946104312268 $633 $727 forward 7 unknown #
coedge $-1 $483 $473 $726 $728 forward $484 $-1 #
vertex $-1 $474 $729 #
straight-curve $-1 71.897946104312268 -40.034370923013867 13.516055537895747 0 1 0 I I #
edge $-1 $641 -3.9773105891570513 $639 3.9773105891570513 $475 $730 forward 7 unknown #
vertex $-1 $477 $731 #
straight-curve $-1 -71.897946104312268 -40.034370923013867 5.5614343595816447 0 1 0 I I #
vertex $-1 $478 $732 #
straight-curve $-1 -71.897946104312268 -40.034370923013867 13.516055537895747 0 -1 0 I I #
point $-1 -71.897946104312268 -32.809485723867006 5.5614343595816447 #
straight-curve $-1 0 -32.809485723867006 5.5614343595816447 -1 0 0 I I #
point $-1 71.897946104312268 -32.809485723867006 5.5614343595816447 #
plane-surface $-1 -71.897946104312268 0 0 1 0 0 0 0 -1 forward_v I I I I #
coedge $-1 $733 $649 $495 $653 forward $490 $-1 #
coedge $-1 $492 $657 $733 $734 forward $334 $-1 #
coedge $-1 $647 $735 $493 $650 reversed $490 $-1 #
edge $-1 $651 -71.897946104312268 $662 71.897946104312268 $649 $736 forward 7 unknown #
vertex $-1 $494 $737 #
straight-curve $-1 71.897946104312268 40.034370923013874 13.516055537895747 0 1 0 I I #
edge $-1 $651 -3.9773105891570513 $654 3.9773105891570513 $495 $738 forward 7 unknown #
vertex $-1 $496 $739 #
straight-curve $-1 71.897946104312268 40.034370923013874 5.5614343595816447 0 -1 0 I I #
point $-1 71.897946104312268 32.809485723867013 5.5614343595816447 #
coedge $-1 $648 $499 $502 $660 forward $334 $-1 #
straight-curve $-1 0 32.809485723867006 5.5614343595816447 1 0 0 I I #
coedge $-1 $502 $501 $735 $740 forward $503 $-1 #
edge $-1 $504 -7.2248851991468612 $741 7.2248851991468612 $502 $742 forward 7 unknown #
point $-1 -71.897946104312268 32.809485723867013 5.5614343595816447 #
vertex $-1 $650 $743 #
straight-curve $-1 -71.897946104312268 40.034370923013874 13.516055537895747 0 -1 0 I I #
coedge $-1 $520 $519 $512 $665 forward $509 $-1 #
edge $-1 $666 87.480921515078663 $669 98.631081548143641 $664 $744 forward 7 unknown #
vertex $-1 $524 $745 #
straight-curve $-1 18.292592131732796 -12.362856240021296 14.156631733443675 1 0 0 I I #
edge $-1 $669 -8.3738892654561905 $521 0.39595531632597947 $520 $746 forward 7 unknown #
vertex $-1 $668 $747 #
straight-curve $-1 -45.892752214444059 -12.362856240021296 85.484408178288334 -0.81915203911291934 0 0.57357644374324357 I I #
point $-1 55.97386758408426 -12.362856240021296 14.156631733443675 #
point $-1 71.897946104312254 -3.593011658239126 3.0064717003786967 #
straight-curve $-1 71.897946104312268 0 14.156631733443675 0 1 0 I I #
vertex $-1 $527 $748 #
point $-1 62.745694584556702 -9.8571863595121023 5.1383057101999414 #
vertex $-1 $531 $749 #
point $-1 62.745694584556702 -6.0986815387483162 5.1383057101999414 #
edge $-1 $679 87.480921515078663 $682 98.631081548143641 $536 $750 forward 7 unknown #
vertex $-1 $550 $751 #
straight-curve $-1 18.292592131732796 5.9968590855519803 14.156631733443675 1 0 0 I I #
edge $-1 $682 0.80596839733044767 $547 9.5758129791126176 $546 $752 forward 7 unknown #
vertex $-1 $681 $753 #
straight-curve $-1 -45.892752214444059 5.9968590855519803 85.484408178288334 -0.81915203911291934 0 0.57357644374324357 I I #
point $-1 55.97386758408426 5.9968590855519803 14.156631733443675 #
point $-1 71.897946104312254 14.76670366733415 3.0064717003786967 #
straight-curve $-1 71.897946104312268 0 14.156631733443675 0 1 0 I I #
vertex $-1 $553 $754 #
point $-1 62.745694584556702 8.5025289660611776 5.1383057101999414 #
vertex $-1 $557 $755 #
point $-1 62.745694584556702 12.26103378682496 5.1383057101999414 #
edge $-1 $692 29.295272562631453 $695 41.069198864676473 $562 $756 forward 7 unknown #
vertex $-1 $576 $757 #
straight-curve $-1 -94.115633899595096 -7.8207320315561049 14.156631733443675 -1 0 0 I I #
edge $-1 $695 1.8423644623770628 $573 10.114370675981021 $572 $758 forward 7 unknown #
vertex $-1 $694 $759 #
straight-curve $-1 -71.897946104312283 -7.8207320315561049 2.3827054313986338 0.5877852410284794 0 0.80901700255871778 I I #
point $-1 -63.343688174737053 -7.8207320315561049 14.156631733443675 #
point $-1 -71.897946104312268 -16.092738245160064 2.3827054313986533 #
straight-curve $-1 -71.897946104312268 0 14.156631733443675 0 -1 0 I I #
vertex $-1 $579 $760 #
point $-1 -66.391593511962711 -13.729307898416074 7.9946193492151476 #
vertex $-1 $583 $761 #
point $-1 -66.391593511962711 -10.184162378300094 7.9946193492151476 #
coedge $-1 $598 $597 $590 $705 forward $587 $-1 #
edge $-1 $706 29.295272562631453 $709 41.069198864676473 $704 $762 forward 7 unknown #
vertex $-1 $602 $763 #
straight-curve $-1 -94.115633899595096 10.538983294017179 14.156631733443675 -1 0 0 I I #
edge $-1 $709 -7.337493200409579 $599 0.93451301319437974 $598 $764 forward 7 unknown #
vertex $-1 $708 $765 #
straight-curve $-1 -71.897946104312283 10.538983294017179 2.3827054313986338 0.5877852410284794 0 0.80901700255871778 I I #
point $-1 -63.343688174737053 10.538983294017179 14.156631733443675 #
point $-1 -71.897946104312268 2.2669770804132199 2.3827054313986533 #
straight-curve $-1 -71.897946104312268 0 14.156631733443675 0 -1 0 I I #
vertex $-1 $605 $766 #
point $-1 -66.391593511962711 4.6304074271572162 7.9946193492151476 #
vertex $-1 $609 $767 #
point $-1 -66.391593511962711 8.1755529472731965 7.9946193492151476 #
straight-curve $-1 -71.897946104312268 32.809485723867006 0 0 0 -1 I I #
point $-1 -71.897946104312268 -32.809485723867006 -14.156631733443675 #
straight-curve $-1 -71.897946104312268 0 -14.156631733443675 0 1 0 I I #
point $-1 -71.897946104312268 32.809485723867006 -14.156631733443675 #
coedge $-1 $726 $630 $631 $723 reversed $469 $-1 #
edge $-1 $724 -71.897946104312268 $639 71.897946104312268 $722 $768 forward 7 unknown #
vertex $-1 $728 $769 #
straight-curve $-1 71.897946104312268 -40.034370923013867 5.5614343595816447 0 -1 0 I I #
coedge $-1 $633 $722 $635 $728 reversed $469 $-1 #
straight-curve $-1 0 -47.259256122160728 13.516055537895747 1 0 0 I I #
edge $-1 $636 -3.9773105891570513 $724 3.9773105891570513 $635 $770 forward 7 unknown #
point $-1 71.897946104312268 -47.259256122160728 13.516055537895747 #
straight-curve $-1 -71.897946104312268 -47.259256122160728 9.5387449487386959 0 0 -1 I I #
point $-1 -71.897946104312268 -47.259256122160728 5.5614343595816447 #
point $-1 -71.897946104312268 -47.259256122160728 13.516055537895747 #
coedge $-1 $735 $647 $648 $734 reversed $490 $-1 #
edge $-1 $741 -71.897946104312268 $654 71.897946104312268 $733 $771 forward 7 unknown #
coedge $-1 $649 $733 $659 $740 reversed $490 $-1 #
straight-curve $-1 0 47.259256122160735 13.516055537895747 -1 0 0 I I #
point $-1 71.897946104312268 47.259256122160735 13.516055537895747 #
straight-curve $-1 71.897946104312268 47.259256122160735 9.5387449487386959 0 0 -1 I I #
point $-1 71.897946104312268 47.259256122160735 5.5614343595816447 #
edge $-1 $662 -3.9773105891570513 $741 3.9773105891570513 $735 $772 forward 7 unknown #
vertex $-1 $734 $773 #
straight-curve $-1 -71.897946104312268 40.034370923013874 5.5614343595816447 0 1 0 I I #
point $-1 -71.897946104312268 47.259256122160735 13.516055537895747 #
straight-curve $-1 71.897946104312268 -12.362856240021296 101.63755324852234 0 0 -1 I I #
point $-1 71.897946104312268 -12.362856240021296 14.156631733443675 #
straight-curve $-1 71.897946104312268 -3.9889669745651055 3.0064717003787038 0 1 0 I I #
point $-1 71.897946104312254 -12.362856240021296 3.0064717003786967 #
point $-1 61.352966101700538 -9.8571863595121023 4.8927301148302655 #
point $-1 61.352966101700538 -6.0986815387483162 4.8927301148302655 #
straight-curve $-1 71.897946104312268 5.9968590855519803 101.63755324852234 0 0 -1 I I #
point $-1 71.897946104312268 5.9968590855519803 14.156631733443675 #
straight-curve $-1 71.897946104312268 5.1908906882215327 3.0064717003787038 0 1 0 I I #
point $-1 71.897946104312254 5.9968590855519803 3.0064717003786967 #
point $-1 61.352966101700538 8.5025289660611776 4.8927301148302655 #
point $-1 61.352966101700538 12.26103378682496 4.8927301148302655 #
straight-curve $-1 -71.897946104312268 -7.8207320315561049 43.451904296075128 0 0 -1 I I #
point $-1 -71.897946104312268 -7.8207320315561049 14.156631733443675 #
straight-curve $-1 -71.897946104312268 -5.9783675691790421 2.3827054313986489 0 -1 0 I I #
point $-1 -71.897946104312268 -7.8207320315561049 2.3827054313986533 #
point $-1 -66.280977631197587 -13.729307898416074 7.2962182274215488 #
point $-1 -66.280977631197587 -10.184162378300094 7.2962182274215488 #
straight-curve $-1 -71.897946104312268 10.538983294017179 43.451904296075128 0 0 -1 I I #
point $-1 -71.897946104312268 10.538983294017179 14.156631733443675 #
straight-curve $-1 -71.897946104312268 3.2014900936075996 2.3827054313986489 0 -1 0 I I #
point $-1 -71.897946104312268 10.538983294017179 2.3827054313986533 #
point $-1 -66.280977631197587 4.6304074271572162 7.2962182274215488 #
point $-1 -66.280977631197587 8.1755529472731965 7.2962182274215488 #
straight-curve $-1 0 -47.259256122160728 5.5614343595816447 -1 0 0 I I #
point $-1 71.897946104312268 -47.259256122160728 5.5614343595816447 #
straight-curve $-1 71.897946104312268 -47.259256122160728 9.5387449487386959 0 0 -1 I I #
straight-curve $-1 0 47.259256122160735 5.5614343595816447 1 0 0 I I #
straight-curve $-1 -71.897946104312268 47.259256122160735 9.5387449487386959 0 0 -1 I I #
point $-1 -71.897946104312268 47.259256122160735 5.5614343595816447 #
End-of-ACIS-data 