500 0 14 0           
7 Unknown 11 ACIS 5.0 NT 24 Fri Mar 26 18:48:32 1999 
-1 9.9999999999999995e-007 1e-010 
body $-1 $14 $-1 $15 #
body $-1 $16 $-1 $17 #
body $-1 $18 $-1 $19 #
body $-1 $20 $-1 $21 #
body $-1 $22 $-1 $23 #
body $-1 $24 $-1 $25 #
body $-1 $26 $-1 $27 #
body $-1 $28 $-1 $29 #
body $-1 $30 $-1 $31 #
body $-1 $32 $-1 $33 #
body $-1 $34 $-1 $35 #
body $-1 $36 $-1 $37 #
body $-1 $38 $-1 $39 #
body $-1 $40 $-1 $41 #
lump $-1 $-1 $42 $0 #
transform $-1 1 0 0 0 1 0 0 0 1 51.031830805383464 33.588466707771353 11.569144351245127 1 rotate no_reflect no_shear #
lump $-1 $-1 $43 $1 #
transform $-1 1 0 0 0 1 0 0 0 1 51.031830805383464 33.588466707771353 11.569144351245127 1 rotate no_reflect no_shear #
lump $-1 $-1 $44 $2 #
transform $-1 1 0 0 0 1 0 0 0 1 51.031830805383464 33.588466707771353 11.569144351245127 1 rotate no_reflect no_shear #
lump $-1 $-1 $45 $3 #
transform $-1 1 0 0 0 1 0 0 0 1 51.031830805383464 33.588466707771353 11.569144351245127 1 rotate no_reflect no_shear #
lump $-1 $-1 $46 $4 #
transform $-1 1 0 0 0 1 0 0 0 1 51.031830805383464 33.588466707771353 11.569144351245127 1 rotate no_reflect no_shear #
lump $-1 $-1 $47 $5 #
transform $-1 1 0 0 0 1 0 0 0 1 51.031830805383464 33.588466707771353 11.569144351245127 1 rotate no_reflect no_shear #
lump $-1 $-1 $48 $6 #
transform $-1 1 0 0 0 1 0 0 0 1 51.031830805383464 33.588466707771353 11.569144351245127 1 rotate no_reflect no_shear #
lump $-1 $-1 $49 $7 #
transform $-1 1 0 0 0 1 0 0 0 1 51.031830805383464 33.588466707771353 11.569144351245127 1 rotate no_reflect no_shear #
lump $-1 $-1 $50 $8 #
transform $-1 1 0 0 0 1 0 0 0 1 51.031830805383464 33.588466707771353 11.569144351245127 1 rotate no_reflect no_shear #
lump $-1 $-1 $51 $9 #
transform $-1 1 0 0 0 1 0 0 0 1 51.031830805383464 33.588466707771353 11.569144351245127 1 rotate no_reflect no_shear #
lump $-1 $-1 $52 $10 #
transform $-1 1 0 0 0 1 0 0 0 1 51.031830805383464 33.588466707771353 11.569144351245127 1 rotate no_reflect no_shear #
lump $-1 $-1 $53 $11 #
transform $-1 1 0 0 0 1 0 0 0 1 51.031830805383464 33.588466707771353 11.569144351245127 1 rotate no_reflect no_shear #
lump $-1 $-1 $54 $12 #
transform $-1 1 0 0 0 1 0 0 0 1 51.031830805383464 33.588466707771353 11.569144351245127 1 rotate no_reflect no_shear #
lump $-1 $-1 $55 $13 #
transform $-1 1 0 0 0 1 0 0 0 1 51.031830805383464 33.588466707771353 11.569144351245127 1 rotate no_reflect no_shear #
shell $-1 $-1 $-1 $56 $-1 $14 #
shell $-1 $-1 $-1 $57 $-1 $16 #
shell $-1 $-1 $-1 $58 $-1 $18 #
shell $-1 $-1 $-1 $59 $-1 $20 #
shell $-1 $-1 $-1 $60 $-1 $22 #
shell $-1 $-1 $-1 $61 $-1 $24 #
shell $-1 $-1 $-1 $62 $-1 $26 #
shell $-1 $-1 $-1 $63 $-1 $28 #
shell $-1 $-1 $-1 $64 $-1 $30 #
shell $-1 $-1 $-1 $65 $-1 $32 #
shell $-1 $-1 $-1 $66 $-1 $34 #
shell $-1 $-1 $-1 $67 $-1 $36 #
shell $-1 $-1 $-1 $68 $-1 $38 #
shell $-1 $-1 $-1 $69 $-1 $40 #
face $-1 $70 $71 $42 $-1 $72 forward single #
face $-1 $73 $74 $43 $-1 $75 reversed single #
face $-1 $76 $77 $44 $-1 $78 reversed single #
face $-1 $79 $80 $45 $-1 $81 forward single #
face $-1 $82 $83 $46 $-1 $84 forward single #
face $-1 $85 $86 $47 $-1 $87 reversed single #
face $-1 $88 $89 $48 $-1 $90 forward single #
face $-1 $91 $92 $49 $-1 $93 forward single #
face $-1 $94 $95 $50 $-1 $96 reversed single #
face $-1 $97 $98 $51 $-1 $99 forward single #
face $-1 $100 $101 $52 $-1 $102 forward single #
face $-1 $103 $104 $53 $-1 $105 reversed single #
face $-1 $106 $107 $54 $-1 $108 forward single #
face $-1 $109 $110 $55 $-1 $111 forward single #
face $-1 $112 $113 $42 $-1 $114 reversed single #
loop $-1 $-1 $115 $56 #
plane-surface $-1 0 0 11.569144351245127 0 0 1 1 0 0 forward_v I I I I #
face $-1 $116 $117 $43 $-1 $118 reversed single #
loop $-1 $-1 $119 $57 #
plane-surface $-1 -47.595618043469862 -24.570042053247754 0 0 -1 0 0 0 -1 forward_v I I I I #
face $-1 $120 $121 $44 $-1 $122 reversed single #
loop $-1 $-1 $123 $58 #
plane-surface $-1 -129.21713247245208 -6.0865024428713426 68.577925645930691 0 1 0 -0.7660444514056185 0 0.64278759981090561 forward_v I I I I #
face $-1 $124 $125 $45 $-1 $126 forward single #
loop $-1 $127 $128 $59 #
cone-surface $-1 -46.424194453770305 -3.0591553656904438 6.4309791293564427 0.7660444514056185 0 -0.64278759981090561 0.64278759981090561 0 0.7660444514056185 1 I I 0 1 1 forward I I I I #
face $-1 $129 $130 $46 $-1 $131 forward single #
loop $-1 $132 $133 $60 #
cone-surface $-1 -46.424194453770305 1.481865250080908 6.4309791293564427 0.7660444514056185 0 -0.64278759981090561 0.64278759981090561 0 0.7660444514056185 1 I I 0 1 1 forward I I I I #
face $-1 $134 $135 $47 $-1 $136 reversed single #
loop $-1 $-1 $137 $61 #
plane-surface $-1 -51.031830805383436 -0.78864505780477145 2.9726695712333537 -0.7660444514056185 0 0.64278759981090561 0.64278759981090561 0 0.7660444514056185 forward_v I I I I #
face $-1 $138 $139 $48 $-1 $140 forward single #
loop $-1 $141 $142 $62 #
cone-surface $-1 -46.424194453770305 7.5365594044427056 6.4309791293564427 0.7660444514056185 0 -0.64278759981090561 0.64278759981090561 0 0.7660444514056185 1 I I 0 1 1 forward I I I I #
face $-1 $143 $144 $49 $-1 $145 forward single #
loop $-1 $146 $147 $63 #
cone-surface $-1 -46.424194453770305 12.077580020214057 6.4309791293564427 0.7660444514056185 0 -0.64278759981090561 0.64278759981090561 0 0.7660444514056185 1 I I 0 1 1 forward I I I I #
face $-1 $148 $149 $50 $-1 $150 reversed single #
loop $-1 $-1 $151 $64 #
plane-surface $-1 63.611876397754756 4.5092123272617997 146.76322731299936 0 -1 0 -0.7660444514056185 0 -0.64278759981090561 forward_v I I I I #
face $-1 $152 $153 $51 $-1 $154 forward single #
loop $-1 $155 $156 $65 #
cone-surface $-1 46.424194453770312 -3.0591553656904438 6.4309791293564427 -0.7660444514056185 0 -0.64278759981090561 0.64278759981090561 0 -0.7660444514056185 1 I I 0 1 1 forward I I I I #
face $-1 $157 $158 $52 $-1 $159 forward single #
loop $-1 $160 $161 $66 #
cone-surface $-1 46.424194453770312 1.481865250080908 6.4309791293564427 -0.7660444514056185 0 -0.64278759981090561 0.64278759981090561 0 -0.7660444514056185 1 I I 0 1 1 forward I I I I #
face $-1 $162 $163 $53 $-1 $164 reversed single #
loop $-1 $-1 $165 $67 #
plane-surface $-1 63.611876397754756 15.104927097394949 146.76322731299936 0 -1 0 -0.7660444514056185 0 -0.64278759981090561 forward_v I I I I #
face $-1 $166 $167 $54 $-1 $168 forward single #
loop $-1 $169 $170 $68 #
cone-surface $-1 46.424194453770312 7.5365594044427056 6.4309791293564427 -0.7660444514056185 0 -0.64278759981090561 0.64278759981090561 0 -0.7660444514056185 1 I I 0 1 1 forward I I I I #
face $-1 $171 $172 $55 $-1 $173 forward single #
loop $-1 $174 $175 $69 #
cone-surface $-1 46.424194453770312 12.077580020214057 6.4309791293564427 -0.7660444514056185 0 -0.64278759981090561 0.64278759981090561 0 -0.7660444514056185 1 I I 0 1 1 forward I I I I #
face $-1 $176 $177 $42 $-1 $178 reversed single #
loop $-1 $-1 $179 $70 #
plane-surface $-1 0 0 -11.569144351245127 0 0 1 1 0 0 forward_v I I I I #
coedge $-1 $180 $181 $182 $183 forward $71 $-1 #
face $-1 $184 $185 $43 $-1 $186 forward single #
loop $-1 $-1 $187 $73 #
plane-surface $-1 -44.159405281556261 -29.079254380509553 0 -1 0 0 0 0 1 forward_v I I I I #
coedge $-1 $188 $189 $190 $191 forward $74 $-1 #
face $-1 $192 $193 $44 $-1 $194 reversed single #
loop $-1 $-1 $195 $76 #
plane-surface $-1 -51.031830805383436 -0.78864505780477145 2.9726695712333537 -0.7660444514056185 0 0.64278759981090561 0.64278759981090561 0 0.7660444514056185 forward_v I I I I #
coedge $-1 $196 $197 $198 $199 reversed $77 $-1 #
face $-1 $-1 $200 $45 $-1 $201 forward single #
loop $-1 $202 $203 $79 #
cone-surface $-1 -45.040185190694267 -3.0591553656904438 5.2696574975681916 0.7660444514056185 0 -0.64278759981090561 0.3213937999054528 0 0.38302222570280925 1 I I -0.70710678118654746 0.70710678118654746 0.5 forward I I I I #
loop $-1 $-1 $204 $59 #
coedge $-1 $128 $128 $205 $206 reversed $80 $-1 #
face $-1 $-1 $207 $46 $-1 $208 forward single #
loop $-1 $209 $210 $82 #
cone-surface $-1 -45.040185190694267 1.481865250080908 5.2696574975681916 0.7660444514056185 0 -0.64278759981090561 0.3213937999054528 0 0.38302222570280925 1 I I -0.70710678118654746 0.70710678118654746 0.5 forward I I I I #
loop $-1 $-1 $211 $60 #
coedge $-1 $133 $133 $212 $213 reversed $83 $-1 #
face $-1 $214 $215 $47 $-1 $216 reversed single #
loop $-1 $-1 $217 $85 #
plane-surface $-1 -129.21713247245208 15.104927097394949 68.577925645930691 0 -1 0 0.7660444514056185 0 -0.64278759981090561 forward_v I I I I #
coedge $-1 $218 $219 $220 $221 reversed $86 $-1 #
face $-1 $-1 $222 $48 $-1 $223 forward single #
loop $-1 $224 $225 $88 #
cone-surface $-1 -45.040185190694267 7.5365594044427056 5.2696574975681916 0.7660444514056185 0 -0.64278759981090561 0.3213937999054528 0 0.38302222570280925 1 I I -0.70710678118654746 0.70710678118654746 0.5 forward I I I I #
loop $-1 $-1 $226 $62 #
coedge $-1 $142 $142 $227 $228 reversed $89 $-1 #
face $-1 $-1 $229 $49 $-1 $230 forward single #
loop $-1 $231 $232 $91 #
cone-surface $-1 -45.040185190694267 12.077580020214057 5.2696574975681916 0.7660444514056185 0 -0.64278759981090561 0.3213937999054528 0 0.38302222570280925 1 I I -0.70710678118654746 0.70710678118654746 0.5 forward I I I I #
loop $-1 $-1 $233 $63 #
coedge $-1 $147 $147 $234 $235 reversed $92 $-1 #
face $-1 $236 $237 $50 $-1 $238 reversed single #
loop $-1 $-1 $239 $94 #
plane-surface $-1 -14.573425269313887 -0.78864505780477145 81.157971238302025 0.7660444514056185 0 0.64278759981090561 0.64278759981090561 0 -0.7660444514056185 forward_v I I I I #
coedge $-1 $240 $241 $242 $243 reversed $95 $-1 #
face $-1 $-1 $244 $51 $-1 $245 forward single #
loop $-1 $246 $247 $97 #
cone-surface $-1 45.040185190694274 -3.0591553656904438 5.2696574975681916 -0.7660444514056185 0 -0.64278759981090561 0.3213937999054528 0 -0.38302222570280925 1 I I -0.70710678118654746 0.70710678118654746 0.5 forward I I I I #
loop $-1 $-1 $248 $65 #
coedge $-1 $156 $156 $249 $250 reversed $98 $-1 #
face $-1 $-1 $251 $52 $-1 $252 forward single #
loop $-1 $253 $254 $100 #
cone-surface $-1 45.040185190694274 1.481865250080908 5.2696574975681916 -0.7660444514056185 0 -0.64278759981090561 0.3213937999054528 0 -0.38302222570280925 1 I I -0.70710678118654746 0.70710678118654746 0.5 forward I I I I #
loop $-1 $-1 $255 $66 #
coedge $-1 $161 $161 $256 $257 reversed $101 $-1 #
face $-1 $258 $259 $53 $-1 $260 forward single #
loop $-1 $-1 $261 $103 #
plane-surface $-1 -14.573425269313887 -0.78864505780477145 81.157971238302025 0.7660444514056185 0 0.64278759981090561 0.64278759981090561 0 -0.7660444514056185 forward_v I I I I #
coedge $-1 $262 $263 $264 $265 reversed $104 $-1 #
face $-1 $-1 $266 $54 $-1 $267 forward single #
loop $-1 $268 $269 $106 #
cone-surface $-1 45.040185190694274 7.5365594044427056 5.2696574975681916 -0.7660444514056185 0 -0.64278759981090561 0.3213937999054528 0 -0.38302222570280925 1 I I -0.70710678118654746 0.70710678118654746 0.5 forward I I I I #
loop $-1 $-1 $270 $68 #
coedge $-1 $170 $170 $271 $272 reversed $107 $-1 #
face $-1 $-1 $273 $55 $-1 $274 forward single #
loop $-1 $275 $276 $109 #
cone-surface $-1 45.040185190694274 12.077580020214057 5.2696574975681916 -0.7660444514056185 0 -0.64278759981090561 0.3213937999054528 0 -0.38302222570280925 1 I I -0.70710678118654746 0.70710678118654746 0.5 forward I I I I #
loop $-1 $-1 $277 $69 #
coedge $-1 $175 $175 $278 $279 reversed $110 $-1 #
face $-1 $280 $281 $42 $-1 $282 reversed single #
loop $-1 $-1 $283 $112 #
plane-surface $-1 0 -33.588466707771353 0 0 1 0 0 0 1 forward_v I I I I #
coedge $-1 $284 $285 $286 $287 forward $113 $-1 #
coedge $-1 $288 $115 $289 $290 forward $71 $-1 #
coedge $-1 $115 $288 $291 $292 forward $71 $-1 #
coedge $-1 $293 $294 $115 $183 reversed $295 $-1 #
edge $-1 $296 -33.588466707771353 $297 33.588466707771353 $182 $298 forward 7 unknown #
face $-1 $299 $300 $43 $-1 $301 reversed single #
loop $-1 $-1 $302 $116 #
plane-surface $-1 0 0 11.569144351245127 0 0 1 1 0 0 forward_v I I I I #
coedge $-1 $303 $304 $305 $306 reversed $117 $-1 #
coedge $-1 $307 $119 $308 $309 reversed $74 $-1 #
coedge $-1 $119 $307 $310 $311 reversed $74 $-1 #
coedge $-1 $304 $303 $119 $191 reversed $117 $-1 #
edge $-1 $312 -11.569144351245127 $313 11.569144351245127 $190 $314 forward 7 unknown #
face $-1 $315 $316 $44 $-1 $317 reversed single #
loop $-1 $-1 $318 $120 #
plane-surface $-1 -129.21713247245208 4.5092123272617997 68.577925645930691 0 -1 0 0.7660444514056185 0 -0.64278759981090561 forward_v I I I I #
coedge $-1 $319 $320 $321 $322 reversed $121 $-1 #
coedge $-1 $197 $123 $323 $324 reversed $77 $-1 #
coedge $-1 $123 $196 $319 $325 reversed $77 $-1 #
coedge $-1 $321 $326 $123 $199 forward $327 $-1 #
edge $-1 $328 13.576735430842575 $329 20.790034059322458 $198 $330 forward 7 unknown #
loop $-1 $-1 $205 $124 #
plane-surface $-1 -51.031830805383436 -0.78864505780477145 2.9726695712333537 -0.7660444514056185 0 0.64278759981090561 0.64278759981090561 0 0.7660444514056185 forward_v I I I I #
loop $-1 $-1 $331 $79 #
coedge $-1 $203 $203 $204 $332 reversed $125 $-1 #
coedge $-1 $204 $204 $203 $332 forward $127 $-1 #
coedge $-1 $205 $205 $128 $206 forward $200 $-1 #
edge $-1 $333 0 $333 6.2831853071796004 $205 $334 forward 7 unknown #
loop $-1 $-1 $212 $129 #
plane-surface $-1 -51.031830805383436 -0.78864505780477145 2.9726695712333537 -0.7660444514056185 0 0.64278759981090561 0.64278759981090561 0 0.7660444514056185 forward_v I I I I #
loop $-1 $-1 $335 $82 #
coedge $-1 $210 $210 $211 $336 reversed $130 $-1 #
coedge $-1 $211 $211 $210 $336 forward $132 $-1 #
coedge $-1 $212 $212 $133 $213 forward $207 $-1 #
edge $-1 $337 0 $337 6.2831853071796004 $212 $338 forward 7 unknown #
face $-1 $339 $340 $47 $-1 $341 forward single #
loop $-1 $-1 $342 $134 #
plane-surface $-1 -51.031830805383464 0 0 1 0 0 0 0 -1 forward_v I I I I #
coedge $-1 $343 $344 $345 $346 reversed $135 $-1 #
coedge $-1 $347 $137 $348 $349 reversed $86 $-1 #
coedge $-1 $137 $347 $350 $351 reversed $86 $-1 #
coedge $-1 $352 $353 $137 $221 forward $340 $-1 #
edge $-1 $354 -4.4123720097533069e-014 $355 11.221900718996221 $220 $356 forward 7 unknown #
loop $-1 $-1 $227 $138 #
plane-surface $-1 -51.031830805383436 -0.78864505780477145 2.9726695712333537 -0.7660444514056185 0 0.64278759981090561 0.64278759981090561 0 0.7660444514056185 forward_v I I I I #
loop $-1 $-1 $357 $88 #
coedge $-1 $225 $225 $226 $358 reversed $139 $-1 #
coedge $-1 $226 $226 $225 $358 forward $141 $-1 #
coedge $-1 $227 $227 $142 $228 forward $222 $-1 #
edge $-1 $359 0 $359 6.2831853071796004 $227 $360 forward 7 unknown #
loop $-1 $-1 $234 $143 #
plane-surface $-1 -51.031830805383436 -0.78864505780477145 2.9726695712333537 -0.7660444514056185 0 0.64278759981090561 0.64278759981090561 0 0.7660444514056185 forward_v I I I I #
loop $-1 $-1 $361 $91 #
coedge $-1 $232 $232 $233 $362 reversed $144 $-1 #
coedge $-1 $233 $233 $232 $362 forward $146 $-1 #
coedge $-1 $234 $234 $147 $235 forward $229 $-1 #
edge $-1 $363 0 $363 6.2831853071796004 $234 $364 forward 7 unknown #
face $-1 $365 $366 $50 $-1 $367 forward single #
loop $-1 $-1 $368 $148 #
plane-surface $-1 63.611876397754756 -6.0865024428713426 146.76322731299936 0 1 0 0.7660444514056185 0 0.64278759981090561 forward_v I I I I #
coedge $-1 $369 $370 $371 $372 reversed $149 $-1 #
coedge $-1 $241 $151 $373 $374 reversed $95 $-1 #
coedge $-1 $151 $240 $369 $375 reversed $95 $-1 #
coedge $-1 $371 $376 $151 $243 forward $366 $-1 #
edge $-1 $377 -19.225892606506086 $378 -12.012593978026253 $242 $379 forward 7 unknown #
loop $-1 $-1 $249 $152 #
plane-surface $-1 -14.573425269313887 -0.78864505780477145 81.157971238302025 0.7660444514056185 0 0.64278759981090561 0.64278759981090561 0 -0.7660444514056185 forward_v I I I I #
loop $-1 $-1 $380 $97 #
coedge $-1 $247 $247 $248 $381 reversed $153 $-1 #
coedge $-1 $248 $248 $247 $381 forward $155 $-1 #
coedge $-1 $249 $249 $156 $250 forward $244 $-1 #
edge $-1 $382 0 $382 6.2831853071796004 $249 $383 forward 7 unknown #
loop $-1 $-1 $256 $157 #
plane-surface $-1 -14.573425269313887 -0.78864505780477145 81.157971238302025 0.7660444514056185 0 0.64278759981090561 0.64278759981090561 0 -0.7660444514056185 forward_v I I I I #
loop $-1 $-1 $384 $100 #
coedge $-1 $254 $254 $255 $385 reversed $158 $-1 #
coedge $-1 $255 $255 $254 $385 forward $160 $-1 #
coedge $-1 $256 $256 $161 $257 forward $251 $-1 #
edge $-1 $386 0 $386 6.2831853071796004 $256 $387 forward 7 unknown #
face $-1 $388 $389 $53 $-1 $390 forward single #
loop $-1 $-1 $391 $162 #
plane-surface $-1 0 0 11.569144351245127 0 0 1 1 0 0 forward_v I I I I #
coedge $-1 $392 $393 $394 $395 reversed $163 $-1 #
coedge $-1 $263 $165 $396 $397 reversed $104 $-1 #
coedge $-1 $165 $262 $391 $398 reversed $104 $-1 #
coedge $-1 $399 $400 $165 $265 forward $401 $-1 #
edge $-1 $402 -70.408944085266299 $403 -61.812469305254552 $264 $404 forward 7 unknown #
loop $-1 $-1 $271 $166 #
plane-surface $-1 -14.573425269313887 -0.78864505780477145 81.157971238302025 0.7660444514056185 0 0.64278759981090561 0.64278759981090561 0 -0.7660444514056185 forward_v I I I I #
loop $-1 $-1 $405 $106 #
coedge $-1 $269 $269 $270 $406 reversed $167 $-1 #
coedge $-1 $270 $270 $269 $406 forward $169 $-1 #
coedge $-1 $271 $271 $170 $272 forward $266 $-1 #
edge $-1 $407 0 $407 6.2831853071796004 $271 $408 forward 7 unknown #
loop $-1 $-1 $278 $171 #
plane-surface $-1 -14.573425269313887 -0.78864505780477145 81.157971238302025 0.7660444514056185 0 0.64278759981090561 0.64278759981090561 0 -0.7660444514056185 forward_v I I I I #
loop $-1 $-1 $409 $109 #
coedge $-1 $276 $276 $277 $410 reversed $172 $-1 #
coedge $-1 $277 $277 $276 $410 forward $174 $-1 #
coedge $-1 $278 $278 $175 $279 forward $273 $-1 #
edge $-1 $411 0 $411 6.2831853071796004 $278 $412 forward 7 unknown #
face $-1 $413 $414 $42 $-1 $415 reversed single #
loop $-1 $-1 $416 $176 #
plane-surface $-1 -51.031830805383464 0 0 1 0 0 0 0 -1 forward_v I I I I #
coedge $-1 $417 $291 $418 $419 forward $177 $-1 #
coedge $-1 $420 $179 $417 $421 forward $113 $-1 #
coedge $-1 $179 $420 $422 $423 forward $113 $-1 #
coedge $-1 $294 $293 $179 $287 reversed $295 $-1 #
edge $-1 $424 -33.588466707771353 $425 33.588466707771353 $286 $426 forward 7 unknown #
coedge $-1 $181 $180 $427 $428 forward $71 $-1 #
coedge $-1 $429 $430 $180 $290 reversed $414 $-1 #
edge $-1 $297 -51.031830805383464 $431 51.031830805383464 $289 $432 forward 7 unknown #
coedge $-1 $283 $433 $181 $292 reversed $177 $-1 #
edge $-1 $434 -51.031830805383464 $296 51.031830805383464 $291 $435 forward 7 unknown #
coedge $-1 $286 $182 $433 $436 forward $295 $-1 #
coedge $-1 $182 $286 $429 $437 reversed $295 $-1 #
loop $-1 $-1 $293 $413 #
vertex $-1 $183 $438 #
vertex $-1 $183 $439 #
straight-curve $-1 51.031830805383464 0 11.569144351245127 0 1 0 I I #
face $-1 $440 $441 $43 $-1 $442 reversed single #
loop $-1 $-1 $443 $184 #
plane-surface $-1 -51.031830805383464 0 0 1 0 0 0 0 -1 forward_v I I I I #
coedge $-1 $310 $444 $304 $445 forward $185 $-1 #
coedge $-1 $190 $187 $446 $447 reversed $117 $-1 #
coedge $-1 $187 $190 $302 $445 reversed $117 $-1 #
coedge $-1 $448 $449 $187 $306 forward $450 $-1 #
edge $-1 $451 -11.569144351245127 $452 11.569144351245127 $305 $453 forward 7 unknown #
coedge $-1 $189 $188 $443 $454 reversed $74 $-1 #
coedge $-1 $446 $455 $188 $309 forward $441 $-1 #
edge $-1 $456 -27.234021783648533 $313 -20.361596259821329 $308 $457 forward 7 unknown #
coedge $-1 $458 $302 $189 $311 forward $185 $-1 #
edge $-1 $312 20.361596259821329 $459 27.234021783648533 $310 $460 forward 7 unknown #
vertex $-1 $311 $461 #
vertex $-1 $309 $462 #
straight-curve $-1 -44.159405281556261 -24.570042053247754 0 0 0 -1 I I #
face $-1 $-1 $327 $44 $-1 $463 forward single #
loop $-1 $-1 $464 $192 #
plane-surface $-1 -51.031830805383464 0 0 1 0 0 0 0 -1 forward_v I I I I #
coedge $-1 $465 $466 $467 $468 reversed $193 $-1 #
coedge $-1 $469 $195 $197 $325 forward $121 $-1 #
coedge $-1 $195 $469 $465 $470 forward $121 $-1 #
coedge $-1 $467 $198 $195 $322 forward $327 $-1 #
edge $-1 $329 -5.6921799139689568 $471 4.9035348561641854 $321 $472 forward 7 unknown #
coedge $-1 $473 $474 $196 $324 forward $316 $-1 #
edge $-1 $475 -31.316293251732027 $328 -22.719818471720217 $323 $476 forward 7 unknown #
edge $-1 $329 -11.221900718996221 $475 4.4123720097533069e-014 $197 $477 forward 7 unknown #
coedge $-1 $198 $467 $473 $478 forward $327 $-1 #
loop $-1 $-1 $467 $315 #
vertex $-1 $324 $479 #
vertex $-1 $199 $480 #
straight-curve $-1 -64.608566236226039 -6.0865024428713426 11.569144351245129 1 0 0 I I #
coedge $-1 $331 $331 $-1 $481 reversed $202 $-1 #
edge $-1 $482 0 $482 6.2831853071796004 $203 $483 forward 7 unknown #
vertex $-1 $206 $484 #
ellipse-curve $-1 -47.425181491143519 -3.0591553656904438 7.270906961239227 -0.7660444514056185 0 0.64278759981090561 0.64278759981090561 0 0.7660444514056185 1 I I #
coedge $-1 $335 $335 $-1 $485 reversed $209 $-1 #
edge $-1 $486 0 $486 6.2831853071796004 $210 $487 forward 7 unknown #
vertex $-1 $213 $488 #
ellipse-curve $-1 -47.425181491143519 1.481865250080908 7.270906961239227 -0.7660444514056185 0 0.64278759981090561 0.64278759981090561 0 0.7660444514056185 1 I I #
face $-1 $-1 $489 $47 $-1 $490 forward single #
loop $-1 $-1 $352 $214 #
plane-surface $-1 -129.21713247245208 4.5092123272617997 68.577925645930691 0 -1 0 0.7660444514056185 0 -0.64278759981090561 forward_v I I I I #
coedge $-1 $348 $491 $344 $492 forward $215 $-1 #
coedge $-1 $344 $217 $347 $493 reversed $135 $-1 #
coedge $-1 $217 $343 $342 $492 reversed $135 $-1 #
coedge $-1 $494 $350 $217 $346 forward $489 $-1 #
edge $-1 $495 -20.790034059322458 $496 -13.576735430842575 $345 $497 forward 7 unknown #
coedge $-1 $219 $218 $343 $493 forward $86 $-1 #
coedge $-1 $498 $342 $218 $349 forward $215 $-1 #
edge $-1 $499 -15.499249626297335 $354 -4.9035348561641854 $348 $500 forward 7 unknown #
coedge $-1 $345 $501 $219 $351 forward $489 $-1 #
edge $-1 $355 4.9035348561641854 $495 15.499249626297335 $350 $502 forward 7 unknown #
coedge $-1 $353 $220 $501 $503 reversed $340 $-1 #
coedge $-1 $220 $352 $498 $504 reversed $340 $-1 #
vertex $-1 $349 $505 #
vertex $-1 $351 $506 #
straight-curve $-1 -51.031830805383436 4.5092123272617997 2.9726695712333537 0.64278759981090561 0 0.7660444514056185 I I #
coedge $-1 $357 $357 $-1 $507 reversed $224 $-1 #
edge $-1 $508 0 $508 6.2831853071796004 $225 $509 forward 7 unknown #
vertex $-1 $228 $510 #
ellipse-curve $-1 -47.425181491143519 7.5365594044427056 7.270906961239227 -0.7660444514056185 0 0.64278759981090561 0.64278759981090561 0 0.7660444514056185 1 I I #
coedge $-1 $361 $361 $-1 $511 reversed $231 $-1 #
edge $-1 $512 0 $512 6.2831853071796004 $232 $513 forward 7 unknown #
vertex $-1 $235 $514 #
ellipse-curve $-1 -47.425181491143519 12.077580020214057 7.270906961239227 -0.7660444514056185 0 0.64278759981090561 0.64278759981090561 0 0.7660444514056185 1 I I #
face $-1 $-1 $515 $50 $-1 $516 reversed single #
loop $-1 $-1 $242 $236 #
plane-surface $-1 0 0 11.569144351245127 0 0 1 1 0 0 forward_v I I I I #
coedge $-1 $517 $518 $519 $520 reversed $237 $-1 #
coedge $-1 $521 $239 $241 $375 forward $149 $-1 #
coedge $-1 $239 $521 $517 $522 forward $149 $-1 #
coedge $-1 $519 $242 $239 $372 forward $366 $-1 #
edge $-1 $378 -4.9035348561641854 $523 5.6921799139689568 $371 $524 forward 7 unknown #
coedge $-1 $525 $526 $240 $374 forward $515 $-1 #
edge $-1 $527 -70.408944085266299 $377 -61.812469305254552 $373 $528 forward 7 unknown #
edge $-1 $378 90.841760891770789 $527 102.06366161076697 $241 $529 forward 7 unknown #
coedge $-1 $242 $519 $525 $530 forward $366 $-1 #
vertex $-1 $243 $531 #
vertex $-1 $243 $532 #
straight-curve $-1 31.805938198877378 4.5092123272617997 11.569144351245129 -1 0 0 I I #
coedge $-1 $380 $380 $-1 $533 reversed $246 $-1 #
edge $-1 $534 0 $534 6.2831853071796004 $247 $535 forward 7 unknown #
vertex $-1 $250 $536 #
ellipse-curve $-1 47.425181491143555 -3.0591553656904438 7.2709069612392483 0.7660444514056185 0 0.64278759981090561 0.64278759981090561 0 -0.7660444514056185 1 I I #
coedge $-1 $384 $384 $-1 $537 reversed $253 $-1 #
edge $-1 $538 0 $538 6.2831853071796004 $254 $539 forward 7 unknown #
vertex $-1 $257 $540 #
ellipse-curve $-1 47.425181491143555 1.481865250080908 7.2709069612392483 0.7660444514056185 0 0.64278759981090561 0.64278759981090561 0 -0.7660444514056185 1 I I #
face $-1 $-1 $401 $53 $-1 $541 reversed single #
loop $-1 $-1 $542 $258 #
plane-surface $-1 63.611876397754756 4.5092123272617997 146.76322731299936 0 -1 0 -0.7660444514056185 0 -0.64278759981090561 forward_v I I I I #
coedge $-1 $543 $544 $263 $398 forward $259 $-1 #
coedge $-1 $396 $261 $543 $545 reversed $163 $-1 #
coedge $-1 $261 $396 $400 $546 reversed $163 $-1 #
coedge $-1 $547 $542 $261 $395 forward $389 $-1 #
edge $-1 $548 90.841760891770789 $549 102.06366161076697 $394 $550 forward 7 unknown #
coedge $-1 $393 $392 $262 $397 forward $163 $-1 #
edge $-1 $551 90.841760891770789 $402 102.06366161076697 $262 $552 forward 7 unknown #
edge $-1 $403 -19.225892606506086 $551 -12.012593978026253 $391 $553 forward 7 unknown #
coedge $-1 $554 $264 $544 $555 reversed $401 $-1 #
coedge $-1 $264 $554 $393 $546 forward $401 $-1 #
loop $-1 $-1 $264 $388 #
vertex $-1 $265 $556 #
vertex $-1 $265 $557 #
straight-curve $-1 51.031830805383464 15.104927097394949 73.381613656499681 0 0 1 I I #
coedge $-1 $405 $405 $-1 $558 reversed $268 $-1 #
edge $-1 $559 0 $559 6.2831853071796004 $269 $560 forward 7 unknown #
vertex $-1 $272 $561 #
ellipse-curve $-1 47.425181491143555 7.5365594044427056 7.2709069612392483 0.7660444514056185 0 0.64278759981090561 0.64278759981090561 0 -0.7660444514056185 1 I I #
coedge $-1 $409 $409 $-1 $562 reversed $275 $-1 #
edge $-1 $563 0 $563 6.2831853071796004 $276 $564 forward 7 unknown #
vertex $-1 $279 $565 #
ellipse-curve $-1 47.425181491143555 12.077580020214057 7.2709069612392483 0.7660444514056185 0 0.64278759981090561 0.64278759981090561 0 -0.7660444514056185 1 I I #
face $-1 $-1 $295 $42 $-1 $566 reversed single #
loop $-1 $-1 $429 $280 #
plane-surface $-1 0 33.588466707771353 0 0 -1 0 0 0 -1 forward_v I I I I #
coedge $-1 $567 $427 $430 $568 forward $281 $-1 #
coedge $-1 $433 $283 $284 $421 reversed $177 $-1 #
coedge $-1 $427 $567 $283 $419 reversed $281 $-1 #
edge $-1 $434 -11.569144351245127 $569 11.569144351245127 $418 $570 forward 7 unknown #
coedge $-1 $285 $284 $567 $571 forward $113 $-1 #
edge $-1 $425 -51.031830805383464 $569 51.031830805383464 $417 $572 forward 7 unknown #
coedge $-1 $430 $429 $285 $423 reversed $414 $-1 #
edge $-1 $573 -51.031830805383464 $424 51.031830805383464 $422 $574 forward 7 unknown #
vertex $-1 $287 $575 #
vertex $-1 $436 $576 #
straight-curve $-1 51.031830805383464 0 -11.569144351245127 0 -1 0 I I #
coedge $-1 $416 $418 $288 $428 reversed $281 $-1 #
edge $-1 $431 -33.588466707771353 $434 33.588466707771353 $427 $577 forward 7 unknown #
coedge $-1 $422 $289 $294 $437 forward $414 $-1 #
coedge $-1 $289 $422 $416 $568 reversed $414 $-1 #
vertex $-1 $290 $578 #
straight-curve $-1 0 33.588466707771353 11.569144351245127 -1 0 0 I I #
coedge $-1 $291 $417 $293 $436 reversed $177 $-1 #
vertex $-1 $428 $579 #
straight-curve $-1 0 -33.588466707771353 11.569144351245127 1 0 0 I I #
edge $-1 $296 -11.569144351245127 $425 11.569144351245127 $293 $580 forward 7 unknown #
edge $-1 $297 -11.569144351245127 $424 11.569144351245127 $294 $581 forward 7 unknown #
point $-1 51.031830805383464 -33.588466707771353 11.569144351245127 #
point $-1 51.031830805383464 33.588466707771353 11.569144351245127 #
face $-1 $-1 $450 $43 $-1 $582 reversed single #
loop $-1 $-1 $446 $299 #
plane-surface $-1 0 0 -11.569144351245127 0 0 1 1 0 0 forward_v I I I I #
coedge $-1 $583 $584 $307 $454 forward $300 $-1 #
coedge $-1 $302 $458 $448 $585 forward $185 $-1 #
edge $-1 $452 -19.048839517516576 $312 -10.030414862992977 $302 $586 forward 7 unknown #
coedge $-1 $587 $308 $303 $447 forward $441 $-1 #
edge $-1 $313 10.030414862992977 $451 19.048839517516576 $446 $588 forward 7 unknown #
coedge $-1 $589 $305 $444 $585 reversed $450 $-1 #
coedge $-1 $305 $589 $587 $590 reversed $450 $-1 #
loop $-1 $-1 $305 $440 #
vertex $-1 $590 $591 #
vertex $-1 $306 $592 #
straight-curve $-1 -44.159405281556261 -33.588466707771353 0 0 0 1 I I #
edge $-1 $459 -11.569144351245127 $456 11.569144351245127 $443 $593 forward 7 unknown #
coedge $-1 $308 $587 $583 $594 forward $441 $-1 #
vertex $-1 $309 $595 #
straight-curve $-1 -23.797809021734931 -24.570042053247754 -11.569144351245127 1 0 0 I I #
coedge $-1 $444 $310 $584 $596 forward $185 $-1 #
vertex $-1 $596 $597 #
straight-curve $-1 -23.797809021734931 -24.570042053247754 11.569144351245127 -1 0 0 I I #
point $-1 -44.159405281556261 -24.570042053247754 11.569144351245127 #
point $-1 -44.159405281556261 -24.570042053247754 -11.569144351245127 #
plane-surface $-1 0 0 11.569144351245127 0 0 1 1 0 0 forward_v I I I I #
coedge $-1 $474 $473 $466 $598 forward $316 $-1 #
coedge $-1 $466 $318 $320 $470 reversed $193 $-1 #
coedge $-1 $318 $465 $464 $598 reversed $193 $-1 #
coedge $-1 $326 $321 $318 $468 forward $327 $-1 #
edge $-1 $471 -20.790034059322458 $599 -13.576735430842575 $467 $600 forward 7 unknown #
coedge $-1 $320 $319 $474 $601 reversed $121 $-1 #
edge $-1 $602 -4.4123720097533069e-014 $471 11.221900718996221 $465 $603 forward 7 unknown #
vertex $-1 $322 $604 #
straight-curve $-1 -43.818532176903581 -0.39432252890238573 11.569144351245127 0 1 0 I I #
coedge $-1 $464 $323 $326 $478 reversed $316 $-1 #
coedge $-1 $323 $464 $469 $601 forward $316 $-1 #
vertex $-1 $324 $605 #
straight-curve $-1 -51.031830805383464 -6.0865024428713426 34.288962822965345 0 0 1 I I #
straight-curve $-1 -51.031830805383436 -6.0865024428713426 2.9726695712333537 -0.64278759981090561 0 -0.7660444514056185 I I #
edge $-1 $599 -4.5092123272617997 $328 6.0865024428713426 $473 $606 forward 7 unknown #
point $-1 -51.031830805383464 -6.0865024428713426 11.569144351245127 #
point $-1 -43.818532176903581 -6.0865024428713426 11.569144351245127 #
edge $-1 $607 1 $607 0 $331 $-1 forward 7 unknown #
vertex $-1 $332 $608 #
ellipse-curve $-1 -45.423207416397076 -3.0591553656904438 5.5910512974736442 -0.7660444514056185 0 0.64278759981090561 0.64278759981090561 0 0.7660444514056185 1 I I #
point $-1 -46.782393891332632 -3.0591553656904438 8.0369514126448589 #
edge $-1 $609 1 $609 0 $335 $-1 forward 7 unknown #
vertex $-1 $336 $610 #
ellipse-curve $-1 -45.423207416397076 1.481865250080908 5.5910512974736442 -0.7660444514056185 0 0.64278759981090561 0.64278759981090561 0 0.7660444514056185 1 I I #
point $-1 -46.782393891332632 1.481865250080908 8.0369514126448589 #
loop $-1 $-1 $345 $339 #
plane-surface $-1 0 0 11.569144351245127 0 0 1 1 0 0 forward_v I I I I #
coedge $-1 $342 $498 $494 $611 reversed $215 $-1 #
edge $-1 $496 22.719818471720217 $499 31.316293251732027 $342 $612 forward 7 unknown #
edge $-1 $499 -4.4123720097533069e-014 $495 11.221900718996221 $343 $613 forward 7 unknown #
coedge $-1 $501 $345 $491 $611 forward $489 $-1 #
vertex $-1 $346 $614 #
vertex $-1 $611 $615 #
straight-curve $-1 -64.608566236226039 15.104927097394949 11.569144351245129 -1 0 0 I I #
coedge $-1 $491 $348 $353 $504 forward $215 $-1 #
vertex $-1 $492 $616 #
straight-curve $-1 -51.031830805383464 -0.39432252890238573 2.9726695712333235 0 -1 0 I I #
coedge $-1 $350 $494 $352 $503 forward $489 $-1 #
straight-curve $-1 -43.818532176903581 -0.39432252890238573 11.569144351245127 0 1 0 I I #
edge $-1 $617 13.576735430842575 $355 20.790034059322458 $501 $618 forward 7 unknown #
edge $-1 $354 -31.316293251732027 $617 -22.719818471720217 $498 $619 forward 7 unknown #
point $-1 -51.031830805383464 4.5092123272617997 2.97266957123332 #
point $-1 -43.818532176903581 4.5092123272617997 11.569144351245127 #
edge $-1 $620 1 $620 0 $357 $-1 forward 7 unknown #
vertex $-1 $358 $621 #
ellipse-curve $-1 -45.423207416397076 7.5365594044427056 5.5910512974736442 -0.7660444514056185 0 0.64278759981090561 0.64278759981090561 0 0.7660444514056185 1 I I #
point $-1 -46.782393891332632 7.5365594044427056 8.0369514126448589 #
edge $-1 $622 1 $622 0 $361 $-1 forward 7 unknown #
vertex $-1 $362 $623 #
ellipse-curve $-1 -45.423207416397076 12.077580020214057 5.5910512974736442 -0.7660444514056185 0 0.64278759981090561 0.64278759981090561 0 0.7660444514056185 1 I I #
point $-1 -46.782393891332632 12.077580020214057 8.0369514126448589 #
loop $-1 $-1 $373 $365 #
plane-surface $-1 51.031830805383464 0 0 -1 0 0 0 0 1 forward_v I I I I #
coedge $-1 $518 $368 $370 $522 reversed $237 $-1 #
coedge $-1 $368 $517 $624 $625 reversed $237 $-1 #
coedge $-1 $376 $371 $368 $520 forward $366 $-1 #
edge $-1 $523 12.012593978026253 $626 19.225892606506086 $519 $627 forward 7 unknown #
coedge $-1 $370 $369 $526 $628 reversed $149 $-1 #
edge $-1 $629 -102.06366161076697 $523 -90.841760891770789 $517 $630 forward 7 unknown #
vertex $-1 $372 $631 #
straight-curve $-1 43.818532176903624 -0.39432252890238573 11.569144351245129 0 -1 0 I I #
coedge $-1 $624 $373 $376 $530 reversed $515 $-1 #
coedge $-1 $373 $624 $521 $628 forward $515 $-1 #
vertex $-1 $374 $632 #
straight-curve $-1 51.031830805383464 4.5092123272617997 73.381613656499681 0 0 1 I I #
straight-curve $-1 -14.573425269313887 4.5092123272617997 81.157971238302025 0.64278759981090561 0 -0.7660444514056185 I I #
edge $-1 $626 -6.0865024428713426 $377 4.5092123272617997 $525 $633 forward 7 unknown #
point $-1 51.031830805383464 4.5092123272617997 11.569144351245127 #
point $-1 43.818532176903631 4.5092123272617997 11.569144351245129 #
edge $-1 $634 1 $634 0 $380 $-1 forward 7 unknown #
vertex $-1 $381 $635 #
ellipse-curve $-1 45.423207416397084 -3.0591553656904438 5.5910512974736442 0.7660444514056185 0 0.64278759981090561 0.64278759981090561 0 -0.7660444514056185 1 I I #
point $-1 48.067969090954449 -3.0591553656904438 6.5048625098336217 #
edge $-1 $636 1 $636 0 $384 $-1 forward 7 unknown #
vertex $-1 $385 $637 #
ellipse-curve $-1 45.423207416397084 1.481865250080908 5.5910512974736442 0.7660444514056185 0 0.64278759981090561 0.64278759981090561 0 -0.7660444514056185 1 I I #
point $-1 48.067969090954449 1.481865250080908 6.5048625098336217 #
plane-surface $-1 51.031830805383464 0 0 -1 0 0 0 0 1 forward_v I I I I #
coedge $-1 $394 $547 $638 $639 reversed $389 $-1 #
coedge $-1 $638 $391 $392 $545 forward $259 $-1 #
coedge $-1 $391 $638 $399 $555 forward $259 $-1 #
edge $-1 $551 -15.499249626297335 $548 -4.9035348561641854 $543 $640 forward 7 unknown #
edge $-1 $549 4.9035348561641854 $402 15.499249626297335 $400 $641 forward 7 unknown #
coedge $-1 $542 $394 $554 $642 reversed $389 $-1 #
vertex $-1 $545 $643 #
vertex $-1 $546 $644 #
straight-curve $-1 -14.573425269313887 4.5092123272617997 81.157971238302025 0.64278759981090561 0 -0.7660444514056185 I I #
vertex $-1 $398 $645 #
straight-curve $-1 -14.573425269313887 15.104927097394949 81.157971238302025 0.64278759981090561 0 -0.7660444514056185 I I #
straight-curve $-1 31.805938198877378 15.104927097394949 11.569144351245129 -1 0 0 I I #
coedge $-1 $400 $399 $547 $642 forward $401 $-1 #
edge $-1 $646 4.5092123272617997 $403 15.104927097394949 $399 $647 forward 7 unknown #
point $-1 51.031830805383464 15.104927097394949 2.9726695712333822 #
point $-1 51.031830805383464 15.104927097394949 11.569144351245127 #
edge $-1 $648 1 $648 0 $405 $-1 forward 7 unknown #
vertex $-1 $406 $649 #
ellipse-curve $-1 45.423207416397084 7.5365594044427056 5.5910512974736442 0.7660444514056185 0 0.64278759981090561 0.64278759981090561 0 -0.7660444514056185 1 I I #
point $-1 48.067969090954449 7.5365594044427056 6.5048625098336217 #
edge $-1 $650 1 $650 0 $409 $-1 forward 7 unknown #
vertex $-1 $410 $651 #
ellipse-curve $-1 45.423207416397084 12.077580020214057 5.5910512974736442 0.7660444514056185 0 0.64278759981090561 0.64278759981090561 0 -0.7660444514056185 1 I I #
point $-1 48.067969090954449 12.077580020214057 6.5048625098336217 #
plane-surface $-1 51.031830805383464 0 0 -1 0 0 0 0 1 forward_v I I I I #
coedge $-1 $418 $416 $420 $571 reversed $281 $-1 #
edge $-1 $431 -11.569144351245127 $573 11.569144351245127 $430 $652 forward 7 unknown #
vertex $-1 $571 $653 #
straight-curve $-1 -51.031830805383464 -33.588466707771353 0 0 0 -1 I I #
edge $-1 $569 -33.588466707771353 $573 33.588466707771353 $567 $654 forward 7 unknown #
straight-curve $-1 0 -33.588466707771353 -11.569144351245127 -1 0 0 I I #
vertex $-1 $423 $655 #
straight-curve $-1 0 33.588466707771353 -11.569144351245127 1 0 0 I I #
point $-1 51.031830805383464 33.588466707771353 -11.569144351245127 #
point $-1 51.031830805383464 -33.588466707771353 -11.569144351245127 #
straight-curve $-1 -51.031830805383464 0 11.569144351245127 0 -1 0 I I #
point $-1 -51.031830805383464 33.588466707771353 11.569144351245127 #
point $-1 -51.031830805383464 -33.588466707771353 11.569144351245127 #
straight-curve $-1 51.031830805383464 -33.588466707771353 0 0 0 -1 I I #
straight-curve $-1 51.031830805383464 33.588466707771353 0 0 0 -1 I I #
plane-surface $-1 0 -33.588466707771353 0 0 1 0 0 0 1 forward_v I I I I #
coedge $-1 $656 $443 $455 $594 reversed $300 $-1 #
coedge $-1 $443 $656 $458 $596 reversed $300 $-1 #
edge $-1 $657 -51.031830805383464 $452 -44.159405281556261 $448 $658 forward 7 unknown #
straight-curve $-1 -44.159405281556261 -14.539627190254777 11.569144351245127 0 1 0 I I #
coedge $-1 $455 $446 $449 $590 forward $441 $-1 #
straight-curve $-1 -44.159405281556261 -14.539627190254777 -11.569144351245127 0 -1 0 I I #
coedge $-1 $449 $448 $656 $659 forward $450 $-1 #
edge $-1 $451 44.159405281556261 $660 51.031830805383464 $449 $661 forward 7 unknown #
point $-1 -44.159405281556261 -33.588466707771353 -11.569144351245127 #
point $-1 -44.159405281556261 -33.588466707771353 11.569144351245127 #
straight-curve $-1 -51.031830805383464 -24.570042053247754 0 0 0 -1 I I #
edge $-1 $660 -33.588466707771353 $456 -24.570042053247754 $583 $662 forward 7 unknown #
point $-1 -51.031830805383464 -24.570042053247754 -11.569144351245127 #
edge $-1 $459 24.570042053247754 $657 33.588466707771353 $584 $663 forward 7 unknown #
point $-1 -51.031830805383464 -24.570042053247754 11.569144351245127 #
edge $-1 $599 22.719818471720217 $602 31.316293251732027 $464 $664 forward 7 unknown #
vertex $-1 $478 $665 #
straight-curve $-1 -64.608566236226039 4.5092123272617997 11.569144351245129 -1 0 0 I I #
edge $-1 $602 -4.9035348561641854 $475 5.6921799139689568 $474 $666 forward 7 unknown #
vertex $-1 $601 $667 #
straight-curve $-1 -51.031830805383436 4.5092123272617997 2.9726695712333537 0.64278759981090561 0 0.7660444514056185 I I #
point $-1 -43.818532176903581 4.5092123272617997 11.569144351245127 #
point $-1 -51.031830805383464 -6.0865024428713426 2.97266957123332 #
straight-curve $-1 -51.031830805383464 0 11.569144351245127 0 -1 0 I I #
vertex $-1 $481 $668 #
point $-1 -44.780419816586168 -3.0591553656904438 6.3570957488792628 #
vertex $-1 $485 $669 #
point $-1 -44.780419816586168 1.481865250080908 6.3570957488792628 #
edge $-1 $496 -15.104927097394949 $617 -4.5092123272617997 $491 $670 forward 7 unknown #
straight-curve $-1 -51.031830805383464 15.104927097394949 34.288962822965345 0 0 -1 I I #
straight-curve $-1 -51.031830805383436 15.104927097394949 2.9726695712333537 0.64278759981090561 0 0.7660444514056185 I I #
point $-1 -43.818532176903581 15.104927097394949 11.569144351245127 #
point $-1 -51.031830805383464 15.104927097394949 11.569144351245127 #
point $-1 -51.031830805383464 15.104927097394949 2.97266957123332 #
vertex $-1 $504 $671 #
straight-curve $-1 -64.608566236226039 4.5092123272617997 11.569144351245129 1 0 0 I I #
straight-curve $-1 -51.031830805383464 4.5092123272617997 34.288962822965345 0 0 1 I I #
vertex $-1 $507 $672 #
point $-1 -44.780419816586168 7.5365594044427056 6.3570957488792628 #
vertex $-1 $511 $673 #
point $-1 -44.780419816586168 12.077580020214057 6.3570957488792628 #
coedge $-1 $526 $525 $518 $625 forward $515 $-1 #
edge $-1 $626 61.812469305254552 $629 70.408944085266299 $624 $674 forward 7 unknown #
vertex $-1 $530 $675 #
straight-curve $-1 31.805938198877378 -6.0865024428713426 11.569144351245129 1 0 0 I I #
edge $-1 $629 -5.6921799139689568 $527 4.9035348561641854 $526 $676 forward 7 unknown #
vertex $-1 $628 $677 #
straight-curve $-1 -14.573425269313887 -6.0865024428713426 81.157971238302025 -0.64278759981090561 0 0.7660444514056185 I I #
point $-1 43.818532176903631 -6.0865024428713426 11.569144351245129 #
point $-1 51.031830805383464 4.5092123272617997 2.9726695712333822 #
straight-curve $-1 51.031830805383464 0 11.569144351245127 0 1 0 I I #
vertex $-1 $533 $678 #
point $-1 46.065995016207992 -3.0591553656904438 4.8250068460680255 #
vertex $-1 $537 $679 #
point $-1 46.065995016207992 1.481865250080908 4.8250068460680255 #
coedge $-1 $544 $543 $542 $639 forward $259 $-1 #
edge $-1 $548 12.012593978026253 $646 19.225892606506086 $638 $680 forward 7 unknown #
straight-curve $-1 43.818532176903624 -0.39432252890238573 11.569144351245129 0 -1 0 I I #
straight-curve $-1 51.031830805383464 -0.39432252890238573 2.9726695712333679 0 1 0 I I #
edge $-1 $646 61.812469305254552 $549 70.408944085266299 $554 $681 forward 7 unknown #
point $-1 43.818532176903631 4.5092123272617997 11.569144351245129 #
point $-1 51.031830805383464 4.5092123272617997 2.9726695712333822 #
point $-1 43.818532176903631 15.104927097394949 11.569144351245129 #
vertex $-1 $555 $682 #
straight-curve $-1 51.031830805383464 0 11.569144351245127 0 1 0 I I #
vertex $-1 $558 $683 #
point $-1 46.065995016207992 7.5365594044427056 4.8250068460680255 #
vertex $-1 $562 $684 #
point $-1 46.065995016207992 12.077580020214057 4.8250068460680255 #
straight-curve $-1 -51.031830805383464 33.588466707771353 0 0 0 -1 I I #
point $-1 -51.031830805383464 -33.588466707771353 -11.569144351245127 #
straight-curve $-1 -51.031830805383464 0 -11.569144351245127 0 1 0 I I #
point $-1 -51.031830805383464 33.588466707771353 -11.569144351245127 #
coedge $-1 $584 $583 $589 $659 reversed $300 $-1 #
vertex $-1 $596 $685 #
straight-curve $-1 0 -33.588466707771353 11.569144351245127 1 0 0 I I #
edge $-1 $657 -11.569144351245127 $660 11.569144351245127 $656 $686 forward 7 unknown #
vertex $-1 $594 $687 #
straight-curve $-1 0 -33.588466707771353 -11.569144351245127 -1 0 0 I I #
straight-curve $-1 -51.031830805383464 0 -11.569144351245127 0 1 0 I I #
straight-curve $-1 -51.031830805383464 0 11.569144351245127 0 -1 0 I I #
straight-curve $-1 -51.031830805383464 4.5092123272617997 34.288962822965345 0 0 -1 I I #
point $-1 -51.031830805383464 4.5092123272617997 11.569144351245127 #
straight-curve $-1 -51.031830805383464 -0.39432252890238573 2.9726695712333235 0 -1 0 I I #
point $-1 -51.031830805383464 4.5092123272617997 2.97266957123332 #
point $-1 -44.657162964991457 -3.0591553656904438 4.948263697662739 #
point $-1 -44.657162964991457 1.481865250080908 4.948263697662739 #
straight-curve $-1 -51.031830805383464 0 11.569144351245127 0 -1 0 I I #
point $-1 -51.031830805383464 4.5092123272617997 11.569144351245127 #
point $-1 -44.657162964991457 7.5365594044427056 4.948263697662739 #
point $-1 -44.657162964991457 12.077580020214057 4.948263697662739 #
straight-curve $-1 51.031830805383464 -6.0865024428713426 73.381613656499681 0 0 -1 I I #
point $-1 51.031830805383464 -6.0865024428713426 11.569144351245127 #
straight-curve $-1 51.031830805383464 -0.39432252890238573 2.9726695712333679 0 1 0 I I #
point $-1 51.031830805383464 -6.0865024428713426 2.9726695712333822 #
point $-1 44.657162964991464 -3.0591553656904438 4.948263697662739 #
point $-1 44.657162964991464 1.481865250080908 4.948263697662739 #
straight-curve $-1 31.805938198877378 4.5092123272617997 11.569144351245129 1 0 0 I I #
straight-curve $-1 51.031830805383464 4.5092123272617997 73.381613656499681 0 0 -1 I I #
point $-1 51.031830805383464 4.5092123272617997 11.569144351245127 #
point $-1 44.657162964991464 7.5365594044427056 4.948263697662739 #
point $-1 44.657162964991464 12.077580020214057 4.948263697662739 #
point $-1 -51.031830805383464 -33.588466707771353 11.569144351245127 #
straight-curve $-1 -51.031830805383464 -33.588466707771353 0 0 0 -1 I I #
point $-1 -51.031830805383464 -33.588466707771353 -11.569144351245127 #
End-of-ACIS-data 