500 0 8 0           
7 Unknown 11 ACIS 5.0 NT 24 Fri Mar 26 19:43:55 1999 
-1 9.9999999999999995e-007 1e-010 
body $-1 $8 $-1 $9 #
body $-1 $10 $-1 $11 #
body $-1 $12 $-1 $13 #
body $-1 $14 $-1 $15 #
body $-1 $16 $-1 $17 #
body $-1 $18 $-1 $19 #
body $-1 $20 $-1 $21 #
body $-1 $22 $-1 $23 #
lump $-1 $-1 $24 $0 #
transform $-1 1 0 0 0 1 0 0 0 1 67.425153355510119 32.140688050530287 13.148873482044849 1 rotate no_reflect no_shear #
lump $-1 $-1 $25 $1 #
transform $-1 1 0 0 0 1 0 0 0 1 67.425153355510119 32.140688050530287 13.148873482044849 1 rotate no_reflect no_shear #
lump $-1 $-1 $26 $2 #
transform $-1 1 0 0 0 1 0 0 0 1 67.425153355510119 32.140688050530287 13.148873482044849 1 rotate no_reflect no_shear #
lump $-1 $-1 $27 $3 #
transform $-1 1 0 0 0 1 0 0 0 1 67.425153355510119 32.140688050530287 13.148873482044849 1 rotate no_reflect no_shear #
lump $-1 $-1 $28 $4 #
transform $-1 1 0 0 0 1 0 0 0 1 67.425153355510119 32.140688050530287 13.148873482044849 1 rotate no_reflect no_shear #
lump $-1 $-1 $29 $5 #
transform $-1 1 0 0 0 1 0 0 0 1 67.425153355510119 32.140688050530287 13.148873482044849 1 rotate no_reflect no_shear #
lump $-1 $-1 $30 $6 #
transform $-1 1 0 0 0 1 0 0 0 1 67.425153355510119 32.140688050530287 13.148873482044849 1 rotate no_reflect no_shear #
lump $-1 $-1 $31 $7 #
transform $-1 1 0 0 0 1 0 0 0 1 67.425153355510119 32.140688050530287 13.148873482044849 1 rotate no_reflect no_shear #
shell $-1 $-1 $-1 $32 $-1 $8 #
shell $-1 $-1 $-1 $33 $-1 $10 #
shell $-1 $-1 $-1 $34 $-1 $12 #
shell $-1 $-1 $-1 $35 $-1 $14 #
shell $-1 $-1 $-1 $36 $-1 $16 #
shell $-1 $-1 $-1 $37 $-1 $18 #
shell $-1 $-1 $-1 $38 $-1 $20 #
shell $-1 $-1 $-1 $39 $-1 $22 #
face $-1 $40 $41 $24 $-1 $42 forward single #
face $-1 $43 $44 $25 $-1 $45 reversed single #
face $-1 $46 $47 $26 $-1 $48 reversed single #
face $-1 $49 $50 $27 $-1 $51 forward single #
face $-1 $52 $53 $28 $-1 $54 forward single #
face $-1 $55 $56 $29 $-1 $57 reversed single #
face $-1 $58 $59 $30 $-1 $60 forward single #
face $-1 $61 $62 $31 $-1 $63 forward single #
face $-1 $64 $65 $24 $-1 $66 reversed single #
loop $-1 $-1 $67 $32 #
plane-surface $-1 0 0 13.148873482044849 0 0 1 1 0 0 forward_v I I I I #
face $-1 $68 $69 $25 $-1 $70 reversed single #
loop $-1 $-1 $71 $33 #
plane-surface $-1 0 -27.398991672631141 5.5121978117850556 0 0 1 1 0 0 forward_v I I I I #
face $-1 $72 $73 $26 $-1 $74 reversed single #
loop $-1 $-1 $75 $34 #
plane-surface $-1 -180.52013775184156 21.709034725545408 83.121896245903557 0 1 0 -0.83867057594974714 0 0.54463902268945019 forward_v I I I I #
face $-1 $76 $77 $27 $-1 $78 forward single #
loop $-1 $79 $80 $35 #
cone-surface $-1 -65.878538577942194 24.689507104112515 11.140695724398137 0.83867057594974714 0 -0.54463902268945019 0.2723195113447251 0 0.41933528797487357 1 I I 0 1 0.5 forward I I I I #
face $-1 $81 $82 $28 $-1 $83 forward single #
loop $-1 $84 $85 $36 #
cone-surface $-1 -65.878538577942194 29.160215671963179 11.140695724398137 0.83867057594974714 0 -0.54463902268945019 0.2723195113447251 0 0.41933528797487357 1 I I 0 1 0.5 forward I I I I #
face $-1 $86 $87 $29 $-1 $88 reversed single #
loop $-1 $-1 $89 $37 #
plane-surface $-1 107.07539849537888 9.574967912259396 189.08631131017415 0 -1 0 -0.83867057594974714 0 -0.54463902268945019 forward_v I I I I #
face $-1 $90 $91 $30 $-1 $92 forward single #
loop $-1 $93 $94 $38 #
cone-surface $-1 63.198762457546636 4.8188711975246861 7.3387323510148814 -0.83867057594974714 0 -0.54463902268945019 0.2723195113447251 0 -0.41933528797487357 1 I I 0 1 0.5 forward I I I I #
face $-1 $95 $96 $31 $-1 $97 forward single #
loop $-1 $98 $99 $39 #
cone-surface $-1 63.198762457546636 7.672529226365512 7.3387323510148814 -0.83867057594974714 0 -0.54463902268945019 0.2723195113447251 0 -0.41933528797487357 1 I I 0 1 0.5 forward I I I I #
face $-1 $100 $101 $24 $-1 $102 reversed single #
loop $-1 $-1 $103 $40 #
plane-surface $-1 0 0 -13.148873482044849 0 0 1 1 0 0 forward_v I I I I #
coedge $-1 $104 $105 $106 $107 forward $41 $-1 #
face $-1 $108 $109 $25 $-1 $110 reversed single #
loop $-1 $-1 $111 $43 #
plane-surface $-1 0 -22.657295294731995 9.330535646914953 0 -1 0 0 0 -1 forward_v I I I I #
coedge $-1 $112 $113 $114 $115 reversed $44 $-1 #
face $-1 $116 $117 $26 $-1 $118 forward single #
loop $-1 $-1 $119 $46 #
plane-surface $-1 -67.425153355510162 26.924861388037847 9.6771569894408884 -0.83867057594974714 0 0.54463902268945019 0.54463902268945019 0 0.83867057594974714 forward_v I I I I #
coedge $-1 $120 $121 $122 $123 reversed $47 $-1 #
face $-1 $-1 $124 $27 $-1 $125 forward single #
loop $-1 $126 $127 $49 #
cone-surface $-1 -65.24953564597989 24.689507104112515 10.73221645738105 0.83867057594974714 0 -0.54463902268945019 0.13615975567236255 0 0.20966764398743679 1 I I -0.70710678118654746 0.70710678118654746 0.25 forward I I I I #
loop $-1 $-1 $128 $35 #
coedge $-1 $80 $80 $129 $130 reversed $50 $-1 #
face $-1 $-1 $131 $28 $-1 $132 forward single #
loop $-1 $133 $134 $52 #
cone-surface $-1 -65.24953564597989 29.160215671963179 10.73221645738105 0.83867057594974714 0 -0.54463902268945019 0.13615975567236255 0 0.20966764398743679 1 I I -0.70710678118654746 0.70710678118654746 0.25 forward I I I I #
loop $-1 $-1 $135 $36 #
coedge $-1 $85 $85 $136 $137 reversed $53 $-1 #
face $-1 $138 $139 $29 $-1 $140 reversed single #
loop $-1 $-1 $141 $55 #
plane-surface $-1 -6.0195859009525208 6.2457002119450991 115.64157205371149 0.83867057594974714 0 0.54463902268945019 0.54463902268945019 0 -0.83867057594974714 forward_v I I I I #
coedge $-1 $142 $143 $144 $145 reversed $56 $-1 #
face $-1 $-1 $146 $30 $-1 $147 forward single #
loop $-1 $148 $149 $58 #
cone-surface $-1 62.205306264724541 4.8188711975246861 6.6935743766449463 -0.83867057594974714 0 -0.54463902268945019 0.13615975567236255 0 -0.20966764398743679 1 I I -0.70710678118654746 0.70710678118654746 0.25 forward I I I I #
loop $-1 $-1 $150 $38 #
coedge $-1 $94 $94 $151 $152 reversed $59 $-1 #
face $-1 $-1 $153 $31 $-1 $154 forward single #
loop $-1 $155 $156 $61 #
cone-surface $-1 62.205306264724541 7.672529226365512 6.6935743766449463 -0.83867057594974714 0 -0.54463902268945019 0.13615975567236255 0 -0.20966764398743679 1 I I -0.70710678118654746 0.70710678118654746 0.25 forward I I I I #
loop $-1 $-1 $157 $39 #
coedge $-1 $99 $99 $158 $159 reversed $62 $-1 #
face $-1 $160 $161 $24 $-1 $162 reversed single #
loop $-1 $-1 $163 $64 #
plane-surface $-1 0 -32.140688050530287 0 0 1 0 0 0 1 forward_v I I I I #
coedge $-1 $164 $165 $166 $167 forward $65 $-1 #
coedge $-1 $168 $67 $169 $170 forward $41 $-1 #
coedge $-1 $67 $168 $171 $172 forward $41 $-1 #
coedge $-1 $173 $174 $67 $107 reversed $175 $-1 #
edge $-1 $176 -32.140688050530287 $177 32.140688050530287 $106 $178 forward 7 unknown #
face $-1 $179 $180 $25 $-1 $181 reversed single #
loop $-1 $-1 $182 $68 #
plane-surface $-1 -67.425153355510119 0 0 1 0 0 0 0 -1 forward_v I I I I #
coedge $-1 $183 $184 $185 $186 reversed $69 $-1 #
coedge $-1 $187 $71 $188 $189 reversed $44 $-1 #
coedge $-1 $71 $187 $183 $190 forward $44 $-1 #
coedge $-1 $185 $191 $71 $115 forward $192 $-1 #
edge $-1 $193 -18.441192214214716 $194 -8.9577994584164244 $114 $195 forward 7 unknown #
face $-1 $196 $197 $26 $-1 $198 reversed single #
loop $-1 $-1 $122 $72 #
plane-surface $-1 0 0 13.148873482044849 0 0 1 1 0 0 forward_v I I I I #
coedge $-1 $199 $200 $201 $202 reversed $73 $-1 #
coedge $-1 $121 $75 $203 $204 reversed $47 $-1 #
coedge $-1 $75 $120 $199 $205 reversed $47 $-1 #
coedge $-1 $201 $206 $75 $123 forward $117 $-1 #
edge $-1 $207 22.834915520410661 $208 25.089474499596705 $122 $209 forward 7 unknown #
loop $-1 $-1 $129 $76 #
plane-surface $-1 -67.425153355510162 26.924861388037847 9.6771569894408884 -0.83867057594974714 0 0.54463902268945019 0.54463902268945019 0 0.83867057594974714 forward_v I I I I #
loop $-1 $-1 $210 $49 #
coedge $-1 $127 $127 $128 $211 reversed $77 $-1 #
coedge $-1 $128 $128 $127 $211 forward $79 $-1 #
coedge $-1 $129 $129 $80 $130 forward $124 $-1 #
edge $-1 $212 0 $212 6.2831853071796004 $129 $213 forward 7 unknown #
loop $-1 $-1 $136 $81 #
plane-surface $-1 -67.425153355510162 26.924861388037847 9.6771569894408884 -0.83867057594974714 0 0.54463902268945019 0.54463902268945019 0 0.83867057594974714 forward_v I I I I #
loop $-1 $-1 $214 $52 #
coedge $-1 $134 $134 $135 $215 reversed $82 $-1 #
coedge $-1 $135 $135 $134 $215 forward $84 $-1 #
coedge $-1 $136 $136 $85 $137 forward $131 $-1 #
edge $-1 $216 0 $216 6.2831853071796004 $136 $217 forward 7 unknown #
face $-1 $218 $219 $29 $-1 $220 reversed single #
loop $-1 $-1 $221 $86 #
plane-surface $-1 107.07539849537888 2.9164325116308021 189.08631131017415 0 1 0 0.83867057594974714 0 0.54463902268945019 forward_v I I I I #
coedge $-1 $222 $223 $224 $225 reversed $87 $-1 #
coedge $-1 $143 $89 $226 $227 reversed $56 $-1 #
coedge $-1 $89 $142 $222 $228 reversed $56 $-1 #
coedge $-1 $224 $229 $89 $145 forward $230 $-1 #
edge $-1 $231 -13.88745410782068 $232 -7.0022494095630847 $144 $233 forward 7 unknown #
loop $-1 $-1 $151 $90 #
plane-surface $-1 -6.0195859009525208 6.2457002119450991 115.64157205371149 0.83867057594974714 0 0.54463902268945019 0.54463902268945019 0 -0.83867057594974714 forward_v I I I I #
loop $-1 $-1 $234 $58 #
coedge $-1 $149 $149 $150 $235 reversed $91 $-1 #
coedge $-1 $150 $150 $149 $235 forward $93 $-1 #
coedge $-1 $151 $151 $94 $152 forward $146 $-1 #
edge $-1 $236 0 $236 6.2831853071796004 $151 $237 forward 7 unknown #
loop $-1 $-1 $158 $95 #
plane-surface $-1 -6.0195859009525208 6.2457002119450991 115.64157205371149 0.83867057594974714 0 0.54463902268945019 0.54463902268945019 0 -0.83867057594974714 forward_v I I I I #
loop $-1 $-1 $238 $61 #
coedge $-1 $156 $156 $157 $239 reversed $96 $-1 #
coedge $-1 $157 $157 $156 $239 forward $98 $-1 #
coedge $-1 $158 $158 $99 $159 forward $153 $-1 #
edge $-1 $240 0 $240 6.2831853071796004 $158 $241 forward 7 unknown #
face $-1 $242 $243 $24 $-1 $244 reversed single #
loop $-1 $-1 $245 $100 #
plane-surface $-1 -67.425153355510119 0 0 1 0 0 0 0 -1 forward_v I I I I #
coedge $-1 $246 $171 $247 $248 forward $101 $-1 #
coedge $-1 $249 $103 $246 $250 forward $65 $-1 #
coedge $-1 $103 $249 $251 $252 forward $65 $-1 #
coedge $-1 $174 $173 $103 $167 reversed $175 $-1 #
edge $-1 $253 -32.140688050530287 $254 32.140688050530287 $166 $255 forward 7 unknown #
coedge $-1 $105 $104 $256 $257 forward $41 $-1 #
coedge $-1 $258 $259 $104 $170 reversed $243 $-1 #
edge $-1 $177 -67.425153355510119 $260 67.425153355510119 $169 $261 forward 7 unknown #
coedge $-1 $163 $262 $105 $172 reversed $101 $-1 #
edge $-1 $263 -67.425153355510119 $176 67.425153355510119 $171 $264 forward 7 unknown #
coedge $-1 $166 $106 $262 $265 forward $175 $-1 #
coedge $-1 $106 $166 $258 $266 reversed $175 $-1 #
loop $-1 $-1 $173 $242 #
vertex $-1 $107 $267 #
vertex $-1 $107 $268 #
straight-curve $-1 67.425153355510119 0 13.148873482044849 0 1 0 I I #
face $-1 $269 $270 $25 $-1 $271 forward single #
loop $-1 $-1 $188 $108 #
plane-surface $-1 0 -32.140688050530287 0 0 1 0 0 0 1 forward_v I I I I #
coedge $-1 $272 $273 $274 $275 forward $109 $-1 #
coedge $-1 $274 $111 $113 $190 reversed $69 $-1 #
coedge $-1 $111 $274 $276 $277 reversed $69 $-1 #
coedge $-1 $278 $114 $111 $186 forward $192 $-1 #
edge $-1 $194 0.84692998832757915 $279 8.4836056585873738 $185 $280 forward 7 unknown #
coedge $-1 $113 $112 $272 $281 reversed $44 $-1 #
coedge $-1 $282 $283 $112 $189 forward $180 $-1 #
edge $-1 $284 -67.425153355510119 $193 67.425153355510119 $188 $285 forward 7 unknown #
edge $-1 $286 -67.425153355510119 $194 67.425153355510119 $183 $287 forward 7 unknown #
coedge $-1 $114 $278 $282 $288 forward $192 $-1 #
loop $-1 $-1 $185 $269 #
vertex $-1 $189 $289 #
vertex $-1 $115 $290 #
straight-curve $-1 67.425153355510119 -13.69949583631557 5.5121978117850556 0 1 0 I I #
face $-1 $-1 $291 $26 $-1 $292 reversed single #
loop $-1 $-1 $293 $116 #
plane-surface $-1 0 32.140688050530287 0 0 -1 0 0 0 -1 forward_v I I I I #
coedge $-1 $294 $119 $121 $205 forward $73 $-1 #
coedge $-1 $119 $294 $293 $295 reversed $73 $-1 #
coedge $-1 $296 $122 $119 $202 forward $117 $-1 #
edge $-1 $208 8.2466040315264841 $297 18.678257356511363 $201 $298 forward 7 unknown #
coedge $-1 $299 $300 $120 $204 forward $291 $-1 #
edge $-1 $301 -31.883791133510826 $207 -28.41207464090693 $203 $302 forward 7 unknown #
edge $-1 $208 -4.1395472694060338 $301 -7.8341151973915139e-014 $121 $303 forward 7 unknown #
coedge $-1 $122 $296 $299 $304 forward $117 $-1 #
vertex $-1 $204 $305 #
vertex $-1 $123 $306 #
straight-curve $-1 -90.26006887592078 21.709034725545408 13.148873482044849 1 0 0 I I #
coedge $-1 $210 $210 $-1 $307 reversed $126 $-1 #
edge $-1 $308 0 $308 6.2831853071796004 $127 $309 forward 7 unknown #
vertex $-1 $130 $310 #
ellipse-curve $-1 -66.297873865917111 24.689507104112515 11.413015235742888 -0.83867057594974714 0 0.54463902268945019 0.2723195113447251 0 0.41933528797487357 1 I I #
coedge $-1 $214 $214 $-1 $311 reversed $133 $-1 #
edge $-1 $312 0 $312 6.2831853071796004 $134 $313 forward 7 unknown #
vertex $-1 $137 $314 #
ellipse-curve $-1 -66.297873865917111 29.160215671963179 11.413015235742888 -0.83867057594974714 0 0.54463902268945019 0.2723195113447251 0 0.41933528797487357 1 I I #
face $-1 $-1 $230 $29 $-1 $315 forward single #
loop $-1 $-1 $316 $138 #
plane-surface $-1 67.425153355510119 0 0 -1 0 0 0 0 1 forward_v I I I I #
coedge $-1 $317 $318 $319 $320 reversed $139 $-1 #
coedge $-1 $321 $141 $143 $228 forward $87 $-1 #
coedge $-1 $141 $321 $317 $322 forward $87 $-1 #
coedge $-1 $319 $144 $141 $225 forward $230 $-1 #
edge $-1 $232 -6.4521178062868465 $323 0.20641759434174745 $224 $324 forward 7 unknown #
coedge $-1 $325 $326 $142 $227 forward $219 $-1 #
edge $-1 $327 -91.996567997706933 $231 -81.394282173042228 $226 $328 forward 7 unknown #
edge $-1 $232 122.20853039418895 $327 134.85030671102018 $143 $329 forward 7 unknown #
coedge $-1 $144 $319 $325 $330 forward $230 $-1 #
loop $-1 $-1 $319 $218 #
vertex $-1 $227 $331 #
vertex $-1 $145 $332 #
straight-curve $-1 53.537699247689439 9.574967912259396 13.148873482044849 -1 0 0 I I #
coedge $-1 $234 $234 $-1 $333 reversed $148 $-1 #
edge $-1 $334 0 $334 6.2831853071796004 $149 $335 forward 7 unknown #
vertex $-1 $152 $336 #
ellipse-curve $-1 63.982551006381335 4.8188711975246861 7.847730569712482 0.83867057594974714 0 0.54463902268945019 0.2723195113447251 0 -0.41933528797487357 1 I I #
coedge $-1 $238 $238 $-1 $337 reversed $155 $-1 #
edge $-1 $338 0 $338 6.2831853071796004 $156 $339 forward 7 unknown #
vertex $-1 $159 $340 #
ellipse-curve $-1 63.982551006381335 7.672529226365512 7.847730569712482 0.83867057594974714 0 0.54463902268945019 0.2723195113447251 0 -0.41933528797487357 1 I I #
face $-1 $-1 $175 $24 $-1 $341 reversed single #
loop $-1 $-1 $258 $160 #
plane-surface $-1 0 32.140688050530287 0 0 -1 0 0 0 -1 forward_v I I I I #
coedge $-1 $342 $256 $259 $343 forward $161 $-1 #
coedge $-1 $262 $163 $164 $250 reversed $101 $-1 #
coedge $-1 $256 $342 $163 $248 reversed $161 $-1 #
edge $-1 $263 -13.148873482044849 $344 13.148873482044849 $247 $345 forward 7 unknown #
coedge $-1 $165 $164 $342 $346 forward $65 $-1 #
edge $-1 $254 -67.425153355510119 $344 67.425153355510119 $246 $347 forward 7 unknown #
coedge $-1 $259 $258 $165 $252 reversed $243 $-1 #
edge $-1 $348 -67.425153355510119 $253 67.425153355510119 $251 $349 forward 7 unknown #
vertex $-1 $167 $350 #
vertex $-1 $265 $351 #
straight-curve $-1 67.425153355510119 0 -13.148873482044849 0 -1 0 I I #
coedge $-1 $245 $247 $168 $257 reversed $161 $-1 #
edge $-1 $260 -32.140688050530287 $263 32.140688050530287 $256 $352 forward 7 unknown #
coedge $-1 $251 $169 $174 $266 forward $243 $-1 #
coedge $-1 $169 $251 $245 $343 reversed $243 $-1 #
vertex $-1 $170 $353 #
straight-curve $-1 0 32.140688050530287 13.148873482044849 -1 0 0 I I #
coedge $-1 $171 $246 $173 $265 reversed $101 $-1 #
vertex $-1 $257 $354 #
straight-curve $-1 0 -32.140688050530287 13.148873482044849 1 0 0 I I #
edge $-1 $176 -13.148873482044849 $254 13.148873482044849 $173 $355 forward 7 unknown #
edge $-1 $177 -13.148873482044849 $253 13.148873482044849 $174 $356 forward 7 unknown #
point $-1 67.425153355510119 -32.140688050530287 13.148873482044849 #
point $-1 67.425153355510119 32.140688050530287 13.148873482044849 #
face $-1 $-1 $192 $25 $-1 $357 reversed single #
loop $-1 $-1 $276 $179 #
plane-surface $-1 0 0 13.148873482044849 0 0 1 1 0 0 forward_v I I I I #
coedge $-1 $358 $182 $187 $281 forward $109 $-1 #
coedge $-1 $182 $358 $359 $360 reversed $109 $-1 #
coedge $-1 $184 $183 $182 $275 reversed $69 $-1 #
edge $-1 $361 -8.4836056585873738 $286 -0.84692998832757915 $182 $362 forward 7 unknown #
coedge $-1 $359 $363 $184 $277 forward $270 $-1 #
edge $-1 $279 -67.425153355510119 $361 67.425153355510119 $276 $364 forward 7 unknown #
coedge $-1 $191 $185 $363 $365 reversed $192 $-1 #
vertex $-1 $186 $366 #
straight-curve $-1 67.425153355510119 -22.657295294731995 4.6652678234574765 0 0 1 I I #
edge $-1 $286 8.9577994584164244 $284 18.441192214214716 $272 $367 forward 7 unknown #
coedge $-1 $368 $188 $191 $288 reversed $180 $-1 #
coedge $-1 $188 $368 $358 $369 forward $180 $-1 #
vertex $-1 $189 $370 #
straight-curve $-1 0 -32.140688050530287 5.5121978117850556 1 0 0 I I #
vertex $-1 $281 $371 #
straight-curve $-1 0 -22.657295294731995 5.5121978117850556 1 0 0 I I #
edge $-1 $372 -13.148873482044849 $193 -5.5121978117850556 $191 $373 forward 7 unknown #
point $-1 67.425153355510119 -32.140688050530287 5.5121978117850556 #
point $-1 67.425153355510119 -22.657295294731995 5.5121978117850556 #
loop $-1 $-1 $203 $196 #
plane-surface $-1 -67.425153355510119 0 0 1 0 0 0 0 -1 forward_v I I I I #
coedge $-1 $374 $375 $200 $295 forward $197 $-1 #
coedge $-1 $200 $199 $300 $376 reversed $73 $-1 #
edge $-1 $297 10.163664131764389 $377 14.303211401170344 $293 $378 forward 7 unknown #
coedge $-1 $206 $201 $375 $379 forward $117 $-1 #
vertex $-1 $379 $380 #
straight-curve $-1 -65.170594376324075 13.462430694018924 13.148873482044849 0 1 0 I I #
coedge $-1 $381 $203 $206 $304 reversed $291 $-1 #
coedge $-1 $203 $381 $294 $376 forward $291 $-1 #
vertex $-1 $204 $382 #
straight-curve $-1 -67.425153355510119 21.709034725545408 41.560948122951778 0 0 1 I I #
straight-curve $-1 -67.425153355510162 21.709034725545408 9.6771569894408884 -0.54463902268945019 0 -0.83867057594974714 I I #
edge $-1 $383 -32.140688050530287 $207 -21.709034725545408 $299 $384 forward 7 unknown #
point $-1 -67.425153355510119 21.709034725545408 13.148873482044849 #
point $-1 -65.170594376324075 21.709034725545408 13.148873482044849 #
edge $-1 $385 1 $385 0 $210 $-1 forward 7 unknown #
vertex $-1 $211 $386 #
ellipse-curve $-1 -65.45920328996732 24.689507104112515 10.868376213053413 -0.83867057594974714 0 0.54463902268945019 0.2723195113447251 0 0.41933528797487357 1 I I #
point $-1 -66.02555435457235 24.689507104112515 11.832350523717736 #
edge $-1 $387 1 $387 0 $214 $-1 forward 7 unknown #
vertex $-1 $215 $388 #
ellipse-curve $-1 -65.45920328996732 29.160215671963179 10.868376213053413 -0.83867057594974714 0 0.54463902268945019 0.2723195113447251 0 0.41933528797487357 1 I I #
point $-1 -66.02555435457235 29.160215671963179 11.832350523717736 #
plane-surface $-1 0 0 13.148873482044849 0 0 1 1 0 0 forward_v I I I I #
coedge $-1 $326 $325 $318 $389 forward $219 $-1 #
coedge $-1 $318 $221 $223 $322 reversed $139 $-1 #
coedge $-1 $221 $317 $316 $389 reversed $139 $-1 #
coedge $-1 $229 $224 $221 $320 forward $230 $-1 #
edge $-1 $323 7.0022494095630847 $390 13.88745410782068 $319 $391 forward 7 unknown #
coedge $-1 $223 $222 $326 $392 reversed $87 $-1 #
edge $-1 $393 -134.85030671102018 $323 -122.20853039418895 $317 $394 forward 7 unknown #
vertex $-1 $225 $395 #
straight-curve $-1 60.539948657252523 3.1228501059725495 13.148873482044849 0 -1 0 I I #
coedge $-1 $316 $226 $229 $330 reversed $219 $-1 #
coedge $-1 $226 $316 $321 $392 forward $219 $-1 #
vertex $-1 $227 $396 #
straight-curve $-1 67.425153355510119 9.574967912259396 94.543155655087077 0 0 1 I I #
straight-curve $-1 -6.0195859009525208 9.574967912259396 115.64157205371149 0.54463902268945019 0 -0.83867057594974714 I I #
edge $-1 $390 2.9164325116308021 $231 9.574967912259396 $325 $397 forward 7 unknown #
point $-1 67.425153355510119 9.574967912259396 13.148873482044849 #
point $-1 60.539948657252523 9.574967912259396 13.148873482044849 #
edge $-1 $398 1 $398 0 $234 $-1 forward 7 unknown #
vertex $-1 $235 $399 #
ellipse-curve $-1 62.414973908711978 4.8188711975246861 6.8297341323173084 0.83867057594974714 0 0.54463902268945019 0.2723195113447251 0 -0.41933528797487357 1 I I #
point $-1 64.254870517726005 4.8188711975246861 7.4283952817375809 #
edge $-1 $400 1 $400 0 $238 $-1 forward 7 unknown #
vertex $-1 $239 $401 #
ellipse-curve $-1 62.414973908711978 7.672529226365512 6.8297341323173084 0.83867057594974714 0 0.54463902268945019 0.2723195113447251 0 -0.41933528797487357 1 I I #
point $-1 64.254870517726005 7.672529226365512 7.4283952817375809 #
plane-surface $-1 67.425153355510119 0 0 -1 0 0 0 0 1 forward_v I I I I #
coedge $-1 $247 $245 $249 $346 reversed $161 $-1 #
edge $-1 $260 -13.148873482044849 $348 13.148873482044849 $259 $402 forward 7 unknown #
vertex $-1 $346 $403 #
straight-curve $-1 -67.425153355510119 -32.140688050530287 0 0 0 -1 I I #
edge $-1 $344 -32.140688050530287 $348 32.140688050530287 $342 $404 forward 7 unknown #
straight-curve $-1 0 -32.140688050530287 -13.148873482044849 -1 0 0 I I #
vertex $-1 $252 $405 #
straight-curve $-1 0 32.140688050530287 -13.148873482044849 1 0 0 I I #
point $-1 67.425153355510119 32.140688050530287 -13.148873482044849 #
point $-1 67.425153355510119 -32.140688050530287 -13.148873482044849 #
straight-curve $-1 -67.425153355510119 0 13.148873482044849 0 -1 0 I I #
point $-1 -67.425153355510119 32.140688050530287 13.148873482044849 #
point $-1 -67.425153355510119 -32.140688050530287 13.148873482044849 #
straight-curve $-1 67.425153355510119 -32.140688050530287 0 0 0 -1 I I #
straight-curve $-1 67.425153355510119 32.140688050530287 0 0 0 -1 I I #
plane-surface $-1 67.425153355510119 0 0 -1 0 0 0 0 1 forward_v I I I I #
coedge $-1 $273 $272 $283 $369 reversed $109 $-1 #
coedge $-1 $406 $276 $273 $360 forward $270 $-1 #
edge $-1 $361 22.657295294731995 $407 32.140688050530287 $273 $408 forward 7 unknown #
vertex $-1 $360 $409 #
straight-curve $-1 -67.425153355510119 -22.657295294731995 4.6652678234574765 0 0 -1 I I #
coedge $-1 $276 $406 $278 $365 forward $270 $-1 #
straight-curve $-1 0 -22.657295294731995 13.148873482044849 -1 0 0 I I #
edge $-1 $372 -32.140688050530287 $279 -22.657295294731995 $278 $410 forward 7 unknown #
point $-1 67.425153355510119 -22.657295294731995 13.14887348204485 #
straight-curve $-1 -67.425153355510119 -13.69949583631557 5.5121978117850556 0 -1 0 I I #
coedge $-1 $283 $282 $406 $411 reversed $180 $-1 #
edge $-1 $407 -13.148873482044849 $284 -5.5121978117850556 $358 $412 forward 7 unknown #
point $-1 -67.425153355510119 -32.140688050530287 5.5121978117850556 #
point $-1 -67.425153355510119 -22.657295294731995 5.5121978117850556 #
vertex $-1 $365 $413 #
straight-curve $-1 67.425153355510119 -32.140688050530287 0 0 0 -1 I I #
coedge $-1 $375 $293 $381 $414 reversed $197 $-1 #
coedge $-1 $293 $374 $296 $379 reversed $197 $-1 #
edge $-1 $377 -18.678257356511363 $301 -8.2466040315264841 $300 $415 forward 7 unknown #
vertex $-1 $295 $416 #
straight-curve $-1 -59.635066276656104 32.140688050530287 21.672839533191478 -0.54463902268945019 0 -0.83867057594974714 I I #
edge $-1 $297 65.170594376324075 $383 67.425153355510119 $375 $417 forward 7 unknown #
point $-1 -65.170594376324075 32.140688050530287 13.148873482044849 #
coedge $-1 $300 $299 $374 $414 forward $291 $-1 #
point $-1 -67.425153355510119 21.709034725545408 9.6771569894409541 #
vertex $-1 $379 $418 #
straight-curve $-1 -67.425153355510119 0 13.148873482044849 0 -1 0 I I #
vertex $-1 $307 $419 #
point $-1 -65.186883778622601 24.689507104112515 11.287711501028285 #
vertex $-1 $311 $420 #
point $-1 -65.186883778622601 29.160215671963179 11.287711501028285 #
edge $-1 $390 81.394282173042228 $393 91.996567997706933 $316 $421 forward 7 unknown #
vertex $-1 $330 $422 #
straight-curve $-1 53.537699247689439 2.9164325116308021 13.148873482044849 1 0 0 I I #
edge $-1 $393 -0.20641759434174745 $327 6.4521178062868465 $326 $423 forward 7 unknown #
vertex $-1 $392 $424 #
straight-curve $-1 -6.0195859009525208 2.9164325116308021 115.64157205371149 -0.54463902268945019 0 0.83867057594974714 I I #
point $-1 60.539948657252523 2.9164325116308021 13.148873482044849 #
point $-1 67.425153355510119 9.574967912259396 2.5465876573801438 #
straight-curve $-1 67.425153355510119 0 13.148873482044849 0 1 0 I I #
vertex $-1 $333 $425 #
point $-1 62.687293420056704 4.8188711975246861 6.4103988443424349 #
vertex $-1 $337 $426 #
point $-1 62.687293420056704 7.672529226365512 6.4103988443424349 #
straight-curve $-1 -67.425153355510119 32.140688050530287 0 0 0 -1 I I #
point $-1 -67.425153355510119 -32.140688050530287 -13.148873482044849 #
straight-curve $-1 -67.425153355510119 0 -13.148873482044849 0 1 0 I I #
point $-1 -67.425153355510119 32.140688050530287 -13.148873482044849 #
coedge $-1 $363 $359 $368 $411 forward $270 $-1 #
vertex $-1 $360 $427 #
straight-curve $-1 -67.425153355510119 0 13.148873482044849 0 -1 0 I I #
point $-1 -67.425153355510119 -22.657295294731995 13.14887348204485 #
straight-curve $-1 67.425153355510119 0 13.148873482044849 0 1 0 I I #
edge $-1 $407 -67.425153355510119 $372 67.425153355510119 $368 $428 forward 7 unknown #
straight-curve $-1 -67.425153355510119 -32.140688050530287 0 0 0 -1 I I #
point $-1 67.425153355510119 -32.140688050530287 13.148873482044849 #
edge $-1 $383 -13.148873482044849 $377 -9.6771569894409541 $374 $429 forward 7 unknown #
straight-curve $-1 -67.425153355510119 13.462430694018924 9.6771569894409524 0 -1 0 I I #
point $-1 -67.425153355510119 32.140688050530287 9.6771569894409541 #
straight-curve $-1 0 32.140688050530287 13.148873482044849 -1 0 0 I I #
point $-1 -67.425153355510119 32.140688050530287 13.148873482044849 #
point $-1 -65.03986800199246 24.689507104112515 10.596056701708687 #
point $-1 -65.03986800199246 29.160215671963179 10.596056701708687 #
straight-curve $-1 67.425153355510119 2.9164325116308021 94.543155655087077 0 0 -1 I I #
point $-1 67.425153355510119 2.9164325116308021 13.148873482044849 #
straight-curve $-1 67.425153355510119 3.1228501059725495 2.5465876573801367 0 1 0 I I #
point $-1 67.425153355510119 2.9164325116308021 2.5465876573801438 #
point $-1 61.995638620737104 4.8188711975246861 6.5574146209725841 #
point $-1 61.995638620737104 7.672529226365512 6.5574146209725841 #
point $-1 -67.425153355510119 -32.140688050530287 13.148873482044849 #
straight-curve $-1 0 -32.140688050530287 13.148873482044849 1 0 0 I I #
straight-curve $-1 -67.425153355510119 32.140688050530287 0 0 0 -1 I I #
End-of-ACIS-data 