500 0 7 0           
7 Unknown 11 ACIS 5.0 NT 24 Thu Mar 25 20:31:38 1999 
-1 9.9999999999999995e-007 1e-010 
body $-1 $7 $-1 $8 #
body $-1 $9 $-1 $10 #
body $-1 $11 $-1 $12 #
body $-1 $13 $-1 $14 #
body $-1 $15 $-1 $16 #
body $-1 $17 $-1 $18 #
body $-1 $19 $-1 $20 #
lump $-1 $-1 $21 $0 #
transform $-1 1 0 0 0 1 0 0 0 1 42.002014221625416 29.383720578745127 10.084282705045334 1 rotate no_reflect no_shear #
lump $-1 $-1 $22 $1 #
transform $-1 1 0 0 0 1 0 0 0 1 42.002014221625416 29.383720578745127 10.084282705045334 1 rotate no_reflect no_shear #
lump $-1 $-1 $23 $2 #
transform $-1 1 0 0 0 1 0 0 0 1 42.002014221625416 29.383720578745127 10.084282705045334 1 rotate no_reflect no_shear #
lump $-1 $-1 $24 $3 #
transform $-1 1 0 0 0 1 0 0 0 1 42.002014221625416 29.383720578745127 10.084282705045334 1 rotate no_reflect no_shear #
lump $-1 $-1 $25 $4 #
transform $-1 1 0 0 0 1 0 0 0 1 42.002014221625416 29.383720578745127 10.084282705045334 1 rotate no_reflect no_shear #
lump $-1 $-1 $26 $5 #
transform $-1 1 0 0 0 1 0 0 0 1 42.002014221625416 29.383720578745127 10.084282705045334 1 rotate no_reflect no_shear #
lump $-1 $-1 $27 $6 #
transform $-1 1 0 0 0 1 0 0 0 1 42.002014221625416 29.383720578745127 10.084282705045334 1 rotate no_reflect no_shear #
shell $-1 $-1 $-1 $28 $-1 $7 #
shell $-1 $-1 $-1 $29 $-1 $9 #
shell $-1 $-1 $-1 $30 $-1 $11 #
shell $-1 $-1 $-1 $31 $-1 $13 #
shell $-1 $-1 $-1 $32 $-1 $15 #
shell $-1 $-1 $-1 $33 $-1 $17 #
shell $-1 $-1 $-1 $34 $-1 $19 #
face $-1 $35 $36 $21 $-1 $37 reversed single #
face $-1 $38 $39 $22 $-1 $40 forward single #
face $-1 $41 $42 $23 $-1 $43 reversed single #
face $-1 $44 $45 $24 $-1 $46 forward single #
face $-1 $47 $48 $25 $-1 $49 forward single #
face $-1 $50 $51 $26 $-1 $52 reversed single #
face $-1 $53 $54 $27 $-1 $55 forward single #
face $-1 $56 $57 $21 $-1 $58 forward single #
loop $-1 $-1 $59 $28 #
plane-surface $-1 -42.002014221625416 0 0 1 0 0 0 0 -1 forward_v I I I I #
face $-1 $60 $61 $22 $-1 $62 reversed single #
loop $-1 $-1 $63 $29 #
plane-surface $-1 -42.002014221625416 0 0 1 0 0 0 0 -1 forward_v I I I I #
face $-1 $64 $65 $23 $-1 $66 reversed single #
loop $-1 $-1 $67 $30 #
plane-surface $-1 -20.446819966868013 55.959558014765378 100.72105183802728 1 0 0 0 -0.7660444514056185 -0.64278759981090561 forward_v I I I I #
face $-1 $68 $69 $24 $-1 $70 forward single #
loop $-1 $71 $72 $31 #
cone-surface $-1 -17.61639127626297 25.074806812099947 5.2290334108869985 0 -0.7660444514056185 -0.64278759981090561 1 0 0 1 I I 0 1 1 forward I I I I #
face $-1 $73 $74 $25 $-1 $75 forward single #
loop $-1 $76 $77 $32 #
cone-surface $-1 -13.370748240355404 25.074806812099947 5.2290334108869985 0 -0.7660444514056185 -0.64278759981090561 1 0 0 1 I I 0 1 1 forward I I I I #
face $-1 $78 $79 $26 $-1 $80 reversed single #
loop $-1 $-1 $81 $33 #
plane-surface $-1 -15.379783906701642 -78.760050261659302 70.320960640587742 -1 0 0 0 -0.5877852598018023 0.80901698891910034 forward_v I I I I #
face $-1 $82 $83 $27 $-1 $84 forward single #
loop $-1 $85 $86 $34 #
cone-surface $-1 -23.568420751976412 -23.416966673976816 5.3260318657746151 0 0.5877852598018023 -0.80901698891910034 1.5 0 0 1 I I 0 1 1.5 forward I I I I #
face $-1 $87 $88 $21 $-1 $89 reversed single #
loop $-1 $-1 $90 $35 #
plane-surface $-1 0 0 10.084282705045334 0 0 1 1 0 0 forward_v I I I I #
coedge $-1 $91 $92 $93 $94 reversed $36 $-1 #
face $-1 $95 $96 $22 $-1 $97 reversed single #
loop $-1 $-1 $98 $38 #
plane-surface $-1 0 0 -10.084282705045334 0 0 1 1 0 0 forward_v I I I I #
coedge $-1 $99 $100 $101 $102 forward $39 $-1 #
face $-1 $103 $104 $23 $-1 $105 reversed single #
loop $-1 $-1 $106 $41 #
plane-surface $-1 -15.493569758309189 -8.3912618699066712 46.72430402054303 0 0.7660444514056185 0.64278759981090561 1 0 0 forward_v I I I I #
coedge $-1 $107 $108 $109 $110 reversed $42 $-1 #
face $-1 $-1 $111 $24 $-1 $112 forward single #
loop $-1 $113 $114 $44 #
cone-surface $-1 -17.61639127626297 23.898048260462573 4.241615770075148 0 -0.7660444514056185 -0.64278759981090561 0.5 0 0 1 I I -0.70710678118654746 0.70710678118654746 0.5 forward I I I I #
loop $-1 $-1 $115 $31 #
coedge $-1 $72 $72 $116 $117 reversed $45 $-1 #
face $-1 $-1 $118 $25 $-1 $119 forward single #
loop $-1 $120 $121 $47 #
cone-surface $-1 -13.370748240355404 23.898048260462573 4.241615770075148 0 -0.7660444514056185 -0.64278759981090561 0.5 0 0 1 I I -0.70710678118654746 0.70710678118654746 0.5 forward I I I I #
loop $-1 $-1 $122 $32 #
coedge $-1 $77 $77 $123 $124 reversed $48 $-1 #
face $-1 $125 $126 $26 $-1 $127 reversed single #
loop $-1 $-1 $128 $50 #
plane-surface $-1 -23.568420751976412 -29.38372057874512 2.3602744923544918 0 -0.5877852598018023 0.80901698891910034 1 0 0 forward_v I I I I #
coedge $-1 $129 $130 $131 $132 reversed $51 $-1 #
face $-1 $-1 $133 $27 $-1 $134 forward single #
loop $-1 $135 $136 $53 #
cone-surface $-1 -23.568420751976412 -22.32496634935907 3.8230223911599879 0 0.5877852598018023 -0.80901698891910034 0.75 0 0 1 I I -0.70710678118654757 0.70710678118654757 0.75 forward I I I I #
loop $-1 $-1 $137 $34 #
coedge $-1 $86 $86 $138 $139 reversed $54 $-1 #
face $-1 $140 $141 $21 $-1 $142 reversed single #
loop $-1 $-1 $143 $56 #
plane-surface $-1 0 0 -10.084282705045334 0 0 1 1 0 0 forward_v I I I I #
coedge $-1 $144 $145 $146 $147 forward $57 $-1 #
coedge $-1 $148 $59 $149 $150 reversed $36 $-1 #
coedge $-1 $59 $148 $151 $152 forward $36 $-1 #
coedge $-1 $153 $154 $59 $94 forward $88 $-1 #
edge $-1 $155 -29.383720578745127 $156 29.383720578745127 $59 $157 forward 7 unknown #
face $-1 $158 $159 $22 $-1 $160 reversed single #
loop $-1 $-1 $161 $60 #
plane-surface $-1 -47.124492533812528 -21.202531681217668 0 0 1 0 0 0 1 forward_v I I I I #
coedge $-1 $162 $163 $100 $164 forward $61 $-1 #
coedge $-1 $165 $63 $166 $167 reversed $39 $-1 #
coedge $-1 $63 $165 $98 $164 reversed $39 $-1 #
coedge $-1 $168 $169 $63 $102 reversed $170 $-1 #
edge $-1 $171 -10.084282705045334 $172 10.084282705045334 $101 $173 forward 7 unknown #
face $-1 $174 $175 $23 $-1 $176 forward single #
loop $-1 $-1 $177 $64 #
plane-surface $-1 -10.540319549750365 55.959558014765378 100.72105183802728 -1 0 0 0 0.7660444514056185 0.64278759981090561 forward_v I I I I #
coedge $-1 $178 $179 $180 $181 reversed $65 $-1 #
coedge $-1 $108 $67 $182 $183 reversed $42 $-1 #
coedge $-1 $67 $107 $178 $184 reversed $42 $-1 #
coedge $-1 $180 $185 $67 $110 forward $175 $-1 #
edge $-1 $186 -1.4039415713624379 $187 5.6264133100588047 $109 $188 forward 7 unknown #
loop $-1 $-1 $116 $68 #
plane-surface $-1 -15.493569758309189 -8.3912618699066712 46.72430402054303 0 0.7660444514056185 0.64278759981090561 1 0 0 forward_v I I I I #
loop $-1 $-1 $189 $44 #
coedge $-1 $114 $114 $115 $190 reversed $69 $-1 #
coedge $-1 $115 $115 $114 $190 forward $71 $-1 #
coedge $-1 $116 $116 $72 $117 forward $111 $-1 #
edge $-1 $191 -3.9081691012669651e-016 $191 6.2831853071796004 $116 $192 forward 7 unknown #
loop $-1 $-1 $123 $73 #
plane-surface $-1 -15.493569758309189 -8.3912618699066712 46.72430402054303 0 0.7660444514056185 0.64278759981090561 1 0 0 forward_v I I I I #
loop $-1 $-1 $193 $47 #
coedge $-1 $121 $121 $122 $194 reversed $74 $-1 #
coedge $-1 $122 $122 $121 $194 forward $76 $-1 #
coedge $-1 $123 $123 $77 $124 forward $118 $-1 #
edge $-1 $195 -3.9081691012669651e-016 $195 6.2831853071796004 $123 $196 forward 7 unknown #
face $-1 $197 $198 $26 $-1 $199 forward single #
loop $-1 $-1 $200 $78 #
plane-surface $-1 -31.757057597251183 -78.760050261659302 70.320960640587742 1 0 0 0 0.5877852598018023 -0.80901698891910034 forward_v I I I I #
coedge $-1 $201 $202 $203 $204 reversed $79 $-1 #
coedge $-1 $130 $81 $205 $206 reversed $51 $-1 #
coedge $-1 $81 $129 $201 $207 reversed $51 $-1 #
coedge $-1 $203 $208 $81 $132 forward $198 $-1 #
edge $-1 $209 9.9963045520845242 $210 20.627489602088378 $131 $211 forward 7 unknown #
loop $-1 $-1 $138 $82 #
plane-surface $-1 -23.568420751976412 -29.38372057874512 2.3602744923544918 0 -0.5877852598018023 0.80901698891910034 1 0 0 forward_v I I I I #
loop $-1 $-1 $212 $53 #
coedge $-1 $136 $136 $137 $213 reversed $83 $-1 #
coedge $-1 $137 $137 $136 $213 forward $85 $-1 #
coedge $-1 $138 $138 $86 $139 forward $133 $-1 #
edge $-1 $214 1.2162119504328333e-015 $214 6.2831853071796013 $138 $215 forward 7 unknown #
face $-1 $216 $217 $21 $-1 $218 reversed single #
loop $-1 $-1 $149 $87 #
plane-surface $-1 0 -29.383720578745127 0 0 1 0 0 0 1 forward_v I I I I #
coedge $-1 $154 $153 $219 $220 forward $88 $-1 #
coedge $-1 $221 $90 $222 $223 forward $57 $-1 #
coedge $-1 $90 $221 $224 $225 forward $57 $-1 #
coedge $-1 $226 $227 $90 $147 reversed $228 $-1 #
edge $-1 $229 -29.383720578745127 $230 29.383720578745127 $146 $231 forward 7 unknown #
coedge $-1 $92 $91 $221 $232 reversed $36 $-1 #
coedge $-1 $233 $224 $91 $150 forward $141 $-1 #
edge $-1 $234 -10.084282705045334 $155 10.084282705045334 $91 $235 forward 7 unknown #
coedge $-1 $222 $236 $92 $152 reversed $217 $-1 #
edge $-1 $237 -10.084282705045334 $156 10.084282705045334 $151 $238 forward 7 unknown #
coedge $-1 $143 $93 $236 $239 forward $88 $-1 #
coedge $-1 $93 $143 $233 $240 forward $88 $-1 #
vertex $-1 $94 $241 #
vertex $-1 $239 $242 #
straight-curve $-1 -42.002014221625416 0 -10.084282705045334 0 1 0 I I #
face $-1 $243 $170 $22 $-1 $244 reversed single #
loop $-1 $-1 $245 $95 #
plane-surface $-1 -52.246970845999641 -18.606322065705356 0 1 0 0 0 0 -1 forward_v I I I I #
coedge $-1 $246 $247 $248 $249 forward $96 $-1 #
coedge $-1 $250 $98 $246 $251 forward $61 $-1 #
coedge $-1 $98 $250 $168 $252 forward $61 $-1 #
edge $-1 $171 16.010112450193045 $253 21.202531681217668 $98 $254 forward 7 unknown #
coedge $-1 $100 $99 $255 $256 forward $39 $-1 #
coedge $-1 $257 $258 $99 $167 forward $259 $-1 #
edge $-1 $260 -21.202531681217668 $172 -16.010112450193045 $166 $261 forward 7 unknown #
coedge $-1 $262 $101 $163 $252 reversed $170 $-1 #
coedge $-1 $101 $262 $257 $263 reversed $170 $-1 #
loop $-1 $-1 $101 $158 #
vertex $-1 $164 $264 #
vertex $-1 $263 $265 #
straight-curve $-1 -42.002014221625416 -16.010112450193045 0 0 0 1 I I #
face $-1 $-1 $266 $23 $-1 $267 reversed single #
loop $-1 $-1 $109 $103 #
plane-surface $-1 0 0 10.084282705045334 0 0 1 1 0 0 forward_v I I I I #
coedge $-1 $268 $269 $270 $271 reversed $104 $-1 #
coedge $-1 $272 $106 $108 $184 forward $65 $-1 #
coedge $-1 $106 $272 $268 $273 forward $65 $-1 #
coedge $-1 $270 $109 $106 $181 forward $175 $-1 #
edge $-1 $187 -12.700035087713418 $274 -2.7935346705957702 $180 $275 forward 7 unknown #
coedge $-1 $276 $277 $107 $183 forward $266 $-1 #
edge $-1 $278 -48.654694120472207 $186 -40.276243213968307 $182 $279 forward 7 unknown #
edge $-1 $187 47.830150389140947 $278 58.767441157490275 $108 $280 forward 7 unknown #
coedge $-1 $109 $270 $276 $281 forward $175 $-1 #
vertex $-1 $183 $282 #
vertex $-1 $110 $283 #
straight-curve $-1 -20.446819966868013 27.979779007382689 10.084282705045332 0 -1 0 I I #
coedge $-1 $189 $189 $-1 $284 reversed $113 $-1 #
edge $-1 $285 0 $285 6.2831853071796004 $114 $286 forward 7 unknown #
vertex $-1 $117 $287 #
ellipse-curve $-1 -17.61639127626297 25.868543138034497 5.8950572517933848 0 0.7660444514056185 0.64278759981090561 1 0 0 1 I I #
coedge $-1 $193 $193 $-1 $288 reversed $120 $-1 #
edge $-1 $289 0 $289 6.2831853071796004 $121 $290 forward 7 unknown #
vertex $-1 $124 $291 #
ellipse-curve $-1 -13.370748240355404 25.868543138034497 5.8950572517933848 0 0.7660444514056185 0.64278759981090561 1 0 0 1 I I #
face $-1 $-1 $292 $26 $-1 $293 reversed single #
loop $-1 $-1 $131 $125 #
plane-surface $-1 0 0 10.084282705045334 0 0 1 1 0 0 forward_v I I I I #
coedge $-1 $294 $295 $296 $297 reversed $126 $-1 #
coedge $-1 $298 $128 $130 $207 forward $79 $-1 #
coedge $-1 $128 $298 $294 $299 forward $79 $-1 #
coedge $-1 $296 $131 $128 $204 forward $198 $-1 #
edge $-1 $210 3.5955735307134358 $300 19.972847221262978 $203 $301 forward 7 unknown #
coedge $-1 $302 $303 $129 $206 forward $292 $-1 #
edge $-1 $304 -32.800205827939386 $209 -25.076197615248539 $205 $305 forward 7 unknown #
edge $-1 $210 -13.140867491803609 $304 8.8807605448725156e-015 $130 $306 forward 7 unknown #
coedge $-1 $131 $296 $302 $307 forward $198 $-1 #
vertex $-1 $132 $308 #
vertex $-1 $132 $309 #
straight-curve $-1 -15.379783906701642 -39.380025130829651 10.084282705045332 0 1 0 I I #
coedge $-1 $212 $212 $-1 $310 reversed $135 $-1 #
edge $-1 $311 0 $311 6.2831853071796004 $136 $312 forward 7 unknown #
vertex $-1 $139 $313 #
ellipse-curve $-1 -23.568420751976412 -24.068128053743205 6.2222785986999076 0 -0.5877852598018023 0.80901698891910034 1.5 0 0 1 I I #
face $-1 $-1 $228 $21 $-1 $314 reversed single #
loop $-1 $-1 $315 $140 #
plane-surface $-1 0 29.383720578745127 0 0 -1 0 0 0 -1 forward_v I I I I #
coedge $-1 $227 $226 $143 $220 reversed $228 $-1 #
edge $-1 $316 -29.383720578745127 $317 29.383720578745127 $219 $318 forward 7 unknown #
coedge $-1 $145 $144 $148 $232 forward $57 $-1 #
coedge $-1 $315 $151 $144 $223 reversed $217 $-1 #
edge $-1 $230 -42.002014221625416 $237 42.002014221625416 $222 $319 forward 7 unknown #
coedge $-1 $149 $320 $145 $225 reversed $141 $-1 #
edge $-1 $234 -42.002014221625416 $229 42.002014221625416 $224 $321 forward 7 unknown #
coedge $-1 $219 $146 $320 $322 forward $228 $-1 #
coedge $-1 $146 $219 $315 $323 reversed $228 $-1 #
loop $-1 $-1 $226 $216 #
vertex $-1 $147 $324 #
vertex $-1 $147 $325 #
straight-curve $-1 42.002014221625416 0 10.084282705045334 0 1 0 I I #
edge $-1 $237 -29.383720578745127 $234 29.383720578745127 $148 $326 forward 7 unknown #
coedge $-1 $320 $149 $154 $240 reversed $141 $-1 #
vertex $-1 $232 $327 #
straight-curve $-1 -42.002014221625416 -29.383720578745127 0 0 0 -1 I I #
coedge $-1 $151 $315 $153 $239 reversed $217 $-1 #
vertex $-1 $223 $328 #
straight-curve $-1 -42.002014221625416 29.383720578745127 0 0 0 -1 I I #
edge $-1 $156 -42.002014221625416 $316 42.002014221625416 $236 $329 forward 7 unknown #
edge $-1 $317 -42.002014221625416 $155 42.002014221625416 $233 $330 forward 7 unknown #
point $-1 -42.002014221625416 -29.383720578745127 -10.084282705045334 #
point $-1 -42.002014221625416 29.383720578745127 -10.084282705045334 #
face $-1 $-1 $259 $22 $-1 $331 forward single #
plane-surface $-1 -47.124492533812528 -16.010112450193045 0 0 -1 0 0 0 -1 forward_v I I I I #
coedge $-1 $332 $333 $262 $334 forward $159 $-1 #
coedge $-1 $255 $161 $162 $251 reversed $96 $-1 #
coedge $-1 $161 $255 $258 $335 reversed $96 $-1 #
coedge $-1 $333 $332 $161 $249 reversed $159 $-1 #
edge $-1 $336 -10.084282705045334 $337 10.084282705045334 $248 $338 forward 7 unknown #
coedge $-1 $163 $162 $332 $339 forward $61 $-1 #
edge $-1 $253 -5.1224783121871127 $337 5.1224783121871127 $246 $340 forward 7 unknown #
edge $-1 $341 -5.1224783121871127 $171 5.1224783121871127 $168 $342 forward 7 unknown #
vertex $-1 $251 $343 #
straight-curve $-1 -42.002014221625416 0 -10.084282705045334 0 -1 0 I I #
coedge $-1 $247 $246 $165 $256 reversed $96 $-1 #
edge $-1 $260 -10.084282705045334 $253 10.084282705045334 $255 $344 forward 7 unknown #
coedge $-1 $345 $166 $169 $263 forward $259 $-1 #
coedge $-1 $166 $345 $247 $335 forward $259 $-1 #
loop $-1 $-1 $166 $243 #
vertex $-1 $167 $346 #
straight-curve $-1 -42.002014221625416 0 10.084282705045334 0 1 0 I I #
coedge $-1 $169 $168 $245 $334 reversed $170 $-1 #
edge $-1 $172 -5.1224783121871127 $347 5.1224783121871127 $169 $348 forward 7 unknown #
point $-1 -42.002014221625416 -16.010112450193045 -10.084282705045334 #
point $-1 -42.002014221625416 -16.010112450193045 10.084282705045334 #
loop $-1 $-1 $182 $174 #
plane-surface $-1 0 29.383720578745127 0 0 -1 0 0 0 -1 forward_v I I I I #
coedge $-1 $269 $177 $179 $273 reversed $104 $-1 #
coedge $-1 $177 $268 $349 $350 reversed $104 $-1 #
coedge $-1 $185 $180 $177 $271 forward $175 $-1 #
edge $-1 $274 -5.6264133100588047 $351 1.4039415713624379 $270 $352 forward 7 unknown #
coedge $-1 $179 $178 $277 $353 reversed $65 $-1 #
edge $-1 $354 -58.767441157490275 $274 -47.830150389140947 $268 $355 forward 7 unknown #
vertex $-1 $181 $356 #
straight-curve $-1 -7.7467848791545943 22.353365697323884 10.084282705045336 1 0 0 I I #
coedge $-1 $349 $182 $185 $281 reversed $266 $-1 #
coedge $-1 $182 $349 $272 $353 forward $266 $-1 #
vertex $-1 $183 $357 #
straight-curve $-1 -20.446819966868013 29.383720578745127 50.360525919013639 0 0 1 I I #
straight-curve $-1 -20.446819966868013 -8.3912618699066712 46.72430402054303 0 0.64278759981090561 -0.7660444514056185 I I #
edge $-1 $351 10.540319549750365 $186 20.446819966868013 $276 $358 forward 7 unknown #
point $-1 -20.446819966868013 29.383720578745127 10.084282705045334 #
point $-1 -20.446819966868013 22.353365697323884 10.084282705045332 #
edge $-1 $359 1 $359 0 $189 $-1 forward 7 unknown #
vertex $-1 $190 $360 #
ellipse-curve $-1 -17.61639127626297 24.281070486165383 4.5630095699806006 0 0.7660444514056185 0.64278759981090561 1 0 0 1 I I #
point $-1 -16.61639127626297 25.868543138034511 5.8950572517933972 #
edge $-1 $361 1 $361 0 $193 $-1 forward 7 unknown #
vertex $-1 $194 $362 #
ellipse-curve $-1 -13.370748240355404 24.281070486165383 4.5630095699806006 0 0.7660444514056185 0.64278759981090561 1 0 0 1 I I #
point $-1 -12.370748240355404 25.868543138034511 5.8950572517933972 #
loop $-1 $-1 $205 $197 #
plane-surface $-1 0 -29.383720578745127 0 0 1 0 0 0 1 forward_v I I I I #
coedge $-1 $295 $200 $202 $299 reversed $126 $-1 #
coedge $-1 $200 $294 $363 $364 reversed $126 $-1 #
coedge $-1 $208 $203 $200 $297 forward $198 $-1 #
edge $-1 $300 -20.627489602088378 $365 -9.9963045520845242 $296 $366 forward 7 unknown #
coedge $-1 $202 $201 $303 $367 reversed $79 $-1 #
edge $-1 $368 -8.8807605448725156e-015 $300 13.140867491803609 $294 $369 forward 7 unknown #
vertex $-1 $204 $370 #
straight-curve $-1 -11.784210375988206 -18.752535528741273 10.084282705045334 -1 0 0 I I #
coedge $-1 $363 $205 $208 $307 reversed $292 $-1 #
coedge $-1 $205 $363 $298 $367 forward $292 $-1 #
vertex $-1 $206 $371 #
straight-curve $-1 -15.379783906701642 -29.383720578745127 35.160480320293871 0 0 1 I I #
straight-curve $-1 -15.379783906701642 -29.38372057874512 2.3602744923544918 0 -0.80901698891910034 -0.5877852598018023 I I #
edge $-1 $365 -31.757057597251183 $209 -15.379783906701642 $302 $372 forward 7 unknown #
point $-1 -15.379783906701642 -29.383720578745127 10.084282705045334 #
point $-1 -15.379783906701642 -18.752535528741273 10.084282705045334 #
edge $-1 $373 1 $373 0 $212 $-1 forward 7 unknown #
vertex $-1 $213 $374 #
ellipse-curve $-1 -23.568420751976412 -22.76580529421042 4.4297851328493127 0 -0.5877852598018023 0.80901698891910034 1.5 0 0 1 I I #
point $-1 -22.068420751976412 -24.068128053743209 6.2222785986999156 #
plane-surface $-1 42.002014221625416 0 0 -1 0 0 0 0 1 forward_v I I I I #
coedge $-1 $236 $222 $227 $323 forward $217 $-1 #
vertex $-1 $220 $375 #
vertex $-1 $322 $376 #
straight-curve $-1 42.002014221625416 0 -10.084282705045334 0 -1 0 I I #
straight-curve $-1 0 29.383720578745127 10.084282705045334 -1 0 0 I I #
coedge $-1 $224 $233 $226 $322 reversed $141 $-1 #
straight-curve $-1 0 -29.383720578745127 10.084282705045334 1 0 0 I I #
edge $-1 $229 -10.084282705045334 $317 10.084282705045334 $226 $377 forward 7 unknown #
edge $-1 $230 -10.084282705045334 $316 10.084282705045334 $227 $378 forward 7 unknown #
point $-1 42.002014221625416 -29.383720578745127 10.084282705045334 #
point $-1 42.002014221625416 29.383720578745127 10.084282705045334 #
straight-curve $-1 -42.002014221625416 0 10.084282705045334 0 -1 0 I I #
point $-1 -42.002014221625416 -29.383720578745127 10.084282705045334 #
point $-1 -42.002014221625416 29.383720578745127 10.084282705045334 #
straight-curve $-1 0 29.383720578745127 -10.084282705045334 1 0 0 I I #
straight-curve $-1 0 -29.383720578745127 -10.084282705045334 -1 0 0 I I #
plane-surface $-1 0 0 10.084282705045334 0 0 1 1 0 0 forward_v I I I I #
coedge $-1 $248 $245 $250 $339 reversed $159 $-1 #
coedge $-1 $245 $248 $345 $379 reversed $159 $-1 #
edge $-1 $347 -10.084282705045334 $341 10.084282705045334 $262 $380 forward 7 unknown #
edge $-1 $336 -5.1224783121871127 $260 5.1224783121871127 $247 $381 forward 7 unknown #
vertex $-1 $379 $382 #
vertex $-1 $339 $383 #
straight-curve $-1 -52.246970845999641 -21.202531681217668 0 0 0 -1 I I #
edge $-1 $337 -2.5962096155123113 $341 2.5962096155123113 $332 $384 forward 7 unknown #
straight-curve $-1 -47.124492533812528 -21.202531681217668 -10.084282705045334 -1 0 0 I I #
vertex $-1 $252 $385 #
straight-curve $-1 -47.124492533812528 -16.010112450193045 -10.084282705045334 1 0 0 I I #
point $-1 -42.002014221625416 -21.202531681217668 -10.084282705045334 #
straight-curve $-1 -42.002014221625416 -21.202531681217668 0 0 0 -1 I I #
coedge $-1 $258 $257 $333 $379 forward $259 $-1 #
point $-1 -42.002014221625416 -21.202531681217668 10.084282705045334 #
vertex $-1 $263 $386 #
straight-curve $-1 -47.124492533812528 -16.010112450193045 10.084282705045334 -1 0 0 I I #
coedge $-1 $277 $276 $269 $350 forward $266 $-1 #
edge $-1 $351 40.276243213968307 $354 48.654694120472207 $349 $387 forward 7 unknown #
vertex $-1 $281 $388 #
straight-curve $-1 -10.540319549750365 27.979779007382689 10.084282705045332 0 1 0 I I #
edge $-1 $354 2.7935346705957702 $278 12.700035087713418 $277 $389 forward 7 unknown #
vertex $-1 $353 $390 #
straight-curve $-1 -10.540319549750365 -8.3912618699066712 46.72430402054303 0 -0.64278759981090561 0.7660444514056185 I I #
point $-1 -10.540319549750365 22.353365697323884 10.084282705045332 #
point $-1 -20.446819966868013 29.383720578745127 1.705831798541432 #
straight-curve $-1 0 29.383720578745127 10.084282705045334 -1 0 0 I I #
vertex $-1 $284 $391 #
point $-1 -16.61639127626297 24.281070486165383 4.5630095699806006 #
vertex $-1 $288 $392 #
point $-1 -12.370748240355404 24.281070486165383 4.5630095699806006 #
coedge $-1 $303 $302 $295 $364 forward $292 $-1 #
edge $-1 $365 25.076197615248539 $368 32.800205827939386 $363 $393 forward 7 unknown #
vertex $-1 $307 $394 #
straight-curve $-1 -31.757057597251183 -39.380025130829651 10.084282705045332 0 -1 0 I I #
edge $-1 $368 -19.972847221262978 $304 -3.5955735307134358 $303 $395 forward 7 unknown #
vertex $-1 $367 $396 #
straight-curve $-1 -31.757057597251183 -29.38372057874512 2.3602744923544918 0 0.80901698891910034 0.5877852598018023 I I #
point $-1 -31.757057597251183 -18.752535528741273 10.084282705045334 #
point $-1 -15.379783906701642 -29.383720578745127 2.3602744923544865 #
straight-curve $-1 0 -29.383720578745127 10.084282705045334 1 0 0 I I #
vertex $-1 $310 $397 #
point $-1 -22.068420751976412 -22.76580529421042 4.4297851328493127 #
point $-1 42.002014221625416 29.383720578745127 -10.084282705045334 #
point $-1 42.002014221625416 -29.383720578745127 -10.084282705045334 #
straight-curve $-1 42.002014221625416 -29.383720578745127 0 0 0 -1 I I #
straight-curve $-1 42.002014221625416 29.383720578745127 0 0 0 -1 I I #
edge $-1 $347 -2.5962096155123113 $336 2.5962096155123113 $333 $398 forward 7 unknown #
straight-curve $-1 -52.246970845999641 -16.010112450193045 0 0 0 -1 I I #
straight-curve $-1 -47.124492533812528 -21.202531681217668 10.084282705045334 1 0 0 I I #
point $-1 -52.246970845999641 -21.202531681217668 10.084282705045334 #
point $-1 -52.246970845999641 -21.202531681217668 -10.084282705045334 #
straight-curve $-1 -52.246970845999641 -18.606322065705356 -10.084282705045334 0 1 0 I I #
point $-1 -52.246970845999641 -16.010112450193045 -10.084282705045334 #
point $-1 -52.246970845999641 -16.010112450193045 10.084282705045334 #
straight-curve $-1 -10.540319549750365 29.383720578745127 50.360525919013639 0 0 -1 I I #
point $-1 -10.540319549750365 29.383720578745127 10.084282705045334 #
straight-curve $-1 -7.7467848791545943 29.383720578745127 1.7058317985414284 -1 0 0 I I #
point $-1 -10.540319549750365 29.383720578745127 1.705831798541432 #
point $-1 -17.61639127626297 23.515026034759764 3.9202219701696954 #
point $-1 -13.370748240355404 23.515026034759764 3.9202219701696954 #
straight-curve $-1 -31.757057597251183 -29.383720578745127 35.160480320293871 0 0 -1 I I #
point $-1 -31.757057597251183 -29.383720578745127 10.084282705045334 #
straight-curve $-1 -11.784210375988206 -29.383720578745127 2.3602744923544869 1 0 0 I I #
point $-1 -31.757057597251183 -29.383720578745127 2.3602744923544865 #
point $-1 -23.568420751976412 -21.884127404507719 3.2162596494706626 #
straight-curve $-1 -52.246970845999641 -18.606322065705356 10.084282705045334 0 -1 0 I I #
End-of-ACIS-data 