500 0 17 0           
7 Unknown 11 ACIS 5.0 NT 24 Thu Mar 25 19:32:40 1999 
-1 9.9999999999999995e-007 1e-010 
body $-1 $17 $-1 $18 #
body $-1 $19 $-1 $20 #
body $-1 $21 $-1 $22 #
body $-1 $23 $-1 $24 #
body $-1 $25 $-1 $26 #
body $-1 $27 $-1 $28 #
body $-1 $29 $-1 $30 #
body $-1 $31 $-1 $32 #
body $-1 $33 $-1 $34 #
body $-1 $35 $-1 $36 #
body $-1 $37 $-1 $38 #
body $-1 $39 $-1 $40 #
body $-1 $41 $-1 $42 #
body $-1 $43 $-1 $44 #
body $-1 $45 $-1 $46 #
body $-1 $47 $-1 $48 #
body $-1 $49 $-1 $50 #
lump $-1 $-1 $51 $0 #
transform $-1 1 0 0 0 1 0 0 0 1 46.573686941129793 20.425078240691221 9.6992162060962368 1 rotate no_reflect no_shear #
lump $-1 $-1 $52 $1 #
transform $-1 1 0 0 0 1 0 0 0 1 46.573686941129793 -4.2822748483378845 17.898432412192474 1 rotate no_reflect no_shear #
lump $-1 $-1 $53 $2 #
transform $-1 0.51503806187062418 0 0.85716730853699208 0 1 0 -0.85716730853699208 0 0.51503806187062418 -79.842883767945366 20.102107571827993 61.423273829279601 1 rotate no_reflect no_shear #
lump $-1 $-1 $54 $3 #
transform $-1 0.51503806187062418 0 0.85716730853699208 0 -1 0 0.85716730853699208 0 -0.51503806187062418 3.465897463057015 18.069025881154754 15.415113043698284 1 rotate no_reflect no_shear #
lump $-1 $-1 $55 $4 #
transform $-1 0.51503806187062418 0 0.85716730853699208 0 -1 0 0.85716730853699208 0 -0.51503806187062418 3.465897463057015 22.135189262501228 15.415113043698284 1 rotate no_reflect no_shear #
lump $-1 $-1 $56 $5 #
transform $-1 0.49999998660252726 0 -0.86602541151947299 0 1 0 0.86602541151947299 0 0.49999998660252726 127.24168098741127 14.010493885983022 140.51550012831768 1 rotate no_reflect no_shear #
lump $-1 $-1 $57 $6 #
transform $-1 0.49999998660252726 0 -0.86602541151947299 0 -1 0 -0.86602541151947299 0 -0.49999998660252726 89.899473656814735 12.146913741805644 15.481719411651596 1 rotate no_reflect no_shear #
lump $-1 $-1 $58 $7 #
transform $-1 0.49999998660252726 0 -0.86602541151947299 0 -1 0 -0.86602541151947299 0 -0.49999998660252726 89.899473656814735 14.010493885983021 15.481719411651596 1 rotate no_reflect no_shear #
lump $-1 $-1 $59 $8 #
transform $-1 0.49999998660252726 0 -0.86602541151947299 0 -1 0 -0.86602541151947299 0 -0.49999998660252726 89.899473656814735 15.874074030160397 15.481719411651596 1 rotate no_reflect no_shear #
lump $-1 $-1 $60 $9 #
transform $-1 0.49999998660252726 0 -0.86602541151947299 0 1 0 0.86602541151947299 0 0.49999998660252726 127.24168098741127 24.707353089029105 140.51550012831768 1 rotate no_reflect no_shear #
lump $-1 $-1 $61 $10 #
transform $-1 0.49999998660252726 0 -0.86602541151947299 0 -1 0 -0.86602541151947299 0 -0.49999998660252726 89.899473656814735 22.843772944851729 15.481719411651596 1 rotate no_reflect no_shear #
lump $-1 $-1 $62 $11 #
transform $-1 0.49999998660252726 0 -0.86602541151947299 0 -1 0 -0.86602541151947299 0 -0.49999998660252726 89.899473656814735 24.707353089029105 15.481719411651596 1 rotate no_reflect no_shear #
lump $-1 $-1 $63 $12 #
transform $-1 0.49999998660252726 0 -0.86602541151947299 0 -1 0 -0.86602541151947299 0 -0.49999998660252726 89.899473656814735 26.570933233206482 15.481719411651596 1 rotate no_reflect no_shear #
lump $-1 $-1 $64 $13 #
transform $-1 0.49999998660252726 0 -0.86602541151947299 0 1 0 0.86602541151947299 0 0.49999998660252726 127.24168098741127 35.404212292075186 140.51550012831768 1 rotate no_reflect no_shear #
lump $-1 $-1 $65 $14 #
transform $-1 0.49999998660252726 0 -0.86602541151947299 0 -1 0 -0.86602541151947299 0 -0.49999998660252726 89.899473656814735 33.54063214789781 15.481719411651596 1 rotate no_reflect no_shear #
lump $-1 $-1 $66 $15 #
transform $-1 0.49999998660252726 0 -0.86602541151947299 0 -1 0 -0.86602541151947299 0 -0.49999998660252726 89.899473656814735 35.404212292075186 15.481719411651596 1 rotate no_reflect no_shear #
lump $-1 $-1 $67 $16 #
transform $-1 0.49999998660252726 0 -0.86602541151947299 0 -1 0 -0.86602541151947299 0 -0.49999998660252726 89.899473656814735 37.267792436252563 15.481719411651596 1 rotate no_reflect no_shear #
shell $-1 $-1 $-1 $68 $-1 $17 #
shell $-1 $-1 $-1 $69 $-1 $19 #
shell $-1 $-1 $-1 $70 $-1 $21 #
shell $-1 $-1 $-1 $71 $-1 $23 #
shell $-1 $-1 $-1 $72 $-1 $25 #
shell $-1 $-1 $-1 $73 $-1 $27 #
shell $-1 $-1 $-1 $74 $-1 $29 #
shell $-1 $-1 $-1 $75 $-1 $31 #
shell $-1 $-1 $-1 $76 $-1 $33 #
shell $-1 $-1 $-1 $77 $-1 $35 #
shell $-1 $-1 $-1 $78 $-1 $37 #
shell $-1 $-1 $-1 $79 $-1 $39 #
shell $-1 $-1 $-1 $80 $-1 $41 #
shell $-1 $-1 $-1 $81 $-1 $43 #
shell $-1 $-1 $-1 $82 $-1 $45 #
shell $-1 $-1 $-1 $83 $-1 $47 #
shell $-1 $-1 $-1 $84 $-1 $49 #
face $-1 $85 $86 $51 $-1 $87 forward single #
face $-1 $88 $89 $52 $-1 $90 forward single #
face $-1 $91 $92 $53 $-1 $93 forward single #
face $-1 $94 $95 $54 $-1 $96 forward single #
face $-1 $97 $98 $55 $-1 $99 forward single #
face $-1 $100 $101 $56 $-1 $102 forward single #
face $-1 $103 $104 $57 $-1 $105 forward single #
face $-1 $106 $107 $58 $-1 $108 forward single #
face $-1 $109 $110 $59 $-1 $111 forward single #
face $-1 $112 $113 $60 $-1 $114 forward single #
face $-1 $115 $116 $61 $-1 $117 forward single #
face $-1 $118 $119 $62 $-1 $120 forward single #
face $-1 $121 $122 $63 $-1 $123 forward single #
face $-1 $124 $125 $64 $-1 $126 forward single #
face $-1 $127 $128 $65 $-1 $129 forward single #
face $-1 $130 $131 $66 $-1 $132 forward single #
face $-1 $133 $134 $67 $-1 $135 forward single #
face $-1 $136 $137 $51 $-1 $138 reversed single #
loop $-1 $-1 $139 $68 #
plane-surface $-1 0 0 9.6992162060962368 0 0 1 1 0 0 forward_v I I I I #
face $-1 $140 $141 $52 $-1 $142 reversed single #
loop $-1 $-1 $143 $69 #
plane-surface $-1 0 0 1.5 0 0 1 1 0 0 forward_v I I I I #
face $-1 $144 $145 $53 $-1 $146 reversed single #
loop $-1 $-1 $147 $70 #
plane-surface $-1 0 0 93.147373882259586 0 0 1 1 0 0 forward_v I I I I #
face $-1 $148 $149 $54 $-1 $150 forward single #
loop $-1 $151 $152 $71 #
cone-surface $-1 0 0 -1.2290719321268337 0 0 1 1 0 0 1 I I 0 1 1 forward I I I I #
face $-1 $153 $154 $55 $-1 $155 forward single #
loop $-1 $156 $157 $72 #
cone-surface $-1 0 0 -1.2290719321268337 0 0 1 1 0 0 1 I I 0 1 1 forward I I I I #
face $-1 $158 $159 $56 $-1 $160 reversed single #
loop $-1 $-1 $161 $73 #
plane-surface $-1 0 0 93.147373882259586 0 0 1 1 0 0 forward_v I I I I #
face $-1 $162 $163 $57 $-1 $164 forward single #
loop $-1 $165 $166 $74 #
cone-surface $-1 0 0 -0.97940763573107148 0 0 1 0.5 0 0 1 I I 0 1 0.5 forward I I I I #
face $-1 $167 $168 $58 $-1 $169 forward single #
loop $-1 $170 $171 $75 #
cone-surface $-1 0 0 -0.97940763573107148 0 0 1 0.5 0 0 1 I I 0 1 0.5 forward I I I I #
face $-1 $172 $173 $59 $-1 $174 forward single #
loop $-1 $175 $176 $76 #
cone-surface $-1 0 0 -0.97940763573107148 0 0 1 0.5 0 0 1 I I 0 1 0.5 forward I I I I #
face $-1 $177 $178 $60 $-1 $179 reversed single #
loop $-1 $-1 $180 $77 #
plane-surface $-1 0 0 93.147373882259586 0 0 1 1 0 0 forward_v I I I I #
face $-1 $181 $182 $61 $-1 $183 forward single #
loop $-1 $184 $185 $78 #
cone-surface $-1 0 0 -0.97940763573107148 0 0 1 0.5 0 0 1 I I 0 1 0.5 forward I I I I #
face $-1 $186 $187 $62 $-1 $188 forward single #
loop $-1 $189 $190 $79 #
cone-surface $-1 0 0 -0.97940763573107148 0 0 1 0.5 0 0 1 I I 0 1 0.5 forward I I I I #
face $-1 $191 $192 $63 $-1 $193 forward single #
loop $-1 $194 $195 $80 #
cone-surface $-1 0 0 -0.97940763573107148 0 0 1 0.5 0 0 1 I I 0 1 0.5 forward I I I I #
face $-1 $196 $197 $64 $-1 $198 reversed single #
loop $-1 $-1 $199 $81 #
plane-surface $-1 0 0 93.147373882259586 0 0 1 1 0 0 forward_v I I I I #
face $-1 $200 $201 $65 $-1 $202 forward single #
loop $-1 $203 $204 $82 #
cone-surface $-1 0 0 -0.97940763573107148 0 0 1 0.5 0 0 1 I I 0 1 0.5 forward I I I I #
face $-1 $205 $206 $66 $-1 $207 forward single #
loop $-1 $208 $209 $83 #
cone-surface $-1 0 0 -0.97940763573107148 0 0 1 0.5 0 0 1 I I 0 1 0.5 forward I I I I #
face $-1 $210 $211 $67 $-1 $212 forward single #
loop $-1 $213 $214 $84 #
cone-surface $-1 0 0 -0.97940763573107148 0 0 1 0.5 0 0 1 I I 0 1 0.5 forward I I I I #
face $-1 $215 $216 $51 $-1 $217 reversed single #
loop $-1 $-1 $218 $85 #
plane-surface $-1 0 0 -9.6992162060962368 0 0 1 1 0 0 forward_v I I I I #
coedge $-1 $219 $220 $221 $222 forward $86 $-1 #
face $-1 $223 $224 $52 $-1 $225 reversed single #
loop $-1 $-1 $226 $88 #
plane-surface $-1 0 0 -1.5 0 0 1 1 0 0 forward_v I I I I #
coedge $-1 $227 $228 $229 $230 forward $89 $-1 #
face $-1 $231 $232 $53 $-1 $233 reversed single #
loop $-1 $-1 $234 $91 #
plane-surface $-1 0 0 -93.147373882259586 0 0 1 1 0 0 forward_v I I I I #
coedge $-1 $235 $236 $237 $238 forward $92 $-1 #
face $-1 $-1 $239 $54 $-1 $240 forward single #
loop $-1 $-1 $241 $94 #
plane-surface $-1 0 0 -1.9581438642536684 0 0 -1 -1 0 0 forward_v I I I I #
loop $-1 $-1 $242 $71 #
coedge $-1 $152 $152 $241 $243 reversed $95 $-1 #
face $-1 $-1 $244 $55 $-1 $245 forward single #
loop $-1 $-1 $246 $97 #
plane-surface $-1 0 0 -1.9581438642536684 0 0 -1 -1 0 0 forward_v I I I I #
loop $-1 $-1 $247 $72 #
coedge $-1 $157 $157 $246 $248 reversed $98 $-1 #
face $-1 $249 $250 $56 $-1 $251 reversed single #
loop $-1 $-1 $252 $100 #
plane-surface $-1 0 0 -93.147373882259586 0 0 1 1 0 0 forward_v I I I I #
coedge $-1 $253 $254 $255 $256 forward $101 $-1 #
face $-1 $-1 $257 $57 $-1 $258 forward single #
loop $-1 $-1 $259 $103 #
plane-surface $-1 0 0 -1.7088152714621421 0 0 -1 -1 0 0 forward_v I I I I #
loop $-1 $-1 $260 $74 #
coedge $-1 $166 $166 $259 $261 reversed $104 $-1 #
face $-1 $-1 $262 $58 $-1 $263 forward single #
loop $-1 $-1 $264 $106 #
plane-surface $-1 0 0 -1.7088152714621421 0 0 -1 -1 0 0 forward_v I I I I #
loop $-1 $-1 $265 $75 #
coedge $-1 $171 $171 $264 $266 reversed $107 $-1 #
face $-1 $-1 $267 $59 $-1 $268 forward single #
loop $-1 $-1 $269 $109 #
plane-surface $-1 0 0 -1.7088152714621421 0 0 -1 -1 0 0 forward_v I I I I #
loop $-1 $-1 $270 $76 #
coedge $-1 $176 $176 $269 $271 reversed $110 $-1 #
face $-1 $272 $273 $60 $-1 $274 reversed single #
loop $-1 $-1 $275 $112 #
plane-surface $-1 0 0 -93.147373882259586 0 0 1 1 0 0 forward_v I I I I #
coedge $-1 $276 $277 $278 $279 forward $113 $-1 #
face $-1 $-1 $280 $61 $-1 $281 forward single #
loop $-1 $-1 $282 $115 #
plane-surface $-1 0 0 -1.7088152714621421 0 0 -1 -1 0 0 forward_v I I I I #
loop $-1 $-1 $283 $78 #
coedge $-1 $185 $185 $282 $284 reversed $116 $-1 #
face $-1 $-1 $285 $62 $-1 $286 forward single #
loop $-1 $-1 $287 $118 #
plane-surface $-1 0 0 -1.7088152714621421 0 0 -1 -1 0 0 forward_v I I I I #
loop $-1 $-1 $288 $79 #
coedge $-1 $190 $190 $287 $289 reversed $119 $-1 #
face $-1 $-1 $290 $63 $-1 $291 forward single #
loop $-1 $-1 $292 $121 #
plane-surface $-1 0 0 -1.7088152714621421 0 0 -1 -1 0 0 forward_v I I I I #
loop $-1 $-1 $293 $80 #
coedge $-1 $195 $195 $292 $294 reversed $122 $-1 #
face $-1 $295 $296 $64 $-1 $297 reversed single #
loop $-1 $-1 $298 $124 #
plane-surface $-1 0 0 -93.147373882259586 0 0 1 1 0 0 forward_v I I I I #
coedge $-1 $299 $300 $301 $302 forward $125 $-1 #
face $-1 $-1 $303 $65 $-1 $304 forward single #
loop $-1 $-1 $305 $127 #
plane-surface $-1 0 0 -1.7088152714621421 0 0 -1 -1 0 0 forward_v I I I I #
loop $-1 $-1 $306 $82 #
coedge $-1 $204 $204 $305 $307 reversed $128 $-1 #
face $-1 $-1 $308 $66 $-1 $309 forward single #
loop $-1 $-1 $310 $130 #
plane-surface $-1 0 0 -1.7088152714621421 0 0 -1 -1 0 0 forward_v I I I I #
loop $-1 $-1 $311 $83 #
coedge $-1 $209 $209 $310 $312 reversed $131 $-1 #
face $-1 $-1 $313 $67 $-1 $314 forward single #
loop $-1 $-1 $315 $133 #
plane-surface $-1 0 0 -1.7088152714621421 0 0 -1 -1 0 0 forward_v I I I I #
loop $-1 $-1 $316 $84 #
coedge $-1 $214 $214 $315 $317 reversed $134 $-1 #
face $-1 $318 $319 $51 $-1 $320 reversed single #
loop $-1 $-1 $321 $136 #
plane-surface $-1 0 -20.425078240691221 0 0 1 0 0 0 1 forward_v I I I I #
coedge $-1 $322 $323 $324 $325 forward $137 $-1 #
coedge $-1 $326 $139 $327 $328 forward $86 $-1 #
coedge $-1 $139 $326 $329 $330 forward $86 $-1 #
coedge $-1 $331 $332 $139 $222 reversed $333 $-1 #
edge $-1 $334 -20.425078240691221 $335 20.425078240691221 $221 $336 forward 7 unknown #
face $-1 $337 $338 $52 $-1 $339 reversed single #
loop $-1 $-1 $340 $140 #
plane-surface $-1 0 -4.2822748483378845 0 0 1 0 0 0 1 forward_v I I I I #
coedge $-1 $341 $342 $343 $344 forward $141 $-1 #
coedge $-1 $345 $143 $346 $347 forward $89 $-1 #
coedge $-1 $143 $345 $348 $349 forward $89 $-1 #
coedge $-1 $350 $351 $143 $230 reversed $352 $-1 #
edge $-1 $353 -4.2822748483378845 $354 4.2822748483378845 $229 $355 forward 7 unknown #
face $-1 $356 $357 $53 $-1 $358 reversed single #
loop $-1 $-1 $359 $144 #
plane-surface $-1 0 -4.7438572782375559 0 0 1 0 0 0 1 forward_v I I I I #
coedge $-1 $360 $361 $362 $363 forward $145 $-1 #
coedge $-1 $364 $147 $365 $366 forward $92 $-1 #
coedge $-1 $147 $364 $367 $368 forward $92 $-1 #
coedge $-1 $369 $370 $147 $238 reversed $371 $-1 #
edge $-1 $372 -4.7438572782375559 $373 4.7438572782375559 $237 $374 forward 7 unknown #
loop $-1 $375 $376 $148 #
cone-surface $-1 0 0 0 0 0 1 0.5 0 0 1 I I -0.70710678118654746 0.70710678118654746 0.5 forward I I I I #
coedge $-1 $241 $241 $152 $243 forward $149 $-1 #
coedge $-1 $242 $242 $376 $377 forward $151 $-1 #
edge $-1 $378 0 $378 6.2831853071796004 $241 $379 forward 7 unknown #
loop $-1 $380 $381 $153 #
cone-surface $-1 0 0 0 0 0 1 0.5 0 0 1 I I -0.70710678118654746 0.70710678118654746 0.5 forward I I I I #
coedge $-1 $246 $246 $157 $248 forward $154 $-1 #
coedge $-1 $247 $247 $381 $382 forward $156 $-1 #
edge $-1 $383 0 $383 6.2831853071796004 $246 $384 forward 7 unknown #
face $-1 $385 $386 $56 $-1 $387 reversed single #
loop $-1 $-1 $388 $158 #
plane-surface $-1 0 -3.1059669069622959 0 0 1 0 0 0 1 forward_v I I I I #
coedge $-1 $389 $390 $391 $392 forward $159 $-1 #
coedge $-1 $393 $161 $394 $395 forward $101 $-1 #
coedge $-1 $161 $393 $396 $397 forward $101 $-1 #
coedge $-1 $398 $399 $161 $256 reversed $400 $-1 #
edge $-1 $401 -3.1059669069622959 $402 3.1059669069622959 $255 $403 forward 7 unknown #
loop $-1 $404 $405 $162 #
cone-surface $-1 0 0 0 0 0 1 0.25 0 0 1 I I -0.70710678118654746 0.70710678118654746 0.25 forward I I I I #
coedge $-1 $259 $259 $166 $261 forward $163 $-1 #
coedge $-1 $260 $260 $405 $406 forward $165 $-1 #
edge $-1 $407 0 $407 6.2831853071796004 $259 $408 forward 7 unknown #
loop $-1 $409 $410 $167 #
cone-surface $-1 0 0 0 0 0 1 0.25 0 0 1 I I -0.70710678118654746 0.70710678118654746 0.25 forward I I I I #
coedge $-1 $264 $264 $171 $266 forward $168 $-1 #
coedge $-1 $265 $265 $410 $411 forward $170 $-1 #
edge $-1 $412 0 $412 6.2831853071796004 $264 $413 forward 7 unknown #
loop $-1 $414 $415 $172 #
cone-surface $-1 0 0 0 0 0 1 0.25 0 0 1 I I -0.70710678118654746 0.70710678118654746 0.25 forward I I I I #
coedge $-1 $269 $269 $176 $271 forward $173 $-1 #
coedge $-1 $270 $270 $415 $416 forward $175 $-1 #
edge $-1 $417 0 $417 6.2831853071796004 $269 $418 forward 7 unknown #
face $-1 $419 $420 $60 $-1 $421 reversed single #
loop $-1 $-1 $422 $177 #
plane-surface $-1 0 -3.1059669069622959 0 0 1 0 0 0 1 forward_v I I I I #
coedge $-1 $423 $424 $425 $426 forward $178 $-1 #
coedge $-1 $427 $180 $428 $429 forward $113 $-1 #
coedge $-1 $180 $427 $430 $431 forward $113 $-1 #
coedge $-1 $432 $433 $180 $279 reversed $434 $-1 #
edge $-1 $435 -3.1059669069622959 $436 3.1059669069622959 $278 $437 forward 7 unknown #
loop $-1 $438 $439 $181 #
cone-surface $-1 0 0 0 0 0 1 0.25 0 0 1 I I -0.70710678118654746 0.70710678118654746 0.25 forward I I I I #
coedge $-1 $282 $282 $185 $284 forward $182 $-1 #
coedge $-1 $283 $283 $439 $440 forward $184 $-1 #
edge $-1 $441 0 $441 6.2831853071796004 $282 $442 forward 7 unknown #
loop $-1 $443 $444 $186 #
cone-surface $-1 0 0 0 0 0 1 0.25 0 0 1 I I -0.70710678118654746 0.70710678118654746 0.25 forward I I I I #
coedge $-1 $287 $287 $190 $289 forward $187 $-1 #
coedge $-1 $288 $288 $444 $445 forward $189 $-1 #
edge $-1 $446 0 $446 6.2831853071796004 $287 $447 forward 7 unknown #
loop $-1 $448 $449 $191 #
cone-surface $-1 0 0 0 0 0 1 0.25 0 0 1 I I -0.70710678118654746 0.70710678118654746 0.25 forward I I I I #
coedge $-1 $292 $292 $195 $294 forward $192 $-1 #
coedge $-1 $293 $293 $449 $450 forward $194 $-1 #
edge $-1 $451 0 $451 6.2831853071796004 $292 $452 forward 7 unknown #
face $-1 $453 $454 $64 $-1 $455 reversed single #
loop $-1 $-1 $456 $196 #
plane-surface $-1 0 -3.1059669069622959 0 0 1 0 0 0 1 forward_v I I I I #
coedge $-1 $457 $458 $459 $460 forward $197 $-1 #
coedge $-1 $461 $199 $462 $463 forward $125 $-1 #
coedge $-1 $199 $461 $464 $465 forward $125 $-1 #
coedge $-1 $466 $467 $199 $302 reversed $468 $-1 #
edge $-1 $469 -3.1059669069622959 $470 3.1059669069622959 $301 $471 forward 7 unknown #
loop $-1 $472 $473 $200 #
cone-surface $-1 0 0 0 0 0 1 0.25 0 0 1 I I -0.70710678118654746 0.70710678118654746 0.25 forward I I I I #
coedge $-1 $305 $305 $204 $307 forward $201 $-1 #
coedge $-1 $306 $306 $473 $474 forward $203 $-1 #
edge $-1 $475 0 $475 6.2831853071796004 $305 $476 forward 7 unknown #
loop $-1 $477 $478 $205 #
cone-surface $-1 0 0 0 0 0 1 0.25 0 0 1 I I -0.70710678118654746 0.70710678118654746 0.25 forward I I I I #
coedge $-1 $310 $310 $209 $312 forward $206 $-1 #
coedge $-1 $311 $311 $478 $479 forward $208 $-1 #
edge $-1 $480 0 $480 6.2831853071796004 $310 $481 forward 7 unknown #
loop $-1 $482 $483 $210 #
cone-surface $-1 0 0 0 0 0 1 0.25 0 0 1 I I -0.70710678118654746 0.70710678118654746 0.25 forward I I I I #
coedge $-1 $315 $315 $214 $317 forward $211 $-1 #
coedge $-1 $316 $316 $483 $484 forward $213 $-1 #
edge $-1 $485 0 $485 6.2831853071796004 $315 $486 forward 7 unknown #
face $-1 $487 $488 $51 $-1 $489 reversed single #
loop $-1 $-1 $490 $215 #
plane-surface $-1 -46.573686941129793 0 0 1 0 0 0 0 -1 forward_v I I I I #
coedge $-1 $491 $329 $492 $493 forward $216 $-1 #
coedge $-1 $494 $218 $491 $495 forward $137 $-1 #
coedge $-1 $218 $494 $496 $497 forward $137 $-1 #
coedge $-1 $332 $331 $218 $325 reversed $333 $-1 #
edge $-1 $498 -20.425078240691221 $499 20.425078240691221 $324 $500 forward 7 unknown #
coedge $-1 $220 $219 $501 $502 forward $86 $-1 #
coedge $-1 $503 $504 $219 $328 reversed $488 $-1 #
edge $-1 $335 -46.573686941129793 $505 46.573686941129793 $327 $506 forward 7 unknown #
coedge $-1 $321 $507 $220 $330 reversed $216 $-1 #
edge $-1 $508 -46.573686941129793 $334 46.573686941129793 $329 $509 forward 7 unknown #
coedge $-1 $324 $221 $507 $510 forward $333 $-1 #
coedge $-1 $221 $324 $503 $511 reversed $333 $-1 #
loop $-1 $-1 $331 $487 #
vertex $-1 $222 $512 #
vertex $-1 $222 $513 #
straight-curve $-1 46.573686941129793 0 9.6992162060962368 0 1 0 I I #
face $-1 $514 $515 $52 $-1 $516 reversed single #
loop $-1 $-1 $517 $223 #
plane-surface $-1 -46.573686941129793 0 0 1 0 0 0 0 -1 forward_v I I I I #
coedge $-1 $518 $348 $519 $520 forward $224 $-1 #
coedge $-1 $521 $226 $518 $522 forward $141 $-1 #
coedge $-1 $226 $521 $523 $524 forward $141 $-1 #
coedge $-1 $351 $350 $226 $344 reversed $352 $-1 #
edge $-1 $525 -4.2822748483378845 $526 4.2822748483378845 $343 $527 forward 7 unknown #
coedge $-1 $228 $227 $528 $529 forward $89 $-1 #
coedge $-1 $530 $531 $227 $347 reversed $515 $-1 #
edge $-1 $354 -46.573686941129793 $532 46.573686941129793 $346 $533 forward 7 unknown #
coedge $-1 $340 $534 $228 $349 reversed $224 $-1 #
edge $-1 $535 -46.573686941129793 $353 46.573686941129793 $348 $536 forward 7 unknown #
coedge $-1 $343 $229 $534 $537 forward $352 $-1 #
coedge $-1 $229 $343 $530 $538 reversed $352 $-1 #
loop $-1 $-1 $350 $514 #
vertex $-1 $230 $539 #
vertex $-1 $230 $540 #
straight-curve $-1 46.573686941129793 0 1.5 0 1 0 I I #
face $-1 $541 $542 $53 $-1 $543 reversed single #
loop $-1 $-1 $544 $231 #
plane-surface $-1 -186.29474776451917 0 0 1 0 0 0 0 -1 forward_v I I I I #
coedge $-1 $545 $367 $546 $547 forward $232 $-1 #
coedge $-1 $548 $234 $545 $549 forward $145 $-1 #
coedge $-1 $234 $548 $550 $551 forward $145 $-1 #
coedge $-1 $370 $369 $234 $363 reversed $371 $-1 #
edge $-1 $552 -4.7438572782375559 $553 4.7438572782375559 $362 $554 forward 7 unknown #
coedge $-1 $236 $235 $555 $556 forward $92 $-1 #
coedge $-1 $557 $558 $235 $366 reversed $542 $-1 #
edge $-1 $373 -186.29474776451917 $559 186.29474776451917 $365 $560 forward 7 unknown #
coedge $-1 $359 $561 $236 $368 reversed $232 $-1 #
edge $-1 $562 -186.29474776451917 $372 186.29474776451917 $367 $563 forward 7 unknown #
coedge $-1 $362 $237 $561 $564 forward $371 $-1 #
coedge $-1 $237 $362 $557 $565 reversed $371 $-1 #
loop $-1 $-1 $369 $541 #
vertex $-1 $238 $566 #
vertex $-1 $238 $567 #
straight-curve $-1 186.29474776451917 0 93.147373882259586 0 1 0 I I #
loop $-1 $-1 $568 $148 #
coedge $-1 $376 $376 $242 $377 reversed $239 $-1 #
edge $-1 $569 0 $569 6.2831853071796004 $376 $570 forward 7 unknown #
vertex $-1 $243 $571 #
ellipse-curve $-1 0 0 -1.9581438642536684 0 0 -1 1 0 0 1 I I #
loop $-1 $-1 $572 $153 #
coedge $-1 $381 $381 $247 $382 reversed $244 $-1 #
edge $-1 $573 0 $573 6.2831853071796004 $381 $574 forward 7 unknown #
vertex $-1 $248 $575 #
ellipse-curve $-1 0 0 -1.9581438642536684 0 0 -1 1 0 0 1 I I #
face $-1 $576 $577 $56 $-1 $578 reversed single #
loop $-1 $-1 $579 $249 #
plane-surface $-1 -186.29474776451917 0 0 1 0 0 0 0 -1 forward_v I I I I #
coedge $-1 $580 $396 $581 $582 forward $250 $-1 #
coedge $-1 $583 $252 $580 $584 forward $159 $-1 #
coedge $-1 $252 $583 $585 $586 forward $159 $-1 #
coedge $-1 $399 $398 $252 $392 reversed $400 $-1 #
edge $-1 $587 -3.1059669069622959 $588 3.1059669069622959 $391 $589 forward 7 unknown #
coedge $-1 $254 $253 $590 $591 forward $101 $-1 #
coedge $-1 $592 $593 $253 $395 reversed $577 $-1 #
edge $-1 $402 -186.29474776451917 $594 186.29474776451917 $394 $595 forward 7 unknown #
coedge $-1 $388 $596 $254 $397 reversed $250 $-1 #
edge $-1 $597 -186.29474776451917 $401 186.29474776451917 $396 $598 forward 7 unknown #
coedge $-1 $391 $255 $596 $599 forward $400 $-1 #
coedge $-1 $255 $391 $592 $600 reversed $400 $-1 #
loop $-1 $-1 $398 $576 #
vertex $-1 $256 $601 #
vertex $-1 $256 $602 #
straight-curve $-1 186.29474776451917 0 93.147373882259586 0 1 0 I I #
loop $-1 $-1 $603 $162 #
coedge $-1 $405 $405 $260 $406 reversed $257 $-1 #
edge $-1 $604 0 $604 6.2831853071796004 $405 $605 forward 7 unknown #
vertex $-1 $261 $606 #
ellipse-curve $-1 0 0 -1.7088152714621421 0 0 -1 0.5 0 0 1 I I #
loop $-1 $-1 $607 $167 #
coedge $-1 $410 $410 $265 $411 reversed $262 $-1 #
edge $-1 $608 0 $608 6.2831853071796004 $410 $609 forward 7 unknown #
vertex $-1 $266 $610 #
ellipse-curve $-1 0 0 -1.7088152714621421 0 0 -1 0.5 0 0 1 I I #
loop $-1 $-1 $611 $172 #
coedge $-1 $415 $415 $270 $416 reversed $267 $-1 #
edge $-1 $612 0 $612 6.2831853071796004 $415 $613 forward 7 unknown #
vertex $-1 $271 $614 #
ellipse-curve $-1 0 0 -1.7088152714621421 0 0 -1 0.5 0 0 1 I I #
face $-1 $615 $616 $60 $-1 $617 reversed single #
loop $-1 $-1 $618 $272 #
plane-surface $-1 -186.29474776451917 0 0 1 0 0 0 0 -1 forward_v I I I I #
coedge $-1 $619 $430 $620 $621 forward $273 $-1 #
coedge $-1 $622 $275 $619 $623 forward $178 $-1 #
coedge $-1 $275 $622 $624 $625 forward $178 $-1 #
coedge $-1 $433 $432 $275 $426 reversed $434 $-1 #
edge $-1 $626 -3.1059669069622959 $627 3.1059669069622959 $425 $628 forward 7 unknown #
coedge $-1 $277 $276 $629 $630 forward $113 $-1 #
coedge $-1 $631 $632 $276 $429 reversed $616 $-1 #
edge $-1 $436 -186.29474776451917 $633 186.29474776451917 $428 $634 forward 7 unknown #
coedge $-1 $422 $635 $277 $431 reversed $273 $-1 #
edge $-1 $636 -186.29474776451917 $435 186.29474776451917 $430 $637 forward 7 unknown #
coedge $-1 $425 $278 $635 $638 forward $434 $-1 #
coedge $-1 $278 $425 $631 $639 reversed $434 $-1 #
loop $-1 $-1 $432 $615 #
vertex $-1 $279 $640 #
vertex $-1 $279 $641 #
straight-curve $-1 186.29474776451917 0 93.147373882259586 0 1 0 I I #
loop $-1 $-1 $642 $181 #
coedge $-1 $439 $439 $283 $440 reversed $280 $-1 #
edge $-1 $643 0 $643 6.2831853071796004 $439 $644 forward 7 unknown #
vertex $-1 $284 $645 #
ellipse-curve $-1 0 0 -1.7088152714621421 0 0 -1 0.5 0 0 1 I I #
loop $-1 $-1 $646 $186 #
coedge $-1 $444 $444 $288 $445 reversed $285 $-1 #
edge $-1 $647 0 $647 6.2831853071796004 $444 $648 forward 7 unknown #
vertex $-1 $289 $649 #
ellipse-curve $-1 0 0 -1.7088152714621421 0 0 -1 0.5 0 0 1 I I #
loop $-1 $-1 $650 $191 #
coedge $-1 $449 $449 $293 $450 reversed $290 $-1 #
edge $-1 $651 0 $651 6.2831853071796004 $449 $652 forward 7 unknown #
vertex $-1 $294 $653 #
ellipse-curve $-1 0 0 -1.7088152714621421 0 0 -1 0.5 0 0 1 I I #
face $-1 $654 $655 $64 $-1 $656 reversed single #
loop $-1 $-1 $657 $295 #
plane-surface $-1 -186.29474776451917 0 0 1 0 0 0 0 -1 forward_v I I I I #
coedge $-1 $658 $464 $659 $660 forward $296 $-1 #
coedge $-1 $661 $298 $658 $662 forward $197 $-1 #
coedge $-1 $298 $661 $663 $664 forward $197 $-1 #
coedge $-1 $467 $466 $298 $460 reversed $468 $-1 #
edge $-1 $665 -3.1059669069622959 $666 3.1059669069622959 $459 $667 forward 7 unknown #
coedge $-1 $300 $299 $668 $669 forward $125 $-1 #
coedge $-1 $670 $671 $299 $463 reversed $655 $-1 #
edge $-1 $470 -186.29474776451917 $672 186.29474776451917 $462 $673 forward 7 unknown #
coedge $-1 $456 $674 $300 $465 reversed $296 $-1 #
edge $-1 $675 -186.29474776451917 $469 186.29474776451917 $464 $676 forward 7 unknown #
coedge $-1 $459 $301 $674 $677 forward $468 $-1 #
coedge $-1 $301 $459 $670 $678 reversed $468 $-1 #
loop $-1 $-1 $466 $654 #
vertex $-1 $302 $679 #
vertex $-1 $302 $680 #
straight-curve $-1 186.29474776451917 0 93.147373882259586 0 1 0 I I #
loop $-1 $-1 $681 $200 #
coedge $-1 $473 $473 $306 $474 reversed $303 $-1 #
edge $-1 $682 0 $682 6.2831853071796004 $473 $683 forward 7 unknown #
vertex $-1 $307 $684 #
ellipse-curve $-1 0 0 -1.7088152714621421 0 0 -1 0.5 0 0 1 I I #
loop $-1 $-1 $685 $205 #
coedge $-1 $478 $478 $311 $479 reversed $308 $-1 #
edge $-1 $686 0 $686 6.2831853071796004 $478 $687 forward 7 unknown #
vertex $-1 $312 $688 #
ellipse-curve $-1 0 0 -1.7088152714621421 0 0 -1 0.5 0 0 1 I I #
loop $-1 $-1 $689 $210 #
coedge $-1 $483 $483 $316 $484 reversed $313 $-1 #
edge $-1 $690 0 $690 6.2831853071796004 $483 $691 forward 7 unknown #
vertex $-1 $317 $692 #
ellipse-curve $-1 0 0 -1.7088152714621421 0 0 -1 0.5 0 0 1 I I #
face $-1 $-1 $333 $51 $-1 $693 reversed single #
loop $-1 $-1 $503 $318 #
plane-surface $-1 0 20.425078240691221 0 0 -1 0 0 0 -1 forward_v I I I I #
coedge $-1 $694 $501 $504 $695 forward $319 $-1 #
coedge $-1 $507 $321 $322 $495 reversed $216 $-1 #
coedge $-1 $501 $694 $321 $493 reversed $319 $-1 #
edge $-1 $508 -9.6992162060962368 $696 9.6992162060962368 $492 $697 forward 7 unknown #
coedge $-1 $323 $322 $694 $698 forward $137 $-1 #
edge $-1 $499 -46.573686941129793 $696 46.573686941129793 $491 $699 forward 7 unknown #
coedge $-1 $504 $503 $323 $497 reversed $488 $-1 #
edge $-1 $700 -46.573686941129793 $498 46.573686941129793 $496 $701 forward 7 unknown #
vertex $-1 $325 $702 #
vertex $-1 $510 $703 #
straight-curve $-1 46.573686941129793 0 -9.6992162060962368 0 -1 0 I I #
coedge $-1 $490 $492 $326 $502 reversed $319 $-1 #
edge $-1 $505 -20.425078240691221 $508 20.425078240691221 $501 $704 forward 7 unknown #
coedge $-1 $496 $327 $332 $511 forward $488 $-1 #
coedge $-1 $327 $496 $490 $695 reversed $488 $-1 #
vertex $-1 $328 $705 #
straight-curve $-1 0 20.425078240691221 9.6992162060962368 -1 0 0 I I #
coedge $-1 $329 $491 $331 $510 reversed $216 $-1 #
vertex $-1 $502 $706 #
straight-curve $-1 0 -20.425078240691221 9.6992162060962368 1 0 0 I I #
edge $-1 $334 -9.6992162060962368 $499 9.6992162060962368 $331 $707 forward 7 unknown #
edge $-1 $335 -9.6992162060962368 $498 9.6992162060962368 $332 $708 forward 7 unknown #
point $-1 46.573686941129793 -20.425078240691221 9.6992162060962368 #
point $-1 46.573686941129793 20.425078240691221 9.6992162060962368 #
face $-1 $-1 $352 $52 $-1 $709 reversed single #
loop $-1 $-1 $530 $337 #
plane-surface $-1 0 4.2822748483378845 0 0 -1 0 0 0 -1 forward_v I I I I #
coedge $-1 $710 $528 $531 $711 forward $338 $-1 #
coedge $-1 $534 $340 $341 $522 reversed $224 $-1 #
coedge $-1 $528 $710 $340 $520 reversed $338 $-1 #
edge $-1 $535 -1.5 $712 1.5 $519 $713 forward 7 unknown #
coedge $-1 $342 $341 $710 $714 forward $141 $-1 #
edge $-1 $526 -46.573686941129793 $712 46.573686941129793 $518 $715 forward 7 unknown #
coedge $-1 $531 $530 $342 $524 reversed $515 $-1 #
edge $-1 $716 -46.573686941129793 $525 46.573686941129793 $523 $717 forward 7 unknown #
vertex $-1 $344 $718 #
vertex $-1 $537 $719 #
straight-curve $-1 46.573686941129793 0 -1.5 0 -1 0 I I #
coedge $-1 $517 $519 $345 $529 reversed $338 $-1 #
edge $-1 $532 -4.2822748483378845 $535 4.2822748483378845 $528 $720 forward 7 unknown #
coedge $-1 $523 $346 $351 $538 forward $515 $-1 #
coedge $-1 $346 $523 $517 $711 reversed $515 $-1 #
vertex $-1 $347 $721 #
straight-curve $-1 0 4.2822748483378845 1.5 -1 0 0 I I #
coedge $-1 $348 $518 $350 $537 reversed $224 $-1 #
vertex $-1 $529 $722 #
straight-curve $-1 0 -4.2822748483378845 1.5 1 0 0 I I #
edge $-1 $353 -1.5 $526 1.5 $350 $723 forward 7 unknown #
edge $-1 $354 -1.5 $525 1.5 $351 $724 forward 7 unknown #
point $-1 46.573686941129793 -4.2822748483378845 1.5 #
point $-1 46.573686941129793 4.2822748483378845 1.5 #
face $-1 $-1 $371 $53 $-1 $725 reversed single #
loop $-1 $-1 $557 $356 #
plane-surface $-1 0 4.7438572782375559 0 0 -1 0 0 0 -1 forward_v I I I I #
coedge $-1 $726 $555 $558 $727 forward $357 $-1 #
coedge $-1 $561 $359 $360 $549 reversed $232 $-1 #
coedge $-1 $555 $726 $359 $547 reversed $357 $-1 #
edge $-1 $562 -93.147373882259586 $728 93.147373882259586 $546 $729 forward 7 unknown #
coedge $-1 $361 $360 $726 $730 forward $145 $-1 #
edge $-1 $553 -186.29474776451917 $728 186.29474776451917 $545 $731 forward 7 unknown #
coedge $-1 $558 $557 $361 $551 reversed $542 $-1 #
edge $-1 $732 -186.29474776451917 $552 186.29474776451917 $550 $733 forward 7 unknown #
vertex $-1 $363 $734 #
vertex $-1 $564 $735 #
straight-curve $-1 186.29474776451917 0 -93.147373882259586 0 -1 0 I I #
coedge $-1 $544 $546 $364 $556 reversed $357 $-1 #
edge $-1 $559 -4.7438572782375559 $562 4.7438572782375559 $555 $736 forward 7 unknown #
coedge $-1 $550 $365 $370 $565 forward $542 $-1 #
coedge $-1 $365 $550 $544 $727 reversed $542 $-1 #
vertex $-1 $366 $737 #
straight-curve $-1 0 4.7438572782375559 93.147373882259586 -1 0 0 I I #
coedge $-1 $367 $545 $369 $564 reversed $232 $-1 #
vertex $-1 $556 $738 #
straight-curve $-1 0 -4.7438572782375559 93.147373882259586 1 0 0 I I #
edge $-1 $372 -93.147373882259586 $553 93.147373882259586 $369 $739 forward 7 unknown #
edge $-1 $373 -93.147373882259586 $552 93.147373882259586 $370 $740 forward 7 unknown #
point $-1 186.29474776451917 -4.7438572782375559 93.147373882259586 #
point $-1 186.29474776451917 4.7438572782375559 93.147373882259586 #
coedge $-1 $568 $568 $-1 $741 reversed $375 $-1 #
vertex $-1 $377 $742 #
ellipse-curve $-1 0 0 -0.5 0 0 -1 1 0 0 1 I I #
point $-1 1 0 -1.9581438642536684 #
coedge $-1 $572 $572 $-1 $743 reversed $380 $-1 #
vertex $-1 $382 $744 #
ellipse-curve $-1 0 0 -0.5 0 0 -1 1 0 0 1 I I #
point $-1 1 0 -1.9581438642536684 #
face $-1 $-1 $400 $56 $-1 $745 reversed single #
loop $-1 $-1 $592 $385 #
plane-surface $-1 0 3.1059669069622959 0 0 -1 0 0 0 -1 forward_v I I I I #
coedge $-1 $746 $590 $593 $747 forward $386 $-1 #
coedge $-1 $596 $388 $389 $584 reversed $250 $-1 #
coedge $-1 $590 $746 $388 $582 reversed $386 $-1 #
edge $-1 $597 -93.147373882259586 $748 93.147373882259586 $581 $749 forward 7 unknown #
coedge $-1 $390 $389 $746 $750 forward $159 $-1 #
edge $-1 $588 -186.29474776451917 $748 186.29474776451917 $580 $751 forward 7 unknown #
coedge $-1 $593 $592 $390 $586 reversed $577 $-1 #
edge $-1 $752 -186.29474776451917 $587 186.29474776451917 $585 $753 forward 7 unknown #
vertex $-1 $392 $754 #
vertex $-1 $599 $755 #
straight-curve $-1 186.29474776451917 0 -93.147373882259586 0 -1 0 I I #
coedge $-1 $579 $581 $393 $591 reversed $386 $-1 #
edge $-1 $594 -3.1059669069622959 $597 3.1059669069622959 $590 $756 forward 7 unknown #
coedge $-1 $585 $394 $399 $600 forward $577 $-1 #
coedge $-1 $394 $585 $579 $747 reversed $577 $-1 #
vertex $-1 $395 $757 #
straight-curve $-1 0 3.1059669069622959 93.147373882259586 -1 0 0 I I #
coedge $-1 $396 $580 $398 $599 reversed $250 $-1 #
vertex $-1 $591 $758 #
straight-curve $-1 0 -3.1059669069622959 93.147373882259586 1 0 0 I I #
edge $-1 $401 -93.147373882259586 $588 93.147373882259586 $398 $759 forward 7 unknown #
edge $-1 $402 -93.147373882259586 $587 93.147373882259586 $399 $760 forward 7 unknown #
point $-1 186.29474776451917 -3.1059669069622959 93.147373882259586 #
point $-1 186.29474776451917 3.1059669069622959 93.147373882259586 #
coedge $-1 $603 $603 $-1 $761 reversed $404 $-1 #
vertex $-1 $406 $762 #
ellipse-curve $-1 0 0 -0.25 0 0 -1 0.5 0 0 1 I I #
point $-1 0.5 0 -1.7088152714621421 #
coedge $-1 $607 $607 $-1 $763 reversed $409 $-1 #
vertex $-1 $411 $764 #
ellipse-curve $-1 0 0 -0.25 0 0 -1 0.5 0 0 1 I I #
point $-1 0.5 0 -1.7088152714621421 #
coedge $-1 $611 $611 $-1 $765 reversed $414 $-1 #
vertex $-1 $416 $766 #
ellipse-curve $-1 0 0 -0.25 0 0 -1 0.5 0 0 1 I I #
point $-1 0.5 0 -1.7088152714621421 #
face $-1 $-1 $434 $60 $-1 $767 reversed single #
loop $-1 $-1 $631 $419 #
plane-surface $-1 0 3.1059669069622959 0 0 -1 0 0 0 -1 forward_v I I I I #
coedge $-1 $768 $629 $632 $769 forward $420 $-1 #
coedge $-1 $635 $422 $423 $623 reversed $273 $-1 #
coedge $-1 $629 $768 $422 $621 reversed $420 $-1 #
edge $-1 $636 -93.147373882259586 $770 93.147373882259586 $620 $771 forward 7 unknown #
coedge $-1 $424 $423 $768 $772 forward $178 $-1 #
edge $-1 $627 -186.29474776451917 $770 186.29474776451917 $619 $773 forward 7 unknown #
coedge $-1 $632 $631 $424 $625 reversed $616 $-1 #
edge $-1 $774 -186.29474776451917 $626 186.29474776451917 $624 $775 forward 7 unknown #
vertex $-1 $426 $776 #
vertex $-1 $638 $777 #
straight-curve $-1 186.29474776451917 0 -93.147373882259586 0 -1 0 I I #
coedge $-1 $618 $620 $427 $630 reversed $420 $-1 #
edge $-1 $633 -3.1059669069622959 $636 3.1059669069622959 $629 $778 forward 7 unknown #
coedge $-1 $624 $428 $433 $639 forward $616 $-1 #
coedge $-1 $428 $624 $618 $769 reversed $616 $-1 #
vertex $-1 $429 $779 #
straight-curve $-1 0 3.1059669069622959 93.147373882259586 -1 0 0 I I #
coedge $-1 $430 $619 $432 $638 reversed $273 $-1 #
vertex $-1 $630 $780 #
straight-curve $-1 0 -3.1059669069622959 93.147373882259586 1 0 0 I I #
edge $-1 $435 -93.147373882259586 $627 93.147373882259586 $432 $781 forward 7 unknown #
edge $-1 $436 -93.147373882259586 $626 93.147373882259586 $433 $782 forward 7 unknown #
point $-1 186.29474776451917 -3.1059669069622959 93.147373882259586 #
point $-1 186.29474776451917 3.1059669069622959 93.147373882259586 #
coedge $-1 $642 $642 $-1 $783 reversed $438 $-1 #
vertex $-1 $440 $784 #
ellipse-curve $-1 0 0 -0.25 0 0 -1 0.5 0 0 1 I I #
point $-1 0.5 0 -1.7088152714621421 #
coedge $-1 $646 $646 $-1 $785 reversed $443 $-1 #
vertex $-1 $445 $786 #
ellipse-curve $-1 0 0 -0.25 0 0 -1 0.5 0 0 1 I I #
point $-1 0.5 0 -1.7088152714621421 #
coedge $-1 $650 $650 $-1 $787 reversed $448 $-1 #
vertex $-1 $450 $788 #
ellipse-curve $-1 0 0 -0.25 0 0 -1 0.5 0 0 1 I I #
point $-1 0.5 0 -1.7088152714621421 #
face $-1 $-1 $468 $64 $-1 $789 reversed single #
loop $-1 $-1 $670 $453 #
plane-surface $-1 0 3.1059669069622959 0 0 -1 0 0 0 -1 forward_v I I I I #
coedge $-1 $790 $668 $671 $791 forward $454 $-1 #
coedge $-1 $674 $456 $457 $662 reversed $296 $-1 #
coedge $-1 $668 $790 $456 $660 reversed $454 $-1 #
edge $-1 $675 -93.147373882259586 $792 93.147373882259586 $659 $793 forward 7 unknown #
coedge $-1 $458 $457 $790 $794 forward $197 $-1 #
edge $-1 $666 -186.29474776451917 $792 186.29474776451917 $658 $795 forward 7 unknown #
coedge $-1 $671 $670 $458 $664 reversed $655 $-1 #
edge $-1 $796 -186.29474776451917 $665 186.29474776451917 $663 $797 forward 7 unknown #
vertex $-1 $460 $798 #
vertex $-1 $677 $799 #
straight-curve $-1 186.29474776451917 0 -93.147373882259586 0 -1 0 I I #
coedge $-1 $657 $659 $461 $669 reversed $454 $-1 #
edge $-1 $672 -3.1059669069622959 $675 3.1059669069622959 $668 $800 forward 7 unknown #
coedge $-1 $663 $462 $467 $678 forward $655 $-1 #
coedge $-1 $462 $663 $657 $791 reversed $655 $-1 #
vertex $-1 $463 $801 #
straight-curve $-1 0 3.1059669069622959 93.147373882259586 -1 0 0 I I #
coedge $-1 $464 $658 $466 $677 reversed $296 $-1 #
vertex $-1 $669 $802 #
straight-curve $-1 0 -3.1059669069622959 93.147373882259586 1 0 0 I I #
edge $-1 $469 -93.147373882259586 $666 93.147373882259586 $466 $803 forward 7 unknown #
edge $-1 $470 -93.147373882259586 $665 93.147373882259586 $467 $804 forward 7 unknown #
point $-1 186.29474776451917 -3.1059669069622959 93.147373882259586 #
point $-1 186.29474776451917 3.1059669069622959 93.147373882259586 #
coedge $-1 $681 $681 $-1 $805 reversed $472 $-1 #
vertex $-1 $474 $806 #
ellipse-curve $-1 0 0 -0.25 0 0 -1 0.5 0 0 1 I I #
point $-1 0.5 0 -1.7088152714621421 #
coedge $-1 $685 $685 $-1 $807 reversed $477 $-1 #
vertex $-1 $479 $808 #
ellipse-curve $-1 0 0 -0.25 0 0 -1 0.5 0 0 1 I I #
point $-1 0.5 0 -1.7088152714621421 #
coedge $-1 $689 $689 $-1 $809 reversed $482 $-1 #
vertex $-1 $484 $810 #
ellipse-curve $-1 0 0 -0.25 0 0 -1 0.5 0 0 1 I I #
point $-1 0.5 0 -1.7088152714621421 #
plane-surface $-1 46.573686941129793 0 0 -1 0 0 0 0 1 forward_v I I I I #
coedge $-1 $492 $490 $494 $698 reversed $319 $-1 #
edge $-1 $505 -9.6992162060962368 $700 9.6992162060962368 $504 $811 forward 7 unknown #
vertex $-1 $698 $812 #
straight-curve $-1 -46.573686941129793 -20.425078240691221 0 0 0 -1 I I #
edge $-1 $696 -20.425078240691221 $700 20.425078240691221 $694 $813 forward 7 unknown #
straight-curve $-1 0 -20.425078240691221 -9.6992162060962368 -1 0 0 I I #
vertex $-1 $497 $814 #
straight-curve $-1 0 20.425078240691221 -9.6992162060962368 1 0 0 I I #
point $-1 46.573686941129793 20.425078240691221 -9.6992162060962368 #
point $-1 46.573686941129793 -20.425078240691221 -9.6992162060962368 #
straight-curve $-1 -46.573686941129793 0 9.6992162060962368 0 -1 0 I I #
point $-1 -46.573686941129793 20.425078240691221 9.6992162060962368 #
point $-1 -46.573686941129793 -20.425078240691221 9.6992162060962368 #
straight-curve $-1 46.573686941129793 -20.425078240691221 0 0 0 -1 I I #
straight-curve $-1 46.573686941129793 20.425078240691221 0 0 0 -1 I I #
plane-surface $-1 46.573686941129793 0 0 -1 0 0 0 0 1 forward_v I I I I #
coedge $-1 $519 $517 $521 $714 reversed $338 $-1 #
edge $-1 $532 -1.5 $716 1.5 $531 $815 forward 7 unknown #
vertex $-1 $714 $816 #
straight-curve $-1 -46.573686941129793 -4.2822748483378845 0 0 0 -1 I I #
edge $-1 $712 -4.2822748483378845 $716 4.2822748483378845 $710 $817 forward 7 unknown #
straight-curve $-1 0 -4.2822748483378845 -1.5 -1 0 0 I I #
vertex $-1 $524 $818 #
straight-curve $-1 0 4.2822748483378845 -1.5 1 0 0 I I #
point $-1 46.573686941129793 4.2822748483378845 -1.5 #
point $-1 46.573686941129793 -4.2822748483378845 -1.5 #
straight-curve $-1 -46.573686941129793 0 1.5 0 -1 0 I I #
point $-1 -46.573686941129793 4.2822748483378845 1.5 #
point $-1 -46.573686941129793 -4.2822748483378845 1.5 #
straight-curve $-1 46.573686941129793 -4.2822748483378845 0 0 0 -1 I I #
straight-curve $-1 46.573686941129793 4.2822748483378845 0 0 0 -1 I I #
plane-surface $-1 186.29474776451917 0 0 -1 0 0 0 0 1 forward_v I I I I #
coedge $-1 $546 $544 $548 $730 reversed $357 $-1 #
edge $-1 $559 -93.147373882259586 $732 93.147373882259586 $558 $819 forward 7 unknown #
vertex $-1 $730 $820 #
straight-curve $-1 -186.29474776451917 -4.7438572782375559 0 0 0 -1 I I #
edge $-1 $728 -4.7438572782375559 $732 4.7438572782375559 $726 $821 forward 7 unknown #
straight-curve $-1 0 -4.7438572782375559 -93.147373882259586 -1 0 0 I I #
vertex $-1 $551 $822 #
straight-curve $-1 0 4.7438572782375559 -93.147373882259586 1 0 0 I I #
point $-1 186.29474776451917 4.7438572782375559 -93.147373882259586 #
point $-1 186.29474776451917 -4.7438572782375559 -93.147373882259586 #
straight-curve $-1 -186.29474776451917 0 93.147373882259586 0 -1 0 I I #
point $-1 -186.29474776451917 4.7438572782375559 93.147373882259586 #
point $-1 -186.29474776451917 -4.7438572782375559 93.147373882259586 #
straight-curve $-1 186.29474776451917 -4.7438572782375559 0 0 0 -1 I I #
straight-curve $-1 186.29474776451917 4.7438572782375559 0 0 0 -1 I I #
edge $-1 $823 1 $823 0 $568 $-1 forward 7 unknown #
point $-1 1 0 -0.5 #
edge $-1 $824 1 $824 0 $572 $-1 forward 7 unknown #
point $-1 1 0 -0.5 #
plane-surface $-1 186.29474776451917 0 0 -1 0 0 0 0 1 forward_v I I I I #
coedge $-1 $581 $579 $583 $750 reversed $386 $-1 #
edge $-1 $594 -93.147373882259586 $752 93.147373882259586 $593 $825 forward 7 unknown #
vertex $-1 $750 $826 #
straight-curve $-1 -186.29474776451917 -3.1059669069622959 0 0 0 -1 I I #
edge $-1 $748 -3.1059669069622959 $752 3.1059669069622959 $746 $827 forward 7 unknown #
straight-curve $-1 0 -3.1059669069622959 -93.147373882259586 -1 0 0 I I #
vertex $-1 $586 $828 #
straight-curve $-1 0 3.1059669069622959 -93.147373882259586 1 0 0 I I #
point $-1 186.29474776451917 3.1059669069622959 -93.147373882259586 #
point $-1 186.29474776451917 -3.1059669069622959 -93.147373882259586 #
straight-curve $-1 -186.29474776451917 0 93.147373882259586 0 -1 0 I I #
point $-1 -186.29474776451917 3.1059669069622959 93.147373882259586 #
point $-1 -186.29474776451917 -3.1059669069622959 93.147373882259586 #
straight-curve $-1 186.29474776451917 -3.1059669069622959 0 0 0 -1 I I #
straight-curve $-1 186.29474776451917 3.1059669069622959 0 0 0 -1 I I #
edge $-1 $829 1 $829 0 $603 $-1 forward 7 unknown #
point $-1 0.5 0 -0.25 #
edge $-1 $830 1 $830 0 $607 $-1 forward 7 unknown #
point $-1 0.5 0 -0.25 #
edge $-1 $831 1 $831 0 $611 $-1 forward 7 unknown #
point $-1 0.5 0 -0.25 #
plane-surface $-1 186.29474776451917 0 0 -1 0 0 0 0 1 forward_v I I I I #
coedge $-1 $620 $618 $622 $772 reversed $420 $-1 #
edge $-1 $633 -93.147373882259586 $774 93.147373882259586 $632 $832 forward 7 unknown #
vertex $-1 $772 $833 #
straight-curve $-1 -186.29474776451917 -3.1059669069622959 0 0 0 -1 I I #
edge $-1 $770 -3.1059669069622959 $774 3.1059669069622959 $768 $834 forward 7 unknown #
straight-curve $-1 0 -3.1059669069622959 -93.147373882259586 -1 0 0 I I #
vertex $-1 $625 $835 #
straight-curve $-1 0 3.1059669069622959 -93.147373882259586 1 0 0 I I #
point $-1 186.29474776451917 3.1059669069622959 -93.147373882259586 #
point $-1 186.29474776451917 -3.1059669069622959 -93.147373882259586 #
straight-curve $-1 -186.29474776451917 0 93.147373882259586 0 -1 0 I I #
point $-1 -186.29474776451917 3.1059669069622959 93.147373882259586 #
point $-1 -186.29474776451917 -3.1059669069622959 93.147373882259586 #
straight-curve $-1 186.29474776451917 -3.1059669069622959 0 0 0 -1 I I #
straight-curve $-1 186.29474776451917 3.1059669069622959 0 0 0 -1 I I #
edge $-1 $836 1 $836 0 $642 $-1 forward 7 unknown #
point $-1 0.5 0 -0.25 #
edge $-1 $837 1 $837 0 $646 $-1 forward 7 unknown #
point $-1 0.5 0 -0.25 #
edge $-1 $838 1 $838 0 $650 $-1 forward 7 unknown #
point $-1 0.5 0 -0.25 #
plane-surface $-1 186.29474776451917 0 0 -1 0 0 0 0 1 forward_v I I I I #
coedge $-1 $659 $657 $661 $794 reversed $454 $-1 #
edge $-1 $672 -93.147373882259586 $796 93.147373882259586 $671 $839 forward 7 unknown #
vertex $-1 $794 $840 #
straight-curve $-1 -186.29474776451917 -3.1059669069622959 0 0 0 -1 I I #
edge $-1 $792 -3.1059669069622959 $796 3.1059669069622959 $790 $841 forward 7 unknown #
straight-curve $-1 0 -3.1059669069622959 -93.147373882259586 -1 0 0 I I #
vertex $-1 $664 $842 #
straight-curve $-1 0 3.1059669069622959 -93.147373882259586 1 0 0 I I #
point $-1 186.29474776451917 3.1059669069622959 -93.147373882259586 #
point $-1 186.29474776451917 -3.1059669069622959 -93.147373882259586 #
straight-curve $-1 -186.29474776451917 0 93.147373882259586 0 -1 0 I I #
point $-1 -186.29474776451917 3.1059669069622959 93.147373882259586 #
point $-1 -186.29474776451917 -3.1059669069622959 93.147373882259586 #
straight-curve $-1 186.29474776451917 -3.1059669069622959 0 0 0 -1 I I #
straight-curve $-1 186.29474776451917 3.1059669069622959 0 0 0 -1 I I #
edge $-1 $843 1 $843 0 $681 $-1 forward 7 unknown #
point $-1 0.5 0 -0.25 #
edge $-1 $844 1 $844 0 $685 $-1 forward 7 unknown #
point $-1 0.5 0 -0.25 #
edge $-1 $845 1 $845 0 $689 $-1 forward 7 unknown #
point $-1 0.5 0 -0.25 #
straight-curve $-1 -46.573686941129793 20.425078240691221 0 0 0 -1 I I #
point $-1 -46.573686941129793 -20.425078240691221 -9.6992162060962368 #
straight-curve $-1 -46.573686941129793 0 -9.6992162060962368 0 1 0 I I #
point $-1 -46.573686941129793 20.425078240691221 -9.6992162060962368 #
straight-curve $-1 -46.573686941129793 4.2822748483378845 0 0 0 -1 I I #
point $-1 -46.573686941129793 -4.2822748483378845 -1.5 #
straight-curve $-1 -46.573686941129793 0 -1.5 0 1 0 I I #
point $-1 -46.573686941129793 4.2822748483378845 -1.5 #
straight-curve $-1 -186.29474776451917 4.7438572782375559 0 0 0 -1 I I #
point $-1 -186.29474776451917 -4.7438572782375559 -93.147373882259586 #
straight-curve $-1 -186.29474776451917 0 -93.147373882259586 0 1 0 I I #
point $-1 -186.29474776451917 4.7438572782375559 -93.147373882259586 #
vertex $-1 $741 $846 #
vertex $-1 $743 $847 #
straight-curve $-1 -186.29474776451917 3.1059669069622959 0 0 0 -1 I I #
point $-1 -186.29474776451917 -3.1059669069622959 -93.147373882259586 #
straight-curve $-1 -186.29474776451917 0 -93.147373882259586 0 1 0 I I #
point $-1 -186.29474776451917 3.1059669069622959 -93.147373882259586 #
vertex $-1 $761 $848 #
vertex $-1 $763 $849 #
vertex $-1 $765 $850 #
straight-curve $-1 -186.29474776451917 3.1059669069622959 0 0 0 -1 I I #
point $-1 -186.29474776451917 -3.1059669069622959 -93.147373882259586 #
straight-curve $-1 -186.29474776451917 0 -93.147373882259586 0 1 0 I I #
point $-1 -186.29474776451917 3.1059669069622959 -93.147373882259586 #
vertex $-1 $783 $851 #
vertex $-1 $785 $852 #
vertex $-1 $787 $853 #
straight-curve $-1 -186.29474776451917 3.1059669069622959 0 0 0 -1 I I #
point $-1 -186.29474776451917 -3.1059669069622959 -93.147373882259586 #
straight-curve $-1 -186.29474776451917 0 -93.147373882259586 0 1 0 I I #
point $-1 -186.29474776451917 3.1059669069622959 -93.147373882259586 #
vertex $-1 $805 $854 #
vertex $-1 $807 $855 #
vertex $-1 $809 $856 #
point $-1 0 0 0.5 #
point $-1 0 0 0.5 #
point $-1 0 0 0.25 #
point $-1 0 0 0.25 #
point $-1 0 0 0.25 #
point $-1 0 0 0.25 #
point $-1 0 0 0.25 #
point $-1 0 0 0.25 #
point $-1 0 0 0.25 #
point $-1 0 0 0.25 #
point $-1 0 0 0.25 #
End-of-ACIS-data 