500 0 19 0           
7 Unknown 11 ACIS 5.0 NT 24 Fri Mar 26 20:16:57 1999 
-1 9.9999999999999995e-007 1e-010 
body $-1 $19 $-1 $20 #
body $-1 $21 $-1 $22 #
body $-1 $23 $-1 $24 #
body $-1 $25 $-1 $26 #
body $-1 $27 $-1 $28 #
body $-1 $29 $-1 $30 #
body $-1 $31 $-1 $32 #
body $-1 $33 $-1 $34 #
body $-1 $35 $-1 $36 #
body $-1 $37 $-1 $38 #
body $-1 $39 $-1 $40 #
body $-1 $41 $-1 $42 #
body $-1 $43 $-1 $44 #
body $-1 $45 $-1 $46 #
body $-1 $47 $-1 $48 #
body $-1 $49 $-1 $50 #
body $-1 $51 $-1 $52 #
body $-1 $53 $-1 $54 #
body $-1 $55 $-1 $56 #
lump $-1 $-1 $57 $0 #
transform $-1 1 0 0 0 1 0 0 0 1 53.922544022949921 36.91539305661243 10.541847465722643 1 rotate no_reflect no_shear #
lump $-1 $-1 $58 $1 #
transform $-1 1 0 0 0 1 0 0 0 1 -4.787755992116927 1.5 10.541847465722643 1 rotate no_reflect no_shear #
lump $-1 $-1 $59 $2 #
transform $-1 1 0 0 0 1 0 0 0 1 112.63284403801677 1.5 10.541847465722643 1 rotate no_reflect no_shear #
lump $-1 $-1 $60 $3 #
transform $-1 1 0 0 0 0.75470957328743171 -0.6560590369687036 0 0.6560590369687036 0.75470957328743171 19.941477199566535 88.862729635435386 141.17489192219253 1 rotate no_reflect no_shear #
lump $-1 $-1 $61 $4 #
transform $-1 1 0 0 0 -0.75470957328743171 0.6560590369687036 0 -0.6560590369687036 -0.75470957328743171 19.941477199566538 62.559348043424045 9.6917477640945222 1 rotate no_reflect no_shear #
lump $-1 $-1 $62 $5 #
transform $-1 1 0 0 0 0.75470957328743171 -0.6560590369687036 0 0.6560590369687036 0.75470957328743171 42.114993218924567 88.862729635435386 141.17489192219253 1 rotate no_reflect no_shear #
lump $-1 $-1 $63 $6 #
transform $-1 1 0 0 0 -0.75470957328743171 0.6560590369687036 0 -0.6560590369687036 -0.75470957328743171 42.114993218924567 62.559348043424045 9.6917477640945222 1 rotate no_reflect no_shear #
lump $-1 $-1 $64 $7 #
transform $-1 1 0 0 0 0.75470957328743171 -0.6560590369687036 0 0.6560590369687036 0.75470957328743171 64.2885092382826 88.862729635435386 141.17489192219253 1 rotate no_reflect no_shear #
lump $-1 $-1 $65 $8 #
transform $-1 1 0 0 0 -0.75470957328743171 0.6560590369687036 0 -0.6560590369687036 -0.75470957328743171 64.2885092382826 62.559348043424045 9.6917477640945222 1 rotate no_reflect no_shear #
lump $-1 $-1 $66 $9 #
transform $-1 1 0 0 0 0.75470957328743171 -0.6560590369687036 0 0.6560590369687036 0.75470957328743171 86.462025257640633 88.862729635435386 141.17489192219253 1 rotate no_reflect no_shear #
lump $-1 $-1 $67 $10 #
transform $-1 1 0 0 0 -0.75470957328743171 0.6560590369687036 0 -0.6560590369687036 -0.75470957328743171 86.462025257640633 62.559348043424045 9.6917477640945222 1 rotate no_reflect no_shear #
lump $-1 $-1 $68 $11 #
transform $-1 1 0 0 0 0.57357642473473569 0.81915205242281985 0 -0.81915205242281985 0.57357642473473569 44.68825954160711 -88.341525216518562 77.653935978954479 1 rotate no_reflect no_shear #
lump $-1 $-1 $69 $12 #
transform $-1 1 0 0 0 -0.57357642473473569 -0.81915205242281985 0 0.81915205242281985 -0.57357642473473569 39.14768885280143 3.7926373393998407 17.080604354075415 1 rotate no_reflect no_shear #
lump $-1 $-1 $70 $13 #
transform $-1 1 0 0 0 -0.57357642473473569 -0.81915205242281985 0 0.81915205242281985 -0.57357642473473569 44.68825954160711 3.7926373393998407 17.080604354075415 1 rotate no_reflect no_shear #
lump $-1 $-1 $71 $14 #
transform $-1 1 0 0 0 -0.57357642473473569 -0.81915205242281985 0 0.81915205242281985 -0.57357642473473569 50.228830230412797 3.7926373393998407 17.080604354075415 1 rotate no_reflect no_shear #
lump $-1 $-1 $72 $15 #
transform $-1 1 0 0 0 0.57357642473473569 0.81915205242281985 0 -0.81915205242281985 0.57357642473473569 89.035291580323175 -88.341525216518562 77.653935978954479 1 rotate no_reflect no_shear #
lump $-1 $-1 $73 $16 #
transform $-1 1 0 0 0 -0.57357642473473569 -0.81915205242281985 0 0.81915205242281985 -0.57357642473473569 83.494720891517488 3.7926373393998407 17.080604354075415 1 rotate no_reflect no_shear #
lump $-1 $-1 $74 $17 #
transform $-1 1 0 0 0 -0.57357642473473569 -0.81915205242281985 0 0.81915205242281985 -0.57357642473473569 89.035291580323175 3.7926373393998407 17.080604354075415 1 rotate no_reflect no_shear #
lump $-1 $-1 $75 $18 #
transform $-1 1 0 0 0 -0.57357642473473569 -0.81915205242281985 0 0.81915205242281985 -0.57357642473473569 94.575862269128862 3.7926373393998407 17.080604354075415 1 rotate no_reflect no_shear #
shell $-1 $-1 $-1 $76 $-1 $19 #
shell $-1 $-1 $-1 $77 $-1 $21 #
shell $-1 $-1 $-1 $78 $-1 $23 #
shell $-1 $-1 $-1 $79 $-1 $25 #
shell $-1 $-1 $-1 $80 $-1 $27 #
shell $-1 $-1 $-1 $81 $-1 $29 #
shell $-1 $-1 $-1 $82 $-1 $31 #
shell $-1 $-1 $-1 $83 $-1 $33 #
shell $-1 $-1 $-1 $84 $-1 $35 #
shell $-1 $-1 $-1 $85 $-1 $37 #
shell $-1 $-1 $-1 $86 $-1 $39 #
shell $-1 $-1 $-1 $87 $-1 $41 #
shell $-1 $-1 $-1 $88 $-1 $43 #
shell $-1 $-1 $-1 $89 $-1 $45 #
shell $-1 $-1 $-1 $90 $-1 $47 #
shell $-1 $-1 $-1 $91 $-1 $49 #
shell $-1 $-1 $-1 $92 $-1 $51 #
shell $-1 $-1 $-1 $93 $-1 $53 #
shell $-1 $-1 $-1 $94 $-1 $55 #
face $-1 $95 $96 $57 $-1 $97 forward single #
face $-1 $98 $99 $58 $-1 $100 forward single #
face $-1 $101 $102 $59 $-1 $103 forward single #
face $-1 $104 $105 $60 $-1 $106 forward single #
face $-1 $107 $108 $61 $-1 $109 forward single #
face $-1 $110 $111 $62 $-1 $112 forward single #
face $-1 $113 $114 $63 $-1 $115 forward single #
face $-1 $116 $117 $64 $-1 $118 forward single #
face $-1 $119 $120 $65 $-1 $121 forward single #
face $-1 $122 $123 $66 $-1 $124 forward single #
face $-1 $125 $126 $67 $-1 $127 forward single #
face $-1 $128 $129 $68 $-1 $130 forward single #
face $-1 $131 $132 $69 $-1 $133 forward single #
face $-1 $134 $135 $70 $-1 $136 forward single #
face $-1 $137 $138 $71 $-1 $139 forward single #
face $-1 $140 $141 $72 $-1 $142 forward single #
face $-1 $143 $144 $73 $-1 $145 forward single #
face $-1 $146 $147 $74 $-1 $148 forward single #
face $-1 $149 $150 $75 $-1 $151 forward single #
face $-1 $152 $153 $57 $-1 $154 reversed single #
loop $-1 $-1 $155 $76 #
plane-surface $-1 0 0 10.541847465722643 0 0 1 1 0 0 forward_v I I I I #
face $-1 $156 $157 $58 $-1 $158 reversed single #
loop $-1 $-1 $159 $77 #
plane-surface $-1 0 0 10.541847465722643 0 0 1 1 0 0 forward_v I I I I #
face $-1 $160 $161 $59 $-1 $162 reversed single #
loop $-1 $-1 $163 $78 #
plane-surface $-1 0 0 10.541847465722643 0 0 1 1 0 0 forward_v I I I I #
face $-1 $164 $165 $60 $-1 $166 reversed single #
loop $-1 $-1 $167 $79 #
plane-surface $-1 0 0 107.84508804589984 0 0 1 1 0 0 forward_v I I I I #
face $-1 $168 $169 $61 $-1 $170 forward single #
loop $-1 $171 $172 $80 #
cone-surface $-1 0 0 -5.0715353862117372 0 0 1 3 0 0 1 I I 0 1 3 forward I I I I #
face $-1 $173 $174 $62 $-1 $175 reversed single #
loop $-1 $-1 $176 $81 #
plane-surface $-1 0 0 107.84508804589984 0 0 1 1 0 0 forward_v I I I I #
face $-1 $177 $178 $63 $-1 $179 forward single #
loop $-1 $180 $181 $82 #
cone-surface $-1 0 0 -5.0715353862117372 0 0 1 3 0 0 1 I I 0 1 3 forward I I I I #
face $-1 $182 $183 $64 $-1 $184 reversed single #
loop $-1 $-1 $185 $83 #
plane-surface $-1 0 0 107.84508804589984 0 0 1 1 0 0 forward_v I I I I #
face $-1 $186 $187 $65 $-1 $188 forward single #
loop $-1 $189 $190 $84 #
cone-surface $-1 0 0 -5.0715353862117372 0 0 1 3 0 0 1 I I 0 1 3 forward I I I I #
face $-1 $191 $192 $66 $-1 $193 reversed single #
loop $-1 $-1 $194 $85 #
plane-surface $-1 0 0 107.84508804589984 0 0 1 1 0 0 forward_v I I I I #
face $-1 $195 $196 $67 $-1 $197 forward single #
loop $-1 $198 $199 $86 #
cone-surface $-1 0 0 -5.0715353862117372 0 0 1 3 0 0 1 I I 0 1 3 forward I I I I #
face $-1 $200 $201 $68 $-1 $202 reversed single #
loop $-1 $-1 $203 $87 #
plane-surface $-1 0 0 107.84508804589984 0 0 1 1 0 0 forward_v I I I I #
face $-1 $204 $205 $69 $-1 $206 forward single #
loop $-1 $207 $208 $88 #
cone-surface $-1 0 0 -1.43511764885403 0 0 1 1 0 0 1 I I 0 1 1 forward I I I I #
face $-1 $209 $210 $70 $-1 $211 forward single #
loop $-1 $212 $213 $89 #
cone-surface $-1 0 0 -1.43511764885403 0 0 1 1 0 0 1 I I 0 1 1 forward I I I I #
face $-1 $214 $215 $71 $-1 $216 forward single #
loop $-1 $217 $218 $90 #
cone-surface $-1 0 0 -1.43511764885403 0 0 1 1 0 0 1 I I 0 1 1 forward I I I I #
face $-1 $219 $220 $72 $-1 $221 reversed single #
loop $-1 $-1 $222 $91 #
plane-surface $-1 0 0 107.84508804589984 0 0 1 1 0 0 forward_v I I I I #
face $-1 $223 $224 $73 $-1 $225 forward single #
loop $-1 $226 $227 $92 #
cone-surface $-1 0 0 -1.43511764885403 0 0 1 1 0 0 1 I I 0 1 1 forward I I I I #
face $-1 $228 $229 $74 $-1 $230 forward single #
loop $-1 $231 $232 $93 #
cone-surface $-1 0 0 -1.43511764885403 0 0 1 1 0 0 1 I I 0 1 1 forward I I I I #
face $-1 $233 $234 $75 $-1 $235 forward single #
loop $-1 $236 $237 $94 #
cone-surface $-1 0 0 -1.43511764885403 0 0 1 1 0 0 1 I I 0 1 1 forward I I I I #
face $-1 $238 $239 $57 $-1 $240 reversed single #
loop $-1 $-1 $241 $95 #
plane-surface $-1 0 0 -10.541847465722643 0 0 1 1 0 0 forward_v I I I I #
coedge $-1 $242 $243 $244 $245 forward $96 $-1 #
face $-1 $246 $247 $58 $-1 $248 reversed single #
loop $-1 $-1 $249 $98 #
plane-surface $-1 0 0 -10.541847465722643 0 0 1 1 0 0 forward_v I I I I #
coedge $-1 $250 $251 $252 $253 forward $99 $-1 #
face $-1 $254 $255 $59 $-1 $256 reversed single #
loop $-1 $-1 $257 $101 #
plane-surface $-1 0 0 -10.541847465722643 0 0 1 1 0 0 forward_v I I I I #
coedge $-1 $258 $259 $260 $261 forward $102 $-1 #
face $-1 $262 $263 $60 $-1 $264 reversed single #
loop $-1 $-1 $265 $104 #
plane-surface $-1 0 0 -107.84508804589984 0 0 1 1 0 0 forward_v I I I I #
coedge $-1 $266 $267 $268 $269 forward $105 $-1 #
face $-1 $-1 $270 $61 $-1 $271 forward single #
loop $-1 $-1 $272 $107 #
plane-surface $-1 0 0 -8.6430707724234743 0 0 -1 -1 0 0 forward_v I I I I #
loop $-1 $-1 $273 $80 #
coedge $-1 $172 $172 $272 $274 reversed $108 $-1 #
face $-1 $275 $276 $62 $-1 $277 reversed single #
loop $-1 $-1 $278 $110 #
plane-surface $-1 0 0 -107.84508804589984 0 0 1 1 0 0 forward_v I I I I #
coedge $-1 $279 $280 $281 $282 forward $111 $-1 #
face $-1 $-1 $283 $63 $-1 $284 forward single #
loop $-1 $-1 $285 $113 #
plane-surface $-1 0 0 -8.6430707724234743 0 0 -1 -1 0 0 forward_v I I I I #
loop $-1 $-1 $286 $82 #
coedge $-1 $181 $181 $285 $287 reversed $114 $-1 #
face $-1 $288 $289 $64 $-1 $290 reversed single #
loop $-1 $-1 $291 $116 #
plane-surface $-1 0 0 -107.84508804589984 0 0 1 1 0 0 forward_v I I I I #
coedge $-1 $292 $293 $294 $295 forward $117 $-1 #
face $-1 $-1 $296 $65 $-1 $297 forward single #
loop $-1 $-1 $298 $119 #
plane-surface $-1 0 0 -8.6430707724234743 0 0 -1 -1 0 0 forward_v I I I I #
loop $-1 $-1 $299 $84 #
coedge $-1 $190 $190 $298 $300 reversed $120 $-1 #
face $-1 $301 $302 $66 $-1 $303 reversed single #
loop $-1 $-1 $304 $122 #
plane-surface $-1 0 0 -107.84508804589984 0 0 1 1 0 0 forward_v I I I I #
coedge $-1 $305 $306 $307 $308 forward $123 $-1 #
face $-1 $-1 $309 $67 $-1 $310 forward single #
loop $-1 $-1 $311 $125 #
plane-surface $-1 0 0 -8.6430707724234743 0 0 -1 -1 0 0 forward_v I I I I #
loop $-1 $-1 $312 $86 #
coedge $-1 $199 $199 $311 $313 reversed $126 $-1 #
face $-1 $314 $315 $68 $-1 $316 reversed single #
loop $-1 $-1 $317 $128 #
plane-surface $-1 0 0 -107.84508804589984 0 0 1 1 0 0 forward_v I I I I #
coedge $-1 $318 $319 $320 $321 forward $129 $-1 #
face $-1 $-1 $322 $69 $-1 $323 forward single #
loop $-1 $-1 $324 $131 #
plane-surface $-1 0 0 -2.3702352977080601 0 0 -1 -1 0 0 forward_v I I I I #
loop $-1 $-1 $325 $88 #
coedge $-1 $208 $208 $324 $326 reversed $132 $-1 #
face $-1 $-1 $327 $70 $-1 $328 forward single #
loop $-1 $-1 $329 $134 #
plane-surface $-1 0 0 -2.3702352977080601 0 0 -1 -1 0 0 forward_v I I I I #
loop $-1 $-1 $330 $89 #
coedge $-1 $213 $213 $329 $331 reversed $135 $-1 #
face $-1 $-1 $332 $71 $-1 $333 forward single #
loop $-1 $-1 $334 $137 #
plane-surface $-1 0 0 -2.3702352977080601 0 0 -1 -1 0 0 forward_v I I I I #
loop $-1 $-1 $335 $90 #
coedge $-1 $218 $218 $334 $336 reversed $138 $-1 #
face $-1 $337 $338 $72 $-1 $339 reversed single #
loop $-1 $-1 $340 $140 #
plane-surface $-1 0 0 -107.84508804589984 0 0 1 1 0 0 forward_v I I I I #
coedge $-1 $341 $342 $343 $344 forward $141 $-1 #
face $-1 $-1 $345 $73 $-1 $346 forward single #
loop $-1 $-1 $347 $143 #
plane-surface $-1 0 0 -2.3702352977080601 0 0 -1 -1 0 0 forward_v I I I I #
loop $-1 $-1 $348 $92 #
coedge $-1 $227 $227 $347 $349 reversed $144 $-1 #
face $-1 $-1 $350 $74 $-1 $351 forward single #
loop $-1 $-1 $352 $146 #
plane-surface $-1 0 0 -2.3702352977080601 0 0 -1 -1 0 0 forward_v I I I I #
loop $-1 $-1 $353 $93 #
coedge $-1 $232 $232 $352 $354 reversed $147 $-1 #
face $-1 $-1 $355 $75 $-1 $356 forward single #
loop $-1 $-1 $357 $149 #
plane-surface $-1 0 0 -2.3702352977080601 0 0 -1 -1 0 0 forward_v I I I I #
loop $-1 $-1 $358 $94 #
coedge $-1 $237 $237 $357 $359 reversed $150 $-1 #
face $-1 $360 $361 $57 $-1 $362 reversed single #
loop $-1 $-1 $363 $152 #
plane-surface $-1 0 -36.91539305661243 0 0 1 0 0 0 1 forward_v I I I I #
coedge $-1 $364 $365 $366 $367 forward $153 $-1 #
coedge $-1 $368 $155 $369 $370 forward $96 $-1 #
coedge $-1 $155 $368 $371 $372 forward $96 $-1 #
coedge $-1 $373 $374 $155 $245 reversed $375 $-1 #
edge $-1 $376 -36.91539305661243 $377 36.91539305661243 $244 $378 forward 7 unknown #
face $-1 $379 $380 $58 $-1 $381 reversed single #
loop $-1 $-1 $382 $156 #
plane-surface $-1 0 -1.5 0 0 1 0 0 0 1 forward_v I I I I #
coedge $-1 $383 $384 $385 $386 forward $157 $-1 #
coedge $-1 $387 $159 $388 $389 forward $99 $-1 #
coedge $-1 $159 $387 $390 $391 forward $99 $-1 #
coedge $-1 $392 $393 $159 $253 reversed $394 $-1 #
edge $-1 $395 -1.5 $396 1.5 $252 $397 forward 7 unknown #
face $-1 $398 $399 $59 $-1 $400 reversed single #
loop $-1 $-1 $401 $160 #
plane-surface $-1 0 -1.5 0 0 1 0 0 0 1 forward_v I I I I #
coedge $-1 $402 $403 $404 $405 forward $161 $-1 #
coedge $-1 $406 $163 $407 $408 forward $102 $-1 #
coedge $-1 $163 $406 $409 $410 forward $102 $-1 #
coedge $-1 $411 $412 $163 $261 reversed $413 $-1 #
edge $-1 $414 -1.5 $415 1.5 $260 $416 forward 7 unknown #
face $-1 $417 $418 $60 $-1 $419 reversed single #
loop $-1 $-1 $420 $164 #
plane-surface $-1 0 -215.69017609179969 0 0 1 0 0 0 1 forward_v I I I I #
coedge $-1 $421 $422 $423 $424 forward $165 $-1 #
coedge $-1 $425 $167 $426 $427 forward $105 $-1 #
coedge $-1 $167 $425 $428 $429 forward $105 $-1 #
coedge $-1 $430 $431 $167 $269 reversed $432 $-1 #
edge $-1 $433 -215.69017609179969 $434 215.69017609179969 $268 $435 forward 7 unknown #
loop $-1 $436 $437 $168 #
cone-surface $-1 0 0 0 0 0 1 1.5 0 0 1 I I -0.70710678118654757 0.70710678118654757 1.5 forward I I I I #
coedge $-1 $272 $272 $172 $274 forward $169 $-1 #
coedge $-1 $273 $273 $437 $438 forward $171 $-1 #
edge $-1 $439 0 $439 6.2831853071796004 $272 $440 forward 7 unknown #
face $-1 $441 $442 $62 $-1 $443 reversed single #
loop $-1 $-1 $444 $173 #
plane-surface $-1 0 -215.69017609179969 0 0 1 0 0 0 1 forward_v I I I I #
coedge $-1 $445 $446 $447 $448 forward $174 $-1 #
coedge $-1 $449 $176 $450 $451 forward $111 $-1 #
coedge $-1 $176 $449 $452 $453 forward $111 $-1 #
coedge $-1 $454 $455 $176 $282 reversed $456 $-1 #
edge $-1 $457 -215.69017609179969 $458 215.69017609179969 $281 $459 forward 7 unknown #
loop $-1 $460 $461 $177 #
cone-surface $-1 0 0 0 0 0 1 1.5 0 0 1 I I -0.70710678118654757 0.70710678118654757 1.5 forward I I I I #
coedge $-1 $285 $285 $181 $287 forward $178 $-1 #
coedge $-1 $286 $286 $461 $462 forward $180 $-1 #
edge $-1 $463 0 $463 6.2831853071796004 $285 $464 forward 7 unknown #
face $-1 $465 $466 $64 $-1 $467 reversed single #
loop $-1 $-1 $468 $182 #
plane-surface $-1 0 -215.69017609179969 0 0 1 0 0 0 1 forward_v I I I I #
coedge $-1 $469 $470 $471 $472 forward $183 $-1 #
coedge $-1 $473 $185 $474 $475 forward $117 $-1 #
coedge $-1 $185 $473 $476 $477 forward $117 $-1 #
coedge $-1 $478 $479 $185 $295 reversed $480 $-1 #
edge $-1 $481 -215.69017609179969 $482 215.69017609179969 $294 $483 forward 7 unknown #
loop $-1 $484 $485 $186 #
cone-surface $-1 0 0 0 0 0 1 1.5 0 0 1 I I -0.70710678118654757 0.70710678118654757 1.5 forward I I I I #
coedge $-1 $298 $298 $190 $300 forward $187 $-1 #
coedge $-1 $299 $299 $485 $486 forward $189 $-1 #
edge $-1 $487 0 $487 6.2831853071796004 $298 $488 forward 7 unknown #
face $-1 $489 $490 $66 $-1 $491 reversed single #
loop $-1 $-1 $492 $191 #
plane-surface $-1 0 -215.69017609179969 0 0 1 0 0 0 1 forward_v I I I I #
coedge $-1 $493 $494 $495 $496 forward $192 $-1 #
coedge $-1 $497 $194 $498 $499 forward $123 $-1 #
coedge $-1 $194 $497 $500 $501 forward $123 $-1 #
coedge $-1 $502 $503 $194 $308 reversed $504 $-1 #
edge $-1 $505 -215.69017609179969 $506 215.69017609179969 $307 $507 forward 7 unknown #
loop $-1 $508 $509 $195 #
cone-surface $-1 0 0 0 0 0 1 1.5 0 0 1 I I -0.70710678118654757 0.70710678118654757 1.5 forward I I I I #
coedge $-1 $311 $311 $199 $313 forward $196 $-1 #
coedge $-1 $312 $312 $509 $510 forward $198 $-1 #
edge $-1 $511 0 $511 6.2831853071796004 $311 $512 forward 7 unknown #
face $-1 $513 $514 $68 $-1 $515 reversed single #
loop $-1 $-1 $516 $200 #
plane-surface $-1 0 -215.69017609179969 0 0 1 0 0 0 1 forward_v I I I I #
coedge $-1 $517 $518 $519 $520 forward $201 $-1 #
coedge $-1 $521 $203 $522 $523 forward $129 $-1 #
coedge $-1 $203 $521 $524 $525 forward $129 $-1 #
coedge $-1 $526 $527 $203 $321 reversed $528 $-1 #
edge $-1 $529 -215.69017609179969 $530 215.69017609179969 $320 $531 forward 7 unknown #
loop $-1 $532 $533 $204 #
cone-surface $-1 0 0 0 0 0 1 0.5 0 0 1 I I -0.70710678118654746 0.70710678118654746 0.5 forward I I I I #
coedge $-1 $324 $324 $208 $326 forward $205 $-1 #
coedge $-1 $325 $325 $533 $534 forward $207 $-1 #
edge $-1 $535 0 $535 6.2831853071796004 $324 $536 forward 7 unknown #
loop $-1 $537 $538 $209 #
cone-surface $-1 0 0 0 0 0 1 0.5 0 0 1 I I -0.70710678118654746 0.70710678118654746 0.5 forward I I I I #
coedge $-1 $329 $329 $213 $331 forward $210 $-1 #
coedge $-1 $330 $330 $538 $539 forward $212 $-1 #
edge $-1 $540 0 $540 6.2831853071796004 $329 $541 forward 7 unknown #
loop $-1 $542 $543 $214 #
cone-surface $-1 0 0 0 0 0 1 0.5 0 0 1 I I -0.70710678118654746 0.70710678118654746 0.5 forward I I I I #
coedge $-1 $334 $334 $218 $336 forward $215 $-1 #
coedge $-1 $335 $335 $543 $544 forward $217 $-1 #
edge $-1 $545 0 $545 6.2831853071796004 $334 $546 forward 7 unknown #
face $-1 $547 $548 $72 $-1 $549 reversed single #
loop $-1 $-1 $550 $219 #
plane-surface $-1 0 -215.69017609179969 0 0 1 0 0 0 1 forward_v I I I I #
coedge $-1 $551 $552 $553 $554 forward $220 $-1 #
coedge $-1 $555 $222 $556 $557 forward $141 $-1 #
coedge $-1 $222 $555 $558 $559 forward $141 $-1 #
coedge $-1 $560 $561 $222 $344 reversed $562 $-1 #
edge $-1 $563 -215.69017609179969 $564 215.69017609179969 $343 $565 forward 7 unknown #
loop $-1 $566 $567 $223 #
cone-surface $-1 0 0 0 0 0 1 0.5 0 0 1 I I -0.70710678118654746 0.70710678118654746 0.5 forward I I I I #
coedge $-1 $347 $347 $227 $349 forward $224 $-1 #
coedge $-1 $348 $348 $567 $568 forward $226 $-1 #
edge $-1 $569 0 $569 6.2831853071796004 $347 $570 forward 7 unknown #
loop $-1 $571 $572 $228 #
cone-surface $-1 0 0 0 0 0 1 0.5 0 0 1 I I -0.70710678118654746 0.70710678118654746 0.5 forward I I I I #
coedge $-1 $352 $352 $232 $354 forward $229 $-1 #
coedge $-1 $353 $353 $572 $573 forward $231 $-1 #
edge $-1 $574 0 $574 6.2831853071796004 $352 $575 forward 7 unknown #
loop $-1 $576 $577 $233 #
cone-surface $-1 0 0 0 0 0 1 0.5 0 0 1 I I -0.70710678118654746 0.70710678118654746 0.5 forward I I I I #
coedge $-1 $357 $357 $237 $359 forward $234 $-1 #
coedge $-1 $358 $358 $577 $578 forward $236 $-1 #
edge $-1 $579 0 $579 6.2831853071796004 $357 $580 forward 7 unknown #
face $-1 $581 $582 $57 $-1 $583 reversed single #
loop $-1 $-1 $584 $238 #
plane-surface $-1 -53.922544022949921 0 0 1 0 0 0 0 -1 forward_v I I I I #
coedge $-1 $585 $371 $586 $587 forward $239 $-1 #
coedge $-1 $588 $241 $585 $589 forward $153 $-1 #
coedge $-1 $241 $588 $590 $591 forward $153 $-1 #
coedge $-1 $374 $373 $241 $367 reversed $375 $-1 #
edge $-1 $592 -36.91539305661243 $593 36.91539305661243 $366 $594 forward 7 unknown #
coedge $-1 $243 $242 $595 $596 forward $96 $-1 #
coedge $-1 $597 $598 $242 $370 reversed $582 $-1 #
edge $-1 $377 -53.922544022949921 $599 53.922544022949921 $369 $600 forward 7 unknown #
coedge $-1 $363 $601 $243 $372 reversed $239 $-1 #
edge $-1 $602 -53.922544022949921 $376 53.922544022949921 $371 $603 forward 7 unknown #
coedge $-1 $366 $244 $601 $604 forward $375 $-1 #
coedge $-1 $244 $366 $597 $605 reversed $375 $-1 #
loop $-1 $-1 $373 $581 #
vertex $-1 $245 $606 #
vertex $-1 $245 $607 #
straight-curve $-1 53.922544022949921 0 10.541847465722643 0 1 0 I I #
face $-1 $608 $609 $58 $-1 $610 reversed single #
loop $-1 $-1 $611 $246 #
plane-surface $-1 -4.787755992116927 0 0 1 0 0 0 0 -1 forward_v I I I I #
coedge $-1 $612 $390 $613 $614 forward $247 $-1 #
coedge $-1 $615 $249 $612 $616 forward $157 $-1 #
coedge $-1 $249 $615 $617 $618 forward $157 $-1 #
coedge $-1 $393 $392 $249 $386 reversed $394 $-1 #
edge $-1 $619 -1.5 $620 1.5 $385 $621 forward 7 unknown #
coedge $-1 $251 $250 $622 $623 forward $99 $-1 #
coedge $-1 $624 $625 $250 $389 reversed $609 $-1 #
edge $-1 $396 -4.787755992116927 $626 4.787755992116927 $388 $627 forward 7 unknown #
coedge $-1 $382 $628 $251 $391 reversed $247 $-1 #
edge $-1 $629 -4.787755992116927 $395 4.787755992116927 $390 $630 forward 7 unknown #
coedge $-1 $385 $252 $628 $631 forward $394 $-1 #
coedge $-1 $252 $385 $624 $632 reversed $394 $-1 #
loop $-1 $-1 $392 $608 #
vertex $-1 $253 $633 #
vertex $-1 $253 $634 #
straight-curve $-1 4.787755992116927 0 10.541847465722643 0 1 0 I I #
face $-1 $635 $636 $59 $-1 $637 reversed single #
loop $-1 $-1 $638 $254 #
plane-surface $-1 -4.7877559921169279 0 0 1 0 0 0 0 -1 forward_v I I I I #
coedge $-1 $639 $409 $640 $641 forward $255 $-1 #
coedge $-1 $642 $257 $639 $643 forward $161 $-1 #
coedge $-1 $257 $642 $644 $645 forward $161 $-1 #
coedge $-1 $412 $411 $257 $405 reversed $413 $-1 #
edge $-1 $646 -1.5 $647 1.5 $404 $648 forward 7 unknown #
coedge $-1 $259 $258 $649 $650 forward $102 $-1 #
coedge $-1 $651 $652 $258 $408 reversed $636 $-1 #
edge $-1 $415 -4.7877559921169279 $653 4.7877559921169279 $407 $654 forward 7 unknown #
coedge $-1 $401 $655 $259 $410 reversed $255 $-1 #
edge $-1 $656 -4.7877559921169279 $414 4.7877559921169279 $409 $657 forward 7 unknown #
coedge $-1 $404 $260 $655 $658 forward $413 $-1 #
coedge $-1 $260 $404 $651 $659 reversed $413 $-1 #
loop $-1 $-1 $411 $635 #
vertex $-1 $261 $660 #
vertex $-1 $261 $661 #
straight-curve $-1 4.7877559921169279 0 10.541847465722643 0 1 0 I I #
face $-1 $662 $663 $60 $-1 $664 reversed single #
loop $-1 $-1 $665 $262 #
plane-surface $-1 -6.4195397722598937 0 0 1 0 0 0 0 -1 forward_v I I I I #
coedge $-1 $666 $428 $667 $668 forward $263 $-1 #
coedge $-1 $669 $265 $666 $670 forward $165 $-1 #
coedge $-1 $265 $669 $671 $672 forward $165 $-1 #
coedge $-1 $431 $430 $265 $424 reversed $432 $-1 #
edge $-1 $673 -215.69017609179969 $674 215.69017609179969 $423 $675 forward 7 unknown #
coedge $-1 $267 $266 $676 $677 forward $105 $-1 #
coedge $-1 $678 $679 $266 $427 reversed $663 $-1 #
edge $-1 $434 -6.4195397722598937 $680 6.4195397722598937 $426 $681 forward 7 unknown #
coedge $-1 $420 $682 $267 $429 reversed $263 $-1 #
edge $-1 $683 -6.4195397722598937 $433 6.4195397722598937 $428 $684 forward 7 unknown #
coedge $-1 $423 $268 $682 $685 forward $432 $-1 #
coedge $-1 $268 $423 $678 $686 reversed $432 $-1 #
loop $-1 $-1 $430 $662 #
vertex $-1 $269 $687 #
vertex $-1 $269 $688 #
straight-curve $-1 6.4195397722598937 0 107.84508804589984 0 1 0 I I #
loop $-1 $-1 $689 $168 #
coedge $-1 $437 $437 $273 $438 reversed $270 $-1 #
edge $-1 $690 0 $690 6.2831853071796004 $437 $691 forward 7 unknown #
vertex $-1 $274 $692 #
ellipse-curve $-1 0 0 -8.6430707724234743 0 0 -1 3 0 0 1 I I #
face $-1 $693 $694 $62 $-1 $695 reversed single #
loop $-1 $-1 $696 $275 #
plane-surface $-1 -6.4195397722598937 0 0 1 0 0 0 0 -1 forward_v I I I I #
coedge $-1 $697 $452 $698 $699 forward $276 $-1 #
coedge $-1 $700 $278 $697 $701 forward $174 $-1 #
coedge $-1 $278 $700 $702 $703 forward $174 $-1 #
coedge $-1 $455 $454 $278 $448 reversed $456 $-1 #
edge $-1 $704 -215.69017609179969 $705 215.69017609179969 $447 $706 forward 7 unknown #
coedge $-1 $280 $279 $707 $708 forward $111 $-1 #
coedge $-1 $709 $710 $279 $451 reversed $694 $-1 #
edge $-1 $458 -6.4195397722598937 $711 6.4195397722598937 $450 $712 forward 7 unknown #
coedge $-1 $444 $713 $280 $453 reversed $276 $-1 #
edge $-1 $714 -6.4195397722598937 $457 6.4195397722598937 $452 $715 forward 7 unknown #
coedge $-1 $447 $281 $713 $716 forward $456 $-1 #
coedge $-1 $281 $447 $709 $717 reversed $456 $-1 #
loop $-1 $-1 $454 $693 #
vertex $-1 $282 $718 #
vertex $-1 $282 $719 #
straight-curve $-1 6.4195397722598937 0 107.84508804589984 0 1 0 I I #
loop $-1 $-1 $720 $177 #
coedge $-1 $461 $461 $286 $462 reversed $283 $-1 #
edge $-1 $721 0 $721 6.2831853071796004 $461 $722 forward 7 unknown #
vertex $-1 $287 $723 #
ellipse-curve $-1 0 0 -8.6430707724234743 0 0 -1 3 0 0 1 I I #
face $-1 $724 $725 $64 $-1 $726 reversed single #
loop $-1 $-1 $727 $288 #
plane-surface $-1 -6.4195397722598937 0 0 1 0 0 0 0 -1 forward_v I I I I #
coedge $-1 $728 $476 $729 $730 forward $289 $-1 #
coedge $-1 $731 $291 $728 $732 forward $183 $-1 #
coedge $-1 $291 $731 $733 $734 forward $183 $-1 #
coedge $-1 $479 $478 $291 $472 reversed $480 $-1 #
edge $-1 $735 -215.69017609179969 $736 215.69017609179969 $471 $737 forward 7 unknown #
coedge $-1 $293 $292 $738 $739 forward $117 $-1 #
coedge $-1 $740 $741 $292 $475 reversed $725 $-1 #
edge $-1 $482 -6.4195397722598937 $742 6.4195397722598937 $474 $743 forward 7 unknown #
coedge $-1 $468 $744 $293 $477 reversed $289 $-1 #
edge $-1 $745 -6.4195397722598937 $481 6.4195397722598937 $476 $746 forward 7 unknown #
coedge $-1 $471 $294 $744 $747 forward $480 $-1 #
coedge $-1 $294 $471 $740 $748 reversed $480 $-1 #
loop $-1 $-1 $478 $724 #
vertex $-1 $295 $749 #
vertex $-1 $295 $750 #
straight-curve $-1 6.4195397722598937 0 107.84508804589984 0 1 0 I I #
loop $-1 $-1 $751 $186 #
coedge $-1 $485 $485 $299 $486 reversed $296 $-1 #
edge $-1 $752 0 $752 6.2831853071796004 $485 $753 forward 7 unknown #
vertex $-1 $300 $754 #
ellipse-curve $-1 0 0 -8.6430707724234743 0 0 -1 3 0 0 1 I I #
face $-1 $755 $756 $66 $-1 $757 reversed single #
loop $-1 $-1 $758 $301 #
plane-surface $-1 -6.4195397722598937 0 0 1 0 0 0 0 -1 forward_v I I I I #
coedge $-1 $759 $500 $760 $761 forward $302 $-1 #
coedge $-1 $762 $304 $759 $763 forward $192 $-1 #
coedge $-1 $304 $762 $764 $765 forward $192 $-1 #
coedge $-1 $503 $502 $304 $496 reversed $504 $-1 #
edge $-1 $766 -215.69017609179969 $767 215.69017609179969 $495 $768 forward 7 unknown #
coedge $-1 $306 $305 $769 $770 forward $123 $-1 #
coedge $-1 $771 $772 $305 $499 reversed $756 $-1 #
edge $-1 $506 -6.4195397722598937 $773 6.4195397722598937 $498 $774 forward 7 unknown #
coedge $-1 $492 $775 $306 $501 reversed $302 $-1 #
edge $-1 $776 -6.4195397722598937 $505 6.4195397722598937 $500 $777 forward 7 unknown #
coedge $-1 $495 $307 $775 $778 forward $504 $-1 #
coedge $-1 $307 $495 $771 $779 reversed $504 $-1 #
loop $-1 $-1 $502 $755 #
vertex $-1 $308 $780 #
vertex $-1 $308 $781 #
straight-curve $-1 6.4195397722598937 0 107.84508804589984 0 1 0 I I #
loop $-1 $-1 $782 $195 #
coedge $-1 $509 $509 $312 $510 reversed $309 $-1 #
edge $-1 $783 0 $783 6.2831853071796004 $509 $784 forward 7 unknown #
vertex $-1 $313 $785 #
ellipse-curve $-1 0 0 -8.6430707724234743 0 0 -1 3 0 0 1 I I #
face $-1 $786 $787 $68 $-1 $788 reversed single #
loop $-1 $-1 $789 $314 #
plane-surface $-1 -9.234284481342808 0 0 1 0 0 0 0 -1 forward_v I I I I #
coedge $-1 $790 $524 $791 $792 forward $315 $-1 #
coedge $-1 $793 $317 $790 $794 forward $201 $-1 #
coedge $-1 $317 $793 $795 $796 forward $201 $-1 #
coedge $-1 $527 $526 $317 $520 reversed $528 $-1 #
edge $-1 $797 -215.69017609179969 $798 215.69017609179969 $519 $799 forward 7 unknown #
coedge $-1 $319 $318 $800 $801 forward $129 $-1 #
coedge $-1 $802 $803 $318 $523 reversed $787 $-1 #
edge $-1 $530 -9.234284481342808 $804 9.234284481342808 $522 $805 forward 7 unknown #
coedge $-1 $516 $806 $319 $525 reversed $315 $-1 #
edge $-1 $807 -9.234284481342808 $529 9.234284481342808 $524 $808 forward 7 unknown #
coedge $-1 $519 $320 $806 $809 forward $528 $-1 #
coedge $-1 $320 $519 $802 $810 reversed $528 $-1 #
loop $-1 $-1 $526 $786 #
vertex $-1 $321 $811 #
vertex $-1 $321 $812 #
straight-curve $-1 9.234284481342808 0 107.84508804589984 0 1 0 I I #
loop $-1 $-1 $813 $204 #
coedge $-1 $533 $533 $325 $534 reversed $322 $-1 #
edge $-1 $814 0 $814 6.2831853071796004 $533 $815 forward 7 unknown #
vertex $-1 $326 $816 #
ellipse-curve $-1 0 0 -2.3702352977080601 0 0 -1 1 0 0 1 I I #
loop $-1 $-1 $817 $209 #
coedge $-1 $538 $538 $330 $539 reversed $327 $-1 #
edge $-1 $818 0 $818 6.2831853071796004 $538 $819 forward 7 unknown #
vertex $-1 $331 $820 #
ellipse-curve $-1 0 0 -2.3702352977080601 0 0 -1 1 0 0 1 I I #
loop $-1 $-1 $821 $214 #
coedge $-1 $543 $543 $335 $544 reversed $332 $-1 #
edge $-1 $822 0 $822 6.2831853071796004 $543 $823 forward 7 unknown #
vertex $-1 $336 $824 #
ellipse-curve $-1 0 0 -2.3702352977080601 0 0 -1 1 0 0 1 I I #
face $-1 $825 $826 $72 $-1 $827 reversed single #
loop $-1 $-1 $828 $337 #
plane-surface $-1 -9.234284481342808 0 0 1 0 0 0 0 -1 forward_v I I I I #
coedge $-1 $829 $558 $830 $831 forward $338 $-1 #
coedge $-1 $832 $340 $829 $833 forward $220 $-1 #
coedge $-1 $340 $832 $834 $835 forward $220 $-1 #
coedge $-1 $561 $560 $340 $554 reversed $562 $-1 #
edge $-1 $836 -215.69017609179969 $837 215.69017609179969 $553 $838 forward 7 unknown #
coedge $-1 $342 $341 $839 $840 forward $141 $-1 #
coedge $-1 $841 $842 $341 $557 reversed $826 $-1 #
edge $-1 $564 -9.234284481342808 $843 9.234284481342808 $556 $844 forward 7 unknown #
coedge $-1 $550 $845 $342 $559 reversed $338 $-1 #
edge $-1 $846 -9.234284481342808 $563 9.234284481342808 $558 $847 forward 7 unknown #
coedge $-1 $553 $343 $845 $848 forward $562 $-1 #
coedge $-1 $343 $553 $841 $849 reversed $562 $-1 #
loop $-1 $-1 $560 $825 #
vertex $-1 $344 $850 #
vertex $-1 $344 $851 #
straight-curve $-1 9.234284481342808 0 107.84508804589984 0 1 0 I I #
loop $-1 $-1 $852 $223 #
coedge $-1 $567 $567 $348 $568 reversed $345 $-1 #
edge $-1 $853 0 $853 6.2831853071796004 $567 $854 forward 7 unknown #
vertex $-1 $349 $855 #
ellipse-curve $-1 0 0 -2.3702352977080601 0 0 -1 1 0 0 1 I I #
loop $-1 $-1 $856 $228 #
coedge $-1 $572 $572 $353 $573 reversed $350 $-1 #
edge $-1 $857 0 $857 6.2831853071796004 $572 $858 forward 7 unknown #
vertex $-1 $354 $859 #
ellipse-curve $-1 0 0 -2.3702352977080601 0 0 -1 1 0 0 1 I I #
loop $-1 $-1 $860 $233 #
coedge $-1 $577 $577 $358 $578 reversed $355 $-1 #
edge $-1 $861 0 $861 6.2831853071796004 $577 $862 forward 7 unknown #
vertex $-1 $359 $863 #
ellipse-curve $-1 0 0 -2.3702352977080601 0 0 -1 1 0 0 1 I I #
face $-1 $-1 $375 $57 $-1 $864 reversed single #
loop $-1 $-1 $597 $360 #
plane-surface $-1 0 36.91539305661243 0 0 -1 0 0 0 -1 forward_v I I I I #
coedge $-1 $865 $595 $598 $866 forward $361 $-1 #
coedge $-1 $601 $363 $364 $589 reversed $239 $-1 #
coedge $-1 $595 $865 $363 $587 reversed $361 $-1 #
edge $-1 $602 -10.541847465722643 $867 10.541847465722643 $586 $868 forward 7 unknown #
coedge $-1 $365 $364 $865 $869 forward $153 $-1 #
edge $-1 $593 -53.922544022949921 $867 53.922544022949921 $585 $870 forward 7 unknown #
coedge $-1 $598 $597 $365 $591 reversed $582 $-1 #
edge $-1 $871 -53.922544022949921 $592 53.922544022949921 $590 $872 forward 7 unknown #
vertex $-1 $367 $873 #
vertex $-1 $604 $874 #
straight-curve $-1 53.922544022949921 0 -10.541847465722643 0 -1 0 I I #
coedge $-1 $584 $586 $368 $596 reversed $361 $-1 #
edge $-1 $599 -36.91539305661243 $602 36.91539305661243 $595 $875 forward 7 unknown #
coedge $-1 $590 $369 $374 $605 forward $582 $-1 #
coedge $-1 $369 $590 $584 $866 reversed $582 $-1 #
vertex $-1 $370 $876 #
straight-curve $-1 0 36.91539305661243 10.541847465722643 -1 0 0 I I #
coedge $-1 $371 $585 $373 $604 reversed $239 $-1 #
vertex $-1 $596 $877 #
straight-curve $-1 0 -36.91539305661243 10.541847465722643 1 0 0 I I #
edge $-1 $376 -10.541847465722643 $593 10.541847465722643 $373 $878 forward 7 unknown #
edge $-1 $377 -10.541847465722643 $592 10.541847465722643 $374 $879 forward 7 unknown #
point $-1 53.922544022949921 -36.91539305661243 10.541847465722643 #
point $-1 53.922544022949921 36.91539305661243 10.541847465722643 #
face $-1 $-1 $394 $58 $-1 $880 reversed single #
loop $-1 $-1 $624 $379 #
plane-surface $-1 0 1.5 0 0 -1 0 0 0 -1 forward_v I I I I #
coedge $-1 $881 $622 $625 $882 forward $380 $-1 #
coedge $-1 $628 $382 $383 $616 reversed $247 $-1 #
coedge $-1 $622 $881 $382 $614 reversed $380 $-1 #
edge $-1 $629 -10.541847465722643 $883 10.541847465722643 $613 $884 forward 7 unknown #
coedge $-1 $384 $383 $881 $885 forward $157 $-1 #
edge $-1 $620 -4.787755992116927 $883 4.787755992116927 $612 $886 forward 7 unknown #
coedge $-1 $625 $624 $384 $618 reversed $609 $-1 #
edge $-1 $887 -4.787755992116927 $619 4.787755992116927 $617 $888 forward 7 unknown #
vertex $-1 $386 $889 #
vertex $-1 $631 $890 #
straight-curve $-1 4.787755992116927 0 -10.541847465722643 0 -1 0 I I #
coedge $-1 $611 $613 $387 $623 reversed $380 $-1 #
edge $-1 $626 -1.5 $629 1.5 $622 $891 forward 7 unknown #
coedge $-1 $617 $388 $393 $632 forward $609 $-1 #
coedge $-1 $388 $617 $611 $882 reversed $609 $-1 #
vertex $-1 $389 $892 #
straight-curve $-1 0 1.5 10.541847465722643 -1 0 0 I I #
coedge $-1 $390 $612 $392 $631 reversed $247 $-1 #
vertex $-1 $623 $893 #
straight-curve $-1 0 -1.5 10.541847465722643 1 0 0 I I #
edge $-1 $395 -10.541847465722643 $620 10.541847465722643 $392 $894 forward 7 unknown #
edge $-1 $396 -10.541847465722643 $619 10.541847465722643 $393 $895 forward 7 unknown #
point $-1 4.787755992116927 -1.5 10.541847465722643 #
point $-1 4.787755992116927 1.5 10.541847465722643 #
face $-1 $-1 $413 $59 $-1 $896 reversed single #
loop $-1 $-1 $651 $398 #
plane-surface $-1 0 1.5 0 0 -1 0 0 0 -1 forward_v I I I I #
coedge $-1 $897 $649 $652 $898 forward $399 $-1 #
coedge $-1 $655 $401 $402 $643 reversed $255 $-1 #
coedge $-1 $649 $897 $401 $641 reversed $399 $-1 #
edge $-1 $656 -10.541847465722643 $899 10.541847465722643 $640 $900 forward 7 unknown #
coedge $-1 $403 $402 $897 $901 forward $161 $-1 #
edge $-1 $647 -4.7877559921169279 $899 4.7877559921169279 $639 $902 forward 7 unknown #
coedge $-1 $652 $651 $403 $645 reversed $636 $-1 #
edge $-1 $903 -4.7877559921169279 $646 4.7877559921169279 $644 $904 forward 7 unknown #
vertex $-1 $405 $905 #
vertex $-1 $658 $906 #
straight-curve $-1 4.7877559921169279 0 -10.541847465722643 0 -1 0 I I #
coedge $-1 $638 $640 $406 $650 reversed $399 $-1 #
edge $-1 $653 -1.5 $656 1.5 $649 $907 forward 7 unknown #
coedge $-1 $644 $407 $412 $659 forward $636 $-1 #
coedge $-1 $407 $644 $638 $898 reversed $636 $-1 #
vertex $-1 $408 $908 #
straight-curve $-1 0 1.5 10.541847465722643 -1 0 0 I I #
coedge $-1 $409 $639 $411 $658 reversed $255 $-1 #
vertex $-1 $650 $909 #
straight-curve $-1 0 -1.5 10.541847465722643 1 0 0 I I #
edge $-1 $414 -10.541847465722643 $647 10.541847465722643 $411 $910 forward 7 unknown #
edge $-1 $415 -10.541847465722643 $646 10.541847465722643 $412 $911 forward 7 unknown #
point $-1 4.7877559921169279 -1.5 10.541847465722643 #
point $-1 4.7877559921169279 1.5 10.541847465722643 #
face $-1 $-1 $432 $60 $-1 $912 reversed single #
loop $-1 $-1 $678 $417 #
plane-surface $-1 0 215.69017609179969 0 0 -1 0 0 0 -1 forward_v I I I I #
coedge $-1 $913 $676 $679 $914 forward $418 $-1 #
coedge $-1 $682 $420 $421 $670 reversed $263 $-1 #
coedge $-1 $676 $913 $420 $668 reversed $418 $-1 #
edge $-1 $683 -107.84508804589984 $915 107.84508804589984 $667 $916 forward 7 unknown #
coedge $-1 $422 $421 $913 $917 forward $165 $-1 #
edge $-1 $674 -6.4195397722598937 $915 6.4195397722598937 $666 $918 forward 7 unknown #
coedge $-1 $679 $678 $422 $672 reversed $663 $-1 #
edge $-1 $919 -6.4195397722598937 $673 6.4195397722598937 $671 $920 forward 7 unknown #
vertex $-1 $424 $921 #
vertex $-1 $685 $922 #
straight-curve $-1 6.4195397722598937 0 -107.84508804589984 0 -1 0 I I #
coedge $-1 $665 $667 $425 $677 reversed $418 $-1 #
edge $-1 $680 -215.69017609179969 $683 215.69017609179969 $676 $923 forward 7 unknown #
coedge $-1 $671 $426 $431 $686 forward $663 $-1 #
coedge $-1 $426 $671 $665 $914 reversed $663 $-1 #
vertex $-1 $427 $924 #
straight-curve $-1 0 215.69017609179969 107.84508804589984 -1 0 0 I I #
coedge $-1 $428 $666 $430 $685 reversed $263 $-1 #
vertex $-1 $677 $925 #
straight-curve $-1 0 -215.69017609179969 107.84508804589984 1 0 0 I I #
edge $-1 $433 -107.84508804589984 $674 107.84508804589984 $430 $926 forward 7 unknown #
edge $-1 $434 -107.84508804589984 $673 107.84508804589984 $431 $927 forward 7 unknown #
point $-1 6.4195397722598937 -215.69017609179969 107.84508804589984 #
point $-1 6.4195397722598937 215.69017609179969 107.84508804589984 #
coedge $-1 $689 $689 $-1 $928 reversed $436 $-1 #
vertex $-1 $438 $929 #
ellipse-curve $-1 0 0 -1.5 0 0 -1 3 0 0 1 I I #
point $-1 3 0 -8.6430707724234743 #
face $-1 $-1 $456 $62 $-1 $930 reversed single #
loop $-1 $-1 $709 $441 #
plane-surface $-1 0 215.69017609179969 0 0 -1 0 0 0 -1 forward_v I I I I #
coedge $-1 $931 $707 $710 $932 forward $442 $-1 #
coedge $-1 $713 $444 $445 $701 reversed $276 $-1 #
coedge $-1 $707 $931 $444 $699 reversed $442 $-1 #
edge $-1 $714 -107.84508804589984 $933 107.84508804589984 $698 $934 forward 7 unknown #
coedge $-1 $446 $445 $931 $935 forward $174 $-1 #
edge $-1 $705 -6.4195397722598937 $933 6.4195397722598937 $697 $936 forward 7 unknown #
coedge $-1 $710 $709 $446 $703 reversed $694 $-1 #
edge $-1 $937 -6.4195397722598937 $704 6.4195397722598937 $702 $938 forward 7 unknown #
vertex $-1 $448 $939 #
vertex $-1 $716 $940 #
straight-curve $-1 6.4195397722598937 0 -107.84508804589984 0 -1 0 I I #
coedge $-1 $696 $698 $449 $708 reversed $442 $-1 #
edge $-1 $711 -215.69017609179969 $714 215.69017609179969 $707 $941 forward 7 unknown #
coedge $-1 $702 $450 $455 $717 forward $694 $-1 #
coedge $-1 $450 $702 $696 $932 reversed $694 $-1 #
vertex $-1 $451 $942 #
straight-curve $-1 0 215.69017609179969 107.84508804589984 -1 0 0 I I #
coedge $-1 $452 $697 $454 $716 reversed $276 $-1 #
vertex $-1 $708 $943 #
straight-curve $-1 0 -215.69017609179969 107.84508804589984 1 0 0 I I #
edge $-1 $457 -107.84508804589984 $705 107.84508804589984 $454 $944 forward 7 unknown #
edge $-1 $458 -107.84508804589984 $704 107.84508804589984 $455 $945 forward 7 unknown #
point $-1 6.4195397722598937 -215.69017609179969 107.84508804589984 #
point $-1 6.4195397722598937 215.69017609179969 107.84508804589984 #
coedge $-1 $720 $720 $-1 $946 reversed $460 $-1 #
vertex $-1 $462 $947 #
ellipse-curve $-1 0 0 -1.5 0 0 -1 3 0 0 1 I I #
point $-1 3 0 -8.6430707724234743 #
face $-1 $-1 $480 $64 $-1 $948 reversed single #
loop $-1 $-1 $740 $465 #
plane-surface $-1 0 215.69017609179969 0 0 -1 0 0 0 -1 forward_v I I I I #
coedge $-1 $949 $738 $741 $950 forward $466 $-1 #
coedge $-1 $744 $468 $469 $732 reversed $289 $-1 #
coedge $-1 $738 $949 $468 $730 reversed $466 $-1 #
edge $-1 $745 -107.84508804589984 $951 107.84508804589984 $729 $952 forward 7 unknown #
coedge $-1 $470 $469 $949 $953 forward $183 $-1 #
edge $-1 $736 -6.4195397722598937 $951 6.4195397722598937 $728 $954 forward 7 unknown #
coedge $-1 $741 $740 $470 $734 reversed $725 $-1 #
edge $-1 $955 -6.4195397722598937 $735 6.4195397722598937 $733 $956 forward 7 unknown #
vertex $-1 $472 $957 #
vertex $-1 $747 $958 #
straight-curve $-1 6.4195397722598937 0 -107.84508804589984 0 -1 0 I I #
coedge $-1 $727 $729 $473 $739 reversed $466 $-1 #
edge $-1 $742 -215.69017609179969 $745 215.69017609179969 $738 $959 forward 7 unknown #
coedge $-1 $733 $474 $479 $748 forward $725 $-1 #
coedge $-1 $474 $733 $727 $950 reversed $725 $-1 #
vertex $-1 $475 $960 #
straight-curve $-1 0 215.69017609179969 107.84508804589984 -1 0 0 I I #
coedge $-1 $476 $728 $478 $747 reversed $289 $-1 #
vertex $-1 $739 $961 #
straight-curve $-1 0 -215.69017609179969 107.84508804589984 1 0 0 I I #
edge $-1 $481 -107.84508804589984 $736 107.84508804589984 $478 $962 forward 7 unknown #
edge $-1 $482 -107.84508804589984 $735 107.84508804589984 $479 $963 forward 7 unknown #
point $-1 6.4195397722598937 -215.69017609179969 107.84508804589984 #
point $-1 6.4195397722598937 215.69017609179969 107.84508804589984 #
coedge $-1 $751 $751 $-1 $964 reversed $484 $-1 #
vertex $-1 $486 $965 #
ellipse-curve $-1 0 0 -1.5 0 0 -1 3 0 0 1 I I #
point $-1 3 0 -8.6430707724234743 #
face $-1 $-1 $504 $66 $-1 $966 reversed single #
loop $-1 $-1 $771 $489 #
plane-surface $-1 0 215.69017609179969 0 0 -1 0 0 0 -1 forward_v I I I I #
coedge $-1 $967 $769 $772 $968 forward $490 $-1 #
coedge $-1 $775 $492 $493 $763 reversed $302 $-1 #
coedge $-1 $769 $967 $492 $761 reversed $490 $-1 #
edge $-1 $776 -107.84508804589984 $969 107.84508804589984 $760 $970 forward 7 unknown #
coedge $-1 $494 $493 $967 $971 forward $192 $-1 #
edge $-1 $767 -6.4195397722598937 $969 6.4195397722598937 $759 $972 forward 7 unknown #
coedge $-1 $772 $771 $494 $765 reversed $756 $-1 #
edge $-1 $973 -6.4195397722598937 $766 6.4195397722598937 $764 $974 forward 7 unknown #
vertex $-1 $496 $975 #
vertex $-1 $778 $976 #
straight-curve $-1 6.4195397722598937 0 -107.84508804589984 0 -1 0 I I #
coedge $-1 $758 $760 $497 $770 reversed $490 $-1 #
edge $-1 $773 -215.69017609179969 $776 215.69017609179969 $769 $977 forward 7 unknown #
coedge $-1 $764 $498 $503 $779 forward $756 $-1 #
coedge $-1 $498 $764 $758 $968 reversed $756 $-1 #
vertex $-1 $499 $978 #
straight-curve $-1 0 215.69017609179969 107.84508804589984 -1 0 0 I I #
coedge $-1 $500 $759 $502 $778 reversed $302 $-1 #
vertex $-1 $770 $979 #
straight-curve $-1 0 -215.69017609179969 107.84508804589984 1 0 0 I I #
edge $-1 $505 -107.84508804589984 $767 107.84508804589984 $502 $980 forward 7 unknown #
edge $-1 $506 -107.84508804589984 $766 107.84508804589984 $503 $981 forward 7 unknown #
point $-1 6.4195397722598937 -215.69017609179969 107.84508804589984 #
point $-1 6.4195397722598937 215.69017609179969 107.84508804589984 #
coedge $-1 $782 $782 $-1 $982 reversed $508 $-1 #
vertex $-1 $510 $983 #
ellipse-curve $-1 0 0 -1.5 0 0 -1 3 0 0 1 I I #
point $-1 3 0 -8.6430707724234743 #
face $-1 $-1 $528 $68 $-1 $984 reversed single #
loop $-1 $-1 $802 $513 #
plane-surface $-1 0 215.69017609179969 0 0 -1 0 0 0 -1 forward_v I I I I #
coedge $-1 $985 $800 $803 $986 forward $514 $-1 #
coedge $-1 $806 $516 $517 $794 reversed $315 $-1 #
coedge $-1 $800 $985 $516 $792 reversed $514 $-1 #
edge $-1 $807 -107.84508804589984 $987 107.84508804589984 $791 $988 forward 7 unknown #
coedge $-1 $518 $517 $985 $989 forward $201 $-1 #
edge $-1 $798 -9.234284481342808 $987 9.234284481342808 $790 $990 forward 7 unknown #
coedge $-1 $803 $802 $518 $796 reversed $787 $-1 #
edge $-1 $991 -9.234284481342808 $797 9.234284481342808 $795 $992 forward 7 unknown #
vertex $-1 $520 $993 #
vertex $-1 $809 $994 #
straight-curve $-1 9.234284481342808 0 -107.84508804589984 0 -1 0 I I #
coedge $-1 $789 $791 $521 $801 reversed $514 $-1 #
edge $-1 $804 -215.69017609179969 $807 215.69017609179969 $800 $995 forward 7 unknown #
coedge $-1 $795 $522 $527 $810 forward $787 $-1 #
coedge $-1 $522 $795 $789 $986 reversed $787 $-1 #
vertex $-1 $523 $996 #
straight-curve $-1 0 215.69017609179969 107.84508804589984 -1 0 0 I I #
coedge $-1 $524 $790 $526 $809 reversed $315 $-1 #
vertex $-1 $801 $997 #
straight-curve $-1 0 -215.69017609179969 107.84508804589984 1 0 0 I I #
edge $-1 $529 -107.84508804589984 $798 107.84508804589984 $526 $998 forward 7 unknown #
edge $-1 $530 -107.84508804589984 $797 107.84508804589984 $527 $999 forward 7 unknown #
point $-1 9.234284481342808 -215.69017609179969 107.84508804589984 #
point $-1 9.234284481342808 215.69017609179969 107.84508804589984 #
coedge $-1 $813 $813 $-1 $1000 reversed $532 $-1 #
vertex $-1 $534 $1001 #
ellipse-curve $-1 0 0 -0.5 0 0 -1 1 0 0 1 I I #
point $-1 1 0 -2.3702352977080601 #
coedge $-1 $817 $817 $-1 $1002 reversed $537 $-1 #
vertex $-1 $539 $1003 #
ellipse-curve $-1 0 0 -0.5 0 0 -1 1 0 0 1 I I #
point $-1 1 0 -2.3702352977080601 #
coedge $-1 $821 $821 $-1 $1004 reversed $542 $-1 #
vertex $-1 $544 $1005 #
ellipse-curve $-1 0 0 -0.5 0 0 -1 1 0 0 1 I I #
point $-1 1 0 -2.3702352977080601 #
face $-1 $-1 $562 $72 $-1 $1006 reversed single #
loop $-1 $-1 $841 $547 #
plane-surface $-1 0 215.69017609179969 0 0 -1 0 0 0 -1 forward_v I I I I #
coedge $-1 $1007 $839 $842 $1008 forward $548 $-1 #
coedge $-1 $845 $550 $551 $833 reversed $338 $-1 #
coedge $-1 $839 $1007 $550 $831 reversed $548 $-1 #
edge $-1 $846 -107.84508804589984 $1009 107.84508804589984 $830 $1010 forward 7 unknown #
coedge $-1 $552 $551 $1007 $1011 forward $220 $-1 #
edge $-1 $837 -9.234284481342808 $1009 9.234284481342808 $829 $1012 forward 7 unknown #
coedge $-1 $842 $841 $552 $835 reversed $826 $-1 #
edge $-1 $1013 -9.234284481342808 $836 9.234284481342808 $834 $1014 forward 7 unknown #
vertex $-1 $554 $1015 #
vertex $-1 $848 $1016 #
straight-curve $-1 9.234284481342808 0 -107.84508804589984 0 -1 0 I I #
coedge $-1 $828 $830 $555 $840 reversed $548 $-1 #
edge $-1 $843 -215.69017609179969 $846 215.69017609179969 $839 $1017 forward 7 unknown #
coedge $-1 $834 $556 $561 $849 forward $826 $-1 #
coedge $-1 $556 $834 $828 $1008 reversed $826 $-1 #
vertex $-1 $557 $1018 #
straight-curve $-1 0 215.69017609179969 107.84508804589984 -1 0 0 I I #
coedge $-1 $558 $829 $560 $848 reversed $338 $-1 #
vertex $-1 $840 $1019 #
straight-curve $-1 0 -215.69017609179969 107.84508804589984 1 0 0 I I #
edge $-1 $563 -107.84508804589984 $837 107.84508804589984 $560 $1020 forward 7 unknown #
edge $-1 $564 -107.84508804589984 $836 107.84508804589984 $561 $1021 forward 7 unknown #
point $-1 9.234284481342808 -215.69017609179969 107.84508804589984 #
point $-1 9.234284481342808 215.69017609179969 107.84508804589984 #
coedge $-1 $852 $852 $-1 $1022 reversed $566 $-1 #
vertex $-1 $568 $1023 #
ellipse-curve $-1 0 0 -0.5 0 0 -1 1 0 0 1 I I #
point $-1 1 0 -2.3702352977080601 #
coedge $-1 $856 $856 $-1 $1024 reversed $571 $-1 #
vertex $-1 $573 $1025 #
ellipse-curve $-1 0 0 -0.5 0 0 -1 1 0 0 1 I I #
point $-1 1 0 -2.3702352977080601 #
coedge $-1 $860 $860 $-1 $1026 reversed $576 $-1 #
vertex $-1 $578 $1027 #
ellipse-curve $-1 0 0 -0.5 0 0 -1 1 0 0 1 I I #
point $-1 1 0 -2.3702352977080601 #
plane-surface $-1 53.922544022949921 0 0 -1 0 0 0 0 1 forward_v I I I I #
coedge $-1 $586 $584 $588 $869 reversed $361 $-1 #
edge $-1 $599 -10.541847465722643 $871 10.541847465722643 $598 $1028 forward 7 unknown #
vertex $-1 $869 $1029 #
straight-curve $-1 -53.922544022949921 -36.91539305661243 0 0 0 -1 I I #
edge $-1 $867 -36.91539305661243 $871 36.91539305661243 $865 $1030 forward 7 unknown #
straight-curve $-1 0 -36.91539305661243 -10.541847465722643 -1 0 0 I I #
vertex $-1 $591 $1031 #
straight-curve $-1 0 36.91539305661243 -10.541847465722643 1 0 0 I I #
point $-1 53.922544022949921 36.91539305661243 -10.541847465722643 #
point $-1 53.922544022949921 -36.91539305661243 -10.541847465722643 #
straight-curve $-1 -53.922544022949921 0 10.541847465722643 0 -1 0 I I #
point $-1 -53.922544022949921 36.91539305661243 10.541847465722643 #
point $-1 -53.922544022949921 -36.91539305661243 10.541847465722643 #
straight-curve $-1 53.922544022949921 -36.91539305661243 0 0 0 -1 I I #
straight-curve $-1 53.922544022949921 36.91539305661243 0 0 0 -1 I I #
plane-surface $-1 4.787755992116927 0 0 -1 0 0 0 0 1 forward_v I I I I #
coedge $-1 $613 $611 $615 $885 reversed $380 $-1 #
edge $-1 $626 -10.541847465722643 $887 10.541847465722643 $625 $1032 forward 7 unknown #
vertex $-1 $885 $1033 #
straight-curve $-1 -4.787755992116927 -1.5 0 0 0 -1 I I #
edge $-1 $883 -1.5 $887 1.5 $881 $1034 forward 7 unknown #
straight-curve $-1 0 -1.5 -10.541847465722643 -1 0 0 I I #
vertex $-1 $618 $1035 #
straight-curve $-1 0 1.5 -10.541847465722643 1 0 0 I I #
point $-1 4.787755992116927 1.5 -10.541847465722643 #
point $-1 4.787755992116927 -1.5 -10.541847465722643 #
straight-curve $-1 -4.787755992116927 0 10.541847465722643 0 -1 0 I I #
point $-1 -4.787755992116927 1.5 10.541847465722643 #
point $-1 -4.787755992116927 -1.5 10.541847465722643 #
straight-curve $-1 4.787755992116927 -1.5 0 0 0 -1 I I #
straight-curve $-1 4.787755992116927 1.5 0 0 0 -1 I I #
plane-surface $-1 4.7877559921169279 0 0 -1 0 0 0 0 1 forward_v I I I I #
coedge $-1 $640 $638 $642 $901 reversed $399 $-1 #
edge $-1 $653 -10.541847465722643 $903 10.541847465722643 $652 $1036 forward 7 unknown #
vertex $-1 $901 $1037 #
straight-curve $-1 -4.7877559921169279 -1.5 0 0 0 -1 I I #
edge $-1 $899 -1.5 $903 1.5 $897 $1038 forward 7 unknown #
straight-curve $-1 0 -1.5 -10.541847465722643 -1 0 0 I I #
vertex $-1 $645 $1039 #
straight-curve $-1 0 1.5 -10.541847465722643 1 0 0 I I #
point $-1 4.7877559921169279 1.5 -10.541847465722643 #
point $-1 4.7877559921169279 -1.5 -10.541847465722643 #
straight-curve $-1 -4.7877559921169279 0 10.541847465722643 0 -1 0 I I #
point $-1 -4.7877559921169279 1.5 10.541847465722643 #
point $-1 -4.7877559921169279 -1.5 10.541847465722643 #
straight-curve $-1 4.7877559921169279 -1.5 0 0 0 -1 I I #
straight-curve $-1 4.7877559921169279 1.5 0 0 0 -1 I I #
plane-surface $-1 6.4195397722598937 0 0 -1 0 0 0 0 1 forward_v I I I I #
coedge $-1 $667 $665 $669 $917 reversed $418 $-1 #
edge $-1 $680 -107.84508804589984 $919 107.84508804589984 $679 $1040 forward 7 unknown #
vertex $-1 $917 $1041 #
straight-curve $-1 -6.4195397722598937 -215.69017609179969 0 0 0 -1 I I #
edge $-1 $915 -215.69017609179969 $919 215.69017609179969 $913 $1042 forward 7 unknown #
straight-curve $-1 0 -215.69017609179969 -107.84508804589984 -1 0 0 I I #
vertex $-1 $672 $1043 #
straight-curve $-1 0 215.69017609179969 -107.84508804589984 1 0 0 I I #
point $-1 6.4195397722598937 215.69017609179969 -107.84508804589984 #
point $-1 6.4195397722598937 -215.69017609179969 -107.84508804589984 #
straight-curve $-1 -6.4195397722598937 0 107.84508804589984 0 -1 0 I I #
point $-1 -6.4195397722598937 215.69017609179969 107.84508804589984 #
point $-1 -6.4195397722598937 -215.69017609179969 107.84508804589984 #
straight-curve $-1 6.4195397722598937 -215.69017609179969 0 0 0 -1 I I #
straight-curve $-1 6.4195397722598937 215.69017609179969 0 0 0 -1 I I #
edge $-1 $1044 1 $1044 0 $689 $-1 forward 7 unknown #
point $-1 3 0 -1.5 #
plane-surface $-1 6.4195397722598937 0 0 -1 0 0 0 0 1 forward_v I I I I #
coedge $-1 $698 $696 $700 $935 reversed $442 $-1 #
edge $-1 $711 -107.84508804589984 $937 107.84508804589984 $710 $1045 forward 7 unknown #
vertex $-1 $935 $1046 #
straight-curve $-1 -6.4195397722598937 -215.69017609179969 0 0 0 -1 I I #
edge $-1 $933 -215.69017609179969 $937 215.69017609179969 $931 $1047 forward 7 unknown #
straight-curve $-1 0 -215.69017609179969 -107.84508804589984 -1 0 0 I I #
vertex $-1 $703 $1048 #
straight-curve $-1 0 215.69017609179969 -107.84508804589984 1 0 0 I I #
point $-1 6.4195397722598937 215.69017609179969 -107.84508804589984 #
point $-1 6.4195397722598937 -215.69017609179969 -107.84508804589984 #
straight-curve $-1 -6.4195397722598937 0 107.84508804589984 0 -1 0 I I #
point $-1 -6.4195397722598937 215.69017609179969 107.84508804589984 #
point $-1 -6.4195397722598937 -215.69017609179969 107.84508804589984 #
straight-curve $-1 6.4195397722598937 -215.69017609179969 0 0 0 -1 I I #
straight-curve $-1 6.4195397722598937 215.69017609179969 0 0 0 -1 I I #
edge $-1 $1049 1 $1049 0 $720 $-1 forward 7 unknown #
point $-1 3 0 -1.5 #
plane-surface $-1 6.4195397722598937 0 0 -1 0 0 0 0 1 forward_v I I I I #
coedge $-1 $729 $727 $731 $953 reversed $466 $-1 #
edge $-1 $742 -107.84508804589984 $955 107.84508804589984 $741 $1050 forward 7 unknown #
vertex $-1 $953 $1051 #
straight-curve $-1 -6.4195397722598937 -215.69017609179969 0 0 0 -1 I I #
edge $-1 $951 -215.69017609179969 $955 215.69017609179969 $949 $1052 forward 7 unknown #
straight-curve $-1 0 -215.69017609179969 -107.84508804589984 -1 0 0 I I #
vertex $-1 $734 $1053 #
straight-curve $-1 0 215.69017609179969 -107.84508804589984 1 0 0 I I #
point $-1 6.4195397722598937 215.69017609179969 -107.84508804589984 #
point $-1 6.4195397722598937 -215.69017609179969 -107.84508804589984 #
straight-curve $-1 -6.4195397722598937 0 107.84508804589984 0 -1 0 I I #
point $-1 -6.4195397722598937 215.69017609179969 107.84508804589984 #
point $-1 -6.4195397722598937 -215.69017609179969 107.84508804589984 #
straight-curve $-1 6.4195397722598937 -215.69017609179969 0 0 0 -1 I I #
straight-curve $-1 6.4195397722598937 215.69017609179969 0 0 0 -1 I I #
edge $-1 $1054 1 $1054 0 $751 $-1 forward 7 unknown #
point $-1 3 0 -1.5 #
plane-surface $-1 6.4195397722598937 0 0 -1 0 0 0 0 1 forward_v I I I I #
coedge $-1 $760 $758 $762 $971 reversed $490 $-1 #
edge $-1 $773 -107.84508804589984 $973 107.84508804589984 $772 $1055 forward 7 unknown #
vertex $-1 $971 $1056 #
straight-curve $-1 -6.4195397722598937 -215.69017609179969 0 0 0 -1 I I #
edge $-1 $969 -215.69017609179969 $973 215.69017609179969 $967 $1057 forward 7 unknown #
straight-curve $-1 0 -215.69017609179969 -107.84508804589984 -1 0 0 I I #
vertex $-1 $765 $1058 #
straight-curve $-1 0 215.69017609179969 -107.84508804589984 1 0 0 I I #
point $-1 6.4195397722598937 215.69017609179969 -107.84508804589984 #
point $-1 6.4195397722598937 -215.69017609179969 -107.84508804589984 #
straight-curve $-1 -6.4195397722598937 0 107.84508804589984 0 -1 0 I I #
point $-1 -6.4195397722598937 215.69017609179969 107.84508804589984 #
point $-1 -6.4195397722598937 -215.69017609179969 107.84508804589984 #
straight-curve $-1 6.4195397722598937 -215.69017609179969 0 0 0 -1 I I #
straight-curve $-1 6.4195397722598937 215.69017609179969 0 0 0 -1 I I #
edge $-1 $1059 1 $1059 0 $782 $-1 forward 7 unknown #
point $-1 3 0 -1.5 #
plane-surface $-1 9.234284481342808 0 0 -1 0 0 0 0 1 forward_v I I I I #
coedge $-1 $791 $789 $793 $989 reversed $514 $-1 #
edge $-1 $804 -107.84508804589984 $991 107.84508804589984 $803 $1060 forward 7 unknown #
vertex $-1 $989 $1061 #
straight-curve $-1 -9.234284481342808 -215.69017609179969 0 0 0 -1 I I #
edge $-1 $987 -215.69017609179969 $991 215.69017609179969 $985 $1062 forward 7 unknown #
straight-curve $-1 0 -215.69017609179969 -107.84508804589984 -1 0 0 I I #
vertex $-1 $796 $1063 #
straight-curve $-1 0 215.69017609179969 -107.84508804589984 1 0 0 I I #
point $-1 9.234284481342808 215.69017609179969 -107.84508804589984 #
point $-1 9.234284481342808 -215.69017609179969 -107.84508804589984 #
straight-curve $-1 -9.234284481342808 0 107.84508804589984 0 -1 0 I I #
point $-1 -9.234284481342808 215.69017609179969 107.84508804589984 #
point $-1 -9.234284481342808 -215.69017609179969 107.84508804589984 #
straight-curve $-1 9.234284481342808 -215.69017609179969 0 0 0 -1 I I #
straight-curve $-1 9.234284481342808 215.69017609179969 0 0 0 -1 I I #
edge $-1 $1064 1 $1064 0 $813 $-1 forward 7 unknown #
point $-1 1 0 -0.5 #
edge $-1 $1065 1 $1065 0 $817 $-1 forward 7 unknown #
point $-1 1 0 -0.5 #
edge $-1 $1066 1 $1066 0 $821 $-1 forward 7 unknown #
point $-1 1 0 -0.5 #
plane-surface $-1 9.234284481342808 0 0 -1 0 0 0 0 1 forward_v I I I I #
coedge $-1 $830 $828 $832 $1011 reversed $548 $-1 #
edge $-1 $843 -107.84508804589984 $1013 107.84508804589984 $842 $1067 forward 7 unknown #
vertex $-1 $1011 $1068 #
straight-curve $-1 -9.234284481342808 -215.69017609179969 0 0 0 -1 I I #
edge $-1 $1009 -215.69017609179969 $1013 215.69017609179969 $1007 $1069 forward 7 unknown #
straight-curve $-1 0 -215.69017609179969 -107.84508804589984 -1 0 0 I I #
vertex $-1 $835 $1070 #
straight-curve $-1 0 215.69017609179969 -107.84508804589984 1 0 0 I I #
point $-1 9.234284481342808 215.69017609179969 -107.84508804589984 #
point $-1 9.234284481342808 -215.69017609179969 -107.84508804589984 #
straight-curve $-1 -9.234284481342808 0 107.84508804589984 0 -1 0 I I #
point $-1 -9.234284481342808 215.69017609179969 107.84508804589984 #
point $-1 -9.234284481342808 -215.69017609179969 107.84508804589984 #
straight-curve $-1 9.234284481342808 -215.69017609179969 0 0 0 -1 I I #
straight-curve $-1 9.234284481342808 215.69017609179969 0 0 0 -1 I I #
edge $-1 $1071 1 $1071 0 $852 $-1 forward 7 unknown #
point $-1 1 0 -0.5 #
edge $-1 $1072 1 $1072 0 $856 $-1 forward 7 unknown #
point $-1 1 0 -0.5 #
edge $-1 $1073 1 $1073 0 $860 $-1 forward 7 unknown #
point $-1 1 0 -0.5 #
straight-curve $-1 -53.922544022949921 36.91539305661243 0 0 0 -1 I I #
point $-1 -53.922544022949921 -36.91539305661243 -10.541847465722643 #
straight-curve $-1 -53.922544022949921 0 -10.541847465722643 0 1 0 I I #
point $-1 -53.922544022949921 36.91539305661243 -10.541847465722643 #
straight-curve $-1 -4.787755992116927 1.5 0 0 0 -1 I I #
point $-1 -4.787755992116927 -1.5 -10.541847465722643 #
straight-curve $-1 -4.787755992116927 0 -10.541847465722643 0 1 0 I I #
point $-1 -4.787755992116927 1.5 -10.541847465722643 #
straight-curve $-1 -4.7877559921169279 1.5 0 0 0 -1 I I #
point $-1 -4.7877559921169279 -1.5 -10.541847465722643 #
straight-curve $-1 -4.7877559921169279 0 -10.541847465722643 0 1 0 I I #
point $-1 -4.7877559921169279 1.5 -10.541847465722643 #
straight-curve $-1 -6.4195397722598937 215.69017609179969 0 0 0 -1 I I #
point $-1 -6.4195397722598937 -215.69017609179969 -107.84508804589984 #
straight-curve $-1 -6.4195397722598937 0 -107.84508804589984 0 1 0 I I #
point $-1 -6.4195397722598937 215.69017609179969 -107.84508804589984 #
vertex $-1 $928 $1074 #
straight-curve $-1 -6.4195397722598937 215.69017609179969 0 0 0 -1 I I #
point $-1 -6.4195397722598937 -215.69017609179969 -107.84508804589984 #
straight-curve $-1 -6.4195397722598937 0 -107.84508804589984 0 1 0 I I #
point $-1 -6.4195397722598937 215.69017609179969 -107.84508804589984 #
vertex $-1 $946 $1075 #
straight-curve $-1 -6.4195397722598937 215.69017609179969 0 0 0 -1 I I #
point $-1 -6.4195397722598937 -215.69017609179969 -107.84508804589984 #
straight-curve $-1 -6.4195397722598937 0 -107.84508804589984 0 1 0 I I #
point $-1 -6.4195397722598937 215.69017609179969 -107.84508804589984 #
vertex $-1 $964 $1076 #
straight-curve $-1 -6.4195397722598937 215.69017609179969 0 0 0 -1 I I #
point $-1 -6.4195397722598937 -215.69017609179969 -107.84508804589984 #
straight-curve $-1 -6.4195397722598937 0 -107.84508804589984 0 1 0 I I #
point $-1 -6.4195397722598937 215.69017609179969 -107.84508804589984 #
vertex $-1 $982 $1077 #
straight-curve $-1 -9.234284481342808 215.69017609179969 0 0 0 -1 I I #
point $-1 -9.234284481342808 -215.69017609179969 -107.84508804589984 #
straight-curve $-1 -9.234284481342808 0 -107.84508804589984 0 1 0 I I #
point $-1 -9.234284481342808 215.69017609179969 -107.84508804589984 #
vertex $-1 $1000 $1078 #
vertex $-1 $1002 $1079 #
vertex $-1 $1004 $1080 #
straight-curve $-1 -9.234284481342808 215.69017609179969 0 0 0 -1 I I #
point $-1 -9.234284481342808 -215.69017609179969 -107.84508804589984 #
straight-curve $-1 -9.234284481342808 0 -107.84508804589984 0 1 0 I I #
point $-1 -9.234284481342808 215.69017609179969 -107.84508804589984 #
vertex $-1 $1022 $1081 #
vertex $-1 $1024 $1082 #
vertex $-1 $1026 $1083 #
point $-1 0 0 1.5 #
point $-1 0 0 1.5 #
point $-1 0 0 1.5 #
point $-1 0 0 1.5 #
point $-1 0 0 0.5 #
point $-1 0 0 0.5 #
point $-1 0 0 0.5 #
point $-1 0 0 0.5 #
point $-1 0 0 0.5 #
point $-1 0 0 0.5 #
End-of-ACIS-data 