500 0 8 0           
7 Unknown 11 ACIS 5.0 NT 24 Fri Mar 26 02:54:04 1999 
-1 9.9999999999999995e-007 1e-010 
body $-1 $8 $-1 $9 #
body $-1 $10 $-1 $11 #
body $-1 $12 $-1 $13 #
body $-1 $14 $-1 $15 #
body $-1 $16 $-1 $17 #
body $-1 $18 $-1 $19 #
body $-1 $20 $-1 $21 #
body $-1 $22 $-1 $23 #
lump $-1 $-1 $24 $0 #
transform $-1 1 0 0 0 1 0 0 0 1 48.331553086947231 31.808525111240485 10.809578834534628 1 rotate no_reflect no_shear #
lump $-1 $-1 $25 $1 #
transform $-1 1 0 0 0 1 0 0 0 1 48.331553086947231 31.808525111240485 10.809578834534628 1 rotate no_reflect no_shear #
lump $-1 $-1 $26 $2 #
transform $-1 1 0 0 0 1 0 0 0 1 48.331553086947231 31.808525111240485 10.809578834534628 1 rotate no_reflect no_shear #
lump $-1 $-1 $27 $3 #
transform $-1 1 0 0 0 1 0 0 0 1 48.331553086947231 31.808525111240485 10.809578834534628 1 rotate no_reflect no_shear #
lump $-1 $-1 $28 $4 #
transform $-1 1 0 0 0 1 0 0 0 1 48.331553086947231 31.808525111240485 10.809578834534628 1 rotate no_reflect no_shear #
lump $-1 $-1 $29 $5 #
transform $-1 1 0 0 0 1 0 0 0 1 48.331553086947231 31.808525111240485 10.809578834534628 1 rotate no_reflect no_shear #
lump $-1 $-1 $30 $6 #
transform $-1 1 0 0 0 1 0 0 0 1 48.331553086947231 31.808525111240485 10.809578834534628 1 rotate no_reflect no_shear #
lump $-1 $-1 $31 $7 #
transform $-1 1 0 0 0 1 0 0 0 1 48.331553086947231 31.808525111240485 10.809578834534628 1 rotate no_reflect no_shear #
shell $-1 $-1 $-1 $32 $-1 $8 #
shell $-1 $-1 $-1 $33 $-1 $10 #
shell $-1 $-1 $-1 $34 $-1 $12 #
shell $-1 $-1 $-1 $35 $-1 $14 #
shell $-1 $-1 $-1 $36 $-1 $16 #
shell $-1 $-1 $-1 $37 $-1 $18 #
shell $-1 $-1 $-1 $38 $-1 $20 #
shell $-1 $-1 $-1 $39 $-1 $22 #
face $-1 $40 $41 $24 $-1 $42 forward single #
face $-1 $43 $44 $25 $-1 $45 reversed single #
face $-1 $46 $47 $26 $-1 $48 reversed single #
face $-1 $49 $50 $27 $-1 $51 forward single #
face $-1 $52 $53 $28 $-1 $54 forward single #
face $-1 $55 $56 $29 $-1 $57 reversed single #
face $-1 $58 $59 $30 $-1 $60 forward single #
face $-1 $61 $62 $31 $-1 $63 forward single #
face $-1 $64 $65 $24 $-1 $66 reversed single #
loop $-1 $-1 $67 $32 #
plane-surface $-1 0 0 10.809578834534628 0 0 1 1 0 0 forward_v I I I I #
face $-1 $68 $69 $25 $-1 $70 reversed single #
loop $-1 $-1 $71 $33 #
plane-surface $-1 -41.991723719210597 0 7.8095788345346282 0 0 1 1 0 0 forward_v I I I I #
face $-1 $72 $73 $26 $-1 $74 reversed single #
loop $-1 $-1 $75 $34 #
plane-surface $-1 -10.471525319414461 -91.320276414128031 80.849401081070951 -1 0 0 0 -0.61566148304635926 0.78801074757464917 forward_v I I I I #
face $-1 $76 $77 $27 $-1 $78 forward single #
loop $-1 $79 $80 $35 #
cone-surface $-1 -24.397855519208818 -27.192282961146979 6.8578529262983414 0 0.61566148304635926 -0.78801074757464917 1.5 0 0 1 I I 0 1 1.5 forward I I I I #
face $-1 $81 $82 $28 $-1 $83 forward single #
loop $-1 $84 $85 $36 #
cone-surface $-1 -16.042057399332208 -27.192282961146979 6.8578529262983414 0 0.61566148304635926 -0.78801074757464917 1.5 0 0 1 I I 0 1 1.5 forward I I I I #
face $-1 $86 $87 $29 $-1 $88 reversed single #
loop $-1 $-1 $89 $37 #
plane-surface $-1 31.520198399796133 -91.320276414128031 80.849401081070951 -1 0 0 0 -0.61566148304635926 0.78801074757464917 forward_v I I I I #
face $-1 $90 $91 $30 $-1 $92 forward single #
loop $-1 $93 $94 $38 #
cone-surface $-1 17.593868200001786 -27.192282961146979 6.8578529262983414 0 0.61566148304635926 -0.78801074757464917 1.5 0 0 1 I I 0 1 1.5 forward I I I I #
face $-1 $95 $96 $31 $-1 $97 forward single #
loop $-1 $98 $99 $39 #
cone-surface $-1 25.949666319878382 -27.192282961146979 6.8578529262983414 0 0.61566148304635926 -0.78801074757464917 1.5 0 0 1 I I 0 1 1.5 forward I I I I #
face $-1 $100 $101 $24 $-1 $102 reversed single #
loop $-1 $-1 $103 $40 #
plane-surface $-1 0 0 -10.809578834534628 0 0 1 1 0 0 forward_v I I I I #
coedge $-1 $104 $105 $106 $107 forward $41 $-1 #
face $-1 $108 $109 $25 $-1 $110 reversed single #
loop $-1 $-1 $111 $43 #
plane-surface $-1 -35.651894351473963 0 9.3095788345346282 -1 0 0 0 0 1 forward_v I I I I #
coedge $-1 $112 $113 $114 $115 forward $44 $-1 #
face $-1 $116 $117 $26 $-1 $118 reversed single #
loop $-1 $-1 $119 $46 #
plane-surface $-1 -20.219956459270509 -31.808525111240478 4.6778345220926951 0 -0.61566148304635926 0.78801074757464917 1 0 0 forward_v I I I I #
coedge $-1 $120 $121 $122 $123 reversed $47 $-1 #
face $-1 $-1 $124 $27 $-1 $125 forward single #
loop $-1 $126 $127 $49 #
cone-surface $-1 -24.397855519208818 -26.038432031248327 5.3809911136020343 0 0.61566148304635926 -0.78801074757464917 0.75 0 0 1 I I -0.70710678118654757 0.70710678118654757 0.75 forward I I I I #
loop $-1 $-1 $128 $35 #
coedge $-1 $80 $80 $129 $130 reversed $50 $-1 #
face $-1 $-1 $131 $28 $-1 $132 forward single #
loop $-1 $133 $134 $52 #
cone-surface $-1 -16.042057399332208 -26.038432031248327 5.3809911136020343 0 0.61566148304635926 -0.78801074757464917 0.75 0 0 1 I I -0.70710678118654757 0.70710678118654757 0.75 forward I I I I #
loop $-1 $-1 $135 $36 #
coedge $-1 $85 $85 $136 $137 reversed $53 $-1 #
face $-1 $138 $139 $29 $-1 $140 reversed single #
loop $-1 $-1 $141 $55 #
plane-surface $-1 21.771767259940084 -31.808525111240478 4.6778345220926951 0 -0.61566148304635926 0.78801074757464917 1 0 0 forward_v I I I I #
coedge $-1 $142 $143 $144 $145 reversed $56 $-1 #
face $-1 $-1 $146 $30 $-1 $147 forward single #
loop $-1 $148 $149 $58 #
cone-surface $-1 17.593868200001786 -26.038432031248327 5.3809911136020343 0 0.61566148304635926 -0.78801074757464917 0.75 0 0 1 I I -0.70710678118654757 0.70710678118654757 0.75 forward I I I I #
loop $-1 $-1 $150 $38 #
coedge $-1 $94 $94 $151 $152 reversed $59 $-1 #
face $-1 $-1 $153 $31 $-1 $154 forward single #
loop $-1 $155 $156 $61 #
cone-surface $-1 25.949666319878382 -26.038432031248327 5.3809911136020343 0 0.61566148304635926 -0.78801074757464917 0.75 0 0 1 I I -0.70710678118654757 0.70710678118654757 0.75 forward I I I I #
loop $-1 $-1 $157 $39 #
coedge $-1 $99 $99 $158 $159 reversed $62 $-1 #
face $-1 $160 $161 $24 $-1 $162 reversed single #
loop $-1 $-1 $163 $64 #
plane-surface $-1 0 -31.808525111240485 0 0 1 0 0 0 1 forward_v I I I I #
coedge $-1 $164 $165 $166 $167 forward $65 $-1 #
coedge $-1 $168 $67 $169 $170 forward $41 $-1 #
coedge $-1 $67 $168 $171 $172 forward $41 $-1 #
coedge $-1 $173 $174 $67 $107 reversed $175 $-1 #
edge $-1 $176 -31.808525111240485 $177 31.808525111240485 $106 $178 forward 7 unknown #
face $-1 $179 $180 $25 $-1 $181 reversed single #
loop $-1 $-1 $182 $68 #
plane-surface $-1 0 31.808525111240485 0 0 -1 0 0 0 -1 forward_v I I I I #
coedge $-1 $114 $183 $184 $185 reversed $69 $-1 #
coedge $-1 $186 $71 $187 $188 reversed $44 $-1 #
coedge $-1 $71 $186 $189 $190 reversed $44 $-1 #
coedge $-1 $191 $111 $71 $115 reversed $69 $-1 #
edge $-1 $192 -31.808525111240485 $193 31.808525111240485 $114 $194 forward 7 unknown #
face $-1 $195 $196 $26 $-1 $197 reversed single #
loop $-1 $-1 $198 $72 #
plane-surface $-1 -29.968387599126558 -91.320276414128031 80.849401081070951 1 0 0 0 0.61566148304635926 -0.78801074757464917 forward_v I I I I #
coedge $-1 $199 $200 $201 $202 reversed $73 $-1 #
coedge $-1 $121 $75 $203 $204 reversed $47 $-1 #
coedge $-1 $75 $120 $199 $205 reversed $47 $-1 #
coedge $-1 $201 $206 $75 $123 forward $207 $-1 #
edge $-1 $208 13.851613095823531 $209 21.699887760782772 $122 $210 forward 7 unknown #
loop $-1 $-1 $129 $76 #
plane-surface $-1 -20.219956459270509 -31.808525111240478 4.6778345220926951 0 -0.61566148304635926 0.78801074757464917 1 0 0 forward_v I I I I #
loop $-1 $-1 $211 $49 #
coedge $-1 $127 $127 $128 $212 reversed $77 $-1 #
coedge $-1 $128 $128 $127 $212 forward $79 $-1 #
coedge $-1 $129 $129 $80 $130 forward $124 $-1 #
edge $-1 $213 -1.1372947171903754e-015 $213 6.2831853071795996 $129 $214 forward 7 unknown #
loop $-1 $-1 $136 $81 #
plane-surface $-1 -20.219956459270509 -31.808525111240478 4.6778345220926951 0 -0.61566148304635926 0.78801074757464917 1 0 0 forward_v I I I I #
loop $-1 $-1 $215 $52 #
coedge $-1 $134 $134 $135 $216 reversed $82 $-1 #
coedge $-1 $135 $135 $134 $216 forward $84 $-1 #
coedge $-1 $136 $136 $85 $137 forward $131 $-1 #
edge $-1 $217 -1.1372947171903754e-015 $217 6.2831853071795996 $136 $218 forward 7 unknown #
face $-1 $219 $220 $29 $-1 $221 reversed single #
loop $-1 $-1 $222 $86 #
plane-surface $-1 12.023336120084036 -91.320276414128031 80.849401081070951 1 0 0 0 0.61566148304635926 -0.78801074757464917 forward_v I I I I #
coedge $-1 $223 $224 $225 $226 reversed $87 $-1 #
coedge $-1 $143 $89 $227 $228 reversed $56 $-1 #
coedge $-1 $89 $142 $223 $229 reversed $56 $-1 #
coedge $-1 $225 $230 $89 $145 forward $231 $-1 #
edge $-1 $232 13.851613095823531 $233 21.699887760782772 $144 $234 forward 7 unknown #
loop $-1 $-1 $151 $90 #
plane-surface $-1 21.771767259940084 -31.808525111240478 4.6778345220926951 0 -0.61566148304635926 0.78801074757464917 1 0 0 forward_v I I I I #
loop $-1 $-1 $235 $58 #
coedge $-1 $149 $149 $150 $236 reversed $91 $-1 #
coedge $-1 $150 $150 $149 $236 forward $93 $-1 #
coedge $-1 $151 $151 $94 $152 forward $146 $-1 #
edge $-1 $237 -1.1372947171903754e-015 $237 6.2831853071795996 $151 $238 forward 7 unknown #
loop $-1 $-1 $158 $95 #
plane-surface $-1 21.771767259940084 -31.808525111240478 4.6778345220926951 0 -0.61566148304635926 0.78801074757464917 1 0 0 forward_v I I I I #
loop $-1 $-1 $239 $61 #
coedge $-1 $156 $156 $157 $240 reversed $96 $-1 #
coedge $-1 $157 $157 $156 $240 forward $98 $-1 #
coedge $-1 $158 $158 $99 $159 forward $153 $-1 #
edge $-1 $241 -1.1372947171903754e-015 $241 6.2831853071795996 $158 $242 forward 7 unknown #
face $-1 $243 $244 $24 $-1 $245 reversed single #
loop $-1 $-1 $246 $100 #
plane-surface $-1 -48.331553086947231 0 0 1 0 0 0 0 -1 forward_v I I I I #
coedge $-1 $247 $171 $248 $249 forward $101 $-1 #
coedge $-1 $250 $103 $247 $251 forward $65 $-1 #
coedge $-1 $103 $250 $252 $253 forward $65 $-1 #
coedge $-1 $174 $173 $103 $167 reversed $175 $-1 #
edge $-1 $254 -31.808525111240485 $255 31.808525111240485 $166 $256 forward 7 unknown #
coedge $-1 $105 $104 $257 $258 forward $41 $-1 #
coedge $-1 $259 $260 $104 $170 reversed $244 $-1 #
edge $-1 $177 -48.331553086947231 $261 48.331553086947231 $169 $262 forward 7 unknown #
coedge $-1 $163 $263 $105 $172 reversed $101 $-1 #
edge $-1 $264 -48.331553086947231 $176 48.331553086947231 $171 $265 forward 7 unknown #
coedge $-1 $166 $106 $263 $266 forward $175 $-1 #
coedge $-1 $106 $166 $259 $267 reversed $175 $-1 #
loop $-1 $-1 $173 $243 #
vertex $-1 $107 $268 #
vertex $-1 $107 $269 #
straight-curve $-1 48.331553086947231 0 10.809578834534628 0 1 0 I I #
face $-1 $270 $271 $25 $-1 $272 forward single #
loop $-1 $-1 $273 $108 #
plane-surface $-1 -48.331553086947231 0 0 1 0 0 0 0 -1 forward_v I I I I #
coedge $-1 $189 $274 $191 $275 forward $109 $-1 #
coedge $-1 $111 $191 $276 $277 reversed $69 $-1 #
coedge $-1 $278 $187 $111 $185 forward $279 $-1 #
edge $-1 $193 3.1547894172673141 $280 6.1547894172673141 $184 $281 forward 7 unknown #
coedge $-1 $113 $112 $273 $282 reversed $44 $-1 #
coedge $-1 $184 $283 $112 $188 forward $279 $-1 #
edge $-1 $284 -27.335691227341933 $193 -14.656032491868665 $187 $285 forward 7 unknown #
coedge $-1 $286 $182 $113 $190 forward $109 $-1 #
edge $-1 $192 14.656032491868665 $287 27.335691227341933 $189 $288 forward 7 unknown #
coedge $-1 $183 $114 $182 $275 reversed $69 $-1 #
vertex $-1 $190 $289 #
vertex $-1 $188 $290 #
straight-curve $-1 -35.651894351473963 0 7.8095788345346282 0 -1 0 I I #
face $-1 $-1 $207 $26 $-1 $291 forward single #
loop $-1 $-1 $292 $116 #
plane-surface $-1 0 -31.808525111240485 0 0 1 0 0 0 1 forward_v I I I I #
coedge $-1 $293 $294 $295 $296 reversed $117 $-1 #
coedge $-1 $297 $119 $121 $205 forward $73 $-1 #
coedge $-1 $119 $297 $293 $298 forward $73 $-1 #
coedge $-1 $295 $122 $119 $202 forward $207 $-1 #
edge $-1 $209 0.36154708977920613 $299 19.858409369491305 $201 $300 forward 7 unknown #
coedge $-1 $301 $302 $120 $204 forward $196 $-1 #
edge $-1 $303 -35.746866018442788 $208 -29.615121706000849 $203 $304 forward 7 unknown #
edge $-1 $209 -9.9596035829647853 $303 8.8800565823946346e-015 $121 $305 forward 7 unknown #
coedge $-1 $122 $295 $301 $306 forward $207 $-1 #
loop $-1 $-1 $295 $195 #
vertex $-1 $204 $307 #
vertex $-1 $123 $308 #
straight-curve $-1 -10.471525319414461 -45.660138207064016 10.809578834534626 0 1 0 I I #
coedge $-1 $211 $211 $-1 $309 reversed $126 $-1 #
edge $-1 $310 0 $310 6.2831853071796004 $127 $311 forward 7 unknown #
vertex $-1 $130 $312 #
ellipse-curve $-1 -24.397855519208818 -27.884387778760864 7.743706678313659 0 -0.61566148304635926 0.78801074757464917 1.5 0 0 1 I I #
coedge $-1 $215 $215 $-1 $313 reversed $133 $-1 #
edge $-1 $314 0 $314 6.2831853071796004 $134 $315 forward 7 unknown #
vertex $-1 $137 $316 #
ellipse-curve $-1 -16.042057399332208 -27.884387778760864 7.743706678313659 0 -0.61566148304635926 0.78801074757464917 1.5 0 0 1 I I #
face $-1 $-1 $231 $29 $-1 $317 forward single #
loop $-1 $-1 $318 $138 #
plane-surface $-1 0 -31.808525111240485 0 0 1 0 0 0 1 forward_v I I I I #
coedge $-1 $319 $320 $321 $322 reversed $139 $-1 #
coedge $-1 $323 $141 $143 $229 forward $87 $-1 #
coedge $-1 $141 $323 $319 $324 forward $87 $-1 #
coedge $-1 $321 $144 $141 $226 forward $231 $-1 #
edge $-1 $233 -20.634314769826091 $325 -1.1374524901139935 $225 $326 forward 7 unknown #
coedge $-1 $327 $328 $142 $228 forward $220 $-1 #
edge $-1 $329 -35.746866018442788 $232 -29.615121706000849 $227 $330 forward 7 unknown #
edge $-1 $233 -9.9596035829647853 $329 8.8800565823946346e-015 $143 $331 forward 7 unknown #
coedge $-1 $144 $321 $327 $332 forward $231 $-1 #
loop $-1 $-1 $321 $219 #
vertex $-1 $228 $333 #
vertex $-1 $145 $334 #
straight-curve $-1 31.520198399796133 -45.660138207064016 10.809578834534626 0 1 0 I I #
coedge $-1 $235 $235 $-1 $335 reversed $148 $-1 #
edge $-1 $336 0 $336 6.2831853071796004 $149 $337 forward 7 unknown #
vertex $-1 $152 $338 #
ellipse-curve $-1 17.593868200001786 -27.884387778760864 7.743706678313659 0 -0.61566148304635926 0.78801074757464917 1.5 0 0 1 I I #
coedge $-1 $239 $239 $-1 $339 reversed $155 $-1 #
edge $-1 $340 0 $340 6.2831853071796004 $156 $341 forward 7 unknown #
vertex $-1 $159 $342 #
ellipse-curve $-1 25.949666319878382 -27.884387778760864 7.743706678313659 0 -0.61566148304635926 0.78801074757464917 1.5 0 0 1 I I #
face $-1 $-1 $175 $24 $-1 $343 reversed single #
loop $-1 $-1 $259 $160 #
plane-surface $-1 0 31.808525111240485 0 0 -1 0 0 0 -1 forward_v I I I I #
coedge $-1 $344 $257 $260 $345 forward $161 $-1 #
coedge $-1 $263 $163 $164 $251 reversed $101 $-1 #
coedge $-1 $257 $344 $163 $249 reversed $161 $-1 #
edge $-1 $264 -10.809578834534628 $346 10.809578834534628 $248 $347 forward 7 unknown #
coedge $-1 $165 $164 $344 $348 forward $65 $-1 #
edge $-1 $255 -48.331553086947231 $346 48.331553086947231 $247 $349 forward 7 unknown #
coedge $-1 $260 $259 $165 $253 reversed $244 $-1 #
edge $-1 $350 -48.331553086947231 $254 48.331553086947231 $252 $351 forward 7 unknown #
vertex $-1 $167 $352 #
vertex $-1 $266 $353 #
straight-curve $-1 48.331553086947231 0 -10.809578834534628 0 -1 0 I I #
coedge $-1 $246 $248 $168 $258 reversed $161 $-1 #
edge $-1 $261 -31.808525111240485 $264 31.808525111240485 $257 $354 forward 7 unknown #
coedge $-1 $252 $169 $174 $267 forward $244 $-1 #
coedge $-1 $169 $252 $246 $345 reversed $244 $-1 #
vertex $-1 $170 $355 #
straight-curve $-1 0 31.808525111240485 10.809578834534628 -1 0 0 I I #
coedge $-1 $171 $247 $173 $266 reversed $101 $-1 #
vertex $-1 $258 $356 #
straight-curve $-1 0 -31.808525111240485 10.809578834534628 1 0 0 I I #
edge $-1 $176 -10.809578834534628 $255 10.809578834534628 $173 $357 forward 7 unknown #
edge $-1 $177 -10.809578834534628 $254 10.809578834534628 $174 $358 forward 7 unknown #
point $-1 48.331553086947231 -31.808525111240485 10.809578834534628 #
point $-1 48.331553086947231 31.808525111240485 10.809578834534628 #
face $-1 $-1 $279 $25 $-1 $359 reversed single #
loop $-1 $-1 $276 $179 #
plane-surface $-1 0 0 10.809578834534628 0 0 1 1 0 0 forward_v I I I I #
coedge $-1 $360 $361 $186 $282 forward $180 $-1 #
coedge $-1 $182 $286 $362 $363 reversed $109 $-1 #
edge $-1 $364 -6.1547894172673141 $192 -3.1547894172673141 $182 $365 forward 7 unknown #
coedge $-1 $362 $366 $183 $277 forward $271 $-1 #
edge $-1 $280 -31.808525111240485 $364 31.808525111240485 $276 $367 forward 7 unknown #
coedge $-1 $283 $184 $366 $368 reversed $279 $-1 #
loop $-1 $-1 $184 $270 #
vertex $-1 $185 $369 #
straight-curve $-1 -35.651894351473963 -31.808525111240485 4.6547894172673141 0 0 1 I I #
edge $-1 $287 -31.808525111240485 $284 31.808525111240485 $273 $370 forward 7 unknown #
coedge $-1 $187 $278 $360 $371 forward $279 $-1 #
vertex $-1 $282 $372 #
straight-curve $-1 -20.995861859605299 -31.808525111240485 7.8095788345346282 1 0 0 I I #
coedge $-1 $274 $189 $361 $373 reversed $109 $-1 #
vertex $-1 $282 $374 #
straight-curve $-1 -20.995861859605299 31.808525111240485 7.8095788345346282 -1 0 0 I I #
point $-1 -35.651894351473963 31.808525111240485 7.8095788345346282 #
point $-1 -35.651894351473963 -31.808525111240485 7.8095788345346282 #
plane-surface $-1 0 0 10.809578834534628 0 0 1 1 0 0 forward_v I I I I #
coedge $-1 $302 $301 $294 $375 forward $196 $-1 #
coedge $-1 $294 $198 $200 $298 reversed $117 $-1 #
coedge $-1 $198 $293 $292 $375 reversed $117 $-1 #
coedge $-1 $206 $201 $198 $296 forward $207 $-1 #
edge $-1 $299 -21.699887760782772 $376 -13.851613095823531 $295 $377 forward 7 unknown #
coedge $-1 $200 $199 $302 $378 reversed $73 $-1 #
edge $-1 $379 -8.8800565823946346e-015 $299 9.9596035829647853 $293 $380 forward 7 unknown #
vertex $-1 $202 $381 #
straight-curve $-1 -10.109978229635255 -23.960250446281243 10.809578834534628 -1 0 0 I I #
coedge $-1 $292 $203 $206 $306 reversed $196 $-1 #
coedge $-1 $203 $292 $297 $378 forward $196 $-1 #
vertex $-1 $204 $382 #
straight-curve $-1 -10.471525319414461 -31.808525111240485 40.424700540535476 0 0 1 I I #
straight-curve $-1 -10.471525319414461 -31.808525111240478 4.6778345220926951 0 -0.78801074757464917 -0.61566148304635926 I I #
edge $-1 $376 -29.968387599126558 $208 -10.471525319414461 $301 $383 forward 7 unknown #
point $-1 -10.471525319414461 -31.808525111240485 10.809578834534628 #
point $-1 -10.471525319414461 -23.960250446281243 10.809578834534628 #
edge $-1 $384 1 $384 0 $211 $-1 forward 7 unknown #
vertex $-1 $212 $385 #
ellipse-curve $-1 -24.397855519208818 -26.500178143533095 5.9719991742830212 0 -0.61566148304635926 0.78801074757464917 1.5 0 0 1 I I #
point $-1 -22.897855519208818 -27.884387778760868 7.7437066783136608 #
edge $-1 $386 1 $386 0 $215 $-1 forward 7 unknown #
vertex $-1 $216 $387 #
ellipse-curve $-1 -16.042057399332208 -26.500178143533095 5.9719991742830212 0 -0.61566148304635926 0.78801074757464917 1.5 0 0 1 I I #
point $-1 -14.542057399332208 -27.884387778760868 7.7437066783136608 #
plane-surface $-1 0 0 10.809578834534628 0 0 1 1 0 0 forward_v I I I I #
coedge $-1 $328 $327 $320 $388 forward $220 $-1 #
coedge $-1 $320 $222 $224 $324 reversed $139 $-1 #
coedge $-1 $222 $319 $318 $388 reversed $139 $-1 #
coedge $-1 $230 $225 $222 $322 forward $231 $-1 #
edge $-1 $325 -21.699887760782772 $389 -13.851613095823531 $321 $390 forward 7 unknown #
coedge $-1 $224 $223 $328 $391 reversed $87 $-1 #
edge $-1 $392 -8.8800565823946346e-015 $325 9.9596035829647853 $319 $393 forward 7 unknown #
vertex $-1 $226 $394 #
straight-curve $-1 10.885883629970042 -23.960250446281243 10.809578834534628 -1 0 0 I I #
coedge $-1 $318 $227 $230 $332 reversed $220 $-1 #
coedge $-1 $227 $318 $323 $391 forward $220 $-1 #
vertex $-1 $228 $395 #
straight-curve $-1 31.520198399796133 -31.808525111240485 40.424700540535476 0 0 1 I I #
straight-curve $-1 31.520198399796133 -31.808525111240478 4.6778345220926951 0 -0.78801074757464917 -0.61566148304635926 I I #
edge $-1 $389 12.023336120084036 $232 31.520198399796133 $327 $396 forward 7 unknown #
point $-1 31.520198399796133 -31.808525111240485 10.809578834534628 #
point $-1 31.520198399796133 -23.960250446281243 10.809578834534628 #
edge $-1 $397 1 $397 0 $235 $-1 forward 7 unknown #
vertex $-1 $236 $398 #
ellipse-curve $-1 17.593868200001786 -26.500178143533095 5.9719991742830212 0 -0.61566148304635926 0.78801074757464917 1.5 0 0 1 I I #
point $-1 19.093868200001786 -27.884387778760868 7.7437066783136608 #
edge $-1 $399 1 $399 0 $239 $-1 forward 7 unknown #
vertex $-1 $240 $400 #
ellipse-curve $-1 25.949666319878382 -26.500178143533095 5.9719991742830212 0 -0.61566148304635926 0.78801074757464917 1.5 0 0 1 I I #
point $-1 27.449666319878382 -27.884387778760868 7.7437066783136608 #
plane-surface $-1 48.331553086947231 0 0 -1 0 0 0 0 1 forward_v I I I I #
coedge $-1 $248 $246 $250 $348 reversed $161 $-1 #
edge $-1 $261 -10.809578834534628 $350 10.809578834534628 $260 $401 forward 7 unknown #
vertex $-1 $348 $402 #
straight-curve $-1 -48.331553086947231 -31.808525111240485 0 0 0 -1 I I #
edge $-1 $346 -31.808525111240485 $350 31.808525111240485 $344 $403 forward 7 unknown #
straight-curve $-1 0 -31.808525111240485 -10.809578834534628 -1 0 0 I I #
vertex $-1 $253 $404 #
straight-curve $-1 0 31.808525111240485 -10.809578834534628 1 0 0 I I #
point $-1 48.331553086947231 31.808525111240485 -10.809578834534628 #
point $-1 48.331553086947231 -31.808525111240485 -10.809578834534628 #
straight-curve $-1 -48.331553086947231 0 10.809578834534628 0 -1 0 I I #
point $-1 -48.331553086947231 31.808525111240485 10.809578834534628 #
point $-1 -48.331553086947231 -31.808525111240485 10.809578834534628 #
straight-curve $-1 48.331553086947231 -31.808525111240485 0 0 0 -1 I I #
straight-curve $-1 48.331553086947231 31.808525111240485 0 0 0 -1 I I #
plane-surface $-1 0 -31.808525111240485 0 0 1 0 0 0 1 forward_v I I I I #
coedge $-1 $405 $273 $283 $371 reversed $180 $-1 #
coedge $-1 $273 $405 $286 $373 forward $180 $-1 #
coedge $-1 $406 $276 $274 $363 forward $271 $-1 #
edge $-1 $364 35.651894351473963 $407 48.331553086947231 $274 $408 forward 7 unknown #
vertex $-1 $363 $409 #
straight-curve $-1 -35.651894351473963 31.808525111240485 4.6547894172673141 0 0 -1 I I #
coedge $-1 $276 $406 $278 $368 forward $271 $-1 #
straight-curve $-1 -35.651894351473963 0 10.809578834534628 0 1 0 I I #
edge $-1 $410 -48.331553086947231 $280 -35.651894351473963 $278 $411 forward 7 unknown #
point $-1 -35.651894351473963 -31.808525111240485 10.809578834534628 #
straight-curve $-1 -48.331553086947231 0 7.8095788345346282 0 -1 0 I I #
edge $-1 $410 -10.809578834534628 $284 -7.8095788345346282 $360 $412 forward 7 unknown #
point $-1 -48.331553086947231 -31.808525111240485 7.8095788345346282 #
edge $-1 $407 -10.809578834534628 $287 -7.8095788345346282 $286 $413 forward 7 unknown #
point $-1 -48.331553086947231 31.808525111240485 7.8095788345346282 #
edge $-1 $376 29.615121706000849 $379 35.746866018442788 $292 $414 forward 7 unknown #
vertex $-1 $306 $415 #
straight-curve $-1 -29.968387599126558 -45.660138207064016 10.809578834534626 0 -1 0 I I #
edge $-1 $379 -19.858409369491305 $303 -0.36154708977920613 $302 $416 forward 7 unknown #
vertex $-1 $378 $417 #
straight-curve $-1 -29.968387599126558 -31.808525111240478 4.6778345220926951 0 0.78801074757464917 0.61566148304635926 I I #
point $-1 -29.968387599126558 -23.960250446281243 10.809578834534628 #
point $-1 -10.471525319414461 -31.808525111240485 4.6778345220926898 #
straight-curve $-1 0 -31.808525111240485 10.809578834534628 1 0 0 I I #
vertex $-1 $309 $418 #
point $-1 -22.897855519208818 -26.500178143533095 5.9719991742830212 #
vertex $-1 $313 $419 #
point $-1 -14.542057399332208 -26.500178143533095 5.9719991742830212 #
edge $-1 $389 29.615121706000849 $392 35.746866018442788 $318 $420 forward 7 unknown #
vertex $-1 $332 $421 #
straight-curve $-1 12.023336120084036 -45.660138207064016 10.809578834534626 0 -1 0 I I #
edge $-1 $392 1.1374524901139935 $329 20.634314769826091 $328 $422 forward 7 unknown #
vertex $-1 $391 $423 #
straight-curve $-1 12.023336120084036 -31.808525111240478 4.6778345220926951 0 0.78801074757464917 0.61566148304635926 I I #
point $-1 12.023336120084036 -23.960250446281243 10.809578834534628 #
point $-1 31.520198399796133 -31.808525111240485 4.6778345220926898 #
straight-curve $-1 0 -31.808525111240485 10.809578834534628 1 0 0 I I #
vertex $-1 $335 $424 #
point $-1 19.093868200001786 -26.500178143533095 5.9719991742830212 #
vertex $-1 $339 $425 #
point $-1 27.449666319878382 -26.500178143533095 5.9719991742830212 #
straight-curve $-1 -48.331553086947231 31.808525111240485 0 0 0 -1 I I #
point $-1 -48.331553086947231 -31.808525111240485 -10.809578834534628 #
straight-curve $-1 -48.331553086947231 0 -10.809578834534628 0 1 0 I I #
point $-1 -48.331553086947231 31.808525111240485 -10.809578834534628 #
coedge $-1 $361 $360 $406 $426 reversed $180 $-1 #
coedge $-1 $366 $362 $405 $426 forward $271 $-1 #
vertex $-1 $363 $427 #
straight-curve $-1 0 31.808525111240485 10.809578834534628 -1 0 0 I I #
point $-1 -35.651894351473963 31.808525111240485 10.809578834534628 #
vertex $-1 $426 $428 #
straight-curve $-1 0 -31.808525111240485 10.809578834534628 1 0 0 I I #
straight-curve $-1 -48.331553086947231 -31.808525111240485 0 0 0 -1 I I #
straight-curve $-1 -48.331553086947231 31.808525111240485 0 0 0 -1 I I #
straight-curve $-1 -29.968387599126558 -31.808525111240485 40.424700540535476 0 0 -1 I I #
point $-1 -29.968387599126558 -31.808525111240485 10.809578834534628 #
straight-curve $-1 -10.109978229635255 -31.808525111240485 4.677834522092688 1 0 0 I I #
point $-1 -29.968387599126558 -31.808525111240485 4.6778345220926898 #
point $-1 -24.397855519208818 -25.576685918963559 4.7899830529210474 #
point $-1 -16.042057399332208 -25.576685918963559 4.7899830529210474 #
straight-curve $-1 12.023336120084036 -31.808525111240485 40.424700540535476 0 0 -1 I I #
point $-1 12.023336120084036 -31.808525111240485 10.809578834534628 #
straight-curve $-1 10.885883629970042 -31.808525111240485 4.677834522092688 1 0 0 I I #
point $-1 12.023336120084036 -31.808525111240485 4.6778345220926898 #
point $-1 17.593868200001786 -25.576685918963559 4.7899830529210474 #
point $-1 25.949666319878382 -25.576685918963559 4.7899830529210474 #
edge $-1 $407 -31.808525111240485 $410 31.808525111240485 $405 $429 forward 7 unknown #
point $-1 -48.331553086947231 31.808525111240485 10.809578834534628 #
point $-1 -48.331553086947231 -31.808525111240485 10.809578834534628 #
straight-curve $-1 -48.331553086947231 0 10.809578834534628 0 -1 0 I I #
End-of-ACIS-data 