500 0 13 0           
7 Unknown 11 ACIS 5.0 NT 24 Fri Mar 26 19:43:49 1999 
-1 9.9999999999999995e-007 1e-010 
body $-1 $13 $-1 $14 #
body $-1 $15 $-1 $16 #
body $-1 $17 $-1 $18 #
body $-1 $19 $-1 $20 #
body $-1 $21 $-1 $22 #
body $-1 $23 $-1 $24 #
body $-1 $25 $-1 $26 #
body $-1 $27 $-1 $28 #
body $-1 $29 $-1 $30 #
body $-1 $31 $-1 $32 #
body $-1 $33 $-1 $34 #
body $-1 $35 $-1 $36 #
body $-1 $37 $-1 $38 #
lump $-1 $-1 $39 $0 #
transform $-1 1 0 0 0 1 0 0 0 1 46.013367107150486 29.677477312717294 11.271681048142888 1 rotate no_reflect no_shear #
lump $-1 $-1 $40 $1 #
transform $-1 1 0 0 0 1 0 0 0 1 46.013367107150486 29.677477312717294 11.271681048142888 1 rotate no_reflect no_shear #
lump $-1 $-1 $41 $2 #
transform $-1 1 0 0 0 1 0 0 0 1 46.013367107150486 29.677477312717294 11.271681048142888 1 rotate no_reflect no_shear #
lump $-1 $-1 $42 $3 #
transform $-1 1 0 0 0 1 0 0 0 1 46.013367107150486 29.677477312717294 11.271681048142888 1 rotate no_reflect no_shear #
lump $-1 $-1 $43 $4 #
transform $-1 1 0 0 0 1 0 0 0 1 46.013367107150486 29.677477312717294 11.271681048142888 1 rotate no_reflect no_shear #
lump $-1 $-1 $44 $5 #
transform $-1 1 0 0 0 1 0 0 0 1 46.013367107150486 29.677477312717294 11.271681048142888 1 rotate no_reflect no_shear #
lump $-1 $-1 $45 $6 #
transform $-1 1 0 0 0 1 0 0 0 1 46.013367107150486 29.677477312717294 11.271681048142888 1 rotate no_reflect no_shear #
lump $-1 $-1 $46 $7 #
transform $-1 1 0 0 0 1 0 0 0 1 46.013367107150486 29.677477312717294 11.271681048142888 1 rotate no_reflect no_shear #
lump $-1 $-1 $47 $8 #
transform $-1 1 0 0 0 1 0 0 0 1 46.013367107150486 29.677477312717294 11.271681048142888 1 rotate no_reflect no_shear #
lump $-1 $-1 $48 $9 #
transform $-1 1 0 0 0 1 0 0 0 1 46.013367107150486 29.677477312717294 11.271681048142888 1 rotate no_reflect no_shear #
lump $-1 $-1 $49 $10 #
transform $-1 1 0 0 0 1 0 0 0 1 46.013367107150486 29.677477312717294 11.271681048142888 1 rotate no_reflect no_shear #
lump $-1 $-1 $50 $11 #
transform $-1 1 0 0 0 1 0 0 0 1 46.013367107150486 29.677477312717294 11.271681048142888 1 rotate no_reflect no_shear #
lump $-1 $-1 $51 $12 #
transform $-1 1 0 0 0 1 0 0 0 1 46.013367107150486 29.677477312717294 11.271681048142888 1 rotate no_reflect no_shear #
shell $-1 $-1 $-1 $52 $-1 $13 #
shell $-1 $-1 $-1 $53 $-1 $15 #
shell $-1 $-1 $-1 $54 $-1 $17 #
shell $-1 $-1 $-1 $55 $-1 $19 #
shell $-1 $-1 $-1 $56 $-1 $21 #
shell $-1 $-1 $-1 $57 $-1 $23 #
shell $-1 $-1 $-1 $58 $-1 $25 #
shell $-1 $-1 $-1 $59 $-1 $27 #
shell $-1 $-1 $-1 $60 $-1 $29 #
shell $-1 $-1 $-1 $61 $-1 $31 #
shell $-1 $-1 $-1 $62 $-1 $33 #
shell $-1 $-1 $-1 $63 $-1 $35 #
shell $-1 $-1 $-1 $64 $-1 $37 #
face $-1 $65 $66 $39 $-1 $67 forward single #
face $-1 $68 $69 $40 $-1 $70 forward single #
face $-1 $71 $72 $41 $-1 $73 reversed single #
face $-1 $74 $75 $42 $-1 $76 forward single #
face $-1 $77 $78 $43 $-1 $79 forward single #
face $-1 $80 $81 $44 $-1 $82 reversed single #
face $-1 $83 $84 $45 $-1 $85 forward single #
face $-1 $86 $87 $46 $-1 $88 reversed single #
face $-1 $89 $90 $47 $-1 $91 forward single #
face $-1 $92 $93 $48 $-1 $94 reversed single #
face $-1 $95 $96 $49 $-1 $97 forward single #
face $-1 $98 $99 $50 $-1 $100 reversed single #
face $-1 $101 $102 $51 $-1 $103 forward single #
face $-1 $104 $105 $39 $-1 $106 reversed single #
loop $-1 $-1 $107 $52 #
plane-surface $-1 0 0 11.271681048142888 0 0 1 1 0 0 forward_v I I I I #
face $-1 $108 $109 $40 $-1 $110 forward single #
loop $-1 $-1 $111 $53 #
plane-surface $-1 0 -29.677477312717294 0 0 1 0 0 0 1 forward_v I I I I #
face $-1 $112 $113 $41 $-1 $114 reversed single #
loop $-1 $-1 $115 $54 #
plane-surface $-1 34.670444593898907 -6.0724087814987655 135.51412726866636 0 -1 0 -0.64278761758704617 0 -0.76604443648966558 forward_v I I I I #
face $-1 $116 $117 $42 $-1 $118 forward single #
loop $-1 $119 $120 $55 #
cone-surface $-1 42.40076014131693 -12.248733156677453 8.1027226325176649 -0.64278761758704617 0 -0.76604443648966558 0.38302221824483279 0 -0.32139380879352308 1 I I 0 1 0.5 forward I I I I #
face $-1 $121 $122 $43 $-1 $123 forward single #
loop $-1 $124 $125 $56 #
cone-surface $-1 42.40076014131693 -8.5429385315702362 8.1027226325176649 -0.64278761758704617 0 -0.76604443648966558 0.38302221824483279 0 -0.32139380879352308 1 I I 0 1 0.5 forward I I I I #
face $-1 $126 $127 $44 $-1 $128 reversed single #
loop $-1 $-1 $129 $57 #
plane-surface $-1 -114.40255920618327 -15.750328999356817 68.849419858299569 0 1 0 -0.74314483375859142 0 0.66913059716165679 forward_v I I I I #
face $-1 $130 $131 $45 $-1 $132 forward single #
loop $-1 $133 $134 $58 #
cone-surface $-1 -43.714121738972516 -12.055817056570866 8.8228704796318453 0.74314483375859142 0 -0.66913059716165679 0.66913059716165679 0 0.74314483375859142 1 I I 0 1 1 forward I I I I #
face $-1 $135 $136 $46 $-1 $137 reversed single #
loop $-1 $-1 $138 $59 #
plane-surface $-1 -114.40255920618327 -3.8061939492293364 68.849419858299569 0 1 0 -0.74314483375859142 0 0.66913059716165679 forward_v I I I I #
face $-1 $139 $140 $47 $-1 $141 forward single #
loop $-1 $142 $143 $60 #
cone-surface $-1 -43.714121738972516 -0.11168200644338455 8.8228704796318453 0.74314483375859142 0 -0.66913059716165679 0.66913059716165679 0 0.74314483375859142 1 I I 0 1 1 forward I I I I #
face $-1 $144 $145 $48 $-1 $146 reversed single #
loop $-1 $-1 $147 $61 #
plane-surface $-1 -114.40255920618327 8.1379411008981464 68.849419858299569 0 1 0 -0.74314483375859142 0 0.66913059716165679 forward_v I I I I #
face $-1 $148 $149 $49 $-1 $150 forward single #
loop $-1 $151 $152 $62 #
cone-surface $-1 -43.714121738972516 11.832453043684097 8.8228704796318453 0.74314483375859142 0 -0.66913059716165679 0.66913059716165679 0 0.74314483375859142 1 I I 0 1 1 forward I I I I #
face $-1 $153 $154 $50 $-1 $155 reversed single #
loop $-1 $-1 $156 $63 #
plane-surface $-1 -114.40255920618327 20.082076151025625 68.849419858299569 0 1 0 -0.74314483375859142 0 0.66913059716165679 forward_v I I I I #
face $-1 $157 $158 $51 $-1 $159 forward single #
loop $-1 $160 $161 $64 #
cone-surface $-1 -43.714121738972516 23.776588093811576 8.8228704796318453 0.74314483375859142 0 -0.66913059716165679 0.66913059716165679 0 0.74314483375859142 1 I I 0 1 1 forward I I I I #
face $-1 $162 $163 $39 $-1 $164 reversed single #
loop $-1 $-1 $165 $65 #
plane-surface $-1 0 0 -11.271681048142888 0 0 1 1 0 0 forward_v I I I I #
coedge $-1 $166 $167 $168 $169 forward $66 $-1 #
face $-1 $170 $171 $40 $-1 $172 reversed single #
loop $-1 $-1 $173 $68 #
plane-surface $-1 0 0 11.271681048142888 0 0 1 1 0 0 forward_v I I I I #
coedge $-1 $174 $175 $176 $177 forward $69 $-1 #
face $-1 $178 $179 $41 $-1 $180 reversed single #
loop $-1 $-1 $181 $71 #
plane-surface $-1 -24.483200646027925 -10.395835844123848 65.017559515487946 0.64278761758704617 0 0.76604443648966558 0.76604443648966558 0 -0.64278761758704617 forward_v I I I I #
coedge $-1 $182 $183 $184 $185 reversed $72 $-1 #
face $-1 $-1 $186 $42 $-1 $187 forward single #
loop $-1 $188 $189 $74 #
cone-surface $-1 41.849818943162319 -12.248733156677453 7.4461364940609158 -0.64278761758704617 0 -0.76604443648966558 0.1915111091224164 0 -0.16069690439676154 1 I I -0.70710678118654746 0.70710678118654746 0.25 forward I I I I #
loop $-1 $-1 $190 $55 #
coedge $-1 $120 $120 $191 $192 reversed $75 $-1 #
face $-1 $-1 $193 $43 $-1 $194 forward single #
loop $-1 $195 $196 $77 #
cone-surface $-1 41.849818943162319 -8.5429385315702362 7.4461364940609158 -0.64278761758704617 0 -0.76604443648966558 0.1915111091224164 0 -0.16069690439676154 1 I I -0.70710678118654746 0.70710678118654746 0.25 forward I I I I #
loop $-1 $-1 $197 $56 #
coedge $-1 $125 $125 $198 $199 reversed $78 $-1 #
face $-1 $200 $201 $44 $-1 $202 reversed single #
loop $-1 $-1 $203 $80 #
plane-surface $-1 -46.013367107150501 -12.055817056570866 7.2715162386472869 -0.74314483375859142 0 0.66913059716165679 0.66913059716165679 0 0.74314483375859142 forward_v I I I I #
coedge $-1 $204 $205 $206 $207 reversed $81 $-1 #
face $-1 $-1 $208 $45 $-1 $209 forward single #
loop $-1 $210 $211 $83 #
cone-surface $-1 -42.844186195257954 -12.055817056570866 8.0395770172877725 0.74314483375859142 0 -0.66913059716165679 0.3345652985808284 0 0.37157241687929571 1 I I -0.70710678118654746 0.70710678118654746 0.5 forward I I I I #
loop $-1 $-1 $212 $58 #
coedge $-1 $134 $134 $213 $214 reversed $84 $-1 #
face $-1 $215 $216 $46 $-1 $217 reversed single #
loop $-1 $-1 $218 $86 #
plane-surface $-1 -46.013367107150501 -0.11168200644338455 7.2715162386472869 -0.74314483375859142 0 0.66913059716165679 0.66913059716165679 0 0.74314483375859142 forward_v I I I I #
coedge $-1 $219 $220 $221 $222 reversed $87 $-1 #
face $-1 $-1 $223 $47 $-1 $224 forward single #
loop $-1 $225 $226 $89 #
cone-surface $-1 -42.844186195257954 -0.11168200644338455 8.0395770172877725 0.74314483375859142 0 -0.66913059716165679 0.3345652985808284 0 0.37157241687929571 1 I I -0.70710678118654746 0.70710678118654746 0.5 forward I I I I #
loop $-1 $-1 $227 $60 #
coedge $-1 $143 $143 $228 $229 reversed $90 $-1 #
face $-1 $230 $231 $48 $-1 $232 reversed single #
loop $-1 $-1 $233 $92 #
plane-surface $-1 -46.013367107150501 11.832453043684097 7.2715162386472869 -0.74314483375859142 0 0.66913059716165679 0.66913059716165679 0 0.74314483375859142 forward_v I I I I #
coedge $-1 $234 $235 $236 $237 reversed $93 $-1 #
face $-1 $-1 $238 $49 $-1 $239 forward single #
loop $-1 $240 $241 $95 #
cone-surface $-1 -42.844186195257954 11.832453043684097 8.0395770172877725 0.74314483375859142 0 -0.66913059716165679 0.3345652985808284 0 0.37157241687929571 1 I I -0.70710678118654746 0.70710678118654746 0.5 forward I I I I #
loop $-1 $-1 $242 $62 #
coedge $-1 $152 $152 $243 $244 reversed $96 $-1 #
face $-1 $245 $246 $50 $-1 $247 reversed single #
loop $-1 $-1 $248 $98 #
plane-surface $-1 -46.013367107150501 23.776588093811576 7.2715162386472869 -0.74314483375859142 0 0.66913059716165679 0.66913059716165679 0 0.74314483375859142 forward_v I I I I #
coedge $-1 $249 $250 $251 $252 reversed $99 $-1 #
face $-1 $-1 $253 $51 $-1 $254 forward single #
loop $-1 $255 $256 $101 #
cone-surface $-1 -42.844186195257954 23.776588093811576 8.0395770172877725 0.74314483375859142 0 -0.66913059716165679 0.3345652985808284 0 0.37157241687929571 1 I I -0.70710678118654746 0.70710678118654746 0.5 forward I I I I #
loop $-1 $-1 $257 $64 #
coedge $-1 $161 $161 $258 $259 reversed $102 $-1 #
face $-1 $260 $261 $39 $-1 $262 reversed single #
loop $-1 $-1 $263 $104 #
plane-surface $-1 0 -29.677477312717294 0 0 1 0 0 0 1 forward_v I I I I #
coedge $-1 $264 $265 $266 $267 forward $105 $-1 #
coedge $-1 $268 $107 $269 $270 forward $66 $-1 #
coedge $-1 $107 $268 $271 $272 forward $66 $-1 #
coedge $-1 $273 $274 $107 $169 reversed $275 $-1 #
edge $-1 $276 -29.677477312717294 $277 29.677477312717294 $168 $278 forward 7 unknown #
face $-1 $279 $280 $40 $-1 $281 reversed single #
loop $-1 $-1 $282 $108 #
plane-surface $-1 -46.013367107150486 0 0 1 0 0 0 0 -1 forward_v I I I I #
coedge $-1 $283 $284 $175 $285 forward $109 $-1 #
coedge $-1 $286 $111 $287 $288 reversed $69 $-1 #
coedge $-1 $111 $286 $173 $285 reversed $69 $-1 #
coedge $-1 $289 $290 $111 $177 reversed $291 $-1 #
edge $-1 $292 -11.271681048142888 $293 11.271681048142888 $176 $294 forward 7 unknown #
face $-1 $295 $296 $41 $-1 $297 forward single #
loop $-1 $-1 $298 $112 #
plane-surface $-1 34.670444593898907 -14.719262906748931 135.51412726866636 0 1 0 0.64278761758704617 0 0.76604443648966558 forward_v I I I I #
coedge $-1 $299 $300 $301 $302 reversed $113 $-1 #
coedge $-1 $183 $115 $303 $304 reversed $72 $-1 #
coedge $-1 $115 $182 $299 $305 reversed $72 $-1 #
coedge $-1 $301 $306 $115 $185 forward $296 $-1 #
edge $-1 $307 -28.678144810201033 $308 -22.233419466049625 $184 $309 forward 7 unknown #
loop $-1 $-1 $191 $116 #
plane-surface $-1 -24.483200646027925 -10.395835844123848 65.017559515487946 0.64278761758704617 0 0.76604443648966558 0.76604443648966558 0 -0.64278761758704617 forward_v I I I I #
loop $-1 $-1 $310 $74 #
coedge $-1 $189 $189 $190 $311 reversed $117 $-1 #
coedge $-1 $190 $190 $189 $311 forward $119 $-1 #
coedge $-1 $191 $191 $120 $192 forward $186 $-1 #
edge $-1 $312 0 $312 6.2831853071796004 $191 $313 forward 7 unknown #
loop $-1 $-1 $198 $121 #
plane-surface $-1 -24.483200646027925 -10.395835844123848 65.017559515487946 0.64278761758704617 0 0.76604443648966558 0.76604443648966558 0 -0.64278761758704617 forward_v I I I I #
loop $-1 $-1 $314 $77 #
coedge $-1 $196 $196 $197 $315 reversed $122 $-1 #
coedge $-1 $197 $197 $196 $315 forward $124 $-1 #
coedge $-1 $198 $198 $125 $199 forward $193 $-1 #
edge $-1 $316 0 $316 6.2831853071796004 $198 $317 forward 7 unknown #
face $-1 $318 $319 $44 $-1 $320 reversed single #
loop $-1 $-1 $321 $126 #
plane-surface $-1 -114.40255920618327 -8.3613051137849155 68.849419858299569 0 -1 0 0.74314483375859142 0 -0.66913059716165679 forward_v I I I I #
coedge $-1 $322 $323 $324 $325 reversed $127 $-1 #
coedge $-1 $205 $129 $326 $327 reversed $81 $-1 #
coedge $-1 $129 $204 $322 $328 reversed $81 $-1 #
coedge $-1 $324 $329 $129 $207 forward $330 $-1 #
edge $-1 $331 11.187912495941148 $332 14.789676978626531 $206 $333 forward 7 unknown #
loop $-1 $-1 $213 $130 #
plane-surface $-1 -46.013367107150501 -12.055817056570866 7.2715162386472869 -0.74314483375859142 0 0.66913059716165679 0.66913059716165679 0 0.74314483375859142 forward_v I I I I #
loop $-1 $-1 $334 $83 #
coedge $-1 $211 $211 $212 $335 reversed $131 $-1 #
coedge $-1 $212 $212 $211 $335 forward $133 $-1 #
coedge $-1 $213 $213 $134 $214 forward $208 $-1 #
edge $-1 $336 0 $336 6.2831853071796004 $213 $337 forward 7 unknown #
face $-1 $338 $339 $46 $-1 $340 forward single #
loop $-1 $-1 $341 $135 #
plane-surface $-1 -114.40255920618327 3.5828299363425673 68.849419858299569 0 -1 0 0.74314483375859142 0 -0.66913059716165679 forward_v I I I I #
coedge $-1 $342 $343 $344 $345 reversed $136 $-1 #
coedge $-1 $220 $138 $346 $347 reversed $87 $-1 #
coedge $-1 $138 $219 $342 $348 reversed $87 $-1 #
coedge $-1 $344 $349 $138 $222 forward $339 $-1 #
edge $-1 $350 11.187912495941148 $351 14.789676978626531 $221 $352 forward 7 unknown #
loop $-1 $-1 $228 $139 #
plane-surface $-1 -46.013367107150501 -0.11168200644338455 7.2715162386472869 -0.74314483375859142 0 0.66913059716165679 0.66913059716165679 0 0.74314483375859142 forward_v I I I I #
loop $-1 $-1 $353 $89 #
coedge $-1 $226 $226 $227 $354 reversed $140 $-1 #
coedge $-1 $227 $227 $226 $354 forward $142 $-1 #
coedge $-1 $228 $228 $143 $229 forward $223 $-1 #
edge $-1 $355 0 $355 6.2831853071796004 $228 $356 forward 7 unknown #
face $-1 $357 $358 $48 $-1 $359 forward single #
loop $-1 $-1 $360 $144 #
plane-surface $-1 -114.40255920618327 15.526964986470048 68.849419858299569 0 -1 0 0.74314483375859142 0 -0.66913059716165679 forward_v I I I I #
coedge $-1 $361 $362 $363 $364 reversed $145 $-1 #
coedge $-1 $235 $147 $365 $366 reversed $93 $-1 #
coedge $-1 $147 $234 $361 $367 reversed $93 $-1 #
coedge $-1 $363 $368 $147 $237 forward $358 $-1 #
edge $-1 $369 11.187912495941148 $370 14.789676978626531 $236 $371 forward 7 unknown #
loop $-1 $-1 $243 $148 #
plane-surface $-1 -46.013367107150501 11.832453043684097 7.2715162386472869 -0.74314483375859142 0 0.66913059716165679 0.66913059716165679 0 0.74314483375859142 forward_v I I I I #
loop $-1 $-1 $372 $95 #
coedge $-1 $241 $241 $242 $373 reversed $149 $-1 #
coedge $-1 $242 $242 $241 $373 forward $151 $-1 #
coedge $-1 $243 $243 $152 $244 forward $238 $-1 #
edge $-1 $374 0 $374 6.2831853071796004 $243 $375 forward 7 unknown #
face $-1 $376 $377 $50 $-1 $378 forward single #
loop $-1 $-1 $379 $153 #
plane-surface $-1 -114.40255920618327 27.471100036597527 68.849419858299569 0 -1 0 0.74314483375859142 0 -0.66913059716165679 forward_v I I I I #
coedge $-1 $380 $381 $382 $383 reversed $154 $-1 #
coedge $-1 $250 $156 $384 $385 reversed $99 $-1 #
coedge $-1 $156 $249 $380 $386 reversed $99 $-1 #
coedge $-1 $382 $387 $156 $252 forward $377 $-1 #
edge $-1 $388 11.187912495941148 $389 14.789676978626531 $251 $390 forward 7 unknown #
loop $-1 $-1 $258 $157 #
plane-surface $-1 -46.013367107150501 23.776588093811576 7.2715162386472869 -0.74314483375859142 0 0.66913059716165679 0.66913059716165679 0 0.74314483375859142 forward_v I I I I #
loop $-1 $-1 $391 $101 #
coedge $-1 $256 $256 $257 $392 reversed $158 $-1 #
coedge $-1 $257 $257 $256 $392 forward $160 $-1 #
coedge $-1 $258 $258 $161 $259 forward $253 $-1 #
edge $-1 $393 0 $393 6.2831853071796004 $258 $394 forward 7 unknown #
face $-1 $395 $396 $39 $-1 $397 reversed single #
loop $-1 $-1 $398 $162 #
plane-surface $-1 -46.013367107150486 0 0 1 0 0 0 0 -1 forward_v I I I I #
coedge $-1 $399 $271 $400 $401 forward $163 $-1 #
coedge $-1 $402 $165 $399 $403 forward $105 $-1 #
coedge $-1 $165 $402 $404 $405 forward $105 $-1 #
coedge $-1 $274 $273 $165 $267 reversed $275 $-1 #
edge $-1 $406 -29.677477312717294 $407 29.677477312717294 $266 $408 forward 7 unknown #
coedge $-1 $167 $166 $409 $410 forward $66 $-1 #
coedge $-1 $411 $412 $166 $270 reversed $396 $-1 #
edge $-1 $277 -46.013367107150486 $413 46.013367107150486 $269 $414 forward 7 unknown #
coedge $-1 $263 $415 $167 $272 reversed $163 $-1 #
edge $-1 $416 -46.013367107150486 $276 46.013367107150486 $271 $417 forward 7 unknown #
coedge $-1 $266 $168 $415 $418 forward $275 $-1 #
coedge $-1 $168 $266 $411 $419 reversed $275 $-1 #
loop $-1 $-1 $273 $395 #
vertex $-1 $169 $420 #
vertex $-1 $169 $421 #
straight-curve $-1 46.013367107150486 0 11.271681048142888 0 1 0 I I #
face $-1 $422 $291 $40 $-1 $423 reversed single #
loop $-1 $-1 $424 $170 #
plane-surface $-1 -42.709949636114963 -41.255891737641939 0 0 1 0 0 0 1 forward_v I I I I #
coedge $-1 $425 $426 $286 $427 forward $171 $-1 #
coedge $-1 $428 $173 $426 $429 forward $109 $-1 #
coedge $-1 $173 $428 $289 $430 forward $109 $-1 #
edge $-1 $292 39.40653216507944 $431 46.013367107150486 $173 $432 forward 7 unknown #
coedge $-1 $175 $174 $282 $427 reversed $69 $-1 #
coedge $-1 $433 $434 $174 $288 forward $435 $-1 #
edge $-1 $436 -46.013367107150486 $293 -39.40653216507944 $287 $437 forward 7 unknown #
coedge $-1 $438 $176 $284 $430 reversed $291 $-1 #
coedge $-1 $176 $438 $433 $439 reversed $291 $-1 #
loop $-1 $-1 $438 $279 #
vertex $-1 $285 $440 #
vertex $-1 $439 $441 #
straight-curve $-1 -39.40653216507944 -29.677477312717294 0 0 0 -1 I I #
face $-1 $-1 $442 $41 $-1 $443 reversed single #
loop $-1 $-1 $184 $178 #
plane-surface $-1 0 0 11.271681048142888 0 0 1 1 0 0 forward_v I I I I #
coedge $-1 $444 $445 $446 $447 reversed $179 $-1 #
coedge $-1 $448 $181 $183 $305 forward $113 $-1 #
coedge $-1 $181 $448 $444 $449 forward $113 $-1 #
coedge $-1 $446 $184 $181 $302 forward $296 $-1 #
edge $-1 $308 0.87449085943684146 $450 9.5213449846870066 $301 $451 forward 7 unknown #
coedge $-1 $452 $453 $182 $304 forward $442 $-1 #
edge $-1 $454 -61.893149358772064 $307 -56.485382586190291 $303 $455 forward 7 unknown #
edge $-1 $308 83.613742699495617 $454 92.026734214300973 $183 $456 forward 7 unknown #
coedge $-1 $184 $446 $452 $457 forward $296 $-1 #
vertex $-1 $304 $458 #
vertex $-1 $185 $459 #
straight-curve $-1 17.335222296949453 -6.0724087814987655 11.271681048142888 -1 0 0 I I #
coedge $-1 $310 $310 $-1 $460 reversed $188 $-1 #
edge $-1 $461 0 $461 6.2831853071796004 $189 $462 forward 7 unknown #
vertex $-1 $192 $463 #
ellipse-curve $-1 42.79100443507479 -12.248733156677453 8.5677976618520049 0.64278761758704617 0 0.76604443648966558 0.38302221824483279 0 -0.32139380879352308 1 I I #
coedge $-1 $314 $314 $-1 $464 reversed $195 $-1 #
edge $-1 $465 0 $465 6.2831853071796004 $196 $466 forward 7 unknown #
vertex $-1 $199 $467 #
ellipse-curve $-1 42.79100443507479 -8.5429385315702362 8.5677976618520049 0.64278761758704617 0 0.76604443648966558 0.38302221824483279 0 -0.32139380879352308 1 I I #
face $-1 $-1 $330 $44 $-1 $468 forward single #
loop $-1 $-1 $469 $200 #
plane-surface $-1 -46.013367107150486 0 0 1 0 0 0 0 -1 forward_v I I I I #
coedge $-1 $470 $471 $472 $473 reversed $201 $-1 #
coedge $-1 $474 $203 $205 $328 forward $127 $-1 #
coedge $-1 $203 $474 $470 $475 forward $127 $-1 #
coedge $-1 $472 $206 $203 $325 forward $330 $-1 #
edge $-1 $332 -9.7224204710713842 $476 -2.3333965854994823 $324 $477 forward 7 unknown #
coedge $-1 $478 $479 $204 $327 forward $319 $-1 #
edge $-1 $480 -27.153193690502484 $331 -23.153028881006897 $326 $481 forward 7 unknown #
edge $-1 $332 -5.3827526314945011 $480 -2.1389731374768986e-014 $205 $482 forward 7 unknown #
coedge $-1 $206 $472 $478 $483 forward $330 $-1 #
loop $-1 $-1 $472 $318 #
vertex $-1 $327 $484 #
vertex $-1 $207 $485 #
straight-curve $-1 -57.201279603091635 -15.750328999356817 11.271681048142888 1 0 0 I I #
coedge $-1 $334 $334 $-1 $486 reversed $210 $-1 #
edge $-1 $487 0 $487 6.2831853071796004 $211 $488 forward 7 unknown #
vertex $-1 $214 $489 #
ellipse-curve $-1 -44.212484865807795 -12.055817056570866 9.2715986433950981 -0.74314483375859142 0 0.66913059716165679 0.66913059716165679 0 0.74314483375859142 1 I I #
face $-1 $-1 $490 $46 $-1 $491 reversed single #
loop $-1 $-1 $221 $215 #
plane-surface $-1 0 0 11.271681048142888 0 0 1 1 0 0 forward_v I I I I #
coedge $-1 $492 $493 $494 $495 reversed $216 $-1 #
coedge $-1 $496 $218 $220 $348 forward $136 $-1 #
coedge $-1 $218 $496 $492 $497 forward $136 $-1 #
coedge $-1 $494 $221 $218 $345 forward $339 $-1 #
edge $-1 $351 -3.7503529460076441 $498 3.6386709395642596 $344 $499 forward 7 unknown #
coedge $-1 $500 $501 $219 $347 forward $490 $-1 #
edge $-1 $502 -27.153193690502484 $350 -23.153028881006897 $346 $503 forward 7 unknown #
edge $-1 $351 -5.3827526314945011 $502 -2.1389731374768986e-014 $220 $504 forward 7 unknown #
coedge $-1 $221 $494 $500 $505 forward $339 $-1 #
vertex $-1 $347 $506 #
vertex $-1 $222 $507 #
straight-curve $-1 -57.201279603091635 -3.8061939492293364 11.271681048142888 1 0 0 I I #
coedge $-1 $353 $353 $-1 $508 reversed $225 $-1 #
edge $-1 $509 0 $509 6.2831853071796004 $226 $510 forward 7 unknown #
vertex $-1 $229 $511 #
ellipse-curve $-1 -44.212484865807795 -0.11168200644338455 9.2715986433950981 -0.74314483375859142 0 0.66913059716165679 0.66913059716165679 0 0.74314483375859142 1 I I #
face $-1 $-1 $512 $48 $-1 $513 reversed single #
loop $-1 $-1 $236 $230 #
plane-surface $-1 0 0 11.271681048142888 0 0 1 1 0 0 forward_v I I I I #
coedge $-1 $514 $515 $516 $517 reversed $231 $-1 #
coedge $-1 $518 $233 $235 $367 forward $145 $-1 #
coedge $-1 $233 $518 $514 $519 forward $145 $-1 #
coedge $-1 $516 $236 $233 $364 forward $358 $-1 #
edge $-1 $370 2.2217145790560977 $520 9.6107384646279996 $363 $521 forward 7 unknown #
coedge $-1 $522 $523 $234 $366 forward $512 $-1 #
edge $-1 $524 -27.153193690502484 $369 -23.153028881006897 $365 $525 forward 7 unknown #
edge $-1 $370 -5.3827526314945011 $524 -2.1389731374768986e-014 $235 $526 forward 7 unknown #
coedge $-1 $236 $516 $522 $527 forward $358 $-1 #
vertex $-1 $237 $528 #
vertex $-1 $237 $529 #
straight-curve $-1 -57.201279603091635 8.1379411008981464 11.271681048142888 1 0 0 I I #
coedge $-1 $372 $372 $-1 $530 reversed $240 $-1 #
edge $-1 $531 0 $531 6.2831853071796004 $241 $532 forward 7 unknown #
vertex $-1 $244 $533 #
ellipse-curve $-1 -44.212484865807795 11.832453043684097 9.2715986433950981 -0.74314483375859142 0 0.66913059716165679 0.66913059716165679 0 0.74314483375859142 1 I I #
face $-1 $-1 $534 $50 $-1 $535 reversed single #
loop $-1 $-1 $251 $245 #
plane-surface $-1 0 0 11.271681048142888 0 0 1 1 0 0 forward_v I I I I #
coedge $-1 $536 $537 $538 $539 reversed $246 $-1 #
coedge $-1 $540 $248 $250 $386 forward $154 $-1 #
coedge $-1 $248 $540 $536 $541 forward $154 $-1 #
coedge $-1 $538 $251 $248 $383 forward $377 $-1 #
edge $-1 $389 8.1937821041198369 $542 15.582805989691739 $382 $543 forward 7 unknown #
coedge $-1 $544 $545 $249 $385 forward $534 $-1 #
edge $-1 $546 -27.153193690502484 $388 -23.153028881006897 $384 $547 forward 7 unknown #
edge $-1 $389 -5.3827526314945011 $546 -2.1389731374768986e-014 $250 $548 forward 7 unknown #
coedge $-1 $251 $538 $544 $549 forward $377 $-1 #
vertex $-1 $252 $550 #
vertex $-1 $252 $551 #
straight-curve $-1 -57.201279603091635 20.082076151025625 11.271681048142888 1 0 0 I I #
coedge $-1 $391 $391 $-1 $552 reversed $255 $-1 #
edge $-1 $553 0 $553 6.2831853071796004 $256 $554 forward 7 unknown #
vertex $-1 $259 $555 #
ellipse-curve $-1 -44.212484865807795 23.776588093811576 9.2715986433950981 -0.74314483375859142 0 0.66913059716165679 0.66913059716165679 0 0.74314483375859142 1 I I #
face $-1 $-1 $275 $39 $-1 $556 reversed single #
loop $-1 $-1 $411 $260 #
plane-surface $-1 0 29.677477312717294 0 0 -1 0 0 0 -1 forward_v I I I I #
coedge $-1 $557 $409 $412 $558 forward $261 $-1 #
coedge $-1 $415 $263 $264 $403 reversed $163 $-1 #
coedge $-1 $409 $557 $263 $401 reversed $261 $-1 #
edge $-1 $416 -11.271681048142888 $559 11.271681048142888 $400 $560 forward 7 unknown #
coedge $-1 $265 $264 $557 $561 forward $105 $-1 #
edge $-1 $407 -46.013367107150486 $559 46.013367107150486 $399 $562 forward 7 unknown #
coedge $-1 $412 $411 $265 $405 reversed $396 $-1 #
edge $-1 $563 -46.013367107150486 $406 46.013367107150486 $404 $564 forward 7 unknown #
vertex $-1 $267 $565 #
vertex $-1 $418 $566 #
straight-curve $-1 46.013367107150486 0 -11.271681048142888 0 -1 0 I I #
coedge $-1 $398 $400 $268 $410 reversed $261 $-1 #
edge $-1 $413 -29.677477312717294 $416 29.677477312717294 $409 $567 forward 7 unknown #
coedge $-1 $404 $269 $274 $419 forward $396 $-1 #
coedge $-1 $269 $404 $398 $558 reversed $396 $-1 #
vertex $-1 $270 $568 #
straight-curve $-1 0 29.677477312717294 11.271681048142888 -1 0 0 I I #
coedge $-1 $271 $399 $273 $418 reversed $163 $-1 #
vertex $-1 $410 $569 #
straight-curve $-1 0 -29.677477312717294 11.271681048142888 1 0 0 I I #
edge $-1 $276 -11.271681048142888 $407 11.271681048142888 $273 $570 forward 7 unknown #
edge $-1 $277 -11.271681048142888 $406 11.271681048142888 $274 $571 forward 7 unknown #
point $-1 46.013367107150486 -29.677477312717294 11.271681048142888 #
point $-1 46.013367107150486 29.677477312717294 11.271681048142888 #
face $-1 $-1 $435 $40 $-1 $572 reversed single #
plane-surface $-1 -39.40653216507944 -35.466684525179616 0 -1 0 0 0 0 1 forward_v I I I I #
coedge $-1 $573 $574 $575 $576 forward $280 $-1 #
coedge $-1 $575 $282 $434 $577 reversed $171 $-1 #
coedge $-1 $282 $575 $283 $429 reversed $171 $-1 #
edge $-1 $431 -11.271681048142888 $436 11.271681048142888 $282 $578 forward 7 unknown #
coedge $-1 $284 $283 $574 $579 forward $109 $-1 #
edge $-1 $431 29.677477312717294 $580 41.255891737641939 $426 $581 forward 7 unknown #
edge $-1 $582 -5.7892072124623226 $292 5.7892072124623262 $289 $583 forward 7 unknown #
vertex $-1 $429 $584 #
straight-curve $-1 0 -29.677477312717294 11.271681048142888 -1 0 0 I I #
coedge $-1 $585 $287 $290 $439 forward $435 $-1 #
coedge $-1 $287 $585 $425 $577 forward $435 $-1 #
loop $-1 $-1 $287 $422 #
vertex $-1 $427 $586 #
straight-curve $-1 0 -29.677477312717294 -11.271681048142888 1 0 0 I I #
coedge $-1 $290 $289 $587 $588 forward $291 $-1 #
edge $-1 $293 -5.7892072124623262 $589 5.7892072124623226 $290 $590 forward 7 unknown #
point $-1 -39.40653216507944 -29.67747731271729 11.271681048142888 #
point $-1 -39.40653216507944 -29.67747731271729 -11.271681048142888 #
loop $-1 $-1 $303 $295 #
plane-surface $-1 46.013367107150486 0 0 -1 0 0 0 0 1 forward_v I I I I #
coedge $-1 $445 $298 $300 $449 reversed $179 $-1 #
coedge $-1 $298 $444 $591 $592 reversed $179 $-1 #
coedge $-1 $306 $301 $298 $447 forward $296 $-1 #
edge $-1 $450 22.233419466049625 $593 28.678144810201033 $446 $594 forward 7 unknown #
coedge $-1 $300 $299 $453 $595 reversed $113 $-1 #
edge $-1 $596 -92.026734214300973 $450 -83.613742699495617 $444 $597 forward 7 unknown #
vertex $-1 $302 $598 #
straight-curve $-1 39.568641762999079 -5.197917922061924 11.271681048142888 0 -1 0 I I #
coedge $-1 $591 $303 $306 $457 reversed $442 $-1 #
coedge $-1 $303 $591 $448 $595 forward $442 $-1 #
vertex $-1 $304 $599 #
straight-curve $-1 46.013367107150486 -6.0724087814987655 67.757063634333178 0 0 1 I I #
straight-curve $-1 -24.483200646027925 -6.0724087814987655 65.017559515487946 0.76604443648966558 0 -0.64278761758704617 I I #
edge $-1 $593 -14.719262906748931 $307 -6.0724087814987655 $452 $600 forward 7 unknown #
point $-1 46.013367107150486 -6.0724087814987655 11.271681048142888 #
point $-1 39.568641762999079 -6.0724087814987655 11.271681048142881 #
edge $-1 $601 1 $601 0 $310 $-1 forward 7 unknown #
vertex $-1 $311 $602 #
ellipse-curve $-1 42.010515847559077 -12.248733156677453 7.637647603183332 0.64278761758704617 0 0.76604443648966558 0.38302221824483279 0 -0.32139380879352308 1 I I #
point $-1 43.174026653319615 -12.248733156677453 8.2464038530584727 #
edge $-1 $603 1 $603 0 $314 $-1 forward 7 unknown #
vertex $-1 $315 $604 #
ellipse-curve $-1 42.010515847559077 -8.5429385315702362 7.637647603183332 0.64278761758704617 0 0.76604443648966558 0.38302221824483279 0 -0.32139380879352308 1 I I #
point $-1 43.174026653319615 -8.5429385315702362 8.2464038530584727 #
plane-surface $-1 0 0 11.271681048142888 0 0 1 1 0 0 forward_v I I I I #
coedge $-1 $479 $478 $471 $605 forward $319 $-1 #
coedge $-1 $471 $321 $323 $475 reversed $201 $-1 #
coedge $-1 $321 $470 $469 $605 reversed $201 $-1 #
coedge $-1 $329 $324 $321 $473 forward $330 $-1 #
edge $-1 $476 -14.789676978626531 $606 -11.187912495941148 $472 $607 forward 7 unknown #
coedge $-1 $323 $322 $479 $608 reversed $127 $-1 #
edge $-1 $609 2.1389731374768986e-014 $476 5.3827526314945011 $470 $610 forward 7 unknown #
vertex $-1 $325 $611 #
straight-curve $-1 -42.411602624465104 -6.0279085282854332 11.271681048142888 0 1 0 I I #
coedge $-1 $469 $326 $329 $483 reversed $319 $-1 #
coedge $-1 $326 $469 $474 $608 forward $319 $-1 #
vertex $-1 $327 $612 #
straight-curve $-1 -46.013367107150486 -15.750328999356817 34.424709929149785 0 0 1 I I #
straight-curve $-1 -46.013367107150501 -15.750328999356817 7.2715162386472869 -0.66913059716165679 0 -0.74314483375859142 I I #
edge $-1 $606 8.3613051137849155 $331 15.750328999356817 $478 $613 forward 7 unknown #
point $-1 -46.013367107150486 -15.750328999356817 11.271681048142888 #
point $-1 -42.411602624465104 -15.750328999356817 11.271681048142888 #
edge $-1 $614 1 $614 0 $334 $-1 forward 7 unknown #
vertex $-1 $335 $615 #
ellipse-curve $-1 -43.21575861213725 -12.055817056570866 8.3741423158686015 -0.74314483375859142 0 0.66913059716165679 0.66913059716165679 0 0.74314483375859142 1 I I #
point $-1 -43.543354268646134 -12.055817056570866 10.014743477153681 #
loop $-1 $-1 $346 $338 #
plane-surface $-1 -46.013367107150486 0 0 1 0 0 0 0 -1 forward_v I I I I #
coedge $-1 $493 $341 $343 $497 reversed $216 $-1 #
coedge $-1 $341 $492 $616 $617 reversed $216 $-1 #
coedge $-1 $349 $344 $341 $495 forward $339 $-1 #
edge $-1 $498 -14.789676978626531 $618 -11.187912495941148 $494 $619 forward 7 unknown #
coedge $-1 $343 $342 $501 $620 reversed $136 $-1 #
edge $-1 $621 2.1389731374768986e-014 $498 5.3827526314945011 $492 $622 forward 7 unknown #
vertex $-1 $345 $623 #
straight-curve $-1 -42.411602624465104 -0.055841003221692276 11.271681048142888 0 1 0 I I #
coedge $-1 $616 $346 $349 $505 reversed $490 $-1 #
coedge $-1 $346 $616 $496 $620 forward $490 $-1 #
vertex $-1 $347 $624 #
straight-curve $-1 -46.013367107150486 -3.8061939492293364 34.424709929149785 0 0 1 I I #
straight-curve $-1 -46.013367107150501 -3.8061939492293364 7.2715162386472869 -0.66913059716165679 0 -0.74314483375859142 I I #
edge $-1 $618 -3.5828299363425673 $350 3.8061939492293364 $500 $625 forward 7 unknown #
point $-1 -46.013367107150486 -3.8061939492293364 11.271681048142888 #
point $-1 -42.411602624465104 -3.8061939492293364 11.271681048142888 #
edge $-1 $626 1 $626 0 $353 $-1 forward 7 unknown #
vertex $-1 $354 $627 #
ellipse-curve $-1 -43.21575861213725 -0.11168200644338455 8.3741423158686015 -0.74314483375859142 0 0.66913059716165679 0.66913059716165679 0 0.74314483375859142 1 I I #
point $-1 -43.543354268646134 -0.11168200644338455 10.014743477153681 #
loop $-1 $-1 $365 $357 #
plane-surface $-1 -46.013367107150486 0 0 1 0 0 0 0 -1 forward_v I I I I #
coedge $-1 $515 $360 $362 $519 reversed $231 $-1 #
coedge $-1 $360 $514 $628 $629 reversed $231 $-1 #
coedge $-1 $368 $363 $360 $517 forward $358 $-1 #
edge $-1 $520 -14.789676978626531 $630 -11.187912495941148 $516 $631 forward 7 unknown #
coedge $-1 $362 $361 $523 $632 reversed $145 $-1 #
edge $-1 $633 2.1389731374768986e-014 $520 5.3827526314945011 $514 $634 forward 7 unknown #
vertex $-1 $364 $635 #
straight-curve $-1 -42.411602624465104 5.9162265218420487 11.271681048142888 0 1 0 I I #
coedge $-1 $628 $365 $368 $527 reversed $512 $-1 #
coedge $-1 $365 $628 $518 $632 forward $512 $-1 #
vertex $-1 $366 $636 #
straight-curve $-1 -46.013367107150486 8.1379411008981464 34.424709929149785 0 0 1 I I #
straight-curve $-1 -46.013367107150501 8.1379411008981464 7.2715162386472869 -0.66913059716165679 0 -0.74314483375859142 I I #
edge $-1 $630 -15.526964986470048 $369 -8.1379411008981464 $522 $637 forward 7 unknown #
point $-1 -46.013367107150486 8.1379411008981464 11.271681048142888 #
point $-1 -42.411602624465104 8.1379411008981464 11.271681048142888 #
edge $-1 $638 1 $638 0 $372 $-1 forward 7 unknown #
vertex $-1 $373 $639 #
ellipse-curve $-1 -43.21575861213725 11.832453043684097 8.3741423158686015 -0.74314483375859142 0 0.66913059716165679 0.66913059716165679 0 0.74314483375859142 1 I I #
point $-1 -43.543354268646134 11.832453043684097 10.014743477153681 #
loop $-1 $-1 $384 $376 #
plane-surface $-1 -46.013367107150486 0 0 1 0 0 0 0 -1 forward_v I I I I #
coedge $-1 $537 $379 $381 $541 reversed $246 $-1 #
coedge $-1 $379 $536 $640 $641 reversed $246 $-1 #
coedge $-1 $387 $382 $379 $539 forward $377 $-1 #
edge $-1 $542 -14.789676978626531 $642 -11.187912495941148 $538 $643 forward 7 unknown #
coedge $-1 $381 $380 $545 $644 reversed $154 $-1 #
edge $-1 $645 2.1389731374768986e-014 $542 5.3827526314945011 $536 $646 forward 7 unknown #
vertex $-1 $383 $647 #
straight-curve $-1 -42.411602624465104 11.888294046905788 11.271681048142888 0 1 0 I I #
coedge $-1 $640 $384 $387 $549 reversed $534 $-1 #
coedge $-1 $384 $640 $540 $644 forward $534 $-1 #
vertex $-1 $385 $648 #
straight-curve $-1 -46.013367107150486 20.082076151025625 34.424709929149785 0 0 1 I I #
straight-curve $-1 -46.013367107150501 20.082076151025625 7.2715162386472869 -0.66913059716165679 0 -0.74314483375859142 I I #
edge $-1 $642 -27.471100036597527 $388 -20.082076151025625 $544 $649 forward 7 unknown #
point $-1 -46.013367107150486 20.082076151025625 11.271681048142888 #
point $-1 -42.411602624465104 20.082076151025625 11.271681048142888 #
edge $-1 $650 1 $650 0 $391 $-1 forward 7 unknown #
vertex $-1 $392 $651 #
ellipse-curve $-1 -43.21575861213725 23.776588093811576 8.3741423158686015 -0.74314483375859142 0 0.66913059716165679 0.66913059716165679 0 0.74314483375859142 1 I I #
point $-1 -43.543354268646134 23.776588093811576 10.014743477153681 #
plane-surface $-1 46.013367107150486 0 0 -1 0 0 0 0 1 forward_v I I I I #
coedge $-1 $400 $398 $402 $561 reversed $261 $-1 #
edge $-1 $413 -11.271681048142888 $563 11.271681048142888 $412 $652 forward 7 unknown #
vertex $-1 $561 $653 #
straight-curve $-1 -46.013367107150486 -29.677477312717294 0 0 0 -1 I I #
edge $-1 $559 -29.677477312717294 $563 29.677477312717294 $557 $654 forward 7 unknown #
straight-curve $-1 0 -29.677477312717294 -11.271681048142888 -1 0 0 I I #
vertex $-1 $405 $655 #
straight-curve $-1 0 29.677477312717294 -11.271681048142888 1 0 0 I I #
point $-1 46.013367107150486 29.677477312717294 -11.271681048142888 #
point $-1 46.013367107150486 -29.677477312717294 -11.271681048142888 #
straight-curve $-1 -46.013367107150486 0 11.271681048142888 0 -1 0 I I #
point $-1 -46.013367107150486 29.677477312717294 11.271681048142888 #
point $-1 -46.013367107150486 -29.677477312717294 11.271681048142888 #
straight-curve $-1 46.013367107150486 -29.677477312717294 0 0 0 -1 I I #
straight-curve $-1 46.013367107150486 29.677477312717294 0 0 0 -1 I I #
plane-surface $-1 0 0 -11.271681048142888 0 0 1 1 0 0 forward_v I I I I #
coedge $-1 $587 $424 $585 $656 reversed $280 $-1 #
coedge $-1 $424 $587 $428 $579 reversed $280 $-1 #
coedge $-1 $426 $425 $424 $576 reversed $171 $-1 #
edge $-1 $580 -11.271681048142888 $657 11.271681048142888 $575 $658 forward 7 unknown #
edge $-1 $657 -41.255891737641939 $436 -29.677477312717294 $425 $659 forward 7 unknown #
straight-curve $-1 -46.013367107150486 -29.677477312717294 0 0 0 -1 I I #
edge $-1 $580 -3.3034174710355231 $582 3.3034174710355231 $574 $660 forward 7 unknown #
vertex $-1 $429 $661 #
straight-curve $-1 -46.013367107150486 0 11.271681048142888 0 -1 0 I I #
vertex $-1 $430 $662 #
straight-curve $-1 -39.40653216507944 -35.466684525179616 11.271681048142888 0 1 0 I I #
point $-1 -46.013367107150486 -29.677477312717294 11.271681048142888 #
coedge $-1 $434 $433 $573 $656 forward $435 $-1 #
point $-1 -46.013367107150486 -29.677477312717294 -11.271681048142888 #
coedge $-1 $574 $573 $438 $588 reversed $280 $-1 #
edge $-1 $582 -11.271681048142888 $589 11.271681048142888 $438 $663 forward 7 unknown #
vertex $-1 $588 $664 #
straight-curve $-1 -39.40653216507944 -35.466684525179616 -11.271681048142888 0 -1 0 I I #
coedge $-1 $453 $452 $445 $592 forward $442 $-1 #
edge $-1 $593 56.485382586190291 $596 61.893149358772064 $591 $665 forward 7 unknown #
vertex $-1 $457 $666 #
straight-curve $-1 17.335222296949453 -14.719262906748931 11.271681048142888 1 0 0 I I #
edge $-1 $596 -9.5213449846870066 $454 -0.87449085943684146 $453 $667 forward 7 unknown #
vertex $-1 $595 $668 #
straight-curve $-1 -24.483200646027925 -14.719262906748931 65.017559515487946 -0.76604443648966558 0 0.64278761758704617 I I #
point $-1 39.568641762999079 -14.719262906748931 11.271681048142881 #
point $-1 46.013367107150486 -6.0724087814987655 5.8639142755611147 #
straight-curve $-1 46.013367107150486 0 11.271681048142888 0 1 0 I I #
vertex $-1 $460 $669 #
point $-1 42.393538065803916 -12.248733156677453 7.3162537943898087 #
vertex $-1 $464 $670 #
point $-1 42.393538065803916 -8.5429385315702362 7.3162537943898087 #
edge $-1 $606 23.153028881006897 $609 27.153193690502484 $469 $671 forward 7 unknown #
vertex $-1 $483 $672 #
straight-curve $-1 -57.201279603091635 -8.3613051137849155 11.271681048142888 -1 0 0 I I #
edge $-1 $609 2.3333965854994823 $480 9.7224204710713842 $479 $673 forward 7 unknown #
vertex $-1 $608 $674 #
straight-curve $-1 -46.013367107150501 -8.3613051137849155 7.2715162386472869 0.66913059716165679 0 0.74314483375859142 I I #
point $-1 -42.411602624465104 -8.3613051137849155 11.271681048142888 #
point $-1 -46.013367107150486 -15.750328999356817 7.2715162386473029 #
straight-curve $-1 -46.013367107150486 0 11.271681048142888 0 -1 0 I I #
vertex $-1 $486 $675 #
point $-1 -42.546628014975596 -12.055817056570866 9.1172871496271917 #
coedge $-1 $501 $500 $493 $617 forward $490 $-1 #
edge $-1 $618 23.153028881006897 $621 27.153193690502484 $616 $676 forward 7 unknown #
vertex $-1 $505 $677 #
straight-curve $-1 -57.201279603091635 3.5828299363425673 11.271681048142888 -1 0 0 I I #
edge $-1 $621 -3.6386709395642596 $502 3.7503529460076441 $501 $678 forward 7 unknown #
vertex $-1 $620 $679 #
straight-curve $-1 -46.013367107150501 3.5828299363425673 7.2715162386472869 0.66913059716165679 0 0.74314483375859142 I I #
point $-1 -42.411602624465104 3.5828299363425673 11.271681048142888 #
point $-1 -46.013367107150486 -3.8061939492293364 7.2715162386473029 #
straight-curve $-1 -46.013367107150486 0 11.271681048142888 0 -1 0 I I #
vertex $-1 $508 $680 #
point $-1 -42.546628014975596 -0.11168200644338455 9.1172871496271917 #
coedge $-1 $523 $522 $515 $629 forward $512 $-1 #
edge $-1 $630 23.153028881006897 $633 27.153193690502484 $628 $681 forward 7 unknown #
vertex $-1 $527 $682 #
straight-curve $-1 -57.201279603091635 15.526964986470048 11.271681048142888 -1 0 0 I I #
edge $-1 $633 -9.6107384646279996 $524 -2.2217145790560977 $523 $683 forward 7 unknown #
vertex $-1 $632 $684 #
straight-curve $-1 -46.013367107150501 15.526964986470048 7.2715162386472869 0.66913059716165679 0 0.74314483375859142 I I #
point $-1 -42.411602624465104 15.526964986470048 11.271681048142888 #
point $-1 -46.013367107150486 8.1379411008981464 7.2715162386473029 #
straight-curve $-1 -46.013367107150486 0 11.271681048142888 0 -1 0 I I #
vertex $-1 $530 $685 #
point $-1 -42.546628014975596 11.832453043684097 9.1172871496271917 #
coedge $-1 $545 $544 $537 $641 forward $534 $-1 #
edge $-1 $642 23.153028881006897 $645 27.153193690502484 $640 $686 forward 7 unknown #
vertex $-1 $549 $687 #
straight-curve $-1 -57.201279603091635 27.471100036597527 11.271681048142888 -1 0 0 I I #
edge $-1 $645 -15.582805989691739 $546 -8.1937821041198369 $545 $688 forward 7 unknown #
vertex $-1 $644 $689 #
straight-curve $-1 -46.013367107150501 27.471100036597527 7.2715162386472869 0.66913059716165679 0 0.74314483375859142 I I #
point $-1 -42.411602624465104 27.471100036597527 11.271681048142888 #
point $-1 -46.013367107150486 20.082076151025625 7.2715162386473029 #
straight-curve $-1 -46.013367107150486 0 11.271681048142888 0 -1 0 I I #
vertex $-1 $552 $690 #
point $-1 -42.546628014975596 23.776588093811576 9.1172871496271917 #
straight-curve $-1 -46.013367107150486 29.677477312717294 0 0 0 -1 I I #
point $-1 -46.013367107150486 -29.677477312717294 -11.271681048142888 #
straight-curve $-1 -46.013367107150486 0 -11.271681048142888 0 1 0 I I #
point $-1 -46.013367107150486 29.677477312717294 -11.271681048142888 #
edge $-1 $589 -3.3034174710355231 $657 3.3034174710355231 $573 $691 forward 7 unknown #
vertex $-1 $577 $692 #
straight-curve $-1 -46.013367107150486 -41.255891737641939 0 0 0 -1 I I #
straight-curve $-1 -46.013367107150486 0 -11.271681048142888 0 1 0 I I #
straight-curve $-1 -42.709949636114963 -41.255891737641939 11.271681048142888 1 0 0 I I #
point $-1 -46.013367107150486 -41.255891737641939 11.271681048142888 #
point $-1 -39.40653216507944 -41.255891737641939 11.271681048142888 #
straight-curve $-1 -39.40653216507944 -41.255891737641939 0 0 0 -1 I I #
point $-1 -39.40653216507944 -41.255891737641939 -11.271681048142888 #
straight-curve $-1 46.013367107150486 -14.719262906748931 67.757063634333178 0 0 -1 I I #
point $-1 46.013367107150486 -14.719262906748931 11.271681048142888 #
straight-curve $-1 46.013367107150479 -5.197917922061924 5.8639142755611289 0 1 0 I I #
point $-1 46.013367107150486 -14.719262906748931 5.8639142755611147 #
point $-1 41.689122038765561 -12.248733156677453 7.2546253849384996 #
point $-1 41.689122038765561 -8.5429385315702362 7.2546253849384996 #
straight-curve $-1 -46.013367107150486 -8.3613051137849155 34.424709929149785 0 0 -1 I I #
point $-1 -46.013367107150486 -8.3613051137849155 11.271681048142888 #
straight-curve $-1 -46.013367107150486 -6.0279085282854332 7.2715162386472993 0 -1 0 I I #
point $-1 -46.013367107150486 -8.3613051137849155 7.2715162386473029 #
point $-1 -42.472613778378658 -12.055817056570866 7.7050117187069445 #
straight-curve $-1 -46.013367107150486 3.5828299363425673 34.424709929149785 0 0 -1 I I #
point $-1 -46.013367107150486 3.5828299363425673 11.271681048142888 #
straight-curve $-1 -46.013367107150486 -0.055841003221692276 7.2715162386472993 0 -1 0 I I #
point $-1 -46.013367107150486 3.5828299363425673 7.2715162386473029 #
point $-1 -42.472613778378658 -0.11168200644338455 7.7050117187069445 #
straight-curve $-1 -46.013367107150486 15.526964986470048 34.424709929149785 0 0 -1 I I #
point $-1 -46.013367107150486 15.526964986470048 11.271681048142888 #
straight-curve $-1 -46.013367107150486 5.9162265218420487 7.2715162386472993 0 -1 0 I I #
point $-1 -46.013367107150486 15.526964986470048 7.2715162386473029 #
point $-1 -42.472613778378658 11.832453043684097 7.7050117187069445 #
straight-curve $-1 -46.013367107150486 27.471100036597527 34.424709929149785 0 0 -1 I I #
point $-1 -46.013367107150486 27.471100036597527 11.271681048142888 #
straight-curve $-1 -46.013367107150486 11.888294046905788 7.2715162386472993 0 -1 0 I I #
point $-1 -46.013367107150486 27.471100036597527 7.2715162386473029 #
point $-1 -42.472613778378658 23.776588093811576 7.7050117187069445 #
straight-curve $-1 -42.709949636114963 -41.255891737641939 -11.271681048142888 -1 0 0 I I #
point $-1 -46.013367107150486 -41.255891737641939 -11.271681048142888 #
End-of-ACIS-data 