500 0 6 0           
7 Unknown 11 ACIS 5.0 NT 24 Fri Mar 26 16:52:05 1999 
-1 9.9999999999999995e-007 1e-010 
body $-1 $6 $-1 $7 #
body $-1 $8 $-1 $9 #
body $-1 $10 $-1 $11 #
body $-1 $12 $-1 $13 #
body $-1 $14 $-1 $15 #
body $-1 $16 $-1 $17 #
lump $-1 $-1 $18 $0 #
transform $-1 1 0 0 0 1 0 0 0 1 54.799035615100557 37.630834073490469 13.925487278100407 1 rotate no_reflect no_shear #
lump $-1 $-1 $19 $1 #
transform $-1 1 0 0 0 1 0 0 0 1 54.799035615100557 37.630834073490469 13.925487278100407 1 rotate no_reflect no_shear #
lump $-1 $-1 $20 $2 #
transform $-1 1 0 0 0 1 0 0 0 1 54.799035615100557 37.630834073490469 13.925487278100407 1 rotate no_reflect no_shear #
lump $-1 $-1 $21 $3 #
transform $-1 1 0 0 0 1 0 0 0 1 54.799035615100557 37.630834073490469 13.925487278100407 1 rotate no_reflect no_shear #
lump $-1 $-1 $22 $4 #
transform $-1 1 0 0 0 1 0 0 0 1 54.799035615100557 37.630834073490469 13.925487278100407 1 rotate no_reflect no_shear #
lump $-1 $-1 $23 $5 #
transform $-1 1 0 0 0 1 0 0 0 1 54.799035615100557 37.630834073490469 13.925487278100407 1 rotate no_reflect no_shear #
shell $-1 $-1 $-1 $24 $-1 $6 #
shell $-1 $-1 $-1 $25 $-1 $8 #
shell $-1 $-1 $-1 $26 $-1 $10 #
shell $-1 $-1 $-1 $27 $-1 $12 #
shell $-1 $-1 $-1 $28 $-1 $14 #
shell $-1 $-1 $-1 $29 $-1 $16 #
face $-1 $30 $31 $18 $-1 $32 forward single #
face $-1 $33 $34 $19 $-1 $35 reversed single #
face $-1 $36 $37 $20 $-1 $38 reversed single #
face $-1 $39 $40 $21 $-1 $41 forward single #
face $-1 $42 $43 $22 $-1 $44 reversed single #
face $-1 $45 $46 $23 $-1 $47 forward single #
face $-1 $48 $49 $18 $-1 $50 reversed single #
loop $-1 $-1 $51 $24 #
plane-surface $-1 0 0 13.925487278100407 0 0 1 1 0 0 forward_v I I I I #
face $-1 $52 $53 $19 $-1 $54 reversed single #
loop $-1 $-1 $55 $25 #
plane-surface $-1 -30.130264606400591 -29.853963448168535 0 1 0 0 0 0 -1 forward_v I I I I #
face $-1 $56 $57 $20 $-1 $58 reversed single #
loop $-1 $-1 $59 $26 #
plane-surface $-1 -21.64433969352563 36.522548237944527 135.54712701949862 1 0 0 0 -0.55919291073839883 -0.82903756765294845 forward_v I I I I #
face $-1 $60 $61 $21 $-1 $62 forward single #
loop $-1 $63 $64 $27 #
cone-surface $-1 -10.822169846762812 27.484427010195532 5.66646342719487 0 -0.55919291073839883 -0.82903756765294845 3 0 0 1 I I 0 1 3 forward I I I I #
face $-1 $65 $66 $22 $-1 $67 reversed single #
loop $-1 $-1 $68 $28 #
plane-surface $-1 33.154695921574934 36.522548237944527 135.54712701949862 1 0 0 0 -0.55919291073839883 -0.82903756765294845 forward_v I I I I #
face $-1 $69 $70 $23 $-1 $71 forward single #
loop $-1 $72 $73 $29 #
cone-surface $-1 43.976865768337753 27.484427010195532 5.66646342719487 0 -0.55919291073839883 -0.82903756765294845 3 0 0 1 I I 0 1 3 forward I I I I #
face $-1 $74 $75 $18 $-1 $76 reversed single #
loop $-1 $-1 $77 $30 #
plane-surface $-1 0 0 -13.925487278100407 0 0 1 1 0 0 forward_v I I I I #
coedge $-1 $78 $79 $80 $81 forward $31 $-1 #
face $-1 $82 $83 $19 $-1 $84 reversed single #
loop $-1 $-1 $85 $33 #
plane-surface $-1 -28.539162832650167 -22.077092822846602 0 0 -1 0 0 0 -1 forward_v I I I I #
coedge $-1 $86 $87 $88 $89 forward $34 $-1 #
face $-1 $90 $91 $20 $-1 $92 reversed single #
loop $-1 $-1 $93 $36 #
plane-surface $-1 -10.822169846762812 -24.763916224586005 44.686208627358099 0 0.55919291073839883 0.82903756765294845 1 0 0 forward_v I I I I #
coedge $-1 $94 $95 $96 $97 reversed $37 $-1 #
face $-1 $-1 $98 $21 $-1 $99 forward single #
loop $-1 $100 $101 $39 #
cone-surface $-1 -10.822169846762812 24.894283743162688 1.8264181892499121 0 -0.55919291073839883 -0.82903756765294845 1.5 0 0 1 I I -0.70710678118654757 0.70710678118654757 1.5 forward I I I I #
loop $-1 $-1 $102 $27 #
coedge $-1 $64 $64 $103 $104 reversed $40 $-1 #
face $-1 $105 $106 $22 $-1 $107 forward single #
loop $-1 $-1 $108 $42 #
plane-surface $-1 43.976865768337753 -24.763916224586005 44.686208627358099 0 0.55919291073839883 0.82903756765294845 1 0 0 forward_v I I I I #
coedge $-1 $109 $110 $111 $112 reversed $43 $-1 #
face $-1 $-1 $113 $23 $-1 $114 forward single #
loop $-1 $115 $116 $45 #
cone-surface $-1 43.976865768337753 24.894283743162688 1.8264181892499121 0 -0.55919291073839883 -0.82903756765294845 1.5 0 0 1 I I -0.70710678118654757 0.70710678118654757 1.5 forward I I I I #
loop $-1 $-1 $117 $29 #
coedge $-1 $73 $73 $118 $119 reversed $46 $-1 #
face $-1 $120 $121 $18 $-1 $122 reversed single #
loop $-1 $-1 $123 $48 #
plane-surface $-1 0 -37.630834073490469 0 0 1 0 0 0 1 forward_v I I I I #
coedge $-1 $124 $125 $126 $127 forward $49 $-1 #
coedge $-1 $128 $51 $129 $130 forward $31 $-1 #
coedge $-1 $51 $128 $131 $132 forward $31 $-1 #
coedge $-1 $133 $134 $51 $81 reversed $135 $-1 #
edge $-1 $136 -37.630834073490469 $137 37.630834073490469 $80 $138 forward 7 unknown #
face $-1 $139 $140 $19 $-1 $141 forward single #
loop $-1 $-1 $142 $52 #
plane-surface $-1 -26.948061058899743 -29.853963448168535 0 -1 0 0 0 0 1 forward_v I I I I #
coedge $-1 $143 $144 $145 $146 forward $53 $-1 #
coedge $-1 $147 $55 $148 $149 reversed $34 $-1 #
coedge $-1 $55 $147 $150 $151 reversed $34 $-1 #
coedge $-1 $144 $143 $55 $89 reversed $53 $-1 #
edge $-1 $152 -13.925487278100407 $153 13.925487278100407 $88 $154 forward 7 unknown #
face $-1 $155 $156 $20 $-1 $157 reversed single #
loop $-1 $-1 $158 $56 #
plane-surface $-1 7.1054273576010019e-015 36.522548237944527 135.54712701949862 -1 0 0 0 0.55919291073839883 0.82903756765294845 forward_v I I I I #
coedge $-1 $159 $160 $161 $162 reversed $57 $-1 #
coedge $-1 $95 $59 $163 $164 reversed $37 $-1 #
coedge $-1 $59 $94 $159 $165 reversed $37 $-1 #
coedge $-1 $161 $166 $59 $97 forward $167 $-1 #
edge $-1 $168 -19.369559954518206 $169 -2.5794536297787793 $96 $170 forward 7 unknown #
loop $-1 $-1 $103 $60 #
plane-surface $-1 -10.822169846762812 -24.763916224586005 44.686208627358099 0 0.55919291073839883 0.82903756765294845 1 0 0 forward_v I I I I #
loop $-1 $-1 $171 $39 #
coedge $-1 $101 $101 $102 $172 reversed $61 $-1 #
coedge $-1 $102 $102 $101 $172 forward $63 $-1 #
coedge $-1 $103 $103 $64 $104 forward $98 $-1 #
edge $-1 $173 2.9646336941535608e-016 $173 6.2831853071796004 $103 $174 forward 7 unknown #
face $-1 $175 $176 $22 $-1 $177 reversed single #
loop $-1 $-1 $111 $65 #
plane-surface $-1 0 0 13.925487278100407 0 0 1 1 0 0 forward_v I I I I #
coedge $-1 $178 $179 $180 $181 reversed $66 $-1 #
coedge $-1 $110 $68 $182 $183 reversed $43 $-1 #
coedge $-1 $68 $109 $178 $184 reversed $43 $-1 #
coedge $-1 $180 $185 $68 $112 forward $106 $-1 #
edge $-1 $186 -19.369559954518206 $187 -2.5794536297787793 $111 $188 forward 7 unknown #
loop $-1 $-1 $118 $69 #
plane-surface $-1 43.976865768337753 -24.763916224586005 44.686208627358099 0 0.55919291073839883 0.82903756765294845 1 0 0 forward_v I I I I #
loop $-1 $-1 $189 $45 #
coedge $-1 $116 $116 $117 $190 reversed $70 $-1 #
coedge $-1 $117 $117 $116 $190 forward $72 $-1 #
coedge $-1 $118 $118 $73 $119 forward $113 $-1 #
edge $-1 $191 2.9646336941535608e-016 $191 6.2831853071796004 $118 $192 forward 7 unknown #
face $-1 $193 $194 $18 $-1 $195 reversed single #
loop $-1 $-1 $196 $74 #
plane-surface $-1 -54.799035615100557 0 0 1 0 0 0 0 -1 forward_v I I I I #
coedge $-1 $197 $131 $198 $199 forward $75 $-1 #
coedge $-1 $200 $77 $197 $201 forward $49 $-1 #
coedge $-1 $77 $200 $202 $203 forward $49 $-1 #
coedge $-1 $134 $133 $77 $127 reversed $135 $-1 #
edge $-1 $204 -37.630834073490469 $205 37.630834073490469 $126 $206 forward 7 unknown #
coedge $-1 $79 $78 $207 $208 forward $31 $-1 #
coedge $-1 $209 $210 $78 $130 reversed $194 $-1 #
edge $-1 $137 -54.799035615100557 $211 54.799035615100557 $129 $212 forward 7 unknown #
coedge $-1 $123 $213 $79 $132 reversed $75 $-1 #
edge $-1 $214 -54.799035615100557 $136 54.799035615100557 $131 $215 forward 7 unknown #
coedge $-1 $126 $80 $213 $216 forward $135 $-1 #
coedge $-1 $80 $126 $209 $217 reversed $135 $-1 #
loop $-1 $-1 $133 $193 #
vertex $-1 $81 $218 #
vertex $-1 $81 $219 #
straight-curve $-1 54.799035615100557 0 13.925487278100407 0 1 0 I I #
face $-1 $220 $221 $19 $-1 $222 reversed single #
loop $-1 $-1 $223 $82 #
plane-surface $-1 0 0 13.925487278100407 0 0 1 1 0 0 forward_v I I I I #
coedge $-1 $224 $225 $226 $227 reversed $83 $-1 #
coedge $-1 $88 $85 $228 $229 reversed $53 $-1 #
coedge $-1 $85 $88 $230 $231 reversed $53 $-1 #
coedge $-1 $225 $224 $85 $146 reversed $83 $-1 #
edge $-1 $232 -13.925487278100407 $233 13.925487278100407 $145 $234 forward 7 unknown #
coedge $-1 $87 $86 $235 $236 reversed $34 $-1 #
coedge $-1 $228 $237 $86 $149 forward $221 $-1 #
edge $-1 $238 -22.703852349406201 $153 -7.1501110987623342 $148 $239 forward 7 unknown #
coedge $-1 $240 $230 $87 $151 forward $140 $-1 #
edge $-1 $152 7.1501110987623342 $241 22.703852349406201 $150 $242 forward 7 unknown #
vertex $-1 $151 $243 #
vertex $-1 $149 $244 #
straight-curve $-1 -30.130264606400591 -22.077092822846602 0 0 0 -1 I I #
face $-1 $-1 $167 $20 $-1 $245 forward single #
loop $-1 $-1 $246 $90 #
plane-surface $-1 0 37.630834073490469 0 0 -1 0 0 0 -1 forward_v I I I I #
coedge $-1 $247 $248 $249 $250 reversed $91 $-1 #
coedge $-1 $251 $93 $95 $165 forward $57 $-1 #
coedge $-1 $93 $251 $247 $252 forward $57 $-1 #
coedge $-1 $249 $96 $93 $162 forward $167 $-1 #
edge $-1 $169 -16.233254770144224 $253 5.4110849233814129 $161 $254 forward 7 unknown #
coedge $-1 $255 $256 $94 $164 forward $156 $-1 #
edge $-1 $257 -65.173146160528916 $168 -53.848076231648903 $163 $258 forward 7 unknown #
edge $-1 $169 55.009140421038254 $257 75.261668146980938 $95 $259 forward 7 unknown #
coedge $-1 $96 $249 $255 $260 forward $167 $-1 #
loop $-1 $-1 $249 $155 #
vertex $-1 $164 $261 #
vertex $-1 $97 $262 #
straight-curve $-1 -21.64433969352563 18.261274118972263 13.925487278100405 0 -1 0 I I #
coedge $-1 $171 $171 $-1 $263 reversed $100 $-1 #
edge $-1 $264 0 $264 6.2831853071796004 $101 $265 forward 7 unknown #
vertex $-1 $104 $266 #
ellipse-curve $-1 -10.822169846762812 29.235780911120763 8.2629523136603904 0 0.55919291073839883 0.82903756765294845 3 0 0 1 I I #
face $-1 $-1 $267 $22 $-1 $268 reversed single #
loop $-1 $-1 $269 $105 #
plane-surface $-1 54.799035615100557 0 0 -1 0 0 0 0 1 forward_v I I I I #
coedge $-1 $270 $108 $110 $184 forward $66 $-1 #
coedge $-1 $108 $270 $269 $271 reversed $66 $-1 #
coedge $-1 $272 $111 $108 $181 forward $106 $-1 #
edge $-1 $187 11.166263037406058 $273 32.810602730931691 $180 $274 forward 7 unknown #
coedge $-1 $275 $276 $109 $183 forward $267 $-1 #
edge $-1 $277 -65.173146160528916 $186 -53.848076231648903 $182 $278 forward 7 unknown #
edge $-1 $187 55.009140421038254 $277 75.261668146980938 $110 $279 forward 7 unknown #
coedge $-1 $111 $272 $275 $280 forward $106 $-1 #
vertex $-1 $183 $281 #
vertex $-1 $112 $282 #
straight-curve $-1 33.154695921574934 18.261274118972263 13.925487278100405 0 -1 0 I I #
coedge $-1 $189 $189 $-1 $283 reversed $115 $-1 #
edge $-1 $284 0 $284 6.2831853071796004 $116 $285 forward 7 unknown #
vertex $-1 $119 $286 #
ellipse-curve $-1 43.976865768337753 29.235780911120763 8.2629523136603904 0 0.55919291073839883 0.82903756765294845 3 0 0 1 I I #
face $-1 $-1 $135 $18 $-1 $287 reversed single #
loop $-1 $-1 $209 $120 #
plane-surface $-1 0 37.630834073490469 0 0 -1 0 0 0 -1 forward_v I I I I #
coedge $-1 $288 $207 $210 $289 forward $121 $-1 #
coedge $-1 $213 $123 $124 $201 reversed $75 $-1 #
coedge $-1 $207 $288 $123 $199 reversed $121 $-1 #
edge $-1 $214 -13.925487278100407 $290 13.925487278100407 $198 $291 forward 7 unknown #
coedge $-1 $125 $124 $288 $292 forward $49 $-1 #
edge $-1 $205 -54.799035615100557 $290 54.799035615100557 $197 $293 forward 7 unknown #
coedge $-1 $210 $209 $125 $203 reversed $194 $-1 #
edge $-1 $294 -54.799035615100557 $204 54.799035615100557 $202 $295 forward 7 unknown #
vertex $-1 $127 $296 #
vertex $-1 $216 $297 #
straight-curve $-1 54.799035615100557 0 -13.925487278100407 0 -1 0 I I #
coedge $-1 $196 $198 $128 $208 reversed $121 $-1 #
edge $-1 $211 -37.630834073490469 $214 37.630834073490469 $207 $298 forward 7 unknown #
coedge $-1 $202 $129 $134 $217 forward $194 $-1 #
coedge $-1 $129 $202 $196 $289 reversed $194 $-1 #
vertex $-1 $130 $299 #
straight-curve $-1 0 37.630834073490469 13.925487278100407 -1 0 0 I I #
coedge $-1 $131 $197 $133 $216 reversed $75 $-1 #
vertex $-1 $208 $300 #
straight-curve $-1 0 -37.630834073490469 13.925487278100407 1 0 0 I I #
edge $-1 $136 -13.925487278100407 $205 13.925487278100407 $133 $301 forward 7 unknown #
edge $-1 $137 -13.925487278100407 $204 13.925487278100407 $134 $302 forward 7 unknown #
point $-1 54.799035615100557 -37.630834073490469 13.925487278100407 #
point $-1 54.799035615100557 37.630834073490469 13.925487278100407 #
face $-1 $-1 $303 $19 $-1 $304 reversed single #
loop $-1 $-1 $305 $139 #
plane-surface $-1 0 0 -13.925487278100407 0 0 1 1 0 0 forward_v I I I I #
coedge $-1 $230 $240 $225 $306 forward $140 $-1 #
coedge $-1 $145 $142 $305 $307 reversed $83 $-1 #
coedge $-1 $142 $145 $223 $306 reversed $83 $-1 #
coedge $-1 $308 $309 $142 $227 forward $303 $-1 #
edge $-1 $310 -13.925487278100407 $311 13.925487278100407 $226 $312 forward 7 unknown #
coedge $-1 $305 $148 $143 $229 forward $221 $-1 #
edge $-1 $153 -15.860683190075507 $233 -12.67847964257466 $228 $313 forward 7 unknown #
coedge $-1 $150 $223 $144 $231 forward $140 $-1 #
edge $-1 $232 12.67847964257466 $152 15.860683190075507 $230 $314 forward 7 unknown #
vertex $-1 $231 $315 #
vertex $-1 $229 $316 #
straight-curve $-1 -26.948061058899743 -22.077092822846602 0 0 0 -1 I I #
coedge $-1 $309 $308 $147 $236 forward $303 $-1 #
edge $-1 $241 -13.925487278100407 $238 13.925487278100407 $235 $317 forward 7 unknown #
coedge $-1 $148 $305 $309 $318 forward $221 $-1 #
vertex $-1 $149 $319 #
straight-curve $-1 -30.130264606400591 -14.926981724084268 -13.925487278100407 0 1 0 I I #
coedge $-1 $223 $150 $308 $320 forward $140 $-1 #
vertex $-1 $320 $321 #
straight-curve $-1 -30.130264606400591 -14.926981724084268 13.925487278100407 0 -1 0 I I #
point $-1 -30.130264606400591 -22.077092822846602 13.925487278100407 #
point $-1 -30.130264606400591 -22.077092822846602 -13.925487278100407 #
plane-surface $-1 0 0 13.925487278100407 0 0 1 1 0 0 forward_v I I I I #
coedge $-1 $256 $255 $248 $322 forward $156 $-1 #
coedge $-1 $248 $158 $160 $252 reversed $91 $-1 #
coedge $-1 $158 $247 $246 $322 reversed $91 $-1 #
coedge $-1 $166 $161 $158 $250 forward $167 $-1 #
edge $-1 $253 2.5794536297787793 $323 19.369559954518206 $249 $324 forward 7 unknown #
coedge $-1 $160 $159 $256 $325 reversed $57 $-1 #
edge $-1 $326 -75.261668146980938 $253 -55.009140421038254 $247 $327 forward 7 unknown #
vertex $-1 $162 $328 #
straight-curve $-1 -5.4110849233814058 20.840727748751039 13.925487278100405 1 0 0 I I #
coedge $-1 $246 $163 $166 $260 reversed $156 $-1 #
coedge $-1 $163 $246 $251 $325 forward $156 $-1 #
vertex $-1 $164 $329 #
straight-curve $-1 -21.64433969352563 37.630834073490469 67.773563509749309 0 0 1 I I #
straight-curve $-1 -21.64433969352563 -24.763916224586005 44.686208627358099 0 0.82903756765294845 -0.55919291073839883 I I #
edge $-1 $323 -7.1054273576010019e-015 $168 21.64433969352563 $255 $330 forward 7 unknown #
point $-1 -21.64433969352563 37.630834073490469 13.925487278100407 #
point $-1 -21.64433969352563 20.840727748751043 13.925487278100402 #
edge $-1 $331 1 $331 0 $171 $-1 forward 7 unknown #
vertex $-1 $172 $332 #
ellipse-curve $-1 -10.822169846762812 25.733073109270286 3.0699745407293348 0 0.55919291073839883 0.82903756765294845 3 0 0 1 I I #
point $-1 -7.8221698467628116 29.235780911120774 8.2629523136604046 #
loop $-1 $-1 $182 $175 #
plane-surface $-1 0 37.630834073490469 0 0 -1 0 0 0 -1 forward_v I I I I #
coedge $-1 $333 $334 $179 $271 forward $176 $-1 #
coedge $-1 $179 $178 $276 $335 reversed $66 $-1 #
edge $-1 $273 32.249926448744311 $336 52.502454174687003 $269 $337 forward 7 unknown #
coedge $-1 $185 $180 $334 $338 forward $106 $-1 #
vertex $-1 $338 $339 #
straight-curve $-1 21.988432884168876 20.840727748751039 13.925487278100405 1 0 0 I I #
coedge $-1 $340 $182 $185 $280 reversed $267 $-1 #
coedge $-1 $182 $340 $270 $335 forward $267 $-1 #
vertex $-1 $183 $341 #
straight-curve $-1 33.154695921574934 37.630834073490469 67.773563509749309 0 0 1 I I #
straight-curve $-1 33.154695921574934 -24.763916224586005 44.686208627358099 0 0.82903756765294845 -0.55919291073839883 I I #
edge $-1 $342 -54.799035615100557 $186 -33.154695921574934 $275 $343 forward 7 unknown #
point $-1 33.154695921574934 37.630834073490469 13.925487278100407 #
point $-1 33.154695921574934 20.840727748751043 13.925487278100402 #
edge $-1 $344 1 $344 0 $189 $-1 forward 7 unknown #
vertex $-1 $190 $345 #
ellipse-curve $-1 43.976865768337753 25.733073109270286 3.0699745407293348 0 0.55919291073839883 0.82903756765294845 3 0 0 1 I I #
point $-1 46.976865768337753 29.235780911120774 8.2629523136604046 #
plane-surface $-1 54.799035615100557 0 0 -1 0 0 0 0 1 forward_v I I I I #
coedge $-1 $198 $196 $200 $292 reversed $121 $-1 #
edge $-1 $211 -13.925487278100407 $294 13.925487278100407 $210 $346 forward 7 unknown #
vertex $-1 $292 $347 #
straight-curve $-1 -54.799035615100557 -37.630834073490469 0 0 0 -1 I I #
edge $-1 $290 -37.630834073490469 $294 37.630834073490469 $288 $348 forward 7 unknown #
straight-curve $-1 0 -37.630834073490469 -13.925487278100407 -1 0 0 I I #
vertex $-1 $203 $349 #
straight-curve $-1 0 37.630834073490469 -13.925487278100407 1 0 0 I I #
point $-1 54.799035615100557 37.630834073490469 -13.925487278100407 #
point $-1 54.799035615100557 -37.630834073490469 -13.925487278100407 #
straight-curve $-1 -54.799035615100557 0 13.925487278100407 0 -1 0 I I #
point $-1 -54.799035615100557 37.630834073490469 13.925487278100407 #
point $-1 -54.799035615100557 -37.630834073490469 13.925487278100407 #
straight-curve $-1 54.799035615100557 -37.630834073490469 0 0 0 -1 I I #
straight-curve $-1 54.799035615100557 37.630834073490469 0 0 0 -1 I I #
loop $-1 $-1 $226 $220 #
plane-surface $-1 0 -37.630834073490469 0 0 1 0 0 0 1 forward_v I I I I #
coedge $-1 $237 $228 $224 $307 forward $221 $-1 #
edge $-1 $311 -22.703852349406201 $232 -7.1501110987623342 $223 $350 forward 7 unknown #
edge $-1 $233 7.1501110987623342 $310 22.703852349406201 $305 $351 forward 7 unknown #
coedge $-1 $235 $226 $240 $320 reversed $303 $-1 #
coedge $-1 $226 $235 $237 $318 reversed $303 $-1 #
vertex $-1 $318 $352 #
vertex $-1 $227 $353 #
straight-curve $-1 -26.948061058899743 -37.630834073490469 0 0 0 1 I I #
straight-curve $-1 -14.269581416325083 -22.077092822846602 -13.925487278100407 1 0 0 I I #
straight-curve $-1 -14.269581416325083 -22.077092822846602 13.925487278100407 -1 0 0 I I #
point $-1 -26.948061058899743 -22.077092822846602 13.925487278100407 #
point $-1 -26.948061058899743 -22.077092822846602 -13.925487278100407 #
straight-curve $-1 -30.130264606400591 -37.630834073490469 0 0 0 -1 I I #
edge $-1 $310 26.948061058899743 $238 30.130264606400591 $309 $354 forward 7 unknown #
point $-1 -30.130264606400591 -37.630834073490469 -13.925487278100407 #
edge $-1 $241 -30.130264606400591 $311 -26.948061058899743 $308 $355 forward 7 unknown #
point $-1 -30.130264606400591 -37.630834073490469 13.925487278100407 #
edge $-1 $323 53.848076231648903 $326 65.173146160528916 $246 $356 forward 7 unknown #
vertex $-1 $260 $357 #
straight-curve $-1 7.1054273576010019e-015 18.261274118972263 13.925487278100405 0 1 0 I I #
edge $-1 $326 -5.4110849233814129 $257 16.233254770144224 $256 $358 forward 7 unknown #
vertex $-1 $325 $359 #
straight-curve $-1 7.1054273576010019e-015 -24.763916224586005 44.686208627358099 0 -0.82903756765294845 0.55919291073839883 I I #
point $-1 7.1054273576010019e-015 20.840727748751043 13.925487278100402 #
point $-1 -21.64433969352563 37.630834073490469 2.6004173492203861 #
straight-curve $-1 0 37.630834073490469 13.925487278100407 -1 0 0 I I #
vertex $-1 $263 $360 #
point $-1 -7.8221698467628116 25.733073109270286 3.0699745407293348 #
coedge $-1 $334 $269 $340 $361 reversed $176 $-1 #
coedge $-1 $269 $333 $272 $338 reversed $176 $-1 #
edge $-1 $336 -32.810602730931691 $277 -11.166263037406058 $276 $362 forward 7 unknown #
vertex $-1 $271 $363 #
straight-curve $-1 54.799035615100557 -5.8956728313024316 31.959417520073011 0 0.82903756765294845 -0.55919291073839883 I I #
edge $-1 $273 20.840727748751043 $342 37.630834073490469 $334 $364 forward 7 unknown #
point $-1 54.799035615100571 20.840727748751043 13.925487278100402 #
coedge $-1 $276 $275 $333 $361 forward $267 $-1 #
point $-1 33.154695921574934 37.630834073490469 2.6004173492203861 #
vertex $-1 $338 $365 #
straight-curve $-1 0 37.630834073490469 13.925487278100407 -1 0 0 I I #
vertex $-1 $283 $366 #
point $-1 46.976865768337753 25.733073109270286 3.0699745407293348 #
straight-curve $-1 -54.799035615100557 37.630834073490469 0 0 0 -1 I I #
point $-1 -54.799035615100557 -37.630834073490469 -13.925487278100407 #
straight-curve $-1 -54.799035615100557 0 -13.925487278100407 0 1 0 I I #
point $-1 -54.799035615100557 37.630834073490469 -13.925487278100407 #
straight-curve $-1 -26.948061058899743 -14.926981724084268 13.925487278100407 0 1 0 I I #
straight-curve $-1 -26.948061058899743 -14.926981724084268 -13.925487278100407 0 -1 0 I I #
point $-1 -26.948061058899743 -37.630834073490469 -13.925487278100407 #
point $-1 -26.948061058899743 -37.630834073490469 13.925487278100407 #
straight-curve $-1 0 -37.630834073490469 -13.925487278100407 -1 0 0 I I #
straight-curve $-1 0 -37.630834073490469 13.925487278100407 1 0 0 I I #
straight-curve $-1 7.1054273576010019e-015 37.630834073490469 67.773563509749309 0 0 -1 I I #
point $-1 7.1054273576010019e-015 37.630834073490469 13.925487278100407 #
straight-curve $-1 -5.4110849233814058 37.630834073490469 2.6004173492203826 -1 0 0 I I #
point $-1 7.1054273576010019e-015 37.630834073490469 2.6004173492203861 #
point $-1 -10.822169846762812 24.055494377055091 0.58286183777048928 #
edge $-1 $342 -13.925487278100407 $336 -2.6004173492203861 $333 $367 forward 7 unknown #
straight-curve $-1 21.988432884168876 37.630834073490469 2.6004173492203826 -1 0 0 I I #
point $-1 54.799035615100571 37.630834073490469 2.6004173492203861 #
straight-curve $-1 54.799035615100557 0 13.925487278100407 0 1 0 I I #
point $-1 54.799035615100557 37.630834073490469 13.925487278100407 #
point $-1 43.976865768337753 24.055494377055091 0.58286183777048928 #
straight-curve $-1 54.799035615100557 37.630834073490469 0 0 0 -1 I I #
End-of-ACIS-data 