500 0 5 0           
7 Unknown 11 ACIS 5.0 NT 24 Fri Mar 26 01:07:32 1999 
-1 9.9999999999999995e-007 1e-010 
body $-1 $5 $-1 $6 #
body $-1 $7 $-1 $8 #
body $-1 $9 $-1 $10 #
body $-1 $11 $-1 $12 #
body $-1 $13 $-1 $14 #
lump $-1 $-1 $15 $0 #
transform $-1 1 0 0 0 1 0 0 0 1 41.949522385326702 18.741259903151313 8.0777249553577057 1 rotate no_reflect no_shear #
lump $-1 $-1 $16 $1 #
transform $-1 1 0 0 0 1 0 0 0 1 41.949522385326702 18.741259903151313 8.0777249553577057 1 rotate no_reflect no_shear #
lump $-1 $-1 $17 $2 #
transform $-1 1 0 0 0 1 0 0 0 1 41.949522385326702 18.741259903151313 8.0777249553577057 1 rotate no_reflect no_shear #
lump $-1 $-1 $18 $3 #
transform $-1 1 0 0 0 1 0 0 0 1 41.949522385326702 18.741259903151313 8.0777249553577057 1 rotate no_reflect no_shear #
lump $-1 $-1 $19 $4 #
transform $-1 1 0 0 0 1 0 0 0 1 41.949522385326702 18.741259903151313 8.0777249553577057 1 rotate no_reflect no_shear #
shell $-1 $-1 $-1 $20 $-1 $5 #
shell $-1 $-1 $-1 $21 $-1 $7 #
shell $-1 $-1 $-1 $22 $-1 $9 #
shell $-1 $-1 $-1 $23 $-1 $11 #
shell $-1 $-1 $-1 $24 $-1 $13 #
face $-1 $25 $26 $15 $-1 $27 forward single #
face $-1 $28 $29 $16 $-1 $30 forward single #
face $-1 $31 $32 $17 $-1 $33 reversed single #
face $-1 $34 $35 $18 $-1 $36 forward single #
face $-1 $37 $38 $19 $-1 $39 forward single #
face $-1 $40 $41 $15 $-1 $42 reversed single #
loop $-1 $-1 $43 $20 #
plane-surface $-1 0 0 8.0777249553577057 0 0 1 1 0 0 forward_v I I I I #
face $-1 $44 $45 $16 $-1 $46 reversed single #
loop $-1 $-1 $47 $21 #
plane-surface $-1 0 -14.260330140652485 6.2610065848633916 0 0 1 1 0 0 forward_v I I I I #
face $-1 $48 $49 $17 $-1 $50 reversed single #
loop $-1 $-1 $51 $22 #
plane-surface $-1 18.583918788580043 68.690477147346201 80.513212343210583 1 0 0 0 -0.83867057594974714 -0.54463902268945019 forward_v I I I I #
face $-1 $52 $53 $18 $-1 $54 forward single #
loop $-1 $55 $56 $23 #
cone-surface $-1 25.259805530507663 15.881611066196758 4.8632477914250281 0 -0.83867057594974714 -0.54463902268945019 1 0 0 1 I I 0 1 1 forward I I I I #
face $-1 $57 $58 $19 $-1 $59 forward single #
loop $-1 $60 $61 $24 #
cone-surface $-1 35.273635643399089 15.881611066196758 4.8632477914250281 0 -0.83867057594974714 -0.54463902268945019 1 0 0 1 I I 0 1 1 forward I I I I #
face $-1 $62 $63 $15 $-1 $64 reversed single #
loop $-1 $-1 $65 $25 #
plane-surface $-1 0 0 -8.0777249553577057 0 0 1 1 0 0 forward_v I I I I #
coedge $-1 $66 $67 $68 $69 forward $26 $-1 #
face $-1 $70 $71 $16 $-1 $72 reversed single #
loop $-1 $-1 $73 $28 #
plane-surface $-1 0 -14.260330140652485 3.2610065848633916 0 0 1 1 0 0 forward_v I I I I #
coedge $-1 $74 $75 $76 $77 reversed $29 $-1 #
face $-1 $78 $79 $17 $-1 $80 forward single #
loop $-1 $-1 $81 $31 #
plane-surface $-1 30.266720586953369 -1.6731830520913178 34.818518594743487 0 0.83867057594974714 0.54463902268945019 1 0 0 forward_v I I I I #
coedge $-1 $82 $83 $84 $85 reversed $32 $-1 #
face $-1 $-1 $86 $18 $-1 $87 forward single #
loop $-1 $88 $89 $34 #
cone-surface $-1 25.259805530507663 14.127011479484668 3.7237975334545546 0 -0.83867057594974714 -0.54463902268945019 0.5 0 0 1 I I -0.70710678118654746 0.70710678118654746 0.5 forward I I I I #
loop $-1 $-1 $90 $23 #
coedge $-1 $56 $56 $91 $92 reversed $35 $-1 #
face $-1 $-1 $93 $19 $-1 $94 forward single #
loop $-1 $95 $96 $37 #
cone-surface $-1 35.273635643399089 14.127011479484668 3.7237975334545546 0 -0.83867057594974714 -0.54463902268945019 0.5 0 0 1 I I -0.70710678118654746 0.70710678118654746 0.5 forward I I I I #
loop $-1 $-1 $97 $24 #
coedge $-1 $61 $61 $98 $99 reversed $38 $-1 #
face $-1 $100 $101 $15 $-1 $102 reversed single #
loop $-1 $-1 $103 $40 #
plane-surface $-1 0 -18.741259903151313 0 0 1 0 0 0 1 forward_v I I I I #
coedge $-1 $104 $105 $106 $107 forward $41 $-1 #
coedge $-1 $108 $43 $109 $110 forward $26 $-1 #
coedge $-1 $43 $108 $111 $112 forward $26 $-1 #
coedge $-1 $113 $114 $43 $69 reversed $115 $-1 #
edge $-1 $116 -18.741259903151313 $117 18.741259903151313 $68 $118 forward 7 unknown #
face $-1 $119 $120 $16 $-1 $121 reversed single #
loop $-1 $-1 $122 $44 #
plane-surface $-1 0 -9.7794003781536567 4.7610065848633916 0 -1 0 0 0 -1 forward_v I I I I #
coedge $-1 $123 $124 $125 $126 reversed $45 $-1 #
coedge $-1 $127 $47 $128 $129 forward $29 $-1 #
coedge $-1 $47 $127 $130 $131 reversed $29 $-1 #
coedge $-1 $132 $133 $47 $77 forward $134 $-1 #
edge $-1 $135 2.6492353078274142 $136 11.611094832825071 $76 $137 forward 7 unknown #
face $-1 $138 $139 $17 $-1 $140 reversed single #
loop $-1 $-1 $84 $48 #
plane-surface $-1 0 0 8.0777249553577057 0 0 1 1 0 0 forward_v I I I I #
coedge $-1 $141 $142 $143 $144 reversed $49 $-1 #
coedge $-1 $83 $51 $145 $146 reversed $32 $-1 #
coedge $-1 $51 $82 $141 $147 reversed $32 $-1 #
coedge $-1 $143 $148 $51 $85 forward $79 $-1 #
edge $-1 $149 15.603978670521787 $150 18.652747746956475 $84 $151 forward 7 unknown #
loop $-1 $-1 $91 $52 #
plane-surface $-1 30.266720586953369 -1.6731830520913178 34.818518594743487 0 0.83867057594974714 0.54463902268945019 1 0 0 forward_v I I I I #
loop $-1 $-1 $152 $34 #
coedge $-1 $89 $89 $90 $153 reversed $53 $-1 #
coedge $-1 $90 $90 $89 $153 forward $55 $-1 #
coedge $-1 $91 $91 $56 $92 forward $86 $-1 #
edge $-1 $154 -1.4897782135920807e-015 $154 6.2831853071795987 $91 $155 forward 7 unknown #
loop $-1 $-1 $98 $57 #
plane-surface $-1 30.266720586953369 -1.6731830520913178 34.818518594743487 0 0.83867057594974714 0.54463902268945019 1 0 0 forward_v I I I I #
loop $-1 $-1 $156 $37 #
coedge $-1 $96 $96 $97 $157 reversed $58 $-1 #
coedge $-1 $97 $97 $96 $157 forward $60 $-1 #
coedge $-1 $98 $98 $61 $99 forward $93 $-1 #
edge $-1 $158 -1.4897782135920807e-015 $158 6.2831853071795987 $98 $159 forward 7 unknown #
face $-1 $160 $161 $15 $-1 $162 reversed single #
loop $-1 $-1 $163 $62 #
plane-surface $-1 -41.949522385326702 0 0 1 0 0 0 0 -1 forward_v I I I I #
coedge $-1 $164 $111 $165 $166 forward $63 $-1 #
coedge $-1 $167 $65 $164 $168 forward $41 $-1 #
coedge $-1 $65 $167 $169 $170 forward $41 $-1 #
coedge $-1 $114 $113 $65 $107 reversed $115 $-1 #
edge $-1 $171 -18.741259903151313 $172 18.741259903151313 $106 $173 forward 7 unknown #
coedge $-1 $67 $66 $174 $175 forward $26 $-1 #
coedge $-1 $176 $177 $66 $110 reversed $161 $-1 #
edge $-1 $117 -41.949522385326702 $178 41.949522385326702 $109 $179 forward 7 unknown #
coedge $-1 $103 $180 $67 $112 reversed $63 $-1 #
edge $-1 $181 -41.949522385326702 $116 41.949522385326702 $111 $182 forward 7 unknown #
coedge $-1 $106 $68 $180 $183 forward $115 $-1 #
coedge $-1 $68 $106 $176 $184 reversed $115 $-1 #
loop $-1 $-1 $113 $160 #
vertex $-1 $69 $185 #
vertex $-1 $69 $186 #
straight-curve $-1 41.949522385326702 0 8.0777249553577057 0 1 0 I I #
face $-1 $187 $188 $16 $-1 $189 reversed single #
loop $-1 $-1 $190 $70 #
plane-surface $-1 -41.949522385326702 0 0 1 0 0 0 0 -1 forward_v I I I I #
coedge $-1 $191 $128 $133 $192 reversed $71 $-1 #
coedge $-1 $193 $73 $194 $195 reversed $45 $-1 #
coedge $-1 $73 $193 $191 $196 forward $45 $-1 #
coedge $-1 $133 $132 $73 $126 forward $134 $-1 #
edge $-1 $197 -11.611094832825071 $198 -2.6492353078274142 $125 $199 forward 7 unknown #
coedge $-1 $75 $74 $190 $200 reversed $29 $-1 #
coedge $-1 $122 $201 $74 $129 reversed $71 $-1 #
edge $-1 $135 -41.949522385326702 $202 41.949522385326702 $128 $203 forward 7 unknown #
coedge $-1 $204 $205 $75 $131 forward $188 $-1 #
edge $-1 $136 -41.949522385326702 $206 41.949522385326702 $130 $207 forward 7 unknown #
coedge $-1 $125 $76 $205 $208 forward $134 $-1 #
coedge $-1 $76 $125 $122 $192 forward $134 $-1 #
loop $-1 $-1 $76 $187 #
vertex $-1 $77 $209 #
vertex $-1 $208 $210 #
straight-curve $-1 41.949522385326702 -7.1301650703262425 6.2610065848633916 0 -1 0 I I #
face $-1 $-1 $211 $17 $-1 $212 reversed single #
loop $-1 $-1 $213 $78 #
plane-surface $-1 41.949522385326702 0 0 -1 0 0 0 0 1 forward_v I I I I #
coedge $-1 $214 $81 $83 $147 forward $49 $-1 #
coedge $-1 $81 $214 $213 $215 reversed $49 $-1 #
coedge $-1 $216 $84 $81 $144 forward $79 $-1 #
edge $-1 $150 3.4505584951033583 $217 26.816162091850018 $143 $218 forward 7 unknown #
coedge $-1 $219 $220 $82 $146 forward $211 $-1 #
edge $-1 $221 -36.873574050861443 $149 -32.178881216247589 $145 $222 forward 7 unknown #
edge $-1 $150 31.884740452594681 $221 37.482519806302641 $83 $223 forward 7 unknown #
coedge $-1 $84 $216 $219 $224 forward $79 $-1 #
vertex $-1 $146 $225 #
vertex $-1 $85 $226 #
straight-curve $-1 18.583918788580043 34.3452385736731 8.0777249553577093 0 -1 0 I I #
coedge $-1 $152 $152 $-1 $227 reversed $88 $-1 #
edge $-1 $228 0 $228 6.2831853071796004 $89 $229 forward 7 unknown #
vertex $-1 $92 $230 #
ellipse-curve $-1 25.259805530507663 17.216875364933973 5.7303785380507755 0 0.83867057594974714 0.54463902268945019 1 0 0 1 I I #
coedge $-1 $156 $156 $-1 $231 reversed $95 $-1 #
edge $-1 $232 0 $232 6.2831853071796004 $96 $233 forward 7 unknown #
vertex $-1 $99 $234 #
ellipse-curve $-1 35.273635643399089 17.216875364933973 5.7303785380507755 0 0.83867057594974714 0.54463902268945019 1 0 0 1 I I #
face $-1 $-1 $115 $15 $-1 $235 reversed single #
loop $-1 $-1 $176 $100 #
plane-surface $-1 0 18.741259903151313 0 0 -1 0 0 0 -1 forward_v I I I I #
coedge $-1 $236 $174 $177 $237 forward $101 $-1 #
coedge $-1 $180 $103 $104 $168 reversed $63 $-1 #
coedge $-1 $174 $236 $103 $166 reversed $101 $-1 #
edge $-1 $181 -8.0777249553577057 $238 8.0777249553577057 $165 $239 forward 7 unknown #
coedge $-1 $105 $104 $236 $240 forward $41 $-1 #
edge $-1 $172 -41.949522385326702 $238 41.949522385326702 $164 $241 forward 7 unknown #
coedge $-1 $177 $176 $105 $170 reversed $161 $-1 #
edge $-1 $242 -41.949522385326702 $171 41.949522385326702 $169 $243 forward 7 unknown #
vertex $-1 $107 $244 #
vertex $-1 $183 $245 #
straight-curve $-1 41.949522385326702 0 -8.0777249553577057 0 -1 0 I I #
coedge $-1 $163 $165 $108 $175 reversed $101 $-1 #
edge $-1 $178 -18.741259903151313 $181 18.741259903151313 $174 $246 forward 7 unknown #
coedge $-1 $169 $109 $114 $184 forward $161 $-1 #
coedge $-1 $109 $169 $163 $237 reversed $161 $-1 #
vertex $-1 $110 $247 #
straight-curve $-1 0 18.741259903151313 8.0777249553577057 -1 0 0 I I #
coedge $-1 $111 $164 $113 $183 reversed $63 $-1 #
vertex $-1 $175 $248 #
straight-curve $-1 0 -18.741259903151313 8.0777249553577057 1 0 0 I I #
edge $-1 $116 -8.0777249553577057 $172 8.0777249553577057 $113 $249 forward 7 unknown #
edge $-1 $117 -8.0777249553577057 $171 8.0777249553577057 $114 $250 forward 7 unknown #
point $-1 41.949522385326702 -18.741259903151313 8.0777249553577057 #
point $-1 41.949522385326702 18.741259903151313 8.0777249553577057 #
face $-1 $-1 $134 $16 $-1 $251 reversed single #
loop $-1 $-1 $130 $119 #
plane-surface $-1 0 -18.741259903151313 0 0 1 0 0 0 1 forward_v I I I I #
coedge $-1 $252 $253 $127 $200 forward $120 $-1 #
coedge $-1 $201 $122 $124 $196 reversed $71 $-1 #
edge $-1 $198 0.88050329243169578 $135 3.8805032924316958 $133 $254 forward 7 unknown #
coedge $-1 $124 $123 $255 $256 reversed $45 $-1 #
coedge $-1 $205 $204 $123 $195 forward $188 $-1 #
edge $-1 $257 -41.949522385326702 $197 41.949522385326702 $194 $258 forward 7 unknown #
edge $-1 $259 -41.949522385326702 $198 41.949522385326702 $191 $260 forward 7 unknown #
vertex $-1 $195 $261 #
vertex $-1 $126 $262 #
straight-curve $-1 41.949522385326702 -7.1301650703262425 3.2610065848633916 0 1 0 I I #
edge $-1 $206 -11.611094832825071 $202 -2.6492353078274142 $190 $263 forward 7 unknown #
coedge $-1 $128 $191 $252 $264 reversed $71 $-1 #
vertex $-1 $200 $265 #
straight-curve $-1 0 -9.7794003781536567 6.2610065848633916 -1 0 0 I I #
coedge $-1 $194 $130 $253 $266 forward $188 $-1 #
coedge $-1 $130 $194 $132 $208 reversed $188 $-1 #
vertex $-1 $266 $267 #
straight-curve $-1 0 -18.741259903151313 6.2610065848633916 -1 0 0 I I #
edge $-1 $136 -6.2610065848633916 $197 -3.2610065848633916 $132 $268 forward 7 unknown #
point $-1 41.949522385326702 -9.7794003781536567 6.2610065848633916 #
point $-1 41.949522385326702 -18.741259903151313 6.2610065848633916 #
loop $-1 $-1 $145 $138 #
plane-surface $-1 0 18.741259903151313 0 0 -1 0 0 0 -1 forward_v I I I I #
coedge $-1 $269 $270 $142 $215 forward $139 $-1 #
coedge $-1 $142 $141 $220 $271 reversed $49 $-1 #
edge $-1 $217 16.828466539673649 $272 22.426245893381605 $213 $273 forward 7 unknown #
coedge $-1 $148 $143 $270 $274 forward $79 $-1 #
vertex $-1 $274 $275 #
straight-curve $-1 15.133360293476684 15.692490826716627 8.0777249553577057 1 0 0 I I #
coedge $-1 $276 $145 $148 $224 reversed $211 $-1 #
coedge $-1 $145 $276 $214 $271 forward $211 $-1 #
vertex $-1 $146 $277 #
straight-curve $-1 18.583918788580043 18.741259903151313 40.256606171605291 0 0 1 I I #
straight-curve $-1 18.583918788580043 -1.6731830520913178 34.818518594743487 0 0.54463902268945019 -0.83867057594974714 I I #
edge $-1 $278 -41.949522385326702 $149 -18.583918788580043 $219 $279 forward 7 unknown #
point $-1 18.583918788580043 18.741259903151313 8.0777249553577057 #
point $-1 18.583918788580043 15.692490826716625 8.0777249553577057 #
edge $-1 $280 1 $280 0 $152 $-1 forward 7 unknown #
vertex $-1 $153 $281 #
ellipse-curve $-1 25.259805530507663 14.546346767459543 3.9961170447992798 0 0.83867057594974714 0.54463902268945019 1 0 0 1 I I #
point $-1 26.259805530507663 17.216875364933973 5.7303785380507772 #
edge $-1 $282 1 $282 0 $156 $-1 forward 7 unknown #
vertex $-1 $157 $283 #
ellipse-curve $-1 35.273635643399089 14.546346767459543 3.9961170447992798 0 0.83867057594974714 0.54463902268945019 1 0 0 1 I I #
point $-1 36.273635643399089 17.216875364933973 5.7303785380507772 #
plane-surface $-1 41.949522385326702 0 0 -1 0 0 0 0 1 forward_v I I I I #
coedge $-1 $165 $163 $167 $240 reversed $101 $-1 #
edge $-1 $178 -8.0777249553577057 $242 8.0777249553577057 $177 $284 forward 7 unknown #
vertex $-1 $240 $285 #
straight-curve $-1 -41.949522385326702 -18.741259903151313 0 0 0 -1 I I #
edge $-1 $238 -18.741259903151313 $242 18.741259903151313 $236 $286 forward 7 unknown #
straight-curve $-1 0 -18.741259903151313 -8.0777249553577057 -1 0 0 I I #
vertex $-1 $170 $287 #
straight-curve $-1 0 18.741259903151313 -8.0777249553577057 1 0 0 I I #
point $-1 41.949522385326702 18.741259903151313 -8.0777249553577057 #
point $-1 41.949522385326702 -18.741259903151313 -8.0777249553577057 #
straight-curve $-1 -41.949522385326702 0 8.0777249553577057 0 -1 0 I I #
point $-1 -41.949522385326702 18.741259903151313 8.0777249553577057 #
point $-1 -41.949522385326702 -18.741259903151313 8.0777249553577057 #
straight-curve $-1 41.949522385326702 -18.741259903151313 0 0 0 -1 I I #
straight-curve $-1 41.949522385326702 18.741259903151313 0 0 0 -1 I I #
plane-surface $-1 41.949522385326702 0 0 -1 0 0 0 0 1 forward_v I I I I #
coedge $-1 $255 $190 $201 $264 forward $120 $-1 #
coedge $-1 $190 $255 $204 $266 reversed $120 $-1 #
straight-curve $-1 41.949522385326702 -9.7794003781536567 2.3805032924316958 0 0 1 I I #
coedge $-1 $253 $252 $193 $256 forward $120 $-1 #
edge $-1 $259 2.6492353078274142 $257 11.611094832825071 $255 $288 forward 7 unknown #
vertex $-1 $195 $289 #
straight-curve $-1 0 -18.741259903151313 3.2610065848633916 1 0 0 I I #
vertex $-1 $256 $290 #
straight-curve $-1 0 -9.7794003781536567 3.2610065848633916 1 0 0 I I #
point $-1 41.949522385326702 -18.741259903151313 3.2610065848633916 #
point $-1 41.949522385326702 -9.7794003781536567 3.2610065848633916 #
straight-curve $-1 -41.949522385326702 -7.1301650703262425 6.2610065848633916 0 1 0 I I #
edge $-1 $202 -3.8805032924316958 $259 -0.88050329243169578 $252 $291 forward 7 unknown #
point $-1 -41.949522385326702 -9.7794003781536567 6.2610065848633916 #
edge $-1 $206 -6.2610065848633916 $257 -3.2610065848633916 $253 $292 forward 7 unknown #
point $-1 -41.949522385326702 -18.741259903151313 6.2610065848633916 #
straight-curve $-1 41.949522385326702 -18.741259903151313 0 0 0 -1 I I #
coedge $-1 $270 $213 $276 $293 reversed $139 $-1 #
coedge $-1 $213 $269 $216 $274 reversed $139 $-1 #
edge $-1 $272 -26.816162091850018 $221 -3.4505584951033583 $220 $294 forward 7 unknown #
vertex $-1 $215 $295 #
straight-curve $-1 41.949522385326702 6.5270512571866579 22.19126468053685 0 0.54463902268945019 -0.83867057594974714 I I #
edge $-1 $217 15.692490826716627 $278 18.741259903151313 $270 $296 forward 7 unknown #
point $-1 41.949522385326702 15.692490826716627 8.0777249553577057 #
coedge $-1 $220 $219 $269 $293 forward $211 $-1 #
point $-1 18.583918788580043 18.741259903151313 3.3830321207438487 #
vertex $-1 $274 $297 #
straight-curve $-1 0 18.741259903151313 8.0777249553577057 -1 0 0 I I #
vertex $-1 $227 $298 #
point $-1 26.259805530507663 14.546346767459543 3.9961170447992798 #
vertex $-1 $231 $299 #
point $-1 36.273635643399089 14.546346767459543 3.9961170447992798 #
straight-curve $-1 -41.949522385326702 18.741259903151313 0 0 0 -1 I I #
point $-1 -41.949522385326702 -18.741259903151313 -8.0777249553577057 #
straight-curve $-1 -41.949522385326702 0 -8.0777249553577057 0 1 0 I I #
point $-1 -41.949522385326702 18.741259903151313 -8.0777249553577057 #
straight-curve $-1 -41.949522385326702 -7.1301650703262425 3.2610065848633916 0 -1 0 I I #
point $-1 -41.949522385326702 -18.741259903151313 3.2610065848633916 #
point $-1 -41.949522385326702 -9.7794003781536567 3.2610065848633916 #
straight-curve $-1 -41.949522385326702 -9.7794003781536567 2.3805032924316958 0 0 -1 I I #
straight-curve $-1 -41.949522385326702 -18.741259903151313 0 0 0 -1 I I #
edge $-1 $278 -8.0777249553577057 $272 -3.3830321207438478 $269 $300 forward 7 unknown #
straight-curve $-1 15.133360293476684 18.741259903151313 3.3830321207438487 -1 0 0 I I #
point $-1 41.949522385326702 18.741259903151313 3.3830321207438478 #
straight-curve $-1 41.949522385326702 0 8.0777249553577057 0 1 0 I I #
point $-1 41.949522385326702 18.741259903151313 8.0777249553577057 #
point $-1 25.259805530507663 13.707676191509794 3.4514780221098293 #
point $-1 35.273635643399089 13.707676191509794 3.4514780221098293 #
straight-curve $-1 41.949522385326702 18.741259903151313 0 0 0 -1 I I #
End-of-ACIS-data 