500 0 5 0           
7 Unknown 11 ACIS 5.0 NT 24 Fri Mar 26 01:21:51 1999 
-1 9.9999999999999995e-007 1e-010 
body $-1 $5 $-1 $6 #
body $-1 $7 $-1 $8 #
body $-1 $9 $-1 $10 #
body $-1 $11 $-1 $12 #
body $-1 $13 $-1 $14 #
lump $-1 $-1 $15 $0 #
transform $-1 1 0 0 0 1 0 0 0 1 74.908291879024631 33.218250861456809 10.398152936212542 1 rotate no_reflect no_shear #
lump $-1 $-1 $16 $1 #
transform $-1 1 0 0 0 1 0 0 0 1 74.908291879024631 33.218250861456809 10.398152936212542 1 rotate no_reflect no_shear #
lump $-1 $-1 $17 $2 #
transform $-1 1 0 0 0 1 0 0 0 1 74.908291879024631 33.218250861456809 10.398152936212542 1 rotate no_reflect no_shear #
lump $-1 $-1 $18 $3 #
transform $-1 1 0 0 0 1 0 0 0 1 74.908291879024631 33.218250861456809 10.398152936212542 1 rotate no_reflect no_shear #
lump $-1 $-1 $19 $4 #
transform $-1 1 0 0 0 1 0 0 0 1 74.908291879024631 33.218250861456809 10.398152936212542 1 rotate no_reflect no_shear #
shell $-1 $-1 $-1 $20 $-1 $5 #
shell $-1 $-1 $-1 $21 $-1 $7 #
shell $-1 $-1 $-1 $22 $-1 $9 #
shell $-1 $-1 $-1 $23 $-1 $11 #
shell $-1 $-1 $-1 $24 $-1 $13 #
face $-1 $25 $26 $15 $-1 $27 forward single #
face $-1 $28 $29 $16 $-1 $30 forward single #
face $-1 $31 $32 $17 $-1 $33 reversed single #
face $-1 $34 $35 $18 $-1 $36 forward single #
face $-1 $37 $38 $19 $-1 $39 reversed single #
face $-1 $40 $41 $15 $-1 $42 reversed single #
loop $-1 $-1 $43 $20 #
plane-surface $-1 0 0 10.398152936212542 0 0 1 1 0 0 forward_v I I I I #
face $-1 $44 $45 $16 $-1 $46 forward single #
loop $-1 $-1 $47 $21 #
plane-surface $-1 -46.779684738456766 56.267597233784358 167.34290701454105 1 0 0 0 -0.52991927123019833 -0.84804809178421925 forward_v I I I I #
face $-1 $48 $49 $17 $-1 $50 reversed single #
loop $-1 $51 $52 $22 #
cone-surface $-1 -38.174386960478174 27.639457195488756 5.6171199703063746 0 -0.52991927123019833 -0.84804809178421925 2 0 0 1 I I 0 1 2 forward I I I I #
face $-1 $53 $54 $18 $-1 $55 forward single #
loop $-1 $-1 $56 $23 #
plane-surface $-1 29.569089182499582 56.267597233784358 167.34290701454105 1 0 0 0 -0.52991927123019833 -0.84804809178421925 forward_v I I I I #
face $-1 $57 $58 $19 $-1 $59 reversed single #
loop $-1 $60 $61 $24 #
cone-surface $-1 38.174386960478174 27.639457195488756 5.6171199703063746 0 -0.52991927123019833 -0.84804809178421925 2 0 0 1 I I 0 1 2 forward I I I I #
face $-1 $62 $63 $15 $-1 $64 reversed single #
loop $-1 $-1 $65 $25 #
plane-surface $-1 0 0 -10.398152936212542 0 0 1 1 0 0 forward_v I I I I #
coedge $-1 $66 $67 $68 $69 forward $26 $-1 #
face $-1 $70 $71 $16 $-1 $72 forward single #
loop $-1 $-1 $73 $28 #
plane-surface $-1 -38.174386960478174 -23.123097649479078 40.291239040896727 0 0.52991927123019833 0.84804809178421925 1 0 0 forward_v I I I I #
coedge $-1 $74 $75 $76 $77 reversed $29 $-1 #
face $-1 $78 $79 $17 $-1 $80 forward single #
loop $-1 $81 $82 $31 #
cone-surface $-1 -38.174386960478174 25.781950016446217 2.6444871483190067 0 -0.52991927123019833 -0.84804809178421925 1 0 0 1 I I -0.70710678118654746 0.70710678118654746 1 forward I I I I #
loop $-1 $-1 $83 $22 #
coedge $-1 $52 $52 $84 $85 reversed $32 $-1 #
face $-1 $86 $87 $18 $-1 $88 forward single #
loop $-1 $-1 $89 $34 #
plane-surface $-1 38.174386960478174 -23.123097649479078 40.291239040896727 0 0.52991927123019833 0.84804809178421925 1 0 0 forward_v I I I I #
coedge $-1 $90 $91 $92 $93 reversed $35 $-1 #
face $-1 $94 $95 $19 $-1 $96 forward single #
loop $-1 $97 $98 $37 #
cone-surface $-1 38.174386960478174 25.781950016446217 2.6444871483190067 0 -0.52991927123019833 -0.84804809178421925 1 0 0 1 I I -0.70710678118654746 0.70710678118654746 1 forward I I I I #
loop $-1 $-1 $99 $24 #
coedge $-1 $61 $61 $100 $101 reversed $38 $-1 #
face $-1 $102 $103 $15 $-1 $104 reversed single #
loop $-1 $-1 $105 $40 #
plane-surface $-1 0 -33.218250861456809 0 0 1 0 0 0 1 forward_v I I I I #
coedge $-1 $106 $107 $108 $109 forward $41 $-1 #
coedge $-1 $110 $43 $111 $112 forward $26 $-1 #
coedge $-1 $43 $110 $113 $114 forward $26 $-1 #
coedge $-1 $115 $116 $43 $69 reversed $117 $-1 #
edge $-1 $118 -33.218250861456809 $119 33.218250861456809 $68 $120 forward 7 unknown #
face $-1 $121 $122 $16 $-1 $123 forward single #
loop $-1 $-1 $124 $44 #
plane-surface $-1 -29.569089182499582 56.267597233784358 167.34290701454105 -1 0 0 0 0.52991927123019833 0.84804809178421925 forward_v I I I I #
coedge $-1 $125 $126 $127 $128 reversed $45 $-1 #
coedge $-1 $75 $47 $126 $129 forward $29 $-1 #
coedge $-1 $47 $74 $130 $131 reversed $29 $-1 #
coedge $-1 $132 $127 $47 $77 forward $122 $-1 #
edge $-1 $133 -3.4179592717467671 $134 5.0844522445646305 $76 $135 forward 7 unknown #
face $-1 $136 $137 $17 $-1 $138 forward single #
loop $-1 $-1 $139 $48 #
plane-surface $-1 -46.779684738456766 56.267597233784358 167.34290701454105 1 0 0 0 -0.52991927123019833 -0.84804809178421925 forward_v I I I I #
loop $-1 $-1 $140 $31 #
coedge $-1 $82 $82 $83 $141 forward $49 $-1 #
coedge $-1 $83 $83 $82 $141 reversed $51 $-1 #
coedge $-1 $84 $84 $52 $85 forward $137 $-1 #
edge $-1 $142 -5.1709940071163889e-016 $142 6.2831853071795996 $84 $143 forward 7 unknown #
face $-1 $144 $145 $18 $-1 $146 forward single #
loop $-1 $-1 $147 $53 #
plane-surface $-1 46.779684738456766 56.267597233784358 167.34290701454105 -1 0 0 0 0.52991927123019833 0.84804809178421925 forward_v I I I I #
coedge $-1 $148 $149 $150 $151 reversed $54 $-1 #
coedge $-1 $91 $56 $149 $152 forward $35 $-1 #
coedge $-1 $56 $90 $153 $154 reversed $35 $-1 #
coedge $-1 $155 $150 $56 $93 forward $145 $-1 #
edge $-1 $156 -3.4179592717467671 $157 5.0844522445646305 $92 $158 forward 7 unknown #
face $-1 $159 $160 $19 $-1 $161 forward single #
loop $-1 $-1 $162 $57 #
plane-surface $-1 29.569089182499582 56.267597233784358 167.34290701454105 1 0 0 0 -0.52991927123019833 -0.84804809178421925 forward_v I I I I #
loop $-1 $-1 $163 $37 #
coedge $-1 $98 $98 $99 $164 forward $58 $-1 #
coedge $-1 $99 $99 $98 $164 reversed $60 $-1 #
coedge $-1 $100 $100 $61 $101 forward $160 $-1 #
edge $-1 $165 -5.1709940071163889e-016 $165 6.2831853071795996 $100 $166 forward 7 unknown #
face $-1 $167 $168 $15 $-1 $169 reversed single #
loop $-1 $-1 $170 $62 #
plane-surface $-1 -74.908291879024631 0 0 1 0 0 0 0 -1 forward_v I I I I #
coedge $-1 $171 $113 $172 $173 forward $63 $-1 #
coedge $-1 $174 $65 $171 $175 forward $41 $-1 #
coedge $-1 $65 $174 $176 $177 forward $41 $-1 #
coedge $-1 $116 $115 $65 $109 reversed $117 $-1 #
edge $-1 $178 -33.218250861456809 $179 33.218250861456809 $108 $180 forward 7 unknown #
coedge $-1 $67 $66 $181 $182 forward $26 $-1 #
coedge $-1 $183 $184 $66 $112 reversed $168 $-1 #
edge $-1 $119 -74.908291879024631 $185 74.908291879024631 $111 $186 forward 7 unknown #
coedge $-1 $105 $187 $67 $114 reversed $63 $-1 #
edge $-1 $188 -74.908291879024631 $118 74.908291879024631 $113 $189 forward 7 unknown #
coedge $-1 $108 $68 $187 $190 forward $117 $-1 #
coedge $-1 $68 $108 $183 $191 reversed $117 $-1 #
loop $-1 $-1 $115 $167 #
vertex $-1 $69 $192 #
vertex $-1 $69 $193 #
straight-curve $-1 74.908291879024631 0 10.398152936212542 0 1 0 I I #
face $-1 $194 $195 $16 $-1 $196 reversed single #
loop $-1 $-1 $197 $70 #
plane-surface $-1 0 0 10.398152936212542 0 0 1 1 0 0 forward_v I I I I #
coedge $-1 $198 $199 $197 $200 reversed $71 $-1 #
coedge $-1 $201 $73 $199 $202 reversed $45 $-1 #
coedge $-1 $73 $201 $74 $129 reversed $45 $-1 #
coedge $-1 $76 $197 $73 $128 forward $122 $-1 #
edge $-1 $203 10.481895702260495 $133 27.692491258217679 $127 $204 forward 7 unknown #
edge $-1 $133 56.410641634692603 $205 66.436501722913619 $74 $206 forward 7 unknown #
coedge $-1 $207 $208 $75 $131 forward $209 $-1 #
edge $-1 $134 73.273300571057987 $205 78.586197042463994 $130 $210 forward 7 unknown #
coedge $-1 $211 $76 $208 $212 forward $122 $-1 #
vertex $-1 $128 $213 #
vertex $-1 $212 $214 #
straight-curve $-1 -46.779684738456766 28.133798616892179 10.39815293621254 0 1 0 I I #
face $-1 $215 $216 $17 $-1 $217 forward single #
loop $-1 $218 $84 $78 #
plane-surface $-1 -38.174386960478174 -23.123097649479078 40.291239040896727 0 0.52991927123019833 0.84804809178421925 1 0 0 forward_v I I I I #
coedge $-1 $219 $220 $221 $222 reversed $79 $-1 #
coedge $-1 $140 $140 $-1 $223 forward $81 $-1 #
edge $-1 $224 0 $224 6.2831853071796004 $82 $225 forward 7 unknown #
vertex $-1 $85 $226 #
ellipse-curve $-1 -38.174386960478174 28.967045103301103 7.7417047005095352 0 -0.52991927123019833 -0.84804809178421925 2 0 0 1 I I #
face $-1 $227 $228 $18 $-1 $229 reversed single #
loop $-1 $-1 $230 $86 #
plane-surface $-1 0 0 10.398152936212542 0 0 1 1 0 0 forward_v I I I I #
coedge $-1 $231 $232 $230 $233 reversed $87 $-1 #
coedge $-1 $234 $89 $232 $235 reversed $54 $-1 #
coedge $-1 $89 $234 $90 $152 reversed $54 $-1 #
coedge $-1 $92 $230 $89 $151 forward $145 $-1 #
edge $-1 $236 -27.692491258217679 $156 -10.481895702260495 $150 $237 forward 7 unknown #
edge $-1 $156 56.410641634692603 $238 66.436501722913619 $90 $239 forward 7 unknown #
coedge $-1 $240 $241 $91 $154 forward $242 $-1 #
edge $-1 $157 73.273300571057987 $238 78.586197042463994 $153 $243 forward 7 unknown #
coedge $-1 $244 $92 $241 $245 forward $145 $-1 #
vertex $-1 $151 $246 #
vertex $-1 $245 $247 #
straight-curve $-1 29.569089182499582 28.133798616892179 10.39815293621254 0 1 0 I I #
face $-1 $248 $249 $19 $-1 $250 forward single #
loop $-1 $251 $100 $94 #
plane-surface $-1 38.174386960478174 -23.123097649479078 40.291239040896727 0 0.52991927123019833 0.84804809178421925 1 0 0 forward_v I I I I #
coedge $-1 $252 $253 $254 $255 reversed $95 $-1 #
coedge $-1 $163 $163 $-1 $256 forward $97 $-1 #
edge $-1 $257 0 $257 6.2831853071796004 $98 $258 forward 7 unknown #
vertex $-1 $101 $259 #
ellipse-curve $-1 38.174386960478174 28.967045103301103 7.7417047005095352 0 -0.52991927123019833 -0.84804809178421925 2 0 0 1 I I #
face $-1 $-1 $117 $15 $-1 $260 reversed single #
loop $-1 $-1 $183 $102 #
plane-surface $-1 0 33.218250861456809 0 0 -1 0 0 0 -1 forward_v I I I I #
coedge $-1 $261 $181 $184 $262 forward $103 $-1 #
coedge $-1 $187 $105 $106 $175 reversed $63 $-1 #
coedge $-1 $181 $261 $105 $173 reversed $103 $-1 #
edge $-1 $188 -10.398152936212542 $263 10.398152936212542 $172 $264 forward 7 unknown #
coedge $-1 $107 $106 $261 $265 forward $41 $-1 #
edge $-1 $179 -74.908291879024631 $263 74.908291879024631 $171 $266 forward 7 unknown #
coedge $-1 $184 $183 $107 $177 reversed $168 $-1 #
edge $-1 $267 -74.908291879024631 $178 74.908291879024631 $176 $268 forward 7 unknown #
vertex $-1 $109 $269 #
vertex $-1 $190 $270 #
straight-curve $-1 74.908291879024631 0 -10.398152936212542 0 -1 0 I I #
coedge $-1 $170 $172 $110 $182 reversed $103 $-1 #
edge $-1 $185 -33.218250861456809 $188 33.218250861456809 $181 $271 forward 7 unknown #
coedge $-1 $176 $111 $116 $191 forward $168 $-1 #
coedge $-1 $111 $176 $170 $262 reversed $168 $-1 #
vertex $-1 $112 $272 #
straight-curve $-1 0 33.218250861456809 10.398152936212542 -1 0 0 I I #
coedge $-1 $113 $171 $115 $190 reversed $63 $-1 #
vertex $-1 $182 $273 #
straight-curve $-1 0 -33.218250861456809 10.398152936212542 1 0 0 I I #
edge $-1 $118 -10.398152936212542 $179 10.398152936212542 $115 $274 forward 7 unknown #
edge $-1 $119 -10.398152936212542 $178 10.398152936212542 $116 $275 forward 7 unknown #
point $-1 74.908291879024631 -33.218250861456809 10.398152936212542 #
point $-1 74.908291879024631 33.218250861456809 10.398152936212542 #
face $-1 $276 $277 $16 $-1 $278 reversed single #
loop $-1 $-1 $279 $121 #
plane-surface $-1 0 0 -10.398152936212542 0 0 1 1 0 0 forward_v I I I I #
coedge $-1 $127 $280 $124 $200 forward $122 $-1 #
coedge $-1 $199 $124 $281 $282 reversed $71 $-1 #
coedge $-1 $124 $198 $125 $202 forward $71 $-1 #
edge $-1 $283 -5.0844522445646305 $203 3.4179592717467671 $197 $284 forward 7 unknown #
coedge $-1 $126 $125 $207 $285 reversed $45 $-1 #
edge $-1 $286 -66.436501722913619 $203 -56.410641634692603 $199 $287 forward 7 unknown #
vertex $-1 $128 $288 #
straight-curve $-1 -19.087193480239087 24.715839345145415 10.398152936212536 -1 0 0 I I #
vertex $-1 $285 $289 #
straight-curve $-1 -46.779684738456766 -23.123097649479078 40.291239040896727 0 0.84804809178421925 -0.52991927123019833 I I #
coedge $-1 $281 $130 $201 $285 forward $209 $-1 #
coedge $-1 $130 $290 $132 $212 reversed $209 $-1 #
loop $-1 $-1 $281 $291 #
straight-curve $-1 -46.779684738456766 33.218250861456809 83.671453507270527 0 0 -1 I I #
coedge $-1 $292 $132 $293 $294 forward $122 $-1 #
edge $-1 $134 46.779684738456766 $295 74.908291879024631 $208 $296 forward 7 unknown #
point $-1 -46.779684738456766 24.715839345145412 10.39815293621254 #
point $-1 -46.779684738456766 33.218250861456809 10.398152936212542 #
face $-1 $297 $298 $17 $-1 $299 forward single #
loop $-1 $-1 $300 $136 #
plane-surface $-1 -29.569089182499582 56.267597233784358 167.34290701454105 -1 0 0 0 0.52991927123019833 0.84804809178421925 forward_v I I I I #
loop $-1 $-1 $301 $78 #
coedge $-1 $220 $139 $302 $303 forward $79 $-1 #
coedge $-1 $139 $219 $304 $305 reversed $79 $-1 #
coedge $-1 $306 $307 $139 $222 forward $298 $-1 #
edge $-1 $308 -3.4179592717467671 $309 5.0844522445646305 $221 $310 forward 7 unknown #
edge $-1 $311 1 $311 0 $140 $-1 forward 7 unknown #
vertex $-1 $141 $312 #
ellipse-curve $-1 -38.174386960478174 26.311869287676416 3.4925352401032259 0 0.52991927123019833 0.84804809178421925 2 0 0 1 I I #
point $-1 -36.174386960478174 28.967045103301096 7.7417047005095219 #
face $-1 $313 $314 $18 $-1 $315 reversed single #
loop $-1 $316 $317 $144 #
cone-surface $-1 -38.174386960478174 27.639457195488756 5.6171199703063746 0 -0.52991927123019833 -0.84804809178421925 2 0 0 1 I I 0 1 2 forward I I I I #
coedge $-1 $150 $318 $147 $233 forward $145 $-1 #
coedge $-1 $232 $147 $319 $320 reversed $87 $-1 #
coedge $-1 $147 $231 $148 $235 forward $87 $-1 #
edge $-1 $321 -5.0844522445646305 $236 3.4179592717467671 $230 $322 forward 7 unknown #
coedge $-1 $149 $148 $240 $323 reversed $54 $-1 #
edge $-1 $324 -66.436501722913619 $236 -56.410641634692603 $232 $325 forward 7 unknown #
vertex $-1 $151 $326 #
straight-curve $-1 19.087193480239087 24.715839345145415 10.398152936212536 -1 0 0 I I #
vertex $-1 $323 $327 #
straight-curve $-1 29.569089182499582 -23.123097649479078 40.291239040896727 0 0.84804809178421925 -0.52991927123019833 I I #
coedge $-1 $319 $153 $234 $323 forward $242 $-1 #
coedge $-1 $153 $328 $155 $245 reversed $242 $-1 #
loop $-1 $-1 $319 $329 #
straight-curve $-1 29.569089182499582 33.218250861456809 83.671453507270527 0 0 -1 I I #
coedge $-1 $330 $155 $331 $332 forward $145 $-1 #
edge $-1 $157 -29.569089182499582 $333 29.569089182499582 $241 $334 forward 7 unknown #
point $-1 29.569089182499582 24.715839345145412 10.39815293621254 #
point $-1 29.569089182499582 33.218250861456809 10.398152936212542 #
face $-1 $335 $336 $19 $-1 $337 forward single #
loop $-1 $-1 $338 $159 #
plane-surface $-1 46.779684738456766 56.267597233784358 167.34290701454105 -1 0 0 0 0.52991927123019833 0.84804809178421925 forward_v I I I I #
loop $-1 $-1 $339 $94 #
coedge $-1 $253 $162 $340 $341 forward $95 $-1 #
coedge $-1 $162 $252 $342 $343 reversed $95 $-1 #
coedge $-1 $344 $345 $162 $255 forward $336 $-1 #
edge $-1 $346 -3.4179592717467671 $347 5.0844522445646305 $254 $348 forward 7 unknown #
edge $-1 $349 1 $349 0 $163 $-1 forward 7 unknown #
vertex $-1 $164 $350 #
ellipse-curve $-1 38.174386960478174 26.311869287676416 3.4925352401032259 0 0.52991927123019833 0.84804809178421925 2 0 0 1 I I #
point $-1 40.174386960478174 28.967045103301096 7.7417047005095219 #
plane-surface $-1 74.908291879024631 0 0 -1 0 0 0 0 1 forward_v I I I I #
coedge $-1 $172 $170 $174 $265 reversed $103 $-1 #
edge $-1 $185 -10.398152936212542 $267 10.398152936212542 $184 $351 forward 7 unknown #
vertex $-1 $265 $352 #
straight-curve $-1 -74.908291879024631 -33.218250861456809 0 0 0 -1 I I #
edge $-1 $263 -33.218250861456809 $267 33.218250861456809 $261 $353 forward 7 unknown #
straight-curve $-1 0 -33.218250861456809 -10.398152936212542 -1 0 0 I I #
vertex $-1 $177 $354 #
straight-curve $-1 0 33.218250861456809 -10.398152936212542 1 0 0 I I #
point $-1 74.908291879024631 33.218250861456809 -10.398152936212542 #
point $-1 74.908291879024631 -33.218250861456809 -10.398152936212542 #
straight-curve $-1 -74.908291879024631 0 10.398152936212542 0 -1 0 I I #
point $-1 -74.908291879024631 33.218250861456809 10.398152936212542 #
point $-1 -74.908291879024631 -33.218250861456809 10.398152936212542 #
straight-curve $-1 74.908291879024631 -33.218250861456809 0 0 0 -1 I I #
straight-curve $-1 74.908291879024631 33.218250861456809 0 0 0 -1 I I #
face $-1 $291 $355 $16 $-1 $356 reversed single #
loop $-1 $-1 $357 $194 #
plane-surface $-1 0 -33.218250861456809 0 0 1 0 0 0 1 forward_v I I I I #
coedge $-1 $358 $359 $360 $361 forward $195 $-1 #
coedge $-1 $197 $362 $363 $364 forward $122 $-1 #
coedge $-1 $363 $207 $198 $282 forward $209 $-1 #
edge $-1 $286 -78.586197042463994 $283 -73.273300571057987 $281 $365 forward 7 unknown #
vertex $-1 $282 $366 #
straight-curve $-1 -29.569089182499582 28.133798616892179 10.39815293621254 0 -1 0 I I #
edge $-1 $205 -27.692491258217679 $286 -10.481895702260495 $207 $367 forward 7 unknown #
vertex $-1 $285 $368 #
straight-curve $-1 -29.569089182499582 -23.123097649479078 40.291239040896727 0 -0.84804809178421925 0.52991927123019833 I I #
point $-1 -29.569089182499582 24.715839345145412 10.39815293621254 #
point $-1 -46.779684738456766 33.218250861456809 5.0852564648065268 #
coedge $-1 $208 $369 $370 $371 reversed $209 $-1 #
face $-1 $372 $209 $16 $-1 $373 reversed single #
coedge $-1 $362 $211 $374 $375 forward $122 $-1 #
coedge $-1 $370 $376 $211 $294 reversed $355 $-1 #
edge $-1 $295 -33.218250861456809 $377 33.218250861456809 $293 $378 forward 7 unknown #
vertex $-1 $212 $379 #
straight-curve $-1 0 33.218250861456809 10.398152936212542 -1 0 0 I I #
face $-1 $380 $381 $17 $-1 $382 reversed single #
loop $-1 $-1 $383 $215 #
plane-surface $-1 0 0 10.398152936212542 0 0 1 1 0 0 forward_v I I I I #
coedge $-1 $384 $385 $383 $386 reversed $216 $-1 #
coedge $-1 $387 $302 $307 $388 reversed $218 $-1 #
coedge $-1 $301 $389 $219 $303 reversed $218 $-1 #
edge $-1 $308 56.410641634692603 $390 66.436501722913619 $219 $391 forward 7 unknown #
coedge $-1 $392 $393 $220 $305 forward $394 $-1 #
edge $-1 $309 73.273300571057987 $390 78.586197042463994 $304 $395 forward 7 unknown #
coedge $-1 $396 $221 $393 $397 forward $298 $-1 #
coedge $-1 $221 $383 $301 $388 forward $298 $-1 #
vertex $-1 $388 $398 #
vertex $-1 $397 $399 #
straight-curve $-1 -46.779684738456766 28.133798616892179 10.39815293621254 0 1 0 I I #
vertex $-1 $223 $400 #
point $-1 -36.174386960478174 26.311869287676416 3.4925352401032259 #
face $-1 $401 $402 $18 $-1 $403 forward single #
loop $-1 $404 $405 $227 #
cone-surface $-1 -38.174386960478174 25.781950016446217 2.6444871483190067 0 -0.52991927123019833 -0.84804809178421925 1 0 0 1 I I -0.70710678118654746 0.70710678118654746 1 forward I I I I #
loop $-1 $-1 $406 $144 #
coedge $-1 $317 $317 $407 $408 reversed $228 $-1 #
coedge $-1 $230 $409 $410 $411 forward $145 $-1 #
coedge $-1 $410 $240 $231 $320 forward $242 $-1 #
edge $-1 $324 -78.586197042463994 $321 -73.273300571057987 $319 $412 forward 7 unknown #
vertex $-1 $320 $413 #
straight-curve $-1 46.779684738456766 28.133798616892179 10.39815293621254 0 -1 0 I I #
edge $-1 $238 10.481895702260495 $324 27.692491258217679 $240 $414 forward 7 unknown #
vertex $-1 $323 $415 #
straight-curve $-1 46.779684738456766 -23.123097649479078 40.291239040896727 0 -0.84804809178421925 0.52991927123019833 I I #
point $-1 46.779684738456766 24.715839345145412 10.39815293621254 #
point $-1 29.569089182499582 33.218250861456809 5.0852564648065268 #
coedge $-1 $241 $416 $417 $418 forward $242 $-1 #
face $-1 $419 $242 $18 $-1 $420 reversed single #
coedge $-1 $421 $244 $422 $423 forward $145 $-1 #
coedge $-1 $417 $424 $244 $332 reversed $425 $-1 #
edge $-1 $333 -5.0844522445646305 $426 3.4179592717467671 $244 $427 forward 7 unknown #
vertex $-1 $418 $428 #
straight-curve $-1 0 33.218250861456809 10.398152936212542 -1 0 0 I I #
face $-1 $429 $430 $19 $-1 $431 reversed single #
loop $-1 $-1 $432 $248 #
plane-surface $-1 0 0 10.398152936212542 0 0 1 1 0 0 forward_v I I I I #
coedge $-1 $433 $434 $432 $435 reversed $249 $-1 #
coedge $-1 $436 $340 $345 $437 reversed $251 $-1 #
coedge $-1 $339 $438 $252 $341 reversed $251 $-1 #
edge $-1 $346 56.410641634692603 $439 66.436501722913619 $252 $440 forward 7 unknown #
coedge $-1 $441 $442 $253 $343 forward $443 $-1 #
edge $-1 $347 73.273300571057987 $439 78.586197042463994 $342 $444 forward 7 unknown #
coedge $-1 $445 $254 $442 $446 forward $336 $-1 #
coedge $-1 $254 $432 $339 $437 forward $336 $-1 #
vertex $-1 $437 $447 #
vertex $-1 $446 $448 #
straight-curve $-1 29.569089182499582 28.133798616892179 10.39815293621254 0 1 0 I I #
vertex $-1 $256 $449 #
point $-1 40.174386960478174 26.311869287676416 3.4925352401032259 #
straight-curve $-1 -74.908291879024631 33.218250861456809 0 0 0 -1 I I #
point $-1 -74.908291879024631 -33.218250861456809 -10.398152936212542 #
straight-curve $-1 -74.908291879024631 0 -10.398152936212542 0 1 0 I I #
point $-1 -74.908291879024631 33.218250861456809 -10.398152936212542 #
loop $-1 $-1 $370 $276 #
plane-surface $-1 -74.908291879024631 0 0 1 0 0 0 0 -1 forward_v I I I I #
coedge $-1 $450 $374 $376 $451 forward $277 $-1 #
coedge $-1 $452 $279 $450 $453 forward $195 $-1 #
coedge $-1 $279 $452 $369 $454 forward $195 $-1 #
coedge $-1 $455 $456 $279 $361 reversed $457 $-1 #
edge $-1 $458 -33.218250861456809 $459 33.218250861456809 $360 $460 forward 7 unknown #
coedge $-1 $280 $292 $461 $462 forward $122 $-1 #
coedge $-1 $463 $281 $280 $364 reversed $209 $-1 #
edge $-1 $464 -74.908291879024631 $283 29.569089182499582 $363 $296 forward 7 unknown #
straight-curve $-1 -29.569089182499582 33.218250861456809 83.671453507270527 0 0 1 I I #
point $-1 -29.569089182499582 33.218250861456809 10.398152936212542 #
straight-curve $-1 -19.087193480239087 33.218250861456809 5.0852564648065268 1 0 0 I I #
point $-1 -29.569089182499582 33.218250861456809 5.0852564648065268 #
coedge $-1 $290 $463 $359 $454 reversed $209 $-1 #
coedge $-1 $465 $293 $290 $371 forward $355 $-1 #
edge $-1 $295 -10.398152936212542 $466 10.398152936212542 $290 $467 forward 7 unknown #
face $-1 $-1 $457 $16 $-1 $468 reversed single #
plane-surface $-1 0 33.218250861456809 0 0 -1 0 0 0 -1 forward_v I I I I #
coedge $-1 $357 $469 $292 $375 reversed $277 $-1 #
edge $-1 $377 -74.908291879024631 $470 74.908291879024631 $374 $471 forward 7 unknown #
coedge $-1 $293 $465 $357 $451 reversed $355 $-1 #
vertex $-1 $294 $472 #
straight-curve $-1 -74.908291879024631 0 10.398152936212542 0 -1 0 I I #
point $-1 -74.908291879024631 33.218250861456809 10.398152936212542 #
face $-1 $473 $474 $17 $-1 $475 reversed single #
loop $-1 $-1 $476 $297 #
plane-surface $-1 0 0 -10.398152936212542 0 0 1 1 0 0 forward_v I I I I #
coedge $-1 $307 $477 $300 $386 forward $298 $-1 #
coedge $-1 $385 $300 $478 $479 reversed $216 $-1 #
coedge $-1 $300 $384 $387 $480 forward $216 $-1 #
edge $-1 $481 -5.0844522445646305 $482 3.4179592717467671 $383 $483 forward 7 unknown #
coedge $-1 $389 $301 $385 $480 reversed $218 $-1 #
edge $-1 $482 10.481895702260495 $308 27.692491258217679 $307 $484 forward 7 unknown #
coedge $-1 $302 $387 $392 $485 reversed $218 $-1 #
vertex $-1 $485 $486 #
straight-curve $-1 -46.779684738456766 -23.123097649479078 40.291239040896727 0 0.84804809178421925 -0.52991927123019833 I I #
coedge $-1 $478 $304 $389 $485 forward $394 $-1 #
coedge $-1 $304 $487 $306 $397 reversed $394 $-1 #
loop $-1 $-1 $478 $488 #
straight-curve $-1 -46.779684738456766 33.218250861456809 83.671453507270527 0 0 -1 I I #
coedge $-1 $489 $306 $490 $491 forward $298 $-1 #
edge $-1 $309 46.779684738456766 $492 74.908291879024631 $393 $493 forward 7 unknown #
point $-1 -46.779684738456766 24.715839345145412 10.39815293621254 #
point $-1 -46.779684738456766 33.218250861456809 10.398152936212542 #
point $-1 -38.174386960478174 25.252030745216018 1.7964390565347874 #
face $-1 $494 $495 $18 $-1 $496 forward single #
loop $-1 $-1 $497 $313 #
plane-surface $-1 -46.779684738456766 56.267597233784358 167.34290701454105 1 0 0 0 -0.52991927123019833 -0.84804809178421925 forward_v I I I I #
loop $-1 $-1 $498 $227 #
coedge $-1 $405 $405 $406 $499 forward $314 $-1 #
coedge $-1 $406 $406 $405 $499 reversed $316 $-1 #
coedge $-1 $407 $407 $317 $408 forward $495 $-1 #
edge $-1 $500 -5.1709940071163889e-016 $500 6.2831853071795996 $407 $501 forward 7 unknown #
coedge $-1 $318 $502 $503 $504 forward $145 $-1 #
coedge $-1 $505 $319 $318 $411 reversed $242 $-1 #
edge $-1 $506 -74.908291879024631 $321 -46.779684738456766 $410 $334 forward 7 unknown #
straight-curve $-1 46.779684738456766 33.218250861456809 83.671453507270527 0 0 1 I I #
point $-1 46.779684738456766 33.218250861456809 10.398152936212542 #
straight-curve $-1 19.087193480239087 33.218250861456809 5.0852564648065268 1 0 0 I I #
point $-1 46.779684738456766 33.218250861456809 5.0852564648065268 #
coedge $-1 $328 $507 $508 $509 forward $242 $-1 #
coedge $-1 $424 $331 $328 $418 reversed $425 $-1 #
edge $-1 $510 -78.586197042463994 $333 -73.273300571057987 $328 $511 forward 7 unknown #
face $-1 $-1 $512 $18 $-1 $513 reversed single #
plane-surface $-1 0 33.218250861456809 0 0 -1 0 0 0 -1 forward_v I I I I #
coedge $-1 $514 $330 $497 $515 forward $145 $-1 #
coedge $-1 $516 $517 $330 $423 reversed $518 $-1 #
edge $-1 $426 10.481895702260495 $519 27.692491258217679 $330 $520 forward 7 unknown #
coedge $-1 $331 $417 $516 $521 forward $425 $-1 #
loop $-1 $-1 $331 $494 #
vertex $-1 $423 $522 #
straight-curve $-1 -29.569089182499582 28.133798616892179 10.39815293621254 0 -1 0 I I #
point $-1 -29.569089182499582 33.218250861456809 10.398152936212542 #
face $-1 $523 $524 $19 $-1 $525 reversed single #
loop $-1 $526 $527 $335 #
cone-surface $-1 -38.174386960478174 27.639457195488756 5.6171199703063746 0 -0.52991927123019833 -0.84804809178421925 2 0 0 1 I I 0 1 2 forward I I I I #
coedge $-1 $345 $528 $338 $435 forward $336 $-1 #
coedge $-1 $434 $338 $529 $530 reversed $249 $-1 #
coedge $-1 $338 $433 $436 $531 forward $249 $-1 #
edge $-1 $532 -5.0844522445646305 $533 3.4179592717467671 $432 $534 forward 7 unknown #
coedge $-1 $438 $339 $434 $531 reversed $251 $-1 #
edge $-1 $533 -27.692491258217679 $346 -10.481895702260495 $345 $535 forward 7 unknown #
coedge $-1 $340 $436 $441 $536 reversed $251 $-1 #
vertex $-1 $536 $537 #
straight-curve $-1 29.569089182499582 -23.123097649479078 40.291239040896727 0 0.84804809178421925 -0.52991927123019833 I I #
coedge $-1 $529 $342 $438 $536 forward $443 $-1 #
coedge $-1 $342 $538 $344 $446 reversed $443 $-1 #
loop $-1 $-1 $529 $539 #
straight-curve $-1 29.569089182499582 33.218250861456809 83.671453507270527 0 0 -1 I I #
coedge $-1 $540 $344 $541 $542 forward $336 $-1 #
edge $-1 $347 -29.569089182499582 $543 29.569089182499582 $442 $544 forward 7 unknown #
point $-1 29.569089182499582 24.715839345145412 10.39815293621254 #
point $-1 29.569089182499582 33.218250861456809 10.398152936212542 #
point $-1 38.174386960478174 25.252030745216018 1.7964390565347874 #
coedge $-1 $469 $357 $358 $453 reversed $277 $-1 #
edge $-1 $377 -10.398152936212542 $545 10.398152936212542 $376 $546 forward 7 unknown #
coedge $-1 $359 $358 $465 $547 forward $195 $-1 #
edge $-1 $459 -74.908291879024631 $545 74.908291879024631 $450 $548 forward 7 unknown #
edge $-1 $466 -74.908291879024631 $458 74.908291879024631 $369 $549 forward 7 unknown #
coedge $-1 $461 $360 $463 $550 reversed $457 $-1 #
coedge $-1 $360 $461 $469 $551 forward $457 $-1 #
loop $-1 $-1 $456 $372 #
vertex $-1 $361 $552 #
vertex $-1 $551 $553 #
straight-curve $-1 74.908291879024631 0 -10.398152936212542 0 -1 0 I I #
coedge $-1 $456 $455 $362 $462 reversed $457 $-1 #
edge $-1 $470 -33.218250861456809 $464 33.218250861456809 $461 $554 forward 7 unknown #
coedge $-1 $369 $363 $455 $550 forward $209 $-1 #
vertex $-1 $462 $555 #
coedge $-1 $376 $370 $452 $547 reversed $355 $-1 #
vertex $-1 $454 $556 #
straight-curve $-1 -74.908291879024631 33.218250861456809 0 0 0 -1 I I #
plane-surface $-1 74.908291879024631 0 0 -1 0 0 0 0 1 forward_v I I I I #
coedge $-1 $374 $450 $456 $551 reversed $277 $-1 #
vertex $-1 $462 $557 #
straight-curve $-1 0 -33.218250861456809 10.398152936212542 1 0 0 I I #
point $-1 -74.908291879024631 -33.218250861456809 10.398152936212542 #
face $-1 $488 $558 $17 $-1 $559 reversed single #
loop $-1 $-1 $560 $380 #
plane-surface $-1 0 -33.218250861456809 0 0 1 0 0 0 1 forward_v I I I I #
coedge $-1 $561 $562 $563 $564 forward $381 $-1 #
coedge $-1 $383 $565 $566 $567 forward $298 $-1 #
coedge $-1 $566 $392 $384 $479 forward $394 $-1 #
edge $-1 $568 -78.586197042463994 $481 -73.273300571057987 $478 $569 forward 7 unknown #
edge $-1 $568 -66.436501722913619 $482 -56.410641634692603 $385 $570 forward 7 unknown #
vertex $-1 $479 $571 #
vertex $-1 $388 $572 #
straight-curve $-1 -29.569089182499582 28.133798616892179 10.39815293621254 0 -1 0 I I #
straight-curve $-1 -19.087193480239087 24.715839345145415 10.398152936212536 -1 0 0 I I #
edge $-1 $390 -27.692491258217679 $568 -10.481895702260495 $392 $573 forward 7 unknown #
point $-1 -46.779684738456766 33.218250861456809 5.0852564648065268 #
coedge $-1 $393 $574 $575 $576 reversed $394 $-1 #
face $-1 $577 $394 $17 $-1 $578 reversed single #
coedge $-1 $565 $396 $579 $580 forward $298 $-1 #
coedge $-1 $575 $581 $396 $491 reversed $558 $-1 #
edge $-1 $492 -33.218250861456809 $582 33.218250861456809 $490 $583 forward 7 unknown #
vertex $-1 $397 $584 #
straight-curve $-1 0 33.218250861456809 10.398152936212542 -1 0 0 I I #
face $-1 $585 $425 $18 $-1 $586 forward single #
loop $-1 $518 $407 $401 #
plane-surface $-1 -38.174386960478174 -23.123097649479078 40.291239040896727 0 0.52991927123019833 0.84804809178421925 1 0 0 forward_v I I I I #
coedge $-1 $587 $588 $421 $515 reversed $402 $-1 #
coedge $-1 $498 $498 $-1 $589 forward $404 $-1 #
edge $-1 $590 0 $590 6.2831853071796004 $405 $591 forward 7 unknown #
vertex $-1 $408 $592 #
ellipse-curve $-1 -38.174386960478174 28.967045103301103 7.7417047005095352 0 -0.52991927123019833 -0.84804809178421925 2 0 0 1 I I #
coedge $-1 $409 $593 $594 $595 forward $145 $-1 #
coedge $-1 $596 $597 $409 $504 reversed $512 $-1 #
edge $-1 $598 -33.218250861456809 $506 33.218250861456809 $503 $599 forward 7 unknown #
coedge $-1 $600 $410 $597 $601 forward $242 $-1 #
vertex $-1 $504 $602 #
coedge $-1 $416 $603 $588 $604 forward $242 $-1 #
coedge $-1 $517 $516 $416 $509 reversed $518 $-1 #
edge $-1 $605 -27.692491258217679 $510 -10.481895702260495 $416 $606 forward 7 unknown #
vertex $-1 $509 $607 #
straight-curve $-1 -29.569089182499582 33.218250861456809 83.671453507270527 0 0 1 I I #
loop $-1 $-1 $596 $419 #
plane-surface $-1 74.908291879024631 0 0 -1 0 0 0 0 1 forward_v I I I I #
coedge $-1 $593 $421 $603 $608 forward $145 $-1 #
edge $-1 $519 -3.4179592717467671 $609 5.0844522445646305 $421 $610 forward 7 unknown #
coedge $-1 $508 $422 $424 $521 reversed $518 $-1 #
coedge $-1 $422 $508 $587 $611 reversed $518 $-1 #
loop $-1 $-1 $422 $401 #
vertex $-1 $423 $612 #
straight-curve $-1 -19.087193480239087 24.715839345145415 10.398152936212536 -1 0 0 I I #
edge $-1 $510 -66.436501722913619 $426 -56.410641634692603 $424 $613 forward 7 unknown #
point $-1 -29.569089182499582 24.715839345145412 10.39815293621254 #
face $-1 $614 $615 $19 $-1 $616 forward single #
loop $-1 $617 $618 $429 #
cone-surface $-1 -38.174386960478174 25.781950016446217 2.6444871483190067 0 -0.52991927123019833 -0.84804809178421925 1 0 0 1 I I -0.70710678118654746 0.70710678118654746 1 forward I I I I #
loop $-1 $-1 $619 $335 #
coedge $-1 $527 $527 $620 $621 reversed $430 $-1 #
coedge $-1 $432 $622 $623 $624 forward $336 $-1 #
coedge $-1 $623 $441 $433 $530 forward $443 $-1 #
edge $-1 $625 -78.586197042463994 $532 -73.273300571057987 $529 $626 forward 7 unknown #
edge $-1 $625 -66.436501722913619 $533 -56.410641634692603 $434 $627 forward 7 unknown #
vertex $-1 $530 $628 #
vertex $-1 $437 $629 #
straight-curve $-1 46.779684738456766 28.133798616892179 10.39815293621254 0 -1 0 I I #
straight-curve $-1 19.087193480239087 24.715839345145415 10.398152936212536 -1 0 0 I I #
edge $-1 $439 10.481895702260495 $625 27.692491258217679 $441 $630 forward 7 unknown #
point $-1 29.569089182499582 33.218250861456809 5.0852564648065268 #
coedge $-1 $442 $631 $632 $633 forward $443 $-1 #
face $-1 $634 $443 $19 $-1 $635 reversed single #
coedge $-1 $636 $445 $637 $638 forward $336 $-1 #
coedge $-1 $632 $639 $445 $542 reversed $640 $-1 #
edge $-1 $543 -5.0844522445646305 $641 3.4179592717467671 $445 $642 forward 7 unknown #
vertex $-1 $633 $643 #
straight-curve $-1 0 33.218250861456809 10.398152936212542 -1 0 0 I I #
vertex $-1 $547 $644 #
straight-curve $-1 -74.908291879024631 -33.218250861456809 0 0 0 -1 I I #
edge $-1 $545 -33.218250861456809 $466 33.218250861456809 $465 $645 forward 7 unknown #
straight-curve $-1 0 -33.218250861456809 -10.398152936212542 -1 0 0 I I #
straight-curve $-1 0 33.218250861456809 -10.398152936212542 1 0 0 I I #
edge $-1 $464 -10.398152936212542 $458 10.398152936212542 $455 $646 forward 7 unknown #
edge $-1 $470 -10.398152936212542 $459 10.398152936212542 $456 $647 forward 7 unknown #
point $-1 74.908291879024631 33.218250861456809 -10.398152936212542 #
point $-1 74.908291879024631 -33.218250861456809 -10.398152936212542 #
straight-curve $-1 74.908291879024631 0 10.398152936212542 0 1 0 I I #
point $-1 74.908291879024631 33.218250861456809 10.398152936212542 #
point $-1 -74.908291879024631 33.218250861456809 -10.398152936212542 #
point $-1 74.908291879024631 -33.218250861456809 10.398152936212542 #
loop $-1 $-1 $575 $473 #
plane-surface $-1 -74.908291879024631 0 0 1 0 0 0 0 -1 forward_v I I I I #
coedge $-1 $648 $579 $581 $649 forward $474 $-1 #
coedge $-1 $650 $476 $648 $651 forward $381 $-1 #
coedge $-1 $476 $650 $574 $652 forward $381 $-1 #
coedge $-1 $653 $654 $476 $564 reversed $655 $-1 #
edge $-1 $656 -33.218250861456809 $657 33.218250861456809 $563 $658 forward 7 unknown #
coedge $-1 $477 $489 $659 $660 forward $298 $-1 #
coedge $-1 $661 $478 $477 $567 reversed $394 $-1 #
edge $-1 $662 -74.908291879024631 $481 29.569089182499582 $566 $493 forward 7 unknown #
vertex $-1 $485 $663 #
straight-curve $-1 -29.569089182499582 33.218250861456809 83.671453507270527 0 0 1 I I #
straight-curve $-1 -29.569089182499582 -23.123097649479078 40.291239040896727 0 -0.84804809178421925 0.52991927123019833 I I #
point $-1 -29.569089182499582 33.218250861456809 10.398152936212542 #
point $-1 -29.569089182499582 24.715839345145412 10.39815293621254 #
straight-curve $-1 -19.087193480239087 33.218250861456809 5.0852564648065268 1 0 0 I I #
coedge $-1 $487 $661 $562 $652 reversed $394 $-1 #
coedge $-1 $664 $490 $487 $576 forward $558 $-1 #
edge $-1 $492 -10.398152936212542 $665 10.398152936212542 $487 $666 forward 7 unknown #
face $-1 $-1 $655 $17 $-1 $667 reversed single #
plane-surface $-1 0 33.218250861456809 0 0 -1 0 0 0 -1 forward_v I I I I #
coedge $-1 $560 $668 $489 $580 reversed $474 $-1 #
edge $-1 $582 -74.908291879024631 $669 74.908291879024631 $579 $670 forward 7 unknown #
coedge $-1 $490 $664 $560 $649 reversed $558 $-1 #
vertex $-1 $491 $671 #
straight-curve $-1 -74.908291879024631 0 10.398152936212542 0 -1 0 I I #
point $-1 -74.908291879024631 33.218250861456809 10.398152936212542 #
face $-1 $672 $673 $18 $-1 $674 reversed single #
plane-surface $-1 -29.569089182499582 56.267597233784358 167.34290701454105 -1 0 0 0 0.52991927123019833 0.84804809178421925 forward_v I I I I #
coedge $-1 $588 $497 $517 $611 forward $402 $-1 #
coedge $-1 $497 $587 $507 $604 reversed $402 $-1 #
edge $-1 $675 1 $675 0 $498 $-1 forward 7 unknown #
vertex $-1 $499 $676 #
ellipse-curve $-1 -38.174386960478174 26.311869287676416 3.4925352401032259 0 0.52991927123019833 0.84804809178421925 2 0 0 1 I I #
point $-1 -36.174386960478174 28.967045103301096 7.7417047005095219 #
coedge $-1 $502 $514 $677 $678 forward $145 $-1 #
coedge $-1 $679 $680 $502 $595 reversed $681 $-1 #
edge $-1 $682 -74.908291879024631 $598 74.908291879024631 $594 $683 forward 7 unknown #
coedge $-1 $684 $503 $680 $685 forward $512 $-1 #
coedge $-1 $503 $684 $505 $601 reversed $512 $-1 #
vertex $-1 $504 $686 #
straight-curve $-1 74.908291879024631 0 10.398152936212542 0 1 0 I I #
coedge $-1 $687 $505 $688 $689 reversed $242 $-1 #
edge $-1 $506 -10.398152936212542 $690 10.398152936212542 $597 $691 forward 7 unknown #
point $-1 74.908291879024631 33.218250861456809 10.398152936212542 #
coedge $-1 $507 $687 $514 $608 reversed $242 $-1 #
edge $-1 $609 73.273300571057987 $605 78.586197042463994 $507 $692 forward 7 unknown #
vertex $-1 $509 $693 #
straight-curve $-1 -19.087193480239087 33.218250861456809 5.0852564648065268 1 0 0 I I #
point $-1 -29.569089182499582 33.218250861456809 5.0852564648065268 #
edge $-1 $609 46.779684738456766 $694 74.908291879024631 $603 $334 forward 7 unknown #
vertex $-1 $608 $695 #
straight-curve $-1 -46.779684738456766 28.133798616892179 10.39815293621254 0 1 0 I I #
edge $-1 $519 56.410641634692603 $605 66.436501722913619 $587 $696 forward 7 unknown #
point $-1 -46.779684738456766 24.715839345145412 10.39815293621254 #
straight-curve $-1 -29.569089182499582 -23.123097649479078 40.291239040896727 0 -0.84804809178421925 0.52991927123019833 I I #
face $-1 $697 $698 $19 $-1 $699 forward single #
loop $-1 $-1 $700 $523 #
plane-surface $-1 -46.779684738456766 56.267597233784358 167.34290701454105 1 0 0 0 -0.52991927123019833 -0.84804809178421925 forward_v I I I I #
loop $-1 $-1 $701 $429 #
coedge $-1 $618 $618 $619 $702 forward $524 $-1 #
coedge $-1 $619 $619 $618 $702 reversed $526 $-1 #
coedge $-1 $620 $620 $527 $621 forward $698 $-1 #
edge $-1 $703 -5.1709940071163889e-016 $703 6.2831853071795996 $620 $704 forward 7 unknown #
coedge $-1 $528 $705 $706 $707 forward $336 $-1 #
coedge $-1 $708 $529 $528 $624 reversed $443 $-1 #
edge $-1 $709 -74.908291879024631 $532 -46.779684738456766 $623 $544 forward 7 unknown #
vertex $-1 $536 $710 #
straight-curve $-1 46.779684738456766 33.218250861456809 83.671453507270527 0 0 1 I I #
straight-curve $-1 46.779684738456766 -23.123097649479078 40.291239040896727 0 -0.84804809178421925 0.52991927123019833 I I #
point $-1 46.779684738456766 33.218250861456809 10.398152936212542 #
point $-1 46.779684738456766 24.715839345145412 10.39815293621254 #
straight-curve $-1 19.087193480239087 33.218250861456809 5.0852564648065268 1 0 0 I I #
coedge $-1 $538 $711 $712 $713 forward $443 $-1 #
coedge $-1 $639 $541 $538 $633 reversed $640 $-1 #
edge $-1 $714 -78.586197042463994 $543 -73.273300571057987 $538 $715 forward 7 unknown #
face $-1 $-1 $716 $19 $-1 $717 reversed single #
plane-surface $-1 0 33.218250861456809 0 0 -1 0 0 0 -1 forward_v I I I I #
coedge $-1 $718 $540 $700 $719 forward $336 $-1 #
coedge $-1 $720 $721 $540 $638 reversed $722 $-1 #
edge $-1 $641 10.481895702260495 $723 27.692491258217679 $540 $724 forward 7 unknown #
coedge $-1 $541 $632 $720 $725 forward $640 $-1 #
loop $-1 $-1 $541 $697 #
vertex $-1 $638 $726 #
straight-curve $-1 -29.569089182499582 28.133798616892179 10.39815293621254 0 -1 0 I I #
point $-1 -29.569089182499582 33.218250861456809 10.398152936212542 #
point $-1 -74.908291879024631 -33.218250861456809 -10.398152936212542 #
straight-curve $-1 -74.908291879024631 0 -10.398152936212542 0 1 0 I I #
straight-curve $-1 74.908291879024631 33.218250861456809 0 0 0 -1 I I #
straight-curve $-1 74.908291879024631 -33.218250861456809 0 0 0 -1 I I #
coedge $-1 $668 $560 $561 $651 reversed $474 $-1 #
edge $-1 $582 -10.398152936212542 $727 10.398152936212542 $581 $728 forward 7 unknown #
coedge $-1 $562 $561 $664 $729 forward $381 $-1 #
edge $-1 $657 -74.908291879024631 $727 74.908291879024631 $648 $730 forward 7 unknown #
edge $-1 $665 -74.908291879024631 $656 74.908291879024631 $574 $731 forward 7 unknown #
coedge $-1 $659 $563 $661 $732 reversed $655 $-1 #
coedge $-1 $563 $659 $668 $733 forward $655 $-1 #
loop $-1 $-1 $654 $577 #
vertex $-1 $564 $734 #
vertex $-1 $733 $735 #
straight-curve $-1 74.908291879024631 0 -10.398152936212542 0 -1 0 I I #
coedge $-1 $654 $653 $565 $660 reversed $655 $-1 #
edge $-1 $669 -33.218250861456809 $662 33.218250861456809 $659 $736 forward 7 unknown #
coedge $-1 $574 $566 $653 $732 forward $394 $-1 #
vertex $-1 $660 $737 #
point $-1 -29.569089182499582 33.218250861456809 5.0852564648065268 #
coedge $-1 $581 $575 $650 $729 reversed $558 $-1 #
vertex $-1 $652 $738 #
straight-curve $-1 -74.908291879024631 33.218250861456809 0 0 0 -1 I I #
plane-surface $-1 74.908291879024631 0 0 -1 0 0 0 0 1 forward_v I I I I #
coedge $-1 $579 $648 $654 $733 reversed $474 $-1 #
vertex $-1 $660 $739 #
straight-curve $-1 0 -33.218250861456809 10.398152936212542 1 0 0 I I #
point $-1 -74.908291879024631 -33.218250861456809 10.398152936212542 #
face $-1 $740 $681 $18 $-1 $741 reversed single #
loop $-1 $-1 $742 $585 #
plane-surface $-1 0 0 -10.398152936212542 0 0 1 1 0 0 forward_v I I I I #
vertex $-1 $589 $743 #
point $-1 -36.174386960478174 26.311869287676416 3.4925352401032259 #
coedge $-1 $744 $745 $593 $678 reversed $746 $-1 #
edge $-1 $694 -33.218250861456809 $682 33.218250861456809 $677 $747 forward 7 unknown #
coedge $-1 $748 $594 $745 $749 forward $681 $-1 #
coedge $-1 $594 $748 $596 $685 reversed $681 $-1 #
loop $-1 $-1 $679 $672 #
vertex $-1 $678 $750 #
straight-curve $-1 0 -33.218250861456809 10.398152936212542 1 0 0 I I #
coedge $-1 $597 $596 $742 $751 reversed $512 $-1 #
edge $-1 $598 -10.398152936212542 $752 10.398152936212542 $596 $753 forward 7 unknown #
point $-1 74.908291879024631 -33.218250861456809 10.398152936212542 #
coedge $-1 $603 $600 $744 $754 reversed $242 $-1 #
coedge $-1 $742 $755 $600 $689 forward $673 $-1 #
edge $-1 $756 -74.908291879024631 $690 74.908291879024631 $600 $757 forward 7 unknown #
vertex $-1 $751 $758 #
straight-curve $-1 74.908291879024631 33.218250861456809 0 0 0 -1 I I #
straight-curve $-1 -46.779684738456766 33.218250861456809 83.671453507270527 0 0 -1 I I #
point $-1 -46.779684738456766 33.218250861456809 5.0852564648065268 #
vertex $-1 $608 $759 #
point $-1 -46.779684738456766 33.218250861456809 10.398152936212542 #
straight-curve $-1 -46.779684738456766 -23.123097649479078 40.291239040896727 0 0.84804809178421925 -0.52991927123019833 I I #
face $-1 $760 $640 $19 $-1 $761 forward single #
loop $-1 $722 $620 $614 #
plane-surface $-1 -38.174386960478174 -23.123097649479078 40.291239040896727 0 0.52991927123019833 0.84804809178421925 1 0 0 forward_v I I I I #
coedge $-1 $762 $763 $636 $719 reversed $615 $-1 #
coedge $-1 $701 $701 $-1 $764 forward $617 $-1 #
edge $-1 $765 0 $765 6.2831853071796004 $618 $766 forward 7 unknown #
vertex $-1 $621 $767 #
ellipse-curve $-1 -38.174386960478174 28.967045103301103 7.7417047005095352 0 -0.52991927123019833 -0.84804809178421925 2 0 0 1 I I #
coedge $-1 $622 $768 $769 $770 forward $336 $-1 #
coedge $-1 $771 $772 $622 $707 reversed $716 $-1 #
edge $-1 $773 -33.218250861456809 $709 33.218250861456809 $706 $774 forward 7 unknown #
coedge $-1 $775 $623 $772 $776 forward $443 $-1 #
vertex $-1 $707 $777 #
point $-1 46.779684738456766 33.218250861456809 5.0852564648065268 #
coedge $-1 $631 $778 $763 $779 forward $443 $-1 #
coedge $-1 $721 $720 $631 $713 reversed $722 $-1 #
edge $-1 $780 -27.692491258217679 $714 -10.481895702260495 $631 $781 forward 7 unknown #
vertex $-1 $713 $782 #
straight-curve $-1 -29.569089182499582 33.218250861456809 83.671453507270527 0 0 1 I I #
loop $-1 $-1 $771 $634 #
plane-surface $-1 74.908291879024631 0 0 -1 0 0 0 0 1 forward_v I I I I #
coedge $-1 $768 $636 $778 $783 forward $336 $-1 #
edge $-1 $723 -3.4179592717467671 $784 5.0844522445646305 $636 $785 forward 7 unknown #
coedge $-1 $712 $637 $639 $725 reversed $722 $-1 #
coedge $-1 $637 $712 $762 $786 reversed $722 $-1 #
loop $-1 $-1 $637 $614 #
vertex $-1 $638 $787 #
straight-curve $-1 -19.087193480239087 24.715839345145415 10.398152936212536 -1 0 0 I I #
edge $-1 $714 -66.436501722913619 $641 -56.410641634692603 $639 $788 forward 7 unknown #
point $-1 -29.569089182499582 24.715839345145412 10.39815293621254 #
vertex $-1 $729 $789 #
straight-curve $-1 -74.908291879024631 -33.218250861456809 0 0 0 -1 I I #
edge $-1 $727 -33.218250861456809 $665 33.218250861456809 $664 $790 forward 7 unknown #
straight-curve $-1 0 -33.218250861456809 -10.398152936212542 -1 0 0 I I #
straight-curve $-1 0 33.218250861456809 -10.398152936212542 1 0 0 I I #
edge $-1 $662 -10.398152936212542 $656 10.398152936212542 $653 $791 forward 7 unknown #
edge $-1 $669 -10.398152936212542 $657 10.398152936212542 $654 $792 forward 7 unknown #
point $-1 74.908291879024631 33.218250861456809 -10.398152936212542 #
point $-1 74.908291879024631 -33.218250861456809 -10.398152936212542 #
straight-curve $-1 74.908291879024631 0 10.398152936212542 0 1 0 I I #
point $-1 74.908291879024631 33.218250861456809 10.398152936212542 #
point $-1 -74.908291879024631 33.218250861456809 -10.398152936212542 #
point $-1 74.908291879024631 -33.218250861456809 10.398152936212542 #
face $-1 $329 $746 $18 $-1 $793 reversed single #
plane-surface $-1 0 -33.218250861456809 0 0 1 0 0 0 1 forward_v I I I I #
coedge $-1 $794 $688 $684 $751 forward $673 $-1 #
point $-1 -38.174386960478174 25.252030745216018 1.7964390565347874 #
coedge $-1 $795 $677 $687 $754 forward $746 $-1 #
coedge $-1 $677 $795 $679 $749 reversed $746 $-1 #
loop $-1 $-1 $744 $740 #
straight-curve $-1 -74.908291879024631 0 10.398152936212542 0 -1 0 I I #
coedge $-1 $680 $679 $794 $796 reversed $681 $-1 #
edge $-1 $682 -10.398152936212542 $797 10.398152936212542 $745 $798 forward 7 unknown #
point $-1 -74.908291879024631 -33.218250861456809 10.398152936212542 #
edge $-1 $690 -33.218250861456809 $752 33.218250861456809 $684 $799 forward 7 unknown #
vertex $-1 $685 $800 #
straight-curve $-1 74.908291879024631 -33.218250861456809 0 0 0 -1 I I #
edge $-1 $694 -10.398152936212542 $756 10.398152936212542 $687 $801 forward 7 unknown #
coedge $-1 $688 $794 $795 $802 forward $673 $-1 #
vertex $-1 $689 $803 #
straight-curve $-1 0 33.218250861456809 -10.398152936212542 1 0 0 I I #
point $-1 74.908291879024631 33.218250861456809 -10.398152936212542 #
point $-1 -74.908291879024631 33.218250861456809 10.398152936212542 #
face $-1 $804 $805 $19 $-1 $806 reversed single #
plane-surface $-1 -29.569089182499582 56.267597233784358 167.34290701454105 -1 0 0 0 0.52991927123019833 0.84804809178421925 forward_v I I I I #
coedge $-1 $763 $700 $721 $786 forward $615 $-1 #
coedge $-1 $700 $762 $711 $779 reversed $615 $-1 #
edge $-1 $807 1 $807 0 $701 $-1 forward 7 unknown #
vertex $-1 $702 $808 #
ellipse-curve $-1 -38.174386960478174 26.311869287676416 3.4925352401032259 0 0.52991927123019833 0.84804809178421925 2 0 0 1 I I #
point $-1 -36.174386960478174 28.967045103301096 7.7417047005095219 #
coedge $-1 $705 $718 $809 $810 forward $336 $-1 #
coedge $-1 $811 $812 $705 $770 reversed $813 $-1 #
edge $-1 $814 -74.908291879024631 $773 74.908291879024631 $769 $815 forward 7 unknown #
coedge $-1 $816 $706 $812 $817 forward $716 $-1 #
coedge $-1 $706 $816 $708 $776 reversed $716 $-1 #
vertex $-1 $707 $818 #
straight-curve $-1 74.908291879024631 0 10.398152936212542 0 1 0 I I #
coedge $-1 $819 $708 $820 $821 reversed $443 $-1 #
edge $-1 $709 -10.398152936212542 $822 10.398152936212542 $772 $823 forward 7 unknown #
point $-1 74.908291879024631 33.218250861456809 10.398152936212542 #
coedge $-1 $711 $819 $718 $783 reversed $443 $-1 #
edge $-1 $784 73.273300571057987 $780 78.586197042463994 $711 $824 forward 7 unknown #
vertex $-1 $713 $825 #
straight-curve $-1 -19.087193480239087 33.218250861456809 5.0852564648065268 1 0 0 I I #
point $-1 -29.569089182499582 33.218250861456809 5.0852564648065268 #
edge $-1 $784 46.779684738456766 $826 74.908291879024631 $778 $544 forward 7 unknown #
vertex $-1 $783 $827 #
straight-curve $-1 -46.779684738456766 28.133798616892179 10.39815293621254 0 1 0 I I #
edge $-1 $723 56.410641634692603 $780 66.436501722913619 $762 $828 forward 7 unknown #
point $-1 -46.779684738456766 24.715839345145412 10.39815293621254 #
straight-curve $-1 -29.569089182499582 -23.123097649479078 40.291239040896727 0 -0.84804809178421925 0.52991927123019833 I I #
point $-1 -74.908291879024631 -33.218250861456809 -10.398152936212542 #
straight-curve $-1 -74.908291879024631 0 -10.398152936212542 0 1 0 I I #
straight-curve $-1 74.908291879024631 33.218250861456809 0 0 0 -1 I I #
straight-curve $-1 74.908291879024631 -33.218250861456809 0 0 0 -1 I I #
plane-surface $-1 -74.908291879024631 0 0 1 0 0 0 0 -1 forward_v I I I I #
coedge $-1 $755 $742 $748 $796 forward $673 $-1 #
coedge $-1 $745 $744 $755 $802 reversed $746 $-1 #
edge $-1 $752 -74.908291879024631 $797 74.908291879024631 $748 $829 forward 7 unknown #
vertex $-1 $802 $830 #
straight-curve $-1 -74.908291879024631 -33.218250861456809 0 0 0 -1 I I #
straight-curve $-1 74.908291879024631 0 -10.398152936212542 0 -1 0 I I #
point $-1 74.908291879024631 -33.218250861456809 -10.398152936212542 #
straight-curve $-1 -74.908291879024631 33.218250861456809 0 0 0 -1 I I #
edge $-1 $797 -33.218250861456809 $756 33.218250861456809 $795 $831 forward 7 unknown #
point $-1 -74.908291879024631 33.218250861456809 -10.398152936212542 #
face $-1 $832 $813 $19 $-1 $833 reversed single #
loop $-1 $-1 $834 $760 #
plane-surface $-1 0 0 -10.398152936212542 0 0 1 1 0 0 forward_v I I I I #
vertex $-1 $764 $835 #
point $-1 -36.174386960478174 26.311869287676416 3.4925352401032259 #
coedge $-1 $836 $837 $768 $810 reversed $838 $-1 #
edge $-1 $826 -33.218250861456809 $814 33.218250861456809 $809 $839 forward 7 unknown #
coedge $-1 $840 $769 $837 $841 forward $813 $-1 #
coedge $-1 $769 $840 $771 $817 reversed $813 $-1 #
loop $-1 $-1 $811 $804 #
vertex $-1 $810 $842 #
straight-curve $-1 0 -33.218250861456809 10.398152936212542 1 0 0 I I #
coedge $-1 $772 $771 $834 $843 reversed $716 $-1 #
edge $-1 $773 -10.398152936212542 $844 10.398152936212542 $771 $845 forward 7 unknown #
point $-1 74.908291879024631 -33.218250861456809 10.398152936212542 #
coedge $-1 $778 $775 $836 $846 reversed $443 $-1 #
coedge $-1 $834 $847 $775 $821 forward $805 $-1 #
edge $-1 $848 -74.908291879024631 $822 74.908291879024631 $775 $849 forward 7 unknown #
vertex $-1 $843 $850 #
straight-curve $-1 74.908291879024631 33.218250861456809 0 0 0 -1 I I #
straight-curve $-1 -46.779684738456766 33.218250861456809 83.671453507270527 0 0 -1 I I #
point $-1 -46.779684738456766 33.218250861456809 5.0852564648065268 #
vertex $-1 $783 $851 #
point $-1 -46.779684738456766 33.218250861456809 10.398152936212542 #
straight-curve $-1 -46.779684738456766 -23.123097649479078 40.291239040896727 0 0.84804809178421925 -0.52991927123019833 I I #
straight-curve $-1 0 -33.218250861456809 -10.398152936212542 -1 0 0 I I #
point $-1 -74.908291879024631 -33.218250861456809 -10.398152936212542 #
straight-curve $-1 -74.908291879024631 0 -10.398152936212542 0 1 0 I I #
face $-1 $539 $838 $19 $-1 $852 reversed single #
plane-surface $-1 0 -33.218250861456809 0 0 1 0 0 0 1 forward_v I I I I #
coedge $-1 $853 $820 $816 $843 forward $805 $-1 #
point $-1 -38.174386960478174 25.252030745216018 1.7964390565347874 #
coedge $-1 $854 $809 $819 $846 forward $838 $-1 #
coedge $-1 $809 $854 $811 $841 reversed $838 $-1 #
loop $-1 $-1 $836 $832 #
straight-curve $-1 -74.908291879024631 0 10.398152936212542 0 -1 0 I I #
coedge $-1 $812 $811 $853 $855 reversed $813 $-1 #
edge $-1 $814 -10.398152936212542 $856 10.398152936212542 $837 $857 forward 7 unknown #
point $-1 -74.908291879024631 -33.218250861456809 10.398152936212542 #
edge $-1 $822 -33.218250861456809 $844 33.218250861456809 $816 $858 forward 7 unknown #
vertex $-1 $817 $859 #
straight-curve $-1 74.908291879024631 -33.218250861456809 0 0 0 -1 I I #
edge $-1 $826 -10.398152936212542 $848 10.398152936212542 $819 $860 forward 7 unknown #
coedge $-1 $820 $853 $854 $861 forward $805 $-1 #
vertex $-1 $821 $862 #
straight-curve $-1 0 33.218250861456809 -10.398152936212542 1 0 0 I I #
point $-1 74.908291879024631 33.218250861456809 -10.398152936212542 #
point $-1 -74.908291879024631 33.218250861456809 10.398152936212542 #
plane-surface $-1 -74.908291879024631 0 0 1 0 0 0 0 -1 forward_v I I I I #
coedge $-1 $847 $834 $840 $855 forward $805 $-1 #
coedge $-1 $837 $836 $847 $861 reversed $838 $-1 #
edge $-1 $844 -74.908291879024631 $856 74.908291879024631 $840 $863 forward 7 unknown #
vertex $-1 $861 $864 #
straight-curve $-1 -74.908291879024631 -33.218250861456809 0 0 0 -1 I I #
straight-curve $-1 74.908291879024631 0 -10.398152936212542 0 -1 0 I I #
point $-1 74.908291879024631 -33.218250861456809 -10.398152936212542 #
straight-curve $-1 -74.908291879024631 33.218250861456809 0 0 0 -1 I I #
edge $-1 $856 -33.218250861456809 $848 33.218250861456809 $854 $865 forward 7 unknown #
point $-1 -74.908291879024631 33.218250861456809 -10.398152936212542 #
straight-curve $-1 0 -33.218250861456809 -10.398152936212542 -1 0 0 I I #
point $-1 -74.908291879024631 -33.218250861456809 -10.398152936212542 #
straight-curve $-1 -74.908291879024631 0 -10.398152936212542 0 1 0 I I #
End-of-ACIS-data 