500 0 12 0           
7 Unknown 11 ACIS 5.0 NT 24 Thu Mar 25 16:32:45 1999 
-1 9.9999999999999995e-007 1e-010 
body $-1 $12 $-1 $13 #
body $-1 $14 $-1 $15 #
body $-1 $16 $-1 $17 #
body $-1 $18 $-1 $19 #
body $-1 $20 $-1 $21 #
body $-1 $22 $-1 $23 #
body $-1 $24 $-1 $25 #
body $-1 $26 $-1 $27 #
body $-1 $28 $-1 $29 #
body $-1 $30 $-1 $31 #
body $-1 $32 $-1 $33 #
body $-1 $34 $-1 $35 #
lump $-1 $-1 $36 $0 #
transform $-1 1 0 0 0 1 0 0 0 1 46.855677968688013 28.45502552771751 9.3594082042933753 1 rotate no_reflect no_shear #
lump $-1 $-1 $37 $1 #
transform $-1 1 0 0 0 1 0 0 0 1 46.855677968688013 28.45502552771751 9.3594082042933753 1 rotate no_reflect no_shear #
lump $-1 $-1 $38 $2 #
transform $-1 1 0 0 0 1 0 0 0 1 46.855677968688013 28.45502552771751 9.3594082042933753 1 rotate no_reflect no_shear #
lump $-1 $-1 $39 $3 #
transform $-1 1 0 0 0 1 0 0 0 1 46.855677968688013 28.45502552771751 9.3594082042933753 1 rotate no_reflect no_shear #
lump $-1 $-1 $40 $4 #
transform $-1 1 0 0 0 1 0 0 0 1 46.855677968688013 28.45502552771751 9.3594082042933753 1 rotate no_reflect no_shear #
lump $-1 $-1 $41 $5 #
transform $-1 1 0 0 0 1 0 0 0 1 46.855677968688013 28.45502552771751 9.3594082042933753 1 rotate no_reflect no_shear #
lump $-1 $-1 $42 $6 #
transform $-1 1 0 0 0 1 0 0 0 1 46.855677968688013 28.45502552771751 9.3594082042933753 1 rotate no_reflect no_shear #
lump $-1 $-1 $43 $7 #
transform $-1 1 0 0 0 1 0 0 0 1 46.855677968688013 28.45502552771751 9.3594082042933753 1 rotate no_reflect no_shear #
lump $-1 $-1 $44 $8 #
transform $-1 1 0 0 0 1 0 0 0 1 46.855677968688013 28.45502552771751 9.3594082042933753 1 rotate no_reflect no_shear #
lump $-1 $-1 $45 $9 #
transform $-1 1 0 0 0 1 0 0 0 1 46.855677968688013 28.45502552771751 9.3594082042933753 1 rotate no_reflect no_shear #
lump $-1 $-1 $46 $10 #
transform $-1 1 0 0 0 1 0 0 0 1 46.855677968688013 28.45502552771751 9.3594082042933753 1 rotate no_reflect no_shear #
lump $-1 $-1 $47 $11 #
transform $-1 1 0 0 0 1 0 0 0 1 46.855677968688013 28.45502552771751 9.3594082042933753 1 rotate no_reflect no_shear #
shell $-1 $-1 $-1 $48 $-1 $12 #
shell $-1 $-1 $-1 $49 $-1 $14 #
shell $-1 $-1 $-1 $50 $-1 $16 #
shell $-1 $-1 $-1 $51 $-1 $18 #
shell $-1 $-1 $-1 $52 $-1 $20 #
shell $-1 $-1 $-1 $53 $-1 $22 #
shell $-1 $-1 $-1 $54 $-1 $24 #
shell $-1 $-1 $-1 $55 $-1 $26 #
shell $-1 $-1 $-1 $56 $-1 $28 #
shell $-1 $-1 $-1 $57 $-1 $30 #
shell $-1 $-1 $-1 $58 $-1 $32 #
shell $-1 $-1 $-1 $59 $-1 $34 #
face $-1 $60 $61 $36 $-1 $62 forward single #
face $-1 $63 $64 $37 $-1 $65 forward single #
face $-1 $66 $67 $38 $-1 $68 reversed single #
face $-1 $69 $70 $39 $-1 $71 forward single #
face $-1 $72 $73 $40 $-1 $74 forward single #
face $-1 $75 $76 $41 $-1 $77 reversed single #
face $-1 $78 $79 $42 $-1 $80 forward single #
face $-1 $81 $82 $43 $-1 $83 forward single #
face $-1 $84 $85 $44 $-1 $86 reversed single #
face $-1 $87 $88 $45 $-1 $89 forward single #
face $-1 $90 $91 $46 $-1 $92 reversed single #
face $-1 $93 $94 $47 $-1 $95 forward single #
face $-1 $96 $97 $36 $-1 $98 reversed single #
loop $-1 $-1 $99 $48 #
plane-surface $-1 0 0 9.3594082042933753 0 0 1 1 0 0 forward_v I I I I #
face $-1 $100 $101 $37 $-1 $102 reversed single #
loop $-1 $-1 $103 $49 #
plane-surface $-1 0 -24.457286862262574 -2.9815857115651125 0 0 1 1 0 0 forward_v I I I I #
face $-1 $104 $105 $38 $-1 $106 reversed single #
loop $-1 $-1 $107 $50 #
plane-surface $-1 -128.01209355840189 -20.459548196807638 49.52097267771677 0 1 0 -0.86602541151947299 0 0.49999998660252726 forward_v I I I I #
face $-1 $108 $109 $39 $-1 $110 forward single #
loop $-1 $111 $112 $51 #
cone-surface $-1 -43.278382173774816 -16.983409809267044 5.0626847616083062 0.86602541151947299 0 -0.49999998660252726 0.49999998660252726 0 0.86602541151947299 1 I I 0 1 1 forward I I I I #
face $-1 $113 $114 $40 $-1 $115 forward single #
loop $-1 $116 $117 $52 #
cone-surface $-1 -43.278382173774816 -11.769202227956161 5.0626847616083062 0.86602541151947299 0 -0.49999998660252726 0.49999998660252726 0 0.86602541151947299 1 I I 0 1 1 forward I I I I #
face $-1 $118 $119 $41 $-1 $120 reversed single #
loop $-1 $-1 $121 $53 #
plane-surface $-1 -128.01209355840189 3.9977386654549365 49.52097267771677 0 1 0 -0.86602541151947299 0 0.49999998660252726 forward_v I I I I #
face $-1 $122 $123 $42 $-1 $124 forward single #
loop $-1 $125 $126 $54 #
cone-surface $-1 -43.278382173774816 7.4738770529955261 5.0626847616083062 0.86602541151947299 0 -0.49999998660252726 0.49999998660252726 0 0.86602541151947299 1 I I 0 1 1 forward I I I I #
face $-1 $127 $128 $43 $-1 $129 forward single #
loop $-1 $130 $131 $55 #
cone-surface $-1 -43.278382173774816 12.688084634306414 5.0626847616083062 0.86602541151947299 0 -0.49999998660252726 0.49999998660252726 0 0.86602541151947299 1 I I 0 1 1 forward I I I I #
face $-1 $132 $133 $44 $-1 $134 reversed single #
loop $-1 $-1 $135 $56 #
plane-surface $-1 23.842455941467307 -11.028325814484482 132.46730411539195 0 -1 0 -0.57357644374324357 0 -0.81915203911291934 forward_v I I I I #
face $-1 $136 $137 $45 $-1 $138 forward single #
loop $-1 $139 $140 $57 #
cone-surface $-1 39.901873425154392 -14.639936893913937 3.278310519443802 -0.57357644374324357 0 -0.81915203911291934 1.228728058669379 0 -0.86036466561486535 1 I I 0 1 1.5 forward I I I I #
face $-1 $141 $142 $46 $-1 $143 reversed single #
loop $-1 $-1 $144 $58 #
plane-surface $-1 23.842455941467307 13.428961047778092 132.46730411539195 0 -1 0 -0.57357644374324357 0 -0.81915203911291934 forward_v I I I I #
face $-1 $145 $146 $47 $-1 $147 forward single #
loop $-1 $148 $149 $59 #
cone-surface $-1 39.901873425154392 9.8173499683486369 3.278310519443802 -0.57357644374324357 0 -0.81915203911291934 1.228728058669379 0 -0.86036466561486535 1 I I 0 1 1.5 forward I I I I #
face $-1 $150 $151 $36 $-1 $152 reversed single #
loop $-1 $-1 $153 $60 #
plane-surface $-1 0 0 -9.3594082042933753 0 0 1 1 0 0 forward_v I I I I #
coedge $-1 $154 $155 $156 $157 forward $61 $-1 #
face $-1 $158 $159 $37 $-1 $160 reversed single #
loop $-1 $-1 $161 $63 #
plane-surface $-1 0 -24.457286862262574 -7.9628920086919139 0 0 1 1 0 0 forward_v I I I I #
coedge $-1 $162 $163 $164 $165 reversed $64 $-1 #
face $-1 $166 $167 $38 $-1 $168 reversed single #
loop $-1 $-1 $169 $66 #
plane-surface $-1 -46.855677968687999 -14.376306018611604 2.6652959645240912 -0.86602541151947299 0 0.49999998660252726 0.49999998660252726 0 0.86602541151947299 forward_v I I I I #
coedge $-1 $170 $171 $172 $173 reversed $67 $-1 #
face $-1 $-1 $174 $39 $-1 $175 forward single #
loop $-1 $176 $177 $69 #
cone-surface $-1 -41.20049735587115 -16.983409809267044 3.8630174455066157 0.86602541151947299 0 -0.49999998660252726 0.24999999330126363 0 0.43301270575973649 1 I I -0.70710678118654746 0.70710678118654746 0.5 forward I I I I #
loop $-1 $-1 $178 $51 #
coedge $-1 $112 $112 $179 $180 reversed $70 $-1 #
face $-1 $-1 $181 $40 $-1 $182 forward single #
loop $-1 $183 $184 $72 #
cone-surface $-1 -41.20049735587115 -11.769202227956161 3.8630174455066157 0.86602541151947299 0 -0.49999998660252726 0.24999999330126363 0 0.43301270575973649 1 I I -0.70710678118654746 0.70710678118654746 0.5 forward I I I I #
loop $-1 $-1 $185 $52 #
coedge $-1 $117 $117 $186 $187 reversed $73 $-1 #
face $-1 $188 $189 $41 $-1 $190 reversed single #
loop $-1 $-1 $191 $75 #
plane-surface $-1 -46.855677968687999 10.08098084365097 2.6652959645240912 -0.86602541151947299 0 0.49999998660252726 0.49999998660252726 0 0.86602541151947299 forward_v I I I I #
coedge $-1 $192 $193 $194 $195 reversed $76 $-1 #
face $-1 $-1 $196 $42 $-1 $197 forward single #
loop $-1 $198 $199 $78 #
cone-surface $-1 -41.20049735587115 7.4738770529955261 3.8630174455066157 0.86602541151947299 0 -0.49999998660252726 0.24999999330126363 0 0.43301270575973649 1 I I -0.70710678118654746 0.70710678118654746 0.5 forward I I I I #
loop $-1 $-1 $200 $54 #
coedge $-1 $126 $126 $201 $202 reversed $79 $-1 #
face $-1 $-1 $203 $43 $-1 $204 forward single #
loop $-1 $205 $206 $81 #
cone-surface $-1 -41.20049735587115 12.688084634306414 3.8630174455066157 0.86602541151947299 0 -0.49999998660252726 0.24999999330126363 0 0.43301270575973649 1 I I -0.70710678118654746 0.70710678118654746 0.5 forward I I I I #
loop $-1 $-1 $207 $55 #
coedge $-1 $131 $131 $208 $209 reversed $82 $-1 #
face $-1 $210 $211 $44 $-1 $212 reversed single #
loop $-1 $-1 $213 $84 #
plane-surface $-1 -29.90817033545013 -14.639936893913937 55.703455811253804 0.57357644374324357 0 0.81915203911291934 0.81915203911291934 0 -0.57357644374324357 forward_v I I I I #
coedge $-1 $214 $215 $216 $217 reversed $85 $-1 #
face $-1 $-1 $218 $45 $-1 $219 forward single #
loop $-1 $220 $221 $87 #
cone-surface $-1 37.806731729370838 -14.639936893913937 0.28613814023804274 -0.57357644374324357 0 -0.81915203911291934 0.61436402933468948 0 -0.43018233280743268 1 I I -0.70710678118654757 0.70710678118654757 0.75 forward I I I I #
loop $-1 $-1 $222 $57 #
coedge $-1 $140 $140 $223 $224 reversed $88 $-1 #
face $-1 $225 $226 $46 $-1 $227 reversed single #
loop $-1 $-1 $228 $90 #
plane-surface $-1 -29.90817033545013 9.8173499683486369 55.703455811253804 0.57357644374324357 0 0.81915203911291934 0.81915203911291934 0 -0.57357644374324357 forward_v I I I I #
coedge $-1 $229 $230 $231 $232 reversed $91 $-1 #
face $-1 $-1 $233 $47 $-1 $234 forward single #
loop $-1 $235 $236 $93 #
cone-surface $-1 37.806731729370838 9.8173499683486369 0.28613814023804274 -0.57357644374324357 0 -0.81915203911291934 0.61436402933468948 0 -0.43018233280743268 1 I I -0.70710678118654757 0.70710678118654757 0.75 forward I I I I #
loop $-1 $-1 $237 $59 #
coedge $-1 $149 $149 $238 $239 reversed $94 $-1 #
face $-1 $240 $241 $36 $-1 $242 reversed single #
loop $-1 $-1 $243 $96 #
plane-surface $-1 0 -28.45502552771751 0 0 1 0 0 0 1 forward_v I I I I #
coedge $-1 $244 $245 $246 $247 forward $97 $-1 #
coedge $-1 $248 $99 $249 $250 forward $61 $-1 #
coedge $-1 $99 $248 $251 $252 forward $61 $-1 #
coedge $-1 $253 $254 $99 $157 reversed $255 $-1 #
edge $-1 $256 -28.45502552771751 $257 28.45502552771751 $156 $258 forward 7 unknown #
face $-1 $259 $260 $37 $-1 $261 reversed single #
loop $-1 $-1 $262 $100 #
plane-surface $-1 0 -20.459548196807638 -5.4722388601285132 0 -1 0 0 0 -1 forward_v I I I I #
coedge $-1 $263 $264 $265 $266 reversed $101 $-1 #
coedge $-1 $267 $103 $268 $269 forward $64 $-1 #
coedge $-1 $103 $267 $270 $271 reversed $64 $-1 #
coedge $-1 $272 $273 $103 $165 forward $274 $-1 #
edge $-1 $275 8.2309047656763514 $276 16.226382096586221 $164 $277 forward 7 unknown #
face $-1 $278 $279 $38 $-1 $280 reversed single #
loop $-1 $-1 $281 $104 #
plane-surface $-1 -128.01209355840189 -8.2930638404155701 49.52097267771677 0 -1 0 0.86602541151947299 0 -0.49999998660252726 forward_v I I I I #
coedge $-1 $282 $283 $284 $285 reversed $105 $-1 #
coedge $-1 $171 $107 $286 $287 reversed $67 $-1 #
coedge $-1 $107 $170 $282 $288 reversed $67 $-1 #
coedge $-1 $284 $289 $107 $173 forward $290 $-1 #
edge $-1 $291 17.15036881051293 $292 21.015216176051474 $172 $293 forward 7 unknown #
loop $-1 $-1 $179 $108 #
plane-surface $-1 -46.855677968687999 -14.376306018611604 2.6652959645240912 -0.86602541151947299 0 0.49999998660252726 0.49999998660252726 0 0.86602541151947299 forward_v I I I I #
loop $-1 $-1 $294 $69 #
coedge $-1 $177 $177 $178 $295 reversed $109 $-1 #
coedge $-1 $178 $178 $177 $295 forward $111 $-1 #
coedge $-1 $179 $179 $112 $180 forward $174 $-1 #
edge $-1 $296 0 $296 6.2831853071796004 $179 $297 forward 7 unknown #
loop $-1 $-1 $186 $113 #
plane-surface $-1 -46.855677968687999 -14.376306018611604 2.6652959645240912 -0.86602541151947299 0 0.49999998660252726 0.49999998660252726 0 0.86602541151947299 forward_v I I I I #
loop $-1 $-1 $298 $72 #
coedge $-1 $184 $184 $185 $299 reversed $114 $-1 #
coedge $-1 $185 $185 $184 $299 forward $116 $-1 #
coedge $-1 $186 $186 $117 $187 forward $181 $-1 #
edge $-1 $300 0 $300 6.2831853071796004 $186 $301 forward 7 unknown #
face $-1 $302 $303 $41 $-1 $304 forward single #
loop $-1 $-1 $305 $118 #
plane-surface $-1 -128.01209355840189 16.164223021847004 49.52097267771677 0 -1 0 0.86602541151947299 0 -0.49999998660252726 forward_v I I I I #
coedge $-1 $306 $307 $308 $309 reversed $119 $-1 #
coedge $-1 $193 $121 $310 $311 reversed $76 $-1 #
coedge $-1 $121 $192 $306 $312 reversed $76 $-1 #
coedge $-1 $308 $313 $121 $195 forward $303 $-1 #
edge $-1 $314 17.15036881051293 $315 21.015216176051474 $194 $316 forward 7 unknown #
loop $-1 $-1 $201 $122 #
plane-surface $-1 -46.855677968687999 10.08098084365097 2.6652959645240912 -0.86602541151947299 0 0.49999998660252726 0.49999998660252726 0 0.86602541151947299 forward_v I I I I #
loop $-1 $-1 $317 $78 #
coedge $-1 $199 $199 $200 $318 reversed $123 $-1 #
coedge $-1 $200 $200 $199 $318 forward $125 $-1 #
coedge $-1 $201 $201 $126 $202 forward $196 $-1 #
edge $-1 $319 0 $319 6.2831853071796004 $201 $320 forward 7 unknown #
loop $-1 $-1 $208 $127 #
plane-surface $-1 -46.855677968687999 10.08098084365097 2.6652959645240912 -0.86602541151947299 0 0.49999998660252726 0.49999998660252726 0 0.86602541151947299 forward_v I I I I #
loop $-1 $-1 $321 $81 #
coedge $-1 $206 $206 $207 $322 reversed $128 $-1 #
coedge $-1 $207 $207 $206 $322 forward $130 $-1 #
coedge $-1 $208 $208 $131 $209 forward $203 $-1 #
edge $-1 $323 0 $323 6.2831853071796004 $208 $324 forward 7 unknown #
face $-1 $325 $326 $44 $-1 $327 forward single #
loop $-1 $-1 $328 $132 #
plane-surface $-1 23.842455941467307 -18.251547973343392 132.46730411539195 0 1 0 0.57357644374324357 0 0.81915203911291934 forward_v I I I I #
coedge $-1 $329 $330 $331 $332 reversed $133 $-1 #
coedge $-1 $215 $135 $333 $334 reversed $85 $-1 #
coedge $-1 $135 $214 $329 $335 reversed $85 $-1 #
coedge $-1 $331 $336 $135 $217 forward $326 $-1 #
edge $-1 $337 -34.93444999795436 $338 -24.356759636839364 $216 $339 forward 7 unknown #
loop $-1 $-1 $223 $136 #
plane-surface $-1 -29.90817033545013 -14.639936893913937 55.703455811253804 0.57357644374324357 0 0.81915203911291934 0.81915203911291934 0 -0.57357644374324357 forward_v I I I I #
loop $-1 $-1 $340 $87 #
coedge $-1 $221 $221 $222 $341 reversed $137 $-1 #
coedge $-1 $222 $222 $221 $341 forward $139 $-1 #
coedge $-1 $223 $223 $140 $224 forward $218 $-1 #
edge $-1 $342 0 $342 6.2831853071796004 $223 $343 forward 7 unknown #
face $-1 $344 $345 $46 $-1 $346 reversed single #
loop $-1 $-1 $347 $141 #
plane-surface $-1 23.842455941467307 6.205738888919182 132.46730411539195 0 1 0 0.57357644374324357 0 0.81915203911291934 forward_v I I I I #
coedge $-1 $348 $349 $350 $351 reversed $142 $-1 #
coedge $-1 $230 $144 $352 $353 reversed $91 $-1 #
coedge $-1 $144 $229 $348 $354 reversed $91 $-1 #
coedge $-1 $350 $355 $144 $232 forward $356 $-1 #
edge $-1 $357 -34.93444999795436 $358 -24.356759636839364 $231 $359 forward 7 unknown #
loop $-1 $-1 $238 $145 #
plane-surface $-1 -29.90817033545013 9.8173499683486369 55.703455811253804 0.57357644374324357 0 0.81915203911291934 0.81915203911291934 0 -0.57357644374324357 forward_v I I I I #
loop $-1 $-1 $360 $93 #
coedge $-1 $236 $236 $237 $361 reversed $146 $-1 #
coedge $-1 $237 $237 $236 $361 forward $148 $-1 #
coedge $-1 $238 $238 $149 $239 forward $233 $-1 #
edge $-1 $362 0 $362 6.2831853071796004 $238 $363 forward 7 unknown #
face $-1 $364 $365 $36 $-1 $366 reversed single #
loop $-1 $-1 $367 $150 #
plane-surface $-1 -46.855677968688013 0 0 1 0 0 0 0 -1 forward_v I I I I #
coedge $-1 $368 $251 $369 $370 forward $151 $-1 #
coedge $-1 $371 $153 $368 $372 forward $97 $-1 #
coedge $-1 $153 $371 $373 $374 forward $97 $-1 #
coedge $-1 $254 $253 $153 $247 reversed $255 $-1 #
edge $-1 $375 -28.45502552771751 $376 28.45502552771751 $246 $377 forward 7 unknown #
coedge $-1 $155 $154 $378 $379 forward $61 $-1 #
coedge $-1 $380 $381 $154 $250 reversed $365 $-1 #
edge $-1 $257 -46.855677968688013 $382 46.855677968688013 $249 $383 forward 7 unknown #
coedge $-1 $243 $384 $155 $252 reversed $151 $-1 #
edge $-1 $385 -46.855677968688013 $256 46.855677968688013 $251 $386 forward 7 unknown #
coedge $-1 $246 $156 $384 $387 forward $255 $-1 #
coedge $-1 $156 $246 $380 $388 reversed $255 $-1 #
loop $-1 $-1 $253 $364 #
vertex $-1 $157 $389 #
vertex $-1 $157 $390 #
straight-curve $-1 46.855677968688013 0 9.3594082042933753 0 1 0 I I #
face $-1 $391 $392 $37 $-1 $393 reversed single #
loop $-1 $-1 $394 $158 #
plane-surface $-1 -46.855677968688013 0 0 1 0 0 0 0 -1 forward_v I I I I #
coedge $-1 $395 $268 $273 $396 reversed $159 $-1 #
coedge $-1 $397 $161 $398 $399 reversed $101 $-1 #
coedge $-1 $161 $397 $395 $400 forward $101 $-1 #
coedge $-1 $273 $272 $161 $266 forward $274 $-1 #
edge $-1 $401 -16.226382096586221 $402 -8.2309047656763514 $265 $403 forward 7 unknown #
coedge $-1 $163 $162 $394 $404 reversed $64 $-1 #
coedge $-1 $262 $405 $162 $269 reversed $159 $-1 #
edge $-1 $275 -46.855677968688013 $406 46.855677968688013 $268 $407 forward 7 unknown #
coedge $-1 $408 $409 $163 $271 forward $392 $-1 #
edge $-1 $276 -46.855677968688013 $410 46.855677968688013 $270 $411 forward 7 unknown #
coedge $-1 $265 $164 $409 $412 forward $274 $-1 #
coedge $-1 $164 $265 $262 $396 forward $274 $-1 #
loop $-1 $-1 $164 $391 #
vertex $-1 $165 $413 #
vertex $-1 $412 $414 #
straight-curve $-1 46.855677968688013 -12.228643431131287 -2.9815857115651125 0 -1 0 I I #
face $-1 $-1 $290 $38 $-1 $415 forward single #
loop $-1 $-1 $416 $166 #
plane-surface $-1 -46.855677968688013 0 0 1 0 0 0 0 -1 forward_v I I I I #
coedge $-1 $417 $418 $419 $420 reversed $167 $-1 #
coedge $-1 $421 $169 $171 $288 forward $105 $-1 #
coedge $-1 $169 $421 $417 $422 forward $105 $-1 #
coedge $-1 $419 $172 $169 $285 forward $290 $-1 #
edge $-1 $292 -13.271395187501836 $423 -1.104910831109768 $284 $424 forward 7 unknown #
coedge $-1 $425 $426 $170 $287 forward $279 $-1 #
edge $-1 $427 -22.095190374334319 $291 -15.40107813456501 $286 $428 forward 7 unknown #
edge $-1 $292 -7.7296949381938136 $427 2.8258016906358157e-014 $171 $429 forward 7 unknown #
coedge $-1 $172 $419 $425 $430 forward $290 $-1 #
loop $-1 $-1 $419 $278 #
vertex $-1 $287 $431 #
vertex $-1 $173 $432 #
straight-curve $-1 -64.006046779200943 -20.459548196807638 9.3594082042933735 1 0 0 I I #
coedge $-1 $294 $294 $-1 $433 reversed $176 $-1 #
edge $-1 $434 0 $434 6.2831853071796004 $177 $435 forward 7 unknown #
vertex $-1 $180 $436 #
ellipse-curve $-1 -44.923254285918738 -16.983409809267044 6.0123520844087279 -0.86602541151947299 0 0.49999998660252726 0.49999998660252726 0 0.86602541151947299 1 I I #
coedge $-1 $298 $298 $-1 $437 reversed $183 $-1 #
edge $-1 $438 0 $438 6.2831853071796004 $184 $439 forward 7 unknown #
vertex $-1 $187 $440 #
ellipse-curve $-1 -44.923254285918738 -11.769202227956161 6.0123520844087279 -0.86602541151947299 0 0.49999998660252726 0.49999998660252726 0 0.86602541151947299 1 I I #
face $-1 $-1 $441 $41 $-1 $442 reversed single #
loop $-1 $-1 $194 $188 #
plane-surface $-1 0 0 9.3594082042933753 0 0 1 1 0 0 forward_v I I I I #
coedge $-1 $443 $444 $445 $446 reversed $189 $-1 #
coedge $-1 $447 $191 $193 $312 forward $119 $-1 #
coedge $-1 $191 $447 $443 $448 forward $119 $-1 #
coedge $-1 $445 $194 $191 $309 forward $303 $-1 #
edge $-1 $315 -1.0427517563705484 $449 11.123732600021519 $308 $450 forward 7 unknown #
coedge $-1 $451 $452 $192 $311 forward $441 $-1 #
edge $-1 $453 -22.095190374334319 $314 -15.40107813456501 $310 $454 forward 7 unknown #
edge $-1 $315 -7.7296949381938136 $453 2.8258016906358157e-014 $193 $455 forward 7 unknown #
coedge $-1 $194 $445 $451 $456 forward $303 $-1 #
vertex $-1 $195 $457 #
vertex $-1 $195 $458 #
straight-curve $-1 -64.006046779200943 3.9977386654549365 9.3594082042933735 1 0 0 I I #
coedge $-1 $317 $317 $-1 $459 reversed $198 $-1 #
edge $-1 $460 0 $460 6.2831853071796004 $199 $461 forward 7 unknown #
vertex $-1 $202 $462 #
ellipse-curve $-1 -44.923254285918738 7.4738770529955261 6.0123520844087279 -0.86602541151947299 0 0.49999998660252726 0.49999998660252726 0 0.86602541151947299 1 I I #
coedge $-1 $321 $321 $-1 $463 reversed $205 $-1 #
edge $-1 $464 0 $464 6.2831853071796004 $206 $465 forward 7 unknown #
vertex $-1 $209 $466 #
ellipse-curve $-1 -44.923254285918738 12.688084634306414 6.0123520844087279 -0.86602541151947299 0 0.49999998660252726 0.49999998660252726 0 0.86602541151947299 1 I I #
face $-1 $-1 $467 $44 $-1 $468 reversed single #
loop $-1 $-1 $216 $210 #
plane-surface $-1 0 0 9.3594082042933753 0 0 1 1 0 0 forward_v I I I I #
coedge $-1 $469 $470 $471 $472 reversed $211 $-1 #
coedge $-1 $473 $213 $215 $335 forward $133 $-1 #
coedge $-1 $213 $473 $469 $474 forward $133 $-1 #
coedge $-1 $471 $216 $213 $332 forward $326 $-1 #
edge $-1 $338 3.7083573675275137 $475 10.931579526386423 $331 $476 forward 7 unknown #
coedge $-1 $477 $478 $214 $334 forward $467 $-1 #
edge $-1 $479 -64.280822523359603 $337 -56.874243853402604 $333 $480 forward 7 unknown #
edge $-1 $338 80.798380255145091 $479 93.711355937376027 $215 $481 forward 7 unknown #
coedge $-1 $216 $471 $477 $482 forward $326 $-1 #
vertex $-1 $334 $483 #
vertex $-1 $217 $484 #
straight-curve $-1 11.921227970733653 -11.028325814484482 9.3594082042933735 -1 0 0 I I #
coedge $-1 $340 $340 $-1 $485 reversed $220 $-1 #
edge $-1 $486 0 $486 6.2831853071796004 $221 $487 forward 7 unknown #
vertex $-1 $224 $488 #
ellipse-curve $-1 41.566832788130519 -14.639936893913937 5.6561188693148789 0.57357644374324357 0 0.81915203911291934 1.228728058669379 0 -0.86036466561486535 1 I I #
face $-1 $-1 $356 $46 $-1 $489 forward single #
loop $-1 $-1 $490 $225 #
plane-surface $-1 46.855677968688013 0 0 -1 0 0 0 0 1 forward_v I I I I #
coedge $-1 $491 $492 $493 $494 reversed $226 $-1 #
coedge $-1 $495 $228 $230 $354 forward $142 $-1 #
coedge $-1 $228 $495 $491 $496 forward $142 $-1 #
coedge $-1 $493 $231 $228 $351 forward $356 $-1 #
edge $-1 $358 -8.5202860636037734 $497 -1.2970639047448635 $350 $498 forward 7 unknown #
coedge $-1 $499 $500 $229 $353 forward $345 $-1 #
edge $-1 $501 -64.280822523359603 $357 -56.874243853402604 $352 $502 forward 7 unknown #
edge $-1 $358 80.798380255145091 $501 93.711355937376027 $230 $503 forward 7 unknown #
coedge $-1 $231 $493 $499 $504 forward $356 $-1 #
loop $-1 $-1 $493 $344 #
vertex $-1 $353 $505 #
vertex $-1 $232 $506 #
straight-curve $-1 11.921227970733653 13.428961047778092 9.3594082042933735 -1 0 0 I I #
coedge $-1 $360 $360 $-1 $507 reversed $235 $-1 #
edge $-1 $508 0 $508 6.2831853071796004 $236 $509 forward 7 unknown #
vertex $-1 $239 $510 #
ellipse-curve $-1 41.566832788130519 9.8173499683486369 5.6561188693148789 0.57357644374324357 0 0.81915203911291934 1.228728058669379 0 -0.86036466561486535 1 I I #
face $-1 $-1 $255 $36 $-1 $511 reversed single #
loop $-1 $-1 $380 $240 #
plane-surface $-1 0 28.45502552771751 0 0 -1 0 0 0 -1 forward_v I I I I #
coedge $-1 $512 $378 $381 $513 forward $241 $-1 #
coedge $-1 $384 $243 $244 $372 reversed $151 $-1 #
coedge $-1 $378 $512 $243 $370 reversed $241 $-1 #
edge $-1 $385 -9.3594082042933753 $514 9.3594082042933753 $369 $515 forward 7 unknown #
coedge $-1 $245 $244 $512 $516 forward $97 $-1 #
edge $-1 $376 -46.855677968688013 $514 46.855677968688013 $368 $517 forward 7 unknown #
coedge $-1 $381 $380 $245 $374 reversed $365 $-1 #
edge $-1 $518 -46.855677968688013 $375 46.855677968688013 $373 $519 forward 7 unknown #
vertex $-1 $247 $520 #
vertex $-1 $387 $521 #
straight-curve $-1 46.855677968688013 0 -9.3594082042933753 0 -1 0 I I #
coedge $-1 $367 $369 $248 $379 reversed $241 $-1 #
edge $-1 $382 -28.45502552771751 $385 28.45502552771751 $378 $522 forward 7 unknown #
coedge $-1 $373 $249 $254 $388 forward $365 $-1 #
coedge $-1 $249 $373 $367 $513 reversed $365 $-1 #
vertex $-1 $250 $523 #
straight-curve $-1 0 28.45502552771751 9.3594082042933753 -1 0 0 I I #
coedge $-1 $251 $368 $253 $387 reversed $151 $-1 #
vertex $-1 $379 $524 #
straight-curve $-1 0 -28.45502552771751 9.3594082042933753 1 0 0 I I #
edge $-1 $256 -9.3594082042933753 $376 9.3594082042933753 $253 $525 forward 7 unknown #
edge $-1 $257 -9.3594082042933753 $375 9.3594082042933753 $254 $526 forward 7 unknown #
point $-1 46.855677968688013 -28.45502552771751 9.3594082042933753 #
point $-1 46.855677968688013 28.45502552771751 9.3594082042933753 #
face $-1 $-1 $274 $37 $-1 $527 reversed single #
loop $-1 $-1 $270 $259 #
plane-surface $-1 0 -28.45502552771751 0 0 1 0 0 0 1 forward_v I I I I #
coedge $-1 $528 $529 $267 $404 forward $260 $-1 #
coedge $-1 $405 $262 $264 $400 reversed $159 $-1 #
edge $-1 $402 -5.2267725786276573 $275 -0.24546628150085592 $273 $530 forward 7 unknown #
coedge $-1 $264 $263 $531 $532 reversed $101 $-1 #
coedge $-1 $409 $408 $263 $399 forward $392 $-1 #
edge $-1 $533 -46.855677968688013 $401 46.855677968688013 $398 $534 forward 7 unknown #
edge $-1 $535 -46.855677968688013 $402 46.855677968688013 $395 $536 forward 7 unknown #
vertex $-1 $399 $537 #
vertex $-1 $266 $538 #
straight-curve $-1 46.855677968688013 -12.228643431131287 -7.9628920086919139 0 1 0 I I #
edge $-1 $410 -16.226382096586221 $406 -8.2309047656763514 $394 $539 forward 7 unknown #
coedge $-1 $268 $395 $528 $540 reversed $159 $-1 #
vertex $-1 $404 $541 #
straight-curve $-1 0 -20.459548196807638 -2.9815857115651125 -1 0 0 I I #
coedge $-1 $398 $270 $529 $542 forward $392 $-1 #
coedge $-1 $270 $398 $272 $412 reversed $392 $-1 #
vertex $-1 $542 $543 #
straight-curve $-1 0 -28.45502552771751 -2.9815857115651125 -1 0 0 I I #
edge $-1 $276 2.9815857115651125 $401 7.9628920086919139 $272 $544 forward 7 unknown #
point $-1 46.855677968688013 -20.459548196807638 -2.9815857115651125 #
point $-1 46.855677968688013 -28.45502552771751 -2.9815857115651125 #
plane-surface $-1 0 0 9.3594082042933753 0 0 1 1 0 0 forward_v I I I I #
coedge $-1 $426 $425 $418 $545 forward $279 $-1 #
coedge $-1 $418 $281 $283 $422 reversed $167 $-1 #
coedge $-1 $281 $417 $416 $545 reversed $167 $-1 #
coedge $-1 $289 $284 $281 $420 forward $290 $-1 #
edge $-1 $423 -21.015216176051474 $546 -17.15036881051293 $419 $547 forward 7 unknown #
coedge $-1 $283 $282 $426 $548 reversed $105 $-1 #
edge $-1 $549 -2.8258016906358157e-014 $423 7.7296949381938136 $417 $550 forward 7 unknown #
vertex $-1 $285 $551 #
straight-curve $-1 -42.990830603149469 -7.1881530093058021 9.3594082042933753 0 1 0 I I #
coedge $-1 $416 $286 $289 $430 reversed $279 $-1 #
coedge $-1 $286 $416 $421 $548 forward $279 $-1 #
vertex $-1 $287 $552 #
straight-curve $-1 -46.855677968688013 -20.459548196807638 24.760486338858385 0 0 1 I I #
straight-curve $-1 -46.855677968687999 -20.459548196807638 2.6652959645240912 -0.49999998660252726 0 -0.86602541151947299 I I #
edge $-1 $546 8.2930638404155701 $291 20.459548196807638 $425 $553 forward 7 unknown #
point $-1 -46.855677968688013 -20.459548196807638 9.3594082042933753 #
point $-1 -42.990830603149469 -20.459548196807638 9.3594082042933753 #
edge $-1 $554 1 $554 0 $294 $-1 forward 7 unknown #
vertex $-1 $295 $555 #
ellipse-curve $-1 -41.633510061630886 -16.983409809267044 4.1130174388078791 -0.86602541151947299 0 0.49999998660252726 0.49999998660252726 0 0.86602541151947299 1 I I #
point $-1 -44.42325429931622 -16.983409809267044 6.8783774959282056 #
edge $-1 $556 1 $556 0 $298 $-1 forward 7 unknown #
vertex $-1 $299 $557 #
ellipse-curve $-1 -41.633510061630886 -11.769202227956161 4.1130174388078791 -0.86602541151947299 0 0.49999998660252726 0.49999998660252726 0 0.86602541151947299 1 I I #
point $-1 -44.42325429931622 -11.769202227956161 6.8783774959282056 #
loop $-1 $-1 $310 $302 #
plane-surface $-1 -46.855677968688013 0 0 1 0 0 0 0 -1 forward_v I I I I #
coedge $-1 $444 $305 $307 $448 reversed $189 $-1 #
coedge $-1 $305 $443 $558 $559 reversed $189 $-1 #
coedge $-1 $313 $308 $305 $446 forward $303 $-1 #
edge $-1 $449 -21.015216176051474 $560 -17.15036881051293 $445 $561 forward 7 unknown #
coedge $-1 $307 $306 $452 $562 reversed $119 $-1 #
edge $-1 $563 -2.8258016906358157e-014 $449 7.7296949381938136 $443 $564 forward 7 unknown #
vertex $-1 $309 $565 #
straight-curve $-1 -42.990830603149469 5.0404904218254849 9.3594082042933753 0 1 0 I I #
coedge $-1 $558 $310 $313 $456 reversed $441 $-1 #
coedge $-1 $310 $558 $447 $562 forward $441 $-1 #
vertex $-1 $311 $566 #
straight-curve $-1 -46.855677968688013 3.9977386654549365 24.760486338858385 0 0 1 I I #
straight-curve $-1 -46.855677968687999 3.9977386654549365 2.6652959645240912 -0.49999998660252726 0 -0.86602541151947299 I I #
edge $-1 $560 -16.164223021847004 $314 -3.9977386654549365 $451 $567 forward 7 unknown #
point $-1 -46.855677968688013 3.9977386654549365 9.3594082042933753 #
point $-1 -42.990830603149469 3.9977386654549365 9.3594082042933753 #
edge $-1 $568 1 $568 0 $317 $-1 forward 7 unknown #
vertex $-1 $318 $569 #
ellipse-curve $-1 -41.633510061630886 7.4738770529955261 4.1130174388078791 -0.86602541151947299 0 0.49999998660252726 0.49999998660252726 0 0.86602541151947299 1 I I #
point $-1 -44.42325429931622 7.4738770529955261 6.8783774959282056 #
edge $-1 $570 1 $570 0 $321 $-1 forward 7 unknown #
vertex $-1 $322 $571 #
ellipse-curve $-1 -41.633510061630886 12.688084634306414 4.1130174388078791 -0.86602541151947299 0 0.49999998660252726 0.49999998660252726 0 0.86602541151947299 1 I I #
point $-1 -44.42325429931622 12.688084634306414 6.8783774959282056 #
loop $-1 $-1 $333 $325 #
plane-surface $-1 46.855677968688013 0 0 -1 0 0 0 0 1 forward_v I I I I #
coedge $-1 $470 $328 $330 $474 reversed $211 $-1 #
coedge $-1 $328 $469 $572 $573 reversed $211 $-1 #
coedge $-1 $336 $331 $328 $472 forward $326 $-1 #
edge $-1 $475 24.356759636839364 $574 34.93444999795436 $471 $575 forward 7 unknown #
coedge $-1 $330 $329 $478 $576 reversed $133 $-1 #
edge $-1 $577 -93.711355937376027 $475 -80.798380255145091 $469 $578 forward 7 unknown #
vertex $-1 $332 $579 #
straight-curve $-1 36.27798760757301 -7.3199684469569686 9.3594082042933806 0 -1 0 I I #
coedge $-1 $572 $333 $336 $482 reversed $467 $-1 #
coedge $-1 $333 $572 $473 $576 forward $467 $-1 #
vertex $-1 $334 $580 #
straight-curve $-1 46.855677968688013 -11.028325814484482 66.233652057695977 0 0 1 I I #
straight-curve $-1 -29.90817033545013 -11.028325814484482 55.703455811253804 0.81915203911291934 0 -0.57357644374324357 I I #
edge $-1 $574 -18.251547973343392 $337 -11.028325814484482 $477 $581 forward 7 unknown #
point $-1 46.855677968688013 -11.028325814484482 9.3594082042933753 #
point $-1 36.277987607573017 -11.028325814484482 9.3594082042933735 #
edge $-1 $582 1 $582 0 $340 $-1 forward 7 unknown #
vertex $-1 $341 $583 #
ellipse-curve $-1 38.236914062178272 -14.639936893913937 0.90050216957273221 0.57357644374324357 0 0.81915203911291934 1.228728058669379 0 -0.86036466561486535 1 I I #
point $-1 42.795560846799894 -14.639936893913937 4.7957542037000067 #
plane-surface $-1 0 0 9.3594082042933753 0 0 1 1 0 0 forward_v I I I I #
coedge $-1 $500 $499 $492 $584 forward $345 $-1 #
coedge $-1 $492 $347 $349 $496 reversed $226 $-1 #
coedge $-1 $347 $491 $490 $584 reversed $226 $-1 #
coedge $-1 $355 $350 $347 $494 forward $356 $-1 #
edge $-1 $497 24.356759636839364 $585 34.93444999795436 $493 $586 forward 7 unknown #
coedge $-1 $349 $348 $500 $587 reversed $142 $-1 #
edge $-1 $588 -93.711355937376027 $497 -80.798380255145091 $491 $589 forward 7 unknown #
vertex $-1 $351 $590 #
straight-curve $-1 36.27798760757301 4.9086749841743185 9.3594082042933806 0 -1 0 I I #
coedge $-1 $490 $352 $355 $504 reversed $345 $-1 #
coedge $-1 $352 $490 $495 $587 forward $345 $-1 #
vertex $-1 $353 $591 #
straight-curve $-1 46.855677968688013 13.428961047778092 66.233652057695977 0 0 1 I I #
straight-curve $-1 -29.90817033545013 13.428961047778092 55.703455811253804 0.81915203911291934 0 -0.57357644374324357 I I #
edge $-1 $585 6.205738888919182 $357 13.428961047778092 $499 $592 forward 7 unknown #
point $-1 46.855677968688013 13.428961047778092 9.3594082042933753 #
point $-1 36.277987607573017 13.428961047778092 9.3594082042933735 #
edge $-1 $593 1 $593 0 $360 $-1 forward 7 unknown #
vertex $-1 $361 $594 #
ellipse-curve $-1 38.236914062178272 9.8173499683486369 0.90050216957273221 0.57357644374324357 0 0.81915203911291934 1.228728058669379 0 -0.86036466561486535 1 I I #
point $-1 42.795560846799894 9.8173499683486369 4.7957542037000067 #
plane-surface $-1 46.855677968688013 0 0 -1 0 0 0 0 1 forward_v I I I I #
coedge $-1 $369 $367 $371 $516 reversed $241 $-1 #
edge $-1 $382 -9.3594082042933753 $518 9.3594082042933753 $381 $595 forward 7 unknown #
vertex $-1 $516 $596 #
straight-curve $-1 -46.855677968688013 -28.45502552771751 0 0 0 -1 I I #
edge $-1 $514 -28.45502552771751 $518 28.45502552771751 $512 $597 forward 7 unknown #
straight-curve $-1 0 -28.45502552771751 -9.3594082042933753 -1 0 0 I I #
vertex $-1 $374 $598 #
straight-curve $-1 0 28.45502552771751 -9.3594082042933753 1 0 0 I I #
point $-1 46.855677968688013 28.45502552771751 -9.3594082042933753 #
point $-1 46.855677968688013 -28.45502552771751 -9.3594082042933753 #
straight-curve $-1 -46.855677968688013 0 9.3594082042933753 0 -1 0 I I #
point $-1 -46.855677968688013 28.45502552771751 9.3594082042933753 #
point $-1 -46.855677968688013 -28.45502552771751 9.3594082042933753 #
straight-curve $-1 46.855677968688013 -28.45502552771751 0 0 0 -1 I I #
straight-curve $-1 46.855677968688013 28.45502552771751 0 0 0 -1 I I #
plane-surface $-1 46.855677968688013 0 0 -1 0 0 0 0 1 forward_v I I I I #
coedge $-1 $531 $394 $405 $540 forward $260 $-1 #
coedge $-1 $394 $531 $408 $542 reversed $260 $-1 #
straight-curve $-1 46.855677968688013 -20.459548196807638 -2.7361194300642566 0 0 1 I I #
coedge $-1 $529 $528 $397 $532 forward $260 $-1 #
edge $-1 $535 8.2309047656763514 $533 16.226382096586221 $531 $599 forward 7 unknown #
vertex $-1 $399 $600 #
straight-curve $-1 0 -28.45502552771751 -7.9628920086919139 1 0 0 I I #
vertex $-1 $532 $601 #
straight-curve $-1 0 -20.459548196807638 -7.9628920086919139 1 0 0 I I #
point $-1 46.855677968688013 -28.45502552771751 -7.9628920086919139 #
point $-1 46.855677968688013 -20.459548196807638 -7.9628920086919139 #
straight-curve $-1 -46.855677968688013 -12.228643431131287 -2.9815857115651125 0 1 0 I I #
edge $-1 $406 0.24546628150085592 $535 5.2267725786276573 $528 $602 forward 7 unknown #
point $-1 -46.855677968688013 -20.459548196807638 -2.9815857115651125 #
edge $-1 $410 2.9815857115651125 $533 7.9628920086919139 $529 $603 forward 7 unknown #
point $-1 -46.855677968688013 -28.45502552771751 -2.9815857115651125 #
straight-curve $-1 46.855677968688013 -28.45502552771751 0 0 0 -1 I I #
edge $-1 $546 15.40107813456501 $549 22.095190374334319 $416 $604 forward 7 unknown #
vertex $-1 $430 $605 #
straight-curve $-1 -64.006046779200943 -8.2930638404155701 9.3594082042933735 -1 0 0 I I #
edge $-1 $549 1.104910831109768 $427 13.271395187501836 $426 $606 forward 7 unknown #
vertex $-1 $548 $607 #
straight-curve $-1 -46.855677968687999 -8.2930638404155701 2.6652959645240912 0.49999998660252726 0 0.86602541151947299 I I #
point $-1 -42.990830603149469 -8.2930638404155701 9.3594082042933753 #
point $-1 -46.855677968688013 -20.459548196807638 2.6652959645240668 #
straight-curve $-1 -46.855677968688013 0 9.3594082042933753 0 -1 0 I I #
vertex $-1 $433 $608 #
point $-1 -41.133510075028362 -16.983409809267044 4.9790428503273523 #
vertex $-1 $437 $609 #
point $-1 -41.133510075028362 -11.769202227956161 4.9790428503273523 #
coedge $-1 $452 $451 $444 $559 forward $441 $-1 #
edge $-1 $560 15.40107813456501 $563 22.095190374334319 $558 $610 forward 7 unknown #
vertex $-1 $456 $611 #
straight-curve $-1 -64.006046779200943 16.164223021847004 9.3594082042933735 -1 0 0 I I #
edge $-1 $563 -11.123732600021519 $453 1.0427517563705484 $452 $612 forward 7 unknown #
vertex $-1 $562 $613 #
straight-curve $-1 -46.855677968687999 16.164223021847004 2.6652959645240912 0.49999998660252726 0 0.86602541151947299 I I #
point $-1 -42.990830603149469 16.164223021847004 9.3594082042933753 #
point $-1 -46.855677968688013 3.9977386654549365 2.6652959645240668 #
straight-curve $-1 -46.855677968688013 0 9.3594082042933753 0 -1 0 I I #
vertex $-1 $459 $614 #
point $-1 -41.133510075028362 7.4738770529955261 4.9790428503273523 #
vertex $-1 $463 $615 #
point $-1 -41.133510075028362 12.688084634306414 4.9790428503273523 #
coedge $-1 $478 $477 $470 $573 forward $467 $-1 #
edge $-1 $574 56.874243853402604 $577 64.280822523359603 $572 $616 forward 7 unknown #
vertex $-1 $482 $617 #
straight-curve $-1 11.921227970733653 -18.251547973343392 9.3594082042933735 1 0 0 I I #
edge $-1 $577 -10.931579526386423 $479 -3.7083573675275137 $478 $618 forward 7 unknown #
vertex $-1 $576 $619 #
straight-curve $-1 -29.90817033545013 -18.251547973343392 55.703455811253804 -0.81915203911291934 0 0.57357644374324357 I I #
point $-1 36.277987607573017 -18.251547973343392 9.3594082042933735 #
point $-1 46.85567796868802 -11.028325814484482 1.9528295343363666 #
straight-curve $-1 46.855677968688013 0 9.3594082042933753 0 1 0 I I #
vertex $-1 $485 $620 #
point $-1 39.465642120847647 -14.639936893913937 0.04013750395786686 #
edge $-1 $585 56.874243853402604 $588 64.280822523359603 $490 $621 forward 7 unknown #
vertex $-1 $504 $622 #
straight-curve $-1 11.921227970733653 6.205738888919182 9.3594082042933735 1 0 0 I I #
edge $-1 $588 1.2970639047448635 $501 8.5202860636037734 $500 $623 forward 7 unknown #
vertex $-1 $587 $624 #
straight-curve $-1 -29.90817033545013 6.205738888919182 55.703455811253804 -0.81915203911291934 0 0.57357644374324357 I I #
point $-1 36.277987607573017 6.205738888919182 9.3594082042933735 #
point $-1 46.85567796868802 13.428961047778092 1.9528295343363666 #
straight-curve $-1 46.855677968688013 0 9.3594082042933753 0 1 0 I I #
vertex $-1 $507 $625 #
point $-1 39.465642120847647 9.8173499683486369 0.04013750395786686 #
straight-curve $-1 -46.855677968688013 28.45502552771751 0 0 0 -1 I I #
point $-1 -46.855677968688013 -28.45502552771751 -9.3594082042933753 #
straight-curve $-1 -46.855677968688013 0 -9.3594082042933753 0 1 0 I I #
point $-1 -46.855677968688013 28.45502552771751 -9.3594082042933753 #
straight-curve $-1 -46.855677968688013 -12.228643431131287 -7.9628920086919139 0 -1 0 I I #
point $-1 -46.855677968688013 -28.45502552771751 -7.9628920086919139 #
point $-1 -46.855677968688013 -20.459548196807638 -7.9628920086919139 #
straight-curve $-1 -46.855677968688013 -20.459548196807638 -2.7361194300642566 0 0 -1 I I #
straight-curve $-1 -46.855677968688013 -28.45502552771751 0 0 0 -1 I I #
straight-curve $-1 -46.855677968688013 -8.2930638404155701 24.760486338858385 0 0 -1 I I #
point $-1 -46.855677968688013 -8.2930638404155701 9.3594082042933753 #
straight-curve $-1 -46.855677968688013 -7.1881530093058021 2.6652959645240628 0 -1 0 I I #
point $-1 -46.855677968688013 -8.2930638404155701 2.6652959645240668 #
point $-1 -40.767484650111413 -16.983409809267044 3.613017452205352 #
point $-1 -40.767484650111413 -11.769202227956161 3.613017452205352 #
straight-curve $-1 -46.855677968688013 16.164223021847004 24.760486338858385 0 0 -1 I I #
point $-1 -46.855677968688013 16.164223021847004 9.3594082042933753 #
straight-curve $-1 -46.855677968688013 5.0404904218254849 2.6652959645240628 0 -1 0 I I #
point $-1 -46.855677968688013 16.164223021847004 2.6652959645240668 #
point $-1 -40.767484650111413 7.4738770529955261 3.613017452205352 #
point $-1 -40.767484650111413 12.688084634306414 3.613017452205352 #
straight-curve $-1 46.855677968688013 -18.251547973343392 66.233652057695977 0 0 -1 I I #
point $-1 46.855677968688013 -18.251547973343392 9.3594082042933753 #
straight-curve $-1 46.855677968688013 -7.3199684469569686 1.9528295343363702 0 1 0 I I #
point $-1 46.85567796868802 -18.251547973343392 1.9528295343363666 #
point $-1 37.376549396563405 -14.639936893913937 -0.32822588909664674 #
straight-curve $-1 46.855677968688013 6.205738888919182 66.233652057695977 0 0 -1 I I #
point $-1 46.855677968688013 6.205738888919182 9.3594082042933753 #
straight-curve $-1 46.855677968688013 4.9086749841743185 1.9528295343363702 0 1 0 I I #
point $-1 46.85567796868802 6.205738888919182 1.9528295343363666 #
point $-1 37.376549396563405 9.8173499683486369 -0.32822588909664674 #
End-of-ACIS-data 