500 0 9 0           
7 Unknown 11 ACIS 5.0 NT 24 Thu Mar 25 22:32:55 1999 
-1 9.9999999999999995e-007 1e-010 
body $-1 $9 $-1 $10 #
body $-1 $11 $-1 $12 #
body $-1 $13 $-1 $14 #
body $-1 $15 $-1 $16 #
body $-1 $17 $-1 $18 #
body $-1 $19 $-1 $20 #
body $-1 $21 $-1 $22 #
body $-1 $23 $-1 $24 #
body $-1 $25 $-1 $26 #
lump $-1 $-1 $27 $0 #
transform $-1 1 0 0 0 1 0 0 0 1 64.536881618701742 37.284737198848582 14.765174668598867 1 rotate no_reflect no_shear #
lump $-1 $-1 $28 $1 #
transform $-1 1 0 0 0 1 0 0 0 1 64.536881618701742 37.284737198848582 14.765174668598867 1 rotate no_reflect no_shear #
lump $-1 $-1 $29 $2 #
transform $-1 1 0 0 0 1 0 0 0 1 64.536881618701742 37.284737198848582 14.765174668598867 1 rotate no_reflect no_shear #
lump $-1 $-1 $30 $3 #
transform $-1 1 0 0 0 1 0 0 0 1 64.536881618701742 37.284737198848582 14.765174668598867 1 rotate no_reflect no_shear #
lump $-1 $-1 $31 $4 #
transform $-1 1 0 0 0 1 0 0 0 1 64.536881618701742 37.284737198848582 14.765174668598867 1 rotate no_reflect no_shear #
lump $-1 $-1 $32 $5 #
transform $-1 1 0 0 0 1 0 0 0 1 64.536881618701742 37.284737198848582 14.765174668598867 1 rotate no_reflect no_shear #
lump $-1 $-1 $33 $6 #
transform $-1 1 0 0 0 1 0 0 0 1 64.536881618701742 37.284737198848582 14.765174668598867 1 rotate no_reflect no_shear #
lump $-1 $-1 $34 $7 #
transform $-1 1 0 0 0 1 0 0 0 1 64.536881618701742 37.284737198848582 14.765174668598867 1 rotate no_reflect no_shear #
lump $-1 $-1 $35 $8 #
transform $-1 1 0 0 0 1 0 0 0 1 64.536881618701742 37.284737198848582 14.765174668598867 1 rotate no_reflect no_shear #
shell $-1 $-1 $-1 $36 $-1 $9 #
shell $-1 $-1 $-1 $37 $-1 $11 #
shell $-1 $-1 $-1 $38 $-1 $13 #
shell $-1 $-1 $-1 $39 $-1 $15 #
shell $-1 $-1 $-1 $40 $-1 $17 #
shell $-1 $-1 $-1 $41 $-1 $19 #
shell $-1 $-1 $-1 $42 $-1 $21 #
shell $-1 $-1 $-1 $43 $-1 $23 #
shell $-1 $-1 $-1 $44 $-1 $25 #
face $-1 $45 $46 $27 $-1 $47 forward single #
face $-1 $48 $49 $28 $-1 $50 reversed single #
face $-1 $51 $52 $29 $-1 $53 reversed single #
face $-1 $54 $55 $30 $-1 $56 reversed single #
face $-1 $57 $58 $31 $-1 $59 forward single #
face $-1 $60 $61 $32 $-1 $62 forward single #
face $-1 $63 $64 $33 $-1 $65 reversed single #
face $-1 $66 $67 $34 $-1 $68 forward single #
face $-1 $69 $70 $35 $-1 $71 forward single #
face $-1 $72 $73 $27 $-1 $74 reversed single #
loop $-1 $-1 $75 $36 #
plane-surface $-1 0 0 14.765174668598867 0 0 1 1 0 0 forward_v I I I I #
face $-1 $76 $77 $28 $-1 $78 reversed single #
loop $-1 $-1 $79 $37 #
plane-surface $-1 -60.625712254065441 -20.772011485104699 0 0 -1 0 0 0 -1 forward_v I I I I #
face $-1 $80 $81 $29 $-1 $82 reversed single #
loop $-1 $-1 $83 $38 #
plane-surface $-1 -60.625712254065441 20.772011485104695 0 0 1 0 0 0 1 forward_v I I I I #
face $-1 $84 $85 $30 $-1 $86 reversed single #
loop $-1 $-1 $87 $39 #
plane-surface $-1 -64.536881618701727 16.898895688623803 1.7399834114819726 -0.73135370988377701 0 0.68199835119979291 0.68199835119979291 0 0.73135370988377701 forward_v I I I I #
face $-1 $88 $89 $31 $-1 $90 forward single #
loop $-1 $91 $92 $40 #
cone-surface $-1 -58.098111237764513 15.23898891870342 7.9115798644405277 0.73135370988377701 0 -0.68199835119979291 0.34099917559989645 0 0.36567685494188851 1 I I 0 1 0.5 forward I I I I #
face $-1 $93 $94 $32 $-1 $95 forward single #
loop $-1 $96 $97 $41 #
cone-surface $-1 -58.098111237764513 18.558802458544186 7.9115798644405277 0.73135370988377701 0 -0.68199835119979291 0.34099917559989645 0 0.36567685494188851 1 I I 0 1 0.5 forward I I I I #
face $-1 $98 $99 $33 $-1 $100 reversed single #
loop $-1 $-1 $101 $42 #
plane-surface $-1 70.907363499975403 20.772011485104699 184.16665271487889 0 -1 0 -0.73135370988377701 0 -0.68199835119979291 forward_v I I I I #
face $-1 $102 $103 $34 $-1 $104 forward single #
loop $-1 $105 $106 $43 #
cone-surface $-1 58.098111237764513 15.23898891870342 7.9115798644405064 -0.73135370988377701 0 -0.68199835119979291 0.34099917559989645 0 -0.36567685494188851 1 I I 0 1 0.5 forward I I I I #
face $-1 $107 $108 $35 $-1 $109 forward single #
loop $-1 $110 $111 $44 #
cone-surface $-1 58.098111237764513 18.558802458544186 7.9115798644405064 -0.73135370988377701 0 -0.68199835119979291 0.34099917559989645 0 -0.36567685494188851 1 I I 0 1 0.5 forward I I I I #
face $-1 $112 $113 $27 $-1 $114 reversed single #
loop $-1 $-1 $115 $45 #
plane-surface $-1 0 0 -14.765174668598867 0 0 1 1 0 0 forward_v I I I I #
coedge $-1 $116 $117 $118 $119 forward $46 $-1 #
face $-1 $120 $121 $28 $-1 $122 forward single #
loop $-1 $-1 $123 $48 #
plane-surface $-1 -56.71454288942914 -29.02837434197664 0 -1 0 0 0 0 1 forward_v I I I I #
coedge $-1 $124 $125 $126 $127 forward $49 $-1 #
face $-1 $128 $129 $29 $-1 $130 reversed single #
loop $-1 $-1 $131 $51 #
plane-surface $-1 -56.71454288942914 29.028374341976637 0 -1 0 0 0 0 1 forward_v I I I I #
coedge $-1 $132 $133 $134 $135 reversed $52 $-1 #
face $-1 $136 $137 $30 $-1 $138 forward single #
loop $-1 $-1 $139 $54 #
plane-surface $-1 -158.93545721103703 13.025779892142907 89.768077122543588 0 1 0 -0.73135370988377701 0 0.68199835119979291 forward_v I I I I #
coedge $-1 $140 $141 $142 $143 reversed $55 $-1 #
face $-1 $-1 $144 $31 $-1 $145 forward single #
loop $-1 $146 $147 $57 #
cone-surface $-1 -57.549595955351684 15.23898891870342 7.4000811010406835 0.73135370988377701 0 -0.68199835119979291 0.17049958779994823 0 0.18283842747094425 1 I I -0.70710678118654746 0.70710678118654746 0.25 forward I I I I #
loop $-1 $-1 $148 $40 #
coedge $-1 $92 $92 $149 $150 reversed $58 $-1 #
face $-1 $-1 $151 $32 $-1 $152 forward single #
loop $-1 $153 $154 $60 #
cone-surface $-1 -57.549595955351684 18.558802458544186 7.4000811010406835 0.73135370988377701 0 -0.68199835119979291 0.17049958779994823 0 0.18283842747094425 1 I I -0.70710678118654746 0.70710678118654746 0.25 forward I I I I #
loop $-1 $-1 $155 $41 #
coedge $-1 $97 $97 $156 $157 reversed $61 $-1 #
face $-1 $158 $159 $33 $-1 $160 reversed single #
loop $-1 $-1 $161 $63 #
plane-surface $-1 -23.491212092359902 16.898895688623803 96.138559003817278 0.73135370988377701 0 0.68199835119979291 0.68199835119979291 0 -0.73135370988377701 forward_v I I I I #
coedge $-1 $162 $163 $164 $165 reversed $64 $-1 #
face $-1 $-1 $166 $34 $-1 $167 forward single #
loop $-1 $168 $169 $66 #
cone-surface $-1 57.549595955351677 15.23898891870342 7.4000811010406622 -0.73135370988377701 0 -0.68199835119979291 0.17049958779994823 0 -0.18283842747094425 1 I I -0.70710678118654746 0.70710678118654746 0.25 forward I I I I #
loop $-1 $-1 $170 $43 #
coedge $-1 $106 $106 $171 $172 reversed $67 $-1 #
face $-1 $-1 $173 $35 $-1 $174 forward single #
loop $-1 $175 $176 $69 #
cone-surface $-1 57.549595955351677 18.558802458544186 7.4000811010406622 -0.73135370988377701 0 -0.68199835119979291 0.17049958779994823 0 -0.18283842747094425 1 I I -0.70710678118654746 0.70710678118654746 0.25 forward I I I I #
loop $-1 $-1 $177 $44 #
coedge $-1 $111 $111 $178 $179 reversed $70 $-1 #
face $-1 $180 $181 $27 $-1 $182 reversed single #
loop $-1 $-1 $183 $72 #
plane-surface $-1 0 -37.284737198848582 0 0 1 0 0 0 1 forward_v I I I I #
coedge $-1 $184 $185 $186 $187 forward $73 $-1 #
coedge $-1 $188 $75 $189 $190 forward $46 $-1 #
coedge $-1 $75 $188 $191 $192 forward $46 $-1 #
coedge $-1 $193 $194 $75 $119 reversed $195 $-1 #
edge $-1 $196 -37.284737198848582 $197 37.284737198848582 $118 $198 forward 7 unknown #
face $-1 $199 $200 $28 $-1 $201 reversed single #
loop $-1 $-1 $202 $76 #
plane-surface $-1 0 0 14.765174668598867 0 0 1 1 0 0 forward_v I I I I #
coedge $-1 $203 $204 $205 $206 reversed $77 $-1 #
coedge $-1 $207 $79 $208 $209 reversed $49 $-1 #
coedge $-1 $79 $207 $210 $211 reversed $49 $-1 #
coedge $-1 $204 $203 $79 $127 reversed $77 $-1 #
edge $-1 $212 -14.765174668598867 $213 14.765174668598867 $126 $214 forward 7 unknown #
face $-1 $215 $216 $29 $-1 $217 reversed single #
loop $-1 $-1 $218 $80 #
plane-surface $-1 0 0 -14.765174668598867 0 0 1 1 0 0 forward_v I I I I #
coedge $-1 $219 $220 $221 $222 forward $81 $-1 #
coedge $-1 $221 $83 $223 $224 reversed $52 $-1 #
coedge $-1 $83 $221 $225 $226 reversed $52 $-1 #
coedge $-1 $227 $228 $83 $135 forward $216 $-1 #
edge $-1 $229 -14.765174668598867 $230 14.765174668598867 $134 $231 forward 7 unknown #
face $-1 $232 $233 $30 $-1 $234 forward single #
loop $-1 $-1 $235 $84 #
plane-surface $-1 0 0 14.765174668598867 0 0 1 1 0 0 forward_v I I I I #
coedge $-1 $236 $237 $238 $239 reversed $85 $-1 #
coedge $-1 $240 $87 $241 $242 reversed $55 $-1 #
coedge $-1 $87 $240 $236 $243 forward $55 $-1 #
coedge $-1 $238 $244 $87 $143 forward $245 $-1 #
edge $-1 $246 -12.322563640792794 $247 -4.5763320478310057 $142 $248 forward 7 unknown #
loop $-1 $-1 $149 $88 #
plane-surface $-1 -64.536881618701727 16.898895688623803 1.7399834114819726 -0.73135370988377701 0 0.68199835119979291 0.68199835119979291 0 0.73135370988377701 forward_v I I I I #
loop $-1 $-1 $249 $57 #
coedge $-1 $147 $147 $148 $250 reversed $89 $-1 #
coedge $-1 $148 $148 $147 $250 forward $91 $-1 #
coedge $-1 $149 $149 $92 $150 forward $144 $-1 #
edge $-1 $251 0 $251 6.2831853071796004 $149 $252 forward 7 unknown #
loop $-1 $-1 $156 $93 #
plane-surface $-1 -64.536881618701727 16.898895688623803 1.7399834114819726 -0.73135370988377701 0 0.68199835119979291 0.68199835119979291 0 0.73135370988377701 forward_v I I I I #
loop $-1 $-1 $253 $60 #
coedge $-1 $154 $154 $155 $254 reversed $94 $-1 #
coedge $-1 $155 $155 $154 $254 forward $96 $-1 #
coedge $-1 $156 $156 $97 $157 forward $151 $-1 #
edge $-1 $255 0 $255 6.2831853071796004 $156 $256 forward 7 unknown #
face $-1 $257 $258 $33 $-1 $259 reversed single #
loop $-1 $-1 $260 $98 #
plane-surface $-1 70.907363499975403 13.025779892142907 184.16665271487889 0 1 0 0.73135370988377701 0 0.68199835119979291 forward_v I I I I #
coedge $-1 $261 $262 $263 $264 reversed $99 $-1 #
coedge $-1 $163 $101 $265 $266 reversed $64 $-1 #
coedge $-1 $101 $162 $261 $267 reversed $64 $-1 #
coedge $-1 $263 $268 $101 $165 forward $269 $-1 #
edge $-1 $270 -29.08319986871404 $271 -16.937012816723346 $164 $272 forward 7 unknown #
loop $-1 $-1 $171 $102 #
plane-surface $-1 -23.491212092359902 16.898895688623803 96.138559003817278 0.73135370988377701 0 0.68199835119979291 0.68199835119979291 0 -0.73135370988377701 forward_v I I I I #
loop $-1 $-1 $273 $66 #
coedge $-1 $169 $169 $170 $274 reversed $103 $-1 #
coedge $-1 $170 $170 $169 $274 forward $105 $-1 #
coedge $-1 $171 $171 $106 $172 forward $166 $-1 #
edge $-1 $275 0 $275 6.2831853071796004 $171 $276 forward 7 unknown #
loop $-1 $-1 $178 $107 #
plane-surface $-1 -23.491212092359902 16.898895688623803 96.138559003817278 0.73135370988377701 0 0.68199835119979291 0.68199835119979291 0 -0.73135370988377701 forward_v I I I I #
loop $-1 $-1 $277 $69 #
coedge $-1 $176 $176 $177 $278 reversed $108 $-1 #
coedge $-1 $177 $177 $176 $278 forward $110 $-1 #
coedge $-1 $178 $178 $111 $179 forward $173 $-1 #
edge $-1 $279 0 $279 6.2831853071796004 $178 $280 forward 7 unknown #
face $-1 $281 $282 $27 $-1 $283 reversed single #
loop $-1 $-1 $284 $112 #
plane-surface $-1 -64.536881618701742 0 0 1 0 0 0 0 -1 forward_v I I I I #
coedge $-1 $285 $191 $286 $287 forward $113 $-1 #
coedge $-1 $288 $115 $285 $289 forward $73 $-1 #
coedge $-1 $115 $288 $290 $291 forward $73 $-1 #
coedge $-1 $194 $193 $115 $187 reversed $195 $-1 #
edge $-1 $292 -37.284737198848582 $293 37.284737198848582 $186 $294 forward 7 unknown #
coedge $-1 $117 $116 $295 $296 forward $46 $-1 #
coedge $-1 $297 $298 $116 $190 reversed $282 $-1 #
edge $-1 $197 -64.536881618701742 $299 64.536881618701742 $189 $300 forward 7 unknown #
coedge $-1 $183 $301 $117 $192 reversed $113 $-1 #
edge $-1 $302 -64.536881618701742 $196 64.536881618701742 $191 $303 forward 7 unknown #
coedge $-1 $186 $118 $301 $304 forward $195 $-1 #
coedge $-1 $118 $186 $297 $305 reversed $195 $-1 #
loop $-1 $-1 $193 $281 #
vertex $-1 $119 $306 #
vertex $-1 $119 $307 #
straight-curve $-1 64.536881618701742 0 14.765174668598867 0 1 0 I I #
face $-1 $308 $309 $28 $-1 $310 reversed single #
loop $-1 $-1 $311 $120 #
plane-surface $-1 -64.536881618701742 0 0 1 0 0 0 0 -1 forward_v I I I I #
coedge $-1 $210 $312 $204 $313 forward $121 $-1 #
coedge $-1 $126 $123 $314 $315 reversed $77 $-1 #
coedge $-1 $123 $126 $202 $313 reversed $77 $-1 #
coedge $-1 $316 $317 $123 $206 forward $318 $-1 #
edge $-1 $319 -14.765174668598867 $320 14.765174668598867 $205 $321 forward 7 unknown #
coedge $-1 $125 $124 $311 $322 reversed $49 $-1 #
coedge $-1 $314 $323 $124 $209 forward $309 $-1 #
edge $-1 $324 -34.224025491669025 $213 -26.40168676239642 $208 $325 forward 7 unknown #
coedge $-1 $326 $202 $125 $211 forward $121 $-1 #
edge $-1 $212 26.40168676239642 $327 34.224025491669025 $210 $328 forward 7 unknown #
vertex $-1 $211 $329 #
vertex $-1 $209 $330 #
straight-curve $-1 -56.71454288942914 -20.772011485104699 0 0 0 -1 I I #
face $-1 $331 $332 $29 $-1 $333 forward single #
loop $-1 $-1 $134 $128 #
plane-surface $-1 -64.536881618701742 0 0 1 0 0 0 0 -1 forward_v I I I I #
coedge $-1 $223 $334 $219 $335 forward $129 $-1 #
coedge $-1 $336 $131 $218 $335 reversed $81 $-1 #
coedge $-1 $131 $336 $337 $338 reversed $81 $-1 #
coedge $-1 $133 $132 $131 $222 reversed $52 $-1 #
edge $-1 $339 -14.765174668598867 $340 14.765174668598867 $131 $341 forward 7 unknown #
coedge $-1 $342 $218 $132 $224 forward $129 $-1 #
edge $-1 $340 26.40168676239642 $229 34.224025491669025 $223 $343 forward 7 unknown #
coedge $-1 $337 $344 $133 $226 forward $332 $-1 #
edge $-1 $230 -34.224025491669025 $339 -26.40168676239642 $225 $345 forward 7 unknown #
coedge $-1 $346 $134 $344 $347 reversed $216 $-1 #
coedge $-1 $134 $346 $342 $348 reversed $216 $-1 #
vertex $-1 $348 $349 #
vertex $-1 $135 $350 #
straight-curve $-1 -64.536881618701742 20.772011485104695 0 0 0 1 I I #
face $-1 $-1 $245 $30 $-1 $351 reversed single #
loop $-1 $-1 $241 $136 #
plane-surface $-1 -60.625712254065441 20.772011485104695 0 0 1 0 0 0 1 forward_v I I I I #
coedge $-1 $352 $353 $237 $354 forward $137 $-1 #
coedge $-1 $237 $139 $141 $243 reversed $85 $-1 #
coedge $-1 $139 $236 $235 $354 reversed $85 $-1 #
coedge $-1 $355 $142 $139 $239 forward $245 $-1 #
edge $-1 $247 -43.144055149789835 $356 -30.118863892672927 $238 $357 forward 7 unknown #
coedge $-1 $141 $140 $352 $358 reversed $55 $-1 #
coedge $-1 $359 $360 $140 $242 forward $233 $-1 #
edge $-1 $361 -17.11226762324933 $246 0.69743386741078417 $241 $362 forward 7 unknown #
edge $-1 $363 -17.809701490660096 $247 2.0896906529347916e-014 $236 $364 forward 7 unknown #
coedge $-1 $142 $355 $359 $365 forward $245 $-1 #
loop $-1 $-1 $238 $232 #
vertex $-1 $242 $366 #
vertex $-1 $143 $367 #
straight-curve $-1 -64.536881618701742 8.4494478443119014 1.7399834114819563 0 -1 0 I I #
coedge $-1 $249 $249 $-1 $368 reversed $146 $-1 #
edge $-1 $369 0 $369 6.2831853071796004 $147 $370 forward 7 unknown #
vertex $-1 $150 $371 #
ellipse-curve $-1 -58.463788092706395 15.23898891870342 8.2525790400404144 -0.73135370988377701 0 0.68199835119979291 0.34099917559989645 0 0.36567685494188851 1 I I #
coedge $-1 $253 $253 $-1 $372 reversed $153 $-1 #
edge $-1 $373 0 $373 6.2831853071796004 $154 $374 forward 7 unknown #
vertex $-1 $157 $375 #
ellipse-curve $-1 -58.463788092706395 18.558802458544186 8.2525790400404144 -0.73135370988377701 0 0.68199835119979291 0.34099917559989645 0 0.36567685494188851 1 I I #
face $-1 $-1 $269 $33 $-1 $376 forward single #
loop $-1 $-1 $377 $158 #
plane-surface $-1 64.536881618701742 0 0 -1 0 0 0 0 1 forward_v I I I I #
coedge $-1 $378 $379 $380 $381 reversed $159 $-1 #
coedge $-1 $382 $161 $163 $267 forward $99 $-1 #
coedge $-1 $161 $382 $378 $383 forward $99 $-1 #
coedge $-1 $380 $164 $161 $264 forward $269 $-1 #
edge $-1 $271 -12.322563640792797 $384 -4.5763320478310057 $263 $385 forward 7 unknown #
coedge $-1 $386 $387 $162 $266 forward $258 $-1 #
edge $-1 $388 -90.343342945957502 $270 -77.318151688840572 $265 $389 forward 7 unknown #
edge $-1 $271 111.26406174674338 $388 129.07376323740351 $163 $390 forward 7 unknown #
coedge $-1 $164 $380 $386 $391 forward $269 $-1 #
loop $-1 $-1 $380 $257 #
vertex $-1 $266 $392 #
vertex $-1 $165 $393 #
straight-curve $-1 35.453681749987702 20.772011485104699 14.76517466859886 -1 0 0 I I #
coedge $-1 $273 $273 $-1 $394 reversed $168 $-1 #
edge $-1 $395 0 $395 6.2831853071796004 $169 $396 forward 7 unknown #
vertex $-1 $172 $397 #
ellipse-curve $-1 58.463788092706395 15.23898891870342 8.2525790400403931 0.73135370988377701 0 0.68199835119979291 0.34099917559989645 0 -0.36567685494188851 1 I I #
coedge $-1 $277 $277 $-1 $398 reversed $175 $-1 #
edge $-1 $399 0 $399 6.2831853071796004 $176 $400 forward 7 unknown #
vertex $-1 $179 $401 #
ellipse-curve $-1 58.463788092706395 18.558802458544186 8.2525790400403931 0.73135370988377701 0 0.68199835119979291 0.34099917559989645 0 -0.36567685494188851 1 I I #
face $-1 $-1 $195 $27 $-1 $402 reversed single #
loop $-1 $-1 $297 $180 #
plane-surface $-1 0 37.284737198848582 0 0 -1 0 0 0 -1 forward_v I I I I #
coedge $-1 $403 $295 $298 $404 forward $181 $-1 #
coedge $-1 $301 $183 $184 $289 reversed $113 $-1 #
coedge $-1 $295 $403 $183 $287 reversed $181 $-1 #
edge $-1 $302 -14.765174668598867 $405 14.765174668598867 $286 $406 forward 7 unknown #
coedge $-1 $185 $184 $403 $407 forward $73 $-1 #
edge $-1 $293 -64.536881618701742 $405 64.536881618701742 $285 $408 forward 7 unknown #
coedge $-1 $298 $297 $185 $291 reversed $282 $-1 #
edge $-1 $409 -64.536881618701742 $292 64.536881618701742 $290 $410 forward 7 unknown #
vertex $-1 $187 $411 #
vertex $-1 $304 $412 #
straight-curve $-1 64.536881618701742 0 -14.765174668598867 0 -1 0 I I #
coedge $-1 $284 $286 $188 $296 reversed $181 $-1 #
edge $-1 $299 -37.284737198848582 $302 37.284737198848582 $295 $413 forward 7 unknown #
coedge $-1 $290 $189 $194 $305 forward $282 $-1 #
coedge $-1 $189 $290 $284 $404 reversed $282 $-1 #
vertex $-1 $190 $414 #
straight-curve $-1 0 37.284737198848582 14.765174668598867 -1 0 0 I I #
coedge $-1 $191 $285 $193 $304 reversed $113 $-1 #
vertex $-1 $296 $415 #
straight-curve $-1 0 -37.284737198848582 14.765174668598867 1 0 0 I I #
edge $-1 $196 -14.765174668598867 $293 14.765174668598867 $193 $416 forward 7 unknown #
edge $-1 $197 -14.765174668598867 $292 14.765174668598867 $194 $417 forward 7 unknown #
point $-1 64.536881618701742 -37.284737198848582 14.765174668598867 #
point $-1 64.536881618701742 37.284737198848582 14.765174668598867 #
face $-1 $-1 $318 $28 $-1 $418 reversed single #
loop $-1 $-1 $314 $199 #
plane-surface $-1 0 0 -14.765174668598867 0 0 1 1 0 0 forward_v I I I I #
coedge $-1 $419 $420 $207 $322 forward $200 $-1 #
coedge $-1 $202 $326 $316 $421 forward $121 $-1 #
edge $-1 $320 -22.77055002786026 $212 -6.2578243141163785 $202 $422 forward 7 unknown #
coedge $-1 $423 $208 $203 $315 forward $309 $-1 #
edge $-1 $213 6.2578243141163785 $319 22.77055002786026 $314 $424 forward 7 unknown #
coedge $-1 $425 $205 $312 $421 reversed $318 $-1 #
coedge $-1 $205 $425 $423 $426 reversed $318 $-1 #
loop $-1 $-1 $205 $308 #
vertex $-1 $426 $427 #
vertex $-1 $206 $428 #
straight-curve $-1 -56.71454288942914 -37.284737198848582 0 0 0 1 I I #
edge $-1 $327 -14.765174668598867 $324 14.765174668598867 $311 $429 forward 7 unknown #
coedge $-1 $208 $423 $419 $430 forward $309 $-1 #
vertex $-1 $209 $431 #
straight-curve $-1 -30.31285612703272 -20.772011485104699 -14.765174668598867 1 0 0 I I #
coedge $-1 $312 $210 $420 $432 forward $121 $-1 #
vertex $-1 $432 $433 #
straight-curve $-1 -30.31285612703272 -20.772011485104699 14.765174668598867 -1 0 0 I I #
point $-1 -56.71454288942914 -20.772011485104699 14.765174668598867 #
point $-1 -56.71454288942914 -20.772011485104699 -14.765174668598867 #
face $-1 $-1 $434 $29 $-1 $435 reversed single #
loop $-1 $-1 $337 $215 #
plane-surface $-1 0 0 14.765174668598867 0 0 1 1 0 0 forward_v I I I I #
coedge $-1 $218 $342 $436 $437 forward $129 $-1 #
edge $-1 $438 -22.770550027860256 $340 -6.2578243141163767 $218 $439 forward 7 unknown #
coedge $-1 $220 $219 $440 $441 reversed $81 $-1 #
coedge $-1 $442 $225 $220 $338 forward $332 $-1 #
edge $-1 $339 6.2578243141163767 $443 22.770550027860256 $337 $444 forward 7 unknown #
vertex $-1 $226 $445 #
vertex $-1 $224 $446 #
straight-curve $-1 -56.71454288942914 20.772011485104695 0 0 0 -1 I I #
coedge $-1 $334 $223 $228 $348 forward $129 $-1 #
straight-curve $-1 -30.31285612703272 20.772011485104695 -14.765174668598867 -1 0 0 I I #
coedge $-1 $225 $442 $227 $347 forward $332 $-1 #
straight-curve $-1 -30.31285612703272 20.772011485104695 14.765174668598867 1 0 0 I I #
coedge $-1 $228 $227 $447 $448 forward $216 $-1 #
edge $-1 $449 -37.284737198848582 $230 -20.772011485104695 $227 $450 forward 7 unknown #
edge $-1 $229 20.772011485104695 $451 37.284737198848582 $228 $452 forward 7 unknown #
point $-1 -64.536881618701742 20.772011485104695 -14.765174668598867 #
point $-1 -64.536881618701742 20.772011485104695 14.765174668598867 #
plane-surface $-1 -64.536881618701742 0 0 1 0 0 0 0 -1 forward_v I I I I #
coedge $-1 $453 $235 $240 $358 forward $137 $-1 #
coedge $-1 $235 $453 $355 $454 forward $137 $-1 #
edge $-1 $356 14.930846986816775 $363 27.077034038807469 $235 $455 forward 7 unknown #
coedge $-1 $244 $238 $353 $454 reversed $245 $-1 #
vertex $-1 $239 $456 #
straight-curve $-1 -64.536881618701742 13.025779892142907 44.884038561271794 0 0 1 I I #
edge $-1 $363 4.5763320478310057 $361 12.322563640792797 $352 $457 forward 7 unknown #
coedge $-1 $360 $241 $244 $365 reversed $233 $-1 #
coedge $-1 $241 $359 $453 $458 reversed $233 $-1 #
vertex $-1 $458 $459 #
straight-curve $-1 -64.061232871056689 20.772011485104695 2.2500542578114215 -0.68199835119979291 0 -0.73135370988377701 I I #
vertex $-1 $358 $460 #
straight-curve $-1 -64.536881618701727 13.025779892142907 1.7399834114819726 -0.68199835119979291 0 -0.73135370988377701 I I #
edge $-1 $461 -14.765174668598867 $246 -1.7399834114819572 $244 $462 forward 7 unknown #
point $-1 -64.536881618701742 20.772011485104695 1.7399834114819572 #
point $-1 -64.536881618701742 13.025779892142907 1.7399834114819572 #
edge $-1 $463 1 $463 0 $249 $-1 forward 7 unknown #
vertex $-1 $250 $464 #
ellipse-curve $-1 -57.732434382822632 15.23898891870342 7.5705806888406322 -0.73135370988377701 0 0.68199835119979291 0.34099917559989645 0 0.36567685494188851 1 I I #
point $-1 -58.122788917106512 15.23898891870342 8.6182558949823136 #
edge $-1 $465 1 $465 0 $253 $-1 forward 7 unknown #
vertex $-1 $254 $466 #
ellipse-curve $-1 -57.732434382822632 18.558802458544186 7.5705806888406322 -0.73135370988377701 0 0.68199835119979291 0.34099917559989645 0 0.36567685494188851 1 I I #
point $-1 -58.122788917106512 18.558802458544186 8.6182558949823136 #
plane-surface $-1 0 0 14.765174668598867 0 0 1 1 0 0 forward_v I I I I #
coedge $-1 $387 $386 $379 $467 forward $258 $-1 #
coedge $-1 $379 $260 $262 $383 reversed $159 $-1 #
coedge $-1 $260 $378 $377 $467 reversed $159 $-1 #
coedge $-1 $268 $263 $260 $381 forward $269 $-1 #
edge $-1 $384 16.937012816723346 $468 29.08319986871404 $380 $469 forward 7 unknown #
coedge $-1 $262 $261 $387 $470 reversed $99 $-1 #
edge $-1 $471 -129.07376323740351 $384 -111.26406174674338 $378 $472 forward 7 unknown #
vertex $-1 $264 $473 #
straight-curve $-1 52.390694566711041 8.4494478443119014 14.76517466859886 0 -1 0 I I #
coedge $-1 $377 $265 $268 $391 reversed $258 $-1 #
coedge $-1 $265 $377 $382 $470 forward $258 $-1 #
vertex $-1 $266 $474 #
straight-curve $-1 64.536881618701742 20.772011485104699 92.083326357439446 0 0 1 I I #
straight-curve $-1 -23.491212092359902 20.772011485104699 96.138559003817278 0.68199835119979291 0 -0.73135370988377701 I I #
edge $-1 $468 13.025779892142907 $270 20.772011485104699 $386 $475 forward 7 unknown #
point $-1 64.536881618701742 20.772011485104699 14.765174668598867 #
point $-1 52.390694566711048 20.772011485104699 14.76517466859886 #
edge $-1 $476 1 $476 0 $273 $-1 forward 7 unknown #
vertex $-1 $274 $477 #
ellipse-curve $-1 57.732434382822618 15.23898891870342 7.5705806888406109 0.73135370988377701 0 0.68199835119979291 0.34099917559989645 0 -0.36567685494188851 1 I I #
point $-1 58.804787268306292 15.23898891870342 7.8869021850985153 #
edge $-1 $478 1 $478 0 $277 $-1 forward 7 unknown #
vertex $-1 $278 $479 #
ellipse-curve $-1 57.732434382822618 18.558802458544186 7.5705806888406109 0.73135370988377701 0 0.68199835119979291 0.34099917559989645 0 -0.36567685494188851 1 I I #
point $-1 58.804787268306292 18.558802458544186 7.8869021850985153 #
plane-surface $-1 64.536881618701742 0 0 -1 0 0 0 0 1 forward_v I I I I #
coedge $-1 $286 $284 $288 $407 reversed $181 $-1 #
edge $-1 $299 -14.765174668598867 $409 14.765174668598867 $298 $480 forward 7 unknown #
vertex $-1 $407 $481 #
straight-curve $-1 -64.536881618701742 -37.284737198848582 0 0 0 -1 I I #
edge $-1 $405 -37.284737198848582 $409 37.284737198848582 $403 $482 forward 7 unknown #
straight-curve $-1 0 -37.284737198848582 -14.765174668598867 -1 0 0 I I #
vertex $-1 $291 $483 #
straight-curve $-1 0 37.284737198848582 -14.765174668598867 1 0 0 I I #
point $-1 64.536881618701742 37.284737198848582 -14.765174668598867 #
point $-1 64.536881618701742 -37.284737198848582 -14.765174668598867 #
straight-curve $-1 -64.536881618701742 0 14.765174668598867 0 -1 0 I I #
point $-1 -64.536881618701742 37.284737198848582 14.765174668598867 #
point $-1 -64.536881618701742 -37.284737198848582 14.765174668598867 #
straight-curve $-1 64.536881618701742 -37.284737198848582 0 0 0 -1 I I #
straight-curve $-1 64.536881618701742 37.284737198848582 0 0 0 -1 I I #
plane-surface $-1 0 -37.284737198848582 0 0 1 0 0 0 1 forward_v I I I I #
coedge $-1 $484 $311 $323 $430 reversed $200 $-1 #
coedge $-1 $311 $484 $326 $432 reversed $200 $-1 #
edge $-1 $485 -64.536881618701742 $320 -56.71454288942914 $316 $486 forward 7 unknown #
straight-curve $-1 -56.71454288942914 -14.51418717098832 14.765174668598867 0 1 0 I I #
coedge $-1 $323 $314 $317 $426 forward $309 $-1 #
straight-curve $-1 -56.71454288942914 -14.51418717098832 -14.765174668598867 0 -1 0 I I #
coedge $-1 $317 $316 $484 $487 forward $318 $-1 #
edge $-1 $319 56.71454288942914 $488 64.536881618701742 $317 $489 forward 7 unknown #
point $-1 -56.71454288942914 -37.284737198848582 -14.765174668598867 #
point $-1 -56.71454288942914 -37.284737198848582 14.765174668598867 #
straight-curve $-1 -64.536881618701742 -20.772011485104699 0 0 0 -1 I I #
edge $-1 $488 -37.284737198848582 $324 -20.772011485104699 $419 $490 forward 7 unknown #
point $-1 -64.536881618701742 -20.772011485104699 -14.765174668598867 #
edge $-1 $327 20.772011485104699 $485 37.284737198848582 $420 $491 forward 7 unknown #
point $-1 -64.536881618701742 -20.772011485104699 14.765174668598867 #
loop $-1 $-1 $440 $331 #
plane-surface $-1 0 37.284737198848582 0 0 -1 0 0 0 -1 forward_v I I I I #
coedge $-1 $447 $440 $334 $437 reversed $434 $-1 #
edge $-1 $451 -64.536881618701742 $438 -56.71454288942914 $436 $492 forward 7 unknown #
vertex $-1 $335 $493 #
straight-curve $-1 -56.71454288942914 14.514187170988318 -14.765174668598867 0 -1 0 I I #
coedge $-1 $436 $494 $336 $441 forward $434 $-1 #
edge $-1 $443 -14.765174668598867 $438 14.765174668598867 $440 $495 forward 7 unknown #
coedge $-1 $344 $337 $494 $496 forward $332 $-1 #
vertex $-1 $496 $497 #
straight-curve $-1 -56.71454288942914 14.514187170988318 14.765174668598867 0 1 0 I I #
point $-1 -56.71454288942914 20.772011485104695 14.765174668598867 #
point $-1 -56.71454288942914 20.772011485104695 -14.765174668598867 #
coedge $-1 $494 $436 $346 $448 reversed $434 $-1 #
edge $-1 $449 -14.765174668598867 $451 14.765174668598867 $447 $498 forward 7 unknown #
vertex $-1 $496 $499 #
straight-curve $-1 -64.536881618701742 0 14.765174668598867 0 -1 0 I I #
vertex $-1 $437 $500 #
straight-curve $-1 -64.536881618701742 0 -14.765174668598867 0 1 0 I I #
coedge $-1 $353 $352 $360 $458 forward $137 $-1 #
edge $-1 $461 -20.772011485104695 $356 -13.025779892142907 $355 $501 forward 7 unknown #
straight-curve $-1 -79.467728605518516 13.025779892142907 14.765174668598867 1 0 0 I I #
point $-1 -64.536881618701742 13.025779892142907 14.765174668598867 #
straight-curve $-1 -52.390694566711048 8.4494478443119014 14.765174668598867 0 1 0 I I #
edge $-1 $361 22.077838439678327 $461 34.224025491669025 $453 $502 forward 7 unknown #
point $-1 -52.390694566711048 20.772011485104699 14.765174668598867 #
point $-1 -52.390694566711048 13.025779892142907 14.765174668598867 #
vertex $-1 $454 $503 #
straight-curve $-1 -64.536881618701742 20.772011485104695 0 0 0 -1 I I #
vertex $-1 $368 $504 #
point $-1 -57.391435207222735 15.23898891870342 7.9362575437825207 #
vertex $-1 $372 $505 #
point $-1 -57.391435207222735 18.558802458544186 7.9362575437825207 #
edge $-1 $468 77.318151688840572 $471 90.343342945957502 $377 $506 forward 7 unknown #
vertex $-1 $391 $507 #
straight-curve $-1 35.453681749987702 13.025779892142907 14.76517466859886 1 0 0 I I #
edge $-1 $471 4.5763320478310057 $388 12.322563640792797 $387 $508 forward 7 unknown #
vertex $-1 $470 $509 #
straight-curve $-1 -23.491212092359902 13.025779892142907 96.138559003817278 -0.68199835119979291 0 0.73135370988377701 I I #
point $-1 52.390694566711048 13.025779892142907 14.76517466859886 #
point $-1 64.536881618701742 20.772011485104699 1.7399834114819441 #
straight-curve $-1 64.536881618701742 0 14.765174668598867 0 1 0 I I #
vertex $-1 $394 $510 #
point $-1 58.073433558422515 15.23898891870342 7.2049038338987224 #
vertex $-1 $398 $511 #
point $-1 58.073433558422515 18.558802458544186 7.2049038338987224 #
straight-curve $-1 -64.536881618701742 37.284737198848582 0 0 0 -1 I I #
point $-1 -64.536881618701742 -37.284737198848582 -14.765174668598867 #
straight-curve $-1 -64.536881618701742 0 -14.765174668598867 0 1 0 I I #
point $-1 -64.536881618701742 37.284737198848582 -14.765174668598867 #
coedge $-1 $420 $419 $425 $487 reversed $200 $-1 #
vertex $-1 $432 $512 #
straight-curve $-1 0 -37.284737198848582 14.765174668598867 1 0 0 I I #
edge $-1 $485 -14.765174668598867 $488 14.765174668598867 $484 $513 forward 7 unknown #
vertex $-1 $430 $514 #
straight-curve $-1 0 -37.284737198848582 -14.765174668598867 -1 0 0 I I #
straight-curve $-1 -64.536881618701742 0 -14.765174668598867 0 1 0 I I #
straight-curve $-1 -64.536881618701742 0 14.765174668598867 0 -1 0 I I #
straight-curve $-1 0 37.284737198848582 -14.765174668598867 1 0 0 I I #
point $-1 -56.71454288942914 37.284737198848575 -14.765174668598867 #
coedge $-1 $440 $447 $442 $496 reversed $434 $-1 #
straight-curve $-1 -56.71454288942914 37.284737198848582 0 0 0 -1 I I #
edge $-1 $443 56.71454288942914 $449 64.536881618701742 $494 $515 forward 7 unknown #
point $-1 -56.71454288942914 37.284737198848575 14.765174668598867 #
straight-curve $-1 -64.536881618701742 37.284737198848582 0 0 0 -1 I I #
point $-1 -64.536881618701742 37.284737198848582 14.765174668598867 #
point $-1 -64.536881618701742 37.284737198848582 -14.765174668598867 #
straight-curve $-1 -64.536881618701742 0 14.765174668598867 0 -1 0 I I #
straight-curve $-1 -30.31285612703272 20.772011485104695 14.765174668598867 -1 0 0 I I #
point $-1 -64.536881618701742 20.772011485104695 14.765174668598867 #
point $-1 -57.366757527880736 15.23898891870342 7.2295815132407348 #
point $-1 -57.366757527880736 18.558802458544186 7.2295815132407348 #
straight-curve $-1 64.536881618701742 13.025779892142907 92.083326357439446 0 0 -1 I I #
point $-1 64.536881618701742 13.025779892142907 14.765174668598867 #
straight-curve $-1 64.536881618701742 8.4494478443119014 1.739983411481937 0 1 0 I I #
point $-1 64.536881618701742 13.025779892142907 1.7399834114819441 #
point $-1 57.366757527880736 15.23898891870342 7.2295815132407135 #
point $-1 57.366757527880736 18.558802458544186 7.2295815132407135 #
point $-1 -64.536881618701742 -37.284737198848582 14.765174668598867 #
straight-curve $-1 -64.536881618701742 -37.284737198848582 0 0 0 -1 I I #
point $-1 -64.536881618701742 -37.284737198848582 -14.765174668598867 #
straight-curve $-1 0 37.284737198848582 14.765174668598867 -1 0 0 I I #
End-of-ACIS-data 