500 0 7 0           
7 Unknown 11 ACIS 5.0 NT 24 Thu Mar 25 20:03:25 1999 
-1 9.9999999999999995e-007 1e-010 
body $-1 $7 $-1 $8 #
body $-1 $9 $-1 $10 #
body $-1 $11 $-1 $12 #
body $-1 $13 $-1 $14 #
body $-1 $15 $-1 $16 #
body $-1 $17 $-1 $18 #
body $-1 $19 $-1 $20 #
lump $-1 $-1 $21 $0 #
transform $-1 1 0 0 0 1 0 0 0 1 67.793816949980169 33.67573598339937 8.0097419953069053 1 rotate no_reflect no_shear #
lump $-1 $-1 $22 $1 #
transform $-1 1 0 0 0 1 0 0 0 1 67.793816949980169 33.67573598339937 8.0097419953069053 1 rotate no_reflect no_shear #
lump $-1 $-1 $23 $2 #
transform $-1 1 0 0 0 1 0 0 0 1 67.793816949980169 33.67573598339937 8.0097419953069053 1 rotate no_reflect no_shear #
lump $-1 $-1 $24 $3 #
transform $-1 1 0 0 0 1 0 0 0 1 67.793816949980169 33.67573598339937 8.0097419953069053 1 rotate no_reflect no_shear #
lump $-1 $-1 $25 $4 #
transform $-1 1 0 0 0 1 0 0 0 1 67.793816949980169 33.67573598339937 8.0097419953069053 1 rotate no_reflect no_shear #
lump $-1 $-1 $26 $5 #
transform $-1 1 0 0 0 1 0 0 0 1 67.793816949980169 33.67573598339937 8.0097419953069053 1 rotate no_reflect no_shear #
lump $-1 $-1 $27 $6 #
transform $-1 1 0 0 0 1 0 0 0 1 67.793816949980169 33.67573598339937 8.0097419953069053 1 rotate no_reflect no_shear #
shell $-1 $-1 $-1 $28 $-1 $7 #
shell $-1 $-1 $-1 $29 $-1 $9 #
shell $-1 $-1 $-1 $30 $-1 $11 #
shell $-1 $-1 $-1 $31 $-1 $13 #
shell $-1 $-1 $-1 $32 $-1 $15 #
shell $-1 $-1 $-1 $33 $-1 $17 #
shell $-1 $-1 $-1 $34 $-1 $19 #
face $-1 $35 $36 $21 $-1 $37 forward single #
face $-1 $38 $39 $22 $-1 $40 reversed single #
face $-1 $41 $42 $23 $-1 $43 reversed single #
face $-1 $44 $45 $24 $-1 $46 forward single #
face $-1 $47 $48 $25 $-1 $49 forward single #
face $-1 $50 $51 $26 $-1 $52 reversed single #
face $-1 $53 $54 $27 $-1 $55 forward single #
face $-1 $56 $57 $21 $-1 $58 reversed single #
loop $-1 $-1 $59 $28 #
plane-surface $-1 0 0 8.0097419953069053 0 0 1 1 0 0 forward_v I I I I #
face $-1 $60 $61 $22 $-1 $62 reversed single #
loop $-1 $-1 $63 $29 #
plane-surface $-1 0 -29.545183390028058 5.0097419953069053 0 0 1 1 0 0 forward_v I I I I #
face $-1 $64 $65 $23 $-1 $66 reversed single #
loop $-1 $-1 $67 $30 #
plane-surface $-1 -153.12188079699206 26.854011546065998 105.67792541724522 0 1 0 -0.62932039886446345 0 0.77714595512881146 forward_v I I I I #
face $-1 $68 $69 $24 $-1 $70 forward single #
loop $-1 $71 $72 $31 #
cone-surface $-1 -62.722828300770857 28.803075671018391 3.7695701032915121 0.62932039886446345 0 -0.77714595512881146 0.38857297756440573 0 0.31466019943223172 1 I I 0 1 0.5 forward I I I I #
face $-1 $73 $74 $25 $-1 $75 forward single #
loop $-1 $76 $77 $32 #
cone-surface $-1 -62.722828300770857 31.726671858446984 3.7695701032915121 0.62932039886446345 0 -0.77714595512881146 0.38857297756440573 0 0.31466019943223172 1 I I 0 1 0.5 forward I I I I #
face $-1 $78 $79 $26 $-1 $80 reversed single #
loop $-1 $-1 $81 $33 #
plane-surface $-1 97.790108039385416 1.0972633638861371 193.53609575761908 0 -1 0 -0.80901700255871778 0 -0.5877852410284794 forward_v I I I I #
face $-1 $82 $83 $27 $-1 $84 forward single #
loop $-1 $85 $86 $34 #
cone-surface $-1 65.668800944655445 -6.1808215932848078 5.5539541363028944 -0.80901700255871778 0 -0.5877852410284794 0.5877852410284794 0 -0.80901700255871778 1 I I 0 1 1 forward I I I I #
face $-1 $87 $88 $21 $-1 $89 reversed single #
loop $-1 $-1 $90 $35 #
plane-surface $-1 0 0 -8.0097419953069053 0 0 1 1 0 0 forward_v I I I I #
coedge $-1 $91 $92 $93 $94 forward $36 $-1 #
face $-1 $95 $96 $22 $-1 $97 reversed single #
loop $-1 $-1 $98 $38 #
plane-surface $-1 0 -25.414630796656745 6.5097419953069053 0 -1 0 0 0 -1 forward_v I I I I #
coedge $-1 $99 $100 $101 $102 reversed $39 $-1 #
face $-1 $103 $104 $23 $-1 $105 forward single #
loop $-1 $-1 $106 $41 #
plane-surface $-1 -67.793816949980169 30.264873764732684 0.30654416640493309 -0.62932039886446345 0 0.77714595512881146 0.77714595512881146 0 0.62932039886446345 forward_v I I I I #
coedge $-1 $107 $108 $109 $110 reversed $42 $-1 #
face $-1 $-1 $111 $24 $-1 $112 forward single #
loop $-1 $113 $114 $44 #
cone-surface $-1 -62.250838001622512 28.803075671018391 3.1867106369449036 0.62932039886446345 0 -0.77714595512881146 0.19428648878220287 0 0.15733009971611586 1 I I -0.70710678118654746 0.70710678118654746 0.25 forward I I I I #
loop $-1 $-1 $115 $31 #
coedge $-1 $72 $72 $116 $117 reversed $45 $-1 #
face $-1 $-1 $118 $25 $-1 $119 forward single #
loop $-1 $120 $121 $47 #
cone-surface $-1 -62.250838001622512 31.726671858446984 3.1867106369449036 0.62932039886446345 0 -0.77714595512881146 0.19428648878220287 0 0.15733009971611586 1 I I -0.70710678118654746 0.70710678118654746 0.25 forward I I I I #
loop $-1 $-1 $122 $32 #
coedge $-1 $77 $77 $123 $124 reversed $48 $-1 #
face $-1 $125 $126 $26 $-1 $127 reversed single #
loop $-1 $-1 $128 $50 #
plane-surface $-1 -11.902593122389291 -6.1808215932848043 113.83968568524966 0.80901700255871778 0 0.5877852410284794 0.5877852410284794 0 -0.80901700255871778 forward_v I I I I #
coedge $-1 $129 $130 $131 $132 reversed $51 $-1 #
face $-1 $-1 $133 $27 $-1 $134 forward single #
loop $-1 $135 $136 $53 #
cone-surface $-1 64.542505186294221 -6.1808215932848078 4.735652392700592 -0.80901700255871778 0 -0.5877852410284794 0.2938926205142397 0 -0.40450850127935889 1 I I -0.70710678118654746 0.70710678118654746 0.5 forward I I I I #
loop $-1 $-1 $137 $34 #
coedge $-1 $86 $86 $138 $139 reversed $54 $-1 #
face $-1 $140 $141 $21 $-1 $142 reversed single #
loop $-1 $-1 $143 $56 #
plane-surface $-1 0 -33.67573598339937 0 0 1 0 0 0 1 forward_v I I I I #
coedge $-1 $144 $145 $146 $147 forward $57 $-1 #
coedge $-1 $148 $59 $149 $150 forward $36 $-1 #
coedge $-1 $59 $148 $151 $152 forward $36 $-1 #
coedge $-1 $153 $154 $59 $94 reversed $155 $-1 #
edge $-1 $156 -33.67573598339937 $157 33.67573598339937 $93 $158 forward 7 unknown #
face $-1 $159 $160 $22 $-1 $161 reversed single #
loop $-1 $-1 $162 $60 #
plane-surface $-1 -67.793816949980169 0 0 1 0 0 0 0 -1 forward_v I I I I #
coedge $-1 $163 $164 $165 $166 reversed $61 $-1 #
coedge $-1 $167 $63 $168 $169 reversed $39 $-1 #
coedge $-1 $63 $167 $163 $170 forward $39 $-1 #
coedge $-1 $165 $171 $63 $102 forward $172 $-1 #
edge $-1 $173 -18.903144288385342 $174 -10.642039101642716 $101 $175 forward 7 unknown #
face $-1 $176 $177 $23 $-1 $178 reversed single #
loop $-1 $-1 $109 $64 #
plane-surface $-1 0 0 8.0097419953069053 0 0 1 1 0 0 forward_v I I I I #
coedge $-1 $179 $180 $181 $182 reversed $65 $-1 #
coedge $-1 $108 $67 $183 $184 reversed $42 $-1 #
coedge $-1 $67 $107 $179 $185 reversed $42 $-1 #
coedge $-1 $181 $186 $67 $110 forward $104 $-1 #
edge $-1 $187 8.7671234485158607 $188 18.279780348070013 $109 $189 forward 7 unknown #
loop $-1 $-1 $116 $68 #
plane-surface $-1 -67.793816949980169 30.264873764732684 0.30654416640493309 -0.62932039886446345 0 0.77714595512881146 0.77714595512881146 0 0.62932039886446345 forward_v I I I I #
loop $-1 $-1 $190 $44 #
coedge $-1 $114 $114 $115 $191 reversed $69 $-1 #
coedge $-1 $115 $115 $114 $191 forward $71 $-1 #
coedge $-1 $116 $116 $72 $117 forward $111 $-1 #
edge $-1 $192 0 $192 6.2831853071796004 $116 $193 forward 7 unknown #
loop $-1 $-1 $123 $73 #
plane-surface $-1 -67.793816949980169 30.264873764732684 0.30654416640493309 -0.62932039886446345 0 0.77714595512881146 0.77714595512881146 0 0.62932039886446345 forward_v I I I I #
loop $-1 $-1 $194 $47 #
coedge $-1 $121 $121 $122 $195 reversed $74 $-1 #
coedge $-1 $122 $122 $121 $195 forward $76 $-1 #
coedge $-1 $123 $123 $77 $124 forward $118 $-1 #
edge $-1 $196 0 $196 6.2831853071796004 $123 $197 forward 7 unknown #
face $-1 $198 $199 $26 $-1 $200 reversed single #
loop $-1 $-1 $201 $78 #
plane-surface $-1 97.790108039385416 -13.458906550455746 193.53609575761908 0 1 0 0.80901700255871778 0 0.5877852410284794 forward_v I I I I #
coedge $-1 $202 $203 $204 $205 reversed $79 $-1 #
coedge $-1 $130 $81 $206 $207 reversed $51 $-1 #
coedge $-1 $81 $129 $202 $208 reversed $51 $-1 #
coedge $-1 $204 $209 $81 $132 forward $210 $-1 #
edge $-1 $211 -18.898762930287461 $212 -16.092305433801712 $131 $213 forward 7 unknown #
loop $-1 $-1 $138 $82 #
plane-surface $-1 -11.902593122389291 -6.1808215932848043 113.83968568524966 0.80901700255871778 0 0.5877852410284794 0.5877852410284794 0 -0.80901700255871778 forward_v I I I I #
loop $-1 $-1 $214 $53 #
coedge $-1 $136 $136 $137 $215 reversed $83 $-1 #
coedge $-1 $137 $137 $136 $215 forward $85 $-1 #
coedge $-1 $138 $138 $86 $139 forward $133 $-1 #
edge $-1 $216 0 $216 6.2831853071796004 $138 $217 forward 7 unknown #
face $-1 $218 $219 $21 $-1 $220 reversed single #
loop $-1 $-1 $221 $87 #
plane-surface $-1 -67.793816949980169 0 0 1 0 0 0 0 -1 forward_v I I I I #
coedge $-1 $222 $151 $223 $224 forward $88 $-1 #
coedge $-1 $225 $90 $222 $226 forward $57 $-1 #
coedge $-1 $90 $225 $227 $228 forward $57 $-1 #
coedge $-1 $154 $153 $90 $147 reversed $155 $-1 #
edge $-1 $229 -33.67573598339937 $230 33.67573598339937 $146 $231 forward 7 unknown #
coedge $-1 $92 $91 $232 $233 forward $36 $-1 #
coedge $-1 $234 $235 $91 $150 reversed $219 $-1 #
edge $-1 $157 -67.793816949980169 $236 67.793816949980169 $149 $237 forward 7 unknown #
coedge $-1 $143 $238 $92 $152 reversed $88 $-1 #
edge $-1 $239 -67.793816949980169 $156 67.793816949980169 $151 $240 forward 7 unknown #
coedge $-1 $146 $93 $238 $241 forward $155 $-1 #
coedge $-1 $93 $146 $234 $242 reversed $155 $-1 #
loop $-1 $-1 $153 $218 #
vertex $-1 $94 $243 #
vertex $-1 $94 $244 #
straight-curve $-1 67.793816949980169 0 8.0097419953069053 0 1 0 I I #
face $-1 $245 $246 $22 $-1 $247 forward single #
loop $-1 $-1 $168 $95 #
plane-surface $-1 0 -33.67573598339937 0 0 1 0 0 0 1 forward_v I I I I #
coedge $-1 $248 $249 $250 $251 forward $96 $-1 #
coedge $-1 $250 $98 $100 $170 reversed $61 $-1 #
coedge $-1 $98 $250 $252 $253 reversed $61 $-1 #
coedge $-1 $254 $101 $98 $166 forward $172 $-1 #
edge $-1 $174 1.7548709976534527 $255 4.7548709976534527 $165 $256 forward 7 unknown #
coedge $-1 $100 $99 $248 $257 reversed $39 $-1 #
coedge $-1 $258 $259 $99 $169 forward $160 $-1 #
edge $-1 $260 -67.793816949980169 $173 67.793816949980169 $168 $261 forward 7 unknown #
edge $-1 $262 -67.793816949980169 $174 67.793816949980169 $163 $263 forward 7 unknown #
coedge $-1 $101 $254 $258 $264 forward $172 $-1 #
loop $-1 $-1 $165 $245 #
vertex $-1 $169 $265 #
vertex $-1 $102 $266 #
straight-curve $-1 67.793816949980169 -14.772591695014029 5.0097419953069053 0 1 0 I I #
face $-1 $-1 $267 $23 $-1 $268 reversed single #
loop $-1 $-1 $269 $103 #
plane-surface $-1 0 33.67573598339937 0 0 -1 0 0 0 -1 forward_v I I I I #
coedge $-1 $270 $106 $108 $185 forward $65 $-1 #
coedge $-1 $106 $270 $269 $271 reversed $65 $-1 #
coedge $-1 $272 $109 $106 $182 forward $104 $-1 #
edge $-1 $188 11.721574663699656 $273 18.543299101033028 $181 $274 forward 7 unknown #
coedge $-1 $275 $276 $107 $184 forward $267 $-1 #
edge $-1 $277 -52.532418542217677 $187 -44.829220713315706 $183 $278 forward 7 unknown #
edge $-1 $188 -12.240502362233148 $277 0 $108 $279 forward 7 unknown #
coedge $-1 $109 $272 $275 $280 forward $104 $-1 #
vertex $-1 $184 $281 #
vertex $-1 $110 $282 #
straight-curve $-1 -76.56094039849603 26.854011546065998 8.0097419953069036 1 0 0 I I #
coedge $-1 $190 $190 $-1 $283 reversed $113 $-1 #
edge $-1 $284 0 $284 6.2831853071796004 $114 $285 forward 7 unknown #
vertex $-1 $117 $286 #
ellipse-curve $-1 -63.037488500203089 28.803075671018391 4.1581430808559201 -0.62932039886446345 0 0.77714595512881146 0.38857297756440573 0 0.31466019943223172 1 I I #
coedge $-1 $194 $194 $-1 $287 reversed $120 $-1 #
edge $-1 $288 0 $288 6.2831853071796004 $121 $289 forward 7 unknown #
vertex $-1 $124 $290 #
ellipse-curve $-1 -63.037488500203089 31.726671858446984 4.1581430808559201 -0.62932039886446345 0 0.77714595512881146 0.38857297756440573 0 0.31466019943223172 1 I I #
face $-1 $-1 $210 $26 $-1 $291 forward single #
loop $-1 $-1 $292 $125 #
plane-surface $-1 67.793816949980169 0 0 -1 0 0 0 0 1 forward_v I I I I #
coedge $-1 $293 $294 $295 $296 reversed $126 $-1 #
coedge $-1 $297 $128 $130 $208 forward $79 $-1 #
coedge $-1 $128 $297 $293 $298 forward $79 $-1 #
coedge $-1 $295 $131 $128 $205 forward $210 $-1 #
edge $-1 $212 -4.1876741605285392 $299 10.368495753813344 $204 $300 forward 7 unknown #
coedge $-1 $301 $302 $129 $207 forward $199 $-1 #
edge $-1 $303 -92.621063355334655 $211 -88.758305883502629 $206 $304 forward 7 unknown #
edge $-1 $212 130.81300313247954 $303 135.58763389996042 $130 $305 forward 7 unknown #
coedge $-1 $131 $295 $301 $306 forward $210 $-1 #
loop $-1 $-1 $295 $198 #
vertex $-1 $207 $307 #
vertex $-1 $132 $308 #
straight-curve $-1 48.895054019692708 1.0972633638861371 8.0097419953069107 -1 0 0 I I #
coedge $-1 $214 $214 $-1 $309 reversed $135 $-1 #
edge $-1 $310 0 $310 6.2831853071796004 $136 $311 forward 7 unknown #
vertex $-1 $139 $312 #
ellipse-curve $-1 66.390588201737273 -6.1808215932848078 6.078363259390934 0.80901700255871778 0 0.5877852410284794 0.5877852410284794 0 -0.80901700255871778 1 I I #
face $-1 $-1 $155 $21 $-1 $313 reversed single #
loop $-1 $-1 $234 $140 #
plane-surface $-1 0 33.67573598339937 0 0 -1 0 0 0 -1 forward_v I I I I #
coedge $-1 $314 $232 $235 $315 forward $141 $-1 #
coedge $-1 $238 $143 $144 $226 reversed $88 $-1 #
coedge $-1 $232 $314 $143 $224 reversed $141 $-1 #
edge $-1 $239 -8.0097419953069053 $316 8.0097419953069053 $223 $317 forward 7 unknown #
coedge $-1 $145 $144 $314 $318 forward $57 $-1 #
edge $-1 $230 -67.793816949980169 $316 67.793816949980169 $222 $319 forward 7 unknown #
coedge $-1 $235 $234 $145 $228 reversed $219 $-1 #
edge $-1 $320 -67.793816949980169 $229 67.793816949980169 $227 $321 forward 7 unknown #
vertex $-1 $147 $322 #
vertex $-1 $241 $323 #
straight-curve $-1 67.793816949980169 0 -8.0097419953069053 0 -1 0 I I #
coedge $-1 $221 $223 $148 $233 reversed $141 $-1 #
edge $-1 $236 -33.67573598339937 $239 33.67573598339937 $232 $324 forward 7 unknown #
coedge $-1 $227 $149 $154 $242 forward $219 $-1 #
coedge $-1 $149 $227 $221 $315 reversed $219 $-1 #
vertex $-1 $150 $325 #
straight-curve $-1 0 33.67573598339937 8.0097419953069053 -1 0 0 I I #
coedge $-1 $151 $222 $153 $241 reversed $88 $-1 #
vertex $-1 $233 $326 #
straight-curve $-1 0 -33.67573598339937 8.0097419953069053 1 0 0 I I #
edge $-1 $156 -8.0097419953069053 $230 8.0097419953069053 $153 $327 forward 7 unknown #
edge $-1 $157 -8.0097419953069053 $229 8.0097419953069053 $154 $328 forward 7 unknown #
point $-1 67.793816949980169 -33.67573598339937 8.0097419953069053 #
point $-1 67.793816949980169 33.67573598339937 8.0097419953069053 #
face $-1 $-1 $172 $22 $-1 $329 reversed single #
loop $-1 $-1 $252 $159 #
plane-surface $-1 0 0 8.0097419953069053 0 0 1 1 0 0 forward_v I I I I #
coedge $-1 $330 $162 $167 $257 forward $96 $-1 #
coedge $-1 $162 $330 $331 $332 reversed $96 $-1 #
coedge $-1 $164 $163 $162 $251 reversed $61 $-1 #
edge $-1 $333 -4.7548709976534527 $262 -1.7548709976534527 $162 $334 forward 7 unknown #
coedge $-1 $331 $335 $164 $253 forward $246 $-1 #
edge $-1 $255 -67.793816949980169 $333 67.793816949980169 $252 $336 forward 7 unknown #
coedge $-1 $171 $165 $335 $337 reversed $172 $-1 #
vertex $-1 $166 $338 #
straight-curve $-1 67.793816949980169 -25.414630796656745 3.2548709976534527 0 0 1 I I #
edge $-1 $262 10.642039101642716 $260 18.903144288385342 $248 $339 forward 7 unknown #
coedge $-1 $340 $168 $171 $264 reversed $160 $-1 #
coedge $-1 $168 $340 $330 $341 forward $160 $-1 #
vertex $-1 $169 $342 #
straight-curve $-1 0 -33.67573598339937 5.0097419953069053 1 0 0 I I #
vertex $-1 $257 $343 #
straight-curve $-1 0 -25.414630796656745 5.0097419953069053 1 0 0 I I #
edge $-1 $344 -8.0097419953069053 $173 -5.0097419953069053 $171 $345 forward 7 unknown #
point $-1 67.793816949980169 -33.67573598339937 5.0097419953069053 #
point $-1 67.793816949980169 -25.414630796656745 5.0097419953069053 #
loop $-1 $-1 $183 $176 #
plane-surface $-1 -67.793816949980169 0 0 1 0 0 0 0 -1 forward_v I I I I #
coedge $-1 $346 $347 $180 $271 forward $177 $-1 #
coedge $-1 $180 $179 $276 $348 reversed $65 $-1 #
edge $-1 $273 14.00588570194116 $349 26.246388064174308 $269 $350 forward 7 unknown #
coedge $-1 $186 $181 $347 $351 forward $104 $-1 #
vertex $-1 $351 $352 #
straight-curve $-1 -58.28116005042601 15.132436882366342 8.0097419953069053 0 1 0 I I #
coedge $-1 $353 $183 $186 $280 reversed $267 $-1 #
coedge $-1 $183 $353 $270 $348 forward $267 $-1 #
vertex $-1 $184 $354 #
straight-curve $-1 -67.793816949980169 26.854011546065998 52.83896270862261 0 0 1 I I #
straight-curve $-1 -67.793816949980169 26.854011546065998 0.30654416640493309 -0.77714595512881146 0 -0.62932039886446345 I I #
edge $-1 $355 -33.67573598339937 $187 -26.854011546065998 $275 $356 forward 7 unknown #
point $-1 -67.793816949980169 26.854011546065998 8.0097419953069053 #
point $-1 -58.281160050426017 26.854011546065998 8.0097419953069053 #
edge $-1 $357 1 $357 0 $190 $-1 forward 7 unknown #
vertex $-1 $191 $358 #
ellipse-curve $-1 -62.408168101338624 28.803075671018391 3.3809971257271063 -0.62932039886446345 0 0.77714595512881146 0.38857297756440573 0 0.31466019943223172 1 I I #
point $-1 -62.648915522638688 28.803075671018391 4.4728032802881499 #
edge $-1 $359 1 $359 0 $194 $-1 forward 7 unknown #
vertex $-1 $195 $360 #
ellipse-curve $-1 -62.408168101338624 31.726671858446984 3.3809971257271063 -0.62932039886446345 0 0.77714595512881146 0.38857297756440573 0 0.31466019943223172 1 I I #
point $-1 -62.648915522638688 31.726671858446984 4.4728032802881499 #
plane-surface $-1 0 0 8.0097419953069053 0 0 1 1 0 0 forward_v I I I I #
coedge $-1 $302 $301 $294 $361 forward $199 $-1 #
coedge $-1 $294 $201 $203 $298 reversed $126 $-1 #
coedge $-1 $201 $293 $292 $361 reversed $126 $-1 #
coedge $-1 $209 $204 $201 $296 forward $210 $-1 #
edge $-1 $299 16.092305433801712 $362 18.898762930287461 $295 $363 forward 7 unknown #
coedge $-1 $203 $202 $302 $364 reversed $79 $-1 #
edge $-1 $365 -135.58763389996042 $299 -130.81300313247954 $293 $366 forward 7 unknown #
vertex $-1 $205 $367 #
straight-curve $-1 64.987359453494406 -3.0904107966424021 8.0097419953069249 0 -1 0 I I #
coedge $-1 $292 $206 $209 $306 reversed $199 $-1 #
coedge $-1 $206 $292 $297 $364 forward $199 $-1 #
vertex $-1 $207 $368 #
straight-curve $-1 67.793816949980169 1.0972633638861371 96.76804787880954 0 0 1 I I #
straight-curve $-1 -11.902593122389291 1.0972633638861371 113.83968568524966 0.5877852410284794 0 -0.80901700255871778 I I #
edge $-1 $362 -13.458906550455746 $211 1.0972633638861371 $301 $369 forward 7 unknown #
point $-1 67.793816949980169 1.0972633638861371 8.0097419953069053 #
point $-1 64.98735945349442 1.0972633638861371 8.0097419953069107 #
edge $-1 $370 1 $370 0 $214 $-1 forward 7 unknown #
vertex $-1 $215 $371 #
ellipse-curve $-1 64.947013687573573 -6.1808215932848078 5.0295450132148316 0.80901700255871778 0 0.5877852410284794 0.5877852410284794 0 -0.80901700255871778 1 I I #
point $-1 66.9783734427658 -6.1808215932848078 5.2693462568322396 #
plane-surface $-1 67.793816949980169 0 0 -1 0 0 0 0 1 forward_v I I I I #
coedge $-1 $223 $221 $225 $318 reversed $141 $-1 #
edge $-1 $236 -8.0097419953069053 $320 8.0097419953069053 $235 $372 forward 7 unknown #
vertex $-1 $318 $373 #
straight-curve $-1 -67.793816949980169 -33.67573598339937 0 0 0 -1 I I #
edge $-1 $316 -33.67573598339937 $320 33.67573598339937 $314 $374 forward 7 unknown #
straight-curve $-1 0 -33.67573598339937 -8.0097419953069053 -1 0 0 I I #
vertex $-1 $228 $375 #
straight-curve $-1 0 33.67573598339937 -8.0097419953069053 1 0 0 I I #
point $-1 67.793816949980169 33.67573598339937 -8.0097419953069053 #
point $-1 67.793816949980169 -33.67573598339937 -8.0097419953069053 #
straight-curve $-1 -67.793816949980169 0 8.0097419953069053 0 -1 0 I I #
point $-1 -67.793816949980169 33.67573598339937 8.0097419953069053 #
point $-1 -67.793816949980169 -33.67573598339937 8.0097419953069053 #
straight-curve $-1 67.793816949980169 -33.67573598339937 0 0 0 -1 I I #
straight-curve $-1 67.793816949980169 33.67573598339937 0 0 0 -1 I I #
plane-surface $-1 67.793816949980169 0 0 -1 0 0 0 0 1 forward_v I I I I #
coedge $-1 $249 $248 $259 $341 reversed $96 $-1 #
coedge $-1 $376 $252 $249 $332 forward $246 $-1 #
edge $-1 $333 25.414630796656745 $377 33.67573598339937 $249 $378 forward 7 unknown #
vertex $-1 $332 $379 #
straight-curve $-1 -67.793816949980169 -25.414630796656745 3.2548709976534527 0 0 -1 I I #
coedge $-1 $252 $376 $254 $337 forward $246 $-1 #
straight-curve $-1 0 -25.414630796656745 8.0097419953069053 -1 0 0 I I #
edge $-1 $344 -33.67573598339937 $255 -25.414630796656745 $254 $380 forward 7 unknown #
point $-1 67.793816949980169 -25.414630796656745 8.0097419953069053 #
straight-curve $-1 -67.793816949980169 -14.772591695014029 5.0097419953069053 0 -1 0 I I #
coedge $-1 $259 $258 $376 $381 reversed $160 $-1 #
edge $-1 $377 -8.0097419953069053 $260 -5.0097419953069053 $330 $382 forward 7 unknown #
point $-1 -67.793816949980169 -33.67573598339937 5.0097419953069053 #
point $-1 -67.793816949980169 -25.414630796656745 5.0097419953069053 #
vertex $-1 $337 $383 #
straight-curve $-1 67.793816949980169 -33.67573598339937 0 0 0 -1 I I #
coedge $-1 $347 $269 $353 $384 reversed $177 $-1 #
coedge $-1 $269 $346 $272 $351 reversed $177 $-1 #
edge $-1 $349 -18.543299101033028 $277 -11.721574663699656 $276 $385 forward 7 unknown #
vertex $-1 $271 $386 #
straight-curve $-1 -47.396542629165992 33.67573598339937 16.823931571702605 -0.77714595512881146 0 -0.62932039886446345 I I #
edge $-1 $273 58.281160050426017 $355 67.793816949980169 $347 $387 forward 7 unknown #
point $-1 -58.281160050426017 33.67573598339937 8.0097419953069053 #
coedge $-1 $276 $275 $346 $384 forward $267 $-1 #
point $-1 -67.793816949980169 26.854011546065998 0.30654416640493309 #
vertex $-1 $351 $388 #
straight-curve $-1 -67.793816949980169 0 8.0097419953069053 0 -1 0 I I #
vertex $-1 $283 $389 #
point $-1 -62.019595123774224 28.803075671018391 3.6956573251593383 #
vertex $-1 $287 $390 #
point $-1 -62.019595123774224 31.726671858446984 3.6956573251593383 #
edge $-1 $362 88.758305883502629 $365 92.621063355334655 $292 $391 forward 7 unknown #
vertex $-1 $306 $392 #
straight-curve $-1 48.895054019692708 -13.458906550455746 8.0097419953069107 1 0 0 I I #
edge $-1 $365 -10.368495753813344 $303 4.1876741605285392 $302 $393 forward 7 unknown #
vertex $-1 $364 $394 #
straight-curve $-1 -11.902593122389291 -13.458906550455746 113.83968568524966 -0.5877852410284794 0 0.80901700255871778 I I #
point $-1 64.98735945349442 -13.458906550455746 8.0097419953069107 #
point $-1 67.793816949980169 1.0972633638861371 4.1469845234748846 #
straight-curve $-1 67.793816949980169 0 8.0097419953069053 0 1 0 I I #
vertex $-1 $309 $395 #
point $-1 65.534798928602058 -6.1808215932848078 4.220528010656114 #
straight-curve $-1 -67.793816949980169 33.67573598339937 0 0 0 -1 I I #
point $-1 -67.793816949980169 -33.67573598339937 -8.0097419953069053 #
straight-curve $-1 -67.793816949980169 0 -8.0097419953069053 0 1 0 I I #
point $-1 -67.793816949980169 33.67573598339937 -8.0097419953069053 #
coedge $-1 $335 $331 $340 $381 forward $246 $-1 #
vertex $-1 $332 $396 #
straight-curve $-1 -67.793816949980169 0 8.0097419953069053 0 -1 0 I I #
point $-1 -67.793816949980169 -25.414630796656745 8.0097419953069053 #
straight-curve $-1 67.793816949980169 0 8.0097419953069053 0 1 0 I I #
edge $-1 $377 -67.793816949980169 $344 67.793816949980169 $340 $397 forward 7 unknown #
straight-curve $-1 -67.793816949980169 -33.67573598339937 0 0 0 -1 I I #
point $-1 67.793816949980169 -33.67573598339937 8.0097419953069053 #
edge $-1 $355 -8.0097419953069053 $349 -0.30654416640493309 $346 $398 forward 7 unknown #
straight-curve $-1 -67.793816949980169 15.132436882366342 0.30654416640492843 0 -1 0 I I #
point $-1 -67.793816949980169 33.67573598339937 0.30654416640493309 #
straight-curve $-1 0 33.67573598339937 8.0097419953069053 -1 0 0 I I #
point $-1 -67.793816949980169 33.67573598339937 8.0097419953069053 #
point $-1 -62.093507901906399 28.803075671018391 2.992424148162701 #
point $-1 -62.093507901906399 31.726671858446984 2.992424148162701 #
straight-curve $-1 67.793816949980169 -13.458906550455746 96.76804787880954 0 0 -1 I I #
point $-1 67.793816949980169 -13.458906550455746 8.0097419953069053 #
straight-curve $-1 67.793816949980169 -3.0904107966424021 4.1469845234748917 0 1 0 I I #
point $-1 67.793816949980169 -13.458906550455746 4.1469845234748846 #
point $-1 64.137996685014869 -6.1808215932848078 4.4417597721863524 #
point $-1 -67.793816949980169 -33.67573598339937 8.0097419953069053 #
straight-curve $-1 0 -33.67573598339937 8.0097419953069053 1 0 0 I I #
straight-curve $-1 -67.793816949980169 33.67573598339937 0 0 0 -1 I I #
End-of-ACIS-data 