500 0 7 0           
7 Unknown 11 ACIS 5.0 NT 24 Fri Mar 26 00:33:20 1999 
-1 9.9999999999999995e-007 1e-010 
body $-1 $7 $-1 $8 #
body $-1 $9 $-1 $10 #
body $-1 $11 $-1 $12 #
body $-1 $13 $-1 $14 #
body $-1 $15 $-1 $16 #
body $-1 $17 $-1 $18 #
body $-1 $19 $-1 $20 #
lump $-1 $-1 $21 $0 #
transform $-1 1 0 0 0 1 0 0 0 1 69.5516830957976 46.0174159625127 15.975277315542183 1 rotate no_reflect no_shear #
lump $-1 $-1 $22 $1 #
transform $-1 1 0 0 0 1 0 0 0 1 69.5516830957976 46.0174159625127 15.975277315542183 1 rotate no_reflect no_shear #
lump $-1 $-1 $23 $2 #
transform $-1 1 0 0 0 1 0 0 0 1 69.5516830957976 46.0174159625127 15.975277315542183 1 rotate no_reflect no_shear #
lump $-1 $-1 $24 $3 #
transform $-1 1 0 0 0 1 0 0 0 1 69.5516830957976 46.0174159625127 15.975277315542183 1 rotate no_reflect no_shear #
lump $-1 $-1 $25 $4 #
transform $-1 1 0 0 0 1 0 0 0 1 69.5516830957976 46.0174159625127 15.975277315542183 1 rotate no_reflect no_shear #
lump $-1 $-1 $26 $5 #
transform $-1 1 0 0 0 1 0 0 0 1 69.5516830957976 46.0174159625127 15.975277315542183 1 rotate no_reflect no_shear #
lump $-1 $-1 $27 $6 #
transform $-1 1 0 0 0 1 0 0 0 1 69.5516830957976 46.0174159625127 15.975277315542183 1 rotate no_reflect no_shear #
shell $-1 $-1 $-1 $28 $-1 $7 #
shell $-1 $-1 $-1 $29 $-1 $9 #
shell $-1 $-1 $-1 $30 $-1 $11 #
shell $-1 $-1 $-1 $31 $-1 $13 #
shell $-1 $-1 $-1 $32 $-1 $15 #
shell $-1 $-1 $-1 $33 $-1 $17 #
shell $-1 $-1 $-1 $34 $-1 $19 #
face $-1 $35 $36 $21 $-1 $37 reversed single #
face $-1 $38 $39 $22 $-1 $40 forward single #
face $-1 $41 $42 $23 $-1 $43 reversed single #
face $-1 $44 $45 $24 $-1 $46 forward single #
face $-1 $47 $48 $25 $-1 $49 forward single #
face $-1 $50 $51 $26 $-1 $52 reversed single #
face $-1 $53 $54 $27 $-1 $55 forward single #
face $-1 $56 $57 $21 $-1 $58 forward single #
loop $-1 $-1 $59 $28 #
plane-surface $-1 0 -46.0174159625127 0 0 1 0 0 0 1 forward_v I I I I #
face $-1 $60 $61 $22 $-1 $62 forward single #
loop $-1 $-1 $63 $29 #
plane-surface $-1 0 -46.0174159625127 0 0 1 0 0 0 1 forward_v I I I I #
face $-1 $64 $65 $23 $-1 $66 reversed single #
loop $-1 $-1 $67 $30 #
plane-surface $-1 35.391291125370586 -0.50256970937100043 195.28667371951241 0 -1 0 -0.57357644374324357 0 -0.81915203911291934 forward_v I I I I #
face $-1 $68 $69 $24 $-1 $70 forward single #
loop $-1 $71 $72 $31 #
cone-surface $-1 56.899992849479865 -13.510151006185694 5.4033034002208229 -0.57357644374324357 0 -0.81915203911291934 2.0478800977822984 0 -1.4339411093581089 1 I I 0 1 2.5 forward I I I I #
face $-1 $73 $74 $25 $-1 $75 forward single #
loop $-1 $76 $77 $32 #
cone-surface $-1 56.899992849479865 -5.705602228096879 5.4033034002208229 -0.57357644374324357 0 -0.81915203911291934 2.0478800977822984 0 -1.4339411093581089 1 I I 0 1 2.5 forward I I I I #
face $-1 $78 $79 $26 $-1 $80 reversed single #
loop $-1 $-1 $81 $33 #
plane-surface $-1 -184.87360126063828 14.057184538133434 83.570574839381635 0 1 0 -0.82903758062907751 0 0.55919289150049634 forward_v I I I I #
face $-1 $82 $83 $27 $-1 $84 forward single #
loop $-1 $85 $86 $34 #
cone-surface $-1 -65.472854518911319 19.636710942501281 10.447016579290686 0.82903758062907751 0 -0.55919289150049634 0.83878933725074445 0 1.2435563709436162 1 I I 0 1 1.5 forward I I I I #
face $-1 $87 $88 $21 $-1 $89 reversed single #
loop $-1 $-1 $90 $35 #
plane-surface $-1 0 0 15.975277315542183 0 0 1 1 0 0 forward_v I I I I #
coedge $-1 $91 $92 $93 $94 reversed $36 $-1 #
face $-1 $95 $96 $22 $-1 $97 reversed single #
loop $-1 $-1 $98 $38 #
plane-surface $-1 0 0 15.975277315542183 0 0 1 1 0 0 forward_v I I I I #
coedge $-1 $99 $100 $101 $102 forward $39 $-1 #
face $-1 $103 $104 $23 $-1 $105 reversed single #
loop $-1 $-1 $106 $41 #
plane-surface $-1 -44.395122967518731 -9.6078766171412866 81.339867656196077 0.57357644374324357 0 0.81915203911291934 0.81915203911291934 0 -0.57357644374324357 forward_v I I I I #
coedge $-1 $107 $108 $109 $110 reversed $42 $-1 #
face $-1 $-1 $111 $24 $-1 $112 forward single #
loop $-1 $113 $114 $44 #
cone-surface $-1 53.829581273358045 -13.510151006185694 1.0183013121260451 -0.57357644374324357 0 -0.81915203911291934 1.0239400488911492 0 -0.71697055467905446 1 I I -0.70710678118654746 0.70710678118654746 1.25 forward I I I I #
loop $-1 $-1 $115 $31 #
coedge $-1 $72 $72 $116 $117 reversed $45 $-1 #
face $-1 $-1 $118 $25 $-1 $119 forward single #
loop $-1 $120 $121 $47 #
cone-surface $-1 53.829581273358045 -5.705602228096879 1.0183013121260451 -0.57357644374324357 0 -0.81915203911291934 1.0239400488911492 0 -0.71697055467905446 1 I I -0.70710678118654746 0.70710678118654746 1.25 forward I I I I #
loop $-1 $-1 $122 $32 #
coedge $-1 $77 $77 $123 $124 reversed $48 $-1 #
face $-1 $125 $126 $26 $-1 $127 reversed single #
loop $-1 $-1 $128 $50 #
plane-surface $-1 -69.551683095797586 19.636710942501281 5.7849612812511282 -0.82903758062907751 0 0.55919289150049634 0.55919289150049634 0 0.82903758062907751 forward_v I I I I #
coedge $-1 $129 $130 $131 $132 reversed $51 $-1 #
face $-1 $-1 $133 $27 $-1 $134 forward single #
loop $-1 $135 $136 $53 #
cone-surface $-1 -64.208975126737798 19.636710942501281 9.5945191915593426 0.82903758062907751 0 -0.55919289150049634 0.41939466862537222 0 0.62177818547180808 1 I I -0.70710678118654757 0.70710678118654757 0.75 forward I I I I #
loop $-1 $-1 $137 $34 #
coedge $-1 $86 $86 $138 $139 reversed $54 $-1 #
face $-1 $140 $141 $21 $-1 $142 reversed single #
loop $-1 $-1 $143 $56 #
plane-surface $-1 0 0 -15.975277315542183 0 0 1 1 0 0 forward_v I I I I #
coedge $-1 $144 $145 $146 $147 forward $57 $-1 #
coedge $-1 $148 $59 $149 $150 reversed $36 $-1 #
coedge $-1 $59 $148 $151 $152 forward $36 $-1 #
coedge $-1 $153 $143 $59 $94 forward $88 $-1 #
edge $-1 $154 -69.5516830957976 $155 69.5516830957976 $59 $156 forward 7 unknown #
face $-1 $157 $158 $22 $-1 $159 reversed single #
loop $-1 $-1 $160 $60 #
plane-surface $-1 -69.5516830957976 0 0 1 0 0 0 0 -1 forward_v I I I I #
coedge $-1 $161 $162 $100 $163 forward $61 $-1 #
coedge $-1 $164 $63 $165 $166 reversed $39 $-1 #
coedge $-1 $63 $164 $98 $163 reversed $39 $-1 #
coedge $-1 $167 $168 $63 $102 reversed $169 $-1 #
edge $-1 $170 -15.975277315542183 $171 15.975277315542183 $101 $172 forward 7 unknown #
face $-1 $173 $174 $23 $-1 $175 forward single #
loop $-1 $-1 $176 $64 #
plane-surface $-1 35.391291125370586 -18.713183524911571 195.28667371951241 0 1 0 0.57357644374324357 0 0.81915203911291934 forward_v I I I I #
coedge $-1 $177 $178 $179 $180 reversed $65 $-1 #
coedge $-1 $108 $67 $181 $182 reversed $42 $-1 #
coedge $-1 $67 $107 $177 $183 reversed $42 $-1 #
coedge $-1 $179 $184 $67 $110 forward $174 $-1 #
edge $-1 $185 -51.856037533112307 $186 -31.259539083362405 $109 $187 forward 7 unknown #
loop $-1 $-1 $116 $68 #
plane-surface $-1 -44.395122967518731 -9.6078766171412866 81.339867656196077 0.57357644374324357 0 0.81915203911291934 0.81915203911291934 0 -0.57357644374324357 forward_v I I I I #
loop $-1 $-1 $188 $44 #
coedge $-1 $114 $114 $115 $189 reversed $69 $-1 #
coedge $-1 $115 $115 $114 $189 forward $71 $-1 #
coedge $-1 $116 $116 $72 $117 forward $111 $-1 #
edge $-1 $190 0 $190 6.2831853071796004 $116 $191 forward 7 unknown #
loop $-1 $-1 $123 $73 #
plane-surface $-1 -44.395122967518731 -9.6078766171412866 81.339867656196077 0.57357644374324357 0 0.81915203911291934 0.81915203911291934 0 -0.57357644374324357 forward_v I I I I #
loop $-1 $-1 $192 $47 #
coedge $-1 $121 $121 $122 $193 reversed $74 $-1 #
coedge $-1 $122 $122 $121 $193 forward $76 $-1 #
coedge $-1 $123 $123 $77 $124 forward $118 $-1 #
edge $-1 $194 0 $194 6.2831853071796004 $123 $195 forward 7 unknown #
face $-1 $196 $197 $26 $-1 $198 reversed single #
loop $-1 $-1 $199 $78 #
plane-surface $-1 -184.87360126063828 25.216237346869129 83.570574839381635 0 -1 0 0.82903758062907751 0 -0.55919289150049634 forward_v I I I I #
coedge $-1 $200 $201 $202 $203 reversed $79 $-1 #
coedge $-1 $130 $81 $204 $205 reversed $51 $-1 #
coedge $-1 $81 $129 $200 $206 reversed $51 $-1 #
coedge $-1 $202 $207 $81 $132 forward $208 $-1 #
edge $-1 $209 22.885117534521541 $210 29.758572274890682 $131 $211 forward 7 unknown #
loop $-1 $-1 $138 $82 #
plane-surface $-1 -69.551683095797586 19.636710942501281 5.7849612812511282 -0.82903758062907751 0 0.55919289150049634 0.55919289150049634 0 0.82903758062907751 forward_v I I I I #
loop $-1 $-1 $212 $53 #
coedge $-1 $136 $136 $137 $213 reversed $83 $-1 #
coedge $-1 $137 $137 $136 $213 forward $85 $-1 #
coedge $-1 $138 $138 $86 $139 forward $133 $-1 #
edge $-1 $214 0 $214 6.2831853071796004 $138 $215 forward 7 unknown #
face $-1 $216 $217 $21 $-1 $218 reversed single #
loop $-1 $-1 $219 $87 #
plane-surface $-1 -69.5516830957976 0 0 1 0 0 0 0 -1 forward_v I I I I #
coedge $-1 $93 $220 $221 $222 forward $88 $-1 #
coedge $-1 $223 $90 $224 $225 forward $57 $-1 #
coedge $-1 $90 $223 $148 $226 forward $57 $-1 #
coedge $-1 $149 $227 $90 $147 reversed $228 $-1 #
edge $-1 $229 -46.0174159625127 $230 46.0174159625127 $146 $231 forward 7 unknown #
coedge $-1 $92 $91 $145 $226 reversed $36 $-1 #
coedge $-1 $221 $146 $91 $150 forward $228 $-1 #
edge $-1 $229 -15.975277315542183 $154 15.975277315542183 $149 $232 forward 7 unknown #
coedge $-1 $233 $234 $92 $152 reversed $141 $-1 #
edge $-1 $235 -15.975277315542183 $155 15.975277315542183 $151 $236 forward 7 unknown #
coedge $-1 $220 $93 $234 $237 forward $88 $-1 #
vertex $-1 $150 $238 #
vertex $-1 $237 $239 #
straight-curve $-1 0 -46.0174159625127 -15.975277315542183 -1 0 0 I I #
face $-1 $240 $169 $22 $-1 $241 reversed single #
loop $-1 $-1 $242 $95 #
plane-surface $-1 -65.176533063693839 -66.662981524695724 0 0 1 0 0 0 1 forward_v I I I I #
coedge $-1 $243 $244 $164 $245 forward $96 $-1 #
coedge $-1 $246 $98 $244 $247 forward $61 $-1 #
coedge $-1 $98 $246 $167 $248 forward $61 $-1 #
edge $-1 $170 60.801383031590078 $249 69.5516830957976 $98 $250 forward 7 unknown #
coedge $-1 $100 $99 $160 $245 reversed $39 $-1 #
coedge $-1 $251 $252 $99 $166 forward $253 $-1 #
edge $-1 $254 -69.5516830957976 $171 -60.801383031590078 $165 $255 forward 7 unknown #
coedge $-1 $256 $101 $162 $248 reversed $169 $-1 #
coedge $-1 $101 $256 $251 $257 reversed $169 $-1 #
loop $-1 $-1 $256 $157 #
vertex $-1 $163 $258 #
vertex $-1 $257 $259 #
straight-curve $-1 -60.801383031590078 -46.0174159625127 0 0 0 -1 I I #
face $-1 $-1 $260 $23 $-1 $261 reversed single #
loop $-1 $-1 $109 $103 #
plane-surface $-1 0 0 15.975277315542183 0 0 1 1 0 0 forward_v I I I I #
coedge $-1 $262 $263 $264 $265 reversed $104 $-1 #
coedge $-1 $266 $106 $108 $183 forward $65 $-1 #
coedge $-1 $106 $266 $262 $267 forward $65 $-1 #
coedge $-1 $264 $109 $106 $180 forward $174 $-1 #
edge $-1 $186 -4.3013685991996429 $268 13.909245216340928 $179 $269 forward 7 unknown #
coedge $-1 $270 $271 $107 $182 forward $260 $-1 #
edge $-1 $272 -96.089883296449443 $185 -81.668059544214017 $181 $273 forward 7 unknown #
edge $-1 $186 113.95968410779744 $272 139.1033661915952 $108 $274 forward 7 unknown #
coedge $-1 $109 $264 $270 $275 forward $174 $-1 #
vertex $-1 $182 $276 #
vertex $-1 $110 $277 #
straight-curve $-1 17.695645562685293 -0.50256970937100043 15.975277315542186 -1 0 0 I I #
coedge $-1 $188 $188 $-1 $278 reversed $113 $-1 #
edge $-1 $279 0 $279 6.2831853071796004 $114 $280 forward 7 unknown #
vertex $-1 $117 $281 #
ellipse-curve $-1 59.253433870922649 -13.510151006185694 8.7643654394244841 0.57357644374324357 0 0.81915203911291934 2.0478800977822984 0 -1.4339411093581089 1 I I #
coedge $-1 $192 $192 $-1 $282 reversed $120 $-1 #
edge $-1 $283 0 $283 6.2831853071796004 $121 $284 forward 7 unknown #
vertex $-1 $124 $285 #
ellipse-curve $-1 59.253433870922649 -5.705602228096879 8.7643654394244841 0.57357644374324357 0 0.81915203911291934 2.0478800977822984 0 -1.4339411093581089 1 I I #
face $-1 $-1 $208 $26 $-1 $286 forward single #
loop $-1 $-1 $287 $125 #
plane-surface $-1 -69.5516830957976 0 0 1 0 0 0 0 -1 forward_v I I I I #
coedge $-1 $288 $289 $290 $291 reversed $126 $-1 #
coedge $-1 $292 $128 $130 $206 forward $79 $-1 #
coedge $-1 $128 $292 $288 $293 forward $79 $-1 #
coedge $-1 $290 $131 $128 $203 forward $208 $-1 #
edge $-1 $210 4.2388290668827935 $294 15.397881875618488 $202 $295 forward 7 unknown #
coedge $-1 $296 $297 $129 $205 forward $197 $-1 #
edge $-1 $298 -36.000326138439711 $209 -25.810010104148635 $204 $299 forward 7 unknown #
edge $-1 $210 -12.291741981779158 $298 2.5618607856530852e-014 $130 $300 forward 7 unknown #
coedge $-1 $131 $290 $296 $301 forward $208 $-1 #
loop $-1 $-1 $290 $196 #
vertex $-1 $205 $302 #
vertex $-1 $132 $303 #
straight-curve $-1 -92.436800630319141 14.057184538133434 15.975277315542179 1 0 0 I I #
coedge $-1 $212 $212 $-1 $304 reversed $135 $-1 #
edge $-1 $305 0 $305 6.2831853071796004 $136 $306 forward 7 unknown #
vertex $-1 $139 $307 #
ellipse-curve $-1 -66.114955725613029 19.636710942501281 10.880119298396652 -0.82903758062907751 0 0.55919289150049634 0.83878933725074445 0 1.2435563709436162 1 I I #
face $-1 $-1 $228 $21 $-1 $308 reversed single #
loop $-1 $-1 $309 $140 #
plane-surface $-1 0 46.0174159625127 0 0 -1 0 0 0 -1 forward_v I I I I #
coedge $-1 $234 $233 $310 $311 forward $141 $-1 #
coedge $-1 $143 $153 $312 $313 forward $88 $-1 #
coedge $-1 $227 $149 $143 $222 reversed $228 $-1 #
edge $-1 $314 -46.0174159625127 $154 46.0174159625127 $221 $315 forward 7 unknown #
coedge $-1 $145 $144 $233 $316 forward $57 $-1 #
coedge $-1 $309 $310 $144 $225 reversed $217 $-1 #
edge $-1 $230 -69.5516830957976 $317 69.5516830957976 $224 $318 forward 7 unknown #
edge $-1 $235 -69.5516830957976 $229 69.5516830957976 $148 $319 forward 7 unknown #
coedge $-1 $146 $221 $309 $320 reversed $228 $-1 #
loop $-1 $-1 $149 $216 #
vertex $-1 $147 $321 #
vertex $-1 $147 $322 #
straight-curve $-1 69.5516830957976 0 15.975277315542183 0 1 0 I I #
straight-curve $-1 69.5516830957976 -46.0174159625127 0 0 0 -1 I I #
coedge $-1 $219 $151 $223 $316 reversed $141 $-1 #
coedge $-1 $151 $219 $153 $237 reversed $141 $-1 #
vertex $-1 $316 $323 #
straight-curve $-1 -69.5516830957976 -46.0174159625127 0 0 0 -1 I I #
edge $-1 $155 -46.0174159625127 $324 46.0174159625127 $234 $325 forward 7 unknown #
point $-1 69.5516830957976 -46.0174159625127 -15.975277315542183 #
point $-1 -69.5516830957976 -46.0174159625127 -15.975277315542183 #
face $-1 $-1 $253 $22 $-1 $326 reversed single #
plane-surface $-1 -60.801383031590078 -56.340198743604212 0 -1 0 0 0 0 1 forward_v I I I I #
coedge $-1 $327 $328 $329 $330 forward $158 $-1 #
coedge $-1 $329 $160 $252 $331 reversed $96 $-1 #
coedge $-1 $160 $329 $161 $247 reversed $96 $-1 #
edge $-1 $249 -15.975277315542183 $254 15.975277315542183 $160 $332 forward 7 unknown #
coedge $-1 $162 $161 $328 $333 forward $61 $-1 #
edge $-1 $249 46.0174159625127 $334 66.662981524695724 $244 $335 forward 7 unknown #
edge $-1 $336 -10.322782781091512 $170 10.322782781091512 $167 $337 forward 7 unknown #
vertex $-1 $247 $338 #
straight-curve $-1 0 -46.0174159625127 15.975277315542183 -1 0 0 I I #
coedge $-1 $339 $165 $168 $257 forward $253 $-1 #
coedge $-1 $165 $339 $243 $331 forward $253 $-1 #
loop $-1 $-1 $165 $240 #
vertex $-1 $245 $340 #
straight-curve $-1 0 -46.0174159625127 -15.975277315542183 1 0 0 I I #
coedge $-1 $168 $167 $341 $342 forward $169 $-1 #
edge $-1 $171 -10.322782781091512 $343 10.322782781091512 $168 $344 forward 7 unknown #
point $-1 -60.801383031590078 -46.0174159625127 15.975277315542183 #
point $-1 -60.801383031590078 -46.0174159625127 -15.975277315542183 #
loop $-1 $-1 $181 $173 #
plane-surface $-1 69.5516830957976 0 0 -1 0 0 0 0 1 forward_v I I I I #
coedge $-1 $263 $176 $178 $267 reversed $104 $-1 #
coedge $-1 $176 $262 $345 $346 reversed $104 $-1 #
coedge $-1 $184 $179 $176 $265 forward $174 $-1 #
edge $-1 $268 31.259539083362405 $347 51.856037533112307 $264 $348 forward 7 unknown #
coedge $-1 $178 $177 $271 $349 reversed $65 $-1 #
edge $-1 $350 -139.1033661915952 $268 -113.95968410779744 $262 $351 forward 7 unknown #
vertex $-1 $180 $352 #
straight-curve $-1 48.955184646047698 -4.8039383085706433 15.975277315542193 0 -1 0 I I #
coedge $-1 $345 $181 $184 $275 reversed $260 $-1 #
coedge $-1 $181 $345 $266 $349 forward $260 $-1 #
vertex $-1 $182 $353 #
straight-curve $-1 69.5516830957976 -0.50256970937100043 97.643336859756204 0 0 1 I I #
straight-curve $-1 -44.395122967518731 -0.50256970937100043 81.339867656196077 0.81915203911291934 0 -0.57357644374324357 I I #
edge $-1 $347 -18.713183524911571 $185 -0.50256970937100043 $270 $354 forward 7 unknown #
point $-1 69.5516830957976 -0.50256970937100043 15.975277315542183 #
point $-1 48.955184646047698 -0.50256970937100043 15.975277315542186 #
edge $-1 $355 1 $355 0 $188 $-1 forward 7 unknown #
vertex $-1 $189 $356 #
ellipse-curve $-1 54.546551828037096 -13.510151006185694 2.0422413610171946 0.57357644374324357 0 0.81915203911291934 2.0478800977822984 0 -1.4339411093581089 1 I I #
point $-1 61.301313968704925 -13.510151006185694 7.3304243300663421 #
edge $-1 $357 1 $357 0 $192 $-1 forward 7 unknown #
vertex $-1 $193 $358 #
ellipse-curve $-1 54.546551828037096 -5.705602228096879 2.0422413610171946 0.57357644374324357 0 0.81915203911291934 2.0478800977822984 0 -1.4339411093581089 1 I I #
point $-1 61.301313968704925 -5.705602228096879 7.3304243300663421 #
plane-surface $-1 0 0 15.975277315542183 0 0 1 1 0 0 forward_v I I I I #
coedge $-1 $297 $296 $289 $359 forward $197 $-1 #
coedge $-1 $289 $199 $201 $293 reversed $126 $-1 #
coedge $-1 $199 $288 $287 $359 reversed $126 $-1 #
coedge $-1 $207 $202 $199 $291 forward $208 $-1 #
edge $-1 $294 -29.758572274890682 $360 -22.885117534521541 $290 $361 forward 7 unknown #
coedge $-1 $201 $200 $297 $362 reversed $79 $-1 #
edge $-1 $363 -2.5618607856530852e-014 $294 12.291741981779158 $288 $364 forward 7 unknown #
vertex $-1 $203 $365 #
straight-curve $-1 -62.678228355428459 9.8183554712506407 15.975277315542183 0 1 0 I I #
coedge $-1 $287 $204 $207 $301 reversed $197 $-1 #
coedge $-1 $204 $287 $292 $362 forward $197 $-1 #
vertex $-1 $205 $366 #
straight-curve $-1 -69.5516830957976 14.057184538133434 41.785287419690818 0 0 1 I I #
straight-curve $-1 -69.551683095797586 14.057184538133434 5.7849612812511282 -0.55919289150049634 0 -0.82903758062907751 I I #
edge $-1 $360 -25.216237346869129 $209 -14.057184538133434 $296 $367 forward 7 unknown #
point $-1 -69.5516830957976 14.057184538133434 15.975277315542183 #
point $-1 -62.678228355428459 14.057184538133434 15.975277315542183 #
edge $-1 $368 1 $368 0 $212 $-1 forward 7 unknown #
vertex $-1 $213 $369 #
ellipse-curve $-1 -64.830753312209609 19.636710942501281 10.013913860184715 -0.82903758062907751 0 0.55919289150049634 0.83878933725074445 0 1.2435563709436162 1 I I #
point $-1 -65.276166388362284 19.636710942501281 12.123675669340273 #
plane-surface $-1 69.5516830957976 0 0 -1 0 0 0 0 1 forward_v I I I I #
coedge $-1 $312 $224 $227 $320 forward $217 $-1 #
coedge $-1 $224 $312 $219 $311 reversed $217 $-1 #
edge $-1 $317 -15.975277315542183 $324 15.975277315542183 $310 $370 forward 7 unknown #
coedge $-1 $310 $309 $220 $313 reversed $217 $-1 #
edge $-1 $324 -69.5516830957976 $314 69.5516830957976 $312 $371 forward 7 unknown #
vertex $-1 $222 $372 #
straight-curve $-1 69.5516830957976 0 -15.975277315542183 0 -1 0 I I #
edge $-1 $317 -46.0174159625127 $235 46.0174159625127 $233 $373 forward 7 unknown #
vertex $-1 $225 $374 #
straight-curve $-1 0 46.0174159625127 15.975277315542183 -1 0 0 I I #
straight-curve $-1 0 -46.0174159625127 15.975277315542183 1 0 0 I I #
edge $-1 $230 -15.975277315542183 $314 15.975277315542183 $227 $375 forward 7 unknown #
point $-1 69.5516830957976 -46.0174159625127 15.975277315542183 #
point $-1 69.5516830957976 46.0174159625127 15.975277315542183 #
point $-1 -69.5516830957976 -46.0174159625127 15.975277315542183 #
vertex $-1 $313 $376 #
straight-curve $-1 -69.5516830957976 0 -15.975277315542183 0 1 0 I I #
plane-surface $-1 0 0 -15.975277315542183 0 0 1 1 0 0 forward_v I I I I #
coedge $-1 $341 $242 $339 $377 reversed $158 $-1 #
coedge $-1 $242 $341 $246 $333 reversed $158 $-1 #
coedge $-1 $244 $243 $242 $330 reversed $96 $-1 #
edge $-1 $334 -15.975277315542183 $378 15.975277315542183 $329 $379 forward 7 unknown #
edge $-1 $378 -66.662981524695724 $254 -46.0174159625127 $243 $380 forward 7 unknown #
straight-curve $-1 -69.5516830957976 -46.0174159625127 0 0 0 -1 I I #
edge $-1 $334 -4.3751500321037611 $336 4.3751500321037611 $328 $381 forward 7 unknown #
vertex $-1 $247 $382 #
straight-curve $-1 -69.5516830957976 0 15.975277315542183 0 -1 0 I I #
vertex $-1 $248 $383 #
straight-curve $-1 -60.801383031590078 -56.340198743604212 15.975277315542183 0 1 0 I I #
point $-1 -69.5516830957976 -46.0174159625127 15.975277315542183 #
coedge $-1 $252 $251 $327 $377 forward $253 $-1 #
point $-1 -69.5516830957976 -46.0174159625127 -15.975277315542183 #
coedge $-1 $328 $327 $256 $342 reversed $158 $-1 #
edge $-1 $336 -15.975277315542183 $343 15.975277315542183 $256 $384 forward 7 unknown #
vertex $-1 $342 $385 #
straight-curve $-1 -60.801383031590078 -56.340198743604212 -15.975277315542183 0 -1 0 I I #
coedge $-1 $271 $270 $263 $346 forward $260 $-1 #
edge $-1 $347 81.668059544214017 $350 96.089883296449443 $345 $386 forward 7 unknown #
vertex $-1 $275 $387 #
straight-curve $-1 17.695645562685293 -18.713183524911571 15.975277315542186 1 0 0 I I #
edge $-1 $350 -13.909245216340928 $272 4.3013685991996429 $271 $388 forward 7 unknown #
vertex $-1 $349 $389 #
straight-curve $-1 -44.395122967518731 -18.713183524911571 81.339867656196077 -0.81915203911291934 0 0.57357644374324357 I I #
point $-1 48.955184646047698 -18.713183524911571 15.975277315542186 #
point $-1 69.5516830957976 -0.50256970937100043 1.5534535633067605 #
straight-curve $-1 69.5516830957976 0 15.975277315542183 0 1 0 I I #
vertex $-1 $278 $390 #
point $-1 56.5944319258194 -13.510151006185694 0.60830025165908541 #
vertex $-1 $282 $391 #
point $-1 56.5944319258194 -5.705602228096879 0.60830025165908541 #
edge $-1 $360 25.810010104148635 $363 36.000326138439711 $287 $392 forward 7 unknown #
vertex $-1 $301 $393 #
straight-curve $-1 -92.436800630319141 25.216237346869129 15.975277315542179 -1 0 0 I I #
edge $-1 $363 -15.397881875618488 $298 -4.2388290668827935 $297 $394 forward 7 unknown #
vertex $-1 $362 $395 #
straight-curve $-1 -69.551683095797586 25.216237346869129 5.7849612812511282 0.55919289150049634 0 0.82903758062907751 I I #
point $-1 -62.678228355428459 25.216237346869129 15.975277315542183 #
point $-1 -69.5516830957976 14.057184538133434 5.7849612812511069 #
straight-curve $-1 -69.5516830957976 0 15.975277315542183 0 -1 0 I I #
vertex $-1 $304 $396 #
point $-1 -63.991963974958864 19.636710942501281 11.25747023112833 #
straight-curve $-1 -69.5516830957976 46.0174159625127 0 0 0 -1 I I #
straight-curve $-1 0 46.0174159625127 -15.975277315542183 1 0 0 I I #
point $-1 69.5516830957976 46.0174159625127 -15.975277315542183 #
straight-curve $-1 -69.5516830957976 0 15.975277315542183 0 -1 0 I I #
point $-1 -69.5516830957976 46.0174159625127 15.975277315542183 #
straight-curve $-1 69.5516830957976 46.0174159625127 0 0 0 -1 I I #
point $-1 -69.5516830957976 46.0174159625127 -15.975277315542183 #
edge $-1 $343 -4.3751500321037611 $378 4.3751500321037611 $327 $397 forward 7 unknown #
vertex $-1 $331 $398 #
straight-curve $-1 -69.5516830957976 -66.662981524695724 0 0 0 -1 I I #
straight-curve $-1 -69.5516830957976 0 -15.975277315542183 0 1 0 I I #
straight-curve $-1 -65.176533063693839 -66.662981524695724 15.975277315542183 1 0 0 I I #
point $-1 -69.5516830957976 -66.662981524695724 15.975277315542183 #
point $-1 -60.801383031590078 -66.662981524695724 15.975277315542183 #
straight-curve $-1 -60.801383031590078 -66.662981524695724 0 0 0 -1 I I #
point $-1 -60.801383031590078 -66.662981524695724 -15.975277315542183 #
straight-curve $-1 69.5516830957976 -18.713183524911571 97.643336859756204 0 0 -1 I I #
point $-1 69.5516830957976 -18.713183524911571 15.975277315542183 #
straight-curve $-1 69.551683095797614 -4.8039383085706433 1.5534535633067534 0 1 0 I I #
point $-1 69.5516830957976 -18.713183524911571 1.5534535633067605 #
point $-1 53.112610718678994 -13.510151006185694 -0.0056387367651040687 #
point $-1 53.112610718678994 -5.705602228096879 -0.0056387367651040687 #
straight-curve $-1 -69.5516830957976 25.216237346869129 41.785287419690818 0 0 -1 I I #
point $-1 -69.5516830957976 25.216237346869129 15.975277315542183 #
straight-curve $-1 -69.5516830957976 9.8183554712506407 5.7849612812510962 0 -1 0 I I #
point $-1 -69.5516830957976 25.216237346869129 5.7849612812511069 #
point $-1 -63.587196941265987 19.636710942501281 9.1751245229339702 #
straight-curve $-1 -65.176533063693839 -66.662981524695724 -15.975277315542183 -1 0 0 I I #
point $-1 -69.5516830957976 -66.662981524695724 -15.975277315542183 #
End-of-ACIS-data 