500 0 7 0           
7 Unknown 11 ACIS 5.0 NT 24 Fri Mar 26 02:57:22 1999 
-1 9.9999999999999995e-007 1e-010 
body $-1 $7 $-1 $8 #
body $-1 $9 $-1 $10 #
body $-1 $11 $-1 $12 #
body $-1 $13 $-1 $14 #
body $-1 $15 $-1 $16 #
body $-1 $17 $-1 $18 #
body $-1 $19 $-1 $20 #
lump $-1 $-1 $21 $0 #
transform $-1 1 0 0 0 1 0 0 0 1 50.813318277535323 27.810316578575385 6.1344464298418284 1 rotate no_reflect no_shear #
lump $-1 $-1 $22 $1 #
transform $-1 1 0 0 0 1 0 0 0 1 50.813318277535323 27.810316578575385 6.1344464298418284 1 rotate no_reflect no_shear #
lump $-1 $-1 $23 $2 #
transform $-1 1 0 0 0 1 0 0 0 1 50.813318277535323 27.810316578575385 6.1344464298418284 1 rotate no_reflect no_shear #
lump $-1 $-1 $24 $3 #
transform $-1 1 0 0 0 1 0 0 0 1 50.813318277535323 27.810316578575385 6.1344464298418284 1 rotate no_reflect no_shear #
lump $-1 $-1 $25 $4 #
transform $-1 1 0 0 0 1 0 0 0 1 50.813318277535323 27.810316578575385 6.1344464298418284 1 rotate no_reflect no_shear #
lump $-1 $-1 $26 $5 #
transform $-1 1 0 0 0 1 0 0 0 1 50.813318277535323 27.810316578575385 6.1344464298418284 1 rotate no_reflect no_shear #
lump $-1 $-1 $27 $6 #
transform $-1 1 0 0 0 1 0 0 0 1 50.813318277535323 27.810316578575385 6.1344464298418284 1 rotate no_reflect no_shear #
shell $-1 $-1 $-1 $28 $-1 $7 #
shell $-1 $-1 $-1 $29 $-1 $9 #
shell $-1 $-1 $-1 $30 $-1 $11 #
shell $-1 $-1 $-1 $31 $-1 $13 #
shell $-1 $-1 $-1 $32 $-1 $15 #
shell $-1 $-1 $-1 $33 $-1 $17 #
shell $-1 $-1 $-1 $34 $-1 $19 #
face $-1 $35 $36 $21 $-1 $37 forward single #
face $-1 $38 $39 $22 $-1 $40 forward single #
face $-1 $41 $42 $23 $-1 $43 forward single #
face $-1 $44 $45 $24 $-1 $46 reversed single #
face $-1 $47 $48 $25 $-1 $49 forward single #
face $-1 $50 $51 $26 $-1 $52 reversed single #
face $-1 $53 $54 $27 $-1 $55 forward single #
face $-1 $56 $57 $21 $-1 $58 reversed single #
loop $-1 $-1 $59 $28 #
plane-surface $-1 0 0 6.1344464298418284 0 0 1 1 0 0 forward_v I I I I #
face $-1 $60 $61 $22 $-1 $62 reversed single #
loop $-1 $-1 $63 $29 #
plane-surface $-1 0 -27.810316578575385 0 0 1 0 0 0 1 forward_v I I I I #
face $-1 $64 $65 $23 $-1 $66 reversed single #
loop $-1 $-1 $67 $30 #
plane-surface $-1 0 27.810316578575385 0 0 -1 0 0 0 -1 forward_v I I I I #
face $-1 $68 $69 $24 $-1 $70 reversed single #
loop $-1 $-1 $71 $31 #
plane-surface $-1 -129.79204929375325 8.5678923507601965 65.708084118611424 0 1 0 -0.77714596973225614 0 0.62932038083071107 forward_v I I I I #
face $-1 $72 $73 $25 $-1 $74 forward single #
loop $-1 $75 $76 $32 #
cone-surface $-1 -47.984494967051035 12.951420314387956 3.0894460403571733 0.77714596973225614 0 -0.62932038083071107 0.62932038083071107 0 0.77714596973225614 1 I I 0 1 1 forward I I I I #
face $-1 $77 $78 $26 $-1 $79 reversed single #
loop $-1 $-1 $80 $33 #
plane-surface $-1 63.339497537473498 20.670694849945374 143.74441433742192 0 -1 0 -0.7660444514056185 0 -0.64278759981090561 forward_v I I I I #
face $-1 $81 $82 $27 $-1 $83 forward single #
loop $-1 $84 $85 $34 #
cone-surface $-1 47.742769225679943 15.82085050737879 2.734590755308834 -0.7660444514056185 0 -0.64278759981090561 0.3213937999054528 0 -0.38302222570280925 1 I I 0 1 0.5 forward I I I I #
face $-1 $86 $87 $21 $-1 $88 reversed single #
loop $-1 $-1 $89 $35 #
plane-surface $-1 0 0 -6.1344464298418284 0 0 1 1 0 0 forward_v I I I I #
coedge $-1 $90 $91 $92 $93 forward $36 $-1 #
face $-1 $94 $95 $22 $-1 $96 reversed single #
loop $-1 $-1 $97 $38 #
plane-surface $-1 0 0 -6.1344464298418284 0 0 1 1 0 0 forward_v I I I I #
coedge $-1 $98 $99 $100 $101 forward $39 $-1 #
face $-1 $102 $103 $23 $-1 $104 reversed single #
loop $-1 $-1 $105 $41 #
plane-surface $-1 0 0 -6.1344464298418284 0 0 1 1 0 0 forward_v I I I I #
coedge $-1 $106 $107 $108 $109 forward $42 $-1 #
face $-1 $110 $111 $24 $-1 $112 reversed single #
loop $-1 $-1 $113 $44 #
plane-surface $-1 -50.81331827753533 12.951420314387956 1.7523704992301035 -0.77714596973225614 0 0.62932038083071107 0.62932038083071107 0 0.77714596973225614 forward_v I I I I #
coedge $-1 $114 $115 $116 $117 reversed $45 $-1 #
face $-1 $-1 $118 $25 $-1 $119 forward single #
loop $-1 $120 $121 $47 #
cone-surface $-1 -46.541366184425264 12.951420314387956 1.9208234257630306 0.77714596973225614 0 -0.62932038083071107 0.31466019041535553 0 0.38857298486612807 1 I I -0.70710678118654746 0.70710678118654746 0.5 forward I I I I #
loop $-1 $-1 $122 $32 #
coedge $-1 $76 $76 $123 $124 reversed $48 $-1 #
face $-1 $125 $126 $26 $-1 $127 reversed single #
loop $-1 $-1 $128 $50 #
plane-surface $-1 -14.511023510553777 15.82085050737879 78.420072549332815 0.7660444514056185 0 0.64278759981090561 0.64278759981090561 0 -0.7660444514056185 forward_v I I I I #
coedge $-1 $129 $130 $131 $132 reversed $51 $-1 #
face $-1 $-1 $133 $27 $-1 $134 forward single #
loop $-1 $135 $136 $53 #
cone-surface $-1 46.81545964088415 15.82085050737879 1.9564856450912504 -0.7660444514056185 0 -0.64278759981090561 0.1606968999527264 0 -0.19151111285140462 1 I I -0.70710678118654746 0.70710678118654746 0.25 forward I I I I #
loop $-1 $-1 $137 $34 #
coedge $-1 $85 $85 $138 $139 reversed $54 $-1 #
face $-1 $140 $141 $21 $-1 $142 reversed single #
loop $-1 $-1 $143 $56 #
plane-surface $-1 0 -27.810316578575385 0 0 1 0 0 0 1 forward_v I I I I #
coedge $-1 $144 $145 $146 $147 forward $57 $-1 #
coedge $-1 $148 $59 $149 $150 forward $36 $-1 #
coedge $-1 $59 $148 $151 $152 forward $36 $-1 #
coedge $-1 $153 $154 $59 $93 reversed $155 $-1 #
edge $-1 $156 -27.810316578575385 $157 27.810316578575385 $92 $158 forward 7 unknown #
face $-1 $159 $160 $22 $-1 $161 reversed single #
loop $-1 $-1 $162 $60 #
plane-surface $-1 -43.709608217098506 -34.557754593130568 0 0 1 0 0 0 1 forward_v I I I I #
coedge $-1 $163 $164 $99 $165 forward $61 $-1 #
coedge $-1 $166 $63 $167 $168 reversed $39 $-1 #
coedge $-1 $63 $166 $97 $165 reversed $39 $-1 #
coedge $-1 $169 $170 $63 $101 reversed $160 $-1 #
edge $-1 $171 -6.1344464298418284 $172 6.1344464298418284 $100 $173 forward 7 unknown #
face $-1 $174 $175 $23 $-1 $176 reversed single #
loop $-1 $-1 $177 $64 #
plane-surface $-1 -47.562826995128482 31.380127442890394 0 1 0 0 0 0 -1 forward_v I I I I #
coedge $-1 $178 $179 $107 $180 forward $65 $-1 #
coedge $-1 $181 $67 $182 $183 reversed $42 $-1 #
coedge $-1 $67 $181 $105 $180 reversed $42 $-1 #
coedge $-1 $184 $185 $67 $109 reversed $186 $-1 #
edge $-1 $187 -6.1344464298418284 $188 6.1344464298418284 $108 $189 forward 7 unknown #
face $-1 $190 $191 $24 $-1 $192 reversed single #
loop $-1 $-1 $193 $68 #
plane-surface $-1 -129.79204929375325 17.334948278015716 65.708084118611424 0 -1 0 0.77714596973225614 0 -0.62932038083071107 forward_v I I I I #
coedge $-1 $194 $195 $196 $197 reversed $69 $-1 #
coedge $-1 $115 $71 $198 $199 reversed $45 $-1 #
coedge $-1 $71 $114 $194 $200 reversed $45 $-1 #
coedge $-1 $196 $201 $71 $117 forward $202 $-1 #
edge $-1 $203 14.082706369341302 $204 17.631241394790585 $116 $205 forward 7 unknown #
loop $-1 $-1 $123 $72 #
plane-surface $-1 -50.81331827753533 12.951420314387956 1.7523704992301035 -0.77714596973225614 0 0.62932038083071107 0.62932038083071107 0 0.77714596973225614 forward_v I I I I #
loop $-1 $-1 $206 $47 #
coedge $-1 $121 $121 $122 $207 reversed $73 $-1 #
coedge $-1 $122 $122 $121 $207 forward $75 $-1 #
coedge $-1 $123 $123 $76 $124 forward $118 $-1 #
edge $-1 $208 0 $208 6.2831853071796004 $123 $209 forward 7 unknown #
face $-1 $210 $211 $26 $-1 $212 forward single #
loop $-1 $-1 $213 $77 #
plane-surface $-1 63.339497537473498 10.971006164812206 143.74441433742192 0 1 0 0.7660444514056185 0 0.64278759981090561 forward_v I I I I #
coedge $-1 $214 $215 $216 $217 reversed $78 $-1 #
coedge $-1 $130 $80 $218 $219 reversed $51 $-1 #
coedge $-1 $80 $129 $214 $220 reversed $51 $-1 #
coedge $-1 $216 $221 $80 $132 forward $211 $-1 #
edge $-1 $222 -19.143569508798574 $223 -14.474068348976612 $131 $224 forward 7 unknown #
loop $-1 $-1 $138 $81 #
plane-surface $-1 -14.511023510553777 15.82085050737879 78.420072549332815 0.7660444514056185 0 0.64278759981090561 0.64278759981090561 0 -0.7660444514056185 forward_v I I I I #
loop $-1 $-1 $225 $53 #
coedge $-1 $136 $136 $137 $226 reversed $82 $-1 #
coedge $-1 $137 $137 $136 $226 forward $84 $-1 #
coedge $-1 $138 $138 $85 $139 forward $133 $-1 #
edge $-1 $227 0 $227 6.2831853071796004 $138 $228 forward 7 unknown #
face $-1 $229 $230 $21 $-1 $231 reversed single #
loop $-1 $-1 $232 $86 #
plane-surface $-1 -50.813318277535323 0 0 1 0 0 0 0 -1 forward_v I I I I #
coedge $-1 $233 $151 $234 $235 forward $87 $-1 #
coedge $-1 $236 $89 $233 $237 forward $57 $-1 #
coedge $-1 $89 $236 $238 $239 forward $57 $-1 #
coedge $-1 $154 $153 $89 $147 reversed $155 $-1 #
edge $-1 $240 -27.810316578575385 $241 27.810316578575385 $146 $242 forward 7 unknown #
coedge $-1 $91 $90 $243 $244 forward $36 $-1 #
coedge $-1 $245 $246 $90 $150 reversed $230 $-1 #
edge $-1 $157 -50.813318277535323 $247 50.813318277535323 $149 $248 forward 7 unknown #
coedge $-1 $143 $249 $91 $152 reversed $87 $-1 #
edge $-1 $250 -50.813318277535323 $156 50.813318277535323 $151 $251 forward 7 unknown #
coedge $-1 $146 $92 $249 $252 forward $155 $-1 #
coedge $-1 $92 $146 $245 $253 reversed $155 $-1 #
loop $-1 $-1 $153 $229 #
vertex $-1 $93 $254 #
vertex $-1 $93 $255 #
straight-curve $-1 50.813318277535323 0 6.1344464298418284 0 1 0 I I #
face $-1 $256 $257 $22 $-1 $258 reversed single #
loop $-1 $-1 $100 $94 #
plane-surface $-1 -45.209608217098506 -31.184035585852978 0 1 0 0 0 0 -1 forward_v I I I I #
coedge $-1 $259 $260 $261 $262 forward $95 $-1 #
coedge $-1 $263 $97 $264 $265 forward $61 $-1 #
coedge $-1 $97 $263 $169 $266 forward $61 $-1 #
edge $-1 $171 -45.209608217098506 $267 -42.209608217098506 $97 $268 forward 7 unknown #
coedge $-1 $99 $98 $269 $270 forward $39 $-1 #
coedge $-1 $271 $272 $98 $168 forward $273 $-1 #
edge $-1 $274 42.209608217098506 $172 45.209608217098506 $167 $275 forward 7 unknown #
coedge $-1 $261 $100 $164 $266 reversed $160 $-1 #
coedge $-1 $100 $261 $271 $276 reversed $160 $-1 #
vertex $-1 $165 $277 #
vertex $-1 $276 $278 #
straight-curve $-1 -45.209608217098506 -27.810316578575385 0 0 0 1 I I #
face $-1 $279 $186 $23 $-1 $280 reversed single #
loop $-1 $-1 $281 $102 #
plane-surface $-1 -46.062826995128482 34.9499383072054 0 0 -1 0 0 0 -1 forward_v I I I I #
coedge $-1 $282 $283 $284 $285 forward $103 $-1 #
coedge $-1 $286 $105 $282 $287 forward $65 $-1 #
coedge $-1 $105 $286 $184 $288 forward $65 $-1 #
edge $-1 $187 44.562826995128482 $289 47.562826995128482 $105 $290 forward 7 unknown #
coedge $-1 $107 $106 $291 $292 forward $42 $-1 #
coedge $-1 $293 $294 $106 $183 forward $295 $-1 #
edge $-1 $296 -47.562826995128482 $188 -44.562826995128482 $182 $297 forward 7 unknown #
coedge $-1 $298 $108 $179 $288 reversed $186 $-1 #
coedge $-1 $108 $298 $293 $299 reversed $186 $-1 #
loop $-1 $-1 $108 $174 #
vertex $-1 $180 $300 #
vertex $-1 $299 $301 #
straight-curve $-1 -44.562826995128482 27.810316578575385 0 0 0 1 I I #
face $-1 $-1 $202 $24 $-1 $302 forward single #
loop $-1 $-1 $303 $110 #
plane-surface $-1 -50.813318277535323 0 0 1 0 0 0 0 -1 forward_v I I I I #
coedge $-1 $304 $305 $306 $307 reversed $111 $-1 #
coedge $-1 $308 $113 $115 $200 forward $69 $-1 #
coedge $-1 $113 $308 $304 $309 forward $69 $-1 #
coedge $-1 $306 $116 $113 $197 forward $202 $-1 #
edge $-1 $204 2.0921821935662184 $310 10.859238120821738 $196 $311 forward 7 unknown #
coedge $-1 $312 $313 $114 $199 forward $191 $-1 #
edge $-1 $314 -31.101671560075602 $203 -26.719595629463882 $198 $315 forward 7 unknown #
edge $-1 $204 -5.6386780621424926 $314 -1.1374033043381581e-014 $115 $316 forward 7 unknown #
coedge $-1 $116 $306 $312 $317 forward $202 $-1 #
loop $-1 $-1 $306 $190 #
vertex $-1 $199 $318 #
vertex $-1 $117 $319 #
straight-curve $-1 -64.896024646876626 8.5678923507601965 6.1344464298418302 1 0 0 I I #
coedge $-1 $206 $206 $-1 $320 reversed $120 $-1 #
edge $-1 $321 0 $321 6.2831853071796004 $121 $322 forward 7 unknown #
vertex $-1 $124 $323 #
ellipse-curve $-1 -49.039050764810682 12.951420314387956 3.9434084645359677 -0.77714596973225614 0 0.62932038083071107 0.62932038083071107 0 0.77714596973225614 1 I I #
face $-1 $-1 $324 $26 $-1 $325 reversed single #
loop $-1 $-1 $131 $125 #
plane-surface $-1 0 0 6.1344464298418284 0 0 1 1 0 0 forward_v I I I I #
coedge $-1 $326 $327 $328 $329 reversed $126 $-1 #
coedge $-1 $330 $128 $130 $220 forward $78 $-1 #
coedge $-1 $128 $330 $326 $331 forward $78 $-1 #
coedge $-1 $328 $131 $128 $217 forward $211 $-1 #
edge $-1 $223 -12.760269596255979 $332 -3.0605809111228108 $216 $333 forward 7 unknown #
coedge $-1 $334 $335 $129 $219 forward $324 $-1 #
edge $-1 $336 -71.302655667405418 $222 -65.737760738869127 $218 $337 forward 7 unknown #
edge $-1 $223 94.362182229573975 $336 101.62663655507068 $130 $338 forward 7 unknown #
coedge $-1 $131 $328 $334 $339 forward $211 $-1 #
vertex $-1 $132 $340 #
vertex $-1 $132 $341 #
straight-curve $-1 31.669748768736749 20.670694849945374 6.1344464298418302 -1 0 0 I I #
coedge $-1 $225 $225 $-1 $342 reversed $135 $-1 #
edge $-1 $343 0 $343 6.2831853071796004 $136 $344 forward 7 unknown #
vertex $-1 $139 $345 #
ellipse-curve $-1 48.478567697624342 15.82085050737879 3.3519989655736966 0.7660444514056185 0 0.64278759981090561 0.3213937999054528 0 -0.38302222570280925 1 I I #
face $-1 $-1 $155 $21 $-1 $346 reversed single #
loop $-1 $-1 $245 $140 #
plane-surface $-1 0 27.810316578575385 0 0 -1 0 0 0 -1 forward_v I I I I #
coedge $-1 $347 $243 $246 $348 forward $141 $-1 #
coedge $-1 $249 $143 $144 $237 reversed $87 $-1 #
coedge $-1 $243 $347 $143 $235 reversed $141 $-1 #
edge $-1 $250 -6.1344464298418284 $349 6.1344464298418284 $234 $350 forward 7 unknown #
coedge $-1 $145 $144 $347 $351 forward $57 $-1 #
edge $-1 $241 -50.813318277535323 $349 50.813318277535323 $233 $352 forward 7 unknown #
coedge $-1 $246 $245 $145 $239 reversed $230 $-1 #
edge $-1 $353 -50.813318277535323 $240 50.813318277535323 $238 $354 forward 7 unknown #
vertex $-1 $147 $355 #
vertex $-1 $252 $356 #
straight-curve $-1 50.813318277535323 0 -6.1344464298418284 0 -1 0 I I #
coedge $-1 $232 $234 $148 $244 reversed $141 $-1 #
edge $-1 $247 -27.810316578575385 $250 27.810316578575385 $243 $357 forward 7 unknown #
coedge $-1 $238 $149 $154 $253 forward $230 $-1 #
coedge $-1 $149 $238 $232 $348 reversed $230 $-1 #
vertex $-1 $150 $358 #
straight-curve $-1 0 27.810316578575385 6.1344464298418284 -1 0 0 I I #
coedge $-1 $151 $233 $153 $252 reversed $87 $-1 #
vertex $-1 $244 $359 #
straight-curve $-1 0 -27.810316578575385 6.1344464298418284 1 0 0 I I #
edge $-1 $156 -6.1344464298418284 $241 6.1344464298418284 $153 $360 forward 7 unknown #
edge $-1 $157 -6.1344464298418284 $240 6.1344464298418284 $154 $361 forward 7 unknown #
point $-1 50.813318277535323 -27.810316578575385 6.1344464298418284 #
point $-1 50.813318277535323 27.810316578575385 6.1344464298418284 #
face $-1 $-1 $273 $22 $-1 $362 forward single #
loop $-1 $-1 $363 $159 #
plane-surface $-1 -42.209608217098506 -31.184035585852978 0 -1 0 0 0 0 1 forward_v I I I I #
coedge $-1 $364 $162 $263 $365 reversed $95 $-1 #
coedge $-1 $162 $364 $366 $367 reversed $95 $-1 #
coedge $-1 $170 $169 $162 $262 reversed $160 $-1 #
edge $-1 $368 -6.1344464298418284 $369 6.1344464298418284 $261 $370 forward 7 unknown #
coedge $-1 $164 $163 $259 $365 forward $61 $-1 #
coedge $-1 $269 $363 $163 $265 reversed $257 $-1 #
edge $-1 $267 -3.3737190072775931 $371 3.3737190072775896 $264 $372 forward 7 unknown #
edge $-1 $369 -3.3737190072775896 $171 3.3737190072775931 $169 $373 forward 7 unknown #
vertex $-1 $265 $374 #
straight-curve $-1 0 -27.810316578575385 -6.1344464298418284 1 0 0 I I #
coedge $-1 $375 $264 $166 $270 reversed $257 $-1 #
edge $-1 $274 -6.1344464298418284 $267 6.1344464298418284 $269 $376 forward 7 unknown #
coedge $-1 $366 $167 $170 $276 forward $273 $-1 #
coedge $-1 $167 $366 $375 $377 forward $273 $-1 #
loop $-1 $-1 $167 $256 #
vertex $-1 $168 $378 #
straight-curve $-1 0 -27.810316578575385 6.1344464298418284 -1 0 0 I I #
edge $-1 $172 -3.3737190072775931 $368 3.3737190072775896 $170 $379 forward 7 unknown #
point $-1 -45.209608217098506 -27.810316578575385 -6.1344464298418284 #
point $-1 -45.209608217098506 -27.810316578575385 6.1344464298418284 #
face $-1 $-1 $295 $23 $-1 $380 forward single #
plane-surface $-1 -44.562826995128482 31.380127442890394 0 -1 0 0 0 0 1 forward_v I I I I #
coedge $-1 $381 $382 $298 $383 forward $175 $-1 #
coedge $-1 $291 $177 $178 $287 reversed $103 $-1 #
coedge $-1 $177 $291 $294 $384 reversed $103 $-1 #
coedge $-1 $382 $381 $177 $285 reversed $175 $-1 #
edge $-1 $385 -6.1344464298418284 $386 6.1344464298418284 $284 $387 forward 7 unknown #
coedge $-1 $179 $178 $381 $388 forward $65 $-1 #
edge $-1 $289 -3.5698108643150057 $386 3.5698108643150057 $282 $389 forward 7 unknown #
edge $-1 $390 -3.5698108643150057 $187 3.5698108643150057 $184 $391 forward 7 unknown #
vertex $-1 $287 $392 #
straight-curve $-1 0 27.810316578575385 -6.1344464298418284 -1 0 0 I I #
coedge $-1 $283 $282 $181 $292 reversed $103 $-1 #
edge $-1 $296 -6.1344464298418284 $289 6.1344464298418284 $291 $393 forward 7 unknown #
coedge $-1 $394 $182 $185 $299 forward $295 $-1 #
coedge $-1 $182 $394 $283 $384 forward $295 $-1 #
loop $-1 $-1 $182 $279 #
vertex $-1 $183 $395 #
straight-curve $-1 0 27.810316578575385 6.1344464298418284 1 0 0 I I #
coedge $-1 $185 $184 $281 $383 reversed $186 $-1 #
edge $-1 $188 -3.5698108643150057 $396 3.5698108643150057 $185 $397 forward 7 unknown #
point $-1 -44.562826995128482 27.810316578575389 -6.1344464298418284 #
point $-1 -44.562826995128482 27.810316578575389 6.1344464298418284 #
plane-surface $-1 0 0 6.1344464298418284 0 0 1 1 0 0 forward_v I I I I #
coedge $-1 $313 $312 $305 $398 forward $191 $-1 #
coedge $-1 $305 $193 $195 $309 reversed $111 $-1 #
coedge $-1 $193 $304 $303 $398 reversed $111 $-1 #
coedge $-1 $201 $196 $193 $307 forward $202 $-1 #
edge $-1 $310 -17.631241394790585 $399 -14.082706369341302 $306 $400 forward 7 unknown #
coedge $-1 $195 $194 $313 $401 reversed $69 $-1 #
edge $-1 $402 1.1374033043381581e-014 $310 5.6386780621424926 $304 $403 forward 7 unknown #
vertex $-1 $197 $404 #
straight-curve $-1 -47.26478325208604 6.4757101571939781 6.1344464298418284 0 1 0 I I #
coedge $-1 $303 $198 $201 $317 reversed $191 $-1 #
coedge $-1 $198 $303 $308 $401 forward $191 $-1 #
vertex $-1 $199 $405 #
straight-curve $-1 -50.813318277535323 8.5678923507601965 32.854042059305712 0 0 1 I I #
straight-curve $-1 -50.81331827753533 8.5678923507601965 1.7523704992301035 -0.62932038083071107 0 -0.77714596973225614 I I #
edge $-1 $399 -17.334948278015716 $203 -8.5678923507601965 $312 $406 forward 7 unknown #
point $-1 -50.813318277535323 8.5678923507601965 6.1344464298418284 #
point $-1 -47.26478325208604 8.5678923507601965 6.1344464298418284 #
edge $-1 $407 1 $407 0 $206 $-1 forward 7 unknown #
vertex $-1 $207 $408 #
ellipse-curve $-1 -46.929939169291394 12.951420314387956 2.235483616178386 -0.77714596973225614 0 0.62932038083071107 0.62932038083071107 0 0.77714596973225614 1 I I #
point $-1 -48.409730383979962 12.951420314387956 4.720554434268216 #
loop $-1 $-1 $218 $210 #
plane-surface $-1 50.813318277535323 0 0 -1 0 0 0 0 1 forward_v I I I I #
coedge $-1 $327 $213 $215 $331 reversed $126 $-1 #
coedge $-1 $213 $326 $409 $410 reversed $126 $-1 #
coedge $-1 $221 $216 $213 $329 forward $211 $-1 #
edge $-1 $332 14.474068348976612 $411 19.143569508798574 $328 $412 forward 7 unknown #
coedge $-1 $215 $214 $335 $413 reversed $78 $-1 #
edge $-1 $414 -101.62663655507068 $332 -94.362182229573975 $326 $415 forward 7 unknown #
vertex $-1 $217 $416 #
straight-curve $-1 46.143817117713354 7.9104252536893949 6.1344464298418302 0 -1 0 I I #
coedge $-1 $409 $218 $221 $339 reversed $324 $-1 #
coedge $-1 $218 $409 $330 $413 forward $324 $-1 #
vertex $-1 $219 $417 #
straight-curve $-1 50.813318277535323 20.670694849945374 71.872207168710958 0 0 1 I I #
straight-curve $-1 -14.511023510553777 20.670694849945374 78.420072549332815 0.64278759981090561 0 -0.7660444514056185 I I #
edge $-1 $411 10.971006164812206 $222 20.670694849945374 $334 $418 forward 7 unknown #
point $-1 50.813318277535323 20.670694849945374 6.1344464298418284 #
point $-1 46.143817117713361 20.670694849945374 6.1344464298418302 #
edge $-1 $419 1 $419 0 $225 $-1 forward 7 unknown #
vertex $-1 $226 $420 #
ellipse-curve $-1 47.006970753735551 15.82085050737879 2.1171825450439767 0.7660444514056185 0 0.64278759981090561 0.3213937999054528 0 -0.38302222570280925 1 I I #
point $-1 48.799961497529793 15.82085050737879 2.968976739870882 #
plane-surface $-1 50.813318277535323 0 0 -1 0 0 0 0 1 forward_v I I I I #
coedge $-1 $234 $232 $236 $351 reversed $141 $-1 #
edge $-1 $247 -6.1344464298418284 $353 6.1344464298418284 $246 $421 forward 7 unknown #
vertex $-1 $351 $422 #
straight-curve $-1 -50.813318277535323 -27.810316578575385 0 0 0 -1 I I #
edge $-1 $349 -27.810316578575385 $353 27.810316578575385 $347 $423 forward 7 unknown #
straight-curve $-1 0 -27.810316578575385 -6.1344464298418284 -1 0 0 I I #
vertex $-1 $239 $424 #
straight-curve $-1 0 27.810316578575385 -6.1344464298418284 1 0 0 I I #
point $-1 50.813318277535323 27.810316578575385 -6.1344464298418284 #
point $-1 50.813318277535323 -27.810316578575385 -6.1344464298418284 #
straight-curve $-1 -50.813318277535323 0 6.1344464298418284 0 -1 0 I I #
point $-1 -50.813318277535323 27.810316578575385 6.1344464298418284 #
point $-1 -50.813318277535323 -27.810316578575385 6.1344464298418284 #
straight-curve $-1 50.813318277535323 -27.810316578575385 0 0 0 -1 I I #
straight-curve $-1 50.813318277535323 27.810316578575385 0 0 0 -1 I I #
plane-surface $-1 0 0 6.1344464298418284 0 0 1 1 0 0 forward_v I I I I #
coedge $-1 $264 $375 $364 $425 forward $257 $-1 #
coedge $-1 $260 $259 $363 $425 reversed $95 $-1 #
edge $-1 $371 -1.5 $369 1.5 $259 $426 forward 7 unknown #
coedge $-1 $272 $271 $260 $367 forward $273 $-1 #
edge $-1 $368 -1.5 $427 1.5 $260 $428 forward 7 unknown #
vertex $-1 $276 $429 #
vertex $-1 $266 $430 #
straight-curve $-1 -45.209608217098506 -34.557754593130568 0 0 0 -1 I I #
vertex $-1 $425 $431 #
straight-curve $-1 -42.209608217098506 -31.184035585852978 -6.1344464298418284 0 -1 0 I I #
straight-curve $-1 -45.209608217098506 -31.184035585852978 -6.1344464298418284 0 1 0 I I #
point $-1 -42.209608217098506 -27.810316578575385 -6.1344464298418284 #
coedge $-1 $363 $269 $272 $377 reversed $257 $-1 #
straight-curve $-1 -42.209608217098506 -27.810316578575385 0 0 0 -1 I I #
edge $-1 $427 -3.3737190072775896 $274 3.3737190072775931 $375 $432 forward 7 unknown #
point $-1 -42.209608217098506 -27.810316578575385 6.1344464298418284 #
straight-curve $-1 -45.209608217098506 -31.184035585852978 6.1344464298418284 0 -1 0 I I #
plane-surface $-1 0 0 6.1344464298418284 0 0 1 1 0 0 forward_v I I I I #
coedge $-1 $284 $281 $286 $388 reversed $175 $-1 #
coedge $-1 $281 $284 $394 $433 reversed $175 $-1 #
edge $-1 $396 -6.1344464298418284 $390 6.1344464298418284 $298 $434 forward 7 unknown #
edge $-1 $385 -3.5698108643150057 $296 3.5698108643150057 $283 $435 forward 7 unknown #
vertex $-1 $433 $436 #
vertex $-1 $388 $437 #
straight-curve $-1 -47.562826995128482 34.9499383072054 0 0 0 -1 I I #
edge $-1 $386 -1.5 $390 1.5 $381 $438 forward 7 unknown #
straight-curve $-1 -47.562826995128482 31.380127442890394 -6.1344464298418284 0 1 0 I I #
vertex $-1 $288 $439 #
straight-curve $-1 -44.562826995128482 31.380127442890394 -6.1344464298418284 0 -1 0 I I #
point $-1 -47.562826995128482 27.810316578575389 -6.1344464298418284 #
straight-curve $-1 -47.562826995128482 27.810316578575385 0 0 0 -1 I I #
coedge $-1 $294 $293 $382 $433 forward $295 $-1 #
point $-1 -47.562826995128482 27.810316578575389 6.1344464298418284 #
vertex $-1 $299 $440 #
straight-curve $-1 -44.562826995128482 31.380127442890394 6.1344464298418284 0 1 0 I I #
edge $-1 $399 26.719595629463882 $402 31.101671560075602 $303 $441 forward 7 unknown #
vertex $-1 $317 $442 #
straight-curve $-1 -64.896024646876626 17.334948278015716 6.1344464298418302 -1 0 0 I I #
edge $-1 $402 -10.859238120821738 $314 -2.0921821935662184 $313 $443 forward 7 unknown #
vertex $-1 $401 $444 #
straight-curve $-1 -50.81331827753533 17.334948278015716 1.7523704992301035 0.62932038083071107 0 0.77714596973225614 I I #
point $-1 -47.26478325208604 17.334948278015716 6.1344464298418284 #
point $-1 -50.813318277535323 8.5678923507601965 1.7523704992301123 #
straight-curve $-1 -50.813318277535323 0 6.1344464298418284 0 -1 0 I I #
vertex $-1 $320 $445 #
point $-1 -46.300618788460682 12.951420314387956 3.0126295859106422 #
coedge $-1 $335 $334 $327 $410 forward $324 $-1 #
edge $-1 $411 65.737760738869127 $414 71.302655667405418 $409 $446 forward 7 unknown #
vertex $-1 $339 $447 #
straight-curve $-1 31.669748768736749 10.971006164812206 6.1344464298418302 1 0 0 I I #
edge $-1 $414 3.0605809111228108 $336 12.760269596255979 $335 $448 forward 7 unknown #
vertex $-1 $413 $449 #
straight-curve $-1 -14.511023510553777 10.971006164812206 78.420072549332815 -0.64278759981090561 0 0.7660444514056185 I I #
point $-1 46.143817117713361 10.971006164812206 6.1344464298418302 #
point $-1 50.813318277535323 20.670694849945374 0.56955150130553989 #
straight-curve $-1 50.813318277535323 0 6.1344464298418284 0 1 0 I I #
vertex $-1 $342 $450 #
point $-1 47.328364553641009 15.82085050737879 1.7341603193411677 #
straight-curve $-1 -50.813318277535323 27.810316578575385 0 0 0 -1 I I #
point $-1 -50.813318277535323 -27.810316578575385 -6.1344464298418284 #
straight-curve $-1 -50.813318277535323 0 -6.1344464298418284 0 1 0 I I #
point $-1 -50.813318277535323 27.810316578575385 -6.1344464298418284 #
edge $-1 $427 -6.1344464298418284 $371 6.1344464298418284 $363 $451 forward 7 unknown #
straight-curve $-1 -43.709608217098506 -34.557754593130568 -6.1344464298418284 -1 0 0 I I #
vertex $-1 $377 $452 #
straight-curve $-1 -43.709608217098506 -34.557754593130568 6.1344464298418284 1 0 0 I I #
point $-1 -45.209608217098506 -34.557754593130568 6.1344464298418284 #
point $-1 -45.209608217098506 -34.557754593130568 -6.1344464298418284 #
point $-1 -42.209608217098506 -34.557754593130568 -6.1344464298418284 #
straight-curve $-1 -42.209608217098506 -31.184035585852978 6.1344464298418284 0 1 0 I I #
edge $-1 $396 -1.5 $385 1.5 $382 $453 forward 7 unknown #
straight-curve $-1 -44.562826995128482 34.9499383072054 0 0 0 -1 I I #
straight-curve $-1 -47.562826995128482 31.380127442890394 6.1344464298418284 0 -1 0 I I #
point $-1 -47.562826995128482 34.9499383072054 6.1344464298418284 #
point $-1 -47.562826995128482 34.9499383072054 -6.1344464298418284 #
straight-curve $-1 -46.062826995128482 34.9499383072054 -6.1344464298418284 1 0 0 I I #
point $-1 -44.562826995128482 34.9499383072054 -6.1344464298418284 #
point $-1 -44.562826995128482 34.9499383072054 6.1344464298418284 #
straight-curve $-1 -50.813318277535323 17.334948278015716 32.854042059305712 0 0 -1 I I #
point $-1 -50.813318277535323 17.334948278015716 6.1344464298418284 #
straight-curve $-1 -50.813318277535323 6.4757101571939781 1.7523704992301155 0 -1 0 I I #
point $-1 -50.813318277535323 17.334948278015716 1.7523704992301123 #
point $-1 -46.152793199559135 12.951420314387956 1.6061632353476751 #
straight-curve $-1 50.813318277535323 10.971006164812206 71.872207168710958 0 0 -1 I I #
point $-1 50.813318277535323 10.971006164812206 6.1344464298418284 #
straight-curve $-1 50.813318277535323 7.9104252536893949 0.56955150130554699 0 1 0 I I #
point $-1 50.813318277535323 10.971006164812206 0.56955150130553989 #
point $-1 46.623948528032749 15.82085050737879 1.7957887451385242 #
straight-curve $-1 -42.209608217098506 -34.557754593130568 0 0 0 -1 I I #
point $-1 -42.209608217098506 -34.557754593130568 6.1344464298418284 #
straight-curve $-1 -46.062826995128482 34.9499383072054 6.1344464298418284 -1 0 0 I I #
End-of-ACIS-data 