500 0 11 0           
7 Unknown 11 ACIS 5.0 NT 24 Thu Mar 25 23:01:34 1999 
-1 9.9999999999999995e-007 1e-010 
body $-1 $11 $-1 $12 #
body $-1 $13 $-1 $14 #
body $-1 $15 $-1 $16 #
body $-1 $17 $-1 $18 #
body $-1 $19 $-1 $20 #
body $-1 $21 $-1 $22 #
body $-1 $23 $-1 $24 #
body $-1 $25 $-1 $26 #
body $-1 $27 $-1 $28 #
body $-1 $29 $-1 $30 #
body $-1 $31 $-1 $32 #
lump $-1 $-1 $33 $0 #
transform $-1 1 0 0 0 1 0 0 0 1 64.950712607196266 29.381738420787649 12.395440511294906 1 rotate no_reflect no_shear #
lump $-1 $-1 $34 $1 #
transform $-1 1 0 0 0 1 0 0 0 1 64.950712607196266 29.381738420787649 12.395440511294906 1 rotate no_reflect no_shear #
lump $-1 $-1 $35 $2 #
transform $-1 1 0 0 0 1 0 0 0 1 64.950712607196266 29.381738420787649 12.395440511294906 1 rotate no_reflect no_shear #
lump $-1 $-1 $36 $3 #
transform $-1 1 0 0 0 1 0 0 0 1 64.950712607196266 29.381738420787649 12.395440511294906 1 rotate no_reflect no_shear #
lump $-1 $-1 $37 $4 #
transform $-1 1 0 0 0 1 0 0 0 1 64.950712607196266 29.381738420787649 12.395440511294906 1 rotate no_reflect no_shear #
lump $-1 $-1 $38 $5 #
transform $-1 1 0 0 0 1 0 0 0 1 64.950712607196266 29.381738420787649 12.395440511294906 1 rotate no_reflect no_shear #
lump $-1 $-1 $39 $6 #
transform $-1 1 0 0 0 1 0 0 0 1 64.950712607196266 29.381738420787649 12.395440511294906 1 rotate no_reflect no_shear #
lump $-1 $-1 $40 $7 #
transform $-1 1 0 0 0 1 0 0 0 1 64.950712607196266 29.381738420787649 12.395440511294906 1 rotate no_reflect no_shear #
lump $-1 $-1 $41 $8 #
transform $-1 1 0 0 0 1 0 0 0 1 64.950712607196266 29.381738420787649 12.395440511294906 1 rotate no_reflect no_shear #
lump $-1 $-1 $42 $9 #
transform $-1 1 0 0 0 1 0 0 0 1 64.950712607196266 29.381738420787649 12.395440511294906 1 rotate no_reflect no_shear #
lump $-1 $-1 $43 $10 #
transform $-1 1 0 0 0 1 0 0 0 1 64.950712607196266 29.381738420787649 12.395440511294906 1 rotate no_reflect no_shear #
shell $-1 $-1 $-1 $44 $-1 $11 #
shell $-1 $-1 $-1 $45 $-1 $13 #
shell $-1 $-1 $-1 $46 $-1 $15 #
shell $-1 $-1 $-1 $47 $-1 $17 #
shell $-1 $-1 $-1 $48 $-1 $19 #
shell $-1 $-1 $-1 $49 $-1 $21 #
shell $-1 $-1 $-1 $50 $-1 $23 #
shell $-1 $-1 $-1 $51 $-1 $25 #
shell $-1 $-1 $-1 $52 $-1 $27 #
shell $-1 $-1 $-1 $53 $-1 $29 #
shell $-1 $-1 $-1 $54 $-1 $31 #
face $-1 $55 $56 $33 $-1 $57 forward single #
face $-1 $58 $59 $34 $-1 $60 forward single #
face $-1 $61 $62 $35 $-1 $63 reversed single #
face $-1 $64 $65 $36 $-1 $66 forward single #
face $-1 $67 $68 $37 $-1 $69 forward single #
face $-1 $70 $71 $38 $-1 $72 reversed single #
face $-1 $73 $74 $39 $-1 $75 forward single #
face $-1 $76 $77 $40 $-1 $78 forward single #
face $-1 $79 $80 $41 $-1 $81 reversed single #
face $-1 $82 $83 $42 $-1 $84 forward single #
face $-1 $85 $86 $43 $-1 $87 forward single #
face $-1 $88 $89 $33 $-1 $90 reversed single #
loop $-1 $-1 $91 $44 #
plane-surface $-1 0 0 12.395440511294906 0 0 1 1 0 0 forward_v I I I I #
face $-1 $92 $93 $34 $-1 $94 forward single #
loop $-1 $-1 $95 $45 #
plane-surface $-1 0 -29.381738420787649 0 0 1 0 0 0 1 forward_v I I I I #
face $-1 $96 $97 $35 $-1 $98 reversed single #
loop $-1 $-1 $99 $46 #
plane-surface $-1 52.135867341229272 -8.4078700268254654 187.36374194949653 0 -1 0 -0.6560590369687036 0 -0.75470957328743171 forward_v I I I I #
face $-1 $100 $101 $36 $-1 $102 forward single #
loop $-1 $103 $104 $47 #
cone-surface $-1 59.608850937022503 -13.002150883276229 7.5910193198326761 -0.6560590369687036 0 -0.75470957328743171 0.37735478664371586 0 -0.3280295184843518 1 I I 0 1 0.5 forward I I I I #
face $-1 $105 $106 $37 $-1 $107 forward single #
loop $-1 $108 $109 $48 #
cone-surface $-1 59.608850937022503 -10.245582369405774 7.5910193198326761 -0.6560590369687036 0 -0.75470957328743171 0.37735478664371586 0 -0.3280295184843518 1 I I 0 1 0.5 forward I I I I #
face $-1 $110 $111 $38 $-1 $112 reversed single #
loop $-1 $-1 $113 $49 #
plane-surface $-1 52.135867341229272 22.949745221756586 187.36374194949653 0 1 0 0.6560590369687036 0 0.75470957328743171 forward_v I I I I #
face $-1 $114 $115 $39 $-1 $116 forward single #
loop $-1 $117 $118 $50 #
cone-surface $-1 59.608850937022503 24.78745756433689 7.5910193198326761 -0.6560590369687036 0 -0.75470957328743171 0.37735478664371586 0 -0.3280295184843518 1 I I 0 1 0.5 forward I I I I #
face $-1 $119 $120 $40 $-1 $121 forward single #
loop $-1 $122 $123 $51 #
cone-surface $-1 59.608850937022503 27.544026078207345 7.5910193198326761 -0.6560590369687036 0 -0.75470957328743171 0.37735478664371586 0 -0.3280295184843518 1 I I 0 1 0.5 forward I I I I #
face $-1 $124 $125 $41 $-1 $126 reversed single #
loop $-1 $-1 $127 $52 #
plane-surface $-1 -153.54327262649022 3.52770621328796 99.085270910412575 0 1 0 -0.68199836817093118 0 0.7313536940579346 forward_v I I I I #
face $-1 $128 $129 $42 $-1 $130 forward single #
loop $-1 $131 $132 $53 #
cone-surface $-1 -59.393691107935098 7.2416529488139219 7.0597133344320007 0.68199836817093118 0 -0.7313536940579346 0.7313536940579346 0 0.68199836817093118 1 I I 0 1 1 forward I I I I #
face $-1 $133 $134 $43 $-1 $135 forward single #
loop $-1 $136 $137 $54 #
cone-surface $-1 -59.393691107935098 12.812573052102863 7.0597133344320007 0.68199836817093118 0 -0.7313536940579346 0.7313536940579346 0 0.68199836817093118 1 I I 0 1 1 forward I I I I #
face $-1 $138 $139 $33 $-1 $140 reversed single #
loop $-1 $-1 $141 $55 #
plane-surface $-1 0 0 -12.395440511294906 0 0 1 1 0 0 forward_v I I I I #
coedge $-1 $142 $143 $144 $145 forward $56 $-1 #
face $-1 $146 $147 $34 $-1 $148 reversed single #
loop $-1 $-1 $149 $58 #
plane-surface $-1 0 0 12.395440511294906 0 0 1 1 0 0 forward_v I I I I #
coedge $-1 $150 $151 $152 $153 forward $59 $-1 #
face $-1 $154 $155 $35 $-1 $156 reversed single #
loop $-1 $-1 $157 $61 #
plane-surface $-1 -33.087136585787164 -11.623866626340998 89.325892756513113 0.6560590369687036 0 0.75470957328743171 0.75470957328743171 0 -0.6560590369687036 forward_v I I I I #
coedge $-1 $158 $159 $160 $161 reversed $62 $-1 #
face $-1 $-1 $162 $36 $-1 $163 forward single #
loop $-1 $164 $165 $64 #
cone-surface $-1 58.872719140765582 -13.002150883276229 6.7441965759476989 -0.6560590369687036 0 -0.75470957328743171 0.18867739332185793 0 -0.1640147592421759 1 I I -0.70710678118654746 0.70710678118654746 0.25 forward I I I I #
loop $-1 $-1 $166 $47 #
coedge $-1 $104 $104 $167 $168 reversed $65 $-1 #
face $-1 $-1 $169 $37 $-1 $170 forward single #
loop $-1 $171 $172 $67 #
cone-surface $-1 58.872719140765582 -10.245582369405774 6.7441965759476989 -0.6560590369687036 0 -0.75470957328743171 0.18867739332185793 0 -0.1640147592421759 1 I I -0.70710678118654746 0.70710678118654746 0.25 forward I I I I #
loop $-1 $-1 $173 $48 #
coedge $-1 $109 $109 $174 $175 reversed $68 $-1 #
face $-1 $176 $177 $38 $-1 $178 reversed single #
loop $-1 $-1 $179 $70 #
plane-surface $-1 -33.087136585787164 26.165741821272121 89.325892756513113 0.6560590369687036 0 0.75470957328743171 0.75470957328743171 0 -0.6560590369687036 forward_v I I I I #
coedge $-1 $180 $181 $182 $183 reversed $71 $-1 #
face $-1 $-1 $184 $39 $-1 $185 forward single #
loop $-1 $186 $187 $73 #
cone-surface $-1 58.872719140765582 24.78745756433689 6.7441965759476989 -0.6560590369687036 0 -0.75470957328743171 0.18867739332185793 0 -0.1640147592421759 1 I I -0.70710678118654746 0.70710678118654746 0.25 forward I I I I #
loop $-1 $-1 $188 $50 #
coedge $-1 $118 $118 $189 $190 reversed $74 $-1 #
face $-1 $-1 $191 $40 $-1 $192 forward single #
loop $-1 $193 $194 $76 #
cone-surface $-1 58.872719140765582 27.544026078207345 6.7441965759476989 -0.6560590369687036 0 -0.75470957328743171 0.18867739332185793 0 -0.1640147592421759 1 I I -0.70710678118654746 0.70710678118654746 0.25 forward I I I I #
loop $-1 $-1 $195 $51 #
coedge $-1 $123 $123 $196 $197 reversed $77 $-1 #
face $-1 $198 $199 $41 $-1 $200 reversed single #
loop $-1 $-1 $201 $79 #
plane-surface $-1 -64.950712607196266 10.027113000458392 4.0813837164760685 -0.68199836817093118 0 0.7313536940579346 0.7313536940579346 0 0.68199836817093118 forward_v I I I I #
coedge $-1 $202 $203 $204 $205 reversed $80 $-1 #
face $-1 $-1 $206 $42 $-1 $207 forward single #
loop $-1 $208 $209 $82 #
cone-surface $-1 -57.953537505565301 7.2416529488139219 5.5153377079495431 0.68199836817093118 0 -0.7313536940579346 0.3656768470289673 0 0.34099918408546559 1 I I -0.70710678118654746 0.70710678118654746 0.5 forward I I I I #
loop $-1 $-1 $210 $53 #
coedge $-1 $132 $132 $211 $212 reversed $83 $-1 #
face $-1 $-1 $213 $43 $-1 $214 forward single #
loop $-1 $215 $216 $85 #
cone-surface $-1 -57.953537505565301 12.812573052102863 5.5153377079495431 0.68199836817093118 0 -0.7313536940579346 0.3656768470289673 0 0.34099918408546559 1 I I -0.70710678118654746 0.70710678118654746 0.5 forward I I I I #
loop $-1 $-1 $217 $54 #
coedge $-1 $137 $137 $218 $219 reversed $86 $-1 #
face $-1 $220 $221 $33 $-1 $222 reversed single #
loop $-1 $-1 $223 $88 #
plane-surface $-1 0 -29.381738420787649 0 0 1 0 0 0 1 forward_v I I I I #
coedge $-1 $224 $225 $226 $227 forward $89 $-1 #
coedge $-1 $228 $91 $229 $230 forward $56 $-1 #
coedge $-1 $91 $228 $231 $232 forward $56 $-1 #
coedge $-1 $233 $234 $91 $145 reversed $235 $-1 #
edge $-1 $236 -29.381738420787649 $237 29.381738420787649 $144 $238 forward 7 unknown #
face $-1 $239 $240 $34 $-1 $241 reversed single #
loop $-1 $-1 $242 $92 #
plane-surface $-1 -64.950712607196266 0 0 1 0 0 0 0 -1 forward_v I I I I #
coedge $-1 $243 $244 $245 $246 forward $93 $-1 #
coedge $-1 $245 $95 $242 $247 reversed $59 $-1 #
coedge $-1 $95 $245 $248 $249 reversed $59 $-1 #
coedge $-1 $250 $251 $95 $153 reversed $240 $-1 #
edge $-1 $252 -64.950712607196266 $253 64.950712607196266 $152 $254 forward 7 unknown #
face $-1 $255 $256 $35 $-1 $257 reversed single #
loop $-1 $-1 $258 $96 #
plane-surface $-1 52.135867341229272 -14.839863225856531 187.36374194949653 0 1 0 0.6560590369687036 0 0.75470957328743171 forward_v I I I I #
coedge $-1 $259 $260 $261 $262 reversed $97 $-1 #
coedge $-1 $159 $99 $263 $264 reversed $62 $-1 #
coedge $-1 $99 $158 $259 $265 reversed $62 $-1 #
coedge $-1 $261 $266 $99 $161 forward $267 $-1 #
edge $-1 $268 -38.88277893658163 $269 -29.343289670263545 $160 $270 forward 7 unknown #
loop $-1 $-1 $167 $100 #
plane-surface $-1 -33.087136585787164 -11.623866626340998 89.325892756513113 0.6560590369687036 0 0.75470957328743171 0.75470957328743171 0 -0.6560590369687036 forward_v I I I I #
loop $-1 $-1 $271 $64 #
coedge $-1 $165 $165 $166 $272 reversed $101 $-1 #
coedge $-1 $166 $166 $165 $272 forward $103 $-1 #
coedge $-1 $167 $167 $104 $168 forward $162 $-1 #
edge $-1 $273 0 $273 6.2831853071796004 $167 $274 forward 7 unknown #
loop $-1 $-1 $174 $105 #
plane-surface $-1 -33.087136585787164 -11.623866626340998 89.325892756513113 0.6560590369687036 0 0.75470957328743171 0.75470957328743171 0 -0.6560590369687036 forward_v I I I I #
loop $-1 $-1 $275 $67 #
coedge $-1 $172 $172 $173 $276 reversed $106 $-1 #
coedge $-1 $173 $173 $172 $276 forward $108 $-1 #
coedge $-1 $174 $174 $109 $175 forward $169 $-1 #
edge $-1 $277 0 $277 6.2831853071796004 $174 $278 forward 7 unknown #
face $-1 $279 $280 $38 $-1 $281 forward single #
loop $-1 $-1 $182 $110 #
plane-surface $-1 64.950712607196266 0 0 -1 0 0 0 0 1 forward_v I I I I #
coedge $-1 $282 $283 $284 $285 reversed $111 $-1 #
coedge $-1 $181 $113 $286 $287 reversed $71 $-1 #
coedge $-1 $113 $180 $282 $288 reversed $71 $-1 #
coedge $-1 $284 $289 $113 $183 forward $177 $-1 #
edge $-1 $290 81.286430463453357 $291 89.578982145251601 $182 $292 forward 7 unknown #
loop $-1 $-1 $189 $114 #
plane-surface $-1 -33.087136585787164 26.165741821272121 89.325892756513113 0.6560590369687036 0 0.75470957328743171 0.75470957328743171 0 -0.6560590369687036 forward_v I I I I #
loop $-1 $-1 $293 $73 #
coedge $-1 $187 $187 $188 $294 reversed $115 $-1 #
coedge $-1 $188 $188 $187 $294 forward $117 $-1 #
coedge $-1 $189 $189 $118 $190 forward $184 $-1 #
edge $-1 $295 0 $295 6.2831853071796004 $189 $296 forward 7 unknown #
loop $-1 $-1 $196 $119 #
plane-surface $-1 -33.087136585787164 26.165741821272121 89.325892756513113 0.6560590369687036 0 0.75470957328743171 0.75470957328743171 0 -0.6560590369687036 forward_v I I I I #
loop $-1 $-1 $297 $76 #
coedge $-1 $194 $194 $195 $298 reversed $120 $-1 #
coedge $-1 $195 $195 $194 $298 forward $122 $-1 #
coedge $-1 $196 $196 $123 $197 forward $191 $-1 #
edge $-1 $299 0 $299 6.2831853071796004 $196 $300 forward 7 unknown #
face $-1 $301 $302 $41 $-1 $303 forward single #
loop $-1 $-1 $304 $124 #
plane-surface $-1 -153.54327262649022 16.526519787628825 99.085270910412575 0 -1 0 0.68199836817093118 0 -0.7313536940579346 forward_v I I I I #
coedge $-1 $305 $306 $307 $308 reversed $125 $-1 #
coedge $-1 $203 $127 $309 $310 reversed $80 $-1 #
coedge $-1 $127 $202 $305 $311 reversed $80 $-1 #
coedge $-1 $307 $312 $127 $205 forward $302 $-1 #
edge $-1 $313 11.820923706048845 $314 20.736657868002517 $204 $315 forward 7 unknown #
loop $-1 $-1 $211 $128 #
plane-surface $-1 -64.950712607196266 10.027113000458392 4.0813837164760685 -0.68199836817093118 0 0.7313536940579346 0.7313536940579346 0 0.68199836817093118 forward_v I I I I #
loop $-1 $-1 $316 $82 #
coedge $-1 $209 $209 $210 $317 reversed $129 $-1 #
coedge $-1 $210 $210 $209 $317 forward $131 $-1 #
coedge $-1 $211 $211 $132 $212 forward $206 $-1 #
edge $-1 $318 0 $318 6.2831853071796004 $211 $319 forward 7 unknown #
loop $-1 $-1 $218 $133 #
plane-surface $-1 -64.950712607196266 10.027113000458392 4.0813837164760685 -0.68199836817093118 0 0.7313536940579346 0.7313536940579346 0 0.68199836817093118 forward_v I I I I #
loop $-1 $-1 $320 $85 #
coedge $-1 $216 $216 $217 $321 reversed $134 $-1 #
coedge $-1 $217 $217 $216 $321 forward $136 $-1 #
coedge $-1 $218 $218 $137 $219 forward $213 $-1 #
edge $-1 $322 0 $322 6.2831853071796004 $218 $323 forward 7 unknown #
face $-1 $324 $325 $33 $-1 $326 reversed single #
loop $-1 $-1 $327 $138 #
plane-surface $-1 -64.950712607196266 0 0 1 0 0 0 0 -1 forward_v I I I I #
coedge $-1 $328 $231 $329 $330 forward $139 $-1 #
coedge $-1 $331 $141 $328 $332 forward $89 $-1 #
coedge $-1 $141 $331 $333 $334 forward $89 $-1 #
coedge $-1 $234 $233 $141 $227 reversed $235 $-1 #
edge $-1 $335 -29.381738420787649 $336 29.381738420787649 $226 $337 forward 7 unknown #
coedge $-1 $143 $142 $338 $339 forward $56 $-1 #
coedge $-1 $340 $341 $142 $230 reversed $325 $-1 #
edge $-1 $237 -64.950712607196266 $342 64.950712607196266 $229 $343 forward 7 unknown #
coedge $-1 $223 $344 $143 $232 reversed $139 $-1 #
edge $-1 $345 -64.950712607196266 $236 64.950712607196266 $231 $346 forward 7 unknown #
coedge $-1 $226 $144 $344 $347 forward $235 $-1 #
coedge $-1 $144 $226 $340 $348 reversed $235 $-1 #
loop $-1 $-1 $233 $324 #
vertex $-1 $145 $349 #
vertex $-1 $145 $350 #
straight-curve $-1 64.950712607196266 0 12.395440511294906 0 1 0 I I #
face $-1 $351 $352 $34 $-1 $353 reversed single #
loop $-1 $-1 $250 $146 #
plane-surface $-1 0 -36.652676018253203 9.3954405112949058 0 0 1 1 0 0 forward_v I I I I #
coedge $-1 $354 $355 $150 $247 forward $147 $-1 #
coedge $-1 $356 $149 $355 $357 forward $93 $-1 #
coedge $-1 $149 $356 $358 $359 forward $93 $-1 #
coedge $-1 $151 $150 $149 $246 reversed $59 $-1 #
edge $-1 $360 -64.950712607196266 $361 64.950712607196266 $149 $362 forward 7 unknown #
edge $-1 $361 -12.395440511294906 $253 -9.3954405112949058 $242 $363 forward 7 unknown #
coedge $-1 $358 $364 $151 $249 forward $365 $-1 #
edge $-1 $252 9.3954405112949058 $360 12.395440511294906 $248 $366 forward 7 unknown #
coedge $-1 $367 $152 $364 $368 forward $240 $-1 #
coedge $-1 $152 $367 $354 $369 forward $240 $-1 #
vertex $-1 $249 $370 #
vertex $-1 $247 $371 #
straight-curve $-1 0 -29.381738420787649 9.3954405112949058 -1 0 0 I I #
face $-1 $-1 $267 $35 $-1 $372 forward single #
loop $-1 $-1 $373 $154 #
plane-surface $-1 64.950712607196266 0 0 -1 0 0 0 0 1 forward_v I I I I #
coedge $-1 $374 $375 $376 $377 reversed $155 $-1 #
coedge $-1 $378 $157 $159 $265 forward $97 $-1 #
coedge $-1 $157 $378 $374 $379 forward $97 $-1 #
coedge $-1 $376 $160 $157 $262 forward $267 $-1 #
edge $-1 $269 2.5959367136549663 $380 9.027929912686032 $261 $381 forward 7 unknown #
coedge $-1 $382 $383 $158 $264 forward $256 $-1 #
edge $-1 $384 -89.578982145251601 $268 -81.286430463453357 $263 $385 forward 7 unknown #
edge $-1 $269 117.26147787045585 $384 129.90142521439256 $159 $386 forward 7 unknown #
coedge $-1 $160 $376 $382 $387 forward $267 $-1 #
loop $-1 $-1 $376 $255 #
vertex $-1 $264 $388 #
vertex $-1 $161 $389 #
straight-curve $-1 26.067933670614636 -8.4078700268254654 12.395440511294908 -1 0 0 I I #
coedge $-1 $271 $271 $-1 $390 reversed $164 $-1 #
edge $-1 $391 0 $391 6.2831853071796004 $165 $392 forward 7 unknown #
vertex $-1 $168 $393 #
ellipse-curve $-1 60.18096797403723 -13.002150883276229 8.2491646703957713 0.6560590369687036 0 0.75470957328743171 0.37735478664371586 0 -0.3280295184843518 1 I I #
coedge $-1 $275 $275 $-1 $394 reversed $171 $-1 #
edge $-1 $395 0 $395 6.2831853071796004 $172 $396 forward 7 unknown #
vertex $-1 $175 $397 #
ellipse-curve $-1 60.18096797403723 -10.245582369405774 8.2491646703957713 0.6560590369687036 0 0.75470957328743171 0.37735478664371586 0 -0.3280295184843518 1 I I #
face $-1 $-1 $398 $38 $-1 $399 reversed single #
loop $-1 $-1 $286 $176 #
plane-surface $-1 0 0 12.395440511294906 0 0 1 1 0 0 forward_v I I I I #
coedge $-1 $400 $179 $181 $288 forward $111 $-1 #
coedge $-1 $179 $400 $401 $402 reversed $111 $-1 #
coedge $-1 $403 $182 $179 $285 forward $177 $-1 #
edge $-1 $291 9.8668743111205259 $404 16.298867510151588 $284 $405 forward 7 unknown #
coedge $-1 $406 $407 $180 $287 forward $280 $-1 #
edge $-1 $408 29.343289670263545 $290 38.88277893658163 $286 $409 forward 7 unknown #
edge $-1 $291 -129.90142521439256 $408 -117.26147787045585 $181 $410 forward 7 unknown #
coedge $-1 $182 $403 $406 $411 reversed $177 $-1 #
vertex $-1 $411 $412 #
vertex $-1 $183 $413 #
straight-curve $-1 64.950712607196266 22.949745221756586 93.681870974748264 0 0 -1 I I #
coedge $-1 $293 $293 $-1 $414 reversed $186 $-1 #
edge $-1 $415 0 $415 6.2831853071796004 $187 $416 forward 7 unknown #
vertex $-1 $190 $417 #
ellipse-curve $-1 60.18096797403723 24.78745756433689 8.2491646703957713 0.6560590369687036 0 0.75470957328743171 0.37735478664371586 0 -0.3280295184843518 1 I I #
coedge $-1 $297 $297 $-1 $418 reversed $193 $-1 #
edge $-1 $419 0 $419 6.2831853071796004 $194 $420 forward 7 unknown #
vertex $-1 $197 $421 #
ellipse-curve $-1 60.18096797403723 27.544026078207345 8.2491646703957713 0.6560590369687036 0 0.75470957328743171 0.37735478664371586 0 -0.3280295184843518 1 I I #
face $-1 $-1 $422 $41 $-1 $423 reversed single #
loop $-1 $-1 $204 $198 #
plane-surface $-1 0 0 12.395440511294906 0 0 1 1 0 0 forward_v I I I I #
coedge $-1 $424 $425 $426 $427 reversed $199 $-1 #
coedge $-1 $428 $201 $203 $311 forward $125 $-1 #
coedge $-1 $201 $428 $424 $429 forward $125 $-1 #
coedge $-1 $426 $204 $201 $308 forward $302 $-1 #
edge $-1 $314 -1.4858502869412362 $430 11.512963287399629 $307 $431 forward 7 unknown #
coedge $-1 $432 $433 $202 $310 forward $422 $-1 #
edge $-1 $434 -45.461251738730219 $313 -37.14719494391138 $309 $435 forward 7 unknown #
edge $-1 $314 -12.19072828153023 $434 0 $203 $436 forward 7 unknown #
coedge $-1 $204 $426 $432 $437 forward $302 $-1 #
vertex $-1 $310 $438 #
vertex $-1 $205 $439 #
straight-curve $-1 -76.771636313245111 3.52770621328796 12.395440511294908 1 0 0 I I #
coedge $-1 $316 $316 $-1 $440 reversed $208 $-1 #
edge $-1 $441 0 $441 6.2831853071796004 $209 $442 forward 7 unknown #
vertex $-1 $212 $443 #
ellipse-curve $-1 -60.492845526219426 7.2416529488139219 8.238412113885488 -0.68199836817093118 0 0.7313536940579346 0.7313536940579346 0 0.68199836817093118 1 I I #
coedge $-1 $320 $320 $-1 $444 reversed $215 $-1 #
edge $-1 $445 0 $445 6.2831853071796004 $216 $446 forward 7 unknown #
vertex $-1 $219 $447 #
ellipse-curve $-1 -60.492845526219426 12.812573052102863 8.238412113885488 -0.68199836817093118 0 0.7313536940579346 0.7313536940579346 0 0.68199836817093118 1 I I #
face $-1 $-1 $235 $33 $-1 $448 reversed single #
loop $-1 $-1 $340 $220 #
plane-surface $-1 0 29.381738420787649 0 0 -1 0 0 0 -1 forward_v I I I I #
coedge $-1 $449 $338 $341 $450 forward $221 $-1 #
coedge $-1 $344 $223 $224 $332 reversed $139 $-1 #
coedge $-1 $338 $449 $223 $330 reversed $221 $-1 #
edge $-1 $345 -12.395440511294906 $451 12.395440511294906 $329 $452 forward 7 unknown #
coedge $-1 $225 $224 $449 $453 forward $89 $-1 #
edge $-1 $336 -64.950712607196266 $451 64.950712607196266 $328 $454 forward 7 unknown #
coedge $-1 $341 $340 $225 $334 reversed $325 $-1 #
edge $-1 $455 -64.950712607196266 $335 64.950712607196266 $333 $456 forward 7 unknown #
vertex $-1 $227 $457 #
vertex $-1 $347 $458 #
straight-curve $-1 64.950712607196266 0 -12.395440511294906 0 -1 0 I I #
coedge $-1 $327 $329 $228 $339 reversed $221 $-1 #
edge $-1 $342 -29.381738420787649 $345 29.381738420787649 $338 $459 forward 7 unknown #
coedge $-1 $333 $229 $234 $348 forward $325 $-1 #
coedge $-1 $229 $333 $327 $450 reversed $325 $-1 #
vertex $-1 $230 $460 #
straight-curve $-1 0 29.381738420787649 12.395440511294906 -1 0 0 I I #
coedge $-1 $231 $328 $233 $347 reversed $139 $-1 #
vertex $-1 $339 $461 #
straight-curve $-1 0 -29.381738420787649 12.395440511294906 1 0 0 I I #
edge $-1 $236 -12.395440511294906 $336 12.395440511294906 $233 $462 forward 7 unknown #
edge $-1 $237 -12.395440511294906 $335 12.395440511294906 $234 $463 forward 7 unknown #
point $-1 64.950712607196266 -29.381738420787649 12.395440511294906 #
point $-1 64.950712607196266 29.381738420787649 12.395440511294906 #
face $-1 $-1 $365 $34 $-1 $464 reversed single #
loop $-1 $-1 $465 $239 #
plane-surface $-1 0 -43.923613615718764 10.895440511294906 0 1 0 0 0 1 forward_v I I I I #
coedge $-1 $466 $242 $251 $369 reversed $147 $-1 #
coedge $-1 $242 $466 $243 $357 reversed $147 $-1 #
coedge $-1 $244 $243 $467 $468 forward $93 $-1 #
edge $-1 $361 29.381738420787649 $469 43.923613615718764 $355 $470 forward 7 unknown #
coedge $-1 $471 $248 $244 $359 reversed $365 $-1 #
edge $-1 $472 -43.923613615718764 $360 -29.381738420787649 $358 $473 forward 7 unknown #
vertex $-1 $249 $474 #
vertex $-1 $357 $475 #
straight-curve $-1 0 -29.381738420787649 12.395440511294906 -1 0 0 I I #
straight-curve $-1 -64.950712607196266 -29.381738420787649 0 0 0 -1 I I #
coedge $-1 $248 $471 $250 $368 reversed $365 $-1 #
loop $-1 $-1 $248 $351 #
straight-curve $-1 64.950712607196266 -29.381738420787649 0 0 0 1 I I #
coedge $-1 $251 $250 $476 $477 forward $240 $-1 #
edge $-1 $252 -7.2709375974655579 $478 7.2709375974655615 $364 $479 forward 7 unknown #
edge $-1 $480 -7.2709375974655615 $253 7.2709375974655579 $354 $481 forward 7 unknown #
point $-1 64.950712607196266 -29.381738420787645 9.3954405112949058 #
point $-1 -64.950712607196266 -29.381738420787645 9.3954405112949058 #
plane-surface $-1 0 0 12.395440511294906 0 0 1 1 0 0 forward_v I I I I #
coedge $-1 $383 $382 $375 $482 forward $256 $-1 #
coedge $-1 $375 $258 $260 $379 reversed $155 $-1 #
coedge $-1 $258 $374 $373 $482 reversed $155 $-1 #
coedge $-1 $266 $261 $258 $377 forward $267 $-1 #
edge $-1 $380 29.343289670263545 $483 38.88277893658163 $376 $484 forward 7 unknown #
coedge $-1 $260 $259 $383 $485 reversed $97 $-1 #
edge $-1 $486 -129.90142521439256 $380 -117.26147787045585 $374 $487 forward 7 unknown #
vertex $-1 $262 $488 #
straight-curve $-1 55.411223340878159 -5.8119333131704991 12.395440511294922 0 -1 0 I I #
coedge $-1 $373 $263 $266 $387 reversed $256 $-1 #
coedge $-1 $263 $373 $378 $485 forward $256 $-1 #
vertex $-1 $264 $489 #
straight-curve $-1 64.950712607196266 -8.4078700268254654 93.681870974748264 0 0 1 I I #
straight-curve $-1 -33.087136585787164 -8.4078700268254654 89.325892756513113 0.75470957328743171 0 -0.6560590369687036 I I #
edge $-1 $483 -14.839863225856531 $268 -8.4078700268254654 $382 $490 forward 7 unknown #
point $-1 64.950712607196266 -8.4078700268254654 12.395440511294906 #
point $-1 55.41122334087818 -8.4078700268254654 12.395440511294908 #
edge $-1 $491 1 $491 0 $271 $-1 forward 7 unknown #
vertex $-1 $272 $492 #
ellipse-curve $-1 59.036733900007761 -13.002150883276229 6.9328739692695569 0.6560590369687036 0 0.75470957328743171 0.37735478664371586 0 -0.3280295184843518 1 I I #
point $-1 60.558322760680966 -13.002150883276229 7.921135151911443 #
edge $-1 $493 1 $493 0 $275 $-1 forward 7 unknown #
vertex $-1 $276 $494 #
ellipse-curve $-1 59.036733900007761 -10.245582369405774 6.9328739692695569 0.6560590369687036 0 0.75470957328743171 0.37735478664371586 0 -0.3280295184843518 1 I I #
point $-1 60.558322760680966 -10.245582369405774 7.921135151911443 #
loop $-1 $-1 $401 $279 #
plane-surface $-1 0 29.381738420787649 0 0 -1 0 0 0 -1 forward_v I I I I #
coedge $-1 $283 $282 $407 $495 reversed $111 $-1 #
coedge $-1 $496 $497 $283 $402 forward $398 $-1 #
edge $-1 $404 -88.114306258307522 $498 -75.474358914370811 $401 $499 forward 7 unknown #
coedge $-1 $289 $284 $497 $500 reversed $177 $-1 #
vertex $-1 $285 $501 #
straight-curve $-1 64.950712607196266 13.082870910636061 4.1028888294966634 0 1 0 I I #
coedge $-1 $502 $286 $289 $411 forward $280 $-1 #
coedge $-1 $286 $502 $400 $495 forward $280 $-1 #
vertex $-1 $287 $503 #
straight-curve $-1 26.067933670614636 22.949745221756586 12.395440511294908 1 0 0 I I #
straight-curve $-1 -33.087136585787164 22.949745221756586 89.325892756513113 -0.75470957328743171 0 0.6560590369687036 I I #
edge $-1 $290 22.949745221756586 $504 29.381738420787649 $289 $505 forward 7 unknown #
point $-1 64.950712607196266 22.949745221756586 12.395440511294906 #
point $-1 64.950712607196266 22.949745221756586 4.1028888294966634 #
edge $-1 $506 1 $506 0 $293 $-1 forward 7 unknown #
vertex $-1 $294 $507 #
ellipse-curve $-1 59.036733900007761 24.78745756433689 6.9328739692695569 0.6560590369687036 0 0.75470957328743171 0.37735478664371586 0 -0.3280295184843518 1 I I #
point $-1 60.558322760680966 24.78745756433689 7.921135151911443 #
edge $-1 $508 1 $508 0 $297 $-1 forward 7 unknown #
vertex $-1 $298 $509 #
ellipse-curve $-1 59.036733900007761 27.544026078207345 6.9328739692695569 0.6560590369687036 0 0.75470957328743171 0.37735478664371586 0 -0.3280295184843518 1 I I #
point $-1 60.558322760680966 27.544026078207345 7.921135151911443 #
loop $-1 $-1 $309 $301 #
plane-surface $-1 -64.950712607196266 0 0 1 0 0 0 0 -1 forward_v I I I I #
coedge $-1 $425 $304 $306 $429 reversed $199 $-1 #
coedge $-1 $304 $424 $510 $511 reversed $199 $-1 #
coedge $-1 $312 $307 $304 $427 forward $302 $-1 #
edge $-1 $430 -20.736657868002517 $512 -11.820923706048845 $426 $513 forward 7 unknown #
coedge $-1 $306 $305 $433 $514 reversed $125 $-1 #
edge $-1 $515 0 $430 12.19072828153023 $424 $516 forward 7 unknown #
vertex $-1 $308 $517 #
straight-curve $-1 -56.034978445242601 5.0135565002291962 12.395440511294906 0 1 0 I I #
coedge $-1 $510 $309 $312 $437 reversed $422 $-1 #
coedge $-1 $309 $510 $428 $514 forward $422 $-1 #
vertex $-1 $310 $518 #
straight-curve $-1 -64.950712607196266 3.52770621328796 49.542635455206288 0 0 1 I I #
straight-curve $-1 -64.950712607196266 3.52770621328796 4.0813837164760685 -0.7313536940579346 0 -0.68199836817093118 I I #
edge $-1 $512 -16.526519787628825 $313 -3.52770621328796 $432 $519 forward 7 unknown #
point $-1 -64.950712607196266 3.52770621328796 12.395440511294906 #
point $-1 -56.034978445242594 3.52770621328796 12.395440511294906 #
edge $-1 $520 1 $520 0 $316 $-1 forward 7 unknown #
vertex $-1 $317 $521 #
ellipse-curve $-1 -58.294536689650769 7.2416529488139219 5.8810145549785107 -0.68199836817093118 0 0.7313536940579346 0.7313536940579346 0 0.68199836817093118 1 I I #
point $-1 -59.761491832161504 7.2416529488139219 8.9204104820564218 #
edge $-1 $522 1 $522 0 $320 $-1 forward 7 unknown #
vertex $-1 $321 $523 #
ellipse-curve $-1 -58.294536689650769 12.812573052102863 5.8810145549785107 -0.68199836817093118 0 0.7313536940579346 0.7313536940579346 0 0.68199836817093118 1 I I #
point $-1 -59.761491832161504 12.812573052102863 8.9204104820564218 #
plane-surface $-1 64.950712607196266 0 0 -1 0 0 0 0 1 forward_v I I I I #
coedge $-1 $329 $327 $331 $453 reversed $221 $-1 #
edge $-1 $342 -12.395440511294906 $455 12.395440511294906 $341 $524 forward 7 unknown #
vertex $-1 $453 $525 #
straight-curve $-1 -64.950712607196266 -29.381738420787649 0 0 0 -1 I I #
edge $-1 $451 -29.381738420787649 $455 29.381738420787649 $449 $526 forward 7 unknown #
straight-curve $-1 0 -29.381738420787649 -12.395440511294906 -1 0 0 I I #
vertex $-1 $334 $527 #
straight-curve $-1 0 29.381738420787649 -12.395440511294906 1 0 0 I I #
point $-1 64.950712607196266 29.381738420787649 -12.395440511294906 #
point $-1 64.950712607196266 -29.381738420787649 -12.395440511294906 #
straight-curve $-1 -64.950712607196266 0 12.395440511294906 0 -1 0 I I #
point $-1 -64.950712607196266 29.381738420787649 12.395440511294906 #
point $-1 -64.950712607196266 -29.381738420787649 12.395440511294906 #
straight-curve $-1 64.950712607196266 -29.381738420787649 0 0 0 -1 I I #
straight-curve $-1 64.950712607196266 29.381738420787649 0 0 0 -1 I I #
plane-surface $-1 64.950712607196266 0 0 -1 0 0 0 0 1 forward_v I I I I #
coedge $-1 $476 $467 $466 $528 forward $352 $-1 #
coedge $-1 $355 $354 $465 $528 reversed $147 $-1 #
coedge $-1 $465 $529 $356 $468 reversed $352 $-1 #
edge $-1 $469 -64.950712607196266 $472 64.950712607196266 $467 $530 forward 7 unknown #
vertex $-1 $357 $531 #
straight-curve $-1 -64.950712607196266 0 12.395440511294906 0 -1 0 I I #
coedge $-1 $364 $358 $529 $532 forward $365 $-1 #
vertex $-1 $359 $533 #
straight-curve $-1 64.950712607196266 0 12.395440511294906 0 1 0 I I #
point $-1 64.950712607196266 -29.381738420787649 12.395440511294906 #
point $-1 -64.950712607196266 -29.381738420787649 12.395440511294906 #
coedge $-1 $529 $465 $367 $477 reversed $352 $-1 #
edge $-1 $478 -64.950712607196266 $480 64.950712607196266 $476 $534 forward 7 unknown #
vertex $-1 $532 $535 #
straight-curve $-1 64.950712607196266 -36.652676018253203 9.3954405112949058 0 -1 0 I I #
vertex $-1 $369 $536 #
straight-curve $-1 -64.950712607196266 -36.652676018253203 9.3954405112949058 0 1 0 I I #
edge $-1 $483 81.286430463453357 $486 89.578982145251601 $373 $537 forward 7 unknown #
vertex $-1 $387 $538 #
straight-curve $-1 26.067933670614636 -14.839863225856531 12.395440511294908 1 0 0 I I #
edge $-1 $486 -9.027929912686032 $384 -2.5959367136549663 $383 $539 forward 7 unknown #
vertex $-1 $485 $540 #
straight-curve $-1 -33.087136585787164 -14.839863225856531 89.325892756513113 -0.75470957328743171 0 0.6560590369687036 I I #
point $-1 55.41122334087818 -14.839863225856531 12.395440511294908 #
point $-1 64.950712607196266 -8.4078700268254654 4.1028888294966634 #
straight-curve $-1 64.950712607196266 0 12.395440511294906 0 1 0 I I #
vertex $-1 $390 $541 #
point $-1 59.414088686651475 -13.002150883276229 6.6048444507852047 #
vertex $-1 $394 $542 #
point $-1 59.414088686651475 -10.245582369405774 6.6048444507852047 #
edge $-1 $498 -16.298867510151595 $408 -9.8668743111205259 $407 $543 forward 7 unknown #
coedge $-1 $497 $401 $502 $544 reversed $398 $-1 #
coedge $-1 $401 $496 $403 $500 forward $398 $-1 #
vertex $-1 $402 $545 #
straight-curve $-1 -1.5499978695290704 29.381738420787649 61.911075736487305 -0.75470957328743171 0 0.6560590369687036 I I #
edge $-1 $504 -12.395440511294906 $404 -4.1028888294966661 $403 $546 forward 7 unknown #
point $-1 64.950712607196266 29.381738420787649 4.1028888294966661 #
coedge $-1 $407 $406 $496 $544 forward $280 $-1 #
point $-1 55.41122334087818 22.949745221756586 12.395440511294908 #
vertex $-1 $411 $547 #
straight-curve $-1 64.950712607196266 0 12.395440511294906 0 1 0 I I #
vertex $-1 $414 $548 #
point $-1 59.414088686651475 24.78745756433689 6.6048444507852047 #
vertex $-1 $418 $549 #
point $-1 59.414088686651475 27.544026078207345 6.6048444507852047 #
coedge $-1 $433 $432 $425 $511 forward $422 $-1 #
edge $-1 $512 37.14719494391138 $515 45.461251738730219 $510 $550 forward 7 unknown #
vertex $-1 $437 $551 #
straight-curve $-1 -76.771636313245111 16.526519787628825 12.395440511294908 -1 0 0 I I #
edge $-1 $515 -11.512963287399629 $434 1.4858502869412362 $433 $552 forward 7 unknown #
vertex $-1 $514 $553 #
straight-curve $-1 -64.950712607196266 16.526519787628825 4.0813837164760685 0.7313536940579346 0 0.68199836817093118 I I #
point $-1 -56.034978445242594 16.526519787628825 12.395440511294906 #
point $-1 -64.950712607196266 3.52770621328796 4.0813837164760685 #
straight-curve $-1 -64.950712607196266 0 12.395440511294906 0 -1 0 I I #
vertex $-1 $440 $554 #
point $-1 -57.563182995592832 7.2416529488139219 6.5630129231494418 #
vertex $-1 $444 $555 #
point $-1 -57.563182995592832 12.812573052102863 6.5630129231494418 #
straight-curve $-1 -64.950712607196266 29.381738420787649 0 0 0 -1 I I #
point $-1 -64.950712607196266 -29.381738420787649 -12.395440511294906 #
straight-curve $-1 -64.950712607196266 0 -12.395440511294906 0 1 0 I I #
point $-1 -64.950712607196266 29.381738420787649 -12.395440511294906 #
edge $-1 $469 -1.5 $480 1.5 $466 $556 forward 7 unknown #
coedge $-1 $467 $476 $471 $532 reversed $352 $-1 #
straight-curve $-1 0 -43.923613615718764 12.395440511294906 1 0 0 I I #
point $-1 -64.950712607196266 -43.923613615718764 12.395440511294906 #
edge $-1 $472 -1.5 $478 1.5 $471 $557 forward 7 unknown #
point $-1 64.950712607196266 -43.923613615718764 12.395440511294906 #
straight-curve $-1 0 -43.923613615718764 9.3954405112949058 -1 0 0 I I #
point $-1 64.950712607196266 -43.923613615718764 9.3954405112949058 #
point $-1 -64.950712607196266 -43.923613615718764 9.3954405112949058 #
straight-curve $-1 64.950712607196266 -14.839863225856531 93.681870974748264 0 0 -1 I I #
point $-1 64.950712607196266 -14.839863225856531 12.395440511294906 #
straight-curve $-1 64.950712607196266 -5.8119333131704991 4.1028888294966634 0 1 0 I I #
point $-1 64.950712607196266 -14.839863225856531 4.1028888294966634 #
point $-1 58.708704381523404 -13.002150883276229 6.555519182625841 #
point $-1 58.708704381523404 -10.245582369405774 6.555519182625841 #
straight-curve $-1 55.411223340878159 13.082870910636061 12.395440511294922 0 -1 0 I I #
edge $-1 $504 -64.950712607196266 $498 -55.41122334087818 $496 $558 forward 7 unknown #
point $-1 55.41122334087818 29.381738420787656 12.395440511294908 #
straight-curve $-1 64.950712607196266 29.381738420787649 0 0 0 -1 I I #
point $-1 64.950712607196266 29.381738420787649 12.395440511294906 #
point $-1 58.708704381523404 24.78745756433689 6.555519182625841 #
point $-1 58.708704381523404 27.544026078207345 6.555519182625841 #
straight-curve $-1 -64.950712607196266 16.526519787628825 49.542635455206288 0 0 -1 I I #
point $-1 -64.950712607196266 16.526519787628825 12.395440511294906 #
straight-curve $-1 -64.950712607196266 5.0135565002291962 4.0813837164760702 0 -1 0 I I #
point $-1 -64.950712607196266 16.526519787628825 4.0813837164760685 #
point $-1 -57.612538321479832 7.2416529488139219 5.1496608609205756 #
point $-1 -57.612538321479832 12.812573052102863 5.1496608609205756 #
straight-curve $-1 -64.950712607196266 -43.923613615718764 10.895440511294906 0 0 -1 I I #
straight-curve $-1 64.950712607196266 -43.923613615718764 10.895440511294906 0 0 -1 I I #
straight-curve $-1 0 29.381738420787649 12.395440511294906 -1 0 0 I I #
End-of-ACIS-data 