500 0 8 0           
7 Unknown 11 ACIS 5.0 NT 24 Thu Mar 25 18:05:34 1999 
-1 9.9999999999999995e-007 1e-010 
body $-1 $8 $-1 $9 #
body $-1 $10 $-1 $11 #
body $-1 $12 $-1 $13 #
body $-1 $14 $-1 $15 #
body $-1 $16 $-1 $17 #
body $-1 $18 $-1 $19 #
body $-1 $20 $-1 $21 #
body $-1 $22 $-1 $23 #
lump $-1 $-1 $24 $0 #
transform $-1 1 0 0 0 1 0 0 0 1 65.568407238990446 30.619867877141878 14.085400875849093 1 rotate no_reflect no_shear #
lump $-1 $-1 $25 $1 #
transform $-1 1 0 0 0 1 0 0 0 1 65.568407238990446 30.619867877141878 14.085400875849093 1 rotate no_reflect no_shear #
lump $-1 $-1 $26 $2 #
transform $-1 1 0 0 0 1 0 0 0 1 65.568407238990446 30.619867877141878 14.085400875849093 1 rotate no_reflect no_shear #
lump $-1 $-1 $27 $3 #
transform $-1 1 0 0 0 1 0 0 0 1 65.568407238990446 30.619867877141878 14.085400875849093 1 rotate no_reflect no_shear #
lump $-1 $-1 $28 $4 #
transform $-1 1 0 0 0 1 0 0 0 1 65.568407238990446 30.619867877141878 14.085400875849093 1 rotate no_reflect no_shear #
lump $-1 $-1 $29 $5 #
transform $-1 1 0 0 0 1 0 0 0 1 65.568407238990446 30.619867877141878 14.085400875849093 1 rotate no_reflect no_shear #
lump $-1 $-1 $30 $6 #
transform $-1 1 0 0 0 1 0 0 0 1 65.568407238990446 30.619867877141878 14.085400875849093 1 rotate no_reflect no_shear #
lump $-1 $-1 $31 $7 #
transform $-1 1 0 0 0 1 0 0 0 1 65.568407238990446 30.619867877141878 14.085400875849093 1 rotate no_reflect no_shear #
shell $-1 $-1 $-1 $32 $-1 $8 #
shell $-1 $-1 $-1 $33 $-1 $10 #
shell $-1 $-1 $-1 $34 $-1 $12 #
shell $-1 $-1 $-1 $35 $-1 $14 #
shell $-1 $-1 $-1 $36 $-1 $16 #
shell $-1 $-1 $-1 $37 $-1 $18 #
shell $-1 $-1 $-1 $38 $-1 $20 #
shell $-1 $-1 $-1 $39 $-1 $22 #
face $-1 $40 $41 $24 $-1 $42 forward single #
face $-1 $43 $44 $25 $-1 $45 forward single #
face $-1 $46 $47 $26 $-1 $48 reversed single #
face $-1 $49 $50 $27 $-1 $51 forward single #
face $-1 $52 $53 $28 $-1 $54 reversed single #
face $-1 $55 $56 $29 $-1 $57 forward single #
face $-1 $58 $59 $30 $-1 $60 reversed single #
face $-1 $61 $62 $31 $-1 $63 forward single #
face $-1 $64 $65 $24 $-1 $66 reversed single #
loop $-1 $-1 $67 $32 #
plane-surface $-1 0 0 14.085400875849093 0 0 1 1 0 0 forward_v I I I I #
face $-1 $68 $69 $25 $-1 $70 reversed single #
loop $-1 $-1 $71 $33 #
plane-surface $-1 0 -30.619867877141878 0 0 1 0 0 0 1 forward_v I I I I #
face $-1 $72 $73 $26 $-1 $74 reversed single #
loop $-1 $-1 $75 $34 #
plane-surface $-1 97.77241276743645 7.9847677445274812 185.95984094994634 0 -1 0 -0.81915205242281985 0 -0.57357642473473569 forward_v I I I I #
face $-1 $76 $77 $27 $-1 $78 forward single #
loop $-1 $79 $80 $35 #
cone-surface $-1 60.965026273940545 4.4066320558400989 8.1189410416109133 -0.81915205242281985 0 -0.57357642473473569 0.86036463710210354 0 -1.2287280786342298 1 I I 0 1 1.5 forward I I I I #
face $-1 $81 $82 $28 $-1 $83 reversed single #
loop $-1 $-1 $84 $36 #
plane-surface $-1 97.77241276743645 23.463596499767114 185.95984094994634 0 1 0 0.81915205242281985 0 0.57357642473473569 forward_v I I I I #
face $-1 $85 $86 $29 $-1 $87 forward single #
loop $-1 $88 $89 $37 #
cone-surface $-1 60.965026273940545 27.041732188454496 8.1189410416109133 -0.81915205242281985 0 -0.57357642473473569 0.86036463710210354 0 -1.2287280786342298 1 I I 0 1 1.5 forward I I I I #
face $-1 $90 $91 $30 $-1 $92 reversed single #
loop $-1 $-1 $93 $38 #
plane-surface $-1 -158.29613909545122 -2.7761051435320159 101.56776769676749 0 1 0 -0.70710678939079041 0 0.70710677298230451 forward_v I I I I #
face $-1 $94 $95 $31 $-1 $96 forward single #
loop $-1 $97 $98 $39 #
cone-surface $-1 -61.246345414085525 3.795324463031335 9.7633390295188729 0.70710678939079041 0 -0.70710677298230451 1.0606601594734568 0 1.0606601840861856 1 I I 0 1 1.5 forward I I I I #
face $-1 $99 $100 $24 $-1 $101 reversed single #
loop $-1 $-1 $102 $40 #
plane-surface $-1 0 0 -14.085400875849093 0 0 1 1 0 0 forward_v I I I I #
coedge $-1 $103 $104 $105 $106 forward $41 $-1 #
face $-1 $107 $108 $25 $-1 $109 reversed single #
loop $-1 $-1 $110 $43 #
plane-surface $-1 0 0 -14.085400875849093 0 0 1 1 0 0 forward_v I I I I #
coedge $-1 $111 $112 $113 $114 forward $44 $-1 #
face $-1 $115 $116 $26 $-1 $117 reversed single #
loop $-1 $-1 $118 $46 #
plane-surface $-1 -9.64857796039216 4.4066320558400989 110.74285575056373 0.81915205242281985 0 0.57357642473473569 0.57357642473473569 0 -0.81915205242281985 forward_v I I I I #
coedge $-1 $119 $120 $121 $122 reversed $47 $-1 #
face $-1 $-1 $123 $27 $-1 $124 forward single #
loop $-1 $125 $126 $49 #
cone-surface $-1 59.515635626907525 4.4066320558400989 7.104066815378669 -0.81915205242281985 0 -0.57357642473473569 0.43018231855105177 0 -0.61436403931711492 1 I I -0.70710678118654757 0.70710678118654757 0.75 forward I I I I #
loop $-1 $-1 $127 $35 #
coedge $-1 $80 $80 $128 $129 reversed $50 $-1 #
face $-1 $130 $131 $28 $-1 $132 reversed single #
loop $-1 $-1 $133 $52 #
plane-surface $-1 -9.64857796039216 27.041732188454496 110.74285575056373 0.81915205242281985 0 0.57357642473473569 0.57357642473473569 0 -0.81915205242281985 forward_v I I I I #
coedge $-1 $134 $135 $136 $137 reversed $53 $-1 #
face $-1 $-1 $138 $29 $-1 $139 forward single #
loop $-1 $140 $141 $55 #
cone-surface $-1 59.515635626907525 27.041732188454496 7.104066815378669 -0.81915205242281985 0 -0.57357642473473569 0.43018231855105177 0 -0.61436403931711492 1 I I -0.70710678118654757 0.70710678118654757 0.75 forward I I I I #
loop $-1 $-1 $142 $37 #
coedge $-1 $89 $89 $143 $144 reversed $56 $-1 #
face $-1 $145 $146 $30 $-1 $147 reversed single #
loop $-1 $-1 $148 $58 #
plane-surface $-1 -65.568407238990432 3.795324463031335 8.840037992063273 -0.70710678939079041 0 0.70710677298230451 0.70710677298230451 0 0.70710678939079041 forward_v I I I I #
coedge $-1 $149 $150 $151 $152 reversed $59 $-1 #
face $-1 $-1 $153 $31 $-1 $154 forward single #
loop $-1 $155 $156 $61 #
cone-surface $-1 -59.016634878170834 3.795324463031335 7.5336285453448433 0.70710678939079041 0 -0.70710677298230451 0.53033007973672841 0 0.53033009204309278 1 I I -0.70710678118654757 0.70710678118654757 0.75 forward I I I I #
loop $-1 $-1 $157 $39 #
coedge $-1 $98 $98 $158 $159 reversed $62 $-1 #
face $-1 $160 $161 $24 $-1 $162 reversed single #
loop $-1 $-1 $163 $64 #
plane-surface $-1 0 -30.619867877141878 0 0 1 0 0 0 1 forward_v I I I I #
coedge $-1 $164 $165 $166 $167 forward $65 $-1 #
coedge $-1 $168 $67 $169 $170 forward $41 $-1 #
coedge $-1 $67 $168 $171 $172 forward $41 $-1 #
coedge $-1 $173 $174 $67 $106 reversed $175 $-1 #
edge $-1 $176 -30.619867877141878 $177 30.619867877141878 $105 $178 forward 7 unknown #
face $-1 $179 $180 $25 $-1 $181 forward single #
loop $-1 $-1 $182 $68 #
plane-surface $-1 65.568407238990446 0 0 -1 0 0 0 0 1 forward_v I I I I #
coedge $-1 $183 $184 $185 $186 forward $69 $-1 #
coedge $-1 $185 $71 $182 $187 reversed $44 $-1 #
coedge $-1 $71 $185 $188 $189 reversed $44 $-1 #
coedge $-1 $190 $191 $71 $114 reversed $180 $-1 #
edge $-1 $192 -65.568407238990446 $193 65.568407238990446 $113 $194 forward 7 unknown #
face $-1 $195 $196 $26 $-1 $197 reversed single #
loop $-1 $-1 $198 $72 #
plane-surface $-1 97.77241276743645 0.82849636715271657 185.95984094994634 0 1 0 0.81915205242281985 0 0.57357642473473569 forward_v I I I I #
coedge $-1 $199 $200 $201 $202 reversed $73 $-1 #
coedge $-1 $120 $75 $203 $204 reversed $47 $-1 #
coedge $-1 $75 $119 $199 $205 reversed $47 $-1 #
coedge $-1 $201 $206 $75 $122 forward $207 $-1 #
edge $-1 $208 -16.682200855272221 $209 -9.1454921406042118 $121 $210 forward 7 unknown #
loop $-1 $-1 $128 $76 #
plane-surface $-1 -9.64857796039216 4.4066320558400989 110.74285575056373 0.81915205242281985 0 0.57357642473473569 0.57357642473473569 0 -0.81915205242281985 forward_v I I I I #
loop $-1 $-1 $211 $49 #
coedge $-1 $126 $126 $127 $212 reversed $77 $-1 #
coedge $-1 $127 $127 $126 $212 forward $79 $-1 #
coedge $-1 $128 $128 $80 $129 forward $123 $-1 #
edge $-1 $213 0 $213 6.2831853071796004 $128 $214 forward 7 unknown #
face $-1 $215 $216 $28 $-1 $217 forward single #
loop $-1 $-1 $136 $81 #
plane-surface $-1 65.568407238990446 0 0 -1 0 0 0 0 1 forward_v I I I I #
coedge $-1 $218 $219 $220 $221 reversed $82 $-1 #
coedge $-1 $135 $84 $222 $223 reversed $53 $-1 #
coedge $-1 $84 $134 $218 $224 reversed $53 $-1 #
coedge $-1 $220 $225 $84 $137 forward $131 $-1 #
edge $-1 $226 78.894519599124081 $227 89.658055452238045 $136 $228 forward 7 unknown #
loop $-1 $-1 $143 $85 #
plane-surface $-1 -9.64857796039216 27.041732188454496 110.74285575056373 0.81915205242281985 0 0.57357642473473569 0.57357642473473569 0 -0.81915205242281985 forward_v I I I I #
loop $-1 $-1 $229 $55 #
coedge $-1 $141 $141 $142 $230 reversed $86 $-1 #
coedge $-1 $142 $142 $141 $230 forward $88 $-1 #
coedge $-1 $143 $143 $89 $144 forward $138 $-1 #
edge $-1 $231 0 $231 6.2831853071796004 $143 $232 forward 7 unknown #
face $-1 $233 $234 $30 $-1 $235 reversed single #
loop $-1 $-1 $236 $90 #
plane-surface $-1 -158.29613909545122 10.366754069594686 101.56776769676749 0 -1 0 0.70710678939079041 0 -0.70710677298230451 forward_v I I I I #
coedge $-1 $237 $238 $239 $240 reversed $91 $-1 #
coedge $-1 $150 $93 $241 $242 reversed $59 $-1 #
coedge $-1 $93 $149 $237 $243 reversed $59 $-1 #
coedge $-1 $239 $244 $93 $152 forward $245 $-1 #
edge $-1 $246 13.579662308735166 $247 18.825025070801814 $151 $248 forward 7 unknown #
loop $-1 $-1 $158 $94 #
plane-surface $-1 -65.568407238990432 3.795324463031335 8.840037992063273 -0.70710678939079041 0 0.70710677298230451 0.70710677298230451 0 0.70710678939079041 forward_v I I I I #
loop $-1 $-1 $249 $61 #
coedge $-1 $156 $156 $157 $250 reversed $95 $-1 #
coedge $-1 $157 $157 $156 $250 forward $97 $-1 #
coedge $-1 $158 $158 $98 $159 forward $153 $-1 #
edge $-1 $251 0 $251 6.2831853071796004 $158 $252 forward 7 unknown #
face $-1 $253 $254 $24 $-1 $255 reversed single #
loop $-1 $-1 $256 $99 #
plane-surface $-1 -65.568407238990446 0 0 1 0 0 0 0 -1 forward_v I I I I #
coedge $-1 $257 $171 $258 $259 forward $100 $-1 #
coedge $-1 $260 $102 $257 $261 forward $65 $-1 #
coedge $-1 $102 $260 $262 $263 forward $65 $-1 #
coedge $-1 $174 $173 $102 $167 reversed $175 $-1 #
edge $-1 $264 -30.619867877141878 $265 30.619867877141878 $166 $266 forward 7 unknown #
coedge $-1 $104 $103 $267 $268 forward $41 $-1 #
coedge $-1 $269 $270 $103 $170 reversed $254 $-1 #
edge $-1 $177 -65.568407238990446 $271 65.568407238990446 $169 $272 forward 7 unknown #
coedge $-1 $163 $273 $104 $172 reversed $100 $-1 #
edge $-1 $274 -65.568407238990446 $176 65.568407238990446 $171 $275 forward 7 unknown #
coedge $-1 $166 $105 $273 $276 forward $175 $-1 #
coedge $-1 $105 $166 $269 $277 reversed $175 $-1 #
loop $-1 $-1 $173 $253 #
vertex $-1 $106 $278 #
vertex $-1 $106 $279 #
straight-curve $-1 65.568407238990446 0 14.085400875849093 0 1 0 I I #
face $-1 $280 $281 $25 $-1 $282 reversed single #
loop $-1 $-1 $191 $107 #
plane-surface $-1 0 -38.60463562166936 -7.1085988098923094 0 0 1 1 0 0 forward_v I I I I #
coedge $-1 $283 $284 $111 $187 forward $108 $-1 #
coedge $-1 $285 $110 $284 $286 forward $69 $-1 #
coedge $-1 $110 $285 $287 $288 forward $69 $-1 #
coedge $-1 $112 $111 $110 $186 reversed $44 $-1 #
edge $-1 $289 -65.568407238990446 $290 65.568407238990446 $110 $291 forward 7 unknown #
edge $-1 $290 -14.085400875849093 $193 -7.1085988098923094 $182 $292 forward 7 unknown #
coedge $-1 $287 $293 $112 $189 forward $294 $-1 #
edge $-1 $192 7.1085988098923094 $289 14.085400875849093 $188 $295 forward 7 unknown #
coedge $-1 $296 $113 $293 $297 forward $180 $-1 #
coedge $-1 $113 $296 $283 $298 forward $180 $-1 #
vertex $-1 $189 $299 #
vertex $-1 $298 $300 #
straight-curve $-1 0 -30.619867877141878 -7.1085988098923094 1 0 0 I I #
face $-1 $-1 $207 $26 $-1 $301 forward single #
loop $-1 $-1 $302 $115 #
plane-surface $-1 65.568407238990446 0 0 -1 0 0 0 0 1 forward_v I I I I #
coedge $-1 $303 $304 $305 $306 reversed $116 $-1 #
coedge $-1 $307 $118 $120 $205 forward $73 $-1 #
coedge $-1 $118 $307 $303 $308 forward $73 $-1 #
coedge $-1 $305 $121 $118 $202 forward $207 $-1 #
edge $-1 $209 -5.7814517166074317 $309 1.3748196607673329 $201 $310 forward 7 unknown #
coedge $-1 $311 $312 $119 $204 forward $196 $-1 #
edge $-1 $313 -89.658055452238045 $208 -78.894519599124081 $203 $314 forward 7 unknown #
edge $-1 $209 117.99696355374959 $313 131.13681447798092 $120 $315 forward 7 unknown #
coedge $-1 $121 $305 $311 $316 forward $207 $-1 #
loop $-1 $-1 $305 $195 #
vertex $-1 $204 $317 #
vertex $-1 $122 $318 #
straight-curve $-1 48.886206383718225 7.9847677445274812 14.085400875849089 -1 0 0 I I #
coedge $-1 $211 $211 $-1 $319 reversed $125 $-1 #
edge $-1 $320 0 $320 6.2831853071796004 $126 $321 forward 7 unknown #
vertex $-1 $129 $322 #
ellipse-curve $-1 61.800052881656441 4.4066320558400989 8.7036329492921016 0.81915205242281985 0 0.57357642473473569 0.86036463710210354 0 -1.2287280786342298 1 I I #
face $-1 $-1 $323 $28 $-1 $324 reversed single #
loop $-1 $-1 $222 $130 #
plane-surface $-1 0 0 14.085400875849093 0 0 1 1 0 0 forward_v I I I I #
coedge $-1 $325 $133 $135 $224 forward $82 $-1 #
coedge $-1 $133 $325 $326 $327 reversed $82 $-1 #
coedge $-1 $328 $136 $133 $221 forward $131 $-1 #
edge $-1 $227 9.9427304055398658 $329 17.09900178291463 $220 $330 forward 7 unknown #
coedge $-1 $331 $332 $134 $223 forward $216 $-1 #
edge $-1 $333 9.1454921406042118 $226 16.682200855272221 $222 $334 forward 7 unknown #
edge $-1 $227 -131.13681447798092 $333 -117.99696355374959 $135 $335 forward 7 unknown #
coedge $-1 $136 $328 $331 $336 reversed $131 $-1 #
vertex $-1 $336 $337 #
vertex $-1 $137 $338 #
straight-curve $-1 65.568407238990446 23.463596499767114 92.97992047497317 0 0 -1 I I #
coedge $-1 $229 $229 $-1 $339 reversed $140 $-1 #
edge $-1 $340 0 $340 6.2831853071796004 $141 $341 forward 7 unknown #
vertex $-1 $144 $342 #
ellipse-curve $-1 61.800052881656441 27.041732188454496 8.7036329492921016 0.81915205242281985 0 0.57357642473473569 0.86036463710210354 0 -1.2287280786342298 1 I I #
face $-1 $-1 $245 $30 $-1 $343 forward single #
loop $-1 $-1 $344 $145 #
plane-surface $-1 -65.568407238990446 0 0 1 0 0 0 0 -1 forward_v I I I I #
coedge $-1 $345 $346 $347 $348 reversed $146 $-1 #
coedge $-1 $349 $148 $150 $243 forward $91 $-1 #
coedge $-1 $148 $349 $345 $350 forward $91 $-1 #
coedge $-1 $347 $151 $148 $240 forward $245 $-1 #
edge $-1 $247 -4.6737673750476834 $351 8.4690918380790183 $239 $352 forward 7 unknown #
coedge $-1 $353 $354 $149 $242 forward $234 $-1 #
edge $-1 $355 -41.943845856320486 $246 -36.698482972534649 $241 $356 forward 7 unknown #
edge $-1 $247 -7.4180632437498959 $355 2.0097183471152325e-014 $150 $357 forward 7 unknown #
coedge $-1 $151 $347 $353 $358 forward $245 $-1 #
loop $-1 $-1 $347 $233 #
vertex $-1 $242 $359 #
vertex $-1 $152 $360 #
straight-curve $-1 -79.148069547725612 -2.7761051435320159 14.085400875849089 1 0 0 I I #
coedge $-1 $249 $249 $-1 $361 reversed $155 $-1 #
edge $-1 $362 0 $362 6.2831853071796004 $156 $363 forward 7 unknown #
vertex $-1 $159 $364 #
ellipse-curve $-1 -62.945725857957122 3.795324463031335 11.462719433956174 -0.70710678939079041 0 0.70710677298230451 1.0606601594734568 0 1.0606601840861856 1 I I #
face $-1 $-1 $175 $24 $-1 $365 reversed single #
loop $-1 $-1 $269 $160 #
plane-surface $-1 0 30.619867877141878 0 0 -1 0 0 0 -1 forward_v I I I I #
coedge $-1 $366 $267 $270 $367 forward $161 $-1 #
coedge $-1 $273 $163 $164 $261 reversed $100 $-1 #
coedge $-1 $267 $366 $163 $259 reversed $161 $-1 #
edge $-1 $274 -14.085400875849093 $368 14.085400875849093 $258 $369 forward 7 unknown #
coedge $-1 $165 $164 $366 $370 forward $65 $-1 #
edge $-1 $265 -65.568407238990446 $368 65.568407238990446 $257 $371 forward 7 unknown #
coedge $-1 $270 $269 $165 $263 reversed $254 $-1 #
edge $-1 $372 -65.568407238990446 $264 65.568407238990446 $262 $373 forward 7 unknown #
vertex $-1 $167 $374 #
vertex $-1 $276 $375 #
straight-curve $-1 65.568407238990446 0 -14.085400875849093 0 -1 0 I I #
coedge $-1 $256 $258 $168 $268 reversed $161 $-1 #
edge $-1 $271 -30.619867877141878 $274 30.619867877141878 $267 $376 forward 7 unknown #
coedge $-1 $262 $169 $174 $277 forward $254 $-1 #
coedge $-1 $169 $262 $256 $367 reversed $254 $-1 #
vertex $-1 $170 $377 #
straight-curve $-1 0 30.619867877141878 14.085400875849093 -1 0 0 I I #
coedge $-1 $171 $257 $173 $276 reversed $100 $-1 #
vertex $-1 $268 $378 #
straight-curve $-1 0 -30.619867877141878 14.085400875849093 1 0 0 I I #
edge $-1 $176 -14.085400875849093 $265 14.085400875849093 $173 $379 forward 7 unknown #
edge $-1 $177 -14.085400875849093 $264 14.085400875849093 $174 $380 forward 7 unknown #
point $-1 65.568407238990446 -30.619867877141878 14.085400875849093 #
point $-1 65.568407238990446 30.619867877141878 14.085400875849093 #
face $-1 $-1 $294 $25 $-1 $381 reversed single #
loop $-1 $-1 $382 $179 #
plane-surface $-1 0 -46.589403366196841 -10.596999842870702 0 1 0 0 0 1 forward_v I I I I #
coedge $-1 $383 $182 $191 $298 reversed $108 $-1 #
coedge $-1 $182 $383 $183 $286 reversed $108 $-1 #
coedge $-1 $184 $183 $384 $385 forward $69 $-1 #
edge $-1 $290 30.619867877141878 $386 46.589403366196841 $284 $387 forward 7 unknown #
coedge $-1 $388 $188 $184 $288 reversed $294 $-1 #
edge $-1 $389 -46.589403366196841 $289 -30.619867877141878 $287 $390 forward 7 unknown #
vertex $-1 $189 $391 #
vertex $-1 $286 $392 #
straight-curve $-1 0 -30.619867877141878 -14.085400875849093 1 0 0 I I #
straight-curve $-1 65.568407238990446 -30.619867877141878 0 0 0 1 I I #
coedge $-1 $188 $388 $190 $297 reversed $294 $-1 #
loop $-1 $-1 $188 $280 #
straight-curve $-1 -65.568407238990446 -30.619867877141878 0 0 0 -1 I I #
coedge $-1 $191 $190 $393 $394 forward $180 $-1 #
edge $-1 $192 -7.9847677445274812 $395 7.9847677445274812 $293 $396 forward 7 unknown #
edge $-1 $397 -7.9847677445274812 $193 7.9847677445274812 $283 $398 forward 7 unknown #
point $-1 -65.568407238990446 -30.619867877141878 -7.1085988098923094 #
point $-1 65.568407238990446 -30.619867877141878 -7.1085988098923094 #
plane-surface $-1 0 0 14.085400875849093 0 0 1 1 0 0 forward_v I I I I #
coedge $-1 $312 $311 $304 $399 forward $196 $-1 #
coedge $-1 $304 $198 $200 $308 reversed $116 $-1 #
coedge $-1 $198 $303 $302 $399 reversed $116 $-1 #
coedge $-1 $206 $201 $198 $306 forward $207 $-1 #
edge $-1 $309 9.1454921406042118 $400 16.682200855272221 $305 $401 forward 7 unknown #
coedge $-1 $200 $199 $312 $402 reversed $73 $-1 #
edge $-1 $403 -131.13681447798092 $309 -117.99696355374959 $303 $404 forward 7 unknown #
vertex $-1 $202 $405 #
straight-curve $-1 58.031698524322451 2.2033160279200494 14.085400875849089 0 -1 0 I I #
coedge $-1 $302 $203 $206 $316 reversed $196 $-1 #
coedge $-1 $203 $302 $307 $402 forward $196 $-1 #
vertex $-1 $204 $406 #
straight-curve $-1 65.568407238990446 7.9847677445274812 92.97992047497317 0 0 1 I I #
straight-curve $-1 -9.64857796039216 7.9847677445274812 110.74285575056373 0.57357642473473569 0 -0.81915205242281985 I I #
edge $-1 $400 0.82849636715271657 $208 7.9847677445274812 $311 $407 forward 7 unknown #
point $-1 65.568407238990446 7.9847677445274812 14.085400875849093 #
point $-1 58.031698524322437 7.9847677445274812 14.085400875849089 #
edge $-1 $408 1 $408 0 $211 $-1 forward 7 unknown #
vertex $-1 $212 $409 #
ellipse-curve $-1 60.129999666224641 4.4066320558400989 7.5342491339297206 0.81915205242281985 0 0.57357642473473569 0.86036463710210354 0 -1.2287280786342298 1 I I #
point $-1 62.66041751875855 4.4066320558400989 7.474904870657876 #
loop $-1 $-1 $326 $215 #
plane-surface $-1 0 30.619867877141878 0 0 -1 0 0 0 -1 forward_v I I I I #
coedge $-1 $219 $218 $332 $410 reversed $82 $-1 #
coedge $-1 $411 $412 $219 $327 forward $323 $-1 #
edge $-1 $329 -83.012097263213576 $413 -69.872246338982265 $326 $414 forward 7 unknown #
coedge $-1 $225 $220 $412 $415 reversed $131 $-1 #
vertex $-1 $221 $416 #
straight-curve $-1 65.56840723899046 13.520866094227248 3.3218650227351034 0 1 0 I I #
coedge $-1 $417 $222 $225 $336 forward $216 $-1 #
coedge $-1 $222 $417 $325 $410 forward $216 $-1 #
vertex $-1 $223 $418 #
straight-curve $-1 48.886206383718225 23.463596499767114 14.085400875849089 1 0 0 I I #
straight-curve $-1 -9.64857796039216 23.463596499767114 110.74285575056373 -0.57357642473473569 0 0.81915205242281985 I I #
edge $-1 $226 23.463596499767114 $419 30.619867877141878 $225 $420 forward 7 unknown #
point $-1 65.568407238990446 23.463596499767114 14.085400875849093 #
point $-1 65.568407238990446 23.463596499767114 3.3218650227351247 #
edge $-1 $421 1 $421 0 $229 $-1 forward 7 unknown #
vertex $-1 $230 $422 #
ellipse-curve $-1 60.129999666224641 27.041732188454496 7.5342491339297206 0.81915205242281985 0 0.57357642473473569 0.86036463710210354 0 -1.2287280786342298 1 I I #
point $-1 62.66041751875855 27.041732188454496 7.474904870657876 #
plane-surface $-1 0 0 14.085400875849093 0 0 1 1 0 0 forward_v I I I I #
coedge $-1 $354 $353 $346 $423 forward $234 $-1 #
coedge $-1 $346 $236 $238 $350 reversed $146 $-1 #
coedge $-1 $236 $345 $344 $423 reversed $146 $-1 #
coedge $-1 $244 $239 $236 $348 forward $245 $-1 #
edge $-1 $351 -18.825025070801814 $424 -13.579662308735166 $347 $425 forward 7 unknown #
coedge $-1 $238 $237 $354 $426 reversed $91 $-1 #
edge $-1 $427 -2.0097183471152325e-014 $351 7.4180632437498959 $345 $428 forward 7 unknown #
vertex $-1 $240 $429 #
straight-curve $-1 -60.323044476923798 1.8976622315156675 14.085400875849091 0 1 0 I I #
coedge $-1 $344 $241 $244 $358 reversed $234 $-1 #
coedge $-1 $241 $344 $349 $426 forward $234 $-1 #
vertex $-1 $242 $430 #
straight-curve $-1 -65.568407238990446 -2.7761051435320159 50.783883848383745 0 0 1 I I #
straight-curve $-1 -65.568407238990432 -2.7761051435320159 8.840037992063273 -0.70710677298230451 0 -0.70710678939079041 I I #
edge $-1 $424 -10.366754069594686 $246 2.7761051435320159 $353 $431 forward 7 unknown #
point $-1 -65.568407238990446 -2.7761051435320159 14.085400875849093 #
point $-1 -60.323044476923798 -2.7761051435320159 14.085400875849093 #
edge $-1 $432 1 $432 0 $249 $-1 forward 7 unknown #
vertex $-1 $250 $433 #
ellipse-curve $-1 -59.546964970213928 3.795324463031335 8.0639586250815718 -0.70710678939079041 0 0.70710677298230451 1.0606601594734568 0 1.0606601840861856 1 I I #
point $-1 -61.885065698483672 3.795324463031335 12.523379618042359 #
plane-surface $-1 65.568407238990446 0 0 -1 0 0 0 0 1 forward_v I I I I #
coedge $-1 $258 $256 $260 $370 reversed $161 $-1 #
edge $-1 $271 -14.085400875849093 $372 14.085400875849093 $270 $434 forward 7 unknown #
vertex $-1 $370 $435 #
straight-curve $-1 -65.568407238990446 -30.619867877141878 0 0 0 -1 I I #
edge $-1 $368 -30.619867877141878 $372 30.619867877141878 $366 $436 forward 7 unknown #
straight-curve $-1 0 -30.619867877141878 -14.085400875849093 -1 0 0 I I #
vertex $-1 $263 $437 #
straight-curve $-1 0 30.619867877141878 -14.085400875849093 1 0 0 I I #
point $-1 65.568407238990446 30.619867877141878 -14.085400875849093 #
point $-1 65.568407238990446 -30.619867877141878 -14.085400875849093 #
straight-curve $-1 -65.568407238990446 0 14.085400875849093 0 -1 0 I I #
point $-1 -65.568407238990446 30.619867877141878 14.085400875849093 #
point $-1 -65.568407238990446 -30.619867877141878 14.085400875849093 #
straight-curve $-1 65.568407238990446 -30.619867877141878 0 0 0 -1 I I #
straight-curve $-1 65.568407238990446 30.619867877141878 0 0 0 -1 I I #
plane-surface $-1 -65.568407238990446 0 0 1 0 0 0 0 -1 forward_v I I I I #
coedge $-1 $384 $393 $388 $438 forward $281 $-1 #
coedge $-1 $284 $283 $439 $440 forward $108 $-1 #
coedge $-1 $439 $382 $285 $385 reversed $281 $-1 #
edge $-1 $386 -65.568407238990446 $389 65.568407238990446 $384 $441 forward 7 unknown #
vertex $-1 $440 $442 #
straight-curve $-1 65.568407238990446 0 -14.085400875849093 0 -1 0 I I #
coedge $-1 $293 $287 $382 $438 reversed $294 $-1 #
vertex $-1 $288 $443 #
straight-curve $-1 -65.568407238990446 0 -14.085400875849093 0 1 0 I I #
point $-1 -65.568407238990446 -30.619867877141878 -14.085400875849093 #
point $-1 65.568407238990446 -30.619867877141878 -14.085400875849093 #
coedge $-1 $382 $439 $296 $394 reversed $281 $-1 #
edge $-1 $395 -65.568407238990446 $397 65.568407238990446 $393 $444 forward 7 unknown #
vertex $-1 $297 $445 #
straight-curve $-1 -65.568407238990446 -38.60463562166936 -7.1085988098923094 0 -1 0 I I #
vertex $-1 $298 $446 #
straight-curve $-1 65.568407238990446 -38.60463562166936 -7.1085988098923094 0 1 0 I I #
edge $-1 $400 78.894519599124081 $403 89.658055452238045 $302 $447 forward 7 unknown #
vertex $-1 $316 $448 #
straight-curve $-1 48.886206383718225 0.82849636715271657 14.085400875849089 1 0 0 I I #
edge $-1 $403 -1.3748196607673329 $313 5.7814517166074317 $312 $449 forward 7 unknown #
vertex $-1 $402 $450 #
straight-curve $-1 -9.64857796039216 0.82849636715271657 110.74285575056373 -0.57357642473473569 0 0.81915205242281985 I I #
point $-1 58.031698524322437 0.82849636715271657 14.085400875849089 #
point $-1 65.568407238990446 7.9847677445274812 3.3218650227351247 #
straight-curve $-1 65.568407238990446 0 14.085400875849093 0 1 0 I I #
vertex $-1 $319 $451 #
point $-1 60.990364303326743 4.4066320558400989 6.3055210552954915 #
edge $-1 $413 -17.09900178291463 $333 -9.9427304055398658 $332 $452 forward 7 unknown #
coedge $-1 $412 $326 $417 $453 reversed $323 $-1 #
coedge $-1 $326 $411 $328 $415 forward $323 $-1 #
vertex $-1 $327 $454 #
straight-curve $-1 17.954625281024274 30.619867877141878 71.321394871819265 -0.57357642473473569 0 0.81915205242281985 I I #
edge $-1 $419 -14.085400875849093 $329 -3.3218650227351239 $328 $455 forward 7 unknown #
point $-1 65.568407238990446 30.619867877141878 3.3218650227351239 #
coedge $-1 $332 $331 $411 $453 forward $216 $-1 #
point $-1 58.031698524322437 23.463596499767114 14.085400875849089 #
vertex $-1 $336 $456 #
straight-curve $-1 65.568407238990446 0 14.085400875849093 0 1 0 I I #
vertex $-1 $339 $457 #
point $-1 60.990364303326743 27.041732188454496 6.3055210552954915 #
edge $-1 $424 36.698482972534649 $427 41.943845856320486 $344 $458 forward 7 unknown #
vertex $-1 $358 $459 #
straight-curve $-1 -79.148069547725612 10.366754069594686 14.085400875849089 -1 0 0 I I #
edge $-1 $427 -8.4690918380790183 $355 4.6737673750476834 $354 $460 forward 7 unknown #
vertex $-1 $426 $461 #
straight-curve $-1 -65.568407238990432 10.366754069594686 8.840037992063273 0.70710677298230451 0 0.70710678939079041 I I #
point $-1 -60.323044476923798 10.366754069594686 14.085400875849093 #
point $-1 -65.568407238990446 -2.7761051435320159 8.8400379920632588 #
straight-curve $-1 -65.568407238990446 0 14.085400875849093 0 -1 0 I I #
vertex $-1 $361 $462 #
point $-1 -58.486304810740471 3.795324463031335 9.1246188091677567 #
straight-curve $-1 -65.568407238990446 30.619867877141878 0 0 0 -1 I I #
point $-1 -65.568407238990446 -30.619867877141878 -14.085400875849093 #
straight-curve $-1 -65.568407238990446 0 -14.085400875849093 0 1 0 I I #
point $-1 -65.568407238990446 30.619867877141878 -14.085400875849093 #
edge $-1 $395 -3.4884010329783921 $389 3.4884010329783912 $388 $463 forward 7 unknown #
coedge $-1 $393 $384 $383 $440 reversed $281 $-1 #
edge $-1 $397 -3.4884010329783921 $386 3.4884010329783912 $383 $464 forward 7 unknown #
straight-curve $-1 0 -46.589403366196841 -14.085400875849093 -1 0 0 I I #
point $-1 65.568407238990446 -46.589403366196841 -14.085400875849093 #
point $-1 -65.568407238990446 -46.589403366196841 -14.085400875849093 #
straight-curve $-1 0 -46.589403366196841 -7.1085988098923094 1 0 0 I I #
point $-1 -65.568407238990446 -46.589403366196841 -7.1085988098923094 #
point $-1 65.568407238990446 -46.589403366196841 -7.1085988098923094 #
straight-curve $-1 65.568407238990446 0.82849636715271657 92.97992047497317 0 0 -1 I I #
point $-1 65.568407238990446 0.82849636715271657 14.085400875849093 #
straight-curve $-1 65.56840723899046 2.2033160279200494 3.3218650227351034 0 1 0 I I #
point $-1 65.568407238990446 0.82849636715271657 3.3218650227351247 #
point $-1 58.901271587590408 4.4066320558400989 6.6738844968276174 #
straight-curve $-1 58.031698524322451 13.520866094227248 14.085400875849089 0 -1 0 I I #
edge $-1 $419 -65.568407238990446 $413 -58.031698524322437 $411 $465 forward 7 unknown #
point $-1 58.031698524322437 30.619867877141878 14.085400875849089 #
straight-curve $-1 65.568407238990446 30.619867877141878 0 0 0 -1 I I #
point $-1 65.568407238990446 30.619867877141878 14.085400875849093 #
point $-1 58.901271587590408 27.041732188454496 6.6738844968276174 #
straight-curve $-1 -65.568407238990446 10.366754069594686 50.783883848383745 0 0 -1 I I #
point $-1 -65.568407238990446 10.366754069594686 14.085400875849093 #
straight-curve $-1 -65.568407238990446 1.8976622315156675 8.8400379920632446 0 -1 0 I I #
point $-1 -65.568407238990446 10.366754069594686 8.8400379920632588 #
point $-1 -58.486304786127739 3.795324463031335 7.0032984656081148 #
straight-curve $-1 -65.568407238990446 -46.589403366196841 -10.596999842870702 0 0 -1 I I #
straight-curve $-1 65.568407238990446 -46.589403366196841 -10.596999842870702 0 0 -1 I I #
straight-curve $-1 0 30.619867877141878 14.085400875849093 -1 0 0 I I #
End-of-ACIS-data 