500 0 6 0           
7 Unknown 11 ACIS 5.0 NT 24 Fri Mar 26 19:48:10 1999 
-1 9.9999999999999995e-007 1e-010 
body $-1 $6 $-1 $7 #
body $-1 $8 $-1 $9 #
body $-1 $10 $-1 $11 #
body $-1 $12 $-1 $13 #
body $-1 $14 $-1 $15 #
body $-1 $16 $-1 $17 #
lump $-1 $-1 $18 $0 #
transform $-1 1 0 0 0 1 0 0 0 1 79.111301004058959 52.09462391322306 15.577193995158796 1 rotate no_reflect no_shear #
lump $-1 $-1 $19 $1 #
transform $-1 1 0 0 0 1 0 0 0 1 79.111301004058959 52.09462391322306 15.577193995158796 1 rotate no_reflect no_shear #
lump $-1 $-1 $20 $2 #
transform $-1 1 0 0 0 1 0 0 0 1 79.111301004058959 52.09462391322306 15.577193995158796 1 rotate no_reflect no_shear #
lump $-1 $-1 $21 $3 #
transform $-1 1 0 0 0 1 0 0 0 1 79.111301004058959 52.09462391322306 15.577193995158796 1 rotate no_reflect no_shear #
lump $-1 $-1 $22 $4 #
transform $-1 1 0 0 0 1 0 0 0 1 79.111301004058959 52.09462391322306 15.577193995158796 1 rotate no_reflect no_shear #
lump $-1 $-1 $23 $5 #
transform $-1 1 0 0 0 1 0 0 0 1 79.111301004058959 52.09462391322306 15.577193995158796 1 rotate no_reflect no_shear #
shell $-1 $-1 $-1 $24 $-1 $6 #
shell $-1 $-1 $-1 $25 $-1 $8 #
shell $-1 $-1 $-1 $26 $-1 $10 #
shell $-1 $-1 $-1 $27 $-1 $12 #
shell $-1 $-1 $-1 $28 $-1 $14 #
shell $-1 $-1 $-1 $29 $-1 $16 #
face $-1 $30 $31 $18 $-1 $32 forward single #
face $-1 $33 $34 $19 $-1 $35 forward single #
face $-1 $36 $37 $20 $-1 $38 forward single #
face $-1 $39 $40 $21 $-1 $41 reversed single #
face $-1 $42 $43 $22 $-1 $44 forward single #
face $-1 $45 $46 $23 $-1 $47 forward single #
face $-1 $48 $49 $18 $-1 $50 reversed single #
loop $-1 $-1 $51 $24 #
plane-surface $-1 0 0 15.577193995158796 0 0 1 1 0 0 forward_v I I I I #
face $-1 $52 $53 $19 $-1 $54 reversed single #
loop $-1 $-1 $55 $25 #
plane-surface $-1 -72.104900963290206 0 -7.718856882247211 0 0 1 1 0 0 forward_v I I I I #
face $-1 $56 $57 $20 $-1 $58 reversed single #
loop $-1 $-1 $59 $26 #
plane-surface $-1 72.104900963290191 0 -7.718856882247211 0 0 1 1 0 0 forward_v I I I I #
face $-1 $60 $61 $21 $-1 $62 reversed single #
loop $-1 $-1 $63 $27 #
plane-surface $-1 -28.543186827974324 67.403938648036601 190.73524019176992 -1 0 0 0 0.61566148304635926 0.78801074757464917 forward_v I I I I #
face $-1 $64 $65 $22 $-1 $66 forward single #
loop $-1 $67 $68 $28 #
cone-surface $-1 -49.625861226117316 41.891116917474875 6.8792234490279274 0 -0.61566148304635926 -0.78801074757464917 1.5 0 0 1 I I 0 1 1.5 forward I I I I #
face $-1 $69 $70 $23 $-1 $71 forward single #
loop $-1 $72 $73 $29 #
cone-surface $-1 -36.976256587231518 41.891116917474875 6.8792234490279274 0 -0.61566148304635926 -0.78801074757464917 1.5 0 0 1 I I 0 1 1.5 forward I I I I #
face $-1 $74 $75 $18 $-1 $76 reversed single #
loop $-1 $-1 $77 $30 #
plane-surface $-1 0 0 -15.577193995158796 0 0 1 1 0 0 forward_v I I I I #
coedge $-1 $78 $79 $80 $81 forward $31 $-1 #
face $-1 $82 $83 $19 $-1 $84 reversed single #
loop $-1 $-1 $85 $33 #
plane-surface $-1 -65.098500922521453 0 -11.648025438703003 -1 0 0 0 0 1 forward_v I I I I #
coedge $-1 $86 $87 $88 $89 forward $34 $-1 #
face $-1 $90 $91 $20 $-1 $92 reversed single #
loop $-1 $-1 $93 $36 #
plane-surface $-1 65.098500922521438 0 -11.648025438703003 1 0 0 0 0 -1 forward_v I I I I #
coedge $-1 $94 $95 $96 $97 reversed $37 $-1 #
face $-1 $98 $99 $21 $-1 $100 reversed single #
loop $-1 $-1 $101 $39 #
plane-surface $-1 -43.30105890667442 -30.007623155735132 66.054129300146727 0 0.61566148304635926 0.78801074757464917 1 0 0 forward_v I I I I #
coedge $-1 $102 $103 $104 $105 reversed $40 $-1 #
face $-1 $-1 $106 $22 $-1 $107 forward single #
loop $-1 $108 $109 $42 #
cone-surface $-1 -49.625861226117316 39.973222515120156 4.4244306068793531 0 -0.61566148304635926 -0.78801074757464917 0.75 0 0 1 I I -0.70710678118654757 0.70710678118654757 0.75 forward I I I I #
loop $-1 $-1 $110 $28 #
coedge $-1 $68 $68 $111 $112 reversed $43 $-1 #
face $-1 $-1 $113 $23 $-1 $114 forward single #
loop $-1 $115 $116 $45 #
cone-surface $-1 -36.976256587231518 39.973222515120156 4.4244306068793531 0 -0.61566148304635926 -0.78801074757464917 0.75 0 0 1 I I -0.70710678118654757 0.70710678118654757 0.75 forward I I I I #
loop $-1 $-1 $117 $29 #
coedge $-1 $73 $73 $118 $119 reversed $46 $-1 #
face $-1 $120 $121 $18 $-1 $122 reversed single #
loop $-1 $-1 $123 $48 #
plane-surface $-1 0 -52.09462391322306 0 0 1 0 0 0 1 forward_v I I I I #
coedge $-1 $124 $125 $126 $127 forward $49 $-1 #
coedge $-1 $128 $51 $129 $130 forward $31 $-1 #
coedge $-1 $51 $128 $131 $132 forward $31 $-1 #
coedge $-1 $133 $134 $51 $81 reversed $135 $-1 #
edge $-1 $136 -52.09462391322306 $137 52.09462391322306 $80 $138 forward 7 unknown #
face $-1 $139 $140 $19 $-1 $141 reversed single #
loop $-1 $-1 $142 $52 #
plane-surface $-1 0 0 -15.577193995158796 0 0 1 1 0 0 forward_v I I I I #
coedge $-1 $143 $88 $144 $145 reversed $53 $-1 #
coedge $-1 $146 $55 $147 $148 reversed $34 $-1 #
coedge $-1 $55 $146 $149 $150 reversed $34 $-1 #
coedge $-1 $85 $151 $55 $89 reversed $53 $-1 #
edge $-1 $152 -52.09462391322306 $153 52.09462391322306 $88 $154 forward 7 unknown #
face $-1 $155 $156 $20 $-1 $157 reversed single #
loop $-1 $-1 $158 $56 #
plane-surface $-1 0 -52.09462391322306 0 0 1 0 0 0 1 forward_v I I I I #
coedge $-1 $159 $160 $161 $162 reversed $57 $-1 #
coedge $-1 $163 $59 $164 $165 reversed $37 $-1 #
coedge $-1 $59 $163 $158 $166 reversed $37 $-1 #
coedge $-1 $167 $168 $59 $97 forward $169 $-1 #
edge $-1 $170 -52.09462391322306 $171 52.09462391322306 $96 $172 forward 7 unknown #
face $-1 $173 $174 $21 $-1 $175 reversed single #
loop $-1 $-1 $176 $60 #
plane-surface $-1 -58.058930985374516 67.403938648036601 190.73524019176992 1 0 0 0 -0.61566148304635926 -0.78801074757464917 forward_v I I I I #
coedge $-1 $177 $178 $179 $180 reversed $61 $-1 #
coedge $-1 $103 $63 $181 $182 reversed $40 $-1 #
coedge $-1 $63 $102 $177 $183 reversed $40 $-1 #
coedge $-1 $179 $184 $63 $105 forward $174 $-1 #
edge $-1 $185 79.790426100726165 $186 93.4587976300527 $104 $187 forward 7 unknown #
loop $-1 $-1 $111 $64 #
plane-surface $-1 -43.30105890667442 -30.007623155735132 66.054129300146727 0 0.61566148304635926 0.78801074757464917 1 0 0 forward_v I I I I #
loop $-1 $-1 $188 $42 #
coedge $-1 $109 $109 $110 $189 reversed $65 $-1 #
coedge $-1 $110 $110 $109 $189 forward $67 $-1 #
coedge $-1 $111 $111 $68 $112 forward $106 $-1 #
edge $-1 $190 2.0999485102780553e-015 $190 6.2831853071796022 $111 $191 forward 7 unknown #
loop $-1 $-1 $118 $69 #
plane-surface $-1 -43.30105890667442 -30.007623155735132 66.054129300146727 0 0.61566148304635926 0.78801074757464917 1 0 0 forward_v I I I I #
loop $-1 $-1 $192 $45 #
coedge $-1 $116 $116 $117 $193 reversed $70 $-1 #
coedge $-1 $117 $117 $116 $193 forward $72 $-1 #
coedge $-1 $118 $118 $73 $119 forward $113 $-1 #
edge $-1 $194 2.0999485102780553e-015 $194 6.2831853071796022 $118 $195 forward 7 unknown #
face $-1 $196 $197 $18 $-1 $198 reversed single #
loop $-1 $-1 $199 $74 #
plane-surface $-1 -79.111301004058959 0 0 1 0 0 0 0 -1 forward_v I I I I #
coedge $-1 $200 $131 $201 $202 forward $75 $-1 #
coedge $-1 $203 $77 $200 $204 forward $49 $-1 #
coedge $-1 $77 $203 $205 $206 forward $49 $-1 #
coedge $-1 $134 $133 $77 $127 reversed $135 $-1 #
edge $-1 $207 -52.09462391322306 $208 52.09462391322306 $126 $209 forward 7 unknown #
coedge $-1 $79 $78 $210 $211 forward $31 $-1 #
coedge $-1 $212 $213 $78 $130 reversed $197 $-1 #
edge $-1 $137 -79.111301004058959 $214 79.111301004058959 $129 $215 forward 7 unknown #
coedge $-1 $123 $216 $79 $132 reversed $75 $-1 #
edge $-1 $217 -79.111301004058959 $136 79.111301004058959 $131 $218 forward 7 unknown #
coedge $-1 $126 $80 $216 $219 forward $135 $-1 #
coedge $-1 $80 $126 $212 $220 reversed $135 $-1 #
loop $-1 $-1 $133 $196 #
vertex $-1 $81 $221 #
vertex $-1 $81 $222 #
straight-curve $-1 79.111301004058959 0 15.577193995158796 0 1 0 I I #
face $-1 $223 $224 $19 $-1 $225 reversed single #
loop $-1 $-1 $144 $82 #
plane-surface $-1 0 -52.09462391322306 0 0 1 0 0 0 1 forward_v I I I I #
coedge $-1 $226 $227 $143 $228 forward $83 $-1 #
coedge $-1 $151 $85 $142 $228 reversed $53 $-1 #
coedge $-1 $149 $229 $85 $145 forward $140 $-1 #
edge $-1 $230 -9.7531812758072931 $152 -1.8948441628957093 $144 $231 forward 7 unknown #
coedge $-1 $87 $86 $232 $233 reversed $34 $-1 #
coedge $-1 $234 $235 $86 $148 forward $236 $-1 #
edge $-1 $237 -43.058850522413856 $153 -29.04605044087635 $147 $238 forward 7 unknown #
coedge $-1 $239 $144 $87 $150 forward $140 $-1 #
edge $-1 $152 29.04605044087635 $240 43.058850522413856 $149 $241 forward 7 unknown #
coedge $-1 $88 $143 $234 $242 reversed $53 $-1 #
vertex $-1 $150 $243 #
vertex $-1 $148 $244 #
straight-curve $-1 -65.098500922521453 0 -7.718856882247211 0 1 0 I I #
face $-1 $245 $246 $20 $-1 $247 reversed single #
loop $-1 $-1 $248 $90 #
plane-surface $-1 0 0 -15.577193995158796 0 0 1 1 0 0 forward_v I I I I #
coedge $-1 $249 $250 $95 $166 forward $91 $-1 #
coedge $-1 $251 $93 $248 $252 reversed $57 $-1 #
coedge $-1 $93 $251 $163 $253 reversed $57 $-1 #
coedge $-1 $164 $254 $93 $162 forward $246 $-1 #
edge $-1 $255 -9.7531812758072931 $256 -1.8948441628957093 $161 $257 forward 7 unknown #
coedge $-1 $95 $94 $160 $253 forward $37 $-1 #
coedge $-1 $258 $161 $94 $165 forward $246 $-1 #
edge $-1 $256 29.046050440876343 $170 43.058850522413849 $164 $259 forward 7 unknown #
edge $-1 $171 -43.058850522413849 $260 -29.046050440876343 $158 $261 forward 7 unknown #
coedge $-1 $262 $96 $250 $263 forward $169 $-1 #
coedge $-1 $96 $262 $258 $264 reversed $169 $-1 #
loop $-1 $-1 $96 $245 #
vertex $-1 $264 $265 #
vertex $-1 $263 $266 #
straight-curve $-1 79.111301004058959 0 -7.718856882247211 0 -1 0 I I #
face $-1 $-1 $267 $21 $-1 $268 forward single #
loop $-1 $-1 $104 $98 #
plane-surface $-1 0 52.09462391322306 0 0 -1 0 0 0 -1 forward_v I I I I #
coedge $-1 $269 $270 $271 $272 reversed $99 $-1 #
coedge $-1 $273 $101 $103 $183 forward $61 $-1 #
coedge $-1 $101 $273 $269 $274 forward $61 $-1 #
coedge $-1 $271 $104 $101 $180 forward $174 $-1 #
edge $-1 $186 6.892657374637114 $275 36.408401532037303 $179 $276 forward 7 unknown #
coedge $-1 $277 $278 $102 $182 forward $267 $-1 #
edge $-1 $279 0.89793717784832694 $185 18.39265458920476 $181 $280 forward 7 unknown #
edge $-1 $186 -104.18924782644611 $279 -81.988132593942083 $103 $281 forward 7 unknown #
coedge $-1 $104 $271 $277 $282 reversed $174 $-1 #
vertex $-1 $282 $283 #
vertex $-1 $105 $284 #
straight-curve $-1 -28.543186827974324 52.09462391322306 95.367620095884959 0 0 -1 I I #
coedge $-1 $188 $188 $-1 $285 reversed $108 $-1 #
edge $-1 $286 0 $286 6.2831853071796004 $109 $287 forward 7 unknown #
vertex $-1 $112 $288 #
ellipse-curve $-1 -49.625861226117316 43.347265207544837 8.7430082304955281 0 0.61566148304635926 0.78801074757464917 1.5 0 0 1 I I #
coedge $-1 $192 $192 $-1 $289 reversed $115 $-1 #
edge $-1 $290 0 $290 6.2831853071796004 $116 $291 forward 7 unknown #
vertex $-1 $119 $292 #
ellipse-curve $-1 -36.976256587231518 43.347265207544837 8.7430082304955281 0 0.61566148304635926 0.78801074757464917 1.5 0 0 1 I I #
face $-1 $-1 $135 $18 $-1 $293 reversed single #
loop $-1 $-1 $212 $120 #
plane-surface $-1 0 52.09462391322306 0 0 -1 0 0 0 -1 forward_v I I I I #
coedge $-1 $294 $210 $213 $295 forward $121 $-1 #
coedge $-1 $216 $123 $124 $204 reversed $75 $-1 #
coedge $-1 $210 $294 $123 $202 reversed $121 $-1 #
edge $-1 $217 -15.577193995158796 $296 15.577193995158796 $201 $297 forward 7 unknown #
coedge $-1 $125 $124 $294 $298 forward $49 $-1 #
edge $-1 $208 -79.111301004058959 $296 79.111301004058959 $200 $299 forward 7 unknown #
coedge $-1 $213 $212 $125 $206 reversed $197 $-1 #
edge $-1 $300 -79.111301004058959 $207 79.111301004058959 $205 $301 forward 7 unknown #
vertex $-1 $127 $302 #
vertex $-1 $219 $303 #
straight-curve $-1 79.111301004058959 0 -15.577193995158796 0 -1 0 I I #
coedge $-1 $199 $201 $128 $211 reversed $121 $-1 #
edge $-1 $214 -52.09462391322306 $217 52.09462391322306 $210 $304 forward 7 unknown #
coedge $-1 $205 $129 $134 $220 forward $197 $-1 #
coedge $-1 $129 $205 $199 $295 reversed $197 $-1 #
vertex $-1 $130 $305 #
straight-curve $-1 0 52.09462391322306 15.577193995158796 -1 0 0 I I #
coedge $-1 $131 $200 $133 $219 reversed $75 $-1 #
vertex $-1 $211 $306 #
straight-curve $-1 0 -52.09462391322306 15.577193995158796 1 0 0 I I #
edge $-1 $136 -15.577193995158796 $208 15.577193995158796 $133 $307 forward 7 unknown #
edge $-1 $137 -15.577193995158796 $207 15.577193995158796 $134 $308 forward 7 unknown #
point $-1 79.111301004058959 -52.09462391322306 15.577193995158796 #
point $-1 79.111301004058959 52.09462391322306 15.577193995158796 #
face $-1 $-1 $236 $19 $-1 $309 reversed single #
loop $-1 $-1 $232 $139 #
plane-surface $-1 -79.111301004058959 0 0 1 0 0 0 0 -1 forward_v I I I I #
coedge $-1 $310 $142 $229 $311 forward $83 $-1 #
coedge $-1 $142 $310 $312 $313 forward $83 $-1 #
edge $-1 $314 -52.09462391322306 $230 52.09462391322306 $142 $315 forward 7 unknown #
coedge $-1 $144 $239 $226 $311 reversed $140 $-1 #
vertex $-1 $311 $316 #
straight-curve $-1 -65.098500922521453 -52.09462391322306 -5.8240127193515017 0 0 1 I I #
coedge $-1 $317 $318 $146 $233 forward $224 $-1 #
edge $-1 $240 -52.09462391322306 $237 52.09462391322306 $232 $319 forward 7 unknown #
coedge $-1 $312 $147 $151 $242 forward $236 $-1 #
coedge $-1 $147 $312 $317 $320 reversed $236 $-1 #
loop $-1 $-1 $234 $223 #
vertex $-1 $320 $321 #
straight-curve $-1 -36.052450481645103 52.09462391322306 -7.718856882247211 1 0 0 I I #
coedge $-1 $229 $149 $318 $322 forward $140 $-1 #
vertex $-1 $322 $323 #
straight-curve $-1 -36.052450481645103 -52.09462391322306 -7.718856882247211 -1 0 0 I I #
edge $-1 $153 1.8948441628957093 $314 9.7531812758072931 $234 $324 forward 7 unknown #
point $-1 -65.098500922521453 -52.09462391322306 -7.718856882247211 #
point $-1 -65.098500922521453 52.09462391322306 -7.718856882247211 #
face $-1 $-1 $169 $20 $-1 $325 reversed single #
loop $-1 $-1 $164 $155 #
plane-surface $-1 0 52.09462391322306 0 0 -1 0 0 0 -1 forward_v I I I I #
coedge $-1 $326 $327 $159 $252 forward $156 $-1 #
coedge $-1 $328 $158 $251 $329 forward $91 $-1 #
coedge $-1 $158 $328 $167 $263 reversed $91 $-1 #
coedge $-1 $160 $159 $249 $329 reversed $57 $-1 #
edge $-1 $330 -52.09462391322306 $255 52.09462391322306 $248 $331 forward 7 unknown #
edge $-1 $256 -52.09462391322306 $260 52.09462391322306 $160 $332 forward 7 unknown #
coedge $-1 $161 $258 $326 $333 reversed $246 $-1 #
vertex $-1 $333 $334 #
vertex $-1 $165 $335 #
straight-curve $-1 65.098500922521438 52.09462391322306 -5.8240127193515017 0 0 1 I I #
coedge $-1 $254 $164 $168 $264 forward $246 $-1 #
straight-curve $-1 36.052450481645096 52.09462391322306 -7.718856882247211 1 0 0 I I #
vertex $-1 $166 $336 #
straight-curve $-1 36.052450481645096 -52.09462391322306 -7.718856882247211 -1 0 0 I I #
coedge $-1 $168 $167 $337 $338 reversed $169 $-1 #
edge $-1 $171 7.718856882247211 $339 15.577193995158796 $167 $340 forward 7 unknown #
edge $-1 $170 7.718856882247211 $341 15.577193995158796 $168 $342 forward 7 unknown #
point $-1 79.111301004058944 52.09462391322306 -7.718856882247211 #
point $-1 79.111301004058944 -52.09462391322306 -7.718856882247211 #
loop $-1 $-1 $181 $173 #
plane-surface $-1 0 0 15.577193995158796 0 0 1 1 0 0 forward_v I I I I #
coedge $-1 $270 $176 $178 $274 reversed $99 $-1 #
coedge $-1 $176 $269 $343 $344 reversed $99 $-1 #
coedge $-1 $184 $179 $176 $272 forward $174 $-1 #
edge $-1 $275 -93.4587976300527 $345 -79.790426100726165 $271 $346 forward 7 unknown #
coedge $-1 $178 $177 $278 $347 reversed $61 $-1 #
edge $-1 $348 81.988132593942083 $275 104.18924782644611 $269 $349 forward 7 unknown #
vertex $-1 $180 $350 #
straight-curve $-1 -21.65052945333721 52.09462391322306 1.9088224658322446 -1 0 0 I I #
coedge $-1 $343 $181 $184 $282 forward $267 $-1 #
coedge $-1 $181 $343 $273 $347 forward $267 $-1 #
vertex $-1 $182 $351 #
straight-curve $-1 -28.543186827974324 33.7019693240183 15.577193995158794 0 1 0 I I #
straight-curve $-1 -28.543186827974324 -30.007623155735132 66.054129300146727 0 -0.78801074757464917 0.61566148304635926 I I #
edge $-1 $185 28.543186827974324 $345 58.058930985374516 $184 $352 forward 7 unknown #
point $-1 -28.543186827974324 52.09462391322306 15.577193995158796 #
point $-1 -28.543186827974324 52.09462391322306 1.9088224658322588 #
edge $-1 $353 1 $353 0 $188 $-1 forward 7 unknown #
vertex $-1 $189 $354 #
ellipse-curve $-1 -49.625861226117316 40.434968627404928 5.01543866756034 0 0.61566148304635926 0.78801074757464917 1.5 0 0 1 I I #
point $-1 -48.125861226117316 43.347265207544829 8.7430082304955139 #
edge $-1 $355 1 $355 0 $192 $-1 forward 7 unknown #
vertex $-1 $193 $356 #
ellipse-curve $-1 -36.976256587231518 40.434968627404928 5.01543866756034 0 0.61566148304635926 0.78801074757464917 1.5 0 0 1 I I #
point $-1 -35.476256587231518 43.347265207544829 8.7430082304955139 #
plane-surface $-1 79.111301004058959 0 0 -1 0 0 0 0 1 forward_v I I I I #
coedge $-1 $201 $199 $203 $298 reversed $121 $-1 #
edge $-1 $214 -15.577193995158796 $300 15.577193995158796 $213 $357 forward 7 unknown #
vertex $-1 $298 $358 #
straight-curve $-1 -79.111301004058959 -52.09462391322306 0 0 0 -1 I I #
edge $-1 $296 -52.09462391322306 $300 52.09462391322306 $294 $359 forward 7 unknown #
straight-curve $-1 0 -52.09462391322306 -15.577193995158796 -1 0 0 I I #
vertex $-1 $206 $360 #
straight-curve $-1 0 52.09462391322306 -15.577193995158796 1 0 0 I I #
point $-1 79.111301004058959 52.09462391322306 -15.577193995158796 #
point $-1 79.111301004058959 -52.09462391322306 -15.577193995158796 #
straight-curve $-1 -79.111301004058959 0 15.577193995158796 0 -1 0 I I #
point $-1 -79.111301004058959 52.09462391322306 15.577193995158796 #
point $-1 -79.111301004058959 -52.09462391322306 15.577193995158796 #
straight-curve $-1 79.111301004058959 -52.09462391322306 0 0 0 -1 I I #
straight-curve $-1 79.111301004058959 52.09462391322306 0 0 0 -1 I I #
plane-surface $-1 0 52.09462391322306 0 0 -1 0 0 0 -1 forward_v I I I I #
coedge $-1 $227 $226 $361 $362 forward $83 $-1 #
edge $-1 $230 65.098500922521453 $363 79.111301004058959 $229 $364 forward 7 unknown #
coedge $-1 $235 $234 $227 $313 reversed $236 $-1 #
edge $-1 $365 -79.111301004058959 $314 -65.098500922521453 $312 $366 forward 7 unknown #
vertex $-1 $242 $367 #
straight-curve $-1 -65.098500922521453 0 -15.577193995158796 0 -1 0 I I #
point $-1 -65.098500922521453 -52.09462391322306 -15.577193995158796 #
coedge $-1 $361 $232 $235 $320 forward $224 $-1 #
coedge $-1 $232 $361 $239 $322 reversed $224 $-1 #
straight-curve $-1 -79.111301004058959 0 -7.718856882247211 0 1 0 I I #
edge $-1 $237 7.718856882247211 $365 15.577193995158796 $235 $368 forward 7 unknown #
point $-1 -79.111301004058959 52.09462391322306 -7.718856882247211 #
edge $-1 $240 7.718856882247211 $363 15.577193995158796 $318 $369 forward 7 unknown #
point $-1 -79.111301004058959 -52.09462391322306 -7.718856882247211 #
straight-curve $-1 -65.098500922521453 52.09462391322306 -5.8240127193515017 0 0 -1 I I #
plane-surface $-1 79.111301004058959 0 0 -1 0 0 0 0 1 forward_v I I I I #
coedge $-1 $337 $248 $254 $333 forward $156 $-1 #
coedge $-1 $248 $337 $328 $370 forward $156 $-1 #
coedge $-1 $250 $249 $327 $370 reversed $91 $-1 #
edge $-1 $260 1.8948441628957093 $330 9.7531812758072931 $249 $371 forward 7 unknown #
vertex $-1 $252 $372 #
straight-curve $-1 65.098500922521438 0 -15.577193995158796 0 1 0 I I #
straight-curve $-1 65.098500922521438 0 -7.718856882247211 0 -1 0 I I #
edge $-1 $255 65.098500922521438 $341 79.111301004058959 $254 $373 forward 7 unknown #
point $-1 65.098500922521438 52.09462391322306 -15.577193995158796 #
point $-1 65.098500922521438 52.09462391322306 -7.718856882247211 #
point $-1 65.098500922521438 -52.09462391322306 -7.718856882247211 #
coedge $-1 $327 $326 $262 $338 forward $156 $-1 #
edge $-1 $341 -52.09462391322306 $339 52.09462391322306 $262 $374 forward 7 unknown #
vertex $-1 $263 $375 #
straight-curve $-1 79.111301004058959 -52.09462391322306 0 0 0 -1 I I #
vertex $-1 $338 $376 #
straight-curve $-1 79.111301004058959 52.09462391322306 0 0 0 -1 I I #
coedge $-1 $278 $277 $270 $344 forward $267 $-1 #
edge $-1 $345 -18.39265458920476 $348 -0.89793717784832694 $343 $377 forward 7 unknown #
vertex $-1 $344 $378 #
straight-curve $-1 -58.058930985374516 52.09462391322306 95.367620095884959 0 0 1 I I #
edge $-1 $348 -36.408401532037303 $279 -6.892657374637114 $278 $379 forward 7 unknown #
vertex $-1 $347 $380 #
straight-curve $-1 -58.058930985374516 -30.007623155735132 66.054129300146727 0 0.78801074757464917 -0.61566148304635926 I I #
point $-1 -58.058930985374516 52.09462391322306 1.9088224658322588 #
point $-1 -28.543186827974324 34.599906501866627 15.577193995158801 #
straight-curve $-1 0 52.09462391322306 15.577193995158796 -1 0 0 I I #
vertex $-1 $285 $381 #
point $-1 -48.125861226117316 40.434968627404928 5.01543866756034 #
vertex $-1 $289 $382 #
point $-1 -35.476256587231518 40.434968627404928 5.01543866756034 #
straight-curve $-1 -79.111301004058959 52.09462391322306 0 0 0 -1 I I #
point $-1 -79.111301004058959 -52.09462391322306 -15.577193995158796 #
straight-curve $-1 -79.111301004058959 0 -15.577193995158796 0 1 0 I I #
point $-1 -79.111301004058959 52.09462391322306 -15.577193995158796 #
coedge $-1 $318 $317 $310 $362 reversed $224 $-1 #
edge $-1 $363 -52.09462391322306 $365 52.09462391322306 $361 $383 forward 7 unknown #
vertex $-1 $362 $384 #
straight-curve $-1 0 -52.09462391322306 -15.577193995158796 -1 0 0 I I #
vertex $-1 $313 $385 #
straight-curve $-1 0 52.09462391322306 -15.577193995158796 1 0 0 I I #
point $-1 -65.098500922521453 52.09462391322306 -15.577193995158796 #
straight-curve $-1 -79.111301004058959 52.09462391322306 0 0 0 -1 I I #
straight-curve $-1 -79.111301004058959 -52.09462391322306 0 0 0 -1 I I #
edge $-1 $339 -79.111301004058959 $330 -65.098500922521438 $328 $386 forward 7 unknown #
straight-curve $-1 65.098500922521438 -52.09462391322306 -5.8240127193515017 0 0 -1 I I #
point $-1 65.098500922521438 -52.09462391322306 -15.577193995158796 #
straight-curve $-1 0 52.09462391322306 -15.577193995158796 1 0 0 I I #
straight-curve $-1 79.111301004058959 0 -15.577193995158796 0 -1 0 I I #
point $-1 79.111301004058959 -52.09462391322306 -15.577193995158796 #
point $-1 79.111301004058959 52.09462391322306 -15.577193995158796 #
straight-curve $-1 -58.058930985374516 33.7019693240183 15.577193995158794 0 -1 0 I I #
point $-1 -58.058930985374516 52.09462391322306 15.577193995158796 #
straight-curve $-1 -21.65052945333721 34.599906501866634 15.577193995158794 1 0 0 I I #
point $-1 -58.058930985374516 34.599906501866627 15.577193995158801 #
point $-1 -49.625861226117316 39.511476402835385 3.8334225461983662 #
point $-1 -36.976256587231518 39.511476402835385 3.8334225461983662 #
straight-curve $-1 -79.111301004058959 0 -15.577193995158796 0 1 0 I I #
point $-1 -79.111301004058959 -52.09462391322306 -15.577193995158796 #
point $-1 -79.111301004058959 52.09462391322306 -15.577193995158796 #
straight-curve $-1 0 -52.09462391322306 -15.577193995158796 -1 0 0 I I #
End-of-ACIS-data 