500 0 8 0           
7 Unknown 11 ACIS 5.0 NT 24 Fri Mar 26 19:57:57 1999 
-1 9.9999999999999995e-007 1e-010 
body $-1 $8 $-1 $9 #
body $-1 $10 $-1 $11 #
body $-1 $12 $-1 $13 #
body $-1 $14 $-1 $15 #
body $-1 $16 $-1 $17 #
body $-1 $18 $-1 $19 #
body $-1 $20 $-1 $21 #
body $-1 $22 $-1 $23 #
lump $-1 $-1 $24 $0 #
transform $-1 1 0 0 0 1 0 0 0 1 40.357676931058684 23.47758312095872 11.374450881839035 1 rotate no_reflect no_shear #
lump $-1 $-1 $25 $1 #
transform $-1 1 0 0 0 1 0 0 0 1 40.357676931058684 23.47758312095872 11.374450881839035 1 rotate no_reflect no_shear #
lump $-1 $-1 $26 $2 #
transform $-1 1 0 0 0 1 0 0 0 1 40.357676931058684 23.47758312095872 11.374450881839035 1 rotate no_reflect no_shear #
lump $-1 $-1 $27 $3 #
transform $-1 1 0 0 0 1 0 0 0 1 40.357676931058684 23.47758312095872 11.374450881839035 1 rotate no_reflect no_shear #
lump $-1 $-1 $28 $4 #
transform $-1 1 0 0 0 1 0 0 0 1 40.357676931058684 23.47758312095872 11.374450881839035 1 rotate no_reflect no_shear #
lump $-1 $-1 $29 $5 #
transform $-1 1 0 0 0 1 0 0 0 1 40.357676931058684 23.47758312095872 11.374450881839035 1 rotate no_reflect no_shear #
lump $-1 $-1 $30 $6 #
transform $-1 1 0 0 0 1 0 0 0 1 40.357676931058684 23.47758312095872 11.374450881839035 1 rotate no_reflect no_shear #
lump $-1 $-1 $31 $7 #
transform $-1 1 0 0 0 1 0 0 0 1 40.357676931058684 23.47758312095872 11.374450881839035 1 rotate no_reflect no_shear #
shell $-1 $-1 $-1 $32 $-1 $8 #
shell $-1 $-1 $-1 $33 $-1 $10 #
shell $-1 $-1 $-1 $34 $-1 $12 #
shell $-1 $-1 $-1 $35 $-1 $14 #
shell $-1 $-1 $-1 $36 $-1 $16 #
shell $-1 $-1 $-1 $37 $-1 $18 #
shell $-1 $-1 $-1 $38 $-1 $20 #
shell $-1 $-1 $-1 $39 $-1 $22 #
face $-1 $40 $41 $24 $-1 $42 forward single #
face $-1 $43 $44 $25 $-1 $45 forward single #
face $-1 $46 $47 $26 $-1 $48 reversed single #
face $-1 $49 $50 $27 $-1 $51 forward single #
face $-1 $52 $53 $28 $-1 $54 forward single #
face $-1 $55 $56 $29 $-1 $57 reversed single #
face $-1 $58 $59 $30 $-1 $60 forward single #
face $-1 $61 $62 $31 $-1 $63 forward single #
face $-1 $64 $65 $24 $-1 $66 reversed single #
loop $-1 $-1 $67 $32 #
plane-surface $-1 0 0 11.374450881839035 0 0 1 1 0 0 forward_v I I I I #
face $-1 $68 $69 $25 $-1 $70 forward single #
loop $-1 $-1 $71 $33 #
plane-surface $-1 0 -23.47758312095872 0 0 1 0 0 0 1 forward_v I I I I #
face $-1 $72 $73 $26 $-1 $74 reversed single #
loop $-1 $-1 $75 $34 #
plane-surface $-1 -91.153495618052702 -4.2845757267945856 62.950217256470296 0 1 0 -0.62932039886446345 0 0.77714595512881146 forward_v I I I I #
face $-1 $76 $77 $27 $-1 $78 forward single #
loop $-1 $79 $80 $35 #
cone-surface $-1 -32.366925951194659 -1.098459965961446 4.4338924524194061 0.62932039886446345 0 -0.77714595512881146 0.77714595512881146 0 0.62932039886446345 1 I I 0 1 1 forward I I I I #
face $-1 $81 $82 $28 $-1 $83 forward single #
loop $-1 $84 $85 $36 #
cone-surface $-1 -32.366925951194659 3.6807136752882599 4.4338924524194061 0.62932039886446345 0 -0.77714595512881146 0.77714595512881146 0 0.62932039886446345 1 I I 0 1 1 forward I I I I #
face $-1 $86 $87 $29 $-1 $88 reversed single #
loop $-1 $-1 $89 $37 #
plane-surface $-1 56.244113722810674 13.800723779335337 113.11811092468241 0 -1 0 -0.79863551827123203 0 -0.60181501223851219 forward_v I I I I #
face $-1 $90 $91 $30 $-1 $92 forward single #
loop $-1 $93 $94 $38 #
cone-surface $-1 35.482033621421401 7.1271777285676947 5.2599602154488494 -0.79863551827123203 0 -0.60181501223851219 0.60181501223851219 0 -0.79863551827123203 1 I I 0 1 1 forward I I I I #
face $-1 $95 $96 $31 $-1 $97 forward single #
loop $-1 $98 $99 $39 #
cone-surface $-1 35.482033621421401 11.131305359028282 5.2599602154488494 -0.79863551827123203 0 -0.60181501223851219 0.60181501223851219 0 -0.79863551827123203 1 I I 0 1 1 forward I I I I #
face $-1 $100 $101 $24 $-1 $102 reversed single #
loop $-1 $-1 $103 $40 #
plane-surface $-1 0 0 -11.374450881839035 0 0 1 1 0 0 forward_v I I I I #
coedge $-1 $104 $105 $106 $107 forward $41 $-1 #
face $-1 $108 $109 $25 $-1 $110 reversed single #
loop $-1 $-1 $111 $43 #
plane-surface $-1 0 0 11.374450881839035 0 0 1 1 0 0 forward_v I I I I #
coedge $-1 $112 $113 $114 $115 forward $44 $-1 #
face $-1 $116 $117 $26 $-1 $118 reversed single #
loop $-1 $-1 $119 $46 #
plane-surface $-1 -40.357676931058691 1.2911268546634069 0.22260648573509201 -0.62932039886446345 0 0.77714595512881146 0.77714595512881146 0 0.62932039886446345 forward_v I I I I #
coedge $-1 $120 $121 $122 $123 reversed $47 $-1 #
face $-1 $-1 $124 $27 $-1 $125 forward single #
loop $-1 $126 $127 $49 #
cone-surface $-1 -30.947205097761021 -1.098459965961446 2.6806832434873442 0.62932039886446345 0 -0.77714595512881146 0.38857297756440573 0 0.31466019943223172 1 I I -0.70710678118654746 0.70710678118654746 0.5 forward I I I I #
loop $-1 $-1 $128 $35 #
coedge $-1 $80 $80 $129 $130 reversed $50 $-1 #
face $-1 $-1 $131 $28 $-1 $132 forward single #
loop $-1 $133 $134 $52 #
cone-surface $-1 -30.947205097761021 3.6807136752882599 2.6806832434873442 0.62932039886446345 0 -0.77714595512881146 0.38857297756440573 0 0.31466019943223172 1 I I -0.70710678118654746 0.70710678118654746 0.5 forward I I I I #
loop $-1 $-1 $135 $36 #
coedge $-1 $85 $85 $136 $137 reversed $53 $-1 #
face $-1 $138 $139 $29 $-1 $140 reversed single #
loop $-1 $-1 $141 $55 #
plane-surface $-1 -8.2180347413073136 9.1292415437979884 64.542399252316415 0.79863551827123203 0 0.60181501223851219 0.60181501223851219 0 -0.79863551827123203 forward_v I I I I #
coedge $-1 $142 $143 $144 $145 reversed $56 $-1 #
face $-1 $-1 $146 $30 $-1 $147 forward single #
loop $-1 $148 $149 $58 #
cone-surface $-1 34.462467543276837 7.1271777285676947 4.4916620897597319 -0.79863551827123203 0 -0.60181501223851219 0.3009075061192561 0 -0.39931775913561601 1 I I -0.70710678118654746 0.70710678118654746 0.5 forward I I I I #
loop $-1 $-1 $150 $38 #
coedge $-1 $94 $94 $151 $152 reversed $59 $-1 #
face $-1 $-1 $153 $31 $-1 $154 forward single #
loop $-1 $155 $156 $61 #
cone-surface $-1 34.462467543276837 11.131305359028282 4.4916620897597319 -0.79863551827123203 0 -0.60181501223851219 0.3009075061192561 0 -0.39931775913561601 1 I I -0.70710678118654746 0.70710678118654746 0.5 forward I I I I #
loop $-1 $-1 $157 $39 #
coedge $-1 $99 $99 $158 $159 reversed $62 $-1 #
face $-1 $160 $161 $24 $-1 $162 reversed single #
loop $-1 $-1 $163 $64 #
plane-surface $-1 0 -23.47758312095872 0 0 1 0 0 0 1 forward_v I I I I #
coedge $-1 $164 $165 $166 $167 forward $65 $-1 #
coedge $-1 $168 $67 $169 $170 forward $41 $-1 #
coedge $-1 $67 $168 $171 $172 forward $41 $-1 #
coedge $-1 $173 $174 $67 $107 reversed $175 $-1 #
edge $-1 $176 -23.47758312095872 $177 23.47758312095872 $106 $178 forward 7 unknown #
face $-1 $179 $180 $25 $-1 $181 reversed single #
loop $-1 $-1 $182 $68 #
plane-surface $-1 -40.357676931058684 0 0 1 0 0 0 0 -1 forward_v I I I I #
coedge $-1 $183 $184 $185 $186 forward $69 $-1 #
coedge $-1 $185 $71 $182 $187 reversed $44 $-1 #
coedge $-1 $71 $185 $188 $189 reversed $44 $-1 #
coedge $-1 $190 $191 $71 $115 reversed $180 $-1 #
edge $-1 $192 -40.357676931058684 $193 40.357676931058684 $114 $194 forward 7 unknown #
face $-1 $195 $196 $26 $-1 $197 forward single #
loop $-1 $-1 $198 $72 #
plane-surface $-1 -91.153495618052702 6.8668294361213995 62.950217256470296 0 -1 0 0.62932039886446345 0 -0.77714595512881146 forward_v I I I I #
coedge $-1 $199 $200 $201 $202 reversed $73 $-1 #
coedge $-1 $121 $75 $203 $204 reversed $47 $-1 #
coedge $-1 $75 $120 $199 $205 reversed $47 $-1 #
coedge $-1 $201 $206 $75 $123 forward $196 $-1 #
edge $-1 $207 5.2190708779676669 $208 18.990451529692898 $122 $209 forward 7 unknown #
loop $-1 $-1 $129 $76 #
plane-surface $-1 -40.357676931058691 1.2911268546634069 0.22260648573509201 -0.62932039886446345 0 0.77714595512881146 0.77714595512881146 0 0.62932039886446345 forward_v I I I I #
loop $-1 $-1 $210 $49 #
coedge $-1 $127 $127 $128 $211 reversed $77 $-1 #
coedge $-1 $128 $128 $127 $211 forward $79 $-1 #
coedge $-1 $129 $129 $80 $130 forward $124 $-1 #
edge $-1 $212 0 $212 6.2831853071796004 $129 $213 forward 7 unknown #
loop $-1 $-1 $136 $81 #
plane-surface $-1 -40.357676931058691 1.2911268546634069 0.22260648573509201 -0.62932039886446345 0 0.77714595512881146 0.77714595512881146 0 0.62932039886446345 forward_v I I I I #
loop $-1 $-1 $214 $52 #
coedge $-1 $134 $134 $135 $215 reversed $82 $-1 #
coedge $-1 $135 $135 $134 $215 forward $84 $-1 #
coedge $-1 $136 $136 $85 $137 forward $131 $-1 #
edge $-1 $216 0 $216 6.2831853071796004 $136 $217 forward 7 unknown #
face $-1 $218 $219 $29 $-1 $220 reversed single #
loop $-1 $-1 $221 $86 #
plane-surface $-1 56.244113722810674 4.4577593082606395 113.11811092468241 0 1 0 0.79863551827123203 0 0.60181501223851219 forward_v I I I I #
coedge $-1 $222 $223 $224 $225 reversed $87 $-1 #
coedge $-1 $143 $89 $226 $227 reversed $56 $-1 #
coedge $-1 $89 $142 $222 $228 reversed $56 $-1 #
coedge $-1 $224 $229 $89 $145 forward $230 $-1 #
edge $-1 $231 -12.235620069653347 $232 -3.7248300883966827 $144 $233 forward 7 unknown #
loop $-1 $-1 $151 $90 #
plane-surface $-1 -8.2180347413073136 9.1292415437979884 64.542399252316415 0.79863551827123203 0 0.60181501223851219 0.60181501223851219 0 -0.79863551827123203 forward_v I I I I #
loop $-1 $-1 $234 $58 #
coedge $-1 $149 $149 $150 $235 reversed $91 $-1 #
coedge $-1 $150 $150 $149 $235 forward $93 $-1 #
coedge $-1 $151 $151 $94 $152 forward $146 $-1 #
edge $-1 $236 0 $236 6.2831853071796004 $151 $237 forward 7 unknown #
loop $-1 $-1 $158 $95 #
plane-surface $-1 -8.2180347413073136 9.1292415437979884 64.542399252316415 0.79863551827123203 0 0.60181501223851219 0.60181501223851219 0 -0.79863551827123203 forward_v I I I I #
loop $-1 $-1 $238 $61 #
coedge $-1 $156 $156 $157 $239 reversed $96 $-1 #
coedge $-1 $157 $157 $156 $239 forward $98 $-1 #
coedge $-1 $158 $158 $99 $159 forward $153 $-1 #
edge $-1 $240 0 $240 6.2831853071796004 $158 $241 forward 7 unknown #
face $-1 $242 $243 $24 $-1 $244 reversed single #
loop $-1 $-1 $245 $100 #
plane-surface $-1 -40.357676931058684 0 0 1 0 0 0 0 -1 forward_v I I I I #
coedge $-1 $246 $171 $247 $248 forward $101 $-1 #
coedge $-1 $249 $103 $246 $250 forward $65 $-1 #
coedge $-1 $103 $249 $251 $252 forward $65 $-1 #
coedge $-1 $174 $173 $103 $167 reversed $175 $-1 #
edge $-1 $253 -23.47758312095872 $254 23.47758312095872 $166 $255 forward 7 unknown #
coedge $-1 $105 $104 $256 $257 forward $41 $-1 #
coedge $-1 $258 $259 $104 $170 reversed $243 $-1 #
edge $-1 $177 -40.357676931058684 $260 40.357676931058684 $169 $261 forward 7 unknown #
coedge $-1 $163 $262 $105 $172 reversed $101 $-1 #
edge $-1 $263 -40.357676931058684 $176 40.357676931058684 $171 $264 forward 7 unknown #
coedge $-1 $166 $106 $262 $265 forward $175 $-1 #
coedge $-1 $106 $166 $258 $266 reversed $175 $-1 #
loop $-1 $-1 $173 $242 #
vertex $-1 $107 $267 #
vertex $-1 $107 $268 #
straight-curve $-1 40.357676931058684 0 11.374450881839035 0 1 0 I I #
face $-1 $269 $270 $25 $-1 $271 reversed single #
loop $-1 $-1 $190 $108 #
plane-surface $-1 0 -28.019049679370163 4.8048524224391365 0 0 1 1 0 0 forward_v I I I I #
coedge $-1 $272 $273 $112 $187 forward $109 $-1 #
coedge $-1 $274 $111 $273 $275 forward $69 $-1 #
coedge $-1 $111 $274 $276 $277 forward $69 $-1 #
coedge $-1 $113 $112 $111 $186 reversed $44 $-1 #
edge $-1 $278 -40.357676931058684 $279 40.357676931058684 $111 $280 forward 7 unknown #
edge $-1 $279 -11.374450881839035 $193 -4.8048524224391365 $182 $281 forward 7 unknown #
coedge $-1 $276 $282 $113 $189 forward $283 $-1 #
edge $-1 $192 4.8048524224391365 $278 11.374450881839035 $188 $284 forward 7 unknown #
coedge $-1 $285 $114 $282 $286 forward $180 $-1 #
coedge $-1 $114 $285 $272 $287 forward $180 $-1 #
vertex $-1 $189 $288 #
vertex $-1 $187 $289 #
straight-curve $-1 0 -23.47758312095872 4.8048524224391365 -1 0 0 I I #
face $-1 $-1 $290 $26 $-1 $291 reversed single #
loop $-1 $-1 $122 $116 #
plane-surface $-1 0 0 11.374450881839035 0 0 1 1 0 0 forward_v I I I I #
coedge $-1 $292 $293 $294 $295 reversed $117 $-1 #
coedge $-1 $296 $119 $121 $205 forward $73 $-1 #
coedge $-1 $119 $296 $292 $297 forward $73 $-1 #
coedge $-1 $294 $122 $119 $202 forward $196 $-1 #
edge $-1 $208 -4.9301391541262891 $298 6.221266008789696 $201 $299 forward 7 unknown #
coedge $-1 $300 $301 $120 $204 forward $290 $-1 #
edge $-1 $302 -31.252502142500049 $207 -20.100657746396113 $203 $303 forward 7 unknown #
edge $-1 $208 -17.720455933458009 $302 -9.137654163269272e-015 $121 $304 forward 7 unknown #
coedge $-1 $122 $294 $300 $305 forward $196 $-1 #
vertex $-1 $204 $306 #
vertex $-1 $123 $307 #
straight-curve $-1 -45.576747809026351 -4.2845757267945856 11.374450881839035 1 0 0 I I #
coedge $-1 $210 $210 $-1 $308 reversed $126 $-1 #
edge $-1 $309 0 $309 6.2831853071796004 $127 $310 forward 7 unknown #
vertex $-1 $130 $311 #
ellipse-curve $-1 -33.471986605196065 -1.098459965961446 5.7985286837870662 -0.62932039886446345 0 0.77714595512881146 0.77714595512881146 0 0.62932039886446345 1 I I #
coedge $-1 $214 $214 $-1 $312 reversed $133 $-1 #
edge $-1 $313 0 $313 6.2831853071796004 $134 $314 forward 7 unknown #
vertex $-1 $137 $315 #
ellipse-curve $-1 -33.471986605196065 3.6807136752882599 5.7985286837870662 -0.62932039886446345 0 0.77714595512881146 0.77714595512881146 0 0.62932039886446345 1 I I #
face $-1 $-1 $230 $29 $-1 $316 forward single #
loop $-1 $-1 $317 $138 #
plane-surface $-1 40.357676931058684 0 0 -1 0 0 0 0 1 forward_v I I I I #
coedge $-1 $318 $319 $320 $321 reversed $139 $-1 #
coedge $-1 $322 $141 $143 $228 forward $87 $-1 #
coedge $-1 $141 $322 $318 $323 forward $87 $-1 #
coedge $-1 $320 $144 $141 $225 forward $230 $-1 #
edge $-1 $232 -9.236103007436343 $324 0.10686146363835469 $224 $325 forward 7 unknown #
coedge $-1 $326 $327 $142 $227 forward $219 $-1 #
edge $-1 $328 -56.478804674142779 $231 -45.184604580502167 $226 $329 forward 7 unknown #
edge $-1 $232 66.573483340144307 $328 80.715353862117354 $143 $330 forward 7 unknown #
coedge $-1 $144 $320 $326 $331 forward $230 $-1 #
loop $-1 $-1 $320 $218 #
vertex $-1 $227 $332 #
vertex $-1 $145 $333 #
straight-curve $-1 28.122056861405337 13.800723779335337 11.374450881839039 -1 0 0 I I #
coedge $-1 $234 $234 $-1 $334 reversed $148 $-1 #
edge $-1 $335 0 $335 6.2831853071796004 $149 $336 forward 7 unknown #
vertex $-1 $152 $337 #
ellipse-curve $-1 36.102281940430366 7.1271777285676947 5.7273508350187194 0.79863551827123203 0 0.60181501223851219 0.60181501223851219 0 -0.79863551827123203 1 I I #
coedge $-1 $238 $238 $-1 $338 reversed $155 $-1 #
edge $-1 $339 0 $339 6.2831853071796004 $156 $340 forward 7 unknown #
vertex $-1 $159 $341 #
ellipse-curve $-1 36.102281940430366 11.131305359028282 5.7273508350187194 0.79863551827123203 0 0.60181501223851219 0.60181501223851219 0 -0.79863551827123203 1 I I #
face $-1 $-1 $175 $24 $-1 $342 reversed single #
loop $-1 $-1 $258 $160 #
plane-surface $-1 0 23.47758312095872 0 0 -1 0 0 0 -1 forward_v I I I I #
coedge $-1 $343 $256 $259 $344 forward $161 $-1 #
coedge $-1 $262 $163 $164 $250 reversed $101 $-1 #
coedge $-1 $256 $343 $163 $248 reversed $161 $-1 #
edge $-1 $263 -11.374450881839035 $345 11.374450881839035 $247 $346 forward 7 unknown #
coedge $-1 $165 $164 $343 $347 forward $65 $-1 #
edge $-1 $254 -40.357676931058684 $345 40.357676931058684 $246 $348 forward 7 unknown #
coedge $-1 $259 $258 $165 $252 reversed $243 $-1 #
edge $-1 $349 -40.357676931058684 $253 40.357676931058684 $251 $350 forward 7 unknown #
vertex $-1 $167 $351 #
vertex $-1 $265 $352 #
straight-curve $-1 40.357676931058684 0 -11.374450881839035 0 -1 0 I I #
coedge $-1 $245 $247 $168 $257 reversed $161 $-1 #
edge $-1 $260 -23.47758312095872 $263 23.47758312095872 $256 $353 forward 7 unknown #
coedge $-1 $251 $169 $174 $266 forward $243 $-1 #
coedge $-1 $169 $251 $245 $344 reversed $243 $-1 #
vertex $-1 $170 $354 #
straight-curve $-1 0 23.47758312095872 11.374450881839035 -1 0 0 I I #
coedge $-1 $171 $246 $173 $265 reversed $101 $-1 #
vertex $-1 $257 $355 #
straight-curve $-1 0 -23.47758312095872 11.374450881839035 1 0 0 I I #
edge $-1 $176 -11.374450881839035 $254 11.374450881839035 $173 $356 forward 7 unknown #
edge $-1 $177 -11.374450881839035 $253 11.374450881839035 $174 $357 forward 7 unknown #
point $-1 40.357676931058684 -23.47758312095872 11.374450881839035 #
point $-1 40.357676931058684 23.47758312095872 11.374450881839035 #
face $-1 $-1 $283 $25 $-1 $358 reversed single #
loop $-1 $-1 $359 $179 #
plane-surface $-1 0 -32.560516237781606 8.0896516521390858 0 1 0 0 0 1 forward_v I I I I #
coedge $-1 $360 $182 $191 $287 reversed $109 $-1 #
coedge $-1 $182 $360 $183 $275 reversed $109 $-1 #
coedge $-1 $184 $183 $361 $362 forward $69 $-1 #
edge $-1 $279 23.47758312095872 $363 32.560516237781606 $273 $364 forward 7 unknown #
coedge $-1 $365 $188 $184 $277 reversed $283 $-1 #
edge $-1 $366 -32.560516237781606 $278 -23.47758312095872 $276 $367 forward 7 unknown #
vertex $-1 $189 $368 #
vertex $-1 $275 $369 #
straight-curve $-1 0 -23.47758312095872 11.374450881839035 -1 0 0 I I #
straight-curve $-1 -40.357676931058684 -23.47758312095872 0 0 0 -1 I I #
coedge $-1 $188 $365 $190 $286 reversed $283 $-1 #
loop $-1 $-1 $188 $269 #
straight-curve $-1 40.357676931058684 -23.47758312095872 0 0 0 1 I I #
coedge $-1 $191 $190 $370 $371 forward $180 $-1 #
edge $-1 $192 -4.5414665584114431 $372 4.5414665584114431 $282 $373 forward 7 unknown #
edge $-1 $374 -4.5414665584114431 $193 4.5414665584114431 $272 $375 forward 7 unknown #
point $-1 40.357676931058684 -23.47758312095872 4.8048524224391365 #
point $-1 -40.357676931058684 -23.47758312095872 4.8048524224391365 #
loop $-1 $-1 $203 $195 #
plane-surface $-1 -40.357676931058684 0 0 1 0 0 0 0 -1 forward_v I I I I #
coedge $-1 $293 $198 $200 $297 reversed $117 $-1 #
coedge $-1 $198 $292 $376 $377 reversed $117 $-1 #
coedge $-1 $206 $201 $198 $295 forward $196 $-1 #
edge $-1 $298 -18.990451529692898 $378 -5.2190708779676669 $294 $379 forward 7 unknown #
coedge $-1 $200 $199 $301 $380 reversed $73 $-1 #
edge $-1 $381 9.137654163269272e-015 $298 17.720455933458009 $292 $382 forward 7 unknown #
vertex $-1 $202 $383 #
straight-curve $-1 -26.58629627933345 0.64556342733170347 11.374450881839035 0 1 0 I I #
coedge $-1 $376 $203 $206 $305 reversed $290 $-1 #
coedge $-1 $203 $376 $296 $380 forward $290 $-1 #
vertex $-1 $204 $384 #
straight-curve $-1 -40.357676931058684 -4.2845757267945856 31.475108628235148 0 0 1 I I #
straight-curve $-1 -40.357676931058691 -4.2845757267945856 0.22260648573509201 -0.77714595512881146 0 -0.62932039886446345 I I #
edge $-1 $378 -6.8668294361213995 $207 4.2845757267945856 $300 $385 forward 7 unknown #
point $-1 -40.357676931058684 -4.2845757267945856 11.374450881839035 #
point $-1 -26.586296279333453 -4.2845757267945856 11.374450881839033 #
edge $-1 $386 1 $386 0 $210 $-1 forward 7 unknown #
vertex $-1 $211 $387 #
ellipse-curve $-1 -31.261865297193253 -1.098459965961446 3.06925622105175 -0.62932039886446345 0 0.77714595512881146 0.77714595512881146 0 0.62932039886446345 1 I I #
point $-1 -32.694840650067249 -1.098459965961446 6.4278490826515258 #
edge $-1 $388 1 $388 0 $214 $-1 forward 7 unknown #
vertex $-1 $215 $389 #
ellipse-curve $-1 -31.261865297193253 3.6807136752882599 3.06925622105175 -0.62932039886446345 0 0.77714595512881146 0.77714595512881146 0 0.62932039886446345 1 I I #
point $-1 -32.694840650067249 3.6807136752882599 6.4278490826515258 #
plane-surface $-1 0 0 11.374450881839035 0 0 1 1 0 0 forward_v I I I I #
coedge $-1 $327 $326 $319 $390 forward $219 $-1 #
coedge $-1 $319 $221 $223 $323 reversed $139 $-1 #
coedge $-1 $221 $318 $317 $390 reversed $139 $-1 #
coedge $-1 $229 $224 $221 $321 forward $230 $-1 #
edge $-1 $324 3.7248300883966827 $391 12.235620069653347 $320 $392 forward 7 unknown #
coedge $-1 $223 $222 $327 $393 reversed $87 $-1 #
edge $-1 $394 -80.715353862117354 $324 -66.573483340144307 $318 $395 forward 7 unknown #
vertex $-1 $225 $396 #
straight-curve $-1 31.84688694980202 4.5646207718989942 11.374450881839032 0 -1 0 I I #
coedge $-1 $317 $226 $229 $331 reversed $219 $-1 #
coedge $-1 $226 $317 $322 $393 forward $219 $-1 #
vertex $-1 $227 $397 #
straight-curve $-1 40.357676931058684 13.800723779335337 56.559055462341206 0 0 1 I I #
straight-curve $-1 -8.2180347413073136 13.800723779335337 64.542399252316415 0.60181501223851219 0 -0.79863551827123203 I I #
edge $-1 $391 4.4577593082606395 $231 13.800723779335337 $326 $398 forward 7 unknown #
point $-1 40.357676931058684 13.800723779335337 11.374450881839035 #
point $-1 31.84688694980202 13.800723779335337 11.374450881839032 #
edge $-1 $399 1 $399 0 $234 $-1 forward 7 unknown #
vertex $-1 $235 $400 #
ellipse-curve $-1 34.86178530241245 7.1271777285676947 4.7925695958789882 0.79863551827123203 0 0.60181501223851219 0.60181501223851219 0 -0.79863551827123203 1 I I #
point $-1 36.70409695266887 7.1271777285676947 4.9287153167474793 #
edge $-1 $401 1 $401 0 $238 $-1 forward 7 unknown #
vertex $-1 $239 $402 #
ellipse-curve $-1 34.86178530241245 11.131305359028282 4.7925695958789882 0.79863551827123203 0 0.60181501223851219 0.60181501223851219 0 -0.79863551827123203 1 I I #
point $-1 36.70409695266887 11.131305359028282 4.9287153167474793 #
plane-surface $-1 40.357676931058684 0 0 -1 0 0 0 0 1 forward_v I I I I #
coedge $-1 $247 $245 $249 $347 reversed $161 $-1 #
edge $-1 $260 -11.374450881839035 $349 11.374450881839035 $259 $403 forward 7 unknown #
vertex $-1 $347 $404 #
straight-curve $-1 -40.357676931058684 -23.47758312095872 0 0 0 -1 I I #
edge $-1 $345 -23.47758312095872 $349 23.47758312095872 $343 $405 forward 7 unknown #
straight-curve $-1 0 -23.47758312095872 -11.374450881839035 -1 0 0 I I #
vertex $-1 $252 $406 #
straight-curve $-1 0 23.47758312095872 -11.374450881839035 1 0 0 I I #
point $-1 40.357676931058684 23.47758312095872 -11.374450881839035 #
point $-1 40.357676931058684 -23.47758312095872 -11.374450881839035 #
straight-curve $-1 -40.357676931058684 0 11.374450881839035 0 -1 0 I I #
point $-1 -40.357676931058684 23.47758312095872 11.374450881839035 #
point $-1 -40.357676931058684 -23.47758312095872 11.374450881839035 #
straight-curve $-1 40.357676931058684 -23.47758312095872 0 0 0 -1 I I #
straight-curve $-1 40.357676931058684 23.47758312095872 0 0 0 -1 I I #
plane-surface $-1 40.357676931058684 0 0 -1 0 0 0 0 1 forward_v I I I I #
coedge $-1 $370 $361 $360 $407 forward $270 $-1 #
coedge $-1 $273 $272 $359 $407 reversed $109 $-1 #
coedge $-1 $359 $408 $274 $362 reversed $270 $-1 #
edge $-1 $363 -40.357676931058684 $366 40.357676931058684 $361 $409 forward 7 unknown #
vertex $-1 $275 $410 #
straight-curve $-1 -40.357676931058684 0 11.374450881839035 0 -1 0 I I #
coedge $-1 $282 $276 $408 $411 forward $283 $-1 #
vertex $-1 $277 $412 #
straight-curve $-1 40.357676931058684 0 11.374450881839035 0 1 0 I I #
point $-1 40.357676931058684 -23.47758312095872 11.374450881839035 #
point $-1 -40.357676931058684 -23.47758312095872 11.374450881839035 #
coedge $-1 $408 $359 $285 $371 reversed $270 $-1 #
edge $-1 $372 -40.357676931058684 $374 40.357676931058684 $370 $413 forward 7 unknown #
vertex $-1 $411 $414 #
straight-curve $-1 40.357676931058684 -28.019049679370163 4.8048524224391365 0 -1 0 I I #
vertex $-1 $287 $415 #
straight-curve $-1 -40.357676931058684 -28.019049679370163 4.8048524224391365 0 1 0 I I #
coedge $-1 $301 $300 $293 $377 forward $290 $-1 #
edge $-1 $378 20.100657746396113 $381 31.252502142500049 $376 $416 forward 7 unknown #
vertex $-1 $305 $417 #
straight-curve $-1 -45.576747809026351 6.8668294361213995 11.374450881839035 -1 0 0 I I #
edge $-1 $381 -6.221266008789696 $302 4.9301391541262891 $301 $418 forward 7 unknown #
vertex $-1 $380 $419 #
straight-curve $-1 -40.357676931058691 6.8668294361213995 0.22260648573509201 0.77714595512881146 0 0.62932039886446345 I I #
point $-1 -26.586296279333453 6.8668294361213995 11.374450881839033 #
point $-1 -40.357676931058684 -4.2845757267945856 0.22260648573509775 #
straight-curve $-1 -40.357676931058684 0 11.374450881839035 0 -1 0 I I #
vertex $-1 $308 $420 #
point $-1 -30.484719342064441 -1.098459965961446 3.6985766199162136 #
vertex $-1 $312 $421 #
point $-1 -30.484719342064441 3.6807136752882599 3.6985766199162136 #
edge $-1 $391 45.184604580502167 $394 56.478804674142779 $317 $422 forward 7 unknown #
vertex $-1 $331 $423 #
straight-curve $-1 28.122056861405337 4.4577593082606395 11.374450881839039 1 0 0 I I #
edge $-1 $394 -0.10686146363835469 $328 9.236103007436343 $327 $424 forward 7 unknown #
vertex $-1 $393 $425 #
straight-curve $-1 -8.2180347413073136 4.4577593082606395 64.542399252316415 -0.60181501223851219 0 0.79863551827123203 I I #
point $-1 31.84688694980202 4.4577593082606395 11.374450881839032 #
point $-1 40.357676931058684 13.800723779335337 0.080250788198426903 #
straight-curve $-1 40.357676931058684 0 11.374450881839035 0 1 0 I I #
vertex $-1 $334 $426 #
point $-1 35.463600314650968 7.1271777285676947 3.9939340776077561 #
vertex $-1 $338 $427 #
point $-1 35.463600314650968 11.131305359028282 3.9939340776077561 #
straight-curve $-1 -40.357676931058684 23.47758312095872 0 0 0 -1 I I #
point $-1 -40.357676931058684 -23.47758312095872 -11.374450881839035 #
straight-curve $-1 -40.357676931058684 0 -11.374450881839035 0 1 0 I I #
point $-1 -40.357676931058684 23.47758312095872 -11.374450881839035 #
edge $-1 $363 -3.2847992296999493 $374 3.2847992296999493 $360 $428 forward 7 unknown #
coedge $-1 $361 $370 $365 $411 reversed $270 $-1 #
straight-curve $-1 0 -32.560516237781606 11.374450881839035 1 0 0 I I #
point $-1 -40.357676931058684 -32.560516237781606 11.374450881839035 #
edge $-1 $366 -3.2847992296999493 $372 3.2847992296999493 $365 $429 forward 7 unknown #
point $-1 40.357676931058684 -32.560516237781606 11.374450881839035 #
straight-curve $-1 0 -32.560516237781606 4.8048524224391365 -1 0 0 I I #
point $-1 40.357676931058684 -32.560516237781606 4.8048524224391365 #
point $-1 -40.357676931058684 -32.560516237781606 4.8048524224391365 #
straight-curve $-1 -40.357676931058684 6.8668294361213995 31.475108628235148 0 0 -1 I I #
point $-1 -40.357676931058684 6.8668294361213995 11.374450881839035 #
straight-curve $-1 -40.357676931058684 0.64556342733170347 0.22260648573510219 0 -1 0 I I #
point $-1 -40.357676931058684 6.8668294361213995 0.22260648573509775 #
point $-1 -30.632544898328788 -1.098459965961446 2.2921102659229384 #
point $-1 -30.632544898328788 3.6807136752882599 2.2921102659229384 #
straight-curve $-1 40.357676931058684 4.4577593082606395 56.559055462341206 0 0 -1 I I #
point $-1 40.357676931058684 4.4577593082606395 11.374450881839035 #
straight-curve $-1 40.357676931058684 4.5646207718989942 0.080250788198434009 0 1 0 I I #
point $-1 40.357676931058684 4.4577593082606395 0.080250788198426903 #
point $-1 34.063149784141224 7.1271777285676947 4.1907545836404756 #
point $-1 34.063149784141224 11.131305359028282 4.1907545836404756 #
straight-curve $-1 -40.357676931058684 -32.560516237781606 8.0896516521390858 0 0 -1 I I #
straight-curve $-1 40.357676931058684 -32.560516237781606 8.0896516521390858 0 0 -1 I I #
End-of-ACIS-data 