500 0 4 0           
7 Unknown 11 ACIS 5.0 NT 24 Fri Mar 26 18:08:46 1999 
-1 9.9999999999999995e-007 1e-010 
body $-1 $4 $-1 $5 #
body $-1 $6 $-1 $7 #
body $-1 $8 $-1 $9 #
body $-1 $10 $-1 $11 #
lump $-1 $-1 $12 $0 #
transform $-1 1 0 0 0 1 0 0 0 1 59.946897793511766 30.698841669213763 9.0403577624717339 1 rotate no_reflect no_shear #
lump $-1 $-1 $13 $1 #
transform $-1 1 0 0 0 1 0 0 0 1 59.946897793511766 30.698841669213763 9.0403577624717339 1 rotate no_reflect no_shear #
lump $-1 $-1 $14 $2 #
transform $-1 1 0 0 0 1 0 0 0 1 59.946897793511766 30.698841669213763 9.0403577624717339 1 rotate no_reflect no_shear #
lump $-1 $-1 $15 $3 #
transform $-1 1 0 0 0 1 0 0 0 1 59.946897793511766 30.698841669213763 9.0403577624717339 1 rotate no_reflect no_shear #
shell $-1 $-1 $-1 $16 $-1 $4 #
shell $-1 $-1 $-1 $17 $-1 $6 #
shell $-1 $-1 $-1 $18 $-1 $8 #
shell $-1 $-1 $-1 $19 $-1 $10 #
face $-1 $20 $21 $12 $-1 $22 forward single #
face $-1 $23 $24 $13 $-1 $25 forward single #
face $-1 $26 $27 $14 $-1 $28 reversed single #
face $-1 $29 $30 $15 $-1 $31 reversed single #
face $-1 $32 $33 $12 $-1 $34 reversed single #
loop $-1 $-1 $35 $16 #
plane-surface $-1 0 0 9.0403577624717339 0 0 1 1 0 0 forward_v I I I I #
face $-1 $36 $37 $13 $-1 $38 forward single #
loop $-1 $-1 $39 $17 #
plane-surface $-1 -4.5098700259863875 -97.742602202996039 102.8152806738935 -1 0 0 0 -0.55919291073839883 0.82903756765294845 forward_v I I I I #
face $-1 $40 $41 $14 $-1 $42 reversed single #
loop $-1 $43 $44 $18 #
cone-surface $-1 -13.57081112789318 -26.217030444055702 5.7630639125615204 0 0.55919291073839883 -0.82903756765294845 0.5 0 0 1 I I 0 1 0.5 forward I I I I #
face $-1 $45 $46 $15 $-1 $47 reversed single #
loop $-1 $48 $49 $19 #
cone-surface $-1 -8.1342464667491043 -26.217030444055702 5.7630639125615204 0 0.55919291073839883 -0.82903756765294845 0.5 0 0 1 I I 0 1 0.5 forward I I I I #
face $-1 $50 $51 $12 $-1 $52 reversed single #
loop $-1 $-1 $53 $20 #
plane-surface $-1 0 0 -9.0403577624717339 0 0 1 1 0 0 forward_v I I I I #
coedge $-1 $54 $55 $56 $57 forward $21 $-1 #
face $-1 $58 $59 $13 $-1 $60 forward single #
loop $-1 $-1 $61 $23 #
plane-surface $-1 -10.852528797321142 -30.698841669213749 3.4188200037476975 0 -0.55919291073839883 0.82903756765294845 1 0 0 forward_v I I I I #
coedge $-1 $62 $63 $64 $65 reversed $24 $-1 #
face $-1 $66 $67 $14 $-1 $68 forward single #
loop $-1 $69 $70 $26 #
cone-surface $-1 -13.57081112789318 -25.762557144466278 5.0892795501000876 0 0.55919291073839883 -0.82903756765294845 0.25 0 0 1 I I -0.70710678118654746 0.70710678118654746 0.25 forward I I I I #
loop $-1 $-1 $71 $18 #
coedge $-1 $44 $44 $72 $73 reversed $27 $-1 #
face $-1 $74 $75 $15 $-1 $76 reversed single #
loop $-1 $77 $78 $29 #
cone-surface $-1 -8.1342464667491043 -25.762557144466278 5.0892795501000876 0 0.55919291073839883 -0.82903756765294845 0.25 0 0 1 I I -0.70710678118654746 0.70710678118654746 0.25 forward I I I I #
loop $-1 $-1 $79 $19 #
coedge $-1 $49 $49 $80 $81 reversed $30 $-1 #
face $-1 $82 $83 $12 $-1 $84 reversed single #
loop $-1 $-1 $85 $32 #
plane-surface $-1 0 -30.698841669213763 0 0 1 0 0 0 1 forward_v I I I I #
coedge $-1 $86 $87 $88 $89 forward $33 $-1 #
coedge $-1 $90 $35 $91 $92 forward $21 $-1 #
coedge $-1 $35 $90 $93 $94 forward $21 $-1 #
coedge $-1 $95 $96 $35 $57 reversed $97 $-1 #
edge $-1 $98 -30.698841669213763 $99 30.698841669213763 $56 $100 forward 7 unknown #
face $-1 $101 $102 $13 $-1 $103 forward single #
loop $-1 $-1 $104 $36 #
plane-surface $-1 -17.195187568655896 -97.742602202996039 102.8152806738935 1 0 0 0 0.55919291073839883 -0.82903756765294845 forward_v I I I I #
coedge $-1 $105 $106 $107 $108 reversed $37 $-1 #
coedge $-1 $63 $39 $106 $109 forward $24 $-1 #
coedge $-1 $39 $62 $110 $111 reversed $24 $-1 #
coedge $-1 $112 $107 $39 $65 forward $102 $-1 #
edge $-1 $113 -26.506731738790741 $114 -18.172459432284256 $64 $115 forward 7 unknown #
face $-1 $116 $117 $14 $-1 $118 forward single #
loop $-1 $-1 $119 $40 #
plane-surface $-1 -4.5098700259863875 -97.742602202996039 102.8152806738935 -1 0 0 0 -0.55919291073839883 0.82903756765294845 forward_v I I I I #
loop $-1 $-1 $120 $26 #
coedge $-1 $70 $70 $71 $121 forward $41 $-1 #
coedge $-1 $71 $71 $70 $121 reversed $43 $-1 #
coedge $-1 $72 $72 $44 $73 forward $117 $-1 #
edge $-1 $122 9.2403545600880889e-016 $122 6.2831853071796013 $72 $123 forward 7 unknown #
face $-1 $124 $125 $15 $-1 $126 reversed single #
loop $-1 $127 $128 $45 #
cone-surface $-1 -13.57081112789318 -26.217030444055702 5.7630639125615204 0 0.55919291073839883 -0.82903756765294845 0.5 0 0 1 I I 0 1 0.5 forward I I I I #
loop $-1 $-1 $129 $29 #
coedge $-1 $78 $78 $79 $130 forward $46 $-1 #
coedge $-1 $79 $79 $78 $130 reversed $48 $-1 #
coedge $-1 $80 $80 $49 $81 forward $131 $-1 #
edge $-1 $132 9.2403545600880889e-016 $132 6.2831853071796013 $80 $133 forward 7 unknown #
face $-1 $134 $135 $12 $-1 $136 reversed single #
loop $-1 $-1 $137 $50 #
plane-surface $-1 -59.946897793511766 0 0 1 0 0 0 0 -1 forward_v I I I I #
coedge $-1 $138 $93 $139 $140 forward $51 $-1 #
coedge $-1 $141 $53 $138 $142 forward $33 $-1 #
coedge $-1 $53 $141 $143 $144 forward $33 $-1 #
coedge $-1 $96 $95 $53 $89 reversed $97 $-1 #
edge $-1 $145 -30.698841669213763 $146 30.698841669213763 $88 $147 forward 7 unknown #
coedge $-1 $55 $54 $148 $149 forward $21 $-1 #
coedge $-1 $150 $151 $54 $92 reversed $135 $-1 #
edge $-1 $99 -59.946897793511766 $152 59.946897793511766 $91 $153 forward 7 unknown #
coedge $-1 $85 $154 $55 $94 reversed $51 $-1 #
edge $-1 $155 -59.946897793511766 $98 59.946897793511766 $93 $156 forward 7 unknown #
coedge $-1 $88 $56 $154 $157 forward $97 $-1 #
coedge $-1 $56 $88 $150 $158 reversed $97 $-1 #
loop $-1 $-1 $95 $134 #
vertex $-1 $57 $159 #
vertex $-1 $57 $160 #
straight-curve $-1 59.946897793511766 0 9.0403577624717339 0 1 0 I I #
face $-1 $161 $162 $13 $-1 $163 reversed single #
loop $-1 $-1 $164 $58 #
plane-surface $-1 0 0 9.0403577624717339 0 0 1 1 0 0 forward_v I I I I #
coedge $-1 $165 $166 $164 $167 reversed $59 $-1 #
coedge $-1 $168 $61 $166 $169 reversed $37 $-1 #
coedge $-1 $61 $168 $62 $109 reversed $37 $-1 #
coedge $-1 $64 $164 $61 $108 forward $102 $-1 #
edge $-1 $170 -11.768923169995325 $113 0.91639437267418344 $107 $171 forward 7 unknown #
edge $-1 $113 -10.052948903270162 $172 1.7244626260799089e-014 $62 $173 forward 7 unknown #
coedge $-1 $174 $175 $63 $111 forward $176 $-1 #
edge $-1 $114 42.367282574475013 $172 47.988820333199058 $110 $177 forward 7 unknown #
coedge $-1 $178 $64 $175 $179 forward $102 $-1 #
vertex $-1 $108 $180 #
vertex $-1 $179 $181 #
straight-curve $-1 -4.5098700259863875 -48.87130110149802 9.0403577624717357 0 -1 0 I I #
face $-1 $182 $183 $14 $-1 $184 forward single #
loop $-1 $185 $72 $66 #
plane-surface $-1 -10.852528797321142 -30.698841669213749 3.4188200037476975 0 -0.55919291073839883 0.82903756765294845 1 0 0 forward_v I I I I #
coedge $-1 $186 $187 $188 $189 reversed $67 $-1 #
coedge $-1 $120 $120 $-1 $190 forward $69 $-1 #
edge $-1 $191 0 $191 6.2831853071796004 $70 $192 forward 7 unknown #
vertex $-1 $73 $193 #
ellipse-curve $-1 -13.57081112789318 -26.531705515960521 6.2295888831097104 0 0.55919291073839883 -0.82903756765294845 0.5 0 0 1 I I #
face $-1 $194 $195 $15 $-1 $196 forward single #
loop $-1 $197 $198 $74 #
cone-surface $-1 -13.57081112789318 -25.762557144466278 5.0892795501000876 0 0.55919291073839883 -0.82903756765294845 0.25 0 0 1 I I -0.70710678118654746 0.70710678118654746 0.25 forward I I I I #
loop $-1 $-1 $199 $45 #
coedge $-1 $128 $128 $200 $201 reversed $75 $-1 #
coedge $-1 $129 $129 $-1 $202 forward $77 $-1 #
edge $-1 $203 0 $203 6.2831853071796004 $78 $204 forward 7 unknown #
loop $-1 $205 $80 $194 #
vertex $-1 $81 $206 #
ellipse-curve $-1 -8.1342464667491043 -26.531705515960521 6.2295888831097104 0 0.55919291073839883 -0.82903756765294845 0.5 0 0 1 I I #
face $-1 $-1 $97 $12 $-1 $207 reversed single #
loop $-1 $-1 $150 $82 #
plane-surface $-1 0 30.698841669213763 0 0 -1 0 0 0 -1 forward_v I I I I #
coedge $-1 $208 $148 $151 $209 forward $83 $-1 #
coedge $-1 $154 $85 $86 $142 reversed $51 $-1 #
coedge $-1 $148 $208 $85 $140 reversed $83 $-1 #
edge $-1 $155 -9.0403577624717339 $210 9.0403577624717339 $139 $211 forward 7 unknown #
coedge $-1 $87 $86 $208 $212 forward $33 $-1 #
edge $-1 $146 -59.946897793511766 $210 59.946897793511766 $138 $213 forward 7 unknown #
coedge $-1 $151 $150 $87 $144 reversed $135 $-1 #
edge $-1 $214 -59.946897793511766 $145 59.946897793511766 $143 $215 forward 7 unknown #
vertex $-1 $89 $216 #
vertex $-1 $157 $217 #
straight-curve $-1 59.946897793511766 0 -9.0403577624717339 0 -1 0 I I #
coedge $-1 $137 $139 $90 $149 reversed $83 $-1 #
edge $-1 $152 -30.698841669213763 $155 30.698841669213763 $148 $218 forward 7 unknown #
coedge $-1 $143 $91 $96 $158 forward $135 $-1 #
coedge $-1 $91 $143 $137 $209 reversed $135 $-1 #
vertex $-1 $92 $219 #
straight-curve $-1 0 30.698841669213763 9.0403577624717339 -1 0 0 I I #
coedge $-1 $93 $138 $95 $157 reversed $51 $-1 #
vertex $-1 $149 $220 #
straight-curve $-1 0 -30.698841669213763 9.0403577624717339 1 0 0 I I #
edge $-1 $98 -9.0403577624717339 $146 9.0403577624717339 $95 $221 forward 7 unknown #
edge $-1 $99 -9.0403577624717339 $145 9.0403577624717339 $96 $222 forward 7 unknown #
point $-1 59.946897793511766 -30.698841669213763 9.0403577624717339 #
point $-1 59.946897793511766 30.698841669213763 9.0403577624717339 #
face $-1 $223 $176 $13 $-1 $224 reversed single #
loop $-1 $-1 $225 $101 #
plane-surface $-1 0 0 -9.0403577624717339 0 0 1 1 0 0 forward_v I I I I #
coedge $-1 $107 $226 $104 $167 forward $102 $-1 #
coedge $-1 $166 $104 $227 $228 reversed $59 $-1 #
coedge $-1 $104 $165 $105 $169 forward $59 $-1 #
edge $-1 $229 18.172459432284256 $170 26.506731738790741 $164 $230 forward 7 unknown #
coedge $-1 $106 $105 $174 $231 reversed $37 $-1 #
edge $-1 $232 -1.7244626260799089e-014 $170 10.052948903270162 $166 $233 forward 7 unknown #
vertex $-1 $108 $234 #
straight-curve $-1 -5.426264398660571 -22.364569362707279 9.0403577624717339 1 0 0 I I #
vertex $-1 $231 $235 #
straight-curve $-1 -4.5098700259863875 -30.698841669213749 3.4188200037476975 0 -0.82903756765294845 -0.55919291073839883 I I #
coedge $-1 $227 $110 $168 $231 forward $176 $-1 #
coedge $-1 $110 $236 $112 $179 reversed $176 $-1 #
loop $-1 $-1 $227 $161 #
straight-curve $-1 -4.5098700259863875 -30.698841669213763 51.407640336946749 0 0 -1 I I #
coedge $-1 $237 $112 $238 $239 forward $102 $-1 #
edge $-1 $114 -4.5098700259863875 $240 59.946897793511766 $175 $241 forward 7 unknown #
point $-1 -4.5098700259863875 -22.364569362707279 9.0403577624717339 #
point $-1 -4.5098700259863875 -30.698841669213763 9.0403577624717339 #
face $-1 $242 $243 $14 $-1 $244 forward single #
loop $-1 $-1 $245 $116 #
plane-surface $-1 -17.195187568655896 -97.742602202996039 102.8152806738935 1 0 0 0 0.55919291073839883 -0.82903756765294845 forward_v I I I I #
loop $-1 $-1 $246 $66 #
coedge $-1 $187 $119 $247 $248 forward $67 $-1 #
coedge $-1 $119 $186 $249 $250 reversed $67 $-1 #
coedge $-1 $251 $252 $119 $189 forward $243 $-1 #
edge $-1 $253 -26.506731738790741 $254 -18.172459432284256 $188 $255 forward 7 unknown #
edge $-1 $256 1 $256 0 $120 $-1 forward 7 unknown #
vertex $-1 $121 $257 #
ellipse-curve $-1 -13.57081112789318 -25.902355372150879 5.2965389420133251 0 -0.55919291073839883 0.82903756765294845 0.5 0 0 1 I I #
point $-1 -13.07081112789318 -26.531705515960525 6.2295888831097148 #
face $-1 $258 $131 $15 $-1 $259 forward single #
loop $-1 $-1 $260 $124 #
plane-surface $-1 -4.5098700259863875 -97.742602202996039 102.8152806738935 -1 0 0 0 -0.55919291073839883 0.82903756765294845 forward_v I I I I #
loop $-1 $-1 $261 $74 #
coedge $-1 $198 $198 $199 $262 forward $125 $-1 #
coedge $-1 $199 $199 $198 $262 reversed $127 $-1 #
coedge $-1 $200 $200 $128 $201 forward $205 $-1 #
edge $-1 $263 9.2403545600880889e-016 $263 6.2831853071796013 $200 $264 forward 7 unknown #
edge $-1 $265 1 $265 0 $129 $-1 forward 7 unknown #
vertex $-1 $130 $266 #
ellipse-curve $-1 -8.1342464667491043 -25.902355372150879 5.2965389420133251 0 -0.55919291073839883 0.82903756765294845 0.5 0 0 1 I I #
loop $-1 $267 $200 $194 #
point $-1 -7.6342464667491043 -26.531705515960525 6.2295888831097148 #
plane-surface $-1 59.946897793511766 0 0 -1 0 0 0 0 1 forward_v I I I I #
coedge $-1 $139 $137 $141 $212 reversed $83 $-1 #
edge $-1 $152 -9.0403577624717339 $214 9.0403577624717339 $151 $268 forward 7 unknown #
vertex $-1 $212 $269 #
straight-curve $-1 -59.946897793511766 -30.698841669213763 0 0 0 -1 I I #
edge $-1 $210 -30.698841669213763 $214 30.698841669213763 $208 $270 forward 7 unknown #
straight-curve $-1 0 -30.698841669213763 -9.0403577624717339 -1 0 0 I I #
vertex $-1 $144 $271 #
straight-curve $-1 0 30.698841669213763 -9.0403577624717339 1 0 0 I I #
point $-1 59.946897793511766 30.698841669213763 -9.0403577624717339 #
point $-1 59.946897793511766 -30.698841669213763 -9.0403577624717339 #
straight-curve $-1 -59.946897793511766 0 9.0403577624717339 0 -1 0 I I #
point $-1 -59.946897793511766 30.698841669213763 9.0403577624717339 #
point $-1 -59.946897793511766 -30.698841669213763 9.0403577624717339 #
straight-curve $-1 59.946897793511766 -30.698841669213763 0 0 0 -1 I I #
straight-curve $-1 59.946897793511766 30.698841669213763 0 0 0 -1 I I #
face $-1 $272 $273 $13 $-1 $274 reversed single #
plane-surface $-1 0 -30.698841669213763 0 0 1 0 0 0 1 forward_v I I I I #
coedge $-1 $275 $276 $277 $278 forward $162 $-1 #
coedge $-1 $164 $279 $280 $281 forward $102 $-1 #
coedge $-1 $280 $174 $165 $228 forward $176 $-1 #
edge $-1 $232 -47.988820333199058 $229 -42.367282574475013 $227 $282 forward 7 unknown #
vertex $-1 $228 $283 #
straight-curve $-1 -17.195187568655896 -48.87130110149802 9.0403577624717357 0 1 0 I I #
edge $-1 $172 -0.91639437267418344 $232 11.768923169995325 $174 $284 forward 7 unknown #
vertex $-1 $231 $285 #
straight-curve $-1 -17.195187568655896 -30.698841669213749 3.4188200037476975 0 0.82903756765294845 0.55919291073839883 I I #
point $-1 -17.195187568655896 -22.364569362707279 9.0403577624717339 #
point $-1 -4.5098700259863875 -30.698841669213763 3.4188200037476877 #
coedge $-1 $175 $286 $287 $288 reversed $176 $-1 #
coedge $-1 $279 $178 $289 $290 forward $102 $-1 #
coedge $-1 $287 $291 $178 $239 reversed $292 $-1 #
edge $-1 $240 -30.698841669213763 $293 30.698841669213763 $238 $294 forward 7 unknown #
vertex $-1 $239 $295 #
straight-curve $-1 0 -30.698841669213763 9.0403577624717339 1 0 0 I I #
face $-1 $296 $297 $14 $-1 $298 reversed single #
loop $-1 $-1 $299 $182 #
plane-surface $-1 0 0 9.0403577624717339 0 0 1 1 0 0 forward_v I I I I #
coedge $-1 $300 $301 $299 $302 reversed $183 $-1 #
coedge $-1 $303 $247 $252 $304 reversed $185 $-1 #
coedge $-1 $246 $305 $186 $248 reversed $185 $-1 #
edge $-1 $253 -10.052948903270162 $306 1.7244626260799089e-014 $186 $307 forward 7 unknown #
coedge $-1 $308 $309 $187 $250 forward $310 $-1 #
edge $-1 $254 42.367282574475013 $306 47.988820333199058 $249 $311 forward 7 unknown #
coedge $-1 $312 $188 $309 $313 forward $243 $-1 #
coedge $-1 $188 $299 $246 $304 forward $243 $-1 #
vertex $-1 $304 $314 #
vertex $-1 $313 $315 #
straight-curve $-1 -4.5098700259863875 -48.87130110149802 9.0403577624717357 0 -1 0 I I #
vertex $-1 $190 $316 #
point $-1 -13.07081112789318 -25.902355372150879 5.2965389420133251 #
face $-1 $317 $318 $15 $-1 $319 forward single #
plane-surface $-1 -10.852528797321142 -30.698841669213749 3.4188200037476975 0 -0.55919291073839883 0.82903756765294845 1 0 0 forward_v I I I I #
coedge $-1 $320 $321 $322 $323 reversed $195 $-1 #
coedge $-1 $261 $261 $-1 $324 forward $197 $-1 #
edge $-1 $325 0 $325 6.2831853071796004 $198 $326 forward 7 unknown #
vertex $-1 $201 $327 #
ellipse-curve $-1 -13.57081112789318 -26.531705515960521 6.2295888831097104 0 0.55919291073839883 -0.82903756765294845 0.5 0 0 1 I I #
vertex $-1 $202 $328 #
point $-1 -7.6342464667491043 -25.902355372150879 5.2965389420133251 #
loop $-1 $-1 $329 $194 #
straight-curve $-1 -59.946897793511766 30.698841669213763 0 0 0 -1 I I #
point $-1 -59.946897793511766 -30.698841669213763 -9.0403577624717339 #
straight-curve $-1 -59.946897793511766 0 -9.0403577624717339 0 1 0 I I #
point $-1 -59.946897793511766 30.698841669213763 -9.0403577624717339 #
face $-1 $330 $331 $13 $-1 $332 reversed single #
loop $-1 $-1 $333 $223 #
plane-surface $-1 -59.946897793511766 0 0 1 0 0 0 0 -1 forward_v I I I I #
coedge $-1 $334 $225 $286 $335 forward $162 $-1 #
coedge $-1 $225 $334 $336 $337 forward $162 $-1 #
coedge $-1 $291 $287 $225 $278 reversed $292 $-1 #
edge $-1 $338 -30.698841669213763 $339 30.698841669213763 $277 $340 forward 7 unknown #
coedge $-1 $226 $237 $341 $342 forward $102 $-1 #
coedge $-1 $343 $227 $226 $281 reversed $176 $-1 #
edge $-1 $344 -59.946897793511766 $229 -17.195187568655896 $280 $241 forward 7 unknown #
straight-curve $-1 -17.195187568655896 -30.698841669213763 51.407640336946749 0 0 1 I I #
point $-1 -17.195187568655896 -30.698841669213763 9.0403577624717339 #
straight-curve $-1 -5.426264398660571 -30.698841669213763 3.4188200037476872 -1 0 0 I I #
point $-1 -17.195187568655896 -30.698841669213763 3.4188200037476877 #
coedge $-1 $236 $343 $275 $335 reversed $176 $-1 #
coedge $-1 $277 $238 $236 $288 forward $292 $-1 #
edge $-1 $240 -9.0403577624717339 $339 9.0403577624717339 $287 $345 forward 7 unknown #
coedge $-1 $346 $347 $237 $290 reversed $331 $-1 #
edge $-1 $293 -59.946897793511766 $348 59.946897793511766 $289 $349 forward 7 unknown #
coedge $-1 $238 $277 $346 $350 reversed $292 $-1 #
loop $-1 $-1 $287 $330 #
vertex $-1 $239 $351 #
straight-curve $-1 59.946897793511766 0 9.0403577624717339 0 1 0 I I #
point $-1 59.946897793511766 -30.698841669213763 9.0403577624717339 #
face $-1 $352 $310 $14 $-1 $353 reversed single #
loop $-1 $-1 $354 $242 #
plane-surface $-1 0 0 -9.0403577624717339 0 0 1 1 0 0 forward_v I I I I #
coedge $-1 $252 $355 $245 $302 forward $243 $-1 #
coedge $-1 $301 $245 $356 $357 reversed $183 $-1 #
coedge $-1 $245 $300 $303 $358 forward $183 $-1 #
edge $-1 $359 18.172459432284256 $360 26.506731738790741 $299 $361 forward 7 unknown #
coedge $-1 $305 $246 $301 $358 reversed $185 $-1 #
edge $-1 $360 -11.768923169995325 $253 0.91639437267418344 $252 $362 forward 7 unknown #
coedge $-1 $247 $303 $308 $363 reversed $185 $-1 #
vertex $-1 $363 $364 #
straight-curve $-1 -4.5098700259863875 -30.698841669213749 3.4188200037476975 0 -0.82903756765294845 -0.55919291073839883 I I #
coedge $-1 $356 $249 $305 $363 forward $310 $-1 #
coedge $-1 $249 $365 $251 $313 reversed $310 $-1 #
loop $-1 $-1 $356 $296 #
straight-curve $-1 -4.5098700259863875 -30.698841669213763 51.407640336946749 0 0 -1 I I #
coedge $-1 $366 $251 $367 $368 forward $243 $-1 #
edge $-1 $254 -4.5098700259863875 $369 59.946897793511766 $309 $370 forward 7 unknown #
point $-1 -4.5098700259863875 -22.364569362707279 9.0403577624717339 #
point $-1 -4.5098700259863875 -30.698841669213763 9.0403577624717339 #
point $-1 -13.57081112789318 -25.622758916781677 4.8820201581868501 #
face $-1 $371 $372 $15 $-1 $373 forward single #
loop $-1 $-1 $374 $258 #
plane-surface $-1 -17.195187568655896 -97.742602202996039 102.8152806738935 1 0 0 0 0.55919291073839883 -0.82903756765294845 forward_v I I I I #
coedge $-1 $321 $260 $375 $376 forward $195 $-1 #
coedge $-1 $260 $320 $377 $378 reversed $195 $-1 #
coedge $-1 $379 $380 $260 $323 forward $372 $-1 #
edge $-1 $381 -26.506731738790741 $382 -18.172459432284256 $322 $383 forward 7 unknown #
edge $-1 $384 1 $384 0 $261 $-1 forward 7 unknown #
vertex $-1 $262 $385 #
ellipse-curve $-1 -13.57081112789318 -25.902355372150879 5.2965389420133251 0 -0.55919291073839883 0.82903756765294845 0.5 0 0 1 I I #
point $-1 -13.07081112789318 -26.531705515960525 6.2295888831097148 #
point $-1 -8.1342464667491043 -25.622758916781677 4.8820201581868501 #
coedge $-1 $386 $375 $380 $387 reversed $267 $-1 #
face $-1 $-1 $292 $13 $-1 $388 reversed single #
loop $-1 $-1 $346 $272 #
plane-surface $-1 0 30.698841669213763 0 0 -1 0 0 0 -1 forward_v I I I I #
coedge $-1 $389 $341 $347 $390 forward $273 $-1 #
coedge $-1 $276 $275 $389 $391 forward $162 $-1 #
edge $-1 $339 -59.946897793511766 $392 59.946897793511766 $286 $393 forward 7 unknown #
coedge $-1 $347 $346 $276 $337 reversed $331 $-1 #
edge $-1 $394 -59.946897793511766 $338 59.946897793511766 $336 $395 forward 7 unknown #
vertex $-1 $278 $396 #
vertex $-1 $288 $397 #
straight-curve $-1 59.946897793511766 0 -9.0403577624717339 0 -1 0 I I #
coedge $-1 $333 $398 $279 $342 reversed $273 $-1 #
edge $-1 $348 -30.698841669213763 $344 30.698841669213763 $341 $399 forward 7 unknown #
coedge $-1 $286 $280 $398 $400 forward $176 $-1 #
vertex $-1 $342 $401 #
straight-curve $-1 59.946897793511766 -30.698841669213763 0 0 0 -1 I I #
coedge $-1 $336 $289 $291 $350 forward $331 $-1 #
coedge $-1 $289 $336 $333 $390 reversed $331 $-1 #
vertex $-1 $290 $402 #
straight-curve $-1 0 30.698841669213763 9.0403577624717339 -1 0 0 I I #
edge $-1 $293 -9.0403577624717339 $338 9.0403577624717339 $291 $403 forward 7 unknown #
point $-1 59.946897793511766 30.698841669213763 9.0403577624717339 #
face $-1 $404 $405 $14 $-1 $406 reversed single #
plane-surface $-1 0 -30.698841669213763 0 0 1 0 0 0 1 forward_v I I I I #
coedge $-1 $407 $408 $409 $410 forward $297 $-1 #
coedge $-1 $299 $411 $412 $413 forward $243 $-1 #
coedge $-1 $412 $308 $300 $357 forward $310 $-1 #
edge $-1 $414 -47.988820333199058 $359 -42.367282574475013 $356 $415 forward 7 unknown #
edge $-1 $414 -1.7244626260799089e-014 $360 10.052948903270162 $301 $416 forward 7 unknown #
vertex $-1 $357 $417 #
vertex $-1 $304 $418 #
straight-curve $-1 -17.195187568655896 -48.87130110149802 9.0403577624717357 0 1 0 I I #
straight-curve $-1 -5.426264398660571 -22.364569362707279 9.0403577624717339 1 0 0 I I #
edge $-1 $306 -0.91639437267418344 $414 11.768923169995325 $308 $419 forward 7 unknown #
point $-1 -4.5098700259863875 -30.698841669213763 3.4188200037476877 #
coedge $-1 $309 $420 $421 $422 reversed $310 $-1 #
coedge $-1 $411 $312 $423 $424 forward $243 $-1 #
coedge $-1 $421 $425 $312 $368 reversed $426 $-1 #
edge $-1 $369 -30.698841669213763 $427 30.698841669213763 $367 $428 forward 7 unknown #
vertex $-1 $368 $429 #
straight-curve $-1 0 -30.698841669213763 9.0403577624717339 1 0 0 I I #
face $-1 $430 $431 $15 $-1 $432 reversed single #
loop $-1 $-1 $433 $317 #
plane-surface $-1 0 0 9.0403577624717339 0 0 1 1 0 0 forward_v I I I I #
coedge $-1 $434 $435 $433 $436 reversed $318 $-1 #
coedge $-1 $329 $437 $320 $376 reversed $267 $-1 #
edge $-1 $381 -10.052948903270162 $438 1.7244626260799089e-014 $320 $439 forward 7 unknown #
coedge $-1 $440 $441 $321 $378 forward $442 $-1 #
edge $-1 $382 42.367282574475013 $438 47.988820333199058 $377 $443 forward 7 unknown #
coedge $-1 $444 $322 $441 $445 forward $372 $-1 #
coedge $-1 $322 $433 $329 $387 forward $372 $-1 #
vertex $-1 $387 $446 #
vertex $-1 $445 $447 #
straight-curve $-1 -4.5098700259863875 -48.87130110149802 9.0403577624717357 0 -1 0 I I #
vertex $-1 $324 $448 #
point $-1 -13.07081112789318 -25.902355372150879 5.2965389420133251 #
coedge $-1 $437 $329 $435 $449 reversed $267 $-1 #
edge $-1 $450 -11.768923169995325 $381 0.91639437267418344 $380 $451 forward 7 unknown #
plane-surface $-1 59.946897793511766 0 0 -1 0 0 0 0 1 forward_v I I I I #
coedge $-1 $398 $333 $334 $391 reversed $273 $-1 #
edge $-1 $348 -9.0403577624717339 $394 9.0403577624717339 $347 $452 forward 7 unknown #
edge $-1 $392 -30.698841669213763 $394 30.698841669213763 $389 $453 forward 7 unknown #
vertex $-1 $391 $454 #
straight-curve $-1 0 -30.698841669213763 -9.0403577624717339 -1 0 0 I I #
vertex $-1 $337 $455 #
straight-curve $-1 0 30.698841669213763 -9.0403577624717339 1 0 0 I I #
point $-1 59.946897793511766 30.698841669213763 -9.0403577624717339 #
point $-1 59.946897793511766 -30.698841669213763 -9.0403577624717339 #
coedge $-1 $341 $389 $343 $400 reversed $273 $-1 #
straight-curve $-1 -59.946897793511766 0 9.0403577624717339 0 -1 0 I I #
edge $-1 $344 -9.0403577624717339 $392 9.0403577624717339 $398 $456 forward 7 unknown #
point $-1 -59.946897793511766 -30.698841669213763 9.0403577624717339 #
point $-1 -59.946897793511766 30.698841669213763 9.0403577624717339 #
straight-curve $-1 59.946897793511766 30.698841669213763 0 0 0 -1 I I #
face $-1 $457 $458 $14 $-1 $459 reversed single #
loop $-1 $-1 $460 $352 #
plane-surface $-1 -59.946897793511766 0 0 1 0 0 0 0 -1 forward_v I I I I #
coedge $-1 $461 $354 $420 $462 forward $297 $-1 #
coedge $-1 $354 $461 $463 $464 forward $297 $-1 #
coedge $-1 $425 $421 $354 $410 reversed $426 $-1 #
edge $-1 $465 -30.698841669213763 $466 30.698841669213763 $409 $467 forward 7 unknown #
coedge $-1 $355 $366 $468 $469 forward $243 $-1 #
coedge $-1 $470 $356 $355 $413 reversed $310 $-1 #
edge $-1 $471 -59.946897793511766 $359 -17.195187568655896 $412 $370 forward 7 unknown #
vertex $-1 $363 $472 #
straight-curve $-1 -17.195187568655896 -30.698841669213763 51.407640336946749 0 0 1 I I #
straight-curve $-1 -17.195187568655896 -30.698841669213749 3.4188200037476975 0 0.82903756765294845 0.55919291073839883 I I #
point $-1 -17.195187568655896 -30.698841669213763 9.0403577624717339 #
point $-1 -17.195187568655896 -22.364569362707279 9.0403577624717339 #
straight-curve $-1 -5.426264398660571 -30.698841669213763 3.4188200037476872 -1 0 0 I I #
coedge $-1 $365 $470 $407 $462 reversed $310 $-1 #
coedge $-1 $409 $367 $365 $422 forward $426 $-1 #
edge $-1 $369 -9.0403577624717339 $466 9.0403577624717339 $421 $473 forward 7 unknown #
coedge $-1 $474 $475 $366 $424 reversed $458 $-1 #
edge $-1 $427 -59.946897793511766 $476 59.946897793511766 $423 $477 forward 7 unknown #
coedge $-1 $367 $409 $474 $478 reversed $426 $-1 #
loop $-1 $-1 $421 $457 #
vertex $-1 $368 $479 #
straight-curve $-1 59.946897793511766 0 9.0403577624717339 0 1 0 I I #
point $-1 59.946897793511766 -30.698841669213763 9.0403577624717339 #
face $-1 $480 $442 $15 $-1 $481 reversed single #
loop $-1 $-1 $482 $371 #
plane-surface $-1 0 0 -9.0403577624717339 0 0 1 1 0 0 forward_v I I I I #
coedge $-1 $380 $483 $374 $436 forward $372 $-1 #
coedge $-1 $435 $374 $484 $485 reversed $318 $-1 #
coedge $-1 $374 $434 $386 $449 forward $318 $-1 #
edge $-1 $486 18.172459432284256 $450 26.506731738790741 $433 $487 forward 7 unknown #
coedge $-1 $375 $386 $440 $488 reversed $267 $-1 #
vertex $-1 $488 $489 #
straight-curve $-1 -4.5098700259863875 -30.698841669213749 3.4188200037476975 0 -0.82903756765294845 -0.55919291073839883 I I #
coedge $-1 $484 $377 $437 $488 forward $442 $-1 #
coedge $-1 $377 $490 $379 $445 reversed $442 $-1 #
loop $-1 $-1 $484 $430 #
straight-curve $-1 -4.5098700259863875 -30.698841669213763 51.407640336946749 0 0 -1 I I #
coedge $-1 $491 $379 $492 $493 forward $372 $-1 #
edge $-1 $382 -4.5098700259863875 $494 59.946897793511766 $441 $495 forward 7 unknown #
point $-1 -4.5098700259863875 -22.364569362707279 9.0403577624717339 #
point $-1 -4.5098700259863875 -30.698841669213763 9.0403577624717339 #
point $-1 -13.57081112789318 -25.622758916781677 4.8820201581868501 #
edge $-1 $496 -1.7244626260799089e-014 $450 10.052948903270162 $435 $497 forward 7 unknown #
vertex $-1 $387 $498 #
straight-curve $-1 -5.426264398660571 -22.364569362707279 9.0403577624717339 1 0 0 I I #
straight-curve $-1 -59.946897793511766 30.698841669213763 0 0 0 -1 I I #
straight-curve $-1 -59.946897793511766 0 -9.0403577624717339 0 1 0 I I #
point $-1 -59.946897793511766 -30.698841669213763 -9.0403577624717339 #
point $-1 -59.946897793511766 30.698841669213763 -9.0403577624717339 #
straight-curve $-1 -59.946897793511766 -30.698841669213763 0 0 0 -1 I I #
face $-1 $-1 $426 $14 $-1 $499 reversed single #
loop $-1 $-1 $474 $404 #
plane-surface $-1 0 30.698841669213763 0 0 -1 0 0 0 -1 forward_v I I I I #
coedge $-1 $500 $468 $475 $501 forward $405 $-1 #
coedge $-1 $408 $407 $500 $502 forward $297 $-1 #
edge $-1 $466 -59.946897793511766 $503 59.946897793511766 $420 $504 forward 7 unknown #
coedge $-1 $475 $474 $408 $464 reversed $458 $-1 #
edge $-1 $505 -59.946897793511766 $465 59.946897793511766 $463 $506 forward 7 unknown #
vertex $-1 $410 $507 #
vertex $-1 $422 $508 #
straight-curve $-1 59.946897793511766 0 -9.0403577624717339 0 -1 0 I I #
coedge $-1 $460 $509 $411 $469 reversed $405 $-1 #
edge $-1 $476 -30.698841669213763 $471 30.698841669213763 $468 $510 forward 7 unknown #
coedge $-1 $420 $412 $509 $511 forward $310 $-1 #
vertex $-1 $469 $512 #
point $-1 -17.195187568655896 -30.698841669213763 3.4188200037476877 #
straight-curve $-1 59.946897793511766 -30.698841669213763 0 0 0 -1 I I #
coedge $-1 $463 $423 $425 $478 forward $458 $-1 #
coedge $-1 $423 $463 $460 $501 reversed $458 $-1 #
vertex $-1 $424 $513 #
straight-curve $-1 0 30.698841669213763 9.0403577624717339 -1 0 0 I I #
edge $-1 $427 -9.0403577624717339 $465 9.0403577624717339 $425 $514 forward 7 unknown #
point $-1 59.946897793511766 30.698841669213763 9.0403577624717339 #
face $-1 $515 $516 $15 $-1 $517 reversed single #
plane-surface $-1 0 -30.698841669213763 0 0 1 0 0 0 1 forward_v I I I I #
coedge $-1 $518 $519 $520 $521 forward $431 $-1 #
coedge $-1 $433 $522 $523 $524 forward $372 $-1 #
coedge $-1 $523 $440 $434 $485 forward $442 $-1 #
edge $-1 $496 -47.988820333199058 $486 -42.367282574475013 $484 $525 forward 7 unknown #
vertex $-1 $485 $526 #
straight-curve $-1 -17.195187568655896 -48.87130110149802 9.0403577624717357 0 1 0 I I #
edge $-1 $438 -0.91639437267418344 $496 11.768923169995325 $440 $527 forward 7 unknown #
point $-1 -4.5098700259863875 -30.698841669213763 3.4188200037476877 #
coedge $-1 $441 $528 $529 $530 reversed $442 $-1 #
coedge $-1 $522 $444 $531 $532 forward $372 $-1 #
coedge $-1 $529 $533 $444 $493 reversed $534 $-1 #
edge $-1 $494 -30.698841669213763 $535 30.698841669213763 $492 $536 forward 7 unknown #
vertex $-1 $493 $537 #
straight-curve $-1 0 -30.698841669213763 9.0403577624717339 1 0 0 I I #
vertex $-1 $488 $538 #
straight-curve $-1 -17.195187568655896 -30.698841669213749 3.4188200037476975 0 0.82903756765294845 0.55919291073839883 I I #
point $-1 -17.195187568655896 -22.364569362707279 9.0403577624717339 #
plane-surface $-1 59.946897793511766 0 0 -1 0 0 0 0 1 forward_v I I I I #
coedge $-1 $509 $460 $461 $502 reversed $405 $-1 #
edge $-1 $476 -9.0403577624717339 $505 9.0403577624717339 $475 $539 forward 7 unknown #
edge $-1 $503 -30.698841669213763 $505 30.698841669213763 $500 $540 forward 7 unknown #
vertex $-1 $502 $541 #
straight-curve $-1 0 -30.698841669213763 -9.0403577624717339 -1 0 0 I I #
vertex $-1 $464 $542 #
straight-curve $-1 0 30.698841669213763 -9.0403577624717339 1 0 0 I I #
point $-1 59.946897793511766 30.698841669213763 -9.0403577624717339 #
point $-1 59.946897793511766 -30.698841669213763 -9.0403577624717339 #
coedge $-1 $468 $500 $470 $511 reversed $405 $-1 #
straight-curve $-1 -59.946897793511766 0 9.0403577624717339 0 -1 0 I I #
edge $-1 $471 -9.0403577624717339 $503 9.0403577624717339 $509 $543 forward 7 unknown #
point $-1 -59.946897793511766 -30.698841669213763 9.0403577624717339 #
point $-1 -59.946897793511766 30.698841669213763 9.0403577624717339 #
straight-curve $-1 59.946897793511766 30.698841669213763 0 0 0 -1 I I #
face $-1 $544 $545 $15 $-1 $546 reversed single #
loop $-1 $-1 $547 $480 #
plane-surface $-1 -59.946897793511766 0 0 1 0 0 0 0 -1 forward_v I I I I #
coedge $-1 $548 $482 $528 $549 forward $431 $-1 #
coedge $-1 $482 $548 $550 $551 forward $431 $-1 #
coedge $-1 $533 $529 $482 $521 reversed $534 $-1 #
edge $-1 $552 -30.698841669213763 $553 30.698841669213763 $520 $554 forward 7 unknown #
coedge $-1 $483 $491 $555 $556 forward $372 $-1 #
coedge $-1 $557 $484 $483 $524 reversed $442 $-1 #
edge $-1 $558 -59.946897793511766 $486 -17.195187568655896 $523 $495 forward 7 unknown #
straight-curve $-1 -17.195187568655896 -30.698841669213763 51.407640336946749 0 0 1 I I #
point $-1 -17.195187568655896 -30.698841669213763 9.0403577624717339 #
straight-curve $-1 -5.426264398660571 -30.698841669213763 3.4188200037476872 -1 0 0 I I #
coedge $-1 $490 $557 $518 $549 reversed $442 $-1 #
coedge $-1 $520 $492 $490 $530 forward $534 $-1 #
edge $-1 $494 -9.0403577624717339 $553 9.0403577624717339 $529 $559 forward 7 unknown #
coedge $-1 $560 $561 $491 $532 reversed $545 $-1 #
edge $-1 $535 -59.946897793511766 $562 59.946897793511766 $531 $563 forward 7 unknown #
coedge $-1 $492 $520 $560 $564 reversed $534 $-1 #
loop $-1 $-1 $529 $544 #
vertex $-1 $493 $565 #
straight-curve $-1 59.946897793511766 0 9.0403577624717339 0 1 0 I I #
point $-1 59.946897793511766 -30.698841669213763 9.0403577624717339 #
point $-1 -17.195187568655896 -30.698841669213763 3.4188200037476877 #
straight-curve $-1 -59.946897793511766 30.698841669213763 0 0 0 -1 I I #
straight-curve $-1 -59.946897793511766 0 -9.0403577624717339 0 1 0 I I #
point $-1 -59.946897793511766 -30.698841669213763 -9.0403577624717339 #
point $-1 -59.946897793511766 30.698841669213763 -9.0403577624717339 #
straight-curve $-1 -59.946897793511766 -30.698841669213763 0 0 0 -1 I I #
face $-1 $-1 $534 $15 $-1 $566 reversed single #
loop $-1 $-1 $560 $515 #
plane-surface $-1 0 30.698841669213763 0 0 -1 0 0 0 -1 forward_v I I I I #
coedge $-1 $567 $555 $561 $568 forward $516 $-1 #
coedge $-1 $519 $518 $567 $569 forward $431 $-1 #
edge $-1 $553 -59.946897793511766 $570 59.946897793511766 $528 $571 forward 7 unknown #
coedge $-1 $561 $560 $519 $551 reversed $545 $-1 #
edge $-1 $572 -59.946897793511766 $552 59.946897793511766 $550 $573 forward 7 unknown #
vertex $-1 $521 $574 #
vertex $-1 $530 $575 #
straight-curve $-1 59.946897793511766 0 -9.0403577624717339 0 -1 0 I I #
coedge $-1 $547 $576 $522 $556 reversed $516 $-1 #
edge $-1 $562 -30.698841669213763 $558 30.698841669213763 $555 $577 forward 7 unknown #
coedge $-1 $528 $523 $576 $578 forward $442 $-1 #
vertex $-1 $556 $579 #
straight-curve $-1 59.946897793511766 -30.698841669213763 0 0 0 -1 I I #
coedge $-1 $550 $531 $533 $564 forward $545 $-1 #
coedge $-1 $531 $550 $547 $568 reversed $545 $-1 #
vertex $-1 $532 $580 #
straight-curve $-1 0 30.698841669213763 9.0403577624717339 -1 0 0 I I #
edge $-1 $535 -9.0403577624717339 $552 9.0403577624717339 $533 $581 forward 7 unknown #
point $-1 59.946897793511766 30.698841669213763 9.0403577624717339 #
plane-surface $-1 59.946897793511766 0 0 -1 0 0 0 0 1 forward_v I I I I #
coedge $-1 $576 $547 $548 $569 reversed $516 $-1 #
edge $-1 $562 -9.0403577624717339 $572 9.0403577624717339 $561 $582 forward 7 unknown #
edge $-1 $570 -30.698841669213763 $572 30.698841669213763 $567 $583 forward 7 unknown #
vertex $-1 $569 $584 #
straight-curve $-1 0 -30.698841669213763 -9.0403577624717339 -1 0 0 I I #
vertex $-1 $551 $585 #
straight-curve $-1 0 30.698841669213763 -9.0403577624717339 1 0 0 I I #
point $-1 59.946897793511766 30.698841669213763 -9.0403577624717339 #
point $-1 59.946897793511766 -30.698841669213763 -9.0403577624717339 #
coedge $-1 $555 $567 $557 $578 reversed $516 $-1 #
straight-curve $-1 -59.946897793511766 0 9.0403577624717339 0 -1 0 I I #
edge $-1 $558 -9.0403577624717339 $570 9.0403577624717339 $576 $586 forward 7 unknown #
point $-1 -59.946897793511766 -30.698841669213763 9.0403577624717339 #
point $-1 -59.946897793511766 30.698841669213763 9.0403577624717339 #
straight-curve $-1 59.946897793511766 30.698841669213763 0 0 0 -1 I I #
straight-curve $-1 -59.946897793511766 30.698841669213763 0 0 0 -1 I I #
straight-curve $-1 -59.946897793511766 0 -9.0403577624717339 0 1 0 I I #
point $-1 -59.946897793511766 -30.698841669213763 -9.0403577624717339 #
point $-1 -59.946897793511766 30.698841669213763 -9.0403577624717339 #
straight-curve $-1 -59.946897793511766 -30.698841669213763 0 0 0 -1 I I #
End-of-ACIS-data 