500 0 4 0           
7 Unknown 11 ACIS 5.0 NT 24 Thu Mar 25 18:25:25 1999 
-1 9.9999999999999995e-007 1e-010 
body $-1 $4 $-1 $5 #
body $-1 $6 $-1 $7 #
body $-1 $8 $-1 $9 #
body $-1 $10 $-1 $11 #
lump $-1 $-1 $12 $0 #
transform $-1 1 0 0 0 1 0 0 0 1 47.708975493636892 19.151294514616968 8.7774964412691467 1 rotate no_reflect no_shear #
lump $-1 $-1 $13 $1 #
transform $-1 1 0 0 0 1 0 0 0 1 47.708975493636892 19.151294514616968 8.7774964412691467 1 rotate no_reflect no_shear #
lump $-1 $-1 $14 $2 #
transform $-1 1 0 0 0 1 0 0 0 1 47.708975493636892 19.151294514616968 8.7774964412691467 1 rotate no_reflect no_shear #
lump $-1 $-1 $15 $3 #
transform $-1 1 0 0 0 1 0 0 0 1 47.708975493636892 19.151294514616968 8.7774964412691467 1 rotate no_reflect no_shear #
shell $-1 $-1 $-1 $16 $-1 $4 #
shell $-1 $-1 $-1 $17 $-1 $6 #
shell $-1 $-1 $-1 $18 $-1 $8 #
shell $-1 $-1 $-1 $19 $-1 $10 #
face $-1 $20 $21 $12 $-1 $22 forward single #
face $-1 $23 $24 $13 $-1 $25 forward single #
face $-1 $26 $27 $14 $-1 $28 reversed single #
face $-1 $29 $30 $15 $-1 $31 forward single #
face $-1 $32 $33 $12 $-1 $34 reversed single #
loop $-1 $-1 $35 $16 #
plane-surface $-1 0 0 8.7774964412691467 0 0 1 1 0 0 forward_v I I I I #
face $-1 $36 $37 $13 $-1 $38 reversed single #
loop $-1 $-1 $39 $17 #
plane-surface $-1 0 -19.151294514616968 0 0 1 0 0 0 1 forward_v I I I I #
face $-1 $40 $41 $14 $-1 $42 reversed single #
loop $-1 $-1 $43 $18 #
plane-surface $-1 24.276655370982589 13.077131436386678 133.77448790042061 0 -1 0 -0.57357644374324357 0 -0.81915203911291934 forward_v I I I I #
face $-1 $44 $45 $15 $-1 $46 forward single #
loop $-1 $47 $48 $19 #
cone-surface $-1 41.062500540012813 9.1291722717526618 3.3888335185815741 -0.57357644374324357 0 -0.81915203911291934 0.81915203911291934 0 -0.57357644374324357 1 I I 0 1 1 forward I I I I #
face $-1 $49 $50 $12 $-1 $51 reversed single #
loop $-1 $-1 $52 $20 #
plane-surface $-1 0 0 -8.7774964412691467 0 0 1 1 0 0 forward_v I I I I #
coedge $-1 $53 $54 $55 $56 forward $21 $-1 #
face $-1 $57 $58 $13 $-1 $59 forward single #
loop $-1 $-1 $60 $23 #
plane-surface $-1 -47.708975493636892 0 0 1 0 0 0 0 -1 forward_v I I I I #
coedge $-1 $61 $62 $63 $64 forward $24 $-1 #
face $-1 $65 $66 $14 $-1 $67 reversed single #
loop $-1 $-1 $68 $26 #
plane-surface $-1 -30.452833625565027 9.1291722717526618 55.61267878121869 0.57357644374324357 0 0.81915203911291934 0.81915203911291934 0 -0.57357644374324357 forward_v I I I I #
coedge $-1 $69 $70 $71 $72 reversed $27 $-1 #
face $-1 $-1 $73 $15 $-1 $74 forward single #
loop $-1 $75 $76 $29 #
cone-surface $-1 39.766356414362299 9.1291722717526618 1.5377479046365785 -0.57357644374324357 0 -0.81915203911291934 0.40957601955645967 0 -0.28678822187162178 1 I I -0.70710678118654746 0.70710678118654746 0.5 forward I I I I #
loop $-1 $-1 $77 $19 #
coedge $-1 $48 $48 $78 $79 reversed $30 $-1 #
face $-1 $80 $81 $12 $-1 $82 reversed single #
loop $-1 $-1 $83 $32 #
plane-surface $-1 0 -19.151294514616968 0 0 1 0 0 0 1 forward_v I I I I #
coedge $-1 $84 $85 $86 $87 forward $33 $-1 #
coedge $-1 $88 $35 $89 $90 forward $21 $-1 #
coedge $-1 $35 $88 $91 $92 forward $21 $-1 #
coedge $-1 $93 $94 $35 $56 reversed $95 $-1 #
edge $-1 $96 -19.151294514616968 $97 19.151294514616968 $55 $98 forward 7 unknown #
face $-1 $99 $100 $13 $-1 $101 reversed single #
loop $-1 $-1 $102 $36 #
plane-surface $-1 0 -24.354024471793259 -3.3942147092480099 0 0 1 1 0 0 forward_v I I I I #
coedge $-1 $103 $104 $62 $105 forward $37 $-1 #
coedge $-1 $106 $39 $107 $108 reversed $24 $-1 #
coedge $-1 $39 $106 $60 $105 reversed $24 $-1 #
coedge $-1 $109 $102 $39 $64 reversed $58 $-1 #
edge $-1 $110 -47.708975493636892 $111 47.708975493636892 $63 $112 forward 7 unknown #
face $-1 $113 $114 $14 $-1 $115 reversed single #
loop $-1 $-1 $116 $40 #
plane-surface $-1 24.276655370982589 5.181213107118646 133.77448790042061 0 1 0 0.57357644374324357 0 0.81915203911291934 forward_v I I I I #
coedge $-1 $117 $118 $119 $120 reversed $41 $-1 #
coedge $-1 $70 $43 $121 $122 reversed $27 $-1 #
coedge $-1 $43 $69 $117 $123 reversed $27 $-1 #
coedge $-1 $119 $124 $43 $72 forward $125 $-1 #
edge $-1 $126 -35.570647808145594 $127 -24.29640970845519 $71 $128 forward 7 unknown #
loop $-1 $-1 $78 $44 #
plane-surface $-1 -30.452833625565027 9.1291722717526618 55.61267878121869 0.57357644374324357 0 0.81915203911291934 0.81915203911291934 0 -0.57357644374324357 forward_v I I I I #
loop $-1 $-1 $129 $29 #
coedge $-1 $76 $76 $77 $130 reversed $45 $-1 #
coedge $-1 $77 $77 $76 $130 forward $47 $-1 #
coedge $-1 $78 $78 $48 $79 forward $73 $-1 #
edge $-1 $131 0 $131 6.2831853071796004 $78 $132 forward 7 unknown #
face $-1 $133 $134 $12 $-1 $135 reversed single #
loop $-1 $-1 $136 $49 #
plane-surface $-1 -47.708975493636892 0 0 1 0 0 0 0 -1 forward_v I I I I #
coedge $-1 $137 $91 $138 $139 forward $50 $-1 #
coedge $-1 $140 $52 $137 $141 forward $33 $-1 #
coedge $-1 $52 $140 $142 $143 forward $33 $-1 #
coedge $-1 $94 $93 $52 $87 reversed $95 $-1 #
edge $-1 $144 -19.151294514616968 $145 19.151294514616968 $86 $146 forward 7 unknown #
coedge $-1 $54 $53 $147 $148 forward $21 $-1 #
coedge $-1 $149 $150 $53 $90 reversed $134 $-1 #
edge $-1 $97 -47.708975493636892 $151 47.708975493636892 $89 $152 forward 7 unknown #
coedge $-1 $83 $153 $54 $92 reversed $50 $-1 #
edge $-1 $154 -47.708975493636892 $96 47.708975493636892 $91 $155 forward 7 unknown #
coedge $-1 $86 $55 $153 $156 forward $95 $-1 #
coedge $-1 $55 $86 $149 $157 reversed $95 $-1 #
loop $-1 $-1 $93 $133 #
vertex $-1 $56 $158 #
vertex $-1 $56 $159 #
straight-curve $-1 47.708975493636892 0 8.7774964412691467 0 1 0 I I #
face $-1 $160 $161 $13 $-1 $162 reversed single #
loop $-1 $-1 $163 $57 #
plane-surface $-1 0 -24.354024471793259 -7.4249465111150368 0 0 1 1 0 0 forward_v I I I I #
coedge $-1 $63 $164 $165 $166 forward $58 $-1 #
coedge $-1 $167 $60 $168 $169 reversed $37 $-1 #
coedge $-1 $60 $167 $109 $170 reversed $37 $-1 #
edge $-1 $110 3.3942147092480099 $171 7.4249465111150368 $60 $172 forward 7 unknown #
coedge $-1 $62 $61 $173 $174 forward $24 $-1 #
coedge $-1 $165 $175 $61 $108 forward $176 $-1 #
edge $-1 $177 -7.4249465111150368 $111 -3.3942147092480099 $107 $178 forward 7 unknown #
coedge $-1 $164 $63 $104 $170 forward $58 $-1 #
vertex $-1 $105 $179 #
vertex $-1 $166 $180 #
straight-curve $-1 0 -19.151294514616968 -3.3942147092480099 1 0 0 I I #
face $-1 $-1 $125 $14 $-1 $181 forward single #
loop $-1 $-1 $182 $65 #
plane-surface $-1 47.708975493636892 0 0 -1 0 0 0 0 1 forward_v I I I I #
coedge $-1 $183 $184 $185 $186 reversed $66 $-1 #
coedge $-1 $187 $68 $70 $123 forward $41 $-1 #
coedge $-1 $68 $187 $183 $188 forward $41 $-1 #
coedge $-1 $185 $71 $68 $120 forward $125 $-1 #
edge $-1 $127 -8.5125453005103466 $189 -0.61662697124231514 $119 $190 forward 7 unknown #
coedge $-1 $191 $192 $69 $122 forward $114 $-1 #
edge $-1 $193 -66.00405416553923 $126 -58.109747508941155 $121 $194 forward 7 unknown #
edge $-1 $127 81.654647520557688 $193 95.417950987273784 $70 $195 forward 7 unknown #
coedge $-1 $71 $185 $191 $196 forward $125 $-1 #
loop $-1 $-1 $185 $113 #
vertex $-1 $122 $197 #
vertex $-1 $72 $198 #
straight-curve $-1 12.138327685491294 13.077131436386678 8.7774964412691503 -1 0 0 I I #
coedge $-1 $129 $129 $-1 $199 reversed $75 $-1 #
edge $-1 $200 0 $200 6.2831853071796004 $76 $201 forward 7 unknown #
vertex $-1 $79 $202 #
ellipse-curve $-1 42.071856443791702 9.1291722717526618 4.8303431129701035 0.57357644374324357 0 0.81915203911291934 0.81915203911291934 0 -0.57357644374324357 1 I I #
face $-1 $-1 $95 $12 $-1 $203 reversed single #
loop $-1 $-1 $149 $80 #
plane-surface $-1 0 19.151294514616968 0 0 -1 0 0 0 -1 forward_v I I I I #
coedge $-1 $204 $147 $150 $205 forward $81 $-1 #
coedge $-1 $153 $83 $84 $141 reversed $50 $-1 #
coedge $-1 $147 $204 $83 $139 reversed $81 $-1 #
edge $-1 $154 -8.7774964412691467 $206 8.7774964412691467 $138 $207 forward 7 unknown #
coedge $-1 $85 $84 $204 $208 forward $33 $-1 #
edge $-1 $145 -47.708975493636892 $206 47.708975493636892 $137 $209 forward 7 unknown #
coedge $-1 $150 $149 $85 $143 reversed $134 $-1 #
edge $-1 $210 -47.708975493636892 $144 47.708975493636892 $142 $211 forward 7 unknown #
vertex $-1 $87 $212 #
vertex $-1 $156 $213 #
straight-curve $-1 47.708975493636892 0 -8.7774964412691467 0 -1 0 I I #
coedge $-1 $136 $138 $88 $148 reversed $81 $-1 #
edge $-1 $151 -19.151294514616968 $154 19.151294514616968 $147 $214 forward 7 unknown #
coedge $-1 $142 $89 $94 $157 forward $134 $-1 #
coedge $-1 $89 $142 $136 $205 reversed $134 $-1 #
vertex $-1 $90 $215 #
straight-curve $-1 0 19.151294514616968 8.7774964412691467 -1 0 0 I I #
coedge $-1 $91 $137 $93 $156 reversed $50 $-1 #
vertex $-1 $148 $216 #
straight-curve $-1 0 -19.151294514616968 8.7774964412691467 1 0 0 I I #
edge $-1 $96 -8.7774964412691467 $145 8.7774964412691467 $93 $217 forward 7 unknown #
edge $-1 $97 -8.7774964412691467 $144 8.7774964412691467 $94 $218 forward 7 unknown #
point $-1 47.708975493636892 -19.151294514616968 8.7774964412691467 #
point $-1 47.708975493636892 19.151294514616968 8.7774964412691467 #
face $-1 $-1 $176 $13 $-1 $219 reversed single #
loop $-1 $-1 $220 $99 #
plane-surface $-1 0 -29.556754428969551 -5.4095806101815231 0 1 0 0 0 1 forward_v I I I I #
coedge $-1 $221 $173 $175 $222 forward $100 $-1 #
coedge $-1 $102 $109 $223 $224 forward $58 $-1 #
coedge $-1 $225 $107 $102 $166 reversed $176 $-1 #
edge $-1 $226 -5.2027299571762917 $111 5.2027299571762917 $165 $227 forward 7 unknown #
coedge $-1 $104 $103 $220 $228 reversed $37 $-1 #
coedge $-1 $173 $221 $103 $169 forward $100 $-1 #
edge $-1 $229 -5.2027299571762917 $171 5.2027299571762917 $103 $230 forward 7 unknown #
edge $-1 $110 -5.2027299571762917 $231 5.2027299571762917 $104 $232 forward 7 unknown #
vertex $-1 $105 $233 #
straight-curve $-1 -47.708975493636892 -19.151294514616968 0 0 0 -1 I I #
coedge $-1 $163 $168 $106 $174 reversed $100 $-1 #
edge $-1 $177 -47.708975493636892 $171 47.708975493636892 $173 $234 forward 7 unknown #
coedge $-1 $107 $225 $163 $222 reversed $176 $-1 #
loop $-1 $-1 $107 $160 #
vertex $-1 $108 $235 #
straight-curve $-1 47.708975493636892 -19.151294514616968 0 0 0 1 I I #
point $-1 -47.708975493636892 -19.151294514616968 -3.3942147092480099 #
point $-1 47.708975493636892 -19.151294514616968 -3.3942147092480099 #
plane-surface $-1 0 0 8.7774964412691467 0 0 1 1 0 0 forward_v I I I I #
coedge $-1 $192 $191 $184 $236 forward $114 $-1 #
coedge $-1 $184 $116 $118 $188 reversed $66 $-1 #
coedge $-1 $116 $183 $182 $236 reversed $66 $-1 #
coedge $-1 $124 $119 $116 $186 forward $125 $-1 #
edge $-1 $189 24.29640970845519 $237 35.570647808145594 $185 $238 forward 7 unknown #
coedge $-1 $118 $117 $192 $239 reversed $41 $-1 #
edge $-1 $240 -95.417950987273784 $189 -81.654647520557688 $183 $241 forward 7 unknown #
vertex $-1 $120 $242 #
straight-curve $-1 36.434737393946492 4.5645861358763309 8.7774964412691503 0 -1 0 I I #
coedge $-1 $182 $121 $124 $196 reversed $114 $-1 #
coedge $-1 $121 $182 $187 $239 forward $114 $-1 #
vertex $-1 $122 $243 #
straight-curve $-1 47.708975493636892 13.077131436386678 66.887243950210305 0 0 1 I I #
straight-curve $-1 -30.452833625565027 13.077131436386678 55.61267878121869 0.81915203911291934 0 -0.57357644374324357 I I #
edge $-1 $237 5.181213107118646 $126 13.077131436386678 $191 $244 forward 7 unknown #
point $-1 47.708975493636892 13.077131436386678 8.7774964412691467 #
point $-1 36.434737393946484 13.077131436386678 8.7774964412691503 #
edge $-1 $245 1 $245 0 $129 $-1 forward 7 unknown #
vertex $-1 $130 $246 #
ellipse-curve $-1 40.053144636233924 9.1291722717526618 1.9473239241930382 0.57357644374324357 0 0.81915203911291934 0.81915203911291934 0 -0.57357644374324357 1 I I #
point $-1 42.891008482904624 9.1291722717526618 4.2567666692268658 #
plane-surface $-1 47.708975493636892 0 0 -1 0 0 0 0 1 forward_v I I I I #
coedge $-1 $138 $136 $140 $208 reversed $81 $-1 #
edge $-1 $151 -8.7774964412691467 $210 8.7774964412691467 $150 $247 forward 7 unknown #
vertex $-1 $208 $248 #
straight-curve $-1 -47.708975493636892 -19.151294514616968 0 0 0 -1 I I #
edge $-1 $206 -19.151294514616968 $210 19.151294514616968 $204 $249 forward 7 unknown #
straight-curve $-1 0 -19.151294514616968 -8.7774964412691467 -1 0 0 I I #
vertex $-1 $143 $250 #
straight-curve $-1 0 19.151294514616968 -8.7774964412691467 1 0 0 I I #
point $-1 47.708975493636892 19.151294514616968 -8.7774964412691467 #
point $-1 47.708975493636892 -19.151294514616968 -8.7774964412691467 #
straight-curve $-1 -47.708975493636892 0 8.7774964412691467 0 -1 0 I I #
point $-1 -47.708975493636892 19.151294514616968 8.7774964412691467 #
point $-1 -47.708975493636892 -19.151294514616968 8.7774964412691467 #
straight-curve $-1 47.708975493636892 -19.151294514616968 0 0 0 -1 I I #
straight-curve $-1 47.708975493636892 19.151294514616968 0 0 0 -1 I I #
plane-surface $-1 47.708975493636892 0 0 -1 0 0 0 0 1 forward_v I I I I #
coedge $-1 $251 $223 $167 $228 forward $161 $-1 #
coedge $-1 $168 $163 $251 $252 forward $100 $-1 #
edge $-1 $177 -5.2027299571762917 $253 5.2027299571762917 $175 $254 forward 7 unknown #
coedge $-1 $220 $255 $164 $224 reversed $161 $-1 #
edge $-1 $231 -47.708975493636892 $226 47.708975493636892 $223 $256 forward 7 unknown #
coedge $-1 $175 $165 $255 $257 forward $176 $-1 #
vertex $-1 $166 $258 #
straight-curve $-1 47.708975493636892 -24.354024471793259 -3.3942147092480099 0 1 0 I I #
edge $-1 $231 -2.0153659009335132 $229 2.0153659009335136 $167 $259 forward 7 unknown #
vertex $-1 $169 $260 #
straight-curve $-1 -47.708975493636892 -24.354024471793259 -7.4249465111150368 0 1 0 I I #
vertex $-1 $170 $261 #
straight-curve $-1 -47.708975493636892 -24.354024471793259 -3.3942147092480099 0 -1 0 I I #
point $-1 -47.708975493636892 -19.151294514616968 -7.4249465111150368 #
straight-curve $-1 0 -19.151294514616968 -7.4249465111150368 -1 0 0 I I #
point $-1 47.708975493636892 -19.151294514616968 -7.4249465111150368 #
edge $-1 $237 58.109747508941155 $240 66.00405416553923 $182 $262 forward 7 unknown #
vertex $-1 $196 $263 #
straight-curve $-1 12.138327685491294 5.181213107118646 8.7774964412691503 1 0 0 I I #
edge $-1 $240 0.61662697124231514 $193 8.5125453005103466 $192 $264 forward 7 unknown #
vertex $-1 $239 $265 #
straight-curve $-1 -30.452833625565027 5.181213107118646 55.61267878121869 -0.81915203911291934 0 0.57357644374324357 I I #
point $-1 36.434737393946484 5.181213107118646 8.7774964412691503 #
point $-1 47.708975493636892 13.077131436386678 0.88318978467107456 #
straight-curve $-1 47.708975493636892 0 8.7774964412691467 0 1 0 I I #
vertex $-1 $199 $266 #
point $-1 40.872296675346838 9.1291722717526618 1.3737474804497947 #
straight-curve $-1 -47.708975493636892 19.151294514616968 0 0 0 -1 I I #
point $-1 -47.708975493636892 -19.151294514616968 -8.7774964412691467 #
straight-curve $-1 -47.708975493636892 0 -8.7774964412691467 0 1 0 I I #
point $-1 -47.708975493636892 19.151294514616968 -8.7774964412691467 #
coedge $-1 $255 $220 $221 $252 reversed $161 $-1 #
edge $-1 $253 -47.708975493636892 $229 47.708975493636892 $251 $267 forward 7 unknown #
vertex $-1 $257 $268 #
straight-curve $-1 47.708975493636892 -24.354024471793259 -7.4249465111150368 0 -1 0 I I #
coedge $-1 $223 $251 $225 $257 reversed $161 $-1 #
straight-curve $-1 0 -29.556754428969551 -3.3942147092480099 1 0 0 I I #
edge $-1 $226 -2.0153659009335132 $253 2.0153659009335136 $225 $269 forward 7 unknown #
point $-1 47.708975493636892 -29.556754428969551 -3.3942147092480099 #
straight-curve $-1 -47.708975493636892 -29.556754428969551 -5.4095806101815231 0 0 -1 I I #
point $-1 -47.708975493636892 -29.556754428969551 -7.4249465111150368 #
point $-1 -47.708975493636892 -29.556754428969551 -3.3942147092480099 #
straight-curve $-1 47.708975493636892 5.181213107118646 66.887243950210305 0 0 -1 I I #
point $-1 47.708975493636892 5.181213107118646 8.7774964412691467 #
straight-curve $-1 47.708975493636892 4.5645861358763309 0.88318978467107101 0 1 0 I I #
point $-1 47.708975493636892 5.181213107118646 0.88318978467107456 #
point $-1 39.479568192490675 9.1291722717526618 1.1281718850801188 #
straight-curve $-1 0 -29.556754428969551 -7.4249465111150368 -1 0 0 I I #
point $-1 47.708975493636892 -29.556754428969551 -7.4249465111150368 #
straight-curve $-1 47.708975493636892 -29.556754428969551 -5.4095806101815231 0 0 -1 I I #
End-of-ACIS-data 