500 0 8 0           
7 Unknown 11 ACIS 5.0 NT 24 Thu Mar 25 20:36:19 1999 
-1 9.9999999999999995e-007 1e-010 
body $-1 $8 $-1 $9 #
body $-1 $10 $-1 $11 #
body $-1 $12 $-1 $13 #
body $-1 $14 $-1 $15 #
body $-1 $16 $-1 $17 #
body $-1 $18 $-1 $19 #
body $-1 $20 $-1 $21 #
body $-1 $22 $-1 $23 #
lump $-1 $-1 $24 $0 #
transform $-1 1 0 0 0 1 0 0 0 1 43.33750419629505 24.367906081234132 5.7891903952139421 1 rotate no_reflect no_shear #
lump $-1 $-1 $25 $1 #
transform $-1 1 0 0 0 1 0 0 0 1 43.33750419629505 24.367906081234132 5.7891903952139421 1 rotate no_reflect no_shear #
lump $-1 $-1 $26 $2 #
transform $-1 1 0 0 0 1 0 0 0 1 43.33750419629505 24.367906081234132 5.7891903952139421 1 rotate no_reflect no_shear #
lump $-1 $-1 $27 $3 #
transform $-1 1 0 0 0 1 0 0 0 1 43.33750419629505 24.367906081234132 5.7891903952139421 1 rotate no_reflect no_shear #
lump $-1 $-1 $28 $4 #
transform $-1 1 0 0 0 1 0 0 0 1 43.33750419629505 24.367906081234132 5.7891903952139421 1 rotate no_reflect no_shear #
lump $-1 $-1 $29 $5 #
transform $-1 1 0 0 0 1 0 0 0 1 43.33750419629505 24.367906081234132 5.7891903952139421 1 rotate no_reflect no_shear #
lump $-1 $-1 $30 $6 #
transform $-1 1 0 0 0 1 0 0 0 1 43.33750419629505 24.367906081234132 5.7891903952139421 1 rotate no_reflect no_shear #
lump $-1 $-1 $31 $7 #
transform $-1 1 0 0 0 1 0 0 0 1 43.33750419629505 24.367906081234132 5.7891903952139421 1 rotate no_reflect no_shear #
shell $-1 $-1 $-1 $32 $-1 $8 #
shell $-1 $-1 $-1 $33 $-1 $10 #
shell $-1 $-1 $-1 $34 $-1 $12 #
shell $-1 $-1 $-1 $35 $-1 $14 #
shell $-1 $-1 $-1 $36 $-1 $16 #
shell $-1 $-1 $-1 $37 $-1 $18 #
shell $-1 $-1 $-1 $38 $-1 $20 #
shell $-1 $-1 $-1 $39 $-1 $22 #
face $-1 $40 $41 $24 $-1 $42 forward single #
face $-1 $43 $44 $25 $-1 $45 reversed single #
face $-1 $46 $47 $26 $-1 $48 reversed single #
face $-1 $49 $50 $27 $-1 $51 forward single #
face $-1 $52 $53 $28 $-1 $54 reversed single #
face $-1 $55 $56 $29 $-1 $57 forward single #
face $-1 $58 $59 $30 $-1 $60 forward single #
face $-1 $61 $62 $31 $-1 $63 forward single #
face $-1 $64 $65 $24 $-1 $66 reversed single #
loop $-1 $-1 $67 $32 #
plane-surface $-1 0 0 5.7891903952139421 0 0 1 1 0 0 forward_v I I I I #
face $-1 $68 $69 $25 $-1 $70 reversed single #
loop $-1 $-1 $71 $33 #
plane-surface $-1 -40.055829880884609 0 2.7891903952139421 0 0 1 1 0 0 forward_v I I I I #
face $-1 $72 $73 $26 $-1 $74 reversed single #
loop $-1 $-1 $75 $34 #
plane-surface $-1 32.372423997755106 76.547987282289824 87.20366733592374 1 0 0 0 -0.87461971476443456 -0.48480960649040278 forward_v I I I I #
face $-1 $76 $77 $27 $-1 $78 forward single #
loop $-1 $79 $80 $35 #
cone-surface $-1 37.854964097025082 22.731012657560385 3.7624785787364434 0 -0.87461971476443456 -0.48480960649040278 0.5 0 0 1 I I 0 1 0.5 forward I I I I #
face $-1 $81 $82 $28 $-1 $83 reversed single #
loop $-1 $-1 $84 $36 #
plane-surface $-1 20.190235321147156 -91.727039530045005 55.016647972754392 -1 0 0 0 -0.77714596973225614 0.62932038083071107 forward_v I I I I #
face $-1 $85 $86 $29 $-1 $87 forward single #
loop $-1 $88 $89 $37 #
cone-surface $-1 11.2448774691509 -21.815427462589017 2.8067201703413316 0 0.77714596973225614 -0.62932038083071107 0.5 0 0 1 I I 0 1 0.5 forward I I I I #
face $-1 $90 $91 $30 $-1 $92 forward single #
loop $-1 $93 $94 $38 #
cone-surface $-1 14.599386663649497 -21.815427462589017 2.8067201703413316 0 0.77714596973225614 -0.62932038083071107 0.5 0 0 1 I I 0 1 0.5 forward I I I I #
face $-1 $95 $96 $31 $-1 $97 forward single #
loop $-1 $98 $99 $39 #
cone-surface $-1 17.953895858148094 -21.815427462589017 2.8067201703413316 0 0.77714596973225614 -0.62932038083071107 0.5 0 0 1 I I 0 1 0.5 forward I I I I #
face $-1 $100 $101 $24 $-1 $102 reversed single #
loop $-1 $-1 $103 $40 #
plane-surface $-1 0 0 -5.7891903952139421 0 0 1 1 0 0 forward_v I I I I #
coedge $-1 $104 $105 $106 $107 forward $41 $-1 #
face $-1 $108 $109 $25 $-1 $110 reversed single #
loop $-1 $-1 $111 $43 #
plane-surface $-1 -36.774155565474167 0 4.2891903952139421 -1 0 0 0 0 1 forward_v I I I I #
coedge $-1 $112 $113 $114 $115 forward $44 $-1 #
face $-1 $116 $117 $26 $-1 $118 forward single #
loop $-1 $-1 $119 $46 #
plane-surface $-1 37.854964097025082 0.74031616475770079 45.182790624559772 0 0.87461971476443456 0.48480960649040278 1 0 0 forward_v I I I I #
coedge $-1 $120 $121 $122 $123 reversed $47 $-1 #
face $-1 $-1 $124 $27 $-1 $125 forward single #
loop $-1 $126 $127 $49 #
cone-surface $-1 37.854964097025082 21.771145080189399 3.2304153121389598 0 -0.87461971476443456 -0.48480960649040278 0.25 0 0 1 I I -0.70710678118654746 0.70710678118654746 0.25 forward I I I I #
loop $-1 $-1 $128 $35 #
coedge $-1 $80 $80 $129 $130 reversed $50 $-1 #
face $-1 $131 $132 $28 $-1 $133 reversed single #
loop $-1 $-1 $134 $52 #
plane-surface $-1 14.599386663649497 -24.367906081234125 0.47029868262450947 0 -0.77714596973225614 0.62932038083071107 1 0 0 forward_v I I I I #
coedge $-1 $135 $136 $137 $138 reversed $53 $-1 #
face $-1 $-1 $139 $29 $-1 $140 forward single #
loop $-1 $141 $142 $55 #
cone-surface $-1 11.2448774691509 -21.222239085182448 2.3263657065557632 0 0.77714596973225614 -0.62932038083071107 0.25 0 0 1 I I -0.70710678118654746 0.70710678118654746 0.25 forward I I I I #
loop $-1 $-1 $143 $37 #
coedge $-1 $89 $89 $144 $145 reversed $56 $-1 #
face $-1 $-1 $146 $30 $-1 $147 forward single #
loop $-1 $148 $149 $58 #
cone-surface $-1 14.599386663649497 -21.222239085182448 2.3263657065557632 0 0.77714596973225614 -0.62932038083071107 0.25 0 0 1 I I -0.70710678118654746 0.70710678118654746 0.25 forward I I I I #
loop $-1 $-1 $150 $38 #
coedge $-1 $94 $94 $151 $152 reversed $59 $-1 #
face $-1 $-1 $153 $31 $-1 $154 forward single #
loop $-1 $155 $156 $61 #
cone-surface $-1 17.953895858148094 -21.222239085182448 2.3263657065557632 0 0.77714596973225614 -0.62932038083071107 0.25 0 0 1 I I -0.70710678118654746 0.70710678118654746 0.25 forward I I I I #
loop $-1 $-1 $157 $39 #
coedge $-1 $99 $99 $158 $159 reversed $62 $-1 #
face $-1 $160 $161 $24 $-1 $162 reversed single #
loop $-1 $-1 $163 $64 #
plane-surface $-1 0 -24.367906081234132 0 0 1 0 0 0 1 forward_v I I I I #
coedge $-1 $164 $165 $166 $167 forward $65 $-1 #
coedge $-1 $168 $67 $169 $170 forward $41 $-1 #
coedge $-1 $67 $168 $171 $172 forward $41 $-1 #
coedge $-1 $173 $174 $67 $107 reversed $175 $-1 #
edge $-1 $176 -24.367906081234132 $177 24.367906081234132 $106 $178 forward 7 unknown #
face $-1 $179 $180 $25 $-1 $181 reversed single #
loop $-1 $-1 $182 $68 #
plane-surface $-1 0 24.367906081234132 0 0 -1 0 0 0 -1 forward_v I I I I #
coedge $-1 $114 $183 $184 $185 reversed $69 $-1 #
coedge $-1 $186 $71 $187 $188 reversed $44 $-1 #
coedge $-1 $71 $186 $189 $190 reversed $44 $-1 #
coedge $-1 $191 $111 $71 $115 reversed $69 $-1 #
edge $-1 $192 -24.367906081234132 $193 24.367906081234132 $114 $194 forward 7 unknown #
face $-1 $195 $196 $26 $-1 $197 reversed single #
loop $-1 $-1 $122 $72 #
plane-surface $-1 0 0 5.7891903952139421 0 0 1 1 0 0 forward_v I I I I #
coedge $-1 $198 $199 $200 $201 reversed $73 $-1 #
coedge $-1 $121 $75 $202 $203 reversed $47 $-1 #
coedge $-1 $75 $120 $198 $204 reversed $47 $-1 #
coedge $-1 $200 $205 $75 $123 forward $117 $-1 #
edge $-1 $206 13.90608755991078 $207 15.697449109898521 $122 $208 forward 7 unknown #
loop $-1 $-1 $129 $76 #
plane-surface $-1 37.854964097025082 0.74031616475770079 45.182790624559772 0 0.87461971476443456 0.48480960649040278 1 0 0 forward_v I I I I #
loop $-1 $-1 $209 $49 #
coedge $-1 $127 $127 $128 $210 reversed $77 $-1 #
coedge $-1 $128 $128 $127 $210 forward $79 $-1 #
coedge $-1 $129 $129 $80 $130 forward $124 $-1 #
edge $-1 $211 3.3750601679248526e-016 $211 6.2831853071796004 $129 $212 forward 7 unknown #
face $-1 $213 $214 $28 $-1 $215 reversed single #
loop $-1 $-1 $216 $81 #
plane-surface $-1 9.0085380061518379 -91.727039530045005 55.016647972754392 1 0 0 0 0.77714596973225614 -0.62932038083071107 forward_v I I I I #
coedge $-1 $217 $218 $219 $220 reversed $82 $-1 #
coedge $-1 $136 $84 $221 $222 reversed $53 $-1 #
coedge $-1 $84 $135 $217 $223 reversed $53 $-1 #
coedge $-1 $219 $224 $84 $138 forward $225 $-1 #
edge $-1 $226 21.49561368378837 $227 25.802767151131597 $137 $228 forward 7 unknown #
loop $-1 $-1 $144 $85 #
plane-surface $-1 14.599386663649497 -24.367906081234125 0.47029868262450947 0 -0.77714596973225614 0.62932038083071107 1 0 0 forward_v I I I I #
loop $-1 $-1 $229 $55 #
coedge $-1 $142 $142 $143 $230 reversed $86 $-1 #
coedge $-1 $143 $143 $142 $230 forward $88 $-1 #
coedge $-1 $144 $144 $89 $145 forward $139 $-1 #
edge $-1 $231 -2.4008574128310654e-015 $231 6.2831853071795978 $144 $232 forward 7 unknown #
loop $-1 $-1 $151 $90 #
plane-surface $-1 14.599386663649497 -24.367906081234125 0.47029868262450947 0 -0.77714596973225614 0.62932038083071107 1 0 0 forward_v I I I I #
loop $-1 $-1 $233 $58 #
coedge $-1 $149 $149 $150 $234 reversed $91 $-1 #
coedge $-1 $150 $150 $149 $234 forward $93 $-1 #
coedge $-1 $151 $151 $94 $152 forward $146 $-1 #
edge $-1 $235 -2.4008574128310654e-015 $235 6.2831853071795978 $151 $236 forward 7 unknown #
loop $-1 $-1 $158 $95 #
plane-surface $-1 14.599386663649497 -24.367906081234125 0.47029868262450947 0 -0.77714596973225614 0.62932038083071107 1 0 0 forward_v I I I I #
loop $-1 $-1 $237 $61 #
coedge $-1 $156 $156 $157 $238 reversed $96 $-1 #
coedge $-1 $157 $157 $156 $238 forward $98 $-1 #
coedge $-1 $158 $158 $99 $159 forward $153 $-1 #
edge $-1 $239 -2.4008574128310654e-015 $239 6.2831853071795978 $158 $240 forward 7 unknown #
face $-1 $241 $242 $24 $-1 $243 reversed single #
loop $-1 $-1 $244 $100 #
plane-surface $-1 -43.33750419629505 0 0 1 0 0 0 0 -1 forward_v I I I I #
coedge $-1 $245 $171 $246 $247 forward $101 $-1 #
coedge $-1 $248 $103 $245 $249 forward $65 $-1 #
coedge $-1 $103 $248 $250 $251 forward $65 $-1 #
coedge $-1 $174 $173 $103 $167 reversed $175 $-1 #
edge $-1 $252 -24.367906081234132 $253 24.367906081234132 $166 $254 forward 7 unknown #
coedge $-1 $105 $104 $255 $256 forward $41 $-1 #
coedge $-1 $257 $258 $104 $170 reversed $242 $-1 #
edge $-1 $177 -43.33750419629505 $259 43.33750419629505 $169 $260 forward 7 unknown #
coedge $-1 $163 $261 $105 $172 reversed $101 $-1 #
edge $-1 $262 -43.33750419629505 $176 43.33750419629505 $171 $263 forward 7 unknown #
coedge $-1 $166 $106 $261 $264 forward $175 $-1 #
coedge $-1 $106 $166 $257 $265 reversed $175 $-1 #
loop $-1 $-1 $173 $241 #
vertex $-1 $107 $266 #
vertex $-1 $107 $267 #
straight-curve $-1 43.33750419629505 0 5.7891903952139421 0 1 0 I I #
face $-1 $268 $269 $25 $-1 $270 forward single #
loop $-1 $-1 $271 $108 #
plane-surface $-1 -43.33750419629505 0 0 1 0 0 0 0 -1 forward_v I I I I #
coedge $-1 $189 $272 $191 $273 forward $109 $-1 #
coedge $-1 $111 $191 $274 $275 reversed $69 $-1 #
coedge $-1 $276 $187 $111 $185 forward $277 $-1 #
edge $-1 $193 0.64459519760697104 $278 3.644595197606971 $184 $279 forward 7 unknown #
coedge $-1 $113 $112 $271 $280 reversed $44 $-1 #
coedge $-1 $184 $281 $112 $188 forward $277 $-1 #
edge $-1 $282 -23.309589255852746 $193 -16.746240625031863 $187 $283 forward 7 unknown #
coedge $-1 $284 $182 $113 $190 forward $109 $-1 #
edge $-1 $192 16.746240625031863 $285 23.309589255852746 $189 $286 forward 7 unknown #
coedge $-1 $183 $114 $182 $273 reversed $69 $-1 #
vertex $-1 $190 $287 #
vertex $-1 $188 $288 #
straight-curve $-1 -36.774155565474167 0 2.7891903952139421 0 -1 0 I I #
face $-1 $-1 $289 $26 $-1 $290 reversed single #
loop $-1 $-1 $291 $116 #
plane-surface $-1 43.33750419629505 0 0 -1 0 0 0 0 1 forward_v I I I I #
coedge $-1 $292 $119 $121 $204 forward $73 $-1 #
coedge $-1 $119 $292 $291 $293 reversed $73 $-1 #
coedge $-1 $294 $122 $119 $201 forward $117 $-1 #
edge $-1 $207 13.444941949242565 $295 24.410022147782517 $200 $296 forward 7 unknown #
coedge $-1 $297 $298 $120 $203 forward $289 $-1 #
edge $-1 $299 -41.044345175753165 $206 -37.812643272747927 $202 $300 forward 7 unknown #
edge $-1 $207 45.040832677726563 $299 48.735812162468278 $121 $301 forward 7 unknown #
coedge $-1 $122 $294 $297 $302 forward $117 $-1 #
vertex $-1 $203 $303 #
vertex $-1 $123 $304 #
straight-curve $-1 32.372423997755106 38.273993641144912 5.789190395213943 0 -1 0 I I #
coedge $-1 $209 $209 $-1 $305 reversed $126 $-1 #
edge $-1 $306 0 $306 6.2831853071796004 $127 $307 forward 7 unknown #
vertex $-1 $130 $308 #
ellipse-curve $-1 37.854964097025082 23.472225306240261 4.1733394437113249 0 0.87461971476443456 0.48480960649040278 0.5 0 0 1 I I #
face $-1 $-1 $225 $28 $-1 $309 forward single #
loop $-1 $-1 $310 $131 #
plane-surface $-1 0 -24.367906081234132 0 0 1 0 0 0 1 forward_v I I I I #
coedge $-1 $311 $312 $313 $314 reversed $132 $-1 #
coedge $-1 $315 $134 $136 $223 forward $82 $-1 #
coedge $-1 $134 $315 $311 $316 forward $82 $-1 #
coedge $-1 $313 $137 $134 $220 forward $225 $-1 #
edge $-1 $227 -12.890541989322408 $317 -1.7088446743270893 $219 $318 forward 7 unknown #
coedge $-1 $319 $320 $135 $222 forward $214 $-1 #
edge $-1 $321 -27.038025303752693 $226 -21.719133591163253 $221 $322 forward 7 unknown #
edge $-1 $227 -6.844134718245928 $321 1.1287752508472441e-014 $136 $323 forward 7 unknown #
coedge $-1 $137 $313 $319 $324 forward $225 $-1 #
loop $-1 $-1 $313 $213 #
vertex $-1 $222 $325 #
vertex $-1 $138 $326 #
straight-curve $-1 20.190235321147156 -45.863519765022502 5.789190395213943 0 1 0 I I #
coedge $-1 $229 $229 $-1 $327 reversed $141 $-1 #
edge $-1 $328 0 $328 6.2831853071796004 $142 $329 forward 7 unknown #
vertex $-1 $145 $330 #
ellipse-curve $-1 11.2448774691509 -22.214329347562519 3.1297445389192204 0 -0.77714596973225614 0.62932038083071107 0.5 0 0 1 I I #
coedge $-1 $233 $233 $-1 $331 reversed $148 $-1 #
edge $-1 $332 0 $332 6.2831853071796004 $149 $333 forward 7 unknown #
vertex $-1 $152 $334 #
ellipse-curve $-1 14.599386663649497 -22.214329347562519 3.1297445389192204 0 -0.77714596973225614 0.62932038083071107 0.5 0 0 1 I I #
coedge $-1 $237 $237 $-1 $335 reversed $155 $-1 #
edge $-1 $336 0 $336 6.2831853071796004 $156 $337 forward 7 unknown #
vertex $-1 $159 $338 #
ellipse-curve $-1 17.953895858148094 -22.214329347562519 3.1297445389192204 0 -0.77714596973225614 0.62932038083071107 0.5 0 0 1 I I #
face $-1 $-1 $175 $24 $-1 $339 reversed single #
loop $-1 $-1 $257 $160 #
plane-surface $-1 0 24.367906081234132 0 0 -1 0 0 0 -1 forward_v I I I I #
coedge $-1 $340 $255 $258 $341 forward $161 $-1 #
coedge $-1 $261 $163 $164 $249 reversed $101 $-1 #
coedge $-1 $255 $340 $163 $247 reversed $161 $-1 #
edge $-1 $262 -5.7891903952139421 $342 5.7891903952139421 $246 $343 forward 7 unknown #
coedge $-1 $165 $164 $340 $344 forward $65 $-1 #
edge $-1 $253 -43.33750419629505 $342 43.33750419629505 $245 $345 forward 7 unknown #
coedge $-1 $258 $257 $165 $251 reversed $242 $-1 #
edge $-1 $346 -43.33750419629505 $252 43.33750419629505 $250 $347 forward 7 unknown #
vertex $-1 $167 $348 #
vertex $-1 $264 $349 #
straight-curve $-1 43.33750419629505 0 -5.7891903952139421 0 -1 0 I I #
coedge $-1 $244 $246 $168 $256 reversed $161 $-1 #
edge $-1 $259 -24.367906081234132 $262 24.367906081234132 $255 $350 forward 7 unknown #
coedge $-1 $250 $169 $174 $265 forward $242 $-1 #
coedge $-1 $169 $250 $244 $341 reversed $242 $-1 #
vertex $-1 $170 $351 #
straight-curve $-1 0 24.367906081234132 5.7891903952139421 -1 0 0 I I #
coedge $-1 $171 $245 $173 $264 reversed $101 $-1 #
vertex $-1 $256 $352 #
straight-curve $-1 0 -24.367906081234132 5.7891903952139421 1 0 0 I I #
edge $-1 $176 -5.7891903952139421 $253 5.7891903952139421 $173 $353 forward 7 unknown #
edge $-1 $177 -5.7891903952139421 $252 5.7891903952139421 $174 $354 forward 7 unknown #
point $-1 43.33750419629505 -24.367906081234132 5.7891903952139421 #
point $-1 43.33750419629505 24.367906081234132 5.7891903952139421 #
face $-1 $-1 $277 $25 $-1 $355 reversed single #
loop $-1 $-1 $274 $179 #
plane-surface $-1 0 0 5.7891903952139421 0 0 1 1 0 0 forward_v I I I I #
coedge $-1 $356 $357 $186 $280 forward $180 $-1 #
coedge $-1 $182 $284 $358 $359 reversed $109 $-1 #
edge $-1 $360 -3.644595197606971 $192 -0.64459519760697104 $182 $361 forward 7 unknown #
coedge $-1 $358 $362 $183 $275 forward $269 $-1 #
edge $-1 $278 -24.367906081234132 $360 24.367906081234132 $274 $363 forward 7 unknown #
coedge $-1 $281 $184 $362 $364 reversed $277 $-1 #
loop $-1 $-1 $184 $268 #
vertex $-1 $185 $365 #
straight-curve $-1 -36.774155565474167 -24.367906081234132 2.144595197606971 0 0 1 I I #
edge $-1 $285 -24.367906081234132 $282 24.367906081234132 $271 $366 forward 7 unknown #
coedge $-1 $187 $276 $356 $367 forward $277 $-1 #
vertex $-1 $280 $368 #
straight-curve $-1 -20.027914940442304 -24.367906081234132 2.7891903952139421 1 0 0 I I #
coedge $-1 $272 $189 $357 $369 reversed $109 $-1 #
vertex $-1 $280 $370 #
straight-curve $-1 -20.027914940442304 24.367906081234132 2.7891903952139421 -1 0 0 I I #
point $-1 -36.774155565474167 24.367906081234132 2.7891903952139421 #
point $-1 -36.774155565474167 -24.367906081234132 2.7891903952139421 #
loop $-1 $-1 $202 $195 #
plane-surface $-1 0 24.367906081234132 0 0 -1 0 0 0 -1 forward_v I I I I #
coedge $-1 $371 $372 $199 $293 forward $196 $-1 #
coedge $-1 $199 $198 $298 $373 reversed $73 $-1 #
edge $-1 $295 25.46140914782708 $374 29.156388632568792 $291 $375 forward 7 unknown #
coedge $-1 $205 $200 $372 $376 forward $117 $-1 #
vertex $-1 $376 $377 #
straight-curve $-1 18.927482048512541 22.576544531246391 5.7891903952139465 1 0 0 I I #
coedge $-1 $378 $202 $205 $302 reversed $289 $-1 #
coedge $-1 $202 $378 $292 $373 forward $289 $-1 #
vertex $-1 $203 $379 #
straight-curve $-1 32.372423997755106 24.367906081234132 43.60183366796187 0 0 1 I I #
straight-curve $-1 32.372423997755106 0.74031616475770079 45.182790624559772 0 0.48480960649040278 -0.87461971476443456 I I #
edge $-1 $380 -43.33750419629505 $206 -32.372423997755106 $297 $381 forward 7 unknown #
point $-1 32.372423997755106 24.367906081234132 5.7891903952139421 #
point $-1 32.372423997755106 22.576544531246391 5.789190395213943 #
edge $-1 $382 1 $382 0 $209 $-1 forward 7 unknown #
vertex $-1 $210 $383 #
ellipse-curve $-1 37.854964097025082 21.989800008880508 3.3516177137615606 0 0.87461971476443456 0.48480960649040278 0.5 0 0 1 I I #
point $-1 38.354964097025082 23.472225306240265 4.1733394437113267 #
plane-surface $-1 0 0 5.7891903952139421 0 0 1 1 0 0 forward_v I I I I #
coedge $-1 $320 $319 $312 $384 forward $214 $-1 #
coedge $-1 $312 $216 $218 $316 reversed $132 $-1 #
coedge $-1 $216 $311 $310 $384 reversed $132 $-1 #
coedge $-1 $224 $219 $216 $314 forward $225 $-1 #
edge $-1 $317 -25.802767151131597 $385 -21.49561368378837 $313 $386 forward 7 unknown #
coedge $-1 $218 $217 $320 $387 reversed $82 $-1 #
edge $-1 $388 -1.1287752508472441e-014 $317 6.844134718245928 $311 $389 forward 7 unknown #
vertex $-1 $220 $390 #
straight-curve $-1 7.2996933318247486 -20.060752613890905 5.7891903952139421 -1 0 0 I I #
coedge $-1 $310 $221 $224 $324 reversed $214 $-1 #
coedge $-1 $221 $310 $315 $387 forward $214 $-1 #
vertex $-1 $222 $391 #
straight-curve $-1 20.190235321147156 -24.367906081234132 27.508323986377196 0 0 1 I I #
straight-curve $-1 20.190235321147156 -24.367906081234125 0.47029868262450947 0 -0.62932038083071107 -0.77714596973225614 I I #
edge $-1 $385 9.0085380061518379 $226 20.190235321147156 $319 $392 forward 7 unknown #
point $-1 20.190235321147156 -24.367906081234132 5.7891903952139421 #
point $-1 20.190235321147156 -20.060752613890905 5.7891903952139421 #
edge $-1 $393 1 $393 0 $229 $-1 forward 7 unknown #
vertex $-1 $230 $394 #
ellipse-curve $-1 11.2448774691509 -21.416525577615513 2.483695801763441 0 -0.77714596973225614 0.62932038083071107 0.5 0 0 1 I I #
point $-1 11.7448774691509 -22.214329347562522 3.1297445389192218 #
edge $-1 $395 1 $395 0 $233 $-1 forward 7 unknown #
vertex $-1 $234 $396 #
ellipse-curve $-1 14.599386663649497 -21.416525577615513 2.483695801763441 0 -0.77714596973225614 0.62932038083071107 0.5 0 0 1 I I #
point $-1 15.099386663649497 -22.214329347562522 3.1297445389192218 #
edge $-1 $397 1 $397 0 $237 $-1 forward 7 unknown #
vertex $-1 $238 $398 #
ellipse-curve $-1 17.953895858148094 -21.416525577615513 2.483695801763441 0 -0.77714596973225614 0.62932038083071107 0.5 0 0 1 I I #
point $-1 18.453895858148094 -22.214329347562522 3.1297445389192218 #
plane-surface $-1 43.33750419629505 0 0 -1 0 0 0 0 1 forward_v I I I I #
coedge $-1 $246 $244 $248 $344 reversed $161 $-1 #
edge $-1 $259 -5.7891903952139421 $346 5.7891903952139421 $258 $399 forward 7 unknown #
vertex $-1 $344 $400 #
straight-curve $-1 -43.33750419629505 -24.367906081234132 0 0 0 -1 I I #
edge $-1 $342 -24.367906081234132 $346 24.367906081234132 $340 $401 forward 7 unknown #
straight-curve $-1 0 -24.367906081234132 -5.7891903952139421 -1 0 0 I I #
vertex $-1 $251 $402 #
straight-curve $-1 0 24.367906081234132 -5.7891903952139421 1 0 0 I I #
point $-1 43.33750419629505 24.367906081234132 -5.7891903952139421 #
point $-1 43.33750419629505 -24.367906081234132 -5.7891903952139421 #
straight-curve $-1 -43.33750419629505 0 5.7891903952139421 0 -1 0 I I #
point $-1 -43.33750419629505 24.367906081234132 5.7891903952139421 #
point $-1 -43.33750419629505 -24.367906081234132 5.7891903952139421 #
straight-curve $-1 43.33750419629505 -24.367906081234132 0 0 0 -1 I I #
straight-curve $-1 43.33750419629505 24.367906081234132 0 0 0 -1 I I #
plane-surface $-1 0 -24.367906081234132 0 0 1 0 0 0 1 forward_v I I I I #
coedge $-1 $403 $271 $281 $367 reversed $180 $-1 #
coedge $-1 $271 $403 $284 $369 forward $180 $-1 #
coedge $-1 $404 $274 $272 $359 forward $269 $-1 #
edge $-1 $360 36.774155565474167 $405 43.33750419629505 $272 $406 forward 7 unknown #
vertex $-1 $359 $407 #
straight-curve $-1 -36.774155565474167 24.367906081234132 2.144595197606971 0 0 -1 I I #
coedge $-1 $274 $404 $276 $364 forward $269 $-1 #
straight-curve $-1 -36.774155565474167 0 5.7891903952139421 0 1 0 I I #
edge $-1 $408 -43.33750419629505 $278 -36.774155565474167 $276 $409 forward 7 unknown #
point $-1 -36.774155565474167 -24.367906081234132 5.7891903952139421 #
straight-curve $-1 -43.33750419629505 0 2.7891903952139421 0 -1 0 I I #
edge $-1 $408 -5.7891903952139421 $282 -2.7891903952139421 $356 $410 forward 7 unknown #
point $-1 -43.33750419629505 -24.367906081234132 2.7891903952139421 #
edge $-1 $405 -5.7891903952139421 $285 -2.7891903952139421 $284 $411 forward 7 unknown #
point $-1 -43.33750419629505 24.367906081234132 2.7891903952139421 #
coedge $-1 $372 $291 $378 $412 reversed $196 $-1 #
coedge $-1 $291 $371 $294 $376 reversed $196 $-1 #
edge $-1 $374 -24.410022147782517 $299 -13.444941949242565 $298 $413 forward 7 unknown #
vertex $-1 $293 $414 #
straight-curve $-1 43.33750419629505 10.232608781597204 28.058240801587026 0 0.48480960649040278 -0.87461971476443456 I I #
edge $-1 $295 22.576544531246391 $380 24.367906081234132 $372 $415 forward 7 unknown #
point $-1 43.337504196295058 22.576544531246391 5.789190395213943 #
coedge $-1 $298 $297 $371 $412 forward $289 $-1 #
point $-1 32.372423997755106 24.367906081234132 2.5574884922087051 #
vertex $-1 $376 $416 #
straight-curve $-1 0 24.367906081234132 5.7891903952139421 -1 0 0 I I #
vertex $-1 $305 $417 #
point $-1 38.354964097025082 21.989800008880508 3.3516177137615606 #
edge $-1 $385 21.719133591163253 $388 27.038025303752693 $310 $418 forward 7 unknown #
vertex $-1 $324 $419 #
straight-curve $-1 9.0085380061518379 -45.863519765022502 5.789190395213943 0 -1 0 I I #
edge $-1 $388 1.7088446743270893 $321 12.890541989322408 $320 $420 forward 7 unknown #
vertex $-1 $387 $421 #
straight-curve $-1 9.0085380061518379 -24.367906081234125 0.47029868262450947 0 0.62932038083071107 0.77714596973225614 I I #
point $-1 9.0085380061518379 -20.060752613890905 5.7891903952139421 #
point $-1 20.190235321147156 -24.367906081234132 0.4702986826245007 #
straight-curve $-1 0 -24.367906081234132 5.7891903952139421 1 0 0 I I #
vertex $-1 $327 $422 #
point $-1 11.7448774691509 -21.416525577615513 2.483695801763441 #
vertex $-1 $331 $423 #
point $-1 15.099386663649497 -21.416525577615513 2.483695801763441 #
vertex $-1 $335 $424 #
point $-1 18.453895858148094 -21.416525577615513 2.483695801763441 #
straight-curve $-1 -43.33750419629505 24.367906081234132 0 0 0 -1 I I #
point $-1 -43.33750419629505 -24.367906081234132 -5.7891903952139421 #
straight-curve $-1 -43.33750419629505 0 -5.7891903952139421 0 1 0 I I #
point $-1 -43.33750419629505 24.367906081234132 -5.7891903952139421 #
coedge $-1 $357 $356 $404 $425 reversed $180 $-1 #
coedge $-1 $362 $358 $403 $425 forward $269 $-1 #
vertex $-1 $359 $426 #
straight-curve $-1 0 24.367906081234132 5.7891903952139421 -1 0 0 I I #
point $-1 -36.774155565474167 24.367906081234132 5.7891903952139421 #
vertex $-1 $425 $427 #
straight-curve $-1 0 -24.367906081234132 5.7891903952139421 1 0 0 I I #
straight-curve $-1 -43.33750419629505 -24.367906081234132 0 0 0 -1 I I #
straight-curve $-1 -43.33750419629505 24.367906081234132 0 0 0 -1 I I #
edge $-1 $380 -5.7891903952139421 $374 -2.5574884922087051 $371 $428 forward 7 unknown #
straight-curve $-1 18.927482048512541 24.367906081234132 2.5574884922087051 -1 0 0 I I #
point $-1 43.337504196295058 24.367906081234132 2.5574884922087051 #
straight-curve $-1 43.33750419629505 0 5.7891903952139421 0 1 0 I I #
point $-1 43.33750419629505 24.367906081234132 5.7891903952139421 #
point $-1 37.854964097025082 21.55249015149829 3.1092129105163591 #
straight-curve $-1 9.0085380061518379 -24.367906081234132 27.508323986377196 0 0 -1 I I #
point $-1 9.0085380061518379 -24.367906081234132 5.7891903952139421 #
straight-curve $-1 7.2996933318247486 -24.367906081234132 0.47029868262449914 1 0 0 I I #
point $-1 9.0085380061518379 -24.367906081234132 0.4702986826245007 #
point $-1 11.2448774691509 -21.027952592749383 2.1690356113480855 #
point $-1 14.599386663649497 -21.027952592749383 2.1690356113480855 #
point $-1 17.953895858148094 -21.027952592749383 2.1690356113480855 #
edge $-1 $405 -24.367906081234132 $408 24.367906081234132 $403 $429 forward 7 unknown #
point $-1 -43.33750419629505 24.367906081234132 5.7891903952139421 #
point $-1 -43.33750419629505 -24.367906081234132 5.7891903952139421 #
straight-curve $-1 43.33750419629505 24.367906081234132 0 0 0 -1 I I #
straight-curve $-1 -43.33750419629505 0 5.7891903952139421 0 -1 0 I I #
End-of-ACIS-data 