500 0 8 0           
7 Unknown 11 ACIS 5.0 NT 24 Thu Mar 25 19:58:06 1999 
-1 9.9999999999999995e-007 1e-010 
body $-1 $8 $-1 $9 #
body $-1 $10 $-1 $11 #
body $-1 $12 $-1 $13 #
body $-1 $14 $-1 $15 #
body $-1 $16 $-1 $17 #
body $-1 $18 $-1 $19 #
body $-1 $20 $-1 $21 #
body $-1 $22 $-1 $23 #
lump $-1 $-1 $24 $0 #
transform $-1 1 0 0 0 1 0 0 0 1 48.196050904873807 29.683807578244842 11.601570181327263 1 rotate no_reflect no_shear #
lump $-1 $-1 $25 $1 #
transform $-1 1 0 0 0 1 0 0 0 1 48.196050904873807 29.683807578244842 11.601570181327263 1 rotate no_reflect no_shear #
lump $-1 $-1 $26 $2 #
transform $-1 1 0 0 0 1 0 0 0 1 48.196050904873807 29.683807578244842 11.601570181327263 1 rotate no_reflect no_shear #
lump $-1 $-1 $27 $3 #
transform $-1 1 0 0 0 1 0 0 0 1 48.196050904873807 29.683807578244842 11.601570181327263 1 rotate no_reflect no_shear #
lump $-1 $-1 $28 $4 #
transform $-1 1 0 0 0 1 0 0 0 1 48.196050904873807 29.683807578244842 11.601570181327263 1 rotate no_reflect no_shear #
lump $-1 $-1 $29 $5 #
transform $-1 1 0 0 0 1 0 0 0 1 48.196050904873807 29.683807578244842 11.601570181327263 1 rotate no_reflect no_shear #
lump $-1 $-1 $30 $6 #
transform $-1 1 0 0 0 1 0 0 0 1 48.196050904873807 29.683807578244842 11.601570181327263 1 rotate no_reflect no_shear #
lump $-1 $-1 $31 $7 #
transform $-1 1 0 0 0 1 0 0 0 1 48.196050904873807 29.683807578244842 11.601570181327263 1 rotate no_reflect no_shear #
shell $-1 $-1 $-1 $32 $-1 $8 #
shell $-1 $-1 $-1 $33 $-1 $10 #
shell $-1 $-1 $-1 $34 $-1 $12 #
shell $-1 $-1 $-1 $35 $-1 $14 #
shell $-1 $-1 $-1 $36 $-1 $16 #
shell $-1 $-1 $-1 $37 $-1 $18 #
shell $-1 $-1 $-1 $38 $-1 $20 #
shell $-1 $-1 $-1 $39 $-1 $22 #
face $-1 $40 $41 $24 $-1 $42 forward single #
face $-1 $43 $44 $25 $-1 $45 reversed single #
face $-1 $46 $47 $26 $-1 $48 reversed single #
face $-1 $49 $50 $27 $-1 $51 forward single #
face $-1 $52 $53 $28 $-1 $54 reversed single #
face $-1 $55 $56 $29 $-1 $57 forward single #
face $-1 $58 $59 $30 $-1 $60 reversed single #
face $-1 $61 $62 $31 $-1 $63 forward single #
face $-1 $64 $65 $24 $-1 $66 reversed single #
loop $-1 $-1 $67 $32 #
plane-surface $-1 0 0 11.601570181327263 0 0 1 1 0 0 forward_v I I I I #
face $-1 $68 $69 $25 $-1 $70 reversed single #
loop $-1 $-1 $71 $33 #
plane-surface $-1 -44.280369606901736 0 7.1347868598883633 0 0 1 1 0 0 forward_v I I I I #
face $-1 $72 $73 $26 $-1 $74 reversed single #
loop $-1 $-1 $75 $34 #
plane-surface $-1 43.675309901853431 -29.683807578244839 7.5310662230933048 0 -0.69465837861970381 0.71933979245794832 1 0 0 forward_v I I I I #
face $-1 $76 $77 $27 $-1 $78 forward single #
loop $-1 $79 $80 $35 #
cone-surface $-1 43.675309901853431 -26.830269676215323 8.7938407417435229 0 0.69465837861970381 -0.71933979245794832 1 0 0 1 I I 0 1 1 forward I I I I #
face $-1 $81 $82 $28 $-1 $83 reversed single #
loop $-1 $-1 $84 $36 #
plane-surface $-1 -18.306650124653764 79.968904576284913 109.61868302736974 1 0 0 0 -0.84804810408105047 -0.52991925155115449 forward_v I I I I #
face $-1 $85 $86 $29 $-1 $87 forward single #
loop $-1 $88 $89 $37 #
cone-surface $-1 -11.705000672914025 27.524936595320238 9.2134440887537892 0 -0.84804810408105047 -0.52991925155115449 1 0 0 1 I I 0 1 1 forward I I I I #
face $-1 $90 $91 $30 $-1 $92 reversed single #
loop $-1 $-1 $93 $38 #
plane-surface $-1 25.973719482247972 79.968904576284913 109.61868302736974 1 0 0 0 -0.84804810408105047 -0.52991925155115449 forward_v I I I I #
face $-1 $94 $95 $31 $-1 $96 forward single #
loop $-1 $97 $98 $39 #
cone-surface $-1 32.575368933987711 27.524936595320238 9.2134440887537892 0 -0.84804810408105047 -0.52991925155115449 1 0 0 1 I I 0 1 1 forward I I I I #
face $-1 $99 $100 $24 $-1 $101 reversed single #
loop $-1 $-1 $102 $40 #
plane-surface $-1 0 0 -11.601570181327263 0 0 1 1 0 0 forward_v I I I I #
coedge $-1 $103 $104 $105 $106 forward $41 $-1 #
face $-1 $107 $108 $25 $-1 $109 reversed single #
loop $-1 $-1 $110 $43 #
plane-surface $-1 -40.364688308929665 0 9.368178520607815 -1 0 0 0 0 1 forward_v I I I I #
coedge $-1 $111 $112 $113 $114 forward $44 $-1 #
face $-1 $115 $116 $26 $-1 $117 reversed single #
loop $-1 $-1 $118 $46 #
plane-surface $-1 39.154568898833062 -96.643388733149521 76.869740733502567 1 0 0 0 0.69465837861970381 -0.71933979245794832 forward_v I I I I #
coedge $-1 $119 $120 $121 $122 reversed $47 $-1 #
face $-1 $-1 $123 $27 $-1 $124 forward single #
loop $-1 $125 $126 $49 #
cone-surface $-1 43.675309901853431 -25.736967657605234 7.661693385047796 0 0.69465837861970381 -0.71933979245794832 0.5 0 0 1 I I -0.70710678118654746 0.70710678118654746 0.5 forward I I I I #
loop $-1 $-1 $127 $35 #
coedge $-1 $80 $80 $128 $129 reversed $50 $-1 #
face $-1 $130 $131 $28 $-1 $132 reversed single #
loop $-1 $-1 $133 $52 #
plane-surface $-1 -11.705000672914025 -1.7762346118591523 58.538652580905598 0 0.84804810408105047 0.52991925155115449 1 0 0 forward_v I I I I #
coedge $-1 $134 $135 $136 $137 reversed $53 $-1 #
face $-1 $-1 $138 $29 $-1 $139 forward single #
loop $-1 $140 $141 $55 #
cone-surface $-1 -11.705000672914025 26.007291013631079 8.2651139092528236 0 -0.84804810408105047 -0.52991925155115449 0.5 0 0 1 I I -0.70710678118654746 0.70710678118654746 0.5 forward I I I I #
loop $-1 $-1 $142 $37 #
coedge $-1 $89 $89 $143 $144 reversed $56 $-1 #
face $-1 $145 $146 $30 $-1 $147 reversed single #
loop $-1 $-1 $148 $58 #
plane-surface $-1 32.575368933987711 -1.7762346118591523 58.538652580905598 0 0.84804810408105047 0.52991925155115449 1 0 0 forward_v I I I I #
coedge $-1 $149 $150 $151 $152 reversed $59 $-1 #
face $-1 $-1 $153 $31 $-1 $154 forward single #
loop $-1 $155 $156 $61 #
cone-surface $-1 32.575368933987711 26.007291013631079 8.2651139092528236 0 -0.84804810408105047 -0.52991925155115449 0.5 0 0 1 I I -0.70710678118654746 0.70710678118654746 0.5 forward I I I I #
loop $-1 $-1 $157 $39 #
coedge $-1 $98 $98 $158 $159 reversed $62 $-1 #
face $-1 $160 $161 $24 $-1 $162 reversed single #
loop $-1 $-1 $163 $64 #
plane-surface $-1 0 -29.683807578244842 0 0 1 0 0 0 1 forward_v I I I I #
coedge $-1 $164 $165 $166 $167 forward $65 $-1 #
coedge $-1 $168 $67 $169 $170 forward $41 $-1 #
coedge $-1 $67 $168 $171 $172 forward $41 $-1 #
coedge $-1 $173 $174 $67 $106 reversed $175 $-1 #
edge $-1 $176 -29.683807578244842 $177 29.683807578244842 $105 $178 forward 7 unknown #
face $-1 $179 $180 $25 $-1 $181 reversed single #
loop $-1 $-1 $182 $68 #
plane-surface $-1 0 29.683807578244842 0 0 -1 0 0 0 -1 forward_v I I I I #
coedge $-1 $113 $183 $184 $185 reversed $69 $-1 #
coedge $-1 $186 $71 $187 $188 reversed $44 $-1 #
coedge $-1 $71 $186 $189 $190 reversed $44 $-1 #
coedge $-1 $191 $110 $71 $114 reversed $69 $-1 #
edge $-1 $192 -29.683807578244842 $193 29.683807578244842 $113 $194 forward 7 unknown #
face $-1 $195 $196 $26 $-1 $197 forward single #
loop $-1 $-1 $198 $72 #
plane-surface $-1 48.196050904873807 0 0 -1 0 0 0 0 1 forward_v I I I I #
coedge $-1 $199 $200 $201 $202 reversed $73 $-1 #
coedge $-1 $203 $75 $198 $204 reversed $47 $-1 #
coedge $-1 $75 $203 $199 $205 forward $47 $-1 #
coedge $-1 $201 $206 $75 $122 forward $196 $-1 #
edge $-1 $207 -26.358395953947085 $208 -17.316913947906347 $121 $209 forward 7 unknown #
loop $-1 $-1 $128 $76 #
plane-surface $-1 43.675309901853431 -29.683807578244839 7.5310662230933048 0 -0.69465837861970381 0.71933979245794832 1 0 0 forward_v I I I I #
loop $-1 $-1 $210 $49 #
coedge $-1 $126 $126 $127 $211 reversed $77 $-1 #
coedge $-1 $127 $127 $126 $211 forward $79 $-1 #
coedge $-1 $128 $128 $80 $129 forward $123 $-1 #
edge $-1 $212 1.7537199311053519e-016 $212 6.2831853071796004 $128 $213 forward 7 unknown #
face $-1 $214 $215 $28 $-1 $216 reversed single #
loop $-1 $-1 $217 $81 #
plane-surface $-1 -5.103351221174286 79.968904576284913 109.61868302736974 -1 0 0 0 0.84804810408105047 0.52991925155115449 forward_v I I I I #
coedge $-1 $218 $219 $220 $221 reversed $82 $-1 #
coedge $-1 $135 $84 $222 $223 reversed $53 $-1 #
coedge $-1 $84 $134 $218 $224 reversed $53 $-1 #
coedge $-1 $220 $225 $84 $137 forward $226 $-1 #
edge $-1 $227 10.300644709897615 $228 12.431143616449564 $136 $229 forward 7 unknown #
loop $-1 $-1 $143 $85 #
plane-surface $-1 -11.705000672914025 -1.7762346118591523 58.538652580905598 0 0.84804810408105047 0.52991925155115449 1 0 0 forward_v I I I I #
loop $-1 $-1 $230 $55 #
coedge $-1 $141 $141 $142 $231 reversed $86 $-1 #
coedge $-1 $142 $142 $141 $231 forward $88 $-1 #
coedge $-1 $143 $143 $89 $144 forward $138 $-1 #
edge $-1 $232 -7.5400540218334812e-016 $232 6.2831853071795996 $143 $233 forward 7 unknown #
face $-1 $234 $235 $30 $-1 $236 forward single #
loop $-1 $-1 $237 $90 #
plane-surface $-1 39.17701838572745 79.968904576284913 109.61868302736974 -1 0 0 0 0.84804810408105047 0.52991925155115449 forward_v I I I I #
coedge $-1 $238 $239 $240 $241 reversed $91 $-1 #
coedge $-1 $150 $93 $242 $243 reversed $59 $-1 #
coedge $-1 $93 $149 $238 $244 reversed $59 $-1 #
coedge $-1 $240 $245 $93 $152 forward $235 $-1 #
edge $-1 $246 10.300644709897615 $247 12.431143616449564 $151 $248 forward 7 unknown #
loop $-1 $-1 $158 $94 #
plane-surface $-1 32.575368933987711 -1.7762346118591523 58.538652580905598 0 0.84804810408105047 0.52991925155115449 1 0 0 forward_v I I I I #
loop $-1 $-1 $249 $61 #
coedge $-1 $156 $156 $157 $250 reversed $95 $-1 #
coedge $-1 $157 $157 $156 $250 forward $97 $-1 #
coedge $-1 $158 $158 $98 $159 forward $153 $-1 #
edge $-1 $251 -7.5400540218334812e-016 $251 6.2831853071795996 $158 $252 forward 7 unknown #
face $-1 $253 $254 $24 $-1 $255 reversed single #
loop $-1 $-1 $256 $99 #
plane-surface $-1 -48.196050904873807 0 0 1 0 0 0 0 -1 forward_v I I I I #
coedge $-1 $257 $171 $258 $259 forward $100 $-1 #
coedge $-1 $260 $102 $257 $261 forward $65 $-1 #
coedge $-1 $102 $260 $262 $263 forward $65 $-1 #
coedge $-1 $174 $173 $102 $167 reversed $175 $-1 #
edge $-1 $264 -29.683807578244842 $265 29.683807578244842 $166 $266 forward 7 unknown #
coedge $-1 $104 $103 $267 $268 forward $41 $-1 #
coedge $-1 $269 $270 $103 $170 reversed $254 $-1 #
edge $-1 $177 -48.196050904873807 $271 48.196050904873807 $169 $272 forward 7 unknown #
coedge $-1 $163 $273 $104 $172 reversed $100 $-1 #
edge $-1 $274 -48.196050904873807 $176 48.196050904873807 $171 $275 forward 7 unknown #
coedge $-1 $166 $105 $273 $276 forward $175 $-1 #
coedge $-1 $105 $166 $269 $277 reversed $175 $-1 #
loop $-1 $-1 $173 $253 #
vertex $-1 $106 $278 #
vertex $-1 $106 $279 #
straight-curve $-1 48.196050904873807 0 11.601570181327263 0 1 0 I I #
face $-1 $280 $281 $25 $-1 $282 forward single #
loop $-1 $-1 $283 $107 #
plane-surface $-1 -48.196050904873807 0 0 1 0 0 0 0 -1 forward_v I I I I #
coedge $-1 $189 $284 $191 $285 forward $108 $-1 #
coedge $-1 $110 $191 $286 $287 reversed $69 $-1 #
coedge $-1 $288 $187 $110 $185 forward $289 $-1 #
edge $-1 $193 2.4506975995844558 $290 6.9174809210233592 $184 $291 forward 7 unknown #
coedge $-1 $112 $111 $283 $292 reversed $44 $-1 #
coedge $-1 $184 $293 $111 $188 forward $289 $-1 #
edge $-1 $294 -26.055866101422939 $193 -18.224503505478797 $187 $295 forward 7 unknown #
coedge $-1 $296 $182 $112 $190 forward $108 $-1 #
edge $-1 $192 18.224503505478797 $297 26.055866101422939 $189 $298 forward 7 unknown #
coedge $-1 $183 $113 $182 $285 reversed $69 $-1 #
vertex $-1 $190 $299 #
vertex $-1 $188 $300 #
straight-curve $-1 -40.364688308929665 0 7.1347868598883633 0 -1 0 I I #
face $-1 $-1 $301 $26 $-1 $302 reversed single #
loop $-1 $-1 $121 $115 #
plane-surface $-1 0 0 11.601570181327263 0 0 1 1 0 0 forward_v I I I I #
coedge $-1 $303 $304 $119 $204 forward $116 $-1 #
coedge $-1 $200 $118 $120 $205 reversed $73 $-1 #
coedge $-1 $118 $199 $305 $306 reversed $73 $-1 #
coedge $-1 $307 $121 $118 $202 forward $196 $-1 #
edge $-1 $208 -22.853016933788474 $308 -18.637886788329919 $201 $309 forward 7 unknown #
coedge $-1 $120 $119 $310 $311 reversed $47 $-1 #
edge $-1 $312 -8.0606128654423568 $207 -2.2008923416330672 $198 $313 forward 7 unknown #
edge $-1 $314 -5.0235306441864656e-015 $208 5.8597205238092842 $199 $315 forward 7 unknown #
coedge $-1 $121 $307 $303 $316 forward $196 $-1 #
vertex $-1 $122 $317 #
vertex $-1 $122 $318 #
straight-curve $-1 21.837654950926716 -25.468677432786286 11.601570181327263 -1 0 0 I I #
coedge $-1 $210 $210 $-1 $319 reversed $125 $-1 #
edge $-1 $320 0 $320 6.2831853071796004 $126 $321 forward 7 unknown #
vertex $-1 $129 $322 #
ellipse-curve $-1 43.675309901853431 -27.576242505515566 9.5663182022102813 0 -0.69465837861970381 0.71933979245794832 1 0 0 1 I I #
face $-1 $-1 $226 $28 $-1 $323 forward single #
loop $-1 $-1 $324 $130 #
plane-surface $-1 0 29.683807578244842 0 0 -1 0 0 0 -1 forward_v I I I I #
coedge $-1 $325 $326 $327 $328 reversed $131 $-1 #
coedge $-1 $329 $133 $135 $224 forward $82 $-1 #
coedge $-1 $133 $329 $325 $330 forward $82 $-1 #
coedge $-1 $327 $136 $133 $221 forward $226 $-1 #
edge $-1 $228 -12.454149788196752 $331 0.74914911528272654 $220 $332 forward 7 unknown #
coedge $-1 $333 $334 $134 $223 forward $215 $-1 #
edge $-1 $335 -46.617282410053789 $227 -43.207771332357609 $222 $336 forward 7 unknown #
edge $-1 $228 55.347193365215539 $335 59.367615156489691 $135 $337 forward 7 unknown #
coedge $-1 $136 $327 $333 $338 forward $226 $-1 #
loop $-1 $-1 $327 $214 #
vertex $-1 $223 $339 #
vertex $-1 $137 $340 #
straight-curve $-1 -18.306650124653764 39.984452288142457 11.601570181327261 0 -1 0 I I #
coedge $-1 $230 $230 $-1 $341 reversed $140 $-1 #
edge $-1 $342 0 $342 6.2831853071796004 $141 $343 forward 7 unknown #
vertex $-1 $144 $344 #
ellipse-curve $-1 -11.705000672914025 28.618558124968867 9.896814642479173 0 0.84804810408105047 0.52991925155115449 1 0 0 1 I I #
face $-1 $-1 $345 $30 $-1 $346 reversed single #
loop $-1 $-1 $151 $145 #
plane-surface $-1 0 0 11.601570181327263 0 0 1 1 0 0 forward_v I I I I #
coedge $-1 $347 $348 $349 $350 reversed $146 $-1 #
coedge $-1 $351 $148 $150 $244 forward $91 $-1 #
coedge $-1 $148 $351 $347 $352 forward $91 $-1 #
coedge $-1 $349 $151 $148 $241 forward $235 $-1 #
edge $-1 $247 9.6860350152541166 $353 22.889333918733595 $240 $354 forward 7 unknown #
coedge $-1 $355 $356 $149 $243 forward $345 $-1 #
edge $-1 $357 -46.617282410053789 $246 -43.207771332357609 $242 $358 forward 7 unknown #
edge $-1 $247 55.347193365215539 $357 59.367615156489691 $150 $359 forward 7 unknown #
coedge $-1 $151 $349 $355 $360 forward $235 $-1 #
vertex $-1 $243 $361 #
vertex $-1 $152 $362 #
straight-curve $-1 25.973719482247972 39.984452288142457 11.601570181327261 0 -1 0 I I #
coedge $-1 $249 $249 $-1 $363 reversed $155 $-1 #
edge $-1 $364 0 $364 6.2831853071796004 $156 $365 forward 7 unknown #
vertex $-1 $159 $366 #
ellipse-curve $-1 32.575368933987711 28.618558124968867 9.896814642479173 0 0.84804810408105047 0.52991925155115449 1 0 0 1 I I #
face $-1 $-1 $175 $24 $-1 $367 reversed single #
loop $-1 $-1 $269 $160 #
plane-surface $-1 0 29.683807578244842 0 0 -1 0 0 0 -1 forward_v I I I I #
coedge $-1 $368 $267 $270 $369 forward $161 $-1 #
coedge $-1 $273 $163 $164 $261 reversed $100 $-1 #
coedge $-1 $267 $368 $163 $259 reversed $161 $-1 #
edge $-1 $274 -11.601570181327263 $370 11.601570181327263 $258 $371 forward 7 unknown #
coedge $-1 $165 $164 $368 $372 forward $65 $-1 #
edge $-1 $265 -48.196050904873807 $370 48.196050904873807 $257 $373 forward 7 unknown #
coedge $-1 $270 $269 $165 $263 reversed $254 $-1 #
edge $-1 $374 -48.196050904873807 $264 48.196050904873807 $262 $375 forward 7 unknown #
vertex $-1 $167 $376 #
vertex $-1 $276 $377 #
straight-curve $-1 48.196050904873807 0 -11.601570181327263 0 -1 0 I I #
coedge $-1 $256 $258 $168 $268 reversed $161 $-1 #
edge $-1 $271 -29.683807578244842 $274 29.683807578244842 $267 $378 forward 7 unknown #
coedge $-1 $262 $169 $174 $277 forward $254 $-1 #
coedge $-1 $169 $262 $256 $369 reversed $254 $-1 #
vertex $-1 $170 $379 #
straight-curve $-1 0 29.683807578244842 11.601570181327263 -1 0 0 I I #
coedge $-1 $171 $257 $173 $276 reversed $100 $-1 #
vertex $-1 $268 $380 #
straight-curve $-1 0 -29.683807578244842 11.601570181327263 1 0 0 I I #
edge $-1 $176 -11.601570181327263 $265 11.601570181327263 $173 $381 forward 7 unknown #
edge $-1 $177 -11.601570181327263 $264 11.601570181327263 $174 $382 forward 7 unknown #
point $-1 48.196050904873807 -29.683807578244842 11.601570181327263 #
point $-1 48.196050904873807 29.683807578244842 11.601570181327263 #
face $-1 $-1 $289 $25 $-1 $383 reversed single #
loop $-1 $-1 $286 $179 #
plane-surface $-1 0 0 11.601570181327263 0 0 1 1 0 0 forward_v I I I I #
coedge $-1 $384 $385 $186 $292 forward $180 $-1 #
coedge $-1 $182 $296 $386 $387 reversed $108 $-1 #
edge $-1 $388 -6.9174809210233592 $192 -2.4506975995844558 $182 $389 forward 7 unknown #
coedge $-1 $386 $390 $183 $287 forward $281 $-1 #
edge $-1 $290 -29.683807578244842 $388 29.683807578244842 $286 $391 forward 7 unknown #
coedge $-1 $293 $184 $390 $392 reversed $289 $-1 #
loop $-1 $-1 $184 $280 #
vertex $-1 $185 $393 #
straight-curve $-1 -40.364688308929665 -29.683807578244842 4.6840892603039075 0 0 1 I I #
edge $-1 $297 -29.683807578244842 $294 29.683807578244842 $283 $394 forward 7 unknown #
coedge $-1 $187 $288 $384 $395 forward $289 $-1 #
vertex $-1 $292 $396 #
straight-curve $-1 -22.140184803450868 -29.683807578244842 7.1347868598883633 1 0 0 I I #
coedge $-1 $284 $189 $385 $397 reversed $108 $-1 #
vertex $-1 $292 $398 #
straight-curve $-1 -22.140184803450868 29.683807578244842 7.1347868598883633 -1 0 0 I I #
point $-1 -40.364688308929665 29.683807578244842 7.1347868598883633 #
point $-1 -40.364688308929665 -29.683807578244842 7.1347868598883633 #
loop $-1 $-1 $310 $195 #
plane-surface $-1 0 -29.683807578244842 0 0 1 0 0 0 1 forward_v I I I I #
coedge $-1 $304 $198 $206 $316 reversed $116 $-1 #
coedge $-1 $198 $303 $399 $400 forward $116 $-1 #
coedge $-1 $310 $401 $200 $306 forward $301 $-1 #
edge $-1 $308 26.833300185424022 $314 30.903804143657982 $305 $402 forward 7 unknown #
coedge $-1 $206 $201 $401 $403 forward $196 $-1 #
vertex $-1 $403 $404 #
straight-curve $-1 39.154568898833062 -48.321694366574761 11.601570181327261 0 -1 0 I I #
coedge $-1 $399 $305 $203 $311 forward $301 $-1 #
edge $-1 $314 17.316913947906347 $312 26.358395953947085 $310 $405 forward 7 unknown #
vertex $-1 $311 $406 #
straight-curve $-1 48.196050904873807 -23.885487992533669 13.130438486882614 0 0.71933979245794832 0.69465837861970381 I I #
vertex $-1 $311 $407 #
straight-curve $-1 39.154568898833062 -29.683807578244839 7.5310662230933048 0 0.71933979245794832 0.69465837861970381 I I #
edge $-1 $408 -29.683807578244842 $207 -25.468677432786286 $303 $409 forward 7 unknown #
point $-1 48.1960509048738 -25.468677432786286 11.601570181327263 #
point $-1 39.154568898833062 -25.468677432786286 11.601570181327263 #
edge $-1 $410 1 $410 0 $210 $-1 forward 7 unknown #
vertex $-1 $211 $411 #
ellipse-curve $-1 43.675309901853431 -26.084296846915088 8.0213632812767699 0 -0.69465837861970381 0.71933979245794832 1 0 0 1 I I #
point $-1 44.675309901853431 -27.576242505515559 9.5663182022102742 #
plane-surface $-1 0 0 11.601570181327263 0 0 1 1 0 0 forward_v I I I I #
coedge $-1 $334 $333 $326 $412 forward $215 $-1 #
coedge $-1 $326 $217 $219 $330 reversed $131 $-1 #
coedge $-1 $217 $325 $324 $412 reversed $131 $-1 #
coedge $-1 $225 $220 $217 $328 forward $226 $-1 #
edge $-1 $331 -12.431143616449564 $413 -10.300644709897615 $327 $414 forward 7 unknown #
coedge $-1 $219 $218 $334 $415 reversed $82 $-1 #
edge $-1 $416 -59.367615156489691 $331 -55.347193365215539 $325 $417 forward 7 unknown #
vertex $-1 $221 $418 #
straight-curve $-1 -5.8525003364570125 27.553308671692889 11.601570181327265 1 0 0 I I #
coedge $-1 $324 $222 $225 $338 reversed $215 $-1 #
coedge $-1 $222 $324 $329 $415 forward $215 $-1 #
vertex $-1 $223 $419 #
straight-curve $-1 -18.306650124653764 29.683807578244842 54.809341513684871 0 0 1 I I #
straight-curve $-1 -18.306650124653764 -1.7762346118591523 58.538652580905598 0 0.52991925155115449 -0.84804810408105047 I I #
edge $-1 $413 5.103351221174286 $227 18.306650124653764 $333 $420 forward 7 unknown #
point $-1 -18.306650124653764 29.683807578244842 11.601570181327263 #
point $-1 -18.306650124653764 27.553308671692893 11.601570181327261 #
edge $-1 $421 1 $421 0 $230 $-1 forward 7 unknown #
vertex $-1 $231 $422 #
ellipse-curve $-1 -11.705000672914025 26.431315065671605 8.5300735350284 0 0.84804810408105047 0.52991925155115449 1 0 0 1 I I #
point $-1 -10.705000672914025 28.618558124968875 9.8968146424791783 #
loop $-1 $-1 $242 $234 #
plane-surface $-1 0 29.683807578244842 0 0 -1 0 0 0 -1 forward_v I I I I #
coedge $-1 $348 $237 $239 $352 reversed $146 $-1 #
coedge $-1 $237 $347 $423 $424 reversed $146 $-1 #
coedge $-1 $245 $240 $237 $350 forward $235 $-1 #
edge $-1 $353 -12.431143616449564 $425 -10.300644709897615 $349 $426 forward 7 unknown #
coedge $-1 $239 $238 $356 $427 reversed $91 $-1 #
edge $-1 $428 -59.367615156489691 $353 -55.347193365215539 $347 $429 forward 7 unknown #
vertex $-1 $241 $430 #
straight-curve $-1 16.287684466993856 27.553308671692889 11.601570181327265 1 0 0 I I #
coedge $-1 $423 $242 $245 $360 reversed $345 $-1 #
coedge $-1 $242 $423 $351 $427 forward $345 $-1 #
vertex $-1 $243 $431 #
straight-curve $-1 25.973719482247972 29.683807578244842 54.809341513684871 0 0 1 I I #
straight-curve $-1 25.973719482247972 -1.7762346118591523 58.538652580905598 0 0.52991925155115449 -0.84804810408105047 I I #
edge $-1 $425 -39.17701838572745 $246 -25.973719482247972 $355 $432 forward 7 unknown #
point $-1 25.973719482247972 29.683807578244842 11.601570181327263 #
point $-1 25.973719482247972 27.553308671692893 11.601570181327261 #
edge $-1 $433 1 $433 0 $249 $-1 forward 7 unknown #
vertex $-1 $250 $434 #
ellipse-curve $-1 32.575368933987711 26.431315065671605 8.5300735350284 0 0.84804810408105047 0.52991925155115449 1 0 0 1 I I #
point $-1 33.575368933987711 28.618558124968875 9.8968146424791783 #
plane-surface $-1 48.196050904873807 0 0 -1 0 0 0 0 1 forward_v I I I I #
coedge $-1 $258 $256 $260 $372 reversed $161 $-1 #
edge $-1 $271 -11.601570181327263 $374 11.601570181327263 $270 $435 forward 7 unknown #
vertex $-1 $372 $436 #
straight-curve $-1 -48.196050904873807 -29.683807578244842 0 0 0 -1 I I #
edge $-1 $370 -29.683807578244842 $374 29.683807578244842 $368 $437 forward 7 unknown #
straight-curve $-1 0 -29.683807578244842 -11.601570181327263 -1 0 0 I I #
vertex $-1 $263 $438 #
straight-curve $-1 0 29.683807578244842 -11.601570181327263 1 0 0 I I #
point $-1 48.196050904873807 29.683807578244842 -11.601570181327263 #
point $-1 48.196050904873807 -29.683807578244842 -11.601570181327263 #
straight-curve $-1 -48.196050904873807 0 11.601570181327263 0 -1 0 I I #
point $-1 -48.196050904873807 29.683807578244842 11.601570181327263 #
point $-1 -48.196050904873807 -29.683807578244842 11.601570181327263 #
straight-curve $-1 48.196050904873807 -29.683807578244842 0 0 0 -1 I I #
straight-curve $-1 48.196050904873807 29.683807578244842 0 0 0 -1 I I #
plane-surface $-1 0 -29.683807578244842 0 0 1 0 0 0 1 forward_v I I I I #
coedge $-1 $439 $283 $293 $395 reversed $180 $-1 #
coedge $-1 $283 $439 $296 $397 forward $180 $-1 #
coedge $-1 $440 $286 $284 $387 forward $281 $-1 #
edge $-1 $388 40.364688308929665 $441 48.196050904873807 $284 $442 forward 7 unknown #
vertex $-1 $387 $443 #
straight-curve $-1 -40.364688308929665 29.683807578244842 4.6840892603039075 0 0 -1 I I #
coedge $-1 $286 $440 $288 $392 forward $281 $-1 #
straight-curve $-1 -40.364688308929665 0 11.601570181327263 0 1 0 I I #
edge $-1 $444 -48.196050904873807 $290 -40.364688308929665 $288 $445 forward 7 unknown #
point $-1 -40.364688308929665 -29.683807578244842 11.601570181327267 #
straight-curve $-1 -48.196050904873807 0 7.1347868598883633 0 -1 0 I I #
edge $-1 $444 -11.601570181327263 $294 -7.1347868598883633 $384 $446 forward 7 unknown #
point $-1 -48.196050904873807 -29.683807578244842 7.1347868598883633 #
edge $-1 $441 -11.601570181327263 $297 -7.1347868598883633 $296 $447 forward 7 unknown #
point $-1 -48.196050904873807 29.683807578244842 7.1347868598883633 #
coedge $-1 $401 $310 $304 $400 reversed $301 $-1 #
edge $-1 $408 -11.601570181327263 $312 -7.5310662230933012 $304 $448 forward 7 unknown #
coedge $-1 $305 $399 $307 $403 reversed $301 $-1 #
straight-curve $-1 39.154568898833062 -29.683807578244846 38.434870366751284 0 0 -1 I I #
edge $-1 $308 39.154568898833062 $408 48.196050904873807 $401 $449 forward 7 unknown #
point $-1 39.154568898833062 -29.683807578244842 11.601570181327263 #
straight-curve $-1 21.837654950926716 -29.683807578244842 7.5310662230932977 1 0 0 I I #
point $-1 48.1960509048738 -29.683807578244842 7.5310662230933012 #
point $-1 39.154568898833062 -29.683807578244842 7.5310662230933012 #
vertex $-1 $316 $450 #
straight-curve $-1 48.196050904873807 0 11.601570181327263 0 1 0 I I #
vertex $-1 $319 $451 #
point $-1 44.675309901853431 -26.084296846915088 8.0213632812767699 #
edge $-1 $413 43.207771332357609 $416 46.617282410053789 $324 $452 forward 7 unknown #
vertex $-1 $338 $453 #
straight-curve $-1 -5.103351221174286 39.984452288142457 11.601570181327261 0 1 0 I I #
edge $-1 $416 -0.74914911528272654 $335 12.454149788196752 $334 $454 forward 7 unknown #
vertex $-1 $415 $455 #
straight-curve $-1 -5.103351221174286 -1.7762346118591523 58.538652580905598 0 -0.52991925155115449 0.84804810408105047 I I #
point $-1 -5.103351221174286 27.553308671692893 11.601570181327261 #
point $-1 -18.306650124653764 29.683807578244842 8.192059103631081 #
straight-curve $-1 0 29.683807578244842 11.601570181327263 -1 0 0 I I #
vertex $-1 $341 $456 #
point $-1 -10.705000672914025 26.431315065671605 8.5300735350284 #
coedge $-1 $356 $355 $348 $424 forward $345 $-1 #
edge $-1 $425 43.207771332357609 $428 46.617282410053789 $423 $457 forward 7 unknown #
vertex $-1 $360 $458 #
straight-curve $-1 39.17701838572745 39.984452288142457 11.601570181327261 0 1 0 I I #
edge $-1 $428 -22.889333918733595 $357 -9.6860350152541166 $356 $459 forward 7 unknown #
vertex $-1 $427 $460 #
straight-curve $-1 39.17701838572745 -1.7762346118591523 58.538652580905598 0 -0.52991925155115449 0.84804810408105047 I I #
point $-1 39.17701838572745 27.553308671692893 11.601570181327261 #
point $-1 25.973719482247972 29.683807578244842 8.192059103631081 #
straight-curve $-1 0 29.683807578244842 11.601570181327263 -1 0 0 I I #
vertex $-1 $363 $461 #
point $-1 33.575368933987711 26.431315065671605 8.5300735350284 #
straight-curve $-1 -48.196050904873807 29.683807578244842 0 0 0 -1 I I #
point $-1 -48.196050904873807 -29.683807578244842 -11.601570181327263 #
straight-curve $-1 -48.196050904873807 0 -11.601570181327263 0 1 0 I I #
point $-1 -48.196050904873807 29.683807578244842 -11.601570181327263 #
coedge $-1 $385 $384 $440 $462 reversed $180 $-1 #
coedge $-1 $390 $386 $439 $462 forward $281 $-1 #
vertex $-1 $387 $463 #
straight-curve $-1 0 29.683807578244842 11.601570181327263 -1 0 0 I I #
point $-1 -40.364688308929665 29.683807578244842 11.601570181327267 #
vertex $-1 $462 $464 #
straight-curve $-1 0 -29.683807578244842 11.601570181327263 1 0 0 I I #
straight-curve $-1 -48.196050904873807 -29.683807578244842 0 0 0 -1 I I #
straight-curve $-1 -48.196050904873807 29.683807578244842 0 0 0 -1 I I #
straight-curve $-1 48.196050904873807 -29.683807578244842 0 0 0 -1 I I #
straight-curve $-1 0 -29.683807578244842 11.601570181327263 1 0 0 I I #
point $-1 48.196050904873807 -29.683807578244842 11.601570181327263 #
point $-1 43.675309901853431 -25.389638468295381 7.302023488818822 #
straight-curve $-1 -5.103351221174286 29.683807578244842 54.809341513684871 0 0 -1 I I #
point $-1 -5.103351221174286 29.683807578244842 11.601570181327263 #
straight-curve $-1 -5.8525003364570125 29.683807578244842 8.1920591036310775 -1 0 0 I I #
point $-1 -5.103351221174286 29.683807578244842 8.192059103631081 #
point $-1 -11.705000672914025 25.583266961590553 8.0001542834772472 #
straight-curve $-1 39.17701838572745 29.683807578244842 54.809341513684871 0 0 -1 I I #
point $-1 39.17701838572745 29.683807578244842 11.601570181327263 #
straight-curve $-1 16.287684466993856 29.683807578244842 8.1920591036310775 -1 0 0 I I #
point $-1 39.17701838572745 29.683807578244842 8.192059103631081 #
point $-1 32.575368933987711 25.583266961590553 8.0001542834772472 #
edge $-1 $441 -29.683807578244842 $444 29.683807578244842 $439 $465 forward 7 unknown #
point $-1 -48.196050904873807 29.683807578244842 11.601570181327263 #
point $-1 -48.196050904873807 -29.683807578244842 11.601570181327263 #
straight-curve $-1 -48.196050904873807 0 11.601570181327263 0 -1 0 I I #
End-of-ACIS-data 