500 0 7 0           
7 Unknown 11 ACIS 5.0 NT 24 Fri Mar 26 15:40:20 1999 
-1 9.9999999999999995e-007 1e-010 
body $-1 $7 $-1 $8 #
body $-1 $9 $-1 $10 #
body $-1 $11 $-1 $12 #
body $-1 $13 $-1 $14 #
body $-1 $15 $-1 $16 #
body $-1 $17 $-1 $18 #
body $-1 $19 $-1 $20 #
lump $-1 $-1 $21 $0 #
transform $-1 1 0 0 0 1 0 0 0 1 50.865810113834044 30.121929564191017 9.9035484353447885 1 rotate no_reflect no_shear #
lump $-1 $-1 $22 $1 #
transform $-1 1 0 0 0 1 0 0 0 1 50.865810113834044 30.121929564191017 9.9035484353447885 1 rotate no_reflect no_shear #
lump $-1 $-1 $23 $2 #
transform $-1 1 0 0 0 1 0 0 0 1 50.865810113834044 30.121929564191017 9.9035484353447885 1 rotate no_reflect no_shear #
lump $-1 $-1 $24 $3 #
transform $-1 1 0 0 0 1 0 0 0 1 50.865810113834044 30.121929564191017 9.9035484353447885 1 rotate no_reflect no_shear #
lump $-1 $-1 $25 $4 #
transform $-1 1 0 0 0 1 0 0 0 1 50.865810113834044 30.121929564191017 9.9035484353447885 1 rotate no_reflect no_shear #
lump $-1 $-1 $26 $5 #
transform $-1 1 0 0 0 1 0 0 0 1 50.865810113834044 30.121929564191017 9.9035484353447885 1 rotate no_reflect no_shear #
lump $-1 $-1 $27 $6 #
transform $-1 1 0 0 0 1 0 0 0 1 50.865810113834044 30.121929564191017 9.9035484353447885 1 rotate no_reflect no_shear #
shell $-1 $-1 $-1 $28 $-1 $7 #
shell $-1 $-1 $-1 $29 $-1 $9 #
shell $-1 $-1 $-1 $30 $-1 $11 #
shell $-1 $-1 $-1 $31 $-1 $13 #
shell $-1 $-1 $-1 $32 $-1 $15 #
shell $-1 $-1 $-1 $33 $-1 $17 #
shell $-1 $-1 $-1 $34 $-1 $19 #
face $-1 $35 $36 $21 $-1 $37 forward single #
face $-1 $38 $39 $22 $-1 $40 forward single #
face $-1 $41 $42 $23 $-1 $43 forward single #
face $-1 $44 $45 $24 $-1 $46 reversed single #
face $-1 $47 $48 $25 $-1 $49 forward single #
face $-1 $50 $51 $26 $-1 $52 forward single #
face $-1 $53 $54 $27 $-1 $55 forward single #
face $-1 $56 $57 $21 $-1 $58 reversed single #
loop $-1 $-1 $59 $28 #
plane-surface $-1 0 0 9.9035484353447885 0 0 1 1 0 0 forward_v I I I I #
face $-1 $60 $61 $22 $-1 $62 reversed single #
loop $-1 $-1 $63 $29 #
plane-surface $-1 -50.865810113834044 0 0 1 0 0 0 0 -1 forward_v I I I I #
face $-1 $64 $65 $23 $-1 $66 forward single #
loop $-1 $-1 $67 $30 #
plane-surface $-1 50.865810113834044 0 0 -1 0 0 0 0 1 forward_v I I I I #
face $-1 $68 $69 $24 $-1 $70 reversed single #
loop $-1 $-1 $71 $31 #
plane-surface $-1 28.719417537892301 -89.91827638976919 86.58290601992708 -1 0 0 0 -0.5877852598018023 0.80901698891910034 forward_v I I I I #
face $-1 $72 $73 $25 $-1 $74 forward single #
loop $-1 $75 $76 $32 #
cone-surface $-1 15.835087617666986 -25.308762743945579 5.7935870823053168 0 0.5877852598018023 -0.80901698891910034 1.5 0 0 1 I I 0 1 1.5 forward I I I I #
face $-1 $77 $78 $26 $-1 $79 forward single #
loop $-1 $80 $81 $33 #
cone-surface $-1 20.66671133775148 -25.308762743945579 5.7935870823053168 0 0.5877852598018023 -0.80901698891910034 1.5 0 0 1 I I 0 1 1.5 forward I I I I #
face $-1 $82 $83 $27 $-1 $84 forward single #
loop $-1 $85 $86 $34 #
cone-surface $-1 25.498335057835973 -25.308762743945579 5.7935870823053168 0 0.5877852598018023 -0.80901698891910034 1.5 0 0 1 I I 0 1 1.5 forward I I I I #
face $-1 $87 $88 $21 $-1 $89 reversed single #
loop $-1 $-1 $90 $35 #
plane-surface $-1 0 0 -9.9035484353447885 0 0 1 1 0 0 forward_v I I I I #
coedge $-1 $91 $92 $93 $94 forward $36 $-1 #
face $-1 $95 $96 $22 $-1 $97 reversed single #
loop $-1 $-1 $98 $38 #
plane-surface $-1 0 30.121929564191017 0 0 -1 0 0 0 -1 forward_v I I I I #
coedge $-1 $99 $100 $101 $102 forward $39 $-1 #
face $-1 $103 $104 $23 $-1 $105 reversed single #
loop $-1 $-1 $106 $41 #
plane-surface $-1 0 0 9.9035484353447885 0 0 1 1 0 0 forward_v I I I I #
coedge $-1 $107 $108 $109 $110 forward $42 $-1 #
face $-1 $111 $112 $24 $-1 $113 reversed single #
loop $-1 $-1 $114 $44 #
plane-surface $-1 20.66671133775148 -30.121929564191014 4.2802969454776019 0 -0.5877852598018023 0.80901698891910034 1 0 0 forward_v I I I I #
coedge $-1 $115 $116 $117 $118 reversed $45 $-1 #
face $-1 $-1 $119 $25 $-1 $120 forward single #
loop $-1 $121 $122 $47 #
cone-surface $-1 15.835087617666986 -23.924627745769001 3.8884887325101118 0 0.5877852598018023 -0.80901698891910034 0.75 0 0 1 I I -0.70710678118654757 0.70710678118654757 0.75 forward I I I I #
loop $-1 $-1 $123 $32 #
coedge $-1 $76 $76 $124 $125 reversed $48 $-1 #
face $-1 $-1 $126 $26 $-1 $127 forward single #
loop $-1 $128 $129 $50 #
cone-surface $-1 20.66671133775148 -23.924627745769001 3.8884887325101118 0 0.5877852598018023 -0.80901698891910034 0.75 0 0 1 I I -0.70710678118654757 0.70710678118654757 0.75 forward I I I I #
loop $-1 $-1 $130 $33 #
coedge $-1 $81 $81 $131 $132 reversed $51 $-1 #
face $-1 $-1 $133 $27 $-1 $134 forward single #
loop $-1 $135 $136 $53 #
cone-surface $-1 25.498335057835973 -23.924627745769001 3.8884887325101118 0 0.5877852598018023 -0.80901698891910034 0.75 0 0 1 I I -0.70710678118654757 0.70710678118654757 0.75 forward I I I I #
loop $-1 $-1 $137 $34 #
coedge $-1 $86 $86 $138 $139 reversed $54 $-1 #
face $-1 $140 $141 $21 $-1 $142 reversed single #
loop $-1 $-1 $143 $56 #
plane-surface $-1 0 -30.121929564191017 0 0 1 0 0 0 1 forward_v I I I I #
coedge $-1 $144 $145 $146 $147 forward $57 $-1 #
coedge $-1 $148 $59 $149 $150 forward $36 $-1 #
coedge $-1 $59 $148 $151 $152 forward $36 $-1 #
coedge $-1 $153 $154 $59 $94 reversed $155 $-1 #
edge $-1 $156 -30.121929564191017 $157 30.121929564191017 $93 $158 forward 7 unknown #
face $-1 $159 $160 $22 $-1 $161 reversed single #
loop $-1 $-1 $101 $60 #
plane-surface $-1 -57.101137645030825 0 6.9035484353447885 0 0 1 1 0 0 forward_v I I I I #
coedge $-1 $162 $163 $99 $164 forward $61 $-1 #
coedge $-1 $165 $63 $98 $164 reversed $39 $-1 #
coedge $-1 $63 $165 $166 $167 reversed $39 $-1 #
coedge $-1 $168 $169 $63 $102 reversed $96 $-1 #
edge $-1 $170 -30.121929564191017 $171 30.121929564191017 $101 $172 forward 7 unknown #
face $-1 $173 $174 $23 $-1 $175 reversed single #
loop $-1 $-1 $176 $64 #
plane-surface $-1 0 -30.121929564191017 0 0 1 0 0 0 1 forward_v I I I I #
coedge $-1 $177 $178 $179 $180 forward $65 $-1 #
coedge $-1 $179 $67 $176 $181 reversed $42 $-1 #
coedge $-1 $67 $179 $182 $183 reversed $42 $-1 #
coedge $-1 $184 $185 $67 $110 reversed $174 $-1 #
edge $-1 $186 -30.121929564191017 $187 30.121929564191017 $109 $188 forward 7 unknown #
face $-1 $189 $190 $24 $-1 $191 reversed single #
loop $-1 $-1 $192 $68 #
plane-surface $-1 12.614005137610658 -89.91827638976919 86.58290601992708 1 0 0 0 0.5877852598018023 -0.80901698891910034 forward_v I I I I #
coedge $-1 $193 $194 $195 $196 reversed $69 $-1 #
coedge $-1 $116 $71 $197 $198 reversed $45 $-1 #
coedge $-1 $71 $115 $193 $199 reversed $45 $-1 #
coedge $-1 $195 $200 $71 $118 forward $201 $-1 #
edge $-1 $202 14.837208630693578 $203 22.576950164534011 $117 $204 forward 7 unknown #
loop $-1 $-1 $124 $72 #
plane-surface $-1 20.66671133775148 -30.121929564191014 4.2802969454776019 0 -0.5877852598018023 0.80901698891910034 1 0 0 forward_v I I I I #
loop $-1 $-1 $205 $47 #
coedge $-1 $122 $122 $123 $206 reversed $73 $-1 #
coedge $-1 $123 $123 $122 $206 forward $75 $-1 #
coedge $-1 $124 $124 $76 $125 forward $119 $-1 #
edge $-1 $207 -5.2398199347980787e-016 $207 6.2831853071795996 $124 $208 forward 7 unknown #
loop $-1 $-1 $131 $77 #
plane-surface $-1 20.66671133775148 -30.121929564191014 4.2802969454776019 0 -0.5877852598018023 0.80901698891910034 1 0 0 forward_v I I I I #
loop $-1 $-1 $209 $50 #
coedge $-1 $129 $129 $130 $210 reversed $78 $-1 #
coedge $-1 $130 $130 $129 $210 forward $80 $-1 #
coedge $-1 $131 $131 $81 $132 forward $126 $-1 #
edge $-1 $211 -5.2398199347980787e-016 $211 6.2831853071795996 $131 $212 forward 7 unknown #
loop $-1 $-1 $138 $82 #
plane-surface $-1 20.66671133775148 -30.121929564191014 4.2802969454776019 0 -0.5877852598018023 0.80901698891910034 1 0 0 forward_v I I I I #
loop $-1 $-1 $213 $53 #
coedge $-1 $136 $136 $137 $214 reversed $83 $-1 #
coedge $-1 $137 $137 $136 $214 forward $85 $-1 #
coedge $-1 $138 $138 $86 $139 forward $133 $-1 #
edge $-1 $215 -5.2398199347980787e-016 $215 6.2831853071795996 $138 $216 forward 7 unknown #
face $-1 $217 $218 $21 $-1 $219 reversed single #
loop $-1 $-1 $220 $87 #
plane-surface $-1 -50.865810113834044 0 0 1 0 0 0 0 -1 forward_v I I I I #
coedge $-1 $221 $151 $222 $223 forward $88 $-1 #
coedge $-1 $224 $90 $221 $225 forward $57 $-1 #
coedge $-1 $90 $224 $226 $227 forward $57 $-1 #
coedge $-1 $154 $153 $90 $147 reversed $155 $-1 #
edge $-1 $228 -30.121929564191017 $229 30.121929564191017 $146 $230 forward 7 unknown #
coedge $-1 $92 $91 $231 $232 forward $36 $-1 #
coedge $-1 $233 $234 $91 $150 reversed $218 $-1 #
edge $-1 $157 -50.865810113834044 $235 50.865810113834044 $149 $236 forward 7 unknown #
coedge $-1 $143 $237 $92 $152 reversed $88 $-1 #
edge $-1 $238 -50.865810113834044 $156 50.865810113834044 $151 $239 forward 7 unknown #
coedge $-1 $146 $93 $237 $240 forward $155 $-1 #
coedge $-1 $93 $146 $233 $241 reversed $155 $-1 #
loop $-1 $-1 $153 $217 #
vertex $-1 $94 $242 #
vertex $-1 $94 $243 #
straight-curve $-1 50.865810113834044 0 9.9035484353447885 0 1 0 I I #
face $-1 $244 $245 $22 $-1 $246 forward single #
loop $-1 $-1 $247 $95 #
plane-surface $-1 -63.336465176227605 0 8.4035484353447885 1 0 0 0 0 -1 forward_v I I I I #
coedge $-1 $248 $98 $169 $249 reversed $61 $-1 #
coedge $-1 $98 $248 $250 $251 reversed $61 $-1 #
edge $-1 $252 -9.9035484353447885 $171 -6.9035484353447885 $98 $253 forward 7 unknown #
coedge $-1 $100 $99 $254 $255 reversed $39 $-1 #
coedge $-1 $256 $257 $100 $167 forward $258 $-1 #
edge $-1 $170 6.9035484353447885 $259 9.9035484353447885 $166 $260 forward 7 unknown #
coedge $-1 $261 $101 $257 $262 forward $96 $-1 #
coedge $-1 $101 $261 $162 $249 forward $96 $-1 #
vertex $-1 $167 $263 #
vertex $-1 $164 $264 #
straight-curve $-1 -50.865810113834044 0 6.9035484353447885 0 1 0 I I #
face $-1 $265 $266 $23 $-1 $267 reversed single #
loop $-1 $-1 $268 $103 #
plane-surface $-1 57.101137645030832 0 6.9035484353447885 0 0 1 1 0 0 forward_v I I I I #
coedge $-1 $269 $270 $107 $181 forward $104 $-1 #
coedge $-1 $271 $106 $270 $272 forward $65 $-1 #
coedge $-1 $106 $271 $273 $274 forward $65 $-1 #
coedge $-1 $108 $107 $106 $180 reversed $42 $-1 #
edge $-1 $275 -30.121929564191017 $276 30.121929564191017 $106 $277 forward 7 unknown #
edge $-1 $276 -9.9035484353447885 $187 -6.9035484353447885 $176 $278 forward 7 unknown #
coedge $-1 $273 $279 $108 $183 forward $280 $-1 #
edge $-1 $186 6.9035484353447885 $275 9.9035484353447885 $182 $281 forward 7 unknown #
coedge $-1 $268 $109 $279 $282 forward $174 $-1 #
coedge $-1 $109 $268 $269 $283 forward $174 $-1 #
vertex $-1 $183 $284 #
vertex $-1 $181 $285 #
straight-curve $-1 50.865810113834044 0 6.9035484353447885 0 -1 0 I I #
face $-1 $-1 $201 $24 $-1 $286 forward single #
loop $-1 $-1 $287 $111 #
plane-surface $-1 0 -30.121929564191017 0 0 1 0 0 0 1 forward_v I I I I #
coedge $-1 $288 $289 $290 $291 reversed $112 $-1 #
coedge $-1 $292 $114 $116 $199 forward $69 $-1 #
coedge $-1 $114 $292 $288 $293 forward $69 $-1 #
coedge $-1 $290 $117 $114 $196 forward $201 $-1 #
edge $-1 $203 -18.386061869016562 $294 -2.2806494687349179 $195 $295 forward 7 unknown #
coedge $-1 $296 $297 $115 $198 forward $190 $-1 #
edge $-1 $298 -39.011156064485938 $202 -33.387904574618751 $197 $299 forward 7 unknown #
edge $-1 $203 -9.5668467286221404 $298 4.4403802724362578e-015 $116 $300 forward 7 unknown #
coedge $-1 $117 $290 $296 $301 forward $201 $-1 #
loop $-1 $-1 $290 $189 #
vertex $-1 $198 $302 #
vertex $-1 $118 $303 #
straight-curve $-1 28.719417537892301 -44.959138194884595 9.9035484353447885 0 1 0 I I #
coedge $-1 $205 $205 $-1 $304 reversed $121 $-1 #
edge $-1 $305 0 $305 6.2831853071796004 $122 $306 forward 7 unknown #
vertex $-1 $125 $307 #
ellipse-curve $-1 15.835087617666986 -26.252058797270802 7.0919226904111934 0 -0.5877852598018023 0.80901698891910034 1.5 0 0 1 I I #
coedge $-1 $209 $209 $-1 $308 reversed $128 $-1 #
edge $-1 $309 0 $309 6.2831853071796004 $129 $310 forward 7 unknown #
vertex $-1 $132 $311 #
ellipse-curve $-1 20.66671133775148 -26.252058797270802 7.0919226904111934 0 -0.5877852598018023 0.80901698891910034 1.5 0 0 1 I I #
coedge $-1 $213 $213 $-1 $312 reversed $135 $-1 #
edge $-1 $313 0 $313 6.2831853071796004 $136 $314 forward 7 unknown #
vertex $-1 $139 $315 #
ellipse-curve $-1 25.498335057835973 -26.252058797270802 7.0919226904111934 0 -0.5877852598018023 0.80901698891910034 1.5 0 0 1 I I #
face $-1 $-1 $155 $21 $-1 $316 reversed single #
loop $-1 $-1 $233 $140 #
plane-surface $-1 0 30.121929564191017 0 0 -1 0 0 0 -1 forward_v I I I I #
coedge $-1 $317 $231 $234 $318 forward $141 $-1 #
coedge $-1 $237 $143 $144 $225 reversed $88 $-1 #
coedge $-1 $231 $317 $143 $223 reversed $141 $-1 #
edge $-1 $238 -9.9035484353447885 $319 9.9035484353447885 $222 $320 forward 7 unknown #
coedge $-1 $145 $144 $317 $321 forward $57 $-1 #
edge $-1 $229 -50.865810113834044 $319 50.865810113834044 $221 $322 forward 7 unknown #
coedge $-1 $234 $233 $145 $227 reversed $218 $-1 #
edge $-1 $323 -50.865810113834044 $228 50.865810113834044 $226 $324 forward 7 unknown #
vertex $-1 $147 $325 #
vertex $-1 $240 $326 #
straight-curve $-1 50.865810113834044 0 -9.9035484353447885 0 -1 0 I I #
coedge $-1 $220 $222 $148 $232 reversed $141 $-1 #
edge $-1 $235 -30.121929564191017 $238 30.121929564191017 $231 $327 forward 7 unknown #
coedge $-1 $226 $149 $154 $241 forward $218 $-1 #
coedge $-1 $149 $226 $220 $318 reversed $218 $-1 #
vertex $-1 $150 $328 #
straight-curve $-1 0 30.121929564191017 9.9035484353447885 -1 0 0 I I #
coedge $-1 $151 $221 $153 $240 reversed $88 $-1 #
vertex $-1 $232 $329 #
straight-curve $-1 0 -30.121929564191017 9.9035484353447885 1 0 0 I I #
edge $-1 $156 -9.9035484353447885 $229 9.9035484353447885 $153 $330 forward 7 unknown #
edge $-1 $157 -9.9035484353447885 $228 9.9035484353447885 $154 $331 forward 7 unknown #
point $-1 50.865810113834044 -30.121929564191017 9.9035484353447885 #
point $-1 50.865810113834044 30.121929564191017 9.9035484353447885 #
face $-1 $-1 $258 $22 $-1 $332 reversed single #
loop $-1 $-1 $254 $159 #
plane-surface $-1 0 0 9.9035484353447885 0 0 1 1 0 0 forward_v I I I I #
coedge $-1 $333 $334 $248 $335 forward $160 $-1 #
coedge $-1 $163 $162 $247 $335 reversed $61 $-1 #
edge $-1 $336 -6.2353275311967806 $171 6.2353275311967806 $162 $337 forward 7 unknown #
coedge $-1 $338 $254 $163 $251 forward $245 $-1 #
edge $-1 $252 50.865810113834044 $339 63.336465176227605 $163 $340 forward 7 unknown #
vertex $-1 $251 $341 #
straight-curve $-1 -50.865810113834044 30.121929564191017 0 0 0 -1 I I #
coedge $-1 $250 $342 $165 $255 forward $245 $-1 #
edge $-1 $259 -30.121929564191017 $252 30.121929564191017 $254 $343 forward 7 unknown #
coedge $-1 $344 $166 $342 $345 reversed $258 $-1 #
coedge $-1 $166 $344 $168 $262 reversed $258 $-1 #
loop $-1 $-1 $166 $244 #
vertex $-1 $167 $346 #
straight-curve $-1 -50.865810113834044 -30.121929564191017 0 0 0 1 I I #
coedge $-1 $169 $168 $333 $347 forward $96 $-1 #
edge $-1 $170 -6.2353275311967806 $348 6.2353275311967806 $257 $349 forward 7 unknown #
point $-1 -50.865810113834044 -30.121929564191017 6.9035484353447885 #
point $-1 -50.865810113834044 30.121929564191017 6.9035484353447885 #
face $-1 $-1 $280 $23 $-1 $350 reversed single #
loop $-1 $-1 $351 $173 #
plane-surface $-1 63.336465176227613 0 8.4035484353447885 -1 0 0 0 0 1 forward_v I I I I #
coedge $-1 $185 $184 $352 $353 forward $174 $-1 #
coedge $-1 $354 $176 $185 $283 reversed $104 $-1 #
coedge $-1 $176 $354 $177 $272 reversed $104 $-1 #
coedge $-1 $178 $177 $355 $356 forward $65 $-1 #
edge $-1 $276 -6.2353275311967877 $357 6.2353275311967806 $270 $358 forward 7 unknown #
coedge $-1 $359 $182 $178 $274 reversed $280 $-1 #
edge $-1 $360 -63.336465176227613 $275 -50.865810113834044 $273 $361 forward 7 unknown #
vertex $-1 $183 $362 #
vertex $-1 $272 $363 #
straight-curve $-1 50.865810113834044 0 9.9035484353447885 0 -1 0 I I #
straight-curve $-1 50.865810113834044 -30.121929564191017 0 0 0 -1 I I #
coedge $-1 $182 $359 $184 $282 reversed $280 $-1 #
loop $-1 $-1 $182 $265 #
straight-curve $-1 50.865810113834044 30.121929564191017 0 0 0 1 I I #
edge $-1 $186 -6.2353275311967806 $364 6.2353275311967806 $279 $365 forward 7 unknown #
edge $-1 $366 -6.2353275311967806 $187 6.2353275311967806 $269 $367 forward 7 unknown #
point $-1 50.865810113834051 30.121929564191017 6.9035484353447885 #
point $-1 50.865810113834051 -30.121929564191017 6.9035484353447885 #
plane-surface $-1 0 0 9.9035484353447885 0 0 1 1 0 0 forward_v I I I I #
coedge $-1 $297 $296 $289 $368 forward $190 $-1 #
coedge $-1 $289 $192 $194 $293 reversed $112 $-1 #
coedge $-1 $192 $288 $287 $368 reversed $112 $-1 #
coedge $-1 $200 $195 $192 $291 forward $201 $-1 #
edge $-1 $294 -22.576950164534011 $369 -14.837208630693578 $290 $370 forward 7 unknown #
coedge $-1 $194 $193 $297 $371 reversed $69 $-1 #
edge $-1 $372 -4.4403802724362578e-015 $294 9.5668467286221404 $288 $373 forward 7 unknown #
vertex $-1 $196 $374 #
straight-curve $-1 10.33335566887574 -22.382188030350587 9.9035484353447885 -1 0 0 I I #
coedge $-1 $287 $197 $200 $301 reversed $190 $-1 #
coedge $-1 $197 $287 $292 $371 forward $190 $-1 #
vertex $-1 $198 $375 #
straight-curve $-1 28.719417537892301 -30.121929564191017 43.29145300996354 0 0 1 I I #
straight-curve $-1 28.719417537892301 -30.121929564191014 4.2802969454776019 0 -0.80901698891910034 -0.5877852598018023 I I #
edge $-1 $369 -44.487132507420171 $202 -28.381720107138531 $296 $376 forward 7 unknown #
point $-1 28.719417537892301 -30.121929564191017 9.9035484353447885 #
point $-1 28.719417537892301 -22.382188030350584 9.9035484353447885 #
edge $-1 $377 1 $377 0 $205 $-1 forward 7 unknown #
vertex $-1 $206 $378 #
ellipse-curve $-1 15.835087617666986 -24.365466690620352 4.4952514741994367 0 -0.5877852598018023 0.80901698891910034 1.5 0 0 1 I I #
point $-1 17.335087617666986 -26.252058797270806 7.0919226904111969 #
edge $-1 $379 1 $379 0 $209 $-1 forward 7 unknown #
vertex $-1 $210 $380 #
ellipse-curve $-1 20.66671133775148 -24.365466690620352 4.4952514741994367 0 -0.5877852598018023 0.80901698891910034 1.5 0 0 1 I I #
point $-1 22.16671133775148 -26.252058797270806 7.0919226904111969 #
edge $-1 $381 1 $381 0 $213 $-1 forward 7 unknown #
vertex $-1 $214 $382 #
ellipse-curve $-1 25.498335057835973 -24.365466690620352 4.4952514741994367 0 -0.5877852598018023 0.80901698891910034 1.5 0 0 1 I I #
point $-1 26.998335057835973 -26.252058797270806 7.0919226904111969 #
plane-surface $-1 50.865810113834044 0 0 -1 0 0 0 0 1 forward_v I I I I #
coedge $-1 $222 $220 $224 $321 reversed $141 $-1 #
edge $-1 $235 -9.9035484353447885 $323 9.9035484353447885 $234 $383 forward 7 unknown #
vertex $-1 $321 $384 #
straight-curve $-1 -50.865810113834044 -30.121929564191017 0 0 0 -1 I I #
edge $-1 $319 -30.121929564191017 $323 30.121929564191017 $317 $385 forward 7 unknown #
straight-curve $-1 0 -30.121929564191017 -9.9035484353447885 -1 0 0 I I #
vertex $-1 $227 $386 #
straight-curve $-1 0 30.121929564191017 -9.9035484353447885 1 0 0 I I #
point $-1 50.865810113834044 30.121929564191017 -9.9035484353447885 #
point $-1 50.865810113834044 -30.121929564191017 -9.9035484353447885 #
straight-curve $-1 -50.865810113834044 0 9.9035484353447885 0 -1 0 I I #
point $-1 -50.865810113834044 30.121929564191017 9.9035484353447885 #
point $-1 -50.865810113834044 -30.121929564191017 9.9035484353447885 #
straight-curve $-1 50.865810113834044 -30.121929564191017 0 0 0 -1 I I #
straight-curve $-1 50.865810113834044 30.121929564191017 0 0 0 -1 I I #
plane-surface $-1 0 -30.121929564191017 0 0 1 0 0 0 1 forward_v I I I I #
coedge $-1 $387 $247 $261 $347 reversed $160 $-1 #
coedge $-1 $247 $387 $338 $388 reversed $160 $-1 #
edge $-1 $339 -1.5 $336 1.5 $248 $389 forward 7 unknown #
vertex $-1 $249 $390 #
straight-curve $-1 -57.101137645030825 30.121929564191017 6.9035484353447885 1 0 0 I I #
coedge $-1 $342 $250 $334 $388 forward $245 $-1 #
vertex $-1 $251 $391 #
straight-curve $-1 0 30.121929564191017 9.9035484353447885 -1 0 0 I I #
point $-1 -50.865810113834044 30.121929564191017 9.9035484353447885 #
coedge $-1 $254 $338 $256 $345 forward $245 $-1 #
straight-curve $-1 -50.865810113834044 0 9.9035484353447885 0 1 0 I I #
coedge $-1 $257 $256 $387 $392 forward $258 $-1 #
edge $-1 $393 -63.336465176227605 $259 -50.865810113834044 $256 $394 forward 7 unknown #
point $-1 -50.865810113834044 -30.121929564191017 9.9035484353447885 #
edge $-1 $348 -30.121929564191017 $336 30.121929564191017 $333 $395 forward 7 unknown #
vertex $-1 $347 $396 #
straight-curve $-1 -57.101137645030825 -30.121929564191017 6.9035484353447885 -1 0 0 I I #
plane-surface $-1 0 30.121929564191017 0 0 -1 0 0 0 -1 forward_v I I I I #
coedge $-1 $352 $355 $354 $397 forward $266 $-1 #
coedge $-1 $398 $351 $268 $353 reversed $266 $-1 #
edge $-1 $364 -30.121929564191017 $366 30.121929564191017 $352 $399 forward 7 unknown #
coedge $-1 $270 $269 $351 $397 reversed $104 $-1 #
coedge $-1 $351 $398 $271 $356 reversed $266 $-1 #
edge $-1 $357 -30.121929564191017 $360 30.121929564191017 $355 $400 forward 7 unknown #
vertex $-1 $356 $401 #
straight-curve $-1 57.101137645030832 -30.121929564191017 9.9035484353447885 1 0 0 I I #
coedge $-1 $279 $273 $398 $402 forward $280 $-1 #
vertex $-1 $356 $403 #
straight-curve $-1 0 30.121929564191017 9.9035484353447885 -1 0 0 I I #
point $-1 50.865810113834044 30.121929564191017 9.9035484353447885 #
point $-1 50.865810113834044 -30.121929564191017 9.9035484353447885 #
vertex $-1 $353 $404 #
straight-curve $-1 57.101137645030832 30.121929564191017 6.9035484353447885 1 0 0 I I #
vertex $-1 $397 $405 #
straight-curve $-1 57.101137645030832 -30.121929564191017 6.9035484353447885 -1 0 0 I I #
edge $-1 $369 33.387904574618751 $372 39.011156064485938 $287 $406 forward 7 unknown #
vertex $-1 $301 $407 #
straight-curve $-1 12.614005137610658 -44.959138194884595 9.9035484353447885 0 -1 0 I I #
edge $-1 $372 2.2806494687349179 $298 18.386061869016562 $297 $408 forward 7 unknown #
vertex $-1 $371 $409 #
straight-curve $-1 12.614005137610658 -30.121929564191014 4.2802969454776019 0 0.80901698891910034 0.5877852598018023 I I #
point $-1 12.614005137610658 -22.382188030350584 9.9035484353447885 #
point $-1 28.719417537892301 -30.121929564191017 4.2802969454775992 #
straight-curve $-1 57.101137645030832 -30.121929564191017 9.9035484353447885 1 0 0 I I #
vertex $-1 $304 $410 #
point $-1 17.335087617666986 -24.365466690620352 4.4952514741994367 #
vertex $-1 $308 $411 #
point $-1 22.16671133775148 -24.365466690620352 4.4952514741994367 #
vertex $-1 $312 $412 #
point $-1 26.998335057835973 -24.365466690620352 4.4952514741994367 #
straight-curve $-1 -50.865810113834044 30.121929564191017 0 0 0 -1 I I #
point $-1 -50.865810113834044 -30.121929564191017 -9.9035484353447885 #
straight-curve $-1 -50.865810113834044 0 -9.9035484353447885 0 1 0 I I #
point $-1 -50.865810113834044 30.121929564191017 -9.9035484353447885 #
coedge $-1 $334 $333 $344 $392 reversed $160 $-1 #
edge $-1 $339 -30.121929564191017 $393 30.121929564191017 $334 $413 forward 7 unknown #
straight-curve $-1 -63.336465176227605 30.121929564191017 8.4035484353447885 0 0 -1 I I #
point $-1 -63.336465176227605 30.121929564191017 6.9035484353447885 #
point $-1 -63.336465176227605 30.121929564191017 9.9035484353447885 #
edge $-1 $393 -1.5 $348 1.5 $387 $414 forward 7 unknown #
vertex $-1 $388 $415 #
straight-curve $-1 0 -30.121929564191017 9.9035484353447885 1 0 0 I I #
straight-curve $-1 -63.336465176227605 0 6.9035484353447885 0 1 0 I I #
point $-1 -63.336465176227605 -30.121929564191017 6.9035484353447885 #
edge $-1 $357 -1.5 $366 1.5 $351 $416 forward 7 unknown #
coedge $-1 $355 $352 $359 $402 reversed $266 $-1 #
straight-curve $-1 63.336465176227613 0 6.9035484353447885 0 -1 0 I I #
straight-curve $-1 63.336465176227613 0 9.9035484353447885 0 1 0 I I #
point $-1 63.336465176227613 -30.121929564191017 9.9035484353447885 #
edge $-1 $360 -1.5 $364 1.5 $398 $417 forward 7 unknown #
point $-1 63.336465176227613 30.121929564191017 9.9035484353447885 #
point $-1 63.336465176227613 30.121929564191017 6.9035484353447885 #
point $-1 63.336465176227613 -30.121929564191017 6.9035484353447885 #
straight-curve $-1 12.614005137610658 -30.121929564191017 43.29145300996354 0 0 -1 I I #
point $-1 12.614005137610661 -30.121929564191017 9.9035484353447885 #
straight-curve $-1 10.33335566887574 -30.121929564191017 4.2802969454775983 1 0 0 I I #
point $-1 12.614005137610658 -30.121929564191017 4.2802969454775992 #
point $-1 15.835087617666986 -23.483788800917651 3.2817259908207865 #
point $-1 20.66671133775148 -23.483788800917651 3.2817259908207865 #
point $-1 25.498335057835973 -23.483788800917651 3.2817259908207865 #
straight-curve $-1 -63.336465176227605 0 9.9035484353447885 0 -1 0 I I #
straight-curve $-1 -63.336465176227605 -30.121929564191017 8.4035484353447885 0 0 -1 I I #
point $-1 -63.336465176227605 -30.121929564191017 9.9035484353447885 #
straight-curve $-1 63.336465176227613 -30.121929564191017 8.4035484353447885 0 0 -1 I I #
straight-curve $-1 63.336465176227613 30.121929564191017 8.4035484353447885 0 0 -1 I I #
End-of-ACIS-data 