500 0 6 0           
7 Unknown 11 ACIS 5.0 NT 24 Fri Mar 26 19:10:46 1999 
-1 9.9999999999999995e-007 1e-010 
body $-1 $6 $-1 $7 #
body $-1 $8 $-1 $9 #
body $-1 $10 $-1 $11 #
body $-1 $12 $-1 $13 #
body $-1 $14 $-1 $15 #
body $-1 $16 $-1 $17 #
lump $-1 $-1 $18 $0 #
transform $-1 1 0 0 0 1 0 0 0 1 63.589587084566787 33.341499096847429 11.931590270993164 1 rotate no_reflect no_shear #
lump $-1 $-1 $19 $1 #
transform $-1 1 0 0 0 1 0 0 0 1 63.589587084566787 33.341499096847429 11.931590270993164 1 rotate no_reflect no_shear #
lump $-1 $-1 $20 $2 #
transform $-1 1 0 0 0 1 0 0 0 1 63.589587084566787 33.341499096847429 11.931590270993164 1 rotate no_reflect no_shear #
lump $-1 $-1 $21 $3 #
transform $-1 1 0 0 0 1 0 0 0 1 63.589587084566787 33.341499096847429 11.931590270993164 1 rotate no_reflect no_shear #
lump $-1 $-1 $22 $4 #
transform $-1 1 0 0 0 1 0 0 0 1 63.589587084566787 33.341499096847429 11.931590270993164 1 rotate no_reflect no_shear #
lump $-1 $-1 $23 $5 #
transform $-1 1 0 0 0 1 0 0 0 1 63.589587084566787 33.341499096847429 11.931590270993164 1 rotate no_reflect no_shear #
shell $-1 $-1 $-1 $24 $-1 $6 #
shell $-1 $-1 $-1 $25 $-1 $8 #
shell $-1 $-1 $-1 $26 $-1 $10 #
shell $-1 $-1 $-1 $27 $-1 $12 #
shell $-1 $-1 $-1 $28 $-1 $14 #
shell $-1 $-1 $-1 $29 $-1 $16 #
face $-1 $30 $31 $18 $-1 $32 forward single #
face $-1 $33 $34 $19 $-1 $35 forward single #
face $-1 $36 $37 $20 $-1 $38 reversed single #
face $-1 $39 $40 $21 $-1 $41 forward single #
face $-1 $42 $43 $22 $-1 $44 reversed single #
face $-1 $45 $46 $23 $-1 $47 forward single #
face $-1 $48 $49 $18 $-1 $50 reversed single #
loop $-1 $-1 $51 $24 #
plane-surface $-1 0 0 11.931590270993164 0 0 1 1 0 0 forward_v I I I I #
face $-1 $52 $53 $19 $-1 $54 reversed single #
loop $-1 $-1 $55 $25 #
plane-surface $-1 0 -26.41078070395751 -8.661736628137108 0 0 1 1 0 0 forward_v I I I I #
face $-1 $56 $57 $20 $-1 $58 reversed single #
loop $-1 $-1 $59 $26 #
plane-surface $-1 26.194901043686016 21.641022825829506 182.53711936891202 0 1 0 0.54463904215088732 0 0.83867056331134215 forward_v I I I I #
face $-1 $60 $61 $21 $-1 $62 forward single #
loop $-1 $63 $64 $27 #
cone-surface $-1 58.770200815554198 27.491260961338469 8.1595486402358421 -0.54463904215088732 0 -0.83867056331134215 1.6773411266226843 0 -1.0892780843017746 1 I I 0 1 2 forward I I I I #
face $-1 $65 $66 $22 $-1 $67 reversed single #
loop $-1 $-1 $68 $28 #
plane-surface $-1 -132.85633068558457 21.641022825829506 113.27037576789421 0 1 0 -0.54463904215088732 0 0.83867056331134215 forward_v I I I I #
face $-1 $69 $70 $23 $-1 $71 forward single #
loop $-1 $72 $73 $29 #
cone-surface $-1 -58.770200815554198 27.491260961338469 8.159548640235835 0.54463904215088732 0 -0.83867056331134215 1.6773411266226843 0 1.0892780843017746 1 I I 0 1 2 forward I I I I #
face $-1 $74 $75 $18 $-1 $76 reversed single #
loop $-1 $-1 $77 $30 #
plane-surface $-1 0 0 -11.931590270993164 0 0 1 1 0 0 forward_v I I I I #
coedge $-1 $78 $79 $80 $81 forward $31 $-1 #
face $-1 $82 $83 $19 $-1 $84 reversed single #
loop $-1 $-1 $85 $33 #
plane-surface $-1 0 -19.480062311067591 -10.296663449565136 0 -1 0 0 0 -1 forward_v I I I I #
coedge $-1 $86 $87 $88 $89 reversed $34 $-1 #
face $-1 $90 $91 $20 $-1 $92 forward single #
loop $-1 $-1 $93 $36 #
plane-surface $-1 -43.071842557331763 27.491260961338469 75.875689727013466 0.54463904215088732 0 0.83867056331134215 0.83867056331134215 0 -0.54463904215088732 forward_v I I I I #
coedge $-1 $94 $95 $96 $97 reversed $37 $-1 #
face $-1 $-1 $98 $21 $-1 $99 forward single #
loop $-1 $100 $101 $39 #
cone-surface $-1 57.504252044921003 27.491260961338469 6.2101585186659189 -0.54463904215088732 0 -0.83867056331134215 0.83867056331134215 0 -0.54463904215088732 1 I I -0.70710678118654746 0.70710678118654746 1 forward I I I I #
loop $-1 $-1 $102 $27 #
coedge $-1 $64 $64 $103 $104 reversed $40 $-1 #
face $-1 $105 $106 $22 $-1 $107 reversed single #
loop $-1 $-1 $108 $42 #
plane-surface $-1 -63.589587084566787 27.491260961338469 6.6089461259956579 -0.54463904215088732 0 0.83867056331134215 0.83867056331134215 0 0.54463904215088732 forward_v I I I I #
coedge $-1 $109 $110 $111 $112 reversed $43 $-1 #
face $-1 $-1 $113 $23 $-1 $114 forward single #
loop $-1 $115 $116 $45 #
cone-surface $-1 -57.504252044921003 27.491260961338469 6.2101585186659118 0.54463904215088732 0 -0.83867056331134215 0.83867056331134215 0 0.54463904215088732 1 I I -0.70710678118654746 0.70710678118654746 1 forward I I I I #
loop $-1 $-1 $117 $29 #
coedge $-1 $73 $73 $118 $119 reversed $46 $-1 #
face $-1 $120 $121 $18 $-1 $122 reversed single #
loop $-1 $-1 $123 $48 #
plane-surface $-1 0 -33.341499096847429 0 0 1 0 0 0 1 forward_v I I I I #
coedge $-1 $124 $125 $126 $127 forward $49 $-1 #
coedge $-1 $128 $51 $129 $130 forward $31 $-1 #
coedge $-1 $51 $128 $131 $132 forward $31 $-1 #
coedge $-1 $133 $134 $51 $81 reversed $135 $-1 #
edge $-1 $136 -33.341499096847429 $137 33.341499096847429 $80 $138 forward 7 unknown #
face $-1 $139 $140 $19 $-1 $141 reversed single #
loop $-1 $-1 $142 $52 #
plane-surface $-1 0 0 -11.931590270993164 0 0 1 1 0 0 forward_v I I I I #
coedge $-1 $143 $144 $145 $146 reversed $53 $-1 #
coedge $-1 $147 $55 $144 $148 forward $34 $-1 #
coedge $-1 $55 $147 $149 $150 reversed $34 $-1 #
coedge $-1 $151 $145 $55 $89 forward $140 $-1 #
edge $-1 $152 6.2746719590888365 $153 20.136108744868672 $88 $154 forward 7 unknown #
face $-1 $155 $156 $20 $-1 $157 reversed single #
loop $-1 $-1 $158 $56 #
plane-surface $-1 0 0 11.931590270993164 0 0 1 1 0 0 forward_v I I I I #
coedge $-1 $159 $160 $161 $162 reversed $57 $-1 #
coedge $-1 $95 $59 $163 $164 reversed $37 $-1 #
coedge $-1 $59 $94 $159 $165 reversed $37 $-1 #
coedge $-1 $161 $166 $59 $97 forward $167 $-1 #
edge $-1 $168 79.336969413462839 $169 84.659613558460322 $96 $170 forward 7 unknown #
loop $-1 $-1 $103 $60 #
plane-surface $-1 -43.071842557331763 27.491260961338469 75.875689727013466 0.54463904215088732 0 0.83867056331134215 0.83867056331134215 0 -0.54463904215088732 forward_v I I I I #
loop $-1 $-1 $171 $39 #
coedge $-1 $101 $101 $102 $172 reversed $61 $-1 #
coedge $-1 $102 $102 $101 $172 forward $63 $-1 #
coedge $-1 $103 $103 $64 $104 forward $98 $-1 #
edge $-1 $173 0 $173 6.2831853071796004 $103 $174 forward 7 unknown #
face $-1 $175 $176 $22 $-1 $177 reversed single #
loop $-1 $-1 $178 $65 #
plane-surface $-1 0 33.341499096847429 0 0 -1 0 0 0 -1 forward_v I I I I #
coedge $-1 $179 $180 $181 $182 reversed $66 $-1 #
coedge $-1 $110 $68 $183 $184 reversed $43 $-1 #
coedge $-1 $68 $109 $179 $185 reversed $43 $-1 #
coedge $-1 $181 $186 $68 $112 forward $187 $-1 #
edge $-1 $188 2.8385782582254961 $189 11.034731339286068 $111 $190 forward 7 unknown #
loop $-1 $-1 $118 $69 #
plane-surface $-1 -63.589587084566787 27.491260961338469 6.6089461259956579 -0.54463904215088732 0 0.83867056331134215 0.83867056331134215 0 0.54463904215088732 forward_v I I I I #
loop $-1 $-1 $191 $45 #
coedge $-1 $116 $116 $117 $192 reversed $70 $-1 #
coedge $-1 $117 $117 $116 $192 forward $72 $-1 #
coedge $-1 $118 $118 $73 $119 forward $113 $-1 #
edge $-1 $193 0 $193 6.2831853071796004 $118 $194 forward 7 unknown #
face $-1 $195 $196 $18 $-1 $197 reversed single #
loop $-1 $-1 $198 $74 #
plane-surface $-1 -63.589587084566787 0 0 1 0 0 0 0 -1 forward_v I I I I #
coedge $-1 $199 $131 $200 $201 forward $75 $-1 #
coedge $-1 $202 $77 $199 $203 forward $49 $-1 #
coedge $-1 $77 $202 $204 $205 forward $49 $-1 #
coedge $-1 $134 $133 $77 $127 reversed $135 $-1 #
edge $-1 $206 -33.341499096847429 $207 33.341499096847429 $126 $208 forward 7 unknown #
coedge $-1 $79 $78 $209 $210 forward $31 $-1 #
coedge $-1 $211 $212 $78 $130 reversed $196 $-1 #
edge $-1 $137 -63.589587084566787 $213 63.589587084566787 $129 $214 forward 7 unknown #
coedge $-1 $123 $215 $79 $132 reversed $75 $-1 #
edge $-1 $216 -63.589587084566787 $136 63.589587084566787 $131 $217 forward 7 unknown #
coedge $-1 $126 $80 $215 $218 forward $135 $-1 #
coedge $-1 $80 $126 $211 $219 reversed $135 $-1 #
loop $-1 $-1 $133 $195 #
vertex $-1 $81 $220 #
vertex $-1 $81 $221 #
straight-curve $-1 63.589587084566787 0 11.931590270993164 0 1 0 I I #
face $-1 $222 $223 $19 $-1 $224 reversed single #
loop $-1 $-1 $145 $82 #
plane-surface $-1 63.589587084566787 0 0 -1 0 0 0 0 1 forward_v I I I I #
coedge $-1 $225 $226 $143 $227 forward $83 $-1 #
coedge $-1 $228 $85 $142 $227 reversed $53 $-1 #
coedge $-1 $85 $228 $86 $148 reversed $53 $-1 #
coedge $-1 $88 $229 $85 $146 forward $140 $-1 #
edge $-1 $230 -6.7832585462105959 $152 -3.51340490335454 $145 $231 forward 7 unknown #
coedge $-1 $87 $86 $232 $233 reversed $34 $-1 #
edge $-1 $152 -63.589587084566787 $234 63.589587084566787 $144 $235 forward 7 unknown #
coedge $-1 $236 $237 $87 $150 forward $223 $-1 #
edge $-1 $153 -63.589587084566787 $238 63.589587084566787 $149 $239 forward 7 unknown #
coedge $-1 $229 $88 $237 $240 forward $140 $-1 #
vertex $-1 $89 $241 #
vertex $-1 $240 $242 #
straight-curve $-1 63.589587084566787 -13.205390351978755 -8.661736628137108 0 -1 0 I I #
face $-1 $-1 $167 $20 $-1 $243 reversed single #
loop $-1 $-1 $244 $90 #
plane-surface $-1 0 33.341499096847429 0 0 -1 0 0 0 -1 forward_v I I I I #
coedge $-1 $163 $245 $246 $247 forward $91 $-1 #
coedge $-1 $246 $93 $95 $165 forward $57 $-1 #
coedge $-1 $93 $246 $244 $248 reversed $57 $-1 #
coedge $-1 $249 $96 $93 $162 forward $167 $-1 #
edge $-1 $169 7.8953923451602712 $250 19.595868616178194 $161 $251 forward 7 unknown #
coedge $-1 $252 $158 $94 $164 forward $91 $-1 #
edge $-1 $253 42.295983481663249 $168 50.492136562723779 $163 $254 forward 7 unknown #
edge $-1 $169 -127.17917416913357 $253 -117.40638203881309 $95 $255 forward 7 unknown #
coedge $-1 $96 $249 $252 $256 reversed $167 $-1 #
loop $-1 $-1 $161 $155 #
vertex $-1 $256 $257 #
vertex $-1 $97 $258 #
straight-curve $-1 63.589587084566787 21.641022825829506 91.268559684456008 0 0 -1 I I #
coedge $-1 $171 $171 $-1 $259 reversed $100 $-1 #
edge $-1 $260 0 $260 6.2831853071796004 $101 $261 forward 7 unknown #
vertex $-1 $104 $262 #
ellipse-curve $-1 59.491510544036515 27.491260961338469 9.2702681984944295 0.54463904215088732 0 0.83867056331134215 1.6773411266226843 0 -1.0892780843017746 1 I I #
face $-1 $-1 $187 $22 $-1 $263 forward single #
loop $-1 $-1 $264 $105 #
plane-surface $-1 -63.589587084566787 0 0 1 0 0 0 0 -1 forward_v I I I I #
coedge $-1 $265 $266 $180 $267 forward $106 $-1 #
coedge $-1 $268 $108 $110 $185 forward $66 $-1 #
coedge $-1 $108 $268 $178 $267 reversed $66 $-1 #
coedge $-1 $269 $111 $108 $182 forward $187 $-1 #
edge $-1 $189 7.8953923451602712 $270 19.595868616178194 $181 $271 forward 7 unknown #
coedge $-1 $272 $264 $109 $184 forward $176 $-1 #
edge $-1 $273 -50.026241757951446 $188 -44.703597612953942 $183 $274 forward 7 unknown #
edge $-1 $189 -9.7727921303205321 $273 0 $110 $275 forward 7 unknown #
coedge $-1 $111 $269 $272 $276 forward $187 $-1 #
loop $-1 $-1 $181 $175 #
vertex $-1 $184 $277 #
vertex $-1 $112 $278 #
straight-curve $-1 -66.428165342792283 21.641022825829506 11.931590270993162 1 0 0 I I #
coedge $-1 $191 $191 $-1 $279 reversed $115 $-1 #
edge $-1 $280 0 $280 6.2831853071796004 $116 $281 forward 7 unknown #
vertex $-1 $119 $282 #
ellipse-curve $-1 -59.491510544036501 27.491260961338469 9.2702681984944082 -0.54463904215088732 0 0.83867056331134215 1.6773411266226843 0 1.0892780843017746 1 I I #
face $-1 $-1 $135 $18 $-1 $283 reversed single #
loop $-1 $-1 $211 $120 #
plane-surface $-1 0 33.341499096847429 0 0 -1 0 0 0 -1 forward_v I I I I #
coedge $-1 $284 $209 $212 $285 forward $121 $-1 #
coedge $-1 $215 $123 $124 $203 reversed $75 $-1 #
coedge $-1 $209 $284 $123 $201 reversed $121 $-1 #
edge $-1 $216 -11.931590270993164 $286 11.931590270993164 $200 $287 forward 7 unknown #
coedge $-1 $125 $124 $284 $288 forward $49 $-1 #
edge $-1 $207 -63.589587084566787 $286 63.589587084566787 $199 $289 forward 7 unknown #
coedge $-1 $212 $211 $125 $205 reversed $196 $-1 #
edge $-1 $290 -63.589587084566787 $206 63.589587084566787 $204 $291 forward 7 unknown #
vertex $-1 $127 $292 #
vertex $-1 $218 $293 #
straight-curve $-1 63.589587084566787 0 -11.931590270993164 0 -1 0 I I #
coedge $-1 $198 $200 $128 $210 reversed $121 $-1 #
edge $-1 $213 -33.341499096847429 $216 33.341499096847429 $209 $294 forward 7 unknown #
coedge $-1 $204 $129 $134 $219 forward $196 $-1 #
coedge $-1 $129 $204 $198 $285 reversed $196 $-1 #
vertex $-1 $130 $295 #
straight-curve $-1 0 33.341499096847429 11.931590270993164 -1 0 0 I I #
coedge $-1 $131 $199 $133 $218 reversed $75 $-1 #
vertex $-1 $210 $296 #
straight-curve $-1 0 -33.341499096847429 11.931590270993164 1 0 0 I I #
edge $-1 $136 -11.931590270993164 $207 11.931590270993164 $133 $297 forward 7 unknown #
edge $-1 $137 -11.931590270993164 $206 11.931590270993164 $134 $298 forward 7 unknown #
point $-1 63.589587084566787 -33.341499096847429 11.931590270993164 #
point $-1 63.589587084566787 33.341499096847429 11.931590270993164 #
face $-1 $-1 $299 $19 $-1 $300 reversed single #
loop $-1 $-1 $149 $139 #
plane-surface $-1 0 -33.341499096847429 0 0 1 0 0 0 1 forward_v I I I I #
coedge $-1 $301 $142 $229 $302 forward $83 $-1 #
coedge $-1 $142 $301 $303 $304 forward $83 $-1 #
edge $-1 $305 -63.589587084566787 $230 63.589587084566787 $142 $306 forward 7 unknown #
coedge $-1 $144 $143 $307 $308 reversed $53 $-1 #
coedge $-1 $145 $151 $225 $302 reversed $140 $-1 #
vertex $-1 $302 $309 #
straight-curve $-1 63.589587084566787 -19.480062311067591 -5.148331724782568 0 0 1 I I #
coedge $-1 $307 $310 $147 $233 forward $299 $-1 #
edge $-1 $238 -20.136108744868672 $234 -6.2746719590888365 $232 $311 forward 7 unknown #
vertex $-1 $233 $312 #
straight-curve $-1 0 -19.480062311067591 -8.661736628137108 -1 0 0 I I #
coedge $-1 $313 $149 $310 $314 forward $223 $-1 #
coedge $-1 $149 $313 $151 $240 reversed $223 $-1 #
vertex $-1 $314 $315 #
straight-curve $-1 0 -33.341499096847429 -8.661736628137108 -1 0 0 I I #
edge $-1 $153 8.661736628137108 $316 11.931590270993164 $151 $317 forward 7 unknown #
point $-1 63.589587084566787 -19.480062311067591 -8.661736628137108 #
point $-1 63.589587084566787 -33.341499096847429 -8.661736628137108 #
plane-surface $-1 63.589587084566787 0 0 -1 0 0 0 0 1 forward_v I I I I #
coedge $-1 $318 $319 $160 $248 forward $156 $-1 #
coedge $-1 $158 $252 $318 $320 forward $91 $-1 #
coedge $-1 $160 $159 $158 $247 reversed $57 $-1 #
edge $-1 $321 -19.595868616178194 $253 -7.8953923451602712 $158 $322 forward 7 unknown #
edge $-1 $250 -88.455199451196876 $321 -78.682407320876393 $244 $323 forward 7 unknown #
coedge $-1 $166 $161 $319 $324 reversed $167 $-1 #
vertex $-1 $162 $325 #
straight-curve $-1 63.58958708456678 13.745630480669234 6.6089461259956863 0 1 0 I I #
coedge $-1 $245 $163 $166 $256 forward $91 $-1 #
vertex $-1 $164 $326 #
straight-curve $-1 13.097450521843008 21.641022825829506 11.931590270993169 1 0 0 I I #
straight-curve $-1 -43.071842557331763 21.641022825829506 75.875689727013466 -0.83867056331134215 0 0.54463904215088732 I I #
edge $-1 $168 21.641022825829506 $327 33.341499096847429 $166 $328 forward 7 unknown #
point $-1 63.589587084566787 21.641022825829506 11.931590270993164 #
point $-1 63.589587084566787 21.641022825829506 6.6089461259956863 #
edge $-1 $329 1 $329 0 $171 $-1 forward 7 unknown #
vertex $-1 $172 $330 #
ellipse-curve $-1 58.048891087071894 27.491260961338469 7.048829081977261 0.54463904215088732 0 0.83867056331134215 1.6773411266226843 0 -1.0892780843017746 1 I I #
point $-1 61.168851670659194 27.491260961338469 8.1809901141926513 #
plane-surface $-1 0 0 11.931590270993164 0 0 1 1 0 0 forward_v I I I I #
coedge $-1 $183 $331 $268 $332 forward $176 $-1 #
coedge $-1 $266 $178 $331 $333 reversed $106 $-1 #
coedge $-1 $178 $265 $269 $334 reversed $106 $-1 #
edge $-1 $270 15.09282023630956 $335 24.865612366630096 $178 $336 forward 7 unknown #
coedge $-1 $180 $179 $264 $332 reversed $66 $-1 #
coedge $-1 $186 $181 $266 $334 forward $187 $-1 #
vertex $-1 $334 $337 #
straight-curve $-1 -55.393434003506208 13.745630480669234 11.931590270993164 0 1 0 I I #
coedge $-1 $331 $183 $186 $276 reversed $176 $-1 #
vertex $-1 $184 $338 #
straight-curve $-1 -63.589587084566787 21.641022825829506 56.635187883947104 0 0 1 I I #
straight-curve $-1 -63.589587084566787 21.641022825829506 6.6089461259956579 -0.83867056331134215 0 -0.54463904215088732 I I #
edge $-1 $339 -33.341499096847429 $188 -21.641022825829506 $272 $340 forward 7 unknown #
point $-1 -63.589587084566787 21.641022825829506 11.931590270993164 #
point $-1 -55.393434003506215 21.641022825829506 11.931590270993164 #
edge $-1 $341 1 $341 0 $191 $-1 forward 7 unknown #
vertex $-1 $192 $342 #
ellipse-curve $-1 -58.048891087071894 27.491260961338469 7.0488290819772539 -0.54463904215088732 0 0.83867056331134215 1.6773411266226843 0 1.0892780843017746 1 I I #
point $-1 -57.814169417413829 27.491260961338469 10.359546282796193 #
plane-surface $-1 63.589587084566787 0 0 -1 0 0 0 0 1 forward_v I I I I #
coedge $-1 $200 $198 $202 $288 reversed $121 $-1 #
edge $-1 $213 -11.931590270993164 $290 11.931590270993164 $212 $343 forward 7 unknown #
vertex $-1 $288 $344 #
straight-curve $-1 -63.589587084566787 -33.341499096847429 0 0 0 -1 I I #
edge $-1 $286 -33.341499096847429 $290 33.341499096847429 $284 $345 forward 7 unknown #
straight-curve $-1 0 -33.341499096847429 -11.931590270993164 -1 0 0 I I #
vertex $-1 $205 $346 #
straight-curve $-1 0 33.341499096847429 -11.931590270993164 1 0 0 I I #
point $-1 63.589587084566787 33.341499096847429 -11.931590270993164 #
point $-1 63.589587084566787 -33.341499096847429 -11.931590270993164 #
straight-curve $-1 -63.589587084566787 0 11.931590270993164 0 -1 0 I I #
point $-1 -63.589587084566787 33.341499096847429 11.931590270993164 #
point $-1 -63.589587084566787 -33.341499096847429 11.931590270993164 #
straight-curve $-1 63.589587084566787 -33.341499096847429 0 0 0 -1 I I #
straight-curve $-1 63.589587084566787 33.341499096847429 0 0 0 -1 I I #
loop $-1 $-1 $307 $222 #
plane-surface $-1 -63.589587084566787 0 0 1 0 0 0 0 -1 forward_v I I I I #
coedge $-1 $226 $225 $313 $347 forward $83 $-1 #
edge $-1 $230 19.480062311067591 $316 33.341499096847429 $229 $348 forward 7 unknown #
coedge $-1 $310 $307 $226 $304 reversed $299 $-1 #
edge $-1 $349 -33.341499096847429 $305 -19.480062311067591 $303 $350 forward 7 unknown #
vertex $-1 $308 $351 #
straight-curve $-1 0 -19.480062311067591 -11.931590270993164 1 0 0 I I #
coedge $-1 $303 $232 $228 $308 forward $299 $-1 #
edge $-1 $234 3.51340490335454 $305 6.7832585462105959 $307 $352 forward 7 unknown #
point $-1 63.589587084566787 -19.480062311067591 -11.931590270993164 #
coedge $-1 $232 $303 $236 $314 reversed $299 $-1 #
straight-curve $-1 -63.589587084566787 -13.205390351978755 -8.661736628137108 0 1 0 I I #
point $-1 -63.589587084566787 -19.480062311067591 -8.661736628137108 #
coedge $-1 $237 $236 $301 $347 reversed $223 $-1 #
edge $-1 $238 8.661736628137108 $349 11.931590270993164 $310 $353 forward 7 unknown #
point $-1 -63.589587084566787 -33.341499096847429 -8.661736628137108 #
vertex $-1 $240 $354 #
straight-curve $-1 63.589587084566787 -33.341499096847429 0 0 0 -1 I I #
coedge $-1 $319 $244 $245 $320 reversed $156 $-1 #
coedge $-1 $244 $318 $249 $324 forward $156 $-1 #
edge $-1 $327 -63.589587084566787 $321 -55.393434003506258 $318 $355 forward 7 unknown #
vertex $-1 $247 $356 #
straight-curve $-1 55.393434003506272 13.745630480669234 11.931590270993162 0 -1 0 I I #
straight-curve $-1 -10.595184866985617 33.341499096847429 54.785101228361242 -0.83867056331134215 0 0.54463904215088732 I I #
edge $-1 $327 -11.931590270993164 $250 -6.6089461259956828 $249 $357 forward 7 unknown #
point $-1 63.589587084566787 33.341499096847429 6.6089461259956828 #
point $-1 55.393434003506258 21.641022825829506 11.931590270993162 #
vertex $-1 $256 $358 #
straight-curve $-1 63.589587084566787 0 11.931590270993164 0 1 0 I I #
vertex $-1 $259 $359 #
point $-1 59.726232213694573 27.491260961338469 5.9595509976754864 #
coedge $-1 $264 $272 $265 $333 forward $176 $-1 #
edge $-1 $335 -19.595868616178194 $273 -7.8953923451602712 $264 $360 forward 7 unknown #
edge $-1 $339 -11.931590270993164 $335 -6.6089461259956579 $265 $361 forward 7 unknown #
edge $-1 $270 55.393434003506215 $339 63.589587084566787 $266 $362 forward 7 unknown #
vertex $-1 $332 $363 #
straight-curve $-1 -42.735529953963649 33.341499096847429 20.151729427852327 -0.83867056331134215 0 -0.54463904215088732 I I #
point $-1 -55.393434003506215 33.341499096847429 11.931590270993164 #
point $-1 -63.589587084566787 21.641022825829506 6.6089461259956579 #
vertex $-1 $334 $364 #
straight-curve $-1 -63.589587084566787 0 11.931590270993164 0 -1 0 I I #
vertex $-1 $279 $365 #
point $-1 -56.371549960449208 27.491260961338469 8.1381071662790276 #
straight-curve $-1 -63.589587084566787 33.341499096847429 0 0 0 -1 I I #
point $-1 -63.589587084566787 -33.341499096847429 -11.931590270993164 #
straight-curve $-1 -63.589587084566787 0 -11.931590270993164 0 1 0 I I #
point $-1 -63.589587084566787 33.341499096847429 -11.931590270993164 #
edge $-1 $316 -63.589587084566787 $349 63.589587084566787 $313 $366 forward 7 unknown #
straight-curve $-1 63.589587084566787 0 -11.931590270993164 0 -1 0 I I #
vertex $-1 $304 $367 #
straight-curve $-1 -63.589587084566787 0 -11.931590270993164 0 1 0 I I #
point $-1 -63.589587084566787 -19.480062311067591 -11.931590270993164 #
straight-curve $-1 -63.589587084566787 -19.480062311067591 -5.148331724782568 0 0 -1 I I #
straight-curve $-1 -63.589587084566787 -33.341499096847429 0 0 0 -1 I I #
point $-1 63.589587084566787 -33.341499096847429 -11.931590270993164 #
straight-curve $-1 0 33.341499096847429 11.931590270993164 -1 0 0 I I #
point $-1 55.393434003506258 33.341499096847429 11.931590270993162 #
straight-curve $-1 63.589587084566787 33.341499096847429 0 0 0 -1 I I #
point $-1 63.589587084566787 33.341499096847429 11.931590270993164 #
point $-1 56.959613002770112 27.491260961338469 5.3714879553545769 #
straight-curve $-1 -63.589587084566787 13.745630480669234 6.6089461259956614 0 -1 0 I I #
straight-curve $-1 -63.589587084566787 33.341499096847429 0 0 0 -1 I I #
straight-curve $-1 0 33.341499096847429 11.931590270993164 -1 0 0 I I #
point $-1 -63.589587084566787 33.341499096847429 6.6089461259956579 #
point $-1 -63.589587084566787 33.341499096847429 11.931590270993164 #
point $-1 -56.959613002770112 27.491260961338469 5.3714879553545698 #
straight-curve $-1 0 -33.341499096847429 -11.931590270993164 -1 0 0 I I #
point $-1 -63.589587084566787 -33.341499096847429 -11.931590270993164 #
End-of-ACIS-data 