500 0 5 0           
7 Unknown 11 ACIS 5.0 NT 24 Fri Mar 26 20:39:50 1999 
-1 9.9999999999999995e-007 1e-010 
body $-1 $5 $-1 $6 #
body $-1 $7 $-1 $8 #
body $-1 $9 $-1 $10 #
body $-1 $11 $-1 $12 #
body $-1 $13 $-1 $14 #
lump $-1 $-1 $15 $0 #
transform $-1 1 0 0 0 1 0 0 0 1 45.971861934263131 20.266790807373415 6.5299430509001377 1 rotate no_reflect no_shear #
lump $-1 $-1 $16 $1 #
transform $-1 1 0 0 0 1 0 0 0 1 45.971861934263131 20.266790807373415 6.5299430509001377 1 rotate no_reflect no_shear #
lump $-1 $-1 $17 $2 #
transform $-1 1 0 0 0 1 0 0 0 1 45.971861934263131 20.266790807373415 6.5299430509001377 1 rotate no_reflect no_shear #
lump $-1 $-1 $18 $3 #
transform $-1 1 0 0 0 1 0 0 0 1 45.971861934263131 20.266790807373415 6.5299430509001377 1 rotate no_reflect no_shear #
lump $-1 $-1 $19 $4 #
transform $-1 1 0 0 0 1 0 0 0 1 45.971861934263131 20.266790807373415 6.5299430509001377 1 rotate no_reflect no_shear #
shell $-1 $-1 $-1 $20 $-1 $5 #
shell $-1 $-1 $-1 $21 $-1 $7 #
shell $-1 $-1 $-1 $22 $-1 $9 #
shell $-1 $-1 $-1 $23 $-1 $11 #
shell $-1 $-1 $-1 $24 $-1 $13 #
face $-1 $25 $26 $15 $-1 $27 forward single #
face $-1 $28 $29 $16 $-1 $30 forward single #
face $-1 $31 $32 $17 $-1 $33 reversed single #
face $-1 $34 $35 $18 $-1 $36 forward single #
face $-1 $37 $38 $19 $-1 $39 reversed single #
face $-1 $40 $41 $15 $-1 $42 reversed single #
loop $-1 $-1 $43 $20 #
plane-surface $-1 0 0 6.5299430509001377 0 0 1 1 0 0 forward_v I I I I #
face $-1 $44 $45 $16 $-1 $46 forward single #
loop $-1 $-1 $47 $21 #
plane-surface $-1 0 -99.077945132626482 50.199737408862291 -1 0 0 0 -0.85716730853699208 0.51503806187062418 forward_v I I I I #
face $-1 $48 $49 $17 $-1 $50 reversed single #
loop $-1 $51 $52 $22 #
cone-surface $-1 -9.0845882077591469 -18.692246735904142 4.4066542073667394 0 0.85716730853699208 -0.51503806187062418 0.5 0 0 1 I I 0 1 0.5 forward I I I I #
face $-1 $53 $54 $18 $-1 $55 reversed single #
loop $-1 $-1 $56 $23 #
plane-surface $-1 18.169176415518294 -99.077945132626482 50.199737408862291 -1 0 0 0 -0.85716730853699208 0.51503806187062418 forward_v I I I I #
face $-1 $57 $58 $19 $-1 $59 reversed single #
loop $-1 $60 $61 $24 #
cone-surface $-1 9.0845882077591469 -18.692246735904142 4.4066542073667394 0 0.85716730853699208 -0.51503806187062418 0.5 0 0 1 I I 0 1 0.5 forward I I I I #
face $-1 $62 $63 $15 $-1 $64 reversed single #
loop $-1 $-1 $65 $25 #
plane-surface $-1 0 0 -6.5299430509001377 0 0 1 1 0 0 forward_v I I I I #
coedge $-1 $66 $67 $68 $69 forward $26 $-1 #
face $-1 $70 $71 $16 $-1 $72 forward single #
loop $-1 $-1 $73 $28 #
plane-surface $-1 -9.0845882077591469 -20.266790807373425 2.8452200664486753 0 -0.85716730853699208 0.51503806187062418 1 0 0 forward_v I I I I #
coedge $-1 $74 $75 $76 $77 reversed $29 $-1 #
face $-1 $78 $79 $17 $-1 $80 forward single #
loop $-1 $81 $82 $31 #
cone-surface $-1 -9.0845882077591469 -18.010413265846999 3.9969673405914206 0 0.85716730853699208 -0.51503806187062418 0.25 0 0 1 I I -0.70710678118654691 0.70710678118654813 0.25 forward I I I I #
loop $-1 $-1 $83 $22 #
coedge $-1 $52 $52 $84 $85 reversed $32 $-1 #
face $-1 $86 $87 $18 $-1 $88 reversed single #
loop $-1 $-1 $89 $34 #
plane-surface $-1 0 -20.266790807373415 0 0 1 0 0 0 1 forward_v I I I I #
coedge $-1 $90 $91 $89 $92 reversed $35 $-1 #
face $-1 $93 $94 $19 $-1 $95 forward single #
loop $-1 $96 $97 $37 #
cone-surface $-1 9.0845882077591469 -18.010413265846999 3.9969673405914206 0 0.85716730853699208 -0.51503806187062418 0.25 0 0 1 I I -0.70710678118654691 0.70710678118654813 0.25 forward I I I I #
loop $-1 $-1 $98 $24 #
coedge $-1 $61 $61 $99 $100 reversed $38 $-1 #
face $-1 $101 $102 $15 $-1 $103 reversed single #
loop $-1 $-1 $104 $40 #
plane-surface $-1 0 -20.266790807373415 0 0 1 0 0 0 1 forward_v I I I I #
coedge $-1 $105 $106 $107 $108 forward $41 $-1 #
coedge $-1 $109 $43 $110 $111 forward $26 $-1 #
coedge $-1 $43 $109 $112 $113 forward $26 $-1 #
coedge $-1 $114 $115 $43 $69 reversed $116 $-1 #
edge $-1 $117 -20.266790807373415 $118 20.266790807373415 $68 $119 forward 7 unknown #
face $-1 $120 $121 $16 $-1 $122 forward single #
loop $-1 $-1 $123 $44 #
plane-surface $-1 -18.169176415518294 -99.077945132626482 50.199737408862291 1 0 0 0 0.85716730853699208 -0.51503806187062418 forward_v I I I I #
coedge $-1 $124 $125 $126 $127 reversed $45 $-1 #
coedge $-1 $75 $47 $125 $128 forward $29 $-1 #
coedge $-1 $47 $74 $129 $130 reversed $29 $-1 #
coedge $-1 $131 $126 $47 $77 forward $121 $-1 #
edge $-1 $132 -31.486186616032569 $133 -29.272181758939826 $76 $134 forward 7 unknown #
face $-1 $135 $136 $17 $-1 $137 forward single #
loop $-1 $-1 $138 $48 #
plane-surface $-1 0 -99.077945132626482 50.199737408862291 -1 0 0 0 -0.85716730853699208 0.51503806187062418 forward_v I I I I #
loop $-1 $-1 $139 $31 #
coedge $-1 $82 $82 $83 $140 forward $49 $-1 #
coedge $-1 $83 $83 $82 $140 reversed $51 $-1 #
coedge $-1 $84 $84 $52 $85 forward $136 $-1 #
edge $-1 $141 -3.2025152785405749e-016 $141 6.2831853071796004 $84 $142 forward 7 unknown #
face $-1 $143 $144 $18 $-1 $145 reversed single #
loop $-1 $146 $147 $53 #
cone-surface $-1 -9.0845882077591469 -18.692246735904142 4.4066542073667394 0 0.85716730853699208 -0.51503806187062418 0.5 0 0 1 I I 0 1 0.5 forward I I I I #
coedge $-1 $148 $149 $56 $92 forward $54 $-1 #
coedge $-1 $91 $56 $150 $151 reversed $35 $-1 #
coedge $-1 $56 $90 $152 $153 forward $35 $-1 #
edge $-1 $154 18.569925653531008 $155 22.254648637982452 $89 $156 forward 7 unknown #
face $-1 $157 $158 $19 $-1 $159 reversed single #
loop $-1 $-1 $160 $57 #
plane-surface $-1 18.169176415518294 -99.077945132626482 50.199737408862291 -1 0 0 0 -0.85716730853699208 0.51503806187062418 forward_v I I I I #
loop $-1 $-1 $161 $37 #
coedge $-1 $97 $97 $98 $162 forward $58 $-1 #
coedge $-1 $98 $98 $97 $162 reversed $60 $-1 #
coedge $-1 $99 $99 $61 $100 forward $163 $-1 #
edge $-1 $164 -3.2025152785405749e-016 $164 6.2831853071796004 $99 $165 forward 7 unknown #
face $-1 $166 $167 $15 $-1 $168 reversed single #
loop $-1 $-1 $169 $62 #
plane-surface $-1 -45.971861934263131 0 0 1 0 0 0 0 -1 forward_v I I I I #
coedge $-1 $170 $112 $171 $172 forward $63 $-1 #
coedge $-1 $173 $65 $170 $174 forward $41 $-1 #
coedge $-1 $65 $173 $175 $176 forward $41 $-1 #
coedge $-1 $115 $114 $65 $108 reversed $116 $-1 #
edge $-1 $177 -20.266790807373415 $178 20.266790807373415 $107 $179 forward 7 unknown #
coedge $-1 $67 $66 $180 $181 forward $26 $-1 #
coedge $-1 $182 $183 $66 $111 reversed $167 $-1 #
edge $-1 $118 -45.971861934263131 $184 45.971861934263131 $110 $185 forward 7 unknown #
coedge $-1 $104 $186 $67 $113 reversed $63 $-1 #
edge $-1 $187 -45.971861934263131 $117 45.971861934263131 $112 $188 forward 7 unknown #
coedge $-1 $107 $68 $186 $189 forward $116 $-1 #
coedge $-1 $68 $107 $182 $190 reversed $116 $-1 #
loop $-1 $-1 $114 $166 #
vertex $-1 $69 $191 #
vertex $-1 $69 $192 #
straight-curve $-1 45.971861934263131 0 6.5299430509001377 0 1 0 I I #
face $-1 $193 $194 $16 $-1 $195 reversed single #
loop $-1 $-1 $196 $70 #
plane-surface $-1 0 0 6.5299430509001377 0 0 1 1 0 0 forward_v I I I I #
coedge $-1 $197 $198 $196 $199 reversed $71 $-1 #
coedge $-1 $200 $73 $198 $201 reversed $45 $-1 #
coedge $-1 $73 $200 $74 $128 reversed $45 $-1 #
coedge $-1 $76 $196 $73 $127 forward $121 $-1 #
edge $-1 $202 -13.62688231163872 $132 4.5422941038795734 $126 $203 forward 7 unknown #
edge $-1 $132 -4.2987208538558539 $204 -2.0715698412831909e-014 $74 $205 forward 7 unknown #
coedge $-1 $206 $207 $75 $130 forward $208 $-1 #
edge $-1 $133 18.569925653531008 $204 22.254648637982452 $129 $209 forward 7 unknown #
coedge $-1 $210 $76 $207 $211 forward $121 $-1 #
vertex $-1 $127 $212 #
vertex $-1 $211 $213 #
straight-curve $-1 0 -49.538972566313241 6.5299430509001368 0 -1 0 I I #
face $-1 $214 $215 $17 $-1 $216 forward single #
loop $-1 $217 $84 $78 #
plane-surface $-1 -9.0845882077591469 -20.266790807373425 2.8452200664486753 0 -0.85716730853699208 0.51503806187062418 1 0 0 forward_v I I I I #
coedge $-1 $218 $219 $220 $221 reversed $79 $-1 #
coedge $-1 $139 $139 $-1 $222 forward $81 $-1 #
edge $-1 $223 0 $223 6.2831853071796004 $82 $224 forward 7 unknown #
vertex $-1 $85 $225 #
ellipse-curve $-1 -9.0845882077591469 -19.159788378827049 4.6875815586744087 0 0.85716730853699208 -0.51503806187062418 0.5 0 0 1 I I #
face $-1 $226 $227 $18 $-1 $228 forward single #
loop $-1 $229 $230 $86 #
cone-surface $-1 -9.0845882077591469 -18.010413265846999 3.9969673405914206 0 0.85716730853699208 -0.51503806187062418 0.25 0 0 1 I I -0.70710678118654691 0.70710678118654813 0.25 forward I I I I #
loop $-1 $-1 $231 $53 #
coedge $-1 $147 $147 $232 $233 reversed $87 $-1 #
coedge $-1 $234 $89 $235 $236 forward $54 $-1 #
coedge $-1 $89 $237 $238 $239 reversed $54 $-1 #
coedge $-1 $238 $240 $90 $151 forward $241 $-1 #
edge $-1 $242 -31.486186616032569 $154 -29.272181758939826 $150 $243 forward 7 unknown #
coedge $-1 $244 $235 $91 $153 reversed $245 $-1 #
edge $-1 $242 -4.2987208538558539 $155 -2.0715698412831909e-014 $91 $246 forward 7 unknown #
vertex $-1 $239 $247 #
vertex $-1 $236 $248 #
straight-curve $-1 18.169176415518294 -20.266790807373418 25.099868704431145 0 0 -1 I I #
face $-1 $249 $250 $19 $-1 $251 reversed single #
loop $-1 $-1 $252 $93 #
plane-surface $-1 0 -20.266790807373415 0 0 1 0 0 0 1 forward_v I I I I #
coedge $-1 $253 $254 $252 $255 reversed $94 $-1 #
coedge $-1 $161 $161 $-1 $256 forward $96 $-1 #
edge $-1 $257 0 $257 6.2831853071796004 $97 $258 forward 7 unknown #
loop $-1 $259 $99 $260 #
vertex $-1 $100 $261 #
ellipse-curve $-1 9.0845882077591469 -19.159788378827049 4.6875815586744087 0 0.85716730853699208 -0.51503806187062418 0.5 0 0 1 I I #
face $-1 $-1 $116 $15 $-1 $262 reversed single #
loop $-1 $-1 $182 $101 #
plane-surface $-1 0 20.266790807373415 0 0 -1 0 0 0 -1 forward_v I I I I #
coedge $-1 $263 $180 $183 $264 forward $102 $-1 #
coedge $-1 $186 $104 $105 $174 reversed $63 $-1 #
coedge $-1 $180 $263 $104 $172 reversed $102 $-1 #
edge $-1 $187 -6.5299430509001377 $265 6.5299430509001377 $171 $266 forward 7 unknown #
coedge $-1 $106 $105 $263 $267 forward $41 $-1 #
edge $-1 $178 -45.971861934263131 $265 45.971861934263131 $170 $268 forward 7 unknown #
coedge $-1 $183 $182 $106 $176 reversed $167 $-1 #
edge $-1 $269 -45.971861934263131 $177 45.971861934263131 $175 $270 forward 7 unknown #
vertex $-1 $108 $271 #
vertex $-1 $189 $272 #
straight-curve $-1 45.971861934263131 0 -6.5299430509001377 0 -1 0 I I #
coedge $-1 $169 $171 $109 $181 reversed $102 $-1 #
edge $-1 $184 -20.266790807373415 $187 20.266790807373415 $180 $273 forward 7 unknown #
coedge $-1 $175 $110 $115 $190 forward $167 $-1 #
coedge $-1 $110 $175 $169 $264 reversed $167 $-1 #
vertex $-1 $111 $274 #
straight-curve $-1 0 20.266790807373415 6.5299430509001377 -1 0 0 I I #
coedge $-1 $112 $170 $114 $189 reversed $63 $-1 #
vertex $-1 $181 $275 #
straight-curve $-1 0 -20.266790807373415 6.5299430509001377 1 0 0 I I #
edge $-1 $117 -6.5299430509001377 $178 6.5299430509001377 $114 $276 forward 7 unknown #
edge $-1 $118 -6.5299430509001377 $177 6.5299430509001377 $115 $277 forward 7 unknown #
point $-1 45.971861934263131 -20.266790807373415 6.5299430509001377 #
point $-1 45.971861934263131 20.266790807373415 6.5299430509001377 #
face $-1 $278 $208 $16 $-1 $279 reversed single #
loop $-1 $-1 $280 $120 #
plane-surface $-1 0 0 -6.5299430509001377 0 0 1 1 0 0 forward_v I I I I #
coedge $-1 $126 $281 $123 $199 forward $121 $-1 #
coedge $-1 $198 $123 $282 $283 reversed $71 $-1 #
coedge $-1 $123 $197 $124 $201 forward $71 $-1 #
edge $-1 $284 29.272181758939826 $202 31.486186616032569 $196 $285 forward 7 unknown #
coedge $-1 $125 $124 $206 $286 reversed $45 $-1 #
edge $-1 $287 2.0715698412831909e-014 $202 4.2987208538558539 $198 $288 forward 7 unknown #
vertex $-1 $127 $289 #
straight-curve $-1 -4.5422941038795734 -18.052785950280672 6.5299430509001377 1 0 0 I I #
vertex $-1 $286 $290 #
straight-curve $-1 0 -20.266790807373425 2.8452200664486753 0 -0.51503806187062418 -0.85716730853699208 I I #
coedge $-1 $282 $129 $200 $286 forward $208 $-1 #
coedge $-1 $129 $291 $131 $211 reversed $208 $-1 #
loop $-1 $-1 $282 $193 #
straight-curve $-1 0 -20.266790807373418 25.099868704431145 0 0 -1 I I #
coedge $-1 $292 $131 $293 $294 forward $121 $-1 #
edge $-1 $133 0 $295 45.971861934263131 $207 $296 forward 7 unknown #
point $-1 0 -18.052785950280672 6.5299430509001377 #
point $-1 0 -20.266790807373415 6.5299430509001377 #
face $-1 $297 $298 $17 $-1 $299 forward single #
loop $-1 $-1 $300 $135 #
plane-surface $-1 -18.169176415518294 -99.077945132626482 50.199737408862291 1 0 0 0 0.85716730853699208 -0.51503806187062418 forward_v I I I I #
loop $-1 $-1 $301 $78 #
coedge $-1 $219 $138 $302 $303 forward $79 $-1 #
coedge $-1 $138 $218 $304 $305 reversed $79 $-1 #
coedge $-1 $306 $307 $138 $221 forward $298 $-1 #
edge $-1 $308 -31.486186616032569 $309 -29.272181758939826 $220 $310 forward 7 unknown #
edge $-1 $311 1 $311 0 $139 $-1 forward 7 unknown #
vertex $-1 $140 $312 #
ellipse-curve $-1 -9.0845882077591469 -18.224705092981246 4.1257268560590772 0 -0.85716730853699208 0.51503806187062418 0.5 0 0 1 I I #
point $-1 -8.5845882077591469 -19.159788378827038 4.6875815586744025 #
face $-1 $313 $314 $18 $-1 $315 forward single #
loop $-1 $245 $232 $143 #
plane-surface $-1 -9.0845882077591469 -20.266790807373425 2.8452200664486753 0 -0.85716730853699208 0.51503806187062418 1 0 0 forward_v I I I I #
loop $-1 $-1 $316 $86 #
coedge $-1 $230 $230 $231 $317 forward $144 $-1 #
coedge $-1 $231 $231 $230 $317 reversed $146 $-1 #
coedge $-1 $232 $232 $147 $233 forward $227 $-1 #
edge $-1 $318 -3.2025152785405749e-016 $318 6.2831853071796004 $232 $319 forward 7 unknown #
coedge $-1 $320 $148 $321 $322 forward $54 $-1 #
coedge $-1 $152 $323 $148 $236 reversed $245 $-1 #
edge $-1 $155 -22.711470519397867 $324 13.62688231163872 $148 $325 forward 7 unknown #
coedge $-1 $149 $326 $327 $328 reversed $54 $-1 #
coedge $-1 $329 $150 $149 $239 forward $241 $-1 #
edge $-1 $154 18.169176415518294 $330 45.971861934263131 $149 $331 forward 7 unknown #
coedge $-1 $150 $332 $244 $333 forward $241 $-1 #
loop $-1 $-1 $150 $313 #
vertex $-1 $333 $334 #
straight-curve $-1 18.169176415518294 -49.538972566313241 6.5299430509001368 0 -1 0 I I #
coedge $-1 $323 $152 $240 $333 reversed $245 $-1 #
loop $-1 $-1 $244 $143 #
straight-curve $-1 18.169176415518294 -20.266790807373425 2.8452200664486753 0 -0.51503806187062418 -0.85716730853699208 I I #
point $-1 18.169176415518294 -20.266790807373415 6.5299430509001377 #
point $-1 18.169176415518294 -20.266790807373415 2.8452200664486931 #
face $-1 $260 $335 $19 $-1 $336 reversed single #
loop $-1 $337 $338 $157 #
cone-surface $-1 -9.0845882077591469 -18.692246735904142 4.4066542073667394 0 0.85716730853699208 -0.51503806187062418 0.5 0 0 1 I I 0 1 0.5 forward I I I I #
coedge $-1 $339 $340 $160 $255 forward $158 $-1 #
coedge $-1 $254 $160 $341 $342 reversed $94 $-1 #
coedge $-1 $160 $253 $343 $344 forward $94 $-1 #
edge $-1 $345 18.569925653531008 $346 22.254648637982452 $252 $347 forward 7 unknown #
edge $-1 $348 1 $348 0 $161 $-1 forward 7 unknown #
vertex $-1 $162 $349 #
ellipse-curve $-1 9.0845882077591469 -18.224705092981246 4.1257268560590772 0 -0.85716730853699208 0.51503806187062418 0.5 0 0 1 I I #
loop $-1 $350 $351 $260 #
face $-1 $352 $163 $19 $-1 $353 forward single #
point $-1 9.5845882077591469 -19.159788378827038 4.6875815586744025 #
plane-surface $-1 45.971861934263131 0 0 -1 0 0 0 0 1 forward_v I I I I #
coedge $-1 $171 $169 $173 $267 reversed $102 $-1 #
edge $-1 $184 -6.5299430509001377 $269 6.5299430509001377 $183 $354 forward 7 unknown #
vertex $-1 $267 $355 #
straight-curve $-1 -45.971861934263131 -20.266790807373415 0 0 0 -1 I I #
edge $-1 $265 -20.266790807373415 $269 20.266790807373415 $263 $356 forward 7 unknown #
straight-curve $-1 0 -20.266790807373415 -6.5299430509001377 -1 0 0 I I #
vertex $-1 $176 $357 #
straight-curve $-1 0 20.266790807373415 -6.5299430509001377 1 0 0 I I #
point $-1 45.971861934263131 20.266790807373415 -6.5299430509001377 #
point $-1 45.971861934263131 -20.266790807373415 -6.5299430509001377 #
straight-curve $-1 -45.971861934263131 0 6.5299430509001377 0 -1 0 I I #
point $-1 -45.971861934263131 20.266790807373415 6.5299430509001377 #
point $-1 -45.971861934263131 -20.266790807373415 6.5299430509001377 #
straight-curve $-1 45.971861934263131 -20.266790807373415 0 0 0 -1 I I #
straight-curve $-1 45.971861934263131 20.266790807373415 0 0 0 -1 I I #
face $-1 $358 $359 $16 $-1 $360 reversed single #
plane-surface $-1 0 -20.266790807373415 0 0 1 0 0 0 1 forward_v I I I I #
coedge $-1 $361 $362 $363 $364 forward $194 $-1 #
coedge $-1 $196 $365 $366 $367 forward $121 $-1 #
coedge $-1 $366 $206 $197 $283 forward $208 $-1 #
edge $-1 $287 -22.254648637982452 $284 -18.569925653531008 $282 $368 forward 7 unknown #
vertex $-1 $283 $369 #
straight-curve $-1 -18.169176415518294 -49.538972566313241 6.5299430509001368 0 1 0 I I #
edge $-1 $204 -4.5422941038795734 $287 13.62688231163872 $206 $370 forward 7 unknown #
vertex $-1 $286 $371 #
straight-curve $-1 -18.169176415518294 -20.266790807373425 2.8452200664486753 0 0.51503806187062418 0.85716730853699208 I I #
point $-1 -18.169176415518294 -18.052785950280672 6.5299430509001377 #
point $-1 0 -20.266790807373415 2.8452200664486931 #
coedge $-1 $207 $372 $373 $374 reversed $208 $-1 #
coedge $-1 $365 $210 $375 $376 forward $121 $-1 #
coedge $-1 $373 $377 $210 $294 reversed $378 $-1 #
edge $-1 $295 -20.266790807373415 $379 20.266790807373415 $293 $380 forward 7 unknown #
vertex $-1 $294 $381 #
straight-curve $-1 0 -20.266790807373415 6.5299430509001377 1 0 0 I I #
face $-1 $382 $383 $17 $-1 $384 reversed single #
loop $-1 $-1 $385 $214 #
plane-surface $-1 0 0 6.5299430509001377 0 0 1 1 0 0 forward_v I I I I #
coedge $-1 $386 $387 $385 $388 reversed $215 $-1 #
coedge $-1 $389 $302 $307 $390 reversed $217 $-1 #
coedge $-1 $301 $391 $218 $303 reversed $217 $-1 #
edge $-1 $308 -4.2987208538558539 $392 -2.0715698412831909e-014 $218 $393 forward 7 unknown #
coedge $-1 $394 $395 $219 $305 forward $396 $-1 #
edge $-1 $309 18.569925653531008 $392 22.254648637982452 $304 $397 forward 7 unknown #
coedge $-1 $398 $220 $395 $399 forward $298 $-1 #
coedge $-1 $220 $385 $301 $390 forward $298 $-1 #
vertex $-1 $390 $400 #
vertex $-1 $399 $401 #
straight-curve $-1 0 -49.538972566313241 6.5299430509001368 0 -1 0 I I #
vertex $-1 $222 $402 #
point $-1 -8.5845882077591469 -18.224705092981246 4.1257268560590772 #
face $-1 $403 $241 $18 $-1 $404 forward single #
loop $-1 $-1 $405 $226 #
plane-surface $-1 -18.169176415518294 -99.077945132626482 50.199737408862291 1 0 0 0 0.85716730853699208 -0.51503806187062418 forward_v I I I I #
coedge $-1 $316 $316 $-1 $406 forward $229 $-1 #
edge $-1 $407 0 $407 6.2831853071796004 $230 $408 forward 7 unknown #
vertex $-1 $233 $409 #
ellipse-curve $-1 -9.0845882077591469 -19.159788378827049 4.6875815586744087 0 0.85716730853699208 -0.51503806187062418 0.5 0 0 1 I I #
coedge $-1 $410 $234 $411 $412 reversed $54 $-1 #
coedge $-1 $413 $405 $234 $322 reversed $314 $-1 #
edge $-1 $324 -22.254648637982452 $414 -18.569925653531008 $234 $415 forward 7 unknown #
coedge $-1 $235 $244 $413 $416 reversed $245 $-1 #
vertex $-1 $236 $417 #
straight-curve $-1 -4.5422941038795734 -20.266790807373415 2.8452200664486913 -1 0 0 I I #
coedge $-1 $237 $410 $418 $419 reversed $54 $-1 #
coedge $-1 $420 $421 $237 $328 forward $422 $-1 #
edge $-1 $330 -6.5299430509001377 $423 6.5299430509001377 $327 $424 forward 7 unknown #
coedge $-1 $425 $238 $421 $426 forward $241 $-1 #
vertex $-1 $426 $427 #
straight-curve $-1 0 -20.266790807373415 6.5299430509001377 1 0 0 I I #
coedge $-1 $240 $411 $405 $428 forward $241 $-1 #
edge $-1 $429 -13.62688231163872 $242 22.711470519397867 $240 $430 forward 7 unknown #
point $-1 18.169176415518294 -18.052785950280672 6.5299430509001377 #
loop $-1 $431 $432 $249 #
cone-surface $-1 -9.0845882077591469 -18.010413265846999 3.9969673405914206 0 0.85716730853699208 -0.51503806187062418 0.25 0 0 1 I I -0.70710678118654691 0.70710678118654813 0.25 forward I I I I #
loop $-1 $-1 $433 $157 #
coedge $-1 $338 $338 $351 $434 reversed $250 $-1 #
coedge $-1 $435 $252 $436 $437 forward $158 $-1 #
coedge $-1 $252 $438 $439 $440 reversed $158 $-1 #
coedge $-1 $439 $441 $253 $342 forward $442 $-1 #
edge $-1 $443 -31.486186616032569 $345 -29.272181758939826 $341 $444 forward 7 unknown #
coedge $-1 $445 $436 $254 $344 reversed $350 $-1 #
edge $-1 $443 -4.2987208538558539 $346 -2.0715698412831909e-014 $254 $446 forward 7 unknown #
vertex $-1 $440 $447 #
vertex $-1 $437 $448 #
straight-curve $-1 18.169176415518294 -20.266790807373418 25.099868704431145 0 0 -1 I I #
vertex $-1 $256 $449 #
point $-1 9.5845882077591469 -18.224705092981246 4.1257268560590772 #
loop $-1 $-1 $445 $260 #
coedge $-1 $351 $351 $338 $434 forward $259 $-1 #
face $-1 $450 $451 $19 $-1 $452 forward single #
plane-surface $-1 -9.0845882077591469 -20.266790807373425 2.8452200664486753 0 -0.85716730853699208 0.51503806187062418 1 0 0 forward_v I I I I #
straight-curve $-1 -45.971861934263131 20.266790807373415 0 0 0 -1 I I #
point $-1 -45.971861934263131 -20.266790807373415 -6.5299430509001377 #
straight-curve $-1 -45.971861934263131 0 -6.5299430509001377 0 1 0 I I #
point $-1 -45.971861934263131 20.266790807373415 -6.5299430509001377 #
face $-1 $453 $454 $16 $-1 $455 reversed single #
loop $-1 $-1 $456 $278 #
plane-surface $-1 -45.971861934263131 0 0 1 0 0 0 0 -1 forward_v I I I I #
coedge $-1 $457 $280 $372 $458 forward $194 $-1 #
coedge $-1 $280 $457 $459 $460 forward $194 $-1 #
coedge $-1 $377 $373 $280 $364 reversed $378 $-1 #
edge $-1 $461 -20.266790807373415 $462 20.266790807373415 $363 $463 forward 7 unknown #
coedge $-1 $281 $292 $464 $465 forward $121 $-1 #
coedge $-1 $466 $282 $281 $367 reversed $208 $-1 #
edge $-1 $467 -45.971861934263131 $284 -18.169176415518294 $366 $296 forward 7 unknown #
straight-curve $-1 -18.169176415518294 -20.266790807373418 25.099868704431145 0 0 1 I I #
point $-1 -18.169176415518294 -20.266790807373415 6.5299430509001377 #
straight-curve $-1 -4.5422941038795734 -20.266790807373415 2.8452200664486913 -1 0 0 I I #
point $-1 -18.169176415518294 -20.266790807373415 2.8452200664486931 #
coedge $-1 $291 $466 $361 $458 reversed $208 $-1 #
coedge $-1 $363 $293 $291 $374 forward $378 $-1 #
edge $-1 $295 -6.5299430509001377 $462 6.5299430509001377 $373 $468 forward 7 unknown #
coedge $-1 $469 $470 $292 $376 reversed $454 $-1 #
edge $-1 $379 -45.971861934263131 $471 45.971861934263131 $375 $472 forward 7 unknown #
coedge $-1 $293 $363 $469 $473 reversed $378 $-1 #
loop $-1 $-1 $373 $453 #
vertex $-1 $294 $474 #
straight-curve $-1 45.971861934263131 0 6.5299430509001377 0 1 0 I I #
point $-1 45.971861934263131 -20.266790807373415 6.5299430509001377 #
face $-1 $475 $396 $17 $-1 $476 reversed single #
loop $-1 $-1 $477 $297 #
plane-surface $-1 0 0 -6.5299430509001377 0 0 1 1 0 0 forward_v I I I I #
coedge $-1 $307 $478 $300 $388 forward $298 $-1 #
coedge $-1 $387 $300 $479 $480 reversed $215 $-1 #
coedge $-1 $300 $386 $389 $481 forward $215 $-1 #
edge $-1 $482 29.272181758939826 $483 31.486186616032569 $385 $484 forward 7 unknown #
coedge $-1 $391 $301 $387 $481 reversed $217 $-1 #
edge $-1 $483 -13.62688231163872 $308 4.5422941038795734 $307 $485 forward 7 unknown #
coedge $-1 $302 $389 $394 $486 reversed $217 $-1 #
vertex $-1 $486 $487 #
straight-curve $-1 0 -20.266790807373425 2.8452200664486753 0 -0.51503806187062418 -0.85716730853699208 I I #
coedge $-1 $479 $304 $391 $486 forward $396 $-1 #
coedge $-1 $304 $488 $306 $399 reversed $396 $-1 #
loop $-1 $-1 $479 $382 #
straight-curve $-1 0 -20.266790807373418 25.099868704431145 0 0 -1 I I #
coedge $-1 $489 $306 $490 $491 forward $298 $-1 #
edge $-1 $309 0 $492 45.971861934263131 $395 $493 forward 7 unknown #
point $-1 0 -18.052785950280672 6.5299430509001377 #
point $-1 0 -20.266790807373415 6.5299430509001377 #
point $-1 -9.0845882077591469 -17.796121438712753 3.8682078251237644 #
face $-1 $494 $495 $18 $-1 $496 reversed single #
plane-surface $-1 0 0 6.5299430509001377 0 0 1 1 0 0 forward_v I I I I #
coedge $-1 $321 $413 $332 $428 reversed $314 $-1 #
edge $-1 $497 1 $497 0 $316 $-1 forward 7 unknown #
vertex $-1 $317 $498 #
ellipse-curve $-1 -9.0845882077591469 -18.224705092981246 4.1257268560590772 0 -0.85716730853699208 0.51503806187062418 0.5 0 0 1 I I #
point $-1 -8.5845882077591469 -19.159788378827038 4.6875815586744025 #
coedge $-1 $326 $320 $499 $500 forward $54 $-1 #
coedge $-1 $332 $501 $320 $412 forward $241 $-1 #
edge $-1 $502 -45.971861934263131 $414 -18.169176415518294 $320 $331 forward 7 unknown #
coedge $-1 $405 $321 $323 $416 forward $314 $-1 #
vertex $-1 $322 $503 #
straight-curve $-1 -18.169176415518294 -20.266790807373418 25.099868704431145 0 0 1 I I #
edge $-1 $324 2.0715698412831909e-014 $429 4.2987208538558539 $413 $504 forward 7 unknown #
point $-1 -18.169176415518294 -20.266790807373415 2.8452200664486931 #
coedge $-1 $505 $506 $326 $419 forward $495 $-1 #
edge $-1 $423 -45.971861934263131 $507 45.971861934263131 $326 $508 forward 7 unknown #
coedge $-1 $509 $327 $506 $510 reversed $422 $-1 #
coedge $-1 $327 $509 $329 $426 reversed $422 $-1 #
loop $-1 $-1 $327 $511 #
vertex $-1 $328 $512 #
straight-curve $-1 45.971861934263131 -20.266790807373415 0 0 0 -1 I I #
coedge $-1 $501 $329 $513 $514 forward $241 $-1 #
edge $-1 $330 -20.266790807373415 $515 20.266790807373415 $421 $516 forward 7 unknown #
point $-1 45.971861934263131 -20.266790807373415 6.5299430509001377 #
edge $-1 $414 29.272181758939826 $429 31.486186616032569 $332 $517 forward 7 unknown #
vertex $-1 $333 $518 #
straight-curve $-1 -4.5422941038795734 -18.052785950280672 6.5299430509001377 1 0 0 I I #
loop $-1 $-1 $519 $249 #
coedge $-1 $432 $432 $433 $520 forward $335 $-1 #
coedge $-1 $433 $433 $432 $520 reversed $337 $-1 #
edge $-1 $521 -3.2025152785405749e-016 $521 6.2831853071796004 $351 $522 forward 7 unknown #
coedge $-1 $523 $339 $524 $525 forward $158 $-1 #
coedge $-1 $343 $526 $339 $437 reversed $350 $-1 #
edge $-1 $346 -22.711470519397867 $527 13.62688231163872 $339 $528 forward 7 unknown #
coedge $-1 $340 $529 $530 $531 reversed $158 $-1 #
coedge $-1 $532 $341 $340 $440 forward $442 $-1 #
edge $-1 $345 18.169176415518294 $533 45.971861934263131 $340 $534 forward 7 unknown #
coedge $-1 $341 $535 $445 $536 forward $442 $-1 #
loop $-1 $-1 $341 $450 #
vertex $-1 $536 $537 #
straight-curve $-1 18.169176415518294 -49.538972566313241 6.5299430509001368 0 -1 0 I I #
coedge $-1 $526 $343 $441 $536 reversed $350 $-1 #
straight-curve $-1 18.169176415518294 -20.266790807373425 2.8452200664486753 0 -0.51503806187062418 -0.85716730853699208 I I #
point $-1 18.169176415518294 -20.266790807373415 6.5299430509001377 #
point $-1 18.169176415518294 -20.266790807373415 2.8452200664486931 #
point $-1 9.0845882077591469 -17.796121438712753 3.8682078251237644 #
face $-1 $538 $442 $19 $-1 $539 forward single #
loop $-1 $-1 $540 $352 #
plane-surface $-1 -18.169176415518294 -99.077945132626482 50.199737408862291 1 0 0 0 0.85716730853699208 -0.51503806187062418 forward_v I I I I #
face $-1 $-1 $378 $16 $-1 $541 reversed single #
loop $-1 $-1 $469 $358 #
plane-surface $-1 0 20.266790807373415 0 0 -1 0 0 0 -1 forward_v I I I I #
coedge $-1 $542 $464 $470 $543 forward $359 $-1 #
coedge $-1 $362 $361 $542 $544 forward $194 $-1 #
edge $-1 $462 -45.971861934263131 $545 45.971861934263131 $372 $546 forward 7 unknown #
coedge $-1 $470 $469 $362 $460 reversed $454 $-1 #
edge $-1 $547 -45.971861934263131 $461 45.971861934263131 $459 $548 forward 7 unknown #
vertex $-1 $364 $549 #
vertex $-1 $374 $550 #
straight-curve $-1 45.971861934263131 0 -6.5299430509001377 0 -1 0 I I #
coedge $-1 $456 $551 $365 $465 reversed $359 $-1 #
edge $-1 $471 -20.266790807373415 $467 20.266790807373415 $464 $552 forward 7 unknown #
coedge $-1 $372 $366 $551 $553 forward $208 $-1 #
vertex $-1 $465 $554 #
straight-curve $-1 45.971861934263131 -20.266790807373415 0 0 0 -1 I I #
coedge $-1 $459 $375 $377 $473 forward $454 $-1 #
coedge $-1 $375 $459 $456 $543 reversed $454 $-1 #
vertex $-1 $376 $555 #
straight-curve $-1 0 20.266790807373415 6.5299430509001377 -1 0 0 I I #
edge $-1 $379 -6.5299430509001377 $461 6.5299430509001377 $377 $556 forward 7 unknown #
point $-1 45.971861934263131 20.266790807373415 6.5299430509001377 #
face $-1 $557 $558 $17 $-1 $559 reversed single #
plane-surface $-1 0 -20.266790807373415 0 0 1 0 0 0 1 forward_v I I I I #
coedge $-1 $560 $561 $562 $563 forward $383 $-1 #
coedge $-1 $385 $564 $565 $566 forward $298 $-1 #
coedge $-1 $565 $394 $386 $480 forward $396 $-1 #
edge $-1 $567 -22.254648637982452 $482 -18.569925653531008 $479 $568 forward 7 unknown #
edge $-1 $567 2.0715698412831909e-014 $483 4.2987208538558539 $387 $569 forward 7 unknown #
vertex $-1 $480 $570 #
vertex $-1 $390 $571 #
straight-curve $-1 -18.169176415518294 -49.538972566313241 6.5299430509001368 0 1 0 I I #
straight-curve $-1 -4.5422941038795734 -18.052785950280672 6.5299430509001377 1 0 0 I I #
edge $-1 $392 -4.5422941038795734 $567 13.62688231163872 $394 $572 forward 7 unknown #
point $-1 0 -20.266790807373415 2.8452200664486931 #
coedge $-1 $395 $573 $574 $575 reversed $396 $-1 #
coedge $-1 $564 $398 $576 $577 forward $298 $-1 #
coedge $-1 $574 $578 $398 $491 reversed $579 $-1 #
edge $-1 $492 -20.266790807373415 $580 20.266790807373415 $490 $581 forward 7 unknown #
vertex $-1 $491 $582 #
straight-curve $-1 0 -20.266790807373415 6.5299430509001377 1 0 0 I I #
face $-1 $583 $584 $18 $-1 $585 reversed single #
loop $-1 $-1 $506 $403 #
plane-surface $-1 0 0 -6.5299430509001377 0 0 1 1 0 0 forward_v I I I I #
vertex $-1 $406 $586 #
point $-1 -8.5845882077591469 -18.224705092981246 4.1257268560590772 #
coedge $-1 $587 $588 $410 $500 reversed $584 $-1 #
edge $-1 $502 -6.5299430509001377 $507 6.5299430509001377 $499 $589 forward 7 unknown #
coedge $-1 $411 $425 $587 $590 forward $241 $-1 #
vertex $-1 $590 $591 #
point $-1 -18.169176415518294 -20.266790807373415 6.5299430509001377 #
straight-curve $-1 -18.169176415518294 -20.266790807373425 2.8452200664486753 0 0.51503806187062418 0.85716730853699208 I I #
coedge $-1 $592 $418 $588 $593 forward $495 $-1 #
coedge $-1 $418 $592 $420 $510 forward $495 $-1 #
vertex $-1 $593 $594 #
straight-curve $-1 0 -20.266790807373415 -6.5299430509001377 -1 0 0 I I #
coedge $-1 $421 $420 $595 $596 reversed $422 $-1 #
edge $-1 $597 -20.266790807373415 $423 20.266790807373415 $420 $598 forward 7 unknown #
face $-1 $-1 $422 $18 $-1 $599 reversed single #
point $-1 45.971861934263131 -20.266790807373415 -6.5299430509001377 #
coedge $-1 $595 $600 $425 $514 reversed $601 $-1 #
edge $-1 $515 -45.971861934263131 $602 45.971861934263131 $513 $603 forward 7 unknown #
vertex $-1 $426 $604 #
straight-curve $-1 45.971861934263131 0 6.5299430509001377 0 1 0 I I #
straight-curve $-1 -18.169176415518294 -49.538972566313241 6.5299430509001368 0 1 0 I I #
point $-1 -18.169176415518294 -18.052785950280672 6.5299430509001377 #
coedge $-1 $519 $519 $-1 $605 forward $431 $-1 #
edge $-1 $606 0 $606 6.2831853071796004 $432 $607 forward 7 unknown #
vertex $-1 $434 $608 #
ellipse-curve $-1 -9.0845882077591469 -19.159788378827049 4.6875815586744087 0 0.85716730853699208 -0.51503806187062418 0.5 0 0 1 I I #
coedge $-1 $609 $435 $610 $611 reversed $158 $-1 #
coedge $-1 $612 $540 $435 $525 reversed $451 $-1 #
edge $-1 $527 -22.254648637982452 $613 -18.569925653531008 $435 $614 forward 7 unknown #
coedge $-1 $436 $445 $612 $615 reversed $350 $-1 #
vertex $-1 $437 $616 #
straight-curve $-1 -4.5422941038795734 -20.266790807373415 2.8452200664486913 -1 0 0 I I #
coedge $-1 $438 $609 $617 $618 reversed $158 $-1 #
coedge $-1 $619 $620 $438 $531 forward $621 $-1 #
edge $-1 $533 -6.5299430509001377 $622 6.5299430509001377 $530 $623 forward 7 unknown #
coedge $-1 $624 $439 $620 $625 forward $442 $-1 #
vertex $-1 $625 $626 #
straight-curve $-1 0 -20.266790807373415 6.5299430509001377 1 0 0 I I #
coedge $-1 $441 $610 $540 $627 forward $442 $-1 #
edge $-1 $628 -13.62688231163872 $443 22.711470519397867 $441 $629 forward 7 unknown #
point $-1 18.169176415518294 -18.052785950280672 6.5299430509001377 #
face $-1 $630 $631 $19 $-1 $632 reversed single #
plane-surface $-1 0 0 6.5299430509001377 0 0 1 1 0 0 forward_v I I I I #
coedge $-1 $524 $612 $535 $627 reversed $451 $-1 #
plane-surface $-1 45.971861934263131 0 0 -1 0 0 0 0 1 forward_v I I I I #
coedge $-1 $551 $456 $457 $544 reversed $359 $-1 #
edge $-1 $471 -6.5299430509001377 $547 6.5299430509001377 $470 $633 forward 7 unknown #
edge $-1 $545 -20.266790807373415 $547 20.266790807373415 $542 $634 forward 7 unknown #
vertex $-1 $544 $635 #
straight-curve $-1 0 -20.266790807373415 -6.5299430509001377 -1 0 0 I I #
vertex $-1 $460 $636 #
straight-curve $-1 0 20.266790807373415 -6.5299430509001377 1 0 0 I I #
point $-1 45.971861934263131 20.266790807373415 -6.5299430509001377 #
point $-1 45.971861934263131 -20.266790807373415 -6.5299430509001377 #
coedge $-1 $464 $542 $466 $553 reversed $359 $-1 #
straight-curve $-1 -45.971861934263131 0 6.5299430509001377 0 -1 0 I I #
edge $-1 $467 -6.5299430509001377 $545 6.5299430509001377 $551 $637 forward 7 unknown #
point $-1 -45.971861934263131 -20.266790807373415 6.5299430509001377 #
point $-1 -45.971861934263131 20.266790807373415 6.5299430509001377 #
straight-curve $-1 45.971861934263131 20.266790807373415 0 0 0 -1 I I #
face $-1 $638 $639 $17 $-1 $640 reversed single #
loop $-1 $-1 $641 $475 #
plane-surface $-1 -45.971861934263131 0 0 1 0 0 0 0 -1 forward_v I I I I #
coedge $-1 $642 $477 $573 $643 forward $383 $-1 #
coedge $-1 $477 $642 $644 $645 forward $383 $-1 #
coedge $-1 $578 $574 $477 $563 reversed $579 $-1 #
edge $-1 $646 -20.266790807373415 $647 20.266790807373415 $562 $648 forward 7 unknown #
coedge $-1 $478 $489 $649 $650 forward $298 $-1 #
coedge $-1 $651 $479 $478 $566 reversed $396 $-1 #
edge $-1 $652 -45.971861934263131 $482 -18.169176415518294 $565 $493 forward 7 unknown #
vertex $-1 $486 $653 #
straight-curve $-1 -18.169176415518294 -20.266790807373418 25.099868704431145 0 0 1 I I #
straight-curve $-1 -18.169176415518294 -20.266790807373425 2.8452200664486753 0 0.51503806187062418 0.85716730853699208 I I #
point $-1 -18.169176415518294 -20.266790807373415 6.5299430509001377 #
point $-1 -18.169176415518294 -18.052785950280672 6.5299430509001377 #
straight-curve $-1 -4.5422941038795734 -20.266790807373415 2.8452200664486913 -1 0 0 I I #
coedge $-1 $488 $651 $560 $643 reversed $396 $-1 #
coedge $-1 $562 $490 $488 $575 forward $579 $-1 #
edge $-1 $492 -6.5299430509001377 $647 6.5299430509001377 $574 $654 forward 7 unknown #
coedge $-1 $655 $656 $489 $577 reversed $639 $-1 #
edge $-1 $580 -45.971861934263131 $657 45.971861934263131 $576 $658 forward 7 unknown #
coedge $-1 $490 $562 $655 $659 reversed $579 $-1 #
loop $-1 $-1 $574 $638 #
vertex $-1 $491 $660 #
straight-curve $-1 45.971861934263131 0 6.5299430509001377 0 1 0 I I #
point $-1 45.971861934263131 -20.266790807373415 6.5299430509001377 #
face $-1 $511 $601 $18 $-1 $661 reversed single #
loop $-1 $-1 $662 $494 #
plane-surface $-1 -45.971861934263131 0 0 1 0 0 0 0 -1 forward_v I I I I #
point $-1 -9.0845882077591469 -17.796121438712753 3.8682078251237644 #
coedge $-1 $662 $499 $501 $590 reversed $584 $-1 #
coedge $-1 $499 $662 $505 $593 reversed $584 $-1 #
straight-curve $-1 -45.971861934263131 -20.266790807373415 0 0 0 -1 I I #
edge $-1 $602 -20.266790807373415 $502 20.266790807373415 $587 $663 forward 7 unknown #
point $-1 -45.971861934263131 -20.266790807373415 6.5299430509001377 #
coedge $-1 $506 $505 $664 $665 forward $495 $-1 #
edge $-1 $507 -20.266790807373415 $666 20.266790807373415 $588 $667 forward 7 unknown #
point $-1 -45.971861934263131 -20.266790807373415 -6.5299430509001377 #
coedge $-1 $664 $513 $509 $596 forward $601 $-1 #
edge $-1 $515 -6.5299430509001377 $597 6.5299430509001377 $509 $668 forward 7 unknown #
vertex $-1 $510 $669 #
straight-curve $-1 45.971861934263131 0 -6.5299430509001377 0 -1 0 I I #
plane-surface $-1 45.971861934263131 0 0 -1 0 0 0 0 1 forward_v I I I I #
coedge $-1 $513 $664 $662 $670 reversed $601 $-1 #
loop $-1 $-1 $595 $583 #
vertex $-1 $514 $671 #
straight-curve $-1 0 20.266790807373415 6.5299430509001377 -1 0 0 I I #
point $-1 45.971861934263131 20.266790807373415 6.5299430509001377 #
edge $-1 $672 1 $672 0 $519 $-1 forward 7 unknown #
vertex $-1 $520 $673 #
ellipse-curve $-1 -9.0845882077591469 -18.224705092981246 4.1257268560590772 0 -0.85716730853699208 0.51503806187062418 0.5 0 0 1 I I #
point $-1 -8.5845882077591469 -19.159788378827038 4.6875815586744025 #
coedge $-1 $529 $523 $674 $675 forward $158 $-1 #
coedge $-1 $535 $676 $523 $611 forward $442 $-1 #
edge $-1 $677 -45.971861934263131 $613 -18.169176415518294 $523 $534 forward 7 unknown #
coedge $-1 $540 $524 $526 $615 forward $451 $-1 #
vertex $-1 $525 $678 #
straight-curve $-1 -18.169176415518294 -20.266790807373418 25.099868704431145 0 0 1 I I #
edge $-1 $527 2.0715698412831909e-014 $628 4.2987208538558539 $612 $679 forward 7 unknown #
point $-1 -18.169176415518294 -20.266790807373415 2.8452200664486931 #
coedge $-1 $680 $681 $529 $618 forward $631 $-1 #
edge $-1 $622 -45.971861934263131 $682 45.971861934263131 $529 $683 forward 7 unknown #
coedge $-1 $684 $530 $681 $685 reversed $621 $-1 #
coedge $-1 $530 $684 $532 $625 reversed $621 $-1 #
loop $-1 $-1 $530 $686 #
vertex $-1 $531 $687 #
straight-curve $-1 45.971861934263131 -20.266790807373415 0 0 0 -1 I I #
coedge $-1 $676 $532 $688 $689 forward $442 $-1 #
edge $-1 $533 -20.266790807373415 $690 20.266790807373415 $620 $691 forward 7 unknown #
point $-1 45.971861934263131 -20.266790807373415 6.5299430509001377 #
edge $-1 $613 29.272181758939826 $628 31.486186616032569 $535 $692 forward 7 unknown #
vertex $-1 $536 $693 #
straight-curve $-1 -4.5422941038795734 -18.052785950280672 6.5299430509001377 1 0 0 I I #
face $-1 $694 $695 $19 $-1 $696 reversed single #
loop $-1 $-1 $681 $538 #
plane-surface $-1 0 0 -6.5299430509001377 0 0 1 1 0 0 forward_v I I I I #
straight-curve $-1 -45.971861934263131 20.266790807373415 0 0 0 -1 I I #
straight-curve $-1 -45.971861934263131 0 -6.5299430509001377 0 1 0 I I #
point $-1 -45.971861934263131 -20.266790807373415 -6.5299430509001377 #
point $-1 -45.971861934263131 20.266790807373415 -6.5299430509001377 #
straight-curve $-1 -45.971861934263131 -20.266790807373415 0 0 0 -1 I I #
face $-1 $-1 $579 $17 $-1 $697 reversed single #
loop $-1 $-1 $655 $557 #
plane-surface $-1 0 20.266790807373415 0 0 -1 0 0 0 -1 forward_v I I I I #
coedge $-1 $698 $649 $656 $699 forward $558 $-1 #
coedge $-1 $561 $560 $698 $700 forward $383 $-1 #
edge $-1 $647 -45.971861934263131 $701 45.971861934263131 $573 $702 forward 7 unknown #
coedge $-1 $656 $655 $561 $645 reversed $639 $-1 #
edge $-1 $703 -45.971861934263131 $646 45.971861934263131 $644 $704 forward 7 unknown #
vertex $-1 $563 $705 #
vertex $-1 $575 $706 #
straight-curve $-1 45.971861934263131 0 -6.5299430509001377 0 -1 0 I I #
coedge $-1 $641 $707 $564 $650 reversed $558 $-1 #
edge $-1 $657 -20.266790807373415 $652 20.266790807373415 $649 $708 forward 7 unknown #
coedge $-1 $573 $565 $707 $709 forward $396 $-1 #
vertex $-1 $650 $710 #
point $-1 -18.169176415518294 -20.266790807373415 2.8452200664486931 #
straight-curve $-1 45.971861934263131 -20.266790807373415 0 0 0 -1 I I #
coedge $-1 $644 $576 $578 $659 forward $639 $-1 #
coedge $-1 $576 $644 $641 $699 reversed $639 $-1 #
vertex $-1 $577 $711 #
straight-curve $-1 0 20.266790807373415 6.5299430509001377 -1 0 0 I I #
edge $-1 $580 -6.5299430509001377 $646 6.5299430509001377 $578 $712 forward 7 unknown #
point $-1 45.971861934263131 20.266790807373415 6.5299430509001377 #
plane-surface $-1 0 20.266790807373415 0 0 -1 0 0 0 -1 forward_v I I I I #
coedge $-1 $588 $587 $600 $670 forward $584 $-1 #
straight-curve $-1 -45.971861934263131 0 6.5299430509001377 0 -1 0 I I #
coedge $-1 $600 $595 $592 $665 reversed $601 $-1 #
edge $-1 $666 -45.971861934263131 $597 45.971861934263131 $664 $713 forward 7 unknown #
vertex $-1 $665 $714 #
straight-curve $-1 -45.971861934263131 0 -6.5299430509001377 0 1 0 I I #
straight-curve $-1 45.971861934263131 20.266790807373415 0 0 0 -1 I I #
point $-1 45.971861934263131 20.266790807373415 -6.5299430509001377 #
edge $-1 $602 -6.5299430509001377 $666 6.5299430509001377 $600 $715 forward 7 unknown #
point $-1 -45.971861934263131 20.266790807373415 6.5299430509001377 #
vertex $-1 $605 $716 #
point $-1 -8.5845882077591469 -18.224705092981246 4.1257268560590772 #
coedge $-1 $717 $718 $609 $675 reversed $695 $-1 #
edge $-1 $677 -6.5299430509001377 $682 6.5299430509001377 $674 $719 forward 7 unknown #
coedge $-1 $610 $624 $717 $720 forward $442 $-1 #
vertex $-1 $720 $721 #
point $-1 -18.169176415518294 -20.266790807373415 6.5299430509001377 #
straight-curve $-1 -18.169176415518294 -20.266790807373425 2.8452200664486753 0 0.51503806187062418 0.85716730853699208 I I #
coedge $-1 $722 $617 $718 $723 forward $631 $-1 #
coedge $-1 $617 $722 $619 $685 forward $631 $-1 #
vertex $-1 $723 $724 #
straight-curve $-1 0 -20.266790807373415 -6.5299430509001377 -1 0 0 I I #
coedge $-1 $620 $619 $725 $726 reversed $621 $-1 #
edge $-1 $727 -20.266790807373415 $622 20.266790807373415 $619 $728 forward 7 unknown #
face $-1 $-1 $621 $19 $-1 $729 reversed single #
point $-1 45.971861934263131 -20.266790807373415 -6.5299430509001377 #
coedge $-1 $725 $730 $624 $689 reversed $731 $-1 #
edge $-1 $690 -45.971861934263131 $732 45.971861934263131 $688 $733 forward 7 unknown #
vertex $-1 $625 $734 #
straight-curve $-1 45.971861934263131 0 6.5299430509001377 0 1 0 I I #
straight-curve $-1 -18.169176415518294 -49.538972566313241 6.5299430509001368 0 1 0 I I #
point $-1 -18.169176415518294 -18.052785950280672 6.5299430509001377 #
face $-1 $686 $731 $19 $-1 $735 reversed single #
loop $-1 $-1 $736 $630 #
plane-surface $-1 -45.971861934263131 0 0 1 0 0 0 0 -1 forward_v I I I I #
plane-surface $-1 45.971861934263131 0 0 -1 0 0 0 0 1 forward_v I I I I #
coedge $-1 $707 $641 $642 $700 reversed $558 $-1 #
edge $-1 $657 -6.5299430509001377 $703 6.5299430509001377 $656 $737 forward 7 unknown #
edge $-1 $701 -20.266790807373415 $703 20.266790807373415 $698 $738 forward 7 unknown #
vertex $-1 $700 $739 #
straight-curve $-1 0 -20.266790807373415 -6.5299430509001377 -1 0 0 I I #
vertex $-1 $645 $740 #
straight-curve $-1 0 20.266790807373415 -6.5299430509001377 1 0 0 I I #
point $-1 45.971861934263131 20.266790807373415 -6.5299430509001377 #
point $-1 45.971861934263131 -20.266790807373415 -6.5299430509001377 #
coedge $-1 $649 $698 $651 $709 reversed $558 $-1 #
straight-curve $-1 -45.971861934263131 0 6.5299430509001377 0 -1 0 I I #
edge $-1 $652 -6.5299430509001377 $701 6.5299430509001377 $707 $741 forward 7 unknown #
point $-1 -45.971861934263131 -20.266790807373415 6.5299430509001377 #
point $-1 -45.971861934263131 20.266790807373415 6.5299430509001377 #
straight-curve $-1 45.971861934263131 20.266790807373415 0 0 0 -1 I I #
straight-curve $-1 0 20.266790807373415 -6.5299430509001377 1 0 0 I I #
point $-1 -45.971861934263131 20.266790807373415 -6.5299430509001377 #
straight-curve $-1 -45.971861934263131 20.266790807373415 0 0 0 -1 I I #
point $-1 -9.0845882077591469 -17.796121438712753 3.8682078251237644 #
coedge $-1 $736 $674 $676 $720 reversed $695 $-1 #
coedge $-1 $674 $736 $680 $723 reversed $695 $-1 #
straight-curve $-1 -45.971861934263131 -20.266790807373415 0 0 0 -1 I I #
edge $-1 $732 -20.266790807373415 $677 20.266790807373415 $717 $742 forward 7 unknown #
point $-1 -45.971861934263131 -20.266790807373415 6.5299430509001377 #
coedge $-1 $681 $680 $743 $744 forward $631 $-1 #
edge $-1 $682 -20.266790807373415 $745 20.266790807373415 $718 $746 forward 7 unknown #
point $-1 -45.971861934263131 -20.266790807373415 -6.5299430509001377 #
coedge $-1 $743 $688 $684 $726 forward $731 $-1 #
edge $-1 $690 -6.5299430509001377 $727 6.5299430509001377 $684 $747 forward 7 unknown #
vertex $-1 $685 $748 #
straight-curve $-1 45.971861934263131 0 -6.5299430509001377 0 -1 0 I I #
plane-surface $-1 45.971861934263131 0 0 -1 0 0 0 0 1 forward_v I I I I #
coedge $-1 $688 $743 $736 $749 reversed $731 $-1 #
loop $-1 $-1 $725 $694 #
vertex $-1 $689 $750 #
straight-curve $-1 0 20.266790807373415 6.5299430509001377 -1 0 0 I I #
point $-1 45.971861934263131 20.266790807373415 6.5299430509001377 #
plane-surface $-1 0 20.266790807373415 0 0 -1 0 0 0 -1 forward_v I I I I #
coedge $-1 $718 $717 $730 $749 forward $695 $-1 #
straight-curve $-1 -45.971861934263131 20.266790807373415 0 0 0 -1 I I #
straight-curve $-1 -45.971861934263131 0 -6.5299430509001377 0 1 0 I I #
point $-1 -45.971861934263131 -20.266790807373415 -6.5299430509001377 #
point $-1 -45.971861934263131 20.266790807373415 -6.5299430509001377 #
straight-curve $-1 -45.971861934263131 -20.266790807373415 0 0 0 -1 I I #
straight-curve $-1 -45.971861934263131 0 6.5299430509001377 0 -1 0 I I #
coedge $-1 $730 $725 $722 $744 reversed $731 $-1 #
edge $-1 $745 -45.971861934263131 $727 45.971861934263131 $743 $751 forward 7 unknown #
vertex $-1 $744 $752 #
straight-curve $-1 -45.971861934263131 0 -6.5299430509001377 0 1 0 I I #
straight-curve $-1 45.971861934263131 20.266790807373415 0 0 0 -1 I I #
point $-1 45.971861934263131 20.266790807373415 -6.5299430509001377 #
edge $-1 $732 -6.5299430509001377 $745 6.5299430509001377 $730 $753 forward 7 unknown #
point $-1 -45.971861934263131 20.266790807373415 6.5299430509001377 #
straight-curve $-1 0 20.266790807373415 -6.5299430509001377 1 0 0 I I #
point $-1 -45.971861934263131 20.266790807373415 -6.5299430509001377 #
straight-curve $-1 -45.971861934263131 20.266790807373415 0 0 0 -1 I I #
End-of-ACIS-data 