500 0 11 0           
7 Unknown 11 ACIS 5.0 NT 24 Fri Mar 26 17:26:37 1999 
-1 9.9999999999999995e-007 1e-010 
body $-1 $11 $-1 $12 #
body $-1 $13 $-1 $14 #
body $-1 $15 $-1 $16 #
body $-1 $17 $-1 $18 #
body $-1 $19 $-1 $20 #
body $-1 $21 $-1 $22 #
body $-1 $23 $-1 $24 #
body $-1 $25 $-1 $26 #
body $-1 $27 $-1 $28 #
body $-1 $29 $-1 $30 #
body $-1 $31 $-1 $32 #
lump $-1 $-1 $33 $0 #
transform $-1 1 0 0 0 1 0 0 0 1 74.627521591845465 51.715890851716487 10.736172854692716 1 rotate no_reflect no_shear #
lump $-1 $-1 $34 $1 #
transform $-1 1 0 0 0 1 0 0 0 1 74.627521591845465 51.715890851716487 10.736172854692716 1 rotate no_reflect no_shear #
lump $-1 $-1 $35 $2 #
transform $-1 1 0 0 0 1 0 0 0 1 74.627521591845465 51.715890851716487 10.736172854692716 1 rotate no_reflect no_shear #
lump $-1 $-1 $36 $3 #
transform $-1 1 0 0 0 1 0 0 0 1 74.627521591845465 51.715890851716487 10.736172854692716 1 rotate no_reflect no_shear #
lump $-1 $-1 $37 $4 #
transform $-1 1 0 0 0 1 0 0 0 1 74.627521591845465 51.715890851716487 10.736172854692716 1 rotate no_reflect no_shear #
lump $-1 $-1 $38 $5 #
transform $-1 1 0 0 0 1 0 0 0 1 74.627521591845465 51.715890851716487 10.736172854692716 1 rotate no_reflect no_shear #
lump $-1 $-1 $39 $6 #
transform $-1 1 0 0 0 1 0 0 0 1 74.627521591845465 51.715890851716487 10.736172854692716 1 rotate no_reflect no_shear #
lump $-1 $-1 $40 $7 #
transform $-1 1 0 0 0 1 0 0 0 1 74.627521591845465 51.715890851716487 10.736172854692716 1 rotate no_reflect no_shear #
lump $-1 $-1 $41 $8 #
transform $-1 1 0 0 0 1 0 0 0 1 74.627521591845465 51.715890851716487 10.736172854692716 1 rotate no_reflect no_shear #
lump $-1 $-1 $42 $9 #
transform $-1 1 0 0 0 1 0 0 0 1 74.627521591845465 51.715890851716487 10.736172854692716 1 rotate no_reflect no_shear #
lump $-1 $-1 $43 $10 #
transform $-1 1 0 0 0 1 0 0 0 1 74.627521591845465 51.715890851716487 10.736172854692716 1 rotate no_reflect no_shear #
shell $-1 $-1 $-1 $44 $-1 $11 #
shell $-1 $-1 $-1 $45 $-1 $13 #
shell $-1 $-1 $-1 $46 $-1 $15 #
shell $-1 $-1 $-1 $47 $-1 $17 #
shell $-1 $-1 $-1 $48 $-1 $19 #
shell $-1 $-1 $-1 $49 $-1 $21 #
shell $-1 $-1 $-1 $50 $-1 $23 #
shell $-1 $-1 $-1 $51 $-1 $25 #
shell $-1 $-1 $-1 $52 $-1 $27 #
shell $-1 $-1 $-1 $53 $-1 $29 #
shell $-1 $-1 $-1 $54 $-1 $31 #
face $-1 $55 $56 $33 $-1 $57 forward single #
face $-1 $58 $59 $34 $-1 $60 forward single #
face $-1 $61 $62 $35 $-1 $63 forward single #
face $-1 $64 $65 $36 $-1 $66 reversed single #
face $-1 $67 $68 $37 $-1 $69 forward single #
face $-1 $70 $71 $38 $-1 $72 forward single #
face $-1 $73 $74 $39 $-1 $75 forward single #
face $-1 $76 $77 $40 $-1 $78 reversed single #
face $-1 $79 $80 $41 $-1 $81 forward single #
face $-1 $82 $83 $42 $-1 $84 forward single #
face $-1 $85 $86 $43 $-1 $87 forward single #
face $-1 $88 $89 $33 $-1 $90 reversed single #
loop $-1 $-1 $91 $44 #
plane-surface $-1 0 0 10.736172854692716 0 0 1 1 0 0 forward_v I I I I #
face $-1 $92 $93 $34 $-1 $94 reversed single #
loop $-1 $-1 $95 $45 #
plane-surface $-1 -68.039023233125135 0 -5.450687494782132 0 0 1 1 0 0 forward_v I I I I #
face $-1 $96 $97 $35 $-1 $98 reversed single #
loop $-1 $-1 $99 $46 #
plane-surface $-1 68.039023233125135 0 -5.450687494782132 0 0 1 1 0 0 forward_v I I I I #
face $-1 $100 $101 $36 $-1 $102 reversed single #
loop $-1 $-1 $103 $47 #
plane-surface $-1 -39.7149234803084 -137.3250677317622 128.57673682037145 1 0 0 0 0.57357644374324357 -0.81915203911291934 forward_v I I I I #
face $-1 $104 $105 $37 $-1 $106 forward single #
loop $-1 $107 $108 $48 #
cone-surface $-1 -35.414905795624868 -47.660354500002065 7.2428417953285766 0 0.57357644374324357 -0.81915203911291934 1 0 0 1 I I 0 1 1 forward I I I I #
face $-1 $109 $110 $38 $-1 $111 forward single #
loop $-1 $112 $113 $49 #
cone-surface $-1 -28.964879268599574 -47.660354500002065 7.2428417953285766 0 0.57357644374324357 -0.81915203911291934 1 0 0 1 I I 0 1 1 forward I I I I #
face $-1 $114 $115 $39 $-1 $116 forward single #
loop $-1 $117 $118 $50 #
cone-surface $-1 -22.514852741574273 -47.660354500002065 7.2428417953285766 0 0.57357644374324357 -0.81915203911291934 1 0 0 1 I I 0 1 1 forward I I I I #
face $-1 $119 $120 $40 $-1 $121 reversed single #
loop $-1 $-1 $122 $51 #
plane-surface $-1 18.214835056890731 -137.3250677317622 128.57673682037145 1 0 0 0 0.57357644374324357 -0.81915203911291934 forward_v I I I I #
face $-1 $123 $124 $41 $-1 $125 forward single #
loop $-1 $126 $127 $52 #
cone-surface $-1 22.514852741574259 -47.660354500002065 7.2428417953285766 0 0.57357644374324357 -0.81915203911291934 1 0 0 1 I I 0 1 1 forward I I I I #
face $-1 $128 $129 $42 $-1 $130 forward single #
loop $-1 $131 $132 $53 #
cone-surface $-1 28.96487926859956 -47.660354500002065 7.2428417953285766 0 0.57357644374324357 -0.81915203911291934 1 0 0 1 I I 0 1 1 forward I I I I #
face $-1 $133 $134 $43 $-1 $135 forward single #
loop $-1 $136 $137 $54 #
cone-surface $-1 35.414905795624861 -47.660354500002065 7.2428417953285766 0 0.57357644374324357 -0.81915203911291934 1 0 0 1 I I 0 1 1 forward I I I I #
face $-1 $138 $139 $33 $-1 $140 reversed single #
loop $-1 $-1 $141 $55 #
plane-surface $-1 0 0 -10.736172854692716 0 0 1 1 0 0 forward_v I I I I #
coedge $-1 $142 $143 $144 $145 forward $56 $-1 #
face $-1 $146 $147 $34 $-1 $148 reversed single #
loop $-1 $-1 $149 $58 #
plane-surface $-1 -61.450524874404799 0 -8.0934301747374242 -1 0 0 0 0 1 forward_v I I I I #
coedge $-1 $150 $151 $152 $153 forward $59 $-1 #
face $-1 $154 $155 $35 $-1 $156 reversed single #
loop $-1 $-1 $157 $61 #
plane-surface $-1 61.450524874404806 0 -8.0934301747374242 1 0 0 0 0 -1 forward_v I I I I #
coedge $-1 $158 $159 $160 $161 reversed $62 $-1 #
face $-1 $162 $163 $36 $-1 $164 reversed single #
loop $-1 $-1 $165 $64 #
plane-surface $-1 -28.964879268599574 -51.715890851716509 6.314163848564192 0 -0.57357644374324357 0.81915203911291934 1 0 0 forward_v I I I I #
coedge $-1 $166 $167 $168 $169 reversed $65 $-1 #
face $-1 $-1 $170 $37 $-1 $171 forward single #
loop $-1 $172 $173 $67 #
cone-surface $-1 -35.414905795624868 -46.475671539717169 5.5509392194722533 0 0.57357644374324357 -0.81915203911291934 0.5 0 0 1 I I -0.70710678118654746 0.70710678118654746 0.5 forward I I I I #
loop $-1 $-1 $174 $48 #
coedge $-1 $108 $108 $175 $176 reversed $68 $-1 #
face $-1 $-1 $177 $38 $-1 $178 forward single #
loop $-1 $179 $180 $70 #
cone-surface $-1 -28.964879268599574 -46.475671539717169 5.5509392194722533 0 0.57357644374324357 -0.81915203911291934 0.5 0 0 1 I I -0.70710678118654746 0.70710678118654746 0.5 forward I I I I #
loop $-1 $-1 $181 $49 #
coedge $-1 $113 $113 $182 $183 reversed $71 $-1 #
face $-1 $-1 $184 $39 $-1 $185 forward single #
loop $-1 $186 $187 $73 #
cone-surface $-1 -22.514852741574273 -46.475671539717169 5.5509392194722533 0 0.57357644374324357 -0.81915203911291934 0.5 0 0 1 I I -0.70710678118654746 0.70710678118654746 0.5 forward I I I I #
loop $-1 $-1 $188 $50 #
coedge $-1 $118 $118 $189 $190 reversed $74 $-1 #
face $-1 $191 $192 $40 $-1 $193 reversed single #
loop $-1 $-1 $194 $76 #
plane-surface $-1 28.96487926859956 -51.715890851716509 6.314163848564192 0 -0.57357644374324357 0.81915203911291934 1 0 0 forward_v I I I I #
coedge $-1 $195 $196 $197 $198 reversed $77 $-1 #
face $-1 $-1 $199 $41 $-1 $200 forward single #
loop $-1 $201 $202 $79 #
cone-surface $-1 22.514852741574259 -46.475671539717169 5.5509392194722533 0 0.57357644374324357 -0.81915203911291934 0.5 0 0 1 I I -0.70710678118654746 0.70710678118654746 0.5 forward I I I I #
loop $-1 $-1 $203 $52 #
coedge $-1 $127 $127 $204 $205 reversed $80 $-1 #
face $-1 $-1 $206 $42 $-1 $207 forward single #
loop $-1 $208 $209 $82 #
cone-surface $-1 28.96487926859956 -46.475671539717169 5.5509392194722533 0 0.57357644374324357 -0.81915203911291934 0.5 0 0 1 I I -0.70710678118654746 0.70710678118654746 0.5 forward I I I I #
loop $-1 $-1 $210 $53 #
coedge $-1 $132 $132 $211 $212 reversed $83 $-1 #
face $-1 $-1 $213 $43 $-1 $214 forward single #
loop $-1 $215 $216 $85 #
cone-surface $-1 35.414905795624861 -46.475671539717169 5.5509392194722533 0 0.57357644374324357 -0.81915203911291934 0.5 0 0 1 I I -0.70710678118654746 0.70710678118654746 0.5 forward I I I I #
loop $-1 $-1 $217 $54 #
coedge $-1 $137 $137 $218 $219 reversed $86 $-1 #
face $-1 $220 $221 $33 $-1 $222 reversed single #
loop $-1 $-1 $223 $88 #
plane-surface $-1 0 -51.715890851716487 0 0 1 0 0 0 1 forward_v I I I I #
coedge $-1 $224 $225 $226 $227 forward $89 $-1 #
coedge $-1 $228 $91 $229 $230 forward $56 $-1 #
coedge $-1 $91 $228 $231 $232 forward $56 $-1 #
coedge $-1 $233 $234 $91 $145 reversed $235 $-1 #
edge $-1 $236 -51.715890851716487 $237 51.715890851716487 $144 $238 forward 7 unknown #
face $-1 $239 $240 $34 $-1 $241 reversed single #
loop $-1 $-1 $242 $92 #
plane-surface $-1 0 0 -10.736172854692716 0 0 1 1 0 0 forward_v I I I I #
coedge $-1 $243 $152 $244 $245 reversed $93 $-1 #
coedge $-1 $246 $95 $247 $248 reversed $59 $-1 #
coedge $-1 $95 $246 $249 $250 reversed $59 $-1 #
coedge $-1 $149 $251 $95 $153 reversed $93 $-1 #
edge $-1 $252 -51.715890851716487 $253 51.715890851716487 $152 $254 forward 7 unknown #
face $-1 $255 $256 $35 $-1 $257 reversed single #
loop $-1 $-1 $258 $96 #
plane-surface $-1 0 -51.715890851716487 0 0 1 0 0 0 1 forward_v I I I I #
coedge $-1 $259 $260 $261 $262 reversed $97 $-1 #
coedge $-1 $263 $99 $264 $265 reversed $62 $-1 #
coedge $-1 $99 $263 $258 $266 reversed $62 $-1 #
coedge $-1 $267 $268 $99 $161 forward $269 $-1 #
edge $-1 $270 -51.715890851716487 $271 51.715890851716487 $160 $272 forward 7 unknown #
face $-1 $273 $274 $36 $-1 $275 forward single #
loop $-1 $-1 $276 $100 #
plane-surface $-1 -18.214835056890745 -137.3250677317622 128.57673682037145 -1 0 0 0 -0.57357644374324357 0.81915203911291934 forward_v I I I I #
coedge $-1 $277 $278 $279 $280 reversed $101 $-1 #
coedge $-1 $167 $103 $281 $282 reversed $65 $-1 #
coedge $-1 $103 $166 $277 $283 reversed $65 $-1 #
coedge $-1 $279 $284 $103 $169 forward $285 $-1 #
edge $-1 $286 53.552195555493007 $287 57.974204561621519 $168 $288 forward 7 unknown #
loop $-1 $-1 $175 $104 #
plane-surface $-1 -28.964879268599574 -51.715890851716509 6.314163848564192 0 -0.57357644374324357 0.81915203911291934 1 0 0 forward_v I I I I #
loop $-1 $-1 $289 $67 #
coedge $-1 $173 $173 $174 $290 reversed $105 $-1 #
coedge $-1 $174 $174 $173 $290 forward $107 $-1 #
coedge $-1 $175 $175 $108 $176 forward $170 $-1 #
edge $-1 $291 1.4037646728562544e-016 $291 6.2831853071796004 $175 $292 forward 7 unknown #
loop $-1 $-1 $182 $109 #
plane-surface $-1 -28.964879268599574 -51.715890851716509 6.314163848564192 0 -0.57357644374324357 0.81915203911291934 1 0 0 forward_v I I I I #
loop $-1 $-1 $293 $70 #
coedge $-1 $180 $180 $181 $294 reversed $110 $-1 #
coedge $-1 $181 $181 $180 $294 forward $112 $-1 #
coedge $-1 $182 $182 $113 $183 forward $177 $-1 #
edge $-1 $295 1.4037646728562544e-016 $295 6.2831853071796004 $182 $296 forward 7 unknown #
loop $-1 $-1 $189 $114 #
plane-surface $-1 -28.964879268599574 -51.715890851716509 6.314163848564192 0 -0.57357644374324357 0.81915203911291934 1 0 0 forward_v I I I I #
loop $-1 $-1 $297 $73 #
coedge $-1 $187 $187 $188 $298 reversed $115 $-1 #
coedge $-1 $188 $188 $187 $298 forward $117 $-1 #
coedge $-1 $189 $189 $118 $190 forward $184 $-1 #
edge $-1 $299 1.4037646728562544e-016 $299 6.2831853071796004 $189 $300 forward 7 unknown #
face $-1 $301 $302 $40 $-1 $303 reversed single #
loop $-1 $-1 $304 $119 #
plane-surface $-1 39.714923480308386 -137.3250677317622 128.57673682037145 -1 0 0 0 -0.57357644374324357 0.81915203911291934 forward_v I I I I #
coedge $-1 $305 $306 $307 $308 reversed $120 $-1 #
coedge $-1 $196 $122 $309 $310 reversed $77 $-1 #
coedge $-1 $122 $195 $305 $311 reversed $77 $-1 #
coedge $-1 $307 $312 $122 $198 forward $302 $-1 #
edge $-1 $313 53.552195555493007 $314 57.974204561621519 $197 $315 forward 7 unknown #
loop $-1 $-1 $204 $123 #
plane-surface $-1 28.96487926859956 -51.715890851716509 6.314163848564192 0 -0.57357644374324357 0.81915203911291934 1 0 0 forward_v I I I I #
loop $-1 $-1 $316 $79 #
coedge $-1 $202 $202 $203 $317 reversed $124 $-1 #
coedge $-1 $203 $203 $202 $317 forward $126 $-1 #
coedge $-1 $204 $204 $127 $205 forward $199 $-1 #
edge $-1 $318 1.4037646728562544e-016 $318 6.2831853071796004 $204 $319 forward 7 unknown #
loop $-1 $-1 $211 $128 #
plane-surface $-1 28.96487926859956 -51.715890851716509 6.314163848564192 0 -0.57357644374324357 0.81915203911291934 1 0 0 forward_v I I I I #
loop $-1 $-1 $320 $82 #
coedge $-1 $209 $209 $210 $321 reversed $129 $-1 #
coedge $-1 $210 $210 $209 $321 forward $131 $-1 #
coedge $-1 $211 $211 $132 $212 forward $206 $-1 #
edge $-1 $322 1.4037646728562544e-016 $322 6.2831853071796004 $211 $323 forward 7 unknown #
loop $-1 $-1 $218 $133 #
plane-surface $-1 28.96487926859956 -51.715890851716509 6.314163848564192 0 -0.57357644374324357 0.81915203911291934 1 0 0 forward_v I I I I #
loop $-1 $-1 $324 $85 #
coedge $-1 $216 $216 $217 $325 reversed $134 $-1 #
coedge $-1 $217 $217 $216 $325 forward $136 $-1 #
coedge $-1 $218 $218 $137 $219 forward $213 $-1 #
edge $-1 $326 1.4037646728562544e-016 $326 6.2831853071796004 $218 $327 forward 7 unknown #
face $-1 $328 $329 $33 $-1 $330 reversed single #
loop $-1 $-1 $331 $138 #
plane-surface $-1 -74.627521591845465 0 0 1 0 0 0 0 -1 forward_v I I I I #
coedge $-1 $332 $231 $333 $334 forward $139 $-1 #
coedge $-1 $335 $141 $332 $336 forward $89 $-1 #
coedge $-1 $141 $335 $337 $338 forward $89 $-1 #
coedge $-1 $234 $233 $141 $227 reversed $235 $-1 #
edge $-1 $339 -51.715890851716487 $340 51.715890851716487 $226 $341 forward 7 unknown #
coedge $-1 $143 $142 $342 $343 forward $56 $-1 #
coedge $-1 $344 $345 $142 $230 reversed $329 $-1 #
edge $-1 $237 -74.627521591845465 $346 74.627521591845465 $229 $347 forward 7 unknown #
coedge $-1 $223 $348 $143 $232 reversed $139 $-1 #
edge $-1 $349 -74.627521591845465 $236 74.627521591845465 $231 $350 forward 7 unknown #
coedge $-1 $226 $144 $348 $351 forward $235 $-1 #
coedge $-1 $144 $226 $344 $352 reversed $235 $-1 #
loop $-1 $-1 $233 $328 #
vertex $-1 $145 $353 #
vertex $-1 $145 $354 #
straight-curve $-1 74.627521591845465 0 10.736172854692716 0 1 0 I I #
face $-1 $355 $356 $34 $-1 $357 reversed single #
loop $-1 $-1 $244 $146 #
plane-surface $-1 0 -51.715890851716487 0 0 1 0 0 0 1 forward_v I I I I #
coedge $-1 $358 $359 $243 $360 forward $147 $-1 #
coedge $-1 $251 $149 $242 $360 reversed $93 $-1 #
coedge $-1 $249 $361 $149 $245 forward $240 $-1 #
edge $-1 $362 -6.6894577673240043 $252 -1.4039724074134199 $244 $363 forward 7 unknown #
coedge $-1 $151 $150 $364 $365 reversed $59 $-1 #
coedge $-1 $366 $367 $150 $248 forward $368 $-1 #
edge $-1 $369 -40.608009975282897 $253 -27.431013257842231 $247 $370 forward 7 unknown #
coedge $-1 $371 $244 $151 $250 forward $240 $-1 #
edge $-1 $252 27.431013257842231 $372 40.608009975282897 $249 $373 forward 7 unknown #
coedge $-1 $152 $243 $366 $374 reversed $93 $-1 #
vertex $-1 $250 $375 #
vertex $-1 $248 $376 #
straight-curve $-1 -61.450524874404799 0 -5.450687494782132 0 1 0 I I #
face $-1 $377 $378 $35 $-1 $379 reversed single #
loop $-1 $-1 $380 $154 #
plane-surface $-1 0 0 -10.736172854692716 0 0 1 1 0 0 forward_v I I I I #
coedge $-1 $381 $382 $159 $266 forward $155 $-1 #
coedge $-1 $383 $157 $380 $384 reversed $97 $-1 #
coedge $-1 $157 $383 $263 $385 reversed $97 $-1 #
coedge $-1 $264 $386 $157 $262 forward $378 $-1 #
edge $-1 $387 -6.6894577673240043 $388 -1.4039724074134199 $261 $389 forward 7 unknown #
coedge $-1 $159 $158 $260 $385 forward $62 $-1 #
coedge $-1 $390 $261 $158 $265 forward $378 $-1 #
edge $-1 $388 27.431013257842238 $270 40.608009975282897 $264 $391 forward 7 unknown #
edge $-1 $271 -40.608009975282897 $392 -27.431013257842238 $258 $393 forward 7 unknown #
coedge $-1 $394 $160 $382 $395 forward $269 $-1 #
coedge $-1 $160 $394 $390 $396 reversed $269 $-1 #
loop $-1 $-1 $160 $377 #
vertex $-1 $396 $397 #
vertex $-1 $395 $398 #
straight-curve $-1 74.627521591845465 0 -5.450687494782132 0 -1 0 I I #
face $-1 $-1 $285 $36 $-1 $399 reversed single #
loop $-1 $-1 $400 $162 #
plane-surface $-1 0 0 10.736172854692716 0 0 1 1 0 0 forward_v I I I I #
coedge $-1 $401 $402 $403 $404 reversed $163 $-1 #
coedge $-1 $405 $165 $167 $283 forward $101 $-1 #
coedge $-1 $165 $405 $401 $406 forward $101 $-1 #
coedge $-1 $403 $168 $165 $280 forward $285 $-1 #
edge $-1 $287 -25.232483846008613 $407 -3.7323954225909581 $279 $408 forward 7 unknown #
coedge $-1 $409 $410 $166 $282 forward $274 $-1 #
edge $-1 $411 -23.26192624076684 $286 -16.946643014164614 $281 $412 forward 7 unknown #
edge $-1 $287 2.6121725655721309e-014 $411 7.7095373325826415 $167 $413 forward 7 unknown #
coedge $-1 $168 $403 $409 $414 reversed $285 $-1 #
loop $-1 $-1 $403 $273 #
vertex $-1 $414 $415 #
vertex $-1 $169 $416 #
straight-curve $-1 -39.7149234803084 -51.715890851716487 64.288368410185726 0 0 -1 I I #
coedge $-1 $289 $289 $-1 $417 reversed $172 $-1 #
edge $-1 $418 0 $418 6.2831853071796004 $173 $419 forward 7 unknown #
vertex $-1 $176 $420 #
ellipse-curve $-1 -35.414905795624868 -48.558249238415364 8.5251683516284711 0 -0.57357644374324357 0.81915203911291934 1 0 0 1 I I #
coedge $-1 $293 $293 $-1 $421 reversed $179 $-1 #
edge $-1 $422 0 $422 6.2831853071796004 $180 $423 forward 7 unknown #
vertex $-1 $183 $424 #
ellipse-curve $-1 -28.964879268599574 -48.558249238415364 8.5251683516284711 0 -0.57357644374324357 0.81915203911291934 1 0 0 1 I I #
coedge $-1 $297 $297 $-1 $425 reversed $186 $-1 #
edge $-1 $426 0 $426 6.2831853071796004 $187 $427 forward 7 unknown #
vertex $-1 $190 $428 #
ellipse-curve $-1 -22.514852741574273 -48.558249238415364 8.5251683516284711 0 -0.57357644374324357 0.81915203911291934 1 0 0 1 I I #
face $-1 $-1 $429 $40 $-1 $430 forward single #
loop $-1 $-1 $197 $191 #
plane-surface $-1 0 -51.715890851716487 0 0 1 0 0 0 1 forward_v I I I I #
coedge $-1 $431 $432 $433 $434 reversed $192 $-1 #
coedge $-1 $435 $194 $196 $311 forward $120 $-1 #
coedge $-1 $194 $435 $431 $436 forward $120 $-1 #
coedge $-1 $433 $197 $194 $308 forward $302 $-1 #
edge $-1 $314 3.732395422590951 $437 25.232483846008606 $307 $438 forward 7 unknown #
coedge $-1 $439 $440 $195 $310 forward $429 $-1 #
edge $-1 $441 -23.26192624076684 $313 -16.946643014164614 $309 $442 forward 7 unknown #
edge $-1 $314 2.6121725655721309e-014 $441 7.7095373325826415 $196 $443 forward 7 unknown #
coedge $-1 $197 $433 $439 $444 reversed $302 $-1 #
vertex $-1 $444 $445 #
vertex $-1 $198 $446 #
straight-curve $-1 18.214835056890731 -51.715890851716487 64.288368410185726 0 0 -1 I I #
coedge $-1 $316 $316 $-1 $447 reversed $201 $-1 #
edge $-1 $448 0 $448 6.2831853071796004 $202 $449 forward 7 unknown #
vertex $-1 $205 $450 #
ellipse-curve $-1 22.514852741574259 -48.558249238415364 8.5251683516284711 0 -0.57357644374324357 0.81915203911291934 1 0 0 1 I I #
coedge $-1 $320 $320 $-1 $451 reversed $208 $-1 #
edge $-1 $452 0 $452 6.2831853071796004 $209 $453 forward 7 unknown #
vertex $-1 $212 $454 #
ellipse-curve $-1 28.96487926859956 -48.558249238415364 8.5251683516284711 0 -0.57357644374324357 0.81915203911291934 1 0 0 1 I I #
coedge $-1 $324 $324 $-1 $455 reversed $215 $-1 #
edge $-1 $456 0 $456 6.2831853071796004 $216 $457 forward 7 unknown #
vertex $-1 $219 $458 #
ellipse-curve $-1 35.414905795624861 -48.558249238415364 8.5251683516284711 0 -0.57357644374324357 0.81915203911291934 1 0 0 1 I I #
face $-1 $-1 $235 $33 $-1 $459 reversed single #
loop $-1 $-1 $344 $220 #
plane-surface $-1 0 51.715890851716487 0 0 -1 0 0 0 -1 forward_v I I I I #
coedge $-1 $460 $342 $345 $461 forward $221 $-1 #
coedge $-1 $348 $223 $224 $336 reversed $139 $-1 #
coedge $-1 $342 $460 $223 $334 reversed $221 $-1 #
edge $-1 $349 -10.736172854692716 $462 10.736172854692716 $333 $463 forward 7 unknown #
coedge $-1 $225 $224 $460 $464 forward $89 $-1 #
edge $-1 $340 -74.627521591845465 $462 74.627521591845465 $332 $465 forward 7 unknown #
coedge $-1 $345 $344 $225 $338 reversed $329 $-1 #
edge $-1 $466 -74.627521591845465 $339 74.627521591845465 $337 $467 forward 7 unknown #
vertex $-1 $227 $468 #
vertex $-1 $351 $469 #
straight-curve $-1 74.627521591845465 0 -10.736172854692716 0 -1 0 I I #
coedge $-1 $331 $333 $228 $343 reversed $221 $-1 #
edge $-1 $346 -51.715890851716487 $349 51.715890851716487 $342 $470 forward 7 unknown #
coedge $-1 $337 $229 $234 $352 forward $329 $-1 #
coedge $-1 $229 $337 $331 $461 reversed $329 $-1 #
vertex $-1 $230 $471 #
straight-curve $-1 0 51.715890851716487 10.736172854692716 -1 0 0 I I #
coedge $-1 $231 $332 $233 $351 reversed $139 $-1 #
vertex $-1 $343 $472 #
straight-curve $-1 0 -51.715890851716487 10.736172854692716 1 0 0 I I #
edge $-1 $236 -10.736172854692716 $340 10.736172854692716 $233 $473 forward 7 unknown #
edge $-1 $237 -10.736172854692716 $339 10.736172854692716 $234 $474 forward 7 unknown #
point $-1 74.627521591845465 -51.715890851716487 10.736172854692716 #
point $-1 74.627521591845465 51.715890851716487 10.736172854692716 #
face $-1 $-1 $368 $34 $-1 $475 reversed single #
loop $-1 $-1 $364 $239 #
plane-surface $-1 -74.627521591845465 0 0 1 0 0 0 0 -1 forward_v I I I I #
coedge $-1 $476 $242 $361 $477 forward $147 $-1 #
coedge $-1 $242 $476 $478 $479 forward $147 $-1 #
edge $-1 $480 -51.715890851716487 $362 51.715890851716487 $242 $481 forward 7 unknown #
coedge $-1 $244 $371 $358 $477 reversed $240 $-1 #
vertex $-1 $477 $482 #
straight-curve $-1 -61.450524874404799 -51.715890851716487 -4.0467150873687121 0 0 1 I I #
coedge $-1 $483 $484 $246 $365 forward $356 $-1 #
edge $-1 $372 -51.715890851716487 $369 51.715890851716487 $364 $485 forward 7 unknown #
coedge $-1 $478 $247 $251 $374 forward $368 $-1 #
coedge $-1 $247 $478 $483 $486 reversed $368 $-1 #
loop $-1 $-1 $366 $355 #
vertex $-1 $486 $487 #
straight-curve $-1 -34.019511616562568 51.715890851716487 -5.450687494782132 1 0 0 I I #
coedge $-1 $361 $249 $484 $488 forward $240 $-1 #
vertex $-1 $488 $489 #
straight-curve $-1 -34.019511616562568 -51.715890851716487 -5.450687494782132 -1 0 0 I I #
edge $-1 $253 1.4039724074134199 $480 6.6894577673240043 $366 $490 forward 7 unknown #
point $-1 -61.450524874404799 -51.715890851716487 -5.450687494782132 #
point $-1 -61.450524874404799 51.715890851716487 -5.450687494782132 #
face $-1 $-1 $269 $35 $-1 $491 reversed single #
loop $-1 $-1 $264 $255 #
plane-surface $-1 0 51.715890851716487 0 0 -1 0 0 0 -1 forward_v I I I I #
coedge $-1 $492 $493 $259 $384 forward $256 $-1 #
coedge $-1 $494 $258 $383 $495 forward $155 $-1 #
coedge $-1 $258 $494 $267 $395 reversed $155 $-1 #
coedge $-1 $260 $259 $381 $495 reversed $97 $-1 #
edge $-1 $496 -51.715890851716487 $387 51.715890851716487 $380 $497 forward 7 unknown #
edge $-1 $388 -51.715890851716487 $392 51.715890851716487 $260 $498 forward 7 unknown #
coedge $-1 $261 $390 $492 $499 reversed $378 $-1 #
vertex $-1 $499 $500 #
vertex $-1 $265 $501 #
straight-curve $-1 61.450524874404806 51.715890851716487 -4.0467150873687121 0 0 1 I I #
coedge $-1 $386 $264 $268 $396 forward $378 $-1 #
straight-curve $-1 34.019511616562568 51.715890851716487 -5.450687494782132 1 0 0 I I #
vertex $-1 $266 $502 #
straight-curve $-1 34.019511616562568 -51.715890851716487 -5.450687494782132 -1 0 0 I I #
coedge $-1 $268 $267 $503 $504 reversed $269 $-1 #
edge $-1 $271 5.450687494782132 $505 10.736172854692716 $267 $506 forward 7 unknown #
edge $-1 $270 5.450687494782132 $507 10.736172854692716 $268 $508 forward 7 unknown #
point $-1 74.627521591845465 51.715890851716487 -5.450687494782132 #
point $-1 74.627521591845465 -51.715890851716487 -5.450687494782132 #
plane-surface $-1 0 -51.715890851716487 0 0 1 0 0 0 1 forward_v I I I I #
coedge $-1 $410 $409 $402 $509 forward $274 $-1 #
coedge $-1 $402 $276 $278 $406 reversed $163 $-1 #
coedge $-1 $276 $401 $400 $509 reversed $163 $-1 #
coedge $-1 $284 $279 $276 $404 forward $285 $-1 #
edge $-1 $407 -57.974204561621519 $510 -53.552195555493007 $403 $511 forward 7 unknown #
coedge $-1 $278 $277 $410 $512 reversed $101 $-1 #
edge $-1 $513 -7.7095373325826415 $407 -2.6121725655721309e-014 $401 $514 forward 7 unknown #
vertex $-1 $280 $515 #
straight-curve $-1 -14.482439634299787 -51.715890851716487 6.3141638485642062 1 0 0 I I #
coedge $-1 $400 $281 $284 $414 forward $274 $-1 #
coedge $-1 $281 $400 $405 $512 forward $274 $-1 #
vertex $-1 $282 $516 #
straight-curve $-1 -39.7149234803084 -68.662533865881102 10.736172854692718 0 -1 0 I I #
straight-curve $-1 -39.7149234803084 -51.715890851716509 6.314163848564192 0 0.81915203911291934 0.57357644374324357 I I #
edge $-1 $286 -39.7149234803084 $510 -18.214835056890745 $284 $517 forward 7 unknown #
point $-1 -39.7149234803084 -51.715890851716487 10.736172854692716 #
point $-1 -39.7149234803084 -51.715890851716487 6.3141638485642071 #
edge $-1 $518 1 $518 0 $289 $-1 forward 7 unknown #
vertex $-1 $290 $519 #
ellipse-curve $-1 -35.414905795624868 -46.762459761588794 5.9605152390287133 0 -0.57357644374324357 0.81915203911291934 1 0 0 1 I I #
point $-1 -34.414905795624868 -48.558249238415343 8.5251683516284409 #
edge $-1 $520 1 $520 0 $293 $-1 forward 7 unknown #
vertex $-1 $294 $521 #
ellipse-curve $-1 -28.964879268599574 -46.762459761588794 5.9605152390287133 0 -0.57357644374324357 0.81915203911291934 1 0 0 1 I I #
point $-1 -27.964879268599574 -48.558249238415343 8.5251683516284409 #
edge $-1 $522 1 $522 0 $297 $-1 forward 7 unknown #
vertex $-1 $298 $523 #
ellipse-curve $-1 -22.514852741574273 -46.762459761588794 5.9605152390287133 0 -0.57357644374324357 0.81915203911291934 1 0 0 1 I I #
point $-1 -21.514852741574273 -48.558249238415343 8.5251683516284409 #
loop $-1 $-1 $309 $301 #
plane-surface $-1 0 0 10.736172854692716 0 0 1 1 0 0 forward_v I I I I #
coedge $-1 $432 $304 $306 $436 reversed $192 $-1 #
coedge $-1 $304 $431 $524 $525 reversed $192 $-1 #
coedge $-1 $312 $307 $304 $434 forward $302 $-1 #
edge $-1 $437 -57.974204561621519 $526 -53.552195555493007 $433 $527 forward 7 unknown #
coedge $-1 $306 $305 $440 $528 reversed $120 $-1 #
edge $-1 $529 -7.7095373325826415 $437 -2.6121725655721309e-014 $431 $530 forward 7 unknown #
vertex $-1 $308 $531 #
straight-curve $-1 14.48243963429978 -51.715890851716487 6.3141638485642062 1 0 0 I I #
coedge $-1 $524 $309 $312 $444 forward $429 $-1 #
coedge $-1 $309 $524 $435 $528 forward $429 $-1 #
vertex $-1 $310 $532 #
straight-curve $-1 18.214835056890731 -68.662533865881102 10.736172854692718 0 -1 0 I I #
straight-curve $-1 18.214835056890731 -51.715890851716509 6.314163848564192 0 0.81915203911291934 0.57357644374324357 I I #
edge $-1 $313 18.214835056890731 $526 39.714923480308386 $312 $533 forward 7 unknown #
point $-1 18.214835056890731 -51.715890851716487 10.736172854692716 #
point $-1 18.214835056890731 -51.715890851716487 6.3141638485642071 #
edge $-1 $534 1 $534 0 $316 $-1 forward 7 unknown #
vertex $-1 $317 $535 #
ellipse-curve $-1 22.514852741574259 -46.762459761588794 5.9605152390287133 0 -0.57357644374324357 0.81915203911291934 1 0 0 1 I I #
point $-1 23.514852741574259 -48.558249238415343 8.5251683516284409 #
edge $-1 $536 1 $536 0 $320 $-1 forward 7 unknown #
vertex $-1 $321 $537 #
ellipse-curve $-1 28.96487926859956 -46.762459761588794 5.9605152390287133 0 -0.57357644374324357 0.81915203911291934 1 0 0 1 I I #
point $-1 29.96487926859956 -48.558249238415343 8.5251683516284409 #
edge $-1 $538 1 $538 0 $324 $-1 forward 7 unknown #
vertex $-1 $325 $539 #
ellipse-curve $-1 35.414905795624861 -46.762459761588794 5.9605152390287133 0 -0.57357644374324357 0.81915203911291934 1 0 0 1 I I #
point $-1 36.414905795624861 -48.558249238415343 8.5251683516284409 #
plane-surface $-1 74.627521591845465 0 0 -1 0 0 0 0 1 forward_v I I I I #
coedge $-1 $333 $331 $335 $464 reversed $221 $-1 #
edge $-1 $346 -10.736172854692716 $466 10.736172854692716 $345 $540 forward 7 unknown #
vertex $-1 $464 $541 #
straight-curve $-1 -74.627521591845465 -51.715890851716487 0 0 0 -1 I I #
edge $-1 $462 -51.715890851716487 $466 51.715890851716487 $460 $542 forward 7 unknown #
straight-curve $-1 0 -51.715890851716487 -10.736172854692716 -1 0 0 I I #
vertex $-1 $338 $543 #
straight-curve $-1 0 51.715890851716487 -10.736172854692716 1 0 0 I I #
point $-1 74.627521591845465 51.715890851716487 -10.736172854692716 #
point $-1 74.627521591845465 -51.715890851716487 -10.736172854692716 #
straight-curve $-1 -74.627521591845465 0 10.736172854692716 0 -1 0 I I #
point $-1 -74.627521591845465 51.715890851716487 10.736172854692716 #
point $-1 -74.627521591845465 -51.715890851716487 10.736172854692716 #
straight-curve $-1 74.627521591845465 -51.715890851716487 0 0 0 -1 I I #
straight-curve $-1 74.627521591845465 51.715890851716487 0 0 0 -1 I I #
plane-surface $-1 0 51.715890851716487 0 0 -1 0 0 0 -1 forward_v I I I I #
coedge $-1 $359 $358 $544 $545 forward $147 $-1 #
edge $-1 $362 61.450524874404799 $546 74.627521591845465 $361 $547 forward 7 unknown #
coedge $-1 $367 $366 $359 $479 reversed $368 $-1 #
edge $-1 $548 -74.627521591845465 $480 -61.450524874404799 $478 $549 forward 7 unknown #
vertex $-1 $374 $550 #
straight-curve $-1 -61.450524874404799 0 -10.736172854692716 0 -1 0 I I #
point $-1 -61.450524874404799 -51.715890851716487 -10.736172854692716 #
coedge $-1 $544 $364 $367 $486 forward $356 $-1 #
coedge $-1 $364 $544 $371 $488 reversed $356 $-1 #
straight-curve $-1 -74.627521591845465 0 -5.450687494782132 0 1 0 I I #
edge $-1 $369 5.450687494782132 $548 10.736172854692716 $367 $551 forward 7 unknown #
point $-1 -74.627521591845465 51.715890851716487 -5.450687494782132 #
edge $-1 $372 5.450687494782132 $546 10.736172854692716 $484 $552 forward 7 unknown #
point $-1 -74.627521591845465 -51.715890851716487 -5.450687494782132 #
straight-curve $-1 -61.450524874404799 51.715890851716487 -4.0467150873687121 0 0 -1 I I #
plane-surface $-1 74.627521591845465 0 0 -1 0 0 0 0 1 forward_v I I I I #
coedge $-1 $503 $380 $386 $499 forward $256 $-1 #
coedge $-1 $380 $503 $494 $553 forward $256 $-1 #
coedge $-1 $382 $381 $493 $553 reversed $155 $-1 #
edge $-1 $392 1.4039724074134199 $496 6.6894577673240043 $381 $554 forward 7 unknown #
vertex $-1 $384 $555 #
straight-curve $-1 61.450524874404806 0 -10.736172854692716 0 1 0 I I #
straight-curve $-1 61.450524874404806 0 -5.450687494782132 0 -1 0 I I #
edge $-1 $387 61.450524874404806 $507 74.627521591845465 $386 $556 forward 7 unknown #
point $-1 61.450524874404806 51.715890851716487 -10.736172854692716 #
point $-1 61.450524874404806 51.715890851716487 -5.450687494782132 #
point $-1 61.450524874404806 -51.715890851716487 -5.450687494782132 #
coedge $-1 $493 $492 $394 $504 forward $256 $-1 #
edge $-1 $507 -51.715890851716487 $505 51.715890851716487 $394 $557 forward 7 unknown #
vertex $-1 $395 $558 #
straight-curve $-1 74.627521591845465 -51.715890851716487 0 0 0 -1 I I #
vertex $-1 $504 $559 #
straight-curve $-1 74.627521591845465 51.715890851716487 0 0 0 -1 I I #
edge $-1 $510 16.946643014164614 $513 23.26192624076684 $400 $560 forward 7 unknown #
vertex $-1 $509 $561 #
straight-curve $-1 -18.214835056890745 -51.715890851716487 64.288368410185726 0 0 1 I I #
edge $-1 $513 3.7323954225909581 $411 25.232483846008613 $410 $562 forward 7 unknown #
vertex $-1 $512 $563 #
straight-curve $-1 -18.214835056890745 -51.715890851716509 6.314163848564192 0 -0.81915203911291934 -0.57357644374324357 I I #
point $-1 -18.214835056890745 -51.715890851716487 6.3141638485642071 #
point $-1 -39.7149234803084 -45.400607625114262 10.736172854692716 #
straight-curve $-1 0 -51.715890851716487 10.736172854692716 1 0 0 I I #
vertex $-1 $417 $564 #
point $-1 -34.414905795624868 -46.762459761588794 5.9605152390287133 #
vertex $-1 $421 $565 #
point $-1 -27.964879268599574 -46.762459761588794 5.9605152390287133 #
vertex $-1 $425 $566 #
point $-1 -21.514852741574273 -46.762459761588794 5.9605152390287133 #
coedge $-1 $440 $439 $432 $525 forward $429 $-1 #
edge $-1 $526 16.946643014164614 $529 23.26192624076684 $524 $567 forward 7 unknown #
vertex $-1 $525 $568 #
straight-curve $-1 39.714923480308386 -51.715890851716487 64.288368410185726 0 0 1 I I #
edge $-1 $529 -25.232483846008606 $441 -3.732395422590951 $440 $569 forward 7 unknown #
vertex $-1 $528 $570 #
straight-curve $-1 39.714923480308386 -51.715890851716509 6.314163848564192 0 -0.81915203911291934 -0.57357644374324357 I I #
point $-1 39.714923480308386 -51.715890851716487 6.3141638485642071 #
point $-1 18.214835056890731 -45.400607625114262 10.736172854692716 #
straight-curve $-1 0 -51.715890851716487 10.736172854692716 1 0 0 I I #
vertex $-1 $447 $571 #
point $-1 23.514852741574259 -46.762459761588794 5.9605152390287133 #
vertex $-1 $451 $572 #
point $-1 29.96487926859956 -46.762459761588794 5.9605152390287133 #
vertex $-1 $455 $573 #
point $-1 36.414905795624861 -46.762459761588794 5.9605152390287133 #
straight-curve $-1 -74.627521591845465 51.715890851716487 0 0 0 -1 I I #
point $-1 -74.627521591845465 -51.715890851716487 -10.736172854692716 #
straight-curve $-1 -74.627521591845465 0 -10.736172854692716 0 1 0 I I #
point $-1 -74.627521591845465 51.715890851716487 -10.736172854692716 #
coedge $-1 $484 $483 $476 $545 reversed $356 $-1 #
edge $-1 $546 -51.715890851716487 $548 51.715890851716487 $544 $574 forward 7 unknown #
vertex $-1 $545 $575 #
straight-curve $-1 0 -51.715890851716487 -10.736172854692716 -1 0 0 I I #
vertex $-1 $479 $576 #
straight-curve $-1 0 51.715890851716487 -10.736172854692716 1 0 0 I I #
point $-1 -61.450524874404799 51.715890851716487 -10.736172854692716 #
straight-curve $-1 -74.627521591845465 51.715890851716487 0 0 0 -1 I I #
straight-curve $-1 -74.627521591845465 -51.715890851716487 0 0 0 -1 I I #
edge $-1 $505 -74.627521591845465 $496 -61.450524874404806 $494 $577 forward 7 unknown #
straight-curve $-1 61.450524874404806 -51.715890851716487 -4.0467150873687121 0 0 -1 I I #
point $-1 61.450524874404806 -51.715890851716487 -10.736172854692716 #
straight-curve $-1 0 51.715890851716487 -10.736172854692716 1 0 0 I I #
straight-curve $-1 74.627521591845465 0 -10.736172854692716 0 -1 0 I I #
point $-1 74.627521591845465 -51.715890851716487 -10.736172854692716 #
point $-1 74.627521591845465 51.715890851716487 -10.736172854692716 #
straight-curve $-1 -18.214835056890745 -68.662533865881102 10.736172854692718 0 1 0 I I #
point $-1 -18.214835056890745 -51.715890851716487 10.736172854692716 #
straight-curve $-1 -14.482439634299787 -45.400607625114262 10.736172854692718 -1 0 0 I I #
point $-1 -18.214835056890745 -45.400607625114262 10.736172854692716 #
point $-1 -35.414905795624868 -46.188883317845544 5.1413631999157934 #
point $-1 -28.964879268599574 -46.188883317845544 5.1413631999157934 #
point $-1 -22.514852741574273 -46.188883317845544 5.1413631999157934 #
straight-curve $-1 39.714923480308386 -68.662533865881102 10.736172854692718 0 1 0 I I #
point $-1 39.714923480308386 -51.715890851716487 10.736172854692716 #
straight-curve $-1 14.48243963429978 -45.400607625114262 10.736172854692718 -1 0 0 I I #
point $-1 39.714923480308386 -45.400607625114262 10.736172854692716 #
point $-1 22.514852741574259 -46.188883317845544 5.1413631999157934 #
point $-1 28.96487926859956 -46.188883317845544 5.1413631999157934 #
point $-1 35.414905795624861 -46.188883317845544 5.1413631999157934 #
straight-curve $-1 -74.627521591845465 0 -10.736172854692716 0 1 0 I I #
point $-1 -74.627521591845465 -51.715890851716487 -10.736172854692716 #
point $-1 -74.627521591845465 51.715890851716487 -10.736172854692716 #
straight-curve $-1 0 -51.715890851716487 -10.736172854692716 -1 0 0 I I #
End-of-ACIS-data 