500 0 14 0           
7 Unknown 11 ACIS 5.0 NT 24 Fri Mar 26 19:44:18 1999 
-1 9.9999999999999995e-007 1e-010 
body $-1 $14 $-1 $15 #
body $-1 $16 $-1 $17 #
body $-1 $18 $-1 $19 #
body $-1 $20 $-1 $21 #
body $-1 $22 $-1 $23 #
body $-1 $24 $-1 $25 #
body $-1 $26 $-1 $27 #
body $-1 $28 $-1 $29 #
body $-1 $30 $-1 $31 #
body $-1 $32 $-1 $33 #
body $-1 $34 $-1 $35 #
body $-1 $36 $-1 $37 #
body $-1 $38 $-1 $39 #
body $-1 $40 $-1 $41 #
lump $-1 $-1 $42 $0 #
transform $-1 1 0 0 0 1 0 0 0 1 71.894283883175149 43.017649763894525 14.951216294934317 1 rotate no_reflect no_shear #
lump $-1 $-1 $43 $1 #
transform $-1 1 0 0 0 1 0 0 0 1 71.894283883175149 43.017649763894525 14.951216294934317 1 rotate no_reflect no_shear #
lump $-1 $-1 $44 $2 #
transform $-1 1 0 0 0 1 0 0 0 1 71.894283883175149 43.017649763894525 14.951216294934317 1 rotate no_reflect no_shear #
lump $-1 $-1 $45 $3 #
transform $-1 1 0 0 0 1 0 0 0 1 71.894283883175149 43.017649763894525 14.951216294934317 1 rotate no_reflect no_shear #
lump $-1 $-1 $46 $4 #
transform $-1 1 0 0 0 1 0 0 0 1 71.894283883175149 43.017649763894525 14.951216294934317 1 rotate no_reflect no_shear #
lump $-1 $-1 $47 $5 #
transform $-1 1 0 0 0 1 0 0 0 1 71.894283883175149 43.017649763894525 14.951216294934317 1 rotate no_reflect no_shear #
lump $-1 $-1 $48 $6 #
transform $-1 1 0 0 0 1 0 0 0 1 71.894283883175149 43.017649763894525 14.951216294934317 1 rotate no_reflect no_shear #
lump $-1 $-1 $49 $7 #
transform $-1 1 0 0 0 1 0 0 0 1 71.894283883175149 43.017649763894525 14.951216294934317 1 rotate no_reflect no_shear #
lump $-1 $-1 $50 $8 #
transform $-1 1 0 0 0 1 0 0 0 1 71.894283883175149 43.017649763894525 14.951216294934317 1 rotate no_reflect no_shear #
lump $-1 $-1 $51 $9 #
transform $-1 1 0 0 0 1 0 0 0 1 71.894283883175149 43.017649763894525 14.951216294934317 1 rotate no_reflect no_shear #
lump $-1 $-1 $52 $10 #
transform $-1 1 0 0 0 1 0 0 0 1 71.894283883175149 43.017649763894525 14.951216294934317 1 rotate no_reflect no_shear #
lump $-1 $-1 $53 $11 #
transform $-1 1 0 0 0 1 0 0 0 1 71.894283883175149 43.017649763894525 14.951216294934317 1 rotate no_reflect no_shear #
lump $-1 $-1 $54 $12 #
transform $-1 1 0 0 0 1 0 0 0 1 71.894283883175149 43.017649763894525 14.951216294934317 1 rotate no_reflect no_shear #
lump $-1 $-1 $55 $13 #
transform $-1 1 0 0 0 1 0 0 0 1 71.894283883175149 43.017649763894525 14.951216294934317 1 rotate no_reflect no_shear #
shell $-1 $-1 $-1 $56 $-1 $14 #
shell $-1 $-1 $-1 $57 $-1 $16 #
shell $-1 $-1 $-1 $58 $-1 $18 #
shell $-1 $-1 $-1 $59 $-1 $20 #
shell $-1 $-1 $-1 $60 $-1 $22 #
shell $-1 $-1 $-1 $61 $-1 $24 #
shell $-1 $-1 $-1 $62 $-1 $26 #
shell $-1 $-1 $-1 $63 $-1 $28 #
shell $-1 $-1 $-1 $64 $-1 $30 #
shell $-1 $-1 $-1 $65 $-1 $32 #
shell $-1 $-1 $-1 $66 $-1 $34 #
shell $-1 $-1 $-1 $67 $-1 $36 #
shell $-1 $-1 $-1 $68 $-1 $38 #
shell $-1 $-1 $-1 $69 $-1 $40 #
face $-1 $70 $71 $42 $-1 $72 forward single #
face $-1 $73 $74 $43 $-1 $75 forward single #
face $-1 $76 $77 $44 $-1 $78 forward single #
face $-1 $79 $80 $45 $-1 $81 reversed single #
face $-1 $82 $83 $46 $-1 $84 forward single #
face $-1 $85 $86 $47 $-1 $87 reversed single #
face $-1 $88 $89 $48 $-1 $90 forward single #
face $-1 $91 $92 $49 $-1 $93 reversed single #
face $-1 $94 $95 $50 $-1 $96 forward single #
face $-1 $97 $98 $51 $-1 $99 reversed single #
face $-1 $100 $101 $52 $-1 $102 forward single #
face $-1 $103 $104 $53 $-1 $105 reversed single #
face $-1 $106 $107 $54 $-1 $108 forward single #
face $-1 $109 $110 $55 $-1 $111 forward single #
face $-1 $112 $113 $42 $-1 $114 reversed single #
loop $-1 $-1 $115 $56 #
plane-surface $-1 0 0 14.951216294934317 0 0 1 1 0 0 forward_v I I I I #
face $-1 $116 $117 $43 $-1 $118 reversed single #
loop $-1 $-1 $119 $57 #
plane-surface $-1 0 -36.44654297637635 12.716798561352977 0 0 1 1 0 0 forward_v I I I I #
face $-1 $120 $121 $44 $-1 $122 reversed single #
loop $-1 $-1 $123 $58 #
plane-surface $-1 0 36.44654297637635 12.716798561352977 0 0 1 1 0 0 forward_v I I I I #
face $-1 $124 $125 $45 $-1 $126 reversed single #
loop $-1 $-1 $127 $59 #
plane-surface $-1 -10.579448733976307 -25.07951965069919 129.05751274326911 0.81915205242281985 0 0.57357642473473569 0.57357642473473569 0 -0.81915205242281985 forward_v I I I I #
face $-1 $128 $129 $46 $-1 $130 forward single #
loop $-1 $131 $132 $60 #
cone-surface $-1 70.19688480780431 -25.07951965069919 12.825226106362564 -0.81915205242281985 0 -0.57357642473473569 0.28678821236736785 0 -0.40957602621140993 1 I I 0 1 0.5 forward I I I I #
face $-1 $133 $134 $47 $-1 $135 reversed single #
loop $-1 $-1 $136 $61 #
plane-surface $-1 107.20525166676725 -14.937718094429082 211.53124536042057 0 1 0 0.81915205242281985 0 0.57357642473473569 forward_v I I I I #
face $-1 $137 $138 $48 $-1 $139 forward single #
loop $-1 $140 $141 $62 #
cone-surface $-1 70.19688480780431 -10.141801556270103 12.825226106362564 -0.81915205242281985 0 -0.57357642473473569 0.28678821236736785 0 -0.40957602621140993 1 I I 0 1 0.5 forward I I I I #
face $-1 $142 $143 $49 $-1 $144 reversed single #
loop $-1 $-1 $145 $63 #
plane-surface $-1 107.20525166676725 5.3290705182007514e-015 211.53124536042057 0 1 0 0.81915205242281985 0 0.57357642473473569 forward_v I I I I #
face $-1 $146 $147 $50 $-1 $148 forward single #
loop $-1 $149 $150 $64 #
cone-surface $-1 70.19688480780431 4.7959165381589841 12.825226106362564 -0.81915205242281985 0 -0.57357642473473569 0.28678821236736785 0 -0.40957602621140993 1 I I 0 1 0.5 forward I I I I #
face $-1 $151 $152 $51 $-1 $153 reversed single #
loop $-1 $-1 $154 $65 #
plane-surface $-1 107.20525166676725 14.937718094429092 211.53124536042057 0 1 0 0.81915205242281985 0 0.57357642473473569 forward_v I I I I #
face $-1 $155 $156 $52 $-1 $157 forward single #
loop $-1 $158 $159 $66 #
cone-surface $-1 70.19688480780431 19.733634632588071 12.825226106362564 -0.81915205242281985 0 -0.57357642473473569 0.28678821236736785 0 -0.40957602621140993 1 I I 0 1 0.5 forward I I I I #
face $-1 $160 $161 $53 $-1 $162 reversed single #
loop $-1 $-1 $163 $67 #
plane-surface $-1 -173.5681563875392 17.277386016213356 105.53821954058708 0 -1 0 0.70710678939079041 0 -0.70710677298230451 forward_v I I I I #
face $-1 $164 $165 $54 $-1 $166 forward single #
loop $-1 $167 $168 $68 #
cone-surface $-1 -65.794338722836017 7.7160838958306357 8.851271018873156 0.70710678939079041 0 -0.70710677298230451 0.70710677298230451 0 0.70710678939079041 1 I I 0 1 1 forward I I I I #
face $-1 $169 $170 $55 $-1 $171 forward single #
loop $-1 $172 $173 $69 #
cone-surface $-1 -65.794338722836017 13.452865168060264 8.851271018873156 0.70710678939079041 0 -0.70710677298230451 0.70710677298230451 0 0.70710678939079041 1 I I 0 1 1 forward I I I I #
face $-1 $174 $175 $42 $-1 $176 reversed single #
loop $-1 $-1 $177 $70 #
plane-surface $-1 0 0 -14.951216294934317 0 0 1 1 0 0 forward_v I I I I #
coedge $-1 $178 $179 $180 $181 forward $71 $-1 #
face $-1 $182 $183 $43 $-1 $184 reversed single #
loop $-1 $-1 $185 $73 #
plane-surface $-1 0 -36.44654297637635 7.0819052078979183 0 0 1 1 0 0 forward_v I I I I #
coedge $-1 $186 $187 $188 $189 reversed $74 $-1 #
face $-1 $190 $191 $44 $-1 $192 reversed single #
loop $-1 $-1 $193 $76 #
plane-surface $-1 0 36.44654297637635 7.0819052078979183 0 0 1 1 0 0 forward_v I I I I #
coedge $-1 $194 $195 $196 $197 reversed $77 $-1 #
face $-1 $198 $199 $45 $-1 $200 forward single #
loop $-1 $-1 $201 $79 #
plane-surface $-1 107.20525166676725 -20.283603112540213 211.53124536042057 0 -1 0 -0.81915205242281985 0 -0.57357642473473569 forward_v I I I I #
coedge $-1 $202 $203 $204 $205 reversed $80 $-1 #
face $-1 $-1 $206 $46 $-1 $207 forward single #
loop $-1 $208 $209 $82 #
cone-surface $-1 69.5825207684872 -25.07951965069919 12.395043787811511 -0.81915205242281985 0 -0.57357642473473569 0.14339410618368392 0 -0.20478801310570496 1 I I -0.70710678118654746 0.70710678118654746 0.25 forward I I I I #
loop $-1 $-1 $210 $60 #
coedge $-1 $132 $132 $211 $212 reversed $83 $-1 #
face $-1 $213 $214 $47 $-1 $215 reversed single #
loop $-1 $-1 $216 $85 #
plane-surface $-1 -10.579448733976307 -10.141801556270103 129.05751274326911 0.81915205242281985 0 0.57357642473473569 0.57357642473473569 0 -0.81915205242281985 forward_v I I I I #
coedge $-1 $217 $218 $219 $220 reversed $86 $-1 #
face $-1 $-1 $221 $48 $-1 $222 forward single #
loop $-1 $223 $224 $88 #
cone-surface $-1 69.5825207684872 -10.141801556270103 12.395043787811511 -0.81915205242281985 0 -0.57357642473473569 0.14339410618368392 0 -0.20478801310570496 1 I I -0.70710678118654746 0.70710678118654746 0.25 forward I I I I #
loop $-1 $-1 $225 $62 #
coedge $-1 $141 $141 $226 $227 reversed $89 $-1 #
face $-1 $228 $229 $49 $-1 $230 reversed single #
loop $-1 $-1 $231 $91 #
plane-surface $-1 -10.579448733976307 4.7959165381589841 129.05751274326911 0.81915205242281985 0 0.57357642473473569 0.57357642473473569 0 -0.81915205242281985 forward_v I I I I #
coedge $-1 $232 $233 $234 $235 reversed $92 $-1 #
face $-1 $-1 $236 $50 $-1 $237 forward single #
loop $-1 $238 $239 $94 #
cone-surface $-1 69.5825207684872 4.7959165381589841 12.395043787811511 -0.81915205242281985 0 -0.57357642473473569 0.14339410618368392 0 -0.20478801310570496 1 I I -0.70710678118654746 0.70710678118654746 0.25 forward I I I I #
loop $-1 $-1 $240 $64 #
coedge $-1 $150 $150 $241 $242 reversed $95 $-1 #
face $-1 $243 $244 $51 $-1 $245 reversed single #
loop $-1 $-1 $246 $97 #
plane-surface $-1 -10.579448733976307 19.733634632588071 129.05751274326911 0.81915205242281985 0 0.57357642473473569 0.57357642473473569 0 -0.81915205242281985 forward_v I I I I #
coedge $-1 $247 $248 $249 $250 reversed $98 $-1 #
face $-1 $-1 $251 $52 $-1 $252 forward single #
loop $-1 $253 $254 $100 #
cone-surface $-1 69.5825207684872 19.733634632588071 12.395043787811511 -0.81915205242281985 0 -0.57357642473473569 0.14339410618368392 0 -0.20478801310570496 1 I I -0.70710678118654746 0.70710678118654746 0.25 forward I I I I #
loop $-1 $-1 $255 $66 #
coedge $-1 $159 $159 $256 $257 reversed $101 $-1 #
face $-1 $258 $259 $53 $-1 $260 reversed single #
loop $-1 $-1 $261 $103 #
plane-surface $-1 -71.894283883175149 10.584474531945453 3.8643493955757151 -0.70710678939079041 0 0.70710677298230451 0.70710677298230451 0 0.70710678939079041 forward_v I I I I #
coedge $-1 $262 $263 $264 $265 reversed $104 $-1 #
face $-1 $-1 $266 $54 $-1 $267 forward single #
loop $-1 $268 $269 $106 #
cone-surface $-1 -64.884273488844855 7.7160838958306357 7.9412058060001502 0.70710678939079041 0 -0.70710677298230451 0.35355338649115226 0 0.35355339469539521 1 I I -0.70710678118654746 0.70710678118654746 0.5 forward I I I I #
loop $-1 $-1 $270 $68 #
coedge $-1 $168 $168 $271 $272 reversed $107 $-1 #
face $-1 $-1 $273 $55 $-1 $274 forward single #
loop $-1 $275 $276 $109 #
cone-surface $-1 -64.884273488844855 13.452865168060264 7.9412058060001502 0.70710678939079041 0 -0.70710677298230451 0.35355338649115226 0 0.35355339469539521 1 I I -0.70710678118654746 0.70710678118654746 0.5 forward I I I I #
loop $-1 $-1 $277 $69 #
coedge $-1 $173 $173 $278 $279 reversed $110 $-1 #
face $-1 $280 $281 $42 $-1 $282 reversed single #
loop $-1 $-1 $283 $112 #
plane-surface $-1 0 -43.017649763894525 0 0 1 0 0 0 1 forward_v I I I I #
coedge $-1 $284 $285 $286 $287 forward $113 $-1 #
coedge $-1 $288 $115 $289 $290 forward $71 $-1 #
coedge $-1 $115 $288 $291 $292 forward $71 $-1 #
coedge $-1 $293 $294 $115 $181 reversed $295 $-1 #
edge $-1 $296 -43.017649763894525 $297 43.017649763894525 $180 $298 forward 7 unknown #
face $-1 $299 $300 $43 $-1 $301 reversed single #
loop $-1 $-1 $302 $116 #
plane-surface $-1 0 -29.875436188858174 9.8993518846254478 0 -1 0 0 0 -1 forward_v I I I I #
coedge $-1 $303 $304 $305 $306 reversed $117 $-1 #
coedge $-1 $307 $119 $308 $309 forward $74 $-1 #
coedge $-1 $119 $307 $310 $311 reversed $74 $-1 #
coedge $-1 $312 $313 $119 $189 forward $314 $-1 #
edge $-1 $315 11.652164700669999 $316 24.79437827570635 $188 $317 forward 7 unknown #
face $-1 $318 $319 $44 $-1 $320 reversed single #
loop $-1 $-1 $321 $120 #
plane-surface $-1 0 29.875436188858174 9.8993518846254478 0 1 0 0 0 1 forward_v I I I I #
coedge $-1 $322 $323 $324 $325 reversed $121 $-1 #
coedge $-1 $326 $123 $327 $328 reversed $77 $-1 #
coedge $-1 $123 $326 $329 $330 forward $77 $-1 #
coedge $-1 $331 $332 $123 $197 forward $319 $-1 #
edge $-1 $333 -24.79437827570635 $334 -11.652164700669999 $196 $335 forward 7 unknown #
face $-1 $336 $337 $45 $-1 $338 reversed single #
loop $-1 $-1 $339 $124 #
plane-surface $-1 0 -29.875436188858174 9.8993518846254478 0 -1 0 0 0 -1 forward_v I I I I #
coedge $-1 $340 $341 $342 $343 reversed $125 $-1 #
coedge $-1 $344 $127 $339 $345 reversed $80 $-1 #
coedge $-1 $127 $344 $340 $346 forward $80 $-1 #
coedge $-1 $342 $347 $127 $205 forward $337 $-1 #
edge $-1 $348 -17.335676363508579 $349 -7.743843287190618 $204 $350 forward 7 unknown #
loop $-1 $-1 $211 $128 #
plane-surface $-1 -10.579448733976307 -25.07951965069919 129.05751274326911 0.81915205242281985 0 0.57357642473473569 0.57357642473473569 0 -0.81915205242281985 forward_v I I I I #
loop $-1 $-1 $351 $82 #
coedge $-1 $209 $209 $210 $352 reversed $129 $-1 #
coedge $-1 $210 $210 $209 $352 forward $131 $-1 #
coedge $-1 $211 $211 $132 $212 forward $206 $-1 #
edge $-1 $353 0 $353 6.2831853071796004 $211 $354 forward 7 unknown #
face $-1 $355 $356 $47 $-1 $357 forward single #
loop $-1 $-1 $358 $133 #
plane-surface $-1 107.20525166676725 -5.3458850181111242 211.53124536042057 0 -1 0 -0.81915205242281985 0 -0.57357642473473569 forward_v I I I I #
coedge $-1 $359 $360 $361 $362 reversed $134 $-1 #
coedge $-1 $218 $136 $363 $364 reversed $86 $-1 #
coedge $-1 $136 $217 $359 $365 reversed $86 $-1 #
coedge $-1 $361 $366 $136 $220 forward $367 $-1 #
edge $-1 $368 90.814406385275973 $369 94.492810337684716 $219 $370 forward 7 unknown #
loop $-1 $-1 $226 $137 #
plane-surface $-1 -10.579448733976307 -10.141801556270103 129.05751274326911 0.81915205242281985 0 0.57357642473473569 0.57357642473473569 0 -0.81915205242281985 forward_v I I I I #
loop $-1 $-1 $371 $88 #
coedge $-1 $224 $224 $225 $372 reversed $138 $-1 #
coedge $-1 $225 $225 $224 $372 forward $140 $-1 #
coedge $-1 $226 $226 $141 $227 forward $221 $-1 #
edge $-1 $373 0 $373 6.2831853071796004 $226 $374 forward 7 unknown #
face $-1 $375 $376 $49 $-1 $377 reversed single #
loop $-1 $-1 $378 $142 #
plane-surface $-1 107.20525166676725 9.5918330763179629 211.53124536042057 0 -1 0 -0.81915205242281985 0 -0.57357642473473569 forward_v I I I I #
coedge $-1 $379 $380 $381 $382 reversed $143 $-1 #
coedge $-1 $233 $145 $383 $384 reversed $92 $-1 #
coedge $-1 $145 $232 $379 $385 reversed $92 $-1 #
coedge $-1 $381 $386 $145 $235 forward $376 $-1 #
edge $-1 $387 90.814406385275973 $388 94.492810337684716 $234 $389 forward 7 unknown #
loop $-1 $-1 $241 $146 #
plane-surface $-1 -10.579448733976307 4.7959165381589841 129.05751274326911 0.81915205242281985 0 0.57357642473473569 0.57357642473473569 0 -0.81915205242281985 forward_v I I I I #
loop $-1 $-1 $390 $94 #
coedge $-1 $239 $239 $240 $391 reversed $147 $-1 #
coedge $-1 $240 $240 $239 $391 forward $149 $-1 #
coedge $-1 $241 $241 $150 $242 forward $236 $-1 #
edge $-1 $392 0 $392 6.2831853071796004 $241 $393 forward 7 unknown #
face $-1 $394 $395 $51 $-1 $396 reversed single #
loop $-1 $-1 $397 $151 #
plane-surface $-1 107.20525166676725 24.529551170747048 211.53124536042057 0 -1 0 -0.81915205242281985 0 -0.57357642473473569 forward_v I I I I #
coedge $-1 $398 $399 $400 $401 reversed $152 $-1 #
coedge $-1 $248 $154 $402 $403 reversed $98 $-1 #
coedge $-1 $154 $247 $398 $404 reversed $98 $-1 #
coedge $-1 $400 $405 $154 $250 forward $395 $-1 #
edge $-1 $406 90.814406385275973 $407 94.492810337684716 $249 $408 forward 7 unknown #
loop $-1 $-1 $256 $155 #
plane-surface $-1 -10.579448733976307 19.733634632588071 129.05751274326911 0.81915205242281985 0 0.57357642473473569 0.57357642473473569 0 -0.81915205242281985 forward_v I I I I #
loop $-1 $-1 $409 $100 #
coedge $-1 $254 $254 $255 $410 reversed $156 $-1 #
coedge $-1 $255 $255 $254 $410 forward $158 $-1 #
coedge $-1 $256 $256 $159 $257 forward $251 $-1 #
edge $-1 $411 0 $411 6.2831853071796004 $256 $412 forward 7 unknown #
face $-1 $413 $414 $53 $-1 $415 reversed single #
loop $-1 $-1 $416 $160 #
plane-surface $-1 -173.5681563875392 3.8915630476775505 105.53821954058708 0 1 0 -0.70710678939079041 0 0.70710677298230451 forward_v I I I I #
coedge $-1 $417 $418 $419 $420 reversed $161 $-1 #
coedge $-1 $263 $163 $421 $422 reversed $104 $-1 #
coedge $-1 $163 $262 $417 $423 reversed $104 $-1 #
coedge $-1 $419 $424 $163 $265 forward $414 $-1 #
edge $-1 $425 37.81789347535922 $426 48.904760374717824 $264 $427 forward 7 unknown #
loop $-1 $-1 $271 $164 #
plane-surface $-1 -71.894283883175149 10.584474531945453 3.8643493955757151 -0.70710678939079041 0 0.70710677298230451 0.70710677298230451 0 0.70710678939079041 forward_v I I I I #
loop $-1 $-1 $428 $106 #
coedge $-1 $269 $269 $270 $429 reversed $165 $-1 #
coedge $-1 $270 $270 $269 $429 forward $167 $-1 #
coedge $-1 $271 $271 $168 $272 forward $266 $-1 #
edge $-1 $430 0 $430 6.2831853071796004 $271 $431 forward 7 unknown #
loop $-1 $-1 $278 $169 #
plane-surface $-1 -71.894283883175149 10.584474531945453 3.8643493955757151 -0.70710678939079041 0 0.70710677298230451 0.70710677298230451 0 0.70710678939079041 forward_v I I I I #
loop $-1 $-1 $432 $109 #
coedge $-1 $276 $276 $277 $433 reversed $170 $-1 #
coedge $-1 $277 $277 $276 $433 forward $172 $-1 #
coedge $-1 $278 $278 $173 $279 forward $273 $-1 #
edge $-1 $434 0 $434 6.2831853071796004 $278 $435 forward 7 unknown #
face $-1 $436 $437 $42 $-1 $438 reversed single #
loop $-1 $-1 $439 $174 #
plane-surface $-1 -71.894283883175149 0 0 1 0 0 0 0 -1 forward_v I I I I #
coedge $-1 $440 $291 $441 $442 forward $175 $-1 #
coedge $-1 $443 $177 $440 $444 forward $113 $-1 #
coedge $-1 $177 $443 $445 $446 forward $113 $-1 #
coedge $-1 $294 $293 $177 $287 reversed $295 $-1 #
edge $-1 $447 -43.017649763894525 $448 43.017649763894525 $286 $449 forward 7 unknown #
coedge $-1 $179 $178 $450 $451 forward $71 $-1 #
coedge $-1 $452 $453 $178 $290 reversed $437 $-1 #
edge $-1 $297 -71.894283883175149 $454 71.894283883175149 $289 $455 forward 7 unknown #
coedge $-1 $283 $456 $179 $292 reversed $175 $-1 #
edge $-1 $457 -71.894283883175149 $296 71.894283883175149 $291 $458 forward 7 unknown #
coedge $-1 $286 $180 $456 $459 forward $295 $-1 #
coedge $-1 $180 $286 $452 $460 reversed $295 $-1 #
loop $-1 $-1 $293 $436 #
vertex $-1 $181 $461 #
vertex $-1 $181 $462 #
straight-curve $-1 71.894283883175149 0 14.951216294934317 0 1 0 I I #
face $-1 $463 $464 $43 $-1 $465 reversed single #
loop $-1 $-1 $466 $182 #
plane-surface $-1 -71.894283883175149 0 0 1 0 0 0 0 -1 forward_v I I I I #
coedge $-1 $467 $308 $313 $468 reversed $183 $-1 #
coedge $-1 $469 $185 $470 $471 reversed $117 $-1 #
coedge $-1 $185 $469 $467 $472 forward $117 $-1 #
coedge $-1 $313 $312 $185 $306 forward $314 $-1 #
edge $-1 $473 -24.79437827570635 $474 -11.652164700669999 $305 $475 forward 7 unknown #
coedge $-1 $187 $186 $466 $476 reversed $74 $-1 #
coedge $-1 $302 $477 $186 $309 reversed $183 $-1 #
edge $-1 $315 -71.894283883175149 $478 71.894283883175149 $308 $479 forward 7 unknown #
coedge $-1 $480 $481 $187 $311 forward $464 $-1 #
edge $-1 $316 -71.894283883175149 $482 71.894283883175149 $310 $483 forward 7 unknown #
coedge $-1 $305 $188 $481 $484 forward $314 $-1 #
coedge $-1 $188 $305 $302 $468 forward $314 $-1 #
loop $-1 $-1 $188 $463 #
vertex $-1 $189 $485 #
vertex $-1 $484 $486 #
straight-curve $-1 71.894283883175149 -18.223271488188175 12.716798561352977 0 -1 0 I I #
face $-1 $487 $488 $44 $-1 $489 reversed single #
loop $-1 $-1 $196 $190 #
plane-surface $-1 71.894283883175149 0 0 -1 0 0 0 0 1 forward_v I I I I #
coedge $-1 $490 $329 $491 $492 reversed $191 $-1 #
coedge $-1 $493 $193 $490 $494 forward $121 $-1 #
coedge $-1 $193 $493 $495 $496 reversed $121 $-1 #
coedge $-1 $332 $331 $193 $325 forward $319 $-1 #
edge $-1 $497 11.652164700669999 $498 24.79437827570635 $324 $499 forward 7 unknown #
coedge $-1 $195 $194 $500 $501 reversed $77 $-1 #
coedge $-1 $502 $503 $194 $328 forward $504 $-1 #
edge $-1 $505 -71.894283883175149 $333 71.894283883175149 $327 $506 forward 7 unknown #
coedge $-1 $321 $507 $195 $330 reversed $191 $-1 #
edge $-1 $508 -71.894283883175149 $334 71.894283883175149 $329 $509 forward 7 unknown #
coedge $-1 $324 $196 $507 $510 forward $319 $-1 #
coedge $-1 $196 $324 $502 $511 reversed $319 $-1 #
vertex $-1 $511 $512 #
vertex $-1 $197 $513 #
straight-curve $-1 71.894283883175149 18.223271488188175 12.716798561352977 0 -1 0 I I #
face $-1 $-1 $514 $45 $-1 $515 forward single #
loop $-1 $-1 $347 $198 #
plane-surface $-1 71.894283883175149 0 0 -1 0 0 0 0 1 forward_v I I I I #
coedge $-1 $516 $517 $202 $345 forward $199 $-1 #
coedge $-1 $341 $201 $203 $346 reversed $125 $-1 #
coedge $-1 $201 $340 $518 $519 reversed $125 $-1 #
coedge $-1 $520 $204 $201 $343 forward $337 $-1 #
edge $-1 $349 -94.492810337684716 $521 -90.814406385275973 $342 $522 forward 7 unknown #
coedge $-1 $203 $202 $523 $524 reversed $80 $-1 #
edge $-1 $525 87.459678533246233 $348 91.95018056095779 $339 $526 forward 7 unknown #
edge $-1 $527 139.29806573863874 $349 143.7885677663503 $340 $528 forward 7 unknown #
coedge $-1 $204 $520 $516 $529 forward $337 $-1 #
vertex $-1 $345 $530 #
vertex $-1 $205 $531 #
straight-curve $-1 71.894283883175149 -12.539759825349595 11.272812342525569 0 1 0 I I #
coedge $-1 $351 $351 $-1 $532 reversed $208 $-1 #
edge $-1 $533 0 $533 6.2831853071796004 $209 $534 forward 7 unknown #
vertex $-1 $212 $535 #
ellipse-curve $-1 70.606460834015706 -25.07951965069919 13.112014318729923 0.81915205242281985 0 0.57357642473473569 0.28678821236736785 0 -0.40957602621140993 1 I I #
face $-1 $-1 $367 $47 $-1 $536 reversed single #
loop $-1 $-1 $537 $213 #
plane-surface $-1 0 0 14.951216294934317 0 0 1 1 0 0 forward_v I I I I #
coedge $-1 $538 $539 $540 $541 reversed $214 $-1 #
coedge $-1 $542 $216 $218 $365 forward $134 $-1 #
coedge $-1 $216 $542 $538 $543 forward $134 $-1 #
coedge $-1 $540 $219 $216 $362 forward $367 $-1 #
edge $-1 $369 -9.8668173162940302 $544 -0.27498423997607269 $361 $545 forward 7 unknown #
coedge $-1 $546 $547 $217 $364 forward $356 $-1 #
edge $-1 $548 15.716011951472652 $368 18.291658049791522 $363 $549 forward 7 unknown #
edge $-1 $369 -143.7885677663503 $548 -139.29806573863874 $218 $550 forward 7 unknown #
coedge $-1 $219 $540 $546 $551 reversed $367 $-1 #
loop $-1 $-1 $540 $355 #
vertex $-1 $551 $552 #
vertex $-1 $220 $553 #
straight-curve $-1 71.894283883175149 -14.937718094429082 105.76562268021029 0 0 -1 I I #
coedge $-1 $371 $371 $-1 $554 reversed $223 $-1 #
edge $-1 $555 0 $555 6.2831853071796004 $224 $556 forward 7 unknown #
vertex $-1 $227 $557 #
ellipse-curve $-1 70.606460834015706 -10.141801556270103 13.112014318729923 0.81915205242281985 0 0.57357642473473569 0.28678821236736785 0 -0.40957602621140993 1 I I #
face $-1 $-1 $558 $49 $-1 $559 forward single #
loop $-1 $-1 $234 $228 #
plane-surface $-1 71.894283883175149 0 0 -1 0 0 0 0 1 forward_v I I I I #
coedge $-1 $560 $561 $562 $563 reversed $229 $-1 #
coedge $-1 $564 $231 $233 $385 forward $143 $-1 #
coedge $-1 $231 $564 $560 $565 forward $143 $-1 #
coedge $-1 $562 $234 $231 $382 forward $376 $-1 #
edge $-1 $388 -2.3979582690794867 $566 7.1938748072384708 $381 $567 forward 7 unknown #
coedge $-1 $568 $569 $232 $384 forward $558 $-1 #
edge $-1 $570 15.716011951472652 $387 18.291658049791522 $383 $571 forward 7 unknown #
edge $-1 $388 -143.7885677663503 $570 -139.29806573863874 $233 $572 forward 7 unknown #
coedge $-1 $234 $562 $568 $573 reversed $376 $-1 #
vertex $-1 $573 $574 #
vertex $-1 $235 $575 #
straight-curve $-1 71.894283883175149 5.3290705182007514e-015 105.76562268021029 0 0 -1 I I #
coedge $-1 $390 $390 $-1 $576 reversed $238 $-1 #
edge $-1 $577 0 $577 6.2831853071796004 $239 $578 forward 7 unknown #
vertex $-1 $242 $579 #
ellipse-curve $-1 70.606460834015706 4.7959165381589841 13.112014318729923 0.81915205242281985 0 0.57357642473473569 0.28678821236736785 0 -0.40957602621140993 1 I I #
face $-1 $-1 $580 $51 $-1 $581 forward single #
loop $-1 $-1 $249 $243 #
plane-surface $-1 71.894283883175149 0 0 -1 0 0 0 0 1 forward_v I I I I #
coedge $-1 $582 $583 $584 $585 reversed $244 $-1 #
coedge $-1 $586 $246 $248 $404 forward $152 $-1 #
coedge $-1 $246 $586 $582 $587 forward $152 $-1 #
coedge $-1 $584 $249 $246 $401 forward $395 $-1 #
edge $-1 $407 5.0709007781350568 $588 14.662733854453013 $400 $589 forward 7 unknown #
coedge $-1 $590 $591 $247 $403 forward $580 $-1 #
edge $-1 $592 15.716011951472652 $406 18.291658049791522 $402 $593 forward 7 unknown #
edge $-1 $407 -143.7885677663503 $592 -139.29806573863874 $248 $594 forward 7 unknown #
coedge $-1 $249 $584 $590 $595 reversed $395 $-1 #
vertex $-1 $595 $596 #
vertex $-1 $250 $597 #
straight-curve $-1 71.894283883175149 14.937718094429092 105.76562268021029 0 0 -1 I I #
coedge $-1 $409 $409 $-1 $598 reversed $253 $-1 #
edge $-1 $599 0 $599 6.2831853071796004 $254 $600 forward 7 unknown #
vertex $-1 $257 $601 #
ellipse-curve $-1 70.606460834015706 19.733634632588071 13.112014318729923 0.81915205242281985 0 0.57357642473473569 0.28678821236736785 0 -0.40957602621140993 1 I I #
face $-1 $-1 $602 $53 $-1 $603 forward single #
loop $-1 $-1 $264 $258 #
plane-surface $-1 -71.894283883175149 0 0 1 0 0 0 0 -1 forward_v I I I I #
coedge $-1 $604 $605 $606 $607 reversed $259 $-1 #
coedge $-1 $608 $261 $263 $423 forward $161 $-1 #
coedge $-1 $261 $608 $604 $609 forward $161 $-1 #
coedge $-1 $606 $264 $261 $420 forward $414 $-1 #
edge $-1 $426 -11.985148750240629 $610 1.4006742182951761 $419 $611 forward 7 unknown #
coedge $-1 $612 $613 $262 $422 forward $602 $-1 #
edge $-1 $614 -25.976660952681165 $425 -14.889794310594453 $421 $615 forward 7 unknown #
edge $-1 $426 0 $614 15.679197351379585 $263 $616 forward 7 unknown #
coedge $-1 $264 $606 $612 $617 reversed $414 $-1 #
vertex $-1 $617 $618 #
vertex $-1 $265 $619 #
straight-curve $-1 -71.894283883175149 17.277386016213356 52.769109770293539 0 0 -1 I I #
coedge $-1 $428 $428 $-1 $620 reversed $268 $-1 #
edge $-1 $621 0 $621 6.2831853071796004 $269 $622 forward 7 unknown #
vertex $-1 $272 $623 #
ellipse-curve $-1 -66.350850562131797 7.7160838958306357 9.4077828452550172 -0.70710678939079041 0 0.70710677298230451 0.70710677298230451 0 0.70710678939079041 1 I I #
coedge $-1 $432 $432 $-1 $624 reversed $275 $-1 #
edge $-1 $625 0 $625 6.2831853071796004 $276 $626 forward 7 unknown #
vertex $-1 $279 $627 #
ellipse-curve $-1 -66.350850562131797 13.452865168060264 9.4077828452550172 -0.70710678939079041 0 0.70710677298230451 0.70710677298230451 0 0.70710678939079041 1 I I #
face $-1 $-1 $295 $42 $-1 $628 reversed single #
loop $-1 $-1 $452 $280 #
plane-surface $-1 0 43.017649763894525 0 0 -1 0 0 0 -1 forward_v I I I I #
coedge $-1 $629 $450 $453 $630 forward $281 $-1 #
coedge $-1 $456 $283 $284 $444 reversed $175 $-1 #
coedge $-1 $450 $629 $283 $442 reversed $281 $-1 #
edge $-1 $457 -14.951216294934317 $631 14.951216294934317 $441 $632 forward 7 unknown #
coedge $-1 $285 $284 $629 $633 forward $113 $-1 #
edge $-1 $448 -71.894283883175149 $631 71.894283883175149 $440 $634 forward 7 unknown #
coedge $-1 $453 $452 $285 $446 reversed $437 $-1 #
edge $-1 $635 -71.894283883175149 $447 71.894283883175149 $445 $636 forward 7 unknown #
vertex $-1 $287 $637 #
vertex $-1 $459 $638 #
straight-curve $-1 71.894283883175149 0 -14.951216294934317 0 -1 0 I I #
coedge $-1 $439 $441 $288 $451 reversed $281 $-1 #
edge $-1 $454 -43.017649763894525 $457 43.017649763894525 $450 $639 forward 7 unknown #
coedge $-1 $445 $289 $294 $460 forward $437 $-1 #
coedge $-1 $289 $445 $439 $630 reversed $437 $-1 #
vertex $-1 $290 $640 #
straight-curve $-1 0 43.017649763894525 14.951216294934317 -1 0 0 I I #
coedge $-1 $291 $440 $293 $459 reversed $175 $-1 #
vertex $-1 $451 $641 #
straight-curve $-1 0 -43.017649763894525 14.951216294934317 1 0 0 I I #
edge $-1 $296 -14.951216294934317 $448 14.951216294934317 $293 $642 forward 7 unknown #
edge $-1 $297 -14.951216294934317 $447 14.951216294934317 $294 $643 forward 7 unknown #
point $-1 71.894283883175149 -43.017649763894525 14.951216294934317 #
point $-1 71.894283883175149 43.017649763894525 14.951216294934317 #
face $-1 $-1 $314 $43 $-1 $644 reversed single #
loop $-1 $-1 $310 $299 #
plane-surface $-1 0 -43.017649763894525 0 0 1 0 0 0 1 forward_v I I I I #
coedge $-1 $645 $646 $307 $476 forward $300 $-1 #
coedge $-1 $477 $302 $304 $472 reversed $183 $-1 #
edge $-1 $474 2.1322292655851944 $315 7.7671226190402534 $313 $647 forward 7 unknown #
coedge $-1 $304 $303 $648 $649 reversed $117 $-1 #
coedge $-1 $481 $480 $303 $471 forward $464 $-1 #
edge $-1 $650 -71.894283883175149 $473 71.894283883175149 $470 $651 forward 7 unknown #
edge $-1 $652 -71.894283883175149 $474 71.894283883175149 $467 $653 forward 7 unknown #
vertex $-1 $471 $654 #
vertex $-1 $306 $655 #
straight-curve $-1 71.894283883175149 -18.223271488188175 7.0819052078979183 0 1 0 I I #
edge $-1 $482 -24.79437827570635 $478 -11.652164700669999 $466 $656 forward 7 unknown #
coedge $-1 $308 $467 $645 $657 reversed $183 $-1 #
vertex $-1 $476 $658 #
straight-curve $-1 0 -29.875436188858174 12.716798561352977 -1 0 0 I I #
coedge $-1 $470 $310 $646 $659 forward $464 $-1 #
coedge $-1 $310 $470 $312 $484 reversed $464 $-1 #
vertex $-1 $659 $660 #
straight-curve $-1 0 -43.017649763894525 12.716798561352977 -1 0 0 I I #
edge $-1 $316 -12.716798561352977 $473 -7.0819052078979183 $312 $661 forward 7 unknown #
point $-1 71.894283883175149 -29.875436188858174 12.716798561352977 #
point $-1 71.894283883175149 -43.017649763894525 12.716798561352977 #
face $-1 $-1 $504 $44 $-1 $662 reversed single #
loop $-1 $-1 $500 $318 #
plane-surface $-1 -71.894283883175149 0 0 1 0 0 0 0 -1 forward_v I I I I #
coedge $-1 $507 $321 $322 $494 reversed $191 $-1 #
coedge $-1 $500 $663 $321 $492 forward $488 $-1 #
edge $-1 $664 2.1322292655851944 $508 7.7671226190402534 $491 $665 forward 7 unknown #
coedge $-1 $323 $322 $663 $666 reversed $121 $-1 #
edge $-1 $497 -71.894283883175149 $664 71.894283883175149 $490 $667 forward 7 unknown #
coedge $-1 $503 $502 $323 $496 forward $504 $-1 #
edge $-1 $498 -71.894283883175149 $668 71.894283883175149 $495 $669 forward 7 unknown #
vertex $-1 $325 $670 #
vertex $-1 $496 $671 #
straight-curve $-1 71.894283883175149 18.223271488188175 7.0819052078979183 0 1 0 I I #
coedge $-1 $672 $491 $326 $501 forward $488 $-1 #
edge $-1 $508 11.652164700669999 $505 24.79437827570635 $500 $673 forward 7 unknown #
coedge $-1 $495 $327 $332 $511 forward $504 $-1 #
coedge $-1 $327 $495 $672 $674 reversed $504 $-1 #
loop $-1 $-1 $327 $487 #
vertex $-1 $674 $675 #
straight-curve $-1 0 43.017649763894525 12.716798561352977 1 0 0 I I #
coedge $-1 $329 $490 $331 $510 reversed $191 $-1 #
vertex $-1 $501 $676 #
straight-curve $-1 0 29.875436188858174 12.716798561352977 1 0 0 I I #
edge $-1 $334 -7.7671226190402534 $497 -2.1322292655851944 $331 $677 forward 7 unknown #
edge $-1 $333 -12.716798561352977 $498 -7.0819052078979183 $332 $678 forward 7 unknown #
point $-1 71.894283883175149 43.017649763894525 12.716798561352977 #
point $-1 71.894283883175149 29.875436188858174 12.716798561352977 #
loop $-1 $-1 $679 $336 #
plane-surface $-1 0 0 14.951216294934317 0 0 1 1 0 0 forward_v I I I I #
coedge $-1 $517 $339 $347 $529 reversed $199 $-1 #
coedge $-1 $339 $516 $679 $680 reversed $199 $-1 #
coedge $-1 $523 $681 $341 $519 forward $514 $-1 #
edge $-1 $521 -18.291658049791522 $527 -15.716011951472652 $518 $682 forward 7 unknown #
coedge $-1 $347 $342 $681 $683 reversed $337 $-1 #
vertex $-1 $519 $684 #
straight-curve $-1 71.894283883175149 -20.283603112540213 105.76562268021029 0 0 1 I I #
coedge $-1 $679 $518 $344 $524 forward $514 $-1 #
edge $-1 $527 7.743843287190618 $525 17.335676363508572 $523 $685 forward 7 unknown #
vertex $-1 $680 $686 #
straight-curve $-1 19.1538280633076 -29.875436188858174 86.593991469683004 0.57357642473473569 0 -0.81915205242281985 I I #
vertex $-1 $524 $687 #
straight-curve $-1 -10.579448733976307 -20.283603112540213 129.05751274326911 0.57357642473473569 0 -0.81915205242281985 I I #
edge $-1 $688 90.814406385275973 $348 94.492810337684716 $347 $689 forward 7 unknown #
point $-1 71.894283883175149 -29.875436188858174 11.272812342525562 #
point $-1 71.894283883175135 -20.283603112540213 11.272812342525569 #
edge $-1 $690 1 $690 0 $351 $-1 forward 7 unknown #
vertex $-1 $352 $691 #
ellipse-curve $-1 69.787308781592898 -25.07951965069919 12.538437893995196 0.81915205242281985 0 0.57357642473473569 0.28678821236736785 0 -0.40957602621140993 1 I I #
point $-1 70.89324904638309 -25.07951965069919 12.70243829251852 #
plane-surface $-1 71.894283883175149 0 0 -1 0 0 0 0 1 forward_v I I I I #
coedge $-1 $547 $546 $539 $692 forward $356 $-1 #
coedge $-1 $539 $358 $360 $543 reversed $214 $-1 #
coedge $-1 $358 $538 $537 $692 reversed $214 $-1 #
coedge $-1 $366 $361 $358 $541 forward $367 $-1 #
edge $-1 $544 -94.492810337684716 $693 -90.814406385275973 $540 $694 forward 7 unknown #
coedge $-1 $360 $359 $547 $695 reversed $134 $-1 #
edge $-1 $696 139.29806573863874 $544 143.7885677663503 $538 $697 forward 7 unknown #
vertex $-1 $362 $698 #
straight-curve $-1 71.894283883175149 -5.0709007781350515 11.272812342525569 0 1 0 I I #
coedge $-1 $537 $363 $366 $551 forward $356 $-1 #
coedge $-1 $363 $537 $542 $695 forward $356 $-1 #
vertex $-1 $364 $699 #
straight-curve $-1 53.602625833383627 -14.937718094429082 14.951216294934312 1 0 0 I I #
straight-curve $-1 -10.579448733976307 -14.937718094429082 129.05751274326911 -0.57357642473473569 0 0.81915205242281985 I I #
edge $-1 $368 -14.937718094429082 $693 -5.3458850181111242 $366 $700 forward 7 unknown #
point $-1 71.894283883175149 -14.937718094429082 14.951216294934317 #
point $-1 71.894283883175135 -14.937718094429082 11.272812342525569 #
edge $-1 $701 1 $701 0 $371 $-1 forward 7 unknown #
vertex $-1 $372 $702 #
ellipse-curve $-1 69.787308781592898 -10.141801556270103 12.538437893995196 0.81915205242281985 0 0.57357642473473569 0.28678821236736785 0 -0.40957602621140993 1 I I #
point $-1 70.89324904638309 -10.141801556270103 12.70243829251852 #
loop $-1 $-1 $383 $375 #
plane-surface $-1 0 0 14.951216294934317 0 0 1 1 0 0 forward_v I I I I #
coedge $-1 $561 $378 $380 $565 reversed $229 $-1 #
coedge $-1 $378 $560 $703 $704 reversed $229 $-1 #
coedge $-1 $386 $381 $378 $563 forward $376 $-1 #
edge $-1 $566 -94.492810337684716 $705 -90.814406385275973 $562 $706 forward 7 unknown #
coedge $-1 $380 $379 $569 $707 reversed $143 $-1 #
edge $-1 $708 139.29806573863874 $566 143.7885677663503 $560 $709 forward 7 unknown #
vertex $-1 $382 $710 #
straight-curve $-1 71.894283883175149 2.3979582690794921 11.272812342525569 0 1 0 I I #
coedge $-1 $703 $383 $386 $573 forward $558 $-1 #
coedge $-1 $383 $703 $564 $707 forward $558 $-1 #
vertex $-1 $384 $711 #
straight-curve $-1 53.602625833383627 5.3290705182007514e-015 14.951216294934312 1 0 0 I I #
straight-curve $-1 -10.579448733976307 5.3290705182007514e-015 129.05751274326911 -0.57357642473473569 0 0.81915205242281985 I I #
edge $-1 $387 5.3290705182007514e-015 $705 9.5918330763179629 $386 $712 forward 7 unknown #
point $-1 71.894283883175149 5.3290705182007514e-015 14.951216294934317 #
point $-1 71.894283883175135 5.3290705182007514e-015 11.272812342525569 #
edge $-1 $713 1 $713 0 $390 $-1 forward 7 unknown #
vertex $-1 $391 $714 #
ellipse-curve $-1 69.787308781592898 4.7959165381589841 12.538437893995196 0.81915205242281985 0 0.57357642473473569 0.28678821236736785 0 -0.40957602621140993 1 I I #
point $-1 70.89324904638309 4.7959165381589841 12.70243829251852 #
loop $-1 $-1 $402 $394 #
plane-surface $-1 0 0 14.951216294934317 0 0 1 1 0 0 forward_v I I I I #
coedge $-1 $583 $397 $399 $587 reversed $244 $-1 #
coedge $-1 $397 $582 $715 $716 reversed $244 $-1 #
coedge $-1 $405 $400 $397 $585 forward $395 $-1 #
edge $-1 $588 -94.492810337684716 $717 -90.814406385275973 $584 $718 forward 7 unknown #
coedge $-1 $399 $398 $591 $719 reversed $152 $-1 #
edge $-1 $720 139.29806573863874 $588 143.7885677663503 $582 $721 forward 7 unknown #
vertex $-1 $401 $722 #
straight-curve $-1 71.894283883175149 9.8668173162940356 11.272812342525569 0 1 0 I I #
coedge $-1 $715 $402 $405 $595 forward $580 $-1 #
coedge $-1 $402 $715 $586 $719 forward $580 $-1 #
vertex $-1 $403 $723 #
straight-curve $-1 53.602625833383627 14.937718094429092 14.951216294934312 1 0 0 I I #
straight-curve $-1 -10.579448733976307 14.937718094429092 129.05751274326911 -0.57357642473473569 0 0.81915205242281985 I I #
edge $-1 $406 14.937718094429092 $717 24.529551170747048 $405 $724 forward 7 unknown #
point $-1 71.894283883175149 14.937718094429092 14.951216294934317 #
point $-1 71.894283883175135 14.937718094429092 11.272812342525569 #
edge $-1 $725 1 $725 0 $409 $-1 forward 7 unknown #
vertex $-1 $410 $726 #
ellipse-curve $-1 69.787308781592898 19.733634632588071 12.538437893995196 0.81915205242281985 0 0.57357642473473569 0.28678821236736785 0 -0.40957602621140993 1 I I #
point $-1 70.89324904638309 19.733634632588071 12.70243829251852 #
loop $-1 $-1 $421 $413 #
plane-surface $-1 0 0 14.951216294934317 0 0 1 1 0 0 forward_v I I I I #
coedge $-1 $605 $416 $418 $609 reversed $259 $-1 #
coedge $-1 $416 $604 $727 $728 reversed $259 $-1 #
coedge $-1 $424 $419 $416 $607 forward $414 $-1 #
edge $-1 $610 -48.904760374717824 $729 -37.81789347535922 $606 $730 forward 7 unknown #
coedge $-1 $418 $417 $613 $731 reversed $161 $-1 #
edge $-1 $732 -15.679197351379585 $610 0 $604 $733 forward 7 unknown #
vertex $-1 $420 $734 #
straight-curve $-1 -71.894283883175149 5.2922372659727266 3.8643493955757084 0 -1 0 I I #
coedge $-1 $727 $421 $424 $617 forward $602 $-1 #
coedge $-1 $421 $727 $608 $731 forward $602 $-1 #
vertex $-1 $422 $735 #
straight-curve $-1 -86.784078193769602 17.277386016213356 14.951216294934319 -1 0 0 I I #
straight-curve $-1 -71.894283883175149 17.277386016213356 3.8643493955757151 0.70710677298230451 0 0.70710678939079041 I I #
edge $-1 $425 -17.277386016213356 $729 -3.8915630476775505 $424 $736 forward 7 unknown #
point $-1 -71.894283883175149 17.277386016213356 14.951216294934317 #
point $-1 -71.894283883175149 17.277386016213356 3.8643493955757151 #
edge $-1 $737 1 $737 0 $428 $-1 forward 7 unknown #
vertex $-1 $429 $738 #
ellipse-curve $-1 -65.237826883540251 7.7160838958306357 8.294759192491302 -0.70710678939079041 0 0.70710677298230451 0.70710677298230451 0 0.70710678939079041 1 I I #
point $-1 -65.643743789149482 7.7160838958306357 10.114889634645801 #
edge $-1 $739 1 $739 0 $432 $-1 forward 7 unknown #
vertex $-1 $433 $740 #
ellipse-curve $-1 -65.237826883540251 13.452865168060264 8.294759192491302 -0.70710678939079041 0 0.70710677298230451 0.70710677298230451 0 0.70710678939079041 1 I I #
point $-1 -65.643743789149482 13.452865168060264 10.114889634645801 #
plane-surface $-1 71.894283883175149 0 0 -1 0 0 0 0 1 forward_v I I I I #
coedge $-1 $441 $439 $443 $633 reversed $281 $-1 #
edge $-1 $454 -14.951216294934317 $635 14.951216294934317 $453 $741 forward 7 unknown #
vertex $-1 $633 $742 #
straight-curve $-1 -71.894283883175149 -43.017649763894525 0 0 0 -1 I I #
edge $-1 $631 -43.017649763894525 $635 43.017649763894525 $629 $743 forward 7 unknown #
straight-curve $-1 0 -43.017649763894525 -14.951216294934317 -1 0 0 I I #
vertex $-1 $446 $744 #
straight-curve $-1 0 43.017649763894525 -14.951216294934317 1 0 0 I I #
point $-1 71.894283883175149 43.017649763894525 -14.951216294934317 #
point $-1 71.894283883175149 -43.017649763894525 -14.951216294934317 #
straight-curve $-1 -71.894283883175149 0 14.951216294934317 0 -1 0 I I #
point $-1 -71.894283883175149 43.017649763894525 14.951216294934317 #
point $-1 -71.894283883175149 -43.017649763894525 14.951216294934317 #
straight-curve $-1 71.894283883175149 -43.017649763894525 0 0 0 -1 I I #
straight-curve $-1 71.894283883175149 43.017649763894525 0 0 0 -1 I I #
plane-surface $-1 71.894283883175149 0 0 -1 0 0 0 0 1 forward_v I I I I #
coedge $-1 $648 $466 $477 $657 forward $300 $-1 #
coedge $-1 $466 $648 $480 $659 reversed $300 $-1 #
straight-curve $-1 71.894283883175149 -29.875436188858174 4.9496759423127239 0 0 1 I I #
coedge $-1 $646 $645 $469 $649 forward $300 $-1 #
edge $-1 $652 11.652164700669999 $650 24.79437827570635 $648 $745 forward 7 unknown #
vertex $-1 $471 $746 #
straight-curve $-1 0 -43.017649763894525 7.0819052078979183 1 0 0 I I #
vertex $-1 $649 $747 #
straight-curve $-1 0 -29.875436188858174 7.0819052078979183 1 0 0 I I #
point $-1 71.894283883175149 -43.017649763894525 7.0819052078979183 #
point $-1 71.894283883175149 -29.875436188858174 7.0819052078979183 #
straight-curve $-1 -71.894283883175149 -18.223271488188175 12.716798561352977 0 1 0 I I #
edge $-1 $478 -7.7671226190402534 $652 -2.1322292655851944 $645 $748 forward 7 unknown #
point $-1 -71.894283883175149 -29.875436188858174 12.716798561352977 #
edge $-1 $482 -12.716798561352977 $650 -7.0819052078979183 $646 $749 forward 7 unknown #
point $-1 -71.894283883175149 -43.017649763894525 12.716798561352977 #
straight-curve $-1 71.894283883175149 -43.017649763894525 0 0 0 -1 I I #
plane-surface $-1 0 43.017649763894525 0 0 -1 0 0 0 -1 forward_v I I I I #
coedge $-1 $491 $672 $493 $666 forward $488 $-1 #
vertex $-1 $666 $750 #
straight-curve $-1 -71.894283883175149 29.875436188858174 4.9496759423127239 0 0 1 I I #
edge $-1 $668 -24.79437827570635 $664 -11.652164700669999 $663 $751 forward 7 unknown #
straight-curve $-1 0 29.875436188858174 7.0819052078979183 -1 0 0 I I #
vertex $-1 $496 $752 #
straight-curve $-1 0 43.017649763894525 7.0819052078979183 -1 0 0 I I #
point $-1 71.894283883175149 29.875436188858174 7.0819052078979183 #
point $-1 71.894283883175149 43.017649763894525 7.0819052078979183 #
coedge $-1 $663 $500 $503 $674 forward $488 $-1 #
straight-curve $-1 -71.894283883175149 18.223271488188175 12.716798561352977 0 1 0 I I #
edge $-1 $505 -12.716798561352977 $668 -7.0819052078979183 $503 $753 forward 7 unknown #
point $-1 -71.894283883175149 43.017649763894525 12.716798561352977 #
point $-1 -71.894283883175149 29.875436188858174 12.716798561352977 #
straight-curve $-1 71.894283883175149 29.875436188858174 4.9496759423127239 0 0 -1 I I #
straight-curve $-1 71.894283883175149 43.017649763894525 0 0 0 -1 I I #
coedge $-1 $681 $523 $517 $680 forward $514 $-1 #
edge $-1 $525 15.716011951472652 $688 18.291658049791522 $679 $754 forward 7 unknown #
coedge $-1 $518 $679 $520 $683 forward $514 $-1 #
straight-curve $-1 53.602625833383627 -20.283603112540213 14.951216294934312 -1 0 0 I I #
edge $-1 $688 -29.875436188858167 $521 -20.283603112540213 $520 $755 forward 7 unknown #
point $-1 71.894283883175149 -20.283603112540213 14.951216294934317 #
straight-curve $-1 69.318637784856293 -12.539759825349595 14.951216294934312 0 -1 0 I I #
point $-1 69.318637784856278 -29.875436188858167 14.951216294934312 #
point $-1 69.318637784856278 -20.283603112540213 14.951216294934312 #
vertex $-1 $683 $756 #
straight-curve $-1 71.894283883175149 -29.875436188858167 105.76562268021029 0 0 -1 I I #
vertex $-1 $532 $757 #
point $-1 70.074096993960268 -25.07951965069919 12.128861867783785 #
edge $-1 $693 -18.291658049791522 $696 -15.716011951472652 $537 $758 forward 7 unknown #
vertex $-1 $692 $759 #
straight-curve $-1 71.894283883175149 -5.3458850181111242 105.76562268021029 0 0 1 I I #
edge $-1 $696 0.27498423997607269 $548 9.8668173162940302 $547 $760 forward 7 unknown #
vertex $-1 $695 $761 #
straight-curve $-1 -10.579448733976307 -5.3458850181111242 129.05751274326911 0.57357642473473569 0 -0.81915205242281985 I I #
point $-1 71.894283883175135 -5.3458850181111242 11.272812342525569 #
point $-1 69.318637784856278 -14.937718094429082 14.951216294934312 #
straight-curve $-1 71.894283883175149 0 14.951216294934317 0 1 0 I I #
vertex $-1 $554 $762 #
point $-1 70.074096993960268 -10.141801556270103 12.128861867783785 #
coedge $-1 $569 $568 $561 $704 forward $558 $-1 #
edge $-1 $705 -18.291658049791522 $708 -15.716011951472652 $703 $763 forward 7 unknown #
vertex $-1 $704 $764 #
straight-curve $-1 71.894283883175149 9.5918330763179629 105.76562268021029 0 0 1 I I #
edge $-1 $708 -7.1938748072384708 $570 2.3979582690794867 $569 $765 forward 7 unknown #
vertex $-1 $707 $766 #
straight-curve $-1 -10.579448733976307 9.5918330763179629 129.05751274326911 0.57357642473473569 0 -0.81915205242281985 I I #
point $-1 71.894283883175135 9.5918330763179629 11.272812342525569 #
point $-1 69.318637784856278 5.3290705182007514e-015 14.951216294934312 #
straight-curve $-1 71.894283883175149 0 14.951216294934317 0 1 0 I I #
vertex $-1 $576 $767 #
point $-1 70.074096993960268 4.7959165381589841 12.128861867783785 #
coedge $-1 $591 $590 $583 $716 forward $580 $-1 #
edge $-1 $717 -18.291658049791522 $720 -15.716011951472652 $715 $768 forward 7 unknown #
vertex $-1 $716 $769 #
straight-curve $-1 71.894283883175149 24.529551170747048 105.76562268021029 0 0 1 I I #
edge $-1 $720 -14.662733854453013 $592 -5.0709007781350568 $591 $770 forward 7 unknown #
vertex $-1 $719 $771 #
straight-curve $-1 -10.579448733976307 24.529551170747048 129.05751274326911 0.57357642473473569 0 -0.81915205242281985 I I #
point $-1 71.894283883175135 24.529551170747048 11.272812342525569 #
point $-1 69.318637784856278 14.937718094429092 14.951216294934312 #
straight-curve $-1 71.894283883175149 0 14.951216294934317 0 1 0 I I #
vertex $-1 $598 $772 #
point $-1 70.074096993960268 19.733634632588071 12.128861867783785 #
coedge $-1 $613 $612 $605 $728 forward $602 $-1 #
edge $-1 $729 14.889794310594453 $732 25.976660952681165 $727 $773 forward 7 unknown #
vertex $-1 $728 $774 #
straight-curve $-1 -71.894283883175149 3.8915630476775505 52.769109770293539 0 0 1 I I #
edge $-1 $732 -1.4006742182951761 $614 11.985148750240629 $613 $775 forward 7 unknown #
vertex $-1 $731 $776 #
straight-curve $-1 -71.894283883175149 3.8915630476775505 3.8643493955757151 -0.70710677298230451 0 -0.70710678939079041 I I #
point $-1 -71.894283883175149 3.8915630476775505 3.8643493955757151 #
point $-1 -60.807417241088437 17.277386016213356 14.951216294934317 #
straight-curve $-1 -71.894283883175149 0 14.951216294934317 0 -1 0 I I #
vertex $-1 $620 $777 #
point $-1 -64.530720110557951 7.7160838958306357 9.0018659818820925 #
vertex $-1 $624 $778 #
point $-1 -64.530720110557951 13.452865168060264 9.0018659818820925 #
straight-curve $-1 -71.894283883175149 43.017649763894525 0 0 0 -1 I I #
point $-1 -71.894283883175149 -43.017649763894525 -14.951216294934317 #
straight-curve $-1 -71.894283883175149 0 -14.951216294934317 0 1 0 I I #
point $-1 -71.894283883175149 43.017649763894525 -14.951216294934317 #
straight-curve $-1 -71.894283883175149 -18.223271488188175 7.0819052078979183 0 -1 0 I I #
point $-1 -71.894283883175149 -43.017649763894525 7.0819052078979183 #
point $-1 -71.894283883175149 -29.875436188858174 7.0819052078979183 #
straight-curve $-1 -71.894283883175149 -29.875436188858174 4.9496759423127239 0 0 -1 I I #
straight-curve $-1 -71.894283883175149 -43.017649763894525 0 0 0 -1 I I #
point $-1 -71.894283883175149 29.875436188858174 7.0819052078979183 #
straight-curve $-1 -71.894283883175149 18.223271488188175 7.0819052078979183 0 -1 0 I I #
point $-1 -71.894283883175149 43.017649763894525 7.0819052078979183 #
straight-curve $-1 -71.894283883175149 43.017649763894525 0 0 0 -1 I I #
straight-curve $-1 53.602625833383627 -29.875436188858167 14.951216294934312 1 0 0 I I #
straight-curve $-1 71.894283883175149 0 14.951216294934317 0 1 0 I I #
point $-1 71.894283883175149 -29.875436188858167 14.951216294934317 #
point $-1 69.377732755381501 -25.07951965069919 12.251649681627827 #
straight-curve $-1 53.602625833383627 -5.3458850181111242 14.951216294934312 -1 0 0 I I #
point $-1 71.894283883175149 -5.3458850181111242 14.951216294934317 #
straight-curve $-1 69.318637784856293 -5.0709007781350515 14.951216294934312 0 -1 0 I I #
point $-1 69.318637784856278 -5.3458850181111242 14.951216294934312 #
point $-1 69.377732755381501 -10.141801556270103 12.251649681627827 #
straight-curve $-1 53.602625833383627 9.5918330763179629 14.951216294934312 -1 0 0 I I #
point $-1 71.894283883175149 9.5918330763179629 14.951216294934317 #
straight-curve $-1 69.318637784856293 2.3979582690794921 14.951216294934312 0 -1 0 I I #
point $-1 69.318637784856278 9.5918330763179629 14.951216294934312 #
point $-1 69.377732755381501 4.7959165381589841 12.251649681627827 #
straight-curve $-1 53.602625833383627 24.529551170747048 14.951216294934312 -1 0 0 I I #
point $-1 71.894283883175149 24.529551170747048 14.951216294934317 #
straight-curve $-1 69.318637784856293 9.8668173162940356 14.951216294934312 0 -1 0 I I #
point $-1 69.318637784856278 24.529551170747048 14.951216294934312 #
point $-1 69.377732755381501 19.733634632588071 12.251649681627827 #
straight-curve $-1 -86.784078193769602 3.8915630476775505 14.951216294934319 1 0 0 I I #
point $-1 -71.894283883175149 3.8915630476775505 14.951216294934317 #
straight-curve $-1 -60.80741724108843 5.2922372659727266 14.951216294934317 0 1 0 I I #
point $-1 -60.807417241088437 3.8915630476775505 14.951216294934317 #
point $-1 -64.530720094149459 7.7160838958306357 7.5876524195089976 #
point $-1 -64.530720094149459 13.452865168060264 7.5876524195089976 #
End-of-ACIS-data 