500 0 6 0           
7 Unknown 11 ACIS 5.0 NT 24 Fri Mar 26 03:29:45 1999 
-1 9.9999999999999995e-007 1e-010 
body $-1 $6 $-1 $7 #
body $-1 $8 $-1 $9 #
body $-1 $10 $-1 $11 #
body $-1 $12 $-1 $13 #
body $-1 $14 $-1 $15 #
body $-1 $16 $-1 $17 #
lump $-1 $-1 $18 $0 #
transform $-1 1 0 0 0 1 0 0 0 1 49.128696554460277 31.675092510122479 6.6633018790940355 1 rotate no_reflect no_shear #
lump $-1 $-1 $19 $1 #
transform $-1 1 0 0 0 1 0 0 0 1 49.128696554460277 31.675092510122479 6.6633018790940355 1 rotate no_reflect no_shear #
lump $-1 $-1 $20 $2 #
transform $-1 1 0 0 0 1 0 0 0 1 49.128696554460277 31.675092510122479 6.6633018790940355 1 rotate no_reflect no_shear #
lump $-1 $-1 $21 $3 #
transform $-1 1 0 0 0 1 0 0 0 1 49.128696554460277 31.675092510122479 6.6633018790940355 1 rotate no_reflect no_shear #
lump $-1 $-1 $22 $4 #
transform $-1 1 0 0 0 1 0 0 0 1 49.128696554460277 31.675092510122479 6.6633018790940355 1 rotate no_reflect no_shear #
lump $-1 $-1 $23 $5 #
transform $-1 1 0 0 0 1 0 0 0 1 49.128696554460277 31.675092510122479 6.6633018790940355 1 rotate no_reflect no_shear #
shell $-1 $-1 $-1 $24 $-1 $6 #
shell $-1 $-1 $-1 $25 $-1 $8 #
shell $-1 $-1 $-1 $26 $-1 $10 #
shell $-1 $-1 $-1 $27 $-1 $12 #
shell $-1 $-1 $-1 $28 $-1 $14 #
shell $-1 $-1 $-1 $29 $-1 $16 #
face $-1 $30 $31 $18 $-1 $32 forward single #
face $-1 $33 $34 $19 $-1 $35 forward single #
face $-1 $36 $37 $20 $-1 $38 forward single #
face $-1 $39 $40 $21 $-1 $41 reversed single #
face $-1 $42 $43 $22 $-1 $44 forward single #
face $-1 $45 $46 $23 $-1 $47 forward single #
face $-1 $48 $49 $18 $-1 $50 reversed single #
loop $-1 $-1 $51 $24 #
plane-surface $-1 0 0 6.6633018790940355 0 0 1 1 0 0 forward_v I I I I #
face $-1 $52 $53 $19 $-1 $54 forward single #
loop $-1 $-1 $55 $25 #
plane-surface $-1 -49.128696554460277 0 0 1 0 0 0 0 -1 forward_v I I I I #
face $-1 $56 $57 $20 $-1 $58 reversed single #
loop $-1 $-1 $59 $26 #
plane-surface $-1 49.128696554460277 0 0 -1 0 0 0 0 1 forward_v I I I I #
face $-1 $60 $61 $21 $-1 $62 reversed single #
loop $-1 $-1 $63 $27 #
plane-surface $-1 23.399291105284007 -82.281391775804948 87.239683299972754 -1 0 0 0 -0.51503808176128008 0.85716729658548041 forward_v I I I I #
face $-1 $64 $65 $22 $-1 $66 forward single #
loop $-1 $67 $68 $28 #
cone-surface $-1 15.518514995515105 -27.814750251810569 3.4655751963555241 0 0.51503808176128008 -0.85716729658548041 1 0 0 1 I I 0 1 1 forward I I I I #
face $-1 $69 $70 $23 $-1 $71 forward single #
loop $-1 $72 $73 $29 #
cone-surface $-1 20.246980661376455 -27.814750251810569 3.4655751963555241 0 0.51503808176128008 -0.85716729658548041 1 0 0 1 I I 0 1 1 forward I I I I #
face $-1 $74 $75 $18 $-1 $76 reversed single #
loop $-1 $-1 $77 $30 #
plane-surface $-1 0 0 -6.6633018790940355 0 0 1 1 0 0 forward_v I I I I #
coedge $-1 $78 $79 $80 $81 forward $31 $-1 #
face $-1 $82 $83 $19 $-1 $84 reversed single #
loop $-1 $-1 $85 $33 #
plane-surface $-1 0 0 6.6633018790940355 0 0 1 1 0 0 forward_v I I I I #
coedge $-1 $86 $87 $88 $89 forward $34 $-1 #
face $-1 $90 $91 $20 $-1 $92 reversed single #
loop $-1 $-1 $93 $36 #
plane-surface $-1 0 -31.675092510122479 0 0 1 0 0 0 1 forward_v I I I I #
coedge $-1 $94 $95 $96 $97 forward $37 $-1 #
face $-1 $98 $99 $21 $-1 $100 reversed single #
loop $-1 $-1 $101 $39 #
plane-surface $-1 17.882747828445773 -31.675092510122489 3.0166592792625124 0 -0.51503808176128008 0.85716729658548041 1 0 0 forward_v I I I I #
coedge $-1 $102 $103 $104 $105 reversed $40 $-1 #
face $-1 $-1 $106 $22 $-1 $107 forward single #
loop $-1 $108 $109 $42 #
cone-surface $-1 15.518514995515105 -26.73140512686069 1.6625861652400395 0 0.51503808176128008 -0.85716729658548041 0.5 0 0 1 I I -0.70710678118654746 0.70710678118654746 0.5 forward I I I I #
loop $-1 $-1 $110 $28 #
coedge $-1 $68 $68 $111 $112 reversed $43 $-1 #
face $-1 $-1 $113 $23 $-1 $114 forward single #
loop $-1 $115 $116 $45 #
cone-surface $-1 20.246980661376455 -26.73140512686069 1.6625861652400395 0 0.51503808176128008 -0.85716729658548041 0.5 0 0 1 I I -0.70710678118654746 0.70710678118654746 0.5 forward I I I I #
loop $-1 $-1 $117 $29 #
coedge $-1 $73 $73 $118 $119 reversed $46 $-1 #
face $-1 $120 $121 $18 $-1 $122 reversed single #
loop $-1 $-1 $123 $48 #
plane-surface $-1 0 -31.675092510122479 0 0 1 0 0 0 1 forward_v I I I I #
coedge $-1 $124 $125 $126 $127 forward $49 $-1 #
coedge $-1 $128 $51 $129 $130 forward $31 $-1 #
coedge $-1 $51 $128 $131 $132 forward $31 $-1 #
coedge $-1 $133 $134 $51 $81 reversed $135 $-1 #
edge $-1 $136 -31.675092510122479 $137 31.675092510122479 $80 $138 forward 7 unknown #
face $-1 $139 $140 $19 $-1 $141 reversed single #
loop $-1 $-1 $142 $52 #
plane-surface $-1 -56.51997743269655 -30.175092510122479 0 1 0 0 0 0 -1 forward_v I I I I #
coedge $-1 $143 $144 $86 $145 forward $53 $-1 #
coedge $-1 $146 $55 $85 $145 reversed $34 $-1 #
coedge $-1 $55 $146 $147 $148 reversed $34 $-1 #
coedge $-1 $149 $150 $55 $89 reversed $140 $-1 #
edge $-1 $151 -6.6633018790940355 $152 6.6633018790940355 $88 $153 forward 7 unknown #
face $-1 $154 $155 $20 $-1 $156 reversed single #
loop $-1 $-1 $157 $56 #
plane-surface $-1 0 0 -6.6633018790940355 0 0 1 1 0 0 forward_v I I I I #
coedge $-1 $158 $159 $160 $161 forward $57 $-1 #
coedge $-1 $160 $59 $157 $162 reversed $37 $-1 #
coedge $-1 $59 $160 $163 $164 reversed $37 $-1 #
coedge $-1 $165 $166 $59 $97 reversed $155 $-1 #
edge $-1 $167 -6.6633018790940355 $168 6.6633018790940355 $96 $169 forward 7 unknown #
face $-1 $170 $171 $21 $-1 $172 forward single #
loop $-1 $-1 $173 $60 #
plane-surface $-1 12.366204551607538 -82.281391775804948 87.239683299972754 1 0 0 0 0.51503808176128008 -0.85716729658548041 forward_v I I I I #
coedge $-1 $174 $175 $176 $177 reversed $61 $-1 #
coedge $-1 $103 $63 $178 $179 reversed $40 $-1 #
coedge $-1 $63 $102 $174 $180 reversed $40 $-1 #
coedge $-1 $176 $181 $63 $105 forward $171 $-1 #
edge $-1 $182 9.4656033777799955 $183 15.5346357262653 $104 $184 forward 7 unknown #
loop $-1 $-1 $111 $64 #
plane-surface $-1 17.882747828445773 -31.675092510122489 3.0166592792625124 0 -0.51503808176128008 0.85716729658548041 1 0 0 forward_v I I I I #
loop $-1 $-1 $185 $42 #
coedge $-1 $109 $109 $110 $186 reversed $65 $-1 #
coedge $-1 $110 $110 $109 $186 forward $67 $-1 #
coedge $-1 $111 $111 $68 $112 forward $106 $-1 #
edge $-1 $187 -1.2285913935065173e-015 $187 6.2831853071795996 $111 $188 forward 7 unknown #
loop $-1 $-1 $118 $69 #
plane-surface $-1 17.882747828445773 -31.675092510122489 3.0166592792625124 0 -0.51503808176128008 0.85716729658548041 1 0 0 forward_v I I I I #
loop $-1 $-1 $189 $45 #
coedge $-1 $116 $116 $117 $190 reversed $70 $-1 #
coedge $-1 $117 $117 $116 $190 forward $72 $-1 #
coedge $-1 $118 $118 $73 $119 forward $113 $-1 #
edge $-1 $191 -1.2285913935065173e-015 $191 6.2831853071795996 $118 $192 forward 7 unknown #
face $-1 $193 $194 $18 $-1 $195 reversed single #
loop $-1 $-1 $196 $74 #
plane-surface $-1 -49.128696554460277 0 0 1 0 0 0 0 -1 forward_v I I I I #
coedge $-1 $197 $131 $198 $199 forward $75 $-1 #
coedge $-1 $200 $77 $197 $201 forward $49 $-1 #
coedge $-1 $77 $200 $202 $203 forward $49 $-1 #
coedge $-1 $134 $133 $77 $127 reversed $135 $-1 #
edge $-1 $204 -31.675092510122479 $205 31.675092510122479 $126 $206 forward 7 unknown #
coedge $-1 $79 $78 $207 $208 forward $31 $-1 #
coedge $-1 $209 $210 $78 $130 reversed $194 $-1 #
edge $-1 $137 -49.128696554460277 $211 49.128696554460277 $129 $212 forward 7 unknown #
coedge $-1 $123 $213 $79 $132 reversed $75 $-1 #
edge $-1 $214 -49.128696554460277 $136 49.128696554460277 $131 $215 forward 7 unknown #
coedge $-1 $126 $80 $213 $216 forward $135 $-1 #
coedge $-1 $80 $126 $209 $217 reversed $135 $-1 #
loop $-1 $-1 $133 $193 #
vertex $-1 $81 $218 #
vertex $-1 $81 $219 #
straight-curve $-1 49.128696554460277 0 6.6633018790940355 0 1 0 I I #
face $-1 $220 $221 $19 $-1 $222 reversed single #
loop $-1 $-1 $88 $82 #
plane-surface $-1 -52.824336993578413 -28.675092510122479 0 0 -1 0 0 0 -1 forward_v I I I I #
coedge $-1 $223 $224 $225 $226 forward $83 $-1 #
coedge $-1 $227 $85 $150 $228 forward $53 $-1 #
coedge $-1 $85 $227 $229 $230 forward $53 $-1 #
edge $-1 $231 -31.675092510122479 $152 -28.675092510122479 $85 $232 forward 7 unknown #
coedge $-1 $87 $86 $233 $234 reversed $34 $-1 #
coedge $-1 $235 $236 $87 $148 forward $221 $-1 #
edge $-1 $151 28.675092510122479 $237 31.675092510122479 $147 $238 forward 7 unknown #
coedge $-1 $225 $88 $236 $239 reversed $140 $-1 #
coedge $-1 $88 $225 $143 $228 reversed $140 $-1 #
vertex $-1 $148 $240 #
vertex $-1 $228 $241 #
straight-curve $-1 -49.128696554460277 -28.675092510122479 0 0 0 1 I I #
face $-1 $242 $243 $20 $-1 $244 reversed single #
loop $-1 $-1 $245 $90 #
plane-surface $-1 52.824336993578413 -28.675092510122479 0 0 -1 0 0 0 -1 forward_v I I I I #
coedge $-1 $246 $247 $94 $162 forward $91 $-1 #
coedge $-1 $248 $93 $247 $249 reversed $57 $-1 #
coedge $-1 $93 $248 $250 $251 reversed $57 $-1 #
coedge $-1 $95 $94 $93 $161 reversed $37 $-1 #
edge $-1 $252 -6.6633018790940355 $253 6.6633018790940355 $93 $254 forward 7 unknown #
edge $-1 $253 -31.675092510122479 $168 -28.675092510122479 $157 $255 forward 7 unknown #
coedge $-1 $250 $256 $95 $164 forward $257 $-1 #
edge $-1 $167 28.675092510122479 $252 31.675092510122479 $163 $258 forward 7 unknown #
coedge $-1 $245 $96 $256 $259 reversed $155 $-1 #
coedge $-1 $96 $245 $246 $260 reversed $155 $-1 #
vertex $-1 $164 $261 #
vertex $-1 $260 $262 #
straight-curve $-1 49.128696554460277 -28.675092510122479 0 0 0 -1 I I #
face $-1 $-1 $263 $21 $-1 $264 reversed single #
loop $-1 $-1 $104 $98 #
plane-surface $-1 0 0 6.6633018790940355 0 0 1 1 0 0 forward_v I I I I #
coedge $-1 $265 $266 $267 $268 reversed $99 $-1 #
coedge $-1 $269 $101 $103 $180 forward $61 $-1 #
coedge $-1 $101 $269 $265 $270 forward $61 $-1 #
coedge $-1 $267 $104 $101 $177 forward $171 $-1 #
edge $-1 $183 -14.457917191061121 $271 -3.4248306373846518 $176 $272 forward 7 unknown #
coedge $-1 $273 $274 $102 $179 forward $263 $-1 #
edge $-1 $275 -40.603182370723857 $182 -36.956539770892341 $178 $276 forward 7 unknown #
edge $-1 $183 -7.0803358605271818 $275 -1.2337929905607871e-014 $103 $277 forward 7 unknown #
coedge $-1 $104 $267 $273 $278 forward $171 $-1 #
vertex $-1 $105 $279 #
vertex $-1 $105 $280 #
straight-curve $-1 23.399291105284007 -41.140695887902474 6.6633018790940355 0 1 0 I I #
coedge $-1 $185 $185 $-1 $281 reversed $108 $-1 #
edge $-1 $282 0 $282 6.2831853071796004 $109 $283 forward 7 unknown #
vertex $-1 $112 $284 #
ellipse-curve $-1 15.518514995515105 -28.640576335879818 4.8399805791782819 0 -0.51503808176128008 0.85716729658548041 1 0 0 1 I I #
coedge $-1 $189 $189 $-1 $285 reversed $115 $-1 #
edge $-1 $286 0 $286 6.2831853071796004 $116 $287 forward 7 unknown #
vertex $-1 $119 $288 #
ellipse-curve $-1 20.246980661376455 -28.640576335879818 4.8399805791782819 0 -0.51503808176128008 0.85716729658548041 1 0 0 1 I I #
face $-1 $-1 $135 $18 $-1 $289 reversed single #
loop $-1 $-1 $209 $120 #
plane-surface $-1 0 31.675092510122479 0 0 -1 0 0 0 -1 forward_v I I I I #
coedge $-1 $290 $207 $210 $291 forward $121 $-1 #
coedge $-1 $213 $123 $124 $201 reversed $75 $-1 #
coedge $-1 $207 $290 $123 $199 reversed $121 $-1 #
edge $-1 $214 -6.6633018790940355 $292 6.6633018790940355 $198 $293 forward 7 unknown #
coedge $-1 $125 $124 $290 $294 forward $49 $-1 #
edge $-1 $205 -49.128696554460277 $292 49.128696554460277 $197 $295 forward 7 unknown #
coedge $-1 $210 $209 $125 $203 reversed $194 $-1 #
edge $-1 $296 -49.128696554460277 $204 49.128696554460277 $202 $297 forward 7 unknown #
vertex $-1 $127 $298 #
vertex $-1 $216 $299 #
straight-curve $-1 49.128696554460277 0 -6.6633018790940355 0 -1 0 I I #
coedge $-1 $196 $198 $128 $208 reversed $121 $-1 #
edge $-1 $211 -31.675092510122479 $214 31.675092510122479 $207 $300 forward 7 unknown #
coedge $-1 $202 $129 $134 $217 forward $194 $-1 #
coedge $-1 $129 $202 $196 $291 reversed $194 $-1 #
vertex $-1 $130 $301 #
straight-curve $-1 0 31.675092510122479 6.6633018790940355 -1 0 0 I I #
coedge $-1 $131 $197 $133 $216 reversed $75 $-1 #
vertex $-1 $208 $302 #
straight-curve $-1 0 -31.675092510122479 6.6633018790940355 1 0 0 I I #
edge $-1 $136 -6.6633018790940355 $205 6.6633018790940355 $133 $303 forward 7 unknown #
edge $-1 $137 -6.6633018790940355 $204 6.6633018790940355 $134 $304 forward 7 unknown #
point $-1 49.128696554460277 -31.675092510122479 6.6633018790940355 #
point $-1 49.128696554460277 31.675092510122479 6.6633018790940355 #
face $-1 $-1 $305 $19 $-1 $306 reversed single #
loop $-1 $-1 $147 $139 #
plane-surface $-1 0 0 -6.6633018790940355 0 0 1 1 0 0 forward_v I I I I #
coedge $-1 $307 $142 $308 $309 reversed $83 $-1 #
coedge $-1 $142 $307 $227 $310 reversed $83 $-1 #
coedge $-1 $150 $149 $142 $226 reversed $140 $-1 #
edge $-1 $311 -6.6633018790940355 $312 6.6633018790940355 $225 $313 forward 7 unknown #
coedge $-1 $144 $143 $224 $310 forward $53 $-1 #
edge $-1 $152 -3.6956404391181366 $311 3.6956404391181366 $150 $314 forward 7 unknown #
coedge $-1 $315 $233 $144 $230 reversed $305 $-1 #
edge $-1 $316 -56.51997743269655 $231 -49.128696554460277 $229 $317 forward 7 unknown #
vertex $-1 $234 $318 #
straight-curve $-1 -49.128696554460277 0 6.6633018790940355 0 1 0 I I #
coedge $-1 $229 $319 $146 $234 forward $305 $-1 #
edge $-1 $237 -6.6633018790940355 $231 6.6633018790940355 $233 $320 forward 7 unknown #
coedge $-1 $308 $147 $319 $321 forward $221 $-1 #
coedge $-1 $147 $308 $149 $239 forward $221 $-1 #
vertex $-1 $321 $322 #
straight-curve $-1 -49.128696554460277 0 -6.6633018790940355 0 -1 0 I I #
edge $-1 $312 -3.6956404391181366 $151 3.6956404391181366 $149 $323 forward 7 unknown #
point $-1 -49.128696554460277 -28.675092510122479 -6.6633018790940355 #
point $-1 -49.128696554460277 -28.675092510122479 6.6633018790940355 #
face $-1 $-1 $257 $20 $-1 $324 forward single #
loop $-1 $-1 $325 $154 #
plane-surface $-1 56.51997743269655 -30.175092510122479 0 -1 0 0 0 0 1 forward_v I I I I #
coedge $-1 $166 $165 $326 $327 forward $155 $-1 #
coedge $-1 $328 $157 $166 $260 forward $91 $-1 #
coedge $-1 $157 $328 $158 $249 forward $91 $-1 #
coedge $-1 $159 $158 $325 $329 reversed $57 $-1 #
edge $-1 $330 -3.6956404391181366 $253 3.6956404391181366 $158 $331 forward 7 unknown #
coedge $-1 $332 $163 $159 $251 forward $257 $-1 #
edge $-1 $252 -3.6956404391181366 $333 3.6956404391181366 $159 $334 forward 7 unknown #
vertex $-1 $251 $335 #
vertex $-1 $162 $336 #
straight-curve $-1 49.128696554460277 -31.675092510122479 0 0 0 -1 I I #
straight-curve $-1 49.128696554460277 0 -6.6633018790940355 0 1 0 I I #
coedge $-1 $163 $332 $165 $259 forward $257 $-1 #
loop $-1 $-1 $163 $242 #
straight-curve $-1 49.128696554460277 0 6.6633018790940355 0 -1 0 I I #
edge $-1 $337 -3.6956404391181366 $167 3.6956404391181366 $165 $338 forward 7 unknown #
edge $-1 $168 -3.6956404391181366 $339 3.6956404391181366 $166 $340 forward 7 unknown #
point $-1 49.128696554460277 -28.675092510122479 6.6633018790940355 #
point $-1 49.128696554460277 -28.675092510122479 -6.6633018790940355 #
loop $-1 $-1 $178 $170 #
plane-surface $-1 0 -31.675092510122479 0 0 1 0 0 0 1 forward_v I I I I #
coedge $-1 $266 $173 $175 $270 reversed $99 $-1 #
coedge $-1 $173 $265 $341 $342 reversed $99 $-1 #
coedge $-1 $181 $176 $173 $268 forward $171 $-1 #
edge $-1 $271 -15.5346357262653 $343 -9.4656033777799955 $267 $344 forward 7 unknown #
coedge $-1 $175 $174 $274 $345 reversed $61 $-1 #
edge $-1 $346 1.2337929905607871e-014 $271 7.0803358605271818 $265 $347 forward 7 unknown #
vertex $-1 $177 $348 #
straight-curve $-1 8.9413739142228863 -25.606060161637171 6.6633018790940346 -1 0 0 I I #
coedge $-1 $341 $178 $181 $278 reversed $263 $-1 #
coedge $-1 $178 $341 $269 $345 forward $263 $-1 #
vertex $-1 $179 $349 #
straight-curve $-1 23.399291105284007 -31.675092510122479 43.619841649986377 0 0 1 I I #
straight-curve $-1 23.399291105284007 -31.675092510122489 3.0166592792625124 0 -0.85716729658548041 -0.51503808176128008 I I #
edge $-1 $343 -40.458132441970875 $182 -29.425045888294406 $273 $350 forward 7 unknown #
point $-1 23.399291105284007 -31.675092510122479 6.6633018790940355 #
point $-1 23.399291105284007 -25.606060161637174 6.6633018790940355 #
edge $-1 $351 1 $351 0 $185 $-1 forward 7 unknown #
vertex $-1 $186 $352 #
ellipse-curve $-1 15.518514995515105 -26.988924167741331 2.0911698135327796 0 -0.51503808176128008 0.85716729658548041 1 0 0 1 I I #
point $-1 16.518514995515105 -28.64057633587981 4.8399805791782677 #
edge $-1 $353 1 $353 0 $189 $-1 forward 7 unknown #
vertex $-1 $190 $354 #
ellipse-curve $-1 20.246980661376455 -26.988924167741331 2.0911698135327796 0 -0.51503808176128008 0.85716729658548041 1 0 0 1 I I #
point $-1 21.246980661376455 -28.64057633587981 4.8399805791782677 #
plane-surface $-1 49.128696554460277 0 0 -1 0 0 0 0 1 forward_v I I I I #
coedge $-1 $198 $196 $200 $294 reversed $121 $-1 #
edge $-1 $211 -6.6633018790940355 $296 6.6633018790940355 $210 $355 forward 7 unknown #
vertex $-1 $294 $356 #
straight-curve $-1 -49.128696554460277 -31.675092510122479 0 0 0 -1 I I #
edge $-1 $292 -31.675092510122479 $296 31.675092510122479 $290 $357 forward 7 unknown #
straight-curve $-1 0 -31.675092510122479 -6.6633018790940355 -1 0 0 I I #
vertex $-1 $203 $358 #
straight-curve $-1 0 31.675092510122479 -6.6633018790940355 1 0 0 I I #
point $-1 49.128696554460277 31.675092510122479 -6.6633018790940355 #
point $-1 49.128696554460277 -31.675092510122479 -6.6633018790940355 #
straight-curve $-1 -49.128696554460277 0 6.6633018790940355 0 -1 0 I I #
point $-1 -49.128696554460277 31.675092510122479 6.6633018790940355 #
point $-1 -49.128696554460277 -31.675092510122479 6.6633018790940355 #
straight-curve $-1 49.128696554460277 -31.675092510122479 0 0 0 -1 I I #
straight-curve $-1 49.128696554460277 31.675092510122479 0 0 0 -1 I I #
loop $-1 $-1 $233 $220 #
plane-surface $-1 0 -31.675092510122479 0 0 1 0 0 0 1 forward_v I I I I #
coedge $-1 $224 $223 $315 $359 reversed $83 $-1 #
coedge $-1 $236 $235 $223 $309 forward $221 $-1 #
edge $-1 $360 -1.5 $312 1.5 $223 $361 forward 7 unknown #
edge $-1 $311 -1.5 $316 1.5 $224 $362 forward 7 unknown #
vertex $-1 $228 $363 #
vertex $-1 $239 $364 #
straight-curve $-1 -56.51997743269655 -28.675092510122479 0 0 0 -1 I I #
straight-curve $-1 -52.824336993578413 -28.675092510122479 6.6633018790940355 -1 0 0 I I #
coedge $-1 $319 $229 $307 $359 forward $305 $-1 #
vertex $-1 $310 $365 #
straight-curve $-1 0 -31.675092510122479 6.6633018790940355 1 0 0 I I #
point $-1 -49.128696554460277 -31.675092510122479 6.6633018790940355 #
coedge $-1 $233 $315 $235 $321 reversed $305 $-1 #
straight-curve $-1 -49.128696554460277 -31.675092510122479 0 0 0 1 I I #
edge $-1 $237 -3.6956404391181366 $360 3.6956404391181366 $319 $366 forward 7 unknown #
point $-1 -49.128696554460277 -31.675092510122479 -6.6633018790940355 #
straight-curve $-1 -52.824336993578413 -28.675092510122479 -6.6633018790940355 1 0 0 I I #
plane-surface $-1 0 0 6.6633018790940355 0 0 1 1 0 0 forward_v I I I I #
coedge $-1 $367 $368 $248 $329 forward $243 $-1 #
coedge $-1 $368 $367 $245 $327 reversed $243 $-1 #
edge $-1 $337 -6.6633018790940355 $339 6.6633018790940355 $326 $369 forward 7 unknown #
coedge $-1 $247 $246 $367 $370 forward $91 $-1 #
edge $-1 $333 -6.6633018790940355 $330 6.6633018790940355 $325 $371 forward 7 unknown #
vertex $-1 $329 $372 #
straight-curve $-1 52.824336993578413 -31.675092510122479 -6.6633018790940355 -1 0 0 I I #
coedge $-1 $256 $250 $368 $373 forward $257 $-1 #
vertex $-1 $373 $374 #
straight-curve $-1 52.824336993578413 -31.675092510122479 6.6633018790940355 1 0 0 I I #
point $-1 49.128696554460277 -31.675092510122479 6.6633018790940355 #
point $-1 49.128696554460277 -31.675092510122479 -6.6633018790940355 #
vertex $-1 $373 $375 #
straight-curve $-1 52.824336993578413 -28.675092510122479 6.6633018790940355 -1 0 0 I I #
vertex $-1 $370 $376 #
straight-curve $-1 52.824336993578413 -28.675092510122479 -6.6633018790940355 1 0 0 I I #
coedge $-1 $274 $273 $266 $342 forward $263 $-1 #
edge $-1 $343 36.956539770892341 $346 40.603182370723857 $341 $377 forward 7 unknown #
vertex $-1 $278 $378 #
straight-curve $-1 12.366204551607538 -41.140695887902474 6.6633018790940355 0 -1 0 I I #
edge $-1 $346 3.4248306373846518 $275 14.457917191061121 $274 $379 forward 7 unknown #
vertex $-1 $345 $380 #
straight-curve $-1 12.366204551607538 -31.675092510122489 3.0166592792625124 0 0.85716729658548041 0.51503808176128008 I I #
point $-1 12.366204551607538 -25.606060161637174 6.6633018790940355 #
point $-1 23.399291105284007 -31.675092510122479 3.0166592792625186 #
straight-curve $-1 52.824336993578413 -31.675092510122479 6.6633018790940355 1 0 0 I I #
vertex $-1 $281 $381 #
point $-1 16.518514995515105 -26.988924167741331 2.0911698135327796 #
vertex $-1 $285 $382 #
point $-1 21.246980661376455 -26.988924167741331 2.0911698135327796 #
straight-curve $-1 -49.128696554460277 31.675092510122479 0 0 0 -1 I I #
point $-1 -49.128696554460277 -31.675092510122479 -6.6633018790940355 #
straight-curve $-1 -49.128696554460277 0 -6.6633018790940355 0 1 0 I I #
point $-1 -49.128696554460277 31.675092510122479 -6.6633018790940355 #
edge $-1 $316 -6.6633018790940355 $360 6.6633018790940355 $307 $383 forward 7 unknown #
vertex $-1 $309 $384 #
straight-curve $-1 -56.51997743269655 -30.175092510122479 -6.6633018790940355 0 1 0 I I #
straight-curve $-1 -56.51997743269655 -30.175092510122479 6.6633018790940355 0 -1 0 I I #
point $-1 -56.51997743269655 -28.675092510122479 6.6633018790940355 #
point $-1 -56.51997743269655 -28.675092510122479 -6.6633018790940355 #
point $-1 -56.51997743269655 -31.675092510122479 6.6633018790940355 #
straight-curve $-1 -52.824336993578413 -31.675092510122479 -6.6633018790940355 -1 0 0 I I #
coedge $-1 $326 $325 $328 $370 reversed $243 $-1 #
coedge $-1 $325 $326 $332 $373 reversed $243 $-1 #
straight-curve $-1 56.51997743269655 -28.675092510122479 0 0 0 -1 I I #
edge $-1 $339 -1.5 $330 1.5 $367 $385 forward 7 unknown #
straight-curve $-1 56.51997743269655 -31.675092510122479 0 0 0 -1 I I #
point $-1 56.51997743269655 -31.675092510122479 -6.6633018790940355 #
edge $-1 $333 -1.5 $337 1.5 $368 $386 forward 7 unknown #
point $-1 56.51997743269655 -31.675092510122479 6.6633018790940355 #
point $-1 56.51997743269655 -28.675092510122479 6.6633018790940355 #
point $-1 56.51997743269655 -28.675092510122479 -6.6633018790940355 #
straight-curve $-1 12.366204551607538 -31.675092510122479 43.619841649986377 0 0 -1 I I #
point $-1 12.366204551607538 -31.675092510122479 6.6633018790940355 #
straight-curve $-1 8.9413739142228863 -31.675092510122479 3.0166592792625173 1 0 0 I I #
point $-1 12.366204551607538 -31.675092510122479 3.0166592792625186 #
point $-1 15.518514995515105 -26.473886085980048 1.2340025169472995 #
point $-1 20.246980661376455 -26.473886085980048 1.2340025169472995 #
straight-curve $-1 -56.51997743269655 -31.675092510122479 0 0 0 -1 I I #
point $-1 -56.51997743269655 -31.675092510122479 -6.6633018790940355 #
straight-curve $-1 56.51997743269655 -30.175092510122479 -6.6633018790940355 0 -1 0 I I #
straight-curve $-1 56.51997743269655 -30.175092510122479 6.6633018790940355 0 1 0 I I #
End-of-ACIS-data 