500 0 6 0           
7 Unknown 11 ACIS 5.0 NT 24 Thu Mar 25 20:01:43 1999 
-1 9.9999999999999995e-007 1e-010 
body $-1 $6 $-1 $7 #
body $-1 $8 $-1 $9 #
body $-1 $10 $-1 $11 #
body $-1 $12 $-1 $13 #
body $-1 $14 $-1 $15 #
body $-1 $16 $-1 $17 #
lump $-1 $-1 $18 $0 #
transform $-1 1 0 0 0 1 0 0 0 1 48.844264046143984 24.391126417061074 10.138838995439935 1 rotate no_reflect no_shear #
lump $-1 $-1 $19 $1 #
transform $-1 1 0 0 0 1 0 0 0 1 48.844264046143984 24.391126417061074 10.138838995439935 1 rotate no_reflect no_shear #
lump $-1 $-1 $20 $2 #
transform $-1 1 0 0 0 1 0 0 0 1 48.844264046143984 24.391126417061074 10.138838995439935 1 rotate no_reflect no_shear #
lump $-1 $-1 $21 $3 #
transform $-1 1 0 0 0 1 0 0 0 1 48.844264046143984 24.391126417061074 10.138838995439935 1 rotate no_reflect no_shear #
lump $-1 $-1 $22 $4 #
transform $-1 1 0 0 0 1 0 0 0 1 48.844264046143984 24.391126417061074 10.138838995439935 1 rotate no_reflect no_shear #
lump $-1 $-1 $23 $5 #
transform $-1 1 0 0 0 1 0 0 0 1 48.844264046143984 24.391126417061074 10.138838995439935 1 rotate no_reflect no_shear #
shell $-1 $-1 $-1 $24 $-1 $6 #
shell $-1 $-1 $-1 $25 $-1 $8 #
shell $-1 $-1 $-1 $26 $-1 $10 #
shell $-1 $-1 $-1 $27 $-1 $12 #
shell $-1 $-1 $-1 $28 $-1 $14 #
shell $-1 $-1 $-1 $29 $-1 $16 #
face $-1 $30 $31 $18 $-1 $32 forward single #
face $-1 $33 $34 $19 $-1 $35 reversed single #
face $-1 $36 $37 $20 $-1 $38 forward single #
face $-1 $39 $40 $21 $-1 $41 forward single #
face $-1 $42 $43 $22 $-1 $44 reversed single #
face $-1 $45 $46 $23 $-1 $47 forward single #
face $-1 $48 $49 $18 $-1 $50 reversed single #
loop $-1 $-1 $51 $24 #
plane-surface $-1 0 0 10.138838995439935 0 0 1 1 0 0 forward_v I I I I #
face $-1 $52 $53 $19 $-1 $54 reversed single #
loop $-1 $-1 $55 $25 #
plane-surface $-1 20.932288204523005 67.868254115526042 103.07108726469768 1 0 0 0 -0.7660444514056185 -0.64278759981090561 forward_v I I I I #
face $-1 $56 $57 $20 $-1 $58 forward single #
loop $-1 $59 $60 $26 #
cone-surface $-1 26.174365126275724 19.671205882272972 5.108619350217932 0 -0.7660444514056185 -0.64278759981090561 1.5 0 0 1 I I 0 1 1.5 forward I I I I #
face $-1 $61 $62 $21 $-1 $63 forward single #
loop $-1 $64 $65 $27 #
cone-surface $-1 34.0374805089048 19.671205882272972 5.108619350217932 0 -0.7660444514056185 -0.64278759981090561 1.5 0 0 1 I I 0 1 1.5 forward I I I I #
face $-1 $66 $67 $22 $-1 $68 reversed single #
loop $-1 $-1 $69 $28 #
plane-surface $-1 30.67053728937811 -98.117595255871109 69.391008851332117 -1 0 0 0 -0.75470958851134928 0.65605901945558964 forward_v I I I I #
face $-1 $70 $71 $23 $-1 $72 forward single #
loop $-1 $73 $74 $29 #
cone-surface $-1 19.218586896162343 -20.688626902588901 6.3293345994455255 0 0.75470958851134928 -0.65605901945558964 1.5 0 0 1 I I 0 1 1.5 forward I I I I #
face $-1 $75 $76 $18 $-1 $77 reversed single #
loop $-1 $-1 $78 $30 #
plane-surface $-1 0 0 -10.138838995439935 0 0 1 1 0 0 forward_v I I I I #
coedge $-1 $79 $80 $81 $82 forward $31 $-1 #
face $-1 $83 $84 $19 $-1 $85 reversed single #
loop $-1 $-1 $86 $33 #
plane-surface $-1 30.105922817590262 -6.9655007955530408 40.278112763195672 0 0.7660444514056185 0.64278759981090561 1 0 0 forward_v I I I I #
coedge $-1 $87 $88 $89 $90 reversed $34 $-1 #
face $-1 $-1 $91 $20 $-1 $92 forward single #
loop $-1 $93 $94 $36 #
cone-surface $-1 26.174365126275724 17.410139195059614 3.2113591765825173 0 -0.7660444514056185 -0.64278759981090561 0.75 0 0 1 I I -0.70710678118654724 0.70710678118654768 0.75 forward I I I I #
loop $-1 $-1 $95 $26 #
coedge $-1 $60 $60 $96 $97 reversed $37 $-1 #
face $-1 $-1 $98 $21 $-1 $99 forward single #
loop $-1 $100 $101 $39 #
cone-surface $-1 34.0374805089048 17.410139195059614 3.2113591765825173 0 -0.7660444514056185 -0.64278759981090561 0.75 0 0 1 I I -0.70710678118654724 0.70710678118654768 0.75 forward I I I I #
loop $-1 $-1 $102 $27 #
coedge $-1 $65 $65 $103 $104 reversed $40 $-1 #
face $-1 $105 $106 $22 $-1 $107 reversed single #
loop $-1 $-1 $108 $42 #
plane-surface $-1 19.218586896162343 -24.391126417061074 5.3015688990458472 0 -0.75470958851134928 0.65605901945558964 1 0 0 forward_v I I I I #
coedge $-1 $109 $110 $111 $112 reversed $43 $-1 #
face $-1 $-1 $113 $23 $-1 $114 forward single #
loop $-1 $115 $116 $45 #
cone-surface $-1 19.218586896162343 -18.522582514101138 4.4464209870564666 0 0.75470958851134928 -0.65605901945558964 0.75 0 0 1 I I -0.70710678118654757 0.70710678118654757 0.75 forward I I I I #
loop $-1 $-1 $117 $29 #
coedge $-1 $74 $74 $118 $119 reversed $46 $-1 #
face $-1 $120 $121 $18 $-1 $122 reversed single #
loop $-1 $-1 $123 $48 #
plane-surface $-1 0 -24.391126417061074 0 0 1 0 0 0 1 forward_v I I I I #
coedge $-1 $124 $125 $126 $127 forward $49 $-1 #
coedge $-1 $128 $51 $129 $130 forward $31 $-1 #
coedge $-1 $51 $128 $131 $132 forward $31 $-1 #
coedge $-1 $133 $134 $51 $82 reversed $135 $-1 #
edge $-1 $136 -24.391126417061074 $137 24.391126417061074 $81 $138 forward 7 unknown #
face $-1 $139 $140 $19 $-1 $141 reversed single #
loop $-1 $-1 $142 $52 #
plane-surface $-1 39.279557430657519 67.868254115526042 103.07108726469768 -1 0 0 0 0.7660444514056185 0.64278759981090561 forward_v I I I I #
coedge $-1 $143 $144 $145 $146 reversed $53 $-1 #
coedge $-1 $88 $55 $147 $148 reversed $34 $-1 #
coedge $-1 $55 $87 $143 $149 reversed $34 $-1 #
coedge $-1 $145 $150 $55 $90 forward $151 $-1 #
edge $-1 $152 9.5430006407019476 $153 15.609775012959844 $89 $154 forward 7 unknown #
loop $-1 $-1 $96 $56 #
plane-surface $-1 30.105922817590262 -6.9655007955530408 40.278112763195672 0 0.7660444514056185 0.64278759981090561 1 0 0 forward_v I I I I #
loop $-1 $-1 $155 $36 #
coedge $-1 $94 $94 $95 $156 reversed $57 $-1 #
coedge $-1 $95 $95 $94 $156 forward $59 $-1 #
coedge $-1 $96 $96 $60 $97 forward $91 $-1 #
edge $-1 $157 -3.1386261693149145e-017 $157 6.2831853071796004 $96 $158 forward 7 unknown #
loop $-1 $-1 $103 $61 #
plane-surface $-1 30.105922817590262 -6.9655007955530408 40.278112763195672 0 0.7660444514056185 0.64278759981090561 1 0 0 forward_v I I I I #
loop $-1 $-1 $159 $39 #
coedge $-1 $101 $101 $102 $160 reversed $62 $-1 #
coedge $-1 $102 $102 $101 $160 forward $64 $-1 #
coedge $-1 $103 $103 $65 $104 forward $98 $-1 #
edge $-1 $161 -3.1386261693149145e-017 $161 6.2831853071796004 $103 $162 forward 7 unknown #
face $-1 $163 $164 $22 $-1 $165 reversed single #
loop $-1 $-1 $166 $66 #
plane-surface $-1 7.7666365029465751 -98.117595255871109 69.391008851332117 1 0 0 0 0.75470958851134928 -0.65605901945558964 forward_v I I I I #
coedge $-1 $167 $168 $169 $170 reversed $67 $-1 #
coedge $-1 $110 $69 $171 $172 reversed $43 $-1 #
coedge $-1 $69 $109 $167 $173 reversed $43 $-1 #
coedge $-1 $169 $174 $69 $112 forward $175 $-1 #
edge $-1 $176 24.667671210874481 $177 28.872645845610325 $111 $178 forward 7 unknown #
loop $-1 $-1 $118 $70 #
plane-surface $-1 19.218586896162343 -24.391126417061074 5.3015688990458472 0 -0.75470958851134928 0.65605901945558964 1 0 0 forward_v I I I I #
loop $-1 $-1 $179 $45 #
coedge $-1 $116 $116 $117 $180 reversed $71 $-1 #
coedge $-1 $117 $117 $116 $180 forward $73 $-1 #
coedge $-1 $118 $118 $74 $119 forward $113 $-1 #
edge $-1 $181 -2.660841956922729e-015 $181 6.2831853071795978 $118 $182 forward 7 unknown #
face $-1 $183 $184 $18 $-1 $185 reversed single #
loop $-1 $-1 $186 $75 #
plane-surface $-1 -48.844264046143984 0 0 1 0 0 0 0 -1 forward_v I I I I #
coedge $-1 $187 $131 $188 $189 forward $76 $-1 #
coedge $-1 $190 $78 $187 $191 forward $49 $-1 #
coedge $-1 $78 $190 $192 $193 forward $49 $-1 #
coedge $-1 $134 $133 $78 $127 reversed $135 $-1 #
edge $-1 $194 -24.391126417061074 $195 24.391126417061074 $126 $196 forward 7 unknown #
coedge $-1 $80 $79 $197 $198 forward $31 $-1 #
coedge $-1 $199 $200 $79 $130 reversed $184 $-1 #
edge $-1 $137 -48.844264046143984 $201 48.844264046143984 $129 $202 forward 7 unknown #
coedge $-1 $123 $203 $80 $132 reversed $76 $-1 #
edge $-1 $204 -48.844264046143984 $136 48.844264046143984 $131 $205 forward 7 unknown #
coedge $-1 $126 $81 $203 $206 forward $135 $-1 #
coedge $-1 $81 $126 $199 $207 reversed $135 $-1 #
loop $-1 $-1 $133 $183 #
vertex $-1 $82 $208 #
vertex $-1 $82 $209 #
straight-curve $-1 48.844264046143984 0 10.138838995439935 0 1 0 I I #
face $-1 $-1 $151 $19 $-1 $210 forward single #
loop $-1 $-1 $211 $83 #
plane-surface $-1 0 24.391126417061074 0 0 -1 0 0 0 -1 forward_v I I I I #
coedge $-1 $212 $213 $214 $215 reversed $84 $-1 #
coedge $-1 $216 $86 $88 $149 forward $53 $-1 #
coedge $-1 $86 $216 $212 $217 forward $53 $-1 #
coedge $-1 $214 $89 $86 $146 forward $151 $-1 #
edge $-1 $153 5.8793267957278736 $218 24.226596021862388 $145 $219 forward 7 unknown #
coedge $-1 $220 $221 $87 $148 forward $140 $-1 #
edge $-1 $222 -48.626804979798436 $152 -41.396704636908908 $147 $223 forward 7 unknown #
edge $-1 $153 39.344027246007791 $222 48.78225283412214 $88 $224 forward 7 unknown #
coedge $-1 $89 $214 $220 $225 forward $151 $-1 #
loop $-1 $-1 $214 $139 #
vertex $-1 $148 $226 #
vertex $-1 $90 $227 #
straight-curve $-1 20.932288204523005 33.934127057763021 10.138838995439933 0 -1 0 I I #
coedge $-1 $155 $155 $-1 $228 reversed $93 $-1 #
edge $-1 $229 0 $229 6.2831853071796004 $94 $230 forward 7 unknown #
vertex $-1 $97 $231 #
ellipse-curve $-1 26.174365126275724 21.357739230932125 6.5237888239951758 0 0.7660444514056185 0.64278759981090561 1.5 0 0 1 I I #
coedge $-1 $159 $159 $-1 $232 reversed $100 $-1 #
edge $-1 $233 0 $233 6.2831853071796004 $101 $234 forward 7 unknown #
vertex $-1 $104 $235 #
ellipse-curve $-1 34.0374805089048 21.357739230932125 6.5237888239951758 0 0.7660444514056185 0.64278759981090561 1.5 0 0 1 I I #
face $-1 $-1 $175 $22 $-1 $236 forward single #
loop $-1 $-1 $237 $105 #
plane-surface $-1 0 -24.391126417061074 0 0 1 0 0 0 1 forward_v I I I I #
coedge $-1 $238 $239 $240 $241 reversed $106 $-1 #
coedge $-1 $242 $108 $110 $173 forward $67 $-1 #
coedge $-1 $108 $242 $238 $243 forward $67 $-1 #
coedge $-1 $240 $111 $108 $170 forward $175 $-1 #
edge $-1 $177 -21.061243841296939 $244 1.8426569451345962 $169 $245 forward 7 unknown #
coedge $-1 $246 $247 $109 $172 forward $164 $-1 #
edge $-1 $248 -29.393935526620211 $176 -24.556665430226126 $171 $249 forward 7 unknown #
edge $-1 $177 -6.409445659668263 $248 0 $110 $250 forward 7 unknown #
coedge $-1 $111 $240 $246 $251 forward $175 $-1 #
loop $-1 $-1 $240 $163 #
vertex $-1 $172 $252 #
vertex $-1 $112 $253 #
straight-curve $-1 30.67053728937811 -49.058797627935554 10.138838995439933 0 1 0 I I #
coedge $-1 $179 $179 $-1 $254 reversed $115 $-1 #
edge $-1 $255 0 $255 6.2831853071796004 $116 $256 forward 7 unknown #
vertex $-1 $119 $257 #
ellipse-curve $-1 19.218586896162343 -22.28863909969315 7.7202039472428909 0 -0.75470958851134928 0.65605901945558964 1.5 0 0 1 I I #
face $-1 $-1 $135 $18 $-1 $258 reversed single #
loop $-1 $-1 $199 $120 #
plane-surface $-1 0 24.391126417061074 0 0 -1 0 0 0 -1 forward_v I I I I #
coedge $-1 $259 $197 $200 $260 forward $121 $-1 #
coedge $-1 $203 $123 $124 $191 reversed $76 $-1 #
coedge $-1 $197 $259 $123 $189 reversed $121 $-1 #
edge $-1 $204 -10.138838995439935 $261 10.138838995439935 $188 $262 forward 7 unknown #
coedge $-1 $125 $124 $259 $263 forward $49 $-1 #
edge $-1 $195 -48.844264046143984 $261 48.844264046143984 $187 $264 forward 7 unknown #
coedge $-1 $200 $199 $125 $193 reversed $184 $-1 #
edge $-1 $265 -48.844264046143984 $194 48.844264046143984 $192 $266 forward 7 unknown #
vertex $-1 $127 $267 #
vertex $-1 $206 $268 #
straight-curve $-1 48.844264046143984 0 -10.138838995439935 0 -1 0 I I #
coedge $-1 $186 $188 $128 $198 reversed $121 $-1 #
edge $-1 $201 -24.391126417061074 $204 24.391126417061074 $197 $269 forward 7 unknown #
coedge $-1 $192 $129 $134 $207 forward $184 $-1 #
coedge $-1 $129 $192 $186 $260 reversed $184 $-1 #
vertex $-1 $130 $270 #
straight-curve $-1 0 24.391126417061074 10.138838995439935 -1 0 0 I I #
coedge $-1 $131 $187 $133 $206 reversed $76 $-1 #
vertex $-1 $198 $271 #
straight-curve $-1 0 -24.391126417061074 10.138838995439935 1 0 0 I I #
edge $-1 $136 -10.138838995439935 $195 10.138838995439935 $133 $272 forward 7 unknown #
edge $-1 $137 -10.138838995439935 $194 10.138838995439935 $134 $273 forward 7 unknown #
point $-1 48.844264046143984 -24.391126417061074 10.138838995439935 #
point $-1 48.844264046143984 24.391126417061074 10.138838995439935 #
plane-surface $-1 0 0 10.138838995439935 0 0 1 1 0 0 forward_v I I I I #
coedge $-1 $221 $220 $213 $274 forward $140 $-1 #
coedge $-1 $213 $142 $144 $217 reversed $84 $-1 #
coedge $-1 $142 $212 $211 $274 reversed $84 $-1 #
coedge $-1 $150 $145 $142 $215 forward $151 $-1 #
edge $-1 $218 -15.609775012959844 $275 -9.5430006407019476 $214 $276 forward 7 unknown #
coedge $-1 $144 $143 $221 $277 reversed $53 $-1 #
edge $-1 $278 -48.78225283412214 $218 -39.344027246007791 $212 $279 forward 7 unknown #
vertex $-1 $146 $280 #
straight-curve $-1 15.052961408795131 18.324352044803177 10.138838995439936 1 0 0 I I #
coedge $-1 $211 $147 $150 $225 reversed $140 $-1 #
coedge $-1 $147 $211 $216 $277 forward $140 $-1 #
vertex $-1 $148 $281 #
straight-curve $-1 20.932288204523005 24.391126417061074 51.535543632348841 0 0 1 I I #
straight-curve $-1 20.932288204523005 -6.9655007955530408 40.278112763195672 0 0.64278759981090561 -0.7660444514056185 I I #
edge $-1 $275 -39.279557430657519 $152 -20.932288204523005 $220 $282 forward 7 unknown #
point $-1 20.932288204523005 24.391126417061074 10.138838995439935 #
point $-1 20.932288204523005 18.324352044803177 10.138838995439933 #
edge $-1 $283 1 $283 0 $155 $-1 forward 7 unknown #
vertex $-1 $156 $284 #
ellipse-curve $-1 26.174365126275724 17.984672533613828 3.6934498764406967 0 0.7660444514056185 0.64278759981090561 1.5 0 0 1 I I #
point $-1 27.674365126275724 21.357739230932115 6.5237888239951669 #
edge $-1 $285 1 $285 0 $159 $-1 forward 7 unknown #
vertex $-1 $160 $286 #
ellipse-curve $-1 34.0374805089048 17.984672533613828 3.6934498764406967 0 0.7660444514056185 0.64278759981090561 1.5 0 0 1 I I #
point $-1 35.5374805089048 21.357739230932115 6.5237888239951669 #
plane-surface $-1 0 0 10.138838995439935 0 0 1 1 0 0 forward_v I I I I #
coedge $-1 $247 $246 $239 $287 forward $164 $-1 #
coedge $-1 $239 $166 $168 $243 reversed $106 $-1 #
coedge $-1 $166 $238 $237 $287 reversed $106 $-1 #
coedge $-1 $174 $169 $166 $241 forward $175 $-1 #
edge $-1 $244 -28.872645845610325 $288 -24.667671210874481 $240 $289 forward 7 unknown #
coedge $-1 $168 $167 $247 $290 reversed $67 $-1 #
edge $-1 $291 0 $244 6.409445659668263 $238 $292 forward 7 unknown #
vertex $-1 $170 $293 #
straight-curve $-1 9.6092934480811714 -20.186151782325229 10.138838995439935 -1 0 0 I I #
coedge $-1 $237 $171 $174 $251 reversed $164 $-1 #
coedge $-1 $171 $237 $242 $290 forward $164 $-1 #
vertex $-1 $172 $294 #
straight-curve $-1 30.67053728937811 -24.391126417061074 34.695504425666059 0 0 1 I I #
straight-curve $-1 30.67053728937811 -24.391126417061074 5.3015688990458472 0 -0.65605901945558964 -0.75470958851134928 I I #
edge $-1 $288 7.7666365029465751 $176 30.67053728937811 $246 $295 forward 7 unknown #
point $-1 30.67053728937811 -24.391126417061074 10.138838995439935 #
point $-1 30.67053728937811 -20.186151782325229 10.138838995439935 #
edge $-1 $296 1 $296 0 $179 $-1 forward 7 unknown #
vertex $-1 $180 $297 #
ellipse-curve $-1 19.218586896162343 -19.088614705484652 4.9384652516481591 0 -0.75470958851134928 0.65605901945558964 1.5 0 0 1 I I #
point $-1 20.718586896162343 -22.288639099693157 7.7202039472428918 #
plane-surface $-1 48.844264046143984 0 0 -1 0 0 0 0 1 forward_v I I I I #
coedge $-1 $188 $186 $190 $263 reversed $121 $-1 #
edge $-1 $201 -10.138838995439935 $265 10.138838995439935 $200 $298 forward 7 unknown #
vertex $-1 $263 $299 #
straight-curve $-1 -48.844264046143984 -24.391126417061074 0 0 0 -1 I I #
edge $-1 $261 -24.391126417061074 $265 24.391126417061074 $259 $300 forward 7 unknown #
straight-curve $-1 0 -24.391126417061074 -10.138838995439935 -1 0 0 I I #
vertex $-1 $193 $301 #
straight-curve $-1 0 24.391126417061074 -10.138838995439935 1 0 0 I I #
point $-1 48.844264046143984 24.391126417061074 -10.138838995439935 #
point $-1 48.844264046143984 -24.391126417061074 -10.138838995439935 #
straight-curve $-1 -48.844264046143984 0 10.138838995439935 0 -1 0 I I #
point $-1 -48.844264046143984 24.391126417061074 10.138838995439935 #
point $-1 -48.844264046143984 -24.391126417061074 10.138838995439935 #
straight-curve $-1 48.844264046143984 -24.391126417061074 0 0 0 -1 I I #
straight-curve $-1 48.844264046143984 24.391126417061074 0 0 0 -1 I I #
edge $-1 $275 41.396704636908908 $278 48.626804979798436 $211 $302 forward 7 unknown #
vertex $-1 $225 $303 #
straight-curve $-1 39.279557430657519 33.934127057763021 10.138838995439933 0 1 0 I I #
edge $-1 $278 -24.226596021862388 $222 -5.8793267957278736 $221 $304 forward 7 unknown #
vertex $-1 $277 $305 #
straight-curve $-1 39.279557430657519 -6.9655007955530408 40.278112763195672 0 -0.64278759981090561 0.7660444514056185 I I #
point $-1 39.279557430657519 18.324352044803177 10.138838995439933 #
point $-1 20.932288204523005 24.391126417061074 2.9087386525504044 #
straight-curve $-1 0 24.391126417061074 10.138838995439935 -1 0 0 I I #
vertex $-1 $228 $306 #
point $-1 27.674365126275724 17.984672533613828 3.6934498764406967 #
vertex $-1 $232 $307 #
point $-1 35.5374805089048 17.984672533613828 3.6934498764406967 #
edge $-1 $288 24.556665430226126 $291 29.393935526620211 $237 $308 forward 7 unknown #
vertex $-1 $251 $309 #
straight-curve $-1 7.7666365029465751 -49.058797627935554 10.138838995439933 0 -1 0 I I #
edge $-1 $291 -1.8426569451345962 $248 21.061243841296939 $247 $310 forward 7 unknown #
vertex $-1 $290 $311 #
straight-curve $-1 7.7666365029465751 -24.391126417061074 5.3015688990458472 0 0.65605901945558964 0.75470958851134928 I I #
point $-1 7.7666365029465751 -20.186151782325229 10.138838995439935 #
point $-1 30.67053728937811 -24.391126417061074 5.3015688990458472 #
straight-curve $-1 0 -24.391126417061074 10.138838995439935 1 0 0 I I #
vertex $-1 $254 $312 #
point $-1 20.718586896162343 -19.088614705484652 4.9384652516481591 #
straight-curve $-1 -48.844264046143984 24.391126417061074 0 0 0 -1 I I #
point $-1 -48.844264046143984 -24.391126417061074 -10.138838995439935 #
straight-curve $-1 -48.844264046143984 0 -10.138838995439935 0 1 0 I I #
point $-1 -48.844264046143984 24.391126417061074 -10.138838995439935 #
straight-curve $-1 39.279557430657519 24.391126417061074 51.535543632348841 0 0 -1 I I #
point $-1 39.279557430657519 24.391126417061074 10.138838995439935 #
straight-curve $-1 15.052961408795131 24.391126417061074 2.9087386525504044 -1 0 0 I I #
point $-1 39.279557430657519 24.391126417061074 2.9087386525504044 #
point $-1 26.174365126275724 16.835605856505399 2.729268476724338 #
point $-1 34.0374805089048 16.835605856505399 2.729268476724338 #
straight-curve $-1 7.7666365029465751 -24.391126417061074 34.695504425666059 0 0 -1 I I #
point $-1 7.7666365029465751 -24.391126417061074 10.138838995439935 #
straight-curve $-1 9.6092934480811714 -24.391126417061074 5.3015688990458489 1 0 0 I I #
point $-1 7.7666365029465751 -24.391126417061074 5.3015688990458472 #
point $-1 19.218586896162343 -17.956550322717625 3.9543767224647741 #
End-of-ACIS-data 