500 0 7 0           
7 Unknown 11 ACIS 5.0 NT 24 Fri Mar 26 19:15:10 1999 
-1 9.9999999999999995e-007 1e-010 
body $-1 $7 $-1 $8 #
body $-1 $9 $-1 $10 #
body $-1 $11 $-1 $12 #
body $-1 $13 $-1 $14 #
body $-1 $15 $-1 $16 #
body $-1 $17 $-1 $18 #
body $-1 $19 $-1 $20 #
lump $-1 $-1 $21 $0 #
transform $-1 1 0 0 0 1 0 0 0 1 53.662526322214426 28.19743276644158 12.997392659520361 1 rotate no_reflect no_shear #
lump $-1 $-1 $22 $1 #
transform $-1 1 0 0 0 1 0 0 0 1 53.662526322214426 28.19743276644158 12.997392659520361 1 rotate no_reflect no_shear #
lump $-1 $-1 $23 $2 #
transform $-1 1 0 0 0 1 0 0 0 1 53.662526322214426 28.19743276644158 12.997392659520361 1 rotate no_reflect no_shear #
lump $-1 $-1 $24 $3 #
transform $-1 1 0 0 0 1 0 0 0 1 53.662526322214426 28.19743276644158 12.997392659520361 1 rotate no_reflect no_shear #
lump $-1 $-1 $25 $4 #
transform $-1 1 0 0 0 1 0 0 0 1 53.662526322214426 28.19743276644158 12.997392659520361 1 rotate no_reflect no_shear #
lump $-1 $-1 $26 $5 #
transform $-1 1 0 0 0 1 0 0 0 1 53.662526322214426 28.19743276644158 12.997392659520361 1 rotate no_reflect no_shear #
lump $-1 $-1 $27 $6 #
transform $-1 1 0 0 0 1 0 0 0 1 53.662526322214426 28.19743276644158 12.997392659520361 1 rotate no_reflect no_shear #
shell $-1 $-1 $-1 $28 $-1 $7 #
shell $-1 $-1 $-1 $29 $-1 $9 #
shell $-1 $-1 $-1 $30 $-1 $11 #
shell $-1 $-1 $-1 $31 $-1 $13 #
shell $-1 $-1 $-1 $32 $-1 $15 #
shell $-1 $-1 $-1 $33 $-1 $17 #
shell $-1 $-1 $-1 $34 $-1 $19 #
face $-1 $35 $36 $21 $-1 $37 forward single #
face $-1 $38 $39 $22 $-1 $40 reversed single #
face $-1 $41 $42 $23 $-1 $43 forward single #
face $-1 $44 $45 $24 $-1 $46 forward single #
face $-1 $47 $48 $25 $-1 $49 forward single #
face $-1 $50 $51 $26 $-1 $52 reversed single #
face $-1 $53 $54 $27 $-1 $55 forward single #
face $-1 $56 $57 $21 $-1 $58 reversed single #
loop $-1 $-1 $59 $28 #
plane-surface $-1 0 0 12.997392659520361 0 0 1 1 0 0 forward_v I I I I #
face $-1 $60 $61 $22 $-1 $62 reversed single #
loop $-1 $-1 $63 $29 #
plane-surface $-1 34.30352024065057 -119.2142401819484 62.079016891355735 -1 0 0 0 -0.84804810408105047 0.52991925155115449 forward_v I I I I #
face $-1 $64 $65 $23 $-1 $66 forward single #
loop $-1 $67 $68 $30 #
cone-surface $-1 10.916897666553659 -25.03401576209469 8.6459129599590359 0 0.84804810408105047 -0.52991925155115449 1 0 0 1 I I 0 1 1 forward I I I I #
face $-1 $69 $70 $24 $-1 $71 forward single #
loop $-1 $72 $73 $31 #
cone-surface $-1 19.686881131840003 -25.03401576209469 8.6459129599590359 0 0.84804810408105047 -0.52991925155115449 1 0 0 1 I I 0 1 1 forward I I I I #
face $-1 $74 $75 $25 $-1 $76 forward single #
loop $-1 $77 $78 $32 #
cone-surface $-1 28.456864597126348 -25.03401576209469 8.6459129599590359 0 0.84804810408105047 -0.52991925155115449 1 0 0 1 I I 0 1 1 forward I I I I #
face $-1 $79 $80 $26 $-1 $81 reversed single #
loop $-1 $-1 $82 $33 #
plane-surface $-1 38.777468131272109 72.198318900844214 118.88107279578975 1 0 0 0 -0.75470958851134928 -0.65605901945558964 forward_v I I I I #
face $-1 $83 $84 $27 $-1 $85 forward single #
loop $-1 $86 $87 $34 #
cone-surface $-1 46.219997226743267 24.067318474811493 8.5409963858029361 0 -0.75470958851134928 -0.65605901945558964 2 0 0 1 I I 0 1 2 forward I I I I #
face $-1 $88 $89 $21 $-1 $90 reversed single #
loop $-1 $-1 $91 $35 #
plane-surface $-1 0 0 -12.997392659520361 0 0 1 1 0 0 forward_v I I I I #
coedge $-1 $92 $93 $94 $95 forward $36 $-1 #
face $-1 $96 $97 $22 $-1 $98 reversed single #
loop $-1 $-1 $99 $38 #
plane-surface $-1 19.686881131840003 -28.19743276644158 5.2054053213317459 0 -0.84804810408105047 0.52991925155115449 1 0 0 forward_v I I I I #
coedge $-1 $100 $101 $102 $103 reversed $39 $-1 #
face $-1 $-1 $104 $23 $-1 $105 forward single #
loop $-1 $106 $107 $41 #
cone-surface $-1 10.916897666553659 -23.881061663745662 7.9254673037164487 0 0.84804810408105047 -0.52991925155115449 0.5 0 0 1 I I -0.70710678118654746 0.70710678118654746 0.5 forward I I I I #
loop $-1 $-1 $108 $30 #
coedge $-1 $68 $68 $109 $110 reversed $42 $-1 #
face $-1 $-1 $111 $24 $-1 $112 forward single #
loop $-1 $113 $114 $44 #
cone-surface $-1 19.686881131840003 -23.881061663745662 7.9254673037164487 0 0.84804810408105047 -0.52991925155115449 0.5 0 0 1 I I -0.70710678118654746 0.70710678118654746 0.5 forward I I I I #
loop $-1 $-1 $115 $31 #
coedge $-1 $73 $73 $116 $117 reversed $45 $-1 #
face $-1 $-1 $118 $25 $-1 $119 forward single #
loop $-1 $120 $121 $47 #
cone-surface $-1 28.456864597126348 -23.881061663745662 7.9254673037164487 0 0.84804810408105047 -0.52991925155115449 0.5 0 0 1 I I -0.70710678118654746 0.70710678118654746 0.5 forward I I I I #
loop $-1 $-1 $122 $32 #
coedge $-1 $78 $78 $123 $124 reversed $48 $-1 #
face $-1 $125 $126 $26 $-1 $127 forward single #
loop $-1 $-1 $128 $50 #
plane-surface $-1 46.219997226743267 -8.800927417391577 48.469503994866216 0 0.75470958851134928 0.65605901945558964 1 0 0 forward_v I I I I #
coedge $-1 $129 $130 $131 $132 reversed $51 $-1 #
face $-1 $-1 $133 $27 $-1 $134 forward single #
loop $-1 $135 $136 $53 #
cone-surface $-1 46.219997226743267 22.263957106908279 6.9733583051945551 0 -0.75470958851134928 -0.65605901945558964 1 0 0 1 I I -0.70710678118654746 0.70710678118654746 1 forward I I I I #
loop $-1 $-1 $137 $34 #
coedge $-1 $87 $87 $138 $139 reversed $54 $-1 #
face $-1 $140 $141 $21 $-1 $142 reversed single #
loop $-1 $-1 $143 $56 #
plane-surface $-1 0 -28.19743276644158 0 0 1 0 0 0 1 forward_v I I I I #
coedge $-1 $144 $145 $146 $147 forward $57 $-1 #
coedge $-1 $148 $59 $149 $150 forward $36 $-1 #
coedge $-1 $59 $148 $151 $152 forward $36 $-1 #
coedge $-1 $153 $154 $59 $95 reversed $155 $-1 #
edge $-1 $156 -28.19743276644158 $157 28.19743276644158 $94 $158 forward 7 unknown #
face $-1 $159 $160 $22 $-1 $161 reversed single #
loop $-1 $-1 $162 $60 #
plane-surface $-1 5.0702420230294329 -119.2142401819484 62.079016891355735 1 0 0 0 0.84804810408105047 -0.52991925155115449 forward_v I I I I #
coedge $-1 $163 $164 $165 $166 reversed $61 $-1 #
coedge $-1 $101 $63 $167 $168 reversed $39 $-1 #
coedge $-1 $63 $100 $163 $169 reversed $39 $-1 #
coedge $-1 $165 $170 $63 $103 forward $171 $-1 #
edge $-1 $172 31.409687324532619 $173 36.278661240609381 $102 $174 forward 7 unknown #
loop $-1 $-1 $109 $64 #
plane-surface $-1 19.686881131840003 -28.19743276644158 5.2054053213317459 0 -0.84804810408105047 0.52991925155115449 1 0 0 forward_v I I I I #
loop $-1 $-1 $175 $41 #
coedge $-1 $107 $107 $108 $176 reversed $65 $-1 #
coedge $-1 $108 $108 $107 $176 forward $67 $-1 #
coedge $-1 $109 $109 $68 $110 forward $104 $-1 #
edge $-1 $177 -7.5400540218334812e-016 $177 6.2831853071795996 $109 $178 forward 7 unknown #
loop $-1 $-1 $116 $69 #
plane-surface $-1 19.686881131840003 -28.19743276644158 5.2054053213317459 0 -0.84804810408105047 0.52991925155115449 1 0 0 forward_v I I I I #
loop $-1 $-1 $179 $44 #
coedge $-1 $114 $114 $115 $180 reversed $70 $-1 #
coedge $-1 $115 $115 $114 $180 forward $72 $-1 #
coedge $-1 $116 $116 $73 $117 forward $111 $-1 #
edge $-1 $181 -7.5400540218334812e-016 $181 6.2831853071795996 $116 $182 forward 7 unknown #
loop $-1 $-1 $123 $74 #
plane-surface $-1 19.686881131840003 -28.19743276644158 5.2054053213317459 0 -0.84804810408105047 0.52991925155115449 1 0 0 forward_v I I I I #
loop $-1 $-1 $183 $47 #
coedge $-1 $121 $121 $122 $184 reversed $75 $-1 #
coedge $-1 $122 $122 $121 $184 forward $77 $-1 #
coedge $-1 $123 $123 $78 $124 forward $118 $-1 #
edge $-1 $185 -7.5400540218334812e-016 $185 6.2831853071795996 $123 $186 forward 7 unknown #
face $-1 $187 $188 $26 $-1 $189 reversed single #
loop $-1 $-1 $131 $79 #
plane-surface $-1 0 0 12.997392659520361 0 0 1 1 0 0 forward_v I I I I #
coedge $-1 $190 $191 $192 $193 reversed $80 $-1 #
coedge $-1 $130 $82 $194 $195 reversed $51 $-1 #
coedge $-1 $82 $129 $190 $196 reversed $51 $-1 #
coedge $-1 $192 $197 $82 $132 forward $126 $-1 #
edge $-1 $198 7.9017266839805274 $199 14.064651708456953 $131 $200 forward 7 unknown #
loop $-1 $-1 $138 $83 #
plane-surface $-1 46.219997226743267 -8.800927417391577 48.469503994866216 0 0.75470958851134928 0.65605901945558964 1 0 0 forward_v I I I I #
loop $-1 $-1 $201 $53 #
coedge $-1 $136 $136 $137 $202 reversed $84 $-1 #
coedge $-1 $137 $137 $136 $202 forward $86 $-1 #
coedge $-1 $138 $138 $87 $139 forward $133 $-1 #
edge $-1 $203 -4.9507815660361675e-016 $203 6.2831853071795996 $138 $204 forward 7 unknown #
face $-1 $205 $206 $21 $-1 $207 reversed single #
loop $-1 $-1 $208 $88 #
plane-surface $-1 -53.662526322214426 0 0 1 0 0 0 0 -1 forward_v I I I I #
coedge $-1 $209 $151 $210 $211 forward $89 $-1 #
coedge $-1 $212 $91 $209 $213 forward $57 $-1 #
coedge $-1 $91 $212 $214 $215 forward $57 $-1 #
coedge $-1 $154 $153 $91 $147 reversed $155 $-1 #
edge $-1 $216 -28.19743276644158 $217 28.19743276644158 $146 $218 forward 7 unknown #
coedge $-1 $93 $92 $219 $220 forward $36 $-1 #
coedge $-1 $221 $222 $92 $150 reversed $206 $-1 #
edge $-1 $157 -53.662526322214426 $223 53.662526322214426 $149 $224 forward 7 unknown #
coedge $-1 $143 $225 $93 $152 reversed $89 $-1 #
edge $-1 $226 -53.662526322214426 $156 53.662526322214426 $151 $227 forward 7 unknown #
coedge $-1 $146 $94 $225 $228 forward $155 $-1 #
coedge $-1 $94 $146 $221 $229 reversed $155 $-1 #
loop $-1 $-1 $153 $205 #
vertex $-1 $95 $230 #
vertex $-1 $95 $231 #
straight-curve $-1 53.662526322214426 0 12.997392659520361 0 1 0 I I #
face $-1 $-1 $171 $22 $-1 $232 forward single #
loop $-1 $-1 $233 $96 #
plane-surface $-1 0 -28.19743276644158 0 0 1 0 0 0 1 forward_v I I I I #
coedge $-1 $234 $235 $236 $237 reversed $97 $-1 #
coedge $-1 $238 $99 $101 $169 forward $61 $-1 #
coedge $-1 $99 $238 $234 $239 forward $61 $-1 #
coedge $-1 $236 $102 $99 $166 forward $171 $-1 #
edge $-1 $173 -24.460079674730569 $240 4.7731985428905688 $165 $241 forward 7 unknown #
coedge $-1 $242 $243 $100 $168 forward $160 $-1 #
edge $-1 $244 -25.834103124346122 $172 -18.042115786157506 $167 $245 forward 7 unknown #
edge $-1 $173 -9.1881431026038971 $244 0 $101 $246 forward 7 unknown #
coedge $-1 $102 $236 $242 $247 forward $171 $-1 #
loop $-1 $-1 $236 $159 #
vertex $-1 $168 $248 #
vertex $-1 $103 $249 #
straight-curve $-1 34.30352024065057 -59.607120090974199 12.997392659520361 0 1 0 I I #
coedge $-1 $175 $175 $-1 $250 reversed $106 $-1 #
edge $-1 $251 0 $251 6.2831853071796004 $107 $252 forward 7 unknown #
vertex $-1 $110 $253 #
ellipse-curve $-1 10.916897666553659 -25.762945808403202 9.1013989904260502 0 -0.84804810408105047 0.52991925155115449 1 0 0 1 I I #
coedge $-1 $179 $179 $-1 $254 reversed $113 $-1 #
edge $-1 $255 0 $255 6.2831853071796004 $114 $256 forward 7 unknown #
vertex $-1 $117 $257 #
ellipse-curve $-1 19.686881131840003 -25.762945808403202 9.1013989904260502 0 -0.84804810408105047 0.52991925155115449 1 0 0 1 I I #
coedge $-1 $183 $183 $-1 $258 reversed $120 $-1 #
edge $-1 $259 0 $259 6.2831853071796004 $121 $260 forward 7 unknown #
vertex $-1 $124 $261 #
ellipse-curve $-1 28.456864597126348 -25.762945808403202 9.1013989904260502 0 -0.84804810408105047 0.52991925155115449 1 0 0 1 I I #
face $-1 $-1 $262 $26 $-1 $263 reversed single #
loop $-1 $-1 $194 $125 #
plane-surface $-1 0 28.19743276644158 0 0 -1 0 0 0 -1 forward_v I I I I #
coedge $-1 $264 $128 $130 $196 forward $80 $-1 #
coedge $-1 $128 $264 $265 $266 reversed $80 $-1 #
coedge $-1 $267 $131 $128 $193 forward $126 $-1 #
edge $-1 $199 15.667469517900475 $268 30.552527708842792 $192 $269 forward 7 unknown #
coedge $-1 $270 $271 $129 $195 forward $188 $-1 #
edge $-1 $272 -53.532778163503785 $198 -46.443143738374516 $194 $273 forward 7 unknown #
edge $-1 $199 47.001007904661648 $272 56.394865532883173 $130 $274 forward 7 unknown #
coedge $-1 $131 $267 $270 $275 forward $126 $-1 #
vertex $-1 $195 $276 #
vertex $-1 $132 $277 #
straight-curve $-1 38.777468131272109 36.099159450422107 12.997392659520358 0 -1 0 I I #
coedge $-1 $201 $201 $-1 $278 reversed $135 $-1 #
edge $-1 $279 0 $279 6.2831853071796004 $136 $280 forward 7 unknown #
vertex $-1 $139 $281 #
ellipse-curve $-1 46.219997226743267 25.115970254203361 9.4525754469557306 0 0.75470958851134928 0.65605901945558964 2 0 0 1 I I #
face $-1 $-1 $155 $21 $-1 $282 reversed single #
loop $-1 $-1 $221 $140 #
plane-surface $-1 0 28.19743276644158 0 0 -1 0 0 0 -1 forward_v I I I I #
coedge $-1 $283 $219 $222 $284 forward $141 $-1 #
coedge $-1 $225 $143 $144 $213 reversed $89 $-1 #
coedge $-1 $219 $283 $143 $211 reversed $141 $-1 #
edge $-1 $226 -12.997392659520361 $285 12.997392659520361 $210 $286 forward 7 unknown #
coedge $-1 $145 $144 $283 $287 forward $57 $-1 #
edge $-1 $217 -53.662526322214426 $285 53.662526322214426 $209 $288 forward 7 unknown #
coedge $-1 $222 $221 $145 $215 reversed $206 $-1 #
edge $-1 $289 -53.662526322214426 $216 53.662526322214426 $214 $290 forward 7 unknown #
vertex $-1 $147 $291 #
vertex $-1 $228 $292 #
straight-curve $-1 53.662526322214426 0 -12.997392659520361 0 -1 0 I I #
coedge $-1 $208 $210 $148 $220 reversed $141 $-1 #
edge $-1 $223 -28.19743276644158 $226 28.19743276644158 $219 $293 forward 7 unknown #
coedge $-1 $214 $149 $154 $229 forward $206 $-1 #
coedge $-1 $149 $214 $208 $284 reversed $206 $-1 #
vertex $-1 $150 $294 #
straight-curve $-1 0 28.19743276644158 12.997392659520361 -1 0 0 I I #
coedge $-1 $151 $209 $153 $228 reversed $89 $-1 #
vertex $-1 $220 $295 #
straight-curve $-1 0 -28.19743276644158 12.997392659520361 1 0 0 I I #
edge $-1 $156 -12.997392659520361 $217 12.997392659520361 $153 $296 forward 7 unknown #
edge $-1 $157 -12.997392659520361 $216 12.997392659520361 $154 $297 forward 7 unknown #
point $-1 53.662526322214426 -28.19743276644158 12.997392659520361 #
point $-1 53.662526322214426 28.19743276644158 12.997392659520361 #
plane-surface $-1 0 0 12.997392659520361 0 0 1 1 0 0 forward_v I I I I #
coedge $-1 $243 $242 $235 $298 forward $160 $-1 #
coedge $-1 $235 $162 $164 $239 reversed $97 $-1 #
coedge $-1 $162 $234 $233 $298 reversed $97 $-1 #
coedge $-1 $170 $165 $162 $237 forward $171 $-1 #
edge $-1 $240 -36.278661240609381 $299 -31.409687324532619 $236 $300 forward 7 unknown #
coedge $-1 $164 $163 $243 $301 reversed $61 $-1 #
edge $-1 $302 0 $240 9.1881431026038971 $234 $303 forward 7 unknown #
vertex $-1 $166 $304 #
straight-curve $-1 9.8434405659200017 -23.328458850364818 12.997392659520361 -1 0 0 I I #
coedge $-1 $233 $167 $170 $247 reversed $160 $-1 #
coedge $-1 $167 $233 $238 $301 forward $160 $-1 #
vertex $-1 $168 $305 #
straight-curve $-1 34.30352024065057 -28.19743276644158 31.039508445677868 0 0 1 I I #
straight-curve $-1 34.30352024065057 -28.19743276644158 5.2054053213317459 0 -0.52991925155115449 -0.84804810408105047 I I #
edge $-1 $299 5.0702420230294329 $172 34.30352024065057 $242 $306 forward 7 unknown #
point $-1 34.30352024065057 -28.19743276644158 12.997392659520361 #
point $-1 34.30352024065057 -23.328458850364818 12.997392659520361 #
edge $-1 $307 1 $307 0 $175 $-1 forward 7 unknown #
vertex $-1 $176 $308 #
ellipse-curve $-1 10.916897666553659 -24.305085715786188 8.1904269294920251 0 -0.84804810408105047 0.52991925155115449 1 0 0 1 I I #
point $-1 11.916897666553659 -25.762945808403195 9.1013989904260448 #
edge $-1 $309 1 $309 0 $179 $-1 forward 7 unknown #
vertex $-1 $180 $310 #
ellipse-curve $-1 19.686881131840003 -24.305085715786188 8.1904269294920251 0 -0.84804810408105047 0.52991925155115449 1 0 0 1 I I #
point $-1 20.686881131840003 -25.762945808403195 9.1013989904260448 #
edge $-1 $311 1 $311 0 $183 $-1 forward 7 unknown #
vertex $-1 $184 $312 #
ellipse-curve $-1 28.456864597126348 -24.305085715786188 8.1904269294920251 0 -0.84804810408105047 0.52991925155115449 1 0 0 1 I I #
point $-1 29.456864597126348 -25.762945808403195 9.1013989904260448 #
loop $-1 $-1 $265 $187 #
plane-surface $-1 53.662526322214426 0 0 -1 0 0 0 0 1 forward_v I I I I #
coedge $-1 $191 $190 $271 $313 reversed $80 $-1 #
coedge $-1 $314 $315 $191 $266 forward $262 $-1 #
edge $-1 $268 25.823844291127429 $316 35.217701919348954 $265 $317 forward 7 unknown #
coedge $-1 $197 $192 $315 $318 forward $126 $-1 #
vertex $-1 $318 $319 #
straight-curve $-1 23.109998613371634 22.034507741965147 12.997392659520361 1 0 0 I I #
coedge $-1 $320 $194 $197 $275 reversed $188 $-1 #
coedge $-1 $194 $320 $264 $313 forward $188 $-1 #
vertex $-1 $195 $321 #
straight-curve $-1 38.777468131272109 28.19743276644158 59.440536397894874 0 0 1 I I #
straight-curve $-1 38.777468131272109 -8.800927417391577 48.469503994866216 0 0.65605901945558964 -0.75470958851134928 I I #
edge $-1 $322 -53.662526322214426 $198 -38.777468131272109 $270 $323 forward 7 unknown #
point $-1 38.777468131272109 28.19743276644158 12.997392659520361 #
point $-1 38.777468131272109 22.034507741965154 12.997392659520358 #
edge $-1 $324 1 $324 0 $201 $-1 forward 7 unknown #
vertex $-1 $202 $325 #
ellipse-curve $-1 46.219997226743267 23.018666695419629 7.6294173246501451 0 0.75470958851134928 0.65605901945558964 2 0 0 1 I I #
point $-1 48.219997226743267 25.115970254203358 9.4525754469557288 #
plane-surface $-1 53.662526322214426 0 0 -1 0 0 0 0 1 forward_v I I I I #
coedge $-1 $210 $208 $212 $287 reversed $141 $-1 #
edge $-1 $223 -12.997392659520361 $289 12.997392659520361 $222 $326 forward 7 unknown #
vertex $-1 $287 $327 #
straight-curve $-1 -53.662526322214426 -28.19743276644158 0 0 0 -1 I I #
edge $-1 $285 -28.19743276644158 $289 28.19743276644158 $283 $328 forward 7 unknown #
straight-curve $-1 0 -28.19743276644158 -12.997392659520361 -1 0 0 I I #
vertex $-1 $215 $329 #
straight-curve $-1 0 28.19743276644158 -12.997392659520361 1 0 0 I I #
point $-1 53.662526322214426 28.19743276644158 -12.997392659520361 #
point $-1 53.662526322214426 -28.19743276644158 -12.997392659520361 #
straight-curve $-1 -53.662526322214426 0 12.997392659520361 0 -1 0 I I #
point $-1 -53.662526322214426 28.19743276644158 12.997392659520361 #
point $-1 -53.662526322214426 -28.19743276644158 12.997392659520361 #
straight-curve $-1 53.662526322214426 -28.19743276644158 0 0 0 -1 I I #
straight-curve $-1 53.662526322214426 28.19743276644158 0 0 0 -1 I I #
edge $-1 $299 18.042115786157506 $302 25.834103124346122 $233 $330 forward 7 unknown #
vertex $-1 $247 $331 #
straight-curve $-1 5.0702420230294329 -59.607120090974199 12.997392659520361 0 -1 0 I I #
edge $-1 $302 -4.7731985428905688 $244 24.460079674730569 $243 $332 forward 7 unknown #
vertex $-1 $301 $333 #
straight-curve $-1 5.0702420230294329 -28.19743276644158 5.2054053213317459 0 0.52991925155115449 0.84804810408105047 I I #
point $-1 5.0702420230294329 -23.328458850364818 12.997392659520361 #
point $-1 34.30352024065057 -28.19743276644158 5.2054053213317459 #
straight-curve $-1 0 -28.19743276644158 12.997392659520361 1 0 0 I I #
vertex $-1 $250 $334 #
point $-1 11.916897666553659 -24.305085715786188 8.1904269294920251 #
vertex $-1 $254 $335 #
point $-1 20.686881131840003 -24.305085715786188 8.1904269294920251 #
vertex $-1 $258 $336 #
point $-1 29.456864597126348 -24.305085715786188 8.1904269294920251 #
edge $-1 $316 -30.552527708842792 $272 -15.667469517900475 $271 $337 forward 7 unknown #
coedge $-1 $315 $265 $320 $338 reversed $262 $-1 #
coedge $-1 $265 $314 $267 $318 reversed $262 $-1 #
vertex $-1 $266 $339 #
straight-curve $-1 53.662526322214426 5.092541777754267 32.486895558258297 0 0.65605901945558975 -0.75470958851134939 I I #
edge $-1 $268 22.034507741965154 $322 28.19743276644158 $315 $340 forward 7 unknown #
point $-1 53.662526322214426 22.034507741965154 12.997392659520358 #
coedge $-1 $271 $270 $314 $338 forward $188 $-1 #
point $-1 38.777468131272109 28.19743276644158 5.907758234391089 #
vertex $-1 $318 $341 #
straight-curve $-1 0 28.19743276644158 12.997392659520361 -1 0 0 I I #
vertex $-1 $278 $342 #
point $-1 48.219997226743267 23.018666695419629 7.6294173246501451 #
straight-curve $-1 -53.662526322214426 28.19743276644158 0 0 0 -1 I I #
point $-1 -53.662526322214426 -28.19743276644158 -12.997392659520361 #
straight-curve $-1 -53.662526322214426 0 -12.997392659520361 0 1 0 I I #
point $-1 -53.662526322214426 28.19743276644158 -12.997392659520361 #
straight-curve $-1 5.0702420230294329 -28.19743276644158 31.039508445677868 0 0 -1 I I #
point $-1 5.0702420230294329 -28.19743276644158 12.997392659520361 #
straight-curve $-1 9.8434405659200017 -28.19743276644158 5.2054053213317459 1 0 0 I I #
point $-1 5.0702420230294329 -28.19743276644158 5.2054053213317459 #
point $-1 10.916897666553659 -23.457037611705136 7.6605076779408714 #
point $-1 19.686881131840003 -23.457037611705136 7.6605076779408714 #
point $-1 28.456864597126348 -23.457037611705136 7.6605076779408714 #
straight-curve $-1 23.109998613371634 28.19743276644158 5.907758234391089 -1 0 0 I I #
edge $-1 $322 -12.997392659520361 $316 -5.907758234391089 $314 $343 forward 7 unknown #
point $-1 53.662526322214426 28.19743276644158 5.907758234391089 #
straight-curve $-1 53.662526322214426 0 12.997392659520361 0 1 0 I I #
point $-1 53.662526322214426 28.19743276644158 12.997392659520361 #
point $-1 46.219997226743267 21.509247518396929 6.3172992857389652 #
straight-curve $-1 53.662526322214426 28.19743276644158 0 0 0 -1 I I #
End-of-ACIS-data 