500 0 9 0           
7 Unknown 11 ACIS 5.0 NT 24 Thu Mar 25 20:26:37 1999 
-1 9.9999999999999995e-007 1e-010 
body $-1 $9 $-1 $10 #
body $-1 $11 $-1 $12 #
body $-1 $13 $-1 $14 #
body $-1 $15 $-1 $16 #
body $-1 $17 $-1 $18 #
body $-1 $19 $-1 $20 #
body $-1 $21 $-1 $22 #
body $-1 $23 $-1 $24 #
body $-1 $25 $-1 $26 #
lump $-1 $-1 $27 $0 #
transform $-1 1 0 0 0 1 0 0 0 1 69.936216315195168 33.360729865200554 8.5295018339088315 1 rotate no_reflect no_shear #
lump $-1 $-1 $28 $1 #
transform $-1 1 0 0 0 1 0 0 0 1 69.936216315195168 33.360729865200554 8.5295018339088315 1 rotate no_reflect no_shear #
lump $-1 $-1 $29 $2 #
transform $-1 1 0 0 0 1 0 0 0 1 69.936216315195168 33.360729865200554 8.5295018339088315 1 rotate no_reflect no_shear #
lump $-1 $-1 $30 $3 #
transform $-1 1 0 0 0 1 0 0 0 1 69.936216315195168 33.360729865200554 8.5295018339088315 1 rotate no_reflect no_shear #
lump $-1 $-1 $31 $4 #
transform $-1 1 0 0 0 1 0 0 0 1 69.936216315195168 33.360729865200554 8.5295018339088315 1 rotate no_reflect no_shear #
lump $-1 $-1 $32 $5 #
transform $-1 1 0 0 0 1 0 0 0 1 69.936216315195168 33.360729865200554 8.5295018339088315 1 rotate no_reflect no_shear #
lump $-1 $-1 $33 $6 #
transform $-1 1 0 0 0 1 0 0 0 1 69.936216315195168 33.360729865200554 8.5295018339088315 1 rotate no_reflect no_shear #
lump $-1 $-1 $34 $7 #
transform $-1 1 0 0 0 1 0 0 0 1 69.936216315195168 33.360729865200554 8.5295018339088315 1 rotate no_reflect no_shear #
lump $-1 $-1 $35 $8 #
transform $-1 1 0 0 0 1 0 0 0 1 69.936216315195168 33.360729865200554 8.5295018339088315 1 rotate no_reflect no_shear #
shell $-1 $-1 $-1 $36 $-1 $9 #
shell $-1 $-1 $-1 $37 $-1 $11 #
shell $-1 $-1 $-1 $38 $-1 $13 #
shell $-1 $-1 $-1 $39 $-1 $15 #
shell $-1 $-1 $-1 $40 $-1 $17 #
shell $-1 $-1 $-1 $41 $-1 $19 #
shell $-1 $-1 $-1 $42 $-1 $21 #
shell $-1 $-1 $-1 $43 $-1 $23 #
shell $-1 $-1 $-1 $44 $-1 $25 #
face $-1 $45 $46 $27 $-1 $47 forward single #
face $-1 $48 $49 $28 $-1 $50 reversed single #
face $-1 $51 $52 $29 $-1 $53 forward single #
face $-1 $54 $55 $30 $-1 $56 reversed single #
face $-1 $57 $58 $31 $-1 $59 forward single #
face $-1 $60 $61 $32 $-1 $62 forward single #
face $-1 $63 $64 $33 $-1 $65 reversed single #
face $-1 $66 $67 $34 $-1 $68 forward single #
face $-1 $69 $70 $35 $-1 $71 forward single #
face $-1 $72 $73 $27 $-1 $74 reversed single #
loop $-1 $-1 $75 $36 #
plane-surface $-1 0 0 8.5295018339088315 0 0 1 1 0 0 forward_v I I I I #
face $-1 $76 $77 $28 $-1 $78 reversed single #
loop $-1 $-1 $79 $37 #
plane-surface $-1 62.303570569024657 -33.360729865200554 0.066657100875673336 0 -0.64278761758704617 0.76604443648966558 1 0 0 forward_v I I I I #
face $-1 $80 $81 $29 $-1 $82 forward single #
loop $-1 $83 $84 $38 #
cone-surface $-1 62.303570569024657 -26.361462881543627 1.9664680966709964 0 0.64278761758704617 -0.76604443648966558 2 0 0 1 I I 0 1 2 forward I I I I #
face $-1 $85 $86 $30 $-1 $87 reversed single #
loop $-1 $-1 $88 $39 #
plane-surface $-1 -42.581971631861194 114.32851287884306 134.0128215101569 -1 0 0 0 0.83867057594974714 0.54463902268945019 forward_v I I I I #
face $-1 $89 $90 $31 $-1 $91 forward single #
loop $-1 $92 $93 $40 #
cone-surface $-1 -62.120717834242605 29.192132149522433 3.8984820478089039 0 -0.83867057594974714 -0.54463902268945019 1.5 0 0 1 I I 0 1 1.5 forward I I I I #
face $-1 $94 $95 $32 $-1 $96 forward single #
loop $-1 $97 $98 $41 #
cone-surface $-1 -50.397470112813757 29.192132149522433 3.8984820478089039 0 -0.83867057594974714 -0.54463902268945019 1.5 0 0 1 I I 0 1 1.5 forward I I I I #
face $-1 $99 $100 $33 $-1 $101 reversed single #
loop $-1 $-1 $102 $42 #
plane-surface $-1 56.259093973528181 -2.9783807547786125 57.832836501145138 0 0.83867057594974714 0.54463902268945019 1 0 0 forward_v I I I I #
face $-1 $103 $104 $34 $-1 $105 forward single #
loop $-1 $106 $107 $43 #
cone-surface $-1 50.397470112813764 29.192132149522433 3.8984820478089039 0 -0.83867057594974714 -0.54463902268945019 1.5 0 0 1 I I 0 1 1.5 forward I I I I #
face $-1 $108 $109 $35 $-1 $110 forward single #
loop $-1 $111 $112 $44 #
cone-surface $-1 62.120717834242612 29.192132149522433 3.8984820478089039 0 -0.83867057594974714 -0.54463902268945019 1.5 0 0 1 I I 0 1 1.5 forward I I I I #
face $-1 $113 $114 $27 $-1 $115 reversed single #
loop $-1 $-1 $116 $45 #
plane-surface $-1 0 0 -8.5295018339088315 0 0 1 1 0 0 forward_v I I I I #
coedge $-1 $117 $118 $119 $120 forward $46 $-1 #
face $-1 $121 $122 $28 $-1 $123 reversed single #
loop $-1 $-1 $124 $48 #
plane-surface $-1 54.67092482285414 -123.26899760179377 107.21515593566176 1 0 0 0 0.64278761758704617 -0.76604443648966558 forward_v I I I I #
coedge $-1 $125 $126 $127 $128 reversed $49 $-1 #
face $-1 $-1 $129 $29 $-1 $130 forward single #
loop $-1 $131 $132 $51 #
cone-surface $-1 62.303570569024657 -23.762220981757757 -1.1311877105399377 0 0.64278761758704617 -0.76604443648966558 1 0 0 1 I I -0.70710678118654746 0.70710678118654746 1 forward I I I I #
loop $-1 $-1 $133 $38 #
coedge $-1 $84 $84 $134 $135 reversed $52 $-1 #
face $-1 $136 $137 $30 $-1 $138 reversed single #
loop $-1 $-1 $139 $54 #
plane-surface $-1 -56.259093973528181 -2.9783807547786125 57.832836501145138 0 0.83867057594974714 0.54463902268945019 1 0 0 forward_v I I I I #
coedge $-1 $140 $141 $142 $143 reversed $55 $-1 #
face $-1 $-1 $144 $31 $-1 $145 forward single #
loop $-1 $146 $147 $57 #
cone-surface $-1 -62.120717834242605 26.555107375526447 2.1859781912254093 0 -0.83867057594974714 -0.54463902268945019 0.75 0 0 1 I I -0.70710678118654757 0.70710678118654757 0.75 forward I I I I #
loop $-1 $-1 $148 $40 #
coedge $-1 $93 $93 $149 $150 reversed $58 $-1 #
face $-1 $-1 $151 $32 $-1 $152 forward single #
loop $-1 $153 $154 $60 #
cone-surface $-1 -50.397470112813757 26.555107375526447 2.1859781912254093 0 -0.83867057594974714 -0.54463902268945019 0.75 0 0 1 I I -0.70710678118654757 0.70710678118654757 0.75 forward I I I I #
loop $-1 $-1 $155 $41 #
coedge $-1 $98 $98 $156 $157 reversed $61 $-1 #
face $-1 $158 $159 $33 $-1 $160 reversed single #
loop $-1 $-1 $161 $63 #
plane-surface $-1 42.581971631861194 114.32851287884306 134.0128215101569 1 0 0 0 -0.83867057594974714 -0.54463902268945019 forward_v I I I I #
coedge $-1 $162 $163 $164 $165 reversed $64 $-1 #
face $-1 $-1 $166 $34 $-1 $167 forward single #
loop $-1 $168 $169 $66 #
cone-surface $-1 50.397470112813764 26.555107375526447 2.1859781912254093 0 -0.83867057594974714 -0.54463902268945019 0.75 0 0 1 I I -0.70710678118654757 0.70710678118654757 0.75 forward I I I I #
loop $-1 $-1 $170 $43 #
coedge $-1 $107 $107 $171 $172 reversed $67 $-1 #
face $-1 $-1 $173 $35 $-1 $174 forward single #
loop $-1 $175 $176 $69 #
cone-surface $-1 62.120717834242612 26.555107375526447 2.1859781912254093 0 -0.83867057594974714 -0.54463902268945019 0.75 0 0 1 I I -0.70710678118654757 0.70710678118654757 0.75 forward I I I I #
loop $-1 $-1 $177 $44 #
coedge $-1 $112 $112 $178 $179 reversed $70 $-1 #
face $-1 $180 $181 $27 $-1 $182 reversed single #
loop $-1 $-1 $183 $72 #
plane-surface $-1 0 -33.360729865200554 0 0 1 0 0 0 1 forward_v I I I I #
coedge $-1 $184 $185 $186 $187 forward $73 $-1 #
coedge $-1 $188 $75 $189 $190 forward $46 $-1 #
coedge $-1 $75 $188 $191 $192 forward $46 $-1 #
coedge $-1 $193 $194 $75 $120 reversed $195 $-1 #
edge $-1 $196 -33.360729865200554 $197 33.360729865200554 $119 $198 forward 7 unknown #
face $-1 $199 $200 $28 $-1 $201 forward single #
loop $-1 $-1 $202 $76 #
plane-surface $-1 0 -33.360729865200554 0 0 1 0 0 0 1 forward_v I I I I #
coedge $-1 $203 $204 $205 $206 reversed $77 $-1 #
coedge $-1 $207 $79 $208 $209 reversed $49 $-1 #
coedge $-1 $79 $207 $203 $210 forward $49 $-1 #
coedge $-1 $205 $211 $79 $128 forward $200 $-1 #
edge $-1 $212 -38.784431030682839 $213 -23.519139538341811 $127 $214 forward 7 unknown #
loop $-1 $-1 $134 $80 #
plane-surface $-1 62.303570569024657 -33.360729865200554 0.066657100875673336 0 -0.64278761758704617 0.76604443648966558 1 0 0 forward_v I I I I #
loop $-1 $-1 $215 $51 #
coedge $-1 $132 $132 $133 $216 reversed $81 $-1 #
coedge $-1 $133 $133 $132 $216 forward $83 $-1 #
coedge $-1 $134 $134 $84 $135 forward $129 $-1 #
edge $-1 $217 4.8497590100138397e-016 $217 6.2831853071796013 $134 $218 forward 7 unknown #
face $-1 $219 $220 $30 $-1 $221 forward single #
loop $-1 $-1 $222 $85 #
plane-surface $-1 -69.936216315195168 0 0 1 0 0 0 0 -1 forward_v I I I I #
coedge $-1 $223 $224 $225 $226 reversed $86 $-1 #
coedge $-1 $141 $88 $227 $228 reversed $55 $-1 #
coedge $-1 $88 $140 $223 $229 reversed $55 $-1 #
coedge $-1 $225 $230 $88 $143 forward $231 $-1 #
edge $-1 $232 58.476908921169617 $233 65.130899314236672 $142 $234 forward 7 unknown #
loop $-1 $-1 $149 $89 #
plane-surface $-1 -56.259093973528181 -2.9783807547786125 57.832836501145138 0 0.83867057594974714 0.54463902268945019 1 0 0 forward_v I I I I #
loop $-1 $-1 $235 $57 #
coedge $-1 $147 $147 $148 $236 reversed $90 $-1 #
coedge $-1 $148 $148 $147 $236 forward $92 $-1 #
coedge $-1 $149 $149 $93 $150 forward $144 $-1 #
edge $-1 $237 9.6964985236327053e-017 $237 6.2831853071796004 $149 $238 forward 7 unknown #
loop $-1 $-1 $156 $94 #
plane-surface $-1 -56.259093973528181 -2.9783807547786125 57.832836501145138 0 0.83867057594974714 0.54463902268945019 1 0 0 forward_v I I I I #
loop $-1 $-1 $239 $60 #
coedge $-1 $154 $154 $155 $240 reversed $95 $-1 #
coedge $-1 $155 $155 $154 $240 forward $97 $-1 #
coedge $-1 $156 $156 $98 $157 forward $151 $-1 #
edge $-1 $241 9.6964985236327053e-017 $241 6.2831853071796004 $156 $242 forward 7 unknown #
face $-1 $243 $244 $33 $-1 $245 forward single #
loop $-1 $-1 $164 $99 #
plane-surface $-1 0 33.360729865200554 0 0 -1 0 0 0 -1 forward_v I I I I #
coedge $-1 $246 $247 $248 $249 reversed $100 $-1 #
coedge $-1 $250 $102 $251 $252 reversed $64 $-1 #
coedge $-1 $102 $250 $246 $253 forward $64 $-1 #
coedge $-1 $248 $254 $102 $165 forward $159 $-1 #
edge $-1 $255 -41.806669328431077 $256 -14.452424645097103 $164 $257 forward 7 unknown #
loop $-1 $-1 $171 $103 #
plane-surface $-1 56.259093973528181 -2.9783807547786125 57.832836501145138 0 0.83867057594974714 0.54463902268945019 1 0 0 forward_v I I I I #
loop $-1 $-1 $258 $66 #
coedge $-1 $169 $169 $170 $259 reversed $104 $-1 #
coedge $-1 $170 $170 $169 $259 forward $106 $-1 #
coedge $-1 $171 $171 $107 $172 forward $166 $-1 #
edge $-1 $260 9.6964985236327053e-017 $260 6.2831853071796004 $171 $261 forward 7 unknown #
loop $-1 $-1 $178 $108 #
plane-surface $-1 56.259093973528181 -2.9783807547786125 57.832836501145138 0 0.83867057594974714 0.54463902268945019 1 0 0 forward_v I I I I #
loop $-1 $-1 $262 $69 #
coedge $-1 $176 $176 $177 $263 reversed $109 $-1 #
coedge $-1 $177 $177 $176 $263 forward $111 $-1 #
coedge $-1 $178 $178 $112 $179 forward $173 $-1 #
edge $-1 $264 9.6964985236327053e-017 $264 6.2831853071796004 $178 $265 forward 7 unknown #
face $-1 $266 $267 $27 $-1 $268 reversed single #
loop $-1 $-1 $269 $113 #
plane-surface $-1 -69.936216315195168 0 0 1 0 0 0 0 -1 forward_v I I I I #
coedge $-1 $270 $191 $271 $272 forward $114 $-1 #
coedge $-1 $273 $116 $270 $274 forward $73 $-1 #
coedge $-1 $116 $273 $275 $276 forward $73 $-1 #
coedge $-1 $194 $193 $116 $187 reversed $195 $-1 #
edge $-1 $277 -33.360729865200554 $278 33.360729865200554 $186 $279 forward 7 unknown #
coedge $-1 $118 $117 $280 $281 forward $46 $-1 #
coedge $-1 $282 $283 $117 $190 reversed $267 $-1 #
edge $-1 $197 -69.936216315195168 $284 69.936216315195168 $189 $285 forward 7 unknown #
coedge $-1 $183 $286 $118 $192 reversed $114 $-1 #
edge $-1 $287 -69.936216315195168 $196 69.936216315195168 $191 $288 forward 7 unknown #
coedge $-1 $186 $119 $286 $289 forward $195 $-1 #
coedge $-1 $119 $186 $282 $290 reversed $195 $-1 #
loop $-1 $-1 $193 $266 #
vertex $-1 $120 $291 #
vertex $-1 $120 $292 #
straight-curve $-1 69.936216315195168 0 8.5295018339088315 0 1 0 I I #
face $-1 $-1 $293 $28 $-1 $294 reversed single #
loop $-1 $-1 $205 $121 #
plane-surface $-1 0 0 8.5295018339088315 0 0 1 1 0 0 forward_v I I I I #
coedge $-1 $295 $296 $204 $297 forward $122 $-1 #
coedge $-1 $204 $124 $126 $210 reversed $77 $-1 #
coedge $-1 $124 $203 $202 $297 reversed $77 $-1 #
coedge $-1 $298 $127 $124 $206 forward $200 $-1 #
edge $-1 $213 -38.359394338612567 $299 -28.273768935696332 $205 $300 forward 7 unknown #
coedge $-1 $126 $125 $295 $301 reversed $49 $-1 #
coedge $-1 $302 $303 $125 $209 forward $293 $-1 #
edge $-1 $304 -12.756477575702192 $212 0.4093714566760982 $208 $305 forward 7 unknown #
edge $-1 $306 0 $213 13.16584903237829 $203 $307 forward 7 unknown #
coedge $-1 $127 $298 $302 $308 forward $200 $-1 #
vertex $-1 $209 $309 #
vertex $-1 $128 $310 #
straight-curve $-1 31.151785284512329 -23.275104462284318 8.5295018339088315 -1 0 0 I I #
coedge $-1 $215 $215 $-1 $311 reversed $131 $-1 #
edge $-1 $312 0 $312 6.2831853071796004 $132 $313 forward 7 unknown #
vertex $-1 $135 $314 #
ellipse-curve $-1 62.303570569024657 -28.31791716374244 4.2980794673922507 0 -0.64278761758704617 0.76604443648966558 2 0 0 1 I I #
face $-1 $-1 $231 $30 $-1 $315 reversed single #
loop $-1 $-1 $316 $136 #
plane-surface $-1 0 0 8.5295018339088315 0 0 1 1 0 0 forward_v I I I I #
coedge $-1 $317 $318 $224 $319 forward $137 $-1 #
coedge $-1 $320 $139 $141 $229 forward $86 $-1 #
coedge $-1 $139 $320 $222 $319 reversed $86 $-1 #
coedge $-1 $321 $142 $139 $226 forward $231 $-1 #
edge $-1 $233 14.452424645097103 $322 41.806669328431077 $225 $323 forward 7 unknown #
coedge $-1 $324 $316 $140 $228 forward $220 $-1 #
edge $-1 $325 -28.124678321509869 $232 -23.803526574220975 $227 $326 forward 7 unknown #
edge $-1 $233 -66.721459730401108 $325 -58.787485910547247 $141 $327 forward 7 unknown #
coedge $-1 $142 $321 $324 $328 reversed $231 $-1 #
loop $-1 $-1 $225 $219 #
vertex $-1 $328 $329 #
vertex $-1 $143 $330 #
straight-curve $-1 -42.581971631861194 33.360729865200554 67.006410755078448 0 0 -1 I I #
coedge $-1 $235 $235 $-1 $331 reversed $146 $-1 #
edge $-1 $332 0 $332 6.2831853071796004 $147 $333 forward 7 unknown #
vertex $-1 $150 $334 #
ellipse-curve $-1 -62.120717834242605 31.200153991556103 5.2025066373753068 0 0.83867057594974714 0.54463902268945019 1.5 0 0 1 I I #
coedge $-1 $239 $239 $-1 $335 reversed $153 $-1 #
edge $-1 $336 0 $336 6.2831853071796004 $154 $337 forward 7 unknown #
vertex $-1 $157 $338 #
ellipse-curve $-1 -50.397470112813757 31.200153991556103 5.2025066373753068 0 0.83867057594974714 0.54463902268945019 1.5 0 0 1 I I #
face $-1 $-1 $339 $33 $-1 $340 reversed single #
loop $-1 $-1 $341 $158 #
plane-surface $-1 0 0 8.5295018339088315 0 0 1 1 0 0 forward_v I I I I #
coedge $-1 $247 $161 $163 $253 reversed $100 $-1 #
coedge $-1 $161 $246 $342 $343 reversed $100 $-1 #
coedge $-1 $344 $164 $161 $249 forward $159 $-1 #
edge $-1 $256 -65.130899314236672 $345 -58.476908921169617 $248 $346 forward 7 unknown #
coedge $-1 $163 $162 $341 $347 reversed $64 $-1 #
coedge $-1 $348 $349 $162 $252 forward $339 $-1 #
edge $-1 $350 33.72506557019593 $255 41.659039390049799 $251 $351 forward 7 unknown #
edge $-1 $352 58.787485910547247 $256 66.721459730401108 $246 $353 forward 7 unknown #
coedge $-1 $164 $344 $348 $354 forward $159 $-1 #
vertex $-1 $165 $355 #
vertex $-1 $165 $356 #
straight-curve $-1 28.12954698676409 33.360729865200554 1.8755114408417839 -1 0 0 I I #
coedge $-1 $258 $258 $-1 $357 reversed $168 $-1 #
edge $-1 $358 0 $358 6.2831853071796004 $169 $359 forward 7 unknown #
vertex $-1 $172 $360 #
ellipse-curve $-1 50.397470112813764 31.200153991556103 5.2025066373753068 0 0.83867057594974714 0.54463902268945019 1.5 0 0 1 I I #
coedge $-1 $262 $262 $-1 $361 reversed $175 $-1 #
edge $-1 $362 0 $362 6.2831853071796004 $176 $363 forward 7 unknown #
vertex $-1 $179 $364 #
ellipse-curve $-1 62.120717834242612 31.200153991556103 5.2025066373753068 0 0.83867057594974714 0.54463902268945019 1.5 0 0 1 I I #
face $-1 $-1 $195 $27 $-1 $365 reversed single #
loop $-1 $-1 $282 $180 #
plane-surface $-1 0 33.360729865200554 0 0 -1 0 0 0 -1 forward_v I I I I #
coedge $-1 $366 $280 $283 $367 forward $181 $-1 #
coedge $-1 $286 $183 $184 $274 reversed $114 $-1 #
coedge $-1 $280 $366 $183 $272 reversed $181 $-1 #
edge $-1 $287 -8.5295018339088315 $368 8.5295018339088315 $271 $369 forward 7 unknown #
coedge $-1 $185 $184 $366 $370 forward $73 $-1 #
edge $-1 $278 -69.936216315195168 $368 69.936216315195168 $270 $371 forward 7 unknown #
coedge $-1 $283 $282 $185 $276 reversed $267 $-1 #
edge $-1 $372 -69.936216315195168 $277 69.936216315195168 $275 $373 forward 7 unknown #
vertex $-1 $187 $374 #
vertex $-1 $289 $375 #
straight-curve $-1 69.936216315195168 0 -8.5295018339088315 0 -1 0 I I #
coedge $-1 $269 $271 $188 $281 reversed $181 $-1 #
edge $-1 $284 -33.360729865200554 $287 33.360729865200554 $280 $376 forward 7 unknown #
coedge $-1 $275 $189 $194 $290 forward $267 $-1 #
coedge $-1 $189 $275 $269 $367 reversed $267 $-1 #
vertex $-1 $190 $377 #
straight-curve $-1 0 33.360729865200554 8.5295018339088315 -1 0 0 I I #
coedge $-1 $191 $270 $193 $289 reversed $114 $-1 #
vertex $-1 $281 $378 #
straight-curve $-1 0 -33.360729865200554 8.5295018339088315 1 0 0 I I #
edge $-1 $196 -8.5295018339088315 $278 8.5295018339088315 $193 $379 forward 7 unknown #
edge $-1 $197 -8.5295018339088315 $277 8.5295018339088315 $194 $380 forward 7 unknown #
point $-1 69.936216315195168 -33.360729865200554 8.5295018339088315 #
point $-1 69.936216315195168 33.360729865200554 8.5295018339088315 #
loop $-1 $-1 $208 $199 #
plane-surface $-1 69.936216315195168 0 0 -1 0 0 0 0 1 forward_v I I I I #
coedge $-1 $381 $202 $207 $301 forward $122 $-1 #
coedge $-1 $202 $381 $298 $382 reversed $122 $-1 #
edge $-1 $299 45.078076133922046 $306 53.540920866955204 $202 $383 forward 7 unknown #
coedge $-1 $211 $205 $296 $382 forward $200 $-1 #
vertex $-1 $382 $384 #
straight-curve $-1 54.67092482285414 -61.634498800896885 8.5295018339088315 0 -1 0 I I #
edge $-1 $306 23.519139538341811 $304 38.784431030682839 $295 $385 forward 7 unknown #
coedge $-1 $303 $208 $211 $308 reversed $293 $-1 #
coedge $-1 $208 $302 $381 $386 forward $293 $-1 #
vertex $-1 $301 $387 #
straight-curve $-1 69.936216315195168 -23.588701189128713 8.2663629305638633 0 0.76604443648966558 0.64278761758704617 I I #
vertex $-1 $301 $388 #
straight-curve $-1 54.67092482285414 -33.360729865200554 0.066657100875673336 0 0.76604443648966558 0.64278761758704617 I I #
edge $-1 $389 -33.360729865200554 $212 -23.275104462284318 $302 $390 forward 7 unknown #
point $-1 69.936216315195168 -23.275104462284318 8.5295018339088315 #
point $-1 54.67092482285414 -23.275104462284318 8.5295018339088315 #
edge $-1 $391 1 $391 0 $215 $-1 forward 7 unknown #
vertex $-1 $216 $392 #
ellipse-curve $-1 62.303570569024657 -24.405008599344804 -0.36514327405027214 0 -0.64278761758704617 0.76604443648966558 2 0 0 1 I I #
point $-1 64.303570569024657 -28.31791716374245 4.2980794673922649 #
plane-surface $-1 0 33.360729865200554 0 0 -1 0 0 0 -1 forward_v I I I I #
coedge $-1 $227 $393 $320 $394 forward $220 $-1 #
coedge $-1 $318 $222 $393 $395 reversed $137 $-1 #
coedge $-1 $222 $317 $321 $396 forward $137 $-1 #
edge $-1 $322 -41.659039390049784 $397 -33.72506557019593 $222 $398 forward 7 unknown #
coedge $-1 $224 $223 $316 $394 reversed $86 $-1 #
coedge $-1 $230 $225 $318 $396 reversed $231 $-1 #
vertex $-1 $319 $399 #
straight-curve $-1 -28.12954698676409 33.360729865200554 1.8755114408417839 -1 0 0 I I #
coedge $-1 $393 $227 $230 $328 forward $220 $-1 #
vertex $-1 $228 $400 #
straight-curve $-1 -42.581971631861194 57.164256439421528 8.5295018339088315 0 1 0 I I #
straight-curve $-1 -42.581971631861194 -2.9783807547786125 57.832836501145138 0 -0.54463902268945019 0.83867057594974714 I I #
edge $-1 $232 42.581971631861194 $401 69.936216315195168 $230 $402 forward 7 unknown #
point $-1 -42.581971631861194 33.360729865200554 8.5295018339088315 #
point $-1 -42.581971631861194 33.360729865200554 1.8755114408417768 #
edge $-1 $403 1 $403 0 $235 $-1 forward 7 unknown #
vertex $-1 $236 $404 #
ellipse-curve $-1 -62.120717834242605 27.184110307488758 2.5944574582424971 0 0.83867057594974714 0.54463902268945019 1.5 0 0 1 I I #
point $-1 -60.620717834242605 31.20015399155611 5.2025066373753113 #
edge $-1 $405 1 $405 0 $239 $-1 forward 7 unknown #
vertex $-1 $240 $406 #
ellipse-curve $-1 -50.397470112813757 27.184110307488758 2.5944574582424971 0 0.83867057594974714 0.54463902268945019 1.5 0 0 1 I I #
point $-1 -48.897470112813757 31.20015399155611 5.2025066373753113 #
loop $-1 $-1 $251 $243 #
plane-surface $-1 69.936216315195168 0 0 -1 0 0 0 0 1 forward_v I I I I #
coedge $-1 $407 $342 $250 $347 forward $244 $-1 #
coedge $-1 $341 $408 $247 $343 forward $244 $-1 #
edge $-1 $345 23.803526574220975 $352 28.124678321509869 $342 $409 forward 7 unknown #
coedge $-1 $254 $248 $408 $410 reversed $159 $-1 #
vertex $-1 $343 $411 #
straight-curve $-1 42.581971631861194 33.360729865200554 67.006410755078448 0 0 1 I I #
edge $-1 $352 14.452424645097103 $350 41.806669328431077 $341 $412 forward 7 unknown #
coedge $-1 $349 $251 $254 $354 reversed $339 $-1 #
coedge $-1 $251 $348 $407 $413 reversed $339 $-1 #
vertex $-1 $413 $414 #
straight-curve $-1 69.936216315195168 10.671591365622529 36.813721999608042 0 0.54463902268945019 -0.83867057594974714 I I #
vertex $-1 $347 $415 #
straight-curve $-1 42.581971631861194 -2.9783807547786125 57.832836501145138 0 0.54463902268945019 -0.83867057594974714 I I #
edge $-1 $416 -8.5295018339088315 $255 -1.8755114408417768 $348 $417 forward 7 unknown #
point $-1 69.936216315195168 33.360729865200554 1.8755114408417768 #
point $-1 42.581971631861194 33.360729865200554 1.8755114408417768 #
edge $-1 $418 1 $418 0 $258 $-1 forward 7 unknown #
vertex $-1 $259 $419 #
ellipse-curve $-1 50.397470112813764 27.184110307488758 2.5944574582424971 0 0.83867057594974714 0.54463902268945019 1.5 0 0 1 I I #
point $-1 51.897470112813764 31.20015399155611 5.2025066373753113 #
edge $-1 $420 1 $420 0 $262 $-1 forward 7 unknown #
vertex $-1 $263 $421 #
ellipse-curve $-1 62.120717834242612 27.184110307488758 2.5944574582424971 0 0.83867057594974714 0.54463902268945019 1.5 0 0 1 I I #
point $-1 63.620717834242612 31.20015399155611 5.2025066373753113 #
plane-surface $-1 69.936216315195168 0 0 -1 0 0 0 0 1 forward_v I I I I #
coedge $-1 $271 $269 $273 $370 reversed $181 $-1 #
edge $-1 $284 -8.5295018339088315 $372 8.5295018339088315 $283 $422 forward 7 unknown #
vertex $-1 $370 $423 #
straight-curve $-1 -69.936216315195168 -33.360729865200554 0 0 0 -1 I I #
edge $-1 $368 -33.360729865200554 $372 33.360729865200554 $366 $424 forward 7 unknown #
straight-curve $-1 0 -33.360729865200554 -8.5295018339088315 -1 0 0 I I #
vertex $-1 $276 $425 #
straight-curve $-1 0 33.360729865200554 -8.5295018339088315 1 0 0 I I #
point $-1 69.936216315195168 33.360729865200554 -8.5295018339088315 #
point $-1 69.936216315195168 -33.360729865200554 -8.5295018339088315 #
straight-curve $-1 -69.936216315195168 0 8.5295018339088315 0 -1 0 I I #
point $-1 -69.936216315195168 33.360729865200554 8.5295018339088315 #
point $-1 -69.936216315195168 -33.360729865200554 8.5295018339088315 #
straight-curve $-1 69.936216315195168 -33.360729865200554 0 0 0 -1 I I #
straight-curve $-1 69.936216315195168 33.360729865200554 0 0 0 -1 I I #
coedge $-1 $296 $295 $303 $386 reversed $122 $-1 #
edge $-1 $299 54.67092482285414 $389 69.936216315195168 $296 $426 forward 7 unknown #
straight-curve $-1 54.67092482285414 -33.360729865200554 53.607577967830878 0 0 -1 I I #
point $-1 54.67092482285414 -33.360729865200554 8.5295018339088315 #
straight-curve $-1 31.151785284512329 -33.360729865200554 0.066657100875675113 1 0 0 I I #
edge $-1 $389 -8.5295018339088315 $304 -0.066657100875673336 $303 $427 forward 7 unknown #
point $-1 69.936216315195168 -33.360729865200554 0.066657100875673336 #
point $-1 54.67092482285414 -33.360729865200554 0.066657100875673336 #
vertex $-1 $308 $428 #
straight-curve $-1 69.936216315195168 0 8.5295018339088315 0 1 0 I I #
vertex $-1 $311 $429 #
point $-1 64.303570569024657 -24.405008599344804 -0.36514327405027214 #
coedge $-1 $316 $324 $317 $395 forward $220 $-1 #
edge $-1 $397 -41.806669328431077 $325 -14.452424645097103 $316 $430 forward 7 unknown #
edge $-1 $401 -33.360729865200554 $397 -29.03957811791166 $317 $431 forward 7 unknown #
edge $-1 $401 -8.5295018339088315 $322 -1.8755114408417861 $321 $432 forward 7 unknown #
vertex $-1 $319 $433 #
straight-curve $-1 -69.936216315195168 10.671591365622529 36.813721999608042 0 -0.54463902268945019 0.83867057594974714 I I #
point $-1 -69.936216315195168 33.360729865200554 1.8755114408417861 #
point $-1 -42.581971631861194 29.03957811791166 8.5295018339088315 #
vertex $-1 $328 $434 #
straight-curve $-1 0 33.360729865200554 8.5295018339088315 -1 0 0 I I #
vertex $-1 $331 $435 #
point $-1 -60.620717834242605 27.184110307488758 2.5944574582424971 #
vertex $-1 $335 $436 #
point $-1 -48.897470112813757 27.184110307488758 2.5944574582424971 #
coedge $-1 $408 $341 $349 $413 forward $244 $-1 #
coedge $-1 $342 $407 $344 $410 forward $244 $-1 #
straight-curve $-1 42.581971631861194 57.164256439421528 8.5295018339088315 0 -1 0 I I #
edge $-1 $416 -69.936216315195168 $345 -42.581971631861194 $344 $437 forward 7 unknown #
point $-1 42.581971631861194 33.360729865200554 8.5295018339088315 #
straight-curve $-1 28.12954698676409 29.039578117911663 8.5295018339088315 1 0 0 I I #
edge $-1 $350 29.03957811791166 $416 33.360729865200554 $349 $438 forward 7 unknown #
point $-1 69.936216315195168 29.03957811791166 8.5295018339088315 #
point $-1 42.581971631861194 29.03957811791166 8.5295018339088315 #
vertex $-1 $413 $439 #
straight-curve $-1 69.936216315195168 33.360729865200554 0 0 0 -1 I I #
vertex $-1 $357 $440 #
point $-1 51.897470112813764 27.184110307488758 2.5944574582424971 #
vertex $-1 $361 $441 #
point $-1 63.620717834242612 27.184110307488758 2.5944574582424971 #
straight-curve $-1 -69.936216315195168 33.360729865200554 0 0 0 -1 I I #
point $-1 -69.936216315195168 -33.360729865200554 -8.5295018339088315 #
straight-curve $-1 -69.936216315195168 0 -8.5295018339088315 0 1 0 I I #
point $-1 -69.936216315195168 33.360729865200554 -8.5295018339088315 #
straight-curve $-1 0 -33.360729865200554 8.5295018339088315 1 0 0 I I #
straight-curve $-1 69.936216315195168 -33.360729865200554 0 0 0 -1 I I #
point $-1 69.936216315195168 -33.360729865200554 8.5295018339088315 #
point $-1 62.303570569024657 -23.11943336417071 -1.8972321470296034 #
straight-curve $-1 -28.12954698676409 29.039578117911663 8.5295018339088315 1 0 0 I I #
straight-curve $-1 -69.936216315195168 0 8.5295018339088315 0 -1 0 I I #
straight-curve $-1 -69.936216315195168 33.360729865200554 0 0 0 -1 I I #
point $-1 -69.936216315195168 29.03957811791166 8.5295018339088315 #
point $-1 -69.936216315195168 33.360729865200554 8.5295018339088315 #
point $-1 -62.120717834242605 25.926104443564135 1.7774989242083217 #
point $-1 -50.397470112813757 25.926104443564135 1.7774989242083217 #
straight-curve $-1 0 33.360729865200554 8.5295018339088315 -1 0 0 I I #
straight-curve $-1 69.936216315195168 0 8.5295018339088315 0 1 0 I I #
point $-1 69.936216315195168 33.360729865200554 8.5295018339088315 #
point $-1 50.397470112813764 25.926104443564135 1.7774989242083217 #
point $-1 62.120717834242612 25.926104443564135 1.7774989242083217 #
End-of-ACIS-data 