500 0 12 0           
7 Unknown 11 ACIS 5.0 NT 24 Thu Mar 25 19:27:28 1999 
-1 9.9999999999999995e-007 1e-010 
body $-1 $12 $-1 $13 #
body $-1 $14 $-1 $15 #
body $-1 $16 $-1 $17 #
body $-1 $18 $-1 $19 #
body $-1 $20 $-1 $21 #
body $-1 $22 $-1 $23 #
body $-1 $24 $-1 $25 #
body $-1 $26 $-1 $27 #
body $-1 $28 $-1 $29 #
body $-1 $30 $-1 $31 #
body $-1 $32 $-1 $33 #
body $-1 $34 $-1 $35 #
lump $-1 $-1 $36 $0 #
transform $-1 1 0 0 0 1 0 0 0 1 41.469771416364026 16.636127759360438 6.9158708914358984 1 rotate no_reflect no_shear #
lump $-1 $-1 $37 $1 #
transform $-1 1 0 0 0 1 0 0 0 1 41.469771416364026 16.636127759360438 6.9158708914358984 1 rotate no_reflect no_shear #
lump $-1 $-1 $38 $2 #
transform $-1 1 0 0 0 1 0 0 0 1 41.469771416364026 16.636127759360438 6.9158708914358984 1 rotate no_reflect no_shear #
lump $-1 $-1 $39 $3 #
transform $-1 1 0 0 0 1 0 0 0 1 41.469771416364026 16.636127759360438 6.9158708914358984 1 rotate no_reflect no_shear #
lump $-1 $-1 $40 $4 #
transform $-1 1 0 0 0 1 0 0 0 1 41.469771416364026 16.636127759360438 6.9158708914358984 1 rotate no_reflect no_shear #
lump $-1 $-1 $41 $5 #
transform $-1 1 0 0 0 1 0 0 0 1 41.469771416364026 16.636127759360438 6.9158708914358984 1 rotate no_reflect no_shear #
lump $-1 $-1 $42 $6 #
transform $-1 1 0 0 0 1 0 0 0 1 41.469771416364026 16.636127759360438 6.9158708914358984 1 rotate no_reflect no_shear #
lump $-1 $-1 $43 $7 #
transform $-1 1 0 0 0 1 0 0 0 1 41.469771416364026 16.636127759360438 6.9158708914358984 1 rotate no_reflect no_shear #
lump $-1 $-1 $44 $8 #
transform $-1 1 0 0 0 1 0 0 0 1 41.469771416364026 16.636127759360438 6.9158708914358984 1 rotate no_reflect no_shear #
lump $-1 $-1 $45 $9 #
transform $-1 1 0 0 0 1 0 0 0 1 41.469771416364026 16.636127759360438 6.9158708914358984 1 rotate no_reflect no_shear #
lump $-1 $-1 $46 $10 #
transform $-1 1 0 0 0 1 0 0 0 1 41.469771416364026 16.636127759360438 6.9158708914358984 1 rotate no_reflect no_shear #
lump $-1 $-1 $47 $11 #
transform $-1 1 0 0 0 1 0 0 0 1 41.469771416364026 16.636127759360438 6.9158708914358984 1 rotate no_reflect no_shear #
shell $-1 $-1 $-1 $48 $-1 $12 #
shell $-1 $-1 $-1 $49 $-1 $14 #
shell $-1 $-1 $-1 $50 $-1 $16 #
shell $-1 $-1 $-1 $51 $-1 $18 #
shell $-1 $-1 $-1 $52 $-1 $20 #
shell $-1 $-1 $-1 $53 $-1 $22 #
shell $-1 $-1 $-1 $54 $-1 $24 #
shell $-1 $-1 $-1 $55 $-1 $26 #
shell $-1 $-1 $-1 $56 $-1 $28 #
shell $-1 $-1 $-1 $57 $-1 $30 #
shell $-1 $-1 $-1 $58 $-1 $32 #
shell $-1 $-1 $-1 $59 $-1 $34 #
face $-1 $60 $61 $36 $-1 $62 forward single #
face $-1 $63 $64 $37 $-1 $65 reversed single #
face $-1 $66 $67 $38 $-1 $68 reversed single #
face $-1 $69 $70 $39 $-1 $71 forward single #
face $-1 $72 $73 $40 $-1 $74 reversed single #
face $-1 $75 $76 $41 $-1 $77 forward single #
face $-1 $78 $79 $42 $-1 $80 reversed single #
face $-1 $81 $82 $43 $-1 $83 forward single #
face $-1 $84 $85 $44 $-1 $86 forward single #
face $-1 $87 $88 $45 $-1 $89 reversed single #
face $-1 $90 $91 $46 $-1 $92 forward single #
face $-1 $93 $94 $47 $-1 $95 forward single #
face $-1 $96 $97 $36 $-1 $98 reversed single #
loop $-1 $-1 $99 $48 #
plane-surface $-1 0 0 6.9158708914358984 0 0 1 1 0 0 forward_v I I I I #
face $-1 $100 $101 $37 $-1 $102 reversed single #
loop $-1 $-1 $103 $49 #
plane-surface $-1 -37.909029746319483 0 3.1802832908766794 0 0 1 1 0 0 forward_v I I I I #
face $-1 $104 $105 $38 $-1 $106 reversed single #
loop $-1 $-1 $107 $50 #
plane-surface $-1 -26.556625426477737 45.938474591980324 87.046640990512927 1 0 0 0 -0.6560590369687036 -0.75470957328743171 forward_v I I I I #
face $-1 $108 $109 $39 $-1 $110 forward single #
loop $-1 $111 $112 $51 #
cone-surface $-1 -19.569306459090313 13.572425597469655 4.0855598474087129 0 -0.6560590369687036 -0.75470957328743171 0.5 0 0 1 I I 0 1 0.5 forward I I I I #
face $-1 $113 $114 $40 $-1 $115 reversed single #
loop $-1 $-1 $116 $52 #
plane-surface $-1 11.352404319841749 45.938474591980324 87.046640990512927 1 0 0 0 -0.6560590369687036 -0.75470957328743171 forward_v I I I I #
face $-1 $117 $118 $41 $-1 $119 forward single #
loop $-1 $120 $121 $53 #
cone-surface $-1 18.33972328722917 13.572425597469655 4.0855598474087129 0 -0.6560590369687036 -0.75470957328743171 0.5 0 0 1 I I 0 1 0.5 forward I I I I #
face $-1 $122 $123 $42 $-1 $124 reversed single #
loop $-1 $-1 $125 $54 #
plane-surface $-1 3.5607416700445498 -69.948638900568469 65.136643520419426 -1 0 0 0 -0.64278761758704617 0.76604443648966558 forward_v I I I I #
face $-1 $126 $127 $43 $-1 $128 forward single #
loop $-1 $129 $130 $55 #
cone-surface $-1 -2.9994480818651965 -12.770357947340061 3.4256274172656278 0 0.64278761758704617 -0.76604443648966558 1 0 0 1 I I 0 1 1 forward I I I I #
face $-1 $131 $132 $44 $-1 $133 forward single #
loop $-1 $134 $135 $56 #
cone-surface $-1 0.93666576928065126 -12.770357947340061 3.4256274172656278 0 0.64278761758704617 -0.76604443648966558 1 0 0 1 I I 0 1 1 forward I I I I #
face $-1 $136 $137 $45 $-1 $138 reversed single #
loop $-1 $-1 $139 $57 #
plane-surface $-1 12.745007322718187 -69.948638900568469 65.136643520419426 -1 0 0 0 -0.64278761758704617 0.76604443648966558 forward_v I I I I #
face $-1 $140 $141 $46 $-1 $142 forward single #
loop $-1 $143 $144 $58 #
cone-surface $-1 6.1848175708084412 -12.770357947340061 3.4256274172656278 0 0.64278761758704617 -0.76604443648966558 1 0 0 1 I I 0 1 1 forward I I I I #
face $-1 $145 $146 $47 $-1 $147 forward single #
loop $-1 $148 $149 $59 #
cone-surface $-1 10.120931421954289 -12.770357947340061 3.4256274172656278 0 0.64278761758704617 -0.76604443648966558 1 0 0 1 I I 0 1 1 forward I I I I #
face $-1 $150 $151 $36 $-1 $152 reversed single #
loop $-1 $-1 $153 $60 #
plane-surface $-1 0 0 -6.9158708914358984 0 0 1 1 0 0 forward_v I I I I #
coedge $-1 $154 $155 $156 $157 forward $61 $-1 #
face $-1 $158 $159 $37 $-1 $160 reversed single #
loop $-1 $-1 $161 $63 #
plane-surface $-1 -34.34828807627494 0 5.0480770911562898 -1 0 0 0 0 1 forward_v I I I I #
coedge $-1 $162 $163 $164 $165 forward $64 $-1 #
face $-1 $166 $167 $38 $-1 $168 reversed single #
loop $-1 $-1 $169 $66 #
plane-surface $-1 -19.56930645909031 -8.4747620054837824 24.451374010570071 0 0.6560590369687036 0.75470957328743171 1 0 0 forward_v I I I I #
coedge $-1 $170 $171 $172 $173 reversed $67 $-1 #
face $-1 $-1 $174 $39 $-1 $175 forward single #
loop $-1 $176 $177 $69 #
cone-surface $-1 -19.569306459090313 12.814009377611359 3.2131018071869066 0 -0.6560590369687036 -0.75470957328743171 0.25 0 0 1 I I -0.70710678118654746 0.70710678118654746 0.25 forward I I I I #
loop $-1 $-1 $178 $51 #
coedge $-1 $112 $112 $179 $180 reversed $70 $-1 #
face $-1 $181 $182 $40 $-1 $183 reversed single #
loop $-1 $-1 $184 $72 #
plane-surface $-1 18.339723287229177 -8.4747620054837824 24.451374010570071 0 0.6560590369687036 0.75470957328743171 1 0 0 forward_v I I I I #
coedge $-1 $185 $186 $187 $188 reversed $73 $-1 #
face $-1 $-1 $189 $41 $-1 $190 forward single #
loop $-1 $191 $192 $75 #
cone-surface $-1 18.33972328722917 12.814009377611359 3.2131018071869066 0 -0.6560590369687036 -0.75470957328743171 0.25 0 0 1 I I -0.70710678118654746 0.70710678118654746 0.25 forward I I I I #
loop $-1 $-1 $193 $53 #
coedge $-1 $121 $121 $194 $195 reversed $76 $-1 #
face $-1 $196 $197 $42 $-1 $198 reversed single #
loop $-1 $-1 $199 $78 #
plane-surface $-1 -1.0313911562922726 -16.636127759360434 1.6012681684117851 0 -0.64278761758704617 0.76604443648966558 1 0 0 forward_v I I I I #
coedge $-1 $200 $201 $202 $203 reversed $79 $-1 #
face $-1 $-1 $204 $43 $-1 $205 forward single #
loop $-1 $206 $207 $81 #
cone-surface $-1 -2.9994480818651965 -11.750042704384116 2.2096630863625704 0 0.64278761758704617 -0.76604443648966558 0.5 0 0 1 I I -0.70710678118654746 0.70710678118654746 0.5 forward I I I I #
loop $-1 $-1 $208 $55 #
coedge $-1 $130 $130 $209 $210 reversed $82 $-1 #
face $-1 $-1 $211 $44 $-1 $212 forward single #
loop $-1 $213 $214 $84 #
cone-surface $-1 0.93666576928065126 -11.750042704384116 2.2096630863625704 0 0.64278761758704617 -0.76604443648966558 0.5 0 0 1 I I -0.70710678118654746 0.70710678118654746 0.5 forward I I I I #
loop $-1 $-1 $215 $56 #
coedge $-1 $135 $135 $216 $217 reversed $85 $-1 #
face $-1 $218 $219 $45 $-1 $220 forward single #
loop $-1 $-1 $221 $87 #
plane-surface $-1 -1.0313911562922726 -16.636127759360434 1.6012681684117851 0 -0.64278761758704617 0.76604443648966558 1 0 0 forward_v I I I I #
coedge $-1 $222 $223 $224 $225 reversed $88 $-1 #
face $-1 $-1 $226 $46 $-1 $227 forward single #
loop $-1 $228 $229 $90 #
cone-surface $-1 6.1848175708084412 -11.750042704384116 2.2096630863625704 0 0.64278761758704617 -0.76604443648966558 0.5 0 0 1 I I -0.70710678118654746 0.70710678118654746 0.5 forward I I I I #
loop $-1 $-1 $230 $58 #
coedge $-1 $144 $144 $231 $232 reversed $91 $-1 #
face $-1 $-1 $233 $47 $-1 $234 forward single #
loop $-1 $235 $236 $93 #
cone-surface $-1 10.120931421954289 -11.750042704384116 2.2096630863625704 0 0.64278761758704617 -0.76604443648966558 0.5 0 0 1 I I -0.70710678118654746 0.70710678118654746 0.5 forward I I I I #
loop $-1 $-1 $237 $59 #
coedge $-1 $149 $149 $238 $239 reversed $94 $-1 #
face $-1 $240 $241 $36 $-1 $242 reversed single #
loop $-1 $-1 $243 $96 #
plane-surface $-1 0 -16.636127759360438 0 0 1 0 0 0 1 forward_v I I I I #
coedge $-1 $244 $245 $246 $247 forward $97 $-1 #
coedge $-1 $248 $99 $249 $250 forward $61 $-1 #
coedge $-1 $99 $248 $251 $252 forward $61 $-1 #
coedge $-1 $253 $254 $99 $157 reversed $255 $-1 #
edge $-1 $256 -16.636127759360438 $257 16.636127759360438 $156 $258 forward 7 unknown #
face $-1 $259 $260 $37 $-1 $261 reversed single #
loop $-1 $-1 $262 $100 #
plane-surface $-1 0 16.636127759360438 0 0 -1 0 0 0 -1 forward_v I I I I #
coedge $-1 $164 $263 $264 $265 reversed $101 $-1 #
coedge $-1 $266 $103 $267 $268 reversed $64 $-1 #
coedge $-1 $103 $266 $269 $270 reversed $64 $-1 #
coedge $-1 $271 $161 $103 $165 reversed $101 $-1 #
edge $-1 $272 -16.636127759360438 $273 16.636127759360438 $164 $274 forward 7 unknown #
face $-1 $275 $276 $38 $-1 $277 forward single #
loop $-1 $-1 $278 $104 #
plane-surface $-1 -12.581987491702883 45.938474591980324 87.046640990512927 -1 0 0 0 0.6560590369687036 0.75470957328743171 forward_v I I I I #
coedge $-1 $279 $280 $281 $282 reversed $105 $-1 #
coedge $-1 $171 $107 $283 $284 reversed $67 $-1 #
coedge $-1 $107 $170 $279 $285 reversed $67 $-1 #
coedge $-1 $281 $286 $107 $173 forward $276 $-1 #
edge $-1 $287 6.3331095366297241 $288 11.271710939179044 $172 $289 forward 7 unknown #
loop $-1 $-1 $179 $108 #
plane-surface $-1 -19.56930645909031 -8.4747620054837824 24.451374010570071 0 0.6560590369687036 0.75470957328743171 1 0 0 forward_v I I I I #
loop $-1 $-1 $290 $69 #
coedge $-1 $177 $177 $178 $291 reversed $109 $-1 #
coedge $-1 $178 $178 $177 $291 forward $111 $-1 #
coedge $-1 $179 $179 $112 $180 forward $174 $-1 #
edge $-1 $292 -1.5158720671702494e-015 $292 6.2831853071795987 $179 $293 forward 7 unknown #
face $-1 $294 $295 $40 $-1 $296 forward single #
loop $-1 $-1 $297 $113 #
plane-surface $-1 25.327042254616604 45.938474591980324 87.046640990512927 -1 0 0 0 0.6560590369687036 0.75470957328743171 forward_v I I I I #
coedge $-1 $298 $299 $300 $301 reversed $114 $-1 #
coedge $-1 $186 $116 $302 $303 reversed $73 $-1 #
coedge $-1 $116 $185 $298 $304 reversed $73 $-1 #
coedge $-1 $300 $305 $116 $188 forward $295 $-1 #
edge $-1 $306 6.3331095366297241 $307 11.271710939179044 $187 $308 forward 7 unknown #
loop $-1 $-1 $194 $117 #
plane-surface $-1 18.339723287229177 -8.4747620054837824 24.451374010570071 0 0.6560590369687036 0.75470957328743171 1 0 0 forward_v I I I I #
loop $-1 $-1 $309 $75 #
coedge $-1 $192 $192 $193 $310 reversed $118 $-1 #
coedge $-1 $193 $193 $192 $310 forward $120 $-1 #
coedge $-1 $194 $194 $121 $195 forward $189 $-1 #
edge $-1 $311 -1.5158720671702494e-015 $311 6.2831853071795987 $194 $312 forward 7 unknown #
face $-1 $313 $314 $42 $-1 $315 reversed single #
loop $-1 $-1 $316 $122 #
plane-surface $-1 -5.623523982629095 -69.948638900568469 65.136643520419426 1 0 0 0 0.64278761758704617 -0.76604443648966558 forward_v I I I I #
coedge $-1 $317 $318 $319 $320 reversed $123 $-1 #
coedge $-1 $201 $125 $321 $322 reversed $79 $-1 #
coedge $-1 $125 $200 $317 $323 reversed $79 $-1 #
coedge $-1 $319 $324 $125 $203 forward $325 $-1 #
edge $-1 $326 18.338191690923797 $327 24.671888446639734 $202 $328 forward 7 unknown #
loop $-1 $-1 $209 $126 #
plane-surface $-1 -1.0313911562922726 -16.636127759360434 1.6012681684117851 0 -0.64278761758704617 0.76604443648966558 1 0 0 forward_v I I I I #
loop $-1 $-1 $329 $81 #
coedge $-1 $207 $207 $208 $330 reversed $127 $-1 #
coedge $-1 $208 $208 $207 $330 forward $129 $-1 #
coedge $-1 $209 $209 $130 $210 forward $204 $-1 #
edge $-1 $331 1.8009361835111108e-016 $331 6.2831853071796004 $209 $332 forward 7 unknown #
loop $-1 $-1 $216 $131 #
plane-surface $-1 -1.0313911562922726 -16.636127759360434 1.6012681684117851 0 -0.64278761758704617 0.76604443648966558 1 0 0 forward_v I I I I #
loop $-1 $-1 $333 $84 #
coedge $-1 $214 $214 $215 $334 reversed $132 $-1 #
coedge $-1 $215 $215 $214 $334 forward $134 $-1 #
coedge $-1 $216 $216 $135 $217 forward $211 $-1 #
edge $-1 $335 1.8009361835111108e-016 $335 6.2831853071796004 $216 $336 forward 7 unknown #
face $-1 $337 $338 $45 $-1 $339 forward single #
loop $-1 $-1 $340 $136 #
plane-surface $-1 0 0 6.9158708914358984 0 0 1 1 0 0 forward_v I I I I #
coedge $-1 $341 $342 $343 $344 reversed $137 $-1 #
coedge $-1 $223 $139 $345 $346 reversed $88 $-1 #
coedge $-1 $139 $222 $340 $347 reversed $88 $-1 #
coedge $-1 $348 $349 $139 $225 forward $350 $-1 #
edge $-1 $351 -30.967053591797931 $352 -25.652450868773816 $224 $353 forward 7 unknown #
loop $-1 $-1 $231 $140 #
plane-surface $-1 -1.0313911562922726 -16.636127759360434 1.6012681684117851 0 -0.64278761758704617 0.76604443648966558 1 0 0 forward_v I I I I #
loop $-1 $-1 $354 $90 #
coedge $-1 $229 $229 $230 $355 reversed $141 $-1 #
coedge $-1 $230 $230 $229 $355 forward $143 $-1 #
coedge $-1 $231 $231 $144 $232 forward $226 $-1 #
edge $-1 $356 1.8009361835111108e-016 $356 6.2831853071796004 $231 $357 forward 7 unknown #
loop $-1 $-1 $238 $145 #
plane-surface $-1 -1.0313911562922726 -16.636127759360434 1.6012681684117851 0 -0.64278761758704617 0.76604443648966558 1 0 0 forward_v I I I I #
loop $-1 $-1 $358 $93 #
coedge $-1 $236 $236 $237 $359 reversed $146 $-1 #
coedge $-1 $237 $237 $236 $359 forward $148 $-1 #
coedge $-1 $238 $238 $149 $239 forward $233 $-1 #
edge $-1 $360 1.8009361835111108e-016 $360 6.2831853071796004 $238 $361 forward 7 unknown #
face $-1 $362 $363 $36 $-1 $364 reversed single #
loop $-1 $-1 $365 $150 #
plane-surface $-1 -41.469771416364026 0 0 1 0 0 0 0 -1 forward_v I I I I #
coedge $-1 $366 $251 $367 $368 forward $151 $-1 #
coedge $-1 $369 $153 $366 $370 forward $97 $-1 #
coedge $-1 $153 $369 $371 $372 forward $97 $-1 #
coedge $-1 $254 $253 $153 $247 reversed $255 $-1 #
edge $-1 $373 -16.636127759360438 $374 16.636127759360438 $246 $375 forward 7 unknown #
coedge $-1 $155 $154 $376 $377 forward $61 $-1 #
coedge $-1 $378 $379 $154 $250 reversed $363 $-1 #
edge $-1 $257 -41.469771416364026 $380 41.469771416364026 $249 $381 forward 7 unknown #
coedge $-1 $243 $382 $155 $252 reversed $151 $-1 #
edge $-1 $383 -41.469771416364026 $256 41.469771416364026 $251 $384 forward 7 unknown #
coedge $-1 $246 $156 $382 $385 forward $255 $-1 #
coedge $-1 $156 $246 $378 $386 reversed $255 $-1 #
loop $-1 $-1 $253 $362 #
vertex $-1 $157 $387 #
vertex $-1 $157 $388 #
straight-curve $-1 41.469771416364026 0 6.9158708914358984 0 1 0 I I #
face $-1 $389 $390 $37 $-1 $391 forward single #
loop $-1 $-1 $392 $158 #
plane-surface $-1 -41.469771416364026 0 0 1 0 0 0 0 -1 forward_v I I I I #
coedge $-1 $269 $393 $271 $394 forward $159 $-1 #
coedge $-1 $161 $271 $395 $396 reversed $101 $-1 #
coedge $-1 $397 $267 $161 $265 forward $398 $-1 #
edge $-1 $273 0.65624474529853449 $399 4.3918323458577557 $264 $400 forward 7 unknown #
coedge $-1 $163 $162 $392 $401 reversed $64 $-1 #
coedge $-1 $264 $402 $162 $268 forward $398 $-1 #
edge $-1 $403 -22.515256543204284 $273 -15.393773203115199 $267 $404 forward 7 unknown #
coedge $-1 $405 $262 $163 $270 forward $159 $-1 #
edge $-1 $272 15.393773203115199 $406 22.515256543204284 $269 $407 forward 7 unknown #
coedge $-1 $263 $164 $262 $394 reversed $101 $-1 #
vertex $-1 $270 $408 #
vertex $-1 $268 $409 #
straight-curve $-1 -34.34828807627494 0 3.1802832908766794 0 -1 0 I I #
face $-1 $-1 $410 $38 $-1 $411 reversed single #
loop $-1 $-1 $172 $166 #
plane-surface $-1 0 0 6.9158708914358984 0 0 1 1 0 0 forward_v I I I I #
coedge $-1 $412 $413 $414 $415 reversed $167 $-1 #
coedge $-1 $416 $169 $171 $285 forward $105 $-1 #
coedge $-1 $169 $416 $412 $417 forward $105 $-1 #
coedge $-1 $414 $172 $169 $282 forward $276 $-1 #
edge $-1 $288 -16.77197219693258 $418 -2.7973342621577277 $281 $419 forward 7 unknown #
coedge $-1 $420 $421 $170 $284 forward $410 $-1 #
edge $-1 $422 -40.900510398075042 $287 -36.607449603820562 $283 $423 forward 7 unknown #
edge $-1 $288 26.72854443123947 $422 33.272255518720868 $171 $424 forward 7 unknown #
coedge $-1 $172 $414 $420 $425 forward $276 $-1 #
vertex $-1 $284 $426 #
vertex $-1 $173 $427 #
straight-curve $-1 -26.556625426477737 22.969237295990162 6.9158708914359011 0 -1 0 I I #
coedge $-1 $290 $290 $-1 $428 reversed $176 $-1 #
edge $-1 $429 0 $429 6.2831853071796004 $177 $430 forward 7 unknown #
vertex $-1 $180 $431 #
ellipse-curve $-1 -19.569306459090313 14.166827058085776 4.769340494308663 0 0.6560590369687036 0.75470957328743171 0.5 0 0 1 I I #
face $-1 $-1 $432 $40 $-1 $433 reversed single #
loop $-1 $-1 $187 $181 #
plane-surface $-1 0 0 6.9158708914358984 0 0 1 1 0 0 forward_v I I I I #
coedge $-1 $434 $435 $436 $437 reversed $182 $-1 #
coedge $-1 $438 $184 $186 $304 forward $114 $-1 #
coedge $-1 $184 $438 $434 $439 forward $114 $-1 #
coedge $-1 $436 $187 $184 $301 forward $295 $-1 #
edge $-1 $307 2.1825426762271611 $440 16.157180611002016 $300 $441 forward 7 unknown #
coedge $-1 $442 $443 $185 $303 forward $432 $-1 #
edge $-1 $444 -40.900510398075042 $306 -36.607449603820562 $302 $445 forward 7 unknown #
edge $-1 $307 26.72854443123947 $444 33.272255518720868 $186 $446 forward 7 unknown #
coedge $-1 $187 $436 $442 $447 forward $295 $-1 #
vertex $-1 $188 $448 #
vertex $-1 $188 $449 #
straight-curve $-1 11.352404319841749 22.969237295990162 6.9158708914359011 0 -1 0 I I #
coedge $-1 $309 $309 $-1 $450 reversed $191 $-1 #
edge $-1 $451 0 $451 6.2831853071796004 $192 $452 forward 7 unknown #
vertex $-1 $195 $453 #
ellipse-curve $-1 18.33972328722917 14.166827058085776 4.769340494308663 0 0.6560590369687036 0.75470957328743171 0.5 0 0 1 I I #
face $-1 $-1 $325 $42 $-1 $454 forward single #
loop $-1 $-1 $455 $196 #
plane-surface $-1 0 -16.636127759360438 0 0 1 0 0 0 1 forward_v I I I I #
coedge $-1 $456 $457 $458 $459 reversed $197 $-1 #
coedge $-1 $460 $199 $201 $323 forward $123 $-1 #
coedge $-1 $199 $460 $456 $461 forward $123 $-1 #
coedge $-1 $458 $202 $199 $320 forward $325 $-1 #
edge $-1 $327 -4.0764372481906861 $462 5.1078284044829587 $319 $463 forward 7 unknown #
coedge $-1 $464 $465 $200 $322 forward $314 $-1 #
edge $-1 $466 -30.967053591797931 $326 -25.652450868773816 $321 $467 forward 7 unknown #
edge $-1 $327 -8.2680539848831351 $466 4.5769943418574876e-015 $201 $468 forward 7 unknown #
coedge $-1 $202 $458 $464 $469 forward $325 $-1 #
loop $-1 $-1 $458 $313 #
vertex $-1 $322 $470 #
vertex $-1 $203 $471 #
straight-curve $-1 3.5607416700445498 -34.974319450284234 6.9158708914358975 0 1 0 I I #
coedge $-1 $329 $329 $-1 $472 reversed $206 $-1 #
edge $-1 $473 0 $473 6.2831853071796004 $207 $474 forward 7 unknown #
vertex $-1 $210 $475 #
ellipse-curve $-1 -2.9994480818651965 -13.469279381502471 4.2585695299238377 0 -0.64278761758704617 0.76604443648966558 1 0 0 1 I I #
coedge $-1 $333 $333 $-1 $476 reversed $213 $-1 #
edge $-1 $477 0 $477 6.2831853071796004 $214 $478 forward 7 unknown #
vertex $-1 $217 $479 #
ellipse-curve $-1 0.93666576928065126 -13.469279381502471 4.2585695299238377 0 -0.64278761758704617 0.76604443648966558 1 0 0 1 I I #
face $-1 $-1 $350 $45 $-1 $480 reversed single #
loop $-1 $-1 $481 $218 #
plane-surface $-1 3.5607416700445498 -69.948638900568469 65.136643520419426 -1 0 0 0 -0.64278761758704617 0.76604443648966558 forward_v I I I I #
coedge $-1 $482 $483 $223 $347 forward $219 $-1 #
coedge $-1 $345 $221 $482 $484 reversed $137 $-1 #
coedge $-1 $221 $345 $349 $485 reversed $137 $-1 #
coedge $-1 $486 $481 $221 $344 forward $338 $-1 #
edge $-1 $487 -8.2680539848831351 $488 4.5769943418574876e-015 $343 $489 forward 7 unknown #
coedge $-1 $342 $341 $222 $346 forward $137 $-1 #
edge $-1 $490 -8.2680539848831351 $351 4.5769943418574876e-015 $222 $491 forward 7 unknown #
edge $-1 $352 18.338191690923797 $490 24.671888446639734 $340 $492 forward 7 unknown #
coedge $-1 $493 $224 $483 $494 reversed $350 $-1 #
coedge $-1 $224 $493 $342 $485 forward $350 $-1 #
loop $-1 $-1 $224 $337 #
vertex $-1 $225 $495 #
vertex $-1 $347 $496 #
straight-curve $-1 12.745007322718187 -16.636127759360438 32.568321760209713 0 0 1 I I #
coedge $-1 $354 $354 $-1 $497 reversed $228 $-1 #
edge $-1 $498 0 $498 6.2831853071796004 $229 $499 forward 7 unknown #
vertex $-1 $232 $500 #
ellipse-curve $-1 6.1848175708084412 -13.469279381502471 4.2585695299238377 0 -0.64278761758704617 0.76604443648966558 1 0 0 1 I I #
coedge $-1 $358 $358 $-1 $501 reversed $235 $-1 #
edge $-1 $502 0 $502 6.2831853071796004 $236 $503 forward 7 unknown #
vertex $-1 $239 $504 #
ellipse-curve $-1 10.120931421954289 -13.469279381502471 4.2585695299238377 0 -0.64278761758704617 0.76604443648966558 1 0 0 1 I I #
face $-1 $-1 $255 $36 $-1 $505 reversed single #
loop $-1 $-1 $378 $240 #
plane-surface $-1 0 16.636127759360438 0 0 -1 0 0 0 -1 forward_v I I I I #
coedge $-1 $506 $376 $379 $507 forward $241 $-1 #
coedge $-1 $382 $243 $244 $370 reversed $151 $-1 #
coedge $-1 $376 $506 $243 $368 reversed $241 $-1 #
edge $-1 $383 -6.9158708914358984 $508 6.9158708914358984 $367 $509 forward 7 unknown #
coedge $-1 $245 $244 $506 $510 forward $97 $-1 #
edge $-1 $374 -41.469771416364026 $508 41.469771416364026 $366 $511 forward 7 unknown #
coedge $-1 $379 $378 $245 $372 reversed $363 $-1 #
edge $-1 $512 -41.469771416364026 $373 41.469771416364026 $371 $513 forward 7 unknown #
vertex $-1 $247 $514 #
vertex $-1 $385 $515 #
straight-curve $-1 41.469771416364026 0 -6.9158708914358984 0 -1 0 I I #
coedge $-1 $365 $367 $248 $377 reversed $241 $-1 #
edge $-1 $380 -16.636127759360438 $383 16.636127759360438 $376 $516 forward 7 unknown #
coedge $-1 $371 $249 $254 $386 forward $363 $-1 #
coedge $-1 $249 $371 $365 $507 reversed $363 $-1 #
vertex $-1 $250 $517 #
straight-curve $-1 0 16.636127759360438 6.9158708914358984 -1 0 0 I I #
coedge $-1 $251 $366 $253 $385 reversed $151 $-1 #
vertex $-1 $377 $518 #
straight-curve $-1 0 -16.636127759360438 6.9158708914358984 1 0 0 I I #
edge $-1 $256 -6.9158708914358984 $374 6.9158708914358984 $253 $519 forward 7 unknown #
edge $-1 $257 -6.9158708914358984 $373 6.9158708914358984 $254 $520 forward 7 unknown #
point $-1 41.469771416364026 -16.636127759360438 6.9158708914358984 #
point $-1 41.469771416364026 16.636127759360438 6.9158708914358984 #
face $-1 $-1 $398 $37 $-1 $521 reversed single #
loop $-1 $-1 $395 $259 #
plane-surface $-1 0 0 6.9158708914358984 0 0 1 1 0 0 forward_v I I I I #
coedge $-1 $522 $523 $266 $401 forward $260 $-1 #
coedge $-1 $262 $405 $524 $525 reversed $159 $-1 #
edge $-1 $526 -4.3918323458577557 $272 -0.65624474529853449 $262 $527 forward 7 unknown #
coedge $-1 $524 $528 $263 $396 forward $390 $-1 #
edge $-1 $399 -16.636127759360438 $526 16.636127759360438 $395 $529 forward 7 unknown #
coedge $-1 $402 $264 $528 $530 reversed $398 $-1 #
loop $-1 $-1 $264 $389 #
vertex $-1 $265 $531 #
straight-curve $-1 -34.34828807627494 -16.636127759360438 2.5240385455781449 0 0 1 I I #
edge $-1 $406 -16.636127759360438 $403 16.636127759360438 $392 $532 forward 7 unknown #
coedge $-1 $267 $397 $522 $533 forward $398 $-1 #
vertex $-1 $401 $534 #
straight-curve $-1 -18.954514873159741 -16.636127759360438 3.1802832908766794 1 0 0 I I #
coedge $-1 $393 $269 $523 $535 reversed $159 $-1 #
vertex $-1 $401 $536 #
straight-curve $-1 -18.954514873159741 16.636127759360438 3.1802832908766794 -1 0 0 I I #
point $-1 -34.34828807627494 16.636127759360438 3.1802832908766794 #
point $-1 -34.34828807627494 -16.636127759360438 3.1802832908766794 #
loop $-1 $-1 $283 $275 #
plane-surface $-1 0 16.636127759360438 0 0 -1 0 0 0 -1 forward_v I I I I #
coedge $-1 $413 $278 $280 $417 reversed $167 $-1 #
coedge $-1 $278 $412 $537 $538 reversed $167 $-1 #
coedge $-1 $286 $281 $278 $415 forward $276 $-1 #
edge $-1 $418 -11.271710939179044 $539 -6.3331095366297241 $414 $540 forward 7 unknown #
coedge $-1 $280 $279 $421 $541 reversed $105 $-1 #
edge $-1 $542 -33.272255518720868 $418 -26.72854443123947 $412 $543 forward 7 unknown #
vertex $-1 $282 $544 #
straight-curve $-1 -9.7846532295451549 11.697526356811117 6.9158708914358993 1 0 0 I I #
coedge $-1 $537 $283 $286 $425 reversed $410 $-1 #
coedge $-1 $283 $537 $416 $541 forward $410 $-1 #
vertex $-1 $284 $545 #
straight-curve $-1 -26.556625426477737 16.636127759360438 43.523320495256463 0 0 1 I I #
straight-curve $-1 -26.556625426477737 -8.4747620054837824 24.451374010570071 0 0.75470957328743171 -0.6560590369687036 I I #
edge $-1 $539 12.581987491702883 $287 26.556625426477737 $420 $546 forward 7 unknown #
point $-1 -26.556625426477737 16.636127759360438 6.9158708914358984 #
point $-1 -26.556625426477737 11.697526356811117 6.9158708914358975 #
edge $-1 $547 1 $547 0 $290 $-1 forward 7 unknown #
vertex $-1 $291 $548 #
ellipse-curve $-1 -19.569306459090313 12.978024136853536 3.4017792005087646 0 0.6560590369687036 0.75470957328743171 0.5 0 0 1 I I #
point $-1 -19.069306459090313 14.166827058085774 4.7693404943086621 #
loop $-1 $-1 $302 $294 #
plane-surface $-1 0 16.636127759360438 0 0 -1 0 0 0 -1 forward_v I I I I #
coedge $-1 $435 $297 $299 $439 reversed $182 $-1 #
coedge $-1 $297 $434 $549 $550 reversed $182 $-1 #
coedge $-1 $305 $300 $297 $437 forward $295 $-1 #
edge $-1 $440 -11.271710939179044 $551 -6.3331095366297241 $436 $552 forward 7 unknown #
coedge $-1 $299 $298 $443 $553 reversed $114 $-1 #
edge $-1 $554 -33.272255518720868 $440 -26.72854443123947 $434 $555 forward 7 unknown #
vertex $-1 $301 $556 #
straight-curve $-1 9.1698616436145883 11.697526356811117 6.9158708914358993 1 0 0 I I #
coedge $-1 $549 $302 $305 $447 reversed $432 $-1 #
coedge $-1 $302 $549 $438 $553 forward $432 $-1 #
vertex $-1 $303 $557 #
straight-curve $-1 11.352404319841749 16.636127759360438 43.523320495256463 0 0 1 I I #
straight-curve $-1 11.352404319841749 -8.4747620054837824 24.451374010570071 0 0.75470957328743171 -0.6560590369687036 I I #
edge $-1 $551 -25.327042254616604 $306 -11.352404319841749 $442 $558 forward 7 unknown #
point $-1 11.352404319841749 16.636127759360438 6.9158708914358984 #
point $-1 11.352404319841749 11.697526356811117 6.9158708914358975 #
edge $-1 $559 1 $559 0 $309 $-1 forward 7 unknown #
vertex $-1 $310 $560 #
ellipse-curve $-1 18.33972328722917 12.978024136853536 3.4017792005087646 0 0.6560590369687036 0.75470957328743171 0.5 0 0 1 I I #
point $-1 18.83972328722917 14.166827058085774 4.7693404943086621 #
plane-surface $-1 0 0 6.9158708914358984 0 0 1 1 0 0 forward_v I I I I #
coedge $-1 $465 $464 $457 $561 forward $314 $-1 #
coedge $-1 $457 $316 $318 $461 reversed $197 $-1 #
coedge $-1 $316 $456 $455 $561 reversed $197 $-1 #
coedge $-1 $324 $319 $316 $459 forward $325 $-1 #
edge $-1 $462 -24.671888446639734 $562 -18.338191690923797 $458 $563 forward 7 unknown #
coedge $-1 $318 $317 $465 $564 reversed $123 $-1 #
edge $-1 $565 -4.5769943418574876e-015 $462 8.2680539848831351 $456 $566 forward 7 unknown #
vertex $-1 $320 $567 #
straight-curve $-1 -0.51569557814613631 -10.302431003644498 6.9158708914358984 -1 0 0 I I #
coedge $-1 $455 $321 $324 $469 reversed $314 $-1 #
coedge $-1 $321 $455 $460 $564 forward $314 $-1 #
vertex $-1 $322 $568 #
straight-curve $-1 3.5607416700445498 -16.636127759360438 32.568321760209713 0 0 1 I I #
straight-curve $-1 3.5607416700445498 -16.636127759360434 1.6012681684117851 0 -0.76604443648966558 -0.64278761758704617 I I #
edge $-1 $562 -5.623523982629095 $326 3.5607416700445498 $464 $569 forward 7 unknown #
point $-1 3.5607416700445498 -16.636127759360438 6.9158708914358984 #
point $-1 3.5607416700445498 -10.3024310036445 6.9158708914358993 #
edge $-1 $570 1 $570 0 $329 $-1 forward 7 unknown #
vertex $-1 $330 $571 #
ellipse-curve $-1 -2.9994480818651965 -12.071436513177639 2.5926853046074032 0 -0.64278761758704617 0.76604443648966558 1 0 0 1 I I #
point $-1 -1.9994480818651965 -13.469279381502483 4.2585695299238528 #
edge $-1 $572 1 $572 0 $333 $-1 forward 7 unknown #
vertex $-1 $334 $573 #
ellipse-curve $-1 0.93666576928065126 -12.071436513177639 2.5926853046074032 0 -0.64278761758704617 0.76604443648966558 1 0 0 1 I I #
point $-1 1.9366657692806513 -13.469279381502483 4.2585695299238528 #
plane-surface $-1 0 -16.636127759360438 0 0 1 0 0 0 1 forward_v I I I I #
coedge $-1 $343 $486 $574 $575 reversed $338 $-1 #
coedge $-1 $574 $340 $341 $484 forward $219 $-1 #
coedge $-1 $340 $574 $348 $494 forward $219 $-1 #
edge $-1 $490 -13.260702900864324 $487 -4.0764372481906861 $482 $576 forward 7 unknown #
edge $-1 $488 4.0764372481906861 $351 13.260702900864324 $349 $577 forward 7 unknown #
coedge $-1 $481 $343 $493 $578 reversed $338 $-1 #
vertex $-1 $484 $579 #
vertex $-1 $485 $580 #
straight-curve $-1 3.5607416700445498 -16.636127759360434 1.6012681684117851 0 -0.76604443648966558 -0.64278761758704617 I I #
vertex $-1 $347 $581 #
straight-curve $-1 12.745007322718187 -16.636127759360434 1.6012681684117851 0 -0.76604443648966558 -0.64278761758704617 I I #
straight-curve $-1 12.745007322718187 -34.974319450284234 6.9158708914358975 0 1 0 I I #
coedge $-1 $349 $348 $486 $578 forward $350 $-1 #
edge $-1 $582 3.5607416700445498 $352 12.745007322718187 $348 $583 forward 7 unknown #
point $-1 12.745007322718187 -16.636127759360438 1.6012681684117822 #
point $-1 12.745007322718187 -16.636127759360438 6.9158708914358984 #
edge $-1 $584 1 $584 0 $354 $-1 forward 7 unknown #
vertex $-1 $355 $585 #
ellipse-curve $-1 6.1848175708084412 -12.071436513177639 2.5926853046074032 0 -0.64278761758704617 0.76604443648966558 1 0 0 1 I I #
point $-1 7.1848175708084412 -13.469279381502483 4.2585695299238528 #
edge $-1 $586 1 $586 0 $358 $-1 forward 7 unknown #
vertex $-1 $359 $587 #
ellipse-curve $-1 10.120931421954289 -12.071436513177639 2.5926853046074032 0 -0.64278761758704617 0.76604443648966558 1 0 0 1 I I #
point $-1 11.120931421954289 -13.469279381502483 4.2585695299238528 #
plane-surface $-1 41.469771416364026 0 0 -1 0 0 0 0 1 forward_v I I I I #
coedge $-1 $367 $365 $369 $510 reversed $241 $-1 #
edge $-1 $380 -6.9158708914358984 $512 6.9158708914358984 $379 $588 forward 7 unknown #
vertex $-1 $510 $589 #
straight-curve $-1 -41.469771416364026 -16.636127759360438 0 0 0 -1 I I #
edge $-1 $508 -16.636127759360438 $512 16.636127759360438 $506 $590 forward 7 unknown #
straight-curve $-1 0 -16.636127759360438 -6.9158708914358984 -1 0 0 I I #
vertex $-1 $372 $591 #
straight-curve $-1 0 16.636127759360438 -6.9158708914358984 1 0 0 I I #
point $-1 41.469771416364026 16.636127759360438 -6.9158708914358984 #
point $-1 41.469771416364026 -16.636127759360438 -6.9158708914358984 #
straight-curve $-1 -41.469771416364026 0 6.9158708914358984 0 -1 0 I I #
point $-1 -41.469771416364026 16.636127759360438 6.9158708914358984 #
point $-1 -41.469771416364026 -16.636127759360438 6.9158708914358984 #
straight-curve $-1 41.469771416364026 -16.636127759360438 0 0 0 -1 I I #
straight-curve $-1 41.469771416364026 16.636127759360438 0 0 0 -1 I I #
plane-surface $-1 0 -16.636127759360438 0 0 1 0 0 0 1 forward_v I I I I #
coedge $-1 $592 $392 $402 $533 reversed $260 $-1 #
coedge $-1 $392 $592 $405 $535 forward $260 $-1 #
coedge $-1 $593 $395 $393 $525 forward $390 $-1 #
edge $-1 $526 34.34828807627494 $594 41.469771416364026 $393 $595 forward 7 unknown #
vertex $-1 $525 $596 #
straight-curve $-1 -34.34828807627494 16.636127759360438 2.5240385455781449 0 0 -1 I I #
coedge $-1 $395 $593 $397 $530 forward $390 $-1 #
straight-curve $-1 -34.34828807627494 0 6.9158708914358984 0 1 0 I I #
edge $-1 $597 -41.469771416364026 $399 -34.34828807627494 $397 $598 forward 7 unknown #
point $-1 -34.34828807627494 -16.636127759360438 6.9158708914359002 #
straight-curve $-1 -41.469771416364026 0 3.1802832908766794 0 -1 0 I I #
edge $-1 $597 -6.9158708914358984 $403 -3.1802832908766794 $522 $599 forward 7 unknown #
point $-1 -41.469771416364026 -16.636127759360438 3.1802832908766794 #
edge $-1 $594 -6.9158708914358984 $406 -3.1802832908766794 $405 $600 forward 7 unknown #
point $-1 -41.469771416364026 16.636127759360438 3.1802832908766794 #
coedge $-1 $421 $420 $413 $538 forward $410 $-1 #
edge $-1 $539 36.607449603820562 $542 40.900510398075042 $537 $601 forward 7 unknown #
vertex $-1 $425 $602 #
straight-curve $-1 -12.581987491702883 22.969237295990162 6.9158708914359011 0 1 0 I I #
edge $-1 $542 2.7973342621577277 $422 16.77197219693258 $421 $603 forward 7 unknown #
vertex $-1 $541 $604 #
straight-curve $-1 -12.581987491702883 -8.4747620054837824 24.451374010570071 0 -0.75470957328743171 0.6560590369687036 I I #
point $-1 -12.581987491702883 11.697526356811117 6.9158708914358975 #
point $-1 -26.556625426477737 16.636127759360438 2.622810097181425 #
straight-curve $-1 0 16.636127759360438 6.9158708914358984 -1 0 0 I I #
vertex $-1 $428 $605 #
point $-1 -19.069306459090313 12.978024136853536 3.4017792005087646 #
coedge $-1 $443 $442 $435 $550 forward $432 $-1 #
edge $-1 $551 36.607449603820562 $554 40.900510398075042 $549 $606 forward 7 unknown #
vertex $-1 $447 $607 #
straight-curve $-1 25.327042254616604 22.969237295990162 6.9158708914359011 0 1 0 I I #
edge $-1 $554 -16.157180611002016 $444 -2.1825426762271611 $443 $608 forward 7 unknown #
vertex $-1 $553 $609 #
straight-curve $-1 25.327042254616604 -8.4747620054837824 24.451374010570071 0 -0.75470957328743171 0.6560590369687036 I I #
point $-1 25.327042254616604 11.697526356811117 6.9158708914358975 #
point $-1 11.352404319841749 16.636127759360438 2.622810097181425 #
straight-curve $-1 0 16.636127759360438 6.9158708914358984 -1 0 0 I I #
vertex $-1 $450 $610 #
point $-1 18.83972328722917 12.978024136853536 3.4017792005087646 #
edge $-1 $562 25.652450868773816 $565 30.967053591797931 $455 $611 forward 7 unknown #
vertex $-1 $469 $612 #
straight-curve $-1 -5.623523982629095 -34.974319450284234 6.9158708914358975 0 -1 0 I I #
edge $-1 $565 -5.1078284044829587 $466 4.0764372481906861 $465 $613 forward 7 unknown #
vertex $-1 $564 $614 #
straight-curve $-1 -5.623523982629095 -16.636127759360434 1.6012681684117851 0 0.76604443648966558 0.64278761758704617 I I #
point $-1 -5.623523982629095 -10.3024310036445 6.9158708914358993 #
point $-1 3.5607416700445498 -16.636127759360438 1.6012681684117822 #
straight-curve $-1 0 -16.636127759360438 6.9158708914358984 1 0 0 I I #
vertex $-1 $472 $615 #
point $-1 -1.9994480818651965 -12.071436513177639 2.5926853046074032 #
vertex $-1 $476 $616 #
point $-1 1.9366657692806513 -12.071436513177639 2.5926853046074032 #
coedge $-1 $483 $482 $481 $575 forward $219 $-1 #
edge $-1 $487 -24.671888446639734 $582 -18.338191690923797 $574 $617 forward 7 unknown #
straight-curve $-1 -0.51569557814613631 -10.302431003644498 6.9158708914358984 -1 0 0 I I #
straight-curve $-1 -0.51569557814613631 -16.636127759360438 1.601268168411782 1 0 0 I I #
edge $-1 $582 25.652450868773816 $488 30.967053591797931 $493 $618 forward 7 unknown #
point $-1 3.5607416700445498 -10.3024310036445 6.9158708914358993 #
point $-1 3.5607416700445498 -16.636127759360438 1.6012681684117822 #
point $-1 12.745007322718187 -10.3024310036445 6.9158708914358993 #
vertex $-1 $494 $619 #
straight-curve $-1 0 -16.636127759360438 6.9158708914358984 1 0 0 I I #
vertex $-1 $497 $620 #
point $-1 7.1848175708084412 -12.071436513177639 2.5926853046074032 #
vertex $-1 $501 $621 #
point $-1 11.120931421954289 -12.071436513177639 2.5926853046074032 #
straight-curve $-1 -41.469771416364026 16.636127759360438 0 0 0 -1 I I #
point $-1 -41.469771416364026 -16.636127759360438 -6.9158708914358984 #
straight-curve $-1 -41.469771416364026 0 -6.9158708914358984 0 1 0 I I #
point $-1 -41.469771416364026 16.636127759360438 -6.9158708914358984 #
coedge $-1 $523 $522 $593 $622 reversed $260 $-1 #
coedge $-1 $528 $524 $592 $622 forward $390 $-1 #
vertex $-1 $525 $623 #
straight-curve $-1 0 16.636127759360438 6.9158708914358984 -1 0 0 I I #
point $-1 -34.34828807627494 16.636127759360438 6.9158708914359002 #
vertex $-1 $622 $624 #
straight-curve $-1 0 -16.636127759360438 6.9158708914358984 1 0 0 I I #
straight-curve $-1 -41.469771416364026 -16.636127759360438 0 0 0 -1 I I #
straight-curve $-1 -41.469771416364026 16.636127759360438 0 0 0 -1 I I #
straight-curve $-1 -12.581987491702883 16.636127759360438 43.523320495256463 0 0 -1 I I #
point $-1 -12.581987491702883 16.636127759360438 6.9158708914358984 #
straight-curve $-1 -9.7846532295451549 16.636127759360438 2.6228100971814232 -1 0 0 I I #
point $-1 -12.581987491702883 16.636127759360438 2.622810097181425 #
point $-1 -19.569306459090313 12.649994618369183 3.0244244138650487 #
straight-curve $-1 25.327042254616604 16.636127759360438 43.523320495256463 0 0 -1 I I #
point $-1 25.327042254616604 16.636127759360438 6.9158708914358984 #
straight-curve $-1 9.1698616436145883 16.636127759360438 2.6228100971814232 -1 0 0 I I #
point $-1 25.327042254616604 16.636127759360438 2.622810097181425 #
point $-1 18.33972328722917 12.649994618369183 3.0244244138650487 #
straight-curve $-1 -5.623523982629095 -16.636127759360438 32.568321760209713 0 0 -1 I I #
point $-1 -5.623523982629095 -16.636127759360438 6.9158708914358984 #
straight-curve $-1 -0.51569557814613631 -16.636127759360438 1.601268168411782 1 0 0 I I #
point $-1 -5.623523982629095 -16.636127759360438 1.6012681684117822 #
point $-1 -2.9994480818651965 -11.428648895590593 1.8266408681177375 #
point $-1 0.93666576928065126 -11.428648895590593 1.8266408681177375 #
straight-curve $-1 3.5607416700445498 -34.974319450284234 6.9158708914358975 0 -1 0 I I #
straight-curve $-1 3.5607416700445498 -16.636127759360438 32.568321760209713 0 0 -1 I I #
point $-1 3.5607416700445498 -16.636127759360438 6.9158708914358984 #
point $-1 6.1848175708084412 -11.428648895590593 1.8266408681177375 #
point $-1 10.120931421954289 -11.428648895590593 1.8266408681177375 #
edge $-1 $594 -16.636127759360438 $597 16.636127759360438 $592 $625 forward 7 unknown #
point $-1 -41.469771416364026 16.636127759360438 6.9158708914358984 #
point $-1 -41.469771416364026 -16.636127759360438 6.9158708914358984 #
straight-curve $-1 -41.469771416364026 0 6.9158708914358984 0 -1 0 I I #
End-of-ACIS-data 