500 0 12 0           
7 Unknown 11 ACIS 5.0 NT 24 Fri Mar 26 01:27:55 1999 
-1 9.9999999999999995e-007 1e-010 
body $-1 $12 $-1 $13 #
body $-1 $14 $-1 $15 #
body $-1 $16 $-1 $17 #
body $-1 $18 $-1 $19 #
body $-1 $20 $-1 $21 #
body $-1 $22 $-1 $23 #
body $-1 $24 $-1 $25 #
body $-1 $26 $-1 $27 #
body $-1 $28 $-1 $29 #
body $-1 $30 $-1 $31 #
body $-1 $32 $-1 $33 #
body $-1 $34 $-1 $35 #
lump $-1 $-1 $36 $0 #
transform $-1 1 0 0 0 1 0 0 0 1 42.313303018280585 22.418289652664576 8.9838044251891631 1 rotate no_reflect no_shear #
lump $-1 $-1 $37 $1 #
transform $-1 1 0 0 0 1 0 0 0 1 42.313303018280585 22.418289652664576 8.9838044251891631 1 rotate no_reflect no_shear #
lump $-1 $-1 $38 $2 #
transform $-1 1 0 0 0 1 0 0 0 1 42.313303018280585 22.418289652664576 8.9838044251891631 1 rotate no_reflect no_shear #
lump $-1 $-1 $39 $3 #
transform $-1 1 0 0 0 1 0 0 0 1 42.313303018280585 22.418289652664576 8.9838044251891631 1 rotate no_reflect no_shear #
lump $-1 $-1 $40 $4 #
transform $-1 1 0 0 0 1 0 0 0 1 42.313303018280585 22.418289652664576 8.9838044251891631 1 rotate no_reflect no_shear #
lump $-1 $-1 $41 $5 #
transform $-1 1 0 0 0 1 0 0 0 1 42.313303018280585 22.418289652664576 8.9838044251891631 1 rotate no_reflect no_shear #
lump $-1 $-1 $42 $6 #
transform $-1 1 0 0 0 1 0 0 0 1 42.313303018280585 22.418289652664576 8.9838044251891631 1 rotate no_reflect no_shear #
lump $-1 $-1 $43 $7 #
transform $-1 1 0 0 0 1 0 0 0 1 42.313303018280585 22.418289652664576 8.9838044251891631 1 rotate no_reflect no_shear #
lump $-1 $-1 $44 $8 #
transform $-1 1 0 0 0 1 0 0 0 1 42.313303018280585 22.418289652664576 8.9838044251891631 1 rotate no_reflect no_shear #
lump $-1 $-1 $45 $9 #
transform $-1 1 0 0 0 1 0 0 0 1 42.313303018280585 22.418289652664576 8.9838044251891631 1 rotate no_reflect no_shear #
lump $-1 $-1 $46 $10 #
transform $-1 1 0 0 0 1 0 0 0 1 42.313303018280585 22.418289652664576 8.9838044251891631 1 rotate no_reflect no_shear #
lump $-1 $-1 $47 $11 #
transform $-1 1 0 0 0 1 0 0 0 1 42.313303018280585 22.418289652664576 8.9838044251891631 1 rotate no_reflect no_shear #
shell $-1 $-1 $-1 $48 $-1 $12 #
shell $-1 $-1 $-1 $49 $-1 $14 #
shell $-1 $-1 $-1 $50 $-1 $16 #
shell $-1 $-1 $-1 $51 $-1 $18 #
shell $-1 $-1 $-1 $52 $-1 $20 #
shell $-1 $-1 $-1 $53 $-1 $22 #
shell $-1 $-1 $-1 $54 $-1 $24 #
shell $-1 $-1 $-1 $55 $-1 $26 #
shell $-1 $-1 $-1 $56 $-1 $28 #
shell $-1 $-1 $-1 $57 $-1 $30 #
shell $-1 $-1 $-1 $58 $-1 $32 #
shell $-1 $-1 $-1 $59 $-1 $34 #
face $-1 $60 $61 $36 $-1 $62 forward single #
face $-1 $63 $64 $37 $-1 $65 forward single #
face $-1 $66 $67 $38 $-1 $68 forward single #
face $-1 $69 $70 $39 $-1 $71 reversed single #
face $-1 $72 $73 $40 $-1 $74 forward single #
face $-1 $75 $76 $41 $-1 $77 forward single #
face $-1 $78 $79 $42 $-1 $80 reversed single #
face $-1 $81 $82 $43 $-1 $83 forward single #
face $-1 $84 $85 $44 $-1 $86 forward single #
face $-1 $87 $88 $45 $-1 $89 reversed single #
face $-1 $90 $91 $46 $-1 $92 forward single #
face $-1 $93 $94 $47 $-1 $95 forward single #
face $-1 $96 $97 $36 $-1 $98 reversed single #
loop $-1 $-1 $99 $48 #
plane-surface $-1 0 0 8.9838044251891631 0 0 1 1 0 0 forward_v I I I I #
face $-1 $100 $101 $37 $-1 $102 reversed single #
loop $-1 $-1 $103 $49 #
plane-surface $-1 -36.923234217577061 0 -1.9219475548966289 0 0 1 1 0 0 forward_v I I I I #
face $-1 $104 $105 $38 $-1 $106 reversed single #
loop $-1 $-1 $107 $50 #
plane-surface $-1 36.923234217577054 0 -1.9219475548966289 0 0 1 1 0 0 forward_v I I I I #
face $-1 $108 $109 $39 $-1 $110 reversed single #
loop $-1 $-1 $111 $51 #
plane-surface $-1 -18.577898262586331 27.571765020413125 100.53606148108382 -1 0 0 0 0.51503808176128008 0.85716729658548041 forward_v I I I I #
face $-1 $112 $113 $40 $-1 $114 forward single #
loop $-1 $115 $116 $52 #
cone-surface $-1 -24.45604026839035 18.766099988697373 6.5154968479848172 0 -0.51503808176128008 -0.85716729658548041 0.5 0 0 1 I I 0 1 0.5 forward I I I I #
face $-1 $117 $118 $41 $-1 $119 forward single #
loop $-1 $120 $121 $53 #
cone-surface $-1 -20.929155064907938 18.766099988697373 6.5154968479848172 0 -0.51503808176128008 -0.85716729658548041 0.5 0 0 1 I I 0 1 0.5 forward I I I I #
face $-1 $122 $123 $42 $-1 $124 reversed single #
loop $-1 $-1 $125 $54 #
plane-surface $-1 12.955267154287206 27.571765020413125 100.53606148108382 -1 0 0 0 0.51503808176128008 0.85716729658548041 forward_v I I I I #
face $-1 $126 $127 $43 $-1 $128 forward single #
loop $-1 $129 $130 $55 #
cone-surface $-1 7.0771251484831836 18.766099988697373 6.5154968479848172 0 -0.51503808176128008 -0.85716729658548041 0.5 0 0 1 I I 0 1 0.5 forward I I I I #
face $-1 $131 $132 $44 $-1 $133 forward single #
loop $-1 $134 $135 $56 #
cone-surface $-1 10.604010351965599 18.766099988697373 6.5154968479848172 0 -0.51503808176128008 -0.85716729658548041 0.5 0 0 1 I I 0 1 0.5 forward I I I I #
face $-1 $136 $137 $45 $-1 $138 reversed single #
loop $-1 $-1 $139 $57 #
plane-surface $-1 -0.91917301534348539 -67.263559050244169 77.380158867218768 1 0 0 0 0.52991927123019833 -0.84804809178421925 forward_v I I I I #
face $-1 $140 $141 $46 $-1 $142 forward single #
loop $-1 $143 $144 $58 #
cone-surface $-1 3.7253249210711488 -19.328910998455157 6.6710098804192866 0 0.52991927123019833 -0.84804809178421925 1 0 0 1 I I 0 1 1 forward I I I I #
face $-1 $145 $146 $47 $-1 $147 forward single #
loop $-1 $148 $149 $59 #
cone-surface $-1 10.692071825693105 -19.328910998455157 6.6710098804192866 0 0.52991927123019833 -0.84804809178421925 1 0 0 1 I I 0 1 1 forward I I I I #
face $-1 $150 $151 $36 $-1 $152 reversed single #
loop $-1 $-1 $153 $60 #
plane-surface $-1 0 0 -8.9838044251891631 0 0 1 1 0 0 forward_v I I I I #
coedge $-1 $154 $155 $156 $157 forward $61 $-1 #
face $-1 $158 $159 $37 $-1 $160 reversed single #
loop $-1 $-1 $161 $63 #
plane-surface $-1 -36.923234217577061 0 -6.1964585345821099 0 0 1 1 0 0 forward_v I I I I #
coedge $-1 $162 $163 $164 $165 forward $64 $-1 #
face $-1 $166 $167 $38 $-1 $168 reversed single #
loop $-1 $-1 $169 $66 #
plane-surface $-1 36.923234217577054 0 -6.1964585345821099 0 0 1 1 0 0 forward_v I I I I #
coedge $-1 $170 $171 $172 $173 reversed $67 $-1 #
face $-1 $174 $175 $39 $-1 $176 reversed single #
loop $-1 $-1 $177 $69 #
plane-surface $-1 -22.692597666649142 -16.014159818624897 27.996902365520199 0 0.51503808176128008 0.85716729658548041 1 0 0 forward_v I I I I #
coedge $-1 $178 $179 $180 $181 reversed $70 $-1 #
face $-1 $-1 $182 $40 $-1 $183 forward single #
loop $-1 $184 $185 $72 #
cone-surface $-1 -24.45604026839035 18.379821427376413 5.8726213755457071 0 -0.51503808176128008 -0.85716729658548041 0.25 0 0 1 I I -0.70710678118654746 0.70710678118654746 0.25 forward I I I I #
loop $-1 $-1 $186 $52 #
coedge $-1 $116 $116 $187 $188 reversed $73 $-1 #
face $-1 $-1 $189 $41 $-1 $190 forward single #
loop $-1 $191 $192 $75 #
cone-surface $-1 -20.929155064907938 18.379821427376413 5.8726213755457071 0 -0.51503808176128008 -0.85716729658548041 0.25 0 0 1 I I -0.70710678118654746 0.70710678118654746 0.25 forward I I I I #
loop $-1 $-1 $193 $53 #
coedge $-1 $121 $121 $194 $195 reversed $76 $-1 #
face $-1 $196 $197 $42 $-1 $198 reversed single #
loop $-1 $-1 $199 $78 #
plane-surface $-1 8.8405677502243947 -16.014159818624897 27.996902365520199 0 0.51503808176128008 0.85716729658548041 1 0 0 forward_v I I I I #
coedge $-1 $200 $201 $202 $203 reversed $79 $-1 #
face $-1 $-1 $204 $43 $-1 $205 forward single #
loop $-1 $206 $207 $81 #
cone-surface $-1 7.0771251484831836 18.379821427376413 5.8726213755457071 0 -0.51503808176128008 -0.85716729658548041 0.25 0 0 1 I I -0.70710678118654746 0.70710678118654746 0.25 forward I I I I #
loop $-1 $-1 $208 $55 #
coedge $-1 $130 $130 $209 $210 reversed $82 $-1 #
face $-1 $-1 $211 $44 $-1 $212 forward single #
loop $-1 $213 $214 $84 #
cone-surface $-1 10.604010351965599 18.379821427376413 5.8726213755457071 0 -0.51503808176128008 -0.85716729658548041 0.25 0 0 1 I I -0.70710678118654746 0.70710678118654746 0.25 forward I I I I #
loop $-1 $-1 $215 $56 #
coedge $-1 $135 $135 $216 $217 reversed $85 $-1 #
face $-1 $218 $219 $45 $-1 $220 reversed single #
loop $-1 $-1 $221 $87 #
plane-surface $-1 7.208698373382127 -22.418289652664576 5.6127271037381945 0 -0.52991927123019833 0.84804809178421925 1 0 0 forward_v I I I I #
coedge $-1 $222 $223 $224 $225 reversed $88 $-1 #
face $-1 $-1 $226 $46 $-1 $227 forward single #
loop $-1 $228 $229 $90 #
cone-surface $-1 3.7253249210711488 -18.671998377899872 5.6197299504827924 0 0.52991927123019833 -0.84804809178421925 0.5 0 0 1 I I -0.70710678118654746 0.70710678118654746 0.5 forward I I I I #
loop $-1 $-1 $230 $58 #
coedge $-1 $144 $144 $231 $232 reversed $91 $-1 #
face $-1 $-1 $233 $47 $-1 $234 forward single #
loop $-1 $235 $236 $93 #
cone-surface $-1 10.692071825693105 -18.671998377899872 5.6197299504827924 0 0.52991927123019833 -0.84804809178421925 0.5 0 0 1 I I -0.70710678118654746 0.70710678118654746 0.5 forward I I I I #
loop $-1 $-1 $237 $59 #
coedge $-1 $149 $149 $238 $239 reversed $94 $-1 #
face $-1 $240 $241 $36 $-1 $242 reversed single #
loop $-1 $-1 $243 $96 #
plane-surface $-1 0 -22.418289652664576 0 0 1 0 0 0 1 forward_v I I I I #
coedge $-1 $244 $245 $246 $247 forward $97 $-1 #
coedge $-1 $248 $99 $249 $250 forward $61 $-1 #
coedge $-1 $99 $248 $251 $252 forward $61 $-1 #
coedge $-1 $253 $254 $99 $157 reversed $255 $-1 #
edge $-1 $256 -22.418289652664576 $257 22.418289652664576 $156 $258 forward 7 unknown #
face $-1 $259 $260 $37 $-1 $261 reversed single #
loop $-1 $-1 $262 $100 #
plane-surface $-1 -31.533165416873537 0 -4.0592030447393697 -1 0 0 0 0 1 forward_v I I I I #
coedge $-1 $263 $264 $265 $266 forward $101 $-1 #
coedge $-1 $267 $103 $268 $269 reversed $64 $-1 #
coedge $-1 $103 $267 $270 $271 reversed $64 $-1 #
coedge $-1 $262 $272 $103 $165 reversed $159 $-1 #
edge $-1 $273 -22.418289652664576 $274 22.418289652664576 $164 $275 forward 7 unknown #
face $-1 $276 $277 $38 $-1 $278 reversed single #
loop $-1 $-1 $279 $104 #
plane-surface $-1 31.53316541687353 0 -4.0592030447393697 1 0 0 0 0 -1 forward_v I I I I #
coedge $-1 $280 $281 $282 $283 reversed $105 $-1 #
coedge $-1 $284 $107 $285 $286 reversed $67 $-1 #
coedge $-1 $107 $284 $287 $288 reversed $67 $-1 #
coedge $-1 $289 $290 $107 $173 forward $291 $-1 #
edge $-1 $292 -22.418289652664576 $293 22.418289652664576 $172 $294 forward 7 unknown #
face $-1 $295 $296 $39 $-1 $297 reversed single #
loop $-1 $-1 $298 $108 #
plane-surface $-1 -26.807297070711954 27.571765020413125 100.53606148108382 1 0 0 0 -0.51503808176128008 -0.85716729658548041 forward_v I I I I #
coedge $-1 $299 $300 $301 $302 reversed $109 $-1 #
coedge $-1 $179 $111 $303 $304 reversed $70 $-1 #
coedge $-1 $111 $178 $299 $305 reversed $70 $-1 #
coedge $-1 $301 $306 $111 $181 forward $296 $-1 #
edge $-1 $307 41.284226315352747 $308 45.363674173175937 $180 $309 forward 7 unknown #
loop $-1 $-1 $187 $112 #
plane-surface $-1 -22.692597666649142 -16.014159818624897 27.996902365520199 0 0.51503808176128008 0.85716729658548041 1 0 0 forward_v I I I I #
loop $-1 $-1 $310 $72 #
coedge $-1 $185 $185 $186 $311 reversed $113 $-1 #
coedge $-1 $186 $186 $185 $311 forward $115 $-1 #
coedge $-1 $187 $187 $116 $188 forward $182 $-1 #
edge $-1 $312 3.3720742061012723e-015 $312 6.283185307179604 $187 $313 forward 7 unknown #
loop $-1 $-1 $194 $117 #
plane-surface $-1 -22.692597666649142 -16.014159818624897 27.996902365520199 0 0.51503808176128008 0.85716729658548041 1 0 0 forward_v I I I I #
loop $-1 $-1 $314 $75 #
coedge $-1 $192 $192 $193 $315 reversed $118 $-1 #
coedge $-1 $193 $193 $192 $315 forward $120 $-1 #
coedge $-1 $194 $194 $121 $195 forward $189 $-1 #
edge $-1 $316 3.3720742061012723e-015 $316 6.283185307179604 $194 $317 forward 7 unknown #
face $-1 $318 $319 $42 $-1 $320 forward single #
loop $-1 $-1 $321 $122 #
plane-surface $-1 4.7258683461615822 27.571765020413125 100.53606148108382 1 0 0 0 -0.51503808176128008 -0.85716729658548041 forward_v I I I I #
coedge $-1 $322 $323 $324 $325 reversed $123 $-1 #
coedge $-1 $201 $125 $326 $327 reversed $79 $-1 #
coedge $-1 $125 $200 $322 $328 reversed $79 $-1 #
coedge $-1 $324 $329 $125 $203 forward $330 $-1 #
edge $-1 $331 41.284226315352747 $332 45.363674173175937 $202 $333 forward 7 unknown #
loop $-1 $-1 $209 $126 #
plane-surface $-1 8.8405677502243947 -16.014159818624897 27.996902365520199 0 0.51503808176128008 0.85716729658548041 1 0 0 forward_v I I I I #
loop $-1 $-1 $334 $81 #
coedge $-1 $207 $207 $208 $335 reversed $127 $-1 #
coedge $-1 $208 $208 $207 $335 forward $129 $-1 #
coedge $-1 $209 $209 $130 $210 forward $204 $-1 #
edge $-1 $336 3.3720742061012723e-015 $336 6.283185307179604 $209 $337 forward 7 unknown #
loop $-1 $-1 $216 $131 #
plane-surface $-1 8.8405677502243947 -16.014159818624897 27.996902365520199 0 0.51503808176128008 0.85716729658548041 1 0 0 forward_v I I I I #
loop $-1 $-1 $338 $84 #
coedge $-1 $214 $214 $215 $339 reversed $132 $-1 #
coedge $-1 $215 $215 $214 $339 forward $134 $-1 #
coedge $-1 $216 $216 $135 $217 forward $211 $-1 #
edge $-1 $340 3.3720742061012723e-015 $340 6.283185307179604 $216 $341 forward 7 unknown #
face $-1 $342 $343 $45 $-1 $344 forward single #
loop $-1 $-1 $345 $136 #
plane-surface $-1 15.336569762107739 -67.263559050244169 77.380158867218768 -1 0 0 0 -0.52991927123019833 0.84804809178421925 forward_v I I I I #
coedge $-1 $346 $347 $348 $349 reversed $137 $-1 #
coedge $-1 $223 $139 $350 $351 reversed $88 $-1 #
coedge $-1 $139 $222 $346 $352 reversed $88 $-1 #
coedge $-1 $348 $353 $139 $225 forward $354 $-1 #
edge $-1 $355 29.706275008420221 $356 33.077352329871189 $224 $357 forward 7 unknown #
loop $-1 $-1 $231 $140 #
plane-surface $-1 7.208698373382127 -22.418289652664576 5.6127271037381945 0 -0.52991927123019833 0.84804809178421925 1 0 0 forward_v I I I I #
loop $-1 $-1 $358 $90 #
coedge $-1 $229 $229 $230 $359 reversed $141 $-1 #
coedge $-1 $230 $230 $229 $359 forward $143 $-1 #
coedge $-1 $231 $231 $144 $232 forward $226 $-1 #
edge $-1 $360 -9.2873079643517867e-017 $360 6.2831853071796004 $231 $361 forward 7 unknown #
loop $-1 $-1 $238 $145 #
plane-surface $-1 7.208698373382127 -22.418289652664576 5.6127271037381945 0 -0.52991927123019833 0.84804809178421925 1 0 0 forward_v I I I I #
loop $-1 $-1 $362 $93 #
coedge $-1 $236 $236 $237 $363 reversed $146 $-1 #
coedge $-1 $237 $237 $236 $363 forward $148 $-1 #
coedge $-1 $238 $238 $149 $239 forward $233 $-1 #
edge $-1 $364 -9.2873079643517867e-017 $364 6.2831853071796004 $238 $365 forward 7 unknown #
face $-1 $366 $367 $36 $-1 $368 reversed single #
loop $-1 $-1 $369 $150 #
plane-surface $-1 -42.313303018280585 0 0 1 0 0 0 0 -1 forward_v I I I I #
coedge $-1 $370 $251 $371 $372 forward $151 $-1 #
coedge $-1 $373 $153 $370 $374 forward $97 $-1 #
coedge $-1 $153 $373 $375 $376 forward $97 $-1 #
coedge $-1 $254 $253 $153 $247 reversed $255 $-1 #
edge $-1 $377 -22.418289652664576 $378 22.418289652664576 $246 $379 forward 7 unknown #
coedge $-1 $155 $154 $380 $381 forward $61 $-1 #
coedge $-1 $382 $383 $154 $250 reversed $367 $-1 #
edge $-1 $257 -42.313303018280585 $384 42.313303018280585 $249 $385 forward 7 unknown #
coedge $-1 $243 $386 $155 $252 reversed $151 $-1 #
edge $-1 $387 -42.313303018280585 $256 42.313303018280585 $251 $388 forward 7 unknown #
coedge $-1 $246 $156 $386 $389 forward $255 $-1 #
coedge $-1 $156 $246 $382 $390 reversed $255 $-1 #
loop $-1 $-1 $253 $366 #
vertex $-1 $157 $391 #
vertex $-1 $157 $392 #
straight-curve $-1 42.313303018280585 0 8.9838044251891631 0 1 0 I I #
face $-1 $393 $394 $37 $-1 $395 reversed single #
loop $-1 $-1 $396 $158 #
plane-surface $-1 0 -22.418289652664576 0 0 1 0 0 0 1 forward_v I I I I #
coedge $-1 $265 $164 $397 $398 reversed $159 $-1 #
coedge $-1 $399 $161 $396 $400 reversed $101 $-1 #
coedge $-1 $161 $399 $401 $402 reversed $101 $-1 #
coedge $-1 $272 $262 $161 $266 reversed $159 $-1 #
edge $-1 $403 -22.418289652664576 $404 22.418289652664576 $265 $405 forward 7 unknown #
coedge $-1 $163 $162 $406 $407 reversed $64 $-1 #
coedge $-1 $408 $409 $162 $269 forward $410 $-1 #
edge $-1 $411 -23.851685909492055 $274 -13.071548308085006 $268 $412 forward 7 unknown #
coedge $-1 $413 $397 $163 $271 forward $260 $-1 #
edge $-1 $273 13.071548308085006 $414 23.851685909492055 $270 $415 forward 7 unknown #
coedge $-1 $164 $265 $408 $416 reversed $159 $-1 #
vertex $-1 $271 $417 #
vertex $-1 $269 $418 #
straight-curve $-1 -31.533165416873537 0 -1.9219475548966289 0 1 0 I I #
face $-1 $419 $420 $38 $-1 $421 reversed single #
loop $-1 $-1 $287 $166 #
plane-surface $-1 0 -22.418289652664576 0 0 1 0 0 0 1 forward_v I I I I #
coedge $-1 $422 $423 $424 $425 reversed $167 $-1 #
coedge $-1 $426 $169 $427 $428 reversed $105 $-1 #
coedge $-1 $169 $426 $429 $430 reversed $105 $-1 #
coedge $-1 $290 $289 $169 $283 forward $291 $-1 #
edge $-1 $431 -22.418289652664576 $432 22.418289652664576 $282 $433 forward 7 unknown #
coedge $-1 $171 $170 $423 $434 forward $67 $-1 #
coedge $-1 $435 $424 $170 $286 forward $420 $-1 #
edge $-1 $436 13.071548308085003 $292 23.851685909492051 $285 $437 forward 7 unknown #
coedge $-1 $438 $439 $171 $288 forward $277 $-1 #
edge $-1 $293 -23.851685909492051 $440 -13.071548308085003 $287 $441 forward 7 unknown #
coedge $-1 $282 $172 $439 $442 forward $291 $-1 #
coedge $-1 $172 $282 $435 $443 reversed $291 $-1 #
loop $-1 $-1 $172 $419 #
vertex $-1 $443 $444 #
vertex $-1 $442 $445 #
straight-curve $-1 42.313303018280585 0 -1.9219475548966289 0 -1 0 I I #
face $-1 $-1 $446 $39 $-1 $447 forward single #
loop $-1 $-1 $180 $174 #
plane-surface $-1 0 22.418289652664576 0 0 -1 0 0 0 -1 forward_v I I I I #
coedge $-1 $448 $449 $450 $451 reversed $175 $-1 #
coedge $-1 $452 $177 $179 $305 forward $109 $-1 #
coedge $-1 $177 $452 $448 $453 forward $109 $-1 #
coedge $-1 $450 $180 $177 $302 forward $296 $-1 #
edge $-1 $308 7.2315994292617596 $454 15.460998237387383 $301 $455 forward 7 unknown #
coedge $-1 $456 $457 $178 $304 forward $446 $-1 #
edge $-1 $458 1.8430658962849087 $307 8.632407142458014 $303 $459 forward 7 unknown #
edge $-1 $308 -44.836579305329131 $458 -36.91590702441222 $179 $460 forward 7 unknown #
coedge $-1 $180 $450 $456 $461 reversed $296 $-1 #
vertex $-1 $461 $462 #
vertex $-1 $181 $463 #
straight-curve $-1 -18.577898262586331 22.418289652664576 50.26803074054191 0 0 -1 I I #
coedge $-1 $310 $310 $-1 $464 reversed $184 $-1 #
edge $-1 $465 0 $465 6.2831853071796004 $185 $466 forward 7 unknown #
vertex $-1 $188 $467 #
ellipse-curve $-1 -24.45604026839035 19.023619029578022 6.9440804962775724 0 0.51503808176128008 0.85716729658548041 0.5 0 0 1 I I #
coedge $-1 $314 $314 $-1 $468 reversed $191 $-1 #
edge $-1 $469 0 $469 6.2831853071796004 $192 $470 forward 7 unknown #
vertex $-1 $195 $471 #
ellipse-curve $-1 -20.929155064907938 19.023619029578022 6.9440804962775724 0 0.51503808176128008 0.85716729658548041 0.5 0 0 1 I I #
face $-1 $-1 $330 $42 $-1 $472 reversed single #
loop $-1 $-1 $473 $196 #
plane-surface $-1 0 0 8.9838044251891631 0 0 1 1 0 0 forward_v I I I I #
coedge $-1 $474 $475 $476 $477 reversed $197 $-1 #
coedge $-1 $478 $199 $201 $328 forward $123 $-1 #
coedge $-1 $199 $478 $474 $479 forward $123 $-1 #
coedge $-1 $476 $202 $199 $325 forward $330 $-1 #
edge $-1 $332 -8.5349832791750089 $480 -0.30558447104938491 $324 $481 forward 7 unknown #
coedge $-1 $482 $483 $200 $327 forward $319 $-1 #
edge $-1 $484 1.8430658962849087 $331 8.632407142458014 $326 $485 forward 7 unknown #
edge $-1 $332 -44.836579305329131 $484 -36.91590702441222 $201 $486 forward 7 unknown #
coedge $-1 $202 $476 $482 $487 reversed $330 $-1 #
loop $-1 $-1 $476 $318 #
vertex $-1 $487 $488 #
vertex $-1 $203 $489 #
straight-curve $-1 12.955267154287206 22.418289652664576 50.26803074054191 0 0 -1 I I #
coedge $-1 $334 $334 $-1 $490 reversed $206 $-1 #
edge $-1 $491 0 $491 6.2831853071796004 $207 $492 forward 7 unknown #
vertex $-1 $210 $493 #
ellipse-curve $-1 7.0771251484831836 19.023619029578022 6.9440804962775724 0 0.51503808176128008 0.85716729658548041 0.5 0 0 1 I I #
coedge $-1 $338 $338 $-1 $494 reversed $213 $-1 #
edge $-1 $495 0 $495 6.2831853071796004 $214 $496 forward 7 unknown #
vertex $-1 $217 $497 #
ellipse-curve $-1 10.604010351965599 19.023619029578022 6.9440804962775724 0 0.51503808176128008 0.85716729658548041 0.5 0 0 1 I I #
face $-1 $-1 $354 $45 $-1 $498 reversed single #
loop $-1 $-1 $499 $218 #
plane-surface $-1 0 0 8.9838044251891631 0 0 1 1 0 0 forward_v I I I I #
coedge $-1 $500 $501 $502 $503 reversed $219 $-1 #
coedge $-1 $504 $221 $223 $352 forward $137 $-1 #
coedge $-1 $221 $504 $500 $505 forward $137 $-1 #
coedge $-1 $502 $224 $221 $349 forward $354 $-1 #
edge $-1 $356 -4.5235222020345489 $506 11.732220575416676 $348 $507 forward 7 unknown #
coedge $-1 $508 $509 $222 $351 forward $343 $-1 #
edge $-1 $510 -16.608341210995949 $355 -11.213489872457508 $350 $511 forward 7 unknown #
edge $-1 $356 0 $510 6.3614922205510123 $223 $512 forward 7 unknown #
coedge $-1 $224 $502 $508 $513 reversed $354 $-1 #
loop $-1 $-1 $502 $342 #
vertex $-1 $513 $514 #
vertex $-1 $225 $515 #
straight-curve $-1 -0.91917301534348539 -22.418289652664576 38.690079433609384 0 0 -1 I I #
coedge $-1 $358 $358 $-1 $516 reversed $228 $-1 #
edge $-1 $517 0 $517 6.2831853071796004 $229 $518 forward 7 unknown #
vertex $-1 $232 $519 #
ellipse-curve $-1 3.7253249210711488 -19.720863983395351 7.2982657644636824 0 -0.52991927123019833 0.84804809178421925 1 0 0 1 I I #
coedge $-1 $362 $362 $-1 $520 reversed $235 $-1 #
edge $-1 $521 0 $521 6.2831853071796004 $236 $522 forward 7 unknown #
vertex $-1 $239 $523 #
ellipse-curve $-1 10.692071825693105 -19.720863983395351 7.2982657644636824 0 -0.52991927123019833 0.84804809178421925 1 0 0 1 I I #
face $-1 $-1 $255 $36 $-1 $524 reversed single #
loop $-1 $-1 $382 $240 #
plane-surface $-1 0 22.418289652664576 0 0 -1 0 0 0 -1 forward_v I I I I #
coedge $-1 $525 $380 $383 $526 forward $241 $-1 #
coedge $-1 $386 $243 $244 $374 reversed $151 $-1 #
coedge $-1 $380 $525 $243 $372 reversed $241 $-1 #
edge $-1 $387 -8.9838044251891631 $527 8.9838044251891631 $371 $528 forward 7 unknown #
coedge $-1 $245 $244 $525 $529 forward $97 $-1 #
edge $-1 $378 -42.313303018280585 $527 42.313303018280585 $370 $530 forward 7 unknown #
coedge $-1 $383 $382 $245 $376 reversed $367 $-1 #
edge $-1 $531 -42.313303018280585 $377 42.313303018280585 $375 $532 forward 7 unknown #
vertex $-1 $247 $533 #
vertex $-1 $389 $534 #
straight-curve $-1 42.313303018280585 0 -8.9838044251891631 0 -1 0 I I #
coedge $-1 $369 $371 $248 $381 reversed $241 $-1 #
edge $-1 $384 -22.418289652664576 $387 22.418289652664576 $380 $535 forward 7 unknown #
coedge $-1 $375 $249 $254 $390 forward $367 $-1 #
coedge $-1 $249 $375 $369 $526 reversed $367 $-1 #
vertex $-1 $250 $536 #
straight-curve $-1 0 22.418289652664576 8.9838044251891631 -1 0 0 I I #
coedge $-1 $251 $370 $253 $389 reversed $151 $-1 #
vertex $-1 $381 $537 #
straight-curve $-1 0 -22.418289652664576 8.9838044251891631 1 0 0 I I #
edge $-1 $256 -8.9838044251891631 $378 8.9838044251891631 $253 $538 forward 7 unknown #
edge $-1 $257 -8.9838044251891631 $377 8.9838044251891631 $254 $539 forward 7 unknown #
point $-1 42.313303018280585 -22.418289652664576 8.9838044251891631 #
point $-1 42.313303018280585 22.418289652664576 8.9838044251891631 #
face $-1 $-1 $410 $37 $-1 $540 reversed single #
loop $-1 $-1 $541 $259 #
plane-surface $-1 -42.313303018280585 0 0 1 0 0 0 0 -1 forward_v I I I I #
coedge $-1 $397 $413 $263 $400 forward $260 $-1 #
coedge $-1 $270 $396 $262 $398 forward $260 $-1 #
edge $-1 $404 -4.1668570122124251 $273 0.10765396747305589 $397 $542 forward 7 unknown #
coedge $-1 $264 $263 $541 $543 reversed $101 $-1 #
edge $-1 $544 -23.851685909492055 $404 -13.071548308085006 $396 $545 forward 7 unknown #
coedge $-1 $409 $408 $264 $402 forward $410 $-1 #
edge $-1 $403 13.071548308085006 $546 23.851685909492055 $401 $547 forward 7 unknown #
vertex $-1 $402 $548 #
vertex $-1 $400 $549 #
straight-curve $-1 -31.533165416873537 0 -6.1964585345821099 0 -1 0 I I #
coedge $-1 $550 $551 $267 $407 forward $394 $-1 #
edge $-1 $414 -22.418289652664576 $411 22.418289652664576 $406 $552 forward 7 unknown #
coedge $-1 $401 $268 $272 $416 forward $410 $-1 #
coedge $-1 $268 $401 $550 $553 reversed $410 $-1 #
loop $-1 $-1 $401 $393 #
vertex $-1 $553 $554 #
straight-curve $-1 -18.461617108788531 22.418289652664576 -1.9219475548966289 1 0 0 I I #
coedge $-1 $396 $270 $551 $555 forward $260 $-1 #
vertex $-1 $555 $556 #
straight-curve $-1 -18.461617108788531 -22.418289652664576 -1.9219475548966289 -1 0 0 I I #
edge $-1 $274 -0.10765396747305589 $403 4.1668570122124251 $408 $557 forward 7 unknown #
point $-1 -31.533165416873537 -22.418289652664576 -1.9219475548966289 #
point $-1 -31.533165416873537 22.418289652664576 -1.9219475548966289 #
face $-1 $-1 $291 $38 $-1 $558 reversed single #
loop $-1 $-1 $285 $276 #
plane-surface $-1 0 22.418289652664576 0 0 -1 0 0 0 -1 forward_v I I I I #
coedge $-1 $559 $279 $426 $560 reversed $167 $-1 #
coedge $-1 $279 $559 $284 $434 reversed $167 $-1 #
coedge $-1 $285 $429 $279 $425 forward $420 $-1 #
edge $-1 $561 -4.1668570122124251 $436 0.10765396747305589 $424 $562 forward 7 unknown #
coedge $-1 $281 $280 $422 $560 forward $105 $-1 #
coedge $-1 $439 $438 $280 $428 forward $277 $-1 #
edge $-1 $563 13.071548308085003 $431 23.851685909492051 $427 $564 forward 7 unknown #
coedge $-1 $424 $435 $281 $430 forward $420 $-1 #
edge $-1 $432 -23.851685909492051 $561 -13.071548308085003 $429 $565 forward 7 unknown #
vertex $-1 $283 $566 #
vertex $-1 $283 $567 #
straight-curve $-1 42.313303018280585 0 -6.1964585345821099 0 1 0 I I #
edge $-1 $436 -22.418289652664576 $440 22.418289652664576 $423 $568 forward 7 unknown #
coedge $-1 $429 $285 $290 $443 forward $420 $-1 #
vertex $-1 $286 $569 #
straight-curve $-1 18.461617108788527 22.418289652664576 -1.9219475548966289 1 0 0 I I #
coedge $-1 $427 $287 $559 $570 forward $277 $-1 #
coedge $-1 $287 $427 $289 $442 reversed $277 $-1 #
vertex $-1 $288 $571 #
straight-curve $-1 18.461617108788527 -22.418289652664576 -1.9219475548966289 -1 0 0 I I #
edge $-1 $293 1.9219475548966289 $431 6.1964585345821099 $289 $572 forward 7 unknown #
edge $-1 $292 1.9219475548966289 $432 6.1964585345821099 $290 $573 forward 7 unknown #
point $-1 42.313303018280578 22.418289652664576 -1.9219475548966289 #
point $-1 42.313303018280578 -22.418289652664576 -1.9219475548966289 #
loop $-1 $-1 $303 $295 #
plane-surface $-1 0 0 8.9838044251891631 0 0 1 1 0 0 forward_v I I I I #
coedge $-1 $449 $298 $300 $453 reversed $175 $-1 #
coedge $-1 $298 $448 $574 $575 reversed $175 $-1 #
coedge $-1 $306 $301 $298 $451 forward $296 $-1 #
edge $-1 $454 -45.363674173175937 $576 -41.284226315352747 $450 $577 forward 7 unknown #
coedge $-1 $300 $299 $457 $578 reversed $109 $-1 #
edge $-1 $579 36.91590702441222 $454 44.836579305329131 $448 $580 forward 7 unknown #
vertex $-1 $302 $581 #
straight-curve $-1 -11.346298833324571 22.418289652664573 4.9043565673659728 -1 0 0 I I #
coedge $-1 $574 $303 $306 $461 forward $446 $-1 #
coedge $-1 $303 $574 $452 $578 forward $446 $-1 #
vertex $-1 $304 $582 #
straight-curve $-1 -18.577898262586331 13.785882510206562 8.9838044251891631 0 1 0 I I #
straight-curve $-1 -18.577898262586331 -16.014159818624897 27.996902365520199 0 -0.85716729658548041 0.51503808176128008 I I #
edge $-1 $307 18.577898262586331 $576 26.807297070711954 $306 $583 forward 7 unknown #
point $-1 -18.577898262586331 22.418289652664576 8.9838044251891631 #
point $-1 -18.577898262586331 22.418289652664576 4.9043565673659728 #
edge $-1 $584 1 $584 0 $310 $-1 forward 7 unknown #
vertex $-1 $311 $585 #
ellipse-curve $-1 -24.45604026839035 18.508580947816732 6.0869131996920771 0 0.51503808176128008 0.85716729658548041 0.5 0 0 1 I I #
point $-1 -23.95604026839035 19.023619029578015 6.9440804962775573 #
edge $-1 $586 1 $586 0 $314 $-1 forward 7 unknown #
vertex $-1 $315 $587 #
ellipse-curve $-1 -20.929155064907938 18.508580947816732 6.0869131996920771 0 0.51503808176128008 0.85716729658548041 0.5 0 0 1 I I #
point $-1 -20.429155064907938 19.023619029578015 6.9440804962775573 #
plane-surface $-1 0 22.418289652664576 0 0 -1 0 0 0 -1 forward_v I I I I #
coedge $-1 $483 $482 $475 $588 forward $319 $-1 #
coedge $-1 $475 $321 $323 $479 reversed $197 $-1 #
coedge $-1 $321 $474 $473 $588 reversed $197 $-1 #
coedge $-1 $329 $324 $321 $477 forward $330 $-1 #
edge $-1 $480 -45.363674173175937 $589 -41.284226315352747 $476 $590 forward 7 unknown #
coedge $-1 $323 $322 $483 $591 reversed $123 $-1 #
edge $-1 $592 36.91590702441222 $480 44.836579305329131 $474 $593 forward 7 unknown #
vertex $-1 $325 $594 #
straight-curve $-1 4.4202838751121973 22.418289652664573 4.9043565673659728 -1 0 0 I I #
coedge $-1 $473 $326 $329 $487 forward $319 $-1 #
coedge $-1 $326 $473 $478 $591 forward $319 $-1 #
vertex $-1 $327 $595 #
straight-curve $-1 12.955267154287206 13.785882510206562 8.9838044251891631 0 1 0 I I #
straight-curve $-1 12.955267154287206 -16.014159818624897 27.996902365520199 0 -0.85716729658548041 0.51503808176128008 I I #
edge $-1 $331 -12.955267154287206 $589 -4.7258683461615822 $329 $596 forward 7 unknown #
point $-1 12.955267154287206 22.418289652664576 8.9838044251891631 #
point $-1 12.955267154287206 22.418289652664576 4.9043565673659728 #
edge $-1 $597 1 $597 0 $334 $-1 forward 7 unknown #
vertex $-1 $335 $598 #
ellipse-curve $-1 7.0771251484831836 18.508580947816732 6.0869131996920771 0 0.51503808176128008 0.85716729658548041 0.5 0 0 1 I I #
point $-1 7.5771251484831836 19.023619029578015 6.9440804962775573 #
edge $-1 $599 1 $599 0 $338 $-1 forward 7 unknown #
vertex $-1 $339 $600 #
ellipse-curve $-1 10.604010351965599 18.508580947816732 6.0869131996920771 0 0.51503808176128008 0.85716729658548041 0.5 0 0 1 I I #
point $-1 11.104010351965599 19.023619029578015 6.9440804962775573 #
plane-surface $-1 0 -22.418289652664576 0 0 1 0 0 0 1 forward_v I I I I #
coedge $-1 $509 $508 $501 $601 forward $343 $-1 #
coedge $-1 $501 $345 $347 $505 reversed $219 $-1 #
coedge $-1 $345 $500 $499 $601 reversed $219 $-1 #
coedge $-1 $353 $348 $345 $503 forward $354 $-1 #
edge $-1 $506 -33.077352329871189 $602 -29.706275008420221 $502 $603 forward 7 unknown #
coedge $-1 $347 $346 $509 $604 reversed $137 $-1 #
edge $-1 $605 -6.3614922205510123 $506 0 $500 $606 forward 7 unknown #
vertex $-1 $349 $607 #
straight-curve $-1 3.6043491866910635 -22.418289652664576 5.6127271037381945 1 0 0 I I #
coedge $-1 $499 $350 $353 $513 forward $343 $-1 #
coedge $-1 $350 $499 $504 $604 forward $343 $-1 #
vertex $-1 $351 $608 #
straight-curve $-1 -0.91917301534348539 -33.631779525122084 8.9838044251891631 0 -1 0 I I #
straight-curve $-1 -0.91917301534348539 -22.418289652664576 5.6127271037381945 0 0.84804809178421925 0.52991927123019833 I I #
edge $-1 $355 -0.91917301534348539 $602 15.336569762107739 $353 $609 forward 7 unknown #
point $-1 -0.91917301534348539 -22.418289652664576 8.9838044251891631 #
point $-1 -0.91917301534348539 -22.418289652664576 5.6127271037381945 #
edge $-1 $610 1 $610 0 $358 $-1 forward 7 unknown #
vertex $-1 $359 $611 #
ellipse-curve $-1 3.7253249210711488 -18.936958013514971 6.0437539963749023 0 -0.52991927123019833 0.84804809178421925 1 0 0 1 I I #
point $-1 4.7253249210711488 -19.720863983395343 7.2982657644636708 #
edge $-1 $612 1 $612 0 $362 $-1 forward 7 unknown #
vertex $-1 $363 $613 #
ellipse-curve $-1 10.692071825693105 -18.936958013514971 6.0437539963749023 0 -0.52991927123019833 0.84804809178421925 1 0 0 1 I I #
point $-1 11.692071825693105 -19.720863983395343 7.2982657644636708 #
plane-surface $-1 42.313303018280585 0 0 -1 0 0 0 0 1 forward_v I I I I #
coedge $-1 $371 $369 $373 $529 reversed $241 $-1 #
edge $-1 $384 -8.9838044251891631 $531 8.9838044251891631 $383 $614 forward 7 unknown #
vertex $-1 $529 $615 #
straight-curve $-1 -42.313303018280585 -22.418289652664576 0 0 0 -1 I I #
edge $-1 $527 -22.418289652664576 $531 22.418289652664576 $525 $616 forward 7 unknown #
straight-curve $-1 0 -22.418289652664576 -8.9838044251891631 -1 0 0 I I #
vertex $-1 $376 $617 #
straight-curve $-1 0 22.418289652664576 -8.9838044251891631 1 0 0 I I #
point $-1 42.313303018280585 22.418289652664576 -8.9838044251891631 #
point $-1 42.313303018280585 -22.418289652664576 -8.9838044251891631 #
straight-curve $-1 -42.313303018280585 0 8.9838044251891631 0 -1 0 I I #
point $-1 -42.313303018280585 22.418289652664576 8.9838044251891631 #
point $-1 -42.313303018280585 -22.418289652664576 8.9838044251891631 #
straight-curve $-1 42.313303018280585 -22.418289652664576 0 0 0 -1 I I #
straight-curve $-1 42.313303018280585 22.418289652664576 0 0 0 -1 I I #
plane-surface $-1 0 22.418289652664576 0 0 -1 0 0 0 -1 forward_v I I I I #
coedge $-1 $551 $550 $399 $543 forward $394 $-1 #
straight-curve $-1 -31.533165416873537 -22.418289652664576 -2.0296015223696848 0 0 1 I I #
edge $-1 $546 -22.418289652664576 $544 22.418289652664576 $541 $618 forward 7 unknown #
vertex $-1 $400 $619 #
straight-curve $-1 -18.461617108788531 -22.418289652664576 -6.1964585345821099 1 0 0 I I #
vertex $-1 $402 $620 #
straight-curve $-1 -18.461617108788531 22.418289652664576 -6.1964585345821099 -1 0 0 I I #
point $-1 -31.533165416873537 22.418289652664576 -6.1964585345821099 #
point $-1 -31.533165416873537 -22.418289652664576 -6.1964585345821099 #
coedge $-1 $541 $406 $409 $553 forward $394 $-1 #
coedge $-1 $406 $541 $413 $555 reversed $394 $-1 #
straight-curve $-1 -42.313303018280585 0 -1.9219475548966289 0 1 0 I I #
edge $-1 $411 1.9219475548966289 $546 6.1964585345821099 $409 $621 forward 7 unknown #
point $-1 -42.313303018280585 22.418289652664576 -1.9219475548966289 #
edge $-1 $414 1.9219475548966289 $544 6.1964585345821099 $551 $622 forward 7 unknown #
point $-1 -42.313303018280585 -22.418289652664576 -1.9219475548966289 #
straight-curve $-1 -31.533165416873537 22.418289652664576 -2.0296015223696848 0 0 -1 I I #
plane-surface $-1 42.313303018280585 0 0 -1 0 0 0 0 1 forward_v I I I I #
coedge $-1 $423 $422 $438 $570 reversed $167 $-1 #
edge $-1 $563 -22.418289652664576 $561 22.418289652664576 $422 $623 forward 7 unknown #
vertex $-1 $430 $624 #
straight-curve $-1 31.53316541687353 22.418289652664576 -2.0296015223696848 0 0 1 I I #
vertex $-1 $428 $625 #
straight-curve $-1 18.461617108788527 -22.418289652664576 -6.1964585345821099 1 0 0 I I #
straight-curve $-1 18.461617108788527 22.418289652664576 -6.1964585345821099 -1 0 0 I I #
point $-1 42.313303018280578 -22.418289652664576 -6.1964585345821099 #
point $-1 42.313303018280578 22.418289652664576 -6.1964585345821099 #
straight-curve $-1 31.53316541687353 0 -1.9219475548966289 0 -1 0 I I #
point $-1 31.53316541687353 22.418289652664576 -1.9219475548966289 #
edge $-1 $440 -0.10765396747305589 $563 4.1668570122124251 $438 $626 forward 7 unknown #
point $-1 31.53316541687353 -22.418289652664576 -1.9219475548966289 #
straight-curve $-1 42.313303018280585 -22.418289652664576 0 0 0 -1 I I #
straight-curve $-1 42.313303018280585 22.418289652664576 0 0 0 -1 I I #
coedge $-1 $457 $456 $449 $575 forward $446 $-1 #
edge $-1 $576 -8.632407142458014 $579 -1.8430658962849087 $574 $627 forward 7 unknown #
vertex $-1 $575 $628 #
straight-curve $-1 -26.807297070711954 22.418289652664576 50.26803074054191 0 0 1 I I #
edge $-1 $579 -15.460998237387383 $458 -7.2315994292617596 $457 $629 forward 7 unknown #
vertex $-1 $578 $630 #
straight-curve $-1 -26.807297070711954 -16.014159818624897 27.996902365520199 0 0.85716729658548041 -0.51503808176128008 I I #
point $-1 -26.807297070711954 22.418289652664576 4.9043565673659728 #
point $-1 -18.577898262586331 15.628948406491471 8.9838044251891631 #
straight-curve $-1 0 22.418289652664576 8.9838044251891631 -1 0 0 I I #
vertex $-1 $464 $631 #
point $-1 -23.95604026839035 18.508580947816732 6.0869131996920771 #
vertex $-1 $468 $632 #
point $-1 -20.429155064907938 18.508580947816732 6.0869131996920771 #
edge $-1 $589 -8.632407142458014 $592 -1.8430658962849087 $473 $633 forward 7 unknown #
vertex $-1 $588 $634 #
straight-curve $-1 4.7258683461615822 22.418289652664576 50.26803074054191 0 0 1 I I #
edge $-1 $592 0.30558447104938491 $484 8.5349832791750089 $483 $635 forward 7 unknown #
vertex $-1 $591 $636 #
straight-curve $-1 4.7258683461615822 -16.014159818624897 27.996902365520199 0 0.85716729658548041 -0.51503808176128008 I I #
point $-1 4.7258683461615822 22.418289652664576 4.9043565673659728 #
point $-1 12.955267154287206 15.628948406491471 8.9838044251891631 #
straight-curve $-1 0 22.418289652664576 8.9838044251891631 -1 0 0 I I #
vertex $-1 $490 $637 #
point $-1 7.5771251484831836 18.508580947816732 6.0869131996920771 #
vertex $-1 $494 $638 #
point $-1 11.104010351965599 18.508580947816732 6.0869131996920771 #
edge $-1 $602 11.213489872457508 $605 16.608341210995949 $499 $639 forward 7 unknown #
vertex $-1 $503 $640 #
straight-curve $-1 15.336569762107739 -22.418289652664576 38.690079433609384 0 0 1 I I #
edge $-1 $605 -11.732220575416676 $510 4.5235222020345489 $509 $641 forward 7 unknown #
vertex $-1 $604 $642 #
straight-curve $-1 15.336569762107739 -22.418289652664576 5.6127271037381945 0 -0.84804809178421925 -0.52991927123019833 I I #
point $-1 15.336569762107739 -22.418289652664576 5.6127271037381945 #
point $-1 -0.91917301534348539 -17.023438314126135 8.9838044251891631 #
straight-curve $-1 0 -22.418289652664576 8.9838044251891631 1 0 0 I I #
vertex $-1 $516 $643 #
point $-1 4.7253249210711488 -18.936958013514971 6.0437539963749023 #
vertex $-1 $520 $644 #
point $-1 11.692071825693105 -18.936958013514971 6.0437539963749023 #
straight-curve $-1 -42.313303018280585 22.418289652664576 0 0 0 -1 I I #
point $-1 -42.313303018280585 -22.418289652664576 -8.9838044251891631 #
straight-curve $-1 -42.313303018280585 0 -8.9838044251891631 0 1 0 I I #
point $-1 -42.313303018280585 22.418289652664576 -8.9838044251891631 #
straight-curve $-1 -42.313303018280585 0 -6.1964585345821099 0 -1 0 I I #
point $-1 -42.313303018280585 -22.418289652664576 -6.1964585345821099 #
point $-1 -42.313303018280585 22.418289652664576 -6.1964585345821099 #
straight-curve $-1 -42.313303018280585 22.418289652664576 0 0 0 -1 I I #
straight-curve $-1 -42.313303018280585 -22.418289652664576 0 0 0 -1 I I #
straight-curve $-1 31.53316541687353 0 -6.1964585345821099 0 1 0 I I #
point $-1 31.53316541687353 22.418289652664576 -6.1964585345821099 #
point $-1 31.53316541687353 -22.418289652664576 -6.1964585345821099 #
straight-curve $-1 31.53316541687353 -22.418289652664576 -2.0296015223696848 0 0 -1 I I #
straight-curve $-1 -26.807297070711954 13.785882510206562 8.9838044251891631 0 -1 0 I I #
point $-1 -26.807297070711954 22.418289652664576 8.9838044251891631 #
straight-curve $-1 -11.346298833324571 15.628948406491478 8.9838044251891613 1 0 0 I I #
point $-1 -26.807297070711954 15.628948406491471 8.9838044251891631 #
point $-1 -24.45604026839035 18.251061906936094 5.658329551399337 #
point $-1 -20.929155064907938 18.251061906936094 5.658329551399337 #
straight-curve $-1 4.7258683461615822 13.785882510206562 8.9838044251891631 0 -1 0 I I #
point $-1 4.7258683461615822 22.418289652664576 8.9838044251891631 #
straight-curve $-1 4.4202838751121973 15.628948406491478 8.9838044251891613 1 0 0 I I #
point $-1 4.7258683461615822 15.628948406491471 8.9838044251891631 #
point $-1 7.0771251484831836 18.251061906936094 5.658329551399337 #
point $-1 10.604010351965599 18.251061906936094 5.658329551399337 #
straight-curve $-1 15.336569762107739 -33.631779525122084 8.9838044251891631 0 1 0 I I #
point $-1 15.336569762107739 -22.418289652664576 8.9838044251891631 #
straight-curve $-1 3.6043491866910635 -17.023438314126139 8.9838044251891631 -1 0 0 I I #
point $-1 15.336569762107739 -17.023438314126135 8.9838044251891631 #
point $-1 3.7253249210711488 -18.407038742284772 5.1957059045906826 #
point $-1 10.692071825693105 -18.407038742284772 5.1957059045906826 #
End-of-ACIS-data 