500 0 7 0           
7 Unknown 11 ACIS 5.0 NT 24 Thu Mar 25 20:33:38 1999 
-1 9.9999999999999995e-007 1e-010 
body $-1 $7 $-1 $8 #
body $-1 $9 $-1 $10 #
body $-1 $11 $-1 $12 #
body $-1 $13 $-1 $14 #
body $-1 $15 $-1 $16 #
body $-1 $17 $-1 $18 #
body $-1 $19 $-1 $20 #
lump $-1 $-1 $21 $0 #
transform $-1 1 0 0 0 1 0 0 0 1 64.977568895535143 26.597236329580529 6.8280066005675968 1 rotate no_reflect no_shear #
lump $-1 $-1 $22 $1 #
transform $-1 1 0 0 0 1 0 0 0 1 64.977568895535143 26.597236329580529 6.8280066005675968 1 rotate no_reflect no_shear #
lump $-1 $-1 $23 $2 #
transform $-1 1 0 0 0 1 0 0 0 1 64.977568895535143 26.597236329580529 6.8280066005675968 1 rotate no_reflect no_shear #
lump $-1 $-1 $24 $3 #
transform $-1 1 0 0 0 1 0 0 0 1 64.977568895535143 26.597236329580529 6.8280066005675968 1 rotate no_reflect no_shear #
lump $-1 $-1 $25 $4 #
transform $-1 1 0 0 0 1 0 0 0 1 64.977568895535143 26.597236329580529 6.8280066005675968 1 rotate no_reflect no_shear #
lump $-1 $-1 $26 $5 #
transform $-1 1 0 0 0 1 0 0 0 1 64.977568895535143 26.597236329580529 6.8280066005675968 1 rotate no_reflect no_shear #
lump $-1 $-1 $27 $6 #
transform $-1 1 0 0 0 1 0 0 0 1 64.977568895535143 26.597236329580529 6.8280066005675968 1 rotate no_reflect no_shear #
shell $-1 $-1 $-1 $28 $-1 $7 #
shell $-1 $-1 $-1 $29 $-1 $9 #
shell $-1 $-1 $-1 $30 $-1 $11 #
shell $-1 $-1 $-1 $31 $-1 $13 #
shell $-1 $-1 $-1 $32 $-1 $15 #
shell $-1 $-1 $-1 $33 $-1 $17 #
shell $-1 $-1 $-1 $34 $-1 $19 #
face $-1 $35 $36 $21 $-1 $37 forward single #
face $-1 $38 $39 $22 $-1 $40 forward single #
face $-1 $41 $42 $23 $-1 $43 reversed single #
face $-1 $44 $45 $24 $-1 $46 forward single #
face $-1 $47 $48 $25 $-1 $49 reversed single #
face $-1 $50 $51 $26 $-1 $52 forward single #
face $-1 $53 $54 $27 $-1 $55 forward single #
face $-1 $56 $57 $21 $-1 $58 reversed single #
loop $-1 $-1 $59 $28 #
plane-surface $-1 0 0 6.8280066005675968 0 0 1 1 0 0 forward_v I I I I #
face $-1 $60 $61 $22 $-1 $62 reversed single #
loop $-1 $-1 $63 $29 #
plane-surface $-1 -64.977568895535143 0 0 1 0 0 0 0 -1 forward_v I I I I #
face $-1 $64 $65 $23 $-1 $66 reversed single #
loop $-1 $-1 $67 $30 #
plane-surface $-1 -58.033619337951166 50.35149720837515 140.28288968067446 1 0 0 0 -0.52991927123019833 -0.84804809178421925 forward_v I I I I #
face $-1 $68 $69 $24 $-1 $70 forward single #
loop $-1 $71 $72 $31 #
cone-surface $-1 -50.697509425952283 22.069420306941275 3.4394694834171595 0 -0.52991927123019833 -0.84804809178421925 1 0 0 1 I I 0 1 1 forward I I I I #
face $-1 $73 $74 $25 $-1 $75 reversed single #
loop $-1 $-1 $76 $32 #
plane-surface $-1 40.405573866810784 -104.8061915781542 105.486124267344 -1 0 0 0 -0.6018150307709319 0.79863550430605224 forward_v I I I I #
face $-1 $77 $78 $26 $-1 $79 forward single #
loop $-1 $80 $81 $33 #
cone-surface $-1 21.049072720984171 -21.844844398354944 2.4729511096364449 0 0.6018150307709319 -0.79863550430605224 2 0 0 1 I I 0 1 2 forward I I I I #
face $-1 $82 $83 $27 $-1 $84 forward single #
loop $-1 $85 $86 $34 #
cone-surface $-1 32.662973408480141 -21.844844398354944 2.4729511096364449 0 0.6018150307709319 -0.79863550430605224 2 0 0 1 I I 0 1 2 forward I I I I #
face $-1 $87 $88 $21 $-1 $89 reversed single #
loop $-1 $-1 $90 $35 #
plane-surface $-1 0 0 -6.8280066005675968 0 0 1 1 0 0 forward_v I I I I #
coedge $-1 $91 $92 $93 $94 forward $36 $-1 #
face $-1 $95 $96 $22 $-1 $97 forward single #
loop $-1 $-1 $98 $38 #
plane-surface $-1 0 26.597236329580529 0 0 -1 0 0 0 -1 forward_v I I I I #
coedge $-1 $99 $100 $101 $102 forward $39 $-1 #
face $-1 $103 $104 $23 $-1 $105 reversed single #
loop $-1 $-1 $106 $41 #
plane-surface $-1 -50.697509425952283 -18.514234702488821 30.07468305940202 0 0.52991927123019833 0.84804809178421925 1 0 0 forward_v I I I I #
coedge $-1 $107 $108 $109 $110 reversed $42 $-1 #
face $-1 $-1 $111 $24 $-1 $112 forward single #
loop $-1 $113 $114 $44 #
cone-surface $-1 -50.697509425952283 21.231150994971596 2.0979581834660701 0 -0.52991927123019833 -0.84804809178421925 0.5 0 0 1 I I -0.70710678118654746 0.70710678118654746 0.5 forward I I I I #
loop $-1 $-1 $115 $31 #
coedge $-1 $72 $72 $116 $117 reversed $45 $-1 #
face $-1 $118 $119 $25 $-1 $120 reversed single #
loop $-1 $-1 $121 $47 #
plane-surface $-1 26.856023064732156 -26.597236329580539 1.6993372604100756 0 -0.6018150307709319 0.79863550430605224 1 0 0 forward_v I I I I #
coedge $-1 $122 $123 $124 $125 reversed $48 $-1 #
face $-1 $-1 $126 $26 $-1 $127 forward single #
loop $-1 $128 $129 $50 #
cone-surface $-1 21.049072720984171 -19.893624413643426 -0.11640521552198813 0 0.6018150307709319 -0.79863550430605224 1 0 0 1 I I -0.70710678118654746 0.70710678118654746 1 forward I I I I #
loop $-1 $-1 $130 $33 #
coedge $-1 $81 $81 $131 $132 reversed $51 $-1 #
face $-1 $-1 $133 $27 $-1 $134 forward single #
loop $-1 $135 $136 $53 #
cone-surface $-1 32.662973408480141 -19.893624413643426 -0.11640521552198813 0 0.6018150307709319 -0.79863550430605224 1 0 0 1 I I -0.70710678118654746 0.70710678118654746 1 forward I I I I #
loop $-1 $-1 $137 $34 #
coedge $-1 $86 $86 $138 $139 reversed $54 $-1 #
face $-1 $140 $141 $21 $-1 $142 reversed single #
loop $-1 $-1 $143 $56 #
plane-surface $-1 0 -26.597236329580529 0 0 1 0 0 0 1 forward_v I I I I #
coedge $-1 $144 $145 $146 $147 forward $57 $-1 #
coedge $-1 $148 $59 $149 $150 forward $36 $-1 #
coedge $-1 $59 $148 $151 $152 forward $36 $-1 #
coedge $-1 $153 $154 $59 $94 reversed $155 $-1 #
edge $-1 $156 -26.597236329580529 $157 26.597236329580529 $93 $158 forward 7 unknown #
face $-1 $159 $160 $22 $-1 $161 reversed single #
loop $-1 $-1 $101 $60 #
plane-surface $-1 -68.449543674327131 0 -2.7461226900515761 0 0 1 1 0 0 forward_v I I I I #
coedge $-1 $162 $163 $100 $164 forward $61 $-1 #
coedge $-1 $165 $63 $166 $167 reversed $39 $-1 #
coedge $-1 $63 $165 $98 $164 reversed $39 $-1 #
coedge $-1 $168 $169 $63 $102 reversed $96 $-1 #
edge $-1 $170 -26.597236329580529 $171 26.597236329580529 $101 $172 forward 7 unknown #
face $-1 $173 $174 $23 $-1 $175 forward single #
loop $-1 $-1 $176 $64 #
plane-surface $-1 -43.361399513953401 50.35149720837515 140.28288968067446 -1 0 0 0 0.52991927123019833 0.84804809178421925 forward_v I I I I #
coedge $-1 $177 $178 $179 $180 reversed $65 $-1 #
coedge $-1 $108 $67 $181 $182 reversed $42 $-1 #
coedge $-1 $67 $107 $177 $183 reversed $42 $-1 #
coedge $-1 $179 $184 $67 $110 forward $174 $-1 #
edge $-1 $185 -1.4214877253929536 $186 6.4875249671763768 $109 $187 forward 7 unknown #
loop $-1 $-1 $116 $68 #
plane-surface $-1 -50.697509425952283 -18.514234702488821 30.07468305940202 0 0.52991927123019833 0.84804809178421925 1 0 0 forward_v I I I I #
loop $-1 $-1 $188 $44 #
coedge $-1 $114 $114 $115 $189 reversed $69 $-1 #
coedge $-1 $115 $115 $114 $189 forward $71 $-1 #
coedge $-1 $116 $116 $72 $117 forward $111 $-1 #
edge $-1 $190 -6.5955775151306058e-016 $190 6.2831853071795996 $116 $191 forward 7 unknown #
face $-1 $192 $193 $25 $-1 $194 reversed single #
loop $-1 $-1 $195 $73 #
plane-surface $-1 13.306472262653529 -104.8061915781542 105.486124267344 1 0 0 0 0.6018150307709319 -0.79863550430605224 forward_v I I I I #
coedge $-1 $196 $197 $198 $199 reversed $74 $-1 #
coedge $-1 $123 $76 $200 $201 reversed $48 $-1 #
coedge $-1 $76 $122 $196 $202 reversed $48 $-1 #
coedge $-1 $198 $203 $76 $125 forward $204 $-1 #
edge $-1 $205 25.80585945949657 $206 32.611833414066531 $124 $207 forward 7 unknown #
loop $-1 $-1 $131 $77 #
plane-surface $-1 26.856023064732156 -26.597236329580539 1.6993372604100756 0 -0.6018150307709319 0.79863550430605224 1 0 0 forward_v I I I I #
loop $-1 $-1 $208 $50 #
coedge $-1 $129 $129 $130 $209 reversed $78 $-1 #
coedge $-1 $130 $130 $129 $209 forward $80 $-1 #
coedge $-1 $131 $131 $81 $132 forward $126 $-1 #
edge $-1 $210 3.2945533122861106e-016 $210 6.2831853071796004 $131 $211 forward 7 unknown #
loop $-1 $-1 $138 $82 #
plane-surface $-1 26.856023064732156 -26.597236329580539 1.6993372604100756 0 -0.6018150307709319 0.79863550430605224 1 0 0 forward_v I I I I #
loop $-1 $-1 $212 $53 #
coedge $-1 $136 $136 $137 $213 reversed $83 $-1 #
coedge $-1 $137 $137 $136 $213 forward $85 $-1 #
coedge $-1 $138 $138 $86 $139 forward $133 $-1 #
edge $-1 $214 3.2945533122861106e-016 $214 6.2831853071796004 $138 $215 forward 7 unknown #
face $-1 $216 $217 $21 $-1 $218 reversed single #
loop $-1 $-1 $219 $87 #
plane-surface $-1 -64.977568895535143 0 0 1 0 0 0 0 -1 forward_v I I I I #
coedge $-1 $220 $151 $219 $221 forward $88 $-1 #
coedge $-1 $222 $90 $220 $223 forward $57 $-1 #
coedge $-1 $90 $222 $224 $225 forward $57 $-1 #
coedge $-1 $154 $153 $90 $147 reversed $155 $-1 #
edge $-1 $226 -26.597236329580529 $227 26.597236329580529 $146 $228 forward 7 unknown #
coedge $-1 $92 $91 $229 $230 forward $36 $-1 #
coedge $-1 $231 $232 $91 $150 reversed $217 $-1 #
edge $-1 $157 -64.977568895535143 $233 64.977568895535143 $149 $234 forward 7 unknown #
coedge $-1 $143 $235 $92 $152 reversed $88 $-1 #
edge $-1 $236 -64.977568895535143 $156 64.977568895535143 $151 $237 forward 7 unknown #
coedge $-1 $146 $93 $235 $238 forward $155 $-1 #
coedge $-1 $93 $146 $231 $239 reversed $155 $-1 #
loop $-1 $-1 $153 $216 #
vertex $-1 $94 $240 #
vertex $-1 $94 $241 #
straight-curve $-1 64.977568895535143 0 6.8280066005675968 0 1 0 I I #
face $-1 $242 $243 $22 $-1 $244 reversed single #
loop $-1 $-1 $245 $95 #
plane-surface $-1 -71.92151845311912 0 -4.7870646453095862 1 0 0 0 0 -1 forward_v I I I I #
coedge $-1 $246 $98 $247 $248 reversed $61 $-1 #
coedge $-1 $98 $246 $168 $249 reversed $61 $-1 #
edge $-1 $170 2.7461226900515761 $250 6.8280066005675968 $98 $251 forward 7 unknown #
coedge $-1 $100 $99 $252 $253 reversed $39 $-1 #
coedge $-1 $254 $255 $99 $167 forward $256 $-1 #
edge $-1 $257 -6.8280066005675968 $171 -2.7461226900515761 $166 $258 forward 7 unknown #
coedge $-1 $259 $101 $163 $249 forward $96 $-1 #
coedge $-1 $101 $259 $254 $260 forward $96 $-1 #
vertex $-1 $164 $261 #
vertex $-1 $260 $262 #
straight-curve $-1 -64.977568895535143 0 -2.7461226900515761 0 -1 0 I I #
face $-1 $-1 $263 $23 $-1 $264 reversed single #
loop $-1 $-1 $109 $103 #
plane-surface $-1 0 0 6.8280066005675968 0 0 1 1 0 0 forward_v I I I I #
coedge $-1 $265 $266 $267 $268 reversed $104 $-1 #
coedge $-1 $269 $106 $108 $183 forward $65 $-1 #
coedge $-1 $106 $269 $265 $270 forward $65 $-1 #
coedge $-1 $267 $109 $106 $180 forward $174 $-1 #
edge $-1 $186 -32.68486462497502 $271 -18.01264480097726 $179 $272 forward 7 unknown #
coedge $-1 $273 $274 $107 $182 forward $263 $-1 #
edge $-1 $275 -68.255537965952541 $185 -63.313438239769631 $181 $276 forward 7 unknown #
edge $-1 $186 43.868335652084653 $275 53.19447265916105 $108 $277 forward 7 unknown #
coedge $-1 $109 $267 $273 $278 forward $174 $-1 #
vertex $-1 $182 $279 #
vertex $-1 $110 $280 #
straight-curve $-1 -58.033619337951166 25.175748604187575 6.8280066005675906 0 -1 0 I I #
coedge $-1 $188 $188 $-1 $281 reversed $113 $-1 #
edge $-1 $282 0 $282 6.2831853071796004 $114 $283 forward 7 unknown #
vertex $-1 $117 $284 #
ellipse-curve $-1 -50.697509425952283 22.642729983295858 4.3569567374761426 0 0.52991927123019833 0.84804809178421925 1 0 0 1 I I #
face $-1 $-1 $204 $25 $-1 $285 forward single #
loop $-1 $-1 $286 $118 #
plane-surface $-1 0 -26.597236329580529 0 0 1 0 0 0 1 forward_v I I I I #
coedge $-1 $287 $288 $289 $290 reversed $119 $-1 #
coedge $-1 $291 $121 $123 $202 forward $74 $-1 #
coedge $-1 $121 $291 $287 $292 forward $74 $-1 #
coedge $-1 $289 $124 $121 $199 forward $204 $-1 #
edge $-1 $206 -26.977562334444706 $293 0.12153926971254947 $198 $294 forward 7 unknown #
coedge $-1 $295 $296 $122 $201 forward $193 $-1 #
edge $-1 $297 -51.043724873261915 $205 -45.9150555331044 $200 $298 forward 7 unknown #
edge $-1 $206 -8.5220027382626782 $297 -1.3322641948408722e-014 $123 $299 forward 7 unknown #
coedge $-1 $124 $289 $295 $300 forward $204 $-1 #
loop $-1 $-1 $289 $192 #
vertex $-1 $201 $301 #
vertex $-1 $125 $302 #
straight-curve $-1 40.405573866810784 -52.403095789077099 6.8280066005675977 0 1 0 I I #
coedge $-1 $208 $208 $-1 $303 reversed $128 $-1 #
edge $-1 $304 0 $304 6.2831853071796004 $129 $305 forward 7 unknown #
vertex $-1 $132 $306 #
ellipse-curve $-1 21.049072720984171 -23.194249352295543 4.2636719304888437 0 -0.6018150307709319 0.79863550430605224 2 0 0 1 I I #
coedge $-1 $212 $212 $-1 $307 reversed $135 $-1 #
edge $-1 $308 0 $308 6.2831853071796004 $136 $309 forward 7 unknown #
vertex $-1 $139 $310 #
ellipse-curve $-1 32.662973408480141 -23.194249352295543 4.2636719304888437 0 -0.6018150307709319 0.79863550430605224 2 0 0 1 I I #
face $-1 $-1 $155 $21 $-1 $311 reversed single #
loop $-1 $-1 $231 $140 #
plane-surface $-1 0 26.597236329580529 0 0 -1 0 0 0 -1 forward_v I I I I #
coedge $-1 $229 $312 $143 $221 reversed $141 $-1 #
coedge $-1 $235 $143 $144 $223 reversed $88 $-1 #
edge $-1 $236 -6.8280066005675968 $313 6.8280066005675968 $219 $314 forward 7 unknown #
coedge $-1 $145 $144 $312 $315 forward $57 $-1 #
edge $-1 $227 -64.977568895535143 $313 64.977568895535143 $220 $316 forward 7 unknown #
coedge $-1 $232 $231 $145 $225 reversed $217 $-1 #
edge $-1 $317 -64.977568895535143 $226 64.977568895535143 $224 $318 forward 7 unknown #
vertex $-1 $147 $319 #
vertex $-1 $238 $320 #
straight-curve $-1 64.977568895535143 0 -6.8280066005675968 0 -1 0 I I #
coedge $-1 $321 $219 $148 $230 reversed $141 $-1 #
edge $-1 $233 -26.597236329580529 $236 26.597236329580529 $229 $322 forward 7 unknown #
coedge $-1 $224 $149 $154 $239 forward $217 $-1 #
coedge $-1 $149 $224 $321 $323 reversed $217 $-1 #
vertex $-1 $150 $324 #
straight-curve $-1 0 26.597236329580529 6.8280066005675968 -1 0 0 I I #
coedge $-1 $151 $220 $153 $238 reversed $88 $-1 #
vertex $-1 $230 $325 #
straight-curve $-1 0 -26.597236329580529 6.8280066005675968 1 0 0 I I #
edge $-1 $156 -6.8280066005675968 $227 6.8280066005675968 $153 $326 forward 7 unknown #
edge $-1 $157 -6.8280066005675968 $226 6.8280066005675968 $154 $327 forward 7 unknown #
point $-1 64.977568895535143 -26.597236329580529 6.8280066005675968 #
point $-1 64.977568895535143 26.597236329580529 6.8280066005675968 #
face $-1 $-1 $256 $22 $-1 $328 reversed single #
loop $-1 $-1 $252 $159 #
plane-surface $-1 0 0 -6.8280066005675968 0 0 1 1 0 0 forward_v I I I I #
coedge $-1 $329 $330 $246 $331 forward $160 $-1 #
coedge $-1 $163 $162 $245 $331 reversed $61 $-1 #
coedge $-1 $252 $332 $162 $248 forward $243 $-1 #
edge $-1 $333 -71.92151845311912 $250 -64.977568895535143 $162 $334 forward 7 unknown #
edge $-1 $170 -3.4719747787919886 $335 3.4719747787919886 $163 $336 forward 7 unknown #
vertex $-1 $164 $337 #
straight-curve $-1 -64.977568895535143 26.597236329580529 0 0 0 -1 I I #
coedge $-1 $338 $247 $165 $253 forward $243 $-1 #
edge $-1 $250 -26.597236329580529 $257 26.597236329580529 $252 $339 forward 7 unknown #
coedge $-1 $340 $166 $169 $260 reversed $256 $-1 #
coedge $-1 $166 $340 $338 $341 reversed $256 $-1 #
loop $-1 $-1 $166 $242 #
vertex $-1 $341 $342 #
straight-curve $-1 -64.977568895535143 -26.597236329580529 0 0 0 1 I I #
coedge $-1 $169 $168 $330 $343 forward $96 $-1 #
edge $-1 $344 -3.4719747787919886 $171 3.4719747787919886 $254 $345 forward 7 unknown #
point $-1 -64.977568895535143 26.597236329580529 -2.7461226900515761 #
point $-1 -64.977568895535143 -26.597236329580529 -2.7461226900515761 #
loop $-1 $-1 $181 $173 #
plane-surface $-1 0 26.597236329580529 0 0 -1 0 0 0 -1 forward_v I I I I #
coedge $-1 $266 $176 $178 $270 reversed $104 $-1 #
coedge $-1 $176 $265 $346 $347 reversed $104 $-1 #
coedge $-1 $184 $179 $176 $268 forward $174 $-1 #
edge $-1 $271 -6.4875249671763768 $348 1.4214877253929536 $267 $349 forward 7 unknown #
coedge $-1 $178 $177 $274 $350 reversed $65 $-1 #
edge $-1 $351 -53.19447265916105 $271 -43.868335652084653 $265 $352 forward 7 unknown #
vertex $-1 $180 $353 #
straight-curve $-1 -25.348754712976142 18.688223637011198 6.8280066005675977 1 0 0 I I #
coedge $-1 $346 $181 $184 $278 reversed $263 $-1 #
coedge $-1 $181 $346 $269 $350 forward $263 $-1 #
vertex $-1 $182 $354 #
straight-curve $-1 -58.033619337951166 26.597236329580529 70.141444840337229 0 0 1 I I #
straight-curve $-1 -58.033619337951166 -18.514234702488821 30.07468305940202 0 0.84804809178421925 -0.52991927123019833 I I #
edge $-1 $348 43.361399513953401 $185 58.033619337951166 $273 $355 forward 7 unknown #
point $-1 -58.033619337951166 26.597236329580529 6.8280066005675968 #
point $-1 -58.033619337951166 18.688223637011198 6.8280066005675977 #
edge $-1 $356 1 $356 0 $188 $-1 forward 7 unknown #
vertex $-1 $189 $357 #
ellipse-curve $-1 -50.697509425952283 21.496110630586696 2.5219822293581799 0 0.52991927123019833 0.84804809178421925 1 0 0 1 I I #
point $-1 -49.697509425952283 22.642729983295855 4.3569567374761382 #
plane-surface $-1 0 0 6.8280066005675968 0 0 1 1 0 0 forward_v I I I I #
coedge $-1 $296 $295 $288 $358 forward $193 $-1 #
coedge $-1 $288 $195 $197 $292 reversed $119 $-1 #
coedge $-1 $195 $287 $286 $358 reversed $119 $-1 #
coedge $-1 $203 $198 $195 $290 forward $204 $-1 #
edge $-1 $293 -32.611833414066531 $359 -25.80585945949657 $289 $360 forward 7 unknown #
coedge $-1 $197 $196 $296 $361 reversed $74 $-1 #
edge $-1 $362 1.3322641948408722e-014 $293 8.5220027382626782 $287 $363 forward 7 unknown #
vertex $-1 $199 $364 #
straight-curve $-1 13.428011532366078 -19.791262375010565 6.8280066005675968 -1 0 0 I I #
coedge $-1 $286 $200 $203 $300 reversed $193 $-1 #
coedge $-1 $200 $286 $291 $361 forward $193 $-1 #
vertex $-1 $201 $365 #
straight-curve $-1 40.405573866810784 -26.597236329580525 52.743062133671998 0 0 1 I I #
straight-curve $-1 40.405573866810784 -26.597236329580539 1.6993372604100756 0 -0.79863550430605224 -0.6018150307709319 I I #
edge $-1 $359 13.306472262653529 $205 40.405573866810784 $295 $366 forward 7 unknown #
point $-1 40.405573866810784 -26.597236329580529 6.8280066005675968 #
point $-1 40.405573866810784 -19.791262375010568 6.8280066005675959 #
edge $-1 $367 1 $367 0 $208 $-1 forward 7 unknown #
vertex $-1 $209 $368 #
ellipse-curve $-1 21.049072720984171 -20.495439444414359 0.68223028878406411 0 -0.6018150307709319 0.79863550430605224 2 0 0 1 I I #
point $-1 23.049072720984171 -23.194249352295529 4.263671930488826 #
edge $-1 $369 1 $369 0 $212 $-1 forward 7 unknown #
vertex $-1 $213 $370 #
ellipse-curve $-1 32.662973408480141 -20.495439444414359 0.68223028878406411 0 -0.6018150307709319 0.79863550430605224 2 0 0 1 I I #
point $-1 34.662973408480141 -23.194249352295529 4.263671930488826 #
plane-surface $-1 64.977568895535143 0 0 -1 0 0 0 0 1 forward_v I I I I #
coedge $-1 $219 $321 $222 $315 reversed $141 $-1 #
vertex $-1 $315 $371 #
straight-curve $-1 -64.977568895535143 -26.597236329580529 0 0 0 -1 I I #
edge $-1 $313 -26.597236329580529 $317 26.597236329580529 $312 $372 forward 7 unknown #
straight-curve $-1 0 -26.597236329580529 -6.8280066005675968 -1 0 0 I I #
vertex $-1 $225 $373 #
straight-curve $-1 0 26.597236329580529 -6.8280066005675968 1 0 0 I I #
point $-1 64.977568895535143 26.597236329580529 -6.8280066005675968 #
point $-1 64.977568895535143 -26.597236329580529 -6.8280066005675968 #
coedge $-1 $312 $229 $232 $323 forward $141 $-1 #
straight-curve $-1 -64.977568895535143 0 6.8280066005675968 0 -1 0 I I #
edge $-1 $233 -6.8280066005675968 $317 6.8280066005675968 $232 $374 forward 7 unknown #
point $-1 -64.977568895535143 26.597236329580529 6.8280066005675968 #
point $-1 -64.977568895535143 -26.597236329580529 6.8280066005675968 #
straight-curve $-1 64.977568895535143 -26.597236329580529 0 0 0 -1 I I #
straight-curve $-1 64.977568895535143 26.597236329580529 0 0 0 -1 I I #
plane-surface $-1 0 -26.597236329580529 0 0 1 0 0 0 1 forward_v I I I I #
coedge $-1 $375 $245 $332 $376 reversed $160 $-1 #
coedge $-1 $245 $375 $259 $343 reversed $160 $-1 #
edge $-1 $335 -2.0409419552580101 $333 2.0409419552580097 $246 $377 forward 7 unknown #
coedge $-1 $247 $338 $329 $376 forward $243 $-1 #
vertex $-1 $248 $378 #
straight-curve $-1 0 26.597236329580529 -6.8280066005675968 1 0 0 I I #
vertex $-1 $249 $379 #
straight-curve $-1 -68.449543674327131 26.597236329580529 -2.7461226900515761 -1 0 0 I I #
point $-1 -64.977568895535143 26.597236329580529 -6.8280066005675968 #
coedge $-1 $332 $252 $255 $341 forward $243 $-1 #
straight-curve $-1 -64.977568895535143 0 -6.8280066005675968 0 -1 0 I I #
coedge $-1 $255 $254 $375 $380 forward $256 $-1 #
edge $-1 $257 -3.4719747787919886 $381 3.4719747787919886 $255 $382 forward 7 unknown #
point $-1 -64.977568895535143 -26.597236329580529 -6.8280066005675968 #
edge $-1 $335 -26.597236329580529 $344 26.597236329580529 $330 $383 forward 7 unknown #
vertex $-1 $343 $384 #
straight-curve $-1 -68.449543674327131 -26.597236329580529 -2.7461226900515761 1 0 0 I I #
coedge $-1 $274 $273 $266 $347 forward $263 $-1 #
edge $-1 $348 63.313438239769631 $351 68.255537965952541 $346 $385 forward 7 unknown #
vertex $-1 $278 $386 #
straight-curve $-1 -43.361399513953401 25.175748604187575 6.8280066005675906 0 1 0 I I #
edge $-1 $351 18.01264480097726 $275 32.68486462497502 $274 $387 forward 7 unknown #
vertex $-1 $350 $388 #
straight-curve $-1 -43.361399513953401 -18.514234702488821 30.07468305940202 0 -0.84804809178421925 0.52991927123019833 I I #
point $-1 -43.361399513953401 18.688223637011198 6.8280066005675977 #
point $-1 -58.033619337951166 26.597236329580525 1.8859068743846876 #
straight-curve $-1 0 26.597236329580529 6.8280066005675968 -1 0 0 I I #
vertex $-1 $281 $389 #
point $-1 -49.697509425952283 21.496110630586696 2.5219822293581799 #
edge $-1 $359 45.9150555331044 $362 51.043724873261915 $286 $390 forward 7 unknown #
vertex $-1 $300 $391 #
straight-curve $-1 13.306472262653529 -52.403095789077099 6.8280066005675977 0 -1 0 I I #
edge $-1 $362 -0.12153926971254947 $297 26.977562334444706 $296 $392 forward 7 unknown #
vertex $-1 $361 $393 #
straight-curve $-1 13.306472262653529 -26.597236329580539 1.6993372604100756 0 0.79863550430605224 0.6018150307709319 I I #
point $-1 13.306472262653529 -19.791262375010568 6.8280066005675959 #
point $-1 40.405573866810784 -26.597236329580529 1.6993372604100836 #
straight-curve $-1 0 -26.597236329580529 6.8280066005675968 1 0 0 I I #
vertex $-1 $303 $394 #
point $-1 23.049072720984171 -20.495439444414359 0.68223028878406411 #
vertex $-1 $307 $395 #
point $-1 34.662973408480141 -20.495439444414359 0.68223028878406411 #
point $-1 -64.977568895535143 -26.597236329580529 -6.8280066005675968 #
straight-curve $-1 -64.977568895535143 0 -6.8280066005675968 0 1 0 I I #
point $-1 -64.977568895535143 26.597236329580529 -6.8280066005675968 #
straight-curve $-1 -64.977568895535143 26.597236329580529 0 0 0 -1 I I #
coedge $-1 $330 $329 $340 $380 reversed $160 $-1 #
edge $-1 $381 -26.597236329580529 $333 26.597236329580529 $329 $396 forward 7 unknown #
straight-curve $-1 -71.92151845311912 26.597236329580529 -4.7870646453095862 0 0 -1 I I #
point $-1 -71.92151845311912 26.597236329580529 -6.8280066005675959 #
point $-1 -71.92151845311912 26.597236329580529 -2.7461226900515761 #
edge $-1 $344 -2.0409419552580101 $381 2.0409419552580097 $375 $397 forward 7 unknown #
vertex $-1 $376 $398 #
straight-curve $-1 -68.449543674327131 -26.597236329580529 -6.8280066005675959 -1 0 0 I I #
straight-curve $-1 -71.92151845311912 0 -2.7461226900515761 0 -1 0 I I #
point $-1 -71.92151845311912 -26.597236329580529 -2.7461226900515761 #
straight-curve $-1 -43.361399513953401 26.597236329580529 70.141444840337229 0 0 -1 I I #
point $-1 -43.361399513953401 26.597236329580529 6.8280066005675968 #
straight-curve $-1 -25.348754712976142 26.597236329580532 1.8859068743846841 -1 0 0 I I #
point $-1 -43.361399513953401 26.597236329580525 1.8859068743846876 #
point $-1 -50.697509425952283 20.966191359356497 1.6739341375739605 #
straight-curve $-1 13.306472262653529 -26.597236329580525 52.743062133671998 0 0 -1 I I #
point $-1 13.306472262653529 -26.597236329580529 6.8280066005675968 #
straight-curve $-1 13.428011532366078 -26.597236329580529 1.6993372604100825 1 0 0 I I #
point $-1 13.306472262653529 -26.597236329580529 1.6993372604100836 #
point $-1 21.049072720984171 -19.291809382872493 -0.91504071982804036 #
point $-1 32.662973408480141 -19.291809382872493 -0.91504071982804036 #
straight-curve $-1 -71.92151845311912 0 -6.8280066005675959 0 1 0 I I #
straight-curve $-1 -71.92151845311912 -26.597236329580529 -4.7870646453095862 0 0 -1 I I #
point $-1 -71.92151845311912 -26.597236329580529 -6.8280066005675959 #
End-of-ACIS-data 