500 0 16 0           
7 Unknown 11 ACIS 5.0 NT 24 Fri Mar 26 01:31:08 1999 
-1 9.9999999999999995e-007 1e-010 
body $-1 $16 $-1 $17 #
body $-1 $18 $-1 $19 #
body $-1 $20 $-1 $21 #
body $-1 $22 $-1 $23 #
body $-1 $24 $-1 $25 #
body $-1 $26 $-1 $27 #
body $-1 $28 $-1 $29 #
body $-1 $30 $-1 $31 #
body $-1 $32 $-1 $33 #
body $-1 $34 $-1 $35 #
body $-1 $36 $-1 $37 #
body $-1 $38 $-1 $39 #
body $-1 $40 $-1 $41 #
body $-1 $42 $-1 $43 #
body $-1 $44 $-1 $45 #
body $-1 $46 $-1 $47 #
lump $-1 $-1 $48 $0 #
transform $-1 1 0 0 0 1 0 0 0 1 55.876949369792783 25.992237241256618 10.228965070031684 1 rotate no_reflect no_shear #
lump $-1 $-1 $49 $1 #
transform $-1 1 0 0 0 1 0 0 0 1 55.876949369792783 25.992237241256618 10.228965070031684 1 rotate no_reflect no_shear #
lump $-1 $-1 $50 $2 #
transform $-1 1 0 0 0 1 0 0 0 1 55.876949369792783 25.992237241256618 10.228965070031684 1 rotate no_reflect no_shear #
lump $-1 $-1 $51 $3 #
transform $-1 1 0 0 0 1 0 0 0 1 55.876949369792783 25.992237241256618 10.228965070031684 1 rotate no_reflect no_shear #
lump $-1 $-1 $52 $4 #
transform $-1 1 0 0 0 1 0 0 0 1 55.876949369792783 25.992237241256618 10.228965070031684 1 rotate no_reflect no_shear #
lump $-1 $-1 $53 $5 #
transform $-1 1 0 0 0 1 0 0 0 1 55.876949369792783 25.992237241256618 10.228965070031684 1 rotate no_reflect no_shear #
lump $-1 $-1 $54 $6 #
transform $-1 1 0 0 0 1 0 0 0 1 55.876949369792783 25.992237241256618 10.228965070031684 1 rotate no_reflect no_shear #
lump $-1 $-1 $55 $7 #
transform $-1 1 0 0 0 1 0 0 0 1 55.876949369792783 25.992237241256618 10.228965070031684 1 rotate no_reflect no_shear #
lump $-1 $-1 $56 $8 #
transform $-1 1 0 0 0 1 0 0 0 1 55.876949369792783 25.992237241256618 10.228965070031684 1 rotate no_reflect no_shear #
lump $-1 $-1 $57 $9 #
transform $-1 1 0 0 0 1 0 0 0 1 55.876949369792783 25.992237241256618 10.228965070031684 1 rotate no_reflect no_shear #
lump $-1 $-1 $58 $10 #
transform $-1 1 0 0 0 1 0 0 0 1 55.876949369792783 25.992237241256618 10.228965070031684 1 rotate no_reflect no_shear #
lump $-1 $-1 $59 $11 #
transform $-1 1 0 0 0 1 0 0 0 1 55.876949369792783 25.992237241256618 10.228965070031684 1 rotate no_reflect no_shear #
lump $-1 $-1 $60 $12 #
transform $-1 1 0 0 0 1 0 0 0 1 55.876949369792783 25.992237241256618 10.228965070031684 1 rotate no_reflect no_shear #
lump $-1 $-1 $61 $13 #
transform $-1 1 0 0 0 1 0 0 0 1 55.876949369792783 25.992237241256618 10.228965070031684 1 rotate no_reflect no_shear #
lump $-1 $-1 $62 $14 #
transform $-1 1 0 0 0 1 0 0 0 1 55.876949369792783 25.992237241256618 10.228965070031684 1 rotate no_reflect no_shear #
lump $-1 $-1 $63 $15 #
transform $-1 1 0 0 0 1 0 0 0 1 55.876949369792783 25.992237241256618 10.228965070031684 1 rotate no_reflect no_shear #
shell $-1 $-1 $-1 $64 $-1 $16 #
shell $-1 $-1 $-1 $65 $-1 $18 #
shell $-1 $-1 $-1 $66 $-1 $20 #
shell $-1 $-1 $-1 $67 $-1 $22 #
shell $-1 $-1 $-1 $68 $-1 $24 #
shell $-1 $-1 $-1 $69 $-1 $26 #
shell $-1 $-1 $-1 $70 $-1 $28 #
shell $-1 $-1 $-1 $71 $-1 $30 #
shell $-1 $-1 $-1 $72 $-1 $32 #
shell $-1 $-1 $-1 $73 $-1 $34 #
shell $-1 $-1 $-1 $74 $-1 $36 #
shell $-1 $-1 $-1 $75 $-1 $38 #
shell $-1 $-1 $-1 $76 $-1 $40 #
shell $-1 $-1 $-1 $77 $-1 $42 #
shell $-1 $-1 $-1 $78 $-1 $44 #
shell $-1 $-1 $-1 $79 $-1 $46 #
face $-1 $80 $81 $48 $-1 $82 forward single #
face $-1 $83 $84 $49 $-1 $85 forward single #
face $-1 $86 $87 $50 $-1 $88 reversed single #
face $-1 $89 $90 $51 $-1 $91 forward single #
face $-1 $92 $93 $52 $-1 $94 forward single #
face $-1 $95 $96 $53 $-1 $97 reversed single #
face $-1 $98 $99 $54 $-1 $100 forward single #
face $-1 $101 $102 $55 $-1 $103 forward single #
face $-1 $104 $105 $56 $-1 $106 reversed single #
face $-1 $107 $108 $57 $-1 $109 forward single #
face $-1 $110 $111 $58 $-1 $112 forward single #
face $-1 $113 $114 $59 $-1 $115 reversed single #
face $-1 $116 $117 $60 $-1 $118 forward single #
face $-1 $119 $120 $61 $-1 $121 forward single #
face $-1 $122 $123 $62 $-1 $124 reversed single #
face $-1 $125 $126 $63 $-1 $127 forward single #
face $-1 $128 $129 $48 $-1 $130 reversed single #
loop $-1 $-1 $131 $64 #
plane-surface $-1 0 0 10.228965070031684 0 0 1 1 0 0 forward_v I I I I #
face $-1 $132 $133 $49 $-1 $134 reversed single #
loop $-1 $-1 $135 $65 #
plane-surface $-1 0 -22.104787229314841 -5.1798202952367234 0 0 1 1 0 0 forward_v I I I I #
face $-1 $136 $137 $50 $-1 $138 reversed single #
loop $-1 $-1 $139 $66 #
plane-surface $-1 42.102519311186015 -11.166003479704191 159.36250654331349 0 -1 0 -0.64278761758704617 0 -0.76604443648966558 forward_v I I I I #
face $-1 $140 $141 $51 $-1 $142 forward single #
loop $-1 $143 $144 $67 #
cone-surface $-1 49.937528907899662 -16.202670435181957 4.8966645091806207 -0.64278761758704617 0 -0.76604443648966558 0.76604443648966558 0 -0.64278761758704617 1 I I 0 1 1 forward I I I I #
face $-1 $145 $146 $52 $-1 $147 forward single #
loop $-1 $148 $149 $68 #
cone-surface $-1 49.937528907899662 -13.180670261895298 4.8966645091806207 -0.64278761758704617 0 -0.76604443648966558 0.76604443648966558 0 -0.64278761758704617 1 I I 0 1 1 forward I I I I #
face $-1 $150 $151 $53 $-1 $152 reversed single #
loop $-1 $-1 $153 $69 #
plane-surface $-1 42.102519311186015 -0.11360986504677317 159.36250654331349 0 -1 0 -0.64278761758704617 0 -0.76604443648966558 forward_v I I I I #
face $-1 $154 $155 $54 $-1 $156 forward single #
loop $-1 $157 $158 $70 #
cone-surface $-1 49.937528907899662 -5.1502768205245388 4.8966645091806207 -0.64278761758704617 0 -0.76604443648966558 0.76604443648966558 0 -0.64278761758704617 1 I I 0 1 1 forward I I I I #
face $-1 $159 $160 $55 $-1 $161 forward single #
loop $-1 $162 $163 $71 #
cone-surface $-1 49.937528907899662 -2.1282766472378754 4.8966645091806207 -0.64278761758704617 0 -0.76604443648966558 0.76604443648966558 0 -0.64278761758704617 1 I I 0 1 1 forward I I I I #
face $-1 $164 $165 $56 $-1 $166 reversed single #
loop $-1 $-1 $167 $72 #
plane-surface $-1 42.102519311186015 10.938783749610646 159.36250654331349 0 -1 0 -0.64278761758704617 0 -0.76604443648966558 forward_v I I I I #
face $-1 $168 $169 $57 $-1 $170 forward single #
loop $-1 $171 $172 $73 #
cone-surface $-1 49.937528907899662 5.9021167941328798 4.8966645091806207 -0.64278761758704617 0 -0.76604443648966558 0.76604443648966558 0 -0.64278761758704617 1 I I 0 1 1 forward I I I I #
face $-1 $173 $174 $58 $-1 $175 forward single #
loop $-1 $176 $177 $74 #
cone-surface $-1 49.937528907899662 8.9241169674195433 4.8966645091806207 -0.64278761758704617 0 -0.76604443648966558 0.76604443648966558 0 -0.64278761758704617 1 I I 0 1 1 forward I I I I #
face $-1 $178 $179 $59 $-1 $180 reversed single #
loop $-1 $-1 $181 $75 #
plane-surface $-1 42.102519311186015 21.991177364268065 159.36250654331349 0 -1 0 -0.64278761758704617 0 -0.76604443648966558 forward_v I I I I #
face $-1 $182 $183 $60 $-1 $184 forward single #
loop $-1 $185 $186 $76 #
cone-surface $-1 49.937528907899662 16.954510408790298 4.8966645091806207 -0.64278761758704617 0 -0.76604443648966558 0.76604443648966558 0 -0.64278761758704617 1 I I 0 1 1 forward I I I I #
face $-1 $187 $188 $61 $-1 $189 forward single #
loop $-1 $190 $191 $77 #
cone-surface $-1 49.937528907899662 19.976510582076962 4.8966645091806207 -0.64278761758704617 0 -0.76604443648966558 0.76604443648966558 0 -0.64278761758704617 1 I I 0 1 1 forward I I I I #
face $-1 $192 $193 $62 $-1 $194 reversed single #
loop $-1 $-1 $195 $78 #
plane-surface $-1 -138.92628187049655 13.704668702337013 79.344729845884501 0 1 0 -0.74314483375859142 0 0.66913059716165679 forward_v I I I I #
face $-1 $196 $197 $63 $-1 $198 forward single #
loop $-1 $199 $200 $79 #
cone-surface $-1 -51.71078853506242 16.782357741746331 5.9418885627403286 0.74314483375859142 0 -0.66913059716165679 1.0036958957424851 0 1.1147172506378871 1 I I 0 1 1.5 forward I I I I #
face $-1 $201 $202 $48 $-1 $203 reversed single #
loop $-1 $-1 $204 $80 #
plane-surface $-1 0 0 -10.228965070031684 0 0 1 1 0 0 forward_v I I I I #
coedge $-1 $205 $206 $207 $208 forward $81 $-1 #
face $-1 $209 $210 $49 $-1 $211 reversed single #
loop $-1 $-1 $212 $83 #
plane-surface $-1 0 -18.217337217373064 -7.7043926826342037 0 -1 0 0 0 -1 forward_v I I I I #
coedge $-1 $213 $214 $215 $216 reversed $84 $-1 #
face $-1 $217 $218 $50 $-1 $219 reversed single #
loop $-1 $-1 $220 $86 #
plane-surface $-1 -29.731503015696191 -14.691670348538629 73.754054157824513 0.64278761758704617 0 0.76604443648966558 0.76604443648966558 0 -0.64278761758704617 forward_v I I I I #
coedge $-1 $221 $222 $223 $224 reversed $87 $-1 #
face $-1 $-1 $225 $51 $-1 $226 forward single #
loop $-1 $227 $228 $89 #
cone-surface $-1 48.627815052667557 -16.202670435181957 3.3358083496294171 -0.64278761758704617 0 -0.76604443648966558 0.38302221824483279 0 -0.32139380879352308 1 I I -0.70710678118654746 0.70710678118654746 0.5 forward I I I I #
loop $-1 $-1 $229 $67 #
coedge $-1 $144 $144 $230 $231 reversed $90 $-1 #
face $-1 $-1 $232 $52 $-1 $233 forward single #
loop $-1 $234 $235 $92 #
cone-surface $-1 48.627815052667557 -13.180670261895298 3.3358083496294171 -0.64278761758704617 0 -0.76604443648966558 0.38302221824483279 0 -0.32139380879352308 1 I I -0.70710678118654746 0.70710678118654746 0.5 forward I I I I #
loop $-1 $-1 $236 $68 #
coedge $-1 $149 $149 $237 $238 reversed $93 $-1 #
face $-1 $239 $240 $53 $-1 $241 reversed single #
loop $-1 $-1 $242 $95 #
plane-surface $-1 -29.731503015696191 -3.6392767338812106 73.754054157824513 0.64278761758704617 0 0.76604443648966558 0.76604443648966558 0 -0.64278761758704617 forward_v I I I I #
coedge $-1 $243 $244 $245 $246 reversed $96 $-1 #
face $-1 $-1 $247 $54 $-1 $248 forward single #
loop $-1 $249 $250 $98 #
cone-surface $-1 48.627815052667557 -5.1502768205245388 3.3358083496294171 -0.64278761758704617 0 -0.76604443648966558 0.38302221824483279 0 -0.32139380879352308 1 I I -0.70710678118654746 0.70710678118654746 0.5 forward I I I I #
loop $-1 $-1 $251 $70 #
coedge $-1 $158 $158 $252 $253 reversed $99 $-1 #
face $-1 $-1 $254 $55 $-1 $255 forward single #
loop $-1 $256 $257 $101 #
cone-surface $-1 48.627815052667557 -2.1282766472378754 3.3358083496294171 -0.64278761758704617 0 -0.76604443648966558 0.38302221824483279 0 -0.32139380879352308 1 I I -0.70710678118654746 0.70710678118654746 0.5 forward I I I I #
loop $-1 $-1 $258 $71 #
coedge $-1 $163 $163 $259 $260 reversed $102 $-1 #
face $-1 $261 $262 $56 $-1 $263 reversed single #
loop $-1 $-1 $264 $104 #
plane-surface $-1 -29.731503015696191 7.413116880776208 73.754054157824513 0.64278761758704617 0 0.76604443648966558 0.76604443648966558 0 -0.64278761758704617 forward_v I I I I #
coedge $-1 $265 $266 $267 $268 reversed $105 $-1 #
face $-1 $-1 $269 $57 $-1 $270 forward single #
loop $-1 $271 $272 $107 #
cone-surface $-1 48.627815052667557 5.9021167941328798 3.3358083496294171 -0.64278761758704617 0 -0.76604443648966558 0.38302221824483279 0 -0.32139380879352308 1 I I -0.70710678118654746 0.70710678118654746 0.5 forward I I I I #
loop $-1 $-1 $273 $73 #
coedge $-1 $172 $172 $274 $275 reversed $108 $-1 #
face $-1 $-1 $276 $58 $-1 $277 forward single #
loop $-1 $278 $279 $110 #
cone-surface $-1 48.627815052667557 8.9241169674195433 3.3358083496294171 -0.64278761758704617 0 -0.76604443648966558 0.38302221824483279 0 -0.32139380879352308 1 I I -0.70710678118654746 0.70710678118654746 0.5 forward I I I I #
loop $-1 $-1 $280 $74 #
coedge $-1 $177 $177 $281 $282 reversed $111 $-1 #
face $-1 $283 $284 $59 $-1 $285 reversed single #
loop $-1 $-1 $286 $113 #
plane-surface $-1 -29.731503015696191 18.465510495433627 73.754054157824513 0.64278761758704617 0 0.76604443648966558 0.76604443648966558 0 -0.64278761758704617 forward_v I I I I #
coedge $-1 $287 $288 $289 $290 reversed $114 $-1 #
face $-1 $-1 $291 $60 $-1 $292 forward single #
loop $-1 $293 $294 $116 #
cone-surface $-1 48.627815052667557 16.954510408790298 3.3358083496294171 -0.64278761758704617 0 -0.76604443648966558 0.38302221824483279 0 -0.32139380879352308 1 I I -0.70710678118654746 0.70710678118654746 0.5 forward I I I I #
loop $-1 $-1 $295 $76 #
coedge $-1 $186 $186 $296 $297 reversed $117 $-1 #
face $-1 $-1 $298 $61 $-1 $299 forward single #
loop $-1 $300 $301 $119 #
cone-surface $-1 48.627815052667557 19.976510582076962 3.3358083496294171 -0.64278761758704617 0 -0.76604443648966558 0.38302221824483279 0 -0.32139380879352308 1 I I -0.70710678118654746 0.70710678118654746 0.5 forward I I I I #
loop $-1 $-1 $302 $77 #
coedge $-1 $191 $191 $303 $304 reversed $120 $-1 #
face $-1 $305 $306 $62 $-1 $307 reversed single #
loop $-1 $-1 $308 $122 #
plane-surface $-1 -55.876949369792783 16.782357741746324 4.5667768471222843 -0.74314483375859142 0 0.66913059716165679 0.66913059716165679 0 0.74314483375859142 forward_v I I I I #
coedge $-1 $309 $310 $311 $312 reversed $123 $-1 #
face $-1 $-1 $313 $63 $-1 $314 forward single #
loop $-1 $315 $316 $125 #
cone-surface $-1 -49.536397599310867 16.782357741746331 3.9840582190324305 0.74314483375859142 0 -0.66913059716165679 0.50184794787124254 0 0.55735862531894353 1 I I -0.70710678118654757 0.70710678118654757 0.75 forward I I I I #
loop $-1 $-1 $317 $79 #
coedge $-1 $200 $200 $318 $319 reversed $126 $-1 #
face $-1 $320 $321 $48 $-1 $322 reversed single #
loop $-1 $-1 $323 $128 #
plane-surface $-1 0 -25.992237241256618 0 0 1 0 0 0 1 forward_v I I I I #
coedge $-1 $324 $325 $326 $327 forward $129 $-1 #
coedge $-1 $328 $131 $329 $330 forward $81 $-1 #
coedge $-1 $131 $328 $331 $332 forward $81 $-1 #
coedge $-1 $333 $334 $131 $208 reversed $335 $-1 #
edge $-1 $336 -25.992237241256618 $337 25.992237241256618 $207 $338 forward 7 unknown #
face $-1 $339 $340 $49 $-1 $341 reversed single #
loop $-1 $-1 $342 $132 #
plane-surface $-1 0 0 -10.228965070031684 0 0 1 1 0 0 forward_v I I I I #
coedge $-1 $343 $344 $345 $346 reversed $133 $-1 #
coedge $-1 $347 $135 $344 $348 forward $84 $-1 #
coedge $-1 $135 $347 $349 $350 reversed $84 $-1 #
coedge $-1 $351 $345 $135 $216 forward $340 $-1 #
edge $-1 $352 7.1649436027156437 $353 14.939843626599197 $215 $354 forward 7 unknown #
face $-1 $355 $356 $50 $-1 $357 reversed single #
loop $-1 $-1 $358 $136 #
plane-surface $-1 42.102519311186015 -18.217337217373068 159.36250654331349 0 1 0 0.64278761758704617 0 0.76604443648966558 forward_v I I I I #
coedge $-1 $359 $360 $361 $362 reversed $137 $-1 #
coedge $-1 $222 $139 $363 $364 reversed $87 $-1 #
coedge $-1 $139 $221 $359 $365 reversed $87 $-1 #
coedge $-1 $361 $366 $139 $224 forward $367 $-1 #
edge $-1 $368 -34.825689714199775 $369 -24.923488883290752 $223 $370 forward 7 unknown #
loop $-1 $-1 $230 $140 #
plane-surface $-1 -29.731503015696191 -14.691670348538629 73.754054157824513 0.64278761758704617 0 0.76604443648966558 0.76604443648966558 0 -0.64278761758704617 forward_v I I I I #
loop $-1 $-1 $371 $89 #
coedge $-1 $228 $228 $229 $372 reversed $141 $-1 #
coedge $-1 $229 $229 $228 $372 forward $143 $-1 #
coedge $-1 $230 $230 $144 $231 forward $225 $-1 #
edge $-1 $373 0 $373 6.2831853071796004 $230 $374 forward 7 unknown #
loop $-1 $-1 $237 $145 #
plane-surface $-1 -29.731503015696191 -14.691670348538629 73.754054157824513 0.64278761758704617 0 0.76604443648966558 0.76604443648966558 0 -0.64278761758704617 forward_v I I I I #
loop $-1 $-1 $375 $92 #
coedge $-1 $235 $235 $236 $376 reversed $146 $-1 #
coedge $-1 $236 $236 $235 $376 forward $148 $-1 #
coedge $-1 $237 $237 $149 $238 forward $232 $-1 #
edge $-1 $377 0 $377 6.2831853071796004 $237 $378 forward 7 unknown #
face $-1 $379 $380 $53 $-1 $381 reversed single #
loop $-1 $-1 $382 $150 #
plane-surface $-1 42.102519311186015 -7.1649436027156481 159.36250654331349 0 1 0 0.64278761758704617 0 0.76604443648966558 forward_v I I I I #
coedge $-1 $383 $384 $385 $386 reversed $151 $-1 #
coedge $-1 $244 $153 $387 $388 reversed $96 $-1 #
coedge $-1 $153 $243 $383 $389 reversed $96 $-1 #
coedge $-1 $385 $390 $153 $246 forward $391 $-1 #
edge $-1 $392 -34.825689714199775 $393 -24.923488883290752 $245 $394 forward 7 unknown #
loop $-1 $-1 $252 $154 #
plane-surface $-1 -29.731503015696191 -3.6392767338812106 73.754054157824513 0.64278761758704617 0 0.76604443648966558 0.76604443648966558 0 -0.64278761758704617 forward_v I I I I #
loop $-1 $-1 $395 $98 #
coedge $-1 $250 $250 $251 $396 reversed $155 $-1 #
coedge $-1 $251 $251 $250 $396 forward $157 $-1 #
coedge $-1 $252 $252 $158 $253 forward $247 $-1 #
edge $-1 $397 0 $397 6.2831853071796004 $252 $398 forward 7 unknown #
loop $-1 $-1 $259 $159 #
plane-surface $-1 -29.731503015696191 -3.6392767338812106 73.754054157824513 0.64278761758704617 0 0.76604443648966558 0.76604443648966558 0 -0.64278761758704617 forward_v I I I I #
loop $-1 $-1 $399 $101 #
coedge $-1 $257 $257 $258 $400 reversed $160 $-1 #
coedge $-1 $258 $258 $257 $400 forward $162 $-1 #
coedge $-1 $259 $259 $163 $260 forward $254 $-1 #
edge $-1 $401 0 $401 6.2831853071796004 $259 $402 forward 7 unknown #
face $-1 $403 $404 $56 $-1 $405 reversed single #
loop $-1 $-1 $406 $164 #
plane-surface $-1 42.102519311186015 3.8874500119417705 159.36250654331349 0 1 0 0.64278761758704617 0 0.76604443648966558 forward_v I I I I #
coedge $-1 $407 $408 $409 $410 reversed $165 $-1 #
coedge $-1 $266 $167 $411 $412 reversed $105 $-1 #
coedge $-1 $167 $265 $407 $413 reversed $105 $-1 #
coedge $-1 $409 $414 $167 $268 forward $415 $-1 #
edge $-1 $416 -34.825689714199775 $417 -24.923488883290752 $267 $418 forward 7 unknown #
loop $-1 $-1 $274 $168 #
plane-surface $-1 -29.731503015696191 7.413116880776208 73.754054157824513 0.64278761758704617 0 0.76604443648966558 0.76604443648966558 0 -0.64278761758704617 forward_v I I I I #
loop $-1 $-1 $419 $107 #
coedge $-1 $272 $272 $273 $420 reversed $169 $-1 #
coedge $-1 $273 $273 $272 $420 forward $171 $-1 #
coedge $-1 $274 $274 $172 $275 forward $269 $-1 #
edge $-1 $421 0 $421 6.2831853071796004 $274 $422 forward 7 unknown #
loop $-1 $-1 $281 $173 #
plane-surface $-1 -29.731503015696191 7.413116880776208 73.754054157824513 0.64278761758704617 0 0.76604443648966558 0.76604443648966558 0 -0.64278761758704617 forward_v I I I I #
loop $-1 $-1 $423 $110 #
coedge $-1 $279 $279 $280 $424 reversed $174 $-1 #
coedge $-1 $280 $280 $279 $424 forward $176 $-1 #
coedge $-1 $281 $281 $177 $282 forward $276 $-1 #
edge $-1 $425 0 $425 6.2831853071796004 $281 $426 forward 7 unknown #
face $-1 $427 $428 $59 $-1 $429 reversed single #
loop $-1 $-1 $430 $178 #
plane-surface $-1 42.102519311186015 14.939843626599188 159.36250654331349 0 1 0 0.64278761758704617 0 0.76604443648966558 forward_v I I I I #
coedge $-1 $431 $432 $433 $434 reversed $179 $-1 #
coedge $-1 $288 $181 $435 $436 reversed $114 $-1 #
coedge $-1 $181 $287 $431 $437 reversed $114 $-1 #
coedge $-1 $433 $438 $181 $290 forward $439 $-1 #
edge $-1 $440 -34.825689714199775 $441 -24.923488883290752 $289 $442 forward 7 unknown #
loop $-1 $-1 $296 $182 #
plane-surface $-1 -29.731503015696191 18.465510495433627 73.754054157824513 0.64278761758704617 0 0.76604443648966558 0.76604443648966558 0 -0.64278761758704617 forward_v I I I I #
loop $-1 $-1 $443 $116 #
coedge $-1 $294 $294 $295 $444 reversed $183 $-1 #
coedge $-1 $295 $295 $294 $444 forward $185 $-1 #
coedge $-1 $296 $296 $186 $297 forward $291 $-1 #
edge $-1 $445 0 $445 6.2831853071796004 $296 $446 forward 7 unknown #
loop $-1 $-1 $303 $187 #
plane-surface $-1 -29.731503015696191 18.465510495433627 73.754054157824513 0.64278761758704617 0 0.76604443648966558 0.76604443648966558 0 -0.64278761758704617 forward_v I I I I #
loop $-1 $-1 $447 $119 #
coedge $-1 $301 $301 $302 $448 reversed $188 $-1 #
coedge $-1 $302 $302 $301 $448 forward $190 $-1 #
coedge $-1 $303 $303 $191 $304 forward $298 $-1 #
edge $-1 $449 0 $449 6.2831853071796004 $303 $450 forward 7 unknown #
face $-1 $451 $452 $62 $-1 $453 forward single #
loop $-1 $-1 $454 $192 #
plane-surface $-1 -138.92628187049655 19.860046781155635 79.344729845884501 0 -1 0 0.74314483375859142 0 -0.66913059716165679 forward_v I I I I #
coedge $-1 $455 $456 $457 $458 reversed $193 $-1 #
coedge $-1 $310 $195 $459 $460 reversed $123 $-1 #
coedge $-1 $195 $309 $455 $461 reversed $123 $-1 #
coedge $-1 $457 $462 $195 $312 forward $452 $-1 #
edge $-1 $463 13.586191565455493 $464 18.684448614050993 $311 $465 forward 7 unknown #
loop $-1 $-1 $318 $196 #
plane-surface $-1 -55.876949369792783 16.782357741746324 4.5667768471222843 -0.74314483375859142 0 0.66913059716165679 0.66913059716165679 0 0.74314483375859142 forward_v I I I I #
loop $-1 $-1 $466 $125 #
coedge $-1 $316 $316 $317 $467 reversed $197 $-1 #
coedge $-1 $317 $317 $316 $467 forward $199 $-1 #
coedge $-1 $318 $318 $200 $319 forward $313 $-1 #
edge $-1 $468 0 $468 6.2831853071796004 $318 $469 forward 7 unknown #
face $-1 $470 $471 $48 $-1 $472 reversed single #
loop $-1 $-1 $473 $201 #
plane-surface $-1 -55.876949369792783 0 0 1 0 0 0 0 -1 forward_v I I I I #
coedge $-1 $474 $331 $475 $476 forward $202 $-1 #
coedge $-1 $477 $204 $474 $478 forward $129 $-1 #
coedge $-1 $204 $477 $479 $480 forward $129 $-1 #
coedge $-1 $334 $333 $204 $327 reversed $335 $-1 #
edge $-1 $481 -25.992237241256618 $482 25.992237241256618 $326 $483 forward 7 unknown #
coedge $-1 $206 $205 $484 $485 forward $81 $-1 #
coedge $-1 $486 $487 $205 $330 reversed $471 $-1 #
edge $-1 $337 -55.876949369792783 $488 55.876949369792783 $329 $489 forward 7 unknown #
coedge $-1 $323 $490 $206 $332 reversed $202 $-1 #
edge $-1 $491 -55.876949369792783 $336 55.876949369792783 $331 $492 forward 7 unknown #
coedge $-1 $326 $207 $490 $493 forward $335 $-1 #
coedge $-1 $207 $326 $486 $494 reversed $335 $-1 #
loop $-1 $-1 $333 $470 #
vertex $-1 $208 $495 #
vertex $-1 $208 $496 #
straight-curve $-1 55.876949369792783 0 10.228965070031684 0 1 0 I I #
face $-1 $497 $498 $49 $-1 $499 reversed single #
loop $-1 $-1 $345 $209 #
plane-surface $-1 55.876949369792783 0 0 -1 0 0 0 0 1 forward_v I I I I #
coedge $-1 $500 $501 $343 $502 forward $210 $-1 #
coedge $-1 $503 $212 $342 $502 reversed $133 $-1 #
coedge $-1 $212 $503 $213 $348 reversed $133 $-1 #
coedge $-1 $215 $504 $212 $346 forward $340 $-1 #
edge $-1 $505 -6.3767687287145822 $352 -1.3276239539196215 $345 $506 forward 7 unknown #
coedge $-1 $214 $213 $507 $508 reversed $84 $-1 #
edge $-1 $352 -55.876949369792783 $509 55.876949369792783 $344 $510 forward 7 unknown #
coedge $-1 $511 $512 $214 $350 forward $498 $-1 #
edge $-1 $353 -55.876949369792783 $513 55.876949369792783 $349 $514 forward 7 unknown #
coedge $-1 $504 $215 $512 $515 forward $340 $-1 #
vertex $-1 $216 $516 #
vertex $-1 $515 $517 #
straight-curve $-1 55.876949369792783 -11.05239361465742 -5.1798202952367234 0 -1 0 I I #
face $-1 $-1 $367 $50 $-1 $518 forward single #
loop $-1 $-1 $519 $217 #
plane-surface $-1 55.876949369792783 0 0 -1 0 0 0 0 1 forward_v I I I I #
coedge $-1 $520 $521 $522 $523 reversed $218 $-1 #
coedge $-1 $524 $220 $222 $365 forward $137 $-1 #
coedge $-1 $220 $524 $520 $525 forward $137 $-1 #
coedge $-1 $522 $223 $220 $362 forward $367 $-1 #
edge $-1 $369 3.8201683054348763 $526 10.871502043103753 $361 $527 forward 7 unknown #
coedge $-1 $528 $529 $221 $364 forward $356 $-1 #
edge $-1 $530 -77.761221440714436 $368 -69.452288201625066 $363 $531 forward 7 unknown #
edge $-1 $369 98.82749348262027 $530 111.75389873958557 $222 $532 forward 7 unknown #
coedge $-1 $223 $522 $528 $533 forward $367 $-1 #
loop $-1 $-1 $522 $355 #
vertex $-1 $364 $534 #
vertex $-1 $224 $535 #
straight-curve $-1 21.051259655593007 -11.166003479704191 10.228965070031677 -1 0 0 I I #
coedge $-1 $371 $371 $-1 $536 reversed $227 $-1 #
edge $-1 $537 0 $537 6.2831853071796004 $228 $538 forward 7 unknown #
vertex $-1 $231 $539 #
ellipse-curve $-1 50.925848954338257 -16.202670435181957 6.074498450487007 0.64278761758704617 0 0.76604443648966558 0.76604443648966558 0 -0.64278761758704617 1 I I #
coedge $-1 $375 $375 $-1 $540 reversed $234 $-1 #
edge $-1 $541 0 $541 6.2831853071796004 $235 $542 forward 7 unknown #
vertex $-1 $238 $543 #
ellipse-curve $-1 50.925848954338257 -13.180670261895298 6.074498450487007 0.64278761758704617 0 0.76604443648966558 0.76604443648966558 0 -0.64278761758704617 1 I I #
face $-1 $-1 $391 $53 $-1 $544 forward single #
loop $-1 $-1 $545 $239 #
plane-surface $-1 55.876949369792783 0 0 -1 0 0 0 0 1 forward_v I I I I #
coedge $-1 $546 $547 $548 $549 reversed $240 $-1 #
coedge $-1 $550 $242 $244 $389 forward $151 $-1 #
coedge $-1 $242 $550 $546 $551 forward $151 $-1 #
coedge $-1 $548 $245 $242 $386 forward $391 $-1 #
edge $-1 $393 -1.7060285018938321 $552 5.3453052357750428 $385 $553 forward 7 unknown #
coedge $-1 $554 $555 $243 $388 forward $380 $-1 #
edge $-1 $556 -77.761221440714436 $392 -69.452288201625066 $387 $557 forward 7 unknown #
edge $-1 $393 98.82749348262027 $556 111.75389873958557 $244 $558 forward 7 unknown #
coedge $-1 $245 $548 $554 $559 forward $391 $-1 #
loop $-1 $-1 $548 $379 #
vertex $-1 $388 $560 #
vertex $-1 $246 $561 #
straight-curve $-1 21.051259655593007 -0.11360986504677317 10.228965070031677 -1 0 0 I I #
coedge $-1 $395 $395 $-1 $562 reversed $249 $-1 #
edge $-1 $563 0 $563 6.2831853071796004 $250 $564 forward 7 unknown #
vertex $-1 $253 $565 #
ellipse-curve $-1 50.925848954338257 -5.1502768205245388 6.074498450487007 0.64278761758704617 0 0.76604443648966558 0.76604443648966558 0 -0.64278761758704617 1 I I #
coedge $-1 $399 $399 $-1 $566 reversed $256 $-1 #
edge $-1 $567 0 $567 6.2831853071796004 $257 $568 forward 7 unknown #
vertex $-1 $260 $569 #
ellipse-curve $-1 50.925848954338257 -2.1282766472378754 6.074498450487007 0.64278761758704617 0 0.76604443648966558 0.76604443648966558 0 -0.64278761758704617 1 I I #
face $-1 $-1 $415 $56 $-1 $570 forward single #
loop $-1 $-1 $571 $261 #
plane-surface $-1 55.876949369792783 0 0 -1 0 0 0 0 1 forward_v I I I I #
coedge $-1 $572 $573 $574 $575 reversed $262 $-1 #
coedge $-1 $576 $264 $266 $413 forward $165 $-1 #
coedge $-1 $264 $576 $572 $577 forward $165 $-1 #
coedge $-1 $574 $267 $264 $410 forward $415 $-1 #
edge $-1 $417 -7.2322253092225424 $578 -0.18089157155366653 $409 $579 forward 7 unknown #
coedge $-1 $580 $581 $265 $412 forward $404 $-1 #
edge $-1 $582 -77.761221440714436 $416 -69.452288201625066 $411 $583 forward 7 unknown #
edge $-1 $417 98.82749348262027 $582 111.75389873958557 $266 $584 forward 7 unknown #
coedge $-1 $267 $574 $580 $585 forward $415 $-1 #
loop $-1 $-1 $574 $403 #
vertex $-1 $412 $586 #
vertex $-1 $268 $587 #
straight-curve $-1 21.051259655593007 10.938783749610646 10.228965070031677 -1 0 0 I I #
coedge $-1 $419 $419 $-1 $588 reversed $271 $-1 #
edge $-1 $589 0 $589 6.2831853071796004 $272 $590 forward 7 unknown #
vertex $-1 $275 $591 #
ellipse-curve $-1 50.925848954338257 5.9021167941328798 6.074498450487007 0.64278761758704617 0 0.76604443648966558 0.76604443648966558 0 -0.64278761758704617 1 I I #
coedge $-1 $423 $423 $-1 $592 reversed $278 $-1 #
edge $-1 $593 0 $593 6.2831853071796004 $279 $594 forward 7 unknown #
vertex $-1 $282 $595 #
ellipse-curve $-1 50.925848954338257 8.9241169674195433 6.074498450487007 0.64278761758704617 0 0.76604443648966558 0.76604443648966558 0 -0.64278761758704617 1 I I #
face $-1 $-1 $439 $59 $-1 $596 forward single #
loop $-1 $-1 $597 $283 #
plane-surface $-1 55.876949369792783 0 0 -1 0 0 0 0 1 forward_v I I I I #
coedge $-1 $598 $599 $600 $601 reversed $284 $-1 #
coedge $-1 $602 $286 $288 $437 forward $179 $-1 #
coedge $-1 $286 $602 $598 $603 forward $179 $-1 #
coedge $-1 $600 $289 $286 $434 forward $439 $-1 #
edge $-1 $441 -12.758422116551252 $604 -5.707088378882375 $433 $605 forward 7 unknown #
coedge $-1 $606 $607 $287 $436 forward $428 $-1 #
edge $-1 $608 -77.761221440714436 $440 -69.452288201625066 $435 $609 forward 7 unknown #
edge $-1 $441 98.82749348262027 $608 111.75389873958557 $288 $610 forward 7 unknown #
coedge $-1 $289 $600 $606 $611 forward $439 $-1 #
loop $-1 $-1 $600 $427 #
vertex $-1 $436 $612 #
vertex $-1 $290 $613 #
straight-curve $-1 21.051259655593007 21.991177364268065 10.228965070031677 -1 0 0 I I #
coedge $-1 $443 $443 $-1 $614 reversed $293 $-1 #
edge $-1 $615 0 $615 6.2831853071796004 $294 $616 forward 7 unknown #
vertex $-1 $297 $617 #
ellipse-curve $-1 50.925848954338257 16.954510408790298 6.074498450487007 0.64278761758704617 0 0.76604443648966558 0.76604443648966558 0 -0.64278761758704617 1 I I #
coedge $-1 $447 $447 $-1 $618 reversed $300 $-1 #
edge $-1 $619 0 $619 6.2831853071796004 $301 $620 forward 7 unknown #
vertex $-1 $304 $621 #
ellipse-curve $-1 50.925848954338257 19.976510582076962 6.074498450487007 0.64278761758704617 0 0.76604443648966558 0.76604443648966558 0 -0.64278761758704617 1 I I #
face $-1 $-1 $622 $62 $-1 $623 reversed single #
loop $-1 $-1 $311 $305 #
plane-surface $-1 0 0 10.228965070031684 0 0 1 1 0 0 forward_v I I I I #
coedge $-1 $624 $625 $626 $627 reversed $306 $-1 #
coedge $-1 $628 $308 $310 $461 forward $193 $-1 #
coedge $-1 $308 $628 $624 $629 forward $193 $-1 #
coedge $-1 $626 $311 $308 $458 forward $452 $-1 #
edge $-1 $464 5.3134898314638512 $630 11.468867910282473 $457 $631 forward 7 unknown #
coedge $-1 $632 $633 $309 $460 forward $622 $-1 #
edge $-1 $634 -35.105588075819966 $463 -29.443399852910566 $459 $635 forward 7 unknown #
edge $-1 $464 -7.6192257090341924 $634 0 $310 $636 forward 7 unknown #
coedge $-1 $311 $626 $632 $637 forward $452 $-1 #
vertex $-1 $460 $638 #
vertex $-1 $312 $639 #
straight-curve $-1 -69.463140935248276 13.704668702337013 10.228965070031684 1 0 0 I I #
coedge $-1 $466 $466 $-1 $640 reversed $315 $-1 #
edge $-1 $641 0 $641 6.2831853071796004 $316 $642 forward 7 unknown #
vertex $-1 $319 $643 #
ellipse-curve $-1 -53.327820845495033 16.782357741746331 7.397870958576986 -0.74314483375859142 0 0.66913059716165679 1.0036958957424851 0 1.1147172506378871 1 I I #
face $-1 $-1 $335 $48 $-1 $644 reversed single #
loop $-1 $-1 $486 $320 #
plane-surface $-1 0 25.992237241256618 0 0 -1 0 0 0 -1 forward_v I I I I #
coedge $-1 $645 $484 $487 $646 forward $321 $-1 #
coedge $-1 $490 $323 $324 $478 reversed $202 $-1 #
coedge $-1 $484 $645 $323 $476 reversed $321 $-1 #
edge $-1 $491 -10.228965070031684 $647 10.228965070031684 $475 $648 forward 7 unknown #
coedge $-1 $325 $324 $645 $649 forward $129 $-1 #
edge $-1 $482 -55.876949369792783 $647 55.876949369792783 $474 $650 forward 7 unknown #
coedge $-1 $487 $486 $325 $480 reversed $471 $-1 #
edge $-1 $651 -55.876949369792783 $481 55.876949369792783 $479 $652 forward 7 unknown #
vertex $-1 $327 $653 #
vertex $-1 $493 $654 #
straight-curve $-1 55.876949369792783 0 -10.228965070031684 0 -1 0 I I #
coedge $-1 $473 $475 $328 $485 reversed $321 $-1 #
edge $-1 $488 -25.992237241256618 $491 25.992237241256618 $484 $655 forward 7 unknown #
coedge $-1 $479 $329 $334 $494 forward $471 $-1 #
coedge $-1 $329 $479 $473 $646 reversed $471 $-1 #
vertex $-1 $330 $656 #
straight-curve $-1 0 25.992237241256618 10.228965070031684 -1 0 0 I I #
coedge $-1 $331 $474 $333 $493 reversed $202 $-1 #
vertex $-1 $485 $657 #
straight-curve $-1 0 -25.992237241256618 10.228965070031684 1 0 0 I I #
edge $-1 $336 -10.228965070031684 $482 10.228965070031684 $333 $658 forward 7 unknown #
edge $-1 $337 -10.228965070031684 $481 10.228965070031684 $334 $659 forward 7 unknown #
point $-1 55.876949369792783 -25.992237241256618 10.228965070031684 #
point $-1 55.876949369792783 25.992237241256618 10.228965070031684 #
face $-1 $-1 $660 $49 $-1 $661 reversed single #
loop $-1 $-1 $349 $339 #
plane-surface $-1 0 -25.992237241256618 0 0 1 0 0 0 1 forward_v I I I I #
coedge $-1 $662 $342 $504 $663 forward $210 $-1 #
coedge $-1 $342 $662 $664 $665 forward $210 $-1 #
edge $-1 $666 -55.876949369792783 $505 55.876949369792783 $342 $667 forward 7 unknown #
coedge $-1 $344 $343 $668 $669 reversed $133 $-1 #
coedge $-1 $345 $351 $500 $663 reversed $340 $-1 #
vertex $-1 $663 $670 #
straight-curve $-1 55.876949369792783 -18.217337217373064 -3.8521963413171019 0 0 1 I I #
coedge $-1 $668 $671 $347 $508 forward $660 $-1 #
edge $-1 $513 -14.939843626599197 $509 -7.1649436027156437 $507 $672 forward 7 unknown #
vertex $-1 $508 $673 #
straight-curve $-1 0 -18.217337217373064 -5.1798202952367234 -1 0 0 I I #
coedge $-1 $674 $349 $671 $675 forward $498 $-1 #
coedge $-1 $349 $674 $351 $515 reversed $498 $-1 #
vertex $-1 $675 $676 #
straight-curve $-1 0 -25.992237241256618 -5.1798202952367234 -1 0 0 I I #
edge $-1 $353 5.1798202952367234 $677 10.228965070031684 $351 $678 forward 7 unknown #
point $-1 55.876949369792783 -18.217337217373064 -5.1798202952367234 #
point $-1 55.876949369792783 -25.992237241256618 -5.1798202952367234 #
plane-surface $-1 0 0 10.228965070031684 0 0 1 1 0 0 forward_v I I I I #
coedge $-1 $529 $528 $521 $679 forward $356 $-1 #
coedge $-1 $521 $358 $360 $525 reversed $218 $-1 #
coedge $-1 $358 $520 $519 $679 reversed $218 $-1 #
coedge $-1 $366 $361 $358 $523 forward $367 $-1 #
edge $-1 $526 24.923488883290752 $680 34.825689714199775 $522 $681 forward 7 unknown #
coedge $-1 $360 $359 $529 $682 reversed $137 $-1 #
edge $-1 $683 -111.75389873958557 $526 -98.82749348262027 $520 $684 forward 7 unknown #
vertex $-1 $362 $685 #
straight-curve $-1 45.974748538883766 -7.3458351742693146 10.228965070031684 0 -1 0 I I #
coedge $-1 $519 $363 $366 $533 reversed $356 $-1 #
coedge $-1 $363 $519 $524 $682 forward $356 $-1 #
vertex $-1 $364 $686 #
straight-curve $-1 55.876949369792783 -11.166003479704191 79.681253271656743 0 0 1 I I #
straight-curve $-1 -29.731503015696191 -11.166003479704191 73.754054157824513 0.76604443648966558 0 -0.64278761758704617 I I #
edge $-1 $680 -18.217337217373068 $368 -11.166003479704191 $528 $687 forward 7 unknown #
point $-1 55.876949369792783 -11.166003479704191 10.228965070031684 #
point $-1 45.974748538883759 -11.166003479704191 10.228965070031691 #
edge $-1 $688 1 $688 0 $371 $-1 forward 7 unknown #
vertex $-1 $372 $689 #
ellipse-curve $-1 48.949208861461081 -16.202670435181957 3.7188305678742499 0.64278761758704617 0 0.76604443648966558 0.76604443648966558 0 -0.64278761758704617 1 I I #
point $-1 51.691893390827907 -16.202670435181957 5.4317108328999453 #
edge $-1 $690 1 $690 0 $375 $-1 forward 7 unknown #
vertex $-1 $376 $691 #
ellipse-curve $-1 48.949208861461081 -13.180670261895298 3.7188305678742499 0.64278761758704617 0 0.76604443648966558 0.76604443648966558 0 -0.64278761758704617 1 I I #
point $-1 51.691893390827907 -13.180670261895298 5.4317108328999453 #
plane-surface $-1 0 0 10.228965070031684 0 0 1 1 0 0 forward_v I I I I #
coedge $-1 $555 $554 $547 $692 forward $380 $-1 #
coedge $-1 $547 $382 $384 $551 reversed $240 $-1 #
coedge $-1 $382 $546 $545 $692 reversed $240 $-1 #
coedge $-1 $390 $385 $382 $549 forward $391 $-1 #
edge $-1 $552 24.923488883290752 $693 34.825689714199775 $548 $694 forward 7 unknown #
coedge $-1 $384 $383 $555 $695 reversed $151 $-1 #
edge $-1 $696 -111.75389873958557 $552 -98.82749348262027 $546 $697 forward 7 unknown #
vertex $-1 $386 $698 #
straight-curve $-1 45.974748538883766 -1.8196383669406053 10.228965070031684 0 -1 0 I I #
coedge $-1 $545 $387 $390 $559 reversed $380 $-1 #
coedge $-1 $387 $545 $550 $695 forward $380 $-1 #
vertex $-1 $388 $699 #
straight-curve $-1 55.876949369792783 -0.11360986504677317 79.681253271656743 0 0 1 I I #
straight-curve $-1 -29.731503015696191 -0.11360986504677317 73.754054157824513 0.76604443648966558 0 -0.64278761758704617 I I #
edge $-1 $693 -7.1649436027156481 $392 -0.11360986504677317 $554 $700 forward 7 unknown #
point $-1 55.876949369792783 -0.11360986504677317 10.228965070031684 #
point $-1 45.974748538883759 -0.11360986504677317 10.228965070031691 #
edge $-1 $701 1 $701 0 $395 $-1 forward 7 unknown #
vertex $-1 $396 $702 #
ellipse-curve $-1 48.949208861461081 -5.1502768205245388 3.7188305678742499 0.64278761758704617 0 0.76604443648966558 0.76604443648966558 0 -0.64278761758704617 1 I I #
point $-1 51.691893390827907 -5.1502768205245388 5.4317108328999453 #
edge $-1 $703 1 $703 0 $399 $-1 forward 7 unknown #
vertex $-1 $400 $704 #
ellipse-curve $-1 48.949208861461081 -2.1282766472378754 3.7188305678742499 0.64278761758704617 0 0.76604443648966558 0.76604443648966558 0 -0.64278761758704617 1 I I #
point $-1 51.691893390827907 -2.1282766472378754 5.4317108328999453 #
plane-surface $-1 0 0 10.228965070031684 0 0 1 1 0 0 forward_v I I I I #
coedge $-1 $581 $580 $573 $705 forward $404 $-1 #
coedge $-1 $573 $406 $408 $577 reversed $262 $-1 #
coedge $-1 $406 $572 $571 $705 reversed $262 $-1 #
coedge $-1 $414 $409 $406 $575 forward $415 $-1 #
edge $-1 $578 24.923488883290752 $706 34.825689714199775 $574 $707 forward 7 unknown #
coedge $-1 $408 $407 $581 $708 reversed $165 $-1 #
edge $-1 $709 -111.75389873958557 $578 -98.82749348262027 $572 $710 forward 7 unknown #
vertex $-1 $410 $711 #
straight-curve $-1 45.974748538883766 3.706558440388104 10.228965070031684 0 -1 0 I I #
coedge $-1 $571 $411 $414 $585 reversed $404 $-1 #
coedge $-1 $411 $571 $576 $708 forward $404 $-1 #
vertex $-1 $412 $712 #
straight-curve $-1 55.876949369792783 10.938783749610646 79.681253271656743 0 0 1 I I #
straight-curve $-1 -29.731503015696191 10.938783749610646 73.754054157824513 0.76604443648966558 0 -0.64278761758704617 I I #
edge $-1 $706 3.8874500119417705 $416 10.938783749610646 $580 $713 forward 7 unknown #
point $-1 55.876949369792783 10.938783749610646 10.228965070031684 #
point $-1 45.974748538883759 10.938783749610646 10.228965070031691 #
edge $-1 $714 1 $714 0 $419 $-1 forward 7 unknown #
vertex $-1 $420 $715 #
ellipse-curve $-1 48.949208861461081 5.9021167941328798 3.7188305678742499 0.64278761758704617 0 0.76604443648966558 0.76604443648966558 0 -0.64278761758704617 1 I I #
point $-1 51.691893390827907 5.9021167941328798 5.4317108328999453 #
edge $-1 $716 1 $716 0 $423 $-1 forward 7 unknown #
vertex $-1 $424 $717 #
ellipse-curve $-1 48.949208861461081 8.9241169674195433 3.7188305678742499 0.64278761758704617 0 0.76604443648966558 0.76604443648966558 0 -0.64278761758704617 1 I I #
point $-1 51.691893390827907 8.9241169674195433 5.4317108328999453 #
plane-surface $-1 0 0 10.228965070031684 0 0 1 1 0 0 forward_v I I I I #
coedge $-1 $607 $606 $599 $718 forward $428 $-1 #
coedge $-1 $599 $430 $432 $603 reversed $284 $-1 #
coedge $-1 $430 $598 $597 $718 reversed $284 $-1 #
coedge $-1 $438 $433 $430 $601 forward $439 $-1 #
edge $-1 $604 24.923488883290752 $719 34.825689714199775 $600 $720 forward 7 unknown #
coedge $-1 $432 $431 $607 $721 reversed $179 $-1 #
edge $-1 $722 -111.75389873958557 $604 -98.82749348262027 $598 $723 forward 7 unknown #
vertex $-1 $434 $724 #
straight-curve $-1 45.974748538883766 9.2327552477168133 10.228965070031684 0 -1 0 I I #
coedge $-1 $597 $435 $438 $611 reversed $428 $-1 #
coedge $-1 $435 $597 $602 $721 forward $428 $-1 #
vertex $-1 $436 $725 #
straight-curve $-1 55.876949369792783 21.991177364268065 79.681253271656743 0 0 1 I I #
straight-curve $-1 -29.731503015696191 21.991177364268065 73.754054157824513 0.76604443648966558 0 -0.64278761758704617 I I #
edge $-1 $719 14.939843626599188 $440 21.991177364268065 $606 $726 forward 7 unknown #
point $-1 55.876949369792783 21.991177364268065 10.228965070031684 #
point $-1 45.974748538883759 21.991177364268065 10.228965070031691 #
edge $-1 $727 1 $727 0 $443 $-1 forward 7 unknown #
vertex $-1 $444 $728 #
ellipse-curve $-1 48.949208861461081 16.954510408790298 3.7188305678742499 0.64278761758704617 0 0.76604443648966558 0.76604443648966558 0 -0.64278761758704617 1 I I #
point $-1 51.691893390827907 16.954510408790298 5.4317108328999453 #
edge $-1 $729 1 $729 0 $447 $-1 forward 7 unknown #
vertex $-1 $448 $730 #
ellipse-curve $-1 48.949208861461081 19.976510582076962 3.7188305678742499 0.64278761758704617 0 0.76604443648966558 0.76604443648966558 0 -0.64278761758704617 1 I I #
point $-1 51.691893390827907 19.976510582076962 5.4317108328999453 #
loop $-1 $-1 $459 $451 #
plane-surface $-1 -55.876949369792783 0 0 1 0 0 0 0 -1 forward_v I I I I #
coedge $-1 $625 $454 $456 $629 reversed $306 $-1 #
coedge $-1 $454 $624 $731 $732 reversed $306 $-1 #
coedge $-1 $462 $457 $454 $627 forward $452 $-1 #
edge $-1 $630 -18.684448614050993 $733 -13.586191565455493 $626 $734 forward 7 unknown #
coedge $-1 $456 $455 $633 $735 reversed $193 $-1 #
edge $-1 $736 0 $630 7.6192257090341924 $624 $737 forward 7 unknown #
vertex $-1 $458 $738 #
straight-curve $-1 -50.778692321197283 8.3911788708731621 10.228965070031684 0 1 0 I I #
coedge $-1 $731 $459 $462 $637 reversed $622 $-1 #
coedge $-1 $459 $731 $628 $735 forward $622 $-1 #
vertex $-1 $460 $739 #
straight-curve $-1 -55.876949369792783 13.704668702337013 39.672364922942251 0 0 1 I I #
straight-curve $-1 -55.876949369792783 13.704668702337013 4.5667768471222843 -0.66913059716165679 0 -0.74314483375859142 I I #
edge $-1 $733 -19.860046781155635 $463 -13.704668702337013 $632 $740 forward 7 unknown #
point $-1 -55.876949369792783 13.704668702337013 10.228965070031684 #
point $-1 -50.778692321197283 13.704668702337013 10.228965070031684 #
edge $-1 $741 1 $741 0 $466 $-1 forward 7 unknown #
vertex $-1 $467 $742 #
ellipse-curve $-1 -50.093756224629807 16.782357741746331 4.4859061669036731 -0.74314483375859142 0 0.66913059716165679 1.0036958957424851 0 1.1147172506378871 1 I I #
point $-1 -52.324124949752544 16.782357741746331 8.5125882092148704 #
plane-surface $-1 55.876949369792783 0 0 -1 0 0 0 0 1 forward_v I I I I #
coedge $-1 $475 $473 $477 $649 reversed $321 $-1 #
edge $-1 $488 -10.228965070031684 $651 10.228965070031684 $487 $743 forward 7 unknown #
vertex $-1 $649 $744 #
straight-curve $-1 -55.876949369792783 -25.992237241256618 0 0 0 -1 I I #
edge $-1 $647 -25.992237241256618 $651 25.992237241256618 $645 $745 forward 7 unknown #
straight-curve $-1 0 -25.992237241256618 -10.228965070031684 -1 0 0 I I #
vertex $-1 $480 $746 #
straight-curve $-1 0 25.992237241256618 -10.228965070031684 1 0 0 I I #
point $-1 55.876949369792783 25.992237241256618 -10.228965070031684 #
point $-1 55.876949369792783 -25.992237241256618 -10.228965070031684 #
straight-curve $-1 -55.876949369792783 0 10.228965070031684 0 -1 0 I I #
point $-1 -55.876949369792783 25.992237241256618 10.228965070031684 #
point $-1 -55.876949369792783 -25.992237241256618 10.228965070031684 #
straight-curve $-1 55.876949369792783 -25.992237241256618 0 0 0 -1 I I #
straight-curve $-1 55.876949369792783 25.992237241256618 0 0 0 -1 I I #
loop $-1 $-1 $668 $497 #
plane-surface $-1 -55.876949369792783 0 0 1 0 0 0 0 -1 forward_v I I I I #
coedge $-1 $501 $500 $674 $747 forward $210 $-1 #
edge $-1 $505 18.217337217373064 $677 25.992237241256618 $504 $748 forward 7 unknown #
coedge $-1 $671 $668 $501 $665 reversed $660 $-1 #
edge $-1 $749 -25.992237241256618 $666 -18.217337217373064 $664 $750 forward 7 unknown #
vertex $-1 $669 $751 #
straight-curve $-1 0 -18.217337217373064 -10.228965070031684 1 0 0 I I #
coedge $-1 $664 $507 $503 $669 forward $660 $-1 #
edge $-1 $509 1.3276239539196215 $666 6.3767687287145822 $668 $752 forward 7 unknown #
point $-1 55.876949369792783 -18.217337217373064 -10.228965070031684 #
coedge $-1 $507 $664 $511 $675 reversed $660 $-1 #
straight-curve $-1 -55.876949369792783 -11.05239361465742 -5.1798202952367234 0 1 0 I I #
point $-1 -55.876949369792783 -18.217337217373064 -5.1798202952367234 #
coedge $-1 $512 $511 $662 $747 reversed $498 $-1 #
edge $-1 $513 5.1798202952367234 $749 10.228965070031684 $671 $753 forward 7 unknown #
point $-1 -55.876949369792783 -25.992237241256618 -5.1798202952367234 #
vertex $-1 $515 $754 #
straight-curve $-1 55.876949369792783 -25.992237241256618 0 0 0 -1 I I #
edge $-1 $680 69.452288201625066 $683 77.761221440714436 $519 $755 forward 7 unknown #
vertex $-1 $533 $756 #
straight-curve $-1 21.051259655593007 -18.217337217373068 10.228965070031677 1 0 0 I I #
edge $-1 $683 -10.871502043103753 $530 -3.8201683054348763 $529 $757 forward 7 unknown #
vertex $-1 $682 $758 #
straight-curve $-1 -29.731503015696191 -18.217337217373068 73.754054157824513 -0.76604443648966558 0 0.64278761758704617 I I #
point $-1 45.974748538883759 -18.217337217373068 10.228965070031691 #
point $-1 55.876949369792783 -11.166003479704191 1.9200318309423068 #
straight-curve $-1 55.876949369792783 0 10.228965070031684 0 1 0 I I #
vertex $-1 $536 $759 #
point $-1 49.715253297950746 -16.202670435181957 3.0760429502872038 #
vertex $-1 $540 $760 #
point $-1 49.715253297950746 -13.180670261895298 3.0760429502872038 #
edge $-1 $693 69.452288201625066 $696 77.761221440714436 $545 $761 forward 7 unknown #
vertex $-1 $559 $762 #
straight-curve $-1 21.051259655593007 -7.1649436027156481 10.228965070031677 1 0 0 I I #
edge $-1 $696 -5.3453052357750428 $556 1.7060285018938321 $555 $763 forward 7 unknown #
vertex $-1 $695 $764 #
straight-curve $-1 -29.731503015696191 -7.1649436027156481 73.754054157824513 -0.76604443648966558 0 0.64278761758704617 I I #
point $-1 45.974748538883759 -7.1649436027156481 10.228965070031691 #
point $-1 55.876949369792783 -0.11360986504677317 1.9200318309423068 #
straight-curve $-1 55.876949369792783 0 10.228965070031684 0 1 0 I I #
vertex $-1 $562 $765 #
point $-1 49.715253297950746 -5.1502768205245388 3.0760429502872038 #
vertex $-1 $566 $766 #
point $-1 49.715253297950746 -2.1282766472378754 3.0760429502872038 #
edge $-1 $706 69.452288201625066 $709 77.761221440714436 $571 $767 forward 7 unknown #
vertex $-1 $585 $768 #
straight-curve $-1 21.051259655593007 3.8874500119417705 10.228965070031677 1 0 0 I I #
edge $-1 $709 0.18089157155366653 $582 7.2322253092225424 $581 $769 forward 7 unknown #
vertex $-1 $708 $770 #
straight-curve $-1 -29.731503015696191 3.8874500119417705 73.754054157824513 -0.76604443648966558 0 0.64278761758704617 I I #
point $-1 45.974748538883759 3.8874500119417705 10.228965070031691 #
point $-1 55.876949369792783 10.938783749610646 1.9200318309423068 #
straight-curve $-1 55.876949369792783 0 10.228965070031684 0 1 0 I I #
vertex $-1 $588 $771 #
point $-1 49.715253297950746 5.9021167941328798 3.0760429502872038 #
vertex $-1 $592 $772 #
point $-1 49.715253297950746 8.9241169674195433 3.0760429502872038 #
edge $-1 $719 69.452288201625066 $722 77.761221440714436 $597 $773 forward 7 unknown #
vertex $-1 $611 $774 #
straight-curve $-1 21.051259655593007 14.939843626599188 10.228965070031677 1 0 0 I I #
edge $-1 $722 5.707088378882375 $608 12.758422116551252 $607 $775 forward 7 unknown #
vertex $-1 $721 $776 #
straight-curve $-1 -29.731503015696191 14.939843626599188 73.754054157824513 -0.76604443648966558 0 0.64278761758704617 I I #
point $-1 45.974748538883759 14.939843626599188 10.228965070031691 #
point $-1 55.876949369792783 21.991177364268065 1.9200318309423068 #
straight-curve $-1 55.876949369792783 0 10.228965070031684 0 1 0 I I #
vertex $-1 $614 $777 #
point $-1 49.715253297950746 16.954510408790298 3.0760429502872038 #
vertex $-1 $618 $778 #
point $-1 49.715253297950746 19.976510582076962 3.0760429502872038 #
coedge $-1 $633 $632 $625 $732 forward $622 $-1 #
edge $-1 $733 29.443399852910566 $736 35.105588075819966 $731 $779 forward 7 unknown #
vertex $-1 $637 $780 #
straight-curve $-1 -69.463140935248276 19.860046781155635 10.228965070031684 -1 0 0 I I #
edge $-1 $736 -11.468867910282473 $634 -5.3134898314638512 $633 $781 forward 7 unknown #
vertex $-1 $735 $782 #
straight-curve $-1 -55.876949369792783 19.860046781155635 4.5667768471222843 0.66913059716165679 0 0.74314483375859142 I I #
point $-1 -50.778692321197283 19.860046781155635 10.228965070031684 #
point $-1 -55.876949369792783 13.704668702337013 4.5667768471222843 #
straight-curve $-1 -55.876949369792783 0 10.228965070031684 0 -1 0 I I #
vertex $-1 $640 $783 #
point $-1 -49.090060328887326 16.782357741746331 5.6006234175415601 #
straight-curve $-1 -55.876949369792783 25.992237241256618 0 0 0 -1 I I #
point $-1 -55.876949369792783 -25.992237241256618 -10.228965070031684 #
straight-curve $-1 -55.876949369792783 0 -10.228965070031684 0 1 0 I I #
point $-1 -55.876949369792783 25.992237241256618 -10.228965070031684 #
edge $-1 $677 -55.876949369792783 $749 55.876949369792783 $674 $784 forward 7 unknown #
straight-curve $-1 55.876949369792783 0 -10.228965070031684 0 -1 0 I I #
vertex $-1 $665 $785 #
straight-curve $-1 -55.876949369792783 0 -10.228965070031684 0 1 0 I I #
point $-1 -55.876949369792783 -18.217337217373064 -10.228965070031684 #
straight-curve $-1 -55.876949369792783 -18.217337217373064 -3.8521963413171019 0 0 -1 I I #
straight-curve $-1 -55.876949369792783 -25.992237241256618 0 0 0 -1 I I #
point $-1 55.876949369792783 -25.992237241256618 -10.228965070031684 #
straight-curve $-1 55.876949369792783 -18.217337217373068 79.681253271656743 0 0 -1 I I #
point $-1 55.876949369792783 -18.217337217373068 10.228965070031684 #
straight-curve $-1 55.876949369792783 -7.3458351742693146 1.9200318309423068 0 1 0 I I #
point $-1 55.876949369792783 -18.217337217373068 1.9200318309423068 #
point $-1 48.306421243874034 -16.202670435181957 2.9527861313845842 #
point $-1 48.306421243874034 -13.180670261895298 2.9527861313845842 #
straight-curve $-1 55.876949369792783 -7.1649436027156481 79.681253271656743 0 0 -1 I I #
point $-1 55.876949369792783 -7.1649436027156481 10.228965070031684 #
straight-curve $-1 55.876949369792783 -1.8196383669406053 1.9200318309423068 0 1 0 I I #
point $-1 55.876949369792783 -7.1649436027156481 1.9200318309423068 #
point $-1 48.306421243874034 -5.1502768205245388 2.9527861313845842 #
point $-1 48.306421243874034 -2.1282766472378754 2.9527861313845842 #
straight-curve $-1 55.876949369792783 3.8874500119417705 79.681253271656743 0 0 -1 I I #
point $-1 55.876949369792783 3.8874500119417705 10.228965070031684 #
straight-curve $-1 55.876949369792783 3.706558440388104 1.9200318309423068 0 1 0 I I #
point $-1 55.876949369792783 3.8874500119417705 1.9200318309423068 #
point $-1 48.306421243874034 5.9021167941328798 2.9527861313845842 #
point $-1 48.306421243874034 8.9241169674195433 2.9527861313845842 #
straight-curve $-1 55.876949369792783 14.939843626599188 79.681253271656743 0 0 -1 I I #
point $-1 55.876949369792783 14.939843626599188 10.228965070031684 #
straight-curve $-1 55.876949369792783 9.2327552477168133 1.9200318309423068 0 1 0 I I #
point $-1 55.876949369792783 14.939843626599188 1.9200318309423068 #
point $-1 48.306421243874034 16.954510408790298 2.9527861313845842 #
point $-1 48.306421243874034 19.976510582076962 2.9527861313845842 #
straight-curve $-1 -55.876949369792783 19.860046781155635 39.672364922942251 0 0 -1 I I #
point $-1 -55.876949369792783 19.860046781155635 10.228965070031684 #
straight-curve $-1 -55.876949369792783 8.3911788708731621 4.5667768471222843 0 -1 0 I I #
point $-1 -55.876949369792783 19.860046781155635 4.5667768471222843 #
point $-1 -48.979038973991926 16.782357741746331 3.482210271161188 #
straight-curve $-1 0 -25.992237241256618 -10.228965070031684 -1 0 0 I I #
point $-1 -55.876949369792783 -25.992237241256618 -10.228965070031684 #
End-of-ACIS-data 