500 0 10 0           
7 Unknown 11 ACIS 5.0 NT 24 Fri Mar 26 00:19:30 1999 
-1 9.9999999999999995e-007 1e-010 
body $-1 $10 $-1 $11 #
body $-1 $12 $-1 $13 #
body $-1 $14 $-1 $15 #
body $-1 $16 $-1 $17 #
body $-1 $18 $-1 $19 #
body $-1 $20 $-1 $21 #
body $-1 $22 $-1 $23 #
body $-1 $24 $-1 $25 #
body $-1 $26 $-1 $27 #
body $-1 $28 $-1 $29 #
lump $-1 $-1 $30 $0 #
transform $-1 1 0 0 0 1 0 0 0 1 78.85006256294443 42.404859537696282 16.336230457539642 1 rotate no_reflect no_shear #
lump $-1 $-1 $31 $1 #
transform $-1 1 0 0 0 1 0 0 0 1 78.85006256294443 42.404859537696282 16.336230457539642 1 rotate no_reflect no_shear #
lump $-1 $-1 $32 $2 #
transform $-1 1 0 0 0 1 0 0 0 1 78.85006256294443 42.404859537696282 16.336230457539642 1 rotate no_reflect no_shear #
lump $-1 $-1 $33 $3 #
transform $-1 1 0 0 0 1 0 0 0 1 78.85006256294443 42.404859537696282 16.336230457539642 1 rotate no_reflect no_shear #
lump $-1 $-1 $34 $4 #
transform $-1 1 0 0 0 1 0 0 0 1 78.85006256294443 42.404859537696282 16.336230457539642 1 rotate no_reflect no_shear #
lump $-1 $-1 $35 $5 #
transform $-1 1 0 0 0 1 0 0 0 1 78.85006256294443 42.404859537696282 16.336230457539642 1 rotate no_reflect no_shear #
lump $-1 $-1 $36 $6 #
transform $-1 1 0 0 0 1 0 0 0 1 78.85006256294443 42.404859537696282 16.336230457539642 1 rotate no_reflect no_shear #
lump $-1 $-1 $37 $7 #
transform $-1 1 0 0 0 1 0 0 0 1 78.85006256294443 42.404859537696282 16.336230457539642 1 rotate no_reflect no_shear #
lump $-1 $-1 $38 $8 #
transform $-1 1 0 0 0 1 0 0 0 1 78.85006256294443 42.404859537696282 16.336230457539642 1 rotate no_reflect no_shear #
lump $-1 $-1 $39 $9 #
transform $-1 1 0 0 0 1 0 0 0 1 78.85006256294443 42.404859537696282 16.336230457539642 1 rotate no_reflect no_shear #
shell $-1 $-1 $-1 $40 $-1 $10 #
shell $-1 $-1 $-1 $41 $-1 $12 #
shell $-1 $-1 $-1 $42 $-1 $14 #
shell $-1 $-1 $-1 $43 $-1 $16 #
shell $-1 $-1 $-1 $44 $-1 $18 #
shell $-1 $-1 $-1 $45 $-1 $20 #
shell $-1 $-1 $-1 $46 $-1 $22 #
shell $-1 $-1 $-1 $47 $-1 $24 #
shell $-1 $-1 $-1 $48 $-1 $26 #
shell $-1 $-1 $-1 $49 $-1 $28 #
face $-1 $50 $51 $30 $-1 $52 forward single #
face $-1 $53 $54 $31 $-1 $55 forward single #
face $-1 $56 $57 $32 $-1 $58 reversed single #
face $-1 $59 $60 $33 $-1 $61 forward single #
face $-1 $62 $63 $34 $-1 $64 reversed single #
face $-1 $65 $66 $35 $-1 $67 forward single #
face $-1 $68 $69 $36 $-1 $70 forward single #
face $-1 $71 $72 $37 $-1 $73 reversed single #
face $-1 $74 $75 $38 $-1 $76 forward single #
face $-1 $77 $78 $39 $-1 $79 forward single #
face $-1 $80 $81 $30 $-1 $82 reversed single #
loop $-1 $-1 $83 $40 #
plane-surface $-1 0 0 16.336230457539642 0 0 1 1 0 0 forward_v I I I I #
face $-1 $84 $85 $31 $-1 $86 reversed single #
loop $-1 $-1 $87 $41 #
plane-surface $-1 -72.253639579201149 0 4.1262838935711397 0 0 1 1 0 0 forward_v I I I I #
face $-1 $88 $89 $32 $-1 $90 reversed single #
loop $-1 $-1 $91 $42 #
plane-surface $-1 41.459515216874223 93.94616192905282 178.8023184831178 1 0 0 0 -0.70710678939079041 -0.70710677298230451 forward_v I I I I #
face $-1 $92 $93 $33 $-1 $94 forward single #
loop $-1 $95 $96 $43 #
cone-surface $-1 60.154788889909327 35.907287677753978 9.8386585391971835 0 -0.70710678939079041 -0.70710677298230451 2 0 0 1 I I 0 1 2 forward I I I I #
face $-1 $97 $98 $34 $-1 $99 reversed single #
loop $-1 $-1 $100 $44 #
plane-surface $-1 -12.330785967993197 -151.95257276577064 119.91822413245529 -1 0 0 0 -0.69465837861970381 0.71933979245794832 forward_v I I I I #
face $-1 $101 $102 $35 $-1 $103 forward single #
loop $-1 $104 $105 $45 #
cone-surface $-1 -36.334427301893328 -36.734479309606186 10.82085928742277 0 0.69465837861970381 -0.71933979245794832 1.5 0 0 1 I I 0 1 1.5 forward I I I I #
face $-1 $106 $107 $36 $-1 $108 forward single #
loop $-1 $109 $110 $46 #
cone-surface $-1 -21.932242501553254 -36.734479309606186 10.82085928742277 0 0.69465837861970381 -0.71933979245794832 1.5 0 0 1 I I 0 1 1.5 forward I I I I #
face $-1 $111 $112 $37 $-1 $113 reversed single #
loop $-1 $-1 $114 $47 #
plane-surface $-1 59.128729802939958 -151.95257276577064 119.91822413245529 -1 0 0 0 -0.69465837861970381 0.71933979245794832 forward_v I I I I #
face $-1 $115 $116 $38 $-1 $117 forward single #
loop $-1 $118 $119 $48 #
cone-surface $-1 35.125088469039824 -36.734479309606186 10.82085928742277 0 0.69465837861970381 -0.71933979245794832 1.5 0 0 1 I I 0 1 1.5 forward I I I I #
face $-1 $120 $121 $39 $-1 $122 forward single #
loop $-1 $123 $124 $49 #
cone-surface $-1 49.52727326937989 -36.734479309606186 10.82085928742277 0 0.69465837861970381 -0.71933979245794832 1.5 0 0 1 I I 0 1 1.5 forward I I I I #
face $-1 $125 $126 $30 $-1 $127 reversed single #
loop $-1 $-1 $128 $50 #
plane-surface $-1 0 0 -16.336230457539642 0 0 1 1 0 0 forward_v I I I I #
coedge $-1 $129 $130 $131 $132 forward $51 $-1 #
face $-1 $133 $134 $31 $-1 $135 reversed single #
loop $-1 $-1 $136 $53 #
plane-surface $-1 -72.253639579201149 0 -0.25374232371053829 0 0 1 1 0 0 forward_v I I I I #
coedge $-1 $137 $138 $139 $140 forward $54 $-1 #
face $-1 $141 $142 $32 $-1 $143 forward single #
loop $-1 $-1 $144 $56 #
plane-surface $-1 60.154788889909327 -17.564667235240364 67.29149190644489 0 0.70710678939079041 0.70710677298230451 1 0 0 forward_v I I I I #
coedge $-1 $145 $146 $147 $148 reversed $57 $-1 #
face $-1 $-1 $149 $33 $-1 $150 forward single #
loop $-1 $151 $152 $59 #
cone-surface $-1 60.154788889909327 33.209742281647621 7.1411132056876454 0 -0.70710678939079041 -0.70710677298230451 1 0 0 1 I I -0.70710678118654746 0.70710678118654746 1 forward I I I I #
loop $-1 $-1 $153 $43 #
coedge $-1 $96 $96 $154 $155 reversed $60 $-1 #
face $-1 $156 $157 $34 $-1 $158 reversed single #
loop $-1 $-1 $159 $62 #
plane-surface $-1 -29.133334901723288 -42.404859537696268 6.4782488538059226 0 -0.69465837861970381 0.71933979245794832 1 0 0 forward_v I I I I #
coedge $-1 $160 $161 $162 $163 reversed $63 $-1 #
face $-1 $-1 $164 $35 $-1 $165 forward single #
loop $-1 $166 $167 $65 #
cone-surface $-1 -36.334427301893328 -35.647224573399164 9.6949740748293003 0 0.69465837861970381 -0.71933979245794832 0.75 0 0 1 I I -0.70710678118654757 0.70710678118654757 0.75 forward I I I I #
loop $-1 $-1 $168 $45 #
coedge $-1 $105 $105 $169 $170 reversed $66 $-1 #
face $-1 $-1 $171 $36 $-1 $172 forward single #
loop $-1 $173 $174 $68 #
cone-surface $-1 -21.932242501553254 -35.647224573399164 9.6949740748293003 0 0.69465837861970381 -0.71933979245794832 0.75 0 0 1 I I -0.70710678118654757 0.70710678118654757 0.75 forward I I I I #
loop $-1 $-1 $175 $46 #
coedge $-1 $110 $110 $176 $177 reversed $69 $-1 #
face $-1 $178 $179 $37 $-1 $180 reversed single #
loop $-1 $-1 $181 $71 #
plane-surface $-1 42.326180869209864 -42.404859537696268 6.4782488538059226 0 -0.69465837861970381 0.71933979245794832 1 0 0 forward_v I I I I #
coedge $-1 $182 $183 $184 $185 reversed $72 $-1 #
face $-1 $-1 $186 $38 $-1 $187 forward single #
loop $-1 $188 $189 $74 #
cone-surface $-1 35.125088469039824 -35.647224573399164 9.6949740748293003 0 0.69465837861970381 -0.71933979245794832 0.75 0 0 1 I I -0.70710678118654757 0.70710678118654757 0.75 forward I I I I #
loop $-1 $-1 $190 $48 #
coedge $-1 $119 $119 $191 $192 reversed $75 $-1 #
face $-1 $-1 $193 $39 $-1 $194 forward single #
loop $-1 $195 $196 $77 #
cone-surface $-1 49.52727326937989 -35.647224573399164 9.6949740748293003 0 0.69465837861970381 -0.71933979245794832 0.75 0 0 1 I I -0.70710678118654757 0.70710678118654757 0.75 forward I I I I #
loop $-1 $-1 $197 $49 #
coedge $-1 $124 $124 $198 $199 reversed $78 $-1 #
face $-1 $200 $201 $30 $-1 $202 reversed single #
loop $-1 $-1 $203 $80 #
plane-surface $-1 0 -42.404859537696282 0 0 1 0 0 0 1 forward_v I I I I #
coedge $-1 $204 $205 $206 $207 forward $81 $-1 #
coedge $-1 $208 $83 $209 $210 forward $51 $-1 #
coedge $-1 $83 $208 $211 $212 forward $51 $-1 #
coedge $-1 $213 $214 $83 $132 reversed $215 $-1 #
edge $-1 $216 -42.404859537696282 $217 42.404859537696282 $131 $218 forward 7 unknown #
face $-1 $219 $220 $31 $-1 $221 reversed single #
loop $-1 $-1 $222 $84 #
plane-surface $-1 -65.657216595457868 0 1.9362707849303007 -1 0 0 0 0 1 forward_v I I I I #
coedge $-1 $223 $224 $225 $226 forward $85 $-1 #
coedge $-1 $227 $87 $228 $229 reversed $54 $-1 #
coedge $-1 $87 $227 $230 $231 reversed $54 $-1 #
coedge $-1 $222 $232 $87 $140 reversed $134 $-1 #
edge $-1 $233 -42.404859537696282 $234 42.404859537696282 $139 $235 forward 7 unknown #
face $-1 $236 $237 $32 $-1 $238 reversed single #
loop $-1 $-1 $147 $88 #
plane-surface $-1 0 0 16.336230457539642 0 0 1 1 0 0 forward_v I I I I #
coedge $-1 $239 $240 $241 $242 reversed $89 $-1 #
coedge $-1 $146 $91 $243 $244 reversed $57 $-1 #
coedge $-1 $91 $145 $239 $245 reversed $57 $-1 #
coedge $-1 $241 $246 $91 $148 forward $142 $-1 #
edge $-1 $247 4.568221426830128 $248 13.582487933283616 $147 $249 forward 7 unknown #
loop $-1 $-1 $154 $92 #
plane-surface $-1 60.154788889909327 -17.564667235240364 67.29149190644489 0 0.70710678939079041 0.70710677298230451 1 0 0 forward_v I I I I #
loop $-1 $-1 $250 $59 #
coedge $-1 $152 $152 $153 $251 reversed $93 $-1 #
coedge $-1 $153 $153 $152 $251 forward $95 $-1 #
coedge $-1 $154 $154 $96 $155 forward $149 $-1 #
edge $-1 $252 -1.8841110305756763e-015 $252 6.2831853071795987 $154 $253 forward 7 unknown #
face $-1 $254 $255 $34 $-1 $256 reversed single #
loop $-1 $-1 $257 $97 #
plane-surface $-1 -45.935883835453382 -151.95257276577064 119.91822413245529 1 0 0 0 0.69465837861970381 -0.71933979245794832 forward_v I I I I #
coedge $-1 $258 $259 $260 $261 reversed $98 $-1 #
coedge $-1 $161 $100 $262 $263 reversed $63 $-1 #
coedge $-1 $100 $160 $258 $264 reversed $63 $-1 #
coedge $-1 $260 $265 $100 $163 forward $266 $-1 #
edge $-1 $267 33.571426845189038 $268 43.779665396884752 $162 $269 forward 7 unknown #
loop $-1 $-1 $169 $101 #
plane-surface $-1 -29.133334901723288 -42.404859537696268 6.4782488538059226 0 -0.69465837861970381 0.71933979245794832 1 0 0 forward_v I I I I #
loop $-1 $-1 $270 $65 #
coedge $-1 $167 $167 $168 $271 reversed $102 $-1 #
coedge $-1 $168 $168 $167 $271 forward $104 $-1 #
coedge $-1 $169 $169 $105 $170 forward $164 $-1 #
edge $-1 $272 -1.7621962112840893e-015 $272 6.2831853071795987 $169 $273 forward 7 unknown #
loop $-1 $-1 $176 $106 #
plane-surface $-1 -29.133334901723288 -42.404859537696268 6.4782488538059226 0 -0.69465837861970381 0.71933979245794832 1 0 0 forward_v I I I I #
loop $-1 $-1 $274 $68 #
coedge $-1 $174 $174 $175 $275 reversed $107 $-1 #
coedge $-1 $175 $175 $174 $275 forward $109 $-1 #
coedge $-1 $176 $176 $110 $177 forward $171 $-1 #
edge $-1 $276 -1.7621962112840893e-015 $276 6.2831853071795987 $176 $277 forward 7 unknown #
face $-1 $278 $279 $37 $-1 $280 reversed single #
loop $-1 $-1 $281 $111 #
plane-surface $-1 25.523631935479774 -151.95257276577064 119.91822413245529 1 0 0 0 0.69465837861970381 -0.71933979245794832 forward_v I I I I #
coedge $-1 $282 $283 $284 $285 reversed $112 $-1 #
coedge $-1 $183 $114 $286 $287 reversed $72 $-1 #
coedge $-1 $114 $182 $282 $288 reversed $72 $-1 #
coedge $-1 $284 $289 $114 $185 forward $290 $-1 #
edge $-1 $291 33.571426845189038 $292 43.779665396884752 $184 $293 forward 7 unknown #
loop $-1 $-1 $191 $115 #
plane-surface $-1 42.326180869209864 -42.404859537696268 6.4782488538059226 0 -0.69465837861970381 0.71933979245794832 1 0 0 forward_v I I I I #
loop $-1 $-1 $294 $74 #
coedge $-1 $189 $189 $190 $295 reversed $116 $-1 #
coedge $-1 $190 $190 $189 $295 forward $118 $-1 #
coedge $-1 $191 $191 $119 $192 forward $186 $-1 #
edge $-1 $296 -1.7621962112840893e-015 $296 6.2831853071795987 $191 $297 forward 7 unknown #
loop $-1 $-1 $198 $120 #
plane-surface $-1 42.326180869209864 -42.404859537696268 6.4782488538059226 0 -0.69465837861970381 0.71933979245794832 1 0 0 forward_v I I I I #
loop $-1 $-1 $298 $77 #
coedge $-1 $196 $196 $197 $299 reversed $121 $-1 #
coedge $-1 $197 $197 $196 $299 forward $123 $-1 #
coedge $-1 $198 $198 $124 $199 forward $193 $-1 #
edge $-1 $300 -1.7621962112840893e-015 $300 6.2831853071795987 $198 $301 forward 7 unknown #
face $-1 $302 $303 $30 $-1 $304 reversed single #
loop $-1 $-1 $305 $125 #
plane-surface $-1 -78.85006256294443 0 0 1 0 0 0 0 -1 forward_v I I I I #
coedge $-1 $306 $211 $307 $308 forward $126 $-1 #
coedge $-1 $309 $128 $306 $310 forward $81 $-1 #
coedge $-1 $128 $309 $311 $312 forward $81 $-1 #
coedge $-1 $214 $213 $128 $207 reversed $215 $-1 #
edge $-1 $313 -42.404859537696282 $314 42.404859537696282 $206 $315 forward 7 unknown #
coedge $-1 $130 $129 $316 $317 forward $51 $-1 #
coedge $-1 $318 $319 $129 $210 reversed $303 $-1 #
edge $-1 $217 -78.85006256294443 $320 78.85006256294443 $209 $321 forward 7 unknown #
coedge $-1 $203 $322 $130 $212 reversed $126 $-1 #
edge $-1 $323 -78.85006256294443 $216 78.85006256294443 $211 $324 forward 7 unknown #
coedge $-1 $206 $131 $322 $325 forward $215 $-1 #
coedge $-1 $131 $206 $318 $326 reversed $215 $-1 #
loop $-1 $-1 $213 $302 #
vertex $-1 $132 $327 #
vertex $-1 $132 $328 #
straight-curve $-1 78.85006256294443 0 16.336230457539642 0 1 0 I I #
face $-1 $329 $330 $31 $-1 $331 reversed single #
loop $-1 $-1 $332 $133 #
plane-surface $-1 0 -42.404859537696282 0 0 1 0 0 0 1 forward_v I I I I #
coedge $-1 $225 $139 $333 $334 reversed $134 $-1 #
coedge $-1 $335 $136 $332 $336 reversed $85 $-1 #
coedge $-1 $136 $335 $337 $338 reversed $85 $-1 #
coedge $-1 $232 $222 $136 $226 reversed $134 $-1 #
edge $-1 $339 -42.404859537696282 $340 42.404859537696282 $225 $341 forward 7 unknown #
coedge $-1 $138 $137 $342 $343 reversed $54 $-1 #
coedge $-1 $344 $345 $137 $229 forward $346 $-1 #
edge $-1 $347 -42.723242773343856 $234 -29.530396805857293 $228 $348 forward 7 unknown #
coedge $-1 $349 $333 $138 $231 forward $220 $-1 #
edge $-1 $233 29.530396805857293 $350 42.723242773343856 $230 $351 forward 7 unknown #
coedge $-1 $139 $225 $344 $352 reversed $134 $-1 #
vertex $-1 $231 $353 #
vertex $-1 $229 $354 #
straight-curve $-1 -65.657216595457868 0 4.1262838935711397 0 1 0 I I #
face $-1 $-1 $355 $32 $-1 $356 reversed single #
loop $-1 $-1 $357 $141 #
plane-surface $-1 78.85006256294443 0 0 -1 0 0 0 0 1 forward_v I I I I #
coedge $-1 $358 $144 $146 $245 forward $89 $-1 #
coedge $-1 $144 $358 $357 $359 reversed $89 $-1 #
coedge $-1 $360 $147 $144 $242 forward $142 $-1 #
edge $-1 $248 11.38212077191956 $361 48.772668117989767 $241 $362 forward 7 unknown #
coedge $-1 $363 $364 $145 $244 forward $355 $-1 #
edge $-1 $365 -82.079195499649742 $247 -73.064928784019259 $243 $366 forward 7 unknown #
edge $-1 $248 72.061620979210076 $365 84.809719075392607 $146 $367 forward 7 unknown #
coedge $-1 $147 $360 $363 $368 forward $142 $-1 #
vertex $-1 $244 $369 #
vertex $-1 $148 $370 #
straight-curve $-1 41.459515216874223 46.97308096452641 16.336230457539642 0 -1 0 I I #
coedge $-1 $250 $250 $-1 $371 reversed $151 $-1 #
edge $-1 $372 0 $372 6.2831853071796004 $152 $373 forward 7 unknown #
vertex $-1 $155 $374 #
ellipse-curve $-1 60.154788889909327 37.897726284469535 11.829097099724406 0 0.70710678939079041 0.70710677298230451 2 0 0 1 I I #
face $-1 $-1 $266 $34 $-1 $375 forward single #
loop $-1 $-1 $376 $156 #
plane-surface $-1 0 -42.404859537696282 0 0 1 0 0 0 1 forward_v I I I I #
coedge $-1 $377 $378 $379 $380 reversed $157 $-1 #
coedge $-1 $381 $159 $161 $264 forward $98 $-1 #
coedge $-1 $159 $381 $377 $382 forward $98 $-1 #
coedge $-1 $379 $162 $159 $261 forward $266 $-1 #
edge $-1 $268 -2.2358814828684466 $383 31.369216384591738 $260 $384 forward 7 unknown #
coedge $-1 $385 $386 $160 $263 forward $255 $-1 #
edge $-1 $387 -53.480863212421738 $267 -43.622881608688004 $262 $388 forward 7 unknown #
edge $-1 $268 -14.191121718450546 $387 1.9477141995791963e-014 $161 $389 forward 7 unknown #
coedge $-1 $162 $379 $385 $390 forward $266 $-1 #
loop $-1 $-1 $379 $254 #
vertex $-1 $263 $391 #
vertex $-1 $163 $392 #
straight-curve $-1 -12.330785967993197 -75.97628638288532 16.336230457539642 0 1 0 I I #
coedge $-1 $270 $270 $-1 $393 reversed $166 $-1 #
edge $-1 $394 0 $394 6.2831853071796004 $167 $395 forward 7 unknown #
vertex $-1 $170 $396 #
ellipse-curve $-1 -36.334427301893328 -37.300740261848425 11.407239655672775 0 -0.69465837861970381 0.71933979245794832 1.5 0 0 1 I I #
coedge $-1 $274 $274 $-1 $397 reversed $173 $-1 #
edge $-1 $398 0 $398 6.2831853071796004 $174 $399 forward 7 unknown #
vertex $-1 $177 $400 #
ellipse-curve $-1 -21.932242501553254 -37.300740261848425 11.407239655672775 0 -0.69465837861970381 0.71933979245794832 1.5 0 0 1 I I #
face $-1 $-1 $290 $37 $-1 $401 forward single #
loop $-1 $-1 $402 $178 #
plane-surface $-1 0 -42.404859537696282 0 0 1 0 0 0 1 forward_v I I I I #
coedge $-1 $403 $404 $405 $406 reversed $179 $-1 #
coedge $-1 $407 $181 $183 $288 forward $112 $-1 #
coedge $-1 $181 $407 $403 $408 forward $112 $-1 #
coedge $-1 $405 $184 $181 $285 forward $290 $-1 #
edge $-1 $292 -37.965639368335026 $409 -4.3605415008748416 $284 $410 forward 7 unknown #
coedge $-1 $411 $412 $182 $287 forward $279 $-1 #
edge $-1 $413 -53.480863212421738 $291 -43.622881608688004 $286 $414 forward 7 unknown #
edge $-1 $292 -14.191121718450546 $413 1.9477141995791963e-014 $183 $415 forward 7 unknown #
coedge $-1 $184 $405 $411 $416 forward $290 $-1 #
loop $-1 $-1 $405 $278 #
vertex $-1 $287 $417 #
vertex $-1 $185 $418 #
straight-curve $-1 59.128729802939958 -75.97628638288532 16.336230457539642 0 1 0 I I #
coedge $-1 $294 $294 $-1 $419 reversed $188 $-1 #
edge $-1 $420 0 $420 6.2831853071796004 $189 $421 forward 7 unknown #
vertex $-1 $192 $422 #
ellipse-curve $-1 35.125088469039824 -37.300740261848425 11.407239655672775 0 -0.69465837861970381 0.71933979245794832 1.5 0 0 1 I I #
coedge $-1 $298 $298 $-1 $423 reversed $195 $-1 #
edge $-1 $424 0 $424 6.2831853071796004 $196 $425 forward 7 unknown #
vertex $-1 $199 $426 #
ellipse-curve $-1 49.52727326937989 -37.300740261848425 11.407239655672775 0 -0.69465837861970381 0.71933979245794832 1.5 0 0 1 I I #
face $-1 $-1 $215 $30 $-1 $427 reversed single #
loop $-1 $-1 $318 $200 #
plane-surface $-1 0 42.404859537696282 0 0 -1 0 0 0 -1 forward_v I I I I #
coedge $-1 $428 $316 $319 $429 forward $201 $-1 #
coedge $-1 $322 $203 $204 $310 reversed $126 $-1 #
coedge $-1 $316 $428 $203 $308 reversed $201 $-1 #
edge $-1 $323 -16.336230457539642 $430 16.336230457539642 $307 $431 forward 7 unknown #
coedge $-1 $205 $204 $428 $432 forward $81 $-1 #
edge $-1 $314 -78.85006256294443 $430 78.85006256294443 $306 $433 forward 7 unknown #
coedge $-1 $319 $318 $205 $312 reversed $303 $-1 #
edge $-1 $434 -78.85006256294443 $313 78.85006256294443 $311 $435 forward 7 unknown #
vertex $-1 $207 $436 #
vertex $-1 $325 $437 #
straight-curve $-1 78.85006256294443 0 -16.336230457539642 0 -1 0 I I #
coedge $-1 $305 $307 $208 $317 reversed $201 $-1 #
edge $-1 $320 -42.404859537696282 $323 42.404859537696282 $316 $438 forward 7 unknown #
coedge $-1 $311 $209 $214 $326 forward $303 $-1 #
coedge $-1 $209 $311 $305 $429 reversed $303 $-1 #
vertex $-1 $210 $439 #
straight-curve $-1 0 42.404859537696282 16.336230457539642 -1 0 0 I I #
coedge $-1 $211 $306 $213 $325 reversed $126 $-1 #
vertex $-1 $317 $440 #
straight-curve $-1 0 -42.404859537696282 16.336230457539642 1 0 0 I I #
edge $-1 $216 -16.336230457539642 $314 16.336230457539642 $213 $441 forward 7 unknown #
edge $-1 $217 -16.336230457539642 $313 16.336230457539642 $214 $442 forward 7 unknown #
point $-1 78.85006256294443 -42.404859537696282 16.336230457539642 #
point $-1 78.85006256294443 42.404859537696282 16.336230457539642 #
face $-1 $-1 $346 $31 $-1 $443 reversed single #
loop $-1 $-1 $444 $219 #
plane-surface $-1 -78.85006256294443 0 0 1 0 0 0 0 -1 forward_v I I I I #
coedge $-1 $333 $349 $223 $336 forward $220 $-1 #
coedge $-1 $230 $332 $222 $334 forward $220 $-1 #
edge $-1 $340 -1.2218777161756886 $233 3.1581485011059893 $333 $445 forward 7 unknown #
coedge $-1 $224 $223 $444 $446 reversed $85 $-1 #
edge $-1 $447 -42.723242773343856 $340 -29.530396805857293 $332 $448 forward 7 unknown #
coedge $-1 $345 $344 $224 $338 forward $346 $-1 #
edge $-1 $339 29.530396805857293 $449 42.723242773343856 $337 $450 forward 7 unknown #
vertex $-1 $338 $451 #
vertex $-1 $336 $452 #
straight-curve $-1 -65.657216595457868 0 -0.25374232371053829 0 -1 0 I I #
coedge $-1 $453 $454 $227 $343 forward $330 $-1 #
edge $-1 $350 -42.404859537696282 $347 42.404859537696282 $342 $455 forward 7 unknown #
coedge $-1 $337 $228 $232 $352 forward $346 $-1 #
coedge $-1 $228 $337 $453 $456 reversed $346 $-1 #
loop $-1 $-1 $337 $329 #
vertex $-1 $456 $457 #
straight-curve $-1 -36.126819789600574 42.404859537696282 4.1262838935711397 1 0 0 I I #
coedge $-1 $332 $230 $454 $458 forward $220 $-1 #
vertex $-1 $458 $459 #
straight-curve $-1 -36.126819789600574 -42.404859537696282 4.1262838935711397 -1 0 0 I I #
edge $-1 $234 -3.1581485011059893 $339 1.2218777161756886 $344 $460 forward 7 unknown #
point $-1 -65.657216595457868 -42.404859537696282 4.1262838935711397 #
point $-1 -65.657216595457868 42.404859537696282 4.1262838935711397 #
loop $-1 $-1 $243 $236 #
plane-surface $-1 0 42.404859537696282 0 0 -1 0 0 0 -1 forward_v I I I I #
coedge $-1 $461 $462 $240 $359 forward $237 $-1 #
coedge $-1 $240 $239 $364 $463 reversed $89 $-1 #
edge $-1 $361 42.06043799795934 $464 54.808536094141886 $357 $465 forward 7 unknown #
coedge $-1 $246 $241 $462 $466 forward $142 $-1 #
vertex $-1 $466 $467 #
straight-curve $-1 30.077394444954663 33.390593031242801 16.336230457539635 1 0 0 I I #
coedge $-1 $468 $243 $246 $368 reversed $355 $-1 #
coedge $-1 $243 $468 $358 $463 forward $355 $-1 #
vertex $-1 $244 $469 #
straight-curve $-1 41.459515216874223 42.404859537696282 89.401159241558901 0 0 1 I I #
straight-curve $-1 41.459515216874223 -17.564667235240364 67.29149190644489 0 0.70710677298230451 -0.70710678939079041 I I #
edge $-1 $470 -78.85006256294443 $247 -41.459515216874223 $363 $471 forward 7 unknown #
point $-1 41.459515216874223 42.404859537696282 16.336230457539642 #
point $-1 41.459515216874223 33.390593031242794 16.336230457539635 #
edge $-1 $472 1 $472 0 $250 $-1 forward 7 unknown #
vertex $-1 $251 $473 #
ellipse-curve $-1 60.154788889909327 33.916849071038413 7.8482199786699498 0 0.70710678939079041 0.70710677298230451 2 0 0 1 I I #
point $-1 62.154788889909327 37.897726284469542 11.829097099724418 #
plane-surface $-1 0 0 16.336230457539642 0 0 1 1 0 0 forward_v I I I I #
coedge $-1 $386 $385 $378 $474 forward $255 $-1 #
coedge $-1 $378 $257 $259 $382 reversed $157 $-1 #
coedge $-1 $257 $377 $376 $474 reversed $157 $-1 #
coedge $-1 $265 $260 $257 $380 forward $266 $-1 #
edge $-1 $383 -43.779665396884752 $475 -33.571426845189038 $379 $476 forward 7 unknown #
coedge $-1 $259 $258 $386 $477 reversed $98 $-1 #
edge $-1 $478 -1.9477141995791963e-014 $383 14.191121718450546 $377 $479 forward 7 unknown #
vertex $-1 $261 $480 #
straight-curve $-1 -14.566667450861644 -32.196620986000568 16.336230457539642 -1 0 0 I I #
coedge $-1 $376 $262 $265 $390 reversed $255 $-1 #
coedge $-1 $262 $376 $381 $477 forward $255 $-1 #
vertex $-1 $263 $481 #
straight-curve $-1 -12.330785967993197 -42.404859537696282 59.959112066227647 0 0 1 I I #
straight-curve $-1 -12.330785967993197 -42.404859537696268 6.4782488538059226 0 -0.71933979245794832 -0.69465837861970381 I I #
edge $-1 $475 -45.935883835453382 $267 -12.330785967993197 $385 $482 forward 7 unknown #
point $-1 -12.330785967993197 -42.404859537696282 16.336230457539642 #
point $-1 -12.330785967993197 -32.196620986000568 16.336230457539642 #
edge $-1 $483 1 $483 0 $270 $-1 forward 7 unknown #
vertex $-1 $271 $484 #
ellipse-curve $-1 -36.334427301893328 -36.168218357363941 10.234478919172762 0 -0.69465837861970381 0.71933979245794832 1.5 0 0 1 I I #
point $-1 -34.834427301893328 -37.300740261848432 11.407239655672779 #
edge $-1 $485 1 $485 0 $274 $-1 forward 7 unknown #
vertex $-1 $275 $486 #
ellipse-curve $-1 -21.932242501553254 -36.168218357363941 10.234478919172762 0 -0.69465837861970381 0.71933979245794832 1.5 0 0 1 I I #
point $-1 -20.432242501553254 -37.300740261848432 11.407239655672779 #
plane-surface $-1 0 0 16.336230457539642 0 0 1 1 0 0 forward_v I I I I #
coedge $-1 $412 $411 $404 $487 forward $279 $-1 #
coedge $-1 $404 $281 $283 $408 reversed $179 $-1 #
coedge $-1 $281 $403 $402 $487 reversed $179 $-1 #
coedge $-1 $289 $284 $281 $406 forward $290 $-1 #
edge $-1 $409 -43.779665396884752 $488 -33.571426845189038 $405 $489 forward 7 unknown #
coedge $-1 $283 $282 $412 $490 reversed $112 $-1 #
edge $-1 $491 -1.9477141995791963e-014 $409 14.191121718450546 $403 $492 forward 7 unknown #
vertex $-1 $285 $493 #
straight-curve $-1 21.163090434604932 -32.196620986000568 16.336230457539642 -1 0 0 I I #
coedge $-1 $402 $286 $289 $416 reversed $279 $-1 #
coedge $-1 $286 $402 $407 $490 forward $279 $-1 #
vertex $-1 $287 $494 #
straight-curve $-1 59.128729802939958 -42.404859537696282 59.959112066227647 0 0 1 I I #
straight-curve $-1 59.128729802939958 -42.404859537696268 6.4782488538059226 0 -0.71933979245794832 -0.69465837861970381 I I #
edge $-1 $488 25.523631935479774 $291 59.128729802939958 $411 $495 forward 7 unknown #
point $-1 59.128729802939958 -42.404859537696282 16.336230457539642 #
point $-1 59.128729802939958 -32.196620986000568 16.336230457539642 #
edge $-1 $496 1 $496 0 $294 $-1 forward 7 unknown #
vertex $-1 $295 $497 #
ellipse-curve $-1 35.125088469039824 -36.168218357363941 10.234478919172762 0 -0.69465837861970381 0.71933979245794832 1.5 0 0 1 I I #
point $-1 36.625088469039824 -37.300740261848432 11.407239655672779 #
edge $-1 $498 1 $498 0 $298 $-1 forward 7 unknown #
vertex $-1 $299 $499 #
ellipse-curve $-1 49.52727326937989 -36.168218357363941 10.234478919172762 0 -0.69465837861970381 0.71933979245794832 1.5 0 0 1 I I #
point $-1 51.02727326937989 -37.300740261848432 11.407239655672779 #
plane-surface $-1 78.85006256294443 0 0 -1 0 0 0 0 1 forward_v I I I I #
coedge $-1 $307 $305 $309 $432 reversed $201 $-1 #
edge $-1 $320 -16.336230457539642 $434 16.336230457539642 $319 $500 forward 7 unknown #
vertex $-1 $432 $501 #
straight-curve $-1 -78.85006256294443 -42.404859537696282 0 0 0 -1 I I #
edge $-1 $430 -42.404859537696282 $434 42.404859537696282 $428 $502 forward 7 unknown #
straight-curve $-1 0 -42.404859537696282 -16.336230457539642 -1 0 0 I I #
vertex $-1 $312 $503 #
straight-curve $-1 0 42.404859537696282 -16.336230457539642 1 0 0 I I #
point $-1 78.85006256294443 42.404859537696282 -16.336230457539642 #
point $-1 78.85006256294443 -42.404859537696282 -16.336230457539642 #
straight-curve $-1 -78.85006256294443 0 16.336230457539642 0 -1 0 I I #
point $-1 -78.85006256294443 42.404859537696282 16.336230457539642 #
point $-1 -78.85006256294443 -42.404859537696282 16.336230457539642 #
straight-curve $-1 78.85006256294443 -42.404859537696282 0 0 0 -1 I I #
straight-curve $-1 78.85006256294443 42.404859537696282 0 0 0 -1 I I #
plane-surface $-1 0 42.404859537696282 0 0 -1 0 0 0 -1 forward_v I I I I #
coedge $-1 $454 $453 $335 $446 forward $330 $-1 #
straight-curve $-1 -65.657216595457868 -42.404859537696282 0.96813539246515035 0 0 1 I I #
edge $-1 $449 -42.404859537696282 $447 42.404859537696282 $444 $504 forward 7 unknown #
vertex $-1 $336 $505 #
straight-curve $-1 -36.126819789600574 -42.404859537696282 -0.25374232371053829 1 0 0 I I #
vertex $-1 $338 $506 #
straight-curve $-1 -36.126819789600574 42.404859537696282 -0.25374232371053829 -1 0 0 I I #
point $-1 -65.657216595457868 42.404859537696282 -0.25374232371053829 #
point $-1 -65.657216595457868 -42.404859537696282 -0.25374232371053829 #
coedge $-1 $444 $342 $345 $456 forward $330 $-1 #
coedge $-1 $342 $444 $349 $458 reversed $330 $-1 #
straight-curve $-1 -78.85006256294443 0 4.1262838935711397 0 1 0 I I #
edge $-1 $347 -4.1262838935711397 $449 0.25374232371053829 $345 $507 forward 7 unknown #
point $-1 -78.85006256294443 42.404859537696282 4.1262838935711397 #
edge $-1 $350 -4.1262838935711397 $447 0.25374232371053829 $454 $508 forward 7 unknown #
point $-1 -78.85006256294443 -42.404859537696282 4.1262838935711397 #
straight-curve $-1 -65.657216595457868 42.404859537696282 0.96813539246515035 0 0 -1 I I #
coedge $-1 $462 $357 $468 $509 reversed $237 $-1 #
coedge $-1 $357 $461 $360 $466 reversed $237 $-1 #
edge $-1 $464 -48.772668117989767 $365 -11.38212077191956 $364 $510 forward 7 unknown #
vertex $-1 $359 $511 #
straight-curve $-1 78.85006256294443 3.6493724482834669 46.07745173064707 0 0.70710677298230462 -0.70710678939079052 I I #
edge $-1 $361 33.390593031242794 $470 42.404859537696282 $462 $512 forward 7 unknown #
point $-1 78.85006256294443 33.390593031242794 16.336230457539635 #
coedge $-1 $364 $363 $461 $509 forward $355 $-1 #
point $-1 41.459515216874223 42.404859537696289 7.3219637419091583 #
vertex $-1 $466 $513 #
straight-curve $-1 0 42.404859537696282 16.336230457539642 -1 0 0 I I #
vertex $-1 $371 $514 #
point $-1 62.154788889909327 33.916849071038413 7.8482199786699498 #
edge $-1 $475 43.622881608688004 $478 53.480863212421738 $376 $515 forward 7 unknown #
vertex $-1 $390 $516 #
straight-curve $-1 -45.935883835453382 -75.97628638288532 16.336230457539642 0 -1 0 I I #
edge $-1 $478 -31.369216384591738 $387 2.2358814828684466 $386 $517 forward 7 unknown #
vertex $-1 $477 $518 #
straight-curve $-1 -45.935883835453382 -42.404859537696268 6.4782488538059226 0 0.71933979245794832 0.69465837861970381 I I #
point $-1 -45.935883835453382 -32.196620986000568 16.336230457539642 #
point $-1 -12.330785967993197 -42.404859537696282 6.4782488538059093 #
straight-curve $-1 0 -42.404859537696282 16.336230457539642 1 0 0 I I #
vertex $-1 $393 $519 #
point $-1 -34.834427301893328 -36.168218357363941 10.234478919172762 #
vertex $-1 $397 $520 #
point $-1 -20.432242501553254 -36.168218357363941 10.234478919172762 #
edge $-1 $488 43.622881608688004 $491 53.480863212421738 $402 $521 forward 7 unknown #
vertex $-1 $416 $522 #
straight-curve $-1 25.523631935479774 -75.97628638288532 16.336230457539642 0 -1 0 I I #
edge $-1 $491 4.3605415008748416 $413 37.965639368335026 $412 $523 forward 7 unknown #
vertex $-1 $490 $524 #
straight-curve $-1 25.523631935479774 -42.404859537696268 6.4782488538059226 0 0.71933979245794832 0.69465837861970381 I I #
point $-1 25.523631935479774 -32.196620986000568 16.336230457539642 #
point $-1 59.128729802939958 -42.404859537696282 6.4782488538059093 #
straight-curve $-1 0 -42.404859537696282 16.336230457539642 1 0 0 I I #
vertex $-1 $419 $525 #
point $-1 36.625088469039824 -36.168218357363941 10.234478919172762 #
vertex $-1 $423 $526 #
point $-1 51.02727326937989 -36.168218357363941 10.234478919172762 #
straight-curve $-1 -78.85006256294443 42.404859537696282 0 0 0 -1 I I #
point $-1 -78.85006256294443 -42.404859537696282 -16.336230457539642 #
straight-curve $-1 -78.85006256294443 0 -16.336230457539642 0 1 0 I I #
point $-1 -78.85006256294443 42.404859537696282 -16.336230457539642 #
straight-curve $-1 -78.85006256294443 0 -0.25374232371053829 0 -1 0 I I #
point $-1 -78.85006256294443 -42.404859537696282 -0.25374232371053829 #
point $-1 -78.85006256294443 42.404859537696282 -0.25374232371053829 #
straight-curve $-1 -78.85006256294443 42.404859537696282 0 0 0 -1 I I #
straight-curve $-1 -78.85006256294443 -42.404859537696282 0 0 0 -1 I I #
edge $-1 $470 -16.336230457539642 $464 -7.3219637419091583 $461 $527 forward 7 unknown #
straight-curve $-1 30.077394444954663 42.404859537696282 7.3219637419091654 -1 0 0 I I #
point $-1 78.85006256294443 42.404859537696289 7.3219637419091583 #
straight-curve $-1 78.85006256294443 0 16.336230457539642 0 1 0 I I #
point $-1 78.85006256294443 42.404859537696282 16.336230457539642 #
point $-1 60.154788889909327 32.502635492256829 6.434006432705341 #
straight-curve $-1 -45.935883835453382 -42.404859537696282 59.959112066227647 0 0 -1 I I #
point $-1 -45.935883835453382 -42.404859537696282 16.336230457539642 #
straight-curve $-1 -14.566667450861644 -42.404859537696282 6.4782488538059084 1 0 0 I I #
point $-1 -45.935883835453382 -42.404859537696282 6.4782488538059093 #
point $-1 -36.334427301893328 -35.126230789434388 9.1554692304858385 #
point $-1 -21.932242501553254 -35.126230789434388 9.1554692304858385 #
straight-curve $-1 25.523631935479774 -42.404859537696282 59.959112066227647 0 0 -1 I I #
point $-1 25.523631935479774 -42.404859537696282 16.336230457539642 #
straight-curve $-1 21.163090434604932 -42.404859537696282 6.4782488538059084 1 0 0 I I #
point $-1 25.523631935479774 -42.404859537696282 6.4782488538059093 #
point $-1 35.125088469039824 -35.126230789434388 9.1554692304858385 #
point $-1 49.52727326937989 -35.126230789434388 9.1554692304858385 #
straight-curve $-1 78.85006256294443 42.404859537696282 0 0 0 -1 I I #
End-of-ACIS-data 