500 0 6 0           
7 Unknown 11 ACIS 5.0 NT 24 Fri Mar 26 15:06:14 1999 
-1 9.9999999999999995e-007 1e-010 
body $-1 $6 $-1 $7 #
body $-1 $8 $-1 $9 #
body $-1 $10 $-1 $11 #
body $-1 $12 $-1 $13 #
body $-1 $14 $-1 $15 #
body $-1 $16 $-1 $17 #
lump $-1 $-1 $18 $0 #
transform $-1 1 0 0 0 1 0 0 0 1 54.403515732291638 26.272147939740897 9.2475683673387739 1 rotate no_reflect no_shear #
lump $-1 $-1 $19 $1 #
transform $-1 1 0 0 0 1 0 0 0 1 54.403515732291638 26.272147939740897 9.2475683673387739 1 rotate no_reflect no_shear #
lump $-1 $-1 $20 $2 #
transform $-1 1 0 0 0 1 0 0 0 1 54.403515732291638 26.272147939740897 9.2475683673387739 1 rotate no_reflect no_shear #
lump $-1 $-1 $21 $3 #
transform $-1 1 0 0 0 1 0 0 0 1 54.403515732291638 26.272147939740897 9.2475683673387739 1 rotate no_reflect no_shear #
lump $-1 $-1 $22 $4 #
transform $-1 1 0 0 0 1 0 0 0 1 54.403515732291638 26.272147939740897 9.2475683673387739 1 rotate no_reflect no_shear #
lump $-1 $-1 $23 $5 #
transform $-1 1 0 0 0 1 0 0 0 1 54.403515732291638 26.272147939740897 9.2475683673387739 1 rotate no_reflect no_shear #
shell $-1 $-1 $-1 $24 $-1 $6 #
shell $-1 $-1 $-1 $25 $-1 $8 #
shell $-1 $-1 $-1 $26 $-1 $10 #
shell $-1 $-1 $-1 $27 $-1 $12 #
shell $-1 $-1 $-1 $28 $-1 $14 #
shell $-1 $-1 $-1 $29 $-1 $16 #
face $-1 $30 $31 $18 $-1 $32 forward single #
face $-1 $33 $34 $19 $-1 $35 reversed single #
face $-1 $36 $37 $20 $-1 $38 reversed single #
face $-1 $39 $40 $21 $-1 $41 forward single #
face $-1 $42 $43 $22 $-1 $44 forward single #
face $-1 $45 $46 $23 $-1 $47 forward single #
face $-1 $48 $49 $18 $-1 $50 reversed single #
loop $-1 $-1 $51 $24 #
plane-surface $-1 0 0 9.2475683673387739 0 0 1 1 0 0 forward_v I I I I #
face $-1 $52 $53 $19 $-1 $54 reversed single #
loop $-1 $-1 $55 $25 #
plane-surface $-1 -50.005483750920845 -10.777011205063349 0 0 1 0 0 0 1 forward_v I I I I #
face $-1 $56 $57 $20 $-1 $58 reversed single #
loop $-1 $-1 $59 $26 #
plane-surface $-1 96.817596448476834 12.665501043406557 151.84586763535779 0 1 0 0.87461971476443456 0 0.48480960649040278 forward_v I I I I #
face $-1 $60 $61 $21 $-1 $62 forward single #
loop $-1 $63 $64 $27 #
cone-surface $-1 51.265639720002092 15.386830422673427 5.6665033162325571 -0.87461971476443456 0 -0.48480960649040278 0.48480960649040278 0 -0.87461971476443456 1 I I 0 1 1 forward I I I I #
face $-1 $65 $66 $22 $-1 $67 forward single #
loop $-1 $68 $69 $28 #
cone-surface $-1 51.265639720002092 19.468824491573727 5.6665033162325571 -0.87461971476443456 0 -0.48480960649040278 0.48480960649040278 0 -0.87461971476443456 1 I I 0 1 1 forward I I I I #
face $-1 $70 $71 $23 $-1 $72 forward single #
loop $-1 $73 $74 $29 #
cone-surface $-1 51.265639720002092 23.550818560474028 5.6665033162325571 -0.87461971476443456 0 -0.48480960649040278 0.48480960649040278 0 -0.87461971476443456 1 I I 0 1 1 forward I I I I #
face $-1 $75 $76 $18 $-1 $77 reversed single #
loop $-1 $-1 $78 $30 #
plane-surface $-1 0 0 -9.2475683673387739 0 0 1 1 0 0 forward_v I I I I #
coedge $-1 $79 $80 $81 $82 forward $31 $-1 #
face $-1 $83 $84 $19 $-1 $85 reversed single #
loop $-1 $-1 $86 $33 #
plane-surface $-1 -50.005483750920845 -7.7770112050633493 0 0 -1 0 0 0 -1 forward_v I I I I #
coedge $-1 $87 $88 $89 $90 reversed $34 $-1 #
face $-1 $91 $92 $20 $-1 $93 reversed single #
loop $-1 $-1 $94 $36 #
plane-surface $-1 1.6528216245581575 19.468824491573727 99.095173527624297 0.87461971476443456 0 0.48480960649040278 0.48480960649040278 0 -0.87461971476443456 forward_v I I I I #
coedge $-1 $95 $96 $97 $98 reversed $37 $-1 #
face $-1 $-1 $99 $21 $-1 $100 forward single #
loop $-1 $101 $102 $39 #
cone-surface $-1 49.16413143199965 15.386830422673427 4.5016182936977156 -0.87461971476443456 0 -0.48480960649040278 0.24240480324520139 0 -0.43730985738221728 1 I I -0.70710678118654746 0.70710678118654746 0.5 forward I I I I #
loop $-1 $-1 $103 $27 #
coedge $-1 $64 $64 $104 $105 reversed $40 $-1 #
face $-1 $-1 $106 $22 $-1 $107 forward single #
loop $-1 $108 $109 $42 #
cone-surface $-1 49.16413143199965 19.468824491573727 4.5016182936977156 -0.87461971476443456 0 -0.48480960649040278 0.24240480324520139 0 -0.43730985738221728 1 I I -0.70710678118654746 0.70710678118654746 0.5 forward I I I I #
loop $-1 $-1 $110 $28 #
coedge $-1 $69 $69 $111 $112 reversed $43 $-1 #
face $-1 $-1 $113 $23 $-1 $114 forward single #
loop $-1 $115 $116 $45 #
cone-surface $-1 49.16413143199965 23.550818560474028 4.5016182936977156 -0.87461971476443456 0 -0.48480960649040278 0.24240480324520139 0 -0.43730985738221728 1 I I -0.70710678118654746 0.70710678118654746 0.5 forward I I I I #
loop $-1 $-1 $117 $29 #
coedge $-1 $74 $74 $118 $119 reversed $46 $-1 #
face $-1 $120 $121 $18 $-1 $122 reversed single #
loop $-1 $-1 $123 $48 #
plane-surface $-1 0 -26.272147939740897 0 0 1 0 0 0 1 forward_v I I I I #
coedge $-1 $124 $125 $126 $127 forward $49 $-1 #
coedge $-1 $128 $51 $129 $130 forward $31 $-1 #
coedge $-1 $51 $128 $131 $132 forward $31 $-1 #
coedge $-1 $133 $134 $51 $82 reversed $135 $-1 #
edge $-1 $136 -26.272147939740897 $137 26.272147939740897 $81 $138 forward 7 unknown #
face $-1 $139 $140 $19 $-1 $141 reversed single #
loop $-1 $-1 $142 $52 #
plane-surface $-1 -45.607451769550053 -9.2770112050633493 0 -1 0 0 0 0 1 forward_v I I I I #
coedge $-1 $143 $144 $145 $146 forward $53 $-1 #
coedge $-1 $147 $55 $148 $149 reversed $34 $-1 #
coedge $-1 $55 $147 $150 $151 reversed $34 $-1 #
coedge $-1 $152 $153 $55 $90 forward $154 $-1 #
edge $-1 $155 -9.2475683673387739 $156 9.2475683673387739 $89 $157 forward 7 unknown #
face $-1 $158 $159 $20 $-1 $160 reversed single #
loop $-1 $-1 $97 $56 #
plane-surface $-1 54.403515732291638 0 0 -1 0 0 0 0 1 forward_v I I I I #
coedge $-1 $161 $162 $163 $164 reversed $57 $-1 #
coedge $-1 $96 $59 $165 $166 reversed $37 $-1 #
coedge $-1 $59 $95 $161 $167 reversed $37 $-1 #
coedge $-1 $163 $168 $59 $98 forward $92 $-1 #
edge $-1 $169 66.675365450340124 $170 71.992535113973261 $97 $171 forward 7 unknown #
loop $-1 $-1 $104 $60 #
plane-surface $-1 1.6528216245581575 19.468824491573727 99.095173527624297 0.87461971476443456 0 0.48480960649040278 0.48480960649040278 0 -0.87461971476443456 forward_v I I I I #
loop $-1 $-1 $172 $39 #
coedge $-1 $102 $102 $103 $173 reversed $61 $-1 #
coedge $-1 $103 $103 $102 $173 forward $63 $-1 #
coedge $-1 $104 $104 $64 $105 forward $99 $-1 #
edge $-1 $174 0 $174 6.2831853071796004 $104 $175 forward 7 unknown #
loop $-1 $-1 $111 $65 #
plane-surface $-1 1.6528216245581575 19.468824491573727 99.095173527624297 0.87461971476443456 0 0.48480960649040278 0.48480960649040278 0 -0.87461971476443456 forward_v I I I I #
loop $-1 $-1 $176 $42 #
coedge $-1 $109 $109 $110 $177 reversed $66 $-1 #
coedge $-1 $110 $110 $109 $177 forward $68 $-1 #
coedge $-1 $111 $111 $69 $112 forward $106 $-1 #
edge $-1 $178 0 $178 6.2831853071796004 $111 $179 forward 7 unknown #
loop $-1 $-1 $118 $70 #
plane-surface $-1 1.6528216245581575 19.468824491573727 99.095173527624297 0.87461971476443456 0 0.48480960649040278 0.48480960649040278 0 -0.87461971476443456 forward_v I I I I #
loop $-1 $-1 $180 $45 #
coedge $-1 $116 $116 $117 $181 reversed $71 $-1 #
coedge $-1 $117 $117 $116 $181 forward $73 $-1 #
coedge $-1 $118 $118 $74 $119 forward $113 $-1 #
edge $-1 $182 0 $182 6.2831853071796004 $118 $183 forward 7 unknown #
face $-1 $184 $185 $18 $-1 $186 reversed single #
loop $-1 $-1 $187 $75 #
plane-surface $-1 -54.403515732291638 0 0 1 0 0 0 0 -1 forward_v I I I I #
coedge $-1 $188 $131 $189 $190 forward $76 $-1 #
coedge $-1 $191 $78 $188 $192 forward $49 $-1 #
coedge $-1 $78 $191 $193 $194 forward $49 $-1 #
coedge $-1 $134 $133 $78 $127 reversed $135 $-1 #
edge $-1 $195 -26.272147939740897 $196 26.272147939740897 $126 $197 forward 7 unknown #
coedge $-1 $80 $79 $198 $199 forward $31 $-1 #
coedge $-1 $200 $201 $79 $130 reversed $185 $-1 #
edge $-1 $137 -54.403515732291638 $202 54.403515732291638 $129 $203 forward 7 unknown #
coedge $-1 $123 $204 $80 $132 reversed $76 $-1 #
edge $-1 $205 -54.403515732291638 $136 54.403515732291638 $131 $206 forward 7 unknown #
coedge $-1 $126 $81 $204 $207 forward $135 $-1 #
coedge $-1 $81 $126 $200 $208 reversed $135 $-1 #
loop $-1 $-1 $133 $184 #
vertex $-1 $82 $209 #
vertex $-1 $82 $210 #
straight-curve $-1 54.403515732291638 0 9.2475683673387739 0 1 0 I I #
face $-1 $211 $212 $19 $-1 $213 forward single #
loop $-1 $-1 $214 $83 #
plane-surface $-1 0 0 -9.2475683673387739 0 0 1 1 0 0 forward_v I I I I #
coedge $-1 $215 $216 $147 $217 forward $84 $-1 #
coedge $-1 $218 $86 $214 $219 reversed $53 $-1 #
coedge $-1 $86 $218 $220 $221 reversed $53 $-1 #
coedge $-1 $216 $215 $86 $146 reversed $84 $-1 #
edge $-1 $222 -9.2475683673387739 $223 9.2475683673387739 $145 $224 forward 7 unknown #
coedge $-1 $88 $87 $142 $217 reversed $34 $-1 #
coedge $-1 $225 $226 $87 $149 forward $140 $-1 #
edge $-1 $227 20.60470989408963 $155 29.400773856831215 $148 $228 forward 7 unknown #
coedge $-1 $229 $230 $88 $151 forward $212 $-1 #
edge $-1 $156 -29.400773856831215 $231 -20.60470989408963 $150 $232 forward 7 unknown #
coedge $-1 $233 $89 $230 $234 reversed $154 $-1 #
coedge $-1 $89 $233 $225 $235 reversed $154 $-1 #
loop $-1 $-1 $233 $211 #
vertex $-1 $235 $236 #
vertex $-1 $90 $237 #
straight-curve $-1 -54.403515732291638 -10.777011205063349 0 0 0 1 I I #
face $-1 $-1 $238 $20 $-1 $239 forward single #
loop $-1 $-1 $240 $91 #
plane-surface $-1 0 26.272147939740897 0 0 -1 0 0 0 -1 forward_v I I I I #
coedge $-1 $241 $94 $96 $167 forward $57 $-1 #
coedge $-1 $94 $241 $240 $242 reversed $57 $-1 #
coedge $-1 $243 $97 $94 $164 forward $92 $-1 #
edge $-1 $170 2.9310887976196938 $244 16.537735693954033 $163 $245 forward 7 unknown #
coedge $-1 $246 $247 $95 $166 forward $238 $-1 #
edge $-1 $248 3.047362344714621 $169 5.9947175080532205 $165 $249 forward 7 unknown #
edge $-1 $170 -108.80703146458328 $248 -102.7276239530967 $96 $250 forward 7 unknown #
coedge $-1 $97 $243 $246 $251 reversed $92 $-1 #
vertex $-1 $251 $252 #
vertex $-1 $98 $253 #
straight-curve $-1 54.403515732291638 12.665501043406557 75.922933817678896 0 0 -1 I I #
coedge $-1 $172 $172 $-1 $254 reversed $101 $-1 #
edge $-1 $255 0 $255 6.2831853071796004 $102 $256 forward 7 unknown #
vertex $-1 $105 $257 #
ellipse-curve $-1 52.929838150622331 15.386830422673427 6.5889835355222051 0.87461971476443456 0 0.48480960649040278 0.48480960649040278 0 -0.87461971476443456 1 I I #
coedge $-1 $176 $176 $-1 $258 reversed $108 $-1 #
edge $-1 $259 0 $259 6.2831853071796004 $109 $260 forward 7 unknown #
vertex $-1 $112 $261 #
ellipse-curve $-1 52.929838150622331 19.468824491573727 6.5889835355222051 0.87461971476443456 0 0.48480960649040278 0.48480960649040278 0 -0.87461971476443456 1 I I #
coedge $-1 $180 $180 $-1 $262 reversed $115 $-1 #
edge $-1 $263 0 $263 6.2831853071796004 $116 $264 forward 7 unknown #
vertex $-1 $119 $265 #
ellipse-curve $-1 52.929838150622331 23.550818560474028 6.5889835355222051 0.87461971476443456 0 0.48480960649040278 0.48480960649040278 0 -0.87461971476443456 1 I I #
face $-1 $-1 $135 $18 $-1 $266 reversed single #
loop $-1 $-1 $200 $120 #
plane-surface $-1 0 26.272147939740897 0 0 -1 0 0 0 -1 forward_v I I I I #
coedge $-1 $267 $198 $201 $268 forward $121 $-1 #
coedge $-1 $204 $123 $124 $192 reversed $76 $-1 #
coedge $-1 $198 $267 $123 $190 reversed $121 $-1 #
edge $-1 $205 -9.2475683673387739 $269 9.2475683673387739 $189 $270 forward 7 unknown #
coedge $-1 $125 $124 $267 $271 forward $49 $-1 #
edge $-1 $196 -54.403515732291638 $269 54.403515732291638 $188 $272 forward 7 unknown #
coedge $-1 $201 $200 $125 $194 reversed $185 $-1 #
edge $-1 $273 -54.403515732291638 $195 54.403515732291638 $193 $274 forward 7 unknown #
vertex $-1 $127 $275 #
vertex $-1 $207 $276 #
straight-curve $-1 54.403515732291638 0 -9.2475683673387739 0 -1 0 I I #
coedge $-1 $187 $189 $128 $199 reversed $121 $-1 #
edge $-1 $202 -26.272147939740897 $205 26.272147939740897 $198 $277 forward 7 unknown #
coedge $-1 $193 $129 $134 $208 forward $185 $-1 #
coedge $-1 $129 $193 $187 $268 reversed $185 $-1 #
vertex $-1 $130 $278 #
straight-curve $-1 0 26.272147939740897 9.2475683673387739 -1 0 0 I I #
coedge $-1 $131 $188 $133 $207 reversed $76 $-1 #
vertex $-1 $199 $279 #
straight-curve $-1 0 -26.272147939740897 9.2475683673387739 1 0 0 I I #
edge $-1 $136 -9.2475683673387739 $196 9.2475683673387739 $133 $280 forward 7 unknown #
edge $-1 $137 -9.2475683673387739 $195 9.2475683673387739 $134 $281 forward 7 unknown #
point $-1 54.403515732291638 -26.272147939740897 9.2475683673387739 #
point $-1 54.403515732291638 26.272147939740897 9.2475683673387739 #
face $-1 $-1 $154 $19 $-1 $282 reversed single #
loop $-1 $-1 $220 $139 #
plane-surface $-1 0 0 9.2475683673387739 0 0 1 1 0 0 forward_v I I I I #
coedge $-1 $226 $225 $143 $219 forward $140 $-1 #
coedge $-1 $145 $142 $226 $283 reversed $84 $-1 #
coedge $-1 $142 $145 $229 $284 reversed $84 $-1 #
edge $-1 $231 -9.2475683673387739 $227 9.2475683673387739 $142 $285 forward 7 unknown #
coedge $-1 $144 $143 $233 $286 reversed $53 $-1 #
edge $-1 $287 -29.400773856831215 $223 -20.60470989408963 $214 $288 forward 7 unknown #
coedge $-1 $230 $229 $144 $221 forward $212 $-1 #
edge $-1 $222 20.60470989408963 $289 29.400773856831215 $220 $290 forward 7 unknown #
vertex $-1 $221 $291 #
vertex $-1 $219 $292 #
straight-curve $-1 -45.607451769550053 -7.7770112050633493 0 0 0 -1 I I #
coedge $-1 $214 $148 $153 $235 forward $140 $-1 #
coedge $-1 $148 $214 $215 $283 forward $140 $-1 #
vertex $-1 $149 $293 #
straight-curve $-1 -25.002741875460423 -10.777011205063349 -9.2475683673387739 -1 0 0 I I #
coedge $-1 $220 $150 $216 $284 forward $212 $-1 #
coedge $-1 $150 $220 $152 $234 forward $212 $-1 #
vertex $-1 $151 $294 #
straight-curve $-1 -25.002741875460423 -10.777011205063349 9.2475683673387739 1 0 0 I I #
coedge $-1 $153 $152 $218 $286 forward $154 $-1 #
edge $-1 $289 7.7770112050633493 $156 10.777011205063349 $152 $295 forward 7 unknown #
edge $-1 $155 -10.777011205063349 $287 -7.7770112050633493 $153 $296 forward 7 unknown #
point $-1 -54.403515732291638 -10.777011205063349 -9.2475683673387739 #
point $-1 -54.403515732291638 -10.777011205063349 9.2475683673387739 #
loop $-1 $-1 $165 $158 #
plane-surface $-1 0 0 9.2475683673387739 0 0 1 1 0 0 forward_v I I I I #
coedge $-1 $297 $298 $162 $242 forward $159 $-1 #
coedge $-1 $162 $161 $247 $299 reversed $57 $-1 #
edge $-1 $244 -65.872387162652245 $300 -59.79297965116568 $240 $301 forward 7 unknown #
coedge $-1 $168 $163 $298 $302 reversed $92 $-1 #
vertex $-1 $242 $303 #
straight-curve $-1 54.403515732291638 9.7344122457868636 3.9303987037056416 0 1 0 I I #
coedge $-1 $304 $165 $168 $251 forward $238 $-1 #
coedge $-1 $165 $304 $241 $299 forward $238 $-1 #
vertex $-1 $166 $305 #
straight-curve $-1 48.408798224238417 12.665501043406557 9.2475683673387721 1 0 0 I I #
straight-curve $-1 1.6528216245581575 12.665501043406557 99.095173527624297 -0.48480960649040278 0 0.87461971476443456 I I #
edge $-1 $169 12.665501043406557 $306 26.272147939740897 $168 $307 forward 7 unknown #
point $-1 54.403515732291638 12.665501043406557 9.2475683673387739 #
point $-1 54.403515732291638 12.665501043406557 3.9303987037056345 #
edge $-1 $308 1 $308 0 $172 $-1 forward 7 unknown #
vertex $-1 $173 $309 #
ellipse-curve $-1 49.601441289381867 15.386830422673427 4.7440230969429171 0.87461971476443456 0 0.48480960649040278 0.48480960649040278 0 -0.87461971476443456 1 I I #
point $-1 53.414647757112725 15.386830422673427 5.7143638207577627 #
edge $-1 $310 1 $310 0 $176 $-1 forward 7 unknown #
vertex $-1 $177 $311 #
ellipse-curve $-1 49.601441289381867 19.468824491573727 4.7440230969429171 0.87461971476443456 0 0.48480960649040278 0.48480960649040278 0 -0.87461971476443456 1 I I #
point $-1 53.414647757112725 19.468824491573727 5.7143638207577627 #
edge $-1 $312 1 $312 0 $180 $-1 forward 7 unknown #
vertex $-1 $181 $313 #
ellipse-curve $-1 49.601441289381867 23.550818560474028 4.7440230969429171 0.87461971476443456 0 0.48480960649040278 0.48480960649040278 0 -0.87461971476443456 1 I I #
point $-1 53.414647757112725 23.550818560474028 5.7143638207577627 #
plane-surface $-1 54.403515732291638 0 0 -1 0 0 0 0 1 forward_v I I I I #
coedge $-1 $189 $187 $191 $271 reversed $121 $-1 #
edge $-1 $202 -9.2475683673387739 $273 9.2475683673387739 $201 $314 forward 7 unknown #
vertex $-1 $271 $315 #
straight-curve $-1 -54.403515732291638 -26.272147939740897 0 0 0 -1 I I #
edge $-1 $269 -26.272147939740897 $273 26.272147939740897 $267 $316 forward 7 unknown #
straight-curve $-1 0 -26.272147939740897 -9.2475683673387739 -1 0 0 I I #
vertex $-1 $194 $317 #
straight-curve $-1 0 26.272147939740897 -9.2475683673387739 1 0 0 I I #
point $-1 54.403515732291638 26.272147939740897 -9.2475683673387739 #
point $-1 54.403515732291638 -26.272147939740897 -9.2475683673387739 #
straight-curve $-1 -54.403515732291638 0 9.2475683673387739 0 -1 0 I I #
point $-1 -54.403515732291638 26.272147939740897 9.2475683673387739 #
point $-1 -54.403515732291638 -26.272147939740897 9.2475683673387739 #
straight-curve $-1 54.403515732291638 -26.272147939740897 0 0 0 -1 I I #
straight-curve $-1 54.403515732291638 26.272147939740897 0 0 0 -1 I I #
plane-surface $-1 -54.403515732291638 0 0 1 0 0 0 0 -1 forward_v I I I I #
edge $-1 $223 3.1385056025316747 $227 6.1385056025316747 $226 $318 forward 7 unknown #
edge $-1 $231 -6.1385056025316747 $222 -3.1385056025316747 $229 $319 forward 7 unknown #
straight-curve $-1 -45.607451769550053 -10.777011205063349 0 0 0 -1 I I #
edge $-1 $289 -9.2475683673387739 $287 9.2475683673387739 $233 $320 forward 7 unknown #
vertex $-1 $286 $321 #
straight-curve $-1 -25.002741875460423 -7.7770112050633493 -9.2475683673387739 1 0 0 I I #
vertex $-1 $234 $322 #
straight-curve $-1 -25.002741875460423 -7.7770112050633493 9.2475683673387739 -1 0 0 I I #
point $-1 -45.607451769550053 -7.7770112050633493 9.2475683673387739 #
point $-1 -45.607451769550053 -7.7770112050633493 -9.2475683673387739 #
point $-1 -45.607451769550053 -10.777011205063349 -9.2475683673387739 #
point $-1 -45.607451769550053 -10.777011205063349 9.2475683673387739 #
straight-curve $-1 -54.403515732291638 0 9.2475683673387739 0 -1 0 I I #
straight-curve $-1 -54.403515732291638 0 -9.2475683673387739 0 1 0 I I #
coedge $-1 $298 $240 $304 $323 reversed $159 $-1 #
coedge $-1 $240 $297 $243 $302 forward $159 $-1 #
edge $-1 $300 -16.537735693954033 $248 -2.9310887976196938 $247 $324 forward 7 unknown #
vertex $-1 $242 $325 #
straight-curve $-1 22.467949633382748 26.272147939740897 61.543687174756933 -0.48480960649040278 0 0.87461971476443456 I I #
edge $-1 $306 -9.2475683673387739 $244 -3.9303987037056358 $243 $326 forward 7 unknown #
point $-1 54.403515732291638 26.272147939740897 3.9303987037056358 #
coedge $-1 $247 $246 $297 $323 forward $238 $-1 #
point $-1 51.456160568953038 12.665501043406557 9.2475683673387721 #
vertex $-1 $251 $327 #
straight-curve $-1 54.403515732291638 0 9.2475683673387739 0 1 0 I I #
vertex $-1 $254 $328 #
point $-1 50.086250895872269 15.386830422673427 3.8694033821784823 #
vertex $-1 $258 $329 #
point $-1 50.086250895872269 19.468824491573727 3.8694033821784823 #
vertex $-1 $262 $330 #
point $-1 50.086250895872269 23.550818560474028 3.8694033821784823 #
straight-curve $-1 -54.403515732291638 26.272147939740897 0 0 0 -1 I I #
point $-1 -54.403515732291638 -26.272147939740897 -9.2475683673387739 #
straight-curve $-1 -54.403515732291638 0 -9.2475683673387739 0 1 0 I I #
point $-1 -54.403515732291638 26.272147939740897 -9.2475683673387739 #
straight-curve $-1 -45.607451769550053 -4.6385056025316747 -9.2475683673387739 0 -1 0 I I #
straight-curve $-1 -45.607451769550053 -4.6385056025316747 9.2475683673387739 0 1 0 I I #
straight-curve $-1 -54.403515732291638 -7.7770112050633493 0 0 0 -1 I I #
point $-1 -54.403515732291638 -7.7770112050633493 -9.2475683673387739 #
point $-1 -54.403515732291638 -7.7770112050633493 9.2475683673387739 #
edge $-1 $306 -54.403515732291638 $300 -51.456160568953038 $297 $331 forward 7 unknown #
straight-curve $-1 51.456160568953038 9.7344122457868636 9.2475683673387721 0 -1 0 I I #
point $-1 51.456160568953038 26.272147939740897 9.2475683673387721 #
straight-curve $-1 54.403515732291638 26.272147939740897 0 0 0 -1 I I #
point $-1 54.403515732291638 26.272147939740897 9.2475683673387739 #
point $-1 48.726821574617432 15.386830422673427 4.2592134904525141 #
point $-1 48.726821574617432 19.468824491573727 4.2592134904525141 #
point $-1 48.726821574617432 23.550818560474028 4.2592134904525141 #
straight-curve $-1 0 26.272147939740897 9.2475683673387739 -1 0 0 I I #
End-of-ACIS-data 