500 0 7 0           
7 Unknown 11 ACIS 5.0 NT 24 Thu Mar 25 17:41:54 1999 
-1 9.9999999999999995e-007 1e-010 
body $-1 $7 $-1 $8 #
body $-1 $9 $-1 $10 #
body $-1 $11 $-1 $12 #
body $-1 $13 $-1 $14 #
body $-1 $15 $-1 $16 #
body $-1 $17 $-1 $18 #
body $-1 $19 $-1 $20 #
lump $-1 $-1 $21 $0 #
transform $-1 1 0 0 0 1 0 0 0 1 58.243964964751122 27.90171569114348 11.232043549778655 1 rotate no_reflect no_shear #
lump $-1 $-1 $22 $1 #
transform $-1 1 0 0 0 1 0 0 0 1 58.243964964751122 27.90171569114348 11.232043549778655 1 rotate no_reflect no_shear #
lump $-1 $-1 $23 $2 #
transform $-1 1 0 0 0 1 0 0 0 1 58.243964964751122 27.90171569114348 11.232043549778655 1 rotate no_reflect no_shear #
lump $-1 $-1 $24 $3 #
transform $-1 1 0 0 0 1 0 0 0 1 58.243964964751122 27.90171569114348 11.232043549778655 1 rotate no_reflect no_shear #
lump $-1 $-1 $25 $4 #
transform $-1 1 0 0 0 1 0 0 0 1 58.243964964751122 27.90171569114348 11.232043549778655 1 rotate no_reflect no_shear #
lump $-1 $-1 $26 $5 #
transform $-1 1 0 0 0 1 0 0 0 1 58.243964964751122 27.90171569114348 11.232043549778655 1 rotate no_reflect no_shear #
lump $-1 $-1 $27 $6 #
transform $-1 1 0 0 0 1 0 0 0 1 58.243964964751122 27.90171569114348 11.232043549778655 1 rotate no_reflect no_shear #
shell $-1 $-1 $-1 $28 $-1 $7 #
shell $-1 $-1 $-1 $29 $-1 $9 #
shell $-1 $-1 $-1 $30 $-1 $11 #
shell $-1 $-1 $-1 $31 $-1 $13 #
shell $-1 $-1 $-1 $32 $-1 $15 #
shell $-1 $-1 $-1 $33 $-1 $17 #
shell $-1 $-1 $-1 $34 $-1 $19 #
face $-1 $35 $36 $21 $-1 $37 forward single #
face $-1 $38 $39 $22 $-1 $40 forward single #
face $-1 $41 $42 $23 $-1 $43 reversed single #
face $-1 $44 $45 $24 $-1 $46 forward single #
face $-1 $47 $48 $25 $-1 $49 forward single #
face $-1 $50 $51 $26 $-1 $52 reversed single #
face $-1 $53 $54 $27 $-1 $55 forward single #
face $-1 $56 $57 $21 $-1 $58 reversed single #
loop $-1 $-1 $59 $28 #
plane-surface $-1 0 0 11.232043549778655 0 0 1 1 0 0 forward_v I I I I #
face $-1 $60 $61 $22 $-1 $62 reversed single #
loop $-1 $-1 $63 $29 #
plane-surface $-1 0 -23.824449946836303 -4.1072038995413447 0 0 1 1 0 0 forward_v I I I I #
face $-1 $64 $65 $23 $-1 $66 reversed single #
loop $-1 $-1 $67 $30 #
plane-surface $-1 84.01479490006588 18.998188833813618 167.23977089138452 0 1 0 0.80901700255871778 0 0.5877852410284794 forward_v I I I I #
face $-1 $68 $69 $24 $-1 $70 forward single #
loop $-1 $71 $72 $31 #
cone-surface $-1 54.461806205095733 21.54205365019358 6.9018103052279693 -0.80901700255871778 0 -0.5877852410284794 0.5877852410284794 0 -0.80901700255871778 1 I I 0 1 1 forward I I I I #
face $-1 $73 $74 $25 $-1 $75 forward single #
loop $-1 $76 $77 $32 #
cone-surface $-1 54.461806205095733 25.357850874763521 6.9018103052279693 -0.80901700255871778 0 -0.5877852410284794 0.5877852410284794 0 -0.80901700255871778 1 I I 0 1 1 forward I I I I #
face $-1 $78 $79 $26 $-1 $80 reversed single #
loop $-1 $-1 $81 $33 #
plane-surface $-1 -147.4788973429728 12.228456606315106 80.288484604524868 0 1 0 -0.7660444514056185 0 0.64278759981090561 forward_v I I I I #
face $-1 $82 $83 $27 $-1 $84 forward single #
loop $-1 $85 $86 $34 #
cone-surface $-1 -54.610979202097674 18.458282166269044 7.3224209061478831 0.7660444514056185 0 -0.64278759981090561 0.96418139971635841 0 1.1490666771084277 1 I I 0 1 1.5 forward I I I I #
face $-1 $87 $88 $21 $-1 $89 reversed single #
loop $-1 $-1 $90 $35 #
plane-surface $-1 0 0 -11.232043549778655 0 0 1 1 0 0 forward_v I I I I #
coedge $-1 $91 $92 $93 $94 forward $36 $-1 #
face $-1 $95 $96 $22 $-1 $97 reversed single #
loop $-1 $-1 $98 $38 #
plane-surface $-1 0 -23.824449946836303 -7.1072038995413447 0 0 1 1 0 0 forward_v I I I I #
coedge $-1 $99 $100 $101 $102 reversed $39 $-1 #
face $-1 $103 $104 $23 $-1 $105 forward single #
loop $-1 $-1 $106 $41 #
plane-surface $-1 -10.225921005769976 23.449952262478547 98.769884920863433 0.80901700255871778 0 0.5877852410284794 0.5877852410284794 0 -0.80901700255871778 forward_v I I I I #
coedge $-1 $107 $108 $109 $110 reversed $42 $-1 #
face $-1 $-1 $111 $24 $-1 $112 forward single #
loop $-1 $113 $114 $44 #
cone-surface $-1 52.710100577557789 21.54205365019358 5.6291217075385696 -0.80901700255871778 0 -0.5877852410284794 0.2938926205142397 0 -0.40450850127935889 1 I I -0.70710678118654746 0.70710678118654746 0.5 forward I I I I #
loop $-1 $-1 $115 $31 #
coedge $-1 $72 $72 $116 $117 reversed $45 $-1 #
face $-1 $-1 $118 $25 $-1 $119 forward single #
loop $-1 $120 $121 $47 #
cone-surface $-1 52.710100577557789 25.357850874763521 5.6291217075385696 -0.80901700255871778 0 -0.5877852410284794 0.2938926205142397 0 -0.40450850127935889 1 I I -0.70710678118654746 0.70710678118654746 0.5 forward I I I I #
loop $-1 $-1 $122 $32 #
coedge $-1 $77 $77 $123 $124 reversed $48 $-1 #
face $-1 $125 $126 $26 $-1 $127 reversed single #
loop $-1 $-1 $128 $50 #
plane-surface $-1 -58.243964964751129 18.458282166269044 5.4114877181991687 -0.7660444514056185 0 0.64278759981090561 0.64278759981090561 0 0.7660444514056185 forward_v I I I I #
coedge $-1 $129 $130 $131 $132 reversed $51 $-1 #
face $-1 $-1 $133 $27 $-1 $134 forward single #
loop $-1 $135 $136 $53 #
cone-surface $-1 -52.845473162717738 18.458282166269044 5.8409854784486761 0.7660444514056185 0 -0.64278759981090561 0.48209069985817921 0 0.57453333855421385 1 I I -0.70710678118654757 0.70710678118654757 0.75 forward I I I I #
loop $-1 $-1 $137 $34 #
coedge $-1 $86 $86 $138 $139 reversed $54 $-1 #
face $-1 $140 $141 $21 $-1 $142 reversed single #
loop $-1 $-1 $143 $56 #
plane-surface $-1 0 -27.90171569114348 0 0 1 0 0 0 1 forward_v I I I I #
coedge $-1 $144 $145 $146 $147 forward $57 $-1 #
coedge $-1 $148 $59 $149 $150 forward $36 $-1 #
coedge $-1 $59 $148 $151 $152 forward $36 $-1 #
coedge $-1 $153 $154 $59 $94 reversed $155 $-1 #
edge $-1 $156 -27.90171569114348 $157 27.90171569114348 $93 $158 forward 7 unknown #
face $-1 $159 $160 $22 $-1 $161 reversed single #
loop $-1 $-1 $162 $60 #
plane-surface $-1 0 -19.747184202529127 -5.6072038995413447 0 -1 0 0 0 -1 forward_v I I I I #
coedge $-1 $163 $164 $165 $166 reversed $61 $-1 #
coedge $-1 $167 $63 $168 $169 forward $39 $-1 #
coedge $-1 $63 $167 $170 $171 reversed $39 $-1 #
coedge $-1 $172 $173 $63 $102 forward $174 $-1 #
edge $-1 $175 7.8349592291109751 $176 15.989490717725328 $101 $177 forward 7 unknown #
face $-1 $178 $179 $23 $-1 $180 reversed single #
loop $-1 $-1 $181 $64 #
plane-surface $-1 0 0 11.232043549778655 0 0 1 1 0 0 forward_v I I I I #
coedge $-1 $182 $183 $184 $185 reversed $65 $-1 #
coedge $-1 $108 $67 $186 $187 reversed $42 $-1 #
coedge $-1 $67 $107 $182 $188 reversed $42 $-1 #
coedge $-1 $184 $189 $67 $110 forward $179 $-1 #
edge $-1 $190 72.38784189591361 $191 79.090716430664671 $109 $192 forward 7 unknown #
loop $-1 $-1 $116 $68 #
plane-surface $-1 -10.225921005769976 23.449952262478547 98.769884920863433 0.80901700255871778 0 0.5877852410284794 0.5877852410284794 0 -0.80901700255871778 forward_v I I I I #
loop $-1 $-1 $193 $44 #
coedge $-1 $114 $114 $115 $194 reversed $69 $-1 #
coedge $-1 $115 $115 $114 $194 forward $71 $-1 #
coedge $-1 $116 $116 $72 $117 forward $111 $-1 #
edge $-1 $195 0 $195 6.2831853071796004 $116 $196 forward 7 unknown #
loop $-1 $-1 $123 $73 #
plane-surface $-1 -10.225921005769976 23.449952262478547 98.769884920863433 0.80901700255871778 0 0.5877852410284794 0.5877852410284794 0 -0.80901700255871778 forward_v I I I I #
loop $-1 $-1 $197 $47 #
coedge $-1 $121 $121 $122 $198 reversed $74 $-1 #
coedge $-1 $122 $122 $121 $198 forward $76 $-1 #
coedge $-1 $123 $123 $77 $124 forward $118 $-1 #
edge $-1 $199 0 $199 6.2831853071796004 $123 $200 forward 7 unknown #
face $-1 $201 $202 $26 $-1 $203 reversed single #
loop $-1 $-1 $204 $78 #
plane-surface $-1 -147.4788973429728 24.688107726222981 80.288484604524868 0 -1 0 0.7660444514056185 0 -0.64278759981090561 forward_v I I I I #
coedge $-1 $205 $206 $207 $208 reversed $79 $-1 #
coedge $-1 $130 $81 $209 $210 reversed $51 $-1 #
coedge $-1 $81 $129 $205 $211 reversed $51 $-1 #
coedge $-1 $207 $212 $81 $132 forward $213 $-1 #
edge $-1 $214 15.495483706735278 $215 20.379509830390717 $131 $216 forward 7 unknown #
loop $-1 $-1 $138 $82 #
plane-surface $-1 -58.243964964751129 18.458282166269044 5.4114877181991687 -0.7660444514056185 0 0.64278759981090561 0.64278759981090561 0 0.7660444514056185 forward_v I I I I #
loop $-1 $-1 $217 $53 #
coedge $-1 $136 $136 $137 $218 reversed $83 $-1 #
coedge $-1 $137 $137 $136 $218 forward $85 $-1 #
coedge $-1 $138 $138 $86 $139 forward $133 $-1 #
edge $-1 $219 0 $219 6.2831853071796004 $138 $220 forward 7 unknown #
face $-1 $221 $222 $21 $-1 $223 reversed single #
loop $-1 $-1 $224 $87 #
plane-surface $-1 -58.243964964751122 0 0 1 0 0 0 0 -1 forward_v I I I I #
coedge $-1 $225 $151 $226 $227 forward $88 $-1 #
coedge $-1 $228 $90 $225 $229 forward $57 $-1 #
coedge $-1 $90 $228 $230 $231 forward $57 $-1 #
coedge $-1 $154 $153 $90 $147 reversed $155 $-1 #
edge $-1 $232 -27.90171569114348 $233 27.90171569114348 $146 $234 forward 7 unknown #
coedge $-1 $92 $91 $235 $236 forward $36 $-1 #
coedge $-1 $237 $238 $91 $150 reversed $222 $-1 #
edge $-1 $157 -58.243964964751122 $239 58.243964964751122 $149 $240 forward 7 unknown #
coedge $-1 $143 $241 $92 $152 reversed $88 $-1 #
edge $-1 $242 -58.243964964751122 $156 58.243964964751122 $151 $243 forward 7 unknown #
coedge $-1 $146 $93 $241 $244 forward $155 $-1 #
coedge $-1 $93 $146 $237 $245 reversed $155 $-1 #
loop $-1 $-1 $153 $221 #
vertex $-1 $94 $246 #
vertex $-1 $94 $247 #
straight-curve $-1 58.243964964751122 0 11.232043549778655 0 1 0 I I #
face $-1 $248 $249 $22 $-1 $250 reversed single #
loop $-1 $-1 $251 $95 #
plane-surface $-1 -58.243964964751122 0 0 1 0 0 0 0 -1 forward_v I I I I #
coedge $-1 $252 $168 $173 $253 reversed $96 $-1 #
coedge $-1 $254 $98 $255 $256 reversed $61 $-1 #
coedge $-1 $98 $254 $252 $257 forward $61 $-1 #
coedge $-1 $173 $172 $98 $166 forward $174 $-1 #
edge $-1 $258 -15.989490717725328 $259 -7.8349592291109751 $165 $260 forward 7 unknown #
coedge $-1 $100 $99 $251 $261 reversed $39 $-1 #
coedge $-1 $162 $262 $99 $169 reversed $96 $-1 #
edge $-1 $175 -58.243964964751122 $263 58.243964964751122 $168 $264 forward 7 unknown #
coedge $-1 $265 $266 $100 $171 forward $249 $-1 #
edge $-1 $176 -58.243964964751122 $267 58.243964964751122 $170 $268 forward 7 unknown #
coedge $-1 $165 $101 $266 $269 forward $174 $-1 #
coedge $-1 $101 $165 $162 $253 forward $174 $-1 #
loop $-1 $-1 $101 $248 #
vertex $-1 $102 $270 #
vertex $-1 $269 $271 #
straight-curve $-1 58.243964964751122 -11.912224973418152 -4.1072038995413447 0 -1 0 I I #
face $-1 $-1 $272 $23 $-1 $273 reversed single #
loop $-1 $-1 $109 $103 #
plane-surface $-1 58.243964964751122 0 0 -1 0 0 0 0 1 forward_v I I I I #
coedge $-1 $186 $274 $275 $276 forward $104 $-1 #
coedge $-1 $275 $106 $108 $188 forward $65 $-1 #
coedge $-1 $106 $275 $277 $278 reversed $65 $-1 #
coedge $-1 $279 $109 $106 $185 forward $179 $-1 #
edge $-1 $191 7.2732127025743445 $280 16.176739559904203 $184 $281 forward 7 unknown #
coedge $-1 $282 $181 $107 $187 forward $104 $-1 #
edge $-1 $283 11.366644247924583 $190 16.236567514718182 $186 $284 forward 7 unknown #
edge $-1 $191 -116.48792992950223 $283 -108.2027214437083 $108 $285 forward 7 unknown #
coedge $-1 $109 $279 $282 $286 reversed $179 $-1 #
vertex $-1 $286 $287 #
vertex $-1 $110 $288 #
straight-curve $-1 58.243964964751122 18.998188833813618 83.619885445692262 0 0 -1 I I #
coedge $-1 $193 $193 $-1 $289 reversed $113 $-1 #
edge $-1 $290 0 $290 6.2831853071796004 $114 $291 forward 7 unknown #
vertex $-1 $117 $292 #
ellipse-curve $-1 55.809003331354305 21.54205365019358 7.880606282403118 0.80901700255871778 0 0.5877852410284794 0.5877852410284794 0 -0.80901700255871778 1 I I #
coedge $-1 $197 $197 $-1 $293 reversed $120 $-1 #
edge $-1 $294 0 $294 6.2831853071796004 $121 $295 forward 7 unknown #
vertex $-1 $124 $296 #
ellipse-curve $-1 55.809003331354305 25.357850874763521 7.880606282403118 0.80901700255871778 0 0.5877852410284794 0.5877852410284794 0 -0.80901700255871778 1 I I #
face $-1 $-1 $213 $26 $-1 $297 forward single #
loop $-1 $-1 $298 $125 #
plane-surface $-1 -58.243964964751122 0 0 1 0 0 0 0 -1 forward_v I I I I #
coedge $-1 $299 $300 $301 $302 reversed $126 $-1 #
coedge $-1 $303 $128 $130 $211 forward $79 $-1 #
coedge $-1 $128 $303 $299 $304 forward $79 $-1 #
coedge $-1 $301 $131 $128 $208 forward $213 $-1 #
edge $-1 $215 2.9993155231805844 $305 15.458966643088459 $207 $306 forward 7 unknown #
coedge $-1 $307 $308 $129 $210 forward $202 $-1 #
edge $-1 $309 -34.732754584063258 $214 -28.912198752483778 $209 $310 forward 7 unknown #
edge $-1 $215 -7.5981959283163283 $309 -1.1371122099518014e-014 $130 $311 forward 7 unknown #
coedge $-1 $131 $301 $307 $312 forward $213 $-1 #
loop $-1 $-1 $301 $201 #
vertex $-1 $210 $313 #
vertex $-1 $132 $314 #
straight-curve $-1 -73.7394486714864 12.228456606315106 11.232043549778652 1 0 0 I I #
coedge $-1 $217 $217 $-1 $315 reversed $135 $-1 #
edge $-1 $316 0 $316 6.2831853071796004 $136 $317 forward 7 unknown #
vertex $-1 $139 $318 #
ellipse-curve $-1 -55.801951902923399 18.458282166269044 8.3217656339889157 -0.7660444514056185 0 0.64278759981090561 0.96418139971635841 0 1.1490666771084277 1 I I #
face $-1 $-1 $155 $21 $-1 $319 reversed single #
loop $-1 $-1 $237 $140 #
plane-surface $-1 0 27.90171569114348 0 0 -1 0 0 0 -1 forward_v I I I I #
coedge $-1 $320 $235 $238 $321 forward $141 $-1 #
coedge $-1 $241 $143 $144 $229 reversed $88 $-1 #
coedge $-1 $235 $320 $143 $227 reversed $141 $-1 #
edge $-1 $242 -11.232043549778655 $322 11.232043549778655 $226 $323 forward 7 unknown #
coedge $-1 $145 $144 $320 $324 forward $57 $-1 #
edge $-1 $233 -58.243964964751122 $322 58.243964964751122 $225 $325 forward 7 unknown #
coedge $-1 $238 $237 $145 $231 reversed $222 $-1 #
edge $-1 $326 -58.243964964751122 $232 58.243964964751122 $230 $327 forward 7 unknown #
vertex $-1 $147 $328 #
vertex $-1 $244 $329 #
straight-curve $-1 58.243964964751122 0 -11.232043549778655 0 -1 0 I I #
coedge $-1 $224 $226 $148 $236 reversed $141 $-1 #
edge $-1 $239 -27.90171569114348 $242 27.90171569114348 $235 $330 forward 7 unknown #
coedge $-1 $230 $149 $154 $245 forward $222 $-1 #
coedge $-1 $149 $230 $224 $321 reversed $222 $-1 #
vertex $-1 $150 $331 #
straight-curve $-1 0 27.90171569114348 11.232043549778655 -1 0 0 I I #
coedge $-1 $151 $225 $153 $244 reversed $88 $-1 #
vertex $-1 $236 $332 #
straight-curve $-1 0 -27.90171569114348 11.232043549778655 1 0 0 I I #
edge $-1 $156 -11.232043549778655 $233 11.232043549778655 $153 $333 forward 7 unknown #
edge $-1 $157 -11.232043549778655 $232 11.232043549778655 $154 $334 forward 7 unknown #
point $-1 58.243964964751122 -27.90171569114348 11.232043549778655 #
point $-1 58.243964964751122 27.90171569114348 11.232043549778655 #
face $-1 $-1 $174 $22 $-1 $335 reversed single #
loop $-1 $-1 $170 $159 #
plane-surface $-1 0 -27.90171569114348 0 0 1 0 0 0 1 forward_v I I I I #
coedge $-1 $336 $337 $167 $261 forward $160 $-1 #
coedge $-1 $262 $162 $164 $257 reversed $96 $-1 #
edge $-1 $259 -4.3036019497706723 $175 -1.3036019497706723 $173 $338 forward 7 unknown #
coedge $-1 $164 $163 $339 $340 reversed $61 $-1 #
coedge $-1 $266 $265 $163 $256 forward $249 $-1 #
edge $-1 $341 -58.243964964751122 $258 58.243964964751122 $255 $342 forward 7 unknown #
edge $-1 $343 -58.243964964751122 $259 58.243964964751122 $252 $344 forward 7 unknown #
vertex $-1 $256 $345 #
vertex $-1 $166 $346 #
straight-curve $-1 58.243964964751122 -11.912224973418152 -7.1072038995413447 0 1 0 I I #
edge $-1 $267 -15.989490717725328 $263 -7.8349592291109751 $251 $347 forward 7 unknown #
coedge $-1 $168 $252 $336 $348 reversed $96 $-1 #
vertex $-1 $261 $349 #
straight-curve $-1 0 -19.747184202529127 -4.1072038995413447 -1 0 0 I I #
coedge $-1 $255 $170 $337 $350 forward $249 $-1 #
coedge $-1 $170 $255 $172 $269 reversed $249 $-1 #
vertex $-1 $350 $351 #
straight-curve $-1 0 -27.90171569114348 -4.1072038995413447 -1 0 0 I I #
edge $-1 $176 4.1072038995413447 $258 7.1072038995413447 $172 $352 forward 7 unknown #
point $-1 58.243964964751122 -19.747184202529127 -4.1072038995413447 #
point $-1 58.243964964751122 -27.90171569114348 -4.1072038995413447 #
loop $-1 $-1 $277 $178 #
plane-surface $-1 0 27.90171569114348 0 0 -1 0 0 0 -1 forward_v I I I I #
coedge $-1 $181 $282 $353 $354 forward $104 $-1 #
coedge $-1 $183 $182 $181 $276 reversed $65 $-1 #
edge $-1 $355 -16.176739559904203 $283 -7.2732127025743445 $181 $356 forward 7 unknown #
coedge $-1 $353 $357 $183 $278 forward $272 $-1 #
edge $-1 $280 -73.529349087071665 $355 -65.244140601277721 $277 $358 forward 7 unknown #
coedge $-1 $189 $184 $357 $359 reversed $179 $-1 #
vertex $-1 $278 $360 #
straight-curve $-1 58.243964964751129 11.724976131239274 4.5291690150275699 0 1 0 I I #
coedge $-1 $274 $186 $189 $286 forward $104 $-1 #
vertex $-1 $187 $361 #
straight-curve $-1 42.00739745003294 18.998188833813618 11.232043549778652 1 0 0 I I #
straight-curve $-1 -10.225921005769976 18.998188833813618 98.769884920863433 -0.5877852410284794 0 0.80901700255871778 I I #
edge $-1 $190 18.998188833813618 $362 27.90171569114348 $189 $363 forward 7 unknown #
point $-1 58.243964964751122 18.998188833813618 11.232043549778655 #
point $-1 58.243964964751115 18.998188833813618 4.5291690150275912 #
edge $-1 $364 1 $364 0 $193 $-1 forward 7 unknown #
vertex $-1 $194 $365 #
ellipse-curve $-1 53.114609078837148 21.54205365019358 5.9230143280528091 0.80901700255871778 0 0.5877852410284794 0.5877852410284794 0 -0.80901700255871778 1 I I #
point $-1 56.396788572382803 21.54205365019358 7.0715892798444111 #
edge $-1 $366 1 $366 0 $197 $-1 forward 7 unknown #
vertex $-1 $198 $367 #
ellipse-curve $-1 53.114609078837148 25.357850874763521 5.9230143280528091 0.80901700255871778 0 0.5877852410284794 0.5877852410284794 0 -0.80901700255871778 1 I I #
point $-1 56.396788572382803 25.357850874763521 7.0715892798444111 #
plane-surface $-1 0 0 11.232043549778655 0 0 1 1 0 0 forward_v I I I I #
coedge $-1 $308 $307 $300 $368 forward $202 $-1 #
coedge $-1 $300 $204 $206 $304 reversed $126 $-1 #
coedge $-1 $204 $299 $298 $368 reversed $126 $-1 #
coedge $-1 $212 $207 $204 $302 forward $213 $-1 #
edge $-1 $305 -20.379509830390717 $369 -15.495483706735278 $301 $370 forward 7 unknown #
coedge $-1 $206 $205 $308 $371 reversed $79 $-1 #
edge $-1 $372 1.1371122099518014e-014 $305 7.5981959283163283 $299 $373 forward 7 unknown #
vertex $-1 $208 $374 #
straight-curve $-1 -53.359938841095676 9.2291410831345218 11.232043549778655 0 1 0 I I #
coedge $-1 $298 $209 $212 $312 reversed $202 $-1 #
coedge $-1 $209 $298 $303 $371 forward $202 $-1 #
vertex $-1 $210 $375 #
straight-curve $-1 -58.243964964751122 12.228456606315106 40.144242302262434 0 0 1 I I #
straight-curve $-1 -58.243964964751129 12.228456606315106 5.4114877181991687 -0.64278759981090561 0 -0.7660444514056185 I I #
edge $-1 $369 -24.688107726222981 $214 -12.228456606315106 $307 $376 forward 7 unknown #
point $-1 -58.243964964751122 12.228456606315106 11.232043549778655 #
point $-1 -53.359938841095683 12.228456606315106 11.232043549778655 #
edge $-1 $377 1 $377 0 $217 $-1 forward 7 unknown #
vertex $-1 $218 $378 #
ellipse-curve $-1 -53.420006501271949 18.458282166269044 6.323076178306855 -0.7660444514056185 0 0.64278759981090561 0.96418139971635841 0 1.1490666771084277 1 I I #
point $-1 -54.837770503207039 18.458282166269044 9.4708323110973396 #
plane-surface $-1 58.243964964751122 0 0 -1 0 0 0 0 1 forward_v I I I I #
coedge $-1 $226 $224 $228 $324 reversed $141 $-1 #
edge $-1 $239 -11.232043549778655 $326 11.232043549778655 $238 $379 forward 7 unknown #
vertex $-1 $324 $380 #
straight-curve $-1 -58.243964964751122 -27.90171569114348 0 0 0 -1 I I #
edge $-1 $322 -27.90171569114348 $326 27.90171569114348 $320 $381 forward 7 unknown #
straight-curve $-1 0 -27.90171569114348 -11.232043549778655 -1 0 0 I I #
vertex $-1 $231 $382 #
straight-curve $-1 0 27.90171569114348 -11.232043549778655 1 0 0 I I #
point $-1 58.243964964751122 27.90171569114348 -11.232043549778655 #
point $-1 58.243964964751122 -27.90171569114348 -11.232043549778655 #
straight-curve $-1 -58.243964964751122 0 11.232043549778655 0 -1 0 I I #
point $-1 -58.243964964751122 27.90171569114348 11.232043549778655 #
point $-1 -58.243964964751122 -27.90171569114348 11.232043549778655 #
straight-curve $-1 58.243964964751122 -27.90171569114348 0 0 0 -1 I I #
straight-curve $-1 58.243964964751122 27.90171569114348 0 0 0 -1 I I #
plane-surface $-1 58.243964964751122 0 0 -1 0 0 0 0 1 forward_v I I I I #
coedge $-1 $339 $251 $262 $348 forward $160 $-1 #
coedge $-1 $251 $339 $265 $350 reversed $160 $-1 #
straight-curve $-1 58.243964964751122 -19.747184202529127 -2.8036019497706723 0 0 1 I I #
coedge $-1 $337 $336 $254 $340 forward $160 $-1 #
edge $-1 $343 7.8349592291109751 $341 15.989490717725328 $339 $383 forward 7 unknown #
vertex $-1 $256 $384 #
straight-curve $-1 0 -27.90171569114348 -7.1072038995413447 1 0 0 I I #
vertex $-1 $340 $385 #
straight-curve $-1 0 -19.747184202529127 -7.1072038995413447 1 0 0 I I #
point $-1 58.243964964751122 -27.90171569114348 -7.1072038995413447 #
point $-1 58.243964964751122 -19.747184202529127 -7.1072038995413447 #
straight-curve $-1 -58.243964964751122 -11.912224973418152 -4.1072038995413447 0 1 0 I I #
edge $-1 $263 1.3036019497706723 $343 4.3036019497706723 $336 $386 forward 7 unknown #
point $-1 -58.243964964751122 -19.747184202529127 -4.1072038995413447 #
edge $-1 $267 4.1072038995413447 $341 7.1072038995413447 $337 $387 forward 7 unknown #
point $-1 -58.243964964751122 -27.90171569114348 -4.1072038995413447 #
straight-curve $-1 58.243964964751122 -27.90171569114348 0 0 0 -1 I I #
coedge $-1 $357 $277 $274 $354 reversed $272 $-1 #
edge $-1 $362 -58.243964964751122 $355 -53.374041697957523 $353 $388 forward 7 unknown #
vertex $-1 $278 $389 #
straight-curve $-1 53.374041697957516 11.724976131239274 11.232043549778659 0 -1 0 I I #
coedge $-1 $277 $353 $279 $359 forward $272 $-1 #
straight-curve $-1 15.024498788939493 27.90171569114348 64.015662613543896 -0.5877852410284794 0 0.80901700255871778 I I #
edge $-1 $362 -11.232043549778655 $280 -4.5291690150275912 $279 $390 forward 7 unknown #
point $-1 58.243964964751115 27.901715691143476 4.5291690150275912 #
point $-1 53.374041697957523 18.998188833813618 11.232043549778652 #
vertex $-1 $286 $391 #
straight-curve $-1 58.243964964751122 0 11.232043549778655 0 1 0 I I #
vertex $-1 $289 $392 #
point $-1 53.702394319865626 21.54205365019358 5.1139973254940916 #
vertex $-1 $293 $393 #
point $-1 53.702394319865626 25.357850874763521 5.1139973254940916 #
edge $-1 $369 28.912198752483778 $372 34.732754584063258 $298 $394 forward 7 unknown #
vertex $-1 $312 $395 #
straight-curve $-1 -73.7394486714864 24.688107726222981 11.232043549778652 -1 0 0 I I #
edge $-1 $372 -15.458966643088459 $309 -2.9993155231805844 $308 $396 forward 7 unknown #
vertex $-1 $371 $397 #
straight-curve $-1 -58.243964964751129 24.688107726222981 5.4114877181991687 0.64278759981090561 0 0.7660444514056185 I I #
point $-1 -53.359938841095683 24.688107726222981 11.232043549778655 #
point $-1 -58.243964964751122 12.228456606315106 5.4114877181991776 #
straight-curve $-1 -58.243964964751122 0 11.232043549778655 0 -1 0 I I #
vertex $-1 $315 $398 #
point $-1 -52.455825101555597 18.458282166269044 7.4721428554152833 #
straight-curve $-1 -58.243964964751122 27.90171569114348 0 0 0 -1 I I #
point $-1 -58.243964964751122 -27.90171569114348 -11.232043549778655 #
straight-curve $-1 -58.243964964751122 0 -11.232043549778655 0 1 0 I I #
point $-1 -58.243964964751122 27.90171569114348 -11.232043549778655 #
straight-curve $-1 -58.243964964751122 -11.912224973418152 -7.1072038995413447 0 -1 0 I I #
point $-1 -58.243964964751122 -27.90171569114348 -7.1072038995413447 #
point $-1 -58.243964964751122 -19.747184202529127 -7.1072038995413447 #
straight-curve $-1 -58.243964964751122 -19.747184202529127 -2.8036019497706723 0 0 -1 I I #
straight-curve $-1 -58.243964964751122 -27.90171569114348 0 0 0 -1 I I #
straight-curve $-1 0 27.90171569114348 11.232043549778655 -1 0 0 I I #
point $-1 53.374041697957523 27.901715691143476 11.232043549778652 #
straight-curve $-1 58.243964964751122 27.90171569114348 0 0 0 -1 I I #
point $-1 58.243964964751122 27.90171569114348 11.232043549778655 #
point $-1 52.30559207627843 21.54205365019358 5.33522908702433 #
point $-1 52.30559207627843 25.357850874763521 5.33522908702433 #
straight-curve $-1 -58.243964964751122 24.688107726222981 40.144242302262434 0 0 -1 I I #
point $-1 -58.243964964751122 24.688107726222981 11.232043549778655 #
straight-curve $-1 -58.243964964751122 9.2291410831345218 5.4114877181991838 0 -1 0 I I #
point $-1 -58.243964964751122 24.688107726222981 5.4114877181991776 #
point $-1 -52.270939824163527 18.458282166269044 5.3588947785904972 #
End-of-ACIS-data 