500 0 7 0           
7 Unknown 11 ACIS 5.0 NT 24 Fri Mar 26 20:28:51 1999 
-1 9.9999999999999995e-007 1e-010 
body $-1 $7 $-1 $8 #
body $-1 $9 $-1 $10 #
body $-1 $11 $-1 $12 #
body $-1 $13 $-1 $14 #
body $-1 $15 $-1 $16 #
body $-1 $17 $-1 $18 #
body $-1 $19 $-1 $20 #
lump $-1 $-1 $21 $0 #
transform $-1 1 0 0 0 1 0 0 0 1 44.074831385235143 19.807780983789613 6.3893045169885649 1 rotate no_reflect no_shear #
lump $-1 $-1 $22 $1 #
transform $-1 1 0 0 0 1 0 0 0 1 44.074831385235143 19.807780983789613 6.3893045169885649 1 rotate no_reflect no_shear #
lump $-1 $-1 $23 $2 #
transform $-1 1 0 0 0 1 0 0 0 1 44.074831385235143 19.807780983789613 6.3893045169885649 1 rotate no_reflect no_shear #
lump $-1 $-1 $24 $3 #
transform $-1 1 0 0 0 1 0 0 0 1 44.074831385235143 19.807780983789613 6.3893045169885649 1 rotate no_reflect no_shear #
lump $-1 $-1 $25 $4 #
transform $-1 1 0 0 0 1 0 0 0 1 44.074831385235143 19.807780983789613 6.3893045169885649 1 rotate no_reflect no_shear #
lump $-1 $-1 $26 $5 #
transform $-1 1 0 0 0 1 0 0 0 1 44.074831385235143 19.807780983789613 6.3893045169885649 1 rotate no_reflect no_shear #
lump $-1 $-1 $27 $6 #
transform $-1 1 0 0 0 1 0 0 0 1 44.074831385235143 19.807780983789613 6.3893045169885649 1 rotate no_reflect no_shear #
shell $-1 $-1 $-1 $28 $-1 $7 #
shell $-1 $-1 $-1 $29 $-1 $9 #
shell $-1 $-1 $-1 $30 $-1 $11 #
shell $-1 $-1 $-1 $31 $-1 $13 #
shell $-1 $-1 $-1 $32 $-1 $15 #
shell $-1 $-1 $-1 $33 $-1 $17 #
shell $-1 $-1 $-1 $34 $-1 $19 #
face $-1 $35 $36 $21 $-1 $37 forward single #
face $-1 $38 $39 $22 $-1 $40 reversed single #
face $-1 $41 $42 $23 $-1 $43 forward single #
face $-1 $44 $45 $24 $-1 $46 forward single #
face $-1 $47 $48 $25 $-1 $49 reversed single #
face $-1 $50 $51 $26 $-1 $52 forward single #
face $-1 $53 $54 $27 $-1 $55 forward single #
face $-1 $56 $57 $21 $-1 $58 reversed single #
loop $-1 $-1 $59 $28 #
plane-surface $-1 0 0 6.3893045169885649 0 0 1 1 0 0 forward_v I I I I #
face $-1 $60 $61 $22 $-1 $62 reversed single #
loop $-1 $-1 $63 $29 #
plane-surface $-1 24.011495703191258 -67.81752888102227 77.304281664019257 -1 0 0 0 -0.54463904215088732 0.83867056331134215 forward_v I I I I #
face $-1 $64 $65 $23 $-1 $66 forward single #
loop $-1 $67 $68 $30 #
cone-surface $-1 8.9043139625209804 -16.516950792322447 3.3879364234839642 0 0.54463904215088732 -0.83867056331134215 1 0 0 1 I I 0 1 1 forward I I I I #
face $-1 $69 $70 $24 $-1 $71 forward single #
loop $-1 $72 $73 $31 #
cone-surface $-1 17.968623006923153 -16.516950792322447 3.3879364234839642 0 0.54463904215088732 -0.83867056331134215 1 0 0 1 I I 0 1 1 forward I I I I #
face $-1 $74 $75 $25 $-1 $76 reversed single #
loop $-1 $-1 $77 $32 #
plane-surface $-1 -22.682121240362051 64.880888993080518 85.520422171475943 -1 0 0 0 0.78801076186113728 0.61566146476048833 forward_v I I I I #
face $-1 $78 $79 $26 $-1 $80 forward single #
loop $-1 $81 $82 $33 #
cone-surface $-1 -37.96262848669997 16.108672219880539 2.2609775135944679 0 -0.78801076186113728 -0.61566146476048833 1 0 0 1 I I 0 1 1 forward I I I I #
face $-1 $83 $84 $27 $-1 $85 forward single #
loop $-1 $86 $87 $34 #
cone-surface $-1 -28.794324138897217 16.108672219880539 2.2609775135944679 0 -0.78801076186113728 -0.61566146476048833 1 0 0 1 I I 0 1 1 forward I I I I #
face $-1 $88 $89 $21 $-1 $90 reversed single #
loop $-1 $-1 $91 $35 #
plane-surface $-1 0 0 -6.3893045169885649 0 0 1 1 0 0 forward_v I I I I #
coedge $-1 $92 $93 $94 $95 forward $36 $-1 #
face $-1 $96 $97 $22 $-1 $98 reversed single #
loop $-1 $-1 $99 $38 #
plane-surface $-1 13.436468484722063 -19.807780983789598 3.3757543326041031 0 -0.54463904215088732 0.83867056331134215 1 0 0 forward_v I I I I #
coedge $-1 $100 $101 $102 $103 reversed $39 $-1 #
face $-1 $-1 $104 $23 $-1 $105 forward single #
loop $-1 $106 $107 $41 #
cone-surface $-1 8.9043139625209804 -15.27403120937503 1.4740081405159202 0 0.54463904215088732 -0.83867056331134215 0.5 0 0 1 I I -0.70710678118654746 0.70710678118654746 0.5 forward I I I I #
loop $-1 $-1 $108 $30 #
coedge $-1 $68 $68 $109 $110 reversed $42 $-1 #
face $-1 $-1 $111 $24 $-1 $112 forward single #
loop $-1 $113 $114 $44 #
cone-surface $-1 17.968623006923153 -15.27403120937503 1.4740081405159202 0 0.54463904215088732 -0.83867056331134215 0.5 0 0 1 I I -0.70710678118654746 0.70710678118654746 0.5 forward I I I I #
loop $-1 $-1 $115 $31 #
coedge $-1 $73 $73 $116 $117 reversed $45 $-1 #
face $-1 $118 $119 $25 $-1 $120 reversed single #
loop $-1 $-1 $121 $47 #
plane-surface $-1 -33.378476312798597 -4.581993924480102 31.250071672065118 0 0.78801076186113728 0.61566146476048833 1 0 0 forward_v I I I I #
coedge $-1 $122 $123 $124 $125 reversed $48 $-1 #
face $-1 $-1 $126 $26 $-1 $127 forward single #
loop $-1 $128 $129 $50 #
cone-surface $-1 -37.96262848669997 14.498765776468872 1.0031807840964557 0 -0.78801076186113728 -0.61566146476048833 0.5 0 0 1 I I -0.70710678118654746 0.70710678118654746 0.5 forward I I I I #
loop $-1 $-1 $130 $33 #
coedge $-1 $82 $82 $131 $132 reversed $51 $-1 #
face $-1 $-1 $133 $27 $-1 $134 forward single #
loop $-1 $135 $136 $53 #
cone-surface $-1 -28.794324138897217 14.498765776468872 1.0031807840964557 0 -0.78801076186113728 -0.61566146476048833 0.5 0 0 1 I I -0.70710678118654746 0.70710678118654746 0.5 forward I I I I #
loop $-1 $-1 $137 $34 #
coedge $-1 $87 $87 $138 $139 reversed $54 $-1 #
face $-1 $140 $141 $21 $-1 $142 reversed single #
loop $-1 $-1 $143 $56 #
plane-surface $-1 0 -19.807780983789613 0 0 1 0 0 0 1 forward_v I I I I #
coedge $-1 $144 $145 $146 $147 forward $57 $-1 #
coedge $-1 $148 $59 $149 $150 forward $36 $-1 #
coedge $-1 $59 $148 $151 $152 forward $36 $-1 #
coedge $-1 $153 $154 $59 $95 reversed $155 $-1 #
edge $-1 $156 -19.807780983789613 $157 19.807780983789613 $94 $158 forward 7 unknown #
face $-1 $159 $160 $22 $-1 $161 reversed single #
loop $-1 $-1 $162 $60 #
plane-surface $-1 2.8614412662528679 -67.81752888102227 77.304281664019257 1 0 0 0 0.54463904215088732 -0.83867056331134215 forward_v I I I I #
coedge $-1 $163 $164 $165 $166 reversed $61 $-1 #
coedge $-1 $101 $63 $167 $168 reversed $39 $-1 #
coedge $-1 $63 $100 $163 $169 reversed $39 $-1 #
coedge $-1 $165 $170 $63 $103 forward $171 $-1 #
edge $-1 $172 14.100983456721522 $173 18.741443715911934 $102 $174 forward 7 unknown #
loop $-1 $-1 $109 $64 #
plane-surface $-1 13.436468484722063 -19.807780983789598 3.3757543326041031 0 -0.54463904215088732 0.83867056331134215 1 0 0 forward_v I I I I #
loop $-1 $-1 $175 $41 #
coedge $-1 $107 $107 $108 $176 reversed $65 $-1 #
coedge $-1 $108 $108 $107 $176 forward $67 $-1 #
coedge $-1 $109 $109 $68 $110 forward $104 $-1 #
edge $-1 $177 2.8252833428912531e-015 $177 6.2831853071796031 $109 $178 forward 7 unknown #
loop $-1 $-1 $116 $69 #
plane-surface $-1 13.436468484722063 -19.807780983789598 3.3757543326041031 0 -0.54463904215088732 0.83867056331134215 1 0 0 forward_v I I I I #
loop $-1 $-1 $179 $44 #
coedge $-1 $114 $114 $115 $180 reversed $70 $-1 #
coedge $-1 $115 $115 $114 $180 forward $72 $-1 #
coedge $-1 $116 $116 $73 $117 forward $111 $-1 #
edge $-1 $181 2.8252833428912531e-015 $181 6.2831853071796031 $116 $182 forward 7 unknown #
face $-1 $183 $184 $25 $-1 $185 forward single #
loop $-1 $-1 $124 $74 #
plane-surface $-1 0 19.807780983789613 0 0 -1 0 0 0 -1 forward_v I I I I #
coedge $-1 $186 $187 $188 $189 reversed $75 $-1 #
coedge $-1 $123 $77 $190 $191 reversed $48 $-1 #
coedge $-1 $77 $122 $186 $192 reversed $48 $-1 #
coedge $-1 $188 $193 $77 $125 forward $119 $-1 #
edge $-1 $194 36.370906568749405 $195 42.727628581302042 $124 $196 forward 7 unknown #
loop $-1 $-1 $131 $78 #
plane-surface $-1 -33.378476312798597 -4.581993924480102 31.250071672065118 0 0.78801076186113728 0.61566146476048833 1 0 0 forward_v I I I I #
loop $-1 $-1 $197 $50 #
coedge $-1 $129 $129 $130 $198 reversed $79 $-1 #
coedge $-1 $130 $130 $129 $198 forward $81 $-1 #
coedge $-1 $131 $131 $82 $132 forward $126 $-1 #
edge $-1 $199 6.1230770534112703e-016 $199 6.2831853071796013 $131 $200 forward 7 unknown #
loop $-1 $-1 $138 $83 #
plane-surface $-1 -33.378476312798597 -4.581993924480102 31.250071672065118 0 0.78801076186113728 0.61566146476048833 1 0 0 forward_v I I I I #
loop $-1 $-1 $201 $53 #
coedge $-1 $136 $136 $137 $202 reversed $84 $-1 #
coedge $-1 $137 $137 $136 $202 forward $86 $-1 #
coedge $-1 $138 $138 $87 $139 forward $133 $-1 #
edge $-1 $203 6.1230770534112703e-016 $203 6.2831853071796013 $138 $204 forward 7 unknown #
face $-1 $205 $206 $21 $-1 $207 reversed single #
loop $-1 $-1 $208 $88 #
plane-surface $-1 -44.074831385235143 0 0 1 0 0 0 0 -1 forward_v I I I I #
coedge $-1 $209 $151 $210 $211 forward $89 $-1 #
coedge $-1 $212 $91 $209 $213 forward $57 $-1 #
coedge $-1 $91 $212 $214 $215 forward $57 $-1 #
coedge $-1 $154 $153 $91 $147 reversed $155 $-1 #
edge $-1 $216 -19.807780983789613 $217 19.807780983789613 $146 $218 forward 7 unknown #
coedge $-1 $93 $92 $219 $220 forward $36 $-1 #
coedge $-1 $221 $222 $92 $150 reversed $206 $-1 #
edge $-1 $157 -44.074831385235143 $223 44.074831385235143 $149 $224 forward 7 unknown #
coedge $-1 $143 $225 $93 $152 reversed $89 $-1 #
edge $-1 $226 -44.074831385235143 $156 44.074831385235143 $151 $227 forward 7 unknown #
coedge $-1 $146 $94 $225 $228 forward $155 $-1 #
coedge $-1 $94 $146 $221 $229 reversed $155 $-1 #
loop $-1 $-1 $153 $205 #
vertex $-1 $95 $230 #
vertex $-1 $95 $231 #
straight-curve $-1 44.074831385235143 0 6.3893045169885649 0 1 0 I I #
face $-1 $-1 $171 $22 $-1 $232 forward single #
loop $-1 $-1 $233 $96 #
plane-surface $-1 0 -19.807780983789613 0 0 1 0 0 0 1 forward_v I I I I #
coedge $-1 $234 $235 $236 $237 reversed $97 $-1 #
coedge $-1 $238 $99 $101 $169 forward $61 $-1 #
coedge $-1 $99 $238 $234 $239 forward $61 $-1 #
coedge $-1 $236 $102 $99 $166 forward $171 $-1 #
edge $-1 $173 -17.293261460830227 $240 3.8567929761081636 $165 $241 forward 7 unknown #
coedge $-1 $242 $243 $100 $168 forward $160 $-1 #
edge $-1 $244 -35.276386499405533 $172 -32.262836315021062 $167 $245 forward 7 unknown #
edge $-1 $173 -5.5331145054958899 $244 1.699746028866204e-014 $101 $246 forward 7 unknown #
coedge $-1 $102 $236 $242 $247 forward $171 $-1 #
loop $-1 $-1 $236 $159 #
vertex $-1 $168 $248 #
vertex $-1 $103 $249 #
straight-curve $-1 24.011495703191258 -33.908764440511135 6.3893045169885667 0 1 0 I I #
coedge $-1 $175 $175 $-1 $250 reversed $106 $-1 #
edge $-1 $251 0 $251 6.2831853071796004 $107 $252 forward 7 unknown #
vertex $-1 $110 $253 #
ellipse-curve $-1 8.9043139625209804 -17.487550854194414 4.882529424796326 0 -0.54463904215088732 0.83867056331134215 1 0 0 1 I I #
coedge $-1 $179 $179 $-1 $254 reversed $113 $-1 #
edge $-1 $255 0 $255 6.2831853071796004 $114 $256 forward 7 unknown #
vertex $-1 $117 $257 #
ellipse-curve $-1 17.968623006923153 -17.487550854194414 4.882529424796326 0 -0.54463904215088732 0.83867056331134215 1 0 0 1 I I #
face $-1 $-1 $258 $25 $-1 $259 reversed single #
loop $-1 $-1 $190 $118 #
plane-surface $-1 0 0 6.3893045169885649 0 0 1 1 0 0 forward_v I I I I #
coedge $-1 $260 $121 $123 $192 forward $75 $-1 #
coedge $-1 $121 $260 $261 $262 reversed $75 $-1 #
coedge $-1 $263 $124 $121 $189 forward $119 $-1 #
edge $-1 $195 5.9928830839627523 $264 27.385593228835845 $188 $265 forward 7 unknown #
coedge $-1 $266 $267 $122 $191 forward $184 $-1 #
edge $-1 $268 -17.59907891560659 $194 -12.632663512750646 $190 $269 forward 7 unknown #
edge $-1 $195 -39.615561967579218 $268 -31.548766029996806 $123 $270 forward 7 unknown #
coedge $-1 $124 $263 $266 $271 reversed $119 $-1 #
vertex $-1 $271 $272 #
vertex $-1 $125 $273 #
straight-curve $-1 -22.682121240362051 19.807780983789613 42.760211085737971 0 0 -1 I I #
coedge $-1 $197 $197 $-1 $274 reversed $128 $-1 #
edge $-1 $275 0 $275 6.2831853071796004 $129 $276 forward 7 unknown #
vertex $-1 $132 $277 #
ellipse-curve $-1 -37.96262848669997 17.324573282361641 3.2109435107122395 0 0.78801076186113728 0.61566146476048833 1 0 0 1 I I #
coedge $-1 $201 $201 $-1 $278 reversed $135 $-1 #
edge $-1 $279 0 $279 6.2831853071796004 $136 $280 forward 7 unknown #
vertex $-1 $139 $281 #
ellipse-curve $-1 -28.794324138897217 17.324573282361641 3.2109435107122395 0 0.78801076186113728 0.61566146476048833 1 0 0 1 I I #
face $-1 $-1 $155 $21 $-1 $282 reversed single #
loop $-1 $-1 $221 $140 #
plane-surface $-1 0 19.807780983789613 0 0 -1 0 0 0 -1 forward_v I I I I #
coedge $-1 $283 $219 $222 $284 forward $141 $-1 #
coedge $-1 $225 $143 $144 $213 reversed $89 $-1 #
coedge $-1 $219 $283 $143 $211 reversed $141 $-1 #
edge $-1 $226 -6.3893045169885649 $285 6.3893045169885649 $210 $286 forward 7 unknown #
coedge $-1 $145 $144 $283 $287 forward $57 $-1 #
edge $-1 $217 -44.074831385235143 $285 44.074831385235143 $209 $288 forward 7 unknown #
coedge $-1 $222 $221 $145 $215 reversed $206 $-1 #
edge $-1 $289 -44.074831385235143 $216 44.074831385235143 $214 $290 forward 7 unknown #
vertex $-1 $147 $291 #
vertex $-1 $228 $292 #
straight-curve $-1 44.074831385235143 0 -6.3893045169885649 0 -1 0 I I #
coedge $-1 $208 $210 $148 $220 reversed $141 $-1 #
edge $-1 $223 -19.807780983789613 $226 19.807780983789613 $219 $293 forward 7 unknown #
coedge $-1 $214 $149 $154 $229 forward $206 $-1 #
coedge $-1 $149 $214 $208 $284 reversed $206 $-1 #
vertex $-1 $150 $294 #
straight-curve $-1 0 19.807780983789613 6.3893045169885649 -1 0 0 I I #
coedge $-1 $151 $209 $153 $228 reversed $89 $-1 #
vertex $-1 $220 $295 #
straight-curve $-1 0 -19.807780983789613 6.3893045169885649 1 0 0 I I #
edge $-1 $156 -6.3893045169885649 $217 6.3893045169885649 $153 $296 forward 7 unknown #
edge $-1 $157 -6.3893045169885649 $216 6.3893045169885649 $154 $297 forward 7 unknown #
point $-1 44.074831385235143 -19.807780983789613 6.3893045169885649 #
point $-1 44.074831385235143 19.807780983789613 6.3893045169885649 #
plane-surface $-1 0 0 6.3893045169885649 0 0 1 1 0 0 forward_v I I I I #
coedge $-1 $243 $242 $235 $298 forward $160 $-1 #
coedge $-1 $235 $162 $164 $239 reversed $97 $-1 #
coedge $-1 $162 $234 $233 $298 reversed $97 $-1 #
coedge $-1 $170 $165 $162 $237 forward $171 $-1 #
edge $-1 $240 -18.741443715911934 $299 -14.100983456721522 $236 $300 forward 7 unknown #
coedge $-1 $164 $163 $243 $301 reversed $61 $-1 #
edge $-1 $302 -1.699746028866204e-014 $240 5.5331145054958899 $234 $303 forward 7 unknown #
vertex $-1 $166 $304 #
straight-curve $-1 6.7182342423610315 -15.167320724599206 6.3893045169885649 -1 0 0 I I #
coedge $-1 $233 $167 $170 $247 reversed $160 $-1 #
coedge $-1 $167 $233 $238 $301 forward $160 $-1 #
vertex $-1 $168 $305 #
straight-curve $-1 24.011495703191258 -19.807780983789613 38.652140832009628 0 0 1 I I #
straight-curve $-1 24.011495703191258 -19.807780983789598 3.3757543326041031 0 -0.83867056331134215 -0.54463904215088732 I I #
edge $-1 $299 2.8614412662528679 $172 24.011495703191258 $242 $306 forward 7 unknown #
point $-1 24.011495703191258 -19.807780983789613 6.3893045169885649 #
point $-1 24.011495703191258 -15.167320724599202 6.3893045169885649 #
edge $-1 $307 1 $307 0 $175 $-1 forward 7 unknown #
vertex $-1 $176 $308 #
ellipse-curve $-1 8.9043139625209804 -15.546350730450474 1.8933434221715912 0 -0.54463904215088732 0.83867056331134215 1 0 0 1 I I #
point $-1 9.9043139625209804 -17.487550854194417 4.8825294247963367 #
edge $-1 $309 1 $309 0 $179 $-1 forward 7 unknown #
vertex $-1 $180 $310 #
ellipse-curve $-1 17.968623006923153 -15.546350730450474 1.8933434221715912 0 -0.54463904215088732 0.83867056331134215 1 0 0 1 I I #
point $-1 18.968623006923153 -17.487550854194417 4.8825294247963367 #
loop $-1 $-1 $261 $183 #
plane-surface $-1 -44.074831385235143 0 0 1 0 0 0 0 -1 forward_v I I I I #
coedge $-1 $187 $186 $267 $311 reversed $75 $-1 #
coedge $-1 $312 $313 $187 $262 forward $258 $-1 #
edge $-1 $264 -25.892387028785091 $314 -17.825591091202678 $261 $315 forward 7 unknown #
coedge $-1 $193 $188 $313 $316 reversed $119 $-1 #
vertex $-1 $189 $317 #
straight-curve $-1 -16.689238156399298 19.807780983789616 0.032582504435920256 -1 0 0 I I #
coedge $-1 $318 $190 $193 $271 forward $184 $-1 #
coedge $-1 $190 $318 $260 $311 forward $184 $-1 #
vertex $-1 $191 $319 #
straight-curve $-1 -22.682121240362051 32.440444496540259 6.3893045169885667 0 1 0 I I #
straight-curve $-1 -22.682121240362051 -4.581993924480102 31.250071672065118 0 -0.61566146476048833 0.78801076186113728 I I #
edge $-1 $194 22.682121240362051 $320 44.074831385235143 $193 $321 forward 7 unknown #
point $-1 -22.682121240362051 19.807780983789613 6.3893045169885649 #
point $-1 -22.682121240362051 19.807780983789613 0.032582504435925586 #
edge $-1 $322 1 $322 0 $197 $-1 forward 7 unknown #
vertex $-1 $198 $323 #
ellipse-curve $-1 -37.96262848669997 14.892771157399441 1.3110115164766998 0 0.78801076186113728 0.61566146476048833 1 0 0 1 I I #
point $-1 -36.96262848669997 17.324573282361637 3.2109435107122359 #
edge $-1 $324 1 $324 0 $201 $-1 forward 7 unknown #
vertex $-1 $202 $325 #
ellipse-curve $-1 -28.794324138897217 14.892771157399441 1.3110115164766998 0 0.78801076186113728 0.61566146476048833 1 0 0 1 I I #
point $-1 -27.794324138897217 17.324573282361637 3.2109435107122359 #
plane-surface $-1 44.074831385235143 0 0 -1 0 0 0 0 1 forward_v I I I I #
coedge $-1 $210 $208 $212 $287 reversed $141 $-1 #
edge $-1 $223 -6.3893045169885649 $289 6.3893045169885649 $222 $326 forward 7 unknown #
vertex $-1 $287 $327 #
straight-curve $-1 -44.074831385235143 -19.807780983789613 0 0 0 -1 I I #
edge $-1 $285 -19.807780983789613 $289 19.807780983789613 $283 $328 forward 7 unknown #
straight-curve $-1 0 -19.807780983789613 -6.3893045169885649 -1 0 0 I I #
vertex $-1 $215 $329 #
straight-curve $-1 0 19.807780983789613 -6.3893045169885649 1 0 0 I I #
point $-1 44.074831385235143 19.807780983789613 -6.3893045169885649 #
point $-1 44.074831385235143 -19.807780983789613 -6.3893045169885649 #
straight-curve $-1 -44.074831385235143 0 6.3893045169885649 0 -1 0 I I #
point $-1 -44.074831385235143 19.807780983789613 6.3893045169885649 #
point $-1 -44.074831385235143 -19.807780983789613 6.3893045169885649 #
straight-curve $-1 44.074831385235143 -19.807780983789613 0 0 0 -1 I I #
straight-curve $-1 44.074831385235143 19.807780983789613 0 0 0 -1 I I #
edge $-1 $299 32.262836315021062 $302 35.276386499405533 $233 $330 forward 7 unknown #
vertex $-1 $247 $331 #
straight-curve $-1 2.8614412662528679 -33.908764440511135 6.3893045169885667 0 -1 0 I I #
edge $-1 $302 -3.8567929761081636 $244 17.293261460830227 $243 $332 forward 7 unknown #
vertex $-1 $301 $333 #
straight-curve $-1 2.8614412662528679 -19.807780983789598 3.3757543326041031 0 0.83867056331134215 0.54463904215088732 I I #
point $-1 2.8614412662528679 -15.167320724599202 6.3893045169885649 #
point $-1 24.011495703191258 -19.807780983789613 3.3757543326040937 #
straight-curve $-1 0 -19.807780983789613 6.3893045169885649 1 0 0 I I #
vertex $-1 $250 $334 #
point $-1 9.9043139625209804 -15.546350730450474 1.8933434221715912 #
vertex $-1 $254 $335 #
point $-1 18.968623006923153 -15.546350730450474 1.8933434221715912 #
edge $-1 $314 -27.385593228835845 $268 -5.9928830839627523 $267 $336 forward 7 unknown #
coedge $-1 $313 $261 $318 $337 reversed $258 $-1 #
coedge $-1 $261 $312 $263 $316 forward $258 $-1 #
vertex $-1 $262 $338 #
straight-curve $-1 -44.074831385235143 3.8668360595023161 20.436062133392291 0 -0.61566146476048833 0.78801076186113728 I I #
edge $-1 $320 -6.3893045169885649 $264 -0.03258250443592163 $263 $339 forward 7 unknown #
point $-1 -44.074831385235143 19.807780983789613 0.03258250443592163 #
coedge $-1 $267 $266 $312 $337 forward $184 $-1 #
point $-1 -22.682121240362051 14.841365580933669 6.3893045169885667 #
vertex $-1 $271 $340 #
straight-curve $-1 0 19.807780983789613 6.3893045169885649 -1 0 0 I I #
vertex $-1 $274 $341 #
point $-1 -36.96262848669997 14.892771157399441 1.3110115164766998 #
vertex $-1 $278 $342 #
point $-1 -27.794324138897217 14.892771157399441 1.3110115164766998 #
straight-curve $-1 -44.074831385235143 19.807780983789613 0 0 0 -1 I I #
point $-1 -44.074831385235143 -19.807780983789613 -6.3893045169885649 #
straight-curve $-1 -44.074831385235143 0 -6.3893045169885649 0 1 0 I I #
point $-1 -44.074831385235143 19.807780983789613 -6.3893045169885649 #
straight-curve $-1 2.8614412662528679 -19.807780983789613 38.652140832009628 0 0 -1 I I #
point $-1 2.8614412662528679 -19.807780983789613 6.3893045169885649 #
straight-curve $-1 6.7182342423610315 -19.807780983789613 3.3757543326040937 1 0 0 I I #
point $-1 2.8614412662528679 -19.807780983789613 3.3757543326040937 #
point $-1 8.9043139625209804 -15.001711688299586 1.0546728588602492 #
point $-1 17.968623006923153 -15.001711688299586 1.0546728588602492 #
straight-curve $-1 -16.689238156399298 14.841365580933669 6.3893045169885667 1 0 0 I I #
edge $-1 $320 -19.807780983789613 $314 -14.841365580933669 $312 $343 forward 7 unknown #
point $-1 -44.074831385235143 14.841365580933669 6.3893045169885667 #
straight-curve $-1 -44.074831385235143 19.807780983789613 0 0 0 -1 I I #
point $-1 -44.074831385235143 19.807780983789613 6.3893045169885649 #
point $-1 -37.96262848669997 14.104760395538303 0.69535005171621156 #
point $-1 -28.794324138897217 14.104760395538303 0.69535005171621156 #
straight-curve $-1 -44.074831385235143 0 6.3893045169885649 0 -1 0 I I #
End-of-ACIS-data 