500 0 11 0           
7 Unknown 11 ACIS 5.0 NT 24 Fri Mar 26 00:31:37 1999 
-1 9.9999999999999995e-007 1e-010 
body $-1 $11 $-1 $12 #
body $-1 $13 $-1 $14 #
body $-1 $15 $-1 $16 #
body $-1 $17 $-1 $18 #
body $-1 $19 $-1 $20 #
body $-1 $21 $-1 $22 #
body $-1 $23 $-1 $24 #
body $-1 $25 $-1 $26 #
body $-1 $27 $-1 $28 #
body $-1 $29 $-1 $30 #
body $-1 $31 $-1 $32 #
lump $-1 $-1 $33 $0 #
transform $-1 1 0 0 0 1 0 0 0 1 43.468123416852322 26.413713558314409 11.612699244658392 1 rotate no_reflect no_shear #
lump $-1 $-1 $34 $1 #
transform $-1 1 0 0 0 1 0 0 0 1 43.468123416852322 26.413713558314409 11.612699244658392 1 rotate no_reflect no_shear #
lump $-1 $-1 $35 $2 #
transform $-1 1 0 0 0 1 0 0 0 1 43.468123416852322 26.413713558314409 11.612699244658392 1 rotate no_reflect no_shear #
lump $-1 $-1 $36 $3 #
transform $-1 1 0 0 0 1 0 0 0 1 43.468123416852322 26.413713558314409 11.612699244658392 1 rotate no_reflect no_shear #
lump $-1 $-1 $37 $4 #
transform $-1 1 0 0 0 1 0 0 0 1 43.468123416852322 26.413713558314409 11.612699244658392 1 rotate no_reflect no_shear #
lump $-1 $-1 $38 $5 #
transform $-1 1 0 0 0 1 0 0 0 1 43.468123416852322 26.413713558314409 11.612699244658392 1 rotate no_reflect no_shear #
lump $-1 $-1 $39 $6 #
transform $-1 1 0 0 0 1 0 0 0 1 43.468123416852322 26.413713558314409 11.612699244658392 1 rotate no_reflect no_shear #
lump $-1 $-1 $40 $7 #
transform $-1 1 0 0 0 1 0 0 0 1 43.468123416852322 26.413713558314409 11.612699244658392 1 rotate no_reflect no_shear #
lump $-1 $-1 $41 $8 #
transform $-1 1 0 0 0 1 0 0 0 1 43.468123416852322 26.413713558314409 11.612699244658392 1 rotate no_reflect no_shear #
lump $-1 $-1 $42 $9 #
transform $-1 1 0 0 0 1 0 0 0 1 43.468123416852322 26.413713558314409 11.612699244658392 1 rotate no_reflect no_shear #
lump $-1 $-1 $43 $10 #
transform $-1 1 0 0 0 1 0 0 0 1 43.468123416852322 26.413713558314409 11.612699244658392 1 rotate no_reflect no_shear #
shell $-1 $-1 $-1 $44 $-1 $11 #
shell $-1 $-1 $-1 $45 $-1 $13 #
shell $-1 $-1 $-1 $46 $-1 $15 #
shell $-1 $-1 $-1 $47 $-1 $17 #
shell $-1 $-1 $-1 $48 $-1 $19 #
shell $-1 $-1 $-1 $49 $-1 $21 #
shell $-1 $-1 $-1 $50 $-1 $23 #
shell $-1 $-1 $-1 $51 $-1 $25 #
shell $-1 $-1 $-1 $52 $-1 $27 #
shell $-1 $-1 $-1 $53 $-1 $29 #
shell $-1 $-1 $-1 $54 $-1 $31 #
face $-1 $55 $56 $33 $-1 $57 forward single #
face $-1 $58 $59 $34 $-1 $60 forward single #
face $-1 $61 $62 $35 $-1 $63 forward single #
face $-1 $64 $65 $36 $-1 $66 reversed single #
face $-1 $67 $68 $37 $-1 $69 forward single #
face $-1 $70 $71 $38 $-1 $72 forward single #
face $-1 $73 $74 $39 $-1 $75 forward single #
face $-1 $76 $77 $40 $-1 $78 reversed single #
face $-1 $79 $80 $41 $-1 $81 forward single #
face $-1 $82 $83 $42 $-1 $84 forward single #
face $-1 $85 $86 $43 $-1 $87 forward single #
face $-1 $88 $89 $33 $-1 $90 reversed single #
loop $-1 $-1 $91 $44 #
plane-surface $-1 0 0 11.612699244658392 0 0 1 1 0 0 forward_v I I I I #
face $-1 $92 $93 $34 $-1 $94 forward single #
loop $-1 $-1 $95 $45 #
plane-surface $-1 -43.468123416852322 0 0 1 0 0 0 0 -1 forward_v I I I I #
face $-1 $96 $97 $35 $-1 $98 reversed single #
loop $-1 $-1 $99 $46 #
plane-surface $-1 43.468123416852322 0 0 -1 0 0 0 0 1 forward_v I I I I #
face $-1 $100 $101 $36 $-1 $102 reversed single #
loop $-1 $-1 $103 $47 #
plane-surface $-1 -12.481952727029421 -99.324585761246865 51.779154373692812 -1 0 0 0 -0.83867057594974714 0.54463902268945019 forward_v I I I I #
face $-1 $104 $105 $37 $-1 $106 forward single #
loop $-1 $107 $108 $48 #
cone-surface $-1 -22.816816357203454 -23.517019854045554 7.6548768686565607 0 0.83867057594974714 -0.54463902268945019 1 0 0 1 I I 0 1 1 forward I I I I #
face $-1 $109 $110 $38 $-1 $111 forward single #
loop $-1 $112 $113 $49 #
cone-surface $-1 -18.941242495888194 -23.517019854045554 7.6548768686565607 0 0.83867057594974714 -0.54463902268945019 1 0 0 1 I I 0 1 1 forward I I I I #
face $-1 $114 $115 $39 $-1 $116 forward single #
loop $-1 $117 $118 $50 #
cone-surface $-1 -15.065668634572933 -23.517019854045554 7.6548768686565607 0 0.83867057594974714 -0.54463902268945019 1 0 0 1 I I 0 1 1 forward I I I I #
face $-1 $119 $120 $40 $-1 $121 reversed single #
loop $-1 $-1 $122 $51 #
plane-surface $-1 25.400532264746957 -99.324585761246865 51.779154373692812 -1 0 0 0 -0.83867057594974714 0.54463902268945019 forward_v I I I I #
face $-1 $123 $124 $41 $-1 $125 forward single #
loop $-1 $126 $127 $52 #
cone-surface $-1 15.06566863457293 -23.517019854045554 7.6548768686565607 0 0.83867057594974714 -0.54463902268945019 1 0 0 1 I I 0 1 1 forward I I I I #
face $-1 $128 $129 $42 $-1 $130 forward single #
loop $-1 $131 $132 $53 #
cone-surface $-1 18.94124249588819 -23.517019854045554 7.6548768686565607 0 0.83867057594974714 -0.54463902268945019 1 0 0 1 I I 0 1 1 forward I I I I #
face $-1 $133 $134 $43 $-1 $135 forward single #
loop $-1 $136 $137 $54 #
cone-surface $-1 22.81681635720345 -23.517019854045554 7.6548768686565607 0 0.83867057594974714 -0.54463902268945019 1 0 0 1 I I 0 1 1 forward I I I I #
face $-1 $138 $139 $33 $-1 $140 reversed single #
loop $-1 $-1 $141 $55 #
plane-surface $-1 0 0 -11.612699244658392 0 0 1 1 0 0 forward_v I I I I #
coedge $-1 $142 $143 $144 $145 forward $56 $-1 #
face $-1 $146 $147 $34 $-1 $148 reversed single #
loop $-1 $-1 $149 $58 #
plane-surface $-1 0 0 11.612699244658392 0 0 1 1 0 0 forward_v I I I I #
coedge $-1 $150 $151 $152 $153 forward $59 $-1 #
face $-1 $154 $155 $35 $-1 $156 reversed single #
loop $-1 $-1 $157 $61 #
plane-surface $-1 0 -26.413713558314409 0 0 1 0 0 0 1 forward_v I I I I #
coedge $-1 $158 $159 $160 $161 forward $62 $-1 #
face $-1 $162 $163 $36 $-1 $164 reversed single #
loop $-1 $-1 $165 $64 #
plane-surface $-1 -18.94124249588819 -26.413713558314413 4.4302818618951036 0 -0.83867057594974714 0.54463902268945019 1 0 0 forward_v I I I I #
coedge $-1 $166 $167 $168 $169 reversed $65 $-1 #
face $-1 $-1 $170 $37 $-1 $171 forward single #
loop $-1 $172 $173 $67 #
cone-surface $-1 -22.816816357203454 -22.533148979705263 7.0159436726916429 0 0.83867057594974714 -0.54463902268945019 0.5 0 0 1 I I -0.70710678118654746 0.70710678118654746 0.5 forward I I I I #
loop $-1 $-1 $174 $48 #
coedge $-1 $108 $108 $175 $176 reversed $68 $-1 #
face $-1 $-1 $177 $38 $-1 $178 forward single #
loop $-1 $179 $180 $70 #
cone-surface $-1 -18.941242495888194 -22.533148979705263 7.0159436726916429 0 0.83867057594974714 -0.54463902268945019 0.5 0 0 1 I I -0.70710678118654746 0.70710678118654746 0.5 forward I I I I #
loop $-1 $-1 $181 $49 #
coedge $-1 $113 $113 $182 $183 reversed $71 $-1 #
face $-1 $-1 $184 $39 $-1 $185 forward single #
loop $-1 $186 $187 $73 #
cone-surface $-1 -15.065668634572933 -22.533148979705263 7.0159436726916429 0 0.83867057594974714 -0.54463902268945019 0.5 0 0 1 I I -0.70710678118654746 0.70710678118654746 0.5 forward I I I I #
loop $-1 $-1 $188 $50 #
coedge $-1 $118 $118 $189 $190 reversed $74 $-1 #
face $-1 $191 $192 $40 $-1 $193 reversed single #
loop $-1 $-1 $194 $76 #
plane-surface $-1 18.94124249588819 -26.413713558314413 4.4302818618951036 0 -0.83867057594974714 0.54463902268945019 1 0 0 forward_v I I I I #
coedge $-1 $195 $196 $197 $198 reversed $77 $-1 #
face $-1 $-1 $199 $41 $-1 $200 forward single #
loop $-1 $201 $202 $79 #
cone-surface $-1 15.06566863457293 -22.533148979705263 7.0159436726916429 0 0.83867057594974714 -0.54463902268945019 0.5 0 0 1 I I -0.70710678118654746 0.70710678118654746 0.5 forward I I I I #
loop $-1 $-1 $203 $52 #
coedge $-1 $127 $127 $204 $205 reversed $80 $-1 #
face $-1 $-1 $206 $42 $-1 $207 forward single #
loop $-1 $208 $209 $82 #
cone-surface $-1 18.94124249588819 -22.533148979705263 7.0159436726916429 0 0.83867057594974714 -0.54463902268945019 0.5 0 0 1 I I -0.70710678118654746 0.70710678118654746 0.5 forward I I I I #
loop $-1 $-1 $210 $53 #
coedge $-1 $132 $132 $211 $212 reversed $83 $-1 #
face $-1 $-1 $213 $43 $-1 $214 forward single #
loop $-1 $215 $216 $85 #
cone-surface $-1 22.81681635720345 -22.533148979705263 7.0159436726916429 0 0.83867057594974714 -0.54463902268945019 0.5 0 0 1 I I -0.70710678118654746 0.70710678118654746 0.5 forward I I I I #
loop $-1 $-1 $217 $54 #
coedge $-1 $137 $137 $218 $219 reversed $86 $-1 #
face $-1 $220 $221 $33 $-1 $222 reversed single #
loop $-1 $-1 $223 $88 #
plane-surface $-1 0 -26.413713558314409 0 0 1 0 0 0 1 forward_v I I I I #
coedge $-1 $224 $225 $226 $227 forward $89 $-1 #
coedge $-1 $228 $91 $229 $230 forward $56 $-1 #
coedge $-1 $91 $228 $231 $232 forward $56 $-1 #
coedge $-1 $233 $234 $91 $145 reversed $235 $-1 #
edge $-1 $236 -26.413713558314409 $237 26.413713558314409 $144 $238 forward 7 unknown #
face $-1 $239 $240 $34 $-1 $241 reversed single #
loop $-1 $-1 $242 $92 #
plane-surface $-1 -56.783661785773532 -24.913713558314409 0 1 0 0 0 0 -1 forward_v I I I I #
coedge $-1 $243 $244 $150 $245 forward $93 $-1 #
coedge $-1 $246 $95 $149 $245 reversed $59 $-1 #
coedge $-1 $95 $246 $247 $248 reversed $59 $-1 #
coedge $-1 $249 $250 $95 $153 reversed $240 $-1 #
edge $-1 $251 -11.612699244658392 $252 11.612699244658392 $152 $253 forward 7 unknown #
face $-1 $254 $255 $35 $-1 $256 reversed single #
loop $-1 $-1 $257 $96 #
plane-surface $-1 0 0 -11.612699244658392 0 0 1 1 0 0 forward_v I I I I #
coedge $-1 $258 $259 $260 $261 forward $97 $-1 #
coedge $-1 $260 $99 $257 $262 reversed $62 $-1 #
coedge $-1 $99 $260 $263 $264 reversed $62 $-1 #
coedge $-1 $265 $266 $99 $161 reversed $255 $-1 #
edge $-1 $267 -11.612699244658392 $268 11.612699244658392 $160 $269 forward 7 unknown #
face $-1 $270 $271 $36 $-1 $272 forward single #
loop $-1 $-1 $273 $100 #
plane-surface $-1 -25.400532264746957 -99.324585761246865 51.779154373692812 1 0 0 0 0.83867057594974714 -0.54463902268945019 forward_v I I I I #
coedge $-1 $274 $275 $276 $277 reversed $101 $-1 #
coedge $-1 $167 $103 $278 $279 reversed $65 $-1 #
coedge $-1 $103 $166 $274 $280 reversed $65 $-1 #
coedge $-1 $276 $281 $103 $169 forward $271 $-1 #
edge $-1 $282 23.248579322309023 $283 27.912895558115906 $168 $284 forward 7 unknown #
loop $-1 $-1 $175 $104 #
plane-surface $-1 -18.94124249588819 -26.413713558314413 4.4302818618951036 0 -0.83867057594974714 0.54463902268945019 1 0 0 forward_v I I I I #
loop $-1 $-1 $285 $67 #
coedge $-1 $173 $173 $174 $286 reversed $105 $-1 #
coedge $-1 $174 $174 $173 $286 forward $107 $-1 #
coedge $-1 $175 $175 $108 $176 forward $170 $-1 #
edge $-1 $287 -4.4516829232526574e-016 $287 6.2831853071795996 $175 $288 forward 7 unknown #
loop $-1 $-1 $182 $109 #
plane-surface $-1 -18.94124249588819 -26.413713558314413 4.4302818618951036 0 -0.83867057594974714 0.54463902268945019 1 0 0 forward_v I I I I #
loop $-1 $-1 $289 $70 #
coedge $-1 $180 $180 $181 $290 reversed $110 $-1 #
coedge $-1 $181 $181 $180 $290 forward $112 $-1 #
coedge $-1 $182 $182 $113 $183 forward $177 $-1 #
edge $-1 $291 -4.4516829232526574e-016 $291 6.2831853071795996 $182 $292 forward 7 unknown #
loop $-1 $-1 $189 $114 #
plane-surface $-1 -18.94124249588819 -26.413713558314413 4.4302818618951036 0 -0.83867057594974714 0.54463902268945019 1 0 0 forward_v I I I I #
loop $-1 $-1 $293 $73 #
coedge $-1 $187 $187 $188 $294 reversed $115 $-1 #
coedge $-1 $188 $188 $187 $294 forward $117 $-1 #
coedge $-1 $189 $189 $118 $190 forward $184 $-1 #
edge $-1 $295 -4.4516829232526574e-016 $295 6.2831853071795996 $189 $296 forward 7 unknown #
face $-1 $297 $298 $40 $-1 $299 reversed single #
loop $-1 $-1 $300 $119 #
plane-surface $-1 12.481952727029421 -99.324585761246865 51.779154373692812 1 0 0 0 0.83867057594974714 -0.54463902268945019 forward_v I I I I #
coedge $-1 $301 $302 $303 $304 reversed $120 $-1 #
coedge $-1 $196 $122 $305 $306 reversed $77 $-1 #
coedge $-1 $122 $195 $301 $307 reversed $77 $-1 #
coedge $-1 $303 $308 $122 $198 forward $309 $-1 #
edge $-1 $310 23.248579322309023 $311 27.912895558115906 $197 $312 forward 7 unknown #
loop $-1 $-1 $204 $123 #
plane-surface $-1 18.94124249588819 -26.413713558314413 4.4302818618951036 0 -0.83867057594974714 0.54463902268945019 1 0 0 forward_v I I I I #
loop $-1 $-1 $313 $79 #
coedge $-1 $202 $202 $203 $314 reversed $124 $-1 #
coedge $-1 $203 $203 $202 $314 forward $126 $-1 #
coedge $-1 $204 $204 $127 $205 forward $199 $-1 #
edge $-1 $315 -4.4516829232526574e-016 $315 6.2831853071795996 $204 $316 forward 7 unknown #
loop $-1 $-1 $211 $128 #
plane-surface $-1 18.94124249588819 -26.413713558314413 4.4302818618951036 0 -0.83867057594974714 0.54463902268945019 1 0 0 forward_v I I I I #
loop $-1 $-1 $317 $82 #
coedge $-1 $209 $209 $210 $318 reversed $129 $-1 #
coedge $-1 $210 $210 $209 $318 forward $131 $-1 #
coedge $-1 $211 $211 $132 $212 forward $206 $-1 #
edge $-1 $319 -4.4516829232526574e-016 $319 6.2831853071795996 $211 $320 forward 7 unknown #
loop $-1 $-1 $218 $133 #
plane-surface $-1 18.94124249588819 -26.413713558314413 4.4302818618951036 0 -0.83867057594974714 0.54463902268945019 1 0 0 forward_v I I I I #
loop $-1 $-1 $321 $85 #
coedge $-1 $216 $216 $217 $322 reversed $134 $-1 #
coedge $-1 $217 $217 $216 $322 forward $136 $-1 #
coedge $-1 $218 $218 $137 $219 forward $213 $-1 #
edge $-1 $323 -4.4516829232526574e-016 $323 6.2831853071795996 $218 $324 forward 7 unknown #
face $-1 $325 $326 $33 $-1 $327 reversed single #
loop $-1 $-1 $328 $138 #
plane-surface $-1 -43.468123416852322 0 0 1 0 0 0 0 -1 forward_v I I I I #
coedge $-1 $329 $231 $330 $331 forward $139 $-1 #
coedge $-1 $332 $141 $329 $333 forward $89 $-1 #
coedge $-1 $141 $332 $334 $335 forward $89 $-1 #
coedge $-1 $234 $233 $141 $227 reversed $235 $-1 #
edge $-1 $336 -26.413713558314409 $337 26.413713558314409 $226 $338 forward 7 unknown #
coedge $-1 $143 $142 $339 $340 forward $56 $-1 #
coedge $-1 $341 $342 $142 $230 reversed $326 $-1 #
edge $-1 $237 -43.468123416852322 $343 43.468123416852322 $229 $344 forward 7 unknown #
coedge $-1 $223 $345 $143 $232 reversed $139 $-1 #
edge $-1 $346 -43.468123416852322 $236 43.468123416852322 $231 $347 forward 7 unknown #
coedge $-1 $226 $144 $345 $348 forward $235 $-1 #
coedge $-1 $144 $226 $341 $349 reversed $235 $-1 #
loop $-1 $-1 $233 $325 #
vertex $-1 $145 $350 #
vertex $-1 $145 $351 #
straight-curve $-1 43.468123416852322 0 11.612699244658392 0 1 0 I I #
face $-1 $352 $353 $34 $-1 $354 reversed single #
loop $-1 $-1 $152 $146 #
plane-surface $-1 -50.125892601312927 -23.413713558314409 0 0 -1 0 0 0 -1 forward_v I I I I #
coedge $-1 $355 $356 $357 $358 forward $147 $-1 #
coedge $-1 $359 $149 $250 $360 forward $93 $-1 #
coedge $-1 $149 $359 $361 $362 forward $93 $-1 #
edge $-1 $363 -26.413713558314409 $252 -23.413713558314409 $149 $364 forward 7 unknown #
coedge $-1 $151 $150 $365 $366 reversed $59 $-1 #
coedge $-1 $367 $368 $151 $248 forward $353 $-1 #
edge $-1 $251 23.413713558314409 $369 26.413713558314409 $247 $370 forward 7 unknown #
coedge $-1 $357 $152 $368 $371 reversed $240 $-1 #
coedge $-1 $152 $357 $243 $360 reversed $240 $-1 #
vertex $-1 $248 $372 #
vertex $-1 $360 $373 #
straight-curve $-1 -43.468123416852322 -23.413713558314409 0 0 0 1 I I #
face $-1 $374 $375 $35 $-1 $376 reversed single #
loop $-1 $-1 $377 $154 #
plane-surface $-1 50.125892601312927 -23.413713558314409 0 0 -1 0 0 0 -1 forward_v I I I I #
coedge $-1 $378 $379 $158 $262 forward $155 $-1 #
coedge $-1 $380 $157 $379 $381 reversed $97 $-1 #
coedge $-1 $157 $380 $382 $383 reversed $97 $-1 #
coedge $-1 $159 $158 $157 $261 reversed $62 $-1 #
edge $-1 $384 -11.612699244658392 $385 11.612699244658392 $157 $386 forward 7 unknown #
edge $-1 $385 -26.413713558314409 $268 -23.413713558314409 $257 $387 forward 7 unknown #
coedge $-1 $382 $388 $159 $264 forward $389 $-1 #
edge $-1 $267 23.413713558314409 $384 26.413713558314409 $263 $390 forward 7 unknown #
coedge $-1 $377 $160 $388 $391 reversed $255 $-1 #
coedge $-1 $160 $377 $378 $392 reversed $255 $-1 #
vertex $-1 $264 $393 #
vertex $-1 $392 $394 #
straight-curve $-1 43.468123416852322 -23.413713558314409 0 0 0 -1 I I #
face $-1 $-1 $395 $36 $-1 $396 reversed single #
loop $-1 $-1 $168 $162 #
plane-surface $-1 0 0 11.612699244658392 0 0 1 1 0 0 forward_v I I I I #
coedge $-1 $397 $398 $399 $400 reversed $163 $-1 #
coedge $-1 $401 $165 $167 $280 forward $101 $-1 #
coedge $-1 $165 $401 $397 $402 forward $101 $-1 #
coedge $-1 $399 $168 $165 $277 forward $271 $-1 #
edge $-1 $283 3.0113314790853263 $403 15.929911016802862 $276 $404 forward 7 unknown #
coedge $-1 $405 $406 $166 $279 forward $395 $-1 #
edge $-1 $407 -21.459295324951299 $282 -14.276877942188014 $278 $408 forward 7 unknown #
edge $-1 $283 -8.5640507592979596 $407 -6.4042811466935879e-015 $167 $409 forward 7 unknown #
coedge $-1 $168 $399 $405 $410 forward $271 $-1 #
vertex $-1 $169 $411 #
vertex $-1 $169 $412 #
straight-curve $-1 -12.481952727029421 -49.662292880623433 11.612699244658394 0 1 0 I I #
coedge $-1 $285 $285 $-1 $413 reversed $172 $-1 #
edge $-1 $414 0 $414 6.2831853071796004 $173 $415 forward 7 unknown #
vertex $-1 $176 $416 #
ellipse-curve $-1 -22.816816357203454 -24.081555440410966 8.0214905532767524 0 -0.83867057594974714 0.54463902268945019 1 0 0 1 I I #
coedge $-1 $289 $289 $-1 $417 reversed $179 $-1 #
edge $-1 $418 0 $418 6.2831853071796004 $180 $419 forward 7 unknown #
vertex $-1 $183 $420 #
ellipse-curve $-1 -18.941242495888194 -24.081555440410966 8.0214905532767524 0 -0.83867057594974714 0.54463902268945019 1 0 0 1 I I #
coedge $-1 $293 $293 $-1 $421 reversed $186 $-1 #
edge $-1 $422 0 $422 6.2831853071796004 $187 $423 forward 7 unknown #
vertex $-1 $190 $424 #
ellipse-curve $-1 -15.065668634572933 -24.081555440410966 8.0214905532767524 0 -0.83867057594974714 0.54463902268945019 1 0 0 1 I I #
face $-1 $-1 $309 $40 $-1 $425 forward single #
loop $-1 $-1 $426 $191 #
plane-surface $-1 0 -26.413713558314409 0 0 1 0 0 0 1 forward_v I I I I #
coedge $-1 $427 $428 $429 $430 reversed $192 $-1 #
coedge $-1 $431 $194 $196 $307 forward $120 $-1 #
coedge $-1 $194 $431 $427 $432 forward $120 $-1 #
coedge $-1 $429 $197 $194 $304 forward $309 $-1 #
edge $-1 $311 -15.929911016802862 $433 -3.0113314790853263 $303 $434 forward 7 unknown #
coedge $-1 $435 $436 $195 $306 forward $298 $-1 #
edge $-1 $437 -21.459295324951299 $310 -14.276877942188014 $305 $438 forward 7 unknown #
edge $-1 $311 -8.5640507592979596 $437 -6.4042811466935879e-015 $196 $439 forward 7 unknown #
coedge $-1 $197 $429 $435 $440 forward $309 $-1 #
loop $-1 $-1 $429 $297 #
vertex $-1 $306 $441 #
vertex $-1 $198 $442 #
straight-curve $-1 25.400532264746957 -49.662292880623433 11.612699244658394 0 1 0 I I #
coedge $-1 $313 $313 $-1 $443 reversed $201 $-1 #
edge $-1 $444 0 $444 6.2831853071796004 $202 $445 forward 7 unknown #
vertex $-1 $205 $446 #
ellipse-curve $-1 15.06566863457293 -24.081555440410966 8.0214905532767524 0 -0.83867057594974714 0.54463902268945019 1 0 0 1 I I #
coedge $-1 $317 $317 $-1 $447 reversed $208 $-1 #
edge $-1 $448 0 $448 6.2831853071796004 $209 $449 forward 7 unknown #
vertex $-1 $212 $450 #
ellipse-curve $-1 18.94124249588819 -24.081555440410966 8.0214905532767524 0 -0.83867057594974714 0.54463902268945019 1 0 0 1 I I #
coedge $-1 $321 $321 $-1 $451 reversed $215 $-1 #
edge $-1 $452 0 $452 6.2831853071796004 $216 $453 forward 7 unknown #
vertex $-1 $219 $454 #
ellipse-curve $-1 22.81681635720345 -24.081555440410966 8.0214905532767524 0 -0.83867057594974714 0.54463902268945019 1 0 0 1 I I #
face $-1 $-1 $235 $33 $-1 $455 reversed single #
loop $-1 $-1 $341 $220 #
plane-surface $-1 0 26.413713558314409 0 0 -1 0 0 0 -1 forward_v I I I I #
coedge $-1 $456 $339 $342 $457 forward $221 $-1 #
coedge $-1 $345 $223 $224 $333 reversed $139 $-1 #
coedge $-1 $339 $456 $223 $331 reversed $221 $-1 #
edge $-1 $346 -11.612699244658392 $458 11.612699244658392 $330 $459 forward 7 unknown #
coedge $-1 $225 $224 $456 $460 forward $89 $-1 #
edge $-1 $337 -43.468123416852322 $458 43.468123416852322 $329 $461 forward 7 unknown #
coedge $-1 $342 $341 $225 $335 reversed $326 $-1 #
edge $-1 $462 -43.468123416852322 $336 43.468123416852322 $334 $463 forward 7 unknown #
vertex $-1 $227 $464 #
vertex $-1 $348 $465 #
straight-curve $-1 43.468123416852322 0 -11.612699244658392 0 -1 0 I I #
coedge $-1 $328 $330 $228 $340 reversed $221 $-1 #
edge $-1 $343 -26.413713558314409 $346 26.413713558314409 $339 $466 forward 7 unknown #
coedge $-1 $334 $229 $234 $349 forward $326 $-1 #
coedge $-1 $229 $334 $328 $457 reversed $326 $-1 #
vertex $-1 $230 $467 #
straight-curve $-1 0 26.413713558314409 11.612699244658392 -1 0 0 I I #
coedge $-1 $231 $329 $233 $348 reversed $139 $-1 #
vertex $-1 $340 $468 #
straight-curve $-1 0 -26.413713558314409 11.612699244658392 1 0 0 I I #
edge $-1 $236 -11.612699244658392 $337 11.612699244658392 $233 $469 forward 7 unknown #
edge $-1 $237 -11.612699244658392 $336 11.612699244658392 $234 $470 forward 7 unknown #
point $-1 43.468123416852322 -26.413713558314409 11.612699244658392 #
point $-1 43.468123416852322 26.413713558314409 11.612699244658392 #
face $-1 $-1 $471 $34 $-1 $472 reversed single #
loop $-1 $-1 $247 $239 #
plane-surface $-1 0 0 -11.612699244658392 0 0 1 1 0 0 forward_v I I I I #
coedge $-1 $473 $242 $474 $475 reversed $147 $-1 #
coedge $-1 $242 $473 $359 $476 reversed $147 $-1 #
coedge $-1 $250 $249 $242 $358 reversed $240 $-1 #
edge $-1 $477 -11.612699244658392 $478 11.612699244658392 $357 $479 forward 7 unknown #
coedge $-1 $244 $243 $356 $476 forward $93 $-1 #
edge $-1 $252 -6.6577691844606051 $477 6.6577691844606051 $250 $480 forward 7 unknown #
coedge $-1 $481 $365 $244 $362 reversed $471 $-1 #
edge $-1 $482 -56.783661785773532 $363 -43.468123416852322 $361 $483 forward 7 unknown #
vertex $-1 $366 $484 #
straight-curve $-1 -43.468123416852322 0 11.612699244658392 0 1 0 I I #
coedge $-1 $361 $485 $246 $366 forward $471 $-1 #
edge $-1 $369 -11.612699244658392 $363 11.612699244658392 $365 $486 forward 7 unknown #
coedge $-1 $474 $247 $485 $487 forward $353 $-1 #
coedge $-1 $247 $474 $249 $371 forward $353 $-1 #
vertex $-1 $487 $488 #
straight-curve $-1 -43.468123416852322 0 -11.612699244658392 0 -1 0 I I #
edge $-1 $478 -6.6577691844606051 $251 6.6577691844606051 $249 $489 forward 7 unknown #
point $-1 -43.468123416852322 -23.413713558314409 -11.612699244658392 #
point $-1 -43.468123416852322 -23.413713558314409 11.612699244658392 #
face $-1 $-1 $389 $35 $-1 $490 forward single #
loop $-1 $-1 $491 $254 #
plane-surface $-1 56.783661785773532 -24.913713558314409 0 -1 0 0 0 0 1 forward_v I I I I #
coedge $-1 $266 $265 $492 $493 forward $255 $-1 #
coedge $-1 $494 $257 $266 $392 forward $155 $-1 #
coedge $-1 $257 $494 $258 $381 forward $155 $-1 #
coedge $-1 $259 $258 $491 $495 reversed $97 $-1 #
edge $-1 $496 -6.6577691844606051 $385 6.6577691844606051 $258 $497 forward 7 unknown #
coedge $-1 $498 $263 $259 $383 forward $389 $-1 #
edge $-1 $384 -6.6577691844606051 $499 6.6577691844606051 $259 $500 forward 7 unknown #
vertex $-1 $383 $501 #
vertex $-1 $262 $502 #
straight-curve $-1 43.468123416852322 -26.413713558314409 0 0 0 -1 I I #
straight-curve $-1 43.468123416852322 0 -11.612699244658392 0 1 0 I I #
coedge $-1 $263 $498 $265 $391 forward $389 $-1 #
loop $-1 $-1 $263 $374 #
straight-curve $-1 43.468123416852322 0 11.612699244658392 0 -1 0 I I #
edge $-1 $503 -6.6577691844606051 $267 6.6577691844606051 $265 $504 forward 7 unknown #
edge $-1 $268 -6.6577691844606051 $505 6.6577691844606051 $266 $506 forward 7 unknown #
point $-1 43.468123416852322 -23.413713558314409 11.612699244658392 #
point $-1 43.468123416852322 -23.413713558314409 -11.612699244658392 #
loop $-1 $-1 $278 $270 #
plane-surface $-1 0 -26.413713558314409 0 0 1 0 0 0 1 forward_v I I I I #
coedge $-1 $398 $273 $275 $402 reversed $163 $-1 #
coedge $-1 $273 $397 $507 $508 reversed $163 $-1 #
coedge $-1 $281 $276 $273 $400 forward $271 $-1 #
edge $-1 $403 -27.912895558115906 $509 -23.248579322309023 $399 $510 forward 7 unknown #
coedge $-1 $275 $274 $406 $511 reversed $101 $-1 #
edge $-1 $512 6.4042811466935879e-015 $403 8.5640507592979596 $397 $513 forward 7 unknown #
vertex $-1 $277 $514 #
straight-curve $-1 -9.470621247944095 -21.74939732250753 11.612699244658392 -1 0 0 I I #
coedge $-1 $507 $278 $281 $410 reversed $395 $-1 #
coedge $-1 $278 $507 $401 $511 forward $395 $-1 #
vertex $-1 $279 $515 #
straight-curve $-1 -12.481952727029421 -26.413713558314406 25.889577186846406 0 0 1 I I #
straight-curve $-1 -12.481952727029421 -26.413713558314413 4.4302818618951036 0 -0.54463902268945019 -0.83867057594974714 I I #
edge $-1 $509 -75.526424866059884 $282 -62.60784532834235 $405 $516 forward 7 unknown #
point $-1 -12.481952727029423 -26.413713558314409 11.612699244658392 #
point $-1 -12.481952727029421 -21.749397322507527 11.612699244658392 #
edge $-1 $517 1 $517 0 $285 $-1 forward 7 unknown #
vertex $-1 $286 $518 #
ellipse-curve $-1 -22.816816357203454 -22.952484267680138 7.2882631840363681 0 -0.83867057594974714 0.54463902268945019 1 0 0 1 I I #
point $-1 -21.816816357203454 -24.08155544041097 8.0214905532767542 #
edge $-1 $519 1 $519 0 $289 $-1 forward 7 unknown #
vertex $-1 $290 $520 #
ellipse-curve $-1 -18.941242495888194 -22.952484267680138 7.2882631840363681 0 -0.83867057594974714 0.54463902268945019 1 0 0 1 I I #
point $-1 -17.941242495888194 -24.08155544041097 8.0214905532767542 #
edge $-1 $521 1 $521 0 $293 $-1 forward 7 unknown #
vertex $-1 $294 $522 #
ellipse-curve $-1 -15.065668634572933 -22.952484267680138 7.2882631840363681 0 -0.83867057594974714 0.54463902268945019 1 0 0 1 I I #
point $-1 -14.065668634572933 -24.08155544041097 8.0214905532767542 #
plane-surface $-1 0 0 11.612699244658392 0 0 1 1 0 0 forward_v I I I I #
coedge $-1 $436 $435 $428 $523 forward $298 $-1 #
coedge $-1 $428 $300 $302 $432 reversed $192 $-1 #
coedge $-1 $300 $427 $426 $523 reversed $192 $-1 #
coedge $-1 $308 $303 $300 $430 forward $309 $-1 #
edge $-1 $433 -27.912895558115906 $524 -23.248579322309023 $429 $525 forward 7 unknown #
coedge $-1 $302 $301 $436 $526 reversed $120 $-1 #
edge $-1 $527 6.4042811466935879e-015 $433 8.5640507592979596 $427 $528 forward 7 unknown #
vertex $-1 $304 $529 #
straight-curve $-1 9.470621247944095 -21.74939732250753 11.612699244658392 -1 0 0 I I #
coedge $-1 $426 $305 $308 $440 reversed $298 $-1 #
coedge $-1 $305 $426 $431 $526 forward $298 $-1 #
vertex $-1 $306 $530 #
straight-curve $-1 25.400532264746957 -26.413713558314406 25.889577186846406 0 0 1 I I #
straight-curve $-1 25.400532264746957 -26.413713558314413 4.4302818618951036 0 -0.54463902268945019 -0.83867057594974714 I I #
edge $-1 $524 -37.643939874283504 $310 -24.72536033656597 $435 $531 forward 7 unknown #
point $-1 25.400532264746957 -26.413713558314409 11.612699244658392 #
point $-1 25.400532264746957 -21.749397322507527 11.612699244658392 #
edge $-1 $532 1 $532 0 $313 $-1 forward 7 unknown #
vertex $-1 $314 $533 #
ellipse-curve $-1 15.06566863457293 -22.952484267680138 7.2882631840363681 0 -0.83867057594974714 0.54463902268945019 1 0 0 1 I I #
point $-1 16.06566863457293 -24.08155544041097 8.0214905532767542 #
edge $-1 $534 1 $534 0 $317 $-1 forward 7 unknown #
vertex $-1 $318 $535 #
ellipse-curve $-1 18.94124249588819 -22.952484267680138 7.2882631840363681 0 -0.83867057594974714 0.54463902268945019 1 0 0 1 I I #
point $-1 19.94124249588819 -24.08155544041097 8.0214905532767542 #
edge $-1 $536 1 $536 0 $321 $-1 forward 7 unknown #
vertex $-1 $322 $537 #
ellipse-curve $-1 22.81681635720345 -22.952484267680138 7.2882631840363681 0 -0.83867057594974714 0.54463902268945019 1 0 0 1 I I #
point $-1 23.81681635720345 -24.08155544041097 8.0214905532767542 #
plane-surface $-1 43.468123416852322 0 0 -1 0 0 0 0 1 forward_v I I I I #
coedge $-1 $330 $328 $332 $460 reversed $221 $-1 #
edge $-1 $343 -11.612699244658392 $462 11.612699244658392 $342 $538 forward 7 unknown #
vertex $-1 $460 $539 #
straight-curve $-1 -43.468123416852322 -26.413713558314409 0 0 0 -1 I I #
edge $-1 $458 -26.413713558314409 $462 26.413713558314409 $456 $540 forward 7 unknown #
straight-curve $-1 0 -26.413713558314409 -11.612699244658392 -1 0 0 I I #
vertex $-1 $335 $541 #
straight-curve $-1 0 26.413713558314409 -11.612699244658392 1 0 0 I I #
point $-1 43.468123416852322 26.413713558314409 -11.612699244658392 #
point $-1 43.468123416852322 -26.413713558314409 -11.612699244658392 #
straight-curve $-1 -43.468123416852322 0 11.612699244658392 0 -1 0 I I #
point $-1 -43.468123416852322 26.413713558314409 11.612699244658392 #
point $-1 -43.468123416852322 -26.413713558314409 11.612699244658392 #
straight-curve $-1 43.468123416852322 -26.413713558314409 0 0 0 -1 I I #
straight-curve $-1 43.468123416852322 26.413713558314409 0 0 0 -1 I I #
loop $-1 $-1 $365 $352 #
plane-surface $-1 0 -26.413713558314409 0 0 1 0 0 0 1 forward_v I I I I #
coedge $-1 $356 $355 $481 $542 reversed $147 $-1 #
coedge $-1 $368 $367 $355 $475 forward $353 $-1 #
edge $-1 $543 -1.5 $478 1.5 $355 $544 forward 7 unknown #
edge $-1 $477 -1.5 $482 1.5 $356 $545 forward 7 unknown #
vertex $-1 $360 $546 #
vertex $-1 $371 $547 #
straight-curve $-1 -56.783661785773532 -23.413713558314409 0 0 0 -1 I I #
straight-curve $-1 -50.125892601312927 -23.413713558314409 11.612699244658392 -1 0 0 I I #
coedge $-1 $485 $361 $473 $542 forward $471 $-1 #
vertex $-1 $476 $548 #
straight-curve $-1 0 -26.413713558314409 11.612699244658392 1 0 0 I I #
point $-1 -43.468123416852322 -26.413713558314409 11.612699244658392 #
coedge $-1 $365 $481 $367 $487 reversed $471 $-1 #
straight-curve $-1 -43.468123416852322 -26.413713558314409 0 0 0 1 I I #
edge $-1 $369 -6.6577691844606051 $543 6.6577691844606051 $485 $549 forward 7 unknown #
point $-1 -43.468123416852322 -26.413713558314409 -11.612699244658392 #
straight-curve $-1 -50.125892601312927 -23.413713558314409 -11.612699244658392 1 0 0 I I #
plane-surface $-1 0 0 11.612699244658392 0 0 1 1 0 0 forward_v I I I I #
coedge $-1 $550 $551 $380 $495 forward $375 $-1 #
coedge $-1 $551 $550 $377 $493 reversed $375 $-1 #
edge $-1 $503 -11.612699244658392 $505 11.612699244658392 $492 $552 forward 7 unknown #
coedge $-1 $379 $378 $550 $553 forward $155 $-1 #
edge $-1 $499 -11.612699244658392 $496 11.612699244658392 $491 $554 forward 7 unknown #
vertex $-1 $495 $555 #
straight-curve $-1 50.125892601312927 -26.413713558314409 -11.612699244658392 -1 0 0 I I #
coedge $-1 $388 $382 $551 $556 forward $389 $-1 #
vertex $-1 $556 $557 #
straight-curve $-1 50.125892601312927 -26.413713558314409 11.612699244658392 1 0 0 I I #
point $-1 43.468123416852322 -26.413713558314409 11.612699244658392 #
point $-1 43.468123416852322 -26.413713558314409 -11.612699244658392 #
vertex $-1 $556 $558 #
straight-curve $-1 50.125892601312927 -23.413713558314409 11.612699244658392 -1 0 0 I I #
vertex $-1 $553 $559 #
straight-curve $-1 50.125892601312927 -23.413713558314409 -11.612699244658392 1 0 0 I I #
coedge $-1 $406 $405 $398 $508 forward $395 $-1 #
edge $-1 $509 14.276877942188014 $512 21.459295324951299 $507 $560 forward 7 unknown #
vertex $-1 $410 $561 #
straight-curve $-1 -25.400532264746957 -49.662292880623433 11.612699244658394 0 -1 0 I I #
edge $-1 $512 -15.929911016802862 $407 -3.0113314790853263 $406 $562 forward 7 unknown #
vertex $-1 $511 $563 #
straight-curve $-1 -25.400532264746957 -26.413713558314413 4.4302818618951036 0 0.54463902268945019 0.83867057594974714 I I #
point $-1 -25.400532264746957 -21.749397322507527 11.612699244658392 #
point $-1 -12.481952727029421 -26.413713558314409 4.430281861895109 #
straight-curve $-1 50.125892601312927 -26.413713558314409 11.612699244658392 1 0 0 I I #
vertex $-1 $413 $564 #
point $-1 -21.816816357203454 -22.952484267680138 7.2882631840363681 #
vertex $-1 $417 $565 #
point $-1 -17.941242495888194 -22.952484267680138 7.2882631840363681 #
vertex $-1 $421 $566 #
point $-1 -14.065668634572933 -22.952484267680138 7.2882631840363681 #
edge $-1 $524 14.276877942188014 $527 21.459295324951299 $426 $567 forward 7 unknown #
vertex $-1 $440 $568 #
straight-curve $-1 12.481952727029421 -49.662292880623433 11.612699244658394 0 -1 0 I I #
edge $-1 $527 3.0113314790853263 $437 15.929911016802862 $436 $569 forward 7 unknown #
vertex $-1 $526 $570 #
straight-curve $-1 12.481952727029421 -26.413713558314413 4.4302818618951036 0 0.54463902268945019 0.83867057594974714 I I #
point $-1 12.481952727029421 -21.749397322507527 11.612699244658392 #
point $-1 25.400532264746957 -26.413713558314409 4.430281861895109 #
straight-curve $-1 50.125892601312927 -26.413713558314409 11.612699244658392 1 0 0 I I #
vertex $-1 $443 $571 #
point $-1 16.06566863457293 -22.952484267680138 7.2882631840363681 #
vertex $-1 $447 $572 #
point $-1 19.94124249588819 -22.952484267680138 7.2882631840363681 #
vertex $-1 $451 $573 #
point $-1 23.81681635720345 -22.952484267680138 7.2882631840363681 #
straight-curve $-1 -43.468123416852322 26.413713558314409 0 0 0 -1 I I #
point $-1 -43.468123416852322 -26.413713558314409 -11.612699244658392 #
straight-curve $-1 -43.468123416852322 0 -11.612699244658392 0 1 0 I I #
point $-1 -43.468123416852322 26.413713558314409 -11.612699244658392 #
edge $-1 $482 -11.612699244658392 $543 11.612699244658392 $473 $574 forward 7 unknown #
vertex $-1 $475 $575 #
straight-curve $-1 -56.783661785773532 -24.913713558314409 -11.612699244658392 0 1 0 I I #
straight-curve $-1 -56.783661785773532 -24.913713558314409 11.612699244658392 0 -1 0 I I #
point $-1 -56.783661785773532 -23.413713558314409 11.612699244658392 #
point $-1 -56.783661785773532 -23.413713558314409 -11.612699244658392 #
point $-1 -56.783661785773532 -26.413713558314409 11.612699244658392 #
straight-curve $-1 -50.125892601312927 -26.413713558314409 -11.612699244658392 -1 0 0 I I #
coedge $-1 $492 $491 $494 $553 reversed $375 $-1 #
coedge $-1 $491 $492 $498 $556 reversed $375 $-1 #
straight-curve $-1 56.783661785773532 -23.413713558314409 0 0 0 -1 I I #
edge $-1 $505 -1.5 $496 1.5 $550 $576 forward 7 unknown #
straight-curve $-1 56.783661785773532 -26.413713558314409 0 0 0 -1 I I #
point $-1 56.783661785773532 -26.413713558314409 -11.612699244658392 #
edge $-1 $499 -1.5 $503 1.5 $551 $577 forward 7 unknown #
point $-1 56.783661785773532 -26.413713558314409 11.612699244658392 #
point $-1 56.783661785773532 -23.413713558314409 11.612699244658392 #
point $-1 56.783661785773532 -23.413713558314409 -11.612699244658392 #
straight-curve $-1 -25.400532264746957 -26.413713558314406 25.889577186846406 0 0 -1 I I #
point $-1 -25.400532264746957 -26.413713558314409 11.612699244658392 #
straight-curve $-1 -9.470621247944095 -26.413713558314409 4.4302818618951116 1 0 0 I I #
point $-1 -25.400532264746957 -26.413713558314409 4.430281861895109 #
point $-1 -22.816816357203454 -22.113813691730389 6.7436241613469177 #
point $-1 -18.941242495888194 -22.113813691730389 6.7436241613469177 #
point $-1 -15.065668634572933 -22.113813691730389 6.7436241613469177 #
straight-curve $-1 12.481952727029421 -26.413713558314406 25.889577186846406 0 0 -1 I I #
point $-1 12.481952727029423 -26.413713558314409 11.612699244658392 #
straight-curve $-1 9.470621247944095 -26.413713558314409 4.4302818618951116 1 0 0 I I #
point $-1 12.481952727029421 -26.413713558314409 4.430281861895109 #
point $-1 15.06566863457293 -22.113813691730389 6.7436241613469177 #
point $-1 18.94124249588819 -22.113813691730389 6.7436241613469177 #
point $-1 22.81681635720345 -22.113813691730389 6.7436241613469177 #
straight-curve $-1 -56.783661785773532 -26.413713558314409 0 0 0 -1 I I #
point $-1 -56.783661785773532 -26.413713558314409 -11.612699244658392 #
straight-curve $-1 56.783661785773532 -24.913713558314409 -11.612699244658392 0 -1 0 I I #
straight-curve $-1 56.783661785773532 -24.913713558314409 11.612699244658392 0 1 0 I I #
End-of-ACIS-data 