500 0 10 0           
7 Unknown 11 ACIS 5.0 NT 24 Fri Mar 26 17:34:55 1999 
-1 9.9999999999999995e-007 1e-010 
body $-1 $10 $-1 $11 #
body $-1 $12 $-1 $13 #
body $-1 $14 $-1 $15 #
body $-1 $16 $-1 $17 #
body $-1 $18 $-1 $19 #
body $-1 $20 $-1 $21 #
body $-1 $22 $-1 $23 #
body $-1 $24 $-1 $25 #
body $-1 $26 $-1 $27 #
body $-1 $28 $-1 $29 #
lump $-1 $-1 $30 $0 #
transform $-1 1 0 0 0 1 0 0 0 1 59.600207525864434 35.743936220985127 9.9635117728694063 1 rotate no_reflect no_shear #
lump $-1 $-1 $31 $1 #
transform $-1 1 0 0 0 1 0 0 0 1 59.600207525864434 35.743936220985127 9.9635117728694063 1 rotate no_reflect no_shear #
lump $-1 $-1 $32 $2 #
transform $-1 1 0 0 0 1 0 0 0 1 59.600207525864434 35.743936220985127 9.9635117728694063 1 rotate no_reflect no_shear #
lump $-1 $-1 $33 $3 #
transform $-1 1 0 0 0 1 0 0 0 1 59.600207525864434 35.743936220985127 9.9635117728694063 1 rotate no_reflect no_shear #
lump $-1 $-1 $34 $4 #
transform $-1 1 0 0 0 1 0 0 0 1 59.600207525864434 35.743936220985127 9.9635117728694063 1 rotate no_reflect no_shear #
lump $-1 $-1 $35 $5 #
transform $-1 1 0 0 0 1 0 0 0 1 59.600207525864434 35.743936220985127 9.9635117728694063 1 rotate no_reflect no_shear #
lump $-1 $-1 $36 $6 #
transform $-1 1 0 0 0 1 0 0 0 1 59.600207525864434 35.743936220985127 9.9635117728694063 1 rotate no_reflect no_shear #
lump $-1 $-1 $37 $7 #
transform $-1 1 0 0 0 1 0 0 0 1 59.600207525864434 35.743936220985127 9.9635117728694063 1 rotate no_reflect no_shear #
lump $-1 $-1 $38 $8 #
transform $-1 1 0 0 0 1 0 0 0 1 59.600207525864434 35.743936220985127 9.9635117728694063 1 rotate no_reflect no_shear #
lump $-1 $-1 $39 $9 #
transform $-1 1 0 0 0 1 0 0 0 1 59.600207525864434 35.743936220985127 9.9635117728694063 1 rotate no_reflect no_shear #
shell $-1 $-1 $-1 $40 $-1 $10 #
shell $-1 $-1 $-1 $41 $-1 $12 #
shell $-1 $-1 $-1 $42 $-1 $14 #
shell $-1 $-1 $-1 $43 $-1 $16 #
shell $-1 $-1 $-1 $44 $-1 $18 #
shell $-1 $-1 $-1 $45 $-1 $20 #
shell $-1 $-1 $-1 $46 $-1 $22 #
shell $-1 $-1 $-1 $47 $-1 $24 #
shell $-1 $-1 $-1 $48 $-1 $26 #
shell $-1 $-1 $-1 $49 $-1 $28 #
face $-1 $50 $51 $30 $-1 $52 forward single #
face $-1 $53 $54 $31 $-1 $55 forward single #
face $-1 $56 $57 $32 $-1 $58 forward single #
face $-1 $59 $60 $33 $-1 $61 reversed single #
face $-1 $62 $63 $34 $-1 $64 forward single #
face $-1 $65 $66 $35 $-1 $67 forward single #
face $-1 $68 $69 $36 $-1 $70 forward single #
face $-1 $71 $72 $37 $-1 $73 reversed single #
face $-1 $74 $75 $38 $-1 $76 forward single #
face $-1 $77 $78 $39 $-1 $79 forward single #
face $-1 $80 $81 $30 $-1 $82 reversed single #
loop $-1 $-1 $83 $40 #
plane-surface $-1 0 0 9.9635117728694063 0 0 1 1 0 0 forward_v I I I I #
face $-1 $84 $85 $31 $-1 $86 forward single #
loop $-1 $-1 $87 $41 #
plane-surface $-1 0 -35.743936220985127 0 0 1 0 0 0 1 forward_v I I I I #
face $-1 $88 $89 $32 $-1 $90 forward single #
loop $-1 $-1 $91 $42 #
plane-surface $-1 0 35.743936220985127 0 0 -1 0 0 0 -1 forward_v I I I I #
face $-1 $92 $93 $33 $-1 $94 reversed single #
loop $-1 $-1 $95 $43 #
plane-surface $-1 -161.77490647224724 -7.6848982960359198 64.027311594745342 0 1 0 -0.85716730853699208 0 0.51503806187062418 forward_v I I I I #
face $-1 $96 $97 $34 $-1 $98 forward single #
loop $-1 $99 $100 $44 #
cone-surface $-1 -56.69492087725466 -5.3504964284876877 5.8763622880547333 0.85716730853699208 0 -0.51503806187062418 0.25751903093531209 0 0.42858365426849604 1 I I 0 1 0.5 forward I I I I #
face $-1 $101 $102 $35 $-1 $103 forward single #
loop $-1 $104 $105 $45 #
cone-surface $-1 -56.69492087725466 -1.8488936271653316 5.8763622880547333 0.85716730853699208 0 -0.51503806187062418 0.25751903093531209 0 0.42858365426849604 1 I I 0 1 0.5 forward I I I I #
face $-1 $106 $107 $36 $-1 $108 forward single #
loop $-1 $109 $110 $46 #
cone-surface $-1 -56.69492087725466 1.6527091741570175 5.8763622880547333 0.85716730853699208 0 -0.51503806187062418 0.25751903093531209 0 0.42858365426849604 1 I I 0 1 0.5 forward I I I I #
face $-1 $111 $112 $37 $-1 $113 reversed single #
loop $-1 $-1 $114 $47 #
plane-surface $-1 103.23059009544978 25.775802560883214 167.32890808390718 0 -1 0 -0.86602541151947299 0 -0.49999998660252726 forward_v I I I I #
face $-1 $115 $116 $38 $-1 $117 forward single #
loop $-1 $118 $119 $48 #
cone-surface $-1 57.206072984797757 20.448084304286283 6.7594581633023338 -0.86602541151947299 0 -0.49999998660252726 0.24999999330126363 0 -0.43301270575973649 1 I I 0 1 0.5 forward I I I I #
face $-1 $120 $121 $39 $-1 $122 forward single #
loop $-1 $123 $124 $49 #
cone-surface $-1 57.206072984797757 23.644715258244439 6.7594581633023338 -0.86602541151947299 0 -0.49999998660252726 0.24999999330126363 0 -0.43301270575973649 1 I I 0 1 0.5 forward I I I I #
face $-1 $125 $126 $30 $-1 $127 reversed single #
loop $-1 $-1 $128 $50 #
plane-surface $-1 0 0 -9.9635117728694063 0 0 1 1 0 0 forward_v I I I I #
coedge $-1 $129 $130 $131 $132 forward $51 $-1 #
face $-1 $133 $134 $31 $-1 $135 reversed single #
loop $-1 $-1 $136 $53 #
plane-surface $-1 0 0 9.9635117728694063 0 0 1 1 0 0 forward_v I I I I #
coedge $-1 $137 $138 $139 $140 forward $54 $-1 #
face $-1 $141 $142 $32 $-1 $143 reversed single #
loop $-1 $-1 $144 $56 #
plane-surface $-1 0 0 9.9635117728694063 0 0 1 1 0 0 forward_v I I I I #
coedge $-1 $145 $146 $147 $148 forward $57 $-1 #
face $-1 $149 $150 $33 $-1 $151 reversed single #
loop $-1 $-1 $152 $59 #
plane-surface $-1 -59.600207525864448 -1.8488936271653316 2.6345608523289314 -0.85716730853699208 0 0.51503806187062418 0.51503806187062418 0 0.85716730853699208 forward_v I I I I #
coedge $-1 $153 $154 $155 $156 reversed $60 $-1 #
face $-1 $-1 $157 $34 $-1 $158 forward single #
loop $-1 $159 $160 $62 #
cone-surface $-1 -55.777181319109303 -5.3504964284876877 5.3249287480426428 0.85716730853699208 0 -0.51503806187062418 0.12875951546765604 0 0.21429182713424802 1 I I -0.70710678118654746 0.70710678118654746 0.25 forward I I I I #
loop $-1 $-1 $161 $44 #
coedge $-1 $100 $100 $162 $163 reversed $63 $-1 #
face $-1 $-1 $164 $35 $-1 $165 forward single #
loop $-1 $166 $167 $65 #
cone-surface $-1 -55.777181319109303 -1.8488936271653316 5.3249287480426428 0.85716730853699208 0 -0.51503806187062418 0.12875951546765604 0 0.21429182713424802 1 I I -0.70710678118654746 0.70710678118654746 0.25 forward I I I I #
loop $-1 $-1 $168 $45 #
coedge $-1 $105 $105 $169 $170 reversed $66 $-1 #
face $-1 $-1 $171 $36 $-1 $172 forward single #
loop $-1 $173 $174 $68 #
cone-surface $-1 -55.777181319109303 1.6527091741570175 5.3249287480426428 0.85716730853699208 0 -0.51503806187062418 0.12875951546765604 0 0.21429182713424802 1 I I -0.70710678118654746 0.70710678118654746 0.25 forward I I I I #
loop $-1 $-1 $175 $46 #
coedge $-1 $110 $110 $176 $177 reversed $69 $-1 #
face $-1 $178 $179 $37 $-1 $180 reversed single #
loop $-1 $-1 $181 $71 #
plane-surface $-1 1.5969843047969334e-006 22.046399781265364 107.72870215502707 0.86602541151947299 0 0.49999998660252726 0.49999998660252726 0 -0.86602541151947299 forward_v I I I I #
coedge $-1 $182 $183 $184 $185 reversed $72 $-1 #
face $-1 $-1 $186 $38 $-1 $187 forward single #
loop $-1 $188 $189 $74 #
cone-surface $-1 56.173156571323887 20.448084304286283 6.1631036152385299 -0.86602541151947299 0 -0.49999998660252726 0.12499999665063181 0 -0.21650635287986825 1 I I -0.70710678118654746 0.70710678118654746 0.25 forward I I I I #
loop $-1 $-1 $190 $48 #
coedge $-1 $119 $119 $191 $192 reversed $75 $-1 #
face $-1 $-1 $193 $39 $-1 $194 forward single #
loop $-1 $195 $196 $77 #
cone-surface $-1 56.173156571323887 23.644715258244439 6.1631036152385299 -0.86602541151947299 0 -0.49999998660252726 0.12499999665063181 0 -0.21650635287986825 1 I I -0.70710678118654746 0.70710678118654746 0.25 forward I I I I #
loop $-1 $-1 $197 $49 #
coedge $-1 $124 $124 $198 $199 reversed $78 $-1 #
face $-1 $200 $201 $30 $-1 $202 reversed single #
loop $-1 $-1 $203 $80 #
plane-surface $-1 0 -35.743936220985127 0 0 1 0 0 0 1 forward_v I I I I #
coedge $-1 $204 $205 $206 $207 forward $81 $-1 #
coedge $-1 $208 $83 $209 $210 forward $51 $-1 #
coedge $-1 $83 $208 $211 $212 forward $51 $-1 #
coedge $-1 $213 $214 $83 $132 reversed $215 $-1 #
edge $-1 $216 -35.743936220985127 $217 35.743936220985127 $131 $218 forward 7 unknown #
face $-1 $219 $220 $31 $-1 $221 reversed single #
loop $-1 $-1 $222 $84 #
plane-surface $-1 -59.600207525864434 0 0 1 0 0 0 0 -1 forward_v I I I I #
coedge $-1 $223 $224 $138 $225 forward $85 $-1 #
coedge $-1 $226 $87 $227 $228 reversed $54 $-1 #
coedge $-1 $87 $226 $136 $225 reversed $54 $-1 #
coedge $-1 $229 $230 $87 $140 reversed $231 $-1 #
edge $-1 $232 -9.9635117728694063 $233 9.9635117728694063 $139 $234 forward 7 unknown #
face $-1 $235 $236 $32 $-1 $237 reversed single #
loop $-1 $-1 $238 $88 #
plane-surface $-1 -57.202755559764732 45.712069881087046 0 0 -1 0 0 0 -1 forward_v I I I I #
coedge $-1 $239 $240 $145 $241 forward $89 $-1 #
coedge $-1 $242 $91 $144 $241 reversed $57 $-1 #
coedge $-1 $91 $242 $243 $244 reversed $57 $-1 #
coedge $-1 $245 $246 $91 $148 reversed $236 $-1 #
edge $-1 $247 -9.9635117728694063 $248 9.9635117728694063 $147 $249 forward 7 unknown #
face $-1 $250 $251 $33 $-1 $252 reversed single #
loop $-1 $-1 $253 $92 #
plane-surface $-1 -161.77490647224724 3.9871110417052567 64.027311594745342 0 -1 0 0.85716730853699208 0 -0.51503806187062418 forward_v I I I I #
coedge $-1 $254 $255 $256 $257 reversed $93 $-1 #
coedge $-1 $154 $95 $258 $259 reversed $60 $-1 #
coedge $-1 $95 $153 $254 $260 reversed $60 $-1 #
coedge $-1 $256 $261 $95 $156 forward $262 $-1 #
edge $-1 $263 21.287245710259185 $264 25.690923545456492 $155 $265 forward 7 unknown #
loop $-1 $-1 $162 $96 #
plane-surface $-1 -59.600207525864448 -1.8488936271653316 2.6345608523289314 -0.85716730853699208 0 0.51503806187062418 0.51503806187062418 0 0.85716730853699208 forward_v I I I I #
loop $-1 $-1 $266 $62 #
coedge $-1 $160 $160 $161 $267 reversed $97 $-1 #
coedge $-1 $161 $161 $160 $267 forward $99 $-1 #
coedge $-1 $162 $162 $100 $163 forward $157 $-1 #
edge $-1 $268 0 $268 6.2831853071796004 $162 $269 forward 7 unknown #
loop $-1 $-1 $169 $101 #
plane-surface $-1 -59.600207525864448 -1.8488936271653316 2.6345608523289314 -0.85716730853699208 0 0.51503806187062418 0.51503806187062418 0 0.85716730853699208 forward_v I I I I #
loop $-1 $-1 $270 $65 #
coedge $-1 $167 $167 $168 $271 reversed $102 $-1 #
coedge $-1 $168 $168 $167 $271 forward $104 $-1 #
coedge $-1 $169 $169 $105 $170 forward $164 $-1 #
edge $-1 $272 0 $272 6.2831853071796004 $169 $273 forward 7 unknown #
loop $-1 $-1 $176 $106 #
plane-surface $-1 -59.600207525864448 -1.8488936271653316 2.6345608523289314 -0.85716730853699208 0 0.51503806187062418 0.51503806187062418 0 0.85716730853699208 forward_v I I I I #
loop $-1 $-1 $274 $68 #
coedge $-1 $174 $174 $175 $275 reversed $107 $-1 #
coedge $-1 $175 $175 $174 $275 forward $109 $-1 #
coedge $-1 $176 $176 $110 $177 forward $171 $-1 #
edge $-1 $276 0 $276 6.2831853071796004 $176 $277 forward 7 unknown #
face $-1 $278 $279 $37 $-1 $280 forward single #
loop $-1 $-1 $281 $111 #
plane-surface $-1 103.23059009544978 18.316997001647515 167.32890808390718 0 1 0 0.86602541151947299 0 0.49999998660252726 forward_v I I I I #
coedge $-1 $282 $283 $284 $285 reversed $112 $-1 #
coedge $-1 $183 $114 $286 $287 reversed $72 $-1 #
coedge $-1 $114 $182 $282 $288 reversed $72 $-1 #
coedge $-1 $284 $289 $114 $185 forward $279 $-1 #
edge $-1 $290 -7.9849124781395417 $291 -4.829463517194192 $184 $292 forward 7 unknown #
loop $-1 $-1 $191 $115 #
plane-surface $-1 1.5969843047969334e-006 22.046399781265364 107.72870215502707 0.86602541151947299 0 0.49999998660252726 0.49999998660252726 0 -0.86602541151947299 forward_v I I I I #
loop $-1 $-1 $293 $74 #
coedge $-1 $189 $189 $190 $294 reversed $116 $-1 #
coedge $-1 $190 $190 $189 $294 forward $118 $-1 #
coedge $-1 $191 $191 $119 $192 forward $186 $-1 #
edge $-1 $295 0 $295 6.2831853071796004 $191 $296 forward 7 unknown #
loop $-1 $-1 $198 $120 #
plane-surface $-1 1.5969843047969334e-006 22.046399781265364 107.72870215502707 0.86602541151947299 0 0.49999998660252726 0.49999998660252726 0 -0.86602541151947299 forward_v I I I I #
loop $-1 $-1 $297 $77 #
coedge $-1 $196 $196 $197 $298 reversed $121 $-1 #
coedge $-1 $197 $197 $196 $298 forward $123 $-1 #
coedge $-1 $198 $198 $124 $199 forward $193 $-1 #
edge $-1 $299 0 $299 6.2831853071796004 $198 $300 forward 7 unknown #
face $-1 $301 $302 $30 $-1 $303 reversed single #
loop $-1 $-1 $304 $125 #
plane-surface $-1 -59.600207525864434 0 0 1 0 0 0 0 -1 forward_v I I I I #
coedge $-1 $305 $211 $306 $307 forward $126 $-1 #
coedge $-1 $308 $128 $305 $309 forward $81 $-1 #
coedge $-1 $128 $308 $310 $311 forward $81 $-1 #
coedge $-1 $214 $213 $128 $207 reversed $215 $-1 #
edge $-1 $312 -35.743936220985127 $313 35.743936220985127 $206 $314 forward 7 unknown #
coedge $-1 $130 $129 $315 $316 forward $51 $-1 #
coedge $-1 $317 $318 $129 $210 reversed $302 $-1 #
edge $-1 $217 -59.600207525864434 $319 59.600207525864434 $209 $320 forward 7 unknown #
coedge $-1 $203 $321 $130 $212 reversed $126 $-1 #
edge $-1 $322 -59.600207525864434 $216 59.600207525864434 $211 $323 forward 7 unknown #
coedge $-1 $206 $131 $321 $324 forward $215 $-1 #
coedge $-1 $131 $206 $317 $325 reversed $215 $-1 #
loop $-1 $-1 $213 $301 #
vertex $-1 $132 $326 #
vertex $-1 $132 $327 #
straight-curve $-1 59.600207525864434 0 9.9635117728694063 0 1 0 I I #
face $-1 $328 $231 $31 $-1 $329 reversed single #
loop $-1 $-1 $330 $133 #
plane-surface $-1 -57.202755559764732 -45.712069881087039 0 0 1 0 0 0 1 forward_v I I I I #
coedge $-1 $331 $332 $226 $333 forward $134 $-1 #
coedge $-1 $334 $136 $332 $335 forward $85 $-1 #
coedge $-1 $136 $334 $229 $336 forward $85 $-1 #
edge $-1 $232 54.80530359366503 $337 59.600207525864434 $136 $338 forward 7 unknown #
coedge $-1 $138 $137 $222 $333 reversed $54 $-1 #
coedge $-1 $339 $340 $137 $228 forward $341 $-1 #
edge $-1 $342 -59.600207525864434 $233 -54.80530359366503 $227 $343 forward 7 unknown #
coedge $-1 $344 $139 $224 $336 reversed $231 $-1 #
coedge $-1 $139 $344 $339 $345 reversed $231 $-1 #
loop $-1 $-1 $344 $219 #
vertex $-1 $225 $346 #
vertex $-1 $345 $347 #
straight-curve $-1 -54.80530359366503 -35.743936220985127 0 0 0 -1 I I #
face $-1 $348 $349 $32 $-1 $350 reversed single #
loop $-1 $-1 $147 $141 #
plane-surface $-1 -54.80530359366503 40.72800305103609 0 -1 0 0 0 0 1 forward_v I I I I #
coedge $-1 $351 $352 $353 $354 forward $142 $-1 #
coedge $-1 $355 $144 $246 $356 forward $89 $-1 #
coedge $-1 $144 $355 $357 $358 forward $89 $-1 #
edge $-1 $359 -59.600207525864434 $248 -54.80530359366503 $144 $360 forward 7 unknown #
coedge $-1 $146 $145 $361 $362 reversed $57 $-1 #
coedge $-1 $363 $364 $146 $244 forward $349 $-1 #
edge $-1 $247 54.80530359366503 $365 59.600207525864434 $243 $366 forward 7 unknown #
coedge $-1 $353 $147 $364 $367 reversed $236 $-1 #
coedge $-1 $147 $353 $239 $356 reversed $236 $-1 #
vertex $-1 $244 $368 #
vertex $-1 $356 $369 #
straight-curve $-1 -54.80530359366503 35.743936220985127 0 0 0 1 I I #
face $-1 $-1 $262 $33 $-1 $370 forward single #
loop $-1 $-1 $371 $149 #
plane-surface $-1 -59.600207525864434 0 0 1 0 0 0 0 -1 forward_v I I I I #
coedge $-1 $372 $373 $374 $375 reversed $150 $-1 #
coedge $-1 $376 $152 $154 $260 forward $93 $-1 #
coedge $-1 $152 $376 $372 $377 forward $93 $-1 #
coedge $-1 $374 $155 $152 $257 forward $262 $-1 #
edge $-1 $264 -6.760451482453254 $378 4.9115578552879224 $256 $379 forward 7 unknown #
coedge $-1 $380 $381 $153 $259 forward $251 $-1 #
edge $-1 $382 -29.379094945043715 $263 -22.050144024503265 $258 $383 forward 7 unknown #
edge $-1 $264 -8.5501988323020459 $382 -2.7494044966190042e-014 $154 $384 forward 7 unknown #
coedge $-1 $155 $374 $380 $385 forward $262 $-1 #
loop $-1 $-1 $374 $250 #
vertex $-1 $259 $386 #
vertex $-1 $156 $387 #
straight-curve $-1 -80.887453236123619 -7.6848982960359198 9.9635117728694063 1 0 0 I I #
coedge $-1 $266 $266 $-1 $388 reversed $159 $-1 #
edge $-1 $389 0 $389 6.2831853071796004 $160 $390 forward 7 unknown #
vertex $-1 $163 $391 #
ellipse-curve $-1 -57.398368608265784 -5.3504964284876877 6.299036312599176 -0.85716730853699208 0 0.51503806187062418 0.25751903093531209 0 0.42858365426849604 1 I I #
coedge $-1 $270 $270 $-1 $392 reversed $166 $-1 #
edge $-1 $393 0 $393 6.2831853071796004 $167 $394 forward 7 unknown #
vertex $-1 $170 $395 #
ellipse-curve $-1 -57.398368608265784 -1.8488936271653316 6.299036312599176 -0.85716730853699208 0 0.51503806187062418 0.25751903093531209 0 0.42858365426849604 1 I I #
coedge $-1 $274 $274 $-1 $396 reversed $173 $-1 #
edge $-1 $397 0 $397 6.2831853071796004 $174 $398 forward 7 unknown #
vertex $-1 $177 $399 #
ellipse-curve $-1 -57.398368608265784 1.6527091741570175 6.299036312599176 -0.85716730853699208 0 0.51503806187062418 0.25751903093531209 0 0.42858365426849604 1 I I #
face $-1 $-1 $400 $37 $-1 $401 reversed single #
loop $-1 $-1 $184 $178 #
plane-surface $-1 0 0 9.9635117728694063 0 0 1 1 0 0 forward_v I I I I #
coedge $-1 $402 $403 $404 $405 reversed $179 $-1 #
coedge $-1 $406 $181 $183 $288 forward $112 $-1 #
coedge $-1 $181 $406 $402 $407 forward $112 $-1 #
coedge $-1 $404 $184 $181 $285 forward $279 $-1 #
edge $-1 $291 -14.752602670250532 $408 -7.2937971110148325 $284 $409 forward 7 unknown #
coedge $-1 $410 $411 $182 $287 forward $400 $-1 #
edge $-1 $412 -79.166340385392019 $290 -73.70094226908418 $286 $413 forward 7 unknown #
edge $-1 $291 112.88951696073801 $412 119.20041505172888 $183 $414 forward 7 unknown #
coedge $-1 $184 $404 $410 $415 forward $279 $-1 #
vertex $-1 $185 $416 #
vertex $-1 $185 $417 #
straight-curve $-1 51.615295047724892 25.775802560883214 9.9635117728694098 -1 0 0 I I #
coedge $-1 $293 $293 $-1 $418 reversed $188 $-1 #
edge $-1 $419 0 $419 6.2831853071796004 $189 $420 forward 7 unknown #
vertex $-1 $192 $421 #
ellipse-curve $-1 58.022483045391752 20.448084304286283 7.230812714715503 0.86602541151947299 0 0.49999998660252726 0.24999999330126363 0 -0.43301270575973649 1 I I #
coedge $-1 $297 $297 $-1 $422 reversed $195 $-1 #
edge $-1 $423 0 $423 6.2831853071796004 $196 $424 forward 7 unknown #
vertex $-1 $199 $425 #
ellipse-curve $-1 58.022483045391752 23.644715258244439 7.230812714715503 0.86602541151947299 0 0.49999998660252726 0.24999999330126363 0 -0.43301270575973649 1 I I #
face $-1 $-1 $215 $30 $-1 $426 reversed single #
loop $-1 $-1 $317 $200 #
plane-surface $-1 0 35.743936220985127 0 0 -1 0 0 0 -1 forward_v I I I I #
coedge $-1 $427 $315 $318 $428 forward $201 $-1 #
coedge $-1 $321 $203 $204 $309 reversed $126 $-1 #
coedge $-1 $315 $427 $203 $307 reversed $201 $-1 #
edge $-1 $322 -9.9635117728694063 $429 9.9635117728694063 $306 $430 forward 7 unknown #
coedge $-1 $205 $204 $427 $431 forward $81 $-1 #
edge $-1 $313 -59.600207525864434 $429 59.600207525864434 $305 $432 forward 7 unknown #
coedge $-1 $318 $317 $205 $311 reversed $302 $-1 #
edge $-1 $433 -59.600207525864434 $312 59.600207525864434 $310 $434 forward 7 unknown #
vertex $-1 $207 $435 #
vertex $-1 $324 $436 #
straight-curve $-1 59.600207525864434 0 -9.9635117728694063 0 -1 0 I I #
coedge $-1 $304 $306 $208 $316 reversed $201 $-1 #
edge $-1 $319 -35.743936220985127 $322 35.743936220985127 $315 $437 forward 7 unknown #
coedge $-1 $310 $209 $214 $325 forward $302 $-1 #
coedge $-1 $209 $310 $304 $428 reversed $302 $-1 #
vertex $-1 $210 $438 #
straight-curve $-1 0 35.743936220985127 9.9635117728694063 -1 0 0 I I #
coedge $-1 $211 $305 $213 $324 reversed $126 $-1 #
vertex $-1 $316 $439 #
straight-curve $-1 0 -35.743936220985127 9.9635117728694063 1 0 0 I I #
edge $-1 $216 -9.9635117728694063 $313 9.9635117728694063 $213 $440 forward 7 unknown #
edge $-1 $217 -9.9635117728694063 $312 9.9635117728694063 $214 $441 forward 7 unknown #
point $-1 59.600207525864434 -35.743936220985127 9.9635117728694063 #
point $-1 59.600207525864434 35.743936220985127 9.9635117728694063 #
face $-1 $-1 $341 $31 $-1 $442 reversed single #
plane-surface $-1 -54.80530359366503 -40.728003051036083 0 -1 0 0 0 0 1 forward_v I I I I #
coedge $-1 $443 $444 $445 $446 forward $220 $-1 #
coedge $-1 $445 $222 $340 $447 reversed $134 $-1 #
coedge $-1 $222 $445 $223 $335 reversed $134 $-1 #
edge $-1 $337 -9.9635117728694063 $342 9.9635117728694063 $222 $448 forward 7 unknown #
coedge $-1 $224 $223 $444 $449 forward $85 $-1 #
edge $-1 $337 35.743936220985127 $450 45.712069881087039 $332 $451 forward 7 unknown #
edge $-1 $452 -4.9840668300509563 $232 4.9840668300509563 $229 $453 forward 7 unknown #
vertex $-1 $335 $454 #
straight-curve $-1 0 -35.743936220985127 9.9635117728694063 -1 0 0 I I #
coedge $-1 $455 $227 $230 $345 forward $341 $-1 #
coedge $-1 $227 $455 $331 $447 forward $341 $-1 #
loop $-1 $-1 $227 $328 #
vertex $-1 $333 $456 #
straight-curve $-1 0 -35.743936220985127 -9.9635117728694063 1 0 0 I I #
coedge $-1 $230 $229 $457 $458 forward $231 $-1 #
edge $-1 $233 -4.9840668300509563 $459 4.9840668300509563 $230 $460 forward 7 unknown #
point $-1 -54.80530359366503 -35.743936220985127 9.9635117728694063 #
point $-1 -54.80530359366503 -35.743936220985127 -9.9635117728694063 #
face $-1 $-1 $461 $32 $-1 $462 reversed single #
loop $-1 $-1 $243 $235 #
plane-surface $-1 0 0 -9.9635117728694063 0 0 1 1 0 0 forward_v I I I I #
coedge $-1 $463 $238 $464 $465 reversed $142 $-1 #
coedge $-1 $238 $463 $355 $466 reversed $142 $-1 #
coedge $-1 $246 $245 $238 $354 reversed $236 $-1 #
edge $-1 $467 -9.9635117728694063 $468 9.9635117728694063 $353 $469 forward 7 unknown #
coedge $-1 $240 $239 $352 $466 forward $89 $-1 #
edge $-1 $248 -4.9840668300509563 $467 4.9840668300509563 $246 $470 forward 7 unknown #
coedge $-1 $471 $361 $240 $358 reversed $461 $-1 #
edge $-1 $472 -45.712069881087046 $359 -35.743936220985127 $357 $473 forward 7 unknown #
vertex $-1 $362 $474 #
straight-curve $-1 0 35.743936220985127 9.9635117728694063 1 0 0 I I #
coedge $-1 $357 $475 $242 $362 forward $461 $-1 #
edge $-1 $365 -9.9635117728694063 $359 9.9635117728694063 $361 $476 forward 7 unknown #
coedge $-1 $464 $243 $475 $477 forward $349 $-1 #
coedge $-1 $243 $464 $245 $367 forward $349 $-1 #
vertex $-1 $477 $478 #
straight-curve $-1 0 35.743936220985127 -9.9635117728694063 -1 0 0 I I #
edge $-1 $468 -4.9840668300509563 $247 4.9840668300509563 $245 $479 forward 7 unknown #
point $-1 -54.80530359366503 35.743936220985134 -9.9635117728694063 #
point $-1 -54.80530359366503 35.743936220985134 9.9635117728694063 #
plane-surface $-1 0 0 9.9635117728694063 0 0 1 1 0 0 forward_v I I I I #
coedge $-1 $381 $380 $373 $480 forward $251 $-1 #
coedge $-1 $373 $253 $255 $377 reversed $150 $-1 #
coedge $-1 $253 $372 $371 $480 reversed $150 $-1 #
coedge $-1 $261 $256 $253 $375 forward $262 $-1 #
edge $-1 $378 -25.690923545456492 $481 -21.287245710259185 $374 $482 forward 7 unknown #
coedge $-1 $255 $254 $381 $483 reversed $93 $-1 #
edge $-1 $484 2.7494044966190042e-014 $378 8.5501988323020459 $372 $485 forward 7 unknown #
vertex $-1 $257 $486 #
straight-curve $-1 -55.196529690667127 -0.92444681358266578 9.9635117728694063 0 1 0 I I #
coedge $-1 $371 $258 $261 $385 reversed $251 $-1 #
coedge $-1 $258 $371 $376 $483 forward $251 $-1 #
vertex $-1 $259 $487 #
straight-curve $-1 -59.600207525864434 -7.6848982960359198 32.013655797372671 0 0 1 I I #
straight-curve $-1 -59.600207525864448 -7.6848982960359198 2.6345608523289314 -0.51503806187062418 0 -0.85716730853699208 I I #
edge $-1 $481 -3.9871110417052567 $263 7.6848982960359198 $380 $488 forward 7 unknown #
point $-1 -59.600207525864434 -7.6848982960359198 9.9635117728694063 #
point $-1 -55.196529690667127 -7.6848982960359198 9.9635117728694063 #
edge $-1 $489 1 $489 0 $266 $-1 forward 7 unknown #
vertex $-1 $267 $490 #
ellipse-curve $-1 -55.99147314624355 -5.3504964284876877 5.4536882635102986 -0.85716730853699208 0 0.51503806187062418 0.25751903093531209 0 0.42858365426849604 1 I I #
point $-1 -57.140849577330464 -5.3504964284876877 6.7276199668676639 #
edge $-1 $491 1 $491 0 $270 $-1 forward 7 unknown #
vertex $-1 $271 $492 #
ellipse-curve $-1 -55.99147314624355 -1.8488936271653316 5.4536882635102986 -0.85716730853699208 0 0.51503806187062418 0.25751903093531209 0 0.42858365426849604 1 I I #
point $-1 -57.140849577330464 -1.8488936271653316 6.7276199668676639 #
edge $-1 $493 1 $493 0 $274 $-1 forward 7 unknown #
vertex $-1 $275 $494 #
ellipse-curve $-1 -55.99147314624355 1.6527091741570175 5.4536882635102986 -0.85716730853699208 0 0.51503806187062418 0.25751903093531209 0 0.42858365426849604 1 I I #
point $-1 -57.140849577330464 1.6527091741570175 6.7276199668676639 #
loop $-1 $-1 $286 $278 #
plane-surface $-1 59.600207525864434 0 0 -1 0 0 0 0 1 forward_v I I I I #
coedge $-1 $403 $281 $283 $407 reversed $179 $-1 #
coedge $-1 $281 $402 $495 $496 reversed $179 $-1 #
coedge $-1 $289 $284 $281 $405 forward $279 $-1 #
edge $-1 $408 4.829463517194192 $497 7.9849124781395417 $404 $498 forward 7 unknown #
coedge $-1 $283 $282 $411 $499 reversed $112 $-1 #
edge $-1 $500 -119.20041505172888 $408 -112.88951696073801 $402 $501 forward 7 unknown #
vertex $-1 $285 $502 #
straight-curve $-1 56.44475856491907 11.023199890632682 9.9635117728694098 0 -1 0 I I #
coedge $-1 $495 $286 $289 $415 reversed $400 $-1 #
coedge $-1 $286 $495 $406 $499 forward $400 $-1 #
vertex $-1 $287 $503 #
straight-curve $-1 59.600207525864434 25.775802560883214 83.66445404195359 0 0 1 I I #
straight-curve $-1 1.5969843047969334e-006 25.775802560883214 107.72870215502707 0.49999998660252726 0 -0.86602541151947299 I I #
edge $-1 $497 18.316997001647515 $290 25.775802560883214 $410 $504 forward 7 unknown #
point $-1 59.600207525864434 25.775802560883214 9.9635117728694063 #
point $-1 56.444758564919084 25.775802560883214 9.9635117728694098 #
edge $-1 $505 1 $505 0 $293 $-1 forward 7 unknown #
vertex $-1 $294 $506 #
ellipse-curve $-1 56.389662924203755 20.448084304286283 6.288103611889162 0.86602541151947299 0 0.49999998660252726 0.24999999330126363 0 -0.43301270575973649 1 I I #
point $-1 58.272483038693018 20.448084304286283 6.79780000895577 #
edge $-1 $507 1 $507 0 $297 $-1 forward 7 unknown #
vertex $-1 $298 $508 #
ellipse-curve $-1 56.389662924203755 23.644715258244439 6.288103611889162 0.86602541151947299 0 0.49999998660252726 0.24999999330126363 0 -0.43301270575973649 1 I I #
point $-1 58.272483038693018 23.644715258244439 6.79780000895577 #
plane-surface $-1 59.600207525864434 0 0 -1 0 0 0 0 1 forward_v I I I I #
coedge $-1 $306 $304 $308 $431 reversed $201 $-1 #
edge $-1 $319 -9.9635117728694063 $433 9.9635117728694063 $318 $509 forward 7 unknown #
vertex $-1 $431 $510 #
straight-curve $-1 -59.600207525864434 -35.743936220985127 0 0 0 -1 I I #
edge $-1 $429 -35.743936220985127 $433 35.743936220985127 $427 $511 forward 7 unknown #
straight-curve $-1 0 -35.743936220985127 -9.9635117728694063 -1 0 0 I I #
vertex $-1 $311 $512 #
straight-curve $-1 0 35.743936220985127 -9.9635117728694063 1 0 0 I I #
point $-1 59.600207525864434 35.743936220985127 -9.9635117728694063 #
point $-1 59.600207525864434 -35.743936220985127 -9.9635117728694063 #
straight-curve $-1 -59.600207525864434 0 9.9635117728694063 0 -1 0 I I #
point $-1 -59.600207525864434 35.743936220985127 9.9635117728694063 #
point $-1 -59.600207525864434 -35.743936220985127 9.9635117728694063 #
straight-curve $-1 59.600207525864434 -35.743936220985127 0 0 0 -1 I I #
straight-curve $-1 59.600207525864434 35.743936220985127 0 0 0 -1 I I #
plane-surface $-1 0 0 -9.9635117728694063 0 0 1 1 0 0 forward_v I I I I #
coedge $-1 $457 $330 $455 $513 reversed $220 $-1 #
coedge $-1 $330 $457 $334 $449 reversed $220 $-1 #
coedge $-1 $332 $331 $330 $446 reversed $134 $-1 #
edge $-1 $450 -9.9635117728694063 $514 9.9635117728694063 $445 $515 forward 7 unknown #
edge $-1 $514 -45.712069881087039 $342 -35.743936220985127 $331 $516 forward 7 unknown #
straight-curve $-1 -59.600207525864434 -35.743936220985127 0 0 0 -1 I I #
edge $-1 $450 -2.3974519660997018 $452 2.3974519660997018 $444 $517 forward 7 unknown #
vertex $-1 $335 $518 #
straight-curve $-1 -59.600207525864434 0 9.9635117728694063 0 -1 0 I I #
vertex $-1 $336 $519 #
straight-curve $-1 -54.80530359366503 -40.728003051036083 9.9635117728694063 0 1 0 I I #
point $-1 -59.600207525864434 -35.743936220985127 9.9635117728694063 #
coedge $-1 $340 $339 $443 $513 forward $341 $-1 #
point $-1 -59.600207525864434 -35.743936220985127 -9.9635117728694063 #
coedge $-1 $444 $443 $344 $458 reversed $220 $-1 #
edge $-1 $452 -9.9635117728694063 $459 9.9635117728694063 $344 $520 forward 7 unknown #
vertex $-1 $458 $521 #
straight-curve $-1 -54.80530359366503 -40.728003051036083 -9.9635117728694063 0 -1 0 I I #
loop $-1 $-1 $361 $348 #
plane-surface $-1 -59.600207525864434 0 0 1 0 0 0 0 -1 forward_v I I I I #
coedge $-1 $352 $351 $471 $522 reversed $142 $-1 #
coedge $-1 $364 $363 $351 $465 forward $349 $-1 #
edge $-1 $523 -2.3974519660997018 $468 2.3974519660997018 $351 $524 forward 7 unknown #
edge $-1 $467 -2.3974519660997018 $472 2.3974519660997018 $352 $525 forward 7 unknown #
vertex $-1 $356 $526 #
vertex $-1 $367 $527 #
straight-curve $-1 -54.80530359366503 45.712069881087046 0 0 0 -1 I I #
straight-curve $-1 -54.80530359366503 40.72800305103609 9.9635117728694063 0 1 0 I I #
coedge $-1 $475 $357 $463 $522 forward $461 $-1 #
vertex $-1 $466 $528 #
straight-curve $-1 -59.600207525864434 0 9.9635117728694063 0 -1 0 I I #
point $-1 -59.600207525864434 35.743936220985127 9.9635117728694063 #
coedge $-1 $361 $471 $363 $477 reversed $461 $-1 #
straight-curve $-1 -59.600207525864434 35.743936220985127 0 0 0 1 I I #
edge $-1 $365 -4.9840668300509634 $523 4.9840668300509563 $475 $529 forward 7 unknown #
point $-1 -59.600207525864434 35.743936220985127 -9.9635117728694063 #
straight-curve $-1 -54.80530359366503 40.72800305103609 -9.9635117728694063 0 -1 0 I I #
edge $-1 $481 22.050144024503265 $484 29.379094945043715 $371 $530 forward 7 unknown #
vertex $-1 $385 $531 #
straight-curve $-1 -80.887453236123619 3.9871110417052567 9.9635117728694063 -1 0 0 I I #
edge $-1 $484 -4.9115578552879224 $382 6.760451482453254 $381 $532 forward 7 unknown #
vertex $-1 $483 $533 #
straight-curve $-1 -59.600207525864448 3.9871110417052567 2.6345608523289314 0.51503806187062418 0 0.85716730853699208 I I #
point $-1 -55.196529690667127 3.9871110417052567 9.9635117728694063 #
point $-1 -59.600207525864434 -7.6848982960359198 2.634560852328955 #
straight-curve $-1 -59.600207525864434 0 9.9635117728694063 0 -1 0 I I #
vertex $-1 $388 $534 #
point $-1 -55.733954115308237 -5.3504964284876877 5.8822719177787945 #
vertex $-1 $392 $535 #
point $-1 -55.733954115308237 -1.8488936271653316 5.8822719177787945 #
vertex $-1 $396 $536 #
point $-1 -55.733954115308237 1.6527091741570175 5.8822719177787945 #
coedge $-1 $411 $410 $403 $496 forward $400 $-1 #
edge $-1 $497 73.70094226908418 $500 79.166340385392019 $495 $537 forward 7 unknown #
vertex $-1 $415 $538 #
straight-curve $-1 51.615295047724892 18.316997001647515 9.9635117728694098 1 0 0 I I #
edge $-1 $500 7.2937971110148325 $412 14.752602670250532 $411 $539 forward 7 unknown #
vertex $-1 $499 $540 #
straight-curve $-1 1.5969843047969334e-006 18.316997001647515 107.72870215502707 -0.49999998660252726 0 0.86602541151947299 I I #
point $-1 56.444758564919084 18.316997001647515 9.9635117728694098 #
point $-1 59.600207525864434 25.775802560883214 4.4981136565615714 #
straight-curve $-1 59.600207525864434 0 9.9635117728694063 0 1 0 I I #
vertex $-1 $418 $541 #
point $-1 56.639662917505021 20.448084304286283 5.8550909061294254 #
vertex $-1 $422 $542 #
point $-1 56.639662917505021 23.644715258244439 5.8550909061294254 #
straight-curve $-1 -59.600207525864434 35.743936220985127 0 0 0 -1 I I #
point $-1 -59.600207525864434 -35.743936220985127 -9.9635117728694063 #
straight-curve $-1 -59.600207525864434 0 -9.9635117728694063 0 1 0 I I #
point $-1 -59.600207525864434 35.743936220985127 -9.9635117728694063 #
edge $-1 $459 -2.3974519660997018 $514 2.3974519660997018 $443 $543 forward 7 unknown #
vertex $-1 $447 $544 #
straight-curve $-1 -59.600207525864434 -45.712069881087039 0 0 0 -1 I I #
straight-curve $-1 -59.600207525864434 0 -9.9635117728694063 0 1 0 I I #
straight-curve $-1 -57.202755559764732 -45.712069881087039 9.9635117728694063 1 0 0 I I #
point $-1 -59.600207525864434 -45.712069881087039 9.9635117728694063 #
point $-1 -54.80530359366503 -45.712069881087039 9.9635117728694063 #
straight-curve $-1 -54.80530359366503 -45.712069881087039 0 0 0 -1 I I #
point $-1 -54.80530359366503 -45.712069881087039 -9.9635117728694063 #
edge $-1 $472 -9.9635117728694063 $523 9.9635117728694063 $463 $545 forward 7 unknown #
vertex $-1 $465 $546 #
straight-curve $-1 -57.202755559764732 45.712069881087046 -9.9635117728694063 1 0 0 I I #
straight-curve $-1 -57.202755559764732 45.712069881087046 9.9635117728694063 -1 0 0 I I #
point $-1 -54.80530359366503 45.712069881087046 9.9635117728694063 #
point $-1 -54.80530359366503 45.712069881087046 -9.9635117728694063 #
point $-1 -59.600207525864434 45.712069881087046 9.9635117728694063 #
straight-curve $-1 -59.600207525864434 40.72800305103609 -9.9635117728694063 0 1 0 I I #
straight-curve $-1 -59.600207525864434 3.9871110417052567 32.013655797372671 0 0 -1 I I #
point $-1 -59.600207525864434 3.9871110417052567 9.9635117728694063 #
straight-curve $-1 -59.600207525864434 -0.92444681358266578 2.6345608523289554 0 -1 0 I I #
point $-1 -59.600207525864434 3.9871110417052567 2.634560852328955 #
point $-1 -55.562889491975056 -5.3504964284876877 5.1961692325749871 #
point $-1 -55.562889491975056 -1.8488936271653316 5.1961692325749871 #
point $-1 -55.562889491975056 1.6527091741570175 5.1961692325749871 #
straight-curve $-1 59.600207525864434 18.316997001647515 83.66445404195359 0 0 -1 I I #
point $-1 59.600207525864434 18.316997001647515 9.9635117728694063 #
straight-curve $-1 59.600207525864434 11.023199890632682 4.4981136565615785 0 1 0 I I #
point $-1 59.600207525864434 18.316997001647515 4.4981136565615714 #
point $-1 55.956650218444018 20.448084304286283 6.0381036185878978 #
point $-1 55.956650218444018 23.644715258244439 6.0381036185878978 #
straight-curve $-1 -57.202755559764732 -45.712069881087039 -9.9635117728694063 -1 0 0 I I #
point $-1 -59.600207525864434 -45.712069881087039 -9.9635117728694063 #
straight-curve $-1 -59.600207525864434 45.712069881087046 0 0 0 -1 I I #
point $-1 -59.600207525864434 45.712069881087046 -9.9635117728694063 #
End-of-ACIS-data 