500 0 10 0           
7 Unknown 11 ACIS 5.0 NT 24 Fri Mar 26 01:52:20 1999 
-1 9.9999999999999995e-007 1e-010 
body $-1 $10 $-1 $11 #
body $-1 $12 $-1 $13 #
body $-1 $14 $-1 $15 #
body $-1 $16 $-1 $17 #
body $-1 $18 $-1 $19 #
body $-1 $20 $-1 $21 #
body $-1 $22 $-1 $23 #
body $-1 $24 $-1 $25 #
body $-1 $26 $-1 $27 #
body $-1 $28 $-1 $29 #
lump $-1 $-1 $30 $0 #
transform $-1 1 0 0 0 1 0 0 0 1 76.271858882412175 45.496593284645023 14.569823368442812 1 rotate no_reflect no_shear #
lump $-1 $-1 $31 $1 #
transform $-1 1 0 0 0 1 0 0 0 1 76.271858882412175 45.496593284645023 14.569823368442812 1 rotate no_reflect no_shear #
lump $-1 $-1 $32 $2 #
transform $-1 1 0 0 0 1 0 0 0 1 76.271858882412175 45.496593284645023 14.569823368442812 1 rotate no_reflect no_shear #
lump $-1 $-1 $33 $3 #
transform $-1 1 0 0 0 1 0 0 0 1 76.271858882412175 45.496593284645023 14.569823368442812 1 rotate no_reflect no_shear #
lump $-1 $-1 $34 $4 #
transform $-1 1 0 0 0 1 0 0 0 1 76.271858882412175 45.496593284645023 14.569823368442812 1 rotate no_reflect no_shear #
lump $-1 $-1 $35 $5 #
transform $-1 1 0 0 0 1 0 0 0 1 76.271858882412175 45.496593284645023 14.569823368442812 1 rotate no_reflect no_shear #
lump $-1 $-1 $36 $6 #
transform $-1 1 0 0 0 1 0 0 0 1 76.271858882412175 45.496593284645023 14.569823368442812 1 rotate no_reflect no_shear #
lump $-1 $-1 $37 $7 #
transform $-1 1 0 0 0 1 0 0 0 1 76.271858882412175 45.496593284645023 14.569823368442812 1 rotate no_reflect no_shear #
lump $-1 $-1 $38 $8 #
transform $-1 1 0 0 0 1 0 0 0 1 76.271858882412175 45.496593284645023 14.569823368442812 1 rotate no_reflect no_shear #
lump $-1 $-1 $39 $9 #
transform $-1 1 0 0 0 1 0 0 0 1 76.271858882412175 45.496593284645023 14.569823368442812 1 rotate no_reflect no_shear #
shell $-1 $-1 $-1 $40 $-1 $10 #
shell $-1 $-1 $-1 $41 $-1 $12 #
shell $-1 $-1 $-1 $42 $-1 $14 #
shell $-1 $-1 $-1 $43 $-1 $16 #
shell $-1 $-1 $-1 $44 $-1 $18 #
shell $-1 $-1 $-1 $45 $-1 $20 #
shell $-1 $-1 $-1 $46 $-1 $22 #
shell $-1 $-1 $-1 $47 $-1 $24 #
shell $-1 $-1 $-1 $48 $-1 $26 #
shell $-1 $-1 $-1 $49 $-1 $28 #
face $-1 $50 $51 $30 $-1 $52 reversed single #
face $-1 $53 $54 $31 $-1 $55 forward single #
face $-1 $56 $57 $32 $-1 $58 reversed single #
face $-1 $59 $60 $33 $-1 $61 forward single #
face $-1 $62 $63 $34 $-1 $64 forward single #
face $-1 $65 $66 $35 $-1 $67 forward single #
face $-1 $68 $69 $36 $-1 $70 reversed single #
face $-1 $71 $72 $37 $-1 $73 forward single #
face $-1 $74 $75 $38 $-1 $76 reversed single #
face $-1 $77 $78 $39 $-1 $79 forward single #
face $-1 $80 $81 $30 $-1 $82 forward single #
loop $-1 $-1 $83 $40 #
plane-surface $-1 0 -45.496593284645023 0 0 1 0 0 0 1 forward_v I I I I #
face $-1 $84 $85 $31 $-1 $86 reversed single #
loop $-1 $-1 $87 $41 #
plane-surface $-1 0 -45.496593284645023 0 0 1 0 0 0 1 forward_v I I I I #
face $-1 $88 $89 $32 $-1 $90 reversed single #
loop $-1 $-1 $91 $42 #
plane-surface $-1 -187.83527278918027 32.452741177807212 113.54231978756381 0 1 0 -0.73135370988377701 0 0.68199835119979291 forward_v I I I I #
face $-1 $92 $93 $33 $-1 $94 forward single #
loop $-1 $95 $96 $43 #
cone-surface $-1 -72.627136969894622 35.061511599174786 10.840978849621266 0.73135370988377701 0 -0.68199835119979291 0.68199835119979291 0 0.73135370988377701 1 I I 0 1 1 forward I I I I #
face $-1 $97 $98 $34 $-1 $99 forward single #
loop $-1 $100 $101 $44 #
cone-surface $-1 -72.627136969894622 38.974667231226128 10.840978849621266 0.73135370988377701 0 -0.68199835119979291 0.68199835119979291 0 0.73135370988377701 1 I I 0 1 1 forward I I I I #
face $-1 $102 $103 $35 $-1 $104 forward single #
loop $-1 $105 $106 $45 #
cone-surface $-1 -72.627136969894622 42.887822863277471 10.840978849621266 0.73135370988377701 0 -0.68199835119979291 0.68199835119979291 0 0.73135370988377701 1 I I 0 1 1 forward I I I I #
face $-1 $107 $108 $36 $-1 $109 reversed single #
loop $-1 $-1 $110 $46 #
plane-surface $-1 113.73287812238289 -18.935214432305798 215.35405738973833 0 -1 0 -0.81915205242281985 0 -0.57357642473473569 forward_v I I I I #
face $-1 $111 $112 $37 $-1 $113 forward single #
loop $-1 $114 $115 $47 #
cone-surface $-1 70.819688053604295 -26.94139391357124 7.7785923415667986 -0.81915205242281985 0 -0.57357642473473569 0.86036463710210354 0 -1.2287280786342298 1 I I 0 1 1.5 forward I I I I #
face $-1 $116 $117 $38 $-1 $118 reversed single #
loop $-1 $-1 $119 $48 #
plane-surface $-1 113.73287812238289 21.28686890743505 215.35405738973833 0 -1 0 -0.81915205242281985 0 -0.57357642473473569 forward_v I I I I #
face $-1 $120 $121 $39 $-1 $122 forward single #
loop $-1 $123 $124 $49 #
cone-surface $-1 70.819688053604295 13.280689426169609 7.7785923415667986 -0.81915205242281985 0 -0.57357642473473569 0.86036463710210354 0 -1.2287280786342298 1 I I 0 1 1.5 forward I I I I #
face $-1 $125 $126 $30 $-1 $127 reversed single #
loop $-1 $-1 $128 $50 #
plane-surface $-1 0 0 14.569823368442812 0 0 1 1 0 0 forward_v I I I I #
coedge $-1 $129 $130 $131 $132 reversed $51 $-1 #
face $-1 $133 $134 $31 $-1 $135 reversed single #
loop $-1 $-1 $136 $53 #
plane-surface $-1 0 0 -14.569823368442812 0 0 1 1 0 0 forward_v I I I I #
coedge $-1 $137 $138 $139 $140 forward $54 $-1 #
face $-1 $141 $142 $32 $-1 $143 reversed single #
loop $-1 $-1 $144 $56 #
plane-surface $-1 -76.271858882412161 38.974667231226114 9.507755786067051 -0.73135370988377701 0 0.68199835119979291 0.68199835119979291 0 0.73135370988377701 forward_v I I I I #
coedge $-1 $145 $146 $147 $148 reversed $57 $-1 #
face $-1 $-1 $149 $33 $-1 $150 forward single #
loop $-1 $151 $152 $59 #
cone-surface $-1 -70.976965338898893 35.061511599174786 9.3021689463876989 0.73135370988377701 0 -0.68199835119979291 0.34099917559989645 0 0.36567685494188851 1 I I -0.70710678118654746 0.70710678118654746 0.5 forward I I I I #
loop $-1 $-1 $153 $43 #
coedge $-1 $96 $96 $154 $155 reversed $60 $-1 #
face $-1 $-1 $156 $34 $-1 $157 forward single #
loop $-1 $158 $159 $62 #
cone-surface $-1 -70.976965338898893 38.974667231226128 9.3021689463876989 0.73135370988377701 0 -0.68199835119979291 0.34099917559989645 0 0.36567685494188851 1 I I -0.70710678118654746 0.70710678118654746 0.5 forward I I I I #
loop $-1 $-1 $160 $44 #
coedge $-1 $101 $101 $161 $162 reversed $63 $-1 #
face $-1 $-1 $163 $35 $-1 $164 forward single #
loop $-1 $165 $166 $65 #
cone-surface $-1 -70.976965338898893 42.887822863277471 9.3021689463876989 0.73135370988377701 0 -0.68199835119979291 0.34099917559989645 0 0.36567685494188851 1 I I -0.70710678118654746 0.70710678118654746 0.5 forward I I I I #
loop $-1 $-1 $167 $45 #
coedge $-1 $106 $106 $168 $169 reversed $66 $-1 #
face $-1 $170 $171 $36 $-1 $172 reversed single #
loop $-1 $-1 $173 $68 #
plane-surface $-1 -11.223621368880345 -26.94139391357124 127.8585771384458 0.81915205242281985 0 0.57357642473473569 0.57357642473473569 0 -0.81915205242281985 forward_v I I I I #
coedge $-1 $174 $175 $176 $177 reversed $69 $-1 #
face $-1 $-1 $178 $37 $-1 $179 forward single #
loop $-1 $180 $181 $71 #
cone-surface $-1 68.838074816158496 -26.94139391357124 6.3910518567698347 -0.81915205242281985 0 -0.57357642473473569 0.43018231855105177 0 -0.61436403931711492 1 I I -0.70710678118654757 0.70710678118654757 0.75 forward I I I I #
loop $-1 $-1 $182 $47 #
coedge $-1 $115 $115 $183 $184 reversed $72 $-1 #
face $-1 $185 $186 $38 $-1 $187 reversed single #
loop $-1 $-1 $188 $74 #
plane-surface $-1 -11.223621368880345 13.280689426169609 127.8585771384458 0.81915205242281985 0 0.57357642473473569 0.57357642473473569 0 -0.81915205242281985 forward_v I I I I #
coedge $-1 $189 $190 $191 $192 reversed $75 $-1 #
face $-1 $-1 $193 $39 $-1 $194 forward single #
loop $-1 $195 $196 $77 #
cone-surface $-1 68.838074816158496 13.280689426169609 6.3910518567698347 -0.81915205242281985 0 -0.57357642473473569 0.43018231855105177 0 -0.61436403931711492 1 I I -0.70710678118654757 0.70710678118654757 0.75 forward I I I I #
loop $-1 $-1 $197 $49 #
coedge $-1 $124 $124 $198 $199 reversed $78 $-1 #
face $-1 $200 $201 $30 $-1 $202 reversed single #
loop $-1 $-1 $203 $80 #
plane-surface $-1 0 0 -14.569823368442812 0 0 1 1 0 0 forward_v I I I I #
coedge $-1 $204 $205 $206 $207 forward $81 $-1 #
coedge $-1 $208 $83 $209 $210 reversed $51 $-1 #
coedge $-1 $83 $208 $211 $212 forward $51 $-1 #
coedge $-1 $213 $203 $83 $132 forward $126 $-1 #
edge $-1 $214 -76.271858882412175 $215 76.271858882412175 $83 $216 forward 7 unknown #
face $-1 $217 $218 $31 $-1 $219 reversed single #
loop $-1 $-1 $220 $84 #
plane-surface $-1 -71.02051034638724 -56.045613174453365 0 0 1 0 0 0 1 forward_v I I I I #
coedge $-1 $221 $222 $138 $223 forward $85 $-1 #
coedge $-1 $224 $87 $225 $226 reversed $54 $-1 #
coedge $-1 $87 $224 $136 $223 reversed $54 $-1 #
coedge $-1 $227 $228 $87 $140 reversed $218 $-1 #
edge $-1 $229 -14.569823368442812 $230 14.569823368442812 $139 $231 forward 7 unknown #
face $-1 $232 $233 $32 $-1 $234 forward single #
loop $-1 $-1 $235 $88 #
plane-surface $-1 -76.271858882412175 0 0 1 0 0 0 0 -1 forward_v I I I I #
coedge $-1 $236 $237 $238 $239 reversed $89 $-1 #
coedge $-1 $146 $91 $240 $241 reversed $57 $-1 #
coedge $-1 $91 $145 $236 $242 reversed $57 $-1 #
coedge $-1 $238 $243 $91 $148 forward $233 $-1 #
edge $-1 $244 17.645777512177958 $245 22.366231785105384 $147 $246 forward 7 unknown #
loop $-1 $-1 $154 $92 #
plane-surface $-1 -76.271858882412161 38.974667231226114 9.507755786067051 -0.73135370988377701 0 0.68199835119979291 0.68199835119979291 0 0.73135370988377701 forward_v I I I I #
loop $-1 $-1 $247 $59 #
coedge $-1 $152 $152 $153 $248 reversed $93 $-1 #
coedge $-1 $153 $153 $152 $248 forward $95 $-1 #
coedge $-1 $154 $154 $96 $155 forward $149 $-1 #
edge $-1 $249 0 $249 6.2831853071796004 $154 $250 forward 7 unknown #
loop $-1 $-1 $161 $97 #
plane-surface $-1 -76.271858882412161 38.974667231226114 9.507755786067051 -0.73135370988377701 0 0.68199835119979291 0.68199835119979291 0 0.73135370988377701 forward_v I I I I #
loop $-1 $-1 $251 $62 #
coedge $-1 $159 $159 $160 $252 reversed $98 $-1 #
coedge $-1 $160 $160 $159 $252 forward $100 $-1 #
coedge $-1 $161 $161 $101 $162 forward $156 $-1 #
edge $-1 $253 0 $253 6.2831853071796004 $161 $254 forward 7 unknown #
loop $-1 $-1 $168 $102 #
plane-surface $-1 -76.271858882412161 38.974667231226114 9.507755786067051 -0.73135370988377701 0 0.68199835119979291 0.68199835119979291 0 0.73135370988377701 forward_v I I I I #
loop $-1 $-1 $255 $65 #
coedge $-1 $166 $166 $167 $256 reversed $103 $-1 #
coedge $-1 $167 $167 $166 $256 forward $105 $-1 #
coedge $-1 $168 $168 $106 $169 forward $163 $-1 #
edge $-1 $257 0 $257 6.2831853071796004 $168 $258 forward 7 unknown #
face $-1 $259 $260 $36 $-1 $261 forward single #
loop $-1 $-1 $262 $107 #
plane-surface $-1 113.73287812238289 -34.947573394836681 215.35405738973833 0 1 0 0.81915205242281985 0 0.57357642473473569 forward_v I I I I #
coedge $-1 $263 $264 $265 $266 reversed $108 $-1 #
coedge $-1 $175 $110 $267 $268 reversed $69 $-1 #
coedge $-1 $110 $174 $263 $269 reversed $69 $-1 #
coedge $-1 $265 $270 $110 $177 forward $260 $-1 #
edge $-1 $271 -19.405419821220733 $272 -11.23557655986238 $176 $273 forward 7 unknown #
loop $-1 $-1 $183 $111 #
plane-surface $-1 -11.223621368880345 -26.94139391357124 127.8585771384458 0.81915205242281985 0 0.57357642473473569 0.57357642473473569 0 -0.81915205242281985 forward_v I I I I #
loop $-1 $-1 $274 $71 #
coedge $-1 $181 $181 $182 $275 reversed $112 $-1 #
coedge $-1 $182 $182 $181 $275 forward $114 $-1 #
coedge $-1 $183 $183 $115 $184 forward $178 $-1 #
edge $-1 $276 0 $276 6.2831853071796004 $183 $277 forward 7 unknown #
face $-1 $278 $279 $38 $-1 $280 reversed single #
loop $-1 $-1 $281 $116 #
plane-surface $-1 113.73287812238289 5.2745099449041657 215.35405738973833 0 1 0 0.81915205242281985 0 0.57357642473473569 forward_v I I I I #
coedge $-1 $282 $283 $284 $285 reversed $117 $-1 #
coedge $-1 $190 $119 $286 $287 reversed $75 $-1 #
coedge $-1 $119 $189 $282 $288 reversed $75 $-1 #
coedge $-1 $284 $289 $119 $192 forward $290 $-1 #
edge $-1 $291 -19.405419821220733 $292 -11.23557655986238 $191 $293 forward 7 unknown #
loop $-1 $-1 $198 $120 #
plane-surface $-1 -11.223621368880345 13.280689426169609 127.8585771384458 0.81915205242281985 0 0.57357642473473569 0.57357642473473569 0 -0.81915205242281985 forward_v I I I I #
loop $-1 $-1 $294 $77 #
coedge $-1 $196 $196 $197 $295 reversed $121 $-1 #
coedge $-1 $197 $197 $196 $295 forward $123 $-1 #
coedge $-1 $198 $198 $124 $199 forward $193 $-1 #
edge $-1 $296 0 $296 6.2831853071796004 $198 $297 forward 7 unknown #
face $-1 $298 $299 $30 $-1 $300 reversed single #
loop $-1 $-1 $301 $125 #
plane-surface $-1 -76.271858882412175 0 0 1 0 0 0 0 -1 forward_v I I I I #
coedge $-1 $131 $302 $303 $304 forward $126 $-1 #
coedge $-1 $305 $128 $306 $307 forward $81 $-1 #
coedge $-1 $128 $305 $208 $308 forward $81 $-1 #
coedge $-1 $209 $309 $128 $207 reversed $310 $-1 #
edge $-1 $311 -45.496593284645023 $312 45.496593284645023 $206 $313 forward 7 unknown #
coedge $-1 $130 $129 $205 $308 reversed $51 $-1 #
coedge $-1 $303 $206 $129 $210 forward $310 $-1 #
edge $-1 $311 -14.569823368442812 $214 14.569823368442812 $209 $314 forward 7 unknown #
coedge $-1 $315 $316 $130 $212 reversed $201 $-1 #
edge $-1 $317 -14.569823368442812 $215 14.569823368442812 $211 $318 forward 7 unknown #
coedge $-1 $302 $131 $316 $319 forward $126 $-1 #
vertex $-1 $210 $320 #
vertex $-1 $319 $321 #
straight-curve $-1 0 -45.496593284645023 -14.569823368442812 -1 0 0 I I #
face $-1 $322 $323 $31 $-1 $324 reversed single #
loop $-1 $-1 $139 $133 #
plane-surface $-1 -74.652183443154001 -50.771103229549198 0 1 0 0 0 0 -1 forward_v I I I I #
coedge $-1 $325 $326 $327 $328 forward $134 $-1 #
coedge $-1 $329 $136 $330 $331 forward $85 $-1 #
coedge $-1 $136 $329 $227 $332 forward $85 $-1 #
edge $-1 $229 -74.652183443154001 $333 -67.388837249620479 $136 $334 forward 7 unknown #
coedge $-1 $138 $137 $335 $336 forward $54 $-1 #
coedge $-1 $337 $338 $137 $226 forward $339 $-1 #
edge $-1 $340 67.388837249620479 $230 74.652183443154001 $225 $341 forward 7 unknown #
coedge $-1 $327 $139 $222 $332 reversed $218 $-1 #
coedge $-1 $139 $327 $337 $342 reversed $218 $-1 #
vertex $-1 $223 $343 #
vertex $-1 $342 $344 #
straight-curve $-1 -74.652183443154001 -45.496593284645023 0 0 0 1 I I #
face $-1 $-1 $345 $32 $-1 $346 reversed single #
loop $-1 $-1 $238 $141 #
plane-surface $-1 0 0 14.569823368442812 0 0 1 1 0 0 forward_v I I I I #
coedge $-1 $240 $347 $348 $349 forward $142 $-1 #
coedge $-1 $348 $144 $146 $242 forward $89 $-1 #
coedge $-1 $144 $348 $350 $351 reversed $89 $-1 #
coedge $-1 $352 $147 $144 $239 forward $233 $-1 #
edge $-1 $245 12.965407562194155 $353 26.009259669031959 $238 $354 forward 7 unknown #
coedge $-1 $355 $235 $145 $241 forward $142 $-1 #
edge $-1 $356 -47.263404107714869 $244 -42.201336525339094 $240 $357 forward 7 unknown #
edge $-1 $245 -6.9215039371034273 $356 2.1384085966062714e-014 $146 $358 forward 7 unknown #
coedge $-1 $147 $352 $355 $359 forward $233 $-1 #
vertex $-1 $241 $360 #
vertex $-1 $148 $361 #
straight-curve $-1 -93.917636394590133 32.452741177807212 14.569823368442812 1 0 0 I I #
coedge $-1 $247 $247 $-1 $362 reversed $151 $-1 #
edge $-1 $363 0 $363 6.2831853071796004 $152 $364 forward 7 unknown #
vertex $-1 $155 $365 #
ellipse-curve $-1 -73.911631745948455 35.061511599174786 12.038789577254926 -0.73135370988377701 0 0.68199835119979291 0.68199835119979291 0 0.73135370988377701 1 I I #
coedge $-1 $251 $251 $-1 $366 reversed $158 $-1 #
edge $-1 $367 0 $367 6.2831853071796004 $159 $368 forward 7 unknown #
vertex $-1 $162 $369 #
ellipse-curve $-1 -73.911631745948455 38.974667231226128 12.038789577254926 -0.73135370988377701 0 0.68199835119979291 0.68199835119979291 0 0.73135370988377701 1 I I #
coedge $-1 $255 $255 $-1 $370 reversed $165 $-1 #
edge $-1 $371 0 $371 6.2831853071796004 $166 $372 forward 7 unknown #
vertex $-1 $169 $373 #
ellipse-curve $-1 -73.911631745948455 42.887822863277471 12.038789577254926 -0.73135370988377701 0 0.68199835119979291 0.68199835119979291 0 0.73135370988377701 1 I I #
face $-1 $-1 $374 $36 $-1 $375 reversed single #
loop $-1 $-1 $176 $170 #
plane-surface $-1 0 0 14.569823368442812 0 0 1 1 0 0 forward_v I I I I #
coedge $-1 $376 $377 $378 $379 reversed $171 $-1 #
coedge $-1 $380 $173 $175 $269 forward $108 $-1 #
coedge $-1 $173 $380 $376 $381 forward $108 $-1 #
coedge $-1 $378 $176 $173 $266 forward $260 $-1 #
edge $-1 $272 5.4645174755201786 $382 21.476876438051061 $265 $383 forward 7 unknown #
coedge $-1 $384 $385 $174 $268 forward $374 $-1 #
edge $-1 $386 -104.77495104768659 $271 -93.107205326426353 $267 $387 forward 7 unknown #
edge $-1 $272 138.30003042161337 $386 152.54371776482435 $175 $388 forward 7 unknown #
coedge $-1 $176 $378 $384 $389 forward $260 $-1 #
vertex $-1 $177 $390 #
vertex $-1 $177 $391 #
straight-curve $-1 56.866439061191443 -18.935214432305798 14.569823368442812 -1 0 0 I I #
coedge $-1 $274 $274 $-1 $392 reversed $180 $-1 #
edge $-1 $393 0 $393 6.2831853071796004 $181 $394 forward 7 unknown #
vertex $-1 $184 $395 #
ellipse-curve $-1 72.186937251732971 -26.94139391357124 8.7359505078127082 0.81915205242281985 0 0.57357642473473569 0.86036463710210354 0 -1.2287280786342298 1 I I #
face $-1 $-1 $290 $38 $-1 $396 forward single #
loop $-1 $-1 $397 $185 #
plane-surface $-1 76.271858882412175 0 0 -1 0 0 0 0 1 forward_v I I I I #
coedge $-1 $398 $399 $400 $401 reversed $186 $-1 #
coedge $-1 $402 $188 $190 $288 forward $117 $-1 #
coedge $-1 $188 $402 $398 $403 forward $117 $-1 #
coedge $-1 $400 $191 $188 $285 forward $290 $-1 #
edge $-1 $292 -14.646524194350246 $404 1.3658347681806386 $284 $405 forward 7 unknown #
coedge $-1 $406 $407 $189 $287 forward $279 $-1 #
edge $-1 $408 -104.77495104768659 $291 -93.107205326426353 $286 $409 forward 7 unknown #
edge $-1 $292 138.30003042161337 $408 152.54371776482435 $190 $410 forward 7 unknown #
coedge $-1 $191 $400 $406 $411 forward $290 $-1 #
loop $-1 $-1 $400 $278 #
vertex $-1 $287 $412 #
vertex $-1 $192 $413 #
straight-curve $-1 56.866439061191443 21.28686890743505 14.569823368442812 -1 0 0 I I #
coedge $-1 $294 $294 $-1 $414 reversed $195 $-1 #
edge $-1 $415 0 $415 6.2831853071796004 $196 $416 forward 7 unknown #
vertex $-1 $199 $417 #
ellipse-curve $-1 72.186937251732971 13.280689426169609 8.7359505078127082 0.81915205242281985 0 0.57357642473473569 0.86036463710210354 0 -1.2287280786342298 1 I I #
face $-1 $-1 $310 $30 $-1 $418 reversed single #
loop $-1 $-1 $419 $200 #
plane-surface $-1 0 45.496593284645023 0 0 -1 0 0 0 -1 forward_v I I I I #
coedge $-1 $316 $315 $420 $421 forward $201 $-1 #
coedge $-1 $203 $213 $422 $423 forward $126 $-1 #
coedge $-1 $309 $209 $203 $304 reversed $310 $-1 #
edge $-1 $424 -45.496593284645023 $214 45.496593284645023 $303 $425 forward 7 unknown #
coedge $-1 $205 $204 $315 $426 forward $81 $-1 #
coedge $-1 $419 $420 $204 $307 reversed $299 $-1 #
edge $-1 $312 -76.271858882412175 $427 76.271858882412175 $306 $428 forward 7 unknown #
edge $-1 $317 -76.271858882412175 $311 76.271858882412175 $208 $429 forward 7 unknown #
coedge $-1 $206 $303 $419 $430 reversed $310 $-1 #
loop $-1 $-1 $209 $298 #
vertex $-1 $207 $431 #
vertex $-1 $207 $432 #
straight-curve $-1 76.271858882412175 0 14.569823368442812 0 1 0 I I #
straight-curve $-1 76.271858882412175 -45.496593284645023 0 0 0 -1 I I #
coedge $-1 $301 $211 $305 $426 reversed $201 $-1 #
coedge $-1 $211 $301 $213 $319 reversed $201 $-1 #
vertex $-1 $426 $433 #
straight-curve $-1 -76.271858882412175 -45.496593284645023 0 0 0 -1 I I #
edge $-1 $215 -45.496593284645023 $434 45.496593284645023 $316 $435 forward 7 unknown #
point $-1 76.271858882412175 -45.496593284645023 -14.569823368442812 #
point $-1 -76.271858882412175 -45.496593284645023 -14.569823368442812 #
face $-1 $-1 $339 $31 $-1 $436 forward single #
loop $-1 $-1 $437 $217 #
plane-surface $-1 -67.388837249620479 -50.771103229549198 0 -1 0 0 0 0 1 forward_v I I I I #
coedge $-1 $438 $220 $329 $439 reversed $134 $-1 #
coedge $-1 $220 $438 $440 $441 reversed $134 $-1 #
coedge $-1 $228 $227 $220 $328 reversed $218 $-1 #
edge $-1 $442 -14.569823368442812 $443 14.569823368442812 $327 $444 forward 7 unknown #
coedge $-1 $222 $221 $325 $439 forward $85 $-1 #
coedge $-1 $335 $437 $221 $331 reversed $323 $-1 #
edge $-1 $333 -5.2745099449041675 $445 5.2745099449041675 $330 $446 forward 7 unknown #
edge $-1 $443 -5.2745099449041675 $229 5.2745099449041675 $227 $447 forward 7 unknown #
vertex $-1 $331 $448 #
straight-curve $-1 0 -45.496593284645023 -14.569823368442812 1 0 0 I I #
coedge $-1 $449 $330 $224 $336 reversed $323 $-1 #
edge $-1 $340 -14.569823368442812 $333 14.569823368442812 $335 $450 forward 7 unknown #
coedge $-1 $440 $225 $228 $342 forward $339 $-1 #
coedge $-1 $225 $440 $449 $451 forward $339 $-1 #
loop $-1 $-1 $225 $322 #
vertex $-1 $226 $452 #
straight-curve $-1 0 -45.496593284645023 14.569823368442812 -1 0 0 I I #
edge $-1 $230 -5.2745099449041675 $442 5.2745099449041675 $228 $453 forward 7 unknown #
point $-1 -74.652183443154001 -45.49659328464503 -14.569823368442812 #
point $-1 -74.652183443154001 -45.49659328464503 14.569823368442812 #
loop $-1 $-1 $350 $232 #
plane-surface $-1 0 45.496593284645023 0 0 -1 0 0 0 -1 forward_v I I I I #
coedge $-1 $235 $355 $454 $455 forward $142 $-1 #
coedge $-1 $237 $236 $235 $349 reversed $89 $-1 #
edge $-1 $456 -26.009259669031959 $356 -12.965407562194155 $235 $457 forward 7 unknown #
coedge $-1 $454 $458 $237 $351 forward $345 $-1 #
edge $-1 $353 15.610370829866216 $456 22.531874766969665 $350 $459 forward 7 unknown #
coedge $-1 $243 $238 $458 $460 forward $233 $-1 #
vertex $-1 $460 $461 #
straight-curve $-1 -71.551404609484749 19.487333615613057 14.56982336844281 0 1 0 I I #
coedge $-1 $347 $240 $243 $359 reversed $142 $-1 #
vertex $-1 $241 $462 #
straight-curve $-1 -76.271858882412175 32.452741177807212 56.771159893781906 0 0 1 I I #
straight-curve $-1 -76.271858882412161 32.452741177807212 9.507755786067051 -0.68199835119979291 0 -0.73135370988377701 I I #
edge $-1 $463 -45.496593284645023 $244 -32.452741177807212 $355 $464 forward 7 unknown #
point $-1 -76.271858882412175 32.452741177807212 14.569823368442812 #
point $-1 -71.551404609484749 32.452741177807212 14.569823368442812 #
edge $-1 $465 1 $465 0 $247 $-1 forward 7 unknown #
vertex $-1 $248 $466 #
ellipse-curve $-1 -71.342642193840788 35.061511599174786 9.6431681219875962 -0.73135370988377701 0 0.68199835119979291 0.68199835119979291 0 0.73135370988377701 1 I I #
point $-1 -73.229633394748689 35.061511599174786 12.770143287138714 #
edge $-1 $467 1 $467 0 $251 $-1 forward 7 unknown #
vertex $-1 $252 $468 #
ellipse-curve $-1 -71.342642193840788 38.974667231226128 9.6431681219875962 -0.73135370988377701 0 0.68199835119979291 0.68199835119979291 0 0.73135370988377701 1 I I #
point $-1 -73.229633394748689 38.974667231226128 12.770143287138714 #
edge $-1 $469 1 $469 0 $255 $-1 forward 7 unknown #
vertex $-1 $256 $470 #
ellipse-curve $-1 -71.342642193840788 42.887822863277471 9.6431681219875962 -0.73135370988377701 0 0.68199835119979291 0.68199835119979291 0 0.73135370988377701 1 I I #
point $-1 -73.229633394748689 42.887822863277471 12.770143287138714 #
loop $-1 $-1 $267 $259 #
plane-surface $-1 76.271858882412175 0 0 -1 0 0 0 0 1 forward_v I I I I #
coedge $-1 $377 $262 $264 $381 reversed $171 $-1 #
coedge $-1 $262 $376 $471 $472 reversed $171 $-1 #
coedge $-1 $270 $265 $262 $379 forward $260 $-1 #
edge $-1 $382 11.23557655986238 $473 19.405419821220733 $378 $474 forward 7 unknown #
coedge $-1 $264 $263 $385 $475 reversed $108 $-1 #
edge $-1 $476 -152.54371776482435 $382 -138.30003042161337 $376 $477 forward 7 unknown #
vertex $-1 $266 $478 #
straight-curve $-1 68.102015621053809 -13.47069695678562 14.569823368442812 0 -1 0 I I #
coedge $-1 $471 $267 $270 $389 reversed $374 $-1 #
coedge $-1 $267 $471 $380 $475 forward $374 $-1 #
vertex $-1 $268 $479 #
straight-curve $-1 76.271858882412175 -18.935214432305798 107.67702869486916 0 0 1 I I #
straight-curve $-1 -11.223621368880345 -18.935214432305798 127.8585771384458 0.57357642473473569 0 -0.81915205242281985 I I #
edge $-1 $473 -34.947573394836681 $271 -18.935214432305798 $384 $480 forward 7 unknown #
point $-1 76.271858882412175 -18.935214432305798 14.569823368442812 #
point $-1 68.102015621053823 -18.935214432305798 14.569823368442798 #
edge $-1 $481 1 $481 0 $274 $-1 forward 7 unknown #
vertex $-1 $275 $482 #
ellipse-curve $-1 69.452438855475606 -26.94139391357124 6.8212341753208863 0.81915205242281985 0 0.57357642473473569 0.86036463710210354 0 -1.2287280786342298 1 I I #
point $-1 73.047301888835079 -26.94139391357124 7.5072224291784808 #
plane-surface $-1 0 0 14.569823368442812 0 0 1 1 0 0 forward_v I I I I #
coedge $-1 $407 $406 $399 $483 forward $279 $-1 #
coedge $-1 $399 $281 $283 $403 reversed $186 $-1 #
coedge $-1 $281 $398 $397 $483 reversed $186 $-1 #
coedge $-1 $289 $284 $281 $401 forward $290 $-1 #
edge $-1 $404 11.23557655986238 $484 19.405419821220733 $400 $485 forward 7 unknown #
coedge $-1 $283 $282 $407 $486 reversed $117 $-1 #
edge $-1 $487 -152.54371776482435 $404 -138.30003042161337 $398 $488 forward 7 unknown #
vertex $-1 $285 $489 #
straight-curve $-1 68.102015621053809 6.6403447130848043 14.569823368442812 0 -1 0 I I #
coedge $-1 $397 $286 $289 $411 reversed $279 $-1 #
coedge $-1 $286 $397 $402 $486 forward $279 $-1 #
vertex $-1 $287 $490 #
straight-curve $-1 76.271858882412175 21.28686890743505 107.67702869486916 0 0 1 I I #
straight-curve $-1 -11.223621368880345 21.28686890743505 127.8585771384458 0.57357642473473569 0 -0.81915205242281985 I I #
edge $-1 $484 5.2745099449041657 $291 21.28686890743505 $406 $491 forward 7 unknown #
point $-1 76.271858882412175 21.28686890743505 14.569823368442812 #
point $-1 68.102015621053823 21.28686890743505 14.569823368442798 #
edge $-1 $492 1 $492 0 $294 $-1 forward 7 unknown #
vertex $-1 $295 $493 #
ellipse-curve $-1 69.452438855475606 13.280689426169609 6.8212341753208863 0.81915205242281985 0 0.57357642473473569 0.86036463710210354 0 -1.2287280786342298 1 I I #
point $-1 73.047301888835079 13.280689426169609 7.5072224291784808 #
plane-surface $-1 76.271858882412175 0 0 -1 0 0 0 0 1 forward_v I I I I #
coedge $-1 $422 $306 $309 $430 forward $299 $-1 #
coedge $-1 $306 $422 $301 $421 reversed $299 $-1 #
edge $-1 $427 -14.569823368442812 $434 14.569823368442812 $420 $494 forward 7 unknown #
coedge $-1 $420 $419 $302 $423 reversed $299 $-1 #
edge $-1 $434 -76.271858882412175 $424 76.271858882412175 $422 $495 forward 7 unknown #
vertex $-1 $304 $496 #
straight-curve $-1 76.271858882412175 0 -14.569823368442812 0 -1 0 I I #
edge $-1 $427 -45.496593284645023 $317 45.496593284645023 $315 $497 forward 7 unknown #
vertex $-1 $307 $498 #
straight-curve $-1 0 45.496593284645023 14.569823368442812 -1 0 0 I I #
straight-curve $-1 0 -45.496593284645023 14.569823368442812 1 0 0 I I #
edge $-1 $312 -14.569823368442812 $424 14.569823368442812 $309 $499 forward 7 unknown #
point $-1 76.271858882412175 -45.496593284645023 14.569823368442812 #
point $-1 76.271858882412175 45.496593284645023 14.569823368442812 #
point $-1 -76.271858882412175 -45.496593284645023 14.569823368442812 #
vertex $-1 $423 $500 #
straight-curve $-1 -76.271858882412175 0 -14.569823368442812 0 1 0 I I #
plane-surface $-1 0 0 14.569823368442812 0 0 1 1 0 0 forward_v I I I I #
coedge $-1 $330 $449 $438 $501 forward $323 $-1 #
coedge $-1 $326 $325 $437 $501 reversed $134 $-1 #
edge $-1 $445 -3.631673096766761 $443 3.631673096766761 $325 $502 forward 7 unknown #
coedge $-1 $338 $337 $326 $441 forward $339 $-1 #
edge $-1 $442 -3.631673096766761 $503 3.631673096766761 $326 $504 forward 7 unknown #
vertex $-1 $342 $505 #
vertex $-1 $332 $506 #
straight-curve $-1 -74.652183443154001 -56.045613174453365 0 0 0 -1 I I #
vertex $-1 $501 $507 #
straight-curve $-1 -67.388837249620479 -50.771103229549198 -14.569823368442812 0 -1 0 I I #
straight-curve $-1 -74.652183443154001 -50.771103229549198 -14.569823368442812 0 1 0 I I #
point $-1 -67.388837249620479 -45.49659328464503 -14.569823368442812 #
coedge $-1 $437 $335 $338 $451 reversed $323 $-1 #
straight-curve $-1 -67.388837249620479 -45.496593284645023 0 0 0 -1 I I #
edge $-1 $503 -5.2745099449041675 $340 5.2745099449041675 $449 $508 forward 7 unknown #
point $-1 -67.388837249620479 -45.49659328464503 14.569823368442812 #
straight-curve $-1 -74.652183443154001 -50.771103229549198 14.569823368442812 0 -1 0 I I #
coedge $-1 $458 $350 $347 $455 reversed $345 $-1 #
edge $-1 $463 -14.569823368442812 $456 -9.507755786067035 $454 $509 forward 7 unknown #
vertex $-1 $351 $510 #
straight-curve $-1 -76.271858882412175 19.487333615613057 9.5077557860670439 0 -1 0 I I #
coedge $-1 $350 $454 $352 $460 reversed $345 $-1 #
straight-curve $-1 -60.905157441898645 45.496593284645023 25.986525987526964 -0.68199835119979291 0 -0.73135370988377701 I I #
edge $-1 $353 71.551404609484749 $463 76.271858882412175 $458 $511 forward 7 unknown #
point $-1 -71.551404609484749 45.496593284645016 14.569823368442812 #
point $-1 -76.271858882412175 32.452741177807212 9.507755786067035 #
vertex $-1 $460 $512 #
straight-curve $-1 -76.271858882412175 0 14.569823368442812 0 -1 0 I I #
vertex $-1 $362 $513 #
point $-1 -70.660643842640994 35.061511599174786 10.374521831871373 #
vertex $-1 $366 $514 #
point $-1 -70.660643842640994 38.974667231226128 10.374521831871373 #
vertex $-1 $370 $515 #
point $-1 -70.660643842640994 42.887822863277471 10.374521831871373 #
coedge $-1 $385 $384 $377 $472 forward $374 $-1 #
edge $-1 $473 93.107205326426353 $476 104.77495104768659 $471 $516 forward 7 unknown #
vertex $-1 $389 $517 #
straight-curve $-1 56.866439061191443 -34.947573394836681 14.569823368442812 1 0 0 I I #
edge $-1 $476 -21.476876438051061 $386 -5.4645174755201786 $385 $518 forward 7 unknown #
vertex $-1 $475 $519 #
straight-curve $-1 -11.223621368880345 -34.947573394836681 127.8585771384458 -0.57357642473473569 0 0.81915205242281985 I I #
point $-1 68.102015621053823 -34.947573394836681 14.569823368442798 #
point $-1 76.271858882412175 -18.935214432305798 2.9020776471825798 #
straight-curve $-1 76.271858882412175 0 14.569823368442812 0 1 0 I I #
vertex $-1 $392 $520 #
point $-1 70.312803492577714 -26.94139391357124 5.5925060966866571 #
edge $-1 $484 93.107205326426353 $487 104.77495104768659 $397 $521 forward 7 unknown #
vertex $-1 $411 $522 #
straight-curve $-1 56.866439061191443 5.2745099449041657 14.569823368442812 1 0 0 I I #
edge $-1 $487 -1.3658347681806386 $408 14.646524194350246 $407 $523 forward 7 unknown #
vertex $-1 $486 $524 #
straight-curve $-1 -11.223621368880345 5.2745099449041657 127.8585771384458 -0.57357642473473569 0 0.81915205242281985 I I #
point $-1 68.102015621053823 5.2745099449041657 14.569823368442798 #
point $-1 76.271858882412175 21.28686890743505 2.9020776471825798 #
straight-curve $-1 76.271858882412175 0 14.569823368442812 0 1 0 I I #
vertex $-1 $414 $525 #
point $-1 70.312803492577714 13.280689426169609 5.5925060966866571 #
straight-curve $-1 -76.271858882412175 45.496593284645023 0 0 0 -1 I I #
straight-curve $-1 0 45.496593284645023 -14.569823368442812 1 0 0 I I #
point $-1 76.271858882412175 45.496593284645023 -14.569823368442812 #
straight-curve $-1 -76.271858882412175 0 14.569823368442812 0 -1 0 I I #
point $-1 -76.271858882412175 45.496593284645023 14.569823368442812 #
straight-curve $-1 76.271858882412175 45.496593284645023 0 0 0 -1 I I #
point $-1 -76.271858882412175 45.496593284645023 -14.569823368442812 #
edge $-1 $503 -14.569823368442812 $445 14.569823368442812 $437 $526 forward 7 unknown #
straight-curve $-1 -71.02051034638724 -56.045613174453365 -14.569823368442812 -1 0 0 I I #
vertex $-1 $451 $527 #
straight-curve $-1 -71.02051034638724 -56.045613174453365 14.569823368442812 1 0 0 I I #
point $-1 -74.652183443154001 -56.045613174453365 14.569823368442812 #
point $-1 -74.652183443154001 -56.045613174453365 -14.569823368442812 #
point $-1 -67.388837249620479 -56.045613174453365 -14.569823368442812 #
straight-curve $-1 -67.388837249620479 -50.771103229549198 14.569823368442812 0 1 0 I I #
straight-curve $-1 -76.271858882412175 45.496593284645023 0 0 0 -1 I I #
point $-1 -76.271858882412175 45.496593284645016 9.507755786067035 #
straight-curve $-1 0 45.496593284645023 14.569823368442812 -1 0 0 I I #
point $-1 -76.271858882412175 45.496593284645023 14.569823368442812 #
point $-1 -70.611288483956997 35.061511599174786 8.9611697707878015 #
point $-1 -70.611288483956997 38.974667231226128 8.9611697707878015 #
point $-1 -70.611288483956997 42.887822863277471 8.9611697707878015 #
straight-curve $-1 76.271858882412175 -34.947573394836681 107.67702869486916 0 0 -1 I I #
point $-1 76.271858882412175 -34.947573394836681 14.569823368442812 #
straight-curve $-1 76.271858882412175 -13.47069695678562 2.9020776471825869 0 1 0 I I #
point $-1 76.271858882412175 -34.947573394836681 2.9020776471825798 #
point $-1 68.223710776841386 -26.94139391357124 5.9608695382187831 #
straight-curve $-1 76.271858882412175 5.2745099449041657 107.67702869486916 0 0 -1 I I #
point $-1 76.271858882412175 5.2745099449041657 14.569823368442812 #
straight-curve $-1 76.271858882412175 6.6403447130848043 2.9020776471825869 0 1 0 I I #
point $-1 76.271858882412175 5.2745099449041657 2.9020776471825798 #
point $-1 68.223710776841386 13.280689426169609 5.9608695382187831 #
straight-curve $-1 -67.388837249620479 -56.045613174453365 0 0 0 -1 I I #
point $-1 -67.388837249620479 -56.045613174453365 14.569823368442812 #
End-of-ACIS-data 