500 0 12 0           
7 Unknown 11 ACIS 5.0 NT 24 Fri Mar 26 02:31:47 1999 
-1 9.9999999999999995e-007 1e-010 
body $-1 $12 $-1 $13 #
body $-1 $14 $-1 $15 #
body $-1 $16 $-1 $17 #
body $-1 $18 $-1 $19 #
body $-1 $20 $-1 $21 #
body $-1 $22 $-1 $23 #
body $-1 $24 $-1 $25 #
body $-1 $26 $-1 $27 #
body $-1 $28 $-1 $29 #
body $-1 $30 $-1 $31 #
body $-1 $32 $-1 $33 #
body $-1 $34 $-1 $35 #
lump $-1 $-1 $36 $0 #
transform $-1 1 0 0 0 1 0 0 0 1 46.023133030182805 25.601991767557788 12.511980204747562 1 rotate no_reflect no_shear #
lump $-1 $-1 $37 $1 #
transform $-1 1 0 0 0 1 0 0 0 1 46.023133030182805 25.601991767557788 12.511980204747562 1 rotate no_reflect no_shear #
lump $-1 $-1 $38 $2 #
transform $-1 1 0 0 0 1 0 0 0 1 46.023133030182805 25.601991767557788 12.511980204747562 1 rotate no_reflect no_shear #
lump $-1 $-1 $39 $3 #
transform $-1 1 0 0 0 1 0 0 0 1 46.023133030182805 25.601991767557788 12.511980204747562 1 rotate no_reflect no_shear #
lump $-1 $-1 $40 $4 #
transform $-1 1 0 0 0 1 0 0 0 1 46.023133030182805 25.601991767557788 12.511980204747562 1 rotate no_reflect no_shear #
lump $-1 $-1 $41 $5 #
transform $-1 1 0 0 0 1 0 0 0 1 46.023133030182805 25.601991767557788 12.511980204747562 1 rotate no_reflect no_shear #
lump $-1 $-1 $42 $6 #
transform $-1 1 0 0 0 1 0 0 0 1 46.023133030182805 25.601991767557788 12.511980204747562 1 rotate no_reflect no_shear #
lump $-1 $-1 $43 $7 #
transform $-1 1 0 0 0 1 0 0 0 1 46.023133030182805 25.601991767557788 12.511980204747562 1 rotate no_reflect no_shear #
lump $-1 $-1 $44 $8 #
transform $-1 1 0 0 0 1 0 0 0 1 46.023133030182805 25.601991767557788 12.511980204747562 1 rotate no_reflect no_shear #
lump $-1 $-1 $45 $9 #
transform $-1 1 0 0 0 1 0 0 0 1 46.023133030182805 25.601991767557788 12.511980204747562 1 rotate no_reflect no_shear #
lump $-1 $-1 $46 $10 #
transform $-1 1 0 0 0 1 0 0 0 1 46.023133030182805 25.601991767557788 12.511980204747562 1 rotate no_reflect no_shear #
lump $-1 $-1 $47 $11 #
transform $-1 1 0 0 0 1 0 0 0 1 46.023133030182805 25.601991767557788 12.511980204747562 1 rotate no_reflect no_shear #
shell $-1 $-1 $-1 $48 $-1 $12 #
shell $-1 $-1 $-1 $49 $-1 $14 #
shell $-1 $-1 $-1 $50 $-1 $16 #
shell $-1 $-1 $-1 $51 $-1 $18 #
shell $-1 $-1 $-1 $52 $-1 $20 #
shell $-1 $-1 $-1 $53 $-1 $22 #
shell $-1 $-1 $-1 $54 $-1 $24 #
shell $-1 $-1 $-1 $55 $-1 $26 #
shell $-1 $-1 $-1 $56 $-1 $28 #
shell $-1 $-1 $-1 $57 $-1 $30 #
shell $-1 $-1 $-1 $58 $-1 $32 #
shell $-1 $-1 $-1 $59 $-1 $34 #
face $-1 $60 $61 $36 $-1 $62 forward single #
face $-1 $63 $64 $37 $-1 $65 reversed single #
face $-1 $66 $67 $38 $-1 $68 reversed single #
face $-1 $69 $70 $39 $-1 $71 forward single #
face $-1 $72 $73 $40 $-1 $74 forward single #
face $-1 $75 $76 $41 $-1 $77 reversed single #
face $-1 $78 $79 $42 $-1 $80 forward single #
face $-1 $81 $82 $43 $-1 $83 forward single #
face $-1 $84 $85 $44 $-1 $86 reversed single #
face $-1 $87 $88 $45 $-1 $89 forward single #
face $-1 $90 $91 $46 $-1 $92 reversed single #
face $-1 $93 $94 $47 $-1 $95 forward single #
face $-1 $96 $97 $36 $-1 $98 reversed single #
loop $-1 $-1 $99 $48 #
plane-surface $-1 0 0 12.511980204747562 0 0 1 1 0 0 forward_v I I I I #
face $-1 $100 $101 $37 $-1 $102 reversed single #
loop $-1 $-1 $103 $49 #
plane-surface $-1 0 -21.448970484435648 6.9358686617339025 0 0 1 1 0 0 forward_v I I I I #
face $-1 $104 $105 $38 $-1 $106 reversed single #
loop $-1 $-1 $107 $50 #
plane-surface $-1 -96.155123210866066 -11.446436201054505 82.731190746049066 0 1 0 -0.54463904215088732 0 0.83867056331134215 forward_v I I I I #
face $-1 $108 $109 $39 $-1 $110 forward single #
loop $-1 $111 $112 $51 #
cone-surface $-1 -39.824206155737393 -8.5497572651727047 7.7500397287736948 0.54463904215088732 0 -0.83867056331134215 0.83867056331134215 0 0.54463904215088732 1 I I 0 1 1 forward I I I I #
face $-1 $113 $114 $40 $-1 $115 forward single #
loop $-1 $116 $117 $52 #
cone-surface $-1 -39.824206155737393 -4.204738861350009 7.7500397287736948 0.54463904215088732 0 -0.83867056331134215 0.83867056331134215 0 0.54463904215088732 1 I I 0 1 1 forward I I I I #
face $-1 $118 $119 $41 $-1 $120 reversed single #
loop $-1 $-1 $121 $53 #
plane-surface $-1 -96.155123210866066 10.002534283381143 82.731190746049066 0 1 0 -0.54463904215088732 0 0.83867056331134215 forward_v I I I I #
face $-1 $122 $123 $42 $-1 $124 forward single #
loop $-1 $125 $126 $54 #
cone-surface $-1 -39.824206155737393 12.899213219262943 7.7500397287736948 0.54463904215088732 0 -0.83867056331134215 0.83867056331134215 0 0.54463904215088732 1 I I 0 1 1 forward I I I I #
face $-1 $127 $128 $43 $-1 $129 forward single #
loop $-1 $130 $131 $55 #
cone-surface $-1 -39.824206155737393 17.244231623085643 7.7500397287736948 0.54463904215088732 0 -0.83867056331134215 0.83867056331134215 0 0.54463904215088732 1 I I 0 1 1 forward I I I I #
face $-1 $132 $133 $44 $-1 $134 reversed single #
loop $-1 $-1 $135 $56 #
plane-surface $-1 59.629926516744646 1.162852568414376 135.46291296914362 0 -1 0 -0.77714596973225614 0 -0.62932038083071107 forward_v I I I I #
face $-1 $136 $137 $45 $-1 $138 forward single #
loop $-1 $139 $140 $57 #
cone-surface $-1 42.786569457644475 -2.8196188949625665 8.7706941929229156 -0.77714596973225614 0 -0.62932038083071107 0.62932038083071107 0 -0.77714596973225614 1 I I 0 1 1 forward I I I I #
face $-1 $141 $142 $46 $-1 $143 reversed single #
loop $-1 $-1 $144 $58 #
plane-surface $-1 59.629926516744646 22.611823052850021 135.46291296914362 0 -1 0 -0.77714596973225614 0 -0.62932038083071107 forward_v I I I I #
face $-1 $145 $146 $47 $-1 $147 forward single #
loop $-1 $148 $149 $59 #
cone-surface $-1 42.786569457644475 18.629351589473078 8.7706941929229156 -0.77714596973225614 0 -0.62932038083071107 0.62932038083071107 0 -0.77714596973225614 1 I I 0 1 1 forward I I I I #
face $-1 $150 $151 $36 $-1 $152 reversed single #
loop $-1 $-1 $153 $60 #
plane-surface $-1 0 0 -12.511980204747562 0 0 1 1 0 0 forward_v I I I I #
coedge $-1 $154 $155 $156 $157 forward $61 $-1 #
face $-1 $158 $159 $37 $-1 $160 reversed single #
loop $-1 $-1 $161 $63 #
plane-surface $-1 0 -17.295949201313508 9.7239244332407324 0 -1 0 0 0 -1 forward_v I I I I #
coedge $-1 $162 $163 $164 $165 reversed $64 $-1 #
face $-1 $166 $167 $38 $-1 $168 reversed single #
loop $-1 $-1 $169 $66 #
plane-surface $-1 -46.023133030182812 -6.3772480632613586 5.5346969384965661 -0.54463904215088732 0 0.83867056331134215 0.83867056331134215 0 0.54463904215088732 forward_v I I I I #
coedge $-1 $170 $171 $172 $173 reversed $67 $-1 #
face $-1 $-1 $174 $39 $-1 $175 forward single #
loop $-1 $176 $177 $69 #
cone-surface $-1 -38.724996682303711 -8.5497572651727047 6.0574056042696505 0.54463904215088732 0 -0.83867056331134215 0.41933528165567108 0 0.27231952107544366 1 I I -0.70710678118654746 0.70710678118654746 0.5 forward I I I I #
loop $-1 $-1 $178 $51 #
coedge $-1 $112 $112 $179 $180 reversed $70 $-1 #
face $-1 $-1 $181 $40 $-1 $182 forward single #
loop $-1 $183 $184 $72 #
cone-surface $-1 -38.724996682303711 -4.204738861350009 6.0574056042696505 0.54463904215088732 0 -0.83867056331134215 0.41933528165567108 0 0.27231952107544366 1 I I -0.70710678118654746 0.70710678118654746 0.5 forward I I I I #
loop $-1 $-1 $185 $52 #
coedge $-1 $117 $117 $186 $187 reversed $73 $-1 #
face $-1 $188 $189 $41 $-1 $190 reversed single #
loop $-1 $-1 $191 $75 #
plane-surface $-1 -46.023133030182812 15.07172242117429 5.5346969384965661 -0.54463904215088732 0 0.83867056331134215 0.83867056331134215 0 0.54463904215088732 forward_v I I I I #
coedge $-1 $192 $193 $194 $195 reversed $76 $-1 #
face $-1 $-1 $196 $42 $-1 $197 forward single #
loop $-1 $198 $199 $78 #
cone-surface $-1 -38.724996682303711 12.899213219262943 6.0574056042696505 0.54463904215088732 0 -0.83867056331134215 0.41933528165567108 0 0.27231952107544366 1 I I -0.70710678118654746 0.70710678118654746 0.5 forward I I I I #
loop $-1 $-1 $200 $54 #
coedge $-1 $126 $126 $201 $202 reversed $79 $-1 #
face $-1 $-1 $203 $43 $-1 $204 forward single #
loop $-1 $205 $206 $81 #
cone-surface $-1 -38.724996682303711 17.244231623085643 6.0574056042696505 0.54463904215088732 0 -0.83867056331134215 0.41933528165567108 0 0.27231952107544366 1 I I -0.70710678118654746 0.70710678118654746 0.5 forward I I I I #
loop $-1 $-1 $207 $55 #
coedge $-1 $131 $131 $208 $209 reversed $82 $-1 #
face $-1 $210 $211 $44 $-1 $212 reversed single #
loop $-1 $-1 $213 $84 #
plane-surface $-1 -11.903458180971441 -2.8196188949625665 77.536321757989384 0.77714596973225614 0 0.62932038083071107 0.62932038083071107 0 -0.77714596973225614 forward_v I I I I #
coedge $-1 $214 $215 $216 $217 reversed $85 $-1 #
face $-1 $-1 $218 $45 $-1 $219 forward single #
loop $-1 $220 $221 $87 #
cone-surface $-1 41.796892434267676 -2.8196188949625665 7.9692695629200507 -0.77714596973225614 0 -0.62932038083071107 0.31466019041535553 0 -0.38857298486612807 1 I I -0.70710678118654691 0.70710678118654813 0.5 forward I I I I #
loop $-1 $-1 $222 $57 #
coedge $-1 $140 $140 $223 $224 reversed $88 $-1 #
face $-1 $225 $226 $46 $-1 $227 reversed single #
loop $-1 $-1 $228 $90 #
plane-surface $-1 -11.903458180971441 18.629351589473078 77.536321757989384 0.77714596973225614 0 0.62932038083071107 0.62932038083071107 0 -0.77714596973225614 forward_v I I I I #
coedge $-1 $229 $230 $231 $232 reversed $91 $-1 #
face $-1 $-1 $233 $47 $-1 $234 forward single #
loop $-1 $235 $236 $93 #
cone-surface $-1 41.796892434267676 18.629351589473078 7.9692695629200507 -0.77714596973225614 0 -0.62932038083071107 0.31466019041535553 0 -0.38857298486612807 1 I I -0.70710678118654691 0.70710678118654813 0.5 forward I I I I #
loop $-1 $-1 $237 $59 #
coedge $-1 $149 $149 $238 $239 reversed $94 $-1 #
face $-1 $240 $241 $36 $-1 $242 reversed single #
loop $-1 $-1 $243 $96 #
plane-surface $-1 0 -25.601991767557788 0 0 1 0 0 0 1 forward_v I I I I #
coedge $-1 $244 $245 $246 $247 forward $97 $-1 #
coedge $-1 $248 $99 $249 $250 forward $61 $-1 #
coedge $-1 $99 $248 $251 $252 forward $61 $-1 #
coedge $-1 $253 $254 $99 $157 reversed $255 $-1 #
edge $-1 $256 -25.601991767557788 $257 25.601991767557788 $156 $258 forward 7 unknown #
face $-1 $259 $260 $37 $-1 $261 reversed single #
loop $-1 $-1 $262 $100 #
plane-surface $-1 -46.023133030182805 0 0 1 0 0 0 0 -1 forward_v I I I I #
coedge $-1 $263 $264 $265 $266 reversed $101 $-1 #
coedge $-1 $267 $103 $268 $269 reversed $64 $-1 #
coedge $-1 $103 $267 $263 $270 forward $64 $-1 #
coedge $-1 $265 $271 $103 $165 forward $272 $-1 #
edge $-1 $273 -14.877506525339964 $274 -6.5714639590956843 $164 $275 forward 7 unknown #
face $-1 $276 $277 $38 $-1 $278 forward single #
loop $-1 $-1 $279 $104 #
plane-surface $-1 -96.155123210866066 -1.3080599254682124 82.731190746049066 0 -1 0 0.54463904215088732 0 -0.83867056331134215 forward_v I I I I #
coedge $-1 $280 $281 $282 $283 reversed $105 $-1 #
coedge $-1 $171 $107 $284 $285 reversed $67 $-1 #
coedge $-1 $107 $170 $280 $286 reversed $67 $-1 #
coedge $-1 $282 $287 $107 $173 forward $277 $-1 #
edge $-1 $288 2.0544285752502276 $289 12.79850241942458 $172 $290 forward 7 unknown #
loop $-1 $-1 $179 $108 #
plane-surface $-1 -46.023133030182812 -6.3772480632613586 5.5346969384965661 -0.54463904215088732 0 0.83867056331134215 0.83867056331134215 0 0.54463904215088732 forward_v I I I I #
loop $-1 $-1 $291 $69 #
coedge $-1 $177 $177 $178 $292 reversed $109 $-1 #
coedge $-1 $178 $178 $177 $292 forward $111 $-1 #
coedge $-1 $179 $179 $112 $180 forward $174 $-1 #
edge $-1 $293 0 $293 6.2831853071796004 $179 $294 forward 7 unknown #
loop $-1 $-1 $186 $113 #
plane-surface $-1 -46.023133030182812 -6.3772480632613586 5.5346969384965661 -0.54463904215088732 0 0.83867056331134215 0.83867056331134215 0 0.54463904215088732 forward_v I I I I #
loop $-1 $-1 $295 $72 #
coedge $-1 $184 $184 $185 $296 reversed $114 $-1 #
coedge $-1 $185 $185 $184 $296 forward $116 $-1 #
coedge $-1 $186 $186 $117 $187 forward $181 $-1 #
edge $-1 $297 0 $297 6.2831853071796004 $186 $298 forward 7 unknown #
face $-1 $299 $300 $41 $-1 $301 forward single #
loop $-1 $-1 $302 $118 #
plane-surface $-1 -96.155123210866066 20.140910558967434 82.731190746049066 0 -1 0 0.54463904215088732 0 -0.83867056331134215 forward_v I I I I #
coedge $-1 $303 $304 $305 $306 reversed $119 $-1 #
coedge $-1 $193 $121 $307 $308 reversed $76 $-1 #
coedge $-1 $121 $192 $303 $309 reversed $76 $-1 #
coedge $-1 $305 $310 $121 $195 forward $300 $-1 #
edge $-1 $311 2.0544285752502276 $312 12.79850241942458 $194 $313 forward 7 unknown #
loop $-1 $-1 $201 $122 #
plane-surface $-1 -46.023133030182812 15.07172242117429 5.5346969384965661 -0.54463904215088732 0 0.83867056331134215 0.83867056331134215 0 0.54463904215088732 forward_v I I I I #
loop $-1 $-1 $314 $78 #
coedge $-1 $199 $199 $200 $315 reversed $123 $-1 #
coedge $-1 $200 $200 $199 $315 forward $125 $-1 #
coedge $-1 $201 $201 $126 $202 forward $196 $-1 #
edge $-1 $316 0 $316 6.2831853071796004 $201 $317 forward 7 unknown #
loop $-1 $-1 $208 $127 #
plane-surface $-1 -46.023133030182812 15.07172242117429 5.5346969384965661 -0.54463904215088732 0 0.83867056331134215 0.83867056331134215 0 0.54463904215088732 forward_v I I I I #
loop $-1 $-1 $318 $81 #
coedge $-1 $206 $206 $207 $319 reversed $128 $-1 #
coedge $-1 $207 $207 $206 $319 forward $130 $-1 #
coedge $-1 $208 $208 $131 $209 forward $203 $-1 #
edge $-1 $320 0 $320 6.2831853071796004 $208 $321 forward 7 unknown #
face $-1 $322 $323 $44 $-1 $324 reversed single #
loop $-1 $-1 $325 $132 #
plane-surface $-1 59.629926516744646 -6.8020903583395089 135.46291296914362 0 1 0 0.77714596973225614 0 0.62932038083071107 forward_v I I I I #
coedge $-1 $326 $327 $328 $329 reversed $133 $-1 #
coedge $-1 $215 $135 $330 $331 reversed $85 $-1 #
coedge $-1 $135 $214 $326 $332 reversed $85 $-1 #
coedge $-1 $328 $333 $135 $217 forward $334 $-1 #
edge $-1 $335 -16.208169771810482 $336 -10.937250703755183 $216 $337 forward 7 unknown #
loop $-1 $-1 $223 $136 #
plane-surface $-1 -11.903458180971441 -2.8196188949625665 77.536321757989384 0.77714596973225614 0 0.62932038083071107 0.62932038083071107 0 -0.77714596973225614 forward_v I I I I #
loop $-1 $-1 $338 $87 #
coedge $-1 $221 $221 $222 $339 reversed $137 $-1 #
coedge $-1 $222 $222 $221 $339 forward $139 $-1 #
coedge $-1 $223 $223 $140 $224 forward $218 $-1 #
edge $-1 $340 0 $340 6.2831853071796004 $223 $341 forward 7 unknown #
face $-1 $342 $343 $46 $-1 $344 reversed single #
loop $-1 $-1 $345 $141 #
plane-surface $-1 59.629926516744646 14.646880126096136 135.46291296914362 0 1 0 0.77714596973225614 0 0.62932038083071107 forward_v I I I I #
coedge $-1 $346 $347 $348 $349 reversed $142 $-1 #
coedge $-1 $230 $144 $350 $351 reversed $91 $-1 #
coedge $-1 $144 $229 $346 $352 reversed $91 $-1 #
coedge $-1 $348 $353 $144 $232 forward $354 $-1 #
edge $-1 $355 -16.208169771810482 $356 -10.937250703755183 $231 $357 forward 7 unknown #
loop $-1 $-1 $238 $145 #
plane-surface $-1 -11.903458180971441 18.629351589473078 77.536321757989384 0.77714596973225614 0 0.62932038083071107 0.62932038083071107 0 -0.77714596973225614 forward_v I I I I #
loop $-1 $-1 $358 $93 #
coedge $-1 $236 $236 $237 $359 reversed $146 $-1 #
coedge $-1 $237 $237 $236 $359 forward $148 $-1 #
coedge $-1 $238 $238 $149 $239 forward $233 $-1 #
edge $-1 $360 0 $360 6.2831853071796004 $238 $361 forward 7 unknown #
face $-1 $362 $363 $36 $-1 $364 reversed single #
loop $-1 $-1 $365 $150 #
plane-surface $-1 -46.023133030182805 0 0 1 0 0 0 0 -1 forward_v I I I I #
coedge $-1 $366 $251 $367 $368 forward $151 $-1 #
coedge $-1 $369 $153 $366 $370 forward $97 $-1 #
coedge $-1 $153 $369 $371 $372 forward $97 $-1 #
coedge $-1 $254 $253 $153 $247 reversed $255 $-1 #
edge $-1 $373 -25.601991767557788 $374 25.601991767557788 $246 $375 forward 7 unknown #
coedge $-1 $155 $154 $376 $377 forward $61 $-1 #
coedge $-1 $378 $379 $154 $250 reversed $363 $-1 #
edge $-1 $257 -46.023133030182805 $380 46.023133030182805 $249 $381 forward 7 unknown #
coedge $-1 $243 $382 $155 $252 reversed $151 $-1 #
edge $-1 $383 -46.023133030182805 $256 46.023133030182805 $251 $384 forward 7 unknown #
coedge $-1 $246 $156 $382 $385 forward $255 $-1 #
coedge $-1 $156 $246 $378 $386 reversed $255 $-1 #
loop $-1 $-1 $253 $362 #
vertex $-1 $157 $387 #
vertex $-1 $157 $388 #
straight-curve $-1 46.023133030182805 0 12.511980204747562 0 1 0 I I #
face $-1 $389 $390 $37 $-1 $391 forward single #
loop $-1 $-1 $268 $158 #
plane-surface $-1 0 -25.601991767557788 0 0 1 0 0 0 1 forward_v I I I I #
coedge $-1 $392 $393 $394 $395 forward $159 $-1 #
coedge $-1 $394 $161 $163 $270 reversed $101 $-1 #
coedge $-1 $161 $394 $396 $397 reversed $101 $-1 #
coedge $-1 $398 $164 $161 $266 forward $272 $-1 #
edge $-1 $274 2.0739064451135363 $399 7.6500179881271961 $265 $400 forward 7 unknown #
coedge $-1 $163 $162 $392 $401 reversed $64 $-1 #
coedge $-1 $402 $403 $162 $269 forward $260 $-1 #
edge $-1 $404 -46.023133030182805 $273 46.023133030182805 $268 $405 forward 7 unknown #
edge $-1 $406 -46.023133030182805 $274 46.023133030182805 $263 $407 forward 7 unknown #
coedge $-1 $164 $398 $402 $408 forward $272 $-1 #
loop $-1 $-1 $265 $389 #
vertex $-1 $269 $409 #
vertex $-1 $165 $410 #
straight-curve $-1 46.023133030182805 -10.724485242217824 6.9358686617339025 0 1 0 I I #
face $-1 $-1 $411 $38 $-1 $412 reversed single #
loop $-1 $-1 $172 $166 #
plane-surface $-1 0 0 12.511980204747562 0 0 1 1 0 0 forward_v I I I I #
coedge $-1 $413 $414 $415 $416 reversed $167 $-1 #
coedge $-1 $417 $169 $171 $286 forward $105 $-1 #
coedge $-1 $169 $417 $413 $418 forward $105 $-1 #
coedge $-1 $415 $172 $169 $283 forward $277 $-1 #
edge $-1 $289 -8.2578121694238256 $419 1.8805641061624669 $282 $420 forward 7 unknown #
coedge $-1 $421 $422 $170 $285 forward $411 $-1 #
edge $-1 $423 -35.83089843452796 $288 -28.853615168276971 $284 $424 forward 7 unknown #
edge $-1 $289 -12.810839338098726 $423 -8.3777959833898778e-015 $171 $425 forward 7 unknown #
coedge $-1 $172 $415 $421 $426 forward $277 $-1 #
vertex $-1 $285 $427 #
vertex $-1 $173 $428 #
straight-curve $-1 -48.077561605433033 -11.446436201054505 12.511980204747566 1 0 0 I I #
coedge $-1 $291 $291 $-1 $429 reversed $176 $-1 #
edge $-1 $430 0 $430 6.2831853071796004 $177 $431 forward 7 unknown #
vertex $-1 $180 $432 #
ellipse-curve $-1 -40.651096108095629 -8.5497572651727047 9.0233385716220678 -0.54463904215088732 0 0.83867056331134215 0.83867056331134215 0 0.54463904215088732 1 I I #
coedge $-1 $295 $295 $-1 $433 reversed $183 $-1 #
edge $-1 $434 0 $434 6.2831853071796004 $184 $435 forward 7 unknown #
vertex $-1 $187 $436 #
ellipse-curve $-1 -40.651096108095629 -4.204738861350009 9.0233385716220678 -0.54463904215088732 0 0.83867056331134215 0.83867056331134215 0 0.54463904215088732 1 I I #
face $-1 $-1 $437 $41 $-1 $438 reversed single #
loop $-1 $-1 $194 $188 #
plane-surface $-1 0 0 12.511980204747562 0 0 1 1 0 0 forward_v I I I I #
coedge $-1 $439 $440 $441 $442 reversed $189 $-1 #
coedge $-1 $443 $191 $193 $309 forward $119 $-1 #
coedge $-1 $191 $443 $439 $444 forward $119 $-1 #
coedge $-1 $441 $194 $191 $306 forward $300 $-1 #
edge $-1 $312 2.4666730727939985 $445 12.605049348380289 $305 $446 forward 7 unknown #
coedge $-1 $447 $448 $192 $308 forward $437 $-1 #
edge $-1 $449 -35.83089843452796 $311 -28.853615168276971 $307 $450 forward 7 unknown #
edge $-1 $312 -12.810839338098726 $449 -8.3777959833898778e-015 $193 $451 forward 7 unknown #
coedge $-1 $194 $441 $447 $452 forward $300 $-1 #
vertex $-1 $195 $453 #
vertex $-1 $195 $454 #
straight-curve $-1 -48.077561605433033 10.002534283381143 12.511980204747566 1 0 0 I I #
coedge $-1 $314 $314 $-1 $455 reversed $198 $-1 #
edge $-1 $456 0 $456 6.2831853071796004 $199 $457 forward 7 unknown #
vertex $-1 $202 $458 #
ellipse-curve $-1 -40.651096108095629 12.899213219262943 9.0233385716220678 -0.54463904215088732 0 0.83867056331134215 0.83867056331134215 0 0.54463904215088732 1 I I #
coedge $-1 $318 $318 $-1 $459 reversed $205 $-1 #
edge $-1 $460 0 $460 6.2831853071796004 $206 $461 forward 7 unknown #
vertex $-1 $209 $462 #
ellipse-curve $-1 -40.651096108095629 17.244231623085643 9.0233385716220678 -0.54463904215088732 0 0.83867056331134215 0.83867056331134215 0 0.54463904215088732 1 I I #
face $-1 $-1 $334 $44 $-1 $463 forward single #
loop $-1 $-1 $464 $210 #
plane-surface $-1 46.023133030182805 0 0 -1 0 0 0 0 1 forward_v I I I I #
coedge $-1 $465 $466 $467 $468 reversed $211 $-1 #
coedge $-1 $469 $213 $215 $332 forward $133 $-1 #
coedge $-1 $213 $469 $465 $470 forward $133 $-1 #
coedge $-1 $467 $216 $213 $329 forward $334 $-1 #
edge $-1 $336 -2.5726620158956592 $471 5.3922809108582257 $328 $472 forward 7 unknown #
coedge $-1 $473 $474 $214 $331 forward $323 $-1 #
edge $-1 $475 -61.728519424298526 $335 -55.219476279824249 $330 $476 forward 7 unknown #
edge $-1 $336 83.670692618587651 $475 92.046266060365625 $215 $477 forward 7 unknown #
coedge $-1 $216 $467 $473 $478 forward $334 $-1 #
loop $-1 $-1 $467 $322 #
vertex $-1 $331 $479 #
vertex $-1 $217 $480 #
straight-curve $-1 29.814963258372323 1.162852568414376 12.511980204747559 -1 0 0 I I #
coedge $-1 $338 $338 $-1 $481 reversed $220 $-1 #
edge $-1 $482 0 $482 6.2831853071796004 $221 $483 forward 7 unknown #
vertex $-1 $224 $484 #
ellipse-curve $-1 43.387673496155152 -2.8196188949625665 9.2574586325104296 0.77714596973225614 0 0.62932038083071107 0.62932038083071107 0 -0.77714596973225614 1 I I #
face $-1 $-1 $354 $46 $-1 $485 forward single #
loop $-1 $-1 $486 $225 #
plane-surface $-1 46.023133030182805 0 0 -1 0 0 0 0 1 forward_v I I I I #
coedge $-1 $487 $488 $489 $490 reversed $226 $-1 #
coedge $-1 $491 $228 $230 $352 forward $142 $-1 #
coedge $-1 $228 $491 $487 $492 forward $142 $-1 #
coedge $-1 $489 $231 $228 $349 forward $354 $-1 #
edge $-1 $356 -13.297147258113482 $493 -5.3322043313595966 $348 $494 forward 7 unknown #
coedge $-1 $495 $496 $229 $351 forward $343 $-1 #
edge $-1 $497 -61.728519424298526 $355 -55.219476279824249 $350 $498 forward 7 unknown #
edge $-1 $356 83.670692618587651 $497 92.046266060365625 $230 $499 forward 7 unknown #
coedge $-1 $231 $489 $495 $500 forward $354 $-1 #
loop $-1 $-1 $489 $342 #
vertex $-1 $351 $501 #
vertex $-1 $232 $502 #
straight-curve $-1 29.814963258372323 22.611823052850021 12.511980204747559 -1 0 0 I I #
coedge $-1 $358 $358 $-1 $503 reversed $235 $-1 #
edge $-1 $504 0 $504 6.2831853071796004 $236 $505 forward 7 unknown #
vertex $-1 $239 $506 #
ellipse-curve $-1 43.387673496155152 18.629351589473078 9.2574586325104296 0.77714596973225614 0 0.62932038083071107 0.62932038083071107 0 -0.77714596973225614 1 I I #
face $-1 $-1 $255 $36 $-1 $507 reversed single #
loop $-1 $-1 $378 $240 #
plane-surface $-1 0 25.601991767557788 0 0 -1 0 0 0 -1 forward_v I I I I #
coedge $-1 $508 $376 $379 $509 forward $241 $-1 #
coedge $-1 $382 $243 $244 $370 reversed $151 $-1 #
coedge $-1 $376 $508 $243 $368 reversed $241 $-1 #
edge $-1 $383 -12.511980204747562 $510 12.511980204747562 $367 $511 forward 7 unknown #
coedge $-1 $245 $244 $508 $512 forward $97 $-1 #
edge $-1 $374 -46.023133030182805 $510 46.023133030182805 $366 $513 forward 7 unknown #
coedge $-1 $379 $378 $245 $372 reversed $363 $-1 #
edge $-1 $514 -46.023133030182805 $373 46.023133030182805 $371 $515 forward 7 unknown #
vertex $-1 $247 $516 #
vertex $-1 $385 $517 #
straight-curve $-1 46.023133030182805 0 -12.511980204747562 0 -1 0 I I #
coedge $-1 $365 $367 $248 $377 reversed $241 $-1 #
edge $-1 $380 -25.601991767557788 $383 25.601991767557788 $376 $518 forward 7 unknown #
coedge $-1 $371 $249 $254 $386 forward $363 $-1 #
coedge $-1 $249 $371 $365 $509 reversed $363 $-1 #
vertex $-1 $250 $519 #
straight-curve $-1 0 25.601991767557788 12.511980204747562 -1 0 0 I I #
coedge $-1 $251 $366 $253 $385 reversed $151 $-1 #
vertex $-1 $377 $520 #
straight-curve $-1 0 -25.601991767557788 12.511980204747562 1 0 0 I I #
edge $-1 $256 -12.511980204747562 $374 12.511980204747562 $253 $521 forward 7 unknown #
edge $-1 $257 -12.511980204747562 $373 12.511980204747562 $254 $522 forward 7 unknown #
point $-1 46.023133030182805 -25.601991767557788 12.511980204747562 #
point $-1 46.023133030182805 25.601991767557788 12.511980204747562 #
face $-1 $-1 $272 $37 $-1 $523 reversed single #
loop $-1 $-1 $396 $259 #
plane-surface $-1 0 0 12.511980204747562 0 0 1 1 0 0 forward_v I I I I #
coedge $-1 $524 $262 $267 $401 forward $159 $-1 #
coedge $-1 $262 $524 $525 $526 reversed $159 $-1 #
coedge $-1 $264 $263 $262 $395 reversed $101 $-1 #
edge $-1 $527 -7.6500179881271961 $406 -2.0739064451135363 $262 $528 forward 7 unknown #
coedge $-1 $525 $529 $264 $397 forward $390 $-1 #
edge $-1 $399 -46.023133030182805 $527 46.023133030182805 $396 $530 forward 7 unknown #
coedge $-1 $271 $265 $529 $531 reversed $272 $-1 #
vertex $-1 $266 $532 #
straight-curve $-1 46.023133030182805 -17.295949201313508 4.8619622166203662 0 0 1 I I #
edge $-1 $406 6.5714639590956843 $404 14.877506525339964 $392 $533 forward 7 unknown #
coedge $-1 $534 $268 $271 $408 reversed $260 $-1 #
coedge $-1 $268 $534 $524 $535 forward $260 $-1 #
vertex $-1 $269 $536 #
straight-curve $-1 0 -25.601991767557788 6.9358686617339025 1 0 0 I I #
vertex $-1 $401 $537 #
straight-curve $-1 0 -17.295949201313508 6.9358686617339025 1 0 0 I I #
edge $-1 $538 -12.511980204747562 $273 -6.9358686617339025 $271 $539 forward 7 unknown #
point $-1 46.023133030182805 -25.601991767557788 6.9358686617339025 #
point $-1 46.023133030182805 -17.295949201313508 6.9358686617339025 #
loop $-1 $-1 $284 $276 #
plane-surface $-1 -46.023133030182805 0 0 1 0 0 0 0 -1 forward_v I I I I #
coedge $-1 $414 $279 $281 $418 reversed $167 $-1 #
coedge $-1 $279 $413 $540 $541 reversed $167 $-1 #
coedge $-1 $287 $282 $279 $416 forward $277 $-1 #
edge $-1 $419 -12.79850241942458 $542 -2.0544285752502276 $415 $543 forward 7 unknown #
coedge $-1 $281 $280 $422 $544 reversed $105 $-1 #
edge $-1 $545 8.3777959833898778e-015 $419 12.810839338098726 $413 $546 forward 7 unknown #
vertex $-1 $283 $547 #
straight-curve $-1 -35.279059186008453 -3.1886240316306793 12.511980204747562 0 1 0 I I #
coedge $-1 $540 $284 $287 $426 reversed $411 $-1 #
coedge $-1 $284 $540 $417 $544 forward $411 $-1 #
vertex $-1 $285 $548 #
straight-curve $-1 -46.023133030182805 -11.446436201054505 41.365595373024533 0 0 1 I I #
straight-curve $-1 -46.023133030182812 -11.446436201054505 5.5346969384965661 -0.83867056331134215 0 -0.54463904215088732 I I #
edge $-1 $542 1.3080599254682124 $288 11.446436201054505 $421 $549 forward 7 unknown #
point $-1 -46.023133030182805 -11.446436201054505 12.511980204747562 #
point $-1 -35.279059186008453 -11.446436201054505 12.511980204747562 #
edge $-1 $550 1 $550 0 $291 $-1 forward 7 unknown #
vertex $-1 $292 $551 #
ellipse-curve $-1 -38.997316203379157 -8.5497572651727047 6.4767408859253219 -0.54463904215088732 0 0.83867056331134215 0.83867056331134215 0 0.54463904215088732 1 I I #
point $-1 -39.812425544784283 -8.5497572651727047 9.5679776137729551 #
edge $-1 $552 1 $552 0 $295 $-1 forward 7 unknown #
vertex $-1 $296 $553 #
ellipse-curve $-1 -38.997316203379157 -4.204738861350009 6.4767408859253219 -0.54463904215088732 0 0.83867056331134215 0.83867056331134215 0 0.54463904215088732 1 I I #
point $-1 -39.812425544784283 -4.204738861350009 9.5679776137729551 #
loop $-1 $-1 $307 $299 #
plane-surface $-1 -46.023133030182805 0 0 1 0 0 0 0 -1 forward_v I I I I #
coedge $-1 $440 $302 $304 $444 reversed $189 $-1 #
coedge $-1 $302 $439 $554 $555 reversed $189 $-1 #
coedge $-1 $310 $305 $302 $442 forward $300 $-1 #
edge $-1 $445 -12.79850241942458 $556 -2.0544285752502276 $441 $557 forward 7 unknown #
coedge $-1 $304 $303 $448 $558 reversed $119 $-1 #
edge $-1 $559 8.3777959833898778e-015 $445 12.810839338098726 $439 $560 forward 7 unknown #
vertex $-1 $306 $561 #
straight-curve $-1 -35.279059186008453 7.5358612105871448 12.511980204747562 0 1 0 I I #
coedge $-1 $554 $307 $310 $452 reversed $437 $-1 #
coedge $-1 $307 $554 $443 $558 forward $437 $-1 #
vertex $-1 $308 $562 #
straight-curve $-1 -46.023133030182805 10.002534283381143 41.365595373024533 0 0 1 I I #
straight-curve $-1 -46.023133030182812 10.002534283381143 5.5346969384965661 -0.83867056331134215 0 -0.54463904215088732 I I #
edge $-1 $556 -20.140910558967434 $311 -10.002534283381143 $447 $563 forward 7 unknown #
point $-1 -46.023133030182805 10.002534283381143 12.511980204747562 #
point $-1 -35.279059186008453 10.002534283381143 12.511980204747562 #
edge $-1 $564 1 $564 0 $314 $-1 forward 7 unknown #
vertex $-1 $315 $565 #
ellipse-curve $-1 -38.997316203379157 12.899213219262943 6.4767408859253219 -0.54463904215088732 0 0.83867056331134215 0.83867056331134215 0 0.54463904215088732 1 I I #
point $-1 -39.812425544784283 12.899213219262943 9.5679776137729551 #
edge $-1 $566 1 $566 0 $318 $-1 forward 7 unknown #
vertex $-1 $319 $567 #
ellipse-curve $-1 -38.997316203379157 17.244231623085643 6.4767408859253219 -0.54463904215088732 0 0.83867056331134215 0.83867056331134215 0 0.54463904215088732 1 I I #
point $-1 -39.812425544784283 17.244231623085643 9.5679776137729551 #
plane-surface $-1 0 0 12.511980204747562 0 0 1 1 0 0 forward_v I I I I #
coedge $-1 $474 $473 $466 $568 forward $323 $-1 #
coedge $-1 $466 $325 $327 $470 reversed $211 $-1 #
coedge $-1 $325 $465 $464 $568 reversed $211 $-1 #
coedge $-1 $333 $328 $325 $468 forward $334 $-1 #
edge $-1 $471 10.937250703755183 $569 16.208169771810482 $467 $570 forward 7 unknown #
coedge $-1 $327 $326 $474 $571 reversed $133 $-1 #
edge $-1 $572 -92.046266060365625 $471 -83.670692618587651 $465 $573 forward 7 unknown #
vertex $-1 $329 $574 #
straight-curve $-1 40.752213962127499 -1.4098094474812832 12.511980204747573 0 -1 0 I I #
coedge $-1 $464 $330 $333 $478 reversed $323 $-1 #
coedge $-1 $330 $464 $469 $571 forward $323 $-1 #
vertex $-1 $331 $575 #
straight-curve $-1 46.023133030182805 1.162852568414376 67.731456484571808 0 0 1 I I #
straight-curve $-1 -11.903458180971441 1.162852568414376 77.536321757989384 0.62932038083071107 0 -0.77714596973225614 I I #
edge $-1 $569 -6.8020903583395089 $335 1.162852568414376 $473 $576 forward 7 unknown #
point $-1 46.023133030182805 1.162852568414376 12.511980204747562 #
point $-1 40.752213962127506 1.162852568414376 12.511980204747559 #
edge $-1 $577 1 $577 0 $338 $-1 forward 7 unknown #
vertex $-1 $339 $578 #
ellipse-curve $-1 42.185465419133806 -2.8196188949625665 8.283929753335407 0.77714596973225614 0 0.62932038083071107 0.62932038083071107 0 -0.77714596973225614 1 I I #
point $-1 44.016993876985858 -2.8196188949625665 8.4803126627781698 #
plane-surface $-1 0 0 12.511980204747562 0 0 1 1 0 0 forward_v I I I I #
coedge $-1 $496 $495 $488 $579 forward $343 $-1 #
coedge $-1 $488 $345 $347 $492 reversed $226 $-1 #
coedge $-1 $345 $487 $486 $579 reversed $226 $-1 #
coedge $-1 $353 $348 $345 $490 forward $354 $-1 #
edge $-1 $493 10.937250703755183 $580 16.208169771810482 $489 $581 forward 7 unknown #
coedge $-1 $347 $346 $496 $582 reversed $142 $-1 #
edge $-1 $583 -92.046266060365625 $493 -83.670692618587651 $487 $584 forward 7 unknown #
vertex $-1 $349 $585 #
straight-curve $-1 40.752213962127499 9.3146757947365391 12.511980204747573 0 -1 0 I I #
coedge $-1 $486 $350 $353 $500 reversed $343 $-1 #
coedge $-1 $350 $486 $491 $582 forward $343 $-1 #
vertex $-1 $351 $586 #
straight-curve $-1 46.023133030182805 22.611823052850021 67.731456484571808 0 0 1 I I #
straight-curve $-1 -11.903458180971441 22.611823052850021 77.536321757989384 0.62932038083071107 0 -0.77714596973225614 I I #
edge $-1 $580 14.646880126096136 $355 22.611823052850021 $495 $587 forward 7 unknown #
point $-1 46.023133030182805 22.611823052850021 12.511980204747562 #
point $-1 40.752213962127506 22.611823052850021 12.511980204747559 #
edge $-1 $588 1 $588 0 $358 $-1 forward 7 unknown #
vertex $-1 $359 $589 #
ellipse-curve $-1 42.185465419133806 18.629351589473078 8.283929753335407 0.77714596973225614 0 0.62932038083071107 0.62932038083071107 0 -0.77714596973225614 1 I I #
point $-1 44.016993876985858 18.629351589473078 8.4803126627781698 #
plane-surface $-1 46.023133030182805 0 0 -1 0 0 0 0 1 forward_v I I I I #
coedge $-1 $367 $365 $369 $512 reversed $241 $-1 #
edge $-1 $380 -12.511980204747562 $514 12.511980204747562 $379 $590 forward 7 unknown #
vertex $-1 $512 $591 #
straight-curve $-1 -46.023133030182805 -25.601991767557788 0 0 0 -1 I I #
edge $-1 $510 -25.601991767557788 $514 25.601991767557788 $508 $592 forward 7 unknown #
straight-curve $-1 0 -25.601991767557788 -12.511980204747562 -1 0 0 I I #
vertex $-1 $372 $593 #
straight-curve $-1 0 25.601991767557788 -12.511980204747562 1 0 0 I I #
point $-1 46.023133030182805 25.601991767557788 -12.511980204747562 #
point $-1 46.023133030182805 -25.601991767557788 -12.511980204747562 #
straight-curve $-1 -46.023133030182805 0 12.511980204747562 0 -1 0 I I #
point $-1 -46.023133030182805 25.601991767557788 12.511980204747562 #
point $-1 -46.023133030182805 -25.601991767557788 12.511980204747562 #
straight-curve $-1 46.023133030182805 -25.601991767557788 0 0 0 -1 I I #
straight-curve $-1 46.023133030182805 25.601991767557788 0 0 0 -1 I I #
plane-surface $-1 46.023133030182805 0 0 -1 0 0 0 0 1 forward_v I I I I #
coedge $-1 $393 $392 $403 $535 reversed $159 $-1 #
coedge $-1 $594 $396 $393 $526 forward $390 $-1 #
edge $-1 $527 17.295949201313508 $595 25.601991767557788 $393 $596 forward 7 unknown #
vertex $-1 $526 $597 #
straight-curve $-1 -46.023133030182805 -17.295949201313508 4.8619622166203662 0 0 -1 I I #
coedge $-1 $396 $594 $398 $531 forward $390 $-1 #
straight-curve $-1 0 -17.295949201313508 12.511980204747562 -1 0 0 I I #
edge $-1 $538 -25.601991767557788 $399 -17.295949201313508 $398 $598 forward 7 unknown #
point $-1 46.023133030182805 -17.295949201313508 12.511980204747562 #
straight-curve $-1 -46.023133030182805 -10.724485242217824 6.9358686617339025 0 -1 0 I I #
coedge $-1 $403 $402 $594 $599 reversed $260 $-1 #
edge $-1 $595 -12.511980204747562 $404 -6.9358686617339025 $524 $600 forward 7 unknown #
point $-1 -46.023133030182805 -25.601991767557788 6.9358686617339025 #
point $-1 -46.023133030182805 -17.295949201313508 6.9358686617339025 #
vertex $-1 $531 $601 #
straight-curve $-1 46.023133030182805 -25.601991767557788 0 0 0 -1 I I #
coedge $-1 $422 $421 $414 $541 forward $411 $-1 #
edge $-1 $542 28.853615168276971 $545 35.83089843452796 $540 $602 forward 7 unknown #
vertex $-1 $426 $603 #
straight-curve $-1 -48.077561605433033 -1.3080599254682124 12.511980204747566 -1 0 0 I I #
edge $-1 $545 -1.8805641061624669 $423 8.2578121694238256 $422 $604 forward 7 unknown #
vertex $-1 $544 $605 #
straight-curve $-1 -46.023133030182812 -1.3080599254682124 5.5346969384965661 0.83867056331134215 0 0.54463904215088732 I I #
point $-1 -35.279059186008453 -1.3080599254682124 12.511980204747562 #
point $-1 -46.023133030182805 -11.446436201054505 5.5346969384965705 #
straight-curve $-1 -46.023133030182805 0 12.511980204747562 0 -1 0 I I #
vertex $-1 $429 $606 #
point $-1 -38.15864564006781 -8.5497572651727047 7.0213799280762093 #
vertex $-1 $433 $607 #
point $-1 -38.15864564006781 -4.204738861350009 7.0213799280762093 #
coedge $-1 $448 $447 $440 $555 forward $437 $-1 #
edge $-1 $556 28.853615168276971 $559 35.83089843452796 $554 $608 forward 7 unknown #
vertex $-1 $452 $609 #
straight-curve $-1 -48.077561605433033 20.140910558967434 12.511980204747566 -1 0 0 I I #
edge $-1 $559 -12.605049348380289 $449 -2.4666730727939985 $448 $610 forward 7 unknown #
vertex $-1 $558 $611 #
straight-curve $-1 -46.023133030182812 20.140910558967434 5.5346969384965661 0.83867056331134215 0 0.54463904215088732 I I #
point $-1 -35.279059186008453 20.140910558967434 12.511980204747562 #
point $-1 -46.023133030182805 10.002534283381143 5.5346969384965705 #
straight-curve $-1 -46.023133030182805 0 12.511980204747562 0 -1 0 I I #
vertex $-1 $455 $612 #
point $-1 -38.15864564006781 12.899213219262943 7.0213799280762093 #
vertex $-1 $459 $613 #
point $-1 -38.15864564006781 17.244231623085643 7.0213799280762093 #
edge $-1 $569 55.219476279824249 $572 61.728519424298526 $464 $614 forward 7 unknown #
vertex $-1 $478 $615 #
straight-curve $-1 29.814963258372323 -6.8020903583395089 12.511980204747559 1 0 0 I I #
edge $-1 $572 -5.3922809108582257 $475 2.5726620158956592 $474 $616 forward 7 unknown #
vertex $-1 $571 $617 #
straight-curve $-1 -11.903458180971441 -6.8020903583395089 77.536321757989384 -0.62932038083071107 0 0.77714596973225614 I I #
point $-1 40.752213962127506 -6.8020903583395089 12.511980204747559 #
point $-1 46.023133030182812 1.162852568414376 6.0029370602732826 #
straight-curve $-1 46.023133030182805 0 12.511980204747562 0 1 0 I I #
vertex $-1 $481 $618 #
point $-1 42.814785799964518 -2.8196188949625665 7.5067837836031508 #
edge $-1 $580 55.219476279824249 $583 61.728519424298526 $486 $619 forward 7 unknown #
vertex $-1 $500 $620 #
straight-curve $-1 29.814963258372323 14.646880126096136 12.511980204747559 1 0 0 I I #
edge $-1 $583 5.3322043313595966 $497 13.297147258113482 $496 $621 forward 7 unknown #
vertex $-1 $582 $622 #
straight-curve $-1 -11.903458180971441 14.646880126096136 77.536321757989384 -0.62932038083071107 0 0.77714596973225614 I I #
point $-1 40.752213962127506 14.646880126096136 12.511980204747559 #
point $-1 46.023133030182812 22.611823052850021 6.0029370602732826 #
straight-curve $-1 46.023133030182805 0 12.511980204747562 0 1 0 I I #
vertex $-1 $503 $623 #
point $-1 42.814785799964518 18.629351589473078 7.5067837836031508 #
straight-curve $-1 -46.023133030182805 25.601991767557788 0 0 0 -1 I I #
point $-1 -46.023133030182805 -25.601991767557788 -12.511980204747562 #
straight-curve $-1 -46.023133030182805 0 -12.511980204747562 0 1 0 I I #
point $-1 -46.023133030182805 25.601991767557788 -12.511980204747562 #
coedge $-1 $529 $525 $534 $599 forward $390 $-1 #
vertex $-1 $526 $624 #
straight-curve $-1 -46.023133030182805 0 12.511980204747562 0 -1 0 I I #
point $-1 -46.023133030182805 -17.295949201313508 12.511980204747562 #
straight-curve $-1 46.023133030182805 0 12.511980204747562 0 1 0 I I #
edge $-1 $595 -46.023133030182805 $538 46.023133030182805 $534 $625 forward 7 unknown #
straight-curve $-1 -46.023133030182805 -25.601991767557788 0 0 0 -1 I I #
point $-1 46.023133030182805 -25.601991767557788 12.511980204747562 #
straight-curve $-1 -46.023133030182805 -1.3080599254682124 41.365595373024533 0 0 -1 I I #
point $-1 -46.023133030182805 -1.3080599254682124 12.511980204747562 #
straight-curve $-1 -46.023133030182805 -3.1886240316306793 5.5346969384965661 0 -1 0 I I #
point $-1 -46.023133030182805 -1.3080599254682124 5.5346969384965705 #
point $-1 -38.452677161228266 -8.5497572651727047 5.638070322613979 #
point $-1 -38.452677161228266 -4.204738861350009 5.638070322613979 #
straight-curve $-1 -46.023133030182805 20.140910558967434 41.365595373024533 0 0 -1 I I #
point $-1 -46.023133030182805 20.140910558967434 12.511980204747562 #
straight-curve $-1 -46.023133030182805 7.5358612105871448 5.5346969384965661 0 -1 0 I I #
point $-1 -46.023133030182805 20.140910558967434 5.5346969384965705 #
point $-1 -38.452677161228266 12.899213219262943 5.638070322613979 #
point $-1 -38.452677161228266 17.244231623085643 5.638070322613979 #
straight-curve $-1 46.023133030182805 -6.8020903583395089 67.731456484571808 0 0 -1 I I #
point $-1 46.023133030182805 -6.8020903583395089 12.511980204747562 #
straight-curve $-1 46.023133030182805 -1.4098094474812832 6.0029370602732826 0 1 0 I I #
point $-1 46.023133030182812 -6.8020903583395089 6.0029370602732826 #
point $-1 41.408319449401546 -2.8196188949625665 7.6546093725046944 #
straight-curve $-1 46.023133030182805 14.646880126096136 67.731456484571808 0 0 -1 I I #
point $-1 46.023133030182805 14.646880126096136 12.511980204747562 #
straight-curve $-1 46.023133030182805 9.3146757947365391 6.0029370602732826 0 1 0 I I #
point $-1 46.023133030182812 14.646880126096136 6.0029370602732826 #
point $-1 41.408319449401546 18.629351589473078 7.6546093725046944 #
point $-1 -46.023133030182805 -25.601991767557788 12.511980204747562 #
straight-curve $-1 0 -25.601991767557788 12.511980204747562 1 0 0 I I #
End-of-ACIS-data 