500 0 10 0           
7 Unknown 11 ACIS 5.0 NT 24 Thu Mar 25 15:32:26 1999 
-1 9.9999999999999995e-007 1e-010 
body $-1 $10 $-1 $11 #
body $-1 $12 $-1 $13 #
body $-1 $14 $-1 $15 #
body $-1 $16 $-1 $17 #
body $-1 $18 $-1 $19 #
body $-1 $20 $-1 $21 #
body $-1 $22 $-1 $23 #
body $-1 $24 $-1 $25 #
body $-1 $26 $-1 $27 #
body $-1 $28 $-1 $29 #
lump $-1 $-1 $30 $0 #
transform $-1 1 0 0 0 1 0 0 0 1 67.069917905209508 46.343477226588909 9.9115101796384302 1 rotate no_reflect no_shear #
lump $-1 $-1 $31 $1 #
transform $-1 1 0 0 0 1 0 0 0 1 67.069917905209508 46.343477226588909 9.9115101796384302 1 rotate no_reflect no_shear #
lump $-1 $-1 $32 $2 #
transform $-1 1 0 0 0 1 0 0 0 1 67.069917905209508 46.343477226588909 9.9115101796384302 1 rotate no_reflect no_shear #
lump $-1 $-1 $33 $3 #
transform $-1 1 0 0 0 1 0 0 0 1 67.069917905209508 46.343477226588909 9.9115101796384302 1 rotate no_reflect no_shear #
lump $-1 $-1 $34 $4 #
transform $-1 1 0 0 0 1 0 0 0 1 67.069917905209508 46.343477226588909 9.9115101796384302 1 rotate no_reflect no_shear #
lump $-1 $-1 $35 $5 #
transform $-1 1 0 0 0 1 0 0 0 1 67.069917905209508 46.343477226588909 9.9115101796384302 1 rotate no_reflect no_shear #
lump $-1 $-1 $36 $6 #
transform $-1 1 0 0 0 1 0 0 0 1 67.069917905209508 46.343477226588909 9.9115101796384302 1 rotate no_reflect no_shear #
lump $-1 $-1 $37 $7 #
transform $-1 1 0 0 0 1 0 0 0 1 67.069917905209508 46.343477226588909 9.9115101796384302 1 rotate no_reflect no_shear #
lump $-1 $-1 $38 $8 #
transform $-1 1 0 0 0 1 0 0 0 1 67.069917905209508 46.343477226588909 9.9115101796384302 1 rotate no_reflect no_shear #
lump $-1 $-1 $39 $9 #
transform $-1 1 0 0 0 1 0 0 0 1 67.069917905209508 46.343477226588909 9.9115101796384302 1 rotate no_reflect no_shear #
shell $-1 $-1 $-1 $40 $-1 $10 #
shell $-1 $-1 $-1 $41 $-1 $12 #
shell $-1 $-1 $-1 $42 $-1 $14 #
shell $-1 $-1 $-1 $43 $-1 $16 #
shell $-1 $-1 $-1 $44 $-1 $18 #
shell $-1 $-1 $-1 $45 $-1 $20 #
shell $-1 $-1 $-1 $46 $-1 $22 #
shell $-1 $-1 $-1 $47 $-1 $24 #
shell $-1 $-1 $-1 $48 $-1 $26 #
shell $-1 $-1 $-1 $49 $-1 $28 #
face $-1 $50 $51 $30 $-1 $52 forward single #
face $-1 $53 $54 $31 $-1 $55 reversed single #
face $-1 $56 $57 $32 $-1 $58 forward single #
face $-1 $59 $60 $33 $-1 $61 forward single #
face $-1 $62 $63 $34 $-1 $64 reversed single #
face $-1 $65 $66 $35 $-1 $67 forward single #
face $-1 $68 $69 $36 $-1 $70 forward single #
face $-1 $71 $72 $37 $-1 $73 reversed single #
face $-1 $74 $75 $38 $-1 $76 forward single #
face $-1 $77 $78 $39 $-1 $79 forward single #
face $-1 $80 $81 $30 $-1 $82 reversed single #
loop $-1 $-1 $83 $40 #
plane-surface $-1 0 0 9.9115101796384302 0 0 1 1 0 0 forward_v I I I I #
face $-1 $84 $85 $31 $-1 $86 reversed single #
loop $-1 $-1 $87 $41 #
plane-surface $-1 -147.79728732106457 -3.7791860158786612 113.44172912909477 0 1 0 -0.6018150307709319 0 0.79863550430605224 forward_v I I I I #
face $-1 $88 $89 $32 $-1 $90 forward single #
loop $-1 $91 $92 $42 #
cone-surface $-1 -63.842540016504266 2.4840500005471995 6.9979948835629315 0.6018150307709319 0 -0.79863550430605224 0.79863550430605224 0 0.6018150307709319 1 I I 0 1 1 forward I I I I #
face $-1 $93 $94 $33 $-1 $95 forward single #
loop $-1 $96 $97 $43 #
cone-surface $-1 -63.842540016504266 11.878904025185996 6.9979948835629315 0.6018150307709319 0 -0.79863550430605224 0.79863550430605224 0 0.6018150307709319 1 I I 0 1 1 forward I I I I #
face $-1 $98 $99 $34 $-1 $100 reversed single #
loop $-1 $-1 $101 $44 #
plane-surface $-1 34.128447863275298 3.5527136788005009e-015 190.16021962923244 0 -1 0 -0.57357644374324357 0 -0.81915203911291934 forward_v I I I I #
face $-1 $102 $103 $35 $-1 $104 forward single #
loop $-1 $105 $106 $45 #
cone-surface $-1 62.026121779317485 -9.8169922689940208 6.1241939517105441 -0.57357644374324357 0 -0.81915203911291934 0.81915203911291934 0 -0.57357644374324357 1 I I 0 1 1 forward I I I I #
face $-1 $107 $108 $36 $-1 $109 forward single #
loop $-1 $110 $111 $46 #
cone-surface $-1 62.026121779317485 -3.9267969075976126 6.1241939517105441 -0.57357644374324357 0 -0.81915203911291934 0.81915203911291934 0 -0.57357644374324357 1 I I 0 1 1 forward I I I I #
face $-1 $112 $113 $37 $-1 $114 reversed single #
loop $-1 $-1 $115 $47 #
plane-surface $-1 34.128447863275298 32.599688049997297 190.16021962923244 0 1 0 0.57357644374324357 0 0.81915203911291934 forward_v I I I I #
face $-1 $116 $117 $38 $-1 $118 forward single #
loop $-1 $119 $120 $48 #
cone-surface $-1 62.026121779317485 36.526484957594896 6.1241939517105441 -0.57357644374324357 0 -0.81915203911291934 0.81915203911291934 0 -0.57357644374324357 1 I I 0 1 1 forward I I I I #
face $-1 $121 $122 $39 $-1 $123 forward single #
loop $-1 $124 $125 $49 #
cone-surface $-1 62.026121779317485 42.41668031899129 6.1241939517105441 -0.57357644374324357 0 -0.81915203911291934 0.81915203911291934 0 -0.57357644374324357 1 I I 0 1 1 forward I I I I #
face $-1 $126 $127 $30 $-1 $128 reversed single #
loop $-1 $-1 $129 $50 #
plane-surface $-1 0 0 -9.9115101796384302 0 0 1 1 0 0 forward_v I I I I #
coedge $-1 $130 $131 $132 $133 forward $51 $-1 #
face $-1 $134 $135 $31 $-1 $136 reversed single #
loop $-1 $-1 $137 $53 #
plane-surface $-1 -67.069917905209493 7.1814770128666012 6.3128937091097299 -0.6018150307709319 0 0.79863550430605224 0.79863550430605224 0 0.6018150307709319 forward_v I I I I #
coedge $-1 $138 $139 $140 $141 reversed $54 $-1 #
face $-1 $-1 $142 $32 $-1 $143 forward single #
loop $-1 $144 $145 $56 #
cone-surface $-1 -62.702017241126192 2.4840500005471995 5.4844700705987517 0.6018150307709319 0 -0.79863550430605224 0.39931775215302612 0 0.30090751538546595 1 I I -0.70710678118654746 0.70710678118654746 0.5 forward I I I I #
loop $-1 $-1 $146 $42 #
coedge $-1 $92 $92 $147 $148 reversed $57 $-1 #
face $-1 $-1 $149 $33 $-1 $150 forward single #
loop $-1 $151 $152 $59 #
cone-surface $-1 -62.702017241126192 11.878904025185996 5.4844700705987517 0.6018150307709319 0 -0.79863550430605224 0.39931775215302612 0 0.30090751538546595 1 I I -0.70710678118654746 0.70710678118654746 0.5 forward I I I I #
loop $-1 $-1 $153 $43 #
coedge $-1 $97 $97 $154 $155 reversed $60 $-1 #
face $-1 $156 $157 $34 $-1 $158 reversed single #
loop $-1 $-1 $159 $62 #
plane-surface $-1 -42.811002125167434 -6.8718945882958096 80.279299598855502 0.57357644374324357 0 0.81915203911291934 0.81915203911291934 0 -0.57357644374324357 forward_v I I I I #
coedge $-1 $160 $161 $162 $163 reversed $63 $-1 #
face $-1 $-1 $164 $35 $-1 $165 forward single #
loop $-1 $166 $167 $65 #
cone-surface $-1 61.388189312886112 -9.8169922689940208 5.213131988839006 -0.57357644374324357 0 -0.81915203911291934 0.40957601955645967 0 -0.28678822187162178 1 I I -0.70710678118654746 0.70710678118654746 0.5 forward I I I I #
loop $-1 $-1 $168 $45 #
coedge $-1 $106 $106 $169 $170 reversed $66 $-1 #
face $-1 $-1 $171 $36 $-1 $172 forward single #
loop $-1 $173 $174 $68 #
cone-surface $-1 61.388189312886112 -3.9267969075976126 5.213131988839006 -0.57357644374324357 0 -0.81915203911291934 0.40957601955645967 0 -0.28678822187162178 1 I I -0.70710678118654746 0.70710678118654746 0.5 forward I I I I #
loop $-1 $-1 $175 $46 #
coedge $-1 $111 $111 $176 $177 reversed $69 $-1 #
face $-1 $178 $179 $37 $-1 $180 reversed single #
loop $-1 $-1 $181 $71 #
plane-surface $-1 -42.811002125167434 39.471582638293107 80.279299598855502 0.57357644374324357 0 0.81915203911291934 0.81915203911291934 0 -0.57357644374324357 forward_v I I I I #
coedge $-1 $182 $183 $184 $185 reversed $72 $-1 #
face $-1 $-1 $186 $38 $-1 $187 forward single #
loop $-1 $188 $189 $74 #
cone-surface $-1 61.388189312886112 36.526484957594896 5.213131988839006 -0.57357644374324357 0 -0.81915203911291934 0.40957601955645967 0 -0.28678822187162178 1 I I -0.70710678118654746 0.70710678118654746 0.5 forward I I I I #
loop $-1 $-1 $190 $48 #
coedge $-1 $120 $120 $191 $192 reversed $75 $-1 #
face $-1 $-1 $193 $39 $-1 $194 forward single #
loop $-1 $195 $196 $77 #
cone-surface $-1 61.388189312886112 42.41668031899129 5.213131988839006 -0.57357644374324357 0 -0.81915203911291934 0.40957601955645967 0 -0.28678822187162178 1 I I -0.70710678118654746 0.70710678118654746 0.5 forward I I I I #
loop $-1 $-1 $197 $49 #
coedge $-1 $125 $125 $198 $199 reversed $78 $-1 #
face $-1 $200 $201 $30 $-1 $202 reversed single #
loop $-1 $-1 $203 $80 #
plane-surface $-1 0 -46.343477226588909 0 0 1 0 0 0 1 forward_v I I I I #
coedge $-1 $204 $205 $206 $207 forward $81 $-1 #
coedge $-1 $208 $83 $209 $210 forward $51 $-1 #
coedge $-1 $83 $208 $211 $212 forward $51 $-1 #
coedge $-1 $213 $214 $83 $133 reversed $215 $-1 #
edge $-1 $216 -46.343477226588909 $217 46.343477226588909 $132 $218 forward 7 unknown #
face $-1 $219 $220 $31 $-1 $221 reversed single #
loop $-1 $-1 $222 $84 #
plane-surface $-1 -147.79728732106457 18.142140041611864 113.44172912909477 0 -1 0 0.6018150307709319 0 -0.79863550430605224 forward_v I I I I #
coedge $-1 $223 $224 $225 $226 reversed $85 $-1 #
coedge $-1 $139 $87 $227 $228 reversed $54 $-1 #
coedge $-1 $87 $138 $223 $229 reversed $54 $-1 #
coedge $-1 $225 $230 $87 $141 forward $231 $-1 #
edge $-1 $232 6.8287257553227789 $233 11.604251012748065 $140 $234 forward 7 unknown #
loop $-1 $-1 $147 $88 #
plane-surface $-1 -67.069917905209493 7.1814770128666012 6.3128937091097299 -0.6018150307709319 0 0.79863550430605224 0.79863550430605224 0 0.6018150307709319 forward_v I I I I #
loop $-1 $-1 $235 $56 #
coedge $-1 $145 $145 $146 $236 reversed $89 $-1 #
coedge $-1 $146 $146 $145 $236 forward $91 $-1 #
coedge $-1 $147 $147 $92 $148 forward $142 $-1 #
edge $-1 $237 0 $237 6.2831853071796004 $147 $238 forward 7 unknown #
loop $-1 $-1 $154 $93 #
plane-surface $-1 -67.069917905209493 7.1814770128666012 6.3128937091097299 -0.6018150307709319 0 0.79863550430605224 0.79863550430605224 0 0.6018150307709319 forward_v I I I I #
loop $-1 $-1 $239 $59 #
coedge $-1 $152 $152 $153 $240 reversed $94 $-1 #
coedge $-1 $153 $153 $152 $240 forward $96 $-1 #
coedge $-1 $154 $154 $97 $155 forward $149 $-1 #
edge $-1 $241 0 $241 6.2831853071796004 $154 $242 forward 7 unknown #
face $-1 $243 $244 $34 $-1 $245 forward single #
loop $-1 $-1 $246 $98 #
plane-surface $-1 34.128447863275298 -13.743789176591623 190.16021962923244 0 1 0 0.57357644374324357 0 0.81915203911291934 forward_v I I I I #
coedge $-1 $247 $248 $249 $250 reversed $99 $-1 #
coedge $-1 $161 $101 $251 $252 reversed $63 $-1 #
coedge $-1 $101 $160 $247 $253 reversed $63 $-1 #
coedge $-1 $249 $254 $101 $163 forward $244 $-1 #
edge $-1 $255 -50.005693973571859 $256 -40.620390210907395 $162 $257 forward 7 unknown #
loop $-1 $-1 $169 $102 #
plane-surface $-1 -42.811002125167434 -6.8718945882958096 80.279299598855502 0.57357644374324357 0 0.81915203911291934 0.81915203911291934 0 -0.57357644374324357 forward_v I I I I #
loop $-1 $-1 $258 $65 #
coedge $-1 $167 $167 $168 $259 reversed $103 $-1 #
coedge $-1 $168 $168 $167 $259 forward $105 $-1 #
coedge $-1 $169 $169 $106 $170 forward $164 $-1 #
edge $-1 $260 0 $260 6.2831853071796004 $169 $261 forward 7 unknown #
loop $-1 $-1 $176 $107 #
plane-surface $-1 -42.811002125167434 -6.8718945882958096 80.279299598855502 0.57357644374324357 0 0.81915203911291934 0.81915203911291934 0 -0.57357644374324357 forward_v I I I I #
loop $-1 $-1 $262 $68 #
coedge $-1 $174 $174 $175 $263 reversed $108 $-1 #
coedge $-1 $175 $175 $174 $263 forward $110 $-1 #
coedge $-1 $176 $176 $111 $177 forward $171 $-1 #
edge $-1 $264 0 $264 6.2831853071796004 $176 $265 forward 7 unknown #
face $-1 $266 $267 $37 $-1 $268 reversed single #
loop $-1 $-1 $184 $112 #
plane-surface $-1 67.069917905209508 0 0 -1 0 0 0 0 1 forward_v I I I I #
coedge $-1 $269 $270 $271 $272 reversed $113 $-1 #
coedge $-1 $183 $115 $273 $274 reversed $72 $-1 #
coedge $-1 $115 $182 $269 $275 reversed $72 $-1 #
coedge $-1 $271 $276 $115 $185 forward $179 $-1 #
edge $-1 $277 85.168599634977795 $278 91.740260204203452 $184 $279 forward 7 unknown #
loop $-1 $-1 $191 $116 #
plane-surface $-1 -42.811002125167434 39.471582638293107 80.279299598855502 0.57357644374324357 0 0.81915203911291934 0.81915203911291934 0 -0.57357644374324357 forward_v I I I I #
loop $-1 $-1 $280 $74 #
coedge $-1 $189 $189 $190 $281 reversed $117 $-1 #
coedge $-1 $190 $190 $189 $281 forward $119 $-1 #
coedge $-1 $191 $191 $120 $192 forward $186 $-1 #
edge $-1 $282 0 $282 6.2831853071796004 $191 $283 forward 7 unknown #
loop $-1 $-1 $198 $121 #
plane-surface $-1 -42.811002125167434 39.471582638293107 80.279299598855502 0.57357644374324357 0 0.81915203911291934 0.81915203911291934 0 -0.57357644374324357 forward_v I I I I #
loop $-1 $-1 $284 $77 #
coedge $-1 $196 $196 $197 $285 reversed $122 $-1 #
coedge $-1 $197 $197 $196 $285 forward $124 $-1 #
coedge $-1 $198 $198 $125 $199 forward $193 $-1 #
edge $-1 $286 0 $286 6.2831853071796004 $198 $287 forward 7 unknown #
face $-1 $288 $289 $30 $-1 $290 reversed single #
loop $-1 $-1 $291 $126 #
plane-surface $-1 -67.069917905209508 0 0 1 0 0 0 0 -1 forward_v I I I I #
coedge $-1 $292 $211 $293 $294 forward $127 $-1 #
coedge $-1 $295 $129 $292 $296 forward $81 $-1 #
coedge $-1 $129 $295 $297 $298 forward $81 $-1 #
coedge $-1 $214 $213 $129 $207 reversed $215 $-1 #
edge $-1 $299 -46.343477226588909 $300 46.343477226588909 $206 $301 forward 7 unknown #
coedge $-1 $131 $130 $302 $303 forward $51 $-1 #
coedge $-1 $304 $305 $130 $210 reversed $289 $-1 #
edge $-1 $217 -67.069917905209508 $306 67.069917905209508 $209 $307 forward 7 unknown #
coedge $-1 $203 $308 $131 $212 reversed $127 $-1 #
edge $-1 $309 -67.069917905209508 $216 67.069917905209508 $211 $310 forward 7 unknown #
coedge $-1 $206 $132 $308 $311 forward $215 $-1 #
coedge $-1 $132 $206 $304 $312 reversed $215 $-1 #
loop $-1 $-1 $213 $288 #
vertex $-1 $133 $313 #
vertex $-1 $133 $314 #
straight-curve $-1 67.069917905209508 0 9.9115101796384302 0 1 0 I I #
face $-1 $-1 $231 $31 $-1 $315 forward single #
loop $-1 $-1 $316 $134 #
plane-surface $-1 -67.069917905209508 0 0 1 0 0 0 0 -1 forward_v I I I I #
coedge $-1 $317 $318 $319 $320 reversed $135 $-1 #
coedge $-1 $321 $137 $139 $229 forward $85 $-1 #
coedge $-1 $137 $321 $317 $322 forward $85 $-1 #
coedge $-1 $319 $140 $137 $226 forward $231 $-1 #
edge $-1 $233 -7.3699245223119618 $323 14.551401535178563 $225 $324 forward 7 unknown #
coedge $-1 $325 $326 $138 $228 forward $220 $-1 #
edge $-1 $327 -50.407970855437668 $232 -46.809354384908957 $227 $328 forward 7 unknown #
edge $-1 $233 -5.9796055042341347 $327 1.7763522597878294e-014 $139 $329 forward 7 unknown #
coedge $-1 $140 $319 $325 $330 forward $231 $-1 #
loop $-1 $-1 $319 $219 #
vertex $-1 $228 $331 #
vertex $-1 $141 $332 #
straight-curve $-1 -73.898643660532287 -3.7791860158786612 9.9115101796384337 1 0 0 I I #
coedge $-1 $235 $235 $-1 $333 reversed $144 $-1 #
edge $-1 $334 0 $334 6.2831853071796004 $145 $335 forward 7 unknown #
vertex $-1 $148 $336 #
ellipse-curve $-1 -64.682155276496871 2.4840500005471995 8.1122019443740729 -0.6018150307709319 0 0.79863550430605224 0.79863550430605224 0 0.6018150307709319 1 I I #
coedge $-1 $239 $239 $-1 $337 reversed $151 $-1 #
edge $-1 $338 0 $338 6.2831853071796004 $152 $339 forward 7 unknown #
vertex $-1 $155 $340 #
ellipse-curve $-1 -64.682155276496871 11.878904025185996 8.1122019443740729 -0.6018150307709319 0 0.79863550430605224 0.79863550430605224 0 0.6018150307709319 1 I I #
face $-1 $-1 $341 $34 $-1 $342 reversed single #
loop $-1 $-1 $162 $156 #
plane-surface $-1 0 0 9.9115101796384302 0 0 1 1 0 0 forward_v I I I I #
coedge $-1 $343 $344 $345 $346 reversed $157 $-1 #
coedge $-1 $347 $159 $161 $253 forward $99 $-1 #
coedge $-1 $159 $347 $343 $348 forward $99 $-1 #
coedge $-1 $345 $162 $159 $250 forward $244 $-1 #
edge $-1 $256 -3.4359472941479083 $349 10.307841882443718 $249 $350 forward 7 unknown #
coedge $-1 $351 $352 $160 $252 forward $341 $-1 #
edge $-1 $353 -91.740260204203452 $255 -85.168599634977795 $251 $354 forward 7 unknown #
edge $-1 $256 122.68249539675412 $353 134.13983581041902 $161 $355 forward 7 unknown #
coedge $-1 $162 $345 $351 $356 forward $244 $-1 #
vertex $-1 $252 $357 #
vertex $-1 $163 $358 #
straight-curve $-1 17.064223931637649 3.5527136788005009e-015 9.9115101796384266 -1 0 0 I I #
coedge $-1 $258 $258 $-1 $359 reversed $166 $-1 #
edge $-1 $360 0 $360 6.2831853071796004 $167 $361 forward 7 unknown #
vertex $-1 $170 $362 #
ellipse-curve $-1 62.377266023877247 -9.8169922689940208 6.6256798950256313 0.57357644374324357 0 0.81915203911291934 0.81915203911291934 0 -0.57357644374324357 1 I I #
coedge $-1 $262 $262 $-1 $363 reversed $173 $-1 #
edge $-1 $364 0 $364 6.2831853071796004 $174 $365 forward 7 unknown #
vertex $-1 $177 $366 #
ellipse-curve $-1 62.377266023877247 -3.9267969075976126 6.6256798950256313 0.57357644374324357 0 0.81915203911291934 0.81915203911291934 0 -0.57357644374324357 1 I I #
face $-1 $-1 $367 $37 $-1 $368 forward single #
loop $-1 $-1 $369 $178 #
plane-surface $-1 0 46.343477226588909 0 0 -1 0 0 0 -1 forward_v I I I I #
coedge $-1 $370 $181 $183 $275 forward $113 $-1 #
coedge $-1 $181 $370 $369 $371 reversed $113 $-1 #
coedge $-1 $372 $184 $181 $272 forward $179 $-1 #
edge $-1 $278 12.863896730850744 $373 26.607685907442356 $271 $374 forward 7 unknown #
coedge $-1 $375 $376 $182 $274 forward $367 $-1 #
edge $-1 $377 40.620390210907395 $277 50.005693973571859 $273 $378 forward 7 unknown #
edge $-1 $278 -134.13983581041902 $377 -122.68249539675412 $183 $379 forward 7 unknown #
coedge $-1 $184 $372 $375 $380 reversed $179 $-1 #
vertex $-1 $380 $381 #
vertex $-1 $185 $382 #
straight-curve $-1 67.069917905209508 32.599688049997297 95.080109814616222 0 0 -1 I I #
coedge $-1 $280 $280 $-1 $383 reversed $188 $-1 #
edge $-1 $384 0 $384 6.2831853071796004 $189 $385 forward 7 unknown #
vertex $-1 $192 $386 #
ellipse-curve $-1 62.377266023877247 36.526484957594896 6.6256798950256313 0.57357644374324357 0 0.81915203911291934 0.81915203911291934 0 -0.57357644374324357 1 I I #
coedge $-1 $284 $284 $-1 $387 reversed $195 $-1 #
edge $-1 $388 0 $388 6.2831853071796004 $196 $389 forward 7 unknown #
vertex $-1 $199 $390 #
ellipse-curve $-1 62.377266023877247 42.41668031899129 6.6256798950256313 0.57357644374324357 0 0.81915203911291934 0.81915203911291934 0 -0.57357644374324357 1 I I #
face $-1 $-1 $215 $30 $-1 $391 reversed single #
loop $-1 $-1 $304 $200 #
plane-surface $-1 0 46.343477226588909 0 0 -1 0 0 0 -1 forward_v I I I I #
coedge $-1 $392 $302 $305 $393 forward $201 $-1 #
coedge $-1 $308 $203 $204 $296 reversed $127 $-1 #
coedge $-1 $302 $392 $203 $294 reversed $201 $-1 #
edge $-1 $309 -9.9115101796384302 $394 9.9115101796384302 $293 $395 forward 7 unknown #
coedge $-1 $205 $204 $392 $396 forward $81 $-1 #
edge $-1 $300 -67.069917905209508 $394 67.069917905209508 $292 $397 forward 7 unknown #
coedge $-1 $305 $304 $205 $298 reversed $289 $-1 #
edge $-1 $398 -67.069917905209508 $299 67.069917905209508 $297 $399 forward 7 unknown #
vertex $-1 $207 $400 #
vertex $-1 $311 $401 #
straight-curve $-1 67.069917905209508 0 -9.9115101796384302 0 -1 0 I I #
coedge $-1 $291 $293 $208 $303 reversed $201 $-1 #
edge $-1 $306 -46.343477226588909 $309 46.343477226588909 $302 $402 forward 7 unknown #
coedge $-1 $297 $209 $214 $312 forward $289 $-1 #
coedge $-1 $209 $297 $291 $393 reversed $289 $-1 #
vertex $-1 $210 $403 #
straight-curve $-1 0 46.343477226588909 9.9115101796384302 -1 0 0 I I #
coedge $-1 $211 $292 $213 $311 reversed $127 $-1 #
vertex $-1 $303 $404 #
straight-curve $-1 0 -46.343477226588909 9.9115101796384302 1 0 0 I I #
edge $-1 $216 -9.9115101796384302 $300 9.9115101796384302 $213 $405 forward 7 unknown #
edge $-1 $217 -9.9115101796384302 $299 9.9115101796384302 $214 $406 forward 7 unknown #
point $-1 67.069917905209508 -46.343477226588909 9.9115101796384302 #
point $-1 67.069917905209508 46.343477226588909 9.9115101796384302 #
plane-surface $-1 0 0 9.9115101796384302 0 0 1 1 0 0 forward_v I I I I #
coedge $-1 $326 $325 $318 $407 forward $220 $-1 #
coedge $-1 $318 $222 $224 $322 reversed $135 $-1 #
coedge $-1 $222 $317 $316 $407 reversed $135 $-1 #
coedge $-1 $230 $225 $222 $320 forward $231 $-1 #
edge $-1 $323 -11.604251012748065 $408 -6.8287257553227789 $319 $409 forward 7 unknown #
coedge $-1 $224 $223 $326 $410 reversed $85 $-1 #
edge $-1 $411 -1.7763522597878294e-014 $323 5.9796055042341347 $317 $412 forward 7 unknown #
vertex $-1 $226 $413 #
straight-curve $-1 -62.294392647784221 3.5907385064333006 9.9115101796384302 0 1 0 I I #
coedge $-1 $316 $227 $230 $330 reversed $220 $-1 #
coedge $-1 $227 $316 $321 $410 forward $220 $-1 #
vertex $-1 $228 $414 #
straight-curve $-1 -67.069917905209508 -3.7791860158786612 56.720864564547384 0 0 1 I I #
straight-curve $-1 -67.069917905209493 -3.7791860158786612 6.3128937091097299 -0.79863550430605224 0 -0.6018150307709319 I I #
edge $-1 $408 -18.142140041611864 $232 3.7791860158786612 $325 $415 forward 7 unknown #
point $-1 -67.069917905209508 -3.7791860158786612 9.9115101796384302 #
point $-1 -62.294392647784221 -3.7791860158786612 9.9115101796384302 #
edge $-1 $416 1 $416 0 $235 $-1 forward 7 unknown #
vertex $-1 $236 $417 #
ellipse-curve $-1 -63.002924756511661 2.4840500005471995 5.8837878227517777 -0.6018150307709319 0 0.79863550430605224 0.79863550430605224 0 0.6018150307709319 1 I I #
point $-1 -63.883519772190823 2.4840500005471995 8.7140169751450145 #
edge $-1 $418 1 $418 0 $239 $-1 forward 7 unknown #
vertex $-1 $240 $419 #
ellipse-curve $-1 -63.002924756511661 11.878904025185996 5.8837878227517777 -0.6018150307709319 0 0.79863550430605224 0.79863550430605224 0 0.6018150307709319 1 I I #
point $-1 -63.883519772190823 11.878904025185996 8.7140169751450145 #
loop $-1 $-1 $251 $243 #
plane-surface $-1 67.069917905209508 0 0 -1 0 0 0 0 1 forward_v I I I I #
coedge $-1 $344 $246 $248 $348 reversed $157 $-1 #
coedge $-1 $246 $343 $420 $421 reversed $157 $-1 #
coedge $-1 $254 $249 $246 $346 forward $244 $-1 #
edge $-1 $349 40.620390210907395 $422 50.005693973571859 $345 $423 forward 7 unknown #
coedge $-1 $248 $247 $352 $424 reversed $99 $-1 #
edge $-1 $425 -134.13983581041902 $349 -122.68249539675412 $343 $426 forward 7 unknown #
vertex $-1 $250 $427 #
straight-curve $-1 57.684614142545023 -3.4359472941479048 9.9115101796384337 0 -1 0 I I #
coedge $-1 $420 $251 $254 $356 reversed $341 $-1 #
coedge $-1 $251 $420 $347 $424 forward $341 $-1 #
vertex $-1 $252 $428 #
straight-curve $-1 67.069917905209508 3.5527136788005009e-015 95.080109814616222 0 0 1 I I #
straight-curve $-1 -42.811002125167434 3.5527136788005009e-015 80.279299598855502 0.81915203911291934 0 -0.57357644374324357 I I #
edge $-1 $422 -13.743789176591623 $255 3.5527136788005009e-015 $351 $429 forward 7 unknown #
point $-1 67.069917905209508 3.5527136788005009e-015 9.9115101796384302 #
point $-1 57.684614142545044 3.5527136788005009e-015 9.9115101796384266 #
edge $-1 $430 1 $430 0 $258 $-1 forward 7 unknown #
vertex $-1 $259 $431 #
ellipse-curve $-1 61.674977534757737 -9.8169922689940208 5.6227080083954659 0.57357644374324357 0 0.81915203911291934 0.81915203911291934 0 -0.57357644374324357 1 I I #
point $-1 63.196418062990162 -9.8169922689940208 6.0521034512823793 #
edge $-1 $432 1 $432 0 $262 $-1 forward 7 unknown #
vertex $-1 $263 $433 #
ellipse-curve $-1 61.674977534757737 -3.9267969075976126 5.6227080083954659 0.57357644374324357 0 0.81915203911291934 0.81915203911291934 0 -0.57357644374324357 1 I I #
point $-1 63.196418062990162 -3.9267969075976126 6.0521034512823793 #
loop $-1 $-1 $273 $266 #
plane-surface $-1 0 0 9.9115101796384302 0 0 1 1 0 0 forward_v I I I I #
coedge $-1 $434 $435 $270 $371 forward $267 $-1 #
coedge $-1 $270 $269 $376 $436 reversed $113 $-1 #
edge $-1 $373 -93.582318381714842 $437 -82.124977968049933 $369 $438 forward 7 unknown #
coedge $-1 $276 $271 $435 $439 reversed $179 $-1 #
vertex $-1 $371 $440 #
straight-curve $-1 67.069917905209508 19.735791319146553 3.339849610412756 0 1 0 I I #
coedge $-1 $441 $273 $276 $380 forward $367 $-1 #
coedge $-1 $273 $441 $370 $436 forward $367 $-1 #
vertex $-1 $274 $442 #
straight-curve $-1 17.064223931637649 32.599688049997297 9.9115101796384266 1 0 0 I I #
straight-curve $-1 -42.811002125167434 32.599688049997297 80.279299598855502 -0.81915203911291934 0 0.57357644374324357 I I #
edge $-1 $277 32.599688049997297 $443 46.343477226588909 $276 $444 forward 7 unknown #
point $-1 67.069917905209508 32.599688049997297 9.9115101796384302 #
point $-1 67.069917905209508 32.599688049997297 3.3398496104127702 #
edge $-1 $445 1 $445 0 $280 $-1 forward 7 unknown #
vertex $-1 $281 $446 #
ellipse-curve $-1 61.674977534757737 36.526484957594896 5.6227080083954659 0.57357644374324357 0 0.81915203911291934 0.81915203911291934 0 -0.57357644374324357 1 I I #
point $-1 63.196418062990162 36.526484957594896 6.0521034512823793 #
edge $-1 $447 1 $447 0 $284 $-1 forward 7 unknown #
vertex $-1 $285 $448 #
ellipse-curve $-1 61.674977534757737 42.41668031899129 5.6227080083954659 0.57357644374324357 0 0.81915203911291934 0.81915203911291934 0 -0.57357644374324357 1 I I #
point $-1 63.196418062990162 42.41668031899129 6.0521034512823793 #
plane-surface $-1 67.069917905209508 0 0 -1 0 0 0 0 1 forward_v I I I I #
coedge $-1 $293 $291 $295 $396 reversed $201 $-1 #
edge $-1 $306 -9.9115101796384302 $398 9.9115101796384302 $305 $449 forward 7 unknown #
vertex $-1 $396 $450 #
straight-curve $-1 -67.069917905209508 -46.343477226588909 0 0 0 -1 I I #
edge $-1 $394 -46.343477226588909 $398 46.343477226588909 $392 $451 forward 7 unknown #
straight-curve $-1 0 -46.343477226588909 -9.9115101796384302 -1 0 0 I I #
vertex $-1 $298 $452 #
straight-curve $-1 0 46.343477226588909 -9.9115101796384302 1 0 0 I I #
point $-1 67.069917905209508 46.343477226588909 -9.9115101796384302 #
point $-1 67.069917905209508 -46.343477226588909 -9.9115101796384302 #
straight-curve $-1 -67.069917905209508 0 9.9115101796384302 0 -1 0 I I #
point $-1 -67.069917905209508 46.343477226588909 9.9115101796384302 #
point $-1 -67.069917905209508 -46.343477226588909 9.9115101796384302 #
straight-curve $-1 67.069917905209508 -46.343477226588909 0 0 0 -1 I I #
straight-curve $-1 67.069917905209508 46.343477226588909 0 0 0 -1 I I #
edge $-1 $408 46.809354384908957 $411 50.407970855437668 $316 $453 forward 7 unknown #
vertex $-1 $330 $454 #
straight-curve $-1 -73.898643660532287 18.142140041611864 9.9115101796384337 -1 0 0 I I #
edge $-1 $411 -14.551401535178563 $327 7.3699245223119618 $326 $455 forward 7 unknown #
vertex $-1 $410 $456 #
straight-curve $-1 -67.069917905209493 18.142140041611864 6.3128937091097299 0.79863550430605224 0 0.6018150307709319 I I #
point $-1 -62.294392647784221 18.142140041611864 9.9115101796384302 #
point $-1 -67.069917905209508 -3.7791860158786612 6.3128937091097193 #
straight-curve $-1 -67.069917905209508 0 9.9115101796384302 0 -1 0 I I #
vertex $-1 $333 $457 #
point $-1 -62.204289252205605 2.4840500005471995 6.4856028535227095 #
vertex $-1 $337 $458 #
point $-1 -62.204289252205605 11.878904025185996 6.4856028535227095 #
coedge $-1 $352 $351 $344 $421 forward $341 $-1 #
edge $-1 $422 85.168599634977795 $425 91.740260204203452 $420 $459 forward 7 unknown #
vertex $-1 $356 $460 #
straight-curve $-1 17.064223931637649 -13.743789176591623 9.9115101796384266 1 0 0 I I #
edge $-1 $425 -10.307841882443718 $353 3.4359472941479083 $352 $461 forward 7 unknown #
vertex $-1 $424 $462 #
straight-curve $-1 -42.811002125167434 -13.743789176591623 80.279299598855502 -0.81915203911291934 0 0.57357644374324357 I I #
point $-1 57.684614142545044 -13.743789176591623 9.9115101796384266 #
point $-1 67.069917905209508 3.5527136788005009e-015 3.3398496104127702 #
straight-curve $-1 67.069917905209508 0 9.9115101796384302 0 1 0 I I #
vertex $-1 $359 $463 #
point $-1 62.494129573870651 -9.8169922689940208 5.0491315646522219 #
vertex $-1 $363 $464 #
point $-1 62.494129573870651 -3.9267969075976126 5.0491315646522219 #
coedge $-1 $435 $369 $441 $465 reversed $267 $-1 #
coedge $-1 $369 $434 $372 $439 forward $267 $-1 #
edge $-1 $437 -26.607685907442363 $377 -12.863896730850744 $376 $466 forward 7 unknown #
vertex $-1 $371 $467 #
straight-curve $-1 -9.5882290220866384 46.343477226588909 57.016462985044733 -0.81915203911291934 0 0.57357644374324357 I I #
edge $-1 $443 -9.9115101796384302 $373 -3.3398496104127573 $372 $468 forward 7 unknown #
point $-1 67.069917905209508 46.343477226588909 3.3398496104127573 #
coedge $-1 $376 $375 $434 $465 forward $367 $-1 #
point $-1 57.684614142545044 32.599688049997297 9.9115101796384266 #
vertex $-1 $380 $469 #
straight-curve $-1 67.069917905209508 0 9.9115101796384302 0 1 0 I I #
vertex $-1 $383 $470 #
point $-1 62.494129573870651 36.526484957594896 5.0491315646522219 #
vertex $-1 $387 $471 #
point $-1 62.494129573870651 42.41668031899129 5.0491315646522219 #
straight-curve $-1 -67.069917905209508 46.343477226588909 0 0 0 -1 I I #
point $-1 -67.069917905209508 -46.343477226588909 -9.9115101796384302 #
straight-curve $-1 -67.069917905209508 0 -9.9115101796384302 0 1 0 I I #
point $-1 -67.069917905209508 46.343477226588909 -9.9115101796384302 #
straight-curve $-1 -67.069917905209508 18.142140041611864 56.720864564547384 0 0 -1 I I #
point $-1 -67.069917905209508 18.142140041611864 9.9115101796384302 #
straight-curve $-1 -67.069917905209508 3.5907385064333006 6.3128937091097281 0 -1 0 I I #
point $-1 -67.069917905209508 18.142140041611864 6.3128937091097193 #
point $-1 -62.401109725740724 2.4840500005471995 5.0851523184457257 #
point $-1 -62.401109725740724 11.878904025185996 5.0851523184457257 #
straight-curve $-1 67.069917905209508 -13.743789176591623 95.080109814616222 0 0 -1 I I #
point $-1 67.069917905209508 -13.743789176591623 9.9115101796384302 #
straight-curve $-1 67.069917905209508 -3.4359472941479048 3.339849610412756 0 1 0 I I #
point $-1 67.069917905209508 -13.743789176591623 3.3398496104127702 #
point $-1 61.101401091014488 -9.8169922689940208 4.803555969282546 #
point $-1 61.101401091014488 -3.9267969075976126 4.803555969282546 #
edge $-1 $443 -67.069917905209508 $437 -57.684614142545044 $434 $472 forward 7 unknown #
straight-curve $-1 57.684614142545023 19.735791319146553 9.9115101796384337 0 -1 0 I I #
point $-1 57.684614142545044 46.343477226588917 9.9115101796384266 #
straight-curve $-1 67.069917905209508 46.343477226588909 0 0 0 -1 I I #
point $-1 67.069917905209508 46.343477226588909 9.9115101796384302 #
point $-1 61.101401091014488 36.526484957594896 4.803555969282546 #
point $-1 61.101401091014488 42.41668031899129 4.803555969282546 #
straight-curve $-1 0 46.343477226588909 9.9115101796384302 -1 0 0 I I #
End-of-ACIS-data 