500 0 13 0           
7 Unknown 11 ACIS 5.0 NT 24 Fri Mar 26 19:15:38 1999 
-1 9.9999999999999995e-007 1e-010 
body $-1 $13 $-1 $14 #
body $-1 $15 $-1 $16 #
body $-1 $17 $-1 $18 #
body $-1 $19 $-1 $20 #
body $-1 $21 $-1 $22 #
body $-1 $23 $-1 $24 #
body $-1 $25 $-1 $26 #
body $-1 $27 $-1 $28 #
body $-1 $29 $-1 $30 #
body $-1 $31 $-1 $32 #
body $-1 $33 $-1 $34 #
body $-1 $35 $-1 $36 #
body $-1 $37 $-1 $38 #
lump $-1 $-1 $39 $0 #
transform $-1 1 0 0 0 1 0 0 0 1 78.944059572130499 32.631431979029202 12.052427916080232 1 rotate no_reflect no_shear #
lump $-1 $-1 $40 $1 #
transform $-1 1 0 0 0 1 0 0 0 1 78.944059572130499 32.631431979029202 12.052427916080232 1 rotate no_reflect no_shear #
lump $-1 $-1 $41 $2 #
transform $-1 1 0 0 0 1 0 0 0 1 78.944059572130499 32.631431979029202 12.052427916080232 1 rotate no_reflect no_shear #
lump $-1 $-1 $42 $3 #
transform $-1 1 0 0 0 1 0 0 0 1 78.944059572130499 32.631431979029202 12.052427916080232 1 rotate no_reflect no_shear #
lump $-1 $-1 $43 $4 #
transform $-1 1 0 0 0 1 0 0 0 1 78.944059572130499 32.631431979029202 12.052427916080232 1 rotate no_reflect no_shear #
lump $-1 $-1 $44 $5 #
transform $-1 1 0 0 0 1 0 0 0 1 78.944059572130499 32.631431979029202 12.052427916080232 1 rotate no_reflect no_shear #
lump $-1 $-1 $45 $6 #
transform $-1 1 0 0 0 1 0 0 0 1 78.944059572130499 32.631431979029202 12.052427916080232 1 rotate no_reflect no_shear #
lump $-1 $-1 $46 $7 #
transform $-1 1 0 0 0 1 0 0 0 1 78.944059572130499 32.631431979029202 12.052427916080232 1 rotate no_reflect no_shear #
lump $-1 $-1 $47 $8 #
transform $-1 1 0 0 0 1 0 0 0 1 78.944059572130499 32.631431979029202 12.052427916080232 1 rotate no_reflect no_shear #
lump $-1 $-1 $48 $9 #
transform $-1 1 0 0 0 1 0 0 0 1 78.944059572130499 32.631431979029202 12.052427916080232 1 rotate no_reflect no_shear #
lump $-1 $-1 $49 $10 #
transform $-1 1 0 0 0 1 0 0 0 1 78.944059572130499 32.631431979029202 12.052427916080232 1 rotate no_reflect no_shear #
lump $-1 $-1 $50 $11 #
transform $-1 1 0 0 0 1 0 0 0 1 78.944059572130499 32.631431979029202 12.052427916080232 1 rotate no_reflect no_shear #
lump $-1 $-1 $51 $12 #
transform $-1 1 0 0 0 1 0 0 0 1 78.944059572130499 32.631431979029202 12.052427916080232 1 rotate no_reflect no_shear #
shell $-1 $-1 $-1 $52 $-1 $13 #
shell $-1 $-1 $-1 $53 $-1 $15 #
shell $-1 $-1 $-1 $54 $-1 $17 #
shell $-1 $-1 $-1 $55 $-1 $19 #
shell $-1 $-1 $-1 $56 $-1 $21 #
shell $-1 $-1 $-1 $57 $-1 $23 #
shell $-1 $-1 $-1 $58 $-1 $25 #
shell $-1 $-1 $-1 $59 $-1 $27 #
shell $-1 $-1 $-1 $60 $-1 $29 #
shell $-1 $-1 $-1 $61 $-1 $31 #
shell $-1 $-1 $-1 $62 $-1 $33 #
shell $-1 $-1 $-1 $63 $-1 $35 #
shell $-1 $-1 $-1 $64 $-1 $37 #
face $-1 $65 $66 $39 $-1 $67 forward single #
face $-1 $68 $69 $40 $-1 $70 forward single #
face $-1 $71 $72 $41 $-1 $73 reversed single #
face $-1 $74 $75 $42 $-1 $76 forward single #
face $-1 $77 $78 $43 $-1 $79 forward single #
face $-1 $80 $81 $44 $-1 $82 reversed single #
face $-1 $83 $84 $45 $-1 $85 forward single #
face $-1 $86 $87 $46 $-1 $88 forward single #
face $-1 $89 $90 $47 $-1 $91 forward single #
face $-1 $92 $93 $48 $-1 $94 reversed single #
face $-1 $95 $96 $49 $-1 $97 forward single #
face $-1 $98 $99 $50 $-1 $100 forward single #
face $-1 $101 $102 $51 $-1 $103 forward single #
face $-1 $104 $105 $39 $-1 $106 reversed single #
loop $-1 $-1 $107 $52 #
plane-surface $-1 0 0 12.052427916080232 0 0 1 1 0 0 forward_v I I I I #
face $-1 $108 $109 $40 $-1 $110 reversed single #
loop $-1 $-1 $111 $53 #
plane-surface $-1 -72.479169900550701 0 10.359440877361598 0 0 1 1 0 0 forward_v I I I I #
face $-1 $112 $113 $41 $-1 $114 reversed single #
loop $-1 $-1 $115 $54 #
plane-surface $-1 -15.588139573953576 98.12737986111236 165.04771505664567 1 0 0 0 -0.70710678939079041 -0.70710677298230451 forward_v I I I I #
face $-1 $116 $117 $42 $-1 $118 forward single #
loop $-1 $119 $120 $55 #
cone-surface $-1 -5.0939872151026151 29.862709402274103 9.2837052922753287 0 -0.70710678939079041 -0.70710677298230451 1 0 0 1 I I 0 1 1 forward I I I I #
face $-1 $121 $122 $43 $-1 $123 forward single #
loop $-1 $124 $125 $56 #
cone-surface $-1 10.647241323173844 29.862709402274103 9.2837052922753287 0 -0.70710678939079041 -0.70710677298230451 1 0 0 1 I I 0 1 1 forward I I I I #
face $-1 $126 $127 $44 $-1 $128 reversed single #
loop $-1 $-1 $129 $57 #
plane-surface $-1 -31.450262065236132 -140.31087158899277 122.84064212959069 -1 0 0 0 -0.68199836817093118 0.7313536940579346 forward_v I I I I #
face $-1 $130 $131 $45 $-1 $132 forward single #
loop $-1 $133 $134 $58 #
cone-surface $-1 -48.382698553835013 -29.029188244758409 8.5407234213193188 0 0.68199836817093118 -0.7313536940579346 1.5 0 0 1 I I 0 1 1.5 forward I I I I #
face $-1 $135 $136 $46 $-1 $137 forward single #
loop $-1 $138 $139 $59 #
cone-surface $-1 -42.033034870610436 -29.029188244758409 8.5407234213193188 0 0.68199836817093118 -0.7313536940579346 1.5 0 0 1 I I 0 1 1.5 forward I I I I #
face $-1 $140 $141 $47 $-1 $142 forward single #
loop $-1 $143 $144 $60 #
cone-surface $-1 -35.683371187385852 -29.029188244758409 8.5407234213193188 0 0.68199836817093118 -0.7313536940579346 1.5 0 0 1 I I 0 1 1.5 forward I I I I #
face $-1 $145 $146 $48 $-1 $147 reversed single #
loop $-1 $-1 $148 $61 #
plane-surface $-1 65.545587019144335 -140.31087158899277 122.84064212959069 -1 0 0 0 -0.68199836817093118 0.7313536940579346 forward_v I I I I #
face $-1 $149 $150 $49 $-1 $151 forward single #
loop $-1 $152 $153 $62 #
cone-surface $-1 48.613150530545454 -29.029188244758409 8.5407234213193188 0 0.68199836817093118 -0.7313536940579346 1.5 0 0 1 I I 0 1 1.5 forward I I I I #
face $-1 $154 $155 $50 $-1 $156 forward single #
loop $-1 $157 $158 $63 #
cone-surface $-1 54.962814213770031 -29.029188244758409 8.5407234213193188 0 0.68199836817093118 -0.7313536940579346 1.5 0 0 1 I I 0 1 1.5 forward I I I I #
face $-1 $159 $160 $51 $-1 $161 forward single #
loop $-1 $162 $163 $64 #
cone-surface $-1 61.312477896994608 -29.029188244758409 8.5407234213193188 0 0.68199836817093118 -0.7313536940579346 1.5 0 0 1 I I 0 1 1.5 forward I I I I #
face $-1 $164 $165 $39 $-1 $166 reversed single #
loop $-1 $-1 $167 $65 #
plane-surface $-1 0 0 -12.052427916080232 0 0 1 1 0 0 forward_v I I I I #
coedge $-1 $168 $169 $170 $171 forward $66 $-1 #
face $-1 $172 $173 $40 $-1 $174 reversed single #
loop $-1 $-1 $175 $68 #
plane-surface $-1 -72.479169900550701 0 5.5566401244264494 0 0 1 1 0 0 forward_v I I I I #
coedge $-1 $176 $177 $178 $179 forward $69 $-1 #
face $-1 $180 $181 $41 $-1 $182 reversed single #
loop $-1 $-1 $183 $71 #
plane-surface $-1 2.7766270540356288 -13.51638114993662 53.403956636301658 0 0.70710678939079041 0.70710677298230451 1 0 0 forward_v I I I I #
coedge $-1 $184 $185 $186 $187 reversed $72 $-1 #
face $-1 $-1 $188 $42 $-1 $189 forward single #
loop $-1 $190 $191 $74 #
cone-surface $-1 -5.0939872151026151 29.138576114979038 8.5595720217838522 0 -0.70710678939079041 -0.70710677298230451 0.5 0 0 1 I I -0.70710678118654746 0.70710678118654746 0.5 forward I I I I #
loop $-1 $-1 $192 $55 #
coedge $-1 $120 $120 $193 $194 reversed $75 $-1 #
face $-1 $-1 $195 $43 $-1 $196 forward single #
loop $-1 $197 $198 $77 #
cone-surface $-1 10.647241323173844 29.138576114979038 8.5595720217838522 0 -0.70710678939079041 -0.70710677298230451 0.5 0 0 1 I I -0.70710678118654746 0.70710678118654746 0.5 forward I I I I #
loop $-1 $-1 $199 $56 #
coedge $-1 $125 $125 $200 $201 reversed $78 $-1 #
face $-1 $202 $203 $44 $-1 $204 reversed single #
loop $-1 $-1 $205 $80 #
plane-surface $-1 -42.033034870610436 -32.631431979029202 7.368582945576108 0 -0.68199836817093118 0.7313536940579346 1 0 0 forward_v I I I I #
coedge $-1 $206 $207 $208 $209 reversed $81 $-1 #
face $-1 $-1 $210 $45 $-1 $211 forward single #
loop $-1 $212 $213 $83 #
cone-surface $-1 -48.382698553835013 -27.426850073023701 6.8224261412670213 0 0.68199836817093118 -0.7313536940579346 0.75 0 0 1 I I -0.70710678118654791 0.70710678118654702 0.75 forward I I I I #
loop $-1 $-1 $214 $58 #
coedge $-1 $134 $134 $215 $216 reversed $84 $-1 #
face $-1 $-1 $217 $46 $-1 $218 forward single #
loop $-1 $219 $220 $86 #
cone-surface $-1 -42.033034870610436 -27.426850073023701 6.8224261412670213 0 0.68199836817093118 -0.7313536940579346 0.75 0 0 1 I I -0.70710678118654791 0.70710678118654702 0.75 forward I I I I #
loop $-1 $-1 $221 $59 #
coedge $-1 $139 $139 $222 $223 reversed $87 $-1 #
face $-1 $-1 $224 $47 $-1 $225 forward single #
loop $-1 $226 $227 $89 #
cone-surface $-1 -35.683371187385852 -27.426850073023701 6.8224261412670213 0 0.68199836817093118 -0.7313536940579346 0.75 0 0 1 I I -0.70710678118654791 0.70710678118654702 0.75 forward I I I I #
loop $-1 $-1 $228 $60 #
coedge $-1 $144 $144 $229 $230 reversed $90 $-1 #
face $-1 $231 $232 $48 $-1 $233 reversed single #
loop $-1 $-1 $234 $92 #
plane-surface $-1 54.962814213770031 -32.631431979029202 7.368582945576108 0 -0.68199836817093118 0.7313536940579346 1 0 0 forward_v I I I I #
coedge $-1 $235 $236 $237 $238 reversed $93 $-1 #
face $-1 $-1 $239 $49 $-1 $240 forward single #
loop $-1 $241 $242 $95 #
cone-surface $-1 48.613150530545454 -27.426850073023701 6.8224261412670213 0 0.68199836817093118 -0.7313536940579346 0.75 0 0 1 I I -0.70710678118654791 0.70710678118654702 0.75 forward I I I I #
loop $-1 $-1 $243 $62 #
coedge $-1 $153 $153 $244 $245 reversed $96 $-1 #
face $-1 $-1 $246 $50 $-1 $247 forward single #
loop $-1 $248 $249 $98 #
cone-surface $-1 54.962814213770031 -27.426850073023701 6.8224261412670213 0 0.68199836817093118 -0.7313536940579346 0.75 0 0 1 I I -0.70710678118654791 0.70710678118654702 0.75 forward I I I I #
loop $-1 $-1 $250 $63 #
coedge $-1 $158 $158 $251 $252 reversed $99 $-1 #
face $-1 $-1 $253 $51 $-1 $254 forward single #
loop $-1 $255 $256 $101 #
cone-surface $-1 61.312477896994608 -27.426850073023701 6.8224261412670213 0 0.68199836817093118 -0.7313536940579346 0.75 0 0 1 I I -0.70710678118654791 0.70710678118654702 0.75 forward I I I I #
loop $-1 $-1 $257 $64 #
coedge $-1 $163 $163 $258 $259 reversed $102 $-1 #
face $-1 $260 $261 $39 $-1 $262 reversed single #
loop $-1 $-1 $263 $104 #
plane-surface $-1 0 -32.631431979029202 0 0 1 0 0 0 1 forward_v I I I I #
coedge $-1 $264 $265 $266 $267 forward $105 $-1 #
coedge $-1 $268 $107 $269 $270 forward $66 $-1 #
coedge $-1 $107 $268 $271 $272 forward $66 $-1 #
coedge $-1 $273 $274 $107 $171 reversed $275 $-1 #
edge $-1 $276 -32.631431979029202 $277 32.631431979029202 $170 $278 forward 7 unknown #
face $-1 $279 $280 $40 $-1 $281 reversed single #
loop $-1 $-1 $282 $108 #
plane-surface $-1 -66.014280228970904 0 7.9580405008940236 -1 0 0 0 0 1 forward_v I I I I #
coedge $-1 $283 $284 $285 $286 forward $109 $-1 #
coedge $-1 $287 $111 $288 $289 reversed $69 $-1 #
coedge $-1 $111 $287 $290 $291 reversed $69 $-1 #
coedge $-1 $282 $292 $111 $179 reversed $173 $-1 #
edge $-1 $293 -32.631431979029202 $294 32.631431979029202 $178 $295 forward 7 unknown #
face $-1 $296 $297 $41 $-1 $298 forward single #
loop $-1 $-1 $299 $112 #
plane-surface $-1 21.141393682024834 98.12737986111236 165.04771505664567 -1 0 0 0 0.70710678939079041 0.70710677298230451 forward_v I I I I #
coedge $-1 $300 $301 $302 $303 reversed $113 $-1 #
coedge $-1 $185 $115 $304 $305 reversed $72 $-1 #
coedge $-1 $115 $184 $300 $306 reversed $72 $-1 #
coedge $-1 $302 $307 $115 $187 forward $297 $-1 #
edge $-1 $308 16.432257951526978 $309 21.228543319837861 $186 $310 forward 7 unknown #
loop $-1 $-1 $193 $116 #
plane-surface $-1 2.7766270540356288 -13.51638114993662 53.403956636301658 0 0.70710678939079041 0.70710677298230451 1 0 0 forward_v I I I I #
loop $-1 $-1 $311 $74 #
coedge $-1 $191 $191 $192 $312 reversed $117 $-1 #
coedge $-1 $192 $192 $191 $312 forward $119 $-1 #
coedge $-1 $193 $193 $120 $194 forward $188 $-1 #
edge $-1 $313 -1.2560741564046394e-015 $313 6.2831853071795996 $193 $314 forward 7 unknown #
loop $-1 $-1 $200 $121 #
plane-surface $-1 2.7766270540356288 -13.51638114993662 53.403956636301658 0 0.70710678939079041 0.70710677298230451 1 0 0 forward_v I I I I #
loop $-1 $-1 $315 $77 #
coedge $-1 $198 $198 $199 $316 reversed $122 $-1 #
coedge $-1 $199 $199 $198 $316 forward $124 $-1 #
coedge $-1 $200 $200 $125 $201 forward $195 $-1 #
edge $-1 $317 -1.2560741564046394e-015 $317 6.2831853071795996 $200 $318 forward 7 unknown #
face $-1 $319 $320 $44 $-1 $321 reversed single #
loop $-1 $-1 $322 $126 #
plane-surface $-1 -52.61580767598474 -140.31087158899277 122.84064212959069 1 0 0 0 0.68199836817093118 -0.7313536940579346 forward_v I I I I #
coedge $-1 $323 $324 $325 $326 reversed $127 $-1 #
coedge $-1 $207 $129 $327 $328 reversed $81 $-1 #
coedge $-1 $129 $206 $323 $329 reversed $81 $-1 #
coedge $-1 $325 $330 $129 $209 forward $331 $-1 #
edge $-1 $332 37.524003815467182 $333 42.546812492795738 $208 $334 forward 7 unknown #
loop $-1 $-1 $215 $130 #
plane-surface $-1 -42.033034870610436 -32.631431979029202 7.368582945576108 0 -0.68199836817093118 0.7313536940579346 1 0 0 forward_v I I I I #
loop $-1 $-1 $335 $83 #
coedge $-1 $213 $213 $214 $336 reversed $131 $-1 #
coedge $-1 $214 $214 $213 $336 forward $133 $-1 #
coedge $-1 $215 $215 $134 $216 forward $210 $-1 #
edge $-1 $337 -6.9075141623988678e-016 $337 6.2831853071795996 $215 $338 forward 7 unknown #
loop $-1 $-1 $222 $135 #
plane-surface $-1 -42.033034870610436 -32.631431979029202 7.368582945576108 0 -0.68199836817093118 0.7313536940579346 1 0 0 forward_v I I I I #
loop $-1 $-1 $339 $86 #
coedge $-1 $220 $220 $221 $340 reversed $136 $-1 #
coedge $-1 $221 $221 $220 $340 forward $138 $-1 #
coedge $-1 $222 $222 $139 $223 forward $217 $-1 #
edge $-1 $341 -6.9075141623988678e-016 $341 6.2831853071795996 $222 $342 forward 7 unknown #
loop $-1 $-1 $229 $140 #
plane-surface $-1 -42.033034870610436 -32.631431979029202 7.368582945576108 0 -0.68199836817093118 0.7313536940579346 1 0 0 forward_v I I I I #
loop $-1 $-1 $343 $89 #
coedge $-1 $227 $227 $228 $344 reversed $141 $-1 #
coedge $-1 $228 $228 $227 $344 forward $143 $-1 #
coedge $-1 $229 $229 $144 $230 forward $224 $-1 #
edge $-1 $345 -6.9075141623988678e-016 $345 6.2831853071795996 $229 $346 forward 7 unknown #
face $-1 $347 $348 $48 $-1 $349 reversed single #
loop $-1 $-1 $350 $145 #
plane-surface $-1 44.380041408395726 -140.31087158899277 122.84064212959069 1 0 0 0 0.68199836817093118 -0.7313536940579346 forward_v I I I I #
coedge $-1 $351 $352 $353 $354 reversed $146 $-1 #
coedge $-1 $236 $148 $355 $356 reversed $93 $-1 #
coedge $-1 $148 $235 $351 $357 reversed $93 $-1 #
coedge $-1 $353 $358 $148 $238 forward $359 $-1 #
edge $-1 $360 37.524003815467182 $361 42.546812492795738 $237 $362 forward 7 unknown #
loop $-1 $-1 $244 $149 #
plane-surface $-1 54.962814213770031 -32.631431979029202 7.368582945576108 0 -0.68199836817093118 0.7313536940579346 1 0 0 forward_v I I I I #
loop $-1 $-1 $363 $95 #
coedge $-1 $242 $242 $243 $364 reversed $150 $-1 #
coedge $-1 $243 $243 $242 $364 forward $152 $-1 #
coedge $-1 $244 $244 $153 $245 forward $239 $-1 #
edge $-1 $365 -6.9075141623988678e-016 $365 6.2831853071795996 $244 $366 forward 7 unknown #
loop $-1 $-1 $251 $154 #
plane-surface $-1 54.962814213770031 -32.631431979029202 7.368582945576108 0 -0.68199836817093118 0.7313536940579346 1 0 0 forward_v I I I I #
loop $-1 $-1 $367 $98 #
coedge $-1 $249 $249 $250 $368 reversed $155 $-1 #
coedge $-1 $250 $250 $249 $368 forward $157 $-1 #
coedge $-1 $251 $251 $158 $252 forward $246 $-1 #
edge $-1 $369 -6.9075141623988678e-016 $369 6.2831853071795996 $251 $370 forward 7 unknown #
loop $-1 $-1 $258 $159 #
plane-surface $-1 54.962814213770031 -32.631431979029202 7.368582945576108 0 -0.68199836817093118 0.7313536940579346 1 0 0 forward_v I I I I #
loop $-1 $-1 $371 $101 #
coedge $-1 $256 $256 $257 $372 reversed $160 $-1 #
coedge $-1 $257 $257 $256 $372 forward $162 $-1 #
coedge $-1 $258 $258 $163 $259 forward $253 $-1 #
edge $-1 $373 -6.9075141623988678e-016 $373 6.2831853071795996 $258 $374 forward 7 unknown #
face $-1 $375 $376 $39 $-1 $377 reversed single #
loop $-1 $-1 $378 $164 #
plane-surface $-1 -78.944059572130499 0 0 1 0 0 0 0 -1 forward_v I I I I #
coedge $-1 $379 $271 $380 $381 forward $165 $-1 #
coedge $-1 $382 $167 $379 $383 forward $105 $-1 #
coedge $-1 $167 $382 $384 $385 forward $105 $-1 #
coedge $-1 $274 $273 $167 $267 reversed $275 $-1 #
edge $-1 $386 -32.631431979029202 $387 32.631431979029202 $266 $388 forward 7 unknown #
coedge $-1 $169 $168 $389 $390 forward $66 $-1 #
coedge $-1 $391 $392 $168 $270 reversed $376 $-1 #
edge $-1 $277 -78.944059572130499 $393 78.944059572130499 $269 $394 forward 7 unknown #
coedge $-1 $263 $395 $169 $272 reversed $165 $-1 #
edge $-1 $396 -78.944059572130499 $276 78.944059572130499 $271 $397 forward 7 unknown #
coedge $-1 $266 $170 $395 $398 forward $275 $-1 #
coedge $-1 $170 $266 $391 $399 reversed $275 $-1 #
loop $-1 $-1 $273 $375 #
vertex $-1 $171 $400 #
vertex $-1 $171 $401 #
straight-curve $-1 78.944059572130499 0 12.052427916080232 0 1 0 I I #
face $-1 $402 $403 $40 $-1 $404 reversed single #
loop $-1 $-1 $405 $172 #
plane-surface $-1 0 -32.631431979029202 0 0 1 0 0 0 1 forward_v I I I I #
coedge $-1 $285 $178 $406 $407 reversed $173 $-1 #
coedge $-1 $408 $175 $405 $409 reversed $109 $-1 #
coedge $-1 $175 $408 $410 $411 reversed $109 $-1 #
coedge $-1 $292 $282 $175 $286 reversed $173 $-1 #
edge $-1 $412 -32.631431979029202 $413 32.631431979029202 $285 $414 forward 7 unknown #
coedge $-1 $177 $176 $415 $416 reversed $69 $-1 #
coedge $-1 $417 $418 $176 $289 forward $419 $-1 #
edge $-1 $420 -42.704474621855148 $294 -29.774695278695553 $288 $421 forward 7 unknown #
coedge $-1 $422 $406 $177 $291 forward $280 $-1 #
edge $-1 $293 29.774695278695553 $423 42.704474621855148 $290 $424 forward 7 unknown #
coedge $-1 $178 $285 $417 $425 reversed $173 $-1 #
vertex $-1 $291 $426 #
vertex $-1 $289 $427 #
straight-curve $-1 -66.014280228970904 0 10.359440877361598 0 1 0 I I #
face $-1 $-1 $428 $41 $-1 $429 reversed single #
loop $-1 $-1 $186 $180 #
plane-surface $-1 0 0 12.052427916080232 0 0 1 1 0 0 forward_v I I I I #
coedge $-1 $430 $431 $432 $433 reversed $181 $-1 #
coedge $-1 $434 $183 $185 $306 forward $113 $-1 #
coedge $-1 $183 $434 $430 $435 forward $113 $-1 #
coedge $-1 $432 $186 $183 $303 forward $297 $-1 #
edge $-1 $309 -16.976453100971391 $436 19.753080155007019 $302 $437 forward 7 unknown #
coedge $-1 $438 $439 $184 $305 forward $428 $-1 #
edge $-1 $440 -75.267715091851784 $308 -70.471429612242602 $304 $441 forward 7 unknown #
edge $-1 $309 58.479892062481746 $440 65.262863958058418 $185 $442 forward 7 unknown #
coedge $-1 $186 $432 $438 $443 forward $297 $-1 #
vertex $-1 $305 $444 #
vertex $-1 $187 $445 #
straight-curve $-1 -15.588139573953576 49.06368993055618 12.052427916080234 0 -1 0 I I #
coedge $-1 $311 $311 $-1 $446 reversed $190 $-1 #
edge $-1 $447 0 $447 6.2831853071796004 $191 $448 forward 7 unknown #
vertex $-1 $194 $449 #
ellipse-curve $-1 -5.0939872151026151 30.23328929487376 9.6542851762756392 0 0.70710678939079041 0.70710677298230451 1 0 0 1 I I #
coedge $-1 $315 $315 $-1 $450 reversed $197 $-1 #
edge $-1 $451 0 $451 6.2831853071796004 $198 $452 forward 7 unknown #
vertex $-1 $201 $453 #
ellipse-curve $-1 10.647241323173844 30.23328929487376 9.6542851762756392 0 0.70710678939079041 0.70710677298230451 1 0 0 1 I I #
face $-1 $-1 $331 $44 $-1 $454 forward single #
loop $-1 $-1 $455 $202 #
plane-surface $-1 0 -32.631431979029202 0 0 1 0 0 0 1 forward_v I I I I #
coedge $-1 $456 $457 $458 $459 reversed $203 $-1 #
coedge $-1 $460 $205 $207 $329 forward $127 $-1 #
coedge $-1 $205 $460 $456 $461 forward $127 $-1 #
coedge $-1 $458 $208 $205 $326 forward $331 $-1 #
edge $-1 $333 10.433744629930914 $462 31.599290240679522 $325 $463 forward 7 unknown #
coedge $-1 $464 $465 $206 $328 forward $320 $-1 #
edge $-1 $466 -54.051738119219237 $332 -49.367893148715112 $327 $467 forward 7 unknown #
edge $-1 $333 -6.867824307359923 $466 0 $207 $468 forward 7 unknown #
coedge $-1 $208 $458 $464 $469 forward $331 $-1 #
loop $-1 $-1 $458 $319 #
vertex $-1 $328 $470 #
vertex $-1 $209 $471 #
straight-curve $-1 -31.450262065236132 -70.155435794496384 12.052427916080234 0 1 0 I I #
coedge $-1 $335 $335 $-1 $472 reversed $212 $-1 #
edge $-1 $473 0 $473 6.2831853071796004 $213 $474 forward 7 unknown #
vertex $-1 $216 $475 #
ellipse-curve $-1 -48.382698553835013 -30.120027640364924 9.7105054308281709 0 -0.68199836817093118 0.7313536940579346 1.5 0 0 1 I I #
coedge $-1 $339 $339 $-1 $476 reversed $219 $-1 #
edge $-1 $477 0 $477 6.2831853071796004 $220 $478 forward 7 unknown #
vertex $-1 $223 $479 #
ellipse-curve $-1 -42.033034870610436 -30.120027640364924 9.7105054308281709 0 -0.68199836817093118 0.7313536940579346 1.5 0 0 1 I I #
coedge $-1 $343 $343 $-1 $480 reversed $226 $-1 #
edge $-1 $481 0 $481 6.2831853071796004 $227 $482 forward 7 unknown #
vertex $-1 $230 $483 #
ellipse-curve $-1 -35.683371187385852 -30.120027640364924 9.7105054308281709 0 -0.68199836817093118 0.7313536940579346 1.5 0 0 1 I I #
face $-1 $-1 $359 $48 $-1 $484 forward single #
loop $-1 $-1 $485 $231 #
plane-surface $-1 0 -32.631431979029202 0 0 1 0 0 0 1 forward_v I I I I #
coedge $-1 $486 $487 $488 $489 reversed $232 $-1 #
coedge $-1 $490 $234 $236 $357 forward $146 $-1 #
coedge $-1 $234 $490 $486 $491 forward $146 $-1 #
coedge $-1 $488 $237 $234 $354 forward $359 $-1 #
edge $-1 $361 -38.06417991225932 $492 -16.898634301510711 $353 $493 forward 7 unknown #
coedge $-1 $494 $495 $235 $356 forward $348 $-1 #
edge $-1 $496 -54.051738119219237 $360 -49.367893148715112 $355 $497 forward 7 unknown #
edge $-1 $361 -6.867824307359923 $496 0 $236 $498 forward 7 unknown #
coedge $-1 $237 $488 $494 $499 forward $359 $-1 #
loop $-1 $-1 $488 $347 #
vertex $-1 $356 $500 #
vertex $-1 $238 $501 #
straight-curve $-1 65.545587019144335 -70.155435794496384 12.052427916080234 0 1 0 I I #
coedge $-1 $363 $363 $-1 $502 reversed $241 $-1 #
edge $-1 $503 0 $503 6.2831853071796004 $242 $504 forward 7 unknown #
vertex $-1 $245 $505 #
ellipse-curve $-1 48.613150530545454 -30.120027640364924 9.7105054308281709 0 -0.68199836817093118 0.7313536940579346 1.5 0 0 1 I I #
coedge $-1 $367 $367 $-1 $506 reversed $248 $-1 #
edge $-1 $507 0 $507 6.2831853071796004 $249 $508 forward 7 unknown #
vertex $-1 $252 $509 #
ellipse-curve $-1 54.962814213770031 -30.120027640364924 9.7105054308281709 0 -0.68199836817093118 0.7313536940579346 1.5 0 0 1 I I #
coedge $-1 $371 $371 $-1 $510 reversed $255 $-1 #
edge $-1 $511 0 $511 6.2831853071796004 $256 $512 forward 7 unknown #
vertex $-1 $259 $513 #
ellipse-curve $-1 61.312477896994608 -30.120027640364924 9.7105054308281709 0 -0.68199836817093118 0.7313536940579346 1.5 0 0 1 I I #
face $-1 $-1 $275 $39 $-1 $514 reversed single #
loop $-1 $-1 $391 $260 #
plane-surface $-1 0 32.631431979029202 0 0 -1 0 0 0 -1 forward_v I I I I #
coedge $-1 $515 $389 $392 $516 forward $261 $-1 #
coedge $-1 $395 $263 $264 $383 reversed $165 $-1 #
coedge $-1 $389 $515 $263 $381 reversed $261 $-1 #
edge $-1 $396 -12.052427916080232 $517 12.052427916080232 $380 $518 forward 7 unknown #
coedge $-1 $265 $264 $515 $519 forward $105 $-1 #
edge $-1 $387 -78.944059572130499 $517 78.944059572130499 $379 $520 forward 7 unknown #
coedge $-1 $392 $391 $265 $385 reversed $376 $-1 #
edge $-1 $521 -78.944059572130499 $386 78.944059572130499 $384 $522 forward 7 unknown #
vertex $-1 $267 $523 #
vertex $-1 $398 $524 #
straight-curve $-1 78.944059572130499 0 -12.052427916080232 0 -1 0 I I #
coedge $-1 $378 $380 $268 $390 reversed $261 $-1 #
edge $-1 $393 -32.631431979029202 $396 32.631431979029202 $389 $525 forward 7 unknown #
coedge $-1 $384 $269 $274 $399 forward $376 $-1 #
coedge $-1 $269 $384 $378 $516 reversed $376 $-1 #
vertex $-1 $270 $526 #
straight-curve $-1 0 32.631431979029202 12.052427916080232 -1 0 0 I I #
coedge $-1 $271 $379 $273 $398 reversed $165 $-1 #
vertex $-1 $390 $527 #
straight-curve $-1 0 -32.631431979029202 12.052427916080232 1 0 0 I I #
edge $-1 $276 -12.052427916080232 $387 12.052427916080232 $273 $528 forward 7 unknown #
edge $-1 $277 -12.052427916080232 $386 12.052427916080232 $274 $529 forward 7 unknown #
point $-1 78.944059572130499 -32.631431979029202 12.052427916080232 #
point $-1 78.944059572130499 32.631431979029202 12.052427916080232 #
face $-1 $-1 $419 $40 $-1 $530 reversed single #
loop $-1 $-1 $531 $279 #
plane-surface $-1 -78.944059572130499 0 0 1 0 0 0 0 -1 forward_v I I I I #
coedge $-1 $406 $422 $283 $409 forward $280 $-1 #
coedge $-1 $290 $405 $282 $407 forward $280 $-1 #
edge $-1 $413 1.5776198739794376 $293 6.380420626914586 $406 $532 forward 7 unknown #
coedge $-1 $284 $283 $531 $533 reversed $109 $-1 #
edge $-1 $534 -42.704474621855148 $413 -29.774695278695553 $405 $535 forward 7 unknown #
coedge $-1 $418 $417 $284 $411 forward $419 $-1 #
edge $-1 $412 29.774695278695553 $536 42.704474621855148 $410 $537 forward 7 unknown #
vertex $-1 $411 $538 #
vertex $-1 $409 $539 #
straight-curve $-1 -66.014280228970904 0 5.5566401244264494 0 -1 0 I I #
coedge $-1 $540 $541 $287 $416 forward $403 $-1 #
edge $-1 $423 -32.631431979029202 $420 32.631431979029202 $415 $542 forward 7 unknown #
coedge $-1 $410 $288 $292 $425 forward $419 $-1 #
coedge $-1 $288 $410 $540 $543 reversed $419 $-1 #
loop $-1 $-1 $410 $402 #
vertex $-1 $543 $544 #
straight-curve $-1 -36.239584950275351 32.631431979029202 10.359440877361598 1 0 0 I I #
coedge $-1 $405 $290 $541 $545 forward $280 $-1 #
vertex $-1 $545 $546 #
straight-curve $-1 -36.239584950275351 -32.631431979029202 10.359440877361598 -1 0 0 I I #
edge $-1 $294 -6.380420626914586 $412 -1.5776198739794376 $417 $547 forward 7 unknown #
point $-1 -66.014280228970904 -32.631431979029202 10.359440877361598 #
point $-1 -66.014280228970904 32.631431979029202 10.359440877361598 #
loop $-1 $-1 $304 $296 #
plane-surface $-1 0 32.631431979029202 0 0 -1 0 0 0 -1 forward_v I I I I #
coedge $-1 $431 $299 $301 $435 reversed $181 $-1 #
coedge $-1 $299 $430 $548 $549 reversed $181 $-1 #
coedge $-1 $307 $302 $299 $433 forward $297 $-1 #
edge $-1 $436 -21.228543319837861 $550 -16.432257951526978 $432 $551 forward 7 unknown #
coedge $-1 $301 $300 $439 $552 reversed $113 $-1 #
edge $-1 $553 -65.262863958058418 $436 -58.479892062481746 $430 $554 forward 7 unknown #
vertex $-1 $303 $555 #
straight-curve $-1 1.3883135270178144 27.835146610718322 12.052427916080227 1 0 0 I I #
coedge $-1 $548 $304 $307 $443 reversed $428 $-1 #
coedge $-1 $304 $548 $434 $552 forward $428 $-1 #
vertex $-1 $305 $556 #
straight-curve $-1 -15.588139573953576 32.631431979029202 82.523857528322836 0 0 1 I I #
straight-curve $-1 -15.588139573953576 -13.51638114993662 53.403956636301658 0 0.70710677298230451 -0.70710678939079041 I I #
edge $-1 $550 -21.141393682024834 $308 15.588139573953576 $438 $557 forward 7 unknown #
point $-1 -15.588139573953576 32.631431979029202 12.052427916080232 #
point $-1 -15.588139573953576 27.835146610718319 12.052427916080234 #
edge $-1 $558 1 $558 0 $311 $-1 forward 7 unknown #
vertex $-1 $312 $559 #
ellipse-curve $-1 -5.0939872151026151 29.492129509674434 8.913125408275004 0 0.70710678939079041 0.70710677298230451 1 0 0 1 I I #
point $-1 -4.0939872151026151 30.233289294873771 9.6542851762756516 #
edge $-1 $560 1 $560 0 $315 $-1 forward 7 unknown #
vertex $-1 $316 $561 #
ellipse-curve $-1 10.647241323173844 29.492129509674434 8.913125408275004 0 0.70710678939079041 0.70710677298230451 1 0 0 1 I I #
point $-1 11.647241323173844 30.233289294873771 9.6542851762756516 #
plane-surface $-1 0 0 12.052427916080232 0 0 1 1 0 0 forward_v I I I I #
coedge $-1 $465 $464 $457 $562 forward $320 $-1 #
coedge $-1 $457 $322 $324 $461 reversed $203 $-1 #
coedge $-1 $322 $456 $455 $562 reversed $203 $-1 #
coedge $-1 $330 $325 $322 $459 forward $331 $-1 #
edge $-1 $462 -42.546812492795738 $563 -37.524003815467182 $458 $564 forward 7 unknown #
coedge $-1 $324 $323 $465 $565 reversed $127 $-1 #
edge $-1 $566 0 $462 6.867824307359923 $456 $567 forward 7 unknown #
vertex $-1 $326 $568 #
straight-curve $-1 -21.016517435305218 -27.608623301700646 12.052427916080232 -1 0 0 I I #
coedge $-1 $455 $327 $330 $469 reversed $320 $-1 #
coedge $-1 $327 $455 $460 $565 forward $320 $-1 #
vertex $-1 $328 $569 #
straight-curve $-1 -31.450262065236132 -32.631431979029202 61.420321064795345 0 0 1 I I #
straight-curve $-1 -31.450262065236132 -32.631431979029202 7.368582945576108 0 -0.7313536940579346 -0.68199836817093118 I I #
edge $-1 $563 -52.61580767598474 $332 -31.450262065236132 $464 $570 forward 7 unknown #
point $-1 -31.450262065236132 -32.631431979029202 12.052427916080232 #
point $-1 -31.450262065236132 -27.608623301700646 12.052427916080232 #
edge $-1 $571 1 $571 0 $335 $-1 forward 7 unknown #
vertex $-1 $336 $572 #
ellipse-curve $-1 -48.382698553835013 -27.9383488491519 7.3709414118104712 0 -0.68199836817093118 0.7313536940579346 1.5 0 0 1 I I #
point $-1 -46.882698553835013 -30.120027640364921 9.7105054308281655 #
edge $-1 $573 1 $573 0 $339 $-1 forward 7 unknown #
vertex $-1 $340 $574 #
ellipse-curve $-1 -42.033034870610436 -27.9383488491519 7.3709414118104712 0 -0.68199836817093118 0.7313536940579346 1.5 0 0 1 I I #
point $-1 -40.533034870610436 -30.120027640364921 9.7105054308281655 #
edge $-1 $575 1 $575 0 $343 $-1 forward 7 unknown #
vertex $-1 $344 $576 #
ellipse-curve $-1 -35.683371187385852 -27.9383488491519 7.3709414118104712 0 -0.68199836817093118 0.7313536940579346 1.5 0 0 1 I I #
point $-1 -34.183371187385852 -30.120027640364921 9.7105054308281655 #
plane-surface $-1 0 0 12.052427916080232 0 0 1 1 0 0 forward_v I I I I #
coedge $-1 $495 $494 $487 $577 forward $348 $-1 #
coedge $-1 $487 $350 $352 $491 reversed $232 $-1 #
coedge $-1 $350 $486 $485 $577 reversed $232 $-1 #
coedge $-1 $358 $353 $350 $489 forward $359 $-1 #
edge $-1 $492 -42.546812492795738 $578 -37.524003815467182 $488 $579 forward 7 unknown #
coedge $-1 $352 $351 $495 $580 reversed $146 $-1 #
edge $-1 $581 0 $492 6.867824307359923 $486 $582 forward 7 unknown #
vertex $-1 $354 $583 #
straight-curve $-1 27.481407106885015 -27.608623301700646 12.052427916080232 -1 0 0 I I #
coedge $-1 $485 $355 $358 $499 reversed $348 $-1 #
coedge $-1 $355 $485 $490 $580 forward $348 $-1 #
vertex $-1 $356 $584 #
straight-curve $-1 65.545587019144335 -32.631431979029202 61.420321064795345 0 0 1 I I #
straight-curve $-1 65.545587019144335 -32.631431979029202 7.368582945576108 0 -0.7313536940579346 -0.68199836817093118 I I #
edge $-1 $578 44.380041408395726 $360 65.545587019144335 $494 $585 forward 7 unknown #
point $-1 65.545587019144335 -32.631431979029202 12.052427916080232 #
point $-1 65.545587019144335 -27.608623301700646 12.052427916080232 #
edge $-1 $586 1 $586 0 $363 $-1 forward 7 unknown #
vertex $-1 $364 $587 #
ellipse-curve $-1 48.613150530545454 -27.9383488491519 7.3709414118104712 0 -0.68199836817093118 0.7313536940579346 1.5 0 0 1 I I #
point $-1 50.113150530545454 -30.120027640364921 9.7105054308281655 #
edge $-1 $588 1 $588 0 $367 $-1 forward 7 unknown #
vertex $-1 $368 $589 #
ellipse-curve $-1 54.962814213770031 -27.9383488491519 7.3709414118104712 0 -0.68199836817093118 0.7313536940579346 1.5 0 0 1 I I #
point $-1 56.462814213770031 -30.120027640364921 9.7105054308281655 #
edge $-1 $590 1 $590 0 $371 $-1 forward 7 unknown #
vertex $-1 $372 $591 #
ellipse-curve $-1 61.312477896994608 -27.9383488491519 7.3709414118104712 0 -0.68199836817093118 0.7313536940579346 1.5 0 0 1 I I #
point $-1 62.812477896994608 -30.120027640364921 9.7105054308281655 #
plane-surface $-1 78.944059572130499 0 0 -1 0 0 0 0 1 forward_v I I I I #
coedge $-1 $380 $378 $382 $519 reversed $261 $-1 #
edge $-1 $393 -12.052427916080232 $521 12.052427916080232 $392 $592 forward 7 unknown #
vertex $-1 $519 $593 #
straight-curve $-1 -78.944059572130499 -32.631431979029202 0 0 0 -1 I I #
edge $-1 $517 -32.631431979029202 $521 32.631431979029202 $515 $594 forward 7 unknown #
straight-curve $-1 0 -32.631431979029202 -12.052427916080232 -1 0 0 I I #
vertex $-1 $385 $595 #
straight-curve $-1 0 32.631431979029202 -12.052427916080232 1 0 0 I I #
point $-1 78.944059572130499 32.631431979029202 -12.052427916080232 #
point $-1 78.944059572130499 -32.631431979029202 -12.052427916080232 #
straight-curve $-1 -78.944059572130499 0 12.052427916080232 0 -1 0 I I #
point $-1 -78.944059572130499 32.631431979029202 12.052427916080232 #
point $-1 -78.944059572130499 -32.631431979029202 12.052427916080232 #
straight-curve $-1 78.944059572130499 -32.631431979029202 0 0 0 -1 I I #
straight-curve $-1 78.944059572130499 32.631431979029202 0 0 0 -1 I I #
plane-surface $-1 0 32.631431979029202 0 0 -1 0 0 0 -1 forward_v I I I I #
coedge $-1 $541 $540 $408 $533 forward $403 $-1 #
straight-curve $-1 -66.014280228970904 -32.631431979029202 3.9790202504470118 0 0 1 I I #
edge $-1 $536 -32.631431979029202 $534 32.631431979029202 $531 $596 forward 7 unknown #
vertex $-1 $409 $597 #
straight-curve $-1 -36.239584950275351 -32.631431979029202 5.5566401244264494 1 0 0 I I #
vertex $-1 $411 $598 #
straight-curve $-1 -36.239584950275351 32.631431979029202 5.5566401244264494 -1 0 0 I I #
point $-1 -66.014280228970904 32.631431979029202 5.5566401244264494 #
point $-1 -66.014280228970904 -32.631431979029202 5.5566401244264494 #
coedge $-1 $531 $415 $418 $543 forward $403 $-1 #
coedge $-1 $415 $531 $422 $545 reversed $403 $-1 #
straight-curve $-1 -78.944059572130499 0 10.359440877361598 0 1 0 I I #
edge $-1 $420 -10.359440877361598 $536 -5.5566401244264494 $418 $599 forward 7 unknown #
point $-1 -78.944059572130499 32.631431979029202 10.359440877361598 #
edge $-1 $423 -10.359440877361598 $534 -5.5566401244264494 $541 $600 forward 7 unknown #
point $-1 -78.944059572130499 -32.631431979029202 10.359440877361598 #
straight-curve $-1 -66.014280228970904 32.631431979029202 3.9790202504470118 0 0 -1 I I #
coedge $-1 $439 $438 $431 $549 forward $428 $-1 #
edge $-1 $550 70.471429612242602 $553 75.267715091851784 $548 $601 forward 7 unknown #
vertex $-1 $443 $602 #
straight-curve $-1 21.141393682024834 49.06368993055618 12.052427916080234 0 1 0 I I #
edge $-1 $553 -19.753080155007019 $440 16.976453100971391 $439 $603 forward 7 unknown #
vertex $-1 $552 $604 #
straight-curve $-1 21.141393682024834 -13.51638114993662 53.403956636301658 0 -0.70710677298230451 0.70710678939079041 I I #
point $-1 21.141393682024834 27.835146610718319 12.052427916080234 #
point $-1 -15.588139573953576 32.631431979029202 7.2561424364710518 #
straight-curve $-1 0 32.631431979029202 12.052427916080232 -1 0 0 I I #
vertex $-1 $446 $605 #
point $-1 -4.0939872151026151 29.492129509674434 8.913125408275004 #
vertex $-1 $450 $606 #
point $-1 11.647241323173844 29.492129509674434 8.913125408275004 #
edge $-1 $563 49.367893148715112 $566 54.051738119219237 $455 $607 forward 7 unknown #
vertex $-1 $469 $608 #
straight-curve $-1 -52.61580767598474 -70.155435794496384 12.052427916080234 0 -1 0 I I #
edge $-1 $566 -31.599290240679522 $466 -10.433744629930914 $465 $609 forward 7 unknown #
vertex $-1 $565 $610 #
straight-curve $-1 -52.61580767598474 -32.631431979029202 7.368582945576108 0 0.7313536940579346 0.68199836817093118 I I #
point $-1 -52.61580767598474 -27.608623301700646 12.052427916080232 #
point $-1 -31.450262065236132 -32.631431979029202 7.368582945576108 #
straight-curve $-1 0 -32.631431979029202 12.052427916080232 1 0 0 I I #
vertex $-1 $472 $611 #
point $-1 -46.882698553835013 -27.9383488491519 7.3709414118104712 #
vertex $-1 $476 $612 #
point $-1 -40.533034870610436 -27.9383488491519 7.3709414118104712 #
vertex $-1 $480 $613 #
point $-1 -34.183371187385852 -27.9383488491519 7.3709414118104712 #
edge $-1 $578 49.367893148715112 $581 54.051738119219237 $485 $614 forward 7 unknown #
vertex $-1 $499 $615 #
straight-curve $-1 44.380041408395726 -70.155435794496384 12.052427916080234 0 -1 0 I I #
edge $-1 $581 16.898634301510711 $496 38.06417991225932 $495 $616 forward 7 unknown #
vertex $-1 $580 $617 #
straight-curve $-1 44.380041408395726 -32.631431979029202 7.368582945576108 0 0.7313536940579346 0.68199836817093118 I I #
point $-1 44.380041408395726 -27.608623301700646 12.052427916080232 #
point $-1 65.545587019144335 -32.631431979029202 7.368582945576108 #
straight-curve $-1 0 -32.631431979029202 12.052427916080232 1 0 0 I I #
vertex $-1 $502 $618 #
point $-1 50.113150530545454 -27.9383488491519 7.3709414118104712 #
vertex $-1 $506 $619 #
point $-1 56.462814213770031 -27.9383488491519 7.3709414118104712 #
vertex $-1 $510 $620 #
point $-1 62.812477896994608 -27.9383488491519 7.3709414118104712 #
straight-curve $-1 -78.944059572130499 32.631431979029202 0 0 0 -1 I I #
point $-1 -78.944059572130499 -32.631431979029202 -12.052427916080232 #
straight-curve $-1 -78.944059572130499 0 -12.052427916080232 0 1 0 I I #
point $-1 -78.944059572130499 32.631431979029202 -12.052427916080232 #
straight-curve $-1 -78.944059572130499 0 5.5566401244264494 0 -1 0 I I #
point $-1 -78.944059572130499 -32.631431979029202 5.5566401244264494 #
point $-1 -78.944059572130499 32.631431979029202 5.5566401244264494 #
straight-curve $-1 -78.944059572130499 32.631431979029202 0 0 0 -1 I I #
straight-curve $-1 -78.944059572130499 -32.631431979029202 0 0 0 -1 I I #
straight-curve $-1 21.141393682024834 32.631431979029202 82.523857528322836 0 0 -1 I I #
point $-1 21.141393682024834 32.631431979029202 12.052427916080232 #
straight-curve $-1 1.3883135270178144 32.631431979029202 7.2561424364710554 -1 0 0 I I #
point $-1 21.141393682024834 32.631431979029202 7.2561424364710518 #
point $-1 -5.0939872151026151 28.785022720283642 8.2060186352927005 #
point $-1 10.647241323173844 28.785022720283642 8.2060186352927005 #
straight-curve $-1 -52.61580767598474 -32.631431979029202 61.420321064795345 0 0 -1 I I #
point $-1 -52.61580767598474 -32.631431979029202 12.052427916080232 #
straight-curve $-1 -21.016517435305218 -32.631431979029202 7.3685829455761063 1 0 0 I I #
point $-1 -52.61580767598474 -32.631431979029202 7.368582945576108 #
point $-1 -48.382698553835013 -26.915351296895501 6.2739108707235713 #
point $-1 -42.033034870610436 -26.915351296895501 6.2739108707235713 #
point $-1 -35.683371187385852 -26.915351296895501 6.2739108707235713 #
straight-curve $-1 44.380041408395726 -32.631431979029202 61.420321064795345 0 0 -1 I I #
point $-1 44.380041408395726 -32.631431979029202 12.052427916080232 #
straight-curve $-1 27.481407106885015 -32.631431979029202 7.3685829455761063 1 0 0 I I #
point $-1 44.380041408395726 -32.631431979029202 7.368582945576108 #
point $-1 48.613150530545454 -26.915351296895501 6.2739108707235713 #
point $-1 54.962814213770031 -26.915351296895501 6.2739108707235713 #
point $-1 61.312477896994608 -26.915351296895501 6.2739108707235713 #
End-of-ACIS-data 