500 0 2 0           
7 Unknown 11 ACIS 5.0 NT 24 Thu Mar 25 20:18:07 1999 
-1 9.9999999999999995e-007 1e-010 
body $-1 $2 $-1 $3 #
body $-1 $4 $-1 $5 #
lump $-1 $-1 $6 $0 #
transform $-1 1 0 0 0 1 0 0 0 1 74.636066774498744 37.042421824405217 11.314064946531948 1 rotate no_reflect no_shear #
lump $-1 $-1 $7 $1 #
transform $-1 1 0 0 0 1 0 0 0 1 74.636066774498744 37.042421824405217 11.314064946531948 1 rotate no_reflect no_shear #
shell $-1 $-1 $-1 $8 $-1 $2 #
shell $-1 $-1 $-1 $9 $-1 $4 #
face $-1 $10 $11 $6 $-1 $12 forward single #
face $-1 $13 $14 $7 $-1 $15 forward single #
face $-1 $16 $17 $6 $-1 $18 reversed single #
loop $-1 $-1 $19 $8 #
plane-surface $-1 0 0 11.314064946531948 0 0 1 1 0 0 forward_v I I I I #
face $-1 $20 $21 $7 $-1 $22 forward single #
loop $-1 $-1 $23 $9 #
plane-surface $-1 -67.513126217859138 -29.676943945526325 0 0 1 0 0 0 1 forward_v I I I I #
face $-1 $24 $25 $6 $-1 $26 reversed single #
loop $-1 $-1 $27 $10 #
plane-surface $-1 0 0 -11.314064946531948 0 0 1 1 0 0 forward_v I I I I #
coedge $-1 $28 $29 $30 $31 forward $11 $-1 #
face $-1 $32 $33 $7 $-1 $34 forward single #
loop $-1 $-1 $35 $13 #
plane-surface $-1 -67.513126217859138 -26.268740281436287 0 0 -1 0 0 0 -1 forward_v I I I I #
coedge $-1 $36 $37 $38 $39 reversed $14 $-1 #
face $-1 $40 $41 $6 $-1 $42 reversed single #
loop $-1 $-1 $43 $16 #
plane-surface $-1 0 -37.042421824405217 0 0 1 0 0 0 1 forward_v I I I I #
coedge $-1 $44 $45 $46 $47 forward $17 $-1 #
coedge $-1 $48 $19 $49 $50 forward $11 $-1 #
coedge $-1 $19 $48 $51 $52 forward $11 $-1 #
coedge $-1 $53 $54 $19 $31 reversed $55 $-1 #
edge $-1 $56 -37.042421824405217 $57 37.042421824405217 $30 $58 forward 7 unknown #
face $-1 $59 $60 $7 $-1 $61 forward single #
loop $-1 $-1 $62 $20 #
plane-surface $-1 -60.39018566121954 -27.972842113481306 0 -1 0 0 0 0 1 forward_v I I I I #
coedge $-1 $63 $64 $65 $66 reversed $21 $-1 #
coedge $-1 $67 $23 $68 $69 reversed $14 $-1 #
coedge $-1 $23 $67 $70 $71 reversed $14 $-1 #
coedge $-1 $72 $73 $23 $39 forward $74 $-1 #
edge $-1 $75 -11.314064946531948 $76 11.314064946531948 $38 $77 forward 7 unknown #
face $-1 $78 $79 $6 $-1 $80 reversed single #
loop $-1 $-1 $81 $24 #
plane-surface $-1 -74.636066774498744 0 0 1 0 0 0 0 -1 forward_v I I I I #
coedge $-1 $82 $51 $83 $84 forward $25 $-1 #
coedge $-1 $85 $27 $82 $86 forward $17 $-1 #
coedge $-1 $27 $85 $87 $88 forward $17 $-1 #
coedge $-1 $54 $53 $27 $47 reversed $55 $-1 #
edge $-1 $89 -37.042421824405217 $90 37.042421824405217 $46 $91 forward 7 unknown #
coedge $-1 $29 $28 $92 $93 forward $11 $-1 #
coedge $-1 $94 $95 $28 $50 reversed $79 $-1 #
edge $-1 $57 -74.636066774498744 $96 74.636066774498744 $49 $97 forward 7 unknown #
coedge $-1 $43 $98 $29 $52 reversed $25 $-1 #
edge $-1 $99 -74.636066774498744 $56 74.636066774498744 $51 $100 forward 7 unknown #
coedge $-1 $46 $30 $98 $101 forward $55 $-1 #
coedge $-1 $30 $46 $94 $102 reversed $55 $-1 #
loop $-1 $-1 $53 $78 #
vertex $-1 $31 $103 #
vertex $-1 $31 $104 #
straight-curve $-1 74.636066774498744 0 11.314064946531948 0 1 0 I I #
face $-1 $105 $74 $7 $-1 $106 reversed single #
loop $-1 $-1 $107 $32 #
plane-surface $-1 0 0 11.314064946531948 0 0 1 1 0 0 forward_v I I I I #
coedge $-1 $108 $109 $67 $110 reversed $33 $-1 #
coedge $-1 $111 $35 $107 $112 reversed $21 $-1 #
coedge $-1 $35 $111 $113 $114 reversed $21 $-1 #
coedge $-1 $109 $108 $35 $66 forward $33 $-1 #
edge $-1 $115 -11.314064946531948 $116 11.314064946531948 $65 $117 forward 7 unknown #
coedge $-1 $37 $36 $62 $110 forward $14 $-1 #
coedge $-1 $118 $119 $36 $69 forward $60 $-1 #
edge $-1 $120 26.633622552289971 $75 40.879503665569175 $68 $121 forward 7 unknown #
coedge $-1 $122 $123 $37 $71 forward $124 $-1 #
edge $-1 $76 -40.879503665569175 $125 -26.633622552289971 $70 $126 forward 7 unknown #
coedge $-1 $127 $38 $123 $128 reversed $74 $-1 #
coedge $-1 $38 $127 $118 $129 reversed $74 $-1 #
loop $-1 $-1 $38 $59 #
vertex $-1 $129 $130 #
vertex $-1 $39 $131 #
straight-curve $-1 -74.636066774498744 -29.676943945526325 0 0 0 -1 I I #
face $-1 $-1 $55 $6 $-1 $132 reversed single #
loop $-1 $-1 $94 $40 #
plane-surface $-1 0 37.042421824405217 0 0 -1 0 0 0 -1 forward_v I I I I #
coedge $-1 $133 $92 $95 $134 forward $41 $-1 #
coedge $-1 $98 $43 $44 $86 reversed $25 $-1 #
coedge $-1 $92 $133 $43 $84 reversed $41 $-1 #
edge $-1 $99 -11.314064946531948 $135 11.314064946531948 $83 $136 forward 7 unknown #
coedge $-1 $45 $44 $133 $137 forward $17 $-1 #
edge $-1 $90 -74.636066774498744 $135 74.636066774498744 $82 $138 forward 7 unknown #
coedge $-1 $95 $94 $45 $88 reversed $79 $-1 #
edge $-1 $139 -74.636066774498744 $89 74.636066774498744 $87 $140 forward 7 unknown #
vertex $-1 $47 $141 #
vertex $-1 $101 $142 #
straight-curve $-1 74.636066774498744 0 -11.314064946531948 0 -1 0 I I #
coedge $-1 $81 $83 $48 $93 reversed $41 $-1 #
edge $-1 $96 -37.042421824405217 $99 37.042421824405217 $92 $143 forward 7 unknown #
coedge $-1 $87 $49 $54 $102 forward $79 $-1 #
coedge $-1 $49 $87 $81 $134 reversed $79 $-1 #
vertex $-1 $50 $144 #
straight-curve $-1 0 37.042421824405217 11.314064946531948 -1 0 0 I I #
coedge $-1 $51 $82 $53 $101 reversed $25 $-1 #
vertex $-1 $93 $145 #
straight-curve $-1 0 -37.042421824405217 11.314064946531948 1 0 0 I I #
edge $-1 $56 -11.314064946531948 $90 11.314064946531948 $53 $146 forward 7 unknown #
edge $-1 $57 -11.314064946531948 $89 11.314064946531948 $54 $147 forward 7 unknown #
point $-1 74.636066774498744 -37.042421824405217 11.314064946531948 #
point $-1 74.636066774498744 37.042421824405217 11.314064946531948 #
face $-1 $148 $124 $7 $-1 $149 reversed single #
plane-surface $-1 -74.636066774498744 0 0 1 0 0 0 0 -1 forward_v I I I I #
coedge $-1 $119 $150 $63 $112 forward $60 $-1 #
coedge $-1 $65 $62 $119 $151 reversed $33 $-1 #
coedge $-1 $62 $65 $122 $152 reversed $33 $-1 #
edge $-1 $120 -11.314064946531948 $125 11.314064946531948 $62 $153 forward 7 unknown #
coedge $-1 $64 $63 $154 $155 reversed $21 $-1 #
edge $-1 $156 -40.879503665569175 $115 -26.633622552289971 $107 $157 forward 7 unknown #
coedge $-1 $158 $122 $64 $114 forward $124 $-1 #
edge $-1 $116 26.633622552289971 $159 40.879503665569175 $113 $160 forward 7 unknown #
vertex $-1 $112 $161 #
vertex $-1 $114 $162 #
straight-curve $-1 -60.39018566121954 -26.268740281436287 0 0 0 -1 I I #
coedge $-1 $163 $68 $73 $129 forward $60 $-1 #
coedge $-1 $68 $107 $108 $151 forward $60 $-1 #
vertex $-1 $69 $164 #
straight-curve $-1 -33.756563108929569 -29.676943945526325 11.314064946531948 -1 0 0 I I #
coedge $-1 $113 $70 $109 $152 forward $124 $-1 #
coedge $-1 $70 $165 $72 $128 forward $124 $-1 #
loop $-1 $-1 $113 $105 #
vertex $-1 $71 $166 #
straight-curve $-1 -33.756563108929569 -29.676943945526325 -11.314064946531948 1 0 0 I I #
coedge $-1 $73 $72 $167 $168 reversed $74 $-1 #
edge $-1 $169 -37.042421824405217 $76 -29.676943945526325 $72 $170 forward 7 unknown #
edge $-1 $75 29.676943945526325 $171 37.042421824405217 $73 $172 forward 7 unknown #
point $-1 -74.636066774498744 -29.676943945526325 11.314064946531948 #
point $-1 -74.636066774498744 -29.676943945526325 -11.314064946531948 #
plane-surface $-1 74.636066774498744 0 0 -1 0 0 0 0 1 forward_v I I I I #
coedge $-1 $83 $81 $85 $137 reversed $41 $-1 #
edge $-1 $96 -11.314064946531948 $139 11.314064946531948 $95 $173 forward 7 unknown #
vertex $-1 $137 $174 #
straight-curve $-1 -74.636066774498744 -37.042421824405217 0 0 0 -1 I I #
edge $-1 $135 -37.042421824405217 $139 37.042421824405217 $133 $175 forward 7 unknown #
straight-curve $-1 0 -37.042421824405217 -11.314064946531948 -1 0 0 I I #
vertex $-1 $88 $176 #
straight-curve $-1 0 37.042421824405217 -11.314064946531948 1 0 0 I I #
point $-1 74.636066774498744 37.042421824405217 -11.314064946531948 #
point $-1 74.636066774498744 -37.042421824405217 -11.314064946531948 #
straight-curve $-1 -74.636066774498744 0 11.314064946531948 0 -1 0 I I #
point $-1 -74.636066774498744 37.042421824405217 11.314064946531948 #
point $-1 -74.636066774498744 -37.042421824405217 11.314064946531948 #
straight-curve $-1 74.636066774498744 -37.042421824405217 0 0 0 -1 I I #
straight-curve $-1 74.636066774498744 37.042421824405217 0 0 0 -1 I I #
face $-1 $177 $178 $7 $-1 $179 reversed single #
plane-surface $-1 0 0 -11.314064946531948 0 0 1 1 0 0 forward_v I I I I #
coedge $-1 $107 $180 $181 $182 forward $60 $-1 #
edge $-1 $115 12.282319224695634 $120 15.690522888785672 $119 $183 forward 7 unknown #
edge $-1 $125 -15.690522888785672 $116 -12.282319224695634 $122 $184 forward 7 unknown #
straight-curve $-1 -60.39018566121954 -29.676943945526325 0 0 0 -1 I I #
coedge $-1 $181 $185 $111 $155 forward $186 $-1 #
edge $-1 $159 -11.314064946531948 $156 11.314064946531948 $154 $187 forward 7 unknown #
vertex $-1 $155 $188 #
straight-curve $-1 -33.756563108929569 -26.268740281436287 11.314064946531948 1 0 0 I I #
coedge $-1 $189 $113 $185 $190 forward $124 $-1 #
vertex $-1 $190 $191 #
straight-curve $-1 -33.756563108929569 -26.268740281436287 -11.314064946531948 -1 0 0 I I #
point $-1 -60.39018566121954 -26.268740281436287 11.314064946531948 #
point $-1 -60.39018566121954 -26.268740281436287 -11.314064946531948 #
coedge $-1 $192 $118 $193 $194 forward $60 $-1 #
point $-1 -60.39018566121954 -29.676943945526325 11.314064946531948 #
coedge $-1 $123 $195 $196 $197 forward $124 $-1 #
point $-1 -60.39018566121954 -29.676943945526325 -11.314064946531948 #
coedge $-1 $196 $193 $127 $168 forward $178 $-1 #
edge $-1 $171 -11.314064946531948 $169 11.314064946531948 $127 $198 forward 7 unknown #
vertex $-1 $128 $199 #
straight-curve $-1 -74.636066774498744 0 -11.314064946531948 0 1 0 I I #
vertex $-1 $129 $200 #
straight-curve $-1 -74.636066774498744 0 11.314064946531948 0 -1 0 I I #
straight-curve $-1 -74.636066774498744 37.042421824405217 0 0 0 -1 I I #
point $-1 -74.636066774498744 -37.042421824405217 -11.314064946531948 #
straight-curve $-1 -74.636066774498744 0 -11.314064946531948 0 1 0 I I #
point $-1 -74.636066774498744 37.042421824405217 -11.314064946531948 #
face $-1 $201 $186 $7 $-1 $106 reversed single #
loop $-1 $-1 $167 $148 #
plane-surface $-1 0 -37.042421824405217 0 0 1 0 0 0 1 forward_v I I I I #
coedge $-1 $150 $192 $202 $203 forward $60 $-1 #
coedge $-1 $204 $154 $150 $182 reversed $186 $-1 #
edge $-1 $205 -37.042421824405217 $156 26.268740281436287 $181 $172 forward 7 unknown #
straight-curve $-1 -60.39018566121954 -13.986421056740653 11.314064946531948 0 -1 0 I I #
straight-curve $-1 -60.39018566121954 -13.986421056740653 -11.314064946531948 0 1 0 I I #
coedge $-1 $154 $204 $158 $190 reversed $186 $-1 #
loop $-1 $-1 $154 $177 #
straight-curve $-1 -74.636066774498744 -26.268740281436287 0 0 0 1 I I #
point $-1 -74.636066774498744 -26.268740281436287 11.314064946531948 #
coedge $-1 $195 $158 $206 $207 forward $124 $-1 #
edge $-1 $159 -26.268740281436287 $208 37.042421824405217 $185 $170 forward 7 unknown #
point $-1 -74.636066774498744 -26.268740281436287 -11.314064946531948 #
coedge $-1 $180 $163 $209 $210 forward $60 $-1 #
coedge $-1 $167 $211 $163 $194 reversed $178 $-1 #
edge $-1 $171 -74.636066774498744 $212 74.636066774498744 $193 $213 forward 7 unknown #
coedge $-1 $165 $189 $214 $215 forward $124 $-1 #
coedge $-1 $211 $167 $165 $197 reversed $178 $-1 #
edge $-1 $216 -74.636066774498744 $169 74.636066774498744 $196 $217 forward 7 unknown #
straight-curve $-1 -74.636066774498744 -37.042421824405217 0 0 0 -1 I I #
point $-1 -74.636066774498744 -37.042421824405217 -11.314064946531948 #
point $-1 -74.636066774498744 -37.042421824405217 11.314064946531948 #
face $-1 $218 $219 $7 $-1 $220 reversed single #
coedge $-1 $221 $222 $180 $203 reversed $219 $-1 #
edge $-1 $223 -74.636066774498744 $205 74.636066774498744 $202 $224 forward 7 unknown #
coedge $-1 $185 $181 $222 $225 forward $186 $-1 #
vertex $-1 $203 $226 #
coedge $-1 $222 $221 $189 $207 reversed $219 $-1 #
edge $-1 $208 -74.636066774498744 $227 74.636066774498744 $206 $228 forward 7 unknown #
vertex $-1 $207 $229 #
coedge $-1 $230 $231 $192 $210 reversed $232 $-1 #
edge $-1 $212 -37.042421824405217 $223 37.042421824405217 $209 $233 forward 7 unknown #
coedge $-1 $193 $196 $230 $234 reversed $178 $-1 #
vertex $-1 $210 $235 #
straight-curve $-1 0 -37.042421824405217 11.314064946531948 1 0 0 I I #
coedge $-1 $231 $230 $195 $215 reversed $232 $-1 #
edge $-1 $227 -37.042421824405217 $216 37.042421824405217 $214 $236 forward 7 unknown #
vertex $-1 $234 $237 #
straight-curve $-1 0 -37.042421824405217 -11.314064946531948 -1 0 0 I I #
face $-1 $-1 $232 $7 $-1 $238 reversed single #
loop $-1 $-1 $221 $201 #
plane-surface $-1 0 37.042421824405217 0 0 -1 0 0 0 -1 forward_v I I I I #
coedge $-1 $206 $202 $231 $239 forward $219 $-1 #
coedge $-1 $202 $206 $204 $225 reversed $219 $-1 #
vertex $-1 $210 $240 #
straight-curve $-1 0 37.042421824405217 11.314064946531948 -1 0 0 I I #
edge $-1 $205 -11.314064946531948 $208 11.314064946531948 $222 $241 forward 7 unknown #
point $-1 -74.636066774498744 37.042421824405217 11.314064946531948 #
vertex $-1 $215 $242 #
straight-curve $-1 0 37.042421824405217 -11.314064946531948 1 0 0 I I #
point $-1 -74.636066774498744 37.042421824405217 -11.314064946531948 #
coedge $-1 $214 $209 $211 $234 forward $232 $-1 #
coedge $-1 $209 $214 $221 $239 reversed $232 $-1 #
loop $-1 $-1 $230 $218 #
straight-curve $-1 74.636066774498744 0 11.314064946531948 0 1 0 I I #
edge $-1 $212 -11.314064946531948 $216 11.314064946531948 $230 $243 forward 7 unknown #
point $-1 74.636066774498744 -37.042421824405217 11.314064946531948 #
straight-curve $-1 74.636066774498744 0 -11.314064946531948 0 -1 0 I I #
point $-1 74.636066774498744 -37.042421824405217 -11.314064946531948 #
plane-surface $-1 74.636066774498744 0 0 -1 0 0 0 0 1 forward_v I I I I #
edge $-1 $223 -11.314064946531948 $227 11.314064946531948 $231 $244 forward 7 unknown #
point $-1 74.636066774498744 37.042421824405217 11.314064946531948 #
straight-curve $-1 -74.636066774498744 37.042421824405217 0 0 0 -1 I I #
point $-1 74.636066774498744 37.042421824405217 -11.314064946531948 #
straight-curve $-1 74.636066774498744 -37.042421824405217 0 0 0 -1 I I #
straight-curve $-1 74.636066774498744 37.042421824405217 0 0 0 -1 I I #
End-of-ACIS-data 