500 0 12 0           
7 Unknown 11 ACIS 5.0 NT 24 Thu Mar 25 16:13:50 1999 
-1 9.9999999999999995e-007 1e-010 
body $-1 $12 $-1 $13 #
body $-1 $14 $-1 $15 #
body $-1 $16 $-1 $17 #
body $-1 $18 $-1 $19 #
body $-1 $20 $-1 $21 #
body $-1 $22 $-1 $23 #
body $-1 $24 $-1 $25 #
body $-1 $26 $-1 $27 #
body $-1 $28 $-1 $29 #
body $-1 $30 $-1 $31 #
body $-1 $32 $-1 $33 #
body $-1 $34 $-1 $35 #
lump $-1 $-1 $36 $0 #
transform $-1 1 0 0 0 1 0 0 0 1 77.371745963927111 52.118667819439928 16.657073427702283 1 rotate no_reflect no_shear #
lump $-1 $-1 $37 $1 #
transform $-1 1 0 0 0 1 0 0 0 1 77.371745963927111 52.118667819439928 16.657073427702283 1 rotate no_reflect no_shear #
lump $-1 $-1 $38 $2 #
transform $-1 1 0 0 0 1 0 0 0 1 77.371745963927111 52.118667819439928 16.657073427702283 1 rotate no_reflect no_shear #
lump $-1 $-1 $39 $3 #
transform $-1 1 0 0 0 1 0 0 0 1 77.371745963927111 52.118667819439928 16.657073427702283 1 rotate no_reflect no_shear #
lump $-1 $-1 $40 $4 #
transform $-1 1 0 0 0 1 0 0 0 1 77.371745963927111 52.118667819439928 16.657073427702283 1 rotate no_reflect no_shear #
lump $-1 $-1 $41 $5 #
transform $-1 1 0 0 0 1 0 0 0 1 77.371745963927111 52.118667819439928 16.657073427702283 1 rotate no_reflect no_shear #
lump $-1 $-1 $42 $6 #
transform $-1 1 0 0 0 1 0 0 0 1 77.371745963927111 52.118667819439928 16.657073427702283 1 rotate no_reflect no_shear #
lump $-1 $-1 $43 $7 #
transform $-1 1 0 0 0 1 0 0 0 1 77.371745963927111 52.118667819439928 16.657073427702283 1 rotate no_reflect no_shear #
lump $-1 $-1 $44 $8 #
transform $-1 1 0 0 0 1 0 0 0 1 77.371745963927111 52.118667819439928 16.657073427702283 1 rotate no_reflect no_shear #
lump $-1 $-1 $45 $9 #
transform $-1 1 0 0 0 1 0 0 0 1 77.371745963927111 52.118667819439928 16.657073427702283 1 rotate no_reflect no_shear #
lump $-1 $-1 $46 $10 #
transform $-1 1 0 0 0 1 0 0 0 1 77.371745963927111 52.118667819439928 16.657073427702283 1 rotate no_reflect no_shear #
lump $-1 $-1 $47 $11 #
transform $-1 1 0 0 0 1 0 0 0 1 77.371745963927111 52.118667819439928 16.657073427702283 1 rotate no_reflect no_shear #
shell $-1 $-1 $-1 $48 $-1 $12 #
shell $-1 $-1 $-1 $49 $-1 $14 #
shell $-1 $-1 $-1 $50 $-1 $16 #
shell $-1 $-1 $-1 $51 $-1 $18 #
shell $-1 $-1 $-1 $52 $-1 $20 #
shell $-1 $-1 $-1 $53 $-1 $22 #
shell $-1 $-1 $-1 $54 $-1 $24 #
shell $-1 $-1 $-1 $55 $-1 $26 #
shell $-1 $-1 $-1 $56 $-1 $28 #
shell $-1 $-1 $-1 $57 $-1 $30 #
shell $-1 $-1 $-1 $58 $-1 $32 #
shell $-1 $-1 $-1 $59 $-1 $34 #
face $-1 $60 $61 $36 $-1 $62 forward single #
face $-1 $63 $64 $37 $-1 $65 forward single #
face $-1 $66 $67 $38 $-1 $68 forward single #
face $-1 $69 $70 $39 $-1 $71 reversed single #
face $-1 $72 $73 $40 $-1 $74 forward single #
face $-1 $75 $76 $41 $-1 $77 forward single #
face $-1 $78 $79 $42 $-1 $80 reversed single #
face $-1 $81 $82 $43 $-1 $83 forward single #
face $-1 $84 $85 $44 $-1 $86 forward single #
face $-1 $87 $88 $45 $-1 $89 reversed single #
face $-1 $90 $91 $46 $-1 $92 forward single #
face $-1 $93 $94 $47 $-1 $95 forward single #
face $-1 $96 $97 $36 $-1 $98 reversed single #
loop $-1 $-1 $99 $48 #
plane-surface $-1 0 0 16.657073427702283 0 0 1 1 0 0 forward_v I I I I #
face $-1 $100 $101 $37 $-1 $102 reversed single #
loop $-1 $-1 $103 $49 #
plane-surface $-1 -69.351202690965948 0 -6.9111070486861195 0 0 1 1 0 0 forward_v I I I I #
face $-1 $104 $105 $38 $-1 $106 reversed single #
loop $-1 $-1 $107 $50 #
plane-surface $-1 69.351202690965948 0 -6.9111070486861195 0 0 1 1 0 0 forward_v I I I I #
face $-1 $108 $109 $39 $-1 $110 reversed single #
loop $-1 $-1 $111 $51 #
plane-surface $-1 -34.647601841872259 45.721952708241282 191.45673126776927 -1 0 0 0 0.52991927123019833 0.84804809178421925 forward_v I I I I #
face $-1 $112 $113 $40 $-1 $114 forward single #
loop $-1 $115 $116 $52 #
cone-surface $-1 -53.706928681966929 40.585309634268071 7.30684534421155 0 -0.52991927123019833 -0.84804809178421925 2.5 0 0 1 I I 0 1 2.5 forward I I I I #
face $-1 $117 $118 $41 $-1 $119 forward single #
loop $-1 $120 $121 $53 #
cone-surface $-1 -42.27133257791013 40.585309634268071 7.30684534421155 0 -0.52991927123019833 -0.84804809178421925 2.5 0 0 1 I I 0 1 2.5 forward I I I I #
face $-1 $122 $123 $42 $-1 $124 reversed single #
loop $-1 $-1 $125 $54 #
plane-surface $-1 61.330659418004764 45.721952708241282 191.45673126776927 -1 0 0 0 0.52991927123019833 0.84804809178421925 forward_v I I I I #
face $-1 $126 $127 $43 $-1 $128 forward single #
loop $-1 $129 $130 $55 #
cone-surface $-1 42.271332577910101 40.585309634268071 7.30684534421155 0 -0.52991927123019833 -0.84804809178421925 2.5 0 0 1 I I 0 1 2.5 forward I I I I #
face $-1 $131 $132 $44 $-1 $133 forward single #
loop $-1 $134 $135 $56 #
cone-surface $-1 53.7069286819669 40.585309634268071 7.30684534421155 0 -0.52991927123019833 -0.84804809178421925 2.5 0 0 1 I I 0 1 2.5 forward I I I I #
face $-1 $136 $137 $45 $-1 $138 reversed single #
loop $-1 $-1 $139 $57 #
plane-surface $-1 -18.438295046854442 -153.63953411080234 126.19175744291472 1 0 0 0 0.6560590369687036 -0.75470957328743171 forward_v I I I I #
face $-1 $140 $141 $46 $-1 $142 forward single #
loop $-1 $143 $144 $58 #
cone-surface $-1 -11.102327939143237 -45.842641416949938 10.609742050657191 0 0.6560590369687036 -0.75470957328743171 2.5 0 0 1 I I 0 1 2.5 forward I I I I #
face $-1 $145 $146 $47 $-1 $147 forward single #
loop $-1 $148 $149 $59 #
cone-surface $-1 -0.09837727757641801 -45.842641416949938 10.609742050657191 0 0.6560590369687036 -0.75470957328743171 2.5 0 0 1 I I 0 1 2.5 forward I I I I #
face $-1 $150 $151 $36 $-1 $152 reversed single #
loop $-1 $-1 $153 $60 #
plane-surface $-1 0 0 -16.657073427702283 0 0 1 1 0 0 forward_v I I I I #
coedge $-1 $154 $155 $156 $157 forward $61 $-1 #
face $-1 $158 $159 $37 $-1 $160 reversed single #
loop $-1 $-1 $161 $63 #
plane-surface $-1 -61.330659418004785 0 -11.784090238194201 -1 0 0 0 0 1 forward_v I I I I #
coedge $-1 $162 $163 $164 $165 forward $64 $-1 #
face $-1 $166 $167 $38 $-1 $168 reversed single #
loop $-1 $-1 $169 $66 #
plane-surface $-1 61.330659418004785 0 -11.784090238194201 1 0 0 0 0 -1 forward_v I I I I #
coedge $-1 $170 $171 $172 $173 reversed $67 $-1 #
face $-1 $174 $175 $39 $-1 $176 reversed single #
loop $-1 $-1 $177 $69 #
plane-surface $-1 -47.989130629938522 -36.279605761783309 60.226808222325758 0 0.52991927123019833 0.84804809178421925 1 0 0 forward_v I I I I #
coedge $-1 $178 $179 $180 $181 reversed $70 $-1 #
face $-1 $-1 $182 $40 $-1 $183 forward single #
loop $-1 $184 $185 $72 #
cone-surface $-1 -53.706928681966929 37.725614284240031 2.7303762170452153 0 -0.52991927123019833 -0.84804809178421925 1.25 0 0 1 I I -0.70710678118654746 0.70710678118654746 1.25 forward I I I I #
loop $-1 $-1 $186 $52 #
coedge $-1 $116 $116 $187 $188 reversed $73 $-1 #
face $-1 $-1 $189 $41 $-1 $190 forward single #
loop $-1 $191 $192 $75 #
cone-surface $-1 -42.27133257791013 37.725614284240031 2.7303762170452153 0 -0.52991927123019833 -0.84804809178421925 1.25 0 0 1 I I -0.70710678118654746 0.70710678118654746 1.25 forward I I I I #
loop $-1 $-1 $193 $53 #
coedge $-1 $121 $121 $194 $195 reversed $76 $-1 #
face $-1 $196 $197 $42 $-1 $198 reversed single #
loop $-1 $-1 $199 $78 #
plane-surface $-1 47.989130629938501 -36.279605761783309 60.226808222325758 0 0.52991927123019833 0.84804809178421925 1 0 0 forward_v I I I I #
coedge $-1 $200 $201 $202 $203 reversed $79 $-1 #
face $-1 $-1 $204 $43 $-1 $205 forward single #
loop $-1 $206 $207 $81 #
cone-surface $-1 42.271332577910101 37.725614284240031 2.7303762170452153 0 -0.52991927123019833 -0.84804809178421925 1.25 0 0 1 I I -0.70710678118654746 0.70710678118654746 1.25 forward I I I I #
loop $-1 $-1 $208 $55 #
coedge $-1 $130 $130 $209 $210 reversed $82 $-1 #
face $-1 $-1 $211 $44 $-1 $212 forward single #
loop $-1 $213 $214 $84 #
cone-surface $-1 53.7069286819669 37.725614284240031 2.7303762170452153 0 -0.52991927123019833 -0.84804809178421925 1.25 0 0 1 I I -0.70710678118654746 0.70710678118654746 1.25 forward I I I I #
loop $-1 $-1 $215 $56 #
coedge $-1 $135 $135 $216 $217 reversed $85 $-1 #
face $-1 $218 $219 $45 $-1 $220 reversed single #
loop $-1 $-1 $221 $87 #
plane-surface $-1 -5.6003526083598274 -52.118667819439949 9.4053626810367206 0 -0.6560590369687036 0.75470957328743171 1 0 0 forward_v I I I I #
coedge $-1 $222 $223 $224 $225 reversed $88 $-1 #
face $-1 $-1 $226 $46 $-1 $227 forward single #
loop $-1 $228 $229 $90 #
cone-surface $-1 -11.102327939143237 -42.917610599830454 7.244879080335604 0 0.6560590369687036 -0.75470957328743171 1.25 0 0 1 I I -0.70710678118654746 0.70710678118654746 1.25 forward I I I I #
loop $-1 $-1 $230 $58 #
coedge $-1 $144 $144 $231 $232 reversed $91 $-1 #
face $-1 $-1 $233 $47 $-1 $234 forward single #
loop $-1 $235 $236 $93 #
cone-surface $-1 -0.09837727757641801 -42.917610599830454 7.244879080335604 0 0.6560590369687036 -0.75470957328743171 1.25 0 0 1 I I -0.70710678118654746 0.70710678118654746 1.25 forward I I I I #
loop $-1 $-1 $237 $59 #
coedge $-1 $149 $149 $238 $239 reversed $94 $-1 #
face $-1 $240 $241 $36 $-1 $242 reversed single #
loop $-1 $-1 $243 $96 #
plane-surface $-1 0 -52.118667819439928 0 0 1 0 0 0 1 forward_v I I I I #
coedge $-1 $244 $245 $246 $247 forward $97 $-1 #
coedge $-1 $248 $99 $249 $250 forward $61 $-1 #
coedge $-1 $99 $248 $251 $252 forward $61 $-1 #
coedge $-1 $253 $254 $99 $157 reversed $255 $-1 #
edge $-1 $256 -52.118667819439928 $257 52.118667819439928 $156 $258 forward 7 unknown #
face $-1 $259 $260 $37 $-1 $261 reversed single #
loop $-1 $-1 $262 $100 #
plane-surface $-1 0 0 -16.657073427702283 0 0 1 1 0 0 forward_v I I I I #
coedge $-1 $263 $164 $264 $265 reversed $101 $-1 #
coedge $-1 $266 $103 $267 $268 reversed $64 $-1 #
coedge $-1 $103 $266 $269 $270 reversed $64 $-1 #
coedge $-1 $161 $271 $103 $165 reversed $101 $-1 #
edge $-1 $272 -52.118667819439928 $273 52.118667819439928 $164 $274 forward 7 unknown #
face $-1 $275 $276 $38 $-1 $277 reversed single #
loop $-1 $-1 $278 $104 #
plane-surface $-1 0 -52.118667819439928 0 0 1 0 0 0 1 forward_v I I I I #
coedge $-1 $279 $280 $281 $282 reversed $105 $-1 #
coedge $-1 $283 $107 $284 $285 reversed $67 $-1 #
coedge $-1 $107 $283 $278 $286 reversed $67 $-1 #
coedge $-1 $287 $288 $107 $173 forward $289 $-1 #
edge $-1 $290 -52.118667819439928 $291 52.118667819439928 $172 $292 forward 7 unknown #
face $-1 $293 $294 $39 $-1 $295 reversed single #
loop $-1 $-1 $296 $108 #
plane-surface $-1 -61.330659418004785 45.721952708241282 191.45673126776927 1 0 0 0 -0.52991927123019833 -0.84804809178421925 forward_v I I I I #
coedge $-1 $297 $298 $299 $300 reversed $109 $-1 #
coedge $-1 $179 $111 $301 $302 reversed $70 $-1 #
coedge $-1 $111 $178 $297 $303 reversed $70 $-1 #
coedge $-1 $299 $304 $111 $181 forward $294 $-1 #
edge $-1 $305 79.071292206182349 $306 90.73893034829166 $180 $307 forward 7 unknown #
loop $-1 $-1 $187 $112 #
plane-surface $-1 -47.989130629938522 -36.279605761783309 60.226808222325758 0 0.52991927123019833 0.84804809178421925 1 0 0 forward_v I I I I #
loop $-1 $-1 $308 $72 #
coedge $-1 $185 $185 $186 $309 reversed $113 $-1 #
coedge $-1 $186 $186 $185 $309 forward $115 $-1 #
coedge $-1 $187 $187 $116 $188 forward $182 $-1 #
edge $-1 $310 -3.0223182499708945e-016 $310 6.2831853071796004 $187 $311 forward 7 unknown #
loop $-1 $-1 $194 $117 #
plane-surface $-1 -47.989130629938522 -36.279605761783309 60.226808222325758 0 0.52991927123019833 0.84804809178421925 1 0 0 forward_v I I I I #
loop $-1 $-1 $312 $75 #
coedge $-1 $192 $192 $193 $313 reversed $118 $-1 #
coedge $-1 $193 $193 $192 $313 forward $120 $-1 #
coedge $-1 $194 $194 $121 $195 forward $189 $-1 #
edge $-1 $314 -3.0223182499708945e-016 $314 6.2831853071796004 $194 $315 forward 7 unknown #
face $-1 $316 $317 $42 $-1 $318 forward single #
loop $-1 $-1 $319 $122 #
plane-surface $-1 34.647601841872238 45.721952708241282 191.45673126776927 1 0 0 0 -0.52991927123019833 -0.84804809178421925 forward_v I I I I #
coedge $-1 $320 $321 $322 $323 reversed $123 $-1 #
coedge $-1 $201 $125 $324 $325 reversed $79 $-1 #
coedge $-1 $125 $200 $320 $326 reversed $79 $-1 #
coedge $-1 $322 $327 $125 $203 forward $328 $-1 #
edge $-1 $329 79.071292206182349 $330 90.73893034829166 $202 $331 forward 7 unknown #
loop $-1 $-1 $209 $126 #
plane-surface $-1 47.989130629938501 -36.279605761783309 60.226808222325758 0 0.52991927123019833 0.84804809178421925 1 0 0 forward_v I I I I #
loop $-1 $-1 $332 $81 #
coedge $-1 $207 $207 $208 $333 reversed $127 $-1 #
coedge $-1 $208 $208 $207 $333 forward $129 $-1 #
coedge $-1 $209 $209 $130 $210 forward $204 $-1 #
edge $-1 $334 -3.0223182499708945e-016 $334 6.2831853071796004 $209 $335 forward 7 unknown #
loop $-1 $-1 $216 $131 #
plane-surface $-1 47.989130629938501 -36.279605761783309 60.226808222325758 0 0.52991927123019833 0.84804809178421925 1 0 0 forward_v I I I I #
loop $-1 $-1 $336 $84 #
coedge $-1 $214 $214 $215 $337 reversed $132 $-1 #
coedge $-1 $215 $215 $214 $337 forward $134 $-1 #
coedge $-1 $216 $216 $135 $217 forward $211 $-1 #
edge $-1 $338 -3.0223182499708945e-016 $338 6.2831853071796004 $216 $339 forward 7 unknown #
face $-1 $340 $341 $45 $-1 $342 forward single #
loop $-1 $-1 $343 $136 #
plane-surface $-1 7.2375898301347874 -153.63953411080234 126.19175744291472 -1 0 0 0 -0.6560590369687036 0.75470957328743171 forward_v I I I I #
coedge $-1 $344 $345 $346 $347 reversed $137 $-1 #
coedge $-1 $223 $139 $348 $349 reversed $88 $-1 #
coedge $-1 $139 $222 $344 $350 reversed $88 $-1 #
coedge $-1 $346 $351 $139 $225 forward $352 $-1 #
edge $-1 $353 46.438805293755081 $354 53.690516040420619 $224 $355 forward 7 unknown #
loop $-1 $-1 $231 $140 #
plane-surface $-1 -5.6003526083598274 -52.118667819439949 9.4053626810367206 0 -0.6560590369687036 0.75470957328743171 1 0 0 forward_v I I I I #
loop $-1 $-1 $356 $90 #
coedge $-1 $229 $229 $230 $357 reversed $141 $-1 #
coedge $-1 $230 $230 $229 $357 forward $143 $-1 #
coedge $-1 $231 $231 $144 $232 forward $226 $-1 #
edge $-1 $358 8.4114506352132231e-016 $358 6.2831853071796013 $231 $359 forward 7 unknown #
loop $-1 $-1 $238 $145 #
plane-surface $-1 -5.6003526083598274 -52.118667819439949 9.4053626810367206 0 -0.6560590369687036 0.75470957328743171 1 0 0 forward_v I I I I #
loop $-1 $-1 $360 $93 #
coedge $-1 $236 $236 $237 $361 reversed $146 $-1 #
coedge $-1 $237 $237 $236 $361 forward $148 $-1 #
coedge $-1 $238 $238 $149 $239 forward $233 $-1 #
edge $-1 $362 8.4114506352132231e-016 $362 6.2831853071796013 $238 $363 forward 7 unknown #
face $-1 $364 $365 $36 $-1 $366 reversed single #
loop $-1 $-1 $367 $150 #
plane-surface $-1 -77.371745963927111 0 0 1 0 0 0 0 -1 forward_v I I I I #
coedge $-1 $368 $251 $369 $370 forward $151 $-1 #
coedge $-1 $371 $153 $368 $372 forward $97 $-1 #
coedge $-1 $153 $371 $373 $374 forward $97 $-1 #
coedge $-1 $254 $253 $153 $247 reversed $255 $-1 #
edge $-1 $375 -52.118667819439928 $376 52.118667819439928 $246 $377 forward 7 unknown #
coedge $-1 $155 $154 $378 $379 forward $61 $-1 #
coedge $-1 $380 $381 $154 $250 reversed $365 $-1 #
edge $-1 $257 -77.371745963927111 $382 77.371745963927111 $249 $383 forward 7 unknown #
coedge $-1 $243 $384 $155 $252 reversed $151 $-1 #
edge $-1 $385 -77.371745963927111 $256 77.371745963927111 $251 $386 forward 7 unknown #
coedge $-1 $246 $156 $384 $387 forward $255 $-1 #
coedge $-1 $156 $246 $380 $388 reversed $255 $-1 #
loop $-1 $-1 $253 $364 #
vertex $-1 $157 $389 #
vertex $-1 $157 $390 #
straight-curve $-1 77.371745963927111 0 16.657073427702283 0 1 0 I I #
face $-1 $391 $392 $37 $-1 $393 reversed single #
loop $-1 $-1 $264 $158 #
plane-surface $-1 0 -52.118667819439928 0 0 1 0 0 0 1 forward_v I I I I #
coedge $-1 $394 $395 $263 $396 forward $159 $-1 #
coedge $-1 $271 $161 $262 $396 reversed $101 $-1 #
coedge $-1 $269 $397 $161 $265 forward $260 $-1 #
edge $-1 $398 -10.765028308605181 $272 -1.0190619295890189 $264 $399 forward 7 unknown #
coedge $-1 $163 $162 $400 $401 reversed $64 $-1 #
coedge $-1 $402 $403 $162 $268 forward $404 $-1 #
edge $-1 $405 -42.696144618444137 $273 -26.655058072521811 $267 $406 forward 7 unknown #
coedge $-1 $407 $264 $163 $270 forward $260 $-1 #
edge $-1 $272 26.655058072521811 $408 42.696144618444137 $269 $409 forward 7 unknown #
coedge $-1 $164 $263 $402 $410 reversed $101 $-1 #
vertex $-1 $270 $411 #
vertex $-1 $268 $412 #
straight-curve $-1 -61.330659418004785 0 -6.9111070486861195 0 1 0 I I #
face $-1 $413 $414 $38 $-1 $415 reversed single #
loop $-1 $-1 $416 $166 #
plane-surface $-1 0 0 -16.657073427702283 0 0 1 1 0 0 forward_v I I I I #
coedge $-1 $417 $418 $171 $286 forward $167 $-1 #
coedge $-1 $419 $169 $416 $420 reversed $105 $-1 #
coedge $-1 $169 $419 $283 $421 reversed $105 $-1 #
coedge $-1 $284 $422 $169 $282 forward $414 $-1 #
edge $-1 $423 -10.765028308605181 $424 -1.0190619295890189 $281 $425 forward 7 unknown #
coedge $-1 $171 $170 $280 $421 forward $67 $-1 #
coedge $-1 $426 $281 $170 $285 forward $414 $-1 #
edge $-1 $424 26.655058072521811 $290 42.696144618444137 $284 $427 forward 7 unknown #
edge $-1 $291 -42.696144618444137 $428 -26.655058072521811 $278 $429 forward 7 unknown #
coedge $-1 $430 $172 $418 $431 forward $289 $-1 #
coedge $-1 $172 $430 $426 $432 reversed $289 $-1 #
loop $-1 $-1 $172 $413 #
vertex $-1 $432 $433 #
vertex $-1 $431 $434 #
straight-curve $-1 77.371745963927111 0 -6.9111070486861195 0 -1 0 I I #
face $-1 $-1 $435 $39 $-1 $436 forward single #
loop $-1 $-1 $180 $174 #
plane-surface $-1 0 52.118667819439928 0 0 -1 0 0 0 -1 forward_v I I I I #
coedge $-1 $437 $438 $439 $440 reversed $175 $-1 #
coedge $-1 $441 $177 $179 $303 forward $109 $-1 #
coedge $-1 $177 $441 $437 $442 forward $109 $-1 #
coedge $-1 $439 $180 $177 $300 forward $294 $-1 #
edge $-1 $306 10.653036526902998 $443 37.336094103035521 $299 $444 forward 7 unknown #
coedge $-1 $445 $446 $178 $302 forward $435 $-1 #
edge $-1 $447 10.585567616956201 $305 29.257691465319287 $301 $448 forward 7 unknown #
edge $-1 $306 -104.23733563887984 $447 -82.219570338472678 $179 $449 forward 7 unknown #
coedge $-1 $180 $439 $445 $450 reversed $294 $-1 #
vertex $-1 $450 $451 #
vertex $-1 $181 $452 #
straight-curve $-1 -34.647601841872259 52.118667819439928 95.728365633884636 0 0 -1 I I #
coedge $-1 $308 $308 $-1 $453 reversed $184 $-1 #
edge $-1 $454 0 $454 6.2831853071796004 $185 $455 forward 7 unknown #
vertex $-1 $188 $456 #
ellipse-curve $-1 -53.706928681966929 42.782605895258378 10.823254356647631 0 0.52991927123019833 0.84804809178421925 2.5 0 0 1 I I #
coedge $-1 $312 $312 $-1 $457 reversed $191 $-1 #
edge $-1 $458 0 $458 6.2831853071796004 $192 $459 forward 7 unknown #
vertex $-1 $195 $460 #
ellipse-curve $-1 -42.27133257791013 42.782605895258378 10.823254356647631 0 0.52991927123019833 0.84804809178421925 2.5 0 0 1 I I #
face $-1 $-1 $328 $42 $-1 $461 reversed single #
loop $-1 $-1 $462 $196 #
plane-surface $-1 0 0 16.657073427702283 0 0 1 1 0 0 forward_v I I I I #
coedge $-1 $463 $464 $465 $466 reversed $197 $-1 #
coedge $-1 $467 $199 $201 $326 forward $123 $-1 #
coedge $-1 $199 $467 $463 $468 forward $123 $-1 #
coedge $-1 $465 $202 $199 $323 forward $328 $-1 #
edge $-1 $330 -37.336094103035514 $469 -10.653036526902987 $322 $470 forward 7 unknown #
coedge $-1 $471 $472 $200 $325 forward $317 $-1 #
edge $-1 $473 10.585567616956201 $329 29.257691465319287 $324 $474 forward 7 unknown #
edge $-1 $330 -104.23733563887984 $473 -82.219570338472678 $201 $475 forward 7 unknown #
coedge $-1 $202 $465 $471 $476 reversed $328 $-1 #
loop $-1 $-1 $465 $316 #
vertex $-1 $476 $477 #
vertex $-1 $203 $478 #
straight-curve $-1 61.330659418004764 52.118667819439928 95.728365633884636 0 0 -1 I I #
coedge $-1 $332 $332 $-1 $479 reversed $206 $-1 #
edge $-1 $480 0 $480 6.2831853071796004 $207 $481 forward 7 unknown #
vertex $-1 $210 $482 #
ellipse-curve $-1 42.271332577910101 42.782605895258378 10.823254356647631 0 0.52991927123019833 0.84804809178421925 2.5 0 0 1 I I #
coedge $-1 $336 $336 $-1 $483 reversed $213 $-1 #
edge $-1 $484 0 $484 6.2831853071796004 $214 $485 forward 7 unknown #
vertex $-1 $217 $486 #
ellipse-curve $-1 53.7069286819669 42.782605895258378 10.823254356647631 0 0.52991927123019833 0.84804809178421925 2.5 0 0 1 I I #
face $-1 $-1 $352 $45 $-1 $487 reversed single #
loop $-1 $-1 $488 $218 #
plane-surface $-1 0 0 16.657073427702283 0 0 1 1 0 0 forward_v I I I I #
coedge $-1 $489 $490 $491 $492 reversed $219 $-1 #
coedge $-1 $493 $221 $223 $350 forward $137 $-1 #
coedge $-1 $221 $493 $489 $494 forward $137 $-1 #
coedge $-1 $491 $224 $221 $347 forward $352 $-1 #
edge $-1 $354 -15.638118742674529 $495 10.037766134314701 $346 $496 forward 7 unknown #
coedge $-1 $497 $498 $222 $349 forward $341 $-1 #
edge $-1 $499 -33.043237999123981 $353 -24.701099235961244 $348 $500 forward 7 unknown #
edge $-1 $354 2.774155172093667e-014 $499 11.053442355084115 $223 $501 forward 7 unknown #
coedge $-1 $224 $491 $497 $502 reversed $352 $-1 #
loop $-1 $-1 $491 $340 #
vertex $-1 $502 $503 #
vertex $-1 $225 $504 #
straight-curve $-1 -18.438295046854442 -52.118667819439928 63.09587872145736 0 0 -1 I I #
coedge $-1 $356 $356 $-1 $505 reversed $228 $-1 #
edge $-1 $506 0 $506 6.2831853071796004 $229 $507 forward 7 unknown #
vertex $-1 $232 $508 #
ellipse-curve $-1 -11.102327939143237 -47.947598437858559 13.031218054369511 0 -0.6560590369687036 0.75470957328743171 2.5 0 0 1 I I #
coedge $-1 $360 $360 $-1 $509 reversed $235 $-1 #
edge $-1 $510 0 $510 6.2831853071796004 $236 $511 forward 7 unknown #
vertex $-1 $239 $512 #
ellipse-curve $-1 -0.09837727757641801 -47.947598437858559 13.031218054369511 0 -0.6560590369687036 0.75470957328743171 2.5 0 0 1 I I #
face $-1 $-1 $255 $36 $-1 $513 reversed single #
loop $-1 $-1 $380 $240 #
plane-surface $-1 0 52.118667819439928 0 0 -1 0 0 0 -1 forward_v I I I I #
coedge $-1 $514 $378 $381 $515 forward $241 $-1 #
coedge $-1 $384 $243 $244 $372 reversed $151 $-1 #
coedge $-1 $378 $514 $243 $370 reversed $241 $-1 #
edge $-1 $385 -16.657073427702283 $516 16.657073427702283 $369 $517 forward 7 unknown #
coedge $-1 $245 $244 $514 $518 forward $97 $-1 #
edge $-1 $376 -77.371745963927111 $516 77.371745963927111 $368 $519 forward 7 unknown #
coedge $-1 $381 $380 $245 $374 reversed $365 $-1 #
edge $-1 $520 -77.371745963927111 $375 77.371745963927111 $373 $521 forward 7 unknown #
vertex $-1 $247 $522 #
vertex $-1 $387 $523 #
straight-curve $-1 77.371745963927111 0 -16.657073427702283 0 -1 0 I I #
coedge $-1 $367 $369 $248 $379 reversed $241 $-1 #
edge $-1 $382 -52.118667819439928 $385 52.118667819439928 $378 $524 forward 7 unknown #
coedge $-1 $373 $249 $254 $388 forward $365 $-1 #
coedge $-1 $249 $373 $367 $515 reversed $365 $-1 #
vertex $-1 $250 $525 #
straight-curve $-1 0 52.118667819439928 16.657073427702283 -1 0 0 I I #
coedge $-1 $251 $368 $253 $387 reversed $151 $-1 #
vertex $-1 $379 $526 #
straight-curve $-1 0 -52.118667819439928 16.657073427702283 1 0 0 I I #
edge $-1 $256 -16.657073427702283 $376 16.657073427702283 $253 $527 forward 7 unknown #
edge $-1 $257 -16.657073427702283 $375 16.657073427702283 $254 $528 forward 7 unknown #
point $-1 77.371745963927111 -52.118667819439928 16.657073427702283 #
point $-1 77.371745963927111 52.118667819439928 16.657073427702283 #
face $-1 $-1 $404 $37 $-1 $529 reversed single #
loop $-1 $-1 $400 $259 #
plane-surface $-1 -77.371745963927111 0 0 1 0 0 0 0 -1 forward_v I I I I #
coedge $-1 $530 $262 $397 $531 forward $159 $-1 #
coedge $-1 $262 $530 $532 $533 forward $159 $-1 #
edge $-1 $534 -52.118667819439928 $398 52.118667819439928 $262 $535 forward 7 unknown #
coedge $-1 $264 $407 $394 $531 reversed $260 $-1 #
vertex $-1 $531 $536 #
straight-curve $-1 -61.330659418004785 -52.118667819439928 -5.8920451190971006 0 0 1 I I #
coedge $-1 $537 $538 $266 $401 forward $392 $-1 #
edge $-1 $408 -52.118667819439928 $405 52.118667819439928 $400 $539 forward 7 unknown #
coedge $-1 $532 $267 $271 $410 forward $404 $-1 #
coedge $-1 $267 $532 $537 $540 reversed $404 $-1 #
loop $-1 $-1 $402 $391 #
vertex $-1 $540 $541 #
straight-curve $-1 -34.675601345482974 52.118667819439928 -6.9111070486861195 1 0 0 I I #
coedge $-1 $397 $269 $538 $542 forward $260 $-1 #
vertex $-1 $542 $543 #
straight-curve $-1 -34.675601345482974 -52.118667819439928 -6.9111070486861195 -1 0 0 I I #
edge $-1 $273 1.0190619295890189 $534 10.765028308605181 $402 $544 forward 7 unknown #
point $-1 -61.330659418004785 -52.118667819439928 -6.9111070486861195 #
point $-1 -61.330659418004785 52.118667819439928 -6.9111070486861195 #
face $-1 $-1 $289 $38 $-1 $545 reversed single #
loop $-1 $-1 $284 $275 #
plane-surface $-1 0 52.118667819439928 0 0 -1 0 0 0 -1 forward_v I I I I #
coedge $-1 $546 $547 $279 $420 forward $276 $-1 #
coedge $-1 $548 $278 $419 $549 forward $167 $-1 #
coedge $-1 $278 $548 $287 $431 reversed $167 $-1 #
coedge $-1 $280 $279 $417 $549 reversed $105 $-1 #
edge $-1 $550 -52.118667819439928 $423 52.118667819439928 $416 $551 forward 7 unknown #
edge $-1 $424 -52.118667819439928 $428 52.118667819439928 $280 $552 forward 7 unknown #
coedge $-1 $281 $426 $546 $553 reversed $414 $-1 #
vertex $-1 $553 $554 #
vertex $-1 $285 $555 #
straight-curve $-1 61.330659418004785 52.118667819439928 -5.8920451190971006 0 0 1 I I #
coedge $-1 $422 $284 $288 $432 forward $414 $-1 #
straight-curve $-1 34.675601345482974 52.118667819439928 -6.9111070486861195 1 0 0 I I #
vertex $-1 $286 $556 #
straight-curve $-1 34.675601345482974 -52.118667819439928 -6.9111070486861195 -1 0 0 I I #
coedge $-1 $288 $287 $557 $558 reversed $289 $-1 #
edge $-1 $291 6.9111070486861195 $559 16.657073427702283 $287 $560 forward 7 unknown #
edge $-1 $290 6.9111070486861195 $561 16.657073427702283 $288 $562 forward 7 unknown #
point $-1 77.371745963927111 52.118667819439928 -6.9111070486861195 #
point $-1 77.371745963927111 -52.118667819439928 -6.9111070486861195 #
loop $-1 $-1 $301 $293 #
plane-surface $-1 0 0 16.657073427702283 0 0 1 1 0 0 forward_v I I I I #
coedge $-1 $438 $296 $298 $442 reversed $175 $-1 #
coedge $-1 $296 $437 $563 $564 reversed $175 $-1 #
coedge $-1 $304 $299 $296 $440 forward $294 $-1 #
edge $-1 $443 -90.73893034829166 $565 -79.071292206182349 $439 $566 forward 7 unknown #
coedge $-1 $298 $297 $446 $567 reversed $109 $-1 #
edge $-1 $568 82.219570338472678 $443 104.23733563887984 $437 $569 forward 7 unknown #
vertex $-1 $300 $570 #
straight-curve $-1 -23.994565314969261 52.118667819439935 4.9894352855929718 -1 0 0 I I #
coedge $-1 $563 $301 $304 $450 forward $435 $-1 #
coedge $-1 $301 $563 $441 $567 forward $435 $-1 #
vertex $-1 $302 $571 #
straight-curve $-1 -34.647601841872259 22.860976354120641 16.657073427702286 0 1 0 I I #
straight-curve $-1 -34.647601841872259 -36.279605761783309 60.226808222325758 0 -0.84804809178421925 0.52991927123019833 I I #
edge $-1 $305 34.647601841872259 $565 61.330659418004785 $304 $572 forward 7 unknown #
point $-1 -34.647601841872259 52.118667819439928 16.657073427702283 #
point $-1 -34.647601841872259 52.118667819439928 4.9894352855929753 #
edge $-1 $573 1 $573 0 $308 $-1 forward 7 unknown #
vertex $-1 $309 $574 #
ellipse-curve $-1 -53.706928681966929 38.388013373277779 3.7904363317754894 0 0.52991927123019833 0.84804809178421925 2.5 0 0 1 I I #
point $-1 -51.206928681966929 42.782605895258364 10.82325435664761 #
edge $-1 $575 1 $575 0 $312 $-1 forward 7 unknown #
vertex $-1 $313 $576 #
ellipse-curve $-1 -42.27133257791013 38.388013373277779 3.7904363317754894 0 0.52991927123019833 0.84804809178421925 2.5 0 0 1 I I #
point $-1 -39.77133257791013 42.782605895258364 10.82325435664761 #
plane-surface $-1 0 52.118667819439928 0 0 -1 0 0 0 -1 forward_v I I I I #
coedge $-1 $472 $471 $464 $577 forward $317 $-1 #
coedge $-1 $464 $319 $321 $468 reversed $197 $-1 #
coedge $-1 $319 $463 $462 $577 reversed $197 $-1 #
coedge $-1 $327 $322 $319 $466 forward $328 $-1 #
edge $-1 $469 -90.73893034829166 $578 -79.071292206182349 $465 $579 forward 7 unknown #
coedge $-1 $321 $320 $472 $580 reversed $123 $-1 #
edge $-1 $581 82.219570338472678 $469 104.23733563887984 $463 $582 forward 7 unknown #
vertex $-1 $323 $583 #
straight-curve $-1 23.99456531496925 52.118667819439935 4.9894352855929718 -1 0 0 I I #
coedge $-1 $462 $324 $327 $476 forward $317 $-1 #
coedge $-1 $324 $462 $467 $580 forward $317 $-1 #
vertex $-1 $325 $584 #
straight-curve $-1 61.330659418004764 22.860976354120641 16.657073427702286 0 1 0 I I #
straight-curve $-1 61.330659418004764 -36.279605761783309 60.226808222325758 0 -0.84804809178421925 0.52991927123019833 I I #
edge $-1 $329 -61.330659418004764 $578 -34.647601841872238 $327 $585 forward 7 unknown #
point $-1 61.330659418004764 52.118667819439928 16.657073427702283 #
point $-1 61.330659418004764 52.118667819439928 4.9894352855929753 #
edge $-1 $586 1 $586 0 $332 $-1 forward 7 unknown #
vertex $-1 $333 $587 #
ellipse-curve $-1 42.271332577910101 38.388013373277779 3.7904363317754894 0 0.52991927123019833 0.84804809178421925 2.5 0 0 1 I I #
point $-1 44.771332577910101 42.782605895258364 10.82325435664761 #
edge $-1 $588 1 $588 0 $336 $-1 forward 7 unknown #
vertex $-1 $337 $589 #
ellipse-curve $-1 53.7069286819669 38.388013373277779 3.7904363317754894 0 0.52991927123019833 0.84804809178421925 2.5 0 0 1 I I #
point $-1 56.2069286819669 42.782605895258364 10.82325435664761 #
plane-surface $-1 0 -52.118667819439928 0 0 1 0 0 0 1 forward_v I I I I #
coedge $-1 $498 $497 $490 $590 forward $341 $-1 #
coedge $-1 $490 $343 $345 $494 reversed $219 $-1 #
coedge $-1 $343 $489 $488 $590 reversed $219 $-1 #
coedge $-1 $351 $346 $343 $492 forward $352 $-1 #
edge $-1 $495 -53.690516040420619 $591 -46.438805293755081 $491 $592 forward 7 unknown #
coedge $-1 $345 $344 $498 $593 reversed $137 $-1 #
edge $-1 $594 -11.053442355084115 $495 -2.774155172093667e-014 $489 $595 forward 7 unknown #
vertex $-1 $347 $596 #
straight-curve $-1 -2.8001763041799137 -52.118667819439928 9.4053626810367383 1 0 0 I I #
coedge $-1 $488 $348 $351 $502 forward $341 $-1 #
coedge $-1 $348 $488 $493 $593 forward $341 $-1 #
vertex $-1 $349 $597 #
straight-curve $-1 -18.438295046854442 -76.819767055401172 16.657073427702286 0 -1 0 I I #
straight-curve $-1 -18.438295046854442 -52.118667819439949 9.4053626810367206 0 0.75470957328743171 0.6560590369687036 I I #
edge $-1 $353 -18.438295046854442 $591 7.2375898301347874 $351 $598 forward 7 unknown #
point $-1 -18.438295046854442 -52.118667819439928 16.657073427702283 #
point $-1 -18.438295046854442 -52.118667819439928 9.4053626810367383 #
edge $-1 $599 1 $599 0 $356 $-1 forward 7 unknown #
vertex $-1 $357 $600 #
ellipse-curve $-1 -11.102327939143237 -43.737684396041331 8.1882660469448929 0 -0.6560590369687036 0.75470957328743171 2.5 0 0 1 I I #
point $-1 -8.6023279391432368 -47.947598437858538 13.031218054369489 #
edge $-1 $601 1 $601 0 $360 $-1 forward 7 unknown #
vertex $-1 $361 $602 #
ellipse-curve $-1 -0.09837727757641801 -43.737684396041331 8.1882660469448929 0 -0.6560590369687036 0.75470957328743171 2.5 0 0 1 I I #
point $-1 2.401622722423582 -47.947598437858538 13.031218054369489 #
plane-surface $-1 77.371745963927111 0 0 -1 0 0 0 0 1 forward_v I I I I #
coedge $-1 $369 $367 $371 $518 reversed $241 $-1 #
edge $-1 $382 -16.657073427702283 $520 16.657073427702283 $381 $603 forward 7 unknown #
vertex $-1 $518 $604 #
straight-curve $-1 -77.371745963927111 -52.118667819439928 0 0 0 -1 I I #
edge $-1 $516 -52.118667819439928 $520 52.118667819439928 $514 $605 forward 7 unknown #
straight-curve $-1 0 -52.118667819439928 -16.657073427702283 -1 0 0 I I #
vertex $-1 $374 $606 #
straight-curve $-1 0 52.118667819439928 -16.657073427702283 1 0 0 I I #
point $-1 77.371745963927111 52.118667819439928 -16.657073427702283 #
point $-1 77.371745963927111 -52.118667819439928 -16.657073427702283 #
straight-curve $-1 -77.371745963927111 0 16.657073427702283 0 -1 0 I I #
point $-1 -77.371745963927111 52.118667819439928 16.657073427702283 #
point $-1 -77.371745963927111 -52.118667819439928 16.657073427702283 #
straight-curve $-1 77.371745963927111 -52.118667819439928 0 0 0 -1 I I #
straight-curve $-1 77.371745963927111 52.118667819439928 0 0 0 -1 I I #
plane-surface $-1 0 52.118667819439928 0 0 -1 0 0 0 -1 forward_v I I I I #
coedge $-1 $395 $394 $607 $608 forward $159 $-1 #
edge $-1 $398 61.330659418004785 $609 77.371745963927111 $397 $610 forward 7 unknown #
coedge $-1 $403 $402 $395 $533 reversed $404 $-1 #
edge $-1 $611 -77.371745963927111 $534 -61.330659418004785 $532 $612 forward 7 unknown #
vertex $-1 $410 $613 #
straight-curve $-1 -61.330659418004785 0 -16.657073427702283 0 -1 0 I I #
point $-1 -61.330659418004785 -52.118667819439928 -16.657073427702283 #
coedge $-1 $607 $400 $403 $540 forward $392 $-1 #
coedge $-1 $400 $607 $407 $542 reversed $392 $-1 #
straight-curve $-1 -77.371745963927111 0 -6.9111070486861195 0 1 0 I I #
edge $-1 $405 6.9111070486861195 $611 16.657073427702283 $403 $614 forward 7 unknown #
point $-1 -77.371745963927111 52.118667819439928 -6.9111070486861195 #
edge $-1 $408 6.9111070486861195 $609 16.657073427702283 $538 $615 forward 7 unknown #
point $-1 -77.371745963927111 -52.118667819439928 -6.9111070486861195 #
straight-curve $-1 -61.330659418004785 52.118667819439928 -5.8920451190971006 0 0 -1 I I #
plane-surface $-1 77.371745963927111 0 0 -1 0 0 0 0 1 forward_v I I I I #
coedge $-1 $557 $416 $422 $553 forward $276 $-1 #
coedge $-1 $416 $557 $548 $616 forward $276 $-1 #
coedge $-1 $418 $417 $547 $616 reversed $167 $-1 #
edge $-1 $428 1.0190619295890189 $550 10.765028308605181 $417 $617 forward 7 unknown #
vertex $-1 $420 $618 #
straight-curve $-1 61.330659418004785 0 -16.657073427702283 0 1 0 I I #
straight-curve $-1 61.330659418004785 0 -6.9111070486861195 0 -1 0 I I #
edge $-1 $423 61.330659418004785 $561 77.371745963927111 $422 $619 forward 7 unknown #
point $-1 61.330659418004785 52.118667819439928 -16.657073427702283 #
point $-1 61.330659418004785 52.118667819439928 -6.9111070486861195 #
point $-1 61.330659418004785 -52.118667819439928 -6.9111070486861195 #
coedge $-1 $547 $546 $430 $558 forward $276 $-1 #
edge $-1 $561 -52.118667819439928 $559 52.118667819439928 $430 $620 forward 7 unknown #
vertex $-1 $431 $621 #
straight-curve $-1 77.371745963927111 -52.118667819439928 0 0 0 -1 I I #
vertex $-1 $558 $622 #
straight-curve $-1 77.371745963927111 52.118667819439928 0 0 0 -1 I I #
coedge $-1 $446 $445 $438 $564 forward $435 $-1 #
edge $-1 $565 -29.257691465319287 $568 -10.585567616956201 $563 $623 forward 7 unknown #
vertex $-1 $564 $624 #
straight-curve $-1 -61.330659418004785 52.118667819439928 95.728365633884636 0 0 1 I I #
edge $-1 $568 -37.336094103035521 $447 -10.653036526902998 $446 $625 forward 7 unknown #
vertex $-1 $567 $626 #
straight-curve $-1 -61.330659418004785 -36.279605761783309 60.226808222325758 0 0.84804809178421925 -0.52991927123019833 I I #
point $-1 -61.330659418004785 52.118667819439928 4.9894352855929753 #
point $-1 -34.647601841872259 33.446543971076842 16.657073427702286 #
straight-curve $-1 0 52.118667819439928 16.657073427702283 -1 0 0 I I #
vertex $-1 $453 $627 #
point $-1 -51.206928681966929 38.388013373277779 3.7904363317754894 #
vertex $-1 $457 $628 #
point $-1 -39.77133257791013 38.388013373277779 3.7904363317754894 #
edge $-1 $578 -29.257691465319287 $581 -10.585567616956201 $462 $629 forward 7 unknown #
vertex $-1 $577 $630 #
straight-curve $-1 34.647601841872238 52.118667819439928 95.728365633884636 0 0 1 I I #
edge $-1 $581 10.653036526902987 $473 37.336094103035514 $472 $631 forward 7 unknown #
vertex $-1 $580 $632 #
straight-curve $-1 34.647601841872238 -36.279605761783309 60.226808222325758 0 0.84804809178421925 -0.52991927123019833 I I #
point $-1 34.647601841872238 52.118667819439928 4.9894352855929753 #
point $-1 61.330659418004764 33.446543971076842 16.657073427702286 #
straight-curve $-1 0 52.118667819439928 16.657073427702283 -1 0 0 I I #
vertex $-1 $479 $633 #
point $-1 44.771332577910101 38.388013373277779 3.7904363317754894 #
vertex $-1 $483 $634 #
point $-1 56.2069286819669 38.388013373277779 3.7904363317754894 #
edge $-1 $591 24.701099235961244 $594 33.043237999123981 $488 $635 forward 7 unknown #
vertex $-1 $492 $636 #
straight-curve $-1 7.2375898301347874 -52.118667819439928 63.09587872145736 0 0 1 I I #
edge $-1 $594 -10.037766134314701 $499 15.638118742674529 $498 $637 forward 7 unknown #
vertex $-1 $593 $638 #
straight-curve $-1 7.2375898301347874 -52.118667819439949 9.4053626810367206 0 -0.75470957328743171 -0.6560590369687036 I I #
point $-1 7.2375898301347874 -52.118667819439928 9.4053626810367383 #
point $-1 -18.438295046854442 -43.776529056277191 16.657073427702283 #
straight-curve $-1 0 -52.118667819439928 16.657073427702283 1 0 0 I I #
vertex $-1 $505 $639 #
point $-1 -8.6023279391432368 -43.737684396041331 8.1882660469448929 #
vertex $-1 $509 $640 #
point $-1 2.401622722423582 -43.737684396041331 8.1882660469448929 #
straight-curve $-1 -77.371745963927111 52.118667819439928 0 0 0 -1 I I #
point $-1 -77.371745963927111 -52.118667819439928 -16.657073427702283 #
straight-curve $-1 -77.371745963927111 0 -16.657073427702283 0 1 0 I I #
point $-1 -77.371745963927111 52.118667819439928 -16.657073427702283 #
coedge $-1 $538 $537 $530 $608 reversed $392 $-1 #
edge $-1 $609 -52.118667819439928 $611 52.118667819439928 $607 $641 forward 7 unknown #
vertex $-1 $608 $642 #
straight-curve $-1 0 -52.118667819439928 -16.657073427702283 -1 0 0 I I #
vertex $-1 $533 $643 #
straight-curve $-1 0 52.118667819439928 -16.657073427702283 1 0 0 I I #
point $-1 -61.330659418004785 52.118667819439928 -16.657073427702283 #
straight-curve $-1 -77.371745963927111 52.118667819439928 0 0 0 -1 I I #
straight-curve $-1 -77.371745963927111 -52.118667819439928 0 0 0 -1 I I #
edge $-1 $559 -77.371745963927111 $550 -61.330659418004785 $548 $644 forward 7 unknown #
straight-curve $-1 61.330659418004785 -52.118667819439928 -5.8920451190971006 0 0 -1 I I #
point $-1 61.330659418004785 -52.118667819439928 -16.657073427702283 #
straight-curve $-1 0 52.118667819439928 -16.657073427702283 1 0 0 I I #
straight-curve $-1 77.371745963927111 0 -16.657073427702283 0 -1 0 I I #
point $-1 77.371745963927111 -52.118667819439928 -16.657073427702283 #
point $-1 77.371745963927111 52.118667819439928 -16.657073427702283 #
straight-curve $-1 -61.330659418004785 22.860976354120641 16.657073427702286 0 -1 0 I I #
point $-1 -61.330659418004785 52.118667819439928 16.657073427702283 #
straight-curve $-1 -23.994565314969261 33.446543971076842 16.657073427702276 1 0 0 I I #
point $-1 -61.330659418004785 33.446543971076842 16.657073427702286 #
point $-1 -53.706928681966929 37.063215195202282 1.6703161023149411 #
point $-1 -42.27133257791013 37.063215195202282 1.6703161023149411 #
straight-curve $-1 34.647601841872238 22.860976354120641 16.657073427702286 0 -1 0 I I #
point $-1 34.647601841872238 52.118667819439928 16.657073427702283 #
straight-curve $-1 23.99456531496925 33.446543971076842 16.657073427702276 1 0 0 I I #
point $-1 34.647601841872238 33.446543971076842 16.657073427702286 #
point $-1 42.271332577910101 37.063215195202282 1.6703161023149411 #
point $-1 53.7069286819669 37.063215195202282 1.6703161023149411 #
straight-curve $-1 7.2375898301347874 -76.819767055401172 16.657073427702286 0 1 0 I I #
point $-1 7.2375898301347874 -52.118667819439928 16.657073427702283 #
straight-curve $-1 -2.8001763041799137 -43.776529056277198 16.657073427702283 -1 0 0 I I #
point $-1 7.2375898301347874 -43.776529056277191 16.657073427702283 #
point $-1 -11.102327939143237 -42.097536803619576 6.3014921137263142 #
point $-1 -0.09837727757641801 -42.097536803619576 6.3014921137263142 #
straight-curve $-1 -77.371745963927111 0 -16.657073427702283 0 1 0 I I #
point $-1 -77.371745963927111 -52.118667819439928 -16.657073427702283 #
point $-1 -77.371745963927111 52.118667819439928 -16.657073427702283 #
straight-curve $-1 0 -52.118667819439928 -16.657073427702283 -1 0 0 I I #
End-of-ACIS-data 