500 0 15 0           
7 Unknown 11 ACIS 5.0 NT 24 Thu Mar 25 20:03:18 1999 
-1 9.9999999999999995e-007 1e-010 
body $-1 $15 $-1 $16 #
body $-1 $17 $-1 $18 #
body $-1 $19 $-1 $20 #
body $-1 $21 $-1 $22 #
body $-1 $23 $-1 $24 #
body $-1 $25 $-1 $26 #
body $-1 $27 $-1 $28 #
body $-1 $29 $-1 $30 #
body $-1 $31 $-1 $32 #
body $-1 $33 $-1 $34 #
body $-1 $35 $-1 $36 #
body $-1 $37 $-1 $38 #
body $-1 $39 $-1 $40 #
body $-1 $41 $-1 $42 #
body $-1 $43 $-1 $44 #
lump $-1 $-1 $45 $0 #
transform $-1 1 0 0 0 1 0 0 0 1 63.096407971434672 41.851556448034771 17.976870068640856 1 rotate no_reflect no_shear #
lump $-1 $-1 $46 $1 #
transform $-1 1 0 0 0 1 0 0 0 1 63.096407971434672 41.851556448034771 17.976870068640856 1 rotate no_reflect no_shear #
lump $-1 $-1 $47 $2 #
transform $-1 1 0 0 0 1 0 0 0 1 63.096407971434672 41.851556448034771 17.976870068640856 1 rotate no_reflect no_shear #
lump $-1 $-1 $48 $3 #
transform $-1 1 0 0 0 1 0 0 0 1 63.096407971434672 41.851556448034771 17.976870068640856 1 rotate no_reflect no_shear #
lump $-1 $-1 $49 $4 #
transform $-1 1 0 0 0 1 0 0 0 1 63.096407971434672 41.851556448034771 17.976870068640856 1 rotate no_reflect no_shear #
lump $-1 $-1 $50 $5 #
transform $-1 1 0 0 0 1 0 0 0 1 63.096407971434672 41.851556448034771 17.976870068640856 1 rotate no_reflect no_shear #
lump $-1 $-1 $51 $6 #
transform $-1 1 0 0 0 1 0 0 0 1 63.096407971434672 41.851556448034771 17.976870068640856 1 rotate no_reflect no_shear #
lump $-1 $-1 $52 $7 #
transform $-1 1 0 0 0 1 0 0 0 1 63.096407971434672 41.851556448034771 17.976870068640856 1 rotate no_reflect no_shear #
lump $-1 $-1 $53 $8 #
transform $-1 1 0 0 0 1 0 0 0 1 63.096407971434672 41.851556448034771 17.976870068640856 1 rotate no_reflect no_shear #
lump $-1 $-1 $54 $9 #
transform $-1 1 0 0 0 1 0 0 0 1 63.096407971434672 41.851556448034771 17.976870068640856 1 rotate no_reflect no_shear #
lump $-1 $-1 $55 $10 #
transform $-1 1 0 0 0 1 0 0 0 1 63.096407971434672 41.851556448034771 17.976870068640856 1 rotate no_reflect no_shear #
lump $-1 $-1 $56 $11 #
transform $-1 1 0 0 0 1 0 0 0 1 63.096407971434672 41.851556448034771 17.976870068640856 1 rotate no_reflect no_shear #
lump $-1 $-1 $57 $12 #
transform $-1 1 0 0 0 1 0 0 0 1 63.096407971434672 41.851556448034771 17.976870068640856 1 rotate no_reflect no_shear #
lump $-1 $-1 $58 $13 #
transform $-1 1 0 0 0 1 0 0 0 1 63.096407971434672 41.851556448034771 17.976870068640856 1 rotate no_reflect no_shear #
lump $-1 $-1 $59 $14 #
transform $-1 1 0 0 0 1 0 0 0 1 63.096407971434672 41.851556448034771 17.976870068640856 1 rotate no_reflect no_shear #
shell $-1 $-1 $-1 $60 $-1 $15 #
shell $-1 $-1 $-1 $61 $-1 $17 #
shell $-1 $-1 $-1 $62 $-1 $19 #
shell $-1 $-1 $-1 $63 $-1 $21 #
shell $-1 $-1 $-1 $64 $-1 $23 #
shell $-1 $-1 $-1 $65 $-1 $25 #
shell $-1 $-1 $-1 $66 $-1 $27 #
shell $-1 $-1 $-1 $67 $-1 $29 #
shell $-1 $-1 $-1 $68 $-1 $31 #
shell $-1 $-1 $-1 $69 $-1 $33 #
shell $-1 $-1 $-1 $70 $-1 $35 #
shell $-1 $-1 $-1 $71 $-1 $37 #
shell $-1 $-1 $-1 $72 $-1 $39 #
shell $-1 $-1 $-1 $73 $-1 $41 #
shell $-1 $-1 $-1 $74 $-1 $43 #
face $-1 $75 $76 $45 $-1 $77 forward single #
face $-1 $78 $79 $46 $-1 $80 reversed single #
face $-1 $81 $82 $47 $-1 $83 reversed single #
face $-1 $84 $85 $48 $-1 $86 reversed single #
face $-1 $87 $88 $49 $-1 $89 forward single #
face $-1 $90 $91 $50 $-1 $92 forward single #
face $-1 $93 $94 $51 $-1 $95 reversed single #
face $-1 $96 $97 $52 $-1 $98 forward single #
face $-1 $99 $100 $53 $-1 $101 forward single #
face $-1 $102 $103 $54 $-1 $104 reversed single #
face $-1 $105 $106 $55 $-1 $107 forward single #
face $-1 $108 $109 $56 $-1 $110 forward single #
face $-1 $111 $112 $57 $-1 $113 reversed single #
face $-1 $114 $115 $58 $-1 $116 forward single #
face $-1 $117 $118 $59 $-1 $119 forward single #
face $-1 $120 $121 $45 $-1 $122 reversed single #
loop $-1 $-1 $123 $60 #
plane-surface $-1 0 0 17.976870068640856 0 0 1 1 0 0 forward_v I I I I #
face $-1 $124 $125 $46 $-1 $126 reversed single #
loop $-1 $-1 $127 $61 #
plane-surface $-1 0 -34.904964018791489 11.673691254022039 0 0 1 1 0 0 forward_v I I I I #
face $-1 $128 $129 $47 $-1 $130 reversed single #
loop $-1 $-1 $131 $62 #
plane-surface $-1 0 34.904964018791489 11.673691254022039 0 0 1 1 0 0 forward_v I I I I #
face $-1 $132 $133 $48 $-1 $134 reversed single #
loop $-1 $-1 $135 $63 #
plane-surface $-1 -63.096407971434658 -24.928054238815776 12.734933129443377 -0.85716730853699208 0 0.51503806187062418 0.51503806187062418 0 0.85716730853699208 forward_v I I I I #
face $-1 $136 $137 $49 $-1 $138 forward single #
loop $-1 $139 $140 $64 #
cone-surface $-1 -61.092987634336843 -26.226761674843956 15.098382568106812 0.85716730853699208 0 -0.51503806187062418 0.25751903093531209 0 0.42858365426849604 1 I I 0 1 0.5 forward I I I I #
face $-1 $141 $142 $50 $-1 $143 forward single #
loop $-1 $144 $145 $65 #
cone-surface $-1 -61.092987634336843 -23.629346802787591 15.098382568106812 0.85716730853699208 0 -0.51503806187062418 0.25751903093531209 0 0.42858365426849604 1 I I 0 1 0.5 forward I I I I #
face $-1 $146 $147 $51 $-1 $148 reversed single #
loop $-1 $-1 $149 $66 #
plane-surface $-1 -171.26476436988798 7.1054273576010019e-015 77.729036474655203 0 1 0 -0.85716730853699208 0 0.51503806187062418 forward_v I I I I #
face $-1 $150 $151 $52 $-1 $152 forward single #
loop $-1 $153 $154 $67 #
cone-surface $-1 -61.092987634336843 1.7316099147042507 15.098382568106812 0.85716730853699208 0 -0.51503806187062418 0.25751903093531209 0 0.42858365426849604 1 I I 0 1 0.5 forward I I I I #
face $-1 $155 $156 $53 $-1 $157 forward single #
loop $-1 $158 $159 $68 #
cone-surface $-1 -61.092987634336843 4.3290247867606126 15.098382568106812 0.85716730853699208 0 -0.51503806187062418 0.25751903093531209 0 0.42858365426849604 1 I I 0 1 0.5 forward I I I I #
face $-1 $160 $161 $54 $-1 $162 reversed single #
loop $-1 $-1 $163 $69 #
plane-surface $-1 -1.8976953737771538 -24.928054238815776 120.90328952789672 0.85716730853699208 0 0.51503806187062418 0.51503806187062418 0 -0.85716730853699208 forward_v I I I I #
face $-1 $164 $165 $55 $-1 $166 forward single #
loop $-1 $167 $168 $70 #
cone-surface $-1 61.092987634336843 -26.226761674843956 15.098382568106812 -0.85716730853699208 0 -0.51503806187062418 0.25751903093531209 0 -0.42858365426849604 1 I I 0 1 0.5 forward I I I I #
face $-1 $169 $170 $56 $-1 $171 forward single #
loop $-1 $172 $173 $71 #
cone-surface $-1 61.092987634336843 -23.629346802787591 15.098382568106812 -0.85716730853699208 0 -0.51503806187062418 0.25751903093531209 0 -0.42858365426849604 1 I I 0 1 0.5 forward I I I I #
face $-1 $174 $175 $57 $-1 $176 reversed single #
loop $-1 $-1 $177 $72 #
plane-surface $-1 106.27066102467617 7.1054273576010019e-015 185.89739287310854 0 1 0 0.85716730853699208 0 0.51503806187062418 forward_v I I I I #
face $-1 $178 $179 $58 $-1 $180 forward single #
loop $-1 $181 $182 $73 #
cone-surface $-1 61.092987634336843 1.7316099147042507 15.098382568106812 -0.85716730853699208 0 -0.51503806187062418 0.25751903093531209 0 -0.42858365426849604 1 I I 0 1 0.5 forward I I I I #
face $-1 $183 $184 $59 $-1 $185 forward single #
loop $-1 $186 $187 $74 #
cone-surface $-1 61.092987634336843 4.3290247867606126 15.098382568106812 -0.85716730853699208 0 -0.51503806187062418 0.25751903093531209 0 -0.42858365426849604 1 I I 0 1 0.5 forward I I I I #
face $-1 $188 $189 $45 $-1 $190 reversed single #
loop $-1 $-1 $191 $75 #
plane-surface $-1 0 0 -17.976870068640856 0 0 1 1 0 0 forward_v I I I I #
coedge $-1 $192 $193 $194 $195 forward $76 $-1 #
face $-1 $196 $197 $46 $-1 $198 reversed single #
loop $-1 $-1 $199 $78 #
plane-surface $-1 0 -27.958371589548204 14.825280661331448 0 -1 0 0 0 -1 forward_v I I I I #
coedge $-1 $200 $201 $202 $203 reversed $79 $-1 #
face $-1 $204 $205 $47 $-1 $206 forward single #
loop $-1 $-1 $207 $81 #
plane-surface $-1 0 27.958371589548207 14.825280661331448 0 1 0 0 0 1 forward_v I I I I #
coedge $-1 $208 $209 $210 $211 reversed $82 $-1 #
face $-1 $212 $213 $48 $-1 $214 reversed single #
loop $-1 $-1 $215 $84 #
plane-surface $-1 -171.26476436988798 -21.897736888083351 77.729036474655203 0 -1 0 0.85716730853699208 0 -0.51503806187062418 forward_v I I I I #
coedge $-1 $216 $217 $218 $219 reversed $85 $-1 #
face $-1 $-1 $220 $49 $-1 $221 forward single #
loop $-1 $222 $223 $87 #
cone-surface $-1 -60.450112152934096 -26.226761674843956 14.712104021703844 0.85716730853699208 0 -0.51503806187062418 0.12875951546765604 0 0.21429182713424802 1 I I -0.70710678118654746 0.70710678118654746 0.25 forward I I I I #
loop $-1 $-1 $224 $64 #
coedge $-1 $140 $140 $225 $226 reversed $88 $-1 #
face $-1 $-1 $227 $50 $-1 $228 forward single #
loop $-1 $229 $230 $90 #
cone-surface $-1 -60.450112152934096 -23.629346802787591 14.712104021703844 0.85716730853699208 0 -0.51503806187062418 0.12875951546765604 0 0.21429182713424802 1 I I -0.70710678118654746 0.70710678118654746 0.25 forward I I I I #
loop $-1 $-1 $231 $65 #
coedge $-1 $145 $145 $232 $233 reversed $91 $-1 #
face $-1 $234 $235 $51 $-1 $236 reversed single #
loop $-1 $-1 $237 $93 #
plane-surface $-1 -63.096407971434658 3.0303173507324317 12.734933129443377 -0.85716730853699208 0 0.51503806187062418 0.51503806187062418 0 0.85716730853699208 forward_v I I I I #
coedge $-1 $238 $239 $240 $241 reversed $94 $-1 #
face $-1 $-1 $242 $52 $-1 $243 forward single #
loop $-1 $244 $245 $96 #
cone-surface $-1 -60.450112152934096 1.7316099147042507 14.712104021703844 0.85716730853699208 0 -0.51503806187062418 0.12875951546765604 0 0.21429182713424802 1 I I -0.70710678118654746 0.70710678118654746 0.25 forward I I I I #
loop $-1 $-1 $246 $67 #
coedge $-1 $154 $154 $247 $248 reversed $97 $-1 #
face $-1 $-1 $249 $53 $-1 $250 forward single #
loop $-1 $251 $252 $99 #
cone-surface $-1 -60.450112152934096 4.3290247867606126 14.712104021703844 0.85716730853699208 0 -0.51503806187062418 0.12875951546765604 0 0.21429182713424802 1 I I -0.70710678118654746 0.70710678118654746 0.25 forward I I I I #
loop $-1 $-1 $253 $68 #
coedge $-1 $159 $159 $254 $255 reversed $100 $-1 #
face $-1 $256 $257 $54 $-1 $258 forward single #
loop $-1 $-1 $259 $102 #
plane-surface $-1 106.27066102467617 -21.897736888083351 185.89739287310854 0 -1 0 -0.85716730853699208 0 -0.51503806187062418 forward_v I I I I #
coedge $-1 $260 $261 $262 $263 reversed $103 $-1 #
face $-1 $-1 $264 $55 $-1 $265 forward single #
loop $-1 $266 $267 $105 #
cone-surface $-1 60.450112152934096 -26.226761674843956 14.712104021703844 -0.85716730853699208 0 -0.51503806187062418 0.12875951546765604 0 -0.21429182713424802 1 I I -0.70710678118654746 0.70710678118654746 0.25 forward I I I I #
loop $-1 $-1 $268 $70 #
coedge $-1 $168 $168 $269 $270 reversed $106 $-1 #
face $-1 $-1 $271 $56 $-1 $272 forward single #
loop $-1 $273 $274 $108 #
cone-surface $-1 60.450112152934096 -23.629346802787591 14.712104021703844 -0.85716730853699208 0 -0.51503806187062418 0.12875951546765604 0 -0.21429182713424802 1 I I -0.70710678118654746 0.70710678118654746 0.25 forward I I I I #
loop $-1 $-1 $275 $71 #
coedge $-1 $173 $173 $276 $277 reversed $109 $-1 #
face $-1 $278 $279 $57 $-1 $280 reversed single #
loop $-1 $-1 $281 $111 #
plane-surface $-1 -1.8976953737771538 3.0303173507324317 120.90328952789672 0.85716730853699208 0 0.51503806187062418 0.51503806187062418 0 -0.85716730853699208 forward_v I I I I #
coedge $-1 $282 $283 $284 $285 reversed $112 $-1 #
face $-1 $-1 $286 $58 $-1 $287 forward single #
loop $-1 $288 $289 $114 #
cone-surface $-1 60.450112152934096 1.7316099147042507 14.712104021703844 -0.85716730853699208 0 -0.51503806187062418 0.12875951546765604 0 -0.21429182713424802 1 I I -0.70710678118654746 0.70710678118654746 0.25 forward I I I I #
loop $-1 $-1 $290 $73 #
coedge $-1 $182 $182 $291 $292 reversed $115 $-1 #
face $-1 $-1 $293 $59 $-1 $294 forward single #
loop $-1 $295 $296 $117 #
cone-surface $-1 60.450112152934096 4.3290247867606126 14.712104021703844 -0.85716730853699208 0 -0.51503806187062418 0.12875951546765604 0 -0.21429182713424802 1 I I -0.70710678118654746 0.70710678118654746 0.25 forward I I I I #
loop $-1 $-1 $297 $74 #
coedge $-1 $187 $187 $298 $299 reversed $118 $-1 #
face $-1 $300 $301 $45 $-1 $302 reversed single #
loop $-1 $-1 $303 $120 #
plane-surface $-1 0 -41.851556448034771 0 0 1 0 0 0 1 forward_v I I I I #
coedge $-1 $304 $305 $306 $307 forward $121 $-1 #
coedge $-1 $308 $123 $309 $310 forward $76 $-1 #
coedge $-1 $123 $308 $311 $312 forward $76 $-1 #
coedge $-1 $313 $314 $123 $195 reversed $315 $-1 #
edge $-1 $316 -41.851556448034771 $317 41.851556448034771 $194 $318 forward 7 unknown #
face $-1 $319 $320 $46 $-1 $321 reversed single #
loop $-1 $-1 $322 $124 #
plane-surface $-1 -63.096407971434672 0 0 1 0 0 0 0 -1 forward_v I I I I #
coedge $-1 $323 $324 $325 $326 reversed $125 $-1 #
coedge $-1 $327 $127 $328 $329 reversed $79 $-1 #
coedge $-1 $127 $327 $323 $330 forward $79 $-1 #
coedge $-1 $325 $331 $127 $203 forward $332 $-1 #
edge $-1 $333 -24.399074438639026 $334 -10.505889580152459 $202 $335 forward 7 unknown #
face $-1 $336 $337 $47 $-1 $338 reversed single #
loop $-1 $-1 $339 $128 #
plane-surface $-1 0 0 17.976870068640856 0 0 1 1 0 0 forward_v I I I I #
coedge $-1 $340 $341 $342 $343 reversed $129 $-1 #
coedge $-1 $344 $131 $340 $345 forward $82 $-1 #
coedge $-1 $131 $344 $346 $347 reversed $82 $-1 #
coedge $-1 $348 $349 $131 $211 forward $337 $-1 #
edge $-1 $350 10.505889580152463 $351 24.399074438639026 $210 $352 forward 7 unknown #
face $-1 $353 $354 $48 $-1 $355 forward single #
loop $-1 $-1 $356 $132 #
plane-surface $-1 -63.096407971434672 0 0 1 0 0 0 0 -1 forward_v I I I I #
coedge $-1 $357 $358 $359 $360 reversed $133 $-1 #
coedge $-1 $361 $135 $362 $363 reversed $85 $-1 #
coedge $-1 $135 $361 $357 $364 forward $85 $-1 #
coedge $-1 $359 $365 $135 $219 forward $354 $-1 #
edge $-1 $366 -15.494344470140312 $367 -9.4337097686754632 $218 $368 forward 7 unknown #
loop $-1 $-1 $225 $136 #
plane-surface $-1 -63.096407971434658 -24.928054238815776 12.734933129443377 -0.85716730853699208 0 0.51503806187062418 0.51503806187062418 0 0.85716730853699208 forward_v I I I I #
loop $-1 $-1 $369 $87 #
coedge $-1 $223 $223 $224 $370 reversed $137 $-1 #
coedge $-1 $224 $224 $223 $370 forward $139 $-1 #
coedge $-1 $225 $225 $140 $226 forward $220 $-1 #
edge $-1 $371 0 $371 6.2831853071796004 $225 $372 forward 7 unknown #
loop $-1 $-1 $232 $141 #
plane-surface $-1 -63.096407971434658 -24.928054238815776 12.734933129443377 -0.85716730853699208 0 0.51503806187062418 0.51503806187062418 0 0.85716730853699208 forward_v I I I I #
loop $-1 $-1 $373 $90 #
coedge $-1 $230 $230 $231 $374 reversed $142 $-1 #
coedge $-1 $231 $231 $230 $374 forward $144 $-1 #
coedge $-1 $232 $232 $145 $233 forward $227 $-1 #
edge $-1 $375 0 $375 6.2831853071796004 $232 $376 forward 7 unknown #
face $-1 $377 $378 $51 $-1 $379 forward single #
loop $-1 $-1 $380 $146 #
plane-surface $-1 -171.26476436988798 6.0606347014648563 77.729036474655203 0 -1 0 0.85716730853699208 0 -0.51503806187062418 forward_v I I I I #
coedge $-1 $381 $382 $383 $384 reversed $147 $-1 #
coedge $-1 $239 $149 $385 $386 reversed $94 $-1 #
coedge $-1 $149 $238 $381 $387 reversed $94 $-1 #
coedge $-1 $383 $388 $149 $241 forward $378 $-1 #
edge $-1 $389 22.53597421350932 $390 25.68564757916802 $240 $391 forward 7 unknown #
loop $-1 $-1 $247 $150 #
plane-surface $-1 -63.096407971434658 3.0303173507324317 12.734933129443377 -0.85716730853699208 0 0.51503806187062418 0.51503806187062418 0 0.85716730853699208 forward_v I I I I #
loop $-1 $-1 $392 $96 #
coedge $-1 $245 $245 $246 $393 reversed $151 $-1 #
coedge $-1 $246 $246 $245 $393 forward $153 $-1 #
coedge $-1 $247 $247 $154 $248 forward $242 $-1 #
edge $-1 $394 0 $394 6.2831853071796004 $247 $395 forward 7 unknown #
loop $-1 $-1 $254 $155 #
plane-surface $-1 -63.096407971434658 3.0303173507324317 12.734933129443377 -0.85716730853699208 0 0.51503806187062418 0.51503806187062418 0 0.85716730853699208 forward_v I I I I #
loop $-1 $-1 $396 $99 #
coedge $-1 $252 $252 $253 $397 reversed $156 $-1 #
coedge $-1 $253 $253 $252 $397 forward $158 $-1 #
coedge $-1 $254 $254 $159 $255 forward $249 $-1 #
edge $-1 $398 0 $398 6.2831853071796004 $254 $399 forward 7 unknown #
face $-1 $400 $401 $54 $-1 $402 forward single #
loop $-1 $-1 $403 $160 #
plane-surface $-1 0 -27.958371589548204 14.825280661331448 0 -1 0 0 0 -1 forward_v I I I I #
coedge $-1 $404 $405 $406 $407 reversed $161 $-1 #
coedge $-1 $408 $163 $403 $409 reversed $103 $-1 #
coedge $-1 $163 $408 $404 $410 forward $103 $-1 #
coedge $-1 $406 $411 $163 $263 forward $412 $-1 #
edge $-1 $413 -15.494344470140316 $414 -9.4337097686754632 $262 $415 forward 7 unknown #
loop $-1 $-1 $269 $164 #
plane-surface $-1 -1.8976953737771538 -24.928054238815776 120.90328952789672 0.85716730853699208 0 0.51503806187062418 0.51503806187062418 0 -0.85716730853699208 forward_v I I I I #
loop $-1 $-1 $416 $105 #
coedge $-1 $267 $267 $268 $417 reversed $165 $-1 #
coedge $-1 $268 $268 $267 $417 forward $167 $-1 #
coedge $-1 $269 $269 $168 $270 forward $264 $-1 #
edge $-1 $418 0 $418 6.2831853071796004 $269 $419 forward 7 unknown #
loop $-1 $-1 $276 $169 #
plane-surface $-1 -1.8976953737771538 -24.928054238815776 120.90328952789672 0.85716730853699208 0 0.51503806187062418 0.51503806187062418 0 -0.85716730853699208 forward_v I I I I #
loop $-1 $-1 $420 $108 #
coedge $-1 $274 $274 $275 $421 reversed $170 $-1 #
coedge $-1 $275 $275 $274 $421 forward $172 $-1 #
coedge $-1 $276 $276 $173 $277 forward $271 $-1 #
edge $-1 $422 0 $422 6.2831853071796004 $276 $423 forward 7 unknown #
face $-1 $424 $425 $57 $-1 $426 reversed single #
loop $-1 $-1 $427 $174 #
plane-surface $-1 106.27066102467617 6.0606347014648563 185.89739287310854 0 -1 0 -0.85716730853699208 0 -0.51503806187062418 forward_v I I I I #
coedge $-1 $428 $429 $430 $431 reversed $175 $-1 #
coedge $-1 $283 $177 $432 $433 reversed $112 $-1 #
coedge $-1 $177 $282 $428 $434 reversed $112 $-1 #
coedge $-1 $430 $435 $177 $285 forward $425 $-1 #
edge $-1 $436 74.971826367913422 $437 80.213763307110881 $284 $438 forward 7 unknown #
loop $-1 $-1 $291 $178 #
plane-surface $-1 -1.8976953737771538 3.0303173507324317 120.90328952789672 0.85716730853699208 0 0.51503806187062418 0.51503806187062418 0 -0.85716730853699208 forward_v I I I I #
loop $-1 $-1 $439 $114 #
coedge $-1 $289 $289 $290 $440 reversed $179 $-1 #
coedge $-1 $290 $290 $289 $440 forward $181 $-1 #
coedge $-1 $291 $291 $182 $292 forward $286 $-1 #
edge $-1 $441 0 $441 6.2831853071796004 $291 $442 forward 7 unknown #
loop $-1 $-1 $298 $183 #
plane-surface $-1 -1.8976953737771538 3.0303173507324317 120.90328952789672 0.85716730853699208 0 0.51503806187062418 0.51503806187062418 0 -0.85716730853699208 forward_v I I I I #
loop $-1 $-1 $443 $117 #
coedge $-1 $296 $296 $297 $444 reversed $184 $-1 #
coedge $-1 $297 $297 $296 $444 forward $186 $-1 #
coedge $-1 $298 $298 $187 $299 forward $293 $-1 #
edge $-1 $445 0 $445 6.2831853071796004 $298 $446 forward 7 unknown #
face $-1 $447 $448 $45 $-1 $449 reversed single #
loop $-1 $-1 $450 $188 #
plane-surface $-1 -63.096407971434672 0 0 1 0 0 0 0 -1 forward_v I I I I #
coedge $-1 $451 $311 $452 $453 forward $189 $-1 #
coedge $-1 $454 $191 $451 $455 forward $121 $-1 #
coedge $-1 $191 $454 $456 $457 forward $121 $-1 #
coedge $-1 $314 $313 $191 $307 reversed $315 $-1 #
edge $-1 $458 -41.851556448034771 $459 41.851556448034771 $306 $460 forward 7 unknown #
coedge $-1 $193 $192 $461 $462 forward $76 $-1 #
coedge $-1 $463 $464 $192 $310 reversed $448 $-1 #
edge $-1 $317 -63.096407971434672 $465 63.096407971434672 $309 $466 forward 7 unknown #
coedge $-1 $303 $467 $193 $312 reversed $189 $-1 #
edge $-1 $468 -63.096407971434672 $316 63.096407971434672 $311 $469 forward 7 unknown #
coedge $-1 $306 $194 $467 $470 forward $315 $-1 #
coedge $-1 $194 $306 $463 $471 reversed $315 $-1 #
loop $-1 $-1 $313 $447 #
vertex $-1 $195 $472 #
vertex $-1 $195 $473 #
straight-curve $-1 63.096407971434672 0 17.976870068640856 0 1 0 I I #
face $-1 $474 $475 $46 $-1 $476 forward single #
loop $-1 $-1 $328 $196 #
plane-surface $-1 0 -41.851556448034771 0 0 1 0 0 0 1 forward_v I I I I #
coedge $-1 $477 $478 $479 $480 forward $197 $-1 #
coedge $-1 $479 $199 $201 $330 reversed $125 $-1 #
coedge $-1 $199 $479 $481 $482 reversed $125 $-1 #
coedge $-1 $483 $202 $199 $326 forward $332 $-1 #
edge $-1 $334 4.261050923356315 $484 10.564229737975133 $325 $485 forward 7 unknown #
coedge $-1 $201 $200 $477 $486 reversed $79 $-1 #
coedge $-1 $487 $488 $200 $329 forward $320 $-1 #
edge $-1 $489 -63.096407971434672 $333 63.096407971434672 $328 $490 forward 7 unknown #
edge $-1 $491 -63.096407971434672 $334 63.096407971434672 $323 $492 forward 7 unknown #
coedge $-1 $202 $483 $487 $493 forward $332 $-1 #
loop $-1 $-1 $325 $474 #
vertex $-1 $329 $494 #
vertex $-1 $203 $495 #
straight-curve $-1 63.096407971434672 -17.452482009395744 11.673691254022039 0 1 0 I I #
face $-1 $496 $497 $47 $-1 $498 reversed single #
loop $-1 $-1 $349 $204 #
plane-surface $-1 63.096407971434672 0 0 -1 0 0 0 0 1 forward_v I I I I #
coedge $-1 $499 $500 $341 $501 forward $205 $-1 #
coedge $-1 $502 $207 $208 $345 reversed $129 $-1 #
coedge $-1 $207 $502 $339 $501 reversed $129 $-1 #
coedge $-1 $503 $504 $207 $343 forward $497 $-1 #
edge $-1 $505 4.261050923356315 $506 10.564229737975133 $342 $507 forward 7 unknown #
coedge $-1 $209 $208 $504 $508 reversed $82 $-1 #
edge $-1 $350 -63.096407971434672 $505 63.096407971434672 $340 $509 forward 7 unknown #
coedge $-1 $510 $511 $209 $347 forward $512 $-1 #
edge $-1 $351 -63.096407971434672 $513 63.096407971434672 $346 $514 forward 7 unknown #
coedge $-1 $515 $210 $511 $516 reversed $337 $-1 #
coedge $-1 $210 $515 $502 $517 forward $337 $-1 #
vertex $-1 $211 $518 #
vertex $-1 $347 $519 #
straight-curve $-1 63.096407971434672 17.452482009395744 11.673691254022039 0 1 0 I I #
face $-1 $-1 $520 $48 $-1 $521 forward single #
loop $-1 $-1 $359 $212 #
plane-surface $-1 0 0 17.976870068640856 0 0 1 1 0 0 forward_v I I I I #
coedge $-1 $522 $523 $358 $524 forward $213 $-1 #
coedge $-1 $358 $215 $217 $364 reversed $133 $-1 #
coedge $-1 $215 $357 $356 $524 reversed $133 $-1 #
coedge $-1 $525 $218 $215 $360 forward $354 $-1 #
edge $-1 $367 -25.68564757916802 $526 -22.53597421350932 $359 $527 forward 7 unknown #
coedge $-1 $217 $216 $522 $528 reversed $85 $-1 #
coedge $-1 $529 $530 $216 $363 forward $520 $-1 #
edge $-1 $531 -17.144414620210704 $366 -11.028995976743758 $362 $532 forward 7 unknown #
edge $-1 $533 -2.7113386213432547e-014 $367 6.1154186434669189 $357 $534 forward 7 unknown #
coedge $-1 $218 $525 $529 $535 forward $354 $-1 #
vertex $-1 $363 $536 #
vertex $-1 $219 $537 #
straight-curve $-1 -59.946734605775966 -12.464027119407888 17.976870068640856 0 1 0 I I #
coedge $-1 $369 $369 $-1 $538 reversed $222 $-1 #
edge $-1 $539 0 $539 6.2831853071796004 $223 $540 forward 7 unknown #
vertex $-1 $226 $541 #
ellipse-curve $-1 -61.521571288605323 -26.226761674843956 15.355901599042113 -0.85716730853699208 0 0.51503806187062418 0.25751903093531209 0 0.42858365426849604 1 I I #
coedge $-1 $373 $373 $-1 $542 reversed $229 $-1 #
edge $-1 $543 0 $543 6.2831853071796004 $230 $544 forward 7 unknown #
vertex $-1 $233 $545 #
ellipse-curve $-1 -61.521571288605323 -23.629346802787591 15.355901599042113 -0.85716730853699208 0 0.51503806187062418 0.25751903093531209 0 0.42858365426849604 1 I I #
face $-1 $-1 $546 $51 $-1 $547 reversed single #
loop $-1 $-1 $240 $234 #
plane-surface $-1 0 0 17.976870068640856 0 0 1 1 0 0 forward_v I I I I #
coedge $-1 $548 $549 $550 $551 reversed $235 $-1 #
coedge $-1 $552 $237 $239 $387 forward $147 $-1 #
coedge $-1 $237 $552 $548 $553 forward $147 $-1 #
coedge $-1 $550 $240 $237 $384 forward $378 $-1 #
edge $-1 $390 -1.5151586753662087 $554 4.5454760260986404 $383 $555 forward 7 unknown #
coedge $-1 $556 $557 $238 $386 forward $546 $-1 #
edge $-1 $558 -26.129585107884246 $389 -20.887648168686745 $385 $559 forward 7 unknown #
edge $-1 $390 -6.1154186434669189 $558 2.7113386213432547e-014 $239 $560 forward 7 unknown #
coedge $-1 $240 $550 $556 $561 forward $378 $-1 #
vertex $-1 $386 $562 #
vertex $-1 $241 $563 #
straight-curve $-1 -85.632382184943992 7.1054273576010019e-015 17.976870068640856 1 0 0 I I #
coedge $-1 $392 $392 $-1 $564 reversed $244 $-1 #
edge $-1 $565 0 $565 6.2831853071796004 $245 $566 forward 7 unknown #
vertex $-1 $248 $567 #
ellipse-curve $-1 -61.521571288605323 1.7316099147042507 15.355901599042113 -0.85716730853699208 0 0.51503806187062418 0.25751903093531209 0 0.42858365426849604 1 I I #
coedge $-1 $396 $396 $-1 $568 reversed $251 $-1 #
edge $-1 $569 0 $569 6.2831853071796004 $252 $570 forward 7 unknown #
vertex $-1 $255 $571 #
ellipse-curve $-1 -61.521571288605323 4.3290247867606126 15.355901599042113 -0.85716730853699208 0 0.51503806187062418 0.25751903093531209 0 0.42858365426849604 1 I I #
face $-1 $-1 $412 $54 $-1 $572 reversed single #
loop $-1 $-1 $573 $256 #
plane-surface $-1 0 0 17.976870068640856 0 0 1 1 0 0 forward_v I I I I #
coedge $-1 $574 $575 $260 $409 forward $257 $-1 #
coedge $-1 $405 $259 $261 $410 reversed $161 $-1 #
coedge $-1 $259 $404 $576 $577 reversed $161 $-1 #
coedge $-1 $578 $262 $259 $407 forward $412 $-1 #
edge $-1 $414 -80.213763307110881 $579 -74.971826367913422 $406 $580 forward 7 unknown #
coedge $-1 $261 $260 $573 $581 reversed $103 $-1 #
edge $-1 $582 74.125403948178445 $413 80.240822591645355 $403 $583 forward 7 unknown #
edge $-1 $584 120.07739729940245 $414 126.19281594286934 $404 $585 forward 7 unknown #
coedge $-1 $262 $578 $574 $586 forward $412 $-1 #
loop $-1 $-1 $406 $400 #
vertex $-1 $409 $587 #
vertex $-1 $263 $588 #
straight-curve $-1 63.096407971434672 -12.464027119407888 12.734933129443377 0 1 0 I I #
coedge $-1 $416 $416 $-1 $589 reversed $266 $-1 #
edge $-1 $590 0 $590 6.2831853071796004 $267 $591 forward 7 unknown #
vertex $-1 $270 $592 #
ellipse-curve $-1 61.521571288605337 -26.226761674843956 15.35590159904212 0.85716730853699208 0 0.51503806187062418 0.25751903093531209 0 -0.42858365426849604 1 I I #
coedge $-1 $420 $420 $-1 $593 reversed $273 $-1 #
edge $-1 $594 0 $594 6.2831853071796004 $274 $595 forward 7 unknown #
vertex $-1 $277 $596 #
ellipse-curve $-1 61.521571288605337 -23.629346802787591 15.35590159904212 0.85716730853699208 0 0.51503806187062418 0.25751903093531209 0 -0.42858365426849604 1 I I #
face $-1 $-1 $597 $57 $-1 $598 forward single #
loop $-1 $-1 $284 $278 #
plane-surface $-1 63.096407971434672 0 0 -1 0 0 0 0 1 forward_v I I I I #
coedge $-1 $599 $600 $601 $602 reversed $279 $-1 #
coedge $-1 $603 $281 $283 $434 forward $175 $-1 #
coedge $-1 $281 $603 $599 $604 forward $175 $-1 #
coedge $-1 $601 $284 $281 $431 forward $425 $-1 #
edge $-1 $437 -1.5151586753662087 $605 4.5454760260986404 $430 $606 forward 7 unknown #
coedge $-1 $607 $608 $282 $433 forward $597 $-1 #
edge $-1 $609 6.8114040934379148 $436 9.961077459096586 $432 $610 forward 7 unknown #
edge $-1 $437 -126.19281594286934 $609 -120.07739729940245 $283 $611 forward 7 unknown #
coedge $-1 $284 $601 $607 $612 reversed $425 $-1 #
vertex $-1 $612 $613 #
vertex $-1 $285 $614 #
straight-curve $-1 63.096407971434672 7.1054273576010019e-015 92.948696436554272 0 0 -1 I I #
coedge $-1 $439 $439 $-1 $615 reversed $288 $-1 #
edge $-1 $616 0 $616 6.2831853071796004 $289 $617 forward 7 unknown #
vertex $-1 $292 $618 #
ellipse-curve $-1 61.521571288605337 1.7316099147042507 15.35590159904212 0.85716730853699208 0 0.51503806187062418 0.25751903093531209 0 -0.42858365426849604 1 I I #
coedge $-1 $443 $443 $-1 $619 reversed $295 $-1 #
edge $-1 $620 0 $620 6.2831853071796004 $296 $621 forward 7 unknown #
vertex $-1 $299 $622 #
ellipse-curve $-1 61.521571288605337 4.3290247867606126 15.35590159904212 0.85716730853699208 0 0.51503806187062418 0.25751903093531209 0 -0.42858365426849604 1 I I #
face $-1 $-1 $315 $45 $-1 $623 reversed single #
loop $-1 $-1 $463 $300 #
plane-surface $-1 0 41.851556448034771 0 0 -1 0 0 0 -1 forward_v I I I I #
coedge $-1 $624 $461 $464 $625 forward $301 $-1 #
coedge $-1 $467 $303 $304 $455 reversed $189 $-1 #
coedge $-1 $461 $624 $303 $453 reversed $301 $-1 #
edge $-1 $468 -17.976870068640856 $626 17.976870068640856 $452 $627 forward 7 unknown #
coedge $-1 $305 $304 $624 $628 forward $121 $-1 #
edge $-1 $459 -63.096407971434672 $626 63.096407971434672 $451 $629 forward 7 unknown #
coedge $-1 $464 $463 $305 $457 reversed $448 $-1 #
edge $-1 $630 -63.096407971434672 $458 63.096407971434672 $456 $631 forward 7 unknown #
vertex $-1 $307 $632 #
vertex $-1 $470 $633 #
straight-curve $-1 63.096407971434672 0 -17.976870068640856 0 -1 0 I I #
coedge $-1 $450 $452 $308 $462 reversed $301 $-1 #
edge $-1 $465 -41.851556448034771 $468 41.851556448034771 $461 $634 forward 7 unknown #
coedge $-1 $456 $309 $314 $471 forward $448 $-1 #
coedge $-1 $309 $456 $450 $625 reversed $448 $-1 #
vertex $-1 $310 $635 #
straight-curve $-1 0 41.851556448034771 17.976870068640856 -1 0 0 I I #
coedge $-1 $311 $451 $313 $470 reversed $189 $-1 #
vertex $-1 $462 $636 #
straight-curve $-1 0 -41.851556448034771 17.976870068640856 1 0 0 I I #
edge $-1 $316 -17.976870068640856 $459 17.976870068640856 $313 $637 forward 7 unknown #
edge $-1 $317 -17.976870068640856 $458 17.976870068640856 $314 $638 forward 7 unknown #
point $-1 63.096407971434672 -41.851556448034771 17.976870068640856 #
point $-1 63.096407971434672 41.851556448034771 17.976870068640856 #
face $-1 $-1 $332 $46 $-1 $639 reversed single #
loop $-1 $-1 $481 $319 #
plane-surface $-1 0 0 17.976870068640856 0 0 1 1 0 0 forward_v I I I I #
coedge $-1 $640 $322 $327 $486 forward $197 $-1 #
coedge $-1 $322 $640 $641 $642 reversed $197 $-1 #
coedge $-1 $324 $323 $322 $480 reversed $125 $-1 #
edge $-1 $643 -10.564229737975133 $491 -4.261050923356315 $322 $644 forward 7 unknown #
coedge $-1 $641 $645 $324 $482 forward $475 $-1 #
edge $-1 $484 -63.096407971434672 $643 63.096407971434672 $481 $646 forward 7 unknown #
coedge $-1 $331 $325 $645 $647 reversed $332 $-1 #
vertex $-1 $326 $648 #
straight-curve $-1 63.096407971434672 -27.958371589548204 7.4126403306657238 0 0 1 I I #
edge $-1 $491 10.505889580152459 $489 24.399074438639026 $477 $649 forward 7 unknown #
coedge $-1 $650 $328 $331 $493 reversed $320 $-1 #
coedge $-1 $328 $650 $640 $651 forward $320 $-1 #
vertex $-1 $329 $652 #
straight-curve $-1 0 -41.851556448034771 11.673691254022039 1 0 0 I I #
vertex $-1 $486 $653 #
straight-curve $-1 0 -27.958371589548204 11.673691254022039 1 0 0 I I #
edge $-1 $654 -17.976870068640856 $333 -11.673691254022039 $331 $655 forward 7 unknown #
point $-1 63.096407971434672 -41.851556448034771 11.673691254022039 #
point $-1 63.096407971434672 -27.958371589548204 11.673691254022039 #
face $-1 $-1 $512 $47 $-1 $656 reversed single #
loop $-1 $-1 $342 $336 #
plane-surface $-1 -63.096407971434672 0 0 1 0 0 0 0 -1 forward_v I I I I #
coedge $-1 $657 $339 $515 $658 forward $205 $-1 #
coedge $-1 $339 $657 $503 $659 forward $205 $-1 #
edge $-1 $506 -63.096407971434672 $660 63.096407971434672 $339 $661 forward 7 unknown #
coedge $-1 $341 $340 $349 $517 reversed $129 $-1 #
coedge $-1 $662 $342 $500 $659 reversed $497 $-1 #
coedge $-1 $342 $662 $344 $508 forward $497 $-1 #
vertex $-1 $508 $663 #
vertex $-1 $343 $664 #
straight-curve $-1 -63.096407971434672 27.958371589548207 7.4126403306657238 0 0 1 I I #
edge $-1 $513 -24.399074438639026 $505 -10.505889580152463 $504 $665 forward 7 unknown #
straight-curve $-1 0 27.958371589548207 11.673691254022039 -1 0 0 I I #
coedge $-1 $666 $346 $662 $667 reversed $512 $-1 #
coedge $-1 $346 $666 $348 $516 forward $512 $-1 #
loop $-1 $-1 $346 $496 #
vertex $-1 $347 $668 #
straight-curve $-1 0 41.851556448034771 11.673691254022039 -1 0 0 I I #
coedge $-1 $349 $348 $499 $658 reversed $337 $-1 #
edge $-1 $669 -17.976870068640856 $351 -11.673691254022039 $348 $670 forward 7 unknown #
edge $-1 $660 -10.564229737975133 $350 -4.261050923356315 $349 $671 forward 7 unknown #
point $-1 63.096407971434672 27.958371589548207 11.673691254022039 #
point $-1 63.096407971434672 41.851556448034771 11.673691254022039 #
loop $-1 $-1 $362 $353 #
plane-surface $-1 0 -27.958371589548204 14.825280661331448 0 -1 0 0 0 -1 forward_v I I I I #
coedge $-1 $672 $356 $361 $528 forward $213 $-1 #
coedge $-1 $356 $672 $525 $673 reversed $213 $-1 #
edge $-1 $526 20.887648168686745 $533 26.129585107884246 $356 $674 forward 7 unknown #
coedge $-1 $365 $359 $523 $673 forward $354 $-1 #
vertex $-1 $673 $675 #
straight-curve $-1 -85.632382184943992 -21.897736888083351 17.976870068640856 -1 0 0 I I #
edge $-1 $533 9.4337097686754632 $531 15.494344470140312 $522 $676 forward 7 unknown #
coedge $-1 $530 $362 $365 $535 reversed $520 $-1 #
coedge $-1 $362 $529 $672 $677 reversed $520 $-1 #
vertex $-1 $677 $678 #
straight-curve $-1 -54.266381893534955 -27.958371589548204 27.430564865891618 0.51503806187062429 0 0.85716730853699219 I I #
vertex $-1 $528 $679 #
straight-curve $-1 -63.096407971434658 -21.897736888083351 12.734933129443377 0.51503806187062418 0 0.85716730853699208 I I #
edge $-1 $680 -63.096407971434672 $366 -59.946734605775973 $365 $681 forward 7 unknown #
point $-1 -59.946734605775973 -27.9583715895482 17.976870068640856 #
point $-1 -59.946734605775973 -21.897736888083351 17.976870068640856 #
edge $-1 $682 1 $682 0 $369 $-1 forward 7 unknown #
vertex $-1 $370 $683 #
ellipse-curve $-1 -60.664403980068343 -26.226761674843956 14.840863537171501 -0.85716730853699208 0 0.51503806187062418 0.25751903093531209 0 0.42858365426849604 1 I I #
point $-1 -61.264052257670023 -26.226761674843956 15.784485253310621 #
edge $-1 $684 1 $684 0 $373 $-1 forward 7 unknown #
vertex $-1 $374 $685 #
ellipse-curve $-1 -60.664403980068343 -23.629346802787591 14.840863537171501 -0.85716730853699208 0 0.51503806187062418 0.25751903093531209 0 0.42858365426849604 1 I I #
point $-1 -61.264052257670023 -23.629346802787591 15.784485253310621 #
loop $-1 $-1 $385 $377 #
plane-surface $-1 -63.096407971434672 0 0 1 0 0 0 0 -1 forward_v I I I I #
coedge $-1 $549 $380 $382 $553 reversed $235 $-1 #
coedge $-1 $380 $548 $686 $687 reversed $235 $-1 #
coedge $-1 $388 $383 $380 $551 forward $378 $-1 #
edge $-1 $554 -25.68564757916802 $688 -22.53597421350932 $550 $689 forward 7 unknown #
coedge $-1 $382 $381 $557 $690 reversed $147 $-1 #
edge $-1 $691 -2.7113386213432547e-014 $554 6.1154186434669189 $548 $692 forward 7 unknown #
vertex $-1 $384 $693 #
straight-curve $-1 -59.946734605775966 1.5151586753662158 17.976870068640856 0 1 0 I I #
coedge $-1 $686 $385 $388 $561 reversed $546 $-1 #
coedge $-1 $385 $686 $552 $690 forward $546 $-1 #
vertex $-1 $386 $694 #
straight-curve $-1 -63.096407971434672 7.1054273576010019e-015 38.864518237327601 0 0 1 I I #
straight-curve $-1 -63.096407971434658 7.1054273576010019e-015 12.734933129443377 -0.51503806187062418 0 -0.85716730853699208 I I #
edge $-1 $688 -6.0606347014648563 $389 -7.1054273576010019e-015 $556 $695 forward 7 unknown #
point $-1 -63.096407971434672 7.1054273576010019e-015 17.976870068640856 #
point $-1 -59.946734605775973 7.1054273576010019e-015 17.976870068640856 #
edge $-1 $696 1 $696 0 $392 $-1 forward 7 unknown #
vertex $-1 $393 $697 #
ellipse-curve $-1 -60.664403980068343 1.7316099147042507 14.840863537171501 -0.85716730853699208 0 0.51503806187062418 0.25751903093531209 0 0.42858365426849604 1 I I #
point $-1 -61.264052257670023 1.7316099147042507 15.784485253310621 #
edge $-1 $698 1 $698 0 $396 $-1 forward 7 unknown #
vertex $-1 $397 $699 #
ellipse-curve $-1 -60.664403980068343 4.3290247867606126 14.840863537171501 -0.85716730853699208 0 0.51503806187062418 0.25751903093531209 0 0.42858365426849604 1 I I #
point $-1 -61.264052257670023 4.3290247867606126 15.784485253310621 #
plane-surface $-1 63.096407971434672 0 0 -1 0 0 0 0 1 forward_v I I I I #
coedge $-1 $700 $576 $408 $581 forward $401 $-1 #
coedge $-1 $575 $403 $411 $586 reversed $257 $-1 #
coedge $-1 $403 $574 $700 $701 reversed $257 $-1 #
coedge $-1 $573 $702 $405 $577 forward $401 $-1 #
edge $-1 $579 -9.961077459096586 $584 -6.8114040934379148 $576 $703 forward 7 unknown #
coedge $-1 $411 $406 $702 $704 reversed $412 $-1 #
vertex $-1 $407 $705 #
straight-curve $-1 63.096407971434672 -21.897736888083351 92.948696436554272 0 0 1 I I #
edge $-1 $584 9.4337097686754632 $582 15.494344470140312 $573 $706 forward 7 unknown #
vertex $-1 $701 $707 #
straight-curve $-1 21.769330220929053 -27.958371589548204 81.514743065118282 0.51503806187062429 0 -0.85716730853699219 I I #
vertex $-1 $581 $708 #
straight-curve $-1 -1.8976953737771538 -21.897736888083351 120.90328952789672 0.51503806187062418 0 -0.85716730853699208 I I #
edge $-1 $709 -10.564229737975133 $413 -5.3222927987776494 $411 $710 forward 7 unknown #
point $-1 63.096407971434672 -27.958371589548204 12.734933129443373 #
point $-1 63.096407971434672 -21.897736888083351 12.734933129443391 #
edge $-1 $711 1 $711 0 $416 $-1 forward 7 unknown #
vertex $-1 $417 $712 #
ellipse-curve $-1 60.664403980068343 -26.226761674843956 14.840863537171501 0.85716730853699208 0 0.51503806187062418 0.25751903093531209 0 -0.42858365426849604 1 I I #
point $-1 61.77909031954065 -26.226761674843956 14.927317944773629 #
edge $-1 $713 1 $713 0 $420 $-1 forward 7 unknown #
vertex $-1 $421 $714 #
ellipse-curve $-1 60.664403980068343 -23.629346802787591 14.840863537171501 0.85716730853699208 0 0.51503806187062418 0.25751903093531209 0 -0.42858365426849604 1 I I #
point $-1 61.77909031954065 -23.629346802787591 14.927317944773629 #
loop $-1 $-1 $432 $424 #
plane-surface $-1 0 0 17.976870068640856 0 0 1 1 0 0 forward_v I I I I #
coedge $-1 $600 $427 $429 $604 reversed $279 $-1 #
coedge $-1 $427 $599 $715 $716 reversed $279 $-1 #
coedge $-1 $435 $430 $427 $602 forward $425 $-1 #
edge $-1 $605 -80.213763307110881 $717 -74.971826367913422 $601 $718 forward 7 unknown #
coedge $-1 $429 $428 $608 $719 reversed $175 $-1 #
edge $-1 $720 120.07739729940245 $605 126.19281594286934 $599 $721 forward 7 unknown #
vertex $-1 $431 $722 #
straight-curve $-1 63.096407971434672 1.5151586753662158 12.734933129443377 0 1 0 I I #
coedge $-1 $715 $432 $435 $612 forward $597 $-1 #
coedge $-1 $432 $715 $603 $719 forward $597 $-1 #
vertex $-1 $433 $723 #
straight-curve $-1 53.135330512338086 7.1054273576010019e-015 17.976870068640864 1 0 0 I I #
straight-curve $-1 -1.8976953737771538 7.1054273576010019e-015 120.90328952789672 -0.51503806187062418 0 0.85716730853699208 I I #
edge $-1 $436 7.1054273576010019e-015 $717 6.0606347014648563 $435 $724 forward 7 unknown #
point $-1 63.096407971434672 7.1054273576010019e-015 17.976870068640856 #
point $-1 63.096407971434672 7.1054273576010019e-015 12.734933129443391 #
edge $-1 $725 1 $725 0 $439 $-1 forward 7 unknown #
vertex $-1 $440 $726 #
ellipse-curve $-1 60.664403980068343 1.7316099147042507 14.840863537171501 0.85716730853699208 0 0.51503806187062418 0.25751903093531209 0 -0.42858365426849604 1 I I #
point $-1 61.77909031954065 1.7316099147042507 14.927317944773629 #
edge $-1 $727 1 $727 0 $443 $-1 forward 7 unknown #
vertex $-1 $444 $728 #
ellipse-curve $-1 60.664403980068343 4.3290247867606126 14.840863537171501 0.85716730853699208 0 0.51503806187062418 0.25751903093531209 0 -0.42858365426849604 1 I I #
point $-1 61.77909031954065 4.3290247867606126 14.927317944773629 #
plane-surface $-1 63.096407971434672 0 0 -1 0 0 0 0 1 forward_v I I I I #
coedge $-1 $452 $450 $454 $628 reversed $301 $-1 #
edge $-1 $465 -17.976870068640856 $630 17.976870068640856 $464 $729 forward 7 unknown #
vertex $-1 $628 $730 #
straight-curve $-1 -63.096407971434672 -41.851556448034771 0 0 0 -1 I I #
edge $-1 $626 -41.851556448034771 $630 41.851556448034771 $624 $731 forward 7 unknown #
straight-curve $-1 0 -41.851556448034771 -17.976870068640856 -1 0 0 I I #
vertex $-1 $457 $732 #
straight-curve $-1 0 41.851556448034771 -17.976870068640856 1 0 0 I I #
point $-1 63.096407971434672 41.851556448034771 -17.976870068640856 #
point $-1 63.096407971434672 -41.851556448034771 -17.976870068640856 #
straight-curve $-1 -63.096407971434672 0 17.976870068640856 0 -1 0 I I #
point $-1 -63.096407971434672 41.851556448034771 17.976870068640856 #
point $-1 -63.096407971434672 -41.851556448034771 17.976870068640856 #
straight-curve $-1 63.096407971434672 -41.851556448034771 0 0 0 -1 I I #
straight-curve $-1 63.096407971434672 41.851556448034771 0 0 0 -1 I I #
plane-surface $-1 63.096407971434672 0 0 -1 0 0 0 0 1 forward_v I I I I #
coedge $-1 $478 $477 $488 $651 reversed $197 $-1 #
coedge $-1 $733 $481 $478 $642 forward $475 $-1 #
edge $-1 $643 27.958371589548204 $734 41.851556448034771 $478 $735 forward 7 unknown #
vertex $-1 $642 $736 #
straight-curve $-1 -63.096407971434672 -27.958371589548204 7.4126403306657238 0 0 -1 I I #
coedge $-1 $481 $733 $483 $647 forward $475 $-1 #
straight-curve $-1 0 -27.958371589548204 17.976870068640856 -1 0 0 I I #
edge $-1 $654 -41.851556448034771 $484 -27.958371589548204 $483 $737 forward 7 unknown #
point $-1 63.096407971434672 -27.958371589548204 17.976870068640856 #
straight-curve $-1 -63.096407971434672 -17.452482009395744 11.673691254022039 0 -1 0 I I #
coedge $-1 $488 $487 $733 $738 reversed $320 $-1 #
edge $-1 $734 -17.976870068640856 $489 -11.673691254022039 $640 $739 forward 7 unknown #
point $-1 -63.096407971434672 -41.851556448034771 11.673691254022039 #
point $-1 -63.096407971434672 -27.958371589548204 11.673691254022039 #
vertex $-1 $647 $740 #
straight-curve $-1 63.096407971434672 -41.851556448034771 0 0 0 -1 I I #
plane-surface $-1 0 41.851556448034771 0 0 -1 0 0 0 -1 forward_v I I I I #
coedge $-1 $500 $499 $666 $741 forward $205 $-1 #
edge $-1 $660 27.958371589548207 $669 41.851556448034771 $515 $742 forward 7 unknown #
edge $-1 $743 -41.851556448034771 $506 -27.958371589548207 $503 $744 forward 7 unknown #
vertex $-1 $658 $745 #
straight-curve $-1 0 27.958371589548207 17.976870068640856 1 0 0 I I #
coedge $-1 $504 $503 $510 $667 forward $497 $-1 #
point $-1 -63.096407971434672 27.958371589548207 11.673691254022039 #
point $-1 -63.096407971434672 27.958371589548207 17.976870068640856 #
straight-curve $-1 -63.096407971434672 17.452482009395744 11.673691254022039 0 -1 0 I I #
coedge $-1 $511 $510 $657 $741 reversed $512 $-1 #
edge $-1 $743 -17.976870068640856 $513 -11.673691254022039 $510 $746 forward 7 unknown #
point $-1 -63.096407971434672 41.851556448034771 11.673691254022039 #
vertex $-1 $658 $747 #
straight-curve $-1 63.096407971434672 41.851556448034771 0 0 0 -1 I I #
straight-curve $-1 63.096407971434672 27.958371589548207 7.4126403306657238 0 0 -1 I I #
coedge $-1 $523 $522 $530 $677 forward $213 $-1 #
edge $-1 $526 21.897736888083351 $680 27.958371589548204 $523 $748 forward 7 unknown #
straight-curve $-1 -63.096407971434672 -21.897736888083351 38.864518237327601 0 0 -1 I I #
point $-1 -63.096407971434672 -21.897736888083351 17.976870068640856 #
straight-curve $-1 -63.096407971434672 -12.464027119407888 12.734933129443359 0 -1 0 I I #
edge $-1 $531 5.3222927987776298 $680 10.564229737975133 $672 $749 forward 7 unknown #
point $-1 -63.096407971434672 -27.9583715895482 12.734933129443354 #
point $-1 -63.096407971434672 -21.897736888083351 12.734933129443354 #
vertex $-1 $677 $750 #
straight-curve $-1 0 -27.958371589548204 17.976870068640856 1 0 0 I I #
vertex $-1 $538 $751 #
point $-1 -60.40688494913303 -26.226761674843956 15.269447191439996 #
vertex $-1 $542 $752 #
point $-1 -60.40688494913303 -23.629346802787591 15.269447191439996 #
coedge $-1 $557 $556 $549 $687 forward $546 $-1 #
edge $-1 $688 20.887648168686745 $691 26.129585107884246 $686 $753 forward 7 unknown #
vertex $-1 $561 $754 #
straight-curve $-1 -85.632382184943992 6.0606347014648563 17.976870068640856 -1 0 0 I I #
edge $-1 $691 -4.5454760260986404 $558 1.5151586753662087 $557 $755 forward 7 unknown #
vertex $-1 $690 $756 #
straight-curve $-1 -63.096407971434658 6.0606347014648563 12.734933129443377 0.51503806187062418 0 0.85716730853699208 I I #
point $-1 -59.946734605775973 6.0606347014648563 17.976870068640856 #
point $-1 -63.096407971434672 7.1054273576010019e-015 12.734933129443354 #
straight-curve $-1 -63.096407971434672 0 17.976870068640856 0 -1 0 I I #
vertex $-1 $564 $757 #
point $-1 -60.40688494913303 1.7316099147042507 15.269447191439996 #
vertex $-1 $568 $758 #
point $-1 -60.40688494913303 4.3290247867606126 15.269447191439996 #
coedge $-1 $702 $573 $575 $701 forward $401 $-1 #
edge $-1 $582 59.946734605776001 $709 63.096407971434672 $700 $759 forward 7 unknown #
coedge $-1 $576 $700 $578 $704 forward $401 $-1 #
straight-curve $-1 53.135330512338086 -21.897736888083351 17.976870068640864 -1 0 0 I I #
edge $-1 $709 -27.958371589548204 $579 -21.897736888083351 $578 $760 forward 7 unknown #
point $-1 63.096407971434672 -21.897736888083351 17.976870068640856 #
straight-curve $-1 59.946734605775987 -12.464027119407888 17.976870068640849 0 -1 0 I I #
point $-1 59.946734605776001 -27.9583715895482 17.976870068640849 #
point $-1 59.946734605776001 -21.897736888083351 17.976870068640849 #
vertex $-1 $704 $761 #
straight-curve $-1 63.096407971434672 -27.958371589548204 7.4126403306657238 0 0 -1 I I #
vertex $-1 $589 $762 #
point $-1 60.921923011003656 -26.226761674843956 14.412279882903004 #
vertex $-1 $593 $763 #
point $-1 60.921923011003656 -23.629346802787591 14.412279882903004 #
coedge $-1 $608 $607 $600 $716 forward $597 $-1 #
edge $-1 $717 -9.961077459096586 $720 -6.8114040934379148 $715 $764 forward 7 unknown #
vertex $-1 $716 $765 #
straight-curve $-1 63.096407971434672 6.0606347014648563 92.948696436554272 0 0 1 I I #
edge $-1 $720 -4.5454760260986404 $609 1.5151586753662087 $608 $766 forward 7 unknown #
vertex $-1 $719 $767 #
straight-curve $-1 -1.8976953737771538 6.0606347014648563 120.90328952789672 0.51503806187062418 0 -0.85716730853699208 I I #
point $-1 63.096407971434672 6.0606347014648563 12.734933129443391 #
point $-1 59.946734605776001 7.1054273576010019e-015 17.976870068640849 #
straight-curve $-1 63.096407971434672 0 17.976870068640856 0 1 0 I I #
vertex $-1 $615 $768 #
point $-1 60.921923011003656 1.7316099147042507 14.412279882903004 #
vertex $-1 $619 $769 #
point $-1 60.921923011003656 4.3290247867606126 14.412279882903004 #
straight-curve $-1 -63.096407971434672 41.851556448034771 0 0 0 -1 I I #
point $-1 -63.096407971434672 -41.851556448034771 -17.976870068640856 #
straight-curve $-1 -63.096407971434672 0 -17.976870068640856 0 1 0 I I #
point $-1 -63.096407971434672 41.851556448034771 -17.976870068640856 #
coedge $-1 $645 $641 $650 $738 forward $475 $-1 #
vertex $-1 $642 $770 #
straight-curve $-1 -63.096407971434672 0 17.976870068640856 0 -1 0 I I #
point $-1 -63.096407971434672 -27.958371589548204 17.976870068640856 #
straight-curve $-1 63.096407971434672 0 17.976870068640856 0 1 0 I I #
edge $-1 $734 -63.096407971434672 $654 63.096407971434672 $650 $771 forward 7 unknown #
straight-curve $-1 -63.096407971434672 -41.851556448034771 0 0 0 -1 I I #
point $-1 63.096407971434672 -41.851556448034771 17.976870068640856 #
edge $-1 $669 -63.096407971434672 $743 63.096407971434672 $666 $772 forward 7 unknown #
straight-curve $-1 63.096407971434672 0 17.976870068640856 0 1 0 I I #
vertex $-1 $741 $773 #
straight-curve $-1 -63.096407971434672 0 17.976870068640856 0 -1 0 I I #
point $-1 63.096407971434672 27.958371589548207 17.976870068640856 #
straight-curve $-1 -63.096407971434672 41.851556448034771 0 0 0 -1 I I #
point $-1 63.096407971434672 41.851556448034771 17.976870068640856 #
straight-curve $-1 -63.096407971434672 0 17.976870068640856 0 -1 0 I I #
straight-curve $-1 -63.096407971434672 -27.958371589548204 7.4126403306657238 0 0 1 I I #
point $-1 -63.096407971434672 -27.958371589548204 17.976870068640856 #
point $-1 -60.23582032579985 -26.226761674843956 14.583344506236187 #
point $-1 -60.23582032579985 -23.629346802787591 14.583344506236187 #
straight-curve $-1 -63.096407971434672 6.0606347014648563 38.864518237327601 0 0 -1 I I #
point $-1 -63.096407971434672 6.0606347014648563 17.976870068640856 #
straight-curve $-1 -63.096407971434672 1.5151586753662158 12.734933129443359 0 -1 0 I I #
point $-1 -63.096407971434672 6.0606347014648563 12.734933129443354 #
point $-1 -60.23582032579985 1.7316099147042507 14.583344506236187 #
point $-1 -60.23582032579985 4.3290247867606126 14.583344506236187 #
straight-curve $-1 0 -27.958371589548204 17.976870068640856 1 0 0 I I #
straight-curve $-1 63.096407971434672 0 17.976870068640856 0 1 0 I I #
point $-1 63.096407971434672 -27.958371589548204 17.976870068640856 #
point $-1 60.23582032579985 -26.226761674843956 14.583344506236187 #
point $-1 60.23582032579985 -23.629346802787591 14.583344506236187 #
straight-curve $-1 53.135330512338086 6.0606347014648563 17.976870068640864 -1 0 0 I I #
point $-1 63.096407971434672 6.0606347014648563 17.976870068640856 #
straight-curve $-1 59.946734605775987 1.5151586753662158 17.976870068640849 0 -1 0 I I #
point $-1 59.946734605776001 6.0606347014648563 17.976870068640849 #
point $-1 60.23582032579985 1.7316099147042507 14.583344506236187 #
point $-1 60.23582032579985 4.3290247867606126 14.583344506236187 #
point $-1 -63.096407971434672 -41.851556448034771 17.976870068640856 #
straight-curve $-1 0 -41.851556448034771 17.976870068640856 1 0 0 I I #
straight-curve $-1 0 41.851556448034771 17.976870068640856 -1 0 0 I I #
point $-1 -63.096407971434672 41.851556448034771 17.976870068640856 #
End-of-ACIS-data 