500 0 5 0           
7 Unknown 11 ACIS 5.0 NT 24 Thu Mar 25 19:50:31 1999 
-1 9.9999999999999995e-007 1e-010 
body $-1 $5 $-1 $6 #
body $-1 $7 $-1 $8 #
body $-1 $9 $-1 $10 #
body $-1 $11 $-1 $12 #
body $-1 $13 $-1 $14 #
lump $-1 $-1 $15 $0 #
transform $-1 1 0 0 0 1 0 0 0 1 59.374370555742061 28.352453341735298 9.9491871168942829 1 rotate no_reflect no_shear #
lump $-1 $-1 $16 $1 #
transform $-1 1 0 0 0 1 0 0 0 1 59.374370555742061 28.352453341735298 9.9491871168942829 1 rotate no_reflect no_shear #
lump $-1 $-1 $17 $2 #
transform $-1 1 0 0 0 1 0 0 0 1 59.374370555742061 28.352453341735298 9.9491871168942829 1 rotate no_reflect no_shear #
lump $-1 $-1 $18 $3 #
transform $-1 1 0 0 0 1 0 0 0 1 59.374370555742061 28.352453341735298 9.9491871168942829 1 rotate no_reflect no_shear #
lump $-1 $-1 $19 $4 #
transform $-1 1 0 0 0 1 0 0 0 1 59.374370555742061 28.352453341735298 9.9491871168942829 1 rotate no_reflect no_shear #
shell $-1 $-1 $-1 $20 $-1 $5 #
shell $-1 $-1 $-1 $21 $-1 $7 #
shell $-1 $-1 $-1 $22 $-1 $9 #
shell $-1 $-1 $-1 $23 $-1 $11 #
shell $-1 $-1 $-1 $24 $-1 $13 #
face $-1 $25 $26 $15 $-1 $27 forward single #
face $-1 $28 $29 $16 $-1 $30 reversed single #
face $-1 $31 $32 $17 $-1 $33 forward single #
face $-1 $34 $35 $18 $-1 $36 reversed single #
face $-1 $37 $38 $19 $-1 $39 reversed single #
face $-1 $40 $41 $15 $-1 $42 reversed single #
loop $-1 $-1 $43 $20 #
plane-surface $-1 0 0 9.9491871168942829 0 0 1 1 0 0 forward_v I I I I #
face $-1 $44 $45 $16 $-1 $46 forward single #
loop $-1 $-1 $47 $21 #
plane-surface $-1 -54.726023009486738 0 8.0395011588352894 0 0 1 1 0 0 forward_v I I I I #
face $-1 $48 $49 $17 $-1 $50 forward single #
loop $-1 $-1 $51 $22 #
plane-surface $-1 -34.044480923805693 52.275980125086008 131.63876143878139 1 0 0 0 -0.5877852598018023 -0.80901698891910034 forward_v I I I I #
face $-1 $52 $53 $18 $-1 $54 reversed single #
loop $-1 $55 $56 $23 #
cone-surface $-1 -25.833704510994593 21.553654871643648 4.0396765255306875 0 -0.5877852598018023 -0.80901698891910034 2.5 0 0 1 I I 0 1 2.5 forward I I I I #
face $-1 $57 $58 $19 $-1 $59 reversed single #
loop $-1 $60 $61 $24 #
cone-surface $-1 -13.517539891777943 21.553654871643648 4.0396765255306875 0 -0.5877852598018023 -0.80901698891910034 2.5 0 0 1 I I 0 1 2.5 forward I I I I #
face $-1 $62 $63 $15 $-1 $64 reversed single #
loop $-1 $-1 $65 $25 #
plane-surface $-1 0 0 -9.9491871168942829 0 0 1 1 0 0 forward_v I I I I #
coedge $-1 $66 $67 $68 $69 forward $26 $-1 #
face $-1 $70 $71 $16 $-1 $72 forward single #
loop $-1 $-1 $73 $28 #
plane-surface $-1 -54.726023009486738 0 5.0395011588352894 0 0 1 1 0 0 forward_v I I I I #
coedge $-1 $74 $75 $76 $77 reversed $29 $-1 #
face $-1 $78 $79 $17 $-1 $80 forward single #
loop $-1 $-1 $81 $31 #
plane-surface $-1 -19.675622201386268 -17.522779520264649 35.569012466834721 0 0.5877852598018023 0.80901698891910034 1 0 0 forward_v I I I I #
coedge $-1 $82 $83 $84 $85 reversed $32 $-1 #
face $-1 $86 $87 $18 $-1 $88 forward single #
loop $-1 $89 $90 $34 #
cone-surface $-1 -25.833704510994593 19.32640939330976 0.97413617653835871 0 -0.5877852598018023 -0.80901698891910034 1.25 0 0 1 I I -0.70710678118654746 0.70710678118654746 1.25 forward I I I I #
loop $-1 $-1 $91 $23 #
coedge $-1 $56 $56 $92 $93 reversed $35 $-1 #
face $-1 $94 $95 $19 $-1 $96 reversed single #
loop $-1 $97 $98 $37 #
cone-surface $-1 -13.517539891777943 19.32640939330976 0.97413617653835871 0 -0.5877852598018023 -0.80901698891910034 1.25 0 0 1 I I -0.70710678118654746 0.70710678118654746 1.25 forward I I I I #
loop $-1 $-1 $99 $24 #
coedge $-1 $61 $61 $100 $101 reversed $38 $-1 #
face $-1 $102 $103 $15 $-1 $104 reversed single #
loop $-1 $-1 $105 $40 #
plane-surface $-1 0 -28.352453341735298 0 0 1 0 0 0 1 forward_v I I I I #
coedge $-1 $106 $107 $108 $109 forward $41 $-1 #
coedge $-1 $110 $43 $111 $112 forward $26 $-1 #
coedge $-1 $43 $110 $113 $114 forward $26 $-1 #
coedge $-1 $115 $116 $43 $69 reversed $117 $-1 #
edge $-1 $118 -28.352453341735298 $119 28.352453341735298 $68 $120 forward 7 unknown #
face $-1 $121 $122 $16 $-1 $123 reversed single #
loop $-1 $-1 $124 $44 #
plane-surface $-1 -50.077675463231415 0 6.5395011588352894 -1 0 0 0 0 1 forward_v I I I I #
coedge $-1 $125 $126 $127 $128 reversed $45 $-1 #
coedge $-1 $129 $47 $130 $131 reversed $29 $-1 #
coedge $-1 $47 $129 $132 $133 reversed $29 $-1 #
coedge $-1 $134 $124 $47 $77 forward $71 $-1 #
edge $-1 $135 -28.352453341735298 $136 28.352453341735298 $76 $137 forward 7 unknown #
face $-1 $138 $139 $17 $-1 $140 forward single #
loop $-1 $-1 $141 $48 #
plane-surface $-1 -5.3067634789668432 52.275980125086008 131.63876143878139 -1 0 0 0 0.5877852598018023 0.80901698891910034 forward_v I I I I #
coedge $-1 $142 $143 $144 $145 reversed $49 $-1 #
coedge $-1 $83 $51 $143 $146 forward $32 $-1 #
coedge $-1 $51 $82 $147 $148 reversed $32 $-1 #
coedge $-1 $149 $144 $51 $85 forward $139 $-1 #
edge $-1 $150 -8.3981058538277367 $151 2.2144632791922945 $84 $152 forward 7 unknown #
face $-1 $153 $154 $18 $-1 $155 forward single #
loop $-1 $-1 $156 $52 #
plane-surface $-1 -34.044480923805693 52.275980125086008 131.63876143878139 1 0 0 0 -0.5877852598018023 -0.80901698891910034 forward_v I I I I #
loop $-1 $-1 $157 $34 #
coedge $-1 $90 $90 $91 $158 forward $53 $-1 #
coedge $-1 $91 $91 $90 $158 reversed $55 $-1 #
coedge $-1 $92 $92 $56 $93 forward $154 $-1 #
edge $-1 $159 7.3203574262691859e-016 $159 6.2831853071796013 $92 $160 forward 7 unknown #
face $-1 $161 $162 $19 $-1 $163 reversed single #
loop $-1 $164 $165 $57 #
cone-surface $-1 -25.833704510994593 21.553654871643648 4.0396765255306875 0 -0.5877852598018023 -0.80901698891910034 2.5 0 0 1 I I 0 1 2.5 forward I I I I #
loop $-1 $-1 $166 $37 #
coedge $-1 $98 $98 $99 $167 forward $58 $-1 #
coedge $-1 $99 $99 $98 $167 reversed $60 $-1 #
coedge $-1 $100 $100 $61 $101 forward $168 $-1 #
edge $-1 $169 7.3203574262691859e-016 $169 6.2831853071796013 $100 $170 forward 7 unknown #
face $-1 $171 $172 $15 $-1 $173 reversed single #
loop $-1 $-1 $174 $62 #
plane-surface $-1 -59.374370555742061 0 0 1 0 0 0 0 -1 forward_v I I I I #
coedge $-1 $175 $113 $176 $177 forward $63 $-1 #
coedge $-1 $178 $65 $175 $179 forward $41 $-1 #
coedge $-1 $65 $178 $180 $181 forward $41 $-1 #
coedge $-1 $116 $115 $65 $109 reversed $117 $-1 #
edge $-1 $182 -28.352453341735298 $183 28.352453341735298 $108 $184 forward 7 unknown #
coedge $-1 $67 $66 $185 $186 forward $26 $-1 #
coedge $-1 $187 $188 $66 $112 reversed $172 $-1 #
edge $-1 $119 -59.374370555742061 $189 59.374370555742061 $111 $190 forward 7 unknown #
coedge $-1 $105 $191 $67 $114 reversed $63 $-1 #
edge $-1 $192 -59.374370555742061 $118 59.374370555742061 $113 $193 forward 7 unknown #
coedge $-1 $108 $68 $191 $194 forward $117 $-1 #
coedge $-1 $68 $108 $187 $195 reversed $117 $-1 #
loop $-1 $-1 $115 $171 #
vertex $-1 $69 $196 #
vertex $-1 $69 $197 #
straight-curve $-1 59.374370555742061 0 9.9491871168942829 0 1 0 I I #
face $-1 $198 $199 $16 $-1 $123 reversed single #
loop $-1 $-1 $200 $70 #
plane-surface $-1 -59.374370555742061 0 0 1 0 0 0 0 -1 forward_v I I I I #
coedge $-1 $76 $127 $201 $202 reversed $71 $-1 #
coedge $-1 $203 $73 $204 $205 reversed $45 $-1 #
coedge $-1 $73 $203 $206 $207 reversed $45 $-1 #
coedge $-1 $124 $134 $73 $128 forward $71 $-1 #
edge $-1 $208 -28.352453341735298 $209 28.352453341735298 $127 $210 forward 7 unknown #
coedge $-1 $75 $74 $211 $212 reversed $29 $-1 #
coedge $-1 $201 $213 $74 $131 forward $214 $-1 #
edge $-1 $215 -32.011359050998692 $135 -22.714663958488046 $130 $216 forward 7 unknown #
coedge $-1 $217 $218 $75 $133 forward $219 $-1 #
edge $-1 $136 22.714663958488046 $220 32.011359050998692 $132 $221 forward 7 unknown #
coedge $-1 $127 $76 $218 $222 reversed $71 $-1 #
vertex $-1 $131 $223 #
vertex $-1 $133 $224 #
straight-curve $-1 -50.077675463231415 0 8.0395011588352894 0 1 0 I I #
face $-1 $225 $226 $17 $-1 $227 reversed single #
loop $-1 $-1 $228 $78 #
plane-surface $-1 0 0 9.9491871168942829 0 0 1 1 0 0 forward_v I I I I #
coedge $-1 $229 $230 $228 $231 reversed $79 $-1 #
coedge $-1 $232 $81 $230 $233 reversed $49 $-1 #
coedge $-1 $81 $232 $82 $146 reversed $49 $-1 #
coedge $-1 $84 $228 $81 $145 forward $139 $-1 #
edge $-1 $234 -4.5310476217262909 $150 24.206669823112559 $144 $235 forward 7 unknown #
edge $-1 $150 43.587049730677649 $236 56.704906683470583 $82 $237 forward 7 unknown #
coedge $-1 $238 $239 $83 $148 forward $240 $-1 #
edge $-1 $151 55.870193602496414 $236 63.580676559536691 $147 $241 forward 7 unknown #
coedge $-1 $242 $84 $239 $243 forward $139 $-1 #
vertex $-1 $145 $244 #
vertex $-1 $243 $245 #
straight-curve $-1 -34.044480923805693 26.137990062543004 9.9491871168942794 0 1 0 I I #
face $-1 $246 $247 $18 $-1 $248 forward single #
loop $-1 $249 $92 $86 #
plane-surface $-1 -19.675622201386268 -17.522779520264649 35.569012466834721 0 0.5877852598018023 0.80901698891910034 1 0 0 forward_v I I I I #
coedge $-1 $250 $251 $252 $253 reversed $87 $-1 #
coedge $-1 $157 $157 $-1 $254 forward $89 $-1 #
edge $-1 $255 0 $255 6.2831853071796004 $90 $256 forward 7 unknown #
vertex $-1 $93 $257 #
ellipse-curve $-1 -25.833704510994593 23.046168775225286 6.0939456383741426 0 -0.5877852598018023 -0.80901698891910034 2.5 0 0 1 I I #
face $-1 $258 $259 $19 $-1 $260 forward single #
loop $-1 $261 $262 $94 #
cone-surface $-1 -25.833704510994593 19.32640939330976 0.97413617653835871 0 -0.5877852598018023 -0.80901698891910034 1.25 0 0 1 I I -0.70710678118654746 0.70710678118654746 1.25 forward I I I I #
loop $-1 $-1 $263 $57 #
coedge $-1 $165 $165 $264 $265 reversed $95 $-1 #
coedge $-1 $166 $166 $-1 $266 forward $97 $-1 #
edge $-1 $267 0 $267 6.2831853071796004 $98 $268 forward 7 unknown #
loop $-1 $269 $100 $258 #
vertex $-1 $101 $270 #
ellipse-curve $-1 -13.517539891777943 23.046168775225286 6.0939456383741426 0 -0.5877852598018023 -0.80901698891910034 2.5 0 0 1 I I #
face $-1 $-1 $117 $15 $-1 $271 reversed single #
loop $-1 $-1 $187 $102 #
plane-surface $-1 0 28.352453341735298 0 0 -1 0 0 0 -1 forward_v I I I I #
coedge $-1 $272 $185 $188 $273 forward $103 $-1 #
coedge $-1 $191 $105 $106 $179 reversed $63 $-1 #
coedge $-1 $185 $272 $105 $177 reversed $103 $-1 #
edge $-1 $192 -9.9491871168942829 $274 9.9491871168942829 $176 $275 forward 7 unknown #
coedge $-1 $107 $106 $272 $276 forward $41 $-1 #
edge $-1 $183 -59.374370555742061 $274 59.374370555742061 $175 $277 forward 7 unknown #
coedge $-1 $188 $187 $107 $181 reversed $172 $-1 #
edge $-1 $278 -59.374370555742061 $182 59.374370555742061 $180 $279 forward 7 unknown #
vertex $-1 $109 $280 #
vertex $-1 $194 $281 #
straight-curve $-1 59.374370555742061 0 -9.9491871168942829 0 -1 0 I I #
coedge $-1 $174 $176 $110 $186 reversed $103 $-1 #
edge $-1 $189 -28.352453341735298 $192 28.352453341735298 $185 $282 forward 7 unknown #
coedge $-1 $180 $111 $116 $195 forward $172 $-1 #
coedge $-1 $111 $180 $174 $273 reversed $172 $-1 #
vertex $-1 $112 $283 #
straight-curve $-1 0 28.352453341735298 9.9491871168942829 -1 0 0 I I #
coedge $-1 $113 $175 $115 $194 reversed $63 $-1 #
vertex $-1 $186 $284 #
straight-curve $-1 0 -28.352453341735298 9.9491871168942829 1 0 0 I I #
edge $-1 $118 -9.9491871168942829 $183 9.9491871168942829 $115 $285 forward 7 unknown #
edge $-1 $119 -9.9491871168942829 $182 9.9491871168942829 $116 $286 forward 7 unknown #
point $-1 59.374370555742061 -28.352453341735298 9.9491871168942829 #
point $-1 59.374370555742061 28.352453341735298 9.9491871168942829 #
face $-1 $287 $214 $16 $-1 $288 reversed single #
loop $-1 $-1 $211 $121 #
coedge $-1 $289 $290 $203 $291 forward $122 $-1 #
coedge $-1 $206 $130 $124 $202 forward $214 $-1 #
edge $-1 $135 -4.7697505794176447 $209 -1.7697505794176447 $201 $292 forward 7 unknown #
coedge $-1 $126 $125 $200 $291 reversed $45 $-1 #
coedge $-1 $218 $293 $125 $205 forward $219 $-1 #
edge $-1 $294 -32.011359050998692 $208 -22.714663958488046 $204 $295 forward 7 unknown #
coedge $-1 $296 $201 $126 $207 forward $214 $-1 #
edge $-1 $209 22.714663958488046 $297 32.011359050998692 $206 $298 forward 7 unknown #
vertex $-1 $205 $299 #
vertex $-1 $207 $300 #
straight-curve $-1 -50.077675463231415 0 5.0395011588352894 0 -1 0 I I #
coedge $-1 $301 $302 $129 $212 forward $199 $-1 #
edge $-1 $220 -28.352453341735298 $215 28.352453341735298 $211 $303 forward 7 unknown #
coedge $-1 $130 $304 $301 $305 forward $214 $-1 #
loop $-1 $-1 $130 $198 #
vertex $-1 $131 $306 #
straight-curve $-1 -27.363011504743369 -28.352453341735298 8.0395011588352894 1 0 0 I I #
coedge $-1 $307 $132 $302 $308 reversed $219 $-1 #
coedge $-1 $132 $204 $134 $222 forward $219 $-1 #
loop $-1 $-1 $132 $309 #
vertex $-1 $212 $310 #
straight-curve $-1 -27.363011504743369 28.352453341735298 8.0395011588352894 -1 0 0 I I #
edge $-1 $208 1.7697505794176447 $136 4.7697505794176447 $218 $311 forward 7 unknown #
point $-1 -50.077675463231415 -28.352453341735298 8.0395011588352894 #
point $-1 -50.077675463231415 28.352453341735298 8.0395011588352894 #
face $-1 $312 $313 $17 $-1 $314 forward single #
loop $-1 $-1 $315 $138 #
plane-surface $-1 -54.726023009486738 0 8.0395011588352894 0 0 1 1 0 0 forward_v I I I I #
coedge $-1 $144 $316 $141 $231 forward $139 $-1 #
coedge $-1 $230 $141 $317 $318 reversed $79 $-1 #
coedge $-1 $141 $229 $142 $233 forward $79 $-1 #
edge $-1 $319 -2.2144632791922945 $234 8.3981058538277367 $228 $320 forward 7 unknown #
coedge $-1 $143 $142 $238 $321 reversed $49 $-1 #
edge $-1 $322 -56.704906683470583 $234 -43.587049730677649 $230 $323 forward 7 unknown #
vertex $-1 $145 $324 #
straight-curve $-1 -9.8378111006931341 17.73988420871526 9.9491871168942865 -1 0 0 I I #
vertex $-1 $321 $325 #
straight-curve $-1 -34.044480923805693 -17.522779520264649 35.569012466834721 0 0.80901698891910034 -0.5877852598018023 I I #
coedge $-1 $317 $147 $232 $321 forward $240 $-1 #
coedge $-1 $147 $326 $149 $243 reversed $240 $-1 #
loop $-1 $-1 $317 $327 #
straight-curve $-1 -34.044480923805693 28.352453341735298 65.819380719390693 0 0 -1 I I #
coedge $-1 $328 $149 $329 $330 forward $139 $-1 #
edge $-1 $151 34.044480923805693 $331 59.374370555742061 $239 $332 forward 7 unknown #
point $-1 -34.044480923805693 17.739884208715267 9.9491871168942829 #
point $-1 -34.044480923805693 28.352453341735298 9.9491871168942829 #
face $-1 $333 $334 $18 $-1 $335 forward single #
loop $-1 $-1 $336 $153 #
plane-surface $-1 -5.3067634789668432 52.275980125086008 131.63876143878139 -1 0 0 0 0.5877852598018023 0.80901698891910034 forward_v I I I I #
loop $-1 $-1 $337 $86 #
coedge $-1 $251 $156 $338 $339 forward $87 $-1 #
coedge $-1 $156 $250 $340 $341 reversed $87 $-1 #
coedge $-1 $342 $343 $156 $253 forward $334 $-1 #
edge $-1 $344 -8.3981058538277367 $345 2.2144632791922945 $252 $346 forward 7 unknown #
edge $-1 $347 1 $347 0 $157 $-1 forward 7 unknown #
vertex $-1 $158 $348 #
ellipse-curve $-1 -25.833704510994593 20.061140968062013 1.9854074126872341 0 0.5877852598018023 0.80901698891910034 2.5 0 0 1 I I #
point $-1 -23.333704510994593 23.046168775225283 6.0939456383741408 #
face $-1 $349 $168 $19 $-1 $350 forward single #
loop $-1 $-1 $351 $161 #
plane-surface $-1 -34.044480923805693 52.275980125086008 131.63876143878139 1 0 0 0 -0.5877852598018023 -0.80901698891910034 forward_v I I I I #
loop $-1 $-1 $352 $94 #
coedge $-1 $262 $262 $263 $353 forward $162 $-1 #
coedge $-1 $263 $263 $262 $353 reversed $164 $-1 #
coedge $-1 $264 $264 $165 $265 forward $269 $-1 #
edge $-1 $354 7.3203574262691859e-016 $354 6.2831853071796013 $264 $355 forward 7 unknown #
edge $-1 $356 1 $356 0 $166 $-1 forward 7 unknown #
vertex $-1 $167 $357 #
ellipse-curve $-1 -13.517539891777943 20.061140968062013 1.9854074126872341 0 0.5877852598018023 0.80901698891910034 2.5 0 0 1 I I #
loop $-1 $358 $264 $258 #
point $-1 -11.017539891777943 23.046168775225283 6.0939456383741408 #
plane-surface $-1 59.374370555742061 0 0 -1 0 0 0 0 1 forward_v I I I I #
coedge $-1 $176 $174 $178 $276 reversed $103 $-1 #
edge $-1 $189 -9.9491871168942829 $278 9.9491871168942829 $188 $359 forward 7 unknown #
vertex $-1 $276 $360 #
straight-curve $-1 -59.374370555742061 -28.352453341735298 0 0 0 -1 I I #
edge $-1 $274 -28.352453341735298 $278 28.352453341735298 $272 $361 forward 7 unknown #
straight-curve $-1 0 -28.352453341735298 -9.9491871168942829 -1 0 0 I I #
vertex $-1 $181 $362 #
straight-curve $-1 0 28.352453341735298 -9.9491871168942829 1 0 0 I I #
point $-1 59.374370555742061 28.352453341735298 -9.9491871168942829 #
point $-1 59.374370555742061 -28.352453341735298 -9.9491871168942829 #
straight-curve $-1 -59.374370555742061 0 9.9491871168942829 0 -1 0 I I #
point $-1 -59.374370555742061 28.352453341735298 9.9491871168942829 #
point $-1 -59.374370555742061 -28.352453341735298 9.9491871168942829 #
straight-curve $-1 59.374370555742061 -28.352453341735298 0 0 0 -1 I I #
straight-curve $-1 59.374370555742061 28.352453341735298 0 0 0 -1 I I #
face $-1 $363 $364 $16 $-1 $365 forward single #
plane-surface $-1 0 -28.352453341735298 0 0 1 0 0 0 1 forward_v I I I I #
coedge $-1 $366 $200 $293 $367 forward $122 $-1 #
coedge $-1 $200 $366 $296 $368 reversed $122 $-1 #
edge $-1 $297 -28.352453341735298 $294 28.352453341735298 $200 $369 forward 7 unknown #
straight-curve $-1 -50.077675463231415 -28.352453341735298 3.2697505794176447 0 0 -1 I I #
coedge $-1 $204 $370 $289 $367 reversed $219 $-1 #
vertex $-1 $367 $371 #
straight-curve $-1 -27.363011504743369 28.352453341735298 5.0395011588352894 1 0 0 I I #
coedge $-1 $372 $206 $290 $368 forward $214 $-1 #
vertex $-1 $368 $373 #
straight-curve $-1 -27.363011504743369 -28.352453341735298 5.0395011588352894 -1 0 0 I I #
point $-1 -50.077675463231415 28.352453341735298 5.0395011588352894 #
point $-1 -50.077675463231415 -28.352453341735298 5.0395011588352894 #
coedge $-1 $374 $211 $213 $305 reversed $199 $-1 #
coedge $-1 $211 $374 $217 $308 forward $199 $-1 #
straight-curve $-1 -59.374370555742061 0 8.0395011588352894 0 -1 0 I I #
coedge $-1 $213 $375 $376 $377 reversed $214 $-1 #
edge $-1 $378 -9.9491871168942829 $215 -8.0395011588352894 $301 $379 forward 7 unknown #
point $-1 -59.374370555742061 -28.352453341735298 8.0395011588352894 #
coedge $-1 $380 $217 $381 $382 reversed $219 $-1 #
edge $-1 $383 -9.9491871168942829 $220 -8.0395011588352894 $217 $384 forward 7 unknown #
face $-1 $385 $219 $16 $-1 $386 reversed single #
point $-1 -59.374370555742061 28.352453341735298 8.0395011588352894 #
straight-curve $-1 -50.077675463231415 28.352453341735298 3.2697505794176447 0 0 1 I I #
face $-1 $387 $388 $17 $-1 $389 forward single #
loop $-1 $-1 $390 $225 #
plane-surface $-1 -54.726023009486738 0 5.0395011588352894 0 0 1 1 0 0 forward_v I I I I #
coedge $-1 $391 $392 $393 $394 reversed $226 $-1 #
coedge $-1 $228 $395 $396 $397 forward $139 $-1 #
coedge $-1 $396 $238 $229 $318 forward $240 $-1 #
edge $-1 $322 -63.580676559536691 $319 -55.870193602496414 $317 $398 forward 7 unknown #
vertex $-1 $318 $399 #
straight-curve $-1 -5.3067634789668432 26.137990062543004 9.9491871168942794 0 -1 0 I I #
edge $-1 $236 -24.206669823112559 $322 4.5310476217262909 $238 $400 forward 7 unknown #
vertex $-1 $321 $401 #
straight-curve $-1 -5.3067634789668432 -17.522779520264649 35.569012466834721 0 -0.80901698891910034 0.5877852598018023 I I #
point $-1 -5.3067634789668432 17.739884208715267 9.9491871168942829 #
point $-1 -34.044480923805693 28.352453341735298 2.2387041598540023 #
coedge $-1 $239 $402 $403 $404 reversed $240 $-1 #
face $-1 $405 $240 $17 $-1 $406 reversed single #
coedge $-1 $395 $242 $407 $408 forward $139 $-1 #
coedge $-1 $403 $409 $242 $330 reversed $410 $-1 #
edge $-1 $331 -28.352453341735298 $411 28.352453341735298 $329 $412 forward 7 unknown #
vertex $-1 $243 $413 #
straight-curve $-1 0 28.352453341735298 9.9491871168942829 -1 0 0 I I #
face $-1 $414 $415 $18 $-1 $416 reversed single #
loop $-1 $-1 $417 $246 #
plane-surface $-1 0 0 9.9491871168942829 0 0 1 1 0 0 forward_v I I I I #
coedge $-1 $418 $419 $417 $420 reversed $247 $-1 #
coedge $-1 $421 $338 $343 $422 reversed $249 $-1 #
coedge $-1 $337 $423 $250 $339 reversed $249 $-1 #
edge $-1 $344 43.587049730677649 $424 56.704906683470583 $250 $425 forward 7 unknown #
coedge $-1 $426 $427 $251 $341 forward $428 $-1 #
edge $-1 $345 55.870193602496414 $424 63.580676559536691 $340 $429 forward 7 unknown #
coedge $-1 $430 $252 $427 $431 forward $334 $-1 #
coedge $-1 $252 $417 $337 $422 forward $334 $-1 #
vertex $-1 $422 $432 #
vertex $-1 $431 $433 #
straight-curve $-1 -34.044480923805693 26.137990062543004 9.9491871168942794 0 1 0 I I #
vertex $-1 $254 $434 #
point $-1 -23.333704510994593 20.061140968062013 1.9854074126872341 #
face $-1 $435 $436 $19 $-1 $437 forward single #
plane-surface $-1 -19.675622201386268 -17.522779520264649 35.569012466834721 0 0.5877852598018023 0.80901698891910034 1 0 0 forward_v I I I I #
coedge $-1 $438 $439 $440 $441 reversed $259 $-1 #
coedge $-1 $352 $352 $-1 $442 forward $261 $-1 #
edge $-1 $443 0 $443 6.2831853071796004 $262 $444 forward 7 unknown #
vertex $-1 $265 $445 #
ellipse-curve $-1 -25.833704510994593 23.046168775225286 6.0939456383741426 0 -0.5877852598018023 -0.80901698891910034 2.5 0 0 1 I I #
vertex $-1 $266 $446 #
point $-1 -11.017539891777943 20.061140968062013 1.9854074126872341 #
loop $-1 $-1 $447 $258 #
straight-curve $-1 -59.374370555742061 28.352453341735298 0 0 0 -1 I I #
point $-1 -59.374370555742061 -28.352453341735298 -9.9491871168942829 #
straight-curve $-1 -59.374370555742061 0 -9.9491871168942829 0 1 0 I I #
point $-1 -59.374370555742061 28.352453341735298 -9.9491871168942829 #
face $-1 $309 $448 $16 $-1 $449 reversed single #
loop $-1 $-1 $450 $287 #
plane-surface $-1 0 0 9.9491871168942829 0 0 1 1 0 0 forward_v I I I I #
coedge $-1 $290 $289 $451 $452 reversed $122 $-1 #
edge $-1 $294 -5.0395011588352894 $453 9.9491871168942829 $293 $384 forward 7 unknown #
edge $-1 $297 -5.0395011588352894 $454 9.9491871168942829 $290 $379 forward 7 unknown #
straight-curve $-1 -59.374370555742061 0 5.0395011588352894 0 1 0 I I #
coedge $-1 $293 $380 $455 $456 reversed $219 $-1 #
point $-1 -59.374370555742061 28.352453341735298 5.0395011588352894 #
coedge $-1 $375 $296 $457 $458 reversed $214 $-1 #
point $-1 -59.374370555742061 -28.352453341735298 5.0395011588352894 #
coedge $-1 $302 $301 $459 $460 reversed $199 $-1 #
coedge $-1 $304 $372 $461 $462 reversed $214 $-1 #
coedge $-1 $450 $459 $304 $377 forward $364 $-1 #
edge $-1 $378 -59.374370555742061 $463 59.374370555742061 $304 $464 forward 7 unknown #
vertex $-1 $460 $465 #
straight-curve $-1 -59.374370555742061 -28.352453341735298 0 0 0 -1 I I #
coedge $-1 $370 $307 $466 $467 forward $219 $-1 #
coedge $-1 $459 $450 $307 $382 forward $364 $-1 #
edge $-1 $468 -59.374370555742061 $383 59.374370555742061 $307 $469 forward 7 unknown #
vertex $-1 $382 $470 #
straight-curve $-1 -59.374370555742061 28.352453341735298 0 0 0 -1 I I #
face $-1 $-1 $471 $16 $-1 $472 reversed single #
plane-surface $-1 0 28.352453341735298 0 0 -1 0 0 0 -1 forward_v I I I I #
face $-1 $473 $474 $17 $-1 $475 reversed single #
loop $-1 $-1 $476 $312 #
plane-surface $-1 -50.077675463231415 0 6.5395011588352894 -1 0 0 0 0 1 forward_v I I I I #
coedge $-1 $477 $478 $479 $480 reversed $313 $-1 #
coedge $-1 $481 $315 $482 $483 reversed $226 $-1 #
coedge $-1 $315 $481 $402 $484 reversed $226 $-1 #
coedge $-1 $485 $476 $315 $394 forward $388 $-1 #
edge $-1 $486 -28.352453341735298 $487 28.352453341735298 $393 $488 forward 7 unknown #
coedge $-1 $316 $328 $489 $490 forward $139 $-1 #
coedge $-1 $491 $317 $316 $397 reversed $240 $-1 #
edge $-1 $492 -59.374370555742061 $319 5.3067634789668432 $396 $332 forward 7 unknown #
straight-curve $-1 -5.3067634789668432 28.352453341735298 65.819380719390693 0 0 1 I I #
point $-1 -5.3067634789668432 28.352453341735298 9.9491871168942829 #
straight-curve $-1 -9.8378111006931341 28.352453341735298 2.2387041598540058 1 0 0 I I #
point $-1 -5.3067634789668432 28.352453341735298 2.2387041598540023 #
coedge $-1 $326 $493 $392 $484 forward $240 $-1 #
coedge $-1 $494 $329 $326 $404 forward $410 $-1 #
edge $-1 $331 -9.9491871168942829 $495 -8.0395011588352894 $326 $496 forward 7 unknown #
face $-1 $-1 $497 $17 $-1 $498 reversed single #
plane-surface $-1 0 28.352453341735298 0 0 -1 0 0 0 -1 forward_v I I I I #
coedge $-1 $499 $500 $328 $408 reversed $501 $-1 #
edge $-1 $411 -59.374370555742061 $502 59.374370555742061 $407 $503 forward 7 unknown #
coedge $-1 $329 $494 $499 $504 reversed $410 $-1 #
loop $-1 $-1 $494 $473 #
vertex $-1 $330 $505 #
straight-curve $-1 -59.374370555742061 0 9.9491871168942829 0 -1 0 I I #
point $-1 -59.374370555742061 28.352453341735298 9.9491871168942829 #
face $-1 $506 $507 $18 $-1 $508 forward single #
loop $-1 $-1 $509 $333 #
plane-surface $-1 -54.726023009486738 0 8.0395011588352894 0 0 1 1 0 0 forward_v I I I I #
coedge $-1 $343 $510 $336 $420 forward $334 $-1 #
coedge $-1 $419 $336 $511 $512 reversed $247 $-1 #
coedge $-1 $336 $418 $421 $513 forward $247 $-1 #
edge $-1 $514 -2.2144632791922945 $515 8.3981058538277367 $417 $516 forward 7 unknown #
coedge $-1 $423 $337 $419 $513 reversed $249 $-1 #
edge $-1 $515 -4.5310476217262909 $344 24.206669823112559 $343 $517 forward 7 unknown #
coedge $-1 $338 $421 $426 $518 reversed $249 $-1 #
vertex $-1 $518 $519 #
straight-curve $-1 -34.044480923805693 -17.522779520264649 35.569012466834721 0 0.80901698891910034 -0.5877852598018023 I I #
coedge $-1 $511 $340 $423 $518 forward $428 $-1 #
coedge $-1 $340 $520 $342 $431 reversed $428 $-1 #
loop $-1 $-1 $511 $521 #
straight-curve $-1 -34.044480923805693 28.352453341735298 65.819380719390693 0 0 -1 I I #
coedge $-1 $522 $342 $523 $524 forward $334 $-1 #
edge $-1 $345 34.044480923805693 $525 59.374370555742061 $427 $526 forward 7 unknown #
point $-1 -34.044480923805693 17.739884208715267 9.9491871168942829 #
point $-1 -34.044480923805693 28.352453341735298 9.9491871168942829 #
point $-1 -25.833704510994593 18.591677818557507 -0.037135059610516663 #
face $-1 $527 $528 $19 $-1 $529 forward single #
loop $-1 $-1 $530 $349 #
plane-surface $-1 -5.3067634789668432 52.275980125086008 131.63876143878139 -1 0 0 0 0.5877852598018023 0.80901698891910034 forward_v I I I I #
coedge $-1 $439 $351 $531 $532 forward $259 $-1 #
coedge $-1 $351 $438 $533 $534 reversed $259 $-1 #
coedge $-1 $535 $536 $351 $441 forward $528 $-1 #
edge $-1 $537 -8.3981058538277367 $538 2.2144632791922945 $440 $539 forward 7 unknown #
edge $-1 $540 1 $540 0 $352 $-1 forward 7 unknown #
vertex $-1 $353 $541 #
ellipse-curve $-1 -25.833704510994593 20.061140968062013 1.9854074126872341 0 0.5877852598018023 0.80901698891910034 2.5 0 0 1 I I #
point $-1 -23.333704510994593 23.046168775225283 6.0939456383741408 #
point $-1 -13.517539891777943 18.591677818557507 -0.037135059610516663 #
coedge $-1 $542 $531 $536 $543 reversed $358 $-1 #
loop $-1 $-1 $544 $363 #
plane-surface $-1 0 0 -9.9491871168942829 0 0 1 1 0 0 forward_v I I I I #
coedge $-1 $381 $376 $545 $546 forward $364 $-1 #
coedge $-1 $455 $457 $366 $452 forward $448 $-1 #
edge $-1 $454 -28.352453341735298 $453 28.352453341735298 $366 $547 forward 7 unknown #
vertex $-1 $456 $548 #
vertex $-1 $452 $549 #
coedge $-1 $544 $451 $370 $456 forward $448 $-1 #
edge $-1 $453 -59.374370555742061 $550 59.374370555742061 $370 $551 forward 7 unknown #
coedge $-1 $451 $544 $372 $458 forward $448 $-1 #
edge $-1 $552 -59.374370555742061 $454 59.374370555742061 $372 $553 forward 7 unknown #
coedge $-1 $376 $381 $374 $460 forward $364 $-1 #
edge $-1 $383 -28.352453341735298 $378 28.352453341735298 $374 $554 forward 7 unknown #
coedge $-1 $555 $545 $375 $462 forward $471 $-1 #
edge $-1 $463 -9.9491871168942829 $552 9.9491871168942829 $461 $556 forward 7 unknown #
vertex $-1 $546 $557 #
straight-curve $-1 0 -28.352453341735298 9.9491871168942829 1 0 0 I I #
point $-1 -59.374370555742061 -28.352453341735298 9.9491871168942829 #
coedge $-1 $545 $555 $380 $467 reversed $471 $-1 #
edge $-1 $468 -9.9491871168942829 $550 9.9491871168942829 $466 $558 forward 7 unknown #
vertex $-1 $546 $559 #
straight-curve $-1 0 28.352453341735298 9.9491871168942829 -1 0 0 I I #
point $-1 -59.374370555742061 28.352453341735298 9.9491871168942829 #
loop $-1 $-1 $461 $385 #
plane-surface $-1 59.374370555742061 0 0 -1 0 0 0 0 1 forward_v I I I I #
face $-1 $560 $410 $17 $-1 $475 reversed single #
loop $-1 $-1 $561 $387 #
plane-surface $-1 -59.374370555742061 0 0 1 0 0 0 0 -1 forward_v I I I I #
coedge $-1 $393 $479 $562 $563 reversed $388 $-1 #
coedge $-1 $564 $390 $565 $566 reversed $313 $-1 #
coedge $-1 $390 $564 $567 $568 reversed $313 $-1 #
coedge $-1 $476 $485 $390 $480 forward $388 $-1 #
edge $-1 $569 -28.352453341735298 $570 28.352453341735298 $479 $571 forward 7 unknown #
coedge $-1 $392 $391 $494 $572 reversed $226 $-1 #
coedge $-1 $562 $499 $391 $483 forward $501 $-1 #
edge $-1 $573 -32.011359050998692 $486 -22.714663958488046 $482 $574 forward 7 unknown #
edge $-1 $487 22.714663958488046 $495 32.011359050998692 $402 $575 forward 7 unknown #
coedge $-1 $479 $393 $493 $576 reversed $388 $-1 #
vertex $-1 $483 $577 #
vertex $-1 $484 $578 #
straight-curve $-1 -50.077675463231415 0 8.0395011588352894 0 1 0 I I #
coedge $-1 $579 $580 $395 $490 reversed $497 $-1 #
edge $-1 $502 -28.352453341735298 $492 28.352453341735298 $489 $581 forward 7 unknown #
coedge $-1 $582 $396 $580 $583 forward $240 $-1 #
vertex $-1 $490 $584 #
coedge $-1 $402 $565 $485 $576 forward $240 $-1 #
coedge $-1 $409 $403 $481 $572 forward $410 $-1 #
vertex $-1 $572 $585 #
straight-curve $-1 -59.374370555742061 28.352453341735298 0 0 0 -1 I I #
loop $-1 $-1 $579 $405 #
plane-surface $-1 59.374370555742061 0 0 -1 0 0 0 0 1 forward_v I I I I #
coedge $-1 $482 $407 $409 $504 forward $501 $-1 #
coedge $-1 $407 $586 $579 $587 reversed $501 $-1 #
loop $-1 $-1 $482 $560 #
vertex $-1 $490 $588 #
straight-curve $-1 0 -28.352453341735298 9.9491871168942829 1 0 0 I I #
edge $-1 $411 -9.9491871168942829 $573 -8.0395011588352894 $409 $589 forward 7 unknown #
point $-1 -59.374370555742061 -28.352453341735298 9.9491871168942829 #
face $-1 $590 $591 $18 $-1 $592 forward single #
loop $-1 $-1 $593 $414 #
plane-surface $-1 -54.726023009486738 0 5.0395011588352894 0 0 1 1 0 0 forward_v I I I I #
coedge $-1 $594 $595 $596 $597 reversed $415 $-1 #
coedge $-1 $417 $598 $599 $600 forward $334 $-1 #
coedge $-1 $599 $426 $418 $512 forward $428 $-1 #
edge $-1 $601 -63.580676559536691 $514 -55.870193602496414 $511 $602 forward 7 unknown #
edge $-1 $601 -56.704906683470583 $515 -43.587049730677649 $419 $603 forward 7 unknown #
vertex $-1 $512 $604 #
vertex $-1 $422 $605 #
straight-curve $-1 -5.3067634789668432 26.137990062543004 9.9491871168942794 0 -1 0 I I #
straight-curve $-1 -9.8378111006931341 17.73988420871526 9.9491871168942865 -1 0 0 I I #
edge $-1 $424 -24.206669823112559 $601 4.5310476217262909 $426 $606 forward 7 unknown #
point $-1 -34.044480923805693 28.352453341735298 2.2387041598540023 #
coedge $-1 $427 $607 $608 $609 reversed $428 $-1 #
face $-1 $610 $428 $18 $-1 $611 reversed single #
coedge $-1 $598 $430 $612 $613 forward $334 $-1 #
coedge $-1 $608 $614 $430 $524 reversed $615 $-1 #
edge $-1 $525 -28.352453341735298 $616 28.352453341735298 $523 $617 forward 7 unknown #
vertex $-1 $431 $618 #
straight-curve $-1 0 28.352453341735298 9.9491871168942829 -1 0 0 I I #
face $-1 $619 $620 $19 $-1 $621 reversed single #
loop $-1 $-1 $622 $435 #
plane-surface $-1 0 0 9.9491871168942829 0 0 1 1 0 0 forward_v I I I I #
coedge $-1 $623 $624 $622 $625 reversed $436 $-1 #
coedge $-1 $447 $626 $438 $532 reversed $358 $-1 #
edge $-1 $537 43.587049730677649 $627 56.704906683470583 $438 $628 forward 7 unknown #
coedge $-1 $629 $630 $439 $534 forward $631 $-1 #
edge $-1 $538 55.870193602496414 $627 63.580676559536691 $533 $632 forward 7 unknown #
coedge $-1 $633 $440 $630 $634 forward $528 $-1 #
coedge $-1 $440 $622 $447 $543 forward $528 $-1 #
vertex $-1 $543 $635 #
vertex $-1 $634 $636 #
straight-curve $-1 -34.044480923805693 26.137990062543004 9.9491871168942794 0 1 0 I I #
vertex $-1 $442 $637 #
point $-1 -23.333704510994593 20.061140968062013 1.9854074126872341 #
coedge $-1 $626 $447 $624 $638 reversed $358 $-1 #
edge $-1 $639 -4.5310476217262909 $537 24.206669823112559 $536 $640 forward 7 unknown #
coedge $-1 $457 $455 $555 $641 forward $448 $-1 #
coedge $-1 $461 $466 $450 $546 reversed $471 $-1 #
edge $-1 $463 -28.352453341735298 $468 28.352453341735298 $545 $642 forward 7 unknown #
straight-curve $-1 -59.374370555742061 0 -9.9491871168942829 0 1 0 I I #
point $-1 -59.374370555742061 28.352453341735298 -9.9491871168942829 #
point $-1 -59.374370555742061 -28.352453341735298 -9.9491871168942829 #
vertex $-1 $641 $643 #
straight-curve $-1 0 28.352453341735298 -9.9491871168942829 1 0 0 I I #
vertex $-1 $462 $644 #
straight-curve $-1 0 -28.352453341735298 -9.9491871168942829 -1 0 0 I I #
straight-curve $-1 -59.374370555742061 0 9.9491871168942829 0 -1 0 I I #
coedge $-1 $466 $461 $544 $641 reversed $471 $-1 #
straight-curve $-1 59.374370555742061 -28.352453341735298 0 0 0 -1 I I #
point $-1 59.374370555742061 -28.352453341735298 9.9491871168942829 #
straight-curve $-1 59.374370555742061 28.352453341735298 0 0 0 -1 I I #
point $-1 59.374370555742061 28.352453341735298 9.9491871168942829 #
face $-1 $645 $501 $17 $-1 $646 reversed single #
coedge $-1 $647 $648 $564 $649 forward $474 $-1 #
coedge $-1 $567 $482 $476 $563 forward $501 $-1 #
edge $-1 $486 -4.7697505794176447 $570 -1.7697505794176447 $562 $650 forward 7 unknown #
coedge $-1 $478 $477 $561 $649 reversed $313 $-1 #
coedge $-1 $493 $651 $477 $566 forward $240 $-1 #
edge $-1 $652 -32.011359050998692 $569 -22.714663958488046 $565 $653 forward 7 unknown #
coedge $-1 $654 $562 $478 $568 forward $501 $-1 #
edge $-1 $570 22.714663958488046 $655 32.011359050998692 $567 $656 forward 7 unknown #
vertex $-1 $566 $657 #
vertex $-1 $568 $658 #
straight-curve $-1 -50.077675463231415 0 5.0395011588352894 0 -1 0 I I #
edge $-1 $495 -28.352453341735298 $573 28.352453341735298 $494 $659 forward 7 unknown #
vertex $-1 $483 $660 #
straight-curve $-1 -27.363011504743369 -28.352453341735298 8.0395011588352894 1 0 0 I I #
straight-curve $-1 -27.363011504743369 28.352453341735298 8.0395011588352894 -1 0 0 I I #
edge $-1 $569 1.7697505794176447 $487 4.7697505794176447 $493 $661 forward 7 unknown #
point $-1 -50.077675463231415 -28.352453341735298 8.0395011588352894 #
point $-1 -50.077675463231415 28.352453341735298 8.0395011588352894 #
coedge $-1 $662 $489 $500 $587 forward $497 $-1 #
coedge $-1 $489 $662 $491 $583 reversed $497 $-1 #
straight-curve $-1 59.374370555742061 0 9.9491871168942829 0 1 0 I I #
coedge $-1 $651 $491 $663 $664 reversed $240 $-1 #
edge $-1 $492 -9.9491871168942829 $665 9.9491871168942829 $580 $666 forward 7 unknown #
point $-1 59.374370555742061 28.352453341735298 9.9491871168942829 #
point $-1 -59.374370555742061 28.352453341735298 8.0395011588352894 #
coedge $-1 $500 $654 $667 $668 reversed $501 $-1 #
edge $-1 $502 -9.9491871168942829 $669 9.9491871168942829 $579 $670 forward 7 unknown #
point $-1 59.374370555742061 -28.352453341735298 9.9491871168942829 #
straight-curve $-1 -59.374370555742061 -28.352453341735298 0 0 0 -1 I I #
face $-1 $671 $672 $18 $-1 $673 reversed single #
loop $-1 $-1 $674 $506 #
plane-surface $-1 -50.077675463231415 0 6.5395011588352894 -1 0 0 0 0 1 forward_v I I I I #
coedge $-1 $675 $676 $677 $678 reversed $507 $-1 #
coedge $-1 $679 $509 $680 $681 reversed $415 $-1 #
coedge $-1 $509 $679 $607 $682 reversed $415 $-1 #
coedge $-1 $683 $674 $509 $597 forward $591 $-1 #
edge $-1 $684 -28.352453341735298 $685 28.352453341735298 $596 $686 forward 7 unknown #
coedge $-1 $510 $522 $687 $688 forward $334 $-1 #
coedge $-1 $689 $511 $510 $600 reversed $428 $-1 #
edge $-1 $690 -59.374370555742061 $514 5.3067634789668432 $599 $526 forward 7 unknown #
vertex $-1 $518 $691 #
straight-curve $-1 -5.3067634789668432 28.352453341735298 65.819380719390693 0 0 1 I I #
straight-curve $-1 -5.3067634789668432 -17.522779520264649 35.569012466834721 0 -0.80901698891910034 0.5877852598018023 I I #
point $-1 -5.3067634789668432 28.352453341735298 9.9491871168942829 #
point $-1 -5.3067634789668432 17.739884208715267 9.9491871168942829 #
straight-curve $-1 -9.8378111006931341 28.352453341735298 2.2387041598540058 1 0 0 I I #
coedge $-1 $520 $692 $595 $682 forward $428 $-1 #
coedge $-1 $693 $523 $520 $609 forward $615 $-1 #
edge $-1 $525 -9.9491871168942829 $694 -8.0395011588352894 $520 $695 forward 7 unknown #
face $-1 $-1 $696 $18 $-1 $697 reversed single #
plane-surface $-1 0 28.352453341735298 0 0 -1 0 0 0 -1 forward_v I I I I #
coedge $-1 $698 $699 $522 $613 reversed $700 $-1 #
edge $-1 $616 -59.374370555742061 $701 59.374370555742061 $612 $702 forward 7 unknown #
coedge $-1 $523 $693 $698 $703 reversed $615 $-1 #
loop $-1 $-1 $693 $671 #
vertex $-1 $524 $704 #
straight-curve $-1 -59.374370555742061 0 9.9491871168942829 0 -1 0 I I #
point $-1 -59.374370555742061 28.352453341735298 9.9491871168942829 #
face $-1 $705 $706 $19 $-1 $707 forward single #
loop $-1 $-1 $708 $527 #
plane-surface $-1 -54.726023009486738 0 8.0395011588352894 0 0 1 1 0 0 forward_v I I I I #
coedge $-1 $536 $709 $530 $625 forward $528 $-1 #
coedge $-1 $624 $530 $710 $711 reversed $436 $-1 #
coedge $-1 $530 $623 $542 $638 forward $436 $-1 #
edge $-1 $712 -2.2144632791922945 $639 8.3981058538277367 $622 $713 forward 7 unknown #
coedge $-1 $531 $542 $629 $714 reversed $358 $-1 #
vertex $-1 $714 $715 #
straight-curve $-1 -34.044480923805693 -17.522779520264649 35.569012466834721 0 0.80901698891910034 -0.5877852598018023 I I #
coedge $-1 $710 $533 $626 $714 forward $631 $-1 #
coedge $-1 $533 $716 $535 $634 reversed $631 $-1 #
loop $-1 $-1 $710 $717 #
straight-curve $-1 -34.044480923805693 28.352453341735298 65.819380719390693 0 0 -1 I I #
coedge $-1 $718 $535 $719 $720 forward $528 $-1 #
edge $-1 $538 34.044480923805693 $721 59.374370555742061 $630 $722 forward 7 unknown #
point $-1 -34.044480923805693 17.739884208715267 9.9491871168942829 #
point $-1 -34.044480923805693 28.352453341735298 9.9491871168942829 #
point $-1 -25.833704510994593 18.591677818557507 -0.037135059610516663 #
edge $-1 $723 -56.704906683470583 $639 -43.587049730677649 $624 $724 forward 7 unknown #
vertex $-1 $543 $725 #
straight-curve $-1 -9.8378111006931341 17.73988420871526 9.9491871168942865 -1 0 0 I I #
edge $-1 $550 -28.352453341735298 $552 28.352453341735298 $555 $726 forward 7 unknown #
straight-curve $-1 59.374370555742061 0 9.9491871168942829 0 1 0 I I #
point $-1 59.374370555742061 28.352453341735298 -9.9491871168942829 #
point $-1 59.374370555742061 -28.352453341735298 -9.9491871168942829 #
face $-1 $327 $727 $17 $-1 $728 reversed single #
plane-surface $-1 0 -28.352453341735298 0 0 1 0 0 0 1 forward_v I I I I #
coedge $-1 $729 $561 $651 $730 forward $474 $-1 #
coedge $-1 $561 $729 $654 $731 reversed $474 $-1 #
edge $-1 $655 -28.352453341735298 $652 28.352453341735298 $561 $732 forward 7 unknown #
straight-curve $-1 -50.077675463231415 -28.352453341735298 3.2697505794176447 0 0 -1 I I #
coedge $-1 $565 $582 $647 $730 reversed $240 $-1 #
vertex $-1 $730 $733 #
straight-curve $-1 -27.363011504743369 28.352453341735298 5.0395011588352894 1 0 0 I I #
coedge $-1 $586 $567 $648 $731 forward $501 $-1 #
vertex $-1 $731 $734 #
straight-curve $-1 -27.363011504743369 -28.352453341735298 5.0395011588352894 -1 0 0 I I #
point $-1 -50.077675463231415 28.352453341735298 5.0395011588352894 #
point $-1 -50.077675463231415 -28.352453341735298 5.0395011588352894 #
straight-curve $-1 -59.374370555742061 0 8.0395011588352894 0 -1 0 I I #
point $-1 -59.374370555742061 -28.352453341735298 8.0395011588352894 #
straight-curve $-1 -50.077675463231415 28.352453341735298 3.2697505794176447 0 0 1 I I #
coedge $-1 $580 $579 $735 $736 reversed $497 $-1 #
coedge $-1 $735 $737 $582 $664 forward $727 $-1 #
edge $-1 $738 -59.374370555742061 $665 59.374370555742061 $582 $739 forward 7 unknown #
vertex $-1 $736 $740 #
straight-curve $-1 59.374370555742061 28.352453341735298 0 0 0 -1 I I #
coedge $-1 $737 $735 $586 $668 forward $727 $-1 #
edge $-1 $669 -59.374370555742061 $741 59.374370555742061 $586 $742 forward 7 unknown #
vertex $-1 $587 $743 #
straight-curve $-1 59.374370555742061 -28.352453341735298 0 0 0 -1 I I #
face $-1 $744 $615 $18 $-1 $673 reversed single #
loop $-1 $-1 $745 $590 #
plane-surface $-1 -59.374370555742061 0 0 1 0 0 0 0 -1 forward_v I I I I #
coedge $-1 $596 $677 $746 $747 reversed $591 $-1 #
coedge $-1 $748 $593 $749 $750 reversed $507 $-1 #
coedge $-1 $593 $748 $751 $752 reversed $507 $-1 #
coedge $-1 $674 $683 $593 $678 forward $591 $-1 #
edge $-1 $753 -28.352453341735298 $754 28.352453341735298 $677 $755 forward 7 unknown #
coedge $-1 $595 $594 $693 $756 reversed $415 $-1 #
coedge $-1 $746 $698 $594 $681 forward $700 $-1 #
edge $-1 $757 -32.011359050998692 $684 -22.714663958488046 $680 $758 forward 7 unknown #
edge $-1 $685 22.714663958488046 $694 32.011359050998692 $607 $759 forward 7 unknown #
coedge $-1 $677 $596 $692 $760 reversed $591 $-1 #
vertex $-1 $681 $761 #
vertex $-1 $682 $762 #
straight-curve $-1 -50.077675463231415 0 8.0395011588352894 0 1 0 I I #
coedge $-1 $763 $764 $598 $688 reversed $696 $-1 #
edge $-1 $701 -28.352453341735298 $690 28.352453341735298 $687 $765 forward 7 unknown #
coedge $-1 $766 $599 $764 $767 forward $428 $-1 #
vertex $-1 $688 $768 #
point $-1 -5.3067634789668432 28.352453341735298 2.2387041598540023 #
coedge $-1 $607 $749 $683 $760 forward $428 $-1 #
coedge $-1 $614 $608 $679 $756 forward $615 $-1 #
vertex $-1 $756 $769 #
straight-curve $-1 -59.374370555742061 28.352453341735298 0 0 0 -1 I I #
loop $-1 $-1 $763 $610 #
plane-surface $-1 59.374370555742061 0 0 -1 0 0 0 0 1 forward_v I I I I #
coedge $-1 $680 $612 $614 $703 forward $700 $-1 #
coedge $-1 $612 $770 $763 $771 reversed $700 $-1 #
loop $-1 $-1 $680 $744 #
vertex $-1 $688 $772 #
straight-curve $-1 0 -28.352453341735298 9.9491871168942829 1 0 0 I I #
edge $-1 $616 -9.9491871168942829 $757 -8.0395011588352894 $614 $773 forward 7 unknown #
point $-1 -59.374370555742061 -28.352453341735298 9.9491871168942829 #
face $-1 $774 $775 $19 $-1 $776 forward single #
loop $-1 $-1 $777 $619 #
plane-surface $-1 -54.726023009486738 0 5.0395011588352894 0 0 1 1 0 0 forward_v I I I I #
coedge $-1 $778 $779 $780 $781 reversed $620 $-1 #
coedge $-1 $622 $782 $783 $784 forward $528 $-1 #
coedge $-1 $783 $629 $623 $711 forward $631 $-1 #
edge $-1 $723 -63.580676559536691 $712 -55.870193602496414 $710 $785 forward 7 unknown #
vertex $-1 $711 $786 #
straight-curve $-1 -5.3067634789668432 26.137990062543004 9.9491871168942794 0 -1 0 I I #
edge $-1 $627 -24.206669823112559 $723 4.5310476217262909 $629 $787 forward 7 unknown #
point $-1 -34.044480923805693 28.352453341735298 2.2387041598540023 #
coedge $-1 $630 $788 $789 $790 reversed $631 $-1 #
face $-1 $791 $631 $19 $-1 $792 reversed single #
coedge $-1 $782 $633 $793 $794 forward $528 $-1 #
coedge $-1 $789 $795 $633 $720 reversed $796 $-1 #
edge $-1 $721 -28.352453341735298 $797 28.352453341735298 $719 $798 forward 7 unknown #
vertex $-1 $634 $799 #
straight-curve $-1 0 28.352453341735298 9.9491871168942829 -1 0 0 I I #
vertex $-1 $714 $800 #
straight-curve $-1 -5.3067634789668432 -17.522779520264649 35.569012466834721 0 -0.80901698891910034 0.5877852598018023 I I #
point $-1 -5.3067634789668432 17.739884208715267 9.9491871168942829 #
straight-curve $-1 59.374370555742061 0 -9.9491871168942829 0 -1 0 I I #
loop $-1 $-1 $735 $645 #
plane-surface $-1 0 0 -9.9491871168942829 0 0 1 1 0 0 forward_v I I I I #
coedge $-1 $648 $647 $737 $801 reversed $474 $-1 #
edge $-1 $652 -5.0395011588352894 $738 9.9491871168942829 $651 $496 forward 7 unknown #
edge $-1 $655 -5.0395011588352894 $741 9.9491871168942829 $648 $589 forward 7 unknown #
straight-curve $-1 -59.374370555742061 0 5.0395011588352894 0 1 0 I I #
point $-1 -59.374370555742061 28.352453341735298 5.0395011588352894 #
point $-1 -59.374370555742061 -28.352453341735298 5.0395011588352894 #
coedge $-1 $667 $663 $662 $736 forward $727 $-1 #
edge $-1 $665 -28.352453341735298 $669 28.352453341735298 $662 $802 forward 7 unknown #
coedge $-1 $663 $667 $729 $801 forward $727 $-1 #
vertex $-1 $664 $803 #
straight-curve $-1 0 28.352453341735298 -9.9491871168942829 1 0 0 I I #
point $-1 59.374370555742061 28.352453341735298 -9.9491871168942829 #
vertex $-1 $801 $804 #
straight-curve $-1 0 -28.352453341735298 -9.9491871168942829 -1 0 0 I I #
point $-1 59.374370555742061 -28.352453341735298 -9.9491871168942829 #
face $-1 $805 $700 $18 $-1 $806 reversed single #
coedge $-1 $807 $808 $748 $809 forward $672 $-1 #
coedge $-1 $751 $680 $674 $747 forward $700 $-1 #
edge $-1 $684 -4.7697505794176447 $754 -1.7697505794176447 $746 $810 forward 7 unknown #
coedge $-1 $676 $675 $745 $809 reversed $507 $-1 #
coedge $-1 $692 $811 $675 $750 forward $428 $-1 #
edge $-1 $812 -32.011359050998692 $753 -22.714663958488046 $749 $813 forward 7 unknown #
coedge $-1 $814 $746 $676 $752 forward $700 $-1 #
edge $-1 $754 22.714663958488046 $815 32.011359050998692 $751 $816 forward 7 unknown #
vertex $-1 $750 $817 #
vertex $-1 $752 $818 #
straight-curve $-1 -50.077675463231415 0 5.0395011588352894 0 -1 0 I I #
edge $-1 $694 -28.352453341735298 $757 28.352453341735298 $693 $819 forward 7 unknown #
vertex $-1 $681 $820 #
straight-curve $-1 -27.363011504743369 -28.352453341735298 8.0395011588352894 1 0 0 I I #
straight-curve $-1 -27.363011504743369 28.352453341735298 8.0395011588352894 -1 0 0 I I #
edge $-1 $753 1.7697505794176447 $685 4.7697505794176447 $692 $821 forward 7 unknown #
point $-1 -50.077675463231415 -28.352453341735298 8.0395011588352894 #
point $-1 -50.077675463231415 28.352453341735298 8.0395011588352894 #
coedge $-1 $822 $687 $699 $771 forward $696 $-1 #
coedge $-1 $687 $822 $689 $767 reversed $696 $-1 #
straight-curve $-1 59.374370555742061 0 9.9491871168942829 0 1 0 I I #
coedge $-1 $811 $689 $823 $824 reversed $428 $-1 #
edge $-1 $690 -9.9491871168942829 $825 9.9491871168942829 $764 $826 forward 7 unknown #
point $-1 59.374370555742061 28.352453341735298 9.9491871168942829 #
point $-1 -59.374370555742061 28.352453341735298 8.0395011588352894 #
coedge $-1 $699 $814 $827 $828 reversed $700 $-1 #
edge $-1 $701 -9.9491871168942829 $829 9.9491871168942829 $763 $830 forward 7 unknown #
point $-1 59.374370555742061 -28.352453341735298 9.9491871168942829 #
straight-curve $-1 -59.374370555742061 -28.352453341735298 0 0 0 -1 I I #
face $-1 $831 $832 $19 $-1 $833 reversed single #
loop $-1 $-1 $834 $705 #
plane-surface $-1 -50.077675463231415 0 6.5395011588352894 -1 0 0 0 0 1 forward_v I I I I #
coedge $-1 $835 $836 $837 $838 reversed $706 $-1 #
coedge $-1 $839 $708 $840 $841 reversed $620 $-1 #
coedge $-1 $708 $839 $788 $842 reversed $620 $-1 #
coedge $-1 $843 $834 $708 $781 forward $775 $-1 #
edge $-1 $844 -28.352453341735298 $845 28.352453341735298 $780 $846 forward 7 unknown #
coedge $-1 $709 $718 $847 $848 forward $528 $-1 #
coedge $-1 $849 $710 $709 $784 reversed $631 $-1 #
edge $-1 $850 -59.374370555742061 $712 5.3067634789668432 $783 $722 forward 7 unknown #
straight-curve $-1 -5.3067634789668432 28.352453341735298 65.819380719390693 0 0 1 I I #
point $-1 -5.3067634789668432 28.352453341735298 9.9491871168942829 #
straight-curve $-1 -9.8378111006931341 28.352453341735298 2.2387041598540058 1 0 0 I I #
coedge $-1 $716 $851 $779 $842 forward $631 $-1 #
coedge $-1 $852 $719 $716 $790 forward $796 $-1 #
edge $-1 $721 -9.9491871168942829 $853 -8.0395011588352894 $716 $854 forward 7 unknown #
face $-1 $-1 $855 $19 $-1 $856 reversed single #
plane-surface $-1 0 28.352453341735298 0 0 -1 0 0 0 -1 forward_v I I I I #
coedge $-1 $857 $858 $718 $794 reversed $859 $-1 #
edge $-1 $797 -59.374370555742061 $860 59.374370555742061 $793 $861 forward 7 unknown #
coedge $-1 $719 $852 $857 $862 reversed $796 $-1 #
loop $-1 $-1 $852 $831 #
vertex $-1 $720 $863 #
straight-curve $-1 -59.374370555742061 0 9.9491871168942829 0 -1 0 I I #
point $-1 -59.374370555742061 28.352453341735298 9.9491871168942829 #
point $-1 -5.3067634789668432 28.352453341735298 2.2387041598540023 #
edge $-1 $741 -28.352453341735298 $738 28.352453341735298 $729 $864 forward 7 unknown #
straight-curve $-1 59.374370555742061 0 -9.9491871168942829 0 -1 0 I I #
point $-1 -59.374370555742061 28.352453341735298 -9.9491871168942829 #
point $-1 -59.374370555742061 -28.352453341735298 -9.9491871168942829 #
face $-1 $521 $865 $18 $-1 $866 reversed single #
plane-surface $-1 0 -28.352453341735298 0 0 1 0 0 0 1 forward_v I I I I #
coedge $-1 $867 $745 $811 $868 forward $672 $-1 #
coedge $-1 $745 $867 $814 $869 reversed $672 $-1 #
edge $-1 $815 -28.352453341735298 $812 28.352453341735298 $745 $870 forward 7 unknown #
straight-curve $-1 -50.077675463231415 -28.352453341735298 3.2697505794176447 0 0 -1 I I #
coedge $-1 $749 $766 $807 $868 reversed $428 $-1 #
vertex $-1 $868 $871 #
straight-curve $-1 -27.363011504743369 28.352453341735298 5.0395011588352894 1 0 0 I I #
coedge $-1 $770 $751 $808 $869 forward $700 $-1 #
vertex $-1 $869 $872 #
straight-curve $-1 -27.363011504743369 -28.352453341735298 5.0395011588352894 -1 0 0 I I #
point $-1 -50.077675463231415 28.352453341735298 5.0395011588352894 #
point $-1 -50.077675463231415 -28.352453341735298 5.0395011588352894 #
straight-curve $-1 -59.374370555742061 0 8.0395011588352894 0 -1 0 I I #
point $-1 -59.374370555742061 -28.352453341735298 8.0395011588352894 #
straight-curve $-1 -50.077675463231415 28.352453341735298 3.2697505794176447 0 0 1 I I #
coedge $-1 $764 $763 $873 $874 reversed $696 $-1 #
coedge $-1 $873 $875 $766 $824 forward $865 $-1 #
edge $-1 $876 -59.374370555742061 $825 59.374370555742061 $766 $877 forward 7 unknown #
vertex $-1 $874 $878 #
straight-curve $-1 59.374370555742061 28.352453341735298 0 0 0 -1 I I #
coedge $-1 $875 $873 $770 $828 forward $865 $-1 #
edge $-1 $829 -59.374370555742061 $879 59.374370555742061 $770 $880 forward 7 unknown #
vertex $-1 $771 $881 #
straight-curve $-1 59.374370555742061 -28.352453341735298 0 0 0 -1 I I #
face $-1 $882 $796 $19 $-1 $833 reversed single #
loop $-1 $-1 $883 $774 #
plane-surface $-1 -59.374370555742061 0 0 1 0 0 0 0 -1 forward_v I I I I #
coedge $-1 $780 $837 $884 $885 reversed $775 $-1 #
coedge $-1 $886 $777 $887 $888 reversed $706 $-1 #
coedge $-1 $777 $886 $889 $890 reversed $706 $-1 #
coedge $-1 $834 $843 $777 $838 forward $775 $-1 #
edge $-1 $891 -28.352453341735298 $892 28.352453341735298 $837 $893 forward 7 unknown #
coedge $-1 $779 $778 $852 $894 reversed $620 $-1 #
coedge $-1 $884 $857 $778 $841 forward $859 $-1 #
edge $-1 $895 -32.011359050998692 $844 -22.714663958488046 $840 $896 forward 7 unknown #
edge $-1 $845 22.714663958488046 $853 32.011359050998692 $788 $897 forward 7 unknown #
coedge $-1 $837 $780 $851 $898 reversed $775 $-1 #
vertex $-1 $841 $899 #
vertex $-1 $842 $900 #
straight-curve $-1 -50.077675463231415 0 8.0395011588352894 0 1 0 I I #
coedge $-1 $901 $902 $782 $848 reversed $855 $-1 #
edge $-1 $860 -28.352453341735298 $850 28.352453341735298 $847 $903 forward 7 unknown #
coedge $-1 $904 $783 $902 $905 forward $631 $-1 #
vertex $-1 $848 $906 #
coedge $-1 $788 $887 $843 $898 forward $631 $-1 #
coedge $-1 $795 $789 $839 $894 forward $796 $-1 #
vertex $-1 $894 $907 #
straight-curve $-1 -59.374370555742061 28.352453341735298 0 0 0 -1 I I #
loop $-1 $-1 $901 $791 #
plane-surface $-1 59.374370555742061 0 0 -1 0 0 0 0 1 forward_v I I I I #
coedge $-1 $840 $793 $795 $862 forward $859 $-1 #
coedge $-1 $793 $908 $901 $909 reversed $859 $-1 #
loop $-1 $-1 $840 $882 #
vertex $-1 $848 $910 #
straight-curve $-1 0 -28.352453341735298 9.9491871168942829 1 0 0 I I #
edge $-1 $797 -9.9491871168942829 $895 -8.0395011588352894 $795 $911 forward 7 unknown #
point $-1 -59.374370555742061 -28.352453341735298 9.9491871168942829 #
straight-curve $-1 -59.374370555742061 0 -9.9491871168942829 0 1 0 I I #
loop $-1 $-1 $873 $805 #
plane-surface $-1 0 0 -9.9491871168942829 0 0 1 1 0 0 forward_v I I I I #
coedge $-1 $808 $807 $875 $912 reversed $672 $-1 #
edge $-1 $812 -5.0395011588352894 $876 9.9491871168942829 $811 $695 forward 7 unknown #
edge $-1 $815 -5.0395011588352894 $879 9.9491871168942829 $808 $773 forward 7 unknown #
straight-curve $-1 -59.374370555742061 0 5.0395011588352894 0 1 0 I I #
point $-1 -59.374370555742061 28.352453341735298 5.0395011588352894 #
point $-1 -59.374370555742061 -28.352453341735298 5.0395011588352894 #
coedge $-1 $827 $823 $822 $874 forward $865 $-1 #
edge $-1 $825 -28.352453341735298 $829 28.352453341735298 $822 $913 forward 7 unknown #
coedge $-1 $823 $827 $867 $912 forward $865 $-1 #
vertex $-1 $824 $914 #
straight-curve $-1 0 28.352453341735298 -9.9491871168942829 1 0 0 I I #
point $-1 59.374370555742061 28.352453341735298 -9.9491871168942829 #
vertex $-1 $912 $915 #
straight-curve $-1 0 -28.352453341735298 -9.9491871168942829 -1 0 0 I I #
point $-1 59.374370555742061 -28.352453341735298 -9.9491871168942829 #
face $-1 $916 $859 $19 $-1 $917 reversed single #
coedge $-1 $918 $919 $886 $920 forward $832 $-1 #
coedge $-1 $889 $840 $834 $885 forward $859 $-1 #
edge $-1 $844 -4.7697505794176447 $892 -1.7697505794176447 $884 $921 forward 7 unknown #
coedge $-1 $836 $835 $883 $920 reversed $706 $-1 #
coedge $-1 $851 $922 $835 $888 forward $631 $-1 #
edge $-1 $923 -32.011359050998692 $891 -22.714663958488046 $887 $924 forward 7 unknown #
coedge $-1 $925 $884 $836 $890 forward $859 $-1 #
edge $-1 $892 22.714663958488046 $926 32.011359050998692 $889 $927 forward 7 unknown #
vertex $-1 $888 $928 #
vertex $-1 $890 $929 #
straight-curve $-1 -50.077675463231415 0 5.0395011588352894 0 -1 0 I I #
edge $-1 $853 -28.352453341735298 $895 28.352453341735298 $852 $930 forward 7 unknown #
vertex $-1 $841 $931 #
straight-curve $-1 -27.363011504743369 -28.352453341735298 8.0395011588352894 1 0 0 I I #
straight-curve $-1 -27.363011504743369 28.352453341735298 8.0395011588352894 -1 0 0 I I #
edge $-1 $891 1.7697505794176447 $845 4.7697505794176447 $851 $932 forward 7 unknown #
point $-1 -50.077675463231415 -28.352453341735298 8.0395011588352894 #
point $-1 -50.077675463231415 28.352453341735298 8.0395011588352894 #
coedge $-1 $933 $847 $858 $909 forward $855 $-1 #
coedge $-1 $847 $933 $849 $905 reversed $855 $-1 #
straight-curve $-1 59.374370555742061 0 9.9491871168942829 0 1 0 I I #
coedge $-1 $922 $849 $934 $935 reversed $631 $-1 #
edge $-1 $850 -9.9491871168942829 $936 9.9491871168942829 $902 $937 forward 7 unknown #
point $-1 59.374370555742061 28.352453341735298 9.9491871168942829 #
point $-1 -59.374370555742061 28.352453341735298 8.0395011588352894 #
coedge $-1 $858 $925 $938 $939 reversed $859 $-1 #
edge $-1 $860 -9.9491871168942829 $940 9.9491871168942829 $901 $941 forward 7 unknown #
point $-1 59.374370555742061 -28.352453341735298 9.9491871168942829 #
straight-curve $-1 -59.374370555742061 -28.352453341735298 0 0 0 -1 I I #
edge $-1 $879 -28.352453341735298 $876 28.352453341735298 $867 $942 forward 7 unknown #
straight-curve $-1 59.374370555742061 0 -9.9491871168942829 0 -1 0 I I #
point $-1 -59.374370555742061 28.352453341735298 -9.9491871168942829 #
point $-1 -59.374370555742061 -28.352453341735298 -9.9491871168942829 #
face $-1 $717 $943 $19 $-1 $944 reversed single #
plane-surface $-1 0 -28.352453341735298 0 0 1 0 0 0 1 forward_v I I I I #
coedge $-1 $945 $883 $922 $946 forward $832 $-1 #
coedge $-1 $883 $945 $925 $947 reversed $832 $-1 #
edge $-1 $926 -28.352453341735298 $923 28.352453341735298 $883 $948 forward 7 unknown #
straight-curve $-1 -50.077675463231415 -28.352453341735298 3.2697505794176447 0 0 -1 I I #
coedge $-1 $887 $904 $918 $946 reversed $631 $-1 #
vertex $-1 $946 $949 #
straight-curve $-1 -27.363011504743369 28.352453341735298 5.0395011588352894 1 0 0 I I #
coedge $-1 $908 $889 $919 $947 forward $859 $-1 #
vertex $-1 $947 $950 #
straight-curve $-1 -27.363011504743369 -28.352453341735298 5.0395011588352894 -1 0 0 I I #
point $-1 -50.077675463231415 28.352453341735298 5.0395011588352894 #
point $-1 -50.077675463231415 -28.352453341735298 5.0395011588352894 #
straight-curve $-1 -59.374370555742061 0 8.0395011588352894 0 -1 0 I I #
point $-1 -59.374370555742061 -28.352453341735298 8.0395011588352894 #
straight-curve $-1 -50.077675463231415 28.352453341735298 3.2697505794176447 0 0 1 I I #
coedge $-1 $902 $901 $951 $952 reversed $855 $-1 #
coedge $-1 $951 $953 $904 $935 forward $943 $-1 #
edge $-1 $954 -59.374370555742061 $936 59.374370555742061 $904 $955 forward 7 unknown #
vertex $-1 $952 $956 #
straight-curve $-1 59.374370555742061 28.352453341735298 0 0 0 -1 I I #
coedge $-1 $953 $951 $908 $939 forward $943 $-1 #
edge $-1 $940 -59.374370555742061 $957 59.374370555742061 $908 $958 forward 7 unknown #
vertex $-1 $909 $959 #
straight-curve $-1 59.374370555742061 -28.352453341735298 0 0 0 -1 I I #
straight-curve $-1 -59.374370555742061 0 -9.9491871168942829 0 1 0 I I #
loop $-1 $-1 $951 $916 #
plane-surface $-1 0 0 -9.9491871168942829 0 0 1 1 0 0 forward_v I I I I #
coedge $-1 $919 $918 $953 $960 reversed $832 $-1 #
edge $-1 $923 -5.0395011588352894 $954 9.9491871168942829 $922 $854 forward 7 unknown #
edge $-1 $926 -5.0395011588352894 $957 9.9491871168942829 $919 $911 forward 7 unknown #
straight-curve $-1 -59.374370555742061 0 5.0395011588352894 0 1 0 I I #
point $-1 -59.374370555742061 28.352453341735298 5.0395011588352894 #
point $-1 -59.374370555742061 -28.352453341735298 5.0395011588352894 #
coedge $-1 $938 $934 $933 $952 forward $943 $-1 #
edge $-1 $936 -28.352453341735298 $940 28.352453341735298 $933 $961 forward 7 unknown #
coedge $-1 $934 $938 $945 $960 forward $943 $-1 #
vertex $-1 $935 $962 #
straight-curve $-1 0 28.352453341735298 -9.9491871168942829 1 0 0 I I #
point $-1 59.374370555742061 28.352453341735298 -9.9491871168942829 #
vertex $-1 $960 $963 #
straight-curve $-1 0 -28.352453341735298 -9.9491871168942829 -1 0 0 I I #
point $-1 59.374370555742061 -28.352453341735298 -9.9491871168942829 #
edge $-1 $957 -28.352453341735298 $954 28.352453341735298 $945 $964 forward 7 unknown #
straight-curve $-1 59.374370555742061 0 -9.9491871168942829 0 -1 0 I I #
point $-1 -59.374370555742061 28.352453341735298 -9.9491871168942829 #
point $-1 -59.374370555742061 -28.352453341735298 -9.9491871168942829 #
straight-curve $-1 -59.374370555742061 0 -9.9491871168942829 0 1 0 I I #
End-of-ACIS-data 