500 0 17 0           
7 Unknown 11 ACIS 5.0 NT 24 Thu Mar 25 15:11:52 1999 
-1 9.9999999999999995e-007 1e-010 
body $-1 $17 $-1 $18 #
body $-1 $19 $-1 $20 #
body $-1 $21 $-1 $22 #
body $-1 $23 $-1 $24 #
body $-1 $25 $-1 $26 #
body $-1 $27 $-1 $28 #
body $-1 $29 $-1 $30 #
body $-1 $31 $-1 $32 #
body $-1 $33 $-1 $34 #
body $-1 $35 $-1 $36 #
body $-1 $37 $-1 $38 #
body $-1 $39 $-1 $40 #
body $-1 $41 $-1 $42 #
body $-1 $43 $-1 $44 #
body $-1 $45 $-1 $46 #
body $-1 $47 $-1 $48 #
body $-1 $49 $-1 $50 #
lump $-1 $-1 $51 $0 #
transform $-1 1 0 0 0 1 0 0 0 1 49.531540879543442 32.179705050746442 11.201467874334204 1 rotate no_reflect no_shear #
lump $-1 $-1 $52 $1 #
transform $-1 1 0 0 0 1 0 0 0 1 49.531540879543442 32.179705050746442 11.201467874334204 1 rotate no_reflect no_shear #
lump $-1 $-1 $53 $2 #
transform $-1 1 0 0 0 1 0 0 0 1 49.531540879543442 32.179705050746442 11.201467874334204 1 rotate no_reflect no_shear #
lump $-1 $-1 $54 $3 #
transform $-1 1 0 0 0 1 0 0 0 1 49.531540879543442 32.179705050746442 11.201467874334204 1 rotate no_reflect no_shear #
lump $-1 $-1 $55 $4 #
transform $-1 1 0 0 0 1 0 0 0 1 49.531540879543442 32.179705050746442 11.201467874334204 1 rotate no_reflect no_shear #
lump $-1 $-1 $56 $5 #
transform $-1 1 0 0 0 1 0 0 0 1 49.531540879543442 32.179705050746442 11.201467874334204 1 rotate no_reflect no_shear #
lump $-1 $-1 $57 $6 #
transform $-1 1 0 0 0 1 0 0 0 1 49.531540879543442 32.179705050746442 11.201467874334204 1 rotate no_reflect no_shear #
lump $-1 $-1 $58 $7 #
transform $-1 1 0 0 0 1 0 0 0 1 49.531540879543442 32.179705050746442 11.201467874334204 1 rotate no_reflect no_shear #
lump $-1 $-1 $59 $8 #
transform $-1 1 0 0 0 1 0 0 0 1 49.531540879543442 32.179705050746442 11.201467874334204 1 rotate no_reflect no_shear #
lump $-1 $-1 $60 $9 #
transform $-1 1 0 0 0 1 0 0 0 1 49.531540879543442 32.179705050746442 11.201467874334204 1 rotate no_reflect no_shear #
lump $-1 $-1 $61 $10 #
transform $-1 1 0 0 0 1 0 0 0 1 49.531540879543442 32.179705050746442 11.201467874334204 1 rotate no_reflect no_shear #
lump $-1 $-1 $62 $11 #
transform $-1 1 0 0 0 1 0 0 0 1 49.531540879543442 32.179705050746442 11.201467874334204 1 rotate no_reflect no_shear #
lump $-1 $-1 $63 $12 #
transform $-1 1 0 0 0 1 0 0 0 1 49.531540879543442 32.179705050746442 11.201467874334204 1 rotate no_reflect no_shear #
lump $-1 $-1 $64 $13 #
transform $-1 1 0 0 0 1 0 0 0 1 49.531540879543442 32.179705050746442 11.201467874334204 1 rotate no_reflect no_shear #
lump $-1 $-1 $65 $14 #
transform $-1 1 0 0 0 1 0 0 0 1 49.531540879543442 32.179705050746442 11.201467874334204 1 rotate no_reflect no_shear #
lump $-1 $-1 $66 $15 #
transform $-1 1 0 0 0 1 0 0 0 1 49.531540879543442 32.179705050746442 11.201467874334204 1 rotate no_reflect no_shear #
lump $-1 $-1 $67 $16 #
transform $-1 1 0 0 0 1 0 0 0 1 49.531540879543442 32.179705050746442 11.201467874334204 1 rotate no_reflect no_shear #
shell $-1 $-1 $-1 $68 $-1 $17 #
shell $-1 $-1 $-1 $69 $-1 $19 #
shell $-1 $-1 $-1 $70 $-1 $21 #
shell $-1 $-1 $-1 $71 $-1 $23 #
shell $-1 $-1 $-1 $72 $-1 $25 #
shell $-1 $-1 $-1 $73 $-1 $27 #
shell $-1 $-1 $-1 $74 $-1 $29 #
shell $-1 $-1 $-1 $75 $-1 $31 #
shell $-1 $-1 $-1 $76 $-1 $33 #
shell $-1 $-1 $-1 $77 $-1 $35 #
shell $-1 $-1 $-1 $78 $-1 $37 #
shell $-1 $-1 $-1 $79 $-1 $39 #
shell $-1 $-1 $-1 $80 $-1 $41 #
shell $-1 $-1 $-1 $81 $-1 $43 #
shell $-1 $-1 $-1 $82 $-1 $45 #
shell $-1 $-1 $-1 $83 $-1 $47 #
shell $-1 $-1 $-1 $84 $-1 $49 #
face $-1 $85 $86 $51 $-1 $87 forward single #
face $-1 $88 $89 $52 $-1 $90 reversed single #
face $-1 $91 $92 $53 $-1 $93 forward single #
face $-1 $94 $95 $54 $-1 $96 reversed single #
face $-1 $97 $98 $55 $-1 $99 forward single #
face $-1 $100 $101 $56 $-1 $102 reversed single #
face $-1 $103 $104 $57 $-1 $105 forward single #
face $-1 $106 $107 $58 $-1 $108 reversed single #
face $-1 $109 $110 $59 $-1 $111 forward single #
face $-1 $112 $113 $60 $-1 $114 reversed single #
face $-1 $115 $116 $61 $-1 $117 forward single #
face $-1 $118 $119 $62 $-1 $120 reversed single #
face $-1 $121 $122 $63 $-1 $123 forward single #
face $-1 $124 $125 $64 $-1 $126 reversed single #
face $-1 $127 $128 $65 $-1 $129 forward single #
face $-1 $130 $131 $66 $-1 $132 reversed single #
face $-1 $133 $134 $67 $-1 $135 forward single #
face $-1 $136 $137 $51 $-1 $138 reversed single #
loop $-1 $-1 $139 $68 #
plane-surface $-1 0 0 11.201467874334204 0 0 1 1 0 0 forward_v I I I I #
face $-1 $140 $141 $52 $-1 $142 reversed single #
loop $-1 $-1 $143 $69 #
plane-surface $-1 -33.928508409111387 74.493911140755358 116.26249448792338 -1 0 0 0 0.80901700255871778 0.5877852410284794 forward_v I I I I #
face $-1 $144 $145 $53 $-1 $146 forward single #
loop $-1 $147 $148 $70 #
cone-surface $-1 -41.730024644327415 28.94266328596991 7.6138866309980173 0 -0.80901700255871778 -0.5877852410284794 1.5 0 0 1 I I 0 1 1.5 forward I I I I #
face $-1 $149 $150 $54 $-1 $151 reversed single #
loop $-1 $-1 $152 $71 #
plane-surface $-1 -6.1084919795597692 74.493911140755358 116.26249448792338 -1 0 0 0 0.80901700255871778 0.5877852410284794 forward_v I I I I #
face $-1 $153 $154 $55 $-1 $155 forward single #
loop $-1 $156 $157 $72 #
cone-surface $-1 -13.9100082147758 28.94266328596991 7.6138866309980173 0 -0.80901700255871778 -0.5877852410284794 1.5 0 0 1 I I 0 1 1.5 forward I I I I #
face $-1 $158 $159 $56 $-1 $160 reversed single #
loop $-1 $-1 $161 $73 #
plane-surface $-1 21.711524449991838 74.493911140755358 116.26249448792338 -1 0 0 0 0.80901700255871778 0.5877852410284794 forward_v I I I I #
face $-1 $162 $163 $57 $-1 $164 forward single #
loop $-1 $165 $166 $74 #
cone-surface $-1 13.910008214775807 28.94266328596991 7.6138866309980173 0 -0.80901700255871778 -0.5877852410284794 1.5 0 0 1 I I 0 1 1.5 forward I I I I #
face $-1 $167 $168 $58 $-1 $169 reversed single #
loop $-1 $-1 $170 $75 #
plane-surface $-1 41.730024644327415 -5.6498063282103033 58.034677099134534 0 0.80901700255871778 0.5877852410284794 1 0 0 forward_v I I I I #
face $-1 $171 $172 $59 $-1 $173 forward single #
loop $-1 $174 $175 $76 #
cone-surface $-1 41.730024644327415 28.94266328596991 7.6138866309980173 0 -0.80901700255871778 -0.5877852410284794 1.5 0 0 1 I I 0 1 1.5 forward I I I I #
face $-1 $176 $177 $60 $-1 $178 reversed single #
loop $-1 $-1 $179 $77 #
plane-surface $-1 -33.928508409111387 -112.3234225197121 64.194637441166336 -1 0 0 0 -0.80901700255871778 0.5877852410284794 forward_v I I I I #
face $-1 $180 $181 $61 $-1 $182 forward single #
loop $-1 $183 $184 $78 #
cone-surface $-1 -41.730024644327415 -28.942663285969907 7.6138866309980173 0 0.80901700255871778 -0.5877852410284794 1.5 0 0 1 I I 0 1 1.5 forward I I I I #
face $-1 $185 $186 $62 $-1 $187 reversed single #
loop $-1 $-1 $188 $79 #
plane-surface $-1 -6.1084919795597692 -112.3234225197121 64.194637441166336 -1 0 0 0 -0.80901700255871778 0.5877852410284794 forward_v I I I I #
face $-1 $189 $190 $63 $-1 $191 forward single #
loop $-1 $192 $193 $80 #
cone-surface $-1 -13.9100082147758 -28.942663285969907 7.6138866309980173 0 0.80901700255871778 -0.5877852410284794 1.5 0 0 1 I I 0 1 1.5 forward I I I I #
face $-1 $194 $195 $64 $-1 $196 reversed single #
loop $-1 $-1 $197 $81 #
plane-surface $-1 21.711524449991838 -112.3234225197121 64.194637441166336 -1 0 0 0 -0.80901700255871778 0.5877852410284794 forward_v I I I I #
face $-1 $198 $199 $65 $-1 $200 forward single #
loop $-1 $201 $202 $82 #
cone-surface $-1 13.910008214775807 -28.942663285969907 7.6138866309980173 0 0.80901700255871778 -0.5877852410284794 1.5 0 0 1 I I 0 1 1.5 forward I I I I #
face $-1 $203 $204 $66 $-1 $205 reversed single #
loop $-1 $-1 $206 $83 #
plane-surface $-1 41.730024644327415 -32.179705050746435 5.9668200523774928 0 -0.80901700255871778 0.5877852410284794 1 0 0 forward_v I I I I #
face $-1 $207 $208 $67 $-1 $209 forward single #
loop $-1 $210 $211 $84 #
cone-surface $-1 41.730024644327415 -28.942663285969907 7.6138866309980173 0 0.80901700255871778 -0.5877852410284794 1.5 0 0 1 I I 0 1 1.5 forward I I I I #
face $-1 $212 $213 $51 $-1 $214 reversed single #
loop $-1 $-1 $215 $85 #
plane-surface $-1 0 0 -11.201467874334204 0 0 1 1 0 0 forward_v I I I I #
coedge $-1 $216 $217 $218 $219 forward $86 $-1 #
face $-1 $220 $221 $52 $-1 $222 reversed single #
loop $-1 $-1 $223 $88 #
plane-surface $-1 -41.730024644327415 -5.6498063282103033 58.034677099134534 0 0.80901700255871778 0.5877852410284794 1 0 0 forward_v I I I I #
coedge $-1 $224 $225 $226 $227 reversed $89 $-1 #
face $-1 $-1 $228 $53 $-1 $229 forward single #
loop $-1 $230 $231 $91 #
cone-surface $-1 -41.730024644327415 27.000455844488286 6.2027903678688308 0 -0.80901700255871778 -0.5877852410284794 0.75 0 0 1 I I -0.70710678118654757 0.70710678118654757 0.75 forward I I I I #
loop $-1 $-1 $232 $70 #
coedge $-1 $148 $148 $233 $234 reversed $92 $-1 #
face $-1 $235 $236 $54 $-1 $237 reversed single #
loop $-1 $-1 $238 $94 #
plane-surface $-1 -13.9100082147758 -5.6498063282103033 58.034677099134534 0 0.80901700255871778 0.5877852410284794 1 0 0 forward_v I I I I #
coedge $-1 $239 $240 $241 $242 reversed $95 $-1 #
face $-1 $-1 $243 $55 $-1 $244 forward single #
loop $-1 $245 $246 $97 #
cone-surface $-1 -13.9100082147758 27.000455844488286 6.2027903678688308 0 -0.80901700255871778 -0.5877852410284794 0.75 0 0 1 I I -0.70710678118654757 0.70710678118654757 0.75 forward I I I I #
loop $-1 $-1 $247 $72 #
coedge $-1 $157 $157 $248 $249 reversed $98 $-1 #
face $-1 $250 $251 $56 $-1 $252 reversed single #
loop $-1 $-1 $253 $100 #
plane-surface $-1 13.910008214775807 -5.6498063282103033 58.034677099134534 0 0.80901700255871778 0.5877852410284794 1 0 0 forward_v I I I I #
coedge $-1 $254 $255 $256 $257 reversed $101 $-1 #
face $-1 $-1 $258 $57 $-1 $259 forward single #
loop $-1 $260 $261 $103 #
cone-surface $-1 13.910008214775807 27.000455844488286 6.2027903678688308 0 -0.80901700255871778 -0.5877852410284794 0.75 0 0 1 I I -0.70710678118654757 0.70710678118654757 0.75 forward I I I I #
loop $-1 $-1 $262 $74 #
coedge $-1 $166 $166 $263 $264 reversed $104 $-1 #
face $-1 $265 $266 $58 $-1 $267 forward single #
loop $-1 $-1 $268 $106 #
plane-surface $-1 33.928508409111387 74.493911140755358 116.26249448792338 1 0 0 0 -0.80901700255871778 -0.5877852410284794 forward_v I I I I #
coedge $-1 $269 $270 $271 $272 reversed $107 $-1 #
face $-1 $-1 $273 $59 $-1 $274 forward single #
loop $-1 $275 $276 $109 #
cone-surface $-1 41.730024644327415 27.000455844488286 6.2027903678688308 0 -0.80901700255871778 -0.5877852410284794 0.75 0 0 1 I I -0.70710678118654757 0.70710678118654757 0.75 forward I I I I #
loop $-1 $-1 $277 $76 #
coedge $-1 $175 $175 $278 $279 reversed $110 $-1 #
face $-1 $280 $281 $60 $-1 $282 forward single #
loop $-1 $-1 $283 $112 #
plane-surface $-1 -41.730024644327415 -32.179705050746435 5.9668200523774928 0 -0.80901700255871778 0.5877852410284794 1 0 0 forward_v I I I I #
coedge $-1 $284 $285 $286 $287 reversed $113 $-1 #
face $-1 $-1 $288 $61 $-1 $289 forward single #
loop $-1 $290 $291 $115 #
cone-surface $-1 -41.730024644327415 -27.000455844488283 6.2027903678688308 0 0.80901700255871778 -0.5877852410284794 0.75 0 0 1 I I -0.70710678118654757 0.70710678118654757 0.75 forward I I I I #
loop $-1 $-1 $292 $78 #
coedge $-1 $184 $184 $293 $294 reversed $116 $-1 #
face $-1 $295 $296 $62 $-1 $297 reversed single #
loop $-1 $-1 $298 $118 #
plane-surface $-1 -13.9100082147758 -32.179705050746435 5.9668200523774928 0 -0.80901700255871778 0.5877852410284794 1 0 0 forward_v I I I I #
coedge $-1 $299 $300 $301 $302 reversed $119 $-1 #
face $-1 $-1 $303 $63 $-1 $304 forward single #
loop $-1 $305 $306 $121 #
cone-surface $-1 -13.9100082147758 -27.000455844488283 6.2027903678688308 0 0.80901700255871778 -0.5877852410284794 0.75 0 0 1 I I -0.70710678118654757 0.70710678118654757 0.75 forward I I I I #
loop $-1 $-1 $307 $80 #
coedge $-1 $193 $193 $308 $309 reversed $122 $-1 #
face $-1 $310 $311 $64 $-1 $312 reversed single #
loop $-1 $-1 $313 $124 #
plane-surface $-1 13.910008214775807 -32.179705050746435 5.9668200523774928 0 -0.80901700255871778 0.5877852410284794 1 0 0 forward_v I I I I #
coedge $-1 $314 $315 $316 $317 reversed $125 $-1 #
face $-1 $-1 $318 $65 $-1 $319 forward single #
loop $-1 $320 $321 $127 #
cone-surface $-1 13.910008214775807 -27.000455844488283 6.2027903678688308 0 0.80901700255871778 -0.5877852410284794 0.75 0 0 1 I I -0.70710678118654757 0.70710678118654757 0.75 forward I I I I #
loop $-1 $-1 $322 $82 #
coedge $-1 $202 $202 $323 $324 reversed $128 $-1 #
face $-1 $325 $326 $66 $-1 $327 reversed single #
loop $-1 $-1 $328 $130 #
plane-surface $-1 33.928508409111387 -112.3234225197121 64.194637441166336 1 0 0 0 0.80901700255871778 -0.5877852410284794 forward_v I I I I #
coedge $-1 $329 $330 $331 $332 reversed $131 $-1 #
face $-1 $-1 $333 $67 $-1 $334 forward single #
loop $-1 $335 $336 $133 #
cone-surface $-1 41.730024644327415 -27.000455844488283 6.2027903678688308 0 0.80901700255871778 -0.5877852410284794 0.75 0 0 1 I I -0.70710678118654757 0.70710678118654757 0.75 forward I I I I #
loop $-1 $-1 $337 $84 #
coedge $-1 $211 $211 $338 $339 reversed $134 $-1 #
face $-1 $340 $341 $51 $-1 $342 reversed single #
loop $-1 $-1 $343 $136 #
plane-surface $-1 0 -32.179705050746442 0 0 1 0 0 0 1 forward_v I I I I #
coedge $-1 $344 $345 $346 $347 forward $137 $-1 #
coedge $-1 $348 $139 $349 $350 forward $86 $-1 #
coedge $-1 $139 $348 $351 $352 forward $86 $-1 #
coedge $-1 $353 $354 $139 $219 reversed $355 $-1 #
edge $-1 $356 -32.179705050746442 $357 32.179705050746442 $218 $358 forward 7 unknown #
face $-1 $359 $360 $52 $-1 $361 forward single #
loop $-1 $-1 $226 $140 #
plane-surface $-1 0 32.179705050746442 0 0 -1 0 0 0 -1 forward_v I I I I #
coedge $-1 $362 $363 $364 $365 reversed $141 $-1 #
coedge $-1 $225 $143 $366 $367 reversed $89 $-1 #
coedge $-1 $143 $224 $362 $368 reversed $89 $-1 #
coedge $-1 $364 $369 $143 $227 forward $221 $-1 #
edge $-1 $370 46.929779369627482 $371 52.164427191584188 $226 $372 forward 7 unknown #
loop $-1 $-1 $233 $144 #
plane-surface $-1 -41.730024644327415 -5.6498063282103033 58.034677099134534 0 0.80901700255871778 0.5877852410284794 1 0 0 forward_v I I I I #
loop $-1 $-1 $373 $91 #
coedge $-1 $231 $231 $232 $374 reversed $145 $-1 #
coedge $-1 $232 $232 $231 $374 forward $147 $-1 #
coedge $-1 $233 $233 $148 $234 forward $228 $-1 #
edge $-1 $375 -4.3408652020844003e-016 $375 6.2831853071796004 $233 $376 forward 7 unknown #
face $-1 $377 $378 $54 $-1 $379 forward single #
loop $-1 $-1 $380 $149 #
plane-surface $-1 -21.711524449991831 74.493911140755358 116.26249448792338 1 0 0 0 -0.80901700255871778 -0.5877852410284794 forward_v I I I I #
coedge $-1 $381 $382 $383 $384 reversed $150 $-1 #
coedge $-1 $240 $152 $385 $386 reversed $95 $-1 #
coedge $-1 $152 $239 $381 $387 reversed $95 $-1 #
coedge $-1 $383 $388 $152 $242 forward $389 $-1 #
edge $-1 $390 46.929779369627482 $391 52.164427191584188 $241 $392 forward 7 unknown #
loop $-1 $-1 $248 $153 #
plane-surface $-1 -13.9100082147758 -5.6498063282103033 58.034677099134534 0 0.80901700255871778 0.5877852410284794 1 0 0 forward_v I I I I #
loop $-1 $-1 $393 $97 #
coedge $-1 $246 $246 $247 $394 reversed $154 $-1 #
coedge $-1 $247 $247 $246 $394 forward $156 $-1 #
coedge $-1 $248 $248 $157 $249 forward $243 $-1 #
edge $-1 $395 -4.3408652020844003e-016 $395 6.2831853071796004 $248 $396 forward 7 unknown #
face $-1 $397 $398 $56 $-1 $399 forward single #
loop $-1 $-1 $400 $158 #
plane-surface $-1 6.1084919795597763 74.493911140755358 116.26249448792338 1 0 0 0 -0.80901700255871778 -0.5877852410284794 forward_v I I I I #
coedge $-1 $401 $402 $403 $404 reversed $159 $-1 #
coedge $-1 $255 $161 $405 $406 reversed $101 $-1 #
coedge $-1 $161 $254 $401 $407 reversed $101 $-1 #
coedge $-1 $403 $408 $161 $257 forward $409 $-1 #
edge $-1 $410 46.929779369627482 $411 52.164427191584188 $256 $412 forward 7 unknown #
loop $-1 $-1 $263 $162 #
plane-surface $-1 13.910008214775807 -5.6498063282103033 58.034677099134534 0 0.80901700255871778 0.5877852410284794 1 0 0 forward_v I I I I #
loop $-1 $-1 $413 $103 #
coedge $-1 $261 $261 $262 $414 reversed $163 $-1 #
coedge $-1 $262 $262 $261 $414 forward $165 $-1 #
coedge $-1 $263 $263 $166 $264 forward $258 $-1 #
edge $-1 $415 -4.3408652020844003e-016 $415 6.2831853071796004 $263 $416 forward 7 unknown #
face $-1 $417 $418 $58 $-1 $419 reversed single #
loop $-1 $-1 $420 $167 #
plane-surface $-1 0 0 11.201467874334204 0 0 1 1 0 0 forward_v I I I I #
coedge $-1 $421 $422 $423 $424 reversed $168 $-1 #
coedge $-1 $425 $170 $426 $427 reversed $107 $-1 #
coedge $-1 $170 $425 $421 $428 forward $107 $-1 #
coedge $-1 $423 $429 $170 $272 forward $430 $-1 #
edge $-1 $431 -28.666528557379735 $432 -13.06349608694768 $271 $433 forward 7 unknown #
loop $-1 $-1 $278 $171 #
plane-surface $-1 41.730024644327415 -5.6498063282103033 58.034677099134534 0 0.80901700255871778 0.5877852410284794 1 0 0 forward_v I I I I #
loop $-1 $-1 $434 $109 #
coedge $-1 $276 $276 $277 $435 reversed $172 $-1 #
coedge $-1 $277 $277 $276 $435 forward $174 $-1 #
coedge $-1 $278 $278 $175 $279 forward $273 $-1 #
edge $-1 $436 -4.3408652020844003e-016 $436 6.2831853071796004 $278 $437 forward 7 unknown #
face $-1 $438 $439 $60 $-1 $440 reversed single #
loop $-1 $-1 $286 $176 #
plane-surface $-1 0 0 11.201467874334204 0 0 1 1 0 0 forward_v I I I I #
coedge $-1 $441 $442 $443 $444 reversed $177 $-1 #
coedge $-1 $285 $179 $445 $446 reversed $113 $-1 #
coedge $-1 $179 $284 $441 $447 reversed $113 $-1 #
coedge $-1 $443 $448 $179 $287 forward $281 $-1 #
edge $-1 $449 23.982006209109606 $450 27.785200359537516 $286 $451 forward 7 unknown #
loop $-1 $-1 $293 $180 #
plane-surface $-1 -41.730024644327415 -32.179705050746435 5.9668200523774928 0 -0.80901700255871778 0.5877852410284794 1 0 0 forward_v I I I I #
loop $-1 $-1 $452 $115 #
coedge $-1 $291 $291 $292 $453 reversed $181 $-1 #
coedge $-1 $292 $292 $291 $453 forward $183 $-1 #
coedge $-1 $293 $293 $184 $294 forward $288 $-1 #
edge $-1 $454 -4.3408652020844003e-016 $454 6.2831853071796004 $293 $455 forward 7 unknown #
face $-1 $456 $457 $62 $-1 $458 forward single #
loop $-1 $-1 $459 $185 #
plane-surface $-1 -21.711524449991831 -112.3234225197121 64.194637441166336 1 0 0 0 0.80901700255871778 -0.5877852410284794 forward_v I I I I #
coedge $-1 $460 $461 $462 $463 reversed $186 $-1 #
coedge $-1 $300 $188 $464 $465 reversed $119 $-1 #
coedge $-1 $188 $299 $460 $466 reversed $119 $-1 #
coedge $-1 $462 $467 $188 $302 forward $457 $-1 #
edge $-1 $468 23.982006209109606 $469 27.785200359537516 $301 $470 forward 7 unknown #
loop $-1 $-1 $308 $189 #
plane-surface $-1 -13.9100082147758 -32.179705050746435 5.9668200523774928 0 -0.80901700255871778 0.5877852410284794 1 0 0 forward_v I I I I #
loop $-1 $-1 $471 $121 #
coedge $-1 $306 $306 $307 $472 reversed $190 $-1 #
coedge $-1 $307 $307 $306 $472 forward $192 $-1 #
coedge $-1 $308 $308 $193 $309 forward $303 $-1 #
edge $-1 $473 -4.3408652020844003e-016 $473 6.2831853071796004 $308 $474 forward 7 unknown #
face $-1 $475 $476 $64 $-1 $477 reversed single #
loop $-1 $-1 $478 $194 #
plane-surface $-1 6.1084919795597763 -112.3234225197121 64.194637441166336 1 0 0 0 0.80901700255871778 -0.5877852410284794 forward_v I I I I #
coedge $-1 $479 $480 $481 $482 reversed $195 $-1 #
coedge $-1 $315 $197 $483 $484 reversed $125 $-1 #
coedge $-1 $197 $314 $479 $485 reversed $125 $-1 #
coedge $-1 $481 $486 $197 $317 forward $487 $-1 #
edge $-1 $488 23.982006209109606 $489 27.785200359537516 $316 $490 forward 7 unknown #
loop $-1 $-1 $323 $198 #
plane-surface $-1 13.910008214775807 -32.179705050746435 5.9668200523774928 0 -0.80901700255871778 0.5877852410284794 1 0 0 forward_v I I I I #
loop $-1 $-1 $491 $127 #
coedge $-1 $321 $321 $322 $492 reversed $199 $-1 #
coedge $-1 $322 $322 $321 $492 forward $201 $-1 #
coedge $-1 $323 $323 $202 $324 forward $318 $-1 #
edge $-1 $493 -4.3408652020844003e-016 $493 6.2831853071796004 $323 $494 forward 7 unknown #
face $-1 $495 $496 $66 $-1 $497 forward single #
loop $-1 $-1 $498 $203 #
plane-surface $-1 0 -32.179705050746442 0 0 1 0 0 0 1 forward_v I I I I #
coedge $-1 $499 $500 $501 $502 reversed $204 $-1 #
coedge $-1 $503 $206 $504 $505 reversed $131 $-1 #
coedge $-1 $206 $503 $499 $506 forward $131 $-1 #
coedge $-1 $501 $507 $206 $332 forward $496 $-1 #
edge $-1 $508 -28.666528557379735 $509 -13.06349608694768 $331 $510 forward 7 unknown #
loop $-1 $-1 $338 $207 #
plane-surface $-1 41.730024644327415 -32.179705050746435 5.9668200523774928 0 -0.80901700255871778 0.5877852410284794 1 0 0 forward_v I I I I #
loop $-1 $-1 $511 $133 #
coedge $-1 $336 $336 $337 $512 reversed $208 $-1 #
coedge $-1 $337 $337 $336 $512 forward $210 $-1 #
coedge $-1 $338 $338 $211 $339 forward $333 $-1 #
edge $-1 $513 -4.3408652020844003e-016 $513 6.2831853071796004 $338 $514 forward 7 unknown #
face $-1 $515 $516 $51 $-1 $517 reversed single #
loop $-1 $-1 $518 $212 #
plane-surface $-1 -49.531540879543442 0 0 1 0 0 0 0 -1 forward_v I I I I #
coedge $-1 $519 $351 $520 $521 forward $213 $-1 #
coedge $-1 $522 $215 $519 $523 forward $137 $-1 #
coedge $-1 $215 $522 $524 $525 forward $137 $-1 #
coedge $-1 $354 $353 $215 $347 reversed $355 $-1 #
edge $-1 $526 -32.179705050746442 $527 32.179705050746442 $346 $528 forward 7 unknown #
coedge $-1 $217 $216 $529 $530 forward $86 $-1 #
coedge $-1 $531 $532 $216 $350 reversed $516 $-1 #
edge $-1 $357 -49.531540879543442 $533 49.531540879543442 $349 $534 forward 7 unknown #
coedge $-1 $343 $535 $217 $352 reversed $213 $-1 #
edge $-1 $536 -49.531540879543442 $356 49.531540879543442 $351 $537 forward 7 unknown #
coedge $-1 $346 $218 $535 $538 forward $355 $-1 #
coedge $-1 $218 $346 $531 $539 reversed $355 $-1 #
loop $-1 $-1 $353 $515 #
vertex $-1 $219 $540 #
vertex $-1 $219 $541 #
straight-curve $-1 49.531540879543442 0 11.201467874334204 0 1 0 I I #
face $-1 $-1 $542 $52 $-1 $543 reversed single #
loop $-1 $-1 $366 $220 #
plane-surface $-1 0 0 11.201467874334204 0 0 1 1 0 0 forward_v I I I I #
coedge $-1 $544 $223 $225 $368 forward $141 $-1 #
coedge $-1 $223 $544 $545 $546 reversed $141 $-1 #
coedge $-1 $547 $226 $223 $365 forward $221 $-1 #
edge $-1 $371 13.06349608694768 $548 28.666528557379735 $364 $549 forward 7 unknown #
coedge $-1 $550 $551 $224 $367 forward $360 $-1 #
edge $-1 $552 -8.8704446700591362 $370 -5.0672505196312372 $366 $553 forward 7 unknown #
edge $-1 $371 -64.359410101492884 $552 -57.889029620735585 $225 $554 forward 7 unknown #
coedge $-1 $226 $547 $550 $555 reversed $221 $-1 #
vertex $-1 $555 $556 #
vertex $-1 $227 $557 #
straight-curve $-1 -33.928508409111387 32.179705050746442 58.131247243961688 0 0 -1 I I #
coedge $-1 $373 $373 $-1 $558 reversed $230 $-1 #
edge $-1 $559 0 $559 6.2831853071796004 $231 $560 forward 7 unknown #
vertex $-1 $234 $561 #
ellipse-curve $-1 -41.730024644327415 30.278107975532496 8.5841439633558458 0 0.80901700255871778 0.5877852410284794 1.5 0 0 1 I I #
face $-1 $-1 $389 $54 $-1 $562 reversed single #
loop $-1 $-1 $563 $235 #
plane-surface $-1 0 0 11.201467874334204 0 0 1 1 0 0 forward_v I I I I #
coedge $-1 $564 $565 $566 $567 reversed $236 $-1 #
coedge $-1 $568 $238 $240 $387 forward $150 $-1 #
coedge $-1 $238 $568 $564 $569 forward $150 $-1 #
coedge $-1 $566 $241 $238 $384 forward $389 $-1 #
edge $-1 $391 -0.8465121278281309 $570 14.756520342603931 $383 $571 forward 7 unknown #
coedge $-1 $572 $573 $239 $386 forward $378 $-1 #
edge $-1 $574 -8.8704446700591362 $390 -5.0672505196312372 $385 $575 forward 7 unknown #
edge $-1 $391 -64.359410101492884 $574 -57.889029620735585 $240 $576 forward 7 unknown #
coedge $-1 $241 $566 $572 $577 reversed $389 $-1 #
loop $-1 $-1 $566 $377 #
vertex $-1 $577 $578 #
vertex $-1 $242 $579 #
straight-curve $-1 -6.1084919795597692 32.179705050746442 58.131247243961688 0 0 -1 I I #
coedge $-1 $393 $393 $-1 $580 reversed $245 $-1 #
edge $-1 $581 0 $581 6.2831853071796004 $246 $582 forward 7 unknown #
vertex $-1 $249 $583 #
ellipse-curve $-1 -13.9100082147758 30.278107975532496 8.5841439633558458 0 0.80901700255871778 0.5877852410284794 1.5 0 0 1 I I #
face $-1 $-1 $409 $56 $-1 $584 reversed single #
loop $-1 $-1 $585 $250 #
plane-surface $-1 0 0 11.201467874334204 0 0 1 1 0 0 forward_v I I I I #
coedge $-1 $586 $587 $588 $589 reversed $251 $-1 #
coedge $-1 $590 $253 $255 $407 forward $159 $-1 #
coedge $-1 $253 $590 $586 $591 forward $159 $-1 #
coedge $-1 $588 $256 $253 $404 forward $409 $-1 #
edge $-1 $411 -14.756520342603935 $592 0.84651212782812735 $403 $593 forward 7 unknown #
coedge $-1 $594 $595 $254 $406 forward $398 $-1 #
edge $-1 $596 -8.8704446700591362 $410 -5.0672505196312372 $405 $597 forward 7 unknown #
edge $-1 $411 -64.359410101492884 $596 -57.889029620735585 $255 $598 forward 7 unknown #
coedge $-1 $256 $588 $594 $599 reversed $409 $-1 #
loop $-1 $-1 $588 $397 #
vertex $-1 $599 $600 #
vertex $-1 $257 $601 #
straight-curve $-1 21.711524449991838 32.179705050746442 58.131247243961688 0 0 -1 I I #
coedge $-1 $413 $413 $-1 $602 reversed $260 $-1 #
edge $-1 $603 0 $603 6.2831853071796004 $261 $604 forward 7 unknown #
vertex $-1 $264 $605 #
ellipse-curve $-1 13.910008214775807 30.278107975532496 8.5841439633558458 0 0.80901700255871778 0.5877852410284794 1.5 0 0 1 I I #
face $-1 $-1 $430 $58 $-1 $606 reversed single #
loop $-1 $-1 $426 $265 #
plane-surface $-1 49.531540879543442 0 0 -1 0 0 0 0 1 forward_v I I I I #
coedge $-1 $607 $608 $422 $609 forward $266 $-1 #
coedge $-1 $422 $268 $270 $428 reversed $168 $-1 #
coedge $-1 $268 $421 $420 $609 reversed $168 $-1 #
coedge $-1 $610 $271 $268 $424 forward $430 $-1 #
edge $-1 $432 -52.164427191584188 $611 -46.929779369627482 $423 $612 forward 7 unknown #
coedge $-1 $270 $269 $607 $613 reversed $107 $-1 #
coedge $-1 $614 $615 $269 $427 forward $418 $-1 #
edge $-1 $616 32.753072977937478 $431 39.223453458694777 $426 $617 forward 7 unknown #
edge $-1 $618 57.889029620735585 $432 64.359410101492884 $421 $619 forward 7 unknown #
coedge $-1 $271 $610 $614 $620 forward $430 $-1 #
loop $-1 $-1 $423 $417 #
vertex $-1 $427 $621 #
vertex $-1 $272 $622 #
straight-curve $-1 20.865012322163707 32.179705050746442 5.9668200523774964 -1 0 0 I I #
coedge $-1 $434 $434 $-1 $623 reversed $275 $-1 #
edge $-1 $624 0 $624 6.2831853071796004 $276 $625 forward 7 unknown #
vertex $-1 $279 $626 #
ellipse-curve $-1 41.730024644327415 30.278107975532496 8.5841439633558458 0 0.80901700255871778 0.5877852410284794 1.5 0 0 1 I I #
face $-1 $-1 $627 $60 $-1 $628 reversed single #
loop $-1 $-1 $445 $280 #
plane-surface $-1 0 -32.179705050746442 0 0 1 0 0 0 1 forward_v I I I I #
coedge $-1 $629 $283 $285 $447 forward $177 $-1 #
coedge $-1 $283 $629 $630 $631 reversed $177 $-1 #
coedge $-1 $632 $286 $283 $444 forward $281 $-1 #
edge $-1 $450 13.06349608694768 $633 28.666528557379735 $443 $634 forward 7 unknown #
coedge $-1 $635 $636 $284 $446 forward $439 $-1 #
edge $-1 $637 -26.130498668205686 $449 -20.895850846248962 $445 $638 forward 7 unknown #
edge $-1 $450 -6.4703804807573073 $637 1.2080531203272332e-014 $285 $639 forward 7 unknown #
coedge $-1 $286 $632 $635 $640 forward $281 $-1 #
vertex $-1 $287 $641 #
vertex $-1 $287 $642 #
straight-curve $-1 -33.928508409111387 -56.161711259856048 11.201467874334206 0 1 0 I I #
coedge $-1 $452 $452 $-1 $643 reversed $290 $-1 #
edge $-1 $644 0 $644 6.2831853071796004 $291 $645 forward 7 unknown #
vertex $-1 $294 $646 #
ellipse-curve $-1 -41.730024644327415 -30.278107975532489 8.5841439633558423 0 -0.80901700255871778 0.5877852410284794 1.5 0 0 1 I I #
face $-1 $-1 $647 $62 $-1 $648 reversed single #
loop $-1 $-1 $301 $295 #
plane-surface $-1 0 0 11.201467874334204 0 0 1 1 0 0 forward_v I I I I #
coedge $-1 $649 $650 $651 $652 reversed $296 $-1 #
coedge $-1 $653 $298 $300 $466 forward $186 $-1 #
coedge $-1 $298 $653 $649 $654 forward $186 $-1 #
coedge $-1 $651 $301 $298 $463 forward $457 $-1 #
edge $-1 $469 -0.8465121278281309 $655 14.756520342603931 $462 $656 forward 7 unknown #
coedge $-1 $657 $658 $299 $465 forward $647 $-1 #
edge $-1 $659 -26.130498668205686 $468 -20.895850846248962 $464 $660 forward 7 unknown #
edge $-1 $469 -6.4703804807573073 $659 1.2080531203272332e-014 $300 $661 forward 7 unknown #
coedge $-1 $301 $651 $657 $662 forward $457 $-1 #
vertex $-1 $465 $663 #
vertex $-1 $302 $664 #
straight-curve $-1 -6.1084919795597692 -56.161711259856048 11.201467874334206 0 1 0 I I #
coedge $-1 $471 $471 $-1 $665 reversed $305 $-1 #
edge $-1 $666 0 $666 6.2831853071796004 $306 $667 forward 7 unknown #
vertex $-1 $309 $668 #
ellipse-curve $-1 -13.9100082147758 -30.278107975532489 8.5841439633558423 0 -0.80901700255871778 0.5877852410284794 1.5 0 0 1 I I #
face $-1 $-1 $487 $64 $-1 $669 forward single #
loop $-1 $-1 $670 $310 #
plane-surface $-1 0 -32.179705050746442 0 0 1 0 0 0 1 forward_v I I I I #
coedge $-1 $671 $672 $673 $674 reversed $311 $-1 #
coedge $-1 $675 $313 $315 $485 forward $195 $-1 #
coedge $-1 $313 $675 $671 $676 forward $195 $-1 #
coedge $-1 $673 $316 $313 $482 forward $487 $-1 #
edge $-1 $489 -14.756520342603935 $677 0.84651212782812735 $481 $678 forward 7 unknown #
coedge $-1 $679 $680 $314 $484 forward $476 $-1 #
edge $-1 $681 -26.130498668205686 $488 -20.895850846248962 $483 $682 forward 7 unknown #
edge $-1 $489 -6.4703804807573073 $681 1.2080531203272332e-014 $315 $683 forward 7 unknown #
coedge $-1 $316 $673 $679 $684 forward $487 $-1 #
loop $-1 $-1 $673 $475 #
vertex $-1 $484 $685 #
vertex $-1 $317 $686 #
straight-curve $-1 21.711524449991838 -56.161711259856048 11.201467874334206 0 1 0 I I #
coedge $-1 $491 $491 $-1 $687 reversed $320 $-1 #
edge $-1 $688 0 $688 6.2831853071796004 $321 $689 forward 7 unknown #
vertex $-1 $324 $690 #
ellipse-curve $-1 13.910008214775807 -30.278107975532489 8.5841439633558423 0 -0.80901700255871778 0.5877852410284794 1.5 0 0 1 I I #
face $-1 $-1 $691 $66 $-1 $692 reversed single #
loop $-1 $-1 $501 $325 #
plane-surface $-1 0 0 11.201467874334204 0 0 1 1 0 0 forward_v I I I I #
coedge $-1 $693 $694 $500 $695 forward $326 $-1 #
coedge $-1 $500 $328 $330 $506 reversed $204 $-1 #
coedge $-1 $328 $499 $498 $695 reversed $204 $-1 #
coedge $-1 $696 $331 $328 $502 forward $496 $-1 #
edge $-1 $509 -27.785200359537516 $697 -23.982006209109606 $501 $698 forward 7 unknown #
coedge $-1 $330 $329 $693 $699 reversed $131 $-1 #
coedge $-1 $700 $701 $329 $505 forward $691 $-1 #
edge $-1 $702 -7.0437484079483497 $508 -0.57336792719103102 $504 $703 forward 7 unknown #
edge $-1 $704 -1.2080531203272332e-014 $509 6.4703804807573073 $499 $705 forward 7 unknown #
coedge $-1 $331 $696 $700 $706 forward $496 $-1 #
vertex $-1 $505 $707 #
vertex $-1 $332 $708 #
straight-curve $-1 20.865012322163707 -28.376510900318532 11.201467874334204 -1 0 0 I I #
coedge $-1 $511 $511 $-1 $709 reversed $335 $-1 #
edge $-1 $710 0 $710 6.2831853071796004 $336 $711 forward 7 unknown #
vertex $-1 $339 $712 #
ellipse-curve $-1 41.730024644327415 -30.278107975532489 8.5841439633558423 0 -0.80901700255871778 0.5877852410284794 1.5 0 0 1 I I #
face $-1 $-1 $355 $51 $-1 $713 reversed single #
loop $-1 $-1 $531 $340 #
plane-surface $-1 0 32.179705050746442 0 0 -1 0 0 0 -1 forward_v I I I I #
coedge $-1 $714 $529 $532 $715 forward $341 $-1 #
coedge $-1 $535 $343 $344 $523 reversed $213 $-1 #
coedge $-1 $529 $714 $343 $521 reversed $341 $-1 #
edge $-1 $536 -11.201467874334204 $716 11.201467874334204 $520 $717 forward 7 unknown #
coedge $-1 $345 $344 $714 $718 forward $137 $-1 #
edge $-1 $527 -49.531540879543442 $716 49.531540879543442 $519 $719 forward 7 unknown #
coedge $-1 $532 $531 $345 $525 reversed $516 $-1 #
edge $-1 $720 -49.531540879543442 $526 49.531540879543442 $524 $721 forward 7 unknown #
vertex $-1 $347 $722 #
vertex $-1 $538 $723 #
straight-curve $-1 49.531540879543442 0 -11.201467874334204 0 -1 0 I I #
coedge $-1 $518 $520 $348 $530 reversed $341 $-1 #
edge $-1 $533 -32.179705050746442 $536 32.179705050746442 $529 $724 forward 7 unknown #
coedge $-1 $524 $349 $354 $539 forward $516 $-1 #
coedge $-1 $349 $524 $518 $715 reversed $516 $-1 #
vertex $-1 $350 $725 #
straight-curve $-1 0 32.179705050746442 11.201467874334204 -1 0 0 I I #
coedge $-1 $351 $519 $353 $538 reversed $213 $-1 #
vertex $-1 $530 $726 #
straight-curve $-1 0 -32.179705050746442 11.201467874334204 1 0 0 I I #
edge $-1 $356 -11.201467874334204 $527 11.201467874334204 $353 $727 forward 7 unknown #
edge $-1 $357 -11.201467874334204 $526 11.201467874334204 $354 $728 forward 7 unknown #
point $-1 49.531540879543442 -32.179705050746442 11.201467874334204 #
point $-1 49.531540879543442 32.179705050746442 11.201467874334204 #
loop $-1 $-1 $545 $359 #
plane-surface $-1 -49.531540879543442 0 0 1 0 0 0 0 -1 forward_v I I I I #
coedge $-1 $363 $362 $551 $729 reversed $141 $-1 #
coedge $-1 $730 $731 $363 $546 forward $542 $-1 #
edge $-1 $548 -39.223453458694785 $732 -32.753072977937478 $545 $733 forward 7 unknown #
coedge $-1 $369 $364 $731 $734 reversed $221 $-1 #
vertex $-1 $365 $735 #
straight-curve $-1 -20.865012322163707 32.179705050746442 5.9668200523774964 -1 0 0 I I #
coedge $-1 $736 $366 $369 $555 forward $360 $-1 #
coedge $-1 $366 $736 $544 $729 forward $360 $-1 #
vertex $-1 $367 $737 #
straight-curve $-1 -33.928508409111387 37.246955570377679 11.201467874334206 0 1 0 I I #
straight-curve $-1 -33.928508409111387 -5.6498063282103033 58.034677099134534 0 -0.5877852410284794 0.80901700255871778 I I #
edge $-1 $370 33.928508409111387 $738 49.531540879543442 $369 $739 forward 7 unknown #
point $-1 -33.928508409111387 32.179705050746442 11.201467874334204 #
point $-1 -33.928508409111387 32.179705050746442 5.9668200523774999 #
edge $-1 $740 1 $740 0 $373 $-1 forward 7 unknown #
vertex $-1 $374 $741 #
ellipse-curve $-1 -41.730024644327415 27.607218596407325 6.6436292986401906 0 0.80901700255871778 0.5877852410284794 1.5 0 0 1 I I #
point $-1 -40.230024644327415 30.278107975532492 8.5841439633558441 #
plane-surface $-1 0 32.179705050746442 0 0 -1 0 0 0 -1 forward_v I I I I #
coedge $-1 $573 $572 $565 $742 forward $378 $-1 #
coedge $-1 $565 $380 $382 $569 reversed $236 $-1 #
coedge $-1 $380 $564 $563 $742 reversed $236 $-1 #
coedge $-1 $388 $383 $380 $567 forward $389 $-1 #
edge $-1 $570 -52.164427191584188 $743 -46.929779369627482 $566 $744 forward 7 unknown #
coedge $-1 $382 $381 $573 $745 reversed $150 $-1 #
edge $-1 $746 57.889029620735585 $570 64.359410101492884 $564 $747 forward 7 unknown #
vertex $-1 $384 $748 #
straight-curve $-1 -6.9550041073879001 32.179705050746442 5.9668200523774964 -1 0 0 I I #
coedge $-1 $563 $385 $388 $577 forward $378 $-1 #
coedge $-1 $385 $563 $568 $745 forward $378 $-1 #
vertex $-1 $386 $749 #
straight-curve $-1 -6.1084919795597692 37.246955570377679 11.201467874334206 0 1 0 I I #
straight-curve $-1 -6.1084919795597692 -5.6498063282103033 58.034677099134534 0 -0.5877852410284794 0.80901700255871778 I I #
edge $-1 $390 6.1084919795597692 $743 21.711524449991831 $388 $750 forward 7 unknown #
point $-1 -6.1084919795597692 32.179705050746442 11.201467874334204 #
point $-1 -6.1084919795597692 32.179705050746442 5.9668200523774999 #
edge $-1 $751 1 $751 0 $393 $-1 forward 7 unknown #
vertex $-1 $394 $752 #
ellipse-curve $-1 -13.9100082147758 27.607218596407325 6.6436292986401906 0 0.80901700255871778 0.5877852410284794 1.5 0 0 1 I I #
point $-1 -12.4100082147758 30.278107975532492 8.5841439633558441 #
plane-surface $-1 0 32.179705050746442 0 0 -1 0 0 0 -1 forward_v I I I I #
coedge $-1 $595 $594 $587 $753 forward $398 $-1 #
coedge $-1 $587 $400 $402 $591 reversed $251 $-1 #
coedge $-1 $400 $586 $585 $753 reversed $251 $-1 #
coedge $-1 $408 $403 $400 $589 forward $409 $-1 #
edge $-1 $592 -52.164427191584188 $754 -46.929779369627482 $588 $755 forward 7 unknown #
coedge $-1 $402 $401 $595 $756 reversed $159 $-1 #
edge $-1 $757 57.889029620735585 $592 64.359410101492884 $586 $758 forward 7 unknown #
vertex $-1 $404 $759 #
straight-curve $-1 6.9550041073879036 32.179705050746442 5.9668200523774964 -1 0 0 I I #
coedge $-1 $585 $405 $408 $599 forward $398 $-1 #
coedge $-1 $405 $585 $590 $756 forward $398 $-1 #
vertex $-1 $406 $760 #
straight-curve $-1 21.711524449991838 37.246955570377679 11.201467874334206 0 1 0 I I #
straight-curve $-1 21.711524449991838 -5.6498063282103033 58.034677099134534 0 -0.5877852410284794 0.80901700255871778 I I #
edge $-1 $410 -21.711524449991838 $754 -6.1084919795597763 $408 $761 forward 7 unknown #
point $-1 21.711524449991838 32.179705050746442 11.201467874334204 #
point $-1 21.711524449991838 32.179705050746442 5.9668200523774999 #
edge $-1 $762 1 $762 0 $413 $-1 forward 7 unknown #
vertex $-1 $414 $763 #
ellipse-curve $-1 13.910008214775807 27.607218596407325 6.6436292986401906 0 0.80901700255871778 0.5877852410284794 1.5 0 0 1 I I #
point $-1 15.410008214775807 30.278107975532492 8.5841439633558441 #
plane-surface $-1 0 32.179705050746442 0 0 -1 0 0 0 -1 forward_v I I I I #
coedge $-1 $764 $420 $425 $613 forward $266 $-1 #
coedge $-1 $420 $764 $610 $765 forward $266 $-1 #
edge $-1 $611 5.0672505196312372 $618 8.8704446700591362 $420 $766 forward 7 unknown #
coedge $-1 $429 $423 $608 $765 reversed $430 $-1 #
vertex $-1 $424 $767 #
straight-curve $-1 33.928508409111387 32.179705050746442 58.131247243961688 0 0 1 I I #
edge $-1 $618 13.06349608694768 $616 28.666528557379735 $607 $768 forward 7 unknown #
coedge $-1 $615 $426 $429 $620 reversed $418 $-1 #
coedge $-1 $426 $614 $764 $769 reversed $418 $-1 #
vertex $-1 $769 $770 #
straight-curve $-1 49.531540879543442 9.1247380055581875 37.699260799532119 0 0.5877852410284794 -0.80901700255871778 I I #
vertex $-1 $613 $771 #
straight-curve $-1 33.928508409111387 -5.6498063282103033 58.034677099134534 0 0.5877852410284794 -0.80901700255871778 I I #
edge $-1 $772 -11.201467874334204 $431 -5.9668200523774999 $614 $773 forward 7 unknown #
point $-1 49.531540879543442 32.179705050746442 5.9668200523774999 #
point $-1 33.928508409111387 32.179705050746442 5.9668200523774999 #
edge $-1 $774 1 $774 0 $434 $-1 forward 7 unknown #
vertex $-1 $435 $775 #
ellipse-curve $-1 41.730024644327415 27.607218596407325 6.6436292986401906 0 0.80901700255871778 0.5877852410284794 1.5 0 0 1 I I #
point $-1 43.230024644327415 30.278107975532492 8.5841439633558441 #
loop $-1 $-1 $630 $438 #
plane-surface $-1 -49.531540879543442 0 0 1 0 0 0 0 -1 forward_v I I I I #
coedge $-1 $442 $441 $636 $776 reversed $177 $-1 #
coedge $-1 $777 $778 $442 $631 forward $627 $-1 #
edge $-1 $633 0.57336792719103102 $779 7.0437484079483497 $630 $780 forward 7 unknown #
coedge $-1 $448 $443 $778 $781 forward $281 $-1 #
vertex $-1 $781 $782 #
straight-curve $-1 -20.865012322163707 -28.376510900318532 11.201467874334204 -1 0 0 I I #
coedge $-1 $783 $445 $448 $640 reversed $439 $-1 #
coedge $-1 $445 $783 $629 $776 forward $439 $-1 #
vertex $-1 $446 $784 #
straight-curve $-1 -33.928508409111387 -32.179705050746442 32.097318720583168 0 0 1 I I #
straight-curve $-1 -33.928508409111387 -32.179705050746435 5.9668200523774928 0 -0.5877852410284794 -0.80901700255871778 I I #
edge $-1 $785 -49.531540879543442 $449 -33.928508409111387 $635 $786 forward 7 unknown #
point $-1 -33.928508409111387 -32.179705050746442 11.201467874334204 #
point $-1 -33.928508409111387 -28.376510900318532 11.201467874334204 #
edge $-1 $787 1 $787 0 $452 $-1 forward 7 unknown #
vertex $-1 $453 $788 #
ellipse-curve $-1 -41.730024644327415 -27.607218596407321 6.6436292986401906 0 -0.80901700255871778 0.5877852410284794 1.5 0 0 1 I I #
point $-1 -40.230024644327415 -30.278107975532492 8.5841439633558441 #
loop $-1 $-1 $464 $456 #
plane-surface $-1 0 -32.179705050746442 0 0 1 0 0 0 1 forward_v I I I I #
coedge $-1 $650 $459 $461 $654 reversed $296 $-1 #
coedge $-1 $459 $649 $789 $790 reversed $296 $-1 #
coedge $-1 $467 $462 $459 $652 forward $457 $-1 #
edge $-1 $655 -27.785200359537516 $791 -23.982006209109606 $651 $792 forward 7 unknown #
coedge $-1 $461 $460 $658 $793 reversed $186 $-1 #
edge $-1 $794 -1.2080531203272332e-014 $655 6.4703804807573073 $649 $795 forward 7 unknown #
vertex $-1 $463 $796 #
straight-curve $-1 -6.9550041073879001 -28.376510900318532 11.201467874334204 -1 0 0 I I #
coedge $-1 $789 $464 $467 $662 reversed $647 $-1 #
coedge $-1 $464 $789 $653 $793 forward $647 $-1 #
vertex $-1 $465 $797 #
straight-curve $-1 -6.1084919795597692 -32.179705050746442 32.097318720583168 0 0 1 I I #
straight-curve $-1 -6.1084919795597692 -32.179705050746435 5.9668200523774928 0 -0.5877852410284794 -0.80901700255871778 I I #
edge $-1 $791 -21.711524449991831 $468 -6.1084919795597692 $657 $798 forward 7 unknown #
point $-1 -6.1084919795597692 -32.179705050746442 11.201467874334204 #
point $-1 -6.1084919795597692 -28.376510900318532 11.201467874334204 #
edge $-1 $799 1 $799 0 $471 $-1 forward 7 unknown #
vertex $-1 $472 $800 #
ellipse-curve $-1 -13.9100082147758 -27.607218596407321 6.6436292986401906 0 -0.80901700255871778 0.5877852410284794 1.5 0 0 1 I I #
point $-1 -12.4100082147758 -30.278107975532492 8.5841439633558441 #
plane-surface $-1 0 0 11.201467874334204 0 0 1 1 0 0 forward_v I I I I #
coedge $-1 $680 $679 $672 $801 forward $476 $-1 #
coedge $-1 $672 $478 $480 $676 reversed $311 $-1 #
coedge $-1 $478 $671 $670 $801 reversed $311 $-1 #
coedge $-1 $486 $481 $478 $674 forward $487 $-1 #
edge $-1 $677 -27.785200359537516 $802 -23.982006209109606 $673 $803 forward 7 unknown #
coedge $-1 $480 $479 $680 $804 reversed $195 $-1 #
edge $-1 $805 -1.2080531203272332e-014 $677 6.4703804807573073 $671 $806 forward 7 unknown #
vertex $-1 $482 $807 #
straight-curve $-1 6.9550041073879036 -28.376510900318532 11.201467874334204 -1 0 0 I I #
coedge $-1 $670 $483 $486 $684 reversed $476 $-1 #
coedge $-1 $483 $670 $675 $804 forward $476 $-1 #
vertex $-1 $484 $808 #
straight-curve $-1 21.711524449991838 -32.179705050746442 32.097318720583168 0 0 1 I I #
straight-curve $-1 21.711524449991838 -32.179705050746435 5.9668200523774928 0 -0.5877852410284794 -0.80901700255871778 I I #
edge $-1 $802 6.1084919795597763 $488 21.711524449991838 $679 $809 forward 7 unknown #
point $-1 21.711524449991838 -32.179705050746442 11.201467874334204 #
point $-1 21.711524449991838 -28.376510900318532 11.201467874334204 #
edge $-1 $810 1 $810 0 $491 $-1 forward 7 unknown #
vertex $-1 $492 $811 #
ellipse-curve $-1 13.910008214775807 -27.607218596407321 6.6436292986401906 0 -0.80901700255871778 0.5877852410284794 1.5 0 0 1 I I #
point $-1 15.410008214775807 -30.278107975532492 8.5841439633558441 #
loop $-1 $-1 $504 $495 #
plane-surface $-1 49.531540879543442 0 0 -1 0 0 0 0 1 forward_v I I I I #
coedge $-1 $812 $498 $503 $699 forward $326 $-1 #
coedge $-1 $498 $812 $696 $813 reversed $326 $-1 #
edge $-1 $697 20.895850846248962 $704 26.130498668205686 $498 $814 forward 7 unknown #
coedge $-1 $507 $501 $694 $813 forward $496 $-1 #
vertex $-1 $813 $815 #
straight-curve $-1 33.928508409111387 -56.161711259856048 11.201467874334206 0 -1 0 I I #
edge $-1 $704 13.06349608694768 $702 28.666528557379735 $693 $816 forward 7 unknown #
coedge $-1 $701 $504 $507 $706 reversed $691 $-1 #
coedge $-1 $504 $700 $812 $817 forward $691 $-1 #
vertex $-1 $699 $818 #
straight-curve $-1 49.531540879543442 -28.039493695036555 11.665332276153599 0 0.5877852410284794 0.80901700255871778 I I #
vertex $-1 $699 $819 #
straight-curve $-1 33.928508409111387 -32.179705050746435 5.9668200523774928 0 0.5877852410284794 0.80901700255871778 I I #
edge $-1 $820 -32.179705050746442 $508 -28.376510900318532 $700 $821 forward 7 unknown #
point $-1 49.531540879543442 -28.376510900318532 11.201467874334204 #
point $-1 33.928508409111387 -28.376510900318532 11.201467874334204 #
edge $-1 $822 1 $822 0 $511 $-1 forward 7 unknown #
vertex $-1 $512 $823 #
ellipse-curve $-1 41.730024644327415 -27.607218596407321 6.6436292986401906 0 -0.80901700255871778 0.5877852410284794 1.5 0 0 1 I I #
point $-1 43.230024644327415 -30.278107975532492 8.5841439633558441 #
plane-surface $-1 49.531540879543442 0 0 -1 0 0 0 0 1 forward_v I I I I #
coedge $-1 $520 $518 $522 $718 reversed $341 $-1 #
edge $-1 $533 -11.201467874334204 $720 11.201467874334204 $532 $824 forward 7 unknown #
vertex $-1 $718 $825 #
straight-curve $-1 -49.531540879543442 -32.179705050746442 0 0 0 -1 I I #
edge $-1 $716 -32.179705050746442 $720 32.179705050746442 $714 $826 forward 7 unknown #
straight-curve $-1 0 -32.179705050746442 -11.201467874334204 -1 0 0 I I #
vertex $-1 $525 $827 #
straight-curve $-1 0 32.179705050746442 -11.201467874334204 1 0 0 I I #
point $-1 49.531540879543442 32.179705050746442 -11.201467874334204 #
point $-1 49.531540879543442 -32.179705050746442 -11.201467874334204 #
straight-curve $-1 -49.531540879543442 0 11.201467874334204 0 -1 0 I I #
point $-1 -49.531540879543442 32.179705050746442 11.201467874334204 #
point $-1 -49.531540879543442 -32.179705050746442 11.201467874334204 #
straight-curve $-1 49.531540879543442 -32.179705050746442 0 0 0 -1 I I #
straight-curve $-1 49.531540879543442 32.179705050746442 0 0 0 -1 I I #
edge $-1 $732 -28.666528557379735 $552 -13.06349608694768 $551 $828 forward 7 unknown #
coedge $-1 $731 $545 $736 $829 reversed $542 $-1 #
coedge $-1 $545 $730 $547 $734 forward $542 $-1 #
vertex $-1 $546 $830 #
straight-curve $-1 -49.531540879543442 9.1247380055581875 37.699260799532119 0 -0.5877852410284794 0.80901700255871778 I I #
edge $-1 $738 -11.201467874334204 $548 -5.9668200523774946 $547 $831 forward 7 unknown #
point $-1 -49.531540879543442 32.179705050746442 5.9668200523774946 #
coedge $-1 $551 $550 $730 $829 forward $360 $-1 #
point $-1 -33.928508409111387 28.376510900318543 11.201467874334206 #
vertex $-1 $555 $832 #
straight-curve $-1 0 32.179705050746442 11.201467874334204 -1 0 0 I I #
vertex $-1 $558 $833 #
point $-1 -40.230024644327415 27.607218596407325 6.6436292986401906 #
edge $-1 $743 5.0672505196312372 $746 8.8704446700591362 $563 $834 forward 7 unknown #
vertex $-1 $742 $835 #
straight-curve $-1 -21.711524449991831 32.179705050746442 58.131247243961688 0 0 1 I I #
edge $-1 $746 -14.756520342603931 $574 0.8465121278281309 $573 $836 forward 7 unknown #
vertex $-1 $745 $837 #
straight-curve $-1 -21.711524449991831 -5.6498063282103033 58.034677099134534 0 0.5877852410284794 -0.80901700255871778 I I #
point $-1 -21.711524449991831 32.179705050746442 5.9668200523774999 #
point $-1 -6.1084919795597692 28.376510900318543 11.201467874334206 #
straight-curve $-1 0 32.179705050746442 11.201467874334204 -1 0 0 I I #
vertex $-1 $580 $838 #
point $-1 -12.4100082147758 27.607218596407325 6.6436292986401906 #
edge $-1 $754 5.0672505196312372 $757 8.8704446700591362 $585 $839 forward 7 unknown #
vertex $-1 $589 $840 #
straight-curve $-1 6.1084919795597763 32.179705050746442 58.131247243961688 0 0 1 I I #
edge $-1 $757 -0.84651212782812735 $596 14.756520342603935 $595 $841 forward 7 unknown #
vertex $-1 $756 $842 #
straight-curve $-1 6.1084919795597763 -5.6498063282103033 58.034677099134534 0 0.5877852410284794 -0.80901700255871778 I I #
point $-1 6.1084919795597763 32.179705050746442 5.9668200523774999 #
point $-1 21.711524449991838 28.376510900318543 11.201467874334206 #
straight-curve $-1 0 32.179705050746442 11.201467874334204 -1 0 0 I I #
vertex $-1 $602 $843 #
point $-1 15.410008214775807 27.607218596407325 6.6436292986401906 #
coedge $-1 $608 $607 $615 $769 forward $266 $-1 #
edge $-1 $772 -49.531540879543442 $611 -33.928508409111387 $610 $844 forward 7 unknown #
straight-curve $-1 33.928508409111387 37.246955570377679 11.201467874334206 0 -1 0 I I #
point $-1 33.928508409111387 32.179705050746442 11.201467874334204 #
straight-curve $-1 20.865012322163707 28.376510900318543 11.20146787433421 1 0 0 I I #
edge $-1 $616 28.376510900318543 $772 32.179705050746442 $615 $845 forward 7 unknown #
point $-1 49.531540879543442 28.376510900318543 11.201467874334206 #
point $-1 33.928508409111387 28.376510900318543 11.201467874334206 #
vertex $-1 $769 $846 #
straight-curve $-1 49.531540879543442 32.179705050746442 0 0 0 -1 I I #
vertex $-1 $623 $847 #
point $-1 43.230024644327415 27.607218596407325 6.6436292986401906 #
edge $-1 $779 -28.666528557379735 $637 -13.06349608694768 $636 $848 forward 7 unknown #
coedge $-1 $778 $630 $783 $849 reversed $627 $-1 #
coedge $-1 $630 $777 $632 $781 reversed $627 $-1 #
vertex $-1 $631 $850 #
straight-curve $-1 -49.531540879543442 -28.039493695036555 11.665332276153599 0 -0.5877852410284794 -0.80901700255871778 I I #
edge $-1 $633 28.376510900318532 $785 32.179705050746442 $778 $851 forward 7 unknown #
point $-1 -49.531540879543442 -28.376510900318532 11.201467874334204 #
coedge $-1 $636 $635 $777 $849 forward $439 $-1 #
point $-1 -33.928508409111387 -32.179705050746442 5.966820052377483 #
vertex $-1 $781 $852 #
straight-curve $-1 0 -32.179705050746442 11.201467874334204 1 0 0 I I #
vertex $-1 $643 $853 #
point $-1 -40.230024644327415 -27.607218596407321 6.6436292986401906 #
coedge $-1 $658 $657 $650 $790 forward $647 $-1 #
edge $-1 $791 20.895850846248962 $794 26.130498668205686 $789 $854 forward 7 unknown #
vertex $-1 $662 $855 #
straight-curve $-1 -21.711524449991831 -56.161711259856048 11.201467874334206 0 -1 0 I I #
edge $-1 $794 -14.756520342603931 $659 0.8465121278281309 $658 $856 forward 7 unknown #
vertex $-1 $793 $857 #
straight-curve $-1 -21.711524449991831 -32.179705050746435 5.9668200523774928 0 0.5877852410284794 0.80901700255871778 I I #
point $-1 -21.711524449991831 -28.376510900318532 11.201467874334204 #
point $-1 -6.1084919795597692 -32.179705050746442 5.966820052377483 #
straight-curve $-1 0 -32.179705050746442 11.201467874334204 1 0 0 I I #
vertex $-1 $665 $858 #
point $-1 -12.4100082147758 -27.607218596407321 6.6436292986401906 #
edge $-1 $802 20.895850846248962 $805 26.130498668205686 $670 $859 forward 7 unknown #
vertex $-1 $684 $860 #
straight-curve $-1 6.1084919795597763 -56.161711259856048 11.201467874334206 0 -1 0 I I #
edge $-1 $805 -0.84651212782812735 $681 14.756520342603935 $680 $861 forward 7 unknown #
vertex $-1 $804 $862 #
straight-curve $-1 6.1084919795597763 -32.179705050746435 5.9668200523774928 0 0.5877852410284794 0.80901700255871778 I I #
point $-1 6.1084919795597763 -28.376510900318532 11.201467874334204 #
point $-1 21.711524449991838 -32.179705050746442 5.966820052377483 #
straight-curve $-1 0 -32.179705050746442 11.201467874334204 1 0 0 I I #
vertex $-1 $687 $863 #
point $-1 15.410008214775807 -27.607218596407321 6.6436292986401906 #
coedge $-1 $694 $693 $701 $817 reversed $326 $-1 #
edge $-1 $697 33.928508409111387 $820 49.531540879543442 $694 $864 forward 7 unknown #
straight-curve $-1 33.928508409111387 -32.179705050746442 32.097318720583168 0 0 -1 I I #
point $-1 33.928508409111387 -32.179705050746442 11.201467874334204 #
straight-curve $-1 20.865012322163707 -32.179705050746442 5.9668200523774741 1 0 0 I I #
edge $-1 $820 -11.201467874334204 $702 -5.966820052377483 $701 $865 forward 7 unknown #
point $-1 49.531540879543442 -32.179705050746442 5.966820052377483 #
point $-1 33.928508409111387 -32.179705050746442 5.966820052377483 #
vertex $-1 $706 $866 #
straight-curve $-1 49.531540879543442 0 11.201467874334204 0 1 0 I I #
vertex $-1 $709 $867 #
point $-1 43.230024644327415 -27.607218596407321 6.6436292986401906 #
straight-curve $-1 -49.531540879543442 32.179705050746442 0 0 0 -1 I I #
point $-1 -49.531540879543442 -32.179705050746442 -11.201467874334204 #
straight-curve $-1 -49.531540879543442 0 -11.201467874334204 0 1 0 I I #
point $-1 -49.531540879543442 32.179705050746442 -11.201467874334204 #
straight-curve $-1 -20.865012322163707 28.376510900318543 11.20146787433421 1 0 0 I I #
edge $-1 $738 -32.179705050746442 $732 -28.376510900318543 $730 $868 forward 7 unknown #
point $-1 -49.531540879543442 28.376510900318543 11.201467874334206 #
straight-curve $-1 -49.531540879543442 32.179705050746442 0 0 0 -1 I I #
point $-1 -49.531540879543442 32.179705050746442 11.201467874334204 #
point $-1 -41.730024644327415 26.393693092569247 5.7619514370974709 #
straight-curve $-1 -21.711524449991831 37.246955570377679 11.201467874334206 0 -1 0 I I #
point $-1 -21.711524449991831 32.179705050746442 11.201467874334204 #
straight-curve $-1 -6.9550041073879001 28.376510900318543 11.20146787433421 1 0 0 I I #
point $-1 -21.711524449991831 28.376510900318543 11.201467874334206 #
point $-1 -13.9100082147758 26.393693092569247 5.7619514370974709 #
straight-curve $-1 6.1084919795597763 37.246955570377679 11.201467874334206 0 -1 0 I I #
point $-1 6.1084919795597763 32.179705050746442 11.201467874334204 #
straight-curve $-1 6.9550041073879036 28.376510900318543 11.20146787433421 1 0 0 I I #
point $-1 6.1084919795597763 28.376510900318543 11.201467874334206 #
point $-1 13.910008214775807 26.393693092569247 5.7619514370974709 #
straight-curve $-1 0 32.179705050746442 11.201467874334204 -1 0 0 I I #
straight-curve $-1 49.531540879543442 0 11.201467874334204 0 1 0 I I #
point $-1 49.531540879543442 32.179705050746442 11.201467874334204 #
point $-1 41.730024644327415 26.393693092569247 5.7619514370974709 #
straight-curve $-1 -20.865012322163707 -32.179705050746442 5.9668200523774741 1 0 0 I I #
edge $-1 $785 -11.201467874334204 $779 -5.966820052377483 $777 $869 forward 7 unknown #
point $-1 -49.531540879543442 -32.179705050746442 5.966820052377483 #
straight-curve $-1 -49.531540879543442 0 11.201467874334204 0 -1 0 I I #
point $-1 -49.531540879543442 -32.179705050746442 11.201467874334204 #
point $-1 -41.730024644327415 -26.393693092569244 5.7619514370974709 #
straight-curve $-1 -21.711524449991831 -32.179705050746442 32.097318720583168 0 0 -1 I I #
point $-1 -21.711524449991831 -32.179705050746442 11.201467874334204 #
straight-curve $-1 -6.9550041073879001 -32.179705050746442 5.9668200523774741 1 0 0 I I #
point $-1 -21.711524449991831 -32.179705050746442 5.966820052377483 #
point $-1 -13.9100082147758 -26.393693092569244 5.7619514370974709 #
straight-curve $-1 6.1084919795597763 -32.179705050746442 32.097318720583168 0 0 -1 I I #
point $-1 6.1084919795597763 -32.179705050746442 11.201467874334204 #
straight-curve $-1 6.9550041073879036 -32.179705050746442 5.9668200523774741 1 0 0 I I #
point $-1 6.1084919795597763 -32.179705050746442 5.966820052377483 #
point $-1 13.910008214775807 -26.393693092569244 5.7619514370974709 #
straight-curve $-1 0 -32.179705050746442 11.201467874334204 1 0 0 I I #
straight-curve $-1 49.531540879543442 -32.179705050746442 0 0 0 -1 I I #
point $-1 49.531540879543442 -32.179705050746442 11.201467874334204 #
point $-1 41.730024644327415 -26.393693092569244 5.7619514370974709 #
straight-curve $-1 -49.531540879543442 0 11.201467874334204 0 -1 0 I I #
straight-curve $-1 -49.531540879543442 -32.179705050746442 0 0 0 -1 I I #
End-of-ACIS-data 