500 0 5 0           
7 Unknown 11 ACIS 5.0 NT 24 Thu Mar 25 23:12:13 1999 
-1 9.9999999999999995e-007 1e-010 
body $-1 $5 $-1 $6 #
body $-1 $7 $-1 $8 #
body $-1 $9 $-1 $10 #
body $-1 $11 $-1 $12 #
body $-1 $13 $-1 $14 #
lump $-1 $-1 $15 $0 #
transform $-1 1 0 0 0 1 0 0 0 1 45.918149357585378 18.723343661359372 8.5414148701437398 1 rotate no_reflect no_shear #
lump $-1 $-1 $16 $1 #
transform $-1 1 0 0 0 1 0 0 0 1 45.918149357585378 18.723343661359372 8.5414148701437398 1 rotate no_reflect no_shear #
lump $-1 $-1 $17 $2 #
transform $-1 1 0 0 0 1 0 0 0 1 45.918149357585378 18.723343661359372 8.5414148701437398 1 rotate no_reflect no_shear #
lump $-1 $-1 $18 $3 #
transform $-1 1 0 0 0 1 0 0 0 1 45.918149357585378 18.723343661359372 8.5414148701437398 1 rotate no_reflect no_shear #
lump $-1 $-1 $19 $4 #
transform $-1 1 0 0 0 1 0 0 0 1 45.918149357585378 18.723343661359372 8.5414148701437398 1 rotate no_reflect no_shear #
shell $-1 $-1 $-1 $20 $-1 $5 #
shell $-1 $-1 $-1 $21 $-1 $7 #
shell $-1 $-1 $-1 $22 $-1 $9 #
shell $-1 $-1 $-1 $23 $-1 $11 #
shell $-1 $-1 $-1 $24 $-1 $13 #
face $-1 $25 $26 $15 $-1 $27 forward single #
face $-1 $28 $29 $16 $-1 $30 forward single #
face $-1 $31 $32 $17 $-1 $33 reversed single #
face $-1 $34 $35 $18 $-1 $36 reversed single #
face $-1 $37 $38 $19 $-1 $39 reversed single #
face $-1 $40 $41 $15 $-1 $42 reversed single #
loop $-1 $-1 $43 $20 #
plane-surface $-1 0 0 8.5414148701437398 0 0 1 1 0 0 forward_v I I I I #
face $-1 $44 $45 $16 $-1 $46 forward single #
loop $-1 $-1 $47 $21 #
plane-surface $-1 35.852227337396293 53.968776420261229 97.80916873114171 1 0 0 0 -0.68199836817093118 -0.7313536940579346 forward_v I I I I #
face $-1 $48 $49 $17 $-1 $50 reversed single #
loop $-1 $51 $52 $22 #
cone-surface $-1 37.865411741434102 16.22244614544476 6.1171602100733695 0 -0.68199836817093118 -0.7313536940579346 1 0 0 1 I I 0 1 1 forward I I I I #
face $-1 $53 $54 $18 $-1 $55 reversed single #
loop $-1 $56 $57 $23 #
cone-surface $-1 40.885188347490825 16.22244614544476 6.1171602100733695 0 -0.68199836817093118 -0.7313536940579346 1 0 0 1 I I 0 1 1 forward I I I I #
face $-1 $58 $59 $19 $-1 $60 reversed single #
loop $-1 $61 $62 $24 #
cone-surface $-1 43.904964953547548 16.22244614544476 6.1171602100733695 0 -0.68199836817093118 -0.7313536940579346 1 0 0 1 I I 0 1 1 forward I I I I #
face $-1 $63 $64 $15 $-1 $65 reversed single #
loop $-1 $-1 $66 $25 #
plane-surface $-1 0 0 -8.5414148701437398 0 0 1 1 0 0 forward_v I I I I #
coedge $-1 $67 $68 $69 $70 forward $26 $-1 #
face $-1 $71 $72 $16 $-1 $73 forward single #
loop $-1 $-1 $74 $28 #
plane-surface $-1 40.885188347490839 -8.6634294423434071 30.64435241719363 0 0.68199836817093118 0.7313536940579346 1 0 0 forward_v I I I I #
coedge $-1 $75 $76 $77 $78 reversed $29 $-1 #
face $-1 $79 $80 $17 $-1 $81 forward single #
loop $-1 $82 $83 $31 #
cone-surface $-1 37.865411741434102 15.222686948181583 5.0450497531997218 0 -0.68199836817093118 -0.7313536940579346 0.5 0 0 1 I I -0.70710678118654746 0.70710678118654746 0.5 forward I I I I #
loop $-1 $-1 $84 $22 #
coedge $-1 $52 $52 $85 $86 reversed $32 $-1 #
face $-1 $87 $88 $18 $-1 $89 reversed single #
loop $-1 $90 $91 $34 #
cone-surface $-1 40.885188347490825 15.222686948181583 5.0450497531997218 0 -0.68199836817093118 -0.7313536940579346 0.5 0 0 1 I I -0.70710678118654746 0.70710678118654746 0.5 forward I I I I #
loop $-1 $-1 $92 $23 #
coedge $-1 $57 $57 $93 $94 reversed $35 $-1 #
face $-1 $95 $96 $19 $-1 $97 reversed single #
loop $-1 $98 $99 $37 #
cone-surface $-1 43.904964953547548 15.222686948181583 5.0450497531997218 0 -0.68199836817093118 -0.7313536940579346 0.5 0 0 1 I I -0.70710678118654746 0.70710678118654746 0.5 forward I I I I #
loop $-1 $-1 $100 $24 #
coedge $-1 $62 $62 $101 $102 reversed $38 $-1 #
face $-1 $103 $104 $15 $-1 $105 reversed single #
loop $-1 $-1 $106 $40 #
plane-surface $-1 0 -18.723343661359372 0 0 1 0 0 0 1 forward_v I I I I #
coedge $-1 $107 $108 $109 $110 forward $41 $-1 #
coedge $-1 $111 $43 $112 $113 forward $26 $-1 #
coedge $-1 $43 $111 $114 $115 forward $26 $-1 #
coedge $-1 $116 $117 $43 $70 reversed $118 $-1 #
edge $-1 $119 -18.723343661359372 $120 18.723343661359372 $69 $121 forward 7 unknown #
face $-1 $122 $123 $16 $-1 $124 reversed single #
loop $-1 $-1 $125 $44 #
plane-surface $-1 0 0 8.5414148701437398 0 0 1 1 0 0 forward_v I I I I #
coedge $-1 $126 $127 $125 $128 reversed $45 $-1 #
coedge $-1 $76 $47 $127 $129 forward $29 $-1 #
coedge $-1 $47 $75 $130 $131 reversed $29 $-1 #
coedge $-1 $132 $125 $47 $78 forward $72 $-1 #
edge $-1 $133 -11.945319554245049 $134 -8.2610445487712418 $77 $135 forward 7 unknown #
face $-1 $136 $137 $17 $-1 $138 forward single #
loop $-1 $-1 $139 $48 #
plane-surface $-1 35.852227337396293 53.968776420261229 97.80916873114171 1 0 0 0 -0.68199836817093118 -0.7313536940579346 forward_v I I I I #
loop $-1 $-1 $140 $31 #
coedge $-1 $83 $83 $84 $141 forward $49 $-1 #
coedge $-1 $84 $84 $83 $141 reversed $51 $-1 #
coedge $-1 $85 $85 $52 $86 forward $137 $-1 #
edge $-1 $142 1.2114724657602437e-015 $142 6.2831853071796013 $85 $143 forward 7 unknown #
face $-1 $144 $145 $18 $-1 $146 reversed single #
loop $-1 $147 $148 $53 #
cone-surface $-1 37.865411741434102 16.22244614544476 6.1171602100733695 0 -0.68199836817093118 -0.7313536940579346 1 0 0 1 I I 0 1 1 forward I I I I #
loop $-1 $-1 $149 $34 #
coedge $-1 $91 $91 $92 $150 forward $54 $-1 #
coedge $-1 $92 $92 $91 $150 reversed $56 $-1 #
coedge $-1 $93 $93 $57 $94 forward $151 $-1 #
edge $-1 $152 1.2114724657602437e-015 $152 6.2831853071796013 $93 $153 forward 7 unknown #
face $-1 $154 $155 $19 $-1 $156 reversed single #
loop $-1 $157 $158 $58 #
cone-surface $-1 40.885188347490825 16.22244614544476 6.1171602100733695 0 -0.68199836817093118 -0.7313536940579346 1 0 0 1 I I 0 1 1 forward I I I I #
loop $-1 $-1 $159 $37 #
coedge $-1 $99 $99 $100 $160 forward $59 $-1 #
coedge $-1 $100 $100 $99 $160 reversed $61 $-1 #
coedge $-1 $101 $101 $62 $102 forward $161 $-1 #
edge $-1 $162 1.2114724657602437e-015 $162 6.2831853071796013 $101 $163 forward 7 unknown #
face $-1 $164 $165 $15 $-1 $166 reversed single #
loop $-1 $-1 $167 $63 #
plane-surface $-1 -45.918149357585378 0 0 1 0 0 0 0 -1 forward_v I I I I #
coedge $-1 $168 $114 $169 $170 forward $64 $-1 #
coedge $-1 $171 $66 $168 $172 forward $41 $-1 #
coedge $-1 $66 $171 $173 $174 forward $41 $-1 #
coedge $-1 $117 $116 $66 $110 reversed $118 $-1 #
edge $-1 $175 -18.723343661359372 $176 18.723343661359372 $109 $177 forward 7 unknown #
coedge $-1 $68 $67 $178 $179 forward $26 $-1 #
coedge $-1 $180 $181 $67 $113 reversed $165 $-1 #
edge $-1 $120 -45.918149357585378 $182 45.918149357585378 $112 $183 forward 7 unknown #
coedge $-1 $106 $184 $68 $115 reversed $64 $-1 #
edge $-1 $185 -45.918149357585378 $119 45.918149357585378 $114 $186 forward 7 unknown #
coedge $-1 $109 $69 $184 $187 forward $118 $-1 #
coedge $-1 $69 $109 $180 $188 reversed $118 $-1 #
loop $-1 $-1 $116 $164 #
vertex $-1 $70 $189 #
vertex $-1 $70 $190 #
straight-curve $-1 45.918149357585378 0 8.5414148701437398 0 1 0 I I #
face $-1 $191 $192 $16 $-1 $193 reversed single #
loop $-1 $-1 $130 $71 #
plane-surface $-1 0 18.723343661359372 0 0 -1 0 0 0 -1 forward_v I I I I #
coedge $-1 $77 $194 $74 $128 forward $72 $-1 #
coedge $-1 $195 $74 $196 $197 reversed $45 $-1 #
coedge $-1 $74 $195 $75 $129 reversed $45 $-1 #
edge $-1 $198 -25.475555183839965 $133 -15.409633163650874 $125 $199 forward 7 unknown #
edge $-1 $133 32.409076881412958 $200 37.446687322718745 $75 $201 forward 7 unknown #
coedge $-1 $202 $203 $76 $131 forward $123 $-1 #
edge $-1 $134 40.363169495427115 $200 43.798811595878504 $130 $204 forward 7 unknown #
coedge $-1 $205 $77 $203 $206 forward $72 $-1 #
vertex $-1 $128 $207 #
vertex $-1 $206 $208 #
straight-curve $-1 35.852227337396293 26.984388210130614 8.5414148701437398 0 1 0 I I #
face $-1 $209 $210 $17 $-1 $211 forward single #
loop $-1 $212 $85 $79 #
plane-surface $-1 40.885188347490839 -8.6634294423434071 30.64435241719363 0 0.68199836817093118 0.7313536940579346 1 0 0 forward_v I I I I #
coedge $-1 $213 $214 $215 $216 reversed $80 $-1 #
coedge $-1 $140 $140 $-1 $217 forward $82 $-1 #
edge $-1 $218 0 $218 6.2831853071796004 $83 $219 forward 7 unknown #
vertex $-1 $86 $220 #
ellipse-curve $-1 37.865411741434102 16.881206158622469 6.8235938199180488 0 -0.68199836817093118 -0.7313536940579346 1 0 0 1 I I #
face $-1 $221 $222 $18 $-1 $223 forward single #
loop $-1 $224 $225 $87 #
cone-surface $-1 37.865411741434102 15.222686948181583 5.0450497531997218 0 -0.68199836817093118 -0.7313536940579346 0.5 0 0 1 I I -0.70710678118654746 0.70710678118654746 0.5 forward I I I I #
loop $-1 $-1 $226 $53 #
coedge $-1 $148 $148 $227 $228 reversed $88 $-1 #
coedge $-1 $149 $149 $-1 $229 forward $90 $-1 #
edge $-1 $230 0 $230 6.2831853071796004 $91 $231 forward 7 unknown #
loop $-1 $232 $93 $221 #
vertex $-1 $94 $233 #
ellipse-curve $-1 40.885188347490825 16.881206158622469 6.8235938199180488 0 -0.68199836817093118 -0.7313536940579346 1 0 0 1 I I #
face $-1 $234 $235 $19 $-1 $236 reversed single #
loop $-1 $237 $238 $95 #
cone-surface $-1 40.885188347490825 15.222686948181583 5.0450497531997218 0 -0.68199836817093118 -0.7313536940579346 0.5 0 0 1 I I -0.70710678118654746 0.70710678118654746 0.5 forward I I I I #
loop $-1 $-1 $239 $58 #
coedge $-1 $158 $158 $240 $241 reversed $96 $-1 #
coedge $-1 $159 $159 $-1 $242 forward $98 $-1 #
edge $-1 $243 0 $243 6.2831853071796004 $99 $244 forward 7 unknown #
loop $-1 $245 $101 $246 #
vertex $-1 $102 $247 #
ellipse-curve $-1 43.904964953547548 16.881206158622469 6.8235938199180488 0 -0.68199836817093118 -0.7313536940579346 1 0 0 1 I I #
face $-1 $-1 $118 $15 $-1 $248 reversed single #
loop $-1 $-1 $180 $103 #
plane-surface $-1 0 18.723343661359372 0 0 -1 0 0 0 -1 forward_v I I I I #
coedge $-1 $249 $178 $181 $250 forward $104 $-1 #
coedge $-1 $184 $106 $107 $172 reversed $64 $-1 #
coedge $-1 $178 $249 $106 $170 reversed $104 $-1 #
edge $-1 $185 -8.5414148701437398 $251 8.5414148701437398 $169 $252 forward 7 unknown #
coedge $-1 $108 $107 $249 $253 forward $41 $-1 #
edge $-1 $176 -45.918149357585378 $251 45.918149357585378 $168 $254 forward 7 unknown #
coedge $-1 $181 $180 $108 $174 reversed $165 $-1 #
edge $-1 $255 -45.918149357585378 $175 45.918149357585378 $173 $256 forward 7 unknown #
vertex $-1 $110 $257 #
vertex $-1 $187 $258 #
straight-curve $-1 45.918149357585378 0 -8.5414148701437398 0 -1 0 I I #
coedge $-1 $167 $169 $111 $179 reversed $104 $-1 #
edge $-1 $182 -18.723343661359372 $185 18.723343661359372 $178 $259 forward 7 unknown #
coedge $-1 $173 $112 $117 $188 forward $165 $-1 #
coedge $-1 $112 $173 $167 $250 reversed $165 $-1 #
vertex $-1 $113 $260 #
straight-curve $-1 0 18.723343661359372 8.5414148701437398 -1 0 0 I I #
coedge $-1 $114 $168 $116 $187 reversed $64 $-1 #
vertex $-1 $179 $261 #
straight-curve $-1 0 -18.723343661359372 8.5414148701437398 1 0 0 I I #
edge $-1 $119 -8.5414148701437398 $176 8.5414148701437398 $116 $262 forward 7 unknown #
edge $-1 $120 -8.5414148701437398 $175 8.5414148701437398 $117 $263 forward 7 unknown #
point $-1 45.918149357585378 -18.723343661359372 8.5414148701437398 #
point $-1 45.918149357585378 18.723343661359372 8.5414148701437398 #
face $-1 $264 $265 $16 $-1 $266 reversed single #
loop $-1 $-1 $267 $122 #
plane-surface $-1 0 0 -8.5414148701437398 0 0 1 1 0 0 forward_v I I I I #
coedge $-1 $125 $268 $269 $270 forward $72 $-1 #
coedge $-1 $127 $126 $202 $271 reversed $45 $-1 #
coedge $-1 $269 $272 $126 $197 forward $273 $-1 #
edge $-1 $274 -23.828972588694185 $198 -18.791362147388401 $196 $275 forward 7 unknown #
vertex $-1 $197 $276 #
straight-curve $-1 20.44259417374542 15.03906865588557 8.5414148701437398 -1 0 0 I I #
vertex $-1 $271 $277 #
straight-curve $-1 35.852227337396293 -8.6634294423434071 30.64435241719363 0 0.7313536940579346 -0.68199836817093118 I I #
coedge $-1 $278 $130 $195 $271 forward $123 $-1 #
coedge $-1 $130 $279 $132 $206 reversed $123 $-1 #
straight-curve $-1 35.852227337396293 18.723343661359372 48.904584365570855 0 0 -1 I I #
coedge $-1 $268 $132 $280 $281 forward $72 $-1 #
edge $-1 $134 -35.852227337396293 $282 45.918149357585378 $203 $283 forward 7 unknown #
point $-1 35.852227337396293 15.039068655885565 8.5414148701437433 #
point $-1 35.852227337396293 18.723343661359372 8.5414148701437398 #
face $-1 $284 $285 $17 $-1 $286 reversed single #
loop $-1 $-1 $287 $136 #
plane-surface $-1 0 0 8.5414148701437398 0 0 1 1 0 0 forward_v I I I I #
loop $-1 $-1 $288 $79 #
coedge $-1 $214 $139 $289 $290 forward $80 $-1 #
coedge $-1 $139 $213 $291 $292 reversed $80 $-1 #
coedge $-1 $293 $287 $139 $216 forward $210 $-1 #
edge $-1 $294 -11.945319554245049 $295 -8.2610445487712418 $215 $296 forward 7 unknown #
edge $-1 $297 1 $297 0 $140 $-1 forward 7 unknown #
vertex $-1 $141 $298 #
ellipse-curve $-1 37.865411741434102 15.563686132267048 5.4107266002286893 0 0.68199836817093118 0.7313536940579346 1 0 0 1 I I #
point $-1 38.865411741434102 16.881206158622469 6.8235938199180506 #
face $-1 $299 $151 $18 $-1 $300 forward single #
loop $-1 $-1 $301 $144 #
plane-surface $-1 35.852227337396293 53.968776420261229 97.80916873114171 1 0 0 0 -0.68199836817093118 -0.7313536940579346 forward_v I I I I #
loop $-1 $-1 $302 $87 #
coedge $-1 $225 $225 $226 $303 forward $145 $-1 #
coedge $-1 $226 $226 $225 $303 reversed $147 $-1 #
coedge $-1 $227 $227 $148 $228 forward $232 $-1 #
edge $-1 $304 1.2114724657602437e-015 $304 6.2831853071796013 $227 $305 forward 7 unknown #
edge $-1 $306 1 $306 0 $149 $-1 forward 7 unknown #
vertex $-1 $150 $307 #
ellipse-curve $-1 40.885188347490825 15.563686132267048 5.4107266002286893 0 0.68199836817093118 0.7313536940579346 1 0 0 1 I I #
loop $-1 $308 $227 $221 #
point $-1 41.885188347490825 16.881206158622469 6.8235938199180506 #
face $-1 $309 $310 $19 $-1 $311 reversed single #
loop $-1 $312 $313 $154 #
cone-surface $-1 37.865411741434102 16.22244614544476 6.1171602100733695 0 -0.68199836817093118 -0.7313536940579346 1 0 0 1 I I 0 1 1 forward I I I I #
loop $-1 $-1 $314 $95 #
coedge $-1 $238 $238 $239 $315 forward $155 $-1 #
coedge $-1 $239 $239 $238 $315 reversed $157 $-1 #
coedge $-1 $240 $240 $158 $241 forward $245 $-1 #
edge $-1 $316 1.2114724657602437e-015 $316 6.2831853071796013 $240 $317 forward 7 unknown #
edge $-1 $318 1 $318 0 $159 $-1 forward 7 unknown #
vertex $-1 $160 $319 #
ellipse-curve $-1 43.904964953547548 15.563686132267048 5.4107266002286893 0 0.68199836817093118 0.7313536940579346 1 0 0 1 I I #
loop $-1 $320 $240 $246 #
face $-1 $321 $161 $19 $-1 $322 forward single #
point $-1 44.904964953547548 16.881206158622469 6.8235938199180506 #
plane-surface $-1 45.918149357585378 0 0 -1 0 0 0 0 1 forward_v I I I I #
coedge $-1 $169 $167 $171 $253 reversed $104 $-1 #
edge $-1 $182 -8.5414148701437398 $255 8.5414148701437398 $181 $323 forward 7 unknown #
vertex $-1 $253 $324 #
straight-curve $-1 -45.918149357585378 -18.723343661359372 0 0 0 -1 I I #
edge $-1 $251 -18.723343661359372 $255 18.723343661359372 $249 $325 forward 7 unknown #
straight-curve $-1 0 -18.723343661359372 -8.5414148701437398 -1 0 0 I I #
vertex $-1 $174 $326 #
straight-curve $-1 0 18.723343661359372 -8.5414148701437398 1 0 0 I I #
point $-1 45.918149357585378 18.723343661359372 -8.5414148701437398 #
point $-1 45.918149357585378 -18.723343661359372 -8.5414148701437398 #
straight-curve $-1 -45.918149357585378 0 8.5414148701437398 0 -1 0 I I #
point $-1 -45.918149357585378 18.723343661359372 8.5414148701437398 #
point $-1 -45.918149357585378 -18.723343661359372 8.5414148701437398 #
straight-curve $-1 45.918149357585378 -18.723343661359372 0 0 0 -1 I I #
straight-curve $-1 45.918149357585378 18.723343661359372 0 0 0 -1 I I #
face $-1 $327 $328 $16 $-1 $329 reversed single #
loop $-1 $-1 $330 $191 #
plane-surface $-1 0 -18.723343661359372 0 0 1 0 0 0 1 forward_v I I I I #
coedge $-1 $331 $332 $333 $334 forward $192 $-1 #
coedge $-1 $194 $205 $335 $336 forward $72 $-1 #
coedge $-1 $337 $196 $194 $270 reversed $273 $-1 #
edge $-1 $338 -18.723343661359372 $198 15.039068655885565 $269 $339 forward 7 unknown #
edge $-1 $200 15.409633163650874 $274 25.475555183839965 $202 $340 forward 7 unknown #
coedge $-1 $196 $333 $278 $341 reversed $273 $-1 #
loop $-1 $-1 $196 $327 #
vertex $-1 $341 $342 #
straight-curve $-1 45.918149357585378 1.2959365330126156 21.357093190371639 0 -0.7313536940579346 0.68199836817093118 I I #
point $-1 45.918149357585385 15.039068655885565 8.5414148701437433 #
point $-1 35.852227337396293 18.723343661359372 5.1057727696923543 #
coedge $-1 $343 $202 $272 $341 forward $123 $-1 #
coedge $-1 $203 $343 $344 $345 reversed $123 $-1 #
coedge $-1 $344 $346 $205 $281 reversed $328 $-1 #
edge $-1 $282 -18.723343661359372 $347 18.723343661359372 $280 $348 forward 7 unknown #
vertex $-1 $206 $349 #
straight-curve $-1 0 18.723343661359372 8.5414148701437398 -1 0 0 I I #
face $-1 $350 $351 $17 $-1 $352 reversed single #
loop $-1 $-1 $291 $209 #
plane-surface $-1 0 18.723343661359372 0 0 -1 0 0 0 -1 forward_v I I I I #
coedge $-1 $215 $353 $288 $354 forward $210 $-1 #
coedge $-1 $355 $289 $287 $354 reversed $212 $-1 #
coedge $-1 $288 $356 $213 $290 reversed $212 $-1 #
edge $-1 $294 32.409076881412958 $357 37.446687322718745 $213 $358 forward 7 unknown #
coedge $-1 $359 $360 $214 $292 forward $285 $-1 #
edge $-1 $295 40.363169495427115 $357 43.798811595878504 $291 $361 forward 7 unknown #
coedge $-1 $362 $215 $360 $363 forward $210 $-1 #
vertex $-1 $354 $364 #
vertex $-1 $363 $365 #
straight-curve $-1 35.852227337396293 26.984388210130614 8.5414148701437398 0 1 0 I I #
vertex $-1 $217 $366 #
point $-1 38.865411741434102 15.563686132267048 5.4107266002286893 #
face $-1 $367 $368 $18 $-1 $369 forward single #
plane-surface $-1 40.885188347490839 -8.6634294423434071 30.64435241719363 0 0.68199836817093118 0.7313536940579346 1 0 0 forward_v I I I I #
coedge $-1 $370 $371 $372 $373 reversed $222 $-1 #
coedge $-1 $302 $302 $-1 $374 forward $224 $-1 #
edge $-1 $375 0 $375 6.2831853071796004 $225 $376 forward 7 unknown #
vertex $-1 $228 $377 #
ellipse-curve $-1 37.865411741434102 16.881206158622469 6.8235938199180488 0 -0.68199836817093118 -0.7313536940579346 1 0 0 1 I I #
vertex $-1 $229 $378 #
point $-1 41.885188347490825 15.563686132267048 5.4107266002286893 #
loop $-1 $-1 $379 $221 #
face $-1 $246 $380 $19 $-1 $381 forward single #
loop $-1 $382 $383 $234 #
cone-surface $-1 37.865411741434102 15.222686948181583 5.0450497531997218 0 -0.68199836817093118 -0.7313536940579346 0.5 0 0 1 I I -0.70710678118654746 0.70710678118654746 0.5 forward I I I I #
loop $-1 $-1 $384 $154 #
coedge $-1 $313 $313 $385 $386 reversed $235 $-1 #
coedge $-1 $314 $314 $-1 $387 forward $237 $-1 #
edge $-1 $388 0 $388 6.2831853071796004 $238 $389 forward 7 unknown #
vertex $-1 $241 $390 #
ellipse-curve $-1 40.885188347490825 16.881206158622469 6.8235938199180488 0 -0.68199836817093118 -0.7313536940579346 1 0 0 1 I I #
vertex $-1 $242 $391 #
point $-1 44.904964953547548 15.563686132267048 5.4107266002286893 #
loop $-1 $392 $385 $246 #
face $-1 $393 $394 $19 $-1 $395 forward single #
plane-surface $-1 40.885188347490839 -8.6634294423434071 30.64435241719363 0 0.68199836817093118 0.7313536940579346 1 0 0 forward_v I I I I #
straight-curve $-1 -45.918149357585378 18.723343661359372 0 0 0 -1 I I #
point $-1 -45.918149357585378 -18.723343661359372 -8.5414148701437398 #
straight-curve $-1 -45.918149357585378 0 -8.5414148701437398 0 1 0 I I #
point $-1 -45.918149357585378 18.723343661359372 -8.5414148701437398 #
face $-1 $-1 $273 $16 $-1 $396 reversed single #
loop $-1 $-1 $344 $264 #
plane-surface $-1 -45.918149357585378 0 0 1 0 0 0 0 -1 forward_v I I I I #
coedge $-1 $397 $335 $346 $398 forward $265 $-1 #
coedge $-1 $399 $267 $397 $400 forward $192 $-1 #
coedge $-1 $267 $399 $343 $401 forward $192 $-1 #
coedge $-1 $272 $337 $267 $334 reversed $273 $-1 #
edge $-1 $402 -18.723343661359372 $403 18.723343661359372 $333 $404 forward 7 unknown #
coedge $-1 $330 $405 $268 $336 reversed $265 $-1 #
edge $-1 $347 -45.918149357585378 $338 45.918149357585378 $335 $406 forward 7 unknown #
coedge $-1 $333 $269 $405 $407 forward $273 $-1 #
vertex $-1 $270 $408 #
straight-curve $-1 45.918149357585378 0 8.5414148701437398 0 1 0 I I #
straight-curve $-1 20.44259417374542 18.723343661359372 5.1057727696923543 1 0 0 I I #
edge $-1 $274 -5.1057727696923543 $402 8.5414148701437398 $272 $409 forward 7 unknown #
point $-1 45.918149357585385 18.723343661359372 5.1057727696923543 #
coedge $-1 $279 $278 $332 $401 reversed $123 $-1 #
coedge $-1 $410 $280 $279 $345 forward $328 $-1 #
edge $-1 $282 -8.5414148701437398 $411 8.5414148701437398 $279 $412 forward 7 unknown #
coedge $-1 $280 $410 $330 $398 reversed $328 $-1 #
vertex $-1 $281 $413 #
straight-curve $-1 -45.918149357585378 0 8.5414148701437398 0 -1 0 I I #
point $-1 -45.918149357585378 18.723343661359372 8.5414148701437398 #
face $-1 $414 $415 $17 $-1 $416 reversed single #
loop $-1 $-1 $417 $284 #
plane-surface $-1 0 0 -8.5414148701437398 0 0 1 1 0 0 forward_v I I I I #
coedge $-1 $287 $418 $419 $420 forward $210 $-1 #
edge $-1 $421 -25.475555183839965 $294 -15.409633163650874 $287 $422 forward 7 unknown #
coedge $-1 $356 $288 $423 $424 reversed $212 $-1 #
coedge $-1 $289 $355 $359 $425 reversed $212 $-1 #
vertex $-1 $425 $426 #
straight-curve $-1 35.852227337396293 -8.6634294423434071 30.64435241719363 0 0.7313536940579346 -0.68199836817093118 I I #
coedge $-1 $427 $291 $356 $425 forward $285 $-1 #
coedge $-1 $291 $428 $293 $363 reversed $285 $-1 #
straight-curve $-1 35.852227337396293 18.723343661359372 48.904584365570855 0 0 -1 I I #
coedge $-1 $418 $293 $429 $430 forward $210 $-1 #
edge $-1 $295 -35.852227337396293 $431 45.918149357585378 $360 $432 forward 7 unknown #
point $-1 35.852227337396293 15.039068655885565 8.5414148701437433 #
point $-1 35.852227337396293 18.723343661359372 8.5414148701437398 #
point $-1 37.865411741434102 14.881687764096117 4.6793729061707543 #
face $-1 $433 $434 $18 $-1 $435 reversed single #
loop $-1 $-1 $436 $299 #
plane-surface $-1 0 0 8.5414148701437398 0 0 1 1 0 0 forward_v I I I I #
coedge $-1 $371 $301 $437 $438 forward $222 $-1 #
coedge $-1 $301 $370 $439 $440 reversed $222 $-1 #
coedge $-1 $441 $436 $301 $373 forward $368 $-1 #
edge $-1 $442 -11.945319554245049 $443 -8.2610445487712418 $372 $444 forward 7 unknown #
edge $-1 $445 1 $445 0 $302 $-1 forward 7 unknown #
vertex $-1 $303 $446 #
ellipse-curve $-1 37.865411741434102 15.563686132267048 5.4107266002286893 0 0.68199836817093118 0.7313536940579346 1 0 0 1 I I #
point $-1 38.865411741434102 16.881206158622469 6.8235938199180506 #
point $-1 40.885188347490825 14.881687764096117 4.6793729061707543 #
coedge $-1 $447 $437 $436 $448 reversed $308 $-1 #
loop $-1 $-1 $449 $309 #
plane-surface $-1 35.852227337396293 53.968776420261229 97.80916873114171 1 0 0 0 -0.68199836817093118 -0.7313536940579346 forward_v I I I I #
loop $-1 $-1 $450 $234 #
coedge $-1 $383 $383 $384 $451 forward $310 $-1 #
coedge $-1 $384 $384 $383 $451 reversed $312 $-1 #
coedge $-1 $385 $385 $313 $386 forward $320 $-1 #
edge $-1 $452 1.2114724657602437e-015 $452 6.2831853071796013 $385 $453 forward 7 unknown #
edge $-1 $454 1 $454 0 $314 $-1 forward 7 unknown #
vertex $-1 $315 $455 #
ellipse-curve $-1 40.885188347490825 15.563686132267048 5.4107266002286893 0 0.68199836817093118 0.7313536940579346 1 0 0 1 I I #
point $-1 41.885188347490825 16.881206158622469 6.8235938199180506 #
point $-1 43.904964953547548 14.881687764096117 4.6793729061707543 #
loop $-1 $-1 $456 $246 #
face $-1 $457 $458 $19 $-1 $459 reversed single #
loop $-1 $-1 $460 $321 #
plane-surface $-1 0 0 8.5414148701437398 0 0 1 1 0 0 forward_v I I I I #
plane-surface $-1 45.918149357585378 0 0 -1 0 0 0 0 1 forward_v I I I I #
coedge $-1 $405 $330 $331 $400 reversed $265 $-1 #
edge $-1 $347 -8.5414148701437398 $461 8.5414148701437398 $346 $462 forward 7 unknown #
coedge $-1 $332 $331 $410 $463 forward $192 $-1 #
edge $-1 $403 -45.918149357585378 $461 45.918149357585378 $397 $464 forward 7 unknown #
edge $-1 $411 -45.918149357585378 $402 45.918149357585378 $343 $465 forward 7 unknown #
vertex $-1 $334 $466 #
vertex $-1 $407 $467 #
straight-curve $-1 45.918149357585378 0 -8.5414148701437398 0 -1 0 I I #
coedge $-1 $335 $397 $337 $407 reversed $265 $-1 #
straight-curve $-1 0 -18.723343661359372 8.5414148701437398 1 0 0 I I #
edge $-1 $338 -8.5414148701437398 $403 8.5414148701437398 $337 $468 forward 7 unknown #
point $-1 45.918149357585378 -18.723343661359372 8.5414148701437398 #
straight-curve $-1 45.918149357585378 18.723343661359372 0 0 0 -1 I I #
coedge $-1 $346 $344 $399 $463 reversed $328 $-1 #
vertex $-1 $401 $469 #
straight-curve $-1 -45.918149357585378 18.723343661359372 0 0 0 -1 I I #
point $-1 -45.918149357585378 -18.723343661359372 8.5414148701437398 #
face $-1 $470 $471 $17 $-1 $472 reversed single #
loop $-1 $-1 $473 $350 #
plane-surface $-1 0 -18.723343661359372 0 0 1 0 0 0 1 forward_v I I I I #
coedge $-1 $474 $475 $476 $477 forward $351 $-1 #
coedge $-1 $353 $362 $478 $479 forward $210 $-1 #
coedge $-1 $480 $423 $353 $420 reversed $481 $-1 #
edge $-1 $482 -18.723343661359372 $421 15.039068655885565 $419 $483 forward 7 unknown #
vertex $-1 $424 $484 #
straight-curve $-1 20.44259417374542 15.03906865588557 8.5414148701437398 -1 0 0 I I #
coedge $-1 $419 $485 $355 $424 forward $481 $-1 #
edge $-1 $486 -23.828972588694185 $421 -18.791362147388401 $423 $487 forward 7 unknown #
edge $-1 $357 15.409633163650874 $486 25.475555183839965 $359 $488 forward 7 unknown #
point $-1 35.852227337396293 18.723343661359372 5.1057727696923543 #
coedge $-1 $489 $359 $485 $490 forward $285 $-1 #
coedge $-1 $360 $489 $491 $492 reversed $285 $-1 #
coedge $-1 $491 $493 $362 $430 reversed $471 $-1 #
edge $-1 $431 -18.723343661359372 $494 18.723343661359372 $429 $495 forward 7 unknown #
vertex $-1 $363 $496 #
straight-curve $-1 0 18.723343661359372 8.5414148701437398 -1 0 0 I I #
face $-1 $497 $498 $18 $-1 $499 reversed single #
loop $-1 $-1 $439 $367 #
plane-surface $-1 0 18.723343661359372 0 0 -1 0 0 0 -1 forward_v I I I I #
coedge $-1 $372 $500 $379 $448 forward $368 $-1 #
coedge $-1 $379 $501 $370 $438 reversed $308 $-1 #
edge $-1 $442 32.409076881412958 $502 37.446687322718745 $370 $503 forward 7 unknown #
coedge $-1 $504 $505 $371 $440 forward $434 $-1 #
edge $-1 $443 40.363169495427115 $502 43.798811595878504 $439 $506 forward 7 unknown #
coedge $-1 $507 $372 $505 $508 forward $368 $-1 #
vertex $-1 $448 $509 #
vertex $-1 $508 $510 #
straight-curve $-1 35.852227337396293 26.984388210130614 8.5414148701437398 0 1 0 I I #
vertex $-1 $374 $511 #
point $-1 38.865411741434102 15.563686132267048 5.4107266002286893 #
coedge $-1 $501 $379 $512 $513 reversed $308 $-1 #
edge $-1 $514 -25.475555183839965 $442 -15.409633163650874 $436 $515 forward 7 unknown #
coedge $-1 $516 $517 $518 $519 reversed $380 $-1 #
coedge $-1 $450 $450 $-1 $520 forward $382 $-1 #
edge $-1 $521 0 $521 6.2831853071796004 $383 $522 forward 7 unknown #
vertex $-1 $386 $523 #
ellipse-curve $-1 37.865411741434102 16.881206158622469 6.8235938199180488 0 -0.68199836817093118 -0.7313536940579346 1 0 0 1 I I #
vertex $-1 $387 $524 #
point $-1 41.885188347490825 15.563686132267048 5.4107266002286893 #
coedge $-1 $525 $526 $460 $527 reversed $392 $-1 #
face $-1 $528 $529 $19 $-1 $530 reversed single #
loop $-1 $-1 $531 $393 #
plane-surface $-1 0 18.723343661359372 0 0 -1 0 0 0 -1 forward_v I I I I #
coedge $-1 $518 $532 $456 $527 forward $394 $-1 #
vertex $-1 $463 $533 #
straight-curve $-1 -45.918149357585378 -18.723343661359372 0 0 0 -1 I I #
edge $-1 $461 -18.723343661359372 $411 18.723343661359372 $410 $534 forward 7 unknown #
straight-curve $-1 0 -18.723343661359372 -8.5414148701437398 -1 0 0 I I #
straight-curve $-1 0 18.723343661359372 -8.5414148701437398 1 0 0 I I #
point $-1 45.918149357585378 18.723343661359372 -8.5414148701437398 #
point $-1 45.918149357585378 -18.723343661359372 -8.5414148701437398 #
straight-curve $-1 45.918149357585378 -18.723343661359372 0 0 0 -1 I I #
point $-1 -45.918149357585378 18.723343661359372 -8.5414148701437398 #
face $-1 $-1 $481 $17 $-1 $535 reversed single #
loop $-1 $-1 $491 $414 #
plane-surface $-1 -45.918149357585378 0 0 1 0 0 0 0 -1 forward_v I I I I #
coedge $-1 $536 $478 $493 $537 forward $415 $-1 #
coedge $-1 $538 $417 $536 $539 forward $351 $-1 #
coedge $-1 $417 $538 $489 $540 forward $351 $-1 #
coedge $-1 $485 $480 $417 $477 reversed $481 $-1 #
edge $-1 $541 -18.723343661359372 $542 18.723343661359372 $476 $543 forward 7 unknown #
coedge $-1 $473 $544 $418 $479 reversed $415 $-1 #
edge $-1 $494 -45.918149357585378 $482 45.918149357585378 $478 $545 forward 7 unknown #
coedge $-1 $476 $419 $544 $546 forward $481 $-1 #
loop $-1 $-1 $423 $470 #
vertex $-1 $420 $547 #
straight-curve $-1 45.918149357585378 0 8.5414148701437398 0 1 0 I I #
point $-1 45.918149357585385 15.039068655885565 8.5414148701437433 #
coedge $-1 $423 $476 $427 $490 reversed $481 $-1 #
vertex $-1 $490 $548 #
straight-curve $-1 45.918149357585378 1.2959365330126156 21.357093190371639 0 -0.7313536940579346 0.68199836817093118 I I #
straight-curve $-1 20.44259417374542 18.723343661359372 5.1057727696923543 1 0 0 I I #
coedge $-1 $428 $427 $475 $540 reversed $285 $-1 #
edge $-1 $486 -5.1057727696923543 $541 8.5414148701437398 $485 $549 forward 7 unknown #
coedge $-1 $550 $429 $428 $492 forward $471 $-1 #
edge $-1 $431 -8.5414148701437398 $551 8.5414148701437398 $428 $552 forward 7 unknown #
coedge $-1 $429 $550 $473 $537 reversed $471 $-1 #
vertex $-1 $430 $553 #
straight-curve $-1 -45.918149357585378 0 8.5414148701437398 0 -1 0 I I #
point $-1 -45.918149357585378 18.723343661359372 8.5414148701437398 #
face $-1 $554 $555 $18 $-1 $556 reversed single #
loop $-1 $-1 $557 $433 #
plane-surface $-1 0 0 -8.5414148701437398 0 0 1 1 0 0 forward_v I I I I #
coedge $-1 $436 $558 $559 $560 forward $368 $-1 #
coedge $-1 $437 $447 $504 $561 reversed $308 $-1 #
vertex $-1 $561 $562 #
straight-curve $-1 35.852227337396293 -8.6634294423434071 30.64435241719363 0 0.7313536940579346 -0.68199836817093118 I I #
coedge $-1 $563 $439 $501 $561 forward $434 $-1 #
coedge $-1 $439 $564 $441 $508 reversed $434 $-1 #
straight-curve $-1 35.852227337396293 18.723343661359372 48.904584365570855 0 0 -1 I I #
coedge $-1 $558 $441 $565 $566 forward $368 $-1 #
edge $-1 $443 -35.852227337396293 $567 45.918149357585378 $505 $568 forward 7 unknown #
point $-1 35.852227337396293 15.039068655885565 8.5414148701437433 #
point $-1 35.852227337396293 18.723343661359372 8.5414148701437398 #
point $-1 37.865411741434102 14.881687764096117 4.6793729061707543 #
coedge $-1 $559 $569 $447 $513 forward $570 $-1 #
edge $-1 $571 -23.828972588694185 $514 -18.791362147388401 $512 $572 forward 7 unknown #
vertex $-1 $513 $573 #
straight-curve $-1 20.44259417374542 15.03906865588557 8.5414148701437398 -1 0 0 I I #
coedge $-1 $517 $449 $526 $574 forward $380 $-1 #
coedge $-1 $449 $516 $531 $575 reversed $380 $-1 #
coedge $-1 $576 $460 $449 $519 forward $394 $-1 #
edge $-1 $577 -11.945319554245049 $578 -8.2610445487712418 $518 $579 forward 7 unknown #
edge $-1 $580 1 $580 0 $450 $-1 forward 7 unknown #
vertex $-1 $451 $581 #
ellipse-curve $-1 37.865411741434102 15.563686132267048 5.4107266002286893 0 0.68199836817093118 0.7313536940579346 1 0 0 1 I I #
point $-1 38.865411741434102 16.881206158622469 6.8235938199180506 #
point $-1 40.885188347490825 14.881687764096117 4.6793729061707543 #
coedge $-1 $582 $456 $583 $584 reversed $392 $-1 #
coedge $-1 $456 $582 $516 $574 reversed $392 $-1 #
edge $-1 $585 -25.475555183839965 $577 -15.409633163650874 $460 $586 forward 7 unknown #
face $-1 $587 $588 $19 $-1 $589 reversed single #
loop $-1 $-1 $590 $457 #
plane-surface $-1 0 0 -8.5414148701437398 0 0 1 1 0 0 forward_v I I I I #
coedge $-1 $591 $592 $517 $575 forward $458 $-1 #
coedge $-1 $460 $593 $594 $595 forward $394 $-1 #
point $-1 -45.918149357585378 -18.723343661359372 -8.5414148701437398 #
straight-curve $-1 -45.918149357585378 0 -8.5414148701437398 0 1 0 I I #
plane-surface $-1 45.918149357585378 0 0 -1 0 0 0 0 1 forward_v I I I I #
coedge $-1 $544 $473 $474 $539 reversed $415 $-1 #
edge $-1 $494 -8.5414148701437398 $596 8.5414148701437398 $493 $597 forward 7 unknown #
coedge $-1 $475 $474 $550 $598 forward $351 $-1 #
edge $-1 $542 -45.918149357585378 $596 45.918149357585378 $536 $599 forward 7 unknown #
edge $-1 $551 -45.918149357585378 $541 45.918149357585378 $489 $600 forward 7 unknown #
vertex $-1 $477 $601 #
vertex $-1 $546 $602 #
straight-curve $-1 45.918149357585378 0 -8.5414148701437398 0 -1 0 I I #
coedge $-1 $478 $536 $480 $546 reversed $415 $-1 #
straight-curve $-1 0 -18.723343661359372 8.5414148701437398 1 0 0 I I #
edge $-1 $482 -8.5414148701437398 $542 8.5414148701437398 $480 $603 forward 7 unknown #
point $-1 45.918149357585378 -18.723343661359372 8.5414148701437398 #
point $-1 45.918149357585385 18.723343661359372 5.1057727696923543 #
straight-curve $-1 45.918149357585378 18.723343661359372 0 0 0 -1 I I #
coedge $-1 $493 $491 $538 $598 reversed $471 $-1 #
vertex $-1 $540 $604 #
straight-curve $-1 -45.918149357585378 18.723343661359372 0 0 0 -1 I I #
point $-1 -45.918149357585378 -18.723343661359372 8.5414148701437398 #
face $-1 $605 $606 $18 $-1 $607 reversed single #
loop $-1 $-1 $608 $497 #
plane-surface $-1 0 -18.723343661359372 0 0 1 0 0 0 1 forward_v I I I I #
coedge $-1 $609 $610 $611 $612 forward $498 $-1 #
coedge $-1 $500 $507 $613 $614 forward $368 $-1 #
coedge $-1 $615 $512 $500 $560 reversed $570 $-1 #
edge $-1 $616 -18.723343661359372 $514 15.039068655885565 $559 $617 forward 7 unknown #
edge $-1 $502 15.409633163650874 $571 25.475555183839965 $504 $618 forward 7 unknown #
point $-1 35.852227337396293 18.723343661359372 5.1057727696923543 #
coedge $-1 $619 $504 $569 $620 forward $434 $-1 #
coedge $-1 $505 $619 $621 $622 reversed $434 $-1 #
coedge $-1 $621 $623 $507 $566 reversed $606 $-1 #
edge $-1 $567 -18.723343661359372 $624 18.723343661359372 $565 $625 forward 7 unknown #
vertex $-1 $508 $626 #
straight-curve $-1 0 18.723343661359372 8.5414148701437398 -1 0 0 I I #
coedge $-1 $512 $611 $563 $620 reversed $570 $-1 #
loop $-1 $-1 $512 $605 #
vertex $-1 $620 $627 #
straight-curve $-1 45.918149357585378 1.2959365330126156 21.357093190371639 0 -0.7313536940579346 0.68199836817093118 I I #
point $-1 45.918149357585385 15.039068655885565 8.5414148701437433 #
edge $-1 $577 32.409076881412958 $628 37.446687322718745 $516 $629 forward 7 unknown #
edge $-1 $578 40.363169495427115 $628 43.798811595878504 $531 $630 forward 7 unknown #
coedge $-1 $631 $518 $592 $632 forward $394 $-1 #
vertex $-1 $527 $633 #
vertex $-1 $632 $634 #
straight-curve $-1 35.852227337396293 26.984388210130614 8.5414148701437398 0 1 0 I I #
vertex $-1 $520 $635 #
point $-1 38.865411741434102 15.563686132267048 5.4107266002286893 #
coedge $-1 $526 $525 $591 $636 reversed $392 $-1 #
coedge $-1 $594 $637 $525 $584 forward $638 $-1 #
edge $-1 $639 -23.828972588694185 $585 -18.791362147388401 $583 $640 forward 7 unknown #
vertex $-1 $584 $641 #
straight-curve $-1 20.44259417374542 15.03906865588557 8.5414148701437398 -1 0 0 I I #
face $-1 $642 $643 $19 $-1 $644 reversed single #
loop $-1 $-1 $645 $528 #
plane-surface $-1 0 -18.723343661359372 0 0 1 0 0 0 1 forward_v I I I I #
coedge $-1 $646 $647 $648 $649 forward $529 $-1 #
coedge $-1 $650 $531 $582 $636 forward $458 $-1 #
coedge $-1 $531 $651 $576 $632 reversed $458 $-1 #
coedge $-1 $532 $631 $652 $653 forward $394 $-1 #
coedge $-1 $654 $583 $532 $595 reversed $638 $-1 #
edge $-1 $655 -18.723343661359372 $585 15.039068655885565 $594 $656 forward 7 unknown #
vertex $-1 $598 $657 #
straight-curve $-1 -45.918149357585378 -18.723343661359372 0 0 0 -1 I I #
edge $-1 $596 -18.723343661359372 $551 18.723343661359372 $550 $658 forward 7 unknown #
straight-curve $-1 0 -18.723343661359372 -8.5414148701437398 -1 0 0 I I #
straight-curve $-1 0 18.723343661359372 -8.5414148701437398 1 0 0 I I #
point $-1 45.918149357585378 18.723343661359372 -8.5414148701437398 #
point $-1 45.918149357585378 -18.723343661359372 -8.5414148701437398 #
straight-curve $-1 45.918149357585378 -18.723343661359372 0 0 0 -1 I I #
point $-1 -45.918149357585378 18.723343661359372 -8.5414148701437398 #
face $-1 $-1 $570 $18 $-1 $659 reversed single #
loop $-1 $-1 $621 $554 #
plane-surface $-1 -45.918149357585378 0 0 1 0 0 0 0 -1 forward_v I I I I #
coedge $-1 $660 $613 $623 $661 forward $555 $-1 #
coedge $-1 $662 $557 $660 $663 forward $498 $-1 #
coedge $-1 $557 $662 $619 $664 forward $498 $-1 #
coedge $-1 $569 $615 $557 $612 reversed $570 $-1 #
edge $-1 $665 -18.723343661359372 $666 18.723343661359372 $611 $667 forward 7 unknown #
coedge $-1 $608 $668 $558 $614 reversed $555 $-1 #
edge $-1 $624 -45.918149357585378 $616 45.918149357585378 $613 $669 forward 7 unknown #
coedge $-1 $611 $559 $668 $670 forward $570 $-1 #
vertex $-1 $560 $671 #
straight-curve $-1 45.918149357585378 0 8.5414148701437398 0 1 0 I I #
straight-curve $-1 20.44259417374542 18.723343661359372 5.1057727696923543 1 0 0 I I #
coedge $-1 $564 $563 $610 $664 reversed $434 $-1 #
edge $-1 $571 -5.1057727696923543 $665 8.5414148701437398 $569 $672 forward 7 unknown #
coedge $-1 $673 $565 $564 $622 forward $606 $-1 #
edge $-1 $567 -8.5414148701437398 $674 8.5414148701437398 $564 $675 forward 7 unknown #
coedge $-1 $565 $673 $608 $661 reversed $606 $-1 #
vertex $-1 $566 $676 #
straight-curve $-1 -45.918149357585378 0 8.5414148701437398 0 -1 0 I I #
point $-1 -45.918149357585378 18.723343661359372 8.5414148701437398 #
point $-1 45.918149357585385 18.723343661359372 5.1057727696923543 #
vertex $-1 $636 $677 #
straight-curve $-1 35.852227337396293 -8.6634294423434071 30.64435241719363 0 0.7313536940579346 -0.68199836817093118 I I #
straight-curve $-1 35.852227337396293 18.723343661359372 48.904584365570855 0 0 -1 I I #
coedge $-1 $593 $576 $678 $679 forward $394 $-1 #
edge $-1 $578 -35.852227337396293 $680 45.918149357585378 $592 $681 forward 7 unknown #
point $-1 35.852227337396293 15.039068655885565 8.5414148701437433 #
point $-1 35.852227337396293 18.723343661359372 8.5414148701437398 #
point $-1 37.865411741434102 14.881687764096117 4.6793729061707543 #
edge $-1 $628 15.409633163650874 $639 25.475555183839965 $591 $682 forward 7 unknown #
coedge $-1 $583 $648 $650 $683 reversed $638 $-1 #
loop $-1 $-1 $583 $642 #
vertex $-1 $683 $684 #
straight-curve $-1 45.918149357585378 1.2959365330126156 21.357093190371639 0 -0.7313536940579346 0.68199836817093118 I I #
point $-1 45.918149357585385 15.039068655885565 8.5414148701437433 #
face $-1 $-1 $638 $19 $-1 $685 reversed single #
loop $-1 $-1 $686 $587 #
plane-surface $-1 -45.918149357585378 0 0 1 0 0 0 0 -1 forward_v I I I I #
coedge $-1 $687 $652 $688 $689 forward $588 $-1 #
coedge $-1 $690 $590 $687 $691 forward $529 $-1 #
coedge $-1 $590 $690 $692 $693 forward $529 $-1 #
coedge $-1 $637 $654 $590 $649 reversed $638 $-1 #
edge $-1 $694 -18.723343661359372 $695 18.723343661359372 $648 $696 forward 7 unknown #
coedge $-1 $692 $591 $637 $683 forward $458 $-1 #
coedge $-1 $592 $692 $686 $697 reversed $458 $-1 #
coedge $-1 $645 $698 $593 $653 reversed $588 $-1 #
edge $-1 $699 -45.918149357585378 $655 45.918149357585378 $652 $700 forward 7 unknown #
coedge $-1 $648 $594 $698 $701 forward $638 $-1 #
vertex $-1 $595 $702 #
straight-curve $-1 45.918149357585378 0 8.5414148701437398 0 1 0 I I #
point $-1 -45.918149357585378 -18.723343661359372 -8.5414148701437398 #
straight-curve $-1 -45.918149357585378 0 -8.5414148701437398 0 1 0 I I #
plane-surface $-1 45.918149357585378 0 0 -1 0 0 0 0 1 forward_v I I I I #
coedge $-1 $668 $608 $609 $663 reversed $555 $-1 #
edge $-1 $624 -8.5414148701437398 $703 8.5414148701437398 $623 $704 forward 7 unknown #
coedge $-1 $610 $609 $673 $705 forward $498 $-1 #
edge $-1 $666 -45.918149357585378 $703 45.918149357585378 $660 $706 forward 7 unknown #
edge $-1 $674 -45.918149357585378 $665 45.918149357585378 $619 $707 forward 7 unknown #
vertex $-1 $612 $708 #
vertex $-1 $670 $709 #
straight-curve $-1 45.918149357585378 0 -8.5414148701437398 0 -1 0 I I #
coedge $-1 $613 $660 $615 $670 reversed $555 $-1 #
straight-curve $-1 0 -18.723343661359372 8.5414148701437398 1 0 0 I I #
edge $-1 $616 -8.5414148701437398 $666 8.5414148701437398 $615 $710 forward 7 unknown #
point $-1 45.918149357585378 -18.723343661359372 8.5414148701437398 #
straight-curve $-1 45.918149357585378 18.723343661359372 0 0 0 -1 I I #
coedge $-1 $623 $621 $662 $705 reversed $606 $-1 #
vertex $-1 $664 $711 #
straight-curve $-1 -45.918149357585378 18.723343661359372 0 0 0 -1 I I #
point $-1 -45.918149357585378 -18.723343661359372 8.5414148701437398 #
point $-1 35.852227337396293 18.723343661359372 5.1057727696923543 #
coedge $-1 $686 $688 $631 $679 reversed $643 $-1 #
edge $-1 $680 -18.723343661359372 $699 18.723343661359372 $678 $712 forward 7 unknown #
vertex $-1 $632 $713 #
straight-curve $-1 0 18.723343661359372 8.5414148701437398 -1 0 0 I I #
straight-curve $-1 20.44259417374542 18.723343661359372 5.1057727696923543 1 0 0 I I #
edge $-1 $639 -5.1057727696923543 $694 8.5414148701437398 $637 $714 forward 7 unknown #
point $-1 45.918149357585385 18.723343661359372 5.1057727696923543 #
plane-surface $-1 45.918149357585378 0 0 -1 0 0 0 0 1 forward_v I I I I #
coedge $-1 $715 $678 $651 $697 forward $643 $-1 #
coedge $-1 $698 $645 $646 $691 reversed $588 $-1 #
coedge $-1 $678 $715 $645 $689 reversed $643 $-1 #
edge $-1 $699 -8.5414148701437398 $716 8.5414148701437398 $688 $717 forward 7 unknown #
coedge $-1 $647 $646 $715 $718 forward $529 $-1 #
edge $-1 $695 -45.918149357585378 $716 45.918149357585378 $687 $719 forward 7 unknown #
coedge $-1 $651 $650 $647 $693 reversed $458 $-1 #
edge $-1 $720 -45.918149357585378 $694 45.918149357585378 $692 $721 forward 7 unknown #
vertex $-1 $649 $722 #
vertex $-1 $701 $723 #
straight-curve $-1 45.918149357585378 0 -8.5414148701437398 0 -1 0 I I #
edge $-1 $680 -8.5414148701437398 $720 8.5414148701437398 $651 $724 forward 7 unknown #
coedge $-1 $652 $687 $654 $701 reversed $588 $-1 #
vertex $-1 $679 $725 #
straight-curve $-1 0 -18.723343661359372 8.5414148701437398 1 0 0 I I #
edge $-1 $655 -8.5414148701437398 $695 8.5414148701437398 $654 $726 forward 7 unknown #
point $-1 45.918149357585378 -18.723343661359372 8.5414148701437398 #
vertex $-1 $705 $727 #
straight-curve $-1 -45.918149357585378 -18.723343661359372 0 0 0 -1 I I #
edge $-1 $703 -18.723343661359372 $674 18.723343661359372 $673 $728 forward 7 unknown #
straight-curve $-1 0 -18.723343661359372 -8.5414148701437398 -1 0 0 I I #
straight-curve $-1 0 18.723343661359372 -8.5414148701437398 1 0 0 I I #
point $-1 45.918149357585378 18.723343661359372 -8.5414148701437398 #
point $-1 45.918149357585378 -18.723343661359372 -8.5414148701437398 #
straight-curve $-1 45.918149357585378 -18.723343661359372 0 0 0 -1 I I #
point $-1 -45.918149357585378 18.723343661359372 -8.5414148701437398 #
straight-curve $-1 -45.918149357585378 0 8.5414148701437398 0 -1 0 I I #
point $-1 -45.918149357585378 18.723343661359372 8.5414148701437398 #
straight-curve $-1 45.918149357585378 18.723343661359372 0 0 0 -1 I I #
coedge $-1 $688 $686 $690 $718 reversed $643 $-1 #
vertex $-1 $718 $729 #
straight-curve $-1 -45.918149357585378 -18.723343661359372 0 0 0 -1 I I #
edge $-1 $716 -18.723343661359372 $720 18.723343661359372 $715 $730 forward 7 unknown #
straight-curve $-1 0 -18.723343661359372 -8.5414148701437398 -1 0 0 I I #
vertex $-1 $693 $731 #
straight-curve $-1 0 18.723343661359372 -8.5414148701437398 1 0 0 I I #
point $-1 45.918149357585378 18.723343661359372 -8.5414148701437398 #
point $-1 45.918149357585378 -18.723343661359372 -8.5414148701437398 #
straight-curve $-1 -45.918149357585378 18.723343661359372 0 0 0 -1 I I #
point $-1 -45.918149357585378 -18.723343661359372 8.5414148701437398 #
straight-curve $-1 45.918149357585378 -18.723343661359372 0 0 0 -1 I I #
point $-1 -45.918149357585378 -18.723343661359372 -8.5414148701437398 #
straight-curve $-1 -45.918149357585378 0 -8.5414148701437398 0 1 0 I I #
point $-1 -45.918149357585378 -18.723343661359372 -8.5414148701437398 #
straight-curve $-1 -45.918149357585378 0 -8.5414148701437398 0 1 0 I I #
point $-1 -45.918149357585378 18.723343661359372 -8.5414148701437398 #
End-of-ACIS-data 