500 0 9 0           
7 Unknown 11 ACIS 5.0 NT 24 Fri Mar 26 14:42:02 1999 
-1 9.9999999999999995e-007 1e-010 
body $-1 $9 $-1 $10 #
body $-1 $11 $-1 $12 #
body $-1 $13 $-1 $14 #
body $-1 $15 $-1 $16 #
body $-1 $17 $-1 $18 #
body $-1 $19 $-1 $20 #
body $-1 $21 $-1 $22 #
body $-1 $23 $-1 $24 #
body $-1 $25 $-1 $26 #
lump $-1 $-1 $27 $0 #
transform $-1 1 0 0 0 1 0 0 0 1 61.875667592394791 24.802952089780202 8.3968366811710506 1 rotate no_reflect no_shear #
lump $-1 $-1 $28 $1 #
transform $-1 1 0 0 0 1 0 0 0 1 61.875667592394791 24.802952089780202 8.3968366811710506 1 rotate no_reflect no_shear #
lump $-1 $-1 $29 $2 #
transform $-1 1 0 0 0 1 0 0 0 1 61.875667592394791 24.802952089780202 8.3968366811710506 1 rotate no_reflect no_shear #
lump $-1 $-1 $30 $3 #
transform $-1 1 0 0 0 1 0 0 0 1 61.875667592394791 24.802952089780202 8.3968366811710506 1 rotate no_reflect no_shear #
lump $-1 $-1 $31 $4 #
transform $-1 1 0 0 0 1 0 0 0 1 61.875667592394791 24.802952089780202 8.3968366811710506 1 rotate no_reflect no_shear #
lump $-1 $-1 $32 $5 #
transform $-1 1 0 0 0 1 0 0 0 1 61.875667592394791 24.802952089780202 8.3968366811710506 1 rotate no_reflect no_shear #
lump $-1 $-1 $33 $6 #
transform $-1 1 0 0 0 1 0 0 0 1 61.875667592394791 24.802952089780202 8.3968366811710506 1 rotate no_reflect no_shear #
lump $-1 $-1 $34 $7 #
transform $-1 1 0 0 0 1 0 0 0 1 61.875667592394791 24.802952089780202 8.3968366811710506 1 rotate no_reflect no_shear #
lump $-1 $-1 $35 $8 #
transform $-1 1 0 0 0 1 0 0 0 1 61.875667592394791 24.802952089780202 8.3968366811710506 1 rotate no_reflect no_shear #
shell $-1 $-1 $-1 $36 $-1 $9 #
shell $-1 $-1 $-1 $37 $-1 $11 #
shell $-1 $-1 $-1 $38 $-1 $13 #
shell $-1 $-1 $-1 $39 $-1 $15 #
shell $-1 $-1 $-1 $40 $-1 $17 #
shell $-1 $-1 $-1 $41 $-1 $19 #
shell $-1 $-1 $-1 $42 $-1 $21 #
shell $-1 $-1 $-1 $43 $-1 $23 #
shell $-1 $-1 $-1 $44 $-1 $25 #
face $-1 $45 $46 $27 $-1 $47 forward single #
face $-1 $48 $49 $28 $-1 $50 reversed single #
face $-1 $51 $52 $29 $-1 $53 forward single #
face $-1 $54 $55 $30 $-1 $56 reversed single #
face $-1 $57 $58 $31 $-1 $59 forward single #
face $-1 $60 $61 $32 $-1 $62 forward single #
face $-1 $63 $64 $33 $-1 $65 reversed single #
face $-1 $66 $67 $34 $-1 $68 forward single #
face $-1 $69 $70 $35 $-1 $71 forward single #
face $-1 $72 $73 $27 $-1 $74 reversed single #
loop $-1 $-1 $75 $36 #
plane-surface $-1 0 0 8.3968366811710506 0 0 1 1 0 0 forward_v I I I I #
face $-1 $76 $77 $28 $-1 $78 reversed single #
loop $-1 $-1 $79 $37 #
plane-surface $-1 -48.081994230052686 -20.00377822880008 0 1 0 0 0 0 -1 forward_v I I I I #
face $-1 $80 $81 $29 $-1 $82 reversed single #
loop $-1 $-1 $83 $38 #
plane-surface $-1 0 21.389467694818652 -5.3968366811710506 0 0 1 1 0 0 forward_v I I I I #
face $-1 $84 $85 $30 $-1 $86 reversed single #
loop $-1 $-1 $87 $39 #
plane-surface $-1 37.518871200721108 17.975983299857109 177.96313020251316 0 -1 0 -0.6018150307709319 0 -0.79863550430605224 forward_v I I I I #
face $-1 $88 $89 $31 $-1 $90 forward single #
loop $-1 $91 $92 $40 #
cone-surface $-1 58.240190127069056 12.535145248499642 4.9960609019403304 -0.6018150307709319 0 -0.79863550430605224 0.79863550430605224 0 -0.6018150307709319 1 I I 0 1 1 forward I I I I #
face $-1 $93 $94 $32 $-1 $95 forward single #
loop $-1 $96 $97 $41 #
cone-surface $-1 58.240190127069056 15.799648079314121 4.9960609019403304 -0.6018150307709319 0 -0.79863550430605224 0.79863550430605224 0 -0.6018150307709319 1 I I 0 1 1 forward I I I I #
face $-1 $98 $99 $33 $-1 $100 reversed single #
loop $-1 $-1 $101 $42 #
plane-surface $-1 -136.35108118457285 10.358810027956654 103.48771661033511 0 1 0 -0.6018150307709319 0 0.79863550430605224 forward_v I I I I #
face $-1 $102 $103 $34 $-1 $104 forward single #
loop $-1 $105 $106 $43 #
cone-surface $-1 -58.240190127069056 12.535145248499642 4.9960609019403321 0.6018150307709319 0 -0.79863550430605224 0.79863550430605224 0 0.6018150307709319 1 I I 0 1 1 forward I I I I #
face $-1 $107 $108 $35 $-1 $109 forward single #
loop $-1 $110 $111 $44 #
cone-surface $-1 -58.240190127069056 15.799648079314121 4.9960609019403321 0.6018150307709319 0 -0.79863550430605224 0.79863550430605224 0 0.6018150307709319 1 I I 0 1 1 forward I I I I #
face $-1 $112 $113 $27 $-1 $114 reversed single #
loop $-1 $-1 $115 $45 #
plane-surface $-1 0 0 -8.3968366811710506 0 0 1 1 0 0 forward_v I I I I #
coedge $-1 $116 $117 $118 $119 forward $46 $-1 #
face $-1 $120 $121 $28 $-1 $122 reversed single #
loop $-1 $-1 $123 $48 #
plane-surface $-1 -46.581994230052686 -15.204604367819957 0 0 -1 0 0 0 -1 forward_v I I I I #
coedge $-1 $124 $125 $126 $127 forward $49 $-1 #
face $-1 $128 $129 $29 $-1 $130 reversed single #
loop $-1 $-1 $131 $51 #
plane-surface $-1 0 17.975983299857106 -6.8968366811710506 0 1 0 0 0 1 forward_v I I I I #
coedge $-1 $132 $133 $134 $135 reversed $52 $-1 #
face $-1 $136 $137 $30 $-1 $138 reversed single #
loop $-1 $-1 $139 $54 #
plane-surface $-1 -36.956542391456935 14.167396663906882 79.130920218661416 0.6018150307709319 0 0.79863550430605224 0.79863550430605224 0 -0.6018150307709319 forward_v I I I I #
coedge $-1 $140 $141 $142 $143 reversed $55 $-1 #
face $-1 $-1 $144 $31 $-1 $145 forward single #
loop $-1 $146 $147 $57 #
cone-surface $-1 56.786261434607482 12.535145248499642 3.0666323979004222 -0.6018150307709319 0 -0.79863550430605224 0.39931775215302612 0 -0.30090751538546595 1 I I -0.70710678118654746 0.70710678118654746 0.5 forward I I I I #
loop $-1 $-1 $148 $40 #
coedge $-1 $92 $92 $149 $150 reversed $58 $-1 #
face $-1 $-1 $151 $32 $-1 $152 forward single #
loop $-1 $153 $154 $60 #
cone-surface $-1 56.786261434607482 15.799648079314121 3.0666323979004222 -0.6018150307709319 0 -0.79863550430605224 0.39931775215302612 0 -0.30090751538546595 1 I I -0.70710678118654746 0.70710678118654746 0.5 forward I I I I #
loop $-1 $-1 $155 $41 #
coedge $-1 $97 $97 $156 $157 reversed $61 $-1 #
face $-1 $158 $159 $33 $-1 $160 reversed single #
loop $-1 $-1 $161 $63 #
plane-surface $-1 -61.875667592394805 14.167396663906882 4.6555066264833727 -0.6018150307709319 0 0.79863550430605224 0.79863550430605224 0 0.6018150307709319 forward_v I I I I #
coedge $-1 $162 $163 $164 $165 reversed $64 $-1 #
face $-1 $-1 $166 $34 $-1 $167 forward single #
loop $-1 $168 $169 $66 #
cone-surface $-1 -56.786261434607482 12.535145248499642 3.066632397900424 0.6018150307709319 0 -0.79863550430605224 0.39931775215302612 0 0.30090751538546595 1 I I -0.70710678118654746 0.70710678118654746 0.5 forward I I I I #
loop $-1 $-1 $170 $43 #
coedge $-1 $106 $106 $171 $172 reversed $67 $-1 #
face $-1 $-1 $173 $35 $-1 $174 forward single #
loop $-1 $175 $176 $69 #
cone-surface $-1 -56.786261434607482 15.799648079314121 3.066632397900424 0.6018150307709319 0 -0.79863550430605224 0.39931775215302612 0 0.30090751538546595 1 I I -0.70710678118654746 0.70710678118654746 0.5 forward I I I I #
loop $-1 $-1 $177 $44 #
coedge $-1 $111 $111 $178 $179 reversed $70 $-1 #
face $-1 $180 $181 $27 $-1 $182 reversed single #
loop $-1 $-1 $183 $72 #
plane-surface $-1 0 -24.802952089780202 0 0 1 0 0 0 1 forward_v I I I I #
coedge $-1 $184 $185 $186 $187 forward $73 $-1 #
coedge $-1 $188 $75 $189 $190 forward $46 $-1 #
coedge $-1 $75 $188 $191 $192 forward $46 $-1 #
coedge $-1 $193 $194 $75 $119 reversed $195 $-1 #
edge $-1 $196 -24.802952089780202 $197 24.802952089780202 $118 $198 forward 7 unknown #
face $-1 $199 $200 $28 $-1 $201 forward single #
loop $-1 $-1 $202 $76 #
plane-surface $-1 -45.081994230052686 -20.00377822880008 0 -1 0 0 0 0 1 forward_v I I I I #
coedge $-1 $203 $204 $205 $206 forward $77 $-1 #
coedge $-1 $207 $79 $208 $209 reversed $49 $-1 #
coedge $-1 $79 $207 $210 $211 reversed $49 $-1 #
coedge $-1 $204 $203 $79 $127 reversed $77 $-1 #
edge $-1 $212 -8.3968366811710506 $213 8.3968366811710506 $126 $214 forward 7 unknown #
face $-1 $215 $216 $29 $-1 $217 reversed single #
loop $-1 $-1 $218 $80 #
plane-surface $-1 0 24.802952089780202 0 0 -1 0 0 0 -1 forward_v I I I I #
coedge $-1 $219 $220 $221 $222 reversed $81 $-1 #
coedge $-1 $223 $83 $218 $224 reversed $52 $-1 #
coedge $-1 $83 $223 $220 $225 forward $52 $-1 #
coedge $-1 $226 $227 $83 $135 forward $216 $-1 #
edge $-1 $228 -14.108218242370873 $229 -7.2812494524477795 $134 $230 forward 7 unknown #
face $-1 $231 $232 $30 $-1 $233 reversed single #
loop $-1 $-1 $234 $84 #
plane-surface $-1 37.518871200721108 10.358810027956654 177.96313020251316 0 1 0 0.6018150307709319 0 0.79863550430605224 forward_v I I I I #
coedge $-1 $235 $236 $237 $238 reversed $85 $-1 #
coedge $-1 $141 $87 $239 $240 reversed $55 $-1 #
coedge $-1 $87 $140 $235 $241 reversed $55 $-1 #
coedge $-1 $237 $242 $87 $143 forward $243 $-1 #
edge $-1 $244 -43.116231992034237 $245 -38.151319415534992 $142 $246 forward 7 unknown #
loop $-1 $-1 $149 $88 #
plane-surface $-1 -36.956542391456935 14.167396663906882 79.130920218661416 0.6018150307709319 0 0.79863550430605224 0.79863550430605224 0 -0.6018150307709319 forward_v I I I I #
loop $-1 $-1 $247 $57 #
coedge $-1 $147 $147 $148 $248 reversed $89 $-1 #
coedge $-1 $148 $148 $147 $248 forward $91 $-1 #
coedge $-1 $149 $149 $92 $150 forward $144 $-1 #
edge $-1 $249 0 $249 6.2831853071796004 $149 $250 forward 7 unknown #
loop $-1 $-1 $156 $93 #
plane-surface $-1 -36.956542391456935 14.167396663906882 79.130920218661416 0.6018150307709319 0 0.79863550430605224 0.79863550430605224 0 -0.6018150307709319 forward_v I I I I #
loop $-1 $-1 $251 $60 #
coedge $-1 $154 $154 $155 $252 reversed $94 $-1 #
coedge $-1 $155 $155 $154 $252 forward $96 $-1 #
coedge $-1 $156 $156 $97 $157 forward $151 $-1 #
edge $-1 $253 0 $253 6.2831853071796004 $156 $254 forward 7 unknown #
face $-1 $255 $256 $33 $-1 $257 forward single #
loop $-1 $-1 $258 $98 #
plane-surface $-1 -136.35108118457285 17.975983299857109 103.48771661033511 0 -1 0 0.6018150307709319 0 -0.79863550430605224 forward_v I I I I #
coedge $-1 $259 $260 $261 $262 reversed $99 $-1 #
coedge $-1 $163 $101 $263 $264 reversed $64 $-1 #
coedge $-1 $101 $162 $259 $265 reversed $64 $-1 #
coedge $-1 $261 $266 $101 $165 forward $256 $-1 #
edge $-1 $267 6.2998729998916332 $268 11.264785576390871 $164 $269 forward 7 unknown #
loop $-1 $-1 $171 $102 #
plane-surface $-1 -61.875667592394805 14.167396663906882 4.6555066264833727 -0.6018150307709319 0 0.79863550430605224 0.79863550430605224 0 0.6018150307709319 forward_v I I I I #
loop $-1 $-1 $270 $66 #
coedge $-1 $169 $169 $170 $271 reversed $103 $-1 #
coedge $-1 $170 $170 $169 $271 forward $105 $-1 #
coedge $-1 $171 $171 $106 $172 forward $166 $-1 #
edge $-1 $272 0 $272 6.2831853071796004 $171 $273 forward 7 unknown #
loop $-1 $-1 $178 $107 #
plane-surface $-1 -61.875667592394805 14.167396663906882 4.6555066264833727 -0.6018150307709319 0 0.79863550430605224 0.79863550430605224 0 0.6018150307709319 forward_v I I I I #
loop $-1 $-1 $274 $69 #
coedge $-1 $176 $176 $177 $275 reversed $108 $-1 #
coedge $-1 $177 $177 $176 $275 forward $110 $-1 #
coedge $-1 $178 $178 $111 $179 forward $173 $-1 #
edge $-1 $276 0 $276 6.2831853071796004 $178 $277 forward 7 unknown #
face $-1 $278 $279 $27 $-1 $280 reversed single #
loop $-1 $-1 $281 $112 #
plane-surface $-1 -61.875667592394791 0 0 1 0 0 0 0 -1 forward_v I I I I #
coedge $-1 $282 $191 $283 $284 forward $113 $-1 #
coedge $-1 $285 $115 $282 $286 forward $73 $-1 #
coedge $-1 $115 $285 $287 $288 forward $73 $-1 #
coedge $-1 $194 $193 $115 $187 reversed $195 $-1 #
edge $-1 $289 -24.802952089780202 $290 24.802952089780202 $186 $291 forward 7 unknown #
coedge $-1 $117 $116 $292 $293 forward $46 $-1 #
coedge $-1 $294 $295 $116 $190 reversed $279 $-1 #
edge $-1 $197 -61.875667592394791 $296 61.875667592394791 $189 $297 forward 7 unknown #
coedge $-1 $183 $298 $117 $192 reversed $113 $-1 #
edge $-1 $299 -61.875667592394791 $196 61.875667592394791 $191 $300 forward 7 unknown #
coedge $-1 $186 $118 $298 $301 forward $195 $-1 #
coedge $-1 $118 $186 $294 $302 reversed $195 $-1 #
loop $-1 $-1 $193 $278 #
vertex $-1 $119 $303 #
vertex $-1 $119 $304 #
straight-curve $-1 61.875667592394791 0 8.3968366811710506 0 1 0 I I #
face $-1 $305 $306 $28 $-1 $307 reversed single #
loop $-1 $-1 $308 $120 #
plane-surface $-1 0 0 8.3968366811710506 0 0 1 1 0 0 forward_v I I I I #
coedge $-1 $309 $310 $311 $312 reversed $121 $-1 #
coedge $-1 $126 $123 $313 $314 reversed $77 $-1 #
coedge $-1 $123 $126 $315 $316 reversed $77 $-1 #
coedge $-1 $310 $309 $123 $206 reversed $121 $-1 #
edge $-1 $317 -8.3968366811710506 $318 8.3968366811710506 $205 $319 forward 7 unknown #
coedge $-1 $125 $124 $320 $321 reversed $49 $-1 #
coedge $-1 $313 $322 $124 $209 forward $306 $-1 #
edge $-1 $323 -14.801062975380162 $213 -5.2027152534199175 $208 $324 forward 7 unknown #
coedge $-1 $325 $315 $125 $211 forward $200 $-1 #
edge $-1 $212 5.2027152534199175 $326 14.801062975380162 $210 $327 forward 7 unknown #
vertex $-1 $211 $328 #
vertex $-1 $209 $329 #
straight-curve $-1 -48.081994230052686 -15.204604367819957 0 0 0 -1 I I #
face $-1 $330 $331 $29 $-1 $332 reversed single #
loop $-1 $-1 $134 $128 #
plane-surface $-1 61.875667592394791 0 0 -1 0 0 0 0 1 forward_v I I I I #
coedge $-1 $333 $334 $132 $224 forward $129 $-1 #
coedge $-1 $335 $131 $336 $337 reversed $81 $-1 #
coedge $-1 $131 $335 $133 $225 reversed $81 $-1 #
coedge $-1 $338 $339 $131 $222 forward $340 $-1 #
edge $-1 $341 -4.9484183405855253 $342 -1.9484183405855253 $221 $343 forward 7 unknown #
coedge $-1 $133 $132 $338 $344 reversed $52 $-1 #
edge $-1 $345 -61.875667592394791 $228 61.875667592394791 $218 $346 forward 7 unknown #
edge $-1 $342 -61.875667592394791 $229 61.875667592394791 $220 $347 forward 7 unknown #
coedge $-1 $348 $134 $335 $349 forward $216 $-1 #
coedge $-1 $134 $348 $333 $350 reversed $216 $-1 #
vertex $-1 $350 $351 #
vertex $-1 $135 $352 #
straight-curve $-1 61.875667592394791 10.694733847409326 -5.3968366811710506 0 -1 0 I I #
face $-1 $-1 $243 $30 $-1 $353 forward single #
loop $-1 $-1 $354 $136 #
plane-surface $-1 61.875667592394791 0 0 -1 0 0 0 0 1 forward_v I I I I #
coedge $-1 $355 $356 $357 $358 reversed $137 $-1 #
coedge $-1 $359 $139 $141 $241 forward $85 $-1 #
coedge $-1 $139 $359 $355 $360 forward $85 $-1 #
coedge $-1 $357 $142 $139 $238 forward $243 $-1 #
edge $-1 $245 -10.892284967903668 $361 -3.2751116960032132 $237 $362 forward 7 unknown #
coedge $-1 $363 $364 $140 $240 forward $232 $-1 #
edge $-1 $365 -84.326058474773205 $244 -80.584728420085526 $239 $366 forward 7 unknown #
edge $-1 $245 117.53459106343557 $365 123.75133518478958 $141 $367 forward 7 unknown #
coedge $-1 $142 $357 $363 $368 forward $243 $-1 #
loop $-1 $-1 $357 $231 #
vertex $-1 $240 $369 #
vertex $-1 $143 $370 #
straight-curve $-1 18.759435600360554 17.975983299857109 8.3968366811710524 -1 0 0 I I #
coedge $-1 $247 $247 $-1 $371 reversed $146 $-1 #
edge $-1 $372 0 $372 6.2831853071796004 $147 $373 forward 7 unknown #
vertex $-1 $150 $374 #
ellipse-curve $-1 59.393211304145161 12.535145248499642 6.5261716538272099 0.6018150307709319 0 0.79863550430605224 0.79863550430605224 0 -0.6018150307709319 1 I I #
coedge $-1 $251 $251 $-1 $375 reversed $153 $-1 #
edge $-1 $376 0 $376 6.2831853071796004 $154 $377 forward 7 unknown #
vertex $-1 $157 $378 #
ellipse-curve $-1 59.393211304145161 15.799648079314121 6.5261716538272099 0.6018150307709319 0 0.79863550430605224 0.79863550430605224 0 -0.6018150307709319 1 I I #
face $-1 $-1 $379 $33 $-1 $380 reversed single #
loop $-1 $-1 $164 $158 #
plane-surface $-1 0 0 8.3968366811710506 0 0 1 1 0 0 forward_v I I I I #
coedge $-1 $381 $382 $383 $384 reversed $159 $-1 #
coedge $-1 $385 $161 $163 $265 forward $99 $-1 #
coedge $-1 $161 $385 $381 $386 forward $99 $-1 #
coedge $-1 $383 $164 $161 $262 forward $256 $-1 #
edge $-1 $268 3.2751116960032132 $387 10.892284967903668 $261 $388 forward 7 unknown #
coedge $-1 $389 $390 $162 $264 forward $379 $-1 #
edge $-1 $391 -47.088351678684177 $267 -43.347021623996504 $263 $392 forward 7 unknown #
edge $-1 $268 -6.2167441213540187 $391 -1.7763522597878294e-014 $163 $393 forward 7 unknown #
coedge $-1 $164 $383 $389 $394 forward $256 $-1 #
vertex $-1 $165 $395 #
vertex $-1 $165 $396 #
straight-curve $-1 -68.175540592286424 10.358810027956654 8.3968366811710524 1 0 0 I I #
coedge $-1 $270 $270 $-1 $397 reversed $168 $-1 #
edge $-1 $398 0 $398 6.2831853071796004 $169 $399 forward 7 unknown #
vertex $-1 $172 $400 #
ellipse-curve $-1 -59.393211304145169 12.535145248499642 6.5261716538272188 -0.6018150307709319 0 0.79863550430605224 0.79863550430605224 0 0.6018150307709319 1 I I #
coedge $-1 $274 $274 $-1 $401 reversed $175 $-1 #
edge $-1 $402 0 $402 6.2831853071796004 $176 $403 forward 7 unknown #
vertex $-1 $179 $404 #
ellipse-curve $-1 -59.393211304145169 15.799648079314121 6.5261716538272188 -0.6018150307709319 0 0.79863550430605224 0.79863550430605224 0 0.6018150307709319 1 I I #
face $-1 $-1 $195 $27 $-1 $405 reversed single #
loop $-1 $-1 $294 $180 #
plane-surface $-1 0 24.802952089780202 0 0 -1 0 0 0 -1 forward_v I I I I #
coedge $-1 $406 $292 $295 $407 forward $181 $-1 #
coedge $-1 $298 $183 $184 $286 reversed $113 $-1 #
coedge $-1 $292 $406 $183 $284 reversed $181 $-1 #
edge $-1 $299 -8.3968366811710506 $408 8.3968366811710506 $283 $409 forward 7 unknown #
coedge $-1 $185 $184 $406 $410 forward $73 $-1 #
edge $-1 $290 -61.875667592394791 $408 61.875667592394791 $282 $411 forward 7 unknown #
coedge $-1 $295 $294 $185 $288 reversed $279 $-1 #
edge $-1 $412 -61.875667592394791 $289 61.875667592394791 $287 $413 forward 7 unknown #
vertex $-1 $187 $414 #
vertex $-1 $301 $415 #
straight-curve $-1 61.875667592394791 0 -8.3968366811710506 0 -1 0 I I #
coedge $-1 $281 $283 $188 $293 reversed $181 $-1 #
edge $-1 $296 -24.802952089780202 $299 24.802952089780202 $292 $416 forward 7 unknown #
coedge $-1 $287 $189 $194 $302 forward $279 $-1 #
coedge $-1 $189 $287 $281 $407 reversed $279 $-1 #
vertex $-1 $190 $417 #
straight-curve $-1 0 24.802952089780202 8.3968366811710506 -1 0 0 I I #
coedge $-1 $191 $282 $193 $301 reversed $113 $-1 #
vertex $-1 $293 $418 #
straight-curve $-1 0 -24.802952089780202 8.3968366811710506 1 0 0 I I #
edge $-1 $196 -8.3968366811710506 $290 8.3968366811710506 $193 $419 forward 7 unknown #
edge $-1 $197 -8.3968366811710506 $289 8.3968366811710506 $194 $420 forward 7 unknown #
point $-1 61.875667592394791 -24.802952089780202 8.3968366811710506 #
point $-1 61.875667592394791 24.802952089780202 8.3968366811710506 #
face $-1 $-1 $421 $28 $-1 $422 reversed single #
loop $-1 $-1 $423 $199 #
plane-surface $-1 0 0 -8.3968366811710506 0 0 1 1 0 0 forward_v I I I I #
coedge $-1 $315 $325 $310 $424 forward $200 $-1 #
coedge $-1 $205 $202 $423 $425 reversed $121 $-1 #
coedge $-1 $202 $205 $308 $424 reversed $121 $-1 #
coedge $-1 $426 $427 $202 $312 forward $421 $-1 #
edge $-1 $428 -8.3968366811710506 $429 8.3968366811710506 $311 $430 forward 7 unknown #
coedge $-1 $423 $208 $203 $314 forward $306 $-1 #
edge $-1 $213 -24.790997115026343 $318 -21.790997115026343 $313 $431 forward 7 unknown #
coedge $-1 $210 $308 $204 $316 forward $200 $-1 #
edge $-1 $317 21.790997115026343 $212 24.790997115026343 $315 $432 forward 7 unknown #
vertex $-1 $316 $433 #
vertex $-1 $314 $434 #
straight-curve $-1 -45.081994230052686 -15.204604367819957 0 0 0 -1 I I #
coedge $-1 $427 $426 $207 $321 forward $421 $-1 #
edge $-1 $326 -8.3968366811710506 $323 8.3968366811710506 $320 $435 forward 7 unknown #
coedge $-1 $208 $423 $427 $436 forward $306 $-1 #
vertex $-1 $209 $437 #
straight-curve $-1 -48.081994230052686 -10.00188911440004 -8.3968366811710506 0 1 0 I I #
coedge $-1 $308 $210 $426 $438 forward $200 $-1 #
vertex $-1 $438 $439 #
straight-curve $-1 -48.081994230052686 -10.00188911440004 8.3968366811710506 0 -1 0 I I #
point $-1 -48.081994230052686 -15.204604367819957 8.3968366811710506 #
point $-1 -48.081994230052686 -15.204604367819957 -8.3968366811710506 #
face $-1 $-1 $340 $29 $-1 $440 reversed single #
loop $-1 $-1 $336 $215 #
plane-surface $-1 0 0 -8.3968366811710506 0 0 1 1 0 0 forward_v I I I I #
coedge $-1 $441 $218 $227 $350 forward $129 $-1 #
coedge $-1 $218 $441 $442 $443 reversed $129 $-1 #
coedge $-1 $220 $219 $226 $349 reversed $81 $-1 #
coedge $-1 $444 $445 $219 $337 forward $331 $-1 #
edge $-1 $446 -61.875667592394791 $341 61.875667592394791 $336 $447 forward 7 unknown #
coedge $-1 $442 $221 $223 $344 forward $340 $-1 #
coedge $-1 $221 $442 $444 $448 reversed $340 $-1 #
loop $-1 $-1 $338 $330 #
vertex $-1 $448 $449 #
vertex $-1 $344 $450 #
straight-curve $-1 -61.875667592394791 17.975983299857106 -3.4484183405855253 0 0 1 I I #
edge $-1 $342 7.2812494524477795 $345 14.108218242370873 $338 $451 forward 7 unknown #
vertex $-1 $443 $452 #
straight-curve $-1 0 24.802952089780202 -5.3968366811710506 1 0 0 I I #
straight-curve $-1 0 17.975983299857106 -5.3968366811710506 1 0 0 I I #
coedge $-1 $227 $226 $445 $453 reversed $216 $-1 #
edge $-1 $229 1.9484183405855253 $446 4.9484183405855253 $226 $454 forward 7 unknown #
edge $-1 $228 5.3968366811710506 $455 8.3968366811710506 $227 $456 forward 7 unknown #
point $-1 61.875667592394791 24.802952089780199 -5.3968366811710506 #
point $-1 61.875667592394791 17.975983299857106 -5.3968366811710506 #
plane-surface $-1 0 0 8.3968366811710506 0 0 1 1 0 0 forward_v I I I I #
coedge $-1 $364 $363 $356 $457 forward $232 $-1 #
coedge $-1 $356 $234 $236 $360 reversed $137 $-1 #
coedge $-1 $234 $355 $354 $457 reversed $137 $-1 #
coedge $-1 $242 $237 $234 $358 forward $243 $-1 #
edge $-1 $361 38.151319415534992 $458 43.116231992034237 $357 $459 forward 7 unknown #
coedge $-1 $236 $235 $364 $460 reversed $85 $-1 #
edge $-1 $461 -123.75133518478958 $361 -117.53459106343557 $355 $462 forward 7 unknown #
vertex $-1 $238 $463 #
straight-curve $-1 56.910755015895532 7.0836983319534408 8.3968366811710524 0 -1 0 I I #
coedge $-1 $354 $239 $242 $368 reversed $232 $-1 #
coedge $-1 $239 $354 $359 $460 forward $232 $-1 #
vertex $-1 $240 $464 #
straight-curve $-1 61.875667592394791 17.975983299857109 88.981565101256578 0 0 1 I I #
straight-curve $-1 -36.956542391456935 17.975983299857109 79.130920218661416 0.79863550430605224 0 -0.6018150307709319 I I #
edge $-1 $458 10.358810027956654 $244 17.975983299857109 $363 $465 forward 7 unknown #
point $-1 61.875667592394791 17.975983299857109 8.3968366811710506 #
point $-1 56.910755015895546 17.975983299857109 8.3968366811710524 #
edge $-1 $466 1 $466 0 $247 $-1 forward 7 unknown #
vertex $-1 $248 $467 #
ellipse-curve $-1 57.08716894999295 12.535145248499642 3.4659501500534482 0.6018150307709319 0 0.79863550430605224 0.79863550430605224 0 -0.6018150307709319 1 I I #
point $-1 60.191846808451224 12.535145248499642 5.9243566230562816 #
edge $-1 $468 1 $468 0 $251 $-1 forward 7 unknown #
vertex $-1 $252 $469 #
ellipse-curve $-1 57.08716894999295 15.799648079314121 3.4659501500534482 0.6018150307709319 0 0.79863550430605224 0.79863550430605224 0 -0.6018150307709319 1 I I #
point $-1 60.191846808451224 15.799648079314121 5.9243566230562816 #
loop $-1 $-1 $263 $255 #
plane-surface $-1 -61.875667592394791 0 0 1 0 0 0 0 -1 forward_v I I I I #
coedge $-1 $382 $258 $260 $386 reversed $159 $-1 #
coedge $-1 $258 $381 $470 $471 reversed $159 $-1 #
coedge $-1 $266 $261 $258 $384 forward $256 $-1 #
edge $-1 $387 -11.264785576390871 $472 -6.2998729998916332 $383 $473 forward 7 unknown #
coedge $-1 $260 $259 $390 $474 reversed $99 $-1 #
edge $-1 $475 1.7763522597878294e-014 $387 6.2167441213540187 $381 $476 forward 7 unknown #
vertex $-1 $262 $477 #
straight-curve $-1 -56.910755015895553 7.0836983319534408 8.3968366811710524 0 1 0 I I #
coedge $-1 $470 $263 $266 $394 reversed $379 $-1 #
coedge $-1 $263 $470 $385 $474 forward $379 $-1 #
vertex $-1 $264 $478 #
straight-curve $-1 -61.875667592394791 10.358810027956654 51.743858305167556 0 0 1 I I #
straight-curve $-1 -61.875667592394805 10.358810027956654 4.6555066264833727 -0.79863550430605224 0 -0.6018150307709319 I I #
edge $-1 $472 -17.975983299857109 $267 -10.358810027956654 $389 $479 forward 7 unknown #
point $-1 -61.875667592394791 10.358810027956654 8.3968366811710506 #
point $-1 -56.910755015895553 10.358810027956654 8.3968366811710506 #
edge $-1 $480 1 $480 0 $270 $-1 forward 7 unknown #
vertex $-1 $271 $481 #
ellipse-curve $-1 -57.08716894999295 12.535145248499642 3.46595015005345 -0.6018150307709319 0 0.79863550430605224 0.79863550430605224 0 0.6018150307709319 1 I I #
point $-1 -58.59457579983912 12.535145248499642 7.127986684598147 #
edge $-1 $482 1 $482 0 $274 $-1 forward 7 unknown #
vertex $-1 $275 $483 #
ellipse-curve $-1 -57.08716894999295 15.799648079314121 3.46595015005345 -0.6018150307709319 0 0.79863550430605224 0.79863550430605224 0 0.6018150307709319 1 I I #
point $-1 -58.59457579983912 15.799648079314121 7.127986684598147 #
plane-surface $-1 61.875667592394791 0 0 -1 0 0 0 0 1 forward_v I I I I #
coedge $-1 $283 $281 $285 $410 reversed $181 $-1 #
edge $-1 $296 -8.3968366811710506 $412 8.3968366811710506 $295 $484 forward 7 unknown #
vertex $-1 $410 $485 #
straight-curve $-1 -61.875667592394791 -24.802952089780202 0 0 0 -1 I I #
edge $-1 $408 -24.802952089780202 $412 24.802952089780202 $406 $486 forward 7 unknown #
straight-curve $-1 0 -24.802952089780202 -8.3968366811710506 -1 0 0 I I #
vertex $-1 $288 $487 #
straight-curve $-1 0 24.802952089780202 -8.3968366811710506 1 0 0 I I #
point $-1 61.875667592394791 24.802952089780202 -8.3968366811710506 #
point $-1 61.875667592394791 -24.802952089780202 -8.3968366811710506 #
straight-curve $-1 -61.875667592394791 0 8.3968366811710506 0 -1 0 I I #
point $-1 -61.875667592394791 24.802952089780202 8.3968366811710506 #
point $-1 -61.875667592394791 -24.802952089780202 8.3968366811710506 #
straight-curve $-1 61.875667592394791 -24.802952089780202 0 0 0 -1 I I #
straight-curve $-1 61.875667592394791 24.802952089780202 0 0 0 -1 I I #
loop $-1 $-1 $311 $305 #
plane-surface $-1 0 -24.802952089780202 0 0 1 0 0 0 1 forward_v I I I I #
coedge $-1 $322 $313 $309 $425 forward $306 $-1 #
edge $-1 $429 -14.801062975380162 $317 -5.2027152534199175 $308 $488 forward 7 unknown #
edge $-1 $318 5.2027152534199175 $428 14.801062975380162 $423 $489 forward 7 unknown #
coedge $-1 $320 $311 $325 $438 reversed $421 $-1 #
coedge $-1 $311 $320 $322 $436 reversed $421 $-1 #
vertex $-1 $436 $490 #
vertex $-1 $312 $491 #
straight-curve $-1 -45.081994230052686 -24.802952089780202 0 0 0 1 I I #
straight-curve $-1 -23.290997115026343 -15.204604367819957 -8.3968366811710506 1 0 0 I I #
straight-curve $-1 -23.290997115026343 -15.204604367819957 8.3968366811710506 -1 0 0 I I #
point $-1 -45.081994230052686 -15.204604367819957 8.3968366811710506 #
point $-1 -45.081994230052686 -15.204604367819957 -8.3968366811710506 #
straight-curve $-1 -48.081994230052686 -24.802952089780202 0 0 0 -1 I I #
edge $-1 $428 45.081994230052686 $323 48.081994230052686 $427 $492 forward 7 unknown #
point $-1 -48.081994230052686 -24.802952089780202 -8.3968366811710506 #
edge $-1 $326 -48.081994230052686 $429 -45.081994230052686 $426 $493 forward 7 unknown #
point $-1 -48.081994230052686 -24.802952089780202 8.3968366811710506 #
plane-surface $-1 -61.875667592394791 0 0 1 0 0 0 0 -1 forward_v I I I I #
coedge $-1 $334 $333 $494 $495 reversed $129 $-1 #
coedge $-1 $339 $338 $334 $443 forward $340 $-1 #
edge $-1 $345 5.3968366811710506 $496 8.3968366811710506 $334 $497 forward 7 unknown #
coedge $-1 $494 $336 $339 $448 forward $331 $-1 #
coedge $-1 $336 $494 $348 $453 forward $331 $-1 #
vertex $-1 $349 $498 #
straight-curve $-1 0 17.975983299857106 -8.3968366811710506 -1 0 0 I I #
edge $-1 $341 17.975983299857106 $496 24.802952089780202 $339 $499 forward 7 unknown #
point $-1 -61.875667592394791 17.975983299857106 -8.3968366811710506 #
point $-1 -61.875667592394791 17.975983299857106 -5.3968366811710506 #
straight-curve $-1 -61.875667592394791 10.694733847409326 -5.3968366811710506 0 1 0 I I #
point $-1 -61.875667592394791 24.802952089780199 -5.3968366811710506 #
edge $-1 $455 -24.802952089780202 $446 -17.975983299857106 $348 $500 forward 7 unknown #
straight-curve $-1 61.875667592394791 17.975983299857106 -3.4484183405855253 0 0 -1 I I #
vertex $-1 $453 $501 #
straight-curve $-1 61.875667592394791 24.802952089780202 0 0 0 -1 I I #
edge $-1 $458 80.584728420085526 $461 84.326058474773205 $354 $502 forward 7 unknown #
vertex $-1 $368 $503 #
straight-curve $-1 18.759435600360554 10.358810027956654 8.3968366811710524 1 0 0 I I #
edge $-1 $461 3.2751116960032132 $365 10.892284967903668 $364 $504 forward 7 unknown #
vertex $-1 $460 $505 #
straight-curve $-1 -36.956542391456935 10.358810027956654 79.130920218661416 -0.79863550430605224 0 0.6018150307709319 I I #
point $-1 56.910755015895546 10.358810027956654 8.3968366811710524 #
point $-1 61.875667592394791 17.975983299857109 4.6555066264833727 #
straight-curve $-1 61.875667592394791 0 8.3968366811710506 0 1 0 I I #
vertex $-1 $371 $506 #
point $-1 57.885804454298999 12.535145248499642 2.8641351192825164 #
vertex $-1 $375 $507 #
point $-1 57.885804454298999 15.799648079314121 2.8641351192825164 #
coedge $-1 $390 $389 $382 $471 forward $379 $-1 #
edge $-1 $472 43.347021623996504 $475 47.088351678684177 $470 $508 forward 7 unknown #
vertex $-1 $394 $509 #
straight-curve $-1 -68.175540592286424 17.975983299857109 8.3968366811710524 -1 0 0 I I #
edge $-1 $475 -10.892284967903668 $391 -3.2751116960032132 $390 $510 forward 7 unknown #
vertex $-1 $474 $511 #
straight-curve $-1 -61.875667592394805 17.975983299857109 4.6555066264833727 0.79863550430605224 0 0.6018150307709319 I I #
point $-1 -56.910755015895553 17.975983299857109 8.3968366811710506 #
point $-1 -61.875667592394791 10.358810027956654 4.6555066264833833 #
straight-curve $-1 -61.875667592394791 0 8.3968366811710506 0 -1 0 I I #
vertex $-1 $397 $512 #
point $-1 -56.288533445686895 12.535145248499642 4.0677651808243818 #
vertex $-1 $401 $513 #
point $-1 -56.288533445686895 15.799648079314121 4.0677651808243818 #
straight-curve $-1 -61.875667592394791 24.802952089780202 0 0 0 -1 I I #
point $-1 -61.875667592394791 -24.802952089780202 -8.3968366811710506 #
straight-curve $-1 -61.875667592394791 0 -8.3968366811710506 0 1 0 I I #
point $-1 -61.875667592394791 24.802952089780202 -8.3968366811710506 #
straight-curve $-1 -45.081994230052686 -10.00188911440004 8.3968366811710506 0 1 0 I I #
straight-curve $-1 -45.081994230052686 -10.00188911440004 -8.3968366811710506 0 -1 0 I I #
point $-1 -45.081994230052686 -24.802952089780202 -8.3968366811710506 #
point $-1 -45.081994230052686 -24.802952089780202 8.3968366811710506 #
straight-curve $-1 0 -24.802952089780202 -8.3968366811710506 -1 0 0 I I #
straight-curve $-1 0 -24.802952089780202 8.3968366811710506 1 0 0 I I #
coedge $-1 $445 $444 $441 $495 forward $331 $-1 #
edge $-1 $496 -61.875667592394791 $455 61.875667592394791 $441 $514 forward 7 unknown #
vertex $-1 $495 $515 #
straight-curve $-1 -61.875667592394791 24.802952089780202 0 0 0 -1 I I #
point $-1 61.875667592394791 17.975983299857106 -8.3968366811710506 #
straight-curve $-1 -61.875667592394791 0 -8.3968366811710506 0 1 0 I I #
straight-curve $-1 61.875667592394791 0 -8.3968366811710506 0 -1 0 I I #
point $-1 61.875667592394791 24.802952089780202 -8.3968366811710506 #
straight-curve $-1 61.875667592394791 10.358810027956654 88.981565101256578 0 0 -1 I I #
point $-1 61.875667592394791 10.358810027956654 8.3968366811710506 #
straight-curve $-1 61.875667592394791 7.0836983319534408 4.6555066264833727 0 1 0 I I #
point $-1 61.875667592394791 10.358810027956654 4.6555066264833727 #
point $-1 56.485353919222014 12.535145248499642 2.6673146457473962 #
point $-1 56.485353919222014 15.799648079314121 2.6673146457473962 #
straight-curve $-1 -61.875667592394791 17.975983299857109 51.743858305167556 0 0 -1 I I #
point $-1 -61.875667592394791 17.975983299857109 8.3968366811710506 #
straight-curve $-1 -61.875667592394791 7.0836983319534408 4.6555066264833833 0 -1 0 I I #
point $-1 -61.875667592394791 17.975983299857109 4.6555066264833833 #
point $-1 -56.485353919222014 12.535145248499642 2.667314645747398 #
point $-1 -56.485353919222014 15.799648079314121 2.667314645747398 #
straight-curve $-1 0 24.802952089780202 -8.3968366811710506 1 0 0 I I #
point $-1 -61.875667592394791 24.802952089780202 -8.3968366811710506 #
End-of-ACIS-data 