500 0 5 0           
7 Unknown 11 ACIS 5.0 NT 24 Fri Mar 26 03:07:18 1999 
-1 9.9999999999999995e-007 1e-010 
body $-1 $5 $-1 $6 #
body $-1 $7 $-1 $8 #
body $-1 $9 $-1 $10 #
body $-1 $11 $-1 $12 #
body $-1 $13 $-1 $14 #
lump $-1 $-1 $15 $0 #
transform $-1 1 0 0 0 1 0 0 0 1 43.17636646626179 23.832980068725352 11.551652765083443 1 rotate no_reflect no_shear #
lump $-1 $-1 $16 $1 #
transform $-1 1 0 0 0 1 0 0 0 1 43.17636646626179 23.832980068725352 11.551652765083443 1 rotate no_reflect no_shear #
lump $-1 $-1 $17 $2 #
transform $-1 1 0 0 0 1 0 0 0 1 43.17636646626179 23.832980068725352 11.551652765083443 1 rotate no_reflect no_shear #
lump $-1 $-1 $18 $3 #
transform $-1 1 0 0 0 1 0 0 0 1 43.17636646626179 23.832980068725352 11.551652765083443 1 rotate no_reflect no_shear #
lump $-1 $-1 $19 $4 #
transform $-1 1 0 0 0 1 0 0 0 1 43.17636646626179 23.832980068725352 11.551652765083443 1 rotate no_reflect no_shear #
shell $-1 $-1 $-1 $20 $-1 $5 #
shell $-1 $-1 $-1 $21 $-1 $7 #
shell $-1 $-1 $-1 $22 $-1 $9 #
shell $-1 $-1 $-1 $23 $-1 $11 #
shell $-1 $-1 $-1 $24 $-1 $13 #
face $-1 $25 $26 $15 $-1 $27 forward single #
face $-1 $28 $29 $16 $-1 $30 forward single #
face $-1 $31 $32 $17 $-1 $33 forward single #
face $-1 $34 $35 $18 $-1 $36 reversed single #
face $-1 $37 $38 $19 $-1 $39 reversed single #
face $-1 $40 $41 $15 $-1 $42 reversed single #
loop $-1 $-1 $43 $20 #
plane-surface $-1 0 0 11.551652765083443 0 0 1 1 0 0 forward_v I I I I #
face $-1 $44 $45 $16 $-1 $46 forward single #
loop $-1 $-1 $47 $21 #
plane-surface $-1 -24.024955133489613 -17.468363825986589 0 1 0 0 0 0 -1 forward_v I I I I #
face $-1 $48 $49 $17 $-1 $50 forward single #
loop $-1 $-1 $51 $22 #
plane-surface $-1 -34.569881998836017 32.603944495284267 105.06676244240253 1 0 0 0 -0.55919291073839883 -0.82903756765294845 forward_v I I I I #
face $-1 $52 $53 $18 $-1 $54 reversed single #
loop $-1 $55 $56 $23 #
cone-surface $-1 -28.666607698784322 19.700555189310865 8.2577313486005703 0 -0.55919291073839883 -0.82903756765294845 1.5 0 0 1 I I 0 1 1.5 forward I I I I #
face $-1 $57 $58 $19 $-1 $59 reversed single #
loop $-1 $60 $61 $24 #
cone-surface $-1 -19.811696248706788 19.700555189310865 8.2577313486005703 0 -0.55919291073839883 -0.82903756765294845 1.5 0 0 1 I I 0 1 1.5 forward I I I I #
face $-1 $62 $63 $15 $-1 $64 reversed single #
loop $-1 $-1 $65 $25 #
plane-surface $-1 0 0 -11.551652765083443 0 0 1 1 0 0 forward_v I I I I #
coedge $-1 $66 $67 $68 $69 forward $26 $-1 #
face $-1 $70 $71 $16 $-1 $72 forward single #
loop $-1 $-1 $73 $28 #
plane-surface $-1 -22.049008034792259 -11.103747583247827 0 0 -1 0 0 0 -1 forward_v I I I I #
coedge $-1 $74 $75 $76 $77 reversed $29 $-1 #
face $-1 $78 $79 $17 $-1 $80 forward single #
loop $-1 $-1 $81 $31 #
plane-surface $-1 -24.239151973745557 -15.683891583469183 33.477102771838531 0 0.55919291073839883 0.82903756765294845 1 0 0 forward_v I I I I #
coedge $-1 $82 $83 $84 $85 reversed $32 $-1 #
face $-1 $86 $87 $18 $-1 $88 forward single #
loop $-1 $89 $90 $34 #
cone-surface $-1 -28.666607698784322 18.654263561730804 6.7065402492012218 0 -0.55919291073839883 -0.82903756765294845 0.75 0 0 1 I I -0.70710678118654757 0.70710678118654757 0.75 forward I I I I #
loop $-1 $-1 $91 $23 #
coedge $-1 $56 $56 $92 $93 reversed $35 $-1 #
face $-1 $94 $95 $19 $-1 $96 reversed single #
loop $-1 $97 $98 $37 #
cone-surface $-1 -19.811696248706788 18.654263561730804 6.7065402492012218 0 -0.55919291073839883 -0.82903756765294845 0.75 0 0 1 I I -0.70710678118654757 0.70710678118654757 0.75 forward I I I I #
loop $-1 $-1 $99 $24 #
coedge $-1 $61 $61 $100 $101 reversed $38 $-1 #
face $-1 $102 $103 $15 $-1 $104 reversed single #
loop $-1 $-1 $105 $40 #
plane-surface $-1 0 -23.832980068725352 0 0 1 0 0 0 1 forward_v I I I I #
coedge $-1 $106 $107 $108 $109 forward $41 $-1 #
coedge $-1 $110 $43 $111 $112 forward $26 $-1 #
coedge $-1 $43 $110 $113 $114 forward $26 $-1 #
coedge $-1 $115 $116 $43 $69 reversed $117 $-1 #
edge $-1 $118 -23.832980068725352 $119 23.832980068725352 $68 $120 forward 7 unknown #
face $-1 $121 $122 $16 $-1 $123 forward single #
loop $-1 $-1 $124 $44 #
plane-surface $-1 -20.073060936094905 -17.468363825986589 0 -1 0 0 0 0 1 forward_v I I I I #
coedge $-1 $125 $126 $127 $128 reversed $45 $-1 #
coedge $-1 $129 $47 $130 $131 reversed $29 $-1 #
coedge $-1 $47 $129 $132 $133 reversed $29 $-1 #
coedge $-1 $126 $125 $47 $77 forward $45 $-1 #
edge $-1 $134 -11.551652765083443 $135 11.551652765083443 $76 $136 forward 7 unknown #
face $-1 $137 $138 $17 $-1 $139 forward single #
loop $-1 $-1 $140 $48 #
plane-surface $-1 -13.908421948655098 32.603944495284267 105.06676244240253 -1 0 0 0 0.55919291073839883 0.82903756765294845 forward_v I I I I #
coedge $-1 $141 $142 $143 $144 reversed $49 $-1 #
coedge $-1 $83 $51 $142 $145 forward $32 $-1 #
coedge $-1 $51 $82 $146 $147 reversed $32 $-1 #
coedge $-1 $148 $143 $51 $85 forward $138 $-1 #
edge $-1 $149 0.51995195130678695 $150 7.5310078210832181 $84 $151 forward 7 unknown #
face $-1 $152 $153 $18 $-1 $154 forward single #
loop $-1 $-1 $155 $52 #
plane-surface $-1 -34.569881998836017 32.603944495284267 105.06676244240253 1 0 0 0 -0.55919291073839883 -0.82903756765294845 forward_v I I I I #
loop $-1 $-1 $156 $34 #
coedge $-1 $90 $90 $91 $157 forward $53 $-1 #
coedge $-1 $91 $91 $90 $157 reversed $55 $-1 #
coedge $-1 $92 $92 $56 $93 forward $153 $-1 #
edge $-1 $158 6.391205358476991e-016 $158 6.2831853071796013 $92 $159 forward 7 unknown #
face $-1 $160 $161 $19 $-1 $162 reversed single #
loop $-1 $163 $164 $57 #
cone-surface $-1 -28.666607698784322 19.700555189310865 8.2577313486005703 0 -0.55919291073839883 -0.82903756765294845 1.5 0 0 1 I I 0 1 1.5 forward I I I I #
loop $-1 $-1 $165 $37 #
coedge $-1 $98 $98 $99 $166 forward $58 $-1 #
coedge $-1 $99 $99 $98 $166 reversed $60 $-1 #
coedge $-1 $100 $100 $61 $101 forward $167 $-1 #
edge $-1 $168 6.391205358476991e-016 $168 6.2831853071796013 $100 $169 forward 7 unknown #
face $-1 $170 $171 $15 $-1 $172 reversed single #
loop $-1 $-1 $173 $62 #
plane-surface $-1 -43.17636646626179 0 0 1 0 0 0 0 -1 forward_v I I I I #
coedge $-1 $174 $113 $175 $176 forward $63 $-1 #
coedge $-1 $177 $65 $174 $178 forward $41 $-1 #
coedge $-1 $65 $177 $179 $180 forward $41 $-1 #
coedge $-1 $116 $115 $65 $109 reversed $117 $-1 #
edge $-1 $181 -23.832980068725352 $182 23.832980068725352 $108 $183 forward 7 unknown #
coedge $-1 $67 $66 $184 $185 forward $26 $-1 #
coedge $-1 $186 $187 $66 $112 reversed $171 $-1 #
edge $-1 $119 -43.17636646626179 $188 43.17636646626179 $111 $189 forward 7 unknown #
coedge $-1 $105 $190 $67 $114 reversed $63 $-1 #
edge $-1 $191 -43.17636646626179 $118 43.17636646626179 $113 $192 forward 7 unknown #
coedge $-1 $108 $68 $190 $193 forward $117 $-1 #
coedge $-1 $68 $108 $186 $194 reversed $117 $-1 #
loop $-1 $-1 $115 $170 #
vertex $-1 $69 $195 #
vertex $-1 $69 $196 #
straight-curve $-1 43.17636646626179 0 11.551652765083443 0 1 0 I I #
face $-1 $197 $198 $16 $-1 $199 reversed single #
loop $-1 $-1 $130 $70 #
plane-surface $-1 0 0 11.551652765083443 0 0 1 1 0 0 forward_v I I I I #
coedge $-1 $200 $201 $202 $203 reversed $71 $-1 #
coedge $-1 $76 $73 $204 $205 reversed $45 $-1 #
coedge $-1 $73 $76 $206 $207 reversed $45 $-1 #
coedge $-1 $201 $200 $73 $128 forward $71 $-1 #
edge $-1 $208 -11.551652765083443 $209 11.551652765083443 $127 $210 forward 7 unknown #
coedge $-1 $75 $74 $211 $212 reversed $29 $-1 #
coedge $-1 $204 $213 $74 $131 forward $122 $-1 #
edge $-1 $214 -15.098798155732057 $134 -2.3695656702545325 $130 $215 forward 7 unknown #
coedge $-1 $216 $206 $75 $133 forward $217 $-1 #
edge $-1 $135 2.3695656702545325 $218 15.098798155732057 $132 $219 forward 7 unknown #
vertex $-1 $131 $220 #
vertex $-1 $133 $221 #
straight-curve $-1 -24.024955133489613 -11.103747583247827 0 0 0 -1 I I #
face $-1 $222 $223 $17 $-1 $224 forward single #
loop $-1 $-1 $225 $78 #
plane-surface $-1 0 0 11.551652765083443 0 0 1 1 0 0 forward_v I I I I #
coedge $-1 $226 $227 $225 $228 reversed $79 $-1 #
coedge $-1 $229 $81 $227 $230 reversed $49 $-1 #
coedge $-1 $81 $229 $82 $145 reversed $49 $-1 #
coedge $-1 $84 $225 $81 $144 forward $138 $-1 #
edge $-1 $231 1.7888459617823198 $149 22.450306011963239 $143 $232 forward 7 unknown #
edge $-1 $149 39.209098659357352 $233 47.66596013745071 $82 $234 forward 7 unknown #
coedge $-1 $235 $236 $83 $147 forward $237 $-1 #
edge $-1 $150 40.981728456117821 $233 45.710745441764288 $146 $238 forward 7 unknown #
coedge $-1 $239 $84 $236 $240 forward $138 $-1 #
vertex $-1 $144 $241 #
vertex $-1 $240 $242 #
straight-curve $-1 -34.569881998836017 16.301972247642134 11.551652765083446 0 1 0 I I #
face $-1 $243 $244 $18 $-1 $245 forward single #
loop $-1 $246 $92 $86 #
plane-surface $-1 -24.239151973745557 -15.683891583469183 33.477102771838531 0 0.55919291073839883 0.82903756765294845 1 0 0 forward_v I I I I #
coedge $-1 $247 $248 $249 $250 reversed $87 $-1 #
coedge $-1 $156 $156 $-1 $251 forward $89 $-1 #
edge $-1 $252 0 $252 6.2831853071796004 $90 $253 forward 7 unknown #
vertex $-1 $93 $254 #
ellipse-curve $-1 -28.666607698784322 20.327452133837131 9.1871442722602108 0 -0.55919291073839883 -0.82903756765294845 1.5 0 0 1 I I #
face $-1 $255 $256 $19 $-1 $257 forward single #
loop $-1 $258 $259 $94 #
cone-surface $-1 -28.666607698784322 18.654263561730804 6.7065402492012218 0 -0.55919291073839883 -0.82903756765294845 0.75 0 0 1 I I -0.70710678118654757 0.70710678118654757 0.75 forward I I I I #
loop $-1 $-1 $260 $57 #
coedge $-1 $164 $164 $261 $262 reversed $95 $-1 #
coedge $-1 $165 $165 $-1 $263 forward $97 $-1 #
edge $-1 $264 0 $264 6.2831853071796004 $98 $265 forward 7 unknown #
loop $-1 $266 $100 $255 #
vertex $-1 $101 $267 #
ellipse-curve $-1 -19.811696248706788 20.327452133837131 9.1871442722602108 0 -0.55919291073839883 -0.82903756765294845 1.5 0 0 1 I I #
face $-1 $-1 $117 $15 $-1 $268 reversed single #
loop $-1 $-1 $186 $102 #
plane-surface $-1 0 23.832980068725352 0 0 -1 0 0 0 -1 forward_v I I I I #
coedge $-1 $269 $184 $187 $270 forward $103 $-1 #
coedge $-1 $190 $105 $106 $178 reversed $63 $-1 #
coedge $-1 $184 $269 $105 $176 reversed $103 $-1 #
edge $-1 $191 -11.551652765083443 $271 11.551652765083443 $175 $272 forward 7 unknown #
coedge $-1 $107 $106 $269 $273 forward $41 $-1 #
edge $-1 $182 -43.17636646626179 $271 43.17636646626179 $174 $274 forward 7 unknown #
coedge $-1 $187 $186 $107 $180 reversed $171 $-1 #
edge $-1 $275 -43.17636646626179 $181 43.17636646626179 $179 $276 forward 7 unknown #
vertex $-1 $109 $277 #
vertex $-1 $193 $278 #
straight-curve $-1 43.17636646626179 0 -11.551652765083443 0 -1 0 I I #
coedge $-1 $173 $175 $110 $185 reversed $103 $-1 #
edge $-1 $188 -23.832980068725352 $191 23.832980068725352 $184 $279 forward 7 unknown #
coedge $-1 $179 $111 $116 $194 forward $171 $-1 #
coedge $-1 $111 $179 $173 $270 reversed $171 $-1 #
vertex $-1 $112 $280 #
straight-curve $-1 0 23.832980068725352 11.551652765083443 -1 0 0 I I #
coedge $-1 $113 $174 $115 $193 reversed $63 $-1 #
vertex $-1 $185 $281 #
straight-curve $-1 0 -23.832980068725352 11.551652765083443 1 0 0 I I #
edge $-1 $118 -11.551652765083443 $182 11.551652765083443 $115 $282 forward 7 unknown #
edge $-1 $119 -11.551652765083443 $181 11.551652765083443 $116 $283 forward 7 unknown #
point $-1 43.17636646626179 -23.832980068725352 11.551652765083443 #
point $-1 43.17636646626179 23.832980068725352 11.551652765083443 #
face $-1 $284 $217 $16 $-1 $285 reversed single #
loop $-1 $-1 $202 $121 #
plane-surface $-1 0 -23.832980068725352 0 0 1 0 0 0 1 forward_v I I I I #
coedge $-1 $127 $124 $286 $287 reversed $71 $-1 #
coedge $-1 $124 $127 $288 $289 reversed $71 $-1 #
coedge $-1 $290 $291 $124 $203 forward $198 $-1 #
edge $-1 $292 -11.551652765083443 $293 11.551652765083443 $202 $294 forward 7 unknown #
coedge $-1 $286 $130 $125 $205 forward $122 $-1 #
edge $-1 $134 -13.000451116093483 $208 -9.0485569186987753 $204 $295 forward 7 unknown #
coedge $-1 $132 $288 $126 $207 forward $217 $-1 #
edge $-1 $209 9.0485569186987753 $135 13.000451116093483 $206 $296 forward 7 unknown #
vertex $-1 $205 $297 #
vertex $-1 $207 $298 #
straight-curve $-1 -20.073060936094905 -11.103747583247827 0 0 0 -1 I I #
coedge $-1 $299 $300 $129 $212 forward $301 $-1 #
edge $-1 $218 -11.551652765083443 $214 11.551652765083443 $211 $302 forward 7 unknown #
coedge $-1 $130 $303 $299 $304 forward $122 $-1 #
vertex $-1 $212 $305 #
straight-curve $-1 -24.024955133489613 -8.7341819129932947 11.551652765083443 0 1 0 I I #
coedge $-1 $306 $132 $300 $307 forward $217 $-1 #
loop $-1 $-1 $132 $197 #
vertex $-1 $307 $308 #
straight-curve $-1 -24.024955133489613 -8.7341819129932947 -11.551652765083443 0 -1 0 I I #
point $-1 -24.024955133489613 -11.103747583247827 11.551652765083443 #
point $-1 -24.024955133489613 -11.103747583247827 -11.551652765083443 #
face $-1 $309 $310 $17 $-1 $311 forward single #
loop $-1 $-1 $312 $137 #
plane-surface $-1 -24.024955133489613 -17.468363825986589 0 1 0 0 0 0 -1 forward_v I I I I #
coedge $-1 $143 $313 $140 $228 forward $138 $-1 #
coedge $-1 $227 $140 $314 $315 reversed $79 $-1 #
coedge $-1 $140 $226 $141 $230 forward $79 $-1 #
edge $-1 $316 -7.5310078210832181 $231 -0.51995195130678695 $225 $317 forward 7 unknown #
coedge $-1 $142 $141 $235 $318 reversed $49 $-1 #
edge $-1 $319 -47.66596013745071 $231 -39.209098659357352 $227 $320 forward 7 unknown #
vertex $-1 $144 $321 #
straight-curve $-1 -12.119575986872778 16.821924198948921 11.551652765083444 -1 0 0 I I #
vertex $-1 $318 $322 #
straight-curve $-1 -34.569881998836017 -15.683891583469183 33.477102771838531 0 0.82903756765294845 -0.55919291073839883 I I #
coedge $-1 $314 $146 $229 $318 forward $237 $-1 #
coedge $-1 $146 $323 $148 $240 reversed $237 $-1 #
loop $-1 $-1 $314 $324 #
straight-curve $-1 -34.569881998836017 23.832980068725352 52.533381221201267 0 0 -1 I I #
coedge $-1 $325 $148 $326 $327 forward $138 $-1 #
edge $-1 $150 34.569881998836017 $328 43.17636646626179 $236 $329 forward 7 unknown #
point $-1 -34.569881998836017 16.821924198948921 11.551652765083443 #
point $-1 -34.569881998836017 23.832980068725352 11.551652765083443 #
face $-1 $330 $331 $18 $-1 $332 forward single #
loop $-1 $-1 $333 $152 #
plane-surface $-1 -13.908421948655098 32.603944495284267 105.06676244240253 -1 0 0 0 0.55919291073839883 0.82903756765294845 forward_v I I I I #
loop $-1 $-1 $334 $86 #
coedge $-1 $248 $155 $335 $336 forward $87 $-1 #
coedge $-1 $155 $247 $337 $338 reversed $87 $-1 #
coedge $-1 $339 $340 $155 $250 forward $331 $-1 #
edge $-1 $341 0.51995195130678695 $342 7.5310078210832181 $249 $343 forward 7 unknown #
edge $-1 $344 1 $344 0 $156 $-1 forward 7 unknown #
vertex $-1 $157 $345 #
ellipse-curve $-1 -28.666607698784322 19.073658244784603 7.3283184249409334 0 0.55919291073839883 0.82903756765294845 1.5 0 0 1 I I #
point $-1 -27.166607698784322 20.327452133837127 9.1871442722602072 #
face $-1 $346 $167 $19 $-1 $347 forward single #
loop $-1 $-1 $348 $160 #
plane-surface $-1 -34.569881998836017 32.603944495284267 105.06676244240253 1 0 0 0 -0.55919291073839883 -0.82903756765294845 forward_v I I I I #
loop $-1 $-1 $349 $94 #
coedge $-1 $259 $259 $260 $350 forward $161 $-1 #
coedge $-1 $260 $260 $259 $350 reversed $163 $-1 #
coedge $-1 $261 $261 $164 $262 forward $266 $-1 #
edge $-1 $351 6.391205358476991e-016 $351 6.2831853071796013 $261 $352 forward 7 unknown #
edge $-1 $353 1 $353 0 $165 $-1 forward 7 unknown #
vertex $-1 $166 $354 #
ellipse-curve $-1 -19.811696248706788 19.073658244784603 7.3283184249409334 0 0.55919291073839883 0.82903756765294845 1.5 0 0 1 I I #
loop $-1 $355 $261 $255 #
point $-1 -18.311696248706788 20.327452133837127 9.1871442722602072 #
plane-surface $-1 43.17636646626179 0 0 -1 0 0 0 0 1 forward_v I I I I #
coedge $-1 $175 $173 $177 $273 reversed $103 $-1 #
edge $-1 $188 -11.551652765083443 $275 11.551652765083443 $187 $356 forward 7 unknown #
vertex $-1 $273 $357 #
straight-curve $-1 -43.17636646626179 -23.832980068725352 0 0 0 -1 I I #
edge $-1 $271 -23.832980068725352 $275 23.832980068725352 $269 $358 forward 7 unknown #
straight-curve $-1 0 -23.832980068725352 -11.551652765083443 -1 0 0 I I #
vertex $-1 $180 $359 #
straight-curve $-1 0 23.832980068725352 -11.551652765083443 1 0 0 I I #
point $-1 43.17636646626179 23.832980068725352 -11.551652765083443 #
point $-1 43.17636646626179 -23.832980068725352 -11.551652765083443 #
straight-curve $-1 -43.17636646626179 0 11.551652765083443 0 -1 0 I I #
point $-1 -43.17636646626179 23.832980068725352 11.551652765083443 #
point $-1 -43.17636646626179 -23.832980068725352 11.551652765083443 #
straight-curve $-1 43.17636646626179 -23.832980068725352 0 0 0 -1 I I #
straight-curve $-1 43.17636646626179 23.832980068725352 0 0 0 -1 I I #
face $-1 $360 $301 $16 $-1 $199 reversed single #
plane-surface $-1 0 0 -11.551652765083443 0 0 1 1 0 0 forward_v I I I I #
coedge $-1 $361 $204 $200 $287 forward $122 $-1 #
edge $-1 $208 2.3695656702545325 $292 15.098798155732057 $286 $362 forward 7 unknown #
coedge $-1 $206 $363 $201 $289 forward $217 $-1 #
edge $-1 $293 -15.098798155732057 $209 -2.3695656702545325 $288 $364 forward 7 unknown #
coedge $-1 $365 $202 $363 $366 reversed $198 $-1 #
coedge $-1 $202 $365 $361 $367 reversed $198 $-1 #
vertex $-1 $367 $368 #
vertex $-1 $203 $369 #
straight-curve $-1 -20.073060936094905 -23.832980068725352 0 0 0 -1 I I #
straight-curve $-1 -11.024504017396129 -11.103747583247827 11.551652765083443 1 0 0 I I #
straight-curve $-1 -11.024504017396129 -11.103747583247827 -11.551652765083443 -1 0 0 I I #
point $-1 -20.073060936094905 -11.103747583247827 11.551652765083443 #
point $-1 -20.073060936094905 -11.103747583247827 -11.551652765083443 #
coedge $-1 $370 $211 $213 $304 reversed $301 $-1 #
coedge $-1 $211 $370 $216 $307 reversed $301 $-1 #
loop $-1 $-1 $211 $284 #
straight-curve $-1 -24.024955133489613 -23.832980068725352 0 0 0 1 I I #
coedge $-1 $213 $371 $372 $373 forward $122 $-1 #
edge $-1 $374 -43.17636646626179 $214 -24.024955133489613 $299 $375 forward 7 unknown #
point $-1 -24.024955133489613 -23.832980068725352 11.551652765083443 #
coedge $-1 $376 $216 $377 $378 forward $217 $-1 #
edge $-1 $218 24.024955133489613 $379 43.17636646626179 $300 $380 forward 7 unknown #
point $-1 -24.024955133489613 -23.832980068725352 -11.551652765083443 #
face $-1 $381 $382 $17 $-1 $383 forward single #
loop $-1 $-1 $384 $222 #
plane-surface $-1 -22.049008034792259 -11.103747583247827 0 0 -1 0 0 0 -1 forward_v I I I I #
coedge $-1 $385 $386 $387 $388 reversed $223 $-1 #
coedge $-1 $225 $389 $390 $391 forward $138 $-1 #
coedge $-1 $390 $235 $226 $315 forward $237 $-1 #
edge $-1 $319 -45.710745441764288 $316 -40.981728456117821 $314 $392 forward 7 unknown #
vertex $-1 $315 $393 #
straight-curve $-1 -13.908421948655098 16.301972247642134 11.551652765083446 0 -1 0 I I #
edge $-1 $233 -22.450306011963239 $319 -1.7888459617823198 $235 $394 forward 7 unknown #
vertex $-1 $318 $395 #
straight-curve $-1 -13.908421948655098 -15.683891583469183 33.477102771838531 0 -0.82903756765294845 0.55919291073839883 I I #
point $-1 -13.908421948655098 16.821924198948921 11.551652765083443 #
point $-1 -34.569881998836017 23.832980068725355 6.822635779436979 #
coedge $-1 $236 $396 $397 $398 reversed $237 $-1 #
face $-1 $399 $237 $17 $-1 $400 reversed single #
coedge $-1 $401 $239 $402 $403 forward $138 $-1 #
coedge $-1 $397 $404 $239 $327 reversed $405 $-1 #
edge $-1 $328 -23.832980068725352 $406 23.832980068725352 $326 $407 forward 7 unknown #
vertex $-1 $240 $408 #
straight-curve $-1 0 23.832980068725352 11.551652765083443 -1 0 0 I I #
face $-1 $409 $410 $18 $-1 $411 forward single #
loop $-1 $-1 $412 $243 #
plane-surface $-1 0 0 11.551652765083443 0 0 1 1 0 0 forward_v I I I I #
coedge $-1 $413 $414 $412 $415 reversed $244 $-1 #
coedge $-1 $416 $335 $340 $417 reversed $246 $-1 #
coedge $-1 $334 $418 $247 $336 reversed $246 $-1 #
edge $-1 $341 39.209098659357352 $419 47.66596013745071 $247 $420 forward 7 unknown #
coedge $-1 $421 $422 $248 $338 forward $423 $-1 #
edge $-1 $342 40.981728456117821 $419 45.710745441764288 $337 $424 forward 7 unknown #
coedge $-1 $425 $249 $422 $426 forward $331 $-1 #
coedge $-1 $249 $412 $334 $417 forward $331 $-1 #
vertex $-1 $417 $427 #
vertex $-1 $426 $428 #
straight-curve $-1 -34.569881998836017 16.301972247642134 11.551652765083446 0 1 0 I I #
vertex $-1 $251 $429 #
point $-1 -27.166607698784322 19.073658244784603 7.3283184249409334 #
face $-1 $430 $431 $19 $-1 $432 forward single #
plane-surface $-1 -24.239151973745557 -15.683891583469183 33.477102771838531 0 0.55919291073839883 0.82903756765294845 1 0 0 forward_v I I I I #
coedge $-1 $433 $434 $435 $436 reversed $256 $-1 #
coedge $-1 $349 $349 $-1 $437 forward $258 $-1 #
edge $-1 $438 0 $438 6.2831853071796004 $259 $439 forward 7 unknown #
vertex $-1 $262 $440 #
ellipse-curve $-1 -28.666607698784322 20.327452133837131 9.1871442722602108 0 -0.55919291073839883 -0.82903756765294845 1.5 0 0 1 I I #
vertex $-1 $263 $441 #
point $-1 -18.311696248706788 19.073658244784603 7.3283184249409334 #
loop $-1 $-1 $442 $255 #
straight-curve $-1 -43.17636646626179 23.832980068725352 0 0 0 -1 I I #
point $-1 -43.17636646626179 -23.832980068725352 -11.551652765083443 #
straight-curve $-1 -43.17636646626179 0 -11.551652765083443 0 1 0 I I #
point $-1 -43.17636646626179 23.832980068725352 -11.551652765083443 #
face $-1 $443 $444 $16 $-1 $445 reversed single #
coedge $-1 $446 $286 $291 $367 forward $122 $-1 #
straight-curve $-1 -20.073060936094905 -8.7341819129932947 11.551652765083443 0 -1 0 I I #
coedge $-1 $288 $447 $290 $366 forward $217 $-1 #
straight-curve $-1 -20.073060936094905 -8.7341819129932947 -11.551652765083443 0 1 0 I I #
coedge $-1 $291 $290 $448 $449 reversed $198 $-1 #
edge $-1 $450 -43.17636646626179 $293 20.073060936094905 $290 $380 forward 7 unknown #
edge $-1 $292 -20.073060936094905 $451 43.17636646626179 $291 $375 forward 7 unknown #
point $-1 -20.073060936094905 -23.832980068725352 11.551652765083443 #
point $-1 -20.073060936094905 -23.832980068725352 -11.551652765083443 #
coedge $-1 $300 $299 $452 $453 forward $301 $-1 #
coedge $-1 $303 $446 $454 $455 forward $122 $-1 #
coedge $-1 $456 $452 $303 $373 reversed $444 $-1 #
edge $-1 $457 -23.832980068725352 $374 23.832980068725352 $372 $458 forward 7 unknown #
vertex $-1 $373 $459 #
straight-curve $-1 0 -23.832980068725352 11.551652765083443 1 0 0 I I #
coedge $-1 $447 $306 $460 $461 forward $217 $-1 #
coedge $-1 $452 $456 $306 $378 reversed $444 $-1 #
edge $-1 $379 -23.832980068725352 $462 23.832980068725352 $377 $463 forward 7 unknown #
vertex $-1 $378 $464 #
straight-curve $-1 0 -23.832980068725352 -11.551652765083443 -1 0 0 I I #
face $-1 $465 $466 $17 $-1 $467 reversed single #
loop $-1 $-1 $468 $309 #
plane-surface $-1 -20.073060936094905 -17.468363825986589 0 -1 0 0 0 0 1 forward_v I I I I #
coedge $-1 $469 $470 $471 $472 reversed $310 $-1 #
coedge $-1 $473 $312 $401 $474 reversed $223 $-1 #
coedge $-1 $312 $473 $475 $476 reversed $223 $-1 #
coedge $-1 $470 $469 $312 $388 forward $310 $-1 #
edge $-1 $477 -11.551652765083443 $478 11.551652765083443 $387 $479 forward 7 unknown #
coedge $-1 $313 $480 $481 $482 forward $138 $-1 #
coedge $-1 $483 $314 $313 $391 reversed $237 $-1 #
edge $-1 $484 -43.17636646626179 $316 13.908421948655098 $390 $329 forward 7 unknown #
straight-curve $-1 -13.908421948655098 23.832980068725352 52.533381221201267 0 0 1 I I #
point $-1 -13.908421948655098 23.832980068725352 11.551652765083443 #
straight-curve $-1 -12.119575986872778 23.832980068725355 6.8226357794369825 1 0 0 I I #
point $-1 -13.908421948655098 23.832980068725355 6.822635779436979 #
coedge $-1 $323 $483 $485 $486 reversed $237 $-1 #
coedge $-1 $487 $326 $323 $398 forward $405 $-1 #
edge $-1 $328 -11.551652765083443 $488 11.551652765083443 $323 $489 forward 7 unknown #
face $-1 $-1 $490 $17 $-1 $491 reversed single #
plane-surface $-1 0 23.832980068725352 0 0 -1 0 0 0 -1 forward_v I I I I #
coedge $-1 $492 $325 $385 $474 forward $138 $-1 #
coedge $-1 $493 $494 $325 $403 reversed $495 $-1 #
edge $-1 $406 -43.17636646626179 $496 -24.024955133489613 $402 $497 forward 7 unknown #
coedge $-1 $326 $487 $493 $498 reversed $405 $-1 #
loop $-1 $-1 $397 $499 #
vertex $-1 $327 $500 #
straight-curve $-1 -43.17636646626179 0 11.551652765083443 0 -1 0 I I #
point $-1 -43.17636646626179 23.832980068725352 11.551652765083443 #
face $-1 $501 $502 $18 $-1 $503 forward single #
loop $-1 $-1 $504 $330 #
plane-surface $-1 -24.024955133489613 -17.468363825986589 0 1 0 0 0 0 -1 forward_v I I I I #
coedge $-1 $340 $505 $333 $415 forward $331 $-1 #
coedge $-1 $414 $333 $506 $507 reversed $244 $-1 #
coedge $-1 $333 $413 $416 $508 forward $244 $-1 #
edge $-1 $509 -7.5310078210832181 $510 -0.51995195130678695 $412 $511 forward 7 unknown #
coedge $-1 $418 $334 $414 $508 reversed $246 $-1 #
edge $-1 $510 1.7888459617823198 $341 22.450306011963239 $340 $512 forward 7 unknown #
coedge $-1 $335 $416 $421 $513 reversed $246 $-1 #
vertex $-1 $513 $514 #
straight-curve $-1 -34.569881998836017 -15.683891583469183 33.477102771838531 0 0.82903756765294845 -0.55919291073839883 I I #
coedge $-1 $506 $337 $418 $513 forward $423 $-1 #
coedge $-1 $337 $515 $339 $426 reversed $423 $-1 #
loop $-1 $-1 $506 $516 #
straight-curve $-1 -34.569881998836017 23.832980068725352 52.533381221201267 0 0 -1 I I #
coedge $-1 $517 $339 $518 $519 forward $331 $-1 #
edge $-1 $342 34.569881998836017 $520 43.17636646626179 $422 $521 forward 7 unknown #
point $-1 -34.569881998836017 16.821924198948921 11.551652765083443 #
point $-1 -34.569881998836017 23.832980068725352 11.551652765083443 #
point $-1 -28.666607698784322 18.234868878677005 6.0847620734615102 #
face $-1 $522 $523 $19 $-1 $524 forward single #
loop $-1 $-1 $525 $346 #
plane-surface $-1 -13.908421948655098 32.603944495284267 105.06676244240253 -1 0 0 0 0.55919291073839883 0.82903756765294845 forward_v I I I I #
coedge $-1 $434 $348 $526 $527 forward $256 $-1 #
coedge $-1 $348 $433 $528 $529 reversed $256 $-1 #
coedge $-1 $530 $531 $348 $436 forward $523 $-1 #
edge $-1 $532 0.51995195130678695 $533 7.5310078210832181 $435 $534 forward 7 unknown #
edge $-1 $535 1 $535 0 $349 $-1 forward 7 unknown #
vertex $-1 $350 $536 #
ellipse-curve $-1 -28.666607698784322 19.073658244784603 7.3283184249409334 0 0.55919291073839883 0.82903756765294845 1.5 0 0 1 I I #
point $-1 -27.166607698784322 20.327452133837127 9.1871442722602072 #
point $-1 -19.811696248706788 18.234868878677005 6.0847620734615102 #
coedge $-1 $537 $526 $531 $538 reversed $355 $-1 #
face $-1 $539 $540 $16 $-1 $541 reversed single #
loop $-1 $-1 $456 $360 #
plane-surface $-1 -43.17636646626179 0 0 1 0 0 0 0 -1 forward_v I I I I #
coedge $-1 $371 $361 $542 $543 forward $122 $-1 #
coedge $-1 $363 $376 $544 $545 forward $217 $-1 #
coedge $-1 $544 $542 $365 $449 forward $546 $-1 #
edge $-1 $451 -11.551652765083443 $450 11.551652765083443 $448 $547 forward 7 unknown #
vertex $-1 $449 $548 #
vertex $-1 $543 $549 #
coedge $-1 $372 $377 $370 $453 reversed $444 $-1 #
edge $-1 $374 -11.551652765083443 $379 11.551652765083443 $452 $550 forward 7 unknown #
coedge $-1 $551 $552 $371 $455 reversed $540 $-1 #
edge $-1 $553 -43.17636646626179 $457 43.17636646626179 $454 $554 forward 7 unknown #
coedge $-1 $377 $372 $552 $555 forward $444 $-1 #
vertex $-1 $455 $556 #
straight-curve $-1 -43.17636646626179 0 11.551652765083443 0 -1 0 I I #
point $-1 -43.17636646626179 -23.832980068725352 11.551652765083443 #
coedge $-1 $552 $551 $376 $461 reversed $540 $-1 #
edge $-1 $462 -43.17636646626179 $557 43.17636646626179 $460 $558 forward 7 unknown #
vertex $-1 $461 $559 #
straight-curve $-1 -43.17636646626179 0 -11.551652765083443 0 1 0 I I #
point $-1 -43.17636646626179 -23.832980068725352 -11.551652765083443 #
face $-1 $560 $561 $17 $-1 $562 reversed single #
loop $-1 $-1 $563 $381 #
plane-surface $-1 0 -23.832980068725352 0 0 1 0 0 0 1 forward_v I I I I #
coedge $-1 $564 $565 $563 $566 reversed $382 $-1 #
coedge $-1 $387 $384 $492 $567 reversed $310 $-1 #
coedge $-1 $384 $387 $568 $569 reversed $310 $-1 #
coedge $-1 $565 $564 $384 $472 forward $382 $-1 #
edge $-1 $570 -11.551652765083443 $571 11.551652765083443 $471 $572 forward 7 unknown #
coedge $-1 $386 $385 $494 $573 reversed $223 $-1 #
edge $-1 $496 -15.098798155732057 $477 -2.3695656702545325 $401 $574 forward 7 unknown #
coedge $-1 $575 $568 $386 $476 forward $561 $-1 #
edge $-1 $478 2.3695656702545325 $576 15.098798155732057 $475 $577 forward 7 unknown #
vertex $-1 $474 $578 #
vertex $-1 $476 $579 #
straight-curve $-1 -24.024955133489613 -11.103747583247827 0 0 0 -1 I I #
coedge $-1 $389 $580 $581 $582 forward $138 $-1 #
coedge $-1 $583 $584 $389 $482 reversed $490 $-1 #
edge $-1 $585 -23.832980068725352 $484 23.832980068725352 $481 $586 forward 7 unknown #
coedge $-1 $396 $390 $584 $587 forward $237 $-1 #
vertex $-1 $482 $588 #
coedge $-1 $589 $590 $396 $486 forward $561 $-1 #
edge $-1 $488 -43.17636646626179 $591 43.17636646626179 $396 $592 forward 7 unknown #
coedge $-1 $404 $397 $590 $593 reversed $405 $-1 #
vertex $-1 $486 $594 #
straight-curve $-1 -43.17636646626179 23.832980068725352 0 0 0 -1 I I #
loop $-1 $-1 $583 $399 #
plane-surface $-1 43.17636646626179 0 0 -1 0 0 0 0 1 forward_v I I I I #
coedge $-1 $580 $401 $469 $567 forward $138 $-1 #
coedge $-1 $595 $402 $404 $498 forward $495 $-1 #
coedge $-1 $402 $595 $473 $573 forward $495 $-1 #
loop $-1 $-1 $494 $560 #
vertex $-1 $573 $596 #
straight-curve $-1 0 -23.832980068725352 11.551652765083443 1 0 0 I I #
edge $-1 $406 -11.551652765083443 $597 11.551652765083443 $404 $598 forward 7 unknown #
face $-1 $324 $405 $17 $-1 $599 reversed single #
point $-1 -43.17636646626179 -23.832980068725352 11.551652765083443 #
face $-1 $600 $601 $18 $-1 $602 forward single #
loop $-1 $-1 $603 $409 #
plane-surface $-1 -22.049008034792259 -11.103747583247827 0 0 -1 0 0 0 -1 forward_v I I I I #
coedge $-1 $604 $605 $606 $607 reversed $410 $-1 #
coedge $-1 $412 $608 $609 $610 forward $331 $-1 #
coedge $-1 $609 $421 $413 $507 forward $423 $-1 #
edge $-1 $611 -45.710745441764288 $509 -40.981728456117821 $506 $612 forward 7 unknown #
edge $-1 $611 -47.66596013745071 $510 -39.209098659357352 $414 $613 forward 7 unknown #
vertex $-1 $507 $614 #
vertex $-1 $417 $615 #
straight-curve $-1 -13.908421948655098 16.301972247642134 11.551652765083446 0 -1 0 I I #
straight-curve $-1 -12.119575986872778 16.821924198948921 11.551652765083444 -1 0 0 I I #
edge $-1 $419 -22.450306011963239 $611 -1.7888459617823198 $421 $616 forward 7 unknown #
point $-1 -34.569881998836017 23.832980068725355 6.822635779436979 #
coedge $-1 $422 $617 $618 $619 reversed $423 $-1 #
face $-1 $620 $423 $18 $-1 $621 reversed single #
coedge $-1 $622 $425 $623 $624 forward $331 $-1 #
coedge $-1 $618 $625 $425 $519 reversed $626 $-1 #
edge $-1 $520 -23.832980068725352 $627 23.832980068725352 $518 $628 forward 7 unknown #
vertex $-1 $426 $629 #
straight-curve $-1 0 23.832980068725352 11.551652765083443 -1 0 0 I I #
face $-1 $630 $631 $19 $-1 $632 forward single #
loop $-1 $-1 $633 $430 #
plane-surface $-1 0 0 11.551652765083443 0 0 1 1 0 0 forward_v I I I I #
coedge $-1 $634 $635 $633 $636 reversed $431 $-1 #
coedge $-1 $442 $637 $433 $527 reversed $355 $-1 #
edge $-1 $532 39.209098659357352 $638 47.66596013745071 $433 $639 forward 7 unknown #
coedge $-1 $640 $641 $434 $529 forward $642 $-1 #
edge $-1 $533 40.981728456117821 $638 45.710745441764288 $528 $643 forward 7 unknown #
coedge $-1 $644 $435 $641 $645 forward $523 $-1 #
coedge $-1 $435 $633 $442 $538 forward $523 $-1 #
vertex $-1 $538 $646 #
vertex $-1 $645 $647 #
straight-curve $-1 -34.569881998836017 16.301972247642134 11.551652765083446 0 1 0 I I #
vertex $-1 $437 $648 #
point $-1 -27.166607698784322 19.073658244784603 7.3283184249409334 #
coedge $-1 $637 $442 $635 $649 reversed $355 $-1 #
edge $-1 $650 1.7888459617823198 $532 22.450306011963239 $531 $651 forward 7 unknown #
face $-1 $-1 $546 $16 $-1 $652 reversed single #
loop $-1 $-1 $551 $443 #
plane-surface $-1 0 23.832980068725352 0 0 -1 0 0 0 -1 forward_v I I I I #
coedge $-1 $448 $653 $446 $543 reversed $546 $-1 #
edge $-1 $451 -23.832980068725352 $553 23.832980068725352 $542 $654 forward 7 unknown #
coedge $-1 $653 $448 $447 $545 reversed $546 $-1 #
edge $-1 $557 -23.832980068725352 $450 23.832980068725352 $544 $655 forward 7 unknown #
loop $-1 $-1 $448 $539 #
straight-curve $-1 43.17636646626179 -23.832980068725352 0 0 0 -1 I I #
point $-1 43.17636646626179 -23.832980068725352 -11.551652765083443 #
point $-1 43.17636646626179 -23.832980068725352 11.551652765083443 #
straight-curve $-1 -43.17636646626179 -23.832980068725352 0 0 0 -1 I I #
coedge $-1 $460 $454 $653 $656 forward $540 $-1 #
coedge $-1 $454 $460 $456 $555 reversed $540 $-1 #
vertex $-1 $543 $657 #
straight-curve $-1 0 23.832980068725352 11.551652765083443 -1 0 0 I I #
edge $-1 $457 -11.551652765083443 $462 11.551652765083443 $552 $658 forward 7 unknown #
point $-1 -43.17636646626179 23.832980068725352 11.551652765083443 #
vertex $-1 $545 $659 #
straight-curve $-1 0 23.832980068725352 -11.551652765083443 1 0 0 I I #
point $-1 -43.17636646626179 23.832980068725352 -11.551652765083443 #
face $-1 $499 $495 $17 $-1 $467 reversed single #
loop $-1 $-1 $475 $465 #
plane-surface $-1 0 0 -11.551652765083443 0 0 1 1 0 0 forward_v I I I I #
coedge $-1 $660 $581 $468 $566 forward $466 $-1 #
coedge $-1 $471 $468 $580 $661 reversed $382 $-1 #
coedge $-1 $468 $471 $662 $663 reversed $382 $-1 #
edge $-1 $664 -11.551652765083443 $665 11.551652765083443 $563 $666 forward 7 unknown #
edge $-1 $477 -13.000451116093483 $570 -9.0485569186987753 $492 $667 forward 7 unknown #
coedge $-1 $475 $662 $470 $569 forward $561 $-1 #
edge $-1 $571 9.0485569186987753 $478 13.000451116093483 $568 $668 forward 7 unknown #
vertex $-1 $567 $669 #
vertex $-1 $569 $670 #
straight-curve $-1 -20.073060936094905 -11.103747583247827 0 0 0 -1 I I #
edge $-1 $576 -11.551652765083443 $496 11.551652765083443 $494 $671 forward 7 unknown #
straight-curve $-1 -24.024955133489613 -8.7341819129932947 11.551652765083443 0 1 0 I I #
coedge $-1 $590 $475 $595 $672 forward $561 $-1 #
vertex $-1 $672 $673 #
straight-curve $-1 -24.024955133489613 -8.7341819129932947 -11.551652765083443 0 -1 0 I I #
point $-1 -24.024955133489613 -11.103747583247827 11.551652765083443 #
point $-1 -24.024955133489613 -11.103747583247827 -11.551652765083443 #
coedge $-1 $480 $492 $564 $661 forward $138 $-1 #
coedge $-1 $563 $674 $480 $582 reversed $466 $-1 #
edge $-1 $664 -20.073060936094905 $585 43.17636646626179 $581 $497 forward 7 unknown #
coedge $-1 $675 $481 $674 $676 forward $490 $-1 #
coedge $-1 $481 $675 $483 $587 reversed $490 $-1 #
vertex $-1 $482 $677 #
straight-curve $-1 43.17636646626179 0 11.551652765083443 0 1 0 I I #
edge $-1 $484 -11.551652765083443 $591 11.551652765083443 $584 $678 forward 7 unknown #
point $-1 43.17636646626179 23.832980068725352 11.551652765083443 #
coedge $-1 $679 $485 $675 $680 forward $561 $-1 #
coedge $-1 $485 $575 $487 $593 forward $561 $-1 #
vertex $-1 $680 $681 #
straight-curve $-1 0 23.832980068725352 -11.551652765083443 1 0 0 I I #
edge $-1 $597 -23.832980068725352 $488 23.832980068725352 $487 $682 forward 7 unknown #
point $-1 -43.17636646626179 23.832980068725352 -11.551652765083443 #
coedge $-1 $494 $493 $575 $672 reversed $495 $-1 #
point $-1 -24.024955133489613 -23.832980068725352 11.551652765083443 #
vertex $-1 $593 $683 #
straight-curve $-1 -43.17636646626179 -23.832980068725352 0 0 0 -1 I I #
plane-surface $-1 -43.17636646626179 0 0 1 0 0 0 0 -1 forward_v I I I I #
face $-1 $684 $685 $18 $-1 $686 reversed single #
loop $-1 $-1 $687 $501 #
plane-surface $-1 -20.073060936094905 -17.468363825986589 0 -1 0 0 0 0 1 forward_v I I I I #
coedge $-1 $688 $689 $690 $691 reversed $502 $-1 #
coedge $-1 $692 $504 $622 $693 reversed $410 $-1 #
coedge $-1 $504 $692 $694 $695 reversed $410 $-1 #
coedge $-1 $689 $688 $504 $607 forward $502 $-1 #
edge $-1 $696 -11.551652765083443 $697 11.551652765083443 $606 $698 forward 7 unknown #
coedge $-1 $505 $699 $700 $701 forward $331 $-1 #
coedge $-1 $702 $506 $505 $610 reversed $423 $-1 #
edge $-1 $703 -43.17636646626179 $509 13.908421948655098 $609 $521 forward 7 unknown #
vertex $-1 $513 $704 #
straight-curve $-1 -13.908421948655098 23.832980068725352 52.533381221201267 0 0 1 I I #
straight-curve $-1 -13.908421948655098 -15.683891583469183 33.477102771838531 0 -0.82903756765294845 0.55919291073839883 I I #
point $-1 -13.908421948655098 23.832980068725352 11.551652765083443 #
point $-1 -13.908421948655098 16.821924198948921 11.551652765083443 #
straight-curve $-1 -12.119575986872778 23.832980068725355 6.8226357794369825 1 0 0 I I #
coedge $-1 $515 $702 $705 $706 reversed $423 $-1 #
coedge $-1 $707 $518 $515 $619 forward $626 $-1 #
edge $-1 $520 -11.551652765083443 $708 11.551652765083443 $515 $709 forward 7 unknown #
face $-1 $-1 $710 $18 $-1 $711 reversed single #
plane-surface $-1 0 23.832980068725352 0 0 -1 0 0 0 -1 forward_v I I I I #
coedge $-1 $712 $517 $604 $693 forward $331 $-1 #
coedge $-1 $713 $714 $517 $624 reversed $715 $-1 #
edge $-1 $627 -43.17636646626179 $716 -24.024955133489613 $623 $717 forward 7 unknown #
coedge $-1 $518 $707 $713 $718 reversed $626 $-1 #
loop $-1 $-1 $618 $719 #
vertex $-1 $519 $720 #
straight-curve $-1 -43.17636646626179 0 11.551652765083443 0 -1 0 I I #
point $-1 -43.17636646626179 23.832980068725352 11.551652765083443 #
face $-1 $721 $722 $19 $-1 $723 forward single #
loop $-1 $-1 $724 $522 #
plane-surface $-1 -24.024955133489613 -17.468363825986589 0 1 0 0 0 0 -1 forward_v I I I I #
coedge $-1 $531 $725 $525 $636 forward $523 $-1 #
coedge $-1 $635 $525 $726 $727 reversed $431 $-1 #
coedge $-1 $525 $634 $537 $649 forward $431 $-1 #
edge $-1 $728 -7.5310078210832181 $650 -0.51995195130678695 $633 $729 forward 7 unknown #
coedge $-1 $526 $537 $640 $730 reversed $355 $-1 #
vertex $-1 $730 $731 #
straight-curve $-1 -34.569881998836017 -15.683891583469183 33.477102771838531 0 0.82903756765294845 -0.55919291073839883 I I #
coedge $-1 $726 $528 $637 $730 forward $642 $-1 #
coedge $-1 $528 $732 $530 $645 reversed $642 $-1 #
loop $-1 $-1 $726 $733 #
straight-curve $-1 -34.569881998836017 23.832980068725352 52.533381221201267 0 0 -1 I I #
coedge $-1 $734 $530 $735 $736 forward $523 $-1 #
edge $-1 $533 34.569881998836017 $737 43.17636646626179 $641 $738 forward 7 unknown #
point $-1 -34.569881998836017 16.821924198948921 11.551652765083443 #
point $-1 -34.569881998836017 23.832980068725352 11.551652765083443 #
point $-1 -28.666607698784322 18.234868878677005 6.0847620734615102 #
edge $-1 $739 -47.66596013745071 $650 -39.209098659357352 $635 $740 forward 7 unknown #
vertex $-1 $538 $741 #
straight-curve $-1 -12.119575986872778 16.821924198948921 11.551652765083444 -1 0 0 I I #
plane-surface $-1 43.17636646626179 0 0 -1 0 0 0 0 1 forward_v I I I I #
coedge $-1 $542 $544 $551 $656 reversed $546 $-1 #
straight-curve $-1 43.17636646626179 0 11.551652765083443 0 1 0 I I #
straight-curve $-1 43.17636646626179 0 -11.551652765083443 0 -1 0 I I #
edge $-1 $553 -11.551652765083443 $557 11.551652765083443 $653 $742 forward 7 unknown #
point $-1 43.17636646626179 23.832980068725352 11.551652765083443 #
straight-curve $-1 -43.17636646626179 23.832980068725352 0 0 0 -1 I I #
point $-1 43.17636646626179 23.832980068725352 -11.551652765083443 #
coedge $-1 $674 $563 $679 $743 reversed $466 $-1 #
edge $-1 $570 2.3695656702545325 $664 15.098798155732057 $580 $744 forward 7 unknown #
coedge $-1 $568 $679 $565 $663 forward $561 $-1 #
edge $-1 $665 -15.098798155732057 $571 -2.3695656702545325 $662 $745 forward 7 unknown #
vertex $-1 $582 $746 #
vertex $-1 $566 $747 #
straight-curve $-1 -20.073060936094905 -23.832980068725352 0 0 0 -1 I I #
straight-curve $-1 -11.024504017396129 -11.103747583247827 11.551652765083443 1 0 0 I I #
straight-curve $-1 -11.024504017396129 -11.103747583247827 -11.551652765083443 -1 0 0 I I #
point $-1 -20.073060936094905 -11.103747583247827 11.551652765083443 #
point $-1 -20.073060936094905 -11.103747583247827 -11.551652765083443 #
straight-curve $-1 -24.024955133489613 -23.832980068725352 0 0 0 1 I I #
edge $-1 $576 24.024955133489613 $597 43.17636646626179 $595 $748 forward 7 unknown #
point $-1 -24.024955133489613 -23.832980068725352 -11.551652765083443 #
coedge $-1 $581 $660 $583 $676 reversed $466 $-1 #
coedge $-1 $584 $583 $589 $680 reversed $490 $-1 #
edge $-1 $585 -11.551652765083443 $749 11.551652765083443 $583 $750 forward 7 unknown #
point $-1 43.17636646626179 -23.832980068725352 11.551652765083443 #
straight-curve $-1 43.17636646626179 23.832980068725352 0 0 0 -1 I I #
coedge $-1 $662 $589 $660 $743 forward $561 $-1 #
edge $-1 $591 -23.832980068725352 $749 23.832980068725352 $675 $751 forward 7 unknown #
point $-1 43.17636646626179 23.832980068725352 -11.551652765083443 #
straight-curve $-1 -43.17636646626179 0 -11.551652765083443 0 1 0 I I #
point $-1 -43.17636646626179 -23.832980068725352 -11.551652765083443 #
face $-1 $752 $753 $18 $-1 $754 reversed single #
loop $-1 $-1 $755 $600 #
plane-surface $-1 0 -23.832980068725352 0 0 1 0 0 0 1 forward_v I I I I #
coedge $-1 $756 $757 $755 $758 reversed $601 $-1 #
coedge $-1 $606 $603 $712 $759 reversed $502 $-1 #
coedge $-1 $603 $606 $760 $761 reversed $502 $-1 #
coedge $-1 $757 $756 $603 $691 forward $601 $-1 #
edge $-1 $762 -11.551652765083443 $763 11.551652765083443 $690 $764 forward 7 unknown #
coedge $-1 $605 $604 $714 $765 reversed $410 $-1 #
edge $-1 $716 -15.098798155732057 $696 -2.3695656702545325 $622 $766 forward 7 unknown #
coedge $-1 $767 $760 $605 $695 forward $753 $-1 #
edge $-1 $697 2.3695656702545325 $768 15.098798155732057 $694 $769 forward 7 unknown #
vertex $-1 $693 $770 #
vertex $-1 $695 $771 #
straight-curve $-1 -24.024955133489613 -11.103747583247827 0 0 0 -1 I I #
coedge $-1 $608 $772 $773 $774 forward $331 $-1 #
coedge $-1 $775 $776 $608 $701 reversed $710 $-1 #
edge $-1 $777 -23.832980068725352 $703 23.832980068725352 $700 $778 forward 7 unknown #
coedge $-1 $617 $609 $776 $779 forward $423 $-1 #
vertex $-1 $701 $780 #
point $-1 -13.908421948655098 23.832980068725355 6.822635779436979 #
coedge $-1 $781 $782 $617 $706 forward $753 $-1 #
edge $-1 $708 -43.17636646626179 $783 43.17636646626179 $617 $784 forward 7 unknown #
coedge $-1 $625 $618 $782 $785 reversed $626 $-1 #
vertex $-1 $706 $786 #
straight-curve $-1 -43.17636646626179 23.832980068725352 0 0 0 -1 I I #
loop $-1 $-1 $775 $620 #
plane-surface $-1 43.17636646626179 0 0 -1 0 0 0 0 1 forward_v I I I I #
coedge $-1 $772 $622 $688 $759 forward $331 $-1 #
coedge $-1 $787 $623 $625 $718 forward $715 $-1 #
coedge $-1 $623 $787 $692 $765 forward $715 $-1 #
loop $-1 $-1 $714 $752 #
vertex $-1 $765 $788 #
straight-curve $-1 0 -23.832980068725352 11.551652765083443 1 0 0 I I #
edge $-1 $627 -11.551652765083443 $789 11.551652765083443 $625 $790 forward 7 unknown #
face $-1 $516 $626 $18 $-1 $791 reversed single #
point $-1 -43.17636646626179 -23.832980068725352 11.551652765083443 #
face $-1 $792 $793 $19 $-1 $794 forward single #
loop $-1 $-1 $795 $630 #
plane-surface $-1 -22.049008034792259 -11.103747583247827 0 0 -1 0 0 0 -1 forward_v I I I I #
coedge $-1 $796 $797 $798 $799 reversed $631 $-1 #
coedge $-1 $633 $800 $801 $802 forward $523 $-1 #
coedge $-1 $801 $640 $634 $727 forward $642 $-1 #
edge $-1 $739 -45.710745441764288 $728 -40.981728456117821 $726 $803 forward 7 unknown #
vertex $-1 $727 $804 #
straight-curve $-1 -13.908421948655098 16.301972247642134 11.551652765083446 0 -1 0 I I #
edge $-1 $638 -22.450306011963239 $739 -1.7888459617823198 $640 $805 forward 7 unknown #
point $-1 -34.569881998836017 23.832980068725355 6.822635779436979 #
coedge $-1 $641 $806 $807 $808 reversed $642 $-1 #
face $-1 $809 $642 $19 $-1 $810 reversed single #
coedge $-1 $811 $644 $812 $813 forward $523 $-1 #
coedge $-1 $807 $814 $644 $736 reversed $815 $-1 #
edge $-1 $737 -23.832980068725352 $816 23.832980068725352 $735 $817 forward 7 unknown #
vertex $-1 $645 $818 #
straight-curve $-1 0 23.832980068725352 11.551652765083443 -1 0 0 I I #
vertex $-1 $730 $819 #
straight-curve $-1 -13.908421948655098 -15.683891583469183 33.477102771838531 0 -0.82903756765294845 0.55919291073839883 I I #
point $-1 -13.908421948655098 16.821924198948921 11.551652765083443 #
straight-curve $-1 43.17636646626179 23.832980068725352 0 0 0 -1 I I #
edge $-1 $749 -43.17636646626179 $665 20.073060936094905 $660 $748 forward 7 unknown #
straight-curve $-1 -20.073060936094905 -8.7341819129932947 11.551652765083443 0 -1 0 I I #
straight-curve $-1 -20.073060936094905 -8.7341819129932947 -11.551652765083443 0 1 0 I I #
point $-1 -20.073060936094905 -23.832980068725352 11.551652765083443 #
point $-1 -20.073060936094905 -23.832980068725352 -11.551652765083443 #
straight-curve $-1 0 -23.832980068725352 -11.551652765083443 -1 0 0 I I #
vertex $-1 $676 $820 #
straight-curve $-1 43.17636646626179 -23.832980068725352 0 0 0 -1 I I #
straight-curve $-1 43.17636646626179 0 -11.551652765083443 0 -1 0 I I #
face $-1 $719 $715 $18 $-1 $686 reversed single #
loop $-1 $-1 $694 $684 #
plane-surface $-1 0 0 -11.551652765083443 0 0 1 1 0 0 forward_v I I I I #
coedge $-1 $821 $773 $687 $758 forward $685 $-1 #
coedge $-1 $690 $687 $772 $822 reversed $601 $-1 #
coedge $-1 $687 $690 $823 $824 reversed $601 $-1 #
edge $-1 $825 -11.551652765083443 $826 11.551652765083443 $755 $827 forward 7 unknown #
edge $-1 $696 -13.000451116093483 $762 -9.0485569186987753 $712 $828 forward 7 unknown #
coedge $-1 $694 $823 $689 $761 forward $753 $-1 #
edge $-1 $763 9.0485569186987753 $697 13.000451116093483 $760 $829 forward 7 unknown #
vertex $-1 $759 $830 #
vertex $-1 $761 $831 #
straight-curve $-1 -20.073060936094905 -11.103747583247827 0 0 0 -1 I I #
edge $-1 $768 -11.551652765083443 $716 11.551652765083443 $714 $832 forward 7 unknown #
straight-curve $-1 -24.024955133489613 -8.7341819129932947 11.551652765083443 0 1 0 I I #
coedge $-1 $782 $694 $787 $833 forward $753 $-1 #
vertex $-1 $833 $834 #
straight-curve $-1 -24.024955133489613 -8.7341819129932947 -11.551652765083443 0 -1 0 I I #
point $-1 -24.024955133489613 -11.103747583247827 11.551652765083443 #
point $-1 -24.024955133489613 -11.103747583247827 -11.551652765083443 #
coedge $-1 $699 $712 $756 $822 forward $331 $-1 #
coedge $-1 $755 $835 $699 $774 reversed $685 $-1 #
edge $-1 $825 -20.073060936094905 $777 43.17636646626179 $773 $717 forward 7 unknown #
coedge $-1 $836 $700 $835 $837 forward $710 $-1 #
coedge $-1 $700 $836 $702 $779 reversed $710 $-1 #
vertex $-1 $701 $838 #
straight-curve $-1 43.17636646626179 0 11.551652765083443 0 1 0 I I #
edge $-1 $703 -11.551652765083443 $783 11.551652765083443 $776 $839 forward 7 unknown #
point $-1 43.17636646626179 23.832980068725352 11.551652765083443 #
coedge $-1 $840 $705 $836 $841 forward $753 $-1 #
coedge $-1 $705 $767 $707 $785 forward $753 $-1 #
vertex $-1 $841 $842 #
straight-curve $-1 0 23.832980068725352 -11.551652765083443 1 0 0 I I #
edge $-1 $789 -23.832980068725352 $708 23.832980068725352 $707 $843 forward 7 unknown #
point $-1 -43.17636646626179 23.832980068725352 -11.551652765083443 #
coedge $-1 $714 $713 $767 $833 reversed $715 $-1 #
point $-1 -24.024955133489613 -23.832980068725352 11.551652765083443 #
vertex $-1 $785 $844 #
straight-curve $-1 -43.17636646626179 -23.832980068725352 0 0 0 -1 I I #
plane-surface $-1 -43.17636646626179 0 0 1 0 0 0 0 -1 forward_v I I I I #
face $-1 $845 $846 $19 $-1 $847 reversed single #
loop $-1 $-1 $848 $721 #
plane-surface $-1 -20.073060936094905 -17.468363825986589 0 -1 0 0 0 0 1 forward_v I I I I #
coedge $-1 $849 $850 $851 $852 reversed $722 $-1 #
coedge $-1 $853 $724 $811 $854 reversed $631 $-1 #
coedge $-1 $724 $853 $855 $856 reversed $631 $-1 #
coedge $-1 $850 $849 $724 $799 forward $722 $-1 #
edge $-1 $857 -11.551652765083443 $858 11.551652765083443 $798 $859 forward 7 unknown #
coedge $-1 $725 $860 $861 $862 forward $523 $-1 #
coedge $-1 $863 $726 $725 $802 reversed $642 $-1 #
edge $-1 $864 -43.17636646626179 $728 13.908421948655098 $801 $738 forward 7 unknown #
straight-curve $-1 -13.908421948655098 23.832980068725352 52.533381221201267 0 0 1 I I #
point $-1 -13.908421948655098 23.832980068725352 11.551652765083443 #
straight-curve $-1 -12.119575986872778 23.832980068725355 6.8226357794369825 1 0 0 I I #
coedge $-1 $732 $863 $865 $866 reversed $642 $-1 #
coedge $-1 $867 $735 $732 $808 forward $815 $-1 #
edge $-1 $737 -11.551652765083443 $868 11.551652765083443 $732 $869 forward 7 unknown #
face $-1 $-1 $870 $19 $-1 $871 reversed single #
plane-surface $-1 0 23.832980068725352 0 0 -1 0 0 0 -1 forward_v I I I I #
coedge $-1 $872 $734 $796 $854 forward $523 $-1 #
coedge $-1 $873 $874 $734 $813 reversed $875 $-1 #
edge $-1 $816 -43.17636646626179 $876 -24.024955133489613 $812 $877 forward 7 unknown #
coedge $-1 $735 $867 $873 $878 reversed $815 $-1 #
loop $-1 $-1 $807 $879 #
vertex $-1 $736 $880 #
straight-curve $-1 -43.17636646626179 0 11.551652765083443 0 -1 0 I I #
point $-1 -43.17636646626179 23.832980068725352 11.551652765083443 #
point $-1 -13.908421948655098 23.832980068725355 6.822635779436979 #
point $-1 43.17636646626179 -23.832980068725352 -11.551652765083443 #
coedge $-1 $835 $755 $840 $881 reversed $685 $-1 #
edge $-1 $762 2.3695656702545325 $825 15.098798155732057 $772 $882 forward 7 unknown #
coedge $-1 $760 $840 $757 $824 forward $753 $-1 #
edge $-1 $826 -15.098798155732057 $763 -2.3695656702545325 $823 $883 forward 7 unknown #
vertex $-1 $774 $884 #
vertex $-1 $758 $885 #
straight-curve $-1 -20.073060936094905 -23.832980068725352 0 0 0 -1 I I #
straight-curve $-1 -11.024504017396129 -11.103747583247827 11.551652765083443 1 0 0 I I #
straight-curve $-1 -11.024504017396129 -11.103747583247827 -11.551652765083443 -1 0 0 I I #
point $-1 -20.073060936094905 -11.103747583247827 11.551652765083443 #
point $-1 -20.073060936094905 -11.103747583247827 -11.551652765083443 #
straight-curve $-1 -24.024955133489613 -23.832980068725352 0 0 0 1 I I #
edge $-1 $768 24.024955133489613 $789 43.17636646626179 $787 $886 forward 7 unknown #
point $-1 -24.024955133489613 -23.832980068725352 -11.551652765083443 #
coedge $-1 $773 $821 $775 $837 reversed $685 $-1 #
coedge $-1 $776 $775 $781 $841 reversed $710 $-1 #
edge $-1 $777 -11.551652765083443 $887 11.551652765083443 $775 $888 forward 7 unknown #
point $-1 43.17636646626179 -23.832980068725352 11.551652765083443 #
straight-curve $-1 43.17636646626179 23.832980068725352 0 0 0 -1 I I #
coedge $-1 $823 $781 $821 $881 forward $753 $-1 #
edge $-1 $783 -23.832980068725352 $887 23.832980068725352 $836 $889 forward 7 unknown #
point $-1 43.17636646626179 23.832980068725352 -11.551652765083443 #
straight-curve $-1 -43.17636646626179 0 -11.551652765083443 0 1 0 I I #
point $-1 -43.17636646626179 -23.832980068725352 -11.551652765083443 #
face $-1 $890 $891 $19 $-1 $892 reversed single #
loop $-1 $-1 $893 $792 #
plane-surface $-1 0 -23.832980068725352 0 0 1 0 0 0 1 forward_v I I I I #
coedge $-1 $894 $895 $893 $896 reversed $793 $-1 #
coedge $-1 $798 $795 $872 $897 reversed $722 $-1 #
coedge $-1 $795 $798 $898 $899 reversed $722 $-1 #
coedge $-1 $895 $894 $795 $852 forward $793 $-1 #
edge $-1 $900 -11.551652765083443 $901 11.551652765083443 $851 $902 forward 7 unknown #
coedge $-1 $797 $796 $874 $903 reversed $631 $-1 #
edge $-1 $876 -15.098798155732057 $857 -2.3695656702545325 $811 $904 forward 7 unknown #
coedge $-1 $905 $898 $797 $856 forward $891 $-1 #
edge $-1 $858 2.3695656702545325 $906 15.098798155732057 $855 $907 forward 7 unknown #
vertex $-1 $854 $908 #
vertex $-1 $856 $909 #
straight-curve $-1 -24.024955133489613 -11.103747583247827 0 0 0 -1 I I #
coedge $-1 $800 $910 $911 $912 forward $523 $-1 #
coedge $-1 $913 $914 $800 $862 reversed $870 $-1 #
edge $-1 $915 -23.832980068725352 $864 23.832980068725352 $861 $916 forward 7 unknown #
coedge $-1 $806 $801 $914 $917 forward $642 $-1 #
vertex $-1 $862 $918 #
coedge $-1 $919 $920 $806 $866 forward $891 $-1 #
edge $-1 $868 -43.17636646626179 $921 43.17636646626179 $806 $922 forward 7 unknown #
coedge $-1 $814 $807 $920 $923 reversed $815 $-1 #
vertex $-1 $866 $924 #
straight-curve $-1 -43.17636646626179 23.832980068725352 0 0 0 -1 I I #
loop $-1 $-1 $913 $809 #
plane-surface $-1 43.17636646626179 0 0 -1 0 0 0 0 1 forward_v I I I I #
coedge $-1 $910 $811 $849 $897 forward $523 $-1 #
coedge $-1 $925 $812 $814 $878 forward $875 $-1 #
coedge $-1 $812 $925 $853 $903 forward $875 $-1 #
loop $-1 $-1 $874 $890 #
vertex $-1 $903 $926 #
straight-curve $-1 0 -23.832980068725352 11.551652765083443 1 0 0 I I #
edge $-1 $816 -11.551652765083443 $927 11.551652765083443 $814 $928 forward 7 unknown #
face $-1 $733 $815 $19 $-1 $929 reversed single #
point $-1 -43.17636646626179 -23.832980068725352 11.551652765083443 #
edge $-1 $887 -43.17636646626179 $826 20.073060936094905 $821 $886 forward 7 unknown #
straight-curve $-1 -20.073060936094905 -8.7341819129932947 11.551652765083443 0 -1 0 I I #
straight-curve $-1 -20.073060936094905 -8.7341819129932947 -11.551652765083443 0 1 0 I I #
point $-1 -20.073060936094905 -23.832980068725352 11.551652765083443 #
point $-1 -20.073060936094905 -23.832980068725352 -11.551652765083443 #
straight-curve $-1 0 -23.832980068725352 -11.551652765083443 -1 0 0 I I #
vertex $-1 $837 $930 #
straight-curve $-1 43.17636646626179 -23.832980068725352 0 0 0 -1 I I #
straight-curve $-1 43.17636646626179 0 -11.551652765083443 0 -1 0 I I #
face $-1 $879 $875 $19 $-1 $847 reversed single #
loop $-1 $-1 $855 $845 #
plane-surface $-1 0 0 -11.551652765083443 0 0 1 1 0 0 forward_v I I I I #
coedge $-1 $931 $911 $848 $896 forward $846 $-1 #
coedge $-1 $851 $848 $910 $932 reversed $793 $-1 #
coedge $-1 $848 $851 $933 $934 reversed $793 $-1 #
edge $-1 $935 -11.551652765083443 $936 11.551652765083443 $893 $937 forward 7 unknown #
edge $-1 $857 -13.000451116093483 $900 -9.0485569186987753 $872 $938 forward 7 unknown #
coedge $-1 $855 $933 $850 $899 forward $891 $-1 #
edge $-1 $901 9.0485569186987753 $858 13.000451116093483 $898 $939 forward 7 unknown #
vertex $-1 $897 $940 #
vertex $-1 $899 $941 #
straight-curve $-1 -20.073060936094905 -11.103747583247827 0 0 0 -1 I I #
edge $-1 $906 -11.551652765083443 $876 11.551652765083443 $874 $942 forward 7 unknown #
straight-curve $-1 -24.024955133489613 -8.7341819129932947 11.551652765083443 0 1 0 I I #
coedge $-1 $920 $855 $925 $943 forward $891 $-1 #
vertex $-1 $943 $944 #
straight-curve $-1 -24.024955133489613 -8.7341819129932947 -11.551652765083443 0 -1 0 I I #
point $-1 -24.024955133489613 -11.103747583247827 11.551652765083443 #
point $-1 -24.024955133489613 -11.103747583247827 -11.551652765083443 #
coedge $-1 $860 $872 $894 $932 forward $523 $-1 #
coedge $-1 $893 $945 $860 $912 reversed $846 $-1 #
edge $-1 $935 -20.073060936094905 $915 43.17636646626179 $911 $877 forward 7 unknown #
coedge $-1 $946 $861 $945 $947 forward $870 $-1 #
coedge $-1 $861 $946 $863 $917 reversed $870 $-1 #
vertex $-1 $862 $948 #
straight-curve $-1 43.17636646626179 0 11.551652765083443 0 1 0 I I #
edge $-1 $864 -11.551652765083443 $921 11.551652765083443 $914 $949 forward 7 unknown #
point $-1 43.17636646626179 23.832980068725352 11.551652765083443 #
coedge $-1 $950 $865 $946 $951 forward $891 $-1 #
coedge $-1 $865 $905 $867 $923 forward $891 $-1 #
vertex $-1 $951 $952 #
straight-curve $-1 0 23.832980068725352 -11.551652765083443 1 0 0 I I #
edge $-1 $927 -23.832980068725352 $868 23.832980068725352 $867 $953 forward 7 unknown #
point $-1 -43.17636646626179 23.832980068725352 -11.551652765083443 #
coedge $-1 $874 $873 $905 $943 reversed $875 $-1 #
point $-1 -24.024955133489613 -23.832980068725352 11.551652765083443 #
vertex $-1 $923 $954 #
straight-curve $-1 -43.17636646626179 -23.832980068725352 0 0 0 -1 I I #
plane-surface $-1 -43.17636646626179 0 0 1 0 0 0 0 -1 forward_v I I I I #
point $-1 43.17636646626179 -23.832980068725352 -11.551652765083443 #
coedge $-1 $945 $893 $950 $955 reversed $846 $-1 #
edge $-1 $900 2.3695656702545325 $935 15.098798155732057 $910 $956 forward 7 unknown #
coedge $-1 $898 $950 $895 $934 forward $891 $-1 #
edge $-1 $936 -15.098798155732057 $901 -2.3695656702545325 $933 $957 forward 7 unknown #
vertex $-1 $912 $958 #
vertex $-1 $896 $959 #
straight-curve $-1 -20.073060936094905 -23.832980068725352 0 0 0 -1 I I #
straight-curve $-1 -11.024504017396129 -11.103747583247827 11.551652765083443 1 0 0 I I #
straight-curve $-1 -11.024504017396129 -11.103747583247827 -11.551652765083443 -1 0 0 I I #
point $-1 -20.073060936094905 -11.103747583247827 11.551652765083443 #
point $-1 -20.073060936094905 -11.103747583247827 -11.551652765083443 #
straight-curve $-1 -24.024955133489613 -23.832980068725352 0 0 0 1 I I #
edge $-1 $906 24.024955133489613 $927 43.17636646626179 $925 $960 forward 7 unknown #
point $-1 -24.024955133489613 -23.832980068725352 -11.551652765083443 #
coedge $-1 $911 $931 $913 $947 reversed $846 $-1 #
coedge $-1 $914 $913 $919 $951 reversed $870 $-1 #
edge $-1 $915 -11.551652765083443 $961 11.551652765083443 $913 $962 forward 7 unknown #
point $-1 43.17636646626179 -23.832980068725352 11.551652765083443 #
straight-curve $-1 43.17636646626179 23.832980068725352 0 0 0 -1 I I #
coedge $-1 $933 $919 $931 $955 forward $891 $-1 #
edge $-1 $921 -23.832980068725352 $961 23.832980068725352 $946 $963 forward 7 unknown #
point $-1 43.17636646626179 23.832980068725352 -11.551652765083443 #
straight-curve $-1 -43.17636646626179 0 -11.551652765083443 0 1 0 I I #
point $-1 -43.17636646626179 -23.832980068725352 -11.551652765083443 #
edge $-1 $961 -43.17636646626179 $936 20.073060936094905 $931 $960 forward 7 unknown #
straight-curve $-1 -20.073060936094905 -8.7341819129932947 11.551652765083443 0 -1 0 I I #
straight-curve $-1 -20.073060936094905 -8.7341819129932947 -11.551652765083443 0 1 0 I I #
point $-1 -20.073060936094905 -23.832980068725352 11.551652765083443 #
point $-1 -20.073060936094905 -23.832980068725352 -11.551652765083443 #
straight-curve $-1 0 -23.832980068725352 -11.551652765083443 -1 0 0 I I #
vertex $-1 $947 $964 #
straight-curve $-1 43.17636646626179 -23.832980068725352 0 0 0 -1 I I #
straight-curve $-1 43.17636646626179 0 -11.551652765083443 0 -1 0 I I #
point $-1 43.17636646626179 -23.832980068725352 -11.551652765083443 #
End-of-ACIS-data 