500 0 5 0           
7 Unknown 11 ACIS 5.0 NT 24 Thu Mar 25 15:40:51 1999 
-1 9.9999999999999995e-007 1e-010 
body $-1 $5 $-1 $6 #
body $-1 $7 $-1 $8 #
body $-1 $9 $-1 $10 #
body $-1 $11 $-1 $12 #
body $-1 $13 $-1 $14 #
lump $-1 $-1 $15 $0 #
transform $-1 1 0 0 0 1 0 0 0 1 67.806024353770567 45.141798116024148 16.00028557693155 1 rotate no_reflect no_shear #
lump $-1 $-1 $16 $1 #
transform $-1 1 0 0 0 1 0 0 0 1 67.806024353770567 45.141798116024148 16.00028557693155 1 rotate no_reflect no_shear #
lump $-1 $-1 $17 $2 #
transform $-1 1 0 0 0 1 0 0 0 1 67.806024353770567 45.141798116024148 16.00028557693155 1 rotate no_reflect no_shear #
lump $-1 $-1 $18 $3 #
transform $-1 1 0 0 0 1 0 0 0 1 67.806024353770567 45.141798116024148 16.00028557693155 1 rotate no_reflect no_shear #
lump $-1 $-1 $19 $4 #
transform $-1 1 0 0 0 1 0 0 0 1 67.806024353770567 45.141798116024148 16.00028557693155 1 rotate no_reflect no_shear #
shell $-1 $-1 $-1 $20 $-1 $5 #
shell $-1 $-1 $-1 $21 $-1 $7 #
shell $-1 $-1 $-1 $22 $-1 $9 #
shell $-1 $-1 $-1 $23 $-1 $11 #
shell $-1 $-1 $-1 $24 $-1 $13 #
face $-1 $25 $26 $15 $-1 $27 forward single #
face $-1 $28 $29 $16 $-1 $30 forward single #
face $-1 $31 $32 $17 $-1 $33 reversed single #
face $-1 $34 $35 $18 $-1 $36 forward single #
face $-1 $37 $38 $19 $-1 $39 reversed single #
face $-1 $40 $41 $15 $-1 $42 reversed single #
loop $-1 $-1 $43 $20 #
plane-surface $-1 0 0 16.00028557693155 0 0 1 1 0 0 forward_v I I I I #
face $-1 $44 $45 $16 $-1 $46 forward single #
loop $-1 $-1 $47 $21 #
plane-surface $-1 61.019213902003202 -45.141798116024162 4.9077893181140695 0 -0.69465837861970381 0.71933979245794832 1 0 0 forward_v I I I I #
face $-1 $48 $49 $17 $-1 $50 reversed single #
loop $-1 $51 $52 $22 #
cone-surface $-1 61.019213902003202 -38.290115005860144 9.3062813810752658 0 0.69465837861970381 -0.71933979245794832 2 0 0 1 I I 0 1 2 forward I I I I #
face $-1 $53 $54 $18 $-1 $55 forward single #
loop $-1 $-1 $56 $23 #
plane-surface $-1 61.019213902003202 -19.802785259894677 67.624045892624707 0 0.69465837861970381 0.71933979245794832 1 0 0 forward_v I I I I #
face $-1 $57 $58 $19 $-1 $59 reversed single #
loop $-1 $60 $61 $24 #
cone-surface $-1 61.019213902003202 38.290115005860137 9.3062813810752658 0 -0.69465837861970381 -0.71933979245794832 2 0 0 1 I I 0 1 2 forward I I I I #
face $-1 $62 $63 $15 $-1 $64 reversed single #
loop $-1 $-1 $65 $25 #
plane-surface $-1 0 0 -16.00028557693155 0 0 1 1 0 0 forward_v I I I I #
coedge $-1 $66 $67 $68 $69 forward $26 $-1 #
face $-1 $70 $71 $16 $-1 $72 forward single #
loop $-1 $-1 $73 $28 #
plane-surface $-1 54.232403450235836 -139.34584399250099 102.45893229019389 1 0 0 0 0.69465837861970381 -0.71933979245794832 forward_v I I I I #
coedge $-1 $74 $75 $76 $77 reversed $29 $-1 #
face $-1 $78 $79 $17 $-1 $80 forward single #
loop $-1 $81 $82 $31 #
cone-surface $-1 61.019213902003202 -36.487081452491601 7.4391855221697831 0 0.69465837861970381 -0.71933979245794832 1 0 0 1 I I -0.70710678118654724 0.70710678118654791 1 forward I I I I #
loop $-1 $-1 $83 $22 #
coedge $-1 $52 $52 $84 $85 reversed $32 $-1 #
face $-1 $86 $87 $18 $-1 $88 reversed single #
loop $-1 $-1 $89 $34 #
plane-surface $-1 54.232403450235836 74.40126061658215 165.17518886470452 1 0 0 0 -0.69465837861970381 -0.71933979245794832 forward_v I I I I #
coedge $-1 $90 $91 $92 $93 reversed $35 $-1 #
face $-1 $94 $95 $19 $-1 $96 forward single #
loop $-1 $97 $98 $37 #
cone-surface $-1 61.019213902003202 36.487081452491594 7.4391855221697831 0 -0.69465837861970381 -0.71933979245794832 1 0 0 1 I I -0.70710678118654724 0.70710678118654791 1 forward I I I I #
loop $-1 $-1 $99 $24 #
coedge $-1 $61 $61 $100 $101 reversed $38 $-1 #
face $-1 $102 $103 $15 $-1 $104 reversed single #
loop $-1 $-1 $105 $40 #
plane-surface $-1 0 -45.141798116024148 0 0 1 0 0 0 1 forward_v I I I I #
coedge $-1 $106 $107 $108 $109 forward $41 $-1 #
coedge $-1 $110 $43 $111 $112 forward $26 $-1 #
coedge $-1 $43 $110 $113 $114 forward $26 $-1 #
coedge $-1 $115 $116 $43 $69 reversed $117 $-1 #
edge $-1 $118 -45.141798116024148 $119 45.141798116024148 $68 $120 forward 7 unknown #
face $-1 $121 $122 $16 $-1 $123 reversed single #
loop $-1 $-1 $124 $44 #
plane-surface $-1 0 0 16.00028557693155 0 0 1 1 0 0 forward_v I I I I #
coedge $-1 $125 $126 $124 $127 reversed $45 $-1 #
coedge $-1 $128 $47 $126 $129 reversed $29 $-1 #
coedge $-1 $47 $128 $130 $131 reversed $29 $-1 #
coedge $-1 $132 $124 $47 $77 forward $71 $-1 #
edge $-1 $133 23.722796499234235 $134 37.296417402768967 $76 $135 forward 7 unknown #
face $-1 $136 $137 $17 $-1 $138 forward single #
loop $-1 $139 $84 $48 #
plane-surface $-1 61.019213902003202 -45.141798116024162 4.9077893181140695 0 -0.69465837861970381 0.71933979245794832 1 0 0 forward_v I I I I #
loop $-1 $-1 $140 $31 #
coedge $-1 $82 $82 $83 $141 forward $49 $-1 #
coedge $-1 $83 $83 $82 $141 reversed $51 $-1 #
coedge $-1 $84 $84 $52 $85 forward $79 $-1 #
edge $-1 $142 -1.7537199311053519e-016 $142 6.2831853071796004 $84 $143 forward 7 unknown #
face $-1 $144 $145 $18 $-1 $146 reversed single #
loop $-1 $-1 $147 $53 #
plane-surface $-1 0 45.141798116024148 0 0 -1 0 0 0 -1 forward_v I I I I #
coedge $-1 $148 $149 $147 $150 reversed $54 $-1 #
coedge $-1 $151 $56 $149 $152 reversed $35 $-1 #
coedge $-1 $56 $151 $153 $154 reversed $35 $-1 #
coedge $-1 $155 $147 $56 $93 forward $87 $-1 #
edge $-1 $156 23.722796499234235 $157 37.296417402768967 $92 $158 forward 7 unknown #
face $-1 $159 $160 $19 $-1 $161 forward single #
loop $-1 $162 $100 $57 #
plane-surface $-1 61.019213902003202 -19.802785259894677 67.624045892624707 0 0.69465837861970381 0.71933979245794832 1 0 0 forward_v I I I I #
loop $-1 $-1 $163 $37 #
coedge $-1 $98 $98 $99 $164 forward $58 $-1 #
coedge $-1 $99 $99 $98 $164 reversed $60 $-1 #
coedge $-1 $100 $100 $61 $101 forward $95 $-1 #
edge $-1 $165 1.2339611619077996e-015 $165 6.2831853071796013 $100 $166 forward 7 unknown #
face $-1 $167 $168 $15 $-1 $169 reversed single #
loop $-1 $-1 $170 $62 #
plane-surface $-1 -67.806024353770567 0 0 1 0 0 0 0 -1 forward_v I I I I #
coedge $-1 $171 $113 $172 $173 forward $63 $-1 #
coedge $-1 $174 $65 $171 $175 forward $41 $-1 #
coedge $-1 $65 $174 $176 $177 forward $41 $-1 #
coedge $-1 $116 $115 $65 $109 reversed $117 $-1 #
edge $-1 $178 -45.141798116024148 $179 45.141798116024148 $108 $180 forward 7 unknown #
coedge $-1 $67 $66 $181 $182 forward $26 $-1 #
coedge $-1 $183 $184 $66 $112 reversed $168 $-1 #
edge $-1 $119 -67.806024353770567 $185 67.806024353770567 $111 $186 forward 7 unknown #
coedge $-1 $105 $187 $67 $114 reversed $63 $-1 #
edge $-1 $188 -67.806024353770567 $118 67.806024353770567 $113 $189 forward 7 unknown #
coedge $-1 $108 $68 $187 $190 forward $117 $-1 #
coedge $-1 $68 $108 $183 $191 reversed $117 $-1 #
loop $-1 $-1 $115 $167 #
vertex $-1 $69 $192 #
vertex $-1 $69 $193 #
straight-curve $-1 67.806024353770567 0 16.00028557693155 0 1 0 I I #
face $-1 $194 $195 $16 $-1 $196 reversed single #
loop $-1 $-1 $130 $70 #
plane-surface $-1 67.806024353770567 0 0 -1 0 0 0 0 1 forward_v I I I I #
coedge $-1 $76 $197 $73 $127 forward $71 $-1 #
coedge $-1 $126 $73 $198 $199 reversed $45 $-1 #
coedge $-1 $73 $125 $74 $129 forward $45 $-1 #
edge $-1 $200 24.531123880226346 $133 36.017739751056631 $124 $201 forward 7 unknown #
coedge $-1 $75 $74 $202 $203 reversed $29 $-1 #
edge $-1 $204 1.9477141995791963e-014 $133 15.968275342562524 $126 $205 forward 7 unknown #
coedge $-1 $206 $207 $75 $131 forward $122 $-1 #
edge $-1 $134 -1.4367479837469201 $208 14.531527358815584 $130 $209 forward 7 unknown #
coedge $-1 $210 $76 $207 $211 forward $71 $-1 #
vertex $-1 $77 $212 #
vertex $-1 $211 $213 #
straight-curve $-1 30.509606951001601 -33.655182245193856 16.00028557693155 1 0 0 I I #
face $-1 $214 $215 $17 $-1 $216 forward single #
loop $-1 $-1 $217 $78 #
plane-surface $-1 54.232403450235836 -139.34584399250099 102.45893229019389 1 0 0 0 0.69465837861970381 -0.71933979245794832 forward_v I I I I #
loop $-1 $-1 $218 $48 #
coedge $-1 $140 $140 $-1 $219 forward $81 $-1 #
edge $-1 $220 0 $220 6.2831853071796004 $82 $221 forward 7 unknown #
vertex $-1 $85 $222 #
ellipse-curve $-1 61.019213902003202 -39.398490180609002 10.454037447522818 0 0.69465837861970381 -0.71933979245794832 2 0 0 1 I I #
face $-1 $223 $224 $18 $-1 $225 reversed single #
loop $-1 $-1 $153 $86 #
plane-surface $-1 67.806024353770567 0 0 -1 0 0 0 0 1 forward_v I I I I #
coedge $-1 $92 $226 $89 $150 forward $87 $-1 #
coedge $-1 $149 $89 $227 $228 reversed $54 $-1 #
coedge $-1 $89 $148 $90 $152 forward $54 $-1 #
edge $-1 $229 66.587308855420716 $156 77.679805114238221 $147 $230 forward 7 unknown #
coedge $-1 $91 $90 $231 $232 reversed $35 $-1 #
edge $-1 $233 74.315320889485719 $156 90.283596232048282 $149 $234 forward 7 unknown #
coedge $-1 $235 $236 $91 $154 forward $145 $-1 #
edge $-1 $157 -59.67332547483975 $237 -43.705050132277186 $153 $238 forward 7 unknown #
coedge $-1 $239 $92 $236 $240 forward $87 $-1 #
vertex $-1 $93 $241 #
vertex $-1 $240 $242 #
straight-curve $-1 30.509606951001601 45.141798116024148 4.9077893181140446 1 0 0 I I #
face $-1 $243 $244 $19 $-1 $245 reversed single #
loop $-1 $-1 $246 $94 #
plane-surface $-1 54.232403450235836 74.40126061658215 165.17518886470452 1 0 0 0 -0.69465837861970381 -0.71933979245794832 forward_v I I I I #
loop $-1 $-1 $247 $57 #
coedge $-1 $163 $163 $-1 $248 forward $97 $-1 #
edge $-1 $249 0 $249 6.2831853071796004 $98 $250 forward 7 unknown #
vertex $-1 $101 $251 #
ellipse-curve $-1 61.019213902003202 39.398490180608981 10.454037447522801 0 -0.69465837861970381 -0.71933979245794832 2 0 0 1 I I #
face $-1 $-1 $117 $15 $-1 $252 reversed single #
loop $-1 $-1 $183 $102 #
plane-surface $-1 0 45.141798116024148 0 0 -1 0 0 0 -1 forward_v I I I I #
coedge $-1 $253 $181 $184 $254 forward $103 $-1 #
coedge $-1 $187 $105 $106 $175 reversed $63 $-1 #
coedge $-1 $181 $253 $105 $173 reversed $103 $-1 #
edge $-1 $188 -16.00028557693155 $255 16.00028557693155 $172 $256 forward 7 unknown #
coedge $-1 $107 $106 $253 $257 forward $41 $-1 #
edge $-1 $179 -67.806024353770567 $255 67.806024353770567 $171 $258 forward 7 unknown #
coedge $-1 $184 $183 $107 $177 reversed $168 $-1 #
edge $-1 $259 -67.806024353770567 $178 67.806024353770567 $176 $260 forward 7 unknown #
vertex $-1 $109 $261 #
vertex $-1 $190 $262 #
straight-curve $-1 67.806024353770567 0 -16.00028557693155 0 -1 0 I I #
coedge $-1 $170 $172 $110 $182 reversed $103 $-1 #
edge $-1 $185 -45.141798116024148 $188 45.141798116024148 $181 $263 forward 7 unknown #
coedge $-1 $176 $111 $116 $191 forward $168 $-1 #
coedge $-1 $111 $176 $170 $254 reversed $168 $-1 #
vertex $-1 $112 $264 #
straight-curve $-1 0 45.141798116024148 16.00028557693155 -1 0 0 I I #
coedge $-1 $113 $171 $115 $190 reversed $63 $-1 #
vertex $-1 $182 $265 #
straight-curve $-1 0 -45.141798116024148 16.00028557693155 1 0 0 I I #
edge $-1 $118 -16.00028557693155 $179 16.00028557693155 $115 $266 forward 7 unknown #
edge $-1 $119 -16.00028557693155 $178 16.00028557693155 $116 $267 forward 7 unknown #
point $-1 67.806024353770567 -45.141798116024148 16.00028557693155 #
point $-1 67.806024353770567 45.141798116024148 16.00028557693155 #
face $-1 $268 $269 $16 $-1 $270 reversed single #
loop $-1 $-1 $271 $121 #
plane-surface $-1 0 0 -16.00028557693155 0 0 1 1 0 0 forward_v I I I I #
coedge $-1 $124 $272 $273 $274 forward $71 $-1 #
coedge $-1 $273 $202 $125 $199 forward $269 $-1 #
edge $-1 $204 -46.321676826982859 $200 -35.22918056816539 $198 $275 forward 7 unknown #
vertex $-1 $199 $276 #
straight-curve $-1 54.232403450235836 -69.672921996250494 16.000285576931546 0 1 0 I I #
coedge $-1 $198 $277 $128 $203 forward $269 $-1 #
edge $-1 $208 -37.296417402768967 $204 -23.722796499234235 $202 $278 forward 7 unknown #
vertex $-1 $203 $279 #
straight-curve $-1 54.232403450235836 -45.141798116024162 4.9077893181140695 0 0.71933979245794832 0.69465837861970381 I I #
coedge $-1 $280 $130 $277 $281 forward $122 $-1 #
coedge $-1 $130 $282 $132 $211 reversed $122 $-1 #
vertex $-1 $281 $283 #
straight-curve $-1 67.806024353770567 -34.688692241636744 15.002236552056781 0 -0.71933979245794832 -0.69465837861970381 I I #
coedge $-1 $272 $132 $284 $285 forward $71 $-1 #
edge $-1 $134 -33.655182245193863 $286 45.141798116024148 $207 $287 forward 7 unknown #
point $-1 54.232403450235836 -33.655182245193863 16.00028557693155 #
point $-1 67.806024353770567 -33.655182245193863 16.00028557693155 #
face $-1 $288 $289 $17 $-1 $290 reversed single #
loop $-1 $-1 $291 $136 #
plane-surface $-1 0 0 16.00028557693155 0 0 1 1 0 0 forward_v I I I I #
coedge $-1 $292 $293 $291 $294 reversed $137 $-1 #
coedge $-1 $295 $296 $297 $298 reversed $139 $-1 #
edge $-1 $299 1 $299 0 $140 $-1 forward 7 unknown #
vertex $-1 $141 $300 #
ellipse-curve $-1 61.019213902003202 -37.181739831111308 8.1585253146277328 0 -0.69465837861970381 0.71933979245794832 2 0 0 1 I I #
point $-1 63.019213902003202 -39.398490180608988 10.454037447522804 #
face $-1 $301 $302 $18 $-1 $303 reversed single #
loop $-1 $304 $305 $144 #
cone-surface $-1 61.019213902003202 -38.290115005860144 9.3062813810752658 0 0.69465837861970381 -0.71933979245794832 2 0 0 1 I I 0 1 2 forward I I I I #
coedge $-1 $147 $306 $307 $308 reversed $87 $-1 #
coedge $-1 $307 $231 $148 $228 forward $309 $-1 #
edge $-1 $233 -3.545448063097254 $229 7.9411678077330734 $227 $310 forward 7 unknown #
vertex $-1 $308 $311 #
straight-curve $-1 54.232403450235836 45.141798116024148 82.587594432352262 0 0 -1 I I #
coedge $-1 $227 $312 $151 $232 forward $309 $-1 #
edge $-1 $237 -37.296417402768967 $233 -23.722796499234235 $231 $313 forward 7 unknown #
vertex $-1 $232 $314 #
straight-curve $-1 54.232403450235836 -19.802785259894677 67.624045892624707 0 0.71933979245794832 -0.69465837861970381 I I #
coedge $-1 $315 $153 $312 $316 reversed $145 $-1 #
coedge $-1 $153 $317 $155 $240 reversed $145 $-1 #
vertex $-1 $232 $318 #
straight-curve $-1 67.806024353770567 2.216400553677321 46.360364839312091 0 -0.71933979245794832 0.69465837861970381 I I #
coedge $-1 $306 $155 $319 $320 reversed $87 $-1 #
edge $-1 $157 -4.9077893181140402 $321 16.00028557693155 $236 $322 forward 7 unknown #
point $-1 54.232403450235836 45.141798116024148 4.9077893181140411 #
point $-1 67.806024353770567 45.141798116024148 4.9077893181140402 #
face $-1 $323 $324 $19 $-1 $325 reversed single #
loop $-1 $-1 $326 $159 #
plane-surface $-1 0 45.141798116024148 0 0 -1 0 0 0 -1 forward_v I I I I #
coedge $-1 $327 $328 $326 $329 reversed $160 $-1 #
coedge $-1 $330 $331 $332 $333 reversed $162 $-1 #
edge $-1 $334 1 $334 0 $163 $-1 forward 7 unknown #
vertex $-1 $164 $335 #
ellipse-curve $-1 61.019213902003202 37.181739831111301 8.1585253146277328 0 0.69465837861970381 0.71933979245794832 2 0 0 1 I I #
point $-1 63.019213902003202 39.398490180608981 10.454037447522804 #
plane-surface $-1 67.806024353770567 0 0 -1 0 0 0 0 1 forward_v I I I I #
coedge $-1 $172 $170 $174 $257 reversed $103 $-1 #
edge $-1 $185 -16.00028557693155 $259 16.00028557693155 $184 $336 forward 7 unknown #
vertex $-1 $257 $337 #
straight-curve $-1 -67.806024353770567 -45.141798116024148 0 0 0 -1 I I #
edge $-1 $255 -45.141798116024148 $259 45.141798116024148 $253 $338 forward 7 unknown #
straight-curve $-1 0 -45.141798116024148 -16.00028557693155 -1 0 0 I I #
vertex $-1 $177 $339 #
straight-curve $-1 0 45.141798116024148 -16.00028557693155 1 0 0 I I #
point $-1 67.806024353770567 45.141798116024148 -16.00028557693155 #
point $-1 67.806024353770567 -45.141798116024148 -16.00028557693155 #
straight-curve $-1 -67.806024353770567 0 16.00028557693155 0 -1 0 I I #
point $-1 -67.806024353770567 45.141798116024148 16.00028557693155 #
point $-1 -67.806024353770567 -45.141798116024148 16.00028557693155 #
straight-curve $-1 67.806024353770567 -45.141798116024148 0 0 0 -1 I I #
straight-curve $-1 67.806024353770567 45.141798116024148 0 0 0 -1 I I #
face $-1 $340 $341 $16 $-1 $342 reversed single #
loop $-1 $-1 $198 $194 #
plane-surface $-1 0 -45.141798116024148 0 0 1 0 0 0 1 forward_v I I I I #
coedge $-1 $343 $344 $280 $345 forward $195 $-1 #
coedge $-1 $197 $210 $346 $347 forward $71 $-1 #
coedge $-1 $348 $198 $197 $274 reversed $269 $-1 #
edge $-1 $349 -67.806024353770567 $200 54.232403450235836 $273 $350 forward 7 unknown #
straight-curve $-1 54.232403450235836 -45.141798116024148 51.229466145096943 0 0 1 I I #
point $-1 54.232403450235836 -45.141798116024148 16.00028557693155 #
coedge $-1 $202 $351 $206 $281 reversed $269 $-1 #
straight-curve $-1 30.509606951001601 -45.141798116024148 4.9077893181140819 -1 0 0 I I #
point $-1 54.232403450235836 -45.141798116024148 4.9077893181140828 #
coedge $-1 $282 $206 $271 $345 reversed $122 $-1 #
edge $-1 $208 -4.9077893181140828 $352 16.00028557693155 $206 $353 forward 7 unknown #
coedge $-1 $207 $280 $354 $355 reversed $122 $-1 #
point $-1 67.806024353770567 -45.141798116024148 4.9077893181140828 #
coedge $-1 $354 $356 $210 $285 reversed $357 $-1 #
edge $-1 $286 -67.806024353770567 $358 67.806024353770567 $284 $359 forward 7 unknown #
vertex $-1 $211 $360 #
straight-curve $-1 67.806024353770567 0 16.00028557693155 0 1 0 I I #
face $-1 $361 $362 $17 $-1 $363 reversed single #
loop $-1 $-1 $364 $214 #
plane-surface $-1 67.806024353770567 0 0 -1 0 0 0 0 1 forward_v I I I I #
coedge $-1 $297 $365 $217 $294 forward $215 $-1 #
coedge $-1 $293 $217 $366 $367 reversed $137 $-1 #
coedge $-1 $217 $292 $295 $368 forward $137 $-1 #
edge $-1 $369 24.531123880226346 $370 36.017739751056631 $291 $371 forward 7 unknown #
coedge $-1 $372 $218 $293 $368 reversed $139 $-1 #
coedge $-1 $218 $372 $364 $373 reversed $139 $-1 #
coedge $-1 $374 $291 $218 $298 forward $215 $-1 #
edge $-1 $370 23.722796499234235 $375 37.296417402768967 $297 $376 forward 7 unknown #
vertex $-1 $219 $377 #
point $-1 63.019213902003202 -37.181739831111308 8.1585253146277328 #
face $-1 $378 $379 $18 $-1 $380 forward single #
loop $-1 $381 $382 $223 #
cone-surface $-1 61.019213902003202 -36.487081452491601 7.4391855221697831 0 0.69465837861970381 -0.71933979245794832 1 0 0 1 I I -0.70710678118654724 0.70710678118654791 1 forward I I I I #
loop $-1 $-1 $383 $144 #
coedge $-1 $305 $305 $384 $385 reversed $224 $-1 #
coedge $-1 $226 $239 $386 $387 reversed $87 $-1 #
coedge $-1 $388 $227 $226 $308 forward $309 $-1 #
edge $-1 $229 -54.232403450235836 $389 67.806024353770567 $226 $390 forward 7 unknown #
loop $-1 $-1 $227 $391 #
straight-curve $-1 54.232403450235836 37.200630308291075 16.000285576931546 0 1 0 I I #
point $-1 54.232403450235836 45.141798116024148 16.00028557693155 #
coedge $-1 $231 $392 $235 $316 forward $309 $-1 #
straight-curve $-1 30.509606951001601 33.655182245193807 16.000285576931553 -1 0 0 I I #
point $-1 54.232403450235836 33.655182245193821 16.000285576931546 #
coedge $-1 $393 $235 $394 $395 forward $145 $-1 #
edge $-1 $396 -33.655182245193863 $237 33.655182245193821 $235 $397 forward 7 unknown #
coedge $-1 $236 $393 $398 $399 reversed $145 $-1 #
point $-1 67.806024353770567 33.655182245193821 16.000285576931546 #
coedge $-1 $398 $400 $239 $320 forward $401 $-1 #
edge $-1 $402 -67.806024353770567 $321 67.806024353770567 $239 $403 forward 7 unknown #
vertex $-1 $399 $404 #
straight-curve $-1 67.806024353770567 45.141798116024148 0 0 0 -1 I I #
face $-1 $405 $406 $19 $-1 $407 reversed single #
loop $-1 $-1 $408 $243 #
plane-surface $-1 67.806024353770567 0 0 -1 0 0 0 0 1 forward_v I I I I #
coedge $-1 $332 $409 $246 $329 forward $244 $-1 #
coedge $-1 $328 $246 $410 $411 reversed $160 $-1 #
coedge $-1 $246 $327 $330 $412 forward $160 $-1 #
edge $-1 $413 66.587308855420716 $414 77.679805114238221 $326 $415 forward 7 unknown #
coedge $-1 $416 $247 $328 $412 reversed $162 $-1 #
coedge $-1 $247 $416 $408 $417 reversed $162 $-1 #
coedge $-1 $418 $326 $247 $333 forward $244 $-1 #
edge $-1 $414 23.722796499234235 $419 37.296417402768967 $332 $420 forward 7 unknown #
vertex $-1 $248 $421 #
point $-1 63.019213902003202 37.181739831111301 8.1585253146277328 #
straight-curve $-1 -67.806024353770567 45.141798116024148 0 0 0 -1 I I #
point $-1 -67.806024353770567 -45.141798116024148 -16.00028557693155 #
straight-curve $-1 -67.806024353770567 0 -16.00028557693155 0 1 0 I I #
point $-1 -67.806024353770567 45.141798116024148 -16.00028557693155 #
face $-1 $-1 $357 $16 $-1 $422 reversed single #
loop $-1 $-1 $423 $268 #
plane-surface $-1 -67.806024353770567 0 0 1 0 0 0 0 -1 forward_v I I I I #
coedge $-1 $424 $271 $351 $425 forward $195 $-1 #
coedge $-1 $271 $424 $426 $427 forward $195 $-1 #
edge $-1 $428 -45.141798116024148 $352 45.141798116024148 $280 $429 forward 7 unknown #
coedge $-1 $423 $430 $272 $347 reversed $341 $-1 #
edge $-1 $358 -45.141798116024148 $349 45.141798116024148 $346 $431 forward 7 unknown #
coedge $-1 $351 $273 $430 $432 forward $269 $-1 #
vertex $-1 $347 $433 #
straight-curve $-1 0 -45.141798116024148 16.00028557693155 1 0 0 I I #
coedge $-1 $277 $348 $343 $425 reversed $269 $-1 #
vertex $-1 $281 $434 #
straight-curve $-1 67.806024353770567 -45.141798116024148 0 0 0 -1 I I #
coedge $-1 $426 $284 $282 $355 forward $357 $-1 #
edge $-1 $286 -16.00028557693155 $428 16.00028557693155 $282 $435 forward 7 unknown #
coedge $-1 $284 $426 $423 $436 reversed $357 $-1 #
loop $-1 $-1 $354 $340 #
vertex $-1 $285 $437 #
straight-curve $-1 0 45.141798116024148 16.00028557693155 -1 0 0 I I #
point $-1 67.806024353770567 45.141798116024148 16.00028557693155 #
face $-1 $438 $439 $17 $-1 $440 reversed single #
loop $-1 $-1 $441 $288 #
plane-surface $-1 0 0 -16.00028557693155 0 0 1 1 0 0 forward_v I I I I #
coedge $-1 $442 $443 $296 $373 forward $289 $-1 #
coedge $-1 $291 $444 $445 $446 forward $215 $-1 #
coedge $-1 $445 $447 $292 $367 forward $439 $-1 #
edge $-1 $448 -46.321676826982859 $369 -35.22918056816539 $366 $449 forward 7 unknown #
edge $-1 $448 1.9477141995791963e-014 $370 15.968275342562524 $293 $450 forward 7 unknown #
vertex $-1 $367 $451 #
vertex $-1 $298 $452 #
straight-curve $-1 54.232403450235836 -69.672921996250494 16.000285576931546 0 1 0 I I #
coedge $-1 $296 $295 $447 $453 reversed $139 $-1 #
edge $-1 $375 -1.4367479837469201 $454 14.531527358815584 $364 $455 forward 7 unknown #
coedge $-1 $456 $297 $443 $457 forward $215 $-1 #
vertex $-1 $457 $458 #
straight-curve $-1 30.509606951001601 -33.655182245193856 16.00028557693155 1 0 0 I I #
point $-1 61.019213902003202 -35.792423073871895 6.7198457297118344 #
face $-1 $391 $459 $18 $-1 $460 forward single #
loop $-1 $461 $384 $301 #
plane-surface $-1 61.019213902003202 -45.141798116024162 4.9077893181140695 0 -0.69465837861970381 0.71933979245794832 1 0 0 forward_v I I I I #
loop $-1 $-1 $462 $223 #
coedge $-1 $382 $382 $383 $463 forward $302 $-1 #
coedge $-1 $383 $383 $382 $463 reversed $304 $-1 #
coedge $-1 $384 $384 $305 $385 forward $379 $-1 #
edge $-1 $464 -1.7537199311053519e-016 $464 6.2831853071796004 $384 $465 forward 7 unknown #
coedge $-1 $466 $467 $306 $387 forward $468 $-1 #
edge $-1 $389 -16.00028557693155 $402 16.00028557693155 $306 $469 forward 7 unknown #
coedge $-1 $470 $307 $467 $471 forward $309 $-1 #
vertex $-1 $308 $472 #
straight-curve $-1 0 45.141798116024148 16.00028557693155 -1 0 0 I I #
face $-1 $473 $309 $18 $-1 $474 forward single #
coedge $-1 $312 $475 $476 $477 forward $309 $-1 #
coedge $-1 $317 $315 $478 $479 forward $145 $-1 #
coedge $-1 $476 $480 $315 $395 reversed $461 $-1 #
edge $-1 $396 -1.4367479837469201 $481 14.531527358815584 $315 $482 forward 7 unknown #
vertex $-1 $316 $483 #
straight-curve $-1 67.806024353770567 0 16.00028557693155 0 1 0 I I #
coedge $-1 $484 $319 $317 $399 forward $401 $-1 #
edge $-1 $321 -45.141798116024148 $485 45.141798116024148 $317 $486 forward 7 unknown #
coedge $-1 $319 $484 $466 $487 forward $401 $-1 #
loop $-1 $-1 $398 $473 #
vertex $-1 $320 $488 #
straight-curve $-1 0 45.141798116024148 -16.00028557693155 1 0 0 I I #
point $-1 67.806024353770567 45.141798116024148 -16.00028557693155 #
face $-1 $489 $490 $19 $-1 $491 reversed single #
loop $-1 $492 $493 $323 #
cone-surface $-1 61.019213902003202 -38.290115005860144 9.3062813810752658 0 0.69465837861970381 -0.71933979245794832 2 0 0 1 I I 0 1 2 forward I I I I #
coedge $-1 $494 $495 $331 $417 forward $324 $-1 #
coedge $-1 $326 $496 $497 $498 reversed $244 $-1 #
coedge $-1 $497 $499 $327 $411 forward $500 $-1 #
edge $-1 $501 -3.545448063097254 $413 7.9411678077330734 $410 $502 forward 7 unknown #
edge $-1 $501 74.315320889485719 $414 90.283596232048282 $328 $503 forward 7 unknown #
vertex $-1 $498 $504 #
vertex $-1 $333 $505 #
straight-curve $-1 54.232403450235836 45.141798116024148 82.587594432352262 0 0 -1 I I #
coedge $-1 $331 $330 $499 $506 reversed $162 $-1 #
edge $-1 $419 -59.67332547483975 $507 -43.705050132277186 $408 $508 forward 7 unknown #
coedge $-1 $509 $332 $495 $510 forward $244 $-1 #
vertex $-1 $510 $511 #
straight-curve $-1 30.509606951001601 45.141798116024148 4.9077893181140446 1 0 0 I I #
point $-1 61.019213902003202 35.792423073871888 6.7198457297118344 #
plane-surface $-1 0 45.141798116024148 0 0 -1 0 0 0 -1 forward_v I I I I #
coedge $-1 $512 $346 $356 $436 forward $341 $-1 #
coedge $-1 $344 $343 $512 $513 forward $195 $-1 #
edge $-1 $352 -67.806024353770567 $514 67.806024353770567 $351 $515 forward 7 unknown #
coedge $-1 $356 $354 $344 $427 reversed $357 $-1 #
edge $-1 $516 -67.806024353770567 $428 67.806024353770567 $426 $517 forward 7 unknown #
vertex $-1 $345 $518 #
straight-curve $-1 67.806024353770567 0 -16.00028557693155 0 -1 0 I I #
coedge $-1 $346 $512 $348 $432 reversed $341 $-1 #
straight-curve $-1 -67.806024353770567 0 16.00028557693155 0 -1 0 I I #
edge $-1 $349 -16.00028557693155 $514 16.00028557693155 $430 $519 forward 7 unknown #
point $-1 -67.806024353770567 -45.141798116024148 16.00028557693155 #
point $-1 67.806024353770567 -45.141798116024148 -16.00028557693155 #
straight-curve $-1 67.806024353770567 45.141798116024148 0 0 0 -1 I I #
edge $-1 $358 -16.00028557693155 $516 16.00028557693155 $356 $520 forward 7 unknown #
point $-1 -67.806024353770567 45.141798116024148 16.00028557693155 #
face $-1 $521 $522 $17 $-1 $523 reversed single #
loop $-1 $-1 $366 $361 #
plane-surface $-1 0 -45.141798116024148 0 0 1 0 0 0 1 forward_v I I I I #
coedge $-1 $524 $525 $526 $527 forward $362 $-1 #
coedge $-1 $526 $364 $528 $529 forward $289 $-1 #
coedge $-1 $364 $530 $374 $457 reversed $289 $-1 #
coedge $-1 $365 $456 $531 $532 forward $215 $-1 #
coedge $-1 $533 $366 $365 $446 reversed $439 $-1 #
edge $-1 $534 -67.806024353770567 $369 54.232403450235836 $445 $535 forward 7 unknown #
coedge $-1 $366 $528 $372 $453 forward $439 $-1 #
vertex $-1 $453 $536 #
straight-curve $-1 54.232403450235836 -45.141798116024148 51.229466145096943 0 0 1 I I #
straight-curve $-1 54.232403450235836 -45.141798116024162 4.9077893181140695 0 0.71933979245794832 0.69465837861970381 I I #
point $-1 54.232403450235836 -45.141798116024148 16.00028557693155 #
point $-1 54.232403450235836 -33.655182245193863 16.00028557693155 #
edge $-1 $454 -37.296417402768967 $448 -23.722796499234235 $447 $537 forward 7 unknown #
vertex $-1 $529 $538 #
straight-curve $-1 67.806024353770567 -34.688692241636744 15.002236552056781 0 -0.71933979245794832 -0.69465837861970381 I I #
coedge $-1 $444 $374 $539 $540 forward $215 $-1 #
edge $-1 $375 -33.655182245193863 $541 45.141798116024148 $443 $542 forward 7 unknown #
point $-1 67.806024353770567 -33.655182245193863 16.00028557693155 #
loop $-1 $-1 $543 $378 #
plane-surface $-1 54.232403450235836 -139.34584399250099 102.45893229019389 1 0 0 0 0.69465837861970381 -0.71933979245794832 forward_v I I I I #
loop $-1 $-1 $476 $301 #
coedge $-1 $462 $462 $-1 $544 forward $381 $-1 #
edge $-1 $545 0 $545 6.2831853071796004 $382 $546 forward 7 unknown #
vertex $-1 $385 $547 #
ellipse-curve $-1 61.019213902003202 -39.398490180609002 10.454037447522818 0 0.69465837861970381 -0.71933979245794832 2 0 0 1 I I #
coedge $-1 $548 $386 $400 $487 reversed $468 $-1 #
coedge $-1 $386 $548 $388 $471 reversed $468 $-1 #
loop $-1 $-1 $386 $549 #
straight-curve $-1 -67.806024353770567 45.141798116024148 0 0 0 -1 I I #
coedge $-1 $475 $388 $550 $551 forward $309 $-1 #
edge $-1 $389 -45.141798116024148 $552 45.141798116024148 $467 $553 forward 7 unknown #
point $-1 -67.806024353770567 45.141798116024148 16.00028557693155 #
face $-1 $554 $401 $18 $-1 $555 reversed single #
plane-surface $-1 0 0 16.00028557693155 0 0 1 1 0 0 forward_v I I I I #
coedge $-1 $392 $470 $543 $556 forward $309 $-1 #
coedge $-1 $557 $394 $392 $477 reversed $461 $-1 #
edge $-1 $558 23.722796499234235 $396 37.296417402768967 $392 $559 forward 7 unknown #
coedge $-1 $560 $561 $393 $479 reversed $562 $-1 #
edge $-1 $481 -4.9077893181140828 $485 16.00028557693155 $393 $563 forward 7 unknown #
coedge $-1 $394 $557 $560 $564 reversed $461 $-1 #
vertex $-1 $479 $565 #
straight-curve $-1 67.806024353770567 -34.688692241636744 15.002236552056781 0 -0.71933979245794832 -0.69465837861970381 I I #
point $-1 67.806024353770567 -33.655182245193863 16.00028557693155 #
coedge $-1 $400 $398 $561 $566 forward $401 $-1 #
vertex $-1 $479 $567 #
straight-curve $-1 67.806024353770567 0 -16.00028557693155 0 -1 0 I I #
edge $-1 $568 -45.141798116024148 $402 45.141798116024148 $466 $569 forward 7 unknown #
point $-1 -67.806024353770567 45.141798116024148 -16.00028557693155 #
face $-1 $570 $571 $19 $-1 $572 forward single #
loop $-1 $573 $574 $405 #
cone-surface $-1 61.019213902003202 -36.487081452491601 7.4391855221697831 0 0.69465837861970381 -0.71933979245794832 1 0 0 1 I I -0.70710678118654724 0.70710678118654791 1 forward I I I I #
loop $-1 $-1 $575 $323 #
coedge $-1 $493 $493 $576 $577 reversed $406 $-1 #
coedge $-1 $578 $408 $579 $580 reversed $324 $-1 #
coedge $-1 $408 $581 $418 $510 reversed $324 $-1 #
coedge $-1 $409 $509 $582 $583 reversed $244 $-1 #
coedge $-1 $584 $410 $409 $498 forward $500 $-1 #
edge $-1 $413 -54.232403450235836 $585 67.806024353770567 $409 $586 forward 7 unknown #
coedge $-1 $410 $579 $416 $506 forward $500 $-1 #
loop $-1 $-1 $410 $587 #
vertex $-1 $506 $588 #
straight-curve $-1 54.232403450235836 37.200630308291075 16.000285576931546 0 1 0 I I #
straight-curve $-1 54.232403450235836 -19.802785259894677 67.624045892624707 0 0.71933979245794832 -0.69465837861970381 I I #
point $-1 54.232403450235836 45.141798116024148 16.00028557693155 #
point $-1 54.232403450235836 45.141798116024148 4.9077893181140411 #
edge $-1 $507 -37.296417402768967 $501 -23.722796499234235 $499 $589 forward 7 unknown #
vertex $-1 $506 $590 #
straight-curve $-1 67.806024353770567 2.216400553677321 46.360364839312091 0 -0.71933979245794832 0.69465837861970381 I I #
coedge $-1 $496 $418 $591 $592 reversed $244 $-1 #
edge $-1 $419 -4.9077893181140402 $593 16.00028557693155 $495 $594 forward 7 unknown #
point $-1 67.806024353770567 45.141798116024148 4.9077893181140402 #
coedge $-1 $430 $423 $424 $513 reversed $341 $-1 #
edge $-1 $514 -45.141798116024148 $516 45.141798116024148 $512 $595 forward 7 unknown #
vertex $-1 $513 $596 #
straight-curve $-1 0 -45.141798116024148 -16.00028557693155 -1 0 0 I I #
vertex $-1 $427 $597 #
straight-curve $-1 0 45.141798116024148 -16.00028557693155 1 0 0 I I #
point $-1 67.806024353770567 45.141798116024148 -16.00028557693155 #
straight-curve $-1 -67.806024353770567 -45.141798116024148 0 0 0 -1 I I #
straight-curve $-1 -67.806024353770567 45.141798116024148 0 0 0 -1 I I #
face $-1 $-1 $598 $17 $-1 $599 reversed single #
loop $-1 $-1 $600 $438 #
plane-surface $-1 -67.806024353770567 0 0 1 0 0 0 0 -1 forward_v I I I I #
coedge $-1 $601 $441 $602 $603 forward $362 $-1 #
coedge $-1 $441 $601 $604 $605 forward $362 $-1 #
coedge $-1 $530 $442 $441 $527 reversed $289 $-1 #
edge $-1 $606 -45.141798116024148 $607 45.141798116024148 $526 $608 forward 7 unknown #
coedge $-1 $447 $602 $442 $529 reversed $439 $-1 #
edge $-1 $454 -4.9077893181140828 $607 16.00028557693155 $442 $609 forward 7 unknown #
coedge $-1 $443 $526 $610 $611 reversed $289 $-1 #
coedge $-1 $600 $612 $444 $532 reversed $522 $-1 #
edge $-1 $613 -45.141798116024148 $534 45.141798116024148 $531 $614 forward 7 unknown #
coedge $-1 $602 $445 $612 $615 forward $439 $-1 #
vertex $-1 $532 $616 #
straight-curve $-1 0 -45.141798116024148 16.00028557693155 1 0 0 I I #
point $-1 54.232403450235836 -45.141798116024148 4.9077893181140828 #
straight-curve $-1 30.509606951001601 -45.141798116024148 4.9077893181140819 -1 0 0 I I #
point $-1 67.806024353770567 -45.141798116024148 4.9077893181140828 #
coedge $-1 $610 $617 $456 $540 reversed $598 $-1 #
edge $-1 $541 -67.806024353770567 $613 67.806024353770567 $539 $618 forward 7 unknown #
vertex $-1 $457 $619 #
straight-curve $-1 67.806024353770567 0 16.00028557693155 0 1 0 I I #
coedge $-1 $620 $621 $475 $556 reversed $459 $-1 #
edge $-1 $622 1 $622 0 $462 $-1 forward 7 unknown #
vertex $-1 $463 $623 #
ellipse-curve $-1 61.019213902003202 -37.181739831111308 8.1585253146277328 0 -0.69465837861970381 0.71933979245794832 2 0 0 1 I I #
point $-1 63.019213902003202 -39.398490180608988 10.454037447522804 #
coedge $-1 $467 $466 $624 $625 reversed $468 $-1 #
face $-1 $-1 $468 $18 $-1 $626 reversed single #
coedge $-1 $624 $627 $470 $551 reversed $562 $-1 #
edge $-1 $552 -67.806024353770567 $628 54.232403450235836 $550 $629 forward 7 unknown #
vertex $-1 $471 $630 #
straight-curve $-1 -67.806024353770567 0 16.00028557693155 0 -1 0 I I #
face $-1 $549 $562 $18 $-1 $631 reversed single #
plane-surface $-1 0 0 -16.00028557693155 0 0 1 1 0 0 forward_v I I I I #
edge $-1 $628 24.531123880226346 $558 36.017739751056631 $475 $632 forward 7 unknown #
coedge $-1 $480 $476 $621 $633 reversed $461 $-1 #
vertex $-1 $477 $634 #
straight-curve $-1 30.509606951001601 -33.655182245193856 16.00028557693155 1 0 0 I I #
coedge $-1 $627 $478 $480 $564 forward $562 $-1 #
coedge $-1 $478 $624 $484 $566 reversed $562 $-1 #
loop $-1 $-1 $627 $554 #
straight-curve $-1 67.806024353770567 -45.141798116024148 0 0 0 -1 I I #
edge $-1 $481 -37.296417402768967 $635 -23.722796499234235 $560 $636 forward 7 unknown #
point $-1 67.806024353770567 -45.141798116024148 4.9077893181140828 #
edge $-1 $485 -67.806024353770567 $568 67.806024353770567 $561 $637 forward 7 unknown #
point $-1 67.806024353770567 -45.141798116024148 -16.00028557693155 #
vertex $-1 $487 $638 #
straight-curve $-1 -67.806024353770567 0 -16.00028557693155 0 1 0 I I #
face $-1 $587 $639 $19 $-1 $640 forward single #
loop $-1 $641 $576 $489 #
plane-surface $-1 61.019213902003202 -45.141798116024162 4.9077893181140695 0 -0.69465837861970381 0.71933979245794832 1 0 0 forward_v I I I I #
loop $-1 $-1 $642 $405 #
coedge $-1 $574 $574 $575 $643 forward $490 $-1 #
coedge $-1 $575 $575 $574 $643 reversed $492 $-1 #
coedge $-1 $576 $576 $493 $577 forward $571 $-1 #
edge $-1 $644 -1.7537199311053519e-016 $644 6.2831853071796004 $576 $645 forward 7 unknown #
coedge $-1 $646 $494 $647 $648 forward $324 $-1 #
coedge $-1 $499 $649 $494 $580 forward $500 $-1 #
edge $-1 $650 -33.655182245193863 $507 33.655182245193821 $494 $651 forward 7 unknown #
coedge $-1 $495 $646 $652 $653 reversed $324 $-1 #
coedge $-1 $654 $655 $496 $583 forward $656 $-1 #
edge $-1 $585 -16.00028557693155 $657 16.00028557693155 $496 $658 forward 7 unknown #
coedge $-1 $659 $497 $655 $660 forward $500 $-1 #
vertex $-1 $498 $661 #
straight-curve $-1 0 45.141798116024148 16.00028557693155 -1 0 0 I I #
face $-1 $662 $500 $19 $-1 $663 forward single #
point $-1 54.232403450235836 33.655182245193821 16.000285576931546 #
straight-curve $-1 30.509606951001601 33.655182245193807 16.000285576931553 -1 0 0 I I #
point $-1 67.806024353770567 33.655182245193821 16.000285576931546 #
coedge $-1 $652 $664 $509 $592 forward $665 $-1 #
edge $-1 $657 -67.806024353770567 $593 67.806024353770567 $509 $666 forward 7 unknown #
vertex $-1 $653 $667 #
straight-curve $-1 67.806024353770567 45.141798116024148 0 0 0 -1 I I #
straight-curve $-1 -67.806024353770567 0 -16.00028557693155 0 1 0 I I #
point $-1 -67.806024353770567 -45.141798116024148 -16.00028557693155 #
point $-1 -67.806024353770567 45.141798116024148 -16.00028557693155 #
loop $-1 $-1 $610 $521 #
plane-surface $-1 0 45.141798116024148 0 0 -1 0 0 0 -1 forward_v I I I I #
coedge $-1 $668 $531 $617 $669 forward $522 $-1 #
coedge $-1 $525 $524 $668 $670 forward $362 $-1 #
coedge $-1 $528 $533 $524 $603 reversed $439 $-1 #
edge $-1 $607 -67.806024353770567 $671 67.806024353770567 $602 $672 forward 7 unknown #
coedge $-1 $617 $610 $525 $605 reversed $598 $-1 #
edge $-1 $673 -67.806024353770567 $606 67.806024353770567 $604 $674 forward 7 unknown #
vertex $-1 $527 $675 #
vertex $-1 $529 $676 #
straight-curve $-1 67.806024353770567 0 -16.00028557693155 0 -1 0 I I #
straight-curve $-1 67.806024353770567 -45.141798116024148 0 0 0 -1 I I #
coedge $-1 $604 $539 $530 $611 forward $598 $-1 #
edge $-1 $541 -16.00028557693155 $606 16.00028557693155 $530 $677 forward 7 unknown #
coedge $-1 $531 $668 $533 $615 reversed $522 $-1 #
vertex $-1 $540 $678 #
straight-curve $-1 -67.806024353770567 0 16.00028557693155 0 -1 0 I I #
edge $-1 $534 -16.00028557693155 $671 16.00028557693155 $612 $679 forward 7 unknown #
point $-1 -67.806024353770567 -45.141798116024148 16.00028557693155 #
coedge $-1 $539 $604 $600 $669 reversed $598 $-1 #
straight-curve $-1 0 45.141798116024148 16.00028557693155 -1 0 0 I I #
point $-1 67.806024353770567 45.141798116024148 16.00028557693155 #
coedge $-1 $621 $543 $627 $680 reversed $459 $-1 #
coedge $-1 $543 $620 $557 $633 forward $459 $-1 #
vertex $-1 $544 $681 #
point $-1 63.019213902003202 -37.181739831111308 8.1585253146277328 #
coedge $-1 $561 $550 $548 $625 forward $562 $-1 #
edge $-1 $552 -16.00028557693155 $568 16.00028557693155 $548 $682 forward 7 unknown #
plane-surface $-1 -67.806024353770567 0 0 1 0 0 0 0 -1 forward_v I I I I #
coedge $-1 $550 $560 $620 $680 forward $562 $-1 #
vertex $-1 $680 $683 #
straight-curve $-1 0 -45.141798116024148 16.00028557693155 1 0 0 I I #
point $-1 -67.806024353770567 -45.141798116024148 16.00028557693155 #
plane-surface $-1 0 -45.141798116024148 0 0 1 0 0 0 1 forward_v I I I I #
straight-curve $-1 54.232403450235836 -69.672921996250494 16.000285576931546 0 1 0 I I #
edge $-1 $635 1.9477141995791963e-014 $558 15.968275342562524 $621 $684 forward 7 unknown #
point $-1 54.232403450235836 -33.655182245193863 16.00028557693155 #
vertex $-1 $564 $685 #
straight-curve $-1 30.509606951001601 -45.141798116024148 4.9077893181140819 -1 0 0 I I #
straight-curve $-1 0 -45.141798116024148 -16.00028557693155 -1 0 0 I I #
point $-1 -67.806024353770567 -45.141798116024148 -16.00028557693155 #
loop $-1 $-1 $686 $570 #
plane-surface $-1 54.232403450235836 -139.34584399250099 102.45893229019389 1 0 0 0 0.69465837861970381 -0.71933979245794832 forward_v I I I I #
loop $-1 $-1 $687 $489 #
coedge $-1 $642 $642 $-1 $688 forward $573 $-1 #
edge $-1 $689 0 $689 6.2831853071796004 $574 $690 forward 7 unknown #
vertex $-1 $577 $691 #
ellipse-curve $-1 61.019213902003202 -39.398490180609002 10.454037447522818 0 0.69465837861970381 -0.71933979245794832 2 0 0 1 I I #
coedge $-1 $581 $578 $692 $693 forward $324 $-1 #
coedge $-1 $687 $694 $578 $648 reversed $641 $-1 #
edge $-1 $650 -1.4367479837469201 $695 14.531527358815584 $578 $696 forward 7 unknown #
coedge $-1 $579 $697 $687 $698 forward $500 $-1 #
vertex $-1 $580 $699 #
straight-curve $-1 67.806024353770567 0 16.00028557693155 0 1 0 I I #
coedge $-1 $700 $591 $581 $653 forward $665 $-1 #
edge $-1 $593 -45.141798116024148 $701 45.141798116024148 $581 $702 forward 7 unknown #
coedge $-1 $703 $582 $664 $704 reversed $656 $-1 #
coedge $-1 $582 $703 $584 $660 reversed $656 $-1 #
loop $-1 $-1 $582 $705 #
vertex $-1 $592 $706 #
straight-curve $-1 -67.806024353770567 45.141798116024148 0 0 0 -1 I I #
coedge $-1 $697 $584 $707 $708 forward $500 $-1 #
edge $-1 $585 -45.141798116024148 $709 45.141798116024148 $655 $710 forward 7 unknown #
point $-1 -67.806024353770567 45.141798116024148 16.00028557693155 #
face $-1 $711 $665 $19 $-1 $712 reversed single #
plane-surface $-1 0 0 16.00028557693155 0 0 1 1 0 0 forward_v I I I I #
coedge $-1 $591 $700 $654 $704 forward $665 $-1 #
loop $-1 $-1 $652 $662 #
straight-curve $-1 0 45.141798116024148 -16.00028557693155 1 0 0 I I #
point $-1 67.806024353770567 45.141798116024148 -16.00028557693155 #
coedge $-1 $612 $600 $601 $670 reversed $522 $-1 #
edge $-1 $613 -16.00028557693155 $673 16.00028557693155 $617 $713 forward 7 unknown #
edge $-1 $671 -45.141798116024148 $673 45.141798116024148 $668 $714 forward 7 unknown #
vertex $-1 $670 $715 #
straight-curve $-1 0 -45.141798116024148 -16.00028557693155 -1 0 0 I I #
vertex $-1 $605 $716 #
straight-curve $-1 0 45.141798116024148 -16.00028557693155 1 0 0 I I #
point $-1 67.806024353770567 45.141798116024148 -16.00028557693155 #
point $-1 67.806024353770567 -45.141798116024148 -16.00028557693155 #
straight-curve $-1 67.806024353770567 45.141798116024148 0 0 0 -1 I I #
point $-1 -67.806024353770567 45.141798116024148 16.00028557693155 #
straight-curve $-1 -67.806024353770567 -45.141798116024148 0 0 0 -1 I I #
edge $-1 $635 -46.321676826982859 $628 -35.22918056816539 $627 $717 forward 7 unknown #
point $-1 61.019213902003202 -35.792423073871895 6.7198457297118344 #
straight-curve $-1 -67.806024353770567 -45.141798116024148 0 0 0 -1 I I #
point $-1 54.232403450235836 -45.141798116024148 16.00028557693155 #
straight-curve $-1 54.232403450235836 -45.141798116024162 4.9077893181140695 0 0.71933979245794832 0.69465837861970381 I I #
point $-1 54.232403450235836 -45.141798116024148 4.9077893181140828 #
coedge $-1 $718 $719 $697 $720 reversed $639 $-1 #
coedge $-1 $721 $647 $649 $698 reversed $641 $-1 #
edge $-1 $722 1 $722 0 $642 $-1 forward 7 unknown #
vertex $-1 $643 $723 #
ellipse-curve $-1 61.019213902003202 -37.181739831111308 8.1585253146277328 0 -0.69465837861970381 0.71933979245794832 2 0 0 1 I I #
point $-1 63.019213902003202 -39.398490180608988 10.454037447522804 #
coedge $-1 $724 $725 $646 $693 reversed $726 $-1 #
edge $-1 $695 -4.9077893181140828 $701 16.00028557693155 $646 $727 forward 7 unknown #
coedge $-1 $647 $721 $724 $728 reversed $641 $-1 #
vertex $-1 $693 $729 #
straight-curve $-1 67.806024353770567 -34.688692241636744 15.002236552056781 0 -0.71933979245794832 -0.69465837861970381 I I #
coedge $-1 $649 $659 $686 $720 forward $500 $-1 #
edge $-1 $730 23.722796499234235 $650 37.296417402768967 $649 $731 forward 7 unknown #
point $-1 67.806024353770567 -33.655182245193863 16.00028557693155 #
coedge $-1 $664 $652 $725 $732 forward $665 $-1 #
vertex $-1 $693 $733 #
straight-curve $-1 67.806024353770567 0 -16.00028557693155 0 -1 0 I I #
coedge $-1 $655 $654 $734 $735 reversed $656 $-1 #
edge $-1 $736 -45.141798116024148 $657 45.141798116024148 $654 $737 forward 7 unknown #
face $-1 $-1 $656 $19 $-1 $738 reversed single #
point $-1 -67.806024353770567 45.141798116024148 -16.00028557693155 #
coedge $-1 $734 $739 $659 $708 reversed $726 $-1 #
edge $-1 $709 -67.806024353770567 $740 54.232403450235836 $707 $741 forward 7 unknown #
vertex $-1 $660 $742 #
straight-curve $-1 -67.806024353770567 0 16.00028557693155 0 -1 0 I I #
face $-1 $705 $726 $19 $-1 $743 reversed single #
plane-surface $-1 0 0 -16.00028557693155 0 0 1 1 0 0 forward_v I I I I #
straight-curve $-1 -67.806024353770567 45.141798116024148 0 0 0 -1 I I #
straight-curve $-1 -67.806024353770567 0 -16.00028557693155 0 1 0 I I #
point $-1 -67.806024353770567 -45.141798116024148 -16.00028557693155 #
point $-1 -67.806024353770567 45.141798116024148 -16.00028557693155 #
straight-curve $-1 54.232403450235836 -45.141798116024148 51.229466145096943 0 0 1 I I #
coedge $-1 $719 $686 $739 $744 reversed $639 $-1 #
coedge $-1 $686 $718 $721 $745 forward $639 $-1 #
edge $-1 $740 24.531123880226346 $730 36.017739751056631 $697 $746 forward 7 unknown #
coedge $-1 $694 $687 $719 $745 reversed $641 $-1 #
vertex $-1 $688 $747 #
point $-1 63.019213902003202 -37.181739831111308 8.1585253146277328 #
coedge $-1 $739 $692 $694 $728 forward $726 $-1 #
coedge $-1 $692 $734 $700 $732 reversed $726 $-1 #
loop $-1 $-1 $739 $711 #
straight-curve $-1 67.806024353770567 -45.141798116024148 0 0 0 -1 I I #
edge $-1 $695 -37.296417402768967 $748 -23.722796499234235 $724 $749 forward 7 unknown #
point $-1 67.806024353770567 -45.141798116024148 4.9077893181140828 #
vertex $-1 $698 $750 #
straight-curve $-1 30.509606951001601 -33.655182245193856 16.00028557693155 1 0 0 I I #
edge $-1 $701 -67.806024353770567 $736 67.806024353770567 $725 $751 forward 7 unknown #
point $-1 67.806024353770567 -45.141798116024148 -16.00028557693155 #
coedge $-1 $725 $707 $703 $735 forward $726 $-1 #
edge $-1 $709 -16.00028557693155 $736 16.00028557693155 $703 $752 forward 7 unknown #
vertex $-1 $704 $753 #
straight-curve $-1 -67.806024353770567 0 -16.00028557693155 0 1 0 I I #
plane-surface $-1 -67.806024353770567 0 0 1 0 0 0 0 -1 forward_v I I I I #
coedge $-1 $707 $724 $718 $744 forward $726 $-1 #
vertex $-1 $744 $754 #
straight-curve $-1 0 -45.141798116024148 16.00028557693155 1 0 0 I I #
point $-1 -67.806024353770567 -45.141798116024148 16.00028557693155 #
plane-surface $-1 0 -45.141798116024148 0 0 1 0 0 0 1 forward_v I I I I #
edge $-1 $748 -46.321676826982859 $740 -35.22918056816539 $739 $755 forward 7 unknown #
edge $-1 $748 1.9477141995791963e-014 $730 15.968275342562524 $719 $756 forward 7 unknown #
straight-curve $-1 54.232403450235836 -69.672921996250494 16.000285576931546 0 1 0 I I #
point $-1 61.019213902003202 -35.792423073871895 6.7198457297118344 #
vertex $-1 $728 $757 #
straight-curve $-1 30.509606951001601 -45.141798116024148 4.9077893181140819 -1 0 0 I I #
point $-1 54.232403450235836 -33.655182245193863 16.00028557693155 #
straight-curve $-1 0 -45.141798116024148 -16.00028557693155 -1 0 0 I I #
straight-curve $-1 -67.806024353770567 -45.141798116024148 0 0 0 -1 I I #
point $-1 -67.806024353770567 -45.141798116024148 -16.00028557693155 #
point $-1 54.232403450235836 -45.141798116024148 16.00028557693155 #
straight-curve $-1 54.232403450235836 -45.141798116024148 51.229466145096943 0 0 1 I I #
straight-curve $-1 54.232403450235836 -45.141798116024162 4.9077893181140695 0 0.71933979245794832 0.69465837861970381 I I #
point $-1 54.232403450235836 -45.141798116024148 4.9077893181140828 #
End-of-ACIS-data 