500 0 8 0           
7 Unknown 11 ACIS 5.0 NT 24 Thu Mar 25 22:35:49 1999 
-1 9.9999999999999995e-007 1e-010 
body $-1 $8 $-1 $9 #
body $-1 $10 $-1 $11 #
body $-1 $12 $-1 $13 #
body $-1 $14 $-1 $15 #
body $-1 $16 $-1 $17 #
body $-1 $18 $-1 $19 #
body $-1 $20 $-1 $21 #
body $-1 $22 $-1 $23 #
lump $-1 $-1 $24 $0 #
transform $-1 1 0 0 0 1 0 0 0 1 68.630024109622482 30.895344695462491 12.596686485257724 1 rotate no_reflect no_shear #
lump $-1 $-1 $25 $1 #
transform $-1 1 0 0 0 1 0 0 0 1 68.630024109622482 30.895344695462491 12.596686485257724 1 rotate no_reflect no_shear #
lump $-1 $-1 $26 $2 #
transform $-1 1 0 0 0 1 0 0 0 1 68.630024109622482 30.895344695462491 12.596686485257724 1 rotate no_reflect no_shear #
lump $-1 $-1 $27 $3 #
transform $-1 1 0 0 0 1 0 0 0 1 68.630024109622482 30.895344695462491 12.596686485257724 1 rotate no_reflect no_shear #
lump $-1 $-1 $28 $4 #
transform $-1 1 0 0 0 1 0 0 0 1 68.630024109622482 30.895344695462491 12.596686485257724 1 rotate no_reflect no_shear #
lump $-1 $-1 $29 $5 #
transform $-1 1 0 0 0 1 0 0 0 1 68.630024109622482 30.895344695462491 12.596686485257724 1 rotate no_reflect no_shear #
lump $-1 $-1 $30 $6 #
transform $-1 1 0 0 0 1 0 0 0 1 68.630024109622482 30.895344695462491 12.596686485257724 1 rotate no_reflect no_shear #
lump $-1 $-1 $31 $7 #
transform $-1 1 0 0 0 1 0 0 0 1 68.630024109622482 30.895344695462491 12.596686485257724 1 rotate no_reflect no_shear #
shell $-1 $-1 $-1 $32 $-1 $8 #
shell $-1 $-1 $-1 $33 $-1 $10 #
shell $-1 $-1 $-1 $34 $-1 $12 #
shell $-1 $-1 $-1 $35 $-1 $14 #
shell $-1 $-1 $-1 $36 $-1 $16 #
shell $-1 $-1 $-1 $37 $-1 $18 #
shell $-1 $-1 $-1 $38 $-1 $20 #
shell $-1 $-1 $-1 $39 $-1 $22 #
face $-1 $40 $41 $24 $-1 $42 forward single #
face $-1 $43 $44 $25 $-1 $45 reversed single #
face $-1 $46 $47 $26 $-1 $48 reversed single #
face $-1 $49 $50 $27 $-1 $51 forward single #
face $-1 $52 $53 $28 $-1 $54 forward single #
face $-1 $55 $56 $29 $-1 $57 reversed single #
face $-1 $58 $59 $30 $-1 $60 forward single #
face $-1 $61 $62 $31 $-1 $63 forward single #
face $-1 $64 $65 $24 $-1 $66 reversed single #
loop $-1 $-1 $67 $32 #
plane-surface $-1 0 0 12.596686485257724 0 0 1 1 0 0 forward_v I I I I #
face $-1 $68 $69 $25 $-1 $70 reversed single #
loop $-1 $-1 $71 $33 #
plane-surface $-1 -46.436651139107035 -26.470250636609052 0 1 0 0 0 0 -1 forward_v I I I I #
face $-1 $72 $73 $26 $-1 $74 reversed single #
loop $-1 $-1 $75 $34 #
plane-surface $-1 48.339481128741355 -10.669643152414514 197.43775904182175 0 -1 0 -0.62932039886446345 0 -0.77714595512881146 forward_v I I I I #
face $-1 $76 $77 $27 $-1 $78 forward single #
loop $-1 $79 $80 $35 #
cone-surface $-1 61.967995993403903 -18.795009884801011 6.5249215542694285 -0.62932039886446345 0 -0.77714595512881146 1.1657189326932171 0 -0.94398059829669512 1 I I 0 1 1.5 forward I I I I #
face $-1 $81 $82 $28 $-1 $83 forward single #
loop $-1 $84 $85 $36 #
cone-surface $-1 61.967995993403903 -13.91978984536911 6.5249215542694285 -0.62932039886446345 0 -0.77714595512881146 1.1657189326932171 0 -0.94398059829669512 1 I I 0 1 1.5 forward I I I I #
face $-1 $86 $87 $29 $-1 $88 reversed single #
loop $-1 $-1 $89 $37 #
plane-surface $-1 -155.0105724031132 -22.045156577755613 111.057210748331 0 1 0 -0.62932039886446345 0 0.77714595512881146 forward_v I I I I #
face $-1 $90 $91 $30 $-1 $92 forward single #
loop $-1 $93 $94 $38 #
cone-surface $-1 -61.967995993403932 -18.795009884801011 6.5249215542694143 0.62932039886446345 0 -0.77714595512881146 1.1657189326932171 0 0.94398059829669512 1 I I 0 1 1.5 forward I I I I #
face $-1 $95 $96 $31 $-1 $97 forward single #
loop $-1 $98 $99 $39 #
cone-surface $-1 -61.967995993403932 -13.91978984536911 6.5249215542694143 0.62932039886446345 0 -0.77714595512881146 1.1657189326932171 0 0.94398059829669512 1 I I 0 1 1.5 forward I I I I #
face $-1 $100 $101 $24 $-1 $102 reversed single #
loop $-1 $-1 $103 $40 #
plane-surface $-1 0 0 -12.596686485257724 0 0 1 1 0 0 forward_v I I I I #
coedge $-1 $104 $105 $106 $107 forward $41 $-1 #
face $-1 $108 $109 $25 $-1 $110 reversed single #
loop $-1 $-1 $111 $43 #
plane-surface $-1 -44.936651139107035 -22.045156577755613 0 0 -1 0 0 0 -1 forward_v I I I I #
coedge $-1 $112 $113 $114 $115 forward $44 $-1 #
face $-1 $116 $117 $26 $-1 $118 reversed single #
loop $-1 $-1 $119 $46 #
plane-surface $-1 -38.041067164749379 -16.357399865085064 90.766667767449903 0.62932039886446345 0 0.77714595512881146 0.77714595512881146 0 -0.62932039886446345 forward_v I I I I #
coedge $-1 $120 $121 $122 $123 reversed $47 $-1 #
face $-1 $-1 $124 $27 $-1 $125 forward single #
loop $-1 $126 $127 $49 #
cone-surface $-1 59.90358040170058 -18.795009884801011 3.9755806625837913 -0.62932039886446345 0 -0.77714595512881146 0.58285946634660857 0 -0.47199029914834756 1 I I -0.70710678118654757 0.70710678118654757 0.75 forward I I I I #
loop $-1 $-1 $128 $35 #
coedge $-1 $80 $80 $129 $130 reversed $50 $-1 #
face $-1 $-1 $131 $28 $-1 $132 forward single #
loop $-1 $133 $134 $52 #
cone-surface $-1 59.90358040170058 -13.91978984536911 3.9755806625837913 -0.62932039886446345 0 -0.77714595512881146 0.58285946634660857 0 -0.47199029914834756 1 I I -0.70710678118654757 0.70710678118654757 0.75 forward I I I I #
loop $-1 $-1 $135 $36 #
coedge $-1 $85 $85 $136 $137 reversed $53 $-1 #
face $-1 $138 $139 $29 $-1 $140 reversed single #
loop $-1 $-1 $141 $55 #
plane-surface $-1 -68.630024109622468 -16.357399865085064 4.3861194739591554 -0.62932039886446345 0 0.77714595512881146 0.77714595512881146 0 0.62932039886446345 forward_v I I I I #
coedge $-1 $142 $143 $144 $145 reversed $56 $-1 #
face $-1 $-1 $146 $30 $-1 $147 forward single #
loop $-1 $148 $149 $58 #
cone-surface $-1 -59.903580401700609 -18.795009884801011 3.9755806625837771 0.62932039886446345 0 -0.77714595512881146 0.58285946634660857 0 0.47199029914834756 1 I I -0.70710678118654757 0.70710678118654757 0.75 forward I I I I #
loop $-1 $-1 $150 $38 #
coedge $-1 $94 $94 $151 $152 reversed $59 $-1 #
face $-1 $-1 $153 $31 $-1 $154 forward single #
loop $-1 $155 $156 $61 #
cone-surface $-1 -59.903580401700609 -13.91978984536911 3.9755806625837771 0.62932039886446345 0 -0.77714595512881146 0.58285946634660857 0 0.47199029914834756 1 I I -0.70710678118654757 0.70710678118654757 0.75 forward I I I I #
loop $-1 $-1 $157 $39 #
coedge $-1 $99 $99 $158 $159 reversed $62 $-1 #
face $-1 $160 $161 $24 $-1 $162 reversed single #
loop $-1 $-1 $163 $64 #
plane-surface $-1 0 -30.895344695462491 0 0 1 0 0 0 1 forward_v I I I I #
coedge $-1 $164 $165 $166 $167 forward $65 $-1 #
coedge $-1 $168 $67 $169 $170 forward $41 $-1 #
coedge $-1 $67 $168 $171 $172 forward $41 $-1 #
coedge $-1 $173 $174 $67 $107 reversed $175 $-1 #
edge $-1 $176 -30.895344695462491 $177 30.895344695462491 $106 $178 forward 7 unknown #
face $-1 $179 $180 $25 $-1 $181 forward single #
loop $-1 $-1 $182 $68 #
plane-surface $-1 -43.436651139107035 -26.470250636609052 0 -1 0 0 0 0 1 forward_v I I I I #
coedge $-1 $183 $184 $185 $186 forward $69 $-1 #
coedge $-1 $187 $71 $188 $189 reversed $44 $-1 #
coedge $-1 $71 $187 $190 $191 reversed $44 $-1 #
coedge $-1 $184 $183 $71 $115 reversed $69 $-1 #
edge $-1 $192 -12.596686485257724 $193 12.596686485257724 $114 $194 forward 7 unknown #
face $-1 $195 $196 $26 $-1 $197 reversed single #
loop $-1 $-1 $198 $72 #
plane-surface $-1 48.339481128741355 -22.045156577755613 197.43775904182175 0 1 0 0.62932039886446345 0 0.77714595512881146 forward_v I I I I #
coedge $-1 $199 $200 $201 $202 reversed $73 $-1 #
coedge $-1 $121 $75 $203 $204 reversed $47 $-1 #
coedge $-1 $75 $120 $199 $205 reversed $47 $-1 #
coedge $-1 $201 $206 $75 $123 forward $207 $-1 #
edge $-1 $208 -44.460283545251805 $209 -34.321077897924674 $122 $210 forward 7 unknown #
loop $-1 $-1 $129 $76 #
plane-surface $-1 -38.041067164749379 -16.357399865085064 90.766667767449903 0.62932039886446345 0 0.77714595512881146 0.77714595512881146 0 -0.62932039886446345 forward_v I I I I #
loop $-1 $-1 $211 $49 #
coedge $-1 $127 $127 $128 $212 reversed $77 $-1 #
coedge $-1 $128 $128 $127 $212 forward $79 $-1 #
coedge $-1 $129 $129 $80 $130 forward $124 $-1 #
edge $-1 $213 0 $213 6.2831853071796004 $129 $214 forward 7 unknown #
loop $-1 $-1 $136 $81 #
plane-surface $-1 -38.041067164749379 -16.357399865085064 90.766667767449903 0.62932039886446345 0 0.77714595512881146 0.77714595512881146 0 -0.62932039886446345 forward_v I I I I #
loop $-1 $-1 $215 $52 #
coedge $-1 $134 $134 $135 $216 reversed $82 $-1 #
coedge $-1 $135 $135 $134 $216 forward $84 $-1 #
coedge $-1 $136 $136 $85 $137 forward $131 $-1 #
edge $-1 $217 0 $217 6.2831853071796004 $136 $218 forward 7 unknown #
face $-1 $219 $220 $29 $-1 $221 reversed single #
loop $-1 $-1 $222 $86 #
plane-surface $-1 -155.0105724031132 -10.669643152414514 111.057210748331 0 -1 0 0.62932039886446345 0 -0.77714595512881146 forward_v I I I I #
coedge $-1 $223 $224 $225 $226 reversed $87 $-1 #
coedge $-1 $143 $89 $227 $228 reversed $56 $-1 #
coedge $-1 $89 $142 $223 $229 reversed $56 $-1 #
coedge $-1 $225 $230 $89 $145 forward $231 $-1 #
edge $-1 $232 8.8752620919341183 $233 19.014467739261278 $144 $234 forward 7 unknown #
loop $-1 $-1 $151 $90 #
plane-surface $-1 -68.630024109622468 -16.357399865085064 4.3861194739591554 -0.62932039886446345 0 0.77714595512881146 0.77714595512881146 0 0.62932039886446345 forward_v I I I I #
loop $-1 $-1 $235 $58 #
coedge $-1 $149 $149 $150 $236 reversed $91 $-1 #
coedge $-1 $150 $150 $149 $236 forward $93 $-1 #
coedge $-1 $151 $151 $94 $152 forward $146 $-1 #
edge $-1 $237 0 $237 6.2831853071796004 $151 $238 forward 7 unknown #
loop $-1 $-1 $158 $95 #
plane-surface $-1 -68.630024109622468 -16.357399865085064 4.3861194739591554 -0.62932039886446345 0 0.77714595512881146 0.77714595512881146 0 0.62932039886446345 forward_v I I I I #
loop $-1 $-1 $239 $61 #
coedge $-1 $156 $156 $157 $240 reversed $96 $-1 #
coedge $-1 $157 $157 $156 $240 forward $98 $-1 #
coedge $-1 $158 $158 $99 $159 forward $153 $-1 #
edge $-1 $241 0 $241 6.2831853071796004 $158 $242 forward 7 unknown #
face $-1 $243 $244 $24 $-1 $245 reversed single #
loop $-1 $-1 $246 $100 #
plane-surface $-1 -68.630024109622482 0 0 1 0 0 0 0 -1 forward_v I I I I #
coedge $-1 $247 $171 $248 $249 forward $101 $-1 #
coedge $-1 $250 $103 $247 $251 forward $65 $-1 #
coedge $-1 $103 $250 $252 $253 forward $65 $-1 #
coedge $-1 $174 $173 $103 $167 reversed $175 $-1 #
edge $-1 $254 -30.895344695462491 $255 30.895344695462491 $166 $256 forward 7 unknown #
coedge $-1 $105 $104 $257 $258 forward $41 $-1 #
coedge $-1 $259 $260 $104 $170 reversed $244 $-1 #
edge $-1 $177 -68.630024109622482 $261 68.630024109622482 $169 $262 forward 7 unknown #
coedge $-1 $163 $263 $105 $172 reversed $101 $-1 #
edge $-1 $264 -68.630024109622482 $176 68.630024109622482 $171 $265 forward 7 unknown #
coedge $-1 $166 $106 $263 $266 forward $175 $-1 #
coedge $-1 $106 $166 $259 $267 reversed $175 $-1 #
loop $-1 $-1 $173 $243 #
vertex $-1 $107 $268 #
vertex $-1 $107 $269 #
straight-curve $-1 68.630024109622482 0 12.596686485257724 0 1 0 I I #
face $-1 $270 $271 $25 $-1 $272 reversed single #
loop $-1 $-1 $273 $108 #
plane-surface $-1 0 0 12.596686485257724 0 0 1 1 0 0 forward_v I I I I #
coedge $-1 $274 $275 $276 $277 reversed $109 $-1 #
coedge $-1 $114 $111 $278 $279 reversed $69 $-1 #
coedge $-1 $111 $114 $280 $281 reversed $69 $-1 #
coedge $-1 $275 $274 $111 $186 reversed $109 $-1 #
edge $-1 $282 -12.596686485257724 $283 12.596686485257724 $185 $284 forward 7 unknown #
coedge $-1 $113 $112 $285 $286 reversed $44 $-1 #
coedge $-1 $278 $287 $112 $189 forward $271 $-1 #
edge $-1 $288 -17.660219377157965 $193 -8.8100312594510868 $188 $289 forward 7 unknown #
coedge $-1 $290 $280 $113 $191 forward $180 $-1 #
edge $-1 $192 8.8100312594510868 $291 17.660219377157965 $190 $292 forward 7 unknown #
vertex $-1 $191 $293 #
vertex $-1 $189 $294 #
straight-curve $-1 -46.436651139107035 -22.045156577755613 0 0 0 -1 I I #
face $-1 $-1 $207 $26 $-1 $295 forward single #
loop $-1 $-1 $296 $116 #
plane-surface $-1 68.630024109622482 0 0 -1 0 0 0 0 1 forward_v I I I I #
coedge $-1 $297 $298 $299 $300 reversed $117 $-1 #
coedge $-1 $301 $119 $121 $205 forward $73 $-1 #
coedge $-1 $119 $301 $297 $302 forward $73 $-1 #
coedge $-1 $299 $122 $119 $202 forward $207 $-1 #
edge $-1 $209 2.4909432198719816 $303 13.866456645213081 $201 $304 forward 7 unknown #
coedge $-1 $305 $306 $120 $204 forward $196 $-1 #
edge $-1 $307 -94.332760046951719 $208 -86.122193035653154 $203 $308 forward 7 unknown #
edge $-1 $209 124.21332825575169 $307 137.26004821924499 $121 $309 forward 7 unknown #
coedge $-1 $122 $299 $305 $310 forward $207 $-1 #
loop $-1 $-1 $299 $195 #
vertex $-1 $204 $311 #
vertex $-1 $123 $312 #
straight-curve $-1 24.169740564370677 -10.669643152414514 12.59668648525772 -1 0 0 I I #
coedge $-1 $211 $211 $-1 $313 reversed $126 $-1 #
edge $-1 $314 0 $314 6.2831853071796004 $127 $315 forward 7 unknown #
vertex $-1 $130 $316 #
ellipse-curve $-1 63.560421285958888 -18.795009884801011 8.4914029796084662 0.62932039886446345 0 0.77714595512881146 1.1657189326932171 0 -0.94398059829669512 1 I I #
coedge $-1 $215 $215 $-1 $317 reversed $133 $-1 #
edge $-1 $318 0 $318 6.2831853071796004 $134 $319 forward 7 unknown #
vertex $-1 $137 $320 #
ellipse-curve $-1 63.560421285958888 -13.91978984536911 8.4914029796084662 0.62932039886446345 0 0.77714595512881146 1.1657189326932171 0 -0.94398059829669512 1 I I #
face $-1 $-1 $231 $29 $-1 $321 forward single #
loop $-1 $-1 $322 $138 #
plane-surface $-1 -68.630024109622482 0 0 1 0 0 0 0 -1 forward_v I I I I #
coedge $-1 $323 $324 $325 $326 reversed $139 $-1 #
coedge $-1 $327 $141 $143 $229 forward $87 $-1 #
coedge $-1 $141 $327 $323 $328 forward $87 $-1 #
coedge $-1 $325 $144 $141 $226 forward $231 $-1 #
edge $-1 $233 -13.866456645213081 $329 -2.4909432198719816 $225 $330 forward 7 unknown #
coedge $-1 $331 $332 $142 $228 forward $220 $-1 #
edge $-1 $333 -51.14248590020636 $232 -42.931918888907774 $227 $334 forward 7 unknown #
edge $-1 $233 -13.046719963493313 $333 1.8310242626372826e-014 $143 $335 forward 7 unknown #
coedge $-1 $144 $325 $331 $336 forward $231 $-1 #
loop $-1 $-1 $325 $219 #
vertex $-1 $228 $337 #
vertex $-1 $145 $338 #
straight-curve $-1 -77.505286201556601 -22.045156577755613 12.596686485257727 1 0 0 I I #
coedge $-1 $235 $235 $-1 $339 reversed $148 $-1 #
edge $-1 $340 0 $340 6.2831853071796004 $149 $341 forward 7 unknown #
vertex $-1 $152 $342 #
ellipse-curve $-1 -63.560421285958903 -18.795009884801011 8.4914029796084343 -0.62932039886446345 0 0.77714595512881146 1.1657189326932171 0 0.94398059829669512 1 I I #
coedge $-1 $239 $239 $-1 $343 reversed $155 $-1 #
edge $-1 $344 0 $344 6.2831853071796004 $156 $345 forward 7 unknown #
vertex $-1 $159 $346 #
ellipse-curve $-1 -63.560421285958903 -13.91978984536911 8.4914029796084343 -0.62932039886446345 0 0.77714595512881146 1.1657189326932171 0 0.94398059829669512 1 I I #
face $-1 $-1 $175 $24 $-1 $347 reversed single #
loop $-1 $-1 $259 $160 #
plane-surface $-1 0 30.895344695462491 0 0 -1 0 0 0 -1 forward_v I I I I #
coedge $-1 $348 $257 $260 $349 forward $161 $-1 #
coedge $-1 $263 $163 $164 $251 reversed $101 $-1 #
coedge $-1 $257 $348 $163 $249 reversed $161 $-1 #
edge $-1 $264 -12.596686485257724 $350 12.596686485257724 $248 $351 forward 7 unknown #
coedge $-1 $165 $164 $348 $352 forward $65 $-1 #
edge $-1 $255 -68.630024109622482 $350 68.630024109622482 $247 $353 forward 7 unknown #
coedge $-1 $260 $259 $165 $253 reversed $244 $-1 #
edge $-1 $354 -68.630024109622482 $254 68.630024109622482 $252 $355 forward 7 unknown #
vertex $-1 $167 $356 #
vertex $-1 $266 $357 #
straight-curve $-1 68.630024109622482 0 -12.596686485257724 0 -1 0 I I #
coedge $-1 $246 $248 $168 $258 reversed $161 $-1 #
edge $-1 $261 -30.895344695462491 $264 30.895344695462491 $257 $358 forward 7 unknown #
coedge $-1 $252 $169 $174 $267 forward $244 $-1 #
coedge $-1 $169 $252 $246 $349 reversed $244 $-1 #
vertex $-1 $170 $359 #
straight-curve $-1 0 30.895344695462491 12.596686485257724 -1 0 0 I I #
coedge $-1 $171 $247 $173 $266 reversed $101 $-1 #
vertex $-1 $258 $360 #
straight-curve $-1 0 -30.895344695462491 12.596686485257724 1 0 0 I I #
edge $-1 $176 -12.596686485257724 $255 12.596686485257724 $173 $361 forward 7 unknown #
edge $-1 $177 -12.596686485257724 $254 12.596686485257724 $174 $362 forward 7 unknown #
point $-1 68.630024109622482 -30.895344695462491 12.596686485257724 #
point $-1 68.630024109622482 30.895344695462491 12.596686485257724 #
face $-1 $-1 $363 $25 $-1 $364 reversed single #
loop $-1 $-1 $365 $179 #
plane-surface $-1 0 0 -12.596686485257724 0 0 1 1 0 0 forward_v I I I I #
coedge $-1 $280 $290 $275 $366 forward $180 $-1 #
coedge $-1 $185 $182 $365 $367 reversed $109 $-1 #
coedge $-1 $182 $185 $273 $366 reversed $109 $-1 #
coedge $-1 $368 $369 $182 $277 forward $363 $-1 #
edge $-1 $370 -12.596686485257724 $371 12.596686485257724 $276 $372 forward 7 unknown #
coedge $-1 $365 $188 $183 $279 forward $271 $-1 #
edge $-1 $193 -23.968325569553517 $283 -20.968325569553517 $278 $373 forward 7 unknown #
coedge $-1 $190 $273 $184 $281 forward $180 $-1 #
edge $-1 $282 20.968325569553517 $192 23.968325569553517 $280 $374 forward 7 unknown #
vertex $-1 $281 $375 #
vertex $-1 $279 $376 #
straight-curve $-1 -43.436651139107035 -22.045156577755613 0 0 0 -1 I I #
coedge $-1 $369 $368 $187 $286 forward $363 $-1 #
edge $-1 $291 -12.596686485257724 $288 12.596686485257724 $285 $377 forward 7 unknown #
coedge $-1 $188 $365 $369 $378 forward $271 $-1 #
vertex $-1 $189 $379 #
straight-curve $-1 -46.436651139107035 -13.235125318304526 -12.596686485257724 0 1 0 I I #
coedge $-1 $273 $190 $368 $380 forward $180 $-1 #
vertex $-1 $380 $381 #
straight-curve $-1 -46.436651139107035 -13.235125318304526 12.596686485257724 0 -1 0 I I #
point $-1 -46.436651139107035 -22.045156577755613 12.596686485257724 #
point $-1 -46.436651139107035 -22.045156577755613 -12.596686485257724 #
plane-surface $-1 0 0 12.596686485257724 0 0 1 1 0 0 forward_v I I I I #
coedge $-1 $306 $305 $298 $382 forward $196 $-1 #
coedge $-1 $298 $198 $200 $302 reversed $117 $-1 #
coedge $-1 $198 $297 $296 $382 reversed $117 $-1 #
coedge $-1 $206 $201 $198 $300 forward $207 $-1 #
edge $-1 $303 34.321077897924674 $383 44.460283545251805 $299 $384 forward 7 unknown #
coedge $-1 $200 $199 $306 $385 reversed $73 $-1 #
edge $-1 $386 -137.26004821924499 $303 -124.21332825575169 $297 $387 forward 7 unknown #
vertex $-1 $202 $388 #
straight-curve $-1 58.490818462295373 -8.178699932542532 12.596686485257713 0 -1 0 I I #
coedge $-1 $296 $203 $206 $310 reversed $196 $-1 #
coedge $-1 $203 $296 $301 $385 forward $196 $-1 #
vertex $-1 $204 $389 #
straight-curve $-1 68.630024109622482 -10.669643152414514 98.718879520910875 0 0 1 I I #
straight-curve $-1 -38.041067164749379 -10.669643152414514 90.766667767449903 0.77714595512881146 0 -0.62932039886446345 I I #
edge $-1 $383 -22.045156577755613 $208 -10.669643152414514 $305 $390 forward 7 unknown #
point $-1 68.630024109622482 -10.669643152414514 12.596686485257724 #
point $-1 58.490818462295351 -10.669643152414514 12.59668648525772 #
edge $-1 $391 1 $391 0 $211 $-1 forward 7 unknown #
vertex $-1 $212 $392 #
ellipse-curve $-1 60.375570700848925 -18.795009884801011 4.5584401289303997 0.62932039886446345 0 0.77714595512881146 1.1657189326932171 0 -0.94398059829669512 1 I I #
point $-1 64.726140218652105 -18.795009884801011 7.5474223813117618 #
edge $-1 $393 1 $393 0 $215 $-1 forward 7 unknown #
vertex $-1 $216 $394 #
ellipse-curve $-1 60.375570700848925 -13.91978984536911 4.5584401289303997 0.62932039886446345 0 0.77714595512881146 1.1657189326932171 0 -0.94398059829669512 1 I I #
point $-1 64.726140218652105 -13.91978984536911 7.5474223813117618 #
plane-surface $-1 0 0 12.596686485257724 0 0 1 1 0 0 forward_v I I I I #
coedge $-1 $332 $331 $324 $395 forward $220 $-1 #
coedge $-1 $324 $222 $224 $328 reversed $139 $-1 #
coedge $-1 $222 $323 $322 $395 reversed $139 $-1 #
coedge $-1 $230 $225 $222 $326 forward $231 $-1 #
edge $-1 $329 -19.014467739261278 $396 -8.8752620919341183 $325 $397 forward 7 unknown #
coedge $-1 $224 $223 $332 $398 reversed $87 $-1 #
edge $-1 $399 -1.8310242626372826e-014 $329 13.046719963493313 $323 $400 forward 7 unknown #
vertex $-1 $226 $401 #
straight-curve $-1 -58.490818462295323 -8.178699932542532 12.596686485257722 0 1 0 I I #
coedge $-1 $322 $227 $230 $336 reversed $220 $-1 #
coedge $-1 $227 $322 $327 $398 forward $220 $-1 #
vertex $-1 $228 $402 #
straight-curve $-1 -68.630024109622482 -22.045156577755613 55.528605374165501 0 0 1 I I #
straight-curve $-1 -68.630024109622468 -22.045156577755613 4.3861194739591554 -0.77714595512881146 0 -0.62932039886446345 I I #
edge $-1 $396 10.669643152414514 $232 22.045156577755613 $331 $403 forward 7 unknown #
point $-1 -68.630024109622482 -22.045156577755613 12.596686485257724 #
point $-1 -58.490818462295323 -22.045156577755613 12.596686485257724 #
edge $-1 $404 1 $404 0 $235 $-1 forward 7 unknown #
vertex $-1 $236 $405 #
ellipse-curve $-1 -60.375570700848954 -18.795009884801011 4.5584401289303855 -0.62932039886446345 0 0.77714595512881146 1.1657189326932171 0 0.94398059829669512 1 I I #
point $-1 -62.3947023532657 -18.795009884801011 9.4353835779051369 #
edge $-1 $406 1 $406 0 $239 $-1 forward 7 unknown #
vertex $-1 $240 $407 #
ellipse-curve $-1 -60.375570700848954 -13.91978984536911 4.5584401289303855 -0.62932039886446345 0 0.77714595512881146 1.1657189326932171 0 0.94398059829669512 1 I I #
point $-1 -62.3947023532657 -13.91978984536911 9.4353835779051369 #
plane-surface $-1 68.630024109622482 0 0 -1 0 0 0 0 1 forward_v I I I I #
coedge $-1 $248 $246 $250 $352 reversed $161 $-1 #
edge $-1 $261 -12.596686485257724 $354 12.596686485257724 $260 $408 forward 7 unknown #
vertex $-1 $352 $409 #
straight-curve $-1 -68.630024109622482 -30.895344695462491 0 0 0 -1 I I #
edge $-1 $350 -30.895344695462491 $354 30.895344695462491 $348 $410 forward 7 unknown #
straight-curve $-1 0 -30.895344695462491 -12.596686485257724 -1 0 0 I I #
vertex $-1 $253 $411 #
straight-curve $-1 0 30.895344695462491 -12.596686485257724 1 0 0 I I #
point $-1 68.630024109622482 30.895344695462491 -12.596686485257724 #
point $-1 68.630024109622482 -30.895344695462491 -12.596686485257724 #
straight-curve $-1 -68.630024109622482 0 12.596686485257724 0 -1 0 I I #
point $-1 -68.630024109622482 30.895344695462491 12.596686485257724 #
point $-1 -68.630024109622482 -30.895344695462491 12.596686485257724 #
straight-curve $-1 68.630024109622482 -30.895344695462491 0 0 0 -1 I I #
straight-curve $-1 68.630024109622482 30.895344695462491 0 0 0 -1 I I #
loop $-1 $-1 $276 $270 #
plane-surface $-1 0 -30.895344695462491 0 0 1 0 0 0 1 forward_v I I I I #
coedge $-1 $287 $278 $274 $367 forward $271 $-1 #
edge $-1 $371 -17.660219377157965 $282 -8.8100312594510868 $273 $412 forward 7 unknown #
edge $-1 $283 8.8100312594510868 $370 17.660219377157965 $365 $413 forward 7 unknown #
coedge $-1 $285 $276 $290 $380 reversed $363 $-1 #
coedge $-1 $276 $285 $287 $378 reversed $363 $-1 #
vertex $-1 $378 $414 #
vertex $-1 $277 $415 #
straight-curve $-1 -43.436651139107035 -30.895344695462491 0 0 0 1 I I #
straight-curve $-1 -22.468325569553517 -22.045156577755613 -12.596686485257724 1 0 0 I I #
straight-curve $-1 -22.468325569553517 -22.045156577755613 12.596686485257724 -1 0 0 I I #
point $-1 -43.436651139107035 -22.045156577755613 12.596686485257724 #
point $-1 -43.436651139107035 -22.045156577755613 -12.596686485257724 #
straight-curve $-1 -46.436651139107035 -30.895344695462491 0 0 0 -1 I I #
edge $-1 $370 43.436651139107035 $288 46.436651139107035 $369 $416 forward 7 unknown #
point $-1 -46.436651139107035 -30.895344695462491 -12.596686485257724 #
edge $-1 $291 -46.436651139107035 $371 -43.436651139107035 $368 $417 forward 7 unknown #
point $-1 -46.436651139107035 -30.895344695462491 12.596686485257724 #
edge $-1 $383 86.122193035653154 $386 94.332760046951719 $296 $418 forward 7 unknown #
vertex $-1 $310 $419 #
straight-curve $-1 24.169740564370677 -22.045156577755613 12.59668648525772 1 0 0 I I #
edge $-1 $386 -13.866456645213081 $307 -2.4909432198719816 $306 $420 forward 7 unknown #
vertex $-1 $385 $421 #
straight-curve $-1 -38.041067164749379 -22.045156577755613 90.766667767449903 -0.77714595512881146 0 0.62932039886446345 I I #
point $-1 58.490818462295351 -22.045156577755613 12.59668648525772 #
point $-1 68.630024109622482 -10.669643152414514 4.3861194739591554 #
straight-curve $-1 68.630024109622482 0 12.596686485257724 0 1 0 I I #
vertex $-1 $313 $422 #
point $-1 61.541289633542142 -18.795009884801011 3.6144595306337046 #
vertex $-1 $317 $423 #
point $-1 61.541289633542142 -13.91978984536911 3.6144595306337046 #
edge $-1 $396 42.931918888907774 $399 51.14248590020636 $322 $424 forward 7 unknown #
vertex $-1 $336 $425 #
straight-curve $-1 -77.505286201556601 -10.669643152414514 12.596686485257727 -1 0 0 I I #
edge $-1 $399 2.4909432198719816 $333 13.866456645213081 $332 $426 forward 7 unknown #
vertex $-1 $398 $427 #
straight-curve $-1 -68.630024109622468 -10.669643152414514 4.3861194739591554 0.77714595512881146 0 0.62932039886446345 I I #
point $-1 -58.490818462295323 -10.669643152414514 12.596686485257724 #
point $-1 -68.630024109622482 -22.045156577755613 4.3861194739591438 #
straight-curve $-1 -68.630024109622482 0 12.596686485257724 0 -1 0 I I #
vertex $-1 $339 $428 #
point $-1 -59.209851768155737 -18.795009884801011 5.5024207272270811 #
vertex $-1 $343 $429 #
point $-1 -59.209851768155737 -13.91978984536911 5.5024207272270811 #
straight-curve $-1 -68.630024109622482 30.895344695462491 0 0 0 -1 I I #
point $-1 -68.630024109622482 -30.895344695462491 -12.596686485257724 #
straight-curve $-1 -68.630024109622482 0 -12.596686485257724 0 1 0 I I #
point $-1 -68.630024109622482 30.895344695462491 -12.596686485257724 #
straight-curve $-1 -43.436651139107035 -13.235125318304526 12.596686485257724 0 1 0 I I #
straight-curve $-1 -43.436651139107035 -13.235125318304526 -12.596686485257724 0 -1 0 I I #
point $-1 -43.436651139107035 -30.895344695462491 -12.596686485257724 #
point $-1 -43.436651139107035 -30.895344695462491 12.596686485257724 #
straight-curve $-1 0 -30.895344695462491 -12.596686485257724 -1 0 0 I I #
straight-curve $-1 0 -30.895344695462491 12.596686485257724 1 0 0 I I #
straight-curve $-1 68.630024109622482 -22.045156577755613 98.718879520910875 0 0 -1 I I #
point $-1 68.630024109622482 -22.045156577755613 12.596686485257724 #
straight-curve $-1 68.630024109622468 -8.178699932542532 4.3861194739591767 0 1 0 I I #
point $-1 68.630024109622482 -22.045156577755613 4.3861194739591554 #
point $-1 59.431590102552235 -18.795009884801011 3.3927211962371828 #
point $-1 59.431590102552235 -13.91978984536911 3.3927211962371828 #
straight-curve $-1 -68.630024109622482 -10.669643152414514 55.528605374165501 0 0 -1 I I #
point $-1 -68.630024109622482 -10.669643152414514 12.596686485257724 #
straight-curve $-1 -68.630024109622482 -8.178699932542532 4.3861194739591358 0 -1 0 I I #
point $-1 -68.630024109622482 -10.669643152414514 4.3861194739591438 #
point $-1 -59.431590102552263 -18.795009884801011 3.3927211962371686 #
point $-1 -59.431590102552263 -13.91978984536911 3.3927211962371686 #
End-of-ACIS-data 