500 0 3 0           
7 Unknown 11 ACIS 5.0 NT 24 Thu Mar 25 19:02:43 1999 
-1 9.9999999999999995e-007 1e-010 
body $-1 $3 $-1 $4 #
body $-1 $5 $-1 $6 #
body $-1 $7 $-1 $8 #
lump $-1 $-1 $9 $0 #
transform $-1 1 0 0 0 1 0 0 0 1 58.964201788384656 35.576825923553578 17.332722973675484 1 rotate no_reflect no_shear #
lump $-1 $-1 $10 $1 #
transform $-1 1 0 0 0 1 0 0 0 1 18.611332209476053 8.5035025510445603 17.332722973675484 1 rotate no_reflect no_shear #
lump $-1 $-1 $11 $2 #
transform $-1 1 0 0 0 1 0 0 0 1 58.964201788384656 78.666527946265646 3.303675079564508 1 rotate no_reflect no_shear #
shell $-1 $-1 $-1 $12 $-1 $3 #
shell $-1 $-1 $-1 $13 $-1 $5 #
shell $-1 $-1 $-1 $14 $-1 $7 #
face $-1 $15 $16 $9 $-1 $17 forward single #
face $-1 $18 $19 $10 $-1 $20 forward single #
face $-1 $21 $22 $11 $-1 $23 forward single #
face $-1 $24 $25 $9 $-1 $26 reversed single #
loop $-1 $-1 $27 $12 #
plane-surface $-1 0 0 17.332722973675484 0 0 1 1 0 0 forward_v I I I I #
face $-1 $28 $29 $10 $-1 $30 reversed single #
loop $-1 $-1 $31 $13 #
plane-surface $-1 0 0 17.332722973675484 0 0 1 1 0 0 forward_v I I I I #
face $-1 $32 $33 $11 $-1 $34 reversed single #
loop $-1 $-1 $35 $14 #
plane-surface $-1 0 0 3.303675079564508 0 0 1 1 0 0 forward_v I I I I #
face $-1 $36 $37 $9 $-1 $38 reversed single #
loop $-1 $-1 $39 $15 #
plane-surface $-1 0 0 -17.332722973675484 0 0 1 1 0 0 forward_v I I I I #
coedge $-1 $40 $41 $42 $43 forward $16 $-1 #
face $-1 $44 $45 $10 $-1 $46 reversed single #
loop $-1 $-1 $47 $18 #
plane-surface $-1 0 0 -17.332722973675484 0 0 1 1 0 0 forward_v I I I I #
coedge $-1 $48 $49 $50 $51 forward $19 $-1 #
face $-1 $52 $53 $11 $-1 $54 reversed single #
loop $-1 $-1 $55 $21 #
plane-surface $-1 0 0 -3.303675079564508 0 0 1 1 0 0 forward_v I I I I #
coedge $-1 $56 $57 $58 $59 forward $22 $-1 #
face $-1 $60 $61 $9 $-1 $62 reversed single #
loop $-1 $-1 $63 $24 #
plane-surface $-1 0 -35.576825923553578 0 0 1 0 0 0 1 forward_v I I I I #
coedge $-1 $64 $65 $66 $67 forward $25 $-1 #
coedge $-1 $68 $27 $69 $70 forward $16 $-1 #
coedge $-1 $27 $68 $71 $72 forward $16 $-1 #
coedge $-1 $73 $74 $27 $43 reversed $75 $-1 #
edge $-1 $76 -35.576825923553578 $77 35.576825923553578 $42 $78 forward 7 unknown #
face $-1 $79 $80 $10 $-1 $81 reversed single #
loop $-1 $-1 $82 $28 #
plane-surface $-1 0 -8.5035025510445603 0 0 1 0 0 0 1 forward_v I I I I #
coedge $-1 $83 $84 $85 $86 forward $29 $-1 #
coedge $-1 $87 $31 $88 $89 forward $19 $-1 #
coedge $-1 $31 $87 $90 $91 forward $19 $-1 #
coedge $-1 $92 $93 $31 $51 reversed $94 $-1 #
edge $-1 $95 -8.5035025510445603 $96 8.5035025510445603 $50 $97 forward 7 unknown #
face $-1 $98 $99 $11 $-1 $100 reversed single #
loop $-1 $-1 $101 $32 #
plane-surface $-1 0 -7.5128760991584898 0 0 1 0 0 0 1 forward_v I I I I #
coedge $-1 $102 $103 $104 $105 forward $33 $-1 #
coedge $-1 $106 $35 $107 $108 forward $22 $-1 #
coedge $-1 $35 $106 $109 $110 forward $22 $-1 #
coedge $-1 $111 $112 $35 $59 reversed $113 $-1 #
edge $-1 $114 -7.5128760991584898 $115 7.5128760991584898 $58 $116 forward 7 unknown #
face $-1 $117 $118 $9 $-1 $119 reversed single #
loop $-1 $-1 $120 $36 #
plane-surface $-1 -58.964201788384656 0 0 1 0 0 0 0 -1 forward_v I I I I #
coedge $-1 $121 $71 $122 $123 forward $37 $-1 #
coedge $-1 $124 $39 $121 $125 forward $25 $-1 #
coedge $-1 $39 $124 $126 $127 forward $25 $-1 #
coedge $-1 $74 $73 $39 $67 reversed $75 $-1 #
edge $-1 $128 -35.576825923553578 $129 35.576825923553578 $66 $130 forward 7 unknown #
coedge $-1 $41 $40 $131 $132 forward $16 $-1 #
coedge $-1 $133 $134 $40 $70 reversed $118 $-1 #
edge $-1 $77 -58.964201788384656 $135 58.964201788384656 $69 $136 forward 7 unknown #
coedge $-1 $63 $137 $41 $72 reversed $37 $-1 #
edge $-1 $138 -58.964201788384656 $76 58.964201788384656 $71 $139 forward 7 unknown #
coedge $-1 $66 $42 $137 $140 forward $75 $-1 #
coedge $-1 $42 $66 $133 $141 reversed $75 $-1 #
loop $-1 $-1 $73 $117 #
vertex $-1 $43 $142 #
vertex $-1 $43 $143 #
straight-curve $-1 58.964201788384656 0 17.332722973675484 0 1 0 I I #
face $-1 $144 $145 $10 $-1 $146 reversed single #
loop $-1 $-1 $147 $44 #
plane-surface $-1 -4.8969293169591595 0 0 1 0 0 0 0 -1 forward_v I I I I #
coedge $-1 $148 $90 $149 $150 forward $45 $-1 #
coedge $-1 $151 $47 $148 $152 forward $29 $-1 #
coedge $-1 $47 $151 $153 $154 forward $29 $-1 #
coedge $-1 $93 $92 $47 $86 reversed $94 $-1 #
edge $-1 $155 -8.5035025510445603 $156 8.5035025510445603 $85 $157 forward 7 unknown #
coedge $-1 $49 $48 $158 $159 forward $19 $-1 #
coedge $-1 $160 $161 $48 $89 reversed $145 $-1 #
edge $-1 $96 -4.8969293169591595 $162 4.8969293169591595 $88 $163 forward 7 unknown #
coedge $-1 $82 $164 $49 $91 reversed $45 $-1 #
edge $-1 $165 -4.8969293169591595 $95 4.8969293169591595 $90 $166 forward 7 unknown #
coedge $-1 $85 $50 $164 $167 forward $94 $-1 #
coedge $-1 $50 $85 $160 $168 reversed $94 $-1 #
loop $-1 $-1 $92 $144 #
vertex $-1 $51 $169 #
vertex $-1 $51 $170 #
straight-curve $-1 4.8969293169591595 0 17.332722973675484 0 1 0 I I #
face $-1 $171 $172 $11 $-1 $173 reversed single #
loop $-1 $-1 $174 $52 #
plane-surface $-1 -58.964201788384656 0 0 1 0 0 0 0 -1 forward_v I I I I #
coedge $-1 $175 $109 $176 $177 forward $53 $-1 #
coedge $-1 $178 $55 $175 $179 forward $33 $-1 #
coedge $-1 $55 $178 $180 $181 forward $33 $-1 #
coedge $-1 $112 $111 $55 $105 reversed $113 $-1 #
edge $-1 $182 -7.5128760991584898 $183 7.5128760991584898 $104 $184 forward 7 unknown #
coedge $-1 $57 $56 $185 $186 forward $22 $-1 #
coedge $-1 $187 $188 $56 $108 reversed $172 $-1 #
edge $-1 $115 -58.964201788384656 $189 58.964201788384656 $107 $190 forward 7 unknown #
coedge $-1 $101 $191 $57 $110 reversed $53 $-1 #
edge $-1 $192 -58.964201788384656 $114 58.964201788384656 $109 $193 forward 7 unknown #
coedge $-1 $104 $58 $191 $194 forward $113 $-1 #
coedge $-1 $58 $104 $187 $195 reversed $113 $-1 #
loop $-1 $-1 $111 $171 #
vertex $-1 $59 $196 #
vertex $-1 $59 $197 #
straight-curve $-1 58.964201788384656 0 3.303675079564508 0 1 0 I I #
face $-1 $-1 $75 $9 $-1 $198 reversed single #
loop $-1 $-1 $133 $60 #
plane-surface $-1 0 35.576825923553578 0 0 -1 0 0 0 -1 forward_v I I I I #
coedge $-1 $199 $131 $134 $200 forward $61 $-1 #
coedge $-1 $137 $63 $64 $125 reversed $37 $-1 #
coedge $-1 $131 $199 $63 $123 reversed $61 $-1 #
edge $-1 $138 -17.332722973675484 $201 17.332722973675484 $122 $202 forward 7 unknown #
coedge $-1 $65 $64 $199 $203 forward $25 $-1 #
edge $-1 $129 -58.964201788384656 $201 58.964201788384656 $121 $204 forward 7 unknown #
coedge $-1 $134 $133 $65 $127 reversed $118 $-1 #
edge $-1 $205 -58.964201788384656 $128 58.964201788384656 $126 $206 forward 7 unknown #
vertex $-1 $67 $207 #
vertex $-1 $140 $208 #
straight-curve $-1 58.964201788384656 0 -17.332722973675484 0 -1 0 I I #
coedge $-1 $120 $122 $68 $132 reversed $61 $-1 #
edge $-1 $135 -35.576825923553578 $138 35.576825923553578 $131 $209 forward 7 unknown #
coedge $-1 $126 $69 $74 $141 forward $118 $-1 #
coedge $-1 $69 $126 $120 $200 reversed $118 $-1 #
vertex $-1 $70 $210 #
straight-curve $-1 0 35.576825923553578 17.332722973675484 -1 0 0 I I #
coedge $-1 $71 $121 $73 $140 reversed $37 $-1 #
vertex $-1 $132 $211 #
straight-curve $-1 0 -35.576825923553578 17.332722973675484 1 0 0 I I #
edge $-1 $76 -17.332722973675484 $129 17.332722973675484 $73 $212 forward 7 unknown #
edge $-1 $77 -17.332722973675484 $128 17.332722973675484 $74 $213 forward 7 unknown #
point $-1 58.964201788384656 -35.576825923553578 17.332722973675484 #
point $-1 58.964201788384656 35.576825923553578 17.332722973675484 #
face $-1 $-1 $94 $10 $-1 $214 reversed single #
loop $-1 $-1 $160 $79 #
plane-surface $-1 0 8.5035025510445603 0 0 -1 0 0 0 -1 forward_v I I I I #
coedge $-1 $215 $158 $161 $216 forward $80 $-1 #
coedge $-1 $164 $82 $83 $152 reversed $45 $-1 #
coedge $-1 $158 $215 $82 $150 reversed $80 $-1 #
edge $-1 $165 -17.332722973675484 $217 17.332722973675484 $149 $218 forward 7 unknown #
coedge $-1 $84 $83 $215 $219 forward $29 $-1 #
edge $-1 $156 -4.8969293169591595 $217 4.8969293169591595 $148 $220 forward 7 unknown #
coedge $-1 $161 $160 $84 $154 reversed $145 $-1 #
edge $-1 $221 -4.8969293169591595 $155 4.8969293169591595 $153 $222 forward 7 unknown #
vertex $-1 $86 $223 #
vertex $-1 $167 $224 #
straight-curve $-1 4.8969293169591595 0 -17.332722973675484 0 -1 0 I I #
coedge $-1 $147 $149 $87 $159 reversed $80 $-1 #
edge $-1 $162 -8.5035025510445603 $165 8.5035025510445603 $158 $225 forward 7 unknown #
coedge $-1 $153 $88 $93 $168 forward $145 $-1 #
coedge $-1 $88 $153 $147 $216 reversed $145 $-1 #
vertex $-1 $89 $226 #
straight-curve $-1 0 8.5035025510445603 17.332722973675484 -1 0 0 I I #
coedge $-1 $90 $148 $92 $167 reversed $45 $-1 #
vertex $-1 $159 $227 #
straight-curve $-1 0 -8.5035025510445603 17.332722973675484 1 0 0 I I #
edge $-1 $95 -17.332722973675484 $156 17.332722973675484 $92 $228 forward 7 unknown #
edge $-1 $96 -17.332722973675484 $155 17.332722973675484 $93 $229 forward 7 unknown #
point $-1 4.8969293169591595 -8.5035025510445603 17.332722973675484 #
point $-1 4.8969293169591595 8.5035025510445603 17.332722973675484 #
face $-1 $-1 $113 $11 $-1 $230 reversed single #
loop $-1 $-1 $187 $98 #
plane-surface $-1 0 7.5128760991584898 0 0 -1 0 0 0 -1 forward_v I I I I #
coedge $-1 $231 $185 $188 $232 forward $99 $-1 #
coedge $-1 $191 $101 $102 $179 reversed $53 $-1 #
coedge $-1 $185 $231 $101 $177 reversed $99 $-1 #
edge $-1 $192 -3.303675079564508 $233 3.303675079564508 $176 $234 forward 7 unknown #
coedge $-1 $103 $102 $231 $235 forward $33 $-1 #
edge $-1 $183 -58.964201788384656 $233 58.964201788384656 $175 $236 forward 7 unknown #
coedge $-1 $188 $187 $103 $181 reversed $172 $-1 #
edge $-1 $237 -58.964201788384656 $182 58.964201788384656 $180 $238 forward 7 unknown #
vertex $-1 $105 $239 #
vertex $-1 $194 $240 #
straight-curve $-1 58.964201788384656 0 -3.303675079564508 0 -1 0 I I #
coedge $-1 $174 $176 $106 $186 reversed $99 $-1 #
edge $-1 $189 -7.5128760991584898 $192 7.5128760991584898 $185 $241 forward 7 unknown #
coedge $-1 $180 $107 $112 $195 forward $172 $-1 #
coedge $-1 $107 $180 $174 $232 reversed $172 $-1 #
vertex $-1 $108 $242 #
straight-curve $-1 0 7.5128760991584898 3.303675079564508 -1 0 0 I I #
coedge $-1 $109 $175 $111 $194 reversed $53 $-1 #
vertex $-1 $186 $243 #
straight-curve $-1 0 -7.5128760991584898 3.303675079564508 1 0 0 I I #
edge $-1 $114 -3.303675079564508 $183 3.303675079564508 $111 $244 forward 7 unknown #
edge $-1 $115 -3.303675079564508 $182 3.303675079564508 $112 $245 forward 7 unknown #
point $-1 58.964201788384656 -7.5128760991584898 3.303675079564508 #
point $-1 58.964201788384656 7.5128760991584898 3.303675079564508 #
plane-surface $-1 58.964201788384656 0 0 -1 0 0 0 0 1 forward_v I I I I #
coedge $-1 $122 $120 $124 $203 reversed $61 $-1 #
edge $-1 $135 -17.332722973675484 $205 17.332722973675484 $134 $246 forward 7 unknown #
vertex $-1 $203 $247 #
straight-curve $-1 -58.964201788384656 -35.576825923553578 0 0 0 -1 I I #
edge $-1 $201 -35.576825923553578 $205 35.576825923553578 $199 $248 forward 7 unknown #
straight-curve $-1 0 -35.576825923553578 -17.332722973675484 -1 0 0 I I #
vertex $-1 $127 $249 #
straight-curve $-1 0 35.576825923553578 -17.332722973675484 1 0 0 I I #
point $-1 58.964201788384656 35.576825923553578 -17.332722973675484 #
point $-1 58.964201788384656 -35.576825923553578 -17.332722973675484 #
straight-curve $-1 -58.964201788384656 0 17.332722973675484 0 -1 0 I I #
point $-1 -58.964201788384656 35.576825923553578 17.332722973675484 #
point $-1 -58.964201788384656 -35.576825923553578 17.332722973675484 #
straight-curve $-1 58.964201788384656 -35.576825923553578 0 0 0 -1 I I #
straight-curve $-1 58.964201788384656 35.576825923553578 0 0 0 -1 I I #
plane-surface $-1 4.8969293169591595 0 0 -1 0 0 0 0 1 forward_v I I I I #
coedge $-1 $149 $147 $151 $219 reversed $80 $-1 #
edge $-1 $162 -17.332722973675484 $221 17.332722973675484 $161 $250 forward 7 unknown #
vertex $-1 $219 $251 #
straight-curve $-1 -4.8969293169591595 -8.5035025510445603 0 0 0 -1 I I #
edge $-1 $217 -8.5035025510445603 $221 8.5035025510445603 $215 $252 forward 7 unknown #
straight-curve $-1 0 -8.5035025510445603 -17.332722973675484 -1 0 0 I I #
vertex $-1 $154 $253 #
straight-curve $-1 0 8.5035025510445603 -17.332722973675484 1 0 0 I I #
point $-1 4.8969293169591595 8.5035025510445603 -17.332722973675484 #
point $-1 4.8969293169591595 -8.5035025510445603 -17.332722973675484 #
straight-curve $-1 -4.8969293169591595 0 17.332722973675484 0 -1 0 I I #
point $-1 -4.8969293169591595 8.5035025510445603 17.332722973675484 #
point $-1 -4.8969293169591595 -8.5035025510445603 17.332722973675484 #
straight-curve $-1 4.8969293169591595 -8.5035025510445603 0 0 0 -1 I I #
straight-curve $-1 4.8969293169591595 8.5035025510445603 0 0 0 -1 I I #
plane-surface $-1 58.964201788384656 0 0 -1 0 0 0 0 1 forward_v I I I I #
coedge $-1 $176 $174 $178 $235 reversed $99 $-1 #
edge $-1 $189 -3.303675079564508 $237 3.303675079564508 $188 $254 forward 7 unknown #
vertex $-1 $235 $255 #
straight-curve $-1 -58.964201788384656 -7.5128760991584898 0 0 0 -1 I I #
edge $-1 $233 -7.5128760991584898 $237 7.5128760991584898 $231 $256 forward 7 unknown #
straight-curve $-1 0 -7.5128760991584898 -3.303675079564508 -1 0 0 I I #
vertex $-1 $181 $257 #
straight-curve $-1 0 7.5128760991584898 -3.303675079564508 1 0 0 I I #
point $-1 58.964201788384656 7.5128760991584898 -3.303675079564508 #
point $-1 58.964201788384656 -7.5128760991584898 -3.303675079564508 #
straight-curve $-1 -58.964201788384656 0 3.303675079564508 0 -1 0 I I #
point $-1 -58.964201788384656 7.5128760991584898 3.303675079564508 #
point $-1 -58.964201788384656 -7.5128760991584898 3.303675079564508 #
straight-curve $-1 58.964201788384656 -7.5128760991584898 0 0 0 -1 I I #
straight-curve $-1 58.964201788384656 7.5128760991584898 0 0 0 -1 I I #
straight-curve $-1 -58.964201788384656 35.576825923553578 0 0 0 -1 I I #
point $-1 -58.964201788384656 -35.576825923553578 -17.332722973675484 #
straight-curve $-1 -58.964201788384656 0 -17.332722973675484 0 1 0 I I #
point $-1 -58.964201788384656 35.576825923553578 -17.332722973675484 #
straight-curve $-1 -4.8969293169591595 8.5035025510445603 0 0 0 -1 I I #
point $-1 -4.8969293169591595 -8.5035025510445603 -17.332722973675484 #
straight-curve $-1 -4.8969293169591595 0 -17.332722973675484 0 1 0 I I #
point $-1 -4.8969293169591595 8.5035025510445603 -17.332722973675484 #
straight-curve $-1 -58.964201788384656 7.5128760991584898 0 0 0 -1 I I #
point $-1 -58.964201788384656 -7.5128760991584898 -3.303675079564508 #
straight-curve $-1 -58.964201788384656 0 -3.303675079564508 0 1 0 I I #
point $-1 -58.964201788384656 7.5128760991584898 -3.303675079564508 #
End-of-ACIS-data 