500 0 9 0           
7 Unknown 11 ACIS 5.0 NT 24 Thu Mar 25 23:23:00 1999 
-1 9.9999999999999995e-007 1e-010 
body $-1 $9 $-1 $10 #
body $-1 $11 $-1 $12 #
body $-1 $13 $-1 $14 #
body $-1 $15 $-1 $16 #
body $-1 $17 $-1 $18 #
body $-1 $19 $-1 $20 #
body $-1 $21 $-1 $22 #
body $-1 $23 $-1 $24 #
body $-1 $25 $-1 $26 #
lump $-1 $-1 $27 $0 #
transform $-1 1 0 0 0 1 0 0 0 1 49.308145390179142 32.810148869740011 8.3238467525028756 1 rotate no_reflect no_shear #
lump $-1 $-1 $28 $1 #
transform $-1 1 0 0 0 1 0 0 0 1 49.308145390179142 32.810148869740011 8.3238467525028756 1 rotate no_reflect no_shear #
lump $-1 $-1 $29 $2 #
transform $-1 1 0 0 0 1 0 0 0 1 49.308145390179142 32.810148869740011 8.3238467525028756 1 rotate no_reflect no_shear #
lump $-1 $-1 $30 $3 #
transform $-1 1 0 0 0 1 0 0 0 1 49.308145390179142 32.810148869740011 8.3238467525028756 1 rotate no_reflect no_shear #
lump $-1 $-1 $31 $4 #
transform $-1 1 0 0 0 1 0 0 0 1 49.308145390179142 32.810148869740011 8.3238467525028756 1 rotate no_reflect no_shear #
lump $-1 $-1 $32 $5 #
transform $-1 1 0 0 0 1 0 0 0 1 49.308145390179142 32.810148869740011 8.3238467525028756 1 rotate no_reflect no_shear #
lump $-1 $-1 $33 $6 #
transform $-1 1 0 0 0 1 0 0 0 1 49.308145390179142 32.810148869740011 8.3238467525028756 1 rotate no_reflect no_shear #
lump $-1 $-1 $34 $7 #
transform $-1 1 0 0 0 1 0 0 0 1 49.308145390179142 32.810148869740011 8.3238467525028756 1 rotate no_reflect no_shear #
lump $-1 $-1 $35 $8 #
transform $-1 1 0 0 0 1 0 0 0 1 49.308145390179142 32.810148869740011 8.3238467525028756 1 rotate no_reflect no_shear #
shell $-1 $-1 $-1 $36 $-1 $9 #
shell $-1 $-1 $-1 $37 $-1 $11 #
shell $-1 $-1 $-1 $38 $-1 $13 #
shell $-1 $-1 $-1 $39 $-1 $15 #
shell $-1 $-1 $-1 $40 $-1 $17 #
shell $-1 $-1 $-1 $41 $-1 $19 #
shell $-1 $-1 $-1 $42 $-1 $21 #
shell $-1 $-1 $-1 $43 $-1 $23 #
shell $-1 $-1 $-1 $44 $-1 $25 #
face $-1 $45 $46 $27 $-1 $47 forward single #
face $-1 $48 $49 $28 $-1 $50 forward single #
face $-1 $51 $52 $29 $-1 $53 reversed single #
face $-1 $54 $55 $30 $-1 $56 forward single #
face $-1 $57 $58 $31 $-1 $59 forward single #
face $-1 $60 $61 $32 $-1 $62 forward single #
face $-1 $63 $64 $33 $-1 $65 reversed single #
face $-1 $66 $67 $34 $-1 $68 forward single #
face $-1 $69 $70 $35 $-1 $71 forward single #
face $-1 $72 $73 $27 $-1 $74 reversed single #
loop $-1 $-1 $75 $36 #
plane-surface $-1 0 0 8.3238467525028756 0 0 1 1 0 0 forward_v I I I I #
face $-1 $76 $77 $28 $-1 $78 reversed single #
loop $-1 $-1 $79 $37 #
plane-surface $-1 0 -29.501867515955556 -3.4753875168323676 0 0 1 1 0 0 forward_v I I I I #
face $-1 $80 $81 $29 $-1 $82 reversed single #
loop $-1 $-1 $83 $38 #
plane-surface $-1 -116.56429477745354 15.544691283891137 72.267504651036646 0 1 0 -0.68199836817093118 0 0.7313536940579346 forward_v I I I I #
face $-1 $84 $85 $30 $-1 $86 forward single #
loop $-1 $87 $88 $39 #
cone-surface $-1 -43.845095375789377 18.997782801060914 3.0788188991484575 0.68199836817093118 0 -0.7313536940579346 0.7313536940579346 0 0.68199836817093118 1 I I 0 1 1 forward I I I I #
face $-1 $89 $90 $31 $-1 $91 forward single #
loop $-1 $92 $93 $40 #
cone-surface $-1 -43.845095375789377 24.177420076815572 3.0788188991484575 0.68199836817093118 0 -0.7313536940579346 0.7313536940579346 0 0.68199836817093118 1 I I 0 1 1 forward I I I I #
face $-1 $94 $95 $32 $-1 $96 forward single #
loop $-1 $97 $98 $41 #
cone-surface $-1 -43.845095375789377 29.35705735257023 3.0788188991484575 0.68199836817093118 0 -0.7313536940579346 0.7313536940579346 0 0.68199836817093118 1 I I 0 1 1 forward I I I I #
face $-1 $99 $100 $33 $-1 $101 reversed single #
loop $-1 $-1 $102 $42 #
plane-surface $-1 51.742138109916958 6.0242152952392534 142.16829999620799 0 -1 0 -0.71933980857756763 0 -0.69465836192734942 forward_v I I I I #
face $-1 $103 $104 $34 $-1 $105 forward single #
loop $-1 $106 $107 $43 #
cone-surface $-1 45.774625141489942 -6.3982948141344913 4.7227597537356569 -0.71933980857756763 0 -0.69465836192734942 0.69465836192734942 0 -0.71933980857756763 1 I I 0 1 1 forward I I I I #
face $-1 $108 $109 $35 $-1 $110 forward single #
loop $-1 $111 $112 $44 #
cone-surface $-1 45.774625141489942 1.0552112514897587 4.7227597537356569 -0.71933980857756763 0 -0.69465836192734942 0.69465836192734942 0 -0.71933980857756763 1 I I 0 1 1 forward I I I I #
face $-1 $113 $114 $27 $-1 $115 reversed single #
loop $-1 $-1 $116 $45 #
plane-surface $-1 0 0 -8.3238467525028756 0 0 1 1 0 0 forward_v I I I I #
coedge $-1 $117 $118 $119 $120 forward $46 $-1 #
face $-1 $121 $122 $28 $-1 $123 reversed single #
loop $-1 $-1 $124 $48 #
plane-surface $-1 0 -29.501867515955556 -6.4753875168323676 0 0 1 1 0 0 forward_v I I I I #
coedge $-1 $125 $126 $127 $128 reversed $49 $-1 #
face $-1 $129 $130 $29 $-1 $131 forward single #
loop $-1 $-1 $132 $51 #
plane-surface $-1 -49.308145390179149 24.177420076815572 0.14411609453017604 -0.68199836817093118 0 0.7313536940579346 0.7313536940579346 0 0.68199836817093118 forward_v I I I I #
coedge $-1 $133 $134 $135 $136 reversed $52 $-1 #
face $-1 $-1 $137 $30 $-1 $138 forward single #
loop $-1 $139 $140 $54 #
cone-surface $-1 -42.426889686845776 18.997782801060914 1.5579795277514243 0.68199836817093118 0 -0.7313536940579346 0.3656768470289673 0 0.34099918408546559 1 I I -0.70710678118654746 0.70710678118654746 0.5 forward I I I I #
loop $-1 $-1 $141 $39 #
coedge $-1 $88 $88 $142 $143 reversed $55 $-1 #
face $-1 $-1 $144 $31 $-1 $145 forward single #
loop $-1 $146 $147 $57 #
cone-surface $-1 -42.426889686845776 24.177420076815572 1.5579795277514243 0.68199836817093118 0 -0.7313536940579346 0.3656768470289673 0 0.34099918408546559 1 I I -0.70710678118654746 0.70710678118654746 0.5 forward I I I I #
loop $-1 $-1 $148 $40 #
coedge $-1 $93 $93 $149 $150 reversed $58 $-1 #
face $-1 $-1 $151 $32 $-1 $152 forward single #
loop $-1 $153 $154 $60 #
cone-surface $-1 -42.426889686845776 29.35705735257023 1.5579795277514243 0.68199836817093118 0 -0.7313536940579346 0.3656768470289673 0 0.34099918408546559 1 I I -0.70710678118654746 0.70710678118654746 0.5 forward I I I I #
loop $-1 $-1 $155 $41 #
coedge $-1 $98 $98 $156 $157 reversed $61 $-1 #
face $-1 $158 $159 $33 $-1 $160 reversed single #
loop $-1 $-1 $161 $63 #
plane-surface $-1 -19.196485622655722 -2.6715417813223681 73.663668983373128 0.71933980857756763 0 0.69465836192734942 0.69465836192734942 0 -0.71933980857756763 forward_v I I I I #
coedge $-1 $162 $163 $164 $165 reversed $64 $-1 #
face $-1 $-1 $166 $34 $-1 $167 forward single #
loop $-1 $168 $169 $66 #
cone-surface $-1 44.584784805630825 -6.3982948141344913 3.5737443248559781 -0.71933980857756763 0 -0.69465836192734942 0.34732918096367471 0 -0.35966990428878381 1 I I -0.70710678118654746 0.70710678118654746 0.5 forward I I I I #
loop $-1 $-1 $170 $43 #
coedge $-1 $107 $107 $171 $172 reversed $67 $-1 #
face $-1 $-1 $173 $35 $-1 $174 forward single #
loop $-1 $175 $176 $69 #
cone-surface $-1 44.584784805630825 1.0552112514897587 3.5737443248559781 -0.71933980857756763 0 -0.69465836192734942 0.34732918096367471 0 -0.35966990428878381 1 I I -0.70710678118654746 0.70710678118654746 0.5 forward I I I I #
loop $-1 $-1 $177 $44 #
coedge $-1 $112 $112 $178 $179 reversed $70 $-1 #
face $-1 $180 $181 $27 $-1 $182 reversed single #
loop $-1 $-1 $183 $72 #
plane-surface $-1 0 -32.810148869740011 0 0 1 0 0 0 1 forward_v I I I I #
coedge $-1 $184 $185 $186 $187 forward $73 $-1 #
coedge $-1 $188 $75 $189 $190 forward $46 $-1 #
coedge $-1 $75 $188 $191 $192 forward $46 $-1 #
coedge $-1 $193 $194 $75 $120 reversed $195 $-1 #
edge $-1 $196 -32.810148869740011 $197 32.810148869740011 $119 $198 forward 7 unknown #
face $-1 $199 $200 $28 $-1 $201 reversed single #
loop $-1 $-1 $202 $76 #
plane-surface $-1 0 -26.193586162171101 -4.9753875168323676 0 -1 0 0 0 -1 forward_v I I I I #
coedge $-1 $203 $204 $205 $206 reversed $77 $-1 #
coedge $-1 $207 $79 $208 $209 forward $49 $-1 #
coedge $-1 $79 $207 $210 $211 reversed $49 $-1 #
coedge $-1 $212 $213 $79 $128 forward $214 $-1 #
edge $-1 $215 11.442652404193323 $216 18.059215111762235 $127 $217 forward 7 unknown #
face $-1 $218 $219 $29 $-1 $220 reversed single #
loop $-1 $-1 $135 $80 #
plane-surface $-1 0 0 8.3238467525028756 0 0 1 1 0 0 forward_v I I I I #
coedge $-1 $221 $222 $223 $224 reversed $81 $-1 #
coedge $-1 $134 $83 $225 $226 reversed $52 $-1 #
coedge $-1 $83 $133 $221 $227 reversed $52 $-1 #
coedge $-1 $223 $228 $83 $136 forward $130 $-1 #
edge $-1 $229 8.974001998547628 $230 17.745689017610871 $135 $231 forward 7 unknown #
loop $-1 $-1 $142 $84 #
plane-surface $-1 -49.308145390179149 24.177420076815572 0.14411609453017604 -0.68199836817093118 0 0.7313536940579346 0.7313536940579346 0 0.68199836817093118 forward_v I I I I #
loop $-1 $-1 $232 $54 #
coedge $-1 $140 $140 $141 $233 reversed $85 $-1 #
coedge $-1 $141 $141 $140 $233 forward $87 $-1 #
coedge $-1 $142 $142 $88 $143 forward $137 $-1 #
edge $-1 $234 0 $234 6.2831853071796004 $142 $235 forward 7 unknown #
loop $-1 $-1 $149 $89 #
plane-surface $-1 -49.308145390179149 24.177420076815572 0.14411609453017604 -0.68199836817093118 0 0.7313536940579346 0.7313536940579346 0 0.68199836817093118 forward_v I I I I #
loop $-1 $-1 $236 $57 #
coedge $-1 $147 $147 $148 $237 reversed $90 $-1 #
coedge $-1 $148 $148 $147 $237 forward $92 $-1 #
coedge $-1 $149 $149 $93 $150 forward $144 $-1 #
edge $-1 $238 0 $238 6.2831853071796004 $149 $239 forward 7 unknown #
loop $-1 $-1 $156 $94 #
plane-surface $-1 -49.308145390179149 24.177420076815572 0.14411609453017604 -0.68199836817093118 0 0.7313536940579346 0.7313536940579346 0 0.68199836817093118 forward_v I I I I #
loop $-1 $-1 $240 $60 #
coedge $-1 $154 $154 $155 $241 reversed $95 $-1 #
coedge $-1 $155 $155 $154 $241 forward $97 $-1 #
coedge $-1 $156 $156 $98 $157 forward $151 $-1 #
edge $-1 $242 0 $242 6.2831853071796004 $156 $243 forward 7 unknown #
face $-1 $244 $245 $33 $-1 $246 reversed single #
loop $-1 $-1 $247 $99 #
plane-surface $-1 51.742138109916958 -11.36729885788399 142.16829999620799 0 1 0 0.71933980857756763 0 0.69465836192734942 forward_v I I I I #
coedge $-1 $248 $249 $250 $251 reversed $100 $-1 #
coedge $-1 $163 $102 $252 $253 reversed $64 $-1 #
coedge $-1 $102 $162 $248 $254 reversed $64 $-1 #
coedge $-1 $250 $255 $102 $165 forward $256 $-1 #
edge $-1 $257 -23.437076335220663 $258 -18.030376700982902 $164 $259 forward 7 unknown #
loop $-1 $-1 $171 $103 #
plane-surface $-1 -19.196485622655722 -2.6715417813223681 73.663668983373128 0.71933980857756763 0 0.69465836192734942 0.69465836192734942 0 -0.71933980857756763 forward_v I I I I #
loop $-1 $-1 $260 $66 #
coedge $-1 $169 $169 $170 $261 reversed $104 $-1 #
coedge $-1 $170 $170 $169 $261 forward $106 $-1 #
coedge $-1 $171 $171 $107 $172 forward $166 $-1 #
edge $-1 $262 0 $262 6.2831853071796004 $171 $263 forward 7 unknown #
loop $-1 $-1 $178 $108 #
plane-surface $-1 -19.196485622655722 -2.6715417813223681 73.663668983373128 0.71933980857756763 0 0.69465836192734942 0.69465836192734942 0 -0.71933980857756763 forward_v I I I I #
loop $-1 $-1 $264 $69 #
coedge $-1 $176 $176 $177 $265 reversed $109 $-1 #
coedge $-1 $177 $177 $176 $265 forward $111 $-1 #
coedge $-1 $178 $178 $112 $179 forward $173 $-1 #
edge $-1 $266 0 $266 6.2831853071796004 $178 $267 forward 7 unknown #
face $-1 $268 $269 $27 $-1 $270 reversed single #
loop $-1 $-1 $271 $113 #
plane-surface $-1 -49.308145390179142 0 0 1 0 0 0 0 -1 forward_v I I I I #
coedge $-1 $272 $191 $273 $274 forward $114 $-1 #
coedge $-1 $275 $116 $272 $276 forward $73 $-1 #
coedge $-1 $116 $275 $277 $278 forward $73 $-1 #
coedge $-1 $194 $193 $116 $187 reversed $195 $-1 #
edge $-1 $279 -32.810148869740011 $280 32.810148869740011 $186 $281 forward 7 unknown #
coedge $-1 $118 $117 $282 $283 forward $46 $-1 #
coedge $-1 $284 $285 $117 $190 reversed $269 $-1 #
edge $-1 $197 -49.308145390179142 $286 49.308145390179142 $189 $287 forward 7 unknown #
coedge $-1 $183 $288 $118 $192 reversed $114 $-1 #
edge $-1 $289 -49.308145390179142 $196 49.308145390179142 $191 $290 forward 7 unknown #
coedge $-1 $186 $119 $288 $291 forward $195 $-1 #
coedge $-1 $119 $186 $284 $292 reversed $195 $-1 #
loop $-1 $-1 $193 $268 #
vertex $-1 $120 $293 #
vertex $-1 $120 $294 #
straight-curve $-1 49.308145390179142 0 8.3238467525028756 0 1 0 I I #
face $-1 $295 $296 $28 $-1 $297 reversed single #
loop $-1 $-1 $298 $121 #
plane-surface $-1 -49.308145390179142 0 0 1 0 0 0 0 -1 forward_v I I I I #
coedge $-1 $299 $208 $213 $300 reversed $122 $-1 #
coedge $-1 $301 $124 $302 $303 reversed $77 $-1 #
coedge $-1 $124 $301 $299 $304 forward $77 $-1 #
coedge $-1 $213 $212 $124 $206 forward $214 $-1 #
edge $-1 $305 -18.059215111762235 $306 -11.442652404193323 $205 $307 forward 7 unknown #
coedge $-1 $126 $125 $298 $308 reversed $49 $-1 #
coedge $-1 $202 $309 $125 $209 reversed $122 $-1 #
edge $-1 $215 -49.308145390179142 $310 49.308145390179142 $208 $311 forward 7 unknown #
coedge $-1 $312 $313 $126 $211 forward $296 $-1 #
edge $-1 $216 -49.308145390179142 $314 49.308145390179142 $210 $315 forward 7 unknown #
coedge $-1 $205 $127 $313 $316 forward $214 $-1 #
coedge $-1 $127 $205 $202 $300 forward $214 $-1 #
loop $-1 $-1 $127 $295 #
vertex $-1 $128 $317 #
vertex $-1 $316 $318 #
straight-curve $-1 49.308145390179142 -14.750933757977778 -3.4753875168323676 0 -1 0 I I #
face $-1 $-1 $319 $29 $-1 $320 reversed single #
loop $-1 $-1 $321 $129 #
plane-surface $-1 0 32.810148869740011 0 0 -1 0 0 0 -1 forward_v I I I I #
coedge $-1 $322 $132 $134 $227 forward $81 $-1 #
coedge $-1 $132 $322 $321 $323 reversed $81 $-1 #
coedge $-1 $324 $135 $132 $224 forward $130 $-1 #
edge $-1 $230 3.4559812454833505 $325 20.721438831332218 $223 $326 forward 7 unknown #
coedge $-1 $327 $328 $133 $226 forward $319 $-1 #
edge $-1 $329 -35.98963623098814 $229 -27.809905573015449 $225 $330 forward 7 unknown #
edge $-1 $230 -11.993768665327059 $329 -9.7206730351652108e-015 $134 $331 forward 7 unknown #
coedge $-1 $135 $324 $327 $332 forward $130 $-1 #
vertex $-1 $226 $333 #
vertex $-1 $136 $334 #
straight-curve $-1 -58.28214738872677 15.544691283891137 8.3238467525028739 1 0 0 I I #
coedge $-1 $232 $232 $-1 $335 reversed $139 $-1 #
edge $-1 $336 0 $336 6.2831853071796004 $140 $337 forward 7 unknown #
vertex $-1 $143 $338 #
ellipse-curve $-1 -44.922301880647524 18.997782801060914 4.2339814235165312 -0.68199836817093118 0 0.7313536940579346 0.7313536940579346 0 0.68199836817093118 1 I I #
coedge $-1 $236 $236 $-1 $339 reversed $146 $-1 #
edge $-1 $340 0 $340 6.2831853071796004 $147 $341 forward 7 unknown #
vertex $-1 $150 $342 #
ellipse-curve $-1 -44.922301880647524 24.177420076815572 4.2339814235165312 -0.68199836817093118 0 0.7313536940579346 0.7313536940579346 0 0.68199836817093118 1 I I #
coedge $-1 $240 $240 $-1 $343 reversed $153 $-1 #
edge $-1 $344 0 $344 6.2831853071796004 $154 $345 forward 7 unknown #
vertex $-1 $157 $346 #
ellipse-curve $-1 -44.922301880647524 29.35705735257023 4.2339814235165312 -0.68199836817093118 0 0.7313536940579346 0.7313536940579346 0 0.68199836817093118 1 I I #
face $-1 $-1 $256 $33 $-1 $347 forward single #
loop $-1 $-1 $348 $158 #
plane-surface $-1 49.308145390179142 0 0 -1 0 0 0 0 1 forward_v I I I I #
coedge $-1 $349 $350 $351 $352 reversed $159 $-1 #
coedge $-1 $353 $161 $163 $254 forward $100 $-1 #
coedge $-1 $161 $353 $349 $354 forward $100 $-1 #
coedge $-1 $351 $164 $161 $251 forward $256 $-1 #
edge $-1 $258 -7.3599861859004374 $355 10.031527967222805 $250 $356 forward 7 unknown #
coedge $-1 $357 $358 $162 $253 forward $245 $-1 #
edge $-1 $359 -68.359104747303547 $257 -62.760303245601122 $252 $360 forward 7 unknown #
edge $-1 $258 90.833040868507069 $359 98.616290780358298 $163 $361 forward 7 unknown #
coedge $-1 $164 $351 $357 $362 forward $256 $-1 #
loop $-1 $-1 $351 $244 #
vertex $-1 $253 $363 #
vertex $-1 $165 $364 #
straight-curve $-1 25.871069054958479 6.0242152952392534 8.3238467525028739 -1 0 0 I I #
coedge $-1 $260 $260 $-1 $365 reversed $168 $-1 #
edge $-1 $366 0 $366 6.2831853071796004 $169 $367 forward 7 unknown #
vertex $-1 $172 $368 #
ellipse-curve $-1 46.604795573060272 -6.3982948141344913 5.5244460016516577 0.71933980857756763 0 0.69465836192734942 0.69465836192734942 0 -0.71933980857756763 1 I I #
coedge $-1 $264 $264 $-1 $369 reversed $175 $-1 #
edge $-1 $370 0 $370 6.2831853071796004 $176 $371 forward 7 unknown #
vertex $-1 $179 $372 #
ellipse-curve $-1 46.604795573060272 1.0552112514897587 5.5244460016516577 0.71933980857756763 0 0.69465836192734942 0.69465836192734942 0 -0.71933980857756763 1 I I #
face $-1 $-1 $195 $27 $-1 $373 reversed single #
loop $-1 $-1 $284 $180 #
plane-surface $-1 0 32.810148869740011 0 0 -1 0 0 0 -1 forward_v I I I I #
coedge $-1 $374 $282 $285 $375 forward $181 $-1 #
coedge $-1 $288 $183 $184 $276 reversed $114 $-1 #
coedge $-1 $282 $374 $183 $274 reversed $181 $-1 #
edge $-1 $289 -8.3238467525028756 $376 8.3238467525028756 $273 $377 forward 7 unknown #
coedge $-1 $185 $184 $374 $378 forward $73 $-1 #
edge $-1 $280 -49.308145390179142 $376 49.308145390179142 $272 $379 forward 7 unknown #
coedge $-1 $285 $284 $185 $278 reversed $269 $-1 #
edge $-1 $380 -49.308145390179142 $279 49.308145390179142 $277 $381 forward 7 unknown #
vertex $-1 $187 $382 #
vertex $-1 $291 $383 #
straight-curve $-1 49.308145390179142 0 -8.3238467525028756 0 -1 0 I I #
coedge $-1 $271 $273 $188 $283 reversed $181 $-1 #
edge $-1 $286 -32.810148869740011 $289 32.810148869740011 $282 $384 forward 7 unknown #
coedge $-1 $277 $189 $194 $292 forward $269 $-1 #
coedge $-1 $189 $277 $271 $375 reversed $269 $-1 #
vertex $-1 $190 $385 #
straight-curve $-1 0 32.810148869740011 8.3238467525028756 -1 0 0 I I #
coedge $-1 $191 $272 $193 $291 reversed $114 $-1 #
vertex $-1 $283 $386 #
straight-curve $-1 0 -32.810148869740011 8.3238467525028756 1 0 0 I I #
edge $-1 $196 -8.3238467525028756 $280 8.3238467525028756 $193 $387 forward 7 unknown #
edge $-1 $197 -8.3238467525028756 $279 8.3238467525028756 $194 $388 forward 7 unknown #
point $-1 49.308145390179142 -32.810148869740011 8.3238467525028756 #
point $-1 49.308145390179142 32.810148869740011 8.3238467525028756 #
face $-1 $-1 $214 $28 $-1 $389 reversed single #
loop $-1 $-1 $210 $199 #
plane-surface $-1 0 -32.810148869740011 0 0 1 0 0 0 1 forward_v I I I I #
coedge $-1 $390 $391 $207 $308 forward $200 $-1 #
coedge $-1 $309 $202 $204 $304 reversed $122 $-1 #
edge $-1 $306 -3.9876937584161838 $215 -0.98769375841618379 $213 $392 forward 7 unknown #
coedge $-1 $204 $203 $393 $394 reversed $77 $-1 #
coedge $-1 $313 $312 $203 $303 forward $296 $-1 #
edge $-1 $395 -49.308145390179142 $305 49.308145390179142 $302 $396 forward 7 unknown #
edge $-1 $397 -49.308145390179142 $306 49.308145390179142 $299 $398 forward 7 unknown #
vertex $-1 $303 $399 #
vertex $-1 $206 $400 #
straight-curve $-1 49.308145390179142 -14.750933757977778 -6.4753875168323676 0 1 0 I I #
edge $-1 $314 -18.059215111762235 $310 -11.442652404193323 $298 $401 forward 7 unknown #
coedge $-1 $208 $299 $390 $402 reversed $122 $-1 #
vertex $-1 $308 $403 #
straight-curve $-1 0 -26.193586162171101 -3.4753875168323676 -1 0 0 I I #
coedge $-1 $302 $210 $391 $404 forward $296 $-1 #
coedge $-1 $210 $302 $212 $316 reversed $296 $-1 #
vertex $-1 $404 $405 #
straight-curve $-1 0 -32.810148869740011 -3.4753875168323676 -1 0 0 I I #
edge $-1 $216 3.4753875168323676 $305 6.4753875168323676 $212 $406 forward 7 unknown #
point $-1 49.308145390179142 -26.193586162171101 -3.4753875168323676 #
point $-1 49.308145390179142 -32.810148869740011 -3.4753875168323676 #
loop $-1 $-1 $225 $218 #
plane-surface $-1 -49.308145390179142 0 0 1 0 0 0 0 -1 forward_v I I I I #
coedge $-1 $407 $408 $222 $323 forward $219 $-1 #
coedge $-1 $222 $221 $328 $409 reversed $81 $-1 #
edge $-1 $325 5.9879350031511844 $410 17.981703668478232 $321 $411 forward 7 unknown #
coedge $-1 $228 $223 $408 $412 forward $130 $-1 #
vertex $-1 $412 $413 #
straight-curve $-1 -40.536458371115906 12.088710038407786 8.3238467525028756 0 1 0 I I #
coedge $-1 $414 $225 $228 $332 reversed $319 $-1 #
coedge $-1 $225 $414 $322 $409 forward $319 $-1 #
vertex $-1 $226 $415 #
straight-curve $-1 -49.308145390179142 15.544691283891137 36.133752325518323 0 0 1 I I #
straight-curve $-1 -49.308145390179149 15.544691283891137 0.14411609453017604 -0.7313536940579346 0 -0.68199836817093118 I I #
edge $-1 $416 -32.810148869740011 $229 -15.544691283891137 $327 $417 forward 7 unknown #
point $-1 -49.308145390179142 15.544691283891137 8.3238467525028756 #
point $-1 -40.536458371115899 15.544691283891137 8.3238467525028756 #
edge $-1 $418 1 $418 0 $232 $-1 forward 7 unknown #
vertex $-1 $233 $419 #
ellipse-curve $-1 -42.767888870931245 18.997782801060914 1.9236563747803916 -0.68199836817093118 0 0.7313536940579346 0.7313536940579346 0 0.68199836817093118 1 I I #
point $-1 -44.19094818658958 18.997782801060914 4.9159797916874544 #
edge $-1 $420 1 $420 0 $236 $-1 forward 7 unknown #
vertex $-1 $237 $421 #
ellipse-curve $-1 -42.767888870931245 24.177420076815572 1.9236563747803916 -0.68199836817093118 0 0.7313536940579346 0.7313536940579346 0 0.68199836817093118 1 I I #
point $-1 -44.19094818658958 24.177420076815572 4.9159797916874544 #
edge $-1 $422 1 $422 0 $240 $-1 forward 7 unknown #
vertex $-1 $241 $423 #
ellipse-curve $-1 -42.767888870931245 29.35705735257023 1.9236563747803916 -0.68199836817093118 0 0.7313536940579346 0.7313536940579346 0 0.68199836817093118 1 I I #
point $-1 -44.19094818658958 29.35705735257023 4.9159797916874544 #
plane-surface $-1 0 0 8.3238467525028756 0 0 1 1 0 0 forward_v I I I I #
coedge $-1 $358 $357 $350 $424 forward $245 $-1 #
coedge $-1 $350 $247 $249 $354 reversed $159 $-1 #
coedge $-1 $247 $349 $348 $424 reversed $159 $-1 #
coedge $-1 $255 $250 $247 $352 forward $256 $-1 #
edge $-1 $355 18.030376700982902 $425 23.437076335220663 $351 $426 forward 7 unknown #
coedge $-1 $249 $248 $358 $427 reversed $100 $-1 #
edge $-1 $428 -98.616290780358298 $355 -90.833040868507069 $349 $429 forward 7 unknown #
vertex $-1 $251 $430 #
straight-curve $-1 43.901445755941381 -1.335770890661184 8.323846752502881 0 -1 0 I I #
coedge $-1 $348 $252 $255 $362 reversed $245 $-1 #
coedge $-1 $252 $348 $353 $427 forward $245 $-1 #
vertex $-1 $253 $431 #
straight-curve $-1 49.308145390179142 6.0242152952392534 71.084149998103996 0 0 1 I I #
straight-curve $-1 -19.196485622655722 6.0242152952392534 73.663668983373128 0.69465836192734942 0 -0.71933980857756763 I I #
edge $-1 $425 -11.36729885788399 $257 6.0242152952392534 $357 $432 forward 7 unknown #
point $-1 49.308145390179142 6.0242152952392534 8.3238467525028756 #
point $-1 43.901445755941381 6.0242152952392534 8.3238467525028739 #
edge $-1 $433 1 $433 0 $260 $-1 forward 7 unknown #
vertex $-1 $261 $434 #
ellipse-curve $-1 44.944454709919611 -6.3982948141344913 3.9210735058196526 0.71933980857756763 0 0.69465836192734942 0.69465836192734942 0 -0.71933980857756763 1 I I #
point $-1 47.299453934987618 -6.3982948141344913 4.8051061930740921 #
edge $-1 $435 1 $435 0 $264 $-1 forward 7 unknown #
vertex $-1 $265 $436 #
ellipse-curve $-1 44.944454709919611 1.0552112514897587 3.9210735058196526 0.71933980857756763 0 0.69465836192734942 0.69465836192734942 0 -0.71933980857756763 1 I I #
point $-1 47.299453934987618 1.0552112514897587 4.8051061930740921 #
plane-surface $-1 49.308145390179142 0 0 -1 0 0 0 0 1 forward_v I I I I #
coedge $-1 $273 $271 $275 $378 reversed $181 $-1 #
edge $-1 $286 -8.3238467525028756 $380 8.3238467525028756 $285 $437 forward 7 unknown #
vertex $-1 $378 $438 #
straight-curve $-1 -49.308145390179142 -32.810148869740011 0 0 0 -1 I I #
edge $-1 $376 -32.810148869740011 $380 32.810148869740011 $374 $439 forward 7 unknown #
straight-curve $-1 0 -32.810148869740011 -8.3238467525028756 -1 0 0 I I #
vertex $-1 $278 $440 #
straight-curve $-1 0 32.810148869740011 -8.3238467525028756 1 0 0 I I #
point $-1 49.308145390179142 32.810148869740011 -8.3238467525028756 #
point $-1 49.308145390179142 -32.810148869740011 -8.3238467525028756 #
straight-curve $-1 -49.308145390179142 0 8.3238467525028756 0 -1 0 I I #
point $-1 -49.308145390179142 32.810148869740011 8.3238467525028756 #
point $-1 -49.308145390179142 -32.810148869740011 8.3238467525028756 #
straight-curve $-1 49.308145390179142 -32.810148869740011 0 0 0 -1 I I #
straight-curve $-1 49.308145390179142 32.810148869740011 0 0 0 -1 I I #
plane-surface $-1 49.308145390179142 0 0 -1 0 0 0 0 1 forward_v I I I I #
coedge $-1 $393 $298 $309 $402 forward $200 $-1 #
coedge $-1 $298 $393 $312 $404 reversed $200 $-1 #
straight-curve $-1 49.308145390179142 -26.193586162171101 -2.4876937584161838 0 0 1 I I #
coedge $-1 $391 $390 $301 $394 forward $200 $-1 #
edge $-1 $397 11.442652404193323 $395 18.059215111762235 $393 $441 forward 7 unknown #
vertex $-1 $303 $442 #
straight-curve $-1 0 -32.810148869740011 -6.4753875168323676 1 0 0 I I #
vertex $-1 $394 $443 #
straight-curve $-1 0 -26.193586162171101 -6.4753875168323676 1 0 0 I I #
point $-1 49.308145390179142 -32.810148869740011 -6.4753875168323676 #
point $-1 49.308145390179142 -26.193586162171101 -6.4753875168323676 #
straight-curve $-1 -49.308145390179142 -14.750933757977778 -3.4753875168323676 0 1 0 I I #
edge $-1 $310 0.98769375841618379 $397 3.9876937584161838 $390 $444 forward 7 unknown #
point $-1 -49.308145390179142 -26.193586162171101 -3.4753875168323676 #
edge $-1 $314 3.4753875168323676 $395 6.4753875168323676 $391 $445 forward 7 unknown #
point $-1 -49.308145390179142 -32.810148869740011 -3.4753875168323676 #
straight-curve $-1 49.308145390179142 -32.810148869740011 0 0 0 -1 I I #
coedge $-1 $408 $321 $414 $446 reversed $219 $-1 #
coedge $-1 $321 $407 $324 $412 reversed $219 $-1 #
edge $-1 $410 -20.721438831332218 $329 -3.4559812454833505 $328 $447 forward 7 unknown #
vertex $-1 $323 $448 #
straight-curve $-1 -36.157159986782474 32.810148869740011 12.407608653365587 -0.7313536940579346 0 -0.68199836817093118 I I #
edge $-1 $325 40.536458371115899 $416 49.308145390179142 $408 $449 forward 7 unknown #
point $-1 -40.536458371115899 32.810148869740004 8.3238467525028756 #
coedge $-1 $328 $327 $407 $446 forward $319 $-1 #
point $-1 -49.308145390179142 15.544691283891137 0.14411609453018268 #
vertex $-1 $412 $450 #
straight-curve $-1 -49.308145390179142 0 8.3238467525028756 0 -1 0 I I #
vertex $-1 $335 $451 #
point $-1 -42.036535176873308 18.997782801060914 2.605654742951323 #
vertex $-1 $339 $452 #
point $-1 -42.036535176873308 24.177420076815572 2.605654742951323 #
vertex $-1 $343 $453 #
point $-1 -42.036535176873308 29.35705735257023 2.605654742951323 #
edge $-1 $425 62.760303245601122 $428 68.359104747303547 $348 $454 forward 7 unknown #
vertex $-1 $362 $455 #
straight-curve $-1 25.871069054958479 -11.36729885788399 8.3238467525028739 1 0 0 I I #
edge $-1 $428 -10.031527967222805 $359 7.3599861859004374 $358 $456 forward 7 unknown #
vertex $-1 $427 $457 #
straight-curve $-1 -19.196485622655722 -11.36729885788399 73.663668983373128 -0.69465836192734942 0 0.71933980857756763 I I #
point $-1 43.901445755941381 -11.36729885788399 8.3238467525028739 #
point $-1 49.308145390179142 6.0242152952392534 2.7250452508004486 #
straight-curve $-1 49.308145390179142 0 8.3238467525028756 0 1 0 I I #
vertex $-1 $365 $458 #
point $-1 45.639113071846957 -6.3982948141344913 3.2017336972420853 #
vertex $-1 $369 $459 #
point $-1 45.639113071846957 1.0552112514897587 3.2017336972420853 #
straight-curve $-1 -49.308145390179142 32.810148869740011 0 0 0 -1 I I #
point $-1 -49.308145390179142 -32.810148869740011 -8.3238467525028756 #
straight-curve $-1 -49.308145390179142 0 -8.3238467525028756 0 1 0 I I #
point $-1 -49.308145390179142 32.810148869740011 -8.3238467525028756 #
straight-curve $-1 -49.308145390179142 -14.750933757977778 -6.4753875168323676 0 -1 0 I I #
point $-1 -49.308145390179142 -32.810148869740011 -6.4753875168323676 #
point $-1 -49.308145390179142 -26.193586162171101 -6.4753875168323676 #
straight-curve $-1 -49.308145390179142 -26.193586162171101 -2.4876937584161838 0 0 -1 I I #
straight-curve $-1 -49.308145390179142 -32.810148869740011 0 0 0 -1 I I #
edge $-1 $416 -8.3238467525028756 $410 -0.14411609453018268 $407 $460 forward 7 unknown #
straight-curve $-1 -49.308145390179142 12.088710038407786 0.14411609453018295 0 -1 0 I I #
point $-1 -49.308145390179142 32.810148869740004 0.14411609453018268 #
straight-curve $-1 0 32.810148869740011 8.3238467525028756 -1 0 0 I I #
point $-1 -49.308145390179142 32.810148869740011 8.3238467525028756 #
point $-1 -42.085890502760307 18.997782801060914 1.192302680722457 #
point $-1 -42.085890502760307 24.177420076815572 1.192302680722457 #
point $-1 -42.085890502760307 29.35705735257023 1.192302680722457 #
straight-curve $-1 49.308145390179142 -11.36729885788399 71.084149998103996 0 0 -1 I I #
point $-1 49.308145390179142 -11.36729885788399 8.3238467525028756 #
straight-curve $-1 49.308145390179142 -1.335770890661184 2.7250452508004486 0 1 0 I I #
point $-1 49.308145390179142 -11.36729885788399 2.7250452508004486 #
point $-1 44.225114901342039 -6.3982948141344913 3.2264151438923037 #
point $-1 44.225114901342039 1.0552112514897587 3.2264151438923037 #
straight-curve $-1 -49.308145390179142 32.810148869740011 0 0 0 -1 I I #
End-of-ACIS-data 