500 0 4 0           
7 Unknown 11 ACIS 5.0 NT 24 Thu Mar 25 15:07:43 1999 
-1 9.9999999999999995e-007 1e-010 
body $-1 $4 $-1 $5 #
body $-1 $6 $-1 $7 #
body $-1 $8 $-1 $9 #
body $-1 $10 $-1 $11 #
lump $-1 $-1 $12 $0 #
transform $-1 1 0 0 0 1 0 0 0 1 51.760612811670278 30.587841494188012 11.335433798148291 1 rotate no_reflect no_shear #
lump $-1 $-1 $13 $1 #
transform $-1 1 0 0 0 1 0 0 0 1 51.760612811670278 30.587841494188012 11.335433798148291 1 rotate no_reflect no_shear #
lump $-1 $-1 $14 $2 #
transform $-1 1 0 0 0 1 0 0 0 1 51.760612811670278 30.587841494188012 11.335433798148291 1 rotate no_reflect no_shear #
lump $-1 $-1 $15 $3 #
transform $-1 1 0 0 0 1 0 0 0 1 51.760612811670278 30.587841494188012 11.335433798148291 1 rotate no_reflect no_shear #
shell $-1 $-1 $-1 $16 $-1 $4 #
shell $-1 $-1 $-1 $17 $-1 $6 #
shell $-1 $-1 $-1 $18 $-1 $8 #
shell $-1 $-1 $-1 $19 $-1 $10 #
face $-1 $20 $21 $12 $-1 $22 forward single #
face $-1 $23 $24 $13 $-1 $25 forward single #
face $-1 $26 $27 $14 $-1 $28 reversed single #
face $-1 $29 $30 $15 $-1 $31 forward single #
face $-1 $32 $33 $12 $-1 $34 reversed single #
loop $-1 $-1 $35 $16 #
plane-surface $-1 0 0 11.335433798148291 0 0 1 1 0 0 forward_v I I I I #
face $-1 $36 $37 $13 $-1 $38 reversed single #
loop $-1 $-1 $39 $17 #
plane-surface $-1 -45.363978430412033 0 3.2192967562265595 0 0 1 1 0 0 forward_v I I I I #
face $-1 $40 $41 $14 $-1 $42 reversed single #
loop $-1 $-1 $43 $18 #
plane-surface $-1 16.861130047684625 48.193425907747937 122.33810661670931 1 0 0 0 -0.62932039886446345 -0.77714595512881146 forward_v I I I I #
face $-1 $44 $45 $15 $-1 $46 forward single #
loop $-1 $47 $48 $19 #
cone-surface $-1 27.852345635223436 24.498369867408481 5.9016749347823243 0 -0.62932039886446345 -0.77714595512881146 2 0 0 1 I I 0 1 2 forward I I I I #
face $-1 $49 $50 $12 $-1 $51 reversed single #
loop $-1 $-1 $52 $20 #
plane-surface $-1 0 0 -11.335433798148291 0 0 1 1 0 0 forward_v I I I I #
coedge $-1 $53 $54 $55 $56 forward $21 $-1 #
face $-1 $57 $58 $13 $-1 $59 reversed single #
loop $-1 $-1 $60 $23 #
plane-surface $-1 -45.363978430412033 0 -2.4193265431154076 0 0 1 1 0 0 forward_v I I I I #
coedge $-1 $61 $62 $63 $64 forward $24 $-1 #
face $-1 $65 $66 $14 $-1 $67 reversed single #
loop $-1 $-1 $68 $26 #
plane-surface $-1 27.852345635223436 -16.954593092470859 41.887004853553123 0 0.62932039886446345 0.77714595512881146 1 0 0 forward_v I I I I #
coedge $-1 $69 $70 $71 $72 reversed $27 $-1 #
face $-1 $-1 $73 $15 $-1 $74 forward single #
loop $-1 $75 $76 $29 #
cone-surface $-1 27.852345635223436 22.686771410946477 3.6645371981105157 0 -0.62932039886446345 -0.77714595512881146 1 0 0 1 I I -0.70710678118654746 0.70710678118654746 1 forward I I I I #
loop $-1 $-1 $77 $19 #
coedge $-1 $48 $48 $78 $79 reversed $30 $-1 #
face $-1 $80 $81 $12 $-1 $82 reversed single #
loop $-1 $-1 $83 $32 #
plane-surface $-1 0 -30.587841494188012 0 0 1 0 0 0 1 forward_v I I I I #
coedge $-1 $84 $85 $86 $87 forward $33 $-1 #
coedge $-1 $88 $35 $89 $90 forward $21 $-1 #
coedge $-1 $35 $88 $91 $92 forward $21 $-1 #
coedge $-1 $93 $94 $35 $56 reversed $95 $-1 #
edge $-1 $96 -30.587841494188012 $97 30.587841494188012 $55 $98 forward 7 unknown #
face $-1 $99 $100 $13 $-1 $101 reversed single #
loop $-1 $-1 $102 $36 #
plane-surface $-1 -38.967344049153787 0 0.39998510655557595 -1 0 0 0 0 1 forward_v I I I I #
coedge $-1 $103 $104 $105 $106 forward $37 $-1 #
coedge $-1 $107 $39 $108 $109 reversed $24 $-1 #
coedge $-1 $39 $107 $110 $111 reversed $24 $-1 #
coedge $-1 $102 $112 $39 $64 reversed $58 $-1 #
edge $-1 $113 -30.587841494188012 $114 30.587841494188012 $63 $115 forward 7 unknown #
face $-1 $116 $117 $14 $-1 $118 forward single #
loop $-1 $-1 $119 $40 #
plane-surface $-1 38.843561222762247 48.193425907747937 122.33810661670931 -1 0 0 0 0.62932039886446345 0.77714595512881146 forward_v I I I I #
coedge $-1 $120 $121 $122 $123 reversed $41 $-1 #
coedge $-1 $70 $43 $124 $125 reversed $27 $-1 #
coedge $-1 $43 $69 $120 $126 reversed $27 $-1 #
coedge $-1 $122 $127 $43 $72 forward $117 $-1 #
edge $-1 $128 -6.491128540314044 $129 3.3232585980499465 $71 $130 forward 7 unknown #
loop $-1 $-1 $78 $44 #
plane-surface $-1 27.852345635223436 -16.954593092470859 41.887004853553123 0 0.62932039886446345 0.77714595512881146 1 0 0 forward_v I I I I #
loop $-1 $-1 $131 $29 #
coedge $-1 $76 $76 $77 $132 reversed $45 $-1 #
coedge $-1 $77 $77 $76 $132 forward $47 $-1 #
coedge $-1 $78 $78 $48 $79 forward $73 $-1 #
edge $-1 $133 8.2153973525681266e-016 $133 6.2831853071796013 $78 $134 forward 7 unknown #
face $-1 $135 $136 $12 $-1 $137 reversed single #
loop $-1 $-1 $138 $49 #
plane-surface $-1 -51.760612811670278 0 0 1 0 0 0 0 -1 forward_v I I I I #
coedge $-1 $139 $91 $140 $141 forward $50 $-1 #
coedge $-1 $142 $52 $139 $143 forward $33 $-1 #
coedge $-1 $52 $142 $144 $145 forward $33 $-1 #
coedge $-1 $94 $93 $52 $87 reversed $95 $-1 #
edge $-1 $146 -30.587841494188012 $147 30.587841494188012 $86 $148 forward 7 unknown #
coedge $-1 $54 $53 $149 $150 forward $21 $-1 #
coedge $-1 $151 $152 $53 $90 reversed $136 $-1 #
edge $-1 $97 -51.760612811670278 $153 51.760612811670278 $89 $154 forward 7 unknown #
coedge $-1 $83 $155 $54 $92 reversed $50 $-1 #
edge $-1 $156 -51.760612811670278 $96 51.760612811670278 $91 $157 forward 7 unknown #
coedge $-1 $86 $55 $155 $158 forward $95 $-1 #
coedge $-1 $55 $86 $151 $159 reversed $95 $-1 #
loop $-1 $-1 $93 $135 #
vertex $-1 $56 $160 #
vertex $-1 $56 $161 #
straight-curve $-1 51.760612811670278 0 11.335433798148291 0 1 0 I I #
face $-1 $162 $163 $13 $-1 $164 reversed single #
loop $-1 $-1 $165 $57 #
plane-surface $-1 0 -30.587841494188012 0 0 1 0 0 0 1 forward_v I I I I #
coedge $-1 $105 $63 $166 $167 reversed $58 $-1 #
coedge $-1 $168 $60 $165 $169 reversed $37 $-1 #
coedge $-1 $60 $168 $170 $171 reversed $37 $-1 #
coedge $-1 $112 $102 $60 $106 reversed $58 $-1 #
edge $-1 $172 -30.587841494188012 $173 30.587841494188012 $105 $174 forward 7 unknown #
coedge $-1 $62 $61 $175 $176 reversed $24 $-1 #
coedge $-1 $177 $178 $61 $109 forward $179 $-1 #
edge $-1 $180 -29.078623596464261 $114 -16.285354833947771 $108 $181 forward 7 unknown #
coedge $-1 $182 $166 $62 $111 forward $100 $-1 #
edge $-1 $113 16.285354833947771 $183 29.078623596464261 $110 $184 forward 7 unknown #
coedge $-1 $63 $105 $177 $185 reversed $58 $-1 #
vertex $-1 $111 $186 #
vertex $-1 $109 $187 #
straight-curve $-1 -38.967344049153787 0 3.2192967562265595 0 1 0 I I #
face $-1 $-1 $188 $14 $-1 $189 reversed single #
loop $-1 $-1 $71 $65 #
plane-surface $-1 0 0 11.335433798148291 0 0 1 1 0 0 forward_v I I I I #
coedge $-1 $190 $191 $192 $193 reversed $66 $-1 #
coedge $-1 $194 $68 $70 $126 forward $41 $-1 #
coedge $-1 $68 $194 $190 $195 forward $41 $-1 #
coedge $-1 $192 $71 $68 $123 forward $117 $-1 #
edge $-1 $129 2.9349572300729072 $196 24.917388405150529 $122 $197 forward 7 unknown #
coedge $-1 $198 $199 $69 $125 forward $188 $-1 #
edge $-1 $200 -57.781153673852302 $128 -49.833619510206361 $124 $201 forward 7 unknown #
edge $-1 $129 48.546926351873608 $200 61.175682988376025 $70 $202 forward 7 unknown #
coedge $-1 $71 $192 $198 $203 forward $117 $-1 #
vertex $-1 $125 $204 #
vertex $-1 $72 $205 #
straight-curve $-1 16.861130047684625 24.096712953873968 11.335433798148287 0 -1 0 I I #
coedge $-1 $131 $131 $-1 $206 reversed $75 $-1 #
edge $-1 $207 0 $207 6.2831853071796004 $76 $208 forward 7 unknown #
vertex $-1 $79 $209 #
ellipse-curve $-1 27.852345635223436 25.680647925006021 7.3616667163253187 0 0.62932039886446345 0.77714595512881146 2 0 0 1 I I #
face $-1 $-1 $95 $12 $-1 $210 reversed single #
loop $-1 $-1 $151 $80 #
plane-surface $-1 0 30.587841494188012 0 0 -1 0 0 0 -1 forward_v I I I I #
coedge $-1 $211 $149 $152 $212 forward $81 $-1 #
coedge $-1 $155 $83 $84 $143 reversed $50 $-1 #
coedge $-1 $149 $211 $83 $141 reversed $81 $-1 #
edge $-1 $156 -11.335433798148291 $213 11.335433798148291 $140 $214 forward 7 unknown #
coedge $-1 $85 $84 $211 $215 forward $33 $-1 #
edge $-1 $147 -51.760612811670278 $213 51.760612811670278 $139 $216 forward 7 unknown #
coedge $-1 $152 $151 $85 $145 reversed $136 $-1 #
edge $-1 $217 -51.760612811670278 $146 51.760612811670278 $144 $218 forward 7 unknown #
vertex $-1 $87 $219 #
vertex $-1 $158 $220 #
straight-curve $-1 51.760612811670278 0 -11.335433798148291 0 -1 0 I I #
coedge $-1 $138 $140 $88 $150 reversed $81 $-1 #
edge $-1 $153 -30.587841494188012 $156 30.587841494188012 $149 $221 forward 7 unknown #
coedge $-1 $144 $89 $94 $159 forward $136 $-1 #
coedge $-1 $89 $144 $138 $212 reversed $136 $-1 #
vertex $-1 $90 $222 #
straight-curve $-1 0 30.587841494188012 11.335433798148291 -1 0 0 I I #
coedge $-1 $91 $139 $93 $158 reversed $50 $-1 #
vertex $-1 $150 $223 #
straight-curve $-1 0 -30.587841494188012 11.335433798148291 1 0 0 I I #
edge $-1 $96 -11.335433798148291 $147 11.335433798148291 $93 $224 forward 7 unknown #
edge $-1 $97 -11.335433798148291 $146 11.335433798148291 $94 $225 forward 7 unknown #
point $-1 51.760612811670278 -30.587841494188012 11.335433798148291 #
point $-1 51.760612811670278 30.587841494188012 11.335433798148291 #
face $-1 $-1 $179 $13 $-1 $226 reversed single #
loop $-1 $-1 $227 $99 #
plane-surface $-1 -51.760612811670278 0 0 1 0 0 0 0 -1 forward_v I I I I #
coedge $-1 $166 $182 $103 $169 forward $100 $-1 #
coedge $-1 $110 $165 $102 $167 forward $100 $-1 #
edge $-1 $173 -2.6193190963931956 $113 3.0193042029487716 $166 $228 forward 7 unknown #
coedge $-1 $104 $103 $227 $229 reversed $37 $-1 #
edge $-1 $230 -29.078623596464261 $173 -16.285354833947771 $165 $231 forward 7 unknown #
coedge $-1 $178 $177 $104 $171 forward $179 $-1 #
edge $-1 $172 16.285354833947771 $232 29.078623596464261 $170 $233 forward 7 unknown #
vertex $-1 $171 $234 #
vertex $-1 $169 $235 #
straight-curve $-1 -38.967344049153787 0 -2.4193265431154076 0 -1 0 I I #
coedge $-1 $236 $237 $107 $176 forward $163 $-1 #
edge $-1 $183 -30.587841494188012 $180 30.587841494188012 $175 $238 forward 7 unknown #
coedge $-1 $170 $108 $112 $185 forward $179 $-1 #
coedge $-1 $108 $170 $236 $239 reversed $179 $-1 #
loop $-1 $-1 $170 $162 #
vertex $-1 $239 $240 #
straight-curve $-1 -22.681989215206016 30.587841494188012 3.2192967562265595 1 0 0 I I #
coedge $-1 $165 $110 $237 $241 forward $100 $-1 #
vertex $-1 $241 $242 #
straight-curve $-1 -22.681989215206016 -30.587841494188012 3.2192967562265595 -1 0 0 I I #
edge $-1 $114 -3.0193042029487716 $172 2.6193190963931956 $177 $243 forward 7 unknown #
point $-1 -38.967344049153787 -30.587841494188012 3.2192967562265595 #
point $-1 -38.967344049153787 30.587841494188012 3.2192967562265595 #
loop $-1 $-1 $124 $116 #
plane-surface $-1 0 30.587841494188012 0 0 -1 0 0 0 -1 forward_v I I I I #
coedge $-1 $191 $119 $121 $195 reversed $66 $-1 #
coedge $-1 $119 $190 $244 $245 reversed $66 $-1 #
coedge $-1 $127 $122 $119 $193 forward $117 $-1 #
edge $-1 $196 -3.3232585980499465 $246 6.491128540314044 $192 $247 forward 7 unknown #
coedge $-1 $121 $120 $199 $248 reversed $41 $-1 #
edge $-1 $249 -61.175682988376025 $196 -48.546926351873608 $190 $250 forward 7 unknown #
vertex $-1 $123 $251 #
straight-curve $-1 13.926172817611718 20.773454355824025 11.335433798148291 1 0 0 I I #
coedge $-1 $244 $124 $127 $203 reversed $188 $-1 #
coedge $-1 $124 $244 $194 $248 forward $188 $-1 #
vertex $-1 $125 $252 #
straight-curve $-1 16.861130047684625 30.587841494188012 61.169053308354655 0 0 1 I I #
straight-curve $-1 16.861130047684625 -16.954593092470859 41.887004853553123 0 0.77714595512881146 -0.62932039886446345 I I #
edge $-1 $246 -38.843561222762247 $128 -16.861130047684625 $198 $253 forward 7 unknown #
point $-1 16.861130047684625 30.587841494188012 11.335433798148291 #
point $-1 16.861130047684625 20.773454355824022 11.335433798148291 #
edge $-1 $254 1 $254 0 $131 $-1 forward 7 unknown #
vertex $-1 $132 $255 #
ellipse-curve $-1 27.852345635223436 23.316091809810942 4.4416831532393273 0 0.62932039886446345 0.77714595512881146 2 0 0 1 I I #
point $-1 29.852345635223436 25.680647925006024 7.3616667163253204 #
plane-surface $-1 51.760612811670278 0 0 -1 0 0 0 0 1 forward_v I I I I #
coedge $-1 $140 $138 $142 $215 reversed $81 $-1 #
edge $-1 $153 -11.335433798148291 $217 11.335433798148291 $152 $256 forward 7 unknown #
vertex $-1 $215 $257 #
straight-curve $-1 -51.760612811670278 -30.587841494188012 0 0 0 -1 I I #
edge $-1 $213 -30.587841494188012 $217 30.587841494188012 $211 $258 forward 7 unknown #
straight-curve $-1 0 -30.587841494188012 -11.335433798148291 -1 0 0 I I #
vertex $-1 $145 $259 #
straight-curve $-1 0 30.587841494188012 -11.335433798148291 1 0 0 I I #
point $-1 51.760612811670278 30.587841494188012 -11.335433798148291 #
point $-1 51.760612811670278 -30.587841494188012 -11.335433798148291 #
straight-curve $-1 -51.760612811670278 0 11.335433798148291 0 -1 0 I I #
point $-1 -51.760612811670278 30.587841494188012 11.335433798148291 #
point $-1 -51.760612811670278 -30.587841494188012 11.335433798148291 #
straight-curve $-1 51.760612811670278 -30.587841494188012 0 0 0 -1 I I #
straight-curve $-1 51.760612811670278 30.587841494188012 0 0 0 -1 I I #
plane-surface $-1 0 30.587841494188012 0 0 -1 0 0 0 -1 forward_v I I I I #
coedge $-1 $237 $236 $168 $229 forward $163 $-1 #
straight-curve $-1 -38.967344049153787 -30.587841494188012 0.19999255327778798 0 0 1 I I #
edge $-1 $232 -30.587841494188012 $230 30.587841494188012 $227 $260 forward 7 unknown #
vertex $-1 $169 $261 #
straight-curve $-1 -22.681989215206016 -30.587841494188012 -2.4193265431154076 1 0 0 I I #
vertex $-1 $171 $262 #
straight-curve $-1 -22.681989215206016 30.587841494188012 -2.4193265431154076 -1 0 0 I I #
point $-1 -38.967344049153787 30.587841494188012 -2.4193265431154076 #
point $-1 -38.967344049153787 -30.587841494188012 -2.4193265431154076 #
coedge $-1 $227 $175 $178 $239 forward $163 $-1 #
coedge $-1 $175 $227 $182 $241 reversed $163 $-1 #
straight-curve $-1 -51.760612811670278 0 3.2192967562265595 0 1 0 I I #
edge $-1 $180 -3.2192967562265595 $232 2.4193265431154076 $178 $263 forward 7 unknown #
point $-1 -51.760612811670278 30.587841494188012 3.2192967562265595 #
edge $-1 $183 -3.2192967562265595 $230 2.4193265431154076 $237 $264 forward 7 unknown #
point $-1 -51.760612811670278 -30.587841494188012 3.2192967562265595 #
straight-curve $-1 -38.967344049153787 30.587841494188012 0.19999255327778798 0 0 -1 I I #
coedge $-1 $199 $198 $191 $245 forward $188 $-1 #
edge $-1 $246 49.833619510206361 $249 57.781153673852302 $244 $265 forward 7 unknown #
vertex $-1 $203 $266 #
straight-curve $-1 38.843561222762247 24.096712953873968 11.335433798148287 0 1 0 I I #
edge $-1 $249 -24.917388405150529 $200 -2.9349572300729072 $199 $267 forward 7 unknown #
vertex $-1 $248 $268 #
straight-curve $-1 38.843561222762247 -16.954593092470859 41.887004853553123 0 -0.77714595512881146 0.62932039886446345 I I #
point $-1 38.843561222762247 20.773454355824022 11.335433798148291 #
point $-1 16.861130047684625 30.587841494188012 3.3878996345023538 #
straight-curve $-1 0 30.587841494188012 11.335433798148291 -1 0 0 I I #
vertex $-1 $206 $269 #
point $-1 29.852345635223436 23.316091809810942 4.4416831532393273 #
straight-curve $-1 -51.760612811670278 30.587841494188012 0 0 0 -1 I I #
point $-1 -51.760612811670278 -30.587841494188012 -11.335433798148291 #
straight-curve $-1 -51.760612811670278 0 -11.335433798148291 0 1 0 I I #
point $-1 -51.760612811670278 30.587841494188012 -11.335433798148291 #
straight-curve $-1 -51.760612811670278 0 -2.4193265431154076 0 -1 0 I I #
point $-1 -51.760612811670278 -30.587841494188012 -2.4193265431154076 #
point $-1 -51.760612811670278 30.587841494188012 -2.4193265431154076 #
straight-curve $-1 -51.760612811670278 30.587841494188012 0 0 0 -1 I I #
straight-curve $-1 -51.760612811670278 -30.587841494188012 0 0 0 -1 I I #
straight-curve $-1 38.843561222762247 30.587841494188012 61.169053308354655 0 0 -1 I I #
point $-1 38.843561222762247 30.587841494188012 11.335433798148291 #
straight-curve $-1 13.926172817611718 30.587841494188012 3.3878996345023538 -1 0 0 I I #
point $-1 38.843561222762247 30.587841494188012 3.3878996345023538 #
point $-1 27.852345635223436 22.057451012082012 2.8873912429817041 #
End-of-ACIS-data 