500 0 9 0           
7 Unknown 11 ACIS 5.0 NT 24 Fri Mar 26 02:57:32 1999 
-1 9.9999999999999995e-007 1e-010 
body $-1 $9 $-1 $10 #
body $-1 $11 $-1 $12 #
body $-1 $13 $-1 $14 #
body $-1 $15 $-1 $16 #
body $-1 $17 $-1 $18 #
body $-1 $19 $-1 $20 #
body $-1 $21 $-1 $22 #
body $-1 $23 $-1 $24 #
body $-1 $25 $-1 $26 #
lump $-1 $-1 $27 $0 #
transform $-1 1 0 0 0 1 0 0 0 1 53.56608783227027 25.494037896183809 6.777273351307362 1 rotate no_reflect no_shear #
lump $-1 $-1 $28 $1 #
transform $-1 1 0 0 0 1 0 0 0 1 53.56608783227027 25.494037896183809 6.777273351307362 1 rotate no_reflect no_shear #
lump $-1 $-1 $29 $2 #
transform $-1 1 0 0 0 1 0 0 0 1 53.56608783227027 25.494037896183809 6.777273351307362 1 rotate no_reflect no_shear #
lump $-1 $-1 $30 $3 #
transform $-1 1 0 0 0 1 0 0 0 1 53.56608783227027 25.494037896183809 6.777273351307362 1 rotate no_reflect no_shear #
lump $-1 $-1 $31 $4 #
transform $-1 1 0 0 0 1 0 0 0 1 53.56608783227027 25.494037896183809 6.777273351307362 1 rotate no_reflect no_shear #
lump $-1 $-1 $32 $5 #
transform $-1 1 0 0 0 1 0 0 0 1 53.56608783227027 25.494037896183809 6.777273351307362 1 rotate no_reflect no_shear #
lump $-1 $-1 $33 $6 #
transform $-1 1 0 0 0 1 0 0 0 1 53.56608783227027 25.494037896183809 6.777273351307362 1 rotate no_reflect no_shear #
lump $-1 $-1 $34 $7 #
transform $-1 1 0 0 0 1 0 0 0 1 53.56608783227027 25.494037896183809 6.777273351307362 1 rotate no_reflect no_shear #
lump $-1 $-1 $35 $8 #
transform $-1 1 0 0 0 1 0 0 0 1 53.56608783227027 25.494037896183809 6.777273351307362 1 rotate no_reflect no_shear #
shell $-1 $-1 $-1 $36 $-1 $9 #
shell $-1 $-1 $-1 $37 $-1 $11 #
shell $-1 $-1 $-1 $38 $-1 $13 #
shell $-1 $-1 $-1 $39 $-1 $15 #
shell $-1 $-1 $-1 $40 $-1 $17 #
shell $-1 $-1 $-1 $41 $-1 $19 #
shell $-1 $-1 $-1 $42 $-1 $21 #
shell $-1 $-1 $-1 $43 $-1 $23 #
shell $-1 $-1 $-1 $44 $-1 $25 #
face $-1 $45 $46 $27 $-1 $47 forward single #
face $-1 $48 $49 $28 $-1 $50 forward single #
face $-1 $51 $52 $29 $-1 $53 reversed single #
face $-1 $54 $55 $30 $-1 $56 forward single #
face $-1 $57 $58 $31 $-1 $59 forward single #
face $-1 $60 $61 $32 $-1 $62 reversed single #
face $-1 $63 $64 $33 $-1 $65 forward single #
face $-1 $66 $67 $34 $-1 $68 forward single #
face $-1 $69 $70 $35 $-1 $71 forward single #
face $-1 $72 $73 $27 $-1 $74 reversed single #
loop $-1 $-1 $75 $36 #
plane-surface $-1 0 0 6.777273351307362 0 0 1 1 0 0 forward_v I I I I #
face $-1 $76 $77 $28 $-1 $78 reversed single #
loop $-1 $-1 $79 $37 #
plane-surface $-1 0 -25.494037896183809 0 0 1 0 0 0 1 forward_v I I I I #
face $-1 $80 $81 $29 $-1 $82 reversed single #
loop $-1 $-1 $83 $38 #
plane-surface $-1 35.101936149171166 21.517098599568016 152.66601186423324 0 -1 0 -0.61566148304635926 0 -0.78801074757464917 forward_v I I I I #
face $-1 $84 $85 $30 $-1 $86 forward single #
loop $-1 $87 $88 $39 #
cone-surface $-1 50.384966433395206 17.178876026897488 4.1384072408193173 -0.61566148304635926 0 -0.78801074757464917 0.39400537378732459 0 -0.30783074152317963 1 I I 0 1 0.5 forward I I I I #
face $-1 $89 $90 $31 $-1 $91 forward single #
loop $-1 $92 $93 $40 #
cone-surface $-1 50.384966433395206 19.781809570499806 4.1384072408193173 -0.61566148304635926 0 -0.78801074757464917 0.39400537378732459 0 -0.30783074152317963 1 I I 0 1 0.5 forward I I I I #
face $-1 $94 $95 $32 $-1 $96 reversed single #
loop $-1 $-1 $97 $41 #
plane-surface $-1 -113.47364097586217 -18.763310081391179 91.404100318379932 0 1 0 -0.55919291073839883 0 0.82903756765294845 forward_v I I I I #
face $-1 $98 $99 $33 $-1 $100 forward single #
loop $-1 $101 $102 $42 #
cone-surface $-1 -49.699493184880161 -16.187110711801274 3.5544568464648707 0.55919291073839883 0 -0.82903756765294845 0.82903756765294845 0 0.55919291073839883 1 I I 0 1 1 forward I I I I #
face $-1 $103 $104 $34 $-1 $105 forward single #
loop $-1 $106 $107 $43 #
cone-surface $-1 -49.699493184880161 -12.32281165741642 3.5544568464648707 0.55919291073839883 0 -0.82903756765294845 0.82903756765294845 0 0.55919291073839883 1 I I 0 1 1 forward I I I I #
face $-1 $108 $109 $35 $-1 $110 forward single #
loop $-1 $111 $112 $44 #
cone-surface $-1 -49.699493184880161 -8.4585126030315649 3.5544568464648707 0.55919291073839883 0 -0.82903756765294845 0.82903756765294845 0 0.55919291073839883 1 I I 0 1 1 forward I I I I #
face $-1 $113 $114 $27 $-1 $115 reversed single #
loop $-1 $-1 $116 $45 #
plane-surface $-1 0 0 -6.777273351307362 0 0 1 1 0 0 forward_v I I I I #
coedge $-1 $117 $118 $119 $120 forward $46 $-1 #
face $-1 $121 $122 $28 $-1 $123 reversed single #
loop $-1 $-1 $124 $48 #
plane-surface $-1 0 0 -6.777273351307362 0 0 1 1 0 0 forward_v I I I I #
coedge $-1 $125 $126 $127 $128 forward $49 $-1 #
face $-1 $129 $130 $29 $-1 $131 reversed single #
loop $-1 $-1 $132 $51 #
plane-surface $-1 -30.855218002442939 18.480342798698647 68.244706029520017 0.61566148304635926 0 0.78801074757464917 0.78801074757464917 0 -0.61566148304635926 forward_v I I I I #
coedge $-1 $133 $134 $135 $136 reversed $52 $-1 #
face $-1 $-1 $137 $30 $-1 $138 forward single #
loop $-1 $139 $140 $54 #
cone-surface $-1 49.923220321110435 17.178876026897488 3.5473991801383304 -0.61566148304635926 0 -0.78801074757464917 0.19700268689366229 0 -0.15391537076158981 1 I I -0.70710678118654746 0.70710678118654746 0.25 forward I I I I #
loop $-1 $-1 $141 $39 #
coedge $-1 $88 $88 $142 $143 reversed $55 $-1 #
face $-1 $-1 $144 $31 $-1 $145 forward single #
loop $-1 $146 $147 $57 #
cone-surface $-1 49.923220321110435 19.781809570499806 3.5473991801383304 -0.61566148304635926 0 -0.78801074757464917 0.19700268689366229 0 -0.15391537076158981 1 I I -0.70710678118654746 0.70710678118654746 0.25 forward I I I I #
loop $-1 $-1 $148 $40 #
coedge $-1 $93 $93 $149 $150 reversed $58 $-1 #
face $-1 $151 $152 $32 $-1 $153 reversed single #
loop $-1 $-1 $154 $60 #
plane-surface $-1 -53.566087832270284 -12.322811657416421 2.5875019880808452 -0.55919291073839883 0 0.82903756765294845 0.82903756765294845 0 0.55919291073839883 forward_v I I I I #
coedge $-1 $155 $156 $157 $158 reversed $61 $-1 #
face $-1 $-1 $159 $33 $-1 $160 forward single #
loop $-1 $161 $162 $63 #
cone-surface $-1 -48.659097768447296 -16.187110711801274 2.0120072394091641 0.55919291073839883 0 -0.82903756765294845 0.41451878382647422 0 0.27959645536919941 1 I I -0.70710678118654746 0.70710678118654746 0.5 forward I I I I #
loop $-1 $-1 $163 $42 #
coedge $-1 $102 $102 $164 $165 reversed $64 $-1 #
face $-1 $-1 $166 $34 $-1 $167 forward single #
loop $-1 $168 $169 $66 #
cone-surface $-1 -48.659097768447296 -12.32281165741642 2.0120072394091641 0.55919291073839883 0 -0.82903756765294845 0.41451878382647422 0 0.27959645536919941 1 I I -0.70710678118654746 0.70710678118654746 0.5 forward I I I I #
loop $-1 $-1 $170 $43 #
coedge $-1 $107 $107 $171 $172 reversed $67 $-1 #
face $-1 $-1 $173 $35 $-1 $174 forward single #
loop $-1 $175 $176 $69 #
cone-surface $-1 -48.659097768447296 -8.4585126030315649 2.0120072394091641 0.55919291073839883 0 -0.82903756765294845 0.41451878382647422 0 0.27959645536919941 1 I I -0.70710678118654746 0.70710678118654746 0.5 forward I I I I #
loop $-1 $-1 $177 $44 #
coedge $-1 $112 $112 $178 $179 reversed $70 $-1 #
face $-1 $180 $181 $27 $-1 $182 reversed single #
loop $-1 $-1 $183 $72 #
plane-surface $-1 0 -25.494037896183809 0 0 1 0 0 0 1 forward_v I I I I #
coedge $-1 $184 $185 $186 $187 forward $73 $-1 #
coedge $-1 $188 $75 $189 $190 forward $46 $-1 #
coedge $-1 $75 $188 $191 $192 forward $46 $-1 #
coedge $-1 $193 $194 $75 $120 reversed $195 $-1 #
edge $-1 $196 -25.494037896183809 $197 25.494037896183809 $119 $198 forward 7 unknown #
face $-1 $199 $200 $28 $-1 $201 forward single #
loop $-1 $-1 $202 $76 #
plane-surface $-1 53.56608783227027 0 0 -1 0 0 0 0 1 forward_v I I I I #
coedge $-1 $203 $204 $205 $206 forward $77 $-1 #
coedge $-1 $205 $79 $202 $207 reversed $49 $-1 #
coedge $-1 $79 $205 $208 $209 reversed $49 $-1 #
coedge $-1 $210 $211 $79 $128 reversed $200 $-1 #
edge $-1 $212 -53.56608783227027 $213 53.56608783227027 $127 $214 forward 7 unknown #
face $-1 $215 $216 $29 $-1 $217 reversed single #
loop $-1 $-1 $218 $80 #
plane-surface $-1 35.101936149171166 15.443586997829279 152.66601186423324 0 1 0 0.61566148304635926 0 0.78801074757464917 forward_v I I I I #
coedge $-1 $219 $220 $221 $222 reversed $81 $-1 #
coedge $-1 $134 $83 $223 $224 reversed $52 $-1 #
coedge $-1 $83 $133 $219 $225 reversed $52 $-1 #
coedge $-1 $221 $226 $83 $136 forward $227 $-1 #
edge $-1 $228 -36.015119757684687 $229 -30.268538442980912 $135 $230 forward 7 unknown #
loop $-1 $-1 $142 $84 #
plane-surface $-1 -30.855218002442939 18.480342798698647 68.244706029520017 0.61566148304635926 0 0.78801074757464917 0.78801074757464917 0 -0.61566148304635926 forward_v I I I I #
loop $-1 $-1 $231 $54 #
coedge $-1 $140 $140 $141 $232 reversed $85 $-1 #
coedge $-1 $141 $141 $140 $232 forward $87 $-1 #
coedge $-1 $142 $142 $88 $143 forward $137 $-1 #
edge $-1 $233 0 $233 6.2831853071796004 $142 $234 forward 7 unknown #
loop $-1 $-1 $149 $89 #
plane-surface $-1 -30.855218002442939 18.480342798698647 68.244706029520017 0.61566148304635926 0 0.78801074757464917 0.78801074757464917 0 -0.61566148304635926 forward_v I I I I #
loop $-1 $-1 $235 $57 #
coedge $-1 $147 $147 $148 $236 reversed $90 $-1 #
coedge $-1 $148 $148 $147 $236 forward $92 $-1 #
coedge $-1 $149 $149 $93 $150 forward $144 $-1 #
edge $-1 $237 0 $237 6.2831853071796004 $149 $238 forward 7 unknown #
face $-1 $239 $240 $32 $-1 $241 forward single #
loop $-1 $-1 $242 $94 #
plane-surface $-1 -113.47364097586217 -5.8823132334416641 91.404100318379932 0 -1 0 0.55919291073839883 0 -0.82903756765294845 forward_v I I I I #
coedge $-1 $243 $244 $245 $246 reversed $95 $-1 #
coedge $-1 $156 $97 $247 $248 reversed $61 $-1 #
coedge $-1 $97 $155 $243 $249 reversed $61 $-1 #
coedge $-1 $245 $250 $97 $158 forward $240 $-1 #
edge $-1 $251 3.1707326556608137 $252 9.3823240283136755 $157 $253 forward 7 unknown #
loop $-1 $-1 $164 $98 #
plane-surface $-1 -53.566087832270284 -12.322811657416421 2.5875019880808452 -0.55919291073839883 0 0.82903756765294845 0.82903756765294845 0 0.55919291073839883 forward_v I I I I #
loop $-1 $-1 $254 $63 #
coedge $-1 $162 $162 $163 $255 reversed $99 $-1 #
coedge $-1 $163 $163 $162 $255 forward $101 $-1 #
coedge $-1 $164 $164 $102 $165 forward $159 $-1 #
edge $-1 $256 0 $256 6.2831853071796004 $164 $257 forward 7 unknown #
loop $-1 $-1 $171 $103 #
plane-surface $-1 -53.566087832270284 -12.322811657416421 2.5875019880808452 -0.55919291073839883 0 0.82903756765294845 0.82903756765294845 0 0.55919291073839883 forward_v I I I I #
loop $-1 $-1 $258 $66 #
coedge $-1 $169 $169 $170 $259 reversed $104 $-1 #
coedge $-1 $170 $170 $169 $259 forward $106 $-1 #
coedge $-1 $171 $171 $107 $172 forward $166 $-1 #
edge $-1 $260 0 $260 6.2831853071796004 $171 $261 forward 7 unknown #
loop $-1 $-1 $178 $108 #
plane-surface $-1 -53.566087832270284 -12.322811657416421 2.5875019880808452 -0.55919291073839883 0 0.82903756765294845 0.82903756765294845 0 0.55919291073839883 forward_v I I I I #
loop $-1 $-1 $262 $69 #
coedge $-1 $176 $176 $177 $263 reversed $109 $-1 #
coedge $-1 $177 $177 $176 $263 forward $111 $-1 #
coedge $-1 $178 $178 $112 $179 forward $173 $-1 #
edge $-1 $264 0 $264 6.2831853071796004 $178 $265 forward 7 unknown #
face $-1 $266 $267 $27 $-1 $268 reversed single #
loop $-1 $-1 $269 $113 #
plane-surface $-1 -53.56608783227027 0 0 1 0 0 0 0 -1 forward_v I I I I #
coedge $-1 $191 $270 $193 $271 reversed $114 $-1 #
coedge $-1 $272 $116 $270 $273 forward $73 $-1 #
coedge $-1 $116 $272 $274 $275 forward $73 $-1 #
coedge $-1 $194 $193 $116 $187 reversed $195 $-1 #
edge $-1 $276 -25.494037896183809 $277 25.494037896183809 $186 $278 forward 7 unknown #
coedge $-1 $118 $117 $279 $280 forward $46 $-1 #
coedge $-1 $281 $282 $117 $190 reversed $267 $-1 #
edge $-1 $197 -53.56608783227027 $283 53.56608783227027 $189 $284 forward 7 unknown #
coedge $-1 $285 $183 $118 $192 reversed $114 $-1 #
edge $-1 $286 -53.56608783227027 $196 53.56608783227027 $191 $287 forward 7 unknown #
coedge $-1 $186 $119 $183 $271 forward $195 $-1 #
coedge $-1 $119 $186 $281 $288 reversed $195 $-1 #
loop $-1 $-1 $193 $266 #
vertex $-1 $120 $289 #
vertex $-1 $120 $290 #
straight-curve $-1 53.56608783227027 0 6.777273351307362 0 1 0 I I #
face $-1 $291 $292 $28 $-1 $293 reversed single #
loop $-1 $-1 $211 $121 #
plane-surface $-1 0 -28.859401803580123 -3.2795326474297175 0 0 1 1 0 0 forward_v I I I I #
coedge $-1 $294 $295 $125 $207 forward $122 $-1 #
coedge $-1 $296 $124 $295 $297 forward $77 $-1 #
coedge $-1 $124 $296 $298 $299 forward $77 $-1 #
coedge $-1 $126 $125 $124 $206 reversed $49 $-1 #
edge $-1 $300 -53.56608783227027 $301 53.56608783227027 $124 $302 forward 7 unknown #
edge $-1 $301 -6.777273351307362 $213 -3.2795326474297175 $202 $303 forward 7 unknown #
coedge $-1 $298 $304 $126 $209 forward $305 $-1 #
edge $-1 $212 3.2795326474297175 $300 6.777273351307362 $208 $306 forward 7 unknown #
coedge $-1 $307 $127 $304 $308 forward $200 $-1 #
coedge $-1 $127 $307 $294 $309 forward $200 $-1 #
vertex $-1 $209 $310 #
vertex $-1 $309 $311 #
straight-curve $-1 0 -25.494037896183809 -3.2795326474297175 1 0 0 I I #
face $-1 $-1 $227 $29 $-1 $312 forward single #
loop $-1 $-1 $313 $129 #
plane-surface $-1 53.56608783227027 0 0 -1 0 0 0 0 1 forward_v I I I I #
coedge $-1 $314 $315 $316 $317 reversed $130 $-1 #
coedge $-1 $318 $132 $134 $225 forward $81 $-1 #
coedge $-1 $132 $318 $314 $319 forward $81 $-1 #
coedge $-1 $316 $135 $132 $222 forward $227 $-1 #
edge $-1 $229 -12.276927200218692 $320 -6.2034155984799551 $221 $321 forward 7 unknown #
coedge $-1 $322 $323 $133 $224 forward $216 $-1 #
edge $-1 $324 -74.045454054210694 $228 -69.555732580809263 $223 $325 forward 7 unknown #
edge $-1 $229 99.839659245962878 $324 107.13217566454051 $134 $326 forward 7 unknown #
coedge $-1 $135 $316 $322 $327 forward $227 $-1 #
loop $-1 $-1 $316 $215 #
vertex $-1 $224 $328 #
vertex $-1 $136 $329 #
straight-curve $-1 17.550968074585583 21.517098599568016 6.7772733513073575 -1 0 0 I I #
coedge $-1 $231 $231 $-1 $330 reversed $139 $-1 #
edge $-1 $331 0 $331 6.2831853071796004 $140 $332 forward 7 unknown #
vertex $-1 $143 $333 #
ellipse-curve $-1 50.692797174918383 17.178876026897488 4.5324126146066419 0.61566148304635926 0 0.78801074757464917 0.39400537378732459 0 -0.30783074152317963 1 I I #
coedge $-1 $235 $235 $-1 $334 reversed $146 $-1 #
edge $-1 $335 0 $335 6.2831853071796004 $147 $336 forward 7 unknown #
vertex $-1 $150 $337 #
ellipse-curve $-1 50.692797174918383 19.781809570499806 4.5324126146066419 0.61566148304635926 0 0.78801074757464917 0.39400537378732459 0 -0.30783074152317963 1 I I #
face $-1 $-1 $338 $32 $-1 $339 reversed single #
loop $-1 $-1 $157 $151 #
plane-surface $-1 0 0 6.777273351307362 0 0 1 1 0 0 forward_v I I I I #
coedge $-1 $340 $341 $342 $343 reversed $152 $-1 #
coedge $-1 $344 $154 $156 $249 forward $95 $-1 #
coedge $-1 $154 $344 $340 $345 forward $95 $-1 #
coedge $-1 $342 $157 $154 $246 forward $240 $-1 #
edge $-1 $252 -12.601904252682967 $346 0.27909259526654662 $245 $347 forward 7 unknown #
coedge $-1 $348 $349 $155 $248 forward $338 $-1 #
edge $-1 $350 -43.114548171109114 $251 -38.924776807882601 $247 $351 forward 7 unknown #
edge $-1 $252 -7.4925330467692044 $350 -1.7244626260799089e-014 $156 $352 forward 7 unknown #
coedge $-1 $157 $342 $348 $353 forward $240 $-1 #
vertex $-1 $248 $354 #
vertex $-1 $158 $355 #
straight-curve $-1 -56.736820487931084 -18.763310081391179 6.7772733513073646 1 0 0 I I #
coedge $-1 $254 $254 $-1 $356 reversed $161 $-1 #
edge $-1 $357 0 $357 6.2831853071796004 $162 $358 forward 7 unknown #
vertex $-1 $165 $359 #
ellipse-curve $-1 -50.460292145943832 -16.187110711801274 4.6823876696941111 -0.55919291073839883 0 0.82903756765294845 0.82903756765294845 0 0.55919291073839883 1 I I #
coedge $-1 $258 $258 $-1 $360 reversed $168 $-1 #
edge $-1 $361 0 $361 6.2831853071796004 $169 $362 forward 7 unknown #
vertex $-1 $172 $363 #
ellipse-curve $-1 -50.460292145943832 -12.32281165741642 4.6823876696941111 -0.55919291073839883 0 0.82903756765294845 0.82903756765294845 0 0.55919291073839883 1 I I #
coedge $-1 $262 $262 $-1 $364 reversed $175 $-1 #
edge $-1 $365 0 $365 6.2831853071796004 $176 $366 forward 7 unknown #
vertex $-1 $179 $367 #
ellipse-curve $-1 -50.460292145943832 -8.4585126030315649 4.6823876696941111 -0.55919291073839883 0 0.82903756765294845 0.82903756765294845 0 0.55919291073839883 1 I I #
face $-1 $-1 $195 $27 $-1 $368 reversed single #
loop $-1 $-1 $281 $180 #
plane-surface $-1 0 25.494037896183809 0 0 -1 0 0 0 -1 forward_v I I I I #
coedge $-1 $369 $279 $282 $370 forward $181 $-1 #
coedge $-1 $183 $285 $184 $273 reversed $114 $-1 #
edge $-1 $196 -6.777273351307362 $277 6.777273351307362 $193 $371 forward 7 unknown #
coedge $-1 $185 $184 $369 $372 forward $73 $-1 #
edge $-1 $277 -53.56608783227027 $373 53.56608783227027 $270 $374 forward 7 unknown #
coedge $-1 $282 $281 $185 $275 reversed $267 $-1 #
edge $-1 $375 -53.56608783227027 $276 53.56608783227027 $274 $376 forward 7 unknown #
vertex $-1 $187 $377 #
vertex $-1 $271 $378 #
straight-curve $-1 53.56608783227027 0 -6.777273351307362 0 -1 0 I I #
coedge $-1 $269 $379 $188 $280 reversed $181 $-1 #
edge $-1 $283 -25.494037896183809 $286 25.494037896183809 $279 $380 forward 7 unknown #
coedge $-1 $274 $189 $194 $288 forward $267 $-1 #
coedge $-1 $189 $274 $269 $370 reversed $267 $-1 #
vertex $-1 $190 $381 #
straight-curve $-1 0 25.494037896183809 6.777273351307362 -1 0 0 I I #
coedge $-1 $270 $191 $379 $382 forward $114 $-1 #
vertex $-1 $280 $383 #
straight-curve $-1 0 -25.494037896183809 6.777273351307362 1 0 0 I I #
edge $-1 $197 -6.777273351307362 $276 6.777273351307362 $194 $384 forward 7 unknown #
point $-1 53.56608783227027 -25.494037896183809 6.777273351307362 #
point $-1 53.56608783227027 25.494037896183809 6.777273351307362 #
face $-1 $-1 $305 $28 $-1 $385 reversed single #
loop $-1 $-1 $386 $199 #
plane-surface $-1 0 -32.224765710976442 -5.0284029993685397 0 1 0 0 0 1 forward_v I I I I #
coedge $-1 $387 $202 $211 $309 reversed $122 $-1 #
coedge $-1 $202 $387 $203 $297 reversed $122 $-1 #
coedge $-1 $204 $203 $388 $389 forward $77 $-1 #
edge $-1 $301 25.494037896183809 $390 32.224765710976442 $295 $391 forward 7 unknown #
coedge $-1 $392 $208 $204 $299 reversed $305 $-1 #
edge $-1 $393 -32.224765710976442 $300 -25.494037896183809 $298 $394 forward 7 unknown #
vertex $-1 $209 $395 #
vertex $-1 $297 $396 #
straight-curve $-1 0 -25.494037896183809 -6.777273351307362 1 0 0 I I #
straight-curve $-1 53.56608783227027 -25.494037896183809 0 0 0 1 I I #
coedge $-1 $208 $392 $210 $308 reversed $305 $-1 #
loop $-1 $-1 $208 $291 #
straight-curve $-1 -53.56608783227027 -25.494037896183809 0 0 0 -1 I I #
coedge $-1 $211 $210 $397 $398 forward $200 $-1 #
edge $-1 $212 -3.3653639073963149 $399 3.3653639073963184 $304 $400 forward 7 unknown #
edge $-1 $401 -3.3653639073963184 $213 3.3653639073963149 $294 $402 forward 7 unknown #
point $-1 -53.56608783227027 -25.494037896183809 -3.2795326474297175 #
point $-1 53.56608783227027 -25.494037896183809 -3.2795326474297175 #
plane-surface $-1 0 0 6.777273351307362 0 0 1 1 0 0 forward_v I I I I #
coedge $-1 $323 $322 $315 $403 forward $216 $-1 #
coedge $-1 $315 $218 $220 $319 reversed $130 $-1 #
coedge $-1 $218 $314 $313 $403 reversed $130 $-1 #
coedge $-1 $226 $221 $218 $317 forward $227 $-1 #
edge $-1 $320 30.268538442980912 $404 36.015119757684687 $316 $405 forward 7 unknown #
coedge $-1 $220 $219 $323 $406 reversed $81 $-1 #
edge $-1 $407 -107.13217566454051 $320 -99.839659245962878 $314 $408 forward 7 unknown #
vertex $-1 $222 $409 #
straight-curve $-1 47.819506517566495 9.2401713993493235 6.7772733513073575 0 -1 0 I I #
coedge $-1 $313 $223 $226 $327 reversed $216 $-1 #
coedge $-1 $223 $313 $318 $406 forward $216 $-1 #
vertex $-1 $224 $410 #
straight-curve $-1 53.56608783227027 21.517098599568016 76.33300593211662 0 0 1 I I #
straight-curve $-1 -30.855218002442939 21.517098599568016 68.244706029520017 0.78801074757464917 0 -0.61566148304635926 I I #
edge $-1 $404 15.443586997829279 $228 21.517098599568016 $322 $411 forward 7 unknown #
point $-1 53.56608783227027 21.517098599568016 6.777273351307362 #
point $-1 47.819506517566495 21.517098599568016 6.7772733513073646 #
edge $-1 $412 1 $412 0 $231 $-1 forward 7 unknown #
vertex $-1 $232 $413 #
ellipse-curve $-1 50.077135691872023 17.178876026897488 3.7444018670319927 0.61566148304635926 0 0.78801074757464917 0.39400537378732459 0 -0.30783074152317963 1 I I #
point $-1 51.086802548705705 17.178876026897488 4.2245818730834621 #
edge $-1 $414 1 $414 0 $235 $-1 forward 7 unknown #
vertex $-1 $236 $415 #
ellipse-curve $-1 50.077135691872023 19.781809570499806 3.7444018670319927 0.61566148304635926 0 0.78801074757464917 0.39400537378732459 0 -0.30783074152317963 1 I I #
point $-1 51.086802548705705 19.781809570499806 4.2245818730834621 #
loop $-1 $-1 $247 $239 #
plane-surface $-1 -53.56608783227027 0 0 1 0 0 0 0 -1 forward_v I I I I #
coedge $-1 $341 $242 $244 $345 reversed $152 $-1 #
coedge $-1 $242 $340 $416 $417 reversed $152 $-1 #
coedge $-1 $250 $245 $242 $343 forward $240 $-1 #
edge $-1 $346 -9.3823240283136755 $418 -3.1707326556608137 $342 $419 forward 7 unknown #
coedge $-1 $244 $243 $349 $420 reversed $95 $-1 #
edge $-1 $421 1.7244626260799089e-014 $346 7.4925330467692044 $340 $422 forward 7 unknown #
vertex $-1 $246 $423 #
straight-curve $-1 -47.354496459617408 -6.1614058287082107 6.7772733513073611 0 1 0 I I #
coedge $-1 $416 $247 $250 $353 reversed $338 $-1 #
coedge $-1 $247 $416 $344 $420 forward $338 $-1 #
vertex $-1 $248 $424 #
straight-curve $-1 -53.56608783227027 -18.763310081391179 45.702050159189966 0 0 1 I I #
straight-curve $-1 -53.566087832270284 -18.763310081391179 2.5875019880808452 -0.82903756765294845 0 -0.55919291073839883 I I #
edge $-1 $418 5.8823132334416641 $251 18.763310081391179 $348 $425 forward 7 unknown #
point $-1 -53.56608783227027 -18.763310081391179 6.777273351307362 #
point $-1 -47.354496459617408 -18.763310081391179 6.777273351307362 #
edge $-1 $426 1 $426 0 $254 $-1 forward 7 unknown #
vertex $-1 $255 $427 #
ellipse-curve $-1 -48.938694223816498 -16.187110711801274 2.4265260232356383 -0.55919291073839883 0 0.82903756765294845 0.82903756765294845 0 0.55919291073839883 1 I I #
point $-1 -49.631254578290878 -16.187110711801274 5.2415805804325029 #
edge $-1 $428 1 $428 0 $258 $-1 forward 7 unknown #
vertex $-1 $259 $429 #
ellipse-curve $-1 -48.938694223816498 -12.32281165741642 2.4265260232356383 -0.55919291073839883 0 0.82903756765294845 0.82903756765294845 0 0.55919291073839883 1 I I #
point $-1 -49.631254578290878 -12.32281165741642 5.2415805804325029 #
edge $-1 $430 1 $430 0 $262 $-1 forward 7 unknown #
vertex $-1 $263 $431 #
ellipse-curve $-1 -48.938694223816498 -8.4585126030315649 2.4265260232356383 -0.55919291073839883 0 0.82903756765294845 0.82903756765294845 0 0.55919291073839883 1 I I #
point $-1 -49.631254578290878 -8.4585126030315649 5.2415805804325029 #
plane-surface $-1 53.56608783227027 0 0 -1 0 0 0 0 1 forward_v I I I I #
coedge $-1 $379 $269 $272 $372 reversed $181 $-1 #
edge $-1 $283 -6.777273351307362 $375 6.777273351307362 $282 $432 forward 7 unknown #
straight-curve $-1 53.56608783227027 -25.494037896183809 0 0 0 -1 I I #
edge $-1 $373 -25.494037896183809 $375 25.494037896183809 $369 $433 forward 7 unknown #
vertex $-1 $372 $434 #
straight-curve $-1 0 -25.494037896183809 -6.777273351307362 -1 0 0 I I #
vertex $-1 $275 $435 #
straight-curve $-1 0 25.494037896183809 -6.777273351307362 1 0 0 I I #
point $-1 53.56608783227027 25.494037896183809 -6.777273351307362 #
point $-1 53.56608783227027 -25.494037896183809 -6.777273351307362 #
coedge $-1 $279 $369 $285 $382 reversed $181 $-1 #
straight-curve $-1 -53.56608783227027 0 6.777273351307362 0 -1 0 I I #
point $-1 -53.56608783227027 25.494037896183809 6.777273351307362 #
edge $-1 $286 -6.777273351307362 $373 6.777273351307362 $379 $436 forward 7 unknown #
point $-1 -53.56608783227027 -25.494037896183809 6.777273351307362 #
straight-curve $-1 53.56608783227027 25.494037896183809 0 0 0 -1 I I #
plane-surface $-1 -53.56608783227027 0 0 1 0 0 0 0 -1 forward_v I I I I #
coedge $-1 $388 $397 $392 $437 forward $292 $-1 #
coedge $-1 $295 $294 $438 $439 forward $122 $-1 #
coedge $-1 $438 $386 $296 $389 reversed $292 $-1 #
edge $-1 $390 -53.56608783227027 $393 53.56608783227027 $388 $440 forward 7 unknown #
vertex $-1 $439 $441 #
straight-curve $-1 53.56608783227027 0 -6.777273351307362 0 -1 0 I I #
coedge $-1 $304 $298 $386 $437 reversed $305 $-1 #
vertex $-1 $299 $442 #
straight-curve $-1 -53.56608783227027 0 -6.777273351307362 0 1 0 I I #
point $-1 -53.56608783227027 -25.494037896183809 -6.777273351307362 #
point $-1 53.56608783227027 -25.494037896183809 -6.777273351307362 #
coedge $-1 $386 $438 $307 $398 reversed $292 $-1 #
edge $-1 $399 -53.56608783227027 $401 53.56608783227027 $397 $443 forward 7 unknown #
vertex $-1 $308 $444 #
straight-curve $-1 -53.56608783227027 -28.859401803580123 -3.2795326474297175 0 -1 0 I I #
vertex $-1 $309 $445 #
straight-curve $-1 53.56608783227027 -28.859401803580123 -3.2795326474297175 0 1 0 I I #
edge $-1 $404 69.555732580809263 $407 74.045454054210694 $313 $446 forward 7 unknown #
vertex $-1 $327 $447 #
straight-curve $-1 17.550968074585583 15.443586997829279 6.7772733513073575 1 0 0 I I #
edge $-1 $407 6.2034155984799551 $324 12.276927200218692 $323 $448 forward 7 unknown #
vertex $-1 $406 $449 #
straight-curve $-1 -30.855218002442939 15.443586997829279 68.244706029520017 -0.78801074757464917 0 0.61566148304635926 I I #
point $-1 47.819506517566495 15.443586997829279 6.7772733513073646 #
point $-1 53.56608783227027 21.517098599568016 2.2875518779059263 #
straight-curve $-1 53.56608783227027 0 6.777273351307362 0 1 0 I I #
vertex $-1 $330 $450 #
point $-1 50.471141065659346 17.178876026897488 3.4365711255088129 #
vertex $-1 $334 $451 #
point $-1 50.471141065659346 19.781809570499806 3.4365711255088129 #
coedge $-1 $349 $348 $341 $417 forward $338 $-1 #
edge $-1 $418 38.924776807882601 $421 43.114548171109114 $416 $452 forward 7 unknown #
vertex $-1 $353 $453 #
straight-curve $-1 -56.736820487931084 -5.8823132334416641 6.7772733513073646 -1 0 0 I I #
edge $-1 $421 -0.27909259526654662 $350 12.601904252682967 $349 $454 forward 7 unknown #
vertex $-1 $420 $455 #
straight-curve $-1 -53.566087832270284 -5.8823132334416641 2.5875019880808452 0.82903756765294845 0 0.55919291073839883 I I #
point $-1 -47.354496459617408 -5.8823132334416641 6.777273351307362 #
point $-1 -53.56608783227027 -18.763310081391179 2.587501988080855 #
straight-curve $-1 -53.56608783227027 0 6.777273351307362 0 -1 0 I I #
vertex $-1 $356 $456 #
point $-1 -48.109656656163544 -16.187110711801274 2.9857189339740371 #
vertex $-1 $360 $457 #
point $-1 -48.109656656163544 -12.32281165741642 2.9857189339740371 #
vertex $-1 $364 $458 #
point $-1 -48.109656656163544 -8.4585126030315649 2.9857189339740371 #
straight-curve $-1 -53.56608783227027 25.494037896183809 0 0 0 -1 I I #
straight-curve $-1 -53.56608783227027 0 -6.777273351307362 0 1 0 I I #
point $-1 -53.56608783227027 -25.494037896183809 -6.777273351307362 #
point $-1 -53.56608783227027 25.494037896183809 -6.777273351307362 #
straight-curve $-1 -53.56608783227027 -25.494037896183809 0 0 0 -1 I I #
edge $-1 $399 -1.7488703519388222 $393 1.7488703519388222 $392 $459 forward 7 unknown #
coedge $-1 $397 $388 $387 $439 reversed $292 $-1 #
edge $-1 $401 -1.7488703519388222 $390 1.7488703519388222 $387 $460 forward 7 unknown #
straight-curve $-1 0 -32.224765710976442 -6.777273351307362 -1 0 0 I I #
point $-1 53.56608783227027 -32.224765710976442 -6.777273351307362 #
point $-1 -53.56608783227027 -32.224765710976442 -6.777273351307362 #
straight-curve $-1 0 -32.224765710976442 -3.2795326474297175 1 0 0 I I #
point $-1 -53.56608783227027 -32.224765710976442 -3.2795326474297175 #
point $-1 53.56608783227027 -32.224765710976442 -3.2795326474297175 #
straight-curve $-1 53.56608783227027 15.443586997829279 76.33300593211662 0 0 -1 I I #
point $-1 53.56608783227027 15.443586997829279 6.777273351307362 #
straight-curve $-1 53.56608783227027 9.2401713993493235 2.2875518779059192 0 1 0 I I #
point $-1 53.56608783227027 15.443586997829279 2.2875518779059263 #
point $-1 49.769304950348847 17.178876026897488 3.3503964932446682 #
point $-1 49.769304950348847 19.781809570499806 3.3503964932446682 #
straight-curve $-1 -53.56608783227027 -5.8823132334416641 45.702050159189966 0 0 -1 I I #
point $-1 -53.56608783227027 -5.8823132334416641 6.777273351307362 #
straight-curve $-1 -53.56608783227027 -6.1614058287082107 2.587501988080855 0 -1 0 I I #
point $-1 -53.56608783227027 -5.8823132334416641 2.587501988080855 #
point $-1 -48.379501313078094 -16.187110711801274 1.59748845558269 #
point $-1 -48.379501313078094 -12.32281165741642 1.59748845558269 #
point $-1 -48.379501313078094 -8.4585126030315649 1.59748845558269 #
straight-curve $-1 -53.56608783227027 -32.224765710976442 -5.0284029993685397 0 0 -1 I I #
straight-curve $-1 53.56608783227027 -32.224765710976442 -5.0284029993685397 0 0 -1 I I #
End-of-ACIS-data 