500 0 7 0           
7 Unknown 11 ACIS 5.0 NT 24 Thu Mar 25 21:08:46 1999 
-1 9.9999999999999995e-007 1e-010 
body $-1 $7 $-1 $8 #
body $-1 $9 $-1 $10 #
body $-1 $11 $-1 $12 #
body $-1 $13 $-1 $14 #
body $-1 $15 $-1 $16 #
body $-1 $17 $-1 $18 #
body $-1 $19 $-1 $20 #
lump $-1 $-1 $21 $0 #
transform $-1 1 0 0 0 1 0 0 0 1 50.060121463667713 26.179853127035017 11.433182172995952 1 rotate no_reflect no_shear #
lump $-1 $-1 $22 $1 #
transform $-1 1 0 0 0 1 0 0 0 1 50.060121463667713 26.179853127035017 11.433182172995952 1 rotate no_reflect no_shear #
lump $-1 $-1 $23 $2 #
transform $-1 1 0 0 0 1 0 0 0 1 50.060121463667713 26.179853127035017 11.433182172995952 1 rotate no_reflect no_shear #
lump $-1 $-1 $24 $3 #
transform $-1 1 0 0 0 1 0 0 0 1 50.060121463667713 26.179853127035017 11.433182172995952 1 rotate no_reflect no_shear #
lump $-1 $-1 $25 $4 #
transform $-1 1 0 0 0 1 0 0 0 1 50.060121463667713 26.179853127035017 11.433182172995952 1 rotate no_reflect no_shear #
lump $-1 $-1 $26 $5 #
transform $-1 1 0 0 0 1 0 0 0 1 50.060121463667713 26.179853127035017 11.433182172995952 1 rotate no_reflect no_shear #
lump $-1 $-1 $27 $6 #
transform $-1 1 0 0 0 1 0 0 0 1 50.060121463667713 26.179853127035017 11.433182172995952 1 rotate no_reflect no_shear #
shell $-1 $-1 $-1 $28 $-1 $7 #
shell $-1 $-1 $-1 $29 $-1 $9 #
shell $-1 $-1 $-1 $30 $-1 $11 #
shell $-1 $-1 $-1 $31 $-1 $13 #
shell $-1 $-1 $-1 $32 $-1 $15 #
shell $-1 $-1 $-1 $33 $-1 $17 #
shell $-1 $-1 $-1 $34 $-1 $19 #
face $-1 $35 $36 $21 $-1 $37 forward single #
face $-1 $38 $39 $22 $-1 $40 forward single #
face $-1 $41 $42 $23 $-1 $43 forward single #
face $-1 $44 $45 $24 $-1 $46 reversed single #
face $-1 $47 $48 $25 $-1 $49 forward single #
face $-1 $50 $51 $26 $-1 $52 reversed single #
face $-1 $53 $54 $27 $-1 $55 forward single #
face $-1 $56 $57 $21 $-1 $58 reversed single #
loop $-1 $-1 $59 $28 #
plane-surface $-1 0 0 11.433182172995952 0 0 1 1 0 0 forward_v I I I I #
face $-1 $60 $61 $22 $-1 $62 reversed single #
loop $-1 $-1 $63 $29 #
plane-surface $-1 0 -22.317205199917602 5.8696679975839841 0 0 1 1 0 0 forward_v I I I I #
face $-1 $64 $65 $23 $-1 $66 reversed single #
loop $-1 $-1 $67 $30 #
plane-surface $-1 0 26.179853127035017 0 0 -1 0 0 0 -1 forward_v I I I I #
face $-1 $68 $69 $24 $-1 $70 reversed single #
loop $-1 $-1 $71 $31 #
plane-surface $-1 -29.899459237849271 -15.181999434061279 60.729998155717396 0.6018150307709319 0 0.79863550430605224 0.79863550430605224 0 -0.6018150307709319 forward_v I I I I #
face $-1 $72 $73 $25 $-1 $74 forward single #
loop $-1 $75 $76 $32 #
cone-surface $-1 41.703682566291498 -15.181999434061279 4.5132337283094763 -0.6018150307709319 0 -0.79863550430605224 1.1979532564590785 0 -0.90272254615639791 1 I I 0 1 1.5 forward I I I I #
face $-1 $77 $78 $26 $-1 $79 reversed single #
loop $-1 $-1 $80 $33 #
plane-surface $-1 30.354407840258276 8.2026997462266813 140.68957885723438 0 1 0 0.6018150307709319 0 0.79863550430605224 forward_v I I I I #
face $-1 $81 $82 $27 $-1 $83 forward single #
loop $-1 $84 $85 $34 #
cone-surface $-1 41.703682566291498 11.47525758496559 4.5132337283094763 -0.6018150307709319 0 -0.79863550430605224 1.1979532564590785 0 -0.90272254615639791 1 I I 0 1 1.5 forward I I I I #
face $-1 $86 $87 $21 $-1 $88 reversed single #
loop $-1 $-1 $89 $35 #
plane-surface $-1 0 0 -11.433182172995952 0 0 1 1 0 0 forward_v I I I I #
coedge $-1 $90 $91 $92 $93 forward $36 $-1 #
face $-1 $94 $95 $22 $-1 $96 reversed single #
loop $-1 $-1 $97 $38 #
plane-surface $-1 0 -22.317205199917602 -0.92938901668538687 0 0 1 1 0 0 forward_v I I I I #
coedge $-1 $98 $99 $100 $101 reversed $39 $-1 #
face $-1 $102 $103 $23 $-1 $104 forward single #
loop $-1 $-1 $105 $41 #
plane-surface $-1 -50.060121463667713 0 0 1 0 0 0 0 -1 forward_v I I I I #
coedge $-1 $106 $107 $108 $109 forward $42 $-1 #
face $-1 $110 $111 $24 $-1 $112 forward single #
loop $-1 $-1 $113 $44 #
plane-surface $-1 30.354407840258276 -11.90944159532237 140.68957885723438 0 -1 0 -0.6018150307709319 0 -0.79863550430605224 forward_v I I I I #
coedge $-1 $114 $115 $116 $117 reversed $45 $-1 #
face $-1 $-1 $118 $25 $-1 $119 forward single #
loop $-1 $120 $121 $47 #
cone-surface $-1 40.166131209713583 -15.181999434061279 2.4728342030865029 -0.6018150307709319 0 -0.79863550430605224 0.59897662822953923 0 -0.45136127307819895 1 I I -0.70710678118654757 0.70710678118654757 0.75 forward I I I I #
loop $-1 $-1 $122 $32 #
coedge $-1 $76 $76 $123 $124 reversed $48 $-1 #
face $-1 $125 $126 $26 $-1 $127 reversed single #
loop $-1 $-1 $128 $50 #
plane-surface $-1 -29.899459237849271 11.47525758496559 60.729998155717396 0.6018150307709319 0 0.79863550430605224 0.79863550430605224 0 -0.6018150307709319 forward_v I I I I #
coedge $-1 $129 $130 $131 $132 reversed $51 $-1 #
face $-1 $-1 $133 $27 $-1 $134 forward single #
loop $-1 $135 $136 $53 #
cone-surface $-1 40.166131209713583 11.47525758496559 2.4728342030865029 -0.6018150307709319 0 -0.79863550430605224 0.59897662822953923 0 -0.45136127307819895 1 I I -0.70710678118654757 0.70710678118654757 0.75 forward I I I I #
loop $-1 $-1 $137 $34 #
coedge $-1 $85 $85 $138 $139 reversed $54 $-1 #
face $-1 $140 $141 $21 $-1 $142 reversed single #
loop $-1 $-1 $143 $56 #
plane-surface $-1 0 -26.179853127035017 0 0 1 0 0 0 1 forward_v I I I I #
coedge $-1 $144 $145 $146 $147 forward $57 $-1 #
coedge $-1 $148 $59 $149 $150 forward $36 $-1 #
coedge $-1 $59 $148 $151 $152 forward $36 $-1 #
coedge $-1 $153 $154 $59 $93 reversed $155 $-1 #
edge $-1 $156 -26.179853127035017 $157 26.179853127035017 $92 $158 forward 7 unknown #
face $-1 $159 $160 $22 $-1 $161 reversed single #
loop $-1 $-1 $162 $60 #
plane-surface $-1 0 -18.454557272800187 2.4701394904492986 0 -1 0 0 0 -1 forward_v I I I I #
coedge $-1 $163 $164 $165 $166 reversed $61 $-1 #
coedge $-1 $167 $63 $168 $169 forward $39 $-1 #
coedge $-1 $63 $167 $170 $171 reversed $39 $-1 #
coedge $-1 $172 $173 $63 $101 forward $174 $-1 #
edge $-1 $175 7.2959546728413862 $176 15.021250527076216 $100 $177 forward 7 unknown #
face $-1 $178 $179 $23 $-1 $180 reversed single #
loop $-1 $-1 $181 $64 #
plane-surface $-1 0 31.895871978700271 -8.4331821729959522 0 0 1 1 0 0 forward_v I I I I #
coedge $-1 $182 $183 $106 $184 forward $65 $-1 #
coedge $-1 $185 $67 $105 $184 reversed $42 $-1 #
coedge $-1 $67 $185 $186 $187 reversed $42 $-1 #
coedge $-1 $181 $188 $67 $109 reversed $103 $-1 #
edge $-1 $189 -50.060121463667713 $190 50.060121463667713 $108 $191 forward 7 unknown #
face $-1 $192 $193 $24 $-1 $194 reversed single #
loop $-1 $-1 $195 $68 #
plane-surface $-1 0 -18.454557272800187 2.4701394904492986 0 -1 0 0 0 -1 forward_v I I I I #
coedge $-1 $196 $197 $198 $199 reversed $69 $-1 #
coedge $-1 $200 $71 $195 $201 reversed $45 $-1 #
coedge $-1 $71 $200 $196 $202 forward $45 $-1 #
coedge $-1 $198 $203 $71 $117 forward $193 $-1 #
edge $-1 $204 -10.863557555769548 $205 -4.3184418782917309 $116 $206 forward 7 unknown #
loop $-1 $-1 $123 $72 #
plane-surface $-1 -29.899459237849271 -15.181999434061279 60.729998155717396 0.6018150307709319 0 0.79863550430605224 0.79863550430605224 0 -0.6018150307709319 forward_v I I I I #
loop $-1 $-1 $207 $47 #
coedge $-1 $121 $121 $122 $208 reversed $73 $-1 #
coedge $-1 $122 $122 $121 $208 forward $75 $-1 #
coedge $-1 $123 $123 $76 $124 forward $118 $-1 #
edge $-1 $209 0 $209 6.2831853071796004 $123 $210 forward 7 unknown #
face $-1 $211 $212 $26 $-1 $213 forward single #
loop $-1 $-1 $214 $77 #
plane-surface $-1 30.354407840258276 14.747815423704498 140.68957885723438 0 -1 0 -0.6018150307709319 0 -0.79863550430605224 forward_v I I I I #
coedge $-1 $215 $216 $217 $218 reversed $78 $-1 #
coedge $-1 $130 $80 $219 $220 reversed $51 $-1 #
coedge $-1 $80 $129 $215 $221 reversed $51 $-1 #
coedge $-1 $217 $222 $80 $132 forward $223 $-1 #
edge $-1 $224 58.911607255621234 $225 69.86865835100734 $131 $226 forward 7 unknown #
loop $-1 $-1 $138 $81 #
plane-surface $-1 -29.899459237849271 11.47525758496559 60.729998155717396 0.6018150307709319 0 0.79863550430605224 0.79863550430605224 0 -0.6018150307709319 forward_v I I I I #
loop $-1 $-1 $227 $53 #
coedge $-1 $136 $136 $137 $228 reversed $82 $-1 #
coedge $-1 $137 $137 $136 $228 forward $84 $-1 #
coedge $-1 $138 $138 $85 $139 forward $133 $-1 #
edge $-1 $229 0 $229 6.2831853071796004 $138 $230 forward 7 unknown #
face $-1 $231 $232 $21 $-1 $233 reversed single #
loop $-1 $-1 $234 $86 #
plane-surface $-1 -50.060121463667713 0 0 1 0 0 0 0 -1 forward_v I I I I #
coedge $-1 $235 $151 $236 $237 forward $87 $-1 #
coedge $-1 $238 $89 $235 $239 forward $57 $-1 #
coedge $-1 $89 $238 $240 $241 forward $57 $-1 #
coedge $-1 $154 $153 $89 $147 reversed $155 $-1 #
edge $-1 $242 -26.179853127035017 $243 26.179853127035017 $146 $244 forward 7 unknown #
coedge $-1 $91 $90 $245 $246 forward $36 $-1 #
coedge $-1 $247 $248 $90 $150 reversed $232 $-1 #
edge $-1 $157 -50.060121463667713 $249 50.060121463667713 $149 $250 forward 7 unknown #
coedge $-1 $143 $251 $91 $152 reversed $87 $-1 #
edge $-1 $252 -50.060121463667713 $156 50.060121463667713 $151 $253 forward 7 unknown #
coedge $-1 $146 $92 $251 $254 forward $155 $-1 #
coedge $-1 $92 $146 $247 $255 reversed $155 $-1 #
loop $-1 $-1 $153 $231 #
vertex $-1 $93 $256 #
vertex $-1 $93 $257 #
straight-curve $-1 50.060121463667713 0 11.433182172995952 0 1 0 I I #
face $-1 $258 $259 $22 $-1 $260 reversed single #
loop $-1 $-1 $261 $94 #
plane-surface $-1 -50.060121463667713 0 0 1 0 0 0 0 -1 forward_v I I I I #
coedge $-1 $262 $168 $173 $263 reversed $95 $-1 #
coedge $-1 $264 $97 $265 $266 reversed $61 $-1 #
coedge $-1 $97 $264 $262 $267 forward $61 $-1 #
coedge $-1 $173 $172 $97 $166 forward $174 $-1 #
edge $-1 $268 -15.021250527076216 $269 -7.2959546728413862 $165 $270 forward 7 unknown #
coedge $-1 $99 $98 $261 $271 reversed $39 $-1 #
coedge $-1 $162 $272 $98 $169 reversed $95 $-1 #
edge $-1 $175 -50.060121463667713 $273 50.060121463667713 $168 $274 forward 7 unknown #
coedge $-1 $275 $276 $99 $171 forward $259 $-1 #
edge $-1 $176 -50.060121463667713 $277 50.060121463667713 $170 $278 forward 7 unknown #
coedge $-1 $165 $100 $276 $279 forward $174 $-1 #
coedge $-1 $100 $165 $162 $263 forward $174 $-1 #
loop $-1 $-1 $100 $258 #
vertex $-1 $101 $280 #
vertex $-1 $279 $281 #
straight-curve $-1 50.060121463667713 -11.158602599958801 5.8696679975839841 0 -1 0 I I #
face $-1 $282 $283 $23 $-1 $284 reversed single #
loop $-1 $-1 $285 $102 #
plane-surface $-1 0 37.611890830365525 -9.9331821729959522 0 -1 0 0 0 -1 forward_v I I I I #
coedge $-1 $286 $108 $287 $288 forward $103 $-1 #
coedge $-1 $289 $105 $188 $290 reversed $65 $-1 #
coedge $-1 $105 $289 $291 $292 reversed $65 $-1 #
edge $-1 $293 -11.433182172995952 $190 -8.4331821729959522 $105 $294 forward 7 unknown #
coedge $-1 $107 $106 $295 $296 reversed $42 $-1 #
coedge $-1 $297 $287 $107 $187 forward $283 $-1 #
edge $-1 $189 8.4331821729959522 $298 11.433182172995952 $186 $299 forward 7 unknown #
coedge $-1 $108 $286 $182 $290 forward $103 $-1 #
vertex $-1 $187 $300 #
vertex $-1 $290 $301 #
straight-curve $-1 0 26.179853127035017 -8.4331821729959522 -1 0 0 I I #
face $-1 $-1 $302 $24 $-1 $303 forward single #
loop $-1 $-1 $203 $110 #
plane-surface $-1 50.060121463667713 0 0 -1 0 0 0 0 1 forward_v I I I I #
coedge $-1 $304 $305 $114 $201 forward $111 $-1 #
coedge $-1 $197 $113 $115 $202 reversed $69 $-1 #
coedge $-1 $113 $196 $306 $307 reversed $69 $-1 #
coedge $-1 $308 $116 $113 $199 forward $193 $-1 #
edge $-1 $205 -69.86865835100734 $309 -58.911607255621234 $198 $310 forward 7 unknown #
coedge $-1 $115 $114 $311 $312 reversed $45 $-1 #
edge $-1 $313 52.443353058282213 $204 70.650028756212194 $195 $314 forward 7 unknown #
edge $-1 $315 81.913567229405444 $205 100.12024292733543 $196 $316 forward 7 unknown #
coedge $-1 $116 $308 $304 $317 forward $193 $-1 #
vertex $-1 $117 $318 #
vertex $-1 $117 $319 #
straight-curve $-1 50.060121463667713 -7.5909997170306394 0.47613107760985685 0 1 0 I I #
coedge $-1 $207 $207 $-1 $320 reversed $120 $-1 #
edge $-1 $321 0 $321 6.2831853071796004 $121 $322 forward 7 unknown #
vertex $-1 $124 $323 #
ellipse-curve $-1 42.789872649791207 -15.181999434061279 5.9546566253028974 0.6018150307709319 0 0.79863550430605224 1.1979532564590785 0 -0.90272254615639791 1 I I #
face $-1 $-1 $223 $26 $-1 $324 reversed single #
loop $-1 $-1 $325 $125 #
plane-surface $-1 0 0 11.433182172995952 0 0 1 1 0 0 forward_v I I I I #
coedge $-1 $326 $327 $328 $329 reversed $126 $-1 #
coedge $-1 $330 $128 $130 $221 forward $78 $-1 #
coedge $-1 $128 $330 $326 $331 forward $78 $-1 #
coedge $-1 $328 $131 $128 $218 forward $223 $-1 #
edge $-1 $225 2.4650709537438864 $332 9.0101866312217034 $217 $333 forward 7 unknown #
coedge $-1 $334 $335 $129 $220 forward $212 $-1 #
edge $-1 $336 20.34241991578552 $224 34.882917543538575 $219 $337 forward 7 unknown #
edge $-1 $225 -100.12024292733543 $336 -81.913567229405444 $130 $338 forward 7 unknown #
coedge $-1 $131 $328 $334 $339 reversed $223 $-1 #
loop $-1 $-1 $328 $211 #
vertex $-1 $339 $340 #
vertex $-1 $132 $341 #
straight-curve $-1 50.060121463667713 8.2026997462266813 70.34478942861719 0 0 -1 I I #
coedge $-1 $227 $227 $-1 $342 reversed $135 $-1 #
edge $-1 $343 0 $343 6.2831853071796004 $136 $344 forward 7 unknown #
vertex $-1 $139 $345 #
ellipse-curve $-1 42.789872649791207 11.47525758496559 5.9546566253028974 0.6018150307709319 0 0.79863550430605224 1.1979532564590785 0 -0.90272254615639791 1 I I #
face $-1 $-1 $155 $21 $-1 $346 reversed single #
loop $-1 $-1 $248 $140 #
plane-surface $-1 0 26.179853127035017 0 0 -1 0 0 0 -1 forward_v I I I I #
coedge $-1 $347 $245 $248 $348 forward $141 $-1 #
coedge $-1 $251 $143 $144 $239 reversed $87 $-1 #
coedge $-1 $245 $347 $143 $237 reversed $141 $-1 #
edge $-1 $252 -11.433182172995952 $349 11.433182172995952 $236 $350 forward 7 unknown #
coedge $-1 $145 $144 $347 $351 forward $57 $-1 #
edge $-1 $243 -50.060121463667713 $349 50.060121463667713 $235 $352 forward 7 unknown #
coedge $-1 $248 $247 $145 $241 reversed $232 $-1 #
edge $-1 $353 -50.060121463667713 $242 50.060121463667713 $240 $354 forward 7 unknown #
vertex $-1 $147 $355 #
vertex $-1 $254 $356 #
straight-curve $-1 50.060121463667713 0 -11.433182172995952 0 -1 0 I I #
coedge $-1 $234 $236 $148 $246 reversed $141 $-1 #
edge $-1 $249 -26.179853127035017 $252 26.179853127035017 $245 $357 forward 7 unknown #
coedge $-1 $240 $149 $154 $255 forward $232 $-1 #
coedge $-1 $149 $240 $234 $348 reversed $232 $-1 #
vertex $-1 $150 $358 #
straight-curve $-1 0 26.179853127035017 11.433182172995952 -1 0 0 I I #
coedge $-1 $151 $235 $153 $254 reversed $87 $-1 #
vertex $-1 $246 $359 #
straight-curve $-1 0 -26.179853127035017 11.433182172995952 1 0 0 I I #
edge $-1 $156 -11.433182172995952 $243 11.433182172995952 $153 $360 forward 7 unknown #
edge $-1 $157 -11.433182172995952 $242 11.433182172995952 $154 $361 forward 7 unknown #
point $-1 50.060121463667713 -26.179853127035017 11.433182172995952 #
point $-1 50.060121463667713 26.179853127035017 11.433182172995952 #
face $-1 $-1 $174 $22 $-1 $362 reversed single #
loop $-1 $-1 $170 $159 #
plane-surface $-1 0 -26.179853127035017 0 0 1 0 0 0 1 forward_v I I I I #
coedge $-1 $363 $364 $167 $271 forward $160 $-1 #
coedge $-1 $272 $162 $164 $267 reversed $95 $-1 #
edge $-1 $269 -2.1644587619100362 $175 4.6345982523593348 $173 $365 forward 7 unknown #
coedge $-1 $164 $163 $366 $367 reversed $61 $-1 #
coedge $-1 $276 $275 $163 $266 forward $259 $-1 #
edge $-1 $368 -50.060121463667713 $268 50.060121463667713 $265 $369 forward 7 unknown #
edge $-1 $370 -50.060121463667713 $269 50.060121463667713 $262 $371 forward 7 unknown #
vertex $-1 $266 $372 #
vertex $-1 $166 $373 #
straight-curve $-1 50.060121463667713 -11.158602599958801 -0.92938901668538687 0 1 0 I I #
edge $-1 $277 -15.021250527076216 $273 -7.2959546728413862 $261 $374 forward 7 unknown #
coedge $-1 $168 $262 $363 $375 reversed $95 $-1 #
vertex $-1 $271 $376 #
straight-curve $-1 0 -18.454557272800187 5.8696679975839841 -1 0 0 I I #
coedge $-1 $265 $170 $364 $377 forward $259 $-1 #
coedge $-1 $170 $265 $172 $279 reversed $259 $-1 #
vertex $-1 $377 $378 #
straight-curve $-1 0 -26.179853127035017 5.8696679975839841 -1 0 0 I I #
edge $-1 $176 -5.8696679975839841 $268 0.92938901668538687 $172 $379 forward 7 unknown #
point $-1 50.060121463667713 -18.454557272800187 5.8696679975839841 #
point $-1 50.060121463667713 -26.179853127035017 5.8696679975839841 #
face $-1 $-1 $380 $23 $-1 $381 reversed single #
loop $-1 $-1 $186 $178 #
plane-surface $-1 50.060121463667713 0 0 -1 0 0 0 0 1 forward_v I I I I #
coedge $-1 $382 $383 $384 $385 forward $179 $-1 #
coedge $-1 $188 $181 $383 $386 forward $103 $-1 #
coedge $-1 $186 $384 $181 $288 reversed $283 $-1 #
edge $-1 $189 -5.7160188516652575 $387 5.7160188516652539 $287 $388 forward 7 unknown #
coedge $-1 $183 $182 $389 $390 forward $65 $-1 #
edge $-1 $391 -5.7160188516652539 $190 5.7160188516652575 $182 $392 forward 7 unknown #
coedge $-1 $393 $295 $183 $292 forward $380 $-1 #
edge $-1 $293 -5.7160188516652539 $394 5.7160188516652539 $183 $395 forward 7 unknown #
vertex $-1 $292 $396 #
straight-curve $-1 -50.060121463667713 26.179853127035017 0 0 0 1 I I #
coedge $-1 $291 $397 $185 $296 forward $380 $-1 #
edge $-1 $298 -50.060121463667713 $293 50.060121463667713 $295 $398 forward 7 unknown #
coedge $-1 $384 $186 $397 $399 reversed $283 $-1 #
vertex $-1 $187 $400 #
straight-curve $-1 50.060121463667713 26.179853127035017 0 0 0 -1 I I #
point $-1 50.060121463667713 26.179853127035013 -8.4331821729959522 #
point $-1 -50.060121463667713 26.179853127035013 -8.4331821729959522 #
loop $-1 $-1 $401 $192 #
plane-surface $-1 0 0 11.433182172995952 0 0 1 1 0 0 forward_v I I I I #
coedge $-1 $305 $195 $203 $317 reversed $111 $-1 #
coedge $-1 $195 $304 $401 $402 reversed $111 $-1 #
coedge $-1 $311 $403 $197 $307 forward $302 $-1 #
edge $-1 $309 -34.882917543538575 $315 -20.34241991578552 $306 $404 forward 7 unknown #
coedge $-1 $203 $198 $403 $405 reversed $193 $-1 #
vertex $-1 $307 $406 #
straight-curve $-1 50.060121463667713 -11.90944159532237 70.34478942861719 0 0 1 I I #
coedge $-1 $401 $306 $200 $312 forward $302 $-1 #
edge $-1 $315 4.3184418782917309 $313 10.863557555769548 $311 $407 forward 7 unknown #
vertex $-1 $402 $408 #
straight-curve $-1 -6.3634998812869004 -18.454557272800187 42.994380307496918 0.79863550430605224 0 -0.6018150307709319 I I #
vertex $-1 $312 $409 #
straight-curve $-1 -29.899459237849271 -11.90944159532237 60.729998155717396 0.79863550430605224 0 -0.6018150307709319 I I #
edge $-1 $410 58.911607255621234 $204 69.86865835100734 $203 $411 forward 7 unknown #
point $-1 50.060121463667713 -18.454557272800187 0.47613107760985141 #
point $-1 50.060121463667713 -11.90944159532237 0.47613107760984974 #
edge $-1 $412 1 $412 0 $207 $-1 forward 7 unknown #
vertex $-1 $208 $413 #
ellipse-curve $-1 40.617492482791782 -15.181999434061279 3.0718108313160419 0.6018150307709319 0 0.79863550430605224 1.1979532564590785 0 -0.90272254615639791 1 I I #
point $-1 43.987825906250293 -15.181999434061279 5.0519340791465126 #
plane-surface $-1 50.060121463667713 0 0 -1 0 0 0 0 1 forward_v I I I I #
coedge $-1 $335 $334 $327 $414 forward $212 $-1 #
coedge $-1 $327 $214 $216 $331 reversed $126 $-1 #
coedge $-1 $214 $326 $325 $414 reversed $126 $-1 #
coedge $-1 $222 $217 $214 $329 forward $223 $-1 #
edge $-1 $332 -69.86865835100734 $415 -58.911607255621234 $328 $416 forward 7 unknown #
coedge $-1 $216 $215 $335 $417 reversed $78 $-1 #
edge $-1 $418 81.913567229405444 $332 100.12024292733543 $326 $419 forward 7 unknown #
vertex $-1 $218 $420 #
straight-curve $-1 50.060121463667713 5.7376287924827949 0.47613107760985685 0 1 0 I I #
coedge $-1 $325 $219 $222 $339 forward $212 $-1 #
coedge $-1 $219 $325 $330 $417 forward $212 $-1 #
vertex $-1 $220 $421 #
straight-curve $-1 15.177203920129138 8.2026997462266813 11.433182172995956 1 0 0 I I #
straight-curve $-1 -29.899459237849271 8.2026997462266813 60.729998155717396 -0.79863550430605224 0 0.6018150307709319 I I #
edge $-1 $224 8.2026997462266813 $415 14.747815423704498 $222 $422 forward 7 unknown #
point $-1 50.060121463667713 8.2026997462266813 11.433182172995952 #
point $-1 50.060121463667713 8.2026997462266813 0.47613107760984974 #
edge $-1 $423 1 $423 0 $227 $-1 forward 7 unknown #
vertex $-1 $228 $424 #
ellipse-curve $-1 40.617492482791782 11.47525758496559 3.0718108313160419 0.6018150307709319 0 0.79863550430605224 1.1979532564590785 0 -0.90272254615639791 1 I I #
point $-1 43.987825906250293 11.47525758496559 5.0519340791465126 #
plane-surface $-1 50.060121463667713 0 0 -1 0 0 0 0 1 forward_v I I I I #
coedge $-1 $236 $234 $238 $351 reversed $141 $-1 #
edge $-1 $249 -11.433182172995952 $353 11.433182172995952 $248 $425 forward 7 unknown #
vertex $-1 $351 $426 #
straight-curve $-1 -50.060121463667713 -26.179853127035017 0 0 0 -1 I I #
edge $-1 $349 -26.179853127035017 $353 26.179853127035017 $347 $427 forward 7 unknown #
straight-curve $-1 0 -26.179853127035017 -11.433182172995952 -1 0 0 I I #
vertex $-1 $241 $428 #
straight-curve $-1 0 26.179853127035017 -11.433182172995952 1 0 0 I I #
point $-1 50.060121463667713 26.179853127035017 -11.433182172995952 #
point $-1 50.060121463667713 -26.179853127035017 -11.433182172995952 #
straight-curve $-1 -50.060121463667713 0 11.433182172995952 0 -1 0 I I #
point $-1 -50.060121463667713 26.179853127035017 11.433182172995952 #
point $-1 -50.060121463667713 -26.179853127035017 11.433182172995952 #
straight-curve $-1 50.060121463667713 -26.179853127035017 0 0 0 -1 I I #
straight-curve $-1 50.060121463667713 26.179853127035017 0 0 0 -1 I I #
plane-surface $-1 50.060121463667713 0 0 -1 0 0 0 0 1 forward_v I I I I #
coedge $-1 $366 $261 $272 $375 forward $160 $-1 #
coedge $-1 $261 $366 $275 $377 reversed $160 $-1 #
straight-curve $-1 50.060121463667713 -18.454557272800187 1.2350697452246493 0 0 1 I I #
coedge $-1 $364 $363 $264 $367 forward $160 $-1 #
edge $-1 $370 7.2959546728413862 $368 15.021250527076216 $366 $429 forward 7 unknown #
vertex $-1 $266 $430 #
straight-curve $-1 0 -26.179853127035017 -0.92938901668538687 1 0 0 I I #
vertex $-1 $367 $431 #
straight-curve $-1 0 -18.454557272800187 -0.92938901668538687 1 0 0 I I #
point $-1 50.060121463667713 -26.179853127035017 -0.92938901668538687 #
point $-1 50.060121463667713 -18.454557272800187 -0.92938901668538687 #
straight-curve $-1 -50.060121463667713 -11.158602599958801 5.8696679975839841 0 1 0 I I #
edge $-1 $273 -4.6345982523593348 $370 2.1644587619100362 $363 $432 forward 7 unknown #
point $-1 -50.060121463667713 -18.454557272800187 5.8696679975839841 #
edge $-1 $277 -5.8696679975839841 $368 0.92938901668538687 $364 $433 forward 7 unknown #
point $-1 -50.060121463667713 -26.179853127035017 5.8696679975839841 #
straight-curve $-1 50.060121463667713 -26.179853127035017 0 0 0 -1 I I #
loop $-1 $-1 $295 $282 #
plane-surface $-1 0 0 -11.433182172995952 0 0 1 1 0 0 forward_v I I I I #
coedge $-1 $389 $285 $393 $434 reversed $179 $-1 #
coedge $-1 $285 $389 $286 $386 reversed $179 $-1 #
coedge $-1 $287 $297 $285 $385 reversed $283 $-1 #
edge $-1 $387 -1.5 $435 1.5 $384 $436 forward 7 unknown #
edge $-1 $387 -50.060121463667713 $391 50.060121463667713 $383 $437 forward 7 unknown #
vertex $-1 $288 $438 #
straight-curve $-1 50.060121463667713 31.895871978700271 -8.4331821729959522 0 1 0 I I #
coedge $-1 $383 $382 $289 $390 reversed $179 $-1 #
edge $-1 $391 -1.5 $394 1.5 $389 $439 forward 7 unknown #
vertex $-1 $386 $440 #
straight-curve $-1 -50.060121463667713 31.895871978700271 -8.4331821729959522 0 -1 0 I I #
coedge $-1 $397 $291 $382 $434 forward $380 $-1 #
vertex $-1 $434 $441 #
straight-curve $-1 -50.060121463667713 31.895871978700271 -11.433182172995952 0 1 0 I I #
point $-1 -50.060121463667713 26.179853127035017 -11.433182172995952 #
coedge $-1 $295 $393 $297 $399 forward $380 $-1 #
straight-curve $-1 0 26.179853127035017 -11.433182172995952 -1 0 0 I I #
edge $-1 $435 -37.611890830365525 $298 -26.179853127035017 $297 $442 forward 7 unknown #
point $-1 50.060121463667713 26.179853127035017 -11.433182172995952 #
coedge $-1 $403 $311 $305 $402 forward $302 $-1 #
edge $-1 $313 20.34241991578552 $410 34.882917543538575 $401 $443 forward 7 unknown #
coedge $-1 $306 $401 $308 $405 forward $302 $-1 #
straight-curve $-1 15.177203920129138 -11.90944159532237 11.433182172995956 -1 0 0 I I #
edge $-1 $410 -18.454557272800187 $309 -11.90944159532237 $308 $444 forward 7 unknown #
point $-1 50.060121463667713 -11.90944159532237 11.433182172995952 #
straight-curve $-1 35.519623835914672 -7.5909997170306394 11.433182172995949 0 -1 0 I I #
point $-1 35.519623835914658 -18.454557272800187 11.433182172995963 #
point $-1 35.519623835914658 -11.90944159532237 11.433182172995963 #
vertex $-1 $405 $445 #
straight-curve $-1 50.060121463667713 -18.454557272800187 70.34478942861719 0 0 -1 I I #
vertex $-1 $320 $446 #
point $-1 41.815445739250862 -15.181999434061279 2.1690882851596442 #
edge $-1 $415 -34.882917543538575 $418 -20.34241991578552 $325 $447 forward 7 unknown #
vertex $-1 $414 $448 #
straight-curve $-1 50.060121463667713 14.747815423704498 70.34478942861719 0 0 1 I I #
edge $-1 $418 -9.0101866312217034 $336 -2.4650709537438864 $335 $449 forward 7 unknown #
vertex $-1 $417 $450 #
straight-curve $-1 -29.899459237849271 14.747815423704498 60.729998155717396 0.79863550430605224 0 -0.6018150307709319 I I #
point $-1 50.060121463667713 14.747815423704498 0.47613107760984974 #
point $-1 35.519623835914658 8.2026997462266813 11.433182172995963 #
straight-curve $-1 50.060121463667713 0 11.433182172995952 0 1 0 I I #
vertex $-1 $342 $451 #
point $-1 41.815445739250862 11.47525758496559 2.1690882851596442 #
straight-curve $-1 -50.060121463667713 26.179853127035017 0 0 0 -1 I I #
point $-1 -50.060121463667713 -26.179853127035017 -11.433182172995952 #
straight-curve $-1 -50.060121463667713 0 -11.433182172995952 0 1 0 I I #
point $-1 -50.060121463667713 26.179853127035017 -11.433182172995952 #
straight-curve $-1 -50.060121463667713 -11.158602599958801 -0.92938901668538687 0 -1 0 I I #
point $-1 -50.060121463667713 -26.179853127035017 -0.92938901668538687 #
point $-1 -50.060121463667713 -18.454557272800187 -0.92938901668538687 #
straight-curve $-1 -50.060121463667713 -18.454557272800187 1.2350697452246493 0 0 -1 I I #
straight-curve $-1 -50.060121463667713 -26.179853127035017 0 0 0 -1 I I #
edge $-1 $394 -50.060121463667713 $435 50.060121463667713 $382 $452 forward 7 unknown #
vertex $-1 $399 $453 #
straight-curve $-1 50.060121463667713 37.611890830365525 -9.9331821729959522 0 0 -1 I I #
straight-curve $-1 0 37.611890830365525 -8.4331821729959522 -1 0 0 I I #
point $-1 50.060121463667713 37.611890830365525 -8.4331821729959522 #
straight-curve $-1 -50.060121463667713 37.611890830365525 -9.9331821729959522 0 0 -1 I I #
point $-1 -50.060121463667713 37.611890830365525 -8.4331821729959522 #
point $-1 -50.060121463667713 37.611890830365525 -11.433182172995952 #
straight-curve $-1 50.060121463667713 0 -11.433182172995952 0 -1 0 I I #
straight-curve $-1 15.177203920129138 -18.454557272800187 11.433182172995956 1 0 0 I I #
straight-curve $-1 50.060121463667713 0 11.433182172995952 0 1 0 I I #
point $-1 50.060121463667713 -18.454557272800187 11.433182172995952 #
point $-1 39.714769936635385 -15.181999434061279 1.8738575748569637 #
straight-curve $-1 15.177203920129138 14.747815423704498 11.433182172995956 -1 0 0 I I #
point $-1 50.060121463667713 14.747815423704498 11.433182172995952 #
straight-curve $-1 35.519623835914672 5.7376287924827949 11.433182172995949 0 -1 0 I I #
point $-1 35.519623835914658 14.747815423704498 11.433182172995963 #
point $-1 39.714769936635385 11.47525758496559 1.8738575748569637 #
straight-curve $-1 0 37.611890830365525 -11.433182172995952 1 0 0 I I #
point $-1 50.060121463667713 37.611890830365525 -11.433182172995952 #
End-of-ACIS-data 