500 0 8 0           
7 Unknown 11 ACIS 5.0 NT 24 Fri Mar 26 18:31:42 1999 
-1 9.9999999999999995e-007 1e-010 
body $-1 $8 $-1 $9 #
body $-1 $10 $-1 $11 #
body $-1 $12 $-1 $13 #
body $-1 $14 $-1 $15 #
body $-1 $16 $-1 $17 #
body $-1 $18 $-1 $19 #
body $-1 $20 $-1 $21 #
body $-1 $22 $-1 $23 #
lump $-1 $-1 $24 $0 #
transform $-1 1 0 0 0 1 0 0 0 1 73.912167729728083 45.737481886404964 15.779689481167971 1 rotate no_reflect no_shear #
lump $-1 $-1 $25 $1 #
transform $-1 1 0 0 0 1 0 0 0 1 73.912167729728083 45.737481886404964 15.779689481167971 1 rotate no_reflect no_shear #
lump $-1 $-1 $26 $2 #
transform $-1 1 0 0 0 1 0 0 0 1 73.912167729728083 45.737481886404964 15.779689481167971 1 rotate no_reflect no_shear #
lump $-1 $-1 $27 $3 #
transform $-1 1 0 0 0 1 0 0 0 1 73.912167729728083 45.737481886404964 15.779689481167971 1 rotate no_reflect no_shear #
lump $-1 $-1 $28 $4 #
transform $-1 1 0 0 0 1 0 0 0 1 73.912167729728083 45.737481886404964 15.779689481167971 1 rotate no_reflect no_shear #
lump $-1 $-1 $29 $5 #
transform $-1 1 0 0 0 1 0 0 0 1 73.912167729728083 45.737481886404964 15.779689481167971 1 rotate no_reflect no_shear #
lump $-1 $-1 $30 $6 #
transform $-1 1 0 0 0 1 0 0 0 1 73.912167729728083 45.737481886404964 15.779689481167971 1 rotate no_reflect no_shear #
lump $-1 $-1 $31 $7 #
transform $-1 1 0 0 0 1 0 0 0 1 73.912167729728083 45.737481886404964 15.779689481167971 1 rotate no_reflect no_shear #
shell $-1 $-1 $-1 $32 $-1 $8 #
shell $-1 $-1 $-1 $33 $-1 $10 #
shell $-1 $-1 $-1 $34 $-1 $12 #
shell $-1 $-1 $-1 $35 $-1 $14 #
shell $-1 $-1 $-1 $36 $-1 $16 #
shell $-1 $-1 $-1 $37 $-1 $18 #
shell $-1 $-1 $-1 $38 $-1 $20 #
shell $-1 $-1 $-1 $39 $-1 $22 #
face $-1 $40 $41 $24 $-1 $42 forward single #
face $-1 $43 $44 $25 $-1 $45 forward single #
face $-1 $46 $47 $26 $-1 $48 forward single #
face $-1 $49 $50 $27 $-1 $51 reversed single #
face $-1 $52 $53 $28 $-1 $54 forward single #
face $-1 $55 $56 $29 $-1 $57 forward single #
face $-1 $58 $59 $30 $-1 $60 reversed single #
face $-1 $61 $62 $31 $-1 $63 forward single #
face $-1 $64 $65 $24 $-1 $66 reversed single #
loop $-1 $-1 $67 $32 #
plane-surface $-1 0 0 15.779689481167971 0 0 1 1 0 0 forward_v I I I I #
face $-1 $68 $69 $25 $-1 $70 reversed single #
loop $-1 $-1 $71 $33 #
plane-surface $-1 -67.523148821992834 0 1.2758498277013572 0 0 1 1 0 0 forward_v I I I I #
face $-1 $72 $73 $26 $-1 $74 reversed single #
loop $-1 $-1 $75 $34 #
plane-surface $-1 64.404999927913479 0 2.7035397837049082 0 0 1 1 0 0 forward_v I I I I #
face $-1 $76 $77 $27 $-1 $78 reversed single #
loop $-1 $-1 $79 $35 #
plane-surface $-1 -29.460527658774978 -158.97749384784419 102.02357640805954 1 0 0 0 0.7660444514056185 -0.64278759981090561 forward_v I I I I #
face $-1 $80 $81 $28 $-1 $82 forward single #
loop $-1 $83 $84 $36 #
cone-surface $-1 -24.705811846187792 -39.97557729200004 9.6464514949719771 0 0.7660444514056185 -0.64278759981090561 2 0 0 1 I I 0 1 2 forward I I I I #
face $-1 $85 $86 $29 $-1 $87 forward single #
loop $-1 $88 $89 $37 #
cone-surface $-1 -17.57373812730701 -39.97557729200004 9.6464514949719771 0 0.7660444514056185 -0.64278759981090561 2 0 0 1 I I 0 1 2 forward I I I I #
face $-1 $90 $91 $30 $-1 $92 reversed single #
loop $-1 $-1 $93 $38 #
plane-surface $-1 54.897832126098848 76.672124970946186 176.8923927961622 -1 0 0 0 0.66913061440640931 0.74314481823134659 forward_v I I I I #
face $-1 $94 $95 $31 $-1 $96 forward single #
loop $-1 $97 $98 $39 #
cone-surface $-1 46.026080787929132 37.231175962926685 7.494047117227594 0 -0.66913061440640931 -0.74314481823134659 3 0 0 1 I I 0 1 3 forward I I I I #
face $-1 $99 $100 $24 $-1 $101 reversed single #
loop $-1 $-1 $102 $40 #
plane-surface $-1 0 0 -15.779689481167971 0 0 1 1 0 0 forward_v I I I I #
coedge $-1 $103 $104 $105 $106 forward $41 $-1 #
face $-1 $107 $108 $25 $-1 $109 reversed single #
loop $-1 $-1 $110 $43 #
plane-surface $-1 -67.523148821992834 0 -7.6019411078536692 0 0 1 1 0 0 forward_v I I I I #
coedge $-1 $111 $112 $113 $114 forward $44 $-1 #
face $-1 $115 $116 $26 $-1 $117 reversed single #
loop $-1 $-1 $118 $46 #
plane-surface $-1 64.404999927913479 0 -6.427750970047903 0 0 1 1 0 0 forward_v I I I I #
coedge $-1 $119 $120 $121 $122 reversed $47 $-1 #
face $-1 $123 $124 $27 $-1 $125 reversed single #
loop $-1 $-1 $126 $49 #
plane-surface $-1 -21.139774986747405 -45.737481886404964 7.0039266244335607 0 -0.7660444514056185 0.64278759981090561 1 0 0 forward_v I I I I #
coedge $-1 $127 $128 $129 $130 reversed $50 $-1 #
face $-1 $-1 $131 $28 $-1 $132 forward single #
loop $-1 $133 $134 $52 #
cone-surface $-1 -24.705811846187792 -37.129497837986285 7.2583073373322833 0 0.7660444514056185 -0.64278759981090561 1 0 0 1 I I -0.70710678118654779 0.70710678118654713 1 forward I I I I #
loop $-1 $-1 $135 $36 #
coedge $-1 $84 $84 $136 $137 reversed $53 $-1 #
face $-1 $-1 $138 $29 $-1 $139 forward single #
loop $-1 $140 $141 $55 #
cone-surface $-1 -17.57373812730701 -37.129497837986285 7.2583073373322833 0 0.7660444514056185 -0.64278759981090561 1 0 0 1 I I -0.70710678118654779 0.70710678118654713 1 forward I I I I #
loop $-1 $-1 $142 $37 #
coedge $-1 $89 $89 $143 $144 reversed $56 $-1 #
face $-1 $145 $146 $30 $-1 $147 reversed single #
loop $-1 $-1 $148 $58 #
plane-surface $-1 46.026080787929132 -22.241663439258872 67.037503890975046 0 0.66913061440640931 0.74314481823134659 1 0 0 forward_v I I I I #
coedge $-1 $149 $150 $151 $152 reversed $59 $-1 #
face $-1 $-1 $153 $31 $-1 $154 forward single #
loop $-1 $155 $156 $61 #
cone-surface $-1 46.026080787929132 33.246962317375903 3.0691296770888314 0 -0.66913061440640931 -0.74314481823134659 1.5 0 0 1 I I -0.70710678118654757 0.70710678118654757 1.5 forward I I I I #
loop $-1 $-1 $157 $39 #
coedge $-1 $98 $98 $158 $159 reversed $62 $-1 #
face $-1 $160 $161 $24 $-1 $162 reversed single #
loop $-1 $-1 $163 $64 #
plane-surface $-1 0 -45.737481886404964 0 0 1 0 0 0 1 forward_v I I I I #
coedge $-1 $164 $165 $166 $167 forward $65 $-1 #
coedge $-1 $168 $67 $169 $170 forward $41 $-1 #
coedge $-1 $67 $168 $171 $172 forward $41 $-1 #
coedge $-1 $173 $174 $67 $106 reversed $175 $-1 #
edge $-1 $176 -45.737481886404964 $177 45.737481886404964 $105 $178 forward 7 unknown #
face $-1 $179 $180 $25 $-1 $181 reversed single #
loop $-1 $-1 $182 $68 #
plane-surface $-1 -61.134129914257592 0 -3.163045640076156 -1 0 0 0 0 1 forward_v I I I I #
coedge $-1 $183 $184 $185 $186 forward $69 $-1 #
coedge $-1 $187 $71 $188 $189 reversed $44 $-1 #
coedge $-1 $71 $187 $190 $191 reversed $44 $-1 #
coedge $-1 $182 $192 $71 $114 reversed $108 $-1 #
edge $-1 $193 -45.737481886404964 $194 45.737481886404964 $113 $195 forward 7 unknown #
face $-1 $196 $197 $26 $-1 $198 reversed single #
loop $-1 $-1 $199 $72 #
plane-surface $-1 54.897832126098862 0 -1.8621055931714974 1 0 0 0 0 -1 forward_v I I I I #
coedge $-1 $200 $201 $202 $203 reversed $73 $-1 #
coedge $-1 $204 $75 $205 $206 reversed $47 $-1 #
coedge $-1 $75 $204 $207 $208 reversed $47 $-1 #
coedge $-1 $209 $210 $75 $122 forward $211 $-1 #
edge $-1 $212 -45.737481886404964 $213 45.737481886404964 $121 $214 forward 7 unknown #
face $-1 $215 $216 $27 $-1 $217 forward single #
loop $-1 $-1 $218 $76 #
plane-surface $-1 -12.819022314719831 -158.97749384784419 102.02357640805954 -1 0 0 0 -0.7660444514056185 0.64278759981090561 forward_v I I I I #
coedge $-1 $219 $220 $221 $222 reversed $77 $-1 #
coedge $-1 $128 $79 $223 $224 reversed $50 $-1 #
coedge $-1 $79 $127 $219 $225 reversed $50 $-1 #
coedge $-1 $221 $226 $79 $130 forward $227 $-1 #
edge $-1 $228 35.232098722861799 $229 44.007861579596209 $129 $230 forward 7 unknown #
loop $-1 $-1 $136 $80 #
plane-surface $-1 -21.139774986747405 -45.737481886404964 7.0039266244335607 0 -0.7660444514056185 0.64278759981090561 1 0 0 forward_v I I I I #
loop $-1 $-1 $231 $52 #
coedge $-1 $134 $134 $135 $232 reversed $81 $-1 #
coedge $-1 $135 $135 $134 $232 forward $83 $-1 #
coedge $-1 $136 $136 $84 $137 forward $131 $-1 #
edge $-1 $233 2.9640244486810384e-015 $233 6.2831853071796031 $136 $234 forward 7 unknown #
loop $-1 $-1 $143 $85 #
plane-surface $-1 -21.139774986747405 -45.737481886404964 7.0039266244335607 0 -0.7660444514056185 0.64278759981090561 1 0 0 forward_v I I I I #
loop $-1 $-1 $235 $55 #
coedge $-1 $141 $141 $142 $236 reversed $86 $-1 #
coedge $-1 $142 $142 $141 $236 forward $88 $-1 #
coedge $-1 $143 $143 $89 $144 forward $138 $-1 #
edge $-1 $237 2.9640244486810384e-015 $237 6.2831853071796031 $143 $238 forward 7 unknown #
face $-1 $239 $240 $30 $-1 $241 reversed single #
loop $-1 $-1 $242 $90 #
plane-surface $-1 37.154329449759416 76.672124970946186 176.8923927961622 1 0 0 0 -0.66913061440640931 -0.74314481823134659 forward_v I I I I #
coedge $-1 $243 $244 $245 $246 reversed $91 $-1 #
coedge $-1 $150 $93 $247 $248 reversed $59 $-1 #
coedge $-1 $93 $149 $243 $249 reversed $59 $-1 #
coedge $-1 $245 $250 $93 $152 forward $240 $-1 #
edge $-1 $251 72.666506916913136 $252 82.61739121921039 $151 $253 forward 7 unknown #
loop $-1 $-1 $158 $94 #
plane-surface $-1 46.026080787929132 -22.241663439258872 67.037503890975046 0 0.66913061440640931 0.74314481823134659 1 0 0 forward_v I I I I #
loop $-1 $-1 $254 $61 #
coedge $-1 $156 $156 $157 $255 reversed $95 $-1 #
coedge $-1 $157 $157 $156 $255 forward $97 $-1 #
coedge $-1 $158 $158 $98 $159 forward $153 $-1 #
edge $-1 $256 -1.2969763425779371e-016 $256 6.2831853071796004 $158 $257 forward 7 unknown #
face $-1 $258 $259 $24 $-1 $260 reversed single #
loop $-1 $-1 $261 $99 #
plane-surface $-1 -73.912167729728083 0 0 1 0 0 0 0 -1 forward_v I I I I #
coedge $-1 $262 $171 $263 $264 forward $100 $-1 #
coedge $-1 $265 $102 $262 $266 forward $65 $-1 #
coedge $-1 $102 $265 $267 $268 forward $65 $-1 #
coedge $-1 $174 $173 $102 $167 reversed $175 $-1 #
edge $-1 $269 -45.737481886404964 $270 45.737481886404964 $166 $271 forward 7 unknown #
coedge $-1 $104 $103 $272 $273 forward $41 $-1 #
coedge $-1 $274 $275 $103 $170 reversed $259 $-1 #
edge $-1 $177 -73.912167729728083 $276 73.912167729728083 $169 $277 forward 7 unknown #
coedge $-1 $163 $278 $104 $172 reversed $100 $-1 #
edge $-1 $279 -73.912167729728083 $176 73.912167729728083 $171 $280 forward 7 unknown #
coedge $-1 $166 $105 $278 $281 forward $175 $-1 #
coedge $-1 $105 $166 $274 $282 reversed $175 $-1 #
loop $-1 $-1 $173 $258 #
vertex $-1 $106 $283 #
vertex $-1 $106 $284 #
straight-curve $-1 73.912167729728083 0 15.779689481167971 0 1 0 I I #
face $-1 $285 $286 $25 $-1 $287 reversed single #
loop $-1 $-1 $288 $107 #
plane-surface $-1 0 -45.737481886404964 0 0 1 0 0 0 1 forward_v I I I I #
coedge $-1 $185 $113 $289 $290 reversed $108 $-1 #
coedge $-1 $291 $110 $288 $292 reversed $69 $-1 #
coedge $-1 $110 $291 $293 $294 reversed $69 $-1 #
coedge $-1 $192 $182 $110 $186 reversed $108 $-1 #
edge $-1 $295 -45.737481886404964 $296 45.737481886404964 $185 $297 forward 7 unknown #
coedge $-1 $112 $111 $298 $299 reversed $44 $-1 #
coedge $-1 $300 $301 $111 $189 forward $302 $-1 #
edge $-1 $303 -40.150593318731666 $194 -27.372555503261175 $188 $304 forward 7 unknown #
coedge $-1 $305 $289 $112 $191 forward $180 $-1 #
edge $-1 $193 27.372555503261175 $306 40.150593318731666 $190 $307 forward 7 unknown #
coedge $-1 $113 $185 $300 $308 reversed $108 $-1 #
vertex $-1 $191 $309 #
vertex $-1 $189 $310 #
straight-curve $-1 -61.134129914257592 0 1.2758498277013572 0 1 0 I I #
face $-1 $311 $312 $26 $-1 $313 reversed single #
loop $-1 $-1 $207 $115 #
plane-surface $-1 0 -45.737481886404964 0 0 1 0 0 0 1 forward_v I I I I #
coedge $-1 $314 $315 $316 $317 reversed $116 $-1 #
coedge $-1 $318 $118 $319 $320 reversed $73 $-1 #
coedge $-1 $118 $318 $321 $322 reversed $73 $-1 #
coedge $-1 $210 $209 $118 $203 forward $211 $-1 #
edge $-1 $323 -45.737481886404964 $324 45.737481886404964 $202 $325 forward 7 unknown #
coedge $-1 $120 $119 $315 $326 forward $47 $-1 #
coedge $-1 $327 $316 $119 $206 forward $312 $-1 #
edge $-1 $328 22.695332162142122 $212 41.709667765771357 $205 $329 forward 7 unknown #
coedge $-1 $330 $331 $120 $208 forward $197 $-1 #
edge $-1 $213 -41.709667765771357 $332 -22.695332162142122 $207 $333 forward 7 unknown #
coedge $-1 $202 $121 $331 $334 forward $211 $-1 #
coedge $-1 $121 $202 $327 $335 reversed $211 $-1 #
loop $-1 $-1 $121 $311 #
vertex $-1 $335 $336 #
vertex $-1 $334 $337 #
straight-curve $-1 73.912167729728083 0 2.7035397837049082 0 -1 0 I I #
face $-1 $-1 $227 $27 $-1 $338 reversed single #
loop $-1 $-1 $339 $123 #
plane-surface $-1 0 0 15.779689481167971 0 0 1 1 0 0 forward_v I I I I #
coedge $-1 $340 $341 $342 $343 reversed $124 $-1 #
coedge $-1 $344 $126 $128 $225 forward $77 $-1 #
coedge $-1 $126 $344 $340 $345 forward $77 $-1 #
coedge $-1 $342 $129 $126 $222 forward $227 $-1 #
edge $-1 $229 -18.890640165401276 $346 -2.2491348213461286 $221 $347 forward 7 unknown #
coedge $-1 $348 $349 $127 $224 forward $216 $-1 #
edge $-1 $350 -41.115004221110716 $228 -33.751265037517129 $223 $351 forward 7 unknown #
edge $-1 $229 0 $350 11.455944678708558 $128 $352 forward 7 unknown #
coedge $-1 $129 $342 $348 $353 reversed $227 $-1 #
loop $-1 $-1 $342 $215 #
vertex $-1 $353 $354 #
vertex $-1 $130 $355 #
straight-curve $-1 -29.460527658774978 -45.737481886404964 51.01178820402977 0 0 -1 I I #
coedge $-1 $231 $231 $-1 $356 reversed $133 $-1 #
edge $-1 $357 0 $357 6.2831853071796004 $134 $358 forward 7 unknown #
vertex $-1 $137 $359 #
ellipse-curve $-1 -24.705811846187792 -42.055612294608174 11.391808052800764 0 -0.7660444514056185 0.64278759981090561 2 0 0 1 I I #
coedge $-1 $235 $235 $-1 $360 reversed $140 $-1 #
edge $-1 $361 0 $361 6.2831853071796004 $141 $362 forward 7 unknown #
vertex $-1 $144 $363 #
ellipse-curve $-1 -17.57373812730701 -42.055612294608174 11.391808052800764 0 -0.7660444514056185 0.64278759981090561 2 0 0 1 I I #
face $-1 $-1 $364 $30 $-1 $365 forward single #
loop $-1 $-1 $151 $145 #
plane-surface $-1 0 45.737481886404964 0 0 -1 0 0 0 -1 forward_v I I I I #
coedge $-1 $366 $367 $368 $369 reversed $146 $-1 #
coedge $-1 $370 $148 $150 $249 forward $91 $-1 #
coedge $-1 $148 $370 $366 $371 forward $91 $-1 #
coedge $-1 $368 $151 $148 $246 forward $240 $-1 #
edge $-1 $252 -31.884791732134282 $372 -14.14128905579485 $245 $373 forward 7 unknown #
coedge $-1 $374 $375 $149 $248 forward $364 $-1 #
edge $-1 $376 -3.6501569981422648 $251 7.4014194009318715 $247 $377 forward 7 unknown #
edge $-1 $252 -91.4749637728099 $376 -76.603600711466868 $150 $378 forward 7 unknown #
coedge $-1 $151 $368 $374 $379 reversed $240 $-1 #
vertex $-1 $379 $380 #
vertex $-1 $152 $381 #
straight-curve $-1 54.897832126098848 45.737481886404964 88.446196398081099 0 0 -1 I I #
coedge $-1 $254 $254 $-1 $382 reversed $155 $-1 #
edge $-1 $383 0 $383 6.2831853071796004 $156 $384 forward 7 unknown #
vertex $-1 $159 $385 #
ellipse-curve $-1 46.026080787929132 40.211693686867875 10.80424733001936 0 0.66913061440640931 0.74314481823134659 3 0 0 1 I I #
face $-1 $-1 $175 $24 $-1 $386 reversed single #
loop $-1 $-1 $274 $160 #
plane-surface $-1 0 45.737481886404964 0 0 -1 0 0 0 -1 forward_v I I I I #
coedge $-1 $387 $272 $275 $388 forward $161 $-1 #
coedge $-1 $278 $163 $164 $266 reversed $100 $-1 #
coedge $-1 $272 $387 $163 $264 reversed $161 $-1 #
edge $-1 $279 -15.779689481167971 $389 15.779689481167971 $263 $390 forward 7 unknown #
coedge $-1 $165 $164 $387 $391 forward $65 $-1 #
edge $-1 $270 -73.912167729728083 $389 73.912167729728083 $262 $392 forward 7 unknown #
coedge $-1 $275 $274 $165 $268 reversed $259 $-1 #
edge $-1 $393 -73.912167729728083 $269 73.912167729728083 $267 $394 forward 7 unknown #
vertex $-1 $167 $395 #
vertex $-1 $281 $396 #
straight-curve $-1 73.912167729728083 0 -15.779689481167971 0 -1 0 I I #
coedge $-1 $261 $263 $168 $273 reversed $161 $-1 #
edge $-1 $276 -45.737481886404964 $279 45.737481886404964 $272 $397 forward 7 unknown #
coedge $-1 $267 $169 $174 $282 forward $259 $-1 #
coedge $-1 $169 $267 $261 $388 reversed $259 $-1 #
vertex $-1 $170 $398 #
straight-curve $-1 0 45.737481886404964 15.779689481167971 -1 0 0 I I #
coedge $-1 $171 $262 $173 $281 reversed $100 $-1 #
vertex $-1 $273 $399 #
straight-curve $-1 0 -45.737481886404964 15.779689481167971 1 0 0 I I #
edge $-1 $176 -15.779689481167971 $270 15.779689481167971 $173 $400 forward 7 unknown #
edge $-1 $177 -15.779689481167971 $269 15.779689481167971 $174 $401 forward 7 unknown #
point $-1 73.912167729728083 -45.737481886404964 15.779689481167971 #
point $-1 73.912167729728083 45.737481886404964 15.779689481167971 #
face $-1 $-1 $302 $25 $-1 $402 reversed single #
loop $-1 $-1 $403 $179 #
plane-surface $-1 -73.912167729728083 0 0 1 0 0 0 0 -1 forward_v I I I I #
coedge $-1 $289 $305 $183 $292 forward $180 $-1 #
coedge $-1 $190 $288 $182 $290 forward $180 $-1 #
edge $-1 $296 -6.0204182878155912 $193 2.8573726477394352 $289 $404 forward 7 unknown #
coedge $-1 $184 $183 $403 $405 reversed $69 $-1 #
edge $-1 $406 -40.150593318731666 $296 -27.372555503261175 $288 $407 forward 7 unknown #
coedge $-1 $301 $300 $184 $294 forward $302 $-1 #
edge $-1 $295 27.372555503261175 $408 40.150593318731666 $293 $409 forward 7 unknown #
vertex $-1 $294 $410 #
vertex $-1 $292 $411 #
straight-curve $-1 -61.134129914257592 0 -7.6019411078536692 0 -1 0 I I #
coedge $-1 $412 $413 $187 $299 forward $286 $-1 #
edge $-1 $306 -45.737481886404964 $303 45.737481886404964 $298 $414 forward 7 unknown #
coedge $-1 $293 $188 $192 $308 forward $302 $-1 #
coedge $-1 $188 $293 $412 $415 reversed $302 $-1 #
loop $-1 $-1 $293 $285 #
vertex $-1 $415 $416 #
straight-curve $-1 -33.761574410996417 45.737481886404964 1.2758498277013572 1 0 0 I I #
coedge $-1 $288 $190 $413 $417 forward $180 $-1 #
vertex $-1 $417 $418 #
straight-curve $-1 -33.761574410996417 -45.737481886404964 1.2758498277013572 -1 0 0 I I #
edge $-1 $194 -2.8573726477394352 $295 6.0204182878155912 $300 $419 forward 7 unknown #
point $-1 -61.134129914257592 -45.737481886404964 1.2758498277013572 #
point $-1 -61.134129914257592 45.737481886404964 1.2758498277013572 #
face $-1 $-1 $211 $26 $-1 $420 reversed single #
loop $-1 $-1 $205 $196 #
plane-surface $-1 0 45.737481886404964 0 0 -1 0 0 0 -1 forward_v I I I I #
coedge $-1 $421 $199 $318 $422 reversed $116 $-1 #
coedge $-1 $199 $421 $204 $326 reversed $116 $-1 #
coedge $-1 $205 $321 $199 $317 forward $312 $-1 #
edge $-1 $423 -5.4966981734621543 $328 3.6345925802906569 $316 $424 forward 7 unknown #
coedge $-1 $201 $200 $314 $422 forward $73 $-1 #
coedge $-1 $331 $330 $200 $320 forward $197 $-1 #
edge $-1 $425 22.695332162142122 $323 41.709667765771357 $319 $426 forward 7 unknown #
coedge $-1 $316 $327 $201 $322 forward $312 $-1 #
edge $-1 $324 -41.709667765771357 $423 -22.695332162142122 $321 $427 forward 7 unknown #
vertex $-1 $203 $428 #
vertex $-1 $203 $429 #
straight-curve $-1 73.912167729728083 0 -6.427750970047903 0 1 0 I I #
edge $-1 $328 -45.737481886404964 $332 45.737481886404964 $315 $430 forward 7 unknown #
coedge $-1 $321 $205 $210 $335 forward $312 $-1 #
vertex $-1 $206 $431 #
straight-curve $-1 32.20249996395674 45.737481886404964 2.7035397837049082 1 0 0 I I #
coedge $-1 $319 $207 $421 $432 forward $197 $-1 #
coedge $-1 $207 $319 $209 $334 reversed $197 $-1 #
vertex $-1 $208 $433 #
straight-curve $-1 32.20249996395674 -45.737481886404964 2.7035397837049082 -1 0 0 I I #
edge $-1 $213 -2.7035397837049082 $323 6.427750970047903 $209 $434 forward 7 unknown #
edge $-1 $212 -2.7035397837049082 $324 6.427750970047903 $210 $435 forward 7 unknown #
point $-1 73.912167729728097 45.737481886404964 2.7035397837049082 #
point $-1 73.912167729728097 -45.737481886404964 2.7035397837049082 #
plane-surface $-1 0 -45.737481886404964 0 0 1 0 0 0 1 forward_v I I I I #
coedge $-1 $349 $348 $341 $436 forward $216 $-1 #
coedge $-1 $341 $218 $220 $345 reversed $124 $-1 #
coedge $-1 $218 $340 $339 $436 reversed $124 $-1 #
coedge $-1 $226 $221 $218 $343 forward $227 $-1 #
edge $-1 $346 -44.007861579596209 $437 -35.232098722861799 $342 $438 forward 7 unknown #
coedge $-1 $220 $219 $349 $439 reversed $77 $-1 #
edge $-1 $440 -11.455944678708558 $346 0 $340 $441 forward 7 unknown #
vertex $-1 $222 $442 #
straight-curve $-1 -10.569887493373702 -45.737481886404964 7.0039266244335598 1 0 0 I I #
coedge $-1 $339 $223 $226 $353 forward $216 $-1 #
coedge $-1 $223 $339 $344 $439 forward $216 $-1 #
vertex $-1 $224 $443 #
straight-curve $-1 -29.460527658774978 -79.488746923922093 15.779689481167971 0 -1 0 I I #
straight-curve $-1 -29.460527658774978 -45.737481886404964 7.0039266244335607 0 0.64278759981090561 0.7660444514056185 I I #
edge $-1 $228 -29.460527658774978 $437 -12.819022314719831 $226 $444 forward 7 unknown #
point $-1 -29.460527658774978 -45.737481886404964 15.779689481167971 #
point $-1 -29.460527658774978 -45.737481886404964 7.0039266244335607 #
edge $-1 $445 1 $445 0 $231 $-1 forward 7 unknown #
vertex $-1 $232 $446 #
ellipse-curve $-1 -24.705811846187792 -37.895542289391905 7.9010949371431884 0 -0.7660444514056185 0.64278759981090561 2 0 0 1 I I #
point $-1 -22.705811846187792 -42.055612294608167 11.391808052800766 #
edge $-1 $447 1 $447 0 $235 $-1 forward 7 unknown #
vertex $-1 $236 $448 #
ellipse-curve $-1 -17.57373812730701 -37.895542289391905 7.9010949371431884 0 -0.7660444514056185 0.64278759981090561 2 0 0 1 I I #
point $-1 -15.57373812730701 -42.055612294608167 11.391808052800766 #
loop $-1 $-1 $247 $239 #
plane-surface $-1 0 0 15.779689481167971 0 0 1 1 0 0 forward_v I I I I #
coedge $-1 $367 $242 $244 $371 reversed $146 $-1 #
coedge $-1 $242 $366 $449 $450 reversed $146 $-1 #
coedge $-1 $250 $245 $242 $369 forward $240 $-1 #
edge $-1 $372 -82.61739121921039 $451 -72.666506916913136 $368 $452 forward 7 unknown #
coedge $-1 $244 $243 $375 $453 reversed $91 $-1 #
edge $-1 $454 76.603600711466868 $372 91.4749637728099 $366 $455 forward 7 unknown #
vertex $-1 $246 $456 #
straight-curve $-1 23.013040393964566 45.737481886404957 5.8288051788707236 -1 0 0 I I #
coedge $-1 $449 $247 $250 $379 forward $364 $-1 #
coedge $-1 $247 $449 $370 $453 forward $364 $-1 #
vertex $-1 $248 $457 #
straight-curve $-1 54.897832126098848 38.336062485473093 15.779689481167964 0 1 0 I I #
straight-curve $-1 54.897832126098848 -22.241663439258872 67.037503890975046 0 -0.74314481823134659 0.66913061440640931 I I #
edge $-1 $251 -54.897832126098848 $451 -37.154329449759416 $250 $458 forward 7 unknown #
point $-1 54.897832126098848 45.737481886404964 15.779689481167971 #
point $-1 54.897832126098848 45.737481886404964 5.8288051788707165 #
edge $-1 $459 1 $459 0 $254 $-1 forward 7 unknown #
vertex $-1 $255 $460 #
ellipse-curve $-1 46.026080787929132 34.250658238985515 4.1838469044358515 0 0.66913061440640931 0.74314481823134659 3 0 0 1 I I #
point $-1 49.026080787929132 40.211693686867854 10.804247330019336 #
plane-surface $-1 73.912167729728083 0 0 -1 0 0 0 0 1 forward_v I I I I #
coedge $-1 $263 $261 $265 $391 reversed $161 $-1 #
edge $-1 $276 -15.779689481167971 $393 15.779689481167971 $275 $461 forward 7 unknown #
vertex $-1 $391 $462 #
straight-curve $-1 -73.912167729728083 -45.737481886404964 0 0 0 -1 I I #
edge $-1 $389 -45.737481886404964 $393 45.737481886404964 $387 $463 forward 7 unknown #
straight-curve $-1 0 -45.737481886404964 -15.779689481167971 -1 0 0 I I #
vertex $-1 $268 $464 #
straight-curve $-1 0 45.737481886404964 -15.779689481167971 1 0 0 I I #
point $-1 73.912167729728083 45.737481886404964 -15.779689481167971 #
point $-1 73.912167729728083 -45.737481886404964 -15.779689481167971 #
straight-curve $-1 -73.912167729728083 0 15.779689481167971 0 -1 0 I I #
point $-1 -73.912167729728083 45.737481886404964 15.779689481167971 #
point $-1 -73.912167729728083 -45.737481886404964 15.779689481167971 #
straight-curve $-1 73.912167729728083 -45.737481886404964 0 0 0 -1 I I #
straight-curve $-1 73.912167729728083 45.737481886404964 0 0 0 -1 I I #
plane-surface $-1 0 45.737481886404964 0 0 -1 0 0 0 -1 forward_v I I I I #
coedge $-1 $413 $412 $291 $405 forward $286 $-1 #
straight-curve $-1 -61.134129914257592 -45.737481886404964 -1.581522820038078 0 0 1 I I #
edge $-1 $408 -45.737481886404964 $406 45.737481886404964 $403 $465 forward 7 unknown #
vertex $-1 $292 $466 #
straight-curve $-1 -33.761574410996417 -45.737481886404964 -7.6019411078536692 1 0 0 I I #
vertex $-1 $294 $467 #
straight-curve $-1 -33.761574410996417 45.737481886404964 -7.6019411078536692 -1 0 0 I I #
point $-1 -61.134129914257592 45.737481886404964 -7.6019411078536692 #
point $-1 -61.134129914257592 -45.737481886404964 -7.6019411078536692 #
coedge $-1 $403 $298 $301 $415 forward $286 $-1 #
coedge $-1 $298 $403 $305 $417 reversed $286 $-1 #
straight-curve $-1 -73.912167729728083 0 1.2758498277013572 0 1 0 I I #
edge $-1 $303 -1.2758498277013572 $408 7.6019411078536692 $301 $468 forward 7 unknown #
point $-1 -73.912167729728083 45.737481886404964 1.2758498277013572 #
edge $-1 $306 -1.2758498277013572 $406 7.6019411078536692 $413 $469 forward 7 unknown #
point $-1 -73.912167729728083 -45.737481886404964 1.2758498277013572 #
straight-curve $-1 -61.134129914257592 45.737481886404964 -1.581522820038078 0 0 -1 I I #
plane-surface $-1 73.912167729728083 0 0 -1 0 0 0 0 1 forward_v I I I I #
coedge $-1 $315 $314 $330 $432 reversed $116 $-1 #
edge $-1 $425 -45.737481886404964 $423 45.737481886404964 $314 $470 forward 7 unknown #
vertex $-1 $322 $471 #
straight-curve $-1 54.897832126098862 45.737481886404964 -0.93105279658574869 0 0 1 I I #
vertex $-1 $320 $472 #
straight-curve $-1 32.20249996395674 -45.737481886404964 -6.427750970047903 1 0 0 I I #
straight-curve $-1 32.20249996395674 45.737481886404964 -6.427750970047903 -1 0 0 I I #
point $-1 73.912167729728097 -45.737481886404964 -6.427750970047903 #
point $-1 73.912167729728097 45.737481886404964 -6.427750970047903 #
straight-curve $-1 54.897832126098862 0 2.7035397837049082 0 -1 0 I I #
point $-1 54.897832126098862 45.737481886404964 2.7035397837049082 #
edge $-1 $332 -3.6345925802906569 $425 5.4966981734621543 $330 $473 forward 7 unknown #
point $-1 54.897832126098862 -45.737481886404964 2.7035397837049082 #
straight-curve $-1 73.912167729728083 -45.737481886404964 0 0 0 -1 I I #
straight-curve $-1 73.912167729728083 45.737481886404964 0 0 0 -1 I I #
edge $-1 $437 33.751265037517129 $440 41.115004221110716 $339 $474 forward 7 unknown #
vertex $-1 $436 $475 #
straight-curve $-1 -12.819022314719831 -45.737481886404964 51.01178820402977 0 0 1 I I #
edge $-1 $440 2.2491348213461286 $350 18.890640165401276 $349 $476 forward 7 unknown #
vertex $-1 $439 $477 #
straight-curve $-1 -12.819022314719831 -45.737481886404964 7.0039266244335607 0 -0.64278759981090561 -0.7660444514056185 I I #
point $-1 -12.819022314719831 -45.737481886404964 7.0039266244335607 #
point $-1 -29.460527658774978 -38.373742702811377 15.779689481167971 #
straight-curve $-1 0 -45.737481886404964 15.779689481167971 1 0 0 I I #
vertex $-1 $356 $478 #
point $-1 -22.705811846187792 -37.895542289391905 7.9010949371431884 #
vertex $-1 $360 $479 #
point $-1 -15.57373812730701 -37.895542289391905 7.9010949371431884 #
coedge $-1 $375 $374 $367 $450 forward $364 $-1 #
edge $-1 $451 -7.4014194009318715 $454 3.6501569981422648 $449 $480 forward 7 unknown #
vertex $-1 $450 $481 #
straight-curve $-1 37.154329449759416 45.737481886404964 88.446196398081099 0 0 1 I I #
edge $-1 $454 14.14128905579485 $376 31.884791732134282 $375 $482 forward 7 unknown #
vertex $-1 $453 $483 #
straight-curve $-1 37.154329449759416 -22.241663439258872 67.037503890975046 0 0.74314481823134659 -0.66913061440640931 I I #
point $-1 37.154329449759416 45.737481886404964 5.8288051788707165 #
point $-1 54.897832126098848 34.685905487330828 15.779689481167971 #
straight-curve $-1 0 45.737481886404964 15.779689481167971 -1 0 0 I I #
vertex $-1 $382 $484 #
point $-1 49.026080787929132 34.250658238985515 4.1838469044358515 #
straight-curve $-1 -73.912167729728083 45.737481886404964 0 0 0 -1 I I #
point $-1 -73.912167729728083 -45.737481886404964 -15.779689481167971 #
straight-curve $-1 -73.912167729728083 0 -15.779689481167971 0 1 0 I I #
point $-1 -73.912167729728083 45.737481886404964 -15.779689481167971 #
straight-curve $-1 -73.912167729728083 0 -7.6019411078536692 0 -1 0 I I #
point $-1 -73.912167729728083 -45.737481886404964 -7.6019411078536692 #
point $-1 -73.912167729728083 45.737481886404964 -7.6019411078536692 #
straight-curve $-1 -73.912167729728083 45.737481886404964 0 0 0 -1 I I #
straight-curve $-1 -73.912167729728083 -45.737481886404964 0 0 0 -1 I I #
straight-curve $-1 54.897832126098862 0 -6.427750970047903 0 1 0 I I #
point $-1 54.897832126098862 45.737481886404964 -6.427750970047903 #
point $-1 54.897832126098862 -45.737481886404964 -6.427750970047903 #
straight-curve $-1 54.897832126098862 -45.737481886404964 -0.93105279658574869 0 0 -1 I I #
straight-curve $-1 -12.819022314719831 -79.488746923922093 15.779689481167971 0 1 0 I I #
point $-1 -12.819022314719831 -45.737481886404964 15.779689481167971 #
straight-curve $-1 -10.569887493373702 -38.37374270281137 15.779689481167971 -1 0 0 I I #
point $-1 -12.819022314719831 -38.373742702811377 15.779689481167971 #
point $-1 -24.705811846187792 -36.363453386580666 6.6155197375213781 #
point $-1 -17.57373812730701 -36.363453386580666 6.6155197375213781 #
straight-curve $-1 37.154329449759416 38.336062485473093 15.779689481167964 0 -1 0 I I #
point $-1 37.154329449759416 45.737481886404964 15.779689481167971 #
straight-curve $-1 23.013040393964566 34.685905487330828 15.779689481167964 1 0 0 I I #
point $-1 37.154329449759416 34.685905487330828 15.779689481167971 #
point $-1 46.026080787929132 32.243266395766291 1.9544124497418116 #
End-of-ACIS-data 