500 0 4 0           
7 Unknown 11 ACIS 5.0 NT 24 Fri Mar 26 02:49:05 1999 
-1 9.9999999999999995e-007 1e-010 
body $-1 $4 $-1 $5 #
body $-1 $6 $-1 $7 #
body $-1 $8 $-1 $9 #
body $-1 $10 $-1 $11 #
lump $-1 $-1 $12 $0 #
transform $-1 1 0 0 0 1 0 0 0 1 41.110873744926295 23.84837181404869 5.6439278563561501 1 rotate no_reflect no_shear #
lump $-1 $-1 $13 $1 #
transform $-1 1 0 0 0 1 0 0 0 1 41.110873744926295 23.84837181404869 5.6439278563561501 1 rotate no_reflect no_shear #
lump $-1 $-1 $14 $2 #
transform $-1 1 0 0 0 1 0 0 0 1 41.110873744926295 23.84837181404869 5.6439278563561501 1 rotate no_reflect no_shear #
lump $-1 $-1 $15 $3 #
transform $-1 1 0 0 0 1 0 0 0 1 41.110873744926295 23.84837181404869 5.6439278563561501 1 rotate no_reflect no_shear #
shell $-1 $-1 $-1 $16 $-1 $4 #
shell $-1 $-1 $-1 $17 $-1 $6 #
shell $-1 $-1 $-1 $18 $-1 $8 #
shell $-1 $-1 $-1 $19 $-1 $10 #
face $-1 $20 $21 $12 $-1 $22 forward single #
face $-1 $23 $24 $13 $-1 $25 reversed single #
face $-1 $26 $27 $14 $-1 $28 forward single #
face $-1 $29 $30 $15 $-1 $31 reversed single #
face $-1 $32 $33 $12 $-1 $34 reversed single #
loop $-1 $-1 $35 $16 #
plane-surface $-1 0 0 5.6439278563561501 0 0 1 1 0 0 forward_v I I I I #
face $-1 $36 $37 $13 $-1 $38 forward single #
loop $-1 $-1 $39 $17 #
plane-surface $-1 0 -20.953195460706755 -2.6439278563561501 0 0 1 1 0 0 forward_v I I I I #
face $-1 $40 $41 $14 $-1 $42 forward single #
loop $-1 $-1 $43 $18 #
plane-surface $-1 -25.897830484733745 54.610034172925182 90.119041233587637 -1 0 0 0 0.75470958851134928 0.65605901945558964 forward_v I I I I #
face $-1 $44 $45 $15 $-1 $46 reversed single #
loop $-1 $47 $48 $19 #
cone-surface $-1 -33.50435211483002 19.522711303712459 1.216101794660561 0 -0.75470958851134928 -0.65605901945558964 1.5 0 0 1 I I 0 1 1.5 forward I I I I #
face $-1 $49 $50 $12 $-1 $51 reversed single #
loop $-1 $-1 $52 $20 #
plane-surface $-1 0 0 -5.6439278563561501 0 0 1 1 0 0 forward_v I I I I #
coedge $-1 $53 $54 $55 $56 forward $21 $-1 #
face $-1 $57 $58 $13 $-1 $59 reversed single #
loop $-1 $-1 $60 $23 #
plane-surface $-1 0 -18.058019107364821 -4.1439278563561501 0 -1 0 0 0 -1 forward_v I I I I #
coedge $-1 $61 $62 $63 $64 reversed $24 $-1 #
face $-1 $65 $66 $14 $-1 $67 reversed single #
loop $-1 $-1 $68 $26 #
plane-surface $-1 -33.50435211483002 -7.4435070418255336 36.176722197469857 0 0.75470958851134928 0.65605901945558964 1 0 0 forward_v I I I I #
coedge $-1 $69 $70 $71 $72 reversed $27 $-1 #
face $-1 $73 $74 $15 $-1 $75 forward single #
loop $-1 $76 $77 $29 #
cone-surface $-1 -33.50435211483002 17.006081773950598 -0.97157082373723824 0 -0.75470958851134928 -0.65605901945558964 0.75 0 0 1 I I -0.70710678118654757 0.70710678118654757 0.75 forward I I I I #
loop $-1 $-1 $78 $19 #
coedge $-1 $48 $48 $79 $80 reversed $30 $-1 #
face $-1 $81 $82 $12 $-1 $83 reversed single #
loop $-1 $-1 $84 $32 #
plane-surface $-1 0 -23.84837181404869 0 0 1 0 0 0 1 forward_v I I I I #
coedge $-1 $85 $86 $87 $88 forward $33 $-1 #
coedge $-1 $89 $35 $90 $91 forward $21 $-1 #
coedge $-1 $35 $89 $92 $93 forward $21 $-1 #
coedge $-1 $94 $95 $35 $56 reversed $96 $-1 #
edge $-1 $97 -23.84837181404869 $98 23.84837181404869 $55 $99 forward 7 unknown #
face $-1 $100 $101 $13 $-1 $102 reversed single #
loop $-1 $-1 $103 $36 #
plane-surface $-1 0 -23.84837181404869 0 0 1 0 0 0 1 forward_v I I I I #
coedge $-1 $104 $105 $106 $107 reversed $37 $-1 #
coedge $-1 $108 $39 $103 $109 reversed $24 $-1 #
coedge $-1 $39 $108 $104 $110 reversed $24 $-1 #
coedge $-1 $106 $111 $39 $64 forward $112 $-1 #
edge $-1 $113 -13.371774083695312 $114 -7.5814213770114431 $63 $115 forward 7 unknown #
face $-1 $116 $117 $14 $-1 $118 forward single #
loop $-1 $-1 $119 $40 #
plane-surface $-1 0 23.84837181404869 0 0 -1 0 0 0 -1 forward_v I I I I #
coedge $-1 $120 $121 $119 $122 reversed $41 $-1 #
coedge $-1 $70 $43 $121 $123 forward $27 $-1 #
coedge $-1 $43 $69 $124 $125 reversed $27 $-1 #
coedge $-1 $126 $119 $43 $72 forward $66 $-1 #
edge $-1 $127 -44.879988176216671 $128 -39.415592760437669 $71 $129 forward 7 unknown #
face $-1 $130 $131 $15 $-1 $132 forward single #
loop $-1 $-1 $133 $44 #
plane-surface $-1 -25.897830484733745 54.610034172925182 90.119041233587637 -1 0 0 0 0.75470958851134928 0.65605901945558964 forward_v I I I I #
loop $-1 $-1 $134 $29 #
coedge $-1 $77 $77 $78 $135 forward $45 $-1 #
coedge $-1 $78 $78 $77 $135 reversed $47 $-1 #
coedge $-1 $79 $79 $48 $80 forward $131 $-1 #
edge $-1 $136 -6.2946652624966354e-016 $136 6.2831853071795996 $79 $137 forward 7 unknown #
face $-1 $138 $139 $12 $-1 $140 reversed single #
loop $-1 $-1 $141 $49 #
plane-surface $-1 -41.110873744926295 0 0 1 0 0 0 0 -1 forward_v I I I I #
coedge $-1 $142 $92 $143 $144 forward $50 $-1 #
coedge $-1 $145 $52 $142 $146 forward $33 $-1 #
coedge $-1 $52 $145 $147 $148 forward $33 $-1 #
coedge $-1 $95 $94 $52 $88 reversed $96 $-1 #
edge $-1 $149 -23.84837181404869 $150 23.84837181404869 $87 $151 forward 7 unknown #
coedge $-1 $54 $53 $152 $153 forward $21 $-1 #
coedge $-1 $154 $155 $53 $91 reversed $139 $-1 #
edge $-1 $98 -41.110873744926295 $156 41.110873744926295 $90 $157 forward 7 unknown #
coedge $-1 $84 $158 $54 $93 reversed $50 $-1 #
edge $-1 $159 -41.110873744926295 $97 41.110873744926295 $92 $160 forward 7 unknown #
coedge $-1 $87 $55 $158 $161 forward $96 $-1 #
coedge $-1 $55 $87 $154 $162 reversed $96 $-1 #
loop $-1 $-1 $94 $138 #
vertex $-1 $56 $163 #
vertex $-1 $56 $164 #
straight-curve $-1 41.110873744926295 0 5.6439278563561501 0 1 0 I I #
face $-1 $165 $166 $13 $-1 $167 forward single #
loop $-1 $-1 $168 $57 #
plane-surface $-1 0 0 -5.6439278563561501 0 0 1 1 0 0 forward_v I I I I #
coedge $-1 $169 $170 $61 $109 forward $58 $-1 #
coedge $-1 $171 $60 $62 $110 forward $37 $-1 #
coedge $-1 $60 $171 $168 $172 reversed $37 $-1 #
coedge $-1 $173 $63 $60 $107 forward $112 $-1 #
edge $-1 $114 0.57196392817807507 $174 3.5719639281780751 $106 $175 forward 7 unknown #
coedge $-1 $62 $61 $176 $177 reversed $24 $-1 #
edge $-1 $178 -41.110873744926295 $113 41.110873744926295 $103 $179 forward 7 unknown #
edge $-1 $114 -41.110873744926295 $180 41.110873744926295 $104 $181 forward 7 unknown #
coedge $-1 $63 $182 $169 $183 forward $112 $-1 #
loop $-1 $-1 $106 $184 #
vertex $-1 $109 $185 #
vertex $-1 $64 $186 #
straight-curve $-1 41.110873744926295 -10.476597730353378 -2.6439278563561501 0 1 0 I I #
face $-1 $187 $188 $14 $-1 $189 reversed single #
loop $-1 $-1 $124 $65 #
plane-surface $-1 0 0 5.6439278563561501 0 0 1 1 0 0 forward_v I I I I #
coedge $-1 $71 $190 $68 $122 forward $66 $-1 #
coedge $-1 $191 $68 $192 $193 reversed $41 $-1 #
coedge $-1 $68 $191 $69 $123 reversed $41 $-1 #
edge $-1 $194 -24.358697687511285 $127 -9.1456544273187355 $119 $195 forward 7 unknown #
edge $-1 $127 -47.696743628097408 $196 -40.456348780911988 $69 $197 forward 7 unknown #
coedge $-1 $198 $199 $70 $125 forward $117 $-1 #
edge $-1 $128 3.4566452724139012 $196 8.2067716163296716 $124 $200 forward 7 unknown #
coedge $-1 $201 $71 $199 $202 reversed $66 $-1 #
vertex $-1 $122 $203 #
vertex $-1 $125 $204 #
straight-curve $-1 -25.897830484733745 23.84837181404869 45.059520616793819 0 0 1 I I #
face $-1 $205 $206 $15 $-1 $207 reversed single #
loop $-1 $208 $79 $73 #
plane-surface $-1 -33.50435211483002 -7.4435070418255336 36.176722197469857 0 0.75470958851134928 0.65605901945558964 1 0 0 forward_v I I I I #
coedge $-1 $209 $210 $211 $212 reversed $74 $-1 #
coedge $-1 $134 $134 $-1 $213 forward $76 $-1 #
edge $-1 $214 0 $214 6.2831853071796004 $77 $215 forward 7 unknown #
vertex $-1 $80 $216 #
ellipse-curve $-1 -33.50435211483002 21.473308642090796 2.9117301484666571 0 -0.75470958851134928 -0.65605901945558964 1.5 0 0 1 I I #
face $-1 $-1 $96 $12 $-1 $217 reversed single #
loop $-1 $-1 $154 $81 #
plane-surface $-1 0 23.84837181404869 0 0 -1 0 0 0 -1 forward_v I I I I #
coedge $-1 $218 $152 $155 $219 forward $82 $-1 #
coedge $-1 $158 $84 $85 $146 reversed $50 $-1 #
coedge $-1 $152 $218 $84 $144 reversed $82 $-1 #
edge $-1 $159 -5.6439278563561501 $220 5.6439278563561501 $143 $221 forward 7 unknown #
coedge $-1 $86 $85 $218 $222 forward $33 $-1 #
edge $-1 $150 -41.110873744926295 $220 41.110873744926295 $142 $223 forward 7 unknown #
coedge $-1 $155 $154 $86 $148 reversed $139 $-1 #
edge $-1 $224 -41.110873744926295 $149 41.110873744926295 $147 $225 forward 7 unknown #
vertex $-1 $88 $226 #
vertex $-1 $161 $227 #
straight-curve $-1 41.110873744926295 0 -5.6439278563561501 0 -1 0 I I #
coedge $-1 $141 $143 $89 $153 reversed $82 $-1 #
edge $-1 $156 -23.84837181404869 $159 23.84837181404869 $152 $228 forward 7 unknown #
coedge $-1 $147 $90 $95 $162 forward $139 $-1 #
coedge $-1 $90 $147 $141 $219 reversed $139 $-1 #
vertex $-1 $91 $229 #
straight-curve $-1 0 23.84837181404869 5.6439278563561501 -1 0 0 I I #
coedge $-1 $92 $142 $94 $161 reversed $50 $-1 #
vertex $-1 $153 $230 #
straight-curve $-1 0 -23.84837181404869 5.6439278563561501 1 0 0 I I #
edge $-1 $97 -5.6439278563561501 $150 5.6439278563561501 $94 $231 forward 7 unknown #
edge $-1 $98 -5.6439278563561501 $149 5.6439278563561501 $95 $232 forward 7 unknown #
point $-1 41.110873744926295 -23.84837181404869 5.6439278563561501 #
point $-1 41.110873744926295 23.84837181404869 5.6439278563561501 #
face $-1 $233 $234 $13 $-1 $235 reversed single #
loop $-1 $-1 $236 $100 #
plane-surface $-1 0 0 5.6439278563561501 0 0 1 1 0 0 forward_v I I I I #
coedge $-1 $237 $238 $105 $172 forward $101 $-1 #
coedge $-1 $239 $103 $111 $183 reversed $58 $-1 #
coedge $-1 $103 $239 $240 $241 forward $58 $-1 #
coedge $-1 $105 $104 $242 $243 reversed $37 $-1 #
edge $-1 $174 -41.110873744926295 $244 41.110873744926295 $168 $245 forward 7 unknown #
coedge $-1 $246 $106 $238 $247 reversed $112 $-1 #
vertex $-1 $172 $248 #
straight-curve $-1 41.110873744926295 -18.058019107364821 -2.0719639281780751 0 0 -1 I I #
coedge $-1 $240 $242 $108 $177 forward $234 $-1 #
edge $-1 $180 7.5814213770114431 $178 13.371774083695312 $176 $249 forward 7 unknown #
vertex $-1 $109 $250 #
straight-curve $-1 0 -23.84837181404869 -2.6439278563561501 1 0 0 I I #
vertex $-1 $177 $251 #
straight-curve $-1 0 -18.058019107364821 -2.6439278563561501 -1 0 0 I I #
coedge $-1 $111 $246 $236 $252 reversed $112 $-1 #
edge $-1 $253 -5.6439278563561501 $113 2.6439278563561501 $111 $254 forward 7 unknown #
face $-1 $-1 $112 $13 $-1 $255 reversed single #
point $-1 41.110873744926295 -23.84837181404869 -2.6439278563561501 #
point $-1 41.110873744926295 -18.058019107364821 -2.6439278563561501 #
face $-1 $256 $257 $14 $-1 $258 forward single #
loop $-1 $-1 $259 $116 #
plane-surface $-1 0 -20.953195460706755 -2.6439278563561501 0 0 1 1 0 0 forward_v I I I I #
coedge $-1 $119 $260 $261 $262 reversed $66 $-1 #
coedge $-1 $121 $120 $198 $263 reversed $41 $-1 #
coedge $-1 $261 $264 $120 $193 forward $265 $-1 #
edge $-1 $266 24.363199253655626 $194 31.60359410084105 $192 $267 forward 7 unknown #
vertex $-1 $262 $268 #
straight-curve $-1 -16.75217605741501 23.84837181404869 0.17953244057714457 1 0 0 I I #
vertex $-1 $263 $269 #
straight-curve $-1 -25.897830484733745 -7.4435070418255336 36.176722197469857 0 -0.65605901945558964 0.75470958851134928 I I #
coedge $-1 $270 $124 $191 $263 forward $117 $-1 #
coedge $-1 $124 $271 $126 $202 forward $117 $-1 #
straight-curve $-1 -25.897830484733745 27.305017086462591 5.6439278563561501 0 -1 0 I I #
coedge $-1 $260 $126 $272 $273 forward $66 $-1 #
edge $-1 $274 -41.110873744926295 $128 25.897830484733745 $126 $275 forward 7 unknown #
point $-1 -25.897830484733745 23.84837181404869 0.17953244057714812 #
point $-1 -25.897830484733745 23.84837181404869 5.6439278563561501 #
face $-1 $276 $277 $15 $-1 $278 forward single #
loop $-1 $-1 $279 $130 #
plane-surface $-1 0 23.84837181404869 0 0 -1 0 0 0 -1 forward_v I I I I #
loop $-1 $-1 $280 $73 #
coedge $-1 $210 $133 $281 $282 forward $74 $-1 #
coedge $-1 $133 $209 $283 $284 reversed $74 $-1 #
coedge $-1 $285 $279 $133 $212 forward $206 $-1 #
edge $-1 $286 -44.879988176216671 $287 -39.415592760437669 $211 $288 forward 7 unknown #
edge $-1 $289 1 $289 0 $134 $-1 forward 7 unknown #
vertex $-1 $135 $290 #
ellipse-curve $-1 -33.50435211483002 17.572113965334111 -0.47952655914554598 0 0.75470958851134928 0.65605901945558964 1.5 0 0 1 I I #
point $-1 -32.00435211483002 21.47330864209081 2.9117301484666682 #
plane-surface $-1 41.110873744926295 0 0 -1 0 0 0 0 1 forward_v I I I I #
coedge $-1 $143 $141 $145 $222 reversed $82 $-1 #
edge $-1 $156 -5.6439278563561501 $224 5.6439278563561501 $155 $291 forward 7 unknown #
vertex $-1 $222 $292 #
straight-curve $-1 -41.110873744926295 -23.84837181404869 0 0 0 -1 I I #
edge $-1 $220 -23.84837181404869 $224 23.84837181404869 $218 $293 forward 7 unknown #
straight-curve $-1 0 -23.84837181404869 -5.6439278563561501 -1 0 0 I I #
vertex $-1 $148 $294 #
straight-curve $-1 0 23.84837181404869 -5.6439278563561501 1 0 0 I I #
point $-1 41.110873744926295 23.84837181404869 -5.6439278563561501 #
point $-1 41.110873744926295 -23.84837181404869 -5.6439278563561501 #
straight-curve $-1 -41.110873744926295 0 5.6439278563561501 0 -1 0 I I #
point $-1 -41.110873744926295 23.84837181404869 5.6439278563561501 #
point $-1 -41.110873744926295 -23.84837181404869 5.6439278563561501 #
straight-curve $-1 41.110873744926295 -23.84837181404869 0 0 0 -1 I I #
straight-curve $-1 41.110873744926295 23.84837181404869 0 0 0 -1 I I #
face $-1 $184 $295 $13 $-1 $296 reversed single #
loop $-1 $-1 $176 $165 #
plane-surface $-1 -41.110873744926295 0 0 1 0 0 0 0 -1 forward_v I I I I #
coedge $-1 $297 $298 $182 $252 forward $166 $-1 #
coedge $-1 $299 $168 $300 $301 forward $101 $-1 #
coedge $-1 $168 $299 $173 $247 forward $101 $-1 #
coedge $-1 $170 $169 $298 $302 reversed $58 $-1 #
coedge $-1 $303 $176 $170 $241 reversed $234 $-1 #
edge $-1 $304 -5.6439278563561501 $178 2.6439278563561501 $240 $305 forward 7 unknown #
coedge $-1 $176 $300 $171 $243 forward $234 $-1 #
edge $-1 $244 -3.5719639281780751 $180 -0.57196392817807507 $242 $306 forward 7 unknown #
vertex $-1 $301 $307 #
straight-curve $-1 0 -18.058019107364821 -5.6439278563561501 -1 0 0 I I #
coedge $-1 $182 $173 $308 $309 reversed $112 $-1 #
edge $-1 $310 -23.84837181404869 $174 18.058019107364821 $173 $311 forward 7 unknown #
point $-1 41.110873744926295 -18.058019107364821 -5.6439278563561501 #
straight-curve $-1 -41.110873744926295 -10.476597730353378 -2.6439278563561501 0 -1 0 I I #
point $-1 -41.110873744926295 -23.84837181404869 -2.6439278563561501 #
point $-1 -41.110873744926295 -18.058019107364821 -2.6439278563561501 #
edge $-1 $253 -23.84837181404869 $312 23.84837181404869 $182 $313 forward 7 unknown #
vertex $-1 $252 $314 #
straight-curve $-1 41.110873744926295 -23.84837181404869 0 0 0 -1 I I #
plane-surface $-1 41.110873744926295 0 0 -1 0 0 0 0 1 forward_v I I I I #
face $-1 $315 $316 $14 $-1 $317 reversed single #
loop $-1 $-1 $318 $187 #
plane-surface $-1 0 -18.058019107364821 -4.1439278563561501 0 -1 0 0 0 -1 forward_v I I I I #
coedge $-1 $319 $320 $321 $322 reversed $188 $-1 #
coedge $-1 $190 $201 $323 $324 reversed $66 $-1 #
coedge $-1 $325 $192 $190 $262 forward $265 $-1 #
edge $-1 $194 -0.17953244057714562 $326 5.6439278563561501 $190 $327 forward 7 unknown #
edge $-1 $196 9.1456544273187355 $266 24.358697687511285 $198 $328 forward 7 unknown #
coedge $-1 $192 $329 $270 $330 reversed $265 $-1 #
loop $-1 $-1 $192 $331 #
vertex $-1 $330 $332 #
straight-curve $-1 -41.110873744926295 3.1145488569784563 24.031067939902599 0 0.65605901945558975 -0.75470958851134939 I I #
point $-1 -41.110873744926295 23.84837181404869 0.17953244057714562 #
point $-1 -25.897830484733745 19.09824547013292 5.6439278563561501 #
coedge $-1 $333 $198 $264 $330 forward $117 $-1 #
coedge $-1 $199 $333 $334 $335 forward $117 $-1 #
coedge $-1 $334 $336 $201 $273 reversed $337 $-1 #
edge $-1 $274 -5.6439278563561501 $338 5.6439278563561501 $272 $339 forward 7 unknown #
vertex $-1 $335 $340 #
straight-curve $-1 0 23.84837181404869 5.6439278563561501 -1 0 0 I I #
face $-1 $341 $342 $15 $-1 $343 reversed single #
loop $-1 $-1 $283 $205 #
plane-surface $-1 0 0 5.6439278563561501 0 0 1 1 0 0 forward_v I I I I #
coedge $-1 $211 $344 $280 $345 forward $206 $-1 #
coedge $-1 $346 $281 $279 $345 reversed $208 $-1 #
coedge $-1 $280 $347 $209 $282 reversed $208 $-1 #
edge $-1 $286 -47.696743628097408 $348 -40.456348780911988 $209 $349 forward 7 unknown #
coedge $-1 $350 $351 $210 $284 forward $277 $-1 #
edge $-1 $287 3.4566452724139012 $348 8.2067716163296716 $283 $352 forward 7 unknown #
coedge $-1 $353 $211 $351 $354 reversed $206 $-1 #
vertex $-1 $345 $355 #
vertex $-1 $284 $356 #
straight-curve $-1 -25.897830484733745 23.84837181404869 45.059520616793819 0 0 1 I I #
vertex $-1 $213 $357 #
point $-1 -32.00435211483002 17.572113965334111 -0.47952655914554598 #
straight-curve $-1 -41.110873744926295 23.84837181404869 0 0 0 -1 I I #
point $-1 -41.110873744926295 -23.84837181404869 -5.6439278563561501 #
straight-curve $-1 -41.110873744926295 0 -5.6439278563561501 0 1 0 I I #
point $-1 -41.110873744926295 23.84837181404869 -5.6439278563561501 #
loop $-1 $-1 $308 $233 #
plane-surface $-1 0 23.84837181404869 0 0 -1 0 0 0 -1 forward_v I I I I #
coedge $-1 $358 $236 $359 $360 forward $166 $-1 #
coedge $-1 $236 $358 $239 $302 forward $166 $-1 #
coedge $-1 $238 $237 $361 $362 forward $101 $-1 #
coedge $-1 $242 $363 $237 $301 reversed $234 $-1 #
edge $-1 $244 -18.058019107364821 $364 23.84837181404869 $300 $365 forward 7 unknown #
edge $-1 $304 -41.110873744926295 $253 41.110873744926295 $239 $366 forward 7 unknown #
coedge $-1 $363 $240 $358 $367 reversed $234 $-1 #
vertex $-1 $367 $368 #
straight-curve $-1 -41.110873744926295 -23.84837181404869 0 0 0 -1 I I #
straight-curve $-1 -41.110873744926295 -18.058019107364821 -2.0719639281780751 0 0 1 I I #
point $-1 -41.110873744926295 -18.058019107364821 -5.6439278563561501 #
coedge $-1 $361 $359 $246 $309 forward $295 $-1 #
edge $-1 $312 -5.6439278563561501 $310 5.6439278563561501 $246 $369 forward 7 unknown #
vertex $-1 $247 $370 #
straight-curve $-1 41.110873744926295 0 -5.6439278563561501 0 -1 0 I I #
vertex $-1 $252 $371 #
straight-curve $-1 41.110873744926295 0 5.6439278563561501 0 1 0 I I #
point $-1 41.110873744926295 -23.84837181404869 5.6439278563561501 #
face $-1 $331 $372 $14 $-1 $373 reversed single #
loop $-1 $-1 $374 $256 #
plane-surface $-1 0 -23.84837181404869 0 0 1 0 0 0 1 forward_v I I I I #
coedge $-1 $375 $376 $377 $378 reversed $257 $-1 #
coedge $-1 $379 $259 $374 $380 reversed $188 $-1 #
coedge $-1 $259 $379 $375 $381 reversed $188 $-1 #
coedge $-1 $377 $382 $259 $322 forward $337 $-1 #
edge $-1 $383 -13.371774083695312 $384 -7.5814213770114431 $321 $385 forward 7 unknown #
coedge $-1 $386 $387 $260 $324 forward $372 $-1 #
edge $-1 $326 -41.110873744926295 $338 41.110873744926295 $260 $388 forward 7 unknown #
coedge $-1 $389 $261 $387 $390 reversed $265 $-1 #
vertex $-1 $324 $391 #
straight-curve $-1 -41.110873744926295 23.84837181404869 0 0 0 -1 I I #
straight-curve $-1 -16.75217605741501 19.098245470132923 5.6439278563561501 -1 0 0 I I #
coedge $-1 $264 $392 $393 $394 reversed $265 $-1 #
edge $-1 $266 -19.09824547013292 $395 23.84837181404869 $264 $396 forward 7 unknown #
face $-1 $397 $265 $14 $-1 $398 reversed single #
point $-1 -41.110873744926295 19.09824547013292 5.6439278563561501 #
coedge $-1 $271 $270 $399 $400 forward $117 $-1 #
coedge $-1 $382 $272 $271 $335 reversed $337 $-1 #
edge $-1 $401 -23.84837181404869 $274 23.84837181404869 $334 $402 forward 7 unknown #
coedge $-1 $272 $377 $386 $403 reversed $337 $-1 #
loop $-1 $-1 $377 $397 #
vertex $-1 $403 $404 #
straight-curve $-1 41.110873744926295 23.84837181404869 0 0 0 -1 I I #
point $-1 41.110873744926295 23.84837181404869 5.6439278563561501 #
face $-1 $405 $406 $15 $-1 $407 forward single #
loop $-1 $-1 $408 $276 #
plane-surface $-1 0 -20.953195460706755 -2.6439278563561501 0 0 1 1 0 0 forward_v I I I I #
coedge $-1 $279 $409 $410 $411 reversed $206 $-1 #
edge $-1 $412 -24.358697687511285 $286 -9.1456544273187355 $279 $413 forward 7 unknown #
coedge $-1 $347 $280 $414 $415 reversed $208 $-1 #
coedge $-1 $281 $346 $350 $416 reversed $208 $-1 #
vertex $-1 $416 $417 #
straight-curve $-1 -25.897830484733745 -7.4435070418255336 36.176722197469857 0 -0.65605901945558964 0.75470958851134928 I I #
coedge $-1 $418 $283 $347 $416 forward $277 $-1 #
coedge $-1 $283 $419 $285 $354 forward $277 $-1 #
straight-curve $-1 -25.897830484733745 27.305017086462591 5.6439278563561501 0 -1 0 I I #
coedge $-1 $409 $285 $420 $421 forward $206 $-1 #
edge $-1 $422 -41.110873744926295 $287 25.897830484733745 $285 $423 forward 7 unknown #
point $-1 -25.897830484733745 23.84837181404869 0.17953244057714812 #
point $-1 -25.897830484733745 23.84837181404869 5.6439278563561501 #
point $-1 -33.50435211483002 16.440049582567084 -1.4636150883289305 #
coedge $-1 $298 $297 $303 $367 forward $166 $-1 #
coedge $-1 $308 $424 $297 $360 reversed $295 $-1 #
edge $-1 $312 -41.110873744926295 $425 41.110873744926295 $359 $426 forward 7 unknown #
coedge $-1 $424 $308 $299 $362 reversed $295 $-1 #
edge $-1 $364 -41.110873744926295 $310 41.110873744926295 $361 $427 forward 7 unknown #
coedge $-1 $300 $303 $424 $428 forward $234 $-1 #
vertex $-1 $362 $429 #
straight-curve $-1 -41.110873744926295 0 -5.6439278563561501 0 1 0 I I #
straight-curve $-1 0 -23.84837181404869 5.6439278563561501 1 0 0 I I #
edge $-1 $425 -23.84837181404869 $304 23.84837181404869 $303 $430 forward 7 unknown #
point $-1 -41.110873744926295 -23.84837181404869 5.6439278563561501 #
straight-curve $-1 41.110873744926295 23.84837181404869 0 0 0 -1 I I #
point $-1 41.110873744926295 23.84837181404869 -5.6439278563561501 #
point $-1 41.110873744926295 23.84837181404869 5.6439278563561501 #
loop $-1 $-1 $431 $315 #
plane-surface $-1 0 0 -5.6439278563561501 0 0 1 1 0 0 forward_v I I I I #
coedge $-1 $432 $393 $319 $380 forward $316 $-1 #
coedge $-1 $433 $318 $320 $381 forward $257 $-1 #
coedge $-1 $318 $433 $431 $434 reversed $257 $-1 #
coedge $-1 $336 $321 $318 $378 forward $337 $-1 #
edge $-1 $384 0.57196392817807507 $435 3.5719639281780751 $377 $436 forward 7 unknown #
coedge $-1 $320 $319 $392 $437 reversed $188 $-1 #
edge $-1 $438 -41.110873744926295 $383 41.110873744926295 $374 $439 forward 7 unknown #
edge $-1 $384 -41.110873744926295 $440 41.110873744926295 $375 $441 forward 7 unknown #
coedge $-1 $321 $334 $432 $442 forward $337 $-1 #
vertex $-1 $380 $443 #
vertex $-1 $322 $444 #
straight-curve $-1 41.110873744926295 -10.476597730353378 -2.6439278563561501 0 1 0 I I #
coedge $-1 $431 $323 $336 $403 forward $372 $-1 #
coedge $-1 $323 $431 $325 $390 forward $372 $-1 #
straight-curve $-1 0 23.84837181404869 -5.6439278563561501 1 0 0 I I #
coedge $-1 $392 $325 $433 $445 forward $265 $-1 #
edge $-1 $446 -18.058019107364821 $326 23.84837181404869 $325 $447 forward 7 unknown #
point $-1 -41.110873744926295 23.84837181404869 -5.6439278563561501 #
coedge $-1 $329 $389 $379 $437 forward $265 $-1 #
coedge $-1 $374 $399 $329 $394 forward $316 $-1 #
edge $-1 $395 -5.6439278563561501 $438 2.6439278563561501 $329 $448 forward 7 unknown #
vertex $-1 $330 $449 #
straight-curve $-1 -41.110873744926295 0 5.6439278563561501 0 -1 0 I I #
face $-1 $-1 $337 $14 $-1 $450 reversed single #
plane-surface $-1 -41.110873744926295 0 0 1 0 0 0 0 -1 forward_v I I I I #
coedge $-1 $393 $432 $333 $400 reversed $316 $-1 #
edge $-1 $395 -41.110873744926295 $401 41.110873744926295 $399 $451 forward 7 unknown #
vertex $-1 $335 $452 #
straight-curve $-1 41.110873744926295 0 5.6439278563561501 0 1 0 I I #
edge $-1 $338 -23.84837181404869 $435 18.058019107364821 $336 $453 forward 7 unknown #
point $-1 41.110873744926295 23.84837181404869 -5.6439278563561501 #
face $-1 $454 $455 $15 $-1 $456 reversed single #
loop $-1 $-1 $457 $341 #
plane-surface $-1 0 -18.058019107364821 -4.1439278563561501 0 -1 0 0 0 -1 forward_v I I I I #
coedge $-1 $458 $459 $460 $461 reversed $342 $-1 #
coedge $-1 $344 $353 $462 $463 reversed $206 $-1 #
coedge $-1 $464 $414 $344 $411 forward $465 $-1 #
edge $-1 $412 -0.17953244057714562 $466 5.6439278563561501 $344 $467 forward 7 unknown #
vertex $-1 $411 $468 #
straight-curve $-1 -16.75217605741501 23.84837181404869 0.17953244057714457 1 0 0 I I #
coedge $-1 $410 $469 $346 $415 forward $465 $-1 #
edge $-1 $470 24.363199253655626 $412 31.60359410084105 $414 $471 forward 7 unknown #
edge $-1 $348 9.1456544273187355 $470 24.358697687511285 $350 $472 forward 7 unknown #
point $-1 -25.897830484733745 19.09824547013292 5.6439278563561501 #
coedge $-1 $473 $350 $469 $474 forward $277 $-1 #
coedge $-1 $351 $473 $475 $476 forward $277 $-1 #
coedge $-1 $475 $477 $353 $421 reversed $478 $-1 #
edge $-1 $422 -5.6439278563561501 $479 5.6439278563561501 $420 $480 forward 7 unknown #
vertex $-1 $476 $481 #
straight-curve $-1 0 23.84837181404869 5.6439278563561501 -1 0 0 I I #
coedge $-1 $359 $361 $363 $428 reversed $295 $-1 #
vertex $-1 $360 $482 #
straight-curve $-1 0 23.84837181404869 5.6439278563561501 -1 0 0 I I #
straight-curve $-1 0 23.84837181404869 -5.6439278563561501 1 0 0 I I #
edge $-1 $425 -5.6439278563561501 $364 5.6439278563561501 $424 $483 forward 7 unknown #
point $-1 -41.110873744926295 23.84837181404869 -5.6439278563561501 #
straight-curve $-1 -41.110873744926295 0 5.6439278563561501 0 -1 0 I I #
coedge $-1 $387 $386 $376 $434 forward $372 $-1 #
coedge $-1 $399 $374 $382 $442 reversed $316 $-1 #
coedge $-1 $376 $375 $389 $445 reversed $257 $-1 #
edge $-1 $435 -41.110873744926295 $446 41.110873744926295 $431 $484 forward 7 unknown #
vertex $-1 $434 $485 #
straight-curve $-1 41.110873744926295 -18.058019107364821 -2.0719639281780751 0 0 -1 I I #
edge $-1 $440 7.5814213770114431 $438 13.371774083695312 $392 $486 forward 7 unknown #
vertex $-1 $380 $487 #
straight-curve $-1 0 -23.84837181404869 -2.6439278563561501 1 0 0 I I #
vertex $-1 $437 $488 #
straight-curve $-1 0 -18.058019107364821 -2.6439278563561501 -1 0 0 I I #
edge $-1 $401 -5.6439278563561501 $383 2.6439278563561501 $382 $489 forward 7 unknown #
point $-1 41.110873744926295 -23.84837181404869 -2.6439278563561501 #
point $-1 41.110873744926295 -18.058019107364821 -2.6439278563561501 #
edge $-1 $446 -3.5719639281780751 $440 -0.57196392817807507 $389 $490 forward 7 unknown #
vertex $-1 $390 $491 #
straight-curve $-1 -41.110873744926295 0 -5.6439278563561501 0 1 0 I I #
straight-curve $-1 -41.110873744926295 -23.84837181404869 0 0 0 -1 I I #
point $-1 -41.110873744926295 -23.84837181404869 5.6439278563561501 #
plane-surface $-1 41.110873744926295 0 0 -1 0 0 0 0 1 forward_v I I I I #
straight-curve $-1 0 -23.84837181404869 5.6439278563561501 1 0 0 I I #
point $-1 41.110873744926295 -23.84837181404869 5.6439278563561501 #
straight-curve $-1 41.110873744926295 0 -5.6439278563561501 0 -1 0 I I #
face $-1 $492 $493 $15 $-1 $494 reversed single #
loop $-1 $-1 $495 $405 #
plane-surface $-1 0 -23.84837181404869 0 0 1 0 0 0 1 forward_v I I I I #
coedge $-1 $496 $497 $498 $499 reversed $406 $-1 #
coedge $-1 $500 $408 $495 $501 reversed $342 $-1 #
coedge $-1 $408 $500 $496 $502 reversed $342 $-1 #
coedge $-1 $498 $503 $408 $461 forward $478 $-1 #
edge $-1 $504 -13.371774083695312 $505 -7.5814213770114431 $460 $506 forward 7 unknown #
coedge $-1 $507 $508 $409 $463 forward $493 $-1 #
edge $-1 $466 -41.110873744926295 $479 41.110873744926295 $409 $509 forward 7 unknown #
coedge $-1 $510 $410 $508 $511 reversed $465 $-1 #
loop $-1 $-1 $414 $492 #
vertex $-1 $463 $512 #
straight-curve $-1 -41.110873744926295 23.84837181404869 0 0 0 -1 I I #
point $-1 -41.110873744926295 23.84837181404869 0.17953244057714562 #
coedge $-1 $414 $513 $418 $474 reversed $465 $-1 #
vertex $-1 $474 $514 #
straight-curve $-1 -41.110873744926295 3.1145488569784563 24.031067939902599 0 0.65605901945558975 -0.75470958851134939 I I #
straight-curve $-1 -16.75217605741501 19.098245470132923 5.6439278563561501 -1 0 0 I I #
coedge $-1 $419 $418 $515 $516 forward $277 $-1 #
edge $-1 $470 -19.09824547013292 $517 23.84837181404869 $469 $518 forward 7 unknown #
coedge $-1 $503 $420 $419 $476 reversed $478 $-1 #
edge $-1 $519 -23.84837181404869 $422 23.84837181404869 $475 $520 forward 7 unknown #
coedge $-1 $420 $498 $507 $521 reversed $478 $-1 #
loop $-1 $-1 $498 $522 #
vertex $-1 $521 $523 #
straight-curve $-1 41.110873744926295 23.84837181404869 0 0 0 -1 I I #
point $-1 41.110873744926295 23.84837181404869 5.6439278563561501 #
point $-1 -41.110873744926295 23.84837181404869 5.6439278563561501 #
straight-curve $-1 -41.110873744926295 23.84837181404869 0 0 0 -1 I I #
straight-curve $-1 0 -18.058019107364821 -5.6439278563561501 -1 0 0 I I #
point $-1 41.110873744926295 -18.058019107364821 -5.6439278563561501 #
straight-curve $-1 -41.110873744926295 -10.476597730353378 -2.6439278563561501 0 -1 0 I I #
point $-1 -41.110873744926295 -23.84837181404869 -2.6439278563561501 #
point $-1 -41.110873744926295 -18.058019107364821 -2.6439278563561501 #
straight-curve $-1 41.110873744926295 -23.84837181404869 0 0 0 -1 I I #
straight-curve $-1 -41.110873744926295 -18.058019107364821 -2.0719639281780751 0 0 1 I I #
point $-1 -41.110873744926295 -18.058019107364821 -5.6439278563561501 #
face $-1 $522 $465 $15 $-1 $524 reversed single #
loop $-1 $-1 $525 $454 #
plane-surface $-1 0 0 -5.6439278563561501 0 0 1 1 0 0 forward_v I I I I #
coedge $-1 $526 $527 $458 $501 forward $455 $-1 #
coedge $-1 $528 $457 $459 $502 forward $406 $-1 #
coedge $-1 $457 $528 $525 $529 reversed $406 $-1 #
coedge $-1 $477 $460 $457 $499 forward $478 $-1 #
edge $-1 $505 0.57196392817807507 $530 3.5719639281780751 $498 $531 forward 7 unknown #
coedge $-1 $459 $458 $532 $533 reversed $342 $-1 #
edge $-1 $534 -41.110873744926295 $504 41.110873744926295 $495 $535 forward 7 unknown #
edge $-1 $505 -41.110873744926295 $536 41.110873744926295 $496 $537 forward 7 unknown #
coedge $-1 $460 $475 $526 $538 forward $478 $-1 #
vertex $-1 $501 $539 #
vertex $-1 $461 $540 #
straight-curve $-1 41.110873744926295 -10.476597730353378 -2.6439278563561501 0 1 0 I I #
coedge $-1 $525 $462 $477 $521 forward $493 $-1 #
coedge $-1 $462 $525 $464 $511 forward $493 $-1 #
straight-curve $-1 0 23.84837181404869 -5.6439278563561501 1 0 0 I I #
coedge $-1 $532 $464 $528 $541 forward $465 $-1 #
edge $-1 $542 -18.058019107364821 $466 23.84837181404869 $464 $543 forward 7 unknown #
point $-1 -41.110873744926295 23.84837181404869 -5.6439278563561501 #
coedge $-1 $469 $532 $527 $544 reversed $465 $-1 #
point $-1 -41.110873744926295 19.09824547013292 5.6439278563561501 #
coedge $-1 $527 $526 $473 $516 reversed $455 $-1 #
edge $-1 $517 -41.110873744926295 $519 41.110873744926295 $515 $545 forward 7 unknown #
vertex $-1 $474 $546 #
straight-curve $-1 -41.110873744926295 0 5.6439278563561501 0 -1 0 I I #
vertex $-1 $476 $547 #
straight-curve $-1 41.110873744926295 0 5.6439278563561501 0 1 0 I I #
edge $-1 $479 -23.84837181404869 $530 18.058019107364821 $477 $548 forward 7 unknown #
face $-1 $-1 $478 $15 $-1 $549 reversed single #
point $-1 41.110873744926295 23.84837181404869 -5.6439278563561501 #
plane-surface $-1 -41.110873744926295 0 0 1 0 0 0 0 -1 forward_v I I I I #
coedge $-1 $508 $507 $497 $529 forward $493 $-1 #
coedge $-1 $515 $495 $503 $538 reversed $455 $-1 #
coedge $-1 $495 $515 $513 $544 forward $455 $-1 #
coedge $-1 $497 $496 $510 $541 reversed $406 $-1 #
edge $-1 $530 -41.110873744926295 $542 41.110873744926295 $525 $550 forward 7 unknown #
vertex $-1 $529 $551 #
straight-curve $-1 41.110873744926295 -18.058019107364821 -2.0719639281780751 0 0 -1 I I #
coedge $-1 $513 $510 $500 $533 forward $465 $-1 #
edge $-1 $536 7.5814213770114431 $534 13.371774083695312 $532 $552 forward 7 unknown #
vertex $-1 $501 $553 #
straight-curve $-1 0 -23.84837181404869 -2.6439278563561501 1 0 0 I I #
vertex $-1 $533 $554 #
straight-curve $-1 0 -18.058019107364821 -2.6439278563561501 -1 0 0 I I #
edge $-1 $519 -5.6439278563561501 $504 2.6439278563561501 $503 $555 forward 7 unknown #
point $-1 41.110873744926295 -23.84837181404869 -2.6439278563561501 #
point $-1 41.110873744926295 -18.058019107364821 -2.6439278563561501 #
edge $-1 $542 -3.5719639281780751 $536 -0.57196392817807507 $510 $556 forward 7 unknown #
vertex $-1 $511 $557 #
straight-curve $-1 -41.110873744926295 0 -5.6439278563561501 0 1 0 I I #
edge $-1 $517 -5.6439278563561501 $534 2.6439278563561501 $513 $558 forward 7 unknown #
straight-curve $-1 0 -23.84837181404869 5.6439278563561501 1 0 0 I I #
point $-1 -41.110873744926295 -23.84837181404869 5.6439278563561501 #
point $-1 41.110873744926295 -23.84837181404869 5.6439278563561501 #
straight-curve $-1 41.110873744926295 0 -5.6439278563561501 0 -1 0 I I #
plane-surface $-1 41.110873744926295 0 0 -1 0 0 0 0 1 forward_v I I I I #
straight-curve $-1 0 -18.058019107364821 -5.6439278563561501 -1 0 0 I I #
point $-1 41.110873744926295 -18.058019107364821 -5.6439278563561501 #
straight-curve $-1 -41.110873744926295 -10.476597730353378 -2.6439278563561501 0 -1 0 I I #
point $-1 -41.110873744926295 -23.84837181404869 -2.6439278563561501 #
point $-1 -41.110873744926295 -18.058019107364821 -2.6439278563561501 #
straight-curve $-1 41.110873744926295 -23.84837181404869 0 0 0 -1 I I #
straight-curve $-1 -41.110873744926295 -18.058019107364821 -2.0719639281780751 0 0 1 I I #
point $-1 -41.110873744926295 -18.058019107364821 -5.6439278563561501 #
straight-curve $-1 -41.110873744926295 -23.84837181404869 0 0 0 -1 I I #
End-of-ACIS-data 