500 0 14 0           
7 Unknown 11 ACIS 5.0 NT 24 Thu Mar 25 16:06:01 1999 
-1 9.9999999999999995e-007 1e-010 
body $-1 $14 $-1 $15 #
body $-1 $16 $-1 $17 #
body $-1 $18 $-1 $19 #
body $-1 $20 $-1 $21 #
body $-1 $22 $-1 $23 #
body $-1 $24 $-1 $25 #
body $-1 $26 $-1 $27 #
body $-1 $28 $-1 $29 #
body $-1 $30 $-1 $31 #
body $-1 $32 $-1 $33 #
body $-1 $34 $-1 $35 #
body $-1 $36 $-1 $37 #
body $-1 $38 $-1 $39 #
body $-1 $40 $-1 $41 #
lump $-1 $-1 $42 $0 #
transform $-1 1 0 0 0 1 0 0 0 1 40.638447218237864 25.139977548670633 12.057629479709558 1 rotate no_reflect no_shear #
lump $-1 $-1 $43 $1 #
transform $-1 1 0 0 0 1 0 0 0 1 40.638447218237864 25.139977548670633 12.057629479709558 1 rotate no_reflect no_shear #
lump $-1 $-1 $44 $2 #
transform $-1 1 0 0 0 1 0 0 0 1 40.638447218237864 25.139977548670633 12.057629479709558 1 rotate no_reflect no_shear #
lump $-1 $-1 $45 $3 #
transform $-1 1 0 0 0 1 0 0 0 1 40.638447218237864 25.139977548670633 12.057629479709558 1 rotate no_reflect no_shear #
lump $-1 $-1 $46 $4 #
transform $-1 1 0 0 0 1 0 0 0 1 40.638447218237864 25.139977548670633 12.057629479709558 1 rotate no_reflect no_shear #
lump $-1 $-1 $47 $5 #
transform $-1 1 0 0 0 1 0 0 0 1 40.638447218237864 25.139977548670633 12.057629479709558 1 rotate no_reflect no_shear #
lump $-1 $-1 $48 $6 #
transform $-1 1 0 0 0 1 0 0 0 1 40.638447218237864 25.139977548670633 12.057629479709558 1 rotate no_reflect no_shear #
lump $-1 $-1 $49 $7 #
transform $-1 1 0 0 0 1 0 0 0 1 40.638447218237864 25.139977548670633 12.057629479709558 1 rotate no_reflect no_shear #
lump $-1 $-1 $50 $8 #
transform $-1 1 0 0 0 1 0 0 0 1 40.638447218237864 25.139977548670633 12.057629479709558 1 rotate no_reflect no_shear #
lump $-1 $-1 $51 $9 #
transform $-1 1 0 0 0 1 0 0 0 1 40.638447218237864 25.139977548670633 12.057629479709558 1 rotate no_reflect no_shear #
lump $-1 $-1 $52 $10 #
transform $-1 1 0 0 0 1 0 0 0 1 40.638447218237864 25.139977548670633 12.057629479709558 1 rotate no_reflect no_shear #
lump $-1 $-1 $53 $11 #
transform $-1 1 0 0 0 1 0 0 0 1 40.638447218237864 25.139977548670633 12.057629479709558 1 rotate no_reflect no_shear #
lump $-1 $-1 $54 $12 #
transform $-1 1 0 0 0 1 0 0 0 1 40.638447218237864 25.139977548670633 12.057629479709558 1 rotate no_reflect no_shear #
lump $-1 $-1 $55 $13 #
transform $-1 1 0 0 0 1 0 0 0 1 40.638447218237864 25.139977548670633 12.057629479709558 1 rotate no_reflect no_shear #
shell $-1 $-1 $-1 $56 $-1 $14 #
shell $-1 $-1 $-1 $57 $-1 $16 #
shell $-1 $-1 $-1 $58 $-1 $18 #
shell $-1 $-1 $-1 $59 $-1 $20 #
shell $-1 $-1 $-1 $60 $-1 $22 #
shell $-1 $-1 $-1 $61 $-1 $24 #
shell $-1 $-1 $-1 $62 $-1 $26 #
shell $-1 $-1 $-1 $63 $-1 $28 #
shell $-1 $-1 $-1 $64 $-1 $30 #
shell $-1 $-1 $-1 $65 $-1 $32 #
shell $-1 $-1 $-1 $66 $-1 $34 #
shell $-1 $-1 $-1 $67 $-1 $36 #
shell $-1 $-1 $-1 $68 $-1 $38 #
shell $-1 $-1 $-1 $69 $-1 $40 #
face $-1 $70 $71 $42 $-1 $72 forward single #
face $-1 $73 $74 $43 $-1 $75 forward single #
face $-1 $76 $77 $44 $-1 $78 forward single #
face $-1 $79 $80 $45 $-1 $81 reversed single #
face $-1 $82 $83 $46 $-1 $84 forward single #
face $-1 $85 $86 $47 $-1 $87 forward single #
face $-1 $88 $89 $48 $-1 $90 forward single #
face $-1 $91 $92 $49 $-1 $93 reversed single #
face $-1 $94 $95 $50 $-1 $96 forward single #
face $-1 $97 $98 $51 $-1 $99 forward single #
face $-1 $100 $101 $52 $-1 $102 forward single #
face $-1 $103 $104 $53 $-1 $105 reversed single #
face $-1 $106 $107 $54 $-1 $108 forward single #
face $-1 $109 $110 $55 $-1 $111 forward single #
face $-1 $112 $113 $42 $-1 $114 reversed single #
loop $-1 $-1 $115 $56 #
plane-surface $-1 0 0 12.057629479709558 0 0 1 1 0 0 forward_v I I I I #
face $-1 $116 $117 $43 $-1 $118 reversed single #
loop $-1 $-1 $119 $57 #
plane-surface $-1 -36.598591211120258 0 11.557629479709558 0 0 1 1 0 0 forward_v I I I I #
face $-1 $120 $121 $44 $-1 $122 reversed single #
loop $-1 $-1 $123 $58 #
plane-surface $-1 36.598591211120258 0 11.557629479709558 0 0 1 1 0 0 forward_v I I I I #
face $-1 $124 $125 $45 $-1 $126 reversed single #
loop $-1 $-1 $127 $59 #
plane-surface $-1 -12.510339551407938 33.898276979273263 99.833141973940201 -1 0 0 0 0.6018150307709319 0.79863550430605224 forward_v I I I I #
face $-1 $128 $129 $46 $-1 $130 forward single #
loop $-1 $131 $132 $60 #
cone-surface $-1 -24.087485326391175 19.236912437922822 7.0377187141248907 0 -0.6018150307709319 -0.79863550430605224 1 0 0 1 I I 0 1 1 forward I I I I #
face $-1 $133 $134 $47 $-1 $135 forward single #
loop $-1 $136 $137 $61 #
cone-surface $-1 -19.746055660772463 19.236912437922822 7.0377187141248907 0 -0.6018150307709319 -0.79863550430605224 1 0 0 1 I I 0 1 1 forward I I I I #
face $-1 $138 $139 $48 $-1 $140 forward single #
loop $-1 $141 $142 $62 #
cone-surface $-1 -15.404625995153751 19.236912437922822 7.0377187141248907 0 -0.6018150307709319 -0.79863550430605224 1 0 0 1 I I 0 1 1 forward I I I I #
face $-1 $143 $144 $49 $-1 $145 reversed single #
loop $-1 $-1 $146 $63 #
plane-surface $-1 20.048395652594717 33.898276979273263 99.833141973940201 -1 0 0 0 0.6018150307709319 0.79863550430605224 forward_v I I I I #
face $-1 $147 $148 $50 $-1 $149 forward single #
loop $-1 $150 $151 $64 #
cone-surface $-1 8.4712498776114771 19.236912437922822 7.0377187141248907 0 -0.6018150307709319 -0.79863550430605224 1 0 0 1 I I 0 1 1 forward I I I I #
face $-1 $152 $153 $51 $-1 $154 forward single #
loop $-1 $155 $156 $65 #
cone-surface $-1 12.812679543230189 19.236912437922822 7.0377187141248907 0 -0.6018150307709319 -0.79863550430605224 1 0 0 1 I I 0 1 1 forward I I I I #
face $-1 $157 $158 $52 $-1 $159 forward single #
loop $-1 $160 $161 $66 #
cone-surface $-1 17.154109208848901 19.236912437922822 7.0377187141248907 0 -0.6018150307709319 -0.79863550430605224 1 0 0 1 I I 0 1 1 forward I I I I #
face $-1 $162 $163 $53 $-1 $164 reversed single #
loop $-1 $-1 $165 $67 #
plane-surface $-1 -23.409757440067764 -25.139977548670643 5.8685102039928552 0 -0.61566148304635926 0.78801074757464917 1 0 0 forward_v I I I I #
face $-1 $166 $167 $54 $-1 $168 forward single #
loop $-1 $169 $170 $68 #
cone-surface $-1 -27.330747910325574 -19.497171269133077 6.8102712305650437 0 0.61566148304635926 -0.78801074757464917 2.5 0 0 1 I I 0 1 2.5 forward I I I I #
face $-1 $171 $172 $55 $-1 $173 forward single #
loop $-1 $174 $175 $69 #
cone-surface $-1 -19.488766969809955 -19.497171269133077 6.8102712305650437 0 0.61566148304635926 -0.78801074757464917 2.5 0 0 1 I I 0 1 2.5 forward I I I I #
face $-1 $176 $177 $42 $-1 $178 reversed single #
loop $-1 $-1 $179 $70 #
plane-surface $-1 0 0 -12.057629479709558 0 0 1 1 0 0 forward_v I I I I #
coedge $-1 $180 $181 $182 $183 forward $71 $-1 #
face $-1 $184 $185 $43 $-1 $186 reversed single #
loop $-1 $-1 $187 $73 #
plane-surface $-1 -36.598591211120258 0 7.8150431463151655 0 0 1 1 0 0 forward_v I I I I #
coedge $-1 $188 $189 $190 $191 forward $74 $-1 #
face $-1 $192 $193 $44 $-1 $194 reversed single #
loop $-1 $-1 $195 $76 #
plane-surface $-1 36.598591211120258 0 7.8150431463151655 0 0 1 1 0 0 forward_v I I I I #
coedge $-1 $196 $197 $198 $199 reversed $77 $-1 #
face $-1 $200 $201 $45 $-1 $202 reversed single #
loop $-1 $-1 $203 $79 #
plane-surface $-1 -19.746055660772459 -15.015379746980159 34.922528397235638 0 0.6018150307709319 0.79863550430605224 1 0 0 forward_v I I I I #
coedge $-1 $204 $205 $206 $207 reversed $80 $-1 #
face $-1 $-1 $208 $46 $-1 $209 forward single #
loop $-1 $210 $211 $82 #
cone-surface $-1 -24.087485326391175 17.939245908057732 5.3156570996579013 0 -0.6018150307709319 -0.79863550430605224 0.5 0 0 1 I I -0.70710678118654746 0.70710678118654746 0.5 forward I I I I #
loop $-1 $-1 $212 $60 #
coedge $-1 $132 $132 $213 $214 reversed $83 $-1 #
face $-1 $-1 $215 $47 $-1 $216 forward single #
loop $-1 $217 $218 $85 #
cone-surface $-1 -19.746055660772463 17.939245908057732 5.3156570996579013 0 -0.6018150307709319 -0.79863550430605224 0.5 0 0 1 I I -0.70710678118654746 0.70710678118654746 0.5 forward I I I I #
loop $-1 $-1 $219 $61 #
coedge $-1 $137 $137 $220 $221 reversed $86 $-1 #
face $-1 $-1 $222 $48 $-1 $223 forward single #
loop $-1 $224 $225 $88 #
cone-surface $-1 -15.404625995153751 17.939245908057732 5.3156570996579013 0 -0.6018150307709319 -0.79863550430605224 0.5 0 0 1 I I -0.70710678118654746 0.70710678118654746 0.5 forward I I I I #
loop $-1 $-1 $226 $62 #
coedge $-1 $142 $142 $227 $228 reversed $89 $-1 #
face $-1 $229 $230 $49 $-1 $231 reversed single #
loop $-1 $-1 $232 $91 #
plane-surface $-1 12.812679543230196 -15.015379746980159 34.922528397235638 0 0.6018150307709319 0.79863550430605224 1 0 0 forward_v I I I I #
coedge $-1 $233 $234 $235 $236 reversed $92 $-1 #
face $-1 $-1 $237 $50 $-1 $238 forward single #
loop $-1 $239 $240 $94 #
cone-surface $-1 8.4712498776114771 17.939245908057732 5.3156570996579013 0 -0.6018150307709319 -0.79863550430605224 0.5 0 0 1 I I -0.70710678118654746 0.70710678118654746 0.5 forward I I I I #
loop $-1 $-1 $241 $64 #
coedge $-1 $151 $151 $242 $243 reversed $95 $-1 #
face $-1 $-1 $244 $51 $-1 $245 forward single #
loop $-1 $246 $247 $97 #
cone-surface $-1 12.812679543230189 17.939245908057732 5.3156570996579013 0 -0.6018150307709319 -0.79863550430605224 0.5 0 0 1 I I -0.70710678118654746 0.70710678118654746 0.5 forward I I I I #
loop $-1 $-1 $248 $65 #
coedge $-1 $156 $156 $249 $250 reversed $98 $-1 #
face $-1 $-1 $251 $52 $-1 $252 forward single #
loop $-1 $253 $254 $100 #
cone-surface $-1 17.154109208848901 17.939245908057732 5.3156570996579013 0 -0.6018150307709319 -0.79863550430605224 0.5 0 0 1 I I -0.70710678118654746 0.70710678118654746 0.5 forward I I I I #
loop $-1 $-1 $255 $66 #
coedge $-1 $161 $161 $256 $257 reversed $101 $-1 #
face $-1 $258 $259 $53 $-1 $260 forward single #
loop $-1 $-1 $261 $103 #
plane-surface $-1 -14.260779676132877 -75.179030914833675 69.915576549425936 -1 0 0 0 -0.61566148304635926 0.78801074757464917 forward_v I I I I #
coedge $-1 $262 $263 $264 $265 reversed $104 $-1 #
face $-1 $-1 $266 $54 $-1 $267 forward single #
loop $-1 $268 $269 $106 #
cone-surface $-1 -27.330747910325574 -17.045643769596118 3.6724591848105703 0 0.61566148304635926 -0.78801074757464917 1.25 0 0 1 I I -0.70710678118654746 0.70710678118654746 1.25 forward I I I I #
loop $-1 $-1 $270 $68 #
coedge $-1 $170 $170 $271 $272 reversed $107 $-1 #
face $-1 $-1 $273 $55 $-1 $274 forward single #
loop $-1 $275 $276 $109 #
cone-surface $-1 -19.488766969809955 -17.045643769596118 3.6724591848105703 0 0.61566148304635926 -0.78801074757464917 1.25 0 0 1 I I -0.70710678118654746 0.70710678118654746 1.25 forward I I I I #
loop $-1 $-1 $277 $69 #
coedge $-1 $175 $175 $278 $279 reversed $110 $-1 #
face $-1 $280 $281 $42 $-1 $282 reversed single #
loop $-1 $-1 $283 $112 #
plane-surface $-1 0 -25.139977548670633 0 0 1 0 0 0 1 forward_v I I I I #
coedge $-1 $284 $285 $286 $287 forward $113 $-1 #
coedge $-1 $288 $115 $289 $290 forward $71 $-1 #
coedge $-1 $115 $288 $291 $292 forward $71 $-1 #
coedge $-1 $293 $294 $115 $183 reversed $295 $-1 #
edge $-1 $296 -25.139977548670633 $297 25.139977548670633 $182 $298 forward 7 unknown #
face $-1 $299 $300 $43 $-1 $301 reversed single #
loop $-1 $-1 $302 $116 #
plane-surface $-1 -32.558735204002652 0 9.6863363130123616 -1 0 0 0 0 1 forward_v I I I I #
coedge $-1 $303 $304 $305 $306 forward $117 $-1 #
coedge $-1 $307 $119 $308 $309 reversed $74 $-1 #
coedge $-1 $119 $307 $310 $311 reversed $74 $-1 #
coedge $-1 $302 $312 $119 $191 reversed $185 $-1 #
edge $-1 $313 -25.139977548670633 $314 25.139977548670633 $190 $315 forward 7 unknown #
face $-1 $316 $317 $44 $-1 $318 reversed single #
loop $-1 $-1 $319 $120 #
plane-surface $-1 32.558735204002652 0 9.6863363130123616 1 0 0 0 0 -1 forward_v I I I I #
coedge $-1 $320 $321 $322 $323 reversed $121 $-1 #
coedge $-1 $324 $123 $325 $326 reversed $77 $-1 #
coedge $-1 $123 $324 $327 $328 reversed $77 $-1 #
coedge $-1 $329 $330 $123 $199 forward $331 $-1 #
edge $-1 $332 -25.139977548670633 $333 25.139977548670633 $198 $334 forward 7 unknown #
face $-1 $335 $336 $45 $-1 $337 reversed single #
loop $-1 $-1 $338 $124 #
plane-surface $-1 -26.98177177013698 33.898276979273263 99.833141973940201 1 0 0 0 -0.6018150307709319 -0.79863550430605224 forward_v I I I I #
coedge $-1 $339 $340 $341 $342 reversed $125 $-1 #
coedge $-1 $205 $127 $343 $344 reversed $80 $-1 #
coedge $-1 $127 $204 $339 $345 reversed $80 $-1 #
coedge $-1 $341 $346 $127 $207 forward $336 $-1 #
edge $-1 $347 37.858941507260539 $348 45.253275313801957 $206 $349 forward 7 unknown #
loop $-1 $-1 $213 $128 #
plane-surface $-1 -19.746055660772459 -15.015379746980159 34.922528397235638 0 0.6018150307709319 0.79863550430605224 1 0 0 forward_v I I I I #
loop $-1 $-1 $350 $82 #
coedge $-1 $211 $211 $212 $351 reversed $129 $-1 #
coedge $-1 $212 $212 $211 $351 forward $131 $-1 #
coedge $-1 $213 $213 $132 $214 forward $208 $-1 #
edge $-1 $352 6.9924678859621399e-016 $352 6.2831853071796013 $213 $353 forward 7 unknown #
loop $-1 $-1 $220 $133 #
plane-surface $-1 -19.746055660772459 -15.015379746980159 34.922528397235638 0 0.6018150307709319 0.79863550430605224 1 0 0 forward_v I I I I #
loop $-1 $-1 $354 $85 #
coedge $-1 $218 $218 $219 $355 reversed $134 $-1 #
coedge $-1 $219 $219 $218 $355 forward $136 $-1 #
coedge $-1 $220 $220 $137 $221 forward $215 $-1 #
edge $-1 $356 6.9924678859621399e-016 $356 6.2831853071796013 $220 $357 forward 7 unknown #
loop $-1 $-1 $227 $138 #
plane-surface $-1 -19.746055660772459 -15.015379746980159 34.922528397235638 0 0.6018150307709319 0.79863550430605224 1 0 0 forward_v I I I I #
loop $-1 $-1 $358 $88 #
coedge $-1 $225 $225 $226 $359 reversed $139 $-1 #
coedge $-1 $226 $226 $225 $359 forward $141 $-1 #
coedge $-1 $227 $227 $142 $228 forward $222 $-1 #
edge $-1 $360 6.9924678859621399e-016 $360 6.2831853071796013 $227 $361 forward 7 unknown #
face $-1 $362 $363 $49 $-1 $364 forward single #
loop $-1 $-1 $365 $143 #
plane-surface $-1 5.5769634338656742 33.898276979273263 99.833141973940201 1 0 0 0 -0.6018150307709319 -0.79863550430605224 forward_v I I I I #
coedge $-1 $366 $367 $368 $369 reversed $144 $-1 #
coedge $-1 $234 $146 $370 $371 reversed $92 $-1 #
coedge $-1 $146 $233 $366 $372 reversed $92 $-1 #
coedge $-1 $368 $373 $146 $236 forward $374 $-1 #
edge $-1 $375 37.858941507260539 $376 45.253275313801957 $235 $377 forward 7 unknown #
loop $-1 $-1 $242 $147 #
plane-surface $-1 12.812679543230196 -15.015379746980159 34.922528397235638 0 0.6018150307709319 0.79863550430605224 1 0 0 forward_v I I I I #
loop $-1 $-1 $378 $94 #
coedge $-1 $240 $240 $241 $379 reversed $148 $-1 #
coedge $-1 $241 $241 $240 $379 forward $150 $-1 #
coedge $-1 $242 $242 $151 $243 forward $237 $-1 #
edge $-1 $380 6.9924678859621399e-016 $380 6.2831853071796013 $242 $381 forward 7 unknown #
loop $-1 $-1 $249 $152 #
plane-surface $-1 12.812679543230196 -15.015379746980159 34.922528397235638 0 0.6018150307709319 0.79863550430605224 1 0 0 forward_v I I I I #
loop $-1 $-1 $382 $97 #
coedge $-1 $247 $247 $248 $383 reversed $153 $-1 #
coedge $-1 $248 $248 $247 $383 forward $155 $-1 #
coedge $-1 $249 $249 $156 $250 forward $244 $-1 #
edge $-1 $384 6.9924678859621399e-016 $384 6.2831853071796013 $249 $385 forward 7 unknown #
loop $-1 $-1 $256 $157 #
plane-surface $-1 12.812679543230196 -15.015379746980159 34.922528397235638 0 0.6018150307709319 0.79863550430605224 1 0 0 forward_v I I I I #
loop $-1 $-1 $386 $100 #
coedge $-1 $254 $254 $255 $387 reversed $158 $-1 #
coedge $-1 $255 $255 $254 $387 forward $160 $-1 #
coedge $-1 $256 $256 $161 $257 forward $251 $-1 #
edge $-1 $388 6.9924678859621399e-016 $388 6.2831853071796013 $256 $389 forward 7 unknown #
face $-1 $390 $391 $53 $-1 $392 reversed single #
loop $-1 $-1 $393 $162 #
plane-surface $-1 -32.558735204002652 0 9.6863363130123616 -1 0 0 0 0 1 forward_v I I I I #
coedge $-1 $394 $395 $396 $397 reversed $163 $-1 #
coedge $-1 $398 $165 $393 $399 forward $104 $-1 #
coedge $-1 $165 $398 $394 $400 forward $104 $-1 #
coedge $-1 $396 $401 $165 $265 forward $391 $-1 #
edge $-1 $402 -20.853856483968769 $403 -2.5559009560989949 $264 $404 forward 7 unknown #
loop $-1 $-1 $271 $166 #
plane-surface $-1 -23.409757440067764 -25.139977548670643 5.8685102039928552 0 -0.61566148304635926 0.78801074757464917 1 0 0 forward_v I I I I #
loop $-1 $-1 $405 $106 #
coedge $-1 $269 $269 $270 $406 reversed $167 $-1 #
coedge $-1 $270 $270 $269 $406 forward $169 $-1 #
coedge $-1 $271 $271 $170 $272 forward $266 $-1 #
edge $-1 $407 4.8984607169668921e-016 $407 6.2831853071796013 $271 $408 forward 7 unknown #
loop $-1 $-1 $278 $171 #
plane-surface $-1 -23.409757440067764 -25.139977548670643 5.8685102039928552 0 -0.61566148304635926 0.78801074757464917 1 0 0 forward_v I I I I #
loop $-1 $-1 $409 $109 #
coedge $-1 $276 $276 $277 $410 reversed $172 $-1 #
coedge $-1 $277 $277 $276 $410 forward $174 $-1 #
coedge $-1 $278 $278 $175 $279 forward $273 $-1 #
edge $-1 $411 4.8984607169668921e-016 $411 6.2831853071796013 $278 $412 forward 7 unknown #
face $-1 $413 $414 $42 $-1 $415 reversed single #
loop $-1 $-1 $416 $176 #
plane-surface $-1 -40.638447218237864 0 0 1 0 0 0 0 -1 forward_v I I I I #
coedge $-1 $417 $291 $418 $419 forward $177 $-1 #
coedge $-1 $420 $179 $417 $421 forward $113 $-1 #
coedge $-1 $179 $420 $422 $423 forward $113 $-1 #
coedge $-1 $294 $293 $179 $287 reversed $295 $-1 #
edge $-1 $424 -25.139977548670633 $425 25.139977548670633 $286 $426 forward 7 unknown #
coedge $-1 $181 $180 $427 $428 forward $71 $-1 #
coedge $-1 $429 $430 $180 $290 reversed $414 $-1 #
edge $-1 $297 -40.638447218237864 $431 40.638447218237864 $289 $432 forward 7 unknown #
coedge $-1 $283 $433 $181 $292 reversed $177 $-1 #
edge $-1 $434 -40.638447218237864 $296 40.638447218237864 $291 $435 forward 7 unknown #
coedge $-1 $286 $182 $433 $436 forward $295 $-1 #
coedge $-1 $182 $286 $429 $437 reversed $295 $-1 #
loop $-1 $-1 $293 $413 #
vertex $-1 $183 $438 #
vertex $-1 $183 $439 #
straight-curve $-1 40.638447218237864 0 12.057629479709558 0 1 0 I I #
face $-1 $440 $441 $43 $-1 $442 reversed single #
loop $-1 $-1 $443 $184 #
plane-surface $-1 0 -25.139977548670633 0 0 1 0 0 0 1 forward_v I I I I #
coedge $-1 $305 $190 $444 $445 reversed $185 $-1 #
coedge $-1 $446 $187 $443 $447 reversed $117 $-1 #
coedge $-1 $187 $446 $448 $449 reversed $117 $-1 #
coedge $-1 $312 $302 $187 $306 reversed $185 $-1 #
edge $-1 $450 -25.139977548670633 $451 25.139977548670633 $305 $452 forward 7 unknown #
coedge $-1 $189 $188 $453 $454 reversed $74 $-1 #
coedge $-1 $455 $456 $188 $309 forward $457 $-1 #
edge $-1 $458 -22.339151612677735 $314 -14.259439598442523 $308 $459 forward 7 unknown #
coedge $-1 $460 $444 $189 $311 forward $300 $-1 #
edge $-1 $313 14.259439598442523 $461 22.339151612677735 $310 $462 forward 7 unknown #
coedge $-1 $190 $305 $455 $463 reversed $185 $-1 #
vertex $-1 $311 $464 #
vertex $-1 $309 $465 #
straight-curve $-1 -32.558735204002652 0 11.557629479709558 0 1 0 I I #
face $-1 $466 $467 $44 $-1 $468 reversed single #
loop $-1 $-1 $327 $192 #
plane-surface $-1 0 -25.139977548670633 0 0 1 0 0 0 1 forward_v I I I I #
coedge $-1 $469 $470 $471 $472 reversed $193 $-1 #
coedge $-1 $473 $195 $474 $475 reversed $121 $-1 #
coedge $-1 $195 $473 $476 $477 reversed $121 $-1 #
coedge $-1 $330 $329 $195 $323 forward $331 $-1 #
edge $-1 $478 -25.139977548670633 $479 25.139977548670633 $322 $480 forward 7 unknown #
coedge $-1 $197 $196 $470 $481 forward $77 $-1 #
coedge $-1 $482 $471 $196 $326 forward $467 $-1 #
edge $-1 $483 14.259439598442523 $332 22.339151612677735 $325 $484 forward 7 unknown #
coedge $-1 $485 $486 $197 $328 forward $317 $-1 #
edge $-1 $333 -22.339151612677735 $487 -14.259439598442523 $327 $488 forward 7 unknown #
coedge $-1 $322 $198 $486 $489 forward $331 $-1 #
coedge $-1 $198 $322 $482 $490 reversed $331 $-1 #
loop $-1 $-1 $198 $466 #
vertex $-1 $490 $491 #
vertex $-1 $489 $492 #
straight-curve $-1 40.638447218237864 0 11.557629479709558 0 -1 0 I I #
face $-1 $-1 $493 $45 $-1 $494 forward single #
loop $-1 $-1 $206 $200 #
plane-surface $-1 0 25.139977548670633 0 0 -1 0 0 0 -1 forward_v I I I I #
coedge $-1 $495 $496 $497 $498 reversed $201 $-1 #
coedge $-1 $499 $203 $205 $345 forward $125 $-1 #
coedge $-1 $203 $499 $495 $500 forward $125 $-1 #
coedge $-1 $497 $206 $203 $342 forward $336 $-1 #
edge $-1 $348 2.6373117210217085 $501 17.108743939750752 $341 $502 forward 7 unknown #
coedge $-1 $503 $504 $204 $344 forward $493 $-1 #
edge $-1 $505 -1.6217731335023693 $347 8.1908390590340012 $343 $506 forward 7 unknown #
edge $-1 $348 -50.279955097341258 $505 -37.993233383080991 $205 $507 forward 7 unknown #
coedge $-1 $206 $497 $503 $508 reversed $336 $-1 #
vertex $-1 $508 $509 #
vertex $-1 $207 $510 #
straight-curve $-1 -12.510339551407938 25.139977548670633 49.9165709869701 0 0 -1 I I #
coedge $-1 $350 $350 $-1 $511 reversed $210 $-1 #
edge $-1 $512 0 $512 6.2831853071796004 $211 $513 forward 7 unknown #
vertex $-1 $214 $514 #
ellipse-curve $-1 -24.087485326391175 20.233671452402444 8.3604625764388487 0 0.6018150307709319 0.79863550430605224 1 0 0 1 I I #
coedge $-1 $354 $354 $-1 $515 reversed $217 $-1 #
edge $-1 $516 0 $516 6.2831853071796004 $218 $517 forward 7 unknown #
vertex $-1 $221 $518 #
ellipse-curve $-1 -19.746055660772463 20.233671452402444 8.3604625764388487 0 0.6018150307709319 0.79863550430605224 1 0 0 1 I I #
coedge $-1 $358 $358 $-1 $519 reversed $224 $-1 #
edge $-1 $520 0 $520 6.2831853071796004 $225 $521 forward 7 unknown #
vertex $-1 $228 $522 #
ellipse-curve $-1 -15.404625995153751 20.233671452402444 8.3604625764388487 0 0.6018150307709319 0.79863550430605224 1 0 0 1 I I #
face $-1 $-1 $374 $49 $-1 $523 reversed single #
loop $-1 $-1 $524 $229 #
plane-surface $-1 0 0 12.057629479709558 0 0 1 1 0 0 forward_v I I I I #
coedge $-1 $525 $526 $527 $528 reversed $230 $-1 #
coedge $-1 $529 $232 $234 $372 forward $144 $-1 #
coedge $-1 $232 $529 $525 $530 forward $144 $-1 #
coedge $-1 $527 $235 $232 $369 forward $374 $-1 #
edge $-1 $376 -13.642055880979619 $531 0.82937633774942388 $368 $532 forward 7 unknown #
coedge $-1 $533 $534 $233 $371 forward $363 $-1 #
edge $-1 $535 -1.6217731335023693 $375 8.1908390590340012 $370 $536 forward 7 unknown #
edge $-1 $376 -50.279955097341258 $535 -37.993233383080991 $234 $537 forward 7 unknown #
coedge $-1 $235 $527 $533 $538 reversed $374 $-1 #
loop $-1 $-1 $527 $362 #
vertex $-1 $538 $539 #
vertex $-1 $236 $540 #
straight-curve $-1 20.048395652594717 25.139977548670633 49.9165709869701 0 0 -1 I I #
coedge $-1 $378 $378 $-1 $541 reversed $239 $-1 #
edge $-1 $542 0 $542 6.2831853071796004 $240 $543 forward 7 unknown #
vertex $-1 $243 $544 #
ellipse-curve $-1 8.4712498776114771 20.233671452402444 8.3604625764388487 0 0.6018150307709319 0.79863550430605224 1 0 0 1 I I #
coedge $-1 $382 $382 $-1 $545 reversed $246 $-1 #
edge $-1 $546 0 $546 6.2831853071796004 $247 $547 forward 7 unknown #
vertex $-1 $250 $548 #
ellipse-curve $-1 12.812679543230189 20.233671452402444 8.3604625764388487 0 0.6018150307709319 0.79863550430605224 1 0 0 1 I I #
coedge $-1 $386 $386 $-1 $549 reversed $253 $-1 #
edge $-1 $550 0 $550 6.2831853071796004 $254 $551 forward 7 unknown #
vertex $-1 $257 $552 #
ellipse-curve $-1 17.154109208848901 20.233671452402444 8.3604625764388487 0 0.6018150307709319 0.79863550430605224 1 0 0 1 I I #
face $-1 $-1 $553 $53 $-1 $554 forward single #
loop $-1 $-1 $401 $258 #
plane-surface $-1 0 -25.139977548670633 0 0 1 0 0 0 1 forward_v I I I I #
coedge $-1 $555 $556 $262 $399 reversed $259 $-1 #
coedge $-1 $395 $261 $263 $400 reversed $163 $-1 #
coedge $-1 $261 $394 $557 $558 reversed $163 $-1 #
coedge $-1 $559 $264 $261 $397 forward $391 $-1 #
edge $-1 $403 -29.089278070720106 $560 -22.90015879500341 $396 $561 forward 7 unknown #
coedge $-1 $263 $262 $562 $563 reversed $104 $-1 #
edge $-1 $402 1.3320084873591951e-014 $564 10.052795970104016 $393 $565 forward 7 unknown #
edge $-1 $566 -10.052795970104016 $403 -1.3320084873591951e-014 $394 $567 forward 7 unknown #
coedge $-1 $264 $559 $555 $568 forward $391 $-1 #
vertex $-1 $265 $569 #
vertex $-1 $265 $570 #
straight-curve $-1 -11.704878720033882 -25.139977548670633 5.8685102039928623 1 0 0 I I #
coedge $-1 $405 $405 $-1 $571 reversed $268 $-1 #
edge $-1 $572 0 $572 6.2831853071796004 $269 $573 forward 7 unknown #
vertex $-1 $272 $574 #
ellipse-curve $-1 -27.330747910325574 -21.179121914862094 8.9630698418512118 0 -0.61566148304635926 0.78801074757464917 2.5 0 0 1 I I #
coedge $-1 $409 $409 $-1 $575 reversed $275 $-1 #
edge $-1 $576 0 $576 6.2831853071796004 $276 $577 forward 7 unknown #
vertex $-1 $279 $578 #
ellipse-curve $-1 -19.488766969809955 -21.179121914862094 8.9630698418512118 0 -0.61566148304635926 0.78801074757464917 2.5 0 0 1 I I #
face $-1 $-1 $295 $42 $-1 $579 reversed single #
loop $-1 $-1 $429 $280 #
plane-surface $-1 0 25.139977548670633 0 0 -1 0 0 0 -1 forward_v I I I I #
coedge $-1 $580 $427 $430 $581 forward $281 $-1 #
coedge $-1 $433 $283 $284 $421 reversed $177 $-1 #
coedge $-1 $427 $580 $283 $419 reversed $281 $-1 #
edge $-1 $434 -12.057629479709558 $582 12.057629479709558 $418 $583 forward 7 unknown #
coedge $-1 $285 $284 $580 $584 forward $113 $-1 #
edge $-1 $425 -40.638447218237864 $582 40.638447218237864 $417 $585 forward 7 unknown #
coedge $-1 $430 $429 $285 $423 reversed $414 $-1 #
edge $-1 $586 -40.638447218237864 $424 40.638447218237864 $422 $587 forward 7 unknown #
vertex $-1 $287 $588 #
vertex $-1 $436 $589 #
straight-curve $-1 40.638447218237864 0 -12.057629479709558 0 -1 0 I I #
coedge $-1 $416 $418 $288 $428 reversed $281 $-1 #
edge $-1 $431 -25.139977548670633 $434 25.139977548670633 $427 $590 forward 7 unknown #
coedge $-1 $422 $289 $294 $437 forward $414 $-1 #
coedge $-1 $289 $422 $416 $581 reversed $414 $-1 #
vertex $-1 $290 $591 #
straight-curve $-1 0 25.139977548670633 12.057629479709558 -1 0 0 I I #
coedge $-1 $291 $417 $293 $436 reversed $177 $-1 #
vertex $-1 $428 $592 #
straight-curve $-1 0 -25.139977548670633 12.057629479709558 1 0 0 I I #
edge $-1 $296 -12.057629479709558 $425 12.057629479709558 $293 $593 forward 7 unknown #
edge $-1 $297 -12.057629479709558 $424 12.057629479709558 $294 $594 forward 7 unknown #
point $-1 40.638447218237864 -25.139977548670633 12.057629479709558 #
point $-1 40.638447218237864 25.139977548670633 12.057629479709558 #
face $-1 $-1 $457 $43 $-1 $595 reversed single #
loop $-1 $-1 $596 $299 #
plane-surface $-1 -40.638447218237864 0 0 1 0 0 0 0 -1 forward_v I I I I #
coedge $-1 $444 $460 $303 $447 forward $300 $-1 #
coedge $-1 $310 $443 $302 $445 forward $300 $-1 #
edge $-1 $451 2.9718749898089847 $313 6.714461323203377 $444 $597 forward 7 unknown #
coedge $-1 $304 $303 $596 $598 reversed $117 $-1 #
edge $-1 $599 -22.339151612677735 $451 -14.259439598442523 $443 $600 forward 7 unknown #
coedge $-1 $456 $455 $304 $449 forward $457 $-1 #
edge $-1 $450 14.259439598442523 $601 22.339151612677735 $448 $602 forward 7 unknown #
vertex $-1 $449 $603 #
vertex $-1 $447 $604 #
straight-curve $-1 -32.558735204002652 0 7.8150431463151655 0 -1 0 I I #
coedge $-1 $605 $606 $307 $454 forward $441 $-1 #
edge $-1 $461 -25.139977548670633 $458 25.139977548670633 $453 $607 forward 7 unknown #
coedge $-1 $448 $308 $312 $463 forward $457 $-1 #
coedge $-1 $308 $448 $605 $608 reversed $457 $-1 #
loop $-1 $-1 $448 $440 #
vertex $-1 $608 $609 #
straight-curve $-1 -18.299295605560129 25.139977548670633 11.557629479709558 1 0 0 I I #
coedge $-1 $443 $310 $606 $610 forward $300 $-1 #
vertex $-1 $610 $611 #
straight-curve $-1 -18.299295605560129 -25.139977548670633 11.557629479709558 -1 0 0 I I #
edge $-1 $314 -6.714461323203377 $450 -2.9718749898089847 $455 $612 forward 7 unknown #
point $-1 -32.558735204002652 -25.139977548670633 11.557629479709558 #
point $-1 -32.558735204002652 25.139977548670633 11.557629479709558 #
face $-1 $-1 $331 $44 $-1 $613 reversed single #
loop $-1 $-1 $325 $316 #
plane-surface $-1 0 25.139977548670633 0 0 -1 0 0 0 -1 forward_v I I I I #
coedge $-1 $614 $319 $473 $615 reversed $193 $-1 #
coedge $-1 $319 $614 $324 $481 reversed $193 $-1 #
coedge $-1 $325 $476 $319 $472 forward $467 $-1 #
edge $-1 $616 2.9718749898089847 $483 6.714461323203377 $471 $617 forward 7 unknown #
coedge $-1 $321 $320 $469 $615 forward $121 $-1 #
coedge $-1 $486 $485 $320 $475 forward $317 $-1 #
edge $-1 $618 14.259439598442523 $478 22.339151612677735 $474 $619 forward 7 unknown #
coedge $-1 $471 $482 $321 $477 forward $467 $-1 #
edge $-1 $479 -22.339151612677735 $616 -14.259439598442523 $476 $620 forward 7 unknown #
vertex $-1 $323 $621 #
vertex $-1 $323 $622 #
straight-curve $-1 40.638447218237864 0 7.8150431463151655 0 1 0 I I #
edge $-1 $483 -25.139977548670633 $487 25.139977548670633 $470 $623 forward 7 unknown #
coedge $-1 $476 $325 $330 $490 forward $467 $-1 #
vertex $-1 $326 $624 #
straight-curve $-1 18.299295605560129 25.139977548670633 11.557629479709558 1 0 0 I I #
coedge $-1 $474 $327 $614 $625 forward $317 $-1 #
coedge $-1 $327 $474 $329 $489 reversed $317 $-1 #
vertex $-1 $328 $626 #
straight-curve $-1 18.299295605560129 -25.139977548670633 11.557629479709558 -1 0 0 I I #
edge $-1 $333 -11.557629479709558 $478 -7.8150431463151655 $329 $627 forward 7 unknown #
edge $-1 $332 -11.557629479709558 $479 -7.8150431463151655 $330 $628 forward 7 unknown #
point $-1 40.638447218237864 25.139977548670633 11.557629479709558 #
point $-1 40.638447218237864 -25.139977548670633 11.557629479709558 #
loop $-1 $-1 $343 $335 #
plane-surface $-1 0 0 12.057629479709558 0 0 1 1 0 0 forward_v I I I I #
coedge $-1 $496 $338 $340 $500 reversed $201 $-1 #
coedge $-1 $338 $495 $629 $630 reversed $201 $-1 #
coedge $-1 $346 $341 $338 $498 forward $336 $-1 #
edge $-1 $501 -45.253275313801957 $631 -37.858941507260539 $497 $632 forward 7 unknown #
coedge $-1 $340 $339 $504 $633 reversed $125 $-1 #
edge $-1 $634 37.993233383080991 $501 50.279955097341258 $495 $635 forward 7 unknown #
vertex $-1 $342 $636 #
straight-curve $-1 -9.8730278303862296 25.139977548670633 4.6632956731681396 -1 0 0 I I #
coedge $-1 $629 $343 $346 $508 forward $493 $-1 #
coedge $-1 $343 $629 $499 $633 forward $493 $-1 #
vertex $-1 $344 $637 #
straight-curve $-1 -12.510339551407938 16.949138489636631 12.057629479709561 0 1 0 I I #
straight-curve $-1 -12.510339551407938 -15.015379746980159 34.922528397235638 0 -0.79863550430605224 0.6018150307709319 I I #
edge $-1 $347 12.510339551407938 $631 26.98177177013698 $346 $638 forward 7 unknown #
point $-1 -12.510339551407938 25.139977548670633 12.057629479709558 #
point $-1 -12.510339551407938 25.139977548670629 4.6632956731681432 #
edge $-1 $639 1 $639 0 $350 $-1 forward 7 unknown #
vertex $-1 $351 $640 #
ellipse-curve $-1 -24.087485326391175 18.240153423443196 5.7149748518109273 0 0.6018150307709319 0.79863550430605224 1 0 0 1 I I #
point $-1 -23.087485326391175 20.233671452402447 8.3604625764388523 #
edge $-1 $641 1 $641 0 $354 $-1 forward 7 unknown #
vertex $-1 $355 $642 #
ellipse-curve $-1 -19.746055660772463 18.240153423443196 5.7149748518109273 0 0.6018150307709319 0.79863550430605224 1 0 0 1 I I #
point $-1 -18.746055660772463 20.233671452402447 8.3604625764388523 #
edge $-1 $643 1 $643 0 $358 $-1 forward 7 unknown #
vertex $-1 $359 $644 #
ellipse-curve $-1 -15.404625995153751 18.240153423443196 5.7149748518109273 0 0.6018150307709319 0.79863550430605224 1 0 0 1 I I #
point $-1 -14.404625995153751 20.233671452402447 8.3604625764388523 #
plane-surface $-1 0 25.139977548670633 0 0 -1 0 0 0 -1 forward_v I I I I #
coedge $-1 $534 $533 $526 $645 forward $363 $-1 #
coedge $-1 $526 $365 $367 $530 reversed $230 $-1 #
coedge $-1 $365 $525 $524 $645 reversed $230 $-1 #
coedge $-1 $373 $368 $365 $528 forward $374 $-1 #
edge $-1 $531 -45.253275313801957 $646 -37.858941507260539 $527 $647 forward 7 unknown #
coedge $-1 $367 $366 $534 $648 reversed $144 $-1 #
edge $-1 $649 37.993233383080991 $531 50.279955097341258 $525 $650 forward 7 unknown #
vertex $-1 $369 $651 #
straight-curve $-1 6.406339771615098 25.139977548670633 4.6632956731681396 -1 0 0 I I #
coedge $-1 $524 $370 $373 $538 forward $363 $-1 #
coedge $-1 $370 $524 $529 $648 forward $363 $-1 #
vertex $-1 $371 $652 #
straight-curve $-1 20.048395652594717 16.949138489636631 12.057629479709561 0 1 0 I I #
straight-curve $-1 20.048395652594717 -15.015379746980159 34.922528397235638 0 -0.79863550430605224 0.6018150307709319 I I #
edge $-1 $375 -20.048395652594717 $646 -5.5769634338656742 $373 $653 forward 7 unknown #
point $-1 20.048395652594717 25.139977548670633 12.057629479709558 #
point $-1 20.048395652594717 25.139977548670629 4.6632956731681432 #
edge $-1 $654 1 $654 0 $378 $-1 forward 7 unknown #
vertex $-1 $379 $655 #
ellipse-curve $-1 8.4712498776114771 18.240153423443196 5.7149748518109273 0 0.6018150307709319 0.79863550430605224 1 0 0 1 I I #
point $-1 9.4712498776114771 20.233671452402447 8.3604625764388523 #
edge $-1 $656 1 $656 0 $382 $-1 forward 7 unknown #
vertex $-1 $383 $657 #
ellipse-curve $-1 12.812679543230189 18.240153423443196 5.7149748518109273 0 0.6018150307709319 0.79863550430605224 1 0 0 1 I I #
point $-1 13.812679543230189 20.233671452402447 8.3604625764388523 #
edge $-1 $658 1 $658 0 $386 $-1 forward 7 unknown #
vertex $-1 $387 $659 #
ellipse-curve $-1 17.154109208848901 18.240153423443196 5.7149748518109273 0 0.6018150307709319 0.79863550430605224 1 0 0 1 I I #
point $-1 18.154109208848901 20.233671452402447 8.3604625764388523 #
loop $-1 $-1 $660 $390 #
plane-surface $-1 0 0 12.057629479709558 0 0 1 1 0 0 forward_v I I I I #
coedge $-1 $556 $393 $401 $568 reversed $259 $-1 #
coedge $-1 $393 $555 $660 $661 reversed $259 $-1 #
coedge $-1 $562 $662 $395 $558 forward $553 $-1 #
edge $-1 $560 12.449537908746205 $566 20.371249176363282 $557 $663 forward 7 unknown #
coedge $-1 $401 $396 $662 $664 reversed $391 $-1 #
vertex $-1 $558 $665 #
straight-curve $-1 -14.260779676132877 -25.139977548670633 34.957788274712968 0 0 1 I I #
coedge $-1 $660 $557 $398 $563 forward $553 $-1 #
edge $-1 $566 2.5559009560989949 $564 20.853856483968769 $562 $666 forward 7 unknown #
vertex $-1 $661 $667 #
straight-curve $-1 -32.558735204002652 -25.139977548670643 5.8685102039928552 0 0.78801074757464917 0.61566148304635926 I I #
vertex $-1 $563 $668 #
straight-curve $-1 -14.260779676132877 -25.139977548670643 5.8685102039928552 0 -0.78801074757464917 -0.61566148304635926 I I #
edge $-1 $669 22.90015879500341 $402 29.089278070720106 $401 $670 forward 7 unknown #
point $-1 -32.558735204002652 -25.139977548670633 5.8685102039928632 #
point $-1 -14.260779676132877 -25.139977548670633 5.8685102039928632 #
edge $-1 $671 1 $671 0 $405 $-1 forward 7 unknown #
vertex $-1 $406 $672 #
ellipse-curve $-1 -27.330747910325574 -17.815220623404066 4.6574726192788818 0 -0.61566148304635926 0.78801074757464917 2.5 0 0 1 I I #
point $-1 -24.830747910325574 -21.179121914862087 8.9630698418512047 #
edge $-1 $673 1 $673 0 $409 $-1 forward 7 unknown #
vertex $-1 $410 $674 #
ellipse-curve $-1 -19.488766969809955 -17.815220623404066 4.6574726192788818 0 -0.61566148304635926 0.78801074757464917 2.5 0 0 1 I I #
point $-1 -16.988766969809955 -21.179121914862087 8.9630698418512047 #
plane-surface $-1 40.638447218237864 0 0 -1 0 0 0 0 1 forward_v I I I I #
coedge $-1 $418 $416 $420 $584 reversed $281 $-1 #
edge $-1 $431 -12.057629479709558 $586 12.057629479709558 $430 $675 forward 7 unknown #
vertex $-1 $584 $676 #
straight-curve $-1 -40.638447218237864 -25.139977548670633 0 0 0 -1 I I #
edge $-1 $582 -25.139977548670633 $586 25.139977548670633 $580 $677 forward 7 unknown #
straight-curve $-1 0 -25.139977548670633 -12.057629479709558 -1 0 0 I I #
vertex $-1 $423 $678 #
straight-curve $-1 0 25.139977548670633 -12.057629479709558 1 0 0 I I #
point $-1 40.638447218237864 25.139977548670633 -12.057629479709558 #
point $-1 40.638447218237864 -25.139977548670633 -12.057629479709558 #
straight-curve $-1 -40.638447218237864 0 12.057629479709558 0 -1 0 I I #
point $-1 -40.638447218237864 25.139977548670633 12.057629479709558 #
point $-1 -40.638447218237864 -25.139977548670633 12.057629479709558 #
straight-curve $-1 40.638447218237864 -25.139977548670633 0 0 0 -1 I I #
straight-curve $-1 40.638447218237864 25.139977548670633 0 0 0 -1 I I #
plane-surface $-1 0 25.139977548670633 0 0 -1 0 0 0 -1 forward_v I I I I #
coedge $-1 $606 $605 $446 $598 forward $441 $-1 #
straight-curve $-1 -32.558735204002652 -25.139977548670633 4.8431681565061808 0 0 1 I I #
edge $-1 $601 -25.139977548670633 $599 25.139977548670633 $596 $679 forward 7 unknown #
vertex $-1 $447 $680 #
straight-curve $-1 -18.299295605560129 -25.139977548670633 7.8150431463151655 1 0 0 I I #
vertex $-1 $449 $681 #
straight-curve $-1 -18.299295605560129 25.139977548670633 7.8150431463151655 -1 0 0 I I #
point $-1 -32.558735204002652 25.139977548670633 7.8150431463151655 #
point $-1 -32.558735204002652 -25.139977548670633 7.8150431463151655 #
coedge $-1 $596 $453 $456 $608 forward $441 $-1 #
coedge $-1 $453 $596 $460 $610 reversed $441 $-1 #
straight-curve $-1 -40.638447218237864 0 11.557629479709558 0 1 0 I I #
edge $-1 $458 -11.557629479709558 $601 -7.8150431463151655 $456 $682 forward 7 unknown #
point $-1 -40.638447218237864 25.139977548670633 11.557629479709558 #
edge $-1 $461 -11.557629479709558 $599 -7.8150431463151655 $606 $683 forward 7 unknown #
point $-1 -40.638447218237864 -25.139977548670633 11.557629479709558 #
straight-curve $-1 -32.558735204002652 25.139977548670633 4.8431681565061808 0 0 -1 I I #
plane-surface $-1 40.638447218237864 0 0 -1 0 0 0 0 1 forward_v I I I I #
coedge $-1 $470 $469 $485 $625 reversed $193 $-1 #
edge $-1 $618 -25.139977548670633 $616 25.139977548670633 $469 $684 forward 7 unknown #
vertex $-1 $477 $685 #
straight-curve $-1 32.558735204002652 25.139977548670633 4.8431681565061808 0 0 1 I I #
vertex $-1 $475 $686 #
straight-curve $-1 18.299295605560129 -25.139977548670633 7.8150431463151655 1 0 0 I I #
straight-curve $-1 18.299295605560129 25.139977548670633 7.8150431463151655 -1 0 0 I I #
point $-1 40.638447218237864 -25.139977548670633 7.8150431463151655 #
point $-1 40.638447218237864 25.139977548670633 7.8150431463151655 #
straight-curve $-1 32.558735204002652 0 11.557629479709558 0 -1 0 I I #
point $-1 32.558735204002652 25.139977548670633 11.557629479709558 #
edge $-1 $487 -6.714461323203377 $618 -2.9718749898089847 $485 $687 forward 7 unknown #
point $-1 32.558735204002652 -25.139977548670633 11.557629479709558 #
straight-curve $-1 40.638447218237864 -25.139977548670633 0 0 0 -1 I I #
straight-curve $-1 40.638447218237864 25.139977548670633 0 0 0 -1 I I #
coedge $-1 $504 $503 $496 $630 forward $493 $-1 #
edge $-1 $631 -8.1908390590340012 $634 1.6217731335023693 $629 $688 forward 7 unknown #
vertex $-1 $630 $689 #
straight-curve $-1 -26.98177177013698 25.139977548670633 49.9165709869701 0 0 1 I I #
edge $-1 $634 -17.108743939750752 $505 -2.6373117210217085 $504 $690 forward 7 unknown #
vertex $-1 $633 $691 #
straight-curve $-1 -26.98177177013698 -15.015379746980159 34.922528397235638 0 0.79863550430605224 -0.6018150307709319 I I #
point $-1 -26.98177177013698 25.139977548670629 4.6632956731681432 #
point $-1 -12.510339551407938 15.327365356134262 12.057629479709558 #
straight-curve $-1 0 25.139977548670633 12.057629479709558 -1 0 0 I I #
vertex $-1 $511 $692 #
point $-1 -23.087485326391175 18.240153423443196 5.7149748518109273 #
vertex $-1 $515 $693 #
point $-1 -18.746055660772463 18.240153423443196 5.7149748518109273 #
vertex $-1 $519 $694 #
point $-1 -14.404625995153751 18.240153423443196 5.7149748518109273 #
edge $-1 $646 -8.1908390590340012 $649 1.6217731335023693 $524 $695 forward 7 unknown #
vertex $-1 $645 $696 #
straight-curve $-1 5.5769634338656742 25.139977548670633 49.9165709869701 0 0 1 I I #
edge $-1 $649 -0.82937633774942388 $535 13.642055880979619 $534 $697 forward 7 unknown #
vertex $-1 $648 $698 #
straight-curve $-1 5.5769634338656742 -15.015379746980159 34.922528397235638 0 0.79863550430605224 -0.6018150307709319 I I #
point $-1 5.5769634338656742 25.139977548670629 4.6632956731681432 #
point $-1 20.048395652594717 15.327365356134262 12.057629479709558 #
straight-curve $-1 0 25.139977548670633 12.057629479709558 -1 0 0 I I #
vertex $-1 $541 $699 #
point $-1 9.4712498776114771 18.240153423443196 5.7149748518109273 #
vertex $-1 $545 $700 #
point $-1 13.812679543230189 18.240153423443196 5.7149748518109273 #
vertex $-1 $549 $701 #
point $-1 18.154109208848901 18.240153423443196 5.7149748518109273 #
coedge $-1 $662 $562 $556 $661 forward $553 $-1 #
edge $-1 $564 -20.371249176363282 $669 -12.449537908746205 $660 $702 forward 7 unknown #
coedge $-1 $557 $660 $559 $664 forward $553 $-1 #
straight-curve $-1 -14.260779676132877 -37.589515457416837 12.057629479709558 0 1 0 I I #
edge $-1 $669 -32.558735204002652 $560 -14.260779676132877 $559 $703 forward 7 unknown #
point $-1 -14.260779676132877 -25.139977548670633 12.057629479709558 #
straight-curve $-1 -11.704878720033882 -17.218266281053555 12.057629479709558 -1 0 0 I I #
point $-1 -32.558735204002652 -17.218266281053555 12.057629479709558 #
point $-1 -14.260779676132877 -17.218266281053555 12.057629479709558 #
vertex $-1 $664 $704 #
straight-curve $-1 -32.558735204002652 -25.139977548670633 34.957788274712968 0 0 -1 I I #
vertex $-1 $571 $705 #
point $-1 -24.830747910325574 -17.815220623404066 4.6574726192788818 #
vertex $-1 $575 $706 #
point $-1 -16.988766969809955 -17.815220623404066 4.6574726192788818 #
straight-curve $-1 -40.638447218237864 25.139977548670633 0 0 0 -1 I I #
point $-1 -40.638447218237864 -25.139977548670633 -12.057629479709558 #
straight-curve $-1 -40.638447218237864 0 -12.057629479709558 0 1 0 I I #
point $-1 -40.638447218237864 25.139977548670633 -12.057629479709558 #
straight-curve $-1 -40.638447218237864 0 7.8150431463151655 0 -1 0 I I #
point $-1 -40.638447218237864 -25.139977548670633 7.8150431463151655 #
point $-1 -40.638447218237864 25.139977548670633 7.8150431463151655 #
straight-curve $-1 -40.638447218237864 25.139977548670633 0 0 0 -1 I I #
straight-curve $-1 -40.638447218237864 -25.139977548670633 0 0 0 -1 I I #
straight-curve $-1 32.558735204002652 0 7.8150431463151655 0 1 0 I I #
point $-1 32.558735204002652 25.139977548670633 7.8150431463151655 #
point $-1 32.558735204002652 -25.139977548670633 7.8150431463151655 #
straight-curve $-1 32.558735204002652 -25.139977548670633 4.8431681565061808 0 0 -1 I I #
straight-curve $-1 -26.98177177013698 16.949138489636631 12.057629479709561 0 -1 0 I I #
point $-1 -26.98177177013698 25.139977548670633 12.057629479709558 #
straight-curve $-1 -9.8730278303862296 15.327365356134266 12.057629479709556 1 0 0 I I #
point $-1 -26.98177177013698 15.327365356134262 12.057629479709558 #
point $-1 -24.087485326391175 17.638338392672267 4.9163393475048753 #
point $-1 -19.746055660772463 17.638338392672267 4.9163393475048753 #
point $-1 -15.404625995153751 17.638338392672267 4.9163393475048753 #
straight-curve $-1 5.5769634338656742 16.949138489636631 12.057629479709561 0 -1 0 I I #
point $-1 5.5769634338656742 25.139977548670633 12.057629479709558 #
straight-curve $-1 6.406339771615098 15.327365356134266 12.057629479709556 1 0 0 I I #
point $-1 5.5769634338656742 15.327365356134262 12.057629479709558 #
point $-1 8.4712498776114771 17.638338392672267 4.9163393475048753 #
point $-1 12.812679543230189 17.638338392672267 4.9163393475048753 #
point $-1 17.154109208848901 17.638338392672267 4.9163393475048753 #
straight-curve $-1 -32.558735204002652 -37.589515457416837 12.057629479709558 0 -1 0 I I #
straight-curve $-1 0 -25.139977548670633 12.057629479709558 1 0 0 I I #
point $-1 -32.558735204002652 -25.139977548670633 12.057629479709558 #
point $-1 -27.330747910325574 -16.276066915788171 2.6874457503422589 #
point $-1 -19.488766969809955 -16.276066915788171 2.6874457503422589 #
End-of-ACIS-data 