500 0 16 0           
7 Unknown 11 ACIS 5.0 NT 24 Thu Mar 25 19:33:57 1999 
-1 9.9999999999999995e-007 1e-010 
body $-1 $16 $-1 $17 #
body $-1 $18 $-1 $19 #
body $-1 $20 $-1 $21 #
body $-1 $22 $-1 $23 #
body $-1 $24 $-1 $25 #
body $-1 $26 $-1 $27 #
body $-1 $28 $-1 $29 #
body $-1 $30 $-1 $31 #
body $-1 $32 $-1 $33 #
body $-1 $34 $-1 $35 #
body $-1 $36 $-1 $37 #
body $-1 $38 $-1 $39 #
body $-1 $40 $-1 $41 #
body $-1 $42 $-1 $43 #
body $-1 $44 $-1 $45 #
body $-1 $46 $-1 $47 #
lump $-1 $-1 $48 $0 #
transform $-1 1 0 0 0 1 0 0 0 1 77.396160771507908 36.715168402121613 14.170192745157957 1 rotate no_reflect no_shear #
lump $-1 $-1 $49 $1 #
transform $-1 1 0 0 0 1 0 0 0 1 77.396160771507908 36.715168402121613 14.170192745157957 1 rotate no_reflect no_shear #
lump $-1 $-1 $50 $2 #
transform $-1 1 0 0 0 1 0 0 0 1 77.396160771507908 36.715168402121613 14.170192745157957 1 rotate no_reflect no_shear #
lump $-1 $-1 $51 $3 #
transform $-1 1 0 0 0 1 0 0 0 1 77.396160771507908 36.715168402121613 14.170192745157957 1 rotate no_reflect no_shear #
lump $-1 $-1 $52 $4 #
transform $-1 1 0 0 0 1 0 0 0 1 77.396160771507908 36.715168402121613 14.170192745157957 1 rotate no_reflect no_shear #
lump $-1 $-1 $53 $5 #
transform $-1 1 0 0 0 1 0 0 0 1 77.396160771507908 36.715168402121613 14.170192745157957 1 rotate no_reflect no_shear #
lump $-1 $-1 $54 $6 #
transform $-1 1 0 0 0 1 0 0 0 1 77.396160771507908 36.715168402121613 14.170192745157957 1 rotate no_reflect no_shear #
lump $-1 $-1 $55 $7 #
transform $-1 1 0 0 0 1 0 0 0 1 77.396160771507908 36.715168402121613 14.170192745157957 1 rotate no_reflect no_shear #
lump $-1 $-1 $56 $8 #
transform $-1 1 0 0 0 1 0 0 0 1 77.396160771507908 36.715168402121613 14.170192745157957 1 rotate no_reflect no_shear #
lump $-1 $-1 $57 $9 #
transform $-1 1 0 0 0 1 0 0 0 1 77.396160771507908 36.715168402121613 14.170192745157957 1 rotate no_reflect no_shear #
lump $-1 $-1 $58 $10 #
transform $-1 1 0 0 0 1 0 0 0 1 77.396160771507908 36.715168402121613 14.170192745157957 1 rotate no_reflect no_shear #
lump $-1 $-1 $59 $11 #
transform $-1 1 0 0 0 1 0 0 0 1 77.396160771507908 36.715168402121613 14.170192745157957 1 rotate no_reflect no_shear #
lump $-1 $-1 $60 $12 #
transform $-1 1 0 0 0 1 0 0 0 1 77.396160771507908 36.715168402121613 14.170192745157957 1 rotate no_reflect no_shear #
lump $-1 $-1 $61 $13 #
transform $-1 1 0 0 0 1 0 0 0 1 77.396160771507908 36.715168402121613 14.170192745157957 1 rotate no_reflect no_shear #
lump $-1 $-1 $62 $14 #
transform $-1 1 0 0 0 1 0 0 0 1 77.396160771507908 36.715168402121613 14.170192745157957 1 rotate no_reflect no_shear #
lump $-1 $-1 $63 $15 #
transform $-1 1 0 0 0 1 0 0 0 1 77.396160771507908 36.715168402121613 14.170192745157957 1 rotate no_reflect no_shear #
shell $-1 $-1 $-1 $64 $-1 $16 #
shell $-1 $-1 $-1 $65 $-1 $18 #
shell $-1 $-1 $-1 $66 $-1 $20 #
shell $-1 $-1 $-1 $67 $-1 $22 #
shell $-1 $-1 $-1 $68 $-1 $24 #
shell $-1 $-1 $-1 $69 $-1 $26 #
shell $-1 $-1 $-1 $70 $-1 $28 #
shell $-1 $-1 $-1 $71 $-1 $30 #
shell $-1 $-1 $-1 $72 $-1 $32 #
shell $-1 $-1 $-1 $73 $-1 $34 #
shell $-1 $-1 $-1 $74 $-1 $36 #
shell $-1 $-1 $-1 $75 $-1 $38 #
shell $-1 $-1 $-1 $76 $-1 $40 #
shell $-1 $-1 $-1 $77 $-1 $42 #
shell $-1 $-1 $-1 $78 $-1 $44 #
shell $-1 $-1 $-1 $79 $-1 $46 #
face $-1 $80 $81 $48 $-1 $82 forward single #
face $-1 $83 $84 $49 $-1 $85 reversed single #
face $-1 $86 $87 $50 $-1 $88 reversed single #
face $-1 $89 $90 $51 $-1 $91 forward single #
face $-1 $92 $93 $52 $-1 $94 forward single #
face $-1 $95 $96 $53 $-1 $97 reversed single #
face $-1 $98 $99 $54 $-1 $100 forward single #
face $-1 $101 $102 $55 $-1 $103 forward single #
face $-1 $104 $105 $56 $-1 $106 reversed single #
face $-1 $107 $108 $57 $-1 $109 forward single #
face $-1 $110 $111 $58 $-1 $112 forward single #
face $-1 $113 $114 $59 $-1 $115 reversed single #
face $-1 $116 $117 $60 $-1 $118 forward single #
face $-1 $119 $120 $61 $-1 $121 forward single #
face $-1 $122 $123 $62 $-1 $124 reversed single #
face $-1 $125 $126 $63 $-1 $127 forward single #
face $-1 $128 $129 $48 $-1 $130 reversed single #
loop $-1 $-1 $131 $64 #
plane-surface $-1 0 0 14.170192745157957 0 0 1 1 0 0 forward_v I I I I #
face $-1 $132 $133 $49 $-1 $134 reversed single #
loop $-1 $-1 $135 $65 #
plane-surface $-1 0 -28.166153209654592 11.023404069679078 0 0 1 1 0 0 forward_v I I I I #
face $-1 $136 $137 $50 $-1 $138 reversed single #
loop $-1 $-1 $139 $66 #
plane-surface $-1 20.738240411569791 -9.7513966716669405 219.63860512484629 0 -1 0 -0.50000000669873634 0 -0.8660253999169214 forward_v I I I I #
face $-1 $140 $141 $51 $-1 $142 forward single #
loop $-1 $143 $144 $67 #
cone-surface $-1 71.965742736456207 -14.826591838900953 10.746264246653746 -0.50000000669873634 0 -0.8660253999169214 0.4330126999584607 0 -0.25000000334936817 1 I I 0 1 0.5 forward I I I I #
face $-1 $145 $146 $52 $-1 $147 forward single #
loop $-1 $148 $149 $68 #
cone-surface $-1 71.965742736456207 -11.781474738560544 10.746264246653746 -0.50000000669873634 0 -0.8660253999169214 0.4330126999584607 0 -0.25000000334936817 1 I I 0 1 0.5 forward I I I I #
face $-1 $150 $151 $53 $-1 $152 reversed single #
loop $-1 $-1 $153 $69 #
plane-surface $-1 20.738240411569791 4.3316799331603573 219.63860512484629 0 -1 0 -0.50000000669873634 0 -0.8660253999169214 forward_v I I I I #
face $-1 $154 $155 $54 $-1 $156 forward single #
loop $-1 $157 $158 $70 #
cone-surface $-1 71.965742736456207 -0.74351523407365505 10.746264246653746 -0.50000000669873634 0 -0.8660253999169214 0.4330126999584607 0 -0.25000000334936817 1 I I 0 1 0.5 forward I I I I #
face $-1 $159 $160 $55 $-1 $161 forward single #
loop $-1 $162 $163 $71 #
cone-surface $-1 71.965742736456207 2.3016018662667506 10.746264246653746 -0.50000000669873634 0 -0.8660253999169214 0.4330126999584607 0 -0.25000000334936817 1 I I 0 1 0.5 forward I I I I #
face $-1 $164 $165 $56 $-1 $166 reversed single #
loop $-1 $-1 $167 $72 #
plane-surface $-1 20.738240411569791 18.414756537987657 219.63860512484629 0 -1 0 -0.50000000669873634 0 -0.8660253999169214 forward_v I I I I #
face $-1 $168 $169 $57 $-1 $170 forward single #
loop $-1 $171 $172 $73 #
cone-surface $-1 71.965742736456207 13.339561370753643 10.746264246653746 -0.50000000669873634 0 -0.8660253999169214 0.4330126999584607 0 -0.25000000334936817 1 I I 0 1 0.5 forward I I I I #
face $-1 $173 $174 $58 $-1 $175 forward single #
loop $-1 $176 $177 $74 #
cone-surface $-1 71.965742736456207 16.384678471094048 10.746264246653746 -0.50000000669873634 0 -0.8660253999169214 0.4330126999584607 0 -0.25000000334936817 1 I I 0 1 0.5 forward I I I I #
face $-1 $178 $179 $59 $-1 $180 reversed single #
loop $-1 $-1 $181 $75 #
plane-surface $-1 20.738240411569791 32.497833142814947 219.63860512484629 0 -1 0 -0.50000000669873634 0 -0.8660253999169214 forward_v I I I I #
face $-1 $182 $183 $60 $-1 $184 forward single #
loop $-1 $185 $186 $76 #
cone-surface $-1 71.965742736456207 27.422637975580933 10.746264246653746 -0.50000000669873634 0 -0.8660253999169214 0.4330126999584607 0 -0.25000000334936817 1 I I 0 1 0.5 forward I I I I #
face $-1 $187 $188 $61 $-1 $189 forward single #
loop $-1 $190 $191 $77 #
cone-surface $-1 71.965742736456207 30.467755075921339 10.746264246653746 -0.50000000669873634 0 -0.8660253999169214 0.4330126999584607 0 -0.25000000334936817 1 I I 0 1 0.5 forward I I I I #
face $-1 $192 $193 $62 $-1 $194 reversed single #
loop $-1 $-1 $195 $78 #
plane-surface $-1 -163.95492961510107 25.931106105397735 131.72262657893484 0 1 0 -0.55919291073839883 0 0.82903756765294845 forward_v I I I I #
face $-1 $196 $197 $63 $-1 $198 forward single #
loop $-1 $199 $200 $79 #
cone-surface $-1 -67.723096573948879 31.323137253759676 6.2841685643010177 0.55919291073839883 0 -0.82903756765294845 1.6580751353058969 0 1.1183858214767977 1 I I 0 1 2 forward I I I I #
face $-1 $201 $202 $48 $-1 $203 reversed single #
loop $-1 $-1 $204 $80 #
plane-surface $-1 0 0 -14.170192745157957 0 0 1 1 0 0 forward_v I I I I #
coedge $-1 $205 $206 $207 $208 forward $81 $-1 #
face $-1 $209 $210 $49 $-1 $211 reversed single #
loop $-1 $-1 $212 $83 #
plane-surface $-1 0 -19.617138017187571 12.596798407418516 0 -1 0 0 0 -1 forward_v I I I I #
coedge $-1 $213 $214 $215 $216 reversed $84 $-1 #
face $-1 $217 $218 $50 $-1 $219 reversed single #
loop $-1 $-1 $220 $86 #
plane-surface $-1 -56.657921396851066 -13.30403328873075 85.584522956487319 0.50000000669873634 0 0.8660253999169214 0.8660253999169214 0 -0.50000000669873634 forward_v I I I I #
coedge $-1 $221 $222 $223 $224 reversed $87 $-1 #
face $-1 $-1 $225 $51 $-1 $226 forward single #
loop $-1 $227 $228 $89 #
cone-surface $-1 71.590742731432158 -14.826591838900953 10.096745196716055 -0.50000000669873634 0 -0.8660253999169214 0.21650634997923035 0 -0.12500000167468409 1 I I -0.70710678118654746 0.70710678118654746 0.25 forward I I I I #
loop $-1 $-1 $229 $67 #
coedge $-1 $144 $144 $230 $231 reversed $90 $-1 #
face $-1 $-1 $232 $52 $-1 $233 forward single #
loop $-1 $234 $235 $92 #
cone-surface $-1 71.590742731432158 -11.781474738560544 10.096745196716055 -0.50000000669873634 0 -0.8660253999169214 0.21650634997923035 0 -0.12500000167468409 1 I I -0.70710678118654746 0.70710678118654746 0.25 forward I I I I #
loop $-1 $-1 $236 $68 #
coedge $-1 $149 $149 $237 $238 reversed $93 $-1 #
face $-1 $239 $240 $53 $-1 $241 reversed single #
loop $-1 $-1 $242 $95 #
plane-surface $-1 -56.657921396851066 0.77904331609654776 85.584522956487319 0.50000000669873634 0 0.8660253999169214 0.8660253999169214 0 -0.50000000669873634 forward_v I I I I #
coedge $-1 $243 $244 $245 $246 reversed $96 $-1 #
face $-1 $-1 $247 $54 $-1 $248 forward single #
loop $-1 $249 $250 $98 #
cone-surface $-1 71.590742731432158 -0.74351523407365505 10.096745196716055 -0.50000000669873634 0 -0.8660253999169214 0.21650634997923035 0 -0.12500000167468409 1 I I -0.70710678118654746 0.70710678118654746 0.25 forward I I I I #
loop $-1 $-1 $251 $70 #
coedge $-1 $158 $158 $252 $253 reversed $99 $-1 #
face $-1 $-1 $254 $55 $-1 $255 forward single #
loop $-1 $256 $257 $101 #
cone-surface $-1 71.590742731432158 2.3016018662667506 10.096745196716055 -0.50000000669873634 0 -0.8660253999169214 0.21650634997923035 0 -0.12500000167468409 1 I I -0.70710678118654746 0.70710678118654746 0.25 forward I I I I #
loop $-1 $-1 $258 $71 #
coedge $-1 $163 $163 $259 $260 reversed $102 $-1 #
face $-1 $261 $262 $56 $-1 $263 reversed single #
loop $-1 $-1 $264 $104 #
plane-surface $-1 -56.657921396851066 14.862119920923845 85.584522956487319 0.50000000669873634 0 0.8660253999169214 0.8660253999169214 0 -0.50000000669873634 forward_v I I I I #
coedge $-1 $265 $266 $267 $268 reversed $105 $-1 #
face $-1 $-1 $269 $57 $-1 $270 forward single #
loop $-1 $271 $272 $107 #
cone-surface $-1 71.590742731432158 13.339561370753643 10.096745196716055 -0.50000000669873634 0 -0.8660253999169214 0.21650634997923035 0 -0.12500000167468409 1 I I -0.70710678118654746 0.70710678118654746 0.25 forward I I I I #
loop $-1 $-1 $273 $73 #
coedge $-1 $172 $172 $274 $275 reversed $108 $-1 #
face $-1 $-1 $276 $58 $-1 $277 forward single #
loop $-1 $278 $279 $110 #
cone-surface $-1 71.590742731432158 16.384678471094048 10.096745196716055 -0.50000000669873634 0 -0.8660253999169214 0.21650634997923035 0 -0.12500000167468409 1 I I -0.70710678118654746 0.70710678118654746 0.25 forward I I I I #
loop $-1 $-1 $280 $74 #
coedge $-1 $177 $177 $281 $282 reversed $111 $-1 #
face $-1 $283 $284 $59 $-1 $285 reversed single #
loop $-1 $-1 $286 $113 #
plane-surface $-1 -56.657921396851066 28.945196525751136 85.584522956487319 0.50000000669873634 0 0.8660253999169214 0.8660253999169214 0 -0.50000000669873634 forward_v I I I I #
coedge $-1 $287 $288 $289 $290 reversed $114 $-1 #
face $-1 $-1 $291 $60 $-1 $292 forward single #
loop $-1 $293 $294 $116 #
cone-surface $-1 71.590742731432158 27.422637975580933 10.096745196716055 -0.50000000669873634 0 -0.8660253999169214 0.21650634997923035 0 -0.12500000167468409 1 I I -0.70710678118654746 0.70710678118654746 0.25 forward I I I I #
loop $-1 $-1 $295 $76 #
coedge $-1 $186 $186 $296 $297 reversed $117 $-1 #
face $-1 $-1 $298 $61 $-1 $299 forward single #
loop $-1 $300 $301 $119 #
cone-surface $-1 71.590742731432158 30.467755075921339 10.096745196716055 -0.50000000669873634 0 -0.8660253999169214 0.21650634997923035 0 -0.12500000167468409 1 I I -0.70710678118654746 0.70710678118654746 0.25 forward I I I I #
loop $-1 $-1 $302 $77 #
coedge $-1 $191 $191 $303 $304 reversed $120 $-1 #
face $-1 $305 $306 $62 $-1 $307 forward single #
loop $-1 $-1 $308 $122 #
plane-surface $-1 -77.396160771507894 31.323137253759676 3.3939768355599256 -0.55919291073839883 0 0.82903756765294845 0.82903756765294845 0 0.55919291073839883 forward_v I I I I #
coedge $-1 $309 $310 $311 $312 reversed $123 $-1 #
face $-1 $-1 $313 $63 $-1 $314 forward single #
loop $-1 $315 $316 $125 #
cone-surface $-1 -65.479037862515256 31.323137253759676 2.9572147705901362 0.55919291073839883 0 -0.82903756765294845 0.82903756765294845 0 0.55919291073839883 1 I I -0.70710678118654746 0.70710678118654746 1 forward I I I I #
loop $-1 $-1 $317 $79 #
coedge $-1 $200 $200 $318 $319 reversed $126 $-1 #
face $-1 $320 $321 $48 $-1 $322 reversed single #
loop $-1 $-1 $323 $128 #
plane-surface $-1 0 -36.715168402121613 0 0 1 0 0 0 1 forward_v I I I I #
coedge $-1 $324 $325 $326 $327 forward $129 $-1 #
coedge $-1 $328 $131 $329 $330 forward $81 $-1 #
coedge $-1 $131 $328 $331 $332 forward $81 $-1 #
coedge $-1 $333 $334 $131 $208 reversed $335 $-1 #
edge $-1 $336 -36.715168402121613 $337 36.715168402121613 $207 $338 forward 7 unknown #
face $-1 $339 $340 $49 $-1 $341 reversed single #
loop $-1 $-1 $342 $132 #
plane-surface $-1 -77.396160771507908 0 0 1 0 0 0 0 -1 forward_v I I I I #
coedge $-1 $343 $344 $345 $346 reversed $133 $-1 #
coedge $-1 $347 $135 $348 $349 reversed $84 $-1 #
coedge $-1 $135 $347 $343 $350 forward $84 $-1 #
coedge $-1 $345 $351 $135 $216 forward $352 $-1 #
edge $-1 $353 -22.632091797294315 $354 -5.5340614123602752 $215 $355 forward 7 unknown #
face $-1 $356 $357 $50 $-1 $358 reversed single #
loop $-1 $-1 $359 $136 #
plane-surface $-1 20.738240411569791 -16.856669905794561 219.63860512484629 0 1 0 0.50000000669873634 0 0.8660253999169214 forward_v I I I I #
coedge $-1 $360 $361 $362 $363 reversed $137 $-1 #
coedge $-1 $222 $139 $364 $365 reversed $87 $-1 #
coedge $-1 $139 $221 $360 $366 reversed $87 $-1 #
coedge $-1 $362 $367 $139 $224 forward $368 $-1 #
edge $-1 $369 -67.027040565723013 $370 -56.666204502318323 $223 $371 forward 7 unknown #
loop $-1 $-1 $230 $140 #
plane-surface $-1 -56.657921396851066 -13.30403328873075 85.584522956487319 0.50000000669873634 0 0.8660253999169214 0.8660253999169214 0 -0.50000000669873634 forward_v I I I I #
loop $-1 $-1 $372 $89 #
coedge $-1 $228 $228 $229 $373 reversed $141 $-1 #
coedge $-1 $229 $229 $228 $373 forward $143 $-1 #
coedge $-1 $230 $230 $144 $231 forward $225 $-1 #
edge $-1 $374 0 $374 6.2831853071796004 $230 $375 forward 7 unknown #
loop $-1 $-1 $237 $145 #
plane-surface $-1 -56.657921396851066 -13.30403328873075 85.584522956487319 0.50000000669873634 0 0.8660253999169214 0.8660253999169214 0 -0.50000000669873634 forward_v I I I I #
loop $-1 $-1 $376 $92 #
coedge $-1 $235 $235 $236 $377 reversed $146 $-1 #
coedge $-1 $236 $236 $235 $377 forward $148 $-1 #
coedge $-1 $237 $237 $149 $238 forward $232 $-1 #
edge $-1 $378 0 $378 6.2831853071796004 $237 $379 forward 7 unknown #
face $-1 $380 $381 $53 $-1 $382 reversed single #
loop $-1 $-1 $383 $150 #
plane-surface $-1 20.738240411569791 -2.7735933009672618 219.63860512484629 0 1 0 0.50000000669873634 0 0.8660253999169214 forward_v I I I I #
coedge $-1 $384 $385 $386 $387 reversed $151 $-1 #
coedge $-1 $244 $153 $388 $389 reversed $96 $-1 #
coedge $-1 $153 $243 $384 $390 reversed $96 $-1 #
coedge $-1 $386 $391 $153 $246 forward $392 $-1 #
edge $-1 $393 -67.027040565723013 $394 -56.666204502318323 $245 $395 forward 7 unknown #
loop $-1 $-1 $252 $154 #
plane-surface $-1 -56.657921396851066 0.77904331609654776 85.584522956487319 0.50000000669873634 0 0.8660253999169214 0.8660253999169214 0 -0.50000000669873634 forward_v I I I I #
loop $-1 $-1 $396 $98 #
coedge $-1 $250 $250 $251 $397 reversed $155 $-1 #
coedge $-1 $251 $251 $250 $397 forward $157 $-1 #
coedge $-1 $252 $252 $158 $253 forward $247 $-1 #
edge $-1 $398 0 $398 6.2831853071796004 $252 $399 forward 7 unknown #
loop $-1 $-1 $259 $159 #
plane-surface $-1 -56.657921396851066 0.77904331609654776 85.584522956487319 0.50000000669873634 0 0.8660253999169214 0.8660253999169214 0 -0.50000000669873634 forward_v I I I I #
loop $-1 $-1 $400 $101 #
coedge $-1 $257 $257 $258 $401 reversed $160 $-1 #
coedge $-1 $258 $258 $257 $401 forward $162 $-1 #
coedge $-1 $259 $259 $163 $260 forward $254 $-1 #
edge $-1 $402 0 $402 6.2831853071796004 $259 $403 forward 7 unknown #
face $-1 $404 $405 $56 $-1 $406 reversed single #
loop $-1 $-1 $407 $164 #
plane-surface $-1 20.738240411569791 11.309483303860036 219.63860512484629 0 1 0 0.50000000669873634 0 0.8660253999169214 forward_v I I I I #
coedge $-1 $408 $409 $410 $411 reversed $165 $-1 #
coedge $-1 $266 $167 $412 $413 reversed $105 $-1 #
coedge $-1 $167 $265 $408 $414 reversed $105 $-1 #
coedge $-1 $410 $415 $167 $268 forward $416 $-1 #
edge $-1 $417 -67.027040565723013 $418 -56.666204502318323 $267 $419 forward 7 unknown #
loop $-1 $-1 $274 $168 #
plane-surface $-1 -56.657921396851066 14.862119920923845 85.584522956487319 0.50000000669873634 0 0.8660253999169214 0.8660253999169214 0 -0.50000000669873634 forward_v I I I I #
loop $-1 $-1 $420 $107 #
coedge $-1 $272 $272 $273 $421 reversed $169 $-1 #
coedge $-1 $273 $273 $272 $421 forward $171 $-1 #
coedge $-1 $274 $274 $172 $275 forward $269 $-1 #
edge $-1 $422 0 $422 6.2831853071796004 $274 $423 forward 7 unknown #
loop $-1 $-1 $281 $173 #
plane-surface $-1 -56.657921396851066 14.862119920923845 85.584522956487319 0.50000000669873634 0 0.8660253999169214 0.8660253999169214 0 -0.50000000669873634 forward_v I I I I #
loop $-1 $-1 $424 $110 #
coedge $-1 $279 $279 $280 $425 reversed $174 $-1 #
coedge $-1 $280 $280 $279 $425 forward $176 $-1 #
coedge $-1 $281 $281 $177 $282 forward $276 $-1 #
edge $-1 $426 0 $426 6.2831853071796004 $281 $427 forward 7 unknown #
face $-1 $428 $429 $59 $-1 $430 reversed single #
loop $-1 $-1 $431 $178 #
plane-surface $-1 20.738240411569791 25.392559908687325 219.63860512484629 0 1 0 0.50000000669873634 0 0.8660253999169214 forward_v I I I I #
coedge $-1 $432 $433 $434 $435 reversed $179 $-1 #
coedge $-1 $288 $181 $436 $437 reversed $114 $-1 #
coedge $-1 $181 $287 $432 $438 reversed $114 $-1 #
coedge $-1 $434 $439 $181 $290 forward $440 $-1 #
edge $-1 $441 -67.027040565723013 $442 -56.666204502318323 $289 $443 forward 7 unknown #
loop $-1 $-1 $296 $182 #
plane-surface $-1 -56.657921396851066 28.945196525751136 85.584522956487319 0.50000000669873634 0 0.8660253999169214 0.8660253999169214 0 -0.50000000669873634 forward_v I I I I #
loop $-1 $-1 $444 $116 #
coedge $-1 $294 $294 $295 $445 reversed $183 $-1 #
coedge $-1 $295 $295 $294 $445 forward $185 $-1 #
coedge $-1 $296 $296 $186 $297 forward $291 $-1 #
edge $-1 $446 0 $446 6.2831853071796004 $296 $447 forward 7 unknown #
loop $-1 $-1 $303 $187 #
plane-surface $-1 -56.657921396851066 28.945196525751136 85.584522956487319 0.50000000669873634 0 0.8660253999169214 0.8660253999169214 0 -0.50000000669873634 forward_v I I I I #
loop $-1 $-1 $448 $119 #
coedge $-1 $301 $301 $302 $449 reversed $188 $-1 #
coedge $-1 $302 $302 $301 $449 forward $190 $-1 #
coedge $-1 $303 $303 $191 $304 forward $298 $-1 #
edge $-1 $450 0 $450 6.2831853071796004 $303 $451 forward 7 unknown #
face $-1 $452 $453 $62 $-1 $454 reversed single #
loop $-1 $-1 $311 $192 #
plane-surface $-1 0 0 14.170192745157957 0 0 1 1 0 0 forward_v I I I I #
coedge $-1 $455 $456 $457 $458 reversed $193 $-1 #
coedge $-1 $310 $195 $459 $460 reversed $123 $-1 #
coedge $-1 $195 $309 $455 $461 reversed $123 $-1 #
coedge $-1 $457 $462 $195 $312 forward $306 $-1 #
edge $-1 $463 4.5813040360426243 $464 20.557700829770233 $311 $465 forward 7 unknown #
loop $-1 $-1 $318 $196 #
plane-surface $-1 -77.396160771507894 31.323137253759676 3.3939768355599256 -0.55919291073839883 0 0.82903756765294845 0.82903756765294845 0 0.55919291073839883 forward_v I I I I #
loop $-1 $-1 $466 $125 #
coedge $-1 $316 $316 $317 $467 reversed $197 $-1 #
coedge $-1 $317 $317 $316 $467 forward $199 $-1 #
coedge $-1 $318 $318 $200 $319 forward $313 $-1 #
edge $-1 $468 0 $468 6.2831853071796004 $318 $469 forward 7 unknown #
face $-1 $470 $471 $48 $-1 $472 reversed single #
loop $-1 $-1 $473 $201 #
plane-surface $-1 -77.396160771507908 0 0 1 0 0 0 0 -1 forward_v I I I I #
coedge $-1 $474 $331 $475 $476 forward $202 $-1 #
coedge $-1 $477 $204 $474 $478 forward $129 $-1 #
coedge $-1 $204 $477 $479 $480 forward $129 $-1 #
coedge $-1 $334 $333 $204 $327 reversed $335 $-1 #
edge $-1 $481 -36.715168402121613 $482 36.715168402121613 $326 $483 forward 7 unknown #
coedge $-1 $206 $205 $484 $485 forward $81 $-1 #
coedge $-1 $486 $487 $205 $330 reversed $471 $-1 #
edge $-1 $337 -77.396160771507908 $488 77.396160771507908 $329 $489 forward 7 unknown #
coedge $-1 $323 $490 $206 $332 reversed $202 $-1 #
edge $-1 $491 -77.396160771507908 $336 77.396160771507908 $331 $492 forward 7 unknown #
coedge $-1 $326 $207 $490 $493 forward $335 $-1 #
coedge $-1 $207 $326 $486 $494 reversed $335 $-1 #
loop $-1 $-1 $333 $470 #
vertex $-1 $208 $495 #
vertex $-1 $208 $496 #
straight-curve $-1 77.396160771507908 0 14.170192745157957 0 1 0 I I #
face $-1 $497 $498 $49 $-1 $499 forward single #
loop $-1 $-1 $348 $209 #
plane-surface $-1 0 -36.715168402121613 0 0 1 0 0 0 1 forward_v I I I I #
coedge $-1 $500 $501 $502 $503 forward $210 $-1 #
coedge $-1 $502 $212 $214 $350 reversed $133 $-1 #
coedge $-1 $212 $502 $504 $505 reversed $133 $-1 #
coedge $-1 $506 $215 $212 $346 forward $352 $-1 #
edge $-1 $354 4.7250048659698196 $507 7.8717935414486968 $345 $508 forward 7 unknown #
coedge $-1 $214 $213 $500 $509 reversed $84 $-1 #
coedge $-1 $510 $511 $213 $349 forward $340 $-1 #
edge $-1 $512 -77.396160771507908 $353 77.396160771507908 $348 $513 forward 7 unknown #
edge $-1 $514 -77.396160771507908 $354 77.396160771507908 $343 $515 forward 7 unknown #
coedge $-1 $215 $506 $510 $516 forward $352 $-1 #
loop $-1 $-1 $345 $497 #
vertex $-1 $349 $517 #
vertex $-1 $216 $518 #
straight-curve $-1 77.396160771507908 -14.083076604827296 11.023404069679078 0 1 0 I I #
face $-1 $-1 $368 $50 $-1 $519 forward single #
loop $-1 $-1 $520 $217 #
plane-surface $-1 77.396160771507908 0 0 -1 0 0 0 0 1 forward_v I I I I #
coedge $-1 $521 $522 $523 $524 reversed $218 $-1 #
coedge $-1 $525 $220 $222 $366 forward $137 $-1 #
coedge $-1 $220 $525 $521 $526 forward $137 $-1 #
coedge $-1 $523 $223 $220 $363 forward $368 $-1 #
edge $-1 $370 3.0993800273015655 $527 10.204653261429186 $362 $528 forward 7 unknown #
coedge $-1 $529 $530 $221 $365 forward $357 $-1 #
edge $-1 $531 -101.6309414143567 $369 -95.649109817265185 $364 $532 forward 7 unknown #
edge $-1 $370 142.82865850911566 $531 154.79232154301585 $222 $533 forward 7 unknown #
coedge $-1 $223 $523 $529 $534 forward $368 $-1 #
loop $-1 $-1 $523 $356 #
vertex $-1 $365 $535 #
vertex $-1 $224 $536 #
straight-curve $-1 10.369120205784895 -9.7513966716669405 14.170192745157962 -1 0 0 I I #
coedge $-1 $372 $372 $-1 $537 reversed $227 $-1 #
edge $-1 $538 0 $538 6.2831853071796004 $228 $539 forward 7 unknown #
vertex $-1 $231 $540 #
ellipse-curve $-1 72.215742739805563 -14.826591838900953 11.179276946612195 0.50000000669873634 0 0.8660253999169214 0.4330126999584607 0 -0.25000000334936817 1 I I #
coedge $-1 $376 $376 $-1 $541 reversed $234 $-1 #
edge $-1 $542 0 $542 6.2831853071796004 $235 $543 forward 7 unknown #
vertex $-1 $238 $544 #
ellipse-curve $-1 72.215742739805563 -11.781474738560544 11.179276946612195 0.50000000669873634 0 0.8660253999169214 0.4330126999584607 0 -0.25000000334936817 1 I I #
face $-1 $-1 $392 $53 $-1 $545 forward single #
loop $-1 $-1 $546 $239 #
plane-surface $-1 77.396160771507908 0 0 -1 0 0 0 0 1 forward_v I I I I #
coedge $-1 $547 $548 $549 $550 reversed $240 $-1 #
coedge $-1 $551 $242 $244 $390 forward $151 $-1 #
coedge $-1 $242 $551 $547 $552 forward $151 $-1 #
coedge $-1 $549 $245 $242 $387 forward $392 $-1 #
edge $-1 $394 -3.9421582751120834 $553 3.1631149590155356 $386 $554 forward 7 unknown #
coedge $-1 $555 $556 $243 $389 forward $381 $-1 #
edge $-1 $557 -101.6309414143567 $393 -95.649109817265185 $388 $558 forward 7 unknown #
edge $-1 $394 142.82865850911566 $557 154.79232154301585 $244 $559 forward 7 unknown #
coedge $-1 $245 $549 $555 $560 forward $392 $-1 #
loop $-1 $-1 $549 $380 #
vertex $-1 $389 $561 #
vertex $-1 $246 $562 #
straight-curve $-1 10.369120205784895 4.3316799331603573 14.170192745157962 -1 0 0 I I #
coedge $-1 $396 $396 $-1 $563 reversed $249 $-1 #
edge $-1 $564 0 $564 6.2831853071796004 $250 $565 forward 7 unknown #
vertex $-1 $253 $566 #
ellipse-curve $-1 72.215742739805563 -0.74351523407365505 11.179276946612195 0.50000000669873634 0 0.8660253999169214 0.4330126999584607 0 -0.25000000334936817 1 I I #
coedge $-1 $400 $400 $-1 $567 reversed $256 $-1 #
edge $-1 $568 0 $568 6.2831853071796004 $257 $569 forward 7 unknown #
vertex $-1 $260 $570 #
ellipse-curve $-1 72.215742739805563 2.3016018662667506 11.179276946612195 0.50000000669873634 0 0.8660253999169214 0.4330126999584607 0 -0.25000000334936817 1 I I #
face $-1 $-1 $416 $56 $-1 $571 forward single #
loop $-1 $-1 $572 $261 #
plane-surface $-1 77.396160771507908 0 0 -1 0 0 0 0 1 forward_v I I I I #
coedge $-1 $573 $574 $575 $576 reversed $262 $-1 #
coedge $-1 $577 $264 $266 $414 forward $165 $-1 #
coedge $-1 $264 $577 $573 $578 forward $165 $-1 #
coedge $-1 $575 $267 $264 $411 forward $416 $-1 #
edge $-1 $418 -10.983696577525734 $579 -3.8784233433981132 $410 $580 forward 7 unknown #
coedge $-1 $581 $582 $265 $413 forward $405 $-1 #
edge $-1 $583 -101.6309414143567 $417 -95.649109817265185 $412 $584 forward 7 unknown #
edge $-1 $418 142.82865850911566 $583 154.79232154301585 $266 $585 forward 7 unknown #
coedge $-1 $267 $575 $581 $586 forward $416 $-1 #
loop $-1 $-1 $575 $404 #
vertex $-1 $413 $587 #
vertex $-1 $268 $588 #
straight-curve $-1 10.369120205784895 18.414756537987657 14.170192745157962 -1 0 0 I I #
coedge $-1 $420 $420 $-1 $589 reversed $271 $-1 #
edge $-1 $590 0 $590 6.2831853071796004 $272 $591 forward 7 unknown #
vertex $-1 $275 $592 #
ellipse-curve $-1 72.215742739805563 13.339561370753643 11.179276946612195 0.50000000669873634 0 0.8660253999169214 0.4330126999584607 0 -0.25000000334936817 1 I I #
coedge $-1 $424 $424 $-1 $593 reversed $278 $-1 #
edge $-1 $594 0 $594 6.2831853071796004 $279 $595 forward 7 unknown #
vertex $-1 $282 $596 #
ellipse-curve $-1 72.215742739805563 16.384678471094048 11.179276946612195 0.50000000669873634 0 0.8660253999169214 0.4330126999584607 0 -0.25000000334936817 1 I I #
face $-1 $-1 $440 $59 $-1 $597 forward single #
loop $-1 $-1 $598 $283 #
plane-surface $-1 77.396160771507908 0 0 -1 0 0 0 0 1 forward_v I I I I #
coedge $-1 $599 $600 $601 $602 reversed $284 $-1 #
coedge $-1 $603 $286 $288 $438 forward $179 $-1 #
coedge $-1 $286 $603 $599 $604 forward $179 $-1 #
coedge $-1 $601 $289 $286 $435 forward $440 $-1 #
edge $-1 $442 -18.025234879939379 $605 -10.919961645811757 $434 $606 forward 7 unknown #
coedge $-1 $607 $608 $287 $437 forward $429 $-1 #
edge $-1 $609 -101.6309414143567 $441 -95.649109817265185 $436 $610 forward 7 unknown #
edge $-1 $442 142.82865850911566 $609 154.79232154301585 $288 $611 forward 7 unknown #
coedge $-1 $289 $601 $607 $612 forward $440 $-1 #
loop $-1 $-1 $601 $428 #
vertex $-1 $437 $613 #
vertex $-1 $290 $614 #
straight-curve $-1 10.369120205784895 32.497833142814947 14.170192745157962 -1 0 0 I I #
coedge $-1 $444 $444 $-1 $615 reversed $293 $-1 #
edge $-1 $616 0 $616 6.2831853071796004 $294 $617 forward 7 unknown #
vertex $-1 $297 $618 #
ellipse-curve $-1 72.215742739805563 27.422637975580933 11.179276946612195 0.50000000669873634 0 0.8660253999169214 0.4330126999584607 0 -0.25000000334936817 1 I I #
coedge $-1 $448 $448 $-1 $619 reversed $300 $-1 #
edge $-1 $620 0 $620 6.2831853071796004 $301 $621 forward 7 unknown #
vertex $-1 $304 $622 #
ellipse-curve $-1 72.215742739805563 30.467755075921339 11.179276946612195 0.50000000669873634 0 0.8660253999169214 0.4330126999584607 0 -0.25000000334936817 1 I I #
face $-1 $-1 $623 $62 $-1 $624 reversed single #
loop $-1 $-1 $625 $305 #
plane-surface $-1 0 36.715168402121613 0 0 -1 0 0 0 -1 forward_v I I I I #
coedge $-1 $626 $308 $310 $461 forward $193 $-1 #
coedge $-1 $308 $626 $625 $627 reversed $193 $-1 #
coedge $-1 $628 $311 $308 $458 forward $306 $-1 #
edge $-1 $464 10.269537478517897 $629 21.053599775241782 $457 $630 forward 7 unknown #
coedge $-1 $631 $632 $309 $460 forward $623 $-1 #
edge $-1 $633 -62.4673364539075 $463 -51.691120544309463 $459 $634 forward 7 unknown #
edge $-1 $464 -19.271016678963857 $633 1.7244626260799089e-014 $310 $635 forward 7 unknown #
coedge $-1 $311 $628 $631 $636 forward $306 $-1 #
vertex $-1 $460 $637 #
vertex $-1 $312 $638 #
straight-curve $-1 -81.977464807550533 25.931106105397735 14.170192745157955 1 0 0 I I #
coedge $-1 $466 $466 $-1 $639 reversed $315 $-1 #
edge $-1 $640 0 $640 6.2831853071796004 $316 $641 forward 7 unknown #
vertex $-1 $319 $642 #
ellipse-curve $-1 -69.4079623746441 31.323137253759676 8.7820847903589367 -0.55919291073839883 0 0.82903756765294845 1.6580751353058969 0 1.1183858214767977 1 I I #
face $-1 $-1 $335 $48 $-1 $643 reversed single #
loop $-1 $-1 $486 $320 #
plane-surface $-1 0 36.715168402121613 0 0 -1 0 0 0 -1 forward_v I I I I #
coedge $-1 $644 $484 $487 $645 forward $321 $-1 #
coedge $-1 $490 $323 $324 $478 reversed $202 $-1 #
coedge $-1 $484 $644 $323 $476 reversed $321 $-1 #
edge $-1 $491 -14.170192745157957 $646 14.170192745157957 $475 $647 forward 7 unknown #
coedge $-1 $325 $324 $644 $648 forward $129 $-1 #
edge $-1 $482 -77.396160771507908 $646 77.396160771507908 $474 $649 forward 7 unknown #
coedge $-1 $487 $486 $325 $480 reversed $471 $-1 #
edge $-1 $650 -77.396160771507908 $481 77.396160771507908 $479 $651 forward 7 unknown #
vertex $-1 $327 $652 #
vertex $-1 $493 $653 #
straight-curve $-1 77.396160771507908 0 -14.170192745157957 0 -1 0 I I #
coedge $-1 $473 $475 $328 $485 reversed $321 $-1 #
edge $-1 $488 -36.715168402121613 $491 36.715168402121613 $484 $654 forward 7 unknown #
coedge $-1 $479 $329 $334 $494 forward $471 $-1 #
coedge $-1 $329 $479 $473 $645 reversed $471 $-1 #
vertex $-1 $330 $655 #
straight-curve $-1 0 36.715168402121613 14.170192745157957 -1 0 0 I I #
coedge $-1 $331 $474 $333 $493 reversed $202 $-1 #
vertex $-1 $485 $656 #
straight-curve $-1 0 -36.715168402121613 14.170192745157957 1 0 0 I I #
edge $-1 $336 -14.170192745157957 $482 14.170192745157957 $333 $657 forward 7 unknown #
edge $-1 $337 -14.170192745157957 $481 14.170192745157957 $334 $658 forward 7 unknown #
point $-1 77.396160771507908 -36.715168402121613 14.170192745157957 #
point $-1 77.396160771507908 36.715168402121613 14.170192745157957 #
face $-1 $-1 $352 $49 $-1 $659 reversed single #
loop $-1 $-1 $504 $339 #
plane-surface $-1 0 0 14.170192745157957 0 0 1 1 0 0 forward_v I I I I #
coedge $-1 $660 $342 $347 $509 forward $210 $-1 #
coedge $-1 $342 $660 $661 $662 reversed $210 $-1 #
coedge $-1 $344 $343 $342 $503 reversed $133 $-1 #
edge $-1 $663 -7.8717935414486968 $514 -4.7250048659698196 $342 $664 forward 7 unknown #
coedge $-1 $661 $665 $344 $505 forward $498 $-1 #
edge $-1 $507 -77.396160771507908 $663 77.396160771507908 $504 $666 forward 7 unknown #
coedge $-1 $351 $345 $665 $667 reversed $352 $-1 #
vertex $-1 $346 $668 #
straight-curve $-1 77.396160771507908 -19.617138017187571 6.2983992037092582 0 0 1 I I #
edge $-1 $514 5.5340614123602752 $512 22.632091797294315 $500 $669 forward 7 unknown #
coedge $-1 $670 $348 $351 $516 reversed $340 $-1 #
coedge $-1 $348 $670 $660 $671 forward $340 $-1 #
vertex $-1 $349 $672 #
straight-curve $-1 0 -36.715168402121613 11.023404069679078 1 0 0 I I #
vertex $-1 $509 $673 #
straight-curve $-1 0 -19.617138017187571 11.023404069679078 1 0 0 I I #
edge $-1 $674 -14.170192745157957 $353 -11.023404069679078 $351 $675 forward 7 unknown #
point $-1 77.396160771507908 -36.715168402121613 11.023404069679078 #
point $-1 77.396160771507908 -19.617138017187571 11.023404069679078 #
plane-surface $-1 0 0 14.170192745157957 0 0 1 1 0 0 forward_v I I I I #
coedge $-1 $530 $529 $522 $676 forward $357 $-1 #
coedge $-1 $522 $359 $361 $526 reversed $218 $-1 #
coedge $-1 $359 $521 $520 $676 reversed $218 $-1 #
coedge $-1 $367 $362 $359 $524 forward $368 $-1 #
edge $-1 $527 56.666204502318323 $677 67.027040565723013 $523 $678 forward 7 unknown #
coedge $-1 $361 $360 $530 $679 reversed $137 $-1 #
edge $-1 $680 -154.79232154301585 $527 -142.82865850911566 $521 $681 forward 7 unknown #
vertex $-1 $363 $682 #
straight-curve $-1 67.035324708103246 -6.652016644365375 14.170192745157955 0 -1 0 I I #
coedge $-1 $520 $364 $367 $534 reversed $357 $-1 #
coedge $-1 $364 $520 $525 $679 forward $357 $-1 #
vertex $-1 $365 $683 #
straight-curve $-1 77.396160771507908 -9.7513966716669405 109.81930256242315 0 0 1 I I #
straight-curve $-1 -56.657921396851066 -9.7513966716669405 85.584522956487319 0.8660253999169214 0 -0.50000000669873634 I I #
edge $-1 $677 -16.856669905794561 $369 -9.7513966716669405 $529 $684 forward 7 unknown #
point $-1 77.396160771507908 -9.7513966716669405 14.170192745157957 #
point $-1 67.035324708103218 -9.7513966716669405 14.170192745157962 #
edge $-1 $685 1 $685 0 $372 $-1 forward 7 unknown #
vertex $-1 $373 $686 #
ellipse-curve $-1 71.715742733106836 -14.826591838900953 10.313251546695286 0.50000000669873634 0 0.8660253999169214 0.4330126999584607 0 -0.25000000334936817 1 I I #
point $-1 72.648755439764045 -14.826591838900953 10.929276943262838 #
edge $-1 $687 1 $687 0 $376 $-1 forward 7 unknown #
vertex $-1 $377 $688 #
ellipse-curve $-1 71.715742733106836 -11.781474738560544 10.313251546695286 0.50000000669873634 0 0.8660253999169214 0.4330126999584607 0 -0.25000000334936817 1 I I #
point $-1 72.648755439764045 -11.781474738560544 10.929276943262838 #
plane-surface $-1 0 0 14.170192745157957 0 0 1 1 0 0 forward_v I I I I #
coedge $-1 $556 $555 $548 $689 forward $381 $-1 #
coedge $-1 $548 $383 $385 $552 reversed $240 $-1 #
coedge $-1 $383 $547 $546 $689 reversed $240 $-1 #
coedge $-1 $391 $386 $383 $550 forward $392 $-1 #
edge $-1 $553 56.666204502318323 $690 67.027040565723013 $549 $691 forward 7 unknown #
coedge $-1 $385 $384 $556 $692 reversed $151 $-1 #
edge $-1 $693 -154.79232154301585 $553 -142.82865850911566 $547 $694 forward 7 unknown #
vertex $-1 $387 $695 #
straight-curve $-1 67.035324708103246 0.38952165804827388 14.170192745157955 0 -1 0 I I #
coedge $-1 $546 $388 $391 $560 reversed $381 $-1 #
coedge $-1 $388 $546 $551 $692 forward $381 $-1 #
vertex $-1 $389 $696 #
straight-curve $-1 77.396160771507908 4.3316799331603573 109.81930256242315 0 0 1 I I #
straight-curve $-1 -56.657921396851066 4.3316799331603573 85.584522956487319 0.8660253999169214 0 -0.50000000669873634 I I #
edge $-1 $690 -2.7735933009672618 $393 4.3316799331603573 $555 $697 forward 7 unknown #
point $-1 77.396160771507908 4.3316799331603573 14.170192745157957 #
point $-1 67.035324708103218 4.3316799331603573 14.170192745157962 #
edge $-1 $698 1 $698 0 $396 $-1 forward 7 unknown #
vertex $-1 $397 $699 #
ellipse-curve $-1 71.715742733106836 -0.74351523407365505 10.313251546695286 0.50000000669873634 0 0.8660253999169214 0.4330126999584607 0 -0.25000000334936817 1 I I #
point $-1 72.648755439764045 -0.74351523407365505 10.929276943262838 #
edge $-1 $700 1 $700 0 $400 $-1 forward 7 unknown #
vertex $-1 $401 $701 #
ellipse-curve $-1 71.715742733106836 2.3016018662667506 10.313251546695286 0.50000000669873634 0 0.8660253999169214 0.4330126999584607 0 -0.25000000334936817 1 I I #
point $-1 72.648755439764045 2.3016018662667506 10.929276943262838 #
plane-surface $-1 0 0 14.170192745157957 0 0 1 1 0 0 forward_v I I I I #
coedge $-1 $582 $581 $574 $702 forward $405 $-1 #
coedge $-1 $574 $407 $409 $578 reversed $262 $-1 #
coedge $-1 $407 $573 $572 $702 reversed $262 $-1 #
coedge $-1 $415 $410 $407 $576 forward $416 $-1 #
edge $-1 $579 56.666204502318323 $703 67.027040565723013 $575 $704 forward 7 unknown #
coedge $-1 $409 $408 $582 $705 reversed $165 $-1 #
edge $-1 $706 -154.79232154301585 $579 -142.82865850911566 $573 $707 forward 7 unknown #
vertex $-1 $411 $708 #
straight-curve $-1 67.035324708103246 7.4310599604619227 14.170192745157955 0 -1 0 I I #
coedge $-1 $572 $412 $415 $586 reversed $405 $-1 #
coedge $-1 $412 $572 $577 $705 forward $405 $-1 #
vertex $-1 $413 $709 #
straight-curve $-1 77.396160771507908 18.414756537987657 109.81930256242315 0 0 1 I I #
straight-curve $-1 -56.657921396851066 18.414756537987657 85.584522956487319 0.8660253999169214 0 -0.50000000669873634 I I #
edge $-1 $703 11.309483303860036 $417 18.414756537987657 $581 $710 forward 7 unknown #
point $-1 77.396160771507908 18.414756537987657 14.170192745157957 #
point $-1 67.035324708103218 18.414756537987657 14.170192745157962 #
edge $-1 $711 1 $711 0 $420 $-1 forward 7 unknown #
vertex $-1 $421 $712 #
ellipse-curve $-1 71.715742733106836 13.339561370753643 10.313251546695286 0.50000000669873634 0 0.8660253999169214 0.4330126999584607 0 -0.25000000334936817 1 I I #
point $-1 72.648755439764045 13.339561370753643 10.929276943262838 #
edge $-1 $713 1 $713 0 $424 $-1 forward 7 unknown #
vertex $-1 $425 $714 #
ellipse-curve $-1 71.715742733106836 16.384678471094048 10.313251546695286 0.50000000669873634 0 0.8660253999169214 0.4330126999584607 0 -0.25000000334936817 1 I I #
point $-1 72.648755439764045 16.384678471094048 10.929276943262838 #
plane-surface $-1 0 0 14.170192745157957 0 0 1 1 0 0 forward_v I I I I #
coedge $-1 $608 $607 $600 $715 forward $429 $-1 #
coedge $-1 $600 $431 $433 $604 reversed $284 $-1 #
coedge $-1 $431 $599 $598 $715 reversed $284 $-1 #
coedge $-1 $439 $434 $431 $602 forward $440 $-1 #
edge $-1 $605 56.666204502318323 $716 67.027040565723013 $601 $717 forward 7 unknown #
coedge $-1 $433 $432 $608 $718 reversed $179 $-1 #
edge $-1 $719 -154.79232154301585 $605 -142.82865850911566 $599 $720 forward 7 unknown #
vertex $-1 $435 $721 #
straight-curve $-1 67.035324708103246 14.472598262875568 14.170192745157955 0 -1 0 I I #
coedge $-1 $598 $436 $439 $612 reversed $429 $-1 #
coedge $-1 $436 $598 $603 $718 forward $429 $-1 #
vertex $-1 $437 $722 #
straight-curve $-1 77.396160771507908 32.497833142814947 109.81930256242315 0 0 1 I I #
straight-curve $-1 -56.657921396851066 32.497833142814947 85.584522956487319 0.8660253999169214 0 -0.50000000669873634 I I #
edge $-1 $716 25.392559908687325 $441 32.497833142814947 $607 $723 forward 7 unknown #
point $-1 77.396160771507908 32.497833142814947 14.170192745157957 #
point $-1 67.035324708103218 32.497833142814947 14.170192745157962 #
edge $-1 $724 1 $724 0 $444 $-1 forward 7 unknown #
vertex $-1 $445 $725 #
ellipse-curve $-1 71.715742733106836 27.422637975580933 10.313251546695286 0.50000000669873634 0 0.8660253999169214 0.4330126999584607 0 -0.25000000334936817 1 I I #
point $-1 72.648755439764045 27.422637975580933 10.929276943262838 #
edge $-1 $726 1 $726 0 $448 $-1 forward 7 unknown #
vertex $-1 $449 $727 #
ellipse-curve $-1 71.715742733106836 30.467755075921339 10.313251546695286 0.50000000669873634 0 0.8660253999169214 0.4330126999584607 0 -0.25000000334936817 1 I I #
point $-1 72.648755439764045 30.467755075921339 10.929276943262838 #
loop $-1 $-1 $459 $452 #
plane-surface $-1 -77.396160771507908 0 0 1 0 0 0 0 -1 forward_v I I I I #
coedge $-1 $728 $729 $456 $627 forward $453 $-1 #
coedge $-1 $456 $455 $632 $730 reversed $193 $-1 #
edge $-1 $629 11.862201864052142 $731 31.133218543016014 $625 $732 forward 7 unknown #
coedge $-1 $462 $457 $729 $733 forward $306 $-1 #
vertex $-1 $733 $734 #
straight-curve $-1 -61.419763977780292 15.661568626879838 14.170192745157957 0 1 0 I I #
coedge $-1 $735 $459 $462 $636 reversed $623 $-1 #
coedge $-1 $459 $735 $626 $730 forward $623 $-1 #
vertex $-1 $460 $736 #
straight-curve $-1 -77.396160771507908 25.931106105397735 65.861313289467418 0 0 1 I I #
straight-curve $-1 -77.396160771507894 25.931106105397735 3.3939768355599256 -0.82903756765294845 0 -0.55919291073839883 I I #
edge $-1 $737 -36.715168402121613 $463 -25.931106105397735 $631 $738 forward 7 unknown #
point $-1 -77.396160771507908 25.931106105397735 14.170192745157957 #
point $-1 -61.419763977780299 25.931106105397735 14.170192745157957 #
edge $-1 $739 1 $739 0 $466 $-1 forward 7 unknown #
vertex $-1 $467 $740 #
ellipse-curve $-1 -66.038230773253659 31.323137253759676 3.7862523382430844 -0.55919291073839883 0 0.82903756765294845 1.6580751353058969 0 1.1183858214767977 1 I I #
point $-1 -67.749887239338221 31.323137253759676 9.9004706118357468 #
plane-surface $-1 77.396160771507908 0 0 -1 0 0 0 0 1 forward_v I I I I #
coedge $-1 $475 $473 $477 $648 reversed $321 $-1 #
edge $-1 $488 -14.170192745157957 $650 14.170192745157957 $487 $741 forward 7 unknown #
vertex $-1 $648 $742 #
straight-curve $-1 -77.396160771507908 -36.715168402121613 0 0 0 -1 I I #
edge $-1 $646 -36.715168402121613 $650 36.715168402121613 $644 $743 forward 7 unknown #
straight-curve $-1 0 -36.715168402121613 -14.170192745157957 -1 0 0 I I #
vertex $-1 $480 $744 #
straight-curve $-1 0 36.715168402121613 -14.170192745157957 1 0 0 I I #
point $-1 77.396160771507908 36.715168402121613 -14.170192745157957 #
point $-1 77.396160771507908 -36.715168402121613 -14.170192745157957 #
straight-curve $-1 -77.396160771507908 0 14.170192745157957 0 -1 0 I I #
point $-1 -77.396160771507908 36.715168402121613 14.170192745157957 #
point $-1 -77.396160771507908 -36.715168402121613 14.170192745157957 #
straight-curve $-1 77.396160771507908 -36.715168402121613 0 0 0 -1 I I #
straight-curve $-1 77.396160771507908 36.715168402121613 0 0 0 -1 I I #
plane-surface $-1 77.396160771507908 0 0 -1 0 0 0 0 1 forward_v I I I I #
coedge $-1 $501 $500 $511 $671 reversed $210 $-1 #
coedge $-1 $745 $504 $501 $662 forward $498 $-1 #
edge $-1 $663 19.617138017187571 $746 36.715168402121613 $501 $747 forward 7 unknown #
vertex $-1 $662 $748 #
straight-curve $-1 -77.396160771507908 -19.617138017187571 6.2983992037092582 0 0 -1 I I #
coedge $-1 $504 $745 $506 $667 forward $498 $-1 #
straight-curve $-1 0 -19.617138017187571 14.170192745157957 -1 0 0 I I #
edge $-1 $674 -36.715168402121613 $507 -19.617138017187571 $506 $749 forward 7 unknown #
point $-1 77.396160771507908 -19.617138017187571 14.170192745157955 #
straight-curve $-1 -77.396160771507908 -14.083076604827296 11.023404069679078 0 -1 0 I I #
coedge $-1 $511 $510 $745 $750 reversed $340 $-1 #
edge $-1 $746 -14.170192745157957 $512 -11.023404069679078 $660 $751 forward 7 unknown #
point $-1 -77.396160771507908 -36.715168402121613 11.023404069679078 #
point $-1 -77.396160771507908 -19.617138017187571 11.023404069679078 #
vertex $-1 $667 $752 #
straight-curve $-1 77.396160771507908 -36.715168402121613 0 0 0 -1 I I #
edge $-1 $677 95.649109817265185 $680 101.6309414143567 $520 $753 forward 7 unknown #
vertex $-1 $534 $754 #
straight-curve $-1 10.369120205784895 -16.856669905794561 14.170192745157962 1 0 0 I I #
edge $-1 $680 -10.204653261429186 $531 -3.0993800273015655 $530 $755 forward 7 unknown #
vertex $-1 $679 $756 #
straight-curve $-1 -56.657921396851066 -16.856669905794561 85.584522956487319 -0.8660253999169214 0 0.50000000669873634 I I #
point $-1 67.035324708103218 -16.856669905794561 14.170192745157962 #
point $-1 77.396160771507908 -9.7513966716669405 8.1883611480664484 #
straight-curve $-1 77.396160771507908 0 14.170192745157957 0 1 0 I I #
vertex $-1 $537 $757 #
point $-1 72.148755433065304 -14.826591838900953 10.063251543345917 #
vertex $-1 $541 $758 #
point $-1 72.148755433065304 -11.781474738560544 10.063251543345917 #
edge $-1 $690 95.649109817265185 $693 101.6309414143567 $546 $759 forward 7 unknown #
vertex $-1 $560 $760 #
straight-curve $-1 10.369120205784895 -2.7735933009672618 14.170192745157962 1 0 0 I I #
edge $-1 $693 -3.1631149590155356 $557 3.9421582751120834 $556 $761 forward 7 unknown #
vertex $-1 $692 $762 #
straight-curve $-1 -56.657921396851066 -2.7735933009672618 85.584522956487319 -0.8660253999169214 0 0.50000000669873634 I I #
point $-1 67.035324708103218 -2.7735933009672618 14.170192745157962 #
point $-1 77.396160771507908 4.3316799331603573 8.1883611480664484 #
straight-curve $-1 77.396160771507908 0 14.170192745157957 0 1 0 I I #
vertex $-1 $563 $763 #
point $-1 72.148755433065304 -0.74351523407365505 10.063251543345917 #
vertex $-1 $567 $764 #
point $-1 72.148755433065304 2.3016018662667506 10.063251543345917 #
edge $-1 $703 95.649109817265185 $706 101.6309414143567 $572 $765 forward 7 unknown #
vertex $-1 $586 $766 #
straight-curve $-1 10.369120205784895 11.309483303860036 14.170192745157962 1 0 0 I I #
edge $-1 $706 3.8784233433981132 $583 10.983696577525734 $582 $767 forward 7 unknown #
vertex $-1 $705 $768 #
straight-curve $-1 -56.657921396851066 11.309483303860036 85.584522956487319 -0.8660253999169214 0 0.50000000669873634 I I #
point $-1 67.035324708103218 11.309483303860036 14.170192745157962 #
point $-1 77.396160771507908 18.414756537987657 8.1883611480664484 #
straight-curve $-1 77.396160771507908 0 14.170192745157957 0 1 0 I I #
vertex $-1 $589 $769 #
point $-1 72.148755433065304 13.339561370753643 10.063251543345917 #
vertex $-1 $593 $770 #
point $-1 72.148755433065304 16.384678471094048 10.063251543345917 #
edge $-1 $716 95.649109817265185 $719 101.6309414143567 $598 $771 forward 7 unknown #
vertex $-1 $612 $772 #
straight-curve $-1 10.369120205784895 25.392559908687325 14.170192745157962 1 0 0 I I #
edge $-1 $719 10.919961645811757 $609 18.025234879939379 $608 $773 forward 7 unknown #
vertex $-1 $718 $774 #
straight-curve $-1 -56.657921396851066 25.392559908687325 85.584522956487319 -0.8660253999169214 0 0.50000000669873634 I I #
point $-1 67.035324708103218 25.392559908687325 14.170192745157962 #
point $-1 77.396160771507908 32.497833142814947 8.1883611480664484 #
straight-curve $-1 77.396160771507908 0 14.170192745157957 0 1 0 I I #
vertex $-1 $615 $775 #
point $-1 72.148755433065304 27.422637975580933 10.063251543345917 #
vertex $-1 $619 $776 #
point $-1 72.148755433065304 30.467755075921339 10.063251543345917 #
coedge $-1 $729 $625 $735 $777 reversed $453 $-1 #
coedge $-1 $625 $728 $628 $733 reversed $453 $-1 #
edge $-1 $731 -21.053599775241782 $633 -10.269537478517897 $632 $778 forward 7 unknown #
vertex $-1 $627 $779 #
straight-curve $-1 -51.585552997398239 36.715168402121613 20.803451933283732 -0.82903756765294845 0 -0.55919291073839883 I I #
edge $-1 $629 61.419763977780299 $737 77.396160771507908 $729 $780 forward 7 unknown #
point $-1 -61.419763977780299 36.71516840212162 14.170192745157957 #
coedge $-1 $632 $631 $728 $777 forward $623 $-1 #
point $-1 -77.396160771507908 25.931106105397735 3.3939768355599158 #
vertex $-1 $733 $781 #
straight-curve $-1 -77.396160771507908 0 14.170192745157957 0 -1 0 I I #
vertex $-1 $639 $782 #
point $-1 -64.380155637947752 31.323137253759676 4.904638159719882 #
straight-curve $-1 -77.396160771507908 36.715168402121613 0 0 0 -1 I I #
point $-1 -77.396160771507908 -36.715168402121613 -14.170192745157957 #
straight-curve $-1 -77.396160771507908 0 -14.170192745157957 0 1 0 I I #
point $-1 -77.396160771507908 36.715168402121613 -14.170192745157957 #
coedge $-1 $665 $661 $670 $750 forward $498 $-1 #
vertex $-1 $662 $783 #
straight-curve $-1 -77.396160771507908 0 14.170192745157957 0 -1 0 I I #
point $-1 -77.396160771507908 -19.617138017187571 14.170192745157955 #
straight-curve $-1 77.396160771507908 0 14.170192745157957 0 1 0 I I #
edge $-1 $746 -77.396160771507908 $674 77.396160771507908 $670 $784 forward 7 unknown #
straight-curve $-1 -77.396160771507908 -36.715168402121613 0 0 0 -1 I I #
point $-1 77.396160771507908 -36.715168402121613 14.170192745157957 #
straight-curve $-1 77.396160771507908 -16.856669905794561 109.81930256242315 0 0 -1 I I #
point $-1 77.396160771507908 -16.856669905794561 14.170192745157957 #
straight-curve $-1 77.396160771507908 -6.652016644365375 8.1883611480664555 0 1 0 I I #
point $-1 77.396160771507908 -16.856669905794561 8.1883611480664484 #
point $-1 71.46574272975748 -14.826591838900953 9.880238846736825 #
point $-1 71.46574272975748 -11.781474738560544 9.880238846736825 #
straight-curve $-1 77.396160771507908 -2.7735933009672618 109.81930256242315 0 0 -1 I I #
point $-1 77.396160771507908 -2.7735933009672618 14.170192745157957 #
straight-curve $-1 77.396160771507908 0.38952165804827388 8.1883611480664555 0 1 0 I I #
point $-1 77.396160771507908 -2.7735933009672618 8.1883611480664484 #
point $-1 71.46574272975748 -0.74351523407365505 9.880238846736825 #
point $-1 71.46574272975748 2.3016018662667506 9.880238846736825 #
straight-curve $-1 77.396160771507908 11.309483303860036 109.81930256242315 0 0 -1 I I #
point $-1 77.396160771507908 11.309483303860036 14.170192745157957 #
straight-curve $-1 77.396160771507908 7.4310599604619227 8.1883611480664555 0 1 0 I I #
point $-1 77.396160771507908 11.309483303860036 8.1883611480664484 #
point $-1 71.46574272975748 13.339561370753643 9.880238846736825 #
point $-1 71.46574272975748 16.384678471094048 9.880238846736825 #
straight-curve $-1 77.396160771507908 25.392559908687325 109.81930256242315 0 0 -1 I I #
point $-1 77.396160771507908 25.392559908687325 14.170192745157957 #
straight-curve $-1 77.396160771507908 14.472598262875568 8.1883611480664555 0 1 0 I I #
point $-1 77.396160771507908 25.392559908687325 8.1883611480664484 #
point $-1 71.46574272975748 27.422637975580933 9.880238846736825 #
point $-1 71.46574272975748 30.467755075921339 9.880238846736825 #
edge $-1 $737 -14.170192745157957 $731 -3.3939768355599158 $728 $785 forward 7 unknown #
straight-curve $-1 -77.396160771507908 15.661568626879838 3.3939768355599242 0 -1 0 I I #
point $-1 -77.396160771507908 36.71516840212162 3.3939768355599158 #
straight-curve $-1 0 36.715168402121613 14.170192745157957 -1 0 0 I I #
point $-1 -77.396160771507908 36.715168402121613 14.170192745157957 #
point $-1 -64.919844951776852 31.323137253759676 2.1281772029371879 #
point $-1 -77.396160771507908 -36.715168402121613 14.170192745157957 #
straight-curve $-1 0 -36.715168402121613 14.170192745157957 1 0 0 I I #
straight-curve $-1 -77.396160771507908 36.715168402121613 0 0 0 -1 I I #
End-of-ACIS-data 