500 0 11 0           
7 Unknown 11 ACIS 5.0 NT 24 Fri Mar 26 17:47:12 1999 
-1 9.9999999999999995e-007 1e-010 
body $-1 $11 $-1 $12 #
body $-1 $13 $-1 $14 #
body $-1 $15 $-1 $16 #
body $-1 $17 $-1 $18 #
body $-1 $19 $-1 $20 #
body $-1 $21 $-1 $22 #
body $-1 $23 $-1 $24 #
body $-1 $25 $-1 $26 #
body $-1 $27 $-1 $28 #
body $-1 $29 $-1 $30 #
body $-1 $31 $-1 $32 #
lump $-1 $-1 $33 $0 #
transform $-1 1 0 0 0 1 0 0 0 1 70.633259071626938 45.142815886474317 13.554692912450175 1 rotate no_reflect no_shear #
lump $-1 $-1 $34 $1 #
transform $-1 1 0 0 0 1 0 0 0 1 70.633259071626938 45.142815886474317 13.554692912450175 1 rotate no_reflect no_shear #
lump $-1 $-1 $35 $2 #
transform $-1 1 0 0 0 1 0 0 0 1 70.633259071626938 45.142815886474317 13.554692912450175 1 rotate no_reflect no_shear #
lump $-1 $-1 $36 $3 #
transform $-1 1 0 0 0 1 0 0 0 1 70.633259071626938 45.142815886474317 13.554692912450175 1 rotate no_reflect no_shear #
lump $-1 $-1 $37 $4 #
transform $-1 1 0 0 0 1 0 0 0 1 70.633259071626938 45.142815886474317 13.554692912450175 1 rotate no_reflect no_shear #
lump $-1 $-1 $38 $5 #
transform $-1 1 0 0 0 1 0 0 0 1 70.633259071626938 45.142815886474317 13.554692912450175 1 rotate no_reflect no_shear #
lump $-1 $-1 $39 $6 #
transform $-1 1 0 0 0 1 0 0 0 1 70.633259071626938 45.142815886474317 13.554692912450175 1 rotate no_reflect no_shear #
lump $-1 $-1 $40 $7 #
transform $-1 1 0 0 0 1 0 0 0 1 70.633259071626938 45.142815886474317 13.554692912450175 1 rotate no_reflect no_shear #
lump $-1 $-1 $41 $8 #
transform $-1 1 0 0 0 1 0 0 0 1 70.633259071626938 45.142815886474317 13.554692912450175 1 rotate no_reflect no_shear #
lump $-1 $-1 $42 $9 #
transform $-1 1 0 0 0 1 0 0 0 1 70.633259071626938 45.142815886474317 13.554692912450175 1 rotate no_reflect no_shear #
lump $-1 $-1 $43 $10 #
transform $-1 1 0 0 0 1 0 0 0 1 70.633259071626938 45.142815886474317 13.554692912450175 1 rotate no_reflect no_shear #
shell $-1 $-1 $-1 $44 $-1 $11 #
shell $-1 $-1 $-1 $45 $-1 $13 #
shell $-1 $-1 $-1 $46 $-1 $15 #
shell $-1 $-1 $-1 $47 $-1 $17 #
shell $-1 $-1 $-1 $48 $-1 $19 #
shell $-1 $-1 $-1 $49 $-1 $21 #
shell $-1 $-1 $-1 $50 $-1 $23 #
shell $-1 $-1 $-1 $51 $-1 $25 #
shell $-1 $-1 $-1 $52 $-1 $27 #
shell $-1 $-1 $-1 $53 $-1 $29 #
shell $-1 $-1 $-1 $54 $-1 $31 #
face $-1 $55 $56 $33 $-1 $57 forward single #
face $-1 $58 $59 $34 $-1 $60 forward single #
face $-1 $61 $62 $35 $-1 $63 forward single #
face $-1 $64 $65 $36 $-1 $66 reversed single #
face $-1 $67 $68 $37 $-1 $69 forward single #
face $-1 $70 $71 $38 $-1 $72 reversed single #
face $-1 $73 $74 $39 $-1 $75 forward single #
face $-1 $76 $77 $40 $-1 $78 reversed single #
face $-1 $79 $80 $41 $-1 $81 forward single #
face $-1 $82 $83 $42 $-1 $84 reversed single #
face $-1 $85 $86 $43 $-1 $87 forward single #
face $-1 $88 $89 $33 $-1 $90 reversed single #
loop $-1 $-1 $91 $44 #
plane-surface $-1 0 0 13.554692912450175 0 0 1 1 0 0 forward_v I I I I #
face $-1 $92 $93 $34 $-1 $94 forward single #
loop $-1 $-1 $95 $45 #
plane-surface $-1 0 -45.142815886474317 0 0 1 0 0 0 1 forward_v I I I I #
face $-1 $96 $97 $35 $-1 $98 reversed single #
loop $-1 $-1 $99 $46 #
plane-surface $-1 0 45.142815886474317 0 0 -1 0 0 0 -1 forward_v I I I I #
face $-1 $100 $101 $36 $-1 $102 reversed single #
loop $-1 $-1 $103 $47 #
plane-surface $-1 -153.66763613975544 -11.952702719426032 119.75682241322556 0 1 0 -0.5877852598018023 0 0.80901698891910034 forward_v I I I I #
face $-1 $104 $105 $37 $-1 $106 forward single #
loop $-1 $107 $108 $48 #
cone-surface $-1 -63.991230677758061 -8.5480636182452656 8.0283948783453525 0.5877852598018023 0 -0.80901698891910034 0.80901698891910034 0 0.5877852598018023 1 I I 0 1 1 forward I I I I #
face $-1 $109 $110 $38 $-1 $111 reversed single #
loop $-1 $-1 $112 $49 #
plane-surface $-1 -153.66763613975544 19.24062281138438 119.75682241322556 0 1 0 -0.5877852598018023 0 0.80901698891910034 forward_v I I I I #
face $-1 $113 $114 $39 $-1 $115 forward single #
loop $-1 $116 $117 $50 #
cone-surface $-1 -63.991230677758061 22.64526191256514 8.0283948783453525 0.5877852598018023 0 -0.80901698891910034 0.80901698891910034 0 0.5877852598018023 1 I I 0 1 1 forward I I I I #
face $-1 $118 $119 $40 $-1 $120 reversed single #
loop $-1 $-1 $121 $51 #
plane-surface $-1 39.380622996414729 -5.143424517064485 202.79119948135406 0 -1 0 -0.5877852598018023 0 -0.80901698891910034 forward_v I I I I #
face $-1 $122 $123 $41 $-1 $124 forward single #
loop $-1 $125 $126 $52 #
cone-surface $-1 63.991230677758054 -8.5480636182452656 8.0283948783453489 -0.5877852598018023 0 -0.80901698891910034 0.80901698891910034 0 -0.5877852598018023 1 I I 0 1 1 forward I I I I #
face $-1 $127 $128 $42 $-1 $129 reversed single #
loop $-1 $-1 $130 $53 #
plane-surface $-1 39.380622996414729 26.049901013745927 202.79119948135406 0 -1 0 -0.5877852598018023 0 -0.80901698891910034 forward_v I I I I #
face $-1 $131 $132 $43 $-1 $133 forward single #
loop $-1 $134 $135 $54 #
cone-surface $-1 63.991230677758054 22.64526191256514 8.0283948783453489 -0.5877852598018023 0 -0.80901698891910034 0.80901698891910034 0 -0.5877852598018023 1 I I 0 1 1 forward I I I I #
face $-1 $136 $137 $33 $-1 $138 reversed single #
loop $-1 $-1 $139 $55 #
plane-surface $-1 0 0 -13.554692912450175 0 0 1 1 0 0 forward_v I I I I #
coedge $-1 $140 $141 $142 $143 forward $56 $-1 #
face $-1 $144 $145 $34 $-1 $146 reversed single #
loop $-1 $-1 $147 $58 #
plane-surface $-1 0 0 13.554692912450175 0 0 1 1 0 0 forward_v I I I I #
coedge $-1 $148 $149 $150 $151 forward $59 $-1 #
face $-1 $152 $153 $35 $-1 $154 reversed single #
loop $-1 $-1 $155 $61 #
plane-surface $-1 70.633259071626938 0 0 -1 0 0 0 0 1 forward_v I I I I #
coedge $-1 $156 $157 $158 $159 forward $62 $-1 #
face $-1 $160 $161 $36 $-1 $162 reversed single #
loop $-1 $-1 $163 $64 #
plane-surface $-1 -70.633259071626952 -8.5480636182452585 5.4698092698848484 -0.5877852598018023 0 0.80901698891910034 0.80901698891910034 0 0.5877852598018023 forward_v I I I I #
coedge $-1 $164 $165 $166 $167 reversed $65 $-1 #
face $-1 $-1 $168 $37 $-1 $169 forward single #
loop $-1 $170 $171 $67 #
cone-surface $-1 -62.619253382753293 -8.5480636182452656 6.1400301710636498 0.5877852598018023 0 -0.80901698891910034 0.40450849445955017 0 0.29389262990090115 1 I I -0.70710678118654746 0.70710678118654746 0.5 forward I I I I #
loop $-1 $-1 $172 $48 #
coedge $-1 $108 $108 $173 $174 reversed $68 $-1 #
face $-1 $175 $176 $38 $-1 $177 reversed single #
loop $-1 $-1 $178 $70 #
plane-surface $-1 -70.633259071626952 22.645261912565154 5.4698092698848484 -0.5877852598018023 0 0.80901698891910034 0.80901698891910034 0 0.5877852598018023 forward_v I I I I #
coedge $-1 $179 $180 $181 $182 reversed $71 $-1 #
face $-1 $-1 $183 $39 $-1 $184 forward single #
loop $-1 $185 $186 $73 #
cone-surface $-1 -62.619253382753293 22.64526191256514 6.1400301710636498 0.5877852598018023 0 -0.80901698891910034 0.40450849445955017 0 0.29389262990090115 1 I I -0.70710678118654746 0.70710678118654746 0.5 forward I I I I #
loop $-1 $-1 $187 $50 #
coedge $-1 $117 $117 $188 $189 reversed $74 $-1 #
face $-1 $190 $191 $40 $-1 $192 reversed single #
loop $-1 $-1 $193 $76 #
plane-surface $-1 -43.653754071713763 -8.5480636182452585 88.504186338013341 0.5877852598018023 0 0.80901698891910034 0.80901698891910034 0 -0.5877852598018023 forward_v I I I I #
coedge $-1 $194 $195 $196 $197 reversed $77 $-1 #
face $-1 $-1 $198 $41 $-1 $199 forward single #
loop $-1 $200 $201 $79 #
cone-surface $-1 62.619253382753286 -8.5480636182452656 6.1400301710636462 -0.5877852598018023 0 -0.80901698891910034 0.40450849445955017 0 -0.29389262990090115 1 I I -0.70710678118654746 0.70710678118654746 0.5 forward I I I I #
loop $-1 $-1 $202 $52 #
coedge $-1 $126 $126 $203 $204 reversed $80 $-1 #
face $-1 $205 $206 $42 $-1 $207 reversed single #
loop $-1 $-1 $208 $82 #
plane-surface $-1 -43.653754071713763 22.645261912565154 88.504186338013341 0.5877852598018023 0 0.80901698891910034 0.80901698891910034 0 -0.5877852598018023 forward_v I I I I #
coedge $-1 $209 $210 $211 $212 reversed $83 $-1 #
face $-1 $-1 $213 $43 $-1 $214 forward single #
loop $-1 $215 $216 $85 #
cone-surface $-1 62.619253382753286 22.64526191256514 6.1400301710636462 -0.5877852598018023 0 -0.80901698891910034 0.40450849445955017 0 -0.29389262990090115 1 I I -0.70710678118654746 0.70710678118654746 0.5 forward I I I I #
loop $-1 $-1 $217 $54 #
coedge $-1 $135 $135 $218 $219 reversed $86 $-1 #
face $-1 $220 $221 $33 $-1 $222 reversed single #
loop $-1 $-1 $223 $88 #
plane-surface $-1 0 -45.142815886474317 0 0 1 0 0 0 1 forward_v I I I I #
coedge $-1 $224 $225 $226 $227 forward $89 $-1 #
coedge $-1 $228 $91 $229 $230 forward $56 $-1 #
coedge $-1 $91 $228 $231 $232 forward $56 $-1 #
coedge $-1 $233 $234 $91 $143 reversed $235 $-1 #
edge $-1 $236 -45.142815886474317 $237 45.142815886474317 $142 $238 forward 7 unknown #
face $-1 $239 $240 $34 $-1 $241 reversed single #
loop $-1 $-1 $242 $92 #
plane-surface $-1 -70.633259071626938 0 0 1 0 0 0 0 -1 forward_v I I I I #
coedge $-1 $243 $244 $245 $246 forward $93 $-1 #
coedge $-1 $245 $95 $242 $247 reversed $59 $-1 #
coedge $-1 $95 $245 $248 $249 reversed $59 $-1 #
coedge $-1 $250 $251 $95 $151 reversed $240 $-1 #
edge $-1 $252 -70.633259071626938 $253 70.633259071626938 $150 $254 forward 7 unknown #
face $-1 $255 $256 $35 $-1 $257 reversed single #
loop $-1 $-1 $258 $96 #
plane-surface $-1 0 52.11756106430628 10.554692912450175 0 0 1 1 0 0 forward_v I I I I #
coedge $-1 $259 $260 $156 $261 forward $97 $-1 #
coedge $-1 $262 $99 $155 $261 reversed $62 $-1 #
coedge $-1 $99 $262 $263 $264 reversed $62 $-1 #
coedge $-1 $265 $258 $99 $159 reversed $153 $-1 #
edge $-1 $266 -70.633259071626938 $267 70.633259071626938 $158 $268 forward 7 unknown #
face $-1 $269 $270 $36 $-1 $271 reversed single #
loop $-1 $-1 $272 $100 #
plane-surface $-1 -153.66763613975544 -5.143424517064485 119.75682241322556 0 -1 0 0.5877852598018023 0 -0.80901698891910034 forward_v I I I I #
coedge $-1 $273 $274 $275 $276 reversed $101 $-1 #
coedge $-1 $165 $103 $277 $278 reversed $65 $-1 #
coedge $-1 $103 $164 $273 $279 reversed $65 $-1 #
coedge $-1 $275 $280 $103 $167 forward $281 $-1 #
edge $-1 $282 6.2005589982507843 $283 17.328446455780771 $166 $284 forward 7 unknown #
loop $-1 $-1 $173 $104 #
plane-surface $-1 -70.633259071626952 -8.5480636182452585 5.4698092698848484 -0.5877852598018023 0 0.80901698891910034 0.80901698891910034 0 0.5877852598018023 forward_v I I I I #
loop $-1 $-1 $285 $67 #
coedge $-1 $171 $171 $172 $286 reversed $105 $-1 #
coedge $-1 $172 $172 $171 $286 forward $107 $-1 #
coedge $-1 $173 $173 $108 $174 forward $168 $-1 #
edge $-1 $287 0 $287 6.2831853071796004 $173 $288 forward 7 unknown #
face $-1 $289 $290 $38 $-1 $291 forward single #
loop $-1 $-1 $292 $109 #
plane-surface $-1 -153.66763613975544 26.049901013745927 119.75682241322556 0 -1 0 0.5877852598018023 0 -0.80901698891910034 forward_v I I I I #
coedge $-1 $293 $294 $295 $296 reversed $110 $-1 #
coedge $-1 $180 $112 $297 $298 reversed $71 $-1 #
coedge $-1 $112 $179 $293 $299 reversed $71 $-1 #
coedge $-1 $295 $300 $112 $182 forward $290 $-1 #
edge $-1 $301 6.2005589982507843 $302 17.328446455780771 $181 $303 forward 7 unknown #
loop $-1 $-1 $188 $113 #
plane-surface $-1 -70.633259071626952 22.645261912565154 5.4698092698848484 -0.5877852598018023 0 0.80901698891910034 0.80901698891910034 0 0.5877852598018023 forward_v I I I I #
loop $-1 $-1 $304 $73 #
coedge $-1 $186 $186 $187 $305 reversed $114 $-1 #
coedge $-1 $187 $187 $186 $305 forward $116 $-1 #
coedge $-1 $188 $188 $117 $189 forward $183 $-1 #
edge $-1 $306 0 $306 6.2831853071796004 $188 $307 forward 7 unknown #
face $-1 $308 $309 $40 $-1 $310 forward single #
loop $-1 $-1 $311 $118 #
plane-surface $-1 39.380622996414729 -11.952702719426032 202.79119948135406 0 1 0 0.5877852598018023 0 0.80901698891910034 forward_v I I I I #
coedge $-1 $312 $313 $314 $315 reversed $119 $-1 #
coedge $-1 $195 $121 $316 $317 reversed $77 $-1 #
coedge $-1 $121 $194 $312 $318 reversed $77 $-1 #
coedge $-1 $314 $319 $121 $197 forward $309 $-1 #
edge $-1 $320 -50.942947573419573 $321 -39.81506011588958 $196 $322 forward 7 unknown #
loop $-1 $-1 $203 $122 #
plane-surface $-1 -43.653754071713763 -8.5480636182452585 88.504186338013341 0.5877852598018023 0 0.80901698891910034 0.80901698891910034 0 -0.5877852598018023 forward_v I I I I #
loop $-1 $-1 $323 $79 #
coedge $-1 $201 $201 $202 $324 reversed $123 $-1 #
coedge $-1 $202 $202 $201 $324 forward $125 $-1 #
coedge $-1 $203 $203 $126 $204 forward $198 $-1 #
edge $-1 $325 0 $325 6.2831853071796004 $203 $326 forward 7 unknown #
face $-1 $327 $328 $42 $-1 $329 reversed single #
loop $-1 $-1 $330 $127 #
plane-surface $-1 39.380622996414729 19.24062281138438 202.79119948135406 0 1 0 0.5877852598018023 0 0.80901698891910034 forward_v I I I I #
coedge $-1 $331 $332 $333 $334 reversed $128 $-1 #
coedge $-1 $210 $130 $335 $336 reversed $83 $-1 #
coedge $-1 $130 $209 $331 $337 reversed $83 $-1 #
coedge $-1 $333 $338 $130 $212 forward $339 $-1 #
edge $-1 $340 -50.942947573419573 $341 -39.81506011588958 $211 $342 forward 7 unknown #
loop $-1 $-1 $218 $131 #
plane-surface $-1 -43.653754071713763 22.645261912565154 88.504186338013341 0.5877852598018023 0 0.80901698891910034 0.80901698891910034 0 -0.5877852598018023 forward_v I I I I #
loop $-1 $-1 $343 $85 #
coedge $-1 $216 $216 $217 $344 reversed $132 $-1 #
coedge $-1 $217 $217 $216 $344 forward $134 $-1 #
coedge $-1 $218 $218 $135 $219 forward $213 $-1 #
edge $-1 $345 0 $345 6.2831853071796004 $218 $346 forward 7 unknown #
face $-1 $347 $348 $33 $-1 $349 reversed single #
loop $-1 $-1 $350 $136 #
plane-surface $-1 -70.633259071626938 0 0 1 0 0 0 0 -1 forward_v I I I I #
coedge $-1 $351 $231 $352 $353 forward $137 $-1 #
coedge $-1 $354 $139 $351 $355 forward $89 $-1 #
coedge $-1 $139 $354 $356 $357 forward $89 $-1 #
coedge $-1 $234 $233 $139 $227 reversed $235 $-1 #
edge $-1 $358 -45.142815886474317 $359 45.142815886474317 $226 $360 forward 7 unknown #
coedge $-1 $141 $140 $361 $362 forward $56 $-1 #
coedge $-1 $363 $364 $140 $230 reversed $348 $-1 #
edge $-1 $237 -70.633259071626938 $365 70.633259071626938 $229 $366 forward 7 unknown #
coedge $-1 $223 $367 $141 $232 reversed $137 $-1 #
edge $-1 $368 -70.633259071626938 $236 70.633259071626938 $231 $369 forward 7 unknown #
coedge $-1 $226 $142 $367 $370 forward $235 $-1 #
coedge $-1 $142 $226 $363 $371 reversed $235 $-1 #
loop $-1 $-1 $233 $347 #
vertex $-1 $143 $372 #
vertex $-1 $143 $373 #
straight-curve $-1 70.633259071626938 0 13.554692912450175 0 1 0 I I #
face $-1 $374 $375 $34 $-1 $376 reversed single #
loop $-1 $-1 $250 $144 #
plane-surface $-1 0 -52.117561064306273 10.554692912450175 0 0 1 1 0 0 forward_v I I I I #
coedge $-1 $377 $378 $148 $247 forward $145 $-1 #
coedge $-1 $379 $147 $378 $380 forward $93 $-1 #
coedge $-1 $147 $379 $381 $382 forward $93 $-1 #
coedge $-1 $149 $148 $147 $246 reversed $59 $-1 #
edge $-1 $383 -70.633259071626938 $384 70.633259071626938 $147 $385 forward 7 unknown #
edge $-1 $384 -13.554692912450175 $253 -10.554692912450175 $242 $386 forward 7 unknown #
coedge $-1 $381 $387 $149 $249 forward $388 $-1 #
edge $-1 $252 10.554692912450175 $383 13.554692912450175 $248 $389 forward 7 unknown #
coedge $-1 $390 $150 $387 $391 forward $240 $-1 #
coedge $-1 $150 $390 $377 $392 forward $240 $-1 #
vertex $-1 $249 $393 #
vertex $-1 $247 $394 #
straight-curve $-1 0 -45.142815886474317 10.554692912450175 -1 0 0 I I #
face $-1 $395 $396 $35 $-1 $397 forward single #
loop $-1 $-1 $398 $152 #
plane-surface $-1 0 59.092306242138235 12.054692912450175 0 -1 0 0 0 -1 forward_v I I I I #
coedge $-1 $158 $399 $259 $400 forward $153 $-1 #
coedge $-1 $401 $155 $258 $400 reversed $97 $-1 #
coedge $-1 $155 $401 $402 $403 reversed $97 $-1 #
edge $-1 $404 -13.554692912450175 $267 -10.554692912450175 $155 $405 forward 7 unknown #
coedge $-1 $157 $156 $406 $407 reversed $62 $-1 #
coedge $-1 $408 $409 $157 $264 forward $410 $-1 #
edge $-1 $266 10.554692912450175 $411 13.554692912450175 $263 $412 forward 7 unknown #
coedge $-1 $399 $158 $409 $413 forward $153 $-1 #
vertex $-1 $264 $414 #
vertex $-1 $261 $415 #
straight-curve $-1 0 45.142815886474317 10.554692912450175 1 0 0 I I #
face $-1 $-1 $281 $36 $-1 $416 forward single #
loop $-1 $-1 $417 $160 #
plane-surface $-1 -70.633259071626938 0 0 1 0 0 0 0 -1 forward_v I I I I #
coedge $-1 $418 $419 $420 $421 reversed $161 $-1 #
coedge $-1 $422 $163 $165 $279 forward $101 $-1 #
coedge $-1 $163 $422 $418 $423 forward $101 $-1 #
coedge $-1 $420 $166 $163 $276 forward $281 $-1 #
edge $-1 $283 -7.6786709103034028 $424 -0.86939270794185575 $275 $425 forward 7 unknown #
coedge $-1 $426 $427 $164 $278 forward $270 $-1 #
edge $-1 $428 -54.408601936727919 $282 -46.323718294162603 $277 $429 forward 7 unknown #
edge $-1 $283 -13.754825436234146 $428 -1.7761521089745031e-014 $165 $430 forward 7 unknown #
coedge $-1 $166 $420 $426 $431 forward $281 $-1 #
loop $-1 $-1 $420 $269 #
vertex $-1 $278 $432 #
vertex $-1 $167 $433 #
straight-curve $-1 -76.833818069877722 -11.952702719426032 13.554692912450179 1 0 0 I I #
coedge $-1 $285 $285 $-1 $434 reversed $170 $-1 #
edge $-1 $435 0 $435 6.2831853071796004 $171 $436 forward 7 unknown #
vertex $-1 $174 $437 #
ellipse-curve $-1 -65.069315342861941 -8.5480636182452656 9.5122510911675207 -0.5877852598018023 0 0.80901698891910034 0.80901698891910034 0 0.5877852598018023 1 I I #
face $-1 $-1 $438 $38 $-1 $439 reversed single #
loop $-1 $-1 $181 $175 #
plane-surface $-1 0 0 13.554692912450175 0 0 1 1 0 0 forward_v I I I I #
coedge $-1 $440 $441 $442 $443 reversed $176 $-1 #
coedge $-1 $444 $178 $180 $299 forward $110 $-1 #
coedge $-1 $178 $444 $440 $445 forward $110 $-1 #
coedge $-1 $442 $181 $178 $296 forward $290 $-1 #
edge $-1 $302 7.9179918551018034 $446 14.72727005746335 $295 $447 forward 7 unknown #
coedge $-1 $448 $449 $179 $298 forward $438 $-1 #
edge $-1 $450 -54.408601936727919 $301 -46.323718294162603 $297 $451 forward 7 unknown #
edge $-1 $302 -13.754825436234146 $450 -1.7761521089745031e-014 $180 $452 forward 7 unknown #
coedge $-1 $181 $442 $448 $453 forward $290 $-1 #
vertex $-1 $182 $454 #
vertex $-1 $182 $455 #
straight-curve $-1 -76.833818069877722 19.24062281138438 13.554692912450179 1 0 0 I I #
coedge $-1 $304 $304 $-1 $456 reversed $185 $-1 #
edge $-1 $457 0 $457 6.2831853071796004 $186 $458 forward 7 unknown #
vertex $-1 $189 $459 #
ellipse-curve $-1 -65.069315342861941 22.64526191256514 9.5122510911675207 -0.5877852598018023 0 0.80901698891910034 0.80901698891910034 0 0.5877852598018023 1 I I #
face $-1 $-1 $460 $40 $-1 $461 reversed single #
loop $-1 $-1 $196 $190 #
plane-surface $-1 0 0 13.554692912450175 0 0 1 1 0 0 forward_v I I I I #
coedge $-1 $462 $463 $464 $465 reversed $191 $-1 #
coedge $-1 $466 $193 $195 $318 forward $119 $-1 #
coedge $-1 $193 $466 $462 $467 forward $119 $-1 #
coedge $-1 $464 $196 $193 $315 forward $309 $-1 #
edge $-1 $321 0.86939270794185575 $468 7.6786709103034028 $314 $469 forward 7 unknown #
coedge $-1 $470 $471 $194 $317 forward $460 $-1 #
edge $-1 $472 -95.92579047079218 $320 -87.840906828226849 $316 $473 forward 7 unknown #
edge $-1 $321 127.51169270701972 $472 141.26651814325388 $195 $474 forward 7 unknown #
coedge $-1 $196 $464 $470 $475 forward $309 $-1 #
vertex $-1 $317 $476 #
vertex $-1 $197 $477 #
straight-curve $-1 19.690311498207365 -5.143424517064485 13.554692912450179 -1 0 0 I I #
coedge $-1 $323 $323 $-1 $478 reversed $200 $-1 #
edge $-1 $479 0 $479 6.2831853071796004 $201 $480 forward 7 unknown #
vertex $-1 $204 $481 #
ellipse-curve $-1 65.069315342861927 -8.5480636182452656 9.5122510911675171 0.5877852598018023 0 0.80901698891910034 0.80901698891910034 0 -0.5877852598018023 1 I I #
face $-1 $-1 $339 $42 $-1 $482 forward single #
loop $-1 $-1 $483 $205 #
plane-surface $-1 70.633259071626938 0 0 -1 0 0 0 0 1 forward_v I I I I #
coedge $-1 $484 $485 $486 $487 reversed $206 $-1 #
coedge $-1 $488 $208 $210 $337 forward $128 $-1 #
coedge $-1 $208 $488 $484 $489 forward $128 $-1 #
coedge $-1 $486 $211 $208 $334 forward $339 $-1 #
edge $-1 $341 -14.72727005746335 $490 -7.9179918551018034 $333 $491 forward 7 unknown #
coedge $-1 $492 $493 $209 $336 forward $328 $-1 #
edge $-1 $494 -95.92579047079218 $340 -87.840906828226849 $335 $495 forward 7 unknown #
edge $-1 $341 127.51169270701972 $494 141.26651814325388 $210 $496 forward 7 unknown #
coedge $-1 $211 $486 $492 $497 forward $339 $-1 #
loop $-1 $-1 $486 $327 #
vertex $-1 $336 $498 #
vertex $-1 $212 $499 #
straight-curve $-1 19.690311498207365 26.049901013745927 13.554692912450179 -1 0 0 I I #
coedge $-1 $343 $343 $-1 $500 reversed $215 $-1 #
edge $-1 $501 0 $501 6.2831853071796004 $216 $502 forward 7 unknown #
vertex $-1 $219 $503 #
ellipse-curve $-1 65.069315342861927 22.64526191256514 9.5122510911675171 0.5877852598018023 0 0.80901698891910034 0.80901698891910034 0 -0.5877852598018023 1 I I #
face $-1 $-1 $235 $33 $-1 $504 reversed single #
loop $-1 $-1 $363 $220 #
plane-surface $-1 0 45.142815886474317 0 0 -1 0 0 0 -1 forward_v I I I I #
coedge $-1 $505 $361 $364 $506 forward $221 $-1 #
coedge $-1 $367 $223 $224 $355 reversed $137 $-1 #
coedge $-1 $361 $505 $223 $353 reversed $221 $-1 #
edge $-1 $368 -13.554692912450175 $507 13.554692912450175 $352 $508 forward 7 unknown #
coedge $-1 $225 $224 $505 $509 forward $89 $-1 #
edge $-1 $359 -70.633259071626938 $507 70.633259071626938 $351 $510 forward 7 unknown #
coedge $-1 $364 $363 $225 $357 reversed $348 $-1 #
edge $-1 $511 -70.633259071626938 $358 70.633259071626938 $356 $512 forward 7 unknown #
vertex $-1 $227 $513 #
vertex $-1 $370 $514 #
straight-curve $-1 70.633259071626938 0 -13.554692912450175 0 -1 0 I I #
coedge $-1 $350 $352 $228 $362 reversed $221 $-1 #
edge $-1 $365 -45.142815886474317 $368 45.142815886474317 $361 $515 forward 7 unknown #
coedge $-1 $356 $229 $234 $371 forward $348 $-1 #
coedge $-1 $229 $356 $350 $506 reversed $348 $-1 #
vertex $-1 $230 $516 #
straight-curve $-1 0 45.142815886474317 13.554692912450175 -1 0 0 I I #
coedge $-1 $231 $351 $233 $370 reversed $137 $-1 #
vertex $-1 $362 $517 #
straight-curve $-1 0 -45.142815886474317 13.554692912450175 1 0 0 I I #
edge $-1 $236 -13.554692912450175 $359 13.554692912450175 $233 $518 forward 7 unknown #
edge $-1 $237 -13.554692912450175 $358 13.554692912450175 $234 $519 forward 7 unknown #
point $-1 70.633259071626938 -45.142815886474317 13.554692912450175 #
point $-1 70.633259071626938 45.142815886474317 13.554692912450175 #
face $-1 $-1 $388 $34 $-1 $520 reversed single #
loop $-1 $-1 $521 $239 #
plane-surface $-1 0 -59.092306242138221 12.054692912450175 0 1 0 0 0 1 forward_v I I I I #
coedge $-1 $522 $242 $251 $392 reversed $145 $-1 #
coedge $-1 $242 $522 $243 $380 reversed $145 $-1 #
coedge $-1 $244 $243 $523 $524 forward $93 $-1 #
edge $-1 $384 45.142815886474317 $525 59.092306242138221 $378 $526 forward 7 unknown #
coedge $-1 $527 $248 $244 $382 reversed $388 $-1 #
edge $-1 $528 -59.092306242138221 $383 -45.142815886474317 $381 $529 forward 7 unknown #
vertex $-1 $249 $530 #
vertex $-1 $380 $531 #
straight-curve $-1 0 -45.142815886474317 13.554692912450175 -1 0 0 I I #
straight-curve $-1 -70.633259071626938 -45.142815886474317 0 0 0 -1 I I #
coedge $-1 $248 $527 $250 $391 reversed $388 $-1 #
loop $-1 $-1 $248 $374 #
straight-curve $-1 70.633259071626938 -45.142815886474317 0 0 0 1 I I #
coedge $-1 $251 $250 $532 $533 forward $240 $-1 #
edge $-1 $252 -6.9747451778319487 $534 6.9747451778319487 $387 $535 forward 7 unknown #
edge $-1 $536 -6.9747451778319487 $253 6.9747451778319487 $377 $537 forward 7 unknown #
point $-1 70.633259071626938 -45.142815886474324 10.554692912450175 #
point $-1 -70.633259071626938 -45.142815886474324 10.554692912450175 #
face $-1 $-1 $410 $35 $-1 $538 reversed single #
loop $-1 $-1 $406 $255 #
plane-surface $-1 0 0 13.554692912450175 0 0 1 1 0 0 forward_v I I I I #
coedge $-1 $539 $540 $401 $541 forward $256 $-1 #
coedge $-1 $258 $265 $539 $542 forward $153 $-1 #
edge $-1 $543 -6.9747451778319558 $267 6.9747451778319558 $259 $544 forward 7 unknown #
coedge $-1 $260 $259 $398 $541 reversed $97 $-1 #
coedge $-1 $545 $406 $260 $403 forward $396 $-1 #
edge $-1 $404 45.142815886474317 $546 59.092306242138235 $260 $547 forward 7 unknown #
vertex $-1 $403 $548 #
straight-curve $-1 70.633259071626938 45.142815886474317 0 0 0 -1 I I #
coedge $-1 $402 $549 $262 $407 forward $396 $-1 #
edge $-1 $411 -70.633259071626938 $404 70.633259071626938 $406 $550 forward 7 unknown #
coedge $-1 $551 $263 $549 $552 reversed $410 $-1 #
coedge $-1 $263 $551 $265 $413 reversed $410 $-1 #
loop $-1 $-1 $263 $395 #
vertex $-1 $264 $553 #
straight-curve $-1 -70.633259071626938 45.142815886474317 0 0 0 1 I I #
edge $-1 $266 -6.9747451778319558 $554 6.9747451778319558 $409 $555 forward 7 unknown #
point $-1 -70.633259071626938 45.142815886474324 10.554692912450175 #
point $-1 70.633259071626938 45.142815886474324 10.554692912450175 #
plane-surface $-1 0 0 13.554692912450175 0 0 1 1 0 0 forward_v I I I I #
coedge $-1 $427 $426 $419 $556 forward $270 $-1 #
coedge $-1 $419 $272 $274 $423 reversed $161 $-1 #
coedge $-1 $272 $418 $417 $556 reversed $161 $-1 #
coedge $-1 $280 $275 $272 $421 forward $281 $-1 #
edge $-1 $424 -17.328446455780771 $557 -6.2005589982507843 $420 $558 forward 7 unknown #
coedge $-1 $274 $273 $427 $559 reversed $101 $-1 #
edge $-1 $560 1.7761521089745031e-014 $424 13.754825436234146 $418 $561 forward 7 unknown #
vertex $-1 $276 $562 #
straight-curve $-1 -59.505371614096958 -4.2740318091226293 13.554692912450175 0 1 0 I I #
coedge $-1 $417 $277 $280 $431 reversed $270 $-1 #
coedge $-1 $277 $417 $422 $559 forward $270 $-1 #
vertex $-1 $278 $563 #
straight-curve $-1 -70.633259071626938 -11.952702719426032 59.878411206612782 0 0 1 I I #
straight-curve $-1 -70.633259071626952 -11.952702719426032 5.4698092698848484 -0.80901698891910034 0 -0.5877852598018023 I I #
edge $-1 $557 5.143424517064485 $282 11.952702719426032 $426 $564 forward 7 unknown #
point $-1 -70.633259071626938 -11.952702719426032 13.554692912450175 #
point $-1 -59.505371614096951 -11.952702719426032 13.554692912450175 #
edge $-1 $565 1 $565 0 $285 $-1 forward 7 unknown #
vertex $-1 $286 $566 #
ellipse-curve $-1 -62.913146012654195 -8.5480636182452656 6.5445386655232003 -0.5877852598018023 0 0.80901698891910034 0.80901698891910034 0 0.5877852598018023 1 I I #
point $-1 -64.260298353942829 -8.5480636182452656 10.100036350969308 #
loop $-1 $-1 $297 $289 #
plane-surface $-1 -70.633259071626938 0 0 1 0 0 0 0 -1 forward_v I I I I #
coedge $-1 $441 $292 $294 $445 reversed $176 $-1 #
coedge $-1 $292 $440 $567 $568 reversed $176 $-1 #
coedge $-1 $300 $295 $292 $443 forward $290 $-1 #
edge $-1 $446 -17.328446455780771 $569 -6.2005589982507843 $442 $570 forward 7 unknown #
coedge $-1 $294 $293 $449 $571 reversed $110 $-1 #
edge $-1 $572 1.7761521089745031e-014 $446 13.754825436234146 $440 $573 forward 7 unknown #
vertex $-1 $296 $574 #
straight-curve $-1 -59.505371614096958 11.322630956282577 13.554692912450175 0 1 0 I I #
coedge $-1 $567 $297 $300 $453 reversed $438 $-1 #
coedge $-1 $297 $567 $444 $571 forward $438 $-1 #
vertex $-1 $298 $575 #
straight-curve $-1 -70.633259071626938 19.24062281138438 59.878411206612782 0 0 1 I I #
straight-curve $-1 -70.633259071626952 19.24062281138438 5.4698092698848484 -0.80901698891910034 0 -0.5877852598018023 I I #
edge $-1 $569 -26.049901013745927 $301 -19.24062281138438 $448 $576 forward 7 unknown #
point $-1 -70.633259071626938 19.24062281138438 13.554692912450175 #
point $-1 -59.505371614096951 19.24062281138438 13.554692912450175 #
edge $-1 $577 1 $577 0 $304 $-1 forward 7 unknown #
vertex $-1 $305 $578 #
ellipse-curve $-1 -62.913146012654195 22.64526191256514 6.5445386655232003 -0.5877852598018023 0 0.80901698891910034 0.80901698891910034 0 0.5877852598018023 1 I I #
point $-1 -64.260298353942829 22.64526191256514 10.100036350969308 #
loop $-1 $-1 $316 $308 #
plane-surface $-1 70.633259071626938 0 0 -1 0 0 0 0 1 forward_v I I I I #
coedge $-1 $463 $311 $313 $467 reversed $191 $-1 #
coedge $-1 $311 $462 $579 $580 reversed $191 $-1 #
coedge $-1 $319 $314 $311 $465 forward $309 $-1 #
edge $-1 $468 39.81506011588958 $581 50.942947573419573 $464 $582 forward 7 unknown #
coedge $-1 $313 $312 $471 $583 reversed $119 $-1 #
edge $-1 $584 -141.26651814325388 $468 -127.51169270701972 $462 $585 forward 7 unknown #
vertex $-1 $315 $586 #
straight-curve $-1 59.50537161409693 -4.2740318091226293 13.554692912450179 0 -1 0 I I #
coedge $-1 $579 $316 $319 $475 reversed $460 $-1 #
coedge $-1 $316 $579 $466 $583 forward $460 $-1 #
vertex $-1 $317 $587 #
straight-curve $-1 70.633259071626938 -5.143424517064485 101.39559974067703 0 0 1 I I #
straight-curve $-1 -43.653754071713763 -5.143424517064485 88.504186338013341 0.80901698891910034 0 -0.5877852598018023 I I #
edge $-1 $581 -11.952702719426032 $320 -5.143424517064485 $470 $588 forward 7 unknown #
point $-1 70.633259071626938 -5.143424517064485 13.554692912450175 #
point $-1 59.505371614096944 -5.143424517064485 13.554692912450179 #
edge $-1 $589 1 $589 0 $323 $-1 forward 7 unknown #
vertex $-1 $324 $590 #
ellipse-curve $-1 62.913146012654188 -8.5480636182452656 6.5445386655231967 0.5877852598018023 0 0.80901698891910034 0.80901698891910034 0 -0.5877852598018023 1 I I #
point $-1 65.878332331781024 -8.5480636182452656 8.9244658313656977 #
plane-surface $-1 0 0 13.554692912450175 0 0 1 1 0 0 forward_v I I I I #
coedge $-1 $493 $492 $485 $591 forward $328 $-1 #
coedge $-1 $485 $330 $332 $489 reversed $206 $-1 #
coedge $-1 $330 $484 $483 $591 reversed $206 $-1 #
coedge $-1 $338 $333 $330 $487 forward $339 $-1 #
edge $-1 $490 39.81506011588958 $592 50.942947573419573 $486 $593 forward 7 unknown #
coedge $-1 $332 $331 $493 $594 reversed $128 $-1 #
edge $-1 $595 -141.26651814325388 $490 -127.51169270701972 $484 $596 forward 7 unknown #
vertex $-1 $334 $597 #
straight-curve $-1 59.50537161409693 11.322630956282577 13.554692912450179 0 -1 0 I I #
coedge $-1 $483 $335 $338 $497 reversed $328 $-1 #
coedge $-1 $335 $483 $488 $594 forward $328 $-1 #
vertex $-1 $336 $598 #
straight-curve $-1 70.633259071626938 26.049901013745927 101.39559974067703 0 0 1 I I #
straight-curve $-1 -43.653754071713763 26.049901013745927 88.504186338013341 0.80901698891910034 0 -0.5877852598018023 I I #
edge $-1 $592 19.24062281138438 $340 26.049901013745927 $492 $599 forward 7 unknown #
point $-1 70.633259071626938 26.049901013745927 13.554692912450175 #
point $-1 59.505371614096944 26.049901013745927 13.554692912450179 #
edge $-1 $600 1 $600 0 $343 $-1 forward 7 unknown #
vertex $-1 $344 $601 #
ellipse-curve $-1 62.913146012654188 22.64526191256514 6.5445386655231967 0.5877852598018023 0 0.80901698891910034 0.80901698891910034 0 -0.5877852598018023 1 I I #
point $-1 65.878332331781024 22.64526191256514 8.9244658313656977 #
plane-surface $-1 70.633259071626938 0 0 -1 0 0 0 0 1 forward_v I I I I #
coedge $-1 $352 $350 $354 $509 reversed $221 $-1 #
edge $-1 $365 -13.554692912450175 $511 13.554692912450175 $364 $602 forward 7 unknown #
vertex $-1 $509 $603 #
straight-curve $-1 -70.633259071626938 -45.142815886474317 0 0 0 -1 I I #
edge $-1 $507 -45.142815886474317 $511 45.142815886474317 $505 $604 forward 7 unknown #
straight-curve $-1 0 -45.142815886474317 -13.554692912450175 -1 0 0 I I #
vertex $-1 $357 $605 #
straight-curve $-1 0 45.142815886474317 -13.554692912450175 1 0 0 I I #
point $-1 70.633259071626938 45.142815886474317 -13.554692912450175 #
point $-1 70.633259071626938 -45.142815886474317 -13.554692912450175 #
straight-curve $-1 -70.633259071626938 0 13.554692912450175 0 -1 0 I I #
point $-1 -70.633259071626938 45.142815886474317 13.554692912450175 #
point $-1 -70.633259071626938 -45.142815886474317 13.554692912450175 #
straight-curve $-1 70.633259071626938 -45.142815886474317 0 0 0 -1 I I #
straight-curve $-1 70.633259071626938 45.142815886474317 0 0 0 -1 I I #
plane-surface $-1 70.633259071626938 0 0 -1 0 0 0 0 1 forward_v I I I I #
coedge $-1 $532 $523 $522 $606 forward $375 $-1 #
coedge $-1 $378 $377 $521 $606 reversed $145 $-1 #
coedge $-1 $521 $607 $379 $524 reversed $375 $-1 #
edge $-1 $525 -70.633259071626938 $528 70.633259071626938 $523 $608 forward 7 unknown #
vertex $-1 $380 $609 #
straight-curve $-1 -70.633259071626938 0 13.554692912450175 0 -1 0 I I #
coedge $-1 $387 $381 $607 $610 forward $388 $-1 #
vertex $-1 $382 $611 #
straight-curve $-1 70.633259071626938 0 13.554692912450175 0 1 0 I I #
point $-1 70.633259071626938 -45.142815886474317 13.554692912450175 #
point $-1 -70.633259071626938 -45.142815886474317 13.554692912450175 #
coedge $-1 $607 $521 $390 $533 reversed $375 $-1 #
edge $-1 $534 -70.633259071626938 $536 70.633259071626938 $532 $612 forward 7 unknown #
vertex $-1 $610 $613 #
straight-curve $-1 70.633259071626938 -52.117561064306273 10.554692912450175 0 -1 0 I I #
vertex $-1 $392 $614 #
straight-curve $-1 -70.633259071626938 -52.117561064306273 10.554692912450175 0 1 0 I I #
plane-surface $-1 -70.633259071626938 0 0 1 0 0 0 0 -1 forward_v I I I I #
coedge $-1 $615 $398 $399 $542 reversed $256 $-1 #
coedge $-1 $398 $615 $545 $616 reversed $256 $-1 #
edge $-1 $546 -1.5 $543 1.5 $401 $617 forward 7 unknown #
edge $-1 $554 -70.633259071626938 $543 70.633259071626938 $539 $618 forward 7 unknown #
vertex $-1 $400 $619 #
straight-curve $-1 70.633259071626938 52.11756106430628 10.554692912450175 0 -1 0 I I #
coedge $-1 $549 $402 $540 $616 forward $396 $-1 #
vertex $-1 $403 $620 #
straight-curve $-1 70.633259071626938 0 13.554692912450175 0 1 0 I I #
point $-1 70.633259071626938 45.142815886474317 13.554692912450175 #
coedge $-1 $406 $545 $408 $552 forward $396 $-1 #
straight-curve $-1 0 45.142815886474317 13.554692912450175 1 0 0 I I #
coedge $-1 $409 $408 $615 $621 forward $410 $-1 #
edge $-1 $622 -59.092306242138235 $411 -45.142815886474317 $408 $623 forward 7 unknown #
point $-1 -70.633259071626938 45.142815886474317 13.554692912450175 #
vertex $-1 $542 $624 #
straight-curve $-1 -70.633259071626938 52.11756106430628 10.554692912450175 0 1 0 I I #
edge $-1 $557 46.323718294162603 $560 54.408601936727919 $417 $625 forward 7 unknown #
vertex $-1 $431 $626 #
straight-curve $-1 -76.833818069877722 -5.143424517064485 13.554692912450179 -1 0 0 I I #
edge $-1 $560 0.86939270794185575 $428 7.6786709103034028 $427 $627 forward 7 unknown #
vertex $-1 $559 $628 #
straight-curve $-1 -70.633259071626952 -5.143424517064485 5.4698092698848484 0.80901698891910034 0 0.5877852598018023 I I #
point $-1 -59.505371614096951 -5.143424517064485 13.554692912450175 #
point $-1 -70.633259071626938 -11.952702719426032 5.469809269884859 #
straight-curve $-1 -70.633259071626938 0 13.554692912450175 0 -1 0 I I #
vertex $-1 $434 $629 #
point $-1 -62.104129023735091 -8.5480636182452656 7.1323239253250019 #
coedge $-1 $449 $448 $441 $568 forward $438 $-1 #
edge $-1 $569 46.323718294162603 $572 54.408601936727919 $567 $630 forward 7 unknown #
vertex $-1 $453 $631 #
straight-curve $-1 -76.833818069877722 26.049901013745927 13.554692912450179 -1 0 0 I I #
edge $-1 $572 -14.72727005746335 $450 -7.9179918551018034 $449 $632 forward 7 unknown #
vertex $-1 $571 $633 #
straight-curve $-1 -70.633259071626952 26.049901013745927 5.4698092698848484 0.80901698891910034 0 0.5877852598018023 I I #
point $-1 -59.505371614096951 26.049901013745927 13.554692912450175 #
point $-1 -70.633259071626938 19.24062281138438 5.469809269884859 #
straight-curve $-1 -70.633259071626938 0 13.554692912450175 0 -1 0 I I #
vertex $-1 $456 $634 #
point $-1 -62.104129023735091 22.64526191256514 7.1323239253250019 #
coedge $-1 $471 $470 $463 $580 forward $460 $-1 #
edge $-1 $581 87.840906828226849 $584 95.92579047079218 $579 $635 forward 7 unknown #
vertex $-1 $475 $636 #
straight-curve $-1 19.690311498207365 -11.952702719426032 13.554692912450179 1 0 0 I I #
edge $-1 $584 -7.6786709103034028 $472 -0.86939270794185575 $471 $637 forward 7 unknown #
vertex $-1 $583 $638 #
straight-curve $-1 -43.653754071713763 -11.952702719426032 88.504186338013341 -0.80901698891910034 0 0.5877852598018023 I I #
point $-1 59.505371614096944 -11.952702719426032 13.554692912450179 #
point $-1 70.633259071626952 -5.143424517064485 5.4698092698848484 #
straight-curve $-1 70.633259071626938 0 13.554692912450175 0 1 0 I I #
vertex $-1 $478 $639 #
point $-1 63.722163001573286 -8.5480636182452656 5.9567534057213942 #
edge $-1 $592 87.840906828226849 $595 95.92579047079218 $483 $640 forward 7 unknown #
vertex $-1 $497 $641 #
straight-curve $-1 19.690311498207365 19.24062281138438 13.554692912450179 1 0 0 I I #
edge $-1 $595 7.9179918551018034 $494 14.72727005746335 $493 $642 forward 7 unknown #
vertex $-1 $594 $643 #
straight-curve $-1 -43.653754071713763 19.24062281138438 88.504186338013341 -0.80901698891910034 0 0.5877852598018023 I I #
point $-1 59.505371614096944 19.24062281138438 13.554692912450179 #
point $-1 70.633259071626952 26.049901013745927 5.4698092698848484 #
straight-curve $-1 70.633259071626938 0 13.554692912450175 0 1 0 I I #
vertex $-1 $500 $644 #
point $-1 63.722163001573286 22.64526191256514 5.9567534057213942 #
straight-curve $-1 -70.633259071626938 45.142815886474317 0 0 0 -1 I I #
point $-1 -70.633259071626938 -45.142815886474317 -13.554692912450175 #
straight-curve $-1 -70.633259071626938 0 -13.554692912450175 0 1 0 I I #
point $-1 -70.633259071626938 45.142815886474317 -13.554692912450175 #
edge $-1 $525 -1.5 $536 1.5 $522 $645 forward 7 unknown #
coedge $-1 $523 $532 $527 $610 reversed $375 $-1 #
straight-curve $-1 0 -59.092306242138221 13.554692912450175 1 0 0 I I #
point $-1 -70.633259071626938 -59.092306242138221 13.554692912450175 #
edge $-1 $528 -1.5 $534 1.5 $527 $646 forward 7 unknown #
point $-1 70.633259071626938 -59.092306242138221 13.554692912450175 #
straight-curve $-1 0 -59.092306242138221 10.554692912450175 -1 0 0 I I #
point $-1 70.633259071626938 -59.092306242138221 10.554692912450175 #
point $-1 -70.633259071626938 -59.092306242138221 10.554692912450175 #
coedge $-1 $540 $539 $551 $621 reversed $256 $-1 #
edge $-1 $546 -70.633259071626938 $622 70.633259071626938 $540 $647 forward 7 unknown #
straight-curve $-1 70.633259071626938 59.092306242138235 12.054692912450175 0 0 -1 I I #
straight-curve $-1 0 59.092306242138235 10.554692912450175 1 0 0 I I #
point $-1 70.633259071626938 59.092306242138235 10.554692912450175 #
point $-1 70.633259071626938 59.092306242138235 13.554692912450175 #
edge $-1 $622 -1.5 $554 1.5 $615 $648 forward 7 unknown #
vertex $-1 $616 $649 #
straight-curve $-1 -70.633259071626938 0 13.554692912450175 0 -1 0 I I #
point $-1 -70.633259071626938 59.092306242138235 10.554692912450175 #
straight-curve $-1 -70.633259071626938 -5.143424517064485 59.878411206612782 0 0 -1 I I #
point $-1 -70.633259071626938 -5.143424517064485 13.554692912450175 #
straight-curve $-1 -70.633259071626938 -4.2740318091226293 5.4698092698848653 0 -1 0 I I #
point $-1 -70.633259071626938 -5.143424517064485 5.469809269884859 #
point $-1 -62.32536075285239 -8.5480636182452656 5.7355216766040993 #
straight-curve $-1 -70.633259071626938 26.049901013745927 59.878411206612782 0 0 -1 I I #
point $-1 -70.633259071626938 26.049901013745927 13.554692912450175 #
straight-curve $-1 -70.633259071626938 11.322630956282577 5.4698092698848653 0 -1 0 I I #
point $-1 -70.633259071626938 26.049901013745927 5.469809269884859 #
point $-1 -62.32536075285239 22.64526191256514 5.7355216766040993 #
straight-curve $-1 70.633259071626938 -11.952702719426032 101.39559974067703 0 0 -1 I I #
point $-1 70.633259071626938 -11.952702719426032 13.554692912450175 #
straight-curve $-1 70.633259071626924 -4.2740318091226293 5.4698092698848626 0 1 0 I I #
point $-1 70.633259071626952 -11.952702719426032 5.4698092698848484 #
point $-1 62.325360752852383 -8.5480636182452656 5.7355216766040957 #
straight-curve $-1 70.633259071626938 19.24062281138438 101.39559974067703 0 0 -1 I I #
point $-1 70.633259071626938 19.24062281138438 13.554692912450175 #
straight-curve $-1 70.633259071626924 11.322630956282577 5.4698092698848626 0 1 0 I I #
point $-1 70.633259071626952 19.24062281138438 5.4698092698848484 #
point $-1 62.325360752852383 22.64526191256514 5.7355216766040957 #
straight-curve $-1 -70.633259071626938 -59.092306242138221 12.054692912450175 0 0 -1 I I #
straight-curve $-1 70.633259071626938 -59.092306242138221 12.054692912450175 0 0 -1 I I #
straight-curve $-1 0 59.092306242138235 13.554692912450175 -1 0 0 I I #
straight-curve $-1 -70.633259071626938 59.092306242138235 12.054692912450175 0 0 -1 I I #
point $-1 -70.633259071626938 59.092306242138235 13.554692912450175 #
End-of-ACIS-data 