500 0 8 0           
7 Unknown 11 ACIS 5.0 NT 24 Thu Mar 25 15:07:26 1999 
-1 9.9999999999999995e-007 1e-010 
body $-1 $8 $-1 $9 #
body $-1 $10 $-1 $11 #
body $-1 $12 $-1 $13 #
body $-1 $14 $-1 $15 #
body $-1 $16 $-1 $17 #
body $-1 $18 $-1 $19 #
body $-1 $20 $-1 $21 #
body $-1 $22 $-1 $23 #
lump $-1 $-1 $24 $0 #
transform $-1 1 0 0 0 1 0 0 0 1 69.74944303720207 42.861412710214005 21.018273009743361 1 rotate no_reflect no_shear #
lump $-1 $-1 $25 $1 #
transform $-1 1 0 0 0 1 0 0 0 1 69.74944303720207 42.861412710214005 21.018273009743361 1 rotate no_reflect no_shear #
lump $-1 $-1 $26 $2 #
transform $-1 1 0 0 0 1 0 0 0 1 69.74944303720207 42.861412710214005 21.018273009743361 1 rotate no_reflect no_shear #
lump $-1 $-1 $27 $3 #
transform $-1 1 0 0 0 1 0 0 0 1 69.74944303720207 42.861412710214005 21.018273009743361 1 rotate no_reflect no_shear #
lump $-1 $-1 $28 $4 #
transform $-1 1 0 0 0 1 0 0 0 1 69.74944303720207 42.861412710214005 21.018273009743361 1 rotate no_reflect no_shear #
lump $-1 $-1 $29 $5 #
transform $-1 1 0 0 0 1 0 0 0 1 69.74944303720207 42.861412710214005 21.018273009743361 1 rotate no_reflect no_shear #
lump $-1 $-1 $30 $6 #
transform $-1 1 0 0 0 1 0 0 0 1 69.74944303720207 42.861412710214005 21.018273009743361 1 rotate no_reflect no_shear #
lump $-1 $-1 $31 $7 #
transform $-1 1 0 0 0 1 0 0 0 1 69.74944303720207 42.861412710214005 21.018273009743361 1 rotate no_reflect no_shear #
shell $-1 $-1 $-1 $32 $-1 $8 #
shell $-1 $-1 $-1 $33 $-1 $10 #
shell $-1 $-1 $-1 $34 $-1 $12 #
shell $-1 $-1 $-1 $35 $-1 $14 #
shell $-1 $-1 $-1 $36 $-1 $16 #
shell $-1 $-1 $-1 $37 $-1 $18 #
shell $-1 $-1 $-1 $38 $-1 $20 #
shell $-1 $-1 $-1 $39 $-1 $22 #
face $-1 $40 $41 $24 $-1 $42 forward single #
face $-1 $43 $44 $25 $-1 $45 forward single #
face $-1 $46 $47 $26 $-1 $48 reversed single #
face $-1 $49 $50 $27 $-1 $51 forward single #
face $-1 $52 $53 $28 $-1 $54 forward single #
face $-1 $55 $56 $29 $-1 $57 forward single #
face $-1 $58 $59 $30 $-1 $60 reversed single #
face $-1 $61 $62 $31 $-1 $63 forward single #
face $-1 $64 $65 $24 $-1 $66 reversed single #
loop $-1 $-1 $67 $32 #
plane-surface $-1 0 0 21.018273009743361 0 0 1 1 0 0 forward_v I I I I #
face $-1 $68 $69 $25 $-1 $70 reversed single #
loop $-1 $-1 $71 $33 #
plane-surface $-1 0 -33.311802992347999 -10.724983206363383 0 0 1 1 0 0 forward_v I I I I #
face $-1 $72 $73 $26 $-1 $74 reversed single #
loop $-1 $-1 $75 $34 #
plane-surface $-1 -179.67606653147328 -23.762193274481994 91.634846891613449 0 1 0 -0.78801076186113728 0 0.61566146476048833 forward_v I I I I #
face $-1 $76 $77 $27 $-1 $78 forward single #
loop $-1 $79 $80 $35 #
cone-surface $-1 -62.722564797479009 -20.960248437808808 12.554217275447249 0.78801076186113728 0 -0.61566146476048833 0.61566146476048833 0 0.78801076186113728 1 I I 0 1 1 forward I I I I #
face $-1 $81 $82 $28 $-1 $83 forward single #
loop $-1 $84 $85 $36 #
cone-surface $-1 -62.722564797479009 -16.757331182799035 12.554217275447249 0.78801076186113728 0 -0.61566146476048833 0.61566146476048833 0 0.78801076186113728 1 I I 0 1 1 forward I I I I #
face $-1 $86 $87 $29 $-1 $88 forward single #
loop $-1 $89 $90 $37 #
cone-surface $-1 -62.722564797479009 -12.554413927789263 12.554217275447249 0.78801076186113728 0 -0.61566146476048833 0.61566146476048833 0 0.78801076186113728 1 I I 0 1 1 forward I I I I #
face $-1 $91 $92 $30 $-1 $93 reversed single #
loop $-1 $-1 $94 $38 #
plane-surface $-1 49.127942604996377 26.134449016427617 213.561643144405 0 1 0 0.62932039886446345 0 0.77714595512881146 forward_v I I I I #
face $-1 $95 $96 $31 $-1 $97 forward single #
loop $-1 $98 $99 $39 #
cone-surface $-1 66.444838809689472 34.497930863320811 17.897367444836185 -0.62932039886446345 0 -0.77714595512881146 0.77714595512881146 0 -0.62932039886446345 1 I I 0 1 1 forward I I I I #
face $-1 $100 $101 $24 $-1 $102 reversed single #
loop $-1 $-1 $103 $40 #
plane-surface $-1 0 0 -21.018273009743361 0 0 1 1 0 0 forward_v I I I I #
coedge $-1 $104 $105 $106 $107 forward $41 $-1 #
face $-1 $108 $109 $25 $-1 $110 reversed single #
loop $-1 $-1 $111 $43 #
plane-surface $-1 0 -23.762193274481994 -15.871628108053372 0 -1 0 0 0 -1 forward_v I I I I #
coedge $-1 $112 $113 $114 $115 reversed $44 $-1 #
face $-1 $116 $117 $26 $-1 $118 reversed single #
loop $-1 $-1 $119 $46 #
plane-surface $-1 -69.749443037202084 -16.757331182799035 5.7507583585893087 -0.78801076186113728 0 0.61566146476048833 0.61566146476048833 0 0.78801076186113728 forward_v I I I I #
coedge $-1 $120 $121 $122 $123 reversed $47 $-1 #
face $-1 $-1 $124 $27 $-1 $125 forward single #
loop $-1 $126 $127 $49 #
cone-surface $-1 -61.265825886715845 -20.960248437808808 11.416088134347916 0.78801076186113728 0 -0.61566146476048833 0.30783073238024417 0 0.39400538093056864 1 I I -0.70710678118654746 0.70710678118654746 0.5 forward I I I I #
loop $-1 $-1 $128 $35 #
coedge $-1 $80 $80 $129 $130 reversed $50 $-1 #
face $-1 $-1 $131 $28 $-1 $132 forward single #
loop $-1 $133 $134 $52 #
cone-surface $-1 -61.265825886715845 -16.757331182799035 11.416088134347916 0.78801076186113728 0 -0.61566146476048833 0.30783073238024417 0 0.39400538093056864 1 I I -0.70710678118654746 0.70710678118654746 0.5 forward I I I I #
loop $-1 $-1 $135 $36 #
coedge $-1 $85 $85 $136 $137 reversed $53 $-1 #
face $-1 $-1 $138 $29 $-1 $139 forward single #
loop $-1 $140 $141 $55 #
cone-surface $-1 -61.265825886715845 -12.554413927789263 11.416088134347916 0.78801076186113728 0 -0.61566146476048833 0.30783073238024417 0 0.39400538093056864 1 I I -0.70710678118654746 0.70710678118654746 0.5 forward I I I I #
loop $-1 $-1 $142 $37 #
coedge $-1 $90 $90 $143 $144 reversed $56 $-1 #
face $-1 $145 $146 $30 $-1 $147 reversed single #
loop $-1 $-1 $148 $58 #
plane-surface $-1 -38.661552020495975 34.497930863320811 105.15064808670694 0.62932039886446345 0 0.77714595512881146 0.77714595512881146 0 -0.62932039886446345 forward_v I I I I #
coedge $-1 $149 $150 $151 $152 reversed $59 $-1 #
face $-1 $-1 $153 $31 $-1 $154 forward single #
loop $-1 $155 $156 $61 #
cone-surface $-1 65.083657602111089 34.497930863320811 16.216448676629021 -0.62932039886446345 0 -0.77714595512881146 0.38857297756440573 0 -0.31466019943223172 1 I I -0.70710678118654746 0.70710678118654746 0.5 forward I I I I #
loop $-1 $-1 $157 $39 #
coedge $-1 $99 $99 $158 $159 reversed $62 $-1 #
face $-1 $160 $161 $24 $-1 $162 reversed single #
loop $-1 $-1 $163 $64 #
plane-surface $-1 0 -42.861412710214005 0 0 1 0 0 0 1 forward_v I I I I #
coedge $-1 $164 $165 $166 $167 forward $65 $-1 #
coedge $-1 $168 $67 $169 $170 forward $41 $-1 #
coedge $-1 $67 $168 $171 $172 forward $41 $-1 #
coedge $-1 $173 $174 $67 $107 reversed $175 $-1 #
edge $-1 $176 -42.861412710214005 $177 42.861412710214005 $106 $178 forward 7 unknown #
face $-1 $179 $180 $25 $-1 $181 reversed single #
loop $-1 $-1 $182 $68 #
plane-surface $-1 0 0 -21.018273009743361 0 0 1 1 0 0 forward_v I I I I #
coedge $-1 $183 $184 $185 $186 reversed $69 $-1 #
coedge $-1 $187 $71 $184 $188 forward $44 $-1 #
coedge $-1 $71 $187 $189 $190 reversed $44 $-1 #
coedge $-1 $191 $185 $71 $115 forward $180 $-1 #
edge $-1 $192 7.1062917783079946 $193 26.205511214040005 $114 $194 forward 7 unknown #
face $-1 $195 $196 $26 $-1 $197 forward single #
loop $-1 $-1 $198 $72 #
plane-surface $-1 -179.67606653147328 -9.7524690911160778 91.634846891613449 0 -1 0 0.78801076186113728 0 -0.61566146476048833 forward_v I I I I #
coedge $-1 $199 $200 $201 $202 reversed $73 $-1 #
coedge $-1 $121 $75 $203 $204 reversed $47 $-1 #
coedge $-1 $75 $120 $199 $205 reversed $47 $-1 #
coedge $-1 $201 $206 $75 $123 forward $196 $-1 #
edge $-1 $207 20.088590228534571 $208 32.016879648315495 $122 $209 forward 7 unknown #
loop $-1 $-1 $129 $76 #
plane-surface $-1 -69.749443037202084 -16.757331182799035 5.7507583585893087 -0.78801076186113728 0 0.61566146476048833 0.61566146476048833 0 0.78801076186113728 forward_v I I I I #
loop $-1 $-1 $210 $49 #
coedge $-1 $127 $127 $128 $211 reversed $77 $-1 #
coedge $-1 $128 $128 $127 $211 forward $79 $-1 #
coedge $-1 $129 $129 $80 $130 forward $124 $-1 #
edge $-1 $212 0 $212 6.2831853071796004 $129 $213 forward 7 unknown #
loop $-1 $-1 $136 $81 #
plane-surface $-1 -69.749443037202084 -16.757331182799035 5.7507583585893087 -0.78801076186113728 0 0.61566146476048833 0.61566146476048833 0 0.78801076186113728 forward_v I I I I #
loop $-1 $-1 $214 $52 #
coedge $-1 $134 $134 $135 $215 reversed $82 $-1 #
coedge $-1 $135 $135 $134 $215 forward $84 $-1 #
coedge $-1 $136 $136 $85 $137 forward $131 $-1 #
edge $-1 $216 0 $216 6.2831853071796004 $136 $217 forward 7 unknown #
loop $-1 $-1 $143 $86 #
plane-surface $-1 -69.749443037202084 -16.757331182799035 5.7507583585893087 -0.78801076186113728 0 0.61566146476048833 0.61566146476048833 0 0.78801076186113728 forward_v I I I I #
loop $-1 $-1 $218 $55 #
coedge $-1 $141 $141 $142 $219 reversed $87 $-1 #
coedge $-1 $142 $142 $141 $219 forward $89 $-1 #
coedge $-1 $143 $143 $90 $144 forward $138 $-1 #
edge $-1 $220 0 $220 6.2831853071796004 $143 $221 forward 7 unknown #
face $-1 $222 $223 $30 $-1 $224 forward single #
loop $-1 $-1 $225 $91 #
plane-surface $-1 0 42.861412710214005 0 0 -1 0 0 0 -1 forward_v I I I I #
coedge $-1 $226 $227 $228 $229 reversed $92 $-1 #
coedge $-1 $150 $94 $230 $231 reversed $59 $-1 #
coedge $-1 $94 $149 $226 $232 reversed $59 $-1 #
coedge $-1 $228 $233 $94 $152 forward $234 $-1 #
edge $-1 $235 85.762548562459131 $236 89.419668110987899 $151 $237 forward 7 unknown #
loop $-1 $-1 $158 $95 #
plane-surface $-1 -38.661552020495975 34.497930863320811 105.15064808670694 0.62932039886446345 0 0.77714595512881146 0.77714595512881146 0 -0.62932039886446345 forward_v I I I I #
loop $-1 $-1 $238 $61 #
coedge $-1 $156 $156 $157 $239 reversed $96 $-1 #
coedge $-1 $157 $157 $156 $239 forward $98 $-1 #
coedge $-1 $158 $158 $99 $159 forward $153 $-1 #
edge $-1 $240 0 $240 6.2831853071796004 $158 $241 forward 7 unknown #
face $-1 $242 $243 $24 $-1 $244 reversed single #
loop $-1 $-1 $245 $100 #
plane-surface $-1 -69.74944303720207 0 0 1 0 0 0 0 -1 forward_v I I I I #
coedge $-1 $246 $171 $247 $248 forward $101 $-1 #
coedge $-1 $249 $103 $246 $250 forward $65 $-1 #
coedge $-1 $103 $249 $251 $252 forward $65 $-1 #
coedge $-1 $174 $173 $103 $167 reversed $175 $-1 #
edge $-1 $253 -42.861412710214005 $254 42.861412710214005 $166 $255 forward 7 unknown #
coedge $-1 $105 $104 $256 $257 forward $41 $-1 #
coedge $-1 $258 $259 $104 $170 reversed $243 $-1 #
edge $-1 $177 -69.74944303720207 $260 69.74944303720207 $169 $261 forward 7 unknown #
coedge $-1 $163 $262 $105 $172 reversed $101 $-1 #
edge $-1 $263 -69.74944303720207 $176 69.74944303720207 $171 $264 forward 7 unknown #
coedge $-1 $166 $106 $262 $265 forward $175 $-1 #
coedge $-1 $106 $166 $258 $266 reversed $175 $-1 #
loop $-1 $-1 $173 $242 #
vertex $-1 $107 $267 #
vertex $-1 $107 $268 #
straight-curve $-1 69.74944303720207 0 21.018273009743361 0 1 0 I I #
face $-1 $269 $270 $25 $-1 $271 reversed single #
loop $-1 $-1 $185 $108 #
plane-surface $-1 69.74944303720207 0 0 -1 0 0 0 0 1 forward_v I I I I #
coedge $-1 $272 $273 $183 $274 forward $109 $-1 #
coedge $-1 $275 $111 $182 $274 reversed $69 $-1 #
coedge $-1 $111 $275 $112 $188 reversed $69 $-1 #
coedge $-1 $114 $276 $111 $186 forward $180 $-1 #
edge $-1 $277 -13.082458955716675 $192 -2.7891691523366973 $185 $278 forward 7 unknown #
coedge $-1 $113 $112 $279 $280 reversed $44 $-1 #
edge $-1 $192 -69.74944303720207 $281 69.74944303720207 $184 $282 forward 7 unknown #
coedge $-1 $283 $284 $113 $190 forward $270 $-1 #
edge $-1 $193 -69.74944303720207 $285 69.74944303720207 $189 $286 forward 7 unknown #
coedge $-1 $276 $114 $284 $287 forward $180 $-1 #
vertex $-1 $115 $288 #
vertex $-1 $287 $289 #
straight-curve $-1 69.74944303720207 -16.655901496174 -10.724983206363383 0 -1 0 I I #
face $-1 $-1 $290 $26 $-1 $291 reversed single #
loop $-1 $-1 $122 $116 #
plane-surface $-1 0 0 21.018273009743361 0 0 1 1 0 0 forward_v I I I I #
coedge $-1 $292 $293 $294 $295 reversed $117 $-1 #
coedge $-1 $296 $119 $121 $205 forward $73 $-1 #
coedge $-1 $119 $296 $292 $297 forward $73 $-1 #
coedge $-1 $294 $122 $119 $202 forward $196 $-1 #
edge $-1 $208 -15.383527683082477 $298 -1.3738034997165602 $201 $299 forward 7 unknown #
coedge $-1 $300 $301 $120 $204 forward $290 $-1 #
edge $-1 $302 -40.066665087217402 $207 -24.799150436063364 $203 $303 forward 7 unknown #
edge $-1 $208 -19.374753988251349 $302 -2.274695869299009e-014 $121 $304 forward 7 unknown #
coedge $-1 $122 $294 $300 $305 forward $196 $-1 #
vertex $-1 $204 $306 #
vertex $-1 $123 $307 #
straight-curve $-1 -89.838033265736641 -23.762193274481994 21.018273009743361 1 0 0 I I #
coedge $-1 $210 $210 $-1 $308 reversed $126 $-1 #
edge $-1 $309 0 $309 6.2831853071796004 $127 $310 forward 7 unknown #
vertex $-1 $130 $311 #
ellipse-curve $-1 -63.785298327311608 -20.960248437808808 13.384515684166342 -0.78801076186113728 0 0.61566146476048833 0.61566146476048833 0 0.78801076186113728 1 I I #
coedge $-1 $214 $214 $-1 $312 reversed $133 $-1 #
edge $-1 $313 0 $313 6.2831853071796004 $134 $314 forward 7 unknown #
vertex $-1 $137 $315 #
ellipse-curve $-1 -63.785298327311608 -16.757331182799035 13.384515684166342 -0.78801076186113728 0 0.61566146476048833 0.61566146476048833 0 0.78801076186113728 1 I I #
coedge $-1 $218 $218 $-1 $316 reversed $140 $-1 #
edge $-1 $317 0 $317 6.2831853071796004 $141 $318 forward 7 unknown #
vertex $-1 $144 $319 #
ellipse-curve $-1 -63.785298327311608 -12.554413927789263 13.384515684166342 -0.78801076186113728 0 0.61566146476048833 0.61566146476048833 0 0.78801076186113728 1 I I #
face $-1 $-1 $234 $30 $-1 $320 reversed single #
loop $-1 $-1 $321 $145 #
plane-surface $-1 0 0 21.018273009743361 0 0 1 1 0 0 forward_v I I I I #
coedge $-1 $322 $323 $227 $324 forward $146 $-1 #
coedge $-1 $325 $148 $150 $232 forward $92 $-1 #
coedge $-1 $148 $325 $225 $324 reversed $92 $-1 #
coedge $-1 $326 $151 $148 $229 forward $234 $-1 #
edge $-1 $236 8.8854835847672113 $327 25.612447278553599 $228 $328 forward 7 unknown #
coedge $-1 $329 $321 $149 $231 forward $223 $-1 #
edge $-1 $330 40.669305295971043 $235 45.185471734703881 $230 $331 forward 7 unknown #
edge $-1 $236 -139.49888607440411 $330 -133.68766566087925 $150 $332 forward 7 unknown #
coedge $-1 $151 $326 $329 $333 reversed $234 $-1 #
loop $-1 $-1 $228 $222 #
vertex $-1 $333 $334 #
vertex $-1 $152 $335 #
straight-curve $-1 69.74944303720207 26.134449016427617 106.7808215722025 0 0 -1 I I #
coedge $-1 $238 $238 $-1 $336 reversed $155 $-1 #
edge $-1 $337 0 $337 6.2831853071796004 $156 $338 forward 7 unknown #
vertex $-1 $159 $339 #
ellipse-curve $-1 67.491359817835658 34.497930863320811 19.189713235478987 0.62932039886446345 0 0.77714595512881146 0.77714595512881146 0 -0.62932039886446345 1 I I #
face $-1 $-1 $175 $24 $-1 $340 reversed single #
loop $-1 $-1 $258 $160 #
plane-surface $-1 0 42.861412710214005 0 0 -1 0 0 0 -1 forward_v I I I I #
coedge $-1 $341 $256 $259 $342 forward $161 $-1 #
coedge $-1 $262 $163 $164 $250 reversed $101 $-1 #
coedge $-1 $256 $341 $163 $248 reversed $161 $-1 #
edge $-1 $263 -21.018273009743361 $343 21.018273009743361 $247 $344 forward 7 unknown #
coedge $-1 $165 $164 $341 $345 forward $65 $-1 #
edge $-1 $254 -69.74944303720207 $343 69.74944303720207 $246 $346 forward 7 unknown #
coedge $-1 $259 $258 $165 $252 reversed $243 $-1 #
edge $-1 $347 -69.74944303720207 $253 69.74944303720207 $251 $348 forward 7 unknown #
vertex $-1 $167 $349 #
vertex $-1 $265 $350 #
straight-curve $-1 69.74944303720207 0 -21.018273009743361 0 -1 0 I I #
coedge $-1 $245 $247 $168 $257 reversed $161 $-1 #
edge $-1 $260 -42.861412710214005 $263 42.861412710214005 $256 $351 forward 7 unknown #
coedge $-1 $251 $169 $174 $266 forward $243 $-1 #
coedge $-1 $169 $251 $245 $342 reversed $243 $-1 #
vertex $-1 $170 $352 #
straight-curve $-1 0 42.861412710214005 21.018273009743361 -1 0 0 I I #
coedge $-1 $171 $246 $173 $265 reversed $101 $-1 #
vertex $-1 $257 $353 #
straight-curve $-1 0 -42.861412710214005 21.018273009743361 1 0 0 I I #
edge $-1 $176 -21.018273009743361 $254 21.018273009743361 $173 $354 forward 7 unknown #
edge $-1 $177 -21.018273009743361 $253 21.018273009743361 $174 $355 forward 7 unknown #
point $-1 69.74944303720207 -42.861412710214005 21.018273009743361 #
point $-1 69.74944303720207 42.861412710214005 21.018273009743361 #
face $-1 $-1 $356 $25 $-1 $357 reversed single #
loop $-1 $-1 $189 $179 #
plane-surface $-1 0 -42.861412710214005 0 0 1 0 0 0 1 forward_v I I I I #
coedge $-1 $358 $182 $276 $359 forward $109 $-1 #
coedge $-1 $182 $358 $360 $361 forward $109 $-1 #
edge $-1 $362 -69.74944303720207 $277 69.74944303720207 $182 $363 forward 7 unknown #
coedge $-1 $184 $183 $364 $365 reversed $69 $-1 #
coedge $-1 $185 $191 $272 $359 reversed $180 $-1 #
vertex $-1 $359 $366 #
straight-curve $-1 69.74944303720207 -23.762193274481994 -7.9358140540266859 0 0 1 I I #
coedge $-1 $364 $367 $187 $280 forward $356 $-1 #
edge $-1 $285 -26.205511214040005 $281 -7.1062917783079946 $279 $368 forward 7 unknown #
vertex $-1 $280 $369 #
straight-curve $-1 0 -23.762193274481994 -10.724983206363383 -1 0 0 I I #
coedge $-1 $370 $189 $367 $371 forward $270 $-1 #
coedge $-1 $189 $370 $191 $287 reversed $270 $-1 #
vertex $-1 $371 $372 #
straight-curve $-1 0 -42.861412710214005 -10.724983206363383 -1 0 0 I I #
edge $-1 $193 10.724983206363383 $373 21.018273009743361 $191 $374 forward 7 unknown #
point $-1 69.74944303720207 -23.762193274481994 -10.724983206363383 #
point $-1 69.74944303720207 -42.861412710214005 -10.724983206363383 #
loop $-1 $-1 $203 $195 #
plane-surface $-1 -69.74944303720207 0 0 1 0 0 0 0 -1 forward_v I I I I #
coedge $-1 $293 $198 $200 $297 reversed $117 $-1 #
coedge $-1 $198 $292 $375 $376 reversed $117 $-1 #
coedge $-1 $206 $201 $198 $295 forward $196 $-1 #
edge $-1 $298 -32.016879648315495 $377 -20.088590228534571 $294 $378 forward 7 unknown #
coedge $-1 $200 $199 $301 $379 reversed $73 $-1 #
edge $-1 $380 2.274695869299009e-014 $298 19.374753988251349 $292 $381 forward 7 unknown #
vertex $-1 $202 $382 #
straight-curve $-1 -57.821153617421146 -8.3786655913995176 21.018273009743361 0 1 0 I I #
coedge $-1 $375 $203 $206 $305 reversed $290 $-1 #
coedge $-1 $203 $375 $296 $379 forward $290 $-1 #
vertex $-1 $204 $383 #
straight-curve $-1 -69.74944303720207 -23.762193274481994 45.817423445806725 0 0 1 I I #
straight-curve $-1 -69.749443037202084 -23.762193274481994 5.7507583585893087 -0.61566146476048833 0 -0.78801076186113728 I I #
edge $-1 $377 9.7524690911160778 $207 23.762193274481994 $300 $384 forward 7 unknown #
point $-1 -69.74944303720207 -23.762193274481994 21.018273009743361 #
point $-1 -57.821153617421146 -23.762193274481994 21.018273009743361 #
edge $-1 $385 1 $385 0 $210 $-1 forward 7 unknown #
vertex $-1 $211 $386 #
ellipse-curve $-1 -61.65983126764641 -20.960248437808808 11.723918866728161 -0.78801076186113728 0 0.61566146476048833 0.61566146476048833 0 0.78801076186113728 1 I I #
point $-1 -63.169636862551116 -20.960248437808808 14.172526446027476 #
edge $-1 $387 1 $387 0 $214 $-1 forward 7 unknown #
vertex $-1 $215 $388 #
ellipse-curve $-1 -61.65983126764641 -16.757331182799035 11.723918866728161 -0.78801076186113728 0 0.61566146476048833 0.61566146476048833 0 0.78801076186113728 1 I I #
point $-1 -63.169636862551116 -16.757331182799035 14.172526446027476 #
edge $-1 $389 1 $389 0 $218 $-1 forward 7 unknown #
vertex $-1 $219 $390 #
ellipse-curve $-1 -61.65983126764641 -12.554413927789263 11.723918866728161 -0.78801076186113728 0 0.61566146476048833 0.61566146476048833 0 0.78801076186113728 1 I I #
point $-1 -63.169636862551116 -12.554413927789263 14.172526446027476 #
plane-surface $-1 69.74944303720207 0 0 -1 0 0 0 0 1 forward_v I I I I #
coedge $-1 $230 $391 $325 $392 forward $223 $-1 #
coedge $-1 $323 $225 $391 $393 reversed $146 $-1 #
coedge $-1 $225 $322 $326 $394 forward $146 $-1 #
edge $-1 $327 -91.38932779114721 $395 -85.578107377622331 $225 $396 forward 7 unknown #
coedge $-1 $227 $226 $321 $392 reversed $92 $-1 #
coedge $-1 $233 $228 $323 $394 reversed $234 $-1 #
vertex $-1 $324 $397 #
straight-curve $-1 69.74944303720207 17.248965431660405 17.361153461214592 0 1 0 I I #
coedge $-1 $391 $230 $233 $333 forward $223 $-1 #
vertex $-1 $231 $398 #
straight-curve $-1 24.563971302498189 26.134449016427617 21.018273009743353 1 0 0 I I #
straight-curve $-1 -38.661552020495975 26.134449016427617 105.15064808670694 -0.77714595512881146 0 0.62932039886446345 I I #
edge $-1 $235 26.134449016427617 $399 42.861412710214005 $233 $400 forward 7 unknown #
point $-1 69.74944303720207 26.134449016427617 21.018273009743361 #
point $-1 69.74944303720207 26.134449016427617 17.361153461214599 #
edge $-1 $401 1 $401 0 $238 $-1 forward 7 unknown #
vertex $-1 $239 $402 #
ellipse-curve $-1 65.398317801543314 34.497930863320811 16.605021654193425 0.62932039886446345 0 0.77714595512881146 0.77714595512881146 0 -0.62932039886446345 1 I I #
point $-1 68.268505772964446 34.497930863320811 18.560392836614483 #
plane-surface $-1 69.74944303720207 0 0 -1 0 0 0 0 1 forward_v I I I I #
coedge $-1 $247 $245 $249 $345 reversed $161 $-1 #
edge $-1 $260 -21.018273009743361 $347 21.018273009743361 $259 $403 forward 7 unknown #
vertex $-1 $345 $404 #
straight-curve $-1 -69.74944303720207 -42.861412710214005 0 0 0 -1 I I #
edge $-1 $343 -42.861412710214005 $347 42.861412710214005 $341 $405 forward 7 unknown #
straight-curve $-1 0 -42.861412710214005 -21.018273009743361 -1 0 0 I I #
vertex $-1 $252 $406 #
straight-curve $-1 0 42.861412710214005 -21.018273009743361 1 0 0 I I #
point $-1 69.74944303720207 42.861412710214005 -21.018273009743361 #
point $-1 69.74944303720207 -42.861412710214005 -21.018273009743361 #
straight-curve $-1 -69.74944303720207 0 21.018273009743361 0 -1 0 I I #
point $-1 -69.74944303720207 42.861412710214005 21.018273009743361 #
point $-1 -69.74944303720207 -42.861412710214005 21.018273009743361 #
straight-curve $-1 69.74944303720207 -42.861412710214005 0 0 0 -1 I I #
straight-curve $-1 69.74944303720207 42.861412710214005 0 0 0 -1 I I #
loop $-1 $-1 $364 $269 #
plane-surface $-1 -69.74944303720207 0 0 1 0 0 0 0 -1 forward_v I I I I #
coedge $-1 $273 $272 $370 $407 forward $109 $-1 #
edge $-1 $277 23.762193274481994 $373 42.861412710214005 $276 $408 forward 7 unknown #
coedge $-1 $367 $364 $273 $361 reversed $356 $-1 #
edge $-1 $409 -42.861412710214005 $362 -23.762193274481994 $360 $410 forward 7 unknown #
vertex $-1 $365 $411 #
straight-curve $-1 0 -23.762193274481994 -21.018273009743361 1 0 0 I I #
coedge $-1 $360 $279 $275 $365 forward $356 $-1 #
edge $-1 $281 2.7891691523366973 $362 13.082458955716675 $364 $412 forward 7 unknown #
point $-1 69.74944303720207 -23.762193274481994 -21.018273009743361 #
coedge $-1 $279 $360 $283 $371 reversed $356 $-1 #
straight-curve $-1 -69.74944303720207 -16.655901496174 -10.724983206363383 0 1 0 I I #
point $-1 -69.74944303720207 -23.762193274481994 -10.724983206363383 #
coedge $-1 $284 $283 $358 $407 reversed $270 $-1 #
edge $-1 $285 10.724983206363383 $409 21.018273009743361 $367 $413 forward 7 unknown #
point $-1 -69.74944303720207 -42.861412710214005 -10.724983206363383 #
vertex $-1 $287 $414 #
straight-curve $-1 69.74944303720207 -42.861412710214005 0 0 0 -1 I I #
coedge $-1 $301 $300 $293 $376 forward $290 $-1 #
edge $-1 $377 24.799150436063364 $380 40.066665087217402 $375 $415 forward 7 unknown #
vertex $-1 $305 $416 #
straight-curve $-1 -89.838033265736641 -9.7524690911160778 21.018273009743361 -1 0 0 I I #
edge $-1 $380 1.3738034997165602 $302 15.383527683082477 $301 $417 forward 7 unknown #
vertex $-1 $379 $418 #
straight-curve $-1 -69.749443037202084 -9.7524690911160778 5.7507583585893087 0.61566146476048833 0 0.78801076186113728 I I #
point $-1 -57.821153617421146 -9.7524690911160778 21.018273009743361 #
point $-1 -69.74944303720207 -23.762193274481994 5.7507583585893265 #
straight-curve $-1 -69.74944303720207 0 21.018273009743361 0 -1 0 I I #
vertex $-1 $308 $419 #
point $-1 -61.044169802885925 -20.960248437808808 12.511929628589298 #
vertex $-1 $312 $420 #
point $-1 -61.044169802885925 -16.757331182799035 12.511929628589298 #
vertex $-1 $316 $421 #
point $-1 -61.044169802885925 -12.554413927789263 12.511929628589298 #
coedge $-1 $321 $329 $322 $393 forward $223 $-1 #
edge $-1 $395 -25.612447278553599 $330 -8.8854835847672113 $321 $422 forward 7 unknown #
edge $-1 $399 -69.74944303720207 $395 -65.233276598469232 $322 $423 forward 7 unknown #
edge $-1 $399 -21.018273009743361 $327 -17.361153461214592 $326 $424 forward 7 unknown #
vertex $-1 $324 $425 #
straight-curve $-1 -1.273403397629064 42.861412710214005 74.874321678694542 -0.77714595512881146 0 0.62932039886446345 I I #
point $-1 69.74944303720207 42.861412710214005 17.361153461214592 #
point $-1 65.233276598469232 26.134449016427617 21.018273009743382 #
vertex $-1 $333 $426 #
straight-curve $-1 69.74944303720207 0 21.018273009743361 0 1 0 I I #
vertex $-1 $336 $427 #
point $-1 66.17546375667213 34.497930863320811 15.975701255328964 #
straight-curve $-1 -69.74944303720207 42.861412710214005 0 0 0 -1 I I #
point $-1 -69.74944303720207 -42.861412710214005 -21.018273009743361 #
straight-curve $-1 -69.74944303720207 0 -21.018273009743361 0 1 0 I I #
point $-1 -69.74944303720207 42.861412710214005 -21.018273009743361 #
edge $-1 $373 -69.74944303720207 $409 69.74944303720207 $370 $428 forward 7 unknown #
straight-curve $-1 69.74944303720207 0 -21.018273009743361 0 -1 0 I I #
vertex $-1 $361 $429 #
straight-curve $-1 -69.74944303720207 0 -21.018273009743361 0 1 0 I I #
point $-1 -69.74944303720207 -23.762193274481994 -21.018273009743361 #
straight-curve $-1 -69.74944303720207 -23.762193274481994 -7.9358140540266859 0 0 -1 I I #
straight-curve $-1 -69.74944303720207 -42.861412710214005 0 0 0 -1 I I #
point $-1 69.74944303720207 -42.861412710214005 -21.018273009743361 #
straight-curve $-1 -69.74944303720207 -9.7524690911160778 45.817423445806725 0 0 -1 I I #
point $-1 -69.74944303720207 -9.7524690911160778 21.018273009743361 #
straight-curve $-1 -69.74944303720207 -8.3786655913995176 5.7507583585893123 0 -1 0 I I #
point $-1 -69.74944303720207 -9.7524690911160778 5.7507583585893265 #
point $-1 -60.87182050578528 -20.960248437808808 11.108257401967672 #
point $-1 -60.87182050578528 -16.757331182799035 11.108257401967672 #
point $-1 -60.87182050578528 -12.554413927789263 11.108257401967672 #
straight-curve $-1 65.233276598469274 17.248965431660405 21.018273009743361 0 -1 0 I I #
straight-curve $-1 0 42.861412710214005 21.018273009743361 -1 0 0 I I #
straight-curve $-1 69.74944303720207 42.861412710214005 0 0 0 -1 I I #
point $-1 65.233276598469232 42.861412710214005 21.018273009743382 #
point $-1 69.74944303720207 42.861412710214005 21.018273009743361 #
point $-1 64.768997402678863 34.497930863320811 15.827875699064615 #
straight-curve $-1 0 -42.861412710214005 -21.018273009743361 -1 0 0 I I #
point $-1 -69.74944303720207 -42.861412710214005 -21.018273009743361 #
End-of-ACIS-data 