500 0 11 0           
7 Unknown 11 ACIS 5.0 NT 24 Fri Mar 26 17:08:59 1999 
-1 9.9999999999999995e-007 1e-010 
body $-1 $11 $-1 $12 #
body $-1 $13 $-1 $14 #
body $-1 $15 $-1 $16 #
body $-1 $17 $-1 $18 #
body $-1 $19 $-1 $20 #
body $-1 $21 $-1 $22 #
body $-1 $23 $-1 $24 #
body $-1 $25 $-1 $26 #
body $-1 $27 $-1 $28 #
body $-1 $29 $-1 $30 #
body $-1 $31 $-1 $32 #
lump $-1 $-1 $33 $0 #
transform $-1 1 0 0 0 1 0 0 0 1 44.947660756248666 19.604159480511729 6.4609307605226656 1 rotate no_reflect no_shear #
lump $-1 $-1 $34 $1 #
transform $-1 1 0 0 0 1 0 0 0 1 44.947660756248666 19.604159480511729 6.4609307605226656 1 rotate no_reflect no_shear #
lump $-1 $-1 $35 $2 #
transform $-1 1 0 0 0 1 0 0 0 1 44.947660756248666 19.604159480511729 6.4609307605226656 1 rotate no_reflect no_shear #
lump $-1 $-1 $36 $3 #
transform $-1 1 0 0 0 1 0 0 0 1 44.947660756248666 19.604159480511729 6.4609307605226656 1 rotate no_reflect no_shear #
lump $-1 $-1 $37 $4 #
transform $-1 1 0 0 0 1 0 0 0 1 44.947660756248666 19.604159480511729 6.4609307605226656 1 rotate no_reflect no_shear #
lump $-1 $-1 $38 $5 #
transform $-1 1 0 0 0 1 0 0 0 1 44.947660756248666 19.604159480511729 6.4609307605226656 1 rotate no_reflect no_shear #
lump $-1 $-1 $39 $6 #
transform $-1 1 0 0 0 1 0 0 0 1 44.947660756248666 19.604159480511729 6.4609307605226656 1 rotate no_reflect no_shear #
lump $-1 $-1 $40 $7 #
transform $-1 1 0 0 0 1 0 0 0 1 44.947660756248666 19.604159480511729 6.4609307605226656 1 rotate no_reflect no_shear #
lump $-1 $-1 $41 $8 #
transform $-1 1 0 0 0 1 0 0 0 1 44.947660756248666 19.604159480511729 6.4609307605226656 1 rotate no_reflect no_shear #
lump $-1 $-1 $42 $9 #
transform $-1 1 0 0 0 1 0 0 0 1 44.947660756248666 19.604159480511729 6.4609307605226656 1 rotate no_reflect no_shear #
lump $-1 $-1 $43 $10 #
transform $-1 1 0 0 0 1 0 0 0 1 44.947660756248666 19.604159480511729 6.4609307605226656 1 rotate no_reflect no_shear #
shell $-1 $-1 $-1 $44 $-1 $11 #
shell $-1 $-1 $-1 $45 $-1 $13 #
shell $-1 $-1 $-1 $46 $-1 $15 #
shell $-1 $-1 $-1 $47 $-1 $17 #
shell $-1 $-1 $-1 $48 $-1 $19 #
shell $-1 $-1 $-1 $49 $-1 $21 #
shell $-1 $-1 $-1 $50 $-1 $23 #
shell $-1 $-1 $-1 $51 $-1 $25 #
shell $-1 $-1 $-1 $52 $-1 $27 #
shell $-1 $-1 $-1 $53 $-1 $29 #
shell $-1 $-1 $-1 $54 $-1 $31 #
face $-1 $55 $56 $33 $-1 $57 forward single #
face $-1 $58 $59 $34 $-1 $60 reversed single #
face $-1 $61 $62 $35 $-1 $63 reversed single #
face $-1 $64 $65 $36 $-1 $66 forward single #
face $-1 $67 $68 $37 $-1 $69 forward single #
face $-1 $70 $71 $38 $-1 $72 reversed single #
face $-1 $73 $74 $39 $-1 $75 forward single #
face $-1 $76 $77 $40 $-1 $78 forward single #
face $-1 $79 $80 $41 $-1 $81 reversed single #
face $-1 $82 $83 $42 $-1 $84 forward single #
face $-1 $85 $86 $43 $-1 $87 forward single #
face $-1 $88 $89 $33 $-1 $90 reversed single #
loop $-1 $-1 $91 $44 #
plane-surface $-1 0 0 6.4609307605226656 0 0 1 1 0 0 forward_v I I I I #
face $-1 $92 $93 $34 $-1 $94 reversed single #
loop $-1 $-1 $95 $45 #
plane-surface $-1 -43.447660756248666 -14.753545763162126 0 0 -1 0 0 0 -1 forward_v I I I I #
face $-1 $96 $97 $35 $-1 $98 reversed single #
loop $-1 $-1 $99 $46 #
plane-surface $-1 -116.74125744254101 -10.166129584269793 57.058521923267925 0 1 0 -0.79863551827123203 0 0.60181501223851219 forward_v I I I I #
face $-1 $100 $101 $36 $-1 $102 forward single #
loop $-1 $103 $104 $47 #
cone-surface $-1 -42.930736289923068 -8.1329649649088385 4.1841986408180452 0.79863551827123203 0 -0.60181501223851219 0.3009075061192561 0 0.39931775913561601 1 I I 0 1 0.5 forward I I I I #
face $-1 $105 $106 $37 $-1 $107 forward single #
loop $-1 $108 $109 $48 #
cone-surface $-1 -42.930736289923068 -5.0832180358674055 4.1841986408180452 0.79863551827123203 0 -0.60181501223851219 0.3009075061192561 0 0.39931775913561601 1 I I 0 1 0.5 forward I I I I #
face $-1 $110 $111 $38 $-1 $112 reversed single #
loop $-1 $-1 $113 $49 #
plane-surface $-1 -116.74125744254101 7.9006671338560555 57.058521923267925 0 1 0 -0.79863551827123203 0 0.60181501223851219 forward_v I I I I #
face $-1 $114 $115 $39 $-1 $116 forward single #
loop $-1 $117 $118 $50 #
cone-surface $-1 -42.930736289923068 9.9338317532170102 4.1841986408180452 0.79863551827123203 0 -0.60181501223851219 0.3009075061192561 0 0.39931775913561601 1 I I 0 1 0.5 forward I I I I #
face $-1 $119 $120 $40 $-1 $121 forward single #
loop $-1 $122 $123 $51 #
cone-surface $-1 -42.930736289923068 12.983578682258443 4.1841986408180452 0.79863551827123203 0 -0.60181501223851219 0.3009075061192561 0 0.39931775913561601 1 I I 0 1 0.5 forward I I I I #
face $-1 $124 $125 $41 $-1 $126 reversed single #
loop $-1 $-1 $127 $52 #
plane-surface $-1 73.545956236825504 11.252733063090194 125.24981832560675 0 1 0 0.84804810408105047 0 0.52991925155115449 forward_v I I I I #
face $-1 $128 $129 $42 $-1 $130 forward single #
loop $-1 $131 $132 $53 #
cone-surface $-1 42.93524045274777 13.638854896639206 3.6540056831477359 -0.84804810408105047 0 -0.52991925155115449 0.13247981288778862 0 -0.21201202602026262 1 I I 0 1 0.25 forward I I I I #
face $-1 $133 $134 $43 $-1 $135 forward single #
loop $-1 $136 $137 $54 #
cone-surface $-1 42.93524045274777 17.218037646962717 3.6540056831477359 -0.84804810408105047 0 -0.52991925155115449 0.13247981288778862 0 -0.21201202602026262 1 I I 0 1 0.25 forward I I I I #
face $-1 $138 $139 $33 $-1 $140 reversed single #
loop $-1 $-1 $141 $55 #
plane-surface $-1 0 0 -6.4609307605226656 0 0 1 1 0 0 forward_v I I I I #
coedge $-1 $142 $143 $144 $145 forward $56 $-1 #
face $-1 $146 $147 $34 $-1 $148 forward single #
loop $-1 $-1 $149 $58 #
plane-surface $-1 -41.947660756248666 -17.178852621836928 0 -1 0 0 0 0 1 forward_v I I I I #
coedge $-1 $150 $151 $152 $153 forward $59 $-1 #
face $-1 $154 $155 $35 $-1 $156 reversed single #
loop $-1 $-1 $157 $61 #
plane-surface $-1 -44.947660756248666 -6.608091500388122 2.9581679070393534 -0.79863551827123203 0 0.60181501223851219 0.60181501223851219 0 0.79863551827123203 forward_v I I I I #
coedge $-1 $158 $159 $160 $161 reversed $62 $-1 #
face $-1 $-1 $162 $36 $-1 $163 forward single #
loop $-1 $164 $165 $64 #
cone-surface $-1 -42.033913473902402 -8.1329649649088385 3.5083941947954562 0.79863551827123203 0 -0.60181501223851219 0.15045375305962805 0 0.19965887956780801 1 I I -0.70710678118654746 0.70710678118654746 0.25 forward I I I I #
loop $-1 $-1 $166 $47 #
coedge $-1 $104 $104 $167 $168 reversed $65 $-1 #
face $-1 $-1 $169 $37 $-1 $170 forward single #
loop $-1 $171 $172 $67 #
cone-surface $-1 -42.033913473902402 -5.0832180358674055 3.5083941947954562 0.79863551827123203 0 -0.60181501223851219 0.15045375305962805 0 0.19965887956780801 1 I I -0.70710678118654746 0.70710678118654746 0.25 forward I I I I #
loop $-1 $-1 $173 $48 #
coedge $-1 $109 $109 $174 $175 reversed $68 $-1 #
face $-1 $176 $177 $38 $-1 $178 reversed single #
loop $-1 $-1 $179 $70 #
plane-surface $-1 -44.947660756248666 11.458705217737727 2.9581679070393534 -0.79863551827123203 0 0.60181501223851219 0.60181501223851219 0 0.79863551827123203 forward_v I I I I #
coedge $-1 $180 $181 $182 $183 reversed $71 $-1 #
face $-1 $-1 $184 $39 $-1 $185 forward single #
loop $-1 $186 $187 $73 #
cone-surface $-1 -42.033913473902402 9.9338317532170102 3.5083941947954562 0.79863551827123203 0 -0.60181501223851219 0.15045375305962805 0 0.19965887956780801 1 I I -0.70710678118654746 0.70710678118654746 0.25 forward I I I I #
loop $-1 $-1 $188 $50 #
coedge $-1 $118 $118 $189 $190 reversed $74 $-1 #
face $-1 $-1 $191 $40 $-1 $192 forward single #
loop $-1 $193 $194 $76 #
cone-surface $-1 -42.033913473902402 12.983578682258443 3.5083941947954562 0.79863551827123203 0 -0.60181501223851219 0.15045375305962805 0 0.19965887956780801 1 I I -0.70710678118654746 0.70710678118654746 0.25 forward I I I I #
loop $-1 $-1 $195 $51 #
coedge $-1 $123 $123 $196 $197 reversed $77 $-1 #
face $-1 $198 $199 $41 $-1 $200 forward single #
loop $-1 $-1 $201 $79 #
plane-surface $-1 -2.6896007376043229 15.428446271800961 77.612556831753778 0.84804810408105047 0 0.52991925155115449 0.52991925155115449 0 -0.84804810408105047 forward_v I I I I #
coedge $-1 $202 $203 $204 $205 reversed $80 $-1 #
face $-1 $-1 $206 $42 $-1 $207 forward single #
loop $-1 $208 $209 $82 #
cone-surface $-1 42.40521038769711 13.638854896639206 3.3228061509282645 -0.84804810408105047 0 -0.52991925155115449 0.066239906443894311 0 -0.10600601301013131 1 I I -0.70710678118654746 0.70710678118654746 0.125 forward I I I I #
loop $-1 $-1 $210 $53 #
coedge $-1 $132 $132 $211 $212 reversed $83 $-1 #
face $-1 $-1 $213 $43 $-1 $214 forward single #
loop $-1 $215 $216 $85 #
cone-surface $-1 42.40521038769711 17.218037646962717 3.3228061509282645 -0.84804810408105047 0 -0.52991925155115449 0.066239906443894311 0 -0.10600601301013131 1 I I -0.70710678118654746 0.70710678118654746 0.125 forward I I I I #
loop $-1 $-1 $217 $54 #
coedge $-1 $137 $137 $218 $219 reversed $86 $-1 #
face $-1 $220 $221 $33 $-1 $222 reversed single #
loop $-1 $-1 $223 $88 #
plane-surface $-1 0 -19.604159480511729 0 0 1 0 0 0 1 forward_v I I I I #
coedge $-1 $224 $225 $226 $227 forward $89 $-1 #
coedge $-1 $228 $91 $229 $230 forward $56 $-1 #
coedge $-1 $91 $228 $231 $232 forward $56 $-1 #
coedge $-1 $233 $234 $91 $145 reversed $235 $-1 #
edge $-1 $236 -19.604159480511729 $237 19.604159480511729 $144 $238 forward 7 unknown #
face $-1 $239 $240 $34 $-1 $241 reversed single #
loop $-1 $-1 $242 $92 #
plane-surface $-1 0 0 6.4609307605226656 0 0 1 1 0 0 forward_v I I I I #
coedge $-1 $243 $244 $245 $246 reversed $93 $-1 #
coedge $-1 $247 $95 $248 $249 reversed $59 $-1 #
coedge $-1 $95 $247 $250 $251 reversed $59 $-1 #
coedge $-1 $244 $243 $95 $153 reversed $93 $-1 #
edge $-1 $252 -6.4609307605226656 $253 6.4609307605226656 $152 $254 forward 7 unknown #
face $-1 $255 $256 $35 $-1 $257 reversed single #
loop $-1 $-1 $258 $96 #
plane-surface $-1 -116.74125744254101 -3.0500534165064508 57.058521923267925 0 -1 0 0.79863551827123203 0 -0.60181501223851219 forward_v I I I I #
coedge $-1 $259 $260 $261 $262 reversed $97 $-1 #
coedge $-1 $159 $99 $263 $264 reversed $62 $-1 #
coedge $-1 $99 $158 $259 $265 reversed $62 $-1 #
coedge $-1 $261 $266 $99 $161 forward $267 $-1 #
edge $-1 $268 13.42296796502184 $269 16.062489024767324 $160 $270 forward 7 unknown #
loop $-1 $-1 $167 $100 #
plane-surface $-1 -44.947660756248666 -6.608091500388122 2.9581679070393534 -0.79863551827123203 0 0.60181501223851219 0.60181501223851219 0 0.79863551827123203 forward_v I I I I #
loop $-1 $-1 $271 $64 #
coedge $-1 $165 $165 $166 $272 reversed $101 $-1 #
coedge $-1 $166 $166 $165 $272 forward $103 $-1 #
coedge $-1 $167 $167 $104 $168 forward $162 $-1 #
edge $-1 $273 0 $273 6.2831853071796004 $167 $274 forward 7 unknown #
loop $-1 $-1 $174 $105 #
plane-surface $-1 -44.947660756248666 -6.608091500388122 2.9581679070393534 -0.79863551827123203 0 0.60181501223851219 0.60181501223851219 0 0.79863551827123203 forward_v I I I I #
loop $-1 $-1 $275 $67 #
coedge $-1 $172 $172 $173 $276 reversed $106 $-1 #
coedge $-1 $173 $173 $172 $276 forward $108 $-1 #
coedge $-1 $174 $174 $109 $175 forward $169 $-1 #
edge $-1 $277 0 $277 6.2831853071796004 $174 $278 forward 7 unknown #
face $-1 $279 $280 $38 $-1 $281 forward single #
loop $-1 $-1 $282 $110 #
plane-surface $-1 -116.74125744254101 15.016743301619398 57.058521923267925 0 -1 0 0.79863551827123203 0 -0.60181501223851219 forward_v I I I I #
coedge $-1 $283 $284 $285 $286 reversed $111 $-1 #
coedge $-1 $181 $113 $287 $288 reversed $71 $-1 #
coedge $-1 $113 $180 $283 $289 reversed $71 $-1 #
coedge $-1 $285 $290 $113 $183 forward $280 $-1 #
edge $-1 $291 13.42296796502184 $292 16.062489024767324 $182 $293 forward 7 unknown #
loop $-1 $-1 $189 $114 #
plane-surface $-1 -44.947660756248666 11.458705217737727 2.9581679070393534 -0.79863551827123203 0 0.60181501223851219 0.60181501223851219 0 0.79863551827123203 forward_v I I I I #
loop $-1 $-1 $294 $73 #
coedge $-1 $187 $187 $188 $295 reversed $115 $-1 #
coedge $-1 $188 $188 $187 $295 forward $117 $-1 #
coedge $-1 $189 $189 $118 $190 forward $184 $-1 #
edge $-1 $296 0 $296 6.2831853071796004 $189 $297 forward 7 unknown #
loop $-1 $-1 $196 $119 #
plane-surface $-1 -44.947660756248666 11.458705217737727 2.9581679070393534 -0.79863551827123203 0 0.60181501223851219 0.60181501223851219 0 0.79863551827123203 forward_v I I I I #
loop $-1 $-1 $298 $76 #
coedge $-1 $194 $194 $195 $299 reversed $120 $-1 #
coedge $-1 $195 $195 $194 $299 forward $122 $-1 #
coedge $-1 $196 $196 $123 $197 forward $191 $-1 #
edge $-1 $300 0 $300 6.2831853071796004 $196 $301 forward 7 unknown #
face $-1 $302 $303 $41 $-1 $304 reversed single #
loop $-1 $-1 $305 $124 #
plane-surface $-1 0 0 6.4609307605226656 0 0 1 1 0 0 forward_v I I I I #
coedge $-1 $306 $307 $308 $309 reversed $125 $-1 #
coedge $-1 $203 $127 $310 $311 reversed $80 $-1 #
coedge $-1 $127 $202 $306 $312 reversed $80 $-1 #
coedge $-1 $308 $313 $127 $205 forward $314 $-1 #
edge $-1 $315 56.163978402280712 $316 61.247909305479439 $204 $317 forward 7 unknown #
loop $-1 $-1 $211 $128 #
plane-surface $-1 -2.6896007376043229 15.428446271800961 77.612556831753778 0.84804810408105047 0 0.52991925155115449 0.52991925155115449 0 -0.84804810408105047 forward_v I I I I #
loop $-1 $-1 $318 $82 #
coedge $-1 $209 $209 $210 $319 reversed $129 $-1 #
coedge $-1 $210 $210 $209 $319 forward $131 $-1 #
coedge $-1 $211 $211 $132 $212 forward $206 $-1 #
edge $-1 $320 0 $320 6.2831853071796004 $211 $321 forward 7 unknown #
loop $-1 $-1 $218 $133 #
plane-surface $-1 -2.6896007376043229 15.428446271800961 77.612556831753778 0.84804810408105047 0 0.52991925155115449 0.52991925155115449 0 -0.84804810408105047 forward_v I I I I #
loop $-1 $-1 $322 $85 #
coedge $-1 $216 $216 $217 $323 reversed $134 $-1 #
coedge $-1 $217 $217 $216 $323 forward $136 $-1 #
coedge $-1 $218 $218 $137 $219 forward $213 $-1 #
edge $-1 $324 0 $324 6.2831853071796004 $218 $325 forward 7 unknown #
face $-1 $326 $327 $33 $-1 $328 reversed single #
loop $-1 $-1 $329 $138 #
plane-surface $-1 -44.947660756248666 0 0 1 0 0 0 0 -1 forward_v I I I I #
coedge $-1 $330 $231 $331 $332 forward $139 $-1 #
coedge $-1 $333 $141 $330 $334 forward $89 $-1 #
coedge $-1 $141 $333 $335 $336 forward $89 $-1 #
coedge $-1 $234 $233 $141 $227 reversed $235 $-1 #
edge $-1 $337 -19.604159480511729 $338 19.604159480511729 $226 $339 forward 7 unknown #
coedge $-1 $143 $142 $340 $341 forward $56 $-1 #
coedge $-1 $342 $343 $142 $230 reversed $327 $-1 #
edge $-1 $237 -44.947660756248666 $344 44.947660756248666 $229 $345 forward 7 unknown #
coedge $-1 $223 $346 $143 $232 reversed $139 $-1 #
edge $-1 $347 -44.947660756248666 $236 44.947660756248666 $231 $348 forward 7 unknown #
coedge $-1 $226 $144 $346 $349 forward $235 $-1 #
coedge $-1 $144 $226 $342 $350 reversed $235 $-1 #
loop $-1 $-1 $233 $326 #
vertex $-1 $145 $351 #
vertex $-1 $145 $352 #
straight-curve $-1 44.947660756248666 0 6.4609307605226656 0 1 0 I I #
face $-1 $353 $354 $34 $-1 $355 reversed single #
loop $-1 $-1 $356 $146 #
plane-surface $-1 -44.947660756248666 0 0 1 0 0 0 0 -1 forward_v I I I I #
coedge $-1 $250 $357 $244 $358 forward $147 $-1 #
coedge $-1 $152 $149 $359 $360 reversed $93 $-1 #
coedge $-1 $149 $152 $242 $358 reversed $93 $-1 #
coedge $-1 $361 $362 $149 $246 forward $363 $-1 #
edge $-1 $364 -6.4609307605226656 $365 6.4609307605226656 $245 $366 forward 7 unknown #
coedge $-1 $151 $150 $356 $367 reversed $59 $-1 #
coedge $-1 $359 $368 $150 $249 forward $354 $-1 #
edge $-1 $369 -23.223830378124333 $253 -20.223830378124333 $248 $370 forward 7 unknown #
coedge $-1 $371 $242 $151 $251 forward $147 $-1 #
edge $-1 $252 20.223830378124333 $372 23.223830378124333 $250 $373 forward 7 unknown #
vertex $-1 $251 $374 #
vertex $-1 $249 $375 #
straight-curve $-1 -41.947660756248666 -14.753545763162126 0 0 0 -1 I I #
face $-1 $-1 $267 $35 $-1 $376 forward single #
loop $-1 $-1 $377 $154 #
plane-surface $-1 -44.947660756248666 0 0 1 0 0 0 0 -1 forward_v I I I I #
coedge $-1 $378 $379 $380 $381 reversed $155 $-1 #
coedge $-1 $382 $157 $159 $265 forward $97 $-1 #
coedge $-1 $157 $382 $378 $383 forward $97 $-1 #
coedge $-1 $380 $160 $157 $262 forward $267 $-1 #
edge $-1 $269 -6.8620838340757322 $384 0.25399233368761021 $261 $385 forward 7 unknown #
coedge $-1 $386 $387 $158 $264 forward $256 $-1 #
edge $-1 $388 -25.571093054594609 $268 -22.068330201111298 $263 $389 forward 7 unknown #
edge $-1 $269 -4.3859342257474037 $388 0 $159 $390 forward 7 unknown #
coedge $-1 $160 $380 $386 $391 forward $267 $-1 #
loop $-1 $-1 $380 $255 #
vertex $-1 $264 $392 #
vertex $-1 $161 $393 #
straight-curve $-1 -58.370628721270506 -10.166129584269793 6.4609307605226647 1 0 0 I I #
coedge $-1 $271 $271 $-1 $394 reversed $164 $-1 #
edge $-1 $395 0 $395 6.2831853071796004 $165 $396 forward 7 unknown #
vertex $-1 $168 $397 #
ellipse-curve $-1 -43.627900226375928 -8.1329649649088385 4.7095493337810073 -0.79863551827123203 0 0.60181501223851219 0.3009075061192561 0 0.39931775913561601 1 I I #
coedge $-1 $275 $275 $-1 $398 reversed $171 $-1 #
edge $-1 $399 0 $399 6.2831853071796004 $172 $400 forward 7 unknown #
vertex $-1 $175 $401 #
ellipse-curve $-1 -43.627900226375928 -5.0832180358674055 4.7095493337810073 -0.79863551827123203 0 0.60181501223851219 0.3009075061192561 0 0.39931775913561601 1 I I #
face $-1 $-1 $402 $38 $-1 $403 reversed single #
loop $-1 $-1 $182 $176 #
plane-surface $-1 0 0 6.4609307605226656 0 0 1 1 0 0 forward_v I I I I #
coedge $-1 $404 $405 $406 $407 reversed $177 $-1 #
coedge $-1 $408 $179 $181 $289 forward $111 $-1 #
coedge $-1 $179 $408 $404 $409 forward $111 $-1 #
coedge $-1 $406 $182 $179 $286 forward $280 $-1 #
edge $-1 $292 2.1713145249871921 $410 9.2873906927505345 $285 $411 forward 7 unknown #
coedge $-1 $412 $413 $180 $288 forward $402 $-1 #
edge $-1 $414 -25.571093054594609 $291 -22.068330201111298 $287 $415 forward 7 unknown #
edge $-1 $292 -4.3859342257474037 $414 0 $181 $416 forward 7 unknown #
coedge $-1 $182 $406 $412 $417 forward $280 $-1 #
vertex $-1 $288 $418 #
vertex $-1 $183 $419 #
straight-curve $-1 -58.370628721270506 7.9006671338560555 6.4609307605226647 1 0 0 I I #
coedge $-1 $294 $294 $-1 $420 reversed $186 $-1 #
edge $-1 $421 0 $421 6.2831853071796004 $187 $422 forward 7 unknown #
vertex $-1 $190 $423 #
ellipse-curve $-1 -43.627900226375928 9.9338317532170102 4.7095493337810073 -0.79863551827123203 0 0.60181501223851219 0.3009075061192561 0 0.39931775913561601 1 I I #
coedge $-1 $298 $298 $-1 $424 reversed $193 $-1 #
edge $-1 $425 0 $425 6.2831853071796004 $194 $426 forward 7 unknown #
vertex $-1 $197 $427 #
ellipse-curve $-1 -43.627900226375928 12.983578682258443 4.7095493337810073 -0.79863551827123203 0 0.60181501223851219 0.3009075061192561 0 0.39931775913561601 1 I I #
face $-1 $-1 $314 $41 $-1 $428 reversed single #
loop $-1 $-1 $429 $198 #
plane-surface $-1 0 19.604159480511729 0 0 -1 0 0 0 -1 forward_v I I I I #
coedge $-1 $310 $430 $431 $432 forward $199 $-1 #
coedge $-1 $431 $201 $203 $312 forward $125 $-1 #
coedge $-1 $201 $431 $429 $433 reversed $125 $-1 #
coedge $-1 $434 $204 $201 $309 forward $314 $-1 #
edge $-1 $316 3.5385099271897129 $435 11.889936344611248 $308 $436 forward 7 unknown #
coedge $-1 $437 $305 $202 $311 forward $199 $-1 #
edge $-1 $438 4.9978901349151386 $315 8.1746826378359145 $310 $439 forward 7 unknown #
edge $-1 $316 -89.895321512497333 $438 -83.900460043279494 $203 $440 forward 7 unknown #
coedge $-1 $204 $434 $437 $441 reversed $314 $-1 #
loop $-1 $-1 $308 $302 #
vertex $-1 $441 $442 #
vertex $-1 $205 $443 #
straight-curve $-1 44.947660756248666 11.252733063090194 62.624909162803377 0 0 -1 I I #
coedge $-1 $318 $318 $-1 $444 reversed $208 $-1 #
edge $-1 $445 0 $445 6.2831853071796004 $209 $446 forward 7 unknown #
vertex $-1 $212 $447 #
ellipse-curve $-1 43.359264504788285 13.638854896639206 3.9189653089233056 0.84804810408105047 0 0.52991925155115449 0.13247981288778862 0 -0.21201202602026262 1 I I #
coedge $-1 $322 $322 $-1 $448 reversed $215 $-1 #
edge $-1 $449 0 $449 6.2831853071796004 $216 $450 forward 7 unknown #
vertex $-1 $219 $451 #
ellipse-curve $-1 43.359264504788285 17.218037646962717 3.9189653089233056 0.84804810408105047 0 0.52991925155115449 0.13247981288778862 0 -0.21201202602026262 1 I I #
face $-1 $-1 $235 $33 $-1 $452 reversed single #
loop $-1 $-1 $342 $220 #
plane-surface $-1 0 19.604159480511729 0 0 -1 0 0 0 -1 forward_v I I I I #
coedge $-1 $453 $340 $343 $454 forward $221 $-1 #
coedge $-1 $346 $223 $224 $334 reversed $139 $-1 #
coedge $-1 $340 $453 $223 $332 reversed $221 $-1 #
edge $-1 $347 -6.4609307605226656 $455 6.4609307605226656 $331 $456 forward 7 unknown #
coedge $-1 $225 $224 $453 $457 forward $89 $-1 #
edge $-1 $338 -44.947660756248666 $455 44.947660756248666 $330 $458 forward 7 unknown #
coedge $-1 $343 $342 $225 $336 reversed $327 $-1 #
edge $-1 $459 -44.947660756248666 $337 44.947660756248666 $335 $460 forward 7 unknown #
vertex $-1 $227 $461 #
vertex $-1 $349 $462 #
straight-curve $-1 44.947660756248666 0 -6.4609307605226656 0 -1 0 I I #
coedge $-1 $329 $331 $228 $341 reversed $221 $-1 #
edge $-1 $344 -19.604159480511729 $347 19.604159480511729 $340 $463 forward 7 unknown #
coedge $-1 $335 $229 $234 $350 forward $327 $-1 #
coedge $-1 $229 $335 $329 $454 reversed $327 $-1 #
vertex $-1 $230 $464 #
straight-curve $-1 0 19.604159480511729 6.4609307605226656 -1 0 0 I I #
coedge $-1 $231 $330 $233 $349 reversed $139 $-1 #
vertex $-1 $341 $465 #
straight-curve $-1 0 -19.604159480511729 6.4609307605226656 1 0 0 I I #
edge $-1 $236 -6.4609307605226656 $338 6.4609307605226656 $233 $466 forward 7 unknown #
edge $-1 $237 -6.4609307605226656 $337 6.4609307605226656 $234 $467 forward 7 unknown #
point $-1 44.947660756248666 -19.604159480511729 6.4609307605226656 #
point $-1 44.947660756248666 19.604159480511729 6.4609307605226656 #
face $-1 $-1 $363 $34 $-1 $468 reversed single #
loop $-1 $-1 $359 $239 #
plane-surface $-1 0 0 -6.4609307605226656 0 0 1 1 0 0 forward_v I I I I #
coedge $-1 $469 $470 $247 $367 forward $240 $-1 #
coedge $-1 $242 $371 $361 $471 forward $147 $-1 #
edge $-1 $365 -11.014733169593265 $252 -6.1641194522436624 $242 $472 forward 7 unknown #
coedge $-1 $473 $248 $243 $360 forward $354 $-1 #
edge $-1 $253 6.1641194522436624 $364 11.014733169593265 $359 $474 forward 7 unknown #
coedge $-1 $475 $245 $357 $471 reversed $363 $-1 #
coedge $-1 $245 $475 $473 $476 reversed $363 $-1 #
loop $-1 $-1 $245 $353 #
vertex $-1 $476 $477 #
vertex $-1 $246 $478 #
straight-curve $-1 -41.947660756248666 -19.604159480511729 0 0 0 1 I I #
edge $-1 $372 -6.4609307605226656 $369 6.4609307605226656 $356 $479 forward 7 unknown #
coedge $-1 $248 $473 $469 $480 forward $354 $-1 #
vertex $-1 $249 $481 #
straight-curve $-1 -21.723830378124333 -14.753545763162126 -6.4609307605226656 1 0 0 I I #
coedge $-1 $357 $250 $470 $482 forward $147 $-1 #
vertex $-1 $482 $483 #
straight-curve $-1 -21.723830378124333 -14.753545763162126 6.4609307605226656 -1 0 0 I I #
point $-1 -41.947660756248666 -14.753545763162126 6.4609307605226656 #
point $-1 -41.947660756248666 -14.753545763162126 -6.4609307605226656 #
plane-surface $-1 0 0 6.4609307605226656 0 0 1 1 0 0 forward_v I I I I #
coedge $-1 $387 $386 $379 $484 forward $256 $-1 #
coedge $-1 $379 $258 $260 $383 reversed $155 $-1 #
coedge $-1 $258 $378 $377 $484 reversed $155 $-1 #
coedge $-1 $266 $261 $258 $381 forward $267 $-1 #
edge $-1 $384 -16.062489024767324 $485 -13.42296796502184 $380 $486 forward 7 unknown #
coedge $-1 $260 $259 $387 $487 reversed $97 $-1 #
edge $-1 $488 0 $384 4.3859342257474037 $378 $489 forward 7 unknown #
vertex $-1 $262 $490 #
straight-curve $-1 -42.308139696503176 -3.304045750194061 6.4609307605226665 0 1 0 I I #
coedge $-1 $377 $263 $266 $391 reversed $256 $-1 #
coedge $-1 $263 $377 $382 $487 forward $256 $-1 #
vertex $-1 $264 $491 #
straight-curve $-1 -44.947660756248666 -10.166129584269793 28.529260961633963 0 0 1 I I #
straight-curve $-1 -44.947660756248666 -10.166129584269793 2.9581679070393534 -0.60181501223851219 0 -0.79863551827123203 I I #
edge $-1 $485 3.0500534165064508 $268 10.166129584269793 $386 $492 forward 7 unknown #
point $-1 -44.947660756248666 -10.166129584269793 6.4609307605226656 #
point $-1 -42.308139696503183 -10.166129584269793 6.4609307605226665 #
edge $-1 $493 1 $493 0 $271 $-1 forward 7 unknown #
vertex $-1 $272 $494 #
ellipse-curve $-1 -42.233572353470208 -8.1329649649088385 3.6588479478550844 -0.79863551827123203 0 0.60181501223851219 0.3009075061192561 0 0.39931775913561601 1 I I #
point $-1 -43.326992720256669 -8.1329649649088385 5.108867092916622 #
edge $-1 $495 1 $495 0 $275 $-1 forward 7 unknown #
vertex $-1 $276 $496 #
ellipse-curve $-1 -42.233572353470208 -5.0832180358674055 3.6588479478550844 -0.79863551827123203 0 0.60181501223851219 0.3009075061192561 0 0.39931775913561601 1 I I #
point $-1 -43.326992720256669 -5.0832180358674055 5.108867092916622 #
loop $-1 $-1 $287 $279 #
plane-surface $-1 -44.947660756248666 0 0 1 0 0 0 0 -1 forward_v I I I I #
coedge $-1 $405 $282 $284 $409 reversed $177 $-1 #
coedge $-1 $282 $404 $497 $498 reversed $177 $-1 #
coedge $-1 $290 $285 $282 $407 forward $280 $-1 #
edge $-1 $410 -16.062489024767324 $499 -13.42296796502184 $406 $500 forward 7 unknown #
coedge $-1 $284 $283 $413 $501 reversed $111 $-1 #
edge $-1 $502 0 $410 4.3859342257474037 $404 $503 forward 7 unknown #
vertex $-1 $286 $504 #
straight-curve $-1 -42.308139696503176 5.7293526088688633 6.4609307605226665 0 1 0 I I #
coedge $-1 $497 $287 $290 $417 reversed $402 $-1 #
coedge $-1 $287 $497 $408 $501 forward $402 $-1 #
vertex $-1 $288 $505 #
straight-curve $-1 -44.947660756248666 7.9006671338560555 28.529260961633963 0 0 1 I I #
straight-curve $-1 -44.947660756248666 7.9006671338560555 2.9581679070393534 -0.60181501223851219 0 -0.79863551827123203 I I #
edge $-1 $499 -15.016743301619398 $291 -7.9006671338560555 $412 $506 forward 7 unknown #
point $-1 -44.947660756248666 7.9006671338560555 6.4609307605226656 #
point $-1 -42.308139696503183 7.9006671338560555 6.4609307605226665 #
edge $-1 $507 1 $507 0 $294 $-1 forward 7 unknown #
vertex $-1 $295 $508 #
ellipse-curve $-1 -42.233572353470208 9.9338317532170102 3.6588479478550844 -0.79863551827123203 0 0.60181501223851219 0.3009075061192561 0 0.39931775913561601 1 I I #
point $-1 -43.326992720256669 9.9338317532170102 5.108867092916622 #
edge $-1 $509 1 $509 0 $298 $-1 forward 7 unknown #
vertex $-1 $299 $510 #
ellipse-curve $-1 -42.233572353470208 12.983578682258443 3.6588479478550844 -0.79863551827123203 0 0.60181501223851219 0.3009075061192561 0 0.39931775913561601 1 I I #
point $-1 -43.326992720256669 12.983578682258443 5.108867092916622 #
plane-surface $-1 44.947660756248666 0 0 -1 0 0 0 0 1 forward_v I I I I #
coedge $-1 $511 $512 $307 $433 forward $303 $-1 #
coedge $-1 $305 $437 $511 $513 forward $199 $-1 #
coedge $-1 $307 $306 $305 $432 reversed $125 $-1 #
edge $-1 $514 -11.889936344611248 $438 -3.5385099271897129 $305 $515 forward 7 unknown #
edge $-1 $435 -56.273095070550205 $514 -50.278233601332346 $429 $516 forward 7 unknown #
coedge $-1 $313 $308 $512 $517 reversed $314 $-1 #
vertex $-1 $309 $518 #
straight-curve $-1 44.947660756248666 7.7142231359004807 1.3769998573239377 0 1 0 I I #
coedge $-1 $430 $310 $313 $441 forward $199 $-1 #
vertex $-1 $311 $519 #
straight-curve $-1 36.772978118412752 11.252733063090194 6.4609307605226647 1 0 0 I I #
straight-curve $-1 -2.6896007376043229 11.252733063090194 77.612556831753778 -0.52991925155115449 0 0.84804810408105047 I I #
edge $-1 $315 11.252733063090194 $520 19.604159480511729 $313 $521 forward 7 unknown #
point $-1 44.947660756248666 11.252733063090194 6.4609307605226656 #
point $-1 44.947660756248666 11.252733063090194 1.3769998573239377 #
edge $-1 $522 1 $522 0 $318 $-1 forward 7 unknown #
vertex $-1 $319 $523 #
ellipse-curve $-1 42.511216400707241 13.638854896639206 3.3890460573721586 0.84804810408105047 0 0.52991925155115449 0.13247981288778862 0 -0.21201202602026262 1 I I #
point $-1 43.49174431767608 13.638854896639206 3.7069532829030507 #
edge $-1 $524 1 $524 0 $322 $-1 forward 7 unknown #
vertex $-1 $323 $525 #
ellipse-curve $-1 42.511216400707241 17.218037646962717 3.3890460573721586 0.84804810408105047 0 0.52991925155115449 0.13247981288778862 0 -0.21201202602026262 1 I I #
point $-1 43.49174431767608 17.218037646962717 3.7069532829030507 #
plane-surface $-1 44.947660756248666 0 0 -1 0 0 0 0 1 forward_v I I I I #
coedge $-1 $331 $329 $333 $457 reversed $221 $-1 #
edge $-1 $344 -6.4609307605226656 $459 6.4609307605226656 $343 $526 forward 7 unknown #
vertex $-1 $457 $527 #
straight-curve $-1 -44.947660756248666 -19.604159480511729 0 0 0 -1 I I #
edge $-1 $455 -19.604159480511729 $459 19.604159480511729 $453 $528 forward 7 unknown #
straight-curve $-1 0 -19.604159480511729 -6.4609307605226656 -1 0 0 I I #
vertex $-1 $336 $529 #
straight-curve $-1 0 19.604159480511729 -6.4609307605226656 1 0 0 I I #
point $-1 44.947660756248666 19.604159480511729 -6.4609307605226656 #
point $-1 44.947660756248666 -19.604159480511729 -6.4609307605226656 #
straight-curve $-1 -44.947660756248666 0 6.4609307605226656 0 -1 0 I I #
point $-1 -44.947660756248666 19.604159480511729 6.4609307605226656 #
point $-1 -44.947660756248666 -19.604159480511729 6.4609307605226656 #
straight-curve $-1 44.947660756248666 -19.604159480511729 0 0 0 -1 I I #
straight-curve $-1 44.947660756248666 19.604159480511729 0 0 0 -1 I I #
plane-surface $-1 0 -19.604159480511729 0 0 1 0 0 0 1 forward_v I I I I #
coedge $-1 $530 $356 $368 $480 reversed $240 $-1 #
coedge $-1 $356 $530 $371 $482 reversed $240 $-1 #
edge $-1 $531 -44.947660756248666 $365 -41.947660756248666 $361 $532 forward 7 unknown #
straight-curve $-1 -41.947660756248666 -8.5894263109184639 6.4609307605226656 0 1 0 I I #
coedge $-1 $368 $359 $362 $476 forward $354 $-1 #
straight-curve $-1 -41.947660756248666 -8.5894263109184639 -6.4609307605226656 0 -1 0 I I #
coedge $-1 $362 $361 $530 $533 forward $363 $-1 #
edge $-1 $364 41.947660756248666 $534 44.947660756248666 $362 $535 forward 7 unknown #
point $-1 -41.947660756248666 -19.604159480511729 -6.4609307605226656 #
point $-1 -41.947660756248666 -19.604159480511729 6.4609307605226656 #
straight-curve $-1 -44.947660756248666 -14.753545763162126 0 0 0 -1 I I #
edge $-1 $534 -19.604159480511729 $369 -14.753545763162126 $469 $536 forward 7 unknown #
point $-1 -44.947660756248666 -14.753545763162126 -6.4609307605226656 #
edge $-1 $372 14.753545763162126 $531 19.604159480511729 $470 $537 forward 7 unknown #
point $-1 -44.947660756248666 -14.753545763162126 6.4609307605226656 #
edge $-1 $485 22.068330201111298 $488 25.571093054594609 $377 $538 forward 7 unknown #
vertex $-1 $391 $539 #
straight-curve $-1 -58.370628721270506 -3.0500534165064508 6.4609307605226647 -1 0 0 I I #
edge $-1 $488 -0.25399233368761021 $388 6.8620838340757322 $387 $540 forward 7 unknown #
vertex $-1 $487 $541 #
straight-curve $-1 -44.947660756248666 -3.0500534165064508 2.9581679070393534 0.60181501223851219 0 0.79863551827123203 I I #
point $-1 -42.308139696503183 -3.0500534165064508 6.4609307605226665 #
point $-1 -44.947660756248666 -10.166129584269793 2.9581679070393534 #
straight-curve $-1 -44.947660756248666 0 6.4609307605226656 0 -1 0 I I #
vertex $-1 $394 $542 #
point $-1 -41.932664847350956 -8.1329649649088385 4.0581657069907004 #
vertex $-1 $398 $543 #
point $-1 -41.932664847350956 -5.0832180358674055 4.0581657069907004 #
coedge $-1 $413 $412 $405 $498 forward $402 $-1 #
edge $-1 $499 22.068330201111298 $502 25.571093054594609 $497 $544 forward 7 unknown #
vertex $-1 $417 $545 #
straight-curve $-1 -58.370628721270506 15.016743301619398 6.4609307605226647 -1 0 0 I I #
edge $-1 $502 -9.2873906927505345 $414 -2.1713145249871921 $413 $546 forward 7 unknown #
vertex $-1 $501 $547 #
straight-curve $-1 -44.947660756248666 15.016743301619398 2.9581679070393534 0.60181501223851219 0 0.79863551827123203 I I #
point $-1 -42.308139696503183 15.016743301619398 6.4609307605226665 #
point $-1 -44.947660756248666 7.9006671338560555 2.9581679070393534 #
straight-curve $-1 -44.947660756248666 0 6.4609307605226656 0 -1 0 I I #
vertex $-1 $420 $548 #
point $-1 -41.932664847350956 9.9338317532170102 4.0581657069907004 #
vertex $-1 $424 $549 #
point $-1 -41.932664847350956 12.983578682258443 4.0581657069907004 #
coedge $-1 $512 $429 $430 $513 reversed $303 $-1 #
coedge $-1 $429 $511 $434 $517 forward $303 $-1 #
edge $-1 $520 -44.947660756248666 $514 -41.77086825332789 $511 $550 forward 7 unknown #
vertex $-1 $432 $551 #
straight-curve $-1 41.770868253327883 7.7142231359004807 6.4609307605226718 0 -1 0 I I #
straight-curve $-1 15.127464333995743 19.604159480511729 49.099291442676737 -0.52991925155115449 0 0.84804810408105047 I I #
edge $-1 $520 -6.4609307605226656 $435 -1.3769998573239328 $434 $552 forward 7 unknown #
point $-1 44.947660756248666 19.604159480511729 1.3769998573239328 #
point $-1 41.77086825332789 11.252733063090194 6.4609307605226718 #
vertex $-1 $441 $553 #
straight-curve $-1 44.947660756248666 0 6.4609307605226656 0 1 0 I I #
vertex $-1 $444 $554 #
point $-1 42.643696213595028 13.638854896639206 3.1770340313518961 #
vertex $-1 $448 $555 #
point $-1 42.643696213595028 17.218037646962717 3.1770340313518961 #
straight-curve $-1 -44.947660756248666 19.604159480511729 0 0 0 -1 I I #
point $-1 -44.947660756248666 -19.604159480511729 -6.4609307605226656 #
straight-curve $-1 -44.947660756248666 0 -6.4609307605226656 0 1 0 I I #
point $-1 -44.947660756248666 19.604159480511729 -6.4609307605226656 #
coedge $-1 $470 $469 $475 $533 reversed $240 $-1 #
vertex $-1 $482 $556 #
straight-curve $-1 0 -19.604159480511729 6.4609307605226656 1 0 0 I I #
edge $-1 $531 -6.4609307605226656 $534 6.4609307605226656 $530 $557 forward 7 unknown #
vertex $-1 $480 $558 #
straight-curve $-1 0 -19.604159480511729 -6.4609307605226656 -1 0 0 I I #
straight-curve $-1 -44.947660756248666 0 -6.4609307605226656 0 1 0 I I #
straight-curve $-1 -44.947660756248666 0 6.4609307605226656 0 -1 0 I I #
straight-curve $-1 -44.947660756248666 -3.0500534165064508 28.529260961633963 0 0 -1 I I #
point $-1 -44.947660756248666 -3.0500534165064508 6.4609307605226656 #
straight-curve $-1 -44.947660756248666 -3.304045750194061 2.9581679070393561 0 -1 0 I I #
point $-1 -44.947660756248666 -3.0500534165064508 2.9581679070393534 #
point $-1 -41.834254594334595 -8.1329649649088385 3.3579404417358281 #
point $-1 -41.834254594334595 -5.0832180358674055 3.3579404417358281 #
straight-curve $-1 -44.947660756248666 15.016743301619398 28.529260961633963 0 0 -1 I I #
point $-1 -44.947660756248666 15.016743301619398 6.4609307605226656 #
straight-curve $-1 -44.947660756248666 5.7293526088688633 2.9581679070393561 0 -1 0 I I #
point $-1 -44.947660756248666 15.016743301619398 2.9581679070393534 #
point $-1 -41.834254594334595 9.9338317532170102 3.3579404417358281 #
point $-1 -41.834254594334595 12.983578682258443 3.3579404417358281 #
straight-curve $-1 0 19.604159480511729 6.4609307605226656 -1 0 0 I I #
point $-1 41.77086825332789 19.604159480511729 6.4609307605226718 #
straight-curve $-1 44.947660756248666 19.604159480511729 0 0 0 -1 I I #
point $-1 44.947660756248666 19.604159480511729 6.4609307605226656 #
point $-1 42.29920437468698 13.638854896639206 3.2565662444843704 #
point $-1 42.29920437468698 17.218037646962717 3.2565662444843704 #
point $-1 -44.947660756248666 -19.604159480511729 6.4609307605226656 #
straight-curve $-1 -44.947660756248666 -19.604159480511729 0 0 0 -1 I I #
point $-1 -44.947660756248666 -19.604159480511729 -6.4609307605226656 #
End-of-ACIS-data 