500 0 4 0           
7 Unknown 11 ACIS 5.0 NT 24 Thu Mar 25 21:25:01 1999 
-1 9.9999999999999995e-007 1e-010 
body $-1 $4 $-1 $5 #
body $-1 $6 $-1 $7 #
body $-1 $8 $-1 $9 #
body $-1 $10 $-1 $11 #
lump $-1 $-1 $12 $0 #
transform $-1 1 0 0 0 1 0 0 0 1 68.604388561662645 42.784625379763789 17.28006868917911 1 rotate no_reflect no_shear #
lump $-1 $-1 $13 $1 #
transform $-1 1 0 0 0 1 0 0 0 1 68.604388561662645 42.784625379763789 17.28006868917911 1 rotate no_reflect no_shear #
lump $-1 $-1 $14 $2 #
transform $-1 1 0 0 0 1 0 0 0 1 68.604388561662645 42.784625379763789 17.28006868917911 1 rotate no_reflect no_shear #
lump $-1 $-1 $15 $3 #
transform $-1 1 0 0 0 1 0 0 0 1 68.604388561662645 42.784625379763789 17.28006868917911 1 rotate no_reflect no_shear #
shell $-1 $-1 $-1 $16 $-1 $4 #
shell $-1 $-1 $-1 $17 $-1 $6 #
shell $-1 $-1 $-1 $18 $-1 $8 #
shell $-1 $-1 $-1 $19 $-1 $10 #
face $-1 $20 $21 $12 $-1 $22 forward single #
face $-1 $23 $24 $13 $-1 $25 forward single #
face $-1 $26 $27 $14 $-1 $28 forward single #
face $-1 $29 $30 $15 $-1 $31 reversed single #
face $-1 $32 $33 $12 $-1 $34 reversed single #
loop $-1 $-1 $35 $16 #
plane-surface $-1 0 0 17.28006868917911 0 0 1 1 0 0 forward_v I I I I #
face $-1 $36 $37 $13 $-1 $38 forward single #
loop $-1 $-1 $39 $17 #
plane-surface $-1 0 -32.562832179467271 7.155035857640506 0 0 1 1 0 0 forward_v I I I I #
face $-1 $40 $41 $14 $-1 $42 forward single #
loop $-1 $-1 $43 $18 #
plane-surface $-1 -151.17869298817857 0.012345945146684301 111.41280268032941 0 1 0 -0.6018150307709319 0 0.79863550430605224 forward_v I I I I #
face $-1 $44 $45 $15 $-1 $46 reversed single #
loop $-1 $47 $48 $19 #
cone-surface $-1 -57.136985301083492 5.9873826735333822 7.9402897104774475 0.6018150307709319 0 -0.79863550430605224 1.9965887607651305 0 1.5045375769273297 1 I I 0 1 2.5 forward I I I I #
face $-1 $49 $50 $12 $-1 $51 reversed single #
loop $-1 $-1 $52 $20 #
plane-surface $-1 0 0 -17.28006868917911 0 0 1 1 0 0 forward_v I I I I #
coedge $-1 $53 $54 $55 $56 forward $21 $-1 #
face $-1 $57 $58 $13 $-1 $59 forward single #
loop $-1 $-1 $60 $23 #
plane-surface $-1 0 -22.341038979170754 12.217552273409808 0 -1 0 0 0 -1 forward_v I I I I #
coedge $-1 $61 $62 $63 $64 reversed $24 $-1 #
face $-1 $65 $66 $14 $-1 $67 forward single #
loop $-1 $-1 $68 $26 #
plane-surface $-1 -68.604388561662617 5.9873826735333822 1.8330017672257952 -0.6018150307709319 0 0.79863550430605224 0.79863550430605224 0 0.6018150307709319 forward_v I I I I #
coedge $-1 $69 $70 $71 $72 reversed $27 $-1 #
face $-1 $73 $74 $15 $-1 $75 forward single #
loop $-1 $76 $77 $29 #
cone-surface $-1 -55.166788132603429 5.9873826735333822 5.3257498123698817 0.6018150307709319 0 -0.79863550430605224 0.99829438038256524 0 0.75226878846366485 1 I I -0.70710678118654746 0.70710678118654746 1.25 forward I I I I #
loop $-1 $-1 $78 $19 #
coedge $-1 $48 $48 $79 $80 reversed $30 $-1 #
face $-1 $81 $82 $12 $-1 $83 reversed single #
loop $-1 $-1 $84 $32 #
plane-surface $-1 0 -42.784625379763789 0 0 1 0 0 0 1 forward_v I I I I #
coedge $-1 $85 $86 $87 $88 forward $33 $-1 #
coedge $-1 $89 $35 $90 $91 forward $21 $-1 #
coedge $-1 $35 $89 $92 $93 forward $21 $-1 #
coedge $-1 $94 $95 $35 $56 reversed $96 $-1 #
edge $-1 $97 -42.784625379763789 $98 42.784625379763789 $55 $99 forward 7 unknown #
face $-1 $100 $101 $13 $-1 $102 reversed single #
loop $-1 $-1 $103 $36 #
plane-surface $-1 0 0 17.28006868917911 0 0 1 1 0 0 forward_v I I I I #
coedge $-1 $104 $105 $106 $107 reversed $37 $-1 #
coedge $-1 $108 $39 $105 $109 reversed $24 $-1 #
coedge $-1 $39 $108 $110 $111 reversed $24 $-1 #
coedge $-1 $112 $106 $39 $64 forward $101 $-1 #
edge $-1 $113 6.0596228894371187 $114 26.503209290030153 $63 $115 forward 7 unknown #
face $-1 $116 $117 $14 $-1 $118 forward single #
loop $-1 $-1 $119 $40 #
plane-surface $-1 -151.17869298817857 11.96241940192008 111.41280268032941 0 -1 0 0.6018150307709319 0 -0.79863550430605224 forward_v I I I I #
coedge $-1 $120 $121 $122 $123 reversed $41 $-1 #
coedge $-1 $70 $43 $121 $124 forward $27 $-1 #
coedge $-1 $43 $69 $125 $126 reversed $27 $-1 #
coedge $-1 $127 $122 $43 $72 forward $117 $-1 #
edge $-1 $128 -27.483907693552155 $129 -6.9849579324266386 $71 $130 forward 7 unknown #
face $-1 $131 $132 $15 $-1 $133 forward single #
loop $-1 $-1 $134 $44 #
plane-surface $-1 -151.17869298817857 0.012345945146684301 111.41280268032941 0 1 0 -0.6018150307709319 0 0.79863550430605224 forward_v I I I I #
loop $-1 $-1 $135 $29 #
coedge $-1 $77 $77 $78 $136 forward $45 $-1 #
coedge $-1 $78 $78 $77 $136 reversed $47 $-1 #
coedge $-1 $79 $79 $48 $80 forward $132 $-1 #
edge $-1 $137 0 $137 6.2831853071796004 $79 $138 forward 7 unknown #
face $-1 $139 $140 $12 $-1 $141 reversed single #
loop $-1 $-1 $142 $49 #
plane-surface $-1 -68.604388561662645 0 0 1 0 0 0 0 -1 forward_v I I I I #
coedge $-1 $143 $92 $144 $145 forward $50 $-1 #
coedge $-1 $146 $52 $143 $147 forward $33 $-1 #
coedge $-1 $52 $146 $148 $149 forward $33 $-1 #
coedge $-1 $95 $94 $52 $88 reversed $96 $-1 #
edge $-1 $150 -42.784625379763789 $151 42.784625379763789 $87 $152 forward 7 unknown #
coedge $-1 $54 $53 $153 $154 forward $21 $-1 #
coedge $-1 $155 $156 $53 $91 reversed $140 $-1 #
edge $-1 $98 -68.604388561662645 $157 68.604388561662645 $90 $158 forward 7 unknown #
coedge $-1 $84 $159 $54 $93 reversed $50 $-1 #
edge $-1 $160 -68.604388561662645 $97 68.604388561662645 $92 $161 forward 7 unknown #
coedge $-1 $87 $55 $159 $162 forward $96 $-1 #
coedge $-1 $55 $87 $155 $163 reversed $96 $-1 #
loop $-1 $-1 $94 $139 #
vertex $-1 $56 $164 #
vertex $-1 $56 $165 #
straight-curve $-1 68.604388561662645 0 17.28006868917911 0 1 0 I I #
face $-1 $166 $167 $13 $-1 $168 reversed single #
loop $-1 $-1 $106 $57 #
plane-surface $-1 68.604388561662645 0 0 -1 0 0 0 0 1 forward_v I I I I #
coedge $-1 $169 $170 $104 $171 forward $58 $-1 #
coedge $-1 $172 $60 $103 $171 reversed $37 $-1 #
coedge $-1 $60 $172 $61 $109 forward $37 $-1 #
coedge $-1 $63 $173 $60 $107 forward $101 $-1 #
edge $-1 $174 -11.171292552474206 $113 -1.0462597209356019 $106 $175 forward 7 unknown #
coedge $-1 $62 $61 $176 $177 reversed $24 $-1 #
edge $-1 $178 -68.604388561662645 $113 68.604388561662645 $105 $179 forward 7 unknown #
coedge $-1 $180 $181 $62 $111 forward $182 $-1 #
edge $-1 $114 -68.604388561662645 $183 68.604388561662645 $110 $184 forward 7 unknown #
coedge $-1 $185 $63 $181 $186 forward $101 $-1 #
vertex $-1 $64 $187 #
vertex $-1 $186 $188 #
straight-curve $-1 68.604388561662645 -16.281416089733636 7.155035857640506 0 -1 0 I I #
face $-1 $189 $190 $14 $-1 $191 forward single #
loop $-1 $-1 $192 $65 #
plane-surface $-1 0 0 17.28006868917911 0 0 1 1 0 0 forward_v I I I I #
coedge $-1 $193 $194 $192 $195 reversed $66 $-1 #
coedge $-1 $196 $68 $194 $197 reversed $41 $-1 #
coedge $-1 $68 $196 $69 $124 reversed $41 $-1 #
coedge $-1 $71 $192 $68 $123 forward $117 $-1 #
edge $-1 $198 -8.9687280651533889 $128 2.9813453916200068 $122 $199 forward 7 unknown #
edge $-1 $128 -25.667466135176863 $200 3.5527045195756588e-014 $69 $201 forward 7 unknown #
coedge $-1 $202 $203 $70 $126 forward $204 $-1 #
edge $-1 $129 38.426332650985593 $200 53.873399572938929 $125 $205 forward 7 unknown #
coedge $-1 $206 $71 $203 $207 forward $117 $-1 #
vertex $-1 $123 $208 #
vertex $-1 $207 $209 #
straight-curve $-1 -75.589346494089284 0.012345945146684301 17.28006868917911 -1 0 0 I I #
face $-1 $210 $211 $15 $-1 $212 forward single #
loop $-1 $213 $79 $73 #
plane-surface $-1 -68.604388561662617 5.9873826735333822 1.8330017672257952 -0.6018150307709319 0 0.79863550430605224 0.79863550430605224 0 0.6018150307709319 forward_v I I I I #
coedge $-1 $214 $215 $216 $217 reversed $74 $-1 #
coedge $-1 $135 $135 $-1 $218 forward $76 $-1 #
edge $-1 $219 0 $219 6.2831853071796004 $77 $220 forward 7 unknown #
vertex $-1 $80 $221 #
ellipse-curve $-1 -58.354913681099887 5.9873826735333822 9.5565352282024403 0.6018150307709319 0 -0.79863550430605224 1.9965887607651305 0 1.5045375769273297 1 I I #
face $-1 $-1 $96 $12 $-1 $222 reversed single #
loop $-1 $-1 $155 $81 #
plane-surface $-1 0 42.784625379763789 0 0 -1 0 0 0 -1 forward_v I I I I #
coedge $-1 $223 $153 $156 $224 forward $82 $-1 #
coedge $-1 $159 $84 $85 $147 reversed $50 $-1 #
coedge $-1 $153 $223 $84 $145 reversed $82 $-1 #
edge $-1 $160 -17.28006868917911 $225 17.28006868917911 $144 $226 forward 7 unknown #
coedge $-1 $86 $85 $223 $227 forward $33 $-1 #
edge $-1 $151 -68.604388561662645 $225 68.604388561662645 $143 $228 forward 7 unknown #
coedge $-1 $156 $155 $86 $149 reversed $140 $-1 #
edge $-1 $229 -68.604388561662645 $150 68.604388561662645 $148 $230 forward 7 unknown #
vertex $-1 $88 $231 #
vertex $-1 $162 $232 #
straight-curve $-1 68.604388561662645 0 -17.28006868917911 0 -1 0 I I #
coedge $-1 $142 $144 $89 $154 reversed $82 $-1 #
edge $-1 $157 -42.784625379763789 $160 42.784625379763789 $153 $233 forward 7 unknown #
coedge $-1 $148 $90 $95 $163 forward $140 $-1 #
coedge $-1 $90 $148 $142 $224 reversed $140 $-1 #
vertex $-1 $91 $234 #
straight-curve $-1 0 42.784625379763789 17.28006868917911 -1 0 0 I I #
coedge $-1 $92 $143 $94 $162 reversed $50 $-1 #
vertex $-1 $154 $235 #
straight-curve $-1 0 -42.784625379763789 17.28006868917911 1 0 0 I I #
edge $-1 $97 -17.28006868917911 $151 17.28006868917911 $94 $236 forward 7 unknown #
edge $-1 $98 -17.28006868917911 $150 17.28006868917911 $95 $237 forward 7 unknown #
point $-1 68.604388561662645 -42.784625379763789 17.28006868917911 #
point $-1 68.604388561662645 42.784625379763789 17.28006868917911 #
face $-1 $238 $182 $13 $-1 $239 reversed single #
loop $-1 $-1 $240 $100 #
plane-surface $-1 0 0 -17.28006868917911 0 0 1 1 0 0 forward_v I I I I #
coedge $-1 $241 $103 $173 $242 forward $58 $-1 #
coedge $-1 $103 $241 $243 $244 forward $58 $-1 #
edge $-1 $245 -68.604388561662645 $174 68.604388561662645 $103 $246 forward 7 unknown #
coedge $-1 $105 $104 $247 $248 reversed $37 $-1 #
coedge $-1 $106 $249 $169 $242 reversed $101 $-1 #
vertex $-1 $242 $250 #
straight-curve $-1 68.604388561662645 -22.341038979170754 6.108776136704904 0 0 -1 I I #
coedge $-1 $247 $251 $108 $177 forward $252 $-1 #
edge $-1 $183 -26.503209290030153 $178 -6.0596228894371187 $176 $253 forward 7 unknown #
vertex $-1 $177 $254 #
straight-curve $-1 0 -22.341038979170754 7.155035857640506 1 0 0 I I #
coedge $-1 $255 $110 $251 $256 forward $182 $-1 #
coedge $-1 $110 $255 $112 $186 reversed $182 $-1 #
loop $-1 $-1 $110 $166 #
vertex $-1 $256 $257 #
straight-curve $-1 0 -42.784625379763789 7.155035857640506 -1 0 0 I I #
coedge $-1 $249 $112 $240 $258 reversed $101 $-1 #
edge $-1 $114 -7.155035857640506 $259 17.28006868917911 $112 $260 forward 7 unknown #
point $-1 68.604388561662645 -22.341038979170754 7.155035857640506 #
point $-1 68.604388561662645 -42.784625379763789 7.155035857640506 #
face $-1 $261 $262 $14 $-1 $263 forward single #
loop $-1 $-1 $264 $116 #
plane-surface $-1 0 -32.562832179467271 7.155035857640506 0 0 1 1 0 0 forward_v I I I I #
coedge $-1 $122 $265 $119 $195 forward $117 $-1 #
coedge $-1 $194 $119 $266 $267 reversed $66 $-1 #
coedge $-1 $119 $193 $120 $197 forward $66 $-1 #
edge $-1 $268 6.9849579324266386 $198 27.483907693552155 $192 $269 forward 7 unknown #
coedge $-1 $121 $120 $202 $270 reversed $41 $-1 #
edge $-1 $271 -3.5527045195756588e-014 $198 25.667466135176863 $194 $272 forward 7 unknown #
vertex $-1 $123 $273 #
straight-curve $-1 -48.105438800537122 2.9936913367666911 17.28006868917911 0 -1 0 I I #
vertex $-1 $270 $274 #
straight-curve $-1 -68.604388561662617 0.012345945146684301 1.8330017672257952 -0.79863550430605224 0 -0.6018150307709319 I I #
coedge $-1 $266 $125 $196 $270 forward $204 $-1 #
coedge $-1 $125 $275 $127 $207 reversed $204 $-1 #
loop $-1 $-1 $266 $276 #
straight-curve $-1 -68.604388561662645 0.012345945146684301 55.706401340164703 0 0 -1 I I #
coedge $-1 $277 $127 $278 $279 forward $117 $-1 #
edge $-1 $129 -0.012345945146684301 $280 22.341038979170754 $203 $281 forward 7 unknown #
point $-1 -48.105438800537129 0.012345945146684301 17.28006868917911 #
point $-1 -68.604388561662645 0.012345945146684301 17.28006868917911 #
face $-1 $282 $283 $15 $-1 $284 forward single #
loop $-1 $-1 $285 $131 #
plane-surface $-1 -151.17869298817857 11.96241940192008 111.41280268032941 0 -1 0 0.6018150307709319 0 -0.79863550430605224 forward_v I I I I #
loop $-1 $-1 $286 $73 #
coedge $-1 $215 $134 $287 $288 forward $74 $-1 #
coedge $-1 $134 $214 $289 $290 reversed $74 $-1 #
coedge $-1 $291 $292 $134 $217 forward $283 $-1 #
edge $-1 $293 -27.483907693552155 $294 -6.9849579324266386 $216 $295 forward 7 unknown #
edge $-1 $296 1 $296 0 $135 $-1 forward 7 unknown #
vertex $-1 $136 $297 #
ellipse-curve $-1 -55.919056921067096 5.9873826735333822 6.3240441927524467 -0.6018150307709319 0 0.79863550430605224 1.9965887607651305 0 1.5045375769273297 1 I I #
point $-1 -56.358324920334766 5.9873826735333822 11.061072805129776 #
plane-surface $-1 68.604388561662645 0 0 -1 0 0 0 0 1 forward_v I I I I #
coedge $-1 $144 $142 $146 $227 reversed $82 $-1 #
edge $-1 $157 -17.28006868917911 $229 17.28006868917911 $156 $298 forward 7 unknown #
vertex $-1 $227 $299 #
straight-curve $-1 -68.604388561662645 -42.784625379763789 0 0 0 -1 I I #
edge $-1 $225 -42.784625379763789 $229 42.784625379763789 $223 $300 forward 7 unknown #
straight-curve $-1 0 -42.784625379763789 -17.28006868917911 -1 0 0 I I #
vertex $-1 $149 $301 #
straight-curve $-1 0 42.784625379763789 -17.28006868917911 1 0 0 I I #
point $-1 68.604388561662645 42.784625379763789 -17.28006868917911 #
point $-1 68.604388561662645 -42.784625379763789 -17.28006868917911 #
straight-curve $-1 -68.604388561662645 0 17.28006868917911 0 -1 0 I I #
point $-1 -68.604388561662645 42.784625379763789 17.28006868917911 #
point $-1 -68.604388561662645 -42.784625379763789 17.28006868917911 #
straight-curve $-1 68.604388561662645 -42.784625379763789 0 0 0 -1 I I #
straight-curve $-1 68.604388561662645 42.784625379763789 0 0 0 -1 I I #
face $-1 $302 $252 $13 $-1 $303 reversed single #
plane-surface $-1 0 -42.784625379763789 0 0 1 0 0 0 1 forward_v I I I I #
coedge $-1 $304 $305 $185 $258 forward $167 $-1 #
coedge $-1 $170 $169 $306 $307 forward $58 $-1 #
edge $-1 $174 -22.341038979170754 $308 42.784625379763789 $173 $309 forward 7 unknown #
coedge $-1 $310 $247 $170 $244 reversed $252 $-1 #
edge $-1 $311 -42.784625379763789 $245 22.341038979170754 $243 $312 forward 7 unknown #
vertex $-1 $248 $313 #
straight-curve $-1 0 -22.341038979170754 17.28006868917911 1 0 0 I I #
coedge $-1 $243 $176 $172 $248 forward $252 $-1 #
edge $-1 $178 1.0462597209356019 $245 11.171292552474206 $247 $314 forward 7 unknown #
coedge $-1 $173 $185 $315 $316 reversed $101 $-1 #
point $-1 68.604388561662645 -22.341038979170754 17.28006868917911 #
coedge $-1 $176 $317 $180 $256 reversed $252 $-1 #
loop $-1 $-1 $247 $238 #
straight-curve $-1 -68.604388561662645 -16.281416089733636 7.155035857640506 0 1 0 I I #
point $-1 -68.604388561662645 -22.341038979170754 7.155035857640506 #
coedge $-1 $181 $180 $304 $318 reversed $182 $-1 #
edge $-1 $183 -7.155035857640506 $319 17.28006868917911 $251 $320 forward 7 unknown #
point $-1 -68.604388561662645 -42.784625379763789 7.155035857640506 #
edge $-1 $321 -42.784625379763789 $259 42.784625379763789 $185 $322 forward 7 unknown #
vertex $-1 $186 $323 #
straight-curve $-1 68.604388561662645 -42.784625379763789 0 0 0 -1 I I #
face $-1 $324 $325 $14 $-1 $326 reversed single #
loop $-1 $-1 $327 $189 #
plane-surface $-1 0 -22.341038979170754 12.217552273409808 0 -1 0 0 0 -1 forward_v I I I I #
coedge $-1 $328 $329 $330 $331 reversed $190 $-1 #
coedge $-1 $192 $332 $333 $334 forward $117 $-1 #
coedge $-1 $333 $202 $193 $267 forward $204 $-1 #
edge $-1 $271 -53.873399572938929 $268 -38.426332650985593 $266 $335 forward 7 unknown #
vertex $-1 $267 $336 #
straight-curve $-1 -75.589346494089284 11.96241940192008 17.28006868917911 1 0 0 I I #
edge $-1 $200 -2.9813453916200068 $271 8.9687280651533889 $202 $337 forward 7 unknown #
vertex $-1 $270 $338 #
straight-curve $-1 -68.604388561662617 11.96241940192008 1.8330017672257952 0.79863550430605224 0 0.6018150307709319 I I #
point $-1 -48.105438800537129 11.96241940192008 17.28006868917911 #
point $-1 -68.604388561662645 0.012345945146684301 1.8330017672257739 #
coedge $-1 $203 $339 $340 $341 forward $204 $-1 #
face $-1 $342 $204 $14 $-1 $343 reversed single #
coedge $-1 $332 $206 $344 $345 forward $117 $-1 #
coedge $-1 $340 $327 $206 $279 reversed $262 $-1 #
edge $-1 $280 -68.604388561662645 $346 68.604388561662645 $206 $347 forward 7 unknown #
vertex $-1 $341 $348 #
straight-curve $-1 -68.604388561662645 0 17.28006868917911 0 -1 0 I I #
face $-1 $349 $350 $15 $-1 $351 forward single #
loop $-1 $-1 $352 $210 #
plane-surface $-1 0 0 17.28006868917911 0 0 1 1 0 0 forward_v I I I I #
coedge $-1 $353 $354 $352 $355 reversed $211 $-1 #
coedge $-1 $356 $287 $292 $357 reversed $213 $-1 #
coedge $-1 $286 $358 $214 $288 reversed $213 $-1 #
edge $-1 $293 -25.667466135176863 $359 3.5527045195756588e-014 $214 $360 forward 7 unknown #
coedge $-1 $361 $362 $215 $290 forward $363 $-1 #
edge $-1 $294 38.426332650985593 $359 53.873399572938929 $289 $364 forward 7 unknown #
coedge $-1 $365 $216 $362 $366 forward $283 $-1 #
coedge $-1 $216 $352 $286 $357 forward $283 $-1 #
vertex $-1 $357 $367 #
vertex $-1 $366 $368 #
straight-curve $-1 -75.589346494089284 0.012345945146684301 17.28006868917911 -1 0 0 I I #
vertex $-1 $218 $369 #
point $-1 -53.92246816030196 5.9873826735333822 7.8285817696797766 #
straight-curve $-1 -68.604388561662645 42.784625379763789 0 0 0 -1 I I #
point $-1 -68.604388561662645 -42.784625379763789 -17.28006868917911 #
straight-curve $-1 -68.604388561662645 0 -17.28006868917911 0 1 0 I I #
point $-1 -68.604388561662645 42.784625379763789 -17.28006868917911 #
face $-1 $-1 $370 $13 $-1 $371 reversed single #
plane-surface $-1 -68.604388561662645 0 0 1 0 0 0 0 -1 forward_v I I I I #
coedge $-1 $372 $240 $255 $318 forward $167 $-1 #
coedge $-1 $240 $372 $373 $374 forward $167 $-1 #
coedge $-1 $315 $375 $241 $307 reversed $370 $-1 #
edge $-1 $308 -68.604388561662645 $311 68.604388561662645 $306 $376 forward 7 unknown #
vertex $-1 $242 $377 #
straight-curve $-1 68.604388561662645 0 17.28006868917911 0 1 0 I I #
coedge $-1 $317 $243 $375 $378 forward $252 $-1 #
vertex $-1 $307 $379 #
straight-curve $-1 -68.604388561662645 0 17.28006868917911 0 -1 0 I I #
point $-1 -68.604388561662645 -22.341038979170754 17.28006868917911 #
straight-curve $-1 -68.604388561662645 -22.341038979170754 6.108776136704904 0 0 1 I I #
coedge $-1 $373 $306 $249 $316 forward $370 $-1 #
edge $-1 $308 -17.28006868917911 $321 17.28006868917911 $249 $380 forward 7 unknown #
coedge $-1 $251 $310 $372 $381 reversed $252 $-1 #
edge $-1 $259 -68.604388561662645 $319 68.604388561662645 $255 $382 forward 7 unknown #
vertex $-1 $381 $383 #
straight-curve $-1 -68.604388561662645 -42.784625379763789 0 0 0 -1 I I #
vertex $-1 $258 $384 #
straight-curve $-1 68.604388561662645 0 -17.28006868917911 0 -1 0 I I #
point $-1 68.604388561662645 -42.784625379763789 -17.28006868917911 #
face $-1 $385 $386 $14 $-1 $387 reversed single #
loop $-1 $-1 $388 $261 #
plane-surface $-1 68.604388561662645 0 0 -1 0 0 0 0 1 forward_v I I I I #
coedge $-1 $278 $389 $388 $390 reversed $262 $-1 #
coedge $-1 $391 $264 $389 $392 reversed $190 $-1 #
coedge $-1 $264 $391 $393 $394 reversed $190 $-1 #
coedge $-1 $395 $388 $264 $331 forward $325 $-1 #
edge $-1 $396 6.0596228894371187 $397 26.503209290030153 $330 $398 forward 7 unknown #
coedge $-1 $265 $277 $399 $400 forward $117 $-1 #
coedge $-1 $401 $266 $265 $334 reversed $204 $-1 #
edge $-1 $402 -42.784625379763789 $268 -11.96241940192008 $333 $281 forward 7 unknown #
straight-curve $-1 -68.604388561662645 11.96241940192008 55.706401340164703 0 0 1 I I #
point $-1 -68.604388561662645 11.96241940192008 17.28006868917911 #
straight-curve $-1 -68.604388561662645 2.9936913367666911 1.8330017672257723 0 1 0 I I #
point $-1 -68.604388561662645 11.96241940192008 1.8330017672257739 #
coedge $-1 $275 $403 $391 $404 forward $204 $-1 #
coedge $-1 $389 $278 $275 $341 reversed $262 $-1 #
edge $-1 $405 1.0462597209356019 $280 11.171292552474206 $275 $406 forward 7 unknown #
face $-1 $-1 $407 $14 $-1 $408 reversed single #
plane-surface $-1 -68.604388561662645 0 0 1 0 0 0 0 -1 forward_v I I I I #
coedge $-1 $388 $409 $277 $345 reversed $325 $-1 #
edge $-1 $346 -22.341038979170754 $410 42.784625379763789 $344 $411 forward 7 unknown #
vertex $-1 $345 $412 #
straight-curve $-1 0 -22.341038979170754 17.28006868917911 1 0 0 I I #
point $-1 -68.604388561662645 -22.341038979170754 17.28006868917911 #
face $-1 $413 $414 $15 $-1 $415 forward single #
loop $-1 $-1 $416 $282 #
plane-surface $-1 0 -32.562832179467271 7.155035857640506 0 0 1 1 0 0 forward_v I I I I #
coedge $-1 $292 $417 $285 $355 forward $283 $-1 #
coedge $-1 $354 $285 $418 $419 reversed $211 $-1 #
coedge $-1 $285 $353 $356 $420 forward $211 $-1 #
edge $-1 $421 6.9849579324266386 $422 27.483907693552155 $352 $423 forward 7 unknown #
coedge $-1 $358 $286 $354 $420 reversed $213 $-1 #
edge $-1 $422 -8.9687280651533889 $293 2.9813453916200068 $292 $424 forward 7 unknown #
coedge $-1 $287 $356 $361 $425 reversed $213 $-1 #
vertex $-1 $425 $426 #
straight-curve $-1 -68.604388561662617 0.012345945146684301 1.8330017672257952 -0.79863550430605224 0 -0.6018150307709319 I I #
coedge $-1 $418 $289 $358 $425 forward $363 $-1 #
coedge $-1 $289 $427 $291 $366 reversed $363 $-1 #
loop $-1 $-1 $418 $428 #
straight-curve $-1 -68.604388561662645 0.012345945146684301 55.706401340164703 0 0 -1 I I #
coedge $-1 $429 $291 $430 $431 forward $283 $-1 #
edge $-1 $294 -0.012345945146684301 $432 22.341038979170754 $362 $433 forward 7 unknown #
point $-1 -48.105438800537129 0.012345945146684301 17.28006868917911 #
point $-1 -68.604388561662645 0.012345945146684301 17.28006868917911 #
point $-1 -54.414519344139762 5.9873826735333822 4.3274554319873166 #
loop $-1 $-1 $315 $302 #
plane-surface $-1 0 42.784625379763789 0 0 -1 0 0 0 -1 forward_v I I I I #
coedge $-1 $305 $304 $317 $381 forward $167 $-1 #
coedge $-1 $375 $315 $305 $374 reversed $370 $-1 #
edge $-1 $434 -68.604388561662645 $321 68.604388561662645 $373 $435 forward 7 unknown #
coedge $-1 $306 $373 $310 $378 reversed $370 $-1 #
straight-curve $-1 0 42.784625379763789 17.28006868917911 -1 0 0 I I #
point $-1 68.604388561662645 42.784625379763789 17.28006868917911 #
edge $-1 $311 -17.28006868917911 $434 17.28006868917911 $375 $436 forward 7 unknown #
point $-1 -68.604388561662645 42.784625379763789 17.28006868917911 #
straight-curve $-1 68.604388561662645 42.784625379763789 0 0 0 -1 I I #
edge $-1 $319 -42.784625379763789 $434 42.784625379763789 $317 $437 forward 7 unknown #
straight-curve $-1 0 -42.784625379763789 -17.28006868917911 -1 0 0 I I #
point $-1 -68.604388561662645 -42.784625379763789 -17.28006868917911 #
point $-1 68.604388561662645 42.784625379763789 -17.28006868917911 #
face $-1 $276 $438 $14 $-1 $439 reversed single #
loop $-1 $-1 $440 $324 #
plane-surface $-1 0 0 -17.28006868917911 0 0 1 1 0 0 forward_v I I I I #
coedge $-1 $330 $344 $327 $390 forward $325 $-1 #
coedge $-1 $327 $340 $328 $392 forward $262 $-1 #
edge $-1 $346 -11.171292552474206 $396 -1.0462597209356019 $388 $441 forward 7 unknown #
coedge $-1 $329 $328 $339 $404 reversed $190 $-1 #
edge $-1 $405 -68.604388561662645 $396 68.604388561662645 $389 $442 forward 7 unknown #
coedge $-1 $443 $444 $329 $394 forward $438 $-1 #
edge $-1 $397 -68.604388561662645 $445 68.604388561662645 $393 $446 forward 7 unknown #
coedge $-1 $447 $330 $444 $448 forward $325 $-1 #
vertex $-1 $331 $449 #
vertex $-1 $448 $450 #
straight-curve $-1 68.604388561662645 -16.281416089733636 7.155035857640506 0 -1 0 I I #
coedge $-1 $451 $452 $332 $400 reversed $407 $-1 #
edge $-1 $410 -68.604388561662645 $402 68.604388561662645 $399 $453 forward 7 unknown #
coedge $-1 $454 $333 $452 $455 forward $204 $-1 #
vertex $-1 $400 $456 #
coedge $-1 $339 $454 $443 $457 reversed $204 $-1 #
edge $-1 $445 -26.503209290030153 $405 -6.0596228894371187 $339 $458 forward 7 unknown #
vertex $-1 $404 $459 #
straight-curve $-1 -68.604388561662645 -22.341038979170754 6.108776136704904 0 0 1 I I #
loop $-1 $-1 $451 $342 #
plane-surface $-1 0 42.784625379763789 0 0 -1 0 0 0 -1 forward_v I I I I #
coedge $-1 $344 $447 $451 $460 reversed $325 $-1 #
vertex $-1 $345 $461 #
straight-curve $-1 68.604388561662645 0 17.28006868917911 0 1 0 I I #
point $-1 68.604388561662645 -22.341038979170754 17.28006868917911 #
face $-1 $462 $463 $15 $-1 $464 reversed single #
loop $-1 $-1 $465 $349 #
plane-surface $-1 0 -22.341038979170754 12.217552273409808 0 -1 0 0 0 -1 forward_v I I I I #
coedge $-1 $466 $467 $468 $469 reversed $350 $-1 #
coedge $-1 $352 $470 $471 $472 forward $283 $-1 #
coedge $-1 $471 $361 $353 $419 forward $363 $-1 #
edge $-1 $473 -53.873399572938929 $421 -38.426332650985593 $418 $474 forward 7 unknown #
edge $-1 $473 -3.5527045195756588e-014 $422 25.667466135176863 $354 $475 forward 7 unknown #
vertex $-1 $419 $476 #
vertex $-1 $357 $477 #
straight-curve $-1 -75.589346494089284 11.96241940192008 17.28006868917911 1 0 0 I I #
straight-curve $-1 -48.105438800537122 2.9936913367666911 17.28006868917911 0 -1 0 I I #
edge $-1 $359 -2.9813453916200068 $473 8.9687280651533889 $361 $478 forward 7 unknown #
point $-1 -68.604388561662645 0.012345945146684301 1.8330017672257739 #
coedge $-1 $362 $479 $480 $481 forward $363 $-1 #
face $-1 $482 $363 $15 $-1 $483 reversed single #
coedge $-1 $470 $365 $484 $485 forward $283 $-1 #
coedge $-1 $480 $465 $365 $431 reversed $414 $-1 #
edge $-1 $432 -68.604388561662645 $486 68.604388561662645 $365 $487 forward 7 unknown #
vertex $-1 $481 $488 #
straight-curve $-1 -68.604388561662645 0 17.28006868917911 0 -1 0 I I #
vertex $-1 $374 $489 #
straight-curve $-1 0 42.784625379763789 -17.28006868917911 1 0 0 I I #
straight-curve $-1 -68.604388561662645 42.784625379763789 0 0 0 -1 I I #
straight-curve $-1 -68.604388561662645 0 -17.28006868917911 0 1 0 I I #
loop $-1 $-1 $393 $385 #
plane-surface $-1 0 -42.784625379763789 0 0 1 0 0 0 1 forward_v I I I I #
coedge $-1 $490 $491 $447 $492 forward $386 $-1 #
straight-curve $-1 68.604388561662645 -22.341038979170754 6.108776136704904 0 0 -1 I I #
straight-curve $-1 0 -22.341038979170754 7.155035857640506 1 0 0 I I #
coedge $-1 $493 $393 $403 $457 forward $438 $-1 #
coedge $-1 $393 $493 $395 $448 reversed $438 $-1 #
vertex $-1 $457 $494 #
straight-curve $-1 0 -42.784625379763789 7.155035857640506 -1 0 0 I I #
coedge $-1 $409 $395 $440 $492 reversed $325 $-1 #
edge $-1 $397 -7.155035857640506 $495 17.28006868917911 $395 $496 forward 7 unknown #
point $-1 68.604388561662645 -22.341038979170754 7.155035857640506 #
point $-1 68.604388561662645 -42.784625379763789 7.155035857640506 #
coedge $-1 $497 $399 $409 $460 forward $407 $-1 #
coedge $-1 $399 $497 $401 $455 reversed $407 $-1 #
straight-curve $-1 0 42.784625379763789 17.28006868917911 -1 0 0 I I #
coedge $-1 $403 $401 $498 $499 reversed $204 $-1 #
edge $-1 $402 -17.28006868917911 $500 17.28006868917911 $452 $501 forward 7 unknown #
point $-1 -68.604388561662645 42.784625379763789 17.28006868917911 #
edge $-1 $445 -7.155035857640506 $502 17.28006868917911 $403 $503 forward 7 unknown #
straight-curve $-1 -68.604388561662645 -16.281416089733636 7.155035857640506 0 1 0 I I #
point $-1 -68.604388561662645 -22.341038979170754 7.155035857640506 #
edge $-1 $410 -17.28006868917911 $504 17.28006868917911 $409 $505 forward 7 unknown #
point $-1 68.604388561662645 42.784625379763789 17.28006868917911 #
face $-1 $506 $507 $15 $-1 $508 reversed single #
loop $-1 $-1 $509 $413 #
plane-surface $-1 68.604388561662645 0 0 -1 0 0 0 0 1 forward_v I I I I #
coedge $-1 $430 $510 $509 $511 reversed $414 $-1 #
coedge $-1 $512 $416 $510 $513 reversed $350 $-1 #
coedge $-1 $416 $512 $514 $515 reversed $350 $-1 #
coedge $-1 $516 $509 $416 $469 forward $463 $-1 #
edge $-1 $517 6.0596228894371187 $518 26.503209290030153 $468 $519 forward 7 unknown #
coedge $-1 $417 $429 $520 $521 forward $283 $-1 #
coedge $-1 $522 $418 $417 $472 reversed $363 $-1 #
edge $-1 $523 -42.784625379763789 $421 -11.96241940192008 $471 $433 forward 7 unknown #
vertex $-1 $425 $524 #
straight-curve $-1 -68.604388561662645 11.96241940192008 55.706401340164703 0 0 1 I I #
straight-curve $-1 -68.604388561662617 11.96241940192008 1.8330017672257952 0.79863550430605224 0 0.6018150307709319 I I #
point $-1 -68.604388561662645 11.96241940192008 17.28006868917911 #
point $-1 -48.105438800537129 11.96241940192008 17.28006868917911 #
straight-curve $-1 -68.604388561662645 2.9936913367666911 1.8330017672257723 0 1 0 I I #
coedge $-1 $427 $525 $512 $526 forward $363 $-1 #
coedge $-1 $510 $430 $427 $481 reversed $414 $-1 #
edge $-1 $527 1.0462597209356019 $432 11.171292552474206 $427 $528 forward 7 unknown #
face $-1 $-1 $529 $15 $-1 $530 reversed single #
plane-surface $-1 -68.604388561662645 0 0 1 0 0 0 0 -1 forward_v I I I I #
coedge $-1 $509 $531 $429 $485 reversed $463 $-1 #
edge $-1 $486 -22.341038979170754 $532 42.784625379763789 $484 $533 forward 7 unknown #
vertex $-1 $485 $534 #
straight-curve $-1 0 -22.341038979170754 17.28006868917911 1 0 0 I I #
point $-1 -68.604388561662645 -22.341038979170754 17.28006868917911 #
point $-1 -68.604388561662645 42.784625379763789 -17.28006868917911 #
coedge $-1 $498 $440 $493 $535 forward $386 $-1 #
coedge $-1 $440 $498 $497 $536 forward $386 $-1 #
edge $-1 $504 -42.784625379763789 $495 42.784625379763789 $447 $537 forward 7 unknown #
coedge $-1 $444 $443 $490 $535 reversed $438 $-1 #
point $-1 -68.604388561662645 -42.784625379763789 7.155035857640506 #
vertex $-1 $448 $538 #
straight-curve $-1 68.604388561662645 -42.784625379763789 0 0 0 -1 I I #
coedge $-1 $452 $451 $491 $536 reversed $407 $-1 #
coedge $-1 $491 $490 $454 $499 forward $386 $-1 #
edge $-1 $502 -42.784625379763789 $500 42.784625379763789 $454 $539 forward 7 unknown #
vertex $-1 $536 $540 #
straight-curve $-1 -68.604388561662645 42.784625379763789 0 0 0 -1 I I #
vertex $-1 $499 $541 #
straight-curve $-1 -68.604388561662645 -42.784625379763789 0 0 0 -1 I I #
vertex $-1 $492 $542 #
straight-curve $-1 68.604388561662645 42.784625379763789 0 0 0 -1 I I #
face $-1 $428 $543 $15 $-1 $544 reversed single #
loop $-1 $-1 $545 $462 #
plane-surface $-1 0 0 -17.28006868917911 0 0 1 1 0 0 forward_v I I I I #
coedge $-1 $468 $484 $465 $511 forward $463 $-1 #
coedge $-1 $465 $480 $466 $513 forward $414 $-1 #
edge $-1 $486 -11.171292552474206 $517 -1.0462597209356019 $509 $546 forward 7 unknown #
coedge $-1 $467 $466 $479 $526 reversed $350 $-1 #
edge $-1 $527 -68.604388561662645 $517 68.604388561662645 $510 $547 forward 7 unknown #
coedge $-1 $548 $549 $467 $515 forward $543 $-1 #
edge $-1 $518 -68.604388561662645 $550 68.604388561662645 $514 $551 forward 7 unknown #
coedge $-1 $552 $468 $549 $553 forward $463 $-1 #
vertex $-1 $469 $554 #
vertex $-1 $553 $555 #
straight-curve $-1 68.604388561662645 -16.281416089733636 7.155035857640506 0 -1 0 I I #
coedge $-1 $556 $557 $470 $521 reversed $529 $-1 #
edge $-1 $532 -68.604388561662645 $523 68.604388561662645 $520 $558 forward 7 unknown #
coedge $-1 $559 $471 $557 $560 forward $363 $-1 #
vertex $-1 $521 $561 #
point $-1 -68.604388561662645 11.96241940192008 1.8330017672257739 #
coedge $-1 $479 $559 $548 $562 reversed $363 $-1 #
edge $-1 $550 -26.503209290030153 $527 -6.0596228894371187 $479 $563 forward 7 unknown #
vertex $-1 $526 $564 #
straight-curve $-1 -68.604388561662645 -22.341038979170754 6.108776136704904 0 0 1 I I #
loop $-1 $-1 $556 $482 #
plane-surface $-1 0 42.784625379763789 0 0 -1 0 0 0 -1 forward_v I I I I #
coedge $-1 $484 $552 $556 $565 reversed $463 $-1 #
vertex $-1 $485 $566 #
straight-curve $-1 68.604388561662645 0 17.28006868917911 0 1 0 I I #
point $-1 68.604388561662645 -22.341038979170754 17.28006868917911 #
edge $-1 $495 -68.604388561662645 $502 68.604388561662645 $493 $567 forward 7 unknown #
edge $-1 $500 -68.604388561662645 $504 68.604388561662645 $497 $568 forward 7 unknown #
straight-curve $-1 68.604388561662645 0 -17.28006868917911 0 -1 0 I I #
point $-1 68.604388561662645 -42.784625379763789 -17.28006868917911 #
straight-curve $-1 -68.604388561662645 0 -17.28006868917911 0 1 0 I I #
point $-1 -68.604388561662645 42.784625379763789 -17.28006868917911 #
point $-1 -68.604388561662645 -42.784625379763789 -17.28006868917911 #
point $-1 68.604388561662645 42.784625379763789 -17.28006868917911 #
loop $-1 $-1 $514 $506 #
plane-surface $-1 0 -42.784625379763789 0 0 1 0 0 0 1 forward_v I I I I #
coedge $-1 $569 $570 $552 $571 forward $507 $-1 #
straight-curve $-1 68.604388561662645 -22.341038979170754 6.108776136704904 0 0 -1 I I #
straight-curve $-1 0 -22.341038979170754 7.155035857640506 1 0 0 I I #
coedge $-1 $572 $514 $525 $562 forward $543 $-1 #
coedge $-1 $514 $572 $516 $553 reversed $543 $-1 #
vertex $-1 $562 $573 #
straight-curve $-1 0 -42.784625379763789 7.155035857640506 -1 0 0 I I #
coedge $-1 $531 $516 $545 $571 reversed $463 $-1 #
edge $-1 $518 -7.155035857640506 $574 17.28006868917911 $516 $575 forward 7 unknown #
point $-1 68.604388561662645 -22.341038979170754 7.155035857640506 #
point $-1 68.604388561662645 -42.784625379763789 7.155035857640506 #
coedge $-1 $576 $520 $531 $565 forward $529 $-1 #
coedge $-1 $520 $576 $522 $560 reversed $529 $-1 #
straight-curve $-1 0 42.784625379763789 17.28006868917911 -1 0 0 I I #
coedge $-1 $525 $522 $577 $578 reversed $363 $-1 #
edge $-1 $523 -17.28006868917911 $579 17.28006868917911 $557 $580 forward 7 unknown #
point $-1 -68.604388561662645 42.784625379763789 17.28006868917911 #
edge $-1 $550 -7.155035857640506 $581 17.28006868917911 $525 $582 forward 7 unknown #
straight-curve $-1 -68.604388561662645 -16.281416089733636 7.155035857640506 0 1 0 I I #
point $-1 -68.604388561662645 -22.341038979170754 7.155035857640506 #
edge $-1 $532 -17.28006868917911 $583 17.28006868917911 $531 $584 forward 7 unknown #
point $-1 68.604388561662645 42.784625379763789 17.28006868917911 #
straight-curve $-1 0 -42.784625379763789 -17.28006868917911 -1 0 0 I I #
straight-curve $-1 0 42.784625379763789 -17.28006868917911 1 0 0 I I #
coedge $-1 $577 $545 $572 $585 forward $507 $-1 #
coedge $-1 $545 $577 $576 $586 forward $507 $-1 #
edge $-1 $583 -42.784625379763789 $574 42.784625379763789 $552 $587 forward 7 unknown #
coedge $-1 $549 $548 $569 $585 reversed $543 $-1 #
point $-1 -68.604388561662645 -42.784625379763789 7.155035857640506 #
vertex $-1 $553 $588 #
straight-curve $-1 68.604388561662645 -42.784625379763789 0 0 0 -1 I I #
coedge $-1 $557 $556 $570 $586 reversed $529 $-1 #
coedge $-1 $570 $569 $559 $578 forward $507 $-1 #
edge $-1 $581 -42.784625379763789 $579 42.784625379763789 $559 $589 forward 7 unknown #
vertex $-1 $586 $590 #
straight-curve $-1 -68.604388561662645 42.784625379763789 0 0 0 -1 I I #
vertex $-1 $578 $591 #
straight-curve $-1 -68.604388561662645 -42.784625379763789 0 0 0 -1 I I #
vertex $-1 $571 $592 #
straight-curve $-1 68.604388561662645 42.784625379763789 0 0 0 -1 I I #
edge $-1 $574 -68.604388561662645 $581 68.604388561662645 $572 $593 forward 7 unknown #
edge $-1 $579 -68.604388561662645 $583 68.604388561662645 $576 $594 forward 7 unknown #
straight-curve $-1 68.604388561662645 0 -17.28006868917911 0 -1 0 I I #
point $-1 68.604388561662645 -42.784625379763789 -17.28006868917911 #
straight-curve $-1 -68.604388561662645 0 -17.28006868917911 0 1 0 I I #
point $-1 -68.604388561662645 42.784625379763789 -17.28006868917911 #
point $-1 -68.604388561662645 -42.784625379763789 -17.28006868917911 #
point $-1 68.604388561662645 42.784625379763789 -17.28006868917911 #
straight-curve $-1 0 -42.784625379763789 -17.28006868917911 -1 0 0 I I #
straight-curve $-1 0 42.784625379763789 -17.28006868917911 1 0 0 I I #
End-of-ACIS-data 