500 0 10 0           
7 Unknown 11 ACIS 5.0 NT 24 Fri Mar 26 19:48:38 1999 
-1 9.9999999999999995e-007 1e-010 
body $-1 $10 $-1 $11 #
body $-1 $12 $-1 $13 #
body $-1 $14 $-1 $15 #
body $-1 $16 $-1 $17 #
body $-1 $18 $-1 $19 #
body $-1 $20 $-1 $21 #
body $-1 $22 $-1 $23 #
body $-1 $24 $-1 $25 #
body $-1 $26 $-1 $27 #
body $-1 $28 $-1 $29 #
lump $-1 $-1 $30 $0 #
transform $-1 1 0 0 0 1 0 0 0 1 76.136356700338752 46.761111413535183 13.275549029070479 1 rotate no_reflect no_shear #
lump $-1 $-1 $31 $1 #
transform $-1 1 0 0 0 1 0 0 0 1 76.136356700338752 46.761111413535183 13.275549029070479 1 rotate no_reflect no_shear #
lump $-1 $-1 $32 $2 #
transform $-1 1 0 0 0 1 0 0 0 1 76.136356700338752 46.761111413535183 13.275549029070479 1 rotate no_reflect no_shear #
lump $-1 $-1 $33 $3 #
transform $-1 1 0 0 0 1 0 0 0 1 76.136356700338752 46.761111413535183 13.275549029070479 1 rotate no_reflect no_shear #
lump $-1 $-1 $34 $4 #
transform $-1 1 0 0 0 1 0 0 0 1 76.136356700338752 46.761111413535183 13.275549029070479 1 rotate no_reflect no_shear #
lump $-1 $-1 $35 $5 #
transform $-1 1 0 0 0 1 0 0 0 1 76.136356700338752 46.761111413535183 13.275549029070479 1 rotate no_reflect no_shear #
lump $-1 $-1 $36 $6 #
transform $-1 1 0 0 0 1 0 0 0 1 76.136356700338752 46.761111413535183 13.275549029070479 1 rotate no_reflect no_shear #
lump $-1 $-1 $37 $7 #
transform $-1 1 0 0 0 1 0 0 0 1 76.136356700338752 46.761111413535183 13.275549029070479 1 rotate no_reflect no_shear #
lump $-1 $-1 $38 $8 #
transform $-1 1 0 0 0 1 0 0 0 1 76.136356700338752 46.761111413535183 13.275549029070479 1 rotate no_reflect no_shear #
lump $-1 $-1 $39 $9 #
transform $-1 1 0 0 0 1 0 0 0 1 76.136356700338752 46.761111413535183 13.275549029070479 1 rotate no_reflect no_shear #
shell $-1 $-1 $-1 $40 $-1 $10 #
shell $-1 $-1 $-1 $41 $-1 $12 #
shell $-1 $-1 $-1 $42 $-1 $14 #
shell $-1 $-1 $-1 $43 $-1 $16 #
shell $-1 $-1 $-1 $44 $-1 $18 #
shell $-1 $-1 $-1 $45 $-1 $20 #
shell $-1 $-1 $-1 $46 $-1 $22 #
shell $-1 $-1 $-1 $47 $-1 $24 #
shell $-1 $-1 $-1 $48 $-1 $26 #
shell $-1 $-1 $-1 $49 $-1 $28 #
face $-1 $50 $51 $30 $-1 $52 forward single #
face $-1 $53 $54 $31 $-1 $55 forward single #
face $-1 $56 $57 $32 $-1 $58 reversed single #
face $-1 $59 $60 $33 $-1 $61 forward single #
face $-1 $62 $63 $34 $-1 $64 reversed single #
face $-1 $65 $66 $35 $-1 $67 forward single #
face $-1 $68 $69 $36 $-1 $70 reversed single #
face $-1 $71 $72 $37 $-1 $73 forward single #
face $-1 $74 $75 $38 $-1 $76 reversed single #
face $-1 $77 $78 $39 $-1 $79 forward single #
face $-1 $80 $81 $30 $-1 $82 reversed single #
loop $-1 $-1 $83 $40 #
plane-surface $-1 0 0 13.275549029070479 0 0 1 1 0 0 forward_v I I I I #
face $-1 $84 $85 $31 $-1 $86 reversed single #
loop $-1 $-1 $87 $41 #
plane-surface $-1 -76.136356700338752 0 0 1 0 0 0 0 -1 forward_v I I I I #
face $-1 $88 $89 $32 $-1 $90 reversed single #
loop $-1 $-1 $91 $42 #
plane-surface $-1 -19.922975564385002 -171.495617123692 96.580725912719458 -1 0 0 0 -0.81915205242281985 0.57357642473473569 forward_v I I I I #
face $-1 $92 $93 $33 $-1 $94 forward single #
loop $-1 $95 $96 $43 #
cone-surface $-1 -27.220783139488169 -43.771797852711146 10.154105680037194 0 0.81915205242281985 -0.57357642473473569 1 0 0 1 I I 0 1 1 forward I I I I #
face $-1 $97 $98 $34 $-1 $99 reversed single #
loop $-1 $-1 $100 $44 #
plane-surface $-1 47.856719207849281 -171.495617123692 96.580725912719458 -1 0 0 0 -0.81915205242281985 0.57357642473473569 forward_v I I I I #
face $-1 $101 $102 $35 $-1 $103 forward single #
loop $-1 $104 $105 $45 #
cone-surface $-1 40.558911632746117 -43.771797852711146 10.154105680037194 0 0.81915205242281985 -0.57357642473473569 1 0 0 1 I I 0 1 1 forward I I I I #
face $-1 $106 $107 $36 $-1 $108 reversed single #
loop $-1 $-1 $109 $46 #
plane-surface $-1 -34.518590714591326 117.85347492129569 173.18964668865846 1 0 0 0 -0.81915205242281985 -0.57357642473473569 forward_v I I I I #
face $-1 $110 $111 $37 $-1 $112 forward single #
loop $-1 $113 $114 $47 #
cone-surface $-1 -27.220783139488169 43.771797852711138 10.154105680037194 0 -0.81915205242281985 -0.57357642473473569 1 0 0 1 I I 0 1 1 forward I I I I #
face $-1 $115 $116 $38 $-1 $117 reversed single #
loop $-1 $-1 $118 $48 #
plane-surface $-1 33.261104057642953 117.85347492129569 173.18964668865846 1 0 0 0 -0.81915205242281985 -0.57357642473473569 forward_v I I I I #
face $-1 $119 $120 $39 $-1 $121 forward single #
loop $-1 $122 $123 $49 #
cone-surface $-1 40.558911632746117 43.771797852711138 10.154105680037194 0 -0.81915205242281985 -0.57357642473473569 1 0 0 1 I I 0 1 1 forward I I I I #
face $-1 $124 $125 $30 $-1 $126 reversed single #
loop $-1 $-1 $127 $50 #
plane-surface $-1 0 0 -13.275549029070479 0 0 1 1 0 0 forward_v I I I I #
coedge $-1 $128 $129 $130 $131 forward $51 $-1 #
face $-1 $132 $133 $31 $-1 $134 forward single #
loop $-1 $-1 $135 $53 #
plane-surface $-1 0 46.761111413535183 0 0 -1 0 0 0 -1 forward_v I I I I #
coedge $-1 $136 $137 $138 $139 forward $54 $-1 #
face $-1 $140 $141 $32 $-1 $142 reversed single #
loop $-1 $-1 $143 $56 #
plane-surface $-1 -27.220783139488162 -46.761111413535204 9.240687375701782 0 -0.81915205242281985 0.57357642473473569 1 0 0 forward_v I I I I #
coedge $-1 $144 $145 $146 $147 reversed $57 $-1 #
face $-1 $-1 $148 $33 $-1 $149 forward single #
loop $-1 $150 $151 $59 #
cone-surface $-1 -27.220783139488169 -41.78552849570103 8.7633049453208933 0 0.81915205242281985 -0.57357642473473569 0.5 0 0 1 I I -0.70710678118654746 0.70710678118654746 0.5 forward I I I I #
loop $-1 $-1 $152 $43 #
coedge $-1 $96 $96 $153 $154 reversed $60 $-1 #
face $-1 $155 $156 $34 $-1 $157 reversed single #
loop $-1 $-1 $158 $62 #
plane-surface $-1 40.558911632746117 -46.761111413535204 9.240687375701782 0 -0.81915205242281985 0.57357642473473569 1 0 0 forward_v I I I I #
coedge $-1 $159 $160 $161 $162 reversed $63 $-1 #
face $-1 $-1 $163 $35 $-1 $164 forward single #
loop $-1 $165 $166 $65 #
cone-surface $-1 40.558911632746117 -41.78552849570103 8.7633049453208933 0 0.81915205242281985 -0.57357642473473569 0.5 0 0 1 I I -0.70710678118654746 0.70710678118654746 0.5 forward I I I I #
loop $-1 $-1 $167 $45 #
coedge $-1 $105 $105 $168 $169 reversed $66 $-1 #
face $-1 $170 $171 $36 $-1 $172 reversed single #
loop $-1 $-1 $173 $68 #
plane-surface $-1 -27.220783139488162 -6.8810307888611106 85.84960815164078 0 0.81915205242281985 0.57357642473473569 1 0 0 forward_v I I I I #
coedge $-1 $174 $175 $176 $177 reversed $69 $-1 #
face $-1 $-1 $178 $37 $-1 $179 forward single #
loop $-1 $180 $181 $71 #
cone-surface $-1 -27.220783139488169 41.785528495701023 8.7633049453208933 0 -0.81915205242281985 -0.57357642473473569 0.5 0 0 1 I I -0.70710678118654746 0.70710678118654746 0.5 forward I I I I #
loop $-1 $-1 $182 $47 #
coedge $-1 $114 $114 $183 $184 reversed $72 $-1 #
face $-1 $185 $186 $38 $-1 $187 reversed single #
loop $-1 $-1 $188 $74 #
plane-surface $-1 40.558911632746117 -6.8810307888611106 85.84960815164078 0 0.81915205242281985 0.57357642473473569 1 0 0 forward_v I I I I #
coedge $-1 $189 $190 $191 $192 reversed $75 $-1 #
face $-1 $-1 $193 $39 $-1 $194 forward single #
loop $-1 $195 $196 $77 #
cone-surface $-1 40.558911632746117 41.785528495701023 8.7633049453208933 0 -0.81915205242281985 -0.57357642473473569 0.5 0 0 1 I I -0.70710678118654746 0.70710678118654746 0.5 forward I I I I #
loop $-1 $-1 $197 $49 #
coedge $-1 $123 $123 $198 $199 reversed $78 $-1 #
face $-1 $200 $201 $30 $-1 $202 reversed single #
loop $-1 $-1 $203 $80 #
plane-surface $-1 0 -46.761111413535183 0 0 1 0 0 0 1 forward_v I I I I #
coedge $-1 $204 $205 $206 $207 forward $81 $-1 #
coedge $-1 $208 $83 $209 $210 forward $51 $-1 #
coedge $-1 $83 $208 $211 $212 forward $51 $-1 #
coedge $-1 $213 $214 $83 $131 reversed $215 $-1 #
edge $-1 $216 -46.761111413535183 $217 46.761111413535183 $130 $218 forward 7 unknown #
face $-1 $219 $220 $31 $-1 $221 reversed single #
loop $-1 $-1 $138 $84 #
plane-surface $-1 -82.805420946967715 0 -7.9195474709630567 0 0 1 1 0 0 forward_v I I I I #
coedge $-1 $222 $223 $137 $224 forward $85 $-1 #
coedge $-1 $225 $87 $226 $227 reversed $54 $-1 #
coedge $-1 $87 $225 $135 $224 reversed $54 $-1 #
coedge $-1 $228 $229 $87 $139 reversed $133 $-1 #
edge $-1 $230 -46.761111413535183 $231 46.761111413535183 $138 $232 forward 7 unknown #
face $-1 $233 $234 $32 $-1 $235 reversed single #
loop $-1 $-1 $236 $88 #
plane-surface $-1 -34.518590714591326 -171.495617123692 96.580725912719458 1 0 0 0 0.81915205242281985 -0.57357642473473569 forward_v I I I I #
coedge $-1 $237 $238 $239 $240 reversed $89 $-1 #
coedge $-1 $145 $91 $241 $242 reversed $57 $-1 #
coedge $-1 $91 $144 $237 $243 reversed $57 $-1 #
coedge $-1 $239 $244 $91 $147 forward $245 $-1 #
edge $-1 $246 38.986697148310817 $247 41.811937608361468 $146 $248 forward 7 unknown #
loop $-1 $-1 $153 $92 #
plane-surface $-1 -27.220783139488162 -46.761111413535204 9.240687375701782 0 -0.81915205242281985 0.57357642473473569 1 0 0 forward_v I I I I #
loop $-1 $-1 $249 $59 #
coedge $-1 $151 $151 $152 $250 reversed $93 $-1 #
coedge $-1 $152 $152 $151 $250 forward $95 $-1 #
coedge $-1 $153 $153 $96 $154 forward $148 $-1 #
edge $-1 $251 2.0407724041452895e-015 $251 6.2831853071796022 $153 $252 forward 7 unknown #
face $-1 $253 $254 $34 $-1 $255 reversed single #
loop $-1 $-1 $256 $97 #
plane-surface $-1 33.261104057642953 -171.495617123692 96.580725912719458 1 0 0 0 0.81915205242281985 -0.57357642473473569 forward_v I I I I #
coedge $-1 $257 $258 $259 $260 reversed $98 $-1 #
coedge $-1 $160 $100 $261 $262 reversed $63 $-1 #
coedge $-1 $100 $159 $257 $263 reversed $63 $-1 #
coedge $-1 $259 $264 $100 $162 forward $265 $-1 #
edge $-1 $266 38.986697148310817 $267 41.811937608361468 $161 $268 forward 7 unknown #
loop $-1 $-1 $168 $101 #
plane-surface $-1 40.558911632746117 -46.761111413535204 9.240687375701782 0 -0.81915205242281985 0.57357642473473569 1 0 0 forward_v I I I I #
loop $-1 $-1 $269 $65 #
coedge $-1 $166 $166 $167 $270 reversed $102 $-1 #
coedge $-1 $167 $167 $166 $270 forward $104 $-1 #
coedge $-1 $168 $168 $105 $169 forward $163 $-1 #
edge $-1 $271 2.0407724041452895e-015 $271 6.2831853071796022 $168 $272 forward 7 unknown #
face $-1 $273 $274 $36 $-1 $275 forward single #
loop $-1 $-1 $276 $106 #
plane-surface $-1 -19.922975564385002 117.85347492129569 173.18964668865846 -1 0 0 0 0.81915205242281985 0.57357642473473569 forward_v I I I I #
coedge $-1 $277 $278 $279 $280 reversed $107 $-1 #
coedge $-1 $175 $109 $281 $282 reversed $69 $-1 #
coedge $-1 $109 $174 $277 $283 reversed $69 $-1 #
coedge $-1 $279 $284 $109 $177 forward $274 $-1 #
edge $-1 $285 12.16562604711266 $286 14.990866507163304 $176 $287 forward 7 unknown #
loop $-1 $-1 $183 $110 #
plane-surface $-1 -27.220783139488162 -6.8810307888611106 85.84960815164078 0 0.81915205242281985 0.57357642473473569 1 0 0 forward_v I I I I #
loop $-1 $-1 $288 $71 #
coedge $-1 $181 $181 $182 $289 reversed $111 $-1 #
coedge $-1 $182 $182 $181 $289 forward $113 $-1 #
coedge $-1 $183 $183 $114 $184 forward $178 $-1 #
edge $-1 $290 -2.9585262081033812e-016 $290 6.2831853071796004 $183 $291 forward 7 unknown #
face $-1 $292 $293 $38 $-1 $294 forward single #
loop $-1 $-1 $295 $115 #
plane-surface $-1 47.856719207849281 117.85347492129569 173.18964668865846 -1 0 0 0 0.81915205242281985 0.57357642473473569 forward_v I I I I #
coedge $-1 $296 $297 $298 $299 reversed $116 $-1 #
coedge $-1 $190 $118 $300 $301 reversed $75 $-1 #
coedge $-1 $118 $189 $296 $302 reversed $75 $-1 #
coedge $-1 $298 $303 $118 $192 forward $293 $-1 #
edge $-1 $304 12.16562604711266 $305 14.990866507163304 $191 $306 forward 7 unknown #
loop $-1 $-1 $198 $119 #
plane-surface $-1 40.558911632746117 -6.8810307888611106 85.84960815164078 0 0.81915205242281985 0.57357642473473569 1 0 0 forward_v I I I I #
loop $-1 $-1 $307 $77 #
coedge $-1 $196 $196 $197 $308 reversed $120 $-1 #
coedge $-1 $197 $197 $196 $308 forward $122 $-1 #
coedge $-1 $198 $198 $123 $199 forward $193 $-1 #
edge $-1 $309 -2.9585262081033812e-016 $309 6.2831853071796004 $198 $310 forward 7 unknown #
face $-1 $311 $312 $30 $-1 $313 reversed single #
loop $-1 $-1 $314 $124 #
plane-surface $-1 -76.136356700338752 0 0 1 0 0 0 0 -1 forward_v I I I I #
coedge $-1 $315 $211 $316 $317 forward $125 $-1 #
coedge $-1 $318 $127 $315 $319 forward $81 $-1 #
coedge $-1 $127 $318 $320 $321 forward $81 $-1 #
coedge $-1 $214 $213 $127 $207 reversed $215 $-1 #
edge $-1 $322 -46.761111413535183 $323 46.761111413535183 $206 $324 forward 7 unknown #
coedge $-1 $129 $128 $325 $326 forward $51 $-1 #
coedge $-1 $327 $328 $128 $210 reversed $312 $-1 #
edge $-1 $217 -76.136356700338752 $329 76.136356700338752 $209 $330 forward 7 unknown #
coedge $-1 $203 $331 $129 $212 reversed $125 $-1 #
edge $-1 $332 -76.136356700338752 $216 76.136356700338752 $211 $333 forward 7 unknown #
coedge $-1 $206 $130 $331 $334 forward $215 $-1 #
coedge $-1 $130 $206 $327 $335 reversed $215 $-1 #
loop $-1 $-1 $213 $311 #
vertex $-1 $131 $336 #
vertex $-1 $131 $337 #
straight-curve $-1 76.136356700338752 0 13.275549029070479 0 1 0 I I #
face $-1 $338 $339 $31 $-1 $340 reversed single #
loop $-1 $-1 $341 $132 #
plane-surface $-1 -89.474485193596678 0 -10.597548250016768 1 0 0 0 0 -1 forward_v I I I I #
coedge $-1 $342 $135 $343 $344 reversed $85 $-1 #
coedge $-1 $135 $342 $228 $345 reversed $85 $-1 #
edge $-1 $230 7.9195474709630567 $346 13.275549029070479 $135 $347 forward 7 unknown #
coedge $-1 $137 $136 $348 $349 reversed $54 $-1 #
coedge $-1 $350 $351 $136 $227 forward $352 $-1 #
edge $-1 $353 -13.275549029070479 $231 -7.9195474709630567 $226 $354 forward 7 unknown #
coedge $-1 $355 $138 $223 $345 forward $133 $-1 #
coedge $-1 $138 $355 $350 $356 forward $133 $-1 #
vertex $-1 $224 $357 #
vertex $-1 $356 $358 #
straight-curve $-1 -76.136356700338752 0 -7.9195474709630567 0 -1 0 I I #
face $-1 $-1 $245 $32 $-1 $359 forward single #
loop $-1 $-1 $360 $140 #
plane-surface $-1 0 -46.761111413535183 0 0 1 0 0 0 1 forward_v I I I I #
coedge $-1 $361 $362 $363 $364 reversed $141 $-1 #
coedge $-1 $365 $143 $145 $243 forward $89 $-1 #
coedge $-1 $143 $365 $361 $366 forward $89 $-1 #
coedge $-1 $363 $146 $143 $240 forward $245 $-1 #
edge $-1 $247 6.3125839946409208 $367 20.908199144847245 $239 $368 forward 7 unknown #
coedge $-1 $369 $370 $144 $242 forward $234 $-1 #
edge $-1 $371 -39.049675580657919 $246 -35.014813927289254 $241 $372 forward 7 unknown #
edge $-1 $247 -4.9256565266908847 $371 -3.6963324824065977e-014 $145 $373 forward 7 unknown #
coedge $-1 $146 $363 $369 $374 forward $245 $-1 #
loop $-1 $-1 $363 $233 #
vertex $-1 $242 $375 #
vertex $-1 $147 $376 #
straight-curve $-1 -19.922975564385002 -85.747808561846 13.275549029070476 0 1 0 I I #
coedge $-1 $249 $249 $-1 $377 reversed $150 $-1 #
edge $-1 $378 0 $378 6.2831853071796004 $151 $379 forward 7 unknown #
vertex $-1 $154 $380 #
ellipse-curve $-1 -27.220783139488169 -45.348491183509864 11.258118202386136 0 -0.81915205242281985 0.57357642473473569 1 0 0 1 I I #
face $-1 $-1 $265 $34 $-1 $381 forward single #
loop $-1 $-1 $382 $155 #
plane-surface $-1 0 -46.761111413535183 0 0 1 0 0 0 1 forward_v I I I I #
coedge $-1 $383 $384 $385 $386 reversed $156 $-1 #
coedge $-1 $387 $158 $160 $263 forward $98 $-1 #
coedge $-1 $158 $387 $383 $388 forward $98 $-1 #
coedge $-1 $385 $161 $158 $260 forward $265 $-1 #
edge $-1 $267 -27.577263391476222 $389 -12.981648241269895 $259 $390 forward 7 unknown #
coedge $-1 $391 $392 $159 $262 forward $254 $-1 #
edge $-1 $393 -39.049675580657919 $266 -35.014813927289254 $261 $394 forward 7 unknown #
edge $-1 $267 -4.9256565266908847 $393 -3.6963324824065977e-014 $160 $395 forward 7 unknown #
coedge $-1 $161 $385 $391 $396 forward $265 $-1 #
loop $-1 $-1 $385 $253 #
vertex $-1 $262 $397 #
vertex $-1 $162 $398 #
straight-curve $-1 47.856719207849281 -85.747808561846 13.275549029070476 0 1 0 I I #
coedge $-1 $269 $269 $-1 $399 reversed $165 $-1 #
edge $-1 $400 0 $400 6.2831853071796004 $166 $401 forward 7 unknown #
vertex $-1 $169 $402 #
ellipse-curve $-1 40.558911632746117 -45.348491183509864 11.258118202386136 0 -0.81915205242281985 0.57357642473473569 1 0 0 1 I I #
face $-1 $-1 $403 $36 $-1 $404 reversed single #
loop $-1 $-1 $176 $170 #
plane-surface $-1 0 0 13.275549029070479 0 0 1 1 0 0 forward_v I I I I #
coedge $-1 $405 $406 $407 $408 reversed $171 $-1 #
coedge $-1 $409 $173 $175 $283 forward $107 $-1 #
coedge $-1 $173 $409 $405 $410 forward $107 $-1 #
coedge $-1 $407 $176 $173 $280 forward $274 $-1 #
edge $-1 $286 -20.908199144847245 $411 -6.3125839946409208 $279 $412 forward 7 unknown #
coedge $-1 $413 $414 $174 $282 forward $403 $-1 #
edge $-1 $415 -77.354135968627418 $285 -73.319274315258752 $281 $416 forward 7 unknown #
edge $-1 $286 88.596566300379521 $415 93.522222827070365 $175 $417 forward 7 unknown #
coedge $-1 $176 $407 $413 $418 forward $274 $-1 #
vertex $-1 $282 $419 #
vertex $-1 $177 $420 #
straight-curve $-1 -34.518590714591326 58.926737460647843 13.275549029070476 0 -1 0 I I #
coedge $-1 $288 $288 $-1 $421 reversed $180 $-1 #
edge $-1 $422 0 $422 6.2831853071796004 $181 $423 forward 7 unknown #
vertex $-1 $184 $424 #
ellipse-curve $-1 -27.220783139488169 45.348491183509864 11.258118202386143 0 0.81915205242281985 0.57357642473473569 1 0 0 1 I I #
face $-1 $-1 $425 $38 $-1 $426 reversed single #
loop $-1 $-1 $191 $185 #
plane-surface $-1 0 0 13.275549029070479 0 0 1 1 0 0 forward_v I I I I #
coedge $-1 $427 $428 $429 $430 reversed $186 $-1 #
coedge $-1 $431 $188 $190 $302 forward $116 $-1 #
coedge $-1 $188 $431 $427 $432 forward $116 $-1 #
coedge $-1 $429 $191 $188 $299 forward $293 $-1 #
edge $-1 $305 12.981648241269895 $433 27.577263391476222 $298 $434 forward 7 unknown #
coedge $-1 $435 $436 $189 $301 forward $425 $-1 #
edge $-1 $437 -77.354135968627418 $304 -73.319274315258752 $300 $438 forward 7 unknown #
edge $-1 $305 88.596566300379521 $437 93.522222827070365 $190 $439 forward 7 unknown #
coedge $-1 $191 $429 $435 $440 forward $293 $-1 #
vertex $-1 $192 $441 #
vertex $-1 $192 $442 #
straight-curve $-1 33.261104057642953 58.926737460647843 13.275549029070476 0 -1 0 I I #
coedge $-1 $307 $307 $-1 $443 reversed $195 $-1 #
edge $-1 $444 0 $444 6.2831853071796004 $196 $445 forward 7 unknown #
vertex $-1 $199 $446 #
ellipse-curve $-1 40.558911632746117 45.348491183509864 11.258118202386143 0 0.81915205242281985 0.57357642473473569 1 0 0 1 I I #
face $-1 $-1 $215 $30 $-1 $447 reversed single #
loop $-1 $-1 $327 $200 #
plane-surface $-1 0 46.761111413535183 0 0 -1 0 0 0 -1 forward_v I I I I #
coedge $-1 $448 $325 $328 $449 forward $201 $-1 #
coedge $-1 $331 $203 $204 $319 reversed $125 $-1 #
coedge $-1 $325 $448 $203 $317 reversed $201 $-1 #
edge $-1 $332 -13.275549029070479 $450 13.275549029070479 $316 $451 forward 7 unknown #
coedge $-1 $205 $204 $448 $452 forward $81 $-1 #
edge $-1 $323 -76.136356700338752 $450 76.136356700338752 $315 $453 forward 7 unknown #
coedge $-1 $328 $327 $205 $321 reversed $312 $-1 #
edge $-1 $454 -76.136356700338752 $322 76.136356700338752 $320 $455 forward 7 unknown #
vertex $-1 $207 $456 #
vertex $-1 $334 $457 #
straight-curve $-1 76.136356700338752 0 -13.275549029070479 0 -1 0 I I #
coedge $-1 $314 $316 $208 $326 reversed $201 $-1 #
edge $-1 $329 -46.761111413535183 $332 46.761111413535183 $325 $458 forward 7 unknown #
coedge $-1 $320 $209 $214 $335 forward $312 $-1 #
coedge $-1 $209 $320 $314 $449 reversed $312 $-1 #
vertex $-1 $210 $459 #
straight-curve $-1 0 46.761111413535183 13.275549029070479 -1 0 0 I I #
coedge $-1 $211 $315 $213 $334 reversed $125 $-1 #
vertex $-1 $326 $460 #
straight-curve $-1 0 -46.761111413535183 13.275549029070479 1 0 0 I I #
edge $-1 $216 -13.275549029070479 $323 13.275549029070479 $213 $461 forward 7 unknown #
edge $-1 $217 -13.275549029070479 $322 13.275549029070479 $214 $462 forward 7 unknown #
point $-1 76.136356700338752 -46.761111413535183 13.275549029070479 #
point $-1 76.136356700338752 46.761111413535183 13.275549029070479 #
face $-1 $-1 $352 $31 $-1 $463 reversed single #
loop $-1 $-1 $348 $219 #
plane-surface $-1 0 0 -13.275549029070479 0 0 1 1 0 0 forward_v I I I I #
coedge $-1 $464 $465 $342 $466 forward $220 $-1 #
coedge $-1 $223 $222 $341 $466 reversed $85 $-1 #
coedge $-1 $348 $467 $222 $344 forward $339 $-1 #
edge $-1 $468 -89.474485193596678 $346 -76.136356700338752 $222 $469 forward 7 unknown #
edge $-1 $230 -6.6690642466289631 $470 6.6690642466289631 $223 $471 forward 7 unknown #
vertex $-1 $224 $472 #
straight-curve $-1 -76.136356700338752 46.761111413535183 0 0 0 -1 I I #
coedge $-1 $473 $343 $225 $349 forward $339 $-1 #
edge $-1 $346 -46.761111413535183 $353 46.761111413535183 $348 $474 forward 7 unknown #
coedge $-1 $475 $226 $229 $356 reversed $352 $-1 #
coedge $-1 $226 $475 $473 $476 reversed $352 $-1 #
loop $-1 $-1 $226 $338 #
vertex $-1 $476 $477 #
straight-curve $-1 -76.136356700338752 -46.761111413535183 0 0 0 1 I I #
coedge $-1 $229 $228 $465 $478 forward $133 $-1 #
edge $-1 $479 -6.6690642466289631 $231 6.6690642466289631 $350 $480 forward 7 unknown #
point $-1 -76.136356700338752 46.761111413535183 -7.9195474709630567 #
point $-1 -76.136356700338752 -46.761111413535183 -7.9195474709630567 #
plane-surface $-1 0 0 13.275549029070479 0 0 1 1 0 0 forward_v I I I I #
coedge $-1 $370 $369 $362 $481 forward $234 $-1 #
coedge $-1 $362 $236 $238 $366 reversed $141 $-1 #
coedge $-1 $236 $361 $360 $481 reversed $141 $-1 #
coedge $-1 $244 $239 $236 $364 forward $245 $-1 #
edge $-1 $367 -41.811937608361468 $482 -38.986697148310817 $363 $483 forward 7 unknown #
coedge $-1 $238 $237 $370 $484 reversed $89 $-1 #
edge $-1 $485 3.6963324824065977e-014 $367 4.9256565266908847 $361 $486 forward 7 unknown #
vertex $-1 $240 $487 #
straight-curve $-1 -13.610391569744081 -43.935870953484532 13.275549029070479 -1 0 0 I I #
coedge $-1 $360 $241 $244 $374 reversed $234 $-1 #
coedge $-1 $241 $360 $365 $484 forward $234 $-1 #
vertex $-1 $242 $488 #
straight-curve $-1 -19.922975564385002 -46.761111413535183 48.290362956359729 0 0 1 I I #
straight-curve $-1 -19.922975564385002 -46.761111413535204 9.240687375701782 0 -0.57357642473473569 -0.81915205242281985 I I #
edge $-1 $482 -34.518590714591326 $246 -19.922975564385002 $369 $489 forward 7 unknown #
point $-1 -19.922975564385002 -46.761111413535183 13.275549029070479 #
point $-1 -19.922975564385002 -43.935870953484532 13.275549029070479 #
edge $-1 $490 1 $490 0 $249 $-1 forward 7 unknown #
vertex $-1 $250 $491 #
ellipse-curve $-1 -27.220783139488169 -42.195104521912441 9.0500931576882611 0 -0.81915205242281985 0.57357642473473569 1 0 0 1 I I #
point $-1 -26.220783139488169 -45.348491183509843 11.258118202386123 #
plane-surface $-1 0 0 13.275549029070479 0 0 1 1 0 0 forward_v I I I I #
coedge $-1 $392 $391 $384 $492 forward $254 $-1 #
coedge $-1 $384 $256 $258 $388 reversed $156 $-1 #
coedge $-1 $256 $383 $382 $492 reversed $156 $-1 #
coedge $-1 $264 $259 $256 $386 forward $265 $-1 #
edge $-1 $389 -41.811937608361468 $493 -38.986697148310817 $385 $494 forward 7 unknown #
coedge $-1 $258 $257 $392 $495 reversed $98 $-1 #
edge $-1 $496 3.6963324824065977e-014 $389 4.9256565266908847 $383 $497 forward 7 unknown #
vertex $-1 $260 $498 #
straight-curve $-1 20.279455816373058 -43.935870953484532 13.275549029070479 -1 0 0 I I #
coedge $-1 $382 $261 $264 $396 reversed $254 $-1 #
coedge $-1 $261 $382 $387 $495 forward $254 $-1 #
vertex $-1 $262 $499 #
straight-curve $-1 47.856719207849281 -46.761111413535183 48.290362956359729 0 0 1 I I #
straight-curve $-1 47.856719207849281 -46.761111413535204 9.240687375701782 0 -0.57357642473473569 -0.81915205242281985 I I #
edge $-1 $493 33.261104057642953 $266 47.856719207849281 $391 $500 forward 7 unknown #
point $-1 47.856719207849281 -46.761111413535183 13.275549029070479 #
point $-1 47.856719207849281 -43.935870953484532 13.275549029070479 #
edge $-1 $501 1 $501 0 $269 $-1 forward 7 unknown #
vertex $-1 $270 $502 #
ellipse-curve $-1 40.558911632746117 -42.195104521912441 9.0500931576882611 0 -0.81915205242281985 0.57357642473473569 1 0 0 1 I I #
point $-1 41.558911632746117 -45.348491183509843 11.258118202386123 #
loop $-1 $-1 $281 $273 #
plane-surface $-1 0 46.761111413535183 0 0 -1 0 0 0 -1 forward_v I I I I #
coedge $-1 $406 $276 $278 $410 reversed $171 $-1 #
coedge $-1 $276 $405 $503 $504 reversed $171 $-1 #
coedge $-1 $284 $279 $276 $408 forward $274 $-1 #
edge $-1 $411 -14.990866507163304 $505 -12.16562604711266 $407 $506 forward 7 unknown #
coedge $-1 $278 $277 $414 $507 reversed $107 $-1 #
edge $-1 $508 -93.522222827070365 $411 -88.596566300379521 $405 $509 forward 7 unknown #
vertex $-1 $280 $510 #
straight-curve $-1 -13.610391569744081 43.935870953484539 13.275549029070476 1 0 0 I I #
coedge $-1 $503 $281 $284 $418 reversed $403 $-1 #
coedge $-1 $281 $503 $409 $507 forward $403 $-1 #
vertex $-1 $282 $511 #
straight-curve $-1 -34.518590714591326 46.761111413535183 86.594823344329228 0 0 1 I I #
straight-curve $-1 -34.518590714591326 -6.8810307888611106 85.84960815164078 0 0.57357642473473569 -0.81915205242281985 I I #
edge $-1 $505 19.922975564385002 $285 34.518590714591326 $413 $512 forward 7 unknown #
point $-1 -34.518590714591326 46.761111413535183 13.275549029070479 #
point $-1 -34.518590714591326 43.935870953484539 13.275549029070476 #
edge $-1 $513 1 $513 0 $288 $-1 forward 7 unknown #
vertex $-1 $289 $514 #
ellipse-curve $-1 -27.220783139488169 42.195104521912434 9.0500931576882611 0 0.81915205242281985 0.57357642473473569 1 0 0 1 I I #
point $-1 -26.220783139488169 45.348491183509836 11.258118202386123 #
loop $-1 $-1 $300 $292 #
plane-surface $-1 0 46.761111413535183 0 0 -1 0 0 0 -1 forward_v I I I I #
coedge $-1 $428 $295 $297 $432 reversed $186 $-1 #
coedge $-1 $295 $427 $515 $516 reversed $186 $-1 #
coedge $-1 $303 $298 $295 $430 forward $293 $-1 #
edge $-1 $433 -14.990866507163304 $517 -12.16562604711266 $429 $518 forward 7 unknown #
coedge $-1 $297 $296 $436 $519 reversed $116 $-1 #
edge $-1 $520 -93.522222827070365 $433 -88.596566300379521 $427 $521 forward 7 unknown #
vertex $-1 $299 $522 #
straight-curve $-1 20.279455816373058 43.935870953484539 13.275549029070476 1 0 0 I I #
coedge $-1 $515 $300 $303 $440 reversed $425 $-1 #
coedge $-1 $300 $515 $431 $519 forward $425 $-1 #
vertex $-1 $301 $523 #
straight-curve $-1 33.261104057642953 46.761111413535183 86.594823344329228 0 0 1 I I #
straight-curve $-1 33.261104057642953 -6.8810307888611106 85.84960815164078 0 0.57357642473473569 -0.81915205242281985 I I #
edge $-1 $517 -47.856719207849281 $304 -33.261104057642953 $435 $524 forward 7 unknown #
point $-1 33.261104057642953 46.761111413535183 13.275549029070479 #
point $-1 33.261104057642953 43.935870953484539 13.275549029070476 #
edge $-1 $525 1 $525 0 $307 $-1 forward 7 unknown #
vertex $-1 $308 $526 #
ellipse-curve $-1 40.558911632746117 42.195104521912434 9.0500931576882611 0 0.81915205242281985 0.57357642473473569 1 0 0 1 I I #
point $-1 41.558911632746117 45.348491183509836 11.258118202386123 #
plane-surface $-1 76.136356700338752 0 0 -1 0 0 0 0 1 forward_v I I I I #
coedge $-1 $316 $314 $318 $452 reversed $201 $-1 #
edge $-1 $329 -13.275549029070479 $454 13.275549029070479 $328 $527 forward 7 unknown #
vertex $-1 $452 $528 #
straight-curve $-1 -76.136356700338752 -46.761111413535183 0 0 0 -1 I I #
edge $-1 $450 -46.761111413535183 $454 46.761111413535183 $448 $529 forward 7 unknown #
straight-curve $-1 0 -46.761111413535183 -13.275549029070479 -1 0 0 I I #
vertex $-1 $321 $530 #
straight-curve $-1 0 46.761111413535183 -13.275549029070479 1 0 0 I I #
point $-1 76.136356700338752 46.761111413535183 -13.275549029070479 #
point $-1 76.136356700338752 -46.761111413535183 -13.275549029070479 #
straight-curve $-1 -76.136356700338752 0 13.275549029070479 0 -1 0 I I #
point $-1 -76.136356700338752 46.761111413535183 13.275549029070479 #
point $-1 -76.136356700338752 -46.761111413535183 13.275549029070479 #
straight-curve $-1 76.136356700338752 -46.761111413535183 0 0 0 -1 I I #
straight-curve $-1 76.136356700338752 46.761111413535183 0 0 0 -1 I I #
plane-surface $-1 0 -46.761111413535183 0 0 1 0 0 0 1 forward_v I I I I #
coedge $-1 $531 $341 $467 $532 reversed $220 $-1 #
coedge $-1 $341 $531 $355 $478 reversed $220 $-1 #
edge $-1 $470 -2.6780007790537113 $468 2.6780007790537113 $342 $533 forward 7 unknown #
coedge $-1 $343 $473 $464 $532 forward $339 $-1 #
vertex $-1 $344 $534 #
straight-curve $-1 0 46.761111413535183 -13.275549029070479 1 0 0 I I #
vertex $-1 $345 $535 #
straight-curve $-1 -82.805420946967715 46.761111413535183 -7.9195474709630567 -1 0 0 I I #
point $-1 -76.136356700338752 46.761111413535183 -13.275549029070479 #
coedge $-1 $467 $348 $351 $476 forward $339 $-1 #
straight-curve $-1 -76.136356700338752 0 -13.275549029070479 0 -1 0 I I #
coedge $-1 $351 $350 $531 $536 forward $352 $-1 #
edge $-1 $353 -6.6690642466289631 $537 6.6690642466289631 $351 $538 forward 7 unknown #
point $-1 -76.136356700338752 -46.761111413535183 -13.275549029070479 #
edge $-1 $470 -46.761111413535183 $479 46.761111413535183 $465 $539 forward 7 unknown #
vertex $-1 $478 $540 #
straight-curve $-1 -82.805420946967715 -46.761111413535183 -7.9195474709630567 1 0 0 I I #
edge $-1 $482 35.014813927289254 $485 39.049675580657919 $360 $541 forward 7 unknown #
vertex $-1 $374 $542 #
straight-curve $-1 -34.518590714591326 -85.747808561846 13.275549029070476 0 -1 0 I I #
edge $-1 $485 -20.908199144847245 $371 -6.3125839946409208 $370 $543 forward 7 unknown #
vertex $-1 $484 $544 #
straight-curve $-1 -34.518590714591326 -46.761111413535204 9.240687375701782 0 0.57357642473473569 0.81915205242281985 I I #
point $-1 -34.518590714591326 -43.935870953484532 13.275549029070479 #
point $-1 -19.922975564385002 -46.761111413535183 9.2406873757018122 #
straight-curve $-1 0 -46.761111413535183 13.275549029070479 1 0 0 I I #
vertex $-1 $377 $545 #
point $-1 -26.220783139488169 -42.195104521912441 9.0500931576882611 #
edge $-1 $493 35.014813927289254 $496 39.049675580657919 $382 $546 forward 7 unknown #
vertex $-1 $396 $547 #
straight-curve $-1 33.261104057642953 -85.747808561846 13.275549029070476 0 -1 0 I I #
edge $-1 $496 12.981648241269895 $393 27.577263391476222 $392 $548 forward 7 unknown #
vertex $-1 $495 $549 #
straight-curve $-1 33.261104057642953 -46.761111413535204 9.240687375701782 0 0.57357642473473569 0.81915205242281985 I I #
point $-1 33.261104057642953 -43.935870953484532 13.275549029070479 #
point $-1 47.856719207849281 -46.761111413535183 9.2406873757018122 #
straight-curve $-1 0 -46.761111413535183 13.275549029070479 1 0 0 I I #
vertex $-1 $399 $550 #
point $-1 41.558911632746117 -42.195104521912441 9.0500931576882611 #
coedge $-1 $414 $413 $406 $504 forward $403 $-1 #
edge $-1 $505 73.319274315258752 $508 77.354135968627418 $503 $551 forward 7 unknown #
vertex $-1 $418 $552 #
straight-curve $-1 -19.922975564385002 58.926737460647843 13.275549029070476 0 1 0 I I #
edge $-1 $508 6.3125839946409208 $415 20.908199144847245 $414 $553 forward 7 unknown #
vertex $-1 $507 $554 #
straight-curve $-1 -19.922975564385002 -6.8810307888611106 85.84960815164078 0 -0.57357642473473569 0.81915205242281985 I I #
point $-1 -19.922975564385002 43.935870953484539 13.275549029070476 #
point $-1 -34.518590714591326 46.76111141353519 9.2406873757018104 #
straight-curve $-1 0 46.761111413535183 13.275549029070479 -1 0 0 I I #
vertex $-1 $421 $555 #
point $-1 -26.220783139488169 42.195104521912434 9.0500931576882611 #
coedge $-1 $436 $435 $428 $516 forward $425 $-1 #
edge $-1 $517 73.319274315258752 $520 77.354135968627418 $515 $556 forward 7 unknown #
vertex $-1 $440 $557 #
straight-curve $-1 47.856719207849281 58.926737460647843 13.275549029070476 0 1 0 I I #
edge $-1 $520 -27.577263391476222 $437 -12.981648241269895 $436 $558 forward 7 unknown #
vertex $-1 $519 $559 #
straight-curve $-1 47.856719207849281 -6.8810307888611106 85.84960815164078 0 -0.57357642473473569 0.81915205242281985 I I #
point $-1 47.856719207849281 43.935870953484539 13.275549029070476 #
point $-1 33.261104057642953 46.76111141353519 9.2406873757018104 #
straight-curve $-1 0 46.761111413535183 13.275549029070479 -1 0 0 I I #
vertex $-1 $443 $560 #
point $-1 41.558911632746117 42.195104521912434 9.0500931576882611 #
straight-curve $-1 -76.136356700338752 46.761111413535183 0 0 0 -1 I I #
point $-1 -76.136356700338752 -46.761111413535183 -13.275549029070479 #
straight-curve $-1 -76.136356700338752 0 -13.275549029070479 0 1 0 I I #
point $-1 -76.136356700338752 46.761111413535183 -13.275549029070479 #
coedge $-1 $465 $464 $475 $536 reversed $220 $-1 #
edge $-1 $537 -46.761111413535183 $468 46.761111413535183 $464 $561 forward 7 unknown #
straight-curve $-1 -89.474485193596678 46.761111413535183 -10.597548250016768 0 0 -1 I I #
point $-1 -89.474485193596678 46.761111413535183 -13.275549029070479 #
point $-1 -89.474485193596678 46.761111413535183 -7.9195474709630567 #
edge $-1 $479 -2.6780007790537113 $537 2.6780007790537113 $531 $562 forward 7 unknown #
vertex $-1 $532 $563 #
straight-curve $-1 -82.805420946967715 -46.761111413535183 -13.275549029070479 -1 0 0 I I #
straight-curve $-1 -89.474485193596678 0 -7.9195474709630567 0 -1 0 I I #
point $-1 -89.474485193596678 -46.761111413535183 -7.9195474709630567 #
straight-curve $-1 -34.518590714591326 -46.761111413535183 48.290362956359729 0 0 -1 I I #
point $-1 -34.518590714591326 -46.761111413535183 13.275549029070479 #
straight-curve $-1 -13.610391569744081 -46.761111413535183 9.2406873757018104 1 0 0 I I #
point $-1 -34.518590714591326 -46.761111413535183 9.2406873757018122 #
point $-1 -27.220783139488169 -41.375952469489619 8.4765167329535256 #
straight-curve $-1 33.261104057642953 -46.761111413535183 48.290362956359729 0 0 -1 I I #
point $-1 33.261104057642953 -46.761111413535183 13.275549029070479 #
straight-curve $-1 20.279455816373058 -46.761111413535183 9.2406873757018104 1 0 0 I I #
point $-1 33.261104057642953 -46.761111413535183 9.2406873757018122 #
point $-1 40.558911632746117 -41.375952469489619 8.4765167329535256 #
straight-curve $-1 -19.922975564385002 46.761111413535183 86.594823344329228 0 0 -1 I I #
point $-1 -19.922975564385002 46.761111413535183 13.275549029070479 #
straight-curve $-1 -13.610391569744081 46.761111413535183 9.2406873757018104 -1 0 0 I I #
point $-1 -19.922975564385002 46.76111141353519 9.2406873757018104 #
point $-1 -27.220783139488169 41.375952469489611 8.4765167329535256 #
straight-curve $-1 47.856719207849281 46.761111413535183 86.594823344329228 0 0 -1 I I #
point $-1 47.856719207849281 46.761111413535183 13.275549029070479 #
straight-curve $-1 20.279455816373058 46.761111413535183 9.2406873757018104 -1 0 0 I I #
point $-1 47.856719207849281 46.76111141353519 9.2406873757018104 #
point $-1 40.558911632746117 41.375952469489611 8.4765167329535256 #
straight-curve $-1 -89.474485193596678 0 -13.275549029070479 0 1 0 I I #
straight-curve $-1 -89.474485193596678 -46.761111413535183 -10.597548250016768 0 0 -1 I I #
point $-1 -89.474485193596678 -46.761111413535183 -13.275549029070479 #
End-of-ACIS-data 