500 0 8 0           
7 Unknown 11 ACIS 5.0 NT 24 Fri Mar 26 02:01:21 1999 
-1 9.9999999999999995e-007 1e-010 
body $-1 $8 $-1 $9 #
body $-1 $10 $-1 $11 #
body $-1 $12 $-1 $13 #
body $-1 $14 $-1 $15 #
body $-1 $16 $-1 $17 #
body $-1 $18 $-1 $19 #
body $-1 $20 $-1 $21 #
body $-1 $22 $-1 $23 #
lump $-1 $-1 $24 $0 #
transform $-1 1 0 0 0 1 0 0 0 1 50.172429578539379 22.756206363424681 10.557012975606289 1 rotate no_reflect no_shear #
lump $-1 $-1 $25 $1 #
transform $-1 1 0 0 0 1 0 0 0 1 50.172429578539379 22.756206363424681 10.557012975606289 1 rotate no_reflect no_shear #
lump $-1 $-1 $26 $2 #
transform $-1 1 0 0 0 1 0 0 0 1 50.172429578539379 22.756206363424681 10.557012975606289 1 rotate no_reflect no_shear #
lump $-1 $-1 $27 $3 #
transform $-1 1 0 0 0 1 0 0 0 1 50.172429578539379 22.756206363424681 10.557012975606289 1 rotate no_reflect no_shear #
lump $-1 $-1 $28 $4 #
transform $-1 1 0 0 0 1 0 0 0 1 50.172429578539379 22.756206363424681 10.557012975606289 1 rotate no_reflect no_shear #
lump $-1 $-1 $29 $5 #
transform $-1 1 0 0 0 1 0 0 0 1 50.172429578539379 22.756206363424681 10.557012975606289 1 rotate no_reflect no_shear #
lump $-1 $-1 $30 $6 #
transform $-1 1 0 0 0 1 0 0 0 1 50.172429578539379 22.756206363424681 10.557012975606289 1 rotate no_reflect no_shear #
lump $-1 $-1 $31 $7 #
transform $-1 1 0 0 0 1 0 0 0 1 50.172429578539379 22.756206363424681 10.557012975606289 1 rotate no_reflect no_shear #
shell $-1 $-1 $-1 $32 $-1 $8 #
shell $-1 $-1 $-1 $33 $-1 $10 #
shell $-1 $-1 $-1 $34 $-1 $12 #
shell $-1 $-1 $-1 $35 $-1 $14 #
shell $-1 $-1 $-1 $36 $-1 $16 #
shell $-1 $-1 $-1 $37 $-1 $18 #
shell $-1 $-1 $-1 $38 $-1 $20 #
shell $-1 $-1 $-1 $39 $-1 $22 #
face $-1 $40 $41 $24 $-1 $42 forward single #
face $-1 $43 $44 $25 $-1 $45 forward single #
face $-1 $46 $47 $26 $-1 $48 reversed single #
face $-1 $49 $50 $27 $-1 $51 forward single #
face $-1 $52 $53 $28 $-1 $54 forward single #
face $-1 $55 $56 $29 $-1 $57 reversed single #
face $-1 $58 $59 $30 $-1 $60 forward single #
face $-1 $61 $62 $31 $-1 $63 forward single #
face $-1 $64 $65 $24 $-1 $66 reversed single #
loop $-1 $-1 $67 $32 #
plane-surface $-1 0 0 10.557012975606289 0 0 1 1 0 0 forward_v I I I I #
face $-1 $68 $69 $25 $-1 $70 reversed single #
loop $-1 $-1 $71 $33 #
plane-surface $-1 -50.172429578539379 0 0 1 0 0 0 0 -1 forward_v I I I I #
face $-1 $72 $73 $26 $-1 $74 reversed single #
loop $-1 $-1 $75 $34 #
plane-surface $-1 42.745484720102738 -7.0981104933277201 144.58521570544488 0 -1 0 -0.66913061440640931 0 -0.74314481823134659 forward_v I I I I #
face $-1 $76 $77 $27 $-1 $78 forward single #
loop $-1 $79 $80 $35 #
cone-surface $-1 45.257285175014481 -13.533832719291615 5.9954233551205647 -0.66913061440640931 0 -0.74314481823134659 0.74314481823134659 0 -0.66913061440640931 1 I I 0 1 1 forward I I I I #
face $-1 $81 $82 $28 $-1 $83 forward single #
loop $-1 $84 $85 $36 #
cone-surface $-1 45.257285175014481 -9.6723993837132767 5.9954233551205647 -0.66913061440640931 0 -0.74314481823134659 0.74314481823134659 0 -0.66913061440640931 1 I I 0 1 1 forward I I I I #
face $-1 $86 $87 $29 $-1 $88 reversed single #
loop $-1 $-1 $89 $37 #
plane-surface $-1 42.745484720102738 16.108121609677173 144.58521570544488 0 -1 0 -0.66913061440640931 0 -0.74314481823134659 forward_v I I I I #
face $-1 $90 $91 $30 $-1 $92 forward single #
loop $-1 $93 $94 $38 #
cone-surface $-1 45.257285175014481 9.6723993837132767 5.9954233551205647 -0.66913061440640931 0 -0.74314481823134659 0.74314481823134659 0 -0.66913061440640931 1 I I 0 1 1 forward I I I I #
face $-1 $95 $96 $31 $-1 $97 forward single #
loop $-1 $98 $99 $39 #
cone-surface $-1 45.257285175014481 13.533832719291617 5.9954233551205647 -0.66913061440640931 0 -0.74314481823134659 0.74314481823134659 0 -0.66913061440640931 1 I I 0 1 1 forward I I I I #
face $-1 $100 $101 $24 $-1 $102 reversed single #
loop $-1 $-1 $103 $40 #
plane-surface $-1 0 0 -10.557012975606289 0 0 1 1 0 0 forward_v I I I I #
coedge $-1 $104 $105 $106 $107 forward $41 $-1 #
face $-1 $108 $109 $25 $-1 $110 reversed single #
loop $-1 $-1 $111 $43 #
plane-surface $-1 0 22.756206363424681 0 0 -1 0 0 0 -1 forward_v I I I I #
coedge $-1 $112 $113 $114 $115 forward $44 $-1 #
face $-1 $116 $117 $26 $-1 $118 reversed single #
loop $-1 $-1 $119 $46 #
plane-surface $-1 -24.398332540197984 -11.603116051502447 70.014453586707518 0.66913061440640931 0 0.74314481823134659 0.74314481823134659 0 -0.66913061440640931 forward_v I I I I #
coedge $-1 $120 $121 $122 $123 reversed $47 $-1 #
face $-1 $-1 $124 $27 $-1 $125 forward single #
loop $-1 $126 $127 $49 #
cone-surface $-1 44.275868421479984 -13.533832719291615 4.9054496501189053 -0.66913061440640931 0 -0.74314481823134659 0.3715724091156733 0 -0.33456530720320465 1 I I -0.70710678118654746 0.70710678118654746 0.5 forward I I I I #
loop $-1 $-1 $128 $35 #
coedge $-1 $80 $80 $129 $130 reversed $50 $-1 #
face $-1 $-1 $131 $28 $-1 $132 forward single #
loop $-1 $133 $134 $52 #
cone-surface $-1 44.275868421479984 -9.6723993837132767 4.9054496501189053 -0.66913061440640931 0 -0.74314481823134659 0.3715724091156733 0 -0.33456530720320465 1 I I -0.70710678118654746 0.70710678118654746 0.5 forward I I I I #
loop $-1 $-1 $135 $36 #
coedge $-1 $85 $85 $136 $137 reversed $53 $-1 #
face $-1 $138 $139 $29 $-1 $140 reversed single #
loop $-1 $-1 $141 $55 #
plane-surface $-1 -24.398332540197984 11.603116051502447 70.014453586707518 0.66913061440640931 0 0.74314481823134659 0.74314481823134659 0 -0.66913061440640931 forward_v I I I I #
coedge $-1 $142 $143 $144 $145 reversed $56 $-1 #
face $-1 $-1 $146 $30 $-1 $147 forward single #
loop $-1 $148 $149 $58 #
cone-surface $-1 44.275868421479984 9.6723993837132767 4.9054496501189053 -0.66913061440640931 0 -0.74314481823134659 0.3715724091156733 0 -0.33456530720320465 1 I I -0.70710678118654746 0.70710678118654746 0.5 forward I I I I #
loop $-1 $-1 $150 $38 #
coedge $-1 $94 $94 $151 $152 reversed $59 $-1 #
face $-1 $-1 $153 $31 $-1 $154 forward single #
loop $-1 $155 $156 $61 #
cone-surface $-1 44.275868421479984 13.533832719291617 4.9054496501189053 -0.66913061440640931 0 -0.74314481823134659 0.3715724091156733 0 -0.33456530720320465 1 I I -0.70710678118654746 0.70710678118654746 0.5 forward I I I I #
loop $-1 $-1 $157 $39 #
coedge $-1 $99 $99 $158 $159 reversed $62 $-1 #
face $-1 $160 $161 $24 $-1 $162 reversed single #
loop $-1 $-1 $163 $64 #
plane-surface $-1 0 -22.756206363424681 0 0 1 0 0 0 1 forward_v I I I I #
coedge $-1 $164 $165 $166 $167 forward $65 $-1 #
coedge $-1 $168 $67 $169 $170 forward $41 $-1 #
coedge $-1 $67 $168 $171 $172 forward $41 $-1 #
coedge $-1 $173 $174 $67 $107 reversed $175 $-1 #
edge $-1 $176 -22.756206363424681 $177 22.756206363424681 $106 $178 forward 7 unknown #
face $-1 $179 $180 $25 $-1 $181 reversed single #
loop $-1 $-1 $114 $68 #
plane-surface $-1 -54.77590840723515 0 6.656585396478361 0 0 1 1 0 0 forward_v I I I I #
coedge $-1 $182 $183 $112 $184 forward $69 $-1 #
coedge $-1 $185 $71 $111 $184 reversed $44 $-1 #
coedge $-1 $71 $185 $186 $187 reversed $44 $-1 #
coedge $-1 $188 $189 $71 $115 reversed $109 $-1 #
edge $-1 $190 -22.756206363424681 $191 22.756206363424681 $114 $192 forward 7 unknown #
face $-1 $193 $194 $26 $-1 $195 forward single #
loop $-1 $-1 $196 $72 #
plane-surface $-1 42.745484720102738 -16.108121609677173 144.58521570544488 0 1 0 0.66913061440640931 0 0.74314481823134659 forward_v I I I I #
coedge $-1 $197 $198 $199 $200 reversed $73 $-1 #
coedge $-1 $121 $75 $201 $202 reversed $47 $-1 #
coedge $-1 $75 $120 $197 $203 reversed $47 $-1 #
coedge $-1 $199 $204 $75 $123 forward $194 $-1 #
edge $-1 $205 -28.79968721848801 $206 -20.263101304100793 $122 $207 forward 7 unknown #
loop $-1 $-1 $129 $76 #
plane-surface $-1 -24.398332540197984 -11.603116051502447 70.014453586707518 0.66913061440640931 0 0.74314481823134659 0.74314481823134659 0 -0.66913061440640931 forward_v I I I I #
loop $-1 $-1 $208 $49 #
coedge $-1 $127 $127 $128 $209 reversed $77 $-1 #
coedge $-1 $128 $128 $127 $209 forward $79 $-1 #
coedge $-1 $129 $129 $80 $130 forward $124 $-1 #
edge $-1 $210 0 $210 6.2831853071796004 $129 $211 forward 7 unknown #
loop $-1 $-1 $136 $81 #
plane-surface $-1 -24.398332540197984 -11.603116051502447 70.014453586707518 0.66913061440640931 0 0.74314481823134659 0.74314481823134659 0 -0.66913061440640931 forward_v I I I I #
loop $-1 $-1 $212 $52 #
coedge $-1 $134 $134 $135 $213 reversed $82 $-1 #
coedge $-1 $135 $135 $134 $213 forward $84 $-1 #
coedge $-1 $136 $136 $85 $137 forward $131 $-1 #
edge $-1 $214 0 $214 6.2831853071796004 $136 $215 forward 7 unknown #
face $-1 $216 $217 $29 $-1 $218 reversed single #
loop $-1 $-1 $219 $86 #
plane-surface $-1 42.745484720102738 7.0981104933277201 144.58521570544488 0 1 0 0.66913061440640931 0 0.74314481823134659 forward_v I I I I #
coedge $-1 $220 $221 $222 $223 reversed $87 $-1 #
coedge $-1 $143 $89 $224 $225 reversed $56 $-1 #
coedge $-1 $89 $142 $220 $226 reversed $56 $-1 #
coedge $-1 $222 $227 $89 $145 forward $228 $-1 #
edge $-1 $229 -28.79968721848801 $230 -20.263101304100793 $144 $231 forward 7 unknown #
loop $-1 $-1 $151 $90 #
plane-surface $-1 -24.398332540197984 11.603116051502447 70.014453586707518 0.66913061440640931 0 0.74314481823134659 0.74314481823134659 0 -0.66913061440640931 forward_v I I I I #
loop $-1 $-1 $232 $58 #
coedge $-1 $149 $149 $150 $233 reversed $91 $-1 #
coedge $-1 $150 $150 $149 $233 forward $93 $-1 #
coedge $-1 $151 $151 $94 $152 forward $146 $-1 #
edge $-1 $234 0 $234 6.2831853071796004 $151 $235 forward 7 unknown #
loop $-1 $-1 $158 $95 #
plane-surface $-1 -24.398332540197984 11.603116051502447 70.014453586707518 0.66913061440640931 0 0.74314481823134659 0.74314481823134659 0 -0.66913061440640931 forward_v I I I I #
loop $-1 $-1 $236 $61 #
coedge $-1 $156 $156 $157 $237 reversed $96 $-1 #
coedge $-1 $157 $157 $156 $237 forward $98 $-1 #
coedge $-1 $158 $158 $99 $159 forward $153 $-1 #
edge $-1 $238 0 $238 6.2831853071796004 $158 $239 forward 7 unknown #
face $-1 $240 $241 $24 $-1 $242 reversed single #
loop $-1 $-1 $243 $100 #
plane-surface $-1 -50.172429578539379 0 0 1 0 0 0 0 -1 forward_v I I I I #
coedge $-1 $244 $171 $245 $246 forward $101 $-1 #
coedge $-1 $247 $103 $244 $248 forward $65 $-1 #
coedge $-1 $103 $247 $249 $250 forward $65 $-1 #
coedge $-1 $174 $173 $103 $167 reversed $175 $-1 #
edge $-1 $251 -22.756206363424681 $252 22.756206363424681 $166 $253 forward 7 unknown #
coedge $-1 $105 $104 $254 $255 forward $41 $-1 #
coedge $-1 $256 $257 $104 $170 reversed $241 $-1 #
edge $-1 $177 -50.172429578539379 $258 50.172429578539379 $169 $259 forward 7 unknown #
coedge $-1 $163 $260 $105 $172 reversed $101 $-1 #
edge $-1 $261 -50.172429578539379 $176 50.172429578539379 $171 $262 forward 7 unknown #
coedge $-1 $166 $106 $260 $263 forward $175 $-1 #
coedge $-1 $106 $166 $256 $264 reversed $175 $-1 #
loop $-1 $-1 $173 $240 #
vertex $-1 $107 $265 #
vertex $-1 $107 $266 #
straight-curve $-1 50.172429578539379 0 10.557012975606289 0 1 0 I I #
face $-1 $267 $268 $25 $-1 $269 forward single #
loop $-1 $-1 $270 $108 #
plane-surface $-1 -59.37938723593092 0 8.6067991860423252 1 0 0 0 0 -1 forward_v I I I I #
coedge $-1 $271 $111 $189 $272 reversed $69 $-1 #
coedge $-1 $111 $271 $273 $274 reversed $69 $-1 #
edge $-1 $275 -10.557012975606289 $191 -6.656585396478361 $111 $276 forward 7 unknown #
coedge $-1 $113 $112 $277 $278 reversed $44 $-1 #
coedge $-1 $279 $280 $113 $187 forward $281 $-1 #
edge $-1 $190 6.656585396478361 $282 10.557012975606289 $186 $283 forward 7 unknown #
coedge $-1 $284 $114 $280 $285 forward $109 $-1 #
coedge $-1 $114 $284 $182 $272 forward $109 $-1 #
vertex $-1 $187 $286 #
vertex $-1 $184 $287 #
straight-curve $-1 -50.172429578539379 0 6.656585396478361 0 1 0 I I #
face $-1 $-1 $288 $26 $-1 $289 reversed single #
loop $-1 $-1 $122 $116 #
plane-surface $-1 0 0 10.557012975606289 0 0 1 1 0 0 forward_v I I I I #
coedge $-1 $290 $291 $292 $293 reversed $117 $-1 #
coedge $-1 $294 $119 $121 $203 forward $73 $-1 #
coedge $-1 $119 $294 $290 $295 forward $73 $-1 #
coedge $-1 $292 $122 $119 $200 forward $194 $-1 #
edge $-1 $206 1.2965524675764968 $296 10.30656358392595 $199 $297 forward 7 unknown #
coedge $-1 $298 $299 $120 $202 forward $288 $-1 #
edge $-1 $300 -69.42197152631563 $205 -61.735594877116149 $201 $301 forward 7 unknown #
edge $-1 $206 88.857749639577264 $300 100.34485915707874 $121 $302 forward 7 unknown #
coedge $-1 $122 $292 $298 $303 forward $194 $-1 #
vertex $-1 $202 $304 #
vertex $-1 $123 $305 #
straight-curve $-1 21.372742360051369 -7.0981104933277201 10.557012975606284 -1 0 0 I I #
coedge $-1 $208 $208 $-1 $306 reversed $126 $-1 #
edge $-1 $307 0 $307 6.2831853071796004 $127 $308 forward 7 unknown #
vertex $-1 $130 $309 #
ellipse-curve $-1 45.904136621345771 -13.533832719291615 6.7138246510065525 0.66913061440640931 0 0.74314481823134659 0.74314481823134659 0 -0.66913061440640931 1 I I #
coedge $-1 $212 $212 $-1 $310 reversed $133 $-1 #
edge $-1 $311 0 $311 6.2831853071796004 $134 $312 forward 7 unknown #
vertex $-1 $137 $313 #
ellipse-curve $-1 45.904136621345771 -9.6723993837132767 6.7138246510065525 0.66913061440640931 0 0.74314481823134659 0.74314481823134659 0 -0.66913061440640931 1 I I #
face $-1 $-1 $228 $29 $-1 $314 forward single #
loop $-1 $-1 $315 $138 #
plane-surface $-1 50.172429578539379 0 0 -1 0 0 0 0 1 forward_v I I I I #
coedge $-1 $316 $317 $318 $319 reversed $139 $-1 #
coedge $-1 $320 $141 $143 $226 forward $87 $-1 #
coedge $-1 $141 $320 $316 $321 forward $87 $-1 #
coedge $-1 $318 $144 $141 $223 forward $228 $-1 #
edge $-1 $230 -10.30656358392595 $322 -1.2965524675764968 $222 $323 forward 7 unknown #
coedge $-1 $324 $325 $142 $225 forward $217 $-1 #
edge $-1 $326 -69.42197152631563 $229 -61.735594877116149 $224 $327 forward 7 unknown #
edge $-1 $230 88.857749639577264 $326 100.34485915707874 $143 $328 forward 7 unknown #
coedge $-1 $144 $318 $324 $329 forward $228 $-1 #
loop $-1 $-1 $318 $216 #
vertex $-1 $225 $330 #
vertex $-1 $145 $331 #
straight-curve $-1 21.372742360051369 16.108121609677173 10.557012975606284 -1 0 0 I I #
coedge $-1 $232 $232 $-1 $332 reversed $148 $-1 #
edge $-1 $333 0 $333 6.2831853071796004 $149 $334 forward 7 unknown #
vertex $-1 $152 $335 #
ellipse-curve $-1 45.904136621345771 9.6723993837132767 6.7138246510065525 0.66913061440640931 0 0.74314481823134659 0.74314481823134659 0 -0.66913061440640931 1 I I #
coedge $-1 $236 $236 $-1 $336 reversed $155 $-1 #
edge $-1 $337 0 $337 6.2831853071796004 $156 $338 forward 7 unknown #
vertex $-1 $159 $339 #
ellipse-curve $-1 45.904136621345771 13.533832719291617 6.7138246510065525 0.66913061440640931 0 0.74314481823134659 0.74314481823134659 0 -0.66913061440640931 1 I I #
face $-1 $-1 $175 $24 $-1 $340 reversed single #
loop $-1 $-1 $256 $160 #
plane-surface $-1 0 22.756206363424681 0 0 -1 0 0 0 -1 forward_v I I I I #
coedge $-1 $341 $254 $257 $342 forward $161 $-1 #
coedge $-1 $260 $163 $164 $248 reversed $101 $-1 #
coedge $-1 $254 $341 $163 $246 reversed $161 $-1 #
edge $-1 $261 -10.557012975606289 $343 10.557012975606289 $245 $344 forward 7 unknown #
coedge $-1 $165 $164 $341 $345 forward $65 $-1 #
edge $-1 $252 -50.172429578539379 $343 50.172429578539379 $244 $346 forward 7 unknown #
coedge $-1 $257 $256 $165 $250 reversed $241 $-1 #
edge $-1 $347 -50.172429578539379 $251 50.172429578539379 $249 $348 forward 7 unknown #
vertex $-1 $167 $349 #
vertex $-1 $263 $350 #
straight-curve $-1 50.172429578539379 0 -10.557012975606289 0 -1 0 I I #
coedge $-1 $243 $245 $168 $255 reversed $161 $-1 #
edge $-1 $258 -22.756206363424681 $261 22.756206363424681 $254 $351 forward 7 unknown #
coedge $-1 $249 $169 $174 $264 forward $241 $-1 #
coedge $-1 $169 $249 $243 $342 reversed $241 $-1 #
vertex $-1 $170 $352 #
straight-curve $-1 0 22.756206363424681 10.557012975606289 -1 0 0 I I #
coedge $-1 $171 $244 $173 $263 reversed $101 $-1 #
vertex $-1 $255 $353 #
straight-curve $-1 0 -22.756206363424681 10.557012975606289 1 0 0 I I #
edge $-1 $176 -10.557012975606289 $252 10.557012975606289 $173 $354 forward 7 unknown #
edge $-1 $177 -10.557012975606289 $251 10.557012975606289 $174 $355 forward 7 unknown #
point $-1 50.172429578539379 -22.756206363424681 10.557012975606289 #
point $-1 50.172429578539379 22.756206363424681 10.557012975606289 #
face $-1 $-1 $281 $25 $-1 $356 reversed single #
loop $-1 $-1 $277 $179 #
plane-surface $-1 0 0 10.557012975606289 0 0 1 1 0 0 forward_v I I I I #
coedge $-1 $357 $358 $271 $359 forward $180 $-1 #
coedge $-1 $183 $182 $270 $359 reversed $69 $-1 #
edge $-1 $360 -4.6034788286957706 $191 4.6034788286957706 $182 $361 forward 7 unknown #
coedge $-1 $362 $277 $183 $274 forward $268 $-1 #
edge $-1 $275 50.172429578539379 $363 59.37938723593092 $183 $364 forward 7 unknown #
vertex $-1 $274 $365 #
straight-curve $-1 -50.172429578539379 22.756206363424681 0 0 0 -1 I I #
coedge $-1 $273 $366 $185 $278 forward $268 $-1 #
edge $-1 $282 -22.756206363424681 $275 22.756206363424681 $277 $367 forward 7 unknown #
coedge $-1 $368 $186 $366 $369 reversed $281 $-1 #
coedge $-1 $186 $368 $188 $285 reversed $281 $-1 #
loop $-1 $-1 $186 $267 #
vertex $-1 $187 $370 #
straight-curve $-1 -50.172429578539379 -22.756206363424681 0 0 0 1 I I #
coedge $-1 $189 $188 $357 $371 forward $109 $-1 #
edge $-1 $190 -4.6034788286957706 $372 4.6034788286957706 $280 $373 forward 7 unknown #
point $-1 -50.172429578539379 -22.756206363424681 6.656585396478361 #
point $-1 -50.172429578539379 22.756206363424681 6.656585396478361 #
loop $-1 $-1 $201 $193 #
plane-surface $-1 50.172429578539379 0 0 -1 0 0 0 0 1 forward_v I I I I #
coedge $-1 $291 $196 $198 $295 reversed $117 $-1 #
coedge $-1 $196 $290 $374 $375 reversed $117 $-1 #
coedge $-1 $204 $199 $196 $293 forward $194 $-1 #
edge $-1 $296 20.263101304100793 $376 28.79968721848801 $292 $377 forward 7 unknown #
coedge $-1 $198 $197 $299 $378 reversed $73 $-1 #
edge $-1 $379 -100.34485915707874 $296 -88.857749639577264 $290 $380 forward 7 unknown #
vertex $-1 $200 $381 #
straight-curve $-1 41.635843664152162 -5.8015580257512234 10.557012975606284 0 -1 0 I I #
coedge $-1 $374 $201 $204 $303 reversed $288 $-1 #
coedge $-1 $201 $374 $294 $378 forward $288 $-1 #
vertex $-1 $202 $382 #
straight-curve $-1 50.172429578539379 -7.0981104933277201 72.29260785272244 0 0 1 I I #
straight-curve $-1 -24.398332540197984 -7.0981104933277201 70.014453586707518 0.74314481823134659 0 -0.66913061440640931 I I #
edge $-1 $376 -16.108121609677173 $205 -7.0981104933277201 $298 $383 forward 7 unknown #
point $-1 50.172429578539379 -7.0981104933277201 10.557012975606289 #
point $-1 41.635843664152162 -7.0981104933277201 10.557012975606291 #
edge $-1 $384 1 $384 0 $208 $-1 forward 7 unknown #
vertex $-1 $209 $385 #
ellipse-curve $-1 44.610433728683191 -13.533832719291615 5.2770220592345787 0.66913061440640931 0 0.74314481823134659 0.74314481823134659 0 -0.66913061440640931 1 I I #
point $-1 46.647281439577114 -13.533832719291615 6.0446940366001431 #
edge $-1 $386 1 $386 0 $212 $-1 forward 7 unknown #
vertex $-1 $213 $387 #
ellipse-curve $-1 44.610433728683191 -9.6723993837132767 5.2770220592345787 0.66913061440640931 0 0.74314481823134659 0.74314481823134659 0 -0.66913061440640931 1 I I #
point $-1 46.647281439577114 -9.6723993837132767 6.0446940366001431 #
plane-surface $-1 0 0 10.557012975606289 0 0 1 1 0 0 forward_v I I I I #
coedge $-1 $325 $324 $317 $388 forward $217 $-1 #
coedge $-1 $317 $219 $221 $321 reversed $139 $-1 #
coedge $-1 $219 $316 $315 $388 reversed $139 $-1 #
coedge $-1 $227 $222 $219 $319 forward $228 $-1 #
edge $-1 $322 20.263101304100793 $389 28.79968721848801 $318 $390 forward 7 unknown #
coedge $-1 $221 $220 $325 $391 reversed $87 $-1 #
edge $-1 $392 -100.34485915707874 $322 -88.857749639577264 $316 $393 forward 7 unknown #
vertex $-1 $223 $394 #
straight-curve $-1 41.635843664152162 5.8015580257512234 10.557012975606284 0 -1 0 I I #
coedge $-1 $315 $224 $227 $329 reversed $217 $-1 #
coedge $-1 $224 $315 $320 $391 forward $217 $-1 #
vertex $-1 $225 $395 #
straight-curve $-1 50.172429578539379 16.108121609677173 72.29260785272244 0 0 1 I I #
straight-curve $-1 -24.398332540197984 16.108121609677173 70.014453586707518 0.74314481823134659 0 -0.66913061440640931 I I #
edge $-1 $389 7.0981104933277201 $229 16.108121609677173 $324 $396 forward 7 unknown #
point $-1 50.172429578539379 16.108121609677173 10.557012975606289 #
point $-1 41.635843664152162 16.108121609677173 10.557012975606291 #
edge $-1 $397 1 $397 0 $232 $-1 forward 7 unknown #
vertex $-1 $233 $398 #
ellipse-curve $-1 44.610433728683191 9.6723993837132767 5.2770220592345787 0.66913061440640931 0 0.74314481823134659 0.74314481823134659 0 -0.66913061440640931 1 I I #
point $-1 46.647281439577114 9.6723993837132767 6.0446940366001431 #
edge $-1 $399 1 $399 0 $236 $-1 forward 7 unknown #
vertex $-1 $237 $400 #
ellipse-curve $-1 44.610433728683191 13.533832719291617 5.2770220592345787 0.66913061440640931 0 0.74314481823134659 0.74314481823134659 0 -0.66913061440640931 1 I I #
point $-1 46.647281439577114 13.533832719291617 6.0446940366001431 #
plane-surface $-1 50.172429578539379 0 0 -1 0 0 0 0 1 forward_v I I I I #
coedge $-1 $245 $243 $247 $345 reversed $161 $-1 #
edge $-1 $258 -10.557012975606289 $347 10.557012975606289 $257 $401 forward 7 unknown #
vertex $-1 $345 $402 #
straight-curve $-1 -50.172429578539379 -22.756206363424681 0 0 0 -1 I I #
edge $-1 $343 -22.756206363424681 $347 22.756206363424681 $341 $403 forward 7 unknown #
straight-curve $-1 0 -22.756206363424681 -10.557012975606289 -1 0 0 I I #
vertex $-1 $250 $404 #
straight-curve $-1 0 22.756206363424681 -10.557012975606289 1 0 0 I I #
point $-1 50.172429578539379 22.756206363424681 -10.557012975606289 #
point $-1 50.172429578539379 -22.756206363424681 -10.557012975606289 #
straight-curve $-1 -50.172429578539379 0 10.557012975606289 0 -1 0 I I #
point $-1 -50.172429578539379 22.756206363424681 10.557012975606289 #
point $-1 -50.172429578539379 -22.756206363424681 10.557012975606289 #
straight-curve $-1 50.172429578539379 -22.756206363424681 0 0 0 -1 I I #
straight-curve $-1 50.172429578539379 22.756206363424681 0 0 0 -1 I I #
plane-surface $-1 0 -22.756206363424681 0 0 1 0 0 0 1 forward_v I I I I #
coedge $-1 $405 $270 $284 $371 reversed $180 $-1 #
coedge $-1 $270 $405 $362 $406 reversed $180 $-1 #
edge $-1 $363 -1.9502137895639642 $360 1.9502137895639642 $271 $407 forward 7 unknown #
vertex $-1 $272 $408 #
straight-curve $-1 -54.77590840723515 22.756206363424681 6.656585396478361 1 0 0 I I #
coedge $-1 $366 $273 $358 $406 forward $268 $-1 #
vertex $-1 $274 $409 #
straight-curve $-1 0 22.756206363424681 10.557012975606289 -1 0 0 I I #
point $-1 -50.172429578539379 22.756206363424681 10.557012975606289 #
coedge $-1 $277 $362 $279 $369 forward $268 $-1 #
straight-curve $-1 -50.172429578539379 0 10.557012975606289 0 1 0 I I #
coedge $-1 $280 $279 $405 $410 forward $281 $-1 #
edge $-1 $411 -59.37938723593092 $282 -50.172429578539379 $279 $412 forward 7 unknown #
point $-1 -50.172429578539379 -22.756206363424681 10.557012975606289 #
edge $-1 $372 -22.756206363424681 $360 22.756206363424681 $357 $413 forward 7 unknown #
vertex $-1 $371 $414 #
straight-curve $-1 -54.77590840723515 -22.756206363424681 6.656585396478361 -1 0 0 I I #
coedge $-1 $299 $298 $291 $375 forward $288 $-1 #
edge $-1 $376 61.735594877116149 $379 69.42197152631563 $374 $415 forward 7 unknown #
vertex $-1 $303 $416 #
straight-curve $-1 21.372742360051369 -16.108121609677173 10.557012975606284 1 0 0 I I #
edge $-1 $379 -10.30656358392595 $300 -1.2965524675764968 $299 $417 forward 7 unknown #
vertex $-1 $378 $418 #
straight-curve $-1 -24.398332540197984 -16.108121609677173 70.014453586707518 -0.74314481823134659 0 0.66913061440640931 I I #
point $-1 41.635843664152162 -16.108121609677173 10.557012975606291 #
point $-1 50.172429578539379 -7.0981104933277201 2.8706363264068102 #
straight-curve $-1 50.172429578539379 0 10.557012975606289 0 1 0 I I #
vertex $-1 $306 $419 #
point $-1 45.353578546914534 -13.533832719291615 4.6078914448281694 #
vertex $-1 $310 $420 #
point $-1 45.353578546914534 -9.6723993837132767 4.6078914448281694 #
edge $-1 $389 61.735594877116149 $392 69.42197152631563 $315 $421 forward 7 unknown #
vertex $-1 $329 $422 #
straight-curve $-1 21.372742360051369 7.0981104933277201 10.557012975606284 1 0 0 I I #
edge $-1 $392 1.2965524675764968 $326 10.30656358392595 $325 $423 forward 7 unknown #
vertex $-1 $391 $424 #
straight-curve $-1 -24.398332540197984 7.0981104933277201 70.014453586707518 -0.74314481823134659 0 0.66913061440640931 I I #
point $-1 41.635843664152162 7.0981104933277201 10.557012975606291 #
point $-1 50.172429578539379 16.108121609677173 2.8706363264068102 #
straight-curve $-1 50.172429578539379 0 10.557012975606289 0 1 0 I I #
vertex $-1 $332 $425 #
point $-1 45.353578546914534 9.6723993837132767 4.6078914448281694 #
vertex $-1 $336 $426 #
point $-1 45.353578546914534 13.533832719291617 4.6078914448281694 #
straight-curve $-1 -50.172429578539379 22.756206363424681 0 0 0 -1 I I #
point $-1 -50.172429578539379 -22.756206363424681 -10.557012975606289 #
straight-curve $-1 -50.172429578539379 0 -10.557012975606289 0 1 0 I I #
point $-1 -50.172429578539379 22.756206363424681 -10.557012975606289 #
coedge $-1 $358 $357 $368 $410 reversed $180 $-1 #
edge $-1 $363 -22.756206363424681 $411 22.756206363424681 $358 $427 forward 7 unknown #
straight-curve $-1 -59.37938723593092 22.756206363424681 8.6067991860423252 0 0 -1 I I #
point $-1 -59.37938723593092 22.756206363424681 6.656585396478361 #
point $-1 -59.37938723593092 22.756206363424681 10.557012975606289 #
edge $-1 $411 -1.9502137895639642 $372 1.9502137895639642 $405 $428 forward 7 unknown #
vertex $-1 $406 $429 #
straight-curve $-1 0 -22.756206363424681 10.557012975606289 1 0 0 I I #
straight-curve $-1 -59.37938723593092 0 6.656585396478361 0 1 0 I I #
point $-1 -59.37938723593092 -22.756206363424681 6.656585396478361 #
straight-curve $-1 50.172429578539379 -16.108121609677173 72.29260785272244 0 0 -1 I I #
point $-1 50.172429578539379 -16.108121609677173 10.557012975606289 #
straight-curve $-1 50.172429578539379 -5.8015580257512234 2.8706363264068102 0 1 0 I I #
point $-1 50.172429578539379 -16.108121609677173 2.8706363264068102 #
point $-1 43.941303114276778 -13.533832719291615 4.533877241003232 #
point $-1 43.941303114276778 -9.6723993837132767 4.533877241003232 #
straight-curve $-1 50.172429578539379 7.0981104933277201 72.29260785272244 0 0 -1 I I #
point $-1 50.172429578539379 7.0981104933277201 10.557012975606289 #
straight-curve $-1 50.172429578539379 5.8015580257512234 2.8706363264068102 0 1 0 I I #
point $-1 50.172429578539379 7.0981104933277201 2.8706363264068102 #
point $-1 43.941303114276778 9.6723993837132767 4.533877241003232 #
point $-1 43.941303114276778 13.533832719291617 4.533877241003232 #
straight-curve $-1 -59.37938723593092 0 10.557012975606289 0 -1 0 I I #
straight-curve $-1 -59.37938723593092 -22.756206363424681 8.6067991860423252 0 0 -1 I I #
point $-1 -59.37938723593092 -22.756206363424681 10.557012975606289 #
End-of-ACIS-data 