500 0 10 0           
7 Unknown 11 ACIS 5.0 NT 24 Thu Mar 25 16:28:04 1999 
-1 9.9999999999999995e-007 1e-010 
body $-1 $10 $-1 $11 #
body $-1 $12 $-1 $13 #
body $-1 $14 $-1 $15 #
body $-1 $16 $-1 $17 #
body $-1 $18 $-1 $19 #
body $-1 $20 $-1 $21 #
body $-1 $22 $-1 $23 #
body $-1 $24 $-1 $25 #
body $-1 $26 $-1 $27 #
body $-1 $28 $-1 $29 #
lump $-1 $-1 $30 $0 #
transform $-1 1 0 0 0 1 0 0 0 1 59.021576586199529 28.066725731707017 8.6427219246649667 1 rotate no_reflect no_shear #
lump $-1 $-1 $31 $1 #
transform $-1 1 0 0 0 1 0 0 0 1 59.021576586199529 28.066725731707017 8.6427219246649667 1 rotate no_reflect no_shear #
lump $-1 $-1 $32 $2 #
transform $-1 1 0 0 0 1 0 0 0 1 59.021576586199529 28.066725731707017 8.6427219246649667 1 rotate no_reflect no_shear #
lump $-1 $-1 $33 $3 #
transform $-1 1 0 0 0 1 0 0 0 1 59.021576586199529 28.066725731707017 8.6427219246649667 1 rotate no_reflect no_shear #
lump $-1 $-1 $34 $4 #
transform $-1 1 0 0 0 1 0 0 0 1 59.021576586199529 28.066725731707017 8.6427219246649667 1 rotate no_reflect no_shear #
lump $-1 $-1 $35 $5 #
transform $-1 1 0 0 0 1 0 0 0 1 59.021576586199529 28.066725731707017 8.6427219246649667 1 rotate no_reflect no_shear #
lump $-1 $-1 $36 $6 #
transform $-1 1 0 0 0 1 0 0 0 1 59.021576586199529 28.066725731707017 8.6427219246649667 1 rotate no_reflect no_shear #
lump $-1 $-1 $37 $7 #
transform $-1 1 0 0 0 1 0 0 0 1 59.021576586199529 28.066725731707017 8.6427219246649667 1 rotate no_reflect no_shear #
lump $-1 $-1 $38 $8 #
transform $-1 1 0 0 0 1 0 0 0 1 59.021576586199529 28.066725731707017 8.6427219246649667 1 rotate no_reflect no_shear #
lump $-1 $-1 $39 $9 #
transform $-1 1 0 0 0 1 0 0 0 1 59.021576586199529 28.066725731707017 8.6427219246649667 1 rotate no_reflect no_shear #
shell $-1 $-1 $-1 $40 $-1 $10 #
shell $-1 $-1 $-1 $41 $-1 $12 #
shell $-1 $-1 $-1 $42 $-1 $14 #
shell $-1 $-1 $-1 $43 $-1 $16 #
shell $-1 $-1 $-1 $44 $-1 $18 #
shell $-1 $-1 $-1 $45 $-1 $20 #
shell $-1 $-1 $-1 $46 $-1 $22 #
shell $-1 $-1 $-1 $47 $-1 $24 #
shell $-1 $-1 $-1 $48 $-1 $26 #
shell $-1 $-1 $-1 $49 $-1 $28 #
face $-1 $50 $51 $30 $-1 $52 forward single #
face $-1 $53 $54 $31 $-1 $55 reversed single #
face $-1 $56 $57 $32 $-1 $58 reversed single #
face $-1 $59 $60 $33 $-1 $61 reversed single #
face $-1 $62 $63 $34 $-1 $64 forward single #
face $-1 $65 $66 $35 $-1 $67 forward single #
face $-1 $68 $69 $36 $-1 $70 reversed single #
face $-1 $71 $72 $37 $-1 $73 forward single #
face $-1 $74 $75 $38 $-1 $76 forward single #
face $-1 $77 $78 $39 $-1 $79 forward single #
face $-1 $80 $81 $30 $-1 $82 reversed single #
loop $-1 $-1 $83 $40 #
plane-surface $-1 0 0 8.6427219246649667 0 0 1 1 0 0 forward_v I I I I #
face $-1 $84 $85 $31 $-1 $86 reversed single #
loop $-1 $-1 $87 $41 #
plane-surface $-1 0 -19.15207998914557 6.8427768980801051 0 -1 0 0 0 -1 forward_v I I I I #
face $-1 $88 $89 $32 $-1 $90 reversed single #
loop $-1 $-1 $91 $42 #
plane-surface $-1 0 23.609402860426293 5.0428318714952427 0 0 1 1 0 0 forward_v I I I I #
face $-1 $92 $93 $33 $-1 $94 reversed single #
loop $-1 $-1 $95 $43 #
plane-surface $-1 -59.021576586199544 -16.149482426234741 0.57568954723213039 -0.5877852598018023 0 0.80901698891910034 0.80901698891910034 0 0.5877852598018023 forward_v I I I I #
face $-1 $96 $97 $34 $-1 $98 forward single #
loop $-1 $99 $100 $44 #
cone-surface $-1 -53.176025306586773 -17.43630995319652 4.2046972414889954 0.5877852598018023 0 -0.80901698891910034 0.40450849445955017 0 0.29389262990090115 1 I I 0 1 0.5 forward I I I I #
face $-1 $101 $102 $35 $-1 $103 forward single #
loop $-1 $104 $105 $45 #
cone-surface $-1 -53.176025306586773 -14.862654899272956 4.2046972414889954 0.5877852598018023 0 -0.80901698891910034 0.40450849445955017 0 0.29389262990090115 1 I I 0 1 0.5 forward I I I I #
face $-1 $106 $107 $36 $-1 $108 reversed single #
loop $-1 $-1 $109 $46 #
plane-surface $-1 99.407591655195091 2.9981767162375679 162.88663763561397 0 -1 0 -0.85716730853699208 0 -0.51503806187062418 forward_v I I I I #
face $-1 $110 $111 $37 $-1 $112 forward single #
loop $-1 $113 $114 $47 #
cone-surface $-1 56.26900443494165 -3.1378085434469014 4.5174363876967298 -0.85716730853699208 0 -0.51503806187062418 0.12875951546765604 0 -0.21429182713424802 1 I I 0 1 0.25 forward I I I I #
face $-1 $115 $116 $38 $-1 $117 forward single #
loop $-1 $118 $119 $48 #
cone-surface $-1 56.26900443494165 -0.83681407106522343 4.5174363876967298 -0.85716730853699208 0 -0.51503806187062418 0.12875951546765604 0 -0.21429182713424802 1 I I 0 1 0.25 forward I I I I #
face $-1 $120 $121 $39 $-1 $122 forward single #
loop $-1 $123 $124 $49 #
cone-surface $-1 56.26900443494165 1.4641804013164545 4.5174363876967298 -0.85716730853699208 0 -0.51503806187062418 0.12875951546765604 0 -0.21429182713424802 1 I I 0 1 0.25 forward I I I I #
face $-1 $125 $126 $30 $-1 $127 reversed single #
loop $-1 $-1 $128 $50 #
plane-surface $-1 0 0 -8.6427219246649667 0 0 1 1 0 0 forward_v I I I I #
coedge $-1 $129 $130 $131 $132 forward $51 $-1 #
face $-1 $133 $134 $31 $-1 $135 reversed single #
loop $-1 $-1 $136 $53 #
plane-surface $-1 0 -23.609402860426293 5.0428318714952427 0 0 1 1 0 0 forward_v I I I I #
coedge $-1 $137 $138 $139 $140 reversed $54 $-1 #
face $-1 $141 $142 $32 $-1 $143 forward single #
loop $-1 $-1 $144 $56 #
plane-surface $-1 0 19.15207998914557 6.8427768980801051 0 1 0 0 0 1 forward_v I I I I #
coedge $-1 $145 $146 $147 $148 reversed $57 $-1 #
face $-1 $149 $150 $33 $-1 $151 reversed single #
loop $-1 $-1 $152 $59 #
plane-surface $-1 -128.40560204146206 -13.146884863323914 96.074605889282566 0 -1 0 0.5877852598018023 0 -0.80901698891910034 forward_v I I I I #
coedge $-1 $153 $154 $155 $156 reversed $60 $-1 #
face $-1 $-1 $157 $34 $-1 $158 forward single #
loop $-1 $159 $160 $62 #
cone-surface $-1 -52.735186361735423 -17.43630995319652 3.5979344997996705 0.5877852598018023 0 -0.80901698891910034 0.20225424722977509 0 0.14694631495045057 1 I I -0.70710678118654746 0.70710678118654746 0.25 forward I I I I #
loop $-1 $-1 $161 $44 #
coedge $-1 $100 $100 $162 $163 reversed $63 $-1 #
face $-1 $-1 $164 $35 $-1 $165 forward single #
loop $-1 $166 $167 $65 #
cone-surface $-1 -52.735186361735423 -14.862654899272956 3.5979344997996705 0.5877852598018023 0 -0.80901698891910034 0.20225424722977509 0 0.14694631495045057 1 I I -0.70710678118654746 0.70710678118654746 0.25 forward I I I I #
loop $-1 $-1 $168 $45 #
coedge $-1 $105 $105 $169 $170 reversed $66 $-1 #
face $-1 $171 $172 $36 $-1 $173 reversed single #
loop $-1 $-1 $174 $68 #
plane-surface $-1 -1.7751402408101029 -0.83681407106522698 102.08992080860433 0.85716730853699208 0 0.51503806187062418 0.51503806187062418 0 -0.85716730853699208 forward_v I I I I #
coedge $-1 $175 $176 $177 $178 reversed $69 $-1 #
face $-1 $-1 $179 $37 $-1 $180 forward single #
loop $-1 $181 $182 $71 #
cone-surface $-1 55.733274867106033 -3.1378085434469014 4.19553759902759 -0.85716730853699208 0 -0.51503806187062418 0.064379757733828022 0 -0.10714591356712401 1 I I -0.70710678118654746 0.70710678118654746 0.125 forward I I I I #
loop $-1 $-1 $183 $47 #
coedge $-1 $114 $114 $184 $185 reversed $72 $-1 #
face $-1 $-1 $186 $38 $-1 $187 forward single #
loop $-1 $188 $189 $74 #
cone-surface $-1 55.733274867106033 -0.83681407106522343 4.19553759902759 -0.85716730853699208 0 -0.51503806187062418 0.064379757733828022 0 -0.10714591356712401 1 I I -0.70710678118654746 0.70710678118654746 0.125 forward I I I I #
loop $-1 $-1 $190 $48 #
coedge $-1 $119 $119 $191 $192 reversed $75 $-1 #
face $-1 $-1 $193 $39 $-1 $194 forward single #
loop $-1 $195 $196 $77 #
cone-surface $-1 55.733274867106033 1.4641804013164545 4.19553759902759 -0.85716730853699208 0 -0.51503806187062418 0.064379757733828022 0 -0.10714591356712401 1 I I -0.70710678118654746 0.70710678118654746 0.125 forward I I I I #
loop $-1 $-1 $197 $49 #
coedge $-1 $124 $124 $198 $199 reversed $78 $-1 #
face $-1 $200 $201 $30 $-1 $202 reversed single #
loop $-1 $-1 $203 $80 #
plane-surface $-1 0 -28.066725731707017 0 0 1 0 0 0 1 forward_v I I I I #
coedge $-1 $204 $205 $206 $207 forward $81 $-1 #
coedge $-1 $208 $83 $209 $210 forward $51 $-1 #
coedge $-1 $83 $208 $211 $212 forward $51 $-1 #
coedge $-1 $213 $214 $83 $132 reversed $215 $-1 #
edge $-1 $216 -28.066725731707017 $217 28.066725731707017 $131 $218 forward 7 unknown #
face $-1 $219 $220 $31 $-1 $221 reversed single #
loop $-1 $-1 $222 $84 #
plane-surface $-1 -59.021576586199529 0 0 1 0 0 0 0 -1 forward_v I I I I #
coedge $-1 $223 $224 $225 $226 reversed $85 $-1 #
coedge $-1 $227 $87 $228 $229 reversed $54 $-1 #
coedge $-1 $87 $227 $222 $230 reversed $54 $-1 #
coedge $-1 $231 $232 $87 $140 forward $233 $-1 #
edge $-1 $234 -59.021576586199529 $235 59.021576586199529 $139 $236 forward 7 unknown #
face $-1 $237 $238 $32 $-1 $239 reversed single #
loop $-1 $-1 $240 $88 #
plane-surface $-1 0 0 8.6427219246649667 0 0 1 1 0 0 forward_v I I I I #
coedge $-1 $241 $242 $243 $244 reversed $89 $-1 #
coedge $-1 $245 $91 $241 $246 forward $57 $-1 #
coedge $-1 $91 $245 $247 $248 reversed $57 $-1 #
coedge $-1 $249 $250 $91 $148 forward $238 $-1 #
edge $-1 $251 7.347378558932423 $252 16.26202430149387 $147 $253 forward 7 unknown #
face $-1 $254 $255 $33 $-1 $256 forward single #
loop $-1 $-1 $257 $92 #
plane-surface $-1 -59.021576586199529 0 0 1 0 0 0 0 -1 forward_v I I I I #
coedge $-1 $258 $259 $260 $261 reversed $93 $-1 #
coedge $-1 $262 $95 $263 $264 reversed $60 $-1 #
coedge $-1 $95 $262 $258 $265 forward $60 $-1 #
coedge $-1 $260 $266 $95 $156 forward $255 $-1 #
edge $-1 $267 -11.077338776028199 $268 -5.0721436502065433 $155 $269 forward 7 unknown #
loop $-1 $-1 $162 $96 #
plane-surface $-1 -59.021576586199544 -16.149482426234741 0.57568954723213039 -0.5877852598018023 0 0.80901698891910034 0.80901698891910034 0 0.5877852598018023 forward_v I I I I #
loop $-1 $-1 $270 $62 #
coedge $-1 $160 $160 $161 $271 reversed $97 $-1 #
coedge $-1 $161 $161 $160 $271 forward $99 $-1 #
coedge $-1 $162 $162 $100 $163 forward $157 $-1 #
edge $-1 $272 0 $272 6.2831853071796004 $162 $273 forward 7 unknown #
loop $-1 $-1 $169 $101 #
plane-surface $-1 -59.021576586199544 -16.149482426234741 0.57568954723213039 -0.5877852598018023 0 0.80901698891910034 0.80901698891910034 0 0.5877852598018023 forward_v I I I I #
loop $-1 $-1 $274 $65 #
coedge $-1 $167 $167 $168 $275 reversed $102 $-1 #
coedge $-1 $168 $168 $167 $275 forward $104 $-1 #
coedge $-1 $169 $169 $105 $170 forward $164 $-1 #
edge $-1 $276 0 $276 6.2831853071796004 $169 $277 forward 7 unknown #
face $-1 $278 $279 $36 $-1 $280 forward single #
loop $-1 $-1 $281 $106 #
plane-surface $-1 99.407591655195091 -4.6718048583680218 162.88663763561397 0 1 0 0.85716730853699208 0 0.51503806187062418 forward_v I I I I #
coedge $-1 $282 $283 $284 $285 reversed $107 $-1 #
coedge $-1 $176 $109 $286 $287 reversed $69 $-1 #
coedge $-1 $109 $175 $282 $288 reversed $69 $-1 #
coedge $-1 $284 $289 $109 $178 forward $279 $-1 #
edge $-1 $290 -9.3177807586019838 $291 -4.6698037646232464 $177 $292 forward 7 unknown #
loop $-1 $-1 $184 $110 #
plane-surface $-1 -1.7751402408101029 -0.83681407106522698 102.08992080860433 0.85716730853699208 0 0.51503806187062418 0.51503806187062418 0 -0.85716730853699208 forward_v I I I I #
loop $-1 $-1 $293 $71 #
coedge $-1 $182 $182 $183 $294 reversed $111 $-1 #
coedge $-1 $183 $183 $182 $294 forward $113 $-1 #
coedge $-1 $184 $184 $114 $185 forward $179 $-1 #
edge $-1 $295 0 $295 6.2831853071796004 $184 $296 forward 7 unknown #
loop $-1 $-1 $191 $115 #
plane-surface $-1 -1.7751402408101029 -0.83681407106522698 102.08992080860433 0.85716730853699208 0 0.51503806187062418 0.51503806187062418 0 -0.85716730853699208 forward_v I I I I #
loop $-1 $-1 $297 $74 #
coedge $-1 $189 $189 $190 $298 reversed $116 $-1 #
coedge $-1 $190 $190 $189 $298 forward $118 $-1 #
coedge $-1 $191 $191 $119 $192 forward $186 $-1 #
edge $-1 $299 0 $299 6.2831853071796004 $191 $300 forward 7 unknown #
loop $-1 $-1 $198 $120 #
plane-surface $-1 -1.7751402408101029 -0.83681407106522698 102.08992080860433 0.85716730853699208 0 0.51503806187062418 0.51503806187062418 0 -0.85716730853699208 forward_v I I I I #
loop $-1 $-1 $301 $77 #
coedge $-1 $196 $196 $197 $302 reversed $121 $-1 #
coedge $-1 $197 $197 $196 $302 forward $123 $-1 #
coedge $-1 $198 $198 $124 $199 forward $193 $-1 #
edge $-1 $303 0 $303 6.2831853071796004 $198 $304 forward 7 unknown #
face $-1 $305 $306 $30 $-1 $307 reversed single #
loop $-1 $-1 $308 $125 #
plane-surface $-1 -59.021576586199529 0 0 1 0 0 0 0 -1 forward_v I I I I #
coedge $-1 $309 $211 $310 $311 forward $126 $-1 #
coedge $-1 $312 $128 $309 $313 forward $81 $-1 #
coedge $-1 $128 $312 $314 $315 forward $81 $-1 #
coedge $-1 $214 $213 $128 $207 reversed $215 $-1 #
edge $-1 $316 -28.066725731707017 $317 28.066725731707017 $206 $318 forward 7 unknown #
coedge $-1 $130 $129 $319 $320 forward $51 $-1 #
coedge $-1 $321 $322 $129 $210 reversed $306 $-1 #
edge $-1 $217 -59.021576586199529 $323 59.021576586199529 $209 $324 forward 7 unknown #
coedge $-1 $203 $325 $130 $212 reversed $126 $-1 #
edge $-1 $326 -59.021576586199529 $216 59.021576586199529 $211 $327 forward 7 unknown #
coedge $-1 $206 $131 $325 $328 forward $215 $-1 #
coedge $-1 $131 $206 $321 $329 reversed $215 $-1 #
loop $-1 $-1 $213 $305 #
vertex $-1 $132 $330 #
vertex $-1 $132 $331 #
straight-curve $-1 59.021576586199529 0 8.6427219246649667 0 1 0 I I #
face $-1 $332 $233 $31 $-1 $333 forward single #
loop $-1 $-1 $334 $133 #
plane-surface $-1 0 -28.066725731707017 0 0 1 0 0 0 1 forward_v I I I I #
coedge $-1 $335 $336 $138 $230 forward $134 $-1 #
coedge $-1 $337 $136 $334 $338 reversed $85 $-1 #
coedge $-1 $136 $337 $227 $339 forward $85 $-1 #
coedge $-1 $228 $340 $136 $226 forward $341 $-1 #
edge $-1 $342 -16.26202430149387 $343 -7.347378558932423 $225 $344 forward 7 unknown #
coedge $-1 $138 $137 $224 $339 reversed $54 $-1 #
coedge $-1 $345 $225 $137 $229 forward $341 $-1 #
edge $-1 $343 1.6214434224551901 $234 5.2213334756249159 $228 $346 forward 7 unknown #
edge $-1 $235 -5.2213334756249159 $347 -1.6214434224551901 $222 $348 forward 7 unknown #
coedge $-1 $349 $139 $336 $350 forward $233 $-1 #
coedge $-1 $139 $349 $345 $351 forward $233 $-1 #
loop $-1 $-1 $139 $219 #
vertex $-1 $229 $352 #
vertex $-1 $350 $353 #
straight-curve $-1 0 -19.15207998914557 8.6427219246649667 -1 0 0 I I #
face $-1 $354 $355 $32 $-1 $356 reversed single #
loop $-1 $-1 $250 $141 #
plane-surface $-1 59.021576586199529 0 0 -1 0 0 0 0 1 forward_v I I I I #
coedge $-1 $357 $358 $242 $359 forward $142 $-1 #
coedge $-1 $360 $144 $145 $246 reversed $89 $-1 #
coedge $-1 $144 $360 $240 $359 reversed $89 $-1 #
coedge $-1 $361 $362 $144 $244 forward $355 $-1 #
edge $-1 $363 1.6214434224551901 $364 5.2213334756249159 $243 $365 forward 7 unknown #
coedge $-1 $146 $145 $362 $366 reversed $57 $-1 #
edge $-1 $251 -59.021576586199529 $363 59.021576586199529 $241 $367 forward 7 unknown #
coedge $-1 $368 $369 $146 $248 forward $370 $-1 #
edge $-1 $252 -59.021576586199529 $371 59.021576586199529 $247 $372 forward 7 unknown #
coedge $-1 $373 $147 $369 $374 reversed $238 $-1 #
coedge $-1 $147 $373 $360 $375 forward $238 $-1 #
vertex $-1 $148 $376 #
vertex $-1 $248 $377 #
straight-curve $-1 59.021576586199529 11.804701430213147 5.0428318714952427 0 1 0 I I #
face $-1 $-1 $378 $33 $-1 $379 forward single #
loop $-1 $-1 $260 $149 #
plane-surface $-1 0 0 8.6427219246649667 0 0 1 1 0 0 forward_v I I I I #
coedge $-1 $380 $381 $259 $382 forward $150 $-1 #
coedge $-1 $259 $152 $154 $265 reversed $93 $-1 #
coedge $-1 $152 $258 $257 $382 reversed $93 $-1 #
coedge $-1 $383 $155 $152 $261 forward $255 $-1 #
edge $-1 $268 -16.284541733955187 $384 -5.1812244345315008 $260 $385 forward 7 unknown #
coedge $-1 $154 $153 $380 $386 reversed $60 $-1 #
coedge $-1 $387 $388 $153 $264 forward $378 $-1 #
edge $-1 $389 -25.716579868871982 $267 -11.992124818479969 $263 $390 forward 7 unknown #
edge $-1 $391 1.756574927105486e-014 $268 13.724455050392031 $258 $392 forward 7 unknown #
coedge $-1 $155 $383 $387 $393 forward $255 $-1 #
vertex $-1 $264 $394 #
vertex $-1 $156 $395 #
straight-curve $-1 -47.91825928677585 -8.0747412131173704 8.6427219246649667 0 1 0 I I #
coedge $-1 $270 $270 $-1 $396 reversed $159 $-1 #
edge $-1 $397 0 $397 6.2831853071796004 $160 $398 forward 7 unknown #
vertex $-1 $163 $399 #
ellipse-curve $-1 -53.469917936487683 -17.43630995319652 4.6092057359485574 -0.5877852598018023 0 0.80901698891910034 0.40450849445955017 0 0.29389262990090115 1 I I #
coedge $-1 $274 $274 $-1 $400 reversed $166 $-1 #
edge $-1 $401 0 $401 6.2831853071796004 $167 $402 forward 7 unknown #
vertex $-1 $170 $403 #
ellipse-curve $-1 -53.469917936487683 -14.862654899272956 4.6092057359485574 -0.5877852598018023 0 0.80901698891910034 0.40450849445955017 0 0.29389262990090115 1 I I #
face $-1 $-1 $404 $36 $-1 $405 reversed single #
loop $-1 $-1 $177 $171 #
plane-surface $-1 0 0 8.6427219246649667 0 0 1 1 0 0 forward_v I I I I #
coedge $-1 $406 $407 $408 $409 reversed $172 $-1 #
coedge $-1 $410 $174 $176 $288 forward $107 $-1 #
coedge $-1 $174 $410 $406 $411 forward $107 $-1 #
coedge $-1 $408 $177 $174 $285 forward $279 $-1 #
edge $-1 $291 -3.4165837517701814 $412 4.2533978228354083 $284 $413 forward 7 unknown #
coedge $-1 $414 $415 $175 $287 forward $404 $-1 #
edge $-1 $416 -80.536129905207844 $290 -72.800596893142014 $286 $417 forward 7 unknown #
edge $-1 $291 109.0186220977495 $416 118.04315317239907 $176 $418 forward 7 unknown #
coedge $-1 $177 $408 $414 $419 forward $279 $-1 #
vertex $-1 $287 $420 #
vertex $-1 $178 $421 #
straight-curve $-1 49.703795827597546 2.9981767162375679 8.6427219246649685 -1 0 0 I I #
coedge $-1 $293 $293 $-1 $422 reversed $181 $-1 #
edge $-1 $423 0 $423 6.2831853071796004 $182 $424 forward 7 unknown #
vertex $-1 $185 $425 #
ellipse-curve $-1 56.697588089210157 -3.1378085434469014 4.7749554186320493 0.85716730853699208 0 0.51503806187062418 0.12875951546765604 0 -0.21429182713424802 1 I I #
coedge $-1 $297 $297 $-1 $426 reversed $188 $-1 #
edge $-1 $427 0 $427 6.2831853071796004 $189 $428 forward 7 unknown #
vertex $-1 $192 $429 #
ellipse-curve $-1 56.697588089210157 -0.83681407106522343 4.7749554186320493 0.85716730853699208 0 0.51503806187062418 0.12875951546765604 0 -0.21429182713424802 1 I I #
coedge $-1 $301 $301 $-1 $430 reversed $195 $-1 #
edge $-1 $431 0 $431 6.2831853071796004 $196 $432 forward 7 unknown #
vertex $-1 $199 $433 #
ellipse-curve $-1 56.697588089210157 1.4641804013164545 4.7749554186320493 0.85716730853699208 0 0.51503806187062418 0.12875951546765604 0 -0.21429182713424802 1 I I #
face $-1 $-1 $215 $30 $-1 $434 reversed single #
loop $-1 $-1 $321 $200 #
plane-surface $-1 0 28.066725731707017 0 0 -1 0 0 0 -1 forward_v I I I I #
coedge $-1 $435 $319 $322 $436 forward $201 $-1 #
coedge $-1 $325 $203 $204 $313 reversed $126 $-1 #
coedge $-1 $319 $435 $203 $311 reversed $201 $-1 #
edge $-1 $326 -8.6427219246649667 $437 8.6427219246649667 $310 $438 forward 7 unknown #
coedge $-1 $205 $204 $435 $439 forward $81 $-1 #
edge $-1 $317 -59.021576586199529 $437 59.021576586199529 $309 $440 forward 7 unknown #
coedge $-1 $322 $321 $205 $315 reversed $306 $-1 #
edge $-1 $441 -59.021576586199529 $316 59.021576586199529 $314 $442 forward 7 unknown #
vertex $-1 $207 $443 #
vertex $-1 $328 $444 #
straight-curve $-1 59.021576586199529 0 -8.6427219246649667 0 -1 0 I I #
coedge $-1 $308 $310 $208 $320 reversed $201 $-1 #
edge $-1 $323 -28.066725731707017 $326 28.066725731707017 $319 $445 forward 7 unknown #
coedge $-1 $314 $209 $214 $329 forward $306 $-1 #
coedge $-1 $209 $314 $308 $436 reversed $306 $-1 #
vertex $-1 $210 $446 #
straight-curve $-1 0 28.066725731707017 8.6427219246649667 -1 0 0 I I #
coedge $-1 $211 $309 $213 $328 reversed $126 $-1 #
vertex $-1 $320 $447 #
straight-curve $-1 0 -28.066725731707017 8.6427219246649667 1 0 0 I I #
edge $-1 $216 -8.6427219246649667 $317 8.6427219246649667 $213 $448 forward 7 unknown #
edge $-1 $217 -8.6427219246649667 $316 8.6427219246649667 $214 $449 forward 7 unknown #
point $-1 59.021576586199529 -28.066725731707017 8.6427219246649667 #
point $-1 59.021576586199529 28.066725731707017 8.6427219246649667 #
face $-1 $-1 $341 $31 $-1 $450 reversed single #
plane-surface $-1 0 0 8.6427219246649667 0 0 1 1 0 0 forward_v I I I I #
coedge $-1 $451 $452 $223 $338 forward $220 $-1 #
coedge $-1 $453 $222 $337 $454 forward $134 $-1 #
coedge $-1 $222 $453 $231 $350 reversed $134 $-1 #
coedge $-1 $224 $223 $335 $454 reversed $85 $-1 #
edge $-1 $455 -59.021576586199529 $342 59.021576586199529 $334 $456 forward 7 unknown #
edge $-1 $347 -59.021576586199529 $343 59.021576586199529 $227 $457 forward 7 unknown #
coedge $-1 $225 $345 $451 $458 forward $341 $-1 #
loop $-1 $-1 $228 $332 #
vertex $-1 $338 $459 #
vertex $-1 $226 $460 #
straight-curve $-1 59.021576586199529 -11.804701430213147 5.0428318714952427 0 1 0 I I #
coedge $-1 $340 $228 $232 $351 reversed $341 $-1 #
straight-curve $-1 59.021576586199529 -19.15207998914557 3.4213884490400526 0 0 1 I I #
vertex $-1 $454 $461 #
straight-curve $-1 -59.021576586199529 -19.15207998914557 3.4213884490400526 0 0 -1 I I #
coedge $-1 $232 $231 $462 $463 forward $233 $-1 #
edge $-1 $235 19.15207998914557 $464 28.066725731707017 $336 $465 forward 7 unknown #
edge $-1 $466 -28.066725731707017 $234 -19.15207998914557 $345 $467 forward 7 unknown #
point $-1 59.021576586199529 -19.15207998914557 8.6427219246649685 #
point $-1 -59.021576586199529 -19.15207998914557 8.6427219246649685 #
face $-1 $-1 $370 $32 $-1 $468 reversed single #
loop $-1 $-1 $243 $237 #
plane-surface $-1 -59.021576586199529 0 0 1 0 0 0 0 -1 forward_v I I I I #
coedge $-1 $469 $240 $373 $470 forward $142 $-1 #
coedge $-1 $240 $469 $361 $471 forward $142 $-1 #
edge $-1 $364 -59.021576586199529 $472 59.021576586199529 $240 $473 forward 7 unknown #
coedge $-1 $242 $241 $250 $375 reversed $89 $-1 #
coedge $-1 $474 $243 $358 $471 reversed $355 $-1 #
coedge $-1 $243 $474 $245 $366 forward $355 $-1 #
vertex $-1 $366 $475 #
vertex $-1 $244 $476 #
straight-curve $-1 -59.021576586199529 19.15207998914557 3.4213884490400526 0 0 1 I I #
edge $-1 $371 -16.26202430149387 $363 -7.347378558932423 $362 $477 forward 7 unknown #
straight-curve $-1 0 19.15207998914557 5.0428318714952427 -1 0 0 I I #
coedge $-1 $478 $247 $474 $479 reversed $370 $-1 #
coedge $-1 $247 $478 $249 $374 forward $370 $-1 #
loop $-1 $-1 $247 $354 #
vertex $-1 $248 $480 #
straight-curve $-1 0 28.066725731707017 5.0428318714952427 -1 0 0 I I #
coedge $-1 $250 $249 $357 $470 reversed $238 $-1 #
edge $-1 $481 -8.6427219246649667 $252 -5.0428318714952427 $249 $482 forward 7 unknown #
edge $-1 $472 -5.2213334756249159 $251 -1.6214434224551901 $250 $483 forward 7 unknown #
point $-1 59.021576586199529 19.15207998914557 5.0428318714952427 #
point $-1 59.021576586199529 28.066725731707017 5.0428318714952427 #
loop $-1 $-1 $263 $254 #
plane-surface $-1 0 -19.15207998914557 6.8427768980801051 0 -1 0 0 0 -1 forward_v I I I I #
coedge $-1 $484 $257 $262 $386 forward $150 $-1 #
coedge $-1 $257 $484 $383 $485 reversed $150 $-1 #
edge $-1 $384 39.394581019976314 $391 47.461613397409145 $257 $486 forward 7 unknown #
coedge $-1 $266 $260 $381 $485 forward $255 $-1 #
vertex $-1 $485 $487 #
straight-curve $-1 -64.20280102073103 -13.146884863323914 8.6427219246649685 -1 0 0 I I #
edge $-1 $391 5.0721436502065433 $389 11.077338776028199 $380 $488 forward 7 unknown #
coedge $-1 $388 $263 $266 $393 reversed $378 $-1 #
coedge $-1 $263 $387 $484 $489 reversed $378 $-1 #
vertex $-1 $489 $490 #
straight-curve $-1 -38.216426575387167 -19.15207998914557 15.691516126670859 0.80901698891910034 0 0.5877852598018023 I I #
vertex $-1 $386 $491 #
straight-curve $-1 -59.021576586199544 -13.146884863323914 0.57568954723213039 0.80901698891910034 0 0.5877852598018023 I I #
edge $-1 $492 -59.021576586199529 $267 -47.918259286775843 $266 $493 forward 7 unknown #
point $-1 -47.918259286775843 -19.15207998914557 8.6427219246649667 #
point $-1 -47.918259286775843 -13.146884863323914 8.6427219246649667 #
edge $-1 $494 1 $494 0 $270 $-1 forward 7 unknown #
vertex $-1 $271 $495 #
ellipse-curve $-1 -52.88213267668587 -17.43630995319652 3.8001887470294458 -0.5877852598018023 0 0.80901698891910034 0.40450849445955017 0 0.29389262990090115 1 I I #
point $-1 -53.065409442028127 -17.43630995319652 4.9030983658494467 #
edge $-1 $496 1 $496 0 $274 $-1 forward 7 unknown #
vertex $-1 $275 $497 #
ellipse-curve $-1 -52.88213267668587 -14.862654899272956 3.8001887470294458 -0.5877852598018023 0 0.80901698891910034 0.40450849445955017 0 0.29389262990090115 1 I I #
point $-1 -53.065409442028127 -14.862654899272956 4.9030983658494467 #
loop $-1 $-1 $286 $278 #
plane-surface $-1 59.021576586199529 0 0 -1 0 0 0 0 1 forward_v I I I I #
coedge $-1 $407 $281 $283 $411 reversed $172 $-1 #
coedge $-1 $281 $406 $498 $499 reversed $172 $-1 #
coedge $-1 $289 $284 $281 $409 forward $279 $-1 #
edge $-1 $412 4.6698037646232464 $500 9.3177807586019838 $408 $501 forward 7 unknown #
coedge $-1 $283 $282 $415 $502 reversed $107 $-1 #
edge $-1 $503 -118.04315317239907 $412 -109.0186220977495 $406 $504 forward 7 unknown #
vertex $-1 $285 $505 #
straight-curve $-1 54.373599592220778 -0.41840703553261349 8.6427219246649614 0 -1 0 I I #
coedge $-1 $498 $286 $289 $419 reversed $404 $-1 #
coedge $-1 $286 $498 $410 $502 forward $404 $-1 #
vertex $-1 $287 $506 #
straight-curve $-1 59.021576586199529 2.9981767162375679 81.443318817806983 0 0 1 I I #
straight-curve $-1 -1.7751402408101029 2.9981767162375679 102.08992080860433 0.51503806187062418 0 -0.85716730853699208 I I #
edge $-1 $500 -4.6718048583680218 $290 2.9981767162375679 $414 $507 forward 7 unknown #
point $-1 59.021576586199529 2.9981767162375679 8.6427219246649667 #
point $-1 54.373599592220792 2.9981767162375679 8.6427219246649685 #
edge $-1 $508 1 $508 0 $293 $-1 forward 7 unknown #
vertex $-1 $294 $509 #
ellipse-curve $-1 55.840420780673156 -3.1378085434469014 4.2599173567614184 0.85716730853699208 0 0.51503806187062418 0.12875951546765604 0 -0.21429182713424802 1 I I #
point $-1 56.826347604677807 -3.1378085434469014 4.5606635914977947 #
edge $-1 $510 1 $510 0 $297 $-1 forward 7 unknown #
vertex $-1 $298 $511 #
ellipse-curve $-1 55.840420780673156 -0.83681407106522343 4.2599173567614184 0.85716730853699208 0 0.51503806187062418 0.12875951546765604 0 -0.21429182713424802 1 I I #
point $-1 56.826347604677807 -0.83681407106522343 4.5606635914977947 #
edge $-1 $512 1 $512 0 $301 $-1 forward 7 unknown #
vertex $-1 $302 $513 #
ellipse-curve $-1 55.840420780673156 1.4641804013164545 4.2599173567614184 0.85716730853699208 0 0.51503806187062418 0.12875951546765604 0 -0.21429182713424802 1 I I #
point $-1 56.826347604677807 1.4641804013164545 4.5606635914977947 #
plane-surface $-1 59.021576586199529 0 0 -1 0 0 0 0 1 forward_v I I I I #
coedge $-1 $310 $308 $312 $439 reversed $201 $-1 #
edge $-1 $323 -8.6427219246649667 $441 8.6427219246649667 $322 $514 forward 7 unknown #
vertex $-1 $439 $515 #
straight-curve $-1 -59.021576586199529 -28.066725731707017 0 0 0 -1 I I #
edge $-1 $437 -28.066725731707017 $441 28.066725731707017 $435 $516 forward 7 unknown #
straight-curve $-1 0 -28.066725731707017 -8.6427219246649667 -1 0 0 I I #
vertex $-1 $315 $517 #
straight-curve $-1 0 28.066725731707017 -8.6427219246649667 1 0 0 I I #
point $-1 59.021576586199529 28.066725731707017 -8.6427219246649667 #
point $-1 59.021576586199529 -28.066725731707017 -8.6427219246649667 #
straight-curve $-1 -59.021576586199529 0 8.6427219246649667 0 -1 0 I I #
point $-1 -59.021576586199529 28.066725731707017 8.6427219246649667 #
point $-1 -59.021576586199529 -28.066725731707017 8.6427219246649667 #
straight-curve $-1 59.021576586199529 -28.066725731707017 0 0 0 -1 I I #
straight-curve $-1 59.021576586199529 28.066725731707017 0 0 0 -1 I I #
plane-surface $-1 59.021576586199529 0 0 -1 0 0 0 0 1 forward_v I I I I #
coedge $-1 $462 $334 $340 $458 reversed $220 $-1 #
coedge $-1 $334 $462 $453 $518 forward $220 $-1 #
coedge $-1 $336 $335 $452 $518 reversed $134 $-1 #
edge $-1 $347 7.347378558932423 $455 16.26202430149387 $335 $519 forward 7 unknown #
vertex $-1 $338 $520 #
straight-curve $-1 0 -28.066725731707017 5.0428318714952427 1 0 0 I I #
straight-curve $-1 0 -19.15207998914557 5.0428318714952427 1 0 0 I I #
edge $-1 $466 -8.6427219246649667 $342 -5.0428318714952427 $340 $521 forward 7 unknown #
point $-1 59.021576586199529 -28.066725731707017 5.0428318714952427 #
point $-1 59.021576586199529 -19.15207998914557 5.0428318714952427 #
point $-1 -59.021576586199529 -19.15207998914557 5.0428318714952427 #
coedge $-1 $452 $451 $349 $463 reversed $220 $-1 #
edge $-1 $464 -59.021576586199529 $466 59.021576586199529 $462 $522 forward 7 unknown #
vertex $-1 $350 $523 #
straight-curve $-1 -59.021576586199529 0 8.6427219246649667 0 -1 0 I I #
vertex $-1 $351 $524 #
straight-curve $-1 59.021576586199529 0 8.6427219246649667 0 1 0 I I #
plane-surface $-1 0 28.066725731707017 0 0 -1 0 0 0 -1 forward_v I I I I #
coedge $-1 $358 $357 $478 $525 forward $142 $-1 #
edge $-1 $472 19.15207998914557 $481 28.066725731707017 $373 $526 forward 7 unknown #
edge $-1 $527 -28.066725731707017 $364 -19.15207998914557 $361 $528 forward 7 unknown #
vertex $-1 $470 $529 #
straight-curve $-1 0 19.15207998914557 8.6427219246649667 1 0 0 I I #
coedge $-1 $362 $361 $368 $479 forward $355 $-1 #
point $-1 -59.021576586199529 19.15207998914557 5.0428318714952427 #
point $-1 -59.021576586199529 19.15207998914557 8.6427219246649685 #
straight-curve $-1 -59.021576586199529 11.804701430213147 5.0428318714952427 0 -1 0 I I #
coedge $-1 $369 $368 $469 $525 reversed $370 $-1 #
edge $-1 $527 -8.6427219246649667 $371 -5.0428318714952427 $368 $530 forward 7 unknown #
point $-1 -59.021576586199529 28.066725731707017 5.0428318714952427 #
vertex $-1 $470 $531 #
straight-curve $-1 59.021576586199529 28.066725731707017 0 0 0 -1 I I #
straight-curve $-1 59.021576586199529 19.15207998914557 3.4213884490400526 0 0 -1 I I #
coedge $-1 $381 $380 $388 $489 forward $150 $-1 #
edge $-1 $384 13.146884863323914 $492 19.15207998914557 $381 $532 forward 7 unknown #
straight-curve $-1 -59.021576586199529 -13.146884863323914 48.037302944641283 0 0 -1 I I #
point $-1 -59.021576586199529 -13.146884863323914 8.6427219246649667 #
straight-curve $-1 -59.021576586199529 -8.0747412131173704 0.57568954723213828 0 -1 0 I I #
edge $-1 $389 -47.461613397409145 $492 -39.394581019976314 $484 $533 forward 7 unknown #
point $-1 -59.021576586199529 -19.15207998914557 0.57568954723214072 #
point $-1 -59.021576586199529 -13.146884863323914 0.57568954723214072 #
vertex $-1 $489 $534 #
straight-curve $-1 0 -19.15207998914557 8.6427219246649667 1 0 0 I I #
vertex $-1 $396 $535 #
point $-1 -52.477624182226322 -17.43630995319652 4.0940813769303466 #
vertex $-1 $400 $536 #
point $-1 -52.477624182226322 -14.862654899272956 4.0940813769303466 #
coedge $-1 $415 $414 $407 $499 forward $404 $-1 #
edge $-1 $500 72.800596893142014 $503 80.536129905207844 $498 $537 forward 7 unknown #
vertex $-1 $419 $538 #
straight-curve $-1 49.703795827597546 -4.6718048583680218 8.6427219246649685 1 0 0 I I #
edge $-1 $503 -4.2533978228354083 $416 3.4165837517701814 $415 $539 forward 7 unknown #
vertex $-1 $502 $540 #
straight-curve $-1 -1.7751402408101029 -4.6718048583680218 102.08992080860433 -0.51503806187062418 0 0.85716730853699208 I I #
point $-1 54.373599592220792 -4.6718048583680218 8.6427219246649685 #
point $-1 59.021576586199529 2.9981767162375679 0.90718891259913903 #
straight-curve $-1 59.021576586199529 0 8.6427219246649667 0 1 0 I I #
vertex $-1 $422 $541 #
point $-1 55.969180296140813 -3.1378085434469014 4.0456255296271699 #
vertex $-1 $426 $542 #
point $-1 55.969180296140813 -0.83681407106522343 4.0456255296271699 #
vertex $-1 $430 $543 #
point $-1 55.969180296140813 1.4641804013164545 4.0456255296271699 #
straight-curve $-1 -59.021576586199529 28.066725731707017 0 0 0 -1 I I #
point $-1 -59.021576586199529 -28.066725731707017 -8.6427219246649667 #
straight-curve $-1 -59.021576586199529 0 -8.6427219246649667 0 1 0 I I #
point $-1 -59.021576586199529 28.066725731707017 -8.6427219246649667 #
edge $-1 $464 -8.6427219246649667 $455 -5.0428318714952427 $453 $544 forward 7 unknown #
straight-curve $-1 -59.021576586199529 -11.804701430213147 5.0428318714952427 0 -1 0 I I #
point $-1 -59.021576586199529 -28.066725731707017 5.0428318714952427 #
straight-curve $-1 59.021576586199529 -28.066725731707017 0 0 0 -1 I I #
straight-curve $-1 0 -28.066725731707017 8.6427219246649667 1 0 0 I I #
point $-1 -59.021576586199529 -28.066725731707017 8.6427219246649667 #
point $-1 59.021576586199529 -28.066725731707017 8.6427219246649667 #
edge $-1 $481 -59.021576586199529 $527 59.021576586199529 $478 $545 forward 7 unknown #
straight-curve $-1 59.021576586199529 0 8.6427219246649667 0 1 0 I I #
vertex $-1 $525 $546 #
straight-curve $-1 -59.021576586199529 0 8.6427219246649667 0 -1 0 I I #
point $-1 59.021576586199529 19.15207998914557 8.6427219246649685 #
straight-curve $-1 -59.021576586199529 28.066725731707017 0 0 0 -1 I I #
point $-1 59.021576586199529 28.066725731707017 8.6427219246649667 #
straight-curve $-1 -59.021576586199529 0 8.6427219246649667 0 -1 0 I I #
straight-curve $-1 -59.021576586199529 -19.15207998914557 48.037302944641283 0 0 1 I I #
point $-1 -59.021576586199529 -19.15207998914557 8.6427219246649685 #
point $-1 -52.588240046784975 -17.43630995319652 3.3956802525698953 #
point $-1 -52.588240046784975 -14.862654899272956 3.3956802525698953 #
straight-curve $-1 59.021576586199529 -4.6718048583680218 81.443318817806983 0 0 -1 I I #
point $-1 59.021576586199529 -4.6718048583680218 8.6427219246649667 #
straight-curve $-1 59.021576586199529 -0.41840703553261349 0.90718891259913192 0 1 0 I I #
point $-1 59.021576586199529 -4.6718048583680218 0.90718891259913903 #
point $-1 55.62612895353891 -3.1378085434469014 4.1311578412937617 #
point $-1 55.62612895353891 -0.83681407106522343 4.1311578412937617 #
point $-1 55.62612895353891 1.4641804013164545 4.1311578412937617 #
straight-curve $-1 -59.021576586199529 -28.066725731707017 0 0 0 -1 I I #
straight-curve $-1 0 28.066725731707017 8.6427219246649667 -1 0 0 I I #
point $-1 -59.021576586199529 28.066725731707017 8.6427219246649667 #
End-of-ACIS-data 