500 0 14 0           
7 Unknown 11 ACIS 5.0 NT 24 Thu Mar 25 18:04:17 1999 
-1 9.9999999999999995e-007 1e-010 
body $-1 $14 $-1 $15 #
body $-1 $16 $-1 $17 #
body $-1 $18 $-1 $19 #
body $-1 $20 $-1 $21 #
body $-1 $22 $-1 $23 #
body $-1 $24 $-1 $25 #
body $-1 $26 $-1 $27 #
body $-1 $28 $-1 $29 #
body $-1 $30 $-1 $31 #
body $-1 $32 $-1 $33 #
body $-1 $34 $-1 $35 #
body $-1 $36 $-1 $37 #
body $-1 $38 $-1 $39 #
body $-1 $40 $-1 $41 #
lump $-1 $-1 $42 $0 #
transform $-1 1 0 0 0 1 0 0 0 1 62.031922360911892 28.713357122483682 9.5866001440464945 1 rotate no_reflect no_shear #
lump $-1 $-1 $43 $1 #
transform $-1 1 0 0 0 1 0 0 0 1 62.031922360911892 28.713357122483682 9.5866001440464945 1 rotate no_reflect no_shear #
lump $-1 $-1 $44 $2 #
transform $-1 1 0 0 0 1 0 0 0 1 62.031922360911892 28.713357122483682 9.5866001440464945 1 rotate no_reflect no_shear #
lump $-1 $-1 $45 $3 #
transform $-1 1 0 0 0 1 0 0 0 1 62.031922360911892 28.713357122483682 9.5866001440464945 1 rotate no_reflect no_shear #
lump $-1 $-1 $46 $4 #
transform $-1 1 0 0 0 1 0 0 0 1 62.031922360911892 28.713357122483682 9.5866001440464945 1 rotate no_reflect no_shear #
lump $-1 $-1 $47 $5 #
transform $-1 1 0 0 0 1 0 0 0 1 62.031922360911892 28.713357122483682 9.5866001440464945 1 rotate no_reflect no_shear #
lump $-1 $-1 $48 $6 #
transform $-1 1 0 0 0 1 0 0 0 1 62.031922360911892 28.713357122483682 9.5866001440464945 1 rotate no_reflect no_shear #
lump $-1 $-1 $49 $7 #
transform $-1 1 0 0 0 1 0 0 0 1 62.031922360911892 28.713357122483682 9.5866001440464945 1 rotate no_reflect no_shear #
lump $-1 $-1 $50 $8 #
transform $-1 1 0 0 0 1 0 0 0 1 62.031922360911892 28.713357122483682 9.5866001440464945 1 rotate no_reflect no_shear #
lump $-1 $-1 $51 $9 #
transform $-1 1 0 0 0 1 0 0 0 1 62.031922360911892 28.713357122483682 9.5866001440464945 1 rotate no_reflect no_shear #
lump $-1 $-1 $52 $10 #
transform $-1 1 0 0 0 1 0 0 0 1 62.031922360911892 28.713357122483682 9.5866001440464945 1 rotate no_reflect no_shear #
lump $-1 $-1 $53 $11 #
transform $-1 1 0 0 0 1 0 0 0 1 62.031922360911892 28.713357122483682 9.5866001440464945 1 rotate no_reflect no_shear #
lump $-1 $-1 $54 $12 #
transform $-1 1 0 0 0 1 0 0 0 1 62.031922360911892 28.713357122483682 9.5866001440464945 1 rotate no_reflect no_shear #
lump $-1 $-1 $55 $13 #
transform $-1 1 0 0 0 1 0 0 0 1 62.031922360911892 28.713357122483682 9.5866001440464945 1 rotate no_reflect no_shear #
shell $-1 $-1 $-1 $56 $-1 $14 #
shell $-1 $-1 $-1 $57 $-1 $16 #
shell $-1 $-1 $-1 $58 $-1 $18 #
shell $-1 $-1 $-1 $59 $-1 $20 #
shell $-1 $-1 $-1 $60 $-1 $22 #
shell $-1 $-1 $-1 $61 $-1 $24 #
shell $-1 $-1 $-1 $62 $-1 $26 #
shell $-1 $-1 $-1 $63 $-1 $28 #
shell $-1 $-1 $-1 $64 $-1 $30 #
shell $-1 $-1 $-1 $65 $-1 $32 #
shell $-1 $-1 $-1 $66 $-1 $34 #
shell $-1 $-1 $-1 $67 $-1 $36 #
shell $-1 $-1 $-1 $68 $-1 $38 #
shell $-1 $-1 $-1 $69 $-1 $40 #
face $-1 $70 $71 $42 $-1 $72 forward single #
face $-1 $73 $74 $43 $-1 $75 forward single #
face $-1 $76 $77 $44 $-1 $78 reversed single #
face $-1 $79 $80 $45 $-1 $81 forward single #
face $-1 $82 $83 $46 $-1 $84 forward single #
face $-1 $85 $86 $47 $-1 $87 forward single #
face $-1 $88 $89 $48 $-1 $90 reversed single #
face $-1 $91 $92 $49 $-1 $93 forward single #
face $-1 $94 $95 $50 $-1 $96 reversed single #
face $-1 $97 $98 $51 $-1 $99 forward single #
face $-1 $100 $101 $52 $-1 $102 reversed single #
face $-1 $103 $104 $53 $-1 $105 forward single #
face $-1 $106 $107 $54 $-1 $108 reversed single #
face $-1 $109 $110 $55 $-1 $111 forward single #
face $-1 $112 $113 $42 $-1 $114 reversed single #
loop $-1 $-1 $115 $56 #
plane-surface $-1 0 0 9.5866001440464945 0 0 1 1 0 0 forward_v I I I I #
face $-1 $116 $117 $43 $-1 $118 reversed single #
loop $-1 $-1 $119 $57 #
plane-surface $-1 0 -28.713357122483682 0 0 1 0 0 0 1 forward_v I I I I #
face $-1 $120 $121 $44 $-1 $122 reversed single #
loop $-1 $-1 $123 $58 #
plane-surface $-1 -149.75830928163825 19.9190811587446 93.323798978813514 0 1 0 -0.70710678939079041 0 0.70710677298230451 forward_v I I I I #
face $-1 $124 $125 $45 $-1 $126 forward single #
loop $-1 $127 $128 $59 #
cone-surface $-1 -59.683775987371483 21.677936351492416 7.2384537324255929 0.70710678939079041 0 -0.70710677298230451 0.17677669324557613 0 0.1767766973476976 1 I I 0 1 0.25 forward I I I I #
face $-1 $129 $130 $46 $-1 $131 forward single #
loop $-1 $132 $133 $60 #
cone-surface $-1 -59.683775987371483 24.316219140614141 7.2384537324255929 0.70710678939079041 0 -0.70710677298230451 0.17677669324557613 0 0.1767766973476976 1 I I 0 1 0.25 forward I I I I #
face $-1 $134 $135 $47 $-1 $136 forward single #
loop $-1 $137 $138 $61 #
cone-surface $-1 -59.683775987371483 26.954501929735866 7.2384537324255929 0.70710678939079041 0 -0.70710677298230451 0.17677669324557613 0 0.1767766973476976 1 I I 0 1 0.25 forward I I I I #
face $-1 $139 $140 $48 $-1 $141 reversed single #
loop $-1 $-1 $142 $62 #
plane-surface $-1 77.32364125805924 -6.5828036559873322 177.9987191719805 0 -1 0 -0.7660444514056185 0 -0.64278759981090561 forward_v I I I I #
face $-1 $143 $144 $49 $-1 $145 forward single #
loop $-1 $146 $147 $63 #
cone-surface $-1 58.959643568884331 -10.275203634059984 6.0657288452602867 -0.7660444514056185 0 -0.64278759981090561 0.64278759981090561 0 -0.7660444514056185 1 I I 0 1 1 forward I I I I #
face $-1 $148 $149 $50 $-1 $150 reversed single #
loop $-1 $-1 $151 $64 #
plane-surface $-1 77.32364125805924 3.7223876134991105 177.9987191719805 0 -1 0 -0.7660444514056185 0 -0.64278759981090561 forward_v I I I I #
face $-1 $152 $153 $51 $-1 $154 forward single #
loop $-1 $155 $156 $65 #
cone-surface $-1 58.959643568884331 0.029987635426454773 6.0657288452602867 -0.7660444514056185 0 -0.64278759981090561 0.64278759981090561 0 -0.7660444514056185 1 I I 0 1 1 forward I I I I #
face $-1 $157 $158 $52 $-1 $159 reversed single #
loop $-1 $-1 $160 $66 #
plane-surface $-1 77.32364125805924 14.027578882985553 177.9987191719805 0 -1 0 -0.7660444514056185 0 -0.64278759981090561 forward_v I I I I #
face $-1 $161 $162 $53 $-1 $163 forward single #
loop $-1 $164 $165 $67 #
cone-surface $-1 58.959643568884331 10.335178904912897 6.0657288452602867 -0.7660444514056185 0 -0.64278759981090561 0.64278759981090561 0 -0.7660444514056185 1 I I 0 1 1 forward I I I I #
face $-1 $166 $167 $54 $-1 $168 reversed single #
loop $-1 $-1 $169 $68 #
plane-surface $-1 77.32364125805924 24.332770152471994 177.9987191719805 0 -1 0 -0.7660444514056185 0 -0.64278759981090561 forward_v I I I I #
face $-1 $170 $171 $55 $-1 $172 forward single #
loop $-1 $173 $174 $69 #
cone-surface $-1 58.959643568884331 20.64037017439934 6.0657288452602867 -0.7660444514056185 0 -0.64278759981090561 0.64278759981090561 0 -0.7660444514056185 1 I I 0 1 1 forward I I I I #
face $-1 $175 $176 $42 $-1 $177 reversed single #
loop $-1 $-1 $178 $70 #
plane-surface $-1 0 0 -9.5866001440464945 0 0 1 1 0 0 forward_v I I I I #
coedge $-1 $179 $180 $181 $182 forward $71 $-1 #
face $-1 $183 $184 $43 $-1 $185 forward single #
loop $-1 $-1 $186 $73 #
plane-surface $-1 -62.031922360911892 0 0 1 0 0 0 0 -1 forward_v I I I I #
coedge $-1 $187 $188 $189 $190 forward $74 $-1 #
face $-1 $191 $192 $44 $-1 $193 forward single #
loop $-1 $-1 $194 $76 #
plane-surface $-1 -62.031922360911878 24.316219140614141 5.5974140937869947 -0.70710678939079041 0 0.70710677298230451 0.70710677298230451 0 0.70710678939079041 forward_v I I I I #
coedge $-1 $195 $196 $197 $198 reversed $77 $-1 #
face $-1 $-1 $199 $45 $-1 $200 forward single #
loop $-1 $201 $202 $79 #
cone-surface $-1 -59.241834244002241 21.677936351492416 6.7965119993116527 0.70710678939079041 0 -0.70710677298230451 0.088388346622788064 0 0.088388348673848802 1 I I -0.70710678118654746 0.70710678118654746 0.125 forward I I I I #
loop $-1 $-1 $203 $59 #
coedge $-1 $128 $128 $204 $205 reversed $80 $-1 #
face $-1 $-1 $206 $46 $-1 $207 forward single #
loop $-1 $208 $209 $82 #
cone-surface $-1 -59.241834244002241 24.316219140614141 6.7965119993116527 0.70710678939079041 0 -0.70710677298230451 0.088388346622788064 0 0.088388348673848802 1 I I -0.70710678118654746 0.70710678118654746 0.125 forward I I I I #
loop $-1 $-1 $210 $60 #
coedge $-1 $133 $133 $211 $212 reversed $83 $-1 #
face $-1 $-1 $213 $47 $-1 $214 forward single #
loop $-1 $215 $216 $85 #
cone-surface $-1 -59.241834244002241 26.954501929735866 6.7965119993116527 0.70710678939079041 0 -0.70710677298230451 0.088388346622788064 0 0.088388348673848802 1 I I -0.70710678118654746 0.70710678118654746 0.125 forward I I I I #
loop $-1 $-1 $217 $61 #
coedge $-1 $138 $138 $218 $219 reversed $86 $-1 #
face $-1 $220 $221 $48 $-1 $222 reversed single #
loop $-1 $-1 $223 $88 #
plane-surface $-1 -17.714778611142094 -10.275203634059988 98.252018199926496 0.7660444514056185 0 0.64278759981090561 0.64278759981090561 0 -0.7660444514056185 forward_v I I I I #
coedge $-1 $224 $225 $226 $227 reversed $89 $-1 #
face $-1 $-1 $228 $49 $-1 $229 forward single #
loop $-1 $230 $231 $91 #
cone-surface $-1 58.178134216675929 -10.275203634059984 5.4099646532293146 -0.7660444514056185 0 -0.64278759981090561 0.3213937999054528 0 -0.38302222570280925 1 I I -0.70710678118654746 0.70710678118654746 0.5 forward I I I I #
loop $-1 $-1 $232 $63 #
coedge $-1 $147 $147 $233 $234 reversed $92 $-1 #
face $-1 $235 $236 $50 $-1 $237 reversed single #
loop $-1 $-1 $238 $94 #
plane-surface $-1 -17.714778611142094 0.029987635426454773 98.252018199926496 0.7660444514056185 0 0.64278759981090561 0.64278759981090561 0 -0.7660444514056185 forward_v I I I I #
coedge $-1 $239 $240 $241 $242 reversed $95 $-1 #
face $-1 $-1 $243 $51 $-1 $244 forward single #
loop $-1 $245 $246 $97 #
cone-surface $-1 58.178134216675929 0.029987635426454773 5.4099646532293146 -0.7660444514056185 0 -0.64278759981090561 0.3213937999054528 0 -0.38302222570280925 1 I I -0.70710678118654746 0.70710678118654746 0.5 forward I I I I #
loop $-1 $-1 $247 $65 #
coedge $-1 $156 $156 $248 $249 reversed $98 $-1 #
face $-1 $250 $251 $52 $-1 $252 reversed single #
loop $-1 $-1 $253 $100 #
plane-surface $-1 -17.714778611142094 10.335178904912897 98.252018199926496 0.7660444514056185 0 0.64278759981090561 0.64278759981090561 0 -0.7660444514056185 forward_v I I I I #
coedge $-1 $254 $255 $256 $257 reversed $101 $-1 #
face $-1 $-1 $258 $53 $-1 $259 forward single #
loop $-1 $260 $261 $103 #
cone-surface $-1 58.178134216675929 10.335178904912897 5.4099646532293146 -0.7660444514056185 0 -0.64278759981090561 0.3213937999054528 0 -0.38302222570280925 1 I I -0.70710678118654746 0.70710678118654746 0.5 forward I I I I #
loop $-1 $-1 $262 $67 #
coedge $-1 $165 $165 $263 $264 reversed $104 $-1 #
face $-1 $265 $266 $54 $-1 $267 reversed single #
loop $-1 $-1 $268 $106 #
plane-surface $-1 -17.714778611142094 20.64037017439934 98.252018199926496 0.7660444514056185 0 0.64278759981090561 0.64278759981090561 0 -0.7660444514056185 forward_v I I I I #
coedge $-1 $269 $270 $271 $272 reversed $107 $-1 #
face $-1 $-1 $273 $55 $-1 $274 forward single #
loop $-1 $275 $276 $109 #
cone-surface $-1 58.178134216675929 20.64037017439934 5.4099646532293146 -0.7660444514056185 0 -0.64278759981090561 0.3213937999054528 0 -0.38302222570280925 1 I I -0.70710678118654746 0.70710678118654746 0.5 forward I I I I #
loop $-1 $-1 $277 $69 #
coedge $-1 $174 $174 $278 $279 reversed $110 $-1 #
face $-1 $280 $281 $42 $-1 $282 reversed single #
loop $-1 $-1 $283 $112 #
plane-surface $-1 0 -28.713357122483682 0 0 1 0 0 0 1 forward_v I I I I #
coedge $-1 $284 $285 $286 $287 forward $113 $-1 #
coedge $-1 $288 $115 $289 $290 forward $71 $-1 #
coedge $-1 $115 $288 $291 $292 forward $71 $-1 #
coedge $-1 $293 $294 $115 $182 reversed $295 $-1 #
edge $-1 $296 -28.713357122483682 $297 28.713357122483682 $181 $298 forward 7 unknown #
face $-1 $299 $300 $43 $-1 $301 reversed single #
loop $-1 $-1 $302 $116 #
plane-surface $-1 0 -33.895940392653358 -6.0866001440464945 0 0 1 1 0 0 forward_v I I I I #
coedge $-1 $303 $304 $188 $305 forward $117 $-1 #
coedge $-1 $306 $119 $307 $308 reversed $74 $-1 #
coedge $-1 $119 $306 $186 $305 reversed $74 $-1 #
coedge $-1 $309 $302 $119 $190 reversed $184 $-1 #
edge $-1 $310 -62.031922360911892 $311 62.031922360911892 $189 $312 forward 7 unknown #
face $-1 $313 $314 $44 $-1 $315 reversed single #
loop $-1 $-1 $197 $120 #
plane-surface $-1 0 0 9.5866001440464945 0 0 1 1 0 0 forward_v I I I I #
coedge $-1 $316 $317 $318 $319 reversed $121 $-1 #
coedge $-1 $196 $123 $320 $321 reversed $77 $-1 #
coedge $-1 $123 $195 $316 $322 reversed $77 $-1 #
coedge $-1 $318 $323 $123 $198 forward $192 $-1 #
edge $-1 $324 12.847232279907232 $325 16.836418237597272 $197 $326 forward 7 unknown #
loop $-1 $-1 $204 $124 #
plane-surface $-1 -62.031922360911878 24.316219140614141 5.5974140937869947 -0.70710678939079041 0 0.70710677298230451 0.70710677298230451 0 0.70710678939079041 forward_v I I I I #
loop $-1 $-1 $327 $79 #
coedge $-1 $202 $202 $203 $328 reversed $125 $-1 #
coedge $-1 $203 $203 $202 $328 forward $127 $-1 #
coedge $-1 $204 $204 $128 $205 forward $199 $-1 #
edge $-1 $329 0 $329 6.2831853071796004 $204 $330 forward 7 unknown #
loop $-1 $-1 $211 $129 #
plane-surface $-1 -62.031922360911878 24.316219140614141 5.5974140937869947 -0.70710678939079041 0 0.70710677298230451 0.70710677298230451 0 0.70710678939079041 forward_v I I I I #
loop $-1 $-1 $331 $82 #
coedge $-1 $209 $209 $210 $332 reversed $130 $-1 #
coedge $-1 $210 $210 $209 $332 forward $132 $-1 #
coedge $-1 $211 $211 $133 $212 forward $206 $-1 #
edge $-1 $333 0 $333 6.2831853071796004 $211 $334 forward 7 unknown #
loop $-1 $-1 $218 $134 #
plane-surface $-1 -62.031922360911878 24.316219140614141 5.5974140937869947 -0.70710678939079041 0 0.70710677298230451 0.70710677298230451 0 0.70710678939079041 forward_v I I I I #
loop $-1 $-1 $335 $85 #
coedge $-1 $216 $216 $217 $336 reversed $135 $-1 #
coedge $-1 $217 $217 $216 $336 forward $137 $-1 #
coedge $-1 $218 $218 $138 $219 forward $213 $-1 #
edge $-1 $337 0 $337 6.2831853071796004 $218 $338 forward 7 unknown #
face $-1 $339 $340 $48 $-1 $341 reversed single #
loop $-1 $-1 $342 $139 #
plane-surface $-1 77.32364125805924 -13.967603612132644 177.9987191719805 0 1 0 0.7660444514056185 0 0.64278759981090561 forward_v I I I I #
coedge $-1 $343 $344 $345 $346 reversed $140 $-1 #
coedge $-1 $225 $142 $347 $348 reversed $89 $-1 #
coedge $-1 $142 $224 $343 $349 reversed $89 $-1 #
coedge $-1 $345 $350 $142 $227 forward $351 $-1 #
edge $-1 $352 -23.370101731882272 $353 -18.022518400838365 $226 $354 forward 7 unknown #
loop $-1 $-1 $233 $143 #
plane-surface $-1 -17.714778611142094 -10.275203634059988 98.252018199926496 0.7660444514056185 0 0.64278759981090561 0.64278759981090561 0 -0.7660444514056185 forward_v I I I I #
loop $-1 $-1 $355 $91 #
coedge $-1 $231 $231 $232 $356 reversed $144 $-1 #
coedge $-1 $232 $232 $231 $356 forward $146 $-1 #
coedge $-1 $233 $233 $147 $234 forward $228 $-1 #
edge $-1 $357 0 $357 6.2831853071796004 $233 $358 forward 7 unknown #
face $-1 $359 $360 $50 $-1 $361 reversed single #
loop $-1 $-1 $362 $148 #
plane-surface $-1 77.32364125805924 -3.662412342646201 177.9987191719805 0 1 0 0.7660444514056185 0 0.64278759981090561 forward_v I I I I #
coedge $-1 $363 $364 $365 $366 reversed $149 $-1 #
coedge $-1 $240 $151 $367 $368 reversed $95 $-1 #
coedge $-1 $151 $239 $363 $369 reversed $95 $-1 #
coedge $-1 $365 $370 $151 $242 forward $371 $-1 #
edge $-1 $372 -23.370101731882272 $373 -18.022518400838365 $241 $374 forward 7 unknown #
loop $-1 $-1 $248 $152 #
plane-surface $-1 -17.714778611142094 0.029987635426454773 98.252018199926496 0.7660444514056185 0 0.64278759981090561 0.64278759981090561 0 -0.7660444514056185 forward_v I I I I #
loop $-1 $-1 $375 $97 #
coedge $-1 $246 $246 $247 $376 reversed $153 $-1 #
coedge $-1 $247 $247 $246 $376 forward $155 $-1 #
coedge $-1 $248 $248 $156 $249 forward $243 $-1 #
edge $-1 $377 0 $377 6.2831853071796004 $248 $378 forward 7 unknown #
face $-1 $379 $380 $52 $-1 $381 reversed single #
loop $-1 $-1 $382 $157 #
plane-surface $-1 77.32364125805924 6.6427789268402417 177.9987191719805 0 1 0 0.7660444514056185 0 0.64278759981090561 forward_v I I I I #
coedge $-1 $383 $384 $385 $386 reversed $158 $-1 #
coedge $-1 $255 $160 $387 $388 reversed $101 $-1 #
coedge $-1 $160 $254 $383 $389 reversed $101 $-1 #
coedge $-1 $385 $390 $160 $257 forward $391 $-1 #
edge $-1 $392 -23.370101731882272 $393 -18.022518400838365 $256 $394 forward 7 unknown #
loop $-1 $-1 $263 $161 #
plane-surface $-1 -17.714778611142094 10.335178904912897 98.252018199926496 0.7660444514056185 0 0.64278759981090561 0.64278759981090561 0 -0.7660444514056185 forward_v I I I I #
loop $-1 $-1 $395 $103 #
coedge $-1 $261 $261 $262 $396 reversed $162 $-1 #
coedge $-1 $262 $262 $261 $396 forward $164 $-1 #
coedge $-1 $263 $263 $165 $264 forward $258 $-1 #
edge $-1 $397 0 $397 6.2831853071796004 $263 $398 forward 7 unknown #
face $-1 $399 $400 $54 $-1 $401 reversed single #
loop $-1 $-1 $402 $166 #
plane-surface $-1 77.32364125805924 16.947970196326686 177.9987191719805 0 1 0 0.7660444514056185 0 0.64278759981090561 forward_v I I I I #
coedge $-1 $403 $404 $405 $406 reversed $167 $-1 #
coedge $-1 $270 $169 $407 $408 reversed $107 $-1 #
coedge $-1 $169 $269 $403 $409 reversed $107 $-1 #
coedge $-1 $405 $410 $169 $272 forward $411 $-1 #
edge $-1 $412 -23.370101731882272 $413 -18.022518400838365 $271 $414 forward 7 unknown #
loop $-1 $-1 $278 $170 #
plane-surface $-1 -17.714778611142094 20.64037017439934 98.252018199926496 0.7660444514056185 0 0.64278759981090561 0.64278759981090561 0 -0.7660444514056185 forward_v I I I I #
loop $-1 $-1 $415 $109 #
coedge $-1 $276 $276 $277 $416 reversed $171 $-1 #
coedge $-1 $277 $277 $276 $416 forward $173 $-1 #
coedge $-1 $278 $278 $174 $279 forward $273 $-1 #
edge $-1 $417 0 $417 6.2831853071796004 $278 $418 forward 7 unknown #
face $-1 $419 $420 $42 $-1 $421 reversed single #
loop $-1 $-1 $422 $175 #
plane-surface $-1 -62.031922360911892 0 0 1 0 0 0 0 -1 forward_v I I I I #
coedge $-1 $423 $291 $424 $425 forward $176 $-1 #
coedge $-1 $426 $178 $423 $427 forward $113 $-1 #
coedge $-1 $178 $426 $428 $429 forward $113 $-1 #
coedge $-1 $294 $293 $178 $287 reversed $295 $-1 #
edge $-1 $430 -28.713357122483682 $431 28.713357122483682 $286 $432 forward 7 unknown #
coedge $-1 $180 $179 $433 $434 forward $71 $-1 #
coedge $-1 $435 $436 $179 $290 reversed $420 $-1 #
edge $-1 $297 -62.031922360911892 $437 62.031922360911892 $289 $438 forward 7 unknown #
coedge $-1 $283 $439 $180 $292 reversed $176 $-1 #
edge $-1 $440 -62.031922360911892 $296 62.031922360911892 $291 $441 forward 7 unknown #
coedge $-1 $286 $181 $439 $442 forward $295 $-1 #
coedge $-1 $181 $286 $435 $443 reversed $295 $-1 #
loop $-1 $-1 $293 $419 #
vertex $-1 $182 $444 #
vertex $-1 $182 $445 #
straight-curve $-1 62.031922360911892 0 9.5866001440464945 0 1 0 I I #
face $-1 $446 $447 $43 $-1 $448 reversed single #
loop $-1 $-1 $449 $183 #
plane-surface $-1 0 -33.895940392653358 -9.0866001440464945 0 0 1 1 0 0 forward_v I I I I #
coedge $-1 $189 $450 $451 $452 forward $184 $-1 #
coedge $-1 $453 $186 $454 $455 reversed $117 $-1 #
coedge $-1 $186 $453 $309 $456 reversed $117 $-1 #
edge $-1 $310 6.0866001440464945 $457 9.0866001440464945 $186 $458 forward 7 unknown #
coedge $-1 $188 $187 $459 $460 forward $74 $-1 #
coedge $-1 $451 $461 $187 $308 forward $462 $-1 #
edge $-1 $463 -9.0866001440464945 $311 -6.0866001440464945 $307 $464 forward 7 unknown #
coedge $-1 $450 $189 $304 $456 forward $184 $-1 #
vertex $-1 $305 $465 #
vertex $-1 $452 $466 #
straight-curve $-1 0 -28.713357122483682 -6.0866001440464945 1 0 0 I I #
face $-1 $-1 $467 $44 $-1 $468 reversed single #
loop $-1 $-1 $469 $191 #
plane-surface $-1 0 28.713357122483682 0 0 -1 0 0 0 -1 forward_v I I I I #
coedge $-1 $470 $194 $196 $322 forward $121 $-1 #
coedge $-1 $194 $470 $469 $471 reversed $121 $-1 #
coedge $-1 $472 $197 $194 $319 forward $192 $-1 #
edge $-1 $325 7.7609715884375294 $473 16.55524755217661 $318 $474 forward 7 unknown #
coedge $-1 $475 $476 $195 $321 forward $467 $-1 #
edge $-1 $477 -41.064485395619776 $324 -37.075299345360264 $320 $478 forward 7 unknown #
edge $-1 $325 -5.6415609496500432 $477 2.0097183471152325e-014 $196 $479 forward 7 unknown #
coedge $-1 $197 $472 $475 $480 forward $192 $-1 #
vertex $-1 $321 $481 #
vertex $-1 $198 $482 #
straight-curve $-1 -74.879154640819124 19.9190811587446 9.5866001440464927 1 0 0 I I #
coedge $-1 $327 $327 $-1 $483 reversed $201 $-1 #
edge $-1 $484 0 $484 6.2831853071796004 $202 $485 forward 7 unknown #
vertex $-1 $205 $486 #
ellipse-curve $-1 -60.037329382066872 21.677936351492416 7.5920071189167384 -0.70710678939079041 0 0.70710677298230451 0.17677669324557613 0 0.1767766973476976 1 I I #
coedge $-1 $331 $331 $-1 $487 reversed $208 $-1 #
edge $-1 $488 0 $488 6.2831853071796004 $209 $489 forward 7 unknown #
vertex $-1 $212 $490 #
ellipse-curve $-1 -60.037329382066872 24.316219140614141 7.5920071189167384 -0.70710678939079041 0 0.70710677298230451 0.17677669324557613 0 0.1767766973476976 1 I I #
coedge $-1 $335 $335 $-1 $491 reversed $215 $-1 #
edge $-1 $492 0 $492 6.2831853071796004 $216 $493 forward 7 unknown #
vertex $-1 $219 $494 #
ellipse-curve $-1 -60.037329382066872 26.954501929735866 7.5920071189167384 -0.70710678939079041 0 0.70710677298230451 0.17677669324557613 0 0.1767766973476976 1 I I #
face $-1 $-1 $351 $48 $-1 $495 forward single #
loop $-1 $-1 $496 $220 #
plane-surface $-1 62.031922360911892 0 0 -1 0 0 0 0 1 forward_v I I I I #
coedge $-1 $497 $498 $499 $500 reversed $221 $-1 #
coedge $-1 $501 $223 $225 $349 forward $140 $-1 #
coedge $-1 $223 $501 $497 $502 forward $140 $-1 #
coedge $-1 $499 $226 $223 $346 forward $351 $-1 #
edge $-1 $353 1.4452018389573382 $503 8.8300017951026497 $345 $504 forward 7 unknown #
coedge $-1 $505 $506 $224 $348 forward $340 $-1 #
edge $-1 $507 -85.785761255265072 $352 -79.412759441943749 $347 $508 forward 7 unknown #
edge $-1 $353 115.74448178978052 $507 124.0638447218238 $225 $509 forward 7 unknown #
coedge $-1 $226 $499 $505 $510 forward $351 $-1 #
loop $-1 $-1 $499 $339 #
vertex $-1 $348 $511 #
vertex $-1 $227 $512 #
straight-curve $-1 38.66182062902962 -6.5828036559873322 9.5866001440464998 -1 0 0 I I #
coedge $-1 $355 $355 $-1 $513 reversed $230 $-1 #
edge $-1 $514 0 $514 6.2831853071796004 $231 $515 forward 7 unknown #
vertex $-1 $234 $516 #
ellipse-curve $-1 59.358130695389953 -10.275203634059984 6.4000992373858283 0.7660444514056185 0 0.64278759981090561 0.64278759981090561 0 -0.7660444514056185 1 I I #
face $-1 $-1 $371 $50 $-1 $517 forward single #
loop $-1 $-1 $518 $235 #
plane-surface $-1 62.031922360911892 0 0 -1 0 0 0 0 1 forward_v I I I I #
coedge $-1 $519 $520 $521 $522 reversed $236 $-1 #
coedge $-1 $523 $238 $240 $369 forward $149 $-1 #
coedge $-1 $238 $523 $519 $524 forward $149 $-1 #
coedge $-1 $521 $241 $238 $366 forward $371 $-1 #
edge $-1 $373 -3.7073937957858831 $525 3.6774061603594284 $365 $526 forward 7 unknown #
coedge $-1 $527 $528 $239 $368 forward $360 $-1 #
edge $-1 $529 -85.785761255265072 $372 -79.412759441943749 $367 $530 forward 7 unknown #
edge $-1 $373 115.74448178978052 $529 124.0638447218238 $240 $531 forward 7 unknown #
coedge $-1 $241 $521 $527 $532 forward $371 $-1 #
loop $-1 $-1 $521 $359 #
vertex $-1 $368 $533 #
vertex $-1 $242 $534 #
straight-curve $-1 38.66182062902962 3.7223876134991105 9.5866001440464998 -1 0 0 I I #
coedge $-1 $375 $375 $-1 $535 reversed $245 $-1 #
edge $-1 $536 0 $536 6.2831853071796004 $246 $537 forward 7 unknown #
vertex $-1 $249 $538 #
ellipse-curve $-1 59.358130695389953 0.029987635426454773 6.4000992373858283 0.7660444514056185 0 0.64278759981090561 0.64278759981090561 0 -0.7660444514056185 1 I I #
face $-1 $-1 $391 $52 $-1 $539 forward single #
loop $-1 $-1 $540 $250 #
plane-surface $-1 62.031922360911892 0 0 -1 0 0 0 0 1 forward_v I I I I #
coedge $-1 $541 $542 $543 $544 reversed $251 $-1 #
coedge $-1 $545 $253 $255 $389 forward $158 $-1 #
coedge $-1 $253 $545 $541 $546 forward $158 $-1 #
coedge $-1 $543 $256 $253 $386 forward $391 $-1 #
edge $-1 $393 -8.8599894305291045 $547 -1.475189474383793 $385 $548 forward 7 unknown #
coedge $-1 $549 $550 $254 $388 forward $380 $-1 #
edge $-1 $551 -85.785761255265072 $392 -79.412759441943749 $387 $552 forward 7 unknown #
edge $-1 $393 115.74448178978052 $551 124.0638447218238 $255 $553 forward 7 unknown #
coedge $-1 $256 $543 $549 $554 forward $391 $-1 #
loop $-1 $-1 $543 $379 #
vertex $-1 $388 $555 #
vertex $-1 $257 $556 #
straight-curve $-1 38.66182062902962 14.027578882985553 9.5866001440464998 -1 0 0 I I #
coedge $-1 $395 $395 $-1 $557 reversed $260 $-1 #
edge $-1 $558 0 $558 6.2831853071796004 $261 $559 forward 7 unknown #
vertex $-1 $264 $560 #
ellipse-curve $-1 59.358130695389953 10.335178904912897 6.4000992373858283 0.7660444514056185 0 0.64278759981090561 0.64278759981090561 0 -0.7660444514056185 1 I I #
face $-1 $-1 $411 $54 $-1 $561 forward single #
loop $-1 $-1 $562 $265 #
plane-surface $-1 62.031922360911892 0 0 -1 0 0 0 0 1 forward_v I I I I #
coedge $-1 $563 $564 $565 $566 reversed $266 $-1 #
coedge $-1 $567 $268 $270 $409 forward $167 $-1 #
coedge $-1 $268 $567 $563 $568 forward $167 $-1 #
coedge $-1 $565 $271 $268 $406 forward $411 $-1 #
edge $-1 $413 -14.012585065272324 $569 -6.6277851091270161 $405 $570 forward 7 unknown #
coedge $-1 $571 $572 $269 $408 forward $400 $-1 #
edge $-1 $573 -85.785761255265072 $412 -79.412759441943749 $407 $574 forward 7 unknown #
edge $-1 $413 115.74448178978052 $573 124.0638447218238 $270 $575 forward 7 unknown #
coedge $-1 $271 $565 $571 $576 forward $411 $-1 #
loop $-1 $-1 $565 $399 #
vertex $-1 $408 $577 #
vertex $-1 $272 $578 #
straight-curve $-1 38.66182062902962 24.332770152471994 9.5866001440464998 -1 0 0 I I #
coedge $-1 $415 $415 $-1 $579 reversed $275 $-1 #
edge $-1 $580 0 $580 6.2831853071796004 $276 $581 forward 7 unknown #
vertex $-1 $279 $582 #
ellipse-curve $-1 59.358130695389953 20.64037017439934 6.4000992373858283 0.7660444514056185 0 0.64278759981090561 0.64278759981090561 0 -0.7660444514056185 1 I I #
face $-1 $-1 $295 $42 $-1 $583 reversed single #
loop $-1 $-1 $435 $280 #
plane-surface $-1 0 28.713357122483682 0 0 -1 0 0 0 -1 forward_v I I I I #
coedge $-1 $584 $433 $436 $585 forward $281 $-1 #
coedge $-1 $439 $283 $284 $427 reversed $176 $-1 #
coedge $-1 $433 $584 $283 $425 reversed $281 $-1 #
edge $-1 $440 -9.5866001440464945 $586 9.5866001440464945 $424 $587 forward 7 unknown #
coedge $-1 $285 $284 $584 $588 forward $113 $-1 #
edge $-1 $431 -62.031922360911892 $586 62.031922360911892 $423 $589 forward 7 unknown #
coedge $-1 $436 $435 $285 $429 reversed $420 $-1 #
edge $-1 $590 -62.031922360911892 $430 62.031922360911892 $428 $591 forward 7 unknown #
vertex $-1 $287 $592 #
vertex $-1 $442 $593 #
straight-curve $-1 62.031922360911892 0 -9.5866001440464945 0 -1 0 I I #
coedge $-1 $422 $424 $288 $434 reversed $281 $-1 #
edge $-1 $437 -28.713357122483682 $440 28.713357122483682 $433 $594 forward 7 unknown #
coedge $-1 $428 $289 $294 $443 forward $420 $-1 #
coedge $-1 $289 $428 $422 $585 reversed $420 $-1 #
vertex $-1 $290 $595 #
straight-curve $-1 0 28.713357122483682 9.5866001440464945 -1 0 0 I I #
coedge $-1 $291 $423 $293 $442 reversed $176 $-1 #
vertex $-1 $434 $596 #
straight-curve $-1 0 -28.713357122483682 9.5866001440464945 1 0 0 I I #
edge $-1 $296 -9.5866001440464945 $431 9.5866001440464945 $293 $597 forward 7 unknown #
edge $-1 $297 -9.5866001440464945 $430 9.5866001440464945 $294 $598 forward 7 unknown #
point $-1 62.031922360911892 -28.713357122483682 9.5866001440464945 #
point $-1 62.031922360911892 28.713357122483682 9.5866001440464945 #
face $-1 $-1 $462 $43 $-1 $599 reversed single #
loop $-1 $-1 $600 $299 #
plane-surface $-1 0 -39.078523662823031 -7.5866001440464945 0 1 0 0 0 1 forward_v I I I I #
coedge $-1 $601 $459 $461 $602 forward $300 $-1 #
coedge $-1 $302 $309 $603 $604 forward $184 $-1 #
coedge $-1 $605 $307 $302 $452 reversed $462 $-1 #
edge $-1 $606 -5.1825832701696726 $311 5.1825832701696726 $451 $607 forward 7 unknown #
coedge $-1 $304 $303 $600 $608 reversed $117 $-1 #
coedge $-1 $459 $601 $303 $455 forward $300 $-1 #
edge $-1 $609 -5.1825832701696726 $457 5.1825832701696726 $303 $610 forward 7 unknown #
edge $-1 $310 -5.1825832701696726 $611 5.1825832701696726 $304 $612 forward 7 unknown #
vertex $-1 $305 $613 #
straight-curve $-1 -62.031922360911892 -28.713357122483682 0 0 0 -1 I I #
coedge $-1 $449 $454 $306 $460 reversed $300 $-1 #
edge $-1 $463 -62.031922360911892 $457 62.031922360911892 $459 $614 forward 7 unknown #
coedge $-1 $307 $605 $449 $602 reversed $462 $-1 #
loop $-1 $-1 $307 $446 #
vertex $-1 $308 $615 #
straight-curve $-1 62.031922360911892 -28.713357122483682 0 0 0 1 I I #
point $-1 -62.031922360911892 -28.713357122483686 -6.0866001440464945 #
point $-1 62.031922360911892 -28.713357122483686 -6.0866001440464945 #
loop $-1 $-1 $320 $313 #
plane-surface $-1 -62.031922360911892 0 0 1 0 0 0 0 -1 forward_v I I I I #
coedge $-1 $616 $617 $317 $471 forward $314 $-1 #
coedge $-1 $317 $316 $476 $618 reversed $121 $-1 #
edge $-1 $473 14.311050517232346 $619 19.952611466882409 $469 $620 forward 7 unknown #
coedge $-1 $323 $318 $617 $621 forward $192 $-1 #
vertex $-1 $621 $622 #
straight-curve $-1 -58.042736403221852 12.158109570307071 9.5866001440464927 0 1 0 I I #
coedge $-1 $623 $320 $323 $480 reversed $467 $-1 #
coedge $-1 $320 $623 $470 $618 forward $467 $-1 #
vertex $-1 $321 $624 #
straight-curve $-1 -62.031922360911892 19.9190811587446 46.661899489406757 0 0 1 I I #
straight-curve $-1 -62.031922360911878 19.9190811587446 5.5974140937869947 -0.70710677298230451 0 -0.70710678939079041 I I #
edge $-1 $625 -28.713357122483682 $324 -19.9190811587446 $475 $626 forward 7 unknown #
point $-1 -62.031922360911892 19.9190811587446 9.5866001440464945 #
point $-1 -58.042736403221852 19.9190811587446 9.5866001440464945 #
edge $-1 $627 1 $627 0 $327 $-1 forward 7 unknown #
vertex $-1 $328 $628 #
ellipse-curve $-1 -59.330222592676087 21.677936351492416 6.8849003459344411 -0.70710678939079041 0 0.70710677298230451 0.17677669324557613 0 0.1767766973476976 1 I I #
point $-1 -59.860552688821308 21.677936351492416 7.7687838162644427 #
edge $-1 $629 1 $629 0 $331 $-1 forward 7 unknown #
vertex $-1 $332 $630 #
ellipse-curve $-1 -59.330222592676087 24.316219140614141 6.8849003459344411 -0.70710678939079041 0 0.70710677298230451 0.17677669324557613 0 0.1767766973476976 1 I I #
point $-1 -59.860552688821308 24.316219140614141 7.7687838162644427 #
edge $-1 $631 1 $631 0 $335 $-1 forward 7 unknown #
vertex $-1 $336 $632 #
ellipse-curve $-1 -59.330222592676087 26.954501929735866 6.8849003459344411 -0.70710678939079041 0 0.70710677298230451 0.17677669324557613 0 0.1767766973476976 1 I I #
point $-1 -59.860552688821308 26.954501929735866 7.7687838162644427 #
plane-surface $-1 0 0 9.5866001440464945 0 0 1 1 0 0 forward_v I I I I #
coedge $-1 $506 $505 $498 $633 forward $340 $-1 #
coedge $-1 $498 $342 $344 $502 reversed $221 $-1 #
coedge $-1 $342 $497 $496 $633 reversed $221 $-1 #
coedge $-1 $350 $345 $342 $500 forward $351 $-1 #
edge $-1 $503 18.022518400838365 $634 23.370101731882272 $499 $635 forward 7 unknown #
coedge $-1 $344 $343 $506 $636 reversed $140 $-1 #
edge $-1 $637 -124.0638447218238 $503 -115.74448178978052 $497 $638 forward 7 unknown #
vertex $-1 $346 $639 #
straight-curve $-1 56.684339029867985 -5.137601817029994 9.5866001440464856 0 -1 0 I I #
coedge $-1 $496 $347 $350 $510 reversed $340 $-1 #
coedge $-1 $347 $496 $501 $636 forward $340 $-1 #
vertex $-1 $348 $640 #
straight-curve $-1 62.031922360911892 -6.5828036559873322 88.999359585990248 0 0 1 I I #
straight-curve $-1 -17.714778611142094 -6.5828036559873322 98.252018199926496 0.64278759981090561 0 -0.7660444514056185 I I #
edge $-1 $634 -13.967603612132644 $352 -6.5828036559873322 $505 $641 forward 7 unknown #
point $-1 62.031922360911892 -6.5828036559873322 9.5866001440464945 #
point $-1 56.684339029867985 -6.5828036559873322 9.5866001440464998 #
edge $-1 $642 1 $642 0 $355 $-1 forward 7 unknown #
vertex $-1 $356 $643 #
ellipse-curve $-1 58.561156442378739 -10.275203634059984 5.7313584531347672 0.7660444514056185 0 0.64278759981090561 0.64278759981090561 0 -0.7660444514056185 1 I I #
point $-1 60.000918295200833 -10.275203634059984 5.6340547859801866 #
plane-surface $-1 0 0 9.5866001440464945 0 0 1 1 0 0 forward_v I I I I #
coedge $-1 $528 $527 $520 $644 forward $360 $-1 #
coedge $-1 $520 $362 $364 $524 reversed $236 $-1 #
coedge $-1 $362 $519 $518 $644 reversed $236 $-1 #
coedge $-1 $370 $365 $362 $522 forward $371 $-1 #
edge $-1 $525 18.022518400838365 $645 23.370101731882272 $521 $646 forward 7 unknown #
coedge $-1 $364 $363 $528 $647 reversed $149 $-1 #
edge $-1 $648 -124.0638447218238 $525 -115.74448178978052 $519 $649 forward 7 unknown #
vertex $-1 $366 $650 #
straight-curve $-1 56.684339029867985 0.014993817713227386 9.5866001440464856 0 -1 0 I I #
coedge $-1 $518 $367 $370 $532 reversed $360 $-1 #
coedge $-1 $367 $518 $523 $647 forward $360 $-1 #
vertex $-1 $368 $651 #
straight-curve $-1 62.031922360911892 3.7223876134991105 88.999359585990248 0 0 1 I I #
straight-curve $-1 -17.714778611142094 3.7223876134991105 98.252018199926496 0.64278759981090561 0 -0.7660444514056185 I I #
edge $-1 $645 -3.662412342646201 $372 3.7223876134991105 $527 $652 forward 7 unknown #
point $-1 62.031922360911892 3.7223876134991105 9.5866001440464945 #
point $-1 56.684339029867985 3.7223876134991105 9.5866001440464998 #
edge $-1 $653 1 $653 0 $375 $-1 forward 7 unknown #
vertex $-1 $376 $654 #
ellipse-curve $-1 58.561156442378739 0.029987635426454773 5.7313584531347672 0.7660444514056185 0 0.64278759981090561 0.64278759981090561 0 -0.7660444514056185 1 I I #
point $-1 60.000918295200833 0.029987635426454773 5.6340547859801866 #
plane-surface $-1 0 0 9.5866001440464945 0 0 1 1 0 0 forward_v I I I I #
coedge $-1 $550 $549 $542 $655 forward $380 $-1 #
coedge $-1 $542 $382 $384 $546 reversed $251 $-1 #
coedge $-1 $382 $541 $540 $655 reversed $251 $-1 #
coedge $-1 $390 $385 $382 $544 forward $391 $-1 #
edge $-1 $547 18.022518400838365 $656 23.370101731882272 $543 $657 forward 7 unknown #
coedge $-1 $384 $383 $550 $658 reversed $158 $-1 #
edge $-1 $659 -124.0638447218238 $547 -115.74448178978052 $541 $660 forward 7 unknown #
vertex $-1 $386 $661 #
straight-curve $-1 56.684339029867985 5.1675894524564487 9.5866001440464856 0 -1 0 I I #
coedge $-1 $540 $387 $390 $554 reversed $380 $-1 #
coedge $-1 $387 $540 $545 $658 forward $380 $-1 #
vertex $-1 $388 $662 #
straight-curve $-1 62.031922360911892 14.027578882985553 88.999359585990248 0 0 1 I I #
straight-curve $-1 -17.714778611142094 14.027578882985553 98.252018199926496 0.64278759981090561 0 -0.7660444514056185 I I #
edge $-1 $656 6.6427789268402417 $392 14.027578882985553 $549 $663 forward 7 unknown #
point $-1 62.031922360911892 14.027578882985553 9.5866001440464945 #
point $-1 56.684339029867985 14.027578882985553 9.5866001440464998 #
edge $-1 $664 1 $664 0 $395 $-1 forward 7 unknown #
vertex $-1 $396 $665 #
ellipse-curve $-1 58.561156442378739 10.335178904912897 5.7313584531347672 0.7660444514056185 0 0.64278759981090561 0.64278759981090561 0 -0.7660444514056185 1 I I #
point $-1 60.000918295200833 10.335178904912897 5.6340547859801866 #
plane-surface $-1 0 0 9.5866001440464945 0 0 1 1 0 0 forward_v I I I I #
coedge $-1 $572 $571 $564 $666 forward $400 $-1 #
coedge $-1 $564 $402 $404 $568 reversed $266 $-1 #
coedge $-1 $402 $563 $562 $666 reversed $266 $-1 #
coedge $-1 $410 $405 $402 $566 forward $411 $-1 #
edge $-1 $569 18.022518400838365 $667 23.370101731882272 $565 $668 forward 7 unknown #
coedge $-1 $404 $403 $572 $669 reversed $167 $-1 #
edge $-1 $670 -124.0638447218238 $569 -115.74448178978052 $563 $671 forward 7 unknown #
vertex $-1 $406 $672 #
straight-curve $-1 56.684339029867985 10.32018508719967 9.5866001440464856 0 -1 0 I I #
coedge $-1 $562 $407 $410 $576 reversed $400 $-1 #
coedge $-1 $407 $562 $567 $669 forward $400 $-1 #
vertex $-1 $408 $673 #
straight-curve $-1 62.031922360911892 24.332770152471994 88.999359585990248 0 0 1 I I #
straight-curve $-1 -17.714778611142094 24.332770152471994 98.252018199926496 0.64278759981090561 0 -0.7660444514056185 I I #
edge $-1 $667 16.947970196326686 $412 24.332770152471994 $571 $674 forward 7 unknown #
point $-1 62.031922360911892 24.332770152471994 9.5866001440464945 #
point $-1 56.684339029867985 24.332770152471994 9.5866001440464998 #
edge $-1 $675 1 $675 0 $415 $-1 forward 7 unknown #
vertex $-1 $416 $676 #
ellipse-curve $-1 58.561156442378739 20.64037017439934 5.7313584531347672 0.7660444514056185 0 0.64278759981090561 0.64278759981090561 0 -0.7660444514056185 1 I I #
point $-1 60.000918295200833 20.64037017439934 5.6340547859801866 #
plane-surface $-1 62.031922360911892 0 0 -1 0 0 0 0 1 forward_v I I I I #
coedge $-1 $424 $422 $426 $588 reversed $281 $-1 #
edge $-1 $437 -9.5866001440464945 $590 9.5866001440464945 $436 $677 forward 7 unknown #
vertex $-1 $588 $678 #
straight-curve $-1 -62.031922360911892 -28.713357122483682 0 0 0 -1 I I #
edge $-1 $586 -28.713357122483682 $590 28.713357122483682 $584 $679 forward 7 unknown #
straight-curve $-1 0 -28.713357122483682 -9.5866001440464945 -1 0 0 I I #
vertex $-1 $429 $680 #
straight-curve $-1 0 28.713357122483682 -9.5866001440464945 1 0 0 I I #
point $-1 62.031922360911892 28.713357122483682 -9.5866001440464945 #
point $-1 62.031922360911892 -28.713357122483682 -9.5866001440464945 #
straight-curve $-1 -62.031922360911892 0 9.5866001440464945 0 -1 0 I I #
point $-1 -62.031922360911892 28.713357122483682 9.5866001440464945 #
point $-1 -62.031922360911892 -28.713357122483682 9.5866001440464945 #
straight-curve $-1 62.031922360911892 -28.713357122483682 0 0 0 -1 I I #
straight-curve $-1 62.031922360911892 28.713357122483682 0 0 0 -1 I I #
plane-surface $-1 62.031922360911892 0 0 -1 0 0 0 0 1 forward_v I I I I #
coedge $-1 $681 $603 $453 $608 forward $447 $-1 #
coedge $-1 $454 $449 $681 $682 forward $300 $-1 #
edge $-1 $463 -5.1825832701696726 $683 5.1825832701696726 $461 $684 forward 7 unknown #
coedge $-1 $600 $685 $450 $604 reversed $447 $-1 #
edge $-1 $611 -62.031922360911892 $606 62.031922360911892 $603 $686 forward 7 unknown #
coedge $-1 $461 $451 $685 $687 forward $462 $-1 #
vertex $-1 $452 $688 #
straight-curve $-1 62.031922360911892 -33.895940392653358 -6.0866001440464945 0 1 0 I I #
edge $-1 $611 -1.5 $609 1.5 $453 $689 forward 7 unknown #
vertex $-1 $455 $690 #
straight-curve $-1 -62.031922360911892 -33.895940392653358 -9.0866001440464945 0 1 0 I I #
vertex $-1 $456 $691 #
straight-curve $-1 -62.031922360911892 -33.895940392653358 -6.0866001440464945 0 -1 0 I I #
point $-1 -62.031922360911892 -28.713357122483686 -9.0866001440464945 #
straight-curve $-1 0 -28.713357122483682 -9.0866001440464945 -1 0 0 I I #
point $-1 62.031922360911892 -28.713357122483686 -9.0866001440464945 #
coedge $-1 $617 $469 $623 $692 reversed $314 $-1 #
coedge $-1 $469 $616 $472 $621 reversed $314 $-1 #
edge $-1 $619 -16.55524755217661 $477 -7.7609715884375294 $476 $693 forward 7 unknown #
vertex $-1 $471 $694 #
straight-curve $-1 -47.923295653994948 28.713357122483682 19.706041128096068 -0.70710677298230462 0 -0.70710678939079052 I I #
edge $-1 $473 58.042736403221852 $625 62.031922360911892 $617 $695 forward 7 unknown #
point $-1 -58.042736403221852 28.713357122483682 9.5866001440464945 #
coedge $-1 $476 $475 $616 $692 forward $467 $-1 #
point $-1 -62.031922360911892 19.9190811587446 5.5974140937869805 #
vertex $-1 $621 $696 #
straight-curve $-1 -62.031922360911892 0 9.5866001440464945 0 -1 0 I I #
vertex $-1 $483 $697 #
point $-1 -59.153445899430515 21.677936351492416 7.0616770432821383 #
vertex $-1 $487 $698 #
point $-1 -59.153445899430515 24.316219140614141 7.0616770432821383 #
vertex $-1 $491 $699 #
point $-1 -59.153445899430515 26.954501929735866 7.0616770432821383 #
edge $-1 $634 79.412759441943749 $637 85.785761255265072 $496 $700 forward 7 unknown #
vertex $-1 $510 $701 #
straight-curve $-1 38.66182062902962 -13.967603612132644 9.5866001440464998 1 0 0 I I #
edge $-1 $637 -8.8300017951026497 $507 -1.4452018389573382 $506 $702 forward 7 unknown #
vertex $-1 $636 $703 #
straight-curve $-1 -17.714778611142094 -13.967603612132644 98.252018199926496 -0.64278759981090561 0 0.7660444514056185 I I #
point $-1 56.684339029867985 -13.967603612132644 9.5866001440464998 #
point $-1 62.031922360911892 -6.5828036559873322 3.2135983307251763 #
straight-curve $-1 62.031922360911892 0 9.5866001440464945 0 1 0 I I #
vertex $-1 $513 $704 #
point $-1 59.203944042189647 -10.275203634059984 4.9653140017291486 #
edge $-1 $645 79.412759441943749 $648 85.785761255265072 $518 $705 forward 7 unknown #
vertex $-1 $532 $706 #
straight-curve $-1 38.66182062902962 -3.662412342646201 9.5866001440464998 1 0 0 I I #
edge $-1 $648 -3.6774061603594284 $529 3.7073937957858831 $528 $707 forward 7 unknown #
vertex $-1 $647 $708 #
straight-curve $-1 -17.714778611142094 -3.662412342646201 98.252018199926496 -0.64278759981090561 0 0.7660444514056185 I I #
point $-1 56.684339029867985 -3.662412342646201 9.5866001440464998 #
point $-1 62.031922360911892 3.7223876134991105 3.2135983307251763 #
straight-curve $-1 62.031922360911892 0 9.5866001440464945 0 1 0 I I #
vertex $-1 $535 $709 #
point $-1 59.203944042189647 0.029987635426454773 4.9653140017291486 #
edge $-1 $656 79.412759441943749 $659 85.785761255265072 $540 $710 forward 7 unknown #
vertex $-1 $554 $711 #
straight-curve $-1 38.66182062902962 6.6427789268402417 9.5866001440464998 1 0 0 I I #
edge $-1 $659 1.475189474383793 $551 8.8599894305291045 $550 $712 forward 7 unknown #
vertex $-1 $658 $713 #
straight-curve $-1 -17.714778611142094 6.6427789268402417 98.252018199926496 -0.64278759981090561 0 0.7660444514056185 I I #
point $-1 56.684339029867985 6.6427789268402417 9.5866001440464998 #
point $-1 62.031922360911892 14.027578882985553 3.2135983307251763 #
straight-curve $-1 62.031922360911892 0 9.5866001440464945 0 1 0 I I #
vertex $-1 $557 $714 #
point $-1 59.203944042189647 10.335178904912897 4.9653140017291486 #
edge $-1 $667 79.412759441943749 $670 85.785761255265072 $562 $715 forward 7 unknown #
vertex $-1 $576 $716 #
straight-curve $-1 38.66182062902962 16.947970196326686 9.5866001440464998 1 0 0 I I #
edge $-1 $670 6.6277851091270161 $573 14.012585065272324 $572 $717 forward 7 unknown #
vertex $-1 $669 $718 #
straight-curve $-1 -17.714778611142094 16.947970196326686 98.252018199926496 -0.64278759981090561 0 0.7660444514056185 I I #
point $-1 56.684339029867985 16.947970196326686 9.5866001440464998 #
point $-1 62.031922360911892 24.332770152471994 3.2135983307251763 #
straight-curve $-1 62.031922360911892 0 9.5866001440464945 0 1 0 I I #
vertex $-1 $579 $719 #
point $-1 59.203944042189647 20.64037017439934 4.9653140017291486 #
straight-curve $-1 -62.031922360911892 28.713357122483682 0 0 0 -1 I I #
point $-1 -62.031922360911892 -28.713357122483682 -9.5866001440464945 #
straight-curve $-1 -62.031922360911892 0 -9.5866001440464945 0 1 0 I I #
point $-1 -62.031922360911892 28.713357122483682 -9.5866001440464945 #
coedge $-1 $685 $600 $601 $682 reversed $447 $-1 #
edge $-1 $683 -62.031922360911892 $609 62.031922360911892 $681 $720 forward 7 unknown #
vertex $-1 $687 $721 #
straight-curve $-1 62.031922360911892 -33.895940392653358 -9.0866001440464945 0 -1 0 I I #
coedge $-1 $603 $681 $605 $687 reversed $447 $-1 #
straight-curve $-1 0 -39.078523662823031 -6.0866001440464945 1 0 0 I I #
edge $-1 $606 -1.5 $683 1.5 $605 $722 forward 7 unknown #
point $-1 62.031922360911892 -39.078523662823031 -6.0866001440464945 #
straight-curve $-1 -62.031922360911892 -39.078523662823031 -7.5866001440464945 0 0 -1 I I #
point $-1 -62.031922360911892 -39.078523662823031 -9.0866001440464945 #
point $-1 -62.031922360911892 -39.078523662823031 -6.0866001440464945 #
edge $-1 $625 -9.5866001440464945 $619 -5.5974140937869805 $616 $723 forward 7 unknown #
straight-curve $-1 -62.031922360911892 12.158109570307071 5.597414093786977 0 -1 0 I I #
point $-1 -62.031922360911892 28.713357122483682 5.5974140937869805 #
straight-curve $-1 0 28.713357122483682 9.5866001440464945 -1 0 0 I I #
point $-1 -62.031922360911892 28.713357122483682 9.5866001440464945 #
point $-1 -59.153445895328396 21.677936351492416 6.7081236526888643 #
point $-1 -59.153445895328396 24.316219140614141 6.7081236526888643 #
point $-1 -59.153445895328396 26.954501929735866 6.7081236526888643 #
straight-curve $-1 62.031922360911892 -13.967603612132644 88.999359585990248 0 0 -1 I I #
point $-1 62.031922360911892 -13.967603612132644 9.5866001440464945 #
straight-curve $-1 62.031922360911892 -5.137601817029994 3.2135983307251692 0 1 0 I I #
point $-1 62.031922360911892 -13.967603612132644 3.2135983307251763 #
point $-1 57.795111990973119 -10.275203634059984 5.0885708533238621 #
straight-curve $-1 62.031922360911892 -3.662412342646201 88.999359585990248 0 0 -1 I I #
point $-1 62.031922360911892 -3.662412342646201 9.5866001440464945 #
straight-curve $-1 62.031922360911892 0.014993817713227386 3.2135983307251692 0 1 0 I I #
point $-1 62.031922360911892 -3.662412342646201 3.2135983307251763 #
point $-1 57.795111990973119 0.029987635426454773 5.0885708533238621 #
straight-curve $-1 62.031922360911892 6.6427789268402417 88.999359585990248 0 0 -1 I I #
point $-1 62.031922360911892 6.6427789268402417 9.5866001440464945 #
straight-curve $-1 62.031922360911892 5.1675894524564487 3.2135983307251692 0 1 0 I I #
point $-1 62.031922360911892 6.6427789268402417 3.2135983307251763 #
point $-1 57.795111990973119 10.335178904912897 5.0885708533238621 #
straight-curve $-1 62.031922360911892 16.947970196326686 88.999359585990248 0 0 -1 I I #
point $-1 62.031922360911892 16.947970196326686 9.5866001440464945 #
straight-curve $-1 62.031922360911892 10.32018508719967 3.2135983307251692 0 1 0 I I #
point $-1 62.031922360911892 16.947970196326686 3.2135983307251763 #
point $-1 57.795111990973119 20.64037017439934 5.0885708533238621 #
straight-curve $-1 0 -39.078523662823031 -9.0866001440464945 -1 0 0 I I #
point $-1 62.031922360911892 -39.078523662823031 -9.0866001440464945 #
straight-curve $-1 62.031922360911892 -39.078523662823031 -7.5866001440464945 0 0 -1 I I #
straight-curve $-1 -62.031922360911892 28.713357122483682 0 0 0 -1 I I #
End-of-ACIS-data 