500 0 12 0           
7 Unknown 11 ACIS 5.0 NT 24 Fri Mar 26 02:16:51 1999 
-1 9.9999999999999995e-007 1e-010 
body $-1 $12 $-1 $13 #
body $-1 $14 $-1 $15 #
body $-1 $16 $-1 $17 #
body $-1 $18 $-1 $19 #
body $-1 $20 $-1 $21 #
body $-1 $22 $-1 $23 #
body $-1 $24 $-1 $25 #
body $-1 $26 $-1 $27 #
body $-1 $28 $-1 $29 #
body $-1 $30 $-1 $31 #
body $-1 $32 $-1 $33 #
body $-1 $34 $-1 $35 #
lump $-1 $-1 $36 $0 #
transform $-1 1 0 0 0 1 0 0 0 1 44.256721701712088 19.532142995848538 7.1755753575587011 1 rotate no_reflect no_shear #
lump $-1 $-1 $37 $1 #
transform $-1 1 0 0 0 1 0 0 0 1 44.256721701712088 19.532142995848538 7.1755753575587011 1 rotate no_reflect no_shear #
lump $-1 $-1 $38 $2 #
transform $-1 1 0 0 0 1 0 0 0 1 44.256721701712088 19.532142995848538 7.1755753575587011 1 rotate no_reflect no_shear #
lump $-1 $-1 $39 $3 #
transform $-1 1 0 0 0 1 0 0 0 1 44.256721701712088 19.532142995848538 7.1755753575587011 1 rotate no_reflect no_shear #
lump $-1 $-1 $40 $4 #
transform $-1 1 0 0 0 1 0 0 0 1 44.256721701712088 19.532142995848538 7.1755753575587011 1 rotate no_reflect no_shear #
lump $-1 $-1 $41 $5 #
transform $-1 1 0 0 0 1 0 0 0 1 44.256721701712088 19.532142995848538 7.1755753575587011 1 rotate no_reflect no_shear #
lump $-1 $-1 $42 $6 #
transform $-1 1 0 0 0 1 0 0 0 1 44.256721701712088 19.532142995848538 7.1755753575587011 1 rotate no_reflect no_shear #
lump $-1 $-1 $43 $7 #
transform $-1 1 0 0 0 1 0 0 0 1 44.256721701712088 19.532142995848538 7.1755753575587011 1 rotate no_reflect no_shear #
lump $-1 $-1 $44 $8 #
transform $-1 1 0 0 0 1 0 0 0 1 44.256721701712088 19.532142995848538 7.1755753575587011 1 rotate no_reflect no_shear #
lump $-1 $-1 $45 $9 #
transform $-1 1 0 0 0 1 0 0 0 1 44.256721701712088 19.532142995848538 7.1755753575587011 1 rotate no_reflect no_shear #
lump $-1 $-1 $46 $10 #
transform $-1 1 0 0 0 1 0 0 0 1 44.256721701712088 19.532142995848538 7.1755753575587011 1 rotate no_reflect no_shear #
lump $-1 $-1 $47 $11 #
transform $-1 1 0 0 0 1 0 0 0 1 44.256721701712088 19.532142995848538 7.1755753575587011 1 rotate no_reflect no_shear #
shell $-1 $-1 $-1 $48 $-1 $12 #
shell $-1 $-1 $-1 $49 $-1 $14 #
shell $-1 $-1 $-1 $50 $-1 $16 #
shell $-1 $-1 $-1 $51 $-1 $18 #
shell $-1 $-1 $-1 $52 $-1 $20 #
shell $-1 $-1 $-1 $53 $-1 $22 #
shell $-1 $-1 $-1 $54 $-1 $24 #
shell $-1 $-1 $-1 $55 $-1 $26 #
shell $-1 $-1 $-1 $56 $-1 $28 #
shell $-1 $-1 $-1 $57 $-1 $30 #
shell $-1 $-1 $-1 $58 $-1 $32 #
shell $-1 $-1 $-1 $59 $-1 $34 #
face $-1 $60 $61 $36 $-1 $62 reversed single #
face $-1 $63 $64 $37 $-1 $65 forward single #
face $-1 $66 $67 $38 $-1 $68 reversed single #
face $-1 $69 $70 $39 $-1 $71 forward single #
face $-1 $72 $73 $40 $-1 $74 forward single #
face $-1 $75 $76 $41 $-1 $77 reversed single #
face $-1 $78 $79 $42 $-1 $80 forward single #
face $-1 $81 $82 $43 $-1 $83 forward single #
face $-1 $84 $85 $44 $-1 $86 reversed single #
face $-1 $87 $88 $45 $-1 $89 forward single #
face $-1 $90 $91 $46 $-1 $92 forward single #
face $-1 $93 $94 $47 $-1 $95 forward single #
face $-1 $96 $97 $36 $-1 $98 forward single #
loop $-1 $-1 $99 $48 #
plane-surface $-1 -44.256721701712088 0 0 1 0 0 0 0 -1 forward_v I I I I #
face $-1 $100 $101 $37 $-1 $102 reversed single #
loop $-1 $-1 $103 $49 #
plane-surface $-1 -44.256721701712088 0 0 1 0 0 0 0 -1 forward_v I I I I #
face $-1 $104 $105 $38 $-1 $106 reversed single #
loop $-1 $-1 $107 $50 #
plane-surface $-1 -27.353652587813549 34.977953290554296 97.081177745938419 1 0 0 0 -0.54463904215088732 -0.83867056331134215 forward_v I I I I #
face $-1 $108 $109 $39 $-1 $110 forward single #
loop $-1 $111 $112 $51 #
cone-surface $-1 -23.352258425074567 14.470970098819182 3.2240776382796623 0 -0.54463904215088732 -0.83867056331134215 1 0 0 1 I I 0 1 1 forward I I I I #
face $-1 $113 $114 $40 $-1 $115 forward single #
loop $-1 $116 $117 $52 #
cone-surface $-1 -17.350167180966096 14.470970098819182 3.2240776382796623 0 -0.54463904215088732 -0.83867056331134215 1 0 0 1 I I 0 1 1 forward I I I I #
face $-1 $118 $119 $41 $-1 $120 reversed single #
loop $-1 $-1 $121 $53 #
plane-surface $-1 22.532624764929494 34.977953290554296 97.081177745938419 1 0 0 0 -0.54463904215088732 -0.83867056331134215 forward_v I I I I #
face $-1 $122 $123 $42 $-1 $124 forward single #
loop $-1 $125 $126 $54 #
cone-surface $-1 26.534018927668477 14.470970098819182 3.2240776382796623 0 -0.54463904215088732 -0.83867056331134215 1 0 0 1 I I 0 1 1 forward I I I I #
face $-1 $127 $128 $43 $-1 $129 forward single #
loop $-1 $130 $131 $55 #
cone-surface $-1 32.536110171776947 14.470970098819182 3.2240776382796623 0 -0.54463904215088732 -0.83867056331134215 1 0 0 1 I I 0 1 1 forward I I I I #
face $-1 $132 $133 $44 $-1 $134 reversed single #
loop $-1 $-1 $135 $56 #
plane-surface $-1 -12.237798087732671 -76.427488405561405 70.895082727574476 -1 0 0 0 -0.64278761758704617 0.76604443648966558 forward_v I I I I #
face $-1 $136 $137 $45 $-1 $138 forward single #
loop $-1 $139 $140 $57 #
cone-surface $-1 -26.429822572479615 -15.846319398171378 3.641548857176041 0 0.64278761758704617 -0.76604443648966558 1 0 0 1 I I 0 1 1 forward I I I I #
face $-1 $141 $142 $46 $-1 $143 forward single #
loop $-1 $144 $145 $58 #
cone-surface $-1 -21.107813390699512 -15.846319398171378 3.641548857176041 0 0.64278761758704617 -0.76604443648966558 1 0 0 1 I I 0 1 1 forward I I I I #
face $-1 $146 $147 $47 $-1 $148 forward single #
loop $-1 $149 $150 $59 #
cone-surface $-1 -15.785804208919409 -15.846319398171378 3.641548857176041 0 0.64278761758704617 -0.76604443648966558 1 0 0 1 I I 0 1 1 forward I I I I #
face $-1 $151 $152 $36 $-1 $153 reversed single #
loop $-1 $-1 $154 $60 #
plane-surface $-1 0 0 7.1755753575587011 0 0 1 1 0 0 forward_v I I I I #
coedge $-1 $155 $156 $157 $158 reversed $61 $-1 #
face $-1 $159 $160 $37 $-1 $161 reversed single #
loop $-1 $-1 $162 $63 #
plane-surface $-1 0 0 -7.1755753575587011 0 0 1 1 0 0 forward_v I I I I #
coedge $-1 $163 $164 $165 $166 forward $64 $-1 #
face $-1 $167 $168 $38 $-1 $169 reversed single #
loop $-1 $-1 $170 $66 #
plane-surface $-1 -20.351212803020331 -13.229923742163422 22.847558306162057 0 0.54463904215088732 0.83867056331134215 1 0 0 forward_v I I I I #
coedge $-1 $171 $172 $173 $174 reversed $67 $-1 #
face $-1 $-1 $175 $39 $-1 $176 forward single #
loop $-1 $177 $178 $69 #
cone-surface $-1 -23.352258425074567 13.452142546459804 1.6552208154563832 0 -0.54463904215088732 -0.83867056331134215 0.5 0 0 1 I I -0.70710678118654746 0.70710678118654746 0.5 forward I I I I #
loop $-1 $-1 $179 $51 #
coedge $-1 $112 $112 $180 $181 reversed $70 $-1 #
face $-1 $-1 $182 $40 $-1 $183 forward single #
loop $-1 $184 $185 $72 #
cone-surface $-1 -17.350167180966096 13.452142546459804 1.6552208154563832 0 -0.54463904215088732 -0.83867056331134215 0.5 0 0 1 I I -0.70710678118654746 0.70710678118654746 0.5 forward I I I I #
loop $-1 $-1 $186 $52 #
coedge $-1 $117 $117 $187 $188 reversed $73 $-1 #
face $-1 $189 $190 $41 $-1 $191 reversed single #
loop $-1 $-1 $192 $75 #
plane-surface $-1 29.535064549722712 -13.229923742163422 22.847558306162057 0 0.54463904215088732 0.83867056331134215 1 0 0 forward_v I I I I #
coedge $-1 $193 $194 $195 $196 reversed $76 $-1 #
face $-1 $-1 $197 $42 $-1 $198 forward single #
loop $-1 $199 $200 $78 #
cone-surface $-1 26.534018927668477 13.452142546459804 1.6552208154563832 0 -0.54463904215088732 -0.83867056331134215 0.5 0 0 1 I I -0.70710678118654746 0.70710678118654746 0.5 forward I I I I #
loop $-1 $-1 $201 $54 #
coedge $-1 $126 $126 $202 $203 reversed $79 $-1 #
face $-1 $-1 $204 $43 $-1 $205 forward single #
loop $-1 $206 $207 $81 #
cone-surface $-1 32.536110171776947 13.452142546459804 1.6552208154563832 0 -0.54463904215088732 -0.83867056331134215 0.5 0 0 1 I I -0.70710678118654746 0.70710678118654746 0.5 forward I I I I #
loop $-1 $-1 $208 $55 #
coedge $-1 $131 $131 $209 $210 reversed $82 $-1 #
face $-1 $211 $212 $44 $-1 $213 reversed single #
loop $-1 $-1 $214 $84 #
plane-surface $-1 -21.107813390699512 -19.532142995848531 3.0898518538384963 0 -0.64278761758704617 0.76604443648966558 1 0 0 forward_v I I I I #
coedge $-1 $215 $216 $217 $218 reversed $85 $-1 #
face $-1 $-1 $219 $45 $-1 $220 forward single #
loop $-1 $221 $222 $87 #
cone-surface $-1 -26.429822572479615 -14.273689772660934 1.7673618904086528 0 0.64278761758704617 -0.76604443648966558 0.5 0 0 1 I I -0.70710678118654746 0.70710678118654746 0.5 forward I I I I #
loop $-1 $-1 $223 $57 #
coedge $-1 $140 $140 $224 $225 reversed $88 $-1 #
face $-1 $-1 $226 $46 $-1 $227 forward single #
loop $-1 $228 $229 $90 #
cone-surface $-1 -21.107813390699512 -14.273689772660934 1.7673618904086528 0 0.64278761758704617 -0.76604443648966558 0.5 0 0 1 I I -0.70710678118654746 0.70710678118654746 0.5 forward I I I I #
loop $-1 $-1 $230 $58 #
coedge $-1 $145 $145 $231 $232 reversed $91 $-1 #
face $-1 $-1 $233 $47 $-1 $234 forward single #
loop $-1 $235 $236 $93 #
cone-surface $-1 -15.785804208919409 -14.273689772660934 1.7673618904086528 0 0.64278761758704617 -0.76604443648966558 0.5 0 0 1 I I -0.70710678118654746 0.70710678118654746 0.5 forward I I I I #
loop $-1 $-1 $237 $59 #
coedge $-1 $150 $150 $238 $239 reversed $94 $-1 #
face $-1 $240 $241 $36 $-1 $242 reversed single #
loop $-1 $-1 $243 $96 #
plane-surface $-1 0 0 -7.1755753575587011 0 0 1 1 0 0 forward_v I I I I #
coedge $-1 $244 $245 $246 $247 forward $97 $-1 #
coedge $-1 $248 $99 $249 $250 reversed $61 $-1 #
coedge $-1 $99 $248 $251 $252 forward $61 $-1 #
coedge $-1 $253 $254 $99 $158 forward $152 $-1 #
edge $-1 $255 -19.532142995848538 $256 19.532142995848538 $99 $257 forward 7 unknown #
face $-1 $258 $259 $37 $-1 $260 reversed single #
loop $-1 $-1 $261 $100 #
plane-surface $-1 -48.848647575063275 -8.1809922807311359 0 0 1 0 0 0 1 forward_v I I I I #
coedge $-1 $262 $263 $164 $264 forward $101 $-1 #
coedge $-1 $265 $103 $266 $267 reversed $64 $-1 #
coedge $-1 $103 $265 $162 $264 reversed $64 $-1 #
coedge $-1 $268 $269 $103 $166 reversed $270 $-1 #
edge $-1 $271 -7.1755753575587011 $272 7.1755753575587011 $165 $273 forward 7 unknown #
face $-1 $274 $275 $38 $-1 $276 forward single #
loop $-1 $-1 $277 $104 #
plane-surface $-1 -13.348773018227114 34.977953290554296 97.081177745938419 -1 0 0 0 0.54463904215088732 0.83867056331134215 forward_v I I I I #
coedge $-1 $278 $279 $280 $281 reversed $105 $-1 #
coedge $-1 $172 $107 $282 $283 reversed $67 $-1 #
coedge $-1 $107 $171 $278 $284 reversed $67 $-1 #
coedge $-1 $280 $285 $107 $174 forward $275 $-1 #
edge $-1 $286 -2.04316635057139 $287 6.5861633809194693 $173 $288 forward 7 unknown #
loop $-1 $-1 $180 $108 #
plane-surface $-1 -20.351212803020331 -13.229923742163422 22.847558306162057 0 0.54463904215088732 0.83867056331134215 1 0 0 forward_v I I I I #
loop $-1 $-1 $289 $69 #
coedge $-1 $178 $178 $179 $290 reversed $109 $-1 #
coedge $-1 $179 $179 $178 $290 forward $111 $-1 #
coedge $-1 $180 $180 $112 $181 forward $175 $-1 #
edge $-1 $291 -1.451209931293695e-015 $291 6.2831853071795987 $180 $292 forward 7 unknown #
loop $-1 $-1 $187 $113 #
plane-surface $-1 -20.351212803020331 -13.229923742163422 22.847558306162057 0 0.54463904215088732 0.83867056331134215 1 0 0 forward_v I I I I #
loop $-1 $-1 $293 $72 #
coedge $-1 $185 $185 $186 $294 reversed $114 $-1 #
coedge $-1 $186 $186 $185 $294 forward $116 $-1 #
coedge $-1 $187 $187 $117 $188 forward $182 $-1 #
edge $-1 $295 -1.451209931293695e-015 $295 6.2831853071795987 $187 $296 forward 7 unknown #
face $-1 $297 $298 $41 $-1 $299 forward single #
loop $-1 $-1 $300 $118 #
plane-surface $-1 36.53750433451593 34.977953290554296 97.081177745938419 -1 0 0 0 0.54463904215088732 0.83867056331134215 forward_v I I I I #
coedge $-1 $301 $302 $303 $304 reversed $119 $-1 #
coedge $-1 $194 $121 $305 $306 reversed $76 $-1 #
coedge $-1 $121 $193 $301 $307 reversed $76 $-1 #
coedge $-1 $303 $308 $121 $196 forward $298 $-1 #
edge $-1 $309 -2.04316635057139 $310 6.5861633809194693 $195 $311 forward 7 unknown #
loop $-1 $-1 $202 $122 #
plane-surface $-1 29.535064549722712 -13.229923742163422 22.847558306162057 0 0.54463904215088732 0.83867056331134215 1 0 0 forward_v I I I I #
loop $-1 $-1 $312 $78 #
coedge $-1 $200 $200 $201 $313 reversed $123 $-1 #
coedge $-1 $201 $201 $200 $313 forward $125 $-1 #
coedge $-1 $202 $202 $126 $203 forward $197 $-1 #
edge $-1 $314 -1.451209931293695e-015 $314 6.2831853071795987 $202 $315 forward 7 unknown #
loop $-1 $-1 $209 $127 #
plane-surface $-1 29.535064549722712 -13.229923742163422 22.847558306162057 0 0.54463904215088732 0.83867056331134215 1 0 0 forward_v I I I I #
loop $-1 $-1 $316 $81 #
coedge $-1 $207 $207 $208 $317 reversed $128 $-1 #
coedge $-1 $208 $208 $207 $317 forward $130 $-1 #
coedge $-1 $209 $209 $131 $210 forward $204 $-1 #
edge $-1 $318 -1.451209931293695e-015 $318 6.2831853071795987 $209 $319 forward 7 unknown #
face $-1 $320 $321 $44 $-1 $322 forward single #
loop $-1 $-1 $323 $132 #
plane-surface $-1 -29.977828693666353 -76.427488405561405 70.895082727574476 1 0 0 0 0.64278761758704617 -0.76604443648966558 forward_v I I I I #
coedge $-1 $324 $325 $326 $327 reversed $133 $-1 #
coedge $-1 $216 $135 $328 $329 reversed $85 $-1 #
coedge $-1 $135 $215 $324 $330 reversed $85 $-1 #
coedge $-1 $326 $331 $135 $218 forward $321 $-1 #
edge $-1 $332 18.681601206932164 $333 23.550776768852643 $217 $334 forward 7 unknown #
loop $-1 $-1 $224 $136 #
plane-surface $-1 -21.107813390699512 -19.532142995848531 3.0898518538384963 0 -0.64278761758704617 0.76604443648966558 1 0 0 forward_v I I I I #
loop $-1 $-1 $335 $87 #
coedge $-1 $222 $222 $223 $336 reversed $137 $-1 #
coedge $-1 $223 $223 $222 $336 forward $139 $-1 #
coedge $-1 $224 $224 $140 $225 forward $219 $-1 #
edge $-1 $337 0 $337 6.2831853071796004 $224 $338 forward 7 unknown #
loop $-1 $-1 $231 $141 #
plane-surface $-1 -21.107813390699512 -19.532142995848531 3.0898518538384963 0 -0.64278761758704617 0.76604443648966558 1 0 0 forward_v I I I I #
loop $-1 $-1 $339 $90 #
coedge $-1 $229 $229 $230 $340 reversed $142 $-1 #
coedge $-1 $230 $230 $229 $340 forward $144 $-1 #
coedge $-1 $231 $231 $145 $232 forward $226 $-1 #
edge $-1 $341 0 $341 6.2831853071796004 $231 $342 forward 7 unknown #
loop $-1 $-1 $238 $146 #
plane-surface $-1 -21.107813390699512 -19.532142995848531 3.0898518538384963 0 -0.64278761758704617 0.76604443648966558 1 0 0 forward_v I I I I #
loop $-1 $-1 $343 $93 #
coedge $-1 $236 $236 $237 $344 reversed $147 $-1 #
coedge $-1 $237 $237 $236 $344 forward $149 $-1 #
coedge $-1 $238 $238 $150 $239 forward $233 $-1 #
edge $-1 $345 0 $345 6.2831853071796004 $238 $346 forward 7 unknown #
face $-1 $347 $348 $36 $-1 $349 reversed single #
loop $-1 $-1 $249 $151 #
plane-surface $-1 0 -19.532142995848538 0 0 1 0 0 0 1 forward_v I I I I #
coedge $-1 $254 $253 $350 $351 forward $152 $-1 #
coedge $-1 $352 $154 $353 $354 forward $97 $-1 #
coedge $-1 $154 $352 $355 $356 forward $97 $-1 #
coedge $-1 $357 $358 $154 $247 reversed $359 $-1 #
edge $-1 $360 -19.532142995848538 $361 19.532142995848538 $246 $362 forward 7 unknown #
coedge $-1 $156 $155 $352 $363 reversed $61 $-1 #
coedge $-1 $364 $355 $155 $250 forward $241 $-1 #
edge $-1 $365 -7.1755753575587011 $255 7.1755753575587011 $155 $366 forward 7 unknown #
coedge $-1 $353 $367 $156 $252 reversed $348 $-1 #
edge $-1 $368 -7.1755753575587011 $256 7.1755753575587011 $251 $369 forward 7 unknown #
coedge $-1 $243 $157 $367 $370 forward $152 $-1 #
coedge $-1 $157 $243 $364 $371 forward $152 $-1 #
vertex $-1 $158 $372 #
vertex $-1 $370 $373 #
straight-curve $-1 -44.256721701712088 0 -7.1755753575587011 0 1 0 I I #
face $-1 $374 $270 $37 $-1 $375 reversed single #
loop $-1 $-1 $376 $159 #
plane-surface $-1 -53.440573448414462 -6.6809922807311359 0 1 0 0 0 0 -1 forward_v I I I I #
coedge $-1 $377 $378 $379 $380 forward $160 $-1 #
coedge $-1 $381 $162 $377 $382 forward $101 $-1 #
coedge $-1 $162 $381 $268 $383 forward $101 $-1 #
edge $-1 $271 5.1809922807311359 $384 8.1809922807311359 $162 $385 forward 7 unknown #
coedge $-1 $164 $163 $386 $387 forward $64 $-1 #
coedge $-1 $388 $389 $163 $267 forward $390 $-1 #
edge $-1 $391 -8.1809922807311359 $272 -5.1809922807311359 $266 $392 forward 7 unknown #
coedge $-1 $393 $165 $263 $383 reversed $270 $-1 #
coedge $-1 $165 $393 $388 $394 reversed $270 $-1 #
loop $-1 $-1 $165 $258 #
vertex $-1 $264 $395 #
vertex $-1 $394 $396 #
straight-curve $-1 -44.256721701712088 -5.1809922807311359 0 0 0 1 I I #
face $-1 $-1 $397 $38 $-1 $398 reversed single #
loop $-1 $-1 $173 $167 #
plane-surface $-1 0 0 7.1755753575587011 0 0 1 1 0 0 forward_v I I I I #
coedge $-1 $399 $400 $401 $402 reversed $168 $-1 #
coedge $-1 $403 $170 $172 $284 forward $105 $-1 #
coedge $-1 $170 $403 $399 $404 forward $105 $-1 #
coedge $-1 $401 $173 $170 $281 forward $275 $-1 #
edge $-1 $287 -17.178046186303384 $405 -3.1731666167169479 $280 $406 forward 7 unknown #
coedge $-1 $407 $408 $171 $283 forward $397 $-1 #
edge $-1 $409 -46.968965871633372 $286 -41.36501351541051 $282 $410 forward 7 unknown #
edge $-1 $287 28.774989921235896 $409 39.064285991697076 $172 $411 forward 7 unknown #
coedge $-1 $173 $401 $407 $412 forward $275 $-1 #
vertex $-1 $283 $413 #
vertex $-1 $174 $414 #
straight-curve $-1 -27.353652587813549 17.488976645277148 7.1755753575586994 0 -1 0 I I #
coedge $-1 $289 $289 $-1 $415 reversed $177 $-1 #
edge $-1 $416 0 $416 6.2831853071796004 $178 $417 forward 7 unknown #
vertex $-1 $181 $418 #
ellipse-curve $-1 -23.352258425074567 15.217478130103114 4.3735991794472673 0 0.54463904215088732 0.83867056331134215 1 0 0 1 I I #
coedge $-1 $293 $293 $-1 $419 reversed $184 $-1 #
edge $-1 $420 0 $420 6.2831853071796004 $185 $421 forward 7 unknown #
vertex $-1 $188 $422 #
ellipse-curve $-1 -17.350167180966096 15.217478130103114 4.3735991794472673 0 0.54463904215088732 0.83867056331134215 1 0 0 1 I I #
face $-1 $-1 $423 $41 $-1 $424 reversed single #
loop $-1 $-1 $195 $189 #
plane-surface $-1 0 0 7.1755753575587011 0 0 1 1 0 0 forward_v I I I I #
coedge $-1 $425 $426 $427 $428 reversed $190 $-1 #
coedge $-1 $429 $192 $194 $307 forward $119 $-1 #
coedge $-1 $192 $429 $425 $430 forward $119 $-1 #
coedge $-1 $427 $195 $192 $304 forward $298 $-1 #
edge $-1 $310 7.7650924900681382 $431 21.769972059654574 $303 $432 forward 7 unknown #
coedge $-1 $433 $434 $193 $306 forward $423 $-1 #
edge $-1 $435 -46.968965871633372 $309 -41.36501351541051 $305 $436 forward 7 unknown #
edge $-1 $310 28.774989921235896 $435 39.064285991697076 $194 $437 forward 7 unknown #
coedge $-1 $195 $427 $433 $438 forward $298 $-1 #
vertex $-1 $196 $439 #
vertex $-1 $196 $440 #
straight-curve $-1 22.532624764929494 17.488976645277148 7.1755753575586994 0 -1 0 I I #
coedge $-1 $312 $312 $-1 $441 reversed $199 $-1 #
edge $-1 $442 0 $442 6.2831853071796004 $200 $443 forward 7 unknown #
vertex $-1 $203 $444 #
ellipse-curve $-1 26.534018927668477 15.217478130103114 4.3735991794472673 0 0.54463904215088732 0.83867056331134215 1 0 0 1 I I #
coedge $-1 $316 $316 $-1 $445 reversed $206 $-1 #
edge $-1 $446 0 $446 6.2831853071796004 $207 $447 forward 7 unknown #
vertex $-1 $210 $448 #
ellipse-curve $-1 32.536110171776947 15.217478130103114 4.3735991794472673 0 0.54463904215088732 0.83867056331134215 1 0 0 1 I I #
face $-1 $-1 $449 $44 $-1 $450 reversed single #
loop $-1 $-1 $217 $211 #
plane-surface $-1 0 0 7.1755753575587011 0 0 1 1 0 0 forward_v I I I I #
coedge $-1 $451 $452 $453 $454 reversed $212 $-1 #
coedge $-1 $455 $214 $216 $330 forward $133 $-1 #
coedge $-1 $214 $455 $451 $456 forward $133 $-1 #
coedge $-1 $453 $217 $214 $327 forward $321 $-1 #
edge $-1 $333 1.6838913923829146 $457 19.423921998316597 $326 $458 forward 7 unknown #
coedge $-1 $459 $460 $215 $329 forward $449 $-1 #
edge $-1 $461 -32.357689509948749 $332 -28.271966006228539 $328 $462 forward 7 unknown #
edge $-1 $333 -6.356257326576328 $461 9.1539886837149753e-015 $216 $463 forward 7 unknown #
coedge $-1 $217 $453 $459 $464 forward $321 $-1 #
vertex $-1 $218 $465 #
vertex $-1 $218 $466 #
straight-curve $-1 -12.237798087732671 -38.213744202780703 7.1755753575586994 0 1 0 I I #
coedge $-1 $335 $335 $-1 $467 reversed $221 $-1 #
edge $-1 $468 0 $468 6.2831853071796004 $222 $469 forward 7 unknown #
vertex $-1 $225 $470 #
ellipse-curve $-1 -26.429822572479615 -17.097555214888299 5.132713605698596 0 -0.64278761758704617 0.76604443648966558 1 0 0 1 I I #
coedge $-1 $339 $339 $-1 $471 reversed $228 $-1 #
edge $-1 $472 0 $472 6.2831853071796004 $229 $473 forward 7 unknown #
vertex $-1 $232 $474 #
ellipse-curve $-1 -21.107813390699512 -17.097555214888299 5.132713605698596 0 -0.64278761758704617 0.76604443648966558 1 0 0 1 I I #
coedge $-1 $343 $343 $-1 $475 reversed $235 $-1 #
edge $-1 $476 0 $476 6.2831853071796004 $236 $477 forward 7 unknown #
vertex $-1 $239 $478 #
ellipse-curve $-1 -15.785804208919409 -17.097555214888299 5.132713605698596 0 -0.64278761758704617 0.76604443648966558 1 0 0 1 I I #
face $-1 $-1 $359 $36 $-1 $479 reversed single #
loop $-1 $-1 $480 $240 #
plane-surface $-1 0 19.532142995848538 0 0 -1 0 0 0 -1 forward_v I I I I #
coedge $-1 $358 $357 $243 $351 reversed $359 $-1 #
edge $-1 $481 -19.532142995848538 $482 19.532142995848538 $350 $483 forward 7 unknown #
coedge $-1 $245 $244 $248 $363 forward $97 $-1 #
coedge $-1 $480 $251 $244 $354 reversed $348 $-1 #
edge $-1 $361 -44.256721701712088 $368 44.256721701712088 $353 $484 forward 7 unknown #
coedge $-1 $249 $485 $245 $356 reversed $241 $-1 #
edge $-1 $365 -44.256721701712088 $360 44.256721701712088 $355 $486 forward 7 unknown #
coedge $-1 $350 $246 $485 $487 forward $359 $-1 #
coedge $-1 $246 $350 $480 $488 reversed $359 $-1 #
loop $-1 $-1 $357 $347 #
vertex $-1 $247 $489 #
vertex $-1 $247 $490 #
straight-curve $-1 44.256721701712088 0 7.1755753575587011 0 1 0 I I #
edge $-1 $368 -19.532142995848538 $365 19.532142995848538 $248 $491 forward 7 unknown #
coedge $-1 $485 $249 $254 $371 reversed $241 $-1 #
vertex $-1 $363 $492 #
straight-curve $-1 -44.256721701712088 -19.532142995848538 0 0 0 -1 I I #
coedge $-1 $251 $480 $253 $370 reversed $348 $-1 #
vertex $-1 $354 $493 #
straight-curve $-1 -44.256721701712088 19.532142995848538 0 0 0 -1 I I #
edge $-1 $256 -44.256721701712088 $481 44.256721701712088 $367 $494 forward 7 unknown #
edge $-1 $482 -44.256721701712088 $255 44.256721701712088 $364 $495 forward 7 unknown #
point $-1 -44.256721701712088 -19.532142995848538 -7.1755753575587011 #
point $-1 -44.256721701712088 19.532142995848538 -7.1755753575587011 #
face $-1 $-1 $390 $37 $-1 $496 forward single #
plane-surface $-1 -48.848647575063275 -5.1809922807311359 0 0 -1 0 0 0 -1 forward_v I I I I #
coedge $-1 $497 $498 $393 $499 forward $259 $-1 #
coedge $-1 $386 $261 $262 $382 reversed $160 $-1 #
coedge $-1 $261 $386 $389 $500 reversed $160 $-1 #
coedge $-1 $498 $497 $261 $380 reversed $259 $-1 #
edge $-1 $501 -7.1755753575587011 $502 7.1755753575587011 $379 $503 forward 7 unknown #
coedge $-1 $263 $262 $497 $504 forward $101 $-1 #
edge $-1 $384 -4.5919258733511867 $502 4.5919258733511867 $377 $505 forward 7 unknown #
edge $-1 $506 -4.5919258733511867 $271 4.5919258733511867 $268 $507 forward 7 unknown #
vertex $-1 $382 $508 #
straight-curve $-1 -44.256721701712088 0 -7.1755753575587011 0 -1 0 I I #
coedge $-1 $378 $377 $265 $387 reversed $160 $-1 #
edge $-1 $391 -7.1755753575587011 $384 7.1755753575587011 $386 $509 forward 7 unknown #
coedge $-1 $510 $266 $269 $394 forward $390 $-1 #
coedge $-1 $266 $510 $378 $500 forward $390 $-1 #
loop $-1 $-1 $266 $374 #
vertex $-1 $267 $511 #
straight-curve $-1 -44.256721701712088 0 7.1755753575587011 0 1 0 I I #
coedge $-1 $269 $268 $376 $499 reversed $270 $-1 #
edge $-1 $272 -4.5919258733511867 $512 4.5919258733511867 $269 $513 forward 7 unknown #
point $-1 -44.256721701712088 -5.1809922807311359 -7.1755753575587011 #
point $-1 -44.256721701712088 -5.1809922807311359 7.1755753575587011 #
loop $-1 $-1 $282 $274 #
plane-surface $-1 0 19.532142995848538 0 0 -1 0 0 0 -1 forward_v I I I I #
coedge $-1 $400 $277 $279 $404 reversed $168 $-1 #
coedge $-1 $277 $399 $514 $515 reversed $168 $-1 #
coedge $-1 $285 $280 $277 $402 forward $275 $-1 #
edge $-1 $405 -6.5861633809194693 $516 2.04316635057139 $401 $517 forward 7 unknown #
coedge $-1 $279 $278 $408 $518 reversed $105 $-1 #
edge $-1 $519 -39.064285991697076 $405 -28.774989921235896 $399 $520 forward 7 unknown #
vertex $-1 $281 $521 #
straight-curve $-1 -10.175606401510166 10.902813264357679 7.1755753575586994 1 0 0 I I #
coedge $-1 $514 $282 $285 $412 reversed $397 $-1 #
coedge $-1 $282 $514 $403 $518 forward $397 $-1 #
vertex $-1 $283 $522 #
straight-curve $-1 -27.353652587813549 19.532142995848538 48.540588872969209 0 0 1 I I #
straight-curve $-1 -27.353652587813549 -13.229923742163422 22.847558306162057 0 0.83867056331134215 -0.54463904215088732 I I #
edge $-1 $516 13.348773018227114 $286 27.353652587813549 $407 $523 forward 7 unknown #
point $-1 -27.353652587813549 19.532142995848538 7.1755753575587011 #
point $-1 -27.353652587813549 10.902813264357679 7.1755753575587011 #
edge $-1 $524 1 $524 0 $289 $-1 forward 7 unknown #
vertex $-1 $290 $525 #
ellipse-curve $-1 -23.352258425074567 13.724462067535248 2.0745560971120542 0 0.54463904215088732 0.83867056331134215 1 0 0 1 I I #
point $-1 -22.352258425074567 15.217478130103114 4.3735991794472699 #
edge $-1 $526 1 $526 0 $293 $-1 forward 7 unknown #
vertex $-1 $294 $527 #
ellipse-curve $-1 -17.350167180966096 13.724462067535248 2.0745560971120542 0 0.54463904215088732 0.83867056331134215 1 0 0 1 I I #
point $-1 -16.350167180966096 15.217478130103114 4.3735991794472699 #
loop $-1 $-1 $305 $297 #
plane-surface $-1 0 19.532142995848538 0 0 -1 0 0 0 -1 forward_v I I I I #
coedge $-1 $426 $300 $302 $430 reversed $190 $-1 #
coedge $-1 $300 $425 $528 $529 reversed $190 $-1 #
coedge $-1 $308 $303 $300 $428 forward $298 $-1 #
edge $-1 $431 -6.5861633809194693 $530 2.04316635057139 $427 $531 forward 7 unknown #
coedge $-1 $302 $301 $434 $532 reversed $119 $-1 #
edge $-1 $533 -39.064285991697076 $431 -28.774989921235896 $425 $534 forward 7 unknown #
vertex $-1 $304 $535 #
straight-curve $-1 14.767532274861356 10.902813264357679 7.1755753575586994 1 0 0 I I #
coedge $-1 $528 $305 $308 $438 reversed $423 $-1 #
coedge $-1 $305 $528 $429 $532 forward $423 $-1 #
vertex $-1 $306 $536 #
straight-curve $-1 22.532624764929494 19.532142995848538 48.540588872969209 0 0 1 I I #
straight-curve $-1 22.532624764929494 -13.229923742163422 22.847558306162057 0 0.83867056331134215 -0.54463904215088732 I I #
edge $-1 $530 -36.53750433451593 $309 -22.532624764929494 $433 $537 forward 7 unknown #
point $-1 22.532624764929494 19.532142995848538 7.1755753575587011 #
point $-1 22.532624764929494 10.902813264357679 7.1755753575587011 #
edge $-1 $538 1 $538 0 $312 $-1 forward 7 unknown #
vertex $-1 $313 $539 #
ellipse-curve $-1 26.534018927668477 13.724462067535248 2.0745560971120542 0 0.54463904215088732 0.83867056331134215 1 0 0 1 I I #
point $-1 27.534018927668477 15.217478130103114 4.3735991794472699 #
edge $-1 $540 1 $540 0 $316 $-1 forward 7 unknown #
vertex $-1 $317 $541 #
ellipse-curve $-1 32.536110171776947 13.724462067535248 2.0745560971120542 0 0.54463904215088732 0.83867056331134215 1 0 0 1 I I #
point $-1 33.536110171776947 15.217478130103114 4.3735991794472699 #
loop $-1 $-1 $328 $320 #
plane-surface $-1 0 -19.532142995848538 0 0 1 0 0 0 1 forward_v I I I I #
coedge $-1 $452 $323 $325 $456 reversed $212 $-1 #
coedge $-1 $323 $451 $542 $543 reversed $212 $-1 #
coedge $-1 $331 $326 $323 $454 forward $321 $-1 #
edge $-1 $457 -23.550776768852643 $544 -18.681601206932164 $453 $545 forward 7 unknown #
coedge $-1 $325 $324 $460 $546 reversed $133 $-1 #
edge $-1 $547 -9.1539886837149753e-015 $457 6.356257326576328 $451 $548 forward 7 unknown #
vertex $-1 $327 $549 #
straight-curve $-1 -10.553906695349756 -14.66296743392806 7.1755753575587011 -1 0 0 I I #
coedge $-1 $542 $328 $331 $464 reversed $449 $-1 #
coedge $-1 $328 $542 $455 $546 forward $449 $-1 #
vertex $-1 $329 $550 #
straight-curve $-1 -12.237798087732671 -19.532142995848538 35.447541363787238 0 0 1 I I #
straight-curve $-1 -12.237798087732671 -19.532142995848531 3.0898518538384963 0 -0.76604443648966558 -0.64278761758704617 I I #
edge $-1 $544 -29.977828693666353 $332 -12.237798087732671 $459 $551 forward 7 unknown #
point $-1 -12.237798087732671 -19.532142995848538 7.1755753575587011 #
point $-1 -12.237798087732671 -14.66296743392806 7.1755753575587011 #
edge $-1 $552 1 $552 0 $335 $-1 forward 7 unknown #
vertex $-1 $336 $553 #
ellipse-curve $-1 -26.429822572479615 -14.595083581454457 2.1503841086534856 0 -0.64278761758704617 0.76604443648966558 1 0 0 1 I I #
point $-1 -25.429822572479615 -17.097555214888299 5.132713605698596 #
edge $-1 $554 1 $554 0 $339 $-1 forward 7 unknown #
vertex $-1 $340 $555 #
ellipse-curve $-1 -21.107813390699512 -14.595083581454457 2.1503841086534856 0 -0.64278761758704617 0.76604443648966558 1 0 0 1 I I #
point $-1 -20.107813390699512 -17.097555214888299 5.132713605698596 #
edge $-1 $556 1 $556 0 $343 $-1 forward 7 unknown #
vertex $-1 $344 $557 #
ellipse-curve $-1 -15.785804208919409 -14.595083581454457 2.1503841086534856 0 -0.64278761758704617 0.76604443648966558 1 0 0 1 I I #
point $-1 -14.785804208919409 -17.097555214888299 5.132713605698596 #
plane-surface $-1 44.256721701712088 0 0 -1 0 0 0 0 1 forward_v I I I I #
coedge $-1 $367 $353 $358 $488 forward $348 $-1 #
vertex $-1 $351 $558 #
vertex $-1 $487 $559 #
straight-curve $-1 44.256721701712088 0 -7.1755753575587011 0 -1 0 I I #
straight-curve $-1 0 19.532142995848538 7.1755753575587011 -1 0 0 I I #
coedge $-1 $355 $364 $357 $487 reversed $241 $-1 #
straight-curve $-1 0 -19.532142995848538 7.1755753575587011 1 0 0 I I #
edge $-1 $360 -7.1755753575587011 $482 7.1755753575587011 $357 $560 forward 7 unknown #
edge $-1 $361 -7.1755753575587011 $481 7.1755753575587011 $358 $561 forward 7 unknown #
point $-1 44.256721701712088 -19.532142995848538 7.1755753575587011 #
point $-1 44.256721701712088 19.532142995848538 7.1755753575587011 #
straight-curve $-1 -44.256721701712088 0 7.1755753575587011 0 -1 0 I I #
point $-1 -44.256721701712088 -19.532142995848538 7.1755753575587011 #
point $-1 -44.256721701712088 19.532142995848538 7.1755753575587011 #
straight-curve $-1 0 19.532142995848538 -7.1755753575587011 1 0 0 I I #
straight-curve $-1 0 -19.532142995848538 -7.1755753575587011 -1 0 0 I I #
plane-surface $-1 0 0 7.1755753575587011 0 0 1 1 0 0 forward_v I I I I #
coedge $-1 $379 $376 $381 $504 reversed $259 $-1 #
coedge $-1 $376 $379 $510 $562 reversed $259 $-1 #
edge $-1 $512 -7.1755753575587011 $506 7.1755753575587011 $393 $563 forward 7 unknown #
edge $-1 $501 -4.5919258733511867 $391 4.5919258733511867 $378 $564 forward 7 unknown #
vertex $-1 $562 $565 #
vertex $-1 $504 $566 #
straight-curve $-1 -53.440573448414462 -8.1809922807311359 0 0 0 -1 I I #
edge $-1 $502 -1.5 $506 1.5 $497 $567 forward 7 unknown #
straight-curve $-1 -48.848647575063275 -8.1809922807311359 -7.1755753575587011 -1 0 0 I I #
vertex $-1 $383 $568 #
straight-curve $-1 -48.848647575063275 -5.1809922807311359 -7.1755753575587011 1 0 0 I I #
point $-1 -44.256721701712088 -8.1809922807311359 -7.1755753575587011 #
straight-curve $-1 -44.256721701712088 -8.1809922807311359 0 0 0 -1 I I #
coedge $-1 $389 $388 $498 $562 forward $390 $-1 #
point $-1 -44.256721701712088 -8.1809922807311359 7.1755753575587011 #
vertex $-1 $394 $569 #
straight-curve $-1 -48.848647575063275 -5.1809922807311359 7.1755753575587011 -1 0 0 I I #
coedge $-1 $408 $407 $400 $515 forward $397 $-1 #
edge $-1 $516 41.36501351541051 $519 46.968965871633372 $514 $570 forward 7 unknown #
vertex $-1 $412 $571 #
straight-curve $-1 -13.348773018227114 17.488976645277148 7.1755753575586994 0 1 0 I I #
edge $-1 $519 3.1731666167169479 $409 17.178046186303384 $408 $572 forward 7 unknown #
vertex $-1 $518 $573 #
straight-curve $-1 -13.348773018227114 -13.229923742163422 22.847558306162057 0 -0.83867056331134215 0.54463904215088732 I I #
point $-1 -13.348773018227114 10.902813264357679 7.1755753575587011 #
point $-1 -27.353652587813549 19.532142995848538 1.571623001335837 #
straight-curve $-1 0 19.532142995848538 7.1755753575587011 -1 0 0 I I #
vertex $-1 $415 $574 #
point $-1 -22.352258425074567 13.724462067535248 2.0745560971120542 #
vertex $-1 $419 $575 #
point $-1 -16.350167180966096 13.724462067535248 2.0745560971120542 #
coedge $-1 $434 $433 $426 $529 forward $423 $-1 #
edge $-1 $530 41.36501351541051 $533 46.968965871633372 $528 $576 forward 7 unknown #
vertex $-1 $438 $577 #
straight-curve $-1 36.53750433451593 17.488976645277148 7.1755753575586994 0 1 0 I I #
edge $-1 $533 -21.769972059654574 $435 -7.7650924900681382 $434 $578 forward 7 unknown #
vertex $-1 $532 $579 #
straight-curve $-1 36.53750433451593 -13.229923742163422 22.847558306162057 0 -0.83867056331134215 0.54463904215088732 I I #
point $-1 36.53750433451593 10.902813264357679 7.1755753575587011 #
point $-1 22.532624764929494 19.532142995848538 1.571623001335837 #
straight-curve $-1 0 19.532142995848538 7.1755753575587011 -1 0 0 I I #
vertex $-1 $441 $580 #
point $-1 27.534018927668477 13.724462067535248 2.0745560971120542 #
vertex $-1 $445 $581 #
point $-1 33.536110171776947 13.724462067535248 2.0745560971120542 #
coedge $-1 $460 $459 $452 $543 forward $449 $-1 #
edge $-1 $544 28.271966006228539 $547 32.357689509948749 $542 $582 forward 7 unknown #
vertex $-1 $464 $583 #
straight-curve $-1 -29.977828693666353 -38.213744202780703 7.1755753575586994 0 -1 0 I I #
edge $-1 $547 -19.423921998316597 $461 -1.6838913923829146 $460 $584 forward 7 unknown #
vertex $-1 $546 $585 #
straight-curve $-1 -29.977828693666353 -19.532142995848531 3.0898518538384963 0 0.76604443648966558 0.64278761758704617 I I #
point $-1 -29.977828693666353 -14.66296743392806 7.1755753575587011 #
point $-1 -12.237798087732671 -19.532142995848538 3.0898518538384905 #
straight-curve $-1 0 -19.532142995848538 7.1755753575587011 1 0 0 I I #
vertex $-1 $467 $586 #
point $-1 -25.429822572479615 -14.595083581454457 2.1503841086534856 #
vertex $-1 $471 $587 #
point $-1 -20.107813390699512 -14.595083581454457 2.1503841086534856 #
vertex $-1 $475 $588 #
point $-1 -14.785804208919409 -14.595083581454457 2.1503841086534856 #
point $-1 44.256721701712088 19.532142995848538 -7.1755753575587011 #
point $-1 44.256721701712088 -19.532142995848538 -7.1755753575587011 #
straight-curve $-1 44.256721701712088 -19.532142995848538 0 0 0 -1 I I #
straight-curve $-1 44.256721701712088 19.532142995848538 0 0 0 -1 I I #
edge $-1 $512 -1.5 $501 1.5 $498 $589 forward 7 unknown #
straight-curve $-1 -53.440573448414462 -5.1809922807311359 0 0 0 -1 I I #
straight-curve $-1 -48.848647575063275 -8.1809922807311359 7.1755753575587011 1 0 0 I I #
point $-1 -53.440573448414462 -8.1809922807311359 7.1755753575587011 #
point $-1 -53.440573448414462 -8.1809922807311359 -7.1755753575587011 #
straight-curve $-1 -53.440573448414462 -6.6809922807311359 -7.1755753575587011 0 1 0 I I #
point $-1 -53.440573448414462 -5.1809922807311359 -7.1755753575587011 #
point $-1 -53.440573448414462 -5.1809922807311359 7.1755753575587011 #
straight-curve $-1 -13.348773018227114 19.532142995848538 48.540588872969209 0 0 -1 I I #
point $-1 -13.348773018227114 19.532142995848538 7.1755753575587011 #
straight-curve $-1 -10.175606401510166 19.532142995848538 1.571623001335837 -1 0 0 I I #
point $-1 -13.348773018227114 19.532142995848538 1.571623001335837 #
point $-1 -23.352258425074567 13.17982302538436 1.2358855338007122 #
point $-1 -17.350167180966096 13.17982302538436 1.2358855338007122 #
straight-curve $-1 36.53750433451593 19.532142995848538 48.540588872969209 0 0 -1 I I #
point $-1 36.53750433451593 19.532142995848538 7.1755753575587011 #
straight-curve $-1 14.767532274861356 19.532142995848538 1.571623001335837 -1 0 0 I I #
point $-1 36.53750433451593 19.532142995848538 1.571623001335837 #
point $-1 26.534018927668477 13.17982302538436 1.2358855338007122 #
point $-1 32.536110171776947 13.17982302538436 1.2358855338007122 #
straight-curve $-1 -29.977828693666353 -19.532142995848538 35.447541363787238 0 0 -1 I I #
point $-1 -29.977828693666353 -19.532142995848538 7.1755753575587011 #
straight-curve $-1 -10.553906695349756 -19.532142995848538 3.0898518538384909 1 0 0 I I #
point $-1 -29.977828693666353 -19.532142995848538 3.0898518538384905 #
point $-1 -26.429822572479615 -13.95229596386741 1.3843396721638199 #
point $-1 -21.107813390699512 -13.95229596386741 1.3843396721638199 #
point $-1 -15.785804208919409 -13.95229596386741 1.3843396721638199 #
straight-curve $-1 -53.440573448414462 -6.6809922807311359 7.1755753575587011 0 -1 0 I I #
End-of-ACIS-data 