500 0 10 0           
7 Unknown 11 ACIS 5.0 NT 24 Thu Mar 25 17:42:12 1999 
-1 9.9999999999999995e-007 1e-010 
body $-1 $10 $-1 $11 #
body $-1 $12 $-1 $13 #
body $-1 $14 $-1 $15 #
body $-1 $16 $-1 $17 #
body $-1 $18 $-1 $19 #
body $-1 $20 $-1 $21 #
body $-1 $22 $-1 $23 #
body $-1 $24 $-1 $25 #
body $-1 $26 $-1 $27 #
body $-1 $28 $-1 $29 #
lump $-1 $-1 $30 $0 #
transform $-1 1 0 0 0 1 0 0 0 1 78.808557390057075 38.362140326636201 9.8812921711124684 1 rotate no_reflect no_shear #
lump $-1 $-1 $31 $1 #
transform $-1 1 0 0 0 1 0 0 0 1 78.808557390057075 38.362140326636201 9.8812921711124684 1 rotate no_reflect no_shear #
lump $-1 $-1 $32 $2 #
transform $-1 1 0 0 0 1 0 0 0 1 78.808557390057075 38.362140326636201 9.8812921711124684 1 rotate no_reflect no_shear #
lump $-1 $-1 $33 $3 #
transform $-1 1 0 0 0 1 0 0 0 1 78.808557390057075 38.362140326636201 9.8812921711124684 1 rotate no_reflect no_shear #
lump $-1 $-1 $34 $4 #
transform $-1 1 0 0 0 1 0 0 0 1 78.808557390057075 38.362140326636201 9.8812921711124684 1 rotate no_reflect no_shear #
lump $-1 $-1 $35 $5 #
transform $-1 1 0 0 0 1 0 0 0 1 78.808557390057075 38.362140326636201 9.8812921711124684 1 rotate no_reflect no_shear #
lump $-1 $-1 $36 $6 #
transform $-1 1 0 0 0 1 0 0 0 1 78.808557390057075 38.362140326636201 9.8812921711124684 1 rotate no_reflect no_shear #
lump $-1 $-1 $37 $7 #
transform $-1 1 0 0 0 1 0 0 0 1 78.808557390057075 38.362140326636201 9.8812921711124684 1 rotate no_reflect no_shear #
lump $-1 $-1 $38 $8 #
transform $-1 1 0 0 0 1 0 0 0 1 78.808557390057075 38.362140326636201 9.8812921711124684 1 rotate no_reflect no_shear #
lump $-1 $-1 $39 $9 #
transform $-1 1 0 0 0 1 0 0 0 1 78.808557390057075 38.362140326636201 9.8812921711124684 1 rotate no_reflect no_shear #
shell $-1 $-1 $-1 $40 $-1 $10 #
shell $-1 $-1 $-1 $41 $-1 $12 #
shell $-1 $-1 $-1 $42 $-1 $14 #
shell $-1 $-1 $-1 $43 $-1 $16 #
shell $-1 $-1 $-1 $44 $-1 $18 #
shell $-1 $-1 $-1 $45 $-1 $20 #
shell $-1 $-1 $-1 $46 $-1 $22 #
shell $-1 $-1 $-1 $47 $-1 $24 #
shell $-1 $-1 $-1 $48 $-1 $26 #
shell $-1 $-1 $-1 $49 $-1 $28 #
face $-1 $50 $51 $30 $-1 $52 forward single #
face $-1 $53 $54 $31 $-1 $55 reversed single #
face $-1 $56 $57 $32 $-1 $58 reversed single #
face $-1 $59 $60 $33 $-1 $61 forward single #
face $-1 $62 $63 $34 $-1 $64 forward single #
face $-1 $65 $66 $35 $-1 $67 forward single #
face $-1 $68 $69 $36 $-1 $70 reversed single #
face $-1 $71 $72 $37 $-1 $73 forward single #
face $-1 $74 $75 $38 $-1 $76 forward single #
face $-1 $77 $78 $39 $-1 $79 forward single #
face $-1 $80 $81 $30 $-1 $82 reversed single #
loop $-1 $-1 $83 $40 #
plane-surface $-1 0 0 9.8812921711124684 0 0 1 1 0 0 forward_v I I I I #
face $-1 $84 $85 $31 $-1 $86 reversed single #
loop $-1 $-1 $87 $41 #
plane-surface $-1 -74.906253661643575 0 5.3283647459279271 0 0 1 1 0 0 forward_v I I I I #
face $-1 $88 $89 $32 $-1 $90 reversed single #
loop $-1 $-1 $91 $42 #
plane-surface $-1 59.026878114862512 -38.362140326636194 3.3561183564729333 0 -0.82903758062907751 0.55919289150049634 1 0 0 forward_v I I I I #
face $-1 $92 $93 $33 $-1 $94 forward single #
loop $-1 $95 $96 $43 #
cone-surface $-1 47.157870549745766 -35.480799870380764 6.1595687681437408 0 0.82903758062907751 -0.55919289150049634 1.5 0 0 1 I I 0 1 1.5 forward I I I I #
face $-1 $97 $98 $34 $-1 $99 forward single #
loop $-1 $100 $101 $44 #
cone-surface $-1 59.026878114862512 -35.480799870380764 6.1595687681437408 0 0.82903758062907751 -0.55919289150049634 1.5 0 0 1 I I 0 1 1.5 forward I I I I #
face $-1 $102 $103 $35 $-1 $104 forward single #
loop $-1 $105 $106 $45 #
cone-surface $-1 70.895885679979244 -35.480799870380764 6.1595687681437408 0 0.82903758062907751 -0.55919289150049634 1.5 0 0 1 I I 0 1 1.5 forward I I I I #
face $-1 $107 $108 $36 $-1 $109 reversed single #
loop $-1 $-1 $110 $46 #
plane-surface $-1 65.311166921157195 -8.8740426830522665 60.770998906064079 0 0.78801076186113728 0.61566146476048833 1 0 0 forward_v I I I I #
face $-1 $111 $112 $37 $-1 $113 forward single #
loop $-1 $114 $115 $47 #
cone-surface $-1 57.212732639817261 31.525554959995656 2.6757936796788817 0 -0.78801076186113728 -0.61566146476048833 2.5 0 0 1 I I 0 1 2.5 forward I I I I #
face $-1 $116 $117 $38 $-1 $118 forward single #
loop $-1 $119 $120 $48 #
cone-surface $-1 65.311166921157195 31.525554959995656 2.6757936796788817 0 -0.78801076186113728 -0.61566146476048833 2.5 0 0 1 I I 0 1 2.5 forward I I I I #
face $-1 $121 $122 $39 $-1 $123 forward single #
loop $-1 $124 $125 $49 #
cone-surface $-1 73.409601202497129 31.525554959995656 2.6757936796788817 0 -0.78801076186113728 -0.61566146476048833 2.5 0 0 1 I I 0 1 2.5 forward I I I I #
face $-1 $126 $127 $30 $-1 $128 reversed single #
loop $-1 $-1 $129 $50 #
plane-surface $-1 0 0 -9.8812921711124684 0 0 1 1 0 0 forward_v I I I I #
coedge $-1 $130 $131 $132 $133 forward $51 $-1 #
face $-1 $134 $135 $31 $-1 $136 reversed single #
loop $-1 $-1 $137 $53 #
plane-surface $-1 -71.003949933230075 0 7.6048284585201973 -1 0 0 0 0 1 forward_v I I I I #
coedge $-1 $138 $139 $140 $141 forward $54 $-1 #
face $-1 $142 $143 $32 $-1 $144 reversed single #
loop $-1 $-1 $145 $56 #
plane-surface $-1 39.245198839667943 -169.03265182967763 91.494488520330577 1 0 0 0 0.82903758062907751 -0.55919289150049634 forward_v I I I I #
coedge $-1 $146 $147 $148 $149 reversed $57 $-1 #
face $-1 $-1 $150 $33 $-1 $151 forward single #
loop $-1 $152 $153 $59 #
cone-surface $-1 47.157870549745766 -34.178323816039523 5.2810376038694127 0 0.82903758062907751 -0.55919289150049634 0.75 0 0 1 I I -0.70710678118654757 0.70710678118654757 0.75 forward I I I I #
loop $-1 $-1 $154 $43 #
coedge $-1 $96 $96 $155 $156 reversed $60 $-1 #
face $-1 $-1 $157 $34 $-1 $158 forward single #
loop $-1 $159 $160 $62 #
cone-surface $-1 59.026878114862512 -34.178323816039523 5.2810376038694127 0 0.82903758062907751 -0.55919289150049634 0.75 0 0 1 I I -0.70710678118654757 0.70710678118654757 0.75 forward I I I I #
loop $-1 $-1 $161 $44 #
coedge $-1 $101 $101 $162 $163 reversed $63 $-1 #
face $-1 $-1 $164 $35 $-1 $165 forward single #
loop $-1 $166 $167 $65 #
cone-surface $-1 70.895885679979244 -34.178323816039523 5.2810376038694127 0 0.82903758062907751 -0.55919289150049634 0.75 0 0 1 I I -0.70710678118654757 0.70710678118654757 0.75 forward I I I I #
loop $-1 $-1 $168 $45 #
coedge $-1 $106 $106 $169 $170 reversed $66 $-1 #
face $-1 $171 $172 $36 $-1 $173 forward single #
loop $-1 $-1 $174 $68 #
plane-surface $-1 51.813776452257315 115.32994001717981 157.80978266291118 1 0 0 0 -0.78801076186113728 -0.61566146476048833 forward_v I I I I #
coedge $-1 $175 $176 $177 $178 reversed $69 $-1 #
face $-1 $-1 $179 $37 $-1 $180 forward single #
loop $-1 $181 $182 $71 #
cone-surface $-1 57.212732639817261 27.442349990682082 -0.51435558476465637 0 -0.78801076186113728 -0.61566146476048833 1.25 0 0 1 I I -0.70710678118654746 0.70710678118654768 1.25 forward I I I I #
loop $-1 $-1 $183 $47 #
coedge $-1 $115 $115 $184 $185 reversed $72 $-1 #
face $-1 $-1 $186 $38 $-1 $187 forward single #
loop $-1 $188 $189 $74 #
cone-surface $-1 65.311166921157195 27.442349990682082 -0.51435558476465637 0 -0.78801076186113728 -0.61566146476048833 1.25 0 0 1 I I -0.70710678118654746 0.70710678118654768 1.25 forward I I I I #
loop $-1 $-1 $190 $48 #
coedge $-1 $120 $120 $191 $192 reversed $75 $-1 #
face $-1 $-1 $193 $39 $-1 $194 forward single #
loop $-1 $195 $196 $77 #
cone-surface $-1 73.409601202497129 27.442349990682082 -0.51435558476465637 0 -0.78801076186113728 -0.61566146476048833 1.25 0 0 1 I I -0.70710678118654746 0.70710678118654768 1.25 forward I I I I #
loop $-1 $-1 $197 $49 #
coedge $-1 $125 $125 $198 $199 reversed $78 $-1 #
face $-1 $200 $201 $30 $-1 $202 reversed single #
loop $-1 $-1 $203 $80 #
plane-surface $-1 0 -38.362140326636201 0 0 1 0 0 0 1 forward_v I I I I #
coedge $-1 $204 $205 $206 $207 forward $81 $-1 #
coedge $-1 $208 $83 $209 $210 forward $51 $-1 #
coedge $-1 $83 $208 $211 $212 forward $51 $-1 #
coedge $-1 $213 $214 $83 $133 reversed $215 $-1 #
edge $-1 $216 -38.362140326636201 $217 38.362140326636201 $132 $218 forward 7 unknown #
face $-1 $219 $220 $31 $-1 $221 reversed single #
loop $-1 $-1 $222 $84 #
plane-surface $-1 0 38.362140326636201 0 0 -1 0 0 0 -1 forward_v I I I I #
coedge $-1 $140 $223 $224 $225 reversed $85 $-1 #
coedge $-1 $226 $87 $227 $228 reversed $54 $-1 #
coedge $-1 $87 $226 $229 $230 reversed $54 $-1 #
coedge $-1 $231 $137 $87 $141 reversed $85 $-1 #
edge $-1 $232 -38.362140326636201 $233 38.362140326636201 $140 $234 forward 7 unknown #
face $-1 $235 $236 $32 $-1 $237 forward single #
loop $-1 $-1 $238 $88 #
plane-surface $-1 78.808557390057075 0 0 -1 0 0 0 0 1 forward_v I I I I #
coedge $-1 $239 $240 $241 $242 reversed $89 $-1 #
coedge $-1 $243 $91 $238 $244 reversed $57 $-1 #
coedge $-1 $91 $243 $239 $245 forward $57 $-1 #
coedge $-1 $241 $246 $91 $149 forward $236 $-1 #
edge $-1 $247 -49.295118332625819 $248 -9.7317597822366864 $148 $249 forward 7 unknown #
loop $-1 $-1 $155 $92 #
plane-surface $-1 59.026878114862512 -38.362140326636194 3.3561183564729333 0 -0.82903758062907751 0.55919289150049634 1 0 0 forward_v I I I I #
loop $-1 $-1 $250 $59 #
coedge $-1 $153 $153 $154 $251 reversed $93 $-1 #
coedge $-1 $154 $154 $153 $251 forward $95 $-1 #
coedge $-1 $155 $155 $96 $156 forward $150 $-1 #
edge $-1 $252 0 $252 6.2831853071796004 $155 $253 forward 7 unknown #
loop $-1 $-1 $162 $97 #
plane-surface $-1 59.026878114862512 -38.362140326636194 3.3561183564729333 0 -0.82903758062907751 0.55919289150049634 1 0 0 forward_v I I I I #
loop $-1 $-1 $254 $62 #
coedge $-1 $160 $160 $161 $255 reversed $98 $-1 #
coedge $-1 $161 $161 $160 $255 forward $100 $-1 #
coedge $-1 $162 $162 $101 $163 forward $157 $-1 #
edge $-1 $256 0 $256 6.2831853071796004 $162 $257 forward 7 unknown #
loop $-1 $-1 $169 $102 #
plane-surface $-1 59.026878114862512 -38.362140326636194 3.3561183564729333 0 -0.82903758062907751 0.55919289150049634 1 0 0 forward_v I I I I #
loop $-1 $-1 $258 $65 #
coedge $-1 $167 $167 $168 $259 reversed $103 $-1 #
coedge $-1 $168 $168 $167 $259 forward $105 $-1 #
coedge $-1 $169 $169 $106 $170 forward $164 $-1 #
edge $-1 $260 0 $260 6.2831853071796004 $169 $261 forward 7 unknown #
face $-1 $262 $263 $36 $-1 $264 reversed single #
loop $-1 $-1 $265 $107 #
plane-surface $-1 0 0 9.8812921711124684 0 0 1 1 0 0 forward_v I I I I #
coedge $-1 $266 $267 $268 $269 reversed $108 $-1 #
coedge $-1 $270 $110 $271 $272 reversed $69 $-1 #
coedge $-1 $110 $270 $266 $273 forward $69 $-1 #
coedge $-1 $268 $274 $110 $178 forward $275 $-1 #
edge $-1 $276 -46.152973929478478 $277 -19.158192991678717 $177 $278 forward 7 unknown #
loop $-1 $-1 $184 $111 #
plane-surface $-1 65.311166921157195 -8.8740426830522665 60.770998906064079 0 0.78801076186113728 0.61566146476048833 1 0 0 forward_v I I I I #
loop $-1 $-1 $279 $71 #
coedge $-1 $182 $182 $183 $280 reversed $112 $-1 #
coedge $-1 $183 $183 $182 $280 forward $114 $-1 #
coedge $-1 $184 $184 $115 $185 forward $179 $-1 #
edge $-1 $281 -7.0069158268311758e-017 $281 6.2831853071796004 $184 $282 forward 7 unknown #
loop $-1 $-1 $191 $116 #
plane-surface $-1 65.311166921157195 -8.8740426830522665 60.770998906064079 0 0.78801076186113728 0.61566146476048833 1 0 0 forward_v I I I I #
loop $-1 $-1 $283 $74 #
coedge $-1 $189 $189 $190 $284 reversed $117 $-1 #
coedge $-1 $190 $190 $189 $284 forward $119 $-1 #
coedge $-1 $191 $191 $120 $192 forward $186 $-1 #
edge $-1 $285 -7.0069158268311758e-017 $285 6.2831853071796004 $191 $286 forward 7 unknown #
loop $-1 $-1 $198 $121 #
plane-surface $-1 65.311166921157195 -8.8740426830522665 60.770998906064079 0 0.78801076186113728 0.61566146476048833 1 0 0 forward_v I I I I #
loop $-1 $-1 $287 $77 #
coedge $-1 $196 $196 $197 $288 reversed $122 $-1 #
coedge $-1 $197 $197 $196 $288 forward $124 $-1 #
coedge $-1 $198 $198 $125 $199 forward $193 $-1 #
edge $-1 $289 -7.0069158268311758e-017 $289 6.2831853071796004 $198 $290 forward 7 unknown #
face $-1 $291 $292 $30 $-1 $293 reversed single #
loop $-1 $-1 $294 $126 #
plane-surface $-1 -78.808557390057075 0 0 1 0 0 0 0 -1 forward_v I I I I #
coedge $-1 $295 $211 $296 $297 forward $127 $-1 #
coedge $-1 $298 $129 $295 $299 forward $81 $-1 #
coedge $-1 $129 $298 $300 $301 forward $81 $-1 #
coedge $-1 $214 $213 $129 $207 reversed $215 $-1 #
edge $-1 $302 -38.362140326636201 $303 38.362140326636201 $206 $304 forward 7 unknown #
coedge $-1 $131 $130 $305 $306 forward $51 $-1 #
coedge $-1 $307 $308 $130 $210 reversed $292 $-1 #
edge $-1 $217 -78.808557390057075 $309 78.808557390057075 $209 $310 forward 7 unknown #
coedge $-1 $203 $311 $131 $212 reversed $127 $-1 #
edge $-1 $312 -78.808557390057075 $216 78.808557390057075 $211 $313 forward 7 unknown #
coedge $-1 $206 $132 $311 $314 forward $215 $-1 #
coedge $-1 $132 $206 $307 $315 reversed $215 $-1 #
loop $-1 $-1 $213 $291 #
vertex $-1 $133 $316 #
vertex $-1 $133 $317 #
straight-curve $-1 78.808557390057075 0 9.8812921711124684 0 1 0 I I #
face $-1 $318 $319 $31 $-1 $320 forward single #
loop $-1 $-1 $321 $134 #
plane-surface $-1 -78.808557390057075 0 0 1 0 0 0 0 -1 forward_v I I I I #
coedge $-1 $229 $322 $231 $323 forward $135 $-1 #
coedge $-1 $137 $231 $324 $325 reversed $85 $-1 #
coedge $-1 $326 $227 $137 $225 forward $327 $-1 #
edge $-1 $233 1.5259505166678284 $328 6.078877941852368 $224 $329 forward 7 unknown #
coedge $-1 $139 $138 $321 $330 reversed $54 $-1 #
coedge $-1 $224 $331 $138 $228 forward $327 $-1 #
edge $-1 $332 -41.355430559235288 $233 -33.550823102408287 $227 $333 forward 7 unknown #
coedge $-1 $334 $222 $139 $230 forward $135 $-1 #
edge $-1 $232 33.550823102408287 $335 41.355430559235288 $229 $336 forward 7 unknown #
coedge $-1 $223 $140 $222 $323 reversed $85 $-1 #
vertex $-1 $230 $337 #
vertex $-1 $228 $338 #
straight-curve $-1 -71.003949933230075 0 5.3283647459279271 0 -1 0 I I #
face $-1 $-1 $339 $32 $-1 $340 reversed single #
loop $-1 $-1 $148 $142 #
plane-surface $-1 0 0 9.8812921711124684 0 0 1 1 0 0 forward_v I I I I #
coedge $-1 $341 $342 $146 $244 forward $143 $-1 #
coedge $-1 $240 $145 $147 $245 reversed $89 $-1 #
coedge $-1 $145 $239 $343 $344 reversed $89 $-1 #
coedge $-1 $345 $148 $145 $242 forward $236 $-1 #
edge $-1 $248 -50.555470762974622 $346 -46.154185588202616 $241 $347 forward 7 unknown #
coedge $-1 $147 $146 $348 $349 reversed $57 $-1 #
edge $-1 $350 -9.3347439654221809 $247 -1.4639622697501768 $238 $351 forward 7 unknown #
edge $-1 $352 -1.2809303928265426e-014 $248 7.8707816956719903 $239 $353 forward 7 unknown #
coedge $-1 $148 $345 $341 $354 forward $236 $-1 #
vertex $-1 $149 $355 #
vertex $-1 $149 $356 #
straight-curve $-1 29.513439057431256 -33.960855151864195 9.8812921711124684 -1 0 0 I I #
coedge $-1 $250 $250 $-1 $357 reversed $152 $-1 #
edge $-1 $358 0 $358 6.2831853071796004 $153 $359 forward 7 unknown #
vertex $-1 $156 $360 #
ellipse-curve $-1 47.157870549745766 -36.161497739250194 6.6187052637926973 0 -0.82903758062907751 0.55919289150049634 1.5 0 0 1 I I #
coedge $-1 $254 $254 $-1 $361 reversed $159 $-1 #
edge $-1 $362 0 $362 6.2831853071796004 $160 $363 forward 7 unknown #
vertex $-1 $163 $364 #
ellipse-curve $-1 59.026878114862512 -36.161497739250194 6.6187052637926973 0 -0.82903758062907751 0.55919289150049634 1.5 0 0 1 I I #
coedge $-1 $258 $258 $-1 $365 reversed $166 $-1 #
edge $-1 $366 0 $366 6.2831853071796004 $167 $367 forward 7 unknown #
vertex $-1 $170 $368 #
ellipse-curve $-1 70.895885679979244 -36.161497739250194 6.6187052637926973 0 -0.82903758062907751 0.55919289150049634 1.5 0 0 1 I I #
face $-1 $-1 $275 $36 $-1 $369 reversed single #
loop $-1 $-1 $271 $171 #
plane-surface $-1 78.808557390057075 0 0 -1 0 0 0 0 1 forward_v I I I I #
coedge $-1 $370 $371 $267 $372 forward $172 $-1 #
coedge $-1 $267 $174 $176 $273 reversed $108 $-1 #
coedge $-1 $174 $266 $265 $372 reversed $108 $-1 #
coedge $-1 $373 $177 $174 $269 forward $275 $-1 #
edge $-1 $277 -78.593451276224386 $374 -69.023599160343124 $268 $375 forward 7 unknown #
coedge $-1 $176 $175 $370 $376 reversed $69 $-1 #
coedge $-1 $377 $378 $175 $272 forward $263 $-1 #
edge $-1 $379 37.904160498067469 $276 50.048477021459902 $271 $380 forward 7 unknown #
edge $-1 $381 64.57996412987994 $277 76.724280653272373 $266 $382 forward 7 unknown #
coedge $-1 $177 $373 $377 $383 forward $275 $-1 #
loop $-1 $-1 $268 $262 #
vertex $-1 $272 $384 #
vertex $-1 $178 $385 #
straight-curve $-1 32.655583460578598 38.362140326636208 0.31144005523119489 -1 0 0 I I #
coedge $-1 $279 $279 $-1 $386 reversed $181 $-1 #
edge $-1 $387 0 $387 6.2831853071796004 $182 $388 forward 7 unknown #
vertex $-1 $185 $389 #
ellipse-curve $-1 57.212732639817261 34.623746476982816 5.0963661131718148 0 0.78801076186113728 0.61566146476048833 2.5 0 0 1 I I #
coedge $-1 $283 $283 $-1 $390 reversed $188 $-1 #
edge $-1 $391 0 $391 6.2831853071796004 $189 $392 forward 7 unknown #
vertex $-1 $192 $393 #
ellipse-curve $-1 65.311166921157195 34.623746476982816 5.0963661131718148 0 0.78801076186113728 0.61566146476048833 2.5 0 0 1 I I #
coedge $-1 $287 $287 $-1 $394 reversed $195 $-1 #
edge $-1 $395 0 $395 6.2831853071796004 $196 $396 forward 7 unknown #
vertex $-1 $199 $397 #
ellipse-curve $-1 73.409601202497129 34.623746476982816 5.0963661131718148 0 0.78801076186113728 0.61566146476048833 2.5 0 0 1 I I #
face $-1 $-1 $215 $30 $-1 $398 reversed single #
loop $-1 $-1 $307 $200 #
plane-surface $-1 0 38.362140326636201 0 0 -1 0 0 0 -1 forward_v I I I I #
coedge $-1 $399 $305 $308 $400 forward $201 $-1 #
coedge $-1 $311 $203 $204 $299 reversed $127 $-1 #
coedge $-1 $305 $399 $203 $297 reversed $201 $-1 #
edge $-1 $312 -9.8812921711124684 $401 9.8812921711124684 $296 $402 forward 7 unknown #
coedge $-1 $205 $204 $399 $403 forward $81 $-1 #
edge $-1 $303 -78.808557390057075 $401 78.808557390057075 $295 $404 forward 7 unknown #
coedge $-1 $308 $307 $205 $301 reversed $292 $-1 #
edge $-1 $405 -78.808557390057075 $302 78.808557390057075 $300 $406 forward 7 unknown #
vertex $-1 $207 $407 #
vertex $-1 $314 $408 #
straight-curve $-1 78.808557390057075 0 -9.8812921711124684 0 -1 0 I I #
coedge $-1 $294 $296 $208 $306 reversed $201 $-1 #
edge $-1 $309 -38.362140326636201 $312 38.362140326636201 $305 $409 forward 7 unknown #
coedge $-1 $300 $209 $214 $315 forward $292 $-1 #
coedge $-1 $209 $300 $294 $400 reversed $292 $-1 #
vertex $-1 $210 $410 #
straight-curve $-1 0 38.362140326636201 9.8812921711124684 -1 0 0 I I #
coedge $-1 $211 $295 $213 $314 reversed $127 $-1 #
vertex $-1 $306 $411 #
straight-curve $-1 0 -38.362140326636201 9.8812921711124684 1 0 0 I I #
edge $-1 $216 -9.8812921711124684 $303 9.8812921711124684 $213 $412 forward 7 unknown #
edge $-1 $217 -9.8812921711124684 $302 9.8812921711124684 $214 $413 forward 7 unknown #
point $-1 78.808557390057075 -38.362140326636201 9.8812921711124684 #
point $-1 78.808557390057075 38.362140326636201 9.8812921711124684 #
face $-1 $-1 $327 $31 $-1 $414 reversed single #
loop $-1 $-1 $324 $219 #
plane-surface $-1 0 0 9.8812921711124684 0 0 1 1 0 0 forward_v I I I I #
coedge $-1 $415 $416 $226 $330 forward $220 $-1 #
coedge $-1 $222 $334 $417 $418 reversed $135 $-1 #
edge $-1 $419 -6.078877941852368 $232 -1.5259505166678284 $222 $420 forward 7 unknown #
coedge $-1 $417 $421 $223 $325 forward $319 $-1 #
edge $-1 $328 -38.362140326636201 $419 38.362140326636201 $324 $422 forward 7 unknown #
coedge $-1 $331 $224 $421 $423 reversed $327 $-1 #
loop $-1 $-1 $224 $318 #
vertex $-1 $225 $424 #
straight-curve $-1 -71.003949933230075 -38.362140326636201 3.8024142292600986 0 0 1 I I #
edge $-1 $335 -38.362140326636201 $332 38.362140326636201 $321 $425 forward 7 unknown #
coedge $-1 $227 $326 $415 $426 forward $327 $-1 #
vertex $-1 $330 $427 #
straight-curve $-1 -37.453126830821788 -38.362140326636201 5.3283647459279271 1 0 0 I I #
coedge $-1 $322 $229 $416 $428 reversed $135 $-1 #
vertex $-1 $330 $429 #
straight-curve $-1 -37.453126830821788 38.362140326636201 5.3283647459279271 -1 0 0 I I #
point $-1 -71.003949933230075 38.362140326636201 5.3283647459279271 #
point $-1 -71.003949933230075 -38.362140326636201 5.3283647459279271 #
loop $-1 $-1 $348 $235 #
plane-surface $-1 0 -38.362140326636201 0 0 1 0 0 0 1 forward_v I I I I #
coedge $-1 $342 $238 $246 $354 reversed $143 $-1 #
coedge $-1 $238 $341 $430 $431 forward $143 $-1 #
coedge $-1 $348 $432 $240 $344 forward $339 $-1 #
edge $-1 $346 35.865952089052819 $352 42.39112590369237 $343 $433 forward 7 unknown #
coedge $-1 $246 $241 $432 $434 forward $236 $-1 #
vertex $-1 $434 $435 #
straight-curve $-1 39.245198839667943 -84.516325914838816 9.8812921711124702 0 -1 0 I I #
coedge $-1 $430 $343 $243 $349 forward $339 $-1 #
edge $-1 $352 9.7317597822366864 $350 49.295118332625819 $348 $436 forward 7 unknown #
vertex $-1 $349 $437 #
straight-curve $-1 78.808557390057075 -33.142217857194964 11.094971909358408 0 0.55919289150049634 0.82903758062907751 I I #
vertex $-1 $349 $438 #
straight-curve $-1 39.245198839667943 -38.362140326636194 3.3561183564729333 0 0.55919289150049634 0.82903758062907751 I I #
edge $-1 $439 -38.362140326636201 $247 -33.960855151864195 $341 $440 forward 7 unknown #
point $-1 78.808557390057075 -33.960855151864195 9.8812921711124684 #
point $-1 39.245198839667943 -33.960855151864195 9.8812921711124684 #
edge $-1 $441 1 $441 0 $250 $-1 forward 7 unknown #
vertex $-1 $251 $442 #
ellipse-curve $-1 47.157870549745766 -34.800102001511334 5.7004322724947851 0 -0.82903758062907751 0.55919289150049634 1.5 0 0 1 I I #
point $-1 48.657870549745766 -36.161497739250194 6.6187052637926973 #
edge $-1 $443 1 $443 0 $254 $-1 forward 7 unknown #
vertex $-1 $255 $444 #
ellipse-curve $-1 59.026878114862512 -34.800102001511334 5.7004322724947851 0 -0.82903758062907751 0.55919289150049634 1.5 0 0 1 I I #
point $-1 60.526878114862512 -36.161497739250194 6.6187052637926973 #
edge $-1 $445 1 $445 0 $258 $-1 forward 7 unknown #
vertex $-1 $259 $446 #
ellipse-curve $-1 70.895885679979244 -34.800102001511334 5.7004322724947851 0 -0.82903758062907751 0.55919289150049634 1.5 0 0 1 I I #
point $-1 72.395885679979244 -36.161497739250194 6.6187052637926973 #
plane-surface $-1 0 38.362140326636201 0 0 -1 0 0 0 -1 forward_v I I I I #
coedge $-1 $447 $265 $270 $376 forward $172 $-1 #
coedge $-1 $265 $447 $373 $448 forward $172 $-1 #
edge $-1 $374 19.302829681953703 $381 26.779617381260493 $265 $449 forward 7 unknown #
coedge $-1 $274 $268 $371 $448 reversed $275 $-1 #
vertex $-1 $372 $450 #
straight-curve $-1 51.813776452257315 38.362140326636201 78.904891331455588 0 0 1 I I #
edge $-1 $381 19.158192991678717 $379 46.152973929478478 $370 $451 forward 7 unknown #
coedge $-1 $378 $271 $274 $383 reversed $263 $-1 #
coedge $-1 $271 $377 $447 $452 reversed $263 $-1 #
vertex $-1 $452 $453 #
straight-curve $-1 78.808557390057075 7.5492216545725555 39.750178562901439 0 0.61566146476048833 -0.78801076186113728 I I #
vertex $-1 $376 $454 #
straight-curve $-1 51.813776452257315 -8.8740426830522665 60.770998906064079 0 0.61566146476048833 -0.78801076186113728 I I #
edge $-1 $455 -9.8812921711124684 $276 -0.31144005523119317 $377 $456 forward 7 unknown #
point $-1 78.808557390057075 38.362140326636201 0.31144005523119317 #
point $-1 51.813776452257315 38.362140326636201 0.311440055231202 #
edge $-1 $457 1 $457 0 $279 $-1 forward 7 unknown #
vertex $-1 $280 $458 #
ellipse-curve $-1 57.212732639817261 28.427363443008502 0.25522124618595432 0 0.78801076186113728 0.61566146476048833 2.5 0 0 1 I I #
point $-1 59.712732639817261 34.623746476982809 5.0963661131718094 #
edge $-1 $459 1 $459 0 $283 $-1 forward 7 unknown #
vertex $-1 $284 $460 #
ellipse-curve $-1 65.311166921157195 28.427363443008502 0.25522124618595432 0 0.78801076186113728 0.61566146476048833 2.5 0 0 1 I I #
point $-1 67.811166921157195 34.623746476982809 5.0963661131718094 #
edge $-1 $461 1 $461 0 $287 $-1 forward 7 unknown #
vertex $-1 $288 $462 #
ellipse-curve $-1 73.409601202497129 28.427363443008502 0.25522124618595432 0 0.78801076186113728 0.61566146476048833 2.5 0 0 1 I I #
point $-1 75.909601202497129 34.623746476982809 5.0963661131718094 #
plane-surface $-1 78.808557390057075 0 0 -1 0 0 0 0 1 forward_v I I I I #
coedge $-1 $296 $294 $298 $403 reversed $201 $-1 #
edge $-1 $309 -9.8812921711124684 $405 9.8812921711124684 $308 $463 forward 7 unknown #
vertex $-1 $403 $464 #
straight-curve $-1 -78.808557390057075 -38.362140326636201 0 0 0 -1 I I #
edge $-1 $401 -38.362140326636201 $405 38.362140326636201 $399 $465 forward 7 unknown #
straight-curve $-1 0 -38.362140326636201 -9.8812921711124684 -1 0 0 I I #
vertex $-1 $301 $466 #
straight-curve $-1 0 38.362140326636201 -9.8812921711124684 1 0 0 I I #
point $-1 78.808557390057075 38.362140326636201 -9.8812921711124684 #
point $-1 78.808557390057075 -38.362140326636201 -9.8812921711124684 #
straight-curve $-1 -78.808557390057075 0 9.8812921711124684 0 -1 0 I I #
point $-1 -78.808557390057075 38.362140326636201 9.8812921711124684 #
point $-1 -78.808557390057075 -38.362140326636201 9.8812921711124684 #
straight-curve $-1 78.808557390057075 -38.362140326636201 0 0 0 -1 I I #
straight-curve $-1 78.808557390057075 38.362140326636201 0 0 0 -1 I I #
plane-surface $-1 0 -38.362140326636201 0 0 1 0 0 0 1 forward_v I I I I #
coedge $-1 $467 $321 $331 $426 reversed $220 $-1 #
coedge $-1 $321 $467 $334 $428 forward $220 $-1 #
coedge $-1 $468 $324 $322 $418 forward $319 $-1 #
edge $-1 $419 71.003949933230075 $469 78.808557390057075 $322 $470 forward 7 unknown #
vertex $-1 $418 $471 #
straight-curve $-1 -71.003949933230075 38.362140326636201 3.8024142292600986 0 0 -1 I I #
coedge $-1 $324 $468 $326 $423 forward $319 $-1 #
straight-curve $-1 -71.003949933230075 0 9.8812921711124684 0 1 0 I I #
edge $-1 $472 -78.808557390057075 $328 -71.003949933230075 $326 $473 forward 7 unknown #
point $-1 -71.003949933230075 -38.362140326636201 9.8812921711124666 #
straight-curve $-1 -78.808557390057075 0 5.3283647459279271 0 -1 0 I I #
edge $-1 $472 -9.8812921711124684 $332 -5.3283647459279271 $415 $474 forward 7 unknown #
point $-1 -78.808557390057075 -38.362140326636201 5.3283647459279271 #
edge $-1 $469 -9.8812921711124684 $335 -5.3283647459279271 $334 $475 forward 7 unknown #
point $-1 -78.808557390057075 38.362140326636201 5.3283647459279271 #
coedge $-1 $432 $348 $342 $431 reversed $339 $-1 #
edge $-1 $439 -9.8812921711124684 $350 -3.3561183564729227 $342 $476 forward 7 unknown #
coedge $-1 $343 $430 $345 $434 reversed $339 $-1 #
straight-curve $-1 39.245198839667943 -38.362140326636194 45.747244260165289 0 0 -1 I I #
edge $-1 $346 39.245198839667943 $439 78.808557390057075 $432 $477 forward 7 unknown #
point $-1 39.245198839667943 -38.362140326636201 9.8812921711124684 #
straight-curve $-1 29.513439057431256 -38.362140326636201 3.3561183564729218 1 0 0 I I #
point $-1 78.808557390057075 -38.362140326636201 3.3561183564729227 #
point $-1 39.245198839667943 -38.362140326636201 3.3561183564729227 #
vertex $-1 $354 $478 #
straight-curve $-1 78.808557390057075 0 9.8812921711124684 0 1 0 I I #
vertex $-1 $357 $479 #
point $-1 48.657870549745766 -34.800102001511334 5.7004322724947851 #
vertex $-1 $361 $480 #
point $-1 60.526878114862512 -34.800102001511334 5.7004322724947851 #
vertex $-1 $365 $481 #
point $-1 72.395885679979244 -34.800102001511334 5.7004322724947851 #
coedge $-1 $371 $370 $378 $452 forward $172 $-1 #
edge $-1 $455 -78.808557390057075 $374 -51.813776452257315 $373 $482 forward 7 unknown #
straight-curve $-1 51.813776452257315 57.664970008589904 9.8812921711124631 0 -1 0 I I #
point $-1 51.813776452257315 38.362140326636201 9.8812921711124684 #
straight-curve $-1 32.655583460578598 30.885352627329411 9.8812921711124702 1 0 0 I I #
edge $-1 $379 30.885352627329411 $455 38.362140326636201 $378 $483 forward 7 unknown #
point $-1 78.808557390057075 30.885352627329411 9.8812921711124702 #
point $-1 51.813776452257315 30.885352627329411 9.8812921711124702 #
vertex $-1 $452 $484 #
straight-curve $-1 78.808557390057075 38.362140326636201 0 0 0 -1 I I #
vertex $-1 $386 $485 #
point $-1 59.712732639817261 28.427363443008502 0.25522124618595432 #
vertex $-1 $390 $486 #
point $-1 67.811166921157195 28.427363443008502 0.25522124618595432 #
vertex $-1 $394 $487 #
point $-1 75.909601202497129 28.427363443008502 0.25522124618595432 #
straight-curve $-1 -78.808557390057075 38.362140326636201 0 0 0 -1 I I #
point $-1 -78.808557390057075 -38.362140326636201 -9.8812921711124684 #
straight-curve $-1 -78.808557390057075 0 -9.8812921711124684 0 1 0 I I #
point $-1 -78.808557390057075 38.362140326636201 -9.8812921711124684 #
coedge $-1 $416 $415 $468 $488 reversed $220 $-1 #
coedge $-1 $421 $417 $467 $488 forward $319 $-1 #
vertex $-1 $418 $489 #
straight-curve $-1 0 38.362140326636201 9.8812921711124684 -1 0 0 I I #
point $-1 -71.003949933230075 38.362140326636201 9.8812921711124666 #
vertex $-1 $488 $490 #
straight-curve $-1 0 -38.362140326636201 9.8812921711124684 1 0 0 I I #
straight-curve $-1 -78.808557390057075 -38.362140326636201 0 0 0 -1 I I #
straight-curve $-1 -78.808557390057075 38.362140326636201 0 0 0 -1 I I #
straight-curve $-1 78.808557390057075 -38.362140326636201 0 0 0 -1 I I #
straight-curve $-1 0 -38.362140326636201 9.8812921711124684 1 0 0 I I #
point $-1 78.808557390057075 -38.362140326636201 9.8812921711124684 #
point $-1 47.157870549745766 -33.556545630567712 4.8616429352440402 #
point $-1 59.026878114862512 -33.556545630567712 4.8616429352440402 #
point $-1 70.895885679979244 -33.556545630567712 4.8616429352440402 #
straight-curve $-1 0 38.362140326636201 9.8812921711124684 -1 0 0 I I #
straight-curve $-1 78.808557390057075 0 9.8812921711124684 0 1 0 I I #
point $-1 78.808557390057075 38.362140326636201 9.8812921711124684 #
point $-1 57.212732639817261 26.457336538355662 -1.2839324157152672 #
point $-1 65.311166921157195 26.457336538355662 -1.2839324157152672 #
point $-1 73.409601202497129 26.457336538355662 -1.2839324157152672 #
edge $-1 $469 -38.362140326636201 $472 38.362140326636201 $467 $491 forward 7 unknown #
point $-1 -78.808557390057075 38.362140326636201 9.8812921711124684 #
point $-1 -78.808557390057075 -38.362140326636201 9.8812921711124684 #
straight-curve $-1 -78.808557390057075 0 9.8812921711124684 0 -1 0 I I #
End-of-ACIS-data 