500 0 3 0           
7 Unknown 11 ACIS 5.0 NT 24 Fri Mar 26 19:57:42 1999 
-1 9.9999999999999995e-007 1e-010 
body $-1 $3 $-1 $4 #
body $-1 $5 $-1 $6 #
body $-1 $7 $-1 $8 #
lump $-1 $-1 $9 $0 #
transform $-1 1 0 0 0 1 0 0 0 1 49.353312784203617 25.624049615200171 10.767934616579494 1 rotate no_reflect no_shear #
lump $-1 $-1 $10 $1 #
transform $-1 1 0 0 0 1 0 0 0 1 49.353312784203617 25.624049615200171 10.767934616579494 1 rotate no_reflect no_shear #
lump $-1 $-1 $11 $2 #
transform $-1 1 0 0 0 1 0 0 0 1 49.353312784203617 25.624049615200171 10.767934616579494 1 rotate no_reflect no_shear #
shell $-1 $-1 $-1 $12 $-1 $3 #
shell $-1 $-1 $-1 $13 $-1 $5 #
shell $-1 $-1 $-1 $14 $-1 $7 #
face $-1 $15 $16 $9 $-1 $17 forward single #
face $-1 $18 $19 $10 $-1 $20 reversed single #
face $-1 $21 $22 $11 $-1 $23 reversed single #
face $-1 $24 $25 $9 $-1 $26 reversed single #
loop $-1 $-1 $27 $12 #
plane-surface $-1 0 0 10.767934616579494 0 0 1 1 0 0 forward_v I I I I #
face $-1 $28 $29 $10 $-1 $30 reversed single #
loop $-1 $-1 $31 $13 #
plane-surface $-1 0 -18.746248679704319 5.7285267566824469 0 0 1 1 0 0 forward_v I I I I #
face $-1 $32 $33 $11 $-1 $34 reversed single #
loop $-1 $-1 $35 $14 #
plane-surface $-1 0 18.746248679704316 5.7285267566824469 0 0 1 1 0 0 forward_v I I I I #
face $-1 $36 $37 $9 $-1 $38 reversed single #
loop $-1 $-1 $39 $15 #
plane-surface $-1 0 0 -10.767934616579494 0 0 1 1 0 0 forward_v I I I I #
coedge $-1 $40 $41 $42 $43 forward $16 $-1 #
face $-1 $44 $45 $10 $-1 $46 reversed single #
loop $-1 $-1 $47 $18 #
plane-surface $-1 0 -11.868447744208467 8.2482306866309703 0 -1 0 0 0 -1 forward_v I I I I #
coedge $-1 $48 $49 $50 $51 reversed $19 $-1 #
face $-1 $52 $53 $11 $-1 $54 forward single #
loop $-1 $-1 $55 $21 #
plane-surface $-1 0 11.868447744208463 8.2482306866309703 0 1 0 0 0 1 forward_v I I I I #
coedge $-1 $56 $57 $58 $59 reversed $22 $-1 #
face $-1 $60 $61 $9 $-1 $62 reversed single #
loop $-1 $-1 $63 $24 #
plane-surface $-1 0 -25.624049615200171 0 0 1 0 0 0 1 forward_v I I I I #
coedge $-1 $64 $65 $66 $67 forward $25 $-1 #
coedge $-1 $68 $27 $69 $70 forward $16 $-1 #
coedge $-1 $27 $68 $71 $72 forward $16 $-1 #
coedge $-1 $73 $74 $27 $43 reversed $75 $-1 #
edge $-1 $76 -25.624049615200171 $77 25.624049615200171 $42 $78 forward 7 unknown #
face $-1 $79 $80 $10 $-1 $81 reversed single #
loop $-1 $-1 $82 $28 #
plane-surface $-1 -49.353312784203617 0 0 1 0 0 0 0 -1 forward_v I I I I #
coedge $-1 $83 $84 $85 $86 reversed $29 $-1 #
coedge $-1 $87 $31 $88 $89 reversed $19 $-1 #
coedge $-1 $31 $87 $83 $90 forward $19 $-1 #
coedge $-1 $85 $91 $31 $51 forward $92 $-1 #
edge $-1 $93 -16.25092527534801 $94 -2.4953234043563075 $50 $95 forward 7 unknown #
face $-1 $96 $97 $11 $-1 $98 reversed single #
loop $-1 $-1 $99 $32 #
plane-surface $-1 0 0 10.767934616579494 0 0 1 1 0 0 forward_v I I I I #
coedge $-1 $100 $101 $102 $103 reversed $33 $-1 #
coedge $-1 $104 $35 $100 $105 forward $22 $-1 #
coedge $-1 $35 $104 $106 $107 reversed $22 $-1 #
coedge $-1 $108 $109 $35 $59 forward $97 $-1 #
edge $-1 $110 2.4953234043563057 $111 16.25092527534801 $58 $112 forward 7 unknown #
face $-1 $113 $114 $9 $-1 $115 reversed single #
loop $-1 $-1 $116 $36 #
plane-surface $-1 -49.353312784203617 0 0 1 0 0 0 0 -1 forward_v I I I I #
coedge $-1 $117 $71 $118 $119 forward $37 $-1 #
coedge $-1 $120 $39 $117 $121 forward $25 $-1 #
coedge $-1 $39 $120 $122 $123 forward $25 $-1 #
coedge $-1 $74 $73 $39 $67 reversed $75 $-1 #
edge $-1 $124 -25.624049615200171 $125 25.624049615200171 $66 $126 forward 7 unknown #
coedge $-1 $41 $40 $127 $128 forward $16 $-1 #
coedge $-1 $129 $130 $40 $70 reversed $114 $-1 #
edge $-1 $77 -49.353312784203617 $131 49.353312784203617 $69 $132 forward 7 unknown #
coedge $-1 $63 $133 $41 $72 reversed $37 $-1 #
edge $-1 $134 -49.353312784203617 $76 49.353312784203617 $71 $135 forward 7 unknown #
coedge $-1 $66 $42 $133 $136 forward $75 $-1 #
coedge $-1 $42 $66 $129 $137 reversed $75 $-1 #
loop $-1 $-1 $73 $113 #
vertex $-1 $43 $138 #
vertex $-1 $43 $139 #
straight-curve $-1 49.353312784203617 0 10.767934616579494 0 1 0 I I #
face $-1 $140 $141 $10 $-1 $142 forward single #
loop $-1 $-1 $88 $44 #
plane-surface $-1 0 -25.624049615200171 0 0 1 0 0 0 1 forward_v I I I I #
coedge $-1 $143 $144 $145 $146 forward $45 $-1 #
coedge $-1 $145 $47 $49 $90 reversed $29 $-1 #
coedge $-1 $47 $145 $147 $148 reversed $29 $-1 #
coedge $-1 $149 $50 $47 $86 forward $92 $-1 #
edge $-1 $94 1.6044114133669618 $150 6.6438192732640085 $85 $151 forward 7 unknown #
coedge $-1 $49 $48 $143 $152 reversed $19 $-1 #
coedge $-1 $153 $154 $48 $89 forward $80 $-1 #
edge $-1 $155 -49.353312784203617 $93 49.353312784203617 $88 $156 forward 7 unknown #
edge $-1 $157 -49.353312784203617 $94 49.353312784203617 $83 $158 forward 7 unknown #
coedge $-1 $50 $149 $153 $159 forward $92 $-1 #
loop $-1 $-1 $85 $140 #
vertex $-1 $89 $160 #
vertex $-1 $51 $161 #
straight-curve $-1 49.353312784203617 -9.3731243398521595 5.7285267566824469 0 1 0 I I #
face $-1 $162 $163 $11 $-1 $164 reversed single #
loop $-1 $-1 $109 $52 #
plane-surface $-1 49.353312784203617 0 0 -1 0 0 0 0 1 forward_v I I I I #
coedge $-1 $165 $166 $101 $167 forward $53 $-1 #
coedge $-1 $168 $55 $56 $105 reversed $33 $-1 #
coedge $-1 $55 $168 $99 $167 reversed $33 $-1 #
coedge $-1 $169 $170 $55 $103 forward $163 $-1 #
edge $-1 $171 1.6044114133669618 $172 6.6438192732640085 $102 $173 forward 7 unknown #
coedge $-1 $57 $56 $170 $174 reversed $22 $-1 #
edge $-1 $110 -49.353312784203617 $171 49.353312784203617 $100 $175 forward 7 unknown #
coedge $-1 $176 $177 $57 $107 forward $178 $-1 #
edge $-1 $111 -49.353312784203617 $179 49.353312784203617 $106 $180 forward 7 unknown #
coedge $-1 $181 $58 $177 $182 reversed $97 $-1 #
coedge $-1 $58 $181 $168 $183 forward $97 $-1 #
vertex $-1 $59 $184 #
vertex $-1 $107 $185 #
straight-curve $-1 49.353312784203617 9.3731243398521578 5.7285267566824469 0 1 0 I I #
face $-1 $-1 $75 $9 $-1 $186 reversed single #
loop $-1 $-1 $129 $60 #
plane-surface $-1 0 25.624049615200171 0 0 -1 0 0 0 -1 forward_v I I I I #
coedge $-1 $187 $127 $130 $188 forward $61 $-1 #
coedge $-1 $133 $63 $64 $121 reversed $37 $-1 #
coedge $-1 $127 $187 $63 $119 reversed $61 $-1 #
edge $-1 $134 -10.767934616579494 $189 10.767934616579494 $118 $190 forward 7 unknown #
coedge $-1 $65 $64 $187 $191 forward $25 $-1 #
edge $-1 $125 -49.353312784203617 $189 49.353312784203617 $117 $192 forward 7 unknown #
coedge $-1 $130 $129 $65 $123 reversed $114 $-1 #
edge $-1 $193 -49.353312784203617 $124 49.353312784203617 $122 $194 forward 7 unknown #
vertex $-1 $67 $195 #
vertex $-1 $136 $196 #
straight-curve $-1 49.353312784203617 0 -10.767934616579494 0 -1 0 I I #
coedge $-1 $116 $118 $68 $128 reversed $61 $-1 #
edge $-1 $131 -25.624049615200171 $134 25.624049615200171 $127 $197 forward 7 unknown #
coedge $-1 $122 $69 $74 $137 forward $114 $-1 #
coedge $-1 $69 $122 $116 $188 reversed $114 $-1 #
vertex $-1 $70 $198 #
straight-curve $-1 0 25.624049615200171 10.767934616579494 -1 0 0 I I #
coedge $-1 $71 $117 $73 $136 reversed $37 $-1 #
vertex $-1 $128 $199 #
straight-curve $-1 0 -25.624049615200171 10.767934616579494 1 0 0 I I #
edge $-1 $76 -10.767934616579494 $125 10.767934616579494 $73 $200 forward 7 unknown #
edge $-1 $77 -10.767934616579494 $124 10.767934616579494 $74 $201 forward 7 unknown #
point $-1 49.353312784203617 -25.624049615200171 10.767934616579494 #
point $-1 49.353312784203617 25.624049615200171 10.767934616579494 #
face $-1 $-1 $92 $10 $-1 $202 reversed single #
loop $-1 $-1 $147 $79 #
plane-surface $-1 0 0 10.767934616579494 0 0 1 1 0 0 forward_v I I I I #
coedge $-1 $203 $82 $87 $152 forward $45 $-1 #
coedge $-1 $82 $203 $204 $205 reversed $45 $-1 #
coedge $-1 $84 $83 $82 $146 reversed $29 $-1 #
edge $-1 $206 -6.6438192732640085 $157 -1.6044114133669618 $82 $207 forward 7 unknown #
coedge $-1 $204 $208 $84 $148 forward $141 $-1 #
edge $-1 $150 -49.353312784203617 $206 49.353312784203617 $147 $209 forward 7 unknown #
coedge $-1 $91 $85 $208 $210 reversed $92 $-1 #
vertex $-1 $86 $211 #
straight-curve $-1 49.353312784203617 -11.868447744208467 4.1241153433154851 0 0 1 I I #
edge $-1 $157 2.4953234043563075 $155 16.25092527534801 $143 $212 forward 7 unknown #
coedge $-1 $213 $88 $91 $159 reversed $80 $-1 #
coedge $-1 $88 $213 $203 $214 forward $80 $-1 #
vertex $-1 $89 $215 #
straight-curve $-1 0 -25.624049615200171 5.7285267566824469 1 0 0 I I #
vertex $-1 $152 $216 #
straight-curve $-1 0 -11.868447744208467 5.7285267566824469 1 0 0 I I #
edge $-1 $217 -10.767934616579494 $93 -5.7285267566824469 $91 $218 forward 7 unknown #
point $-1 49.353312784203617 -25.624049615200171 5.7285267566824469 #
point $-1 49.353312784203617 -11.868447744208467 5.7285267566824469 #
face $-1 $-1 $178 $11 $-1 $219 reversed single #
loop $-1 $-1 $102 $96 #
plane-surface $-1 -49.353312784203617 0 0 1 0 0 0 0 -1 forward_v I I I I #
coedge $-1 $220 $99 $181 $221 forward $53 $-1 #
coedge $-1 $99 $220 $169 $222 forward $53 $-1 #
edge $-1 $172 -49.353312784203617 $223 49.353312784203617 $99 $224 forward 7 unknown #
coedge $-1 $101 $100 $109 $183 reversed $33 $-1 #
coedge $-1 $225 $102 $166 $222 reversed $163 $-1 #
coedge $-1 $102 $225 $104 $174 forward $163 $-1 #
vertex $-1 $174 $226 #
vertex $-1 $103 $227 #
straight-curve $-1 -49.353312784203617 11.868447744208463 4.1241153433154851 0 0 1 I I #
edge $-1 $179 -16.25092527534801 $171 -2.4953234043563057 $170 $228 forward 7 unknown #
straight-curve $-1 0 11.868447744208463 5.7285267566824469 -1 0 0 I I #
coedge $-1 $229 $106 $225 $230 reversed $178 $-1 #
coedge $-1 $106 $229 $108 $182 forward $178 $-1 #
loop $-1 $-1 $106 $162 #
vertex $-1 $107 $231 #
straight-curve $-1 0 25.624049615200171 5.7285267566824469 -1 0 0 I I #
coedge $-1 $109 $108 $165 $221 reversed $97 $-1 #
edge $-1 $232 -10.767934616579494 $111 -5.7285267566824469 $108 $233 forward 7 unknown #
edge $-1 $223 -6.6438192732640085 $110 -1.6044114133669618 $109 $234 forward 7 unknown #
point $-1 49.353312784203617 11.868447744208463 5.7285267566824469 #
point $-1 49.353312784203617 25.624049615200168 5.7285267566824469 #
plane-surface $-1 49.353312784203617 0 0 -1 0 0 0 0 1 forward_v I I I I #
coedge $-1 $118 $116 $120 $191 reversed $61 $-1 #
edge $-1 $131 -10.767934616579494 $193 10.767934616579494 $130 $235 forward 7 unknown #
vertex $-1 $191 $236 #
straight-curve $-1 -49.353312784203617 -25.624049615200171 0 0 0 -1 I I #
edge $-1 $189 -25.624049615200171 $193 25.624049615200171 $187 $237 forward 7 unknown #
straight-curve $-1 0 -25.624049615200171 -10.767934616579494 -1 0 0 I I #
vertex $-1 $123 $238 #
straight-curve $-1 0 25.624049615200171 -10.767934616579494 1 0 0 I I #
point $-1 49.353312784203617 25.624049615200171 -10.767934616579494 #
point $-1 49.353312784203617 -25.624049615200171 -10.767934616579494 #
straight-curve $-1 -49.353312784203617 0 10.767934616579494 0 -1 0 I I #
point $-1 -49.353312784203617 25.624049615200171 10.767934616579494 #
point $-1 -49.353312784203617 -25.624049615200171 10.767934616579494 #
straight-curve $-1 49.353312784203617 -25.624049615200171 0 0 0 -1 I I #
straight-curve $-1 49.353312784203617 25.624049615200171 0 0 0 -1 I I #
plane-surface $-1 49.353312784203617 0 0 -1 0 0 0 0 1 forward_v I I I I #
coedge $-1 $144 $143 $154 $214 reversed $45 $-1 #
coedge $-1 $239 $147 $144 $205 forward $141 $-1 #
edge $-1 $206 11.868447744208467 $240 25.624049615200171 $144 $241 forward 7 unknown #
vertex $-1 $205 $242 #
straight-curve $-1 -49.353312784203617 -11.868447744208467 4.1241153433154851 0 0 -1 I I #
coedge $-1 $147 $239 $149 $210 forward $141 $-1 #
straight-curve $-1 0 -11.868447744208467 10.767934616579494 -1 0 0 I I #
edge $-1 $217 -25.624049615200171 $150 -11.868447744208467 $149 $243 forward 7 unknown #
point $-1 49.353312784203617 -11.868447744208467 10.767934616579494 #
straight-curve $-1 -49.353312784203617 -9.3731243398521595 5.7285267566824469 0 -1 0 I I #
coedge $-1 $154 $153 $239 $244 reversed $80 $-1 #
edge $-1 $240 -10.767934616579494 $155 -5.7285267566824469 $203 $245 forward 7 unknown #
point $-1 -49.353312784203617 -25.624049615200171 5.7285267566824469 #
point $-1 -49.353312784203617 -11.868447744208467 5.7285267566824469 #
vertex $-1 $210 $246 #
straight-curve $-1 49.353312784203617 -25.624049615200171 0 0 0 -1 I I #
plane-surface $-1 0 25.624049615200171 0 0 -1 0 0 0 -1 forward_v I I I I #
coedge $-1 $166 $165 $229 $247 forward $53 $-1 #
edge $-1 $223 11.868447744208463 $232 25.624049615200171 $181 $248 forward 7 unknown #
edge $-1 $249 -25.624049615200171 $172 -11.868447744208463 $169 $250 forward 7 unknown #
vertex $-1 $221 $251 #
straight-curve $-1 0 11.868447744208463 10.767934616579494 1 0 0 I I #
coedge $-1 $170 $169 $176 $230 forward $163 $-1 #
point $-1 -49.353312784203617 11.868447744208463 5.7285267566824469 #
point $-1 -49.353312784203617 11.868447744208463 10.767934616579494 #
straight-curve $-1 -49.353312784203617 9.3731243398521578 5.7285267566824469 0 -1 0 I I #
coedge $-1 $177 $176 $220 $247 reversed $178 $-1 #
edge $-1 $249 -10.767934616579494 $179 -5.7285267566824469 $176 $252 forward 7 unknown #
point $-1 -49.353312784203617 25.624049615200168 5.7285267566824469 #
vertex $-1 $221 $253 #
straight-curve $-1 49.353312784203617 25.624049615200171 0 0 0 -1 I I #
straight-curve $-1 49.353312784203617 11.868447744208463 4.1241153433154851 0 0 -1 I I #
straight-curve $-1 -49.353312784203617 25.624049615200171 0 0 0 -1 I I #
point $-1 -49.353312784203617 -25.624049615200171 -10.767934616579494 #
straight-curve $-1 -49.353312784203617 0 -10.767934616579494 0 1 0 I I #
point $-1 -49.353312784203617 25.624049615200171 -10.767934616579494 #
coedge $-1 $208 $204 $213 $244 forward $141 $-1 #
vertex $-1 $205 $254 #
straight-curve $-1 -49.353312784203617 0 10.767934616579494 0 -1 0 I I #
point $-1 -49.353312784203617 -11.868447744208467 10.767934616579494 #
straight-curve $-1 49.353312784203617 0 10.767934616579494 0 1 0 I I #
edge $-1 $240 -49.353312784203617 $217 49.353312784203617 $213 $255 forward 7 unknown #
straight-curve $-1 -49.353312784203617 -25.624049615200171 0 0 0 -1 I I #
point $-1 49.353312784203617 -25.624049615200171 10.767934616579494 #
edge $-1 $232 -49.353312784203617 $249 49.353312784203617 $229 $256 forward 7 unknown #
straight-curve $-1 49.353312784203617 0 10.767934616579494 0 1 0 I I #
vertex $-1 $247 $257 #
straight-curve $-1 -49.353312784203617 0 10.767934616579494 0 -1 0 I I #
point $-1 49.353312784203617 11.868447744208463 10.767934616579494 #
straight-curve $-1 -49.353312784203617 25.624049615200171 0 0 0 -1 I I #
point $-1 49.353312784203617 25.624049615200171 10.767934616579494 #
point $-1 -49.353312784203617 -25.624049615200171 10.767934616579494 #
straight-curve $-1 0 -25.624049615200171 10.767934616579494 1 0 0 I I #
straight-curve $-1 0 25.624049615200171 10.767934616579494 -1 0 0 I I #
point $-1 -49.353312784203617 25.624049615200171 10.767934616579494 #
End-of-ACIS-data 