500 0 15 0           
7 Unknown 11 ACIS 5.0 NT 24 Thu Mar 25 15:55:17 1999 
-1 9.9999999999999995e-007 1e-010 
body $-1 $15 $-1 $16 #
body $-1 $17 $-1 $18 #
body $-1 $19 $-1 $20 #
body $-1 $21 $-1 $22 #
body $-1 $23 $-1 $24 #
body $-1 $25 $-1 $26 #
body $-1 $27 $-1 $28 #
body $-1 $29 $-1 $30 #
body $-1 $31 $-1 $32 #
body $-1 $33 $-1 $34 #
body $-1 $35 $-1 $36 #
body $-1 $37 $-1 $38 #
body $-1 $39 $-1 $40 #
body $-1 $41 $-1 $42 #
body $-1 $43 $-1 $44 #
lump $-1 $-1 $45 $0 #
transform $-1 1 0 0 0 1 0 0 0 1 53.491622669148839 36.091948879761468 9.1180993689246321 1 rotate no_reflect no_shear #
lump $-1 $-1 $46 $1 #
transform $-1 1 0 0 0 1 0 0 0 1 53.491622669148839 36.091948879761468 9.1180993689246321 1 rotate no_reflect no_shear #
lump $-1 $-1 $47 $2 #
transform $-1 1 0 0 0 1 0 0 0 1 53.491622669148839 36.091948879761468 9.1180993689246321 1 rotate no_reflect no_shear #
lump $-1 $-1 $48 $3 #
transform $-1 1 0 0 0 1 0 0 0 1 53.491622669148839 36.091948879761468 9.1180993689246321 1 rotate no_reflect no_shear #
lump $-1 $-1 $49 $4 #
transform $-1 1 0 0 0 1 0 0 0 1 53.491622669148839 36.091948879761468 9.1180993689246321 1 rotate no_reflect no_shear #
lump $-1 $-1 $50 $5 #
transform $-1 1 0 0 0 1 0 0 0 1 53.491622669148839 36.091948879761468 9.1180993689246321 1 rotate no_reflect no_shear #
lump $-1 $-1 $51 $6 #
transform $-1 1 0 0 0 1 0 0 0 1 53.491622669148839 36.091948879761468 9.1180993689246321 1 rotate no_reflect no_shear #
lump $-1 $-1 $52 $7 #
transform $-1 1 0 0 0 1 0 0 0 1 53.491622669148839 36.091948879761468 9.1180993689246321 1 rotate no_reflect no_shear #
lump $-1 $-1 $53 $8 #
transform $-1 1 0 0 0 1 0 0 0 1 53.491622669148839 36.091948879761468 9.1180993689246321 1 rotate no_reflect no_shear #
lump $-1 $-1 $54 $9 #
transform $-1 1 0 0 0 1 0 0 0 1 53.491622669148839 36.091948879761468 9.1180993689246321 1 rotate no_reflect no_shear #
lump $-1 $-1 $55 $10 #
transform $-1 1 0 0 0 1 0 0 0 1 53.491622669148839 36.091948879761468 9.1180993689246321 1 rotate no_reflect no_shear #
lump $-1 $-1 $56 $11 #
transform $-1 1 0 0 0 1 0 0 0 1 53.491622669148839 36.091948879761468 9.1180993689246321 1 rotate no_reflect no_shear #
lump $-1 $-1 $57 $12 #
transform $-1 1 0 0 0 1 0 0 0 1 53.491622669148839 36.091948879761468 9.1180993689246321 1 rotate no_reflect no_shear #
lump $-1 $-1 $58 $13 #
transform $-1 1 0 0 0 1 0 0 0 1 53.491622669148839 36.091948879761468 9.1180993689246321 1 rotate no_reflect no_shear #
lump $-1 $-1 $59 $14 #
transform $-1 1 0 0 0 1 0 0 0 1 53.491622669148839 36.091948879761468 9.1180993689246321 1 rotate no_reflect no_shear #
shell $-1 $-1 $-1 $60 $-1 $15 #
shell $-1 $-1 $-1 $61 $-1 $17 #
shell $-1 $-1 $-1 $62 $-1 $19 #
shell $-1 $-1 $-1 $63 $-1 $21 #
shell $-1 $-1 $-1 $64 $-1 $23 #
shell $-1 $-1 $-1 $65 $-1 $25 #
shell $-1 $-1 $-1 $66 $-1 $27 #
shell $-1 $-1 $-1 $67 $-1 $29 #
shell $-1 $-1 $-1 $68 $-1 $31 #
shell $-1 $-1 $-1 $69 $-1 $33 #
shell $-1 $-1 $-1 $70 $-1 $35 #
shell $-1 $-1 $-1 $71 $-1 $37 #
shell $-1 $-1 $-1 $72 $-1 $39 #
shell $-1 $-1 $-1 $73 $-1 $41 #
shell $-1 $-1 $-1 $74 $-1 $43 #
face $-1 $75 $76 $45 $-1 $77 forward single #
face $-1 $78 $79 $46 $-1 $80 reversed single #
face $-1 $81 $82 $47 $-1 $83 reversed single #
face $-1 $84 $85 $48 $-1 $86 reversed single #
face $-1 $87 $88 $49 $-1 $89 forward single #
face $-1 $90 $91 $50 $-1 $92 forward single #
face $-1 $93 $94 $51 $-1 $95 reversed single #
face $-1 $96 $97 $52 $-1 $98 forward single #
face $-1 $99 $100 $53 $-1 $101 forward single #
face $-1 $102 $103 $54 $-1 $104 reversed single #
face $-1 $105 $106 $55 $-1 $107 forward single #
face $-1 $108 $109 $56 $-1 $110 forward single #
face $-1 $111 $112 $57 $-1 $113 reversed single #
face $-1 $114 $115 $58 $-1 $116 forward single #
face $-1 $117 $118 $59 $-1 $119 forward single #
face $-1 $120 $121 $45 $-1 $122 reversed single #
loop $-1 $-1 $123 $60 #
plane-surface $-1 0 0 9.1180993689246321 0 0 1 1 0 0 forward_v I I I I #
face $-1 $124 $125 $46 $-1 $126 reversed single #
loop $-1 $-1 $127 $61 #
plane-surface $-1 -44.914677871511216 -32.737605847538006 0 1 0 0 0 0 -1 forward_v I I I I #
face $-1 $128 $129 $47 $-1 $130 reversed single #
loop $-1 $-1 $131 $62 #
plane-surface $-1 -37.831181955793028 27.102956032129782 0 0 1 0 0 0 1 forward_v I I I I #
face $-1 $132 $133 $48 $-1 $134 reversed single #
loop $-1 $-1 $135 $63 #
plane-surface $-1 61.409905901525519 -21.540374317114541 152.29412242588927 0 -1 0 -0.74314483375859142 0 -0.66913059716165679 forward_v I I I I #
face $-1 $136 $137 $49 $-1 $138 forward single #
loop $-1 $139 $140 $64 #
cone-surface $-1 49.044097673022115 -27.142437530114549 4.3645985731248356 -0.74314483375859142 0 -0.66913059716165679 0.66913059716165679 0 -0.74314483375859142 1 I I 0 1 1 forward I I I I #
face $-1 $141 $142 $50 $-1 $143 forward single #
loop $-1 $144 $145 $65 #
cone-surface $-1 49.044097673022115 -23.78119960231454 4.3645985731248356 -0.74314483375859142 0 -0.66913059716165679 0.66913059716165679 0 -0.74314483375859142 1 I I 0 1 1 forward I I I I #
face $-1 $146 $147 $51 $-1 $148 reversed single #
loop $-1 $-1 $149 $66 #
plane-surface $-1 61.409905901525519 -7.4188196052534536 152.29412242588927 0 -1 0 -0.74314483375859142 0 -0.66913059716165679 forward_v I I I I #
face $-1 $150 $151 $52 $-1 $152 forward single #
loop $-1 $153 $154 $67 #
cone-surface $-1 49.044097673022115 -13.020882818253462 4.3645985731248356 -0.74314483375859142 0 -0.66913059716165679 0.66913059716165679 0 -0.74314483375859142 1 I I 0 1 1 forward I I I I #
face $-1 $155 $156 $53 $-1 $157 forward single #
loop $-1 $158 $159 $68 #
cone-surface $-1 49.044097673022115 -9.6596448904534569 4.3645985731248356 -0.74314483375859142 0 -0.66913059716165679 0.66913059716165679 0 -0.74314483375859142 1 I I 0 1 1 forward I I I I #
face $-1 $160 $161 $54 $-1 $162 reversed single #
loop $-1 $-1 $163 $69 #
plane-surface $-1 61.409905901525519 6.7027351066076335 152.29412242588927 0 -1 0 -0.74314483375859142 0 -0.66913059716165679 forward_v I I I I #
face $-1 $164 $165 $55 $-1 $166 forward single #
loop $-1 $167 $168 $70 #
cone-surface $-1 49.044097673022115 1.1006718936076254 4.3645985731248356 -0.74314483375859142 0 -0.66913059716165679 0.66913059716165679 0 -0.74314483375859142 1 I I 0 1 1 forward I I I I #
face $-1 $169 $170 $56 $-1 $171 forward single #
loop $-1 $172 $173 $71 #
cone-surface $-1 49.044097673022115 4.4619098214076303 4.3645985731248356 -0.74314483375859142 0 -0.66913059716165679 0.66913059716165679 0 -0.74314483375859142 1 I I 0 1 1 forward I I I I #
face $-1 $174 $175 $57 $-1 $176 reversed single #
loop $-1 $-1 $177 $72 #
plane-surface $-1 61.409905901525519 20.824289818468721 152.29412242588927 0 -1 0 -0.74314483375859142 0 -0.66913059716165679 forward_v I I I I #
face $-1 $178 $179 $58 $-1 $180 forward single #
loop $-1 $181 $182 $73 #
cone-surface $-1 49.044097673022115 15.222226605468713 4.3645985731248356 -0.74314483375859142 0 -0.66913059716165679 0.66913059716165679 0 -0.74314483375859142 1 I I 0 1 1 forward I I I I #
face $-1 $183 $184 $59 $-1 $185 forward single #
loop $-1 $186 $187 $74 #
cone-surface $-1 49.044097673022115 18.583464533268717 4.3645985731248356 -0.74314483375859142 0 -0.66913059716165679 0.66913059716165679 0 -0.74314483375859142 1 I I 0 1 1 forward I I I I #
face $-1 $188 $189 $45 $-1 $190 reversed single #
loop $-1 $-1 $191 $75 #
plane-surface $-1 0 0 -9.1180993689246321 0 0 1 1 0 0 forward_v I I I I #
coedge $-1 $192 $193 $194 $195 forward $76 $-1 #
face $-1 $196 $197 $46 $-1 $198 reversed single #
loop $-1 $-1 $199 $78 #
plane-surface $-1 -43.276636795575826 -29.383262815314549 0 0 -1 0 0 0 -1 forward_v I I I I #
coedge $-1 $200 $201 $202 $203 forward $79 $-1 #
face $-1 $204 $205 $47 $-1 $206 reversed single #
loop $-1 $-1 $207 $81 #
plane-surface $-1 -40.406939980286481 31.597452455945621 0 1 0 0 0 0 -1 forward_v I I I I #
coedge $-1 $208 $209 $210 $211 forward $82 $-1 #
face $-1 $212 $213 $48 $-1 $214 reversed single #
loop $-1 $-1 $215 $84 #
plane-surface $-1 -18.094140170358315 -25.461818566214546 80.708359586382116 0.74314483375859142 0 0.66913059716165679 0.66913059716165679 0 -0.74314483375859142 forward_v I I I I #
coedge $-1 $216 $217 $218 $219 reversed $85 $-1 #
face $-1 $-1 $220 $49 $-1 $221 forward single #
loop $-1 $222 $223 $87 #
cone-surface $-1 47.787802565859735 -27.142437530114549 3.2334254059573908 -0.74314483375859142 0 -0.66913059716165679 0.3345652985808284 0 -0.37157241687929571 1 I I -0.70710678118654746 0.70710678118654746 0.5 forward I I I I #
loop $-1 $-1 $224 $64 #
coedge $-1 $140 $140 $225 $226 reversed $88 $-1 #
face $-1 $-1 $227 $50 $-1 $228 forward single #
loop $-1 $229 $230 $90 #
cone-surface $-1 47.787802565859735 -23.78119960231454 3.2334254059573908 -0.74314483375859142 0 -0.66913059716165679 0.3345652985808284 0 -0.37157241687929571 1 I I -0.70710678118654746 0.70710678118654746 0.5 forward I I I I #
loop $-1 $-1 $231 $65 #
coedge $-1 $145 $145 $232 $233 reversed $91 $-1 #
face $-1 $234 $235 $51 $-1 $236 reversed single #
loop $-1 $-1 $237 $93 #
plane-surface $-1 -18.094140170358315 -11.340263854353459 80.708359586382116 0.74314483375859142 0 0.66913059716165679 0.66913059716165679 0 -0.74314483375859142 forward_v I I I I #
coedge $-1 $238 $239 $240 $241 reversed $94 $-1 #
face $-1 $-1 $242 $52 $-1 $243 forward single #
loop $-1 $244 $245 $96 #
cone-surface $-1 47.787802565859735 -13.020882818253462 3.2334254059573908 -0.74314483375859142 0 -0.66913059716165679 0.3345652985808284 0 -0.37157241687929571 1 I I -0.70710678118654746 0.70710678118654746 0.5 forward I I I I #
loop $-1 $-1 $246 $67 #
coedge $-1 $154 $154 $247 $248 reversed $97 $-1 #
face $-1 $-1 $249 $53 $-1 $250 forward single #
loop $-1 $251 $252 $99 #
cone-surface $-1 47.787802565859735 -9.6596448904534569 3.2334254059573908 -0.74314483375859142 0 -0.66913059716165679 0.3345652985808284 0 -0.37157241687929571 1 I I -0.70710678118654746 0.70710678118654746 0.5 forward I I I I #
loop $-1 $-1 $253 $68 #
coedge $-1 $159 $159 $254 $255 reversed $100 $-1 #
face $-1 $256 $257 $54 $-1 $258 reversed single #
loop $-1 $-1 $259 $102 #
plane-surface $-1 -18.094140170358315 2.7812908575076278 80.708359586382116 0.74314483375859142 0 0.66913059716165679 0.66913059716165679 0 -0.74314483375859142 forward_v I I I I #
coedge $-1 $260 $261 $262 $263 reversed $103 $-1 #
face $-1 $-1 $264 $55 $-1 $265 forward single #
loop $-1 $266 $267 $105 #
cone-surface $-1 47.787802565859735 1.1006718936076254 3.2334254059573908 -0.74314483375859142 0 -0.66913059716165679 0.3345652985808284 0 -0.37157241687929571 1 I I -0.70710678118654746 0.70710678118654746 0.5 forward I I I I #
loop $-1 $-1 $268 $70 #
coedge $-1 $168 $168 $269 $270 reversed $106 $-1 #
face $-1 $-1 $271 $56 $-1 $272 forward single #
loop $-1 $273 $274 $108 #
cone-surface $-1 47.787802565859735 4.4619098214076303 3.2334254059573908 -0.74314483375859142 0 -0.66913059716165679 0.3345652985808284 0 -0.37157241687929571 1 I I -0.70710678118654746 0.70710678118654746 0.5 forward I I I I #
loop $-1 $-1 $275 $71 #
coedge $-1 $173 $173 $276 $277 reversed $109 $-1 #
face $-1 $278 $279 $57 $-1 $280 reversed single #
loop $-1 $-1 $281 $111 #
plane-surface $-1 -18.094140170358315 16.902845569368715 80.708359586382116 0.74314483375859142 0 0.66913059716165679 0.66913059716165679 0 -0.74314483375859142 forward_v I I I I #
coedge $-1 $282 $283 $284 $285 reversed $112 $-1 #
face $-1 $-1 $286 $58 $-1 $287 forward single #
loop $-1 $288 $289 $114 #
cone-surface $-1 47.787802565859735 15.222226605468713 3.2334254059573908 -0.74314483375859142 0 -0.66913059716165679 0.3345652985808284 0 -0.37157241687929571 1 I I -0.70710678118654746 0.70710678118654746 0.5 forward I I I I #
loop $-1 $-1 $290 $73 #
coedge $-1 $182 $182 $291 $292 reversed $115 $-1 #
face $-1 $-1 $293 $59 $-1 $294 forward single #
loop $-1 $295 $296 $117 #
cone-surface $-1 47.787802565859735 18.583464533268717 3.2334254059573908 -0.74314483375859142 0 -0.66913059716165679 0.3345652985808284 0 -0.37157241687929571 1 I I -0.70710678118654746 0.70710678118654746 0.5 forward I I I I #
loop $-1 $-1 $297 $74 #
coedge $-1 $187 $187 $298 $299 reversed $118 $-1 #
face $-1 $300 $301 $45 $-1 $302 reversed single #
loop $-1 $-1 $303 $120 #
plane-surface $-1 0 -36.091948879761468 0 0 1 0 0 0 1 forward_v I I I I #
coedge $-1 $304 $305 $306 $307 forward $121 $-1 #
coedge $-1 $308 $123 $309 $310 forward $76 $-1 #
coedge $-1 $123 $308 $311 $312 forward $76 $-1 #
coedge $-1 $313 $314 $123 $195 reversed $315 $-1 #
edge $-1 $316 -36.091948879761468 $317 36.091948879761468 $194 $318 forward 7 unknown #
face $-1 $319 $320 $46 $-1 $321 forward single #
loop $-1 $-1 $322 $124 #
plane-surface $-1 -41.638595719640435 -32.737605847538006 0 -1 0 0 0 0 1 forward_v I I I I #
coedge $-1 $323 $324 $325 $326 forward $125 $-1 #
coedge $-1 $327 $127 $328 $329 reversed $79 $-1 #
coedge $-1 $127 $327 $330 $331 reversed $79 $-1 #
coedge $-1 $324 $323 $127 $203 reversed $125 $-1 #
edge $-1 $332 -9.1180993689246321 $333 9.1180993689246321 $202 $334 forward 7 unknown #
face $-1 $335 $336 $47 $-1 $337 reversed single #
loop $-1 $-1 $338 $128 #
plane-surface $-1 -35.255423931299575 31.597452455945621 0 -1 0 0 0 0 1 forward_v I I I I #
coedge $-1 $339 $340 $341 $342 reversed $129 $-1 #
coedge $-1 $343 $131 $344 $345 reversed $82 $-1 #
coedge $-1 $131 $343 $346 $347 reversed $82 $-1 #
coedge $-1 $340 $339 $131 $211 reversed $129 $-1 #
edge $-1 $348 -9.1180993689246321 $349 9.1180993689246321 $210 $350 forward 7 unknown #
face $-1 $351 $352 $48 $-1 $353 forward single #
loop $-1 $-1 $354 $132 #
plane-surface $-1 61.409905901525519 -29.383262815314552 152.29412242588927 0 1 0 0.74314483375859142 0 0.66913059716165679 forward_v I I I I #
coedge $-1 $355 $356 $357 $358 reversed $133 $-1 #
coedge $-1 $217 $135 $359 $360 reversed $85 $-1 #
coedge $-1 $135 $216 $355 $361 reversed $85 $-1 #
coedge $-1 $357 $362 $135 $219 forward $352 $-1 #
edge $-1 $363 -22.786669718386079 $364 -15.661065106698842 $218 $365 forward 7 unknown #
loop $-1 $-1 $225 $136 #
plane-surface $-1 -18.094140170358315 -25.461818566214546 80.708359586382116 0.74314483375859142 0 0.66913059716165679 0.66913059716165679 0 -0.74314483375859142 forward_v I I I I #
loop $-1 $-1 $366 $87 #
coedge $-1 $223 $223 $224 $367 reversed $137 $-1 #
coedge $-1 $224 $224 $223 $367 forward $139 $-1 #
coedge $-1 $225 $225 $140 $226 forward $220 $-1 #
edge $-1 $368 0 $368 6.2831853071796004 $225 $369 forward 7 unknown #
loop $-1 $-1 $232 $141 #
plane-surface $-1 -18.094140170358315 -25.461818566214546 80.708359586382116 0.74314483375859142 0 0.66913059716165679 0.66913059716165679 0 -0.74314483375859142 forward_v I I I I #
loop $-1 $-1 $370 $90 #
coedge $-1 $230 $230 $231 $371 reversed $142 $-1 #
coedge $-1 $231 $231 $230 $371 forward $144 $-1 #
coedge $-1 $232 $232 $145 $233 forward $227 $-1 #
edge $-1 $372 0 $372 6.2831853071796004 $232 $373 forward 7 unknown #
face $-1 $374 $375 $51 $-1 $376 reversed single #
loop $-1 $-1 $377 $146 #
plane-surface $-1 61.409905901525519 -15.261708103453465 152.29412242588927 0 1 0 0.74314483375859142 0 0.66913059716165679 forward_v I I I I #
coedge $-1 $378 $379 $380 $381 reversed $147 $-1 #
coedge $-1 $239 $149 $382 $383 reversed $94 $-1 #
coedge $-1 $149 $238 $378 $384 reversed $94 $-1 #
coedge $-1 $380 $385 $149 $241 forward $386 $-1 #
edge $-1 $387 -22.786669718386079 $388 -15.661065106698842 $240 $389 forward 7 unknown #
loop $-1 $-1 $247 $150 #
plane-surface $-1 -18.094140170358315 -11.340263854353459 80.708359586382116 0.74314483375859142 0 0.66913059716165679 0.66913059716165679 0 -0.74314483375859142 forward_v I I I I #
loop $-1 $-1 $390 $96 #
coedge $-1 $245 $245 $246 $391 reversed $151 $-1 #
coedge $-1 $246 $246 $245 $391 forward $153 $-1 #
coedge $-1 $247 $247 $154 $248 forward $242 $-1 #
edge $-1 $392 0 $392 6.2831853071796004 $247 $393 forward 7 unknown #
loop $-1 $-1 $254 $155 #
plane-surface $-1 -18.094140170358315 -11.340263854353459 80.708359586382116 0.74314483375859142 0 0.66913059716165679 0.66913059716165679 0 -0.74314483375859142 forward_v I I I I #
loop $-1 $-1 $394 $99 #
coedge $-1 $252 $252 $253 $395 reversed $156 $-1 #
coedge $-1 $253 $253 $252 $395 forward $158 $-1 #
coedge $-1 $254 $254 $159 $255 forward $249 $-1 #
edge $-1 $396 0 $396 6.2831853071796004 $254 $397 forward 7 unknown #
face $-1 $398 $399 $54 $-1 $400 reversed single #
loop $-1 $-1 $401 $160 #
plane-surface $-1 61.409905901525519 -1.1401533915923783 152.29412242588927 0 1 0 0.74314483375859142 0 0.66913059716165679 forward_v I I I I #
coedge $-1 $402 $403 $404 $405 reversed $161 $-1 #
coedge $-1 $261 $163 $406 $407 reversed $103 $-1 #
coedge $-1 $163 $260 $402 $408 reversed $103 $-1 #
coedge $-1 $404 $409 $163 $263 forward $410 $-1 #
edge $-1 $411 -22.786669718386079 $412 -15.661065106698842 $262 $413 forward 7 unknown #
loop $-1 $-1 $269 $164 #
plane-surface $-1 -18.094140170358315 2.7812908575076278 80.708359586382116 0.74314483375859142 0 0.66913059716165679 0.66913059716165679 0 -0.74314483375859142 forward_v I I I I #
loop $-1 $-1 $414 $105 #
coedge $-1 $267 $267 $268 $415 reversed $165 $-1 #
coedge $-1 $268 $268 $267 $415 forward $167 $-1 #
coedge $-1 $269 $269 $168 $270 forward $264 $-1 #
edge $-1 $416 0 $416 6.2831853071796004 $269 $417 forward 7 unknown #
loop $-1 $-1 $276 $169 #
plane-surface $-1 -18.094140170358315 2.7812908575076278 80.708359586382116 0.74314483375859142 0 0.66913059716165679 0.66913059716165679 0 -0.74314483375859142 forward_v I I I I #
loop $-1 $-1 $418 $108 #
coedge $-1 $274 $274 $275 $419 reversed $170 $-1 #
coedge $-1 $275 $275 $274 $419 forward $172 $-1 #
coedge $-1 $276 $276 $173 $277 forward $271 $-1 #
edge $-1 $420 0 $420 6.2831853071796004 $276 $421 forward 7 unknown #
face $-1 $422 $423 $57 $-1 $424 reversed single #
loop $-1 $-1 $425 $174 #
plane-surface $-1 61.409905901525519 12.981401320268709 152.29412242588927 0 1 0 0.74314483375859142 0 0.66913059716165679 forward_v I I I I #
coedge $-1 $426 $427 $428 $429 reversed $175 $-1 #
coedge $-1 $283 $177 $430 $431 reversed $112 $-1 #
coedge $-1 $177 $282 $426 $432 reversed $112 $-1 #
coedge $-1 $428 $433 $177 $285 forward $434 $-1 #
edge $-1 $435 -22.786669718386079 $436 -15.661065106698842 $284 $437 forward 7 unknown #
loop $-1 $-1 $291 $178 #
plane-surface $-1 -18.094140170358315 16.902845569368715 80.708359586382116 0.74314483375859142 0 0.66913059716165679 0.66913059716165679 0 -0.74314483375859142 forward_v I I I I #
loop $-1 $-1 $438 $114 #
coedge $-1 $289 $289 $290 $439 reversed $179 $-1 #
coedge $-1 $290 $290 $289 $439 forward $181 $-1 #
coedge $-1 $291 $291 $182 $292 forward $286 $-1 #
edge $-1 $440 0 $440 6.2831853071796004 $291 $441 forward 7 unknown #
loop $-1 $-1 $298 $183 #
plane-surface $-1 -18.094140170358315 16.902845569368715 80.708359586382116 0.74314483375859142 0 0.66913059716165679 0.66913059716165679 0 -0.74314483375859142 forward_v I I I I #
loop $-1 $-1 $442 $117 #
coedge $-1 $296 $296 $297 $443 reversed $184 $-1 #
coedge $-1 $297 $297 $296 $443 forward $186 $-1 #
coedge $-1 $298 $298 $187 $299 forward $293 $-1 #
edge $-1 $444 0 $444 6.2831853071796004 $298 $445 forward 7 unknown #
face $-1 $446 $447 $45 $-1 $448 reversed single #
loop $-1 $-1 $449 $188 #
plane-surface $-1 -53.491622669148839 0 0 1 0 0 0 0 -1 forward_v I I I I #
coedge $-1 $450 $311 $451 $452 forward $189 $-1 #
coedge $-1 $453 $191 $450 $454 forward $121 $-1 #
coedge $-1 $191 $453 $455 $456 forward $121 $-1 #
coedge $-1 $314 $313 $191 $307 reversed $315 $-1 #
edge $-1 $457 -36.091948879761468 $458 36.091948879761468 $306 $459 forward 7 unknown #
coedge $-1 $193 $192 $460 $461 forward $76 $-1 #
coedge $-1 $462 $463 $192 $310 reversed $447 $-1 #
edge $-1 $317 -53.491622669148839 $464 53.491622669148839 $309 $465 forward 7 unknown #
coedge $-1 $303 $466 $193 $312 reversed $189 $-1 #
edge $-1 $467 -53.491622669148839 $316 53.491622669148839 $311 $468 forward 7 unknown #
coedge $-1 $306 $194 $466 $469 forward $315 $-1 #
coedge $-1 $194 $306 $462 $470 reversed $315 $-1 #
loop $-1 $-1 $313 $446 #
vertex $-1 $195 $471 #
vertex $-1 $195 $472 #
straight-curve $-1 53.491622669148839 0 9.1180993689246321 0 1 0 I I #
face $-1 $473 $474 $46 $-1 $475 reversed single #
loop $-1 $-1 $476 $196 #
plane-surface $-1 0 0 9.1180993689246321 0 0 1 1 0 0 forward_v I I I I #
coedge $-1 $477 $478 $479 $480 reversed $197 $-1 #
coedge $-1 $202 $199 $481 $482 reversed $125 $-1 #
coedge $-1 $199 $202 $483 $484 reversed $125 $-1 #
coedge $-1 $478 $477 $199 $326 reversed $197 $-1 #
edge $-1 $485 -9.1180993689246321 $486 9.1180993689246321 $325 $487 forward 7 unknown #
coedge $-1 $201 $200 $488 $489 reversed $79 $-1 #
coedge $-1 $481 $490 $200 $329 forward $474 $-1 #
edge $-1 $491 -19.723145955992464 $333 -13.014459891545545 $328 $492 forward 7 unknown #
coedge $-1 $493 $483 $201 $331 forward $320 $-1 #
edge $-1 $332 13.014459891545545 $494 19.723145955992464 $330 $495 forward 7 unknown #
vertex $-1 $331 $496 #
vertex $-1 $329 $497 #
straight-curve $-1 -44.914677871511216 -29.383262815314549 0 0 0 -1 I I #
face $-1 $498 $499 $47 $-1 $500 forward single #
loop $-1 $-1 $501 $204 #
plane-surface $-1 0 0 -9.1180993689246321 0 0 1 1 0 0 forward_v I I I I #
coedge $-1 $502 $503 $343 $504 forward $205 $-1 #
coedge $-1 $210 $207 $505 $506 reversed $129 $-1 #
coedge $-1 $207 $210 $507 $508 reversed $129 $-1 #
coedge $-1 $509 $510 $207 $342 forward $511 $-1 #
edge $-1 $512 -9.1180993689246321 $513 9.1180993689246321 $341 $514 forward 7 unknown #
coedge $-1 $209 $208 $338 $504 reversed $82 $-1 #
coedge $-1 $505 $501 $208 $345 forward $336 $-1 #
edge $-1 $515 16.339832953403061 $349 21.491349002389967 $344 $516 forward 7 unknown #
coedge $-1 $517 $507 $209 $347 forward $499 $-1 #
edge $-1 $348 -21.491349002389967 $518 -16.339832953403061 $346 $519 forward 7 unknown #
vertex $-1 $347 $520 #
vertex $-1 $345 $521 #
straight-curve $-1 -40.406939980286481 27.102956032129782 0 0 0 -1 I I #
face $-1 $-1 $522 $48 $-1 $523 reversed single #
loop $-1 $-1 $218 $212 #
plane-surface $-1 0 0 9.1180993689246321 0 0 1 1 0 0 forward_v I I I I #
coedge $-1 $524 $525 $526 $527 reversed $213 $-1 #
coedge $-1 $528 $215 $217 $361 forward $133 $-1 #
coedge $-1 $215 $528 $524 $529 forward $133 $-1 #
coedge $-1 $526 $218 $215 $358 forward $352 $-1 #
edge $-1 $364 8.8094650340072675 $530 16.652353532207279 $357 $531 forward 7 unknown #
coedge $-1 $532 $533 $216 $360 forward $522 $-1 #
edge $-1 $534 -74.94274769844634 $363 -67.028961844020003 $359 $535 forward 7 unknown #
edge $-1 $364 96.33419619615276 $534 106.98324533829765 $217 $536 forward 7 unknown #
coedge $-1 $218 $526 $532 $537 forward $352 $-1 #
vertex $-1 $219 $538 #
vertex $-1 $219 $539 #
straight-curve $-1 30.70495295076276 -21.540374317114541 9.1180993689246321 -1 0 0 I I #
coedge $-1 $366 $366 $-1 $540 reversed $222 $-1 #
edge $-1 $541 0 $541 6.2831853071796004 $223 $542 forward 7 unknown #
vertex $-1 $226 $543 #
ellipse-curve $-1 49.928820363305206 -27.142437530114549 5.161206441711462 0.74314483375859142 0 0.66913059716165679 0.66913059716165679 0 -0.74314483375859142 1 I I #
coedge $-1 $370 $370 $-1 $544 reversed $229 $-1 #
edge $-1 $545 0 $545 6.2831853071796004 $230 $546 forward 7 unknown #
vertex $-1 $233 $547 #
ellipse-curve $-1 49.928820363305206 -23.78119960231454 5.161206441711462 0.74314483375859142 0 0.66913059716165679 0.66913059716165679 0 -0.74314483375859142 1 I I #
face $-1 $-1 $386 $51 $-1 $548 forward single #
loop $-1 $-1 $549 $234 #
plane-surface $-1 53.491622669148839 0 0 -1 0 0 0 0 1 forward_v I I I I #
coedge $-1 $550 $551 $552 $553 reversed $235 $-1 #
coedge $-1 $554 $237 $239 $384 forward $147 $-1 #
coedge $-1 $237 $554 $550 $555 forward $147 $-1 #
coedge $-1 $552 $240 $237 $381 forward $386 $-1 #
edge $-1 $388 1.748687678076724 $556 9.5915761762767353 $380 $557 forward 7 unknown #
coedge $-1 $558 $559 $238 $383 forward $375 $-1 #
edge $-1 $560 -74.94274769844634 $387 -67.028961844020003 $382 $561 forward 7 unknown #
edge $-1 $388 96.33419619615276 $560 106.98324533829765 $239 $562 forward 7 unknown #
coedge $-1 $240 $552 $558 $563 forward $386 $-1 #
loop $-1 $-1 $552 $374 #
vertex $-1 $383 $564 #
vertex $-1 $241 $565 #
straight-curve $-1 30.70495295076276 -7.4188196052534536 9.1180993689246321 -1 0 0 I I #
coedge $-1 $390 $390 $-1 $566 reversed $244 $-1 #
edge $-1 $567 0 $567 6.2831853071796004 $245 $568 forward 7 unknown #
vertex $-1 $248 $569 #
ellipse-curve $-1 49.928820363305206 -13.020882818253462 5.161206441711462 0.74314483375859142 0 0.66913059716165679 0.66913059716165679 0 -0.74314483375859142 1 I I #
coedge $-1 $394 $394 $-1 $570 reversed $251 $-1 #
edge $-1 $571 0 $571 6.2831853071796004 $252 $572 forward 7 unknown #
vertex $-1 $255 $573 #
ellipse-curve $-1 49.928820363305206 -9.6596448904534569 5.161206441711462 0.74314483375859142 0 0.66913059716165679 0.66913059716165679 0 -0.74314483375859142 1 I I #
face $-1 $-1 $410 $54 $-1 $574 forward single #
loop $-1 $-1 $575 $256 #
plane-surface $-1 53.491622669148839 0 0 -1 0 0 0 0 1 forward_v I I I I #
coedge $-1 $576 $577 $578 $579 reversed $257 $-1 #
coedge $-1 $580 $259 $261 $408 forward $161 $-1 #
coedge $-1 $259 $580 $576 $581 forward $161 $-1 #
coedge $-1 $578 $262 $259 $405 forward $410 $-1 #
edge $-1 $412 -5.3120896778538196 $582 2.5307988203461922 $404 $583 forward 7 unknown #
coedge $-1 $584 $585 $260 $407 forward $399 $-1 #
edge $-1 $586 -74.94274769844634 $411 -67.028961844020003 $406 $587 forward 7 unknown #
edge $-1 $412 96.33419619615276 $586 106.98324533829765 $261 $588 forward 7 unknown #
coedge $-1 $262 $578 $584 $589 forward $410 $-1 #
loop $-1 $-1 $578 $398 #
vertex $-1 $407 $590 #
vertex $-1 $263 $591 #
straight-curve $-1 30.70495295076276 6.7027351066076335 9.1180993689246321 -1 0 0 I I #
coedge $-1 $414 $414 $-1 $592 reversed $266 $-1 #
edge $-1 $593 0 $593 6.2831853071796004 $267 $594 forward 7 unknown #
vertex $-1 $270 $595 #
ellipse-curve $-1 49.928820363305206 1.1006718936076254 5.161206441711462 0.74314483375859142 0 0.66913059716165679 0.66913059716165679 0 -0.74314483375859142 1 I I #
coedge $-1 $418 $418 $-1 $596 reversed $273 $-1 #
edge $-1 $597 0 $597 6.2831853071796004 $274 $598 forward 7 unknown #
vertex $-1 $277 $599 #
ellipse-curve $-1 49.928820363305206 4.4619098214076303 5.161206441711462 0.74314483375859142 0 0.66913059716165679 0.66913059716165679 0 -0.74314483375859142 1 I I #
face $-1 $-1 $434 $57 $-1 $600 forward single #
loop $-1 $-1 $601 $278 #
plane-surface $-1 53.491622669148839 0 0 -1 0 0 0 0 1 forward_v I I I I #
coedge $-1 $602 $603 $604 $605 reversed $279 $-1 #
coedge $-1 $606 $281 $283 $432 forward $175 $-1 #
coedge $-1 $281 $606 $602 $607 forward $175 $-1 #
coedge $-1 $604 $284 $281 $429 forward $434 $-1 #
edge $-1 $436 -12.372867033784363 $608 -4.5299785355843518 $428 $609 forward 7 unknown #
coedge $-1 $610 $611 $282 $431 forward $423 $-1 #
edge $-1 $612 -74.94274769844634 $435 -67.028961844020003 $430 $613 forward 7 unknown #
edge $-1 $436 96.33419619615276 $612 106.98324533829765 $283 $614 forward 7 unknown #
coedge $-1 $284 $604 $610 $615 forward $434 $-1 #
loop $-1 $-1 $604 $422 #
vertex $-1 $431 $616 #
vertex $-1 $285 $617 #
straight-curve $-1 30.70495295076276 20.824289818468721 9.1180993689246321 -1 0 0 I I #
coedge $-1 $438 $438 $-1 $618 reversed $288 $-1 #
edge $-1 $619 0 $619 6.2831853071796004 $289 $620 forward 7 unknown #
vertex $-1 $292 $621 #
ellipse-curve $-1 49.928820363305206 15.222226605468713 5.161206441711462 0.74314483375859142 0 0.66913059716165679 0.66913059716165679 0 -0.74314483375859142 1 I I #
coedge $-1 $442 $442 $-1 $622 reversed $295 $-1 #
edge $-1 $623 0 $623 6.2831853071796004 $296 $624 forward 7 unknown #
vertex $-1 $299 $625 #
ellipse-curve $-1 49.928820363305206 18.583464533268717 5.161206441711462 0.74314483375859142 0 0.66913059716165679 0.66913059716165679 0 -0.74314483375859142 1 I I #
face $-1 $-1 $315 $45 $-1 $626 reversed single #
loop $-1 $-1 $462 $300 #
plane-surface $-1 0 36.091948879761468 0 0 -1 0 0 0 -1 forward_v I I I I #
coedge $-1 $627 $460 $463 $628 forward $301 $-1 #
coedge $-1 $466 $303 $304 $454 reversed $189 $-1 #
coedge $-1 $460 $627 $303 $452 reversed $301 $-1 #
edge $-1 $467 -9.1180993689246321 $629 9.1180993689246321 $451 $630 forward 7 unknown #
coedge $-1 $305 $304 $627 $631 forward $121 $-1 #
edge $-1 $458 -53.491622669148839 $629 53.491622669148839 $450 $632 forward 7 unknown #
coedge $-1 $463 $462 $305 $456 reversed $447 $-1 #
edge $-1 $633 -53.491622669148839 $457 53.491622669148839 $455 $634 forward 7 unknown #
vertex $-1 $307 $635 #
vertex $-1 $469 $636 #
straight-curve $-1 53.491622669148839 0 -9.1180993689246321 0 -1 0 I I #
coedge $-1 $449 $451 $308 $461 reversed $301 $-1 #
edge $-1 $464 -36.091948879761468 $467 36.091948879761468 $460 $637 forward 7 unknown #
coedge $-1 $455 $309 $314 $470 forward $447 $-1 #
coedge $-1 $309 $455 $449 $628 reversed $447 $-1 #
vertex $-1 $310 $638 #
straight-curve $-1 0 36.091948879761468 9.1180993689246321 -1 0 0 I I #
coedge $-1 $311 $450 $313 $469 reversed $189 $-1 #
vertex $-1 $461 $639 #
straight-curve $-1 0 -36.091948879761468 9.1180993689246321 1 0 0 I I #
edge $-1 $316 -9.1180993689246321 $458 9.1180993689246321 $313 $640 forward 7 unknown #
edge $-1 $317 -9.1180993689246321 $457 9.1180993689246321 $314 $641 forward 7 unknown #
point $-1 53.491622669148839 -36.091948879761468 9.1180993689246321 #
point $-1 53.491622669148839 36.091948879761468 9.1180993689246321 #
face $-1 $-1 $642 $46 $-1 $643 reversed single #
loop $-1 $-1 $644 $319 #
plane-surface $-1 0 0 -9.1180993689246321 0 0 1 1 0 0 forward_v I I I I #
coedge $-1 $483 $493 $478 $645 forward $320 $-1 #
coedge $-1 $325 $322 $644 $646 reversed $197 $-1 #
coedge $-1 $322 $325 $476 $645 reversed $197 $-1 #
coedge $-1 $647 $648 $322 $480 forward $642 $-1 #
edge $-1 $649 -9.1180993689246321 $650 9.1180993689246321 $479 $651 forward 7 unknown #
coedge $-1 $644 $328 $323 $482 forward $474 $-1 #
edge $-1 $333 -23.276359473723303 $486 -20.000277321852522 $481 $652 forward 7 unknown #
coedge $-1 $330 $476 $324 $484 forward $320 $-1 #
edge $-1 $485 20.000277321852522 $332 23.276359473723303 $483 $653 forward 7 unknown #
vertex $-1 $484 $654 #
vertex $-1 $482 $655 #
straight-curve $-1 -41.638595719640435 -29.383262815314549 0 0 0 -1 I I #
coedge $-1 $648 $647 $327 $489 forward $642 $-1 #
edge $-1 $494 -9.1180993689246321 $491 9.1180993689246321 $488 $656 forward 7 unknown #
coedge $-1 $328 $644 $648 $657 forward $474 $-1 #
vertex $-1 $329 $658 #
straight-curve $-1 -44.914677871511216 -16.368802923769003 -9.1180993689246321 0 1 0 I I #
coedge $-1 $476 $330 $647 $659 forward $320 $-1 #
vertex $-1 $659 $660 #
straight-curve $-1 -44.914677871511216 -16.368802923769003 9.1180993689246321 0 -1 0 I I #
point $-1 -44.914677871511216 -29.383262815314549 9.1180993689246321 #
point $-1 -44.914677871511216 -29.383262815314549 -9.1180993689246321 #
face $-1 $-1 $511 $47 $-1 $661 reversed single #
loop $-1 $-1 $517 $335 #
plane-surface $-1 0 0 9.1180993689246321 0 0 1 1 0 0 forward_v I I I I #
coedge $-1 $344 $662 $502 $663 forward $336 $-1 #
coedge $-1 $664 $338 $501 $663 reversed $205 $-1 #
coedge $-1 $338 $664 $517 $665 reversed $205 $-1 #
edge $-1 $518 -9.1180993689246321 $515 9.1180993689246321 $338 $666 forward 7 unknown #
coedge $-1 $662 $344 $339 $506 forward $336 $-1 #
edge $-1 $349 11.304229804156972 $512 20.29322265178865 $505 $667 forward 7 unknown #
coedge $-1 $346 $668 $340 $508 forward $499 $-1 #
edge $-1 $513 -20.29322265178865 $348 -11.304229804156972 $507 $669 forward 7 unknown #
coedge $-1 $670 $341 $668 $671 reversed $511 $-1 #
coedge $-1 $341 $670 $662 $672 reversed $511 $-1 #
loop $-1 $-1 $670 $498 #
vertex $-1 $672 $673 #
vertex $-1 $342 $674 #
straight-curve $-1 -40.406939980286481 36.091948879761468 0 0 0 1 I I #
vertex $-1 $345 $675 #
straight-curve $-1 -18.915590977896514 27.102956032129782 -9.1180993689246321 -1 0 0 I I #
coedge $-1 $668 $346 $503 $665 forward $499 $-1 #
vertex $-1 $347 $676 #
straight-curve $-1 -18.915590977896514 27.102956032129782 9.1180993689246321 1 0 0 I I #
point $-1 -40.406939980286481 27.102956032129782 9.1180993689246321 #
point $-1 -40.406939980286481 27.102956032129782 -9.1180993689246321 #
loop $-1 $-1 $359 $351 #
plane-surface $-1 53.491622669148839 0 0 -1 0 0 0 0 1 forward_v I I I I #
coedge $-1 $525 $354 $356 $529 reversed $213 $-1 #
coedge $-1 $354 $524 $677 $678 reversed $213 $-1 #
coedge $-1 $362 $357 $354 $527 forward $352 $-1 #
edge $-1 $530 15.661065106698842 $679 22.786669718386079 $526 $680 forward 7 unknown #
coedge $-1 $356 $355 $533 $681 reversed $133 $-1 #
edge $-1 $682 -106.98324533829765 $530 -96.33419619615276 $524 $683 forward 7 unknown #
vertex $-1 $358 $684 #
straight-curve $-1 46.366018057461595 -12.730909283107273 9.1180993689246321 0 -1 0 I I #
coedge $-1 $677 $359 $362 $537 reversed $522 $-1 #
coedge $-1 $359 $677 $528 $681 forward $522 $-1 #
vertex $-1 $360 $685 #
straight-curve $-1 53.491622669148839 -21.540374317114541 76.147061212944635 0 0 1 I I #
straight-curve $-1 -18.094140170358315 -21.540374317114541 80.708359586382116 0.66913059716165679 0 -0.74314483375859142 I I #
edge $-1 $679 -29.383262815314552 $363 -21.540374317114541 $532 $686 forward 7 unknown #
point $-1 53.491622669148839 -21.540374317114541 9.1180993689246321 #
point $-1 46.366018057461602 -21.540374317114541 9.1180993689246321 #
edge $-1 $687 1 $687 0 $366 $-1 forward 7 unknown #
vertex $-1 $367 $688 #
ellipse-curve $-1 48.159374982739031 -27.142437530114549 3.5679907045382193 0.74314483375859142 0 0.66913059716165679 0.66913059716165679 0 -0.74314483375859142 1 I I #
point $-1 50.597950960466854 -27.142437530114549 4.4180616079528594 #
edge $-1 $689 1 $689 0 $370 $-1 forward 7 unknown #
vertex $-1 $371 $690 #
ellipse-curve $-1 48.159374982739031 -23.78119960231454 3.5679907045382193 0.74314483375859142 0 0.66913059716165679 0.66913059716165679 0 -0.74314483375859142 1 I I #
point $-1 50.597950960466854 -23.78119960231454 4.4180616079528594 #
plane-surface $-1 0 0 9.1180993689246321 0 0 1 1 0 0 forward_v I I I I #
coedge $-1 $559 $558 $551 $691 forward $375 $-1 #
coedge $-1 $551 $377 $379 $555 reversed $235 $-1 #
coedge $-1 $377 $550 $549 $691 reversed $235 $-1 #
coedge $-1 $385 $380 $377 $553 forward $386 $-1 #
edge $-1 $556 15.661065106698842 $692 22.786669718386079 $552 $693 forward 7 unknown #
coedge $-1 $379 $378 $559 $694 reversed $147 $-1 #
edge $-1 $695 -106.98324533829765 $556 -96.33419619615276 $550 $696 forward 7 unknown #
vertex $-1 $381 $697 #
straight-curve $-1 46.366018057461595 -5.6701319271767296 9.1180993689246321 0 -1 0 I I #
coedge $-1 $549 $382 $385 $563 reversed $375 $-1 #
coedge $-1 $382 $549 $554 $694 forward $375 $-1 #
vertex $-1 $383 $698 #
straight-curve $-1 53.491622669148839 -7.4188196052534536 76.147061212944635 0 0 1 I I #
straight-curve $-1 -18.094140170358315 -7.4188196052534536 80.708359586382116 0.66913059716165679 0 -0.74314483375859142 I I #
edge $-1 $692 -15.261708103453465 $387 -7.4188196052534536 $558 $699 forward 7 unknown #
point $-1 53.491622669148839 -7.4188196052534536 9.1180993689246321 #
point $-1 46.366018057461602 -7.4188196052534536 9.1180993689246321 #
edge $-1 $700 1 $700 0 $390 $-1 forward 7 unknown #
vertex $-1 $391 $701 #
ellipse-curve $-1 48.159374982739031 -13.020882818253462 3.5679907045382193 0.74314483375859142 0 0.66913059716165679 0.66913059716165679 0 -0.74314483375859142 1 I I #
point $-1 50.597950960466854 -13.020882818253462 4.4180616079528594 #
edge $-1 $702 1 $702 0 $394 $-1 forward 7 unknown #
vertex $-1 $395 $703 #
ellipse-curve $-1 48.159374982739031 -9.6596448904534569 3.5679907045382193 0.74314483375859142 0 0.66913059716165679 0.66913059716165679 0 -0.74314483375859142 1 I I #
point $-1 50.597950960466854 -9.6596448904534569 4.4180616079528594 #
plane-surface $-1 0 0 9.1180993689246321 0 0 1 1 0 0 forward_v I I I I #
coedge $-1 $585 $584 $577 $704 forward $399 $-1 #
coedge $-1 $577 $401 $403 $581 reversed $257 $-1 #
coedge $-1 $401 $576 $575 $704 reversed $257 $-1 #
coedge $-1 $409 $404 $401 $579 forward $410 $-1 #
edge $-1 $582 15.661065106698842 $705 22.786669718386079 $578 $706 forward 7 unknown #
coedge $-1 $403 $402 $585 $707 reversed $161 $-1 #
edge $-1 $708 -106.98324533829765 $582 -96.33419619615276 $576 $709 forward 7 unknown #
vertex $-1 $405 $710 #
straight-curve $-1 46.366018057461595 1.3906454287538139 9.1180993689246321 0 -1 0 I I #
coedge $-1 $575 $406 $409 $589 reversed $399 $-1 #
coedge $-1 $406 $575 $580 $707 forward $399 $-1 #
vertex $-1 $407 $711 #
straight-curve $-1 53.491622669148839 6.7027351066076335 76.147061212944635 0 0 1 I I #
straight-curve $-1 -18.094140170358315 6.7027351066076335 80.708359586382116 0.66913059716165679 0 -0.74314483375859142 I I #
edge $-1 $705 -1.1401533915923783 $411 6.7027351066076335 $584 $712 forward 7 unknown #
point $-1 53.491622669148839 6.7027351066076335 9.1180993689246321 #
point $-1 46.366018057461602 6.7027351066076335 9.1180993689246321 #
edge $-1 $713 1 $713 0 $414 $-1 forward 7 unknown #
vertex $-1 $415 $714 #
ellipse-curve $-1 48.159374982739031 1.1006718936076254 3.5679907045382193 0.74314483375859142 0 0.66913059716165679 0.66913059716165679 0 -0.74314483375859142 1 I I #
point $-1 50.597950960466854 1.1006718936076254 4.4180616079528594 #
edge $-1 $715 1 $715 0 $418 $-1 forward 7 unknown #
vertex $-1 $419 $716 #
ellipse-curve $-1 48.159374982739031 4.4619098214076303 3.5679907045382193 0.74314483375859142 0 0.66913059716165679 0.66913059716165679 0 -0.74314483375859142 1 I I #
point $-1 50.597950960466854 4.4619098214076303 4.4180616079528594 #
plane-surface $-1 0 0 9.1180993689246321 0 0 1 1 0 0 forward_v I I I I #
coedge $-1 $611 $610 $603 $717 forward $423 $-1 #
coedge $-1 $603 $425 $427 $607 reversed $279 $-1 #
coedge $-1 $425 $602 $601 $717 reversed $279 $-1 #
coedge $-1 $433 $428 $425 $605 forward $434 $-1 #
edge $-1 $608 15.661065106698842 $718 22.786669718386079 $604 $719 forward 7 unknown #
coedge $-1 $427 $426 $611 $720 reversed $175 $-1 #
edge $-1 $721 -106.98324533829765 $608 -96.33419619615276 $602 $722 forward 7 unknown #
vertex $-1 $429 $723 #
straight-curve $-1 46.366018057461595 8.4514227846843575 9.1180993689246321 0 -1 0 I I #
coedge $-1 $601 $430 $433 $615 reversed $423 $-1 #
coedge $-1 $430 $601 $606 $720 forward $423 $-1 #
vertex $-1 $431 $724 #
straight-curve $-1 53.491622669148839 20.824289818468721 76.147061212944635 0 0 1 I I #
straight-curve $-1 -18.094140170358315 20.824289818468721 80.708359586382116 0.66913059716165679 0 -0.74314483375859142 I I #
edge $-1 $718 12.981401320268709 $435 20.824289818468721 $610 $725 forward 7 unknown #
point $-1 53.491622669148839 20.824289818468721 9.1180993689246321 #
point $-1 46.366018057461602 20.824289818468721 9.1180993689246321 #
edge $-1 $726 1 $726 0 $438 $-1 forward 7 unknown #
vertex $-1 $439 $727 #
ellipse-curve $-1 48.159374982739031 15.222226605468713 3.5679907045382193 0.74314483375859142 0 0.66913059716165679 0.66913059716165679 0 -0.74314483375859142 1 I I #
point $-1 50.597950960466854 15.222226605468713 4.4180616079528594 #
edge $-1 $728 1 $728 0 $442 $-1 forward 7 unknown #
vertex $-1 $443 $729 #
ellipse-curve $-1 48.159374982739031 18.583464533268717 3.5679907045382193 0.74314483375859142 0 0.66913059716165679 0.66913059716165679 0 -0.74314483375859142 1 I I #
point $-1 50.597950960466854 18.583464533268717 4.4180616079528594 #
plane-surface $-1 53.491622669148839 0 0 -1 0 0 0 0 1 forward_v I I I I #
coedge $-1 $451 $449 $453 $631 reversed $301 $-1 #
edge $-1 $464 -9.1180993689246321 $633 9.1180993689246321 $463 $730 forward 7 unknown #
vertex $-1 $631 $731 #
straight-curve $-1 -53.491622669148839 -36.091948879761468 0 0 0 -1 I I #
edge $-1 $629 -36.091948879761468 $633 36.091948879761468 $627 $732 forward 7 unknown #
straight-curve $-1 0 -36.091948879761468 -9.1180993689246321 -1 0 0 I I #
vertex $-1 $456 $733 #
straight-curve $-1 0 36.091948879761468 -9.1180993689246321 1 0 0 I I #
point $-1 53.491622669148839 36.091948879761468 -9.1180993689246321 #
point $-1 53.491622669148839 -36.091948879761468 -9.1180993689246321 #
straight-curve $-1 -53.491622669148839 0 9.1180993689246321 0 -1 0 I I #
point $-1 -53.491622669148839 36.091948879761468 9.1180993689246321 #
point $-1 -53.491622669148839 -36.091948879761468 9.1180993689246321 #
straight-curve $-1 53.491622669148839 -36.091948879761468 0 0 0 -1 I I #
straight-curve $-1 53.491622669148839 36.091948879761468 0 0 0 -1 I I #
loop $-1 $-1 $479 $473 #
plane-surface $-1 0 -36.091948879761468 0 0 1 0 0 0 1 forward_v I I I I #
coedge $-1 $490 $481 $477 $646 forward $474 $-1 #
edge $-1 $650 -19.723145955992464 $485 -13.014459891545545 $476 $734 forward 7 unknown #
edge $-1 $486 13.014459891545545 $649 19.723145955992464 $644 $735 forward 7 unknown #
coedge $-1 $488 $479 $493 $659 reversed $642 $-1 #
coedge $-1 $479 $488 $490 $657 reversed $642 $-1 #
vertex $-1 $657 $736 #
vertex $-1 $480 $737 #
straight-curve $-1 -41.638595719640435 -36.091948879761468 0 0 0 1 I I #
straight-curve $-1 -21.638318397787913 -29.383262815314549 -9.1180993689246321 1 0 0 I I #
straight-curve $-1 -21.638318397787913 -29.383262815314549 9.1180993689246321 -1 0 0 I I #
point $-1 -41.638595719640435 -29.383262815314549 9.1180993689246321 #
point $-1 -41.638595719640435 -29.383262815314549 -9.1180993689246321 #
straight-curve $-1 -44.914677871511216 -36.091948879761468 0 0 0 -1 I I #
edge $-1 $649 41.638595719640435 $491 44.914677871511216 $648 $738 forward 7 unknown #
point $-1 -44.914677871511216 -36.091948879761468 -9.1180993689246321 #
edge $-1 $494 -44.914677871511216 $650 -41.638595719640435 $647 $739 forward 7 unknown #
point $-1 -44.914677871511216 -36.091948879761468 9.1180993689246321 #
plane-surface $-1 0 36.091948879761468 0 0 -1 0 0 0 -1 forward_v I I I I #
coedge $-1 $501 $505 $510 $672 forward $336 $-1 #
edge $-1 $740 -20.29322265178865 $515 -11.304229804156972 $501 $741 forward 7 unknown #
coedge $-1 $503 $502 $670 $742 reversed $205 $-1 #
edge $-1 $518 11.304229804156972 $743 20.29322265178865 $517 $744 forward 7 unknown #
straight-curve $-1 -35.255423931299575 27.102956032129782 0 0 0 -1 I I #
straight-curve $-1 -40.406939980286481 15.798726227972811 -9.1180993689246321 0 1 0 I I #
coedge $-1 $507 $517 $509 $671 forward $499 $-1 #
straight-curve $-1 -40.406939980286481 15.798726227972811 9.1180993689246321 0 -1 0 I I #
coedge $-1 $510 $509 $664 $742 forward $511 $-1 #
edge $-1 $743 35.255423931299575 $513 40.406939980286481 $509 $745 forward 7 unknown #
edge $-1 $512 -40.406939980286481 $740 -35.255423931299575 $510 $746 forward 7 unknown #
point $-1 -40.406939980286481 36.09194887976146 -9.1180993689246321 #
point $-1 -40.406939980286481 36.09194887976146 9.1180993689246321 #
point $-1 -35.255423931299575 27.102956032129782 -9.1180993689246321 #
point $-1 -35.255423931299575 27.102956032129782 9.1180993689246321 #
coedge $-1 $533 $532 $525 $678 forward $522 $-1 #
edge $-1 $679 67.028961844020003 $682 74.94274769844634 $677 $747 forward 7 unknown #
vertex $-1 $537 $748 #
straight-curve $-1 30.70495295076276 -29.383262815314552 9.1180993689246321 1 0 0 I I #
edge $-1 $682 -16.652353532207279 $534 -8.8094650340072675 $533 $749 forward 7 unknown #
vertex $-1 $681 $750 #
straight-curve $-1 -18.094140170358315 -29.383262815314552 80.708359586382116 -0.66913059716165679 0 0.74314483375859142 I I #
point $-1 46.366018057461602 -29.383262815314552 9.1180993689246321 #
point $-1 53.491622669148839 -21.540374317114541 1.2043135144982955 #
straight-curve $-1 53.491622669148839 0 9.1180993689246321 0 1 0 I I #
vertex $-1 $540 $751 #
point $-1 48.828505579900686 -27.142437530114549 2.8248458707796278 #
vertex $-1 $544 $752 #
point $-1 48.828505579900686 -23.78119960231454 2.8248458707796278 #
edge $-1 $692 67.028961844020003 $695 74.94274769844634 $549 $753 forward 7 unknown #
vertex $-1 $563 $754 #
straight-curve $-1 30.70495295076276 -15.261708103453465 9.1180993689246321 1 0 0 I I #
edge $-1 $695 -9.5915761762767353 $560 -1.748687678076724 $559 $755 forward 7 unknown #
vertex $-1 $694 $756 #
straight-curve $-1 -18.094140170358315 -15.261708103453465 80.708359586382116 -0.66913059716165679 0 0.74314483375859142 I I #
point $-1 46.366018057461602 -15.261708103453465 9.1180993689246321 #
point $-1 53.491622669148839 -7.4188196052534536 1.2043135144982955 #
straight-curve $-1 53.491622669148839 0 9.1180993689246321 0 1 0 I I #
vertex $-1 $566 $757 #
point $-1 48.828505579900686 -13.020882818253462 2.8248458707796278 #
vertex $-1 $570 $758 #
point $-1 48.828505579900686 -9.6596448904534569 2.8248458707796278 #
edge $-1 $705 67.028961844020003 $708 74.94274769844634 $575 $759 forward 7 unknown #
vertex $-1 $589 $760 #
straight-curve $-1 30.70495295076276 -1.1401533915923783 9.1180993689246321 1 0 0 I I #
edge $-1 $708 -2.5307988203461922 $586 5.3120896778538196 $585 $761 forward 7 unknown #
vertex $-1 $707 $762 #
straight-curve $-1 -18.094140170358315 -1.1401533915923783 80.708359586382116 -0.66913059716165679 0 0.74314483375859142 I I #
point $-1 46.366018057461602 -1.1401533915923783 9.1180993689246321 #
point $-1 53.491622669148839 6.7027351066076335 1.2043135144982955 #
straight-curve $-1 53.491622669148839 0 9.1180993689246321 0 1 0 I I #
vertex $-1 $592 $763 #
point $-1 48.828505579900686 1.1006718936076254 2.8248458707796278 #
vertex $-1 $596 $764 #
point $-1 48.828505579900686 4.4619098214076303 2.8248458707796278 #
edge $-1 $718 67.028961844020003 $721 74.94274769844634 $601 $765 forward 7 unknown #
vertex $-1 $615 $766 #
straight-curve $-1 30.70495295076276 12.981401320268709 9.1180993689246321 1 0 0 I I #
edge $-1 $721 4.5299785355843518 $612 12.372867033784363 $611 $767 forward 7 unknown #
vertex $-1 $720 $768 #
straight-curve $-1 -18.094140170358315 12.981401320268709 80.708359586382116 -0.66913059716165679 0 0.74314483375859142 I I #
point $-1 46.366018057461602 12.981401320268709 9.1180993689246321 #
point $-1 53.491622669148839 20.824289818468721 1.2043135144982955 #
straight-curve $-1 53.491622669148839 0 9.1180993689246321 0 1 0 I I #
vertex $-1 $618 $769 #
point $-1 48.828505579900686 15.222226605468713 2.8248458707796278 #
vertex $-1 $622 $770 #
point $-1 48.828505579900686 18.583464533268717 2.8248458707796278 #
straight-curve $-1 -53.491622669148839 36.091948879761468 0 0 0 -1 I I #
point $-1 -53.491622669148839 -36.091948879761468 -9.1180993689246321 #
straight-curve $-1 -53.491622669148839 0 -9.1180993689246321 0 1 0 I I #
point $-1 -53.491622669148839 36.091948879761468 -9.1180993689246321 #
straight-curve $-1 -41.638595719640435 -16.368802923769003 9.1180993689246321 0 1 0 I I #
straight-curve $-1 -41.638595719640435 -16.368802923769003 -9.1180993689246321 0 -1 0 I I #
point $-1 -41.638595719640435 -36.091948879761468 -9.1180993689246321 #
point $-1 -41.638595719640435 -36.091948879761468 9.1180993689246321 #
straight-curve $-1 0 -36.091948879761468 -9.1180993689246321 -1 0 0 I I #
straight-curve $-1 0 -36.091948879761468 9.1180993689246321 1 0 0 I I #
vertex $-1 $742 $771 #
straight-curve $-1 -35.255423931299575 15.798726227972811 -9.1180993689246321 0 -1 0 I I #
edge $-1 $743 -9.1180993689246321 $740 9.1180993689246321 $670 $772 forward 7 unknown #
vertex $-1 $671 $773 #
straight-curve $-1 -35.255423931299575 15.798726227972811 9.1180993689246321 0 1 0 I I #
straight-curve $-1 0 36.091948879761468 9.1180993689246321 -1 0 0 I I #
straight-curve $-1 0 36.091948879761468 -9.1180993689246321 1 0 0 I I #
straight-curve $-1 53.491622669148839 -29.383262815314552 76.147061212944635 0 0 -1 I I #
point $-1 53.491622669148839 -29.383262815314552 9.1180993689246321 #
straight-curve $-1 53.491622669148839 -12.730909283107273 1.2043135144982955 0 1 0 I I #
point $-1 53.491622669148839 -29.383262815314552 1.2043135144982955 #
point $-1 47.416230148980439 -27.142437530114549 2.8988601073765623 #
point $-1 47.416230148980439 -23.78119960231454 2.8988601073765623 #
straight-curve $-1 53.491622669148839 -15.261708103453465 76.147061212944635 0 0 -1 I I #
point $-1 53.491622669148839 -15.261708103453465 9.1180993689246321 #
straight-curve $-1 53.491622669148839 -5.6701319271767296 1.2043135144982955 0 1 0 I I #
point $-1 53.491622669148839 -15.261708103453465 1.2043135144982955 #
point $-1 47.416230148980439 -13.020882818253462 2.8988601073765623 #
point $-1 47.416230148980439 -9.6596448904534569 2.8988601073765623 #
straight-curve $-1 53.491622669148839 -1.1401533915923783 76.147061212944635 0 0 -1 I I #
point $-1 53.491622669148839 -1.1401533915923783 9.1180993689246321 #
straight-curve $-1 53.491622669148839 1.3906454287538139 1.2043135144982955 0 1 0 I I #
point $-1 53.491622669148839 -1.1401533915923783 1.2043135144982955 #
point $-1 47.416230148980439 1.1006718936076254 2.8988601073765623 #
point $-1 47.416230148980439 4.4619098214076303 2.8988601073765623 #
straight-curve $-1 53.491622669148839 12.981401320268709 76.147061212944635 0 0 -1 I I #
point $-1 53.491622669148839 12.981401320268709 9.1180993689246321 #
straight-curve $-1 53.491622669148839 8.4514227846843575 1.2043135144982955 0 1 0 I I #
point $-1 53.491622669148839 12.981401320268709 1.2043135144982955 #
point $-1 47.416230148980439 15.222226605468713 2.8988601073765623 #
point $-1 47.416230148980439 18.583464533268717 2.8988601073765623 #
point $-1 -35.255423931299575 36.09194887976146 -9.1180993689246321 #
straight-curve $-1 -35.255423931299575 36.091948879761468 0 0 0 -1 I I #
point $-1 -35.255423931299575 36.09194887976146 9.1180993689246321 #
End-of-ACIS-data 