500 0 8 0           
7 Unknown 11 ACIS 5.0 NT 24 Thu Mar 25 19:43:25 1999 
-1 9.9999999999999995e-007 1e-010 
body $-1 $8 $-1 $9 #
body $-1 $10 $-1 $11 #
body $-1 $12 $-1 $13 #
body $-1 $14 $-1 $15 #
body $-1 $16 $-1 $17 #
body $-1 $18 $-1 $19 #
body $-1 $20 $-1 $21 #
body $-1 $22 $-1 $23 #
lump $-1 $-1 $24 $0 #
transform $-1 1 0 0 0 1 0 0 0 1 78.913541062654502 54.716390846924988 15.967895011280724 1 rotate no_reflect no_shear #
lump $-1 $-1 $25 $1 #
transform $-1 1 0 0 0 1 0 0 0 1 78.913541062654502 54.716390846924988 15.967895011280724 1 rotate no_reflect no_shear #
lump $-1 $-1 $26 $2 #
transform $-1 1 0 0 0 1 0 0 0 1 78.913541062654502 54.716390846924988 15.967895011280724 1 rotate no_reflect no_shear #
lump $-1 $-1 $27 $3 #
transform $-1 1 0 0 0 1 0 0 0 1 78.913541062654502 54.716390846924988 15.967895011280724 1 rotate no_reflect no_shear #
lump $-1 $-1 $28 $4 #
transform $-1 1 0 0 0 1 0 0 0 1 78.913541062654502 54.716390846924988 15.967895011280724 1 rotate no_reflect no_shear #
lump $-1 $-1 $29 $5 #
transform $-1 1 0 0 0 1 0 0 0 1 78.913541062654502 54.716390846924988 15.967895011280724 1 rotate no_reflect no_shear #
lump $-1 $-1 $30 $6 #
transform $-1 1 0 0 0 1 0 0 0 1 78.913541062654502 54.716390846924988 15.967895011280724 1 rotate no_reflect no_shear #
lump $-1 $-1 $31 $7 #
transform $-1 1 0 0 0 1 0 0 0 1 78.913541062654502 54.716390846924988 15.967895011280724 1 rotate no_reflect no_shear #
shell $-1 $-1 $-1 $32 $-1 $8 #
shell $-1 $-1 $-1 $33 $-1 $10 #
shell $-1 $-1 $-1 $34 $-1 $12 #
shell $-1 $-1 $-1 $35 $-1 $14 #
shell $-1 $-1 $-1 $36 $-1 $16 #
shell $-1 $-1 $-1 $37 $-1 $18 #
shell $-1 $-1 $-1 $38 $-1 $20 #
shell $-1 $-1 $-1 $39 $-1 $22 #
face $-1 $40 $41 $24 $-1 $42 reversed single #
face $-1 $43 $44 $25 $-1 $45 forward single #
face $-1 $46 $47 $26 $-1 $48 reversed single #
face $-1 $49 $50 $27 $-1 $51 forward single #
face $-1 $52 $53 $28 $-1 $54 reversed single #
face $-1 $55 $56 $29 $-1 $57 forward single #
face $-1 $58 $59 $30 $-1 $60 reversed single #
face $-1 $61 $62 $31 $-1 $63 forward single #
face $-1 $64 $65 $24 $-1 $66 forward single #
loop $-1 $-1 $67 $32 #
plane-surface $-1 0 -54.716390846924988 0 0 1 0 0 0 1 forward_v I I I I #
face $-1 $68 $69 $25 $-1 $70 forward single #
loop $-1 $-1 $71 $33 #
plane-surface $-1 0 -54.716390846924988 0 0 1 0 0 0 1 forward_v I I I I #
face $-1 $72 $73 $26 $-1 $74 reversed single #
loop $-1 $-1 $75 $34 #
plane-surface $-1 -180.36283517269698 -13.490202317847437 126.76931668575887 0 1 0 -0.64278761758704617 0 0.76604443648966558 forward_v I I I I #
face $-1 $76 $77 $27 $-1 $78 forward single #
loop $-1 $79 $80 $35 #
cone-surface $-1 -71.82854941163545 -6.5832509551481948 9.6469664179701446 0.64278761758704617 0 -0.76604443648966558 1.915111091224164 0 1.6069690439676154 1 I I 0 1 2.5 forward I I I I #
face $-1 $81 $82 $28 $-1 $83 reversed single #
loop $-1 $-1 $84 $36 #
plane-surface $-1 -180.36283517269698 12.785245996271538 126.76931668575887 0 1 0 -0.64278761758704617 0 0.76604443648966558 forward_v I I I I #
face $-1 $85 $86 $29 $-1 $87 forward single #
loop $-1 $88 $89 $37 #
cone-surface $-1 -71.82854941163545 19.69219735897078 9.6469664179701446 0.64278761758704617 0 -0.76604443648966558 1.915111091224164 0 1.6069690439676154 1 I I 0 1 2.5 forward I I I I #
face $-1 $90 $91 $30 $-1 $92 reversed single #
loop $-1 $-1 $93 $38 #
plane-surface $-1 43.997182782534594 -0.49652051101339012 223.32248921588516 0 -1 0 -0.5877852598018023 0 -0.80901698891910034 forward_v I I I I #
face $-1 $94 $95 $31 $-1 $96 forward single #
loop $-1 $97 $98 $39 #
cone-surface $-1 69.158904154260398 -12.635111070763919 8.3996738863642264 -0.5877852598018023 0 -0.80901698891910034 1.2135254833786506 0 -0.88167788970270344 1 I I 0 1 1.5 forward I I I I #
face $-1 $99 $100 $24 $-1 $101 reversed single #
loop $-1 $-1 $102 $40 #
plane-surface $-1 0 0 15.967895011280724 0 0 1 1 0 0 forward_v I I I I #
coedge $-1 $103 $104 $105 $106 reversed $41 $-1 #
face $-1 $107 $108 $25 $-1 $109 reversed single #
loop $-1 $-1 $110 $43 #
plane-surface $-1 0 0 15.967895011280724 0 0 1 1 0 0 forward_v I I I I #
coedge $-1 $111 $112 $113 $114 forward $44 $-1 #
face $-1 $115 $116 $26 $-1 $117 reversed single #
loop $-1 $-1 $118 $46 #
plane-surface $-1 -78.913541062654517 -6.5832509551481948 5.8667584962683605 -0.64278761758704617 0 0.76604443648966558 0.76604443648966558 0 0.64278761758704617 forward_v I I I I #
coedge $-1 $119 $120 $121 $122 reversed $47 $-1 #
face $-1 $-1 $123 $27 $-1 $124 forward single #
loop $-1 $125 $126 $49 #
cone-surface $-1 -69.959105978089454 -6.5832509551481948 7.4190505365536588 0.64278761758704617 0 -0.76604443648966558 0.957555545612082 0 0.80348452198380771 1 I I -0.70710678118654746 0.70710678118654746 1.25 forward I I I I #
loop $-1 $-1 $127 $35 #
coedge $-1 $80 $80 $128 $129 reversed $50 $-1 #
face $-1 $130 $131 $28 $-1 $132 reversed single #
loop $-1 $-1 $133 $52 #
plane-surface $-1 -78.913541062654517 19.69219735897078 5.8667584962683605 -0.64278761758704617 0 0.76604443648966558 0.76604443648966558 0 0.64278761758704617 forward_v I I I I #
coedge $-1 $134 $135 $136 $137 reversed $53 $-1 #
face $-1 $-1 $138 $29 $-1 $139 forward single #
loop $-1 $140 $141 $55 #
cone-surface $-1 -69.959105978089454 19.69219735897078 7.4190505365536588 0.64278761758704617 0 -0.76604443648966558 0.957555545612082 0 0.80348452198380771 1 I I -0.70710678118654746 0.70710678118654746 1.25 forward I I I I #
loop $-1 $-1 $142 $37 #
coedge $-1 $89 $89 $143 $144 reversed $56 $-1 #
face $-1 $145 $146 $30 $-1 $147 reversed single #
loop $-1 $-1 $148 $58 #
plane-surface $-1 -48.771249688250549 -12.635111070763919 95.637698464980105 0.5877852598018023 0 0.80901698891910034 0.80901698891910034 0 -0.5877852598018023 forward_v I I I I #
coedge $-1 $149 $150 $151 $152 reversed $59 $-1 #
face $-1 $-1 $153 $31 $-1 $154 forward single #
loop $-1 $155 $156 $61 #
cone-surface $-1 67.977786206097761 -12.635111070763919 6.7740045283013117 -0.5877852598018023 0 -0.80901698891910034 0.60676274168932531 0 -0.44083894485135172 1 I I -0.70710678118654757 0.70710678118654757 0.75 forward I I I I #
loop $-1 $-1 $157 $39 #
coedge $-1 $98 $98 $158 $159 reversed $62 $-1 #
face $-1 $160 $161 $24 $-1 $162 reversed single #
loop $-1 $-1 $163 $64 #
plane-surface $-1 0 0 -15.967895011280724 0 0 1 1 0 0 forward_v I I I I #
coedge $-1 $164 $165 $166 $167 forward $65 $-1 #
coedge $-1 $168 $67 $169 $170 reversed $41 $-1 #
coedge $-1 $67 $168 $171 $172 forward $41 $-1 #
coedge $-1 $173 $163 $67 $106 forward $100 $-1 #
edge $-1 $174 -78.913541062654502 $175 78.913541062654502 $67 $176 forward 7 unknown #
face $-1 $177 $178 $25 $-1 $179 reversed single #
loop $-1 $-1 $180 $68 #
plane-surface $-1 -78.913541062654502 0 0 1 0 0 0 0 -1 forward_v I I I I #
coedge $-1 $181 $182 $112 $183 forward $69 $-1 #
coedge $-1 $184 $71 $185 $186 reversed $44 $-1 #
coedge $-1 $71 $184 $110 $183 reversed $44 $-1 #
coedge $-1 $187 $188 $71 $114 reversed $189 $-1 #
edge $-1 $190 -15.967895011280724 $191 15.967895011280724 $113 $192 forward 7 unknown #
face $-1 $193 $194 $26 $-1 $195 reversed single #
loop $-1 $-1 $196 $72 #
plane-surface $-1 -180.36283517269698 0.32370040755104768 126.76931668575887 0 -1 0 0.64278761758704617 0 -0.76604443648966558 forward_v I I I I #
coedge $-1 $197 $198 $199 $200 reversed $73 $-1 #
coedge $-1 $120 $75 $201 $202 reversed $47 $-1 #
coedge $-1 $75 $119 $197 $203 reversed $47 $-1 #
coedge $-1 $199 $204 $75 $122 forward $205 $-1 #
edge $-1 $206 11.267876523693985 $207 23.305942002607722 $121 $208 forward 7 unknown #
loop $-1 $-1 $128 $76 #
plane-surface $-1 -78.913541062654517 -6.5832509551481948 5.8667584962683605 -0.64278761758704617 0 0.76604443648966558 0.76604443648966558 0 0.64278761758704617 forward_v I I I I #
loop $-1 $-1 $209 $49 #
coedge $-1 $126 $126 $127 $210 reversed $77 $-1 #
coedge $-1 $127 $127 $126 $210 forward $79 $-1 #
coedge $-1 $128 $128 $80 $129 forward $123 $-1 #
edge $-1 $211 0 $211 6.2831853071796004 $128 $212 forward 7 unknown #
face $-1 $213 $214 $28 $-1 $215 forward single #
loop $-1 $-1 $216 $81 #
plane-surface $-1 -180.36283517269698 26.599148721670023 126.76931668575887 0 -1 0 0.64278761758704617 0 -0.76604443648966558 forward_v I I I I #
coedge $-1 $217 $218 $219 $220 reversed $82 $-1 #
coedge $-1 $135 $84 $221 $222 reversed $53 $-1 #
coedge $-1 $84 $134 $217 $223 reversed $53 $-1 #
coedge $-1 $219 $224 $84 $137 forward $214 $-1 #
edge $-1 $225 11.267876523693985 $226 23.305942002607722 $136 $227 forward 7 unknown #
loop $-1 $-1 $143 $85 #
plane-surface $-1 -78.913541062654517 19.69219735897078 5.8667584962683605 -0.64278761758704617 0 0.76604443648966558 0.76604443648966558 0 0.64278761758704617 forward_v I I I I #
loop $-1 $-1 $228 $55 #
coedge $-1 $141 $141 $142 $229 reversed $86 $-1 #
coedge $-1 $142 $142 $141 $229 forward $88 $-1 #
coedge $-1 $143 $143 $89 $144 forward $138 $-1 #
edge $-1 $230 0 $230 6.2831853071796004 $143 $231 forward 7 unknown #
face $-1 $232 $233 $30 $-1 $234 forward single #
loop $-1 $-1 $235 $90 #
plane-surface $-1 43.997182782534594 -24.773701630514449 223.32248921588516 0 1 0 0.5877852598018023 0 0.80901698891910034 forward_v I I I I #
coedge $-1 $236 $237 $238 $239 reversed $91 $-1 #
coedge $-1 $150 $93 $240 $241 reversed $59 $-1 #
coedge $-1 $93 $149 $236 $242 reversed $59 $-1 #
coedge $-1 $238 $243 $93 $152 forward $233 $-1 #
edge $-1 $244 -56.914949671387205 $245 -38.886233861221569 $151 $246 forward 7 unknown #
loop $-1 $-1 $158 $94 #
plane-surface $-1 -48.771249688250549 -12.635111070763919 95.637698464980105 0.5877852598018023 0 0.80901698891910034 0.80901698891910034 0 -0.5877852598018023 forward_v I I I I #
loop $-1 $-1 $247 $61 #
coedge $-1 $156 $156 $157 $248 reversed $95 $-1 #
coedge $-1 $157 $157 $156 $248 forward $97 $-1 #
coedge $-1 $158 $158 $98 $159 forward $153 $-1 #
edge $-1 $249 0 $249 6.2831853071796004 $158 $250 forward 7 unknown #
face $-1 $251 $252 $24 $-1 $253 reversed single #
loop $-1 $-1 $254 $99 #
plane-surface $-1 -78.913541062654502 0 0 1 0 0 0 0 -1 forward_v I I I I #
coedge $-1 $105 $255 $256 $257 forward $100 $-1 #
coedge $-1 $258 $102 $259 $260 forward $65 $-1 #
coedge $-1 $102 $258 $168 $261 forward $65 $-1 #
coedge $-1 $169 $262 $102 $167 reversed $263 $-1 #
edge $-1 $264 -54.716390846924988 $265 54.716390846924988 $166 $266 forward 7 unknown #
coedge $-1 $104 $103 $165 $261 reversed $41 $-1 #
coedge $-1 $256 $166 $103 $170 forward $263 $-1 #
edge $-1 $264 -15.967895011280724 $174 15.967895011280724 $169 $267 forward 7 unknown #
coedge $-1 $268 $269 $104 $172 reversed $161 $-1 #
edge $-1 $270 -15.967895011280724 $175 15.967895011280724 $171 $271 forward 7 unknown #
coedge $-1 $255 $105 $269 $272 forward $100 $-1 #
vertex $-1 $170 $273 #
vertex $-1 $272 $274 #
straight-curve $-1 0 -54.716390846924988 -15.967895011280724 -1 0 0 I I #
face $-1 $275 $189 $25 $-1 $276 reversed single #
loop $-1 $-1 $277 $107 #
plane-surface $-1 -75.074706474460157 -67.825337250747566 0 0 1 0 0 0 1 forward_v I I I I #
coedge $-1 $278 $279 $184 $280 forward $108 $-1 #
coedge $-1 $281 $110 $279 $282 forward $69 $-1 #
coedge $-1 $110 $281 $187 $283 forward $69 $-1 #
edge $-1 $190 71.235871886265812 $284 78.913541062654502 $110 $285 forward 7 unknown #
coedge $-1 $112 $111 $180 $280 reversed $44 $-1 #
coedge $-1 $286 $287 $111 $186 forward $288 $-1 #
edge $-1 $289 -78.913541062654502 $191 -71.235871886265812 $185 $290 forward 7 unknown #
coedge $-1 $291 $113 $182 $283 reversed $189 $-1 #
coedge $-1 $113 $291 $286 $292 reversed $189 $-1 #
loop $-1 $-1 $291 $177 #
vertex $-1 $183 $293 #
vertex $-1 $292 $294 #
straight-curve $-1 -71.235871886265812 -54.716390846924988 0 0 0 -1 I I #
face $-1 $-1 $205 $26 $-1 $295 forward single #
loop $-1 $-1 $296 $115 #
plane-surface $-1 -78.913541062654502 0 0 1 0 0 0 0 -1 forward_v I I I I #
coedge $-1 $297 $298 $299 $300 reversed $116 $-1 #
coedge $-1 $301 $118 $120 $203 forward $73 $-1 #
coedge $-1 $118 $301 $297 $302 forward $73 $-1 #
coedge $-1 $299 $121 $118 $200 forward $205 $-1 #
edge $-1 $207 -10.19857684027334 $303 3.6153258851251451 $199 $304 forward 7 unknown #
coedge $-1 $305 $306 $119 $202 forward $194 $-1 #
edge $-1 $307 -57.517899846611058 $206 -47.416763331598709 $201 $308 forward 7 unknown #
edge $-1 $207 -15.714578561626496 $307 -1.8307977367429951e-014 $120 $309 forward 7 unknown #
coedge $-1 $121 $299 $305 $310 forward $205 $-1 #
loop $-1 $-1 $299 $193 #
vertex $-1 $202 $311 #
vertex $-1 $122 $312 #
straight-curve $-1 -90.181417586348488 -13.490202317847437 15.967895011280724 1 0 0 I I #
coedge $-1 $209 $209 $-1 $313 reversed $125 $-1 #
edge $-1 $314 0 $314 6.2831853071796004 $126 $315 forward 7 unknown #
vertex $-1 $129 $316 #
ellipse-curve $-1 -72.894508323197641 -6.5832509551481948 10.917326753774548 -0.64278761758704617 0 0.76604443648966558 1.915111091224164 0 1.6069690439676154 1 I I #
face $-1 $-1 $317 $28 $-1 $318 reversed single #
loop $-1 $-1 $136 $130 #
plane-surface $-1 0 0 15.967895011280724 0 0 1 1 0 0 forward_v I I I I #
coedge $-1 $319 $320 $321 $322 reversed $131 $-1 #
coedge $-1 $323 $133 $135 $223 forward $82 $-1 #
coedge $-1 $133 $323 $319 $324 forward $82 $-1 #
coedge $-1 $321 $136 $133 $220 forward $214 $-1 #
edge $-1 $226 2.9391473167861477 $325 16.753050042184633 $219 $326 forward 7 unknown #
coedge $-1 $327 $328 $134 $222 forward $317 $-1 #
edge $-1 $329 -57.517899846611058 $225 -47.416763331598709 $221 $330 forward 7 unknown #
edge $-1 $226 -15.714578561626496 $329 -1.8307977367429951e-014 $135 $331 forward 7 unknown #
coedge $-1 $136 $321 $327 $332 forward $214 $-1 #
vertex $-1 $222 $333 #
vertex $-1 $137 $334 #
straight-curve $-1 -90.181417586348488 12.785245996271538 15.967895011280724 1 0 0 I I #
coedge $-1 $228 $228 $-1 $335 reversed $140 $-1 #
edge $-1 $336 0 $336 6.2831853071796004 $141 $337 forward 7 unknown #
vertex $-1 $144 $338 #
ellipse-curve $-1 -72.894508323197641 19.69219735897078 10.917326753774548 -0.64278761758704617 0 0.76604443648966558 1.915111091224164 0 1.6069690439676154 1 I I #
face $-1 $-1 $339 $30 $-1 $340 reversed single #
loop $-1 $-1 $151 $145 #
plane-surface $-1 0 0 15.967895011280724 0 0 1 1 0 0 forward_v I I I I #
coedge $-1 $341 $342 $343 $344 reversed $146 $-1 #
coedge $-1 $345 $148 $150 $242 forward $91 $-1 #
coedge $-1 $148 $345 $341 $346 forward $91 $-1 #
coedge $-1 $343 $151 $148 $239 forward $233 $-1 #
edge $-1 $245 -5.8210350243685696 $347 18.456146095132489 $238 $348 forward 7 unknown #
coedge $-1 $349 $350 $149 $241 forward $339 $-1 #
edge $-1 $351 -108.79197861374762 $244 -95.693349596661847 $240 $352 forward 7 unknown #
edge $-1 $245 135.54236368663544 $351 157.827082125309 $150 $353 forward 7 unknown #
coedge $-1 $151 $343 $349 $354 forward $233 $-1 #
vertex $-1 $152 $355 #
vertex $-1 $152 $356 #
straight-curve $-1 21.998591391267297 -0.49652051101339012 15.967895011280717 -1 0 0 I I #
coedge $-1 $247 $247 $-1 $357 reversed $155 $-1 #
edge $-1 $358 0 $358 6.2831853071796004 $156 $359 forward 7 unknown #
vertex $-1 $159 $360 #
ellipse-curve $-1 69.899183157571699 -12.635111070763919 9.418580502737834 0.5877852598018023 0 0.80901698891910034 1.2135254833786506 0 -0.88167788970270344 1 I I #
face $-1 $-1 $263 $24 $-1 $361 reversed single #
loop $-1 $-1 $362 $160 #
plane-surface $-1 0 54.716390846924988 0 0 -1 0 0 0 -1 forward_v I I I I #
coedge $-1 $269 $268 $363 $364 forward $161 $-1 #
coedge $-1 $163 $173 $365 $366 forward $100 $-1 #
coedge $-1 $262 $169 $163 $257 reversed $263 $-1 #
edge $-1 $367 -54.716390846924988 $174 54.716390846924988 $256 $368 forward 7 unknown #
coedge $-1 $165 $164 $268 $369 forward $65 $-1 #
coedge $-1 $362 $363 $164 $260 reversed $252 $-1 #
edge $-1 $265 -78.913541062654502 $370 78.913541062654502 $259 $371 forward 7 unknown #
edge $-1 $270 -78.913541062654502 $264 78.913541062654502 $168 $372 forward 7 unknown #
coedge $-1 $166 $256 $362 $373 reversed $263 $-1 #
loop $-1 $-1 $169 $251 #
vertex $-1 $167 $374 #
vertex $-1 $167 $375 #
straight-curve $-1 78.913541062654502 0 15.967895011280724 0 1 0 I I #
straight-curve $-1 78.913541062654502 -54.716390846924988 0 0 0 -1 I I #
coedge $-1 $254 $171 $258 $369 reversed $161 $-1 #
coedge $-1 $171 $254 $173 $272 reversed $161 $-1 #
vertex $-1 $369 $376 #
straight-curve $-1 -78.913541062654502 -54.716390846924988 0 0 0 -1 I I #
edge $-1 $175 -54.716390846924988 $377 54.716390846924988 $269 $378 forward 7 unknown #
point $-1 78.913541062654502 -54.716390846924988 -15.967895011280724 #
point $-1 -78.913541062654502 -54.716390846924988 -15.967895011280724 #
face $-1 $-1 $288 $25 $-1 $379 reversed single #
plane-surface $-1 -71.235871886265812 -61.27086404883628 0 -1 0 0 0 0 1 forward_v I I I I #
coedge $-1 $380 $381 $382 $383 forward $178 $-1 #
coedge $-1 $382 $180 $287 $384 reversed $108 $-1 #
coedge $-1 $180 $382 $181 $282 reversed $108 $-1 #
edge $-1 $284 -15.967895011280724 $289 15.967895011280724 $180 $385 forward 7 unknown #
coedge $-1 $182 $181 $381 $386 forward $69 $-1 #
edge $-1 $284 54.716390846924988 $387 67.825337250747566 $279 $388 forward 7 unknown #
edge $-1 $389 -6.5544732019112857 $190 6.5544732019112928 $187 $390 forward 7 unknown #
vertex $-1 $282 $391 #
straight-curve $-1 0 -54.716390846924988 15.967895011280724 -1 0 0 I I #
coedge $-1 $392 $185 $188 $292 forward $288 $-1 #
coedge $-1 $185 $392 $278 $384 forward $288 $-1 #
loop $-1 $-1 $185 $275 #
vertex $-1 $280 $393 #
straight-curve $-1 0 -54.716390846924988 -15.967895011280724 1 0 0 I I #
coedge $-1 $188 $187 $394 $395 forward $189 $-1 #
edge $-1 $191 -6.5544732019112928 $396 6.5544732019112857 $188 $397 forward 7 unknown #
point $-1 -71.235871886265812 -54.716390846924988 15.967895011280724 #
point $-1 -71.235871886265812 -54.716390846924988 -15.967895011280724 #
plane-surface $-1 0 0 15.967895011280724 0 0 1 1 0 0 forward_v I I I I #
coedge $-1 $306 $305 $298 $398 forward $194 $-1 #
coedge $-1 $298 $196 $198 $302 reversed $116 $-1 #
coedge $-1 $196 $297 $296 $398 reversed $116 $-1 #
coedge $-1 $204 $199 $196 $300 forward $205 $-1 #
edge $-1 $303 -23.305942002607722 $399 -11.267876523693985 $299 $400 forward 7 unknown #
coedge $-1 $198 $197 $306 $401 reversed $73 $-1 #
edge $-1 $402 1.8307977367429951e-014 $303 15.714578561626496 $297 $403 forward 7 unknown #
vertex $-1 $200 $404 #
straight-curve $-1 -66.87547558374078 -3.2916254775740974 15.967895011280726 0 1 0 I I #
coedge $-1 $296 $201 $204 $310 reversed $194 $-1 #
coedge $-1 $201 $296 $301 $401 forward $194 $-1 #
vertex $-1 $202 $405 #
straight-curve $-1 -78.913541062654502 -13.490202317847437 63.384658342879433 0 0 1 I I #
straight-curve $-1 -78.913541062654517 -13.490202317847437 5.8667584962683605 -0.76604443648966558 0 -0.64278761758704617 I I #
edge $-1 $399 -0.32370040755104768 $206 13.490202317847437 $305 $406 forward 7 unknown #
point $-1 -78.913541062654502 -13.490202317847437 15.967895011280724 #
point $-1 -66.875475583740766 -13.490202317847437 15.967895011280724 #
edge $-1 $407 1 $407 0 $209 $-1 forward 7 unknown #
vertex $-1 $210 $408 #
ellipse-curve $-1 -70.762590500073259 -6.5832509551481948 8.3766060821657415 -0.64278761758704617 0 0.76604443648966558 1.915111091224164 0 1.6069690439676154 1 I I #
point $-1 -70.979397231973465 -6.5832509551481948 12.524295797742163 #
loop $-1 $-1 $221 $213 #
plane-surface $-1 -78.913541062654502 0 0 1 0 0 0 0 -1 forward_v I I I I #
coedge $-1 $320 $216 $218 $324 reversed $131 $-1 #
coedge $-1 $216 $319 $409 $410 reversed $131 $-1 #
coedge $-1 $224 $219 $216 $322 forward $214 $-1 #
edge $-1 $325 -23.305942002607722 $411 -11.267876523693985 $321 $412 forward 7 unknown #
coedge $-1 $218 $217 $328 $413 reversed $82 $-1 #
edge $-1 $414 1.8307977367429951e-014 $325 15.714578561626496 $319 $415 forward 7 unknown #
vertex $-1 $220 $416 #
straight-curve $-1 -66.87547558374078 9.8460986794853902 15.967895011280726 0 1 0 I I #
coedge $-1 $409 $221 $224 $332 reversed $317 $-1 #
coedge $-1 $221 $409 $323 $413 forward $317 $-1 #
vertex $-1 $222 $417 #
straight-curve $-1 -78.913541062654502 12.785245996271538 63.384658342879433 0 0 1 I I #
straight-curve $-1 -78.913541062654517 12.785245996271538 5.8667584962683605 -0.76604443648966558 0 -0.64278761758704617 I I #
edge $-1 $411 -26.599148721670023 $225 -12.785245996271538 $327 $418 forward 7 unknown #
point $-1 -78.913541062654502 12.785245996271538 15.967895011280724 #
point $-1 -66.875475583740766 12.785245996271538 15.967895011280724 #
edge $-1 $419 1 $419 0 $228 $-1 forward 7 unknown #
vertex $-1 $229 $420 #
ellipse-curve $-1 -70.762590500073259 19.69219735897078 8.3766060821657415 -0.64278761758704617 0 0.76604443648966558 1.915111091224164 0 1.6069690439676154 1 I I #
point $-1 -70.979397231973465 19.69219735897078 12.524295797742163 #
loop $-1 $-1 $240 $232 #
plane-surface $-1 78.913541062654502 0 0 -1 0 0 0 0 1 forward_v I I I I #
coedge $-1 $342 $235 $237 $346 reversed $146 $-1 #
coedge $-1 $235 $341 $421 $422 reversed $146 $-1 #
coedge $-1 $243 $238 $235 $344 forward $233 $-1 #
edge $-1 $347 38.886233861221569 $423 56.914949671387205 $343 $424 forward 7 unknown #
coedge $-1 $237 $236 $350 $425 reversed $91 $-1 #
edge $-1 $426 -157.827082125309 $347 -135.54236368663544 $341 $427 forward 7 unknown #
vertex $-1 $239 $428 #
straight-curve $-1 60.884825252488852 -6.3175555353819597 15.967895011280724 0 -1 0 I I #
coedge $-1 $421 $240 $243 $354 reversed $339 $-1 #
coedge $-1 $240 $421 $345 $425 forward $339 $-1 #
vertex $-1 $241 $429 #
straight-curve $-1 78.913541062654502 -0.49652051101339012 111.66124460794258 0 0 1 I I #
straight-curve $-1 -48.771249688250549 -0.49652051101339012 95.637698464980105 0.80901698891910034 0 -0.5877852598018023 I I #
edge $-1 $423 -24.773701630514449 $244 -0.49652051101339012 $349 $430 forward 7 unknown #
point $-1 78.913541062654502 -0.49652051101339012 15.967895011280724 #
point $-1 60.884825252488866 -0.49652051101339012 15.967895011280717 #
edge $-1 $431 1 $431 0 $247 $-1 forward 7 unknown #
vertex $-1 $248 $432 #
ellipse-curve $-1 68.418625150949111 -12.635111070763919 7.3807672699906366 0.5877852598018023 0 0.80901698891910034 1.2135254833786506 0 -0.88167788970270344 1 I I #
point $-1 71.112708640950331 -12.635111070763919 8.5369026130351138 #
plane-surface $-1 78.913541062654502 0 0 -1 0 0 0 0 1 forward_v I I I I #
coedge $-1 $365 $259 $262 $373 forward $252 $-1 #
coedge $-1 $259 $365 $254 $364 reversed $252 $-1 #
edge $-1 $370 -15.967895011280724 $377 15.967895011280724 $363 $433 forward 7 unknown #
coedge $-1 $363 $362 $255 $366 reversed $252 $-1 #
edge $-1 $377 -78.913541062654502 $367 78.913541062654502 $365 $434 forward 7 unknown #
vertex $-1 $257 $435 #
straight-curve $-1 78.913541062654502 0 -15.967895011280724 0 -1 0 I I #
edge $-1 $370 -54.716390846924988 $270 54.716390846924988 $268 $436 forward 7 unknown #
vertex $-1 $260 $437 #
straight-curve $-1 0 54.716390846924988 15.967895011280724 -1 0 0 I I #
straight-curve $-1 0 -54.716390846924988 15.967895011280724 1 0 0 I I #
edge $-1 $265 -15.967895011280724 $367 15.967895011280724 $262 $438 forward 7 unknown #
point $-1 78.913541062654502 -54.716390846924988 15.967895011280724 #
point $-1 78.913541062654502 54.716390846924988 15.967895011280724 #
point $-1 -78.913541062654502 -54.716390846924988 15.967895011280724 #
vertex $-1 $366 $439 #
straight-curve $-1 -78.913541062654502 0 -15.967895011280724 0 1 0 I I #
plane-surface $-1 0 0 -15.967895011280724 0 0 1 1 0 0 forward_v I I I I #
coedge $-1 $394 $277 $392 $440 reversed $178 $-1 #
coedge $-1 $277 $394 $281 $386 reversed $178 $-1 #
coedge $-1 $279 $278 $277 $383 reversed $108 $-1 #
edge $-1 $387 -15.967895011280724 $441 15.967895011280724 $382 $442 forward 7 unknown #
edge $-1 $441 -67.825337250747566 $289 -54.716390846924988 $278 $443 forward 7 unknown #
straight-curve $-1 -78.913541062654502 -54.716390846924988 0 0 0 -1 I I #
edge $-1 $387 -3.8388345881943451 $389 3.8388345881943451 $381 $444 forward 7 unknown #
vertex $-1 $282 $445 #
straight-curve $-1 -78.913541062654502 0 15.967895011280724 0 -1 0 I I #
vertex $-1 $283 $446 #
straight-curve $-1 -71.235871886265812 -61.27086404883628 15.967895011280724 0 1 0 I I #
point $-1 -78.913541062654502 -54.716390846924988 15.967895011280724 #
coedge $-1 $287 $286 $380 $440 forward $288 $-1 #
point $-1 -78.913541062654502 -54.716390846924988 -15.967895011280724 #
coedge $-1 $381 $380 $291 $395 reversed $178 $-1 #
edge $-1 $389 -15.967895011280724 $396 15.967895011280724 $291 $447 forward 7 unknown #
vertex $-1 $395 $448 #
straight-curve $-1 -71.235871886265812 -61.27086404883628 -15.967895011280724 0 -1 0 I I #
edge $-1 $399 47.416763331598709 $402 57.517899846611058 $296 $449 forward 7 unknown #
vertex $-1 $310 $450 #
straight-curve $-1 -90.181417586348488 0.32370040755104768 15.967895011280724 -1 0 0 I I #
edge $-1 $402 -3.6153258851251451 $307 10.19857684027334 $306 $451 forward 7 unknown #
vertex $-1 $401 $452 #
straight-curve $-1 -78.913541062654517 0.32370040755104768 5.8667584962683605 0.76604443648966558 0 0.64278761758704617 I I #
point $-1 -66.875475583740766 0.32370040755104768 15.967895011280724 #
point $-1 -78.913541062654502 -13.490202317847437 5.8667584962683721 #
straight-curve $-1 -78.913541062654502 0 15.967895011280724 0 -1 0 I I #
vertex $-1 $313 $453 #
point $-1 -68.847479408849097 -6.5832509551481948 9.9835751261333563 #
coedge $-1 $328 $327 $320 $410 forward $317 $-1 #
edge $-1 $411 47.416763331598709 $414 57.517899846611058 $409 $454 forward 7 unknown #
vertex $-1 $332 $455 #
straight-curve $-1 -90.181417586348488 26.599148721670023 15.967895011280724 -1 0 0 I I #
edge $-1 $414 -16.753050042184633 $329 -2.9391473167861477 $328 $456 forward 7 unknown #
vertex $-1 $413 $457 #
straight-curve $-1 -78.913541062654517 26.599148721670023 5.8667584962683605 0.76604443648966558 0 0.64278761758704617 I I #
point $-1 -66.875475583740766 26.599148721670023 15.967895011280724 #
point $-1 -78.913541062654502 12.785245996271538 5.8667584962683721 #
straight-curve $-1 -78.913541062654502 0 15.967895011280724 0 -1 0 I I #
vertex $-1 $335 $458 #
point $-1 -68.847479408849097 19.69219735897078 9.9835751261333563 #
coedge $-1 $350 $349 $342 $422 forward $339 $-1 #
edge $-1 $423 95.693349596661847 $426 108.79197861374762 $421 $459 forward 7 unknown #
vertex $-1 $354 $460 #
straight-curve $-1 21.998591391267297 -24.773701630514449 15.967895011280717 1 0 0 I I #
edge $-1 $426 -18.456146095132489 $351 5.8210350243685696 $350 $461 forward 7 unknown #
vertex $-1 $425 $462 #
straight-curve $-1 -48.771249688250549 -24.773701630514449 95.637698464980105 -0.80901698891910034 0 0.5877852598018023 I I #
point $-1 60.884825252488866 -24.773701630514449 15.967895011280717 #
point $-1 78.913541062654502 -0.49652051101339012 2.8692659941949614 #
straight-curve $-1 78.913541062654502 0 15.967895011280724 0 1 0 I I #
vertex $-1 $357 $463 #
point $-1 69.632150634327758 -12.635111070763919 6.4990893802879333 #
straight-curve $-1 -78.913541062654502 54.716390846924988 0 0 0 -1 I I #
straight-curve $-1 0 54.716390846924988 -15.967895011280724 1 0 0 I I #
point $-1 78.913541062654502 54.716390846924988 -15.967895011280724 #
straight-curve $-1 -78.913541062654502 0 15.967895011280724 0 -1 0 I I #
point $-1 -78.913541062654502 54.716390846924988 15.967895011280724 #
straight-curve $-1 78.913541062654502 54.716390846924988 0 0 0 -1 I I #
point $-1 -78.913541062654502 54.716390846924988 -15.967895011280724 #
edge $-1 $396 -3.8388345881943451 $441 3.8388345881943451 $380 $464 forward 7 unknown #
vertex $-1 $384 $465 #
straight-curve $-1 -78.913541062654502 -67.825337250747566 0 0 0 -1 I I #
straight-curve $-1 -78.913541062654502 0 -15.967895011280724 0 1 0 I I #
straight-curve $-1 -75.074706474460157 -67.825337250747566 15.967895011280724 1 0 0 I I #
point $-1 -78.913541062654502 -67.825337250747566 15.967895011280724 #
point $-1 -71.235871886265812 -67.825337250747566 15.967895011280724 #
straight-curve $-1 -71.235871886265812 -67.825337250747566 0 0 0 -1 I I #
point $-1 -71.235871886265812 -67.825337250747566 -15.967895011280724 #
straight-curve $-1 -78.913541062654502 0.32370040755104768 63.384658342879433 0 0 -1 I I #
point $-1 -78.913541062654502 0.32370040755104768 15.967895011280724 #
straight-curve $-1 -78.913541062654502 -3.2916254775740974 5.8667584962683685 0 -1 0 I I #
point $-1 -78.913541062654502 0.32370040755104768 5.8667584962683721 #
point $-1 -69.155621456105649 -6.5832509551481948 6.4614949909415769 #
straight-curve $-1 -78.913541062654502 26.599148721670023 63.384658342879433 0 0 -1 I I #
point $-1 -78.913541062654502 26.599148721670023 15.967895011280724 #
straight-curve $-1 -78.913541062654502 9.8460986794853902 5.8667584962683685 0 -1 0 I I #
point $-1 -78.913541062654502 26.599148721670023 5.8667584962683721 #
point $-1 -69.155621456105649 19.69219735897078 6.4614949909415769 #
straight-curve $-1 78.913541062654502 -24.773701630514449 111.66124460794258 0 0 -1 I I #
point $-1 78.913541062654502 -24.773701630514449 15.967895011280724 #
straight-curve $-1 78.913541062654502 -6.3175555353819597 2.8692659941949543 0 1 0 I I #
point $-1 78.913541062654502 -24.773701630514449 2.8692659941949614 #
point $-1 67.536947261246411 -12.635111070763919 6.1672417866119869 #
straight-curve $-1 -75.074706474460157 -67.825337250747566 -15.967895011280724 -1 0 0 I I #
point $-1 -78.913541062654502 -67.825337250747566 -15.967895011280724 #
End-of-ACIS-data 