500 0 7 0           
7 Unknown 11 ACIS 5.0 NT 24 Thu Mar 25 16:29:53 1999 
-1 9.9999999999999995e-007 1e-010 
body $-1 $7 $-1 $8 #
body $-1 $9 $-1 $10 #
body $-1 $11 $-1 $12 #
body $-1 $13 $-1 $14 #
body $-1 $15 $-1 $16 #
body $-1 $17 $-1 $18 #
body $-1 $19 $-1 $20 #
lump $-1 $-1 $21 $0 #
transform $-1 1 0 0 0 1 0 0 0 1 48.427991576891387 25.421628831369304 10.232967857817675 1 rotate no_reflect no_shear #
lump $-1 $-1 $22 $1 #
transform $-1 1 0 0 0 1 0 0 0 1 48.427991576891387 25.421628831369304 10.232967857817675 1 rotate no_reflect no_shear #
lump $-1 $-1 $23 $2 #
transform $-1 1 0 0 0 1 0 0 0 1 48.427991576891387 25.421628831369304 10.232967857817675 1 rotate no_reflect no_shear #
lump $-1 $-1 $24 $3 #
transform $-1 1 0 0 0 1 0 0 0 1 48.427991576891387 25.421628831369304 10.232967857817675 1 rotate no_reflect no_shear #
lump $-1 $-1 $25 $4 #
transform $-1 1 0 0 0 1 0 0 0 1 48.427991576891387 25.421628831369304 10.232967857817675 1 rotate no_reflect no_shear #
lump $-1 $-1 $26 $5 #
transform $-1 1 0 0 0 1 0 0 0 1 48.427991576891387 25.421628831369304 10.232967857817675 1 rotate no_reflect no_shear #
lump $-1 $-1 $27 $6 #
transform $-1 1 0 0 0 1 0 0 0 1 48.427991576891387 25.421628831369304 10.232967857817675 1 rotate no_reflect no_shear #
shell $-1 $-1 $-1 $28 $-1 $7 #
shell $-1 $-1 $-1 $29 $-1 $9 #
shell $-1 $-1 $-1 $30 $-1 $11 #
shell $-1 $-1 $-1 $31 $-1 $13 #
shell $-1 $-1 $-1 $32 $-1 $15 #
shell $-1 $-1 $-1 $33 $-1 $17 #
shell $-1 $-1 $-1 $34 $-1 $19 #
face $-1 $35 $36 $21 $-1 $37 forward single #
face $-1 $38 $39 $22 $-1 $40 reversed single #
face $-1 $41 $42 $23 $-1 $43 reversed single #
face $-1 $44 $45 $24 $-1 $46 forward single #
face $-1 $47 $48 $25 $-1 $49 reversed single #
face $-1 $50 $51 $26 $-1 $52 forward single #
face $-1 $53 $54 $27 $-1 $55 forward single #
face $-1 $56 $57 $21 $-1 $58 reversed single #
loop $-1 $-1 $59 $28 #
plane-surface $-1 0 0 10.232967857817675 0 0 1 1 0 0 forward_v I I I I #
face $-1 $60 $61 $22 $-1 $62 reversed single #
loop $-1 $-1 $63 $29 #
plane-surface $-1 -43.464132424479409 0 5.844287255201877 0 0 1 1 0 0 forward_v I I I I #
face $-1 $64 $65 $23 $-1 $66 reversed single #
loop $-1 $-1 $67 $30 #
plane-surface $-1 3.2710277844784201 -107.56016171384096 53.341642284629629 -1 0 0 0 -0.84804810408105047 0.52991925155115449 forward_v I I I I #
face $-1 $68 $69 $24 $-1 $70 forward single #
loop $-1 $71 $72 $31 #
cone-surface $-1 -6.4862832815705929 -19.471190170016463 4.0103795078078281 0 0.84804810408105047 -0.52991925155115449 2 0 0 1 I I 0 1 2 forward I I I I #
face $-1 $73 $74 $25 $-1 $75 reversed single #
loop $-1 $-1 $76 $32 #
plane-surface $-1 -27.886304617858805 72.17602140251347 105.16030393645265 1 0 0 0 -0.79863551827123203 -0.60181501223851219 forward_v I I I I #
face $-1 $77 $78 $26 $-1 $79 forward single #
loop $-1 $80 $81 $33 #
cone-surface $-1 -22.761240090601547 23.527531142769991 7.9484203304429304 0 -0.79863551827123203 -0.60181501223851219 0.25 0 0 1 I I 0 1 0.25 forward I I I I #
face $-1 $82 $83 $27 $-1 $84 forward single #
loop $-1 $85 $86 $34 #
cone-surface $-1 -15.073643299715656 23.527531142769991 7.9484203304429304 0 -0.79863551827123203 -0.60181501223851219 0.25 0 0 1 I I 0 1 0.25 forward I I I I #
face $-1 $87 $88 $21 $-1 $89 reversed single #
loop $-1 $-1 $90 $35 #
plane-surface $-1 0 0 -10.232967857817675 0 0 1 1 0 0 forward_v I I I I #
coedge $-1 $91 $92 $93 $94 forward $36 $-1 #
face $-1 $95 $96 $22 $-1 $97 reversed single #
loop $-1 $-1 $98 $38 #
plane-surface $-1 -38.500273272067432 0 8.0386275565097751 -1 0 0 0 0 1 forward_v I I I I #
coedge $-1 $99 $100 $101 $102 forward $39 $-1 #
face $-1 $103 $104 $23 $-1 $105 reversed single #
loop $-1 $-1 $106 $41 #
plane-surface $-1 -6.4862832815705929 -25.421628831369304 2.0157921835258321 0 -0.84804810408105047 0.52991925155115449 1 0 0 forward_v I I I I #
coedge $-1 $107 $108 $109 $110 reversed $42 $-1 #
face $-1 $-1 $111 $24 $-1 $112 forward single #
loop $-1 $113 $114 $44 #
cone-surface $-1 -6.4862832815705929 -15.240033938210487 1.3664597433927472 0 0.84804810408105047 -0.52991925155115449 1 0 0 1 I I -0.70710678118654735 0.70710678118654768 1 forward I I I I #
loop $-1 $-1 $115 $31 #
coedge $-1 $72 $72 $116 $117 reversed $45 $-1 #
face $-1 $118 $119 $25 $-1 $120 reversed single #
loop $-1 $-1 $121 $47 #
plane-surface $-1 -18.917441695158605 -5.17660690117755 46.870919249385736 0 0.79863551827123203 0.60181501223851219 1 0 0 forward_v I I I I #
coedge $-1 $122 $123 $124 $125 reversed $48 $-1 #
face $-1 $-1 $126 $26 $-1 $127 forward single #
loop $-1 $128 $129 $50 #
cone-surface $-1 -22.761240090601547 23.028383943850471 7.5722859477938602 0 -0.79863551827123203 -0.60181501223851219 0.125 0 0 1 I I -0.70710678118654746 0.70710678118654746 0.125 forward I I I I #
loop $-1 $-1 $130 $33 #
coedge $-1 $81 $81 $131 $132 reversed $51 $-1 #
face $-1 $-1 $133 $27 $-1 $134 forward single #
loop $-1 $135 $136 $53 #
cone-surface $-1 -15.073643299715656 23.028383943850471 7.5722859477938602 0 -0.79863551827123203 -0.60181501223851219 0.125 0 0 1 I I -0.70710678118654746 0.70710678118654746 0.125 forward I I I I #
loop $-1 $-1 $137 $34 #
coedge $-1 $86 $86 $138 $139 reversed $54 $-1 #
face $-1 $140 $141 $21 $-1 $142 reversed single #
loop $-1 $-1 $143 $56 #
plane-surface $-1 0 -25.421628831369304 0 0 1 0 0 0 1 forward_v I I I I #
coedge $-1 $144 $145 $146 $147 forward $57 $-1 #
coedge $-1 $148 $59 $149 $150 forward $36 $-1 #
coedge $-1 $59 $148 $151 $152 forward $36 $-1 #
coedge $-1 $153 $154 $59 $94 reversed $155 $-1 #
edge $-1 $156 -25.421628831369304 $157 25.421628831369304 $93 $158 forward 7 unknown #
face $-1 $159 $160 $22 $-1 $161 reversed single #
loop $-1 $-1 $162 $60 #
plane-surface $-1 0 25.421628831369304 0 0 -1 0 0 0 -1 forward_v I I I I #
coedge $-1 $101 $163 $164 $165 reversed $61 $-1 #
coedge $-1 $166 $63 $167 $168 reversed $39 $-1 #
coedge $-1 $63 $166 $169 $170 reversed $39 $-1 #
coedge $-1 $171 $98 $63 $102 reversed $61 $-1 #
edge $-1 $172 -25.421628831369304 $173 25.421628831369304 $101 $174 forward 7 unknown #
face $-1 $175 $176 $23 $-1 $177 reversed single #
loop $-1 $-1 $178 $64 #
plane-surface $-1 -16.243594347619606 -107.56016171384096 53.341642284629629 1 0 0 0 0.84804810408105047 -0.52991925155115449 forward_v I I I I #
coedge $-1 $179 $180 $181 $182 reversed $65 $-1 #
coedge $-1 $108 $67 $183 $184 reversed $42 $-1 #
coedge $-1 $67 $107 $179 $185 reversed $42 $-1 #
coedge $-1 $181 $186 $67 $110 forward $187 $-1 #
edge $-1 $188 28.358452025551173 $189 33.493113092807 $109 $190 forward 7 unknown #
loop $-1 $-1 $116 $68 #
plane-surface $-1 -6.4862832815705929 -25.421628831369304 2.0157921835258321 0 -0.84804810408105047 0.52991925155115449 1 0 0 forward_v I I I I #
loop $-1 $-1 $191 $44 #
coedge $-1 $114 $114 $115 $192 reversed $69 $-1 #
coedge $-1 $115 $115 $114 $192 forward $71 $-1 #
coedge $-1 $116 $116 $72 $117 forward $111 $-1 #
edge $-1 $193 -3.7660901245619732e-016 $193 6.2831853071796004 $116 $194 forward 7 unknown #
face $-1 $195 $196 $25 $-1 $197 forward single #
loop $-1 $-1 $198 $73 #
plane-surface $-1 -9.9485787724584043 72.17602140251347 105.16030393645265 -1 0 0 0 0.79863551827123203 0.60181501223851219 forward_v I I I I #
coedge $-1 $199 $200 $201 $202 reversed $74 $-1 #
coedge $-1 $123 $76 $203 $204 reversed $48 $-1 #
coedge $-1 $76 $122 $199 $205 reversed $48 $-1 #
coedge $-1 $201 $206 $76 $125 forward $196 $-1 #
edge $-1 $207 10.666381869887431 $208 13.655941728814813 $124 $209 forward 7 unknown #
loop $-1 $-1 $131 $77 #
plane-surface $-1 -18.917441695158605 -5.17660690117755 46.870919249385736 0 0.79863551827123203 0.60181501223851219 1 0 0 forward_v I I I I #
loop $-1 $-1 $210 $50 #
coedge $-1 $129 $129 $130 $211 reversed $78 $-1 #
coedge $-1 $130 $130 $129 $211 forward $80 $-1 #
coedge $-1 $131 $131 $81 $132 forward $126 $-1 #
edge $-1 $212 5.5939752324070413e-015 $212 6.2831853071796058 $131 $213 forward 7 unknown #
loop $-1 $-1 $138 $82 #
plane-surface $-1 -18.917441695158605 -5.17660690117755 46.870919249385736 0 0.79863551827123203 0.60181501223851219 1 0 0 forward_v I I I I #
loop $-1 $-1 $214 $53 #
coedge $-1 $136 $136 $137 $215 reversed $83 $-1 #
coedge $-1 $137 $137 $136 $215 forward $85 $-1 #
coedge $-1 $138 $138 $86 $139 forward $133 $-1 #
edge $-1 $216 5.5939752324070413e-015 $216 6.2831853071796058 $138 $217 forward 7 unknown #
face $-1 $218 $219 $21 $-1 $220 reversed single #
loop $-1 $-1 $221 $87 #
plane-surface $-1 -48.427991576891387 0 0 1 0 0 0 0 -1 forward_v I I I I #
coedge $-1 $222 $151 $223 $224 forward $88 $-1 #
coedge $-1 $225 $90 $222 $226 forward $57 $-1 #
coedge $-1 $90 $225 $227 $228 forward $57 $-1 #
coedge $-1 $154 $153 $90 $147 reversed $155 $-1 #
edge $-1 $229 -25.421628831369304 $230 25.421628831369304 $146 $231 forward 7 unknown #
coedge $-1 $92 $91 $232 $233 forward $36 $-1 #
coedge $-1 $234 $235 $91 $150 reversed $219 $-1 #
edge $-1 $157 -48.427991576891387 $236 48.427991576891387 $149 $237 forward 7 unknown #
coedge $-1 $143 $238 $92 $152 reversed $88 $-1 #
edge $-1 $239 -48.427991576891387 $156 48.427991576891387 $151 $240 forward 7 unknown #
coedge $-1 $146 $93 $238 $241 forward $155 $-1 #
coedge $-1 $93 $146 $234 $242 reversed $155 $-1 #
loop $-1 $-1 $153 $218 #
vertex $-1 $94 $243 #
vertex $-1 $94 $244 #
straight-curve $-1 48.427991576891387 0 10.232967857817675 0 1 0 I I #
face $-1 $245 $246 $22 $-1 $247 forward single #
loop $-1 $-1 $248 $95 #
plane-surface $-1 -48.427991576891387 0 0 1 0 0 0 0 -1 forward_v I I I I #
coedge $-1 $169 $249 $171 $250 forward $96 $-1 #
coedge $-1 $98 $171 $251 $252 reversed $61 $-1 #
coedge $-1 $253 $167 $98 $165 forward $254 $-1 #
edge $-1 $173 1.8249734769469894 $255 6.2136540795627857 $164 $256 forward 7 unknown #
coedge $-1 $100 $99 $248 $257 reversed $39 $-1 #
coedge $-1 $164 $258 $99 $168 forward $254 $-1 #
edge $-1 $259 -26.695925364651682 $173 -16.768207059827727 $167 $260 forward 7 unknown #
coedge $-1 $261 $162 $100 $170 forward $96 $-1 #
edge $-1 $172 16.768207059827727 $262 26.695925364651682 $169 $263 forward 7 unknown #
coedge $-1 $163 $101 $162 $250 reversed $61 $-1 #
vertex $-1 $170 $264 #
vertex $-1 $168 $265 #
straight-curve $-1 -38.500273272067432 0 5.844287255201877 0 -1 0 I I #
face $-1 $-1 $187 $23 $-1 $266 forward single #
loop $-1 $-1 $267 $103 #
plane-surface $-1 0 -25.421628831369304 0 0 1 0 0 0 1 forward_v I I I I #
coedge $-1 $268 $269 $270 $271 reversed $104 $-1 #
coedge $-1 $272 $106 $108 $185 forward $65 $-1 #
coedge $-1 $106 $272 $268 $273 forward $65 $-1 #
coedge $-1 $270 $109 $106 $182 forward $187 $-1 #
edge $-1 $189 -6.5141694252637166 $274 13.000452706834309 $181 $275 forward 7 unknown #
coedge $-1 $276 $277 $107 $184 forward $176 $-1 #
edge $-1 $278 -24.655028958788982 $188 -16.437853284497137 $183 $279 forward 7 unknown #
edge $-1 $189 -9.6895160012131853 $278 0 $108 $280 forward 7 unknown #
coedge $-1 $109 $270 $276 $281 forward $187 $-1 #
loop $-1 $-1 $270 $175 #
vertex $-1 $184 $282 #
vertex $-1 $110 $283 #
straight-curve $-1 3.2710277844784201 -53.780080856920478 10.232967857817673 0 1 0 I I #
coedge $-1 $191 $191 $-1 $284 reversed $113 $-1 #
edge $-1 $285 0 $285 6.2831853071796004 $114 $286 forward 7 unknown #
vertex $-1 $117 $287 #
ellipse-curve $-1 -6.4862832815705929 -22.854298297741391 6.1243800206717545 0 -0.84804810408105047 0.52991925155115449 2 0 0 1 I I #
face $-1 $-1 $288 $25 $-1 $289 reversed single #
loop $-1 $-1 $124 $118 #
plane-surface $-1 0 0 10.232967857817675 0 0 1 1 0 0 forward_v I I I I #
coedge $-1 $290 $291 $292 $293 reversed $119 $-1 #
coedge $-1 $294 $121 $123 $205 forward $74 $-1 #
coedge $-1 $121 $294 $290 $295 forward $74 $-1 #
coedge $-1 $292 $124 $121 $202 forward $196 $-1 #
edge $-1 $208 -18.427583770279504 $296 -0.48985792487910196 $201 $297 forward 7 unknown #
coedge $-1 $298 $299 $122 $204 forward $288 $-1 #
edge $-1 $300 -46.314464152919612 $207 -42.347184110408648 $203 $301 forward 7 unknown #
edge $-1 $208 45.875684906772577 $300 50.843257662738587 $123 $302 forward 7 unknown #
coedge $-1 $124 $292 $298 $303 forward $196 $-1 #
vertex $-1 $204 $304 #
vertex $-1 $125 $305 #
straight-curve $-1 -27.886304617858805 36.088010701256735 10.232967857817677 0 -1 0 I I #
coedge $-1 $210 $210 $-1 $306 reversed $128 $-1 #
edge $-1 $307 0 $307 6.2831853071796004 $129 $308 forward 7 unknown #
vertex $-1 $132 $309 #
ellipse-curve $-1 -22.761240090601547 23.926848901905615 8.2493278365621929 0 0.79863551827123203 0.60181501223851219 0.25 0 0 1 I I #
coedge $-1 $214 $214 $-1 $310 reversed $135 $-1 #
edge $-1 $311 0 $311 6.2831853071796004 $136 $312 forward 7 unknown #
vertex $-1 $139 $313 #
ellipse-curve $-1 -15.073643299715656 23.926848901905615 8.2493278365621929 0 0.79863551827123203 0.60181501223851219 0.25 0 0 1 I I #
face $-1 $-1 $155 $21 $-1 $314 reversed single #
loop $-1 $-1 $234 $140 #
plane-surface $-1 0 25.421628831369304 0 0 -1 0 0 0 -1 forward_v I I I I #
coedge $-1 $315 $232 $235 $316 forward $141 $-1 #
coedge $-1 $238 $143 $144 $226 reversed $88 $-1 #
coedge $-1 $232 $315 $143 $224 reversed $141 $-1 #
edge $-1 $239 -10.232967857817675 $317 10.232967857817675 $223 $318 forward 7 unknown #
coedge $-1 $145 $144 $315 $319 forward $57 $-1 #
edge $-1 $230 -48.427991576891387 $317 48.427991576891387 $222 $320 forward 7 unknown #
coedge $-1 $235 $234 $145 $228 reversed $219 $-1 #
edge $-1 $321 -48.427991576891387 $229 48.427991576891387 $227 $322 forward 7 unknown #
vertex $-1 $147 $323 #
vertex $-1 $241 $324 #
straight-curve $-1 48.427991576891387 0 -10.232967857817675 0 -1 0 I I #
coedge $-1 $221 $223 $148 $233 reversed $141 $-1 #
edge $-1 $236 -25.421628831369304 $239 25.421628831369304 $232 $325 forward 7 unknown #
coedge $-1 $227 $149 $154 $242 forward $219 $-1 #
coedge $-1 $149 $227 $221 $316 reversed $219 $-1 #
vertex $-1 $150 $326 #
straight-curve $-1 0 25.421628831369304 10.232967857817675 -1 0 0 I I #
coedge $-1 $151 $222 $153 $241 reversed $88 $-1 #
vertex $-1 $233 $327 #
straight-curve $-1 0 -25.421628831369304 10.232967857817675 1 0 0 I I #
edge $-1 $156 -10.232967857817675 $230 10.232967857817675 $153 $328 forward 7 unknown #
edge $-1 $157 -10.232967857817675 $229 10.232967857817675 $154 $329 forward 7 unknown #
point $-1 48.427991576891387 -25.421628831369304 10.232967857817675 #
point $-1 48.427991576891387 25.421628831369304 10.232967857817675 #
face $-1 $-1 $254 $22 $-1 $330 reversed single #
loop $-1 $-1 $251 $159 #
plane-surface $-1 0 0 10.232967857817675 0 0 1 1 0 0 forward_v I I I I #
coedge $-1 $331 $332 $166 $257 forward $160 $-1 #
coedge $-1 $162 $261 $333 $334 reversed $96 $-1 #
edge $-1 $335 -6.2136540795627857 $172 -1.8249734769469894 $162 $336 forward 7 unknown #
coedge $-1 $333 $337 $163 $252 forward $246 $-1 #
edge $-1 $255 -25.421628831369304 $335 25.421628831369304 $251 $338 forward 7 unknown #
coedge $-1 $258 $164 $337 $339 reversed $254 $-1 #
loop $-1 $-1 $164 $245 #
vertex $-1 $165 $340 #
straight-curve $-1 -38.500273272067432 -25.421628831369304 4.0193137782548876 0 0 1 I I #
edge $-1 $262 -25.421628831369304 $259 25.421628831369304 $248 $341 forward 7 unknown #
coedge $-1 $167 $253 $331 $342 forward $254 $-1 #
vertex $-1 $257 $343 #
straight-curve $-1 -21.732066212239705 -25.421628831369304 5.844287255201877 1 0 0 I I #
coedge $-1 $249 $169 $332 $344 reversed $96 $-1 #
vertex $-1 $257 $345 #
straight-curve $-1 -21.732066212239705 25.421628831369304 5.844287255201877 -1 0 0 I I #
point $-1 -38.500273272067432 25.421628831369304 5.844287255201877 #
point $-1 -38.500273272067432 -25.421628831369304 5.844287255201877 #
plane-surface $-1 0 0 10.232967857817675 0 0 1 1 0 0 forward_v I I I I #
coedge $-1 $277 $276 $269 $346 forward $176 $-1 #
coedge $-1 $269 $178 $180 $273 reversed $104 $-1 #
coedge $-1 $178 $268 $267 $346 reversed $104 $-1 #
coedge $-1 $186 $181 $178 $271 forward $187 $-1 #
edge $-1 $274 -33.493113092807 $347 -28.358452025551173 $270 $348 forward 7 unknown #
coedge $-1 $180 $179 $277 $349 reversed $65 $-1 #
edge $-1 $350 0 $274 9.6895160012131853 $268 $351 forward 7 unknown #
vertex $-1 $182 $352 #
straight-curve $-1 -3.2431416407852964 -20.286967764113477 10.232967857817675 -1 0 0 I I #
coedge $-1 $267 $183 $186 $281 reversed $176 $-1 #
coedge $-1 $183 $267 $272 $349 forward $176 $-1 #
vertex $-1 $184 $353 #
straight-curve $-1 3.2710277844784201 -25.421628831369304 26.670821142314814 0 0 1 I I #
straight-curve $-1 3.2710277844784201 -25.421628831369304 2.0157921835258321 0 -0.52991925155115449 -0.84804810408105047 I I #
edge $-1 $347 -16.243594347619606 $188 3.2710277844784201 $276 $354 forward 7 unknown #
point $-1 3.2710277844784201 -25.421628831369304 10.232967857817675 #
point $-1 3.2710277844784201 -20.286967764113477 10.232967857817675 #
edge $-1 $355 1 $355 0 $191 $-1 forward 7 unknown #
vertex $-1 $192 $356 #
ellipse-curve $-1 -6.4862832815705929 -16.088082042291539 1.8963789949439018 0 -0.84804810408105047 0.52991925155115449 2 0 0 1 I I #
point $-1 -4.4862832815705929 -22.854298297741391 6.1243800206717536 #
loop $-1 $-1 $203 $195 #
plane-surface $-1 0 25.421628831369304 0 0 -1 0 0 0 -1 forward_v I I I I #
coedge $-1 $291 $198 $200 $295 reversed $119 $-1 #
coedge $-1 $198 $290 $357 $358 reversed $119 $-1 #
coedge $-1 $206 $201 $198 $293 forward $196 $-1 #
edge $-1 $296 -13.655941728814813 $359 -10.666381869887431 $292 $360 forward 7 unknown #
coedge $-1 $200 $199 $299 $361 reversed $74 $-1 #
edge $-1 $362 -50.843257662738587 $296 -45.875684906772577 $290 $363 forward 7 unknown #
vertex $-1 $202 $364 #
straight-curve $-1 -9.4587208475793023 22.432068972441918 10.23296785781768 1 0 0 I I #
coedge $-1 $357 $203 $206 $303 reversed $288 $-1 #
coedge $-1 $203 $357 $294 $361 forward $288 $-1 #
vertex $-1 $204 $365 #
straight-curve $-1 -27.886304617858805 25.421628831369304 52.580151968226325 0 0 1 I I #
straight-curve $-1 -27.886304617858805 -5.17660690117755 46.870919249385736 0 0.60181501223851219 -0.79863551827123203 I I #
edge $-1 $359 9.9485787724584043 $207 27.886304617858805 $298 $366 forward 7 unknown #
point $-1 -27.886304617858805 25.421628831369304 10.232967857817675 #
point $-1 -27.886304617858805 22.432068972441922 10.232967857817677 #
edge $-1 $367 1 $367 0 $210 $-1 forward 7 unknown #
vertex $-1 $211 $368 #
ellipse-curve $-1 -22.761240090601547 23.128213383634375 7.6475128243236741 0 0.79863551827123203 0.60181501223851219 0.25 0 0 1 I I #
point $-1 -22.511240090601547 23.926848901905608 8.2493278365621858 #
edge $-1 $369 1 $369 0 $214 $-1 forward 7 unknown #
vertex $-1 $215 $370 #
ellipse-curve $-1 -15.073643299715656 23.128213383634375 7.6475128243236741 0 0.79863551827123203 0.60181501223851219 0.25 0 0 1 I I #
point $-1 -14.823643299715656 23.926848901905608 8.2493278365621858 #
plane-surface $-1 48.427991576891387 0 0 -1 0 0 0 0 1 forward_v I I I I #
coedge $-1 $223 $221 $225 $319 reversed $141 $-1 #
edge $-1 $236 -10.232967857817675 $321 10.232967857817675 $235 $371 forward 7 unknown #
vertex $-1 $319 $372 #
straight-curve $-1 -48.427991576891387 -25.421628831369304 0 0 0 -1 I I #
edge $-1 $317 -25.421628831369304 $321 25.421628831369304 $315 $373 forward 7 unknown #
straight-curve $-1 0 -25.421628831369304 -10.232967857817675 -1 0 0 I I #
vertex $-1 $228 $374 #
straight-curve $-1 0 25.421628831369304 -10.232967857817675 1 0 0 I I #
point $-1 48.427991576891387 25.421628831369304 -10.232967857817675 #
point $-1 48.427991576891387 -25.421628831369304 -10.232967857817675 #
straight-curve $-1 -48.427991576891387 0 10.232967857817675 0 -1 0 I I #
point $-1 -48.427991576891387 25.421628831369304 10.232967857817675 #
point $-1 -48.427991576891387 -25.421628831369304 10.232967857817675 #
straight-curve $-1 48.427991576891387 -25.421628831369304 0 0 0 -1 I I #
straight-curve $-1 48.427991576891387 25.421628831369304 0 0 0 -1 I I #
plane-surface $-1 0 -25.421628831369304 0 0 1 0 0 0 1 forward_v I I I I #
coedge $-1 $375 $248 $258 $342 reversed $160 $-1 #
coedge $-1 $248 $375 $261 $344 forward $160 $-1 #
coedge $-1 $376 $251 $249 $334 forward $246 $-1 #
edge $-1 $335 38.500273272067432 $377 48.427991576891387 $249 $378 forward 7 unknown #
vertex $-1 $334 $379 #
straight-curve $-1 -38.500273272067432 25.421628831369304 4.0193137782548876 0 0 -1 I I #
coedge $-1 $251 $376 $253 $339 forward $246 $-1 #
straight-curve $-1 -38.500273272067432 0 10.232967857817675 0 1 0 I I #
edge $-1 $380 -48.427991576891387 $255 -38.500273272067432 $253 $381 forward 7 unknown #
point $-1 -38.500273272067432 -25.421628831369304 10.232967857817673 #
straight-curve $-1 -48.427991576891387 0 5.844287255201877 0 -1 0 I I #
edge $-1 $380 -10.232967857817675 $259 -5.844287255201877 $331 $382 forward 7 unknown #
point $-1 -48.427991576891387 -25.421628831369304 5.844287255201877 #
edge $-1 $377 -10.232967857817675 $262 -5.844287255201877 $261 $383 forward 7 unknown #
point $-1 -48.427991576891387 25.421628831369304 5.844287255201877 #
edge $-1 $347 16.437853284497137 $350 24.655028958788982 $267 $384 forward 7 unknown #
vertex $-1 $281 $385 #
straight-curve $-1 -16.243594347619606 -53.780080856920478 10.232967857817673 0 -1 0 I I #
edge $-1 $350 -13.000452706834309 $278 6.5141694252637166 $277 $386 forward 7 unknown #
vertex $-1 $349 $387 #
straight-curve $-1 -16.243594347619606 -25.421628831369304 2.0157921835258321 0 0.52991925155115449 0.84804810408105047 I I #
point $-1 -16.243594347619606 -20.286967764113477 10.232967857817675 #
point $-1 3.2710277844784201 -25.421628831369304 2.0157921835258321 #
straight-curve $-1 0 -25.421628831369304 10.232967857817675 1 0 0 I I #
vertex $-1 $284 $388 #
point $-1 -4.4862832815705929 -16.088082042291539 1.8963789949439018 #
coedge $-1 $299 $298 $291 $358 forward $288 $-1 #
edge $-1 $359 42.347184110408648 $362 46.314464152919612 $357 $389 forward 7 unknown #
vertex $-1 $303 $390 #
straight-curve $-1 -9.9485787724584043 36.088010701256735 10.232967857817677 0 1 0 I I #
edge $-1 $362 0.48985792487910196 $300 18.427583770279504 $299 $391 forward 7 unknown #
vertex $-1 $361 $392 #
straight-curve $-1 -9.9485787724584043 -5.17660690117755 46.870919249385736 0 -0.60181501223851219 0.79863551827123203 I I #
point $-1 -9.9485787724584043 22.432068972441922 10.232967857817677 #
point $-1 -27.886304617858805 25.421628831369304 6.2656878153067126 #
straight-curve $-1 0 25.421628831369304 10.232967857817675 -1 0 0 I I #
vertex $-1 $306 $393 #
point $-1 -22.511240090601547 23.128213383634375 7.6475128243236741 #
vertex $-1 $310 $394 #
point $-1 -14.823643299715656 23.128213383634375 7.6475128243236741 #
straight-curve $-1 -48.427991576891387 25.421628831369304 0 0 0 -1 I I #
point $-1 -48.427991576891387 -25.421628831369304 -10.232967857817675 #
straight-curve $-1 -48.427991576891387 0 -10.232967857817675 0 1 0 I I #
point $-1 -48.427991576891387 25.421628831369304 -10.232967857817675 #
coedge $-1 $332 $331 $376 $395 reversed $160 $-1 #
coedge $-1 $337 $333 $375 $395 forward $246 $-1 #
vertex $-1 $334 $396 #
straight-curve $-1 0 25.421628831369304 10.232967857817675 -1 0 0 I I #
point $-1 -38.500273272067432 25.421628831369304 10.232967857817673 #
vertex $-1 $395 $397 #
straight-curve $-1 0 -25.421628831369304 10.232967857817675 1 0 0 I I #
straight-curve $-1 -48.427991576891387 -25.421628831369304 0 0 0 -1 I I #
straight-curve $-1 -48.427991576891387 25.421628831369304 0 0 0 -1 I I #
straight-curve $-1 -16.243594347619606 -25.421628831369304 26.670821142314814 0 0 -1 I I #
point $-1 -16.243594347619606 -25.421628831369304 10.232967857817675 #
straight-curve $-1 -3.2431416407852964 -25.421628831369304 2.0157921835258334 1 0 0 I I #
point $-1 -16.243594347619606 -25.421628831369304 2.0157921835258321 #
point $-1 -6.4862832815705929 -14.391985834129436 0.83654049184159252 #
straight-curve $-1 -9.9485787724584043 25.421628831369304 52.580151968226325 0 0 -1 I I #
point $-1 -9.9485787724584043 25.421628831369304 10.232967857817675 #
straight-curve $-1 -9.4587208475793023 25.421628831369304 6.2656878153067126 -1 0 0 I I #
point $-1 -9.9485787724584043 25.421628831369304 6.2656878153067126 #
point $-1 -22.761240090601547 22.928554504066568 7.4970590712640464 #
point $-1 -15.073643299715656 22.928554504066568 7.4970590712640464 #
edge $-1 $377 -25.421628831369304 $380 25.421628831369304 $375 $398 forward 7 unknown #
point $-1 -48.427991576891387 25.421628831369304 10.232967857817675 #
point $-1 -48.427991576891387 -25.421628831369304 10.232967857817675 #
straight-curve $-1 -48.427991576891387 0 10.232967857817675 0 -1 0 I I #
End-of-ACIS-data 