500 0 14 0           
7 Unknown 11 ACIS 5.0 NT 24 Fri Mar 26 03:12:18 1999 
-1 9.9999999999999995e-007 1e-010 
body $-1 $14 $-1 $15 #
body $-1 $16 $-1 $17 #
body $-1 $18 $-1 $19 #
body $-1 $20 $-1 $21 #
body $-1 $22 $-1 $23 #
body $-1 $24 $-1 $25 #
body $-1 $26 $-1 $27 #
body $-1 $28 $-1 $29 #
body $-1 $30 $-1 $31 #
body $-1 $32 $-1 $33 #
body $-1 $34 $-1 $35 #
body $-1 $36 $-1 $37 #
body $-1 $38 $-1 $39 #
body $-1 $40 $-1 $41 #
lump $-1 $-1 $42 $0 #
transform $-1 1 0 0 0 1 0 0 0 1 57.882625812555318 39.551743886932385 16.691350127960746 1 rotate no_reflect no_shear #
lump $-1 $-1 $43 $1 #
transform $-1 1 0 0 0 1 0 0 0 1 57.882625812555318 39.551743886932385 16.691350127960746 1 rotate no_reflect no_shear #
lump $-1 $-1 $44 $2 #
transform $-1 1 0 0 0 1 0 0 0 1 57.882625812555318 39.551743886932385 16.691350127960746 1 rotate no_reflect no_shear #
lump $-1 $-1 $45 $3 #
transform $-1 1 0 0 0 1 0 0 0 1 57.882625812555318 39.551743886932385 16.691350127960746 1 rotate no_reflect no_shear #
lump $-1 $-1 $46 $4 #
transform $-1 1 0 0 0 1 0 0 0 1 57.882625812555318 39.551743886932385 16.691350127960746 1 rotate no_reflect no_shear #
lump $-1 $-1 $47 $5 #
transform $-1 1 0 0 0 1 0 0 0 1 57.882625812555318 39.551743886932385 16.691350127960746 1 rotate no_reflect no_shear #
lump $-1 $-1 $48 $6 #
transform $-1 1 0 0 0 1 0 0 0 1 57.882625812555318 39.551743886932385 16.691350127960746 1 rotate no_reflect no_shear #
lump $-1 $-1 $49 $7 #
transform $-1 1 0 0 0 1 0 0 0 1 57.882625812555318 39.551743886932385 16.691350127960746 1 rotate no_reflect no_shear #
lump $-1 $-1 $50 $8 #
transform $-1 1 0 0 0 1 0 0 0 1 57.882625812555318 39.551743886932385 16.691350127960746 1 rotate no_reflect no_shear #
lump $-1 $-1 $51 $9 #
transform $-1 1 0 0 0 1 0 0 0 1 57.882625812555318 39.551743886932385 16.691350127960746 1 rotate no_reflect no_shear #
lump $-1 $-1 $52 $10 #
transform $-1 1 0 0 0 1 0 0 0 1 57.882625812555318 39.551743886932385 16.691350127960746 1 rotate no_reflect no_shear #
lump $-1 $-1 $53 $11 #
transform $-1 1 0 0 0 1 0 0 0 1 57.882625812555318 39.551743886932385 16.691350127960746 1 rotate no_reflect no_shear #
lump $-1 $-1 $54 $12 #
transform $-1 1 0 0 0 1 0 0 0 1 57.882625812555318 39.551743886932385 16.691350127960746 1 rotate no_reflect no_shear #
lump $-1 $-1 $55 $13 #
transform $-1 1 0 0 0 1 0 0 0 1 57.882625812555318 39.551743886932385 16.691350127960746 1 rotate no_reflect no_shear #
shell $-1 $-1 $-1 $56 $-1 $14 #
shell $-1 $-1 $-1 $57 $-1 $16 #
shell $-1 $-1 $-1 $58 $-1 $18 #
shell $-1 $-1 $-1 $59 $-1 $20 #
shell $-1 $-1 $-1 $60 $-1 $22 #
shell $-1 $-1 $-1 $61 $-1 $24 #
shell $-1 $-1 $-1 $62 $-1 $26 #
shell $-1 $-1 $-1 $63 $-1 $28 #
shell $-1 $-1 $-1 $64 $-1 $30 #
shell $-1 $-1 $-1 $65 $-1 $32 #
shell $-1 $-1 $-1 $66 $-1 $34 #
shell $-1 $-1 $-1 $67 $-1 $36 #
shell $-1 $-1 $-1 $68 $-1 $38 #
shell $-1 $-1 $-1 $69 $-1 $40 #
face $-1 $70 $71 $42 $-1 $72 forward single #
face $-1 $73 $74 $43 $-1 $75 reversed single #
face $-1 $76 $77 $44 $-1 $78 reversed single #
face $-1 $79 $80 $45 $-1 $81 forward single #
face $-1 $82 $83 $46 $-1 $84 forward single #
face $-1 $85 $86 $47 $-1 $87 reversed single #
face $-1 $88 $89 $48 $-1 $90 forward single #
face $-1 $91 $92 $49 $-1 $93 forward single #
face $-1 $94 $95 $50 $-1 $96 reversed single #
face $-1 $97 $98 $51 $-1 $99 forward single #
face $-1 $100 $101 $52 $-1 $102 forward single #
face $-1 $103 $104 $53 $-1 $105 reversed single #
face $-1 $106 $107 $54 $-1 $108 forward single #
face $-1 $109 $110 $55 $-1 $111 forward single #
face $-1 $112 $113 $42 $-1 $114 reversed single #
loop $-1 $-1 $115 $56 #
plane-surface $-1 0 0 16.691350127960746 0 0 1 1 0 0 forward_v I I I I #
face $-1 $116 $117 $43 $-1 $118 reversed single #
loop $-1 $-1 $119 $57 #
plane-surface $-1 -48.431517477320746 -32.380173651283471 0 0 -1 0 0 0 -1 forward_v I I I I #
face $-1 $120 $121 $44 $-1 $122 reversed single #
loop $-1 $-1 $123 $58 #
plane-surface $-1 -14.764650403425804 -121.41013928658137 92.96122731463025 -1 0 0 0 -0.70710678939079041 0.70710677298230451 forward_v I I I I #
face $-1 $124 $125 $45 $-1 $126 forward single #
loop $-1 $127 $128 $59 #
cone-surface $-1 -22.985185168049838 -35.693059927967191 12.832666128854617 0 0.70710678939079041 -0.70710677298230451 1 0 0 1 I I 0 1 1 forward I I I I #
face $-1 $129 $130 $46 $-1 $131 forward single #
loop $-1 $132 $133 $60 #
cone-surface $-1 -18.052864309275414 -35.693059927967191 12.832666128854617 0 0.70710678939079041 -0.70710677298230451 1 0 0 1 I I 0 1 1 forward I I I I #
face $-1 $134 $135 $47 $-1 $136 reversed single #
loop $-1 $-1 $137 $61 #
plane-surface $-1 5.2154383125056611 -121.41013928658137 92.96122731463025 -1 0 0 0 -0.70710678939079041 0.70710677298230451 forward_v I I I I #
face $-1 $138 $139 $48 $-1 $140 forward single #
loop $-1 $141 $142 $62 #
cone-surface $-1 -3.0050964521183658 -35.693059927967191 12.832666128854617 0 0.70710678939079041 -0.70710677298230451 1 0 0 1 I I 0 1 1 forward I I I I #
face $-1 $143 $144 $49 $-1 $145 forward single #
loop $-1 $146 $147 $63 #
cone-surface $-1 1.9272244066560518 -35.693059927967191 12.832666128854617 0 0.70710678939079041 -0.70710677298230451 1 0 0 1 I I 0 1 1 forward I I I I #
face $-1 $148 $149 $50 $-1 $150 reversed single #
loop $-1 $-1 $151 $64 #
plane-surface $-1 25.195527028437134 -121.41013928658137 92.96122731463025 -1 0 0 0 -0.70710678939079041 0.70710677298230451 forward_v I I I I #
face $-1 $152 $153 $51 $-1 $154 forward single #
loop $-1 $155 $156 $65 #
cone-surface $-1 16.974992263813107 -35.693059927967191 12.832666128854617 0 0.70710678939079041 -0.70710677298230451 1 0 0 1 I I 0 1 1 forward I I I I #
face $-1 $157 $158 $52 $-1 $159 forward single #
loop $-1 $160 $161 $66 #
cone-surface $-1 21.907313122587524 -35.693059927967191 12.832666128854617 0 0.70710678939079041 -0.70710677298230451 1 0 0 1 I I 0 1 1 forward I I I I #
face $-1 $162 $163 $53 $-1 $164 reversed single #
loop $-1 $-1 $165 $67 #
plane-surface $-1 45.175615744368606 -121.41013928658137 92.96122731463025 -1 0 0 0 -0.70710678939079041 0.70710677298230451 forward_v I I I I #
face $-1 $166 $167 $54 $-1 $168 forward single #
loop $-1 $169 $170 $68 #
cone-surface $-1 36.955080979744579 -35.693059927967191 12.832666128854617 0 0.70710678939079041 -0.70710677298230451 1 0 0 1 I I 0 1 1 forward I I I I #
face $-1 $171 $172 $55 $-1 $173 forward single #
loop $-1 $174 $175 $69 #
cone-surface $-1 41.887401838518997 -35.693059927967191 12.832666128854617 0 0.70710678939079041 -0.70710677298230451 1 0 0 1 I I 0 1 1 forward I I I I #
face $-1 $176 $177 $42 $-1 $178 reversed single #
loop $-1 $-1 $179 $70 #
plane-surface $-1 0 0 -16.691350127960746 0 0 1 1 0 0 forward_v I I I I #
coedge $-1 $180 $181 $182 $183 forward $71 $-1 #
face $-1 $184 $185 $43 $-1 $186 forward single #
loop $-1 $-1 $187 $73 #
plane-surface $-1 -38.980409142086174 -35.965958769107928 0 -1 0 0 0 0 1 forward_v I I I I #
coedge $-1 $188 $189 $190 $191 forward $74 $-1 #
face $-1 $192 $193 $44 $-1 $194 reversed single #
loop $-1 $-1 $195 $76 #
plane-surface $-1 -20.51902473866263 -39.5517438869324 11.102833814513772 0 -0.70710678939079041 0.70710677298230451 1 0 0 forward_v I I I I #
coedge $-1 $196 $197 $198 $199 reversed $77 $-1 #
face $-1 $-1 $200 $45 $-1 $201 forward single #
loop $-1 $202 $203 $79 #
cone-surface $-1 -22.985185168049838 -34.275080666189041 11.414686899980818 0 0.70710678939079041 -0.70710677298230451 0.5 0 0 1 I I -0.70710678118654746 0.70710678118654746 0.5 forward I I I I #
loop $-1 $-1 $204 $59 #
coedge $-1 $128 $128 $205 $206 reversed $80 $-1 #
face $-1 $-1 $207 $46 $-1 $208 forward single #
loop $-1 $209 $210 $82 #
cone-surface $-1 -18.052864309275414 -34.275080666189041 11.414686899980818 0 0.70710678939079041 -0.70710677298230451 0.5 0 0 1 I I -0.70710678118654746 0.70710678118654746 0.5 forward I I I I #
loop $-1 $-1 $211 $60 #
coedge $-1 $133 $133 $212 $213 reversed $83 $-1 #
face $-1 $214 $215 $47 $-1 $216 reversed single #
loop $-1 $-1 $217 $85 #
plane-surface $-1 -0.53893602273116414 -39.5517438869324 11.102833814513772 0 -0.70710678939079041 0.70710677298230451 1 0 0 forward_v I I I I #
coedge $-1 $218 $219 $220 $221 reversed $86 $-1 #
face $-1 $-1 $222 $48 $-1 $223 forward single #
loop $-1 $224 $225 $88 #
cone-surface $-1 -3.0050964521183658 -34.275080666189041 11.414686899980818 0 0.70710678939079041 -0.70710677298230451 0.5 0 0 1 I I -0.70710678118654746 0.70710678118654746 0.5 forward I I I I #
loop $-1 $-1 $226 $62 #
coedge $-1 $142 $142 $227 $228 reversed $89 $-1 #
face $-1 $-1 $229 $49 $-1 $230 forward single #
loop $-1 $231 $232 $91 #
cone-surface $-1 1.9272244066560518 -34.275080666189041 11.414686899980818 0 0.70710678939079041 -0.70710677298230451 0.5 0 0 1 I I -0.70710678118654746 0.70710678118654746 0.5 forward I I I I #
loop $-1 $-1 $233 $63 #
coedge $-1 $147 $147 $234 $235 reversed $92 $-1 #
face $-1 $236 $237 $50 $-1 $238 reversed single #
loop $-1 $-1 $239 $94 #
plane-surface $-1 19.441152693200308 -39.5517438869324 11.102833814513772 0 -0.70710678939079041 0.70710677298230451 1 0 0 forward_v I I I I #
coedge $-1 $240 $241 $242 $243 reversed $95 $-1 #
face $-1 $-1 $244 $51 $-1 $245 forward single #
loop $-1 $246 $247 $97 #
cone-surface $-1 16.974992263813107 -34.275080666189041 11.414686899980818 0 0.70710678939079041 -0.70710677298230451 0.5 0 0 1 I I -0.70710678118654746 0.70710678118654746 0.5 forward I I I I #
loop $-1 $-1 $248 $65 #
coedge $-1 $156 $156 $249 $250 reversed $98 $-1 #
face $-1 $-1 $251 $52 $-1 $252 forward single #
loop $-1 $253 $254 $100 #
cone-surface $-1 21.907313122587524 -34.275080666189041 11.414686899980818 0 0.70710678939079041 -0.70710677298230451 0.5 0 0 1 I I -0.70710678118654746 0.70710678118654746 0.5 forward I I I I #
loop $-1 $-1 $255 $66 #
coedge $-1 $161 $161 $256 $257 reversed $101 $-1 #
face $-1 $258 $259 $53 $-1 $260 reversed single #
loop $-1 $-1 $261 $103 #
plane-surface $-1 39.421241409131781 -39.5517438869324 11.102833814513772 0 -0.70710678939079041 0.70710677298230451 1 0 0 forward_v I I I I #
coedge $-1 $262 $263 $264 $265 reversed $104 $-1 #
face $-1 $-1 $266 $54 $-1 $267 forward single #
loop $-1 $268 $269 $106 #
cone-surface $-1 36.955080979744579 -34.275080666189041 11.414686899980818 0 0.70710678939079041 -0.70710677298230451 0.5 0 0 1 I I -0.70710678118654746 0.70710678118654746 0.5 forward I I I I #
loop $-1 $-1 $270 $68 #
coedge $-1 $170 $170 $271 $272 reversed $107 $-1 #
face $-1 $-1 $273 $55 $-1 $274 forward single #
loop $-1 $275 $276 $109 #
cone-surface $-1 41.887401838518997 -34.275080666189041 11.414686899980818 0 0.70710678939079041 -0.70710677298230451 0.5 0 0 1 I I -0.70710678118654746 0.70710678118654746 0.5 forward I I I I #
loop $-1 $-1 $277 $69 #
coedge $-1 $175 $175 $278 $279 reversed $110 $-1 #
face $-1 $280 $281 $42 $-1 $282 reversed single #
loop $-1 $-1 $283 $112 #
plane-surface $-1 0 -39.551743886932385 0 0 1 0 0 0 1 forward_v I I I I #
coedge $-1 $284 $285 $286 $287 forward $113 $-1 #
coedge $-1 $288 $115 $289 $290 forward $71 $-1 #
coedge $-1 $115 $288 $291 $292 forward $71 $-1 #
coedge $-1 $293 $294 $115 $183 reversed $295 $-1 #
edge $-1 $296 -39.551743886932385 $297 39.551743886932385 $182 $298 forward 7 unknown #
face $-1 $299 $300 $43 $-1 $301 reversed single #
loop $-1 $-1 $302 $116 #
plane-surface $-1 0 0 16.691350127960746 0 0 1 1 0 0 forward_v I I I I #
coedge $-1 $303 $304 $305 $306 reversed $117 $-1 #
coedge $-1 $307 $119 $308 $309 reversed $74 $-1 #
coedge $-1 $119 $307 $310 $311 reversed $74 $-1 #
coedge $-1 $304 $303 $119 $191 reversed $117 $-1 #
edge $-1 $312 -16.691350127960746 $313 16.691350127960746 $190 $314 forward 7 unknown #
face $-1 $315 $316 $44 $-1 $317 forward single #
loop $-1 $-1 $318 $120 #
plane-surface $-1 -26.273399073899455 -121.41013928658137 92.96122731463025 1 0 0 0 0.70710678939079041 -0.70710677298230451 forward_v I I I I #
coedge $-1 $319 $320 $321 $322 reversed $121 $-1 #
coedge $-1 $197 $123 $323 $324 reversed $77 $-1 #
coedge $-1 $123 $196 $319 $325 reversed $77 $-1 #
coedge $-1 $321 $326 $123 $199 forward $316 $-1 #
edge $-1 $327 21.153325756358299 $328 26.741841940123159 $198 $329 forward 7 unknown #
loop $-1 $-1 $205 $124 #
plane-surface $-1 -20.51902473866263 -39.5517438869324 11.102833814513772 0 -0.70710678939079041 0.70710677298230451 1 0 0 forward_v I I I I #
loop $-1 $-1 $330 $79 #
coedge $-1 $203 $203 $204 $331 reversed $125 $-1 #
coedge $-1 $204 $204 $203 $331 forward $127 $-1 #
coedge $-1 $205 $205 $128 $206 forward $200 $-1 #
edge $-1 $332 -3.7682219445620488e-015 $332 6.2831853071795969 $205 $333 forward 7 unknown #
loop $-1 $-1 $212 $129 #
plane-surface $-1 -20.51902473866263 -39.5517438869324 11.102833814513772 0 -0.70710678939079041 0.70710677298230451 1 0 0 forward_v I I I I #
loop $-1 $-1 $334 $82 #
coedge $-1 $210 $210 $211 $335 reversed $130 $-1 #
coedge $-1 $211 $211 $210 $335 forward $132 $-1 #
coedge $-1 $212 $212 $133 $213 forward $207 $-1 #
edge $-1 $336 -3.7682219445620488e-015 $336 6.2831853071795969 $212 $337 forward 7 unknown #
face $-1 $338 $339 $47 $-1 $340 reversed single #
loop $-1 $-1 $341 $134 #
plane-surface $-1 -6.2933103579679894 -121.41013928658137 92.96122731463025 1 0 0 0 0.70710678939079041 -0.70710677298230451 forward_v I I I I #
coedge $-1 $342 $343 $344 $345 reversed $135 $-1 #
coedge $-1 $219 $137 $346 $347 reversed $86 $-1 #
coedge $-1 $137 $218 $342 $348 reversed $86 $-1 #
coedge $-1 $344 $349 $137 $221 forward $350 $-1 #
edge $-1 $351 21.153325756358299 $352 26.741841940123159 $220 $353 forward 7 unknown #
loop $-1 $-1 $227 $138 #
plane-surface $-1 -0.53893602273116414 -39.5517438869324 11.102833814513772 0 -0.70710678939079041 0.70710677298230451 1 0 0 forward_v I I I I #
loop $-1 $-1 $354 $88 #
coedge $-1 $225 $225 $226 $355 reversed $139 $-1 #
coedge $-1 $226 $226 $225 $355 forward $141 $-1 #
coedge $-1 $227 $227 $142 $228 forward $222 $-1 #
edge $-1 $356 -3.7682219445620488e-015 $356 6.2831853071795969 $227 $357 forward 7 unknown #
loop $-1 $-1 $234 $143 #
plane-surface $-1 -0.53893602273116414 -39.5517438869324 11.102833814513772 0 -0.70710678939079041 0.70710677298230451 1 0 0 forward_v I I I I #
loop $-1 $-1 $358 $91 #
coedge $-1 $232 $232 $233 $359 reversed $144 $-1 #
coedge $-1 $233 $233 $232 $359 forward $146 $-1 #
coedge $-1 $234 $234 $147 $235 forward $229 $-1 #
edge $-1 $360 -3.7682219445620488e-015 $360 6.2831853071795969 $234 $361 forward 7 unknown #
face $-1 $362 $363 $50 $-1 $364 reversed single #
loop $-1 $-1 $365 $148 #
plane-surface $-1 13.686778357963483 -121.41013928658137 92.96122731463025 1 0 0 0 0.70710678939079041 -0.70710677298230451 forward_v I I I I #
coedge $-1 $366 $367 $368 $369 reversed $149 $-1 #
coedge $-1 $241 $151 $370 $371 reversed $95 $-1 #
coedge $-1 $151 $240 $366 $372 reversed $95 $-1 #
coedge $-1 $368 $373 $151 $243 forward $374 $-1 #
edge $-1 $375 21.153325756358299 $376 26.741841940123159 $242 $377 forward 7 unknown #
loop $-1 $-1 $249 $152 #
plane-surface $-1 19.441152693200308 -39.5517438869324 11.102833814513772 0 -0.70710678939079041 0.70710677298230451 1 0 0 forward_v I I I I #
loop $-1 $-1 $378 $97 #
coedge $-1 $247 $247 $248 $379 reversed $153 $-1 #
coedge $-1 $248 $248 $247 $379 forward $155 $-1 #
coedge $-1 $249 $249 $156 $250 forward $244 $-1 #
edge $-1 $380 -3.7682219445620488e-015 $380 6.2831853071795969 $249 $381 forward 7 unknown #
loop $-1 $-1 $256 $157 #
plane-surface $-1 19.441152693200308 -39.5517438869324 11.102833814513772 0 -0.70710678939079041 0.70710677298230451 1 0 0 forward_v I I I I #
loop $-1 $-1 $382 $100 #
coedge $-1 $254 $254 $255 $383 reversed $158 $-1 #
coedge $-1 $255 $255 $254 $383 forward $160 $-1 #
coedge $-1 $256 $256 $161 $257 forward $251 $-1 #
edge $-1 $384 -3.7682219445620488e-015 $384 6.2831853071795969 $256 $385 forward 7 unknown #
face $-1 $386 $387 $53 $-1 $388 reversed single #
loop $-1 $-1 $389 $162 #
plane-surface $-1 33.666867073894956 -121.41013928658137 92.96122731463025 1 0 0 0 0.70710678939079041 -0.70710677298230451 forward_v I I I I #
coedge $-1 $390 $391 $392 $393 reversed $163 $-1 #
coedge $-1 $263 $165 $394 $395 reversed $104 $-1 #
coedge $-1 $165 $262 $390 $396 reversed $104 $-1 #
coedge $-1 $392 $397 $165 $265 forward $398 $-1 #
edge $-1 $399 21.153325756358299 $400 26.741841940123159 $264 $401 forward 7 unknown #
loop $-1 $-1 $271 $166 #
plane-surface $-1 39.421241409131781 -39.5517438869324 11.102833814513772 0 -0.70710678939079041 0.70710677298230451 1 0 0 forward_v I I I I #
loop $-1 $-1 $402 $106 #
coedge $-1 $269 $269 $270 $403 reversed $167 $-1 #
coedge $-1 $270 $270 $269 $403 forward $169 $-1 #
coedge $-1 $271 $271 $170 $272 forward $266 $-1 #
edge $-1 $404 -3.7682219445620488e-015 $404 6.2831853071795969 $271 $405 forward 7 unknown #
loop $-1 $-1 $278 $171 #
plane-surface $-1 39.421241409131781 -39.5517438869324 11.102833814513772 0 -0.70710678939079041 0.70710677298230451 1 0 0 forward_v I I I I #
loop $-1 $-1 $406 $109 #
coedge $-1 $276 $276 $277 $407 reversed $172 $-1 #
coedge $-1 $277 $277 $276 $407 forward $174 $-1 #
coedge $-1 $278 $278 $175 $279 forward $273 $-1 #
edge $-1 $408 -3.7682219445620488e-015 $408 6.2831853071795969 $278 $409 forward 7 unknown #
face $-1 $410 $411 $42 $-1 $412 reversed single #
loop $-1 $-1 $413 $176 #
plane-surface $-1 -57.882625812555318 0 0 1 0 0 0 0 -1 forward_v I I I I #
coedge $-1 $414 $291 $415 $416 forward $177 $-1 #
coedge $-1 $417 $179 $414 $418 forward $113 $-1 #
coedge $-1 $179 $417 $419 $420 forward $113 $-1 #
coedge $-1 $294 $293 $179 $287 reversed $295 $-1 #
edge $-1 $421 -39.551743886932385 $422 39.551743886932385 $286 $423 forward 7 unknown #
coedge $-1 $181 $180 $424 $425 forward $71 $-1 #
coedge $-1 $426 $427 $180 $290 reversed $411 $-1 #
edge $-1 $297 -57.882625812555318 $428 57.882625812555318 $289 $429 forward 7 unknown #
coedge $-1 $283 $430 $181 $292 reversed $177 $-1 #
edge $-1 $431 -57.882625812555318 $296 57.882625812555318 $291 $432 forward 7 unknown #
coedge $-1 $286 $182 $430 $433 forward $295 $-1 #
coedge $-1 $182 $286 $426 $434 reversed $295 $-1 #
loop $-1 $-1 $293 $410 #
vertex $-1 $183 $435 #
vertex $-1 $183 $436 #
straight-curve $-1 57.882625812555318 0 16.691350127960746 0 1 0 I I #
face $-1 $437 $438 $43 $-1 $439 reversed single #
loop $-1 $-1 $440 $184 #
plane-surface $-1 -57.882625812555318 0 0 1 0 0 0 0 -1 forward_v I I I I #
coedge $-1 $310 $441 $304 $442 forward $185 $-1 #
coedge $-1 $190 $187 $443 $444 reversed $117 $-1 #
coedge $-1 $187 $190 $302 $442 reversed $117 $-1 #
coedge $-1 $445 $446 $187 $306 forward $447 $-1 #
edge $-1 $448 -16.691350127960746 $449 16.691350127960746 $305 $450 forward 7 unknown #
coedge $-1 $189 $188 $440 $451 reversed $74 $-1 #
coedge $-1 $443 $452 $188 $309 forward $438 $-1 #
edge $-1 $453 -33.666867073894949 $313 -14.764650403425801 $308 $454 forward 7 unknown #
coedge $-1 $455 $302 $189 $311 forward $185 $-1 #
edge $-1 $312 14.764650403425801 $456 33.666867073894949 $310 $457 forward 7 unknown #
vertex $-1 $311 $458 #
vertex $-1 $309 $459 #
straight-curve $-1 -38.980409142086174 -32.380173651283471 0 0 0 -1 I I #
face $-1 $-1 $460 $44 $-1 $461 reversed single #
loop $-1 $-1 $198 $192 #
plane-surface $-1 0 0 16.691350127960746 0 0 1 1 0 0 forward_v I I I I #
coedge $-1 $462 $463 $464 $465 reversed $193 $-1 #
coedge $-1 $466 $195 $197 $325 forward $121 $-1 #
coedge $-1 $195 $466 $462 $467 forward $121 $-1 #
coedge $-1 $464 $198 $195 $322 forward $316 $-1 #
edge $-1 $328 4.5051380340944895 $468 16.01388670456814 $321 $469 forward 7 unknown #
coedge $-1 $470 $471 $196 $324 forward $460 $-1 #
edge $-1 $472 -35.377779842801338 $327 -29.789263529354379 $323 $473 forward 7 unknown #
edge $-1 $328 -7.9033554723209116 $472 -2.0097183471152325e-014 $197 $474 forward 7 unknown #
coedge $-1 $198 $464 $470 $475 forward $316 $-1 #
vertex $-1 $324 $476 #
vertex $-1 $199 $477 #
straight-curve $-1 -14.764650403425804 -60.705069643290685 16.691350127960746 0 1 0 I I #
coedge $-1 $330 $330 $-1 $478 reversed $202 $-1 #
edge $-1 $479 0 $479 6.2831853071796004 $203 $480 forward 7 unknown #
vertex $-1 $206 $481 #
ellipse-curve $-1 -22.985185168049838 -36.757485795049952 13.897091971237268 0 -0.70710678939079041 0.70710677298230451 1 0 0 1 I I #
coedge $-1 $334 $334 $-1 $482 reversed $209 $-1 #
edge $-1 $483 0 $483 6.2831853071796004 $210 $484 forward 7 unknown #
vertex $-1 $213 $485 #
ellipse-curve $-1 -18.052864309275414 -36.757485795049952 13.897091971237268 0 -0.70710678939079041 0.70710677298230451 1 0 0 1 I I #
face $-1 $-1 $350 $47 $-1 $486 forward single #
loop $-1 $-1 $487 $214 #
plane-surface $-1 0 -39.551743886932385 0 0 1 0 0 0 1 forward_v I I I I #
coedge $-1 $488 $489 $490 $491 reversed $215 $-1 #
coedge $-1 $492 $217 $219 $348 forward $135 $-1 #
coedge $-1 $217 $492 $488 $493 forward $135 $-1 #
coedge $-1 $490 $220 $217 $345 forward $350 $-1 #
edge $-1 $352 -5.4849063238712432 $494 6.0238423466024074 $344 $495 forward 7 unknown #
coedge $-1 $496 $497 $218 $347 forward $339 $-1 #
edge $-1 $498 -35.377779842801338 $351 -29.789263529354379 $346 $499 forward 7 unknown #
edge $-1 $352 -7.9033554723209116 $498 -2.0097183471152325e-014 $219 $500 forward 7 unknown #
coedge $-1 $220 $490 $496 $501 forward $350 $-1 #
loop $-1 $-1 $490 $338 #
vertex $-1 $347 $502 #
vertex $-1 $221 $503 #
straight-curve $-1 5.2154383125056611 -60.705069643290685 16.691350127960746 0 1 0 I I #
coedge $-1 $354 $354 $-1 $504 reversed $224 $-1 #
edge $-1 $505 0 $505 6.2831853071796004 $225 $506 forward 7 unknown #
vertex $-1 $228 $507 #
ellipse-curve $-1 -3.0050964521183658 -36.757485795049952 13.897091971237268 0 -0.70710678939079041 0.70710677298230451 1 0 0 1 I I #
coedge $-1 $358 $358 $-1 $508 reversed $231 $-1 #
edge $-1 $509 0 $509 6.2831853071796004 $232 $510 forward 7 unknown #
vertex $-1 $235 $511 #
ellipse-curve $-1 1.9272244066560518 -36.757485795049952 13.897091971237268 0 -0.70710678939079041 0.70710677298230451 1 0 0 1 I I #
face $-1 $-1 $374 $50 $-1 $512 forward single #
loop $-1 $-1 $513 $236 #
plane-surface $-1 0 -39.551743886932385 0 0 1 0 0 0 1 forward_v I I I I #
coedge $-1 $514 $515 $516 $517 reversed $237 $-1 #
coedge $-1 $518 $239 $241 $372 forward $149 $-1 #
coedge $-1 $239 $518 $514 $519 forward $149 $-1 #
coedge $-1 $516 $242 $239 $369 forward $374 $-1 #
edge $-1 $376 -15.47495068183698 $520 -3.9662020113633289 $368 $521 forward 7 unknown #
coedge $-1 $522 $523 $240 $371 forward $363 $-1 #
edge $-1 $524 -35.377779842801338 $375 -29.789263529354379 $370 $525 forward 7 unknown #
edge $-1 $376 -7.9033554723209116 $524 -2.0097183471152325e-014 $241 $526 forward 7 unknown #
coedge $-1 $242 $516 $522 $527 forward $374 $-1 #
loop $-1 $-1 $516 $362 #
vertex $-1 $371 $528 #
vertex $-1 $243 $529 #
straight-curve $-1 25.195527028437134 -60.705069643290685 16.691350127960746 0 1 0 I I #
coedge $-1 $378 $378 $-1 $530 reversed $246 $-1 #
edge $-1 $531 0 $531 6.2831853071796004 $247 $532 forward 7 unknown #
vertex $-1 $250 $533 #
ellipse-curve $-1 16.974992263813107 -36.757485795049952 13.897091971237268 0 -0.70710678939079041 0.70710677298230451 1 0 0 1 I I #
coedge $-1 $382 $382 $-1 $534 reversed $253 $-1 #
edge $-1 $535 0 $535 6.2831853071796004 $254 $536 forward 7 unknown #
vertex $-1 $257 $537 #
ellipse-curve $-1 21.907313122587524 -36.757485795049952 13.897091971237268 0 -0.70710678939079041 0.70710677298230451 1 0 0 1 I I #
face $-1 $-1 $398 $53 $-1 $538 forward single #
loop $-1 $-1 $539 $258 #
plane-surface $-1 0 -39.551743886932385 0 0 1 0 0 0 1 forward_v I I I I #
coedge $-1 $540 $541 $542 $543 reversed $259 $-1 #
coedge $-1 $544 $261 $263 $396 forward $163 $-1 #
coedge $-1 $261 $544 $540 $545 forward $163 $-1 #
coedge $-1 $542 $264 $261 $393 forward $398 $-1 #
edge $-1 $400 -25.464995039802716 $546 -13.956246369329065 $392 $547 forward 7 unknown #
coedge $-1 $548 $549 $262 $395 forward $387 $-1 #
edge $-1 $550 -35.377779842801338 $399 -29.789263529354379 $394 $551 forward 7 unknown #
edge $-1 $400 -7.9033554723209116 $550 -2.0097183471152325e-014 $263 $552 forward 7 unknown #
coedge $-1 $264 $542 $548 $553 forward $398 $-1 #
loop $-1 $-1 $542 $386 #
vertex $-1 $395 $554 #
vertex $-1 $265 $555 #
straight-curve $-1 45.175615744368606 -60.705069643290685 16.691350127960746 0 1 0 I I #
coedge $-1 $402 $402 $-1 $556 reversed $268 $-1 #
edge $-1 $557 0 $557 6.2831853071796004 $269 $558 forward 7 unknown #
vertex $-1 $272 $559 #
ellipse-curve $-1 36.955080979744579 -36.757485795049952 13.897091971237268 0 -0.70710678939079041 0.70710677298230451 1 0 0 1 I I #
coedge $-1 $406 $406 $-1 $560 reversed $275 $-1 #
edge $-1 $561 0 $561 6.2831853071796004 $276 $562 forward 7 unknown #
vertex $-1 $279 $563 #
ellipse-curve $-1 41.887401838518997 -36.757485795049952 13.897091971237268 0 -0.70710678939079041 0.70710677298230451 1 0 0 1 I I #
face $-1 $-1 $295 $42 $-1 $564 reversed single #
loop $-1 $-1 $426 $280 #
plane-surface $-1 0 39.551743886932385 0 0 -1 0 0 0 -1 forward_v I I I I #
coedge $-1 $565 $424 $427 $566 forward $281 $-1 #
coedge $-1 $430 $283 $284 $418 reversed $177 $-1 #
coedge $-1 $424 $565 $283 $416 reversed $281 $-1 #
edge $-1 $431 -16.691350127960746 $567 16.691350127960746 $415 $568 forward 7 unknown #
coedge $-1 $285 $284 $565 $569 forward $113 $-1 #
edge $-1 $422 -57.882625812555318 $567 57.882625812555318 $414 $570 forward 7 unknown #
coedge $-1 $427 $426 $285 $420 reversed $411 $-1 #
edge $-1 $571 -57.882625812555318 $421 57.882625812555318 $419 $572 forward 7 unknown #
vertex $-1 $287 $573 #
vertex $-1 $433 $574 #
straight-curve $-1 57.882625812555318 0 -16.691350127960746 0 -1 0 I I #
coedge $-1 $413 $415 $288 $425 reversed $281 $-1 #
edge $-1 $428 -39.551743886932385 $431 39.551743886932385 $424 $575 forward 7 unknown #
coedge $-1 $419 $289 $294 $434 forward $411 $-1 #
coedge $-1 $289 $419 $413 $566 reversed $411 $-1 #
vertex $-1 $290 $576 #
straight-curve $-1 0 39.551743886932385 16.691350127960746 -1 0 0 I I #
coedge $-1 $291 $414 $293 $433 reversed $177 $-1 #
vertex $-1 $425 $577 #
straight-curve $-1 0 -39.551743886932385 16.691350127960746 1 0 0 I I #
edge $-1 $296 -16.691350127960746 $422 16.691350127960746 $293 $578 forward 7 unknown #
edge $-1 $297 -16.691350127960746 $421 16.691350127960746 $294 $579 forward 7 unknown #
point $-1 57.882625812555318 -39.551743886932385 16.691350127960746 #
point $-1 57.882625812555318 39.551743886932385 16.691350127960746 #
face $-1 $-1 $447 $43 $-1 $580 reversed single #
loop $-1 $-1 $443 $299 #
plane-surface $-1 0 0 -16.691350127960746 0 0 1 1 0 0 forward_v I I I I #
coedge $-1 $581 $582 $307 $451 forward $300 $-1 #
coedge $-1 $302 $455 $445 $583 forward $185 $-1 #
edge $-1 $449 -21.568764502378421 $312 -14.397194266729507 $302 $584 forward 7 unknown #
coedge $-1 $585 $308 $303 $444 forward $438 $-1 #
edge $-1 $313 14.397194266729507 $448 21.568764502378421 $443 $586 forward 7 unknown #
coedge $-1 $587 $305 $441 $583 reversed $447 $-1 #
coedge $-1 $305 $587 $585 $588 reversed $447 $-1 #
loop $-1 $-1 $305 $437 #
vertex $-1 $588 $589 #
vertex $-1 $306 $590 #
straight-curve $-1 -38.980409142086174 -39.551743886932385 0 0 0 1 I I #
edge $-1 $456 -16.691350127960746 $453 16.691350127960746 $440 $591 forward 7 unknown #
coedge $-1 $308 $585 $581 $592 forward $438 $-1 #
vertex $-1 $309 $593 #
straight-curve $-1 -24.215758738660373 -32.380173651283471 -16.691350127960746 1 0 0 I I #
coedge $-1 $441 $310 $582 $594 forward $185 $-1 #
vertex $-1 $594 $595 #
straight-curve $-1 -24.215758738660373 -32.380173651283471 16.691350127960746 -1 0 0 I I #
point $-1 -38.980409142086174 -32.380173651283471 16.691350127960746 #
point $-1 -38.980409142086174 -32.380173651283471 -16.691350127960746 #
loop $-1 $-1 $323 $315 #
plane-surface $-1 0 -39.551743886932385 0 0 1 0 0 0 1 forward_v I I I I #
coedge $-1 $463 $318 $320 $467 reversed $193 $-1 #
coedge $-1 $318 $462 $596 $597 reversed $193 $-1 #
coedge $-1 $326 $321 $318 $465 forward $316 $-1 #
edge $-1 $468 -26.741841940123159 $598 -21.153325756358299 $464 $599 forward 7 unknown #
coedge $-1 $320 $319 $471 $600 reversed $121 $-1 #
edge $-1 $601 2.0097183471152325e-014 $468 7.9033554723209116 $462 $602 forward 7 unknown #
vertex $-1 $322 $603 #
straight-curve $-1 -10.259512369331315 -33.963227703167526 16.691350127960746 -1 0 0 I I #
coedge $-1 $596 $323 $326 $475 reversed $460 $-1 #
coedge $-1 $323 $596 $466 $600 forward $460 $-1 #
vertex $-1 $324 $604 #
straight-curve $-1 -14.764650403425804 -39.551743886932385 46.480613657315125 0 0 1 I I #
straight-curve $-1 -14.764650403425804 -39.5517438869324 11.102833814513772 0 -0.70710677298230451 -0.70710678939079041 I I #
edge $-1 $598 -26.273399073899455 $327 -14.764650403425804 $470 $605 forward 7 unknown #
point $-1 -14.764650403425804 -39.551743886932385 16.691350127960746 #
point $-1 -14.764650403425804 -33.963227703167526 16.691350127960746 #
edge $-1 $606 1 $606 0 $330 $-1 forward 7 unknown #
vertex $-1 $331 $607 #
ellipse-curve $-1 -22.985185168049838 -34.628634060884437 11.76824028647197 0 -0.70710678939079041 0.70710677298230451 1 0 0 1 I I #
point $-1 -21.985185168049838 -36.757485795049952 13.897091971237263 #
edge $-1 $608 1 $608 0 $334 $-1 forward 7 unknown #
vertex $-1 $335 $609 #
ellipse-curve $-1 -18.052864309275414 -34.628634060884437 11.76824028647197 0 -0.70710678939079041 0.70710677298230451 1 0 0 1 I I #
point $-1 -17.052864309275414 -36.757485795049952 13.897091971237263 #
plane-surface $-1 0 0 16.691350127960746 0 0 1 1 0 0 forward_v I I I I #
coedge $-1 $497 $496 $489 $610 forward $339 $-1 #
coedge $-1 $489 $341 $343 $493 reversed $215 $-1 #
coedge $-1 $341 $488 $487 $610 reversed $215 $-1 #
coedge $-1 $349 $344 $341 $491 forward $350 $-1 #
edge $-1 $494 -26.741841940123159 $611 -21.153325756358299 $490 $612 forward 7 unknown #
coedge $-1 $343 $342 $497 $613 reversed $135 $-1 #
edge $-1 $614 2.0097183471152325e-014 $494 7.9033554723209116 $488 $615 forward 7 unknown #
vertex $-1 $345 $616 #
straight-curve $-1 -0.26946801136558207 -33.963227703167526 16.691350127960746 -1 0 0 I I #
coedge $-1 $487 $346 $349 $501 reversed $339 $-1 #
coedge $-1 $346 $487 $492 $613 forward $339 $-1 #
vertex $-1 $347 $617 #
straight-curve $-1 5.2154383125056611 -39.551743886932385 46.480613657315125 0 0 1 I I #
straight-curve $-1 5.2154383125056611 -39.5517438869324 11.102833814513772 0 -0.70710677298230451 -0.70710678939079041 I I #
edge $-1 $611 -6.2933103579679894 $351 5.2154383125056611 $496 $618 forward 7 unknown #
point $-1 5.2154383125056611 -39.551743886932385 16.691350127960746 #
point $-1 5.2154383125056611 -33.963227703167526 16.691350127960746 #
edge $-1 $619 1 $619 0 $354 $-1 forward 7 unknown #
vertex $-1 $355 $620 #
ellipse-curve $-1 -3.0050964521183658 -34.628634060884437 11.76824028647197 0 -0.70710678939079041 0.70710677298230451 1 0 0 1 I I #
point $-1 -2.0050964521183658 -36.757485795049952 13.897091971237263 #
edge $-1 $621 1 $621 0 $358 $-1 forward 7 unknown #
vertex $-1 $359 $622 #
ellipse-curve $-1 1.9272244066560518 -34.628634060884437 11.76824028647197 0 -0.70710678939079041 0.70710677298230451 1 0 0 1 I I #
point $-1 2.9272244066560518 -36.757485795049952 13.897091971237263 #
plane-surface $-1 0 0 16.691350127960746 0 0 1 1 0 0 forward_v I I I I #
coedge $-1 $523 $522 $515 $623 forward $363 $-1 #
coedge $-1 $515 $365 $367 $519 reversed $237 $-1 #
coedge $-1 $365 $514 $513 $623 reversed $237 $-1 #
coedge $-1 $373 $368 $365 $517 forward $374 $-1 #
edge $-1 $520 -26.741841940123159 $624 -21.153325756358299 $516 $625 forward 7 unknown #
coedge $-1 $367 $366 $523 $626 reversed $149 $-1 #
edge $-1 $627 2.0097183471152325e-014 $520 7.9033554723209116 $514 $628 forward 7 unknown #
vertex $-1 $369 $629 #
straight-curve $-1 9.7205763466001542 -33.963227703167526 16.691350127960746 -1 0 0 I I #
coedge $-1 $513 $370 $373 $527 reversed $363 $-1 #
coedge $-1 $370 $513 $518 $626 forward $363 $-1 #
vertex $-1 $371 $630 #
straight-curve $-1 25.195527028437134 -39.551743886932385 46.480613657315125 0 0 1 I I #
straight-curve $-1 25.195527028437134 -39.5517438869324 11.102833814513772 0 -0.70710677298230451 -0.70710678939079041 I I #
edge $-1 $624 13.686778357963483 $375 25.195527028437134 $522 $631 forward 7 unknown #
point $-1 25.195527028437134 -39.551743886932385 16.691350127960746 #
point $-1 25.195527028437134 -33.963227703167526 16.691350127960746 #
edge $-1 $632 1 $632 0 $378 $-1 forward 7 unknown #
vertex $-1 $379 $633 #
ellipse-curve $-1 16.974992263813107 -34.628634060884437 11.76824028647197 0 -0.70710678939079041 0.70710677298230451 1 0 0 1 I I #
point $-1 17.974992263813107 -36.757485795049952 13.897091971237263 #
edge $-1 $634 1 $634 0 $382 $-1 forward 7 unknown #
vertex $-1 $383 $635 #
ellipse-curve $-1 21.907313122587524 -34.628634060884437 11.76824028647197 0 -0.70710678939079041 0.70710677298230451 1 0 0 1 I I #
point $-1 22.907313122587524 -36.757485795049952 13.897091971237263 #
plane-surface $-1 0 0 16.691350127960746 0 0 1 1 0 0 forward_v I I I I #
coedge $-1 $549 $548 $541 $636 forward $387 $-1 #
coedge $-1 $541 $389 $391 $545 reversed $259 $-1 #
coedge $-1 $389 $540 $539 $636 reversed $259 $-1 #
coedge $-1 $397 $392 $389 $543 forward $398 $-1 #
edge $-1 $546 -26.741841940123159 $637 -21.153325756358299 $542 $638 forward 7 unknown #
coedge $-1 $391 $390 $549 $639 reversed $163 $-1 #
edge $-1 $640 2.0097183471152325e-014 $546 7.9033554723209116 $540 $641 forward 7 unknown #
vertex $-1 $393 $642 #
straight-curve $-1 19.710620704565891 -33.963227703167526 16.691350127960746 -1 0 0 I I #
coedge $-1 $539 $394 $397 $553 reversed $387 $-1 #
coedge $-1 $394 $539 $544 $639 forward $387 $-1 #
vertex $-1 $395 $643 #
straight-curve $-1 45.175615744368606 -39.551743886932385 46.480613657315125 0 0 1 I I #
straight-curve $-1 45.175615744368606 -39.5517438869324 11.102833814513772 0 -0.70710677298230451 -0.70710678939079041 I I #
edge $-1 $637 33.666867073894956 $399 45.175615744368606 $548 $644 forward 7 unknown #
point $-1 45.175615744368606 -39.551743886932385 16.691350127960746 #
point $-1 45.175615744368606 -33.963227703167526 16.691350127960746 #
edge $-1 $645 1 $645 0 $402 $-1 forward 7 unknown #
vertex $-1 $403 $646 #
ellipse-curve $-1 36.955080979744579 -34.628634060884437 11.76824028647197 0 -0.70710678939079041 0.70710677298230451 1 0 0 1 I I #
point $-1 37.955080979744579 -36.757485795049952 13.897091971237263 #
edge $-1 $647 1 $647 0 $406 $-1 forward 7 unknown #
vertex $-1 $407 $648 #
ellipse-curve $-1 41.887401838518997 -34.628634060884437 11.76824028647197 0 -0.70710678939079041 0.70710677298230451 1 0 0 1 I I #
point $-1 42.887401838518997 -36.757485795049952 13.897091971237263 #
plane-surface $-1 57.882625812555318 0 0 -1 0 0 0 0 1 forward_v I I I I #
coedge $-1 $415 $413 $417 $569 reversed $281 $-1 #
edge $-1 $428 -16.691350127960746 $571 16.691350127960746 $427 $649 forward 7 unknown #
vertex $-1 $569 $650 #
straight-curve $-1 -57.882625812555318 -39.551743886932385 0 0 0 -1 I I #
edge $-1 $567 -39.551743886932385 $571 39.551743886932385 $565 $651 forward 7 unknown #
straight-curve $-1 0 -39.551743886932385 -16.691350127960746 -1 0 0 I I #
vertex $-1 $420 $652 #
straight-curve $-1 0 39.551743886932385 -16.691350127960746 1 0 0 I I #
point $-1 57.882625812555318 39.551743886932385 -16.691350127960746 #
point $-1 57.882625812555318 -39.551743886932385 -16.691350127960746 #
straight-curve $-1 -57.882625812555318 0 16.691350127960746 0 -1 0 I I #
point $-1 -57.882625812555318 39.551743886932385 16.691350127960746 #
point $-1 -57.882625812555318 -39.551743886932385 16.691350127960746 #
straight-curve $-1 57.882625812555318 -39.551743886932385 0 0 0 -1 I I #
straight-curve $-1 57.882625812555318 39.551743886932385 0 0 0 -1 I I #
plane-surface $-1 0 -39.551743886932385 0 0 1 0 0 0 1 forward_v I I I I #
coedge $-1 $653 $440 $452 $592 reversed $300 $-1 #
coedge $-1 $440 $653 $455 $594 reversed $300 $-1 #
edge $-1 $654 -57.882625812555318 $449 -38.980409142086174 $445 $655 forward 7 unknown #
straight-curve $-1 -38.980409142086174 -17.982979384553964 16.691350127960746 0 1 0 I I #
coedge $-1 $452 $443 $446 $588 forward $438 $-1 #
straight-curve $-1 -38.980409142086174 -17.982979384553964 -16.691350127960746 0 -1 0 I I #
coedge $-1 $446 $445 $653 $656 forward $447 $-1 #
edge $-1 $448 38.980409142086174 $657 57.882625812555318 $446 $658 forward 7 unknown #
point $-1 -38.980409142086174 -39.551743886932385 -16.691350127960746 #
point $-1 -38.980409142086174 -39.551743886932385 16.691350127960746 #
straight-curve $-1 -57.882625812555318 -32.380173651283471 0 0 0 -1 I I #
edge $-1 $657 -39.551743886932385 $453 -32.380173651283471 $581 $659 forward 7 unknown #
point $-1 -57.882625812555318 -32.380173651283471 -16.691350127960746 #
edge $-1 $456 32.380173651283471 $654 39.551743886932385 $582 $660 forward 7 unknown #
point $-1 -57.882625812555318 -32.380173651283471 16.691350127960746 #
coedge $-1 $471 $470 $463 $597 forward $460 $-1 #
edge $-1 $598 29.789263529354379 $601 35.377779842801338 $596 $661 forward 7 unknown #
vertex $-1 $475 $662 #
straight-curve $-1 -26.273399073899455 -60.705069643290685 16.691350127960746 0 -1 0 I I #
edge $-1 $601 -16.01388670456814 $472 -4.5051380340944895 $471 $663 forward 7 unknown #
vertex $-1 $600 $664 #
straight-curve $-1 -26.273399073899455 -39.5517438869324 11.102833814513772 0 0.70710677298230451 0.70710678939079041 I I #
point $-1 -26.273399073899455 -33.963227703167526 16.691350127960746 #
point $-1 -14.764650403425804 -39.551743886932385 11.102833814513787 #
straight-curve $-1 0 -39.551743886932385 16.691350127960746 1 0 0 I I #
vertex $-1 $478 $665 #
point $-1 -21.985185168049838 -34.628634060884437 11.76824028647197 #
vertex $-1 $482 $666 #
point $-1 -17.052864309275414 -34.628634060884437 11.76824028647197 #
edge $-1 $611 29.789263529354379 $614 35.377779842801338 $487 $667 forward 7 unknown #
vertex $-1 $501 $668 #
straight-curve $-1 -6.2933103579679894 -60.705069643290685 16.691350127960746 0 -1 0 I I #
edge $-1 $614 -6.0238423466024074 $498 5.4849063238712432 $497 $669 forward 7 unknown #
vertex $-1 $613 $670 #
straight-curve $-1 -6.2933103579679894 -39.5517438869324 11.102833814513772 0 0.70710677298230451 0.70710678939079041 I I #
point $-1 -6.2933103579679894 -33.963227703167526 16.691350127960746 #
point $-1 5.2154383125056611 -39.551743886932385 11.102833814513787 #
straight-curve $-1 0 -39.551743886932385 16.691350127960746 1 0 0 I I #
vertex $-1 $504 $671 #
point $-1 -2.0050964521183658 -34.628634060884437 11.76824028647197 #
vertex $-1 $508 $672 #
point $-1 2.9272244066560518 -34.628634060884437 11.76824028647197 #
edge $-1 $624 29.789263529354379 $627 35.377779842801338 $513 $673 forward 7 unknown #
vertex $-1 $527 $674 #
straight-curve $-1 13.686778357963483 -60.705069643290685 16.691350127960746 0 -1 0 I I #
edge $-1 $627 3.9662020113633289 $524 15.47495068183698 $523 $675 forward 7 unknown #
vertex $-1 $626 $676 #
straight-curve $-1 13.686778357963483 -39.5517438869324 11.102833814513772 0 0.70710677298230451 0.70710678939079041 I I #
point $-1 13.686778357963483 -33.963227703167526 16.691350127960746 #
point $-1 25.195527028437134 -39.551743886932385 11.102833814513787 #
straight-curve $-1 0 -39.551743886932385 16.691350127960746 1 0 0 I I #
vertex $-1 $530 $677 #
point $-1 17.974992263813107 -34.628634060884437 11.76824028647197 #
vertex $-1 $534 $678 #
point $-1 22.907313122587524 -34.628634060884437 11.76824028647197 #
edge $-1 $637 29.789263529354379 $640 35.377779842801338 $539 $679 forward 7 unknown #
vertex $-1 $553 $680 #
straight-curve $-1 33.666867073894956 -60.705069643290685 16.691350127960746 0 -1 0 I I #
edge $-1 $640 13.956246369329065 $550 25.464995039802716 $549 $681 forward 7 unknown #
vertex $-1 $639 $682 #
straight-curve $-1 33.666867073894956 -39.5517438869324 11.102833814513772 0 0.70710677298230451 0.70710678939079041 I I #
point $-1 33.666867073894956 -33.963227703167526 16.691350127960746 #
point $-1 45.175615744368606 -39.551743886932385 11.102833814513787 #
straight-curve $-1 0 -39.551743886932385 16.691350127960746 1 0 0 I I #
vertex $-1 $556 $683 #
point $-1 37.955080979744579 -34.628634060884437 11.76824028647197 #
vertex $-1 $560 $684 #
point $-1 42.887401838518997 -34.628634060884437 11.76824028647197 #
straight-curve $-1 -57.882625812555318 39.551743886932385 0 0 0 -1 I I #
point $-1 -57.882625812555318 -39.551743886932385 -16.691350127960746 #
straight-curve $-1 -57.882625812555318 0 -16.691350127960746 0 1 0 I I #
point $-1 -57.882625812555318 39.551743886932385 -16.691350127960746 #
coedge $-1 $582 $581 $587 $656 reversed $300 $-1 #
vertex $-1 $594 $685 #
straight-curve $-1 0 -39.551743886932385 16.691350127960746 1 0 0 I I #
edge $-1 $654 -16.691350127960746 $657 16.691350127960746 $653 $686 forward 7 unknown #
vertex $-1 $592 $687 #
straight-curve $-1 0 -39.551743886932385 -16.691350127960746 -1 0 0 I I #
straight-curve $-1 -57.882625812555318 0 -16.691350127960746 0 1 0 I I #
straight-curve $-1 -57.882625812555318 0 16.691350127960746 0 -1 0 I I #
straight-curve $-1 -26.273399073899455 -39.551743886932385 46.480613657315125 0 0 -1 I I #
point $-1 -26.273399073899455 -39.551743886932385 16.691350127960746 #
straight-curve $-1 -10.259512369331315 -39.551743886932385 11.102833814513787 1 0 0 I I #
point $-1 -26.273399073899455 -39.551743886932385 11.102833814513787 #
point $-1 -22.985185168049838 -33.921527271493645 11.061133513489667 #
point $-1 -18.052864309275414 -33.921527271493645 11.061133513489667 #
straight-curve $-1 -6.2933103579679894 -39.551743886932385 46.480613657315125 0 0 -1 I I #
point $-1 -6.2933103579679894 -39.551743886932385 16.691350127960746 #
straight-curve $-1 -0.26946801136558207 -39.551743886932385 11.102833814513787 1 0 0 I I #
point $-1 -6.2933103579679894 -39.551743886932385 11.102833814513787 #
point $-1 -3.0050964521183658 -33.921527271493645 11.061133513489667 #
point $-1 1.9272244066560518 -33.921527271493645 11.061133513489667 #
straight-curve $-1 13.686778357963483 -39.551743886932385 46.480613657315125 0 0 -1 I I #
point $-1 13.686778357963483 -39.551743886932385 16.691350127960746 #
straight-curve $-1 9.7205763466001542 -39.551743886932385 11.102833814513787 1 0 0 I I #
point $-1 13.686778357963483 -39.551743886932385 11.102833814513787 #
point $-1 16.974992263813107 -33.921527271493645 11.061133513489667 #
point $-1 21.907313122587524 -33.921527271493645 11.061133513489667 #
straight-curve $-1 33.666867073894956 -39.551743886932385 46.480613657315125 0 0 -1 I I #
point $-1 33.666867073894956 -39.551743886932385 16.691350127960746 #
straight-curve $-1 19.710620704565891 -39.551743886932385 11.102833814513787 1 0 0 I I #
point $-1 33.666867073894956 -39.551743886932385 11.102833814513787 #
point $-1 36.955080979744579 -33.921527271493645 11.061133513489667 #
point $-1 41.887401838518997 -33.921527271493645 11.061133513489667 #
point $-1 -57.882625812555318 -39.551743886932385 16.691350127960746 #
straight-curve $-1 -57.882625812555318 -39.551743886932385 0 0 0 -1 I I #
point $-1 -57.882625812555318 -39.551743886932385 -16.691350127960746 #
End-of-ACIS-data 