500 0 5 0           
7 Unknown 11 ACIS 5.0 NT 24 Thu Mar 25 19:07:06 1999 
-1 9.9999999999999995e-007 1e-010 
body $-1 $5 $-1 $6 #
body $-1 $7 $-1 $8 #
body $-1 $9 $-1 $10 #
body $-1 $11 $-1 $12 #
body $-1 $13 $-1 $14 #
lump $-1 $-1 $15 $0 #
transform $-1 1 0 0 0 1 0 0 0 1 70.32807397686696 33.814223892207046 10.313818148389359 1 rotate no_reflect no_shear #
lump $-1 $-1 $16 $1 #
transform $-1 1 0 0 0 1 0 0 0 1 70.32807397686696 33.814223892207046 10.313818148389359 1 rotate no_reflect no_shear #
lump $-1 $-1 $17 $2 #
transform $-1 1 0 0 0 1 0 0 0 1 70.32807397686696 33.814223892207046 10.313818148389359 1 rotate no_reflect no_shear #
lump $-1 $-1 $18 $3 #
transform $-1 1 0 0 0 1 0 0 0 1 70.32807397686696 33.814223892207046 10.313818148389359 1 rotate no_reflect no_shear #
lump $-1 $-1 $19 $4 #
transform $-1 1 0 0 0 1 0 0 0 1 70.32807397686696 33.814223892207046 10.313818148389359 1 rotate no_reflect no_shear #
shell $-1 $-1 $-1 $20 $-1 $5 #
shell $-1 $-1 $-1 $21 $-1 $7 #
shell $-1 $-1 $-1 $22 $-1 $9 #
shell $-1 $-1 $-1 $23 $-1 $11 #
shell $-1 $-1 $-1 $24 $-1 $13 #
face $-1 $25 $26 $15 $-1 $27 forward single #
face $-1 $28 $29 $16 $-1 $30 reversed single #
face $-1 $31 $32 $17 $-1 $33 forward single #
face $-1 $34 $35 $18 $-1 $36 reversed single #
face $-1 $37 $38 $19 $-1 $39 reversed single #
face $-1 $40 $41 $15 $-1 $42 reversed single #
loop $-1 $-1 $43 $20 #
plane-surface $-1 0 0 10.313818148389359 0 0 1 1 0 0 forward_v I I I I #
face $-1 $44 $45 $16 $-1 $46 reversed single #
loop $-1 $-1 $47 $21 #
plane-surface $-1 -59.876160370278839 -42.235300445619117 0 0 1 0 0 0 1 forward_v I I I I #
face $-1 $48 $49 $17 $-1 $50 forward single #
loop $-1 $-1 $51 $22 #
plane-surface $-1 108.283388495466 -10.765677701070038 199.52439224400922 0 -1 0 -0.82903758062907751 0 -0.55919289150049634 forward_v I I I I #
face $-1 $52 $53 $18 $-1 $54 reversed single #
loop $-1 $55 $56 $23 #
cone-surface $-1 67.48416816560885 -17.212105841077978 6.7461365239303577 -0.82903758062907751 0 -0.55919289150049634 0.55919289150049634 0 -0.82903758062907751 1 I I 0 1 1 forward I I I I #
face $-1 $57 $58 $19 $-1 $59 reversed single #
loop $-1 $60 $61 $24 #
cone-surface $-1 67.48416816560885 -13.344248957073216 6.7461365239303577 -0.82903758062907751 0 -0.55919289150049634 0.55919289150049634 0 -0.82903758062907751 1 I I 0 1 1 forward I I I I #
face $-1 $62 $63 $15 $-1 $64 reversed single #
loop $-1 $-1 $65 $25 #
plane-surface $-1 0 0 -10.313818148389359 0 0 1 1 0 0 forward_v I I I I #
coedge $-1 $66 $67 $68 $69 forward $26 $-1 #
face $-1 $70 $71 $16 $-1 $72 reversed single #
loop $-1 $-1 $73 $28 #
plane-surface $-1 -62.237476095471933 -38.024762168913085 0 1 0 0 0 0 -1 forward_v I I I I #
coedge $-1 $74 $75 $76 $77 forward $29 $-1 #
face $-1 $78 $79 $17 $-1 $80 forward single #
loop $-1 $-1 $81 $31 #
plane-surface $-1 -8.3258441047031368 -15.278177399075595 120.87047416243912 0.82903758062907751 0 0.55919289150049634 0.55919289150049634 0 -0.82903758062907751 forward_v I I I I #
coedge $-1 $82 $83 $84 $85 reversed $32 $-1 #
face $-1 $86 $87 $18 $-1 $88 forward single #
loop $-1 $89 $90 $34 #
cone-surface $-1 66.267000728549817 -17.212105841077978 5.9251467467807828 -0.82903758062907751 0 -0.55919289150049634 0.27959644575024817 0 -0.41451879031453875 1 I I -0.70710678118654746 0.70710678118654746 0.5 forward I I I I #
loop $-1 $-1 $91 $23 #
coedge $-1 $56 $56 $92 $93 reversed $35 $-1 #
face $-1 $94 $95 $19 $-1 $96 reversed single #
loop $-1 $97 $98 $37 #
cone-surface $-1 66.267000728549817 -13.344248957073216 5.9251467467807828 -0.82903758062907751 0 -0.55919289150049634 0.27959644575024817 0 -0.41451879031453875 1 I I -0.70710678118654746 0.70710678118654746 0.5 forward I I I I #
loop $-1 $-1 $99 $24 #
coedge $-1 $61 $61 $100 $101 reversed $38 $-1 #
face $-1 $102 $103 $15 $-1 $104 reversed single #
loop $-1 $-1 $105 $40 #
plane-surface $-1 0 -33.814223892207046 0 0 1 0 0 0 1 forward_v I I I I #
coedge $-1 $106 $107 $108 $109 forward $41 $-1 #
coedge $-1 $110 $43 $111 $112 forward $26 $-1 #
coedge $-1 $43 $110 $113 $114 forward $26 $-1 #
coedge $-1 $115 $116 $43 $69 reversed $117 $-1 #
edge $-1 $118 -33.814223892207046 $119 33.814223892207046 $68 $120 forward 7 unknown #
face $-1 $121 $122 $16 $-1 $123 reversed single #
loop $-1 $-1 $124 $44 #
plane-surface $-1 -57.514844645085745 -38.024762168913085 0 -1 0 0 0 0 1 forward_v I I I I #
coedge $-1 $125 $126 $127 $128 reversed $45 $-1 #
coedge $-1 $129 $47 $130 $131 reversed $29 $-1 #
coedge $-1 $47 $129 $132 $133 reversed $29 $-1 #
coedge $-1 $126 $125 $47 $77 reversed $45 $-1 #
edge $-1 $134 -10.313818148389359 $135 10.313818148389359 $76 $136 forward 7 unknown #
face $-1 $137 $138 $17 $-1 $139 forward single #
loop $-1 $-1 $140 $48 #
plane-surface $-1 108.283388495466 -19.790677097081151 199.52439224400922 0 1 0 0.82903758062907751 0 0.55919289150049634 forward_v I I I I #
coedge $-1 $141 $142 $143 $144 reversed $49 $-1 #
coedge $-1 $83 $51 $142 $145 forward $32 $-1 #
coedge $-1 $51 $82 $146 $147 reversed $32 $-1 #
coedge $-1 $148 $143 $51 $85 forward $138 $-1 #
edge $-1 $149 12.103865400106699 $150 16.186379729133961 $84 $151 forward 7 unknown #
face $-1 $152 $153 $18 $-1 $154 forward single #
loop $-1 $-1 $155 $52 #
plane-surface $-1 108.283388495466 -10.765677701070038 199.52439224400922 0 -1 0 -0.82903758062907751 0 -0.55919289150049634 forward_v I I I I #
loop $-1 $-1 $156 $34 #
coedge $-1 $90 $90 $91 $157 forward $53 $-1 #
coedge $-1 $91 $91 $90 $157 reversed $55 $-1 #
coedge $-1 $92 $92 $56 $93 forward $153 $-1 #
edge $-1 $158 0 $158 6.2831853071796004 $92 $159 forward 7 unknown #
face $-1 $160 $161 $19 $-1 $162 reversed single #
loop $-1 $163 $164 $57 #
cone-surface $-1 67.48416816560885 -17.212105841077978 6.7461365239303577 -0.82903758062907751 0 -0.55919289150049634 0.55919289150049634 0 -0.82903758062907751 1 I I 0 1 1 forward I I I I #
loop $-1 $-1 $165 $37 #
coedge $-1 $98 $98 $99 $166 forward $58 $-1 #
coedge $-1 $99 $99 $98 $166 reversed $60 $-1 #
coedge $-1 $100 $100 $61 $101 forward $167 $-1 #
edge $-1 $168 0 $168 6.2831853071796004 $100 $169 forward 7 unknown #
face $-1 $170 $171 $15 $-1 $172 reversed single #
loop $-1 $-1 $173 $62 #
plane-surface $-1 -70.32807397686696 0 0 1 0 0 0 0 -1 forward_v I I I I #
coedge $-1 $174 $113 $175 $176 forward $63 $-1 #
coedge $-1 $177 $65 $174 $178 forward $41 $-1 #
coedge $-1 $65 $177 $179 $180 forward $41 $-1 #
coedge $-1 $116 $115 $65 $109 reversed $117 $-1 #
edge $-1 $181 -33.814223892207046 $182 33.814223892207046 $108 $183 forward 7 unknown #
coedge $-1 $67 $66 $184 $185 forward $26 $-1 #
coedge $-1 $186 $187 $66 $112 reversed $171 $-1 #
edge $-1 $119 -70.32807397686696 $188 70.32807397686696 $111 $189 forward 7 unknown #
coedge $-1 $105 $190 $67 $114 reversed $63 $-1 #
edge $-1 $191 -70.32807397686696 $118 70.32807397686696 $113 $192 forward 7 unknown #
coedge $-1 $108 $68 $190 $193 forward $117 $-1 #
coedge $-1 $68 $108 $186 $194 reversed $117 $-1 #
loop $-1 $-1 $115 $170 #
vertex $-1 $69 $195 #
vertex $-1 $69 $196 #
straight-curve $-1 70.32807397686696 0 10.313818148389359 0 1 0 I I #
face $-1 $197 $198 $16 $-1 $123 reversed single #
loop $-1 $-1 $127 $70 #
plane-surface $-1 0 -33.814223892207046 0 0 1 0 0 0 1 forward_v I I I I #
coedge $-1 $199 $200 $129 $201 forward $71 $-1 #
coedge $-1 $76 $73 $202 $203 reversed $45 $-1 #
coedge $-1 $73 $76 $204 $205 reversed $45 $-1 #
coedge $-1 $206 $207 $73 $128 forward $122 $-1 #
edge $-1 $208 -10.313818148389359 $209 10.313818148389359 $127 $210 forward 7 unknown #
coedge $-1 $75 $74 $124 $201 reversed $29 $-1 #
coedge $-1 $202 $211 $74 $131 forward $212 $-1 #
edge $-1 $213 -2.3613157251930943 $135 2.3613157251930943 $74 $214 forward 7 unknown #
coedge $-1 $215 $204 $75 $133 forward $216 $-1 #
edge $-1 $134 -2.3613157251930943 $217 2.3613157251930943 $75 $218 forward 7 unknown #
vertex $-1 $205 $219 #
vertex $-1 $203 $220 #
straight-curve $-1 -62.237476095471933 -42.235300445619117 0 0 0 -1 I I #
face $-1 $221 $222 $17 $-1 $223 reversed single #
loop $-1 $-1 $224 $78 #
plane-surface $-1 0 0 10.313818148389359 0 0 1 1 0 0 forward_v I I I I #
coedge $-1 $225 $226 $224 $227 reversed $79 $-1 #
coedge $-1 $228 $81 $226 $229 reversed $49 $-1 #
coedge $-1 $81 $228 $82 $145 reversed $49 $-1 #
coedge $-1 $84 $224 $81 $144 forward $138 $-1 #
edge $-1 $230 -12.151588397543353 $149 -3.1265890015322402 $143 $231 forward 7 unknown #
edge $-1 $149 133.35542151196435 $232 140.65614795373392 $82 $233 forward 7 unknown #
coedge $-1 $234 $235 $83 $147 forward $236 $-1 #
edge $-1 $150 89.448377973615251 $232 95.500954559734623 $146 $237 forward 7 unknown #
coedge $-1 $238 $84 $235 $239 forward $138 $-1 #
vertex $-1 $144 $240 #
vertex $-1 $239 $241 #
straight-curve $-1 54.141694247733 -10.765677701070038 10.313818148389359 1 0 0 I I #
face $-1 $242 $243 $18 $-1 $244 forward single #
loop $-1 $245 $92 $86 #
plane-surface $-1 -8.3258441047031368 -15.278177399075595 120.87047416243912 0.82903758062907751 0 0.55919289150049634 0.55919289150049634 0 -0.82903758062907751 forward_v I I I I #
coedge $-1 $246 $247 $248 $249 reversed $87 $-1 #
coedge $-1 $156 $156 $-1 $250 forward $89 $-1 #
edge $-1 $251 0 $251 6.2831853071796004 $90 $252 forward 7 unknown #
vertex $-1 $93 $253 #
ellipse-curve $-1 68.286816812353322 -17.212105841077978 7.287529855329673 -0.82903758062907751 0 -0.55919289150049634 0.55919289150049634 0 -0.82903758062907751 1 I I #
face $-1 $254 $255 $19 $-1 $256 forward single #
loop $-1 $257 $258 $94 #
cone-surface $-1 66.267000728549817 -17.212105841077978 5.9251467467807828 -0.82903758062907751 0 -0.55919289150049634 0.27959644575024817 0 -0.41451879031453875 1 I I -0.70710678118654746 0.70710678118654746 0.5 forward I I I I #
loop $-1 $-1 $259 $57 #
coedge $-1 $164 $164 $260 $261 reversed $95 $-1 #
coedge $-1 $165 $165 $-1 $262 forward $97 $-1 #
edge $-1 $263 0 $263 6.2831853071796004 $98 $264 forward 7 unknown #
loop $-1 $265 $100 $254 #
vertex $-1 $101 $266 #
ellipse-curve $-1 68.286816812353322 -13.344248957073216 7.287529855329673 -0.82903758062907751 0 -0.55919289150049634 0.55919289150049634 0 -0.82903758062907751 1 I I #
face $-1 $-1 $117 $15 $-1 $267 reversed single #
loop $-1 $-1 $186 $102 #
plane-surface $-1 0 33.814223892207046 0 0 -1 0 0 0 -1 forward_v I I I I #
coedge $-1 $268 $184 $187 $269 forward $103 $-1 #
coedge $-1 $190 $105 $106 $178 reversed $63 $-1 #
coedge $-1 $184 $268 $105 $176 reversed $103 $-1 #
edge $-1 $191 -10.313818148389359 $270 10.313818148389359 $175 $271 forward 7 unknown #
coedge $-1 $107 $106 $268 $272 forward $41 $-1 #
edge $-1 $182 -70.32807397686696 $270 70.32807397686696 $174 $273 forward 7 unknown #
coedge $-1 $187 $186 $107 $180 reversed $171 $-1 #
edge $-1 $274 -70.32807397686696 $181 70.32807397686696 $179 $275 forward 7 unknown #
vertex $-1 $109 $276 #
vertex $-1 $193 $277 #
straight-curve $-1 70.32807397686696 0 -10.313818148389359 0 -1 0 I I #
coedge $-1 $173 $175 $110 $185 reversed $103 $-1 #
edge $-1 $188 -33.814223892207046 $191 33.814223892207046 $184 $278 forward 7 unknown #
coedge $-1 $179 $111 $116 $194 forward $171 $-1 #
coedge $-1 $111 $179 $173 $269 reversed $171 $-1 #
vertex $-1 $112 $279 #
straight-curve $-1 0 33.814223892207046 10.313818148389359 -1 0 0 I I #
coedge $-1 $113 $174 $115 $193 reversed $63 $-1 #
vertex $-1 $185 $280 #
straight-curve $-1 0 -33.814223892207046 10.313818148389359 1 0 0 I I #
edge $-1 $118 -10.313818148389359 $182 10.313818148389359 $115 $281 forward 7 unknown #
edge $-1 $119 -10.313818148389359 $181 10.313818148389359 $116 $282 forward 7 unknown #
point $-1 70.32807397686696 -33.814223892207046 10.313818148389359 #
point $-1 70.32807397686696 33.814223892207046 10.313818148389359 #
face $-1 $283 $216 $16 $-1 $284 forward single #
loop $-1 $-1 $285 $121 #
coedge $-1 $286 $124 $211 $287 reversed $71 $-1 #
coedge $-1 $124 $286 $215 $288 reversed $71 $-1 #
edge $-1 $217 -10.313818148389359 $213 10.313818148389359 $124 $289 forward 7 unknown #
coedge $-1 $290 $130 $125 $203 forward $212 $-1 #
edge $-1 $135 -4.210538276706032 $208 4.210538276706032 $125 $291 forward 7 unknown #
coedge $-1 $132 $292 $126 $205 forward $216 $-1 #
edge $-1 $209 -4.210538276706032 $134 4.210538276706032 $126 $293 forward 7 unknown #
coedge $-1 $294 $127 $292 $295 reversed $122 $-1 #
coedge $-1 $127 $294 $290 $296 reversed $122 $-1 #
vertex $-1 $296 $297 #
vertex $-1 $205 $298 #
straight-curve $-1 -62.237476095471933 -33.814223892207046 0 0 0 1 I I #
coedge $-1 $130 $299 $199 $287 forward $212 $-1 #
loop $-1 $-1 $300 $283 #
vertex $-1 $201 $301 #
straight-curve $-1 -59.876160370278839 -42.235300445619117 -10.313818148389359 -1 0 0 I I #
coedge $-1 $302 $132 $200 $288 forward $216 $-1 #
loop $-1 $-1 $303 $197 #
vertex $-1 $288 $304 #
straight-curve $-1 -59.876160370278839 -42.235300445619117 10.313818148389359 1 0 0 I I #
point $-1 -62.237476095471933 -42.235300445619117 10.313818148389359 #
point $-1 -62.237476095471933 -42.235300445619117 -10.313818148389359 #
face $-1 $305 $306 $17 $-1 $307 reversed single #
loop $-1 $-1 $308 $137 #
plane-surface $-1 -59.876160370278839 -42.235300445619117 0 0 1 0 0 0 1 forward_v I I I I #
coedge $-1 $143 $309 $140 $227 forward $138 $-1 #
coedge $-1 $226 $140 $310 $311 reversed $79 $-1 #
coedge $-1 $140 $225 $141 $229 forward $79 $-1 #
edge $-1 $312 -16.186379729133961 $230 -12.103865400106699 $224 $313 forward 7 unknown #
coedge $-1 $142 $141 $234 $314 reversed $49 $-1 #
edge $-1 $315 -140.65614795373392 $230 -133.35542151196435 $226 $316 forward 7 unknown #
vertex $-1 $144 $317 #
straight-curve $-1 66.245559647839698 -7.6390886995377976 10.313818148389359 0 1 0 I I #
vertex $-1 $314 $318 #
straight-curve $-1 -8.3258441047031368 -10.765677701070038 120.87047416243912 0.55919289150049634 0 -0.82903758062907751 I I #
coedge $-1 $310 $146 $228 $314 forward $236 $-1 #
coedge $-1 $146 $319 $148 $239 reversed $236 $-1 #
loop $-1 $-1 $310 $320 #
straight-curve $-1 70.32807397686696 -10.765677701070038 99.76219612200461 0 0 -1 I I #
coedge $-1 $321 $148 $322 $323 forward $138 $-1 #
edge $-1 $150 -10.765677701070038 $324 33.814223892207046 $235 $325 forward 7 unknown #
point $-1 66.245559647839698 -10.765677701070038 10.313818148389359 #
point $-1 70.32807397686696 -10.765677701070038 10.313818148389359 #
face $-1 $326 $327 $18 $-1 $328 forward single #
loop $-1 $-1 $329 $152 #
plane-surface $-1 108.283388495466 -19.790677097081151 199.52439224400922 0 1 0 0.82903758062907751 0 0.55919289150049634 forward_v I I I I #
loop $-1 $-1 $330 $86 #
coedge $-1 $247 $155 $331 $332 forward $87 $-1 #
coedge $-1 $155 $246 $333 $334 reversed $87 $-1 #
coedge $-1 $335 $336 $155 $249 forward $327 $-1 #
edge $-1 $337 12.103865400106699 $338 16.186379729133961 $248 $339 forward 7 unknown #
edge $-1 $340 1 $340 0 $156 $-1 forward 7 unknown #
vertex $-1 $157 $341 #
ellipse-curve $-1 66.681519518864363 -17.212105841077978 6.2047431925310308 0.82903758062907751 0 0.55919289150049634 0.55919289150049634 0 -0.82903758062907751 1 I I #
point $-1 68.846009703853838 -17.212105841077978 6.4584922747006068 #
face $-1 $342 $167 $19 $-1 $343 forward single #
loop $-1 $-1 $344 $160 #
plane-surface $-1 108.283388495466 -10.765677701070038 199.52439224400922 0 -1 0 -0.82903758062907751 0 -0.55919289150049634 forward_v I I I I #
loop $-1 $-1 $345 $94 #
coedge $-1 $258 $258 $259 $346 forward $161 $-1 #
coedge $-1 $259 $259 $258 $346 reversed $163 $-1 #
coedge $-1 $260 $260 $164 $261 forward $265 $-1 #
edge $-1 $347 0 $347 6.2831853071796004 $260 $348 forward 7 unknown #
edge $-1 $349 1 $349 0 $165 $-1 forward 7 unknown #
vertex $-1 $166 $350 #
ellipse-curve $-1 66.681519518864363 -13.344248957073216 6.2047431925310308 0.82903758062907751 0 0.55919289150049634 0.55919289150049634 0 -0.82903758062907751 1 I I #
loop $-1 $351 $260 $254 #
point $-1 68.846009703853838 -13.344248957073216 6.4584922747006068 #
plane-surface $-1 70.32807397686696 0 0 -1 0 0 0 0 1 forward_v I I I I #
coedge $-1 $175 $173 $177 $272 reversed $103 $-1 #
edge $-1 $188 -10.313818148389359 $274 10.313818148389359 $187 $352 forward 7 unknown #
vertex $-1 $272 $353 #
straight-curve $-1 -70.32807397686696 -33.814223892207046 0 0 0 -1 I I #
edge $-1 $270 -33.814223892207046 $274 33.814223892207046 $268 $354 forward 7 unknown #
straight-curve $-1 0 -33.814223892207046 -10.313818148389359 -1 0 0 I I #
vertex $-1 $180 $355 #
straight-curve $-1 0 33.814223892207046 -10.313818148389359 1 0 0 I I #
point $-1 70.32807397686696 33.814223892207046 -10.313818148389359 #
point $-1 70.32807397686696 -33.814223892207046 -10.313818148389359 #
straight-curve $-1 -70.32807397686696 0 10.313818148389359 0 -1 0 I I #
point $-1 -70.32807397686696 33.814223892207046 10.313818148389359 #
point $-1 -70.32807397686696 -33.814223892207046 10.313818148389359 #
straight-curve $-1 70.32807397686696 -33.814223892207046 0 0 0 -1 I I #
straight-curve $-1 70.32807397686696 33.814223892207046 0 0 0 -1 I I #
face $-1 $356 $212 $16 $-1 $357 reversed single #
plane-surface $-1 0 0 10.313818148389359 0 0 1 1 0 0 forward_v I I I I #
coedge $-1 $358 $359 $286 $360 forward $198 $-1 #
coedge $-1 $200 $199 $285 $360 reversed $71 $-1 #
edge $-1 $361 -4.210538276706032 $213 4.210538276706032 $199 $362 forward 7 unknown #
edge $-1 $217 -4.210538276706032 $363 4.210538276706032 $200 $364 forward 7 unknown #
straight-curve $-1 -57.514844645085745 -42.235300445619117 0 0 0 -1 I I #
coedge $-1 $365 $202 $207 $296 forward $212 $-1 #
straight-curve $-1 -62.237476095471933 -38.024762168913085 -10.313818148389359 0 1 0 I I #
coedge $-1 $204 $366 $206 $295 forward $216 $-1 #
straight-curve $-1 -62.237476095471933 -38.024762168913085 10.313818148389359 0 -1 0 I I #
coedge $-1 $207 $206 $367 $368 forward $122 $-1 #
edge $-1 $369 -70.32807397686696 $209 -62.237476095471933 $206 $370 forward 7 unknown #
edge $-1 $208 62.237476095471933 $371 70.32807397686696 $207 $372 forward 7 unknown #
point $-1 -62.237476095471933 -33.814223892207053 -10.313818148389359 #
point $-1 -62.237476095471933 -33.814223892207053 10.313818148389359 #
coedge $-1 $211 $300 $358 $373 forward $212 $-1 #
coedge $-1 $299 $374 $375 $376 forward $212 $-1 #
point $-1 -57.514844645085745 -42.235300445619117 -10.313818148389359 #
coedge $-1 $303 $215 $359 $377 forward $216 $-1 #
coedge $-1 $378 $302 $379 $380 forward $216 $-1 #
point $-1 -57.514844645085745 -42.235300445619117 10.313818148389359 #
face $-1 $381 $382 $17 $-1 $383 reversed single #
loop $-1 $-1 $384 $221 #
plane-surface $-1 -62.237476095471933 -38.024762168913085 0 1 0 0 0 0 -1 forward_v I I I I #
coedge $-1 $385 $386 $387 $388 forward $222 $-1 #
coedge $-1 $224 $389 $390 $391 forward $138 $-1 #
coedge $-1 $390 $234 $225 $311 forward $236 $-1 #
edge $-1 $315 -95.500954559734623 $312 -89.448377973615251 $310 $392 forward 7 unknown #
vertex $-1 $311 $393 #
straight-curve $-1 54.141694247733 -19.790677097081151 10.313818148389359 -1 0 0 I I #
edge $-1 $232 3.1265890015322402 $315 12.151588397543353 $234 $394 forward 7 unknown #
vertex $-1 $314 $395 #
straight-curve $-1 -8.3258441047031368 -19.790677097081151 120.87047416243912 -0.55919289150049634 0 0.82903758062907751 I I #
point $-1 66.245559647839698 -19.790677097081151 10.313818148389359 #
point $-1 70.32807397686696 -10.765677701070038 4.2612415622699871 #
coedge $-1 $235 $396 $397 $398 reversed $236 $-1 #
face $-1 $-1 $236 $17 $-1 $399 reversed single #
coedge $-1 $400 $238 $401 $402 forward $138 $-1 #
coedge $-1 $397 $403 $238 $323 reversed $404 $-1 #
edge $-1 $324 -70.32807397686696 $405 70.32807397686696 $322 $406 forward 7 unknown #
vertex $-1 $239 $407 #
straight-curve $-1 70.32807397686696 0 10.313818148389359 0 1 0 I I #
face $-1 $408 $409 $18 $-1 $410 reversed single #
loop $-1 $-1 $411 $242 #
plane-surface $-1 0 0 10.313818148389359 0 0 1 1 0 0 forward_v I I I I #
coedge $-1 $412 $413 $411 $414 reversed $243 $-1 #
coedge $-1 $415 $331 $336 $416 reversed $245 $-1 #
coedge $-1 $330 $417 $246 $332 reversed $245 $-1 #
edge $-1 $337 133.35542151196435 $418 140.65614795373392 $246 $419 forward 7 unknown #
coedge $-1 $420 $421 $247 $334 forward $422 $-1 #
edge $-1 $338 89.448377973615251 $418 95.500954559734623 $333 $423 forward 7 unknown #
coedge $-1 $424 $248 $421 $425 forward $327 $-1 #
coedge $-1 $248 $411 $330 $416 forward $327 $-1 #
vertex $-1 $416 $426 #
vertex $-1 $425 $427 #
straight-curve $-1 54.141694247733 -10.765677701070038 10.313818148389359 1 0 0 I I #
vertex $-1 $250 $428 #
point $-1 67.24071241036485 -17.212105841077978 5.3757056119019531 #
face $-1 $429 $430 $19 $-1 $431 forward single #
plane-surface $-1 -8.3258441047031368 -15.278177399075595 120.87047416243912 0.82903758062907751 0 0.55919289150049634 0.55919289150049634 0 -0.82903758062907751 forward_v I I I I #
coedge $-1 $432 $433 $434 $435 reversed $255 $-1 #
coedge $-1 $345 $345 $-1 $436 forward $257 $-1 #
edge $-1 $437 0 $437 6.2831853071796004 $258 $438 forward 7 unknown #
vertex $-1 $261 $439 #
ellipse-curve $-1 68.286816812353322 -17.212105841077978 7.287529855329673 -0.82903758062907751 0 -0.55919289150049634 0.55919289150049634 0 -0.82903758062907751 1 I I #
vertex $-1 $262 $440 #
point $-1 67.24071241036485 -13.344248957073216 5.3757056119019531 #
loop $-1 $-1 $441 $254 #
straight-curve $-1 -70.32807397686696 33.814223892207046 0 0 0 -1 I I #
point $-1 -70.32807397686696 -33.814223892207046 -10.313818148389359 #
straight-curve $-1 -70.32807397686696 0 -10.313818148389359 0 1 0 I I #
point $-1 -70.32807397686696 33.814223892207046 -10.313818148389359 #
face $-1 $442 $443 $16 $-1 $444 reversed single #
plane-surface $-1 0 0 -10.313818148389359 0 0 1 1 0 0 forward_v I I I I #
coedge $-1 $445 $285 $299 $373 reversed $198 $-1 #
coedge $-1 $285 $445 $302 $377 reversed $198 $-1 #
edge $-1 $363 -10.313818148389359 $361 10.313818148389359 $285 $446 forward 7 unknown #
vertex $-1 $287 $447 #
straight-curve $-1 -57.514844645085745 -38.024762168913085 -10.313818148389359 0 -1 0 I I #
vertex $-1 $377 $448 #
straight-curve $-1 -57.514844645085745 -38.024762168913085 10.313818148389359 0 1 0 I I #
coedge $-1 $374 $290 $449 $450 forward $212 $-1 #
coedge $-1 $292 $378 $451 $452 forward $216 $-1 #
coedge $-1 $451 $449 $294 $368 reversed $443 $-1 #
edge $-1 $369 -10.313818148389359 $371 10.313818148389359 $367 $453 forward 7 unknown #
vertex $-1 $452 $454 #
straight-curve $-1 0 -33.814223892207046 10.313818148389359 1 0 0 I I #
vertex $-1 $450 $455 #
straight-curve $-1 0 -33.814223892207046 -10.313818148389359 -1 0 0 I I #
edge $-1 $456 -70.32807397686696 $361 57.514844645085745 $358 $372 forward 7 unknown #
coedge $-1 $300 $365 $457 $458 forward $212 $-1 #
coedge $-1 $459 $460 $300 $376 reversed $461 $-1 #
edge $-1 $462 -33.814223892207046 $456 33.814223892207046 $375 $463 forward 7 unknown #
edge $-1 $363 -57.514844645085745 $464 70.32807397686696 $359 $370 forward 7 unknown #
coedge $-1 $366 $303 $465 $466 forward $216 $-1 #
coedge $-1 $460 $459 $303 $380 reversed $461 $-1 #
edge $-1 $464 -33.814223892207046 $467 33.814223892207046 $379 $468 forward 7 unknown #
face $-1 $469 $470 $17 $-1 $471 reversed single #
loop $-1 $-1 $472 $305 #
plane-surface $-1 -57.514844645085745 -38.024762168913085 0 -1 0 0 0 0 1 forward_v I I I I #
coedge $-1 $473 $474 $475 $476 reversed $306 $-1 #
coedge $-1 $477 $308 $478 $479 reversed $222 $-1 #
coedge $-1 $308 $477 $480 $481 reversed $222 $-1 #
coedge $-1 $474 $473 $308 $388 reversed $306 $-1 #
edge $-1 $482 -10.313818148389359 $483 10.313818148389359 $387 $484 forward 7 unknown #
coedge $-1 $309 $485 $486 $487 forward $138 $-1 #
coedge $-1 $488 $310 $309 $391 reversed $236 $-1 #
edge $-1 $489 -33.814223892207046 $312 -19.790677097081151 $390 $325 forward 7 unknown #
straight-curve $-1 70.32807397686696 -19.790677097081151 99.76219612200461 0 0 1 I I #
point $-1 70.32807397686696 -19.790677097081151 10.313818148389359 #
straight-curve $-1 70.32807397686696 -7.6390886995377976 4.2612415622699729 0 -1 0 I I #
point $-1 70.32807397686696 -19.790677097081151 4.2612415622699871 #
coedge $-1 $319 $488 $490 $491 reversed $236 $-1 #
coedge $-1 $492 $322 $319 $398 forward $404 $-1 #
edge $-1 $324 -10.313818148389359 $493 10.313818148389359 $319 $494 forward 7 unknown #
plane-surface $-1 70.32807397686696 0 0 -1 0 0 0 0 1 forward_v I I I I #
coedge $-1 $495 $321 $496 $497 forward $138 $-1 #
coedge $-1 $498 $499 $321 $402 reversed $500 $-1 #
edge $-1 $405 -33.814223892207046 $501 33.814223892207046 $401 $502 forward 7 unknown #
coedge $-1 $322 $492 $498 $503 reversed $404 $-1 #
loop $-1 $-1 $397 $504 #
vertex $-1 $323 $505 #
straight-curve $-1 0 33.814223892207046 10.313818148389359 -1 0 0 I I #
point $-1 70.32807397686696 33.814223892207046 10.313818148389359 #
face $-1 $506 $507 $18 $-1 $508 reversed single #
loop $-1 $-1 $509 $326 #
plane-surface $-1 -59.876160370278839 -42.235300445619117 0 0 1 0 0 0 1 forward_v I I I I #
coedge $-1 $336 $510 $329 $414 forward $327 $-1 #
coedge $-1 $413 $329 $511 $512 reversed $243 $-1 #
coedge $-1 $329 $412 $415 $513 forward $243 $-1 #
edge $-1 $514 -16.186379729133961 $515 -12.103865400106699 $411 $516 forward 7 unknown #
coedge $-1 $417 $330 $413 $513 reversed $245 $-1 #
edge $-1 $515 -12.151588397543353 $337 -3.1265890015322402 $336 $517 forward 7 unknown #
coedge $-1 $331 $415 $420 $518 reversed $245 $-1 #
vertex $-1 $518 $519 #
straight-curve $-1 -8.3258441047031368 -10.765677701070038 120.87047416243912 0.55919289150049634 0 -0.82903758062907751 I I #
coedge $-1 $511 $333 $417 $518 forward $422 $-1 #
coedge $-1 $333 $520 $335 $425 reversed $422 $-1 #
loop $-1 $-1 $511 $521 #
straight-curve $-1 70.32807397686696 -10.765677701070038 99.76219612200461 0 0 -1 I I #
coedge $-1 $522 $335 $523 $524 forward $327 $-1 #
edge $-1 $338 -10.765677701070038 $525 33.814223892207046 $421 $526 forward 7 unknown #
point $-1 66.245559647839698 -10.765677701070038 10.313818148389359 #
point $-1 70.32807397686696 -10.765677701070038 10.313818148389359 #
point $-1 65.852481938235272 -17.212105841077978 5.6455503010305348 #
face $-1 $527 $528 $19 $-1 $529 forward single #
loop $-1 $-1 $530 $342 #
plane-surface $-1 108.283388495466 -19.790677097081151 199.52439224400922 0 1 0 0.82903758062907751 0 0.55919289150049634 forward_v I I I I #
coedge $-1 $433 $344 $531 $532 forward $255 $-1 #
coedge $-1 $344 $432 $533 $534 reversed $255 $-1 #
coedge $-1 $535 $536 $344 $435 forward $528 $-1 #
edge $-1 $537 12.103865400106699 $538 16.186379729133961 $434 $539 forward 7 unknown #
edge $-1 $540 1 $540 0 $345 $-1 forward 7 unknown #
vertex $-1 $346 $541 #
ellipse-curve $-1 66.681519518864363 -17.212105841077978 6.2047431925310308 0.82903758062907751 0 0.55919289150049634 0.55919289150049634 0 -0.82903758062907751 1 I I #
point $-1 68.846009703853838 -17.212105841077978 6.4584922747006068 #
point $-1 65.852481938235272 -13.344248957073216 5.6455503010305348 #
coedge $-1 $542 $531 $536 $543 reversed $351 $-1 #
face $-1 $544 $545 $16 $-1 $546 reversed single #
loop $-1 $-1 $547 $356 #
plane-surface $-1 -70.32807397686696 0 0 1 0 0 0 0 -1 forward_v I I I I #
coedge $-1 $359 $358 $460 $548 reversed $198 $-1 #
straight-curve $-1 -57.514844645085745 -33.814223892207046 0 0 0 -1 I I #
point $-1 -57.514844645085745 -33.814223892207053 -10.313818148389359 #
point $-1 -57.514844645085745 -33.814223892207053 10.313818148389359 #
coedge $-1 $367 $547 $365 $450 reversed $443 $-1 #
edge $-1 $371 -33.814223892207046 $549 33.814223892207046 $449 $550 forward 7 unknown #
coedge $-1 $547 $367 $366 $452 reversed $443 $-1 #
edge $-1 $551 -33.814223892207046 $369 33.814223892207046 $451 $552 forward 7 unknown #
straight-curve $-1 -70.32807397686696 -33.814223892207046 0 0 0 -1 I I #
point $-1 -70.32807397686696 -33.814223892207046 10.313818148389359 #
point $-1 -70.32807397686696 -33.814223892207046 -10.313818148389359 #
vertex $-1 $548 $553 #
coedge $-1 $554 $555 $374 $458 reversed $545 $-1 #
edge $-1 $549 -70.32807397686696 $462 70.32807397686696 $457 $556 forward 7 unknown #
coedge $-1 $379 $375 $555 $557 reversed $461 $-1 #
coedge $-1 $375 $379 $445 $548 forward $461 $-1 #
loop $-1 $-1 $460 $544 #
vertex $-1 $376 $558 #
straight-curve $-1 70.32807397686696 0 -10.313818148389359 0 -1 0 I I #
vertex $-1 $380 $559 #
coedge $-1 $555 $554 $378 $466 reversed $545 $-1 #
edge $-1 $467 -70.32807397686696 $551 70.32807397686696 $465 $560 forward 7 unknown #
vertex $-1 $380 $561 #
straight-curve $-1 70.32807397686696 0 10.313818148389359 0 1 0 I I #
face $-1 $562 $563 $17 $-1 $471 reversed single #
loop $-1 $-1 $475 $381 #
plane-surface $-1 0 -33.814223892207046 0 0 1 0 0 0 1 forward_v I I I I #
coedge $-1 $564 $565 $477 $566 forward $382 $-1 #
coedge $-1 $387 $384 $567 $568 reversed $306 $-1 #
coedge $-1 $384 $387 $495 $569 reversed $306 $-1 #
coedge $-1 $496 $570 $384 $476 forward $470 $-1 #
edge $-1 $571 -10.313818148389359 $572 10.313818148389359 $475 $573 forward 7 unknown #
coedge $-1 $386 $385 $472 $566 reversed $222 $-1 #
coedge $-1 $567 $574 $385 $479 forward $575 $-1 #
edge $-1 $576 -2.3613157251930943 $483 2.3613157251930943 $385 $577 forward 7 unknown #
coedge $-1 $485 $495 $386 $481 forward $138 $-1 #
edge $-1 $482 -2.3613157251930943 $578 2.3613157251930943 $386 $579 forward 7 unknown #
vertex $-1 $569 $580 #
vertex $-1 $568 $581 #
straight-curve $-1 -62.237476095471933 -42.235300445619117 0 0 0 -1 I I #
coedge $-1 $389 $480 $565 $582 forward $138 $-1 #
coedge $-1 $583 $584 $389 $487 reversed $563 $-1 #
edge $-1 $585 -57.514844645085745 $489 70.32807397686696 $486 $586 forward 7 unknown #
coedge $-1 $396 $390 $584 $587 forward $236 $-1 #
vertex $-1 $391 $588 #
coedge $-1 $589 $590 $396 $491 forward $575 $-1 #
edge $-1 $493 -33.814223892207046 $591 33.814223892207046 $396 $592 forward 7 unknown #
coedge $-1 $403 $397 $590 $593 reversed $404 $-1 #
vertex $-1 $491 $594 #
straight-curve $-1 70.32807397686696 33.814223892207046 0 0 0 -1 I I #
coedge $-1 $480 $400 $474 $569 forward $138 $-1 #
coedge $-1 $595 $475 $400 $497 reversed $470 $-1 #
edge $-1 $501 -70.32807397686696 $572 -62.237476095471933 $496 $586 forward 7 unknown #
coedge $-1 $596 $401 $403 $503 forward $500 $-1 #
coedge $-1 $401 $596 $595 $597 reversed $500 $-1 #
loop $-1 $-1 $498 $598 #
vertex $-1 $402 $599 #
straight-curve $-1 -70.32807397686696 0 10.313818148389359 0 -1 0 I I #
edge $-1 $405 -10.313818148389359 $600 10.313818148389359 $403 $601 forward 7 unknown #
face $-1 $320 $404 $17 $-1 $602 reversed single #
point $-1 -70.32807397686696 33.814223892207046 10.313818148389359 #
face $-1 $603 $604 $18 $-1 $605 reversed single #
loop $-1 $-1 $606 $408 #
plane-surface $-1 -62.237476095471933 -38.024762168913085 0 1 0 0 0 0 -1 forward_v I I I I #
coedge $-1 $607 $608 $609 $610 forward $409 $-1 #
coedge $-1 $411 $611 $612 $613 forward $327 $-1 #
coedge $-1 $612 $420 $412 $512 forward $422 $-1 #
edge $-1 $614 -95.500954559734623 $514 -89.448377973615251 $511 $615 forward 7 unknown #
edge $-1 $614 -140.65614795373392 $515 -133.35542151196435 $413 $616 forward 7 unknown #
vertex $-1 $512 $617 #
vertex $-1 $416 $618 #
straight-curve $-1 54.141694247733 -19.790677097081151 10.313818148389359 -1 0 0 I I #
straight-curve $-1 66.245559647839698 -7.6390886995377976 10.313818148389359 0 1 0 I I #
edge $-1 $418 3.1265890015322402 $614 12.151588397543353 $420 $619 forward 7 unknown #
point $-1 70.32807397686696 -10.765677701070038 4.2612415622699871 #
coedge $-1 $421 $620 $621 $622 reversed $422 $-1 #
face $-1 $-1 $422 $18 $-1 $623 reversed single #
coedge $-1 $624 $424 $625 $626 forward $327 $-1 #
coedge $-1 $621 $627 $424 $524 reversed $628 $-1 #
edge $-1 $525 -70.32807397686696 $629 70.32807397686696 $523 $630 forward 7 unknown #
vertex $-1 $425 $631 #
straight-curve $-1 70.32807397686696 0 10.313818148389359 0 1 0 I I #
face $-1 $632 $633 $19 $-1 $634 reversed single #
loop $-1 $-1 $635 $429 #
plane-surface $-1 0 0 10.313818148389359 0 0 1 1 0 0 forward_v I I I I #
coedge $-1 $636 $637 $635 $638 reversed $430 $-1 #
coedge $-1 $441 $639 $432 $532 reversed $351 $-1 #
edge $-1 $537 133.35542151196435 $640 140.65614795373392 $432 $641 forward 7 unknown #
coedge $-1 $642 $643 $433 $534 forward $644 $-1 #
edge $-1 $538 89.448377973615251 $640 95.500954559734623 $533 $645 forward 7 unknown #
coedge $-1 $646 $434 $643 $647 forward $528 $-1 #
coedge $-1 $434 $635 $441 $543 forward $528 $-1 #
vertex $-1 $543 $648 #
vertex $-1 $647 $649 #
straight-curve $-1 54.141694247733 -10.765677701070038 10.313818148389359 1 0 0 I I #
vertex $-1 $436 $650 #
point $-1 67.24071241036485 -17.212105841077978 5.3757056119019531 #
coedge $-1 $639 $441 $637 $651 reversed $351 $-1 #
edge $-1 $652 -12.151588397543353 $537 -3.1265890015322402 $536 $653 forward 7 unknown #
face $-1 $-1 $461 $16 $-1 $654 reversed single #
loop $-1 $-1 $555 $442 #
plane-surface $-1 0 33.814223892207046 0 0 -1 0 0 0 -1 forward_v I I I I #
coedge $-1 $449 $451 $554 $655 forward $443 $-1 #
edge $-1 $464 -10.313818148389359 $456 10.313818148389359 $460 $656 forward 7 unknown #
vertex $-1 $458 $657 #
straight-curve $-1 -70.32807397686696 0 -10.313818148389359 0 1 0 I I #
vertex $-1 $466 $658 #
straight-curve $-1 -70.32807397686696 0 10.313818148389359 0 -1 0 I I #
point $-1 70.32807397686696 -33.814223892207046 -10.313818148389359 #
coedge $-1 $465 $457 $547 $655 reversed $545 $-1 #
coedge $-1 $457 $465 $459 $557 forward $545 $-1 #
straight-curve $-1 0 33.814223892207046 -10.313818148389359 1 0 0 I I #
edge $-1 $467 -10.313818148389359 $462 10.313818148389359 $459 $659 forward 7 unknown #
point $-1 70.32807397686696 33.814223892207046 -10.313818148389359 #
point $-1 70.32807397686696 -33.814223892207046 10.313818148389359 #
straight-curve $-1 0 33.814223892207046 10.313818148389359 -1 0 0 I I #
point $-1 70.32807397686696 33.814223892207046 10.313818148389359 #
face $-1 $598 $575 $17 $-1 $660 reversed single #
loop $-1 $-1 $583 $469 #
coedge $-1 $661 $472 $574 $662 reversed $382 $-1 #
coedge $-1 $472 $661 $485 $582 reversed $382 $-1 #
edge $-1 $578 -10.313818148389359 $576 10.313818148389359 $472 $663 forward 7 unknown #
coedge $-1 $664 $478 $473 $568 forward $575 $-1 #
edge $-1 $483 -4.210538276706032 $571 4.210538276706032 $473 $665 forward 7 unknown #
edge $-1 $572 -4.210538276706032 $482 4.210538276706032 $474 $666 forward 7 unknown #
coedge $-1 $475 $595 $664 $667 reversed $470 $-1 #
vertex $-1 $667 $668 #
vertex $-1 $569 $669 #
straight-curve $-1 -62.237476095471933 -33.814223892207046 0 0 0 1 I I #
coedge $-1 $478 $589 $564 $662 forward $575 $-1 #
loop $-1 $-1 $490 $562 #
vertex $-1 $566 $670 #
straight-curve $-1 -59.876160370278839 -42.235300445619117 -10.313818148389359 -1 0 0 I I #
vertex $-1 $582 $671 #
straight-curve $-1 -59.876160370278839 -42.235300445619117 10.313818148389359 1 0 0 I I #
point $-1 -62.237476095471933 -42.235300445619117 10.313818148389359 #
point $-1 -62.237476095471933 -42.235300445619117 -10.313818148389359 #
edge $-1 $578 -4.210538276706032 $585 4.210538276706032 $565 $672 forward 7 unknown #
coedge $-1 $673 $486 $661 $674 forward $563 $-1 #
coedge $-1 $486 $673 $488 $587 reversed $563 $-1 #
vertex $-1 $487 $675 #
straight-curve $-1 0 -33.814223892207046 10.313818148389359 1 0 0 I I #
edge $-1 $489 -10.313818148389359 $591 10.313818148389359 $488 $676 forward 7 unknown #
point $-1 70.32807397686696 -33.814223892207046 10.313818148389359 #
coedge $-1 $574 $490 $673 $677 forward $575 $-1 #
coedge $-1 $490 $678 $492 $593 forward $575 $-1 #
vertex $-1 $587 $679 #
straight-curve $-1 70.32807397686696 0 -10.313818148389359 0 -1 0 I I #
edge $-1 $600 -70.32807397686696 $493 70.32807397686696 $492 $680 forward 7 unknown #
point $-1 70.32807397686696 33.814223892207046 -10.313818148389359 #
coedge $-1 $570 $496 $499 $597 forward $470 $-1 #
coedge $-1 $499 $498 $678 $681 reversed $500 $-1 #
edge $-1 $501 -10.313818148389359 $682 10.313818148389359 $499 $683 forward 7 unknown #
face $-1 $504 $500 $17 $-1 $684 reversed single #
point $-1 -70.32807397686696 -33.814223892207046 10.313818148389359 #
vertex $-1 $593 $685 #
straight-curve $-1 -70.32807397686696 33.814223892207046 0 0 0 -1 I I #
plane-surface $-1 0 33.814223892207046 0 0 -1 0 0 0 -1 forward_v I I I I #
face $-1 $686 $687 $18 $-1 $688 reversed single #
loop $-1 $-1 $689 $506 #
plane-surface $-1 -57.514844645085745 -38.024762168913085 0 -1 0 0 0 0 1 forward_v I I I I #
coedge $-1 $690 $691 $692 $693 reversed $507 $-1 #
coedge $-1 $694 $509 $695 $696 reversed $409 $-1 #
coedge $-1 $509 $694 $697 $698 reversed $409 $-1 #
coedge $-1 $691 $690 $509 $610 reversed $507 $-1 #
edge $-1 $699 -10.313818148389359 $700 10.313818148389359 $609 $701 forward 7 unknown #
coedge $-1 $510 $702 $703 $704 forward $327 $-1 #
coedge $-1 $705 $511 $510 $613 reversed $422 $-1 #
edge $-1 $706 -33.814223892207046 $514 -19.790677097081151 $612 $526 forward 7 unknown #
vertex $-1 $518 $707 #
straight-curve $-1 70.32807397686696 -19.790677097081151 99.76219612200461 0 0 1 I I #
straight-curve $-1 -8.3258441047031368 -19.790677097081151 120.87047416243912 -0.55919289150049634 0 0.82903758062907751 I I #
point $-1 70.32807397686696 -19.790677097081151 10.313818148389359 #
point $-1 66.245559647839698 -19.790677097081151 10.313818148389359 #
straight-curve $-1 70.32807397686696 -7.6390886995377976 4.2612415622699729 0 -1 0 I I #
coedge $-1 $520 $705 $708 $709 reversed $422 $-1 #
coedge $-1 $710 $523 $520 $622 forward $628 $-1 #
edge $-1 $525 -10.313818148389359 $711 10.313818148389359 $520 $712 forward 7 unknown #
plane-surface $-1 70.32807397686696 0 0 -1 0 0 0 0 1 forward_v I I I I #
coedge $-1 $713 $522 $714 $715 forward $327 $-1 #
coedge $-1 $716 $717 $522 $626 reversed $718 $-1 #
edge $-1 $629 -33.814223892207046 $719 33.814223892207046 $625 $720 forward 7 unknown #
coedge $-1 $523 $710 $716 $721 reversed $628 $-1 #
loop $-1 $-1 $621 $722 #
vertex $-1 $524 $723 #
straight-curve $-1 0 33.814223892207046 10.313818148389359 -1 0 0 I I #
point $-1 70.32807397686696 33.814223892207046 10.313818148389359 #
face $-1 $724 $725 $19 $-1 $726 reversed single #
loop $-1 $-1 $727 $527 #
plane-surface $-1 -59.876160370278839 -42.235300445619117 0 0 1 0 0 0 1 forward_v I I I I #
coedge $-1 $536 $728 $530 $638 forward $528 $-1 #
coedge $-1 $637 $530 $729 $730 reversed $430 $-1 #
coedge $-1 $530 $636 $542 $651 forward $430 $-1 #
edge $-1 $731 -16.186379729133961 $652 -12.103865400106699 $635 $732 forward 7 unknown #
coedge $-1 $531 $542 $642 $733 reversed $351 $-1 #
vertex $-1 $733 $734 #
straight-curve $-1 -8.3258441047031368 -10.765677701070038 120.87047416243912 0.55919289150049634 0 -0.82903758062907751 I I #
coedge $-1 $729 $533 $639 $733 forward $644 $-1 #
coedge $-1 $533 $735 $535 $647 reversed $644 $-1 #
loop $-1 $-1 $729 $736 #
straight-curve $-1 70.32807397686696 -10.765677701070038 99.76219612200461 0 0 -1 I I #
coedge $-1 $737 $535 $738 $739 forward $528 $-1 #
edge $-1 $538 -10.765677701070038 $740 33.814223892207046 $643 $741 forward 7 unknown #
point $-1 66.245559647839698 -10.765677701070038 10.313818148389359 #
point $-1 70.32807397686696 -10.765677701070038 10.313818148389359 #
point $-1 65.852481938235272 -17.212105841077978 5.6455503010305348 #
edge $-1 $742 -140.65614795373392 $652 -133.35542151196435 $637 $743 forward 7 unknown #
vertex $-1 $543 $744 #
straight-curve $-1 66.245559647839698 -7.6390886995377976 10.313818148389359 0 1 0 I I #
plane-surface $-1 70.32807397686696 0 0 -1 0 0 0 0 1 forward_v I I I I #
edge $-1 $551 -10.313818148389359 $549 10.313818148389359 $554 $745 forward 7 unknown #
straight-curve $-1 70.32807397686696 -33.814223892207046 0 0 0 -1 I I #
point $-1 -70.32807397686696 33.814223892207046 -10.313818148389359 #
point $-1 -70.32807397686696 33.814223892207046 10.313818148389359 #
straight-curve $-1 70.32807397686696 33.814223892207046 0 0 0 -1 I I #
plane-surface $-1 0 0 -10.313818148389359 0 0 1 1 0 0 forward_v I I I I #
coedge $-1 $565 $564 $583 $674 reversed $382 $-1 #
edge $-1 $746 -4.210538276706032 $576 4.210538276706032 $564 $747 forward 7 unknown #
straight-curve $-1 -57.514844645085745 -42.235300445619117 0 0 0 -1 I I #
coedge $-1 $678 $567 $570 $667 forward $575 $-1 #
straight-curve $-1 -62.237476095471933 -38.024762168913085 -10.313818148389359 0 1 0 I I #
straight-curve $-1 -62.237476095471933 -38.024762168913085 10.313818148389359 0 -1 0 I I #
edge $-1 $571 62.237476095471933 $682 70.32807397686696 $570 $748 forward 7 unknown #
point $-1 -62.237476095471933 -33.814223892207053 -10.313818148389359 #
point $-1 -62.237476095471933 -33.814223892207053 10.313818148389359 #
point $-1 -57.514844645085745 -42.235300445619117 -10.313818148389359 #
point $-1 -57.514844645085745 -42.235300445619117 10.313818148389359 #
straight-curve $-1 -57.514844645085745 -38.024762168913085 10.313818148389359 0 1 0 I I #
coedge $-1 $584 $583 $589 $677 reversed $563 $-1 #
edge $-1 $585 -10.313818148389359 $746 10.313818148389359 $583 $749 forward 7 unknown #
point $-1 -57.514844645085745 -33.814223892207053 10.313818148389359 #
straight-curve $-1 70.32807397686696 -33.814223892207046 0 0 0 -1 I I #
edge $-1 $591 -70.32807397686696 $746 57.514844645085745 $673 $748 forward 7 unknown #
coedge $-1 $590 $664 $596 $681 forward $575 $-1 #
point $-1 70.32807397686696 -33.814223892207046 -10.313818148389359 #
straight-curve $-1 0 33.814223892207046 -10.313818148389359 1 0 0 I I #
edge $-1 $682 -33.814223892207046 $600 33.814223892207046 $596 $750 forward 7 unknown #
vertex $-1 $681 $751 #
straight-curve $-1 -70.32807397686696 -33.814223892207046 0 0 0 -1 I I #
plane-surface $-1 -70.32807397686696 0 0 1 0 0 0 0 -1 forward_v I I I I #
point $-1 -70.32807397686696 33.814223892207046 -10.313818148389359 #
face $-1 $752 $753 $18 $-1 $688 reversed single #
loop $-1 $-1 $692 $603 #
plane-surface $-1 0 -33.814223892207046 0 0 1 0 0 0 1 forward_v I I I I #
coedge $-1 $754 $755 $694 $756 forward $604 $-1 #
coedge $-1 $609 $606 $757 $758 reversed $507 $-1 #
coedge $-1 $606 $609 $713 $759 reversed $507 $-1 #
coedge $-1 $714 $760 $606 $693 forward $687 $-1 #
edge $-1 $761 -10.313818148389359 $762 10.313818148389359 $692 $763 forward 7 unknown #
coedge $-1 $608 $607 $689 $756 reversed $409 $-1 #
coedge $-1 $757 $764 $607 $696 forward $765 $-1 #
edge $-1 $766 -2.3613157251930943 $700 2.3613157251930943 $607 $767 forward 7 unknown #
coedge $-1 $702 $713 $608 $698 forward $327 $-1 #
edge $-1 $699 -2.3613157251930943 $768 2.3613157251930943 $608 $769 forward 7 unknown #
vertex $-1 $759 $770 #
vertex $-1 $758 $771 #
straight-curve $-1 -62.237476095471933 -42.235300445619117 0 0 0 -1 I I #
coedge $-1 $611 $697 $755 $772 forward $327 $-1 #
coedge $-1 $773 $774 $611 $704 reversed $753 $-1 #
edge $-1 $775 -57.514844645085745 $706 70.32807397686696 $703 $776 forward 7 unknown #
coedge $-1 $620 $612 $774 $777 forward $422 $-1 #
vertex $-1 $613 $778 #
point $-1 70.32807397686696 -19.790677097081151 4.2612415622699871 #
coedge $-1 $779 $780 $620 $709 forward $765 $-1 #
edge $-1 $711 -33.814223892207046 $781 33.814223892207046 $620 $782 forward 7 unknown #
coedge $-1 $627 $621 $780 $783 reversed $628 $-1 #
vertex $-1 $709 $784 #
straight-curve $-1 70.32807397686696 33.814223892207046 0 0 0 -1 I I #
coedge $-1 $697 $624 $691 $759 forward $327 $-1 #
coedge $-1 $785 $692 $624 $715 reversed $687 $-1 #
edge $-1 $719 -70.32807397686696 $762 -62.237476095471933 $714 $776 forward 7 unknown #
coedge $-1 $786 $625 $627 $721 forward $718 $-1 #
coedge $-1 $625 $786 $785 $787 reversed $718 $-1 #
loop $-1 $-1 $716 $788 #
vertex $-1 $626 $789 #
straight-curve $-1 -70.32807397686696 0 10.313818148389359 0 -1 0 I I #
edge $-1 $629 -10.313818148389359 $790 10.313818148389359 $627 $791 forward 7 unknown #
face $-1 $521 $628 $18 $-1 $792 reversed single #
point $-1 -70.32807397686696 33.814223892207046 10.313818148389359 #
face $-1 $793 $794 $19 $-1 $795 reversed single #
loop $-1 $-1 $796 $632 #
plane-surface $-1 -62.237476095471933 -38.024762168913085 0 1 0 0 0 0 -1 forward_v I I I I #
coedge $-1 $797 $798 $799 $800 forward $633 $-1 #
coedge $-1 $635 $801 $802 $803 forward $528 $-1 #
coedge $-1 $802 $642 $636 $730 forward $644 $-1 #
edge $-1 $742 -95.500954559734623 $731 -89.448377973615251 $729 $804 forward 7 unknown #
vertex $-1 $730 $805 #
straight-curve $-1 54.141694247733 -19.790677097081151 10.313818148389359 -1 0 0 I I #
edge $-1 $640 3.1265890015322402 $742 12.151588397543353 $642 $806 forward 7 unknown #
point $-1 70.32807397686696 -10.765677701070038 4.2612415622699871 #
coedge $-1 $643 $807 $808 $809 reversed $644 $-1 #
face $-1 $-1 $644 $19 $-1 $810 reversed single #
coedge $-1 $811 $646 $812 $813 forward $528 $-1 #
coedge $-1 $808 $814 $646 $739 reversed $815 $-1 #
edge $-1 $740 -70.32807397686696 $816 70.32807397686696 $738 $817 forward 7 unknown #
vertex $-1 $647 $818 #
straight-curve $-1 70.32807397686696 0 10.313818148389359 0 1 0 I I #
vertex $-1 $733 $819 #
straight-curve $-1 -8.3258441047031368 -19.790677097081151 120.87047416243912 -0.55919289150049634 0 0.82903758062907751 I I #
point $-1 66.245559647839698 -19.790677097081151 10.313818148389359 #
straight-curve $-1 -70.32807397686696 33.814223892207046 0 0 0 -1 I I #
vertex $-1 $662 $820 #
straight-curve $-1 -57.514844645085745 -38.024762168913085 -10.313818148389359 0 -1 0 I I #
straight-curve $-1 0 -33.814223892207046 -10.313818148389359 -1 0 0 I I #
straight-curve $-1 -57.514844645085745 -33.814223892207046 0 0 0 -1 I I #
straight-curve $-1 -70.32807397686696 0 -10.313818148389359 0 1 0 I I #
point $-1 -70.32807397686696 -33.814223892207046 -10.313818148389359 #
face $-1 $788 $765 $18 $-1 $821 reversed single #
loop $-1 $-1 $773 $686 #
coedge $-1 $822 $689 $764 $823 reversed $604 $-1 #
coedge $-1 $689 $822 $702 $772 reversed $604 $-1 #
edge $-1 $768 -10.313818148389359 $766 10.313818148389359 $689 $824 forward 7 unknown #
coedge $-1 $825 $695 $690 $758 forward $765 $-1 #
edge $-1 $700 -4.210538276706032 $761 4.210538276706032 $690 $826 forward 7 unknown #
edge $-1 $762 -4.210538276706032 $699 4.210538276706032 $691 $827 forward 7 unknown #
coedge $-1 $692 $785 $825 $828 reversed $687 $-1 #
vertex $-1 $828 $829 #
vertex $-1 $759 $830 #
straight-curve $-1 -62.237476095471933 -33.814223892207046 0 0 0 1 I I #
coedge $-1 $695 $779 $754 $823 forward $765 $-1 #
loop $-1 $-1 $708 $752 #
vertex $-1 $756 $831 #
straight-curve $-1 -59.876160370278839 -42.235300445619117 -10.313818148389359 -1 0 0 I I #
vertex $-1 $772 $832 #
straight-curve $-1 -59.876160370278839 -42.235300445619117 10.313818148389359 1 0 0 I I #
point $-1 -62.237476095471933 -42.235300445619117 10.313818148389359 #
point $-1 -62.237476095471933 -42.235300445619117 -10.313818148389359 #
edge $-1 $768 -4.210538276706032 $775 4.210538276706032 $755 $833 forward 7 unknown #
coedge $-1 $834 $703 $822 $835 forward $753 $-1 #
coedge $-1 $703 $834 $705 $777 reversed $753 $-1 #
vertex $-1 $704 $836 #
straight-curve $-1 0 -33.814223892207046 10.313818148389359 1 0 0 I I #
edge $-1 $706 -10.313818148389359 $781 10.313818148389359 $705 $837 forward 7 unknown #
point $-1 70.32807397686696 -33.814223892207046 10.313818148389359 #
coedge $-1 $764 $708 $834 $838 forward $765 $-1 #
coedge $-1 $708 $839 $710 $783 forward $765 $-1 #
vertex $-1 $777 $840 #
straight-curve $-1 70.32807397686696 0 -10.313818148389359 0 -1 0 I I #
edge $-1 $790 -70.32807397686696 $711 70.32807397686696 $710 $841 forward 7 unknown #
point $-1 70.32807397686696 33.814223892207046 -10.313818148389359 #
coedge $-1 $760 $714 $717 $787 forward $687 $-1 #
coedge $-1 $717 $716 $839 $842 reversed $718 $-1 #
edge $-1 $719 -10.313818148389359 $843 10.313818148389359 $717 $844 forward 7 unknown #
face $-1 $722 $718 $18 $-1 $845 reversed single #
point $-1 -70.32807397686696 -33.814223892207046 10.313818148389359 #
vertex $-1 $783 $846 #
straight-curve $-1 -70.32807397686696 33.814223892207046 0 0 0 -1 I I #
plane-surface $-1 0 33.814223892207046 0 0 -1 0 0 0 -1 forward_v I I I I #
face $-1 $847 $848 $19 $-1 $849 reversed single #
loop $-1 $-1 $850 $724 #
plane-surface $-1 -57.514844645085745 -38.024762168913085 0 -1 0 0 0 0 1 forward_v I I I I #
coedge $-1 $851 $852 $853 $854 reversed $725 $-1 #
coedge $-1 $855 $727 $856 $857 reversed $633 $-1 #
coedge $-1 $727 $855 $858 $859 reversed $633 $-1 #
coedge $-1 $852 $851 $727 $800 reversed $725 $-1 #
edge $-1 $860 -10.313818148389359 $861 10.313818148389359 $799 $862 forward 7 unknown #
coedge $-1 $728 $863 $864 $865 forward $528 $-1 #
coedge $-1 $866 $729 $728 $803 reversed $644 $-1 #
edge $-1 $867 -33.814223892207046 $731 -19.790677097081151 $802 $741 forward 7 unknown #
straight-curve $-1 70.32807397686696 -19.790677097081151 99.76219612200461 0 0 1 I I #
point $-1 70.32807397686696 -19.790677097081151 10.313818148389359 #
straight-curve $-1 70.32807397686696 -7.6390886995377976 4.2612415622699729 0 -1 0 I I #
coedge $-1 $735 $866 $868 $869 reversed $644 $-1 #
coedge $-1 $870 $738 $735 $809 forward $815 $-1 #
edge $-1 $740 -10.313818148389359 $871 10.313818148389359 $735 $872 forward 7 unknown #
plane-surface $-1 70.32807397686696 0 0 -1 0 0 0 0 1 forward_v I I I I #
coedge $-1 $873 $737 $874 $875 forward $528 $-1 #
coedge $-1 $876 $877 $737 $813 reversed $878 $-1 #
edge $-1 $816 -33.814223892207046 $879 33.814223892207046 $812 $880 forward 7 unknown #
coedge $-1 $738 $870 $876 $881 reversed $815 $-1 #
loop $-1 $-1 $808 $882 #
vertex $-1 $739 $883 #
straight-curve $-1 0 33.814223892207046 10.313818148389359 -1 0 0 I I #
point $-1 70.32807397686696 33.814223892207046 10.313818148389359 #
point $-1 70.32807397686696 -19.790677097081151 4.2612415622699871 #
point $-1 -57.514844645085745 -33.814223892207053 -10.313818148389359 #
plane-surface $-1 0 0 -10.313818148389359 0 0 1 1 0 0 forward_v I I I I #
coedge $-1 $755 $754 $773 $835 reversed $604 $-1 #
edge $-1 $884 -4.210538276706032 $766 4.210538276706032 $754 $885 forward 7 unknown #
straight-curve $-1 -57.514844645085745 -42.235300445619117 0 0 0 -1 I I #
coedge $-1 $839 $757 $760 $828 forward $765 $-1 #
straight-curve $-1 -62.237476095471933 -38.024762168913085 -10.313818148389359 0 1 0 I I #
straight-curve $-1 -62.237476095471933 -38.024762168913085 10.313818148389359 0 -1 0 I I #
edge $-1 $761 62.237476095471933 $843 70.32807397686696 $760 $886 forward 7 unknown #
point $-1 -62.237476095471933 -33.814223892207053 -10.313818148389359 #
point $-1 -62.237476095471933 -33.814223892207053 10.313818148389359 #
point $-1 -57.514844645085745 -42.235300445619117 -10.313818148389359 #
point $-1 -57.514844645085745 -42.235300445619117 10.313818148389359 #
straight-curve $-1 -57.514844645085745 -38.024762168913085 10.313818148389359 0 1 0 I I #
coedge $-1 $774 $773 $779 $838 reversed $753 $-1 #
edge $-1 $775 -10.313818148389359 $884 10.313818148389359 $773 $887 forward 7 unknown #
point $-1 -57.514844645085745 -33.814223892207053 10.313818148389359 #
straight-curve $-1 70.32807397686696 -33.814223892207046 0 0 0 -1 I I #
edge $-1 $781 -70.32807397686696 $884 57.514844645085745 $834 $886 forward 7 unknown #
coedge $-1 $780 $825 $786 $842 forward $765 $-1 #
point $-1 70.32807397686696 -33.814223892207046 -10.313818148389359 #
straight-curve $-1 0 33.814223892207046 -10.313818148389359 1 0 0 I I #
edge $-1 $843 -33.814223892207046 $790 33.814223892207046 $786 $888 forward 7 unknown #
vertex $-1 $842 $889 #
straight-curve $-1 -70.32807397686696 -33.814223892207046 0 0 0 -1 I I #
plane-surface $-1 -70.32807397686696 0 0 1 0 0 0 0 -1 forward_v I I I I #
point $-1 -70.32807397686696 33.814223892207046 -10.313818148389359 #
face $-1 $890 $891 $19 $-1 $849 reversed single #
loop $-1 $-1 $853 $793 #
plane-surface $-1 0 -33.814223892207046 0 0 1 0 0 0 1 forward_v I I I I #
coedge $-1 $892 $893 $855 $894 forward $794 $-1 #
coedge $-1 $799 $796 $895 $896 reversed $725 $-1 #
coedge $-1 $796 $799 $873 $897 reversed $725 $-1 #
coedge $-1 $874 $898 $796 $854 forward $848 $-1 #
edge $-1 $899 -10.313818148389359 $900 10.313818148389359 $853 $901 forward 7 unknown #
coedge $-1 $798 $797 $850 $894 reversed $633 $-1 #
coedge $-1 $895 $902 $797 $857 forward $903 $-1 #
edge $-1 $904 -2.3613157251930943 $861 2.3613157251930943 $797 $905 forward 7 unknown #
coedge $-1 $863 $873 $798 $859 forward $528 $-1 #
edge $-1 $860 -2.3613157251930943 $906 2.3613157251930943 $798 $907 forward 7 unknown #
vertex $-1 $897 $908 #
vertex $-1 $896 $909 #
straight-curve $-1 -62.237476095471933 -42.235300445619117 0 0 0 -1 I I #
coedge $-1 $801 $858 $893 $910 forward $528 $-1 #
coedge $-1 $911 $912 $801 $865 reversed $891 $-1 #
edge $-1 $913 -57.514844645085745 $867 70.32807397686696 $864 $914 forward 7 unknown #
coedge $-1 $807 $802 $912 $915 forward $644 $-1 #
vertex $-1 $803 $916 #
coedge $-1 $917 $918 $807 $869 forward $903 $-1 #
edge $-1 $871 -33.814223892207046 $919 33.814223892207046 $807 $920 forward 7 unknown #
coedge $-1 $814 $808 $918 $921 reversed $815 $-1 #
vertex $-1 $869 $922 #
straight-curve $-1 70.32807397686696 33.814223892207046 0 0 0 -1 I I #
coedge $-1 $858 $811 $852 $897 forward $528 $-1 #
coedge $-1 $923 $853 $811 $875 reversed $848 $-1 #
edge $-1 $879 -70.32807397686696 $900 -62.237476095471933 $874 $914 forward 7 unknown #
coedge $-1 $924 $812 $814 $881 forward $878 $-1 #
coedge $-1 $812 $924 $923 $925 reversed $878 $-1 #
loop $-1 $-1 $876 $926 #
vertex $-1 $813 $927 #
straight-curve $-1 -70.32807397686696 0 10.313818148389359 0 -1 0 I I #
edge $-1 $816 -10.313818148389359 $928 10.313818148389359 $814 $929 forward 7 unknown #
face $-1 $736 $815 $19 $-1 $930 reversed single #
point $-1 -70.32807397686696 33.814223892207046 10.313818148389359 #
vertex $-1 $823 $931 #
straight-curve $-1 -57.514844645085745 -38.024762168913085 -10.313818148389359 0 -1 0 I I #
straight-curve $-1 0 -33.814223892207046 -10.313818148389359 -1 0 0 I I #
straight-curve $-1 -57.514844645085745 -33.814223892207046 0 0 0 -1 I I #
straight-curve $-1 -70.32807397686696 0 -10.313818148389359 0 1 0 I I #
point $-1 -70.32807397686696 -33.814223892207046 -10.313818148389359 #
face $-1 $926 $903 $19 $-1 $932 reversed single #
loop $-1 $-1 $911 $847 #
coedge $-1 $933 $850 $902 $934 reversed $794 $-1 #
coedge $-1 $850 $933 $863 $910 reversed $794 $-1 #
edge $-1 $906 -10.313818148389359 $904 10.313818148389359 $850 $935 forward 7 unknown #
coedge $-1 $936 $856 $851 $896 forward $903 $-1 #
edge $-1 $861 -4.210538276706032 $899 4.210538276706032 $851 $937 forward 7 unknown #
edge $-1 $900 -4.210538276706032 $860 4.210538276706032 $852 $938 forward 7 unknown #
coedge $-1 $853 $923 $936 $939 reversed $848 $-1 #
vertex $-1 $939 $940 #
vertex $-1 $897 $941 #
straight-curve $-1 -62.237476095471933 -33.814223892207046 0 0 0 1 I I #
coedge $-1 $856 $917 $892 $934 forward $903 $-1 #
loop $-1 $-1 $868 $890 #
vertex $-1 $894 $942 #
straight-curve $-1 -59.876160370278839 -42.235300445619117 -10.313818148389359 -1 0 0 I I #
vertex $-1 $910 $943 #
straight-curve $-1 -59.876160370278839 -42.235300445619117 10.313818148389359 1 0 0 I I #
point $-1 -62.237476095471933 -42.235300445619117 10.313818148389359 #
point $-1 -62.237476095471933 -42.235300445619117 -10.313818148389359 #
edge $-1 $906 -4.210538276706032 $913 4.210538276706032 $893 $944 forward 7 unknown #
coedge $-1 $945 $864 $933 $946 forward $891 $-1 #
coedge $-1 $864 $945 $866 $915 reversed $891 $-1 #
vertex $-1 $865 $947 #
straight-curve $-1 0 -33.814223892207046 10.313818148389359 1 0 0 I I #
edge $-1 $867 -10.313818148389359 $919 10.313818148389359 $866 $948 forward 7 unknown #
point $-1 70.32807397686696 -33.814223892207046 10.313818148389359 #
coedge $-1 $902 $868 $945 $949 forward $903 $-1 #
coedge $-1 $868 $950 $870 $921 forward $903 $-1 #
vertex $-1 $915 $951 #
straight-curve $-1 70.32807397686696 0 -10.313818148389359 0 -1 0 I I #
edge $-1 $928 -70.32807397686696 $871 70.32807397686696 $870 $952 forward 7 unknown #
point $-1 70.32807397686696 33.814223892207046 -10.313818148389359 #
coedge $-1 $898 $874 $877 $925 forward $848 $-1 #
coedge $-1 $877 $876 $950 $953 reversed $878 $-1 #
edge $-1 $879 -10.313818148389359 $954 10.313818148389359 $877 $955 forward 7 unknown #
face $-1 $882 $878 $19 $-1 $956 reversed single #
point $-1 -70.32807397686696 -33.814223892207046 10.313818148389359 #
vertex $-1 $921 $957 #
straight-curve $-1 -70.32807397686696 33.814223892207046 0 0 0 -1 I I #
plane-surface $-1 0 33.814223892207046 0 0 -1 0 0 0 -1 forward_v I I I I #
point $-1 -57.514844645085745 -33.814223892207053 -10.313818148389359 #
plane-surface $-1 0 0 -10.313818148389359 0 0 1 1 0 0 forward_v I I I I #
coedge $-1 $893 $892 $911 $946 reversed $794 $-1 #
edge $-1 $958 -4.210538276706032 $904 4.210538276706032 $892 $959 forward 7 unknown #
straight-curve $-1 -57.514844645085745 -42.235300445619117 0 0 0 -1 I I #
coedge $-1 $950 $895 $898 $939 forward $903 $-1 #
straight-curve $-1 -62.237476095471933 -38.024762168913085 -10.313818148389359 0 1 0 I I #
straight-curve $-1 -62.237476095471933 -38.024762168913085 10.313818148389359 0 -1 0 I I #
edge $-1 $899 62.237476095471933 $954 70.32807397686696 $898 $960 forward 7 unknown #
point $-1 -62.237476095471933 -33.814223892207053 -10.313818148389359 #
point $-1 -62.237476095471933 -33.814223892207053 10.313818148389359 #
point $-1 -57.514844645085745 -42.235300445619117 -10.313818148389359 #
point $-1 -57.514844645085745 -42.235300445619117 10.313818148389359 #
straight-curve $-1 -57.514844645085745 -38.024762168913085 10.313818148389359 0 1 0 I I #
coedge $-1 $912 $911 $917 $949 reversed $891 $-1 #
edge $-1 $913 -10.313818148389359 $958 10.313818148389359 $911 $961 forward 7 unknown #
point $-1 -57.514844645085745 -33.814223892207053 10.313818148389359 #
straight-curve $-1 70.32807397686696 -33.814223892207046 0 0 0 -1 I I #
edge $-1 $919 -70.32807397686696 $958 57.514844645085745 $945 $960 forward 7 unknown #
coedge $-1 $918 $936 $924 $953 forward $903 $-1 #
point $-1 70.32807397686696 -33.814223892207046 -10.313818148389359 #
straight-curve $-1 0 33.814223892207046 -10.313818148389359 1 0 0 I I #
edge $-1 $954 -33.814223892207046 $928 33.814223892207046 $924 $962 forward 7 unknown #
vertex $-1 $953 $963 #
straight-curve $-1 -70.32807397686696 -33.814223892207046 0 0 0 -1 I I #
plane-surface $-1 -70.32807397686696 0 0 1 0 0 0 0 -1 forward_v I I I I #
point $-1 -70.32807397686696 33.814223892207046 -10.313818148389359 #
vertex $-1 $934 $964 #
straight-curve $-1 -57.514844645085745 -38.024762168913085 -10.313818148389359 0 -1 0 I I #
straight-curve $-1 0 -33.814223892207046 -10.313818148389359 -1 0 0 I I #
straight-curve $-1 -57.514844645085745 -33.814223892207046 0 0 0 -1 I I #
straight-curve $-1 -70.32807397686696 0 -10.313818148389359 0 1 0 I I #
point $-1 -70.32807397686696 -33.814223892207046 -10.313818148389359 #
point $-1 -57.514844645085745 -33.814223892207053 -10.313818148389359 #
End-of-ACIS-data 