500 0 6 0           
7 Unknown 11 ACIS 5.0 NT 24 Fri Mar 26 16:51:44 1999 
-1 9.9999999999999995e-007 1e-010 
body $-1 $6 $-1 $7 #
body $-1 $8 $-1 $9 #
body $-1 $10 $-1 $11 #
body $-1 $12 $-1 $13 #
body $-1 $14 $-1 $15 #
body $-1 $16 $-1 $17 #
lump $-1 $-1 $18 $0 #
transform $-1 1 0 0 0 1 0 0 0 1 53.579515976439708 22.041560152214554 4.8982889100740366 1 rotate no_reflect no_shear #
lump $-1 $-1 $19 $1 #
transform $-1 1 0 0 0 1 0 0 0 1 53.579515976439708 22.041560152214554 4.8982889100740366 1 rotate no_reflect no_shear #
lump $-1 $-1 $20 $2 #
transform $-1 1 0 0 0 1 0 0 0 1 53.579515976439708 22.041560152214554 4.8982889100740366 1 rotate no_reflect no_shear #
lump $-1 $-1 $21 $3 #
transform $-1 1 0 0 0 1 0 0 0 1 53.579515976439708 22.041560152214554 4.8982889100740366 1 rotate no_reflect no_shear #
lump $-1 $-1 $22 $4 #
transform $-1 1 0 0 0 1 0 0 0 1 53.579515976439708 22.041560152214554 4.8982889100740366 1 rotate no_reflect no_shear #
lump $-1 $-1 $23 $5 #
transform $-1 1 0 0 0 1 0 0 0 1 53.579515976439708 22.041560152214554 4.8982889100740366 1 rotate no_reflect no_shear #
shell $-1 $-1 $-1 $24 $-1 $6 #
shell $-1 $-1 $-1 $25 $-1 $8 #
shell $-1 $-1 $-1 $26 $-1 $10 #
shell $-1 $-1 $-1 $27 $-1 $12 #
shell $-1 $-1 $-1 $28 $-1 $14 #
shell $-1 $-1 $-1 $29 $-1 $16 #
face $-1 $30 $31 $18 $-1 $32 forward single #
face $-1 $33 $34 $19 $-1 $35 forward single #
face $-1 $36 $37 $20 $-1 $38 reversed single #
face $-1 $39 $40 $21 $-1 $41 forward single #
face $-1 $42 $43 $22 $-1 $44 reversed single #
face $-1 $45 $46 $23 $-1 $47 forward single #
face $-1 $48 $49 $18 $-1 $50 reversed single #
loop $-1 $-1 $51 $24 #
plane-surface $-1 0 0 4.8982889100740366 0 0 1 1 0 0 forward_v I I I I #
face $-1 $52 $53 $19 $-1 $54 reversed single #
loop $-1 $-1 $55 $25 #
plane-surface $-1 -53.579515976439708 0 0 1 0 0 0 0 -1 forward_v I I I I #
face $-1 $56 $57 $20 $-1 $58 reversed single #
loop $-1 $-1 $59 $26 #
plane-surface $-1 -26.270088296577164 -96.480479543058806 77.777155260671435 -1 0 0 0 -0.69465837861970381 0.71933979245794832 forward_v I I I I #
face $-1 $60 $61 $21 $-1 $62 forward single #
loop $-1 $63 $64 $27 #
cone-surface $-1 -32.287147964063465 -18.102556980382669 0.9713868844777207 0 0.69465837861970381 -0.71933979245794832 1.5 0 0 1 I I 0 1 1.5 forward I I I I #
face $-1 $65 $66 $22 $-1 $67 reversed single #
loop $-1 $-1 $68 $28 #
plane-surface $-1 -38.304207631549765 64.769736932371998 108.3998641358435 1 0 0 0 -0.69465837861970381 -0.71933979245794832 forward_v I I I I #
face $-1 $69 $70 $23 $-1 $71 forward single #
loop $-1 $72 $73 $29 #
cone-surface $-1 -32.287147964063465 18.102556980382673 0.97138688447772337 0 -0.69465837861970381 -0.71933979245794832 1.5 0 0 1 I I 0 1 1.5 forward I I I I #
face $-1 $74 $75 $18 $-1 $76 reversed single #
loop $-1 $-1 $77 $30 #
plane-surface $-1 0 0 -4.8982889100740366 0 0 1 1 0 0 forward_v I I I I #
coedge $-1 $78 $79 $80 $81 forward $31 $-1 #
face $-1 $82 $83 $19 $-1 $84 forward single #
loop $-1 $-1 $85 $33 #
plane-surface $-1 0 22.041560152214554 0 0 -1 0 0 0 -1 forward_v I I I I #
coedge $-1 $86 $87 $88 $89 forward $34 $-1 #
face $-1 $90 $91 $20 $-1 $92 reversed single #
loop $-1 $-1 $93 $36 #
plane-surface $-1 -32.287147964063465 -22.041560152214558 0.69339945569250006 0 -0.69465837861970381 0.71933979245794832 1 0 0 forward_v I I I I #
coedge $-1 $94 $95 $96 $97 reversed $37 $-1 #
face $-1 $-1 $98 $21 $-1 $99 forward single #
loop $-1 $100 $101 $39 #
cone-surface $-1 -32.287147964063465 -15.819705223232885 -1.3925752582712887 0 0.69465837861970381 -0.71933979245794832 0.75 0 0 1 I I -0.70710678118654757 0.70710678118654757 0.75 forward I I I I #
loop $-1 $-1 $102 $27 #
coedge $-1 $64 $64 $103 $104 reversed $40 $-1 #
face $-1 $105 $106 $22 $-1 $107 reversed single #
loop $-1 $-1 $108 $42 #
plane-surface $-1 -32.287147964063465 -9.6691824584722497 31.316108330864566 0 0.69465837861970381 0.71933979245794832 1 0 0 forward_v I I I I #
coedge $-1 $109 $110 $111 $112 reversed $43 $-1 #
face $-1 $-1 $113 $23 $-1 $114 forward single #
loop $-1 $115 $116 $45 #
cone-surface $-1 -32.287147964063465 15.819705223232891 -1.392575258271286 0 -0.69465837861970381 -0.71933979245794832 0.75 0 0 1 I I -0.70710678118654757 0.70710678118654757 0.75 forward I I I I #
loop $-1 $-1 $117 $29 #
coedge $-1 $73 $73 $118 $119 reversed $46 $-1 #
face $-1 $120 $121 $18 $-1 $122 reversed single #
loop $-1 $-1 $123 $48 #
plane-surface $-1 0 -22.041560152214554 0 0 1 0 0 0 1 forward_v I I I I #
coedge $-1 $124 $125 $126 $127 forward $49 $-1 #
coedge $-1 $128 $51 $129 $130 forward $31 $-1 #
coedge $-1 $51 $128 $131 $132 forward $31 $-1 #
coedge $-1 $133 $134 $51 $81 reversed $135 $-1 #
edge $-1 $136 -22.041560152214554 $137 22.041560152214554 $80 $138 forward 7 unknown #
face $-1 $139 $140 $19 $-1 $141 reversed single #
loop $-1 $-1 $88 $52 #
plane-surface $-1 -56.611411359487882 0 4.3629342131593916 0 0 1 1 0 0 forward_v I I I I #
coedge $-1 $142 $143 $87 $144 forward $53 $-1 #
coedge $-1 $145 $55 $146 $147 reversed $34 $-1 #
coedge $-1 $55 $145 $85 $144 reversed $34 $-1 #
coedge $-1 $148 $149 $55 $89 reversed $83 $-1 #
edge $-1 $150 -22.041560152214554 $151 22.041560152214554 $88 $152 forward 7 unknown #
face $-1 $153 $154 $20 $-1 $155 reversed single #
loop $-1 $-1 $156 $56 #
plane-surface $-1 -38.304207631549765 -96.480479543058806 77.777155260671435 1 0 0 0 0.69465837861970381 -0.71933979245794832 forward_v I I I I #
coedge $-1 $157 $158 $159 $160 reversed $57 $-1 #
coedge $-1 $95 $59 $161 $162 reversed $37 $-1 #
coedge $-1 $59 $94 $157 $163 reversed $37 $-1 #
coedge $-1 $159 $164 $59 $97 forward $165 $-1 #
edge $-1 $166 26.198679619314849 $167 30.552970016608604 $96 $168 forward 7 unknown #
loop $-1 $-1 $103 $60 #
plane-surface $-1 -32.287147964063465 -22.041560152214558 0.69339945569250006 0 -0.69465837861970381 0.71933979245794832 1 0 0 forward_v I I I I #
loop $-1 $-1 $169 $39 #
coedge $-1 $101 $101 $102 $170 reversed $61 $-1 #
coedge $-1 $102 $102 $101 $170 forward $63 $-1 #
coedge $-1 $103 $103 $64 $104 forward $98 $-1 #
edge $-1 $171 -8.2264077460519962e-016 $171 6.2831853071795996 $103 $172 forward 7 unknown #
face $-1 $173 $174 $22 $-1 $175 forward single #
loop $-1 $-1 $176 $65 #
plane-surface $-1 -26.270088296577164 64.769736932371998 108.3998641358435 -1 0 0 0 0.69465837861970381 0.71933979245794832 forward_v I I I I #
coedge $-1 $177 $178 $179 $180 reversed $66 $-1 #
coedge $-1 $110 $68 $181 $182 reversed $43 $-1 #
coedge $-1 $68 $109 $177 $183 reversed $43 $-1 #
coedge $-1 $179 $184 $68 $112 forward $174 $-1 #
edge $-1 $185 10.343308313971445 $186 14.697598711265208 $111 $187 forward 7 unknown #
loop $-1 $-1 $118 $69 #
plane-surface $-1 -32.287147964063465 -9.6691824584722497 31.316108330864566 0 0.69465837861970381 0.71933979245794832 1 0 0 forward_v I I I I #
loop $-1 $-1 $188 $45 #
coedge $-1 $116 $116 $117 $189 reversed $70 $-1 #
coedge $-1 $117 $117 $116 $189 forward $72 $-1 #
coedge $-1 $118 $118 $73 $119 forward $113 $-1 #
edge $-1 $190 9.3955543667888894e-016 $190 6.2831853071796013 $118 $191 forward 7 unknown #
face $-1 $192 $193 $18 $-1 $194 reversed single #
loop $-1 $-1 $195 $74 #
plane-surface $-1 -53.579515976439708 0 0 1 0 0 0 0 -1 forward_v I I I I #
coedge $-1 $196 $131 $197 $198 forward $75 $-1 #
coedge $-1 $199 $77 $196 $200 forward $49 $-1 #
coedge $-1 $77 $199 $201 $202 forward $49 $-1 #
coedge $-1 $134 $133 $77 $127 reversed $135 $-1 #
edge $-1 $203 -22.041560152214554 $204 22.041560152214554 $126 $205 forward 7 unknown #
coedge $-1 $79 $78 $206 $207 forward $31 $-1 #
coedge $-1 $208 $209 $78 $130 reversed $193 $-1 #
edge $-1 $137 -53.579515976439708 $210 53.579515976439708 $129 $211 forward 7 unknown #
coedge $-1 $123 $212 $79 $132 reversed $75 $-1 #
edge $-1 $213 -53.579515976439708 $136 53.579515976439708 $131 $214 forward 7 unknown #
coedge $-1 $126 $80 $212 $215 forward $135 $-1 #
coedge $-1 $80 $126 $208 $216 reversed $135 $-1 #
loop $-1 $-1 $133 $192 #
vertex $-1 $81 $217 #
vertex $-1 $81 $218 #
straight-curve $-1 53.579515976439708 0 4.8982889100740366 0 1 0 I I #
face $-1 $219 $220 $19 $-1 $221 reversed single #
loop $-1 $-1 $222 $82 #
plane-surface $-1 -56.611411359487882 0 1.3629342131593916 0 0 1 1 0 0 forward_v I I I I #
coedge $-1 $223 $85 $224 $225 reversed $53 $-1 #
coedge $-1 $85 $223 $148 $226 reversed $53 $-1 #
edge $-1 $150 -4.3629342131593916 $227 -1.3629342131593916 $85 $228 forward 7 unknown #
coedge $-1 $87 $86 $222 $229 forward $34 $-1 #
coedge $-1 $230 $231 $86 $147 forward $232 $-1 #
edge $-1 $233 1.3629342131593916 $151 4.3629342131593916 $146 $234 forward 7 unknown #
coedge $-1 $235 $88 $143 $226 forward $83 $-1 #
coedge $-1 $88 $235 $230 $236 forward $83 $-1 #
vertex $-1 $144 $237 #
vertex $-1 $236 $238 #
straight-curve $-1 -53.579515976439708 0 4.3629342131593916 0 -1 0 I I #
face $-1 $-1 $165 $20 $-1 $239 forward single #
loop $-1 $-1 $240 $90 #
plane-surface $-1 0 -22.041560152214554 0 0 1 0 0 0 1 forward_v I I I I #
coedge $-1 $241 $242 $243 $244 reversed $91 $-1 #
coedge $-1 $245 $93 $95 $163 forward $57 $-1 #
coedge $-1 $93 $245 $241 $246 forward $57 $-1 #
coedge $-1 $243 $96 $93 $160 forward $165 $-1 #
edge $-1 $167 10.126514314545432 $247 22.160633649518033 $159 $248 forward 7 unknown #
coedge $-1 $249 $250 $94 $162 forward $154 $-1 #
edge $-1 $251 -38.195178174643218 $166 -33.990288720261681 $161 $252 forward 7 unknown #
edge $-1 $167 -6.0531760413466991 $251 -4.9464080715672286e-015 $95 $253 forward 7 unknown #
coedge $-1 $96 $243 $249 $254 forward $165 $-1 #
loop $-1 $-1 $243 $153 #
vertex $-1 $162 $255 #
vertex $-1 $97 $256 #
straight-curve $-1 -26.270088296577164 -48.240239771529403 4.8982889100740366 0 1 0 I I #
coedge $-1 $169 $169 $-1 $257 reversed $100 $-1 #
edge $-1 $258 0 $258 6.2831853071796004 $101 $259 forward 7 unknown #
vertex $-1 $104 $260 #
ellipse-curve $-1 -32.287147964063465 -19.864414953567675 2.7958441828832701 0 -0.69465837861970381 0.71933979245794832 1.5 0 0 1 I I #
face $-1 $-1 $261 $22 $-1 $262 reversed single #
loop $-1 $-1 $111 $105 #
plane-surface $-1 0 0 4.8982889100740366 0 0 1 1 0 0 forward_v I I I I #
coedge $-1 $263 $264 $265 $266 reversed $106 $-1 #
coedge $-1 $267 $108 $110 $183 forward $66 $-1 #
coedge $-1 $108 $267 $263 $268 forward $66 $-1 #
coedge $-1 $265 $111 $108 $180 forward $174 $-1 #
edge $-1 $186 -22.160633649518033 $269 -10.126514314545432 $179 $270 forward 7 unknown #
coedge $-1 $271 $272 $109 $182 forward $261 $-1 #
edge $-1 $273 -53.50653261222925 $185 -49.301643157847714 $181 $274 forward 7 unknown #
edge $-1 $186 38.029944263082399 $273 44.083120304429109 $110 $275 forward 7 unknown #
coedge $-1 $111 $265 $271 $276 forward $174 $-1 #
vertex $-1 $112 $277 #
vertex $-1 $112 $278 #
straight-curve $-1 -38.304207631549765 32.384868466185999 4.8982889100740366 0 -1 0 I I #
coedge $-1 $188 $188 $-1 $279 reversed $115 $-1 #
edge $-1 $280 0 $280 6.2831853071796004 $116 $281 forward 7 unknown #
vertex $-1 $119 $282 #
ellipse-curve $-1 -32.287147964063465 19.864414953567671 2.7958441828832656 0 0.69465837861970381 0.71933979245794832 1.5 0 0 1 I I #
face $-1 $-1 $135 $18 $-1 $283 reversed single #
loop $-1 $-1 $208 $120 #
plane-surface $-1 0 22.041560152214554 0 0 -1 0 0 0 -1 forward_v I I I I #
coedge $-1 $284 $206 $209 $285 forward $121 $-1 #
coedge $-1 $212 $123 $124 $200 reversed $75 $-1 #
coedge $-1 $206 $284 $123 $198 reversed $121 $-1 #
edge $-1 $213 -4.8982889100740366 $286 4.8982889100740366 $197 $287 forward 7 unknown #
coedge $-1 $125 $124 $284 $288 forward $49 $-1 #
edge $-1 $204 -53.579515976439708 $286 53.579515976439708 $196 $289 forward 7 unknown #
coedge $-1 $209 $208 $125 $202 reversed $193 $-1 #
edge $-1 $290 -53.579515976439708 $203 53.579515976439708 $201 $291 forward 7 unknown #
vertex $-1 $127 $292 #
vertex $-1 $215 $293 #
straight-curve $-1 53.579515976439708 0 -4.8982889100740366 0 -1 0 I I #
coedge $-1 $195 $197 $128 $207 reversed $121 $-1 #
edge $-1 $210 -22.041560152214554 $213 22.041560152214554 $206 $294 forward 7 unknown #
coedge $-1 $201 $129 $134 $216 forward $193 $-1 #
coedge $-1 $129 $201 $195 $285 reversed $193 $-1 #
vertex $-1 $130 $295 #
straight-curve $-1 0 22.041560152214554 4.8982889100740366 -1 0 0 I I #
coedge $-1 $131 $196 $133 $215 reversed $75 $-1 #
vertex $-1 $207 $296 #
straight-curve $-1 0 -22.041560152214554 4.8982889100740366 1 0 0 I I #
edge $-1 $136 -4.8982889100740366 $204 4.8982889100740366 $133 $297 forward 7 unknown #
edge $-1 $137 -4.8982889100740366 $203 4.8982889100740366 $134 $298 forward 7 unknown #
point $-1 53.579515976439708 -22.041560152214554 4.8982889100740366 #
point $-1 53.579515976439708 22.041560152214554 4.8982889100740366 #
face $-1 $-1 $232 $19 $-1 $299 reversed single #
loop $-1 $-1 $300 $139 #
plane-surface $-1 -59.643306742536055 0 2.8629342131593916 1 0 0 0 0 -1 forward_v I I I I #
coedge $-1 $301 $224 $145 $229 reversed $140 $-1 #
coedge $-1 $143 $142 $300 $302 reversed $53 $-1 #
coedge $-1 $222 $303 $142 $225 forward $140 $-1 #
edge $-1 $304 -3.0318953830481732 $227 3.0318953830481732 $142 $305 forward 7 unknown #
edge $-1 $150 -3.0318953830481732 $306 3.0318953830481732 $143 $307 forward 7 unknown #
vertex $-1 $144 $308 #
straight-curve $-1 -53.579515976439708 22.041560152214554 0 0 0 -1 I I #
edge $-1 $233 -22.041560152214554 $227 22.041560152214554 $222 $309 forward 7 unknown #
coedge $-1 $310 $146 $149 $236 reversed $232 $-1 #
coedge $-1 $146 $310 $301 $311 reversed $232 $-1 #
loop $-1 $-1 $146 $219 #
vertex $-1 $147 $312 #
straight-curve $-1 -53.579515976439708 -22.041560152214554 0 0 0 1 I I #
coedge $-1 $149 $148 $313 $314 forward $83 $-1 #
edge $-1 $315 -3.0318953830481732 $151 3.0318953830481732 $230 $316 forward 7 unknown #
point $-1 -53.579515976439708 22.041560152214554 4.3629342131593916 #
point $-1 -53.579515976439708 -22.041560152214554 4.3629342131593916 #
plane-surface $-1 0 0 4.8982889100740366 0 0 1 1 0 0 forward_v I I I I #
coedge $-1 $250 $249 $242 $317 forward $154 $-1 #
coedge $-1 $242 $156 $158 $246 reversed $91 $-1 #
coedge $-1 $156 $241 $240 $317 reversed $91 $-1 #
coedge $-1 $164 $159 $156 $244 forward $165 $-1 #
edge $-1 $247 -30.552970016608604 $318 -26.198679619314849 $243 $319 forward 7 unknown #
coedge $-1 $158 $157 $250 $320 reversed $57 $-1 #
edge $-1 $321 4.9464080715672286e-015 $247 6.0531760413466991 $241 $322 forward 7 unknown #
vertex $-1 $160 $323 #
straight-curve $-1 -16.143573982031732 -17.687269754920795 4.8982889100740366 -1 0 0 I I #
coedge $-1 $240 $161 $164 $254 reversed $154 $-1 #
coedge $-1 $161 $240 $245 $320 forward $154 $-1 #
vertex $-1 $162 $324 #
straight-curve $-1 -26.270088296577164 -22.041560152214551 38.888577630335718 0 0 1 I I #
straight-curve $-1 -26.270088296577164 -22.041560152214558 0.69339945569250006 0 -0.71933979245794832 -0.69465837861970381 I I #
edge $-1 $318 -38.304207631549765 $166 -26.270088296577164 $249 $325 forward 7 unknown #
point $-1 -26.270088296577164 -22.041560152214554 4.8982889100740366 #
point $-1 -26.270088296577164 -17.687269754920798 4.8982889100740366 #
edge $-1 $326 1 $326 0 $169 $-1 forward 7 unknown #
vertex $-1 $170 $327 #
ellipse-curve $-1 -32.287147964063465 -16.340699007197664 -0.85307041392782745 0 -0.69465837861970381 0.71933979245794832 1.5 0 0 1 I I #
point $-1 -30.787147964063465 -19.864414953567675 2.7958441828832683 #
loop $-1 $-1 $181 $173 #
plane-surface $-1 0 22.041560152214554 0 0 -1 0 0 0 -1 forward_v I I I I #
coedge $-1 $264 $176 $178 $268 reversed $106 $-1 #
coedge $-1 $176 $263 $328 $329 reversed $106 $-1 #
coedge $-1 $184 $179 $176 $266 forward $174 $-1 #
edge $-1 $269 -14.697598711265208 $330 -10.343308313971445 $265 $331 forward 7 unknown #
coedge $-1 $178 $177 $272 $332 reversed $66 $-1 #
edge $-1 $333 -44.083120304429109 $269 -38.029944263082399 $263 $334 forward 7 unknown #
vertex $-1 $180 $335 #
straight-curve $-1 -16.143573982031732 17.687269754920791 4.8982889100740366 1 0 0 I I #
coedge $-1 $328 $181 $184 $276 reversed $261 $-1 #
coedge $-1 $181 $328 $267 $332 forward $261 $-1 #
vertex $-1 $182 $336 #
straight-curve $-1 -38.304207631549765 22.041560152214554 54.19993206792175 0 0 1 I I #
straight-curve $-1 -38.304207631549765 -9.6691824584722497 31.316108330864566 0 0.71933979245794832 -0.69465837861970381 I I #
edge $-1 $330 26.270088296577164 $185 38.304207631549765 $271 $337 forward 7 unknown #
point $-1 -38.304207631549765 22.041560152214554 4.8982889100740366 #
point $-1 -38.304207631549765 17.687269754920791 4.8982889100740366 #
edge $-1 $338 1 $338 0 $188 $-1 forward 7 unknown #
vertex $-1 $189 $339 #
ellipse-curve $-1 -32.287147964063465 16.340699007197667 -0.85307041392782479 0 0.69465837861970381 0.71933979245794832 1.5 0 0 1 I I #
point $-1 -30.787147964063465 19.864414953567678 2.795844182883271 #
plane-surface $-1 53.579515976439708 0 0 -1 0 0 0 0 1 forward_v I I I I #
coedge $-1 $197 $195 $199 $288 reversed $121 $-1 #
edge $-1 $210 -4.8982889100740366 $290 4.8982889100740366 $209 $340 forward 7 unknown #
vertex $-1 $288 $341 #
straight-curve $-1 -53.579515976439708 -22.041560152214554 0 0 0 -1 I I #
edge $-1 $286 -22.041560152214554 $290 22.041560152214554 $284 $342 forward 7 unknown #
straight-curve $-1 0 -22.041560152214554 -4.8982889100740366 -1 0 0 I I #
vertex $-1 $202 $343 #
straight-curve $-1 0 22.041560152214554 -4.8982889100740366 1 0 0 I I #
point $-1 53.579515976439708 22.041560152214554 -4.8982889100740366 #
point $-1 53.579515976439708 -22.041560152214554 -4.8982889100740366 #
straight-curve $-1 -53.579515976439708 0 4.8982889100740366 0 -1 0 I I #
point $-1 -53.579515976439708 22.041560152214554 4.8982889100740366 #
point $-1 -53.579515976439708 -22.041560152214554 4.8982889100740366 #
straight-curve $-1 53.579515976439708 -22.041560152214554 0 0 0 -1 I I #
straight-curve $-1 53.579515976439708 22.041560152214554 0 0 0 -1 I I #
plane-surface $-1 0 -22.041560152214554 0 0 1 0 0 0 1 forward_v I I I I #
coedge $-1 $344 $313 $223 $302 forward $220 $-1 #
coedge $-1 $303 $222 $231 $311 forward $140 $-1 #
edge $-1 $306 -1.5 $304 1.5 $223 $345 forward 7 unknown #
coedge $-1 $224 $301 $344 $346 forward $140 $-1 #
vertex $-1 $225 $347 #
straight-curve $-1 -56.611411359487882 22.041560152214554 1.3629342131593916 1 0 0 I I #
vertex $-1 $226 $348 #
straight-curve $-1 -56.611411359487882 22.041560152214554 4.3629342131593916 -1 0 0 I I #
point $-1 -53.579515976439708 22.041560152214554 1.3629342131593916 #
straight-curve $-1 -53.579515976439708 0 1.3629342131593916 0 1 0 I I #
coedge $-1 $231 $230 $349 $350 forward $232 $-1 #
edge $-1 $233 -3.0318953830481732 $351 3.0318953830481732 $231 $352 forward 7 unknown #
point $-1 -53.579515976439708 -22.041560152214554 1.3629342131593916 #
coedge $-1 $300 $349 $235 $314 reversed $220 $-1 #
edge $-1 $306 -22.041560152214554 $315 22.041560152214554 $313 $353 forward 7 unknown #
vertex $-1 $314 $354 #
straight-curve $-1 -56.611411359487882 -22.041560152214554 4.3629342131593916 1 0 0 I I #
edge $-1 $318 33.990288720261681 $321 38.195178174643218 $240 $355 forward 7 unknown #
vertex $-1 $254 $356 #
straight-curve $-1 -38.304207631549765 -48.240239771529403 4.8982889100740366 0 -1 0 I I #
edge $-1 $321 -22.160633649518033 $251 -10.126514314545432 $250 $357 forward 7 unknown #
vertex $-1 $320 $358 #
straight-curve $-1 -38.304207631549765 -22.041560152214558 0.69339945569250006 0 0.71933979245794832 0.69465837861970381 I I #
point $-1 -38.304207631549765 -17.687269754920798 4.8982889100740366 #
point $-1 -26.270088296577164 -22.041560152214554 0.6933994556925035 #
straight-curve $-1 0 -22.041560152214554 4.8982889100740366 1 0 0 I I #
vertex $-1 $257 $359 #
point $-1 -30.787147964063465 -16.340699007197664 -0.85307041392782745 #
coedge $-1 $272 $271 $264 $329 forward $261 $-1 #
edge $-1 $330 49.301643157847714 $333 53.50653261222925 $328 $360 forward 7 unknown #
vertex $-1 $276 $361 #
straight-curve $-1 -26.270088296577164 32.384868466185999 4.8982889100740366 0 1 0 I I #
edge $-1 $333 10.126514314545432 $273 22.160633649518033 $272 $362 forward 7 unknown #
vertex $-1 $332 $363 #
straight-curve $-1 -26.270088296577164 -9.6691824584722497 31.316108330864566 0 -0.71933979245794832 0.69465837861970381 I I #
point $-1 -26.270088296577164 17.687269754920791 4.8982889100740366 #
point $-1 -38.304207631549765 22.041560152214554 0.6933994556924965 #
straight-curve $-1 0 22.041560152214554 4.8982889100740366 -1 0 0 I I #
vertex $-1 $279 $364 #
point $-1 -30.787147964063465 16.340699007197667 -0.85307041392782479 #
straight-curve $-1 -53.579515976439708 22.041560152214554 0 0 0 -1 I I #
point $-1 -53.579515976439708 -22.041560152214554 -4.8982889100740366 #
straight-curve $-1 -53.579515976439708 0 -4.8982889100740366 0 1 0 I I #
point $-1 -53.579515976439708 22.041560152214554 -4.8982889100740366 #
coedge $-1 $349 $300 $303 $346 reversed $220 $-1 #
straight-curve $-1 -59.643306742536055 22.041560152214554 2.8629342131593916 0 0 -1 I I #
edge $-1 $351 -22.041560152214554 $304 22.041560152214554 $344 $365 forward 7 unknown #
point $-1 -59.643306742536055 22.041560152214554 1.3629342131593916 #
point $-1 -59.643306742536055 22.041560152214554 4.3629342131593916 #
coedge $-1 $313 $344 $310 $350 reversed $220 $-1 #
edge $-1 $315 -1.5 $351 1.5 $349 $366 forward 7 unknown #
vertex $-1 $346 $367 #
straight-curve $-1 -56.611411359487882 -22.041560152214554 1.3629342131593916 -1 0 0 I I #
straight-curve $-1 -59.643306742536055 0 4.3629342131593916 0 -1 0 I I #
point $-1 -59.643306742536055 -22.041560152214554 4.3629342131593916 #
straight-curve $-1 -38.304207631549765 -22.041560152214551 38.888577630335718 0 0 -1 I I #
point $-1 -38.304207631549765 -22.041560152214554 4.8982889100740366 #
straight-curve $-1 -16.143573982031732 -22.041560152214554 0.69339945569250372 1 0 0 I I #
point $-1 -38.304207631549765 -22.041560152214554 0.6933994556925035 #
point $-1 -32.287147964063465 -15.298711439268107 -1.9320801026147501 #
straight-curve $-1 -26.270088296577164 22.041560152214554 54.19993206792175 0 0 -1 I I #
point $-1 -26.270088296577164 22.041560152214554 4.8982889100740366 #
straight-curve $-1 -16.143573982031732 22.041560152214554 0.69339945569249473 -1 0 0 I I #
point $-1 -26.270088296577164 22.041560152214554 0.6933994556924965 #
point $-1 -32.287147964063465 15.298711439268112 -1.9320801026147474 #
straight-curve $-1 -59.643306742536055 0 1.3629342131593916 0 1 0 I I #
straight-curve $-1 -59.643306742536055 -22.041560152214554 2.8629342131593916 0 0 -1 I I #
point $-1 -59.643306742536055 -22.041560152214554 1.3629342131593916 #
End-of-ACIS-data 