500 0 16 0           
7 Unknown 11 ACIS 5.0 NT 24 Fri Mar 26 19:55:55 1999 
-1 9.9999999999999995e-007 1e-010 
body $-1 $16 $-1 $17 #
body $-1 $18 $-1 $19 #
body $-1 $20 $-1 $21 #
body $-1 $22 $-1 $23 #
body $-1 $24 $-1 $25 #
body $-1 $26 $-1 $27 #
body $-1 $28 $-1 $29 #
body $-1 $30 $-1 $31 #
body $-1 $32 $-1 $33 #
body $-1 $34 $-1 $35 #
body $-1 $36 $-1 $37 #
body $-1 $38 $-1 $39 #
body $-1 $40 $-1 $41 #
body $-1 $42 $-1 $43 #
body $-1 $44 $-1 $45 #
body $-1 $46 $-1 $47 #
lump $-1 $-1 $48 $0 #
transform $-1 1 0 0 0 1 0 0 0 1 61.43498031556139 26.497081188685915 6.5512086410724226 1 rotate no_reflect no_shear #
lump $-1 $-1 $49 $1 #
transform $-1 1 0 0 0 1 0 0 0 1 61.43498031556139 26.497081188685915 6.5512086410724226 1 rotate no_reflect no_shear #
lump $-1 $-1 $50 $2 #
transform $-1 1 0 0 0 1 0 0 0 1 61.43498031556139 26.497081188685915 6.5512086410724226 1 rotate no_reflect no_shear #
lump $-1 $-1 $51 $3 #
transform $-1 1 0 0 0 1 0 0 0 1 61.43498031556139 26.497081188685915 6.5512086410724226 1 rotate no_reflect no_shear #
lump $-1 $-1 $52 $4 #
transform $-1 1 0 0 0 1 0 0 0 1 61.43498031556139 26.497081188685915 6.5512086410724226 1 rotate no_reflect no_shear #
lump $-1 $-1 $53 $5 #
transform $-1 1 0 0 0 1 0 0 0 1 61.43498031556139 26.497081188685915 6.5512086410724226 1 rotate no_reflect no_shear #
lump $-1 $-1 $54 $6 #
transform $-1 1 0 0 0 1 0 0 0 1 61.43498031556139 26.497081188685915 6.5512086410724226 1 rotate no_reflect no_shear #
lump $-1 $-1 $55 $7 #
transform $-1 1 0 0 0 1 0 0 0 1 61.43498031556139 26.497081188685915 6.5512086410724226 1 rotate no_reflect no_shear #
lump $-1 $-1 $56 $8 #
transform $-1 1 0 0 0 1 0 0 0 1 61.43498031556139 26.497081188685915 6.5512086410724226 1 rotate no_reflect no_shear #
lump $-1 $-1 $57 $9 #
transform $-1 1 0 0 0 1 0 0 0 1 61.43498031556139 26.497081188685915 6.5512086410724226 1 rotate no_reflect no_shear #
lump $-1 $-1 $58 $10 #
transform $-1 1 0 0 0 1 0 0 0 1 61.43498031556139 26.497081188685915 6.5512086410724226 1 rotate no_reflect no_shear #
lump $-1 $-1 $59 $11 #
transform $-1 1 0 0 0 1 0 0 0 1 61.43498031556139 26.497081188685915 6.5512086410724226 1 rotate no_reflect no_shear #
lump $-1 $-1 $60 $12 #
transform $-1 1 0 0 0 1 0 0 0 1 61.43498031556139 26.497081188685915 6.5512086410724226 1 rotate no_reflect no_shear #
lump $-1 $-1 $61 $13 #
transform $-1 1 0 0 0 1 0 0 0 1 61.43498031556139 26.497081188685915 6.5512086410724226 1 rotate no_reflect no_shear #
lump $-1 $-1 $62 $14 #
transform $-1 1 0 0 0 1 0 0 0 1 61.43498031556139 26.497081188685915 6.5512086410724226 1 rotate no_reflect no_shear #
lump $-1 $-1 $63 $15 #
transform $-1 1 0 0 0 1 0 0 0 1 61.43498031556139 26.497081188685915 6.5512086410724226 1 rotate no_reflect no_shear #
shell $-1 $-1 $-1 $64 $-1 $16 #
shell $-1 $-1 $-1 $65 $-1 $18 #
shell $-1 $-1 $-1 $66 $-1 $20 #
shell $-1 $-1 $-1 $67 $-1 $22 #
shell $-1 $-1 $-1 $68 $-1 $24 #
shell $-1 $-1 $-1 $69 $-1 $26 #
shell $-1 $-1 $-1 $70 $-1 $28 #
shell $-1 $-1 $-1 $71 $-1 $30 #
shell $-1 $-1 $-1 $72 $-1 $32 #
shell $-1 $-1 $-1 $73 $-1 $34 #
shell $-1 $-1 $-1 $74 $-1 $36 #
shell $-1 $-1 $-1 $75 $-1 $38 #
shell $-1 $-1 $-1 $76 $-1 $40 #
shell $-1 $-1 $-1 $77 $-1 $42 #
shell $-1 $-1 $-1 $78 $-1 $44 #
shell $-1 $-1 $-1 $79 $-1 $46 #
face $-1 $80 $81 $48 $-1 $82 forward single #
face $-1 $83 $84 $49 $-1 $85 forward single #
face $-1 $86 $87 $50 $-1 $88 reversed single #
face $-1 $89 $90 $51 $-1 $91 forward single #
face $-1 $92 $93 $52 $-1 $94 reversed single #
face $-1 $95 $96 $53 $-1 $97 forward single #
face $-1 $98 $99 $54 $-1 $100 reversed single #
face $-1 $101 $102 $55 $-1 $103 forward single #
face $-1 $104 $105 $56 $-1 $106 reversed single #
face $-1 $107 $108 $57 $-1 $109 forward single #
face $-1 $110 $111 $58 $-1 $112 reversed single #
face $-1 $113 $114 $59 $-1 $115 forward single #
face $-1 $116 $117 $60 $-1 $118 forward single #
face $-1 $119 $120 $61 $-1 $121 reversed single #
face $-1 $122 $123 $62 $-1 $124 forward single #
face $-1 $125 $126 $63 $-1 $127 forward single #
face $-1 $128 $129 $48 $-1 $130 reversed single #
loop $-1 $-1 $131 $64 #
plane-surface $-1 0 0 6.5512086410724226 0 0 1 1 0 0 forward_v I I I I #
face $-1 $132 $133 $49 $-1 $134 reversed single #
loop $-1 $-1 $135 $65 #
plane-surface $-1 0 -23.139464301098464 6.0512086410724226 0 0 1 1 0 0 forward_v I I I I #
face $-1 $136 $137 $50 $-1 $138 reversed single #
loop $-1 $-1 $139 $66 #
plane-surface $-1 -145.23209296321369 -14.531647519322249 90.934446160100947 0 1 0 -0.68199836817093118 0 0.7313536940579346 forward_v I I I I #
face $-1 $140 $141 $51 $-1 $142 forward single #
loop $-1 $143 $144 $67 #
cone-surface $-1 -57.849129828880187 -11.371881391142017 3.1166474465229452 0.68199836817093118 0 -0.7313536940579346 0.3656768470289673 0 0.34099918408546559 1 I I 0 1 0.5 forward I I I I #
face $-1 $145 $146 $52 $-1 $147 reversed single #
loop $-1 $-1 $148 $68 #
plane-surface $-1 -145.23209296321369 -2.9619153687730186 90.934446160100947 0 1 0 -0.68199836817093118 0 0.7313536940579346 forward_v I I I I #
face $-1 $149 $150 $53 $-1 $151 forward single #
loop $-1 $152 $153 $69 #
cone-surface $-1 -57.849129828880187 0.19785075940721342 3.1166474465229452 0.68199836817093118 0 -0.7313536940579346 0.3656768470289673 0 0.34099918408546559 1 I I 0 1 0.5 forward I I I I #
face $-1 $154 $155 $54 $-1 $156 reversed single #
loop $-1 $-1 $157 $70 #
plane-surface $-1 -145.23209296321369 8.6078167817762097 90.934446160100947 0 1 0 -0.68199836817093118 0 0.7313536940579346 forward_v I I I I #
face $-1 $158 $159 $55 $-1 $160 forward single #
loop $-1 $161 $162 $71 #
cone-surface $-1 -57.849129828880187 11.767582909956442 3.1166474465229452 0.68199836817093118 0 -0.7313536940579346 0.3656768470289673 0 0.34099918408546559 1 I I 0 1 0.5 forward I I I I #
face $-1 $163 $164 $56 $-1 $165 reversed single #
loop $-1 $-1 $166 $72 #
plane-surface $-1 -145.23209296321369 20.177548932325436 90.934446160100947 0 1 0 -0.68199836817093118 0 0.7313536940579346 forward_v I I I I #
face $-1 $167 $168 $57 $-1 $169 forward single #
loop $-1 $170 $171 $73 #
cone-surface $-1 -57.849129828880187 23.33731506050567 3.1166474465229452 0.68199836817093118 0 -0.7313536940579346 0.3656768470289673 0 0.34099918408546559 1 I I 0 1 0.5 forward I I I I #
face $-1 $172 $173 $58 $-1 $174 reversed single #
loop $-1 $-1 $175 $74 #
plane-surface $-1 25.307338886267175 -10.131868518014219 171.739278812511 0 -1 0 -0.54463904215088732 0 -0.83867056331134215 forward_v I I I I #
face $-1 $176 $177 $59 $-1 $178 forward single #
loop $-1 $179 $180 $75 #
cone-surface $-1 57.042825425338641 -17.024710586226217 3.0644143387403107 -0.54463904215088732 0 -0.83867056331134215 0.83867056331134215 0 -0.54463904215088732 1 I I 0 1 1 forward I I I I #
face $-1 $181 $182 $60 $-1 $183 forward single #
loop $-1 $184 $185 $76 #
cone-surface $-1 57.042825425338641 -12.889005345299017 3.0644143387403107 -0.54463904215088732 0 -0.83867056331134215 0.83867056331134215 0 -0.54463904215088732 1 I I 0 1 1 forward I I I I #
face $-1 $186 $187 $61 $-1 $188 reversed single #
loop $-1 $-1 $189 $77 #
plane-surface $-1 25.307338886267175 13.007595783084243 171.739278812511 0 -1 0 -0.54463904215088732 0 -0.83867056331134215 forward_v I I I I #
face $-1 $190 $191 $62 $-1 $192 forward single #
loop $-1 $193 $194 $78 #
cone-surface $-1 57.042825425338641 6.1147537148722471 3.0644143387403107 -0.54463904215088732 0 -0.83867056331134215 0.83867056331134215 0 -0.54463904215088732 1 I I 0 1 1 forward I I I I #
face $-1 $195 $196 $63 $-1 $197 forward single #
loop $-1 $198 $199 $79 #
cone-surface $-1 57.042825425338641 10.250458955799449 3.0644143387403107 -0.54463904215088732 0 -0.83867056331134215 0.83867056331134215 0 -0.54463904215088732 1 I I 0 1 1 forward I I I I #
face $-1 $200 $201 $48 $-1 $202 reversed single #
loop $-1 $-1 $203 $80 #
plane-surface $-1 0 0 -6.5512086410724226 0 0 1 1 0 0 forward_v I I I I #
coedge $-1 $204 $205 $206 $207 forward $81 $-1 #
face $-1 $208 $209 $49 $-1 $210 reversed single #
loop $-1 $-1 $211 $83 #
plane-surface $-1 0 -23.139464301098464 3.0512086410724226 0 0 1 1 0 0 forward_v I I I I #
coedge $-1 $212 $213 $214 $215 reversed $84 $-1 #
face $-1 $216 $217 $50 $-1 $218 reversed single #
loop $-1 $-1 $219 $86 #
plane-surface $-1 -61.43498031556139 -11.371881391142017 1.0730465637763018 -0.68199836817093118 0 0.7313536940579346 0.7313536940579346 0 0.68199836817093118 forward_v I I I I #
coedge $-1 $220 $221 $222 $223 reversed $87 $-1 #
face $-1 $-1 $224 $51 $-1 $225 forward single #
loop $-1 $226 $227 $89 #
cone-surface $-1 -57.030084484934193 -11.371881391142017 2.2383288671070449 0.68199836817093118 0 -0.7313536940579346 0.18283842351448365 0 0.17049959204273279 1 I I -0.70710678118654746 0.70710678118654746 0.25 forward I I I I #
loop $-1 $-1 $228 $67 #
coedge $-1 $144 $144 $229 $230 reversed $90 $-1 #
face $-1 $231 $232 $52 $-1 $233 reversed single #
loop $-1 $-1 $234 $92 #
plane-surface $-1 -61.43498031556139 0.19785075940721342 1.0730465637763018 -0.68199836817093118 0 0.7313536940579346 0.7313536940579346 0 0.68199836817093118 forward_v I I I I #
coedge $-1 $235 $236 $237 $238 reversed $93 $-1 #
face $-1 $-1 $239 $53 $-1 $240 forward single #
loop $-1 $241 $242 $95 #
cone-surface $-1 -57.030084484934193 0.19785075940721342 2.2383288671070449 0.68199836817093118 0 -0.7313536940579346 0.18283842351448365 0 0.17049959204273279 1 I I -0.70710678118654746 0.70710678118654746 0.25 forward I I I I #
loop $-1 $-1 $243 $69 #
coedge $-1 $153 $153 $244 $245 reversed $96 $-1 #
face $-1 $246 $247 $54 $-1 $248 reversed single #
loop $-1 $-1 $249 $98 #
plane-surface $-1 -61.43498031556139 11.767582909956442 1.0730465637763018 -0.68199836817093118 0 0.7313536940579346 0.7313536940579346 0 0.68199836817093118 forward_v I I I I #
coedge $-1 $250 $251 $252 $253 reversed $99 $-1 #
face $-1 $-1 $254 $55 $-1 $255 forward single #
loop $-1 $256 $257 $101 #
cone-surface $-1 -57.030084484934193 11.767582909956442 2.2383288671070449 0.68199836817093118 0 -0.7313536940579346 0.18283842351448365 0 0.17049959204273279 1 I I -0.70710678118654746 0.70710678118654746 0.25 forward I I I I #
loop $-1 $-1 $258 $71 #
coedge $-1 $162 $162 $259 $260 reversed $102 $-1 #
face $-1 $261 $262 $56 $-1 $263 forward single #
loop $-1 $-1 $264 $104 #
plane-surface $-1 -61.43498031556139 23.33731506050567 1.0730465637763018 -0.68199836817093118 0 0.7313536940579346 0.7313536940579346 0 0.68199836817093118 forward_v I I I I #
coedge $-1 $265 $266 $267 $268 reversed $105 $-1 #
face $-1 $-1 $269 $57 $-1 $270 forward single #
loop $-1 $271 $272 $107 #
cone-surface $-1 -57.030084484934193 23.33731506050567 2.2383288671070449 0.68199836817093118 0 -0.7313536940579346 0.18283842351448365 0 0.17049959204273279 1 I I -0.70710678118654746 0.70710678118654746 0.25 forward I I I I #
loop $-1 $-1 $273 $73 #
coedge $-1 $171 $171 $274 $275 reversed $108 $-1 #
face $-1 $276 $277 $58 $-1 $278 forward single #
loop $-1 $-1 $279 $110 #
plane-surface $-1 -41.612438780984775 -14.956857965762618 68.691859715964824 0.54463904215088732 0 0.83867056331134215 0.83867056331134215 0 -0.54463904215088732 forward_v I I I I #
coedge $-1 $280 $281 $282 $283 reversed $111 $-1 #
face $-1 $-1 $284 $59 $-1 $285 forward single #
loop $-1 $286 $287 $113 #
cone-surface $-1 56.057955744103083 -17.024710586226217 1.5478480509322932 -0.54463904215088732 0 -0.83867056331134215 0.41933528165567108 0 -0.27231952107544366 1 I I -0.70710678118654746 0.70710678118654746 0.5 forward I I I I #
loop $-1 $-1 $288 $75 #
coedge $-1 $180 $180 $289 $290 reversed $114 $-1 #
face $-1 $-1 $291 $60 $-1 $292 forward single #
loop $-1 $293 $294 $116 #
cone-surface $-1 56.057955744103083 -12.889005345299017 1.5478480509322932 -0.54463904215088732 0 -0.83867056331134215 0.41933528165567108 0 -0.27231952107544366 1 I I -0.70710678118654746 0.70710678118654746 0.5 forward I I I I #
loop $-1 $-1 $295 $76 #
coedge $-1 $185 $185 $296 $297 reversed $117 $-1 #
face $-1 $298 $299 $61 $-1 $300 reversed single #
loop $-1 $-1 $301 $119 #
plane-surface $-1 -41.612438780984775 8.1826063353358442 68.691859715964824 0.54463904215088732 0 0.83867056331134215 0.83867056331134215 0 -0.54463904215088732 forward_v I I I I #
coedge $-1 $302 $303 $304 $305 reversed $120 $-1 #
face $-1 $-1 $306 $62 $-1 $307 forward single #
loop $-1 $308 $309 $122 #
cone-surface $-1 56.057955744103083 6.1147537148722471 1.5478480509322932 -0.54463904215088732 0 -0.83867056331134215 0.41933528165567108 0 -0.27231952107544366 1 I I -0.70710678118654746 0.70710678118654746 0.5 forward I I I I #
loop $-1 $-1 $310 $78 #
coedge $-1 $194 $194 $311 $312 reversed $123 $-1 #
face $-1 $-1 $313 $63 $-1 $314 forward single #
loop $-1 $315 $316 $125 #
cone-surface $-1 56.057955744103083 10.250458955799449 1.5478480509322932 -0.54463904215088732 0 -0.83867056331134215 0.41933528165567108 0 -0.27231952107544366 1 I I -0.70710678118654746 0.70710678118654746 0.5 forward I I I I #
loop $-1 $-1 $317 $79 #
coedge $-1 $199 $199 $318 $319 reversed $126 $-1 #
face $-1 $320 $321 $48 $-1 $322 reversed single #
loop $-1 $-1 $323 $128 #
plane-surface $-1 0 -26.497081188685915 0 0 1 0 0 0 1 forward_v I I I I #
coedge $-1 $324 $325 $326 $327 forward $129 $-1 #
coedge $-1 $328 $131 $329 $330 forward $81 $-1 #
coedge $-1 $131 $328 $331 $332 forward $81 $-1 #
coedge $-1 $333 $334 $131 $207 reversed $335 $-1 #
edge $-1 $336 -26.497081188685915 $337 26.497081188685915 $206 $338 forward 7 unknown #
face $-1 $339 $340 $49 $-1 $341 reversed single #
loop $-1 $-1 $342 $132 #
plane-surface $-1 0 -19.781847413511016 4.5512086410724226 0 -1 0 0 0 -1 forward_v I I I I #
coedge $-1 $343 $344 $345 $346 reversed $133 $-1 #
coedge $-1 $347 $135 $348 $349 forward $84 $-1 #
coedge $-1 $135 $347 $350 $351 reversed $84 $-1 #
coedge $-1 $352 $353 $135 $215 forward $354 $-1 #
edge $-1 $355 8.2121152629617846 $356 14.927349038136679 $214 $357 forward 7 unknown #
face $-1 $358 $359 $50 $-1 $360 reversed single #
loop $-1 $-1 $361 $136 #
plane-surface $-1 -145.23209296321369 -8.2121152629617846 90.934446160100947 0 -1 0 0.68199836817093118 0 -0.7313536940579346 forward_v I I I I #
coedge $-1 $362 $363 $364 $365 reversed $137 $-1 #
coedge $-1 $221 $139 $366 $367 reversed $87 $-1 #
coedge $-1 $139 $220 $362 $368 reversed $87 $-1 #
coedge $-1 $364 $369 $139 $223 forward $370 $-1 #
edge $-1 $371 11.181066166045454 $372 17.055675635601332 $222 $373 forward 7 unknown #
loop $-1 $-1 $229 $140 #
plane-surface $-1 -61.43498031556139 -11.371881391142017 1.0730465637763018 -0.68199836817093118 0 0.7313536940579346 0.7313536940579346 0 0.68199836817093118 forward_v I I I I #
loop $-1 $-1 $374 $89 #
coedge $-1 $227 $227 $228 $375 reversed $141 $-1 #
coedge $-1 $228 $228 $227 $375 forward $143 $-1 #
coedge $-1 $229 $229 $144 $230 forward $224 $-1 #
edge $-1 $376 0 $376 6.2831853071796004 $229 $377 forward 7 unknown #
face $-1 $378 $379 $52 $-1 $380 forward single #
loop $-1 $-1 $381 $145 #
plane-surface $-1 -145.23209296321369 3.3576168875874455 90.934446160100947 0 -1 0 0.68199836817093118 0 -0.7313536940579346 forward_v I I I I #
coedge $-1 $382 $383 $384 $385 reversed $146 $-1 #
coedge $-1 $236 $148 $386 $387 reversed $93 $-1 #
coedge $-1 $148 $235 $382 $388 reversed $93 $-1 #
coedge $-1 $384 $389 $148 $238 forward $379 $-1 #
edge $-1 $390 11.181066166045454 $391 17.055675635601332 $237 $392 forward 7 unknown #
loop $-1 $-1 $244 $149 #
plane-surface $-1 -61.43498031556139 0.19785075940721342 1.0730465637763018 -0.68199836817093118 0 0.7313536940579346 0.7313536940579346 0 0.68199836817093118 forward_v I I I I #
loop $-1 $-1 $393 $95 #
coedge $-1 $242 $242 $243 $394 reversed $150 $-1 #
coedge $-1 $243 $243 $242 $394 forward $152 $-1 #
coedge $-1 $244 $244 $153 $245 forward $239 $-1 #
edge $-1 $395 0 $395 6.2831853071796004 $244 $396 forward 7 unknown #
face $-1 $397 $398 $54 $-1 $399 forward single #
loop $-1 $-1 $400 $154 #
plane-surface $-1 -145.23209296321369 14.927349038136674 90.934446160100947 0 -1 0 0.68199836817093118 0 -0.7313536940579346 forward_v I I I I #
coedge $-1 $401 $402 $403 $404 reversed $155 $-1 #
coedge $-1 $251 $157 $405 $406 reversed $99 $-1 #
coedge $-1 $157 $250 $401 $407 reversed $99 $-1 #
coedge $-1 $403 $408 $157 $253 forward $398 $-1 #
edge $-1 $409 11.181066166045454 $410 17.055675635601332 $252 $411 forward 7 unknown #
loop $-1 $-1 $259 $158 #
plane-surface $-1 -61.43498031556139 11.767582909956442 1.0730465637763018 -0.68199836817093118 0 0.7313536940579346 0.7313536940579346 0 0.68199836817093118 forward_v I I I I #
loop $-1 $-1 $412 $101 #
coedge $-1 $257 $257 $258 $413 reversed $159 $-1 #
coedge $-1 $258 $258 $257 $413 forward $161 $-1 #
coedge $-1 $259 $259 $162 $260 forward $254 $-1 #
edge $-1 $414 0 $414 6.2831853071796004 $259 $415 forward 7 unknown #
face $-1 $416 $417 $56 $-1 $418 reversed single #
loop $-1 $-1 $267 $163 #
plane-surface $-1 0 0 6.5512086410724226 0 0 1 1 0 0 forward_v I I I I #
coedge $-1 $419 $420 $421 $422 reversed $164 $-1 #
coedge $-1 $266 $166 $423 $424 reversed $105 $-1 #
coedge $-1 $166 $265 $419 $425 reversed $105 $-1 #
coedge $-1 $421 $426 $166 $268 forward $262 $-1 #
edge $-1 $427 11.181066166045454 $428 17.055675635601332 $267 $429 forward 7 unknown #
loop $-1 $-1 $274 $167 #
plane-surface $-1 -61.43498031556139 23.33731506050567 1.0730465637763018 -0.68199836817093118 0 0.7313536940579346 0.7313536940579346 0 0.68199836817093118 forward_v I I I I #
loop $-1 $-1 $430 $107 #
coedge $-1 $272 $272 $273 $431 reversed $168 $-1 #
coedge $-1 $273 $273 $272 $431 forward $170 $-1 #
coedge $-1 $274 $274 $171 $275 forward $269 $-1 #
edge $-1 $432 0 $432 6.2831853071796004 $274 $433 forward 7 unknown #
face $-1 $434 $435 $58 $-1 $436 forward single #
loop $-1 $-1 $282 $172 #
plane-surface $-1 0 0 6.5512086410724226 0 0 1 1 0 0 forward_v I I I I #
coedge $-1 $437 $438 $439 $440 reversed $173 $-1 #
coedge $-1 $281 $175 $441 $442 reversed $111 $-1 #
coedge $-1 $175 $280 $437 $443 reversed $111 $-1 #
coedge $-1 $439 $444 $175 $283 forward $277 $-1 #
edge $-1 $445 -48.781310872427802 $446 -41.422101412302517 $282 $447 forward 7 unknown #
loop $-1 $-1 $289 $176 #
plane-surface $-1 -41.612438780984775 -14.956857965762618 68.691859715964824 0.54463904215088732 0 0.83867056331134215 0.83867056331134215 0 -0.54463904215088732 forward_v I I I I #
loop $-1 $-1 $448 $113 #
coedge $-1 $287 $287 $288 $449 reversed $177 $-1 #
coedge $-1 $288 $288 $287 $449 forward $179 $-1 #
coedge $-1 $289 $289 $180 $290 forward $284 $-1 #
edge $-1 $450 0 $450 6.2831853071796004 $289 $451 forward 7 unknown #
loop $-1 $-1 $296 $181 #
plane-surface $-1 -41.612438780984775 -14.956857965762618 68.691859715964824 0.54463904215088732 0 0.83867056331134215 0.83867056331134215 0 -0.54463904215088732 forward_v I I I I #
loop $-1 $-1 $452 $116 #
coedge $-1 $294 $294 $295 $453 reversed $182 $-1 #
coedge $-1 $295 $295 $294 $453 forward $184 $-1 #
coedge $-1 $296 $296 $185 $297 forward $291 $-1 #
edge $-1 $454 0 $454 6.2831853071796004 $296 $455 forward 7 unknown #
face $-1 $456 $457 $61 $-1 $458 reversed single #
loop $-1 $-1 $459 $186 #
plane-surface $-1 25.307338886267175 3.3576168875874455 171.739278812511 0 1 0 0.54463904215088732 0 0.83867056331134215 forward_v I I I I #
coedge $-1 $460 $461 $462 $463 reversed $187 $-1 #
coedge $-1 $303 $189 $464 $465 reversed $120 $-1 #
coedge $-1 $189 $302 $460 $466 reversed $120 $-1 #
coedge $-1 $462 $467 $189 $305 forward $468 $-1 #
edge $-1 $469 -48.781310872427802 $470 -41.422101412302517 $304 $471 forward 7 unknown #
loop $-1 $-1 $311 $190 #
plane-surface $-1 -41.612438780984775 8.1826063353358442 68.691859715964824 0.54463904215088732 0 0.83867056331134215 0.83867056331134215 0 -0.54463904215088732 forward_v I I I I #
loop $-1 $-1 $472 $122 #
coedge $-1 $309 $309 $310 $473 reversed $191 $-1 #
coedge $-1 $310 $310 $309 $473 forward $193 $-1 #
coedge $-1 $311 $311 $194 $312 forward $306 $-1 #
edge $-1 $474 0 $474 6.2831853071796004 $311 $475 forward 7 unknown #
loop $-1 $-1 $318 $195 #
plane-surface $-1 -41.612438780984775 8.1826063353358442 68.691859715964824 0.54463904215088732 0 0.83867056331134215 0.83867056331134215 0 -0.54463904215088732 forward_v I I I I #
loop $-1 $-1 $476 $125 #
coedge $-1 $316 $316 $317 $477 reversed $196 $-1 #
coedge $-1 $317 $317 $316 $477 forward $198 $-1 #
coedge $-1 $318 $318 $199 $319 forward $313 $-1 #
edge $-1 $478 0 $478 6.2831853071796004 $318 $479 forward 7 unknown #
face $-1 $480 $481 $48 $-1 $482 reversed single #
loop $-1 $-1 $483 $200 #
plane-surface $-1 -61.43498031556139 0 0 1 0 0 0 0 -1 forward_v I I I I #
coedge $-1 $484 $331 $485 $486 forward $201 $-1 #
coedge $-1 $487 $203 $484 $488 forward $129 $-1 #
coedge $-1 $203 $487 $489 $490 forward $129 $-1 #
coedge $-1 $334 $333 $203 $327 reversed $335 $-1 #
edge $-1 $491 -26.497081188685915 $492 26.497081188685915 $326 $493 forward 7 unknown #
coedge $-1 $205 $204 $494 $495 forward $81 $-1 #
coedge $-1 $496 $497 $204 $330 reversed $481 $-1 #
edge $-1 $337 -61.43498031556139 $498 61.43498031556139 $329 $499 forward 7 unknown #
coedge $-1 $323 $500 $205 $332 reversed $201 $-1 #
edge $-1 $501 -61.43498031556139 $336 61.43498031556139 $331 $502 forward 7 unknown #
coedge $-1 $326 $206 $500 $503 forward $335 $-1 #
coedge $-1 $206 $326 $496 $504 reversed $335 $-1 #
loop $-1 $-1 $333 $480 #
vertex $-1 $207 $505 #
vertex $-1 $207 $506 #
straight-curve $-1 61.43498031556139 0 6.5512086410724226 0 1 0 I I #
face $-1 $507 $508 $49 $-1 $509 reversed single #
loop $-1 $-1 $510 $208 #
plane-surface $-1 -61.43498031556139 0 0 1 0 0 0 0 -1 forward_v I I I I #
coedge $-1 $511 $512 $344 $513 reversed $209 $-1 #
coedge $-1 $514 $211 $515 $516 reversed $133 $-1 #
coedge $-1 $211 $514 $342 $513 forward $133 $-1 #
coedge $-1 $353 $352 $211 $346 forward $354 $-1 #
edge $-1 $517 -14.927349038136679 $518 -8.2121152629617846 $345 $519 forward 7 unknown #
coedge $-1 $213 $212 $510 $520 reversed $84 $-1 #
coedge $-1 $512 $511 $212 $349 reversed $209 $-1 #
edge $-1 $355 -61.43498031556139 $521 61.43498031556139 $348 $522 forward 7 unknown #
coedge $-1 $523 $524 $213 $351 forward $508 $-1 #
edge $-1 $356 -61.43498031556139 $525 61.43498031556139 $350 $526 forward 7 unknown #
coedge $-1 $345 $214 $524 $527 forward $354 $-1 #
coedge $-1 $214 $345 $512 $528 forward $354 $-1 #
loop $-1 $-1 $214 $507 #
vertex $-1 $215 $529 #
vertex $-1 $527 $530 #
straight-curve $-1 61.43498031556139 -11.569732150549232 6.0512086410724226 0 -1 0 I I #
face $-1 $-1 $370 $50 $-1 $531 forward single #
loop $-1 $-1 $532 $216 #
plane-surface $-1 -61.43498031556139 0 0 1 0 0 0 0 -1 forward_v I I I I #
coedge $-1 $533 $534 $535 $536 reversed $217 $-1 #
coedge $-1 $537 $219 $221 $368 forward $137 $-1 #
coedge $-1 $219 $537 $533 $538 forward $137 $-1 #
coedge $-1 $535 $222 $219 $365 forward $370 $-1 #
edge $-1 $372 -8.8457068237512395 $539 -2.5261745673907763 $364 $540 forward 7 unknown #
coedge $-1 $541 $542 $220 $367 forward $359 $-1 #
edge $-1 $543 -44.394176516274172 $371 -38.916014438978053 $366 $544 forward 7 unknown #
edge $-1 $372 -8.0325149339992485 $543 0 $221 $545 forward 7 unknown #
coedge $-1 $222 $535 $541 $546 forward $370 $-1 #
loop $-1 $-1 $535 $358 #
vertex $-1 $367 $547 #
vertex $-1 $223 $548 #
straight-curve $-1 -72.616046481606844 -14.531647519322249 6.5512086410724208 1 0 0 I I #
coedge $-1 $374 $374 $-1 $549 reversed $226 $-1 #
edge $-1 $550 0 $550 6.2831853071796004 $227 $551 forward 7 unknown #
vertex $-1 $230 $552 #
ellipse-curve $-1 -58.497675580783451 -11.371881391142017 3.812127602424364 -0.68199836817093118 0 0.7313536940579346 0.3656768470289673 0 0.34099918408546559 1 I I #
face $-1 $-1 $553 $52 $-1 $554 reversed single #
loop $-1 $-1 $237 $231 #
plane-surface $-1 0 0 6.5512086410724226 0 0 1 1 0 0 forward_v I I I I #
coedge $-1 $555 $556 $557 $558 reversed $232 $-1 #
coedge $-1 $559 $234 $236 $388 forward $146 $-1 #
coedge $-1 $234 $559 $555 $560 forward $146 $-1 #
coedge $-1 $557 $237 $234 $385 forward $379 $-1 #
edge $-1 $391 -3.0608407484766254 $561 3.2586915078838388 $384 $562 forward 7 unknown #
coedge $-1 $563 $564 $235 $387 forward $553 $-1 #
edge $-1 $565 -44.394176516274172 $390 -38.916014438978053 $386 $566 forward 7 unknown #
edge $-1 $391 -8.0325149339992485 $565 0 $236 $567 forward 7 unknown #
coedge $-1 $237 $557 $563 $568 forward $379 $-1 #
vertex $-1 $238 $569 #
vertex $-1 $238 $570 #
straight-curve $-1 -72.616046481606844 -2.9619153687730186 6.5512086410724208 1 0 0 I I #
coedge $-1 $393 $393 $-1 $571 reversed $241 $-1 #
edge $-1 $572 0 $572 6.2831853071796004 $242 $573 forward 7 unknown #
vertex $-1 $245 $574 #
ellipse-curve $-1 -58.497675580783451 0.19785075940721342 3.812127602424364 -0.68199836817093118 0 0.7313536940579346 0.3656768470289673 0 0.34099918408546559 1 I I #
face $-1 $-1 $575 $54 $-1 $576 reversed single #
loop $-1 $-1 $252 $246 #
plane-surface $-1 0 0 6.5512086410724226 0 0 1 1 0 0 forward_v I I I I #
coedge $-1 $577 $578 $579 $580 reversed $247 $-1 #
coedge $-1 $581 $249 $251 $407 forward $155 $-1 #
coedge $-1 $249 $581 $577 $582 forward $155 $-1 #
coedge $-1 $579 $252 $249 $404 forward $398 $-1 #
edge $-1 $410 2.7240253267979888 $583 9.0435575831584529 $403 $584 forward 7 unknown #
coedge $-1 $585 $586 $250 $406 forward $575 $-1 #
edge $-1 $587 -44.394176516274172 $409 -38.916014438978053 $405 $588 forward 7 unknown #
edge $-1 $410 -8.0325149339992485 $587 0 $251 $589 forward 7 unknown #
coedge $-1 $252 $579 $585 $590 forward $398 $-1 #
vertex $-1 $253 $591 #
vertex $-1 $253 $592 #
straight-curve $-1 -72.616046481606844 8.6078167817762097 6.5512086410724208 1 0 0 I I #
coedge $-1 $412 $412 $-1 $593 reversed $256 $-1 #
edge $-1 $594 0 $594 6.2831853071796004 $257 $595 forward 7 unknown #
vertex $-1 $260 $596 #
ellipse-curve $-1 -58.497675580783451 11.767582909956442 3.812127602424364 -0.68199836817093118 0 0.7313536940579346 0.3656768470289673 0 0.34099918408546559 1 I I #
face $-1 $-1 $597 $56 $-1 $598 reversed single #
loop $-1 $-1 $599 $261 #
plane-surface $-1 0 26.497081188685915 0 0 -1 0 0 0 -1 forward_v I I I I #
coedge $-1 $600 $264 $266 $425 forward $164 $-1 #
coedge $-1 $264 $600 $599 $601 reversed $164 $-1 #
coedge $-1 $602 $267 $264 $422 forward $262 $-1 #
edge $-1 $428 8.5088914020726012 $603 14.828423658433069 $421 $604 forward 7 unknown #
coedge $-1 $605 $606 $265 $424 forward $597 $-1 #
edge $-1 $607 -44.394176516274172 $427 -38.916014438978053 $423 $608 forward 7 unknown #
edge $-1 $428 -8.0325149339992485 $607 0 $266 $609 forward 7 unknown #
coedge $-1 $267 $602 $605 $610 forward $262 $-1 #
vertex $-1 $424 $611 #
vertex $-1 $268 $612 #
straight-curve $-1 -72.616046481606844 20.177548932325436 6.5512086410724208 1 0 0 I I #
coedge $-1 $430 $430 $-1 $613 reversed $271 $-1 #
edge $-1 $614 0 $614 6.2831853071796004 $272 $615 forward 7 unknown #
vertex $-1 $275 $616 #
ellipse-curve $-1 -58.497675580783451 23.33731506050567 3.812127602424364 -0.68199836817093118 0 0.7313536940579346 0.3656768470289673 0 0.34099918408546559 1 I I #
face $-1 $-1 $617 $58 $-1 $618 reversed single #
loop $-1 $-1 $619 $276 #
plane-surface $-1 0 -19.781847413511016 4.5512086410724226 0 -1 0 0 0 -1 forward_v I I I I #
coedge $-1 $620 $279 $281 $443 forward $173 $-1 #
coedge $-1 $279 $620 $619 $621 forward $173 $-1 #
coedge $-1 $622 $282 $279 $440 forward $277 $-1 #
edge $-1 $446 2.6534395351329101 $623 12.303418430629709 $439 $624 forward 7 unknown #
coedge $-1 $625 $626 $280 $442 forward $617 $-1 #
edge $-1 $627 -84.097557357542613 $445 -79.318430765183081 $441 $628 forward 7 unknown #
edge $-1 $446 114.0951093580928 $627 122.86996063112277 $281 $629 forward 7 unknown #
coedge $-1 $282 $622 $625 $630 forward $277 $-1 #
vertex $-1 $442 $631 #
vertex $-1 $283 $632 #
straight-curve $-1 12.653669443133587 -10.131868518014219 6.5512086410724208 -1 0 0 I I #
coedge $-1 $448 $448 $-1 $633 reversed $286 $-1 #
edge $-1 $634 0 $634 6.2831853071796004 $287 $635 forward 7 unknown #
vertex $-1 $290 $636 #
ellipse-curve $-1 57.755375585498754 -17.024710586226217 4.1616453448926611 0.54463904215088732 0 0.83867056331134215 0.83867056331134215 0 -0.54463904215088732 1 I I #
coedge $-1 $452 $452 $-1 $637 reversed $293 $-1 #
edge $-1 $638 0 $638 6.2831853071796004 $294 $639 forward 7 unknown #
vertex $-1 $297 $640 #
ellipse-curve $-1 57.755375585498754 -12.889005345299017 4.1616453448926611 0.54463904215088732 0 0.83867056331134215 0.83867056331134215 0 -0.54463904215088732 1 I I #
face $-1 $-1 $468 $61 $-1 $641 forward single #
loop $-1 $-1 $642 $298 #
plane-surface $-1 61.43498031556139 0 0 -1 0 0 0 0 1 forward_v I I I I #
coedge $-1 $643 $644 $645 $646 reversed $299 $-1 #
coedge $-1 $647 $301 $303 $466 forward $187 $-1 #
coedge $-1 $301 $647 $643 $648 forward $187 $-1 #
coedge $-1 $645 $304 $301 $463 forward $468 $-1 #
edge $-1 $470 -8.9162926154163209 $649 0.73368628008047665 $462 $650 forward 7 unknown #
coedge $-1 $651 $652 $302 $465 forward $457 $-1 #
edge $-1 $653 -84.097557357542613 $469 -79.318430765183081 $464 $654 forward 7 unknown #
edge $-1 $470 114.0951093580928 $653 122.86996063112277 $303 $655 forward 7 unknown #
coedge $-1 $304 $645 $651 $656 forward $468 $-1 #
loop $-1 $-1 $645 $456 #
vertex $-1 $465 $657 #
vertex $-1 $305 $658 #
straight-curve $-1 12.653669443133587 13.007595783084243 6.5512086410724208 -1 0 0 I I #
coedge $-1 $472 $472 $-1 $659 reversed $308 $-1 #
edge $-1 $660 0 $660 6.2831853071796004 $309 $661 forward 7 unknown #
vertex $-1 $312 $662 #
ellipse-curve $-1 57.755375585498754 6.1147537148722471 4.1616453448926611 0.54463904215088732 0 0.83867056331134215 0.83867056331134215 0 -0.54463904215088732 1 I I #
coedge $-1 $476 $476 $-1 $663 reversed $315 $-1 #
edge $-1 $664 0 $664 6.2831853071796004 $316 $665 forward 7 unknown #
vertex $-1 $319 $666 #
ellipse-curve $-1 57.755375585498754 10.250458955799449 4.1616453448926611 0.54463904215088732 0 0.83867056331134215 0.83867056331134215 0 -0.54463904215088732 1 I I #
face $-1 $-1 $335 $48 $-1 $667 reversed single #
loop $-1 $-1 $496 $320 #
plane-surface $-1 0 26.497081188685915 0 0 -1 0 0 0 -1 forward_v I I I I #
coedge $-1 $668 $494 $497 $669 forward $321 $-1 #
coedge $-1 $500 $323 $324 $488 reversed $201 $-1 #
coedge $-1 $494 $668 $323 $486 reversed $321 $-1 #
edge $-1 $501 -6.5512086410724226 $670 6.5512086410724226 $485 $671 forward 7 unknown #
coedge $-1 $325 $324 $668 $672 forward $129 $-1 #
edge $-1 $492 -61.43498031556139 $670 61.43498031556139 $484 $673 forward 7 unknown #
coedge $-1 $497 $496 $325 $490 reversed $481 $-1 #
edge $-1 $674 -61.43498031556139 $491 61.43498031556139 $489 $675 forward 7 unknown #
vertex $-1 $327 $676 #
vertex $-1 $503 $677 #
straight-curve $-1 61.43498031556139 0 -6.5512086410724226 0 -1 0 I I #
coedge $-1 $483 $485 $328 $495 reversed $321 $-1 #
edge $-1 $498 -26.497081188685915 $501 26.497081188685915 $494 $678 forward 7 unknown #
coedge $-1 $489 $329 $334 $504 forward $481 $-1 #
coedge $-1 $329 $489 $483 $669 reversed $481 $-1 #
vertex $-1 $330 $679 #
straight-curve $-1 0 26.497081188685915 6.5512086410724226 -1 0 0 I I #
coedge $-1 $331 $484 $333 $503 reversed $201 $-1 #
vertex $-1 $495 $680 #
straight-curve $-1 0 -26.497081188685915 6.5512086410724226 1 0 0 I I #
edge $-1 $336 -6.5512086410724226 $492 6.5512086410724226 $333 $681 forward 7 unknown #
edge $-1 $337 -6.5512086410724226 $491 6.5512086410724226 $334 $682 forward 7 unknown #
point $-1 61.43498031556139 -26.497081188685915 6.5512086410724226 #
point $-1 61.43498031556139 26.497081188685915 6.5512086410724226 #
face $-1 $-1 $354 $49 $-1 $683 reversed single #
loop $-1 $-1 $350 $339 #
plane-surface $-1 0 -26.497081188685915 0 0 1 0 0 0 1 forward_v I I I I #
coedge $-1 $684 $685 $347 $520 forward $340 $-1 #
coedge $-1 $348 $342 $684 $686 reversed $209 $-1 #
coedge $-1 $342 $348 $353 $528 reversed $209 $-1 #
edge $-1 $687 -61.43498031556139 $518 61.43498031556139 $342 $688 forward 7 unknown #
coedge $-1 $344 $343 $689 $690 reversed $133 $-1 #
coedge $-1 $524 $523 $343 $516 forward $508 $-1 #
edge $-1 $691 -61.43498031556139 $517 61.43498031556139 $515 $692 forward 7 unknown #
vertex $-1 $516 $693 #
vertex $-1 $346 $694 #
straight-curve $-1 61.43498031556139 -11.569732150549232 3.0512086410724226 0 1 0 I I #
edge $-1 $525 -14.927349038136679 $521 -8.2121152629617846 $510 $695 forward 7 unknown #
vertex $-1 $520 $696 #
straight-curve $-1 0 -19.781847413511016 6.0512086410724226 -1 0 0 I I #
coedge $-1 $515 $350 $685 $697 forward $508 $-1 #
coedge $-1 $350 $515 $352 $527 reversed $508 $-1 #
vertex $-1 $697 $698 #
straight-curve $-1 0 -26.497081188685915 6.0512086410724226 -1 0 0 I I #
edge $-1 $356 -6.0512086410724226 $517 -3.0512086410724226 $352 $699 forward 7 unknown #
edge $-1 $518 0.77560432053621131 $355 3.7756043205362113 $353 $700 forward 7 unknown #
point $-1 61.43498031556139 -19.781847413511016 6.0512086410724226 #
point $-1 61.43498031556139 -26.497081188685911 6.0512086410724226 #
plane-surface $-1 0 0 6.5512086410724226 0 0 1 1 0 0 forward_v I I I I #
coedge $-1 $542 $541 $534 $701 forward $359 $-1 #
coedge $-1 $534 $361 $363 $538 reversed $217 $-1 #
coedge $-1 $361 $533 $532 $701 reversed $217 $-1 #
coedge $-1 $369 $364 $361 $536 forward $370 $-1 #
edge $-1 $539 -17.055675635601332 $702 -11.181066166045454 $535 $703 forward 7 unknown #
coedge $-1 $363 $362 $542 $704 reversed $137 $-1 #
edge $-1 $705 0 $539 8.0325149339992485 $533 $706 forward 7 unknown #
vertex $-1 $365 $707 #
straight-curve $-1 -55.560370846005519 -5.6859406955710083 6.5512086410724226 0 1 0 I I #
coedge $-1 $532 $366 $369 $546 reversed $359 $-1 #
coedge $-1 $366 $532 $537 $704 forward $359 $-1 #
vertex $-1 $367 $708 #
straight-curve $-1 -61.43498031556139 -14.531647519322249 45.467223080050474 0 0 1 I I #
straight-curve $-1 -61.43498031556139 -14.531647519322249 1.0730465637763018 -0.7313536940579346 0 -0.68199836817093118 I I #
edge $-1 $702 8.2121152629617846 $371 14.531647519322249 $541 $709 forward 7 unknown #
point $-1 -61.43498031556139 -14.531647519322249 6.5512086410724226 #
point $-1 -55.560370846005512 -14.531647519322249 6.5512086410724235 #
edge $-1 $710 1 $710 0 $374 $-1 forward 7 unknown #
vertex $-1 $375 $711 #
ellipse-curve $-1 -57.200584076976924 -11.371881391142017 2.4211672906215287 -0.68199836817093118 0 0.7313536940579346 0.3656768470289673 0 0.34099918408546559 1 I I #
point $-1 -58.131998733754479 -11.371881391142017 4.1531267865098282 #
loop $-1 $-1 $386 $378 #
plane-surface $-1 -61.43498031556139 0 0 1 0 0 0 0 -1 forward_v I I I I #
coedge $-1 $556 $381 $383 $560 reversed $232 $-1 #
coedge $-1 $381 $555 $712 $713 reversed $232 $-1 #
coedge $-1 $389 $384 $381 $558 forward $379 $-1 #
edge $-1 $561 -17.055675635601332 $714 -11.181066166045454 $557 $715 forward 7 unknown #
coedge $-1 $383 $382 $564 $716 reversed $146 $-1 #
edge $-1 $717 0 $561 8.0325149339992485 $555 $718 forward 7 unknown #
vertex $-1 $385 $719 #
straight-curve $-1 -55.560370846005519 0.098925379703606708 6.5512086410724226 0 1 0 I I #
coedge $-1 $712 $386 $389 $568 reversed $553 $-1 #
coedge $-1 $386 $712 $559 $716 forward $553 $-1 #
vertex $-1 $387 $720 #
straight-curve $-1 -61.43498031556139 -2.9619153687730186 45.467223080050474 0 0 1 I I #
straight-curve $-1 -61.43498031556139 -2.9619153687730186 1.0730465637763018 -0.7313536940579346 0 -0.68199836817093118 I I #
edge $-1 $714 -3.3576168875874455 $390 2.9619153687730186 $563 $721 forward 7 unknown #
point $-1 -61.43498031556139 -2.9619153687730186 6.5512086410724226 #
point $-1 -55.560370846005512 -2.9619153687730186 6.5512086410724235 #
edge $-1 $722 1 $722 0 $393 $-1 forward 7 unknown #
vertex $-1 $394 $723 #
ellipse-curve $-1 -57.200584076976924 0.19785075940721342 2.4211672906215287 -0.68199836817093118 0 0.7313536940579346 0.3656768470289673 0 0.34099918408546559 1 I I #
point $-1 -58.131998733754479 0.19785075940721342 4.1531267865098282 #
loop $-1 $-1 $405 $397 #
plane-surface $-1 -61.43498031556139 0 0 1 0 0 0 0 -1 forward_v I I I I #
coedge $-1 $578 $400 $402 $582 reversed $247 $-1 #
coedge $-1 $400 $577 $724 $725 reversed $247 $-1 #
coedge $-1 $408 $403 $400 $580 forward $398 $-1 #
edge $-1 $583 -17.055675635601332 $726 -11.181066166045454 $579 $727 forward 7 unknown #
coedge $-1 $402 $401 $586 $728 reversed $155 $-1 #
edge $-1 $729 0 $583 8.0325149339992485 $577 $730 forward 7 unknown #
vertex $-1 $404 $731 #
straight-curve $-1 -55.560370846005519 5.8837914549782209 6.5512086410724226 0 1 0 I I #
coedge $-1 $724 $405 $408 $590 reversed $575 $-1 #
coedge $-1 $405 $724 $581 $728 forward $575 $-1 #
vertex $-1 $406 $732 #
straight-curve $-1 -61.43498031556139 8.6078167817762097 45.467223080050474 0 0 1 I I #
straight-curve $-1 -61.43498031556139 8.6078167817762097 1.0730465637763018 -0.7313536940579346 0 -0.68199836817093118 I I #
edge $-1 $726 -14.927349038136674 $409 -8.6078167817762097 $585 $733 forward 7 unknown #
point $-1 -61.43498031556139 8.6078167817762097 6.5512086410724226 #
point $-1 -55.560370846005512 8.6078167817762097 6.5512086410724235 #
edge $-1 $734 1 $734 0 $412 $-1 forward 7 unknown #
vertex $-1 $413 $735 #
ellipse-curve $-1 -57.200584076976924 11.767582909956442 2.4211672906215287 -0.68199836817093118 0 0.7313536940579346 0.3656768470289673 0 0.34099918408546559 1 I I #
point $-1 -58.131998733754479 11.767582909956442 4.1531267865098282 #
loop $-1 $-1 $423 $416 #
plane-surface $-1 -61.43498031556139 0 0 1 0 0 0 0 -1 forward_v I I I I #
coedge $-1 $736 $737 $420 $601 forward $417 $-1 #
coedge $-1 $420 $419 $606 $738 reversed $164 $-1 #
edge $-1 $603 14.066926962348477 $739 22.099441896347727 $599 $740 forward 7 unknown #
coedge $-1 $426 $421 $737 $741 forward $262 $-1 #
vertex $-1 $741 $742 #
straight-curve $-1 -55.560370846005519 11.668657530252835 6.5512086410724226 0 1 0 I I #
coedge $-1 $743 $423 $426 $610 reversed $597 $-1 #
coedge $-1 $423 $743 $600 $738 forward $597 $-1 #
vertex $-1 $424 $744 #
straight-curve $-1 -61.43498031556139 20.177548932325436 45.467223080050474 0 0 1 I I #
straight-curve $-1 -61.43498031556139 20.177548932325436 1.0730465637763018 -0.7313536940579346 0 -0.68199836817093118 I I #
edge $-1 $745 -26.497081188685915 $427 -20.177548932325436 $605 $746 forward 7 unknown #
point $-1 -61.43498031556139 20.177548932325436 6.5512086410724226 #
point $-1 -55.560370846005512 20.177548932325436 6.5512086410724235 #
edge $-1 $747 1 $747 0 $430 $-1 forward 7 unknown #
vertex $-1 $431 $748 #
ellipse-curve $-1 -57.200584076976924 23.33731506050567 2.4211672906215287 -0.68199836817093118 0 0.7313536940579346 0.3656768470289673 0 0.34099918408546559 1 I I #
point $-1 -58.131998733754479 23.33731506050567 4.1531267865098282 #
loop $-1 $-1 $441 $434 #
plane-surface $-1 61.43498031556139 0 0 -1 0 0 0 0 1 forward_v I I I I #
coedge $-1 $749 $750 $438 $621 reversed $435 $-1 #
coedge $-1 $438 $437 $626 $751 reversed $173 $-1 #
edge $-1 $752 -122.86996063112277 $623 -114.0951093580928 $619 $753 forward 7 unknown #
coedge $-1 $444 $439 $750 $754 forward $277 $-1 #
vertex $-1 $754 $755 #
straight-curve $-1 54.075770855436097 -7.4784289828813089 6.5512086410724208 0 -1 0 I I #
coedge $-1 $756 $441 $444 $630 reversed $617 $-1 #
coedge $-1 $441 $756 $620 $751 forward $617 $-1 #
vertex $-1 $442 $757 #
straight-curve $-1 61.43498031556139 -10.131868518014219 85.869639406255502 0 0 1 I I #
straight-curve $-1 -41.612438780984775 -10.131868518014219 68.691859715964824 0.83867056331134215 0 -0.54463904215088732 I I #
edge $-1 $758 -19.781847413511016 $445 -10.131868518014219 $625 $759 forward 7 unknown #
point $-1 61.43498031556139 -10.131868518014219 6.5512086410724226 #
point $-1 54.075770855436105 -10.131868518014219 6.5512086410724208 #
edge $-1 $760 1 $760 0 $448 $-1 forward 7 unknown #
vertex $-1 $449 $761 #
ellipse-curve $-1 56.330275265178528 -17.024710586226217 1.9671833325879642 0.54463904215088732 0 0.83867056331134215 0.83867056331134215 0 -0.54463904215088732 1 I I #
point $-1 58.594046148810094 -17.024710586226217 3.6170063027417694 #
edge $-1 $762 1 $762 0 $452 $-1 forward 7 unknown #
vertex $-1 $453 $763 #
ellipse-curve $-1 56.330275265178528 -12.889005345299017 1.9671833325879642 0.54463904215088732 0 0.83867056331134215 0.83867056331134215 0 -0.54463904215088732 1 I I #
point $-1 58.594046148810094 -12.889005345299017 3.6170063027417694 #
plane-surface $-1 0 0 6.5512086410724226 0 0 1 1 0 0 forward_v I I I I #
coedge $-1 $652 $651 $644 $764 forward $457 $-1 #
coedge $-1 $644 $459 $461 $648 reversed $299 $-1 #
coedge $-1 $459 $643 $642 $764 reversed $299 $-1 #
coedge $-1 $467 $462 $459 $646 forward $468 $-1 #
edge $-1 $649 41.422101412302517 $765 48.781310872427802 $645 $766 forward 7 unknown #
coedge $-1 $461 $460 $652 $767 reversed $187 $-1 #
edge $-1 $768 -122.86996063112277 $649 -114.0951093580928 $643 $769 forward 7 unknown #
vertex $-1 $463 $770 #
straight-curve $-1 54.075770855436097 4.0913031676679221 6.5512086410724208 0 -1 0 I I #
coedge $-1 $642 $464 $467 $656 reversed $457 $-1 #
coedge $-1 $464 $642 $647 $767 forward $457 $-1 #
vertex $-1 $465 $771 #
straight-curve $-1 61.43498031556139 13.007595783084243 85.869639406255502 0 0 1 I I #
straight-curve $-1 -41.612438780984775 13.007595783084243 68.691859715964824 0.83867056331134215 0 -0.54463904215088732 I I #
edge $-1 $765 3.3576168875874455 $469 13.007595783084243 $651 $772 forward 7 unknown #
point $-1 61.43498031556139 13.007595783084243 6.5512086410724226 #
point $-1 54.075770855436105 13.007595783084243 6.5512086410724208 #
edge $-1 $773 1 $773 0 $472 $-1 forward 7 unknown #
vertex $-1 $473 $774 #
ellipse-curve $-1 56.330275265178528 6.1147537148722471 1.9671833325879642 0.54463904215088732 0 0.83867056331134215 0.83867056331134215 0 -0.54463904215088732 1 I I #
point $-1 58.594046148810094 6.1147537148722471 3.6170063027417694 #
edge $-1 $775 1 $775 0 $476 $-1 forward 7 unknown #
vertex $-1 $477 $776 #
ellipse-curve $-1 56.330275265178528 10.250458955799449 1.9671833325879642 0.54463904215088732 0 0.83867056331134215 0.83867056331134215 0 -0.54463904215088732 1 I I #
point $-1 58.594046148810094 10.250458955799449 3.6170063027417694 #
plane-surface $-1 61.43498031556139 0 0 -1 0 0 0 0 1 forward_v I I I I #
coedge $-1 $485 $483 $487 $672 reversed $321 $-1 #
edge $-1 $498 -6.5512086410724226 $674 6.5512086410724226 $497 $777 forward 7 unknown #
vertex $-1 $672 $778 #
straight-curve $-1 -61.43498031556139 -26.497081188685915 0 0 0 -1 I I #
edge $-1 $670 -26.497081188685915 $674 26.497081188685915 $668 $779 forward 7 unknown #
straight-curve $-1 0 -26.497081188685915 -6.5512086410724226 -1 0 0 I I #
vertex $-1 $490 $780 #
straight-curve $-1 0 26.497081188685915 -6.5512086410724226 1 0 0 I I #
point $-1 61.43498031556139 26.497081188685915 -6.5512086410724226 #
point $-1 61.43498031556139 -26.497081188685915 -6.5512086410724226 #
straight-curve $-1 -61.43498031556139 0 6.5512086410724226 0 -1 0 I I #
point $-1 -61.43498031556139 26.497081188685915 6.5512086410724226 #
point $-1 -61.43498031556139 -26.497081188685915 6.5512086410724226 #
straight-curve $-1 61.43498031556139 -26.497081188685915 0 0 0 -1 I I #
straight-curve $-1 61.43498031556139 26.497081188685915 0 0 0 -1 I I #
plane-surface $-1 61.43498031556139 0 0 -1 0 0 0 0 1 forward_v I I I I #
coedge $-1 $689 $510 $511 $686 forward $340 $-1 #
coedge $-1 $510 $689 $523 $697 reversed $340 $-1 #
edge $-1 $521 -3.7756043205362113 $687 -0.77560432053621131 $684 $781 forward 7 unknown #
vertex $-1 $690 $782 #
straight-curve $-1 0 -19.781847413511016 3.0512086410724226 1 0 0 I I #
coedge $-1 $685 $684 $514 $690 forward $340 $-1 #
edge $-1 $687 8.2121152629617846 $691 14.927349038136679 $689 $783 forward 7 unknown #
vertex $-1 $516 $784 #
straight-curve $-1 0 -26.497081188685915 3.0512086410724226 1 0 0 I I #
point $-1 61.43498031556139 -26.497081188685911 3.0512086410724226 #
point $-1 61.43498031556139 -19.781847413511016 3.0512086410724226 #
straight-curve $-1 -61.43498031556139 -11.569732150549232 6.0512086410724226 0 1 0 I I #
point $-1 -61.43498031556139 -19.781847413511016 6.0512086410724226 #
edge $-1 $525 -6.0512086410724226 $691 -3.0512086410724226 $685 $785 forward 7 unknown #
point $-1 -61.43498031556139 -26.497081188685911 6.0512086410724226 #
straight-curve $-1 61.43498031556139 -26.497081188685915 0 0 0 -1 I I #
straight-curve $-1 61.43498031556139 -19.781847413511016 2.2756043205362113 0 0 1 I I #
edge $-1 $702 38.916014438978053 $705 44.394176516274172 $532 $786 forward 7 unknown #
vertex $-1 $546 $787 #
straight-curve $-1 -72.616046481606844 -8.2121152629617846 6.5512086410724208 -1 0 0 I I #
edge $-1 $705 2.5261745673907763 $543 8.8457068237512395 $542 $788 forward 7 unknown #
vertex $-1 $704 $789 #
straight-curve $-1 -61.43498031556139 -8.2121152629617846 1.0730465637763018 0.7313536940579346 0 0.68199836817093118 I I #
point $-1 -55.560370846005512 -8.2121152629617846 6.5512086410724235 #
point $-1 -61.43498031556139 -14.531647519322249 1.0730465637763018 #
straight-curve $-1 -61.43498031556139 0 6.5512086410724226 0 -1 0 I I #
vertex $-1 $549 $790 #
point $-1 -56.834907229947959 -11.371881391142017 2.7621664747069943 #
coedge $-1 $564 $563 $556 $713 forward $553 $-1 #
edge $-1 $714 38.916014438978053 $717 44.394176516274172 $712 $791 forward 7 unknown #
vertex $-1 $568 $792 #
straight-curve $-1 -72.616046481606844 3.3576168875874455 6.5512086410724208 -1 0 0 I I #
edge $-1 $717 -3.2586915078838388 $565 3.0608407484766254 $564 $793 forward 7 unknown #
vertex $-1 $716 $794 #
straight-curve $-1 -61.43498031556139 3.3576168875874455 1.0730465637763018 0.7313536940579346 0 0.68199836817093118 I I #
point $-1 -55.560370846005512 3.3576168875874455 6.5512086410724235 #
point $-1 -61.43498031556139 -2.9619153687730186 1.0730465637763018 #
straight-curve $-1 -61.43498031556139 0 6.5512086410724226 0 -1 0 I I #
vertex $-1 $571 $795 #
point $-1 -56.834907229947959 0.19785075940721342 2.7621664747069943 #
coedge $-1 $586 $585 $578 $725 forward $575 $-1 #
edge $-1 $726 38.916014438978053 $729 44.394176516274172 $724 $796 forward 7 unknown #
vertex $-1 $590 $797 #
straight-curve $-1 -72.616046481606844 14.927349038136674 6.5512086410724208 -1 0 0 I I #
edge $-1 $729 -9.0435575831584529 $587 -2.7240253267979888 $586 $798 forward 7 unknown #
vertex $-1 $728 $799 #
straight-curve $-1 -61.43498031556139 14.927349038136674 1.0730465637763018 0.7313536940579346 0 0.68199836817093118 I I #
point $-1 -55.560370846005512 14.927349038136674 6.5512086410724235 #
point $-1 -61.43498031556139 8.6078167817762097 1.0730465637763018 #
straight-curve $-1 -61.43498031556139 0 6.5512086410724226 0 -1 0 I I #
vertex $-1 $593 $800 #
point $-1 -56.834907229947959 11.767582909956442 2.7621664747069943 #
coedge $-1 $737 $599 $743 $801 reversed $417 $-1 #
coedge $-1 $599 $736 $602 $741 reversed $417 $-1 #
edge $-1 $739 -14.828423658433069 $607 -8.5088914020726012 $606 $802 forward 7 unknown #
vertex $-1 $601 $803 #
straight-curve $-1 -45.272471848048795 26.497081188685915 16.144829874573762 -0.7313536940579346 0 -0.68199836817093118 I I #
edge $-1 $603 55.560370846005512 $745 61.43498031556139 $737 $804 forward 7 unknown #
point $-1 -55.560370846005512 26.497081188685904 6.5512086410724235 #
coedge $-1 $606 $605 $736 $801 forward $597 $-1 #
point $-1 -61.43498031556139 20.177548932325436 1.0730465637763018 #
vertex $-1 $741 $805 #
straight-curve $-1 -61.43498031556139 0 6.5512086410724226 0 -1 0 I I #
vertex $-1 $613 $806 #
point $-1 -56.834907229947959 23.33731506050567 2.7621664747069943 #
coedge $-1 $750 $619 $756 $807 reversed $435 $-1 #
coedge $-1 $619 $749 $622 $754 reversed $435 $-1 #
edge $-1 $752 -12.303418430629709 $627 -2.6534395351329101 $626 $808 forward 7 unknown #
vertex $-1 $807 $809 #
straight-curve $-1 -41.612438780984775 -19.781847413511016 68.691859715964824 -0.83867056331134215 0 0.54463904215088732 I I #
edge $-1 $623 41.422101412302517 $758 48.781310872427802 $622 $810 forward 7 unknown #
point $-1 54.075770855436105 -19.781847413511016 6.5512086410724208 #
coedge $-1 $626 $625 $749 $807 forward $617 $-1 #
point $-1 61.43498031556139 -10.131868518014219 1.772082048712889 #
vertex $-1 $630 $811 #
straight-curve $-1 61.43498031556139 0 6.5512086410724226 0 1 0 I I #
vertex $-1 $633 $812 #
point $-1 57.168945828489868 -17.024710586226217 1.4225442904370769 #
vertex $-1 $637 $813 #
point $-1 57.168945828489868 -12.889005345299017 1.4225442904370769 #
edge $-1 $765 79.318430765183081 $768 84.097557357542613 $642 $814 forward 7 unknown #
vertex $-1 $656 $815 #
straight-curve $-1 12.653669443133587 3.3576168875874455 6.5512086410724208 1 0 0 I I #
edge $-1 $768 -0.73368628008047665 $653 8.9162926154163209 $652 $816 forward 7 unknown #
vertex $-1 $767 $817 #
straight-curve $-1 -41.612438780984775 3.3576168875874455 68.691859715964824 -0.83867056331134215 0 0.54463904215088732 I I #
point $-1 54.075770855436105 3.3576168875874455 6.5512086410724208 #
point $-1 61.43498031556139 13.007595783084243 1.772082048712889 #
straight-curve $-1 61.43498031556139 0 6.5512086410724226 0 1 0 I I #
vertex $-1 $659 $818 #
point $-1 57.168945828489868 6.1147537148722471 1.4225442904370769 #
vertex $-1 $663 $819 #
point $-1 57.168945828489868 10.250458955799449 1.4225442904370769 #
straight-curve $-1 -61.43498031556139 26.497081188685915 0 0 0 -1 I I #
point $-1 -61.43498031556139 -26.497081188685915 -6.5512086410724226 #
straight-curve $-1 -61.43498031556139 0 -6.5512086410724226 0 1 0 I I #
point $-1 -61.43498031556139 26.497081188685915 -6.5512086410724226 #
straight-curve $-1 -61.43498031556139 -19.781847413511016 2.2756043205362113 0 0 -1 I I #
point $-1 -61.43498031556139 -19.781847413511016 3.0512086410724226 #
straight-curve $-1 -61.43498031556139 -11.569732150549232 3.0512086410724226 0 -1 0 I I #
point $-1 -61.43498031556139 -26.497081188685911 3.0512086410724226 #
straight-curve $-1 -61.43498031556139 -26.497081188685915 0 0 0 -1 I I #
straight-curve $-1 -61.43498031556139 -8.2121152629617846 45.467223080050474 0 0 -1 I I #
point $-1 -61.43498031556139 -8.2121152629617846 6.5512086410724226 #
straight-curve $-1 -61.43498031556139 -5.6859406955710083 1.0730465637763 0 -1 0 I I #
point $-1 -61.43498031556139 -8.2121152629617846 1.0730465637763018 #
point $-1 -56.859584892891462 -11.371881391142017 2.0554904435925612 #
straight-curve $-1 -61.43498031556139 3.3576168875874455 45.467223080050474 0 0 -1 I I #
point $-1 -61.43498031556139 3.3576168875874455 6.5512086410724226 #
straight-curve $-1 -61.43498031556139 0.098925379703606708 1.0730465637763 0 -1 0 I I #
point $-1 -61.43498031556139 3.3576168875874455 1.0730465637763018 #
point $-1 -56.859584892891462 0.19785075940721342 2.0554904435925612 #
straight-curve $-1 -61.43498031556139 14.927349038136674 45.467223080050474 0 0 -1 I I #
point $-1 -61.43498031556139 14.927349038136674 6.5512086410724226 #
straight-curve $-1 -61.43498031556139 5.8837914549782209 1.0730465637763 0 -1 0 I I #
point $-1 -61.43498031556139 14.927349038136674 1.0730465637763018 #
point $-1 -56.859584892891462 11.767582909956442 2.0554904435925612 #
edge $-1 $745 -6.5512086410724226 $739 -1.0730465637763018 $736 $820 forward 7 unknown #
straight-curve $-1 -61.43498031556139 11.668657530252835 1.0730465637763 0 -1 0 I I #
point $-1 -61.43498031556139 26.497081188685904 1.0730465637763018 #
straight-curve $-1 0 26.497081188685915 6.5512086410724226 -1 0 0 I I #
point $-1 -61.43498031556139 26.497081188685915 6.5512086410724226 #
point $-1 -56.859584892891462 23.33731506050567 2.0554904435925612 #
edge $-1 $758 79.318430765183081 $752 84.097557357542613 $756 $821 forward 7 unknown #
straight-curve $-1 61.434980315561383 -7.4784289828813089 1.772082048712889 0 1 0 I I #
point $-1 61.43498031556139 -19.781847413511016 1.772082048712889 #
straight-curve $-1 12.653669443133587 -19.781847413511016 6.5512086410724208 1 0 0 I I #
point $-1 61.43498031556139 -19.781847413511016 6.5512086410724226 #
point $-1 55.785636223027637 -17.024710586226217 1.1285127692766221 #
point $-1 55.785636223027637 -12.889005345299017 1.1285127692766221 #
straight-curve $-1 61.43498031556139 3.3576168875874455 85.869639406255502 0 0 -1 I I #
point $-1 61.43498031556139 3.3576168875874455 6.5512086410724226 #
straight-curve $-1 61.434980315561383 4.0913031676679221 1.772082048712889 0 1 0 I I #
point $-1 61.43498031556139 3.3576168875874455 1.772082048712889 #
point $-1 55.785636223027637 6.1147537148722471 1.1285127692766221 #
point $-1 55.785636223027637 10.250458955799449 1.1285127692766221 #
straight-curve $-1 -61.43498031556139 26.497081188685915 0 0 0 -1 I I #
straight-curve $-1 61.43498031556139 -19.781847413511016 85.869639406255502 0 0 -1 I I #
End-of-ACIS-data 