500 0 6 0           
7 Unknown 11 ACIS 5.0 NT 24 Thu Mar 25 15:10:21 1999 
-1 9.9999999999999995e-007 1e-010 
body $-1 $6 $-1 $7 #
body $-1 $8 $-1 $9 #
body $-1 $10 $-1 $11 #
body $-1 $12 $-1 $13 #
body $-1 $14 $-1 $15 #
body $-1 $16 $-1 $17 #
lump $-1 $-1 $18 $0 #
transform $-1 1 0 0 0 1 0 0 0 1 72.205572679830311 46.113990821306096 16.203859948040293 1 rotate no_reflect no_shear #
lump $-1 $-1 $19 $1 #
transform $-1 1 0 0 0 1 0 0 0 1 72.205572679830311 46.113990821306096 16.203859948040293 1 rotate no_reflect no_shear #
lump $-1 $-1 $20 $2 #
transform $-1 1 0 0 0 1 0 0 0 1 72.205572679830311 46.113990821306096 16.203859948040293 1 rotate no_reflect no_shear #
lump $-1 $-1 $21 $3 #
transform $-1 1 0 0 0 1 0 0 0 1 72.205572679830311 46.113990821306096 16.203859948040293 1 rotate no_reflect no_shear #
lump $-1 $-1 $22 $4 #
transform $-1 1 0 0 0 1 0 0 0 1 72.205572679830311 46.113990821306096 16.203859948040293 1 rotate no_reflect no_shear #
lump $-1 $-1 $23 $5 #
transform $-1 1 0 0 0 1 0 0 0 1 72.205572679830311 46.113990821306096 16.203859948040293 1 rotate no_reflect no_shear #
shell $-1 $-1 $-1 $24 $-1 $6 #
shell $-1 $-1 $-1 $25 $-1 $8 #
shell $-1 $-1 $-1 $26 $-1 $10 #
shell $-1 $-1 $-1 $27 $-1 $12 #
shell $-1 $-1 $-1 $28 $-1 $14 #
shell $-1 $-1 $-1 $29 $-1 $16 #
face $-1 $30 $31 $18 $-1 $32 forward single #
face $-1 $33 $34 $19 $-1 $35 forward single #
face $-1 $36 $37 $20 $-1 $38 reversed single #
face $-1 $39 $40 $21 $-1 $41 forward single #
face $-1 $42 $43 $22 $-1 $44 forward single #
face $-1 $45 $46 $23 $-1 $47 forward single #
face $-1 $48 $49 $18 $-1 $50 reversed single #
loop $-1 $-1 $51 $24 #
plane-surface $-1 0 0 16.203859948040293 0 0 1 1 0 0 forward_v I I I I #
face $-1 $52 $53 $19 $-1 $54 reversed single #
loop $-1 $-1 $55 $25 #
plane-surface $-1 -64.012740470767326 0 12.213526611147199 0 0 1 1 0 0 forward_v I I I I #
face $-1 $56 $57 $20 $-1 $58 reversed single #
loop $-1 $-1 $59 $26 #
plane-surface $-1 68.641301438353651 21.536656524448738 207.3123956097312 0 1 0 0.69465837861970381 0 0.71933979245794832 forward_v I I I I #
face $-1 $60 $61 $21 $-1 $62 forward single #
loop $-1 $63 $64 $27 #
cone-surface $-1 64.06310970989577 26.452123383820215 8.2453947417329605 -0.69465837861970381 0 -0.71933979245794832 1.0790096886869225 0 -1.0419875679295556 1 I I 0 1 1.5 forward I I I I #
face $-1 $65 $66 $22 $-1 $67 forward single #
loop $-1 $68 $69 $28 #
cone-surface $-1 64.06310970989577 33.825323672877424 8.2453947417329605 -0.69465837861970381 0 -0.71933979245794832 1.0790096886869225 0 -1.0419875679295556 1 I I 0 1 1.5 forward I I I I #
face $-1 $70 $71 $23 $-1 $72 forward single #
loop $-1 $73 $74 $29 #
cone-surface $-1 64.06310970989577 41.198523961934633 8.2453947417329605 -0.69465837861970381 0 -0.71933979245794832 1.0790096886869225 0 -1.0419875679295556 1 I I 0 1 1.5 forward I I I I #
face $-1 $75 $76 $18 $-1 $77 reversed single #
loop $-1 $-1 $78 $30 #
plane-surface $-1 0 0 -16.203859948040293 0 0 1 1 0 0 forward_v I I I I #
coedge $-1 $79 $80 $81 $82 forward $31 $-1 #
face $-1 $83 $84 $19 $-1 $85 reversed single #
loop $-1 $-1 $86 $33 #
plane-surface $-1 -64.012740470767326 0 4.7202984166626472 0 0 1 1 0 0 forward_v I I I I #
coedge $-1 $87 $88 $89 $90 forward $34 $-1 #
face $-1 $91 $92 $20 $-1 $93 reversed single #
loop $-1 $-1 $94 $36 #
plane-surface $-1 -31.675110651802555 33.825323672877424 103.43171227809832 0.69465837861970381 0 0.71933979245794832 0.71933979245794832 0 -0.69465837861970381 forward_v I I I I #
coedge $-1 $95 $96 $97 $98 reversed $37 $-1 #
face $-1 $-1 $99 $21 $-1 $100 forward single #
loop $-1 $101 $102 $39 #
cone-surface $-1 62.17645299986151 26.452123383820215 6.2917045711312447 -0.69465837861970381 0 -0.71933979245794832 0.53950484434346124 0 -0.5209937839647778 1 I I -0.70710678118654757 0.70710678118654757 0.75 forward I I I I #
loop $-1 $-1 $103 $27 #
coedge $-1 $64 $64 $104 $105 reversed $40 $-1 #
face $-1 $-1 $106 $22 $-1 $107 forward single #
loop $-1 $108 $109 $42 #
cone-surface $-1 62.17645299986151 33.825323672877424 6.2917045711312447 -0.69465837861970381 0 -0.71933979245794832 0.53950484434346124 0 -0.5209937839647778 1 I I -0.70710678118654757 0.70710678118654757 0.75 forward I I I I #
loop $-1 $-1 $110 $28 #
coedge $-1 $69 $69 $111 $112 reversed $43 $-1 #
face $-1 $-1 $113 $23 $-1 $114 forward single #
loop $-1 $115 $116 $45 #
cone-surface $-1 62.17645299986151 41.198523961934633 6.2917045711312447 -0.69465837861970381 0 -0.71933979245794832 0.53950484434346124 0 -0.5209937839647778 1 I I -0.70710678118654757 0.70710678118654757 0.75 forward I I I I #
loop $-1 $-1 $117 $29 #
coedge $-1 $74 $74 $118 $119 reversed $46 $-1 #
face $-1 $120 $121 $18 $-1 $122 reversed single #
loop $-1 $-1 $123 $48 #
plane-surface $-1 0 -46.113990821306096 0 0 1 0 0 0 1 forward_v I I I I #
coedge $-1 $124 $125 $126 $127 forward $49 $-1 #
coedge $-1 $128 $51 $129 $130 forward $31 $-1 #
coedge $-1 $51 $128 $131 $132 forward $31 $-1 #
coedge $-1 $133 $134 $51 $82 reversed $135 $-1 #
edge $-1 $136 -46.113990821306096 $137 46.113990821306096 $81 $138 forward 7 unknown #
face $-1 $139 $140 $19 $-1 $141 reversed single #
loop $-1 $-1 $142 $52 #
plane-surface $-1 -55.819908261704342 0 8.4669125139049228 -1 0 0 0 0 1 forward_v I I I I #
coedge $-1 $143 $144 $145 $146 forward $53 $-1 #
coedge $-1 $147 $55 $148 $149 reversed $34 $-1 #
coedge $-1 $55 $147 $150 $151 reversed $34 $-1 #
coedge $-1 $142 $152 $55 $90 reversed $84 $-1 #
edge $-1 $153 -46.113990821306096 $154 46.113990821306096 $89 $155 forward 7 unknown #
face $-1 $156 $157 $20 $-1 $158 forward single #
loop $-1 $-1 $97 $56 #
plane-surface $-1 72.205572679830311 0 0 -1 0 0 0 0 1 forward_v I I I I #
coedge $-1 $159 $160 $161 $162 reversed $57 $-1 #
coedge $-1 $96 $59 $163 $164 reversed $37 $-1 #
coedge $-1 $59 $95 $159 $165 reversed $37 $-1 #
coedge $-1 $161 $166 $59 $98 forward $92 $-1 #
edge $-1 $167 87.452337856825309 $168 100.54089761692347 $97 $169 forward 7 unknown #
loop $-1 $-1 $104 $60 #
plane-surface $-1 -31.675110651802555 33.825323672877424 103.43171227809832 0.69465837861970381 0 0.71933979245794832 0.71933979245794832 0 -0.69465837861970381 forward_v I I I I #
loop $-1 $-1 $170 $39 #
coedge $-1 $102 $102 $103 $171 reversed $61 $-1 #
coedge $-1 $103 $103 $102 $171 forward $63 $-1 #
coedge $-1 $104 $104 $64 $105 forward $99 $-1 #
edge $-1 $172 0 $172 6.2831853071796004 $104 $173 forward 7 unknown #
loop $-1 $-1 $111 $65 #
plane-surface $-1 -31.675110651802555 33.825323672877424 103.43171227809832 0.69465837861970381 0 0.71933979245794832 0.71933979245794832 0 -0.69465837861970381 forward_v I I I I #
loop $-1 $-1 $174 $42 #
coedge $-1 $109 $109 $110 $175 reversed $66 $-1 #
coedge $-1 $110 $110 $109 $175 forward $68 $-1 #
coedge $-1 $111 $111 $69 $112 forward $106 $-1 #
edge $-1 $176 0 $176 6.2831853071796004 $111 $177 forward 7 unknown #
loop $-1 $-1 $118 $70 #
plane-surface $-1 -31.675110651802555 33.825323672877424 103.43171227809832 0.69465837861970381 0 0.71933979245794832 0.71933979245794832 0 -0.69465837861970381 forward_v I I I I #
loop $-1 $-1 $178 $45 #
coedge $-1 $116 $116 $117 $179 reversed $71 $-1 #
coedge $-1 $117 $117 $116 $179 forward $73 $-1 #
coedge $-1 $118 $118 $74 $119 forward $113 $-1 #
edge $-1 $180 0 $180 6.2831853071796004 $118 $181 forward 7 unknown #
face $-1 $182 $183 $18 $-1 $184 reversed single #
loop $-1 $-1 $185 $75 #
plane-surface $-1 -72.205572679830311 0 0 1 0 0 0 0 -1 forward_v I I I I #
coedge $-1 $186 $131 $187 $188 forward $76 $-1 #
coedge $-1 $189 $78 $186 $190 forward $49 $-1 #
coedge $-1 $78 $189 $191 $192 forward $49 $-1 #
coedge $-1 $134 $133 $78 $127 reversed $135 $-1 #
edge $-1 $193 -46.113990821306096 $194 46.113990821306096 $126 $195 forward 7 unknown #
coedge $-1 $80 $79 $196 $197 forward $31 $-1 #
coedge $-1 $198 $199 $79 $130 reversed $183 $-1 #
edge $-1 $137 -72.205572679830311 $200 72.205572679830311 $129 $201 forward 7 unknown #
coedge $-1 $123 $202 $80 $132 reversed $76 $-1 #
edge $-1 $203 -72.205572679830311 $136 72.205572679830311 $131 $204 forward 7 unknown #
coedge $-1 $126 $81 $202 $205 forward $135 $-1 #
coedge $-1 $81 $126 $198 $206 reversed $135 $-1 #
loop $-1 $-1 $133 $182 #
vertex $-1 $82 $207 #
vertex $-1 $82 $208 #
straight-curve $-1 72.205572679830311 0 16.203859948040293 0 1 0 I I #
face $-1 $209 $210 $19 $-1 $211 reversed single #
loop $-1 $-1 $212 $83 #
plane-surface $-1 0 -46.113990821306096 0 0 1 0 0 0 1 forward_v I I I I #
coedge $-1 $145 $89 $213 $214 reversed $84 $-1 #
coedge $-1 $215 $86 $212 $216 reversed $53 $-1 #
coedge $-1 $86 $215 $217 $218 reversed $53 $-1 #
coedge $-1 $152 $142 $86 $146 reversed $84 $-1 #
edge $-1 $219 -46.113990821306096 $220 46.113990821306096 $145 $221 forward 7 unknown #
coedge $-1 $88 $87 $222 $223 reversed $34 $-1 #
coedge $-1 $224 $225 $87 $149 forward $226 $-1 #
edge $-1 $227 -40.199202444446648 $154 -23.813538026320678 $148 $228 forward 7 unknown #
coedge $-1 $229 $213 $88 $151 forward $140 $-1 #
edge $-1 $153 23.813538026320678 $230 40.199202444446648 $150 $231 forward 7 unknown #
coedge $-1 $89 $145 $224 $232 reversed $84 $-1 #
vertex $-1 $151 $233 #
vertex $-1 $149 $234 #
straight-curve $-1 -55.819908261704342 0 12.213526611147199 0 1 0 I I #
face $-1 $-1 $235 $20 $-1 $236 reversed single #
loop $-1 $-1 $163 $91 #
plane-surface $-1 0 0 16.203859948040293 0 0 1 1 0 0 forward_v I I I I #
coedge $-1 $237 $94 $96 $165 forward $57 $-1 #
coedge $-1 $94 $237 $238 $239 reversed $57 $-1 #
coedge $-1 $240 $97 $94 $162 forward $92 $-1 #
edge $-1 $168 4.6239946880100256 $241 29.201328984867384 $161 $242 forward 7 unknown #
coedge $-1 $243 $244 $95 $164 forward $157 $-1 #
edge $-1 $245 24.331321872923368 $167 37.884921960653486 $163 $246 forward 7 unknown #
edge $-1 $168 -144.41114535966057 $245 -125.56942378407788 $96 $247 forward 7 unknown #
coedge $-1 $97 $240 $243 $248 reversed $92 $-1 #
vertex $-1 $248 $249 #
vertex $-1 $98 $250 #
straight-curve $-1 72.205572679830311 21.536656524448738 103.6561978048656 0 0 -1 I I #
coedge $-1 $170 $170 $-1 $251 reversed $101 $-1 #
edge $-1 $252 0 $252 6.2831853071796004 $102 $253 forward 7 unknown #
vertex $-1 $105 $254 #
ellipse-curve $-1 65.428772635965245 26.452123383820215 9.6595800679912109 0.69465837861970381 0 0.71933979245794832 1.0790096886869225 0 -1.0419875679295556 1 I I #
coedge $-1 $174 $174 $-1 $255 reversed $108 $-1 #
edge $-1 $256 0 $256 6.2831853071796004 $109 $257 forward 7 unknown #
vertex $-1 $112 $258 #
ellipse-curve $-1 65.428772635965245 33.825323672877424 9.6595800679912109 0.69465837861970381 0 0.71933979245794832 1.0790096886869225 0 -1.0419875679295556 1 I I #
coedge $-1 $178 $178 $-1 $259 reversed $115 $-1 #
edge $-1 $260 0 $260 6.2831853071796004 $116 $261 forward 7 unknown #
vertex $-1 $119 $262 #
ellipse-curve $-1 65.428772635965245 41.198523961934633 9.6595800679912109 0.69465837861970381 0 0.71933979245794832 1.0790096886869225 0 -1.0419875679295556 1 I I #
face $-1 $-1 $135 $18 $-1 $263 reversed single #
loop $-1 $-1 $198 $120 #
plane-surface $-1 0 46.113990821306096 0 0 -1 0 0 0 -1 forward_v I I I I #
coedge $-1 $264 $196 $199 $265 forward $121 $-1 #
coedge $-1 $202 $123 $124 $190 reversed $76 $-1 #
coedge $-1 $196 $264 $123 $188 reversed $121 $-1 #
edge $-1 $203 -16.203859948040293 $266 16.203859948040293 $187 $267 forward 7 unknown #
coedge $-1 $125 $124 $264 $268 forward $49 $-1 #
edge $-1 $194 -72.205572679830311 $266 72.205572679830311 $186 $269 forward 7 unknown #
coedge $-1 $199 $198 $125 $192 reversed $183 $-1 #
edge $-1 $270 -72.205572679830311 $193 72.205572679830311 $191 $271 forward 7 unknown #
vertex $-1 $127 $272 #
vertex $-1 $205 $273 #
straight-curve $-1 72.205572679830311 0 -16.203859948040293 0 -1 0 I I #
coedge $-1 $185 $187 $128 $197 reversed $121 $-1 #
edge $-1 $200 -46.113990821306096 $203 46.113990821306096 $196 $274 forward 7 unknown #
coedge $-1 $191 $129 $134 $206 forward $183 $-1 #
coedge $-1 $129 $191 $185 $265 reversed $183 $-1 #
vertex $-1 $130 $275 #
straight-curve $-1 0 46.113990821306096 16.203859948040293 -1 0 0 I I #
coedge $-1 $131 $186 $133 $205 reversed $76 $-1 #
vertex $-1 $197 $276 #
straight-curve $-1 0 -46.113990821306096 16.203859948040293 1 0 0 I I #
edge $-1 $136 -16.203859948040293 $194 16.203859948040293 $133 $277 forward 7 unknown #
edge $-1 $137 -16.203859948040293 $193 16.203859948040293 $134 $278 forward 7 unknown #
point $-1 72.205572679830311 -46.113990821306096 16.203859948040293 #
point $-1 72.205572679830311 46.113990821306096 16.203859948040293 #
face $-1 $-1 $226 $19 $-1 $279 reversed single #
loop $-1 $-1 $280 $139 #
plane-surface $-1 -72.205572679830311 0 0 1 0 0 0 0 -1 forward_v I I I I #
coedge $-1 $213 $229 $143 $216 forward $140 $-1 #
coedge $-1 $150 $212 $142 $214 forward $140 $-1 #
edge $-1 $220 0.48684215971018574 $153 7.9800703541947371 $213 $281 forward 7 unknown #
coedge $-1 $144 $143 $280 $282 reversed $53 $-1 #
edge $-1 $283 -40.199202444446648 $220 -23.813538026320678 $212 $284 forward 7 unknown #
coedge $-1 $225 $224 $144 $218 forward $226 $-1 #
edge $-1 $219 23.813538026320678 $285 40.199202444446648 $217 $286 forward 7 unknown #
vertex $-1 $218 $287 #
vertex $-1 $216 $288 #
straight-curve $-1 -55.819908261704342 0 4.7202984166626472 0 -1 0 I I #
coedge $-1 $289 $290 $147 $223 forward $210 $-1 #
edge $-1 $230 -46.113990821306096 $227 46.113990821306096 $222 $291 forward 7 unknown #
coedge $-1 $217 $148 $152 $232 forward $226 $-1 #
coedge $-1 $148 $217 $289 $292 reversed $226 $-1 #
loop $-1 $-1 $217 $209 #
vertex $-1 $292 $293 #
straight-curve $-1 -32.006370235383663 46.113990821306096 12.213526611147199 1 0 0 I I #
coedge $-1 $212 $150 $290 $294 forward $140 $-1 #
vertex $-1 $294 $295 #
straight-curve $-1 -32.006370235383663 -46.113990821306096 12.213526611147199 -1 0 0 I I #
edge $-1 $154 -7.9800703541947371 $219 -0.48684215971018574 $224 $296 forward 7 unknown #
point $-1 -55.819908261704342 -46.113990821306096 12.213526611147199 #
point $-1 -55.819908261704342 46.113990821306096 12.213526611147199 #
loop $-1 $-1 $238 $156 #
plane-surface $-1 0 46.113990821306096 0 0 -1 0 0 0 -1 forward_v I I I I #
coedge $-1 $160 $159 $244 $297 reversed $57 $-1 #
coedge $-1 $298 $299 $160 $239 forward $235 $-1 #
edge $-1 $241 -97.093708824003755 $300 -78.251987248421045 $238 $301 forward 7 unknown #
coedge $-1 $166 $161 $299 $302 reversed $92 $-1 #
vertex $-1 $162 $303 #
straight-curve $-1 72.205572679830311 16.912661836438712 3.1153001879421112 0 1 0 I I #
coedge $-1 $304 $163 $166 $248 forward $157 $-1 #
coedge $-1 $163 $304 $237 $297 forward $157 $-1 #
vertex $-1 $164 $305 #
straight-curve $-1 34.320650719176825 21.536656524448738 16.203859948040289 1 0 0 I I #
straight-curve $-1 -31.675110651802555 21.536656524448738 103.43171227809832 -0.71933979245794832 0 0.69465837861970381 I I #
edge $-1 $167 21.536656524448738 $306 46.113990821306096 $166 $307 forward 7 unknown #
point $-1 72.205572679830311 21.536656524448738 16.203859948040293 #
point $-1 72.205572679830297 21.536656524448738 3.1153001879421254 #
edge $-1 $308 1 $308 0 $170 $-1 forward 7 unknown #
vertex $-1 $171 $309 #
ellipse-curve $-1 62.697446783826287 26.452123383820215 6.8312094154747056 0.69465837861970381 0 0.71933979245794832 1.0790096886869225 0 -1.0419875679295556 1 I I #
point $-1 66.507782324652169 26.452123383820215 8.617592500061658 #
edge $-1 $310 1 $310 0 $174 $-1 forward 7 unknown #
vertex $-1 $175 $311 #
ellipse-curve $-1 62.697446783826287 33.825323672877424 6.8312094154747056 0.69465837861970381 0 0.71933979245794832 1.0790096886869225 0 -1.0419875679295556 1 I I #
point $-1 66.507782324652169 33.825323672877424 8.617592500061658 #
edge $-1 $312 1 $312 0 $178 $-1 forward 7 unknown #
vertex $-1 $179 $313 #
ellipse-curve $-1 62.697446783826287 41.198523961934633 6.8312094154747056 0.69465837861970381 0 0.71933979245794832 1.0790096886869225 0 -1.0419875679295556 1 I I #
point $-1 66.507782324652169 41.198523961934633 8.617592500061658 #
plane-surface $-1 72.205572679830311 0 0 -1 0 0 0 0 1 forward_v I I I I #
coedge $-1 $187 $185 $189 $268 reversed $121 $-1 #
edge $-1 $200 -16.203859948040293 $270 16.203859948040293 $199 $314 forward 7 unknown #
vertex $-1 $268 $315 #
straight-curve $-1 -72.205572679830311 -46.113990821306096 0 0 0 -1 I I #
edge $-1 $266 -46.113990821306096 $270 46.113990821306096 $264 $316 forward 7 unknown #
straight-curve $-1 0 -46.113990821306096 -16.203859948040293 -1 0 0 I I #
vertex $-1 $192 $317 #
straight-curve $-1 0 46.113990821306096 -16.203859948040293 1 0 0 I I #
point $-1 72.205572679830311 46.113990821306096 -16.203859948040293 #
point $-1 72.205572679830311 -46.113990821306096 -16.203859948040293 #
straight-curve $-1 -72.205572679830311 0 16.203859948040293 0 -1 0 I I #
point $-1 -72.205572679830311 46.113990821306096 16.203859948040293 #
point $-1 -72.205572679830311 -46.113990821306096 16.203859948040293 #
straight-curve $-1 72.205572679830311 -46.113990821306096 0 0 0 -1 I I #
straight-curve $-1 72.205572679830311 46.113990821306096 0 0 0 -1 I I #
plane-surface $-1 0 46.113990821306096 0 0 -1 0 0 0 -1 forward_v I I I I #
coedge $-1 $290 $289 $215 $282 forward $210 $-1 #
straight-curve $-1 -55.819908261704342 -46.113990821306096 4.2334562569524614 0 0 1 I I #
edge $-1 $285 -46.113990821306096 $283 46.113990821306096 $280 $318 forward 7 unknown #
vertex $-1 $216 $319 #
straight-curve $-1 -32.006370235383663 -46.113990821306096 4.7202984166626472 1 0 0 I I #
vertex $-1 $218 $320 #
straight-curve $-1 -32.006370235383663 46.113990821306096 4.7202984166626472 -1 0 0 I I #
point $-1 -55.819908261704342 46.113990821306096 4.7202984166626472 #
point $-1 -55.819908261704342 -46.113990821306096 4.7202984166626472 #
coedge $-1 $280 $222 $225 $292 forward $210 $-1 #
coedge $-1 $222 $280 $229 $294 reversed $210 $-1 #
straight-curve $-1 -72.205572679830311 0 12.213526611147199 0 1 0 I I #
edge $-1 $227 -12.213526611147199 $285 -4.7202984166626472 $225 $321 forward 7 unknown #
point $-1 -72.205572679830311 46.113990821306096 12.213526611147199 #
edge $-1 $230 -12.213526611147199 $283 -4.7202984166626472 $290 $322 forward 7 unknown #
point $-1 -72.205572679830311 -46.113990821306096 12.213526611147199 #
straight-curve $-1 -55.819908261704342 46.113990821306096 4.2334562569524614 0 0 -1 I I #
edge $-1 $300 -29.201328984867398 $245 -4.6239946880100256 $244 $323 forward 7 unknown #
coedge $-1 $299 $238 $304 $324 reversed $235 $-1 #
coedge $-1 $238 $298 $240 $302 forward $235 $-1 #
vertex $-1 $239 $325 #
straight-curve $-1 2.3622043253989808 46.113990821306096 70.5622585337982 -0.71933979245794832 0 0.69465837861970381 I I #
edge $-1 $306 -16.203859948040293 $241 -3.1153001879421232 $240 $326 forward 7 unknown #
point $-1 72.205572679830311 46.113990821306096 3.1153001879421232 #
coedge $-1 $244 $243 $298 $324 forward $157 $-1 #
point $-1 58.651972592100194 21.536656524448738 16.203859948040289 #
vertex $-1 $248 $327 #
straight-curve $-1 72.205572679830311 0 16.203859948040293 0 1 0 I I #
vertex $-1 $251 $328 #
point $-1 63.77645647251321 26.452123383820215 5.78922184754515 #
vertex $-1 $255 $329 #
point $-1 63.77645647251321 33.825323672877424 5.78922184754515 #
vertex $-1 $259 $330 #
point $-1 63.77645647251321 41.198523961934633 5.78922184754515 #
straight-curve $-1 -72.205572679830311 46.113990821306096 0 0 0 -1 I I #
point $-1 -72.205572679830311 -46.113990821306096 -16.203859948040293 #
straight-curve $-1 -72.205572679830311 0 -16.203859948040293 0 1 0 I I #
point $-1 -72.205572679830311 46.113990821306096 -16.203859948040293 #
straight-curve $-1 -72.205572679830311 0 4.7202984166626472 0 -1 0 I I #
point $-1 -72.205572679830311 -46.113990821306096 4.7202984166626472 #
point $-1 -72.205572679830311 46.113990821306096 4.7202984166626472 #
straight-curve $-1 -72.205572679830311 46.113990821306096 0 0 0 -1 I I #
straight-curve $-1 -72.205572679830311 -46.113990821306096 0 0 0 -1 I I #
straight-curve $-1 58.651972592100194 16.912661836438712 16.203859948040282 0 -1 0 I I #
edge $-1 $306 -72.205572679830311 $300 -58.651972592100194 $298 $331 forward 7 unknown #
point $-1 58.651972592100194 46.11399082130611 16.203859948040289 #
straight-curve $-1 72.205572679830311 46.113990821306096 0 0 0 -1 I I #
point $-1 72.205572679830311 46.113990821306096 16.203859948040293 #
point $-1 61.655459215896734 26.452123383820215 5.7521997267877838 #
point $-1 61.655459215896734 33.825323672877424 5.7521997267877838 #
point $-1 61.655459215896734 41.198523961934633 5.7521997267877838 #
straight-curve $-1 0 46.113990821306096 16.203859948040293 -1 0 0 I I #
End-of-ACIS-data 