500 0 12 0           
7 Unknown 11 ACIS 5.0 NT 24 Fri Mar 26 00:52:35 1999 
-1 9.9999999999999995e-007 1e-010 
body $-1 $12 $-1 $13 #
body $-1 $14 $-1 $15 #
body $-1 $16 $-1 $17 #
body $-1 $18 $-1 $19 #
body $-1 $20 $-1 $21 #
body $-1 $22 $-1 $23 #
body $-1 $24 $-1 $25 #
body $-1 $26 $-1 $27 #
body $-1 $28 $-1 $29 #
body $-1 $30 $-1 $31 #
body $-1 $32 $-1 $33 #
body $-1 $34 $-1 $35 #
lump $-1 $-1 $36 $0 #
transform $-1 1 0 0 0 1 0 0 0 1 52.239143040253914 28.898208636886459 13.299243653116145 1 rotate no_reflect no_shear #
lump $-1 $-1 $37 $1 #
transform $-1 1 0 0 0 1 0 0 0 1 52.239143040253914 28.898208636886459 13.299243653116145 1 rotate no_reflect no_shear #
lump $-1 $-1 $38 $2 #
transform $-1 1 0 0 0 1 0 0 0 1 52.239143040253914 28.898208636886459 13.299243653116145 1 rotate no_reflect no_shear #
lump $-1 $-1 $39 $3 #
transform $-1 1 0 0 0 1 0 0 0 1 52.239143040253914 28.898208636886459 13.299243653116145 1 rotate no_reflect no_shear #
lump $-1 $-1 $40 $4 #
transform $-1 1 0 0 0 1 0 0 0 1 52.239143040253914 28.898208636886459 13.299243653116145 1 rotate no_reflect no_shear #
lump $-1 $-1 $41 $5 #
transform $-1 1 0 0 0 1 0 0 0 1 52.239143040253914 28.898208636886459 13.299243653116145 1 rotate no_reflect no_shear #
lump $-1 $-1 $42 $6 #
transform $-1 1 0 0 0 1 0 0 0 1 52.239143040253914 28.898208636886459 13.299243653116145 1 rotate no_reflect no_shear #
lump $-1 $-1 $43 $7 #
transform $-1 1 0 0 0 1 0 0 0 1 52.239143040253914 28.898208636886459 13.299243653116145 1 rotate no_reflect no_shear #
lump $-1 $-1 $44 $8 #
transform $-1 1 0 0 0 1 0 0 0 1 52.239143040253914 28.898208636886459 13.299243653116145 1 rotate no_reflect no_shear #
lump $-1 $-1 $45 $9 #
transform $-1 1 0 0 0 1 0 0 0 1 52.239143040253914 28.898208636886459 13.299243653116145 1 rotate no_reflect no_shear #
lump $-1 $-1 $46 $10 #
transform $-1 1 0 0 0 1 0 0 0 1 52.239143040253914 28.898208636886459 13.299243653116145 1 rotate no_reflect no_shear #
lump $-1 $-1 $47 $11 #
transform $-1 1 0 0 0 1 0 0 0 1 52.239143040253914 28.898208636886459 13.299243653116145 1 rotate no_reflect no_shear #
shell $-1 $-1 $-1 $48 $-1 $12 #
shell $-1 $-1 $-1 $49 $-1 $14 #
shell $-1 $-1 $-1 $50 $-1 $16 #
shell $-1 $-1 $-1 $51 $-1 $18 #
shell $-1 $-1 $-1 $52 $-1 $20 #
shell $-1 $-1 $-1 $53 $-1 $22 #
shell $-1 $-1 $-1 $54 $-1 $24 #
shell $-1 $-1 $-1 $55 $-1 $26 #
shell $-1 $-1 $-1 $56 $-1 $28 #
shell $-1 $-1 $-1 $57 $-1 $30 #
shell $-1 $-1 $-1 $58 $-1 $32 #
shell $-1 $-1 $-1 $59 $-1 $34 #
face $-1 $60 $61 $36 $-1 $62 forward single #
face $-1 $63 $64 $37 $-1 $65 reversed single #
face $-1 $66 $67 $38 $-1 $68 forward single #
face $-1 $69 $70 $39 $-1 $71 forward single #
face $-1 $72 $73 $40 $-1 $74 forward single #
face $-1 $75 $76 $41 $-1 $77 reversed single #
face $-1 $78 $79 $42 $-1 $80 forward single #
face $-1 $81 $82 $43 $-1 $83 forward single #
face $-1 $84 $85 $44 $-1 $86 forward single #
face $-1 $87 $88 $45 $-1 $89 reversed single #
face $-1 $90 $91 $46 $-1 $92 forward single #
face $-1 $93 $94 $47 $-1 $95 forward single #
face $-1 $96 $97 $36 $-1 $98 reversed single #
loop $-1 $-1 $99 $48 #
plane-surface $-1 0 0 13.299243653116145 0 0 1 1 0 0 forward_v I I I I #
face $-1 $100 $101 $37 $-1 $102 reversed single #
loop $-1 $-1 $103 $49 #
plane-surface $-1 -12.087475548219665 -98.807828394065268 82.671577958793279 -1 0 0 0 -0.66913061440640931 0.74314481823134659 forward_v I I I I #
face $-1 $104 $105 $38 $-1 $106 forward single #
loop $-1 $107 $108 $50 #
cone-surface $-1 -23.093869363814111 -23.827907774557556 8.6334806974688618 0 0.66913061440640931 -0.74314481823134659 1 0 0 1 I I 0 1 1 forward I I I I #
face $-1 $109 $110 $39 $-1 $111 forward single #
loop $-1 $112 $113 $51 #
cone-surface $-1 -18.966471682966194 -23.827907774557556 8.6334806974688618 0 0.66913061440640931 -0.74314481823134659 1 0 0 1 I I 0 1 1 forward I I I I #
face $-1 $114 $115 $40 $-1 $116 forward single #
loop $-1 $117 $118 $52 #
cone-surface $-1 -14.839074002118274 -23.827907774557556 8.6334806974688618 0 0.66913061440640931 -0.74314481823134659 1 0 0 1 I I 0 1 1 forward I I I I #
face $-1 $119 $120 $41 $-1 $121 reversed single #
loop $-1 $-1 $122 $53 #
plane-surface $-1 40.151667492034242 -98.807828394065268 82.671577958793279 -1 0 0 0 -0.66913061440640931 0.74314481823134659 forward_v I I I I #
face $-1 $123 $124 $42 $-1 $125 forward single #
loop $-1 $126 $127 $54 #
cone-surface $-1 29.145273676439807 -23.827907774557556 8.6334806974688618 0 0.66913061440640931 -0.74314481823134659 1 0 0 1 I I 0 1 1 forward I I I I #
face $-1 $128 $129 $43 $-1 $130 forward single #
loop $-1 $131 $132 $55 #
cone-surface $-1 33.272671357287713 -23.827907774557556 8.6334806974688618 0 0.66913061440640931 -0.74314481823134659 1 0 0 1 I I 0 1 1 forward I I I I #
face $-1 $133 $134 $44 $-1 $135 forward single #
loop $-1 $136 $137 $56 #
cone-surface $-1 37.400069038135648 -23.827907774557556 8.6334806974688618 0 0.66913061440640931 -0.74314481823134659 1 0 0 1 I I 0 1 1 forward I I I I #
face $-1 $138 $139 $45 $-1 $140 reversed single #
loop $-1 $-1 $141 $57 #
plane-surface $-1 33.479476419731206 85.042888779329076 111.03690848474704 1 0 0 0 -0.83867057594974714 -0.54463902268945019 forward_v I I I I #
face $-1 $142 $143 $46 $-1 $144 forward single #
loop $-1 $145 $146 $58 #
cone-surface $-1 38.839381168451986 25.393377296903292 8.8149287798102591 0 -0.83867057594974714 -0.54463902268945019 1.5 0 0 1 I I 0 1 1.5 forward I I I I #
face $-1 $147 $148 $47 $-1 $149 forward single #
loop $-1 $150 $151 $59 #
cone-surface $-1 46.879238291533149 25.393377296903292 8.8149287798102591 0 -0.83867057594974714 -0.54463902268945019 1.5 0 0 1 I I 0 1 1.5 forward I I I I #
face $-1 $152 $153 $36 $-1 $154 reversed single #
loop $-1 $-1 $155 $60 #
plane-surface $-1 0 0 -13.299243653116145 0 0 1 1 0 0 forward_v I I I I #
coedge $-1 $156 $157 $158 $159 forward $61 $-1 #
face $-1 $160 $161 $37 $-1 $162 reversed single #
loop $-1 $-1 $163 $63 #
plane-surface $-1 -18.966471682966194 -28.898208636886466 5.0290810403716648 0 -0.66913061440640931 0.74314481823134659 1 0 0 forward_v I I I I #
coedge $-1 $164 $165 $166 $167 reversed $64 $-1 #
face $-1 $-1 $168 $38 $-1 $169 forward single #
loop $-1 $170 $171 $66 #
cone-surface $-1 -23.093869363814111 -23.015514553706609 7.7312266390781499 0 0.66913061440640931 -0.74314481823134659 0.5 0 0 1 I I -0.70710678118654691 0.70710678118654813 0.5 forward I I I I #
loop $-1 $-1 $172 $50 #
coedge $-1 $108 $108 $173 $174 reversed $67 $-1 #
face $-1 $-1 $175 $39 $-1 $176 forward single #
loop $-1 $177 $178 $69 #
cone-surface $-1 -18.966471682966194 -23.015514553706609 7.7312266390781499 0 0.66913061440640931 -0.74314481823134659 0.5 0 0 1 I I -0.70710678118654691 0.70710678118654813 0.5 forward I I I I #
loop $-1 $-1 $179 $51 #
coedge $-1 $113 $113 $180 $181 reversed $70 $-1 #
face $-1 $-1 $182 $40 $-1 $183 forward single #
loop $-1 $184 $185 $72 #
cone-surface $-1 -14.839074002118274 -23.015514553706609 7.7312266390781499 0 0.66913061440640931 -0.74314481823134659 0.5 0 0 1 I I -0.70710678118654691 0.70710678118654813 0.5 forward I I I I #
loop $-1 $-1 $186 $52 #
coedge $-1 $118 $118 $187 $188 reversed $73 $-1 #
face $-1 $189 $190 $41 $-1 $191 reversed single #
loop $-1 $-1 $192 $75 #
plane-surface $-1 33.272671357287713 -28.898208636886466 5.0290810403716648 0 -0.66913061440640931 0.74314481823134659 1 0 0 forward_v I I I I #
coedge $-1 $193 $194 $195 $196 reversed $76 $-1 #
face $-1 $-1 $197 $42 $-1 $198 forward single #
loop $-1 $199 $200 $78 #
cone-surface $-1 29.145273676439807 -23.015514553706609 7.7312266390781499 0 0.66913061440640931 -0.74314481823134659 0.5 0 0 1 I I -0.70710678118654691 0.70710678118654813 0.5 forward I I I I #
loop $-1 $-1 $201 $54 #
coedge $-1 $127 $127 $202 $203 reversed $79 $-1 #
face $-1 $-1 $204 $43 $-1 $205 forward single #
loop $-1 $206 $207 $81 #
cone-surface $-1 33.272671357287713 -23.015514553706609 7.7312266390781499 0 0.66913061440640931 -0.74314481823134659 0.5 0 0 1 I I -0.70710678118654691 0.70710678118654813 0.5 forward I I I I #
loop $-1 $-1 $208 $55 #
coedge $-1 $132 $132 $209 $210 reversed $82 $-1 #
face $-1 $-1 $211 $44 $-1 $212 forward single #
loop $-1 $213 $214 $84 #
cone-surface $-1 37.400069038135648 -23.015514553706609 7.7312266390781499 0 0.66913061440640931 -0.74314481823134659 0.5 0 0 1 I I -0.70710678118654691 0.70710678118654813 0.5 forward I I I I #
loop $-1 $-1 $215 $56 #
coedge $-1 $137 $137 $216 $217 reversed $85 $-1 #
face $-1 $218 $219 $45 $-1 $220 forward single #
loop $-1 $-1 $221 $87 #
plane-surface $-1 42.859309729992567 -2.5799755820528816 54.133956861590462 0 0.83867057594974714 0.54463902268945019 1 0 0 forward_v I I I I #
coedge $-1 $222 $223 $224 $225 reversed $88 $-1 #
face $-1 $-1 $226 $46 $-1 $227 forward single #
loop $-1 $228 $229 $90 #
cone-surface $-1 38.839381168451986 23.739449149226033 7.7408553166636391 0 -0.83867057594974714 -0.54463902268945019 0.75 0 0 1 I I -0.70710678118654791 0.70710678118654702 0.75 forward I I I I #
loop $-1 $-1 $230 $58 #
coedge $-1 $146 $146 $231 $232 reversed $91 $-1 #
face $-1 $-1 $233 $47 $-1 $234 forward single #
loop $-1 $235 $236 $93 #
cone-surface $-1 46.879238291533149 23.739449149226033 7.7408553166636391 0 -0.83867057594974714 -0.54463902268945019 0.75 0 0 1 I I -0.70710678118654791 0.70710678118654702 0.75 forward I I I I #
loop $-1 $-1 $237 $59 #
coedge $-1 $151 $151 $238 $239 reversed $94 $-1 #
face $-1 $240 $241 $36 $-1 $242 reversed single #
loop $-1 $-1 $243 $96 #
plane-surface $-1 0 -28.898208636886459 0 0 1 0 0 0 1 forward_v I I I I #
coedge $-1 $244 $245 $246 $247 forward $97 $-1 #
coedge $-1 $248 $99 $249 $250 forward $61 $-1 #
coedge $-1 $99 $248 $251 $252 forward $61 $-1 #
coedge $-1 $253 $254 $99 $159 reversed $255 $-1 #
edge $-1 $256 -28.898208636886459 $257 28.898208636886459 $158 $258 forward 7 unknown #
face $-1 $259 $260 $37 $-1 $261 reversed single #
loop $-1 $-1 $262 $100 #
plane-surface $-1 -25.845467817712724 -98.807828394065268 82.671577958793279 1 0 0 0 0.66913061440640931 -0.74314481823134659 forward_v I I I I #
coedge $-1 $263 $264 $265 $266 reversed $101 $-1 #
coedge $-1 $165 $103 $267 $268 reversed $64 $-1 #
coedge $-1 $103 $164 $263 $269 reversed $64 $-1 #
coedge $-1 $265 $270 $103 $167 forward $271 $-1 #
edge $-1 $272 20.505705560146176 $273 29.690651457508483 $166 $274 forward 7 unknown #
loop $-1 $-1 $173 $104 #
plane-surface $-1 -18.966471682966194 -28.898208636886466 5.0290810403716648 0 -0.66913061440640931 0.74314481823134659 1 0 0 forward_v I I I I #
loop $-1 $-1 $275 $66 #
coedge $-1 $171 $171 $172 $276 reversed $105 $-1 #
coedge $-1 $172 $172 $171 $276 forward $107 $-1 #
coedge $-1 $173 $173 $108 $174 forward $168 $-1 #
edge $-1 $277 1.7145172920616828e-015 $277 6.2831853071796022 $173 $278 forward 7 unknown #
loop $-1 $-1 $180 $109 #
plane-surface $-1 -18.966471682966194 -28.898208636886466 5.0290810403716648 0 -0.66913061440640931 0.74314481823134659 1 0 0 forward_v I I I I #
loop $-1 $-1 $279 $69 #
coedge $-1 $178 $178 $179 $280 reversed $110 $-1 #
coedge $-1 $179 $179 $178 $280 forward $112 $-1 #
coedge $-1 $180 $180 $113 $181 forward $175 $-1 #
edge $-1 $281 1.7145172920616828e-015 $281 6.2831853071796022 $180 $282 forward 7 unknown #
loop $-1 $-1 $187 $114 #
plane-surface $-1 -18.966471682966194 -28.898208636886466 5.0290810403716648 0 -0.66913061440640931 0.74314481823134659 1 0 0 forward_v I I I I #
loop $-1 $-1 $283 $72 #
coedge $-1 $185 $185 $186 $284 reversed $115 $-1 #
coedge $-1 $186 $186 $185 $284 forward $117 $-1 #
coedge $-1 $187 $187 $118 $188 forward $182 $-1 #
edge $-1 $285 1.7145172920616828e-015 $285 6.2831853071796022 $187 $286 forward 7 unknown #
face $-1 $287 $288 $41 $-1 $289 reversed single #
loop $-1 $-1 $290 $119 #
plane-surface $-1 26.393675222541184 -98.807828394065268 82.671577958793279 1 0 0 0 0.66913061440640931 -0.74314481823134659 forward_v I I I I #
coedge $-1 $291 $292 $293 $294 reversed $120 $-1 #
coedge $-1 $194 $122 $295 $296 reversed $76 $-1 #
coedge $-1 $122 $193 $291 $297 reversed $76 $-1 #
coedge $-1 $293 $298 $122 $196 forward $299 $-1 #
edge $-1 $300 20.505705560146176 $301 29.690651457508483 $195 $302 forward 7 unknown #
loop $-1 $-1 $202 $123 #
plane-surface $-1 33.272671357287713 -28.898208636886466 5.0290810403716648 0 -0.66913061440640931 0.74314481823134659 1 0 0 forward_v I I I I #
loop $-1 $-1 $303 $78 #
coedge $-1 $200 $200 $201 $304 reversed $124 $-1 #
coedge $-1 $201 $201 $200 $304 forward $126 $-1 #
coedge $-1 $202 $202 $127 $203 forward $197 $-1 #
edge $-1 $305 1.7145172920616828e-015 $305 6.2831853071796022 $202 $306 forward 7 unknown #
loop $-1 $-1 $209 $128 #
plane-surface $-1 33.272671357287713 -28.898208636886466 5.0290810403716648 0 -0.66913061440640931 0.74314481823134659 1 0 0 forward_v I I I I #
loop $-1 $-1 $307 $81 #
coedge $-1 $207 $207 $208 $308 reversed $129 $-1 #
coedge $-1 $208 $208 $207 $308 forward $131 $-1 #
coedge $-1 $209 $209 $132 $210 forward $204 $-1 #
edge $-1 $309 1.7145172920616828e-015 $309 6.2831853071796022 $209 $310 forward 7 unknown #
loop $-1 $-1 $216 $133 #
plane-surface $-1 33.272671357287713 -28.898208636886466 5.0290810403716648 0 -0.66913061440640931 0.74314481823134659 1 0 0 forward_v I I I I #
loop $-1 $-1 $311 $84 #
coedge $-1 $214 $214 $215 $312 reversed $134 $-1 #
coedge $-1 $215 $215 $214 $312 forward $136 $-1 #
coedge $-1 $216 $216 $137 $217 forward $211 $-1 #
edge $-1 $313 1.7145172920616828e-015 $313 6.2831853071796022 $216 $314 forward 7 unknown #
face $-1 $315 $316 $45 $-1 $317 reversed single #
loop $-1 $-1 $224 $138 #
plane-surface $-1 0 0 13.299243653116145 0 0 1 1 0 0 forward_v I I I I #
coedge $-1 $318 $319 $320 $321 reversed $139 $-1 #
coedge $-1 $223 $141 $322 $323 reversed $88 $-1 #
coedge $-1 $141 $222 $318 $324 reversed $88 $-1 #
coedge $-1 $320 $325 $141 $225 forward $219 $-1 #
edge $-1 $326 13.623235752778079 $327 18.583048001314513 $224 $328 forward 7 unknown #
loop $-1 $-1 $231 $142 #
plane-surface $-1 42.859309729992567 -2.5799755820528816 54.133956861590462 0 0.83867057594974714 0.54463902268945019 1 0 0 forward_v I I I I #
loop $-1 $-1 $329 $90 #
coedge $-1 $229 $229 $230 $330 reversed $143 $-1 #
coedge $-1 $230 $230 $229 $330 forward $145 $-1 #
coedge $-1 $231 $231 $146 $232 forward $226 $-1 #
edge $-1 $331 5.9355772310035435e-016 $331 6.2831853071796013 $231 $332 forward 7 unknown #
loop $-1 $-1 $238 $147 #
plane-surface $-1 42.859309729992567 -2.5799755820528816 54.133956861590462 0 0.83867057594974714 0.54463902268945019 1 0 0 forward_v I I I I #
loop $-1 $-1 $333 $93 #
coedge $-1 $236 $236 $237 $334 reversed $148 $-1 #
coedge $-1 $237 $237 $236 $334 forward $150 $-1 #
coedge $-1 $238 $238 $151 $239 forward $233 $-1 #
edge $-1 $335 5.9355772310035435e-016 $335 6.2831853071796013 $238 $336 forward 7 unknown #
face $-1 $337 $338 $36 $-1 $339 reversed single #
loop $-1 $-1 $340 $152 #
plane-surface $-1 -52.239143040253914 0 0 1 0 0 0 0 -1 forward_v I I I I #
coedge $-1 $341 $251 $342 $343 forward $153 $-1 #
coedge $-1 $344 $155 $341 $345 forward $97 $-1 #
coedge $-1 $155 $344 $346 $347 forward $97 $-1 #
coedge $-1 $254 $253 $155 $247 reversed $255 $-1 #
edge $-1 $348 -28.898208636886459 $349 28.898208636886459 $246 $350 forward 7 unknown #
coedge $-1 $157 $156 $351 $352 forward $61 $-1 #
coedge $-1 $353 $354 $156 $250 reversed $338 $-1 #
edge $-1 $257 -52.239143040253914 $355 52.239143040253914 $249 $356 forward 7 unknown #
coedge $-1 $243 $357 $157 $252 reversed $153 $-1 #
edge $-1 $358 -52.239143040253914 $256 52.239143040253914 $251 $359 forward 7 unknown #
coedge $-1 $246 $158 $357 $360 forward $255 $-1 #
coedge $-1 $158 $246 $353 $361 reversed $255 $-1 #
loop $-1 $-1 $253 $337 #
vertex $-1 $159 $362 #
vertex $-1 $159 $363 #
straight-curve $-1 52.239143040253914 0 13.299243653116145 0 1 0 I I #
face $-1 $-1 $271 $37 $-1 $364 forward single #
loop $-1 $-1 $365 $160 #
plane-surface $-1 0 -28.898208636886459 0 0 1 0 0 0 1 forward_v I I I I #
coedge $-1 $366 $367 $368 $369 reversed $161 $-1 #
coedge $-1 $370 $163 $165 $269 forward $101 $-1 #
coedge $-1 $163 $370 $366 $371 forward $101 $-1 #
coedge $-1 $368 $166 $163 $266 forward $271 $-1 #
edge $-1 $273 2.6042397067365677 $372 16.362231976229626 $265 $373 forward 7 unknown #
coedge $-1 $374 $375 $164 $268 forward $260 $-1 #
edge $-1 $376 -36.306707939024967 $272 -28.036545326280496 $267 $377 forward 7 unknown #
edge $-1 $273 -12.3595639396667 $376 -9.4405131238556439e-015 $165 $378 forward 7 unknown #
coedge $-1 $166 $368 $374 $379 forward $271 $-1 #
loop $-1 $-1 $368 $259 #
vertex $-1 $268 $380 #
vertex $-1 $167 $381 #
straight-curve $-1 -12.087475548219665 -49.403914197032634 13.299243653116143 0 1 0 I I #
coedge $-1 $275 $275 $-1 $382 reversed $170 $-1 #
edge $-1 $383 0 $383 6.2831853071796004 $171 $384 forward 7 unknown #
vertex $-1 $174 $385 #
ellipse-curve $-1 -23.093869363814111 -24.305735688205303 9.1641623467439093 0 -0.66913061440640931 0.74314481823134659 1 0 0 1 I I #
coedge $-1 $279 $279 $-1 $386 reversed $177 $-1 #
edge $-1 $387 0 $387 6.2831853071796004 $178 $388 forward 7 unknown #
vertex $-1 $181 $389 #
ellipse-curve $-1 -18.966471682966194 -24.305735688205303 9.1641623467439093 0 -0.66913061440640931 0.74314481823134659 1 0 0 1 I I #
coedge $-1 $283 $283 $-1 $390 reversed $184 $-1 #
edge $-1 $391 0 $391 6.2831853071796004 $185 $392 forward 7 unknown #
vertex $-1 $188 $393 #
ellipse-curve $-1 -14.839074002118274 -24.305735688205303 9.1641623467439093 0 -0.66913061440640931 0.74314481823134659 1 0 0 1 I I #
face $-1 $-1 $299 $41 $-1 $394 forward single #
loop $-1 $-1 $395 $189 #
plane-surface $-1 0 -28.898208636886459 0 0 1 0 0 0 1 forward_v I I I I #
coedge $-1 $396 $397 $398 $399 reversed $190 $-1 #
coedge $-1 $400 $192 $194 $297 forward $120 $-1 #
coedge $-1 $192 $400 $396 $401 forward $120 $-1 #
coedge $-1 $398 $195 $192 $294 forward $299 $-1 #
edge $-1 $301 -23.515331813390386 $402 -9.7573395438973272 $293 $403 forward 7 unknown #
coedge $-1 $404 $405 $193 $296 forward $288 $-1 #
edge $-1 $406 -36.306707939024967 $300 -28.036545326280496 $295 $407 forward 7 unknown #
edge $-1 $301 -12.3595639396667 $406 -9.4405131238556439e-015 $194 $408 forward 7 unknown #
coedge $-1 $195 $398 $404 $409 forward $299 $-1 #
loop $-1 $-1 $398 $287 #
vertex $-1 $296 $410 #
vertex $-1 $196 $411 #
straight-curve $-1 40.151667492034242 -49.403914197032634 13.299243653116143 0 1 0 I I #
coedge $-1 $303 $303 $-1 $412 reversed $199 $-1 #
edge $-1 $413 0 $413 6.2831853071796004 $200 $414 forward 7 unknown #
vertex $-1 $203 $415 #
ellipse-curve $-1 29.145273676439807 -24.305735688205303 9.1641623467439093 0 -0.66913061440640931 0.74314481823134659 1 0 0 1 I I #
coedge $-1 $307 $307 $-1 $416 reversed $206 $-1 #
edge $-1 $417 0 $417 6.2831853071796004 $207 $418 forward 7 unknown #
vertex $-1 $210 $419 #
ellipse-curve $-1 33.272671357287713 -24.305735688205303 9.1641623467439093 0 -0.66913061440640931 0.74314481823134659 1 0 0 1 I I #
coedge $-1 $311 $311 $-1 $420 reversed $213 $-1 #
edge $-1 $421 0 $421 6.2831853071796004 $214 $422 forward 7 unknown #
vertex $-1 $217 $423 #
ellipse-curve $-1 37.400069038135648 -24.305735688205303 9.1641623467439093 0 -0.66913061440640931 0.74314481823134659 1 0 0 1 I I #
face $-1 $-1 $424 $45 $-1 $425 reversed single #
loop $-1 $-1 $322 $218 #
plane-surface $-1 0 28.898208636886459 0 0 -1 0 0 0 -1 forward_v I I I I #
coedge $-1 $426 $221 $223 $324 forward $139 $-1 #
coedge $-1 $221 $426 $427 $428 reversed $139 $-1 #
coedge $-1 $429 $224 $221 $321 forward $219 $-1 #
edge $-1 $327 12.049821554734923 $430 30.809488175257645 $320 $431 forward 7 unknown #
coedge $-1 $432 $433 $222 $323 forward $316 $-1 #
edge $-1 $434 -49.85665194361011 $326 -42.219210589257379 $322 $435 forward 7 unknown #
edge $-1 $327 48.68981263856945 $434 57.796417273772924 $223 $436 forward 7 unknown #
coedge $-1 $224 $429 $432 $437 forward $219 $-1 #
vertex $-1 $323 $438 #
vertex $-1 $225 $439 #
straight-curve $-1 33.479476419731206 42.521444389664538 13.299243653116143 0 -1 0 I I #
coedge $-1 $329 $329 $-1 $440 reversed $228 $-1 #
edge $-1 $441 0 $441 6.2831853071796004 $229 $442 forward 7 unknown #
vertex $-1 $232 $443 #
ellipse-curve $-1 38.839381168451986 26.418302512618233 9.4805229759397864 0 0.83867057594974714 0.54463902268945019 1.5 0 0 1 I I #
coedge $-1 $333 $333 $-1 $444 reversed $235 $-1 #
edge $-1 $445 0 $445 6.2831853071796004 $236 $446 forward 7 unknown #
vertex $-1 $239 $447 #
ellipse-curve $-1 46.879238291533149 26.418302512618233 9.4805229759397864 0 0.83867057594974714 0.54463902268945019 1.5 0 0 1 I I #
face $-1 $-1 $255 $36 $-1 $448 reversed single #
loop $-1 $-1 $353 $240 #
plane-surface $-1 0 28.898208636886459 0 0 -1 0 0 0 -1 forward_v I I I I #
coedge $-1 $449 $351 $354 $450 forward $241 $-1 #
coedge $-1 $357 $243 $244 $345 reversed $153 $-1 #
coedge $-1 $351 $449 $243 $343 reversed $241 $-1 #
edge $-1 $358 -13.299243653116145 $451 13.299243653116145 $342 $452 forward 7 unknown #
coedge $-1 $245 $244 $449 $453 forward $97 $-1 #
edge $-1 $349 -52.239143040253914 $451 52.239143040253914 $341 $454 forward 7 unknown #
coedge $-1 $354 $353 $245 $347 reversed $338 $-1 #
edge $-1 $455 -52.239143040253914 $348 52.239143040253914 $346 $456 forward 7 unknown #
vertex $-1 $247 $457 #
vertex $-1 $360 $458 #
straight-curve $-1 52.239143040253914 0 -13.299243653116145 0 -1 0 I I #
coedge $-1 $340 $342 $248 $352 reversed $241 $-1 #
edge $-1 $355 -28.898208636886459 $358 28.898208636886459 $351 $459 forward 7 unknown #
coedge $-1 $346 $249 $254 $361 forward $338 $-1 #
coedge $-1 $249 $346 $340 $450 reversed $338 $-1 #
vertex $-1 $250 $460 #
straight-curve $-1 0 28.898208636886459 13.299243653116145 -1 0 0 I I #
coedge $-1 $251 $341 $253 $360 reversed $153 $-1 #
vertex $-1 $352 $461 #
straight-curve $-1 0 -28.898208636886459 13.299243653116145 1 0 0 I I #
edge $-1 $256 -13.299243653116145 $349 13.299243653116145 $253 $462 forward 7 unknown #
edge $-1 $257 -13.299243653116145 $348 13.299243653116145 $254 $463 forward 7 unknown #
point $-1 52.239143040253914 -28.898208636886459 13.299243653116145 #
point $-1 52.239143040253914 28.898208636886459 13.299243653116145 #
plane-surface $-1 0 0 13.299243653116145 0 0 1 1 0 0 forward_v I I I I #
coedge $-1 $375 $374 $367 $464 forward $260 $-1 #
coedge $-1 $367 $262 $264 $371 reversed $161 $-1 #
coedge $-1 $262 $366 $365 $464 reversed $161 $-1 #
coedge $-1 $270 $265 $262 $369 forward $271 $-1 #
edge $-1 $372 -29.690651457508483 $465 -20.505705560146176 $368 $466 forward 7 unknown #
coedge $-1 $264 $263 $375 $467 reversed $101 $-1 #
edge $-1 $468 9.4405131238556439e-015 $372 12.3595639396667 $366 $469 forward 7 unknown #
vertex $-1 $266 $470 #
straight-curve $-1 -9.4832358414830971 -19.713262739524147 13.299243653116145 -1 0 0 I I #
coedge $-1 $365 $267 $270 $379 reversed $260 $-1 #
coedge $-1 $267 $365 $370 $467 forward $260 $-1 #
vertex $-1 $268 $471 #
straight-curve $-1 -12.087475548219665 -28.898208636886459 41.335788979396639 0 0 1 I I #
straight-curve $-1 -12.087475548219665 -28.898208636886466 5.0290810403716648 0 -0.74314481823134659 -0.66913061440640931 I I #
edge $-1 $465 -25.845467817712724 $272 -12.087475548219665 $374 $472 forward 7 unknown #
point $-1 -12.087475548219665 -28.898208636886459 13.299243653116145 #
point $-1 -12.087475548219665 -19.713262739524151 13.299243653116145 #
edge $-1 $473 1 $473 0 $275 $-1 forward 7 unknown #
vertex $-1 $276 $474 #
ellipse-curve $-1 -23.093869363814111 -23.350079860909815 8.1027990481938232 0 -0.66913061440640931 0.74314481823134659 1 0 0 1 I I #
point $-1 -22.093869363814111 -24.305735688205296 9.164162346743904 #
edge $-1 $475 1 $475 0 $279 $-1 forward 7 unknown #
vertex $-1 $280 $476 #
ellipse-curve $-1 -18.966471682966194 -23.350079860909815 8.1027990481938232 0 -0.66913061440640931 0.74314481823134659 1 0 0 1 I I #
point $-1 -17.966471682966194 -24.305735688205296 9.164162346743904 #
edge $-1 $477 1 $477 0 $283 $-1 forward 7 unknown #
vertex $-1 $284 $478 #
ellipse-curve $-1 -14.839074002118274 -23.350079860909815 8.1027990481938232 0 -0.66913061440640931 0.74314481823134659 1 0 0 1 I I #
point $-1 -13.839074002118274 -24.305735688205296 9.164162346743904 #
plane-surface $-1 0 0 13.299243653116145 0 0 1 1 0 0 forward_v I I I I #
coedge $-1 $405 $404 $397 $479 forward $288 $-1 #
coedge $-1 $397 $290 $292 $401 reversed $190 $-1 #
coedge $-1 $290 $396 $395 $479 reversed $190 $-1 #
coedge $-1 $298 $293 $290 $399 forward $299 $-1 #
edge $-1 $402 -29.690651457508483 $480 -20.505705560146176 $398 $481 forward 7 unknown #
coedge $-1 $292 $291 $405 $482 reversed $120 $-1 #
edge $-1 $483 9.4405131238556439e-015 $402 12.3595639396667 $396 $484 forward 7 unknown #
vertex $-1 $294 $485 #
straight-curve $-1 16.636335678643857 -19.713262739524147 13.299243653116145 -1 0 0 I I #
coedge $-1 $395 $295 $298 $409 reversed $288 $-1 #
coedge $-1 $295 $395 $400 $482 forward $288 $-1 #
vertex $-1 $296 $486 #
straight-curve $-1 40.151667492034242 -28.898208636886459 41.335788979396639 0 0 1 I I #
straight-curve $-1 40.151667492034242 -28.898208636886466 5.0290810403716648 0 -0.74314481823134659 -0.66913061440640931 I I #
edge $-1 $480 26.393675222541184 $300 40.151667492034242 $404 $487 forward 7 unknown #
point $-1 40.151667492034242 -28.898208636886459 13.299243653116145 #
point $-1 40.151667492034242 -19.713262739524151 13.299243653116145 #
edge $-1 $488 1 $488 0 $303 $-1 forward 7 unknown #
vertex $-1 $304 $489 #
ellipse-curve $-1 29.145273676439807 -23.350079860909815 8.1027990481938232 0 -0.66913061440640931 0.74314481823134659 1 0 0 1 I I #
point $-1 30.145273676439807 -24.305735688205296 9.164162346743904 #
edge $-1 $490 1 $490 0 $307 $-1 forward 7 unknown #
vertex $-1 $308 $491 #
ellipse-curve $-1 33.272671357287713 -23.350079860909815 8.1027990481938232 0 -0.66913061440640931 0.74314481823134659 1 0 0 1 I I #
point $-1 34.272671357287713 -24.305735688205296 9.164162346743904 #
edge $-1 $492 1 $492 0 $311 $-1 forward 7 unknown #
vertex $-1 $312 $493 #
ellipse-curve $-1 37.400069038135648 -23.350079860909815 8.1027990481938232 0 -0.66913061440640931 0.74314481823134659 1 0 0 1 I I #
point $-1 38.400069038135648 -24.305735688205296 9.164162346743904 #
loop $-1 $-1 $427 $315 #
plane-surface $-1 52.239143040253914 0 0 -1 0 0 0 0 1 forward_v I I I I #
coedge $-1 $319 $318 $433 $494 reversed $139 $-1 #
coedge $-1 $495 $496 $319 $428 forward $424 $-1 #
edge $-1 $430 25.286956559009074 $497 34.393561194212538 $427 $498 forward 7 unknown #
coedge $-1 $325 $320 $496 $499 forward $219 $-1 #
vertex $-1 $499 $500 #
straight-curve $-1 21.429654864996284 23.938396388350029 13.29924365311614 1 0 0 I I #
coedge $-1 $501 $322 $325 $437 reversed $316 $-1 #
coedge $-1 $322 $501 $426 $494 forward $316 $-1 #
vertex $-1 $323 $502 #
straight-curve $-1 33.479476419731206 28.898208636886459 55.518454242373522 0 0 1 I I #
straight-curve $-1 33.479476419731206 -2.5799755820528816 54.133956861590462 0 0.54463902268945019 -0.83867057594974714 I I #
edge $-1 $503 -52.239143040253914 $326 -33.479476419731206 $432 $504 forward 7 unknown #
point $-1 33.479476419731206 28.898208636886459 13.299243653116145 #
point $-1 33.479476419731206 23.938396388350025 13.299243653116143 #
edge $-1 $505 1 $505 0 $329 $-1 forward 7 unknown #
vertex $-1 $330 $506 #
ellipse-curve $-1 38.839381168451986 24.368452081188341 8.1493345836807265 0 0.83867057594974714 0.54463902268945019 1.5 0 0 1 I I #
point $-1 40.339381168451986 26.41830251261824 9.48052297593979 #
edge $-1 $507 1 $507 0 $333 $-1 forward 7 unknown #
vertex $-1 $334 $508 #
ellipse-curve $-1 46.879238291533149 24.368452081188341 8.1493345836807265 0 0.83867057594974714 0.54463902268945019 1.5 0 0 1 I I #
point $-1 48.379238291533149 26.41830251261824 9.48052297593979 #
plane-surface $-1 52.239143040253914 0 0 -1 0 0 0 0 1 forward_v I I I I #
coedge $-1 $342 $340 $344 $453 reversed $241 $-1 #
edge $-1 $355 -13.299243653116145 $455 13.299243653116145 $354 $509 forward 7 unknown #
vertex $-1 $453 $510 #
straight-curve $-1 -52.239143040253914 -28.898208636886459 0 0 0 -1 I I #
edge $-1 $451 -28.898208636886459 $455 28.898208636886459 $449 $511 forward 7 unknown #
straight-curve $-1 0 -28.898208636886459 -13.299243653116145 -1 0 0 I I #
vertex $-1 $347 $512 #
straight-curve $-1 0 28.898208636886459 -13.299243653116145 1 0 0 I I #
point $-1 52.239143040253914 28.898208636886459 -13.299243653116145 #
point $-1 52.239143040253914 -28.898208636886459 -13.299243653116145 #
straight-curve $-1 -52.239143040253914 0 13.299243653116145 0 -1 0 I I #
point $-1 -52.239143040253914 28.898208636886459 13.299243653116145 #
point $-1 -52.239143040253914 -28.898208636886459 13.299243653116145 #
straight-curve $-1 52.239143040253914 -28.898208636886459 0 0 0 -1 I I #
straight-curve $-1 52.239143040253914 28.898208636886459 0 0 0 -1 I I #
edge $-1 $465 28.036545326280496 $468 36.306707939024967 $365 $513 forward 7 unknown #
vertex $-1 $379 $514 #
straight-curve $-1 -25.845467817712724 -49.403914197032634 13.299243653116143 0 -1 0 I I #
edge $-1 $468 -16.362231976229626 $376 -2.6042397067365677 $375 $515 forward 7 unknown #
vertex $-1 $467 $516 #
straight-curve $-1 -25.845467817712724 -28.898208636886466 5.0290810403716648 0 0.74314481823134659 0.66913061440640931 I I #
point $-1 -25.845467817712724 -19.713262739524151 13.299243653116145 #
point $-1 -12.087475548219665 -28.898208636886459 5.029081040371671 #
straight-curve $-1 0 -28.898208636886459 13.299243653116145 1 0 0 I I #
vertex $-1 $382 $517 #
point $-1 -22.093869363814111 -23.350079860909815 8.1027990481938232 #
vertex $-1 $386 $518 #
point $-1 -17.966471682966194 -23.350079860909815 8.1027990481938232 #
vertex $-1 $390 $519 #
point $-1 -13.839074002118274 -23.350079860909815 8.1027990481938232 #
edge $-1 $480 28.036545326280496 $483 36.306707939024967 $395 $520 forward 7 unknown #
vertex $-1 $409 $521 #
straight-curve $-1 26.393675222541184 -49.403914197032634 13.299243653116143 0 -1 0 I I #
edge $-1 $483 9.7573395438973272 $406 23.515331813390386 $405 $522 forward 7 unknown #
vertex $-1 $482 $523 #
straight-curve $-1 26.393675222541184 -28.898208636886466 5.0290810403716648 0 0.74314481823134659 0.66913061440640931 I I #
point $-1 26.393675222541184 -19.713262739524151 13.299243653116145 #
point $-1 40.151667492034242 -28.898208636886459 5.029081040371671 #
straight-curve $-1 0 -28.898208636886459 13.299243653116145 1 0 0 I I #
vertex $-1 $412 $524 #
point $-1 30.145273676439807 -23.350079860909815 8.1027990481938232 #
vertex $-1 $416 $525 #
point $-1 34.272671357287713 -23.350079860909815 8.1027990481938232 #
vertex $-1 $420 $526 #
point $-1 38.400069038135648 -23.350079860909815 8.1027990481938232 #
edge $-1 $497 -30.809488175257645 $434 -12.049821554734923 $433 $527 forward 7 unknown #
coedge $-1 $496 $427 $501 $528 reversed $424 $-1 #
coedge $-1 $427 $495 $429 $499 reversed $424 $-1 #
vertex $-1 $428 $529 #
straight-curve $-1 52.239143040253914 10.166133081260744 34.506670074476517 0 0.54463902268945019 -0.83867057594974714 I I #
edge $-1 $430 23.938396388350025 $503 28.898208636886459 $496 $530 forward 7 unknown #
point $-1 52.239143040253929 23.938396388350025 13.299243653116143 #
coedge $-1 $433 $432 $495 $528 forward $316 $-1 #
point $-1 33.479476419731206 28.898208636886459 5.661802298763412 #
vertex $-1 $499 $531 #
straight-curve $-1 0 28.898208636886459 13.299243653116145 -1 0 0 I I #
vertex $-1 $440 $532 #
point $-1 40.339381168451986 24.368452081188341 8.1493345836807265 #
vertex $-1 $444 $533 #
point $-1 48.379238291533149 24.368452081188341 8.1493345836807265 #
straight-curve $-1 -52.239143040253914 28.898208636886459 0 0 0 -1 I I #
point $-1 -52.239143040253914 -28.898208636886459 -13.299243653116145 #
straight-curve $-1 -52.239143040253914 0 -13.299243653116145 0 1 0 I I #
point $-1 -52.239143040253914 28.898208636886459 -13.299243653116145 #
straight-curve $-1 -25.845467817712724 -28.898208636886459 41.335788979396639 0 0 -1 I I #
point $-1 -25.845467817712724 -28.898208636886459 13.299243653116145 #
straight-curve $-1 -9.4832358414830971 -28.898208636886459 5.029081040371671 1 0 0 I I #
point $-1 -25.845467817712724 -28.898208636886459 5.029081040371671 #
point $-1 -23.093869363814111 -22.680949246503403 7.3596542299624756 #
point $-1 -18.966471682966194 -22.680949246503403 7.3596542299624756 #
point $-1 -14.839074002118274 -22.680949246503403 7.3596542299624756 #
straight-curve $-1 26.393675222541184 -28.898208636886459 41.335788979396639 0 0 -1 I I #
point $-1 26.393675222541184 -28.898208636886459 13.299243653116145 #
straight-curve $-1 16.636335678643857 -28.898208636886459 5.029081040371671 1 0 0 I I #
point $-1 26.393675222541184 -28.898208636886459 5.029081040371671 #
point $-1 29.145273676439807 -22.680949246503403 7.3596542299624756 #
point $-1 33.272671357287713 -22.680949246503403 7.3596542299624756 #
point $-1 37.400069038135648 -22.680949246503403 7.3596542299624756 #
straight-curve $-1 21.429654864996284 28.898208636886459 5.6618022987634156 -1 0 0 I I #
edge $-1 $503 -13.299243653116145 $497 -5.661802298763412 $495 $534 forward 7 unknown #
point $-1 52.239143040253929 28.898208636886459 5.661802298763412 #
straight-curve $-1 52.239143040253914 0 13.299243653116145 0 1 0 I I #
point $-1 52.239143040253914 28.898208636886459 13.299243653116145 #
point $-1 38.839381168451986 23.110446217263725 7.3323760496465518 #
point $-1 46.879238291533149 23.110446217263725 7.3323760496465518 #
straight-curve $-1 52.239143040253914 28.898208636886459 0 0 0 -1 I I #
End-of-ACIS-data 