500 0 3 0           
7 Unknown 11 ACIS 5.0 NT 24 Fri Mar 26 01:23:39 1999 
-1 9.9999999999999995e-007 1e-010 
body $-1 $3 $-1 $4 #
body $-1 $5 $-1 $6 #
body $-1 $7 $-1 $8 #
lump $-1 $-1 $9 $0 #
transform $-1 1 0 0 0 1 0 0 0 1 63.632312997833182 39.299900650036612 13.778532934284057 1 rotate no_reflect no_shear #
lump $-1 $-1 $10 $1 #
transform $-1 1 0 0 0 1 0 0 0 1 63.632312997833182 39.299900650036612 13.778532934284057 1 rotate no_reflect no_shear #
lump $-1 $-1 $11 $2 #
transform $-1 1 0 0 0 1 0 0 0 1 63.632312997833182 39.299900650036612 13.778532934284057 1 rotate no_reflect no_shear #
shell $-1 $-1 $-1 $12 $-1 $3 #
shell $-1 $-1 $-1 $13 $-1 $5 #
shell $-1 $-1 $-1 $14 $-1 $7 #
face $-1 $15 $16 $9 $-1 $17 forward single #
face $-1 $18 $19 $10 $-1 $20 reversed single #
face $-1 $21 $22 $11 $-1 $23 forward single #
face $-1 $24 $25 $9 $-1 $26 reversed single #
loop $-1 $-1 $27 $12 #
plane-surface $-1 0 0 13.778532934284057 0 0 1 1 0 0 forward_v I I I I #
face $-1 $28 $29 $10 $-1 $30 reversed single #
loop $-1 $-1 $31 $13 #
plane-surface $-1 0 -44.061902415621574 6.715053197856653 0 0 1 1 0 0 forward_v I I I I #
face $-1 $32 $33 $11 $-1 $34 forward single #
loop $-1 $-1 $35 $14 #
plane-surface $-1 -59.979469046698441 29.278563018337593 0 0 1 0 0 0 1 forward_v I I I I #
face $-1 $36 $37 $9 $-1 $38 reversed single #
loop $-1 $-1 $39 $15 #
plane-surface $-1 0 0 -13.778532934284057 0 0 1 1 0 0 forward_v I I I I #
coedge $-1 $40 $41 $42 $43 forward $16 $-1 #
face $-1 $44 $45 $10 $-1 $46 forward single #
loop $-1 $-1 $47 $18 #
plane-surface $-1 0 -48.823904181206544 10.246793066070355 0 1 0 0 0 1 forward_v I I I I #
coedge $-1 $48 $49 $50 $51 forward $19 $-1 #
face $-1 $52 $53 $11 $-1 $54 forward single #
loop $-1 $-1 $55 $21 #
plane-surface $-1 -56.326625095563699 34.289231834187099 0 -1 0 0 0 0 1 forward_v I I I I #
coedge $-1 $56 $57 $58 $59 reversed $22 $-1 #
face $-1 $60 $61 $9 $-1 $62 reversed single #
loop $-1 $-1 $63 $24 #
plane-surface $-1 0 -39.299900650036612 0 0 1 0 0 0 1 forward_v I I I I #
coedge $-1 $64 $65 $66 $67 forward $25 $-1 #
coedge $-1 $68 $27 $69 $70 forward $16 $-1 #
coedge $-1 $27 $68 $71 $72 forward $16 $-1 #
coedge $-1 $73 $74 $27 $43 reversed $75 $-1 #
edge $-1 $76 -39.299900650036612 $77 39.299900650036612 $42 $78 forward 7 unknown #
face $-1 $79 $80 $10 $-1 $81 reversed single #
loop $-1 $-1 $82 $28 #
plane-surface $-1 0 0 13.778532934284057 0 0 1 1 0 0 forward_v I I I I #
coedge $-1 $83 $84 $85 $86 forward $29 $-1 #
coedge $-1 $87 $31 $83 $88 forward $19 $-1 #
coedge $-1 $31 $87 $89 $90 reversed $19 $-1 #
coedge $-1 $91 $92 $31 $51 reversed $93 $-1 #
edge $-1 $94 -4.7620017655849693 $95 4.7620017655849693 $50 $96 forward 7 unknown #
face $-1 $97 $98 $11 $-1 $99 reversed single #
loop $-1 $-1 $100 $32 #
plane-surface $-1 0 0 13.778532934284057 0 0 1 1 0 0 forward_v I I I I #
coedge $-1 $101 $102 $103 $104 reversed $33 $-1 #
coedge $-1 $103 $35 $105 $106 reversed $22 $-1 #
coedge $-1 $35 $103 $107 $108 reversed $22 $-1 #
coedge $-1 $109 $110 $35 $59 forward $98 $-1 #
edge $-1 $111 -13.778532934284057 $112 13.778532934284057 $58 $113 forward 7 unknown #
face $-1 $114 $115 $9 $-1 $116 reversed single #
loop $-1 $-1 $117 $36 #
plane-surface $-1 -63.632312997833182 0 0 1 0 0 0 0 -1 forward_v I I I I #
coedge $-1 $118 $71 $119 $120 forward $37 $-1 #
coedge $-1 $121 $39 $118 $122 forward $25 $-1 #
coedge $-1 $39 $121 $123 $124 forward $25 $-1 #
coedge $-1 $74 $73 $39 $67 reversed $75 $-1 #
edge $-1 $125 -39.299900650036612 $126 39.299900650036612 $66 $127 forward 7 unknown #
coedge $-1 $41 $40 $128 $129 forward $16 $-1 #
coedge $-1 $130 $131 $40 $70 reversed $115 $-1 #
edge $-1 $77 -63.632312997833182 $132 63.632312997833182 $69 $133 forward 7 unknown #
coedge $-1 $63 $134 $41 $72 reversed $37 $-1 #
edge $-1 $135 -63.632312997833182 $76 63.632312997833182 $71 $136 forward 7 unknown #
coedge $-1 $66 $42 $134 $137 forward $75 $-1 #
coedge $-1 $42 $66 $130 $138 reversed $75 $-1 #
loop $-1 $-1 $73 $114 #
vertex $-1 $43 $139 #
vertex $-1 $43 $140 #
straight-curve $-1 63.632312997833182 0 13.778532934284057 0 1 0 I I #
face $-1 $141 $142 $10 $-1 $143 reversed single #
loop $-1 $-1 $144 $44 #
plane-surface $-1 0 0 -13.778532934284057 0 0 1 1 0 0 forward_v I I I I #
coedge $-1 $145 $146 $147 $148 forward $45 $-1 #
coedge $-1 $149 $47 $48 $88 reversed $29 $-1 #
coedge $-1 $47 $149 $146 $150 reversed $29 $-1 #
coedge $-1 $151 $152 $47 $86 reversed $153 $-1 #
edge $-1 $154 -3.5317398682137018 $155 3.5317398682137018 $85 $156 forward 7 unknown #
coedge $-1 $49 $48 $152 $157 forward $19 $-1 #
edge $-1 $95 -63.632312997833182 $155 63.632312997833182 $83 $158 forward 7 unknown #
coedge $-1 $159 $160 $49 $90 forward $142 $-1 #
edge $-1 $94 -63.632312997833182 $161 63.632312997833182 $89 $162 forward 7 unknown #
coedge $-1 $163 $50 $160 $164 forward $93 $-1 #
coedge $-1 $50 $147 $149 $165 forward $93 $-1 #
loop $-1 $-1 $91 $166 #
vertex $-1 $164 $167 #
vertex $-1 $165 $168 #
straight-curve $-1 63.632312997833182 -44.061902415621574 6.715053197856653 0 -1 0 I I #
face $-1 $169 $170 $11 $-1 $171 reversed single #
loop $-1 $-1 $58 $52 #
plane-surface $-1 -63.632312997833182 0 0 1 0 0 0 0 -1 forward_v I I I I #
coedge $-1 $105 $172 $101 $173 forward $53 $-1 #
coedge $-1 $174 $55 $100 $173 reversed $33 $-1 #
coedge $-1 $55 $174 $175 $176 reversed $33 $-1 #
coedge $-1 $57 $56 $55 $104 forward $22 $-1 #
edge $-1 $177 -13.778532934284057 $178 13.778532934284057 $55 $179 forward 7 unknown #
coedge $-1 $180 $100 $56 $106 forward $53 $-1 #
edge $-1 $177 26.336890572214479 $111 33.642578474483962 $105 $181 forward 7 unknown #
coedge $-1 $175 $182 $57 $108 forward $183 $-1 #
edge $-1 $112 -33.642578474483962 $178 -26.336890572214479 $107 $184 forward 7 unknown #
coedge $-1 $185 $58 $182 $186 reversed $98 $-1 #
coedge $-1 $58 $187 $180 $188 reversed $98 $-1 #
vertex $-1 $188 $189 #
vertex $-1 $59 $190 #
straight-curve $-1 -63.632312997833182 29.278563018337593 0 0 0 -1 I I #
face $-1 $-1 $75 $9 $-1 $191 reversed single #
loop $-1 $-1 $130 $60 #
plane-surface $-1 0 39.299900650036612 0 0 -1 0 0 0 -1 forward_v I I I I #
coedge $-1 $192 $128 $131 $193 forward $61 $-1 #
coedge $-1 $134 $63 $64 $122 reversed $37 $-1 #
coedge $-1 $128 $192 $63 $120 reversed $61 $-1 #
edge $-1 $135 -13.778532934284057 $194 13.778532934284057 $119 $195 forward 7 unknown #
coedge $-1 $65 $64 $192 $196 forward $25 $-1 #
edge $-1 $126 -63.632312997833182 $194 63.632312997833182 $118 $197 forward 7 unknown #
coedge $-1 $131 $130 $65 $124 reversed $115 $-1 #
edge $-1 $198 -63.632312997833182 $125 63.632312997833182 $123 $199 forward 7 unknown #
vertex $-1 $67 $200 #
vertex $-1 $137 $201 #
straight-curve $-1 63.632312997833182 0 -13.778532934284057 0 -1 0 I I #
coedge $-1 $117 $119 $68 $129 reversed $61 $-1 #
edge $-1 $132 -39.299900650036612 $135 39.299900650036612 $128 $202 forward 7 unknown #
coedge $-1 $123 $69 $74 $138 forward $115 $-1 #
coedge $-1 $69 $123 $117 $193 reversed $115 $-1 #
vertex $-1 $70 $203 #
straight-curve $-1 0 39.299900650036612 13.778532934284057 -1 0 0 I I #
coedge $-1 $71 $118 $73 $137 reversed $37 $-1 #
vertex $-1 $129 $204 #
straight-curve $-1 0 -39.299900650036612 13.778532934284057 1 0 0 I I #
edge $-1 $76 -13.778532934284057 $126 13.778532934284057 $73 $205 forward 7 unknown #
edge $-1 $77 -13.778532934284057 $125 13.778532934284057 $74 $206 forward 7 unknown #
point $-1 63.632312997833182 -39.299900650036612 13.778532934284057 #
point $-1 63.632312997833182 39.299900650036612 13.778532934284057 #
face $-1 $207 $153 $10 $-1 $208 reversed single #
loop $-1 $-1 $89 $79 #
plane-surface $-1 0 -39.299900650036612 0 0 1 0 0 0 1 forward_v I I I I #
coedge $-1 $209 $210 $163 $211 forward $80 $-1 #
coedge $-1 $212 $82 $213 $214 forward $45 $-1 #
coedge $-1 $82 $212 $84 $150 forward $45 $-1 #
coedge $-1 $92 $215 $82 $148 reversed $93 $-1 #
edge $-1 $216 -48.823904181206544 $217 39.299900650036612 $147 $218 forward 7 unknown #
coedge $-1 $84 $83 $92 $165 reversed $29 $-1 #
edge $-1 $154 -63.632312997833182 $216 63.632312997833182 $84 $219 forward 7 unknown #
coedge $-1 $220 $85 $212 $221 reversed $153 $-1 #
coedge $-1 $85 $222 $87 $157 reversed $153 $-1 #
loop $-1 $-1 $220 $141 #
vertex $-1 $221 $223 #
vertex $-1 $157 $224 #
straight-curve $-1 -63.632312997833182 -48.823904181206544 10.246793066070355 0 0 -1 I I #
edge $-1 $155 -4.7620017655849693 $161 4.7620017655849693 $152 $225 forward 7 unknown #
straight-curve $-1 0 -48.823904181206544 6.715053197856653 -1 0 0 I I #
coedge $-1 $226 $89 $222 $227 forward $142 $-1 #
coedge $-1 $89 $226 $91 $164 reversed $142 $-1 #
vertex $-1 $227 $228 #
straight-curve $-1 0 -39.299900650036612 6.715053197856653 -1 0 0 I I #
coedge $-1 $215 $91 $144 $211 reversed $93 $-1 #
edge $-1 $94 -6.715053197856653 $229 13.778532934284057 $91 $230 forward 7 unknown #
edge $-1 $216 -3.5317398682137018 $95 3.5317398682137018 $92 $231 forward 7 unknown #
face $-1 $-1 $93 $10 $-1 $232 reversed single #
point $-1 63.632312997833182 -39.299900650036605 6.715053197856653 #
point $-1 63.632312997833182 -48.823904181206544 6.715053197856653 #
face $-1 $233 $234 $11 $-1 $235 reversed single #
loop $-1 $-1 $236 $97 #
plane-surface $-1 0 -44.061902415621574 6.715053197856653 0 0 1 1 0 0 forward_v I I I I #
coedge $-1 $100 $237 $238 $239 forward $53 $-1 #
edge $-1 $240 -22.155284732943056 $177 -12.133947101244043 $100 $241 forward 7 unknown #
coedge $-1 $102 $101 $242 $243 reversed $33 $-1 #
coedge $-1 $244 $107 $102 $176 forward $183 $-1 #
edge $-1 $178 12.133947101244043 $245 22.155284732943056 $175 $246 forward 7 unknown #
vertex $-1 $106 $247 #
vertex $-1 $108 $248 #
straight-curve $-1 -56.326625095563699 29.278563018337593 0 0 0 -1 I I #
coedge $-1 $249 $105 $110 $188 forward $53 $-1 #
straight-curve $-1 -29.98973452334922 29.278563018337593 13.778532934284057 -1 0 0 I I #
coedge $-1 $107 $250 $109 $186 forward $183 $-1 #
loop $-1 $-1 $175 $233 #
straight-curve $-1 -29.98973452334922 29.278563018337593 -13.778532934284057 1 0 0 I I #
coedge $-1 $251 $109 $252 $253 reversed $98 $-1 #
edge $-1 $254 -39.299900650036612 $112 29.278563018337593 $109 $255 forward 7 unknown #
coedge $-1 $110 $251 $256 $257 reversed $98 $-1 #
edge $-1 $111 -29.278563018337593 $258 48.823904181206544 $110 $259 forward 7 unknown #
point $-1 -63.632312997833182 29.278563018337593 13.778532934284057 #
point $-1 -63.632312997833182 29.278563018337593 -13.778532934284057 #
plane-surface $-1 63.632312997833182 0 0 -1 0 0 0 0 1 forward_v I I I I #
coedge $-1 $119 $117 $121 $196 reversed $61 $-1 #
edge $-1 $132 -13.778532934284057 $198 13.778532934284057 $131 $260 forward 7 unknown #
vertex $-1 $196 $261 #
straight-curve $-1 -63.632312997833182 -39.299900650036612 0 0 0 -1 I I #
edge $-1 $194 -39.299900650036612 $198 39.299900650036612 $192 $262 forward 7 unknown #
straight-curve $-1 0 -39.299900650036612 -13.778532934284057 -1 0 0 I I #
vertex $-1 $124 $263 #
straight-curve $-1 0 39.299900650036612 -13.778532934284057 1 0 0 I I #
point $-1 63.632312997833182 39.299900650036612 -13.778532934284057 #
point $-1 63.632312997833182 -39.299900650036612 -13.778532934284057 #
straight-curve $-1 -63.632312997833182 0 13.778532934284057 0 -1 0 I I #
point $-1 -63.632312997833182 39.299900650036612 13.778532934284057 #
point $-1 -63.632312997833182 -39.299900650036612 13.778532934284057 #
straight-curve $-1 63.632312997833182 -39.299900650036612 0 0 0 -1 I I #
straight-curve $-1 63.632312997833182 39.299900650036612 0 0 0 -1 I I #
face $-1 $166 $264 $10 $-1 $265 reversed single #
plane-surface $-1 -63.632312997833182 0 0 1 0 0 0 0 -1 forward_v I I I I #
coedge $-1 $266 $144 $226 $267 forward $80 $-1 #
coedge $-1 $144 $266 $268 $269 forward $80 $-1 #
edge $-1 $270 -39.299900650036612 $229 39.299900650036612 $163 $271 forward 7 unknown #
coedge $-1 $146 $145 $151 $221 forward $45 $-1 #
coedge $-1 $272 $273 $145 $214 reversed $264 $-1 #
edge $-1 $217 -63.632312997833182 $274 63.632312997833182 $213 $275 forward 7 unknown #
coedge $-1 $147 $163 $272 $276 reversed $93 $-1 #
vertex $-1 $148 $277 #
vertex $-1 $148 $278 #
straight-curve $-1 63.632312997833182 0 13.778532934284057 0 1 0 I I #
straight-curve $-1 0 -48.823904181206544 13.778532934284057 1 0 0 I I #
coedge $-1 $279 $151 $273 $280 forward $153 $-1 #
edge $-1 $274 -39.299900650036612 $154 48.823904181206544 $151 $281 forward 7 unknown #
coedge $-1 $152 $279 $159 $227 reversed $153 $-1 #
point $-1 -63.632312997833182 -48.823904181206544 13.778532934284057 #
point $-1 -63.632312997833182 -48.823904181206544 6.715053197856653 #
straight-curve $-1 -63.632312997833182 -44.061902415621574 6.715053197856653 0 1 0 I I #
coedge $-1 $160 $159 $209 $267 reversed $142 $-1 #
edge $-1 $161 -6.715053197856653 $282 13.778532934284057 $222 $283 forward 7 unknown #
point $-1 -63.632312997833182 -39.299900650036605 6.715053197856653 #
vertex $-1 $164 $284 #
straight-curve $-1 63.632312997833182 -39.299900650036612 0 0 0 -1 I I #
straight-curve $-1 63.632312997833182 -48.823904181206544 10.246793066070355 0 0 -1 I I #
plane-surface $-1 63.632312997833182 0 0 -1 0 0 0 0 1 forward_v I I I I #
face $-1 $285 $183 $11 $-1 $286 reversed single #
loop $-1 $-1 $256 $169 #
plane-surface $-1 0 -48.823904181206544 10.246793066070355 0 1 0 0 0 1 forward_v I I I I #
coedge $-1 $287 $288 $289 $290 forward $170 $-1 #
coedge $-1 $172 $249 $291 $292 forward $53 $-1 #
coedge $-1 $293 $242 $172 $239 reversed $294 $-1 #
edge $-1 $295 -63.632312997833182 $240 56.326625095563699 $238 $296 forward 7 unknown #
vertex $-1 $243 $297 #
straight-curve $-1 -56.326625095563699 17.144615917093549 13.778532934284057 0 -1 0 I I #
coedge $-1 $238 $298 $174 $243 forward $294 $-1 #
edge $-1 $245 -13.778532934284057 $240 13.778532934284057 $242 $299 forward 7 unknown #
coedge $-1 $300 $175 $298 $301 forward $183 $-1 #
vertex $-1 $301 $302 #
straight-curve $-1 -56.326625095563699 17.144615917093549 -13.778532934284057 0 1 0 I I #
point $-1 -56.326625095563699 29.278563018337593 13.778532934284057 #
point $-1 -56.326625095563699 29.278563018337593 -13.778532934284057 #
coedge $-1 $237 $180 $303 $304 forward $53 $-1 #
coedge $-1 $182 $300 $305 $306 forward $183 $-1 #
coedge $-1 $187 $185 $307 $308 reversed $98 $-1 #
coedge $-1 $305 $309 $185 $253 forward $310 $-1 #
edge $-1 $311 -6.715053197856653 $254 13.778532934284057 $185 $312 forward 7 unknown #
vertex $-1 $186 $313 #
straight-curve $-1 -63.632312997833182 0 -13.778532934284057 0 1 0 I I #
coedge $-1 $314 $303 $187 $257 forward $234 $-1 #
edge $-1 $258 -3.5317398682137018 $315 3.5317398682137018 $187 $316 forward 7 unknown #
vertex $-1 $188 $317 #
straight-curve $-1 -63.632312997833182 0 13.778532934284057 0 -1 0 I I #
straight-curve $-1 -63.632312997833182 39.299900650036612 0 0 0 -1 I I #
point $-1 -63.632312997833182 -39.299900650036612 -13.778532934284057 #
straight-curve $-1 -63.632312997833182 0 -13.778532934284057 0 1 0 I I #
point $-1 -63.632312997833182 39.299900650036612 -13.778532934284057 #
loop $-1 $-1 $272 $207 #
plane-surface $-1 0 39.299900650036612 0 0 -1 0 0 0 -1 forward_v I I I I #
coedge $-1 $210 $209 $279 $318 forward $80 $-1 #
edge $-1 $229 -63.632312997833182 $282 63.632312997833182 $226 $319 forward 7 unknown #
coedge $-1 $273 $272 $210 $269 reversed $264 $-1 #
edge $-1 $320 -63.632312997833182 $270 63.632312997833182 $268 $321 forward 7 unknown #
vertex $-1 $211 $322 #
straight-curve $-1 63.632312997833182 0 -13.778532934284057 0 -1 0 I I #
coedge $-1 $268 $213 $215 $276 forward $264 $-1 #
coedge $-1 $213 $268 $220 $280 reversed $264 $-1 #
vertex $-1 $214 $323 #
straight-curve $-1 0 39.299900650036612 13.778532934284057 -1 0 0 I I #
edge $-1 $217 -13.778532934284057 $270 13.778532934284057 $215 $324 forward 7 unknown #
point $-1 63.632312997833182 -48.823904181206544 13.778532934284057 #
point $-1 63.632312997833182 39.299900650036612 13.778532934284057 #
coedge $-1 $222 $220 $266 $318 reversed $153 $-1 #
edge $-1 $274 -13.778532934284057 $320 13.778532934284057 $273 $325 forward 7 unknown #
straight-curve $-1 -63.632312997833182 0 13.778532934284057 0 -1 0 I I #
vertex $-1 $318 $326 #
straight-curve $-1 -63.632312997833182 -39.299900650036612 0 0 0 -1 I I #
point $-1 63.632312997833182 -39.299900650036612 -13.778532934284057 #
face $-1 $327 $310 $11 $-1 $328 reversed single #
plane-surface $-1 0 0 -13.778532934284057 0 0 1 1 0 0 forward_v I I I I #
coedge $-1 $307 $236 $314 $329 forward $170 $-1 #
coedge $-1 $236 $307 $309 $330 reversed $170 $-1 #
coedge $-1 $331 $332 $236 $290 reversed $333 $-1 #
edge $-1 $334 -4.7620017655849693 $335 4.7620017655849693 $289 $336 forward 7 unknown #
coedge $-1 $332 $337 $237 $292 reversed $333 $-1 #
edge $-1 $338 -48.823904181206544 $295 39.299900650036612 $291 $339 forward 7 unknown #
coedge $-1 $298 $238 $337 $340 forward $294 $-1 #
loop $-1 $-1 $242 $327 #
vertex $-1 $292 $341 #
straight-curve $-1 0 39.299900650036612 13.778532934284057 -1 0 0 I I #
point $-1 -56.326625095563699 39.299900650036605 13.778532934284057 #
coedge $-1 $242 $293 $244 $301 reversed $294 $-1 #
straight-curve $-1 -56.326625095563699 39.299900650036612 0 0 0 1 I I #
coedge $-1 $250 $244 $342 $343 forward $183 $-1 #
edge $-1 $245 -56.326625095563699 $344 63.632312997833182 $298 $345 forward 7 unknown #
point $-1 -56.326625095563699 39.299900650036605 -13.778532934284057 #
coedge $-1 $256 $346 $249 $304 reversed $234 $-1 #
edge $-1 $258 -63.632312997833182 $338 63.632312997833182 $303 $347 forward 7 unknown #
coedge $-1 $348 $252 $250 $306 reversed $310 $-1 #
edge $-1 $349 -63.632312997833182 $254 63.632312997833182 $305 $350 forward 7 unknown #
coedge $-1 $288 $287 $251 $308 forward $170 $-1 #
edge $-1 $315 -4.7620017655849693 $311 4.7620017655849693 $251 $351 forward 7 unknown #
coedge $-1 $252 $348 $288 $330 forward $310 $-1 #
loop $-1 $-1 $309 $285 #
vertex $-1 $253 $352 #
straight-curve $-1 -63.632312997833182 -39.299900650036612 0 0 0 -1 I I #
point $-1 -63.632312997833182 -39.299900650036612 -13.778532934284057 #
coedge $-1 $346 $256 $287 $329 reversed $234 $-1 #
vertex $-1 $308 $353 #
straight-curve $-1 -63.632312997833182 -48.823904181206544 10.246793066070355 0 0 -1 I I #
point $-1 -63.632312997833182 -48.823904181206544 13.778532934284057 #
edge $-1 $282 -39.299900650036612 $320 39.299900650036612 $279 $354 forward 7 unknown #
straight-curve $-1 0 -39.299900650036612 -13.778532934284057 -1 0 0 I I #
vertex $-1 $269 $355 #
straight-curve $-1 0 39.299900650036612 -13.778532934284057 1 0 0 I I #
point $-1 63.632312997833182 39.299900650036612 -13.778532934284057 #
point $-1 -63.632312997833182 39.299900650036612 13.778532934284057 #
straight-curve $-1 63.632312997833182 39.299900650036612 0 0 0 -1 I I #
straight-curve $-1 -63.632312997833182 39.299900650036612 0 0 0 -1 I I #
point $-1 -63.632312997833182 -39.299900650036612 -13.778532934284057 #
face $-1 $356 $294 $11 $-1 $357 reversed single #
plane-surface $-1 0 -39.299900650036612 0 0 1 0 0 0 1 forward_v I I I I #
edge $-1 $335 -63.632312997833182 $315 63.632312997833182 $314 $358 forward 7 unknown #
edge $-1 $334 -63.632312997833182 $311 63.632312997833182 $309 $359 forward 7 unknown #
coedge $-1 $342 $289 $348 $360 forward $333 $-1 #
coedge $-1 $289 $291 $346 $361 forward $333 $-1 #
loop $-1 $-1 $331 $356 #
vertex $-1 $360 $362 #
vertex $-1 $361 $363 #
straight-curve $-1 63.632312997833182 -44.061902415621574 6.715053197856653 0 -1 0 I I #
coedge $-1 $291 $342 $293 $340 reversed $333 $-1 #
vertex $-1 $292 $364 #
straight-curve $-1 63.632312997833182 0 13.778532934284057 0 1 0 I I #
edge $-1 $295 -13.778532934284057 $344 13.778532934284057 $337 $365 forward 7 unknown #
point $-1 63.632312997833182 39.299900650036612 13.778532934284057 #
coedge $-1 $337 $331 $300 $343 reversed $333 $-1 #
edge $-1 $344 -39.299900650036612 $349 39.299900650036612 $342 $366 forward 7 unknown #
vertex $-1 $343 $367 #
straight-curve $-1 0 39.299900650036612 -13.778532934284057 1 0 0 I I #
coedge $-1 $303 $314 $332 $361 reversed $234 $-1 #
straight-curve $-1 0 -48.823904181206544 13.778532934284057 1 0 0 I I #
coedge $-1 $309 $305 $331 $360 reversed $310 $-1 #
vertex $-1 $360 $368 #
straight-curve $-1 0 -39.299900650036612 -13.778532934284057 -1 0 0 I I #
straight-curve $-1 -63.632312997833182 -44.061902415621574 6.715053197856653 0 1 0 I I #
point $-1 -63.632312997833182 -39.299900650036605 6.715053197856653 #
point $-1 -63.632312997833182 -48.823904181206544 6.715053197856653 #
straight-curve $-1 -63.632312997833182 0 -13.778532934284057 0 1 0 I I #
point $-1 -63.632312997833182 39.299900650036612 -13.778532934284057 #
face $-1 $-1 $333 $11 $-1 $369 reversed single #
plane-surface $-1 0 39.299900650036612 0 0 -1 0 0 0 -1 forward_v I I I I #
straight-curve $-1 0 -48.823904181206544 6.715053197856653 -1 0 0 I I #
straight-curve $-1 0 -39.299900650036612 6.715053197856653 -1 0 0 I I #
edge $-1 $334 -6.715053197856653 $349 13.778532934284057 $331 $370 forward 7 unknown #
edge $-1 $338 -3.5317398682137018 $335 3.5317398682137018 $332 $371 forward 7 unknown #
point $-1 63.632312997833182 -39.299900650036605 6.715053197856653 #
point $-1 63.632312997833182 -48.823904181206544 6.715053197856653 #
point $-1 63.632312997833182 -48.823904181206544 13.778532934284057 #
straight-curve $-1 63.632312997833182 39.299900650036612 0 0 0 -1 I I #
straight-curve $-1 63.632312997833182 0 -13.778532934284057 0 -1 0 I I #
point $-1 63.632312997833182 39.299900650036612 -13.778532934284057 #
point $-1 63.632312997833182 -39.299900650036612 -13.778532934284057 #
plane-surface $-1 63.632312997833182 0 0 -1 0 0 0 0 1 forward_v I I I I #
straight-curve $-1 63.632312997833182 -39.299900650036612 0 0 0 -1 I I #
straight-curve $-1 63.632312997833182 -48.823904181206544 10.246793066070355 0 0 -1 I I #
End-of-ACIS-data 