500 0 9 0           
7 Unknown 11 ACIS 5.0 NT 24 Fri Mar 26 17:52:58 1999 
-1 9.9999999999999995e-007 1e-010 
body $-1 $9 $-1 $10 #
body $-1 $11 $-1 $12 #
body $-1 $13 $-1 $14 #
body $-1 $15 $-1 $16 #
body $-1 $17 $-1 $18 #
body $-1 $19 $-1 $20 #
body $-1 $21 $-1 $22 #
body $-1 $23 $-1 $24 #
body $-1 $25 $-1 $26 #
lump $-1 $-1 $27 $0 #
transform $-1 1 0 0 0 1 0 0 0 1 53.846858119449443 36.698424211918116 14.879398328349161 1 rotate no_reflect no_shear #
lump $-1 $-1 $28 $1 #
transform $-1 1 0 0 0 1 0 0 0 1 53.846858119449443 36.698424211918116 14.879398328349161 1 rotate no_reflect no_shear #
lump $-1 $-1 $29 $2 #
transform $-1 1 0 0 0 1 0 0 0 1 53.846858119449443 36.698424211918116 14.879398328349161 1 rotate no_reflect no_shear #
lump $-1 $-1 $30 $3 #
transform $-1 1 0 0 0 1 0 0 0 1 53.846858119449443 36.698424211918116 14.879398328349161 1 rotate no_reflect no_shear #
lump $-1 $-1 $31 $4 #
transform $-1 1 0 0 0 1 0 0 0 1 53.846858119449443 36.698424211918116 14.879398328349161 1 rotate no_reflect no_shear #
lump $-1 $-1 $32 $5 #
transform $-1 1 0 0 0 1 0 0 0 1 53.846858119449443 36.698424211918116 14.879398328349161 1 rotate no_reflect no_shear #
lump $-1 $-1 $33 $6 #
transform $-1 1 0 0 0 1 0 0 0 1 53.846858119449443 36.698424211918116 14.879398328349161 1 rotate no_reflect no_shear #
lump $-1 $-1 $34 $7 #
transform $-1 1 0 0 0 1 0 0 0 1 53.846858119449443 36.698424211918116 14.879398328349161 1 rotate no_reflect no_shear #
lump $-1 $-1 $35 $8 #
transform $-1 1 0 0 0 1 0 0 0 1 53.846858119449443 36.698424211918116 14.879398328349161 1 rotate no_reflect no_shear #
shell $-1 $-1 $-1 $36 $-1 $9 #
shell $-1 $-1 $-1 $37 $-1 $11 #
shell $-1 $-1 $-1 $38 $-1 $13 #
shell $-1 $-1 $-1 $39 $-1 $15 #
shell $-1 $-1 $-1 $40 $-1 $17 #
shell $-1 $-1 $-1 $41 $-1 $19 #
shell $-1 $-1 $-1 $42 $-1 $21 #
shell $-1 $-1 $-1 $43 $-1 $23 #
shell $-1 $-1 $-1 $44 $-1 $25 #
face $-1 $45 $46 $27 $-1 $47 forward single #
face $-1 $48 $49 $28 $-1 $50 reversed single #
face $-1 $51 $52 $29 $-1 $53 forward single #
face $-1 $54 $55 $30 $-1 $56 reversed single #
face $-1 $57 $58 $31 $-1 $59 forward single #
face $-1 $60 $61 $32 $-1 $62 reversed single #
face $-1 $63 $64 $33 $-1 $65 forward single #
face $-1 $66 $67 $34 $-1 $68 reversed single #
face $-1 $69 $70 $35 $-1 $71 forward single #
face $-1 $72 $73 $27 $-1 $74 reversed single #
loop $-1 $-1 $75 $36 #
plane-surface $-1 0 0 14.879398328349161 0 0 1 1 0 0 forward_v I I I I #
face $-1 $76 $77 $28 $-1 $78 reversed single #
loop $-1 $-1 $79 $37 #
plane-surface $-1 -30.709552417797987 -117.97590447983552 80.364833853461533 -1 0 0 0 -0.75470958851134928 0.65605901945558964 forward_v I I I I #
face $-1 $80 $81 $29 $-1 $82 forward single #
loop $-1 $83 $84 $38 #
cone-surface $-1 -39.901413392200112 -33.79287378607706 11.722266016925014 0 0.75470958851134928 -0.65605901945558964 1.5 0 0 1 I I 0 1 1.5 forward I I I I #
face $-1 $85 $86 $30 $-1 $87 reversed single #
loop $-1 $-1 $88 $39 #
plane-surface $-1 -3.7861233580732687 -117.97590447983552 80.364833853461533 -1 0 0 0 -0.75470958851134928 0.65605901945558964 forward_v I I I I #
face $-1 $89 $90 $31 $-1 $91 forward single #
loop $-1 $92 $93 $40 #
cone-surface $-1 -12.977984332475394 -33.79287378607706 11.722266016925014 0 0.75470958851134928 -0.65605901945558964 1.5 0 0 1 I I 0 1 1.5 forward I I I I #
face $-1 $94 $95 $32 $-1 $96 reversed single #
loop $-1 $-1 $97 $41 #
plane-surface $-1 23.137305701651457 -117.97590447983552 80.364833853461533 -1 0 0 0 -0.75470958851134928 0.65605901945558964 forward_v I I I I #
face $-1 $98 $99 $33 $-1 $100 forward single #
loop $-1 $101 $102 $42 #
cone-surface $-1 13.945444727249331 -33.79287378607706 11.722266016925014 0 0.75470958851134928 -0.65605901945558964 1.5 0 0 1 I I 0 1 1.5 forward I I I I #
face $-1 $103 $104 $34 $-1 $105 reversed single #
loop $-1 $-1 $106 $43 #
plane-surface $-1 50.060734761376182 -117.97590447983552 80.364833853461533 -1 0 0 0 -0.75470958851134928 0.65605901945558964 forward_v I I I I #
face $-1 $107 $108 $35 $-1 $109 forward single #
loop $-1 $110 $111 $44 #
cone-surface $-1 40.868873786974056 -33.79287378607706 11.722266016925014 0 0.75470958851134928 -0.65605901945558964 1.5 0 0 1 I I 0 1 1.5 forward I I I I #
face $-1 $112 $113 $27 $-1 $114 reversed single #
loop $-1 $-1 $115 $45 #
plane-surface $-1 0 0 -14.879398328349161 0 0 1 1 0 0 forward_v I I I I #
coedge $-1 $116 $117 $118 $119 forward $46 $-1 #
face $-1 $120 $121 $28 $-1 $122 reversed single #
loop $-1 $-1 $123 $48 #
plane-surface $-1 -39.901413392200112 -36.698424211918137 9.7113999762410259 0 -0.75470958851134928 0.65605901945558964 1 0 0 forward_v I I I I #
coedge $-1 $124 $125 $126 $127 reversed $49 $-1 #
face $-1 $-1 $128 $29 $-1 $129 forward single #
loop $-1 $130 $131 $51 #
cone-surface $-1 -39.901413392200112 -32.567527325809166 10.65708861696325 0 0.75470958851134928 -0.65605901945558964 0.75 0 0 1 I I -0.70710678118654757 0.70710678118654757 0.75 forward I I I I #
loop $-1 $-1 $132 $38 #
coedge $-1 $84 $84 $133 $134 reversed $52 $-1 #
face $-1 $135 $136 $30 $-1 $137 reversed single #
loop $-1 $-1 $138 $54 #
plane-surface $-1 -12.977984332475394 -36.698424211918137 9.7113999762410259 0 -0.75470958851134928 0.65605901945558964 1 0 0 forward_v I I I I #
coedge $-1 $139 $140 $141 $142 reversed $55 $-1 #
face $-1 $-1 $143 $31 $-1 $144 forward single #
loop $-1 $145 $146 $57 #
cone-surface $-1 -12.977984332475394 -32.567527325809166 10.65708861696325 0 0.75470958851134928 -0.65605901945558964 0.75 0 0 1 I I -0.70710678118654757 0.70710678118654757 0.75 forward I I I I #
loop $-1 $-1 $147 $40 #
coedge $-1 $93 $93 $148 $149 reversed $58 $-1 #
face $-1 $150 $151 $32 $-1 $152 reversed single #
loop $-1 $-1 $153 $60 #
plane-surface $-1 13.945444727249331 -36.698424211918137 9.7113999762410259 0 -0.75470958851134928 0.65605901945558964 1 0 0 forward_v I I I I #
coedge $-1 $154 $155 $156 $157 reversed $61 $-1 #
face $-1 $-1 $158 $33 $-1 $159 forward single #
loop $-1 $160 $161 $63 #
cone-surface $-1 13.945444727249331 -32.567527325809166 10.65708861696325 0 0.75470958851134928 -0.65605901945558964 0.75 0 0 1 I I -0.70710678118654757 0.70710678118654757 0.75 forward I I I I #
loop $-1 $-1 $162 $42 #
coedge $-1 $102 $102 $163 $164 reversed $64 $-1 #
face $-1 $165 $166 $34 $-1 $167 reversed single #
loop $-1 $-1 $168 $66 #
plane-surface $-1 40.868873786974056 -36.698424211918137 9.7113999762410259 0 -0.75470958851134928 0.65605901945558964 1 0 0 forward_v I I I I #
coedge $-1 $169 $170 $171 $172 reversed $67 $-1 #
face $-1 $-1 $173 $35 $-1 $174 forward single #
loop $-1 $175 $176 $69 #
cone-surface $-1 40.868873786974056 -32.567527325809166 10.65708861696325 0 0.75470958851134928 -0.65605901945558964 0.75 0 0 1 I I -0.70710678118654757 0.70710678118654757 0.75 forward I I I I #
loop $-1 $-1 $177 $44 #
coedge $-1 $111 $111 $178 $179 reversed $70 $-1 #
face $-1 $180 $181 $27 $-1 $182 reversed single #
loop $-1 $-1 $183 $72 #
plane-surface $-1 0 -36.698424211918116 0 0 1 0 0 0 1 forward_v I I I I #
coedge $-1 $184 $185 $186 $187 forward $73 $-1 #
coedge $-1 $188 $75 $189 $190 forward $46 $-1 #
coedge $-1 $75 $188 $191 $192 forward $46 $-1 #
coedge $-1 $193 $194 $75 $119 reversed $195 $-1 #
edge $-1 $196 -36.698424211918116 $197 36.698424211918116 $118 $198 forward 7 unknown #
face $-1 $199 $200 $28 $-1 $201 reversed single #
loop $-1 $-1 $202 $76 #
plane-surface $-1 -49.093274366602238 -117.97590447983552 80.364833853461533 1 0 0 0 0.75470958851134928 -0.65605901945558964 forward_v I I I I #
coedge $-1 $203 $204 $205 $206 reversed $77 $-1 #
coedge $-1 $125 $79 $207 $208 reversed $49 $-1 #
coedge $-1 $79 $124 $203 $209 reversed $49 $-1 #
coedge $-1 $205 $210 $79 $127 forward $211 $-1 #
edge $-1 $212 22.289528027999644 $213 26.782000341912962 $126 $214 forward 7 unknown #
loop $-1 $-1 $133 $80 #
plane-surface $-1 -39.901413392200112 -36.698424211918137 9.7113999762410259 0 -0.75470958851134928 0.65605901945558964 1 0 0 forward_v I I I I #
loop $-1 $-1 $215 $51 #
coedge $-1 $131 $131 $132 $216 reversed $81 $-1 #
coedge $-1 $132 $132 $131 $216 forward $83 $-1 #
coedge $-1 $133 $133 $84 $134 forward $128 $-1 #
edge $-1 $217 1.2793581742027666e-015 $217 6.2831853071796013 $133 $218 forward 7 unknown #
face $-1 $219 $220 $30 $-1 $221 reversed single #
loop $-1 $-1 $222 $85 #
plane-surface $-1 -22.169845306877519 -117.97590447983552 80.364833853461533 1 0 0 0 0.75470958851134928 -0.65605901945558964 forward_v I I I I #
coedge $-1 $223 $224 $225 $226 reversed $86 $-1 #
coedge $-1 $140 $88 $227 $228 reversed $55 $-1 #
coedge $-1 $88 $139 $223 $229 reversed $55 $-1 #
coedge $-1 $225 $230 $88 $142 forward $231 $-1 #
edge $-1 $232 22.289528027999644 $233 26.782000341912962 $141 $234 forward 7 unknown #
loop $-1 $-1 $148 $89 #
plane-surface $-1 -12.977984332475394 -36.698424211918137 9.7113999762410259 0 -0.75470958851134928 0.65605901945558964 1 0 0 forward_v I I I I #
loop $-1 $-1 $235 $57 #
coedge $-1 $146 $146 $147 $236 reversed $90 $-1 #
coedge $-1 $147 $147 $146 $236 forward $92 $-1 #
coedge $-1 $148 $148 $93 $149 forward $143 $-1 #
edge $-1 $237 1.2793581742027666e-015 $237 6.2831853071796013 $148 $238 forward 7 unknown #
face $-1 $239 $240 $32 $-1 $241 reversed single #
loop $-1 $-1 $242 $94 #
plane-surface $-1 4.7535837528472058 -117.97590447983552 80.364833853461533 1 0 0 0 0.75470958851134928 -0.65605901945558964 forward_v I I I I #
coedge $-1 $243 $244 $245 $246 reversed $95 $-1 #
coedge $-1 $155 $97 $247 $248 reversed $61 $-1 #
coedge $-1 $97 $154 $243 $249 reversed $61 $-1 #
coedge $-1 $245 $250 $97 $157 forward $251 $-1 #
edge $-1 $252 22.289528027999644 $253 26.782000341912962 $156 $254 forward 7 unknown #
loop $-1 $-1 $163 $98 #
plane-surface $-1 13.945444727249331 -36.698424211918137 9.7113999762410259 0 -0.75470958851134928 0.65605901945558964 1 0 0 forward_v I I I I #
loop $-1 $-1 $255 $63 #
coedge $-1 $161 $161 $162 $256 reversed $99 $-1 #
coedge $-1 $162 $162 $161 $256 forward $101 $-1 #
coedge $-1 $163 $163 $102 $164 forward $158 $-1 #
edge $-1 $257 1.2793581742027666e-015 $257 6.2831853071796013 $163 $258 forward 7 unknown #
face $-1 $259 $260 $34 $-1 $261 reversed single #
loop $-1 $-1 $262 $103 #
plane-surface $-1 31.677012812571931 -117.97590447983552 80.364833853461533 1 0 0 0 0.75470958851134928 -0.65605901945558964 forward_v I I I I #
coedge $-1 $263 $264 $265 $266 reversed $104 $-1 #
coedge $-1 $170 $106 $267 $268 reversed $67 $-1 #
coedge $-1 $106 $169 $263 $269 reversed $67 $-1 #
coedge $-1 $265 $270 $106 $172 forward $271 $-1 #
edge $-1 $272 22.289528027999644 $273 26.782000341912962 $171 $274 forward 7 unknown #
loop $-1 $-1 $178 $107 #
plane-surface $-1 40.868873786974056 -36.698424211918137 9.7113999762410259 0 -0.75470958851134928 0.65605901945558964 1 0 0 forward_v I I I I #
loop $-1 $-1 $275 $69 #
coedge $-1 $176 $176 $177 $276 reversed $108 $-1 #
coedge $-1 $177 $177 $176 $276 forward $110 $-1 #
coedge $-1 $178 $178 $111 $179 forward $173 $-1 #
edge $-1 $277 1.2793581742027666e-015 $277 6.2831853071796013 $178 $278 forward 7 unknown #
face $-1 $279 $280 $27 $-1 $281 reversed single #
loop $-1 $-1 $282 $112 #
plane-surface $-1 -53.846858119449443 0 0 1 0 0 0 0 -1 forward_v I I I I #
coedge $-1 $283 $191 $284 $285 forward $113 $-1 #
coedge $-1 $286 $115 $283 $287 forward $73 $-1 #
coedge $-1 $115 $286 $288 $289 forward $73 $-1 #
coedge $-1 $194 $193 $115 $187 reversed $195 $-1 #
edge $-1 $290 -36.698424211918116 $291 36.698424211918116 $186 $292 forward 7 unknown #
coedge $-1 $117 $116 $293 $294 forward $46 $-1 #
coedge $-1 $295 $296 $116 $190 reversed $280 $-1 #
edge $-1 $197 -53.846858119449443 $297 53.846858119449443 $189 $298 forward 7 unknown #
coedge $-1 $183 $299 $117 $192 reversed $113 $-1 #
edge $-1 $300 -53.846858119449443 $196 53.846858119449443 $191 $301 forward 7 unknown #
coedge $-1 $186 $118 $299 $302 forward $195 $-1 #
coedge $-1 $118 $186 $295 $303 reversed $195 $-1 #
loop $-1 $-1 $193 $279 #
vertex $-1 $119 $304 #
vertex $-1 $119 $305 #
straight-curve $-1 53.846858119449443 0 14.879398328349161 0 1 0 I I #
face $-1 $-1 $211 $28 $-1 $306 forward single #
loop $-1 $-1 $307 $120 #
plane-surface $-1 0 -36.698424211918116 0 0 1 0 0 0 1 forward_v I I I I #
coedge $-1 $308 $309 $310 $311 reversed $121 $-1 #
coedge $-1 $312 $123 $125 $209 forward $77 $-1 #
coedge $-1 $123 $312 $308 $313 forward $77 $-1 #
coedge $-1 $310 $126 $123 $206 forward $211 $-1 #
edge $-1 $213 10.758845721697931 $314 29.142567670502181 $205 $315 forward 7 unknown #
coedge $-1 $316 $317 $124 $208 forward $200 $-1 #
edge $-1 $318 -30.471016950489716 $212 -25.303018598381605 $207 $319 forward 7 unknown #
edge $-1 $213 -6.847664890944233 $318 -3.2753608665505091e-014 $125 $320 forward 7 unknown #
coedge $-1 $126 $310 $316 $321 forward $211 $-1 #
loop $-1 $-1 $310 $199 #
vertex $-1 $208 $322 #
vertex $-1 $127 $323 #
straight-curve $-1 -30.709552417797987 -58.98795223991776 14.879398328349161 0 1 0 I I #
coedge $-1 $215 $215 $-1 $324 reversed $130 $-1 #
edge $-1 $325 0 $325 6.2831853071796004 $131 $326 forward 7 unknown #
vertex $-1 $134 $327 #
ellipse-curve $-1 -39.901413392200112 -34.452188054961461 12.295399152295101 0 -0.75470958851134928 0.65605901945558964 1.5 0 0 1 I I #
face $-1 $-1 $231 $30 $-1 $328 forward single #
loop $-1 $-1 $329 $135 #
plane-surface $-1 0 -36.698424211918116 0 0 1 0 0 0 1 forward_v I I I I #
coedge $-1 $330 $331 $332 $333 reversed $136 $-1 #
coedge $-1 $334 $138 $140 $229 forward $86 $-1 #
coedge $-1 $138 $334 $330 $335 forward $86 $-1 #
coedge $-1 $332 $141 $138 $226 forward $231 $-1 #
edge $-1 $233 -2.7028688081644283 $336 15.680853140639822 $225 $337 forward 7 unknown #
coedge $-1 $338 $339 $139 $228 forward $220 $-1 #
edge $-1 $340 -30.471016950489716 $232 -25.303018598381605 $227 $341 forward 7 unknown #
edge $-1 $233 -6.847664890944233 $340 -3.2753608665505091e-014 $140 $342 forward 7 unknown #
coedge $-1 $141 $332 $338 $343 forward $231 $-1 #
loop $-1 $-1 $332 $219 #
vertex $-1 $228 $344 #
vertex $-1 $142 $345 #
straight-curve $-1 -3.7861233580732687 -58.98795223991776 14.879398328349161 0 1 0 I I #
coedge $-1 $235 $235 $-1 $346 reversed $145 $-1 #
edge $-1 $347 0 $347 6.2831853071796004 $146 $348 forward 7 unknown #
vertex $-1 $149 $349 #
ellipse-curve $-1 -12.977984332475394 -34.452188054961461 12.295399152295101 0 -0.75470958851134928 0.65605901945558964 1.5 0 0 1 I I #
face $-1 $-1 $251 $32 $-1 $350 forward single #
loop $-1 $-1 $351 $150 #
plane-surface $-1 0 -36.698424211918116 0 0 1 0 0 0 1 forward_v I I I I #
coedge $-1 $352 $353 $354 $355 reversed $151 $-1 #
coedge $-1 $356 $153 $155 $249 forward $95 $-1 #
coedge $-1 $153 $356 $352 $357 forward $95 $-1 #
coedge $-1 $354 $156 $153 $246 forward $251 $-1 #
edge $-1 $253 -16.164583338026791 $358 2.2191386107774598 $245 $359 forward 7 unknown #
coedge $-1 $360 $361 $154 $248 forward $240 $-1 #
edge $-1 $362 -30.471016950489716 $252 -25.303018598381605 $247 $363 forward 7 unknown #
edge $-1 $253 -6.847664890944233 $362 -3.2753608665505091e-014 $155 $364 forward 7 unknown #
coedge $-1 $156 $354 $360 $365 forward $251 $-1 #
loop $-1 $-1 $354 $239 #
vertex $-1 $248 $366 #
vertex $-1 $157 $367 #
straight-curve $-1 23.137305701651457 -58.98795223991776 14.879398328349161 0 1 0 I I #
coedge $-1 $255 $255 $-1 $368 reversed $160 $-1 #
edge $-1 $369 0 $369 6.2831853071796004 $161 $370 forward 7 unknown #
vertex $-1 $164 $371 #
ellipse-curve $-1 13.945444727249331 -34.452188054961461 12.295399152295101 0 -0.75470958851134928 0.65605901945558964 1.5 0 0 1 I I #
face $-1 $-1 $271 $34 $-1 $372 forward single #
loop $-1 $-1 $373 $165 #
plane-surface $-1 0 -36.698424211918116 0 0 1 0 0 0 1 forward_v I I I I #
coedge $-1 $374 $375 $376 $377 reversed $166 $-1 #
coedge $-1 $378 $168 $170 $269 forward $104 $-1 #
coedge $-1 $168 $378 $374 $379 forward $104 $-1 #
coedge $-1 $376 $171 $168 $266 forward $271 $-1 #
edge $-1 $273 -29.626297867889154 $380 -11.242575919084903 $265 $381 forward 7 unknown #
coedge $-1 $382 $383 $169 $268 forward $260 $-1 #
edge $-1 $384 -30.471016950489716 $272 -25.303018598381605 $267 $385 forward 7 unknown #
edge $-1 $273 -6.847664890944233 $384 -3.2753608665505091e-014 $170 $386 forward 7 unknown #
coedge $-1 $171 $376 $382 $387 forward $271 $-1 #
loop $-1 $-1 $376 $259 #
vertex $-1 $268 $388 #
vertex $-1 $172 $389 #
straight-curve $-1 50.060734761376182 -58.98795223991776 14.879398328349161 0 1 0 I I #
coedge $-1 $275 $275 $-1 $390 reversed $175 $-1 #
edge $-1 $391 0 $391 6.2831853071796004 $176 $392 forward 7 unknown #
vertex $-1 $179 $393 #
ellipse-curve $-1 40.868873786974056 -34.452188054961461 12.295399152295101 0 -0.75470958851134928 0.65605901945558964 1.5 0 0 1 I I #
face $-1 $-1 $195 $27 $-1 $394 reversed single #
loop $-1 $-1 $295 $180 #
plane-surface $-1 0 36.698424211918116 0 0 -1 0 0 0 -1 forward_v I I I I #
coedge $-1 $395 $293 $296 $396 forward $181 $-1 #
coedge $-1 $299 $183 $184 $287 reversed $113 $-1 #
coedge $-1 $293 $395 $183 $285 reversed $181 $-1 #
edge $-1 $300 -14.879398328349161 $397 14.879398328349161 $284 $398 forward 7 unknown #
coedge $-1 $185 $184 $395 $399 forward $73 $-1 #
edge $-1 $291 -53.846858119449443 $397 53.846858119449443 $283 $400 forward 7 unknown #
coedge $-1 $296 $295 $185 $289 reversed $280 $-1 #
edge $-1 $401 -53.846858119449443 $290 53.846858119449443 $288 $402 forward 7 unknown #
vertex $-1 $187 $403 #
vertex $-1 $302 $404 #
straight-curve $-1 53.846858119449443 0 -14.879398328349161 0 -1 0 I I #
coedge $-1 $282 $284 $188 $294 reversed $181 $-1 #
edge $-1 $297 -36.698424211918116 $300 36.698424211918116 $293 $405 forward 7 unknown #
coedge $-1 $288 $189 $194 $303 forward $280 $-1 #
coedge $-1 $189 $288 $282 $396 reversed $280 $-1 #
vertex $-1 $190 $406 #
straight-curve $-1 0 36.698424211918116 14.879398328349161 -1 0 0 I I #
coedge $-1 $191 $283 $193 $302 reversed $113 $-1 #
vertex $-1 $294 $407 #
straight-curve $-1 0 -36.698424211918116 14.879398328349161 1 0 0 I I #
edge $-1 $196 -14.879398328349161 $291 14.879398328349161 $193 $408 forward 7 unknown #
edge $-1 $197 -14.879398328349161 $290 14.879398328349161 $194 $409 forward 7 unknown #
point $-1 53.846858119449443 -36.698424211918116 14.879398328349161 #
point $-1 53.846858119449443 36.698424211918116 14.879398328349161 #
plane-surface $-1 0 0 14.879398328349161 0 0 1 1 0 0 forward_v I I I I #
coedge $-1 $317 $316 $309 $410 forward $200 $-1 #
coedge $-1 $309 $202 $204 $313 reversed $121 $-1 #
coedge $-1 $202 $308 $307 $410 reversed $121 $-1 #
coedge $-1 $210 $205 $202 $311 forward $211 $-1 #
edge $-1 $314 -26.782000341912962 $411 -22.289528027999644 $310 $412 forward 7 unknown #
coedge $-1 $204 $203 $317 $413 reversed $77 $-1 #
edge $-1 $414 3.2753608665505091e-014 $314 6.847664890944233 $308 $415 forward 7 unknown #
vertex $-1 $206 $416 #
straight-curve $-1 -19.950706696100056 -32.205951898004798 14.879398328349161 -1 0 0 I I #
coedge $-1 $307 $207 $210 $321 reversed $200 $-1 #
coedge $-1 $207 $307 $312 $413 forward $200 $-1 #
vertex $-1 $208 $417 #
straight-curve $-1 -30.709552417797987 -36.698424211918116 40.182416926730767 0 0 1 I I #
straight-curve $-1 -30.709552417797987 -36.698424211918137 9.7113999762410259 0 -0.65605901945558964 -0.75470958851134928 I I #
edge $-1 $411 -49.093274366602238 $212 -30.709552417797987 $316 $418 forward 7 unknown #
point $-1 -30.709552417797987 -36.698424211918116 14.879398328349161 #
point $-1 -30.709552417797987 -32.205951898004798 14.879398328349161 #
edge $-1 $419 1 $419 0 $215 $-1 forward 7 unknown #
vertex $-1 $216 $420 #
ellipse-curve $-1 -39.901413392200112 -33.13355951719268 11.149132881554943 0 -0.75470958851134928 0.65605901945558964 1.5 0 0 1 I I #
point $-1 -38.401413392200112 -34.452188054961439 12.295399152295085 #
plane-surface $-1 0 0 14.879398328349161 0 0 1 1 0 0 forward_v I I I I #
coedge $-1 $339 $338 $331 $421 forward $220 $-1 #
coedge $-1 $331 $222 $224 $335 reversed $136 $-1 #
coedge $-1 $222 $330 $329 $421 reversed $136 $-1 #
coedge $-1 $230 $225 $222 $333 forward $231 $-1 #
edge $-1 $336 -26.782000341912962 $422 -22.289528027999644 $332 $423 forward 7 unknown #
coedge $-1 $224 $223 $339 $424 reversed $86 $-1 #
edge $-1 $425 3.2753608665505091e-014 $336 6.847664890944233 $330 $426 forward 7 unknown #
vertex $-1 $226 $427 #
straight-curve $-1 -6.488992166237697 -32.205951898004798 14.879398328349161 -1 0 0 I I #
coedge $-1 $329 $227 $230 $343 reversed $220 $-1 #
coedge $-1 $227 $329 $334 $424 forward $220 $-1 #
vertex $-1 $228 $428 #
straight-curve $-1 -3.7861233580732687 -36.698424211918116 40.182416926730767 0 0 1 I I #
straight-curve $-1 -3.7861233580732687 -36.698424211918137 9.7113999762410259 0 -0.65605901945558964 -0.75470958851134928 I I #
edge $-1 $422 -22.169845306877519 $232 -3.7861233580732687 $338 $429 forward 7 unknown #
point $-1 -3.7861233580732687 -36.698424211918116 14.879398328349161 #
point $-1 -3.7861233580732687 -32.205951898004798 14.879398328349161 #
edge $-1 $430 1 $430 0 $235 $-1 forward 7 unknown #
vertex $-1 $236 $431 #
ellipse-curve $-1 -12.977984332475394 -33.13355951719268 11.149132881554943 0 -0.75470958851134928 0.65605901945558964 1.5 0 0 1 I I #
point $-1 -11.477984332475394 -34.452188054961439 12.295399152295085 #
plane-surface $-1 0 0 14.879398328349161 0 0 1 1 0 0 forward_v I I I I #
coedge $-1 $361 $360 $353 $432 forward $240 $-1 #
coedge $-1 $353 $242 $244 $357 reversed $151 $-1 #
coedge $-1 $242 $352 $351 $432 reversed $151 $-1 #
coedge $-1 $250 $245 $242 $355 forward $251 $-1 #
edge $-1 $358 -26.782000341912962 $433 -22.289528027999644 $354 $434 forward 7 unknown #
coedge $-1 $244 $243 $361 $435 reversed $95 $-1 #
edge $-1 $436 3.2753608665505091e-014 $358 6.847664890944233 $352 $437 forward 7 unknown #
vertex $-1 $246 $438 #
straight-curve $-1 6.9727223636246656 -32.205951898004798 14.879398328349161 -1 0 0 I I #
coedge $-1 $351 $247 $250 $365 reversed $240 $-1 #
coedge $-1 $247 $351 $356 $435 forward $240 $-1 #
vertex $-1 $248 $439 #
straight-curve $-1 23.137305701651457 -36.698424211918116 40.182416926730767 0 0 1 I I #
straight-curve $-1 23.137305701651457 -36.698424211918137 9.7113999762410259 0 -0.65605901945558964 -0.75470958851134928 I I #
edge $-1 $433 4.7535837528472058 $252 23.137305701651457 $360 $440 forward 7 unknown #
point $-1 23.137305701651457 -36.698424211918116 14.879398328349161 #
point $-1 23.137305701651457 -32.205951898004798 14.879398328349161 #
edge $-1 $441 1 $441 0 $255 $-1 forward 7 unknown #
vertex $-1 $256 $442 #
ellipse-curve $-1 13.945444727249331 -33.13355951719268 11.149132881554943 0 -0.75470958851134928 0.65605901945558964 1.5 0 0 1 I I #
point $-1 15.445444727249331 -34.452188054961439 12.295399152295085 #
plane-surface $-1 0 0 14.879398328349161 0 0 1 1 0 0 forward_v I I I I #
coedge $-1 $383 $382 $375 $443 forward $260 $-1 #
coedge $-1 $375 $262 $264 $379 reversed $166 $-1 #
coedge $-1 $262 $374 $373 $443 reversed $166 $-1 #
coedge $-1 $270 $265 $262 $377 forward $271 $-1 #
edge $-1 $380 -26.782000341912962 $444 -22.289528027999644 $376 $445 forward 7 unknown #
coedge $-1 $264 $263 $383 $446 reversed $104 $-1 #
edge $-1 $447 3.2753608665505091e-014 $380 6.847664890944233 $374 $448 forward 7 unknown #
vertex $-1 $266 $449 #
straight-curve $-1 20.434436893487028 -32.205951898004798 14.879398328349161 -1 0 0 I I #
coedge $-1 $373 $267 $270 $387 reversed $260 $-1 #
coedge $-1 $267 $373 $378 $446 forward $260 $-1 #
vertex $-1 $268 $450 #
straight-curve $-1 50.060734761376182 -36.698424211918116 40.182416926730767 0 0 1 I I #
straight-curve $-1 50.060734761376182 -36.698424211918137 9.7113999762410259 0 -0.65605901945558964 -0.75470958851134928 I I #
edge $-1 $444 31.677012812571931 $272 50.060734761376182 $382 $451 forward 7 unknown #
point $-1 50.060734761376182 -36.698424211918116 14.879398328349161 #
point $-1 50.060734761376182 -32.205951898004798 14.879398328349161 #
edge $-1 $452 1 $452 0 $275 $-1 forward 7 unknown #
vertex $-1 $276 $453 #
ellipse-curve $-1 40.868873786974056 -33.13355951719268 11.149132881554943 0 -0.75470958851134928 0.65605901945558964 1.5 0 0 1 I I #
point $-1 42.368873786974056 -34.452188054961439 12.295399152295085 #
plane-surface $-1 53.846858119449443 0 0 -1 0 0 0 0 1 forward_v I I I I #
coedge $-1 $284 $282 $286 $399 reversed $181 $-1 #
edge $-1 $297 -14.879398328349161 $401 14.879398328349161 $296 $454 forward 7 unknown #
vertex $-1 $399 $455 #
straight-curve $-1 -53.846858119449443 -36.698424211918116 0 0 0 -1 I I #
edge $-1 $397 -36.698424211918116 $401 36.698424211918116 $395 $456 forward 7 unknown #
straight-curve $-1 0 -36.698424211918116 -14.879398328349161 -1 0 0 I I #
vertex $-1 $289 $457 #
straight-curve $-1 0 36.698424211918116 -14.879398328349161 1 0 0 I I #
point $-1 53.846858119449443 36.698424211918116 -14.879398328349161 #
point $-1 53.846858119449443 -36.698424211918116 -14.879398328349161 #
straight-curve $-1 -53.846858119449443 0 14.879398328349161 0 -1 0 I I #
point $-1 -53.846858119449443 36.698424211918116 14.879398328349161 #
point $-1 -53.846858119449443 -36.698424211918116 14.879398328349161 #
straight-curve $-1 53.846858119449443 -36.698424211918116 0 0 0 -1 I I #
straight-curve $-1 53.846858119449443 36.698424211918116 0 0 0 -1 I I #
edge $-1 $411 25.303018598381605 $414 30.471016950489716 $307 $458 forward 7 unknown #
vertex $-1 $321 $459 #
straight-curve $-1 -49.093274366602238 -58.98795223991776 14.879398328349161 0 -1 0 I I #
edge $-1 $414 -29.142567670502181 $318 -10.758845721697931 $317 $460 forward 7 unknown #
vertex $-1 $413 $461 #
straight-curve $-1 -49.093274366602238 -36.698424211918137 9.7113999762410259 0 0.65605901945558964 0.75470958851134928 I I #
point $-1 -49.093274366602238 -32.205951898004798 14.879398328349161 #
point $-1 -30.709552417797987 -36.698424211918116 9.7113999762410508 #
straight-curve $-1 0 -36.698424211918116 14.879398328349161 1 0 0 I I #
vertex $-1 $324 $462 #
point $-1 -38.401413392200112 -33.13355951719268 11.149132881554943 #
edge $-1 $422 25.303018598381605 $425 30.471016950489716 $329 $463 forward 7 unknown #
vertex $-1 $343 $464 #
straight-curve $-1 -22.169845306877519 -58.98795223991776 14.879398328349161 0 -1 0 I I #
edge $-1 $425 -15.680853140639822 $340 2.7028688081644283 $339 $465 forward 7 unknown #
vertex $-1 $424 $466 #
straight-curve $-1 -22.169845306877519 -36.698424211918137 9.7113999762410259 0 0.65605901945558964 0.75470958851134928 I I #
point $-1 -22.169845306877519 -32.205951898004798 14.879398328349161 #
point $-1 -3.7861233580732687 -36.698424211918116 9.7113999762410508 #
straight-curve $-1 0 -36.698424211918116 14.879398328349161 1 0 0 I I #
vertex $-1 $346 $467 #
point $-1 -11.477984332475394 -33.13355951719268 11.149132881554943 #
edge $-1 $433 25.303018598381605 $436 30.471016950489716 $351 $468 forward 7 unknown #
vertex $-1 $365 $469 #
straight-curve $-1 4.7535837528472058 -58.98795223991776 14.879398328349161 0 -1 0 I I #
edge $-1 $436 -2.2191386107774598 $362 16.164583338026791 $361 $470 forward 7 unknown #
vertex $-1 $435 $471 #
straight-curve $-1 4.7535837528472058 -36.698424211918137 9.7113999762410259 0 0.65605901945558964 0.75470958851134928 I I #
point $-1 4.7535837528472058 -32.205951898004798 14.879398328349161 #
point $-1 23.137305701651457 -36.698424211918116 9.7113999762410508 #
straight-curve $-1 0 -36.698424211918116 14.879398328349161 1 0 0 I I #
vertex $-1 $368 $472 #
point $-1 15.445444727249331 -33.13355951719268 11.149132881554943 #
edge $-1 $444 25.303018598381605 $447 30.471016950489716 $373 $473 forward 7 unknown #
vertex $-1 $387 $474 #
straight-curve $-1 31.677012812571931 -58.98795223991776 14.879398328349161 0 -1 0 I I #
edge $-1 $447 11.242575919084903 $384 29.626297867889154 $383 $475 forward 7 unknown #
vertex $-1 $446 $476 #
straight-curve $-1 31.677012812571931 -36.698424211918137 9.7113999762410259 0 0.65605901945558964 0.75470958851134928 I I #
point $-1 31.677012812571931 -32.205951898004798 14.879398328349161 #
point $-1 50.060734761376182 -36.698424211918116 9.7113999762410508 #
straight-curve $-1 0 -36.698424211918116 14.879398328349161 1 0 0 I I #
vertex $-1 $390 $477 #
point $-1 42.368873786974056 -33.13355951719268 11.149132881554943 #
straight-curve $-1 -53.846858119449443 36.698424211918116 0 0 0 -1 I I #
point $-1 -53.846858119449443 -36.698424211918116 -14.879398328349161 #
straight-curve $-1 -53.846858119449443 0 -14.879398328349161 0 1 0 I I #
point $-1 -53.846858119449443 36.698424211918116 -14.879398328349161 #
straight-curve $-1 -49.093274366602238 -36.698424211918116 40.182416926730767 0 0 -1 I I #
point $-1 -49.093274366602238 -36.698424211918116 14.879398328349161 #
straight-curve $-1 -19.950706696100056 -36.698424211918116 9.7113999762410437 1 0 0 I I #
point $-1 -49.093274366602238 -36.698424211918116 9.7113999762410508 #
point $-1 -39.901413392200112 -32.001495134425653 10.165044352371558 #
straight-curve $-1 -22.169845306877519 -36.698424211918116 40.182416926730767 0 0 -1 I I #
point $-1 -22.169845306877519 -36.698424211918116 14.879398328349161 #
straight-curve $-1 -6.488992166237697 -36.698424211918116 9.7113999762410437 1 0 0 I I #
point $-1 -22.169845306877519 -36.698424211918116 9.7113999762410508 #
point $-1 -12.977984332475394 -32.001495134425653 10.165044352371558 #
straight-curve $-1 4.7535837528472058 -36.698424211918116 40.182416926730767 0 0 -1 I I #
point $-1 4.7535837528472058 -36.698424211918116 14.879398328349161 #
straight-curve $-1 6.9727223636246656 -36.698424211918116 9.7113999762410437 1 0 0 I I #
point $-1 4.7535837528472058 -36.698424211918116 9.7113999762410508 #
point $-1 13.945444727249331 -32.001495134425653 10.165044352371558 #
straight-curve $-1 31.677012812571931 -36.698424211918116 40.182416926730767 0 0 -1 I I #
point $-1 31.677012812571931 -36.698424211918116 14.879398328349161 #
straight-curve $-1 20.434436893487028 -36.698424211918116 9.7113999762410437 1 0 0 I I #
point $-1 31.677012812571931 -36.698424211918116 9.7113999762410508 #
point $-1 40.868873786974056 -32.001495134425653 10.165044352371558 #
End-of-ACIS-data 