500 0 7 0           
7 Unknown 11 ACIS 5.0 NT 24 Thu Mar 25 15:50:37 1999 
-1 9.9999999999999995e-007 1e-010 
body $-1 $7 $-1 $8 #
body $-1 $9 $-1 $10 #
body $-1 $11 $-1 $12 #
body $-1 $13 $-1 $14 #
body $-1 $15 $-1 $16 #
body $-1 $17 $-1 $18 #
body $-1 $19 $-1 $20 #
lump $-1 $-1 $21 $0 #
transform $-1 1 0 0 0 1 0 0 0 1 55.320291756950589 26.148617291482349 10.866515298818507 1 rotate no_reflect no_shear #
lump $-1 $-1 $22 $1 #
transform $-1 1 0 0 0 0.64278759981090561 -0.7660444514056185 0 0.7660444514056185 0.64278759981090561 75.135932500204888 103.43682578973687 127.28581864145593 1 rotate no_reflect no_shear #
lump $-1 $-1 $23 $2 #
transform $-1 1 0 0 0 -0.64278759981090561 0.7660444514056185 0 -0.7660444514056185 -0.64278759981090561 66.796204786240267 47.594027013181282 16.953932221879693 1 rotate no_reflect no_shear #
lump $-1 $-1 $24 $3 #
transform $-1 1 0 0 0 -0.64278759981090561 0.7660444514056185 0 -0.7660444514056185 -0.64278759981090561 75.135932500204902 47.594027013181282 16.953932221879693 1 rotate no_reflect no_shear #
lump $-1 $-1 $25 $4 #
transform $-1 1 0 0 0 -0.64278759981090561 0.7660444514056185 0 -0.7660444514056185 -0.64278759981090561 83.475660214169537 47.594027013181282 16.953932221879693 1 rotate no_reflect no_shear #
lump $-1 $-1 $26 $5 #
transform $-1 1 0 0 0 0.84804809178421925 0.52991927123019833 0 -0.52991927123019833 0.84804809178421925 96.916282121603217 -58.630577384170394 111.85454744311619 1 rotate no_reflect no_shear #
lump $-1 $-1 $27 $6 #
transform $-1 1 0 0 0 -0.84804809178421925 -0.52991927123019833 0 0.52991927123019833 -0.84804809178421925 96.916282121603217 4.5257425401137326 17.383787600343751 1 rotate no_reflect no_shear #
shell $-1 $-1 $-1 $28 $-1 $7 #
shell $-1 $-1 $-1 $29 $-1 $9 #
shell $-1 $-1 $-1 $30 $-1 $11 #
shell $-1 $-1 $-1 $31 $-1 $13 #
shell $-1 $-1 $-1 $32 $-1 $15 #
shell $-1 $-1 $-1 $33 $-1 $17 #
shell $-1 $-1 $-1 $34 $-1 $19 #
face $-1 $35 $36 $21 $-1 $37 forward single #
face $-1 $38 $39 $22 $-1 $40 forward single #
face $-1 $41 $42 $23 $-1 $43 forward single #
face $-1 $44 $45 $24 $-1 $46 forward single #
face $-1 $47 $48 $25 $-1 $49 forward single #
face $-1 $50 $51 $26 $-1 $52 forward single #
face $-1 $53 $54 $27 $-1 $55 forward single #
face $-1 $56 $57 $21 $-1 $58 reversed single #
loop $-1 $-1 $59 $28 #
plane-surface $-1 0 0 10.866515298818507 0 0 1 1 0 0 forward_v I I I I #
face $-1 $60 $61 $22 $-1 $62 reversed single #
loop $-1 $-1 $63 $29 #
plane-surface $-1 0 0 110.64058351390118 0 0 1 1 0 0 forward_v I I I I #
face $-1 $64 $65 $23 $-1 $66 forward single #
loop $-1 $67 $68 $30 #
cone-surface $-1 0 0 -1.7787255470442833 0 0 1 1 0 0 1 I I 0 1 1 forward I I I I #
face $-1 $69 $70 $24 $-1 $71 forward single #
loop $-1 $72 $73 $31 #
cone-surface $-1 0 0 -1.7787255470442833 0 0 1 1 0 0 1 I I 0 1 1 forward I I I I #
face $-1 $74 $75 $25 $-1 $76 forward single #
loop $-1 $77 $78 $32 #
cone-surface $-1 0 0 -1.7787255470442833 0 0 1 1 0 0 1 I I 0 1 1 forward I I I I #
face $-1 $79 $80 $26 $-1 $81 reversed single #
loop $-1 $-1 $82 $33 #
plane-surface $-1 0 0 110.64058351390118 0 0 1 1 0 0 forward_v I I I I #
face $-1 $83 $84 $27 $-1 $85 forward single #
loop $-1 $86 $87 $34 #
cone-surface $-1 0 0 -1.7214575640125727 0 0 1 1 0 0 1 I I 0 1 1 forward I I I I #
face $-1 $88 $89 $21 $-1 $90 reversed single #
loop $-1 $-1 $91 $35 #
plane-surface $-1 0 0 -10.866515298818507 0 0 1 1 0 0 forward_v I I I I #
coedge $-1 $92 $93 $94 $95 forward $36 $-1 #
face $-1 $96 $97 $22 $-1 $98 reversed single #
loop $-1 $-1 $99 $38 #
plane-surface $-1 0 0 -110.64058351390118 0 0 1 1 0 0 forward_v I I I I #
coedge $-1 $100 $101 $102 $103 forward $39 $-1 #
face $-1 $-1 $104 $23 $-1 $105 forward single #
loop $-1 $-1 $106 $41 #
plane-surface $-1 0 0 -3.0574510940885657 0 0 -1 -1 0 0 forward_v I I I I #
loop $-1 $-1 $107 $30 #
coedge $-1 $68 $68 $106 $108 reversed $42 $-1 #
face $-1 $-1 $109 $24 $-1 $110 forward single #
loop $-1 $-1 $111 $44 #
plane-surface $-1 0 0 -3.0574510940885657 0 0 -1 -1 0 0 forward_v I I I I #
loop $-1 $-1 $112 $31 #
coedge $-1 $73 $73 $111 $113 reversed $45 $-1 #
face $-1 $-1 $114 $25 $-1 $115 forward single #
loop $-1 $-1 $116 $47 #
plane-surface $-1 0 0 -3.0574510940885657 0 0 -1 -1 0 0 forward_v I I I I #
loop $-1 $-1 $117 $32 #
coedge $-1 $78 $78 $116 $118 reversed $48 $-1 #
face $-1 $119 $120 $26 $-1 $121 reversed single #
loop $-1 $-1 $122 $50 #
plane-surface $-1 0 0 -110.64058351390118 0 0 1 1 0 0 forward_v I I I I #
coedge $-1 $123 $124 $125 $126 forward $51 $-1 #
face $-1 $-1 $127 $27 $-1 $128 forward single #
loop $-1 $-1 $129 $53 #
plane-surface $-1 0 0 -2.9429151280251462 0 0 -1 -1 0 0 forward_v I I I I #
loop $-1 $-1 $130 $34 #
coedge $-1 $87 $87 $129 $131 reversed $54 $-1 #
face $-1 $132 $133 $21 $-1 $134 reversed single #
loop $-1 $-1 $135 $56 #
plane-surface $-1 0 -26.148617291482349 0 0 1 0 0 0 1 forward_v I I I I #
coedge $-1 $136 $137 $138 $139 forward $57 $-1 #
coedge $-1 $140 $59 $141 $142 forward $36 $-1 #
coedge $-1 $59 $140 $143 $144 forward $36 $-1 #
coedge $-1 $145 $146 $59 $95 reversed $147 $-1 #
edge $-1 $148 -26.148617291482349 $149 26.148617291482349 $94 $150 forward 7 unknown #
face $-1 $151 $152 $22 $-1 $153 reversed single #
loop $-1 $-1 $154 $60 #
plane-surface $-1 0 -221.28116702780235 0 0 1 0 0 0 1 forward_v I I I I #
coedge $-1 $155 $156 $157 $158 forward $61 $-1 #
coedge $-1 $159 $63 $160 $161 forward $39 $-1 #
coedge $-1 $63 $159 $162 $163 forward $39 $-1 #
coedge $-1 $164 $165 $63 $103 reversed $166 $-1 #
edge $-1 $167 -221.28116702780235 $168 221.28116702780235 $102 $169 forward 7 unknown #
loop $-1 $170 $171 $64 #
cone-surface $-1 0 0 0 0 0 1 0.5 0 0 1 I I -0.70710678118654746 0.70710678118654746 0.5 forward I I I I #
coedge $-1 $106 $106 $68 $108 forward $65 $-1 #
coedge $-1 $107 $107 $171 $172 forward $67 $-1 #
edge $-1 $173 0 $173 6.2831853071796004 $106 $174 forward 7 unknown #
loop $-1 $175 $176 $69 #
cone-surface $-1 0 0 0 0 0 1 0.5 0 0 1 I I -0.70710678118654746 0.70710678118654746 0.5 forward I I I I #
coedge $-1 $111 $111 $73 $113 forward $70 $-1 #
coedge $-1 $112 $112 $176 $177 forward $72 $-1 #
edge $-1 $178 0 $178 6.2831853071796004 $111 $179 forward 7 unknown #
loop $-1 $180 $181 $74 #
cone-surface $-1 0 0 0 0 0 1 0.5 0 0 1 I I -0.70710678118654746 0.70710678118654746 0.5 forward I I I I #
coedge $-1 $116 $116 $78 $118 forward $75 $-1 #
coedge $-1 $117 $117 $181 $182 forward $77 $-1 #
edge $-1 $183 0 $183 6.2831853071796004 $116 $184 forward 7 unknown #
face $-1 $185 $186 $26 $-1 $187 reversed single #
loop $-1 $-1 $188 $79 #
plane-surface $-1 0 -221.28116702780235 0 0 1 0 0 0 1 forward_v I I I I #
coedge $-1 $189 $190 $191 $192 forward $80 $-1 #
coedge $-1 $193 $82 $194 $195 forward $51 $-1 #
coedge $-1 $82 $193 $196 $197 forward $51 $-1 #
coedge $-1 $198 $199 $82 $126 reversed $200 $-1 #
edge $-1 $201 -221.28116702780235 $202 221.28116702780235 $125 $203 forward 7 unknown #
loop $-1 $204 $205 $83 #
cone-surface $-1 0 0 0 0 0 1 0.5 0 0 1 I I -0.70710678118654746 0.70710678118654746 0.5 forward I I I I #
coedge $-1 $129 $129 $87 $131 forward $84 $-1 #
coedge $-1 $130 $130 $205 $206 forward $86 $-1 #
edge $-1 $207 0 $207 6.2831853071796004 $129 $208 forward 7 unknown #
face $-1 $209 $210 $21 $-1 $211 reversed single #
loop $-1 $-1 $212 $88 #
plane-surface $-1 -55.320291756950589 0 0 1 0 0 0 0 -1 forward_v I I I I #
coedge $-1 $213 $143 $214 $215 forward $89 $-1 #
coedge $-1 $216 $91 $213 $217 forward $57 $-1 #
coedge $-1 $91 $216 $218 $219 forward $57 $-1 #
coedge $-1 $146 $145 $91 $139 reversed $147 $-1 #
edge $-1 $220 -26.148617291482349 $221 26.148617291482349 $138 $222 forward 7 unknown #
coedge $-1 $93 $92 $223 $224 forward $36 $-1 #
coedge $-1 $225 $226 $92 $142 reversed $210 $-1 #
edge $-1 $149 -55.320291756950589 $227 55.320291756950589 $141 $228 forward 7 unknown #
coedge $-1 $135 $229 $93 $144 reversed $89 $-1 #
edge $-1 $230 -55.320291756950589 $148 55.320291756950589 $143 $231 forward 7 unknown #
coedge $-1 $138 $94 $229 $232 forward $147 $-1 #
coedge $-1 $94 $138 $225 $233 reversed $147 $-1 #
loop $-1 $-1 $145 $209 #
vertex $-1 $95 $234 #
vertex $-1 $95 $235 #
straight-curve $-1 55.320291756950589 0 10.866515298818507 0 1 0 I I #
face $-1 $236 $237 $22 $-1 $238 reversed single #
loop $-1 $-1 $239 $96 #
plane-surface $-1 -13.899546189941056 0 0 1 0 0 0 0 -1 forward_v I I I I #
coedge $-1 $240 $162 $241 $242 forward $97 $-1 #
coedge $-1 $243 $99 $240 $244 forward $61 $-1 #
coedge $-1 $99 $243 $245 $246 forward $61 $-1 #
coedge $-1 $165 $164 $99 $158 reversed $166 $-1 #
edge $-1 $247 -221.28116702780235 $248 221.28116702780235 $157 $249 forward 7 unknown #
coedge $-1 $101 $100 $250 $251 forward $39 $-1 #
coedge $-1 $252 $253 $100 $161 reversed $237 $-1 #
edge $-1 $168 -13.899546189941056 $254 13.899546189941056 $160 $255 forward 7 unknown #
coedge $-1 $154 $256 $101 $163 reversed $97 $-1 #
edge $-1 $257 -13.899546189941056 $167 13.899546189941056 $162 $258 forward 7 unknown #
coedge $-1 $157 $102 $256 $259 forward $166 $-1 #
coedge $-1 $102 $157 $252 $260 reversed $166 $-1 #
loop $-1 $-1 $164 $236 #
vertex $-1 $103 $261 #
vertex $-1 $103 $262 #
straight-curve $-1 13.899546189941056 0 110.64058351390118 0 1 0 I I #
loop $-1 $-1 $263 $64 #
coedge $-1 $171 $171 $107 $172 reversed $104 $-1 #
edge $-1 $264 0 $264 6.2831853071796004 $171 $265 forward 7 unknown #
vertex $-1 $108 $266 #
ellipse-curve $-1 0 0 -3.0574510940885657 0 0 -1 1 0 0 1 I I #
loop $-1 $-1 $267 $69 #
coedge $-1 $176 $176 $112 $177 reversed $109 $-1 #
edge $-1 $268 0 $268 6.2831853071796004 $176 $269 forward 7 unknown #
vertex $-1 $113 $270 #
ellipse-curve $-1 0 0 -3.0574510940885657 0 0 -1 1 0 0 1 I I #
loop $-1 $-1 $271 $74 #
coedge $-1 $181 $181 $117 $182 reversed $114 $-1 #
edge $-1 $272 0 $272 6.2831853071796004 $181 $273 forward 7 unknown #
vertex $-1 $118 $274 #
ellipse-curve $-1 0 0 -3.0574510940885657 0 0 -1 1 0 0 1 I I #
face $-1 $275 $276 $26 $-1 $277 reversed single #
loop $-1 $-1 $278 $119 #
plane-surface $-1 -13.724301392297953 0 0 1 0 0 0 0 -1 forward_v I I I I #
coedge $-1 $279 $196 $280 $281 forward $120 $-1 #
coedge $-1 $282 $122 $279 $283 forward $80 $-1 #
coedge $-1 $122 $282 $284 $285 forward $80 $-1 #
coedge $-1 $199 $198 $122 $192 reversed $200 $-1 #
edge $-1 $286 -221.28116702780235 $287 221.28116702780235 $191 $288 forward 7 unknown #
coedge $-1 $124 $123 $289 $290 forward $51 $-1 #
coedge $-1 $291 $292 $123 $195 reversed $276 $-1 #
edge $-1 $202 -13.724301392297953 $293 13.724301392297953 $194 $294 forward 7 unknown #
coedge $-1 $188 $295 $124 $197 reversed $120 $-1 #
edge $-1 $296 -13.724301392297953 $201 13.724301392297953 $196 $297 forward 7 unknown #
coedge $-1 $191 $125 $295 $298 forward $200 $-1 #
coedge $-1 $125 $191 $291 $299 reversed $200 $-1 #
loop $-1 $-1 $198 $275 #
vertex $-1 $126 $300 #
vertex $-1 $126 $301 #
straight-curve $-1 13.724301392297953 0 110.64058351390118 0 1 0 I I #
loop $-1 $-1 $302 $83 #
coedge $-1 $205 $205 $130 $206 reversed $127 $-1 #
edge $-1 $303 0 $303 6.2831853071796004 $205 $304 forward 7 unknown #
vertex $-1 $131 $305 #
ellipse-curve $-1 0 0 -2.9429151280251462 0 0 -1 1 0 0 1 I I #
face $-1 $-1 $147 $21 $-1 $306 reversed single #
loop $-1 $-1 $225 $132 #
plane-surface $-1 0 26.148617291482349 0 0 -1 0 0 0 -1 forward_v I I I I #
coedge $-1 $307 $223 $226 $308 forward $133 $-1 #
coedge $-1 $229 $135 $136 $217 reversed $89 $-1 #
coedge $-1 $223 $307 $135 $215 reversed $133 $-1 #
edge $-1 $230 -10.866515298818507 $309 10.866515298818507 $214 $310 forward 7 unknown #
coedge $-1 $137 $136 $307 $311 forward $57 $-1 #
edge $-1 $221 -55.320291756950589 $309 55.320291756950589 $213 $312 forward 7 unknown #
coedge $-1 $226 $225 $137 $219 reversed $210 $-1 #
edge $-1 $313 -55.320291756950589 $220 55.320291756950589 $218 $314 forward 7 unknown #
vertex $-1 $139 $315 #
vertex $-1 $232 $316 #
straight-curve $-1 55.320291756950589 0 -10.866515298818507 0 -1 0 I I #
coedge $-1 $212 $214 $140 $224 reversed $133 $-1 #
edge $-1 $227 -26.148617291482349 $230 26.148617291482349 $223 $317 forward 7 unknown #
coedge $-1 $218 $141 $146 $233 forward $210 $-1 #
coedge $-1 $141 $218 $212 $308 reversed $210 $-1 #
vertex $-1 $142 $318 #
straight-curve $-1 0 26.148617291482349 10.866515298818507 -1 0 0 I I #
coedge $-1 $143 $213 $145 $232 reversed $89 $-1 #
vertex $-1 $224 $319 #
straight-curve $-1 0 -26.148617291482349 10.866515298818507 1 0 0 I I #
edge $-1 $148 -10.866515298818507 $221 10.866515298818507 $145 $320 forward 7 unknown #
edge $-1 $149 -10.866515298818507 $220 10.866515298818507 $146 $321 forward 7 unknown #
point $-1 55.320291756950589 -26.148617291482349 10.866515298818507 #
point $-1 55.320291756950589 26.148617291482349 10.866515298818507 #
face $-1 $-1 $166 $22 $-1 $322 reversed single #
loop $-1 $-1 $252 $151 #
plane-surface $-1 0 221.28116702780235 0 0 -1 0 0 0 -1 forward_v I I I I #
coedge $-1 $323 $250 $253 $324 forward $152 $-1 #
coedge $-1 $256 $154 $155 $244 reversed $97 $-1 #
coedge $-1 $250 $323 $154 $242 reversed $152 $-1 #
edge $-1 $257 -110.64058351390118 $325 110.64058351390118 $241 $326 forward 7 unknown #
coedge $-1 $156 $155 $323 $327 forward $61 $-1 #
edge $-1 $248 -13.899546189941056 $325 13.899546189941056 $240 $328 forward 7 unknown #
coedge $-1 $253 $252 $156 $246 reversed $237 $-1 #
edge $-1 $329 -13.899546189941056 $247 13.899546189941056 $245 $330 forward 7 unknown #
vertex $-1 $158 $331 #
vertex $-1 $259 $332 #
straight-curve $-1 13.899546189941056 0 -110.64058351390118 0 -1 0 I I #
coedge $-1 $239 $241 $159 $251 reversed $152 $-1 #
edge $-1 $254 -221.28116702780235 $257 221.28116702780235 $250 $333 forward 7 unknown #
coedge $-1 $245 $160 $165 $260 forward $237 $-1 #
coedge $-1 $160 $245 $239 $324 reversed $237 $-1 #
vertex $-1 $161 $334 #
straight-curve $-1 0 221.28116702780235 110.64058351390118 -1 0 0 I I #
coedge $-1 $162 $240 $164 $259 reversed $97 $-1 #
vertex $-1 $251 $335 #
straight-curve $-1 0 -221.28116702780235 110.64058351390118 1 0 0 I I #
edge $-1 $167 -110.64058351390118 $248 110.64058351390118 $164 $336 forward 7 unknown #
edge $-1 $168 -110.64058351390118 $247 110.64058351390118 $165 $337 forward 7 unknown #
point $-1 13.899546189941056 -221.28116702780235 110.64058351390118 #
point $-1 13.899546189941056 221.28116702780235 110.64058351390118 #
coedge $-1 $263 $263 $-1 $338 reversed $170 $-1 #
vertex $-1 $172 $339 #
ellipse-curve $-1 0 0 -0.5 0 0 -1 1 0 0 1 I I #
point $-1 1 0 -3.0574510940885657 #
coedge $-1 $267 $267 $-1 $340 reversed $175 $-1 #
vertex $-1 $177 $341 #
ellipse-curve $-1 0 0 -0.5 0 0 -1 1 0 0 1 I I #
point $-1 1 0 -3.0574510940885657 #
coedge $-1 $271 $271 $-1 $342 reversed $180 $-1 #
vertex $-1 $182 $343 #
ellipse-curve $-1 0 0 -0.5 0 0 -1 1 0 0 1 I I #
point $-1 1 0 -3.0574510940885657 #
face $-1 $-1 $200 $26 $-1 $344 reversed single #
loop $-1 $-1 $291 $185 #
plane-surface $-1 0 221.28116702780235 0 0 -1 0 0 0 -1 forward_v I I I I #
coedge $-1 $345 $289 $292 $346 forward $186 $-1 #
coedge $-1 $295 $188 $189 $283 reversed $120 $-1 #
coedge $-1 $289 $345 $188 $281 reversed $186 $-1 #
edge $-1 $296 -110.64058351390118 $347 110.64058351390118 $280 $348 forward 7 unknown #
coedge $-1 $190 $189 $345 $349 forward $80 $-1 #
edge $-1 $287 -13.724301392297953 $347 13.724301392297953 $279 $350 forward 7 unknown #
coedge $-1 $292 $291 $190 $285 reversed $276 $-1 #
edge $-1 $351 -13.724301392297953 $286 13.724301392297953 $284 $352 forward 7 unknown #
vertex $-1 $192 $353 #
vertex $-1 $298 $354 #
straight-curve $-1 13.724301392297953 0 -110.64058351390118 0 -1 0 I I #
coedge $-1 $278 $280 $193 $290 reversed $186 $-1 #
edge $-1 $293 -221.28116702780235 $296 221.28116702780235 $289 $355 forward 7 unknown #
coedge $-1 $284 $194 $199 $299 forward $276 $-1 #
coedge $-1 $194 $284 $278 $346 reversed $276 $-1 #
vertex $-1 $195 $356 #
straight-curve $-1 0 221.28116702780235 110.64058351390118 -1 0 0 I I #
coedge $-1 $196 $279 $198 $298 reversed $120 $-1 #
vertex $-1 $290 $357 #
straight-curve $-1 0 -221.28116702780235 110.64058351390118 1 0 0 I I #
edge $-1 $201 -110.64058351390118 $287 110.64058351390118 $198 $358 forward 7 unknown #
edge $-1 $202 -110.64058351390118 $286 110.64058351390118 $199 $359 forward 7 unknown #
point $-1 13.724301392297953 -221.28116702780235 110.64058351390118 #
point $-1 13.724301392297953 221.28116702780235 110.64058351390118 #
coedge $-1 $302 $302 $-1 $360 reversed $204 $-1 #
vertex $-1 $206 $361 #
ellipse-curve $-1 0 0 -0.5 0 0 -1 1 0 0 1 I I #
point $-1 1 0 -2.9429151280251462 #
plane-surface $-1 55.320291756950589 0 0 -1 0 0 0 0 1 forward_v I I I I #
coedge $-1 $214 $212 $216 $311 reversed $133 $-1 #
edge $-1 $227 -10.866515298818507 $313 10.866515298818507 $226 $362 forward 7 unknown #
vertex $-1 $311 $363 #
straight-curve $-1 -55.320291756950589 -26.148617291482349 0 0 0 -1 I I #
edge $-1 $309 -26.148617291482349 $313 26.148617291482349 $307 $364 forward 7 unknown #
straight-curve $-1 0 -26.148617291482349 -10.866515298818507 -1 0 0 I I #
vertex $-1 $219 $365 #
straight-curve $-1 0 26.148617291482349 -10.866515298818507 1 0 0 I I #
point $-1 55.320291756950589 26.148617291482349 -10.866515298818507 #
point $-1 55.320291756950589 -26.148617291482349 -10.866515298818507 #
straight-curve $-1 -55.320291756950589 0 10.866515298818507 0 -1 0 I I #
point $-1 -55.320291756950589 26.148617291482349 10.866515298818507 #
point $-1 -55.320291756950589 -26.148617291482349 10.866515298818507 #
straight-curve $-1 55.320291756950589 -26.148617291482349 0 0 0 -1 I I #
straight-curve $-1 55.320291756950589 26.148617291482349 0 0 0 -1 I I #
plane-surface $-1 13.899546189941056 0 0 -1 0 0 0 0 1 forward_v I I I I #
coedge $-1 $241 $239 $243 $327 reversed $152 $-1 #
edge $-1 $254 -110.64058351390118 $329 110.64058351390118 $253 $366 forward 7 unknown #
vertex $-1 $327 $367 #
straight-curve $-1 -13.899546189941056 -221.28116702780235 0 0 0 -1 I I #
edge $-1 $325 -221.28116702780235 $329 221.28116702780235 $323 $368 forward 7 unknown #
straight-curve $-1 0 -221.28116702780235 -110.64058351390118 -1 0 0 I I #
vertex $-1 $246 $369 #
straight-curve $-1 0 221.28116702780235 -110.64058351390118 1 0 0 I I #
point $-1 13.899546189941056 221.28116702780235 -110.64058351390118 #
point $-1 13.899546189941056 -221.28116702780235 -110.64058351390118 #
straight-curve $-1 -13.899546189941056 0 110.64058351390118 0 -1 0 I I #
point $-1 -13.899546189941056 221.28116702780235 110.64058351390118 #
point $-1 -13.899546189941056 -221.28116702780235 110.64058351390118 #
straight-curve $-1 13.899546189941056 -221.28116702780235 0 0 0 -1 I I #
straight-curve $-1 13.899546189941056 221.28116702780235 0 0 0 -1 I I #
edge $-1 $370 1 $370 0 $263 $-1 forward 7 unknown #
point $-1 1 0 -0.5 #
edge $-1 $371 1 $371 0 $267 $-1 forward 7 unknown #
point $-1 1 0 -0.5 #
edge $-1 $372 1 $372 0 $271 $-1 forward 7 unknown #
point $-1 1 0 -0.5 #
plane-surface $-1 13.724301392297953 0 0 -1 0 0 0 0 1 forward_v I I I I #
coedge $-1 $280 $278 $282 $349 reversed $186 $-1 #
edge $-1 $293 -110.64058351390118 $351 110.64058351390118 $292 $373 forward 7 unknown #
vertex $-1 $349 $374 #
straight-curve $-1 -13.724301392297953 -221.28116702780235 0 0 0 -1 I I #
edge $-1 $347 -221.28116702780235 $351 221.28116702780235 $345 $375 forward 7 unknown #
straight-curve $-1 0 -221.28116702780235 -110.64058351390118 -1 0 0 I I #
vertex $-1 $285 $376 #
straight-curve $-1 0 221.28116702780235 -110.64058351390118 1 0 0 I I #
point $-1 13.724301392297953 221.28116702780235 -110.64058351390118 #
point $-1 13.724301392297953 -221.28116702780235 -110.64058351390118 #
straight-curve $-1 -13.724301392297953 0 110.64058351390118 0 -1 0 I I #
point $-1 -13.724301392297953 221.28116702780235 110.64058351390118 #
point $-1 -13.724301392297953 -221.28116702780235 110.64058351390118 #
straight-curve $-1 13.724301392297953 -221.28116702780235 0 0 0 -1 I I #
straight-curve $-1 13.724301392297953 221.28116702780235 0 0 0 -1 I I #
edge $-1 $377 1 $377 0 $302 $-1 forward 7 unknown #
point $-1 1 0 -0.5 #
straight-curve $-1 -55.320291756950589 26.148617291482349 0 0 0 -1 I I #
point $-1 -55.320291756950589 -26.148617291482349 -10.866515298818507 #
straight-curve $-1 -55.320291756950589 0 -10.866515298818507 0 1 0 I I #
point $-1 -55.320291756950589 26.148617291482349 -10.866515298818507 #
straight-curve $-1 -13.899546189941056 221.28116702780235 0 0 0 -1 I I #
point $-1 -13.899546189941056 -221.28116702780235 -110.64058351390118 #
straight-curve $-1 -13.899546189941056 0 -110.64058351390118 0 1 0 I I #
point $-1 -13.899546189941056 221.28116702780235 -110.64058351390118 #
vertex $-1 $338 $378 #
vertex $-1 $340 $379 #
vertex $-1 $342 $380 #
straight-curve $-1 -13.724301392297953 221.28116702780235 0 0 0 -1 I I #
point $-1 -13.724301392297953 -221.28116702780235 -110.64058351390118 #
straight-curve $-1 -13.724301392297953 0 -110.64058351390118 0 1 0 I I #
point $-1 -13.724301392297953 221.28116702780235 -110.64058351390118 #
vertex $-1 $360 $381 #
point $-1 0 0 0.5 #
point $-1 0 0 0.5 #
point $-1 0 0 0.5 #
point $-1 0 0 0.5 #
End-of-ACIS-data 