500 0 17 0           
7 Unknown 11 ACIS 5.0 NT 24 Thu Mar 25 22:26:56 1999 
-1 9.9999999999999995e-007 1e-010 
body $-1 $17 $-1 $18 #
body $-1 $19 $-1 $20 #
body $-1 $21 $-1 $22 #
body $-1 $23 $-1 $24 #
body $-1 $25 $-1 $26 #
body $-1 $27 $-1 $28 #
body $-1 $29 $-1 $30 #
body $-1 $31 $-1 $32 #
body $-1 $33 $-1 $34 #
body $-1 $35 $-1 $36 #
body $-1 $37 $-1 $38 #
body $-1 $39 $-1 $40 #
body $-1 $41 $-1 $42 #
body $-1 $43 $-1 $44 #
body $-1 $45 $-1 $46 #
body $-1 $47 $-1 $48 #
body $-1 $49 $-1 $50 #
lump $-1 $-1 $51 $0 #
transform $-1 1 0 0 0 1 0 0 0 1 49.522995696890163 31.902560575220079 7.0268975017406508 1 rotate no_reflect no_shear #
lump $-1 $-1 $52 $1 #
transform $-1 1 0 0 0 1 0 0 0 1 49.522995696890163 31.902560575220079 7.0268975017406508 1 rotate no_reflect no_shear #
lump $-1 $-1 $53 $2 #
transform $-1 1 0 0 0 1 0 0 0 1 49.522995696890163 31.902560575220079 7.0268975017406508 1 rotate no_reflect no_shear #
lump $-1 $-1 $54 $3 #
transform $-1 1 0 0 0 1 0 0 0 1 49.522995696890163 31.902560575220079 7.0268975017406508 1 rotate no_reflect no_shear #
lump $-1 $-1 $55 $4 #
transform $-1 1 0 0 0 1 0 0 0 1 49.522995696890163 31.902560575220079 7.0268975017406508 1 rotate no_reflect no_shear #
lump $-1 $-1 $56 $5 #
transform $-1 1 0 0 0 1 0 0 0 1 49.522995696890163 31.902560575220079 7.0268975017406508 1 rotate no_reflect no_shear #
lump $-1 $-1 $57 $6 #
transform $-1 1 0 0 0 1 0 0 0 1 49.522995696890163 31.902560575220079 7.0268975017406508 1 rotate no_reflect no_shear #
lump $-1 $-1 $58 $7 #
transform $-1 1 0 0 0 1 0 0 0 1 49.522995696890163 31.902560575220079 7.0268975017406508 1 rotate no_reflect no_shear #
lump $-1 $-1 $59 $8 #
transform $-1 1 0 0 0 1 0 0 0 1 49.522995696890163 31.902560575220079 7.0268975017406508 1 rotate no_reflect no_shear #
lump $-1 $-1 $60 $9 #
transform $-1 1 0 0 0 1 0 0 0 1 49.522995696890163 31.902560575220079 7.0268975017406508 1 rotate no_reflect no_shear #
lump $-1 $-1 $61 $10 #
transform $-1 1 0 0 0 1 0 0 0 1 49.522995696890163 31.902560575220079 7.0268975017406508 1 rotate no_reflect no_shear #
lump $-1 $-1 $62 $11 #
transform $-1 1 0 0 0 1 0 0 0 1 49.522995696890163 31.902560575220079 7.0268975017406508 1 rotate no_reflect no_shear #
lump $-1 $-1 $63 $12 #
transform $-1 1 0 0 0 1 0 0 0 1 49.522995696890163 31.902560575220079 7.0268975017406508 1 rotate no_reflect no_shear #
lump $-1 $-1 $64 $13 #
transform $-1 1 0 0 0 1 0 0 0 1 49.522995696890163 31.902560575220079 7.0268975017406508 1 rotate no_reflect no_shear #
lump $-1 $-1 $65 $14 #
transform $-1 1 0 0 0 1 0 0 0 1 49.522995696890163 31.902560575220079 7.0268975017406508 1 rotate no_reflect no_shear #
lump $-1 $-1 $66 $15 #
transform $-1 1 0 0 0 1 0 0 0 1 49.522995696890163 31.902560575220079 7.0268975017406508 1 rotate no_reflect no_shear #
lump $-1 $-1 $67 $16 #
transform $-1 1 0 0 0 1 0 0 0 1 49.522995696890163 31.902560575220079 7.0268975017406508 1 rotate no_reflect no_shear #
shell $-1 $-1 $-1 $68 $-1 $17 #
shell $-1 $-1 $-1 $69 $-1 $19 #
shell $-1 $-1 $-1 $70 $-1 $21 #
shell $-1 $-1 $-1 $71 $-1 $23 #
shell $-1 $-1 $-1 $72 $-1 $25 #
shell $-1 $-1 $-1 $73 $-1 $27 #
shell $-1 $-1 $-1 $74 $-1 $29 #
shell $-1 $-1 $-1 $75 $-1 $31 #
shell $-1 $-1 $-1 $76 $-1 $33 #
shell $-1 $-1 $-1 $77 $-1 $35 #
shell $-1 $-1 $-1 $78 $-1 $37 #
shell $-1 $-1 $-1 $79 $-1 $39 #
shell $-1 $-1 $-1 $80 $-1 $41 #
shell $-1 $-1 $-1 $81 $-1 $43 #
shell $-1 $-1 $-1 $82 $-1 $45 #
shell $-1 $-1 $-1 $83 $-1 $47 #
shell $-1 $-1 $-1 $84 $-1 $49 #
face $-1 $85 $86 $51 $-1 $87 forward single #
face $-1 $88 $89 $52 $-1 $90 forward single #
face $-1 $91 $92 $53 $-1 $93 forward single #
face $-1 $94 $95 $54 $-1 $96 reversed single #
face $-1 $97 $98 $55 $-1 $99 forward single #
face $-1 $100 $101 $56 $-1 $102 forward single #
face $-1 $103 $104 $57 $-1 $105 reversed single #
face $-1 $106 $107 $58 $-1 $108 forward single #
face $-1 $109 $110 $59 $-1 $111 forward single #
face $-1 $112 $113 $60 $-1 $114 reversed single #
face $-1 $115 $116 $61 $-1 $117 forward single #
face $-1 $118 $119 $62 $-1 $120 forward single #
face $-1 $121 $122 $63 $-1 $123 forward single #
face $-1 $124 $125 $64 $-1 $126 reversed single #
face $-1 $127 $128 $65 $-1 $129 forward single #
face $-1 $130 $131 $66 $-1 $132 forward single #
face $-1 $133 $134 $67 $-1 $135 forward single #
face $-1 $136 $137 $51 $-1 $138 reversed single #
loop $-1 $-1 $139 $68 #
plane-surface $-1 0 0 7.0268975017406508 0 0 1 1 0 0 forward_v I I I I #
face $-1 $140 $141 $52 $-1 $142 reversed single #
loop $-1 $-1 $143 $69 #
plane-surface $-1 0 -27.991460666186732 0.086016975704462872 0 0 1 1 0 0 forward_v I I I I #
face $-1 $144 $145 $53 $-1 $146 reversed single #
loop $-1 $-1 $147 $70 #
plane-surface $-1 0 31.902560575220079 0 0 -1 0 0 0 -1 forward_v I I I I #
face $-1 $148 $149 $54 $-1 $150 reversed single #
loop $-1 $-1 $151 $71 #
plane-surface $-1 59.293939110578478 -10.001303502930371 141.60364803527168 0 1 0 0.75470958851134928 0 0.65605901945558964 forward_v I I I I #
face $-1 $152 $153 $55 $-1 $154 forward single #
loop $-1 $155 $156 $72 #
cone-surface $-1 46.554581589048233 -7.0429934469440987 3.8168013371669964 -0.75470958851134928 0 -0.65605901945558964 0.65605901945558964 0 -0.75470958851134928 1 I I 0 1 1 forward I I I I #
face $-1 $157 $158 $56 $-1 $159 forward single #
loop $-1 $160 $161 $73 #
cone-surface $-1 46.554581589048233 -2.6055283629646873 3.8168013371669964 -0.75470958851134928 0 -0.65605901945558964 0.65605901945558964 0 -0.75470958851134928 1 I I 0 1 1 forward I I I I #
face $-1 $162 $163 $57 $-1 $164 reversed single #
loop $-1 $-1 $165 $74 #
plane-surface $-1 59.293939110578478 14.431838947244605 141.60364803527168 0 1 0 0.75470958851134928 0 0.65605901945558964 forward_v I I I I #
face $-1 $166 $167 $58 $-1 $168 forward single #
loop $-1 $169 $170 $75 #
cone-surface $-1 46.554581589048233 17.390149003230874 3.8168013371669964 -0.75470958851134928 0 -0.65605901945558964 0.65605901945558964 0 -0.75470958851134928 1 I I 0 1 1 forward I I I I #
face $-1 $171 $172 $59 $-1 $173 forward single #
loop $-1 $174 $175 $76 #
cone-surface $-1 46.554581589048233 21.827614087210293 3.8168013371669964 -0.75470958851134928 0 -0.65605901945558964 0.65605901945558964 0 -0.75470958851134928 1 I I 0 1 1 forward I I I I #
face $-1 $176 $177 $60 $-1 $178 reversed single #
loop $-1 $-1 $179 $77 #
plane-surface $-1 -135.29934115304297 -17.643257609405325 53.002395049549477 0 1 0 -0.86602541151947299 0 0.49999998660252726 forward_v I I I I #
face $-1 $180 $181 $61 $-1 $182 forward single #
loop $-1 $183 $184 $78 #
cone-surface $-1 -47.732067434148853 -16.043212988743697 4.8104056411369038 0.86602541151947299 0 -0.49999998660252726 0.24999999330126363 0 0.43301270575973649 1 I I 0 1 0.5 forward I I I I #
face $-1 $185 $186 $62 $-1 $187 forward single #
loop $-1 $188 $189 $79 #
cone-surface $-1 -47.732067434148853 -13.643146057751256 4.8104056411369038 0.86602541151947299 0 -0.49999998660252726 0.24999999330126363 0 0.43301270575973649 1 I I 0 1 0.5 forward I I I I #
face $-1 $190 $191 $63 $-1 $192 forward single #
loop $-1 $193 $194 $80 #
cone-surface $-1 -47.732067434148853 -11.243079126758818 4.8104056411369038 0.86602541151947299 0 -0.49999998660252726 0.24999999330126363 0 0.43301270575973649 1 I I 0 1 0.5 forward I I I I #
face $-1 $195 $196 $64 $-1 $197 reversed single #
loop $-1 $-1 $198 $81 #
plane-surface $-1 -135.29934115304297 6.7898848407696537 53.002395049549477 0 1 0 -0.86602541151947299 0 0.49999998660252726 forward_v I I I I #
face $-1 $199 $200 $65 $-1 $201 forward single #
loop $-1 $202 $203 $82 #
cone-surface $-1 -47.732067434148853 8.3899294614312794 4.8104056411369038 0.86602541151947299 0 -0.49999998660252726 0.24999999330126363 0 0.43301270575973649 1 I I 0 1 0.5 forward I I I I #
face $-1 $204 $205 $66 $-1 $206 forward single #
loop $-1 $207 $208 $83 #
cone-surface $-1 -47.732067434148853 10.789996392423717 4.8104056411369038 0.86602541151947299 0 -0.49999998660252726 0.24999999330126363 0 0.43301270575973649 1 I I 0 1 0.5 forward I I I I #
face $-1 $209 $210 $67 $-1 $211 forward single #
loop $-1 $212 $213 $84 #
cone-surface $-1 -47.732067434148853 13.190063323416155 4.8104056411369038 0.86602541151947299 0 -0.49999998660252726 0.24999999330126363 0 0.43301270575973649 1 I I 0 1 0.5 forward I I I I #
face $-1 $214 $215 $51 $-1 $216 reversed single #
loop $-1 $-1 $217 $85 #
plane-surface $-1 0 0 -7.0268975017406508 0 0 1 1 0 0 forward_v I I I I #
coedge $-1 $218 $219 $220 $221 forward $86 $-1 #
face $-1 $222 $223 $52 $-1 $224 reversed single #
loop $-1 $-1 $225 $88 #
plane-surface $-1 0 -27.991460666186732 -2.9139830242955371 0 0 1 1 0 0 forward_v I I I I #
coedge $-1 $226 $227 $228 $229 reversed $89 $-1 #
face $-1 $230 $231 $53 $-1 $232 reversed single #
loop $-1 $-1 $233 $91 #
plane-surface $-1 0 0 -7.0268975017406508 0 0 1 1 0 0 forward_v I I I I #
coedge $-1 $234 $235 $236 $237 forward $92 $-1 #
face $-1 $238 $239 $54 $-1 $240 reversed single #
loop $-1 $-1 $241 $94 #
plane-surface $-1 -15.45702029792011 -4.824260904954393 76.623632040461388 0.75470958851134928 0 0.65605901945558964 0.65605901945558964 0 -0.75470958851134928 forward_v I I I I #
coedge $-1 $242 $243 $244 $245 reversed $95 $-1 #
face $-1 $-1 $246 $55 $-1 $247 forward single #
loop $-1 $248 $249 $97 #
cone-surface $-1 45.449062291298432 -7.0429934469440987 2.8557880977544965 -0.75470958851134928 0 -0.65605901945558964 0.32802950972779482 0 -0.37735479425567464 1 I I -0.70710678118654746 0.70710678118654746 0.5 forward I I I I #
loop $-1 $-1 $250 $72 #
coedge $-1 $156 $156 $251 $252 reversed $98 $-1 #
face $-1 $-1 $253 $56 $-1 $254 forward single #
loop $-1 $255 $256 $100 #
cone-surface $-1 45.449062291298432 -2.6055283629646873 2.8557880977544965 -0.75470958851134928 0 -0.65605901945558964 0.32802950972779482 0 -0.37735479425567464 1 I I -0.70710678118654746 0.70710678118654746 0.5 forward I I I I #
loop $-1 $-1 $257 $73 #
coedge $-1 $161 $161 $258 $259 reversed $101 $-1 #
face $-1 $260 $261 $57 $-1 $262 reversed single #
loop $-1 $-1 $263 $103 #
plane-surface $-1 -15.45702029792011 19.608881545220584 76.623632040461388 0.75470958851134928 0 0.65605901945558964 0.65605901945558964 0 -0.75470958851134928 forward_v I I I I #
coedge $-1 $264 $265 $266 $267 reversed $104 $-1 #
face $-1 $-1 $268 $58 $-1 $269 forward single #
loop $-1 $270 $271 $106 #
cone-surface $-1 45.449062291298432 17.390149003230874 2.8557880977544965 -0.75470958851134928 0 -0.65605901945558964 0.32802950972779482 0 -0.37735479425567464 1 I I -0.70710678118654746 0.70710678118654746 0.5 forward I I I I #
loop $-1 $-1 $272 $75 #
coedge $-1 $170 $170 $273 $274 reversed $107 $-1 #
face $-1 $-1 $275 $59 $-1 $276 forward single #
loop $-1 $277 $278 $109 #
cone-surface $-1 45.449062291298432 21.827614087210293 2.8557880977544965 -0.75470958851134928 0 -0.65605901945558964 0.32802950972779482 0 -0.37735479425567464 1 I I -0.70710678118654746 0.70710678118654746 0.5 forward I I I I #
loop $-1 $-1 $279 $76 #
coedge $-1 $175 $175 $280 $281 reversed $110 $-1 #
face $-1 $282 $283 $60 $-1 $284 reversed single #
loop $-1 $-1 $285 $112 #
plane-surface $-1 -49.522995696890192 -13.64314605775126 3.4794006796252859 -0.86602541151947299 0 0.49999998660252726 0.49999998660252726 0 0.86602541151947299 forward_v I I I I #
coedge $-1 $286 $287 $288 $289 reversed $113 $-1 #
face $-1 $-1 $290 $61 $-1 $291 forward single #
loop $-1 $292 $293 $115 #
cone-surface $-1 -46.748706904539816 -16.043212988743697 4.2426621949402143 0.86602541151947299 0 -0.49999998660252726 0.12499999665063181 0 0.21650635287986825 1 I I -0.70710678118654746 0.70710678118654746 0.25 forward I I I I #
loop $-1 $-1 $294 $78 #
coedge $-1 $184 $184 $295 $296 reversed $116 $-1 #
face $-1 $-1 $297 $62 $-1 $298 forward single #
loop $-1 $299 $300 $118 #
cone-surface $-1 -46.748706904539816 -13.643146057751256 4.2426621949402143 0.86602541151947299 0 -0.49999998660252726 0.12499999665063181 0 0.21650635287986825 1 I I -0.70710678118654746 0.70710678118654746 0.25 forward I I I I #
loop $-1 $-1 $301 $79 #
coedge $-1 $189 $189 $302 $303 reversed $119 $-1 #
face $-1 $-1 $304 $63 $-1 $305 forward single #
loop $-1 $306 $307 $121 #
cone-surface $-1 -46.748706904539816 -11.243079126758818 4.2426621949402143 0.86602541151947299 0 -0.49999998660252726 0.12499999665063181 0 0.21650635287986825 1 I I -0.70710678118654746 0.70710678118654746 0.25 forward I I I I #
loop $-1 $-1 $308 $80 #
coedge $-1 $194 $194 $309 $310 reversed $122 $-1 #
face $-1 $311 $312 $64 $-1 $313 reversed single #
loop $-1 $-1 $314 $124 #
plane-surface $-1 -49.522995696890192 10.789996392423717 3.4794006796252859 -0.86602541151947299 0 0.49999998660252726 0.49999998660252726 0 0.86602541151947299 forward_v I I I I #
coedge $-1 $315 $316 $317 $318 reversed $125 $-1 #
face $-1 $-1 $319 $65 $-1 $320 forward single #
loop $-1 $321 $322 $127 #
cone-surface $-1 -46.748706904539816 8.3899294614312794 4.2426621949402143 0.86602541151947299 0 -0.49999998660252726 0.12499999665063181 0 0.21650635287986825 1 I I -0.70710678118654746 0.70710678118654746 0.25 forward I I I I #
loop $-1 $-1 $323 $82 #
coedge $-1 $203 $203 $324 $325 reversed $128 $-1 #
face $-1 $-1 $326 $66 $-1 $327 forward single #
loop $-1 $328 $329 $130 #
cone-surface $-1 -46.748706904539816 10.789996392423717 4.2426621949402143 0.86602541151947299 0 -0.49999998660252726 0.12499999665063181 0 0.21650635287986825 1 I I -0.70710678118654746 0.70710678118654746 0.25 forward I I I I #
loop $-1 $-1 $330 $83 #
coedge $-1 $208 $208 $331 $332 reversed $131 $-1 #
face $-1 $-1 $333 $67 $-1 $334 forward single #
loop $-1 $335 $336 $133 #
cone-surface $-1 -46.748706904539816 13.190063323416155 4.2426621949402143 0.86602541151947299 0 -0.49999998660252726 0.12499999665063181 0 0.21650635287986825 1 I I -0.70710678118654746 0.70710678118654746 0.25 forward I I I I #
loop $-1 $-1 $337 $84 #
coedge $-1 $213 $213 $338 $339 reversed $134 $-1 #
face $-1 $340 $341 $51 $-1 $342 reversed single #
loop $-1 $-1 $343 $136 #
plane-surface $-1 0 -31.902560575220079 0 0 1 0 0 0 1 forward_v I I I I #
coedge $-1 $344 $345 $346 $347 forward $137 $-1 #
coedge $-1 $348 $139 $349 $350 forward $86 $-1 #
coedge $-1 $139 $348 $351 $352 forward $86 $-1 #
coedge $-1 $353 $354 $139 $221 reversed $355 $-1 #
edge $-1 $356 -31.902560575220079 $357 31.902560575220079 $220 $358 forward 7 unknown #
face $-1 $359 $360 $52 $-1 $361 reversed single #
loop $-1 $-1 $362 $140 #
plane-surface $-1 0 -24.080360757153386 -1.4139830242955371 0 -1 0 0 0 -1 forward_v I I I I #
coedge $-1 $363 $364 $365 $366 reversed $141 $-1 #
coedge $-1 $367 $143 $368 $369 forward $89 $-1 #
coedge $-1 $143 $367 $370 $371 reversed $89 $-1 #
coedge $-1 $372 $373 $143 $229 forward $374 $-1 #
edge $-1 $375 10.08463042406002 $376 17.906830242126713 $228 $377 forward 7 unknown #
face $-1 $378 $379 $53 $-1 $380 reversed single #
loop $-1 $-1 $381 $144 #
plane-surface $-1 -48.376696205883071 35.460878791231835 0 1 0 0 0 0 -1 forward_v I I I I #
coedge $-1 $382 $383 $235 $384 forward $145 $-1 #
coedge $-1 $385 $147 $386 $387 reversed $92 $-1 #
coedge $-1 $147 $385 $233 $384 reversed $92 $-1 #
coedge $-1 $388 $389 $147 $237 reversed $390 $-1 #
edge $-1 $391 -7.0268975017406508 $392 7.0268975017406508 $236 $393 forward 7 unknown #
face $-1 $394 $395 $54 $-1 $396 reversed single #
loop $-1 $-1 $397 $148 #
plane-surface $-1 59.293939110578478 0.35278169302158524 141.60364803527168 0 -1 0 -0.75470958851134928 0 -0.65605901945558964 forward_v I I I I #
coedge $-1 $398 $399 $400 $401 reversed $149 $-1 #
coedge $-1 $243 $151 $402 $403 reversed $95 $-1 #
coedge $-1 $151 $242 $398 $404 reversed $95 $-1 #
coedge $-1 $400 $405 $151 $245 forward $395 $-1 #
edge $-1 $406 63.774926515895189 $407 68.929151385673023 $244 $408 forward 7 unknown #
loop $-1 $-1 $251 $152 #
plane-surface $-1 -15.45702029792011 -4.824260904954393 76.623632040461388 0.75470958851134928 0 0.65605901945558964 0.65605901945558964 0 -0.75470958851134928 forward_v I I I I #
loop $-1 $-1 $409 $97 #
coedge $-1 $249 $249 $250 $410 reversed $153 $-1 #
coedge $-1 $250 $250 $249 $410 forward $155 $-1 #
coedge $-1 $251 $251 $156 $252 forward $246 $-1 #
edge $-1 $411 0 $411 6.2831853071796004 $251 $412 forward 7 unknown #
loop $-1 $-1 $258 $157 #
plane-surface $-1 -15.45702029792011 -4.824260904954393 76.623632040461388 0.75470958851134928 0 0.65605901945558964 0.65605901945558964 0 -0.75470958851134928 forward_v I I I I #
loop $-1 $-1 $413 $100 #
coedge $-1 $256 $256 $257 $414 reversed $158 $-1 #
coedge $-1 $257 $257 $256 $414 forward $160 $-1 #
coedge $-1 $258 $258 $161 $259 forward $253 $-1 #
edge $-1 $415 0 $415 6.2831853071796004 $258 $416 forward 7 unknown #
face $-1 $417 $418 $57 $-1 $419 reversed single #
loop $-1 $-1 $420 $162 #
plane-surface $-1 59.293939110578478 24.78592414319656 141.60364803527168 0 -1 0 -0.75470958851134928 0 -0.65605901945558964 forward_v I I I I #
coedge $-1 $421 $422 $423 $424 reversed $163 $-1 #
coedge $-1 $265 $165 $425 $426 reversed $104 $-1 #
coedge $-1 $165 $264 $421 $427 reversed $104 $-1 #
coedge $-1 $423 $428 $165 $267 forward $418 $-1 #
edge $-1 $429 63.774926515895189 $430 68.929151385673023 $266 $431 forward 7 unknown #
loop $-1 $-1 $273 $166 #
plane-surface $-1 -15.45702029792011 19.608881545220584 76.623632040461388 0.75470958851134928 0 0.65605901945558964 0.65605901945558964 0 -0.75470958851134928 forward_v I I I I #
loop $-1 $-1 $432 $106 #
coedge $-1 $271 $271 $272 $433 reversed $167 $-1 #
coedge $-1 $272 $272 $271 $433 forward $169 $-1 #
coedge $-1 $273 $273 $170 $274 forward $268 $-1 #
edge $-1 $434 0 $434 6.2831853071796004 $273 $435 forward 7 unknown #
loop $-1 $-1 $280 $171 #
plane-surface $-1 -15.45702029792011 19.608881545220584 76.623632040461388 0.75470958851134928 0 0.65605901945558964 0.65605901945558964 0 -0.75470958851134928 forward_v I I I I #
loop $-1 $-1 $436 $109 #
coedge $-1 $278 $278 $279 $437 reversed $172 $-1 #
coedge $-1 $279 $279 $278 $437 forward $174 $-1 #
coedge $-1 $280 $280 $175 $281 forward $275 $-1 #
edge $-1 $438 0 $438 6.2831853071796004 $280 $439 forward 7 unknown #
face $-1 $440 $441 $60 $-1 $442 reversed single #
loop $-1 $-1 $443 $176 #
plane-surface $-1 -135.29934115304297 -9.6430345060971963 53.002395049549477 0 -1 0 0.86602541151947299 0 -0.49999998660252726 forward_v I I I I #
coedge $-1 $444 $445 $446 $447 reversed $177 $-1 #
coedge $-1 $287 $179 $448 $449 reversed $113 $-1 #
coedge $-1 $179 $286 $444 $450 reversed $113 $-1 #
coedge $-1 $446 $451 $179 $289 forward $452 $-1 #
edge $-1 $453 18.126674879631324 $454 20.174823051655586 $288 $455 forward 7 unknown #
loop $-1 $-1 $295 $180 #
plane-surface $-1 -49.522995696890192 -13.64314605775126 3.4794006796252859 -0.86602541151947299 0 0.49999998660252726 0.49999998660252726 0 0.86602541151947299 forward_v I I I I #
loop $-1 $-1 $456 $115 #
coedge $-1 $293 $293 $294 $457 reversed $181 $-1 #
coedge $-1 $294 $294 $293 $457 forward $183 $-1 #
coedge $-1 $295 $295 $184 $296 forward $290 $-1 #
edge $-1 $458 0 $458 6.2831853071796004 $295 $459 forward 7 unknown #
loop $-1 $-1 $302 $185 #
plane-surface $-1 -49.522995696890192 -13.64314605775126 3.4794006796252859 -0.86602541151947299 0 0.49999998660252726 0.49999998660252726 0 0.86602541151947299 forward_v I I I I #
loop $-1 $-1 $460 $118 #
coedge $-1 $300 $300 $301 $461 reversed $186 $-1 #
coedge $-1 $301 $301 $300 $461 forward $188 $-1 #
coedge $-1 $302 $302 $189 $303 forward $297 $-1 #
edge $-1 $462 0 $462 6.2831853071796004 $302 $463 forward 7 unknown #
loop $-1 $-1 $309 $190 #
plane-surface $-1 -49.522995696890192 -13.64314605775126 3.4794006796252859 -0.86602541151947299 0 0.49999998660252726 0.49999998660252726 0 0.86602541151947299 forward_v I I I I #
loop $-1 $-1 $464 $121 #
coedge $-1 $307 $307 $308 $465 reversed $191 $-1 #
coedge $-1 $308 $308 $307 $465 forward $193 $-1 #
coedge $-1 $309 $309 $194 $310 forward $304 $-1 #
edge $-1 $466 0 $466 6.2831853071796004 $309 $467 forward 7 unknown #
face $-1 $468 $469 $64 $-1 $470 forward single #
loop $-1 $-1 $471 $195 #
plane-surface $-1 -135.29934115304297 14.79010794407778 53.002395049549477 0 -1 0 0.86602541151947299 0 -0.49999998660252726 forward_v I I I I #
coedge $-1 $472 $473 $474 $475 reversed $196 $-1 #
coedge $-1 $316 $198 $476 $477 reversed $125 $-1 #
coedge $-1 $198 $315 $472 $478 reversed $125 $-1 #
coedge $-1 $474 $479 $198 $318 forward $469 $-1 #
edge $-1 $480 18.126674879631324 $481 20.174823051655586 $317 $482 forward 7 unknown #
loop $-1 $-1 $324 $199 #
plane-surface $-1 -49.522995696890192 10.789996392423717 3.4794006796252859 -0.86602541151947299 0 0.49999998660252726 0.49999998660252726 0 0.86602541151947299 forward_v I I I I #
loop $-1 $-1 $483 $127 #
coedge $-1 $322 $322 $323 $484 reversed $200 $-1 #
coedge $-1 $323 $323 $322 $484 forward $202 $-1 #
coedge $-1 $324 $324 $203 $325 forward $319 $-1 #
edge $-1 $485 0 $485 6.2831853071796004 $324 $486 forward 7 unknown #
loop $-1 $-1 $331 $204 #
plane-surface $-1 -49.522995696890192 10.789996392423717 3.4794006796252859 -0.86602541151947299 0 0.49999998660252726 0.49999998660252726 0 0.86602541151947299 forward_v I I I I #
loop $-1 $-1 $487 $130 #
coedge $-1 $329 $329 $330 $488 reversed $205 $-1 #
coedge $-1 $330 $330 $329 $488 forward $207 $-1 #
coedge $-1 $331 $331 $208 $332 forward $326 $-1 #
edge $-1 $489 0 $489 6.2831853071796004 $331 $490 forward 7 unknown #
loop $-1 $-1 $338 $209 #
plane-surface $-1 -49.522995696890192 10.789996392423717 3.4794006796252859 -0.86602541151947299 0 0.49999998660252726 0.49999998660252726 0 0.86602541151947299 forward_v I I I I #
loop $-1 $-1 $491 $133 #
coedge $-1 $336 $336 $337 $492 reversed $210 $-1 #
coedge $-1 $337 $337 $336 $492 forward $212 $-1 #
coedge $-1 $338 $338 $213 $339 forward $333 $-1 #
edge $-1 $493 0 $493 6.2831853071796004 $338 $494 forward 7 unknown #
face $-1 $495 $496 $51 $-1 $497 reversed single #
loop $-1 $-1 $498 $214 #
plane-surface $-1 -49.522995696890163 0 0 1 0 0 0 0 -1 forward_v I I I I #
coedge $-1 $499 $351 $500 $501 forward $215 $-1 #
coedge $-1 $502 $217 $499 $503 forward $137 $-1 #
coedge $-1 $217 $502 $504 $505 forward $137 $-1 #
coedge $-1 $354 $353 $217 $347 reversed $355 $-1 #
edge $-1 $506 -31.902560575220079 $507 31.902560575220079 $346 $508 forward 7 unknown #
coedge $-1 $219 $218 $509 $510 forward $86 $-1 #
coedge $-1 $511 $512 $218 $350 reversed $496 $-1 #
edge $-1 $357 -49.522995696890163 $513 49.522995696890163 $349 $514 forward 7 unknown #
coedge $-1 $343 $515 $219 $352 reversed $215 $-1 #
edge $-1 $516 -49.522995696890163 $356 49.522995696890163 $351 $517 forward 7 unknown #
coedge $-1 $346 $220 $515 $518 forward $355 $-1 #
coedge $-1 $220 $346 $511 $519 reversed $355 $-1 #
loop $-1 $-1 $353 $495 #
vertex $-1 $221 $520 #
vertex $-1 $221 $521 #
straight-curve $-1 49.522995696890163 0 7.0268975017406508 0 1 0 I I #
face $-1 $522 $523 $52 $-1 $524 reversed single #
loop $-1 $-1 $525 $222 #
plane-surface $-1 -49.522995696890163 0 0 1 0 0 0 0 -1 forward_v I I I I #
coedge $-1 $526 $368 $373 $527 reversed $223 $-1 #
coedge $-1 $528 $225 $529 $530 reversed $141 $-1 #
coedge $-1 $225 $528 $526 $531 forward $141 $-1 #
coedge $-1 $373 $372 $225 $366 forward $374 $-1 #
edge $-1 $532 -17.906830242126713 $533 -10.08463042406002 $365 $534 forward 7 unknown #
coedge $-1 $227 $226 $525 $535 reversed $89 $-1 #
coedge $-1 $362 $536 $226 $369 reversed $223 $-1 #
edge $-1 $375 -49.522995696890163 $537 49.522995696890163 $368 $538 forward 7 unknown #
coedge $-1 $539 $540 $227 $371 forward $523 $-1 #
edge $-1 $376 -49.522995696890163 $541 49.522995696890163 $370 $542 forward 7 unknown #
coedge $-1 $365 $228 $540 $543 forward $374 $-1 #
coedge $-1 $228 $365 $362 $527 forward $374 $-1 #
loop $-1 $-1 $228 $522 #
vertex $-1 $229 $544 #
vertex $-1 $543 $545 #
straight-curve $-1 49.522995696890163 -13.995730333093366 0.086016975704462872 0 -1 0 I I #
face $-1 $546 $390 $53 $-1 $547 reversed single #
loop $-1 $-1 $548 $230 #
plane-surface $-1 -46.876696205883071 39.019197007243591 0 0 -1 0 0 0 -1 forward_v I I I I #
coedge $-1 $549 $550 $551 $552 forward $231 $-1 #
coedge $-1 $553 $233 $549 $554 forward $145 $-1 #
coedge $-1 $233 $553 $388 $555 forward $145 $-1 #
edge $-1 $391 45.376696205883071 $556 48.376696205883071 $233 $557 forward 7 unknown #
coedge $-1 $235 $234 $558 $559 forward $92 $-1 #
coedge $-1 $560 $561 $234 $387 forward $562 $-1 #
edge $-1 $563 -48.376696205883071 $392 -45.376696205883071 $386 $564 forward 7 unknown #
coedge $-1 $565 $236 $383 $555 reversed $390 $-1 #
coedge $-1 $236 $565 $560 $566 reversed $390 $-1 #
loop $-1 $-1 $236 $378 #
vertex $-1 $384 $567 #
vertex $-1 $566 $568 #
straight-curve $-1 -45.376696205883071 31.902560575220079 0 0 0 1 I I #
face $-1 $-1 $569 $54 $-1 $570 forward single #
loop $-1 $-1 $244 $238 #
plane-surface $-1 49.522995696890163 0 0 -1 0 0 0 0 1 forward_v I I I I #
coedge $-1 $571 $572 $573 $574 reversed $239 $-1 #
coedge $-1 $575 $241 $243 $404 forward $149 $-1 #
coedge $-1 $241 $575 $571 $576 forward $149 $-1 #
coedge $-1 $573 $244 $241 $401 forward $395 $-1 #
edge $-1 $407 -7.5891730504531747 $577 2.7649121454987817 $400 $578 forward 7 unknown #
coedge $-1 $579 $580 $242 $403 forward $569 $-1 #
edge $-1 $581 15.395526932905355 $406 19.876026141600924 $402 $582 forward 7 unknown #
edge $-1 $407 -99.045991393780326 $581 -92.216576545686962 $243 $583 forward 7 unknown #
coedge $-1 $244 $573 $579 $584 reversed $395 $-1 #
vertex $-1 $584 $585 #
vertex $-1 $245 $586 #
straight-curve $-1 49.522995696890163 -10.001303502930371 70.801824017635838 0 0 -1 I I #
coedge $-1 $409 $409 $-1 $587 reversed $248 $-1 #
edge $-1 $588 0 $588 6.2831853071796004 $249 $589 forward 7 unknown #
vertex $-1 $252 $590 #
ellipse-curve $-1 47.282746092542389 -7.0429934469440987 4.4497850668517254 0.75470958851134928 0 0.65605901945558964 0.65605901945558964 0 -0.75470958851134928 1 I I #
coedge $-1 $413 $413 $-1 $591 reversed $255 $-1 #
edge $-1 $592 0 $592 6.2831853071796004 $256 $593 forward 7 unknown #
vertex $-1 $259 $594 #
ellipse-curve $-1 47.282746092542389 -2.6055283629646873 4.4497850668517254 0.75470958851134928 0 0.65605901945558964 0.65605901945558964 0 -0.75470958851134928 1 I I #
face $-1 $-1 $595 $57 $-1 $596 forward single #
loop $-1 $-1 $266 $260 #
plane-surface $-1 49.522995696890163 0 0 -1 0 0 0 0 1 forward_v I I I I #
coedge $-1 $597 $598 $599 $600 reversed $261 $-1 #
coedge $-1 $601 $263 $265 $427 forward $163 $-1 #
coedge $-1 $263 $601 $597 $602 forward $163 $-1 #
coedge $-1 $599 $266 $263 $424 forward $418 $-1 #
edge $-1 $430 4.6273981746343136 $603 14.981483370586268 $423 $604 forward 7 unknown #
coedge $-1 $605 $606 $264 $426 forward $595 $-1 #
edge $-1 $607 15.395526932905355 $429 19.876026141600924 $425 $608 forward 7 unknown #
edge $-1 $430 -99.045991393780326 $607 -92.216576545686962 $265 $609 forward 7 unknown #
coedge $-1 $266 $599 $605 $610 reversed $418 $-1 #
vertex $-1 $610 $611 #
vertex $-1 $267 $612 #
straight-curve $-1 49.522995696890163 14.431838947244605 70.801824017635838 0 0 -1 I I #
coedge $-1 $432 $432 $-1 $613 reversed $270 $-1 #
edge $-1 $614 0 $614 6.2831853071796004 $271 $615 forward 7 unknown #
vertex $-1 $274 $616 #
ellipse-curve $-1 47.282746092542389 17.390149003230874 4.4497850668517254 0.75470958851134928 0 0.65605901945558964 0.65605901945558964 0 -0.75470958851134928 1 I I #
coedge $-1 $436 $436 $-1 $617 reversed $277 $-1 #
edge $-1 $618 0 $618 6.2831853071796004 $278 $619 forward 7 unknown #
vertex $-1 $281 $620 #
ellipse-curve $-1 47.282746092542389 21.827614087210293 4.4497850668517254 0.75470958851134928 0 0.65605901945558964 0.65605901945558964 0 -0.75470958851134928 1 I I #
face $-1 $-1 $452 $60 $-1 $621 forward single #
loop $-1 $-1 $622 $282 #
plane-surface $-1 -49.522995696890163 0 0 1 0 0 0 0 -1 forward_v I I I I #
coedge $-1 $623 $624 $625 $626 reversed $283 $-1 #
coedge $-1 $627 $285 $287 $450 forward $177 $-1 #
coedge $-1 $285 $627 $623 $628 forward $177 $-1 #
coedge $-1 $625 $288 $285 $447 forward $452 $-1 #
edge $-1 $454 -10.821684580529695 $629 -2.8214614772215665 $446 $630 forward 7 unknown #
coedge $-1 $631 $632 $286 $449 forward $441 $-1 #
edge $-1 $633 -23.021796845149403 $453 -19.47430002303409 $448 $634 forward 7 unknown #
edge $-1 $454 -4.096296453808618 $633 -5.6900626353428066e-014 $287 $635 forward 7 unknown #
coedge $-1 $288 $625 $631 $636 forward $452 $-1 #
loop $-1 $-1 $625 $440 #
vertex $-1 $449 $637 #
vertex $-1 $289 $638 #
straight-curve $-1 -67.649670576521487 -17.643257609405325 7.026897501740649 1 0 0 I I #
coedge $-1 $456 $456 $-1 $639 reversed $292 $-1 #
edge $-1 $640 0 $640 6.2831853071796004 $293 $641 forward 7 unknown #
vertex $-1 $296 $642 #
ellipse-curve $-1 -48.498921610878043 -16.043212988743697 5.2531490906829754 -0.86602541151947299 0 0.49999998660252726 0.24999999330126363 0 0.43301270575973649 1 I I #
coedge $-1 $460 $460 $-1 $643 reversed $299 $-1 #
edge $-1 $644 0 $644 6.2831853071796004 $300 $645 forward 7 unknown #
vertex $-1 $303 $646 #
ellipse-curve $-1 -48.498921610878043 -13.643146057751256 5.2531490906829754 -0.86602541151947299 0 0.49999998660252726 0.24999999330126363 0 0.43301270575973649 1 I I #
coedge $-1 $464 $464 $-1 $647 reversed $306 $-1 #
edge $-1 $648 0 $648 6.2831853071796004 $307 $649 forward 7 unknown #
vertex $-1 $310 $650 #
ellipse-curve $-1 -48.498921610878043 -11.243079126758818 5.2531490906829754 -0.86602541151947299 0 0.49999998660252726 0.24999999330126363 0 0.43301270575973649 1 I I #
face $-1 $-1 $651 $64 $-1 $652 reversed single #
loop $-1 $-1 $317 $311 #
plane-surface $-1 0 0 7.0268975017406508 0 0 1 1 0 0 forward_v I I I I #
coedge $-1 $653 $654 $655 $656 reversed $312 $-1 #
coedge $-1 $657 $314 $316 $478 forward $196 $-1 #
coedge $-1 $314 $657 $653 $658 forward $196 $-1 #
coedge $-1 $655 $317 $314 $475 forward $469 $-1 #
edge $-1 $481 1.3948866445577952 $659 9.3951097478659218 $474 $660 forward 7 unknown #
coedge $-1 $661 $662 $315 $477 forward $651 $-1 #
edge $-1 $663 -23.021796845149403 $480 -19.47430002303409 $476 $664 forward 7 unknown #
edge $-1 $481 -4.096296453808618 $663 -5.6900626353428066e-014 $316 $665 forward 7 unknown #
coedge $-1 $317 $655 $661 $666 forward $469 $-1 #
vertex $-1 $318 $667 #
vertex $-1 $318 $668 #
straight-curve $-1 -67.649670576521487 6.7898848407696537 7.026897501740649 1 0 0 I I #
coedge $-1 $483 $483 $-1 $669 reversed $321 $-1 #
edge $-1 $670 0 $670 6.2831853071796004 $322 $671 forward 7 unknown #
vertex $-1 $325 $672 #
ellipse-curve $-1 -48.498921610878043 8.3899294614312794 5.2531490906829754 -0.86602541151947299 0 0.49999998660252726 0.24999999330126363 0 0.43301270575973649 1 I I #
coedge $-1 $487 $487 $-1 $673 reversed $328 $-1 #
edge $-1 $674 0 $674 6.2831853071796004 $329 $675 forward 7 unknown #
vertex $-1 $332 $676 #
ellipse-curve $-1 -48.498921610878043 10.789996392423717 5.2531490906829754 -0.86602541151947299 0 0.49999998660252726 0.24999999330126363 0 0.43301270575973649 1 I I #
coedge $-1 $491 $491 $-1 $677 reversed $335 $-1 #
edge $-1 $678 0 $678 6.2831853071796004 $336 $679 forward 7 unknown #
vertex $-1 $339 $680 #
ellipse-curve $-1 -48.498921610878043 13.190063323416155 5.2531490906829754 -0.86602541151947299 0 0.49999998660252726 0.24999999330126363 0 0.43301270575973649 1 I I #
face $-1 $-1 $355 $51 $-1 $681 reversed single #
loop $-1 $-1 $511 $340 #
plane-surface $-1 0 31.902560575220079 0 0 -1 0 0 0 -1 forward_v I I I I #
coedge $-1 $682 $509 $512 $683 forward $341 $-1 #
coedge $-1 $515 $343 $344 $503 reversed $215 $-1 #
coedge $-1 $509 $682 $343 $501 reversed $341 $-1 #
edge $-1 $516 -7.0268975017406508 $684 7.0268975017406508 $500 $685 forward 7 unknown #
coedge $-1 $345 $344 $682 $686 forward $137 $-1 #
edge $-1 $507 -49.522995696890163 $684 49.522995696890163 $499 $687 forward 7 unknown #
coedge $-1 $512 $511 $345 $505 reversed $496 $-1 #
edge $-1 $688 -49.522995696890163 $506 49.522995696890163 $504 $689 forward 7 unknown #
vertex $-1 $347 $690 #
vertex $-1 $518 $691 #
straight-curve $-1 49.522995696890163 0 -7.0268975017406508 0 -1 0 I I #
coedge $-1 $498 $500 $348 $510 reversed $341 $-1 #
edge $-1 $513 -31.902560575220079 $516 31.902560575220079 $509 $692 forward 7 unknown #
coedge $-1 $504 $349 $354 $519 forward $496 $-1 #
coedge $-1 $349 $504 $498 $683 reversed $496 $-1 #
vertex $-1 $350 $693 #
straight-curve $-1 0 31.902560575220079 7.0268975017406508 -1 0 0 I I #
coedge $-1 $351 $499 $353 $518 reversed $215 $-1 #
vertex $-1 $510 $694 #
straight-curve $-1 0 -31.902560575220079 7.0268975017406508 1 0 0 I I #
edge $-1 $356 -7.0268975017406508 $507 7.0268975017406508 $353 $695 forward 7 unknown #
edge $-1 $357 -7.0268975017406508 $506 7.0268975017406508 $354 $696 forward 7 unknown #
point $-1 49.522995696890163 -31.902560575220079 7.0268975017406508 #
point $-1 49.522995696890163 31.902560575220079 7.0268975017406508 #
face $-1 $-1 $374 $52 $-1 $697 reversed single #
loop $-1 $-1 $370 $359 #
plane-surface $-1 0 -31.902560575220079 0 0 1 0 0 0 1 forward_v I I I I #
coedge $-1 $698 $699 $367 $535 forward $360 $-1 #
coedge $-1 $536 $362 $364 $531 reversed $223 $-1 #
edge $-1 $533 -2.2069915121477686 $375 0.79300848785223144 $373 $700 forward 7 unknown #
coedge $-1 $364 $363 $701 $702 reversed $141 $-1 #
coedge $-1 $540 $539 $363 $530 forward $523 $-1 #
edge $-1 $703 -49.522995696890163 $532 49.522995696890163 $529 $704 forward 7 unknown #
edge $-1 $705 -49.522995696890163 $533 49.522995696890163 $526 $706 forward 7 unknown #
vertex $-1 $530 $707 #
vertex $-1 $366 $708 #
straight-curve $-1 49.522995696890163 -13.995730333093366 -2.9139830242955371 0 1 0 I I #
edge $-1 $541 -17.906830242126713 $537 -10.08463042406002 $525 $709 forward 7 unknown #
coedge $-1 $368 $526 $698 $710 reversed $223 $-1 #
vertex $-1 $535 $711 #
straight-curve $-1 0 -24.080360757153386 0.086016975704462872 -1 0 0 I I #
coedge $-1 $529 $370 $699 $712 forward $523 $-1 #
coedge $-1 $370 $529 $372 $543 reversed $523 $-1 #
vertex $-1 $712 $713 #
straight-curve $-1 0 -31.902560575220079 0.086016975704462872 -1 0 0 I I #
edge $-1 $376 -0.086016975704462872 $532 2.9139830242955371 $372 $714 forward 7 unknown #
point $-1 49.522995696890163 -24.080360757153386 0.086016975704462872 #
point $-1 49.522995696890163 -31.902560575220079 0.086016975704462872 #
face $-1 $-1 $562 $53 $-1 $715 forward single #
plane-surface $-1 -45.376696205883071 35.460878791231835 0 -1 0 0 0 0 1 forward_v I I I I #
coedge $-1 $716 $717 $565 $718 forward $379 $-1 #
coedge $-1 $558 $381 $382 $554 reversed $231 $-1 #
coedge $-1 $381 $558 $561 $719 reversed $231 $-1 #
coedge $-1 $717 $716 $381 $552 reversed $379 $-1 #
edge $-1 $720 -7.0268975017406508 $721 7.0268975017406508 $551 $722 forward 7 unknown #
coedge $-1 $383 $382 $716 $723 forward $145 $-1 #
edge $-1 $556 -3.5583182160117559 $721 3.5583182160117559 $549 $724 forward 7 unknown #
edge $-1 $725 -3.5583182160117559 $391 3.5583182160117559 $388 $726 forward 7 unknown #
vertex $-1 $554 $727 #
straight-curve $-1 0 31.902560575220079 -7.0268975017406508 -1 0 0 I I #
coedge $-1 $550 $549 $385 $559 reversed $231 $-1 #
edge $-1 $563 -7.0268975017406508 $556 7.0268975017406508 $558 $728 forward 7 unknown #
coedge $-1 $729 $386 $389 $566 forward $562 $-1 #
coedge $-1 $386 $729 $550 $719 forward $562 $-1 #
loop $-1 $-1 $386 $546 #
vertex $-1 $387 $730 #
straight-curve $-1 0 31.902560575220079 7.0268975017406508 1 0 0 I I #
coedge $-1 $389 $388 $548 $718 reversed $390 $-1 #
edge $-1 $392 -3.5583182160117559 $731 3.5583182160117559 $389 $732 forward 7 unknown #
point $-1 -45.376696205883071 31.902560575220079 -7.0268975017406508 #
point $-1 -45.376696205883071 31.902560575220079 7.0268975017406508 #
loop $-1 $-1 $402 $394 #
plane-surface $-1 0 0 7.0268975017406508 0 0 1 1 0 0 forward_v I I I I #
coedge $-1 $572 $397 $399 $576 reversed $239 $-1 #
coedge $-1 $397 $571 $733 $734 reversed $239 $-1 #
coedge $-1 $405 $400 $397 $574 forward $395 $-1 #
edge $-1 $577 -68.929151385673023 $735 -63.774926515895189 $573 $736 forward 7 unknown #
coedge $-1 $399 $398 $580 $737 reversed $149 $-1 #
edge $-1 $738 92.216576545686962 $577 99.045991393780326 $571 $739 forward 7 unknown #
vertex $-1 $401 $740 #
straight-curve $-1 49.522995696890163 -2.4121304524771965 1.8726726319628213 0 1 0 I I #
coedge $-1 $733 $402 $405 $584 forward $569 $-1 #
coedge $-1 $402 $733 $575 $737 forward $569 $-1 #
vertex $-1 $403 $741 #
straight-curve $-1 29.646969555289239 -10.001303502930371 7.026897501740649 1 0 0 I I #
straight-curve $-1 -15.45702029792011 -10.001303502930371 76.623632040461388 -0.65605901945558964 0 0.75470958851134928 I I #
edge $-1 $406 -10.001303502930371 $735 0.35278169302158524 $405 $742 forward 7 unknown #
point $-1 49.522995696890163 -10.001303502930371 7.0268975017406508 #
point $-1 49.522995696890163 -10.001303502930371 1.8726726319628142 #
edge $-1 $743 1 $743 0 $409 $-1 forward 7 unknown #
vertex $-1 $410 $744 #
ellipse-curve $-1 45.826417085554105 -7.0429934469440987 3.1838176074822915 0.75470958851134928 0 0.65605901945558964 0.65605901945558964 0 -0.75470958851134928 1 I I #
point $-1 47.938805111997951 -7.0429934469440987 3.6950754783403528 #
edge $-1 $745 1 $745 0 $413 $-1 forward 7 unknown #
vertex $-1 $414 $746 #
ellipse-curve $-1 45.826417085554105 -2.6055283629646873 3.1838176074822915 0.75470958851134928 0 0.65605901945558964 0.65605901945558964 0 -0.75470958851134928 1 I I #
point $-1 47.938805111997951 -2.6055283629646873 3.6950754783403528 #
loop $-1 $-1 $425 $417 #
plane-surface $-1 0 0 7.0268975017406508 0 0 1 1 0 0 forward_v I I I I #
coedge $-1 $598 $420 $422 $602 reversed $261 $-1 #
coedge $-1 $420 $597 $747 $748 reversed $261 $-1 #
coedge $-1 $428 $423 $420 $600 forward $418 $-1 #
edge $-1 $603 -68.929151385673023 $749 -63.774926515895189 $599 $750 forward 7 unknown #
coedge $-1 $422 $421 $606 $751 reversed $163 $-1 #
edge $-1 $752 92.216576545686962 $603 99.045991393780326 $597 $753 forward 7 unknown #
vertex $-1 $424 $754 #
straight-curve $-1 49.522995696890163 9.8044407726102918 1.8726726319628213 0 1 0 I I #
coedge $-1 $747 $425 $428 $610 forward $595 $-1 #
coedge $-1 $425 $747 $601 $751 forward $595 $-1 #
vertex $-1 $426 $755 #
straight-curve $-1 29.646969555289239 14.431838947244605 7.026897501740649 1 0 0 I I #
straight-curve $-1 -15.45702029792011 14.431838947244605 76.623632040461388 -0.65605901945558964 0 0.75470958851134928 I I #
edge $-1 $429 14.431838947244605 $749 24.78592414319656 $428 $756 forward 7 unknown #
point $-1 49.522995696890163 14.431838947244605 7.0268975017406508 #
point $-1 49.522995696890163 14.431838947244605 1.8726726319628142 #
edge $-1 $757 1 $757 0 $432 $-1 forward 7 unknown #
vertex $-1 $433 $758 #
ellipse-curve $-1 45.826417085554105 17.390149003230874 3.1838176074822915 0.75470958851134928 0 0.65605901945558964 0.65605901945558964 0 -0.75470958851134928 1 I I #
point $-1 47.938805111997951 17.390149003230874 3.6950754783403528 #
edge $-1 $759 1 $759 0 $436 $-1 forward 7 unknown #
vertex $-1 $437 $760 #
ellipse-curve $-1 45.826417085554105 21.827614087210293 3.1838176074822915 0.75470958851134928 0 0.65605901945558964 0.65605901945558964 0 -0.75470958851134928 1 I I #
point $-1 47.938805111997951 21.827614087210293 3.6950754783403528 #
plane-surface $-1 0 0 7.0268975017406508 0 0 1 1 0 0 forward_v I I I I #
coedge $-1 $632 $631 $624 $761 forward $441 $-1 #
coedge $-1 $624 $443 $445 $628 reversed $283 $-1 #
coedge $-1 $443 $623 $622 $761 reversed $283 $-1 #
coedge $-1 $451 $446 $443 $626 forward $452 $-1 #
edge $-1 $629 -20.174823051655586 $762 -18.126674879631324 $625 $763 forward 7 unknown #
coedge $-1 $445 $444 $632 $764 reversed $177 $-1 #
edge $-1 $765 5.6900626353428066e-014 $629 4.096296453808618 $623 $766 forward 7 unknown #
vertex $-1 $447 $767 #
straight-curve $-1 -47.474847524865901 -6.8215730288756298 7.0268975017406508 0 1 0 I I #
coedge $-1 $622 $448 $451 $636 reversed $441 $-1 #
coedge $-1 $448 $622 $627 $764 forward $441 $-1 #
vertex $-1 $449 $768 #
straight-curve $-1 -49.522995696890163 -17.643257609405325 26.501197524774739 0 0 1 I I #
straight-curve $-1 -49.522995696890192 -17.643257609405325 3.4794006796252859 -0.49999998660252726 0 -0.86602541151947299 I I #
edge $-1 $762 9.6430345060971963 $453 17.643257609405325 $631 $769 forward 7 unknown #
point $-1 -49.522995696890163 -17.643257609405325 7.0268975017406508 #
point $-1 -47.474847524865901 -17.643257609405325 7.0268975017406508 #
edge $-1 $770 1 $770 0 $456 $-1 forward 7 unknown #
vertex $-1 $457 $771 #
ellipse-curve $-1 -46.965213257419684 -16.043212988743697 4.3676621915908465 -0.86602541151947299 0 0.49999998660252726 0.24999999330126363 0 0.43301270575973649 1 I I #
point $-1 -48.248921617576755 -16.043212988743697 5.6861617964426987 #
edge $-1 $772 1 $772 0 $460 $-1 forward 7 unknown #
vertex $-1 $461 $773 #
ellipse-curve $-1 -46.965213257419684 -13.643146057751256 4.3676621915908465 -0.86602541151947299 0 0.49999998660252726 0.24999999330126363 0 0.43301270575973649 1 I I #
point $-1 -48.248921617576755 -13.643146057751256 5.6861617964426987 #
edge $-1 $774 1 $774 0 $464 $-1 forward 7 unknown #
vertex $-1 $465 $775 #
ellipse-curve $-1 -46.965213257419684 -11.243079126758818 4.3676621915908465 -0.86602541151947299 0 0.49999998660252726 0.24999999330126363 0 0.43301270575973649 1 I I #
point $-1 -48.248921617576755 -11.243079126758818 5.6861617964426987 #
loop $-1 $-1 $476 $468 #
plane-surface $-1 -49.522995696890163 0 0 1 0 0 0 0 -1 forward_v I I I I #
coedge $-1 $654 $471 $473 $658 reversed $312 $-1 #
coedge $-1 $471 $653 $776 $777 reversed $312 $-1 #
coedge $-1 $479 $474 $471 $656 forward $469 $-1 #
edge $-1 $659 -20.174823051655586 $778 -18.126674879631324 $655 $779 forward 7 unknown #
coedge $-1 $473 $472 $662 $780 reversed $196 $-1 #
edge $-1 $781 5.6900626353428066e-014 $659 4.096296453808618 $653 $782 forward 7 unknown #
vertex $-1 $475 $783 #
straight-curve $-1 -47.474847524865901 5.3949981962118585 7.0268975017406508 0 1 0 I I #
coedge $-1 $776 $476 $479 $666 reversed $651 $-1 #
coedge $-1 $476 $776 $657 $780 forward $651 $-1 #
vertex $-1 $477 $784 #
straight-curve $-1 -49.522995696890163 6.7898848407696537 26.501197524774739 0 0 1 I I #
straight-curve $-1 -49.522995696890192 6.7898848407696537 3.4794006796252859 -0.49999998660252726 0 -0.86602541151947299 I I #
edge $-1 $778 -14.79010794407778 $480 -6.7898848407696537 $661 $785 forward 7 unknown #
point $-1 -49.522995696890163 6.7898848407696537 7.0268975017406508 #
point $-1 -47.474847524865901 6.7898848407696537 7.0268975017406508 #
edge $-1 $786 1 $786 0 $483 $-1 forward 7 unknown #
vertex $-1 $484 $787 #
ellipse-curve $-1 -46.965213257419684 8.3899294614312794 4.3676621915908465 -0.86602541151947299 0 0.49999998660252726 0.24999999330126363 0 0.43301270575973649 1 I I #
point $-1 -48.248921617576755 8.3899294614312794 5.6861617964426987 #
edge $-1 $788 1 $788 0 $487 $-1 forward 7 unknown #
vertex $-1 $488 $789 #
ellipse-curve $-1 -46.965213257419684 10.789996392423717 4.3676621915908465 -0.86602541151947299 0 0.49999998660252726 0.24999999330126363 0 0.43301270575973649 1 I I #
point $-1 -48.248921617576755 10.789996392423717 5.6861617964426987 #
edge $-1 $790 1 $790 0 $491 $-1 forward 7 unknown #
vertex $-1 $492 $791 #
ellipse-curve $-1 -46.965213257419684 13.190063323416155 4.3676621915908465 -0.86602541151947299 0 0.49999998660252726 0.24999999330126363 0 0.43301270575973649 1 I I #
point $-1 -48.248921617576755 13.190063323416155 5.6861617964426987 #
plane-surface $-1 49.522995696890163 0 0 -1 0 0 0 0 1 forward_v I I I I #
coedge $-1 $500 $498 $502 $686 reversed $341 $-1 #
edge $-1 $513 -7.0268975017406508 $688 7.0268975017406508 $512 $792 forward 7 unknown #
vertex $-1 $686 $793 #
straight-curve $-1 -49.522995696890163 -31.902560575220079 0 0 0 -1 I I #
edge $-1 $684 -31.902560575220079 $688 31.902560575220079 $682 $794 forward 7 unknown #
straight-curve $-1 0 -31.902560575220079 -7.0268975017406508 -1 0 0 I I #
vertex $-1 $505 $795 #
straight-curve $-1 0 31.902560575220079 -7.0268975017406508 1 0 0 I I #
point $-1 49.522995696890163 31.902560575220079 -7.0268975017406508 #
point $-1 49.522995696890163 -31.902560575220079 -7.0268975017406508 #
straight-curve $-1 -49.522995696890163 0 7.0268975017406508 0 -1 0 I I #
point $-1 -49.522995696890163 31.902560575220079 7.0268975017406508 #
point $-1 -49.522995696890163 -31.902560575220079 7.0268975017406508 #
straight-curve $-1 49.522995696890163 -31.902560575220079 0 0 0 -1 I I #
straight-curve $-1 49.522995696890163 31.902560575220079 0 0 0 -1 I I #
plane-surface $-1 49.522995696890163 0 0 -1 0 0 0 0 1 forward_v I I I I #
coedge $-1 $701 $525 $536 $710 forward $360 $-1 #
coedge $-1 $525 $701 $539 $712 reversed $360 $-1 #
straight-curve $-1 49.522995696890163 -24.080360757153386 -0.70699151214776856 0 0 1 I I #
coedge $-1 $699 $698 $528 $702 forward $360 $-1 #
edge $-1 $705 10.08463042406002 $703 17.906830242126713 $701 $796 forward 7 unknown #
vertex $-1 $530 $797 #
straight-curve $-1 0 -31.902560575220079 -2.9139830242955371 1 0 0 I I #
vertex $-1 $702 $798 #
straight-curve $-1 0 -24.080360757153386 -2.9139830242955371 1 0 0 I I #
point $-1 49.522995696890163 -31.902560575220079 -2.9139830242955371 #
point $-1 49.522995696890163 -24.080360757153386 -2.9139830242955371 #
straight-curve $-1 -49.522995696890163 -13.995730333093366 0.086016975704462872 0 1 0 I I #
edge $-1 $537 -0.79300848785223144 $705 2.2069915121477686 $698 $799 forward 7 unknown #
point $-1 -49.522995696890163 -24.080360757153386 0.086016975704462872 #
edge $-1 $541 -0.086016975704462872 $703 2.9139830242955371 $699 $800 forward 7 unknown #
point $-1 -49.522995696890163 -31.902560575220079 0.086016975704462872 #
straight-curve $-1 49.522995696890163 -31.902560575220079 0 0 0 -1 I I #
plane-surface $-1 0 0 7.0268975017406508 0 0 1 1 0 0 forward_v I I I I #
coedge $-1 $551 $548 $553 $723 reversed $379 $-1 #
coedge $-1 $548 $551 $729 $801 reversed $379 $-1 #
edge $-1 $731 -7.0268975017406508 $725 7.0268975017406508 $565 $802 forward 7 unknown #
edge $-1 $720 -3.5583182160117559 $563 3.5583182160117559 $550 $803 forward 7 unknown #
vertex $-1 $801 $804 #
vertex $-1 $723 $805 #
straight-curve $-1 -48.376696205883071 39.019197007243591 0 0 0 -1 I I #
edge $-1 $721 -1.5 $725 1.5 $716 $806 forward 7 unknown #
straight-curve $-1 -48.376696205883071 35.460878791231835 -7.0268975017406508 0 1 0 I I #
vertex $-1 $555 $807 #
straight-curve $-1 -45.376696205883071 35.460878791231835 -7.0268975017406508 0 -1 0 I I #
point $-1 -48.376696205883071 31.902560575220079 -7.0268975017406508 #
straight-curve $-1 -48.376696205883071 31.902560575220079 0 0 0 -1 I I #
coedge $-1 $561 $560 $717 $801 forward $562 $-1 #
point $-1 -48.376696205883071 31.902560575220079 7.0268975017406508 #
vertex $-1 $566 $808 #
straight-curve $-1 -45.376696205883071 35.460878791231835 7.0268975017406508 0 1 0 I I #
coedge $-1 $580 $579 $572 $734 forward $569 $-1 #
edge $-1 $735 -19.876026141600924 $738 -15.395526932905355 $733 $809 forward 7 unknown #
vertex $-1 $734 $810 #
straight-curve $-1 49.522995696890163 0.35278169302158524 70.801824017635838 0 0 1 I I #
edge $-1 $738 -2.7649121454987817 $581 7.5891730504531747 $580 $811 forward 7 unknown #
vertex $-1 $737 $812 #
straight-curve $-1 -15.45702029792011 0.35278169302158524 76.623632040461388 0.65605901945558964 0 -0.75470958851134928 I I #
point $-1 49.522995696890163 0.35278169302158524 1.8726726319628142 #
point $-1 45.042496488194594 -10.001303502930371 7.026897501740649 #
straight-curve $-1 49.522995696890163 0 7.0268975017406508 0 1 0 I I #
vertex $-1 $587 $813 #
point $-1 46.482476105009695 -7.0429934469440987 2.429108018970942 #
vertex $-1 $591 $814 #
point $-1 46.482476105009695 -2.6055283629646873 2.429108018970942 #
coedge $-1 $606 $605 $598 $748 forward $595 $-1 #
edge $-1 $749 -19.876026141600924 $752 -15.395526932905355 $747 $815 forward 7 unknown #
vertex $-1 $748 $816 #
straight-curve $-1 49.522995696890163 24.78592414319656 70.801824017635838 0 0 1 I I #
edge $-1 $752 -14.981483370586268 $607 -4.6273981746343136 $606 $817 forward 7 unknown #
vertex $-1 $751 $818 #
straight-curve $-1 -15.45702029792011 24.78592414319656 76.623632040461388 0.65605901945558964 0 -0.75470958851134928 I I #
point $-1 49.522995696890163 24.78592414319656 1.8726726319628142 #
point $-1 45.042496488194594 14.431838947244605 7.026897501740649 #
straight-curve $-1 49.522995696890163 0 7.0268975017406508 0 1 0 I I #
vertex $-1 $613 $819 #
point $-1 46.482476105009695 17.390149003230874 2.429108018970942 #
vertex $-1 $617 $820 #
point $-1 46.482476105009695 21.827614087210293 2.429108018970942 #
edge $-1 $762 19.47430002303409 $765 23.021796845149403 $622 $821 forward 7 unknown #
vertex $-1 $636 $822 #
straight-curve $-1 -67.649670576521487 -9.6430345060971963 7.026897501740649 -1 0 0 I I #
edge $-1 $765 2.8214614772215665 $633 10.821684580529695 $632 $823 forward 7 unknown #
vertex $-1 $764 $824 #
straight-curve $-1 -49.522995696890192 -9.6430345060971963 3.4794006796252859 0.49999998660252726 0 0.86602541151947299 I I #
point $-1 -47.474847524865901 -9.6430345060971963 7.0268975017406508 #
point $-1 -49.522995696890163 -17.643257609405325 3.4794006796253352 #
straight-curve $-1 -49.522995696890163 0 7.0268975017406508 0 -1 0 I I #
vertex $-1 $639 $825 #
point $-1 -46.715213264118418 -16.043212988743697 4.8006748973505822 #
vertex $-1 $643 $826 #
point $-1 -46.715213264118418 -13.643146057751256 4.8006748973505822 #
vertex $-1 $647 $827 #
point $-1 -46.715213264118418 -11.243079126758818 4.8006748973505822 #
coedge $-1 $662 $661 $654 $777 forward $651 $-1 #
edge $-1 $778 19.47430002303409 $781 23.021796845149403 $776 $828 forward 7 unknown #
vertex $-1 $666 $829 #
straight-curve $-1 -67.649670576521487 14.79010794407778 7.026897501740649 -1 0 0 I I #
edge $-1 $781 -9.3951097478659218 $663 -1.3948866445577952 $662 $830 forward 7 unknown #
vertex $-1 $780 $831 #
straight-curve $-1 -49.522995696890192 14.79010794407778 3.4794006796252859 0.49999998660252726 0 0.86602541151947299 I I #
point $-1 -47.474847524865901 14.79010794407778 7.0268975017406508 #
point $-1 -49.522995696890163 6.7898848407696537 3.4794006796253352 #
straight-curve $-1 -49.522995696890163 0 7.0268975017406508 0 -1 0 I I #
vertex $-1 $669 $832 #
point $-1 -46.715213264118418 8.3899294614312794 4.8006748973505822 #
vertex $-1 $673 $833 #
point $-1 -46.715213264118418 10.789996392423717 4.8006748973505822 #
vertex $-1 $677 $834 #
point $-1 -46.715213264118418 13.190063323416155 4.8006748973505822 #
straight-curve $-1 -49.522995696890163 31.902560575220079 0 0 0 -1 I I #
point $-1 -49.522995696890163 -31.902560575220079 -7.0268975017406508 #
straight-curve $-1 -49.522995696890163 0 -7.0268975017406508 0 1 0 I I #
point $-1 -49.522995696890163 31.902560575220079 -7.0268975017406508 #
straight-curve $-1 -49.522995696890163 -13.995730333093366 -2.9139830242955371 0 -1 0 I I #
point $-1 -49.522995696890163 -31.902560575220079 -2.9139830242955371 #
point $-1 -49.522995696890163 -24.080360757153386 -2.9139830242955371 #
straight-curve $-1 -49.522995696890163 -24.080360757153386 -0.70699151214776856 0 0 -1 I I #
straight-curve $-1 -49.522995696890163 -31.902560575220079 0 0 0 -1 I I #
edge $-1 $731 -1.5 $720 1.5 $717 $835 forward 7 unknown #
straight-curve $-1 -45.376696205883071 39.019197007243591 0 0 0 -1 I I #
straight-curve $-1 -48.376696205883071 35.460878791231835 7.0268975017406508 0 -1 0 I I #
point $-1 -48.376696205883071 39.019197007243591 7.0268975017406508 #
point $-1 -48.376696205883071 39.019197007243591 -7.0268975017406508 #
straight-curve $-1 -46.876696205883071 39.019197007243591 -7.0268975017406508 1 0 0 I I #
point $-1 -45.376696205883071 39.019197007243591 -7.0268975017406508 #
point $-1 -45.376696205883071 39.019197007243591 7.0268975017406508 #
straight-curve $-1 29.646969555289239 0.35278169302158524 7.026897501740649 -1 0 0 I I #
point $-1 49.522995696890163 0.35278169302158524 7.0268975017406508 #
straight-curve $-1 45.042496488194594 -2.4121304524771965 7.0268975017406419 0 -1 0 I I #
point $-1 45.042496488194594 0.35278169302158524 7.026897501740649 #
point $-1 45.071707497042759 -7.0429934469440987 2.5277585880267015 #
point $-1 45.071707497042759 -2.6055283629646873 2.5277585880267015 #
straight-curve $-1 29.646969555289239 24.78592414319656 7.026897501740649 -1 0 0 I I #
point $-1 49.522995696890163 24.78592414319656 7.0268975017406508 #
straight-curve $-1 45.042496488194594 9.8044407726102918 7.0268975017406419 0 -1 0 I I #
point $-1 45.042496488194594 24.78592414319656 7.026897501740649 #
point $-1 45.071707497042759 17.390149003230874 2.5277585880267015 #
point $-1 45.071707497042759 21.827614087210293 2.5277585880267015 #
straight-curve $-1 -49.522995696890163 -9.6430345060971963 26.501197524774739 0 0 -1 I I #
point $-1 -49.522995696890163 -9.6430345060971963 7.0268975017406508 #
straight-curve $-1 -49.522995696890163 -6.8215730288756298 3.4794006796253334 0 -1 0 I I #
point $-1 -49.522995696890163 -9.6430345060971963 3.4794006796253352 #
point $-1 -46.532200551659948 -16.043212988743697 4.1176621982895822 #
point $-1 -46.532200551659948 -13.643146057751256 4.1176621982895822 #
point $-1 -46.532200551659948 -11.243079126758818 4.1176621982895822 #
straight-curve $-1 -49.522995696890163 14.79010794407778 26.501197524774739 0 0 -1 I I #
point $-1 -49.522995696890163 14.79010794407778 7.0268975017406508 #
straight-curve $-1 -49.522995696890163 5.3949981962118585 3.4794006796253334 0 -1 0 I I #
point $-1 -49.522995696890163 14.79010794407778 3.4794006796253352 #
point $-1 -46.532200551659948 8.3899294614312794 4.1176621982895822 #
point $-1 -46.532200551659948 10.789996392423717 4.1176621982895822 #
point $-1 -46.532200551659948 13.190063323416155 4.1176621982895822 #
straight-curve $-1 -46.876696205883071 39.019197007243591 7.0268975017406508 -1 0 0 I I #
End-of-ACIS-data 