500 0 13 0           
7 Unknown 11 ACIS 5.0 NT 24 Thu Mar 25 23:12:23 1999 
-1 9.9999999999999995e-007 1e-010 
body $-1 $13 $-1 $14 #
body $-1 $15 $-1 $16 #
body $-1 $17 $-1 $18 #
body $-1 $19 $-1 $20 #
body $-1 $21 $-1 $22 #
body $-1 $23 $-1 $24 #
body $-1 $25 $-1 $26 #
body $-1 $27 $-1 $28 #
body $-1 $29 $-1 $30 #
body $-1 $31 $-1 $32 #
body $-1 $33 $-1 $34 #
body $-1 $35 $-1 $36 #
body $-1 $37 $-1 $38 #
lump $-1 $-1 $39 $0 #
transform $-1 1 0 0 0 1 0 0 0 1 74.6653645435957 47.833275334629285 16.098093419603806 1 rotate no_reflect no_shear #
lump $-1 $-1 $40 $1 #
transform $-1 1 0 0 0 1 0 0 0 1 74.6653645435957 47.833275334629285 16.098093419603806 1 rotate no_reflect no_shear #
lump $-1 $-1 $41 $2 #
transform $-1 1 0 0 0 1 0 0 0 1 74.6653645435957 47.833275334629285 16.098093419603806 1 rotate no_reflect no_shear #
lump $-1 $-1 $42 $3 #
transform $-1 1 0 0 0 1 0 0 0 1 74.6653645435957 47.833275334629285 16.098093419603806 1 rotate no_reflect no_shear #
lump $-1 $-1 $43 $4 #
transform $-1 1 0 0 0 1 0 0 0 1 74.6653645435957 47.833275334629285 16.098093419603806 1 rotate no_reflect no_shear #
lump $-1 $-1 $44 $5 #
transform $-1 1 0 0 0 1 0 0 0 1 74.6653645435957 47.833275334629285 16.098093419603806 1 rotate no_reflect no_shear #
lump $-1 $-1 $45 $6 #
transform $-1 1 0 0 0 1 0 0 0 1 74.6653645435957 47.833275334629285 16.098093419603806 1 rotate no_reflect no_shear #
lump $-1 $-1 $46 $7 #
transform $-1 1 0 0 0 1 0 0 0 1 74.6653645435957 47.833275334629285 16.098093419603806 1 rotate no_reflect no_shear #
lump $-1 $-1 $47 $8 #
transform $-1 1 0 0 0 1 0 0 0 1 74.6653645435957 47.833275334629285 16.098093419603806 1 rotate no_reflect no_shear #
lump $-1 $-1 $48 $9 #
transform $-1 1 0 0 0 1 0 0 0 1 74.6653645435957 47.833275334629285 16.098093419603806 1 rotate no_reflect no_shear #
lump $-1 $-1 $49 $10 #
transform $-1 1 0 0 0 1 0 0 0 1 74.6653645435957 47.833275334629285 16.098093419603806 1 rotate no_reflect no_shear #
lump $-1 $-1 $50 $11 #
transform $-1 1 0 0 0 1 0 0 0 1 74.6653645435957 47.833275334629285 16.098093419603806 1 rotate no_reflect no_shear #
lump $-1 $-1 $51 $12 #
transform $-1 1 0 0 0 1 0 0 0 1 74.6653645435957 47.833275334629285 16.098093419603806 1 rotate no_reflect no_shear #
shell $-1 $-1 $-1 $52 $-1 $13 #
shell $-1 $-1 $-1 $53 $-1 $15 #
shell $-1 $-1 $-1 $54 $-1 $17 #
shell $-1 $-1 $-1 $55 $-1 $19 #
shell $-1 $-1 $-1 $56 $-1 $21 #
shell $-1 $-1 $-1 $57 $-1 $23 #
shell $-1 $-1 $-1 $58 $-1 $25 #
shell $-1 $-1 $-1 $59 $-1 $27 #
shell $-1 $-1 $-1 $60 $-1 $29 #
shell $-1 $-1 $-1 $61 $-1 $31 #
shell $-1 $-1 $-1 $62 $-1 $33 #
shell $-1 $-1 $-1 $63 $-1 $35 #
shell $-1 $-1 $-1 $64 $-1 $37 #
face $-1 $65 $66 $39 $-1 $67 forward single #
face $-1 $68 $69 $40 $-1 $70 reversed single #
face $-1 $71 $72 $41 $-1 $73 reversed single #
face $-1 $74 $75 $42 $-1 $76 reversed single #
face $-1 $77 $78 $43 $-1 $79 forward single #
face $-1 $80 $81 $44 $-1 $82 forward single #
face $-1 $83 $84 $45 $-1 $85 forward single #
face $-1 $86 $87 $46 $-1 $88 reversed single #
face $-1 $89 $90 $47 $-1 $91 forward single #
face $-1 $92 $93 $48 $-1 $94 forward single #
face $-1 $95 $96 $49 $-1 $97 reversed single #
face $-1 $98 $99 $50 $-1 $100 forward single #
face $-1 $101 $102 $51 $-1 $103 forward single #
face $-1 $104 $105 $39 $-1 $106 reversed single #
loop $-1 $-1 $107 $52 #
plane-surface $-1 0 0 16.098093419603806 0 0 1 1 0 0 forward_v I I I I #
face $-1 $108 $109 $40 $-1 $110 reversed single #
loop $-1 $-1 $111 $53 #
plane-surface $-1 -71.205554268353055 -34.994221693827946 0 0 -1 0 0 0 -1 forward_v I I I I #
face $-1 $112 $113 $41 $-1 $114 reversed single #
loop $-1 $-1 $115 $54 #
plane-surface $-1 -71.205554268353055 34.994221693827953 0 0 1 0 0 0 1 forward_v I I I I #
face $-1 $116 $117 $42 $-1 $118 reversed single #
loop $-1 $-1 $119 $55 #
plane-surface $-1 -193.92618876196576 -10.481304401406096 96.766090226536903 0 1 0 -0.79863551827123203 0 0.60181501223851219 forward_v I I I I #
face $-1 $120 $121 $43 $-1 $122 forward single #
loop $-1 $123 $124 $56 #
cone-surface $-1 -70.435944744049138 -8.1374487397034585 10.922758683016731 0.79863551827123203 0 -0.60181501223851219 0.3009075061192561 0 0.39931775913561601 1 I I 0 1 0.5 forward I I I I #
face $-1 $125 $126 $44 $-1 $127 forward single #
loop $-1 $128 $129 $57 #
cone-surface $-1 -70.435944744049138 -4.621665247149501 10.922758683016731 0.79863551827123203 0 -0.60181501223851219 0.3009075061192561 0 0.39931775913561601 1 I I 0 1 0.5 forward I I I I #
face $-1 $130 $131 $45 $-1 $132 forward single #
loop $-1 $133 $134 $58 #
cone-surface $-1 -70.435944744049138 -1.1058817545955435 10.922758683016731 0.79863551827123203 0 -0.60181501223851219 0.3009075061192561 0 0.39931775913561601 1 I I 0 1 0.5 forward I I I I #
face $-1 $135 $136 $46 $-1 $137 reversed single #
loop $-1 $-1 $138 $59 #
plane-surface $-1 37.99338184102092 -13.1196657523084 218.88910636315481 0 -1 0 -0.57357644374324357 0 -0.81915203911291934 forward_v I I I I #
face $-1 $139 $140 $47 $-1 $141 forward single #
loop $-1 $142 $143 $60 #
cone-surface $-1 70.515229562313692 -25.377766189165406 12.866862896261942 -0.57357644374324357 0 -0.81915203911291934 1.228728058669379 0 -0.86036466561486535 1 I I 0 1 1.5 forward I I I I #
face $-1 $144 $145 $48 $-1 $146 forward single #
loop $-1 $147 $148 $61 #
cone-surface $-1 70.515229562313692 -18.022905927051205 12.866862896261942 -0.57357644374324357 0 -0.81915203911291934 1.228728058669379 0 -0.86036466561486535 1 I I 0 1 1.5 forward I I I I #
face $-1 $149 $150 $49 $-1 $151 reversed single #
loop $-1 $-1 $152 $62 #
plane-surface $-1 37.99338184102092 30.281006363908201 218.88910636315481 0 -1 0 -0.57357644374324357 0 -0.81915203911291934 forward_v I I I I #
face $-1 $153 $154 $50 $-1 $155 forward single #
loop $-1 $156 $157 $63 #
cone-surface $-1 70.515229562313692 18.022905927051205 12.866862896261942 -0.57357644374324357 0 -0.81915203911291934 1.228728058669379 0 -0.86036466561486535 1 I I 0 1 1.5 forward I I I I #
face $-1 $158 $159 $51 $-1 $160 forward single #
loop $-1 $161 $162 $64 #
cone-surface $-1 70.515229562313692 25.377766189165392 12.866862896261942 -0.57357644374324357 0 -0.81915203911291934 1.228728058669379 0 -0.86036466561486535 1 I I 0 1 1.5 forward I I I I #
face $-1 $163 $164 $39 $-1 $165 reversed single #
loop $-1 $-1 $166 $65 #
plane-surface $-1 0 0 -16.098093419603806 0 0 1 1 0 0 forward_v I I I I #
coedge $-1 $167 $168 $169 $170 forward $66 $-1 #
face $-1 $171 $172 $40 $-1 $173 forward single #
loop $-1 $-1 $174 $68 #
plane-surface $-1 -67.745743993110409 -41.413748514228615 0 -1 0 0 0 0 1 forward_v I I I I #
coedge $-1 $175 $176 $177 $178 forward $69 $-1 #
face $-1 $179 $180 $41 $-1 $181 reversed single #
loop $-1 $-1 $182 $71 #
plane-surface $-1 -67.745743993110409 41.413748514228622 0 -1 0 0 0 0 1 forward_v I I I I #
coedge $-1 $183 $184 $185 $186 reversed $72 $-1 #
face $-1 $187 $188 $42 $-1 $189 reversed single #
loop $-1 $-1 $190 $74 #
plane-surface $-1 -74.665364543595715 -4.621665247149501 6.8966156733428647 -0.79863551827123203 0 0.60181501223851219 0.60181501223851219 0 0.79863551827123203 forward_v I I I I #
coedge $-1 $191 $192 $193 $194 reversed $75 $-1 #
face $-1 $-1 $195 $43 $-1 $196 forward single #
loop $-1 $197 $198 $77 #
cone-surface $-1 -69.473771377677068 -8.1374487397034585 10.197709066500522 0.79863551827123203 0 -0.60181501223851219 0.15045375305962805 0 0.19965887956780801 1 I I -0.70710678118654746 0.70710678118654746 0.25 forward I I I I #
loop $-1 $-1 $199 $56 #
coedge $-1 $124 $124 $200 $201 reversed $78 $-1 #
face $-1 $-1 $202 $44 $-1 $203 forward single #
loop $-1 $204 $205 $80 #
cone-surface $-1 -69.473771377677068 -4.621665247149501 10.197709066500522 0.79863551827123203 0 -0.60181501223851219 0.15045375305962805 0 0.19965887956780801 1 I I -0.70710678118654746 0.70710678118654746 0.25 forward I I I I #
loop $-1 $-1 $206 $57 #
coedge $-1 $129 $129 $207 $208 reversed $81 $-1 #
face $-1 $-1 $209 $45 $-1 $210 forward single #
loop $-1 $211 $212 $83 #
cone-surface $-1 -69.473771377677068 -1.1058817545955435 10.197709066500522 0.79863551827123203 0 -0.60181501223851219 0.15045375305962805 0 0.19965887956780801 1 I I -0.70710678118654746 0.70710678118654746 0.25 forward I I I I #
loop $-1 $-1 $213 $58 #
coedge $-1 $134 $134 $214 $215 reversed $84 $-1 #
face $-1 $216 $217 $46 $-1 $218 reversed single #
loop $-1 $-1 $219 $86 #
plane-surface $-1 -47.659206690396061 -21.700336058108302 96.564535129163033 0.57357644374324357 0 0.81915203911291934 0.81915203911291934 0 -0.57357644374324357 forward_v I I I I #
coedge $-1 $220 $221 $222 $223 reversed $87 $-1 #
face $-1 $-1 $224 $47 $-1 $225 forward single #
loop $-1 $226 $227 $89 #
cone-surface $-1 69.638204800250179 -25.377766189165406 11.614341754514292 -0.57357644374324357 0 -0.81915203911291934 0.61436402933468948 0 -0.43018233280743268 1 I I -0.70710678118654757 0.70710678118654757 0.75 forward I I I I #
loop $-1 $-1 $228 $60 #
coedge $-1 $143 $143 $229 $230 reversed $90 $-1 #
face $-1 $-1 $231 $48 $-1 $232 forward single #
loop $-1 $233 $234 $92 #
cone-surface $-1 69.638204800250179 -18.022905927051205 11.614341754514292 -0.57357644374324357 0 -0.81915203911291934 0.61436402933468948 0 -0.43018233280743268 1 I I -0.70710678118654757 0.70710678118654757 0.75 forward I I I I #
loop $-1 $-1 $235 $61 #
coedge $-1 $148 $148 $236 $237 reversed $93 $-1 #
face $-1 $238 $239 $49 $-1 $240 reversed single #
loop $-1 $-1 $241 $95 #
plane-surface $-1 -47.659206690396061 21.700336058108299 96.564535129163033 0.57357644374324357 0 0.81915203911291934 0.81915203911291934 0 -0.57357644374324357 forward_v I I I I #
coedge $-1 $242 $243 $244 $245 reversed $96 $-1 #
face $-1 $-1 $246 $50 $-1 $247 forward single #
loop $-1 $248 $249 $98 #
cone-surface $-1 69.638204800250179 18.022905927051205 11.614341754514292 -0.57357644374324357 0 -0.81915203911291934 0.61436402933468948 0 -0.43018233280743268 1 I I -0.70710678118654757 0.70710678118654757 0.75 forward I I I I #
loop $-1 $-1 $250 $63 #
coedge $-1 $157 $157 $251 $252 reversed $99 $-1 #
face $-1 $-1 $253 $51 $-1 $254 forward single #
loop $-1 $255 $256 $101 #
cone-surface $-1 69.638204800250179 25.377766189165392 11.614341754514292 -0.57357644374324357 0 -0.81915203911291934 0.61436402933468948 0 -0.43018233280743268 1 I I -0.70710678118654757 0.70710678118654757 0.75 forward I I I I #
loop $-1 $-1 $257 $64 #
coedge $-1 $162 $162 $258 $259 reversed $102 $-1 #
face $-1 $260 $261 $39 $-1 $262 reversed single #
loop $-1 $-1 $263 $104 #
plane-surface $-1 0 -47.833275334629285 0 0 1 0 0 0 1 forward_v I I I I #
coedge $-1 $264 $265 $266 $267 forward $105 $-1 #
coedge $-1 $268 $107 $269 $270 forward $66 $-1 #
coedge $-1 $107 $268 $271 $272 forward $66 $-1 #
coedge $-1 $273 $274 $107 $170 reversed $275 $-1 #
edge $-1 $276 -47.833275334629285 $277 47.833275334629285 $169 $278 forward 7 unknown #
face $-1 $279 $280 $40 $-1 $281 reversed single #
loop $-1 $-1 $282 $108 #
plane-surface $-1 0 0 16.098093419603806 0 0 1 1 0 0 forward_v I I I I #
coedge $-1 $283 $284 $285 $286 reversed $109 $-1 #
coedge $-1 $287 $111 $288 $289 reversed $69 $-1 #
coedge $-1 $111 $287 $290 $291 reversed $69 $-1 #
coedge $-1 $284 $283 $111 $178 reversed $109 $-1 #
edge $-1 $292 -16.098093419603806 $293 16.098093419603806 $177 $294 forward 7 unknown #
face $-1 $295 $296 $41 $-1 $297 reversed single #
loop $-1 $-1 $298 $112 #
plane-surface $-1 0 0 -16.098093419603806 0 0 1 1 0 0 forward_v I I I I #
coedge $-1 $299 $300 $301 $302 forward $113 $-1 #
coedge $-1 $301 $115 $303 $304 reversed $72 $-1 #
coedge $-1 $115 $301 $305 $306 reversed $72 $-1 #
coedge $-1 $307 $308 $115 $186 forward $296 $-1 #
edge $-1 $309 -16.098093419603806 $310 16.098093419603806 $185 $311 forward 7 unknown #
face $-1 $312 $313 $42 $-1 $314 forward single #
loop $-1 $-1 $315 $116 #
plane-surface $-1 -193.92618876196576 1.2379739071070937 96.766090226536903 0 -1 0 0.79863551827123203 0 -0.60181501223851219 forward_v I I I I #
coedge $-1 $316 $317 $318 $319 reversed $117 $-1 #
coedge $-1 $192 $119 $320 $321 reversed $75 $-1 #
coedge $-1 $119 $191 $316 $322 reversed $75 $-1 #
coedge $-1 $318 $323 $119 $194 forward $313 $-1 #
edge $-1 $324 22.29772983738718 $325 29.231540462871706 $193 $326 forward 7 unknown #
loop $-1 $-1 $200 $120 #
plane-surface $-1 -74.665364543595715 -4.621665247149501 6.8966156733428647 -0.79863551827123203 0 0.60181501223851219 0.60181501223851219 0 0.79863551827123203 forward_v I I I I #
loop $-1 $-1 $327 $77 #
coedge $-1 $198 $198 $199 $328 reversed $121 $-1 #
coedge $-1 $199 $199 $198 $328 forward $123 $-1 #
coedge $-1 $200 $200 $124 $201 forward $195 $-1 #
edge $-1 $329 0 $329 6.2831853071796004 $200 $330 forward 7 unknown #
loop $-1 $-1 $207 $125 #
plane-surface $-1 -74.665364543595715 -4.621665247149501 6.8966156733428647 -0.79863551827123203 0 0.60181501223851219 0.60181501223851219 0 0.79863551827123203 forward_v I I I I #
loop $-1 $-1 $331 $80 #
coedge $-1 $205 $205 $206 $332 reversed $126 $-1 #
coedge $-1 $206 $206 $205 $332 forward $128 $-1 #
coedge $-1 $207 $207 $129 $208 forward $202 $-1 #
edge $-1 $333 0 $333 6.2831853071796004 $207 $334 forward 7 unknown #
loop $-1 $-1 $214 $130 #
plane-surface $-1 -74.665364543595715 -4.621665247149501 6.8966156733428647 -0.79863551827123203 0 0.60181501223851219 0.60181501223851219 0 0.79863551827123203 forward_v I I I I #
loop $-1 $-1 $335 $83 #
coedge $-1 $212 $212 $213 $336 reversed $131 $-1 #
coedge $-1 $213 $213 $212 $336 forward $133 $-1 #
coedge $-1 $214 $214 $134 $215 forward $209 $-1 #
edge $-1 $337 0 $337 6.2831853071796004 $214 $338 forward 7 unknown #
face $-1 $339 $340 $46 $-1 $341 reversed single #
loop $-1 $-1 $342 $135 #
plane-surface $-1 37.99338184102092 -30.281006363908205 218.88910636315481 0 1 0 0.57357644374324357 0 0.81915203911291934 forward_v I I I I #
coedge $-1 $343 $344 $345 $346 reversed $136 $-1 #
coedge $-1 $221 $138 $347 $348 reversed $87 $-1 #
coedge $-1 $138 $220 $343 $349 reversed $87 $-1 #
coedge $-1 $345 $350 $138 $223 forward $351 $-1 #
edge $-1 $352 -55.66867362308524 $353 -48.262088519033369 $222 $354 forward 7 unknown #
loop $-1 $-1 $229 $139 #
plane-surface $-1 -47.659206690396061 -21.700336058108302 96.564535129163033 0.57357644374324357 0 0.81915203911291934 0.81915203911291934 0 -0.57357644374324357 forward_v I I I I #
loop $-1 $-1 $355 $89 #
coedge $-1 $227 $227 $228 $356 reversed $140 $-1 #
coedge $-1 $228 $228 $227 $356 forward $142 $-1 #
coedge $-1 $229 $229 $143 $230 forward $224 $-1 #
edge $-1 $357 0 $357 6.2831853071796004 $229 $358 forward 7 unknown #
loop $-1 $-1 $236 $144 #
plane-surface $-1 -47.659206690396061 -21.700336058108302 96.564535129163033 0.57357644374324357 0 0.81915203911291934 0.81915203911291934 0 -0.57357644374324357 forward_v I I I I #
loop $-1 $-1 $359 $92 #
coedge $-1 $234 $234 $235 $360 reversed $145 $-1 #
coedge $-1 $235 $235 $234 $360 forward $147 $-1 #
coedge $-1 $236 $236 $148 $237 forward $231 $-1 #
edge $-1 $361 0 $361 6.2831853071796004 $236 $362 forward 7 unknown #
face $-1 $363 $364 $49 $-1 $365 reversed single #
loop $-1 $-1 $366 $149 #
plane-surface $-1 37.99338184102092 13.119665752308396 218.88910636315481 0 1 0 0.57357644374324357 0 0.81915203911291934 forward_v I I I I #
coedge $-1 $367 $368 $369 $370 reversed $150 $-1 #
coedge $-1 $243 $152 $371 $372 reversed $96 $-1 #
coedge $-1 $152 $242 $367 $373 reversed $96 $-1 #
coedge $-1 $369 $374 $152 $245 forward $375 $-1 #
edge $-1 $376 -55.66867362308524 $377 -48.262088519033369 $244 $378 forward 7 unknown #
loop $-1 $-1 $251 $153 #
plane-surface $-1 -47.659206690396061 21.700336058108299 96.564535129163033 0.57357644374324357 0 0.81915203911291934 0.81915203911291934 0 -0.57357644374324357 forward_v I I I I #
loop $-1 $-1 $379 $98 #
coedge $-1 $249 $249 $250 $380 reversed $154 $-1 #
coedge $-1 $250 $250 $249 $380 forward $156 $-1 #
coedge $-1 $251 $251 $157 $252 forward $246 $-1 #
edge $-1 $381 0 $381 6.2831853071796004 $251 $382 forward 7 unknown #
loop $-1 $-1 $258 $158 #
plane-surface $-1 -47.659206690396061 21.700336058108299 96.564535129163033 0.57357644374324357 0 0.81915203911291934 0.81915203911291934 0 -0.57357644374324357 forward_v I I I I #
loop $-1 $-1 $383 $101 #
coedge $-1 $256 $256 $257 $384 reversed $159 $-1 #
coedge $-1 $257 $257 $256 $384 forward $161 $-1 #
coedge $-1 $258 $258 $162 $259 forward $253 $-1 #
edge $-1 $385 0 $385 6.2831853071796004 $258 $386 forward 7 unknown #
face $-1 $387 $388 $39 $-1 $389 reversed single #
loop $-1 $-1 $390 $163 #
plane-surface $-1 -74.6653645435957 0 0 1 0 0 0 0 -1 forward_v I I I I #
coedge $-1 $391 $271 $392 $393 forward $164 $-1 #
coedge $-1 $394 $166 $391 $395 forward $105 $-1 #
coedge $-1 $166 $394 $396 $397 forward $105 $-1 #
coedge $-1 $274 $273 $166 $267 reversed $275 $-1 #
edge $-1 $398 -47.833275334629285 $399 47.833275334629285 $266 $400 forward 7 unknown #
coedge $-1 $168 $167 $401 $402 forward $66 $-1 #
coedge $-1 $403 $404 $167 $270 reversed $388 $-1 #
edge $-1 $277 -74.6653645435957 $405 74.6653645435957 $269 $406 forward 7 unknown #
coedge $-1 $263 $407 $168 $272 reversed $164 $-1 #
edge $-1 $408 -74.6653645435957 $276 74.6653645435957 $271 $409 forward 7 unknown #
coedge $-1 $266 $169 $407 $410 forward $275 $-1 #
coedge $-1 $169 $266 $403 $411 reversed $275 $-1 #
loop $-1 $-1 $273 $387 #
vertex $-1 $170 $412 #
vertex $-1 $170 $413 #
straight-curve $-1 74.6653645435957 0 16.098093419603806 0 1 0 I I #
face $-1 $414 $415 $40 $-1 $416 reversed single #
loop $-1 $-1 $417 $171 #
plane-surface $-1 -74.6653645435957 0 0 1 0 0 0 0 -1 forward_v I I I I #
coedge $-1 $290 $418 $284 $419 forward $172 $-1 #
coedge $-1 $177 $174 $420 $421 reversed $109 $-1 #
coedge $-1 $174 $177 $282 $419 reversed $109 $-1 #
coedge $-1 $422 $423 $174 $286 forward $424 $-1 #
edge $-1 $425 -16.098093419603806 $426 16.098093419603806 $285 $427 forward 7 unknown #
coedge $-1 $176 $175 $417 $428 reversed $69 $-1 #
coedge $-1 $420 $429 $175 $289 forward $415 $-1 #
edge $-1 $430 -39.062587409419173 $293 -32.142966858933882 $288 $431 forward 7 unknown #
coedge $-1 $432 $282 $176 $291 forward $172 $-1 #
edge $-1 $292 32.142966858933882 $433 39.062587409419173 $290 $434 forward 7 unknown #
vertex $-1 $291 $435 #
vertex $-1 $289 $436 #
straight-curve $-1 -67.745743993110409 -34.994221693827946 0 0 0 -1 I I #
face $-1 $437 $438 $41 $-1 $439 forward single #
loop $-1 $-1 $185 $179 #
plane-surface $-1 -74.6653645435957 0 0 1 0 0 0 0 -1 forward_v I I I I #
coedge $-1 $303 $440 $299 $441 forward $180 $-1 #
coedge $-1 $442 $182 $298 $441 reversed $113 $-1 #
coedge $-1 $182 $442 $443 $444 reversed $113 $-1 #
coedge $-1 $184 $183 $182 $302 reversed $72 $-1 #
edge $-1 $445 -16.098093419603806 $446 16.098093419603806 $182 $447 forward 7 unknown #
coedge $-1 $448 $298 $183 $304 forward $180 $-1 #
edge $-1 $446 32.142966858933882 $309 39.062587409419173 $303 $449 forward 7 unknown #
coedge $-1 $443 $450 $184 $306 forward $438 $-1 #
edge $-1 $310 -39.062587409419173 $445 -32.142966858933882 $305 $451 forward 7 unknown #
coedge $-1 $452 $185 $450 $453 reversed $296 $-1 #
coedge $-1 $185 $452 $448 $454 reversed $296 $-1 #
vertex $-1 $454 $455 #
vertex $-1 $186 $456 #
straight-curve $-1 -74.6653645435957 34.994221693827953 0 0 0 1 I I #
face $-1 $-1 $457 $42 $-1 $458 reversed single #
loop $-1 $-1 $193 $187 #
plane-surface $-1 0 0 16.098093419603806 0 0 1 1 0 0 forward_v I I I I #
coedge $-1 $459 $460 $461 $462 reversed $188 $-1 #
coedge $-1 $463 $190 $192 $322 forward $117 $-1 #
coedge $-1 $190 $463 $459 $464 forward $117 $-1 #
coedge $-1 $461 $193 $190 $319 forward $313 $-1 #
edge $-1 $325 -8.1704717778313452 $465 3.5488065306818442 $318 $466 forward 7 unknown #
coedge $-1 $467 $468 $191 $321 forward $457 $-1 #
edge $-1 $469 -41.486429439925566 $324 -32.284951693664645 $320 $470 forward 7 unknown #
edge $-1 $325 -11.52149827518182 $469 -2.3448253187574213e-014 $192 $471 forward 7 unknown #
coedge $-1 $193 $461 $467 $472 forward $313 $-1 #
vertex $-1 $194 $473 #
vertex $-1 $194 $474 #
straight-curve $-1 -96.963094380982881 -10.481304401406096 16.098093419603806 1 0 0 I I #
coedge $-1 $327 $327 $-1 $475 reversed $197 $-1 #
edge $-1 $476 0 $476 6.2831853071796004 $198 $477 forward 7 unknown #
vertex $-1 $201 $478 #
ellipse-curve $-1 -71.198459230853445 -8.1374487397034585 11.497354546473337 -0.79863551827123203 0 0.60181501223851219 0.3009075061192561 0 0.39931775913561601 1 I I #
coedge $-1 $331 $331 $-1 $479 reversed $204 $-1 #
edge $-1 $480 0 $480 6.2831853071796004 $205 $481 forward 7 unknown #
vertex $-1 $208 $482 #
ellipse-curve $-1 -71.198459230853445 -4.621665247149501 11.497354546473337 -0.79863551827123203 0 0.60181501223851219 0.3009075061192561 0 0.39931775913561601 1 I I #
coedge $-1 $335 $335 $-1 $483 reversed $211 $-1 #
edge $-1 $484 0 $484 6.2831853071796004 $212 $485 forward 7 unknown #
vertex $-1 $215 $486 #
ellipse-curve $-1 -71.198459230853445 -1.1058817545955435 11.497354546473337 -0.79863551827123203 0 0.60181501223851219 0.3009075061192561 0 0.39931775913561601 1 I I #
face $-1 $-1 $351 $46 $-1 $487 forward single #
loop $-1 $-1 $488 $216 #
plane-surface $-1 74.6653645435957 0 0 -1 0 0 0 0 1 forward_v I I I I #
coedge $-1 $489 $490 $491 $492 reversed $217 $-1 #
coedge $-1 $493 $219 $221 $349 forward $136 $-1 #
coedge $-1 $219 $493 $489 $494 forward $136 $-1 #
coedge $-1 $491 $222 $219 $346 forward $351 $-1 #
edge $-1 $353 2.2694977232542488 $495 19.430838334854052 $345 $496 forward 7 unknown #
coedge $-1 $497 $498 $220 $348 forward $340 $-1 #
edge $-1 $499 -98.532606583831353 $352 -93.346459761973591 $347 $500 forward 7 unknown #
edge $-1 $353 140.28895814553243 $499 149.3307290871914 $221 $501 forward 7 unknown #
coedge $-1 $222 $491 $497 $502 forward $351 $-1 #
loop $-1 $-1 $491 $339 #
vertex $-1 $348 $503 #
vertex $-1 $223 $504 #
straight-curve $-1 18.99669092051046 -13.1196657523084 16.098093419603813 -1 0 0 I I #
coedge $-1 $355 $355 $-1 $505 reversed $226 $-1 #
edge $-1 $506 0 $506 6.2831853071796004 $227 $507 forward 7 unknown #
vertex $-1 $230 $508 #
ellipse-curve $-1 70.962071991569772 -25.377766189165406 13.505020008674908 0.57357644374324357 0 0.81915203911291934 1.228728058669379 0 -0.86036466561486535 1 I I #
coedge $-1 $359 $359 $-1 $509 reversed $233 $-1 #
edge $-1 $510 0 $510 6.2831853071796004 $234 $511 forward 7 unknown #
vertex $-1 $237 $512 #
ellipse-curve $-1 70.962071991569772 -18.022905927051205 13.505020008674908 0.57357644374324357 0 0.81915203911291934 1.228728058669379 0 -0.86036466561486535 1 I I #
face $-1 $-1 $375 $49 $-1 $513 forward single #
loop $-1 $-1 $514 $238 #
plane-surface $-1 74.6653645435957 0 0 -1 0 0 0 0 1 forward_v I I I I #
coedge $-1 $515 $516 $517 $518 reversed $239 $-1 #
coedge $-1 $519 $241 $243 $373 forward $150 $-1 #
coedge $-1 $241 $519 $515 $520 forward $150 $-1 #
coedge $-1 $517 $244 $241 $370 forward $375 $-1 #
edge $-1 $377 -19.430838334854052 $521 -2.269497723254247 $369 $522 forward 7 unknown #
coedge $-1 $523 $524 $242 $372 forward $364 $-1 #
edge $-1 $525 -98.532606583831353 $376 -93.346459761973591 $371 $526 forward 7 unknown #
edge $-1 $377 140.28895814553243 $525 149.3307290871914 $243 $527 forward 7 unknown #
coedge $-1 $244 $517 $523 $528 forward $375 $-1 #
loop $-1 $-1 $517 $363 #
vertex $-1 $372 $529 #
vertex $-1 $245 $530 #
straight-curve $-1 18.99669092051046 30.281006363908201 16.098093419603813 -1 0 0 I I #
coedge $-1 $379 $379 $-1 $531 reversed $248 $-1 #
edge $-1 $532 0 $532 6.2831853071796004 $249 $533 forward 7 unknown #
vertex $-1 $252 $534 #
ellipse-curve $-1 70.962071991569772 18.022905927051205 13.505020008674908 0.57357644374324357 0 0.81915203911291934 1.228728058669379 0 -0.86036466561486535 1 I I #
coedge $-1 $383 $383 $-1 $535 reversed $255 $-1 #
edge $-1 $536 0 $536 6.2831853071796004 $256 $537 forward 7 unknown #
vertex $-1 $259 $538 #
ellipse-curve $-1 70.962071991569772 25.377766189165392 13.505020008674908 0.57357644374324357 0 0.81915203911291934 1.228728058669379 0 -0.86036466561486535 1 I I #
face $-1 $-1 $275 $39 $-1 $539 reversed single #
loop $-1 $-1 $403 $260 #
plane-surface $-1 0 47.833275334629285 0 0 -1 0 0 0 -1 forward_v I I I I #
coedge $-1 $540 $401 $404 $541 forward $261 $-1 #
coedge $-1 $407 $263 $264 $395 reversed $164 $-1 #
coedge $-1 $401 $540 $263 $393 reversed $261 $-1 #
edge $-1 $408 -16.098093419603806 $542 16.098093419603806 $392 $543 forward 7 unknown #
coedge $-1 $265 $264 $540 $544 forward $105 $-1 #
edge $-1 $399 -74.6653645435957 $542 74.6653645435957 $391 $545 forward 7 unknown #
coedge $-1 $404 $403 $265 $397 reversed $388 $-1 #
edge $-1 $546 -74.6653645435957 $398 74.6653645435957 $396 $547 forward 7 unknown #
vertex $-1 $267 $548 #
vertex $-1 $410 $549 #
straight-curve $-1 74.6653645435957 0 -16.098093419603806 0 -1 0 I I #
coedge $-1 $390 $392 $268 $402 reversed $261 $-1 #
edge $-1 $405 -47.833275334629285 $408 47.833275334629285 $401 $550 forward 7 unknown #
coedge $-1 $396 $269 $274 $411 forward $388 $-1 #
coedge $-1 $269 $396 $390 $541 reversed $388 $-1 #
vertex $-1 $270 $551 #
straight-curve $-1 0 47.833275334629285 16.098093419603806 -1 0 0 I I #
coedge $-1 $271 $391 $273 $410 reversed $164 $-1 #
vertex $-1 $402 $552 #
straight-curve $-1 0 -47.833275334629285 16.098093419603806 1 0 0 I I #
edge $-1 $276 -16.098093419603806 $399 16.098093419603806 $273 $553 forward 7 unknown #
edge $-1 $277 -16.098093419603806 $398 16.098093419603806 $274 $554 forward 7 unknown #
point $-1 74.6653645435957 -47.833275334629285 16.098093419603806 #
point $-1 74.6653645435957 47.833275334629285 16.098093419603806 #
face $-1 $-1 $424 $40 $-1 $555 reversed single #
loop $-1 $-1 $420 $279 #
plane-surface $-1 0 0 -16.098093419603806 0 0 1 1 0 0 forward_v I I I I #
coedge $-1 $556 $557 $287 $428 forward $280 $-1 #
coedge $-1 $282 $432 $422 $558 forward $172 $-1 #
edge $-1 $426 -27.126401077514977 $292 -14.287347436713638 $282 $559 forward 7 unknown #
coedge $-1 $560 $288 $283 $421 forward $415 $-1 #
edge $-1 $293 14.287347436713638 $425 27.126401077514977 $420 $561 forward 7 unknown #
coedge $-1 $562 $285 $418 $558 reversed $424 $-1 #
coedge $-1 $285 $562 $560 $563 reversed $424 $-1 #
loop $-1 $-1 $285 $414 #
vertex $-1 $563 $564 #
vertex $-1 $286 $565 #
straight-curve $-1 -67.745743993110409 -47.833275334629285 0 0 0 1 I I #
edge $-1 $433 -16.098093419603806 $430 16.098093419603806 $417 $566 forward 7 unknown #
coedge $-1 $288 $560 $556 $567 forward $415 $-1 #
vertex $-1 $289 $568 #
straight-curve $-1 -35.602777134176527 -34.994221693827946 -16.098093419603806 1 0 0 I I #
coedge $-1 $418 $290 $557 $569 forward $172 $-1 #
vertex $-1 $569 $570 #
straight-curve $-1 -35.602777134176527 -34.994221693827946 16.098093419603806 -1 0 0 I I #
point $-1 -67.745743993110409 -34.994221693827946 16.098093419603806 #
point $-1 -67.745743993110409 -34.994221693827946 -16.098093419603806 #
face $-1 $-1 $571 $41 $-1 $572 reversed single #
loop $-1 $-1 $443 $295 #
plane-surface $-1 0 0 16.098093419603806 0 0 1 1 0 0 forward_v I I I I #
coedge $-1 $298 $448 $573 $574 forward $180 $-1 #
edge $-1 $575 -27.126401077514981 $446 -14.287347436713642 $298 $576 forward 7 unknown #
coedge $-1 $300 $299 $577 $578 reversed $113 $-1 #
coedge $-1 $579 $305 $300 $444 forward $438 $-1 #
edge $-1 $445 14.287347436713642 $580 27.126401077514981 $443 $581 forward 7 unknown #
vertex $-1 $306 $582 #
vertex $-1 $304 $583 #
straight-curve $-1 -67.745743993110409 34.994221693827953 0 0 0 -1 I I #
coedge $-1 $440 $303 $308 $454 forward $180 $-1 #
straight-curve $-1 -35.602777134176527 34.994221693827953 -16.098093419603806 -1 0 0 I I #
coedge $-1 $305 $579 $307 $453 forward $438 $-1 #
straight-curve $-1 -35.602777134176527 34.994221693827953 16.098093419603806 1 0 0 I I #
coedge $-1 $308 $307 $584 $585 forward $296 $-1 #
edge $-1 $586 -47.833275334629285 $310 -34.994221693827953 $307 $587 forward 7 unknown #
edge $-1 $309 34.994221693827953 $588 47.833275334629285 $308 $589 forward 7 unknown #
point $-1 -74.6653645435957 34.994221693827953 -16.098093419603806 #
point $-1 -74.6653645435957 34.994221693827953 16.098093419603806 #
loop $-1 $-1 $320 $312 #
plane-surface $-1 -74.6653645435957 0 0 1 0 0 0 0 -1 forward_v I I I I #
coedge $-1 $460 $315 $317 $464 reversed $188 $-1 #
coedge $-1 $315 $459 $590 $591 reversed $188 $-1 #
coedge $-1 $323 $318 $315 $462 forward $313 $-1 #
edge $-1 $465 -29.231540462871706 $592 -22.29772983738718 $461 $593 forward 7 unknown #
coedge $-1 $317 $316 $468 $594 reversed $117 $-1 #
edge $-1 $595 2.3448253187574213e-014 $465 11.52149827518182 $459 $596 forward 7 unknown #
vertex $-1 $319 $597 #
straight-curve $-1 -67.73155391811116 -2.3108326235747505 16.098093419603806 0 1 0 I I #
coedge $-1 $590 $320 $323 $472 reversed $457 $-1 #
coedge $-1 $320 $590 $463 $594 forward $457 $-1 #
vertex $-1 $321 $598 #
straight-curve $-1 -74.6653645435957 -10.481304401406096 48.383045113268452 0 0 1 I I #
straight-curve $-1 -74.665364543595715 -10.481304401406096 6.8966156733428647 -0.60181501223851219 0 -0.79863551827123203 I I #
edge $-1 $592 -1.2379739071070937 $324 10.481304401406096 $467 $599 forward 7 unknown #
point $-1 -74.6653645435957 -10.481304401406096 16.098093419603806 #
point $-1 -67.731553918111175 -10.481304401406096 16.098093419603806 #
edge $-1 $600 1 $600 0 $327 $-1 forward 7 unknown #
vertex $-1 $328 $601 #
ellipse-curve $-1 -69.673430257244874 -8.1374487397034585 10.34816281956015 -0.79863551827123203 0 0.60181501223851219 0.3009075061192561 0 0.39931775913561601 1 I I #
point $-1 -70.897551724734157 -8.1374487397034585 11.896672305608931 #
edge $-1 $602 1 $602 0 $331 $-1 forward 7 unknown #
vertex $-1 $332 $603 #
ellipse-curve $-1 -69.673430257244874 -4.621665247149501 10.34816281956015 -0.79863551827123203 0 0.60181501223851219 0.3009075061192561 0 0.39931775913561601 1 I I #
point $-1 -70.897551724734157 -4.621665247149501 11.896672305608931 #
edge $-1 $604 1 $604 0 $335 $-1 forward 7 unknown #
vertex $-1 $336 $605 #
ellipse-curve $-1 -69.673430257244874 -1.1058817545955435 10.34816281956015 -0.79863551827123203 0 0.60181501223851219 0.3009075061192561 0 0.39931775913561601 1 I I #
point $-1 -70.897551724734157 -1.1058817545955435 11.896672305608931 #
plane-surface $-1 0 0 16.098093419603806 0 0 1 1 0 0 forward_v I I I I #
coedge $-1 $498 $497 $490 $606 forward $340 $-1 #
coedge $-1 $490 $342 $344 $494 reversed $217 $-1 #
coedge $-1 $342 $489 $488 $606 reversed $217 $-1 #
coedge $-1 $350 $345 $342 $492 forward $351 $-1 #
edge $-1 $495 48.262088519033369 $607 55.66867362308524 $491 $608 forward 7 unknown #
coedge $-1 $344 $343 $498 $609 reversed $136 $-1 #
edge $-1 $610 -149.3307290871914 $495 -140.28895814553243 $489 $611 forward 7 unknown #
vertex $-1 $346 $612 #
straight-curve $-1 67.258779439543815 -10.850168029054151 16.098093419603821 0 -1 0 I I #
coedge $-1 $488 $347 $350 $502 reversed $340 $-1 #
coedge $-1 $347 $488 $493 $609 forward $340 $-1 #
vertex $-1 $348 $613 #
straight-curve $-1 74.6653645435957 -13.1196657523084 109.4445531815774 0 0 1 I I #
straight-curve $-1 -47.659206690396061 -13.1196657523084 96.564535129163033 0.81915203911291934 0 -0.57357644374324357 I I #
edge $-1 $607 -30.281006363908205 $352 -13.1196657523084 $497 $614 forward 7 unknown #
point $-1 74.6653645435957 -13.1196657523084 16.098093419603806 #
point $-1 67.258779439543829 -13.1196657523084 16.098093419603799 #
edge $-1 $615 1 $615 0 $355 $-1 forward 7 unknown #
vertex $-1 $356 $616 #
ellipse-curve $-1 70.068387133057612 -25.377766189165406 12.228705783848982 0.57357644374324357 0 0.81915203911291934 1.228728058669379 0 -0.86036466561486535 1 I I #
point $-1 72.190800050239133 -25.377766189165406 12.644655343060037 #
edge $-1 $617 1 $617 0 $359 $-1 forward 7 unknown #
vertex $-1 $360 $618 #
ellipse-curve $-1 70.068387133057612 -18.022905927051205 12.228705783848982 0.57357644374324357 0 0.81915203911291934 1.228728058669379 0 -0.86036466561486535 1 I I #
point $-1 72.190800050239133 -18.022905927051205 12.644655343060037 #
plane-surface $-1 0 0 16.098093419603806 0 0 1 1 0 0 forward_v I I I I #
coedge $-1 $524 $523 $516 $619 forward $364 $-1 #
coedge $-1 $516 $366 $368 $520 reversed $239 $-1 #
coedge $-1 $366 $515 $514 $619 reversed $239 $-1 #
coedge $-1 $374 $369 $366 $518 forward $375 $-1 #
edge $-1 $521 48.262088519033369 $620 55.66867362308524 $517 $621 forward 7 unknown #
coedge $-1 $368 $367 $524 $622 reversed $150 $-1 #
edge $-1 $623 -149.3307290871914 $521 -140.28895814553243 $515 $624 forward 7 unknown #
vertex $-1 $370 $625 #
straight-curve $-1 67.258779439543815 10.850168029054149 16.098093419603821 0 -1 0 I I #
coedge $-1 $514 $371 $374 $528 reversed $364 $-1 #
coedge $-1 $371 $514 $519 $622 forward $364 $-1 #
vertex $-1 $372 $626 #
straight-curve $-1 74.6653645435957 30.281006363908201 109.4445531815774 0 0 1 I I #
straight-curve $-1 -47.659206690396061 30.281006363908201 96.564535129163033 0.81915203911291934 0 -0.57357644374324357 I I #
edge $-1 $620 13.119665752308396 $376 30.281006363908201 $523 $627 forward 7 unknown #
point $-1 74.6653645435957 30.281006363908201 16.098093419603806 #
point $-1 67.258779439543829 30.281006363908201 16.098093419603799 #
edge $-1 $628 1 $628 0 $379 $-1 forward 7 unknown #
vertex $-1 $380 $629 #
ellipse-curve $-1 70.068387133057612 18.022905927051205 12.228705783848982 0.57357644374324357 0 0.81915203911291934 1.228728058669379 0 -0.86036466561486535 1 I I #
point $-1 72.190800050239133 18.022905927051205 12.644655343060037 #
edge $-1 $630 1 $630 0 $383 $-1 forward 7 unknown #
vertex $-1 $384 $631 #
ellipse-curve $-1 70.068387133057612 25.377766189165392 12.228705783848982 0.57357644374324357 0 0.81915203911291934 1.228728058669379 0 -0.86036466561486535 1 I I #
point $-1 72.190800050239133 25.377766189165392 12.644655343060037 #
plane-surface $-1 74.6653645435957 0 0 -1 0 0 0 0 1 forward_v I I I I #
coedge $-1 $392 $390 $394 $544 reversed $261 $-1 #
edge $-1 $405 -16.098093419603806 $546 16.098093419603806 $404 $632 forward 7 unknown #
vertex $-1 $544 $633 #
straight-curve $-1 -74.6653645435957 -47.833275334629285 0 0 0 -1 I I #
edge $-1 $542 -47.833275334629285 $546 47.833275334629285 $540 $634 forward 7 unknown #
straight-curve $-1 0 -47.833275334629285 -16.098093419603806 -1 0 0 I I #
vertex $-1 $397 $635 #
straight-curve $-1 0 47.833275334629285 -16.098093419603806 1 0 0 I I #
point $-1 74.6653645435957 47.833275334629285 -16.098093419603806 #
point $-1 74.6653645435957 -47.833275334629285 -16.098093419603806 #
straight-curve $-1 -74.6653645435957 0 16.098093419603806 0 -1 0 I I #
point $-1 -74.6653645435957 47.833275334629285 16.098093419603806 #
point $-1 -74.6653645435957 -47.833275334629285 16.098093419603806 #
straight-curve $-1 74.6653645435957 -47.833275334629285 0 0 0 -1 I I #
straight-curve $-1 74.6653645435957 47.833275334629285 0 0 0 -1 I I #
plane-surface $-1 0 -47.833275334629285 0 0 1 0 0 0 1 forward_v I I I I #
coedge $-1 $636 $417 $429 $567 reversed $280 $-1 #
coedge $-1 $417 $636 $432 $569 reversed $280 $-1 #
edge $-1 $637 -74.6653645435957 $426 -67.745743993110409 $422 $638 forward 7 unknown #
straight-curve $-1 -67.745743993110409 -20.706874257114308 16.098093419603806 0 1 0 I I #
coedge $-1 $429 $420 $423 $563 forward $415 $-1 #
straight-curve $-1 -67.745743993110409 -20.706874257114308 -16.098093419603806 0 -1 0 I I #
coedge $-1 $423 $422 $636 $639 forward $424 $-1 #
edge $-1 $425 67.745743993110409 $640 74.6653645435957 $423 $641 forward 7 unknown #
point $-1 -67.745743993110409 -47.833275334629285 -16.098093419603806 #
point $-1 -67.745743993110409 -47.833275334629285 16.098093419603806 #
straight-curve $-1 -74.6653645435957 -34.994221693827946 0 0 0 -1 I I #
edge $-1 $640 -47.833275334629285 $430 -34.994221693827946 $556 $642 forward 7 unknown #
point $-1 -74.6653645435957 -34.994221693827946 -16.098093419603806 #
edge $-1 $433 34.994221693827946 $637 47.833275334629285 $557 $643 forward 7 unknown #
point $-1 -74.6653645435957 -34.994221693827946 16.098093419603806 #
loop $-1 $-1 $577 $437 #
plane-surface $-1 0 47.833275334629285 0 0 -1 0 0 0 -1 forward_v I I I I #
coedge $-1 $584 $577 $440 $574 reversed $571 $-1 #
edge $-1 $588 -74.6653645435957 $575 -67.745743993110409 $573 $644 forward 7 unknown #
vertex $-1 $441 $645 #
straight-curve $-1 -67.745743993110409 20.706874257114311 -16.098093419603806 0 -1 0 I I #
coedge $-1 $573 $646 $442 $578 forward $571 $-1 #
edge $-1 $580 -16.098093419603806 $575 16.098093419603806 $577 $647 forward 7 unknown #
coedge $-1 $450 $443 $646 $648 forward $438 $-1 #
vertex $-1 $648 $649 #
straight-curve $-1 -67.745743993110409 20.706874257114311 16.098093419603806 0 1 0 I I #
point $-1 -67.745743993110409 34.994221693827953 16.098093419603806 #
point $-1 -67.745743993110409 34.994221693827953 -16.098093419603806 #
coedge $-1 $646 $573 $452 $585 reversed $571 $-1 #
edge $-1 $586 -16.098093419603806 $588 16.098093419603806 $584 $650 forward 7 unknown #
vertex $-1 $648 $651 #
straight-curve $-1 -74.6653645435957 0 16.098093419603806 0 -1 0 I I #
vertex $-1 $574 $652 #
straight-curve $-1 -74.6653645435957 0 -16.098093419603806 0 1 0 I I #
coedge $-1 $468 $467 $460 $591 forward $457 $-1 #
edge $-1 $592 32.284951693664645 $595 41.486429439925566 $590 $653 forward 7 unknown #
vertex $-1 $472 $654 #
straight-curve $-1 -96.963094380982881 1.2379739071070937 16.098093419603806 -1 0 0 I I #
edge $-1 $595 -3.5488065306818442 $469 8.1704717778313452 $468 $655 forward 7 unknown #
vertex $-1 $594 $656 #
straight-curve $-1 -74.665364543595715 1.2379739071070937 6.8966156733428647 0.60181501223851219 0 0.79863551827123203 I I #
point $-1 -67.731553918111175 1.2379739071070937 16.098093419603806 #
point $-1 -74.6653645435957 -10.481304401406096 6.8966156733428834 #
straight-curve $-1 -74.6653645435957 0 16.098093419603806 0 -1 0 I I #
vertex $-1 $475 $657 #
point $-1 -69.372522751125615 -8.1374487397034585 10.747480578695766 #
vertex $-1 $479 $658 #
point $-1 -69.372522751125615 -4.621665247149501 10.747480578695766 #
vertex $-1 $483 $659 #
point $-1 -69.372522751125615 -1.1058817545955435 10.747480578695766 #
edge $-1 $607 93.346459761973591 $610 98.532606583831353 $488 $660 forward 7 unknown #
vertex $-1 $502 $661 #
straight-curve $-1 18.99669092051046 -30.281006363908205 16.098093419603813 1 0 0 I I #
edge $-1 $610 -19.430838334854052 $499 -2.2694977232542488 $498 $662 forward 7 unknown #
vertex $-1 $609 $663 #
straight-curve $-1 -47.659206690396061 -30.281006363908205 96.564535129163033 -0.81915203911291934 0 0.57357644374324357 I I #
point $-1 67.258779439543829 -30.281006363908205 16.098093419603799 #
point $-1 74.665364543595715 -13.1196657523084 10.911946597746052 #
straight-curve $-1 74.6653645435957 0 16.098093419603806 0 1 0 I I #
vertex $-1 $505 $664 #
point $-1 71.297115191726988 -25.377766189165406 11.368341118234117 #
vertex $-1 $509 $665 #
point $-1 71.297115191726988 -18.022905927051205 11.368341118234117 #
edge $-1 $620 93.346459761973591 $623 98.532606583831353 $514 $666 forward 7 unknown #
vertex $-1 $528 $667 #
straight-curve $-1 18.99669092051046 13.119665752308396 16.098093419603813 1 0 0 I I #
edge $-1 $623 2.269497723254247 $525 19.430838334854052 $524 $668 forward 7 unknown #
vertex $-1 $622 $669 #
straight-curve $-1 -47.659206690396061 13.119665752308396 96.564535129163033 -0.81915203911291934 0 0.57357644374324357 I I #
point $-1 67.258779439543829 13.119665752308396 16.098093419603799 #
point $-1 74.665364543595715 30.281006363908201 10.911946597746052 #
straight-curve $-1 74.6653645435957 0 16.098093419603806 0 1 0 I I #
vertex $-1 $531 $670 #
point $-1 71.297115191726988 18.022905927051205 11.368341118234117 #
vertex $-1 $535 $671 #
point $-1 71.297115191726988 25.377766189165392 11.368341118234117 #
straight-curve $-1 -74.6653645435957 47.833275334629285 0 0 0 -1 I I #
point $-1 -74.6653645435957 -47.833275334629285 -16.098093419603806 #
straight-curve $-1 -74.6653645435957 0 -16.098093419603806 0 1 0 I I #
point $-1 -74.6653645435957 47.833275334629285 -16.098093419603806 #
coedge $-1 $557 $556 $562 $639 reversed $280 $-1 #
vertex $-1 $569 $672 #
straight-curve $-1 0 -47.833275334629285 16.098093419603806 1 0 0 I I #
edge $-1 $637 -16.098093419603806 $640 16.098093419603806 $636 $673 forward 7 unknown #
vertex $-1 $567 $674 #
straight-curve $-1 0 -47.833275334629285 -16.098093419603806 -1 0 0 I I #
straight-curve $-1 -74.6653645435957 0 -16.098093419603806 0 1 0 I I #
straight-curve $-1 -74.6653645435957 0 16.098093419603806 0 -1 0 I I #
straight-curve $-1 0 47.833275334629285 -16.098093419603806 1 0 0 I I #
point $-1 -67.745743993110409 47.833275334629292 -16.098093419603806 #
coedge $-1 $577 $584 $579 $648 reversed $571 $-1 #
straight-curve $-1 -67.745743993110409 47.833275334629285 0 0 0 -1 I I #
edge $-1 $580 67.745743993110409 $586 74.6653645435957 $646 $675 forward 7 unknown #
point $-1 -67.745743993110409 47.833275334629292 16.098093419603806 #
straight-curve $-1 -74.6653645435957 47.833275334629285 0 0 0 -1 I I #
point $-1 -74.6653645435957 47.833275334629285 16.098093419603806 #
point $-1 -74.6653645435957 47.833275334629285 -16.098093419603806 #
straight-curve $-1 -74.6653645435957 1.2379739071070937 48.383045113268452 0 0 -1 I I #
point $-1 -74.6653645435957 1.2379739071070937 16.098093419603806 #
straight-curve $-1 -74.6653645435957 -2.3108326235747505 6.8966156733428789 0 -1 0 I I #
point $-1 -74.6653645435957 1.2379739071070937 6.8966156733428834 #
point $-1 -69.274112498109261 -8.1374487397034585 10.047255313440894 #
point $-1 -69.274112498109261 -4.621665247149501 10.047255313440894 #
point $-1 -69.274112498109261 -1.1058817545955435 10.047255313440894 #
straight-curve $-1 74.6653645435957 -30.281006363908205 109.4445531815774 0 0 -1 I I #
point $-1 74.6653645435957 -30.281006363908205 16.098093419603806 #
straight-curve $-1 74.6653645435957 -10.850168029054151 10.911946597746045 0 1 0 I I #
point $-1 74.665364543595715 -30.281006363908205 10.911946597746052 #
point $-1 69.208022467442746 -25.377766189165406 10.999977725179603 #
point $-1 69.208022467442746 -18.022905927051205 10.999977725179603 #
straight-curve $-1 74.6653645435957 13.119665752308396 109.4445531815774 0 0 -1 I I #
point $-1 74.6653645435957 13.119665752308396 16.098093419603806 #
straight-curve $-1 74.6653645435957 10.850168029054149 10.911946597746045 0 1 0 I I #
point $-1 74.665364543595715 13.119665752308396 10.911946597746052 #
point $-1 69.208022467442746 18.022905927051205 10.999977725179603 #
point $-1 69.208022467442746 25.377766189165392 10.999977725179603 #
point $-1 -74.6653645435957 -47.833275334629285 16.098093419603806 #
straight-curve $-1 -74.6653645435957 -47.833275334629285 0 0 0 -1 I I #
point $-1 -74.6653645435957 -47.833275334629285 -16.098093419603806 #
straight-curve $-1 0 47.833275334629285 16.098093419603806 -1 0 0 I I #
End-of-ACIS-data 