500 0 5 0           
7 Unknown 11 ACIS 5.0 NT 24 Fri Mar 26 16:41:49 1999 
-1 9.9999999999999995e-007 1e-010 
body $-1 $5 $-1 $6 #
body $-1 $7 $-1 $8 #
body $-1 $9 $-1 $10 #
body $-1 $11 $-1 $12 #
body $-1 $13 $-1 $14 #
lump $-1 $-1 $15 $0 #
transform $-1 1 0 0 0 1 0 0 0 1 42.04596087527085 20.845003363951534 9.8249580661500993 1 rotate no_reflect no_shear #
lump $-1 $-1 $16 $1 #
transform $-1 1 0 0 0 1 0 0 0 1 42.04596087527085 20.845003363951534 9.8249580661500993 1 rotate no_reflect no_shear #
lump $-1 $-1 $17 $2 #
transform $-1 1 0 0 0 1 0 0 0 1 42.04596087527085 20.845003363951534 9.8249580661500993 1 rotate no_reflect no_shear #
lump $-1 $-1 $18 $3 #
transform $-1 1 0 0 0 1 0 0 0 1 42.04596087527085 20.845003363951534 9.8249580661500993 1 rotate no_reflect no_shear #
lump $-1 $-1 $19 $4 #
transform $-1 1 0 0 0 1 0 0 0 1 42.04596087527085 20.845003363951534 9.8249580661500993 1 rotate no_reflect no_shear #
shell $-1 $-1 $-1 $20 $-1 $5 #
shell $-1 $-1 $-1 $21 $-1 $7 #
shell $-1 $-1 $-1 $22 $-1 $9 #
shell $-1 $-1 $-1 $23 $-1 $11 #
shell $-1 $-1 $-1 $24 $-1 $13 #
face $-1 $25 $26 $15 $-1 $27 forward single #
face $-1 $28 $29 $16 $-1 $30 reversed single #
face $-1 $31 $32 $17 $-1 $33 reversed single #
face $-1 $34 $35 $18 $-1 $36 forward single #
face $-1 $37 $38 $19 $-1 $39 forward single #
face $-1 $40 $41 $15 $-1 $42 reversed single #
loop $-1 $-1 $43 $20 #
plane-surface $-1 0 0 9.8249580661500993 0 0 1 1 0 0 forward_v I I I I #
face $-1 $44 $45 $16 $-1 $46 reversed single #
loop $-1 $-1 $47 $21 #
plane-surface $-1 -25.396044742970652 -16.925070877393754 0 1 0 0 0 0 -1 forward_v I I I I #
face $-1 $48 $49 $17 $-1 $50 reversed single #
loop $-1 $-1 $51 $22 #
plane-surface $-1 15.893814004891063 59.960330528586397 89.265988513316557 1 0 0 0 -0.77714596973225614 -0.62932038083071107 forward_v I I I I #
face $-1 $52 $53 $18 $-1 $54 forward single #
loop $-1 $55 $56 $23 #
cone-surface $-1 19.791968364045125 17.17014143191227 5.837199704646773 0 -0.77714596973225614 -0.62932038083071107 1.5 0 0 1 I I 0 1 1.5 forward I I I I #
face $-1 $57 $58 $19 $-1 $59 forward single #
loop $-1 $60 $61 $24 #
cone-surface $-1 25.639199902776227 17.17014143191227 5.837199704646773 0 -0.77714596973225614 -0.62932038083071107 1.5 0 0 1 I I 0 1 1.5 forward I I I I #
face $-1 $62 $63 $15 $-1 $64 reversed single #
loop $-1 $-1 $65 $25 #
plane-surface $-1 0 0 -9.8249580661500993 0 0 1 1 0 0 forward_v I I I I #
coedge $-1 $66 $67 $68 $69 forward $26 $-1 #
face $-1 $70 $71 $16 $-1 $72 reversed single #
loop $-1 $-1 $73 $28 #
plane-surface $-1 -23.896044742970652 -13.005138390835974 0 0 -1 0 0 0 -1 forward_v I I I I #
coedge $-1 $74 $75 $76 $77 forward $29 $-1 #
face $-1 $78 $79 $17 $-1 $80 reversed single #
loop $-1 $-1 $81 $31 #
plane-surface $-1 22.715584133410687 -5.3913675468873379 36.345228292479298 0 0.77714596973225614 0.62932038083071107 1 0 0 forward_v I I I I #
coedge $-1 $82 $83 $84 $85 reversed $32 $-1 #
face $-1 $-1 $86 $18 $-1 $87 forward single #
loop $-1 $88 $89 $34 #
cone-surface $-1 19.791968364045125 15.292760074048829 4.3169262977060647 0 -0.77714596973225614 -0.62932038083071107 0.75 0 0 1 I I -0.70710678118654757 0.70710678118654757 0.75 forward I I I I #
loop $-1 $-1 $90 $23 #
coedge $-1 $56 $56 $91 $92 reversed $35 $-1 #
face $-1 $-1 $93 $19 $-1 $94 forward single #
loop $-1 $95 $96 $37 #
cone-surface $-1 25.639199902776227 15.292760074048829 4.3169262977060647 0 -0.77714596973225614 -0.62932038083071107 0.75 0 0 1 I I -0.70710678118654757 0.70710678118654757 0.75 forward I I I I #
loop $-1 $-1 $97 $24 #
coedge $-1 $61 $61 $98 $99 reversed $38 $-1 #
face $-1 $100 $101 $15 $-1 $102 reversed single #
loop $-1 $-1 $103 $40 #
plane-surface $-1 0 -20.845003363951534 0 0 1 0 0 0 1 forward_v I I I I #
coedge $-1 $104 $105 $106 $107 forward $41 $-1 #
coedge $-1 $108 $43 $109 $110 forward $26 $-1 #
coedge $-1 $43 $108 $111 $112 forward $26 $-1 #
coedge $-1 $113 $114 $43 $69 reversed $115 $-1 #
edge $-1 $116 -20.845003363951534 $117 20.845003363951534 $68 $118 forward 7 unknown #
face $-1 $119 $120 $16 $-1 $121 forward single #
loop $-1 $-1 $122 $44 #
plane-surface $-1 -22.396044742970652 -16.925070877393754 0 -1 0 0 0 0 1 forward_v I I I I #
coedge $-1 $123 $124 $125 $126 forward $45 $-1 #
coedge $-1 $127 $47 $128 $129 reversed $29 $-1 #
coedge $-1 $47 $127 $130 $131 reversed $29 $-1 #
coedge $-1 $124 $123 $47 $77 reversed $45 $-1 #
edge $-1 $132 -9.8249580661500993 $133 9.8249580661500993 $76 $134 forward 7 unknown #
face $-1 $135 $136 $17 $-1 $137 reversed single #
loop $-1 $-1 $138 $48 #
plane-surface $-1 29.537354261930311 59.960330528586397 89.265988513316557 -1 0 0 0 0.77714596973225614 0.62932038083071107 forward_v I I I I #
coedge $-1 $139 $140 $141 $142 reversed $49 $-1 #
coedge $-1 $83 $51 $143 $144 reversed $32 $-1 #
coedge $-1 $51 $82 $139 $145 reversed $32 $-1 #
coedge $-1 $141 $146 $51 $85 forward $147 $-1 #
edge $-1 $148 9.1351619003416644 $149 13.895842003291712 $84 $150 forward 7 unknown #
loop $-1 $-1 $91 $52 #
plane-surface $-1 22.715584133410687 -5.3913675468873379 36.345228292479298 0 0.77714596973225614 0.62932038083071107 1 0 0 forward_v I I I I #
loop $-1 $-1 $151 $34 #
coedge $-1 $89 $89 $90 $152 reversed $53 $-1 #
coedge $-1 $90 $90 $89 $152 forward $55 $-1 #
coedge $-1 $91 $91 $56 $92 forward $86 $-1 #
edge $-1 $153 -7.0024265568967864e-016 $153 6.2831853071795996 $91 $154 forward 7 unknown #
loop $-1 $-1 $98 $57 #
plane-surface $-1 22.715584133410687 -5.3913675468873379 36.345228292479298 0 0.77714596973225614 0.62932038083071107 1 0 0 forward_v I I I I #
loop $-1 $-1 $155 $37 #
coedge $-1 $96 $96 $97 $156 reversed $58 $-1 #
coedge $-1 $97 $97 $96 $156 forward $60 $-1 #
coedge $-1 $98 $98 $61 $99 forward $93 $-1 #
edge $-1 $157 -7.0024265568967864e-016 $157 6.2831853071795996 $98 $158 forward 7 unknown #
face $-1 $159 $160 $15 $-1 $161 reversed single #
loop $-1 $-1 $162 $62 #
plane-surface $-1 -42.04596087527085 0 0 1 0 0 0 0 -1 forward_v I I I I #
coedge $-1 $163 $111 $164 $165 forward $63 $-1 #
coedge $-1 $166 $65 $163 $167 forward $41 $-1 #
coedge $-1 $65 $166 $168 $169 forward $41 $-1 #
coedge $-1 $114 $113 $65 $107 reversed $115 $-1 #
edge $-1 $170 -20.845003363951534 $171 20.845003363951534 $106 $172 forward 7 unknown #
coedge $-1 $67 $66 $173 $174 forward $26 $-1 #
coedge $-1 $175 $176 $66 $110 reversed $160 $-1 #
edge $-1 $117 -42.04596087527085 $177 42.04596087527085 $109 $178 forward 7 unknown #
coedge $-1 $103 $179 $67 $112 reversed $63 $-1 #
edge $-1 $180 -42.04596087527085 $116 42.04596087527085 $111 $181 forward 7 unknown #
coedge $-1 $106 $68 $179 $182 forward $115 $-1 #
coedge $-1 $68 $106 $175 $183 reversed $115 $-1 #
loop $-1 $-1 $113 $159 #
vertex $-1 $69 $184 #
vertex $-1 $69 $185 #
straight-curve $-1 42.04596087527085 0 9.8249580661500993 0 1 0 I I #
face $-1 $186 $187 $16 $-1 $188 reversed single #
loop $-1 $-1 $189 $70 #
plane-surface $-1 0 0 9.8249580661500993 0 0 1 1 0 0 forward_v I I I I #
coedge $-1 $190 $191 $192 $193 reversed $71 $-1 #
coedge $-1 $76 $73 $194 $195 reversed $45 $-1 #
coedge $-1 $73 $76 $196 $197 reversed $45 $-1 #
coedge $-1 $191 $190 $73 $126 reversed $71 $-1 #
edge $-1 $198 -9.8249580661500993 $199 9.8249580661500993 $125 $200 forward 7 unknown #
coedge $-1 $75 $74 $201 $202 reversed $29 $-1 #
coedge $-1 $194 $203 $74 $129 forward $187 $-1 #
edge $-1 $204 -12.382467925254657 $133 -4.5426029521390969 $128 $205 forward 7 unknown #
coedge $-1 $206 $196 $75 $131 forward $120 $-1 #
edge $-1 $132 4.5426029521390969 $207 12.382467925254657 $130 $208 forward 7 unknown #
vertex $-1 $131 $209 #
vertex $-1 $129 $210 #
straight-curve $-1 -25.396044742970652 -13.005138390835974 0 0 0 -1 I I #
face $-1 $-1 $147 $17 $-1 $211 forward single #
loop $-1 $-1 $212 $78 #
plane-surface $-1 0 20.845003363951534 0 0 -1 0 0 0 -1 forward_v I I I I #
coedge $-1 $213 $214 $215 $216 reversed $79 $-1 #
coedge $-1 $217 $81 $83 $145 forward $49 $-1 #
coedge $-1 $81 $217 $213 $218 forward $49 $-1 #
coedge $-1 $215 $84 $81 $142 forward $147 $-1 #
edge $-1 $149 4.5360219381857192 $219 18.179562195224968 $141 $220 forward 7 unknown #
coedge $-1 $221 $222 $82 $144 forward $136 $-1 #
edge $-1 $223 -40.686986670879499 $148 -34.808036190508176 $143 $224 forward 7 unknown #
edge $-1 $149 34.125211040425285 $223 41.690006727903068 $83 $225 forward 7 unknown #
coedge $-1 $84 $215 $221 $226 forward $147 $-1 #
loop $-1 $-1 $215 $135 #
vertex $-1 $144 $227 #
vertex $-1 $85 $228 #
straight-curve $-1 15.893814004891063 29.980165264293198 9.8249580661500957 0 -1 0 I I #
coedge $-1 $151 $151 $-1 $229 reversed $88 $-1 #
edge $-1 $230 0 $230 6.2831853071796004 $89 $231 forward 7 unknown #
vertex $-1 $92 $232 #
ellipse-curve $-1 19.791968364045125 18.46466331247651 6.8854828259644405 0 0.77714596973225614 0.62932038083071107 1.5 0 0 1 I I #
coedge $-1 $155 $155 $-1 $233 reversed $95 $-1 #
edge $-1 $234 0 $234 6.2831853071796004 $96 $235 forward 7 unknown #
vertex $-1 $99 $236 #
ellipse-curve $-1 25.639199902776227 18.46466331247651 6.8854828259644405 0 0.77714596973225614 0.62932038083071107 1.5 0 0 1 I I #
face $-1 $-1 $115 $15 $-1 $237 reversed single #
loop $-1 $-1 $175 $100 #
plane-surface $-1 0 20.845003363951534 0 0 -1 0 0 0 -1 forward_v I I I I #
coedge $-1 $238 $173 $176 $239 forward $101 $-1 #
coedge $-1 $179 $103 $104 $167 reversed $63 $-1 #
coedge $-1 $173 $238 $103 $165 reversed $101 $-1 #
edge $-1 $180 -9.8249580661500993 $240 9.8249580661500993 $164 $241 forward 7 unknown #
coedge $-1 $105 $104 $238 $242 forward $41 $-1 #
edge $-1 $171 -42.04596087527085 $240 42.04596087527085 $163 $243 forward 7 unknown #
coedge $-1 $176 $175 $105 $169 reversed $160 $-1 #
edge $-1 $244 -42.04596087527085 $170 42.04596087527085 $168 $245 forward 7 unknown #
vertex $-1 $107 $246 #
vertex $-1 $182 $247 #
straight-curve $-1 42.04596087527085 0 -9.8249580661500993 0 -1 0 I I #
coedge $-1 $162 $164 $108 $174 reversed $101 $-1 #
edge $-1 $177 -20.845003363951534 $180 20.845003363951534 $173 $248 forward 7 unknown #
coedge $-1 $168 $109 $114 $183 forward $160 $-1 #
coedge $-1 $109 $168 $162 $239 reversed $160 $-1 #
vertex $-1 $110 $249 #
straight-curve $-1 0 20.845003363951534 9.8249580661500993 -1 0 0 I I #
coedge $-1 $111 $163 $113 $182 reversed $63 $-1 #
vertex $-1 $174 $250 #
straight-curve $-1 0 -20.845003363951534 9.8249580661500993 1 0 0 I I #
edge $-1 $116 -9.8249580661500993 $171 9.8249580661500993 $113 $251 forward 7 unknown #
edge $-1 $117 -9.8249580661500993 $170 9.8249580661500993 $114 $252 forward 7 unknown #
point $-1 42.04596087527085 -20.845003363951534 9.8249580661500993 #
point $-1 42.04596087527085 20.845003363951534 9.8249580661500993 #
face $-1 $-1 $253 $16 $-1 $254 reversed single #
loop $-1 $-1 $255 $119 #
plane-surface $-1 0 0 -9.8249580661500993 0 0 1 1 0 0 forward_v I I I I #
coedge $-1 $196 $206 $191 $256 forward $120 $-1 #
coedge $-1 $125 $122 $255 $257 reversed $71 $-1 #
coedge $-1 $122 $125 $189 $256 reversed $71 $-1 #
coedge $-1 $258 $259 $122 $193 forward $253 $-1 #
edge $-1 $260 -9.8249580661500993 $261 9.8249580661500993 $192 $262 forward 7 unknown #
coedge $-1 $255 $128 $123 $195 forward $187 $-1 #
edge $-1 $133 -13.448022371485326 $199 -10.448022371485326 $194 $263 forward 7 unknown #
coedge $-1 $130 $189 $124 $197 forward $120 $-1 #
edge $-1 $198 10.448022371485326 $132 13.448022371485326 $196 $264 forward 7 unknown #
vertex $-1 $197 $265 #
vertex $-1 $195 $266 #
straight-curve $-1 -22.396044742970652 -13.005138390835974 0 0 0 -1 I I #
coedge $-1 $259 $258 $127 $202 forward $253 $-1 #
edge $-1 $207 -9.8249580661500993 $204 9.8249580661500993 $201 $267 forward 7 unknown #
coedge $-1 $128 $255 $259 $268 forward $187 $-1 #
vertex $-1 $129 $269 #
straight-curve $-1 -25.396044742970652 -8.462535438696877 -9.8249580661500993 0 1 0 I I #
coedge $-1 $189 $130 $258 $270 forward $120 $-1 #
vertex $-1 $270 $271 #
straight-curve $-1 -25.396044742970652 -8.462535438696877 9.8249580661500993 0 -1 0 I I #
point $-1 -25.396044742970652 -13.005138390835974 9.8249580661500993 #
point $-1 -25.396044742970652 -13.005138390835974 -9.8249580661500993 #
plane-surface $-1 0 0 9.8249580661500993 0 0 1 1 0 0 forward_v I I I I #
coedge $-1 $222 $221 $214 $272 forward $136 $-1 #
coedge $-1 $214 $138 $140 $218 reversed $79 $-1 #
coedge $-1 $138 $213 $212 $272 reversed $79 $-1 #
coedge $-1 $146 $141 $138 $216 forward $147 $-1 #
edge $-1 $219 -13.895842003291712 $273 -9.1351619003416644 $215 $274 forward 7 unknown #
coedge $-1 $140 $139 $222 $275 reversed $49 $-1 #
edge $-1 $276 -41.690006727903068 $219 -34.125211040425285 $213 $277 forward 7 unknown #
vertex $-1 $142 $278 #
straight-curve $-1 11.357792066705343 16.084323261001483 9.8249580661500993 1 0 0 I I #
coedge $-1 $212 $143 $146 $226 reversed $136 $-1 #
coedge $-1 $143 $212 $217 $275 forward $136 $-1 #
vertex $-1 $144 $279 #
straight-curve $-1 15.893814004891063 20.845003363951534 44.632994256658279 0 0 1 I I #
straight-curve $-1 15.893814004891063 -5.3913675468873379 36.345228292479298 0 0.62932038083071107 -0.77714596973225614 I I #
edge $-1 $273 -29.537354261930311 $148 -15.893814004891063 $221 $280 forward 7 unknown #
point $-1 15.893814004891063 20.845003363951534 9.8249580661500993 #
point $-1 15.893814004891063 16.084323261001487 9.8249580661500957 #
edge $-1 $281 1 $281 0 $151 $-1 forward 7 unknown #
vertex $-1 $152 $282 #
ellipse-curve $-1 19.791968364045125 15.87561955134802 4.7889165833290983 0 0.77714596973225614 0.62932038083071107 1.5 0 0 1 I I #
point $-1 21.291968364045125 18.464663312476517 6.8854828259644476 #
edge $-1 $283 1 $283 0 $155 $-1 forward 7 unknown #
vertex $-1 $156 $284 #
ellipse-curve $-1 25.639199902776227 15.87561955134802 4.7889165833290983 0 0.77714596973225614 0.62932038083071107 1.5 0 0 1 I I #
point $-1 27.139199902776227 18.464663312476517 6.8854828259644476 #
plane-surface $-1 42.04596087527085 0 0 -1 0 0 0 0 1 forward_v I I I I #
coedge $-1 $164 $162 $166 $242 reversed $101 $-1 #
edge $-1 $177 -9.8249580661500993 $244 9.8249580661500993 $176 $285 forward 7 unknown #
vertex $-1 $242 $286 #
straight-curve $-1 -42.04596087527085 -20.845003363951534 0 0 0 -1 I I #
edge $-1 $240 -20.845003363951534 $244 20.845003363951534 $238 $287 forward 7 unknown #
straight-curve $-1 0 -20.845003363951534 -9.8249580661500993 -1 0 0 I I #
vertex $-1 $169 $288 #
straight-curve $-1 0 20.845003363951534 -9.8249580661500993 1 0 0 I I #
point $-1 42.04596087527085 20.845003363951534 -9.8249580661500993 #
point $-1 42.04596087527085 -20.845003363951534 -9.8249580661500993 #
straight-curve $-1 -42.04596087527085 0 9.8249580661500993 0 -1 0 I I #
point $-1 -42.04596087527085 20.845003363951534 9.8249580661500993 #
point $-1 -42.04596087527085 -20.845003363951534 9.8249580661500993 #
straight-curve $-1 42.04596087527085 -20.845003363951534 0 0 0 -1 I I #
straight-curve $-1 42.04596087527085 20.845003363951534 0 0 0 -1 I I #
loop $-1 $-1 $192 $186 #
plane-surface $-1 0 -20.845003363951534 0 0 1 0 0 0 1 forward_v I I I I #
coedge $-1 $203 $194 $190 $257 forward $187 $-1 #
edge $-1 $261 -12.382467925254657 $198 -4.5426029521390969 $189 $289 forward 7 unknown #
edge $-1 $199 4.5426029521390969 $260 12.382467925254657 $255 $290 forward 7 unknown #
coedge $-1 $201 $192 $206 $270 reversed $253 $-1 #
coedge $-1 $192 $201 $203 $268 reversed $253 $-1 #
vertex $-1 $268 $291 #
vertex $-1 $193 $292 #
straight-curve $-1 -22.396044742970652 -20.845003363951534 0 0 0 1 I I #
straight-curve $-1 -11.948022371485326 -13.005138390835974 -9.8249580661500993 1 0 0 I I #
straight-curve $-1 -11.948022371485326 -13.005138390835974 9.8249580661500993 -1 0 0 I I #
point $-1 -22.396044742970652 -13.005138390835974 9.8249580661500993 #
point $-1 -22.396044742970652 -13.005138390835974 -9.8249580661500993 #
straight-curve $-1 -25.396044742970652 -20.845003363951534 0 0 0 -1 I I #
edge $-1 $260 22.396044742970652 $204 25.396044742970652 $259 $293 forward 7 unknown #
point $-1 -25.396044742970652 -20.845003363951534 -9.8249580661500993 #
edge $-1 $207 -25.396044742970652 $261 -22.396044742970652 $258 $294 forward 7 unknown #
point $-1 -25.396044742970652 -20.845003363951534 9.8249580661500993 #
edge $-1 $273 34.808036190508176 $276 40.686986670879499 $212 $295 forward 7 unknown #
vertex $-1 $226 $296 #
straight-curve $-1 29.537354261930311 29.980165264293198 9.8249580661500957 0 1 0 I I #
edge $-1 $276 -18.179562195224968 $223 -4.5360219381857192 $222 $297 forward 7 unknown #
vertex $-1 $275 $298 #
straight-curve $-1 29.537354261930311 -5.3913675468873379 36.345228292479298 0 -0.62932038083071107 0.77714596973225614 I I #
point $-1 29.537354261930311 16.084323261001487 9.8249580661500957 #
point $-1 15.893814004891063 20.84500336395153 3.94600758577878 #
straight-curve $-1 0 20.845003363951534 9.8249580661500993 -1 0 0 I I #
vertex $-1 $229 $299 #
point $-1 21.291968364045125 15.87561955134802 4.7889165833290983 #
vertex $-1 $233 $300 #
point $-1 27.139199902776227 15.87561955134802 4.7889165833290983 #
straight-curve $-1 -42.04596087527085 20.845003363951534 0 0 0 -1 I I #
point $-1 -42.04596087527085 -20.845003363951534 -9.8249580661500993 #
straight-curve $-1 -42.04596087527085 0 -9.8249580661500993 0 1 0 I I #
point $-1 -42.04596087527085 20.845003363951534 -9.8249580661500993 #
straight-curve $-1 -22.396044742970652 -8.462535438696877 9.8249580661500993 0 1 0 I I #
straight-curve $-1 -22.396044742970652 -8.462535438696877 -9.8249580661500993 0 -1 0 I I #
point $-1 -22.396044742970652 -20.845003363951534 -9.8249580661500993 #
point $-1 -22.396044742970652 -20.845003363951534 9.8249580661500993 #
straight-curve $-1 0 -20.845003363951534 -9.8249580661500993 -1 0 0 I I #
straight-curve $-1 0 -20.845003363951534 9.8249580661500993 1 0 0 I I #
straight-curve $-1 29.537354261930311 20.845003363951534 44.632994256658279 0 0 -1 I I #
point $-1 29.537354261930311 20.845003363951534 9.8249580661500993 #
straight-curve $-1 11.357792066705343 20.845003363951534 3.94600758577878 -1 0 0 I I #
point $-1 29.537354261930311 20.84500336395153 3.94600758577878 #
point $-1 19.791968364045125 14.709900596749637 3.8449360120830316 #
point $-1 25.639199902776227 14.709900596749637 3.8449360120830316 #
End-of-ACIS-data 