500 0 6 0           
7 Unknown 11 ACIS 5.0 NT 24 Thu Mar 25 19:00:29 1999 
-1 9.9999999999999995e-007 1e-010 
body $-1 $6 $-1 $7 #
body $-1 $8 $-1 $9 #
body $-1 $10 $-1 $11 #
body $-1 $12 $-1 $13 #
body $-1 $14 $-1 $15 #
body $-1 $16 $-1 $17 #
lump $-1 $-1 $18 $0 #
transform $-1 1 0 0 0 1 0 0 0 1 56.523941770683919 35.980429244628681 16.255485104181329 1 rotate no_reflect no_shear #
lump $-1 $-1 $19 $1 #
transform $-1 1 0 0 0 1 0 0 0 1 56.523941770683919 35.980429244628681 16.255485104181329 1 rotate no_reflect no_shear #
lump $-1 $-1 $20 $2 #
transform $-1 1 0 0 0 1 0 0 0 1 56.523941770683919 35.980429244628681 16.255485104181329 1 rotate no_reflect no_shear #
lump $-1 $-1 $21 $3 #
transform $-1 1 0 0 0 1 0 0 0 1 56.523941770683919 35.980429244628681 16.255485104181329 1 rotate no_reflect no_shear #
lump $-1 $-1 $22 $4 #
transform $-1 1 0 0 0 1 0 0 0 1 56.523941770683919 35.980429244628681 16.255485104181329 1 rotate no_reflect no_shear #
lump $-1 $-1 $23 $5 #
transform $-1 1 0 0 0 1 0 0 0 1 56.523941770683919 35.980429244628681 16.255485104181329 1 rotate no_reflect no_shear #
shell $-1 $-1 $-1 $24 $-1 $6 #
shell $-1 $-1 $-1 $25 $-1 $8 #
shell $-1 $-1 $-1 $26 $-1 $10 #
shell $-1 $-1 $-1 $27 $-1 $12 #
shell $-1 $-1 $-1 $28 $-1 $14 #
shell $-1 $-1 $-1 $29 $-1 $16 #
face $-1 $30 $31 $18 $-1 $32 forward single #
face $-1 $33 $34 $19 $-1 $35 reversed single #
face $-1 $36 $37 $20 $-1 $38 reversed single #
face $-1 $39 $40 $21 $-1 $41 forward single #
face $-1 $42 $43 $22 $-1 $44 forward single #
face $-1 $45 $46 $23 $-1 $47 forward single #
face $-1 $48 $49 $18 $-1 $50 reversed single #
loop $-1 $-1 $51 $24 #
plane-surface $-1 0 0 16.255485104181329 0 0 1 1 0 0 forward_v I I I I #
face $-1 $52 $53 $19 $-1 $54 reversed single #
loop $-1 $-1 $55 $25 #
plane-surface $-1 -54.835389426889797 -22.34070455240203 0 0 -1 0 0 0 -1 forward_v I I I I #
face $-1 $56 $57 $20 $-1 $58 reversed single #
loop $-1 $-1 $59 $26 #
plane-surface $-1 33.513813920128392 85.140558581148667 134.0818583385838 1 0 0 0 -0.80901700255871778 -0.5877852410284794 forward_v I I I I #
face $-1 $60 $61 $21 $-1 $62 forward single #
loop $-1 $63 $64 $27 #
cone-surface $-1 38.115839490239509 30.629387565218302 10.753242163304492 0 -0.80901700255871778 -0.5877852410284794 2 0 0 1 I I 0 1 2 forward I I I I #
face $-1 $65 $66 $22 $-1 $67 forward single #
loop $-1 $68 $69 $28 #
cone-surface $-1 45.018877845406166 30.629387565218302 10.753242163304492 0 -0.80901700255871778 -0.5877852410284794 2 0 0 1 I I 0 1 2 forward I I I I #
face $-1 $70 $71 $23 $-1 $72 forward single #
loop $-1 $73 $74 $29 #
cone-surface $-1 51.921916200572824 30.629387565218302 10.753242163304492 0 -0.80901700255871778 -0.5877852410284794 2 0 0 1 I I 0 1 2 forward I I I I #
face $-1 $75 $76 $18 $-1 $77 reversed single #
loop $-1 $-1 $78 $30 #
plane-surface $-1 0 0 -16.255485104181329 0 0 1 1 0 0 forward_v I I I I #
coedge $-1 $79 $80 $81 $82 forward $31 $-1 #
face $-1 $83 $84 $19 $-1 $85 forward single #
loop $-1 $-1 $86 $33 #
plane-surface $-1 -53.146837083095676 -29.160566898515356 0 -1 0 0 0 0 1 forward_v I I I I #
coedge $-1 $87 $88 $89 $90 forward $34 $-1 #
face $-1 $91 $92 $20 $-1 $93 forward single #
loop $-1 $-1 $94 $36 #
plane-surface $-1 45.018877845406152 -6.31710130709574 67.633980863461431 0 0.80901700255871778 0.5877852410284794 1 0 0 forward_v I I I I #
coedge $-1 $95 $96 $97 $98 reversed $37 $-1 #
face $-1 $-1 $99 $21 $-1 $100 forward single #
loop $-1 $101 $102 $39 #
cone-surface $-1 38.115839490239509 26.953763608557061 8.0827451200246436 0 -0.80901700255871778 -0.5877852410284794 1 0 0 1 I I -0.70710678118654746 0.70710678118654746 1 forward I I I I #
loop $-1 $-1 $103 $27 #
coedge $-1 $64 $64 $104 $105 reversed $40 $-1 #
face $-1 $-1 $106 $22 $-1 $107 forward single #
loop $-1 $108 $109 $42 #
cone-surface $-1 45.018877845406166 26.953763608557061 8.0827451200246436 0 -0.80901700255871778 -0.5877852410284794 1 0 0 1 I I -0.70710678118654746 0.70710678118654746 1 forward I I I I #
loop $-1 $-1 $110 $28 #
coedge $-1 $69 $69 $111 $112 reversed $43 $-1 #
face $-1 $-1 $113 $23 $-1 $114 forward single #
loop $-1 $115 $116 $45 #
cone-surface $-1 51.921916200572824 26.953763608557061 8.0827451200246436 0 -0.80901700255871778 -0.5877852410284794 1 0 0 1 I I -0.70710678118654746 0.70710678118654746 1 forward I I I I #
loop $-1 $-1 $117 $29 #
coedge $-1 $74 $74 $118 $119 reversed $46 $-1 #
face $-1 $120 $121 $18 $-1 $122 reversed single #
loop $-1 $-1 $123 $48 #
plane-surface $-1 0 -35.980429244628681 0 0 1 0 0 0 1 forward_v I I I I #
coedge $-1 $124 $125 $126 $127 forward $49 $-1 #
coedge $-1 $128 $51 $129 $130 forward $31 $-1 #
coedge $-1 $51 $128 $131 $132 forward $31 $-1 #
coedge $-1 $133 $134 $51 $82 reversed $135 $-1 #
edge $-1 $136 -35.980429244628681 $137 35.980429244628681 $81 $138 forward 7 unknown #
face $-1 $139 $140 $19 $-1 $141 reversed single #
loop $-1 $-1 $142 $52 #
plane-surface $-1 0 0 16.255485104181329 0 0 1 1 0 0 forward_v I I I I #
coedge $-1 $143 $144 $145 $146 reversed $53 $-1 #
coedge $-1 $147 $55 $148 $149 reversed $34 $-1 #
coedge $-1 $55 $147 $150 $151 reversed $34 $-1 #
coedge $-1 $144 $143 $55 $90 reversed $53 $-1 #
edge $-1 $152 -16.255485104181329 $153 16.255485104181329 $89 $154 forward 7 unknown #
face $-1 $155 $156 $20 $-1 $157 reversed single #
loop $-1 $-1 $97 $56 #
plane-surface $-1 0 0 16.255485104181329 0 0 1 1 0 0 forward_v I I I I #
coedge $-1 $158 $159 $160 $161 reversed $57 $-1 #
coedge $-1 $96 $59 $162 $163 reversed $37 $-1 #
coedge $-1 $59 $95 $158 $164 reversed $37 $-1 #
coedge $-1 $160 $165 $59 $98 forward $92 $-1 #
edge $-1 $166 6.5898500459456528 $167 11.55871949656138 $97 $168 forward 7 unknown #
loop $-1 $-1 $104 $60 #
plane-surface $-1 45.018877845406152 -6.31710130709574 67.633980863461431 0 0.80901700255871778 0.5877852410284794 1 0 0 forward_v I I I I #
loop $-1 $-1 $169 $39 #
coedge $-1 $102 $102 $103 $170 reversed $61 $-1 #
coedge $-1 $103 $103 $102 $170 forward $63 $-1 #
coedge $-1 $104 $104 $64 $105 forward $99 $-1 #
edge $-1 $171 0 $171 6.2831853071796004 $104 $172 forward 7 unknown #
loop $-1 $-1 $111 $65 #
plane-surface $-1 45.018877845406152 -6.31710130709574 67.633980863461431 0 0.80901700255871778 0.5877852410284794 1 0 0 forward_v I I I I #
loop $-1 $-1 $173 $42 #
coedge $-1 $109 $109 $110 $174 reversed $66 $-1 #
coedge $-1 $110 $110 $109 $174 forward $68 $-1 #
coedge $-1 $111 $111 $69 $112 forward $106 $-1 #
edge $-1 $175 0 $175 6.2831853071796004 $111 $176 forward 7 unknown #
loop $-1 $-1 $118 $70 #
plane-surface $-1 45.018877845406152 -6.31710130709574 67.633980863461431 0 0.80901700255871778 0.5877852410284794 1 0 0 forward_v I I I I #
loop $-1 $-1 $177 $45 #
coedge $-1 $116 $116 $117 $178 reversed $71 $-1 #
coedge $-1 $117 $117 $116 $178 forward $73 $-1 #
coedge $-1 $118 $118 $74 $119 forward $113 $-1 #
edge $-1 $179 0 $179 6.2831853071796004 $118 $180 forward 7 unknown #
face $-1 $181 $182 $18 $-1 $183 reversed single #
loop $-1 $-1 $184 $75 #
plane-surface $-1 -56.523941770683919 0 0 1 0 0 0 0 -1 forward_v I I I I #
coedge $-1 $185 $131 $186 $187 forward $76 $-1 #
coedge $-1 $188 $78 $185 $189 forward $49 $-1 #
coedge $-1 $78 $188 $190 $191 forward $49 $-1 #
coedge $-1 $134 $133 $78 $127 reversed $135 $-1 #
edge $-1 $192 -35.980429244628681 $193 35.980429244628681 $126 $194 forward 7 unknown #
coedge $-1 $80 $79 $195 $196 forward $31 $-1 #
coedge $-1 $197 $198 $79 $130 reversed $182 $-1 #
edge $-1 $137 -56.523941770683919 $199 56.523941770683919 $129 $200 forward 7 unknown #
coedge $-1 $123 $201 $80 $132 reversed $76 $-1 #
edge $-1 $202 -56.523941770683919 $136 56.523941770683919 $131 $203 forward 7 unknown #
coedge $-1 $126 $81 $201 $204 forward $135 $-1 #
coedge $-1 $81 $126 $197 $205 reversed $135 $-1 #
loop $-1 $-1 $133 $181 #
vertex $-1 $82 $206 #
vertex $-1 $82 $207 #
straight-curve $-1 56.523941770683919 0 16.255485104181329 0 1 0 I I #
face $-1 $208 $209 $19 $-1 $210 reversed single #
loop $-1 $-1 $211 $83 #
plane-surface $-1 -56.523941770683919 0 0 1 0 0 0 0 -1 forward_v I I I I #
coedge $-1 $150 $212 $144 $213 forward $84 $-1 #
coedge $-1 $89 $86 $214 $215 reversed $53 $-1 #
coedge $-1 $86 $89 $142 $213 reversed $53 $-1 #
coedge $-1 $216 $217 $86 $146 forward $218 $-1 #
edge $-1 $219 -16.255485104181329 $220 16.255485104181329 $145 $221 forward 7 unknown #
coedge $-1 $88 $87 $211 $222 reversed $34 $-1 #
coedge $-1 $214 $223 $87 $149 forward $209 $-1 #
edge $-1 $224 -29.10624705723902 $153 -25.729142369650777 $148 $225 forward 7 unknown #
coedge $-1 $226 $142 $88 $151 forward $84 $-1 #
edge $-1 $152 25.729142369650777 $227 29.10624705723902 $150 $228 forward 7 unknown #
vertex $-1 $151 $229 #
vertex $-1 $149 $230 #
straight-curve $-1 -53.146837083095676 -22.34070455240203 0 0 0 -1 I I #
face $-1 $-1 $231 $20 $-1 $232 reversed single #
loop $-1 $-1 $233 $91 #
plane-surface $-1 56.523941770683919 0 0 -1 0 0 0 0 1 forward_v I I I I #
coedge $-1 $234 $94 $96 $164 forward $57 $-1 #
coedge $-1 $94 $234 $233 $235 reversed $57 $-1 #
coedge $-1 $236 $97 $94 $161 forward $92 $-1 #
edge $-1 $167 11.004374997425316 $237 34.014502847980836 $160 $238 forward 7 unknown #
coedge $-1 $239 $240 $95 $163 forward $231 $-1 #
edge $-1 $241 -57.624506342361499 $166 -50.785444065110568 $162 $242 forward 7 unknown #
edge $-1 $167 63.507312697734172 $241 71.960858489257333 $96 $243 forward 7 unknown #
coedge $-1 $97 $236 $239 $244 forward $92 $-1 #
vertex $-1 $163 $245 #
vertex $-1 $98 $246 #
straight-curve $-1 33.513813920128392 42.570279290574334 16.255485104181332 0 -1 0 I I #
coedge $-1 $169 $169 $-1 $247 reversed $101 $-1 #
edge $-1 $248 0 $248 6.2831853071796004 $102 $249 forward 7 unknown #
vertex $-1 $105 $250 #
ellipse-curve $-1 38.115839490239509 33.495994519320824 12.835953965555859 0 0.80901700255871778 0.5877852410284794 2 0 0 1 I I #
coedge $-1 $173 $173 $-1 $251 reversed $108 $-1 #
edge $-1 $252 0 $252 6.2831853071796004 $109 $253 forward 7 unknown #
vertex $-1 $112 $254 #
ellipse-curve $-1 45.018877845406166 33.495994519320824 12.835953965555859 0 0.80901700255871778 0.5877852410284794 2 0 0 1 I I #
coedge $-1 $177 $177 $-1 $255 reversed $115 $-1 #
edge $-1 $256 0 $256 6.2831853071796004 $116 $257 forward 7 unknown #
vertex $-1 $119 $258 #
ellipse-curve $-1 51.921916200572824 33.495994519320824 12.835953965555859 0 0.80901700255871778 0.5877852410284794 2 0 0 1 I I #
face $-1 $-1 $135 $18 $-1 $259 reversed single #
loop $-1 $-1 $197 $120 #
plane-surface $-1 0 35.980429244628681 0 0 -1 0 0 0 -1 forward_v I I I I #
coedge $-1 $260 $195 $198 $261 forward $121 $-1 #
coedge $-1 $201 $123 $124 $189 reversed $76 $-1 #
coedge $-1 $195 $260 $123 $187 reversed $121 $-1 #
edge $-1 $202 -16.255485104181329 $262 16.255485104181329 $186 $263 forward 7 unknown #
coedge $-1 $125 $124 $260 $264 forward $49 $-1 #
edge $-1 $193 -56.523941770683919 $262 56.523941770683919 $185 $265 forward 7 unknown #
coedge $-1 $198 $197 $125 $191 reversed $182 $-1 #
edge $-1 $266 -56.523941770683919 $192 56.523941770683919 $190 $267 forward 7 unknown #
vertex $-1 $127 $268 #
vertex $-1 $204 $269 #
straight-curve $-1 56.523941770683919 0 -16.255485104181329 0 -1 0 I I #
coedge $-1 $184 $186 $128 $196 reversed $121 $-1 #
edge $-1 $199 -35.980429244628681 $202 35.980429244628681 $195 $270 forward 7 unknown #
coedge $-1 $190 $129 $134 $205 forward $182 $-1 #
coedge $-1 $129 $190 $184 $261 reversed $182 $-1 #
vertex $-1 $130 $271 #
straight-curve $-1 0 35.980429244628681 16.255485104181329 -1 0 0 I I #
coedge $-1 $131 $185 $133 $204 reversed $76 $-1 #
vertex $-1 $196 $272 #
straight-curve $-1 0 -35.980429244628681 16.255485104181329 1 0 0 I I #
edge $-1 $136 -16.255485104181329 $193 16.255485104181329 $133 $273 forward 7 unknown #
edge $-1 $137 -16.255485104181329 $192 16.255485104181329 $134 $274 forward 7 unknown #
point $-1 56.523941770683919 -35.980429244628681 16.255485104181329 #
point $-1 56.523941770683919 35.980429244628681 16.255485104181329 #
face $-1 $-1 $218 $19 $-1 $275 reversed single #
loop $-1 $-1 $214 $139 #
plane-surface $-1 0 0 -16.255485104181329 0 0 1 1 0 0 forward_v I I I I #
coedge $-1 $276 $277 $147 $222 forward $140 $-1 #
coedge $-1 $142 $226 $216 $278 forward $84 $-1 #
edge $-1 $220 -21.400145795371003 $152 -7.7604211031443526 $142 $279 forward 7 unknown #
coedge $-1 $280 $148 $143 $215 forward $209 $-1 #
edge $-1 $153 7.7604211031443526 $219 21.400145795371003 $214 $281 forward 7 unknown #
coedge $-1 $282 $145 $212 $278 reversed $218 $-1 #
coedge $-1 $145 $282 $280 $283 reversed $218 $-1 #
loop $-1 $-1 $145 $208 #
vertex $-1 $283 $284 #
vertex $-1 $146 $285 #
straight-curve $-1 -53.146837083095676 -35.980429244628681 0 0 0 1 I I #
edge $-1 $227 -16.255485104181329 $224 16.255485104181329 $211 $286 forward 7 unknown #
coedge $-1 $148 $280 $276 $287 forward $209 $-1 #
vertex $-1 $149 $288 #
straight-curve $-1 -27.417694713444899 -22.34070455240203 -16.255485104181329 1 0 0 I I #
coedge $-1 $212 $150 $277 $289 forward $84 $-1 #
vertex $-1 $289 $290 #
straight-curve $-1 -27.417694713444899 -22.34070455240203 16.255485104181329 -1 0 0 I I #
point $-1 -53.146837083095676 -22.34070455240203 16.255485104181329 #
point $-1 -53.146837083095676 -22.34070455240203 -16.255485104181329 #
loop $-1 $-1 $162 $155 #
plane-surface $-1 0 35.980429244628681 0 0 -1 0 0 0 -1 forward_v I I I I #
coedge $-1 $291 $292 $159 $235 forward $156 $-1 #
coedge $-1 $159 $158 $240 $293 reversed $57 $-1 #
edge $-1 $237 34.292243005902257 $294 42.745788797425419 $233 $295 forward 7 unknown #
coedge $-1 $165 $160 $292 $296 forward $92 $-1 #
vertex $-1 $296 $297 #
straight-curve $-1 22.509438922703076 31.011559794012953 16.255485104181332 1 0 0 I I #
coedge $-1 $298 $162 $165 $244 reversed $231 $-1 #
coedge $-1 $162 $298 $234 $293 forward $231 $-1 #
vertex $-1 $163 $299 #
straight-curve $-1 33.513813920128392 35.980429244628681 67.0409291692919 0 0 1 I I #
straight-curve $-1 33.513813920128392 -6.31710130709574 67.633980863461431 0 0.5877852410284794 -0.80901700255871778 I I #
edge $-1 $300 -56.523941770683919 $166 -33.513813920128392 $239 $301 forward 7 unknown #
point $-1 33.513813920128392 35.980429244628681 16.255485104181329 #
point $-1 33.513813920128392 31.011559794012953 16.255485104181332 #
edge $-1 $302 1 $302 0 $169 $-1 forward 7 unknown #
vertex $-1 $170 $303 #
ellipse-curve $-1 38.115839490239509 27.76278061111578 8.6705303610531228 0 0.80901700255871778 0.5877852410284794 2 0 0 1 I I #
point $-1 40.115839490239509 33.495994519320824 12.835953965555859 #
edge $-1 $304 1 $304 0 $173 $-1 forward 7 unknown #
vertex $-1 $174 $305 #
ellipse-curve $-1 45.018877845406166 27.76278061111578 8.6705303610531228 0 0.80901700255871778 0.5877852410284794 2 0 0 1 I I #
point $-1 47.018877845406166 33.495994519320824 12.835953965555859 #
edge $-1 $306 1 $306 0 $177 $-1 forward 7 unknown #
vertex $-1 $178 $307 #
ellipse-curve $-1 51.921916200572824 27.76278061111578 8.6705303610531228 0 0.80901700255871778 0.5877852410284794 2 0 0 1 I I #
point $-1 53.921916200572824 33.495994519320824 12.835953965555859 #
plane-surface $-1 56.523941770683919 0 0 -1 0 0 0 0 1 forward_v I I I I #
coedge $-1 $186 $184 $188 $264 reversed $121 $-1 #
edge $-1 $199 -16.255485104181329 $266 16.255485104181329 $198 $308 forward 7 unknown #
vertex $-1 $264 $309 #
straight-curve $-1 -56.523941770683919 -35.980429244628681 0 0 0 -1 I I #
edge $-1 $262 -35.980429244628681 $266 35.980429244628681 $260 $310 forward 7 unknown #
straight-curve $-1 0 -35.980429244628681 -16.255485104181329 -1 0 0 I I #
vertex $-1 $191 $311 #
straight-curve $-1 0 35.980429244628681 -16.255485104181329 1 0 0 I I #
point $-1 56.523941770683919 35.980429244628681 -16.255485104181329 #
point $-1 56.523941770683919 -35.980429244628681 -16.255485104181329 #
straight-curve $-1 -56.523941770683919 0 16.255485104181329 0 -1 0 I I #
point $-1 -56.523941770683919 35.980429244628681 16.255485104181329 #
point $-1 -56.523941770683919 -35.980429244628681 16.255485104181329 #
straight-curve $-1 56.523941770683919 -35.980429244628681 0 0 0 -1 I I #
straight-curve $-1 56.523941770683919 35.980429244628681 0 0 0 -1 I I #
plane-surface $-1 0 -35.980429244628681 0 0 1 0 0 0 1 forward_v I I I I #
coedge $-1 $312 $211 $223 $287 reversed $140 $-1 #
coedge $-1 $211 $312 $226 $289 reversed $140 $-1 #
edge $-1 $313 -56.523941770683919 $220 -53.146837083095676 $216 $314 forward 7 unknown #
straight-curve $-1 -53.146837083095676 -14.580283449257678 16.255485104181329 0 1 0 I I #
coedge $-1 $223 $214 $217 $283 forward $209 $-1 #
straight-curve $-1 -53.146837083095676 -14.580283449257678 -16.255485104181329 0 -1 0 I I #
coedge $-1 $217 $216 $312 $315 forward $218 $-1 #
edge $-1 $219 53.146837083095676 $316 56.523941770683919 $217 $317 forward 7 unknown #
point $-1 -53.146837083095676 -35.980429244628681 -16.255485104181329 #
point $-1 -53.146837083095676 -35.980429244628681 16.255485104181329 #
straight-curve $-1 -56.523941770683919 -22.34070455240203 0 0 0 -1 I I #
edge $-1 $316 -35.980429244628681 $224 -22.34070455240203 $276 $318 forward 7 unknown #
point $-1 -56.523941770683919 -22.34070455240203 -16.255485104181329 #
edge $-1 $227 22.34070455240203 $313 35.980429244628681 $277 $319 forward 7 unknown #
point $-1 -56.523941770683919 -22.34070455240203 16.255485104181329 #
coedge $-1 $292 $233 $298 $320 reversed $156 $-1 #
coedge $-1 $233 $291 $236 $296 reversed $156 $-1 #
edge $-1 $294 -34.014502847980836 $241 -11.004374997425316 $240 $321 forward 7 unknown #
vertex $-1 $235 $322 #
straight-curve $-1 56.523941770683919 10.855085473381509 43.998492751831535 0 0.5877852410284794 -0.80901700255871778 I I #
edge $-1 $237 31.011559794012953 $300 35.980429244628681 $292 $323 forward 7 unknown #
point $-1 56.523941770683912 31.011559794012953 16.255485104181332 #
coedge $-1 $240 $239 $291 $320 forward $231 $-1 #
point $-1 33.513813920128392 35.980429244628681 9.4164228269304004 #
vertex $-1 $296 $324 #
straight-curve $-1 0 35.980429244628681 16.255485104181329 -1 0 0 I I #
vertex $-1 $247 $325 #
point $-1 40.115839490239509 27.76278061111578 8.6705303610531228 #
vertex $-1 $251 $326 #
point $-1 47.018877845406166 27.76278061111578 8.6705303610531228 #
vertex $-1 $255 $327 #
point $-1 53.921916200572824 27.76278061111578 8.6705303610531228 #
straight-curve $-1 -56.523941770683919 35.980429244628681 0 0 0 -1 I I #
point $-1 -56.523941770683919 -35.980429244628681 -16.255485104181329 #
straight-curve $-1 -56.523941770683919 0 -16.255485104181329 0 1 0 I I #
point $-1 -56.523941770683919 35.980429244628681 -16.255485104181329 #
coedge $-1 $277 $276 $282 $315 reversed $140 $-1 #
vertex $-1 $289 $328 #
straight-curve $-1 0 -35.980429244628681 16.255485104181329 1 0 0 I I #
edge $-1 $313 -16.255485104181329 $316 16.255485104181329 $312 $329 forward 7 unknown #
vertex $-1 $287 $330 #
straight-curve $-1 0 -35.980429244628681 -16.255485104181329 -1 0 0 I I #
straight-curve $-1 -56.523941770683919 0 -16.255485104181329 0 1 0 I I #
straight-curve $-1 -56.523941770683919 0 16.255485104181329 0 -1 0 I I #
edge $-1 $300 -16.255485104181329 $294 -9.4164228269304004 $291 $331 forward 7 unknown #
straight-curve $-1 22.509438922703076 35.980429244628681 9.416422826930404 -1 0 0 I I #
point $-1 56.523941770683912 35.980429244628681 9.4164228269304004 #
straight-curve $-1 56.523941770683919 0 16.255485104181329 0 1 0 I I #
point $-1 56.523941770683919 35.980429244628681 16.255485104181329 #
point $-1 38.115839490239509 26.144746605998343 7.4949598789961644 #
point $-1 45.018877845406166 26.144746605998343 7.4949598789961644 #
point $-1 51.921916200572824 26.144746605998343 7.4949598789961644 #
point $-1 -56.523941770683919 -35.980429244628681 16.255485104181329 #
straight-curve $-1 -56.523941770683919 -35.980429244628681 0 0 0 -1 I I #
point $-1 -56.523941770683919 -35.980429244628681 -16.255485104181329 #
straight-curve $-1 56.523941770683919 35.980429244628681 0 0 0 -1 I I #
End-of-ACIS-data 