500 0 13 0           
7 Unknown 11 ACIS 5.0 NT 24 Thu Mar 25 22:29:32 1999 
-1 9.9999999999999995e-007 1e-010 
body $-1 $13 $-1 $14 #
body $-1 $15 $-1 $16 #
body $-1 $17 $-1 $18 #
body $-1 $19 $-1 $20 #
body $-1 $21 $-1 $22 #
body $-1 $23 $-1 $24 #
body $-1 $25 $-1 $26 #
body $-1 $27 $-1 $28 #
body $-1 $29 $-1 $30 #
body $-1 $31 $-1 $32 #
body $-1 $33 $-1 $34 #
body $-1 $35 $-1 $36 #
body $-1 $37 $-1 $38 #
lump $-1 $-1 $39 $0 #
transform $-1 1 0 0 0 1 0 0 0 1 73.992736594744713 44.35454366264765 11.820749168017727 1 rotate no_reflect no_shear #
lump $-1 $-1 $40 $1 #
transform $-1 1 0 0 0 1 0 0 0 1 73.992736594744713 44.35454366264765 11.820749168017727 1 rotate no_reflect no_shear #
lump $-1 $-1 $41 $2 #
transform $-1 1 0 0 0 1 0 0 0 1 73.992736594744713 44.35454366264765 11.820749168017727 1 rotate no_reflect no_shear #
lump $-1 $-1 $42 $3 #
transform $-1 1 0 0 0 1 0 0 0 1 73.992736594744713 44.35454366264765 11.820749168017727 1 rotate no_reflect no_shear #
lump $-1 $-1 $43 $4 #
transform $-1 1 0 0 0 1 0 0 0 1 73.992736594744713 44.35454366264765 11.820749168017727 1 rotate no_reflect no_shear #
lump $-1 $-1 $44 $5 #
transform $-1 1 0 0 0 1 0 0 0 1 73.992736594744713 44.35454366264765 11.820749168017727 1 rotate no_reflect no_shear #
lump $-1 $-1 $45 $6 #
transform $-1 1 0 0 0 1 0 0 0 1 73.992736594744713 44.35454366264765 11.820749168017727 1 rotate no_reflect no_shear #
lump $-1 $-1 $46 $7 #
transform $-1 1 0 0 0 1 0 0 0 1 73.992736594744713 44.35454366264765 11.820749168017727 1 rotate no_reflect no_shear #
lump $-1 $-1 $47 $8 #
transform $-1 1 0 0 0 1 0 0 0 1 73.992736594744713 44.35454366264765 11.820749168017727 1 rotate no_reflect no_shear #
lump $-1 $-1 $48 $9 #
transform $-1 1 0 0 0 1 0 0 0 1 73.992736594744713 44.35454366264765 11.820749168017727 1 rotate no_reflect no_shear #
lump $-1 $-1 $49 $10 #
transform $-1 1 0 0 0 1 0 0 0 1 73.992736594744713 44.35454366264765 11.820749168017727 1 rotate no_reflect no_shear #
lump $-1 $-1 $50 $11 #
transform $-1 1 0 0 0 1 0 0 0 1 73.992736594744713 44.35454366264765 11.820749168017727 1 rotate no_reflect no_shear #
lump $-1 $-1 $51 $12 #
transform $-1 1 0 0 0 1 0 0 0 1 73.992736594744713 44.35454366264765 11.820749168017727 1 rotate no_reflect no_shear #
shell $-1 $-1 $-1 $52 $-1 $13 #
shell $-1 $-1 $-1 $53 $-1 $15 #
shell $-1 $-1 $-1 $54 $-1 $17 #
shell $-1 $-1 $-1 $55 $-1 $19 #
shell $-1 $-1 $-1 $56 $-1 $21 #
shell $-1 $-1 $-1 $57 $-1 $23 #
shell $-1 $-1 $-1 $58 $-1 $25 #
shell $-1 $-1 $-1 $59 $-1 $27 #
shell $-1 $-1 $-1 $60 $-1 $29 #
shell $-1 $-1 $-1 $61 $-1 $31 #
shell $-1 $-1 $-1 $62 $-1 $33 #
shell $-1 $-1 $-1 $63 $-1 $35 #
shell $-1 $-1 $-1 $64 $-1 $37 #
face $-1 $65 $66 $39 $-1 $67 forward single #
face $-1 $68 $69 $40 $-1 $70 reversed single #
face $-1 $71 $72 $41 $-1 $73 forward single #
face $-1 $74 $75 $42 $-1 $76 forward single #
face $-1 $77 $78 $43 $-1 $79 reversed single #
face $-1 $80 $81 $44 $-1 $82 forward single #
face $-1 $83 $84 $45 $-1 $85 forward single #
face $-1 $86 $87 $46 $-1 $88 reversed single #
face $-1 $89 $90 $47 $-1 $91 forward single #
face $-1 $92 $93 $48 $-1 $94 forward single #
face $-1 $95 $96 $49 $-1 $97 reversed single #
face $-1 $98 $99 $50 $-1 $100 forward single #
face $-1 $101 $102 $51 $-1 $103 forward single #
face $-1 $104 $105 $39 $-1 $106 reversed single #
loop $-1 $-1 $107 $52 #
plane-surface $-1 0 0 11.820749168017727 0 0 1 1 0 0 forward_v I I I I #
face $-1 $108 $109 $40 $-1 $110 reversed single #
loop $-1 $-1 $111 $53 #
plane-surface $-1 99.497928880060158 -3.2371264245418505 208.03402017476083 0 -1 0 -0.78801076186113728 0 -0.61566146476048833 forward_v I I I I #
face $-1 $112 $113 $41 $-1 $114 forward single #
loop $-1 $115 $116 $54 #
cone-surface $-1 67.584833049581988 -15.684569719062761 4.572273358667962 -0.78801076186113728 0 -0.61566146476048833 0.9234921971407325 0 -1.182016142791706 1 I I 0 1 1.5 forward I I I I #
face $-1 $117 $118 $42 $-1 $119 forward single #
loop $-1 $120 $121 $55 #
cone-surface $-1 67.584833049581988 -8.2161037423502137 4.572273358667962 -0.78801076186113728 0 -0.61566146476048833 0.9234921971407325 0 -1.182016142791706 1 I I 0 1 1.5 forward I I I I #
face $-1 $122 $123 $43 $-1 $124 reversed single #
loop $-1 $-1 $125 $56 #
plane-surface $-1 99.497928880060158 20.663547036871137 208.03402017476083 0 -1 0 -0.78801076186113728 0 -0.61566146476048833 forward_v I I I I #
face $-1 $126 $127 $44 $-1 $128 forward single #
loop $-1 $129 $130 $57 #
cone-surface $-1 67.584833049581988 8.2161037423502208 4.572273358667962 -0.78801076186113728 0 -0.61566146476048833 0.9234921971407325 0 -1.182016142791706 1 I I 0 1 1.5 forward I I I I #
face $-1 $131 $132 $45 $-1 $133 forward single #
loop $-1 $134 $135 $58 #
cone-surface $-1 67.584833049581988 15.684569719062772 4.572273358667962 -0.78801076186113728 0 -0.61566146476048833 0.9234921971407325 0 -1.182016142791706 1 I I 0 1 1.5 forward I I I I #
face $-1 $136 $137 $46 $-1 $138 reversed single #
loop $-1 $-1 $139 $59 #
plane-surface $-1 -190.60688206717518 -20.66354703687113 91.419874702330347 0 1 0 -0.78801076186113728 0 0.61566146476048833 forward_v I I I I #
face $-1 $140 $141 $47 $-1 $142 forward single #
loop $-1 $143 $144 $60 #
cone-surface $-1 -67.584833049582002 -15.684569719062761 4.5722733586679478 0.78801076186113728 0 -0.61566146476048833 0.9234921971407325 0 1.182016142791706 1 I I 0 1 1.5 forward I I I I #
face $-1 $145 $146 $48 $-1 $147 forward single #
loop $-1 $148 $149 $61 #
cone-surface $-1 -67.584833049582002 -8.2161037423502137 4.5722733586679478 0.78801076186113728 0 -0.61566146476048833 0.9234921971407325 0 1.182016142791706 1 I I 0 1 1.5 forward I I I I #
face $-1 $150 $151 $49 $-1 $152 reversed single #
loop $-1 $-1 $153 $62 #
plane-surface $-1 -190.60688206717518 3.2371264245418576 91.419874702330347 0 1 0 -0.78801076186113728 0 0.61566146476048833 forward_v I I I I #
face $-1 $154 $155 $50 $-1 $156 forward single #
loop $-1 $157 $158 $63 #
cone-surface $-1 -67.584833049582002 8.2161037423502208 4.5722733586679478 0.78801076186113728 0 -0.61566146476048833 0.9234921971407325 0 1.182016142791706 1 I I 0 1 1.5 forward I I I I #
face $-1 $159 $160 $51 $-1 $161 forward single #
loop $-1 $162 $163 $64 #
cone-surface $-1 -67.584833049582002 15.684569719062772 4.5722733586679478 0.78801076186113728 0 -0.61566146476048833 0.9234921971407325 0 1.182016142791706 1 I I 0 1 1.5 forward I I I I #
face $-1 $164 $165 $39 $-1 $166 reversed single #
loop $-1 $-1 $167 $65 #
plane-surface $-1 0 0 -11.820749168017727 0 0 1 1 0 0 forward_v I I I I #
coedge $-1 $168 $169 $170 $171 forward $66 $-1 #
face $-1 $172 $173 $40 $-1 $174 reversed single #
loop $-1 $-1 $175 $68 #
plane-surface $-1 -17.116216592370307 -11.950336730706489 116.92506698764579 0.78801076186113728 0 0.61566146476048833 0.61566146476048833 0 -0.78801076186113728 forward_v I I I I #
coedge $-1 $176 $177 $178 $179 reversed $69 $-1 #
face $-1 $-1 $180 $41 $-1 $181 forward single #
loop $-1 $182 $183 $71 #
cone-surface $-1 65.082152763119041 -15.684569719062761 2.6169652771490206 -0.78801076186113728 0 -0.61566146476048833 0.46174609857036625 0 -0.59100807139585299 1 I I -0.70710678118654757 0.70710678118654757 0.75 forward I I I I #
loop $-1 $-1 $184 $54 #
coedge $-1 $116 $116 $185 $186 reversed $72 $-1 #
face $-1 $-1 $187 $42 $-1 $188 forward single #
loop $-1 $189 $190 $74 #
cone-surface $-1 65.082152763119041 -8.2161037423502137 2.6169652771490206 -0.78801076186113728 0 -0.61566146476048833 0.46174609857036625 0 -0.59100807139585299 1 I I -0.70710678118654757 0.70710678118654757 0.75 forward I I I I #
loop $-1 $-1 $191 $55 #
coedge $-1 $121 $121 $192 $193 reversed $75 $-1 #
face $-1 $194 $195 $43 $-1 $196 reversed single #
loop $-1 $-1 $197 $77 #
plane-surface $-1 -17.116216592370307 11.950336730706496 116.92506698764579 0.78801076186113728 0 0.61566146476048833 0.61566146476048833 0 -0.78801076186113728 forward_v I I I I #
coedge $-1 $198 $199 $200 $201 reversed $78 $-1 #
face $-1 $-1 $202 $44 $-1 $203 forward single #
loop $-1 $204 $205 $80 #
cone-surface $-1 65.082152763119041 8.2161037423502208 2.6169652771490206 -0.78801076186113728 0 -0.61566146476048833 0.46174609857036625 0 -0.59100807139585299 1 I I -0.70710678118654757 0.70710678118654757 0.75 forward I I I I #
loop $-1 $-1 $206 $57 #
coedge $-1 $130 $130 $207 $208 reversed $81 $-1 #
face $-1 $-1 $209 $45 $-1 $210 forward single #
loop $-1 $211 $212 $83 #
cone-surface $-1 65.082152763119041 15.684569719062772 2.6169652771490206 -0.78801076186113728 0 -0.61566146476048833 0.46174609857036625 0 -0.59100807139585299 1 I I -0.70710678118654757 0.70710678118654757 0.75 forward I I I I #
loop $-1 $-1 $213 $58 #
coedge $-1 $135 $135 $214 $215 reversed $84 $-1 #
face $-1 $216 $217 $46 $-1 $218 reversed single #
loop $-1 $-1 $219 $86 #
plane-surface $-1 -73.992736594744713 -11.950336730706489 0.31092151521531264 -0.78801076186113728 0 0.61566146476048833 0.61566146476048833 0 0.78801076186113728 forward_v I I I I #
coedge $-1 $220 $221 $222 $223 reversed $87 $-1 #
face $-1 $-1 $224 $47 $-1 $225 forward single #
loop $-1 $226 $227 $89 #
cone-surface $-1 -65.082152763119055 -15.684569719062761 2.6169652771490064 0.78801076186113728 0 -0.61566146476048833 0.46174609857036625 0 0.59100807139585299 1 I I -0.70710678118654757 0.70710678118654757 0.75 forward I I I I #
loop $-1 $-1 $228 $60 #
coedge $-1 $144 $144 $229 $230 reversed $90 $-1 #
face $-1 $-1 $231 $48 $-1 $232 forward single #
loop $-1 $233 $234 $92 #
cone-surface $-1 -65.082152763119055 -8.2161037423502137 2.6169652771490064 0.78801076186113728 0 -0.61566146476048833 0.46174609857036625 0 0.59100807139585299 1 I I -0.70710678118654757 0.70710678118654757 0.75 forward I I I I #
loop $-1 $-1 $235 $61 #
coedge $-1 $149 $149 $236 $237 reversed $93 $-1 #
face $-1 $238 $239 $49 $-1 $240 reversed single #
loop $-1 $-1 $241 $95 #
plane-surface $-1 -73.992736594744713 11.950336730706496 0.31092151521531264 -0.78801076186113728 0 0.61566146476048833 0.61566146476048833 0 0.78801076186113728 forward_v I I I I #
coedge $-1 $242 $243 $244 $245 reversed $96 $-1 #
face $-1 $-1 $246 $50 $-1 $247 forward single #
loop $-1 $248 $249 $98 #
cone-surface $-1 -65.082152763119055 8.2161037423502208 2.6169652771490064 0.78801076186113728 0 -0.61566146476048833 0.46174609857036625 0 0.59100807139585299 1 I I -0.70710678118654757 0.70710678118654757 0.75 forward I I I I #
loop $-1 $-1 $250 $63 #
coedge $-1 $158 $158 $251 $252 reversed $99 $-1 #
face $-1 $-1 $253 $51 $-1 $254 forward single #
loop $-1 $255 $256 $101 #
cone-surface $-1 -65.082152763119055 15.684569719062772 2.6169652771490064 0.78801076186113728 0 -0.61566146476048833 0.46174609857036625 0 0.59100807139585299 1 I I -0.70710678118654757 0.70710678118654757 0.75 forward I I I I #
loop $-1 $-1 $257 $64 #
coedge $-1 $163 $163 $258 $259 reversed $102 $-1 #
face $-1 $260 $261 $39 $-1 $262 reversed single #
loop $-1 $-1 $263 $104 #
plane-surface $-1 0 -44.35454366264765 0 0 1 0 0 0 1 forward_v I I I I #
coedge $-1 $264 $265 $266 $267 forward $105 $-1 #
coedge $-1 $268 $107 $269 $270 forward $66 $-1 #
coedge $-1 $107 $268 $271 $272 forward $66 $-1 #
coedge $-1 $273 $274 $107 $171 reversed $275 $-1 #
edge $-1 $276 -44.35454366264765 $277 44.35454366264765 $170 $278 forward 7 unknown #
face $-1 $279 $280 $40 $-1 $281 forward single #
loop $-1 $-1 $282 $108 #
plane-surface $-1 99.497928880060158 -20.66354703687113 208.03402017476083 0 1 0 0.78801076186113728 0 0.61566146476048833 forward_v I I I I #
coedge $-1 $283 $284 $285 $286 reversed $109 $-1 #
coedge $-1 $177 $111 $287 $288 reversed $69 $-1 #
coedge $-1 $111 $176 $283 $289 reversed $69 $-1 #
coedge $-1 $285 $290 $111 $179 forward $280 $-1 #
edge $-1 $291 -24.243772154714634 $292 -15.25130949452344 $178 $293 forward 7 unknown #
loop $-1 $-1 $185 $112 #
plane-surface $-1 -17.116216592370307 -11.950336730706489 116.92506698764579 0.78801076186113728 0 0.61566146476048833 0.61566146476048833 0 -0.78801076186113728 forward_v I I I I #
loop $-1 $-1 $294 $71 #
coedge $-1 $183 $183 $184 $295 reversed $113 $-1 #
coedge $-1 $184 $184 $183 $295 forward $115 $-1 #
coedge $-1 $185 $185 $116 $186 forward $180 $-1 #
edge $-1 $296 0 $296 6.2831853071796004 $185 $297 forward 7 unknown #
loop $-1 $-1 $192 $117 #
plane-surface $-1 -17.116216592370307 -11.950336730706489 116.92506698764579 0.78801076186113728 0 0.61566146476048833 0.61566146476048833 0 -0.78801076186113728 forward_v I I I I #
loop $-1 $-1 $298 $74 #
coedge $-1 $190 $190 $191 $299 reversed $118 $-1 #
coedge $-1 $191 $191 $190 $299 forward $120 $-1 #
coedge $-1 $192 $192 $121 $193 forward $187 $-1 #
edge $-1 $300 0 $300 6.2831853071796004 $192 $301 forward 7 unknown #
face $-1 $302 $303 $43 $-1 $304 reversed single #
loop $-1 $-1 $305 $122 #
plane-surface $-1 99.497928880060158 3.2371264245418576 208.03402017476083 0 1 0 0.78801076186113728 0 0.61566146476048833 forward_v I I I I #
coedge $-1 $306 $307 $308 $309 reversed $123 $-1 #
coedge $-1 $199 $125 $310 $311 reversed $78 $-1 #
coedge $-1 $125 $198 $306 $312 reversed $78 $-1 #
coedge $-1 $308 $313 $125 $201 forward $314 $-1 #
edge $-1 $315 -24.243772154714634 $316 -15.25130949452344 $200 $317 forward 7 unknown #
loop $-1 $-1 $207 $126 #
plane-surface $-1 -17.116216592370307 11.950336730706496 116.92506698764579 0.78801076186113728 0 0.61566146476048833 0.61566146476048833 0 -0.78801076186113728 forward_v I I I I #
loop $-1 $-1 $318 $80 #
coedge $-1 $205 $205 $206 $319 reversed $127 $-1 #
coedge $-1 $206 $206 $205 $319 forward $129 $-1 #
coedge $-1 $207 $207 $130 $208 forward $202 $-1 #
edge $-1 $320 0 $320 6.2831853071796004 $207 $321 forward 7 unknown #
loop $-1 $-1 $214 $131 #
plane-surface $-1 -17.116216592370307 11.950336730706496 116.92506698764579 0.78801076186113728 0 0.61566146476048833 0.61566146476048833 0 -0.78801076186113728 forward_v I I I I #
loop $-1 $-1 $322 $83 #
coedge $-1 $212 $212 $213 $323 reversed $132 $-1 #
coedge $-1 $213 $213 $212 $323 forward $134 $-1 #
coedge $-1 $214 $214 $135 $215 forward $209 $-1 #
edge $-1 $324 0 $324 6.2831853071796004 $214 $325 forward 7 unknown #
face $-1 $326 $327 $46 $-1 $328 reversed single #
loop $-1 $-1 $329 $136 #
plane-surface $-1 -190.60688206717518 -3.2371264245418505 91.419874702330347 0 -1 0 0.78801076186113728 0 -0.61566146476048833 forward_v I I I I #
coedge $-1 $330 $331 $332 $333 reversed $137 $-1 #
coedge $-1 $221 $139 $334 $335 reversed $87 $-1 #
coedge $-1 $139 $220 $330 $336 reversed $87 $-1 #
coedge $-1 $332 $337 $139 $223 forward $338 $-1 #
edge $-1 $339 21.310704438842876 $340 30.303167099034084 $222 $341 forward 7 unknown #
loop $-1 $-1 $229 $140 #
plane-surface $-1 -73.992736594744713 -11.950336730706489 0.31092151521531264 -0.78801076186113728 0 0.61566146476048833 0.61566146476048833 0 0.78801076186113728 forward_v I I I I #
loop $-1 $-1 $342 $89 #
coedge $-1 $227 $227 $228 $343 reversed $141 $-1 #
coedge $-1 $228 $228 $227 $343 forward $143 $-1 #
coedge $-1 $229 $229 $144 $230 forward $224 $-1 #
edge $-1 $344 0 $344 6.2831853071796004 $229 $345 forward 7 unknown #
loop $-1 $-1 $236 $145 #
plane-surface $-1 -73.992736594744713 -11.950336730706489 0.31092151521531264 -0.78801076186113728 0 0.61566146476048833 0.61566146476048833 0 0.78801076186113728 forward_v I I I I #
loop $-1 $-1 $346 $92 #
coedge $-1 $234 $234 $235 $347 reversed $146 $-1 #
coedge $-1 $235 $235 $234 $347 forward $148 $-1 #
coedge $-1 $236 $236 $149 $237 forward $231 $-1 #
edge $-1 $348 0 $348 6.2831853071796004 $236 $349 forward 7 unknown #
face $-1 $350 $351 $49 $-1 $352 forward single #
loop $-1 $-1 $353 $150 #
plane-surface $-1 -190.60688206717518 20.663547036871137 91.419874702330347 0 -1 0 0.78801076186113728 0 -0.61566146476048833 forward_v I I I I #
coedge $-1 $354 $355 $356 $357 reversed $151 $-1 #
coedge $-1 $243 $153 $358 $359 reversed $96 $-1 #
coedge $-1 $153 $242 $354 $360 reversed $96 $-1 #
coedge $-1 $356 $361 $153 $245 forward $351 $-1 #
edge $-1 $362 21.310704438842876 $363 30.303167099034084 $244 $364 forward 7 unknown #
loop $-1 $-1 $251 $154 #
plane-surface $-1 -73.992736594744713 11.950336730706496 0.31092151521531264 -0.78801076186113728 0 0.61566146476048833 0.61566146476048833 0 0.78801076186113728 forward_v I I I I #
loop $-1 $-1 $365 $98 #
coedge $-1 $249 $249 $250 $366 reversed $155 $-1 #
coedge $-1 $250 $250 $249 $366 forward $157 $-1 #
coedge $-1 $251 $251 $158 $252 forward $246 $-1 #
edge $-1 $367 0 $367 6.2831853071796004 $251 $368 forward 7 unknown #
loop $-1 $-1 $258 $159 #
plane-surface $-1 -73.992736594744713 11.950336730706496 0.31092151521531264 -0.78801076186113728 0 0.61566146476048833 0.61566146476048833 0 0.78801076186113728 forward_v I I I I #
loop $-1 $-1 $369 $101 #
coedge $-1 $256 $256 $257 $370 reversed $160 $-1 #
coedge $-1 $257 $257 $256 $370 forward $162 $-1 #
coedge $-1 $258 $258 $163 $259 forward $253 $-1 #
edge $-1 $371 0 $371 6.2831853071796004 $258 $372 forward 7 unknown #
face $-1 $373 $374 $39 $-1 $375 reversed single #
loop $-1 $-1 $376 $164 #
plane-surface $-1 -73.992736594744713 0 0 1 0 0 0 0 -1 forward_v I I I I #
coedge $-1 $377 $271 $378 $379 forward $165 $-1 #
coedge $-1 $380 $167 $377 $381 forward $105 $-1 #
coedge $-1 $167 $380 $382 $383 forward $105 $-1 #
coedge $-1 $274 $273 $167 $267 reversed $275 $-1 #
edge $-1 $384 -44.35454366264765 $385 44.35454366264765 $266 $386 forward 7 unknown #
coedge $-1 $169 $168 $387 $388 forward $66 $-1 #
coedge $-1 $389 $390 $168 $270 reversed $374 $-1 #
edge $-1 $277 -73.992736594744713 $391 73.992736594744713 $269 $392 forward 7 unknown #
coedge $-1 $263 $393 $169 $272 reversed $165 $-1 #
edge $-1 $394 -73.992736594744713 $276 73.992736594744713 $271 $395 forward 7 unknown #
coedge $-1 $266 $170 $393 $396 forward $275 $-1 #
coedge $-1 $170 $266 $389 $397 reversed $275 $-1 #
loop $-1 $-1 $273 $373 #
vertex $-1 $171 $398 #
vertex $-1 $171 $399 #
straight-curve $-1 73.992736594744713 0 11.820749168017727 0 1 0 I I #
face $-1 $-1 $400 $40 $-1 $401 reversed single #
loop $-1 $-1 $178 $172 #
plane-surface $-1 0 0 11.820749168017727 0 0 1 1 0 0 forward_v I I I I #
coedge $-1 $402 $403 $404 $405 reversed $173 $-1 #
coedge $-1 $406 $175 $177 $289 forward $109 $-1 #
coedge $-1 $175 $406 $402 $407 forward $109 $-1 #
coedge $-1 $404 $178 $175 $286 forward $280 $-1 #
edge $-1 $292 -2.7380419408113941 $408 14.688378671517885 $285 $409 forward 7 unknown #
coedge $-1 $410 $411 $176 $288 forward $400 $-1 #
edge $-1 $412 -103.70608857216507 $291 -92.196260919362686 $287 $413 forward 7 unknown #
edge $-1 $292 133.37929239873691 $412 147.98547318948943 $177 $414 forward 7 unknown #
coedge $-1 $178 $404 $410 $415 forward $280 $-1 #
vertex $-1 $288 $416 #
vertex $-1 $179 $417 #
straight-curve $-1 49.748964440030079 -3.2371264245418505 11.820749168017727 -1 0 0 I I #
coedge $-1 $294 $294 $-1 $418 reversed $182 $-1 #
edge $-1 $419 0 $419 6.2831853071796004 $183 $420 forward 7 unknown #
vertex $-1 $186 $421 #
ellipse-curve $-1 69.496505264649116 -15.684569719062761 6.0658353416165562 0.78801076186113728 0 0.61566146476048833 0.9234921971407325 0 -1.182016142791706 1 I I #
coedge $-1 $298 $298 $-1 $422 reversed $189 $-1 #
edge $-1 $423 0 $423 6.2831853071796004 $190 $424 forward 7 unknown #
vertex $-1 $193 $425 #
ellipse-curve $-1 69.496505264649116 -8.2161037423502137 6.0658353416165562 0.78801076186113728 0 0.61566146476048833 0.9234921971407325 0 -1.182016142791706 1 I I #
face $-1 $-1 $314 $43 $-1 $426 forward single #
loop $-1 $-1 $427 $194 #
plane-surface $-1 73.992736594744713 0 0 -1 0 0 0 0 1 forward_v I I I I #
coedge $-1 $428 $429 $430 $431 reversed $195 $-1 #
coedge $-1 $432 $197 $199 $312 forward $123 $-1 #
coedge $-1 $197 $432 $428 $433 forward $123 $-1 #
coedge $-1 $430 $200 $197 $309 forward $314 $-1 #
edge $-1 $316 -14.688378671517889 $434 2.7380419408113905 $308 $435 forward 7 unknown #
coedge $-1 $436 $437 $198 $311 forward $303 $-1 #
edge $-1 $438 -103.70608857216507 $315 -92.196260919362686 $310 $439 forward 7 unknown #
edge $-1 $316 133.37929239873691 $438 147.98547318948943 $199 $440 forward 7 unknown #
coedge $-1 $200 $430 $436 $441 forward $314 $-1 #
loop $-1 $-1 $430 $302 #
vertex $-1 $311 $442 #
vertex $-1 $201 $443 #
straight-curve $-1 49.748964440030079 20.663547036871137 11.820749168017727 -1 0 0 I I #
coedge $-1 $318 $318 $-1 $444 reversed $204 $-1 #
edge $-1 $445 0 $445 6.2831853071796004 $205 $446 forward 7 unknown #
vertex $-1 $208 $447 #
ellipse-curve $-1 69.496505264649116 8.2161037423502208 6.0658353416165562 0.78801076186113728 0 0.61566146476048833 0.9234921971407325 0 -1.182016142791706 1 I I #
coedge $-1 $322 $322 $-1 $448 reversed $211 $-1 #
edge $-1 $449 0 $449 6.2831853071796004 $212 $450 forward 7 unknown #
vertex $-1 $215 $451 #
ellipse-curve $-1 69.496505264649116 15.684569719062772 6.0658353416165562 0.78801076186113728 0 0.61566146476048833 0.9234921971407325 0 -1.182016142791706 1 I I #
face $-1 $-1 $338 $46 $-1 $452 forward single #
loop $-1 $-1 $453 $216 #
plane-surface $-1 -73.992736594744713 0 0 1 0 0 0 0 -1 forward_v I I I I #
coedge $-1 $454 $455 $456 $457 reversed $217 $-1 #
coedge $-1 $458 $219 $221 $336 forward $137 $-1 #
coedge $-1 $219 $458 $454 $459 forward $137 $-1 #
coedge $-1 $456 $222 $219 $333 forward $338 $-1 #
edge $-1 $340 -14.688378671517885 $460 2.7380419408113941 $332 $461 forward 7 unknown #
coedge $-1 $462 $463 $220 $335 forward $327 $-1 #
edge $-1 $464 -45.399015835949861 $339 -33.889188183147446 $334 $465 forward 7 unknown #
edge $-1 $340 -14.606180790752532 $464 0 $221 $466 forward 7 unknown #
coedge $-1 $222 $456 $462 $467 forward $338 $-1 #
loop $-1 $-1 $456 $326 #
vertex $-1 $335 $468 #
vertex $-1 $223 $469 #
straight-curve $-1 -95.303441033587589 -20.66354703687113 11.820749168017727 1 0 0 I I #
coedge $-1 $342 $342 $-1 $470 reversed $226 $-1 #
edge $-1 $471 0 $471 6.2831853071796004 $227 $472 forward 7 unknown #
vertex $-1 $230 $473 #
ellipse-curve $-1 -69.496505264649102 -15.684569719062761 6.0658353416165234 -0.78801076186113728 0 0.61566146476048833 0.9234921971407325 0 1.182016142791706 1 I I #
coedge $-1 $346 $346 $-1 $474 reversed $233 $-1 #
edge $-1 $475 0 $475 6.2831853071796004 $234 $476 forward 7 unknown #
vertex $-1 $237 $477 #
ellipse-curve $-1 -69.496505264649102 -8.2161037423502137 6.0658353416165234 -0.78801076186113728 0 0.61566146476048833 0.9234921971407325 0 1.182016142791706 1 I I #
face $-1 $-1 $478 $49 $-1 $479 reversed single #
loop $-1 $-1 $244 $238 #
plane-surface $-1 0 0 11.820749168017727 0 0 1 1 0 0 forward_v I I I I #
coedge $-1 $480 $481 $482 $483 reversed $239 $-1 #
coedge $-1 $484 $241 $243 $360 forward $151 $-1 #
coedge $-1 $241 $484 $480 $485 forward $151 $-1 #
coedge $-1 $482 $244 $241 $357 forward $351 $-1 #
edge $-1 $363 -2.7380419408113905 $486 14.688378671517889 $356 $487 forward 7 unknown #
coedge $-1 $488 $489 $242 $359 forward $478 $-1 #
edge $-1 $490 -45.399015835949861 $362 -33.889188183147446 $358 $491 forward 7 unknown #
edge $-1 $363 -14.606180790752532 $490 0 $243 $492 forward 7 unknown #
coedge $-1 $244 $482 $488 $493 forward $351 $-1 #
vertex $-1 $245 $494 #
vertex $-1 $245 $495 #
straight-curve $-1 -95.303441033587589 3.2371264245418576 11.820749168017727 1 0 0 I I #
coedge $-1 $365 $365 $-1 $496 reversed $248 $-1 #
edge $-1 $497 0 $497 6.2831853071796004 $249 $498 forward 7 unknown #
vertex $-1 $252 $499 #
ellipse-curve $-1 -69.496505264649102 8.2161037423502208 6.0658353416165234 -0.78801076186113728 0 0.61566146476048833 0.9234921971407325 0 1.182016142791706 1 I I #
coedge $-1 $369 $369 $-1 $500 reversed $255 $-1 #
edge $-1 $501 0 $501 6.2831853071796004 $256 $502 forward 7 unknown #
vertex $-1 $259 $503 #
ellipse-curve $-1 -69.496505264649102 15.684569719062772 6.0658353416165234 -0.78801076186113728 0 0.61566146476048833 0.9234921971407325 0 1.182016142791706 1 I I #
face $-1 $-1 $275 $39 $-1 $504 reversed single #
loop $-1 $-1 $389 $260 #
plane-surface $-1 0 44.35454366264765 0 0 -1 0 0 0 -1 forward_v I I I I #
coedge $-1 $505 $387 $390 $506 forward $261 $-1 #
coedge $-1 $393 $263 $264 $381 reversed $165 $-1 #
coedge $-1 $387 $505 $263 $379 reversed $261 $-1 #
edge $-1 $394 -11.820749168017727 $507 11.820749168017727 $378 $508 forward 7 unknown #
coedge $-1 $265 $264 $505 $509 forward $105 $-1 #
edge $-1 $385 -73.992736594744713 $507 73.992736594744713 $377 $510 forward 7 unknown #
coedge $-1 $390 $389 $265 $383 reversed $374 $-1 #
edge $-1 $511 -73.992736594744713 $384 73.992736594744713 $382 $512 forward 7 unknown #
vertex $-1 $267 $513 #
vertex $-1 $396 $514 #
straight-curve $-1 73.992736594744713 0 -11.820749168017727 0 -1 0 I I #
coedge $-1 $376 $378 $268 $388 reversed $261 $-1 #
edge $-1 $391 -44.35454366264765 $394 44.35454366264765 $387 $515 forward 7 unknown #
coedge $-1 $382 $269 $274 $397 forward $374 $-1 #
coedge $-1 $269 $382 $376 $506 reversed $374 $-1 #
vertex $-1 $270 $516 #
straight-curve $-1 0 44.35454366264765 11.820749168017727 -1 0 0 I I #
coedge $-1 $271 $377 $273 $396 reversed $165 $-1 #
vertex $-1 $388 $517 #
straight-curve $-1 0 -44.35454366264765 11.820749168017727 1 0 0 I I #
edge $-1 $276 -11.820749168017727 $385 11.820749168017727 $273 $518 forward 7 unknown #
edge $-1 $277 -11.820749168017727 $384 11.820749168017727 $274 $519 forward 7 unknown #
point $-1 73.992736594744713 -44.35454366264765 11.820749168017727 #
point $-1 73.992736594744713 44.35454366264765 11.820749168017727 #
loop $-1 $-1 $287 $279 #
plane-surface $-1 73.992736594744713 0 0 -1 0 0 0 0 1 forward_v I I I I #
coedge $-1 $403 $282 $284 $407 reversed $173 $-1 #
coedge $-1 $282 $402 $520 $521 reversed $173 $-1 #
coedge $-1 $290 $285 $282 $405 forward $280 $-1 #
edge $-1 $408 15.25130949452344 $522 24.243772154714634 $404 $523 forward 7 unknown #
coedge $-1 $284 $283 $411 $524 reversed $109 $-1 #
edge $-1 $525 -147.98547318948943 $408 -133.37929239873691 $402 $526 forward 7 unknown #
vertex $-1 $286 $527 #
straight-curve $-1 65.000273934553519 -5.9751683653532446 11.820749168017713 0 -1 0 I I #
coedge $-1 $520 $287 $290 $415 reversed $400 $-1 #
coedge $-1 $287 $520 $406 $524 forward $400 $-1 #
vertex $-1 $288 $528 #
straight-curve $-1 73.992736594744713 -3.2371264245418505 104.01701008738041 0 0 1 I I #
straight-curve $-1 -17.116216592370307 -3.2371264245418505 116.92506698764579 0.61566146476048833 0 -0.78801076186113728 I I #
edge $-1 $522 -20.66354703687113 $291 -3.2371264245418505 $410 $529 forward 7 unknown #
point $-1 73.992736594744713 -3.2371264245418505 11.820749168017727 #
point $-1 65.000273934553519 -3.2371264245418505 11.820749168017727 #
edge $-1 $530 1 $530 0 $294 $-1 forward 7 unknown #
vertex $-1 $295 $531 #
ellipse-curve $-1 65.673160834514889 -15.684569719062761 3.0787113757193869 0.78801076186113728 0 0.61566146476048833 0.9234921971407325 0 -1.182016142791706 1 I I #
point $-1 70.419997461789819 -15.684569719062761 4.8838191988248312 #
edge $-1 $532 1 $532 0 $298 $-1 forward 7 unknown #
vertex $-1 $299 $533 #
ellipse-curve $-1 65.673160834514889 -8.2161037423502137 3.0787113757193869 0.78801076186113728 0 0.61566146476048833 0.9234921971407325 0 -1.182016142791706 1 I I #
point $-1 70.419997461789819 -8.2161037423502137 4.8838191988248312 #
plane-surface $-1 0 0 11.820749168017727 0 0 1 1 0 0 forward_v I I I I #
coedge $-1 $437 $436 $429 $534 forward $303 $-1 #
coedge $-1 $429 $305 $307 $433 reversed $195 $-1 #
coedge $-1 $305 $428 $427 $534 reversed $195 $-1 #
coedge $-1 $313 $308 $305 $431 forward $314 $-1 #
edge $-1 $434 15.25130949452344 $535 24.243772154714634 $430 $536 forward 7 unknown #
coedge $-1 $307 $306 $437 $537 reversed $123 $-1 #
edge $-1 $538 -147.98547318948943 $434 -133.37929239873691 $428 $539 forward 7 unknown #
vertex $-1 $309 $540 #
straight-curve $-1 65.000273934553519 5.9751683653532481 11.820749168017713 0 -1 0 I I #
coedge $-1 $427 $310 $313 $441 reversed $303 $-1 #
coedge $-1 $310 $427 $432 $537 forward $303 $-1 #
vertex $-1 $311 $541 #
straight-curve $-1 73.992736594744713 20.663547036871137 104.01701008738041 0 0 1 I I #
straight-curve $-1 -17.116216592370307 20.663547036871137 116.92506698764579 0.61566146476048833 0 -0.78801076186113728 I I #
edge $-1 $535 3.2371264245418576 $315 20.663547036871137 $436 $542 forward 7 unknown #
point $-1 73.992736594744713 20.663547036871137 11.820749168017727 #
point $-1 65.000273934553519 20.663547036871137 11.820749168017727 #
edge $-1 $543 1 $543 0 $318 $-1 forward 7 unknown #
vertex $-1 $319 $544 #
ellipse-curve $-1 65.673160834514889 8.2161037423502208 3.0787113757193869 0.78801076186113728 0 0.61566146476048833 0.9234921971407325 0 -1.182016142791706 1 I I #
point $-1 70.419997461789819 8.2161037423502208 4.8838191988248312 #
edge $-1 $545 1 $545 0 $322 $-1 forward 7 unknown #
vertex $-1 $323 $546 #
ellipse-curve $-1 65.673160834514889 15.684569719062772 3.0787113757193869 0.78801076186113728 0 0.61566146476048833 0.9234921971407325 0 -1.182016142791706 1 I I #
point $-1 70.419997461789819 15.684569719062772 4.8838191988248312 #
plane-surface $-1 0 0 11.820749168017727 0 0 1 1 0 0 forward_v I I I I #
coedge $-1 $463 $462 $455 $547 forward $327 $-1 #
coedge $-1 $455 $329 $331 $459 reversed $217 $-1 #
coedge $-1 $329 $454 $453 $547 reversed $217 $-1 #
coedge $-1 $337 $332 $329 $457 forward $338 $-1 #
edge $-1 $460 -30.303167099034084 $548 -21.310704438842876 $456 $549 forward 7 unknown #
coedge $-1 $331 $330 $463 $550 reversed $137 $-1 #
edge $-1 $551 0 $460 14.606180790752532 $454 $552 forward 7 unknown #
vertex $-1 $333 $553 #
straight-curve $-1 -65.000273934553505 -5.9751683653532446 11.820749168017727 0 1 0 I I #
coedge $-1 $453 $334 $337 $467 reversed $327 $-1 #
coedge $-1 $334 $453 $458 $550 forward $327 $-1 #
vertex $-1 $335 $554 #
straight-curve $-1 -73.992736594744713 -20.66354703687113 45.709937351165173 0 0 1 I I #
straight-curve $-1 -73.992736594744713 -20.66354703687113 0.31092151521531264 -0.61566146476048833 0 -0.78801076186113728 I I #
edge $-1 $548 3.2371264245418505 $339 20.66354703687113 $462 $555 forward 7 unknown #
point $-1 -73.992736594744713 -20.66354703687113 11.820749168017727 #
point $-1 -65.000273934553505 -20.66354703687113 11.820749168017727 #
edge $-1 $556 1 $556 0 $342 $-1 forward 7 unknown #
vertex $-1 $343 $557 #
ellipse-curve $-1 -65.673160834514903 -15.684569719062761 3.0787113757193727 -0.78801076186113728 0 0.61566146476048833 0.9234921971407325 0 1.182016142791706 1 I I #
point $-1 -68.57301306750837 -15.684569719062761 7.2478514844082298 #
edge $-1 $558 1 $558 0 $346 $-1 forward 7 unknown #
vertex $-1 $347 $559 #
ellipse-curve $-1 -65.673160834514903 -8.2161037423502137 3.0787113757193727 -0.78801076186113728 0 0.61566146476048833 0.9234921971407325 0 1.182016142791706 1 I I #
point $-1 -68.57301306750837 -8.2161037423502137 7.2478514844082298 #
loop $-1 $-1 $358 $350 #
plane-surface $-1 -73.992736594744713 0 0 1 0 0 0 0 -1 forward_v I I I I #
coedge $-1 $481 $353 $355 $485 reversed $239 $-1 #
coedge $-1 $353 $480 $560 $561 reversed $239 $-1 #
coedge $-1 $361 $356 $353 $483 forward $351 $-1 #
edge $-1 $486 -30.303167099034084 $562 -21.310704438842876 $482 $563 forward 7 unknown #
coedge $-1 $355 $354 $489 $564 reversed $151 $-1 #
edge $-1 $565 0 $486 14.606180790752532 $480 $566 forward 7 unknown #
vertex $-1 $357 $567 #
straight-curve $-1 -65.000273934553505 5.9751683653532481 11.820749168017727 0 1 0 I I #
coedge $-1 $560 $358 $361 $493 reversed $478 $-1 #
coedge $-1 $358 $560 $484 $564 forward $478 $-1 #
vertex $-1 $359 $568 #
straight-curve $-1 -73.992736594744713 3.2371264245418576 45.709937351165173 0 0 1 I I #
straight-curve $-1 -73.992736594744713 3.2371264245418576 0.31092151521531264 -0.61566146476048833 0 -0.78801076186113728 I I #
edge $-1 $562 -20.663547036871137 $362 -3.2371264245418576 $488 $569 forward 7 unknown #
point $-1 -73.992736594744713 3.2371264245418576 11.820749168017727 #
point $-1 -65.000273934553505 3.2371264245418576 11.820749168017727 #
edge $-1 $570 1 $570 0 $365 $-1 forward 7 unknown #
vertex $-1 $366 $571 #
ellipse-curve $-1 -65.673160834514903 8.2161037423502208 3.0787113757193727 -0.78801076186113728 0 0.61566146476048833 0.9234921971407325 0 1.182016142791706 1 I I #
point $-1 -68.57301306750837 8.2161037423502208 7.2478514844082298 #
edge $-1 $572 1 $572 0 $369 $-1 forward 7 unknown #
vertex $-1 $370 $573 #
ellipse-curve $-1 -65.673160834514903 15.684569719062772 3.0787113757193727 -0.78801076186113728 0 0.61566146476048833 0.9234921971407325 0 1.182016142791706 1 I I #
point $-1 -68.57301306750837 15.684569719062772 7.2478514844082298 #
plane-surface $-1 73.992736594744713 0 0 -1 0 0 0 0 1 forward_v I I I I #
coedge $-1 $378 $376 $380 $509 reversed $261 $-1 #
edge $-1 $391 -11.820749168017727 $511 11.820749168017727 $390 $574 forward 7 unknown #
vertex $-1 $509 $575 #
straight-curve $-1 -73.992736594744713 -44.35454366264765 0 0 0 -1 I I #
edge $-1 $507 -44.35454366264765 $511 44.35454366264765 $505 $576 forward 7 unknown #
straight-curve $-1 0 -44.35454366264765 -11.820749168017727 -1 0 0 I I #
vertex $-1 $383 $577 #
straight-curve $-1 0 44.35454366264765 -11.820749168017727 1 0 0 I I #
point $-1 73.992736594744713 44.35454366264765 -11.820749168017727 #
point $-1 73.992736594744713 -44.35454366264765 -11.820749168017727 #
straight-curve $-1 -73.992736594744713 0 11.820749168017727 0 -1 0 I I #
point $-1 -73.992736594744713 44.35454366264765 11.820749168017727 #
point $-1 -73.992736594744713 -44.35454366264765 11.820749168017727 #
straight-curve $-1 73.992736594744713 -44.35454366264765 0 0 0 -1 I I #
straight-curve $-1 73.992736594744713 44.35454366264765 0 0 0 -1 I I #
coedge $-1 $411 $410 $403 $521 forward $400 $-1 #
edge $-1 $522 92.196260919362686 $525 103.70608857216507 $520 $578 forward 7 unknown #
vertex $-1 $415 $579 #
straight-curve $-1 49.748964440030079 -20.66354703687113 11.820749168017727 1 0 0 I I #
edge $-1 $525 -14.688378671517885 $412 2.7380419408113941 $411 $580 forward 7 unknown #
vertex $-1 $524 $581 #
straight-curve $-1 -17.116216592370307 -20.66354703687113 116.92506698764579 -0.61566146476048833 0 0.78801076186113728 I I #
point $-1 65.000273934553519 -20.66354703687113 11.820749168017727 #
point $-1 73.992736594744713 -3.2371264245418505 0.31092151521534106 #
straight-curve $-1 73.992736594744713 0 11.820749168017727 0 1 0 I I #
vertex $-1 $418 $582 #
point $-1 66.59665303165562 -15.684569719062761 1.8966952329276809 #
vertex $-1 $422 $583 #
point $-1 66.59665303165562 -8.2161037423502137 1.8966952329276809 #
edge $-1 $535 92.196260919362686 $538 103.70608857216507 $427 $584 forward 7 unknown #
vertex $-1 $441 $585 #
straight-curve $-1 49.748964440030079 3.2371264245418576 11.820749168017727 1 0 0 I I #
edge $-1 $538 -2.7380419408113905 $438 14.688378671517889 $437 $586 forward 7 unknown #
vertex $-1 $537 $587 #
straight-curve $-1 -17.116216592370307 3.2371264245418576 116.92506698764579 -0.61566146476048833 0 0.78801076186113728 I I #
point $-1 65.000273934553519 3.2371264245418576 11.820749168017727 #
point $-1 73.992736594744713 20.663547036871137 0.31092151521534106 #
straight-curve $-1 73.992736594744713 0 11.820749168017727 0 1 0 I I #
vertex $-1 $444 $588 #
point $-1 66.59665303165562 8.2161037423502208 1.8966952329276809 #
vertex $-1 $448 $589 #
point $-1 66.59665303165562 15.684569719062772 1.8966952329276809 #
edge $-1 $548 33.889188183147446 $551 45.399015835949861 $453 $590 forward 7 unknown #
vertex $-1 $467 $591 #
straight-curve $-1 -95.303441033587589 -3.2371264245418505 11.820749168017727 -1 0 0 I I #
edge $-1 $551 -2.7380419408113941 $464 14.688378671517885 $463 $592 forward 7 unknown #
vertex $-1 $550 $593 #
straight-curve $-1 -73.992736594744713 -3.2371264245418505 0.31092151521531264 0.61566146476048833 0 0.78801076186113728 I I #
point $-1 -65.000273934553505 -3.2371264245418505 11.820749168017727 #
point $-1 -73.992736594744713 -20.66354703687113 0.31092151521531264 #
straight-curve $-1 -73.992736594744713 0 11.820749168017727 0 -1 0 I I #
vertex $-1 $470 $594 #
point $-1 -64.749668637374171 -15.684569719062761 4.2607275185110787 #
vertex $-1 $474 $595 #
point $-1 -64.749668637374171 -8.2161037423502137 4.2607275185110787 #
coedge $-1 $489 $488 $481 $561 forward $478 $-1 #
edge $-1 $562 33.889188183147446 $565 45.399015835949861 $560 $596 forward 7 unknown #
vertex $-1 $493 $597 #
straight-curve $-1 -95.303441033587589 20.663547036871137 11.820749168017727 -1 0 0 I I #
edge $-1 $565 -14.688378671517889 $490 2.7380419408113905 $489 $598 forward 7 unknown #
vertex $-1 $564 $599 #
straight-curve $-1 -73.992736594744713 20.663547036871137 0.31092151521531264 0.61566146476048833 0 0.78801076186113728 I I #
point $-1 -65.000273934553505 20.663547036871137 11.820749168017727 #
point $-1 -73.992736594744713 3.2371264245418576 0.31092151521531264 #
straight-curve $-1 -73.992736594744713 0 11.820749168017727 0 -1 0 I I #
vertex $-1 $496 $600 #
point $-1 -64.749668637374171 8.2161037423502208 4.2607275185110787 #
vertex $-1 $500 $601 #
point $-1 -64.749668637374171 15.684569719062772 4.2607275185110787 #
straight-curve $-1 -73.992736594744713 44.35454366264765 0 0 0 -1 I I #
point $-1 -73.992736594744713 -44.35454366264765 -11.820749168017727 #
straight-curve $-1 -73.992736594744713 0 -11.820749168017727 0 1 0 I I #
point $-1 -73.992736594744713 44.35454366264765 -11.820749168017727 #
straight-curve $-1 73.992736594744713 -20.66354703687113 104.01701008738041 0 0 -1 I I #
point $-1 73.992736594744713 -20.66354703687113 11.820749168017727 #
straight-curve $-1 73.992736594744713 -5.9751683653532446 0.31092151521534817 0 1 0 I I #
point $-1 73.992736594744713 -20.66354703687113 0.31092151521534106 #
point $-1 64.491144691723193 -15.684569719062761 2.1552191785786543 #
point $-1 64.491144691723193 -8.2161037423502137 2.1552191785786543 #
straight-curve $-1 73.992736594744713 3.2371264245418576 104.01701008738041 0 0 -1 I I #
point $-1 73.992736594744713 3.2371264245418576 11.820749168017727 #
straight-curve $-1 73.992736594744713 5.9751683653532481 0.31092151521534817 0 1 0 I I #
point $-1 73.992736594744713 3.2371264245418576 0.31092151521534106 #
point $-1 64.491144691723193 8.2161037423502208 2.1552191785786543 #
point $-1 64.491144691723193 15.684569719062772 2.1552191785786543 #
straight-curve $-1 -73.992736594744713 -3.2371264245418505 45.709937351165173 0 0 -1 I I #
point $-1 -73.992736594744713 -3.2371264245418505 11.820749168017727 #
straight-curve $-1 -73.992736594744713 -5.9751683653532446 0.31092151521530809 0 -1 0 I I #
point $-1 -73.992736594744713 -3.2371264245418505 0.31092151521531264 #
point $-1 -64.491144691723207 -15.684569719062761 2.1552191785786401 #
point $-1 -64.491144691723207 -8.2161037423502137 2.1552191785786401 #
straight-curve $-1 -73.992736594744713 20.663547036871137 45.709937351165173 0 0 -1 I I #
point $-1 -73.992736594744713 20.663547036871137 11.820749168017727 #
straight-curve $-1 -73.992736594744713 5.9751683653532481 0.31092151521530809 0 -1 0 I I #
point $-1 -73.992736594744713 20.663547036871137 0.31092151521531264 #
point $-1 -64.491144691723207 8.2161037423502208 2.1552191785786401 #
point $-1 -64.491144691723207 15.684569719062772 2.1552191785786401 #
End-of-ACIS-data 