500 0 7 0           
7 Unknown 11 ACIS 5.0 NT 24 Fri Mar 26 17:40:07 1999 
-1 9.9999999999999995e-007 1e-010 
body $-1 $7 $-1 $8 #
body $-1 $9 $-1 $10 #
body $-1 $11 $-1 $12 #
body $-1 $13 $-1 $14 #
body $-1 $15 $-1 $16 #
body $-1 $17 $-1 $18 #
body $-1 $19 $-1 $20 #
lump $-1 $-1 $21 $0 #
transform $-1 1 0 0 0 1 0 0 0 1 62.33222449415571 41.633444174904383 11.005221006528958 1 rotate no_reflect no_shear #
lump $-1 $-1 $22 $1 #
transform $-1 1 0 0 0 1 0 0 0 1 62.33222449415571 41.633444174904383 11.005221006528958 1 rotate no_reflect no_shear #
lump $-1 $-1 $23 $2 #
transform $-1 1 0 0 0 1 0 0 0 1 62.33222449415571 41.633444174904383 11.005221006528958 1 rotate no_reflect no_shear #
lump $-1 $-1 $24 $3 #
transform $-1 1 0 0 0 1 0 0 0 1 62.33222449415571 41.633444174904383 11.005221006528958 1 rotate no_reflect no_shear #
lump $-1 $-1 $25 $4 #
transform $-1 1 0 0 0 1 0 0 0 1 62.33222449415571 41.633444174904383 11.005221006528958 1 rotate no_reflect no_shear #
lump $-1 $-1 $26 $5 #
transform $-1 1 0 0 0 1 0 0 0 1 62.33222449415571 41.633444174904383 11.005221006528958 1 rotate no_reflect no_shear #
lump $-1 $-1 $27 $6 #
transform $-1 1 0 0 0 1 0 0 0 1 62.33222449415571 41.633444174904383 11.005221006528958 1 rotate no_reflect no_shear #
shell $-1 $-1 $-1 $28 $-1 $7 #
shell $-1 $-1 $-1 $29 $-1 $9 #
shell $-1 $-1 $-1 $30 $-1 $11 #
shell $-1 $-1 $-1 $31 $-1 $13 #
shell $-1 $-1 $-1 $32 $-1 $15 #
shell $-1 $-1 $-1 $33 $-1 $17 #
shell $-1 $-1 $-1 $34 $-1 $19 #
face $-1 $35 $36 $21 $-1 $37 forward single #
face $-1 $38 $39 $22 $-1 $40 reversed single #
face $-1 $41 $42 $23 $-1 $43 reversed single #
face $-1 $44 $45 $24 $-1 $46 reversed single #
face $-1 $47 $48 $25 $-1 $49 forward single #
face $-1 $50 $51 $26 $-1 $52 reversed single #
face $-1 $53 $54 $27 $-1 $55 forward single #
face $-1 $56 $57 $21 $-1 $58 reversed single #
loop $-1 $-1 $59 $28 #
plane-surface $-1 0 0 11.005221006528958 0 0 1 1 0 0 forward_v I I I I #
face $-1 $60 $61 $22 $-1 $62 reversed single #
loop $-1 $-1 $63 $29 #
plane-surface $-1 0 -35.68239283068079 7.7980657774464976 0 0 1 1 0 0 forward_v I I I I #
face $-1 $64 $65 $23 $-1 $66 reversed single #
loop $-1 $-1 $67 $30 #
plane-surface $-1 0 35.682392830680783 7.7980657774464976 0 0 1 1 0 0 forward_v I I I I #
face $-1 $68 $69 $24 $-1 $70 reversed single #
loop $-1 $-1 $71 $31 #
plane-surface $-1 -62.332224494155724 -24.326510853188491 0.042753797300420615 -0.62932039886446345 0 0.77714595512881146 0.77714595512881146 0 0.62932039886446345 forward_v I I I I #
face $-1 $72 $73 $25 $-1 $74 forward single #
loop $-1 $75 $76 $32 #
cone-surface $-1 -54.789888772519504 -24.326510853188495 4.5687005346189835 0.62932039886446345 0 -0.77714595512881146 1.1657189326932171 0 0.94398059829669512 1 I I 0 1 1.5 forward I I I I #
face $-1 $77 $78 $26 $-1 $79 reversed single #
loop $-1 $-1 $80 $33 #
plane-surface $-1 43.903632976070156 -18.921680219919793 175.37910683847142 0 -1 0 -0.62932039886446345 0 -0.77714595512881146 forward_v I I I I #
face $-1 $81 $82 $27 $-1 $83 forward single #
loop $-1 $84 $85 $34 #
cone-surface $-1 54.789888772519504 -24.326510853188495 4.5687005346189906 -0.62932039886446345 0 -0.77714595512881146 1.1657189326932171 0 -0.94398059829669512 1 I I 0 1 1.5 forward I I I I #
face $-1 $86 $87 $21 $-1 $88 reversed single #
loop $-1 $-1 $89 $35 #
plane-surface $-1 0 0 -11.005221006528958 0 0 1 1 0 0 forward_v I I I I #
coedge $-1 $90 $91 $92 $93 forward $36 $-1 #
face $-1 $94 $95 $22 $-1 $96 reversed single #
loop $-1 $-1 $97 $38 #
plane-surface $-1 0 -29.731341486457193 9.4016433919877276 0 -1 0 0 0 -1 forward_v I I I I #
coedge $-1 $98 $99 $100 $101 reversed $39 $-1 #
face $-1 $102 $103 $23 $-1 $104 forward single #
loop $-1 $-1 $105 $41 #
plane-surface $-1 0 29.73134148645719 9.4016433919877276 0 1 0 0 0 1 forward_v I I I I #
coedge $-1 $106 $107 $108 $109 reversed $42 $-1 #
face $-1 $110 $111 $24 $-1 $112 reversed single #
loop $-1 $-1 $113 $44 #
plane-surface $-1 -140.78610525569843 -18.921680219919793 96.925226076928709 0 -1 0 0.62932039886446345 0 -0.77714595512881146 forward_v I I I I #
coedge $-1 $114 $115 $116 $117 reversed $45 $-1 #
face $-1 $-1 $118 $25 $-1 $119 forward single #
loop $-1 $120 $121 $47 #
cone-surface $-1 -53.544322405209201 -24.326510853188495 3.0305542009766722 0.62932039886446345 0 -0.77714595512881146 0.58285946634660857 0 0.47199029914834756 1 I I -0.70710678118654724 0.70710678118654768 0.75 forward I I I I #
loop $-1 $-1 $122 $32 #
coedge $-1 $76 $76 $123 $124 reversed $48 $-1 #
face $-1 $125 $126 $26 $-1 $127 forward single #
loop $-1 $-1 $128 $50 #
plane-surface $-1 -34.55024778547255 -24.326510853188491 78.496634558843127 0.62932039886446345 0 0.77714595512881146 0.77714595512881146 0 -0.62932039886446345 forward_v I I I I #
coedge $-1 $129 $130 $131 $132 reversed $51 $-1 #
face $-1 $-1 $133 $27 $-1 $134 forward single #
loop $-1 $135 $136 $53 #
cone-surface $-1 53.544322405209201 -24.326510853188495 3.0305542009766793 -0.62932039886446345 0 -0.77714595512881146 0.58285946634660857 0 -0.47199029914834756 1 I I -0.70710678118654724 0.70710678118654768 0.75 forward I I I I #
loop $-1 $-1 $137 $34 #
coedge $-1 $85 $85 $138 $139 reversed $54 $-1 #
face $-1 $140 $141 $21 $-1 $142 reversed single #
loop $-1 $-1 $143 $56 #
plane-surface $-1 0 -41.633444174904383 0 0 1 0 0 0 1 forward_v I I I I #
coedge $-1 $144 $145 $146 $147 forward $57 $-1 #
coedge $-1 $148 $59 $149 $150 forward $36 $-1 #
coedge $-1 $59 $148 $151 $152 forward $36 $-1 #
coedge $-1 $153 $154 $59 $93 reversed $155 $-1 #
edge $-1 $156 -41.633444174904383 $157 41.633444174904383 $92 $158 forward 7 unknown #
face $-1 $159 $160 $22 $-1 $161 reversed single #
loop $-1 $-1 $162 $60 #
plane-surface $-1 -62.33222449415571 0 0 1 0 0 0 0 -1 forward_v I I I I #
coedge $-1 $163 $164 $165 $166 reversed $61 $-1 #
coedge $-1 $167 $63 $168 $169 reversed $39 $-1 #
coedge $-1 $63 $167 $163 $170 forward $39 $-1 #
coedge $-1 $165 $171 $63 $101 forward $172 $-1 #
edge $-1 $173 -23.792247759563988 $174 -11.890145071116798 $100 $175 forward 7 unknown #
face $-1 $176 $177 $23 $-1 $178 reversed single #
loop $-1 $-1 $179 $64 #
plane-surface $-1 0 0 11.005221006528958 0 0 1 1 0 0 forward_v I I I I #
coedge $-1 $180 $181 $182 $183 reversed $65 $-1 #
coedge $-1 $184 $67 $180 $185 forward $42 $-1 #
coedge $-1 $67 $184 $186 $187 reversed $42 $-1 #
coedge $-1 $188 $189 $67 $109 forward $177 $-1 #
edge $-1 $190 11.890145071116798 $191 23.792247759563985 $108 $192 forward 7 unknown #
face $-1 $193 $194 $24 $-1 $195 forward single #
loop $-1 $-1 $196 $68 #
plane-surface $-1 -62.33222449415571 0 0 1 0 0 0 0 -1 forward_v I I I I #
coedge $-1 $197 $198 $199 $200 reversed $69 $-1 #
coedge $-1 $201 $71 $202 $203 reversed $45 $-1 #
coedge $-1 $71 $201 $197 $204 forward $45 $-1 #
coedge $-1 $199 $205 $71 $117 forward $194 $-1 #
edge $-1 $206 -17.568086059862942 $207 -6.7584247933255472 $116 $208 forward 7 unknown #
loop $-1 $-1 $123 $72 #
plane-surface $-1 -62.332224494155724 -24.326510853188491 0.042753797300420615 -0.62932039886446345 0 0.77714595512881146 0.77714595512881146 0 0.62932039886446345 forward_v I I I I #
loop $-1 $-1 $209 $47 #
coedge $-1 $121 $121 $122 $210 reversed $73 $-1 #
coedge $-1 $122 $122 $121 $210 forward $75 $-1 #
coedge $-1 $123 $123 $76 $124 forward $118 $-1 #
edge $-1 $211 0 $211 6.2831853071796004 $123 $212 forward 7 unknown #
face $-1 $213 $214 $26 $-1 $215 forward single #
loop $-1 $-1 $131 $77 #
plane-surface $-1 0 0 11.005221006528958 0 0 1 1 0 0 forward_v I I I I #
coedge $-1 $216 $217 $218 $219 reversed $78 $-1 #
coedge $-1 $130 $80 $220 $221 reversed $51 $-1 #
coedge $-1 $80 $129 $216 $222 reversed $51 $-1 #
coedge $-1 $218 $223 $80 $132 forward $126 $-1 #
edge $-1 $224 -40.380408006120632 $225 -26.842888699172192 $131 $226 forward 7 unknown #
loop $-1 $-1 $138 $81 #
plane-surface $-1 -34.55024778547255 -24.326510853188491 78.496634558843127 0.62932039886446345 0 0.77714595512881146 0.77714595512881146 0 -0.62932039886446345 forward_v I I I I #
loop $-1 $-1 $227 $53 #
coedge $-1 $136 $136 $137 $228 reversed $82 $-1 #
coedge $-1 $137 $137 $136 $228 forward $84 $-1 #
coedge $-1 $138 $138 $85 $139 forward $133 $-1 #
edge $-1 $229 0 $229 6.2831853071796004 $138 $230 forward 7 unknown #
face $-1 $231 $232 $21 $-1 $233 reversed single #
loop $-1 $-1 $234 $86 #
plane-surface $-1 -62.33222449415571 0 0 1 0 0 0 0 -1 forward_v I I I I #
coedge $-1 $235 $151 $236 $237 forward $87 $-1 #
coedge $-1 $238 $89 $235 $239 forward $57 $-1 #
coedge $-1 $89 $238 $240 $241 forward $57 $-1 #
coedge $-1 $154 $153 $89 $147 reversed $155 $-1 #
edge $-1 $242 -41.633444174904383 $243 41.633444174904383 $146 $244 forward 7 unknown #
coedge $-1 $91 $90 $245 $246 forward $36 $-1 #
coedge $-1 $247 $248 $90 $150 reversed $232 $-1 #
edge $-1 $157 -62.33222449415571 $249 62.33222449415571 $149 $250 forward 7 unknown #
coedge $-1 $143 $251 $91 $152 reversed $87 $-1 #
edge $-1 $252 -62.33222449415571 $156 62.33222449415571 $151 $253 forward 7 unknown #
coedge $-1 $146 $92 $251 $254 forward $155 $-1 #
coedge $-1 $92 $146 $247 $255 reversed $155 $-1 #
loop $-1 $-1 $153 $231 #
vertex $-1 $93 $256 #
vertex $-1 $93 $257 #
straight-curve $-1 62.33222449415571 0 11.005221006528958 0 1 0 I I #
face $-1 $258 $259 $22 $-1 $260 forward single #
loop $-1 $-1 $168 $94 #
plane-surface $-1 0 -41.633444174904383 0 0 1 0 0 0 1 forward_v I I I I #
coedge $-1 $261 $262 $263 $264 forward $95 $-1 #
coedge $-1 $263 $97 $99 $170 reversed $61 $-1 #
coedge $-1 $97 $263 $265 $266 reversed $61 $-1 #
coedge $-1 $267 $100 $97 $166 forward $172 $-1 #
edge $-1 $174 3.0972440814526339 $268 6.3043993105350937 $165 $269 forward 7 unknown #
coedge $-1 $99 $98 $261 $270 reversed $39 $-1 #
coedge $-1 $271 $272 $98 $169 forward $160 $-1 #
edge $-1 $273 -62.33222449415571 $173 62.33222449415571 $168 $274 forward 7 unknown #
edge $-1 $275 -62.33222449415571 $174 62.33222449415571 $163 $276 forward 7 unknown #
coedge $-1 $100 $267 $271 $277 forward $172 $-1 #
loop $-1 $-1 $165 $258 #
vertex $-1 $169 $278 #
vertex $-1 $101 $279 #
straight-curve $-1 62.33222449415571 -17.841196415340395 7.7980657774464976 0 1 0 I I #
face $-1 $280 $281 $23 $-1 $282 reversed single #
loop $-1 $-1 $189 $102 #
plane-surface $-1 62.33222449415571 0 0 -1 0 0 0 0 1 forward_v I I I I #
coedge $-1 $283 $284 $181 $285 forward $103 $-1 #
coedge $-1 $286 $105 $106 $185 reversed $65 $-1 #
coedge $-1 $105 $286 $179 $285 reversed $65 $-1 #
coedge $-1 $287 $288 $105 $183 forward $281 $-1 #
edge $-1 $289 3.0972440814526339 $290 6.3043993105350937 $182 $291 forward 7 unknown #
coedge $-1 $107 $106 $288 $292 reversed $42 $-1 #
edge $-1 $190 -62.33222449415571 $289 62.33222449415571 $180 $293 forward 7 unknown #
coedge $-1 $294 $295 $107 $187 forward $296 $-1 #
edge $-1 $191 -62.33222449415571 $297 62.33222449415571 $186 $298 forward 7 unknown #
coedge $-1 $299 $108 $295 $300 reversed $177 $-1 #
coedge $-1 $108 $299 $286 $301 forward $177 $-1 #
vertex $-1 $109 $302 #
vertex $-1 $187 $303 #
straight-curve $-1 62.33222449415571 17.841196415340391 7.7980657774464976 0 1 0 I I #
face $-1 $-1 $304 $24 $-1 $305 forward single #
loop $-1 $-1 $199 $110 #
plane-surface $-1 0 0 11.005221006528958 0 0 1 1 0 0 forward_v I I I I #
coedge $-1 $306 $307 $198 $308 forward $111 $-1 #
coedge $-1 $198 $113 $115 $204 reversed $69 $-1 #
coedge $-1 $113 $197 $196 $308 reversed $69 $-1 #
coedge $-1 $309 $116 $113 $200 forward $194 $-1 #
edge $-1 $207 -21.598347440641959 $310 -8.060828133693505 $199 $311 forward 7 unknown #
coedge $-1 $115 $114 $306 $312 reversed $45 $-1 #
coedge $-1 $313 $314 $114 $203 forward $304 $-1 #
edge $-1 $315 -27.165488136235602 $206 -9.7459555277121233 $202 $316 forward 7 unknown #
edge $-1 $317 1.8284041901497116e-014 $207 17.419532608523497 $197 $318 forward 7 unknown #
coedge $-1 $116 $309 $313 $319 forward $194 $-1 #
vertex $-1 $203 $320 #
vertex $-1 $117 $321 #
straight-curve $-1 -48.794705187207249 -12.163255426594246 11.005221006528956 0 1 0 I I #
coedge $-1 $209 $209 $-1 $322 reversed $120 $-1 #
edge $-1 $323 0 $323 6.2831853071796004 $121 $324 forward 7 unknown #
vertex $-1 $124 $325 #
ellipse-curve $-1 -55.563464840681476 -24.326510853188495 5.5239874019147006 -0.62932039886446345 0 0.77714595512881146 1.1657189326932171 0 0.94398059829669512 1 I I #
face $-1 $-1 $326 $26 $-1 $327 reversed single #
loop $-1 $-1 $328 $125 #
plane-surface $-1 0 -29.731341486457193 9.4016433919877276 0 -1 0 0 0 -1 forward_v I I I I #
coedge $-1 $329 $128 $130 $222 forward $78 $-1 #
coedge $-1 $128 $329 $328 $330 forward $78 $-1 #
coedge $-1 $331 $131 $128 $219 forward $126 $-1 #
edge $-1 $225 6.7584247933255472 $332 17.568086059862949 $218 $333 forward 7 unknown #
coedge $-1 $334 $335 $129 $221 forward $326 $-1 #
edge $-1 $336 -87.646799621935273 $224 -76.684332412706752 $220 $337 forward 7 unknown #
edge $-1 $225 107.24491637978794 $336 124.66444898831141 $130 $338 forward 7 unknown #
coedge $-1 $131 $331 $334 $339 forward $126 $-1 #
vertex $-1 $221 $340 #
vertex $-1 $132 $341 #
straight-curve $-1 21.951816488035078 -18.921680219919793 11.005221006528956 -1 0 0 I I #
coedge $-1 $227 $227 $-1 $342 reversed $135 $-1 #
edge $-1 $343 0 $343 6.2831853071796004 $136 $344 forward 7 unknown #
vertex $-1 $139 $345 #
ellipse-curve $-1 55.563464840681469 -24.326510853188495 5.5239874019147042 0.62932039886446345 0 0.77714595512881146 1.1657189326932171 0 -0.94398059829669512 1 I I #
face $-1 $-1 $155 $21 $-1 $346 reversed single #
loop $-1 $-1 $247 $140 #
plane-surface $-1 0 41.633444174904383 0 0 -1 0 0 0 -1 forward_v I I I I #
coedge $-1 $347 $245 $248 $348 forward $141 $-1 #
coedge $-1 $251 $143 $144 $239 reversed $87 $-1 #
coedge $-1 $245 $347 $143 $237 reversed $141 $-1 #
edge $-1 $252 -11.005221006528958 $349 11.005221006528958 $236 $350 forward 7 unknown #
coedge $-1 $145 $144 $347 $351 forward $57 $-1 #
edge $-1 $243 -62.33222449415571 $349 62.33222449415571 $235 $352 forward 7 unknown #
coedge $-1 $248 $247 $145 $241 reversed $232 $-1 #
edge $-1 $353 -62.33222449415571 $242 62.33222449415571 $240 $354 forward 7 unknown #
vertex $-1 $147 $355 #
vertex $-1 $254 $356 #
straight-curve $-1 62.33222449415571 0 -11.005221006528958 0 -1 0 I I #
coedge $-1 $234 $236 $148 $246 reversed $141 $-1 #
edge $-1 $249 -41.633444174904383 $252 41.633444174904383 $245 $357 forward 7 unknown #
coedge $-1 $240 $149 $154 $255 forward $232 $-1 #
coedge $-1 $149 $240 $234 $348 reversed $232 $-1 #
vertex $-1 $150 $358 #
straight-curve $-1 0 41.633444174904383 11.005221006528958 -1 0 0 I I #
coedge $-1 $151 $235 $153 $254 reversed $87 $-1 #
vertex $-1 $246 $359 #
straight-curve $-1 0 -41.633444174904383 11.005221006528958 1 0 0 I I #
edge $-1 $156 -11.005221006528958 $243 11.005221006528958 $153 $360 forward 7 unknown #
edge $-1 $157 -11.005221006528958 $242 11.005221006528958 $154 $361 forward 7 unknown #
point $-1 62.33222449415571 -41.633444174904383 11.005221006528958 #
point $-1 62.33222449415571 41.633444174904383 11.005221006528958 #
face $-1 $-1 $172 $22 $-1 $362 reversed single #
loop $-1 $-1 $265 $159 #
plane-surface $-1 0 0 11.005221006528958 0 0 1 1 0 0 forward_v I I I I #
coedge $-1 $363 $162 $167 $270 forward $95 $-1 #
coedge $-1 $162 $363 $364 $365 reversed $95 $-1 #
coedge $-1 $164 $163 $162 $264 reversed $61 $-1 #
edge $-1 $366 -6.3043993105350937 $275 -3.0972440814526339 $162 $367 forward 7 unknown #
coedge $-1 $364 $368 $164 $266 forward $259 $-1 #
edge $-1 $268 -62.33222449415571 $366 62.33222449415571 $265 $369 forward 7 unknown #
coedge $-1 $171 $165 $368 $370 reversed $172 $-1 #
vertex $-1 $166 $371 #
straight-curve $-1 62.33222449415571 -29.731341486457193 4.7008216959938638 0 0 1 I I #
edge $-1 $275 11.890145071116798 $273 23.792247759563988 $261 $372 forward 7 unknown #
coedge $-1 $373 $168 $171 $277 reversed $160 $-1 #
coedge $-1 $168 $373 $363 $374 forward $160 $-1 #
vertex $-1 $169 $375 #
straight-curve $-1 0 -41.633444174904383 7.7980657774464976 1 0 0 I I #
vertex $-1 $270 $376 #
straight-curve $-1 0 -29.731341486457193 7.7980657774464976 1 0 0 I I #
edge $-1 $377 -11.005221006528958 $173 -7.7980657774464976 $171 $378 forward 7 unknown #
point $-1 62.33222449415571 -41.633444174904383 7.7980657774464976 #
point $-1 62.33222449415571 -29.731341486457193 7.7980657774464976 #
face $-1 $-1 $296 $23 $-1 $379 reversed single #
loop $-1 $-1 $182 $176 #
plane-surface $-1 -62.33222449415571 0 0 1 0 0 0 0 -1 forward_v I I I I #
coedge $-1 $380 $179 $299 $381 forward $103 $-1 #
coedge $-1 $179 $380 $287 $382 forward $103 $-1 #
edge $-1 $290 -62.33222449415571 $383 62.33222449415571 $179 $384 forward 7 unknown #
coedge $-1 $181 $180 $189 $301 reversed $65 $-1 #
coedge $-1 $385 $182 $284 $382 reversed $281 $-1 #
coedge $-1 $182 $385 $184 $292 forward $281 $-1 #
vertex $-1 $292 $386 #
vertex $-1 $183 $387 #
straight-curve $-1 -62.33222449415571 29.73134148645719 4.7008216959938638 0 0 1 I I #
edge $-1 $297 -23.792247759563985 $289 -11.890145071116798 $288 $388 forward 7 unknown #
straight-curve $-1 0 29.73134148645719 7.7980657774464976 -1 0 0 I I #
coedge $-1 $389 $186 $385 $390 reversed $296 $-1 #
coedge $-1 $186 $389 $188 $300 forward $296 $-1 #
loop $-1 $-1 $186 $280 #
vertex $-1 $187 $391 #
straight-curve $-1 0 41.633444174904383 7.7980657774464976 -1 0 0 I I #
coedge $-1 $189 $188 $283 $381 reversed $177 $-1 #
edge $-1 $392 -11.005221006528958 $191 -7.7980657774464976 $188 $393 forward 7 unknown #
edge $-1 $383 -6.3043993105350937 $190 -3.0972440814526339 $189 $394 forward 7 unknown #
point $-1 62.33222449415571 29.73134148645719 7.7980657774464976 #
point $-1 62.33222449415571 41.633444174904376 7.7980657774464976 #
loop $-1 $-1 $202 $193 #
plane-surface $-1 0 -29.731341486457193 9.4016433919877276 0 -1 0 0 0 -1 forward_v I I I I #
coedge $-1 $395 $196 $201 $312 forward $111 $-1 #
coedge $-1 $196 $395 $309 $396 reversed $111 $-1 #
edge $-1 $310 37.457392031935399 $317 48.41985924116392 $196 $397 forward 7 unknown #
coedge $-1 $205 $199 $307 $396 forward $194 $-1 #
vertex $-1 $396 $398 #
straight-curve $-1 -70.393052627849215 -18.921680219919793 11.005221006528956 -1 0 0 I I #
edge $-1 $317 6.7584247933255472 $315 17.568086059862942 $306 $399 forward 7 unknown #
coedge $-1 $314 $202 $205 $319 reversed $304 $-1 #
coedge $-1 $202 $313 $395 $400 reversed $304 $-1 #
vertex $-1 $400 $401 #
straight-curve $-1 -41.220675269980497 -29.731341486457193 17.138549626544069 0.77714595512881146 0 0.62932039886446345 I I #
vertex $-1 $312 $402 #
straight-curve $-1 -62.332224494155724 -18.921680219919793 0.042753797300420615 0.77714595512881146 0 0.62932039886446345 I I #
edge $-1 $403 -62.33222449415571 $206 -48.794705187207256 $205 $404 forward 7 unknown #
point $-1 -48.794705187207256 -29.73134148645719 11.005221006528958 #
point $-1 -48.794705187207256 -18.921680219919793 11.005221006528958 #
edge $-1 $405 1 $405 0 $209 $-1 forward 7 unknown #
vertex $-1 $210 $406 #
ellipse-curve $-1 -54.016312704357546 -24.326510853188495 3.6134136673232811 -0.62932039886446345 0 0.77714595512881146 1.1657189326932171 0 0.94398059829669512 1 I I #
point $-1 -54.397745907988245 -24.326510853188495 6.4679680002113802 #
loop $-1 $-1 $220 $213 #
plane-surface $-1 62.33222449415571 0 0 -1 0 0 0 0 1 forward_v I I I I #
coedge $-1 $407 $408 $217 $330 reversed $214 $-1 #
coedge $-1 $217 $216 $335 $409 reversed $78 $-1 #
edge $-1 $410 -124.66444898831141 $332 -107.24491637978792 $328 $411 forward 7 unknown #
coedge $-1 $223 $218 $408 $412 forward $126 $-1 #
vertex $-1 $412 $413 #
straight-curve $-1 48.794705187207271 -12.163255426594246 11.005221006528956 0 -1 0 I I #
coedge $-1 $414 $220 $223 $339 reversed $326 $-1 #
coedge $-1 $220 $414 $329 $409 forward $326 $-1 #
vertex $-1 $221 $415 #
straight-curve $-1 62.33222449415571 -18.921680219919793 87.689553419235708 0 0 1 I I #
straight-curve $-1 -34.55024778547255 -18.921680219919793 78.496634558843127 0.77714595512881146 0 -0.62932039886446345 I I #
edge $-1 $416 -29.731341486457193 $224 -18.921680219919793 $334 $417 forward 7 unknown #
point $-1 62.33222449415571 -18.921680219919793 11.005221006528958 #
point $-1 48.794705187207271 -18.921680219919793 11.005221006528956 #
edge $-1 $418 1 $418 0 $227 $-1 forward 7 unknown #
vertex $-1 $228 $419 #
ellipse-curve $-1 54.016312704357546 -24.326510853188495 3.6134136673232882 0.62932039886446345 0 0.77714595512881146 1.1657189326932171 0 -0.94398059829669512 1 I I #
point $-1 56.729183773374679 -24.326510853188495 4.5800068036179971 #
plane-surface $-1 62.33222449415571 0 0 -1 0 0 0 0 1 forward_v I I I I #
coedge $-1 $236 $234 $238 $351 reversed $141 $-1 #
edge $-1 $249 -11.005221006528958 $353 11.005221006528958 $248 $420 forward 7 unknown #
vertex $-1 $351 $421 #
straight-curve $-1 -62.33222449415571 -41.633444174904383 0 0 0 -1 I I #
edge $-1 $349 -41.633444174904383 $353 41.633444174904383 $347 $422 forward 7 unknown #
straight-curve $-1 0 -41.633444174904383 -11.005221006528958 -1 0 0 I I #
vertex $-1 $241 $423 #
straight-curve $-1 0 41.633444174904383 -11.005221006528958 1 0 0 I I #
point $-1 62.33222449415571 41.633444174904383 -11.005221006528958 #
point $-1 62.33222449415571 -41.633444174904383 -11.005221006528958 #
straight-curve $-1 -62.33222449415571 0 11.005221006528958 0 -1 0 I I #
point $-1 -62.33222449415571 41.633444174904383 11.005221006528958 #
point $-1 -62.33222449415571 -41.633444174904383 11.005221006528958 #
straight-curve $-1 62.33222449415571 -41.633444174904383 0 0 0 -1 I I #
straight-curve $-1 62.33222449415571 41.633444174904383 0 0 0 -1 I I #
plane-surface $-1 62.33222449415571 0 0 -1 0 0 0 0 1 forward_v I I I I #
coedge $-1 $262 $261 $272 $374 reversed $95 $-1 #
coedge $-1 $424 $265 $262 $365 forward $259 $-1 #
edge $-1 $366 29.731341486457193 $425 41.633444174904383 $262 $426 forward 7 unknown #
vertex $-1 $365 $427 #
straight-curve $-1 -62.33222449415571 -29.731341486457193 4.7008216959938638 0 0 -1 I I #
coedge $-1 $265 $424 $267 $370 forward $259 $-1 #
straight-curve $-1 0 -29.731341486457193 11.005221006528958 -1 0 0 I I #
edge $-1 $377 -41.633444174904383 $268 -29.731341486457193 $267 $428 forward 7 unknown #
point $-1 62.33222449415571 -29.731341486457193 11.005221006528958 #
straight-curve $-1 -62.33222449415571 -17.841196415340395 7.7980657774464976 0 -1 0 I I #
coedge $-1 $272 $271 $424 $429 reversed $160 $-1 #
edge $-1 $425 -11.005221006528958 $273 -7.7980657774464976 $363 $430 forward 7 unknown #
point $-1 -62.33222449415571 -41.633444174904383 7.7980657774464976 #
point $-1 -62.33222449415571 -29.731341486457193 7.7980657774464976 #
vertex $-1 $370 $431 #
straight-curve $-1 62.33222449415571 -41.633444174904383 0 0 0 -1 I I #
plane-surface $-1 0 41.633444174904383 0 0 -1 0 0 0 -1 forward_v I I I I #
coedge $-1 $284 $283 $389 $432 forward $103 $-1 #
edge $-1 $383 29.73134148645719 $392 41.633444174904383 $299 $433 forward 7 unknown #
edge $-1 $434 -41.633444174904383 $290 -29.73134148645719 $287 $435 forward 7 unknown #
vertex $-1 $381 $436 #
straight-curve $-1 0 29.73134148645719 11.005221006528958 1 0 0 I I #
coedge $-1 $288 $287 $294 $390 forward $281 $-1 #
point $-1 -62.33222449415571 29.73134148645719 7.7980657774464976 #
point $-1 -62.33222449415571 29.73134148645719 11.005221006528958 #
straight-curve $-1 -62.33222449415571 17.841196415340391 7.7980657774464976 0 -1 0 I I #
coedge $-1 $295 $294 $380 $432 reversed $296 $-1 #
edge $-1 $434 -11.005221006528958 $297 -7.7980657774464976 $294 $437 forward 7 unknown #
point $-1 -62.33222449415571 41.633444174904376 7.7980657774464976 #
vertex $-1 $381 $438 #
straight-curve $-1 62.33222449415571 41.633444174904383 0 0 0 -1 I I #
straight-curve $-1 62.33222449415571 29.73134148645719 4.7008216959938638 0 0 -1 I I #
coedge $-1 $307 $306 $314 $400 forward $111 $-1 #
edge $-1 $310 18.921680219919793 $403 29.731341486457193 $307 $439 forward 7 unknown #
straight-curve $-1 -62.33222449415571 -18.921680219919793 48.462613038464355 0 0 -1 I I #
point $-1 -62.33222449415571 -18.921680219919793 11.005221006528958 #
straight-curve $-1 -62.33222449415571 -12.163255426594246 0.042753797300433431 0 -1 0 I I #
edge $-1 $315 -48.41985924116392 $403 -37.457392031935399 $395 $440 forward 7 unknown #
point $-1 -62.33222449415571 -29.73134148645719 0.04275379730043212 #
point $-1 -62.33222449415571 -18.921680219919793 0.04275379730043212 #
vertex $-1 $400 $441 #
straight-curve $-1 0 -29.731341486457193 11.005221006528958 1 0 0 I I #
vertex $-1 $322 $442 #
point $-1 -52.850593771664329 -24.326510853188495 4.5573942656199762 #
coedge $-1 $408 $328 $414 $443 reversed $214 $-1 #
coedge $-1 $328 $407 $331 $412 reversed $214 $-1 #
edge $-1 $410 -17.568086059862942 $336 -6.7584247933255472 $335 $444 forward 7 unknown #
vertex $-1 $443 $445 #
straight-curve $-1 -34.55024778547255 -29.73134148645719 78.496634558843127 -0.77714595512881146 0 0.62932039886446345 I I #
edge $-1 $332 48.794705187207263 $416 62.33222449415571 $331 $446 forward 7 unknown #
point $-1 48.794705187207263 -29.731341486457193 11.005221006528958 #
coedge $-1 $335 $334 $407 $443 forward $326 $-1 #
point $-1 62.33222449415571 -18.921680219919793 0.042753797300434826 #
vertex $-1 $339 $447 #
straight-curve $-1 62.33222449415571 0 11.005221006528958 0 1 0 I I #
vertex $-1 $342 $448 #
point $-1 55.182031637050763 -24.326510853188495 2.6694330690265931 #
straight-curve $-1 -62.33222449415571 41.633444174904383 0 0 0 -1 I I #
point $-1 -62.33222449415571 -41.633444174904383 -11.005221006528958 #
straight-curve $-1 -62.33222449415571 0 -11.005221006528958 0 1 0 I I #
point $-1 -62.33222449415571 41.633444174904383 -11.005221006528958 #
coedge $-1 $368 $364 $373 $429 forward $259 $-1 #
vertex $-1 $365 $449 #
straight-curve $-1 -62.33222449415571 0 11.005221006528958 0 -1 0 I I #
point $-1 -62.33222449415571 -29.731341486457193 11.005221006528958 #
straight-curve $-1 62.33222449415571 0 11.005221006528958 0 1 0 I I #
edge $-1 $425 -62.33222449415571 $377 62.33222449415571 $373 $450 forward 7 unknown #
straight-curve $-1 -62.33222449415571 -41.633444174904383 0 0 0 -1 I I #
point $-1 62.33222449415571 -41.633444174904383 11.005221006528958 #
edge $-1 $392 -62.33222449415571 $434 62.33222449415571 $389 $451 forward 7 unknown #
straight-curve $-1 62.33222449415571 0 11.005221006528958 0 1 0 I I #
vertex $-1 $432 $452 #
straight-curve $-1 -62.33222449415571 0 11.005221006528958 0 -1 0 I I #
point $-1 62.33222449415571 29.73134148645719 11.005221006528958 #
straight-curve $-1 -62.33222449415571 41.633444174904383 0 0 0 -1 I I #
point $-1 62.33222449415571 41.633444174904383 11.005221006528958 #
straight-curve $-1 -62.33222449415571 0 11.005221006528958 0 -1 0 I I #
straight-curve $-1 -62.33222449415571 -29.73134148645719 48.462613038464355 0 0 1 I I #
point $-1 -62.33222449415571 -29.731341486457193 11.005221006528958 #
point $-1 -53.072332106060855 -24.326510853188495 2.4476947346300633 #
edge $-1 $416 76.684332412706752 $410 87.646799621935273 $414 $453 forward 7 unknown #
straight-curve $-1 62.33222449415571 -12.163255426594246 0.042753797300441931 0 1 0 I I #
point $-1 62.33222449415571 -29.73134148645719 0.042753797300434826 #
straight-curve $-1 0 -29.731341486457193 11.005221006528958 1 0 0 I I #
point $-1 62.33222449415571 -29.731341486457193 11.005221006528958 #
point $-1 53.072332106060855 -24.326510853188495 2.4476947346300704 #
point $-1 -62.33222449415571 -41.633444174904383 11.005221006528958 #
straight-curve $-1 0 -41.633444174904383 11.005221006528958 1 0 0 I I #
straight-curve $-1 0 41.633444174904383 11.005221006528958 -1 0 0 I I #
point $-1 -62.33222449415571 41.633444174904383 11.005221006528958 #
straight-curve $-1 62.33222449415571 -29.73134148645719 87.689553419235708 0 0 -1 I I #
End-of-ACIS-data 