500 0 5 0           
7 Unknown 11 ACIS 5.0 NT 24 Fri Mar 26 02:37:42 1999 
-1 9.9999999999999995e-007 1e-010 
body $-1 $5 $-1 $6 #
body $-1 $7 $-1 $8 #
body $-1 $9 $-1 $10 #
body $-1 $11 $-1 $12 #
body $-1 $13 $-1 $14 #
lump $-1 $-1 $15 $0 #
transform $-1 1 0 0 0 1 0 0 0 1 61.262855922116763 40.976394180201552 15.587837025568236 1 rotate no_reflect no_shear #
lump $-1 $-1 $16 $1 #
transform $-1 1 0 0 0 1 0 0 0 1 61.262855922116763 40.976394180201552 15.587837025568236 1 rotate no_reflect no_shear #
lump $-1 $-1 $17 $2 #
transform $-1 1 0 0 0 1 0 0 0 1 61.262855922116763 40.976394180201552 15.587837025568236 1 rotate no_reflect no_shear #
lump $-1 $-1 $18 $3 #
transform $-1 1 0 0 0 1 0 0 0 1 61.262855922116763 40.976394180201552 15.587837025568236 1 rotate no_reflect no_shear #
lump $-1 $-1 $19 $4 #
transform $-1 1 0 0 0 1 0 0 0 1 61.262855922116763 40.976394180201552 15.587837025568236 1 rotate no_reflect no_shear #
shell $-1 $-1 $-1 $20 $-1 $5 #
shell $-1 $-1 $-1 $21 $-1 $7 #
shell $-1 $-1 $-1 $22 $-1 $9 #
shell $-1 $-1 $-1 $23 $-1 $11 #
shell $-1 $-1 $-1 $24 $-1 $13 #
face $-1 $25 $26 $15 $-1 $27 forward single #
face $-1 $28 $29 $16 $-1 $30 forward single #
face $-1 $31 $32 $17 $-1 $33 reversed single #
face $-1 $34 $35 $18 $-1 $36 forward single #
face $-1 $37 $38 $19 $-1 $39 forward single #
face $-1 $40 $41 $15 $-1 $42 reversed single #
loop $-1 $-1 $43 $20 #
plane-surface $-1 0 0 15.587837025568236 0 0 1 1 0 0 forward_v I I I I #
face $-1 $44 $45 $16 $-1 $46 reversed single #
loop $-1 $-1 $47 $21 #
plane-surface $-1 0 -40.976394180201552 0 0 1 0 0 0 1 forward_v I I I I #
face $-1 $48 $49 $17 $-1 $50 reversed single #
loop $-1 $-1 $51 $22 #
plane-surface $-1 -136.69721738744843 2.586683451518617 103.19335501259653 0 1 0 -0.61566148304635926 0 0.78801074757464917 forward_v I I I I #
face $-1 $52 $53 $18 $-1 $54 forward single #
loop $-1 $55 $56 $23 #
cone-surface $-1 -54.652823924070276 6.6680911870865742 9.9822956923470674 0.61566148304635926 0 -0.78801074757464917 1.5760214951492983 0 1.2313229660927185 1 I I 0 1 2 forward I I I I #
face $-1 $57 $58 $19 $-1 $59 forward single #
loop $-1 $60 $61 $24 #
cone-surface $-1 -54.652823924070276 12.790202790438506 9.9822956923470674 0.61566148304635926 0 -0.78801074757464917 1.5760214951492983 0 1.2313229660927185 1 I I 0 1 2 forward I I I I #
face $-1 $62 $63 $15 $-1 $64 reversed single #
loop $-1 $-1 $65 $25 #
plane-surface $-1 0 0 -15.587837025568236 0 0 1 1 0 0 forward_v I I I I #
coedge $-1 $66 $67 $68 $69 forward $26 $-1 #
face $-1 $70 $71 $16 $-1 $72 reversed single #
loop $-1 $-1 $73 $28 #
plane-surface $-1 0 0 -15.587837025568236 0 0 1 1 0 0 forward_v I I I I #
coedge $-1 $74 $75 $76 $77 forward $29 $-1 #
face $-1 $78 $79 $17 $-1 $80 reversed single #
loop $-1 $-1 $81 $31 #
plane-surface $-1 -61.262855922116756 9.7291469887625368 6.6417772251060256 -0.61566148304635926 0 0.78801074757464917 0.78801074757464917 0 0.61566148304635926 forward_v I I I I #
coedge $-1 $82 $83 $84 $85 reversed $32 $-1 #
face $-1 $-1 $86 $18 $-1 $87 forward single #
loop $-1 $88 $89 $34 #
cone-surface $-1 -53.152347518705142 6.6680911870865742 8.0617735117823539 0.61566148304635926 0 -0.78801074757464917 0.78801074757464917 0 0.61566148304635926 1 I I -0.70710678118654746 0.70710678118654746 1 forward I I I I #
loop $-1 $-1 $90 $23 #
coedge $-1 $56 $56 $91 $92 reversed $35 $-1 #
face $-1 $-1 $93 $19 $-1 $94 forward single #
loop $-1 $95 $96 $37 #
cone-surface $-1 -53.152347518705142 12.790202790438506 8.0617735117823539 0.61566148304635926 0 -0.78801074757464917 0.78801074757464917 0 0.61566148304635926 1 I I -0.70710678118654746 0.70710678118654746 1 forward I I I I #
loop $-1 $-1 $97 $24 #
coedge $-1 $61 $61 $98 $99 reversed $38 $-1 #
face $-1 $100 $101 $15 $-1 $102 reversed single #
loop $-1 $-1 $103 $40 #
plane-surface $-1 0 -40.976394180201552 0 0 1 0 0 0 1 forward_v I I I I #
coedge $-1 $104 $105 $106 $107 forward $41 $-1 #
coedge $-1 $108 $43 $109 $110 forward $26 $-1 #
coedge $-1 $43 $108 $111 $112 forward $26 $-1 #
coedge $-1 $113 $114 $43 $69 reversed $115 $-1 #
edge $-1 $116 -40.976394180201552 $117 40.976394180201552 $68 $118 forward 7 unknown #
face $-1 $119 $120 $16 $-1 $121 forward single #
loop $-1 $-1 $122 $44 #
plane-surface $-1 61.262855922116763 0 0 -1 0 0 0 0 1 forward_v I I I I #
coedge $-1 $123 $124 $125 $126 forward $45 $-1 #
coedge $-1 $125 $47 $122 $127 reversed $29 $-1 #
coedge $-1 $47 $125 $128 $129 reversed $29 $-1 #
coedge $-1 $130 $131 $47 $77 reversed $120 $-1 #
edge $-1 $132 -61.262855922116763 $133 61.262855922116763 $76 $134 forward 7 unknown #
face $-1 $135 $136 $17 $-1 $137 forward single #
loop $-1 $-1 $138 $48 #
plane-surface $-1 -136.69721738744843 16.871610526006457 103.19335501259653 0 -1 0 0.61566148304635926 0 -0.78801074757464917 forward_v I I I I #
coedge $-1 $139 $140 $141 $142 reversed $49 $-1 #
coedge $-1 $83 $51 $143 $144 reversed $32 $-1 #
coedge $-1 $51 $82 $139 $145 reversed $32 $-1 #
coedge $-1 $141 $146 $51 $85 forward $136 $-1 #
edge $-1 $147 7.0857527716074529 $148 18.536186923062914 $84 $149 forward 7 unknown #
loop $-1 $-1 $91 $52 #
plane-surface $-1 -61.262855922116756 9.7291469887625368 6.6417772251060256 -0.61566148304635926 0 0.78801074757464917 0.78801074757464917 0 0.61566148304635926 forward_v I I I I #
loop $-1 $-1 $150 $34 #
coedge $-1 $89 $89 $90 $151 reversed $53 $-1 #
coedge $-1 $90 $90 $89 $151 forward $55 $-1 #
coedge $-1 $91 $91 $56 $92 forward $86 $-1 #
edge $-1 $152 0 $152 6.2831853071796004 $91 $153 forward 7 unknown #
loop $-1 $-1 $98 $57 #
plane-surface $-1 -61.262855922116756 9.7291469887625368 6.6417772251060256 -0.61566148304635926 0 0.78801074757464917 0.78801074757464917 0 0.61566148304635926 forward_v I I I I #
loop $-1 $-1 $154 $37 #
coedge $-1 $96 $96 $97 $155 reversed $58 $-1 #
coedge $-1 $97 $97 $96 $155 forward $60 $-1 #
coedge $-1 $98 $98 $61 $99 forward $93 $-1 #
edge $-1 $156 0 $156 6.2831853071796004 $98 $157 forward 7 unknown #
face $-1 $158 $159 $15 $-1 $160 reversed single #
loop $-1 $-1 $161 $62 #
plane-surface $-1 -61.262855922116763 0 0 1 0 0 0 0 -1 forward_v I I I I #
coedge $-1 $111 $162 $113 $163 reversed $63 $-1 #
coedge $-1 $164 $65 $162 $165 forward $41 $-1 #
coedge $-1 $65 $164 $166 $167 forward $41 $-1 #
coedge $-1 $114 $113 $65 $107 reversed $115 $-1 #
edge $-1 $168 -40.976394180201552 $169 40.976394180201552 $106 $170 forward 7 unknown #
coedge $-1 $67 $66 $171 $172 forward $26 $-1 #
coedge $-1 $173 $174 $66 $110 reversed $159 $-1 #
edge $-1 $117 -61.262855922116763 $175 61.262855922116763 $109 $176 forward 7 unknown #
coedge $-1 $177 $103 $67 $112 reversed $63 $-1 #
edge $-1 $178 -61.262855922116763 $116 61.262855922116763 $111 $179 forward 7 unknown #
coedge $-1 $106 $68 $103 $163 forward $115 $-1 #
coedge $-1 $68 $106 $173 $180 reversed $115 $-1 #
loop $-1 $-1 $113 $158 #
vertex $-1 $69 $181 #
vertex $-1 $69 $182 #
straight-curve $-1 61.262855922116763 0 15.587837025568236 0 1 0 I I #
face $-1 $183 $184 $16 $-1 $185 reversed single #
loop $-1 $-1 $131 $70 #
plane-surface $-1 0 -49.368437128259487 -6.3435984120776165 0 0 1 1 0 0 forward_v I I I I #
coedge $-1 $186 $187 $74 $127 forward $71 $-1 #
coedge $-1 $188 $73 $187 $189 forward $45 $-1 #
coedge $-1 $73 $188 $190 $191 forward $45 $-1 #
coedge $-1 $75 $74 $73 $126 reversed $29 $-1 #
edge $-1 $192 -61.262855922116763 $193 61.262855922116763 $73 $194 forward 7 unknown #
edge $-1 $193 -15.587837025568236 $133 -6.3435984120776165 $122 $195 forward 7 unknown #
coedge $-1 $190 $196 $75 $129 forward $197 $-1 #
edge $-1 $132 6.3435984120776165 $192 15.587837025568236 $128 $198 forward 7 unknown #
coedge $-1 $199 $76 $196 $200 forward $120 $-1 #
coedge $-1 $76 $199 $186 $201 forward $120 $-1 #
vertex $-1 $129 $202 #
vertex $-1 $201 $203 #
straight-curve $-1 0 -40.976394180201552 -6.3435984120776165 1 0 0 I I #
face $-1 $-1 $204 $17 $-1 $205 reversed single #
loop $-1 $-1 $84 $78 #
plane-surface $-1 0 0 15.587837025568236 0 0 1 1 0 0 forward_v I I I I #
coedge $-1 $206 $207 $208 $209 reversed $79 $-1 #
coedge $-1 $210 $81 $83 $145 forward $49 $-1 #
coedge $-1 $81 $210 $206 $211 forward $49 $-1 #
coedge $-1 $208 $84 $81 $142 forward $136 $-1 #
edge $-1 $148 -2.2778900428626514 $212 12.007037031625188 $141 $213 forward 7 unknown #
coedge $-1 $214 $215 $82 $144 forward $204 $-1 #
edge $-1 $216 -44.954900281192245 $147 -36.008840480730029 $143 $217 forward 7 unknown #
edge $-1 $148 -14.530809619916688 $216 8.8800565823946346e-015 $83 $218 forward 7 unknown #
coedge $-1 $84 $208 $214 $219 forward $136 $-1 #
vertex $-1 $144 $220 #
vertex $-1 $85 $221 #
straight-curve $-1 -68.348608693724216 2.586683451518617 15.587837025568234 1 0 0 I I #
coedge $-1 $150 $150 $-1 $222 reversed $88 $-1 #
edge $-1 $223 0 $223 6.2831853071796004 $89 $224 forward 7 unknown #
vertex $-1 $92 $225 #
ellipse-curve $-1 -55.537638846389044 6.6680911870865742 11.114807125337123 -0.61566148304635926 0 0.78801074757464917 1.5760214951492983 0 1.2313229660927185 1 I I #
coedge $-1 $154 $154 $-1 $226 reversed $95 $-1 #
edge $-1 $227 0 $227 6.2831853071796004 $96 $228 forward 7 unknown #
vertex $-1 $99 $229 #
ellipse-curve $-1 -55.537638846389044 12.790202790438506 11.114807125337123 -0.61566148304635926 0 0.78801074757464917 1.5760214951492983 0 1.2313229660927185 1 I I #
face $-1 $-1 $115 $15 $-1 $230 reversed single #
loop $-1 $-1 $173 $100 #
plane-surface $-1 0 40.976394180201552 0 0 -1 0 0 0 -1 forward_v I I I I #
coedge $-1 $231 $171 $174 $232 forward $101 $-1 #
coedge $-1 $103 $177 $104 $165 reversed $63 $-1 #
edge $-1 $116 -15.587837025568236 $169 15.587837025568236 $113 $233 forward 7 unknown #
coedge $-1 $105 $104 $231 $234 forward $41 $-1 #
edge $-1 $169 -61.262855922116763 $235 61.262855922116763 $162 $236 forward 7 unknown #
coedge $-1 $174 $173 $105 $167 reversed $159 $-1 #
edge $-1 $237 -61.262855922116763 $168 61.262855922116763 $166 $238 forward 7 unknown #
vertex $-1 $107 $239 #
vertex $-1 $163 $240 #
straight-curve $-1 61.262855922116763 0 -15.587837025568236 0 -1 0 I I #
coedge $-1 $161 $241 $108 $172 reversed $101 $-1 #
edge $-1 $175 -40.976394180201552 $178 40.976394180201552 $171 $242 forward 7 unknown #
coedge $-1 $166 $109 $114 $180 forward $159 $-1 #
coedge $-1 $109 $166 $161 $232 reversed $159 $-1 #
vertex $-1 $110 $243 #
straight-curve $-1 0 40.976394180201552 15.587837025568236 -1 0 0 I I #
coedge $-1 $162 $111 $241 $244 forward $63 $-1 #
vertex $-1 $172 $245 #
straight-curve $-1 0 -40.976394180201552 15.587837025568236 1 0 0 I I #
edge $-1 $117 -15.587837025568236 $168 15.587837025568236 $114 $246 forward 7 unknown #
point $-1 61.262855922116763 -40.976394180201552 15.587837025568236 #
point $-1 61.262855922116763 40.976394180201552 15.587837025568236 #
face $-1 $-1 $197 $16 $-1 $247 reversed single #
loop $-1 $-1 $248 $119 #
plane-surface $-1 0 -57.760480076317421 -10.965717718822926 0 1 0 0 0 1 forward_v I I I I #
coedge $-1 $249 $122 $131 $201 reversed $71 $-1 #
coedge $-1 $122 $249 $123 $189 reversed $71 $-1 #
coedge $-1 $124 $123 $250 $251 forward $45 $-1 #
edge $-1 $193 40.976394180201552 $252 57.760480076317421 $187 $253 forward 7 unknown #
coedge $-1 $254 $128 $124 $191 reversed $197 $-1 #
edge $-1 $255 -57.760480076317421 $192 -40.976394180201552 $190 $256 forward 7 unknown #
vertex $-1 $129 $257 #
vertex $-1 $189 $258 #
straight-curve $-1 0 -40.976394180201552 -15.587837025568236 1 0 0 I I #
straight-curve $-1 61.262855922116763 -40.976394180201552 0 0 0 1 I I #
coedge $-1 $128 $254 $130 $200 reversed $197 $-1 #
loop $-1 $-1 $128 $183 #
straight-curve $-1 -61.262855922116763 -40.976394180201552 0 0 0 -1 I I #
coedge $-1 $131 $130 $259 $260 forward $120 $-1 #
edge $-1 $132 -8.3920429480579344 $261 8.3920429480579344 $196 $262 forward 7 unknown #
edge $-1 $263 -8.3920429480579344 $133 8.3920429480579344 $186 $264 forward 7 unknown #
point $-1 -61.262855922116763 -40.976394180201552 -6.3435984120776165 #
point $-1 61.262855922116763 -40.976394180201552 -6.3435984120776165 #
loop $-1 $-1 $143 $135 #
plane-surface $-1 -61.262855922116763 0 0 1 0 0 0 0 -1 forward_v I I I I #
coedge $-1 $207 $138 $140 $211 reversed $79 $-1 #
coedge $-1 $138 $206 $265 $266 reversed $79 $-1 #
coedge $-1 $146 $141 $138 $209 forward $136 $-1 #
edge $-1 $212 -18.536186923062914 $267 -7.0857527716074529 $208 $268 forward 7 unknown #
coedge $-1 $140 $139 $215 $269 reversed $49 $-1 #
edge $-1 $270 -8.8800565823946346e-015 $212 14.530809619916688 $206 $271 forward 7 unknown #
vertex $-1 $142 $272 #
straight-curve $-1 -49.812421770661309 4.8645734943812684 15.587837025568234 0 1 0 I I #
coedge $-1 $265 $143 $146 $219 reversed $204 $-1 #
coedge $-1 $143 $265 $210 $269 forward $204 $-1 #
vertex $-1 $144 $273 #
straight-curve $-1 -61.262855922116763 2.586683451518617 51.596677506298263 0 0 1 I I #
straight-curve $-1 -61.262855922116756 2.586683451518617 6.6417772251060256 -0.78801074757464917 0 -0.61566148304635926 I I #
edge $-1 $267 -16.871610526006457 $147 -2.586683451518617 $214 $274 forward 7 unknown #
point $-1 -61.262855922116763 2.586683451518617 15.587837025568236 #
point $-1 -49.812421770661302 2.586683451518617 15.587837025568236 #
edge $-1 $275 1 $275 0 $150 $-1 forward 7 unknown #
vertex $-1 $151 $276 #
ellipse-curve $-1 -53.768009001751501 6.6680911870865742 8.8497842593570031 -0.61566148304635926 0 0.78801074757464917 1.5760214951492983 0 1.2313229660927185 1 I I #
point $-1 -53.961617351239745 6.6680911870865742 12.346130091429849 #
edge $-1 $277 1 $277 0 $154 $-1 forward 7 unknown #
vertex $-1 $155 $278 #
ellipse-curve $-1 -53.768009001751501 12.790202790438506 8.8497842593570031 -0.61566148304635926 0 0.78801074757464917 1.5760214951492983 0 1.2313229660927185 1 I I #
point $-1 -53.961617351239745 12.790202790438506 12.346130091429849 #
plane-surface $-1 61.262855922116763 0 0 -1 0 0 0 0 1 forward_v I I I I #
coedge $-1 $241 $161 $164 $234 reversed $101 $-1 #
edge $-1 $175 -15.587837025568236 $237 15.587837025568236 $174 $279 forward 7 unknown #
straight-curve $-1 61.262855922116763 -40.976394180201552 0 0 0 -1 I I #
edge $-1 $235 -40.976394180201552 $237 40.976394180201552 $231 $280 forward 7 unknown #
vertex $-1 $234 $281 #
straight-curve $-1 0 -40.976394180201552 -15.587837025568236 -1 0 0 I I #
vertex $-1 $167 $282 #
straight-curve $-1 0 40.976394180201552 -15.587837025568236 1 0 0 I I #
point $-1 61.262855922116763 40.976394180201552 -15.587837025568236 #
point $-1 61.262855922116763 -40.976394180201552 -15.587837025568236 #
coedge $-1 $171 $231 $177 $244 reversed $101 $-1 #
straight-curve $-1 -61.262855922116763 0 15.587837025568236 0 -1 0 I I #
point $-1 -61.262855922116763 40.976394180201552 15.587837025568236 #
edge $-1 $178 -15.587837025568236 $235 15.587837025568236 $241 $283 forward 7 unknown #
point $-1 -61.262855922116763 -40.976394180201552 15.587837025568236 #
straight-curve $-1 61.262855922116763 40.976394180201552 0 0 0 -1 I I #
plane-surface $-1 -61.262855922116763 0 0 1 0 0 0 0 -1 forward_v I I I I #
coedge $-1 $250 $259 $254 $284 forward $184 $-1 #
coedge $-1 $187 $186 $285 $286 forward $71 $-1 #
coedge $-1 $285 $248 $188 $251 reversed $184 $-1 #
edge $-1 $252 -61.262855922116763 $255 61.262855922116763 $250 $287 forward 7 unknown #
vertex $-1 $286 $288 #
straight-curve $-1 61.262855922116763 0 -15.587837025568236 0 -1 0 I I #
coedge $-1 $196 $190 $248 $284 reversed $197 $-1 #
vertex $-1 $191 $289 #
straight-curve $-1 -61.262855922116763 0 -15.587837025568236 0 1 0 I I #
point $-1 -61.262855922116763 -40.976394180201552 -15.587837025568236 #
point $-1 61.262855922116763 -40.976394180201552 -15.587837025568236 #
coedge $-1 $248 $285 $199 $260 reversed $184 $-1 #
edge $-1 $261 -61.262855922116763 $263 61.262855922116763 $259 $290 forward 7 unknown #
vertex $-1 $200 $291 #
straight-curve $-1 -61.262855922116763 -49.368437128259487 -6.3435984120776165 0 -1 0 I I #
vertex $-1 $201 $292 #
straight-curve $-1 61.262855922116763 -49.368437128259487 -6.3435984120776165 0 1 0 I I #
coedge $-1 $215 $214 $207 $266 forward $204 $-1 #
edge $-1 $267 36.008840480730029 $270 44.954900281192245 $265 $293 forward 7 unknown #
vertex $-1 $219 $294 #
straight-curve $-1 -68.348608693724216 16.871610526006457 15.587837025568234 -1 0 0 I I #
edge $-1 $270 -12.007037031625188 $216 2.2778900428626514 $215 $295 forward 7 unknown #
vertex $-1 $269 $296 #
straight-curve $-1 -61.262855922116756 16.871610526006457 6.6417772251060256 0.78801074757464917 0 0.61566148304635926 I I #
point $-1 -49.812421770661302 16.871610526006457 15.587837025568236 #
point $-1 -61.262855922116763 2.586683451518617 6.6417772251060203 #
straight-curve $-1 -61.262855922116763 0 15.587837025568236 0 -1 0 I I #
vertex $-1 $222 $297 #
point $-1 -52.191987506602203 6.6680911870865742 10.08110722544972 #
vertex $-1 $226 $298 #
point $-1 -52.191987506602203 12.790202790438506 10.08110722544972 #
straight-curve $-1 -61.262855922116763 40.976394180201552 0 0 0 -1 I I #
straight-curve $-1 -61.262855922116763 0 -15.587837025568236 0 1 0 I I #
point $-1 -61.262855922116763 -40.976394180201552 -15.587837025568236 #
point $-1 -61.262855922116763 40.976394180201552 -15.587837025568236 #
straight-curve $-1 -61.262855922116763 -40.976394180201552 0 0 0 -1 I I #
edge $-1 $261 -4.6221193067453097 $255 4.6221193067453097 $254 $299 forward 7 unknown #
coedge $-1 $259 $250 $249 $286 reversed $184 $-1 #
edge $-1 $263 -4.6221193067453097 $252 4.6221193067453097 $249 $300 forward 7 unknown #
straight-curve $-1 0 -57.760480076317421 -15.587837025568236 -1 0 0 I I #
point $-1 61.262855922116763 -57.760480076317421 -15.587837025568236 #
point $-1 -61.262855922116763 -57.760480076317421 -15.587837025568236 #
straight-curve $-1 0 -57.760480076317421 -6.3435984120776165 1 0 0 I I #
point $-1 -61.262855922116763 -57.760480076317421 -6.3435984120776165 #
point $-1 61.262855922116763 -57.760480076317421 -6.3435984120776165 #
straight-curve $-1 -61.262855922116763 16.871610526006457 51.596677506298263 0 0 -1 I I #
point $-1 -61.262855922116763 16.871610526006457 15.587837025568236 #
straight-curve $-1 -61.262855922116763 4.8645734943812684 6.6417772251060168 0 -1 0 I I #
point $-1 -61.262855922116763 16.871610526006457 6.6417772251060203 #
point $-1 -52.536686035658782 6.6680911870865742 7.2737627642077047 #
point $-1 -52.536686035658782 12.790202790438506 7.2737627642077047 #
straight-curve $-1 -61.262855922116763 -57.760480076317421 -10.965717718822926 0 0 -1 I I #
straight-curve $-1 61.262855922116763 -57.760480076317421 -10.965717718822926 0 0 -1 I I #
End-of-ACIS-data 