500 0 13 0           
7 Unknown 11 ACIS 5.0 NT 24 Fri Mar 26 02:02:52 1999 
-1 9.9999999999999995e-007 1e-010 
body $-1 $13 $-1 $14 #
body $-1 $15 $-1 $16 #
body $-1 $17 $-1 $18 #
body $-1 $19 $-1 $20 #
body $-1 $21 $-1 $22 #
body $-1 $23 $-1 $24 #
body $-1 $25 $-1 $26 #
body $-1 $27 $-1 $28 #
body $-1 $29 $-1 $30 #
body $-1 $31 $-1 $32 #
body $-1 $33 $-1 $34 #
body $-1 $35 $-1 $36 #
body $-1 $37 $-1 $38 #
lump $-1 $-1 $39 $0 #
transform $-1 1 0 0 0 1 0 0 0 1 53.037507248145999 32.358755032542213 8.1548170852450284 1 rotate no_reflect no_shear #
lump $-1 $-1 $40 $1 #
transform $-1 1 0 0 0 1 0 0 0 1 53.037507248145999 32.358755032542213 8.1548170852450284 1 rotate no_reflect no_shear #
lump $-1 $-1 $41 $2 #
transform $-1 1 0 0 0 1 0 0 0 1 53.037507248145999 32.358755032542213 8.1548170852450284 1 rotate no_reflect no_shear #
lump $-1 $-1 $42 $3 #
transform $-1 1 0 0 0 1 0 0 0 1 53.037507248145999 32.358755032542213 8.1548170852450284 1 rotate no_reflect no_shear #
lump $-1 $-1 $43 $4 #
transform $-1 1 0 0 0 1 0 0 0 1 53.037507248145999 32.358755032542213 8.1548170852450284 1 rotate no_reflect no_shear #
lump $-1 $-1 $44 $5 #
transform $-1 1 0 0 0 1 0 0 0 1 53.037507248145999 32.358755032542213 8.1548170852450284 1 rotate no_reflect no_shear #
lump $-1 $-1 $45 $6 #
transform $-1 1 0 0 0 1 0 0 0 1 53.037507248145999 32.358755032542213 8.1548170852450284 1 rotate no_reflect no_shear #
lump $-1 $-1 $46 $7 #
transform $-1 1 0 0 0 1 0 0 0 1 53.037507248145999 32.358755032542213 8.1548170852450284 1 rotate no_reflect no_shear #
lump $-1 $-1 $47 $8 #
transform $-1 1 0 0 0 1 0 0 0 1 53.037507248145999 32.358755032542213 8.1548170852450284 1 rotate no_reflect no_shear #
lump $-1 $-1 $48 $9 #
transform $-1 1 0 0 0 1 0 0 0 1 53.037507248145999 32.358755032542213 8.1548170852450284 1 rotate no_reflect no_shear #
lump $-1 $-1 $49 $10 #
transform $-1 1 0 0 0 1 0 0 0 1 53.037507248145999 32.358755032542213 8.1548170852450284 1 rotate no_reflect no_shear #
lump $-1 $-1 $50 $11 #
transform $-1 1 0 0 0 1 0 0 0 1 53.037507248145999 32.358755032542213 8.1548170852450284 1 rotate no_reflect no_shear #
lump $-1 $-1 $51 $12 #
transform $-1 1 0 0 0 1 0 0 0 1 53.037507248145999 32.358755032542213 8.1548170852450284 1 rotate no_reflect no_shear #
shell $-1 $-1 $-1 $52 $-1 $13 #
shell $-1 $-1 $-1 $53 $-1 $15 #
shell $-1 $-1 $-1 $54 $-1 $17 #
shell $-1 $-1 $-1 $55 $-1 $19 #
shell $-1 $-1 $-1 $56 $-1 $21 #
shell $-1 $-1 $-1 $57 $-1 $23 #
shell $-1 $-1 $-1 $58 $-1 $25 #
shell $-1 $-1 $-1 $59 $-1 $27 #
shell $-1 $-1 $-1 $60 $-1 $29 #
shell $-1 $-1 $-1 $61 $-1 $31 #
shell $-1 $-1 $-1 $62 $-1 $33 #
shell $-1 $-1 $-1 $63 $-1 $35 #
shell $-1 $-1 $-1 $64 $-1 $37 #
face $-1 $65 $66 $39 $-1 $67 forward single #
face $-1 $68 $69 $40 $-1 $70 forward single #
face $-1 $71 $72 $41 $-1 $73 forward single #
face $-1 $74 $75 $42 $-1 $76 reversed single #
face $-1 $77 $78 $43 $-1 $79 forward single #
face $-1 $80 $81 $44 $-1 $82 forward single #
face $-1 $83 $84 $45 $-1 $85 forward single #
face $-1 $86 $87 $46 $-1 $88 reversed single #
face $-1 $89 $90 $47 $-1 $91 forward single #
face $-1 $92 $93 $48 $-1 $94 forward single #
face $-1 $95 $96 $49 $-1 $97 reversed single #
face $-1 $98 $99 $50 $-1 $100 forward single #
face $-1 $101 $102 $51 $-1 $103 forward single #
face $-1 $104 $105 $39 $-1 $106 reversed single #
loop $-1 $-1 $107 $52 #
plane-surface $-1 0 0 8.1548170852450284 0 0 1 1 0 0 forward_v I I I I #
face $-1 $108 $109 $40 $-1 $110 reversed single #
loop $-1 $-1 $111 $53 #
plane-surface $-1 -49.48259483668037 0 -5.1548170852450284 0 0 1 1 0 0 forward_v I I I I #
face $-1 $112 $113 $41 $-1 $114 reversed single #
loop $-1 $-1 $115 $54 #
plane-surface $-1 49.482594836680363 0 -5.1548170852450284 0 0 1 1 0 0 forward_v I I I I #
face $-1 $116 $117 $42 $-1 $118 reversed single #
loop $-1 $-1 $119 $55 #
plane-surface $-1 -27.598860144251965 65.7998752522372 122.48988439823243 -1 0 0 0 0.73135370988377701 0.68199835119979291 forward_v I I I I #
face $-1 $120 $121 $43 $-1 $122 forward single #
loop $-1 $123 $124 $56 #
cone-surface $-1 -38.659292259632274 29.146624291887427 4.8112920555988277 0 -0.73135370988377701 -0.68199835119979291 1 0 0 1 I I 0 1 1 forward I I I I #
face $-1 $125 $126 $44 $-1 $127 forward single #
loop $-1 $128 $129 $57 #
cone-surface $-1 -34.511630216364658 29.146624291887427 4.8112920555988277 0 -0.73135370988377701 -0.68199835119979291 1 0 0 1 I I 0 1 1 forward I I I I #
face $-1 $130 $131 $45 $-1 $132 forward single #
loop $-1 $133 $134 $58 #
cone-surface $-1 -30.363968173097042 29.146624291887427 4.8112920555988277 0 -0.73135370988377701 -0.68199835119979291 1 0 0 1 I I 0 1 1 forward I I I I #
face $-1 $135 $136 $46 $-1 $137 reversed single #
loop $-1 $-1 $138 $59 #
plane-surface $-1 -12.793789693064141 -109.9371104103808 73.873053381062817 1 0 0 0 0.73135370988377701 -0.68199835119979291 forward_v I I I I #
face $-1 $139 $140 $47 $-1 $141 forward single #
loop $-1 $142 $143 $60 #
cone-surface $-1 -9.1384212093315327 -28.514144459434874 4.1376743379522782 0 0.73135370988377701 -0.68199835119979291 1.5 0 0 1 I I 0 1 1.5 forward I I I I #
face $-1 $144 $145 $48 $-1 $146 forward single #
loop $-1 $147 $148 $61 #
cone-surface $-1 -3.6553684837326159 -28.514144459434874 4.1376743379522782 0 0.73135370988377701 -0.68199835119979291 1.5 0 0 1 I I 0 1 1.5 forward I I I I #
face $-1 $149 $150 $49 $-1 $151 reversed single #
loop $-1 $-1 $152 $62 #
plane-surface $-1 33.133892732150592 -109.9371104103808 73.873053381062817 1 0 0 0 0.73135370988377701 -0.68199835119979291 forward_v I I I I #
face $-1 $153 $154 $50 $-1 $155 forward single #
loop $-1 $156 $157 $63 #
cone-surface $-1 36.789261215883215 -28.514144459434874 4.1376743379522782 0 0.73135370988377701 -0.68199835119979291 1.5 0 0 1 I I 0 1 1.5 forward I I I I #
face $-1 $158 $159 $51 $-1 $160 forward single #
loop $-1 $161 $162 $64 #
cone-surface $-1 42.272313941482125 -28.514144459434874 4.1376743379522782 0 0.73135370988377701 -0.68199835119979291 1.5 0 0 1 I I 0 1 1.5 forward I I I I #
face $-1 $163 $164 $39 $-1 $165 reversed single #
loop $-1 $-1 $166 $65 #
plane-surface $-1 0 0 -8.1548170852450284 0 0 1 1 0 0 forward_v I I I I #
coedge $-1 $167 $168 $169 $170 forward $66 $-1 #
face $-1 $171 $172 $40 $-1 $173 reversed single #
loop $-1 $-1 $174 $68 #
plane-surface $-1 -45.927682425214741 0 -6.6548170852450284 -1 0 0 0 0 1 forward_v I I I I #
coedge $-1 $175 $176 $177 $178 forward $69 $-1 #
face $-1 $179 $180 $41 $-1 $181 reversed single #
loop $-1 $-1 $182 $71 #
plane-surface $-1 45.927682425214734 0 -6.6548170852450284 1 0 0 0 0 -1 forward_v I I I I #
coedge $-1 $183 $184 $185 $186 reversed $72 $-1 #
face $-1 $187 $188 $42 $-1 $189 reversed single #
loop $-1 $-1 $190 $74 #
plane-surface $-1 -34.511630216364658 -11.778480125601376 50.14689940826716 0 0.73135370988377701 0.68199835119979291 1 0 0 forward_v I I I I #
coedge $-1 $191 $192 $193 $194 reversed $75 $-1 #
face $-1 $-1 $195 $43 $-1 $196 forward single #
loop $-1 $197 $198 $77 #
cone-surface $-1 -38.659292259632274 28.058309618773229 3.7964222291117551 0 -0.73135370988377701 -0.68199835119979291 0.5 0 0 1 I I -0.70710678118654779 0.70710678118654713 0.5 forward I I I I #
loop $-1 $-1 $199 $56 #
coedge $-1 $124 $124 $200 $201 reversed $78 $-1 #
face $-1 $-1 $202 $44 $-1 $203 forward single #
loop $-1 $204 $205 $80 #
cone-surface $-1 -34.511630216364658 28.058309618773229 3.7964222291117551 0 -0.73135370988377701 -0.68199835119979291 0.5 0 0 1 I I -0.70710678118654779 0.70710678118654713 0.5 forward I I I I #
loop $-1 $-1 $206 $57 #
coedge $-1 $129 $129 $207 $208 reversed $81 $-1 #
face $-1 $-1 $209 $45 $-1 $210 forward single #
loop $-1 $211 $212 $83 #
cone-surface $-1 -30.363968173097042 28.058309618773229 3.7964222291117551 0 -0.73135370988377701 -0.68199835119979291 0.5 0 0 1 I I -0.70710678118654779 0.70710678118654713 0.5 forward I I I I #
loop $-1 $-1 $213 $58 #
coedge $-1 $134 $134 $214 $215 reversed $84 $-1 #
face $-1 $216 $217 $46 $-1 $218 reversed single #
loop $-1 $-1 $219 $86 #
plane-surface $-1 -6.3968948465320707 -32.35875503254222 1.5300683910975437 0 -0.73135370988377701 0.68199835119979291 1 0 0 forward_v I I I I #
coedge $-1 $220 $221 $222 $223 reversed $87 $-1 #
face $-1 $-1 $224 $47 $-1 $225 forward single #
loop $-1 $226 $227 $89 #
cone-surface $-1 -9.1384212093315327 -27.209857578451086 2.921407174333428 0 0.73135370988377701 -0.68199835119979291 0.75 0 0 1 I I -0.70710678118654757 0.70710678118654757 0.75 forward I I I I #
loop $-1 $-1 $228 $60 #
coedge $-1 $143 $143 $229 $230 reversed $90 $-1 #
face $-1 $-1 $231 $48 $-1 $232 forward single #
loop $-1 $233 $234 $92 #
cone-surface $-1 -3.6553684837326159 -27.209857578451086 2.921407174333428 0 0.73135370988377701 -0.68199835119979291 0.75 0 0 1 I I -0.70710678118654757 0.70710678118654757 0.75 forward I I I I #
loop $-1 $-1 $235 $61 #
coedge $-1 $148 $148 $236 $237 reversed $93 $-1 #
face $-1 $238 $239 $49 $-1 $240 reversed single #
loop $-1 $-1 $241 $95 #
plane-surface $-1 39.530787578682663 -32.35875503254222 1.5300683910975437 0 -0.73135370988377701 0.68199835119979291 1 0 0 forward_v I I I I #
coedge $-1 $242 $243 $244 $245 reversed $96 $-1 #
face $-1 $-1 $246 $50 $-1 $247 forward single #
loop $-1 $248 $249 $98 #
cone-surface $-1 36.789261215883215 -27.209857578451086 2.921407174333428 0 0.73135370988377701 -0.68199835119979291 0.75 0 0 1 I I -0.70710678118654757 0.70710678118654757 0.75 forward I I I I #
loop $-1 $-1 $250 $63 #
coedge $-1 $157 $157 $251 $252 reversed $99 $-1 #
face $-1 $-1 $253 $51 $-1 $254 forward single #
loop $-1 $255 $256 $101 #
cone-surface $-1 42.272313941482125 -27.209857578451086 2.921407174333428 0 0.73135370988377701 -0.68199835119979291 0.75 0 0 1 I I -0.70710678118654757 0.70710678118654757 0.75 forward I I I I #
loop $-1 $-1 $257 $64 #
coedge $-1 $162 $162 $258 $259 reversed $102 $-1 #
face $-1 $260 $261 $39 $-1 $262 reversed single #
loop $-1 $-1 $263 $104 #
plane-surface $-1 0 -32.358755032542213 0 0 1 0 0 0 1 forward_v I I I I #
coedge $-1 $264 $265 $266 $267 forward $105 $-1 #
coedge $-1 $268 $107 $269 $270 forward $66 $-1 #
coedge $-1 $107 $268 $271 $272 forward $66 $-1 #
coedge $-1 $273 $274 $107 $170 reversed $275 $-1 #
edge $-1 $276 -32.358755032542213 $277 32.358755032542213 $169 $278 forward 7 unknown #
face $-1 $279 $280 $40 $-1 $281 reversed single #
loop $-1 $-1 $282 $108 #
plane-surface $-1 0 0 -8.1548170852450284 0 0 1 1 0 0 forward_v I I I I #
coedge $-1 $283 $177 $284 $285 reversed $109 $-1 #
coedge $-1 $286 $111 $287 $288 reversed $69 $-1 #
coedge $-1 $111 $286 $289 $290 reversed $69 $-1 #
coedge $-1 $174 $291 $111 $178 reversed $109 $-1 #
edge $-1 $292 -32.358755032542213 $293 32.358755032542213 $177 $294 forward 7 unknown #
face $-1 $295 $296 $41 $-1 $297 reversed single #
loop $-1 $-1 $298 $112 #
plane-surface $-1 0 -32.358755032542213 0 0 1 0 0 0 1 forward_v I I I I #
coedge $-1 $299 $300 $301 $302 reversed $113 $-1 #
coedge $-1 $303 $115 $304 $305 reversed $72 $-1 #
coedge $-1 $115 $303 $298 $306 reversed $72 $-1 #
coedge $-1 $307 $308 $115 $186 forward $309 $-1 #
edge $-1 $310 -32.358755032542213 $311 32.358755032542213 $185 $312 forward 7 unknown #
face $-1 $313 $314 $42 $-1 $315 reversed single #
loop $-1 $-1 $316 $116 #
plane-surface $-1 -41.424400288477351 65.7998752522372 122.48988439823243 1 0 0 0 -0.73135370988377701 -0.68199835119979291 forward_v I I I I #
coedge $-1 $317 $318 $319 $320 reversed $117 $-1 #
coedge $-1 $192 $119 $321 $322 reversed $75 $-1 #
coedge $-1 $119 $191 $317 $323 reversed $75 $-1 #
coedge $-1 $319 $324 $119 $194 forward $314 $-1 #
edge $-1 $325 53.090125113871188 $326 58.429433871389243 $193 $327 forward 7 unknown #
loop $-1 $-1 $200 $120 #
plane-surface $-1 -34.511630216364658 -11.778480125601376 50.14689940826716 0 0.73135370988377701 0.68199835119979291 1 0 0 forward_v I I I I #
loop $-1 $-1 $328 $77 #
coedge $-1 $198 $198 $199 $329 reversed $121 $-1 #
coedge $-1 $199 $199 $198 $329 forward $123 $-1 #
coedge $-1 $200 $200 $124 $201 forward $195 $-1 #
edge $-1 $330 2.4229448712268923e-015 $330 6.2831853071796031 $200 $331 forward 7 unknown #
loop $-1 $-1 $207 $125 #
plane-surface $-1 -34.511630216364658 -11.778480125601376 50.14689940826716 0 0.73135370988377701 0.68199835119979291 1 0 0 forward_v I I I I #
loop $-1 $-1 $332 $80 #
coedge $-1 $205 $205 $206 $333 reversed $126 $-1 #
coedge $-1 $206 $206 $205 $333 forward $128 $-1 #
coedge $-1 $207 $207 $129 $208 forward $202 $-1 #
edge $-1 $334 2.4229448712268923e-015 $334 6.2831853071796031 $207 $335 forward 7 unknown #
loop $-1 $-1 $214 $130 #
plane-surface $-1 -34.511630216364658 -11.778480125601376 50.14689940826716 0 0.73135370988377701 0.68199835119979291 1 0 0 forward_v I I I I #
loop $-1 $-1 $336 $83 #
coedge $-1 $212 $212 $213 $337 reversed $131 $-1 #
coedge $-1 $213 $213 $212 $337 forward $133 $-1 #
coedge $-1 $214 $214 $134 $215 forward $209 $-1 #
edge $-1 $338 2.4229448712268923e-015 $338 6.2831853071796031 $214 $339 forward 7 unknown #
face $-1 $340 $341 $46 $-1 $342 forward single #
loop $-1 $-1 $343 $135 #
plane-surface $-1 0 -109.9371104103808 73.873053381062817 -1 0 0 0 -0.73135370988377701 0.68199835119979291 forward_v I I I I #
coedge $-1 $344 $345 $346 $347 reversed $136 $-1 #
coedge $-1 $221 $138 $348 $349 reversed $87 $-1 #
coedge $-1 $138 $220 $344 $350 reversed $87 $-1 #
coedge $-1 $346 $351 $138 $223 forward $352 $-1 #
edge $-1 $353 28.78170960528638 $354 35.406458299433858 $222 $355 forward 7 unknown #
loop $-1 $-1 $229 $139 #
plane-surface $-1 -6.3968948465320707 -32.35875503254222 1.5300683910975437 0 -0.73135370988377701 0.68199835119979291 1 0 0 forward_v I I I I #
loop $-1 $-1 $356 $89 #
coedge $-1 $227 $227 $228 $357 reversed $140 $-1 #
coedge $-1 $228 $228 $227 $357 forward $142 $-1 #
coedge $-1 $229 $229 $143 $230 forward $224 $-1 #
edge $-1 $358 -5.4994536013672827e-016 $358 6.2831853071795996 $229 $359 forward 7 unknown #
loop $-1 $-1 $236 $144 #
plane-surface $-1 -6.3968948465320707 -32.35875503254222 1.5300683910975437 0 -0.73135370988377701 0.68199835119979291 1 0 0 forward_v I I I I #
loop $-1 $-1 $360 $92 #
coedge $-1 $234 $234 $235 $361 reversed $145 $-1 #
coedge $-1 $235 $235 $234 $361 forward $147 $-1 #
coedge $-1 $236 $236 $148 $237 forward $231 $-1 #
edge $-1 $362 -5.4994536013672827e-016 $362 6.2831853071795996 $236 $363 forward 7 unknown #
face $-1 $364 $365 $49 $-1 $366 reversed single #
loop $-1 $-1 $367 $149 #
plane-surface $-1 45.927682425214734 -109.9371104103808 73.873053381062817 -1 0 0 0 -0.73135370988377701 0.68199835119979291 forward_v I I I I #
coedge $-1 $368 $369 $370 $371 reversed $150 $-1 #
coedge $-1 $243 $152 $372 $373 reversed $96 $-1 #
coedge $-1 $152 $242 $368 $374 reversed $96 $-1 #
coedge $-1 $370 $375 $152 $245 forward $365 $-1 #
edge $-1 $376 28.78170960528638 $377 35.406458299433858 $244 $378 forward 7 unknown #
loop $-1 $-1 $251 $153 #
plane-surface $-1 39.530787578682663 -32.35875503254222 1.5300683910975437 0 -0.73135370988377701 0.68199835119979291 1 0 0 forward_v I I I I #
loop $-1 $-1 $379 $98 #
coedge $-1 $249 $249 $250 $380 reversed $154 $-1 #
coedge $-1 $250 $250 $249 $380 forward $156 $-1 #
coedge $-1 $251 $251 $157 $252 forward $246 $-1 #
edge $-1 $381 -5.4994536013672827e-016 $381 6.2831853071795996 $251 $382 forward 7 unknown #
loop $-1 $-1 $258 $158 #
plane-surface $-1 39.530787578682663 -32.35875503254222 1.5300683910975437 0 -0.73135370988377701 0.68199835119979291 1 0 0 forward_v I I I I #
loop $-1 $-1 $383 $101 #
coedge $-1 $256 $256 $257 $384 reversed $159 $-1 #
coedge $-1 $257 $257 $256 $384 forward $161 $-1 #
coedge $-1 $258 $258 $162 $259 forward $253 $-1 #
edge $-1 $385 -5.4994536013672827e-016 $385 6.2831853071795996 $258 $386 forward 7 unknown #
face $-1 $387 $388 $39 $-1 $389 reversed single #
loop $-1 $-1 $390 $163 #
plane-surface $-1 -53.037507248145999 0 0 1 0 0 0 0 -1 forward_v I I I I #
coedge $-1 $391 $271 $392 $393 forward $164 $-1 #
coedge $-1 $394 $166 $391 $395 forward $105 $-1 #
coedge $-1 $166 $394 $396 $397 forward $105 $-1 #
coedge $-1 $274 $273 $166 $267 reversed $275 $-1 #
edge $-1 $398 -32.358755032542213 $399 32.358755032542213 $266 $400 forward 7 unknown #
coedge $-1 $168 $167 $401 $402 forward $66 $-1 #
coedge $-1 $403 $404 $167 $270 reversed $388 $-1 #
edge $-1 $277 -53.037507248145999 $405 53.037507248145999 $269 $406 forward 7 unknown #
coedge $-1 $263 $407 $168 $272 reversed $164 $-1 #
edge $-1 $408 -53.037507248145999 $276 53.037507248145999 $271 $409 forward 7 unknown #
coedge $-1 $266 $169 $407 $410 forward $275 $-1 #
coedge $-1 $169 $266 $403 $411 reversed $275 $-1 #
loop $-1 $-1 $273 $387 #
vertex $-1 $170 $412 #
vertex $-1 $170 $413 #
straight-curve $-1 53.037507248145999 0 8.1548170852450284 0 1 0 I I #
face $-1 $414 $415 $40 $-1 $416 reversed single #
loop $-1 $-1 $284 $171 #
plane-surface $-1 0 -32.358755032542213 0 0 1 0 0 0 1 forward_v I I I I #
coedge $-1 $417 $418 $283 $419 forward $172 $-1 #
coedge $-1 $291 $174 $282 $419 reversed $109 $-1 #
coedge $-1 $289 $420 $174 $285 forward $280 $-1 #
edge $-1 $421 -4.8274085426225142 $292 -1.8274085426225142 $284 $422 forward 7 unknown #
coedge $-1 $176 $175 $423 $424 reversed $69 $-1 #
coedge $-1 $425 $426 $175 $288 forward $427 $-1 #
edge $-1 $428 -28.296209829805814 $293 -21.186385006874556 $287 $429 forward 7 unknown #
coedge $-1 $430 $284 $176 $290 forward $280 $-1 #
edge $-1 $292 21.186385006874556 $431 28.296209829805814 $289 $432 forward 7 unknown #
coedge $-1 $177 $283 $425 $433 reversed $109 $-1 #
vertex $-1 $290 $434 #
vertex $-1 $288 $435 #
straight-curve $-1 -45.927682425214741 0 -5.1548170852450284 0 1 0 I I #
face $-1 $436 $437 $41 $-1 $438 reversed single #
loop $-1 $-1 $439 $179 #
plane-surface $-1 0 0 -8.1548170852450284 0 0 1 1 0 0 forward_v I I I I #
coedge $-1 $440 $441 $184 $306 forward $180 $-1 #
coedge $-1 $442 $182 $439 $443 reversed $113 $-1 #
coedge $-1 $182 $442 $303 $444 reversed $113 $-1 #
coedge $-1 $304 $445 $182 $302 forward $437 $-1 #
edge $-1 $446 -4.8274085426225142 $447 -1.8274085426225142 $301 $448 forward 7 unknown #
coedge $-1 $184 $183 $300 $444 forward $72 $-1 #
coedge $-1 $449 $301 $183 $305 forward $437 $-1 #
edge $-1 $447 21.186385006874552 $310 28.296209829805811 $304 $450 forward 7 unknown #
edge $-1 $311 -28.296209829805811 $451 -21.186385006874552 $298 $452 forward 7 unknown #
coedge $-1 $453 $185 $441 $454 forward $309 $-1 #
coedge $-1 $185 $453 $449 $455 reversed $309 $-1 #
loop $-1 $-1 $185 $436 #
vertex $-1 $455 $456 #
vertex $-1 $454 $457 #
straight-curve $-1 53.037507248145999 0 -5.1548170852450284 0 -1 0 I I #
face $-1 $-1 $458 $42 $-1 $459 forward single #
loop $-1 $-1 $193 $187 #
plane-surface $-1 0 32.358755032542213 0 0 -1 0 0 0 -1 forward_v I I I I #
coedge $-1 $460 $461 $462 $463 reversed $188 $-1 #
coedge $-1 $464 $190 $192 $323 forward $117 $-1 #
coedge $-1 $190 $464 $460 $465 forward $117 $-1 #
coedge $-1 $462 $193 $190 $320 forward $314 $-1 #
edge $-1 $326 10.343045036069636 $466 24.168585180295022 $319 $467 forward 7 unknown #
coedge $-1 $468 $469 $191 $322 forward $458 $-1 #
edge $-1 $470 -5.520168438541333 $325 -0.54118259357638721 $321 $471 forward 7 unknown #
edge $-1 $326 -64.71751006508444 $470 -57.416926660145464 $192 $472 forward 7 unknown #
coedge $-1 $193 $462 $468 $473 reversed $314 $-1 #
vertex $-1 $473 $474 #
vertex $-1 $194 $475 #
straight-curve $-1 -27.598860144251965 32.358755032542213 61.244942199116217 0 0 -1 I I #
coedge $-1 $328 $328 $-1 $476 reversed $197 $-1 #
edge $-1 $477 0 $477 6.2831853071796004 $198 $478 forward 7 unknown #
vertex $-1 $201 $479 #
ellipse-curve $-1 -38.659292259632274 29.869262110059736 5.4851627064860038 0 0.73135370988377701 0.68199835119979291 1 0 0 1 I I #
coedge $-1 $332 $332 $-1 $480 reversed $204 $-1 #
edge $-1 $481 0 $481 6.2831853071796004 $205 $482 forward 7 unknown #
vertex $-1 $208 $483 #
ellipse-curve $-1 -34.511630216364658 29.869262110059736 5.4851627064860038 0 0.73135370988377701 0.68199835119979291 1 0 0 1 I I #
coedge $-1 $336 $336 $-1 $484 reversed $211 $-1 #
edge $-1 $485 0 $485 6.2831853071796004 $212 $486 forward 7 unknown #
vertex $-1 $215 $487 #
ellipse-curve $-1 -30.363968173097042 29.869262110059736 5.4851627064860038 0 0.73135370988377701 0.68199835119979291 1 0 0 1 I I #
face $-1 $-1 $352 $46 $-1 $488 reversed single #
loop $-1 $-1 $489 $216 #
plane-surface $-1 0 0 8.1548170852450284 0 0 1 1 0 0 forward_v I I I I #
coedge $-1 $490 $491 $492 $493 reversed $217 $-1 #
coedge $-1 $494 $219 $221 $350 forward $136 $-1 #
coedge $-1 $219 $494 $490 $495 forward $136 $-1 #
coedge $-1 $492 $222 $219 $347 forward $352 $-1 #
edge $-1 $354 -9.5953422697981061 $496 3.1984474232660354 $346 $497 forward 7 unknown #
coedge $-1 $498 $499 $220 $349 forward $341 $-1 #
edge $-1 $500 -28.787478121720937 $353 -22.609800172648185 $348 $501 forward 7 unknown #
edge $-1 $354 1.0367256691888158e-014 $500 9.0582007100234101 $221 $502 forward 7 unknown #
coedge $-1 $222 $492 $498 $503 reversed $352 $-1 #
loop $-1 $-1 $492 $340 #
vertex $-1 $503 $504 #
vertex $-1 $223 $505 #
straight-curve $-1 -12.793789693064141 -32.358755032542213 36.936526690531409 0 0 -1 I I #
coedge $-1 $356 $356 $-1 $506 reversed $226 $-1 #
edge $-1 $507 0 $507 6.2831853071796004 $227 $508 forward 7 unknown #
vertex $-1 $230 $509 #
ellipse-curve $-1 -9.1384212093315327 -29.269916058005837 4.8424427381712896 0 -0.73135370988377701 0.68199835119979291 1.5 0 0 1 I I #
coedge $-1 $360 $360 $-1 $510 reversed $233 $-1 #
edge $-1 $511 0 $511 6.2831853071796004 $234 $512 forward 7 unknown #
vertex $-1 $237 $513 #
ellipse-curve $-1 -3.6553684837326159 -29.269916058005837 4.8424427381712896 0 -0.73135370988377701 0.68199835119979291 1.5 0 0 1 I I #
face $-1 $-1 $514 $49 $-1 $515 forward single #
loop $-1 $-1 $244 $238 #
plane-surface $-1 0 -32.358755032542213 0 0 1 0 0 0 1 forward_v I I I I #
coedge $-1 $516 $517 $518 $519 reversed $239 $-1 #
coedge $-1 $520 $241 $243 $374 forward $150 $-1 #
coedge $-1 $241 $520 $516 $521 forward $150 $-1 #
coedge $-1 $518 $244 $241 $371 forward $365 $-1 #
edge $-1 $377 13.368498942809261 $522 26.162288635873402 $370 $523 forward 7 unknown #
coedge $-1 $524 $525 $242 $373 forward $514 $-1 #
edge $-1 $526 -28.787478121720937 $376 -22.609800172648185 $372 $527 forward 7 unknown #
edge $-1 $377 1.0367256691888158e-014 $526 9.0582007100234101 $243 $528 forward 7 unknown #
coedge $-1 $244 $518 $524 $529 reversed $365 $-1 #
vertex $-1 $529 $530 #
vertex $-1 $245 $531 #
straight-curve $-1 33.133892732150592 -32.358755032542213 36.936526690531409 0 0 -1 I I #
coedge $-1 $379 $379 $-1 $532 reversed $248 $-1 #
edge $-1 $533 0 $533 6.2831853071796004 $249 $534 forward 7 unknown #
vertex $-1 $252 $535 #
ellipse-curve $-1 36.789261215883215 -29.269916058005837 4.8424427381712896 0 -0.73135370988377701 0.68199835119979291 1.5 0 0 1 I I #
coedge $-1 $383 $383 $-1 $536 reversed $255 $-1 #
edge $-1 $537 0 $537 6.2831853071796004 $256 $538 forward 7 unknown #
vertex $-1 $259 $539 #
ellipse-curve $-1 42.272313941482125 -29.269916058005837 4.8424427381712896 0 -0.73135370988377701 0.68199835119979291 1.5 0 0 1 I I #
face $-1 $-1 $275 $39 $-1 $540 reversed single #
loop $-1 $-1 $403 $260 #
plane-surface $-1 0 32.358755032542213 0 0 -1 0 0 0 -1 forward_v I I I I #
coedge $-1 $541 $401 $404 $542 forward $261 $-1 #
coedge $-1 $407 $263 $264 $395 reversed $164 $-1 #
coedge $-1 $401 $541 $263 $393 reversed $261 $-1 #
edge $-1 $408 -8.1548170852450284 $543 8.1548170852450284 $392 $544 forward 7 unknown #
coedge $-1 $265 $264 $541 $545 forward $105 $-1 #
edge $-1 $399 -53.037507248145999 $543 53.037507248145999 $391 $546 forward 7 unknown #
coedge $-1 $404 $403 $265 $397 reversed $388 $-1 #
edge $-1 $547 -53.037507248145999 $398 53.037507248145999 $396 $548 forward 7 unknown #
vertex $-1 $267 $549 #
vertex $-1 $410 $550 #
straight-curve $-1 53.037507248145999 0 -8.1548170852450284 0 -1 0 I I #
coedge $-1 $390 $392 $268 $402 reversed $261 $-1 #
edge $-1 $405 -32.358755032542213 $408 32.358755032542213 $401 $551 forward 7 unknown #
coedge $-1 $396 $269 $274 $411 forward $388 $-1 #
coedge $-1 $269 $396 $390 $542 reversed $388 $-1 #
vertex $-1 $270 $552 #
straight-curve $-1 0 32.358755032542213 8.1548170852450284 -1 0 0 I I #
coedge $-1 $271 $391 $273 $410 reversed $164 $-1 #
vertex $-1 $402 $553 #
straight-curve $-1 0 -32.358755032542213 8.1548170852450284 1 0 0 I I #
edge $-1 $276 -8.1548170852450284 $399 8.1548170852450284 $273 $554 forward 7 unknown #
edge $-1 $277 -8.1548170852450284 $398 8.1548170852450284 $274 $555 forward 7 unknown #
point $-1 53.037507248145999 -32.358755032542213 8.1548170852450284 #
point $-1 53.037507248145999 32.358755032542213 8.1548170852450284 #
face $-1 $-1 $427 $40 $-1 $556 reversed single #
loop $-1 $-1 $423 $279 #
plane-surface $-1 -53.037507248145999 0 0 1 0 0 0 0 -1 forward_v I I I I #
coedge $-1 $557 $282 $420 $558 forward $172 $-1 #
coedge $-1 $282 $557 $559 $560 forward $172 $-1 #
edge $-1 $561 -32.358755032542213 $421 32.358755032542213 $282 $562 forward 7 unknown #
coedge $-1 $284 $430 $417 $558 reversed $280 $-1 #
vertex $-1 $558 $563 #
straight-curve $-1 -45.927682425214741 -32.358755032542213 -3.3274085426225142 0 0 1 I I #
coedge $-1 $564 $565 $286 $424 forward $415 $-1 #
edge $-1 $431 -32.358755032542213 $428 32.358755032542213 $423 $566 forward 7 unknown #
coedge $-1 $559 $287 $291 $433 forward $427 $-1 #
coedge $-1 $287 $559 $564 $567 reversed $427 $-1 #
loop $-1 $-1 $425 $414 #
vertex $-1 $567 $568 #
straight-curve $-1 -24.741297418340185 32.358755032542213 -5.1548170852450284 1 0 0 I I #
coedge $-1 $420 $289 $565 $569 forward $280 $-1 #
vertex $-1 $569 $570 #
straight-curve $-1 -24.741297418340185 -32.358755032542213 -5.1548170852450284 -1 0 0 I I #
edge $-1 $293 1.8274085426225142 $561 4.8274085426225142 $425 $571 forward 7 unknown #
point $-1 -45.927682425214741 -32.358755032542213 -5.1548170852450284 #
point $-1 -45.927682425214741 32.358755032542213 -5.1548170852450284 #
face $-1 $-1 $309 $41 $-1 $572 reversed single #
loop $-1 $-1 $304 $295 #
plane-surface $-1 0 32.358755032542213 0 0 -1 0 0 0 -1 forward_v I I I I #
coedge $-1 $573 $574 $299 $443 forward $296 $-1 #
coedge $-1 $575 $298 $442 $576 forward $180 $-1 #
coedge $-1 $298 $575 $307 $454 reversed $180 $-1 #
coedge $-1 $300 $299 $440 $576 reversed $113 $-1 #
edge $-1 $577 -32.358755032542213 $446 32.358755032542213 $439 $578 forward 7 unknown #
edge $-1 $447 -32.358755032542213 $451 32.358755032542213 $300 $579 forward 7 unknown #
coedge $-1 $301 $449 $573 $580 reversed $437 $-1 #
vertex $-1 $580 $581 #
vertex $-1 $305 $582 #
straight-curve $-1 45.927682425214734 32.358755032542213 -3.3274085426225142 0 0 1 I I #
coedge $-1 $445 $304 $308 $455 forward $437 $-1 #
straight-curve $-1 24.741297418340181 32.358755032542213 -5.1548170852450284 1 0 0 I I #
vertex $-1 $306 $583 #
straight-curve $-1 24.741297418340181 -32.358755032542213 -5.1548170852450284 -1 0 0 I I #
coedge $-1 $308 $307 $584 $585 reversed $309 $-1 #
edge $-1 $311 5.1548170852450284 $586 8.1548170852450284 $307 $587 forward 7 unknown #
edge $-1 $310 5.1548170852450284 $588 8.1548170852450284 $308 $589 forward 7 unknown #
point $-1 53.037507248145992 32.358755032542213 -5.1548170852450284 #
point $-1 53.037507248145992 -32.358755032542213 -5.1548170852450284 #
loop $-1 $-1 $321 $313 #
plane-surface $-1 0 0 8.1548170852450284 0 0 1 1 0 0 forward_v I I I I #
coedge $-1 $461 $316 $318 $465 reversed $188 $-1 #
coedge $-1 $316 $460 $590 $591 reversed $188 $-1 #
coedge $-1 $324 $319 $316 $463 forward $314 $-1 #
edge $-1 $466 -58.429433871389243 $592 -53.090125113871188 $462 $593 forward 7 unknown #
coedge $-1 $318 $317 $469 $594 reversed $117 $-1 #
edge $-1 $595 57.416926660145464 $466 64.71751006508444 $460 $596 forward 7 unknown #
vertex $-1 $320 $597 #
straight-curve $-1 -17.255815108182329 32.358755032542213 2.8155083277269739 -1 0 0 I I #
coedge $-1 $590 $321 $324 $473 forward $458 $-1 #
coedge $-1 $321 $590 $464 $594 forward $458 $-1 #
vertex $-1 $322 $598 #
straight-curve $-1 -27.598860144251965 32.8999376261186 8.1548170852450284 0 1 0 I I #
straight-curve $-1 -27.598860144251965 -11.778480125601376 50.14689940826716 0 -0.68199835119979291 0.73135370988377701 I I #
edge $-1 $325 27.598860144251965 $592 41.424400288477351 $324 $599 forward 7 unknown #
point $-1 -27.598860144251965 32.358755032542213 8.1548170852450284 #
point $-1 -27.598860144251965 32.358755032542213 2.8155083277269739 #
edge $-1 $600 1 $600 0 $328 $-1 forward 7 unknown #
vertex $-1 $329 $601 #
ellipse-curve $-1 -38.659292259632274 28.423986473715118 4.1374214047116515 0 0.73135370988377701 0.68199835119979291 1 0 0 1 I I #
point $-1 -37.659292259632274 29.86926211005974 5.4851627064860038 #
edge $-1 $602 1 $602 0 $332 $-1 forward 7 unknown #
vertex $-1 $333 $603 #
ellipse-curve $-1 -34.511630216364658 28.423986473715118 4.1374214047116515 0 0.73135370988377701 0.68199835119979291 1 0 0 1 I I #
point $-1 -33.511630216364658 29.86926211005974 5.4851627064860038 #
edge $-1 $604 1 $604 0 $336 $-1 forward 7 unknown #
vertex $-1 $337 $605 #
ellipse-curve $-1 -30.363968173097042 28.423986473715118 4.1374214047116515 0 0.73135370988377701 0.68199835119979291 1 0 0 1 I I #
point $-1 -29.363968173097042 29.86926211005974 5.4851627064860038 #
plane-surface $-1 0 -32.358755032542213 0 0 1 0 0 0 1 forward_v I I I I #
coedge $-1 $499 $498 $491 $606 forward $341 $-1 #
coedge $-1 $491 $343 $345 $495 reversed $217 $-1 #
coedge $-1 $343 $490 $489 $606 reversed $217 $-1 #
coedge $-1 $351 $346 $343 $493 forward $352 $-1 #
edge $-1 $496 -35.406458299433858 $607 -28.78170960528638 $492 $608 forward 7 unknown #
coedge $-1 $345 $344 $499 $609 reversed $136 $-1 #
edge $-1 $610 -9.0582007100234101 $496 -1.0367256691888158e-014 $490 $611 forward 7 unknown #
vertex $-1 $347 $612 #
straight-curve $-1 -3.1984474232660354 -32.358755032542213 1.5300683910975512 1 0 0 I I #
coedge $-1 $489 $348 $351 $503 forward $341 $-1 #
coedge $-1 $348 $489 $494 $609 forward $341 $-1 #
vertex $-1 $349 $613 #
straight-curve $-1 -12.793789693064141 -54.968555205190398 8.1548170852450284 0 -1 0 I I #
straight-curve $-1 -12.793789693064141 -32.35875503254222 1.5300683910975437 0 0.68199835119979291 0.73135370988377701 I I #
edge $-1 $353 -12.793789693064141 $607 0 $351 $614 forward 7 unknown #
point $-1 -12.793789693064141 -32.358755032542213 8.1548170852450284 #
point $-1 -12.793789693064141 -32.358755032542213 1.5300683910975512 #
edge $-1 $615 1 $615 0 $356 $-1 forward 7 unknown #
vertex $-1 $357 $616 #
ellipse-curve $-1 -9.1384212093315327 -27.758372860863918 3.4329059377332727 0 -0.73135370988377701 0.68199835119979291 1.5 0 0 1 I I #
point $-1 -7.6384212093315327 -29.269916058005833 4.8424427381712851 #
edge $-1 $617 1 $617 0 $360 $-1 forward 7 unknown #
vertex $-1 $361 $618 #
ellipse-curve $-1 -3.6553684837326159 -27.758372860863918 3.4329059377332727 0 -0.73135370988377701 0.68199835119979291 1.5 0 0 1 I I #
point $-1 -2.1553684837326159 -29.269916058005833 4.8424427381712851 #
loop $-1 $-1 $372 $364 #
plane-surface $-1 0 0 8.1548170852450284 0 0 1 1 0 0 forward_v I I I I #
coedge $-1 $517 $367 $369 $521 reversed $239 $-1 #
coedge $-1 $367 $516 $619 $620 reversed $239 $-1 #
coedge $-1 $375 $370 $367 $519 forward $365 $-1 #
edge $-1 $522 -35.406458299433858 $621 -28.78170960528638 $518 $622 forward 7 unknown #
coedge $-1 $369 $368 $525 $623 reversed $150 $-1 #
edge $-1 $624 -9.0582007100234101 $522 -1.0367256691888158e-014 $516 $625 forward 7 unknown #
vertex $-1 $371 $626 #
straight-curve $-1 19.765393789341331 -32.358755032542213 1.5300683910975512 1 0 0 I I #
coedge $-1 $619 $372 $375 $529 forward $514 $-1 #
coedge $-1 $372 $619 $520 $623 forward $514 $-1 #
vertex $-1 $373 $627 #
straight-curve $-1 33.133892732150592 -54.968555205190398 8.1548170852450284 0 -1 0 I I #
straight-curve $-1 33.133892732150592 -32.35875503254222 1.5300683910975437 0 0.68199835119979291 0.73135370988377701 I I #
edge $-1 $376 33.133892732150592 $621 45.927682425214734 $375 $628 forward 7 unknown #
point $-1 33.133892732150592 -32.358755032542213 8.1548170852450284 #
point $-1 33.133892732150592 -32.358755032542213 1.5300683910975512 #
edge $-1 $629 1 $629 0 $379 $-1 forward 7 unknown #
vertex $-1 $380 $630 #
ellipse-curve $-1 36.789261215883215 -27.758372860863918 3.4329059377332727 0 -0.73135370988377701 0.68199835119979291 1.5 0 0 1 I I #
point $-1 38.289261215883215 -29.269916058005833 4.8424427381712851 #
edge $-1 $631 1 $631 0 $383 $-1 forward 7 unknown #
vertex $-1 $384 $632 #
ellipse-curve $-1 42.272313941482125 -27.758372860863918 3.4329059377332727 0 -0.73135370988377701 0.68199835119979291 1.5 0 0 1 I I #
point $-1 43.772313941482125 -29.269916058005833 4.8424427381712851 #
plane-surface $-1 53.037507248145999 0 0 -1 0 0 0 0 1 forward_v I I I I #
coedge $-1 $392 $390 $394 $545 reversed $261 $-1 #
edge $-1 $405 -8.1548170852450284 $547 8.1548170852450284 $404 $633 forward 7 unknown #
vertex $-1 $545 $634 #
straight-curve $-1 -53.037507248145999 -32.358755032542213 0 0 0 -1 I I #
edge $-1 $543 -32.358755032542213 $547 32.358755032542213 $541 $635 forward 7 unknown #
straight-curve $-1 0 -32.358755032542213 -8.1548170852450284 -1 0 0 I I #
vertex $-1 $397 $636 #
straight-curve $-1 0 32.358755032542213 -8.1548170852450284 1 0 0 I I #
point $-1 53.037507248145999 32.358755032542213 -8.1548170852450284 #
point $-1 53.037507248145999 -32.358755032542213 -8.1548170852450284 #
straight-curve $-1 -53.037507248145999 0 8.1548170852450284 0 -1 0 I I #
point $-1 -53.037507248145999 32.358755032542213 8.1548170852450284 #
point $-1 -53.037507248145999 -32.358755032542213 8.1548170852450284 #
straight-curve $-1 53.037507248145999 -32.358755032542213 0 0 0 -1 I I #
straight-curve $-1 53.037507248145999 32.358755032542213 0 0 0 -1 I I #
plane-surface $-1 0 32.358755032542213 0 0 -1 0 0 0 -1 forward_v I I I I #
coedge $-1 $418 $417 $637 $638 forward $172 $-1 #
edge $-1 $421 45.927682425214741 $639 53.037507248145999 $420 $640 forward 7 unknown #
coedge $-1 $426 $425 $418 $560 reversed $427 $-1 #
edge $-1 $641 -53.037507248145999 $561 -45.927682425214741 $559 $642 forward 7 unknown #
vertex $-1 $433 $643 #
straight-curve $-1 -45.927682425214741 0 -8.1548170852450284 0 -1 0 I I #
point $-1 -45.927682425214741 -32.358755032542213 -8.1548170852450284 #
coedge $-1 $637 $423 $426 $567 forward $415 $-1 #
coedge $-1 $423 $637 $430 $569 reversed $415 $-1 #
straight-curve $-1 -53.037507248145999 0 -5.1548170852450284 0 1 0 I I #
edge $-1 $428 5.1548170852450284 $641 8.1548170852450284 $426 $644 forward 7 unknown #
point $-1 -53.037507248145999 32.358755032542213 -5.1548170852450284 #
edge $-1 $431 5.1548170852450284 $639 8.1548170852450284 $565 $645 forward 7 unknown #
point $-1 -53.037507248145999 -32.358755032542213 -5.1548170852450284 #
straight-curve $-1 -45.927682425214741 32.358755032542213 -3.3274085426225142 0 0 -1 I I #
plane-surface $-1 53.037507248145999 0 0 -1 0 0 0 0 1 forward_v I I I I #
coedge $-1 $584 $439 $445 $580 forward $296 $-1 #
coedge $-1 $439 $584 $575 $646 forward $296 $-1 #
coedge $-1 $441 $440 $574 $646 reversed $180 $-1 #
edge $-1 $451 1.8274085426225142 $577 4.8274085426225142 $440 $647 forward 7 unknown #
vertex $-1 $443 $648 #
straight-curve $-1 45.927682425214734 0 -8.1548170852450284 0 1 0 I I #
straight-curve $-1 45.927682425214734 0 -5.1548170852450284 0 -1 0 I I #
edge $-1 $446 45.927682425214734 $588 53.037507248145999 $445 $649 forward 7 unknown #
point $-1 45.927682425214734 32.358755032542213 -8.1548170852450284 #
point $-1 45.927682425214734 32.358755032542213 -5.1548170852450284 #
point $-1 45.927682425214734 -32.358755032542213 -5.1548170852450284 #
coedge $-1 $574 $573 $453 $585 forward $296 $-1 #
edge $-1 $588 -32.358755032542213 $586 32.358755032542213 $453 $650 forward 7 unknown #
vertex $-1 $454 $651 #
straight-curve $-1 53.037507248145999 -32.358755032542213 0 0 0 -1 I I #
vertex $-1 $585 $652 #
straight-curve $-1 53.037507248145999 32.358755032542213 0 0 0 -1 I I #
coedge $-1 $469 $468 $461 $591 forward $458 $-1 #
edge $-1 $592 0.54118259357638721 $595 5.520168438541333 $590 $653 forward 7 unknown #
vertex $-1 $591 $654 #
straight-curve $-1 -41.424400288477351 32.358755032542213 61.244942199116217 0 0 1 I I #
edge $-1 $595 -24.168585180295022 $470 -10.343045036069636 $469 $655 forward 7 unknown #
vertex $-1 $594 $656 #
straight-curve $-1 -41.424400288477351 -11.778480125601376 50.14689940826716 0 0.68199835119979291 -0.73135370988377701 I I #
point $-1 -41.424400288477351 32.358755032542213 2.8155083277269739 #
point $-1 -27.598860144251965 27.379769187577267 8.1548170852450284 #
straight-curve $-1 0 32.358755032542213 8.1548170852450284 -1 0 0 I I #
vertex $-1 $476 $657 #
point $-1 -37.659292259632274 28.423986473715118 4.1374214047116515 #
vertex $-1 $480 $658 #
point $-1 -33.511630216364658 28.423986473715118 4.1374214047116515 #
vertex $-1 $484 $659 #
point $-1 -29.363968173097042 28.423986473715118 4.1374214047116515 #
edge $-1 $607 22.609800172648185 $610 28.787478121720937 $489 $660 forward 7 unknown #
vertex $-1 $493 $661 #
straight-curve $-1 0 -32.358755032542213 36.936526690531409 0 0 1 I I #
edge $-1 $610 -3.1984474232660354 $500 9.5953422697981061 $499 $662 forward 7 unknown #
vertex $-1 $609 $663 #
straight-curve $-1 0 -32.35875503254222 1.5300683910975437 0 -0.68199835119979291 -0.73135370988377701 I I #
point $-1 0 -32.358755032542213 1.5300683910975512 #
point $-1 -12.793789693064141 -26.181077083469461 8.1548170852450284 #
straight-curve $-1 0 -32.358755032542213 8.1548170852450284 1 0 0 I I #
vertex $-1 $506 $664 #
point $-1 -7.6384212093315327 -27.758372860863918 3.4329059377332727 #
vertex $-1 $510 $665 #
point $-1 -2.1553684837326159 -27.758372860863918 3.4329059377332727 #
coedge $-1 $525 $524 $517 $620 forward $514 $-1 #
edge $-1 $621 22.609800172648185 $624 28.787478121720937 $619 $666 forward 7 unknown #
vertex $-1 $620 $667 #
straight-curve $-1 45.927682425214734 -32.358755032542213 36.936526690531409 0 0 1 I I #
edge $-1 $624 -26.162288635873402 $526 -13.368498942809261 $525 $668 forward 7 unknown #
vertex $-1 $623 $669 #
straight-curve $-1 45.927682425214734 -32.35875503254222 1.5300683910975437 0 -0.68199835119979291 -0.73135370988377701 I I #
point $-1 45.927682425214734 -32.358755032542213 1.5300683910975512 #
point $-1 33.133892732150592 -26.181077083469461 8.1548170852450284 #
straight-curve $-1 0 -32.358755032542213 8.1548170852450284 1 0 0 I I #
vertex $-1 $532 $670 #
point $-1 38.289261215883215 -27.758372860863918 3.4329059377332727 #
vertex $-1 $536 $671 #
point $-1 43.772313941482125 -27.758372860863918 3.4329059377332727 #
straight-curve $-1 -53.037507248145999 32.358755032542213 0 0 0 -1 I I #
point $-1 -53.037507248145999 -32.358755032542213 -8.1548170852450284 #
straight-curve $-1 -53.037507248145999 0 -8.1548170852450284 0 1 0 I I #
point $-1 -53.037507248145999 32.358755032542213 -8.1548170852450284 #
coedge $-1 $565 $564 $557 $638 reversed $415 $-1 #
edge $-1 $639 -32.358755032542213 $641 32.358755032542213 $637 $672 forward 7 unknown #
vertex $-1 $638 $673 #
straight-curve $-1 0 -32.358755032542213 -8.1548170852450284 -1 0 0 I I #
vertex $-1 $560 $674 #
straight-curve $-1 0 32.358755032542213 -8.1548170852450284 1 0 0 I I #
point $-1 -45.927682425214741 32.358755032542213 -8.1548170852450284 #
straight-curve $-1 -53.037507248145999 32.358755032542213 0 0 0 -1 I I #
straight-curve $-1 -53.037507248145999 -32.358755032542213 0 0 0 -1 I I #
edge $-1 $586 -53.037507248145999 $577 -45.927682425214734 $575 $675 forward 7 unknown #
straight-curve $-1 45.927682425214734 -32.358755032542213 -3.3274085426225142 0 0 -1 I I #
point $-1 45.927682425214734 -32.358755032542213 -8.1548170852450284 #
straight-curve $-1 0 32.358755032542213 -8.1548170852450284 1 0 0 I I #
straight-curve $-1 53.037507248145999 0 -8.1548170852450284 0 -1 0 I I #
point $-1 53.037507248145999 -32.358755032542213 -8.1548170852450284 #
point $-1 53.037507248145999 32.358755032542213 -8.1548170852450284 #
straight-curve $-1 -41.424400288477351 32.8999376261186 8.1548170852450284 0 -1 0 I I #
point $-1 -41.424400288477351 32.358755032542213 8.1548170852450284 #
straight-curve $-1 -17.255815108182329 27.379769187577267 8.1548170852450284 1 0 0 I I #
point $-1 -41.424400288477351 27.379769187577267 8.1548170852450284 #
point $-1 -38.659292259632274 27.692632763831341 3.4554230535118591 #
point $-1 -34.511630216364658 27.692632763831341 3.4554230535118591 #
point $-1 -30.363968173097042 27.692632763831341 3.4554230535118591 #
straight-curve $-1 0 -54.968555205190398 8.1548170852450284 0 1 0 I I #
point $-1 0 -32.358755032542213 8.1548170852450284 #
straight-curve $-1 -3.1984474232660354 -26.181077083469461 8.1548170852450284 -1 0 0 I I #
point $-1 0 -26.181077083469461 8.1548170852450284 #
point $-1 -9.1384212093315327 -26.661342296038253 2.4099084109335833 #
point $-1 -3.6553684837326159 -26.661342296038253 2.4099084109335833 #
straight-curve $-1 45.927682425214734 -54.968555205190398 8.1548170852450284 0 1 0 I I #
point $-1 45.927682425214734 -32.358755032542213 8.1548170852450284 #
straight-curve $-1 19.765393789341331 -26.181077083469461 8.1548170852450284 -1 0 0 I I #
point $-1 45.927682425214734 -26.181077083469461 8.1548170852450284 #
point $-1 36.789261215883215 -26.661342296038253 2.4099084109335833 #
point $-1 42.272313941482125 -26.661342296038253 2.4099084109335833 #
straight-curve $-1 -53.037507248145999 0 -8.1548170852450284 0 1 0 I I #
point $-1 -53.037507248145999 -32.358755032542213 -8.1548170852450284 #
point $-1 -53.037507248145999 32.358755032542213 -8.1548170852450284 #
straight-curve $-1 0 -32.358755032542213 -8.1548170852450284 -1 0 0 I I #
End-of-ACIS-data 