500 0 4 0           
7 Unknown 11 ACIS 5.0 NT 24 Fri Mar 26 14:42:33 1999 
-1 9.9999999999999995e-007 1e-010 
body $-1 $4 $-1 $5 #
body $-1 $6 $-1 $7 #
body $-1 $8 $-1 $9 #
body $-1 $10 $-1 $11 #
lump $-1 $-1 $12 $0 #
transform $-1 1 0 0 0 1 0 0 0 1 57.022003845332193 35.74773409194659 15.129865434960262 1 rotate no_reflect no_shear #
lump $-1 $-1 $13 $1 #
transform $-1 1 0 0 0 1 0 0 0 1 57.022003845332193 35.74773409194659 15.129865434960262 1 rotate no_reflect no_shear #
lump $-1 $-1 $14 $2 #
transform $-1 1 0 0 0 1 0 0 0 1 57.022003845332193 35.74773409194659 15.129865434960262 1 rotate no_reflect no_shear #
lump $-1 $-1 $15 $3 #
transform $-1 1 0 0 0 1 0 0 0 1 57.022003845332193 35.74773409194659 15.129865434960262 1 rotate no_reflect no_shear #
shell $-1 $-1 $-1 $16 $-1 $4 #
shell $-1 $-1 $-1 $17 $-1 $6 #
shell $-1 $-1 $-1 $18 $-1 $8 #
shell $-1 $-1 $-1 $19 $-1 $10 #
face $-1 $20 $21 $12 $-1 $22 forward single #
face $-1 $23 $24 $13 $-1 $25 forward single #
face $-1 $26 $27 $14 $-1 $28 forward single #
face $-1 $29 $30 $15 $-1 $31 reversed single #
face $-1 $32 $33 $12 $-1 $34 reversed single #
loop $-1 $-1 $35 $16 #
plane-surface $-1 0 0 15.129865434960262 0 0 1 1 0 0 forward_v I I I I #
face $-1 $36 $37 $13 $-1 $38 forward single #
loop $-1 $-1 $39 $17 #
plane-surface $-1 -53.308175277568012 -17.141892083083555 0 0 -1 0 0 0 -1 forward_v I I I I #
face $-1 $40 $41 $14 $-1 $42 forward single #
loop $-1 $-1 $43 $18 #
plane-surface $-1 -27.834575856969494 77.154113008158049 133.40359970251026 -1 0 0 0 0.7660444514056185 0.64278759981090561 forward_v I I I I #
face $-1 $44 $45 $15 $-1 $46 reversed single #
loop $-1 $47 $48 $19 #
cone-surface $-1 -42.428289851150844 28.602312865154119 7.6840224085767082 0 -0.7660444514056185 -0.64278759981090561 2.5 0 0 1 I I 0 1 2.5 forward I I I I #
face $-1 $49 $50 $12 $-1 $51 reversed single #
loop $-1 $-1 $52 $20 #
plane-surface $-1 0 0 -15.129865434960262 0 0 1 1 0 0 forward_v I I I I #
coedge $-1 $53 $54 $55 $56 forward $21 $-1 #
face $-1 $57 $58 $13 $-1 $59 forward single #
loop $-1 $-1 $60 $23 #
plane-surface $-1 -49.59434670980383 -26.444813087515072 0 -1 0 0 0 0 1 forward_v I I I I #
coedge $-1 $61 $62 $63 $64 reversed $24 $-1 #
face $-1 $65 $66 $14 $-1 $67 reversed single #
loop $-1 $-1 $68 $26 #
plane-surface $-1 -42.428289851150844 -10.208666299335093 60.097525726211643 0 0.7660444514056185 0.64278759981090561 1 0 0 forward_v I I I I #
coedge $-1 $69 $70 $71 $72 reversed $27 $-1 #
face $-1 $73 $74 $15 $-1 $75 forward single #
loop $-1 $76 $77 $29 #
cone-surface $-1 -42.428289851150844 24.611363181037383 4.3352180882629874 0 -0.7660444514056185 -0.64278759981090561 1.25 0 0 1 I I -0.70710678118654746 0.70710678118654746 1.25 forward I I I I #
loop $-1 $-1 $78 $19 #
coedge $-1 $48 $48 $79 $80 reversed $30 $-1 #
face $-1 $81 $82 $12 $-1 $83 reversed single #
loop $-1 $-1 $84 $32 #
plane-surface $-1 0 -35.74773409194659 0 0 1 0 0 0 1 forward_v I I I I #
coedge $-1 $85 $86 $87 $88 forward $33 $-1 #
coedge $-1 $89 $35 $90 $91 forward $21 $-1 #
coedge $-1 $35 $89 $92 $93 forward $21 $-1 #
coedge $-1 $94 $95 $35 $56 reversed $96 $-1 #
edge $-1 $97 -35.74773409194659 $98 35.74773409194659 $55 $99 forward 7 unknown #
face $-1 $100 $101 $13 $-1 $102 reversed single #
loop $-1 $-1 $103 $36 #
plane-surface $-1 0 0 15.129865434960262 0 0 1 1 0 0 forward_v I I I I #
coedge $-1 $104 $105 $106 $107 reversed $37 $-1 #
coedge $-1 $108 $39 $103 $109 reversed $24 $-1 #
coedge $-1 $39 $108 $110 $111 reversed $24 $-1 #
coedge $-1 $105 $104 $39 $64 forward $37 $-1 #
edge $-1 $112 -15.129865434960262 $113 15.129865434960262 $63 $114 forward 7 unknown #
face $-1 $115 $116 $14 $-1 $117 forward single #
loop $-1 $-1 $118 $40 #
plane-surface $-1 0 35.74773409194659 0 0 -1 0 0 0 -1 forward_v I I I I #
coedge $-1 $119 $120 $118 $121 reversed $41 $-1 #
coedge $-1 $70 $43 $120 $122 forward $27 $-1 #
coedge $-1 $43 $69 $123 $124 reversed $27 $-1 #
coedge $-1 $125 $118 $43 $72 forward $66 $-1 #
edge $-1 $126 -61.372980827961811 $127 -51.571934416294866 $71 $128 forward 7 unknown #
face $-1 $129 $130 $15 $-1 $131 forward single #
loop $-1 $-1 $132 $44 #
plane-surface $-1 -27.834575856969494 77.154113008158049 133.40359970251026 -1 0 0 0 0.7660444514056185 0.64278759981090561 forward_v I I I I #
loop $-1 $-1 $133 $29 #
coedge $-1 $77 $77 $78 $134 forward $45 $-1 #
coedge $-1 $78 $78 $77 $134 reversed $47 $-1 #
coedge $-1 $79 $79 $48 $80 forward $130 $-1 #
edge $-1 $135 -1.9399027808245752e-016 $135 6.2831853071796004 $79 $136 forward 7 unknown #
face $-1 $137 $138 $12 $-1 $139 reversed single #
loop $-1 $-1 $140 $49 #
plane-surface $-1 -57.022003845332193 0 0 1 0 0 0 0 -1 forward_v I I I I #
coedge $-1 $141 $92 $142 $143 forward $50 $-1 #
coedge $-1 $144 $52 $141 $145 forward $33 $-1 #
coedge $-1 $52 $144 $146 $147 forward $33 $-1 #
coedge $-1 $95 $94 $52 $88 reversed $96 $-1 #
edge $-1 $148 -35.74773409194659 $149 35.74773409194659 $87 $150 forward 7 unknown #
coedge $-1 $54 $53 $151 $152 forward $21 $-1 #
coedge $-1 $153 $154 $53 $91 reversed $138 $-1 #
edge $-1 $98 -57.022003845332193 $155 57.022003845332193 $90 $156 forward 7 unknown #
coedge $-1 $84 $157 $54 $93 reversed $50 $-1 #
edge $-1 $158 -57.022003845332193 $97 57.022003845332193 $92 $159 forward 7 unknown #
coedge $-1 $87 $55 $157 $160 forward $96 $-1 #
coedge $-1 $55 $87 $153 $161 reversed $96 $-1 #
loop $-1 $-1 $94 $137 #
vertex $-1 $56 $162 #
vertex $-1 $56 $163 #
straight-curve $-1 57.022003845332193 0 15.129865434960262 0 1 0 I I #
face $-1 $164 $165 $13 $-1 $166 reversed single #
loop $-1 $-1 $106 $57 #
plane-surface $-1 0 -35.74773409194659 0 0 1 0 0 0 1 forward_v I I I I #
coedge $-1 $167 $168 $61 $109 forward $58 $-1 #
coedge $-1 $63 $60 $167 $169 reversed $37 $-1 #
coedge $-1 $60 $63 $170 $171 reversed $37 $-1 #
coedge $-1 $172 $173 $60 $107 forward $101 $-1 #
edge $-1 $174 -15.129865434960262 $175 15.129865434960262 $106 $176 forward 7 unknown #
coedge $-1 $62 $61 $177 $178 reversed $24 $-1 #
edge $-1 $179 -30.367916206548188 $112 -22.940259071019824 $103 $180 forward 7 unknown #
coedge $-1 $181 $170 $62 $111 forward $165 $-1 #
edge $-1 $113 22.940259071019824 $182 30.367916206548188 $110 $183 forward 7 unknown #
vertex $-1 $109 $184 #
vertex $-1 $111 $185 #
straight-curve $-1 -49.59434670980383 -17.141892083083555 0 0 0 -1 I I #
face $-1 $186 $187 $14 $-1 $188 forward single #
loop $-1 $-1 $123 $65 #
plane-surface $-1 0 0 15.129865434960262 0 0 1 1 0 0 forward_v I I I I #
coedge $-1 $71 $189 $68 $121 forward $66 $-1 #
coedge $-1 $190 $68 $191 $192 reversed $41 $-1 #
coedge $-1 $68 $190 $69 $122 reversed $41 $-1 #
edge $-1 $193 -35.807858919756768 $126 -6.6204309313940719 $118 $194 forward 7 unknown #
edge $-1 $126 -71.495468183893223 $195 -58.701110893421422 $69 $196 forward 7 unknown #
coedge $-1 $197 $198 $70 $124 forward $116 $-1 #
edge $-1 $127 2.8293224121324343 $195 11.053376625997963 $123 $199 forward 7 unknown #
coedge $-1 $200 $71 $198 $201 reversed $66 $-1 #
vertex $-1 $121 $202 #
vertex $-1 $124 $203 #
straight-curve $-1 -27.834575856969494 35.74773409194659 66.701799851255132 0 0 1 I I #
face $-1 $204 $205 $15 $-1 $206 reversed single #
loop $-1 $207 $79 $73 #
plane-surface $-1 -42.428289851150844 -10.208666299335093 60.097525726211643 0 0.7660444514056185 0.64278759981090561 1 0 0 forward_v I I I I #
coedge $-1 $208 $209 $210 $211 reversed $74 $-1 #
coedge $-1 $133 $133 $-1 $212 forward $76 $-1 #
edge $-1 $213 0 $213 6.2831853071796004 $77 $214 forward 7 unknown #
vertex $-1 $80 $215 #
ellipse-curve $-1 -42.428289851150844 31.635706985013826 10.229342229126791 0 -0.7660444514056185 -0.64278759981090561 2.5 0 0 1 I I #
face $-1 $-1 $96 $12 $-1 $216 reversed single #
loop $-1 $-1 $153 $81 #
plane-surface $-1 0 35.74773409194659 0 0 -1 0 0 0 -1 forward_v I I I I #
coedge $-1 $217 $151 $154 $218 forward $82 $-1 #
coedge $-1 $157 $84 $85 $145 reversed $50 $-1 #
coedge $-1 $151 $217 $84 $143 reversed $82 $-1 #
edge $-1 $158 -15.129865434960262 $219 15.129865434960262 $142 $220 forward 7 unknown #
coedge $-1 $86 $85 $217 $221 forward $33 $-1 #
edge $-1 $149 -57.022003845332193 $219 57.022003845332193 $141 $222 forward 7 unknown #
coedge $-1 $154 $153 $86 $147 reversed $138 $-1 #
edge $-1 $223 -57.022003845332193 $148 57.022003845332193 $146 $224 forward 7 unknown #
vertex $-1 $88 $225 #
vertex $-1 $160 $226 #
straight-curve $-1 57.022003845332193 0 -15.129865434960262 0 -1 0 I I #
coedge $-1 $140 $142 $89 $152 reversed $82 $-1 #
edge $-1 $155 -35.74773409194659 $158 35.74773409194659 $151 $227 forward 7 unknown #
coedge $-1 $146 $90 $95 $161 forward $138 $-1 #
coedge $-1 $90 $146 $140 $218 reversed $138 $-1 #
vertex $-1 $91 $228 #
straight-curve $-1 0 35.74773409194659 15.129865434960262 -1 0 0 I I #
coedge $-1 $92 $141 $94 $160 reversed $50 $-1 #
vertex $-1 $152 $229 #
straight-curve $-1 0 -35.74773409194659 15.129865434960262 1 0 0 I I #
edge $-1 $97 -15.129865434960262 $149 15.129865434960262 $94 $230 forward 7 unknown #
edge $-1 $98 -15.129865434960262 $148 15.129865434960262 $95 $231 forward 7 unknown #
point $-1 57.022003845332193 -35.74773409194659 15.129865434960262 #
point $-1 57.022003845332193 35.74773409194659 15.129865434960262 #
face $-1 $232 $233 $13 $-1 $234 reversed single #
loop $-1 $-1 $110 $100 #
plane-surface $-1 0 0 -15.129865434960262 0 0 1 1 0 0 forward_v I I I I #
coedge $-1 $235 $103 $104 $169 forward $58 $-1 #
coedge $-1 $103 $236 $237 $238 forward $58 $-1 #
edge $-1 $112 3.9194855393260184 $174 22.525327548189054 $167 $239 forward 7 unknown #
coedge $-1 $110 $240 $105 $171 forward $165 $-1 #
edge $-1 $175 -22.525327548189054 $113 -3.9194855393260184 $170 $241 forward 7 unknown #
coedge $-1 $242 $106 $240 $243 reversed $101 $-1 #
coedge $-1 $106 $242 $235 $244 reversed $101 $-1 #
vertex $-1 $244 $245 #
vertex $-1 $107 $246 #
straight-curve $-1 -49.59434670980383 -35.74773409194659 0 0 0 -1 I I #
coedge $-1 $237 $247 $108 $178 forward $233 $-1 #
edge $-1 $182 -15.129865434960262 $179 15.129865434960262 $177 $248 forward 7 unknown #
vertex $-1 $178 $249 #
straight-curve $-1 -26.654087638784006 -17.141892083083555 15.129865434960262 1 0 0 I I #
coedge $-1 $250 $110 $247 $251 forward $165 $-1 #
vertex $-1 $251 $252 #
straight-curve $-1 -26.654087638784006 -17.141892083083555 -15.129865434960262 -1 0 0 I I #
point $-1 -49.59434670980383 -17.141892083083555 15.129865434960262 #
point $-1 -49.59434670980383 -17.141892083083555 -15.129865434960262 #
face $-1 $253 $254 $14 $-1 $255 forward single #
loop $-1 $-1 $256 $115 #
plane-surface $-1 -53.308175277568012 -17.141892083083555 0 0 -1 0 0 0 -1 forward_v I I I I #
coedge $-1 $118 $257 $258 $259 reversed $66 $-1 #
coedge $-1 $120 $119 $197 $260 reversed $41 $-1 #
coedge $-1 $258 $261 $119 $192 forward $262 $-1 #
edge $-1 $263 32.401420776625947 $193 45.195778067097741 $191 $264 forward 7 unknown #
vertex $-1 $259 $265 #
straight-curve $-1 -21.214144925575422 35.74773409194659 5.3288190232933239 1 0 0 I I #
vertex $-1 $260 $266 #
straight-curve $-1 -27.834575856969494 -10.208666299335093 60.097525726211643 0 -0.64278759981090561 0.7660444514056185 I I #
coedge $-1 $267 $123 $190 $260 forward $116 $-1 #
coedge $-1 $123 $268 $125 $201 forward $116 $-1 #
straight-curve $-1 -27.834575856969494 38.577056504079025 15.129865434960266 0 -1 0 I I #
coedge $-1 $257 $125 $269 $270 forward $66 $-1 #
edge $-1 $271 -57.022003845332193 $127 27.834575856969494 $125 $272 forward 7 unknown #
point $-1 -27.834575856969494 35.74773409194659 5.3288190232933204 #
point $-1 -27.834575856969494 35.74773409194659 15.129865434960262 #
face $-1 $273 $274 $15 $-1 $275 forward single #
loop $-1 $-1 $276 $129 #
plane-surface $-1 0 35.74773409194659 0 0 -1 0 0 0 -1 forward_v I I I I #
loop $-1 $-1 $277 $73 #
coedge $-1 $209 $132 $278 $279 forward $74 $-1 #
coedge $-1 $132 $208 $280 $281 reversed $74 $-1 #
coedge $-1 $282 $276 $132 $211 forward $205 $-1 #
edge $-1 $283 -61.372980827961811 $284 -51.571934416294866 $210 $285 forward 7 unknown #
edge $-1 $286 1 $286 0 $133 $-1 forward 7 unknown #
vertex $-1 $134 $287 #
ellipse-curve $-1 -42.428289851150844 25.568918745294408 5.1387025880266197 0 0.7660444514056185 0.64278759981090561 2.5 0 0 1 I I #
point $-1 -39.928289851150844 31.635706985013833 10.229342229126797 #
plane-surface $-1 57.022003845332193 0 0 -1 0 0 0 0 1 forward_v I I I I #
coedge $-1 $142 $140 $144 $221 reversed $82 $-1 #
edge $-1 $155 -15.129865434960262 $223 15.129865434960262 $154 $288 forward 7 unknown #
vertex $-1 $221 $289 #
straight-curve $-1 -57.022003845332193 -35.74773409194659 0 0 0 -1 I I #
edge $-1 $219 -35.74773409194659 $223 35.74773409194659 $217 $290 forward 7 unknown #
straight-curve $-1 0 -35.74773409194659 -15.129865434960262 -1 0 0 I I #
vertex $-1 $147 $291 #
straight-curve $-1 0 35.74773409194659 -15.129865434960262 1 0 0 I I #
point $-1 57.022003845332193 35.74773409194659 -15.129865434960262 #
point $-1 57.022003845332193 -35.74773409194659 -15.129865434960262 #
straight-curve $-1 -57.022003845332193 0 15.129865434960262 0 -1 0 I I #
point $-1 -57.022003845332193 35.74773409194659 15.129865434960262 #
point $-1 -57.022003845332193 -35.74773409194659 15.129865434960262 #
straight-curve $-1 57.022003845332193 -35.74773409194659 0 0 0 -1 I I #
straight-curve $-1 57.022003845332193 35.74773409194659 0 0 0 -1 I I #
face $-1 $292 $293 $13 $-1 $294 reversed single #
loop $-1 $-1 $177 $164 #
plane-surface $-1 -57.022003845332193 0 0 1 0 0 0 0 -1 forward_v I I I I #
coedge $-1 $295 $167 $173 $244 forward $58 $-1 #
coedge $-1 $168 $295 $296 $297 forward $58 $-1 #
coedge $-1 $298 $177 $168 $238 reversed $233 $-1 #
edge $-1 $299 -35.74773409194659 $179 17.141892083083555 $237 $300 forward 7 unknown #
straight-curve $-1 -49.59434670980383 -13.222406543757536 15.129865434960262 0 -1 0 I I #
coedge $-1 $170 $301 $172 $243 forward $165 $-1 #
straight-curve $-1 -49.59434670980383 -13.222406543757536 -15.129865434960262 0 1 0 I I #
coedge $-1 $173 $172 $302 $303 reversed $101 $-1 #
edge $-1 $304 -57.022003845332193 $175 49.59434670980383 $172 $305 forward 7 unknown #
edge $-1 $174 -49.59434670980383 $306 57.022003845332193 $173 $307 forward 7 unknown #
point $-1 -49.59434670980383 -35.74773409194659 15.129865434960262 #
point $-1 -49.59434670980383 -35.74773409194659 -15.129865434960262 #
coedge $-1 $177 $298 $181 $251 reversed $233 $-1 #
straight-curve $-1 -57.022003845332193 -17.141892083083555 0 0 0 1 I I #
point $-1 -57.022003845332193 -17.141892083083555 15.129865434960262 #
coedge $-1 $301 $181 $308 $309 forward $165 $-1 #
edge $-1 $182 -17.141892083083555 $310 35.74773409194659 $247 $311 forward 7 unknown #
point $-1 -57.022003845332193 -17.141892083083555 -15.129865434960262 #
face $-1 $312 $313 $14 $-1 $314 reversed single #
loop $-1 $-1 $315 $186 #
plane-surface $-1 -49.59434670980383 -26.444813087515072 0 -1 0 0 0 0 1 forward_v I I I I #
coedge $-1 $316 $317 $318 $319 reversed $187 $-1 #
coedge $-1 $189 $200 $320 $321 reversed $66 $-1 #
coedge $-1 $322 $191 $189 $259 forward $262 $-1 #
edge $-1 $193 -5.3288190232933248 $323 15.129865434960262 $189 $324 forward 7 unknown #
edge $-1 $195 6.6204309313940719 $263 35.807858919756768 $197 $325 forward 7 unknown #
coedge $-1 $191 $326 $267 $327 reversed $262 $-1 #
loop $-1 $-1 $191 $328 #
vertex $-1 $327 $329 #
straight-curve $-1 -57.022003845332193 6.6964483866104612 39.950794038553298 0 0.64278759981090572 -0.76604445140561861 I I #
point $-1 -57.022003845332193 35.74773409194659 5.3288190232933248 #
point $-1 -27.834575856969494 27.523679878081062 15.129865434960266 #
coedge $-1 $330 $197 $261 $327 forward $116 $-1 #
coedge $-1 $198 $331 $332 $333 forward $116 $-1 #
coedge $-1 $332 $334 $200 $270 reversed $335 $-1 #
edge $-1 $271 -15.129865434960262 $336 15.129865434960262 $269 $337 forward 7 unknown #
vertex $-1 $333 $338 #
straight-curve $-1 0 35.74773409194659 15.129865434960262 -1 0 0 I I #
face $-1 $339 $340 $15 $-1 $341 forward single #
loop $-1 $-1 $280 $204 #
plane-surface $-1 0 0 15.129865434960262 0 0 1 1 0 0 forward_v I I I I #
coedge $-1 $210 $342 $277 $343 forward $205 $-1 #
coedge $-1 $344 $278 $276 $343 reversed $207 $-1 #
coedge $-1 $277 $345 $208 $279 reversed $207 $-1 #
edge $-1 $283 -71.495468183893223 $346 -58.701110893421422 $208 $347 forward 7 unknown #
coedge $-1 $348 $349 $209 $281 forward $274 $-1 #
edge $-1 $284 2.8293224121324343 $346 11.053376625997963 $280 $350 forward 7 unknown #
coedge $-1 $351 $210 $349 $352 reversed $205 $-1 #
vertex $-1 $343 $353 #
vertex $-1 $281 $354 #
straight-curve $-1 -27.834575856969494 35.74773409194659 66.701799851255132 0 0 1 I I #
vertex $-1 $212 $355 #
point $-1 -39.928289851150844 25.568918745294408 5.1387025880266197 #
straight-curve $-1 -57.022003845332193 35.74773409194659 0 0 0 -1 I I #
point $-1 -57.022003845332193 -35.74773409194659 -15.129865434960262 #
straight-curve $-1 -57.022003845332193 0 -15.129865434960262 0 1 0 I I #
point $-1 -57.022003845332193 35.74773409194659 -15.129865434960262 #
face $-1 $-1 $356 $13 $-1 $357 reversed single #
loop $-1 $-1 $358 $232 #
plane-surface $-1 0 35.74773409194659 0 0 -1 0 0 0 -1 forward_v I I I I #
coedge $-1 $236 $235 $359 $360 forward $58 $-1 #
coedge $-1 $358 $361 $236 $297 reversed $293 $-1 #
edge $-1 $362 -57.022003845332193 $299 57.022003845332193 $296 $363 forward 7 unknown #
coedge $-1 $247 $237 $361 $364 forward $233 $-1 #
vertex $-1 $297 $365 #
straight-curve $-1 -57.022003845332193 0 15.129865434960262 0 -1 0 I I #
coedge $-1 $240 $250 $366 $367 forward $165 $-1 #
coedge $-1 $366 $359 $242 $303 forward $356 $-1 #
edge $-1 $306 -15.129865434960262 $304 15.129865434960262 $302 $368 forward 7 unknown #
vertex $-1 $303 $369 #
straight-curve $-1 0 -35.74773409194659 -15.129865434960262 -1 0 0 I I #
vertex $-1 $360 $370 #
straight-curve $-1 0 -35.74773409194659 15.129865434960262 1 0 0 I I #
coedge $-1 $361 $358 $250 $309 reversed $293 $-1 #
edge $-1 $310 -57.022003845332193 $371 57.022003845332193 $308 $372 forward 7 unknown #
vertex $-1 $309 $373 #
straight-curve $-1 -57.022003845332193 0 -15.129865434960262 0 1 0 I I #
face $-1 $328 $374 $14 $-1 $375 reversed single #
loop $-1 $-1 $376 $253 #
plane-surface $-1 0 -35.74773409194659 0 0 1 0 0 0 1 forward_v I I I I #
coedge $-1 $377 $378 $376 $379 reversed $254 $-1 #
coedge $-1 $380 $256 $330 $381 reversed $187 $-1 #
coedge $-1 $256 $380 $382 $383 reversed $187 $-1 #
coedge $-1 $378 $377 $256 $319 forward $254 $-1 #
edge $-1 $384 -15.129865434960262 $385 15.129865434960262 $318 $386 forward 7 unknown #
coedge $-1 $387 $388 $257 $321 forward $374 $-1 #
edge $-1 $323 -57.022003845332193 $336 57.022003845332193 $257 $389 forward 7 unknown #
coedge $-1 $326 $258 $388 $390 reversed $262 $-1 #
vertex $-1 $321 $391 #
straight-curve $-1 -57.022003845332193 35.74773409194659 0 0 0 -1 I I #
straight-curve $-1 -21.214144925575422 27.523679878081062 15.129865434960262 -1 0 0 I I #
coedge $-1 $261 $322 $380 $392 forward $262 $-1 #
edge $-1 $263 -27.523679878081062 $393 17.141892083083555 $261 $394 forward 7 unknown #
face $-1 $395 $262 $14 $-1 $396 reversed single #
point $-1 -57.022003845332193 27.523679878081062 15.129865434960266 #
coedge $-1 $397 $267 $316 $381 forward $116 $-1 #
coedge $-1 $268 $397 $398 $399 forward $116 $-1 #
coedge $-1 $400 $269 $268 $333 reversed $335 $-1 #
edge $-1 $401 -35.74773409194659 $271 35.74773409194659 $332 $402 forward 7 unknown #
coedge $-1 $269 $400 $387 $403 reversed $335 $-1 #
loop $-1 $-1 $400 $395 #
vertex $-1 $403 $404 #
straight-curve $-1 57.022003845332193 35.74773409194659 0 0 0 -1 I I #
point $-1 57.022003845332193 35.74773409194659 15.129865434960262 #
face $-1 $405 $406 $15 $-1 $407 forward single #
loop $-1 $-1 $408 $273 #
plane-surface $-1 -53.308175277568012 -17.141892083083555 0 0 -1 0 0 0 -1 forward_v I I I I #
coedge $-1 $276 $409 $410 $411 reversed $205 $-1 #
edge $-1 $412 -35.807858919756768 $283 -6.6204309313940719 $276 $413 forward 7 unknown #
coedge $-1 $345 $277 $414 $415 reversed $207 $-1 #
coedge $-1 $278 $344 $348 $416 reversed $207 $-1 #
vertex $-1 $416 $417 #
straight-curve $-1 -27.834575856969494 -10.208666299335093 60.097525726211643 0 -0.64278759981090561 0.7660444514056185 I I #
coedge $-1 $418 $280 $345 $416 forward $274 $-1 #
coedge $-1 $280 $419 $282 $352 forward $274 $-1 #
straight-curve $-1 -27.834575856969494 38.577056504079025 15.129865434960266 0 -1 0 I I #
coedge $-1 $409 $282 $420 $421 forward $205 $-1 #
edge $-1 $422 -57.022003845332193 $284 27.834575856969494 $282 $423 forward 7 unknown #
point $-1 -27.834575856969494 35.74773409194659 5.3288190232933204 #
point $-1 -27.834575856969494 35.74773409194659 15.129865434960262 #
point $-1 -42.428289851150844 23.653807616780359 3.5317335884993555 #
loop $-1 $-1 $302 $292 #
plane-surface $-1 57.022003845332193 0 0 -1 0 0 0 0 1 forward_v I I I I #
coedge $-1 $308 $296 $424 $425 forward $293 $-1 #
coedge $-1 $302 $424 $295 $360 reversed $356 $-1 #
edge $-1 $306 -35.74773409194659 $362 35.74773409194659 $359 $426 forward 7 unknown #
coedge $-1 $296 $308 $298 $364 reversed $293 $-1 #
vertex $-1 $360 $427 #
straight-curve $-1 0 35.74773409194659 15.129865434960262 -1 0 0 I I #
edge $-1 $299 -15.129865434960262 $310 15.129865434960262 $361 $428 forward 7 unknown #
point $-1 -57.022003845332193 35.74773409194659 15.129865434960262 #
coedge $-1 $424 $302 $301 $367 reversed $356 $-1 #
edge $-1 $371 -35.74773409194659 $304 35.74773409194659 $366 $429 forward 7 unknown #
straight-curve $-1 57.022003845332193 -35.74773409194659 0 0 0 -1 I I #
point $-1 57.022003845332193 -35.74773409194659 -15.129865434960262 #
point $-1 57.022003845332193 -35.74773409194659 15.129865434960262 #
vertex $-1 $367 $430 #
straight-curve $-1 0 35.74773409194659 -15.129865434960262 1 0 0 I I #
point $-1 -57.022003845332193 35.74773409194659 -15.129865434960262 #
loop $-1 $-1 $382 $312 #
plane-surface $-1 0 0 -15.129865434960262 0 0 1 1 0 0 forward_v I I I I #
coedge $-1 $431 $398 $315 $379 forward $313 $-1 #
coedge $-1 $318 $315 $397 $432 reversed $254 $-1 #
coedge $-1 $315 $318 $433 $434 reversed $254 $-1 #
edge $-1 $435 -15.129865434960262 $436 15.129865434960262 $376 $437 forward 7 unknown #
coedge $-1 $317 $316 $326 $392 reversed $187 $-1 #
edge $-1 $393 -30.367916206548188 $384 -22.940259071019824 $330 $438 forward 7 unknown #
coedge $-1 $388 $433 $317 $383 forward $374 $-1 #
edge $-1 $385 22.940259071019824 $439 30.367916206548188 $382 $440 forward 7 unknown #
vertex $-1 $381 $441 #
vertex $-1 $383 $442 #
straight-curve $-1 -49.59434670980383 -17.141892083083555 0 0 0 -1 I I #
coedge $-1 $443 $320 $334 $403 forward $374 $-1 #
coedge $-1 $320 $382 $322 $390 forward $374 $-1 #
straight-curve $-1 0 35.74773409194659 -15.129865434960262 1 0 0 I I #
edge $-1 $439 -17.141892083083555 $323 35.74773409194659 $322 $444 forward 7 unknown #
point $-1 -57.022003845332193 35.74773409194659 -15.129865434960262 #
edge $-1 $439 -15.129865434960262 $393 15.129865434960262 $326 $445 forward 7 unknown #
vertex $-1 $392 $446 #
straight-curve $-1 -57.022003845332193 0 15.129865434960262 0 -1 0 I I #
face $-1 $-1 $335 $14 $-1 $447 reversed single #
plane-surface $-1 -57.022003845332193 0 0 1 0 0 0 0 -1 forward_v I I I I #
coedge $-1 $331 $330 $377 $432 forward $116 $-1 #
coedge $-1 $376 $448 $331 $399 reversed $313 $-1 #
edge $-1 $435 -49.59434670980383 $401 57.022003845332193 $398 $449 forward 7 unknown #
coedge $-1 $334 $332 $448 $450 forward $335 $-1 #
vertex $-1 $333 $451 #
straight-curve $-1 57.022003845332193 0 15.129865434960262 0 1 0 I I #
edge $-1 $336 -35.74773409194659 $452 35.74773409194659 $334 $453 forward 7 unknown #
point $-1 57.022003845332193 35.74773409194659 -15.129865434960262 #
face $-1 $454 $455 $15 $-1 $456 reversed single #
loop $-1 $-1 $457 $339 #
plane-surface $-1 -49.59434670980383 -26.444813087515072 0 -1 0 0 0 0 1 forward_v I I I I #
coedge $-1 $458 $459 $460 $461 reversed $340 $-1 #
coedge $-1 $342 $351 $462 $463 reversed $205 $-1 #
coedge $-1 $464 $414 $342 $411 forward $465 $-1 #
edge $-1 $412 -5.3288190232933248 $466 15.129865434960262 $342 $467 forward 7 unknown #
vertex $-1 $411 $468 #
straight-curve $-1 -21.214144925575422 35.74773409194659 5.3288190232933239 1 0 0 I I #
coedge $-1 $410 $469 $344 $415 forward $465 $-1 #
edge $-1 $470 32.401420776625947 $412 45.195778067097741 $414 $471 forward 7 unknown #
edge $-1 $346 6.6204309313940719 $470 35.807858919756768 $348 $472 forward 7 unknown #
point $-1 -27.834575856969494 27.523679878081062 15.129865434960266 #
coedge $-1 $473 $348 $469 $474 forward $274 $-1 #
coedge $-1 $349 $475 $476 $477 forward $274 $-1 #
coedge $-1 $476 $478 $351 $421 reversed $479 $-1 #
edge $-1 $422 -15.129865434960262 $480 15.129865434960262 $420 $481 forward 7 unknown #
vertex $-1 $477 $482 #
straight-curve $-1 0 35.74773409194659 15.129865434960262 -1 0 0 I I #
coedge $-1 $359 $366 $358 $425 reversed $356 $-1 #
edge $-1 $362 -15.129865434960262 $371 15.129865434960262 $424 $483 forward 7 unknown #
straight-curve $-1 57.022003845332193 0 15.129865434960262 0 1 0 I I #
point $-1 57.022003845332193 35.74773409194659 15.129865434960262 #
straight-curve $-1 -57.022003845332193 35.74773409194659 0 0 0 -1 I I #
straight-curve $-1 57.022003845332193 0 -15.129865434960262 0 -1 0 I I #
point $-1 57.022003845332193 35.74773409194659 -15.129865434960262 #
coedge $-1 $448 $376 $443 $484 reversed $313 $-1 #
edge $-1 $384 3.9194855393260184 $435 22.525327548189054 $397 $485 forward 7 unknown #
coedge $-1 $382 $443 $378 $434 forward $374 $-1 #
edge $-1 $436 -22.525327548189054 $385 -3.9194855393260184 $433 $486 forward 7 unknown #
vertex $-1 $399 $487 #
vertex $-1 $379 $488 #
straight-curve $-1 -49.59434670980383 -35.74773409194659 0 0 0 -1 I I #
straight-curve $-1 -26.654087638784006 -17.141892083083555 15.129865434960262 1 0 0 I I #
vertex $-1 $390 $489 #
straight-curve $-1 -26.654087638784006 -17.141892083083555 -15.129865434960262 -1 0 0 I I #
point $-1 -49.59434670980383 -17.141892083083555 15.129865434960262 #
point $-1 -49.59434670980383 -17.141892083083555 -15.129865434960262 #
coedge $-1 $433 $387 $431 $484 forward $374 $-1 #
straight-curve $-1 -57.022003845332193 0 -15.129865434960262 0 1 0 I I #
straight-curve $-1 -57.022003845332193 -17.141892083083555 0 0 0 1 I I #
point $-1 -57.022003845332193 -17.141892083083555 15.129865434960262 #
plane-surface $-1 57.022003845332193 0 0 -1 0 0 0 0 1 forward_v I I I I #
coedge $-1 $398 $431 $400 $450 reversed $313 $-1 #
straight-curve $-1 0 -35.74773409194659 15.129865434960262 1 0 0 I I #
edge $-1 $401 -15.129865434960262 $452 15.129865434960262 $400 $490 forward 7 unknown #
point $-1 57.022003845332193 -35.74773409194659 15.129865434960262 #
vertex $-1 $450 $491 #
straight-curve $-1 57.022003845332193 0 -15.129865434960262 0 -1 0 I I #
face $-1 $492 $493 $15 $-1 $494 reversed single #
loop $-1 $-1 $495 $405 #
plane-surface $-1 0 -35.74773409194659 0 0 1 0 0 0 1 forward_v I I I I #
coedge $-1 $496 $497 $495 $498 reversed $406 $-1 #
coedge $-1 $499 $408 $473 $500 reversed $340 $-1 #
coedge $-1 $408 $499 $501 $502 reversed $340 $-1 #
coedge $-1 $497 $496 $408 $461 forward $406 $-1 #
edge $-1 $503 -15.129865434960262 $504 15.129865434960262 $460 $505 forward 7 unknown #
coedge $-1 $506 $507 $409 $463 forward $493 $-1 #
edge $-1 $466 -57.022003845332193 $480 57.022003845332193 $409 $508 forward 7 unknown #
coedge $-1 $509 $410 $507 $510 reversed $465 $-1 #
loop $-1 $-1 $414 $492 #
vertex $-1 $463 $511 #
straight-curve $-1 -57.022003845332193 35.74773409194659 0 0 0 -1 I I #
point $-1 -57.022003845332193 35.74773409194659 5.3288190232933248 #
coedge $-1 $414 $509 $418 $474 reversed $465 $-1 #
vertex $-1 $474 $512 #
straight-curve $-1 -57.022003845332193 6.6964483866104612 39.950794038553298 0 0.64278759981090572 -0.76604445140561861 I I #
straight-curve $-1 -21.214144925575422 27.523679878081062 15.129865434960262 -1 0 0 I I #
coedge $-1 $513 $418 $458 $500 forward $274 $-1 #
edge $-1 $470 -27.523679878081062 $514 17.141892083083555 $469 $515 forward 7 unknown #
coedge $-1 $419 $513 $516 $517 forward $274 $-1 #
coedge $-1 $518 $420 $419 $477 reversed $479 $-1 #
edge $-1 $519 -35.74773409194659 $422 35.74773409194659 $476 $520 forward 7 unknown #
coedge $-1 $420 $518 $506 $521 reversed $479 $-1 #
loop $-1 $-1 $518 $522 #
vertex $-1 $521 $523 #
straight-curve $-1 57.022003845332193 35.74773409194659 0 0 0 -1 I I #
point $-1 57.022003845332193 35.74773409194659 15.129865434960262 #
straight-curve $-1 57.022003845332193 35.74773409194659 0 0 0 -1 I I #
edge $-1 $452 -57.022003845332193 $436 49.59434670980383 $431 $524 forward 7 unknown #
straight-curve $-1 -49.59434670980383 -13.222406543757536 15.129865434960262 0 -1 0 I I #
straight-curve $-1 -49.59434670980383 -13.222406543757536 -15.129865434960262 0 1 0 I I #
point $-1 -49.59434670980383 -35.74773409194659 15.129865434960262 #
point $-1 -49.59434670980383 -35.74773409194659 -15.129865434960262 #
point $-1 -57.022003845332193 -17.141892083083555 -15.129865434960262 #
straight-curve $-1 57.022003845332193 -35.74773409194659 0 0 0 -1 I I #
point $-1 57.022003845332193 -35.74773409194659 -15.129865434960262 #
face $-1 $522 $465 $15 $-1 $525 reversed single #
loop $-1 $-1 $501 $454 #
plane-surface $-1 0 0 -15.129865434960262 0 0 1 1 0 0 forward_v I I I I #
coedge $-1 $526 $516 $457 $498 forward $455 $-1 #
coedge $-1 $460 $457 $513 $527 reversed $406 $-1 #
coedge $-1 $457 $460 $528 $529 reversed $406 $-1 #
edge $-1 $530 -15.129865434960262 $531 15.129865434960262 $495 $532 forward 7 unknown #
coedge $-1 $459 $458 $509 $533 reversed $340 $-1 #
edge $-1 $514 -30.367916206548188 $503 -22.940259071019824 $473 $534 forward 7 unknown #
coedge $-1 $507 $528 $459 $502 forward $493 $-1 #
edge $-1 $504 22.940259071019824 $535 30.367916206548188 $501 $536 forward 7 unknown #
vertex $-1 $500 $537 #
vertex $-1 $502 $538 #
straight-curve $-1 -49.59434670980383 -17.141892083083555 0 0 0 -1 I I #
coedge $-1 $539 $462 $478 $521 forward $493 $-1 #
coedge $-1 $462 $501 $464 $510 forward $493 $-1 #
straight-curve $-1 0 35.74773409194659 -15.129865434960262 1 0 0 I I #
coedge $-1 $469 $464 $499 $533 forward $465 $-1 #
edge $-1 $535 -17.141892083083555 $466 35.74773409194659 $464 $540 forward 7 unknown #
point $-1 -57.022003845332193 35.74773409194659 -15.129865434960262 #
point $-1 -57.022003845332193 27.523679878081062 15.129865434960266 #
coedge $-1 $475 $473 $496 $527 forward $274 $-1 #
vertex $-1 $533 $541 #
straight-curve $-1 -57.022003845332193 0 15.129865434960262 0 -1 0 I I #
coedge $-1 $495 $542 $475 $517 reversed $455 $-1 #
edge $-1 $530 -49.59434670980383 $519 57.022003845332193 $516 $543 forward 7 unknown #
coedge $-1 $478 $476 $542 $544 forward $479 $-1 #
vertex $-1 $477 $545 #
straight-curve $-1 57.022003845332193 0 15.129865434960262 0 1 0 I I #
edge $-1 $480 -35.74773409194659 $546 35.74773409194659 $478 $547 forward 7 unknown #
face $-1 $-1 $479 $15 $-1 $548 reversed single #
point $-1 57.022003845332193 35.74773409194659 -15.129865434960262 #
straight-curve $-1 0 -35.74773409194659 -15.129865434960262 -1 0 0 I I #
plane-surface $-1 -57.022003845332193 0 0 1 0 0 0 0 -1 forward_v I I I I #
coedge $-1 $542 $495 $539 $549 reversed $455 $-1 #
edge $-1 $503 3.9194855393260184 $530 22.525327548189054 $513 $550 forward 7 unknown #
coedge $-1 $501 $539 $497 $529 forward $493 $-1 #
edge $-1 $531 -22.525327548189054 $504 -3.9194855393260184 $528 $551 forward 7 unknown #
vertex $-1 $517 $552 #
vertex $-1 $498 $553 #
straight-curve $-1 -49.59434670980383 -35.74773409194659 0 0 0 -1 I I #
edge $-1 $535 -15.129865434960262 $514 15.129865434960262 $509 $554 forward 7 unknown #
straight-curve $-1 -26.654087638784006 -17.141892083083555 15.129865434960262 1 0 0 I I #
vertex $-1 $510 $555 #
straight-curve $-1 -26.654087638784006 -17.141892083083555 -15.129865434960262 -1 0 0 I I #
point $-1 -49.59434670980383 -17.141892083083555 15.129865434960262 #
point $-1 -49.59434670980383 -17.141892083083555 -15.129865434960262 #
coedge $-1 $528 $506 $526 $549 forward $493 $-1 #
straight-curve $-1 -57.022003845332193 0 -15.129865434960262 0 1 0 I I #
point $-1 -57.022003845332193 -17.141892083083555 15.129865434960262 #
coedge $-1 $516 $526 $518 $544 reversed $455 $-1 #
straight-curve $-1 0 -35.74773409194659 15.129865434960262 1 0 0 I I #
edge $-1 $519 -15.129865434960262 $546 15.129865434960262 $518 $556 forward 7 unknown #
point $-1 57.022003845332193 -35.74773409194659 15.129865434960262 #
vertex $-1 $544 $557 #
straight-curve $-1 57.022003845332193 0 -15.129865434960262 0 -1 0 I I #
plane-surface $-1 57.022003845332193 0 0 -1 0 0 0 0 1 forward_v I I I I #
edge $-1 $546 -57.022003845332193 $531 49.59434670980383 $526 $558 forward 7 unknown #
straight-curve $-1 -49.59434670980383 -13.222406543757536 15.129865434960262 0 -1 0 I I #
straight-curve $-1 -49.59434670980383 -13.222406543757536 -15.129865434960262 0 1 0 I I #
point $-1 -49.59434670980383 -35.74773409194659 15.129865434960262 #
point $-1 -49.59434670980383 -35.74773409194659 -15.129865434960262 #
straight-curve $-1 -57.022003845332193 -17.141892083083555 0 0 0 1 I I #
point $-1 -57.022003845332193 -17.141892083083555 -15.129865434960262 #
straight-curve $-1 57.022003845332193 -35.74773409194659 0 0 0 -1 I I #
point $-1 57.022003845332193 -35.74773409194659 -15.129865434960262 #
straight-curve $-1 0 -35.74773409194659 -15.129865434960262 -1 0 0 I I #
End-of-ACIS-data 