500 0 5 0           
7 Unknown 11 ACIS 5.0 NT 24 Thu Mar 25 20:16:41 1999 
-1 9.9999999999999995e-007 1e-010 
body $-1 $5 $-1 $6 #
body $-1 $7 $-1 $8 #
body $-1 $9 $-1 $10 #
body $-1 $11 $-1 $12 #
body $-1 $13 $-1 $14 #
lump $-1 $-1 $15 $0 #
transform $-1 1 0 0 0 1 0 0 0 1 71.155735953856009 42.532745614167133 17.390567114486085 1 rotate no_reflect no_shear #
lump $-1 $-1 $16 $1 #
transform $-1 1 0 0 0 1 0 0 0 1 71.155735953856009 42.532745614167133 17.390567114486085 1 rotate no_reflect no_shear #
lump $-1 $-1 $17 $2 #
transform $-1 1 0 0 0 1 0 0 0 1 71.155735953856009 42.532745614167133 17.390567114486085 1 rotate no_reflect no_shear #
lump $-1 $-1 $18 $3 #
transform $-1 1 0 0 0 1 0 0 0 1 71.155735953856009 42.532745614167133 17.390567114486085 1 rotate no_reflect no_shear #
lump $-1 $-1 $19 $4 #
transform $-1 1 0 0 0 1 0 0 0 1 71.155735953856009 42.532745614167133 17.390567114486085 1 rotate no_reflect no_shear #
shell $-1 $-1 $-1 $20 $-1 $5 #
shell $-1 $-1 $-1 $21 $-1 $7 #
shell $-1 $-1 $-1 $22 $-1 $9 #
shell $-1 $-1 $-1 $23 $-1 $11 #
shell $-1 $-1 $-1 $24 $-1 $13 #
face $-1 $25 $26 $15 $-1 $27 forward single #
face $-1 $28 $29 $16 $-1 $30 reversed single #
face $-1 $31 $32 $17 $-1 $33 reversed single #
face $-1 $34 $35 $18 $-1 $36 forward single #
face $-1 $37 $38 $19 $-1 $39 forward single #
face $-1 $40 $41 $15 $-1 $42 reversed single #
loop $-1 $-1 $43 $20 #
plane-surface $-1 0 0 17.390567114486085 0 0 1 1 0 0 forward_v I I I I #
face $-1 $44 $45 $16 $-1 $46 reversed single #
loop $-1 $-1 $47 $21 #
plane-surface $-1 0 -33.642523389937466 8.8532831247952295 0 0 1 1 0 0 forward_v I I I I #
face $-1 $48 $49 $17 $-1 $50 reversed single #
loop $-1 $-1 $51 $22 #
plane-surface $-1 71.155738288971776 30.414119947618175 214.4991718601261 0 -1 0 -0.70710678939079041 0 -0.70710677298230451 forward_v I I I I #
face $-1 $52 $53 $18 $-1 $54 forward single #
loop $-1 $55 $56 $23 #
cone-surface $-1 68.727078153551631 19.798865291147827 14.961909274232912 -0.70710678939079041 0 -0.70710677298230451 0.35355338649115226 0 -0.35355339469539521 1 I I 0 1 0.5 forward I I I I #
face $-1 $57 $58 $19 $-1 $59 forward single #
loop $-1 $60 $61 $24 #
cone-surface $-1 68.727078153551631 26.168018085030035 14.961909274232912 -0.70710678939079041 0 -0.70710677298230451 0.35355338649115226 0 -0.35355339469539521 1 I I 0 1 0.5 forward I I I I #
face $-1 $62 $63 $15 $-1 $64 reversed single #
loop $-1 $-1 $65 $25 #
plane-surface $-1 0 0 -17.390567114486085 0 0 1 1 0 0 forward_v I I I I #
coedge $-1 $66 $67 $68 $69 forward $26 $-1 #
face $-1 $70 $71 $16 $-1 $72 reversed single #
loop $-1 $-1 $73 $28 #
plane-surface $-1 0 -24.752301165707799 13.121925119640657 0 -1 0 0 0 -1 forward_v I I I I #
coedge $-1 $74 $75 $76 $77 reversed $29 $-1 #
face $-1 $78 $79 $17 $-1 $80 reversed single #
loop $-1 $-1 $81 $31 #
plane-surface $-1 -29.473669705168135 22.983441688088938 113.86976620110197 0.70710678939079041 0 0.70710677298230451 0.70710677298230451 0 -0.70710678939079041 forward_v I I I I #
coedge $-1 $82 $83 $84 $85 reversed $32 $-1 #
face $-1 $-1 $86 $18 $-1 $87 forward single #
loop $-1 $88 $89 $34 #
cone-surface $-1 68.196748061508544 19.798865291147827 14.431579194496184 -0.70710678939079041 0 -0.70710677298230451 0.17677669324557613 0 -0.1767766973476976 1 I I -0.70710678118654746 0.70710678118654746 0.25 forward I I I I #
loop $-1 $-1 $90 $23 #
coedge $-1 $56 $56 $91 $92 reversed $35 $-1 #
face $-1 $-1 $93 $19 $-1 $94 forward single #
loop $-1 $95 $96 $37 #
cone-surface $-1 68.196748061508544 26.168018085030035 14.431579194496184 -0.70710678939079041 0 -0.70710677298230451 0.17677669324557613 0 -0.1767766973476976 1 I I -0.70710678118654746 0.70710678118654746 0.25 forward I I I I #
loop $-1 $-1 $97 $24 #
coedge $-1 $61 $61 $98 $99 reversed $38 $-1 #
face $-1 $100 $101 $15 $-1 $102 reversed single #
loop $-1 $-1 $103 $40 #
plane-surface $-1 0 -42.532745614167133 0 0 1 0 0 0 1 forward_v I I I I #
coedge $-1 $104 $105 $106 $107 forward $41 $-1 #
coedge $-1 $108 $43 $109 $110 forward $26 $-1 #
coedge $-1 $43 $108 $111 $112 forward $26 $-1 #
coedge $-1 $113 $114 $43 $69 reversed $115 $-1 #
edge $-1 $116 -42.532745614167133 $117 42.532745614167133 $68 $118 forward 7 unknown #
face $-1 $119 $120 $16 $-1 $121 reversed single #
loop $-1 $-1 $122 $44 #
plane-surface $-1 -71.155735953856009 0 0 1 0 0 0 0 -1 forward_v I I I I #
coedge $-1 $123 $124 $125 $126 reversed $45 $-1 #
coedge $-1 $127 $47 $128 $129 reversed $29 $-1 #
coedge $-1 $47 $127 $123 $130 forward $29 $-1 #
coedge $-1 $125 $131 $47 $77 forward $132 $-1 #
edge $-1 $133 -25.7114839191984 $134 -7.9310394707390657 $76 $135 forward 7 unknown #
face $-1 $136 $137 $17 $-1 $138 reversed single #
loop $-1 $-1 $139 $48 #
plane-surface $-1 71.155738288971776 15.5527634285597 214.4991718601261 0 1 0 0.70710678939079041 0 0.70710677298230451 forward_v I I I I #
coedge $-1 $140 $141 $142 $143 reversed $49 $-1 #
coedge $-1 $83 $51 $144 $145 reversed $32 $-1 #
coedge $-1 $51 $82 $140 $146 reversed $32 $-1 #
coedge $-1 $142 $147 $51 $85 forward $148 $-1 #
edge $-1 $149 -35.577866809370121 $150 -31.4276579981521 $84 $151 forward 7 unknown #
loop $-1 $-1 $91 $52 #
plane-surface $-1 -29.473669705168135 22.983441688088938 113.86976620110197 0.70710678939079041 0 0.70710677298230451 0.70710677298230451 0 -0.70710678939079041 forward_v I I I I #
loop $-1 $-1 $152 $34 #
coedge $-1 $89 $89 $90 $153 reversed $53 $-1 #
coedge $-1 $90 $90 $89 $153 forward $55 $-1 #
coedge $-1 $91 $91 $56 $92 forward $86 $-1 #
edge $-1 $154 0 $154 6.2831853071796004 $91 $155 forward 7 unknown #
loop $-1 $-1 $98 $57 #
plane-surface $-1 -29.473669705168135 22.983441688088938 113.86976620110197 0.70710678939079041 0 0.70710677298230451 0.70710677298230451 0 -0.70710678939079041 forward_v I I I I #
loop $-1 $-1 $156 $37 #
coedge $-1 $96 $96 $97 $157 reversed $58 $-1 #
coedge $-1 $97 $97 $96 $157 forward $60 $-1 #
coedge $-1 $98 $98 $61 $99 forward $93 $-1 #
edge $-1 $158 0 $158 6.2831853071796004 $98 $159 forward 7 unknown #
face $-1 $160 $161 $15 $-1 $162 reversed single #
loop $-1 $-1 $163 $62 #
plane-surface $-1 -71.155735953856009 0 0 1 0 0 0 0 -1 forward_v I I I I #
coedge $-1 $164 $111 $165 $166 forward $63 $-1 #
coedge $-1 $167 $65 $164 $168 forward $41 $-1 #
coedge $-1 $65 $167 $169 $170 forward $41 $-1 #
coedge $-1 $114 $113 $65 $107 reversed $115 $-1 #
edge $-1 $171 -42.532745614167133 $172 42.532745614167133 $106 $173 forward 7 unknown #
coedge $-1 $67 $66 $174 $175 forward $26 $-1 #
coedge $-1 $176 $177 $66 $110 reversed $161 $-1 #
edge $-1 $117 -71.155735953856009 $178 71.155735953856009 $109 $179 forward 7 unknown #
coedge $-1 $103 $180 $67 $112 reversed $63 $-1 #
edge $-1 $181 -71.155735953856009 $116 71.155735953856009 $111 $182 forward 7 unknown #
coedge $-1 $106 $68 $180 $183 forward $115 $-1 #
coedge $-1 $68 $106 $176 $184 reversed $115 $-1 #
loop $-1 $-1 $113 $160 #
vertex $-1 $69 $185 #
vertex $-1 $69 $186 #
straight-curve $-1 71.155735953856009 0 17.390567114486085 0 1 0 I I #
face $-1 $187 $188 $16 $-1 $189 forward single #
loop $-1 $-1 $128 $70 #
plane-surface $-1 0 -42.532745614167133 0 0 1 0 0 0 1 forward_v I I I I #
coedge $-1 $190 $191 $192 $193 forward $71 $-1 #
coedge $-1 $192 $73 $75 $130 reversed $45 $-1 #
coedge $-1 $73 $192 $194 $195 reversed $45 $-1 #
coedge $-1 $196 $76 $73 $126 forward $132 $-1 #
edge $-1 $134 2.2923205649749008 $197 10.829604554665757 $125 $198 forward 7 unknown #
coedge $-1 $75 $74 $190 $199 reversed $29 $-1 #
coedge $-1 $200 $201 $74 $129 forward $120 $-1 #
edge $-1 $202 -71.155735953856009 $133 71.155735953856009 $128 $203 forward 7 unknown #
edge $-1 $204 -71.155735953856009 $134 71.155735953856009 $123 $205 forward 7 unknown #
coedge $-1 $76 $196 $200 $206 forward $132 $-1 #
loop $-1 $-1 $125 $187 #
vertex $-1 $129 $207 #
vertex $-1 $77 $208 #
straight-curve $-1 71.155735953856009 -16.821261694968733 8.8532831247952295 0 1 0 I I #
face $-1 $-1 $148 $17 $-1 $209 forward single #
loop $-1 $-1 $210 $78 #
plane-surface $-1 71.155735953856009 0 0 -1 0 0 0 0 1 forward_v I I I I #
coedge $-1 $211 $212 $213 $214 reversed $79 $-1 #
coedge $-1 $215 $81 $83 $146 forward $49 $-1 #
coedge $-1 $81 $215 $211 $216 forward $49 $-1 #
coedge $-1 $213 $84 $81 $143 forward $148 $-1 #
edge $-1 $150 -18.922399103573706 $217 -4.0610425845152314 $142 $218 forward 7 unknown #
coedge $-1 $219 $220 $82 $145 forward $137 $-1 #
edge $-1 $221 -94.009227723101006 $149 -89.85901881557696 $144 $222 forward 7 unknown #
edge $-1 $150 136.44219025210859 $221 142.3114719077121 $83 $223 forward 7 unknown #
coedge $-1 $84 $213 $219 $224 forward $148 $-1 #
loop $-1 $-1 $213 $136 #
vertex $-1 $145 $225 #
vertex $-1 $85 $226 #
straight-curve $-1 35.577869144485888 30.414119947618175 17.390567114486089 -1 0 0 I I #
coedge $-1 $152 $152 $-1 $227 reversed $88 $-1 #
edge $-1 $228 0 $228 6.2831853071796004 $89 $229 forward 7 unknown #
vertex $-1 $92 $230 #
ellipse-curve $-1 69.080631548247013 19.798865291147827 15.315462660724044 0.70710678939079041 0 0.70710677298230451 0.35355338649115226 0 -0.35355339469539521 1 I I #
coedge $-1 $156 $156 $-1 $231 reversed $95 $-1 #
edge $-1 $232 0 $232 6.2831853071796004 $96 $233 forward 7 unknown #
vertex $-1 $99 $234 #
ellipse-curve $-1 69.080631548247013 26.168018085030035 15.315462660724044 0.70710678939079041 0 0.70710677298230451 0.35355338649115226 0 -0.35355339469539521 1 I I #
face $-1 $-1 $115 $15 $-1 $235 reversed single #
loop $-1 $-1 $176 $100 #
plane-surface $-1 0 42.532745614167133 0 0 -1 0 0 0 -1 forward_v I I I I #
coedge $-1 $236 $174 $177 $237 forward $101 $-1 #
coedge $-1 $180 $103 $104 $168 reversed $63 $-1 #
coedge $-1 $174 $236 $103 $166 reversed $101 $-1 #
edge $-1 $181 -17.390567114486085 $238 17.390567114486085 $165 $239 forward 7 unknown #
coedge $-1 $105 $104 $236 $240 forward $41 $-1 #
edge $-1 $172 -71.155735953856009 $238 71.155735953856009 $164 $241 forward 7 unknown #
coedge $-1 $177 $176 $105 $170 reversed $161 $-1 #
edge $-1 $242 -71.155735953856009 $171 71.155735953856009 $169 $243 forward 7 unknown #
vertex $-1 $107 $244 #
vertex $-1 $183 $245 #
straight-curve $-1 71.155735953856009 0 -17.390567114486085 0 -1 0 I I #
coedge $-1 $163 $165 $108 $175 reversed $101 $-1 #
edge $-1 $178 -42.532745614167133 $181 42.532745614167133 $174 $246 forward 7 unknown #
coedge $-1 $169 $109 $114 $184 forward $161 $-1 #
coedge $-1 $109 $169 $163 $237 reversed $161 $-1 #
vertex $-1 $110 $247 #
straight-curve $-1 0 42.532745614167133 17.390567114486085 -1 0 0 I I #
coedge $-1 $111 $164 $113 $183 reversed $63 $-1 #
vertex $-1 $175 $248 #
straight-curve $-1 0 -42.532745614167133 17.390567114486085 1 0 0 I I #
edge $-1 $116 -17.390567114486085 $172 17.390567114486085 $113 $249 forward 7 unknown #
edge $-1 $117 -17.390567114486085 $171 17.390567114486085 $114 $250 forward 7 unknown #
point $-1 71.155735953856009 -42.532745614167133 17.390567114486085 #
point $-1 71.155735953856009 42.532745614167133 17.390567114486085 #
face $-1 $-1 $132 $16 $-1 $251 reversed single #
loop $-1 $-1 $194 $119 #
plane-surface $-1 0 0 17.390567114486085 0 0 1 1 0 0 forward_v I I I I #
coedge $-1 $252 $122 $127 $199 forward $71 $-1 #
coedge $-1 $122 $252 $253 $254 reversed $71 $-1 #
coedge $-1 $124 $123 $122 $193 reversed $45 $-1 #
edge $-1 $255 -10.829604554665757 $204 -2.2923205649749008 $122 $256 forward 7 unknown #
coedge $-1 $253 $257 $124 $195 forward $188 $-1 #
edge $-1 $197 -71.155735953856009 $255 71.155735953856009 $194 $258 forward 7 unknown #
coedge $-1 $131 $125 $257 $259 reversed $132 $-1 #
vertex $-1 $126 $260 #
straight-curve $-1 71.155735953856009 -24.752301165707799 6.5609625598203287 0 0 1 I I #
edge $-1 $204 7.9310394707390657 $202 25.7114839191984 $190 $261 forward 7 unknown #
coedge $-1 $262 $128 $131 $206 reversed $120 $-1 #
coedge $-1 $128 $262 $252 $263 forward $120 $-1 #
vertex $-1 $129 $264 #
straight-curve $-1 0 -42.532745614167133 8.8532831247952295 1 0 0 I I #
vertex $-1 $199 $265 #
straight-curve $-1 0 -24.752301165707799 8.8532831247952295 1 0 0 I I #
edge $-1 $266 -17.390567114486085 $133 -8.8532831247952295 $131 $267 forward 7 unknown #
point $-1 71.155735953856009 -42.532745614167133 8.8532831247952295 #
point $-1 71.155735953856009 -24.752301165707799 8.8532831247952295 #
plane-surface $-1 0 0 17.390567114486085 0 0 1 1 0 0 forward_v I I I I #
coedge $-1 $220 $219 $212 $268 forward $137 $-1 #
coedge $-1 $212 $139 $141 $216 reversed $79 $-1 #
coedge $-1 $139 $211 $210 $268 reversed $79 $-1 #
coedge $-1 $147 $142 $139 $214 forward $148 $-1 #
edge $-1 $217 31.4276579981521 $269 35.577866809370121 $213 $270 forward 7 unknown #
coedge $-1 $141 $140 $220 $271 reversed $49 $-1 #
edge $-1 $272 -142.3114719077121 $217 -136.44219025210859 $211 $273 forward 7 unknown #
vertex $-1 $143 $274 #
straight-curve $-1 67.005527142637973 11.491720844044469 17.390567114486089 0 -1 0 I I #
coedge $-1 $210 $144 $147 $224 reversed $137 $-1 #
coedge $-1 $144 $210 $215 $271 forward $137 $-1 #
vertex $-1 $145 $275 #
straight-curve $-1 71.155735953856009 30.414119947618175 107.24958593006305 0 0 1 I I #
straight-curve $-1 -29.473669705168135 30.414119947618175 113.86976620110197 0.70710677298230451 0 -0.70710678939079041 I I #
edge $-1 $269 15.5527634285597 $149 30.414119947618175 $219 $276 forward 7 unknown #
point $-1 71.155735953856009 30.414119947618175 17.390567114486085 #
point $-1 67.005527142637987 30.414119947618175 17.390567114486089 #
edge $-1 $277 1 $277 0 $152 $-1 forward 7 unknown #
vertex $-1 $153 $278 #
ellipse-curve $-1 68.373524758856234 19.798865291147827 14.608355887741761 0.70710678939079041 0 0.70710677298230451 0.35355338649115226 0 -0.35355339469539521 1 I I #
point $-1 69.434184934738184 19.798865291147827 14.96190926602867 #
edge $-1 $279 1 $279 0 $156 $-1 forward 7 unknown #
vertex $-1 $157 $280 #
ellipse-curve $-1 68.373524758856234 26.168018085030035 14.608355887741761 0.70710678939079041 0 0.70710677298230451 0.35355338649115226 0 -0.35355339469539521 1 I I #
point $-1 69.434184934738184 26.168018085030035 14.96190926602867 #
plane-surface $-1 71.155735953856009 0 0 -1 0 0 0 0 1 forward_v I I I I #
coedge $-1 $165 $163 $167 $240 reversed $101 $-1 #
edge $-1 $178 -17.390567114486085 $242 17.390567114486085 $177 $281 forward 7 unknown #
vertex $-1 $240 $282 #
straight-curve $-1 -71.155735953856009 -42.532745614167133 0 0 0 -1 I I #
edge $-1 $238 -42.532745614167133 $242 42.532745614167133 $236 $283 forward 7 unknown #
straight-curve $-1 0 -42.532745614167133 -17.390567114486085 -1 0 0 I I #
vertex $-1 $170 $284 #
straight-curve $-1 0 42.532745614167133 -17.390567114486085 1 0 0 I I #
point $-1 71.155735953856009 42.532745614167133 -17.390567114486085 #
point $-1 71.155735953856009 -42.532745614167133 -17.390567114486085 #
straight-curve $-1 -71.155735953856009 0 17.390567114486085 0 -1 0 I I #
point $-1 -71.155735953856009 42.532745614167133 17.390567114486085 #
point $-1 -71.155735953856009 -42.532745614167133 17.390567114486085 #
straight-curve $-1 71.155735953856009 -42.532745614167133 0 0 0 -1 I I #
straight-curve $-1 71.155735953856009 42.532745614167133 0 0 0 -1 I I #
plane-surface $-1 71.155735953856009 0 0 -1 0 0 0 0 1 forward_v I I I I #
coedge $-1 $191 $190 $201 $263 reversed $71 $-1 #
coedge $-1 $285 $194 $191 $254 forward $188 $-1 #
edge $-1 $255 24.752301165707799 $286 42.532745614167133 $191 $287 forward 7 unknown #
vertex $-1 $254 $288 #
straight-curve $-1 -71.155735953856009 -24.752301165707799 6.5609625598203287 0 0 -1 I I #
coedge $-1 $194 $285 $196 $259 forward $188 $-1 #
straight-curve $-1 0 -24.752301165707799 17.390567114486085 -1 0 0 I I #
edge $-1 $266 -42.532745614167133 $197 -24.752301165707799 $196 $289 forward 7 unknown #
point $-1 71.155735953856009 -24.752301165707799 17.390567114486085 #
straight-curve $-1 -71.155735953856009 -16.821261694968733 8.8532831247952295 0 -1 0 I I #
coedge $-1 $201 $200 $285 $290 reversed $120 $-1 #
edge $-1 $286 -17.390567114486085 $202 -8.8532831247952295 $252 $291 forward 7 unknown #
point $-1 -71.155735953856009 -42.532745614167133 8.8532831247952295 #
point $-1 -71.155735953856009 -24.752301165707799 8.8532831247952295 #
vertex $-1 $259 $292 #
straight-curve $-1 71.155735953856009 -42.532745614167133 0 0 0 -1 I I #
edge $-1 $269 89.85901881557696 $272 94.009227723101006 $210 $293 forward 7 unknown #
vertex $-1 $224 $294 #
straight-curve $-1 35.577869144485888 15.5527634285597 17.390567114486089 1 0 0 I I #
edge $-1 $272 4.0610425845152314 $221 18.922399103573706 $220 $295 forward 7 unknown #
vertex $-1 $271 $296 #
straight-curve $-1 -29.473669705168135 15.5527634285597 113.86976620110197 -0.70710677298230451 0 0.70710678939079041 I I #
point $-1 67.005527142637987 15.5527634285597 17.390567114486089 #
point $-1 71.155735953856009 30.414119947618175 13.240358206962043 #
straight-curve $-1 71.155735953856009 0 17.390567114486085 0 1 0 I I #
vertex $-1 $227 $297 #
point $-1 68.727078145347392 19.798865291147827 14.254802493046364 #
vertex $-1 $231 $298 #
point $-1 68.727078145347392 26.168018085030035 14.254802493046364 #
straight-curve $-1 -71.155735953856009 42.532745614167133 0 0 0 -1 I I #
point $-1 -71.155735953856009 -42.532745614167133 -17.390567114486085 #
straight-curve $-1 -71.155735953856009 0 -17.390567114486085 0 1 0 I I #
point $-1 -71.155735953856009 42.532745614167133 -17.390567114486085 #
coedge $-1 $257 $253 $262 $290 forward $188 $-1 #
vertex $-1 $254 $299 #
straight-curve $-1 -71.155735953856009 0 17.390567114486085 0 -1 0 I I #
point $-1 -71.155735953856009 -24.752301165707799 17.390567114486085 #
straight-curve $-1 71.155735953856009 0 17.390567114486085 0 1 0 I I #
edge $-1 $286 -71.155735953856009 $266 71.155735953856009 $262 $300 forward 7 unknown #
straight-curve $-1 -71.155735953856009 -42.532745614167133 0 0 0 -1 I I #
point $-1 71.155735953856009 -42.532745614167133 17.390567114486085 #
straight-curve $-1 71.155735953856009 15.5527634285597 107.24958593006305 0 0 -1 I I #
point $-1 71.155735953856009 15.5527634285597 17.390567114486085 #
straight-curve $-1 71.155735953856009 11.491720844044469 13.240358206962043 0 1 0 I I #
point $-1 71.155735953856009 15.5527634285597 13.240358206962043 #
point $-1 68.019971364160853 19.798865291147827 14.254802501250607 #
point $-1 68.019971364160853 26.168018085030035 14.254802501250607 #
point $-1 -71.155735953856009 -42.532745614167133 17.390567114486085 #
straight-curve $-1 0 -42.532745614167133 17.390567114486085 1 0 0 I I #
End-of-ACIS-data 