500 0 9 0           
7 Unknown 11 ACIS 5.0 NT 24 Fri Mar 26 15:28:56 1999 
-1 9.9999999999999995e-007 1e-010 
body $-1 $9 $-1 $10 #
body $-1 $11 $-1 $12 #
body $-1 $13 $-1 $14 #
body $-1 $15 $-1 $16 #
body $-1 $17 $-1 $18 #
body $-1 $19 $-1 $20 #
body $-1 $21 $-1 $22 #
body $-1 $23 $-1 $24 #
body $-1 $25 $-1 $26 #
lump $-1 $-1 $27 $0 #
transform $-1 1 0 0 0 1 0 0 0 1 54.707480086672568 26.383874776990627 7.7515464977145019 1 rotate no_reflect no_shear #
lump $-1 $-1 $28 $1 #
transform $-1 1 0 0 0 1 0 0 0 1 54.707480086672568 26.383874776990627 7.7515464977145019 1 rotate no_reflect no_shear #
lump $-1 $-1 $29 $2 #
transform $-1 1 0 0 0 1 0 0 0 1 54.707480086672568 26.383874776990627 7.7515464977145019 1 rotate no_reflect no_shear #
lump $-1 $-1 $30 $3 #
transform $-1 1 0 0 0 1 0 0 0 1 54.707480086672568 26.383874776990627 7.7515464977145019 1 rotate no_reflect no_shear #
lump $-1 $-1 $31 $4 #
transform $-1 1 0 0 0 1 0 0 0 1 54.707480086672568 26.383874776990627 7.7515464977145019 1 rotate no_reflect no_shear #
lump $-1 $-1 $32 $5 #
transform $-1 1 0 0 0 1 0 0 0 1 54.707480086672568 26.383874776990627 7.7515464977145019 1 rotate no_reflect no_shear #
lump $-1 $-1 $33 $6 #
transform $-1 1 0 0 0 1 0 0 0 1 54.707480086672568 26.383874776990627 7.7515464977145019 1 rotate no_reflect no_shear #
lump $-1 $-1 $34 $7 #
transform $-1 1 0 0 0 1 0 0 0 1 54.707480086672568 26.383874776990627 7.7515464977145019 1 rotate no_reflect no_shear #
lump $-1 $-1 $35 $8 #
transform $-1 1 0 0 0 1 0 0 0 1 54.707480086672568 26.383874776990627 7.7515464977145019 1 rotate no_reflect no_shear #
shell $-1 $-1 $-1 $36 $-1 $9 #
shell $-1 $-1 $-1 $37 $-1 $11 #
shell $-1 $-1 $-1 $38 $-1 $13 #
shell $-1 $-1 $-1 $39 $-1 $15 #
shell $-1 $-1 $-1 $40 $-1 $17 #
shell $-1 $-1 $-1 $41 $-1 $19 #
shell $-1 $-1 $-1 $42 $-1 $21 #
shell $-1 $-1 $-1 $43 $-1 $23 #
shell $-1 $-1 $-1 $44 $-1 $25 #
face $-1 $45 $46 $27 $-1 $47 forward single #
face $-1 $48 $49 $28 $-1 $50 forward single #
face $-1 $51 $52 $29 $-1 $53 reversed single #
face $-1 $54 $55 $30 $-1 $56 forward single #
face $-1 $57 $58 $31 $-1 $59 forward single #
face $-1 $60 $61 $32 $-1 $62 forward single #
face $-1 $63 $64 $33 $-1 $65 reversed single #
face $-1 $66 $67 $34 $-1 $68 forward single #
face $-1 $69 $70 $35 $-1 $71 forward single #
face $-1 $72 $73 $27 $-1 $74 reversed single #
loop $-1 $-1 $75 $36 #
plane-surface $-1 0 0 7.7515464977145019 0 0 1 1 0 0 forward_v I I I I #
face $-1 $76 $77 $28 $-1 $78 reversed single #
loop $-1 $-1 $79 $37 #
plane-surface $-1 0 -23.269561392701643 7.0836804282194308 0 0 1 1 0 0 forward_v I I I I #
face $-1 $80 $81 $29 $-1 $82 reversed single #
loop $-1 $-1 $83 $38 #
plane-surface $-1 52.006964174539171 -10.593762830988069 158.09027422464254 0 1 0 0.69465837861970381 0 0.71933979245794832 forward_v I I I I #
face $-1 $84 $85 $30 $-1 $86 forward single #
loop $-1 $87 $88 $39 #
cone-surface $-1 51.859135810918978 -7.8627437019482507 4.960163787209825 -0.69465837861970381 0 -0.71933979245794832 0.71933979245794832 0 -0.69465837861970381 1 I I 0 1 1 forward I I I I #
face $-1 $89 $90 $31 $-1 $91 forward single #
loop $-1 $92 $93 $40 #
cone-surface $-1 51.859135810918978 -3.7662150083885173 4.960163787209825 -0.69465837861970381 0 -0.71933979245794832 0.71933979245794832 0 -0.69465837861970381 1 I I 0 1 1 forward I I I I #
face $-1 $94 $95 $32 $-1 $96 forward single #
loop $-1 $97 $98 $41 #
cone-surface $-1 51.859135810918978 0.33031368517121606 4.960163787209825 -0.69465837861970381 0 -0.71933979245794832 0.71933979245794832 0 -0.69465837861970381 1 I I 0 1 1 forward I I I I #
face $-1 $99 $100 $33 $-1 $101 reversed single #
loop $-1 $-1 $102 $42 #
plane-surface $-1 -145.41659395340949 -16.418604918902886 63.456521493370275 0 1 0 -0.82903758062907751 0 0.55919289150049634 forward_v I I I I #
face $-1 $103 $104 $34 $-1 $105 forward single #
loop $-1 $106 $107 $43 #
cone-surface $-1 -51.70263103231872 -13.4761577149741 4.231592556421873 0.82903758062907751 0 -0.55919289150049634 0.55919289150049634 0 0.82903758062907751 1 I I 0 1 1 forward I I I I #
face $-1 $108 $109 $35 $-1 $110 forward single #
loop $-1 $111 $112 $44 #
cone-surface $-1 -51.70263103231872 -9.0624869090809206 4.231592556421873 0.82903758062907751 0 -0.55919289150049634 0.55919289150049634 0 0.82903758062907751 1 I I 0 1 1 forward I I I I #
face $-1 $113 $114 $27 $-1 $115 reversed single #
loop $-1 $-1 $116 $45 #
plane-surface $-1 0 0 -7.7515464977145019 0 0 1 1 0 0 forward_v I I I I #
coedge $-1 $117 $118 $119 $120 forward $46 $-1 #
face $-1 $121 $122 $28 $-1 $123 reversed single #
loop $-1 $-1 $124 $48 #
plane-surface $-1 0 -23.269561392701643 2.6052561981027509 0 0 1 1 0 0 forward_v I I I I #
coedge $-1 $125 $126 $127 $128 reversed $49 $-1 #
face $-1 $129 $130 $29 $-1 $131 reversed single #
loop $-1 $-1 $132 $51 #
plane-surface $-1 -23.999054656216224 -3.7662150083885173 79.383739481753764 0.69465837861970381 0 0.71933979245794832 0.71933979245794832 0 -0.69465837861970381 forward_v I I I I #
coedge $-1 $133 $134 $135 $136 reversed $52 $-1 #
face $-1 $-1 $137 $30 $-1 $138 forward single #
loop $-1 $139 $140 $54 #
cone-surface $-1 50.92807692019904 -7.8627437019482507 3.9960241038342286 -0.69465837861970381 0 -0.71933979245794832 0.35966989622897416 0 -0.3473291893098519 1 I I -0.70710678118654746 0.70710678118654746 0.5 forward I I I I #
loop $-1 $-1 $141 $39 #
coedge $-1 $88 $88 $142 $143 reversed $55 $-1 #
face $-1 $-1 $144 $31 $-1 $145 forward single #
loop $-1 $146 $147 $57 #
cone-surface $-1 50.92807692019904 -3.7662150083885173 3.9960241038342286 -0.69465837861970381 0 -0.71933979245794832 0.35966989622897416 0 -0.3473291893098519 1 I I -0.70710678118654746 0.70710678118654746 0.5 forward I I I I #
loop $-1 $-1 $148 $40 #
coedge $-1 $93 $93 $149 $150 reversed $58 $-1 #
face $-1 $-1 $151 $32 $-1 $152 forward single #
loop $-1 $153 $154 $60 #
cone-surface $-1 50.92807692019904 0.33031368517121606 3.9960241038342286 -0.69465837861970381 0 -0.71933979245794832 0.35966989622897416 0 -0.3473291893098519 1 I I -0.70710678118654746 0.70710678118654746 0.5 forward I I I I #
loop $-1 $-1 $155 $41 #
coedge $-1 $98 $98 $156 $157 reversed $61 $-1 #
face $-1 $158 $159 $33 $-1 $160 reversed single #
loop $-1 $-1 $161 $63 #
plane-surface $-1 -54.707480086672561 -11.26932231202751 2.2724535406257615 -0.82903758062907751 0 0.55919289150049634 0.55919289150049634 0 0.82903758062907751 forward_v I I I I #
coedge $-1 $162 $163 $164 $165 reversed $64 $-1 #
face $-1 $-1 $166 $34 $-1 $167 forward single #
loop $-1 $168 $169 $66 #
cone-surface $-1 -50.131110562162348 -13.4761577149741 3.1715886479233735 0.82903758062907751 0 -0.55919289150049634 0.27959644575024817 0 0.41451879031453875 1 I I -0.70710678118654746 0.70710678118654746 0.5 forward I I I I #
loop $-1 $-1 $170 $43 #
coedge $-1 $107 $107 $171 $172 reversed $67 $-1 #
face $-1 $-1 $173 $35 $-1 $174 forward single #
loop $-1 $175 $176 $69 #
cone-surface $-1 -50.131110562162348 -9.0624869090809206 3.1715886479233735 0.82903758062907751 0 -0.55919289150049634 0.27959644575024817 0 0.41451879031453875 1 I I -0.70710678118654746 0.70710678118654746 0.5 forward I I I I #
loop $-1 $-1 $177 $44 #
coedge $-1 $112 $112 $178 $179 reversed $70 $-1 #
face $-1 $180 $181 $27 $-1 $182 reversed single #
loop $-1 $-1 $183 $72 #
plane-surface $-1 0 -26.383874776990627 0 0 1 0 0 0 1 forward_v I I I I #
coedge $-1 $184 $185 $186 $187 forward $73 $-1 #
coedge $-1 $188 $75 $189 $190 forward $46 $-1 #
coedge $-1 $75 $188 $191 $192 forward $46 $-1 #
coedge $-1 $193 $194 $75 $120 reversed $195 $-1 #
edge $-1 $196 -26.383874776990627 $197 26.383874776990627 $119 $198 forward 7 unknown #
face $-1 $199 $200 $28 $-1 $201 reversed single #
loop $-1 $-1 $202 $76 #
plane-surface $-1 0 -20.155248008412659 4.8444683131610908 0 -1 0 0 0 -1 forward_v I I I I #
coedge $-1 $203 $204 $205 $206 reversed $77 $-1 #
coedge $-1 $207 $79 $208 $209 forward $49 $-1 #
coedge $-1 $79 $207 $210 $211 reversed $49 $-1 #
coedge $-1 $212 $213 $79 $128 forward $214 $-1 #
edge $-1 $215 8.5204673120618377 $216 14.749094080639805 $127 $217 forward 7 unknown #
face $-1 $218 $219 $29 $-1 $220 forward single #
loop $-1 $-1 $221 $80 #
plane-surface $-1 52.006964174539171 3.0613328142110356 158.09027422464254 0 -1 0 -0.69465837861970381 0 -0.71933979245794832 forward_v I I I I #
coedge $-1 $222 $223 $224 $225 reversed $81 $-1 #
coedge $-1 $134 $83 $226 $227 reversed $52 $-1 #
coedge $-1 $83 $133 $222 $228 reversed $52 $-1 #
coedge $-1 $224 $229 $83 $136 forward $230 $-1 #
edge $-1 $231 71.293590614606771 $232 75.667416461322929 $135 $233 forward 7 unknown #
loop $-1 $-1 $142 $84 #
plane-surface $-1 -23.999054656216224 -3.7662150083885173 79.383739481753764 0.69465837861970381 0 0.71933979245794832 0.71933979245794832 0 -0.69465837861970381 forward_v I I I I #
loop $-1 $-1 $234 $54 #
coedge $-1 $140 $140 $141 $235 reversed $85 $-1 #
coedge $-1 $141 $141 $140 $235 forward $87 $-1 #
coedge $-1 $142 $142 $88 $143 forward $137 $-1 #
edge $-1 $236 0 $236 6.2831853071796004 $142 $237 forward 7 unknown #
loop $-1 $-1 $149 $89 #
plane-surface $-1 -23.999054656216224 -3.7662150083885173 79.383739481753764 0.69465837861970381 0 0.71933979245794832 0.71933979245794832 0 -0.69465837861970381 forward_v I I I I #
loop $-1 $-1 $238 $57 #
coedge $-1 $147 $147 $148 $239 reversed $90 $-1 #
coedge $-1 $148 $148 $147 $239 forward $92 $-1 #
coedge $-1 $149 $149 $93 $150 forward $144 $-1 #
edge $-1 $240 0 $240 6.2831853071796004 $149 $241 forward 7 unknown #
loop $-1 $-1 $156 $94 #
plane-surface $-1 -23.999054656216224 -3.7662150083885173 79.383739481753764 0.69465837861970381 0 0.71933979245794832 0.71933979245794832 0 -0.69465837861970381 forward_v I I I I #
loop $-1 $-1 $242 $60 #
coedge $-1 $154 $154 $155 $243 reversed $95 $-1 #
coedge $-1 $155 $155 $154 $243 forward $97 $-1 #
coedge $-1 $156 $156 $98 $157 forward $151 $-1 #
edge $-1 $244 0 $244 6.2831853071796004 $156 $245 forward 7 unknown #
face $-1 $246 $247 $33 $-1 $248 reversed single #
loop $-1 $-1 $249 $99 #
plane-surface $-1 -145.41659395340949 -6.1200397051521342 63.456521493370275 0 -1 0 0.82903758062907751 0 -0.55919289150049634 forward_v I I I I #
coedge $-1 $250 $251 $252 $253 reversed $100 $-1 #
coedge $-1 $163 $102 $254 $255 reversed $64 $-1 #
coedge $-1 $102 $162 $250 $256 reversed $64 $-1 #
coedge $-1 $252 $257 $102 $165 forward $258 $-1 #
edge $-1 $259 18.000816890032176 $260 21.696511639056205 $164 $261 forward 7 unknown #
loop $-1 $-1 $171 $103 #
plane-surface $-1 -54.707480086672561 -11.26932231202751 2.2724535406257615 -0.82903758062907751 0 0.55919289150049634 0.55919289150049634 0 0.82903758062907751 forward_v I I I I #
loop $-1 $-1 $262 $66 #
coedge $-1 $169 $169 $170 $263 reversed $104 $-1 #
coedge $-1 $170 $170 $169 $263 forward $106 $-1 #
coedge $-1 $171 $171 $107 $172 forward $166 $-1 #
edge $-1 $264 0 $264 6.2831853071796004 $171 $265 forward 7 unknown #
loop $-1 $-1 $178 $108 #
plane-surface $-1 -54.707480086672561 -11.26932231202751 2.2724535406257615 -0.82903758062907751 0 0.55919289150049634 0.55919289150049634 0 0.82903758062907751 forward_v I I I I #
loop $-1 $-1 $266 $69 #
coedge $-1 $176 $176 $177 $267 reversed $109 $-1 #
coedge $-1 $177 $177 $176 $267 forward $111 $-1 #
coedge $-1 $178 $178 $112 $179 forward $173 $-1 #
edge $-1 $268 0 $268 6.2831853071796004 $178 $269 forward 7 unknown #
face $-1 $270 $271 $27 $-1 $272 reversed single #
loop $-1 $-1 $273 $113 #
plane-surface $-1 -54.707480086672568 0 0 1 0 0 0 0 -1 forward_v I I I I #
coedge $-1 $274 $191 $275 $276 forward $114 $-1 #
coedge $-1 $277 $116 $274 $278 forward $73 $-1 #
coedge $-1 $116 $277 $279 $280 forward $73 $-1 #
coedge $-1 $194 $193 $116 $187 reversed $195 $-1 #
edge $-1 $281 -26.383874776990627 $282 26.383874776990627 $186 $283 forward 7 unknown #
coedge $-1 $118 $117 $284 $285 forward $46 $-1 #
coedge $-1 $286 $287 $117 $190 reversed $271 $-1 #
edge $-1 $197 -54.707480086672568 $288 54.707480086672568 $189 $289 forward 7 unknown #
coedge $-1 $183 $290 $118 $192 reversed $114 $-1 #
edge $-1 $291 -54.707480086672568 $196 54.707480086672568 $191 $292 forward 7 unknown #
coedge $-1 $186 $119 $290 $293 forward $195 $-1 #
coedge $-1 $119 $186 $286 $294 reversed $195 $-1 #
loop $-1 $-1 $193 $270 #
vertex $-1 $120 $295 #
vertex $-1 $120 $296 #
straight-curve $-1 54.707480086672568 0 7.7515464977145019 0 1 0 I I #
face $-1 $297 $298 $28 $-1 $299 reversed single #
loop $-1 $-1 $300 $121 #
plane-surface $-1 -54.707480086672568 0 0 1 0 0 0 0 -1 forward_v I I I I #
coedge $-1 $301 $208 $213 $302 reversed $122 $-1 #
coedge $-1 $303 $124 $304 $305 reversed $77 $-1 #
coedge $-1 $124 $303 $301 $306 forward $77 $-1 #
coedge $-1 $213 $212 $124 $206 forward $214 $-1 #
edge $-1 $307 -14.749094080639805 $308 -8.5204673120618377 $205 $309 forward 7 unknown #
coedge $-1 $126 $125 $300 $310 reversed $49 $-1 #
coedge $-1 $202 $311 $125 $209 reversed $122 $-1 #
edge $-1 $215 -54.707480086672568 $312 54.707480086672568 $208 $313 forward 7 unknown #
coedge $-1 $314 $315 $126 $211 forward $298 $-1 #
edge $-1 $216 -54.707480086672568 $316 54.707480086672568 $210 $317 forward 7 unknown #
coedge $-1 $205 $127 $315 $318 forward $214 $-1 #
coedge $-1 $127 $205 $202 $302 forward $214 $-1 #
loop $-1 $-1 $127 $297 #
vertex $-1 $128 $319 #
vertex $-1 $318 $320 #
straight-curve $-1 54.707480086672568 -11.634780696350822 7.0836804282194308 0 -1 0 I I #
face $-1 $-1 $230 $29 $-1 $321 reversed single #
loop $-1 $-1 $322 $129 #
plane-surface $-1 0 0 7.7515464977145019 0 0 1 1 0 0 forward_v I I I I #
coedge $-1 $323 $324 $325 $326 reversed $130 $-1 #
coedge $-1 $327 $132 $134 $228 forward $81 $-1 #
coedge $-1 $132 $327 $323 $328 forward $81 $-1 #
coedge $-1 $325 $135 $132 $225 forward $230 $-1 #
edge $-1 $232 -8.7106553267938107 $329 4.9444403184052943 $224 $330 forward 7 unknown #
coedge $-1 $331 $332 $133 $227 forward $219 $-1 #
edge $-1 $333 24.174768850715989 $231 28.703997999402983 $226 $334 forward 7 unknown #
edge $-1 $232 -109.41496017334515 $333 -103.11859064648937 $134 $335 forward 7 unknown #
coedge $-1 $135 $325 $331 $336 reversed $230 $-1 #
loop $-1 $-1 $325 $218 #
vertex $-1 $336 $337 #
vertex $-1 $136 $338 #
straight-curve $-1 54.707480086672568 -10.593762830988069 79.045137112321271 0 0 -1 I I #
coedge $-1 $234 $234 $-1 $339 reversed $139 $-1 #
edge $-1 $340 0 $340 6.2831853071796004 $140 $341 forward 7 unknown #
vertex $-1 $143 $342 #
ellipse-curve $-1 52.442865512329057 -7.8627437019482507 5.5646335743564403 0.69465837861970381 0 0.71933979245794832 0.71933979245794832 0 -0.69465837861970381 1 I I #
coedge $-1 $238 $238 $-1 $343 reversed $146 $-1 #
edge $-1 $344 0 $344 6.2831853071796004 $147 $345 forward 7 unknown #
vertex $-1 $150 $346 #
ellipse-curve $-1 52.442865512329057 -3.7662150083885173 5.5646335743564403 0.69465837861970381 0 0.71933979245794832 0.71933979245794832 0 -0.69465837861970381 1 I I #
coedge $-1 $242 $242 $-1 $347 reversed $153 $-1 #
edge $-1 $348 0 $348 6.2831853071796004 $154 $349 forward 7 unknown #
vertex $-1 $157 $350 #
ellipse-curve $-1 52.442865512329057 0.33031368517121606 5.5646335743564403 0.69465837861970381 0 0.71933979245794832 0.71933979245794832 0 -0.69465837861970381 1 I I #
face $-1 $-1 $258 $33 $-1 $351 forward single #
loop $-1 $-1 $352 $158 #
plane-surface $-1 -54.707480086672568 0 0 1 0 0 0 0 -1 forward_v I I I I #
coedge $-1 $353 $354 $355 $356 reversed $159 $-1 #
coedge $-1 $357 $161 $163 $256 forward $100 $-1 #
coedge $-1 $161 $357 $353 $358 forward $100 $-1 #
coedge $-1 $355 $164 $161 $253 forward $258 $-1 #
edge $-1 $260 -10.78394376288913 $359 -0.48537854913837908 $252 $360 forward 7 unknown #
coedge $-1 $361 $362 $162 $255 forward $247 $-1 #
edge $-1 $363 -29.455807206059387 $259 -23.976714248970637 $254 $364 forward 7 unknown #
edge $-1 $260 -6.6089802019966104 $363 1.2809303928265426e-014 $163 $365 forward 7 unknown #
coedge $-1 $164 $355 $361 $366 forward $258 $-1 #
loop $-1 $-1 $355 $246 #
vertex $-1 $255 $367 #
vertex $-1 $165 $368 #
straight-curve $-1 -72.708296976704744 -16.418604918902886 7.7515464977145001 1 0 0 I I #
coedge $-1 $262 $262 $-1 $369 reversed $168 $-1 #
edge $-1 $370 0 $370 6.2831853071796004 $169 $371 forward 7 unknown #
vertex $-1 $172 $372 #
ellipse-curve $-1 -52.859632712160554 -13.4761577149741 5.0120000191701255 -0.82903758062907751 0 0.55919289150049634 0.55919289150049634 0 0.82903758062907751 1 I I #
coedge $-1 $266 $266 $-1 $373 reversed $175 $-1 #
edge $-1 $374 0 $374 6.2831853071796004 $176 $375 forward 7 unknown #
vertex $-1 $179 $376 #
ellipse-curve $-1 -52.859632712160554 -9.0624869090809206 5.0120000191701255 -0.82903758062907751 0 0.55919289150049634 0.55919289150049634 0 0.82903758062907751 1 I I #
face $-1 $-1 $195 $27 $-1 $377 reversed single #
loop $-1 $-1 $286 $180 #
plane-surface $-1 0 26.383874776990627 0 0 -1 0 0 0 -1 forward_v I I I I #
coedge $-1 $378 $284 $287 $379 forward $181 $-1 #
coedge $-1 $290 $183 $184 $278 reversed $114 $-1 #
coedge $-1 $284 $378 $183 $276 reversed $181 $-1 #
edge $-1 $291 -7.7515464977145019 $380 7.7515464977145019 $275 $381 forward 7 unknown #
coedge $-1 $185 $184 $378 $382 forward $73 $-1 #
edge $-1 $282 -54.707480086672568 $380 54.707480086672568 $274 $383 forward 7 unknown #
coedge $-1 $287 $286 $185 $280 reversed $271 $-1 #
edge $-1 $384 -54.707480086672568 $281 54.707480086672568 $279 $385 forward 7 unknown #
vertex $-1 $187 $386 #
vertex $-1 $293 $387 #
straight-curve $-1 54.707480086672568 0 -7.7515464977145019 0 -1 0 I I #
coedge $-1 $273 $275 $188 $285 reversed $181 $-1 #
edge $-1 $288 -26.383874776990627 $291 26.383874776990627 $284 $388 forward 7 unknown #
coedge $-1 $279 $189 $194 $294 forward $271 $-1 #
coedge $-1 $189 $279 $273 $379 reversed $271 $-1 #
vertex $-1 $190 $389 #
straight-curve $-1 0 26.383874776990627 7.7515464977145019 -1 0 0 I I #
coedge $-1 $191 $274 $193 $293 reversed $114 $-1 #
vertex $-1 $285 $390 #
straight-curve $-1 0 -26.383874776990627 7.7515464977145019 1 0 0 I I #
edge $-1 $196 -7.7515464977145019 $282 7.7515464977145019 $193 $391 forward 7 unknown #
edge $-1 $197 -7.7515464977145019 $281 7.7515464977145019 $194 $392 forward 7 unknown #
point $-1 54.707480086672568 -26.383874776990627 7.7515464977145019 #
point $-1 54.707480086672568 26.383874776990627 7.7515464977145019 #
face $-1 $-1 $214 $28 $-1 $393 reversed single #
loop $-1 $-1 $210 $199 #
plane-surface $-1 0 -26.383874776990627 0 0 1 0 0 0 1 forward_v I I I I #
coedge $-1 $394 $395 $207 $310 forward $200 $-1 #
coedge $-1 $311 $202 $204 $306 reversed $122 $-1 #
edge $-1 $308 0.18302204152220547 $215 4.6614462716388854 $213 $396 forward 7 unknown #
coedge $-1 $204 $203 $397 $398 reversed $77 $-1 #
coedge $-1 $315 $314 $203 $305 forward $298 $-1 #
edge $-1 $399 -54.707480086672568 $307 54.707480086672568 $304 $400 forward 7 unknown #
edge $-1 $401 -54.707480086672568 $308 54.707480086672568 $301 $402 forward 7 unknown #
vertex $-1 $305 $403 #
vertex $-1 $206 $404 #
straight-curve $-1 54.707480086672568 -11.634780696350822 2.6052561981027509 0 1 0 I I #
edge $-1 $316 -14.749094080639805 $312 -8.5204673120618377 $300 $405 forward 7 unknown #
coedge $-1 $208 $301 $394 $406 reversed $122 $-1 #
vertex $-1 $310 $407 #
straight-curve $-1 0 -20.155248008412659 7.0836804282194308 -1 0 0 I I #
coedge $-1 $304 $210 $395 $408 forward $298 $-1 #
coedge $-1 $210 $304 $212 $318 reversed $298 $-1 #
vertex $-1 $408 $409 #
straight-curve $-1 0 -26.383874776990627 7.0836804282194308 -1 0 0 I I #
edge $-1 $216 -7.0836804282194308 $307 -2.6052561981027509 $212 $410 forward 7 unknown #
point $-1 54.707480086672568 -20.155248008412659 7.0836804282194308 #
point $-1 54.707480086672568 -26.383874776990627 7.0836804282194308 #
plane-surface $-1 54.707480086672568 0 0 -1 0 0 0 0 1 forward_v I I I I #
coedge $-1 $332 $331 $324 $411 forward $219 $-1 #
coedge $-1 $324 $221 $223 $328 reversed $130 $-1 #
coedge $-1 $221 $323 $322 $411 reversed $130 $-1 #
coedge $-1 $229 $224 $221 $326 forward $230 $-1 #
edge $-1 $329 -75.667416461322929 $412 -71.293590614606771 $325 $413 forward 7 unknown #
coedge $-1 $223 $222 $332 $414 reversed $81 $-1 #
edge $-1 $415 103.11859064648937 $329 109.41496017334515 $323 $416 forward 7 unknown #
vertex $-1 $225 $417 #
straight-curve $-1 54.707480086672561 -1.8831075041942587 3.3777206509983486 0 1 0 I I #
coedge $-1 $322 $226 $229 $336 forward $219 $-1 #
coedge $-1 $226 $322 $327 $414 forward $219 $-1 #
vertex $-1 $227 $418 #
straight-curve $-1 26.003482087269585 -10.593762830988069 7.7515464977145001 1 0 0 I I #
straight-curve $-1 -23.999054656216224 -10.593762830988069 79.383739481753764 -0.71933979245794832 0 0.69465837861970381 I I #
edge $-1 $231 -10.593762830988069 $412 3.0613328142110356 $229 $419 forward 7 unknown #
point $-1 54.707480086672568 -10.593762830988069 7.7515464977145019 #
point $-1 54.707480086672568 -10.593762830988069 3.3777206509983415 #
edge $-1 $420 1 $420 0 $234 $-1 forward 7 unknown #
vertex $-1 $235 $421 #
ellipse-curve $-1 51.275406109508893 -7.8627437019482507 4.3556940000632025 0.69465837861970381 0 0.71933979245794832 0.71933979245794832 0 -0.69465837861970381 1 I I #
point $-1 53.162205304787008 -7.8627437019482507 4.8699751957367434 #
edge $-1 $422 1 $422 0 $238 $-1 forward 7 unknown #
vertex $-1 $239 $423 #
ellipse-curve $-1 51.275406109508893 -3.7662150083885173 4.3556940000632025 0.69465837861970381 0 0.71933979245794832 0.71933979245794832 0 -0.69465837861970381 1 I I #
point $-1 53.162205304787008 -3.7662150083885173 4.8699751957367434 #
edge $-1 $424 1 $424 0 $242 $-1 forward 7 unknown #
vertex $-1 $243 $425 #
ellipse-curve $-1 51.275406109508893 0.33031368517121606 4.3556940000632025 0.69465837861970381 0 0.71933979245794832 0.71933979245794832 0 -0.69465837861970381 1 I I #
point $-1 53.162205304787008 0.33031368517121606 4.8699751957367434 #
plane-surface $-1 0 0 7.7515464977145019 0 0 1 1 0 0 forward_v I I I I #
coedge $-1 $362 $361 $354 $426 forward $247 $-1 #
coedge $-1 $354 $249 $251 $358 reversed $159 $-1 #
coedge $-1 $249 $353 $352 $426 reversed $159 $-1 #
coedge $-1 $257 $252 $249 $356 forward $258 $-1 #
edge $-1 $359 -21.696511639056205 $427 -18.000816890032176 $355 $428 forward 7 unknown #
coedge $-1 $251 $250 $362 $429 reversed $100 $-1 #
edge $-1 $430 -1.2809303928265426e-014 $359 6.6089802019966104 $353 $431 forward 7 unknown #
vertex $-1 $253 $432 #
straight-curve $-1 -51.011785337648547 -5.6346611560137552 7.7515464977145037 0 1 0 I I #
coedge $-1 $352 $254 $257 $366 reversed $247 $-1 #
coedge $-1 $254 $352 $357 $429 forward $247 $-1 #
vertex $-1 $255 $433 #
straight-curve $-1 -54.707480086672568 -16.418604918902886 31.728260746685137 0 0 1 I I #
straight-curve $-1 -54.707480086672561 -16.418604918902886 2.2724535406257615 -0.55919289150049634 0 -0.82903758062907751 I I #
edge $-1 $427 6.1200397051521342 $259 16.418604918902886 $361 $434 forward 7 unknown #
point $-1 -54.707480086672568 -16.418604918902886 7.7515464977145019 #
point $-1 -51.01178533764854 -16.418604918902886 7.7515464977145019 #
edge $-1 $435 1 $435 0 $262 $-1 forward 7 unknown #
vertex $-1 $263 $436 #
ellipse-curve $-1 -50.545629352476887 -13.4761577149741 3.4511850936736215 -0.82903758062907751 0 0.55919289150049634 0.55919289150049634 0 0.82903758062907751 1 I I #
point $-1 -52.30043982066006 -13.4761577149741 5.8410375997992023 #
edge $-1 $437 1 $437 0 $266 $-1 forward 7 unknown #
vertex $-1 $267 $438 #
ellipse-curve $-1 -50.545629352476887 -9.0624869090809206 3.4511850936736215 -0.82903758062907751 0 0.55919289150049634 0.55919289150049634 0 0.82903758062907751 1 I I #
point $-1 -52.30043982066006 -9.0624869090809206 5.8410375997992023 #
plane-surface $-1 54.707480086672568 0 0 -1 0 0 0 0 1 forward_v I I I I #
coedge $-1 $275 $273 $277 $382 reversed $181 $-1 #
edge $-1 $288 -7.7515464977145019 $384 7.7515464977145019 $287 $439 forward 7 unknown #
vertex $-1 $382 $440 #
straight-curve $-1 -54.707480086672568 -26.383874776990627 0 0 0 -1 I I #
edge $-1 $380 -26.383874776990627 $384 26.383874776990627 $378 $441 forward 7 unknown #
straight-curve $-1 0 -26.383874776990627 -7.7515464977145019 -1 0 0 I I #
vertex $-1 $280 $442 #
straight-curve $-1 0 26.383874776990627 -7.7515464977145019 1 0 0 I I #
point $-1 54.707480086672568 26.383874776990627 -7.7515464977145019 #
point $-1 54.707480086672568 -26.383874776990627 -7.7515464977145019 #
straight-curve $-1 -54.707480086672568 0 7.7515464977145019 0 -1 0 I I #
point $-1 -54.707480086672568 26.383874776990627 7.7515464977145019 #
point $-1 -54.707480086672568 -26.383874776990627 7.7515464977145019 #
straight-curve $-1 54.707480086672568 -26.383874776990627 0 0 0 -1 I I #
straight-curve $-1 54.707480086672568 26.383874776990627 0 0 0 -1 I I #
plane-surface $-1 54.707480086672568 0 0 -1 0 0 0 0 1 forward_v I I I I #
coedge $-1 $397 $300 $311 $406 forward $200 $-1 #
coedge $-1 $300 $397 $314 $408 reversed $200 $-1 #
straight-curve $-1 54.707480086672568 -20.155248008412659 2.4222341565805454 0 0 1 I I #
coedge $-1 $395 $394 $303 $398 forward $200 $-1 #
edge $-1 $401 8.5204673120618377 $399 14.749094080639805 $397 $443 forward 7 unknown #
vertex $-1 $305 $444 #
straight-curve $-1 0 -26.383874776990627 2.6052561981027509 1 0 0 I I #
vertex $-1 $398 $445 #
straight-curve $-1 0 -20.155248008412659 2.6052561981027509 1 0 0 I I #
point $-1 54.707480086672568 -26.383874776990627 2.6052561981027509 #
point $-1 54.707480086672568 -20.155248008412659 2.6052561981027509 #
straight-curve $-1 -54.707480086672568 -11.634780696350822 7.0836804282194308 0 1 0 I I #
edge $-1 $312 -4.6614462716388854 $401 -0.18302204152220547 $394 $446 forward 7 unknown #
point $-1 -54.707480086672568 -20.155248008412659 7.0836804282194308 #
edge $-1 $316 -7.0836804282194308 $399 -2.6052561981027509 $395 $447 forward 7 unknown #
point $-1 -54.707480086672568 -26.383874776990627 7.0836804282194308 #
straight-curve $-1 54.707480086672568 -26.383874776990627 0 0 0 -1 I I #
edge $-1 $412 -28.703997999402983 $415 -24.174768850715989 $322 $448 forward 7 unknown #
vertex $-1 $411 $449 #
straight-curve $-1 54.707480086672568 3.0613328142110356 79.045137112321271 0 0 1 I I #
edge $-1 $415 -4.9444403184052943 $333 8.7106553267938107 $332 $450 forward 7 unknown #
vertex $-1 $414 $451 #
straight-curve $-1 -23.999054656216224 3.0613328142110356 79.383739481753764 0.71933979245794832 0 -0.69465837861970381 I I #
point $-1 54.707480086672568 3.0613328142110356 3.3777206509983415 #
point $-1 50.178250937985574 -10.593762830988069 7.7515464977145001 #
straight-curve $-1 54.707480086672568 0 7.7515464977145019 0 1 0 I I #
vertex $-1 $339 $452 #
point $-1 51.994745901966837 -7.8627437019482507 3.6610356214434989 #
vertex $-1 $343 $453 #
point $-1 51.994745901966837 -3.7662150083885173 3.6610356214434989 #
vertex $-1 $347 $454 #
point $-1 51.994745901966837 0.33031368517121606 3.6610356214434989 #
edge $-1 $427 23.976714248970637 $430 29.455807206059387 $352 $455 forward 7 unknown #
vertex $-1 $366 $456 #
straight-curve $-1 -72.708296976704744 -6.1200397051521342 7.7515464977145001 -1 0 0 I I #
edge $-1 $430 0.48537854913837908 $363 10.78394376288913 $362 $457 forward 7 unknown #
vertex $-1 $429 $458 #
straight-curve $-1 -54.707480086672561 -6.1200397051521342 2.2724535406257615 0.55919289150049634 0 0.82903758062907751 I I #
point $-1 -51.01178533764854 -6.1200397051521342 7.7515464977145019 #
point $-1 -54.707480086672568 -16.418604918902886 2.2724535406257509 #
straight-curve $-1 -54.707480086672568 0 7.7515464977145019 0 -1 0 I I #
vertex $-1 $369 $459 #
point $-1 -49.986436460976392 -13.4761577149741 4.2802226743026992 #
vertex $-1 $373 $460 #
point $-1 -49.986436460976392 -9.0624869090809206 4.2802226743026992 #
straight-curve $-1 -54.707480086672568 26.383874776990627 0 0 0 -1 I I #
point $-1 -54.707480086672568 -26.383874776990627 -7.7515464977145019 #
straight-curve $-1 -54.707480086672568 0 -7.7515464977145019 0 1 0 I I #
point $-1 -54.707480086672568 26.383874776990627 -7.7515464977145019 #
straight-curve $-1 -54.707480086672568 -11.634780696350822 2.6052561981027509 0 -1 0 I I #
point $-1 -54.707480086672568 -26.383874776990627 2.6052561981027509 #
point $-1 -54.707480086672568 -20.155248008412659 2.6052561981027509 #
straight-curve $-1 -54.707480086672568 -20.155248008412659 2.4222341565805454 0 0 -1 I I #
straight-curve $-1 -54.707480086672568 -26.383874776990627 0 0 0 -1 I I #
straight-curve $-1 26.003482087269585 3.0613328142110356 7.7515464977145001 -1 0 0 I I #
point $-1 54.707480086672568 3.0613328142110356 7.7515464977145019 #
straight-curve $-1 50.178250937985581 -1.8831075041942587 7.751546497714493 0 -1 0 I I #
point $-1 50.178250937985574 3.0613328142110356 7.7515464977145001 #
point $-1 50.580747730889186 -7.8627437019482507 3.6363542076052546 #
point $-1 50.580747730889186 -3.7662150083885173 3.6363542076052546 #
point $-1 50.580747730889186 0.33031368517121606 3.6363542076052546 #
straight-curve $-1 -54.707480086672568 -6.1200397051521342 31.728260746685137 0 0 -1 I I #
point $-1 -54.707480086672568 -6.1200397051521342 7.7515464977145019 #
straight-curve $-1 -54.707480086672568 -5.6346611560137552 2.2724535406257425 0 -1 0 I I #
point $-1 -54.707480086672568 -6.1200397051521342 2.2724535406257509 #
point $-1 -49.71659177184781 -13.4761577149741 2.8919922021731255 #
point $-1 -49.71659177184781 -9.0624869090809206 2.8919922021731255 #
End-of-ACIS-data 