500 0 18 0           
7 Unknown 11 ACIS 5.0 NT 24 Thu Mar 25 17:05:03 1999 
-1 9.9999999999999995e-007 1e-010 
body $-1 $18 $-1 $19 #
body $-1 $20 $-1 $21 #
body $-1 $22 $-1 $23 #
body $-1 $24 $-1 $25 #
body $-1 $26 $-1 $27 #
body $-1 $28 $-1 $29 #
body $-1 $30 $-1 $31 #
body $-1 $32 $-1 $33 #
body $-1 $34 $-1 $35 #
body $-1 $36 $-1 $37 #
body $-1 $38 $-1 $39 #
body $-1 $40 $-1 $41 #
body $-1 $42 $-1 $43 #
body $-1 $44 $-1 $45 #
body $-1 $46 $-1 $47 #
body $-1 $48 $-1 $49 #
body $-1 $50 $-1 $51 #
body $-1 $52 $-1 $53 #
lump $-1 $-1 $54 $0 #
transform $-1 1 0 0 0 1 0 0 0 1 53.48185674611652 26.798054902374769 10.834864069266073 1 rotate no_reflect no_shear #
lump $-1 $-1 $55 $1 #
transform $-1 1 0 0 0 1 0 0 0 1 53.48185674611652 26.798054902374769 10.834864069266073 1 rotate no_reflect no_shear #
lump $-1 $-1 $56 $2 #
transform $-1 1 0 0 0 1 0 0 0 1 53.48185674611652 26.798054902374769 10.834864069266073 1 rotate no_reflect no_shear #
lump $-1 $-1 $57 $3 #
transform $-1 1 0 0 0 1 0 0 0 1 53.48185674611652 26.798054902374769 10.834864069266073 1 rotate no_reflect no_shear #
lump $-1 $-1 $58 $4 #
transform $-1 1 0 0 0 1 0 0 0 1 53.48185674611652 26.798054902374769 10.834864069266073 1 rotate no_reflect no_shear #
lump $-1 $-1 $59 $5 #
transform $-1 1 0 0 0 1 0 0 0 1 53.48185674611652 26.798054902374769 10.834864069266073 1 rotate no_reflect no_shear #
lump $-1 $-1 $60 $6 #
transform $-1 1 0 0 0 1 0 0 0 1 53.48185674611652 26.798054902374769 10.834864069266073 1 rotate no_reflect no_shear #
lump $-1 $-1 $61 $7 #
transform $-1 1 0 0 0 1 0 0 0 1 53.48185674611652 26.798054902374769 10.834864069266073 1 rotate no_reflect no_shear #
lump $-1 $-1 $62 $8 #
transform $-1 1 0 0 0 1 0 0 0 1 53.48185674611652 26.798054902374769 10.834864069266073 1 rotate no_reflect no_shear #
lump $-1 $-1 $63 $9 #
transform $-1 1 0 0 0 1 0 0 0 1 53.48185674611652 26.798054902374769 10.834864069266073 1 rotate no_reflect no_shear #
lump $-1 $-1 $64 $10 #
transform $-1 1 0 0 0 1 0 0 0 1 53.48185674611652 26.798054902374769 10.834864069266073 1 rotate no_reflect no_shear #
lump $-1 $-1 $65 $11 #
transform $-1 1 0 0 0 1 0 0 0 1 53.48185674611652 26.798054902374769 10.834864069266073 1 rotate no_reflect no_shear #
lump $-1 $-1 $66 $12 #
transform $-1 1 0 0 0 1 0 0 0 1 53.48185674611652 26.798054902374769 10.834864069266073 1 rotate no_reflect no_shear #
lump $-1 $-1 $67 $13 #
transform $-1 1 0 0 0 1 0 0 0 1 53.48185674611652 26.798054902374769 10.834864069266073 1 rotate no_reflect no_shear #
lump $-1 $-1 $68 $14 #
transform $-1 1 0 0 0 1 0 0 0 1 53.48185674611652 26.798054902374769 10.834864069266073 1 rotate no_reflect no_shear #
lump $-1 $-1 $69 $15 #
transform $-1 1 0 0 0 1 0 0 0 1 53.48185674611652 26.798054902374769 10.834864069266073 1 rotate no_reflect no_shear #
lump $-1 $-1 $70 $16 #
transform $-1 1 0 0 0 1 0 0 0 1 53.48185674611652 26.798054902374769 10.834864069266073 1 rotate no_reflect no_shear #
lump $-1 $-1 $71 $17 #
transform $-1 1 0 0 0 1 0 0 0 1 53.48185674611652 26.798054902374769 10.834864069266073 1 rotate no_reflect no_shear #
shell $-1 $-1 $-1 $72 $-1 $18 #
shell $-1 $-1 $-1 $73 $-1 $20 #
shell $-1 $-1 $-1 $74 $-1 $22 #
shell $-1 $-1 $-1 $75 $-1 $24 #
shell $-1 $-1 $-1 $76 $-1 $26 #
shell $-1 $-1 $-1 $77 $-1 $28 #
shell $-1 $-1 $-1 $78 $-1 $30 #
shell $-1 $-1 $-1 $79 $-1 $32 #
shell $-1 $-1 $-1 $80 $-1 $34 #
shell $-1 $-1 $-1 $81 $-1 $36 #
shell $-1 $-1 $-1 $82 $-1 $38 #
shell $-1 $-1 $-1 $83 $-1 $40 #
shell $-1 $-1 $-1 $84 $-1 $42 #
shell $-1 $-1 $-1 $85 $-1 $44 #
shell $-1 $-1 $-1 $86 $-1 $46 #
shell $-1 $-1 $-1 $87 $-1 $48 #
shell $-1 $-1 $-1 $88 $-1 $50 #
shell $-1 $-1 $-1 $89 $-1 $52 #
face $-1 $90 $91 $54 $-1 $92 forward single #
face $-1 $93 $94 $55 $-1 $95 forward single #
face $-1 $96 $97 $56 $-1 $98 forward single #
face $-1 $99 $100 $57 $-1 $101 reversed single #
face $-1 $102 $103 $58 $-1 $104 forward single #
face $-1 $105 $106 $59 $-1 $107 forward single #
face $-1 $108 $109 $60 $-1 $110 reversed single #
face $-1 $111 $112 $61 $-1 $113 forward single #
face $-1 $114 $115 $62 $-1 $116 forward single #
face $-1 $117 $118 $63 $-1 $119 forward single #
face $-1 $120 $121 $64 $-1 $122 reversed single #
face $-1 $123 $124 $65 $-1 $125 forward single #
face $-1 $126 $127 $66 $-1 $128 forward single #
face $-1 $129 $130 $67 $-1 $131 forward single #
face $-1 $132 $133 $68 $-1 $134 reversed single #
face $-1 $135 $136 $69 $-1 $137 forward single #
face $-1 $138 $139 $70 $-1 $140 forward single #
face $-1 $141 $142 $71 $-1 $143 forward single #
face $-1 $144 $145 $54 $-1 $146 reversed single #
loop $-1 $-1 $147 $72 #
plane-surface $-1 0 0 10.834864069266073 0 0 1 1 0 0 forward_v I I I I #
face $-1 $148 $149 $55 $-1 $150 reversed single #
loop $-1 $-1 $151 $73 #
plane-surface $-1 0 -21.550299742295497 -6.8332356628375264 0 0 1 1 0 0 forward_v I I I I #
face $-1 $152 $153 $56 $-1 $154 reversed single #
loop $-1 $-1 $155 $74 #
plane-surface $-1 0 21.550299742295497 -6.8332356628375264 0 0 1 1 0 0 forward_v I I I I #
face $-1 $156 $157 $57 $-1 $158 reversed single #
loop $-1 $-1 $159 $75 #
plane-surface $-1 -114.83372314056275 -5.7551191818917555 88.111150833841961 0 -1 0 0.57357644374324357 0 -0.81915203911291934 forward_v I I I I #
face $-1 $160 $161 $58 $-1 $162 forward single #
loop $-1 $163 $164 $76 #
cone-surface $-1 -45.80087218623791 -10.238096251834641 5.2417410069451771 0.57357644374324357 0 -0.81915203911291934 0.40957601955645967 0 0.28678822187162178 1 I I 0 1 0.5 forward I I I I #
face $-1 $165 $166 $59 $-1 $167 forward single #
loop $-1 $168 $169 $77 #
cone-surface $-1 -45.80087218623791 -7.5483100098689064 5.2417410069451771 0.57357644374324357 0 -0.81915203911291934 0.40957601955645967 0 0.28678822187162178 1 I I 0 1 0.5 forward I I I I #
face $-1 $170 $171 $60 $-1 $172 reversed single #
loop $-1 $-1 $173 $78 #
plane-surface $-1 16.8864454343381 -5.4341815274054053 154.37432972164257 0 -1 0 -0.51503808176128008 0 -0.85716729658548041 forward_v I I I I #
face $-1 $174 $175 $61 $-1 $176 forward single #
loop $-1 $177 $178 $79 #
cone-surface $-1 50.530936666368227 -10.677132284060882 8.7879217761695152 -0.51503808176128008 0 -0.85716729658548041 0.4285836482927402 0 -0.25751904088064004 1 I I 0 1 0.5 forward I I I I #
face $-1 $179 $180 $62 $-1 $181 forward single #
loop $-1 $182 $183 $80 #
cone-surface $-1 50.530936666368227 -8.7110257503150805 8.7879217761695152 -0.51503808176128008 0 -0.85716729658548041 0.4285836482927402 0 -0.25751904088064004 1 I I 0 1 0.5 forward I I I I #
face $-1 $184 $185 $63 $-1 $186 forward single #
loop $-1 $187 $188 $81 #
cone-surface $-1 50.530936666368227 -6.7449192165692793 8.7879217761695152 -0.51503808176128008 0 -0.85716729658548041 0.4285836482927402 0 -0.25751904088064004 1 I I 0 1 0.5 forward I I I I #
face $-1 $189 $190 $64 $-1 $191 reversed single #
loop $-1 $-1 $192 $82 #
plane-surface $-1 16.8864454343381 5.4341815274054088 154.37432972164257 0 -1 0 -0.51503808176128008 0 -0.85716729658548041 forward_v I I I I #
face $-1 $193 $194 $65 $-1 $195 forward single #
loop $-1 $196 $197 $83 #
cone-surface $-1 50.530936666368227 0.19123077074993589 8.7879217761695152 -0.51503808176128008 0 -0.85716729658548041 0.4285836482927402 0 -0.25751904088064004 1 I I 0 1 0.5 forward I I I I #
face $-1 $198 $199 $66 $-1 $200 forward single #
loop $-1 $201 $202 $84 #
cone-surface $-1 50.530936666368227 2.1573373044957371 8.7879217761695152 -0.51503808176128008 0 -0.85716729658548041 0.4285836482927402 0 -0.25751904088064004 1 I I 0 1 0.5 forward I I I I #
face $-1 $203 $204 $67 $-1 $205 forward single #
loop $-1 $206 $207 $85 #
cone-surface $-1 50.530936666368227 4.1234438382415384 8.7879217761695152 -0.51503808176128008 0 -0.85716729658548041 0.4285836482927402 0 -0.25751904088064004 1 I I 0 1 0.5 forward I I I I #
face $-1 $208 $209 $68 $-1 $210 reversed single #
loop $-1 $-1 $211 $86 #
plane-surface $-1 16.8864454343381 16.302544582216221 154.37432972164257 0 -1 0 -0.51503808176128008 0 -0.85716729658548041 forward_v I I I I #
face $-1 $212 $213 $69 $-1 $214 forward single #
loop $-1 $215 $216 $87 #
cone-surface $-1 50.530936666368227 11.05959382556075 8.7879217761695152 -0.51503808176128008 0 -0.85716729658548041 0.4285836482927402 0 -0.25751904088064004 1 I I 0 1 0.5 forward I I I I #
face $-1 $217 $218 $70 $-1 $219 forward single #
loop $-1 $220 $221 $88 #
cone-surface $-1 50.530936666368227 13.025700359306551 8.7879217761695152 -0.51503808176128008 0 -0.85716729658548041 0.4285836482927402 0 -0.25751904088064004 1 I I 0 1 0.5 forward I I I I #
face $-1 $222 $223 $71 $-1 $224 forward single #
loop $-1 $225 $226 $89 #
cone-surface $-1 50.530936666368227 14.991806893052352 8.7879217761695152 -0.51503808176128008 0 -0.85716729658548041 0.4285836482927402 0 -0.25751904088064004 1 I I 0 1 0.5 forward I I I I #
face $-1 $227 $228 $54 $-1 $229 reversed single #
loop $-1 $-1 $230 $90 #
plane-surface $-1 0 0 -10.834864069266073 0 0 1 1 0 0 forward_v I I I I #
coedge $-1 $231 $232 $233 $234 forward $91 $-1 #
face $-1 $235 $236 $55 $-1 $237 reversed single #
loop $-1 $-1 $238 $93 #
plane-surface $-1 0 -16.302544582216225 -8.8340498660517994 0 -1 0 0 0 -1 forward_v I I I I #
coedge $-1 $239 $240 $241 $242 reversed $94 $-1 #
face $-1 $243 $244 $56 $-1 $245 reversed single #
loop $-1 $-1 $246 $96 #
plane-surface $-1 0 16.302544582216225 -8.8340498660517994 0 1 0 0 0 1 forward_v I I I I #
coedge $-1 $247 $248 $249 $250 reversed $97 $-1 #
face $-1 $251 $252 $57 $-1 $253 reversed single #
loop $-1 $-1 $254 $99 #
plane-surface $-1 -53.481856746116527 -8.8932031308517772 0.49160681558917929 -0.57357644374324357 0 0.81915203911291934 0.81915203911291934 0 0.57357644374324357 forward_v I I I I #
coedge $-1 $255 $256 $257 $258 reversed $100 $-1 #
face $-1 $-1 $259 $58 $-1 $260 forward single #
loop $-1 $261 $262 $102 #
cone-surface $-1 -45.362344488595291 -10.238096251834641 4.615458561684493 0.57357644374324357 0 -0.81915203911291934 0.20478800977822983 0 0.14339411093581089 1 I I -0.70710678118654746 0.70710678118654746 0.25 forward I I I I #
loop $-1 $-1 $263 $76 #
coedge $-1 $164 $164 $264 $265 reversed $103 $-1 #
face $-1 $-1 $266 $59 $-1 $267 forward single #
loop $-1 $268 $269 $105 #
cone-surface $-1 -45.362344488595291 -7.5483100098689064 4.615458561684493 0.57357644374324357 0 -0.81915203911291934 0.20478800977822983 0 0.14339411093581089 1 I I -0.70710678118654746 0.70710678118654746 0.25 forward I I I I #
loop $-1 $-1 $270 $77 #
coedge $-1 $169 $169 $271 $272 reversed $106 $-1 #
face $-1 $273 $274 $60 $-1 $275 reversed single #
loop $-1 $-1 $276 $108 #
plane-surface $-1 -38.203940380764756 -8.711025750315077 62.688532594761298 0.51503808176128008 0 0.85716729658548041 0.85716729658548041 0 -0.51503808176128008 forward_v I I I I #
coedge $-1 $277 $278 $279 $280 reversed $109 $-1 #
face $-1 $-1 $281 $61 $-1 $282 forward single #
loop $-1 $283 $284 $111 #
cone-surface $-1 50.14465810504727 -10.677132284060882 8.1450463037304051 -0.51503808176128008 0 -0.85716729658548041 0.2142918241463701 0 -0.12875952044032002 1 I I -0.70710678118654746 0.70710678118654746 0.25 forward I I I I #
loop $-1 $-1 $285 $79 #
coedge $-1 $178 $178 $286 $287 reversed $112 $-1 #
face $-1 $-1 $288 $62 $-1 $289 forward single #
loop $-1 $290 $291 $114 #
cone-surface $-1 50.14465810504727 -8.7110257503150805 8.1450463037304051 -0.51503808176128008 0 -0.85716729658548041 0.2142918241463701 0 -0.12875952044032002 1 I I -0.70710678118654746 0.70710678118654746 0.25 forward I I I I #
loop $-1 $-1 $292 $80 #
coedge $-1 $183 $183 $293 $294 reversed $115 $-1 #
face $-1 $-1 $295 $63 $-1 $296 forward single #
loop $-1 $297 $298 $117 #
cone-surface $-1 50.14465810504727 -6.7449192165692793 8.1450463037304051 -0.51503808176128008 0 -0.85716729658548041 0.2142918241463701 0 -0.12875952044032002 1 I I -0.70710678118654746 0.70710678118654746 0.25 forward I I I I #
loop $-1 $-1 $299 $81 #
coedge $-1 $188 $188 $300 $301 reversed $118 $-1 #
face $-1 $302 $303 $64 $-1 $304 reversed single #
loop $-1 $-1 $305 $120 #
plane-surface $-1 -38.203940380764756 2.1573373044957371 62.688532594761298 0.51503808176128008 0 0.85716729658548041 0.85716729658548041 0 -0.51503808176128008 forward_v I I I I #
coedge $-1 $306 $307 $308 $309 reversed $121 $-1 #
face $-1 $-1 $310 $65 $-1 $311 forward single #
loop $-1 $312 $313 $123 #
cone-surface $-1 50.14465810504727 0.19123077074993589 8.1450463037304051 -0.51503808176128008 0 -0.85716729658548041 0.2142918241463701 0 -0.12875952044032002 1 I I -0.70710678118654746 0.70710678118654746 0.25 forward I I I I #
loop $-1 $-1 $314 $83 #
coedge $-1 $197 $197 $315 $316 reversed $124 $-1 #
face $-1 $-1 $317 $66 $-1 $318 forward single #
loop $-1 $319 $320 $126 #
cone-surface $-1 50.14465810504727 2.1573373044957371 8.1450463037304051 -0.51503808176128008 0 -0.85716729658548041 0.2142918241463701 0 -0.12875952044032002 1 I I -0.70710678118654746 0.70710678118654746 0.25 forward I I I I #
loop $-1 $-1 $321 $84 #
coedge $-1 $202 $202 $322 $323 reversed $127 $-1 #
face $-1 $-1 $324 $67 $-1 $325 forward single #
loop $-1 $326 $327 $129 #
cone-surface $-1 50.14465810504727 4.1234438382415384 8.1450463037304051 -0.51503808176128008 0 -0.85716729658548041 0.2142918241463701 0 -0.12875952044032002 1 I I -0.70710678118654746 0.70710678118654746 0.25 forward I I I I #
loop $-1 $-1 $328 $85 #
coedge $-1 $207 $207 $329 $330 reversed $130 $-1 #
face $-1 $331 $332 $68 $-1 $333 reversed single #
loop $-1 $-1 $334 $132 #
plane-surface $-1 -38.203940380764756 13.025700359306551 62.688532594761298 0.51503808176128008 0 0.85716729658548041 0.85716729658548041 0 -0.51503808176128008 forward_v I I I I #
coedge $-1 $335 $336 $337 $338 reversed $133 $-1 #
face $-1 $-1 $339 $69 $-1 $340 forward single #
loop $-1 $341 $342 $135 #
cone-surface $-1 50.14465810504727 11.05959382556075 8.1450463037304051 -0.51503808176128008 0 -0.85716729658548041 0.2142918241463701 0 -0.12875952044032002 1 I I -0.70710678118654746 0.70710678118654746 0.25 forward I I I I #
loop $-1 $-1 $343 $87 #
coedge $-1 $216 $216 $344 $345 reversed $136 $-1 #
face $-1 $-1 $346 $70 $-1 $347 forward single #
loop $-1 $348 $349 $138 #
cone-surface $-1 50.14465810504727 13.025700359306551 8.1450463037304051 -0.51503808176128008 0 -0.85716729658548041 0.2142918241463701 0 -0.12875952044032002 1 I I -0.70710678118654746 0.70710678118654746 0.25 forward I I I I #
loop $-1 $-1 $350 $88 #
coedge $-1 $221 $221 $351 $352 reversed $139 $-1 #
face $-1 $-1 $353 $71 $-1 $354 forward single #
loop $-1 $355 $356 $141 #
cone-surface $-1 50.14465810504727 14.991806893052352 8.1450463037304051 -0.51503808176128008 0 -0.85716729658548041 0.2142918241463701 0 -0.12875952044032002 1 I I -0.70710678118654746 0.70710678118654746 0.25 forward I I I I #
loop $-1 $-1 $357 $89 #
coedge $-1 $226 $226 $358 $359 reversed $142 $-1 #
face $-1 $360 $361 $54 $-1 $362 reversed single #
loop $-1 $-1 $363 $144 #
plane-surface $-1 0 -26.798054902374769 0 0 1 0 0 0 1 forward_v I I I I #
coedge $-1 $364 $365 $366 $367 forward $145 $-1 #
coedge $-1 $368 $147 $369 $370 forward $91 $-1 #
coedge $-1 $147 $368 $371 $372 forward $91 $-1 #
coedge $-1 $373 $374 $147 $234 reversed $375 $-1 #
edge $-1 $376 -26.798054902374769 $377 26.798054902374769 $233 $378 forward 7 unknown #
face $-1 $379 $380 $55 $-1 $381 reversed single #
loop $-1 $-1 $382 $148 #
plane-surface $-1 0 0 -10.834864069266073 0 0 1 1 0 0 forward_v I I I I #
coedge $-1 $383 $384 $385 $386 reversed $149 $-1 #
coedge $-1 $387 $151 $384 $388 forward $94 $-1 #
coedge $-1 $151 $387 $389 $390 reversed $94 $-1 #
coedge $-1 $391 $385 $151 $242 forward $380 $-1 #
edge $-1 $392 5.5273947110684762 $393 16.022905031227019 $241 $394 forward 7 unknown #
face $-1 $395 $396 $56 $-1 $397 reversed single #
loop $-1 $-1 $249 $152 #
plane-surface $-1 53.48185674611652 0 0 -1 0 0 0 0 1 forward_v I I I I #
coedge $-1 $398 $399 $400 $401 reversed $153 $-1 #
coedge $-1 $402 $155 $403 $404 reversed $97 $-1 #
coedge $-1 $155 $402 $399 $405 forward $97 $-1 #
coedge $-1 $406 $407 $155 $250 forward $244 $-1 #
edge $-1 $408 -16.022905031227019 $409 -5.5273947110684762 $249 $410 forward 7 unknown #
face $-1 $411 $412 $57 $-1 $413 reversed single #
loop $-1 $-1 $414 $156 #
plane-surface $-1 -114.83372314056275 -12.031287079811799 88.111150833841961 0 1 0 -0.57357644374324357 0 0.81915203911291934 forward_v I I I I #
coedge $-1 $415 $416 $417 $418 reversed $157 $-1 #
coedge $-1 $256 $159 $419 $420 reversed $100 $-1 #
coedge $-1 $159 $255 $415 $421 reversed $100 $-1 #
coedge $-1 $417 $422 $159 $258 forward $412 $-1 #
edge $-1 $423 33.220711347654905 $424 43.563968601331794 $257 $425 forward 7 unknown #
loop $-1 $-1 $264 $160 #
plane-surface $-1 -53.481856746116527 -8.8932031308517772 0.49160681558917929 -0.57357644374324357 0 0.81915203911291934 0.81915203911291934 0 0.57357644374324357 forward_v I I I I #
loop $-1 $-1 $426 $102 #
coedge $-1 $262 $262 $263 $427 reversed $161 $-1 #
coedge $-1 $263 $263 $262 $427 forward $163 $-1 #
coedge $-1 $264 $264 $164 $265 forward $259 $-1 #
edge $-1 $428 0 $428 6.2831853071796004 $264 $429 forward 7 unknown #
loop $-1 $-1 $271 $165 #
plane-surface $-1 -53.481856746116527 -8.8932031308517772 0.49160681558917929 -0.57357644374324357 0 0.81915203911291934 0.81915203911291934 0 0.57357644374324357 forward_v I I I I #
loop $-1 $-1 $430 $105 #
coedge $-1 $269 $269 $270 $431 reversed $166 $-1 #
coedge $-1 $270 $270 $269 $431 forward $168 $-1 #
coedge $-1 $271 $271 $169 $272 forward $266 $-1 #
edge $-1 $432 0 $432 6.2831853071796004 $271 $433 forward 7 unknown #
face $-1 $434 $435 $60 $-1 $436 forward single #
loop $-1 $-1 $437 $170 #
plane-surface $-1 16.8864454343381 -11.987869973224749 154.37432972164257 0 1 0 0.51503808176128008 0 0.85716729658548041 forward_v I I I I #
coedge $-1 $438 $439 $440 $441 reversed $171 $-1 #
coedge $-1 $278 $173 $442 $443 reversed $109 $-1 #
coedge $-1 $173 $277 $438 $444 reversed $109 $-1 #
coedge $-1 $440 $445 $173 $280 forward $435 $-1 #
edge $-1 $446 -45.03863402894747 $447 -39.651831951212181 $279 $448 forward 7 unknown #
loop $-1 $-1 $286 $174 #
plane-surface $-1 -38.203940380764756 -8.711025750315077 62.688532594761298 0.51503808176128008 0 0.85716729658548041 0.85716729658548041 0 -0.51503808176128008 forward_v I I I I #
loop $-1 $-1 $449 $111 #
coedge $-1 $284 $284 $285 $450 reversed $175 $-1 #
coedge $-1 $285 $285 $284 $450 forward $177 $-1 #
coedge $-1 $286 $286 $178 $287 forward $281 $-1 #
edge $-1 $451 0 $451 6.2831853071796004 $286 $452 forward 7 unknown #
loop $-1 $-1 $293 $179 #
plane-surface $-1 -38.203940380764756 -8.711025750315077 62.688532594761298 0.51503808176128008 0 0.85716729658548041 0.85716729658548041 0 -0.51503808176128008 forward_v I I I I #
loop $-1 $-1 $453 $114 #
coedge $-1 $291 $291 $292 $454 reversed $180 $-1 #
coedge $-1 $292 $292 $291 $454 forward $182 $-1 #
coedge $-1 $293 $293 $183 $294 forward $288 $-1 #
edge $-1 $455 0 $455 6.2831853071796004 $293 $456 forward 7 unknown #
loop $-1 $-1 $300 $184 #
plane-surface $-1 -38.203940380764756 -8.711025750315077 62.688532594761298 0.51503808176128008 0 0.85716729658548041 0.85716729658548041 0 -0.51503808176128008 forward_v I I I I #
loop $-1 $-1 $457 $117 #
coedge $-1 $298 $298 $299 $458 reversed $185 $-1 #
coedge $-1 $299 $299 $298 $458 forward $187 $-1 #
coedge $-1 $300 $300 $188 $301 forward $295 $-1 #
edge $-1 $459 0 $459 6.2831853071796004 $300 $460 forward 7 unknown #
face $-1 $461 $462 $64 $-1 $463 reversed single #
loop $-1 $-1 $464 $189 #
plane-surface $-1 16.8864454343381 -1.1195069184139346 154.37432972164257 0 1 0 0.51503808176128008 0 0.85716729658548041 forward_v I I I I #
coedge $-1 $465 $466 $467 $468 reversed $190 $-1 #
coedge $-1 $307 $192 $469 $470 reversed $121 $-1 #
coedge $-1 $192 $306 $465 $471 reversed $121 $-1 #
coedge $-1 $467 $472 $192 $309 forward $473 $-1 #
edge $-1 $474 -45.03863402894747 $475 -39.651831951212181 $308 $476 forward 7 unknown #
loop $-1 $-1 $315 $193 #
plane-surface $-1 -38.203940380764756 2.1573373044957371 62.688532594761298 0.51503808176128008 0 0.85716729658548041 0.85716729658548041 0 -0.51503808176128008 forward_v I I I I #
loop $-1 $-1 $477 $123 #
coedge $-1 $313 $313 $314 $478 reversed $194 $-1 #
coedge $-1 $314 $314 $313 $478 forward $196 $-1 #
coedge $-1 $315 $315 $197 $316 forward $310 $-1 #
edge $-1 $479 0 $479 6.2831853071796004 $315 $480 forward 7 unknown #
loop $-1 $-1 $322 $198 #
plane-surface $-1 -38.203940380764756 2.1573373044957371 62.688532594761298 0.51503808176128008 0 0.85716729658548041 0.85716729658548041 0 -0.51503808176128008 forward_v I I I I #
loop $-1 $-1 $481 $126 #
coedge $-1 $320 $320 $321 $482 reversed $199 $-1 #
coedge $-1 $321 $321 $320 $482 forward $201 $-1 #
coedge $-1 $322 $322 $202 $323 forward $317 $-1 #
edge $-1 $483 0 $483 6.2831853071796004 $322 $484 forward 7 unknown #
loop $-1 $-1 $329 $203 #
plane-surface $-1 -38.203940380764756 2.1573373044957371 62.688532594761298 0.51503808176128008 0 0.85716729658548041 0.85716729658548041 0 -0.51503808176128008 forward_v I I I I #
loop $-1 $-1 $485 $129 #
coedge $-1 $327 $327 $328 $486 reversed $204 $-1 #
coedge $-1 $328 $328 $327 $486 forward $206 $-1 #
coedge $-1 $329 $329 $207 $330 forward $324 $-1 #
edge $-1 $487 0 $487 6.2831853071796004 $329 $488 forward 7 unknown #
face $-1 $489 $490 $68 $-1 $491 reversed single #
loop $-1 $-1 $492 $208 #
plane-surface $-1 16.8864454343381 9.7488561363968795 154.37432972164257 0 1 0 0.51503808176128008 0 0.85716729658548041 forward_v I I I I #
coedge $-1 $493 $494 $495 $496 reversed $209 $-1 #
coedge $-1 $336 $211 $497 $498 reversed $133 $-1 #
coedge $-1 $211 $335 $493 $499 reversed $133 $-1 #
coedge $-1 $495 $500 $211 $338 forward $501 $-1 #
edge $-1 $502 -45.03863402894747 $503 -39.651831951212181 $337 $504 forward 7 unknown #
loop $-1 $-1 $344 $212 #
plane-surface $-1 -38.203940380764756 13.025700359306551 62.688532594761298 0.51503808176128008 0 0.85716729658548041 0.85716729658548041 0 -0.51503808176128008 forward_v I I I I #
loop $-1 $-1 $505 $135 #
coedge $-1 $342 $342 $343 $506 reversed $213 $-1 #
coedge $-1 $343 $343 $342 $506 forward $215 $-1 #
coedge $-1 $344 $344 $216 $345 forward $339 $-1 #
edge $-1 $507 0 $507 6.2831853071796004 $344 $508 forward 7 unknown #
loop $-1 $-1 $351 $217 #
plane-surface $-1 -38.203940380764756 13.025700359306551 62.688532594761298 0.51503808176128008 0 0.85716729658548041 0.85716729658548041 0 -0.51503808176128008 forward_v I I I I #
loop $-1 $-1 $509 $138 #
coedge $-1 $349 $349 $350 $510 reversed $218 $-1 #
coedge $-1 $350 $350 $349 $510 forward $220 $-1 #
coedge $-1 $351 $351 $221 $352 forward $346 $-1 #
edge $-1 $511 0 $511 6.2831853071796004 $351 $512 forward 7 unknown #
loop $-1 $-1 $358 $222 #
plane-surface $-1 -38.203940380764756 13.025700359306551 62.688532594761298 0.51503808176128008 0 0.85716729658548041 0.85716729658548041 0 -0.51503808176128008 forward_v I I I I #
loop $-1 $-1 $513 $141 #
coedge $-1 $356 $356 $357 $514 reversed $223 $-1 #
coedge $-1 $357 $357 $356 $514 forward $225 $-1 #
coedge $-1 $358 $358 $226 $359 forward $353 $-1 #
edge $-1 $515 0 $515 6.2831853071796004 $358 $516 forward 7 unknown #
face $-1 $517 $518 $54 $-1 $519 reversed single #
loop $-1 $-1 $520 $227 #
plane-surface $-1 -53.48185674611652 0 0 1 0 0 0 0 -1 forward_v I I I I #
coedge $-1 $521 $371 $522 $523 forward $228 $-1 #
coedge $-1 $524 $230 $521 $525 forward $145 $-1 #
coedge $-1 $230 $524 $526 $527 forward $145 $-1 #
coedge $-1 $374 $373 $230 $367 reversed $375 $-1 #
edge $-1 $528 -26.798054902374769 $529 26.798054902374769 $366 $530 forward 7 unknown #
coedge $-1 $232 $231 $531 $532 forward $91 $-1 #
coedge $-1 $533 $534 $231 $370 reversed $518 $-1 #
edge $-1 $377 -53.48185674611652 $535 53.48185674611652 $369 $536 forward 7 unknown #
coedge $-1 $363 $537 $232 $372 reversed $228 $-1 #
edge $-1 $538 -53.48185674611652 $376 53.48185674611652 $371 $539 forward 7 unknown #
coedge $-1 $366 $233 $537 $540 forward $375 $-1 #
coedge $-1 $233 $366 $533 $541 reversed $375 $-1 #
loop $-1 $-1 $373 $517 #
vertex $-1 $234 $542 #
vertex $-1 $234 $543 #
straight-curve $-1 53.48185674611652 0 10.834864069266073 0 1 0 I I #
face $-1 $544 $545 $55 $-1 $546 reversed single #
loop $-1 $-1 $385 $235 #
plane-surface $-1 53.48185674611652 0 0 -1 0 0 0 0 1 forward_v I I I I #
coedge $-1 $547 $548 $383 $549 forward $236 $-1 #
coedge $-1 $550 $238 $382 $549 reversed $149 $-1 #
coedge $-1 $238 $550 $239 $388 reversed $149 $-1 #
coedge $-1 $241 $551 $238 $386 forward $380 $-1 #
edge $-1 $552 -6.4178391362401719 $392 -2.4162107298116267 $385 $553 forward 7 unknown #
coedge $-1 $240 $239 $554 $555 reversed $94 $-1 #
edge $-1 $392 -53.48185674611652 $556 53.48185674611652 $384 $557 forward 7 unknown #
coedge $-1 $558 $559 $240 $390 forward $545 $-1 #
edge $-1 $393 -53.48185674611652 $560 53.48185674611652 $389 $561 forward 7 unknown #
coedge $-1 $551 $241 $559 $562 forward $380 $-1 #
vertex $-1 $242 $563 #
vertex $-1 $562 $564 #
straight-curve $-1 53.48185674611652 -10.775149871147748 -6.8332356628375264 0 -1 0 I I #
face $-1 $565 $566 $56 $-1 $567 reversed single #
loop $-1 $-1 $568 $243 #
plane-surface $-1 0 0 -10.834864069266073 0 0 1 1 0 0 forward_v I I I I #
coedge $-1 $569 $246 $568 $570 reversed $153 $-1 #
coedge $-1 $246 $569 $248 $405 reversed $153 $-1 #
coedge $-1 $571 $572 $246 $401 forward $566 $-1 #
edge $-1 $573 -6.4178391362401719 $574 -2.4162107298116267 $400 $575 forward 7 unknown #
coedge $-1 $248 $247 $571 $576 reversed $97 $-1 #
coedge $-1 $577 $578 $247 $404 forward $579 $-1 #
edge $-1 $580 -53.48185674611652 $408 53.48185674611652 $403 $581 forward 7 unknown #
edge $-1 $574 -53.48185674611652 $409 53.48185674611652 $399 $582 forward 7 unknown #
coedge $-1 $583 $249 $569 $584 forward $244 $-1 #
coedge $-1 $249 $583 $577 $585 reversed $244 $-1 #
vertex $-1 $585 $586 #
vertex $-1 $250 $587 #
straight-curve $-1 53.48185674611652 10.775149871147748 -6.8332356628375264 0 -1 0 I I #
face $-1 $-1 $588 $57 $-1 $589 forward single #
loop $-1 $-1 $257 $251 #
plane-surface $-1 -53.48185674611652 0 0 1 0 0 0 0 -1 forward_v I I I I #
coedge $-1 $590 $591 $592 $593 reversed $252 $-1 #
coedge $-1 $594 $254 $256 $421 forward $157 $-1 #
coedge $-1 $254 $594 $590 $595 forward $157 $-1 #
coedge $-1 $592 $257 $254 $418 forward $412 $-1 #
edge $-1 $424 1.308517616465867 $596 7.5846855143859102 $417 $597 forward 7 unknown #
coedge $-1 $598 $599 $255 $420 forward $588 $-1 #
edge $-1 $600 -18.706706770508468 $423 -3.9350048241648565 $419 $601 forward 7 unknown #
edge $-1 $424 8.6860152927662243e-015 $600 18.032918482801154 $256 $602 forward 7 unknown #
coedge $-1 $257 $592 $598 $603 reversed $412 $-1 #
vertex $-1 $603 $604 #
vertex $-1 $258 $605 #
straight-curve $-1 -53.48185674611652 -5.7551191818917555 44.055575416920981 0 0 -1 I I #
coedge $-1 $426 $426 $-1 $606 reversed $261 $-1 #
edge $-1 $607 0 $607 6.2831853071796004 $262 $608 forward 7 unknown #
vertex $-1 $265 $609 #
ellipse-curve $-1 -46.096005772944714 -10.238096251834641 5.6632354424276272 -0.57357644374324357 0 0.81915203911291934 0.40957601955645967 0 0.28678822187162178 1 I I #
coedge $-1 $430 $430 $-1 $610 reversed $268 $-1 #
edge $-1 $611 0 $611 6.2831853071796004 $269 $612 forward 7 unknown #
vertex $-1 $272 $613 #
ellipse-curve $-1 -46.096005772944714 -7.5483100098689064 5.6632354424276272 -0.57357644374324357 0 0.81915203911291934 0.40957601955645967 0 0.28678822187162178 1 I I #
face $-1 $-1 $614 $60 $-1 $615 reversed single #
loop $-1 $-1 $279 $273 #
plane-surface $-1 0 0 10.834864069266073 0 0 1 1 0 0 forward_v I I I I #
coedge $-1 $616 $617 $618 $619 reversed $274 $-1 #
coedge $-1 $620 $276 $278 $444 forward $171 $-1 #
coedge $-1 $276 $620 $616 $621 forward $171 $-1 #
coedge $-1 $618 $279 $276 $441 forward $435 $-1 #
edge $-1 $447 1.0786686522478668 $622 7.6323570980672102 $440 $623 forward 7 unknown #
coedge $-1 $624 $625 $277 $443 forward $614 $-1 #
edge $-1 $626 -69.589018081162848 $446 -66.352300791555209 $442 $627 forward 7 unknown #
edge $-1 $447 100.67929025397655 $626 106.96371349223304 $278 $628 forward 7 unknown #
coedge $-1 $279 $618 $624 $629 forward $435 $-1 #
vertex $-1 $280 $630 #
vertex $-1 $280 $631 #
straight-curve $-1 8.4432227171690499 -5.4341815274054053 10.834864069266075 -1 0 0 I I #
coedge $-1 $449 $449 $-1 $632 reversed $283 $-1 #
edge $-1 $633 0 $633 6.2831853071796004 $284 $634 forward 7 unknown #
vertex $-1 $287 $635 #
ellipse-curve $-1 50.788455707248872 -10.677132284060882 9.2165054244622624 0.51503808176128008 0 0.85716729658548041 0.4285836482927402 0 -0.25751904088064004 1 I I #
coedge $-1 $453 $453 $-1 $636 reversed $290 $-1 #
edge $-1 $637 0 $637 6.2831853071796004 $291 $638 forward 7 unknown #
vertex $-1 $294 $639 #
ellipse-curve $-1 50.788455707248872 -8.7110257503150805 9.2165054244622624 0.51503808176128008 0 0.85716729658548041 0.4285836482927402 0 -0.25751904088064004 1 I I #
coedge $-1 $457 $457 $-1 $640 reversed $297 $-1 #
edge $-1 $641 0 $641 6.2831853071796004 $298 $642 forward 7 unknown #
vertex $-1 $301 $643 #
ellipse-curve $-1 50.788455707248872 -6.7449192165692793 9.2165054244622624 0.51503808176128008 0 0.85716729658548041 0.4285836482927402 0 -0.25751904088064004 1 I I #
face $-1 $-1 $473 $64 $-1 $644 forward single #
loop $-1 $-1 $645 $302 #
plane-surface $-1 53.48185674611652 0 0 -1 0 0 0 0 1 forward_v I I I I #
coedge $-1 $646 $647 $648 $649 reversed $303 $-1 #
coedge $-1 $650 $305 $307 $471 forward $190 $-1 #
coedge $-1 $305 $650 $646 $651 forward $190 $-1 #
coedge $-1 $648 $308 $305 $468 forward $473 $-1 #
edge $-1 $475 -4.3555128751575403 $652 2.1981755706618031 $467 $653 forward 7 unknown #
coedge $-1 $654 $655 $306 $470 forward $462 $-1 #
edge $-1 $656 -69.589018081162848 $474 -66.352300791555209 $469 $657 forward 7 unknown #
edge $-1 $475 100.67929025397655 $656 106.96371349223304 $307 $658 forward 7 unknown #
coedge $-1 $308 $648 $654 $659 forward $473 $-1 #
loop $-1 $-1 $648 $461 #
vertex $-1 $470 $660 #
vertex $-1 $309 $661 #
straight-curve $-1 8.4432227171690499 5.4341815274054088 10.834864069266075 -1 0 0 I I #
coedge $-1 $477 $477 $-1 $662 reversed $312 $-1 #
edge $-1 $663 0 $663 6.2831853071796004 $313 $664 forward 7 unknown #
vertex $-1 $316 $665 #
ellipse-curve $-1 50.788455707248872 0.19123077074993589 9.2165054244622624 0.51503808176128008 0 0.85716729658548041 0.4285836482927402 0 -0.25751904088064004 1 I I #
coedge $-1 $481 $481 $-1 $666 reversed $319 $-1 #
edge $-1 $667 0 $667 6.2831853071796004 $320 $668 forward 7 unknown #
vertex $-1 $323 $669 #
ellipse-curve $-1 50.788455707248872 2.1573373044957371 9.2165054244622624 0.51503808176128008 0 0.85716729658548041 0.4285836482927402 0 -0.25751904088064004 1 I I #
coedge $-1 $485 $485 $-1 $670 reversed $326 $-1 #
edge $-1 $671 0 $671 6.2831853071796004 $327 $672 forward 7 unknown #
vertex $-1 $330 $673 #
ellipse-curve $-1 50.788455707248872 4.1234438382415384 9.2165054244622624 0.51503808176128008 0 0.85716729658548041 0.4285836482927402 0 -0.25751904088064004 1 I I #
face $-1 $-1 $501 $68 $-1 $674 forward single #
loop $-1 $-1 $675 $331 #
plane-surface $-1 53.48185674611652 0 0 -1 0 0 0 0 1 forward_v I I I I #
coedge $-1 $676 $677 $678 $679 reversed $332 $-1 #
coedge $-1 $680 $334 $336 $499 forward $209 $-1 #
coedge $-1 $334 $680 $676 $681 forward $209 $-1 #
coedge $-1 $678 $337 $334 $496 forward $501 $-1 #
edge $-1 $503 -9.7896944025629455 $682 -3.2360059567436039 $495 $683 forward 7 unknown #
coedge $-1 $684 $685 $335 $498 forward $490 $-1 #
edge $-1 $686 -69.589018081162848 $502 -66.352300791555209 $497 $687 forward 7 unknown #
edge $-1 $503 100.67929025397655 $686 106.96371349223304 $336 $688 forward 7 unknown #
coedge $-1 $337 $678 $684 $689 forward $501 $-1 #
loop $-1 $-1 $678 $489 #
vertex $-1 $498 $690 #
vertex $-1 $338 $691 #
straight-curve $-1 8.4432227171690499 16.302544582216221 10.834864069266075 -1 0 0 I I #
coedge $-1 $505 $505 $-1 $692 reversed $341 $-1 #
edge $-1 $693 0 $693 6.2831853071796004 $342 $694 forward 7 unknown #
vertex $-1 $345 $695 #
ellipse-curve $-1 50.788455707248872 11.05959382556075 9.2165054244622624 0.51503808176128008 0 0.85716729658548041 0.4285836482927402 0 -0.25751904088064004 1 I I #
coedge $-1 $509 $509 $-1 $696 reversed $348 $-1 #
edge $-1 $697 0 $697 6.2831853071796004 $349 $698 forward 7 unknown #
vertex $-1 $352 $699 #
ellipse-curve $-1 50.788455707248872 13.025700359306551 9.2165054244622624 0.51503808176128008 0 0.85716729658548041 0.4285836482927402 0 -0.25751904088064004 1 I I #
coedge $-1 $513 $513 $-1 $700 reversed $355 $-1 #
edge $-1 $701 0 $701 6.2831853071796004 $356 $702 forward 7 unknown #
vertex $-1 $359 $703 #
ellipse-curve $-1 50.788455707248872 14.991806893052352 9.2165054244622624 0.51503808176128008 0 0.85716729658548041 0.4285836482927402 0 -0.25751904088064004 1 I I #
face $-1 $-1 $375 $54 $-1 $704 reversed single #
loop $-1 $-1 $533 $360 #
plane-surface $-1 0 26.798054902374769 0 0 -1 0 0 0 -1 forward_v I I I I #
coedge $-1 $705 $531 $534 $706 forward $361 $-1 #
coedge $-1 $537 $363 $364 $525 reversed $228 $-1 #
coedge $-1 $531 $705 $363 $523 reversed $361 $-1 #
edge $-1 $538 -10.834864069266073 $707 10.834864069266073 $522 $708 forward 7 unknown #
coedge $-1 $365 $364 $705 $709 forward $145 $-1 #
edge $-1 $529 -53.48185674611652 $707 53.48185674611652 $521 $710 forward 7 unknown #
coedge $-1 $534 $533 $365 $527 reversed $518 $-1 #
edge $-1 $711 -53.48185674611652 $528 53.48185674611652 $526 $712 forward 7 unknown #
vertex $-1 $367 $713 #
vertex $-1 $540 $714 #
straight-curve $-1 53.48185674611652 0 -10.834864069266073 0 -1 0 I I #
coedge $-1 $520 $522 $368 $532 reversed $361 $-1 #
edge $-1 $535 -26.798054902374769 $538 26.798054902374769 $531 $715 forward 7 unknown #
coedge $-1 $526 $369 $374 $541 forward $518 $-1 #
coedge $-1 $369 $526 $520 $706 reversed $518 $-1 #
vertex $-1 $370 $716 #
straight-curve $-1 0 26.798054902374769 10.834864069266073 -1 0 0 I I #
coedge $-1 $371 $521 $373 $540 reversed $228 $-1 #
vertex $-1 $532 $717 #
straight-curve $-1 0 -26.798054902374769 10.834864069266073 1 0 0 I I #
edge $-1 $376 -10.834864069266073 $529 10.834864069266073 $373 $718 forward 7 unknown #
edge $-1 $377 -10.834864069266073 $528 10.834864069266073 $374 $719 forward 7 unknown #
point $-1 53.48185674611652 -26.798054902374769 10.834864069266073 #
point $-1 53.48185674611652 26.798054902374769 10.834864069266073 #
face $-1 $-1 $720 $55 $-1 $721 reversed single #
loop $-1 $-1 $389 $379 #
plane-surface $-1 0 -26.798054902374769 0 0 1 0 0 0 1 forward_v I I I I #
coedge $-1 $722 $382 $551 $723 forward $236 $-1 #
coedge $-1 $382 $722 $724 $725 forward $236 $-1 #
edge $-1 $726 -53.48185674611652 $552 53.48185674611652 $382 $727 forward 7 unknown #
coedge $-1 $384 $383 $728 $729 reversed $149 $-1 #
coedge $-1 $385 $391 $547 $723 reversed $380 $-1 #
vertex $-1 $723 $730 #
straight-curve $-1 53.48185674611652 -16.302544582216225 -4.4170249330258997 0 0 1 I I #
coedge $-1 $728 $731 $387 $555 forward $720 $-1 #
edge $-1 $560 -16.022905031227019 $556 -5.5273947110684762 $554 $732 forward 7 unknown #
vertex $-1 $555 $733 #
straight-curve $-1 0 -16.302544582216225 -6.8332356628375264 -1 0 0 I I #
coedge $-1 $734 $389 $731 $735 forward $545 $-1 #
coedge $-1 $389 $734 $391 $562 reversed $545 $-1 #
vertex $-1 $735 $736 #
straight-curve $-1 0 -26.798054902374769 -6.8332356628375264 -1 0 0 I I #
edge $-1 $393 6.8332356628375264 $737 10.834864069266073 $391 $738 forward 7 unknown #
point $-1 53.48185674611652 -16.302544582216225 -6.8332356628375264 #
point $-1 53.48185674611652 -26.798054902374769 -6.8332356628375264 #
face $-1 $-1 $579 $56 $-1 $739 reversed single #
loop $-1 $-1 $571 $395 #
plane-surface $-1 -53.48185674611652 0 0 1 0 0 0 0 -1 forward_v I I I I #
coedge $-1 $740 $741 $398 $570 forward $396 $-1 #
coedge $-1 $399 $398 $406 $584 reversed $153 $-1 #
edge $-1 $742 -53.48185674611652 $573 53.48185674611652 $568 $743 forward 7 unknown #
coedge $-1 $744 $400 $402 $576 forward $566 $-1 #
coedge $-1 $400 $744 $740 $745 reversed $566 $-1 #
vertex $-1 $745 $746 #
vertex $-1 $576 $747 #
straight-curve $-1 -53.48185674611652 16.302544582216225 -4.4170249330258997 0 0 1 I I #
edge $-1 $574 5.5273947110684762 $580 16.022905031227019 $571 $748 forward 7 unknown #
coedge $-1 $749 $403 $407 $585 forward $579 $-1 #
coedge $-1 $403 $749 $744 $750 reversed $579 $-1 #
loop $-1 $-1 $403 $565 #
vertex $-1 $750 $751 #
straight-curve $-1 0 26.798054902374769 -6.8332356628375264 1 0 0 I I #
straight-curve $-1 0 16.302544582216225 -6.8332356628375264 1 0 0 I I #
coedge $-1 $407 $406 $741 $752 reversed $244 $-1 #
edge $-1 $409 2.4162107298116267 $742 6.4178391362401719 $406 $753 forward 7 unknown #
edge $-1 $408 6.8332356628375264 $754 10.834864069266073 $407 $755 forward 7 unknown #
point $-1 53.48185674611652 26.798054902374769 -6.8332356628375264 #
point $-1 53.48185674611652 16.302544582216225 -6.8332356628375264 #
loop $-1 $-1 $419 $411 #
plane-surface $-1 0 0 10.834864069266073 0 0 1 1 0 0 forward_v I I I I #
coedge $-1 $591 $414 $416 $595 reversed $252 $-1 #
coedge $-1 $414 $590 $756 $757 reversed $252 $-1 #
coedge $-1 $422 $417 $414 $593 forward $412 $-1 #
edge $-1 $596 -43.563968601331794 $758 -33.220711347654905 $592 $759 forward 7 unknown #
coedge $-1 $416 $415 $599 $760 reversed $157 $-1 #
edge $-1 $761 -18.032918482801154 $596 -8.6860152927662243e-015 $590 $762 forward 7 unknown #
vertex $-1 $418 $763 #
straight-curve $-1 -53.48185674611652 -4.4466015654258886 0.49160681558917946 0 -1 0 I I #
coedge $-1 $756 $419 $422 $603 forward $588 $-1 #
coedge $-1 $419 $756 $594 $760 forward $588 $-1 #
vertex $-1 $420 $764 #
straight-curve $-1 -57.416861570281377 -5.7551191818917555 10.834864069266075 -1 0 0 I I #
straight-curve $-1 -53.481856746116527 -5.7551191818917555 0.49160681558917929 0.81915203911291934 0 0.57357644374324357 I I #
edge $-1 $423 5.7551191818917555 $758 12.031287079811799 $422 $765 forward 7 unknown #
point $-1 -53.48185674611652 -5.7551191818917555 10.834864069266073 #
point $-1 -53.48185674611652 -5.7551191818917555 0.49160681558918429 #
edge $-1 $766 1 $766 0 $426 $-1 forward 7 unknown #
vertex $-1 $427 $767 #
ellipse-curve $-1 -45.505738599531099 -10.238096251834641 4.8202465714627225 -0.57357644374324357 0 0.81915203911291934 0.40957601955645967 0 0.28678822187162178 1 I I #
point $-1 -45.686429753388261 -10.238096251834641 5.9500236642992537 #
edge $-1 $768 1 $768 0 $430 $-1 forward 7 unknown #
vertex $-1 $431 $769 #
ellipse-curve $-1 -45.505738599531099 -7.5483100098689064 4.8202465714627225 -0.57357644374324357 0 0.81915203911291934 0.40957601955645967 0 0.28678822187162178 1 I I #
point $-1 -45.686429753388261 -7.5483100098689064 5.9500236642992537 #
loop $-1 $-1 $442 $434 #
plane-surface $-1 53.48185674611652 0 0 -1 0 0 0 0 1 forward_v I I I I #
coedge $-1 $617 $437 $439 $621 reversed $274 $-1 #
coedge $-1 $437 $616 $770 $771 reversed $274 $-1 #
coedge $-1 $445 $440 $437 $619 forward $435 $-1 #
edge $-1 $622 39.651831951212181 $772 45.03863402894747 $618 $773 forward 7 unknown #
coedge $-1 $439 $438 $625 $774 reversed $171 $-1 #
edge $-1 $775 -106.96371349223304 $622 -100.67929025397655 $616 $776 forward 7 unknown #
vertex $-1 $441 $777 #
straight-curve $-1 48.095054668381223 -4.3555128751575385 10.834864069266075 0 -1 0 I I #
coedge $-1 $770 $442 $445 $629 reversed $614 $-1 #
coedge $-1 $442 $770 $620 $774 forward $614 $-1 #
vertex $-1 $443 $778 #
straight-curve $-1 53.48185674611652 -5.4341815274054053 77.187164860821284 0 0 1 I I #
straight-curve $-1 -38.203940380764756 -5.4341815274054053 62.688532594761298 0.85716729658548041 0 -0.51503808176128008 I I #
edge $-1 $772 -11.987869973224749 $446 -5.4341815274054053 $624 $779 forward 7 unknown #
point $-1 53.48185674611652 -5.4341815274054053 10.834864069266073 #
point $-1 48.095054668381231 -5.4341815274054053 10.834864069266075 #
edge $-1 $780 1 $780 0 $449 $-1 forward 7 unknown #
vertex $-1 $450 $781 #
ellipse-curve $-1 50.273417625487589 -10.677132284060882 8.3593381278767751 0.51503808176128008 0 0.85716729658548041 0.4285836482927402 0 -0.25751904088064004 1 I I #
point $-1 51.217039355541608 -10.677132284060882 8.9589863835816157 #
edge $-1 $782 1 $782 0 $453 $-1 forward 7 unknown #
vertex $-1 $454 $783 #
ellipse-curve $-1 50.273417625487589 -8.7110257503150805 8.3593381278767751 0.51503808176128008 0 0.85716729658548041 0.4285836482927402 0 -0.25751904088064004 1 I I #
point $-1 51.217039355541608 -8.7110257503150805 8.9589863835816157 #
edge $-1 $784 1 $784 0 $457 $-1 forward 7 unknown #
vertex $-1 $458 $785 #
ellipse-curve $-1 50.273417625487589 -6.7449192165692793 8.3593381278767751 0.51503808176128008 0 0.85716729658548041 0.4285836482927402 0 -0.25751904088064004 1 I I #
point $-1 51.217039355541608 -6.7449192165692793 8.9589863835816157 #
plane-surface $-1 0 0 10.834864069266073 0 0 1 1 0 0 forward_v I I I I #
coedge $-1 $655 $654 $647 $786 forward $462 $-1 #
coedge $-1 $647 $464 $466 $651 reversed $303 $-1 #
coedge $-1 $464 $646 $645 $786 reversed $303 $-1 #
coedge $-1 $472 $467 $464 $649 forward $473 $-1 #
edge $-1 $652 39.651831951212181 $787 45.03863402894747 $648 $788 forward 7 unknown #
coedge $-1 $466 $465 $655 $789 reversed $190 $-1 #
edge $-1 $790 -106.96371349223304 $652 -100.67929025397655 $646 $791 forward 7 unknown #
vertex $-1 $468 $792 #
straight-curve $-1 48.095054668381223 1.0786686522478686 10.834864069266075 0 -1 0 I I #
coedge $-1 $645 $469 $472 $659 reversed $462 $-1 #
coedge $-1 $469 $645 $650 $789 forward $462 $-1 #
vertex $-1 $470 $793 #
straight-curve $-1 53.48185674611652 5.4341815274054088 77.187164860821284 0 0 1 I I #
straight-curve $-1 -38.203940380764756 5.4341815274054088 62.688532594761298 0.85716729658548041 0 -0.51503808176128008 I I #
edge $-1 $787 -1.1195069184139346 $474 5.4341815274054088 $654 $794 forward 7 unknown #
point $-1 53.48185674611652 5.4341815274054088 10.834864069266073 #
point $-1 48.095054668381231 5.4341815274054088 10.834864069266075 #
edge $-1 $795 1 $795 0 $477 $-1 forward 7 unknown #
vertex $-1 $478 $796 #
ellipse-curve $-1 50.273417625487589 0.19123077074993589 8.3593381278767751 0.51503808176128008 0 0.85716729658548041 0.4285836482927402 0 -0.25751904088064004 1 I I #
point $-1 51.217039355541608 0.19123077074993589 8.9589863835816157 #
edge $-1 $797 1 $797 0 $481 $-1 forward 7 unknown #
vertex $-1 $482 $798 #
ellipse-curve $-1 50.273417625487589 2.1573373044957371 8.3593381278767751 0.51503808176128008 0 0.85716729658548041 0.4285836482927402 0 -0.25751904088064004 1 I I #
point $-1 51.217039355541608 2.1573373044957371 8.9589863835816157 #
edge $-1 $799 1 $799 0 $485 $-1 forward 7 unknown #
vertex $-1 $486 $800 #
ellipse-curve $-1 50.273417625487589 4.1234438382415384 8.3593381278767751 0.51503808176128008 0 0.85716729658548041 0.4285836482927402 0 -0.25751904088064004 1 I I #
point $-1 51.217039355541608 4.1234438382415384 8.9589863835816157 #
plane-surface $-1 0 0 10.834864069266073 0 0 1 1 0 0 forward_v I I I I #
coedge $-1 $685 $684 $677 $801 forward $490 $-1 #
coedge $-1 $677 $492 $494 $681 reversed $332 $-1 #
coedge $-1 $492 $676 $675 $801 reversed $332 $-1 #
coedge $-1 $500 $495 $492 $679 forward $501 $-1 #
edge $-1 $682 39.651831951212181 $802 45.03863402894747 $678 $803 forward 7 unknown #
coedge $-1 $494 $493 $685 $804 reversed $209 $-1 #
edge $-1 $805 -106.96371349223304 $682 -100.67929025397655 $676 $806 forward 7 unknown #
vertex $-1 $496 $807 #
straight-curve $-1 48.095054668381223 6.5128501796532756 10.834864069266075 0 -1 0 I I #
coedge $-1 $675 $497 $500 $689 reversed $490 $-1 #
coedge $-1 $497 $675 $680 $804 forward $490 $-1 #
vertex $-1 $498 $808 #
straight-curve $-1 53.48185674611652 16.302544582216221 77.187164860821284 0 0 1 I I #
straight-curve $-1 -38.203940380764756 16.302544582216221 62.688532594761298 0.85716729658548041 0 -0.51503808176128008 I I #
edge $-1 $802 9.7488561363968795 $502 16.302544582216221 $684 $809 forward 7 unknown #
point $-1 53.48185674611652 16.302544582216221 10.834864069266073 #
point $-1 48.095054668381231 16.302544582216221 10.834864069266075 #
edge $-1 $810 1 $810 0 $505 $-1 forward 7 unknown #
vertex $-1 $506 $811 #
ellipse-curve $-1 50.273417625487589 11.05959382556075 8.3593381278767751 0.51503808176128008 0 0.85716729658548041 0.4285836482927402 0 -0.25751904088064004 1 I I #
point $-1 51.217039355541608 11.05959382556075 8.9589863835816157 #
edge $-1 $812 1 $812 0 $509 $-1 forward 7 unknown #
vertex $-1 $510 $813 #
ellipse-curve $-1 50.273417625487589 13.025700359306551 8.3593381278767751 0.51503808176128008 0 0.85716729658548041 0.4285836482927402 0 -0.25751904088064004 1 I I #
point $-1 51.217039355541608 13.025700359306551 8.9589863835816157 #
edge $-1 $814 1 $814 0 $513 $-1 forward 7 unknown #
vertex $-1 $514 $815 #
ellipse-curve $-1 50.273417625487589 14.991806893052352 8.3593381278767751 0.51503808176128008 0 0.85716729658548041 0.4285836482927402 0 -0.25751904088064004 1 I I #
point $-1 51.217039355541608 14.991806893052352 8.9589863835816157 #
plane-surface $-1 53.48185674611652 0 0 -1 0 0 0 0 1 forward_v I I I I #
coedge $-1 $522 $520 $524 $709 reversed $361 $-1 #
edge $-1 $535 -10.834864069266073 $711 10.834864069266073 $534 $816 forward 7 unknown #
vertex $-1 $709 $817 #
straight-curve $-1 -53.48185674611652 -26.798054902374769 0 0 0 -1 I I #
edge $-1 $707 -26.798054902374769 $711 26.798054902374769 $705 $818 forward 7 unknown #
straight-curve $-1 0 -26.798054902374769 -10.834864069266073 -1 0 0 I I #
vertex $-1 $527 $819 #
straight-curve $-1 0 26.798054902374769 -10.834864069266073 1 0 0 I I #
point $-1 53.48185674611652 26.798054902374769 -10.834864069266073 #
point $-1 53.48185674611652 -26.798054902374769 -10.834864069266073 #
straight-curve $-1 -53.48185674611652 0 10.834864069266073 0 -1 0 I I #
point $-1 -53.48185674611652 26.798054902374769 10.834864069266073 #
point $-1 -53.48185674611652 -26.798054902374769 10.834864069266073 #
straight-curve $-1 53.48185674611652 -26.798054902374769 0 0 0 -1 I I #
straight-curve $-1 53.48185674611652 26.798054902374769 0 0 0 -1 I I #
loop $-1 $-1 $728 $544 #
plane-surface $-1 -53.48185674611652 0 0 1 0 0 0 0 -1 forward_v I I I I #
coedge $-1 $548 $547 $734 $820 forward $236 $-1 #
edge $-1 $552 16.302544582216225 $737 26.798054902374769 $551 $821 forward 7 unknown #
coedge $-1 $731 $728 $548 $725 reversed $720 $-1 #
edge $-1 $822 -26.798054902374769 $726 -16.302544582216225 $724 $823 forward 7 unknown #
vertex $-1 $729 $824 #
straight-curve $-1 0 -16.302544582216225 -10.834864069266073 1 0 0 I I #
coedge $-1 $724 $554 $550 $729 forward $720 $-1 #
edge $-1 $556 2.4162107298116267 $726 6.4178391362401719 $728 $825 forward 7 unknown #
point $-1 53.48185674611652 -16.302544582216225 -10.834864069266072 #
coedge $-1 $554 $724 $558 $735 reversed $720 $-1 #
straight-curve $-1 -53.48185674611652 -10.775149871147748 -6.8332356628375264 0 1 0 I I #
point $-1 -53.48185674611652 -16.302544582216225 -6.8332356628375264 #
coedge $-1 $559 $558 $722 $820 reversed $545 $-1 #
edge $-1 $560 6.8332356628375264 $822 10.834864069266073 $731 $826 forward 7 unknown #
point $-1 -53.48185674611652 -26.798054902374769 -6.8332356628375264 #
vertex $-1 $562 $827 #
straight-curve $-1 53.48185674611652 -26.798054902374769 0 0 0 -1 I I #
plane-surface $-1 0 26.798054902374769 0 0 -1 0 0 0 -1 forward_v I I I I #
coedge $-1 $828 $568 $572 $745 forward $396 $-1 #
coedge $-1 $568 $828 $583 $752 forward $396 $-1 #
vertex $-1 $570 $829 #
straight-curve $-1 0 16.302544582216225 -10.834864069266073 -1 0 0 I I #
coedge $-1 $572 $571 $578 $750 forward $566 $-1 #
edge $-1 $573 16.302544582216225 $830 26.798054902374769 $572 $831 forward 7 unknown #
point $-1 -53.48185674611652 16.302544582216225 -10.834864069266072 #
point $-1 -53.48185674611652 16.302544582216225 -6.8332356628375264 #
straight-curve $-1 -53.48185674611652 10.775149871147748 -6.8332356628375264 0 1 0 I I #
coedge $-1 $578 $577 $828 $832 reversed $579 $-1 #
edge $-1 $580 6.8332356628375264 $830 10.834864069266073 $578 $833 forward 7 unknown #
point $-1 -53.48185674611652 26.798054902374769 -6.8332356628375264 #
edge $-1 $754 -26.798054902374769 $742 -16.302544582216225 $583 $834 forward 7 unknown #
straight-curve $-1 53.48185674611652 16.302544582216225 -4.4170249330258997 0 0 -1 I I #
vertex $-1 $752 $835 #
straight-curve $-1 53.48185674611652 26.798054902374769 0 0 0 -1 I I #
coedge $-1 $599 $598 $591 $757 forward $588 $-1 #
edge $-1 $758 3.9350048241648565 $761 18.706706770508468 $756 $836 forward 7 unknown #
vertex $-1 $757 $837 #
straight-curve $-1 -53.48185674611652 -12.031287079811799 44.055575416920981 0 0 1 I I #
edge $-1 $761 -7.5846855143859102 $600 -1.308517616465867 $599 $838 forward 7 unknown #
vertex $-1 $760 $839 #
straight-curve $-1 -53.481856746116527 -12.031287079811799 0.49160681558917929 -0.81915203911291934 0 -0.57357644374324357 I I #
point $-1 -53.48185674611652 -12.031287079811799 0.49160681558918429 #
point $-1 -38.710154799772909 -5.7551191818917555 10.834864069266073 #
straight-curve $-1 -53.48185674611652 0 10.834864069266073 0 -1 0 I I #
vertex $-1 $606 $840 #
point $-1 -45.096162579974639 -10.238096251834641 5.1070347933343445 #
vertex $-1 $610 $841 #
point $-1 -45.096162579974639 -7.5483100098689064 5.1070347933343445 #
coedge $-1 $625 $624 $617 $771 forward $614 $-1 #
edge $-1 $772 66.352300791555209 $775 69.589018081162848 $770 $842 forward 7 unknown #
vertex $-1 $629 $843 #
straight-curve $-1 8.4432227171690499 -11.987869973224749 10.834864069266075 1 0 0 I I #
edge $-1 $775 -7.6323570980672102 $626 -1.0786686522478668 $625 $844 forward 7 unknown #
vertex $-1 $774 $845 #
straight-curve $-1 -38.203940380764756 -11.987869973224749 62.688532594761298 -0.85716729658548041 0 0.51503808176128008 I I #
point $-1 48.095054668381231 -11.987869973224749 10.834864069266075 #
point $-1 53.481856746116527 -5.4341815274054053 7.5981467796584354 #
straight-curve $-1 53.48185674611652 0 10.834864069266073 0 1 0 I I #
vertex $-1 $632 $846 #
point $-1 50.702001273780333 -10.677132284060882 8.1018190869961355 #
vertex $-1 $636 $847 #
point $-1 50.702001273780333 -8.7110257503150805 8.1018190869961355 #
vertex $-1 $640 $848 #
point $-1 50.702001273780333 -6.7449192165692793 8.1018190869961355 #
edge $-1 $787 66.352300791555209 $790 69.589018081162848 $645 $849 forward 7 unknown #
vertex $-1 $659 $850 #
straight-curve $-1 8.4432227171690499 -1.1195069184139346 10.834864069266075 1 0 0 I I #
edge $-1 $790 -2.1981755706618031 $656 4.3555128751575403 $655 $851 forward 7 unknown #
vertex $-1 $789 $852 #
straight-curve $-1 -38.203940380764756 -1.1195069184139346 62.688532594761298 -0.85716729658548041 0 0.51503808176128008 I I #
point $-1 48.095054668381231 -1.1195069184139346 10.834864069266075 #
point $-1 53.481856746116527 5.4341815274054088 7.5981467796584354 #
straight-curve $-1 53.48185674611652 0 10.834864069266073 0 1 0 I I #
vertex $-1 $662 $853 #
point $-1 50.702001273780333 0.19123077074993589 8.1018190869961355 #
vertex $-1 $666 $854 #
point $-1 50.702001273780333 2.1573373044957371 8.1018190869961355 #
vertex $-1 $670 $855 #
point $-1 50.702001273780333 4.1234438382415384 8.1018190869961355 #
edge $-1 $802 66.352300791555209 $805 69.589018081162848 $675 $856 forward 7 unknown #
vertex $-1 $689 $857 #
straight-curve $-1 8.4432227171690499 9.7488561363968795 10.834864069266075 1 0 0 I I #
edge $-1 $805 3.2360059567436039 $686 9.7896944025629455 $685 $858 forward 7 unknown #
vertex $-1 $804 $859 #
straight-curve $-1 -38.203940380764756 9.7488561363968795 62.688532594761298 -0.85716729658548041 0 0.51503808176128008 I I #
point $-1 48.095054668381231 9.7488561363968795 10.834864069266075 #
point $-1 53.481856746116527 16.302544582216221 7.5981467796584354 #
straight-curve $-1 53.48185674611652 0 10.834864069266073 0 1 0 I I #
vertex $-1 $692 $860 #
point $-1 50.702001273780333 11.05959382556075 8.1018190869961355 #
vertex $-1 $696 $861 #
point $-1 50.702001273780333 13.025700359306551 8.1018190869961355 #
vertex $-1 $700 $862 #
point $-1 50.702001273780333 14.991806893052352 8.1018190869961355 #
straight-curve $-1 -53.48185674611652 26.798054902374769 0 0 0 -1 I I #
point $-1 -53.48185674611652 -26.798054902374769 -10.834864069266073 #
straight-curve $-1 -53.48185674611652 0 -10.834864069266073 0 1 0 I I #
point $-1 -53.48185674611652 26.798054902374769 -10.834864069266073 #
edge $-1 $737 -53.48185674611652 $822 53.48185674611652 $734 $863 forward 7 unknown #
straight-curve $-1 53.48185674611652 0 -10.834864069266073 0 -1 0 I I #
vertex $-1 $725 $864 #
straight-curve $-1 -53.48185674611652 0 -10.834864069266073 0 1 0 I I #
point $-1 -53.48185674611652 -16.302544582216225 -10.834864069266072 #
straight-curve $-1 -53.48185674611652 -16.302544582216225 -4.4170249330258997 0 0 -1 I I #
straight-curve $-1 -53.48185674611652 -26.798054902374769 0 0 0 -1 I I #
point $-1 53.48185674611652 -26.798054902374769 -10.834864069266073 #
coedge $-1 $741 $740 $749 $832 forward $396 $-1 #
point $-1 53.48185674611652 16.302544582216225 -10.834864069266072 #
vertex $-1 $832 $865 #
straight-curve $-1 -53.48185674611652 0 -10.834864069266073 0 1 0 I I #
edge $-1 $830 -53.48185674611652 $754 53.48185674611652 $749 $866 forward 7 unknown #
straight-curve $-1 -53.48185674611652 26.798054902374769 0 0 0 -1 I I #
straight-curve $-1 53.48185674611652 0 -10.834864069266073 0 -1 0 I I #
point $-1 53.48185674611652 26.798054902374769 -10.834864069266073 #
straight-curve $-1 -57.416861570281377 -12.031287079811799 10.834864069266075 1 0 0 I I #
point $-1 -53.48185674611652 -12.031287079811799 10.834864069266073 #
straight-curve $-1 -38.710154799772909 -4.4466015654258886 10.834864069266073 0 1 0 I I #
point $-1 -38.710154799772909 -12.031287079811799 10.834864069266073 #
point $-1 -45.218950377659482 -10.238096251834641 4.4106705519062634 #
point $-1 -45.218950377659482 -7.5483100098689064 4.4106705519062634 #
straight-curve $-1 53.48185674611652 -11.987869973224749 77.187164860821284 0 0 -1 I I #
point $-1 53.48185674611652 -11.987869973224749 10.834864069266073 #
straight-curve $-1 53.48185674611652 -4.3555128751575385 7.5981467796584319 0 1 0 I I #
point $-1 53.481856746116527 -11.987869973224749 7.5981467796584354 #
point $-1 50.015898584606951 -10.677132284060882 7.930754479584035 #
point $-1 50.015898584606951 -8.7110257503150805 7.930754479584035 #
point $-1 50.015898584606951 -6.7449192165692793 7.930754479584035 #
straight-curve $-1 53.48185674611652 -1.1195069184139346 77.187164860821284 0 0 -1 I I #
point $-1 53.48185674611652 -1.1195069184139346 10.834864069266073 #
straight-curve $-1 53.48185674611652 1.0786686522478686 7.5981467796584319 0 1 0 I I #
point $-1 53.481856746116527 -1.1195069184139346 7.5981467796584354 #
point $-1 50.015898584606951 0.19123077074993589 7.930754479584035 #
point $-1 50.015898584606951 2.1573373044957371 7.930754479584035 #
point $-1 50.015898584606951 4.1234438382415384 7.930754479584035 #
straight-curve $-1 53.48185674611652 9.7488561363968795 77.187164860821284 0 0 -1 I I #
point $-1 53.48185674611652 9.7488561363968795 10.834864069266073 #
straight-curve $-1 53.48185674611652 6.5128501796532756 7.5981467796584319 0 1 0 I I #
point $-1 53.481856746116527 9.7488561363968795 7.5981467796584354 #
point $-1 50.015898584606951 11.05959382556075 7.930754479584035 #
point $-1 50.015898584606951 13.025700359306551 7.930754479584035 #
point $-1 50.015898584606951 14.991806893052352 7.930754479584035 #
straight-curve $-1 0 -26.798054902374769 -10.834864069266073 -1 0 0 I I #
point $-1 -53.48185674611652 -26.798054902374769 -10.834864069266073 #
point $-1 -53.48185674611652 26.798054902374769 -10.834864069266073 #
straight-curve $-1 0 26.798054902374769 -10.834864069266073 1 0 0 I I #
End-of-ACIS-data 