500 0 11 0           
7 Unknown 11 ACIS 5.0 NT 24 Fri Mar 26 20:10:54 1999 
-1 9.9999999999999995e-007 1e-010 
body $-1 $11 $-1 $12 #
body $-1 $13 $-1 $14 #
body $-1 $15 $-1 $16 #
body $-1 $17 $-1 $18 #
body $-1 $19 $-1 $20 #
body $-1 $21 $-1 $22 #
body $-1 $23 $-1 $24 #
body $-1 $25 $-1 $26 #
body $-1 $27 $-1 $28 #
body $-1 $29 $-1 $30 #
body $-1 $31 $-1 $32 #
lump $-1 $-1 $33 $0 #
transform $-1 1 0 0 0 1 0 0 0 1 74.041566209906307 37.365603900376342 16.717421588168499 1 rotate no_reflect no_shear #
lump $-1 $-1 $34 $1 #
transform $-1 1 0 0 0 1 0 0 0 1 74.041566209906307 37.365603900376342 16.717421588168499 1 rotate no_reflect no_shear #
lump $-1 $-1 $35 $2 #
transform $-1 1 0 0 0 1 0 0 0 1 74.041566209906307 37.365603900376342 16.717421588168499 1 rotate no_reflect no_shear #
lump $-1 $-1 $36 $3 #
transform $-1 1 0 0 0 1 0 0 0 1 74.041566209906307 37.365603900376342 16.717421588168499 1 rotate no_reflect no_shear #
lump $-1 $-1 $37 $4 #
transform $-1 1 0 0 0 1 0 0 0 1 74.041566209906307 37.365603900376342 16.717421588168499 1 rotate no_reflect no_shear #
lump $-1 $-1 $38 $5 #
transform $-1 1 0 0 0 1 0 0 0 1 74.041566209906307 37.365603900376342 16.717421588168499 1 rotate no_reflect no_shear #
lump $-1 $-1 $39 $6 #
transform $-1 1 0 0 0 1 0 0 0 1 74.041566209906307 37.365603900376342 16.717421588168499 1 rotate no_reflect no_shear #
lump $-1 $-1 $40 $7 #
transform $-1 1 0 0 0 1 0 0 0 1 74.041566209906307 37.365603900376342 16.717421588168499 1 rotate no_reflect no_shear #
lump $-1 $-1 $41 $8 #
transform $-1 1 0 0 0 1 0 0 0 1 74.041566209906307 37.365603900376342 16.717421588168499 1 rotate no_reflect no_shear #
lump $-1 $-1 $42 $9 #
transform $-1 1 0 0 0 1 0 0 0 1 74.041566209906307 37.365603900376342 16.717421588168499 1 rotate no_reflect no_shear #
lump $-1 $-1 $43 $10 #
transform $-1 1 0 0 0 1 0 0 0 1 74.041566209906307 37.365603900376342 16.717421588168499 1 rotate no_reflect no_shear #
shell $-1 $-1 $-1 $44 $-1 $11 #
shell $-1 $-1 $-1 $45 $-1 $13 #
shell $-1 $-1 $-1 $46 $-1 $15 #
shell $-1 $-1 $-1 $47 $-1 $17 #
shell $-1 $-1 $-1 $48 $-1 $19 #
shell $-1 $-1 $-1 $49 $-1 $21 #
shell $-1 $-1 $-1 $50 $-1 $23 #
shell $-1 $-1 $-1 $51 $-1 $25 #
shell $-1 $-1 $-1 $52 $-1 $27 #
shell $-1 $-1 $-1 $53 $-1 $29 #
shell $-1 $-1 $-1 $54 $-1 $31 #
face $-1 $55 $56 $33 $-1 $57 forward single #
face $-1 $58 $59 $34 $-1 $60 reversed single #
face $-1 $61 $62 $35 $-1 $63 reversed single #
face $-1 $64 $65 $36 $-1 $66 forward single #
face $-1 $67 $68 $37 $-1 $69 forward single #
face $-1 $70 $71 $38 $-1 $72 reversed single #
face $-1 $73 $74 $39 $-1 $75 forward single #
face $-1 $76 $77 $40 $-1 $78 forward single #
face $-1 $79 $80 $41 $-1 $81 reversed single #
face $-1 $82 $83 $42 $-1 $84 forward single #
face $-1 $85 $86 $43 $-1 $87 forward single #
face $-1 $88 $89 $33 $-1 $90 reversed single #
loop $-1 $-1 $91 $44 #
plane-surface $-1 0 0 16.717421588168499 0 0 1 1 0 0 forward_v I I I I #
face $-1 $92 $93 $34 $-1 $94 reversed single #
loop $-1 $-1 $95 $45 #
plane-surface $-1 -66.411693569574126 -13.497348211442755 0 0 1 0 0 0 1 forward_v I I I I #
face $-1 $96 $97 $35 $-1 $98 reversed single #
loop $-1 $-1 $99 $46 #
plane-surface $-1 -25.81695898790781 -128.53468482010857 126.9472451338284 -1 0 0 0 -0.61566148304635926 0.78801074757464917 forward_v I I I I #
face $-1 $100 $101 $36 $-1 $102 forward single #
loop $-1 $103 $104 $47 #
cone-surface $-1 -49.363288946003621 -31.908609553398353 11.794743954389618 0 0.61566148304635926 -0.78801074757464917 1.5 0 0 1 I I 0 1 1.5 forward I I I I #
face $-1 $105 $106 $37 $-1 $107 forward single #
loop $-1 $108 $109 $48 #
cone-surface $-1 -35.235490971146135 -31.908609553398353 11.794743954389618 0 0.61566148304635926 -0.78801074757464917 1.5 0 0 1 I I 0 1 1.5 forward I I I I #
face $-1 $110 $111 $38 $-1 $112 reversed single #
loop $-1 $-1 $113 $49 #
plane-surface $-1 -21.918638988770908 113.24147483064404 161.033119487639 1 0 0 0 -0.80901700255871778 -0.5877852410284794 forward_v I I I I #
face $-1 $114 $115 $39 $-1 $116 forward single #
loop $-1 $117 $118 $50 #
cone-surface $-1 -13.476207094741454 35.804367250416348 14.831429210294811 0 -0.80901700255871778 -0.5877852410284794 0.25 0 0 1 I I 0 1 0.25 forward I I I I #
face $-1 $119 $120 $40 $-1 $121 forward single #
loop $-1 $122 $123 $51 #
cone-surface $-1 -0.81255925369727322 35.804367250416348 14.831429210294811 0 -0.80901700255871778 -0.5877852410284794 0.25 0 0 1 I I 0 1 0.25 forward I I I I #
face $-1 $124 $125 $41 $-1 $126 reversed single #
loop $-1 $-1 $127 $52 #
plane-surface $-1 -7.1443831742193566 -6.5602970891384444 73.992039806007213 0 0.80901700255871778 0.5877852410284794 1 0 0 forward_v I I I I #
face $-1 $128 $129 $42 $-1 $130 forward single #
loop $-1 $131 $132 $53 #
cone-surface $-1 16.072304534361635 35.804367250416348 14.831429210294811 0 -0.80901700255871778 -0.5877852410284794 0.25 0 0 1 I I 0 1 0.25 forward I I I I #
face $-1 $133 $134 $43 $-1 $135 forward single #
loop $-1 $136 $137 $54 #
cone-surface $-1 28.735952375405816 35.804367250416348 14.831429210294811 0 -0.80901700255871778 -0.5877852410284794 0.25 0 0 1 I I 0 1 0.25 forward I I I I #
face $-1 $138 $139 $33 $-1 $140 reversed single #
loop $-1 $-1 $141 $55 #
plane-surface $-1 0 0 -16.717421588168499 0 0 1 1 0 0 forward_v I I I I #
coedge $-1 $142 $143 $144 $145 forward $56 $-1 #
face $-1 $146 $147 $34 $-1 $148 reversed single #
loop $-1 $-1 $149 $58 #
plane-surface $-1 -66.411693569574126 -3.9307607240393452 0 0 -1 0 0 0 -1 forward_v I I I I #
coedge $-1 $150 $151 $152 $153 reversed $59 $-1 #
face $-1 $154 $155 $35 $-1 $156 reversed single #
loop $-1 $-1 $157 $61 #
plane-surface $-1 -42.299389958574878 -37.365603900376328 10.256145252496097 0 -0.61566148304635926 0.78801074757464917 1 0 0 forward_v I I I I #
coedge $-1 $158 $159 $160 $161 reversed $62 $-1 #
face $-1 $-1 $162 $36 $-1 $163 forward single #
loop $-1 $164 $165 $64 #
cone-surface $-1 -49.363288946003621 -30.124897300192949 9.5116964277659442 0 0.61566148304635926 -0.78801074757464917 0.75 0 0 1 I I -0.70710678118654757 0.70710678118654757 0.75 forward I I I I #
loop $-1 $-1 $166 $47 #
coedge $-1 $104 $104 $167 $168 reversed $65 $-1 #
face $-1 $-1 $169 $37 $-1 $170 forward single #
loop $-1 $171 $172 $67 #
cone-surface $-1 -35.235490971146135 -30.124897300192949 9.5116964277659442 0 0.61566148304635926 -0.78801074757464917 0.75 0 0 1 I I -0.70710678118654757 0.70710678118654757 0.75 forward I I I I #
loop $-1 $-1 $173 $48 #
coedge $-1 $109 $109 $174 $175 reversed $68 $-1 #
face $-1 $176 $177 $38 $-1 $178 reversed single #
loop $-1 $-1 $179 $70 #
plane-surface $-1 -7.1443831742193566 -6.5602970891384444 73.992039806007213 0 0.80901700255871778 0.5877852410284794 1 0 0 forward_v I I I I #
coedge $-1 $180 $181 $182 $183 reversed $71 $-1 #
face $-1 $-1 $184 $39 $-1 $185 forward single #
loop $-1 $186 $187 $73 #
cone-surface $-1 -13.476207094741454 35.298731623817147 14.464063434652012 0 -0.80901700255871778 -0.5877852410284794 0.125 0 0 1 I I -0.70710678118654746 0.70710678118654746 0.125 forward I I I I #
loop $-1 $-1 $188 $50 #
coedge $-1 $118 $118 $189 $190 reversed $74 $-1 #
face $-1 $-1 $191 $40 $-1 $192 forward single #
loop $-1 $193 $194 $76 #
cone-surface $-1 -0.81255925369727322 35.298731623817147 14.464063434652012 0 -0.80901700255871778 -0.5877852410284794 0.125 0 0 1 I I -0.70710678118654746 0.70710678118654746 0.125 forward I I I I #
loop $-1 $-1 $195 $51 #
coedge $-1 $123 $123 $196 $197 reversed $77 $-1 #
face $-1 $198 $199 $41 $-1 $200 reversed single #
loop $-1 $-1 $201 $79 #
plane-surface $-1 37.178384269435284 113.24147483064404 161.033119487639 -1 0 0 0 0.80901700255871778 0.5877852410284794 forward_v I I I I #
coedge $-1 $202 $203 $204 $205 reversed $80 $-1 #
face $-1 $-1 $206 $42 $-1 $207 forward single #
loop $-1 $208 $209 $82 #
cone-surface $-1 16.072304534361635 35.298731623817147 14.464063434652012 0 -0.80901700255871778 -0.5877852410284794 0.125 0 0 1 I I -0.70710678118654746 0.70710678118654746 0.125 forward I I I I #
loop $-1 $-1 $210 $53 #
coedge $-1 $132 $132 $211 $212 reversed $83 $-1 #
face $-1 $-1 $213 $43 $-1 $214 forward single #
loop $-1 $215 $216 $85 #
cone-surface $-1 28.735952375405816 35.298731623817147 14.464063434652012 0 -0.80901700255871778 -0.5877852410284794 0.125 0 0 1 I I -0.70710678118654746 0.70710678118654746 0.125 forward I I I I #
loop $-1 $-1 $217 $54 #
coedge $-1 $137 $137 $218 $219 reversed $86 $-1 #
face $-1 $220 $221 $33 $-1 $222 reversed single #
loop $-1 $-1 $223 $88 #
plane-surface $-1 0 -37.365603900376342 0 0 1 0 0 0 1 forward_v I I I I #
coedge $-1 $224 $225 $226 $227 forward $89 $-1 #
coedge $-1 $228 $91 $229 $230 forward $56 $-1 #
coedge $-1 $91 $228 $231 $232 forward $56 $-1 #
coedge $-1 $233 $234 $91 $145 reversed $235 $-1 #
edge $-1 $236 -37.365603900376342 $237 37.365603900376342 $144 $238 forward 7 unknown #
face $-1 $239 $240 $34 $-1 $241 reversed single #
loop $-1 $-1 $242 $92 #
plane-surface $-1 -58.781820929241945 -8.7140544677410503 0 -1 0 0 0 0 1 forward_v I I I I #
coedge $-1 $243 $244 $245 $246 forward $93 $-1 #
coedge $-1 $247 $95 $248 $249 reversed $59 $-1 #
coedge $-1 $95 $247 $250 $251 reversed $59 $-1 #
coedge $-1 $252 $253 $95 $153 forward $254 $-1 #
edge $-1 $255 -16.717421588168499 $256 16.717421588168499 $152 $257 forward 7 unknown #
face $-1 $258 $259 $35 $-1 $260 reversed single #
loop $-1 $-1 $261 $96 #
plane-surface $-1 -58.781820929241945 -128.53468482010857 126.9472451338284 1 0 0 0 0.61566148304635926 -0.78801074757464917 forward_v I I I I #
coedge $-1 $262 $263 $264 $265 reversed $97 $-1 #
coedge $-1 $159 $99 $266 $267 reversed $62 $-1 #
coedge $-1 $99 $158 $262 $268 reversed $62 $-1 #
coedge $-1 $264 $269 $99 $161 forward $270 $-1 #
edge $-1 $271 26.901738509677941 $272 35.171794921792667 $160 $273 forward 7 unknown #
loop $-1 $-1 $167 $100 #
plane-surface $-1 -42.299389958574878 -37.365603900376328 10.256145252496097 0 -0.61566148304635926 0.78801074757464917 1 0 0 forward_v I I I I #
loop $-1 $-1 $274 $64 #
coedge $-1 $165 $165 $166 $275 reversed $101 $-1 #
coedge $-1 $166 $166 $165 $275 forward $103 $-1 #
coedge $-1 $167 $167 $104 $168 forward $162 $-1 #
edge $-1 $276 -9.0373058154583003e-016 $276 6.2831853071795996 $167 $277 forward 7 unknown #
loop $-1 $-1 $174 $105 #
plane-surface $-1 -42.299389958574878 -37.365603900376328 10.256145252496097 0 -0.61566148304635926 0.78801074757464917 1 0 0 forward_v I I I I #
loop $-1 $-1 $278 $67 #
coedge $-1 $172 $172 $173 $279 reversed $106 $-1 #
coedge $-1 $173 $173 $172 $279 forward $108 $-1 #
coedge $-1 $174 $174 $109 $175 forward $169 $-1 #
edge $-1 $280 -9.0373058154583003e-016 $280 6.2831853071795996 $174 $281 forward 7 unknown #
face $-1 $282 $283 $38 $-1 $284 reversed single #
loop $-1 $-1 $285 $110 #
plane-surface $-1 7.629872640332195 113.24147483064404 161.033119487639 -1 0 0 0 0.80901700255871778 0.5877852410284794 forward_v I I I I #
coedge $-1 $286 $287 $288 $289 reversed $111 $-1 #
coedge $-1 $181 $113 $290 $291 reversed $71 $-1 #
coedge $-1 $113 $180 $286 $292 reversed $71 $-1 #
coedge $-1 $288 $293 $113 $183 forward $294 $-1 #
edge $-1 $295 19.255133514945676 $296 21.568589812306939 $182 $297 forward 7 unknown #
loop $-1 $-1 $189 $114 #
plane-surface $-1 -7.1443831742193566 -6.5602970891384444 73.992039806007213 0 0.80901700255871778 0.5877852410284794 1 0 0 forward_v I I I I #
loop $-1 $-1 $298 $73 #
coedge $-1 $187 $187 $188 $299 reversed $115 $-1 #
coedge $-1 $188 $188 $187 $299 forward $117 $-1 #
coedge $-1 $189 $189 $118 $190 forward $184 $-1 #
edge $-1 $300 0 $300 6.2831853071796004 $189 $301 forward 7 unknown #
loop $-1 $-1 $196 $119 #
plane-surface $-1 -7.1443831742193566 -6.5602970891384444 73.992039806007213 0 0.80901700255871778 0.5877852410284794 1 0 0 forward_v I I I I #
loop $-1 $-1 $302 $76 #
coedge $-1 $194 $194 $195 $303 reversed $120 $-1 #
coedge $-1 $195 $195 $194 $303 forward $122 $-1 #
coedge $-1 $196 $196 $123 $197 forward $191 $-1 #
edge $-1 $304 0 $304 6.2831853071796004 $196 $305 forward 7 unknown #
face $-1 $306 $307 $41 $-1 $308 forward single #
loop $-1 $-1 $309 $124 #
plane-surface $-1 0 37.365603900376342 0 0 -1 0 0 0 -1 forward_v I I I I #
coedge $-1 $310 $311 $312 $313 reversed $125 $-1 #
coedge $-1 $314 $127 $315 $316 reversed $80 $-1 #
coedge $-1 $127 $314 $317 $318 reversed $80 $-1 #
coedge $-1 $319 $320 $127 $205 forward $307 $-1 #
edge $-1 $321 -74.731207800752671 $322 -70.795320786452535 $204 $323 forward 7 unknown #
loop $-1 $-1 $211 $128 #
plane-surface $-1 -7.1443831742193566 -6.5602970891384444 73.992039806007213 0 0.80901700255871778 0.5877852410284794 1 0 0 forward_v I I I I #
loop $-1 $-1 $324 $82 #
coedge $-1 $209 $209 $210 $325 reversed $129 $-1 #
coedge $-1 $210 $210 $209 $325 forward $131 $-1 #
coedge $-1 $211 $211 $132 $212 forward $206 $-1 #
edge $-1 $326 0 $326 6.2831853071796004 $211 $327 forward 7 unknown #
loop $-1 $-1 $218 $133 #
plane-surface $-1 -7.1443831742193566 -6.5602970891384444 73.992039806007213 0 0.80901700255871778 0.5877852410284794 1 0 0 forward_v I I I I #
loop $-1 $-1 $328 $85 #
coedge $-1 $216 $216 $217 $329 reversed $134 $-1 #
coedge $-1 $217 $217 $216 $329 forward $136 $-1 #
coedge $-1 $218 $218 $137 $219 forward $213 $-1 #
edge $-1 $330 0 $330 6.2831853071796004 $218 $331 forward 7 unknown #
face $-1 $332 $333 $33 $-1 $334 reversed single #
loop $-1 $-1 $335 $138 #
plane-surface $-1 -74.041566209906307 0 0 1 0 0 0 0 -1 forward_v I I I I #
coedge $-1 $336 $231 $337 $338 forward $139 $-1 #
coedge $-1 $339 $141 $336 $340 forward $89 $-1 #
coedge $-1 $141 $339 $341 $342 forward $89 $-1 #
coedge $-1 $234 $233 $141 $227 reversed $235 $-1 #
edge $-1 $343 -37.365603900376342 $344 37.365603900376342 $226 $345 forward 7 unknown #
coedge $-1 $143 $142 $346 $347 forward $56 $-1 #
coedge $-1 $348 $349 $142 $230 reversed $333 $-1 #
edge $-1 $237 -74.041566209906307 $350 74.041566209906307 $229 $351 forward 7 unknown #
coedge $-1 $223 $352 $143 $232 reversed $139 $-1 #
edge $-1 $353 -74.041566209906307 $236 74.041566209906307 $231 $354 forward 7 unknown #
coedge $-1 $226 $144 $352 $355 forward $235 $-1 #
coedge $-1 $144 $226 $348 $356 reversed $235 $-1 #
loop $-1 $-1 $233 $332 #
vertex $-1 $145 $357 #
vertex $-1 $145 $358 #
straight-curve $-1 74.041566209906307 0 16.717421588168499 0 1 0 I I #
face $-1 $359 $360 $34 $-1 $361 forward single #
loop $-1 $-1 $362 $146 #
plane-surface $-1 0 0 -16.717421588168499 0 0 1 1 0 0 forward_v I I I I #
coedge $-1 $363 $364 $247 $365 forward $147 $-1 #
coedge $-1 $366 $149 $362 $367 reversed $93 $-1 #
coedge $-1 $149 $366 $368 $369 reversed $93 $-1 #
coedge $-1 $364 $363 $149 $246 reversed $147 $-1 #
edge $-1 $370 -16.717421588168499 $371 16.717421588168499 $245 $372 forward 7 unknown #
coedge $-1 $151 $150 $242 $365 reversed $59 $-1 #
coedge $-1 $373 $374 $150 $249 forward $240 $-1 #
edge $-1 $375 25.575974144454882 $255 40.835719425119244 $248 $376 forward 7 unknown #
coedge $-1 $377 $378 $151 $251 forward $360 $-1 #
edge $-1 $256 -40.835719425119244 $379 -25.575974144454882 $250 $380 forward 7 unknown #
coedge $-1 $381 $152 $378 $382 reversed $254 $-1 #
coedge $-1 $152 $381 $373 $383 reversed $254 $-1 #
loop $-1 $-1 $381 $359 #
vertex $-1 $383 $384 #
vertex $-1 $153 $385 #
straight-curve $-1 -74.041566209906307 -13.497348211442755 0 0 0 1 I I #
face $-1 $-1 $270 $35 $-1 $386 forward single #
loop $-1 $-1 $387 $154 #
plane-surface $-1 0 -37.365603900376342 0 0 1 0 0 0 1 forward_v I I I I #
coedge $-1 $388 $389 $390 $391 reversed $155 $-1 #
coedge $-1 $392 $157 $159 $268 forward $97 $-1 #
coedge $-1 $157 $392 $388 $393 forward $97 $-1 #
coedge $-1 $390 $160 $157 $265 forward $270 $-1 #
edge $-1 $272 4.6672640086203714 $394 37.632125949954506 $264 $395 forward 7 unknown #
coedge $-1 $396 $397 $158 $267 forward $259 $-1 #
edge $-1 $398 -53.217477314418119 $271 -46.756200978745703 $266 $399 forward 7 unknown #
edge $-1 $272 -10.494852306987456 $398 1.7760113164789269e-014 $159 $400 forward 7 unknown #
coedge $-1 $160 $390 $396 $401 forward $270 $-1 #
loop $-1 $-1 $390 $258 #
vertex $-1 $267 $402 #
vertex $-1 $161 $403 #
straight-curve $-1 -25.81695898790781 -64.267342410054283 16.717421588168499 0 1 0 I I #
coedge $-1 $274 $274 $-1 $404 reversed $164 $-1 #
edge $-1 $405 0 $405 6.2831853071796004 $165 $406 forward 7 unknown #
vertex $-1 $168 $407 #
ellipse-curve $-1 -49.363288946003621 -33.230575694318979 13.486783420332291 0 -0.61566148304635926 0.78801074757464917 1.5 0 0 1 I I #
coedge $-1 $278 $278 $-1 $408 reversed $171 $-1 #
edge $-1 $409 0 $409 6.2831853071796004 $172 $410 forward 7 unknown #
vertex $-1 $175 $411 #
ellipse-curve $-1 -35.235490971146135 -33.230575694318979 13.486783420332291 0 -0.61566148304635926 0.78801074757464917 1.5 0 0 1 I I #
face $-1 $-1 $294 $38 $-1 $412 forward single #
loop $-1 $-1 $413 $176 #
plane-surface $-1 0 37.365603900376342 0 0 -1 0 0 0 -1 forward_v I I I I #
coedge $-1 $414 $415 $416 $417 reversed $177 $-1 #
coedge $-1 $418 $179 $181 $292 forward $111 $-1 #
coedge $-1 $179 $418 $414 $419 forward $111 $-1 #
coedge $-1 $416 $182 $179 $289 forward $294 $-1 #
edge $-1 $296 -18.34644740166123 $420 11.202064227441873 $288 $421 forward 7 unknown #
coedge $-1 $422 $423 $180 $291 forward $283 $-1 #
edge $-1 $424 -66.983337670369878 $295 -63.799138155651001 $290 $425 forward 7 unknown #
edge $-1 $296 70.795320786452535 $424 74.731207800752671 $181 $426 forward 7 unknown #
coedge $-1 $182 $416 $422 $427 forward $294 $-1 #
loop $-1 $-1 $416 $282 #
vertex $-1 $291 $428 #
vertex $-1 $183 $429 #
straight-curve $-1 -21.918638988770908 56.620737415322019 16.717421588168506 0 -1 0 I I #
coedge $-1 $298 $298 $-1 $430 reversed $186 $-1 #
edge $-1 $431 0 $431 6.2831853071796004 $187 $432 forward 7 unknown #
vertex $-1 $190 $433 #
ellipse-curve $-1 -13.476207094741454 36.208875751695707 15.125321830809051 0 0.80901700255871778 0.5877852410284794 0.25 0 0 1 I I #
coedge $-1 $302 $302 $-1 $434 reversed $193 $-1 #
edge $-1 $435 0 $435 6.2831853071796004 $194 $436 forward 7 unknown #
vertex $-1 $197 $437 #
ellipse-curve $-1 -0.81255925369727322 36.208875751695707 15.125321830809051 0 0.80901700255871778 0.5877852410284794 0.25 0 0 1 I I #
face $-1 $-1 $438 $41 $-1 $439 forward single #
loop $-1 $-1 $319 $198 #
plane-surface $-1 7.629872640332195 113.24147483064404 161.033119487639 -1 0 0 0 0.80901700255871778 0.5877852410284794 forward_v I I I I #
coedge $-1 $315 $440 $311 $441 forward $199 $-1 #
coedge $-1 $311 $201 $314 $442 reversed $125 $-1 #
coedge $-1 $201 $310 $309 $441 reversed $125 $-1 #
coedge $-1 $443 $317 $201 $313 forward $438 $-1 #
edge $-1 $444 -21.568589812306939 $445 -19.255133514945676 $312 $446 forward 7 unknown #
coedge $-1 $203 $202 $310 $442 forward $80 $-1 #
coedge $-1 $447 $309 $202 $316 forward $199 $-1 #
edge $-1 $448 -40.750575856544963 $321 -11.202064227441873 $315 $449 forward 7 unknown #
coedge $-1 $312 $450 $203 $318 forward $438 $-1 #
edge $-1 $322 11.202064227441873 $444 40.750575856544963 $317 $451 forward 7 unknown #
coedge $-1 $320 $204 $450 $452 reversed $307 $-1 #
coedge $-1 $204 $319 $447 $453 reversed $307 $-1 #
vertex $-1 $316 $454 #
vertex $-1 $318 $455 #
straight-curve $-1 7.629872640332195 -6.5602970891384444 73.992039806007213 0 -0.5877852410284794 0.80901700255871778 I I #
coedge $-1 $324 $324 $-1 $456 reversed $208 $-1 #
edge $-1 $457 0 $457 6.2831853071796004 $209 $458 forward 7 unknown #
vertex $-1 $212 $459 #
ellipse-curve $-1 16.072304534361635 36.208875751695707 15.125321830809051 0 0.80901700255871778 0.5877852410284794 0.25 0 0 1 I I #
coedge $-1 $328 $328 $-1 $460 reversed $215 $-1 #
edge $-1 $461 0 $461 6.2831853071796004 $216 $462 forward 7 unknown #
vertex $-1 $219 $463 #
ellipse-curve $-1 28.735952375405816 36.208875751695707 15.125321830809051 0 0.80901700255871778 0.5877852410284794 0.25 0 0 1 I I #
face $-1 $-1 $235 $33 $-1 $464 reversed single #
loop $-1 $-1 $348 $220 #
plane-surface $-1 0 37.365603900376342 0 0 -1 0 0 0 -1 forward_v I I I I #
coedge $-1 $465 $346 $349 $466 forward $221 $-1 #
coedge $-1 $352 $223 $224 $340 reversed $139 $-1 #
coedge $-1 $346 $465 $223 $338 reversed $221 $-1 #
edge $-1 $353 -16.717421588168499 $467 16.717421588168499 $337 $468 forward 7 unknown #
coedge $-1 $225 $224 $465 $469 forward $89 $-1 #
edge $-1 $344 -74.041566209906307 $467 74.041566209906307 $336 $470 forward 7 unknown #
coedge $-1 $349 $348 $225 $342 reversed $333 $-1 #
edge $-1 $471 -74.041566209906307 $343 74.041566209906307 $341 $472 forward 7 unknown #
vertex $-1 $227 $473 #
vertex $-1 $355 $474 #
straight-curve $-1 74.041566209906307 0 -16.717421588168499 0 -1 0 I I #
coedge $-1 $335 $337 $228 $347 reversed $221 $-1 #
edge $-1 $350 -37.365603900376342 $353 37.365603900376342 $346 $475 forward 7 unknown #
coedge $-1 $341 $229 $234 $356 forward $333 $-1 #
coedge $-1 $229 $341 $335 $466 reversed $333 $-1 #
vertex $-1 $230 $476 #
straight-curve $-1 0 37.365603900376342 16.717421588168499 -1 0 0 I I #
coedge $-1 $231 $336 $233 $355 reversed $139 $-1 #
vertex $-1 $347 $477 #
straight-curve $-1 0 -37.365603900376342 16.717421588168499 1 0 0 I I #
edge $-1 $236 -16.717421588168499 $344 16.717421588168499 $233 $478 forward 7 unknown #
edge $-1 $237 -16.717421588168499 $343 16.717421588168499 $234 $479 forward 7 unknown #
point $-1 74.041566209906307 -37.365603900376342 16.717421588168499 #
point $-1 74.041566209906307 37.365603900376342 16.717421588168499 #
face $-1 $-1 $254 $34 $-1 $480 reversed single #
loop $-1 $-1 $368 $239 #
plane-surface $-1 0 0 16.717421588168499 0 0 1 1 0 0 forward_v I I I I #
coedge $-1 $374 $373 $243 $367 forward $240 $-1 #
coedge $-1 $245 $242 $374 $481 reversed $147 $-1 #
coedge $-1 $242 $245 $377 $482 reversed $147 $-1 #
edge $-1 $379 -16.717421588168499 $375 16.717421588168499 $242 $483 forward 7 unknown #
coedge $-1 $244 $243 $381 $484 reversed $93 $-1 #
edge $-1 $485 -40.835719425119244 $371 -25.575974144454882 $362 $486 forward 7 unknown #
coedge $-1 $378 $377 $244 $369 forward $360 $-1 #
edge $-1 $370 25.575974144454882 $487 40.835719425119244 $368 $488 forward 7 unknown #
vertex $-1 $369 $489 #
vertex $-1 $367 $490 #
straight-curve $-1 -58.781820929241945 -3.9307607240393452 0 0 0 -1 I I #
coedge $-1 $362 $248 $253 $383 forward $240 $-1 #
coedge $-1 $248 $362 $363 $481 forward $240 $-1 #
vertex $-1 $249 $491 #
straight-curve $-1 -33.205846784787063 -13.497348211442755 -16.717421588168499 -1 0 0 I I #
coedge $-1 $368 $250 $364 $482 forward $360 $-1 #
coedge $-1 $250 $368 $252 $382 forward $360 $-1 #
vertex $-1 $251 $492 #
straight-curve $-1 -33.205846784787063 -13.497348211442755 16.717421588168499 1 0 0 I I #
coedge $-1 $253 $252 $366 $484 forward $254 $-1 #
edge $-1 $487 3.9307607240393452 $256 13.497348211442755 $252 $493 forward 7 unknown #
edge $-1 $255 -13.497348211442755 $485 -3.9307607240393452 $253 $494 forward 7 unknown #
point $-1 -74.041566209906307 -13.497348211442755 -16.717421588168499 #
point $-1 -74.041566209906307 -13.497348211442755 16.717421588168499 #
plane-surface $-1 0 0 16.717421588168499 0 0 1 1 0 0 forward_v I I I I #
coedge $-1 $397 $396 $389 $495 forward $259 $-1 #
coedge $-1 $389 $261 $263 $393 reversed $155 $-1 #
coedge $-1 $261 $388 $387 $495 reversed $155 $-1 #
coedge $-1 $269 $264 $261 $391 forward $270 $-1 #
edge $-1 $394 -35.171794921792667 $496 -26.901738509677941 $390 $497 forward 7 unknown #
coedge $-1 $263 $262 $397 $498 reversed $97 $-1 #
edge $-1 $499 -1.7760113164789269e-014 $394 10.494852306987456 $388 $500 forward 7 unknown #
vertex $-1 $265 $501 #
straight-curve $-1 -21.149694979287439 -29.095547488261612 16.717421588168499 -1 0 0 I I #
coedge $-1 $387 $266 $269 $401 reversed $259 $-1 #
coedge $-1 $266 $387 $392 $498 forward $259 $-1 #
vertex $-1 $267 $502 #
straight-curve $-1 -25.81695898790781 -37.365603900376342 63.473622566914202 0 0 1 I I #
straight-curve $-1 -25.81695898790781 -37.365603900376328 10.256145252496097 0 -0.78801074757464917 -0.61566148304635926 I I #
edge $-1 $496 -58.781820929241945 $271 -25.81695898790781 $396 $503 forward 7 unknown #
point $-1 -25.81695898790781 -37.365603900376342 16.717421588168499 #
point $-1 -25.81695898790781 -29.095547488261612 16.717421588168499 #
edge $-1 $504 1 $504 0 $274 $-1 forward 7 unknown #
vertex $-1 $275 $505 #
ellipse-curve $-1 -49.363288946003621 -30.586643412477716 10.102704488446932 0 -0.61566148304635926 0.78801074757464917 1.5 0 0 1 I I #
point $-1 -47.863288946003621 -33.230575694318993 13.486783420332307 #
edge $-1 $506 1 $506 0 $278 $-1 forward 7 unknown #
vertex $-1 $279 $507 #
ellipse-curve $-1 -35.235490971146135 -30.586643412477716 10.102704488446932 0 -0.61566148304635926 0.78801074757464917 1.5 0 0 1 I I #
point $-1 -33.735490971146135 -33.230575694318993 13.486783420332307 #
plane-surface $-1 0 0 16.717421588168499 0 0 1 1 0 0 forward_v I I I I #
coedge $-1 $423 $422 $415 $508 forward $283 $-1 #
coedge $-1 $415 $285 $287 $419 reversed $177 $-1 #
coedge $-1 $285 $414 $413 $508 reversed $177 $-1 #
coedge $-1 $293 $288 $285 $417 forward $294 $-1 #
edge $-1 $420 -21.568589812306939 $509 -19.255133514945676 $416 $510 forward 7 unknown #
coedge $-1 $287 $286 $423 $511 reversed $111 $-1 #
edge $-1 $512 -74.731207800752671 $420 -70.795320786452535 $414 $513 forward 7 unknown #
vertex $-1 $289 $514 #
straight-curve $-1 -3.5721915871096783 35.052147603015072 16.717421588168506 1 0 0 I I #
coedge $-1 $413 $290 $293 $427 reversed $283 $-1 #
coedge $-1 $290 $413 $418 $511 forward $283 $-1 #
vertex $-1 $291 $515 #
straight-curve $-1 -21.918638988770908 37.365603900376342 80.516559743819499 0 0 1 I I #
straight-curve $-1 -21.918638988770908 -6.5602970891384444 73.992039806007213 0 0.5877852410284794 -0.80901700255871778 I I #
edge $-1 $509 -7.629872640332195 $295 21.918638988770908 $422 $516 forward 7 unknown #
point $-1 -21.918638988770908 37.365603900376342 16.717421588168499 #
point $-1 -21.918638988770908 35.052147603015079 16.717421588168499 #
edge $-1 $517 1 $517 0 $298 $-1 forward 7 unknown #
vertex $-1 $299 $518 #
ellipse-curve $-1 -13.476207094741454 35.399858749136989 14.537536589780572 0 0.80901700255871778 0.5877852410284794 0.25 0 0 1 I I #
point $-1 -13.226207094741454 36.208875751695707 15.125321830809051 #
edge $-1 $519 1 $519 0 $302 $-1 forward 7 unknown #
vertex $-1 $303 $520 #
ellipse-curve $-1 -0.81255925369727322 35.399858749136989 14.537536589780572 0 0.80901700255871778 0.5877852410284794 0.25 0 0 1 I I #
point $-1 -0.56255925369727322 36.208875751695707 15.125321830809051 #
loop $-1 $-1 $312 $306 #
plane-surface $-1 0 0 16.717421588168499 0 0 1 1 0 0 forward_v I I I I #
coedge $-1 $309 $447 $443 $521 reversed $199 $-1 #
edge $-1 $445 63.799138155651001 $448 66.983337670369878 $309 $522 forward 7 unknown #
edge $-1 $448 -74.731207800752671 $444 -70.795320786452535 $310 $523 forward 7 unknown #
coedge $-1 $450 $312 $440 $521 forward $438 $-1 #
vertex $-1 $313 $524 #
vertex $-1 $521 $525 #
straight-curve $-1 37.178384269435284 56.620737415322019 16.717421588168506 0 1 0 I I #
coedge $-1 $440 $315 $320 $453 forward $199 $-1 #
vertex $-1 $441 $526 #
straight-curve $-1 -3.5721915871096783 37.365603900376342 13.533222073449622 -1 0 0 I I #
coedge $-1 $317 $443 $319 $452 forward $438 $-1 #
straight-curve $-1 -3.5721915871096783 35.052147603015072 16.717421588168506 1 0 0 I I #
edge $-1 $527 19.255133514945676 $322 21.568589812306939 $450 $528 forward 7 unknown #
edge $-1 $321 -66.983337670369878 $527 -63.799138155651001 $447 $529 forward 7 unknown #
point $-1 7.629872640332195 37.365603900376342 13.533222073449622 #
point $-1 7.629872640332195 35.052147603015079 16.717421588168499 #
edge $-1 $530 1 $530 0 $324 $-1 forward 7 unknown #
vertex $-1 $325 $531 #
ellipse-curve $-1 16.072304534361635 35.399858749136989 14.537536589780572 0 0.80901700255871778 0.5877852410284794 0.25 0 0 1 I I #
point $-1 16.322304534361635 36.208875751695707 15.125321830809051 #
edge $-1 $532 1 $532 0 $328 $-1 forward 7 unknown #
vertex $-1 $329 $533 #
ellipse-curve $-1 28.735952375405816 35.399858749136989 14.537536589780572 0 0.80901700255871778 0.5877852410284794 0.25 0 0 1 I I #
point $-1 28.985952375405816 36.208875751695707 15.125321830809051 #
plane-surface $-1 74.041566209906307 0 0 -1 0 0 0 0 1 forward_v I I I I #
coedge $-1 $337 $335 $339 $469 reversed $221 $-1 #
edge $-1 $350 -16.717421588168499 $471 16.717421588168499 $349 $534 forward 7 unknown #
vertex $-1 $469 $535 #
straight-curve $-1 -74.041566209906307 -37.365603900376342 0 0 0 -1 I I #
edge $-1 $467 -37.365603900376342 $471 37.365603900376342 $465 $536 forward 7 unknown #
straight-curve $-1 0 -37.365603900376342 -16.717421588168499 -1 0 0 I I #
vertex $-1 $342 $537 #
straight-curve $-1 0 37.365603900376342 -16.717421588168499 1 0 0 I I #
point $-1 74.041566209906307 37.365603900376342 -16.717421588168499 #
point $-1 74.041566209906307 -37.365603900376342 -16.717421588168499 #
straight-curve $-1 -74.041566209906307 0 16.717421588168499 0 -1 0 I I #
point $-1 -74.041566209906307 37.365603900376342 16.717421588168499 #
point $-1 -74.041566209906307 -37.365603900376342 16.717421588168499 #
straight-curve $-1 74.041566209906307 -37.365603900376342 0 0 0 -1 I I #
straight-curve $-1 74.041566209906307 37.365603900376342 0 0 0 -1 I I #
plane-surface $-1 -74.041566209906307 0 0 1 0 0 0 0 -1 forward_v I I I I #
edge $-1 $371 -0.42626650983117997 $375 9.1403209775722303 $374 $538 forward 7 unknown #
edge $-1 $379 -9.1403209775722303 $370 0.42626650983117997 $377 $539 forward 7 unknown #
straight-curve $-1 -58.781820929241945 -13.497348211442755 0 0 0 -1 I I #
edge $-1 $487 -16.717421588168499 $485 16.717421588168499 $381 $540 forward 7 unknown #
vertex $-1 $484 $541 #
straight-curve $-1 -33.205846784787063 -3.9307607240393452 -16.717421588168499 1 0 0 I I #
vertex $-1 $382 $542 #
straight-curve $-1 -33.205846784787063 -3.9307607240393452 16.717421588168499 -1 0 0 I I #
point $-1 -58.781820929241945 -3.9307607240393452 16.717421588168499 #
point $-1 -58.781820929241945 -3.9307607240393452 -16.717421588168499 #
point $-1 -58.781820929241945 -13.497348211442755 -16.717421588168499 #
point $-1 -58.781820929241945 -13.497348211442755 16.717421588168499 #
straight-curve $-1 -74.041566209906307 0 16.717421588168499 0 -1 0 I I #
straight-curve $-1 -74.041566209906307 0 -16.717421588168499 0 1 0 I I #
edge $-1 $496 46.756200978745703 $499 53.217477314418119 $387 $543 forward 7 unknown #
vertex $-1 $401 $544 #
straight-curve $-1 -58.781820929241945 -64.267342410054283 16.717421588168499 0 -1 0 I I #
edge $-1 $499 -37.632125949954506 $398 -4.6672640086203714 $397 $545 forward 7 unknown #
vertex $-1 $498 $546 #
straight-curve $-1 -58.781820929241945 -37.365603900376328 10.256145252496097 0 0.78801074757464917 0.61566148304635926 I I #
point $-1 -58.781820929241945 -29.095547488261612 16.717421588168499 #
point $-1 -25.81695898790781 -37.365603900376342 10.256145252496086 #
straight-curve $-1 0 -37.365603900376342 16.717421588168499 1 0 0 I I #
vertex $-1 $404 $547 #
point $-1 -47.863288946003621 -30.586643412477716 10.102704488446932 #
vertex $-1 $408 $548 #
point $-1 -33.735490971146135 -30.586643412477716 10.102704488446932 #
edge $-1 $509 63.799138155651001 $512 66.983337670369878 $413 $549 forward 7 unknown #
vertex $-1 $427 $550 #
straight-curve $-1 7.629872640332195 56.620737415322019 16.717421588168506 0 1 0 I I #
edge $-1 $512 -11.202064227441873 $424 18.34644740166123 $423 $551 forward 7 unknown #
vertex $-1 $511 $552 #
straight-curve $-1 7.629872640332195 -6.5602970891384444 73.992039806007213 0 -0.5877852410284794 0.80901700255871778 I I #
point $-1 7.629872640332195 35.052147603015079 16.717421588168499 #
point $-1 -21.918638988770908 37.365603900376342 13.533222073449622 #
straight-curve $-1 0 37.365603900376342 16.717421588168499 -1 0 0 I I #
vertex $-1 $430 $553 #
point $-1 -13.226207094741454 35.399858749136989 14.537536589780572 #
vertex $-1 $434 $554 #
point $-1 -0.56255925369727322 35.399858749136989 14.537536589780572 #
edge $-1 $445 -37.178384269435284 $527 -7.629872640332195 $440 $555 forward 7 unknown #
straight-curve $-1 37.178384269435284 37.365603900376342 80.516559743819499 0 0 -1 I I #
straight-curve $-1 37.178384269435284 -6.5602970891384444 73.992039806007213 0 -0.5877852410284794 0.80901700255871778 I I #
point $-1 37.178384269435284 35.052147603015079 16.717421588168499 #
point $-1 37.178384269435284 37.365603900376342 16.717421588168499 #
point $-1 37.178384269435284 37.365603900376342 13.533222073449622 #
vertex $-1 $453 $556 #
straight-curve $-1 7.629872640332195 56.620737415322019 16.717421588168506 0 -1 0 I I #
straight-curve $-1 7.629872640332195 37.365603900376342 80.516559743819499 0 0 1 I I #
vertex $-1 $456 $557 #
point $-1 16.322304534361635 35.399858749136989 14.537536589780572 #
vertex $-1 $460 $558 #
point $-1 28.985952375405816 35.399858749136989 14.537536589780572 #
straight-curve $-1 -74.041566209906307 37.365603900376342 0 0 0 -1 I I #
point $-1 -74.041566209906307 -37.365603900376342 -16.717421588168499 #
straight-curve $-1 -74.041566209906307 0 -16.717421588168499 0 1 0 I I #
point $-1 -74.041566209906307 37.365603900376342 -16.717421588168499 #
straight-curve $-1 -58.781820929241945 -4.3570272338705252 -16.717421588168499 0 -1 0 I I #
straight-curve $-1 -58.781820929241945 -4.3570272338705252 16.717421588168499 0 1 0 I I #
straight-curve $-1 -74.041566209906307 -3.9307607240393452 0 0 0 -1 I I #
point $-1 -74.041566209906307 -3.9307607240393452 -16.717421588168499 #
point $-1 -74.041566209906307 -3.9307607240393452 16.717421588168499 #
straight-curve $-1 -58.781820929241945 -37.365603900376342 63.473622566914202 0 0 -1 I I #
point $-1 -58.781820929241945 -37.365603900376342 16.717421588168499 #
straight-curve $-1 -21.149694979287439 -37.365603900376342 10.256145252496085 1 0 0 I I #
point $-1 -58.781820929241945 -37.365603900376342 10.256145252496086 #
point $-1 -49.363288946003621 -29.663151187908181 8.9206883670849564 #
point $-1 -35.235490971146135 -29.663151187908181 8.9206883670849564 #
straight-curve $-1 7.629872640332195 37.365603900376342 80.516559743819499 0 0 -1 I I #
point $-1 7.629872640332195 37.365603900376342 16.717421588168499 #
straight-curve $-1 -3.5721915871096783 37.365603900376342 13.533222073449622 -1 0 0 I I #
point $-1 7.629872640332195 37.365603900376342 13.533222073449622 #
point $-1 -13.476207094741454 35.197604498497306 14.390590279523451 #
point $-1 -0.81255925369727322 35.197604498497306 14.390590279523451 #
straight-curve $-1 0 37.365603900376342 16.717421588168499 -1 0 0 I I #
point $-1 7.629872640332195 37.365603900376342 16.717421588168499 #
point $-1 16.072304534361635 35.197604498497306 14.390590279523451 #
point $-1 28.735952375405816 35.197604498497306 14.390590279523451 #
End-of-ACIS-data 