500 0 11 0           
7 Unknown 11 ACIS 5.0 NT 24 Thu Mar 25 20:29:55 1999 
-1 9.9999999999999995e-007 1e-010 
body $-1 $11 $-1 $12 #
body $-1 $13 $-1 $14 #
body $-1 $15 $-1 $16 #
body $-1 $17 $-1 $18 #
body $-1 $19 $-1 $20 #
body $-1 $21 $-1 $22 #
body $-1 $23 $-1 $24 #
body $-1 $25 $-1 $26 #
body $-1 $27 $-1 $28 #
body $-1 $29 $-1 $30 #
body $-1 $31 $-1 $32 #
lump $-1 $-1 $33 $0 #
transform $-1 1 0 0 0 1 0 0 0 1 56.840113528855255 39.063158560633916 16.251261060905957 1 rotate no_reflect no_shear #
lump $-1 $-1 $34 $1 #
transform $-1 1 0 0 0 1 0 0 0 1 56.840113528855255 39.063158560633916 16.251261060905957 1 rotate no_reflect no_shear #
lump $-1 $-1 $35 $2 #
transform $-1 1 0 0 0 1 0 0 0 1 56.840113528855255 39.063158560633916 16.251261060905957 1 rotate no_reflect no_shear #
lump $-1 $-1 $36 $3 #
transform $-1 1 0 0 0 1 0 0 0 1 56.840113528855255 39.063158560633916 16.251261060905957 1 rotate no_reflect no_shear #
lump $-1 $-1 $37 $4 #
transform $-1 1 0 0 0 1 0 0 0 1 56.840113528855255 39.063158560633916 16.251261060905957 1 rotate no_reflect no_shear #
lump $-1 $-1 $38 $5 #
transform $-1 1 0 0 0 1 0 0 0 1 56.840113528855255 39.063158560633916 16.251261060905957 1 rotate no_reflect no_shear #
lump $-1 $-1 $39 $6 #
transform $-1 1 0 0 0 1 0 0 0 1 56.840113528855255 39.063158560633916 16.251261060905957 1 rotate no_reflect no_shear #
lump $-1 $-1 $40 $7 #
transform $-1 1 0 0 0 1 0 0 0 1 56.840113528855255 39.063158560633916 16.251261060905957 1 rotate no_reflect no_shear #
lump $-1 $-1 $41 $8 #
transform $-1 1 0 0 0 1 0 0 0 1 56.840113528855255 39.063158560633916 16.251261060905957 1 rotate no_reflect no_shear #
lump $-1 $-1 $42 $9 #
transform $-1 1 0 0 0 1 0 0 0 1 56.840113528855255 39.063158560633916 16.251261060905957 1 rotate no_reflect no_shear #
lump $-1 $-1 $43 $10 #
transform $-1 1 0 0 0 1 0 0 0 1 56.840113528855255 39.063158560633916 16.251261060905957 1 rotate no_reflect no_shear #
shell $-1 $-1 $-1 $44 $-1 $11 #
shell $-1 $-1 $-1 $45 $-1 $13 #
shell $-1 $-1 $-1 $46 $-1 $15 #
shell $-1 $-1 $-1 $47 $-1 $17 #
shell $-1 $-1 $-1 $48 $-1 $19 #
shell $-1 $-1 $-1 $49 $-1 $21 #
shell $-1 $-1 $-1 $50 $-1 $23 #
shell $-1 $-1 $-1 $51 $-1 $25 #
shell $-1 $-1 $-1 $52 $-1 $27 #
shell $-1 $-1 $-1 $53 $-1 $29 #
shell $-1 $-1 $-1 $54 $-1 $31 #
face $-1 $55 $56 $33 $-1 $57 forward single #
face $-1 $58 $59 $34 $-1 $60 reversed single #
face $-1 $61 $62 $35 $-1 $63 reversed single #
face $-1 $64 $65 $36 $-1 $66 forward single #
face $-1 $67 $68 $37 $-1 $69 forward single #
face $-1 $70 $71 $38 $-1 $72 reversed single #
face $-1 $73 $74 $39 $-1 $75 forward single #
face $-1 $76 $77 $40 $-1 $78 forward single #
face $-1 $79 $80 $41 $-1 $81 reversed single #
face $-1 $82 $83 $42 $-1 $84 forward single #
face $-1 $85 $86 $43 $-1 $87 forward single #
face $-1 $88 $89 $33 $-1 $90 reversed single #
loop $-1 $-1 $91 $44 #
plane-surface $-1 0 0 16.251261060905957 0 0 1 1 0 0 forward_v I I I I #
face $-1 $92 $93 $34 $-1 $94 reversed single #
loop $-1 $-1 $95 $45 #
plane-surface $-1 0 -29.688407312075345 8.2262616797573962 0 0 1 1 0 0 forward_v I I I I #
face $-1 $96 $97 $35 $-1 $98 reversed single #
loop $-1 $-1 $99 $46 #
plane-surface $-1 54.034324799618304 9.3747512485585673 164.62474378914536 0 -1 0 -0.69465837861970381 0 -0.71933979245794832 forward_v I I I I #
face $-1 $100 $101 $36 $-1 $102 forward single #
loop $-1 $103 $104 $47 #
cone-surface $-1 49.678172704827503 0.92988717643677177 9.2821774840237765 -0.69465837861970381 0 -0.71933979245794832 1.0790096886869225 0 -1.0419875679295556 1 I I 0 1 1.5 forward I I I I #
face $-1 $105 $106 $37 $-1 $107 forward single #
loop $-1 $108 $109 $48 #
cone-surface $-1 49.678172704827503 5.9968056197098463 9.2821774840237765 -0.69465837861970381 0 -0.71933979245794832 1.0790096886869225 0 -1.0419875679295556 1 I I 0 1 1.5 forward I I I I #
face $-1 $110 $111 $38 $-1 $112 reversed single #
loop $-1 $-1 $113 $49 #
plane-surface $-1 -24.934597409410657 3.4633463980733126 82.85003285087943 0.69465837861970381 0 0.71933979245794832 0.71933979245794832 0 -0.69465837861970381 forward_v I I I I #
face $-1 $114 $115 $39 $-1 $116 forward single #
loop $-1 $117 $118 $50 #
cone-surface $-1 49.678172704827503 12.752696877407288 9.2821774840237765 -0.69465837861970381 0 -0.71933979245794832 1.0790096886869225 0 -1.0419875679295556 1 I I 0 1 1.5 forward I I I I #
face $-1 $119 $120 $40 $-1 $121 forward single #
loop $-1 $122 $123 $51 #
cone-surface $-1 49.678172704827503 17.819615320680363 9.2821774840237765 -0.69465837861970381 0 -0.71933979245794832 1.0790096886869225 0 -1.0419875679295556 1 I I 0 1 1.5 forward I I I I #
face $-1 $124 $125 $41 $-1 $126 reversed single #
loop $-1 $-1 $127 $52 #
plane-surface $-1 -149.961504843071 25.154507944984083 78.269126832286418 0 1 0 -0.81915205242281985 0 0.57357642473473569 forward_v I I I I #
face $-1 $128 $129 $42 $-1 $130 forward single #
loop $-1 $131 $132 $53 #
cone-surface $-1 -55.173946983666681 29.128408120884039 14.272521388281159 0.81915205242281985 0 -0.57357642473473569 0.28678821236736785 0 0.40957602621140993 1 I I 0 1 0.5 forward I I I I #
face $-1 $133 $134 $43 $-1 $135 forward single #
loop $-1 $136 $137 $54 #
cone-surface $-1 -55.173946983666681 35.089258384733974 14.272521388281159 0.81915205242281985 0 -0.57357642473473569 0.28678821236736785 0 0.40957602621140993 1 I I 0 1 0.5 forward I I I I #
face $-1 $138 $139 $33 $-1 $140 reversed single #
loop $-1 $-1 $141 $55 #
plane-surface $-1 0 0 -16.251261060905957 0 0 1 1 0 0 forward_v I I I I #
coedge $-1 $142 $143 $144 $145 forward $56 $-1 #
face $-1 $146 $147 $34 $-1 $148 reversed single #
loop $-1 $-1 $149 $58 #
plane-surface $-1 0 -20.313656063516774 12.238761370331677 0 -1 0 0 0 -1 forward_v I I I I #
coedge $-1 $150 $151 $152 $153 reversed $59 $-1 #
face $-1 $154 $155 $35 $-1 $156 reversed single #
loop $-1 $-1 $157 $61 #
plane-surface $-1 -24.934597409410657 3.4633463980733126 82.85003285087943 0.69465837861970381 0 0.71933979245794832 0.71933979245794832 0 -0.69465837861970381 forward_v I I I I #
coedge $-1 $158 $159 $160 $161 reversed $62 $-1 #
face $-1 $-1 $162 $36 $-1 $163 forward single #
loop $-1 $164 $165 $64 #
cone-surface $-1 48.40007082396491 0.92988717643677177 7.9586642723258869 -0.69465837861970381 0 -0.71933979245794832 0.53950484434346124 0 -0.5209937839647778 1 I I -0.70710678118654757 0.70710678118654757 0.75 forward I I I I #
loop $-1 $-1 $166 $47 #
coedge $-1 $104 $104 $167 $168 reversed $65 $-1 #
face $-1 $-1 $169 $37 $-1 $170 forward single #
loop $-1 $171 $172 $67 #
cone-surface $-1 48.40007082396491 5.9968056197098463 7.9586642723258869 -0.69465837861970381 0 -0.71933979245794832 0.53950484434346124 0 -0.5209937839647778 1 I I -0.70710678118654757 0.70710678118654757 0.75 forward I I I I #
loop $-1 $-1 $173 $48 #
coedge $-1 $109 $109 $174 $175 reversed $68 $-1 #
face $-1 $176 $177 $38 $-1 $178 reversed single #
loop $-1 $-1 $179 $70 #
plane-surface $-1 54.034324799618304 21.197560949529084 164.62474378914536 0 -1 0 -0.69465837861970381 0 -0.71933979245794832 forward_v I I I I #
coedge $-1 $180 $181 $182 $183 reversed $71 $-1 #
face $-1 $-1 $184 $39 $-1 $185 forward single #
loop $-1 $186 $187 $73 #
cone-surface $-1 48.40007082396491 12.752696877407288 7.9586642723258869 -0.69465837861970381 0 -0.71933979245794832 0.53950484434346124 0 -0.5209937839647778 1 I I -0.70710678118654757 0.70710678118654757 0.75 forward I I I I #
loop $-1 $-1 $188 $50 #
coedge $-1 $118 $118 $189 $190 reversed $74 $-1 #
face $-1 $-1 $191 $40 $-1 $192 forward single #
loop $-1 $193 $194 $76 #
cone-surface $-1 48.40007082396491 17.819615320680363 7.9586642723258869 -0.69465837861970381 0 -0.71933979245794832 0.53950484434346124 0 -0.5209937839647778 1 I I -0.70710678118654757 0.70710678118654757 0.75 forward I I I I #
loop $-1 $-1 $195 $51 #
coedge $-1 $123 $123 $196 $197 reversed $77 $-1 #
face $-1 $198 $199 $41 $-1 $200 forward single #
loop $-1 $-1 $201 $79 #
plane-surface $-1 -56.840113528855255 32.108833252808999 13.064828633491857 -0.81915205242281985 0 0.57357642473473569 0.57357642473473569 0 0.81915205242281985 forward_v I I I I #
coedge $-1 $202 $203 $204 $205 reversed $80 $-1 #
face $-1 $-1 $206 $42 $-1 $207 forward single #
loop $-1 $208 $209 $82 #
cone-surface $-1 -54.418574394537536 29.128408120884039 13.743603823179729 0.81915205242281985 0 -0.57357642473473569 0.14339410618368392 0 0.20478801310570496 1 I I -0.70710678118654746 0.70710678118654746 0.25 forward I I I I #
loop $-1 $-1 $210 $53 #
coedge $-1 $132 $132 $211 $212 reversed $83 $-1 #
face $-1 $-1 $213 $43 $-1 $214 forward single #
loop $-1 $215 $216 $85 #
cone-surface $-1 -54.418574394537536 35.089258384733974 13.743603823179729 0.81915205242281985 0 -0.57357642473473569 0.14339410618368392 0 0.20478801310570496 1 I I -0.70710678118654746 0.70710678118654746 0.25 forward I I I I #
loop $-1 $-1 $217 $54 #
coedge $-1 $137 $137 $218 $219 reversed $86 $-1 #
face $-1 $220 $221 $33 $-1 $222 reversed single #
loop $-1 $-1 $223 $88 #
plane-surface $-1 0 -39.063158560633916 0 0 1 0 0 0 1 forward_v I I I I #
coedge $-1 $224 $225 $226 $227 forward $89 $-1 #
coedge $-1 $228 $91 $229 $230 forward $56 $-1 #
coedge $-1 $91 $228 $231 $232 forward $56 $-1 #
coedge $-1 $233 $234 $91 $145 reversed $235 $-1 #
edge $-1 $236 -39.063158560633916 $237 39.063158560633916 $144 $238 forward 7 unknown #
face $-1 $239 $240 $34 $-1 $241 reversed single #
loop $-1 $-1 $242 $92 #
plane-surface $-1 -56.840113528855255 0 0 1 0 0 0 0 -1 forward_v I I I I #
coedge $-1 $243 $244 $245 $246 reversed $93 $-1 #
coedge $-1 $247 $95 $248 $249 reversed $59 $-1 #
coedge $-1 $95 $247 $243 $250 forward $59 $-1 #
coedge $-1 $245 $251 $95 $153 forward $252 $-1 #
edge $-1 $253 -24.218954904596245 $254 -5.4694524074791016 $152 $255 forward 7 unknown #
face $-1 $256 $257 $35 $-1 $258 reversed single #
loop $-1 $-1 $259 $96 #
plane-surface $-1 54.034324799618304 -2.4480584524119422 164.62474378914536 0 1 0 0.69465837861970381 0 0.71933979245794832 forward_v I I I I #
coedge $-1 $260 $261 $262 $263 reversed $97 $-1 #
coedge $-1 $159 $99 $264 $265 reversed $62 $-1 #
coedge $-1 $99 $158 $260 $266 reversed $62 $-1 #
coedge $-1 $262 $267 $99 $161 forward $268 $-1 #
edge $-1 $269 -29.822951129046103 $270 -17.01328567478626 $160 $271 forward 7 unknown #
loop $-1 $-1 $167 $100 #
plane-surface $-1 -24.934597409410657 3.4633463980733126 82.85003285087943 0.69465837861970381 0 0.71933979245794832 0.71933979245794832 0 -0.69465837861970381 forward_v I I I I #
loop $-1 $-1 $272 $64 #
coedge $-1 $165 $165 $166 $273 reversed $101 $-1 #
coedge $-1 $166 $166 $165 $273 forward $103 $-1 #
coedge $-1 $167 $167 $104 $168 forward $162 $-1 #
edge $-1 $274 0 $274 6.2831853071796004 $167 $275 forward 7 unknown #
loop $-1 $-1 $174 $105 #
plane-surface $-1 -24.934597409410657 3.4633463980733126 82.85003285087943 0.69465837861970381 0 0.71933979245794832 0.71933979245794832 0 -0.69465837861970381 forward_v I I I I #
loop $-1 $-1 $276 $67 #
coedge $-1 $172 $172 $173 $277 reversed $106 $-1 #
coedge $-1 $173 $173 $172 $277 forward $108 $-1 #
coedge $-1 $174 $174 $109 $175 forward $169 $-1 #
edge $-1 $278 0 $278 6.2831853071796004 $174 $279 forward 7 unknown #
face $-1 $280 $281 $38 $-1 $282 forward single #
loop $-1 $-1 $283 $110 #
plane-surface $-1 56.840113528855255 0 0 -1 0 0 0 0 1 forward_v I I I I #
coedge $-1 $284 $285 $286 $287 reversed $111 $-1 #
coedge $-1 $288 $113 $289 $290 reversed $71 $-1 #
coedge $-1 $113 $288 $283 $291 reversed $71 $-1 #
coedge $-1 $292 $293 $113 $183 forward $281 $-1 #
edge $-1 $294 95.872696335004534 $295 113.6802270577105 $182 $296 forward 7 unknown #
loop $-1 $-1 $189 $114 #
plane-surface $-1 -24.934597409410657 3.4633463980733126 82.85003285087943 0.69465837861970381 0 0.71933979245794832 0.71933979245794832 0 -0.69465837861970381 forward_v I I I I #
loop $-1 $-1 $297 $73 #
coedge $-1 $187 $187 $188 $298 reversed $115 $-1 #
coedge $-1 $188 $188 $187 $298 forward $117 $-1 #
coedge $-1 $189 $189 $118 $190 forward $184 $-1 #
edge $-1 $299 0 $299 6.2831853071796004 $189 $300 forward 7 unknown #
loop $-1 $-1 $196 $119 #
plane-surface $-1 -24.934597409410657 3.4633463980733126 82.85003285087943 0.69465837861970381 0 0.71933979245794832 0.71933979245794832 0 -0.69465837861970381 forward_v I I I I #
loop $-1 $-1 $301 $76 #
coedge $-1 $194 $194 $195 $302 reversed $120 $-1 #
coedge $-1 $195 $195 $194 $302 forward $122 $-1 #
coedge $-1 $196 $196 $123 $197 forward $191 $-1 #
edge $-1 $303 0 $303 6.2831853071796004 $196 $304 forward 7 unknown #
face $-1 $305 $306 $41 $-1 $307 reversed single #
loop $-1 $-1 $204 $124 #
plane-surface $-1 0 0 16.251261060905957 0 0 1 1 0 0 forward_v I I I I #
coedge $-1 $308 $309 $310 $311 reversed $125 $-1 #
coedge $-1 $203 $127 $312 $313 reversed $80 $-1 #
coedge $-1 $127 $202 $308 $314 reversed $80 $-1 #
coedge $-1 $310 $315 $127 $205 forward $199 $-1 #
edge $-1 $316 18.140638892680244 $317 20.371802831010491 $204 $318 forward 7 unknown #
loop $-1 $-1 $211 $128 #
plane-surface $-1 -56.840113528855255 32.108833252808999 13.064828633491857 -0.81915205242281985 0 0.57357642473473569 0.57357642473473569 0 0.81915205242281985 forward_v I I I I #
loop $-1 $-1 $319 $82 #
coedge $-1 $209 $209 $210 $320 reversed $129 $-1 #
coedge $-1 $210 $210 $209 $320 forward $131 $-1 #
coedge $-1 $211 $211 $132 $212 forward $206 $-1 #
edge $-1 $321 0 $321 6.2831853071796004 $211 $322 forward 7 unknown #
loop $-1 $-1 $218 $133 #
plane-surface $-1 -56.840113528855255 32.108833252808999 13.064828633491857 -0.81915205242281985 0 0.57357642473473569 0.57357642473473569 0 0.81915205242281985 forward_v I I I I #
loop $-1 $-1 $323 $85 #
coedge $-1 $216 $216 $217 $324 reversed $134 $-1 #
coedge $-1 $217 $217 $216 $324 forward $136 $-1 #
coedge $-1 $218 $218 $137 $219 forward $213 $-1 #
edge $-1 $325 0 $325 6.2831853071796004 $218 $326 forward 7 unknown #
face $-1 $327 $328 $33 $-1 $329 reversed single #
loop $-1 $-1 $330 $138 #
plane-surface $-1 -56.840113528855255 0 0 1 0 0 0 0 -1 forward_v I I I I #
coedge $-1 $331 $231 $332 $333 forward $139 $-1 #
coedge $-1 $334 $141 $331 $335 forward $89 $-1 #
coedge $-1 $141 $334 $336 $337 forward $89 $-1 #
coedge $-1 $234 $233 $141 $227 reversed $235 $-1 #
edge $-1 $338 -39.063158560633916 $339 39.063158560633916 $226 $340 forward 7 unknown #
coedge $-1 $143 $142 $341 $342 forward $56 $-1 #
coedge $-1 $343 $344 $142 $230 reversed $328 $-1 #
edge $-1 $237 -56.840113528855255 $345 56.840113528855255 $229 $346 forward 7 unknown #
coedge $-1 $223 $347 $143 $232 reversed $139 $-1 #
edge $-1 $348 -56.840113528855255 $236 56.840113528855255 $231 $349 forward 7 unknown #
coedge $-1 $226 $144 $347 $350 forward $235 $-1 #
coedge $-1 $144 $226 $343 $351 reversed $235 $-1 #
loop $-1 $-1 $233 $327 #
vertex $-1 $145 $352 #
vertex $-1 $145 $353 #
straight-curve $-1 56.840113528855255 0 16.251261060905957 0 1 0 I I #
face $-1 $354 $355 $34 $-1 $356 forward single #
loop $-1 $-1 $248 $146 #
plane-surface $-1 0 -39.063158560633916 0 0 1 0 0 0 1 forward_v I I I I #
coedge $-1 $357 $358 $359 $360 forward $147 $-1 #
coedge $-1 $359 $149 $151 $250 reversed $93 $-1 #
coedge $-1 $149 $359 $361 $362 reversed $93 $-1 #
coedge $-1 $363 $152 $149 $246 forward $252 $-1 #
edge $-1 $254 2.1068809945915579 $364 10.131880375740119 $245 $365 forward 7 unknown #
coedge $-1 $151 $150 $357 $366 reversed $59 $-1 #
coedge $-1 $367 $368 $150 $249 forward $240 $-1 #
edge $-1 $369 -56.840113528855255 $253 56.840113528855255 $248 $370 forward 7 unknown #
edge $-1 $371 -56.840113528855255 $254 56.840113528855255 $243 $372 forward 7 unknown #
coedge $-1 $152 $363 $367 $373 forward $252 $-1 #
loop $-1 $-1 $245 $354 #
vertex $-1 $249 $374 #
vertex $-1 $153 $375 #
straight-curve $-1 56.840113528855255 -14.844203656037672 8.2262616797573962 0 1 0 I I #
face $-1 $-1 $268 $35 $-1 $376 forward single #
loop $-1 $-1 $377 $154 #
plane-surface $-1 56.840113528855255 0 0 -1 0 0 0 0 1 forward_v I I I I #
coedge $-1 $378 $379 $380 $381 reversed $155 $-1 #
coedge $-1 $382 $157 $159 $266 forward $97 $-1 #
coedge $-1 $157 $382 $378 $383 forward $97 $-1 #
coedge $-1 $380 $160 $157 $263 forward $268 $-1 #
edge $-1 $270 -7.6430780495219111 $384 4.1797316514485985 $262 $385 forward 7 unknown #
coedge $-1 $386 $387 $158 $265 forward $257 $-1 #
edge $-1 $388 -78.431261252722209 $269 -66.061110833666717 $264 $389 forward 7 unknown #
edge $-1 $270 95.872696335004534 $388 113.6802270577105 $159 $390 forward 7 unknown #
coedge $-1 $160 $380 $386 $391 forward $268 $-1 #
loop $-1 $-1 $380 $256 #
vertex $-1 $265 $392 #
vertex $-1 $161 $393 #
straight-curve $-1 27.017162399809152 9.3747512485585673 16.251261060905961 -1 0 0 I I #
coedge $-1 $272 $272 $-1 $394 reversed $164 $-1 #
edge $-1 $395 0 $395 6.2831853071796004 $165 $396 forward 7 unknown #
vertex $-1 $168 $397 #
ellipse-curve $-1 50.435280801725327 0.92988717643677177 10.066185851378215 0.69465837861970381 0 0.71933979245794832 1.0790096886869225 0 -1.0419875679295556 1 I I #
coedge $-1 $276 $276 $-1 $398 reversed $171 $-1 #
edge $-1 $399 0 $399 6.2831853071796004 $172 $400 forward 7 unknown #
vertex $-1 $175 $401 #
ellipse-curve $-1 50.435280801725327 5.9968056197098463 10.066185851378215 0.69465837861970381 0 0.71933979245794832 1.0790096886869225 0 -1.0419875679295556 1 I I #
face $-1 $-1 $402 $38 $-1 $403 forward single #
loop $-1 $-1 $293 $176 #
plane-surface $-1 54.034324799618304 9.3747512485585673 164.62474378914536 0 -1 0 -0.69465837861970381 0 -0.71933979245794832 forward_v I I I I #
coedge $-1 $286 $404 $181 $291 forward $177 $-1 #
coedge $-1 $285 $179 $288 $405 reversed $111 $-1 #
coedge $-1 $179 $284 $406 $407 reversed $111 $-1 #
coedge $-1 $408 $283 $179 $287 forward $177 $-1 #
edge $-1 $409 -78.431261252722209 $410 -66.061110833666717 $286 $411 forward 7 unknown #
coedge $-1 $181 $180 $284 $405 forward $71 $-1 #
coedge $-1 $412 $406 $180 $290 forward $402 $-1 #
edge $-1 $413 -19.465887750492428 $294 -7.6430780495219111 $289 $414 forward 7 unknown #
edge $-1 $295 7.6430780495219111 $409 19.465887750492428 $283 $415 forward 7 unknown #
coedge $-1 $293 $182 $404 $416 reversed $281 $-1 #
coedge $-1 $182 $292 $412 $417 reversed $281 $-1 #
vertex $-1 $290 $418 #
vertex $-1 $291 $419 #
straight-curve $-1 -24.934597409410657 9.3747512485585673 82.85003285087943 0.71933979245794832 0 -0.69465837861970381 I I #
coedge $-1 $297 $297 $-1 $420 reversed $186 $-1 #
edge $-1 $421 0 $421 6.2831853071796004 $187 $422 forward 7 unknown #
vertex $-1 $190 $423 #
ellipse-curve $-1 50.435280801725327 12.752696877407288 10.066185851378215 0.69465837861970381 0 0.71933979245794832 1.0790096886869225 0 -1.0419875679295556 1 I I #
coedge $-1 $301 $301 $-1 $424 reversed $193 $-1 #
edge $-1 $425 0 $425 6.2831853071796004 $194 $426 forward 7 unknown #
vertex $-1 $197 $427 #
ellipse-curve $-1 50.435280801725327 17.819615320680363 10.066185851378215 0.69465837861970381 0 0.71933979245794832 1.0790096886869225 0 -1.0419875679295556 1 I I #
face $-1 $-1 $428 $41 $-1 $429 reversed single #
loop $-1 $-1 $430 $198 #
plane-surface $-1 0 39.063158560633916 0 0 -1 0 0 0 -1 forward_v I I I I #
coedge $-1 $431 $201 $203 $314 forward $125 $-1 #
coedge $-1 $201 $431 $430 $432 reversed $125 $-1 #
coedge $-1 $433 $204 $201 $311 forward $199 $-1 #
edge $-1 $317 9.1000913185795831 $434 23.008741934229416 $310 $435 forward 7 unknown #
coedge $-1 $436 $437 $202 $313 forward $428 $-1 #
edge $-1 $438 -26.069734782651352 $316 -22.883302355237252 $312 $439 forward 7 unknown #
edge $-1 $317 -3.8899156975674245 $438 0 $203 $440 forward 7 unknown #
coedge $-1 $204 $433 $436 $441 forward $199 $-1 #
vertex $-1 $313 $442 #
vertex $-1 $205 $443 #
straight-curve $-1 -74.980752421535499 25.154507944984083 16.251261060905957 1 0 0 I I #
coedge $-1 $319 $319 $-1 $444 reversed $208 $-1 #
edge $-1 $445 0 $445 6.2831853071796004 $209 $446 forward 7 unknown #
vertex $-1 $212 $447 #
ellipse-curve $-1 -55.724531559690128 29.128408120884039 14.658044847198909 -0.81915205242281985 0 0.57357642473473569 0.28678821236736785 0 0.40957602621140993 1 I I #
coedge $-1 $323 $323 $-1 $448 reversed $215 $-1 #
edge $-1 $449 0 $449 6.2831853071796004 $216 $450 forward 7 unknown #
vertex $-1 $219 $451 #
ellipse-curve $-1 -55.724531559690128 35.089258384733974 14.658044847198909 -0.81915205242281985 0 0.57357642473473569 0.28678821236736785 0 0.40957602621140993 1 I I #
face $-1 $-1 $235 $33 $-1 $452 reversed single #
loop $-1 $-1 $343 $220 #
plane-surface $-1 0 39.063158560633916 0 0 -1 0 0 0 -1 forward_v I I I I #
coedge $-1 $453 $341 $344 $454 forward $221 $-1 #
coedge $-1 $347 $223 $224 $335 reversed $139 $-1 #
coedge $-1 $341 $453 $223 $333 reversed $221 $-1 #
edge $-1 $348 -16.251261060905957 $455 16.251261060905957 $332 $456 forward 7 unknown #
coedge $-1 $225 $224 $453 $457 forward $89 $-1 #
edge $-1 $339 -56.840113528855255 $455 56.840113528855255 $331 $458 forward 7 unknown #
coedge $-1 $344 $343 $225 $337 reversed $328 $-1 #
edge $-1 $459 -56.840113528855255 $338 56.840113528855255 $336 $460 forward 7 unknown #
vertex $-1 $227 $461 #
vertex $-1 $350 $462 #
straight-curve $-1 56.840113528855255 0 -16.251261060905957 0 -1 0 I I #
coedge $-1 $330 $332 $228 $342 reversed $221 $-1 #
edge $-1 $345 -39.063158560633916 $348 39.063158560633916 $341 $463 forward 7 unknown #
coedge $-1 $336 $229 $234 $351 forward $328 $-1 #
coedge $-1 $229 $336 $330 $454 reversed $328 $-1 #
vertex $-1 $230 $464 #
straight-curve $-1 0 39.063158560633916 16.251261060905957 -1 0 0 I I #
coedge $-1 $231 $331 $233 $350 reversed $139 $-1 #
vertex $-1 $342 $465 #
straight-curve $-1 0 -39.063158560633916 16.251261060905957 1 0 0 I I #
edge $-1 $236 -16.251261060905957 $339 16.251261060905957 $233 $466 forward 7 unknown #
edge $-1 $237 -16.251261060905957 $338 16.251261060905957 $234 $467 forward 7 unknown #
point $-1 56.840113528855255 -39.063158560633916 16.251261060905957 #
point $-1 56.840113528855255 39.063158560633916 16.251261060905957 #
face $-1 $-1 $252 $34 $-1 $468 reversed single #
loop $-1 $-1 $361 $239 #
plane-surface $-1 0 0 16.251261060905957 0 0 1 1 0 0 forward_v I I I I #
coedge $-1 $469 $242 $247 $366 forward $147 $-1 #
coedge $-1 $242 $469 $470 $471 reversed $147 $-1 #
coedge $-1 $244 $243 $242 $360 reversed $93 $-1 #
edge $-1 $472 -10.131880375740119 $371 -2.1068809945915579 $242 $473 forward 7 unknown #
coedge $-1 $470 $474 $244 $362 forward $355 $-1 #
edge $-1 $364 -56.840113528855255 $472 56.840113528855255 $361 $475 forward 7 unknown #
coedge $-1 $251 $245 $474 $476 reversed $252 $-1 #
vertex $-1 $246 $477 #
straight-curve $-1 56.840113528855255 -20.313656063516774 6.1193806851658383 0 0 1 I I #
edge $-1 $371 5.4694524074791016 $369 24.218954904596245 $357 $478 forward 7 unknown #
coedge $-1 $479 $248 $251 $373 reversed $240 $-1 #
coedge $-1 $248 $479 $469 $480 forward $240 $-1 #
vertex $-1 $249 $481 #
straight-curve $-1 0 -39.063158560633916 8.2262616797573962 1 0 0 I I #
vertex $-1 $366 $482 #
straight-curve $-1 0 -20.313656063516774 8.2262616797573962 1 0 0 I I #
edge $-1 $483 -16.251261060905957 $253 -8.2262616797573962 $251 $484 forward 7 unknown #
point $-1 56.840113528855255 -39.063158560633916 8.2262616797573962 #
point $-1 56.840113528855255 -20.313656063516774 8.2262616797573962 #
plane-surface $-1 0 0 16.251261060905957 0 0 1 1 0 0 forward_v I I I I #
coedge $-1 $387 $386 $379 $485 forward $257 $-1 #
coedge $-1 $379 $259 $261 $383 reversed $155 $-1 #
coedge $-1 $259 $378 $377 $485 reversed $155 $-1 #
coedge $-1 $267 $262 $259 $381 forward $268 $-1 #
edge $-1 $384 17.01328567478626 $486 29.822951129046103 $380 $487 forward 7 unknown #
coedge $-1 $261 $260 $387 $488 reversed $97 $-1 #
edge $-1 $489 -113.6802270577105 $384 -95.872696335004534 $378 $490 forward 7 unknown #
vertex $-1 $263 $491 #
straight-curve $-1 44.030448074595412 1.7316731990366563 16.251261060905954 0 -1 0 I I #
coedge $-1 $377 $264 $267 $391 reversed $257 $-1 #
coedge $-1 $264 $377 $382 $488 forward $257 $-1 #
vertex $-1 $265 $492 #
straight-curve $-1 56.840113528855255 9.3747512485585673 82.312371894572678 0 0 1 I I #
straight-curve $-1 -24.934597409410657 9.3747512485585673 82.85003285087943 0.71933979245794832 0 -0.69465837861970381 I I #
edge $-1 $486 -2.4480584524119422 $269 9.3747512485585673 $386 $493 forward 7 unknown #
point $-1 56.840113528855255 9.3747512485585673 16.251261060905957 #
point $-1 44.030448074595412 9.3747512485585673 16.251261060905961 #
edge $-1 $494 1 $494 0 $272 $-1 forward 7 unknown #
vertex $-1 $273 $495 #
ellipse-curve $-1 48.921064607929686 0.92988717643677177 8.4981691166693487 0.69465837861970381 0 0.71933979245794832 1.0790096886869225 0 -1.0419875679295556 1 I I #
point $-1 51.514290490412243 0.92988717643677177 9.0241982834486496 #
edge $-1 $496 1 $496 0 $276 $-1 forward 7 unknown #
vertex $-1 $277 $497 #
ellipse-curve $-1 48.921064607929686 5.9968056197098463 8.4981691166693487 0.69465837861970381 0 0.71933979245794832 1.0790096886869225 0 -1.0419875679295556 1 I I #
point $-1 51.514290490412243 5.9968056197098463 9.0241982834486496 #
loop $-1 $-1 $289 $280 #
plane-surface $-1 0 0 16.251261060905957 0 0 1 1 0 0 forward_v I I I I #
coedge $-1 $283 $408 $292 $416 forward $177 $-1 #
edge $-1 $413 95.872696335004534 $409 113.6802270577105 $284 $498 forward 7 unknown #
coedge $-1 $289 $499 $285 $407 forward $402 $-1 #
edge $-1 $410 -29.822951129046103 $413 -17.01328567478626 $406 $500 forward 7 unknown #
coedge $-1 $404 $286 $499 $501 reversed $177 $-1 #
vertex $-1 $287 $502 #
vertex $-1 $287 $503 #
straight-curve $-1 56.840113528855255 21.197560949529084 82.312371894572678 0 0 1 I I #
coedge $-1 $499 $289 $293 $417 forward $402 $-1 #
vertex $-1 $407 $504 #
straight-curve $-1 44.030448074595412 1.7316731990366563 16.251261060905954 0 -1 0 I I #
straight-curve $-1 56.840113528855255 1.7316731990366563 3.8811106418504764 0 1 0 I I #
edge $-1 $505 66.061110833666717 $295 78.431261252722209 $404 $506 forward 7 unknown #
edge $-1 $294 17.01328567478626 $505 29.822951129046103 $412 $507 forward 7 unknown #
point $-1 44.030448074595412 9.3747512485585673 16.251261060905961 #
point $-1 56.840113528855255 9.3747512485585673 3.8811106418504693 #
edge $-1 $508 1 $508 0 $297 $-1 forward 7 unknown #
vertex $-1 $298 $509 #
ellipse-curve $-1 48.921064607929686 12.752696877407288 8.4981691166693487 0.69465837861970381 0 0.71933979245794832 1.0790096886869225 0 -1.0419875679295556 1 I I #
point $-1 51.514290490412243 12.752696877407288 9.0241982834486496 #
edge $-1 $510 1 $510 0 $301 $-1 forward 7 unknown #
vertex $-1 $302 $511 #
ellipse-curve $-1 48.921064607929686 17.819615320680363 8.4981691166693487 0.69465837861970381 0 0.71933979245794832 1.0790096886869225 0 -1.0419875679295556 1 I I #
point $-1 51.514290490412243 17.819615320680363 9.0241982834486496 #
loop $-1 $-1 $312 $305 #
plane-surface $-1 -56.840113528855255 0 0 1 0 0 0 0 -1 forward_v I I I I #
coedge $-1 $512 $513 $309 $432 forward $306 $-1 #
coedge $-1 $309 $308 $437 $514 reversed $125 $-1 #
edge $-1 $434 7.0601182572925758 $515 10.95003395486 $430 $516 forward 7 unknown #
coedge $-1 $315 $310 $513 $517 forward $199 $-1 #
vertex $-1 $517 $518 #
straight-curve $-1 -54.608949590525015 16.0544166264045 16.251261060905957 0 1 0 I I #
coedge $-1 $519 $312 $315 $441 reversed $428 $-1 #
coedge $-1 $312 $519 $431 $514 forward $428 $-1 #
vertex $-1 $313 $520 #
straight-curve $-1 -56.840113528855255 25.154507944984083 39.134563416143209 0 0 1 I I #
straight-curve $-1 -56.840113528855255 25.154507944984083 13.064828633491857 -0.57357642473473569 0 -0.81915205242281985 I I #
edge $-1 $521 -39.063158560633916 $316 -25.154507944984083 $436 $522 forward 7 unknown #
point $-1 -56.840113528855255 25.154507944984083 16.251261060905957 #
point $-1 -54.608949590525008 25.154507944984083 16.251261060905957 #
edge $-1 $523 1 $523 0 $319 $-1 forward 7 unknown #
vertex $-1 $320 $524 #
ellipse-curve $-1 -54.623362407643242 29.128408120884039 13.886997929363414 -0.81915205242281985 0 0.57357642473473569 0.28678821236736785 0 0.40957602621140993 1 I I #
point $-1 -55.437743347322758 29.128408120884039 15.067620873410316 #
edge $-1 $525 1 $525 0 $323 $-1 forward 7 unknown #
vertex $-1 $324 $526 #
ellipse-curve $-1 -54.623362407643242 35.089258384733974 13.886997929363414 -0.81915205242281985 0 0.57357642473473569 0.28678821236736785 0 0.40957602621140993 1 I I #
point $-1 -55.437743347322758 35.089258384733974 15.067620873410316 #
plane-surface $-1 56.840113528855255 0 0 -1 0 0 0 0 1 forward_v I I I I #
coedge $-1 $332 $330 $334 $457 reversed $221 $-1 #
edge $-1 $345 -16.251261060905957 $459 16.251261060905957 $344 $527 forward 7 unknown #
vertex $-1 $457 $528 #
straight-curve $-1 -56.840113528855255 -39.063158560633916 0 0 0 -1 I I #
edge $-1 $455 -39.063158560633916 $459 39.063158560633916 $453 $529 forward 7 unknown #
straight-curve $-1 0 -39.063158560633916 -16.251261060905957 -1 0 0 I I #
vertex $-1 $337 $530 #
straight-curve $-1 0 39.063158560633916 -16.251261060905957 1 0 0 I I #
point $-1 56.840113528855255 39.063158560633916 -16.251261060905957 #
point $-1 56.840113528855255 -39.063158560633916 -16.251261060905957 #
straight-curve $-1 -56.840113528855255 0 16.251261060905957 0 -1 0 I I #
point $-1 -56.840113528855255 39.063158560633916 16.251261060905957 #
point $-1 -56.840113528855255 -39.063158560633916 16.251261060905957 #
straight-curve $-1 56.840113528855255 -39.063158560633916 0 0 0 -1 I I #
straight-curve $-1 56.840113528855255 39.063158560633916 0 0 0 -1 I I #
plane-surface $-1 56.840113528855255 0 0 -1 0 0 0 0 1 forward_v I I I I #
coedge $-1 $358 $357 $368 $480 reversed $147 $-1 #
coedge $-1 $531 $361 $358 $471 forward $355 $-1 #
edge $-1 $472 20.313656063516774 $532 39.063158560633916 $358 $533 forward 7 unknown #
vertex $-1 $471 $534 #
straight-curve $-1 -56.840113528855255 -20.313656063516774 6.1193806851658383 0 0 -1 I I #
coedge $-1 $361 $531 $363 $476 forward $355 $-1 #
straight-curve $-1 0 -20.313656063516774 16.251261060905957 -1 0 0 I I #
edge $-1 $483 -39.063158560633916 $364 -20.313656063516774 $363 $535 forward 7 unknown #
point $-1 56.840113528855255 -20.313656063516774 16.251261060905957 #
straight-curve $-1 -56.840113528855255 -14.844203656037672 8.2262616797573962 0 -1 0 I I #
coedge $-1 $368 $367 $531 $536 reversed $240 $-1 #
edge $-1 $532 -16.251261060905957 $369 -8.2262616797573962 $469 $537 forward 7 unknown #
point $-1 -56.840113528855255 -39.063158560633916 8.2262616797573962 #
point $-1 -56.840113528855255 -20.313656063516774 8.2262616797573962 #
vertex $-1 $476 $538 #
straight-curve $-1 56.840113528855255 -39.063158560633916 0 0 0 -1 I I #
edge $-1 $486 66.061110833666717 $489 78.431261252722209 $377 $539 forward 7 unknown #
vertex $-1 $391 $540 #
straight-curve $-1 27.017162399809152 -2.4480584524119422 16.251261060905961 1 0 0 I I #
edge $-1 $489 -4.1797316514485985 $388 7.6430780495219111 $387 $541 forward 7 unknown #
vertex $-1 $488 $542 #
straight-curve $-1 -24.934597409410657 -2.4480584524119422 82.85003285087943 -0.71933979245794832 0 0.69465837861970381 I I #
point $-1 44.030448074595412 -2.4480584524119422 16.251261060905961 #
point $-1 56.840113528855255 9.3747512485585673 3.8811106418504693 #
straight-curve $-1 56.840113528855255 0 16.251261060905957 0 1 0 I I #
vertex $-1 $394 $543 #
point $-1 50.00007429661661 0.92988717643677177 7.4561815487397922 #
vertex $-1 $398 $544 #
point $-1 50.00007429661661 5.9968056197098463 7.4561815487397922 #
straight-curve $-1 -24.934597409410657 21.197560949529084 82.85003285087943 0.71933979245794832 0 -0.69465837861970381 I I #
coedge $-1 $406 $412 $408 $501 forward $402 $-1 #
straight-curve $-1 27.017162399809152 21.197560949529084 16.251261060905961 -1 0 0 I I #
edge $-1 $505 9.3747512485585673 $410 21.197560949529084 $408 $545 forward 7 unknown #
point $-1 56.840113528855255 21.197560949529084 3.8811106418504693 #
point $-1 56.840113528855255 21.197560949529084 16.251261060905957 #
point $-1 44.030448074595412 21.197560949529084 16.251261060905961 #
vertex $-1 $501 $546 #
straight-curve $-1 56.840113528855255 9.3747512485585673 82.312371894572678 0 0 -1 I I #
straight-curve $-1 27.017162399809152 9.3747512485585673 16.251261060905961 1 0 0 I I #
vertex $-1 $420 $547 #
point $-1 50.00007429661661 12.752696877407288 7.4561815487397922 #
vertex $-1 $424 $548 #
point $-1 50.00007429661661 17.819615320680363 7.4561815487397922 #
coedge $-1 $513 $430 $519 $549 reversed $306 $-1 #
coedge $-1 $430 $512 $433 $517 reversed $306 $-1 #
edge $-1 $515 -23.008741934229416 $438 -9.1000913185795831 $437 $550 forward 7 unknown #
vertex $-1 $432 $551 #
straight-curve $-1 -50.559432202302702 39.063158560633916 22.034571421714993 -0.57357642473473569 0 -0.81915205242281985 I I #
edge $-1 $434 54.608949590525008 $521 56.840113528855255 $513 $552 forward 7 unknown #
point $-1 -54.608949590525008 39.063158560633916 16.251261060905957 #
coedge $-1 $437 $436 $512 $549 forward $428 $-1 #
point $-1 -56.840113528855255 25.154507944984083 13.064828633491857 #
vertex $-1 $517 $553 #
straight-curve $-1 -56.840113528855255 0 16.251261060905957 0 -1 0 I I #
vertex $-1 $444 $554 #
point $-1 -54.336574195275873 29.128408120884039 14.296573955574823 #
vertex $-1 $448 $555 #
point $-1 -54.336574195275873 35.089258384733974 14.296573955574823 #
straight-curve $-1 -56.840113528855255 39.063158560633916 0 0 0 -1 I I #
point $-1 -56.840113528855255 -39.063158560633916 -16.251261060905957 #
straight-curve $-1 -56.840113528855255 0 -16.251261060905957 0 1 0 I I #
point $-1 -56.840113528855255 39.063158560633916 -16.251261060905957 #
coedge $-1 $474 $470 $479 $536 forward $355 $-1 #
vertex $-1 $471 $556 #
straight-curve $-1 -56.840113528855255 0 16.251261060905957 0 -1 0 I I #
point $-1 -56.840113528855255 -20.313656063516774 16.251261060905957 #
straight-curve $-1 56.840113528855255 0 16.251261060905957 0 1 0 I I #
edge $-1 $532 -56.840113528855255 $483 56.840113528855255 $479 $557 forward 7 unknown #
straight-curve $-1 -56.840113528855255 -39.063158560633916 0 0 0 -1 I I #
point $-1 56.840113528855255 -39.063158560633916 16.251261060905957 #
straight-curve $-1 56.840113528855255 -2.4480584524119422 82.312371894572678 0 0 -1 I I #
point $-1 56.840113528855255 -2.4480584524119422 16.251261060905957 #
straight-curve $-1 56.840113528855255 1.7316731990366563 3.8811106418504764 0 1 0 I I #
point $-1 56.840113528855255 -2.4480584524119422 3.8811106418504693 #
point $-1 47.879077040000134 0.92988717643677177 7.419159427982426 #
point $-1 47.879077040000134 5.9968056197098463 7.419159427982426 #
straight-curve $-1 56.840113528855255 0 16.251261060905957 0 1 0 I I #
point $-1 56.840113528855255 9.3747512485585673 16.251261060905957 #
point $-1 47.879077040000134 12.752696877407288 7.419159427982426 #
point $-1 47.879077040000134 17.819615320680363 7.419159427982426 #
edge $-1 $521 -16.251261060905957 $515 -13.064828633491857 $512 $558 forward 7 unknown #
straight-curve $-1 -56.840113528855255 16.0544166264045 13.064828633491857 0 -1 0 I I #
point $-1 -56.840113528855255 39.063158560633916 13.064828633491857 #
straight-curve $-1 0 39.063158560633916 16.251261060905957 -1 0 0 I I #
point $-1 -56.840113528855255 39.063158560633916 16.251261060905957 #
point $-1 -54.213786381431831 29.128408120884039 13.600209716996044 #
point $-1 -54.213786381431831 35.089258384733974 13.600209716996044 #
point $-1 -56.840113528855255 -39.063158560633916 16.251261060905957 #
straight-curve $-1 0 -39.063158560633916 16.251261060905957 1 0 0 I I #
straight-curve $-1 -56.840113528855255 39.063158560633916 0 0 0 -1 I I #
End-of-ACIS-data 