500 0 11 0           
7 Unknown 11 ACIS 5.0 NT 24 Thu Mar 25 20:06:49 1999 
-1 9.9999999999999995e-007 1e-010 
body $-1 $11 $-1 $12 #
body $-1 $13 $-1 $14 #
body $-1 $15 $-1 $16 #
body $-1 $17 $-1 $18 #
body $-1 $19 $-1 $20 #
body $-1 $21 $-1 $22 #
body $-1 $23 $-1 $24 #
body $-1 $25 $-1 $26 #
body $-1 $27 $-1 $28 #
body $-1 $29 $-1 $30 #
body $-1 $31 $-1 $32 #
lump $-1 $-1 $33 $0 #
transform $-1 1 0 0 0 1 0 0 0 1 78.477736747337261 44.45355315469763 10.389680047749897 1 rotate no_reflect no_shear #
lump $-1 $-1 $34 $1 #
transform $-1 1 0 0 0 1 0 0 0 1 78.477736747337261 44.45355315469763 10.389680047749897 1 rotate no_reflect no_shear #
lump $-1 $-1 $35 $2 #
transform $-1 1 0 0 0 1 0 0 0 1 78.477736747337261 44.45355315469763 10.389680047749897 1 rotate no_reflect no_shear #
lump $-1 $-1 $36 $3 #
transform $-1 1 0 0 0 1 0 0 0 1 78.477736747337261 44.45355315469763 10.389680047749897 1 rotate no_reflect no_shear #
lump $-1 $-1 $37 $4 #
transform $-1 1 0 0 0 1 0 0 0 1 78.477736747337261 44.45355315469763 10.389680047749897 1 rotate no_reflect no_shear #
lump $-1 $-1 $38 $5 #
transform $-1 1 0 0 0 1 0 0 0 1 78.477736747337261 44.45355315469763 10.389680047749897 1 rotate no_reflect no_shear #
lump $-1 $-1 $39 $6 #
transform $-1 1 0 0 0 1 0 0 0 1 78.477736747337261 44.45355315469763 10.389680047749897 1 rotate no_reflect no_shear #
lump $-1 $-1 $40 $7 #
transform $-1 1 0 0 0 1 0 0 0 1 78.477736747337261 44.45355315469763 10.389680047749897 1 rotate no_reflect no_shear #
lump $-1 $-1 $41 $8 #
transform $-1 1 0 0 0 1 0 0 0 1 78.477736747337261 44.45355315469763 10.389680047749897 1 rotate no_reflect no_shear #
lump $-1 $-1 $42 $9 #
transform $-1 1 0 0 0 1 0 0 0 1 78.477736747337261 44.45355315469763 10.389680047749897 1 rotate no_reflect no_shear #
lump $-1 $-1 $43 $10 #
transform $-1 1 0 0 0 1 0 0 0 1 78.477736747337261 44.45355315469763 10.389680047749897 1 rotate no_reflect no_shear #
shell $-1 $-1 $-1 $44 $-1 $11 #
shell $-1 $-1 $-1 $45 $-1 $13 #
shell $-1 $-1 $-1 $46 $-1 $15 #
shell $-1 $-1 $-1 $47 $-1 $17 #
shell $-1 $-1 $-1 $48 $-1 $19 #
shell $-1 $-1 $-1 $49 $-1 $21 #
shell $-1 $-1 $-1 $50 $-1 $23 #
shell $-1 $-1 $-1 $51 $-1 $25 #
shell $-1 $-1 $-1 $52 $-1 $27 #
shell $-1 $-1 $-1 $53 $-1 $29 #
shell $-1 $-1 $-1 $54 $-1 $31 #
face $-1 $55 $56 $33 $-1 $57 forward single #
face $-1 $58 $59 $34 $-1 $60 reversed single #
face $-1 $61 $62 $35 $-1 $63 reversed single #
face $-1 $64 $65 $36 $-1 $66 reversed single #
face $-1 $67 $68 $37 $-1 $69 forward single #
face $-1 $70 $71 $38 $-1 $72 forward single #
face $-1 $73 $74 $39 $-1 $75 forward single #
face $-1 $76 $77 $40 $-1 $78 reversed single #
face $-1 $79 $80 $41 $-1 $81 forward single #
face $-1 $82 $83 $42 $-1 $84 forward single #
face $-1 $85 $86 $43 $-1 $87 forward single #
face $-1 $88 $89 $33 $-1 $90 reversed single #
loop $-1 $-1 $91 $44 #
plane-surface $-1 0 0 10.389680047749897 0 0 1 1 0 0 forward_v I I I I #
face $-1 $92 $93 $34 $-1 $94 reversed single #
loop $-1 $-1 $95 $45 #
plane-surface $-1 -73.897941557564366 -30.924634864021371 0 0 1 0 0 0 1 forward_v I I I I #
face $-1 $96 $97 $35 $-1 $98 reversed single #
loop $-1 $-1 $99 $46 #
plane-surface $-1 73.897941557564351 -30.924634864021371 0 0 1 0 0 0 1 forward_v I I I I #
face $-1 $100 $101 $36 $-1 $102 reversed single #
loop $-1 $-1 $103 $47 #
plane-surface $-1 -66.313035210154169 64.782307480142478 181.93427241916498 1 0 0 0 -0.5877852598018023 -0.80901698891910034 forward_v I I I I #
face $-1 $104 $105 $37 $-1 $106 forward single #
loop $-1 $107 $108 $48 #
cone-surface $-1 -61.196688783766916 38.397293455300144 5.4945192627360822 0 -0.5877852598018023 -0.80901698891910034 2.5 0 0 1 I I 0 1 2.5 forward I I I I #
face $-1 $109 $110 $38 $-1 $111 forward single #
loop $-1 $112 $113 $49 #
cone-surface $-1 -53.522169144186044 38.397293455300144 5.4945192627360822 0 -0.5877852598018023 -0.80901698891910034 2.5 0 0 1 I I 0 1 2.5 forward I I I I #
face $-1 $114 $115 $39 $-1 $116 forward single #
loop $-1 $117 $118 $50 #
cone-surface $-1 -45.847649504605172 38.397293455300144 5.4945192627360822 0 -0.5877852598018023 -0.80901698891910034 2.5 0 0 1 I I 0 1 2.5 forward I I I I #
face $-1 $119 $120 $40 $-1 $121 reversed single #
loop $-1 $-1 $122 $51 #
plane-surface $-1 -40.73130307821792 -136.70966692007977 129.67598583887064 -1 0 0 0 -0.5877852598018023 0.80901698891910034 forward_v I I I I #
face $-1 $123 $124 $41 $-1 $125 forward single #
loop $-1 $126 $127 $52 #
cone-surface $-1 -61.196688783766916 -38.397293455300151 5.494519262736091 0 0.5877852598018023 -0.80901698891910034 2.5 0 0 1 I I 0 1 2.5 forward I I I I #
face $-1 $128 $129 $42 $-1 $130 forward single #
loop $-1 $131 $132 $53 #
cone-surface $-1 -53.522169144186044 -38.397293455300151 5.494519262736091 0 0.5877852598018023 -0.80901698891910034 2.5 0 0 1 I I 0 1 2.5 forward I I I I #
face $-1 $133 $134 $43 $-1 $135 forward single #
loop $-1 $136 $137 $54 #
cone-surface $-1 -45.847649504605172 -38.397293455300151 5.494519262736091 0 0.5877852598018023 -0.80901698891910034 2.5 0 0 1 I I 0 1 2.5 forward I I I I #
face $-1 $138 $139 $33 $-1 $140 reversed single #
loop $-1 $-1 $141 $55 #
plane-surface $-1 0 0 -10.389680047749897 0 0 1 1 0 0 forward_v I I I I #
coedge $-1 $142 $143 $144 $145 forward $56 $-1 #
face $-1 $146 $147 $34 $-1 $148 reversed single #
loop $-1 $-1 $149 $58 #
plane-surface $-1 -73.897941557564366 -27.879485499032803 0 0 -1 0 0 0 -1 forward_v I I I I #
coedge $-1 $150 $151 $152 $153 reversed $59 $-1 #
face $-1 $154 $155 $35 $-1 $156 reversed single #
loop $-1 $-1 $157 $61 #
plane-surface $-1 69.318146367791456 -29.402060181527087 0 1 0 0 0 0 -1 forward_v I I I I #
coedge $-1 $158 $159 $160 $161 forward $62 $-1 #
face $-1 $162 $163 $36 $-1 $164 reversed single #
loop $-1 $-1 $165 $64 #
plane-surface $-1 -53.522169144186044 -27.473806285239675 54.954627858131744 0 0.5877852598018023 0.80901698891910034 1 0 0 forward_v I I I I #
coedge $-1 $166 $167 $168 $169 reversed $65 $-1 #
face $-1 $-1 $170 $37 $-1 $171 forward single #
loop $-1 $172 $173 $67 #
cone-surface $-1 -61.196688783766916 36.900788273288811 3.4347566265296567 0 -0.5877852598018023 -0.80901698891910034 1.25 0 0 1 I I -0.70710678118654757 0.70710678118654735 1.25 forward I I I I #
loop $-1 $-1 $174 $48 #
coedge $-1 $108 $108 $175 $176 reversed $68 $-1 #
face $-1 $-1 $177 $38 $-1 $178 forward single #
loop $-1 $179 $180 $70 #
cone-surface $-1 -53.522169144186044 36.900788273288811 3.4347566265296567 0 -0.5877852598018023 -0.80901698891910034 1.25 0 0 1 I I -0.70710678118654757 0.70710678118654735 1.25 forward I I I I #
loop $-1 $-1 $181 $49 #
coedge $-1 $113 $113 $182 $183 reversed $71 $-1 #
face $-1 $-1 $184 $39 $-1 $185 forward single #
loop $-1 $186 $187 $73 #
cone-surface $-1 -45.847649504605172 36.900788273288811 3.4347566265296567 0 -0.5877852598018023 -0.80901698891910034 1.25 0 0 1 I I -0.70710678118654757 0.70710678118654735 1.25 forward I I I I #
loop $-1 $-1 $188 $50 #
coedge $-1 $118 $118 $189 $190 reversed $74 $-1 #
face $-1 $191 $192 $40 $-1 $193 reversed single #
loop $-1 $-1 $194 $76 #
plane-surface $-1 -53.522169144186044 -44.453553154697616 2.696341277837405 0 -0.5877852598018023 0.80901698891910034 1 0 0 forward_v I I I I #
coedge $-1 $195 $196 $197 $198 reversed $77 $-1 #
face $-1 $-1 $199 $41 $-1 $200 forward single #
loop $-1 $201 $202 $79 #
cone-surface $-1 -61.196688783766916 -36.900788273288818 3.4347566265296656 0 0.5877852598018023 -0.80901698891910034 1.25 0 0 1 I I -0.70710678118654757 0.70710678118654735 1.25 forward I I I I #
loop $-1 $-1 $203 $52 #
coedge $-1 $127 $127 $204 $205 reversed $80 $-1 #
face $-1 $-1 $206 $42 $-1 $207 forward single #
loop $-1 $208 $209 $82 #
cone-surface $-1 -53.522169144186044 -36.900788273288818 3.4347566265296656 0 0.5877852598018023 -0.80901698891910034 1.25 0 0 1 I I -0.70710678118654757 0.70710678118654735 1.25 forward I I I I #
loop $-1 $-1 $210 $53 #
coedge $-1 $132 $132 $211 $212 reversed $83 $-1 #
face $-1 $-1 $213 $43 $-1 $214 forward single #
loop $-1 $215 $216 $85 #
cone-surface $-1 -45.847649504605172 -36.900788273288818 3.4347566265296656 0 0.5877852598018023 -0.80901698891910034 1.25 0 0 1 I I -0.70710678118654757 0.70710678118654735 1.25 forward I I I I #
loop $-1 $-1 $217 $54 #
coedge $-1 $137 $137 $218 $219 reversed $86 $-1 #
face $-1 $220 $221 $33 $-1 $222 reversed single #
loop $-1 $-1 $223 $88 #
plane-surface $-1 0 -44.45355315469763 0 0 1 0 0 0 1 forward_v I I I I #
coedge $-1 $224 $225 $226 $227 forward $89 $-1 #
coedge $-1 $228 $91 $229 $230 forward $56 $-1 #
coedge $-1 $91 $228 $231 $232 forward $56 $-1 #
coedge $-1 $233 $234 $91 $145 reversed $235 $-1 #
edge $-1 $236 -44.45355315469763 $237 44.45355315469763 $144 $238 forward 7 unknown #
face $-1 $239 $240 $34 $-1 $241 reversed single #
loop $-1 $-1 $242 $92 #
plane-surface $-1 -69.318146367791471 -29.402060181527087 0 -1 0 0 0 0 1 forward_v I I I I #
coedge $-1 $243 $244 $245 $246 forward $93 $-1 #
coedge $-1 $247 $95 $248 $249 reversed $59 $-1 #
coedge $-1 $95 $247 $250 $251 reversed $59 $-1 #
coedge $-1 $252 $253 $95 $153 forward $254 $-1 #
edge $-1 $255 -10.389680047749897 $256 10.389680047749897 $152 $257 forward 7 unknown #
face $-1 $258 $259 $35 $-1 $260 reversed single #
loop $-1 $-1 $261 $96 #
plane-surface $-1 73.897941557564351 -27.879485499032803 0 0 -1 0 0 0 -1 forward_v I I I I #
coedge $-1 $262 $263 $264 $265 forward $97 $-1 #
coedge $-1 $266 $99 $267 $268 reversed $62 $-1 #
coedge $-1 $99 $266 $269 $270 reversed $62 $-1 #
coedge $-1 $263 $262 $99 $161 reversed $97 $-1 #
edge $-1 $271 -10.389680047749897 $272 10.389680047749897 $160 $273 forward 7 unknown #
face $-1 $274 $275 $36 $-1 $276 reversed single #
loop $-1 $-1 $277 $100 #
plane-surface $-1 -40.73130307821792 64.782307480142478 181.93427241916498 -1 0 0 0 0.5877852598018023 0.80901698891910034 forward_v I I I I #
coedge $-1 $278 $279 $280 $281 reversed $101 $-1 #
coedge $-1 $167 $103 $282 $283 reversed $65 $-1 #
coedge $-1 $103 $166 $278 $284 reversed $65 $-1 #
coedge $-1 $280 $285 $103 $169 forward $286 $-1 #
edge $-1 $287 -12.062399414626391 $288 -1.4734272303495928 $168 $289 forward 7 unknown #
loop $-1 $-1 $175 $104 #
plane-surface $-1 -53.522169144186044 -27.473806285239675 54.954627858131744 0 0.5877852598018023 0.80901698891910034 1 0 0 forward_v I I I I #
loop $-1 $-1 $290 $67 #
coedge $-1 $173 $173 $174 $291 reversed $105 $-1 #
coedge $-1 $174 $174 $173 $291 forward $107 $-1 #
coedge $-1 $175 $175 $108 $176 forward $170 $-1 #
edge $-1 $292 -2.3085723672187269e-018 $292 6.2831853071796004 $175 $293 forward 7 unknown #
loop $-1 $-1 $182 $109 #
plane-surface $-1 -53.522169144186044 -27.473806285239675 54.954627858131744 0 0.5877852598018023 0.80901698891910034 1 0 0 forward_v I I I I #
loop $-1 $-1 $294 $70 #
coedge $-1 $180 $180 $181 $295 reversed $110 $-1 #
coedge $-1 $181 $181 $180 $295 forward $112 $-1 #
coedge $-1 $182 $182 $113 $183 forward $177 $-1 #
edge $-1 $296 -2.3085723672187269e-018 $296 6.2831853071796004 $182 $297 forward 7 unknown #
loop $-1 $-1 $189 $114 #
plane-surface $-1 -53.522169144186044 -27.473806285239675 54.954627858131744 0 0.5877852598018023 0.80901698891910034 1 0 0 forward_v I I I I #
loop $-1 $-1 $298 $73 #
coedge $-1 $187 $187 $188 $299 reversed $115 $-1 #
coedge $-1 $188 $188 $187 $299 forward $117 $-1 #
coedge $-1 $189 $189 $118 $190 forward $184 $-1 #
edge $-1 $300 -2.3085723672187269e-018 $300 6.2831853071796004 $189 $301 forward 7 unknown #
face $-1 $302 $303 $40 $-1 $304 forward single #
loop $-1 $-1 $305 $119 #
plane-surface $-1 -66.313035210154169 -136.70966692007977 129.67598583887064 1 0 0 0 0.5877852598018023 -0.80901698891910034 forward_v I I I I #
coedge $-1 $306 $307 $308 $309 reversed $120 $-1 #
coedge $-1 $196 $122 $310 $311 reversed $77 $-1 #
coedge $-1 $122 $195 $306 $312 reversed $77 $-1 #
coedge $-1 $308 $313 $122 $198 forward $303 $-1 #
edge $-1 $314 23.901280305342254 $315 34.490252489619039 $197 $316 forward 7 unknown #
loop $-1 $-1 $204 $123 #
plane-surface $-1 -53.522169144186044 -44.453553154697616 2.696341277837405 0 -0.5877852598018023 0.80901698891910034 1 0 0 forward_v I I I I #
loop $-1 $-1 $317 $79 #
coedge $-1 $202 $202 $203 $318 reversed $124 $-1 #
coedge $-1 $203 $203 $202 $318 forward $126 $-1 #
coedge $-1 $204 $204 $127 $205 forward $199 $-1 #
edge $-1 $319 1.0464249387148034e-015 $319 6.2831853071796013 $204 $320 forward 7 unknown #
loop $-1 $-1 $211 $128 #
plane-surface $-1 -53.522169144186044 -44.453553154697616 2.696341277837405 0 -0.5877852598018023 0.80901698891910034 1 0 0 forward_v I I I I #
loop $-1 $-1 $321 $82 #
coedge $-1 $209 $209 $210 $322 reversed $129 $-1 #
coedge $-1 $210 $210 $209 $322 forward $131 $-1 #
coedge $-1 $211 $211 $132 $212 forward $206 $-1 #
edge $-1 $323 1.0464249387148034e-015 $323 6.2831853071796013 $211 $324 forward 7 unknown #
loop $-1 $-1 $218 $133 #
plane-surface $-1 -53.522169144186044 -44.453553154697616 2.696341277837405 0 -0.5877852598018023 0.80901698891910034 1 0 0 forward_v I I I I #
loop $-1 $-1 $325 $85 #
coedge $-1 $216 $216 $217 $326 reversed $134 $-1 #
coedge $-1 $217 $217 $216 $326 forward $136 $-1 #
coedge $-1 $218 $218 $137 $219 forward $213 $-1 #
edge $-1 $327 1.0464249387148034e-015 $327 6.2831853071796013 $218 $328 forward 7 unknown #
face $-1 $329 $330 $33 $-1 $331 reversed single #
loop $-1 $-1 $332 $138 #
plane-surface $-1 -78.477736747337261 0 0 1 0 0 0 0 -1 forward_v I I I I #
coedge $-1 $333 $231 $334 $335 forward $139 $-1 #
coedge $-1 $336 $141 $333 $337 forward $89 $-1 #
coedge $-1 $141 $336 $338 $339 forward $89 $-1 #
coedge $-1 $234 $233 $141 $227 reversed $235 $-1 #
edge $-1 $340 -44.45355315469763 $341 44.45355315469763 $226 $342 forward 7 unknown #
coedge $-1 $143 $142 $343 $344 forward $56 $-1 #
coedge $-1 $345 $346 $142 $230 reversed $330 $-1 #
edge $-1 $237 -78.477736747337261 $347 78.477736747337261 $229 $348 forward 7 unknown #
coedge $-1 $223 $349 $143 $232 reversed $139 $-1 #
edge $-1 $350 -78.477736747337261 $236 78.477736747337261 $231 $351 forward 7 unknown #
coedge $-1 $226 $144 $349 $352 forward $235 $-1 #
coedge $-1 $144 $226 $345 $353 reversed $235 $-1 #
loop $-1 $-1 $233 $329 #
vertex $-1 $145 $354 #
vertex $-1 $145 $355 #
straight-curve $-1 78.477736747337261 0 10.389680047749897 0 1 0 I I #
face $-1 $356 $357 $34 $-1 $358 forward single #
loop $-1 $-1 $359 $146 #
plane-surface $-1 0 0 -10.389680047749897 0 0 1 1 0 0 forward_v I I I I #
coedge $-1 $360 $361 $247 $362 forward $147 $-1 #
coedge $-1 $363 $149 $359 $364 reversed $93 $-1 #
coedge $-1 $149 $363 $365 $366 reversed $93 $-1 #
coedge $-1 $361 $360 $149 $246 reversed $147 $-1 #
edge $-1 $367 -10.389680047749897 $368 10.389680047749897 $245 $369 forward 7 unknown #
coedge $-1 $151 $150 $242 $362 reversed $59 $-1 #
coedge $-1 $370 $371 $150 $249 forward $240 $-1 #
edge $-1 $372 32.369175589009288 $255 41.528765968555078 $248 $373 forward 7 unknown #
coedge $-1 $374 $375 $151 $251 forward $357 $-1 #
edge $-1 $256 -41.528765968555078 $376 -32.369175589009288 $250 $377 forward 7 unknown #
coedge $-1 $378 $152 $375 $379 reversed $254 $-1 #
coedge $-1 $152 $378 $370 $380 reversed $254 $-1 #
loop $-1 $-1 $378 $356 #
vertex $-1 $380 $381 #
vertex $-1 $153 $382 #
straight-curve $-1 -78.477736747337261 -30.924634864021371 0 0 0 1 I I #
face $-1 $383 $384 $35 $-1 $385 forward single #
loop $-1 $-1 $267 $154 #
plane-surface $-1 0 0 -10.389680047749897 0 0 1 1 0 0 forward_v I I I I #
coedge $-1 $386 $387 $388 $389 reversed $155 $-1 #
coedge $-1 $160 $157 $390 $391 reversed $97 $-1 #
coedge $-1 $157 $160 $392 $393 reversed $97 $-1 #
coedge $-1 $387 $386 $157 $265 reversed $155 $-1 #
edge $-1 $394 -10.389680047749897 $395 10.389680047749897 $264 $396 forward 7 unknown #
coedge $-1 $159 $158 $397 $398 reversed $62 $-1 #
coedge $-1 $390 $399 $158 $268 forward $259 $-1 #
edge $-1 $400 -41.528765968555071 $272 -32.369175589009281 $267 $401 forward 7 unknown #
coedge $-1 $402 $392 $159 $270 forward $384 $-1 #
edge $-1 $271 32.369175589009281 $403 41.528765968555071 $269 $404 forward 7 unknown #
vertex $-1 $270 $405 #
vertex $-1 $268 $406 #
straight-curve $-1 69.318146367791456 -30.924634864021371 0 0 0 -1 I I #
face $-1 $-1 $286 $36 $-1 $407 forward single #
loop $-1 $-1 $408 $162 #
plane-surface $-1 0 44.45355315469763 0 0 -1 0 0 0 -1 forward_v I I I I #
coedge $-1 $409 $410 $411 $412 reversed $163 $-1 #
coedge $-1 $413 $165 $167 $284 forward $101 $-1 #
coedge $-1 $165 $413 $409 $414 forward $101 $-1 #
coedge $-1 $411 $168 $165 $281 forward $286 $-1 #
edge $-1 $288 -39.551950638061143 $415 -13.970218506124898 $280 $416 forward 7 unknown #
coedge $-1 $417 $418 $166 $283 forward $275 $-1 #
edge $-1 $419 -88.270794931745087 $287 -80.5774561618326 $282 $420 forward 7 unknown #
edge $-1 $288 75.818416789507239 $419 88.90710630939526 $167 $421 forward 7 unknown #
coedge $-1 $168 $411 $417 $422 forward $286 $-1 #
loop $-1 $-1 $411 $274 #
vertex $-1 $283 $423 #
vertex $-1 $169 $424 #
straight-curve $-1 -66.313035210154169 32.391153740071239 10.389680047749891 0 -1 0 I I #
coedge $-1 $290 $290 $-1 $425 reversed $172 $-1 #
edge $-1 $426 0 $426 6.2831853071796004 $173 $427 forward 7 unknown #
vertex $-1 $176 $428 #
ellipse-curve $-1 -61.196688783766916 39.159067062559231 6.5430106627936429 0 0.5877852598018023 0.80901698891910034 2.5 0 0 1 I I #
coedge $-1 $294 $294 $-1 $429 reversed $179 $-1 #
edge $-1 $430 0 $430 6.2831853071796004 $180 $431 forward 7 unknown #
vertex $-1 $183 $432 #
ellipse-curve $-1 -53.522169144186044 39.159067062559231 6.5430106627936429 0 0.5877852598018023 0.80901698891910034 2.5 0 0 1 I I #
coedge $-1 $298 $298 $-1 $433 reversed $186 $-1 #
edge $-1 $434 0 $434 6.2831853071796004 $187 $435 forward 7 unknown #
vertex $-1 $190 $436 #
ellipse-curve $-1 -45.847649504605172 39.159067062559231 6.5430106627936429 0 0.5877852598018023 0.80901698891910034 2.5 0 0 1 I I #
face $-1 $-1 $437 $40 $-1 $438 reversed single #
loop $-1 $-1 $197 $191 #
plane-surface $-1 0 0 10.389680047749897 0 0 1 1 0 0 forward_v I I I I #
coedge $-1 $439 $440 $441 $442 reversed $192 $-1 #
coedge $-1 $443 $194 $196 $312 forward $120 $-1 #
coedge $-1 $194 $443 $439 $444 forward $120 $-1 #
coedge $-1 $441 $197 $194 $309 forward $303 $-1 #
edge $-1 $315 13.970218506124898 $445 39.551950638061143 $308 $446 forward 7 unknown #
coedge $-1 $447 $448 $195 $311 forward $437 $-1 #
edge $-1 $449 -62.141651641597925 $314 -54.448312871685424 $310 $450 forward 7 unknown #
edge $-1 $315 -13.088689519887993 $449 1.7500491998158137e-014 $196 $451 forward 7 unknown #
coedge $-1 $197 $441 $447 $452 forward $303 $-1 #
vertex $-1 $198 $453 #
vertex $-1 $198 $454 #
straight-curve $-1 -40.73130307821792 -68.354833460039885 10.389680047749899 0 1 0 I I #
coedge $-1 $317 $317 $-1 $455 reversed $201 $-1 #
edge $-1 $456 0 $456 6.2831853071796004 $202 $457 forward 7 unknown #
vertex $-1 $205 $458 #
ellipse-curve $-1 -61.196688783766916 -39.159067062559238 6.5430106627936473 0 -0.5877852598018023 0.80901698891910034 2.5 0 0 1 I I #
coedge $-1 $321 $321 $-1 $459 reversed $208 $-1 #
edge $-1 $460 0 $460 6.2831853071796004 $209 $461 forward 7 unknown #
vertex $-1 $212 $462 #
ellipse-curve $-1 -53.522169144186044 -39.159067062559238 6.5430106627936473 0 -0.5877852598018023 0.80901698891910034 2.5 0 0 1 I I #
coedge $-1 $325 $325 $-1 $463 reversed $215 $-1 #
edge $-1 $464 0 $464 6.2831853071796004 $216 $465 forward 7 unknown #
vertex $-1 $219 $466 #
ellipse-curve $-1 -45.847649504605172 -39.159067062559238 6.5430106627936473 0 -0.5877852598018023 0.80901698891910034 2.5 0 0 1 I I #
face $-1 $-1 $235 $33 $-1 $467 reversed single #
loop $-1 $-1 $345 $220 #
plane-surface $-1 0 44.45355315469763 0 0 -1 0 0 0 -1 forward_v I I I I #
coedge $-1 $468 $343 $346 $469 forward $221 $-1 #
coedge $-1 $349 $223 $224 $337 reversed $139 $-1 #
coedge $-1 $343 $468 $223 $335 reversed $221 $-1 #
edge $-1 $350 -10.389680047749897 $470 10.389680047749897 $334 $471 forward 7 unknown #
coedge $-1 $225 $224 $468 $472 forward $89 $-1 #
edge $-1 $341 -78.477736747337261 $470 78.477736747337261 $333 $473 forward 7 unknown #
coedge $-1 $346 $345 $225 $339 reversed $330 $-1 #
edge $-1 $474 -78.477736747337261 $340 78.477736747337261 $338 $475 forward 7 unknown #
vertex $-1 $227 $476 #
vertex $-1 $352 $477 #
straight-curve $-1 78.477736747337261 0 -10.389680047749897 0 -1 0 I I #
coedge $-1 $332 $334 $228 $344 reversed $221 $-1 #
edge $-1 $347 -44.45355315469763 $350 44.45355315469763 $343 $478 forward 7 unknown #
coedge $-1 $338 $229 $234 $353 forward $330 $-1 #
coedge $-1 $229 $338 $332 $469 reversed $330 $-1 #
vertex $-1 $230 $479 #
straight-curve $-1 0 44.45355315469763 10.389680047749897 -1 0 0 I I #
coedge $-1 $231 $333 $233 $352 reversed $139 $-1 #
vertex $-1 $344 $480 #
straight-curve $-1 0 -44.45355315469763 10.389680047749897 1 0 0 I I #
edge $-1 $236 -10.389680047749897 $341 10.389680047749897 $233 $481 forward 7 unknown #
edge $-1 $237 -10.389680047749897 $340 10.389680047749897 $234 $482 forward 7 unknown #
point $-1 78.477736747337261 -44.45355315469763 10.389680047749897 #
point $-1 78.477736747337261 44.45355315469763 10.389680047749897 #
face $-1 $-1 $254 $34 $-1 $483 reversed single #
loop $-1 $-1 $365 $239 #
plane-surface $-1 0 0 10.389680047749897 0 0 1 1 0 0 forward_v I I I I #
coedge $-1 $371 $370 $243 $364 forward $240 $-1 #
coedge $-1 $245 $242 $371 $484 reversed $147 $-1 #
coedge $-1 $242 $245 $374 $485 reversed $147 $-1 #
edge $-1 $376 -10.389680047749897 $372 10.389680047749897 $242 $486 forward 7 unknown #
coedge $-1 $244 $243 $378 $487 reversed $93 $-1 #
edge $-1 $488 -41.528765968555078 $368 -32.369175589009288 $359 $489 forward 7 unknown #
coedge $-1 $375 $374 $244 $366 forward $357 $-1 #
edge $-1 $367 32.369175589009288 $490 41.528765968555078 $365 $491 forward 7 unknown #
vertex $-1 $366 $492 #
vertex $-1 $364 $493 #
straight-curve $-1 -69.318146367791471 -27.879485499032803 0 0 0 -1 I I #
coedge $-1 $359 $248 $253 $380 forward $240 $-1 #
coedge $-1 $248 $359 $360 $484 forward $240 $-1 #
vertex $-1 $249 $494 #
straight-curve $-1 -36.948970778782183 -30.924634864021371 -10.389680047749897 -1 0 0 I I #
coedge $-1 $365 $250 $361 $485 forward $357 $-1 #
coedge $-1 $250 $365 $252 $379 forward $357 $-1 #
vertex $-1 $251 $495 #
straight-curve $-1 -36.948970778782183 -30.924634864021371 10.389680047749897 1 0 0 I I #
coedge $-1 $253 $252 $363 $487 forward $254 $-1 #
edge $-1 $490 27.879485499032803 $256 30.924634864021371 $252 $496 forward 7 unknown #
edge $-1 $255 -30.924634864021371 $488 -27.879485499032803 $253 $497 forward 7 unknown #
point $-1 -78.477736747337261 -30.924634864021371 -10.389680047749897 #
point $-1 -78.477736747337261 -30.924634864021371 10.389680047749897 #
face $-1 $-1 $498 $35 $-1 $499 reversed single #
loop $-1 $-1 $269 $258 #
plane-surface $-1 0 0 10.389680047749897 0 0 1 1 0 0 forward_v I I I I #
coedge $-1 $264 $261 $500 $501 reversed $155 $-1 #
coedge $-1 $261 $264 $502 $503 reversed $155 $-1 #
coedge $-1 $504 $505 $261 $389 forward $498 $-1 #
edge $-1 $506 -10.389680047749897 $507 10.389680047749897 $388 $508 forward 7 unknown #
coedge $-1 $500 $267 $262 $391 forward $259 $-1 #
edge $-1 $272 -16.223604773257826 $395 -13.17845540826926 $390 $509 forward 7 unknown #
coedge $-1 $269 $502 $263 $393 forward $384 $-1 #
edge $-1 $394 13.17845540826926 $271 16.223604773257826 $392 $510 forward 7 unknown #
vertex $-1 $393 $511 #
vertex $-1 $391 $512 #
straight-curve $-1 69.318146367791456 -27.879485499032803 0 0 0 -1 I I #
coedge $-1 $505 $504 $266 $398 forward $498 $-1 #
edge $-1 $403 -10.389680047749897 $400 10.389680047749897 $397 $513 forward 7 unknown #
coedge $-1 $267 $500 $505 $514 forward $259 $-1 #
vertex $-1 $398 $515 #
straight-curve $-1 36.948970778782176 -30.924634864021371 -10.389680047749897 -1 0 0 I I #
coedge $-1 $502 $269 $504 $516 forward $384 $-1 #
vertex $-1 $516 $517 #
straight-curve $-1 36.948970778782176 -30.924634864021371 10.389680047749897 1 0 0 I I #
point $-1 69.318146367791456 -30.924634864021371 10.389680047749897 #
point $-1 69.318146367791456 -30.924634864021371 -10.389680047749897 #
plane-surface $-1 0 0 10.389680047749897 0 0 1 1 0 0 forward_v I I I I #
coedge $-1 $418 $417 $410 $518 forward $275 $-1 #
coedge $-1 $410 $277 $279 $414 reversed $163 $-1 #
coedge $-1 $277 $409 $408 $518 reversed $163 $-1 #
coedge $-1 $285 $280 $277 $412 forward $286 $-1 #
edge $-1 $415 1.4734272303495928 $519 12.062399414626391 $411 $520 forward 7 unknown #
coedge $-1 $279 $278 $418 $521 reversed $101 $-1 #
edge $-1 $522 -88.90710630939526 $415 -75.818416789507239 $409 $523 forward 7 unknown #
vertex $-1 $281 $524 #
straight-curve $-1 -26.761084572093022 33.864580970420825 10.389680047749902 1 0 0 I I #
coedge $-1 $408 $282 $285 $422 reversed $275 $-1 #
coedge $-1 $282 $408 $413 $521 forward $275 $-1 #
vertex $-1 $283 $525 #
straight-curve $-1 -66.313035210154169 44.45355315469763 90.967136209582492 0 0 1 I I #
straight-curve $-1 -66.313035210154169 -27.473806285239675 54.954627858131744 0 0.80901698891910034 -0.5877852598018023 I I #
edge $-1 $519 40.73130307821792 $287 66.313035210154169 $417 $526 forward 7 unknown #
point $-1 -66.313035210154169 44.45355315469763 10.389680047749897 #
point $-1 -66.313035210154169 33.864580970420832 10.389680047749906 #
edge $-1 $527 1 $527 0 $290 $-1 forward 7 unknown #
vertex $-1 $291 $528 #
ellipse-curve $-1 -61.196688783766916 37.635519848041064 4.4460278626785321 0 0.5877852598018023 0.80901698891910034 2.5 0 0 1 I I #
point $-1 -58.696688783766916 39.159067062559224 6.5430106627936331 #
edge $-1 $529 1 $529 0 $294 $-1 forward 7 unknown #
vertex $-1 $295 $530 #
ellipse-curve $-1 -53.522169144186044 37.635519848041064 4.4460278626785321 0 0.5877852598018023 0.80901698891910034 2.5 0 0 1 I I #
point $-1 -51.022169144186044 39.159067062559224 6.5430106627936331 #
edge $-1 $531 1 $531 0 $298 $-1 forward 7 unknown #
vertex $-1 $299 $532 #
ellipse-curve $-1 -45.847649504605172 37.635519848041064 4.4460278626785321 0 0.5877852598018023 0.80901698891910034 2.5 0 0 1 I I #
point $-1 -43.347649504605172 39.159067062559224 6.5430106627936331 #
loop $-1 $-1 $310 $302 #
plane-surface $-1 0 -44.45355315469763 0 0 1 0 0 0 1 forward_v I I I I #
coedge $-1 $440 $305 $307 $444 reversed $192 $-1 #
coedge $-1 $305 $439 $533 $534 reversed $192 $-1 #
coedge $-1 $313 $308 $305 $442 forward $303 $-1 #
edge $-1 $445 -34.490252489619039 $535 -23.901280305342254 $441 $536 forward 7 unknown #
coedge $-1 $307 $306 $448 $537 reversed $120 $-1 #
edge $-1 $538 -1.7500491998158137e-014 $445 13.088689519887993 $439 $539 forward 7 unknown #
vertex $-1 $309 $540 #
straight-curve $-1 -26.761084572093022 -33.864580970420846 10.389680047749897 -1 0 0 I I #
coedge $-1 $533 $310 $313 $452 reversed $437 $-1 #
coedge $-1 $310 $533 $443 $537 forward $437 $-1 #
vertex $-1 $311 $541 #
straight-curve $-1 -40.73130307821792 -44.45355315469763 64.837992919435322 0 0 1 I I #
straight-curve $-1 -40.73130307821792 -44.453553154697616 2.696341277837405 0 -0.80901698891910034 -0.5877852598018023 I I #
edge $-1 $535 -66.313035210154169 $314 -40.73130307821792 $447 $542 forward 7 unknown #
point $-1 -40.73130307821792 -44.45355315469763 10.389680047749897 #
point $-1 -40.73130307821792 -33.864580970420846 10.389680047749897 #
edge $-1 $543 1 $543 0 $317 $-1 forward 7 unknown #
vertex $-1 $318 $544 #
ellipse-curve $-1 -61.196688783766916 -37.635519848041071 4.446027862678541 0 -0.5877852598018023 0.80901698891910034 2.5 0 0 1 I I #
point $-1 -58.696688783766916 -39.159067062559231 6.543010662793642 #
edge $-1 $545 1 $545 0 $321 $-1 forward 7 unknown #
vertex $-1 $322 $546 #
ellipse-curve $-1 -53.522169144186044 -37.635519848041071 4.446027862678541 0 -0.5877852598018023 0.80901698891910034 2.5 0 0 1 I I #
point $-1 -51.022169144186044 -39.159067062559231 6.543010662793642 #
edge $-1 $547 1 $547 0 $325 $-1 forward 7 unknown #
vertex $-1 $326 $548 #
ellipse-curve $-1 -45.847649504605172 -37.635519848041071 4.446027862678541 0 -0.5877852598018023 0.80901698891910034 2.5 0 0 1 I I #
point $-1 -43.347649504605172 -39.159067062559231 6.543010662793642 #
plane-surface $-1 78.477736747337261 0 0 -1 0 0 0 0 1 forward_v I I I I #
coedge $-1 $334 $332 $336 $472 reversed $221 $-1 #
edge $-1 $347 -10.389680047749897 $474 10.389680047749897 $346 $549 forward 7 unknown #
vertex $-1 $472 $550 #
straight-curve $-1 -78.477736747337261 -44.45355315469763 0 0 0 -1 I I #
edge $-1 $470 -44.45355315469763 $474 44.45355315469763 $468 $551 forward 7 unknown #
straight-curve $-1 0 -44.45355315469763 -10.389680047749897 -1 0 0 I I #
vertex $-1 $339 $552 #
straight-curve $-1 0 44.45355315469763 -10.389680047749897 1 0 0 I I #
point $-1 78.477736747337261 44.45355315469763 -10.389680047749897 #
point $-1 78.477736747337261 -44.45355315469763 -10.389680047749897 #
straight-curve $-1 -78.477736747337261 0 10.389680047749897 0 -1 0 I I #
point $-1 -78.477736747337261 44.45355315469763 10.389680047749897 #
point $-1 -78.477736747337261 -44.45355315469763 10.389680047749897 #
straight-curve $-1 78.477736747337261 -44.45355315469763 0 0 0 -1 I I #
straight-curve $-1 78.477736747337261 44.45355315469763 0 0 0 -1 I I #
plane-surface $-1 -78.477736747337261 0 0 1 0 0 0 0 -1 forward_v I I I I #
edge $-1 $368 13.17845540826926 $372 16.223604773257826 $371 $553 forward 7 unknown #
edge $-1 $376 -16.223604773257826 $367 -13.17845540826926 $374 $554 forward 7 unknown #
straight-curve $-1 -69.318146367791471 -30.924634864021371 0 0 0 -1 I I #
edge $-1 $490 -10.389680047749897 $488 10.389680047749897 $378 $555 forward 7 unknown #
vertex $-1 $487 $556 #
straight-curve $-1 -36.948970778782183 -27.879485499032803 -10.389680047749897 1 0 0 I I #
vertex $-1 $379 $557 #
straight-curve $-1 -36.948970778782183 -27.879485499032803 10.389680047749897 -1 0 0 I I #
point $-1 -69.318146367791471 -27.879485499032803 10.389680047749897 #
point $-1 -69.318146367791471 -27.879485499032803 -10.389680047749897 #
point $-1 -69.318146367791471 -30.924634864021371 -10.389680047749897 #
point $-1 -69.318146367791471 -30.924634864021371 10.389680047749897 #
straight-curve $-1 -78.477736747337261 0 10.389680047749897 0 -1 0 I I #
straight-curve $-1 -78.477736747337261 0 -10.389680047749897 0 1 0 I I #
loop $-1 $-1 $397 $383 #
plane-surface $-1 78.477736747337261 0 0 -1 0 0 0 0 1 forward_v I I I I #
coedge $-1 $399 $390 $386 $501 forward $259 $-1 #
edge $-1 $395 32.369175589009281 $506 41.528765968555071 $500 $558 forward 7 unknown #
coedge $-1 $392 $402 $387 $503 forward $384 $-1 #
edge $-1 $507 -41.528765968555071 $394 -32.369175589009281 $502 $559 forward 7 unknown #
coedge $-1 $397 $388 $402 $516 reversed $498 $-1 #
coedge $-1 $388 $397 $399 $514 reversed $498 $-1 #
vertex $-1 $514 $560 #
vertex $-1 $389 $561 #
straight-curve $-1 78.477736747337261 -27.879485499032803 0 0 0 1 I I #
straight-curve $-1 69.318146367791456 -14.701030090763544 -10.389680047749897 0 1 0 I I #
straight-curve $-1 69.318146367791456 -14.701030090763544 10.389680047749897 0 -1 0 I I #
point $-1 69.318146367791456 -27.879485499032803 10.389680047749897 #
point $-1 69.318146367791456 -27.879485499032803 -10.389680047749897 #
straight-curve $-1 78.477736747337261 -30.924634864021371 0 0 0 -1 I I #
edge $-1 $506 27.879485499032803 $400 30.924634864021371 $505 $562 forward 7 unknown #
point $-1 78.477736747337246 -30.924634864021371 -10.389680047749897 #
edge $-1 $403 -30.924634864021371 $507 -27.879485499032803 $504 $563 forward 7 unknown #
point $-1 78.477736747337246 -30.924634864021371 10.389680047749897 #
edge $-1 $519 80.5774561618326 $522 88.270794931745087 $408 $564 forward 7 unknown #
vertex $-1 $422 $565 #
straight-curve $-1 -40.73130307821792 32.391153740071239 10.389680047749891 0 1 0 I I #
edge $-1 $522 13.970218506124898 $419 39.551950638061143 $418 $566 forward 7 unknown #
vertex $-1 $521 $567 #
straight-curve $-1 -40.73130307821792 -27.473806285239675 54.954627858131744 0 -0.80901698891910034 0.5877852598018023 I I #
point $-1 -40.73130307821792 33.864580970420832 10.389680047749906 #
point $-1 -66.313035210154169 44.45355315469763 2.6963412778373979 #
straight-curve $-1 0 44.45355315469763 10.389680047749897 -1 0 0 I I #
vertex $-1 $425 $568 #
point $-1 -58.696688783766916 37.635519848041064 4.4460278626785321 #
vertex $-1 $429 $569 #
point $-1 -51.022169144186044 37.635519848041064 4.4460278626785321 #
vertex $-1 $433 $570 #
point $-1 -43.347649504605172 37.635519848041064 4.4460278626785321 #
coedge $-1 $448 $447 $440 $534 forward $437 $-1 #
edge $-1 $535 54.448312871685424 $538 62.141651641597925 $533 $571 forward 7 unknown #
vertex $-1 $452 $572 #
straight-curve $-1 -66.313035210154169 -68.354833460039885 10.389680047749899 0 -1 0 I I #
edge $-1 $538 -39.551950638061143 $449 -13.970218506124898 $448 $573 forward 7 unknown #
vertex $-1 $537 $574 #
straight-curve $-1 -66.313035210154169 -44.453553154697616 2.696341277837405 0 0.80901698891910034 0.5877852598018023 I I #
point $-1 -66.313035210154169 -33.864580970420846 10.389680047749897 #
point $-1 -40.73130307821792 -44.45355315469763 2.6963412778373947 #
straight-curve $-1 0 -44.45355315469763 10.389680047749897 1 0 0 I I #
vertex $-1 $455 $575 #
point $-1 -58.696688783766916 -37.635519848041071 4.446027862678541 #
vertex $-1 $459 $576 #
point $-1 -51.022169144186044 -37.635519848041071 4.446027862678541 #
vertex $-1 $463 $577 #
point $-1 -43.347649504605172 -37.635519848041071 4.446027862678541 #
straight-curve $-1 -78.477736747337261 44.45355315469763 0 0 0 -1 I I #
point $-1 -78.477736747337261 -44.45355315469763 -10.389680047749897 #
straight-curve $-1 -78.477736747337261 0 -10.389680047749897 0 1 0 I I #
point $-1 -78.477736747337261 44.45355315469763 -10.389680047749897 #
straight-curve $-1 -69.318146367791471 -14.701030090763544 -10.389680047749897 0 -1 0 I I #
straight-curve $-1 -69.318146367791471 -14.701030090763544 10.389680047749897 0 1 0 I I #
straight-curve $-1 -78.477736747337261 -27.879485499032803 0 0 0 -1 I I #
point $-1 -78.477736747337261 -27.879485499032803 -10.389680047749897 #
point $-1 -78.477736747337261 -27.879485499032803 10.389680047749897 #
straight-curve $-1 36.948970778782176 -27.879485499032803 -10.389680047749897 1 0 0 I I #
straight-curve $-1 36.948970778782176 -27.879485499032803 10.389680047749897 -1 0 0 I I #
point $-1 78.477736747337246 -27.879485499032803 -10.389680047749897 #
point $-1 78.477736747337246 -27.879485499032803 10.389680047749897 #
straight-curve $-1 78.477736747337261 0 -10.389680047749897 0 -1 0 I I #
straight-curve $-1 78.477736747337261 0 10.389680047749897 0 1 0 I I #
straight-curve $-1 -40.73130307821792 44.45355315469763 90.967136209582492 0 0 -1 I I #
point $-1 -40.73130307821792 44.45355315469763 10.389680047749897 #
straight-curve $-1 -26.761084572093022 44.45355315469763 2.6963412778373943 -1 0 0 I I #
point $-1 -40.73130307821792 44.45355315469763 2.6963412778373979 #
point $-1 -61.196688783766916 36.166056698536558 2.4234853903807814 #
point $-1 -53.522169144186044 36.166056698536558 2.4234853903807814 #
point $-1 -45.847649504605172 36.166056698536558 2.4234853903807814 #
straight-curve $-1 -66.313035210154169 -44.45355315469763 64.837992919435322 0 0 -1 I I #
point $-1 -66.313035210154169 -44.45355315469763 10.389680047749897 #
straight-curve $-1 -26.761084572093022 -44.45355315469763 2.6963412778373952 1 0 0 I I #
point $-1 -66.313035210154169 -44.45355315469763 2.6963412778373947 #
point $-1 -61.196688783766916 -36.166056698536565 2.4234853903807902 #
point $-1 -53.522169144186044 -36.166056698536565 2.4234853903807902 #
point $-1 -45.847649504605172 -36.166056698536565 2.4234853903807902 #
End-of-ACIS-data 