500 0 13 0           
7 Unknown 11 ACIS 5.0 NT 24 Thu Mar 25 22:21:04 1999 
-1 9.9999999999999995e-007 1e-010 
body $-1 $13 $-1 $14 #
body $-1 $15 $-1 $16 #
body $-1 $17 $-1 $18 #
body $-1 $19 $-1 $20 #
body $-1 $21 $-1 $22 #
body $-1 $23 $-1 $24 #
body $-1 $25 $-1 $26 #
body $-1 $27 $-1 $28 #
body $-1 $29 $-1 $30 #
body $-1 $31 $-1 $32 #
body $-1 $33 $-1 $34 #
body $-1 $35 $-1 $36 #
body $-1 $37 $-1 $38 #
lump $-1 $-1 $39 $0 #
transform $-1 1 0 0 0 1 0 0 0 1 57.715384380626851 33.501238070090231 8.5556111421345271 1 rotate no_reflect no_shear #
lump $-1 $-1 $40 $1 #
transform $-1 1 0 0 0 1 0 0 0 1 57.715384380626851 33.501238070090231 8.5556111421345271 1 rotate no_reflect no_shear #
lump $-1 $-1 $41 $2 #
transform $-1 1 0 0 0 1 0 0 0 1 57.715384380626851 33.501238070090231 8.5556111421345271 1 rotate no_reflect no_shear #
lump $-1 $-1 $42 $3 #
transform $-1 1 0 0 0 1 0 0 0 1 57.715384380626851 33.501238070090231 8.5556111421345271 1 rotate no_reflect no_shear #
lump $-1 $-1 $43 $4 #
transform $-1 1 0 0 0 1 0 0 0 1 57.715384380626851 33.501238070090231 8.5556111421345271 1 rotate no_reflect no_shear #
lump $-1 $-1 $44 $5 #
transform $-1 1 0 0 0 1 0 0 0 1 57.715384380626851 33.501238070090231 8.5556111421345271 1 rotate no_reflect no_shear #
lump $-1 $-1 $45 $6 #
transform $-1 1 0 0 0 1 0 0 0 1 57.715384380626851 33.501238070090231 8.5556111421345271 1 rotate no_reflect no_shear #
lump $-1 $-1 $46 $7 #
transform $-1 1 0 0 0 1 0 0 0 1 57.715384380626851 33.501238070090231 8.5556111421345271 1 rotate no_reflect no_shear #
lump $-1 $-1 $47 $8 #
transform $-1 1 0 0 0 1 0 0 0 1 57.715384380626851 33.501238070090231 8.5556111421345271 1 rotate no_reflect no_shear #
lump $-1 $-1 $48 $9 #
transform $-1 1 0 0 0 1 0 0 0 1 57.715384380626851 33.501238070090231 8.5556111421345271 1 rotate no_reflect no_shear #
lump $-1 $-1 $49 $10 #
transform $-1 1 0 0 0 1 0 0 0 1 57.715384380626851 33.501238070090231 8.5556111421345271 1 rotate no_reflect no_shear #
lump $-1 $-1 $50 $11 #
transform $-1 1 0 0 0 1 0 0 0 1 57.715384380626851 33.501238070090231 8.5556111421345271 1 rotate no_reflect no_shear #
lump $-1 $-1 $51 $12 #
transform $-1 1 0 0 0 1 0 0 0 1 57.715384380626851 33.501238070090231 8.5556111421345271 1 rotate no_reflect no_shear #
shell $-1 $-1 $-1 $52 $-1 $13 #
shell $-1 $-1 $-1 $53 $-1 $15 #
shell $-1 $-1 $-1 $54 $-1 $17 #
shell $-1 $-1 $-1 $55 $-1 $19 #
shell $-1 $-1 $-1 $56 $-1 $21 #
shell $-1 $-1 $-1 $57 $-1 $23 #
shell $-1 $-1 $-1 $58 $-1 $25 #
shell $-1 $-1 $-1 $59 $-1 $27 #
shell $-1 $-1 $-1 $60 $-1 $29 #
shell $-1 $-1 $-1 $61 $-1 $31 #
shell $-1 $-1 $-1 $62 $-1 $33 #
shell $-1 $-1 $-1 $63 $-1 $35 #
shell $-1 $-1 $-1 $64 $-1 $37 #
face $-1 $65 $66 $39 $-1 $67 forward single #
face $-1 $68 $69 $40 $-1 $70 reversed single #
face $-1 $71 $72 $41 $-1 $73 forward single #
face $-1 $74 $75 $42 $-1 $76 forward single #
face $-1 $77 $78 $43 $-1 $79 forward single #
face $-1 $80 $81 $44 $-1 $82 reversed single #
face $-1 $83 $84 $45 $-1 $85 forward single #
face $-1 $86 $87 $46 $-1 $88 forward single #
face $-1 $89 $90 $47 $-1 $91 forward single #
face $-1 $92 $93 $48 $-1 $94 reversed single #
face $-1 $95 $96 $49 $-1 $97 forward single #
face $-1 $98 $99 $50 $-1 $100 forward single #
face $-1 $101 $102 $51 $-1 $103 forward single #
face $-1 $104 $105 $39 $-1 $106 reversed single #
loop $-1 $-1 $107 $52 #
plane-surface $-1 0 0 8.5556111421345271 0 0 1 1 0 0 forward_v I I I I #
face $-1 $108 $109 $40 $-1 $110 reversed single #
loop $-1 $-1 $111 $53 #
plane-surface $-1 66.25890461028834 3.6080153044645638 167.80081103711174 0 -1 0 -0.74314483375859142 0 -0.66913059716165679 forward_v I I I I #
face $-1 $112 $113 $41 $-1 $114 forward single #
loop $-1 $115 $116 $54 #
cone-surface $-1 55.504591453081083 -1.9334352506637309 6.2077675265660508 -0.74314483375859142 0 -0.66913059716165679 0.3345652985808284 0 -0.37157241687929571 1 I I 0 1 0.5 forward I I I I #
face $-1 $117 $118 $42 $-1 $119 forward single #
loop $-1 $120 $121 $55 #
cone-surface $-1 55.504591453081083 0.14460870750938426 6.2077675265660508 -0.74314483375859142 0 -0.66913059716165679 0.3345652985808284 0 -0.37157241687929571 1 I I 0 1 0.5 forward I I I I #
face $-1 $122 $123 $43 $-1 $124 forward single #
loop $-1 $125 $126 $56 #
cone-surface $-1 55.504591453081083 2.2226526656824959 6.2077675265660508 -0.74314483375859142 0 -0.66913059716165679 0.3345652985808284 0 -0.37157241687929571 1 I I 0 1 0.5 forward I I I I #
face $-1 $127 $128 $44 $-1 $129 reversed single #
loop $-1 $-1 $130 $57 #
plane-surface $-1 -157.68136339910072 -30.988320499996714 62.633659393216035 0 1 0 -0.86602541151947299 0 0.49999998660252726 forward_v I I I I #
face $-1 $131 $132 $45 $-1 $133 forward single #
loop $-1 $134 $135 $58 #
cone-surface $-1 -55.170955919077173 -28.183242318622174 5.8741398330702683 0.86602541151947299 0 -0.49999998660252726 0.49999998660252726 0 0.86602541151947299 1 I I 0 1 1 forward I I I I #
face $-1 $136 $137 $46 $-1 $138 forward single #
loop $-1 $139 $140 $59 #
cone-surface $-1 -55.170955919077173 -23.975625046560364 5.8741398330702683 0.86602541151947299 0 -0.49999998660252726 0.49999998660252726 0 0.86602541151947299 1 I I 0 1 1 forward I I I I #
face $-1 $141 $142 $47 $-1 $143 forward single #
loop $-1 $144 $145 $60 #
cone-surface $-1 -55.170955919077173 -19.768007774498553 5.8741398330702683 0.86602541151947299 0 -0.49999998660252726 0.49999998660252726 0 0.86602541151947299 1 I I 0 1 1 forward I I I I #
face $-1 $146 $147 $48 $-1 $148 reversed single #
loop $-1 $-1 $149 $61 #
plane-surface $-1 -157.68136339910072 16.962929593124009 62.633659393216035 0 1 0 -0.86602541151947299 0 0.49999998660252726 forward_v I I I I #
face $-1 $150 $151 $49 $-1 $152 forward single #
loop $-1 $153 $154 $62 #
cone-surface $-1 -55.170955919077173 19.76800777449855 5.8741398330702683 0.86602541151947299 0 -0.49999998660252726 0.49999998660252726 0 0.86602541151947299 1 I I 0 1 1 forward I I I I #
face $-1 $155 $156 $50 $-1 $157 forward single #
loop $-1 $158 $159 $63 #
cone-surface $-1 -55.170955919077173 23.97562504656036 5.8741398330702683 0.86602541151947299 0 -0.49999998660252726 0.49999998660252726 0 0.86602541151947299 1 I I 0 1 1 forward I I I I #
face $-1 $160 $161 $51 $-1 $162 forward single #
loop $-1 $163 $164 $64 #
cone-surface $-1 -55.170955919077173 28.18324231862217 5.8741398330702683 0.86602541151947299 0 -0.49999998660252726 0.49999998660252726 0 0.86602541151947299 1 I I 0 1 1 forward I I I I #
face $-1 $165 $166 $39 $-1 $167 reversed single #
loop $-1 $-1 $168 $65 #
plane-surface $-1 0 0 -8.5556111421345271 0 0 1 1 0 0 forward_v I I I I #
coedge $-1 $169 $170 $171 $172 forward $66 $-1 #
face $-1 $173 $174 $40 $-1 $175 reversed single #
loop $-1 $-1 $176 $68 #
plane-surface $-1 -19.522874851419957 0.14460870750937715 90.562551805064928 0.74314483375859142 0 0.66913059716165679 0.66913059716165679 0 -0.74314483375859142 forward_v I I I I #
coedge $-1 $177 $178 $179 $180 reversed $69 $-1 #
face $-1 $-1 $181 $41 $-1 $182 forward single #
loop $-1 $183 $184 $71 #
cone-surface $-1 54.807452335295245 -1.9334352506637309 5.580060661096109 -0.74314483375859142 0 -0.66913059716165679 0.1672826492904142 0 -0.18578620843964785 1 I I -0.70710678118654746 0.70710678118654746 0.25 forward I I I I #
loop $-1 $-1 $185 $54 #
coedge $-1 $116 $116 $186 $187 reversed $72 $-1 #
face $-1 $-1 $188 $42 $-1 $189 forward single #
loop $-1 $190 $191 $74 #
cone-surface $-1 54.807452335295245 0.14460870750938426 5.580060661096109 -0.74314483375859142 0 -0.66913059716165679 0.1672826492904142 0 -0.18578620843964785 1 I I -0.70710678118654746 0.70710678118654746 0.25 forward I I I I #
loop $-1 $-1 $192 $55 #
coedge $-1 $121 $121 $193 $194 reversed $75 $-1 #
face $-1 $-1 $195 $43 $-1 $196 forward single #
loop $-1 $197 $198 $77 #
cone-surface $-1 54.807452335295245 2.2226526656824959 5.580060661096109 -0.74314483375859142 0 -0.66913059716165679 0.1672826492904142 0 -0.18578620843964785 1 I I -0.70710678118654746 0.70710678118654746 0.25 forward I I I I #
loop $-1 $-1 $199 $56 #
coedge $-1 $126 $126 $200 $201 reversed $78 $-1 #
face $-1 $202 $203 $44 $-1 $204 reversed single #
loop $-1 $-1 $205 $80 #
plane-surface $-1 -57.715384380626858 -23.975625046560364 4.9182765590697599 -0.86602541151947299 0 0.49999998660252726 0.49999998660252726 0 0.86602541151947299 forward_v I I I I #
coedge $-1 $206 $207 $208 $209 reversed $81 $-1 #
face $-1 $-1 $210 $45 $-1 $211 forward single #
loop $-1 $212 $213 $83 #
cone-surface $-1 -53.243522764587141 -28.183242318622174 4.7613358222371378 0.86602541151947299 0 -0.49999998660252726 0.24999999330126363 0 0.43301270575973649 1 I I -0.70710678118654746 0.70710678118654746 0.5 forward I I I I #
loop $-1 $-1 $214 $58 #
coedge $-1 $135 $135 $215 $216 reversed $84 $-1 #
face $-1 $-1 $217 $46 $-1 $218 forward single #
loop $-1 $219 $220 $86 #
cone-surface $-1 -53.243522764587141 -23.975625046560364 4.7613358222371378 0.86602541151947299 0 -0.49999998660252726 0.24999999330126363 0 0.43301270575973649 1 I I -0.70710678118654746 0.70710678118654746 0.5 forward I I I I #
loop $-1 $-1 $221 $59 #
coedge $-1 $140 $140 $222 $223 reversed $87 $-1 #
face $-1 $-1 $224 $47 $-1 $225 forward single #
loop $-1 $226 $227 $89 #
cone-surface $-1 -53.243522764587141 -19.768007774498553 4.7613358222371378 0.86602541151947299 0 -0.49999998660252726 0.24999999330126363 0 0.43301270575973649 1 I I -0.70710678118654746 0.70710678118654746 0.5 forward I I I I #
loop $-1 $-1 $228 $60 #
coedge $-1 $145 $145 $229 $230 reversed $90 $-1 #
face $-1 $231 $232 $48 $-1 $233 reversed single #
loop $-1 $-1 $234 $92 #
plane-surface $-1 -57.715384380626858 23.97562504656036 4.9182765590697599 -0.86602541151947299 0 0.49999998660252726 0.49999998660252726 0 0.86602541151947299 forward_v I I I I #
coedge $-1 $235 $236 $237 $238 reversed $93 $-1 #
face $-1 $-1 $239 $49 $-1 $240 forward single #
loop $-1 $241 $242 $95 #
cone-surface $-1 -53.243522764587141 19.76800777449855 4.7613358222371378 0.86602541151947299 0 -0.49999998660252726 0.24999999330126363 0 0.43301270575973649 1 I I -0.70710678118654746 0.70710678118654746 0.5 forward I I I I #
loop $-1 $-1 $243 $62 #
coedge $-1 $154 $154 $244 $245 reversed $96 $-1 #
face $-1 $-1 $246 $50 $-1 $247 forward single #
loop $-1 $248 $249 $98 #
cone-surface $-1 -53.243522764587141 23.97562504656036 4.7613358222371378 0.86602541151947299 0 -0.49999998660252726 0.24999999330126363 0 0.43301270575973649 1 I I -0.70710678118654746 0.70710678118654746 0.5 forward I I I I #
loop $-1 $-1 $250 $63 #
coedge $-1 $159 $159 $251 $252 reversed $99 $-1 #
face $-1 $-1 $253 $51 $-1 $254 forward single #
loop $-1 $255 $256 $101 #
cone-surface $-1 -53.243522764587141 28.18324231862217 4.7613358222371378 0.86602541151947299 0 -0.49999998660252726 0.24999999330126363 0 0.43301270575973649 1 I I -0.70710678118654746 0.70710678118654746 0.5 forward I I I I #
loop $-1 $-1 $257 $64 #
coedge $-1 $164 $164 $258 $259 reversed $102 $-1 #
face $-1 $260 $261 $39 $-1 $262 reversed single #
loop $-1 $-1 $263 $104 #
plane-surface $-1 0 -33.501238070090231 0 0 1 0 0 0 1 forward_v I I I I #
coedge $-1 $264 $265 $266 $267 forward $105 $-1 #
coedge $-1 $268 $107 $269 $270 forward $66 $-1 #
coedge $-1 $107 $268 $271 $272 forward $66 $-1 #
coedge $-1 $273 $274 $107 $172 reversed $275 $-1 #
edge $-1 $276 -33.501238070090231 $277 33.501238070090231 $171 $278 forward 7 unknown #
face $-1 $279 $280 $40 $-1 $281 forward single #
loop $-1 $-1 $282 $108 #
plane-surface $-1 66.25890461028834 -3.3187978894458094 167.80081103711174 0 1 0 0.74314483375859142 0 0.66913059716165679 forward_v I I I I #
coedge $-1 $283 $284 $285 $286 reversed $109 $-1 #
coedge $-1 $178 $111 $287 $288 reversed $69 $-1 #
coedge $-1 $111 $177 $283 $289 reversed $69 $-1 #
coedge $-1 $285 $290 $111 $180 forward $280 $-1 #
edge $-1 $291 -24.585932075482681 $292 -21.18705203908354 $179 $293 forward 7 unknown #
loop $-1 $-1 $186 $112 #
plane-surface $-1 -19.522874851419957 0.14460870750937715 90.562551805064928 0.74314483375859142 0 0.66913059716165679 0.66913059716165679 0 -0.74314483375859142 forward_v I I I I #
loop $-1 $-1 $294 $71 #
coedge $-1 $184 $184 $185 $295 reversed $113 $-1 #
coedge $-1 $185 $185 $184 $295 forward $115 $-1 #
coedge $-1 $186 $186 $116 $187 forward $181 $-1 #
edge $-1 $296 0 $296 6.2831853071796004 $186 $297 forward 7 unknown #
loop $-1 $-1 $193 $117 #
plane-surface $-1 -19.522874851419957 0.14460870750937715 90.562551805064928 0.74314483375859142 0 0.66913059716165679 0.66913059716165679 0 -0.74314483375859142 forward_v I I I I #
loop $-1 $-1 $298 $74 #
coedge $-1 $191 $191 $192 $299 reversed $118 $-1 #
coedge $-1 $192 $192 $191 $299 forward $120 $-1 #
coedge $-1 $193 $193 $121 $194 forward $188 $-1 #
edge $-1 $300 0 $300 6.2831853071796004 $193 $301 forward 7 unknown #
loop $-1 $-1 $200 $122 #
plane-surface $-1 -19.522874851419957 0.14460870750937715 90.562551805064928 0.74314483375859142 0 0.66913059716165679 0.66913059716165679 0 -0.74314483375859142 forward_v I I I I #
loop $-1 $-1 $302 $77 #
coedge $-1 $198 $198 $199 $303 reversed $123 $-1 #
coedge $-1 $199 $199 $198 $303 forward $125 $-1 #
coedge $-1 $200 $200 $126 $201 forward $195 $-1 #
edge $-1 $304 0 $304 6.2831853071796004 $200 $305 forward 7 unknown #
face $-1 $306 $307 $44 $-1 $308 reversed single #
loop $-1 $-1 $309 $127 #
plane-surface $-1 -157.68136339910072 -16.962929593124013 62.633659393216035 0 -1 0 0.86602541151947299 0 -0.49999998660252726 forward_v I I I I #
coedge $-1 $310 $311 $312 $313 reversed $128 $-1 #
coedge $-1 $207 $130 $314 $315 reversed $81 $-1 #
coedge $-1 $130 $206 $310 $316 reversed $81 $-1 #
coedge $-1 $312 $317 $130 $209 forward $318 $-1 #
edge $-1 $319 21.125297318923508 $320 23.225313344562259 $208 $321 forward 7 unknown #
loop $-1 $-1 $215 $131 #
plane-surface $-1 -57.715384380626858 -23.975625046560364 4.9182765590697599 -0.86602541151947299 0 0.49999998660252726 0.49999998660252726 0 0.86602541151947299 forward_v I I I I #
loop $-1 $-1 $322 $83 #
coedge $-1 $213 $213 $214 $323 reversed $132 $-1 #
coedge $-1 $214 $214 $213 $323 forward $134 $-1 #
coedge $-1 $215 $215 $135 $216 forward $210 $-1 #
edge $-1 $324 0 $324 6.2831853071796004 $215 $325 forward 7 unknown #
loop $-1 $-1 $222 $136 #
plane-surface $-1 -57.715384380626858 -23.975625046560364 4.9182765590697599 -0.86602541151947299 0 0.49999998660252726 0.49999998660252726 0 0.86602541151947299 forward_v I I I I #
loop $-1 $-1 $326 $86 #
coedge $-1 $220 $220 $221 $327 reversed $137 $-1 #
coedge $-1 $221 $221 $220 $327 forward $139 $-1 #
coedge $-1 $222 $222 $140 $223 forward $217 $-1 #
edge $-1 $328 0 $328 6.2831853071796004 $222 $329 forward 7 unknown #
loop $-1 $-1 $229 $141 #
plane-surface $-1 -57.715384380626858 -23.975625046560364 4.9182765590697599 -0.86602541151947299 0 0.49999998660252726 0.49999998660252726 0 0.86602541151947299 forward_v I I I I #
loop $-1 $-1 $330 $89 #
coedge $-1 $227 $227 $228 $331 reversed $142 $-1 #
coedge $-1 $228 $228 $227 $331 forward $144 $-1 #
coedge $-1 $229 $229 $145 $230 forward $224 $-1 #
edge $-1 $332 0 $332 6.2831853071796004 $229 $333 forward 7 unknown #
face $-1 $334 $335 $48 $-1 $336 forward single #
loop $-1 $-1 $337 $146 #
plane-surface $-1 -157.68136339910072 30.988320499996711 62.633659393216035 0 -1 0 0.86602541151947299 0 -0.49999998660252726 forward_v I I I I #
coedge $-1 $338 $339 $340 $341 reversed $147 $-1 #
coedge $-1 $236 $149 $342 $343 reversed $93 $-1 #
coedge $-1 $149 $235 $338 $344 reversed $93 $-1 #
coedge $-1 $340 $345 $149 $238 forward $335 $-1 #
edge $-1 $346 21.125297318923508 $347 23.225313344562259 $237 $348 forward 7 unknown #
loop $-1 $-1 $244 $150 #
plane-surface $-1 -57.715384380626858 23.97562504656036 4.9182765590697599 -0.86602541151947299 0 0.49999998660252726 0.49999998660252726 0 0.86602541151947299 forward_v I I I I #
loop $-1 $-1 $349 $95 #
coedge $-1 $242 $242 $243 $350 reversed $151 $-1 #
coedge $-1 $243 $243 $242 $350 forward $153 $-1 #
coedge $-1 $244 $244 $154 $245 forward $239 $-1 #
edge $-1 $351 0 $351 6.2831853071796004 $244 $352 forward 7 unknown #
loop $-1 $-1 $251 $155 #
plane-surface $-1 -57.715384380626858 23.97562504656036 4.9182765590697599 -0.86602541151947299 0 0.49999998660252726 0.49999998660252726 0 0.86602541151947299 forward_v I I I I #
loop $-1 $-1 $353 $98 #
coedge $-1 $249 $249 $250 $354 reversed $156 $-1 #
coedge $-1 $250 $250 $249 $354 forward $158 $-1 #
coedge $-1 $251 $251 $159 $252 forward $246 $-1 #
edge $-1 $355 0 $355 6.2831853071796004 $251 $356 forward 7 unknown #
loop $-1 $-1 $258 $160 #
plane-surface $-1 -57.715384380626858 23.97562504656036 4.9182765590697599 -0.86602541151947299 0 0.49999998660252726 0.49999998660252726 0 0.86602541151947299 forward_v I I I I #
loop $-1 $-1 $357 $101 #
coedge $-1 $256 $256 $257 $358 reversed $161 $-1 #
coedge $-1 $257 $257 $256 $358 forward $163 $-1 #
coedge $-1 $258 $258 $164 $259 forward $253 $-1 #
edge $-1 $359 0 $359 6.2831853071796004 $258 $360 forward 7 unknown #
face $-1 $361 $362 $39 $-1 $363 reversed single #
loop $-1 $-1 $364 $165 #
plane-surface $-1 -57.715384380626851 0 0 1 0 0 0 0 -1 forward_v I I I I #
coedge $-1 $365 $271 $366 $367 forward $166 $-1 #
coedge $-1 $368 $168 $365 $369 forward $105 $-1 #
coedge $-1 $168 $368 $370 $371 forward $105 $-1 #
coedge $-1 $274 $273 $168 $267 reversed $275 $-1 #
edge $-1 $372 -33.501238070090231 $373 33.501238070090231 $266 $374 forward 7 unknown #
coedge $-1 $170 $169 $375 $376 forward $66 $-1 #
coedge $-1 $377 $378 $169 $270 reversed $362 $-1 #
edge $-1 $277 -57.715384380626851 $379 57.715384380626851 $269 $380 forward 7 unknown #
coedge $-1 $263 $381 $170 $272 reversed $166 $-1 #
edge $-1 $382 -57.715384380626851 $276 57.715384380626851 $271 $383 forward 7 unknown #
coedge $-1 $266 $171 $381 $384 forward $275 $-1 #
coedge $-1 $171 $266 $377 $385 reversed $275 $-1 #
loop $-1 $-1 $273 $361 #
vertex $-1 $172 $386 #
vertex $-1 $172 $387 #
straight-curve $-1 57.715384380626851 0 8.5556111421345271 0 1 0 I I #
face $-1 $-1 $388 $40 $-1 $389 reversed single #
loop $-1 $-1 $179 $173 #
plane-surface $-1 0 0 8.5556111421345271 0 0 1 1 0 0 forward_v I I I I #
coedge $-1 $390 $391 $392 $393 reversed $174 $-1 #
coedge $-1 $394 $176 $178 $289 forward $109 $-1 #
coedge $-1 $176 $394 $390 $395 forward $109 $-1 #
coedge $-1 $392 $179 $176 $286 forward $280 $-1 #
edge $-1 $292 -3.5357109507098752 $396 3.391102243200498 $285 $397 forward 7 unknown #
coedge $-1 $398 $399 $177 $288 forward $388 $-1 #
edge $-1 $400 -79.119633175199226 $291 -75.344794376421348 $287 $401 forward 7 unknown #
edge $-1 $292 110.35122218123382 $400 115.43076876125367 $178 $402 forward 7 unknown #
coedge $-1 $179 $392 $398 $403 forward $280 $-1 #
vertex $-1 $288 $404 #
vertex $-1 $180 $405 #
straight-curve $-1 33.12945230514417 3.6080153044645638 8.5556111421345236 -1 0 0 I I #
coedge $-1 $294 $294 $-1 $406 reversed $183 $-1 #
edge $-1 $407 0 $407 6.2831853071796004 $184 $408 forward 7 unknown #
vertex $-1 $187 $409 #
ellipse-curve $-1 56.015944362427277 -1.9334352506637309 6.6681917427455843 0.74314483375859142 0 0.66913059716165679 0.3345652985808284 0 -0.37157241687929571 1 I I #
coedge $-1 $298 $298 $-1 $410 reversed $190 $-1 #
edge $-1 $411 0 $411 6.2831853071796004 $191 $412 forward 7 unknown #
vertex $-1 $194 $413 #
ellipse-curve $-1 56.015944362427277 0.14460870750938426 6.6681917427455843 0.74314483375859142 0 0.66913059716165679 0.3345652985808284 0 -0.37157241687929571 1 I I #
coedge $-1 $302 $302 $-1 $414 reversed $197 $-1 #
edge $-1 $415 0 $415 6.2831853071796004 $198 $416 forward 7 unknown #
vertex $-1 $201 $417 #
ellipse-curve $-1 56.015944362427277 2.2226526656824959 6.6681917427455843 0.74314483375859142 0 0.66913059716165679 0.3345652985808284 0 -0.37157241687929571 1 I I #
face $-1 $-1 $318 $44 $-1 $418 forward single #
loop $-1 $-1 $419 $202 #
plane-surface $-1 -57.715384380626851 0 0 1 0 0 0 0 -1 forward_v I I I I #
coedge $-1 $420 $421 $422 $423 reversed $203 $-1 #
coedge $-1 $424 $205 $207 $316 forward $128 $-1 #
coedge $-1 $205 $424 $420 $425 forward $128 $-1 #
coedge $-1 $422 $208 $205 $313 forward $318 $-1 #
edge $-1 $320 -19.000507976716534 $426 -4.9751170698438312 $312 $427 forward 7 unknown #
coedge $-1 $428 $429 $206 $315 forward $307 $-1 #
edge $-1 $430 -26.398553137538244 $319 -22.761218554473491 $314 $431 forward 7 unknown #
edge $-1 $320 -4.2000321638171476 $430 -1.4321304723534956e-014 $207 $432 forward 7 unknown #
coedge $-1 $208 $422 $428 $433 forward $318 $-1 #
loop $-1 $-1 $422 $306 #
vertex $-1 $315 $434 #
vertex $-1 $209 $435 #
straight-curve $-1 -78.840681699550359 -30.988320499996714 8.5556111421345271 1 0 0 I I #
coedge $-1 $322 $322 $-1 $436 reversed $212 $-1 #
edge $-1 $437 0 $437 6.2831853071796004 $213 $438 forward 7 unknown #
vertex $-1 $216 $439 #
ellipse-curve $-1 -56.665376367807482 -28.183242318622174 6.7369438506021426 -0.86602541151947299 0 0.49999998660252726 0.49999998660252726 0 0.86602541151947299 1 I I #
coedge $-1 $326 $326 $-1 $440 reversed $219 $-1 #
edge $-1 $441 0 $441 6.2831853071796004 $220 $442 forward 7 unknown #
vertex $-1 $223 $443 #
ellipse-curve $-1 -56.665376367807482 -23.975625046560364 6.7369438506021426 -0.86602541151947299 0 0.49999998660252726 0.49999998660252726 0 0.86602541151947299 1 I I #
coedge $-1 $330 $330 $-1 $444 reversed $226 $-1 #
edge $-1 $445 0 $445 6.2831853071796004 $227 $446 forward 7 unknown #
vertex $-1 $230 $447 #
ellipse-curve $-1 -56.665376367807482 -19.768007774498553 6.7369438506021426 -0.86602541151947299 0 0.49999998660252726 0.49999998660252726 0 0.86602541151947299 1 I I #
face $-1 $-1 $448 $48 $-1 $449 reversed single #
loop $-1 $-1 $237 $231 #
plane-surface $-1 0 0 8.5556111421345271 0 0 1 1 0 0 forward_v I I I I #
coedge $-1 $450 $451 $452 $453 reversed $232 $-1 #
coedge $-1 $454 $234 $236 $344 forward $147 $-1 #
coedge $-1 $234 $454 $450 $455 forward $147 $-1 #
coedge $-1 $452 $237 $234 $341 forward $335 $-1 #
edge $-1 $347 4.9751170698438294 $456 19.000507976716531 $340 $457 forward 7 unknown #
coedge $-1 $458 $459 $235 $343 forward $448 $-1 #
edge $-1 $460 -26.398553137538244 $346 -22.761218554473491 $342 $461 forward 7 unknown #
edge $-1 $347 -4.2000321638171476 $460 -1.4321304723534956e-014 $236 $462 forward 7 unknown #
coedge $-1 $237 $452 $458 $463 forward $335 $-1 #
vertex $-1 $238 $464 #
vertex $-1 $238 $465 #
straight-curve $-1 -78.840681699550359 16.962929593124009 8.5556111421345271 1 0 0 I I #
coedge $-1 $349 $349 $-1 $466 reversed $241 $-1 #
edge $-1 $467 0 $467 6.2831853071796004 $242 $468 forward 7 unknown #
vertex $-1 $245 $469 #
ellipse-curve $-1 -56.665376367807482 19.76800777449855 6.7369438506021426 -0.86602541151947299 0 0.49999998660252726 0.49999998660252726 0 0.86602541151947299 1 I I #
coedge $-1 $353 $353 $-1 $470 reversed $248 $-1 #
edge $-1 $471 0 $471 6.2831853071796004 $249 $472 forward 7 unknown #
vertex $-1 $252 $473 #
ellipse-curve $-1 -56.665376367807482 23.97562504656036 6.7369438506021426 -0.86602541151947299 0 0.49999998660252726 0.49999998660252726 0 0.86602541151947299 1 I I #
coedge $-1 $357 $357 $-1 $474 reversed $255 $-1 #
edge $-1 $475 0 $475 6.2831853071796004 $256 $476 forward 7 unknown #
vertex $-1 $259 $477 #
ellipse-curve $-1 -56.665376367807482 28.18324231862217 6.7369438506021426 -0.86602541151947299 0 0.49999998660252726 0.49999998660252726 0 0.86602541151947299 1 I I #
face $-1 $-1 $275 $39 $-1 $478 reversed single #
loop $-1 $-1 $377 $260 #
plane-surface $-1 0 33.501238070090231 0 0 -1 0 0 0 -1 forward_v I I I I #
coedge $-1 $479 $375 $378 $480 forward $261 $-1 #
coedge $-1 $381 $263 $264 $369 reversed $166 $-1 #
coedge $-1 $375 $479 $263 $367 reversed $261 $-1 #
edge $-1 $382 -8.5556111421345271 $481 8.5556111421345271 $366 $482 forward 7 unknown #
coedge $-1 $265 $264 $479 $483 forward $105 $-1 #
edge $-1 $373 -57.715384380626851 $481 57.715384380626851 $365 $484 forward 7 unknown #
coedge $-1 $378 $377 $265 $371 reversed $362 $-1 #
edge $-1 $485 -57.715384380626851 $372 57.715384380626851 $370 $486 forward 7 unknown #
vertex $-1 $267 $487 #
vertex $-1 $384 $488 #
straight-curve $-1 57.715384380626851 0 -8.5556111421345271 0 -1 0 I I #
coedge $-1 $364 $366 $268 $376 reversed $261 $-1 #
edge $-1 $379 -33.501238070090231 $382 33.501238070090231 $375 $489 forward 7 unknown #
coedge $-1 $370 $269 $274 $385 forward $362 $-1 #
coedge $-1 $269 $370 $364 $480 reversed $362 $-1 #
vertex $-1 $270 $490 #
straight-curve $-1 0 33.501238070090231 8.5556111421345271 -1 0 0 I I #
coedge $-1 $271 $365 $273 $384 reversed $166 $-1 #
vertex $-1 $376 $491 #
straight-curve $-1 0 -33.501238070090231 8.5556111421345271 1 0 0 I I #
edge $-1 $276 -8.5556111421345271 $373 8.5556111421345271 $273 $492 forward 7 unknown #
edge $-1 $277 -8.5556111421345271 $372 8.5556111421345271 $274 $493 forward 7 unknown #
point $-1 57.715384380626851 -33.501238070090231 8.5556111421345271 #
point $-1 57.715384380626851 33.501238070090231 8.5556111421345271 #
loop $-1 $-1 $287 $279 #
plane-surface $-1 57.715384380626851 0 0 -1 0 0 0 0 1 forward_v I I I I #
coedge $-1 $391 $282 $284 $395 reversed $174 $-1 #
coedge $-1 $282 $390 $494 $495 reversed $174 $-1 #
coedge $-1 $290 $285 $282 $393 forward $280 $-1 #
edge $-1 $396 21.18705203908354 $496 24.585932075482681 $392 $497 forward 7 unknown #
coedge $-1 $284 $283 $399 $498 reversed $109 $-1 #
edge $-1 $499 -115.43076876125367 $396 -110.35122218123382 $390 $500 forward 7 unknown #
vertex $-1 $286 $501 #
straight-curve $-1 54.316504344227702 0.072304353754688577 8.5556111421345307 0 -1 0 I I #
coedge $-1 $494 $287 $290 $403 reversed $388 $-1 #
coedge $-1 $287 $494 $394 $498 forward $388 $-1 #
vertex $-1 $288 $502 #
straight-curve $-1 57.715384380626851 3.6080153044645638 83.900405518555871 0 0 1 I I #
straight-curve $-1 -19.522874851419957 3.6080153044645638 90.562551805064928 0.66913059716165679 0 -0.74314483375859142 I I #
edge $-1 $496 -3.3187978894458094 $291 3.6080153044645638 $398 $503 forward 7 unknown #
point $-1 57.715384380626851 3.6080153044645638 8.5556111421345271 #
point $-1 54.31650434422771 3.6080153044645638 8.5556111421345236 #
edge $-1 $504 1 $504 0 $294 $-1 forward 7 unknown #
vertex $-1 $295 $505 #
ellipse-curve $-1 54.99323854373489 -1.9334352506637309 5.7473433103865235 0.74314483375859142 0 0.66913059716165679 0.3345652985808284 0 -0.37157241687929571 1 I I #
point $-1 56.350509661008097 -1.9334352506637309 6.296619325866283 #
edge $-1 $506 1 $506 0 $298 $-1 forward 7 unknown #
vertex $-1 $299 $507 #
ellipse-curve $-1 54.99323854373489 0.14460870750938426 5.7473433103865235 0.74314483375859142 0 0.66913059716165679 0.3345652985808284 0 -0.37157241687929571 1 I I #
point $-1 56.350509661008097 0.14460870750938426 6.296619325866283 #
edge $-1 $508 1 $508 0 $302 $-1 forward 7 unknown #
vertex $-1 $303 $509 #
ellipse-curve $-1 54.99323854373489 2.2226526656824959 5.7473433103865235 0.74314483375859142 0 0.66913059716165679 0.3345652985808284 0 -0.37157241687929571 1 I I #
point $-1 56.350509661008097 2.2226526656824959 6.296619325866283 #
plane-surface $-1 0 0 8.5556111421345271 0 0 1 1 0 0 forward_v I I I I #
coedge $-1 $429 $428 $421 $510 forward $307 $-1 #
coedge $-1 $421 $309 $311 $425 reversed $203 $-1 #
coedge $-1 $309 $420 $419 $510 reversed $203 $-1 #
coedge $-1 $317 $312 $309 $423 forward $318 $-1 #
edge $-1 $426 -23.225313344562259 $511 -21.125297318923508 $422 $512 forward 7 unknown #
coedge $-1 $311 $310 $429 $513 reversed $128 $-1 #
edge $-1 $514 1.4321304723534956e-014 $426 4.2000321638171476 $420 $515 forward 7 unknown #
vertex $-1 $313 $516 #
straight-curve $-1 -55.615368354988107 -11.987812523280182 8.5556111421345253 0 1 0 I I #
coedge $-1 $419 $314 $317 $433 reversed $307 $-1 #
coedge $-1 $314 $419 $424 $513 forward $307 $-1 #
vertex $-1 $315 $517 #
straight-curve $-1 -57.715384380626851 -30.988320499996714 31.316829696608018 0 0 1 I I #
straight-curve $-1 -57.715384380626858 -30.988320499996714 4.9182765590697599 -0.49999998660252726 0 -0.86602541151947299 I I #
edge $-1 $511 16.962929593124013 $319 30.988320499996714 $428 $518 forward 7 unknown #
point $-1 -57.715384380626851 -30.988320499996714 8.5556111421345271 #
point $-1 -55.615368354988099 -30.988320499996714 8.5556111421345271 #
edge $-1 $519 1 $519 0 $322 $-1 forward 7 unknown #
vertex $-1 $323 $520 #
ellipse-curve $-1 -53.676535470346877 -28.183242318622174 5.0113358155384011 -0.86602541151947299 0 0.49999998660252726 0.49999998660252726 0 0.86602541151947299 1 I I #
point $-1 -56.165376381204936 -28.183242318622174 7.6029692621216087 #
edge $-1 $521 1 $521 0 $326 $-1 forward 7 unknown #
vertex $-1 $327 $522 #
ellipse-curve $-1 -53.676535470346877 -23.975625046560364 5.0113358155384011 -0.86602541151947299 0 0.49999998660252726 0.49999998660252726 0 0.86602541151947299 1 I I #
point $-1 -56.165376381204936 -23.975625046560364 7.6029692621216087 #
edge $-1 $523 1 $523 0 $330 $-1 forward 7 unknown #
vertex $-1 $331 $524 #
ellipse-curve $-1 -53.676535470346877 -19.768007774498553 5.0113358155384011 -0.86602541151947299 0 0.49999998660252726 0.49999998660252726 0 0.86602541151947299 1 I I #
point $-1 -56.165376381204936 -19.768007774498553 7.6029692621216087 #
loop $-1 $-1 $342 $334 #
plane-surface $-1 -57.715384380626851 0 0 1 0 0 0 0 -1 forward_v I I I I #
coedge $-1 $451 $337 $339 $455 reversed $232 $-1 #
coedge $-1 $337 $450 $525 $526 reversed $232 $-1 #
coedge $-1 $345 $340 $337 $453 forward $335 $-1 #
edge $-1 $456 -23.225313344562259 $527 -21.125297318923508 $452 $528 forward 7 unknown #
coedge $-1 $339 $338 $459 $529 reversed $147 $-1 #
edge $-1 $530 1.4321304723534956e-014 $456 4.2000321638171476 $450 $531 forward 7 unknown #
vertex $-1 $341 $532 #
straight-curve $-1 -55.615368354988107 11.98781252328018 8.5556111421345253 0 1 0 I I #
coedge $-1 $525 $342 $345 $463 reversed $448 $-1 #
coedge $-1 $342 $525 $454 $529 forward $448 $-1 #
vertex $-1 $343 $533 #
straight-curve $-1 -57.715384380626851 16.962929593124009 31.316829696608018 0 0 1 I I #
straight-curve $-1 -57.715384380626858 16.962929593124009 4.9182765590697599 -0.49999998660252726 0 -0.86602541151947299 I I #
edge $-1 $527 -30.988320499996711 $346 -16.962929593124009 $458 $534 forward 7 unknown #
point $-1 -57.715384380626851 16.962929593124009 8.5556111421345271 #
point $-1 -55.615368354988099 16.962929593124009 8.5556111421345271 #
edge $-1 $535 1 $535 0 $349 $-1 forward 7 unknown #
vertex $-1 $350 $536 #
ellipse-curve $-1 -53.676535470346877 19.76800777449855 5.0113358155384011 -0.86602541151947299 0 0.49999998660252726 0.49999998660252726 0 0.86602541151947299 1 I I #
point $-1 -56.165376381204936 19.76800777449855 7.6029692621216087 #
edge $-1 $537 1 $537 0 $353 $-1 forward 7 unknown #
vertex $-1 $354 $538 #
ellipse-curve $-1 -53.676535470346877 23.97562504656036 5.0113358155384011 -0.86602541151947299 0 0.49999998660252726 0.49999998660252726 0 0.86602541151947299 1 I I #
point $-1 -56.165376381204936 23.97562504656036 7.6029692621216087 #
edge $-1 $539 1 $539 0 $357 $-1 forward 7 unknown #
vertex $-1 $358 $540 #
ellipse-curve $-1 -53.676535470346877 28.18324231862217 5.0113358155384011 -0.86602541151947299 0 0.49999998660252726 0.49999998660252726 0 0.86602541151947299 1 I I #
point $-1 -56.165376381204936 28.18324231862217 7.6029692621216087 #
plane-surface $-1 57.715384380626851 0 0 -1 0 0 0 0 1 forward_v I I I I #
coedge $-1 $366 $364 $368 $483 reversed $261 $-1 #
edge $-1 $379 -8.5556111421345271 $485 8.5556111421345271 $378 $541 forward 7 unknown #
vertex $-1 $483 $542 #
straight-curve $-1 -57.715384380626851 -33.501238070090231 0 0 0 -1 I I #
edge $-1 $481 -33.501238070090231 $485 33.501238070090231 $479 $543 forward 7 unknown #
straight-curve $-1 0 -33.501238070090231 -8.5556111421345271 -1 0 0 I I #
vertex $-1 $371 $544 #
straight-curve $-1 0 33.501238070090231 -8.5556111421345271 1 0 0 I I #
point $-1 57.715384380626851 33.501238070090231 -8.5556111421345271 #
point $-1 57.715384380626851 -33.501238070090231 -8.5556111421345271 #
straight-curve $-1 -57.715384380626851 0 8.5556111421345271 0 -1 0 I I #
point $-1 -57.715384380626851 33.501238070090231 8.5556111421345271 #
point $-1 -57.715384380626851 -33.501238070090231 8.5556111421345271 #
straight-curve $-1 57.715384380626851 -33.501238070090231 0 0 0 -1 I I #
straight-curve $-1 57.715384380626851 33.501238070090231 0 0 0 -1 I I #
coedge $-1 $399 $398 $391 $495 forward $388 $-1 #
edge $-1 $496 75.344794376421348 $499 79.119633175199226 $494 $545 forward 7 unknown #
vertex $-1 $403 $546 #
straight-curve $-1 33.12945230514417 -3.3187978894458094 8.5556111421345236 1 0 0 I I #
edge $-1 $499 -3.391102243200498 $400 3.5357109507098752 $399 $547 forward 7 unknown #
vertex $-1 $498 $548 #
straight-curve $-1 -19.522874851419957 -3.3187978894458094 90.562551805064928 -0.66913059716165679 0 0.74314483375859142 I I #
point $-1 54.31650434422771 -3.3187978894458094 8.5556111421345236 #
point $-1 57.715384380626844 3.6080153044645638 4.7807723433566451 #
straight-curve $-1 57.715384380626851 0 8.5556111421345271 0 1 0 I I #
vertex $-1 $406 $549 #
point $-1 55.327803842315724 -1.9334352506637309 5.3757708935072275 #
vertex $-1 $410 $550 #
point $-1 55.327803842315724 0.14460870750938426 5.3757708935072275 #
vertex $-1 $414 $551 #
point $-1 55.327803842315724 2.2226526656824959 5.3757708935072275 #
edge $-1 $511 22.761218554473491 $514 26.398553137538244 $419 $552 forward 7 unknown #
vertex $-1 $433 $553 #
straight-curve $-1 -78.840681699550359 -16.962929593124013 8.5556111421345271 -1 0 0 I I #
edge $-1 $514 4.9751170698438312 $430 19.000507976716534 $429 $554 forward 7 unknown #
vertex $-1 $513 $555 #
straight-curve $-1 -57.715384380626858 -16.962929593124013 4.9182765590697599 0.49999998660252726 0 0.86602541151947299 I I #
point $-1 -55.615368354988099 -16.962929593124013 8.5556111421345271 #
point $-1 -57.715384380626851 -30.988320499996714 4.9182765590697723 #
straight-curve $-1 -57.715384380626851 0 8.5556111421345271 0 -1 0 I I #
vertex $-1 $436 $556 #
point $-1 -53.176535483744352 -28.183242318622174 5.8773612270578743 #
vertex $-1 $440 $557 #
point $-1 -53.176535483744352 -23.975625046560364 5.8773612270578743 #
vertex $-1 $444 $558 #
point $-1 -53.176535483744352 -19.768007774498553 5.8773612270578743 #
coedge $-1 $459 $458 $451 $526 forward $448 $-1 #
edge $-1 $527 22.761218554473491 $530 26.398553137538244 $525 $559 forward 7 unknown #
vertex $-1 $463 $560 #
straight-curve $-1 -78.840681699550359 30.988320499996711 8.5556111421345271 -1 0 0 I I #
edge $-1 $530 -19.000507976716531 $460 -4.9751170698438294 $459 $561 forward 7 unknown #
vertex $-1 $529 $562 #
straight-curve $-1 -57.715384380626858 30.988320499996711 4.9182765590697599 0.49999998660252726 0 0.86602541151947299 I I #
point $-1 -55.615368354988099 30.988320499996711 8.5556111421345271 #
point $-1 -57.715384380626851 16.962929593124009 4.9182765590697723 #
straight-curve $-1 -57.715384380626851 0 8.5556111421345271 0 -1 0 I I #
vertex $-1 $466 $563 #
point $-1 -53.176535483744352 19.76800777449855 5.8773612270578743 #
vertex $-1 $470 $564 #
point $-1 -53.176535483744352 23.97562504656036 5.8773612270578743 #
vertex $-1 $474 $565 #
point $-1 -53.176535483744352 28.18324231862217 5.8773612270578743 #
straight-curve $-1 -57.715384380626851 33.501238070090231 0 0 0 -1 I I #
point $-1 -57.715384380626851 -33.501238070090231 -8.5556111421345271 #
straight-curve $-1 -57.715384380626851 0 -8.5556111421345271 0 1 0 I I #
point $-1 -57.715384380626851 33.501238070090231 -8.5556111421345271 #
straight-curve $-1 57.715384380626851 -3.3187978894458094 83.900405518555871 0 0 -1 I I #
point $-1 57.715384380626851 -3.3187978894458094 8.5556111421345271 #
straight-curve $-1 57.715384380626858 0.072304353754688577 4.7807723433566309 0 1 0 I I #
point $-1 57.715384380626844 -3.3187978894458094 4.7807723433566451 #
point $-1 54.621666126855601 -1.9334352506637309 5.4127780118056945 #
point $-1 54.621666126855601 0.14460870750938426 5.4127780118056945 #
point $-1 54.621666126855601 2.2226526656824959 5.4127780118056945 #
straight-curve $-1 -57.715384380626851 -16.962929593124013 31.316829696608018 0 0 -1 I I #
point $-1 -57.715384380626851 -16.962929593124013 8.5556111421345271 #
straight-curve $-1 -57.715384380626851 -11.987812523280182 4.9182765590697777 0 -1 0 I I #
point $-1 -57.715384380626851 -16.962929593124013 4.9182765590697723 #
point $-1 -52.810510058827404 -28.183242318622174 4.5113358289358745 #
point $-1 -52.810510058827404 -23.975625046560364 4.5113358289358745 #
point $-1 -52.810510058827404 -19.768007774498553 4.5113358289358745 #
straight-curve $-1 -57.715384380626851 30.988320499996711 31.316829696608018 0 0 -1 I I #
point $-1 -57.715384380626851 30.988320499996711 8.5556111421345271 #
straight-curve $-1 -57.715384380626851 11.98781252328018 4.9182765590697777 0 -1 0 I I #
point $-1 -57.715384380626851 30.988320499996711 4.9182765590697723 #
point $-1 -52.810510058827404 19.76800777449855 4.5113358289358745 #
point $-1 -52.810510058827404 23.97562504656036 4.5113358289358745 #
point $-1 -52.810510058827404 28.18324231862217 4.5113358289358745 #
End-of-ACIS-data 