500 0 4 0           
7 Unknown 11 ACIS 5.0 NT 24 Thu Mar 25 18:33:44 1999 
-1 9.9999999999999995e-007 1e-010 
body $-1 $4 $-1 $5 #
body $-1 $6 $-1 $7 #
body $-1 $8 $-1 $9 #
body $-1 $10 $-1 $11 #
lump $-1 $-1 $12 $0 #
transform $-1 1 0 0 0 1 0 0 0 1 61.449629200109868 38.318111167676165 18.811038680139227 1 rotate no_reflect no_shear #
lump $-1 $-1 $13 $1 #
transform $-1 1 0 0 0 1 0 0 0 1 61.449629200109868 38.318111167676165 18.811038680139227 1 rotate no_reflect no_shear #
lump $-1 $-1 $14 $2 #
transform $-1 1 0 0 0 1 0 0 0 1 61.449629200109868 38.318111167676165 18.811038680139227 1 rotate no_reflect no_shear #
lump $-1 $-1 $15 $3 #
transform $-1 1 0 0 0 1 0 0 0 1 61.449629200109868 38.318111167676165 18.811038680139227 1 rotate no_reflect no_shear #
shell $-1 $-1 $-1 $16 $-1 $4 #
shell $-1 $-1 $-1 $17 $-1 $6 #
shell $-1 $-1 $-1 $18 $-1 $8 #
shell $-1 $-1 $-1 $19 $-1 $10 #
face $-1 $20 $21 $12 $-1 $22 forward single #
face $-1 $23 $24 $13 $-1 $25 forward single #
face $-1 $26 $27 $14 $-1 $28 reversed single #
face $-1 $29 $30 $15 $-1 $31 forward single #
face $-1 $32 $33 $12 $-1 $34 reversed single #
loop $-1 $-1 $35 $16 #
plane-surface $-1 0 0 18.811038680139227 0 0 1 1 0 0 forward_v I I I I #
face $-1 $36 $37 $13 $-1 $38 reversed single #
loop $-1 $-1 $39 $17 #
plane-surface $-1 -61.449629200109868 0 0 1 0 0 0 0 -1 forward_v I I I I #
face $-1 $40 $41 $14 $-1 $42 reversed single #
loop $-1 $-1 $43 $18 #
plane-surface $-1 -7.2484900383984154 51.076324070624253 151.60119723574678 1 0 0 0 -0.6018150307709319 -0.79863550430605224 forward_v I I I I #
face $-1 $44 $45 $15 $-1 $46 forward single #
loop $-1 $47 $48 $19 #
cone-surface $-1 -2.2173817803390818 28.631867947870163 10.326281759417327 0 -0.6018150307709319 -0.79863550430605224 2.5 0 0 1 I I 0 1 2.5 forward I I I I #
face $-1 $49 $50 $12 $-1 $51 reversed single #
loop $-1 $-1 $52 $20 #
plane-surface $-1 0 0 -18.811038680139227 0 0 1 1 0 0 forward_v I I I I #
coedge $-1 $53 $54 $55 $56 forward $21 $-1 #
face $-1 $57 $58 $13 $-1 $59 forward single #
loop $-1 $-1 $60 $23 #
plane-surface $-1 0 38.318111167676165 0 0 -1 0 0 0 -1 forward_v I I I I #
coedge $-1 $61 $62 $63 $64 forward $24 $-1 #
face $-1 $65 $66 $14 $-1 $67 reversed single #
loop $-1 $-1 $68 $26 #
plane-surface $-1 -2.2173817803390747 -22.886296905228704 53.449486024447467 0 0.6018150307709319 0.79863550430605224 1 0 0 forward_v I I I I #
coedge $-1 $69 $70 $71 $72 reversed $27 $-1 #
face $-1 $-1 $73 $15 $-1 $74 forward single #
loop $-1 $75 $76 $29 #
cone-surface $-1 -2.2173817803390818 25.812174343624463 6.5844220376177631 0 -0.6018150307709319 -0.79863550430605224 1.25 0 0 1 I I -0.70710678118654746 0.70710678118654746 1.25 forward I I I I #
loop $-1 $-1 $77 $19 #
coedge $-1 $48 $48 $78 $79 reversed $30 $-1 #
face $-1 $80 $81 $12 $-1 $82 reversed single #
loop $-1 $-1 $83 $32 #
plane-surface $-1 0 -38.318111167676165 0 0 1 0 0 0 1 forward_v I I I I #
coedge $-1 $84 $85 $86 $87 forward $33 $-1 #
coedge $-1 $88 $35 $89 $90 forward $21 $-1 #
coedge $-1 $35 $88 $91 $92 forward $21 $-1 #
coedge $-1 $93 $94 $35 $56 reversed $95 $-1 #
edge $-1 $96 -38.318111167676165 $97 38.318111167676165 $55 $98 forward 7 unknown #
face $-1 $99 $100 $13 $-1 $101 reversed single #
loop $-1 $-1 $63 $36 #
plane-surface $-1 -73.335407556339433 0 -11.547331316924367 0 0 1 1 0 0 forward_v I I I I #
coedge $-1 $102 $103 $62 $104 forward $37 $-1 #
coedge $-1 $105 $39 $106 $107 reversed $24 $-1 #
coedge $-1 $39 $105 $60 $104 reversed $24 $-1 #
coedge $-1 $108 $109 $39 $64 reversed $58 $-1 #
edge $-1 $110 -38.318111167676165 $111 38.318111167676165 $63 $112 forward 7 unknown #
face $-1 $113 $114 $14 $-1 $115 forward single #
loop $-1 $-1 $116 $40 #
plane-surface $-1 2.813726477720266 51.076324070624253 151.60119723574678 -1 0 0 0 0.6018150307709319 0.79863550430605224 forward_v I I I I #
coedge $-1 $117 $118 $119 $120 reversed $41 $-1 #
coedge $-1 $70 $43 $121 $122 reversed $27 $-1 #
coedge $-1 $43 $69 $117 $123 reversed $27 $-1 #
coedge $-1 $119 $124 $43 $72 forward $114 $-1 #
edge $-1 $125 -12.779949132364038 $126 2.4576876756839212 $71 $127 forward 7 unknown #
loop $-1 $-1 $78 $44 #
plane-surface $-1 -2.2173817803390747 -22.886296905228704 53.449486024447467 0 0.6018150307709319 0.79863550430605224 1 0 0 forward_v I I I I #
loop $-1 $-1 $128 $29 #
coedge $-1 $76 $76 $77 $129 reversed $45 $-1 #
coedge $-1 $77 $77 $76 $129 forward $47 $-1 #
coedge $-1 $78 $78 $48 $79 forward $73 $-1 #
edge $-1 $130 4.1148084792993016e-016 $130 6.2831853071796004 $78 $131 forward 7 unknown #
face $-1 $132 $133 $12 $-1 $134 reversed single #
loop $-1 $-1 $135 $49 #
plane-surface $-1 -61.449629200109868 0 0 1 0 0 0 0 -1 forward_v I I I I #
coedge $-1 $136 $91 $135 $137 forward $50 $-1 #
coedge $-1 $138 $52 $136 $139 forward $33 $-1 #
coedge $-1 $52 $138 $140 $141 forward $33 $-1 #
coedge $-1 $94 $93 $52 $87 reversed $95 $-1 #
edge $-1 $142 -38.318111167676165 $143 38.318111167676165 $86 $144 forward 7 unknown #
coedge $-1 $54 $53 $145 $146 forward $21 $-1 #
coedge $-1 $147 $148 $53 $90 reversed $133 $-1 #
edge $-1 $97 -61.449629200109868 $149 61.449629200109868 $89 $150 forward 7 unknown #
coedge $-1 $83 $151 $54 $92 reversed $50 $-1 #
edge $-1 $152 -61.449629200109868 $96 61.449629200109868 $91 $153 forward 7 unknown #
coedge $-1 $86 $55 $151 $154 forward $95 $-1 #
coedge $-1 $55 $86 $147 $155 reversed $95 $-1 #
loop $-1 $-1 $93 $132 #
vertex $-1 $56 $156 #
vertex $-1 $56 $157 #
straight-curve $-1 61.449629200109868 0 18.811038680139227 0 1 0 I I #
face $-1 $158 $159 $13 $-1 $160 reversed single #
loop $-1 $-1 $161 $57 #
plane-surface $-1 -73.335407556339433 0 -16.587681590183632 0 0 1 1 0 0 forward_v I I I I #
coedge $-1 $162 $60 $163 $164 reversed $37 $-1 #
coedge $-1 $60 $162 $108 $165 reversed $37 $-1 #
edge $-1 $110 11.547331316924367 $166 16.587681590183632 $60 $167 forward 7 unknown #
coedge $-1 $62 $61 $161 $168 forward $24 $-1 #
coedge $-1 $169 $170 $61 $107 forward $171 $-1 #
edge $-1 $172 -16.587681590183632 $111 -11.547331316924367 $106 $173 forward 7 unknown #
coedge $-1 $174 $63 $103 $165 forward $58 $-1 #
coedge $-1 $63 $174 $169 $175 forward $58 $-1 #
vertex $-1 $104 $176 #
vertex $-1 $175 $177 #
straight-curve $-1 -61.449629200109868 0 -11.547331316924367 0 -1 0 I I #
face $-1 $-1 $178 $14 $-1 $179 reversed single #
loop $-1 $-1 $71 $65 #
plane-surface $-1 0 0 18.811038680139227 0 0 1 1 0 0 forward_v I I I I #
coedge $-1 $180 $181 $182 $183 reversed $66 $-1 #
coedge $-1 $184 $68 $70 $123 forward $41 $-1 #
coedge $-1 $68 $184 $180 $185 forward $41 $-1 #
coedge $-1 $182 $71 $68 $120 forward $114 $-1 #
edge $-1 $126 -6.1397991482288781 $186 3.9224173678898033 $119 $187 forward 7 unknown #
coedge $-1 $188 $189 $69 $122 forward $178 $-1 #
edge $-1 $190 -68.471943096343978 $125 -56.989559937734164 $121 $191 forward 7 unknown #
edge $-1 $126 57.556633804802118 $190 76.636222335352372 $70 $192 forward 7 unknown #
coedge $-1 $71 $182 $188 $193 forward $114 $-1 #
vertex $-1 $122 $194 #
vertex $-1 $72 $195 #
straight-curve $-1 -7.2484900383984154 25.538162035312126 18.811038680139234 0 -1 0 I I #
coedge $-1 $128 $128 $-1 $196 reversed $75 $-1 #
edge $-1 $197 0 $197 6.2831853071796004 $76 $198 forward 7 unknown #
vertex $-1 $79 $199 #
ellipse-curve $-1 -2.2173817803390818 30.699292763652188 13.069847100834314 0 0.6018150307709319 0.79863550430605224 2.5 0 0 1 I I #
face $-1 $-1 $95 $12 $-1 $200 reversed single #
loop $-1 $-1 $147 $80 #
plane-surface $-1 0 38.318111167676165 0 0 -1 0 0 0 -1 forward_v I I I I #
coedge $-1 $145 $201 $83 $137 reversed $81 $-1 #
coedge $-1 $151 $83 $84 $139 reversed $50 $-1 #
edge $-1 $152 -18.811038680139227 $202 18.811038680139227 $135 $203 forward 7 unknown #
coedge $-1 $85 $84 $201 $204 forward $33 $-1 #
edge $-1 $143 -61.449629200109868 $202 61.449629200109868 $136 $205 forward 7 unknown #
coedge $-1 $148 $147 $85 $141 reversed $133 $-1 #
edge $-1 $206 -61.449629200109868 $142 61.449629200109868 $140 $207 forward 7 unknown #
vertex $-1 $87 $208 #
vertex $-1 $154 $209 #
straight-curve $-1 61.449629200109868 0 -18.811038680139227 0 -1 0 I I #
coedge $-1 $210 $135 $88 $146 reversed $81 $-1 #
edge $-1 $149 -38.318111167676165 $152 38.318111167676165 $145 $211 forward 7 unknown #
coedge $-1 $140 $89 $94 $155 forward $133 $-1 #
coedge $-1 $89 $140 $210 $212 reversed $133 $-1 #
vertex $-1 $90 $213 #
straight-curve $-1 0 38.318111167676165 18.811038680139227 -1 0 0 I I #
coedge $-1 $91 $136 $93 $154 reversed $50 $-1 #
vertex $-1 $146 $214 #
straight-curve $-1 0 -38.318111167676165 18.811038680139227 1 0 0 I I #
edge $-1 $96 -18.811038680139227 $143 18.811038680139227 $93 $215 forward 7 unknown #
edge $-1 $97 -18.811038680139227 $142 18.811038680139227 $94 $216 forward 7 unknown #
point $-1 61.449629200109868 -38.318111167676165 18.811038680139227 #
point $-1 61.449629200109868 38.318111167676165 18.811038680139227 #
face $-1 $-1 $171 $13 $-1 $217 reversed single #
loop $-1 $-1 $218 $99 #
plane-surface $-1 -85.221185912568998 0 -14.067506453554 1 0 0 0 0 -1 forward_v I I I I #
coedge $-1 $219 $163 $105 $168 reversed $100 $-1 #
coedge $-1 $103 $102 $218 $220 reversed $37 $-1 #
coedge $-1 $161 $221 $102 $164 forward $100 $-1 #
edge $-1 $222 -11.885778356229565 $166 11.885778356229565 $102 $223 forward 7 unknown #
edge $-1 $110 -11.885778356229565 $224 11.885778356229565 $103 $225 forward 7 unknown #
vertex $-1 $104 $226 #
straight-curve $-1 -61.449629200109868 38.318111167676165 0 0 0 -1 I I #
edge $-1 $172 -38.318111167676165 $166 38.318111167676165 $161 $227 forward 7 unknown #
coedge $-1 $228 $106 $109 $175 reversed $171 $-1 #
coedge $-1 $106 $228 $219 $229 reversed $171 $-1 #
loop $-1 $-1 $106 $158 #
vertex $-1 $107 $230 #
straight-curve $-1 -61.449629200109868 -38.318111167676165 0 0 0 1 I I #
coedge $-1 $109 $108 $231 $232 forward $58 $-1 #
edge $-1 $233 -11.885778356229565 $111 11.885778356229565 $169 $234 forward 7 unknown #
point $-1 -61.449629200109868 38.318111167676165 -11.547331316924367 #
point $-1 -61.449629200109868 -38.318111167676165 -11.547331316924367 #
loop $-1 $-1 $121 $113 #
plane-surface $-1 0 38.318111167676165 0 0 -1 0 0 0 -1 forward_v I I I I #
coedge $-1 $181 $116 $118 $185 reversed $66 $-1 #
coedge $-1 $116 $180 $235 $236 reversed $66 $-1 #
coedge $-1 $124 $119 $116 $183 forward $114 $-1 #
edge $-1 $186 -2.4576876756839212 $237 12.779949132364038 $182 $238 forward 7 unknown #
coedge $-1 $118 $117 $189 $239 reversed $41 $-1 #
edge $-1 $240 -76.636222335352372 $186 -57.556633804802118 $180 $241 forward 7 unknown #
vertex $-1 $120 $242 #
straight-curve $-1 -1.1086908901695374 23.080474359628198 18.81103868013923 1 0 0 I I #
coedge $-1 $235 $121 $124 $193 reversed $178 $-1 #
coedge $-1 $121 $235 $184 $239 forward $178 $-1 #
vertex $-1 $122 $243 #
straight-curve $-1 -7.2484900383984154 38.318111167676165 75.800598617873391 0 0 1 I I #
straight-curve $-1 -7.2484900383984154 -22.886296905228704 53.449486024447467 0 0.79863550430605224 -0.6018150307709319 I I #
edge $-1 $237 -2.813726477720266 $125 7.2484900383984154 $188 $244 forward 7 unknown #
point $-1 -7.2484900383984154 38.318111167676165 18.811038680139227 #
point $-1 -7.2484900383984154 23.080474359628205 18.811038680139227 #
edge $-1 $245 1 $245 0 $128 $-1 forward 7 unknown #
vertex $-1 $129 $246 #
ellipse-curve $-1 -2.2173817803390818 26.564443132088126 7.5827164180003281 0 0.6018150307709319 0.79863550430605224 2.5 0 0 1 I I #
point $-1 0.28261821966091816 30.699292763652199 13.069847100834327 #
plane-surface $-1 61.449629200109868 0 0 -1 0 0 0 0 1 forward_v I I I I #
coedge $-1 $135 $210 $138 $204 reversed $81 $-1 #
vertex $-1 $204 $247 #
straight-curve $-1 -61.449629200109868 -38.318111167676165 0 0 0 -1 I I #
edge $-1 $202 -38.318111167676165 $206 38.318111167676165 $201 $248 forward 7 unknown #
straight-curve $-1 0 -38.318111167676165 -18.811038680139227 -1 0 0 I I #
vertex $-1 $141 $249 #
straight-curve $-1 0 38.318111167676165 -18.811038680139227 1 0 0 I I #
point $-1 61.449629200109868 38.318111167676165 -18.811038680139227 #
point $-1 61.449629200109868 -38.318111167676165 -18.811038680139227 #
coedge $-1 $201 $145 $148 $212 forward $81 $-1 #
straight-curve $-1 -61.449629200109868 0 18.811038680139227 0 -1 0 I I #
edge $-1 $149 -18.811038680139227 $206 18.811038680139227 $148 $250 forward 7 unknown #
point $-1 -61.449629200109868 38.318111167676165 18.811038680139227 #
point $-1 -61.449629200109868 -38.318111167676165 18.811038680139227 #
straight-curve $-1 61.449629200109868 -38.318111167676165 0 0 0 -1 I I #
straight-curve $-1 61.449629200109868 38.318111167676165 0 0 0 -1 I I #
plane-surface $-1 0 -38.318111167676165 0 0 1 0 0 0 1 forward_v I I I I #
coedge $-1 $251 $231 $162 $220 forward $159 $-1 #
coedge $-1 $221 $161 $170 $229 forward $100 $-1 #
edge $-1 $224 -2.5201751366296321 $222 2.5201751366296321 $162 $252 forward 7 unknown #
coedge $-1 $163 $219 $251 $253 forward $100 $-1 #
vertex $-1 $164 $254 #
straight-curve $-1 -73.335407556339433 38.318111167676165 -16.587681590183632 1 0 0 I I #
vertex $-1 $165 $255 #
straight-curve $-1 -73.335407556339433 38.318111167676165 -11.547331316924367 -1 0 0 I I #
point $-1 -61.449629200109868 38.318111167676165 -16.587681590183632 #
straight-curve $-1 -61.449629200109868 0 -16.587681590183632 0 1 0 I I #
coedge $-1 $170 $169 $256 $257 forward $171 $-1 #
edge $-1 $172 -11.885778356229565 $258 11.885778356229565 $170 $259 forward 7 unknown #
point $-1 -61.449629200109868 -38.318111167676165 -16.587681590183632 #
coedge $-1 $218 $256 $174 $232 reversed $159 $-1 #
edge $-1 $224 -38.318111167676165 $233 38.318111167676165 $231 $260 forward 7 unknown #
vertex $-1 $232 $261 #
straight-curve $-1 -73.335407556339433 -38.318111167676165 -11.547331316924367 1 0 0 I I #
coedge $-1 $189 $188 $181 $236 forward $178 $-1 #
edge $-1 $237 56.989559937734164 $240 68.471943096343978 $235 $262 forward 7 unknown #
vertex $-1 $193 $263 #
straight-curve $-1 2.813726477720266 25.538162035312126 18.811038680139234 0 1 0 I I #
edge $-1 $240 -3.9224173678898033 $190 6.1397991482288781 $189 $264 forward 7 unknown #
vertex $-1 $239 $265 #
straight-curve $-1 2.813726477720266 -22.886296905228704 53.449486024447467 0 -0.79863550430605224 0.6018150307709319 I I #
point $-1 2.813726477720266 23.080474359628205 18.811038680139227 #
point $-1 -7.2484900383984154 38.318111167676172 7.3286555215294058 #
straight-curve $-1 0 38.318111167676165 18.811038680139227 -1 0 0 I I #
vertex $-1 $196 $266 #
point $-1 0.28261821966091816 26.564443132088126 7.5827164180003281 #
point $-1 -61.449629200109868 -38.318111167676165 -18.811038680139227 #
straight-curve $-1 -61.449629200109868 0 -18.811038680139227 0 1 0 I I #
point $-1 -61.449629200109868 38.318111167676165 -18.811038680139227 #
straight-curve $-1 -61.449629200109868 38.318111167676165 0 0 0 -1 I I #
coedge $-1 $256 $218 $221 $253 reversed $159 $-1 #
straight-curve $-1 -85.221185912568998 38.318111167676165 -14.067506453554 0 0 -1 I I #
edge $-1 $258 -38.318111167676165 $222 38.318111167676165 $251 $267 forward 7 unknown #
point $-1 -85.221185912568998 38.318111167676165 -16.587681590183632 #
point $-1 -85.221185912568998 38.318111167676165 -11.547331316924367 #
coedge $-1 $231 $251 $228 $257 reversed $159 $-1 #
edge $-1 $233 -2.5201751366296321 $258 2.5201751366296321 $256 $268 forward 7 unknown #
vertex $-1 $253 $269 #
straight-curve $-1 -73.335407556339433 -38.318111167676165 -16.587681590183632 -1 0 0 I I #
straight-curve $-1 -85.221185912568998 0 -11.547331316924367 0 -1 0 I I #
point $-1 -85.221185912568998 -38.318111167676165 -11.547331316924367 #
straight-curve $-1 2.813726477720266 38.318111167676165 75.800598617873391 0 0 -1 I I #
point $-1 2.813726477720266 38.318111167676165 18.811038680139227 #
straight-curve $-1 -1.1086908901695374 38.318111167676157 7.3286555215294165 -1 0 0 I I #
point $-1 2.813726477720266 38.318111167676172 7.3286555215294058 #
point $-1 -2.2173817803390818 25.0599055551608 5.5861276572351981 #
straight-curve $-1 -85.221185912568998 0 -16.587681590183632 0 1 0 I I #
straight-curve $-1 -85.221185912568998 -38.318111167676165 -14.067506453554 0 0 -1 I I #
point $-1 -85.221185912568998 -38.318111167676165 -16.587681590183632 #
End-of-ACIS-data 