600 0 9 0           
107 GICL ACIS Healer - Source: /gicl/data5/repository/Drexel/CICIRELLO-THESISDATA/Part10016.smdg.feat.sat - 6 0 18 ACIS 6.0.3 Solaris 24 Fri Apr 12 10:31:10 2002 
1 9.999999999999999547e-07 1.000000000000000036e-10 
body $-1 $9 $-1 $-1 #
body $-1 $10 $-1 $-1 #
body $-1 $11 $-1 $-1 #
body $-1 $12 $-1 $-1 #
body $-1 $13 $-1 $-1 #
body $-1 $14 $-1 $-1 #
body $-1 $15 $-1 $-1 #
body $-1 $16 $-1 $-1 #
body $-1 $17 $-1 $-1 #
lump $-1 $-1 $18 $0 #
lump $-1 $-1 $19 $1 #
lump $-1 $-1 $20 $2 #
lump $-1 $-1 $21 $3 #
lump $-1 $-1 $22 $4 #
lump $-1 $-1 $23 $5 #
lump $-1 $-1 $24 $6 #
lump $-1 $-1 $25 $7 #
lump $-1 $-1 $26 $8 #
shell $-1 $-1 $-1 $27 $-1 $9 #
shell $-1 $-1 $-1 $28 $-1 $10 #
shell $-1 $-1 $-1 $29 $-1 $11 #
shell $-1 $-1 $-1 $30 $-1 $12 #
shell $-1 $-1 $-1 $31 $-1 $13 #
shell $-1 $-1 $-1 $32 $-1 $14 #
shell $-1 $-1 $-1 $33 $-1 $15 #
shell $-1 $-1 $-1 $34 $-1 $16 #
shell $-1 $-1 $-1 $35 $-1 $17 #
face $-1 $36 $37 $18 $-1 $38 forward single #
face $-1 $39 $40 $19 $-1 $41 forward single #
face $-1 $42 $43 $20 $-1 $44 forward single #
face $-1 $45 $46 $21 $-1 $47 forward single #
face $-1 $48 $49 $22 $-1 $50 forward single #
face $-1 $51 $52 $23 $-1 $53 forward single #
face $-1 $54 $55 $24 $-1 $56 forward single #
face $-1 $57 $58 $25 $-1 $59 forward single #
face $-1 $60 $61 $26 $-1 $62 forward single #
face $-1 $63 $64 $18 $-1 $65 reversed single #
loop $-1 $-1 $66 $27 #
plane-surface $-1 79.8779259620960147 32.11571886356522043 16.64465959303070974 0 0 1 1 0 0 forward_v I I I I #
face $-1 $67 $68 $19 $-1 $69 reversed single #
loop $-1 $-1 $70 $28 #
plane-surface $-1 79.8779259620960147 -4.647630181291209972 16.64465959303070974 0 0 1 1 0 0 forward_v I I I I #
face $-1 $71 $72 $20 $-1 $73 reversed single #
loop $-1 $-1 $74 $29 #
plane-surface $-1 79.8779259620960147 68.8790679084216606 16.64465959303070974 0 0 1 1 0 0 forward_v I I I I #
face $-1 $75 $76 $21 $-1 $77 reversed single #
loop $-1 $-1 $78 $30 #
plane-surface $-1 351.350494810453597 50.98635147090546127 311.7592714837848007 0.8571673085369920786 0 0.5150380618706241753 0.5150380618706241753 0 -0.8571673085369920786 forward_v I I I I #
face $-1 $79 $80 $22 $-1 $81 forward single #
loop $-1 $82 $83 $31 #
cone-surface $-1 157.357719949353509 49.29356894505865228 13.16427262292018163 -0.8571673085369920786 0 -0.5150380618706241753 0.2575190309353120877 0 -0.4285836542684960393 1 I I 0 1 0.5 forward I I I I #
face $-1 $84 $85 $23 $-1 $86 forward single #
loop $-1 $87 $88 $32 #
cone-surface $-1 157.357719949353509 52.67913399675227737 13.16427262292018163 -0.8571673085369920786 0 -0.5150380618706241753 0.2575190309353120877 0 -0.4285836542684960393 1 I I 0 1 0.5 forward I I I I #
face $-1 $89 $90 $24 $-1 $91 reversed single #
loop $-1 $-1 $92 $33 #
plane-surface $-1 -255.173395196678598 48.24040152579001983 202.9289264808137432 -0.7986355182712320255 0 0.6018150122385121925 0.6018150122385121925 0 0.7986355182712320255 forward_v I I I I #
face $-1 $93 $94 $25 $-1 $95 forward single #
loop $-1 $96 $97 $34 #
cone-surface $-1 4.518337991752751748 45.37078330917945124 11.94280122589048254 0.7986355182712320255 0 -0.6018150122385121925 0.9027225183577682888 0 1.197953277406847983 1 I I 0 1 1.5 forward I I I I #
face $-1 $98 $99 $26 $-1 $100 forward single #
loop $-1 $101 $102 $35 #
cone-surface $-1 4.518337991752751748 51.11001974240059553 11.94280122589048254 0.7986355182712320255 0 -0.6018150122385121925 0.9027225183577682888 0 1.197953277406847983 1 I I 0 1 1.5 forward I I I I #
face $-1 $103 $104 $18 $-1 $105 reversed single #
loop $-1 $-1 $106 $36 #
plane-surface $-1 79.8779259620960147 32.11571886356522043 0 0 0 1 1 0 0 forward_v I I I I #
coedge $-1 $107 $108 $109 $110 forward $37 $-1 #
face $-1 $111 $112 $19 $-1 $113 reversed single #
loop $-1 $-1 $114 $39 #
plane-surface $-1 79.8779259620960147 -4.647630181291209972 12.29425039619874838 0 0 1 1 0 0 forward_v I I I I #
coedge $-1 $115 $116 $117 $118 forward $40 $-1 #
face $-1 $119 $120 $20 $-1 $121 reversed single #
loop $-1 $-1 $122 $42 #
plane-surface $-1 79.8779259620960147 68.8790679084216606 12.29425039619874838 0 0 1 1 0 0 forward_v I I I I #
coedge $-1 $123 $124 $125 $126 forward $43 $-1 #
face $-1 $127 $128 $21 $-1 $129 reversed single #
loop $-1 $-1 $130 $45 #
plane-surface $-1 77.47550757666570576 50.98635147090546127 147.1985827887322387 0.8571673085369920786 0 0.5150380618706241753 0.5150380618706241753 0 -0.8571673085369920786 forward_v I I I I #
coedge $-1 $131 $132 $133 $134 forward $46 $-1 #
face $-1 $-1 $135 $22 $-1 $136 forward single #
loop $-1 $-1 $137 $48 #
plane-surface $-1 157.8380339528340812 49.29356894505865228 13.45287438243452627 0.8571673085369920786 0 0.5150380618706241753 -0.5150380618706241753 0 0.8571673085369920786 forward_v I I I I #
loop $-1 $-1 $138 $31 #
coedge $-1 $83 $83 $137 $139 reversed $49 $-1 #
face $-1 $-1 $140 $23 $-1 $141 forward single #
loop $-1 $-1 $142 $51 #
plane-surface $-1 157.8380339528340812 52.67913399675227737 13.45287438243452627 0.8571673085369920786 0 0.5150380618706241753 -0.5150380618706241753 0 0.8571673085369920786 forward_v I I I I #
loop $-1 $-1 $143 $32 #
coedge $-1 $88 $88 $142 $144 reversed $52 $-1 #
face $-1 $145 $146 $24 $-1 $147 reversed single #
loop $-1 $-1 $148 $54 #
plane-surface $-1 0 48.24040152579001983 10.64198651895060266 -0.7986355182712320255 0 0.6018150122385121925 0.6018150122385121925 0 0.7986355182712320255 forward_v I I I I #
coedge $-1 $149 $150 $151 $152 forward $55 $-1 #
face $-1 $-1 $153 $25 $-1 $154 forward single #
loop $-1 $-1 $155 $57 #
plane-surface $-1 2.261669238904568502 45.37078330917945124 13.64332305599065798 -0.7986355182712320255 0 0.6018150122385121925 -0.6018150122385121925 0 -0.7986355182712320255 forward_v I I I I #
loop $-1 $-1 $156 $34 #
coedge $-1 $97 $97 $155 $157 reversed $58 $-1 #
face $-1 $-1 $158 $26 $-1 $159 forward single #
loop $-1 $-1 $160 $60 #
plane-surface $-1 2.261669238904568502 51.11001974240059553 13.64332305599065798 -0.7986355182712320255 0 0.6018150122385121925 -0.6018150122385121925 0 -0.7986355182712320255 forward_v I I I I #
loop $-1 $-1 $161 $35 #
coedge $-1 $102 $102 $160 $162 reversed $61 $-1 #
face $-1 $163 $164 $18 $-1 $165 reversed single #
loop $-1 $-1 $166 $63 #
plane-surface $-1 79.8779259620960147 0 8.322329796515354872 0 1 0 0 0 1 forward_v I I I I #
coedge $-1 $167 $168 $169 $170 forward $64 $-1 #
coedge $-1 $171 $66 $172 $173 forward $37 $-1 #
coedge $-1 $66 $171 $174 $175 forward $37 $-1 #
coedge $-1 $176 $177 $66 $110 reversed $178 $-1 #
edge $-1 $179 -32.11571886356522043 $180 32.11571886356522043 $109 $181 forward 7 unknown #
face $-1 $182 $183 $19 $-1 $184 reversed single #
loop $-1 $-1 $185 $67 #
plane-surface $-1 79.8779259620960147 -9.295260362582419944 14.46945499461472906 0 1 0 0 0 1 forward_v I I I I #
coedge $-1 $186 $187 $188 $189 forward $68 $-1 #
coedge $-1 $190 $70 $191 $192 forward $40 $-1 #
coedge $-1 $70 $190 $193 $194 forward $40 $-1 #
coedge $-1 $195 $196 $70 $118 reversed $197 $-1 #
edge $-1 $198 -4.647630181291209972 $199 4.647630181291209972 $117 $200 forward 7 unknown #
face $-1 $201 $202 $20 $-1 $203 reversed single #
loop $-1 $-1 $204 $71 #
plane-surface $-1 79.8779259620960147 64.23143772713044086 14.46945499461472906 0 1 0 0 0 1 forward_v I I I I #
coedge $-1 $205 $206 $207 $208 forward $72 $-1 #
coedge $-1 $209 $74 $210 $211 forward $43 $-1 #
coedge $-1 $74 $209 $212 $213 forward $43 $-1 #
coedge $-1 $214 $215 $74 $126 reversed $216 $-1 #
edge $-1 $217 -4.647630181291219742 $218 4.647630181291219742 $125 $219 forward 7 unknown #
face $-1 $220 $221 $21 $-1 $222 reversed single #
loop $-1 $-1 $223 $75 #
plane-surface $-1 214.4130011935596372 47.03652557726289984 229.4789271362585339 0 1 0 0.8571673085369920786 0 0.5150380618706241753 forward_v I I I I #
coedge $-1 $224 $225 $226 $227 forward $76 $-1 #
coedge $-1 $228 $78 $229 $230 forward $46 $-1 #
coedge $-1 $78 $228 $231 $232 forward $46 $-1 #
coedge $-1 $233 $234 $78 $134 reversed $235 $-1 #
edge $-1 $236 -3.949825893642561425 $237 3.949825893642561425 $133 $238 forward 7 unknown #
loop $-1 $239 $240 $79 #
cone-surface $-1 156.6631141187386902 49.29356894505865228 12.74691134793818037 -0.8571673085369920786 0 -0.5150380618706241753 0.1287595154676560438 0 -0.2142918271342480196 1 I I -0.7071067811865474617 0.7071067811865474617 0.25 forward I I I I #
coedge $-1 $137 $137 $83 $139 forward $80 $-1 #
coedge $-1 $138 $138 $240 $241 forward $82 $-1 #
edge $-1 $242 0 $242 6.283185307179586232 $137 $243 forward 7 unknown #
loop $-1 $244 $245 $84 #
cone-surface $-1 156.6631141187386902 52.67913399675227737 12.74691134793818037 -0.8571673085369920786 0 -0.5150380618706241753 0.1287595154676560438 0 -0.2142918271342480196 1 I I -0.7071067811865474617 0.7071067811865474617 0.25 forward I I I I #
coedge $-1 $142 $142 $88 $144 forward $85 $-1 #
coedge $-1 $143 $143 $245 $246 forward $87 $-1 #
edge $-1 $247 0 $247 6.283185307179586232 $142 $248 forward 7 unknown #
face $-1 $249 $250 $24 $-1 $251 reversed single #
loop $-1 $-1 $252 $89 #
plane-surface $-1 -127.586697598339299 41.54462568703202408 106.7854564998821729 0 1 0 -0.7986355182712320255 0 0.6018150122385121925 forward_v I I I I #
coedge $-1 $253 $254 $255 $256 forward $90 $-1 #
coedge $-1 $257 $92 $258 $259 forward $55 $-1 #
coedge $-1 $92 $257 $260 $261 forward $55 $-1 #
coedge $-1 $262 $263 $92 $152 reversed $264 $-1 #
edge $-1 $265 -6.695775838757995757 $266 6.695775838757995757 $151 $267 forward 7 unknown #
loop $-1 $268 $269 $93 #
cone-surface $-1 7.373983383304358874 45.37078330917945124 9.790918136611423961 0.7986355182712320255 0 -0.6018150122385121925 0.4513612591788841444 0 0.5989766387034239914 1 I I -0.7071067811865475727 0.7071067811865475727 0.75 forward I I I I #
coedge $-1 $155 $155 $97 $157 forward $94 $-1 #
coedge $-1 $156 $156 $269 $270 forward $96 $-1 #
edge $-1 $271 0 $271 6.283185307179586232 $155 $272 forward 7 unknown #
loop $-1 $273 $274 $98 #
cone-surface $-1 7.373983383304358874 51.11001974240059553 9.790918136611423961 0.7986355182712320255 0 -0.6018150122385121925 0.4513612591788841444 0 0.5989766387034239914 1 I I -0.7071067811865475727 0.7071067811865475727 0.75 forward I I I I #
coedge $-1 $160 $160 $102 $162 forward $99 $-1 #
coedge $-1 $161 $161 $274 $275 forward $101 $-1 #
edge $-1 $276 0 $276 6.283185307179586232 $160 $277 forward 7 unknown #
face $-1 $278 $279 $18 $-1 $280 reversed single #
loop $-1 $-1 $281 $103 #
plane-surface $-1 0 32.11571886356522043 8.322329796515354872 1 0 0 0 0 -1 forward_v I I I I #
coedge $-1 $282 $174 $283 $284 forward $104 $-1 #
coedge $-1 $285 $106 $282 $286 forward $64 $-1 #
coedge $-1 $106 $285 $287 $288 forward $64 $-1 #
coedge $-1 $177 $176 $106 $170 reversed $178 $-1 #
edge $-1 $289 -32.11571886356522043 $290 32.11571886356522043 $169 $291 forward 7 unknown #
coedge $-1 $108 $107 $292 $293 forward $37 $-1 #
coedge $-1 $294 $295 $107 $173 reversed $279 $-1 #
edge $-1 $180 -79.8779259620960147 $296 79.8779259620960147 $172 $297 forward 7 unknown #
coedge $-1 $166 $298 $108 $175 reversed $104 $-1 #
edge $-1 $299 -79.8779259620960147 $179 79.8779259620960147 $174 $300 forward 7 unknown #
coedge $-1 $169 $109 $298 $301 forward $178 $-1 #
coedge $-1 $109 $169 $294 $302 reversed $178 $-1 #
loop $-1 $-1 $176 $278 #
vertex $-1 $110 $303 #
vertex $-1 $110 $304 #
straight-curve $-1 159.7558519241920294 32.11571886356522043 16.64465959303070974 0 1 0 I I #
face $-1 $305 $306 $19 $-1 $307 reversed single #
loop $-1 $-1 $308 $111 #
plane-surface $-1 0 -4.647630181291209972 14.46945499461472906 1 0 0 0 0 -1 forward_v I I I I #
coedge $-1 $309 $193 $310 $311 forward $112 $-1 #
coedge $-1 $312 $114 $309 $313 forward $68 $-1 #
coedge $-1 $114 $312 $314 $315 forward $68 $-1 #
coedge $-1 $196 $195 $114 $189 reversed $197 $-1 #
edge $-1 $316 -4.647630181291209972 $317 4.647630181291209972 $188 $318 forward 7 unknown #
coedge $-1 $116 $115 $319 $320 forward $40 $-1 #
coedge $-1 $321 $322 $115 $192 reversed $306 $-1 #
edge $-1 $199 -79.8779259620960147 $323 79.8779259620960147 $191 $324 forward 7 unknown #
coedge $-1 $185 $325 $116 $194 reversed $112 $-1 #
edge $-1 $326 -79.8779259620960147 $198 79.8779259620960147 $193 $327 forward 7 unknown #
coedge $-1 $188 $117 $325 $328 forward $197 $-1 #
coedge $-1 $117 $188 $321 $329 reversed $197 $-1 #
loop $-1 $-1 $195 $305 #
vertex $-1 $118 $330 #
vertex $-1 $118 $331 #
straight-curve $-1 159.7558519241920294 -4.647630181291209972 16.64465959303070974 0 1 0 I I #
face $-1 $332 $333 $20 $-1 $334 reversed single #
loop $-1 $-1 $335 $119 #
plane-surface $-1 0 68.8790679084216606 14.46945499461472906 1 0 0 0 0 -1 forward_v I I I I #
coedge $-1 $336 $212 $337 $338 forward $120 $-1 #
coedge $-1 $339 $122 $336 $340 forward $72 $-1 #
coedge $-1 $122 $339 $341 $342 forward $72 $-1 #
coedge $-1 $215 $214 $122 $208 reversed $216 $-1 #
edge $-1 $343 -4.647630181291219742 $344 4.647630181291219742 $207 $345 forward 7 unknown #
coedge $-1 $124 $123 $346 $347 forward $43 $-1 #
coedge $-1 $348 $349 $123 $211 reversed $333 $-1 #
edge $-1 $218 -79.8779259620960147 $350 79.8779259620960147 $210 $351 forward 7 unknown #
coedge $-1 $204 $352 $124 $213 reversed $120 $-1 #
edge $-1 $353 -79.8779259620960147 $217 79.8779259620960147 $212 $354 forward 7 unknown #
coedge $-1 $207 $125 $352 $355 forward $216 $-1 #
coedge $-1 $125 $207 $348 $356 reversed $216 $-1 #
loop $-1 $-1 $214 $332 #
vertex $-1 $126 $357 #
vertex $-1 $126 $358 #
straight-curve $-1 159.7558519241920294 68.8790679084216606 16.64465959303070974 0 1 0 I I #
face $-1 $359 $360 $21 $-1 $361 reversed single #
loop $-1 $-1 $362 $127 #
plane-surface $-1 49.85231249850704671 50.98635147090546127 503.3539143700463683 0.5150380618706241753 0 -0.8571673085369920786 -0.8571673085369920786 0 -0.5150380618706241753 forward_v I I I I #
coedge $-1 $363 $231 $364 $365 forward $128 $-1 #
coedge $-1 $366 $130 $363 $367 forward $76 $-1 #
coedge $-1 $130 $366 $368 $369 forward $76 $-1 #
coedge $-1 $234 $233 $130 $227 reversed $235 $-1 #
edge $-1 $370 -3.949825893642561425 $371 3.949825893642561425 $226 $372 forward 7 unknown #
coedge $-1 $132 $131 $373 $374 forward $46 $-1 #
coedge $-1 $375 $376 $131 $230 reversed $360 $-1 #
edge $-1 $237 -319.5117038483841156 $377 319.5117038483841725 $229 $378 forward 7 unknown #
coedge $-1 $223 $379 $132 $232 reversed $128 $-1 #
edge $-1 $380 -319.5117038483841725 $236 319.5117038483841156 $231 $381 forward 7 unknown #
coedge $-1 $226 $133 $379 $382 forward $235 $-1 #
coedge $-1 $133 $226 $375 $383 reversed $235 $-1 #
loop $-1 $-1 $233 $359 #
vertex $-1 $134 $384 #
vertex $-1 $134 $385 #
straight-curve $-1 515.9111835055061874 50.98635147090546127 37.88428424999696631 0 1 0 I I #
loop $-1 $-1 $386 $79 #
coedge $-1 $240 $240 $138 $241 reversed $135 $-1 #
edge $-1 $387 0 $387 6.283185307179586232 $240 $388 forward 7 unknown #
vertex $-1 $139 $389 #
ellipse-curve $-1 157.8380339528340812 49.29356894505865228 13.45287438243452627 0.8571673085369920786 0 0.5150380618706241753 0.2575190309353120877 0 -0.4285836542684960393 1 I I #
loop $-1 $-1 $390 $84 #
coedge $-1 $245 $245 $143 $246 reversed $140 $-1 #
edge $-1 $391 0 $391 6.283185307179586232 $245 $392 forward 7 unknown #
vertex $-1 $144 $393 #
ellipse-curve $-1 157.8380339528340812 52.67913399675227737 13.45287438243452627 0.8571673085369920786 0 0.5150380618706241753 0.2575190309353120877 0 -0.4285836542684960393 1 I I #
face $-1 $394 $395 $24 $-1 $396 reversed single #
loop $-1 $-1 $397 $145 #
plane-surface $-1 -319.8736375602024395 48.24040152579001983 -148.3879386967964251 0.6018150122385121925 0 0.7986355182712320255 0.7986355182712320255 0 -0.6018150122385121925 forward_v I I I I #
coedge $-1 $398 $260 $399 $400 forward $146 $-1 #
coedge $-1 $401 $148 $398 $402 forward $90 $-1 #
coedge $-1 $148 $401 $403 $404 forward $90 $-1 #
coedge $-1 $263 $262 $148 $256 reversed $264 $-1 #
edge $-1 $405 -6.695775838757995757 $406 6.695775838757995757 $255 $407 forward 7 unknown #
coedge $-1 $150 $149 $408 $409 forward $55 $-1 #
coedge $-1 $410 $411 $149 $259 reversed $395 $-1 #
edge $-1 $266 -319.5117038483840588 $412 319.5117038483840588 $258 $413 forward 7 unknown #
coedge $-1 $252 $414 $150 $261 reversed $146 $-1 #
edge $-1 $415 -319.5117038483840588 $265 319.5117038483840588 $260 $416 forward 7 unknown #
coedge $-1 $255 $151 $414 $417 forward $264 $-1 #
coedge $-1 $151 $255 $410 $418 reversed $264 $-1 #
loop $-1 $-1 $262 $394 #
vertex $-1 $152 $419 #
vertex $-1 $152 $420 #
straight-curve $-1 -62.88645523481545752 48.24040152579001983 458.1023216774923412 0 1 0 I I #
loop $-1 $-1 $421 $93 #
coedge $-1 $269 $269 $156 $270 reversed $153 $-1 #
edge $-1 $422 0 $422 6.283185307179586232 $269 $423 forward 7 unknown #
vertex $-1 $157 $424 #
ellipse-curve $-1 2.261669238904568502 45.37078330917945124 13.64332305599065798 -0.7986355182712320255 0 0.6018150122385121925 0.9027225183577682888 0 1.197953277406847983 1 I I #
loop $-1 $-1 $425 $98 #
coedge $-1 $274 $274 $161 $275 reversed $158 $-1 #
edge $-1 $426 0 $426 6.283185307179586232 $274 $427 forward 7 unknown #
vertex $-1 $162 $428 #
ellipse-curve $-1 2.261669238904568502 51.11001974240059553 13.64332305599065798 -0.7986355182712320255 0 0.6018150122385121925 0.9027225183577682888 0 1.197953277406847983 1 I I #
face $-1 $-1 $178 $18 $-1 $429 reversed single #
loop $-1 $-1 $294 $163 #
plane-surface $-1 79.8779259620960147 64.23143772713044086 8.322329796515354872 0 -1 0 0 0 -1 forward_v I I I I #
coedge $-1 $430 $292 $295 $431 forward $164 $-1 #
coedge $-1 $298 $166 $167 $286 reversed $104 $-1 #
coedge $-1 $292 $430 $166 $284 reversed $164 $-1 #
edge $-1 $299 -8.322329796515354872 $432 8.322329796515354872 $283 $433 forward 7 unknown #
coedge $-1 $168 $167 $430 $434 forward $64 $-1 #
edge $-1 $290 -79.8779259620960147 $432 79.8779259620960147 $282 $435 forward 7 unknown #
coedge $-1 $295 $294 $168 $288 reversed $279 $-1 #
edge $-1 $436 -79.8779259620960147 $289 79.8779259620960147 $287 $437 forward 7 unknown #
vertex $-1 $170 $438 #
vertex $-1 $301 $439 #
straight-curve $-1 159.7558519241920294 32.11571886356522043 0 0 -1 0 I I #
coedge $-1 $281 $283 $171 $293 reversed $164 $-1 #
edge $-1 $296 -32.11571886356522043 $299 32.11571886356522043 $292 $440 forward 7 unknown #
coedge $-1 $287 $172 $177 $302 forward $279 $-1 #
coedge $-1 $172 $287 $281 $431 reversed $279 $-1 #
vertex $-1 $173 $441 #
straight-curve $-1 79.8779259620960147 64.23143772713044086 16.64465959303070974 -1 0 0 I I #
coedge $-1 $174 $282 $176 $301 reversed $104 $-1 #
vertex $-1 $293 $442 #
straight-curve $-1 79.8779259620960147 0 16.64465959303070974 1 0 0 I I #
edge $-1 $179 -8.322329796515354872 $290 8.322329796515354872 $176 $443 forward 7 unknown #
edge $-1 $180 -8.322329796515354872 $289 8.322329796515354872 $177 $444 forward 7 unknown #
point $-1 159.7558519241920294 0 16.64465959303070974 #
point $-1 159.7558519241920294 64.23143772713044086 16.64465959303070974 #
face $-1 $-1 $197 $19 $-1 $445 reversed single #
loop $-1 $-1 $321 $182 #
plane-surface $-1 79.8779259620960147 0 14.46945499461472906 0 -1 0 0 0 -1 forward_v I I I I #
coedge $-1 $446 $319 $322 $447 forward $183 $-1 #
coedge $-1 $325 $185 $186 $313 reversed $112 $-1 #
coedge $-1 $319 $446 $185 $311 reversed $183 $-1 #
edge $-1 $326 -2.175204598415980684 $448 2.175204598415980684 $310 $449 forward 7 unknown #
coedge $-1 $187 $186 $446 $450 forward $68 $-1 #
edge $-1 $317 -79.8779259620960147 $448 79.8779259620960147 $309 $451 forward 7 unknown #
coedge $-1 $322 $321 $187 $315 reversed $306 $-1 #
edge $-1 $452 -79.8779259620960147 $316 79.8779259620960147 $314 $453 forward 7 unknown #
vertex $-1 $189 $454 #
vertex $-1 $328 $455 #
straight-curve $-1 159.7558519241920294 -4.647630181291209972 12.29425039619874838 0 -1 0 I I #
coedge $-1 $308 $310 $190 $320 reversed $183 $-1 #
edge $-1 $323 -4.647630181291209972 $326 4.647630181291209972 $319 $456 forward 7 unknown #
coedge $-1 $314 $191 $196 $329 forward $306 $-1 #
coedge $-1 $191 $314 $308 $447 reversed $306 $-1 #
vertex $-1 $192 $457 #
straight-curve $-1 79.8779259620960147 0 16.64465959303070974 -1 0 0 I I #
coedge $-1 $193 $309 $195 $328 reversed $112 $-1 #
vertex $-1 $320 $458 #
straight-curve $-1 79.8779259620960147 -9.295260362582419944 16.64465959303070974 1 0 0 I I #
edge $-1 $198 -2.175204598415980684 $317 2.175204598415980684 $195 $459 forward 7 unknown #
edge $-1 $199 -2.175204598415980684 $316 2.175204598415980684 $196 $460 forward 7 unknown #
point $-1 159.7558519241920294 -9.295260362582419944 16.64465959303070974 #
point $-1 159.7558519241920294 0 16.64465959303070974 #
face $-1 $-1 $216 $20 $-1 $461 reversed single #
loop $-1 $-1 $348 $201 #
plane-surface $-1 79.8779259620960147 73.52669808971288035 14.46945499461472906 0 -1 0 0 0 -1 forward_v I I I I #
coedge $-1 $462 $346 $349 $463 forward $202 $-1 #
coedge $-1 $352 $204 $205 $340 reversed $120 $-1 #
coedge $-1 $346 $462 $204 $338 reversed $202 $-1 #
edge $-1 $353 -2.175204598415980684 $464 2.175204598415980684 $337 $465 forward 7 unknown #
coedge $-1 $206 $205 $462 $466 forward $72 $-1 #
edge $-1 $344 -79.8779259620960147 $464 79.8779259620960147 $336 $467 forward 7 unknown #
coedge $-1 $349 $348 $206 $342 reversed $333 $-1 #
edge $-1 $468 -79.8779259620960147 $343 79.8779259620960147 $341 $469 forward 7 unknown #
vertex $-1 $208 $470 #
vertex $-1 $355 $471 #
straight-curve $-1 159.7558519241920294 68.8790679084216606 12.29425039619874838 0 -1 0 I I #
coedge $-1 $335 $337 $209 $347 reversed $202 $-1 #
edge $-1 $350 -4.647630181291219742 $353 4.647630181291219742 $346 $472 forward 7 unknown #
coedge $-1 $341 $210 $215 $356 forward $333 $-1 #
coedge $-1 $210 $341 $335 $463 reversed $333 $-1 #
vertex $-1 $211 $473 #
straight-curve $-1 79.8779259620960147 73.52669808971288035 16.64465959303070974 -1 0 0 I I #
coedge $-1 $212 $336 $214 $355 reversed $120 $-1 #
vertex $-1 $347 $474 #
straight-curve $-1 79.8779259620960147 64.23143772713044086 16.64465959303070974 1 0 0 I I #
edge $-1 $217 -2.175204598415980684 $344 2.175204598415980684 $214 $475 forward 7 unknown #
edge $-1 $218 -2.175204598415980684 $343 2.175204598415980684 $215 $476 forward 7 unknown #
point $-1 159.7558519241920294 64.23143772713044086 16.64465959303070974 #
point $-1 159.7558519241920294 73.52669808971288035 16.64465959303070974 #
face $-1 $-1 $235 $21 $-1 $477 reversed single #
loop $-1 $-1 $375 $220 #
plane-surface $-1 214.4130011935596372 54.93617736454802269 229.4789271362585339 0 -1 0 -0.8571673085369920786 0 -0.5150380618706241753 forward_v I I I I #
coedge $-1 $478 $373 $376 $479 forward $221 $-1 #
coedge $-1 $379 $223 $224 $367 reversed $128 $-1 #
coedge $-1 $373 $478 $223 $365 reversed $221 $-1 #
edge $-1 $380 -159.7558519241920862 $480 159.755851924192001 $364 $481 forward 7 unknown #
coedge $-1 $225 $224 $478 $482 forward $76 $-1 #
edge $-1 $371 -319.5117038483841156 $480 319.5117038483841725 $363 $483 forward 7 unknown #
coedge $-1 $376 $375 $225 $369 reversed $360 $-1 #
edge $-1 $484 -319.5117038483841725 $370 319.5117038483841156 $368 $485 forward 7 unknown #
vertex $-1 $227 $486 #
vertex $-1 $382 $487 #
straight-curve $-1 242.0361962717182962 50.98635147090546127 -126.6764044450556241 0 -1 0 I I #
coedge $-1 $362 $364 $228 $374 reversed $221 $-1 #
edge $-1 $377 -3.949825893642561425 $380 3.949825893642561425 $373 $488 forward 7 unknown #
coedge $-1 $368 $229 $234 $383 forward $360 $-1 #
coedge $-1 $229 $368 $362 $479 reversed $360 $-1 #
vertex $-1 $230 $489 #
straight-curve $-1 351.350494810453597 54.93617736454802269 311.7592714837848007 -0.5150380618706241753 0 0.8571673085369920786 I I #
coedge $-1 $231 $363 $233 $382 reversed $128 $-1 #
vertex $-1 $374 $490 #
straight-curve $-1 351.350494810453597 47.03652557726289984 311.7592714837848007 0.5150380618706241753 0 -0.8571673085369920786 I I #
edge $-1 $236 -159.7558519241920862 $371 159.7558519241920578 $233 $491 forward 7 unknown #
edge $-1 $237 -159.7558519241920862 $370 159.7558519241920578 $234 $492 forward 7 unknown #
point $-1 515.9111835055061874 47.03652557726289984 37.88428424999696631 #
point $-1 515.9111835055061874 54.93617736454802269 37.88428424999696631 #
coedge $-1 $386 $386 $-1 $493 reversed $239 $-1 #
vertex $-1 $241 $494 #
ellipse-curve $-1 156.8774059458729369 49.29356894505865228 12.875670863405837 0.8571673085369920786 0 0.5150380618706241753 0.2575190309353120877 0 -0.4285836542684960393 1 I I #
point $-1 158.0955529837693803 49.29356894505865228 13.0242907281660294 #
coedge $-1 $390 $390 $-1 $495 reversed $244 $-1 #
vertex $-1 $246 $496 #
ellipse-curve $-1 156.8774059458729369 52.67913399675227737 12.875670863405837 0.8571673085369920786 0 0.5150380618706241753 0.2575190309353120877 0 -0.4285836542684960393 1 I I #
point $-1 158.0955529837693803 52.67913399675227737 13.0242907281660294 #
face $-1 $-1 $264 $24 $-1 $497 reversed single #
loop $-1 $-1 $410 $249 #
plane-surface $-1 -127.586697598339299 54.93617736454801559 106.7854564998821729 0 -1 0 0.7986355182712320255 0 -0.6018150122385121925 forward_v I I I I #
coedge $-1 $498 $408 $411 $499 forward $250 $-1 #
coedge $-1 $414 $252 $253 $402 reversed $146 $-1 #
coedge $-1 $408 $498 $252 $400 reversed $250 $-1 #
edge $-1 $415 -159.7558519241920294 $500 159.7558519241920294 $399 $501 forward 7 unknown #
coedge $-1 $254 $253 $498 $502 forward $90 $-1 #
edge $-1 $406 -319.5117038483840588 $500 319.5117038483840588 $398 $503 forward 7 unknown #
coedge $-1 $411 $410 $254 $404 reversed $395 $-1 #
edge $-1 $504 -319.5117038483840588 $405 319.5117038483840588 $403 $505 forward 7 unknown #
vertex $-1 $256 $506 #
vertex $-1 $417 $507 #
straight-curve $-1 192.2869399618631405 48.24040152579001983 265.8153817156292007 0 -1 0 I I #
coedge $-1 $397 $399 $257 $409 reversed $250 $-1 #
edge $-1 $412 -6.695775838757995757 $415 6.695775838757995757 $408 $508 forward 7 unknown #
coedge $-1 $403 $258 $263 $418 forward $395 $-1 #
coedge $-1 $258 $403 $397 $499 reversed $395 $-1 #
vertex $-1 $259 $509 #
straight-curve $-1 -255.173395196678598 54.93617736454801559 202.9289264808137432 -0.6018150122385121925 0 -0.7986355182712320255 I I #
coedge $-1 $260 $398 $262 $417 reversed $146 $-1 #
vertex $-1 $409 $510 #
straight-curve $-1 -255.173395196678598 41.54462568703202408 202.9289264808137432 0.6018150122385121925 0 0.7986355182712320255 I I #
edge $-1 $265 -159.7558519241920294 $406 159.7558519241920294 $262 $511 forward 7 unknown #
edge $-1 $266 -159.7558519241920294 $405 159.7558519241920294 $263 $512 forward 7 unknown #
point $-1 -62.88645523481545752 41.54462568703202408 458.1023216774923412 #
point $-1 -62.88645523481545752 54.93617736454801559 458.1023216774923412 #
coedge $-1 $421 $421 $-1 $513 reversed $268 $-1 #
vertex $-1 $270 $514 #
ellipse-curve $-1 6.775006744600934994 45.37078330917945124 10.24227939579030888 -0.7986355182712320255 0 0.6018150122385121925 0.9027225183577682888 0 1.197953277406847983 1 I I #
point $-1 3.164391757262336569 45.37078330917945124 14.84127633339750574 #
coedge $-1 $425 $425 $-1 $515 reversed $273 $-1 #
vertex $-1 $275 $516 #
ellipse-curve $-1 6.775006744600934994 51.11001974240059553 10.24227939579030888 -0.7986355182712320255 0 0.6018150122385121925 0.9027225183577682888 0 1.197953277406847983 1 I I #
point $-1 3.164391757262336569 51.11001974240059553 14.84127633339750574 #
plane-surface $-1 159.7558519241920294 32.11571886356522043 8.322329796515354872 -1 0 0 0 0 1 forward_v I I I I #
coedge $-1 $283 $281 $285 $434 reversed $164 $-1 #
edge $-1 $296 -8.322329796515354872 $436 8.322329796515354872 $295 $517 forward 7 unknown #
vertex $-1 $434 $518 #
straight-curve $-1 0 0 8.322329796515354872 0 0 -1 I I #
edge $-1 $432 -32.11571886356522043 $436 32.11571886356522043 $430 $519 forward 7 unknown #
straight-curve $-1 79.8779259620960147 0 0 -1 0 0 I I #
vertex $-1 $288 $520 #
straight-curve $-1 79.8779259620960147 64.23143772713044086 0 1 0 0 I I #
point $-1 159.7558519241920294 64.23143772713044086 0 #
point $-1 159.7558519241920294 0 0 #
straight-curve $-1 0 32.11571886356522043 16.64465959303070974 0 -1 0 I I #
point $-1 0 64.23143772713044086 16.64465959303070974 #
point $-1 0 0 16.64465959303070974 #
straight-curve $-1 159.7558519241920294 0 8.322329796515354872 0 0 -1 I I #
straight-curve $-1 159.7558519241920294 64.23143772713044086 8.322329796515354872 0 0 -1 I I #
plane-surface $-1 159.7558519241920294 -4.647630181291209972 14.46945499461472906 -1 0 0 0 0 1 forward_v I I I I #
coedge $-1 $310 $308 $312 $450 reversed $183 $-1 #
edge $-1 $323 -2.175204598415980684 $452 2.175204598415980684 $322 $521 forward 7 unknown #
vertex $-1 $450 $522 #
straight-curve $-1 0 -9.295260362582419944 14.46945499461472906 0 0 -1 I I #
edge $-1 $448 -4.647630181291209972 $452 4.647630181291209972 $446 $523 forward 7 unknown #
straight-curve $-1 79.8779259620960147 -9.295260362582419944 12.29425039619874838 -1 0 0 I I #
vertex $-1 $315 $524 #
straight-curve $-1 79.8779259620960147 0 12.29425039619874838 1 0 0 I I #
point $-1 159.7558519241920294 0 12.29425039619874838 #
point $-1 159.7558519241920294 -9.295260362582419944 12.29425039619874838 #
straight-curve $-1 0 -4.647630181291209972 16.64465959303070974 0 -1 0 I I #
point $-1 0 0 16.64465959303070974 #
point $-1 0 -9.295260362582419944 16.64465959303070974 #
straight-curve $-1 159.7558519241920294 -9.295260362582419944 14.46945499461472906 0 0 -1 I I #
straight-curve $-1 159.7558519241920294 0 14.46945499461472906 0 0 -1 I I #
plane-surface $-1 159.7558519241920294 68.8790679084216606 14.46945499461472906 -1 0 0 0 0 1 forward_v I I I I #
coedge $-1 $337 $335 $339 $466 reversed $202 $-1 #
edge $-1 $350 -2.175204598415980684 $468 2.175204598415980684 $349 $525 forward 7 unknown #
vertex $-1 $466 $526 #
straight-curve $-1 0 64.23143772713044086 14.46945499461472906 0 0 -1 I I #
edge $-1 $464 -4.647630181291219742 $468 4.647630181291219742 $462 $527 forward 7 unknown #
straight-curve $-1 79.8779259620960147 64.23143772713044086 12.29425039619874838 -1 0 0 I I #
vertex $-1 $342 $528 #
straight-curve $-1 79.8779259620960147 73.52669808971288035 12.29425039619874838 1 0 0 I I #
point $-1 159.7558519241920294 73.52669808971288035 12.29425039619874838 #
point $-1 159.7558519241920294 64.23143772713044086 12.29425039619874838 #
straight-curve $-1 0 68.8790679084216606 16.64465959303070974 0 -1 0 I I #
point $-1 0 73.52669808971288035 16.64465959303070974 #
point $-1 0 64.23143772713044086 16.64465959303070974 #
straight-curve $-1 159.7558519241920294 64.23143772713044086 14.46945499461472906 0 0 -1 I I #
straight-curve $-1 159.7558519241920294 73.52669808971288035 14.46945499461472906 0 0 -1 I I #
plane-surface $-1 378.9736898886122276 50.98635147090546127 -44.39606009752932891 -0.5150380618706241753 0 0.8571673085369920786 0.8571673085369920786 0 0.5150380618706241753 forward_v I I I I #
coedge $-1 $364 $362 $366 $482 reversed $221 $-1 #
edge $-1 $377 -159.7558519241920862 $484 159.755851924192001 $376 $529 forward 7 unknown #
vertex $-1 $482 $530 #
straight-curve $-1 49.85231249850704671 47.03652557726289984 503.3539143700463683 -0.8571673085369920786 0 -0.5150380618706241753 I I #
edge $-1 $480 -3.949825893642561425 $484 3.949825893642561425 $478 $531 forward 7 unknown #
straight-curve $-1 77.47550757666570576 47.03652557726289984 147.1985827887322387 -0.5150380618706241753 0 0.8571673085369920786 I I #
vertex $-1 $369 $532 #
straight-curve $-1 77.47550757666570576 54.93617736454802269 147.1985827887322387 0.5150380618706241753 0 -0.8571673085369920786 I I #
point $-1 242.0361962717182962 54.93617736454802269 -126.6764044450556241 #
point $-1 242.0361962717182962 47.03652557726289984 -126.6764044450556241 #
straight-curve $-1 186.7898061154009781 50.98635147090546127 585.6342587175727203 0 -1 0 I I #
point $-1 186.7898061154009781 54.93617736454802269 585.6342587175727203 #
point $-1 186.7898061154009781 47.03652557726289984 585.6342587175727203 #
straight-curve $-1 378.9736898886122276 47.03652557726289984 -44.39606009752932891 -0.8571673085369920786 0 -0.5150380618706241753 I I #
straight-curve $-1 378.9736898886122276 54.93617736454802269 -44.39606009752932891 -0.8571673085369920786 0 -0.5150380618706241753 I I #
edge $-1 $533 1 $533 0 $386 $-1 forward 7 unknown #
point $-1 157.1349249768082643 49.29356894505865228 12.44708720913734012 #
edge $-1 $534 1 $534 0 $390 $-1 forward 7 unknown #
point $-1 157.1349249768082643 52.67913399675227737 12.44708720913734012 #
plane-surface $-1 64.7002423635238415 48.24040152579001983 361.958851696560771 -0.6018150122385121925 0 -0.7986355182712320255 -0.7986355182712320255 0 0.6018150122385121925 forward_v I I I I #
coedge $-1 $399 $397 $401 $502 reversed $250 $-1 #
edge $-1 $412 -159.7558519241920294 $504 159.7558519241920294 $411 $535 forward 7 unknown #
vertex $-1 $502 $536 #
straight-curve $-1 -319.8736375602024395 41.54462568703202408 -148.3879386967964251 0.7986355182712320255 0 -0.6018150122385121925 I I #
edge $-1 $500 -6.695775838757995757 $504 6.695775838757995757 $498 $537 forward 7 unknown #
straight-curve $-1 0 41.54462568703202408 10.64198651895060266 -0.6018150122385121925 0 -0.7986355182712320255 I I #
vertex $-1 $404 $538 #
straight-curve $-1 0 54.93617736454801559 10.64198651895060266 0.6018150122385121925 0 0.7986355182712320255 I I #
point $-1 192.2869399618631405 54.93617736454801559 265.8153817156292007 #
point $-1 192.2869399618631405 41.54462568703202408 265.8153817156292007 #
straight-curve $-1 -447.4603351585417386 48.24040152579001983 -52.24446871586485486 0 -1 0 I I #
point $-1 -447.4603351585417386 54.93617736454801559 -52.24446871586485486 #
point $-1 -447.4603351585417386 41.54462568703202408 -52.24446871586485486 #
straight-curve $-1 64.7002423635238415 41.54462568703202408 361.958851696560771 0.7986355182712320255 0 -0.6018150122385121925 I I #
straight-curve $-1 64.7002423635238415 54.93617736454801559 361.958851696560771 0.7986355182712320255 0 -0.6018150122385121925 I I #
edge $-1 $539 1 $539 0 $421 $-1 forward 7 unknown #
point $-1 7.67772926295870306 45.37078330917945124 11.44023267319715664 #
edge $-1 $540 1 $540 0 $425 $-1 forward 7 unknown #
point $-1 7.67772926295870306 51.11001974240059553 11.44023267319715664 #
straight-curve $-1 0 64.23143772713044086 8.322329796515354872 0 0 -1 I I #
point $-1 0 0 0 #
straight-curve $-1 0 32.11571886356522043 0 0 1 0 I I #
point $-1 0 64.23143772713044086 0 #
straight-curve $-1 0 0 14.46945499461472906 0 0 -1 I I #
point $-1 0 -9.295260362582419944 12.29425039619874838 #
straight-curve $-1 0 -4.647630181291209972 12.29425039619874838 0 1 0 I I #
point $-1 0 0 12.29425039619874838 #
straight-curve $-1 0 73.52669808971288035 14.46945499461472906 0 0 -1 I I #
point $-1 0 64.23143772713044086 12.29425039619874838 #
straight-curve $-1 0 68.8790679084216606 12.29425039619874838 0 1 0 I I #
point $-1 0 73.52669808971288035 12.29425039619874838 #
straight-curve $-1 49.85231249850704671 54.93617736454802269 503.3539143700463683 -0.8571673085369920786 0 -0.5150380618706241753 I I #
point $-1 -87.08518111838685627 47.03652557726289984 421.0735700225201299 #
straight-curve $-1 -87.08518111838685627 50.98635147090546127 421.0735700225201299 0 1 0 I I #
point $-1 -87.08518111838685627 54.93617736454802269 421.0735700225201299 #
vertex $-1 $493 $541 #
vertex $-1 $495 $542 #
straight-curve $-1 -319.8736375602024395 54.93617736454801559 -148.3879386967964251 0.7986355182712320255 0 -0.6018150122385121925 I I #
point $-1 -192.2869399618631405 41.54462568703202408 -244.5314086777279954 #
straight-curve $-1 -192.2869399618631405 48.24040152579001983 -244.5314086777279954 0 1 0 I I #
point $-1 -192.2869399618631405 54.93617736454801559 -244.5314086777279954 #
vertex $-1 $513 $543 #
vertex $-1 $515 $544 #
point $-1 156.4488222916044435 49.29356894505865228 12.61815183247052374 #
point $-1 156.4488222916044435 52.67913399675227737 12.61815183247052374 #
point $-1 7.972960022007782754 45.37078330917945124 9.339556877432539039 #
point $-1 7.972960022007782754 51.11001974240059553 9.339556877432539039 #
End-of-ACIS-data 