500 0 9 0           
7 Unknown 11 ACIS 5.0 NT 24 Fri Mar 26 18:10:10 1999 
-1 9.9999999999999995e-007 1e-010 
body $-1 $9 $-1 $10 #
body $-1 $11 $-1 $12 #
body $-1 $13 $-1 $14 #
body $-1 $15 $-1 $16 #
body $-1 $17 $-1 $18 #
body $-1 $19 $-1 $20 #
body $-1 $21 $-1 $22 #
body $-1 $23 $-1 $24 #
body $-1 $25 $-1 $26 #
lump $-1 $-1 $27 $0 #
transform $-1 1 0 0 0 1 0 0 0 1 77.918637653736994 36.193274962040263 16.2578684503091 1 rotate no_reflect no_shear #
lump $-1 $-1 $28 $1 #
transform $-1 1 0 0 0 1 0 0 0 1 77.918637653736994 36.193274962040263 16.2578684503091 1 rotate no_reflect no_shear #
lump $-1 $-1 $29 $2 #
transform $-1 1 0 0 0 1 0 0 0 1 77.918637653736994 36.193274962040263 16.2578684503091 1 rotate no_reflect no_shear #
lump $-1 $-1 $30 $3 #
transform $-1 1 0 0 0 1 0 0 0 1 77.918637653736994 36.193274962040263 16.2578684503091 1 rotate no_reflect no_shear #
lump $-1 $-1 $31 $4 #
transform $-1 1 0 0 0 1 0 0 0 1 77.918637653736994 36.193274962040263 16.2578684503091 1 rotate no_reflect no_shear #
lump $-1 $-1 $32 $5 #
transform $-1 1 0 0 0 1 0 0 0 1 77.918637653736994 36.193274962040263 16.2578684503091 1 rotate no_reflect no_shear #
lump $-1 $-1 $33 $6 #
transform $-1 1 0 0 0 1 0 0 0 1 77.918637653736994 36.193274962040263 16.2578684503091 1 rotate no_reflect no_shear #
lump $-1 $-1 $34 $7 #
transform $-1 1 0 0 0 1 0 0 0 1 77.918637653736994 36.193274962040263 16.2578684503091 1 rotate no_reflect no_shear #
lump $-1 $-1 $35 $8 #
transform $-1 1 0 0 0 1 0 0 0 1 77.918637653736994 36.193274962040263 16.2578684503091 1 rotate no_reflect no_shear #
shell $-1 $-1 $-1 $36 $-1 $9 #
shell $-1 $-1 $-1 $37 $-1 $11 #
shell $-1 $-1 $-1 $38 $-1 $13 #
shell $-1 $-1 $-1 $39 $-1 $15 #
shell $-1 $-1 $-1 $40 $-1 $17 #
shell $-1 $-1 $-1 $41 $-1 $19 #
shell $-1 $-1 $-1 $42 $-1 $21 #
shell $-1 $-1 $-1 $43 $-1 $23 #
shell $-1 $-1 $-1 $44 $-1 $25 #
face $-1 $45 $46 $27 $-1 $47 forward single #
face $-1 $48 $49 $28 $-1 $50 reversed single #
face $-1 $51 $52 $29 $-1 $53 reversed single #
face $-1 $54 $55 $30 $-1 $56 forward single #
face $-1 $57 $58 $31 $-1 $59 forward single #
face $-1 $60 $61 $32 $-1 $62 reversed single #
face $-1 $63 $64 $33 $-1 $65 forward single #
face $-1 $66 $67 $34 $-1 $68 forward single #
face $-1 $69 $70 $35 $-1 $71 forward single #
face $-1 $72 $73 $27 $-1 $74 reversed single #
loop $-1 $-1 $75 $36 #
plane-surface $-1 0 0 16.2578684503091 0 0 1 1 0 0 forward_v I I I I #
face $-1 $76 $77 $28 $-1 $78 reversed single #
loop $-1 $-1 $79 $37 #
plane-surface $-1 -70.165469720649369 0 11.151626579844578 0 0 1 1 0 0 forward_v I I I I #
face $-1 $80 $81 $29 $-1 $82 reversed single #
loop $-1 $-1 $83 $38 #
plane-surface $-1 -5.537708726866029 -152.00294101380484 107.04909326839136 -1 0 0 0 -0.74314483375859142 0.66913059716165679 forward_v I I I I #
face $-1 $84 $85 $30 $-1 $86 forward single #
loop $-1 $87 $88 $39 #
cone-surface $-1 -26.258897825949276 -26.449262192164035 6.2082193021421839 0 0.74314483375859142 -0.66913059716165679 2.5 0 0 1 I I 0 1 2.5 forward I I I I #
face $-1 $89 $90 $31 $-1 $91 forward single #
loop $-1 $92 $93 $40 #
cone-surface $-1 -13.826184366499319 -26.449262192164035 6.2082193021421839 0 0.74314483375859142 -0.66913059716165679 2.5 0 0 1 I I 0 1 2.5 forward I I I I #
face $-1 $94 $95 $32 $-1 $96 reversed single #
loop $-1 $-1 $97 $41 #
plane-surface $-1 59.960029042658817 124.91018849698436 159.46898844725388 1 0 0 0 -0.82903758062907751 -0.55919289150049634 forward_v I I I I #
face $-1 $98 $99 $33 $-1 $100 forward single #
loop $-1 $101 $102 $42 #
cone-surface $-1 63.551750764874441 33.215983206981811 13.175076872929468 0 -0.82903758062907751 -0.55919289150049634 1 0 0 1 I I 0 1 1 forward I I I I #
face $-1 $103 $104 $34 $-1 $105 forward single #
loop $-1 $106 $107 $43 #
cone-surface $-1 68.939333348197891 33.215983206981811 13.175076872929468 0 -0.82903758062907751 -0.55919289150049634 1 0 0 1 I I 0 1 1 forward I I I I #
face $-1 $108 $109 $35 $-1 $110 forward single #
loop $-1 $111 $112 $44 #
cone-surface $-1 74.326915931521341 33.215983206981811 13.175076872929468 0 -0.82903758062907751 -0.55919289150049634 1 0 0 1 I I 0 1 1 forward I I I I #
face $-1 $113 $114 $27 $-1 $115 reversed single #
loop $-1 $-1 $116 $45 #
plane-surface $-1 0 0 -16.2578684503091 0 0 1 1 0 0 forward_v I I I I #
coedge $-1 $117 $118 $119 $120 forward $46 $-1 #
face $-1 $121 $122 $28 $-1 $123 reversed single #
loop $-1 $-1 $124 $48 #
plane-surface $-1 -62.412301787561745 0 13.704747515076839 -1 0 0 0 0 1 forward_v I I I I #
coedge $-1 $125 $126 $127 $128 forward $49 $-1 #
face $-1 $129 $130 $29 $-1 $131 reversed single #
loop $-1 $-1 $132 $51 #
plane-surface $-1 -20.042541096224305 -36.193274962040249 2.7736041818557737 0 -0.74314483375859142 0.66913059716165679 1 0 0 forward_v I I I I #
coedge $-1 $133 $134 $135 $136 reversed $52 $-1 #
face $-1 $-1 $137 $30 $-1 $138 forward single #
loop $-1 $139 $140 $54 #
cone-surface $-1 -26.258897825949276 -21.846961269848769 2.0642890417498485 0 0.74314483375859142 -0.66913059716165679 1.25 0 0 1 I I -0.70710678118654746 0.70710678118654746 1.25 forward I I I I #
loop $-1 $-1 $141 $39 #
coedge $-1 $88 $88 $142 $143 reversed $55 $-1 #
face $-1 $-1 $144 $31 $-1 $145 forward single #
loop $-1 $146 $147 $57 #
cone-surface $-1 -13.826184366499319 -21.846961269848769 2.0642890417498485 0 0.74314483375859142 -0.66913059716165679 1.25 0 0 1 I I -0.70710678118654746 0.70710678118654746 1.25 forward I I I I #
loop $-1 $-1 $148 $40 #
coedge $-1 $93 $93 $149 $150 reversed $58 $-1 #
face $-1 $151 $152 $32 $-1 $153 forward single #
loop $-1 $-1 $154 $60 #
plane-surface $-1 68.939333348197891 -4.2847691957513661 72.325891864508606 0 0.82903758062907751 0.55919289150049634 1 0 0 forward_v I I I I #
coedge $-1 $155 $156 $157 $158 reversed $61 $-1 #
face $-1 $-1 $159 $33 $-1 $160 forward single #
loop $-1 $161 $162 $63 #
cone-surface $-1 63.551750764874441 31.154015671738478 11.784262252272658 0 -0.82903758062907751 -0.55919289150049634 0.5 0 0 1 I I -0.70710678118654746 0.70710678118654746 0.5 forward I I I I #
loop $-1 $-1 $163 $42 #
coedge $-1 $102 $102 $164 $165 reversed $64 $-1 #
face $-1 $-1 $166 $34 $-1 $167 forward single #
loop $-1 $168 $169 $66 #
cone-surface $-1 68.939333348197891 31.154015671738478 11.784262252272658 0 -0.82903758062907751 -0.55919289150049634 0.5 0 0 1 I I -0.70710678118654746 0.70710678118654746 0.5 forward I I I I #
loop $-1 $-1 $170 $43 #
coedge $-1 $107 $107 $171 $172 reversed $67 $-1 #
face $-1 $-1 $173 $35 $-1 $174 forward single #
loop $-1 $175 $176 $69 #
cone-surface $-1 74.326915931521341 31.154015671738478 11.784262252272658 0 -0.82903758062907751 -0.55919289150049634 0.5 0 0 1 I I -0.70710678118654746 0.70710678118654746 0.5 forward I I I I #
loop $-1 $-1 $177 $44 #
coedge $-1 $112 $112 $178 $179 reversed $70 $-1 #
face $-1 $180 $181 $27 $-1 $182 reversed single #
loop $-1 $-1 $183 $72 #
plane-surface $-1 0 -36.193274962040263 0 0 1 0 0 0 1 forward_v I I I I #
coedge $-1 $184 $185 $186 $187 forward $73 $-1 #
coedge $-1 $188 $75 $189 $190 forward $46 $-1 #
coedge $-1 $75 $188 $191 $192 forward $46 $-1 #
coedge $-1 $193 $194 $75 $120 reversed $195 $-1 #
edge $-1 $196 -36.193274962040263 $197 36.193274962040263 $119 $198 forward 7 unknown #
face $-1 $199 $200 $28 $-1 $201 reversed single #
loop $-1 $-1 $202 $76 #
plane-surface $-1 0 36.193274962040263 0 0 -1 0 0 0 -1 forward_v I I I I #
coedge $-1 $127 $203 $204 $205 reversed $77 $-1 #
coedge $-1 $206 $79 $207 $208 reversed $49 $-1 #
coedge $-1 $79 $206 $209 $210 reversed $49 $-1 #
coedge $-1 $211 $124 $79 $128 reversed $77 $-1 #
edge $-1 $212 -36.193274962040263 $213 36.193274962040263 $127 $214 forward 7 unknown #
face $-1 $215 $216 $29 $-1 $217 reversed single #
loop $-1 $-1 $218 $80 #
plane-surface $-1 -34.547373465582581 -152.00294101380484 107.04909326839136 1 0 0 0 0.74314483375859142 -0.66913059716165679 forward_v I I I I #
coedge $-1 $219 $220 $221 $222 reversed $81 $-1 #
coedge $-1 $134 $83 $223 $224 reversed $52 $-1 #
coedge $-1 $83 $133 $219 $225 reversed $52 $-1 #
coedge $-1 $221 $226 $83 $136 forward $227 $-1 #
edge $-1 $228 39.808195544862158 $229 51.949481324380592 $135 $230 forward 7 unknown #
loop $-1 $-1 $142 $84 #
plane-surface $-1 -20.042541096224305 -36.193274962040249 2.7736041818557737 0 -0.74314483375859142 0.66913059716165679 1 0 0 forward_v I I I I #
loop $-1 $-1 $231 $54 #
coedge $-1 $140 $140 $141 $232 reversed $85 $-1 #
coedge $-1 $141 $141 $140 $232 forward $87 $-1 #
coedge $-1 $142 $142 $88 $143 forward $137 $-1 #
edge $-1 $233 -4.2498898860825359e-016 $233 6.2831853071796004 $142 $234 forward 7 unknown #
loop $-1 $-1 $149 $89 #
plane-surface $-1 -20.042541096224305 -36.193274962040249 2.7736041818557737 0 -0.74314483375859142 0.66913059716165679 1 0 0 forward_v I I I I #
loop $-1 $-1 $235 $57 #
coedge $-1 $147 $147 $148 $236 reversed $90 $-1 #
coedge $-1 $148 $148 $147 $236 forward $92 $-1 #
coedge $-1 $149 $149 $93 $150 forward $144 $-1 #
edge $-1 $237 -4.2498898860825359e-016 $237 6.2831853071796004 $149 $238 forward 7 unknown #
face $-1 $239 $240 $32 $-1 $241 reversed single #
loop $-1 $-1 $157 $94 #
plane-surface $-1 0 0 16.2578684503091 0 0 1 1 0 0 forward_v I I I I #
coedge $-1 $242 $243 $244 $245 reversed $95 $-1 #
coedge $-1 $156 $97 $246 $247 reversed $61 $-1 #
coedge $-1 $97 $155 $242 $248 reversed $61 $-1 #
coedge $-1 $244 $249 $97 $158 forward $152 $-1 #
edge $-1 $250 26.261819286451917 $251 28.921505306711261 $157 $252 forward 7 unknown #
loop $-1 $-1 $164 $98 #
plane-surface $-1 68.939333348197891 -4.2847691957513661 72.325891864508606 0 0.82903758062907751 0.55919289150049634 1 0 0 forward_v I I I I #
loop $-1 $-1 $253 $63 #
coedge $-1 $162 $162 $163 $254 reversed $99 $-1 #
coedge $-1 $163 $163 $162 $254 forward $101 $-1 #
coedge $-1 $164 $164 $102 $165 forward $159 $-1 #
edge $-1 $255 -8.8939051993451917e-016 $255 6.2831853071795996 $164 $256 forward 7 unknown #
loop $-1 $-1 $171 $103 #
plane-surface $-1 68.939333348197891 -4.2847691957513661 72.325891864508606 0 0.82903758062907751 0.55919289150049634 1 0 0 forward_v I I I I #
loop $-1 $-1 $257 $66 #
coedge $-1 $169 $169 $170 $258 reversed $104 $-1 #
coedge $-1 $170 $170 $169 $258 forward $106 $-1 #
coedge $-1 $171 $171 $107 $172 forward $166 $-1 #
edge $-1 $259 -8.8939051993451917e-016 $259 6.2831853071795996 $171 $260 forward 7 unknown #
loop $-1 $-1 $178 $108 #
plane-surface $-1 68.939333348197891 -4.2847691957513661 72.325891864508606 0 0.82903758062907751 0.55919289150049634 1 0 0 forward_v I I I I #
loop $-1 $-1 $261 $69 #
coedge $-1 $176 $176 $177 $262 reversed $109 $-1 #
coedge $-1 $177 $177 $176 $262 forward $111 $-1 #
coedge $-1 $178 $178 $112 $179 forward $173 $-1 #
edge $-1 $263 -8.8939051993451917e-016 $263 6.2831853071795996 $178 $264 forward 7 unknown #
face $-1 $265 $266 $27 $-1 $267 reversed single #
loop $-1 $-1 $268 $113 #
plane-surface $-1 -77.918637653736994 0 0 1 0 0 0 0 -1 forward_v I I I I #
coedge $-1 $269 $191 $270 $271 forward $114 $-1 #
coedge $-1 $272 $116 $269 $273 forward $73 $-1 #
coedge $-1 $116 $272 $274 $275 forward $73 $-1 #
coedge $-1 $194 $193 $116 $187 reversed $195 $-1 #
edge $-1 $276 -36.193274962040263 $277 36.193274962040263 $186 $278 forward 7 unknown #
coedge $-1 $118 $117 $279 $280 forward $46 $-1 #
coedge $-1 $281 $282 $117 $190 reversed $266 $-1 #
edge $-1 $197 -77.918637653736994 $283 77.918637653736994 $189 $284 forward 7 unknown #
coedge $-1 $183 $285 $118 $192 reversed $114 $-1 #
edge $-1 $286 -77.918637653736994 $196 77.918637653736994 $191 $287 forward 7 unknown #
coedge $-1 $186 $119 $285 $288 forward $195 $-1 #
coedge $-1 $119 $186 $281 $289 reversed $195 $-1 #
loop $-1 $-1 $193 $265 #
vertex $-1 $120 $290 #
vertex $-1 $120 $291 #
straight-curve $-1 77.918637653736994 0 16.2578684503091 0 1 0 I I #
face $-1 $292 $293 $28 $-1 $294 forward single #
loop $-1 $-1 $295 $121 #
plane-surface $-1 -77.918637653736994 0 0 1 0 0 0 0 -1 forward_v I I I I #
coedge $-1 $209 $296 $211 $297 forward $122 $-1 #
coedge $-1 $124 $211 $298 $299 reversed $77 $-1 #
coedge $-1 $300 $207 $124 $205 forward $301 $-1 #
edge $-1 $213 4.2992528223061584 $302 9.4054946927706808 $204 $303 forward 7 unknown #
coedge $-1 $126 $125 $295 $304 reversed $49 $-1 #
coedge $-1 $204 $305 $125 $208 forward $301 $-1 #
edge $-1 $306 -42.835902793412309 $213 -27.32956692723706 $207 $307 forward 7 unknown #
coedge $-1 $308 $202 $126 $210 forward $122 $-1 #
edge $-1 $212 27.32956692723706 $309 42.835902793412309 $209 $310 forward 7 unknown #
coedge $-1 $203 $127 $202 $297 reversed $77 $-1 #
vertex $-1 $210 $311 #
vertex $-1 $208 $312 #
straight-curve $-1 -62.412301787561745 0 11.151626579844578 0 -1 0 I I #
face $-1 $-1 $227 $29 $-1 $313 forward single #
loop $-1 $-1 $314 $129 #
plane-surface $-1 0 -36.193274962040263 0 0 1 0 0 0 1 forward_v I I I I #
coedge $-1 $315 $316 $317 $318 reversed $130 $-1 #
coedge $-1 $319 $132 $134 $225 forward $81 $-1 #
coedge $-1 $132 $319 $315 $320 forward $81 $-1 #
coedge $-1 $317 $135 $132 $222 forward $227 $-1 #
edge $-1 $229 -4.4835618212461235 $321 24.526102917470428 $221 $322 forward 7 unknown #
coedge $-1 $323 $324 $133 $224 forward $216 $-1 #
edge $-1 $325 -50.75094245233992 $228 -37.266678183886583 $223 $326 forward 7 unknown #
edge $-1 $229 -18.144867132096152 $325 2.1389731374768986e-014 $134 $327 forward 7 unknown #
coedge $-1 $135 $317 $323 $328 forward $227 $-1 #
loop $-1 $-1 $317 $215 #
vertex $-1 $224 $329 #
vertex $-1 $136 $330 #
straight-curve $-1 -5.537708726866029 -76.001470506902422 16.257868450309097 0 1 0 I I #
coedge $-1 $231 $231 $-1 $331 reversed $139 $-1 #
edge $-1 $332 0 $332 6.2831853071796004 $140 $333 forward 7 unknown #
vertex $-1 $143 $334 #
ellipse-curve $-1 -26.258897825949276 -30.122632072281043 9.5157363160824318 0 -0.74314483375859142 0.66913059716165679 2.5 0 0 1 I I #
coedge $-1 $235 $235 $-1 $335 reversed $146 $-1 #
edge $-1 $336 0 $336 6.2831853071796004 $147 $337 forward 7 unknown #
vertex $-1 $150 $338 #
ellipse-curve $-1 -13.826184366499319 -30.122632072281043 9.5157363160824318 0 -0.74314483375859142 0.66913059716165679 2.5 0 0 1 I I #
face $-1 $-1 $339 $32 $-1 $340 reversed single #
loop $-1 $-1 $341 $151 #
plane-surface $-1 77.918637653736994 0 0 -1 0 0 0 0 1 forward_v I I I I #
coedge $-1 $342 $154 $156 $248 forward $95 $-1 #
coedge $-1 $154 $342 $341 $343 reversed $95 $-1 #
coedge $-1 $344 $157 $154 $245 forward $152 $-1 #
edge $-1 $251 25.490362368559872 $345 43.44897097963802 $244 $346 forward 7 unknown #
coedge $-1 $347 $348 $155 $247 forward $339 $-1 #
edge $-1 $349 -67.419772578264002 $250 -63.476625773317835 $246 $350 forward 7 unknown #
edge $-1 $251 67.630255520690426 $349 72.386549924080541 $156 $351 forward 7 unknown #
coedge $-1 $157 $344 $347 $352 forward $152 $-1 #
vertex $-1 $247 $353 #
vertex $-1 $158 $354 #
straight-curve $-1 59.960029042658817 62.45509424849218 16.257868450309104 0 -1 0 I I #
coedge $-1 $253 $253 $-1 $355 reversed $161 $-1 #
edge $-1 $356 0 $356 6.2831853071796004 $162 $357 forward 7 unknown #
vertex $-1 $165 $358 #
ellipse-curve $-1 63.551750764874441 34.863431951910592 14.28629504783602 0 0.82903758062907751 0.55919289150049634 1 0 0 1 I I #
coedge $-1 $257 $257 $-1 $359 reversed $168 $-1 #
edge $-1 $360 0 $360 6.2831853071796004 $169 $361 forward 7 unknown #
vertex $-1 $172 $362 #
ellipse-curve $-1 68.939333348197891 34.863431951910592 14.28629504783602 0 0.82903758062907751 0.55919289150049634 1 0 0 1 I I #
coedge $-1 $261 $261 $-1 $363 reversed $175 $-1 #
edge $-1 $364 0 $364 6.2831853071796004 $176 $365 forward 7 unknown #
vertex $-1 $179 $366 #
ellipse-curve $-1 74.326915931521341 34.863431951910592 14.28629504783602 0 0.82903758062907751 0.55919289150049634 1 0 0 1 I I #
face $-1 $-1 $195 $27 $-1 $367 reversed single #
loop $-1 $-1 $281 $180 #
plane-surface $-1 0 36.193274962040263 0 0 -1 0 0 0 -1 forward_v I I I I #
coedge $-1 $368 $279 $282 $369 forward $181 $-1 #
coedge $-1 $285 $183 $184 $273 reversed $114 $-1 #
coedge $-1 $279 $368 $183 $271 reversed $181 $-1 #
edge $-1 $286 -16.2578684503091 $370 16.2578684503091 $270 $371 forward 7 unknown #
coedge $-1 $185 $184 $368 $372 forward $73 $-1 #
edge $-1 $277 -77.918637653736994 $370 77.918637653736994 $269 $373 forward 7 unknown #
coedge $-1 $282 $281 $185 $275 reversed $266 $-1 #
edge $-1 $374 -77.918637653736994 $276 77.918637653736994 $274 $375 forward 7 unknown #
vertex $-1 $187 $376 #
vertex $-1 $288 $377 #
straight-curve $-1 77.918637653736994 0 -16.2578684503091 0 -1 0 I I #
coedge $-1 $268 $270 $188 $280 reversed $181 $-1 #
edge $-1 $283 -36.193274962040263 $286 36.193274962040263 $279 $378 forward 7 unknown #
coedge $-1 $274 $189 $194 $289 forward $266 $-1 #
coedge $-1 $189 $274 $268 $369 reversed $266 $-1 #
vertex $-1 $190 $379 #
straight-curve $-1 0 36.193274962040263 16.2578684503091 -1 0 0 I I #
coedge $-1 $191 $269 $193 $288 reversed $114 $-1 #
vertex $-1 $280 $380 #
straight-curve $-1 0 -36.193274962040263 16.2578684503091 1 0 0 I I #
edge $-1 $196 -16.2578684503091 $277 16.2578684503091 $193 $381 forward 7 unknown #
edge $-1 $197 -16.2578684503091 $276 16.2578684503091 $194 $382 forward 7 unknown #
point $-1 77.918637653736994 -36.193274962040263 16.2578684503091 #
point $-1 77.918637653736994 36.193274962040263 16.2578684503091 #
face $-1 $-1 $301 $28 $-1 $383 reversed single #
loop $-1 $-1 $298 $199 #
plane-surface $-1 0 0 16.2578684503091 0 0 1 1 0 0 forward_v I I I I #
coedge $-1 $384 $385 $206 $304 forward $200 $-1 #
coedge $-1 $202 $308 $386 $387 reversed $122 $-1 #
edge $-1 $388 -9.4054946927706808 $212 -4.2992528223061584 $202 $389 forward 7 unknown #
coedge $-1 $386 $390 $203 $299 forward $293 $-1 #
edge $-1 $302 -36.193274962040263 $388 36.193274962040263 $298 $391 forward 7 unknown #
coedge $-1 $305 $204 $390 $392 reversed $301 $-1 #
loop $-1 $-1 $204 $292 #
vertex $-1 $205 $393 #
straight-curve $-1 -62.412301787561745 -36.193274962040263 6.8523737575384196 0 0 1 I I #
edge $-1 $309 -36.193274962040263 $306 36.193274962040263 $295 $394 forward 7 unknown #
coedge $-1 $207 $300 $384 $395 forward $301 $-1 #
vertex $-1 $304 $396 #
straight-curve $-1 -35.082734860324685 -36.193274962040263 11.151626579844578 1 0 0 I I #
coedge $-1 $296 $209 $385 $397 reversed $122 $-1 #
vertex $-1 $304 $398 #
straight-curve $-1 -35.082734860324685 36.193274962040263 11.151626579844578 -1 0 0 I I #
point $-1 -62.412301787561745 36.193274962040263 11.151626579844578 #
point $-1 -62.412301787561745 -36.193274962040263 11.151626579844578 #
plane-surface $-1 0 0 16.2578684503091 0 0 1 1 0 0 forward_v I I I I #
coedge $-1 $324 $323 $316 $399 forward $216 $-1 #
coedge $-1 $316 $218 $220 $320 reversed $130 $-1 #
coedge $-1 $218 $315 $314 $399 reversed $130 $-1 #
coedge $-1 $226 $221 $218 $318 forward $227 $-1 #
edge $-1 $321 -51.949481324380592 $400 -39.808195544862158 $317 $401 forward 7 unknown #
coedge $-1 $220 $219 $324 $402 reversed $81 $-1 #
edge $-1 $403 -2.1389731374768986e-014 $321 18.144867132096152 $315 $404 forward 7 unknown #
vertex $-1 $222 $405 #
straight-curve $-1 -10.021270548112152 -24.051989182521829 16.2578684503091 -1 0 0 I I #
coedge $-1 $314 $223 $226 $328 reversed $216 $-1 #
coedge $-1 $223 $314 $319 $402 forward $216 $-1 #
vertex $-1 $224 $406 #
straight-curve $-1 -5.537708726866029 -36.193274962040263 53.52454663419568 0 0 1 I I #
straight-curve $-1 -5.537708726866029 -36.193274962040249 2.7736041818557737 0 -0.66913059716165679 -0.74314483375859142 I I #
edge $-1 $400 -34.547373465582581 $228 -5.537708726866029 $323 $407 forward 7 unknown #
point $-1 -5.537708726866029 -36.193274962040263 16.2578684503091 #
point $-1 -5.537708726866029 -24.051989182521829 16.2578684503091 #
edge $-1 $408 1 $408 0 $231 $-1 forward 7 unknown #
vertex $-1 $232 $409 #
ellipse-curve $-1 -26.258897825949276 -22.775892312047009 2.9007022882019196 0 -0.74314483375859142 0.66913059716165679 2.5 0 0 1 I I #
point $-1 -23.758897825949276 -30.122632072281064 9.5157363160824495 #
edge $-1 $410 1 $410 0 $235 $-1 forward 7 unknown #
vertex $-1 $236 $411 #
ellipse-curve $-1 -13.826184366499319 -22.775892312047009 2.9007022882019196 0 -0.74314483375859142 0.66913059716165679 2.5 0 0 1 I I #
point $-1 -11.326184366499319 -30.122632072281064 9.5157363160824495 #
loop $-1 $-1 $246 $239 #
plane-surface $-1 0 36.193274962040263 0 0 -1 0 0 0 -1 forward_v I I I I #
coedge $-1 $412 $413 $243 $343 forward $240 $-1 #
coedge $-1 $243 $242 $348 $414 reversed $95 $-1 #
edge $-1 $345 36.451808078601957 $415 41.208102481992071 $341 $416 forward 7 unknown #
coedge $-1 $249 $244 $413 $417 forward $152 $-1 #
vertex $-1 $417 $418 #
straight-curve $-1 34.469666674098946 33.533588941780913 16.257868450309104 1 0 0 I I #
coedge $-1 $419 $246 $249 $352 reversed $339 $-1 #
coedge $-1 $246 $419 $342 $414 forward $339 $-1 #
vertex $-1 $247 $420 #
straight-curve $-1 59.960029042658817 36.193274962040263 79.734494223626939 0 0 1 I I #
straight-curve $-1 59.960029042658817 -4.2847691957513661 72.325891864508606 0 0.55919289150049634 -0.82903758062907751 I I #
edge $-1 $421 -77.918637653736994 $250 -59.960029042658817 $347 $422 forward 7 unknown #
point $-1 59.960029042658817 36.193274962040263 16.2578684503091 #
point $-1 59.960029042658817 33.53358894178092 16.257868450309104 #
edge $-1 $423 1 $423 0 $253 $-1 forward 7 unknown #
vertex $-1 $254 $424 #
ellipse-curve $-1 63.551750764874441 31.568534462053016 12.063858698022907 0 0.82903758062907751 0.55919289150049634 1 0 0 1 I I #
point $-1 64.551750764874441 34.863431951910606 14.286295047836031 #
edge $-1 $425 1 $425 0 $257 $-1 forward 7 unknown #
vertex $-1 $258 $426 #
ellipse-curve $-1 68.939333348197891 31.568534462053016 12.063858698022907 0 0.82903758062907751 0.55919289150049634 1 0 0 1 I I #
point $-1 69.939333348197891 34.863431951910606 14.286295047836031 #
edge $-1 $427 1 $427 0 $261 $-1 forward 7 unknown #
vertex $-1 $262 $428 #
ellipse-curve $-1 74.326915931521341 31.568534462053016 12.063858698022907 0 0.82903758062907751 0.55919289150049634 1 0 0 1 I I #
point $-1 75.326915931521341 34.863431951910606 14.286295047836031 #
plane-surface $-1 77.918637653736994 0 0 -1 0 0 0 0 1 forward_v I I I I #
coedge $-1 $270 $268 $272 $372 reversed $181 $-1 #
edge $-1 $283 -16.2578684503091 $374 16.2578684503091 $282 $429 forward 7 unknown #
vertex $-1 $372 $430 #
straight-curve $-1 -77.918637653736994 -36.193274962040263 0 0 0 -1 I I #
edge $-1 $370 -36.193274962040263 $374 36.193274962040263 $368 $431 forward 7 unknown #
straight-curve $-1 0 -36.193274962040263 -16.2578684503091 -1 0 0 I I #
vertex $-1 $275 $432 #
straight-curve $-1 0 36.193274962040263 -16.2578684503091 1 0 0 I I #
point $-1 77.918637653736994 36.193274962040263 -16.2578684503091 #
point $-1 77.918637653736994 -36.193274962040263 -16.2578684503091 #
straight-curve $-1 -77.918637653736994 0 16.2578684503091 0 -1 0 I I #
point $-1 -77.918637653736994 36.193274962040263 16.2578684503091 #
point $-1 -77.918637653736994 -36.193274962040263 16.2578684503091 #
straight-curve $-1 77.918637653736994 -36.193274962040263 0 0 0 -1 I I #
straight-curve $-1 77.918637653736994 36.193274962040263 0 0 0 -1 I I #
plane-surface $-1 0 -36.193274962040263 0 0 1 0 0 0 1 forward_v I I I I #
coedge $-1 $433 $295 $305 $395 reversed $200 $-1 #
coedge $-1 $295 $433 $308 $397 forward $200 $-1 #
coedge $-1 $434 $298 $296 $387 forward $293 $-1 #
edge $-1 $388 62.412301787561745 $435 77.918637653736994 $296 $436 forward 7 unknown #
vertex $-1 $387 $437 #
straight-curve $-1 -62.412301787561745 36.193274962040263 6.8523737575384196 0 0 -1 I I #
coedge $-1 $298 $434 $300 $392 forward $293 $-1 #
straight-curve $-1 -62.412301787561745 0 16.2578684503091 0 1 0 I I #
edge $-1 $438 -77.918637653736994 $302 -62.412301787561745 $300 $439 forward 7 unknown #
point $-1 -62.412301787561745 -36.193274962040263 16.2578684503091 #
straight-curve $-1 -77.918637653736994 0 11.151626579844578 0 -1 0 I I #
edge $-1 $438 -16.2578684503091 $306 -11.151626579844578 $384 $440 forward 7 unknown #
point $-1 -77.918637653736994 -36.193274962040263 11.151626579844578 #
edge $-1 $435 -16.2578684503091 $309 -11.151626579844578 $308 $441 forward 7 unknown #
point $-1 -77.918637653736994 36.193274962040263 11.151626579844578 #
edge $-1 $400 37.266678183886583 $403 50.75094245233992 $314 $442 forward 7 unknown #
vertex $-1 $328 $443 #
straight-curve $-1 -34.547373465582581 -76.001470506902422 16.257868450309097 0 -1 0 I I #
edge $-1 $403 -24.526102917470428 $325 4.4835618212461235 $324 $444 forward 7 unknown #
vertex $-1 $402 $445 #
straight-curve $-1 -34.547373465582581 -36.193274962040249 2.7736041818557737 0 0.66913059716165679 0.74314483375859142 I I #
point $-1 -34.547373465582581 -24.051989182521829 16.2578684503091 #
point $-1 -5.537708726866029 -36.193274962040263 2.7736041818557577 #
straight-curve $-1 0 -36.193274962040263 16.2578684503091 1 0 0 I I #
vertex $-1 $331 $446 #
point $-1 -23.758897825949276 -22.775892312047009 2.9007022882019196 #
vertex $-1 $335 $447 #
point $-1 -11.326184366499319 -22.775892312047009 2.9007022882019196 #
coedge $-1 $413 $341 $419 $448 reversed $240 $-1 #
coedge $-1 $341 $412 $344 $417 reversed $240 $-1 #
edge $-1 $415 -43.44897097963802 $349 -25.490362368559872 $348 $449 forward 7 unknown #
vertex $-1 $343 $450 #
straight-curve $-1 77.918637653736994 13.149996981886346 46.477787229348728 0 0.55919289150049634 -0.82903758062907751 I I #
edge $-1 $345 33.53358894178092 $421 36.193274962040263 $413 $451 forward 7 unknown #
point $-1 77.918637653736965 33.53358894178092 16.257868450309104 #
coedge $-1 $348 $347 $412 $448 forward $339 $-1 #
point $-1 59.960029042658817 36.193274962040263 12.314721645362937 #
vertex $-1 $417 $452 #
straight-curve $-1 0 36.193274962040263 16.2578684503091 -1 0 0 I I #
vertex $-1 $355 $453 #
point $-1 64.551750764874441 31.568534462053016 12.063858698022907 #
vertex $-1 $359 $454 #
point $-1 69.939333348197891 31.568534462053016 12.063858698022907 #
vertex $-1 $363 $455 #
point $-1 75.326915931521341 31.568534462053016 12.063858698022907 #
straight-curve $-1 -77.918637653736994 36.193274962040263 0 0 0 -1 I I #
point $-1 -77.918637653736994 -36.193274962040263 -16.2578684503091 #
straight-curve $-1 -77.918637653736994 0 -16.2578684503091 0 1 0 I I #
point $-1 -77.918637653736994 36.193274962040263 -16.2578684503091 #
coedge $-1 $385 $384 $434 $456 reversed $200 $-1 #
coedge $-1 $390 $386 $433 $456 forward $293 $-1 #
vertex $-1 $387 $457 #
straight-curve $-1 0 36.193274962040263 16.2578684503091 -1 0 0 I I #
point $-1 -62.412301787561745 36.193274962040263 16.2578684503091 #
vertex $-1 $456 $458 #
straight-curve $-1 0 -36.193274962040263 16.2578684503091 1 0 0 I I #
straight-curve $-1 -77.918637653736994 -36.193274962040263 0 0 0 -1 I I #
straight-curve $-1 -77.918637653736994 36.193274962040263 0 0 0 -1 I I #
straight-curve $-1 -34.547373465582581 -36.193274962040263 53.52454663419568 0 0 -1 I I #
point $-1 -34.547373465582581 -36.193274962040263 16.2578684503091 #
straight-curve $-1 -10.021270548112152 -36.193274962040263 2.7736041818557569 1 0 0 I I #
point $-1 -34.547373465582581 -36.193274962040263 2.7736041818557577 #
point $-1 -26.258897825949276 -20.918030227650529 1.2278757952977775 #
point $-1 -13.826184366499319 -20.918030227650529 1.2278757952977775 #
edge $-1 $421 -16.2578684503091 $415 -12.314721645362937 $412 $459 forward 7 unknown #
straight-curve $-1 34.469666674098946 36.193274962040263 12.314721645362948 -1 0 0 I I #
point $-1 77.918637653736965 36.193274962040263 12.314721645362937 #
straight-curve $-1 77.918637653736994 0 16.2578684503091 0 1 0 I I #
point $-1 77.918637653736994 36.193274962040263 16.2578684503091 #
point $-1 63.551750764874441 30.739496881423939 11.504665806522409 #
point $-1 68.939333348197891 30.739496881423939 11.504665806522409 #
point $-1 74.326915931521341 30.739496881423939 11.504665806522409 #
edge $-1 $435 -36.193274962040263 $438 36.193274962040263 $433 $460 forward 7 unknown #
point $-1 -77.918637653736994 36.193274962040263 16.2578684503091 #
point $-1 -77.918637653736994 -36.193274962040263 16.2578684503091 #
straight-curve $-1 77.918637653736994 36.193274962040263 0 0 0 -1 I I #
straight-curve $-1 -77.918637653736994 0 16.2578684503091 0 -1 0 I I #
End-of-ACIS-data 