500 0 6 0           
7 Unknown 11 ACIS 5.0 NT 24 Fri Mar 26 20:43:51 1999 
-1 9.9999999999999995e-007 1e-010 
body $-1 $6 $-1 $7 #
body $-1 $8 $-1 $9 #
body $-1 $10 $-1 $11 #
body $-1 $12 $-1 $13 #
body $-1 $14 $-1 $15 #
body $-1 $16 $-1 $17 #
lump $-1 $-1 $18 $0 #
transform $-1 1 0 0 0 1 0 0 0 1 69.480880153813288 44.517636350633801 13.674292980910494 1 rotate no_reflect no_shear #
lump $-1 $-1 $19 $1 #
transform $-1 1 0 0 0 1 0 0 0 1 69.480880153813288 44.517636350633801 13.674292980910494 1 rotate no_reflect no_shear #
lump $-1 $-1 $20 $2 #
transform $-1 1 0 0 0 1 0 0 0 1 69.480880153813288 44.517636350633801 13.674292980910494 1 rotate no_reflect no_shear #
lump $-1 $-1 $21 $3 #
transform $-1 1 0 0 0 1 0 0 0 1 69.480880153813288 44.517636350633801 13.674292980910494 1 rotate no_reflect no_shear #
lump $-1 $-1 $22 $4 #
transform $-1 1 0 0 0 1 0 0 0 1 69.480880153813288 44.517636350633801 13.674292980910494 1 rotate no_reflect no_shear #
lump $-1 $-1 $23 $5 #
transform $-1 1 0 0 0 1 0 0 0 1 69.480880153813288 44.517636350633801 13.674292980910494 1 rotate no_reflect no_shear #
shell $-1 $-1 $-1 $24 $-1 $6 #
shell $-1 $-1 $-1 $25 $-1 $8 #
shell $-1 $-1 $-1 $26 $-1 $10 #
shell $-1 $-1 $-1 $27 $-1 $12 #
shell $-1 $-1 $-1 $28 $-1 $14 #
shell $-1 $-1 $-1 $29 $-1 $16 #
face $-1 $30 $31 $18 $-1 $32 forward single #
face $-1 $33 $34 $19 $-1 $35 reversed single #
face $-1 $36 $37 $20 $-1 $38 reversed single #
face $-1 $39 $40 $21 $-1 $41 forward single #
face $-1 $42 $43 $22 $-1 $44 reversed single #
face $-1 $45 $46 $23 $-1 $47 forward single #
face $-1 $48 $49 $18 $-1 $50 reversed single #
loop $-1 $-1 $51 $24 #
plane-surface $-1 0 0 13.674292980910494 0 0 1 1 0 0 forward_v I I I I #
face $-1 $52 $53 $19 $-1 $54 reversed single #
loop $-1 $-1 $55 $25 #
plane-surface $-1 -62.926321251236807 0 10.609919270811133 0 0 1 1 0 0 forward_v I I I I #
face $-1 $56 $57 $20 $-1 $58 reversed single #
loop $-1 $-1 $59 $26 #
plane-surface $-1 -30.054744581922478 -113.99851743531528 130.92912205882311 -1 0 0 0 -0.50000000669873634 0.8660253999169214 forward_v I I I I #
face $-1 $60 $61 $21 $-1 $62 forward single #
loop $-1 $63 $64 $27 #
cone-surface $-1 -43.213253465291402 -41.408683157300786 11.379012987984195 0 0.50000000669873634 -0.8660253999169214 1 0 0 1 I I 0 1 1 forward I I I I #
face $-1 $65 $66 $22 $-1 $67 reversed single #
loop $-1 $-1 $68 $28 #
plane-surface $-1 -43.213253465291402 -32.589171297193623 55.102344962309104 0 0.50000000669873634 0.8660253999169214 1 0 0 forward_v I I I I #
face $-1 $69 $70 $23 $-1 $71 forward single #
loop $-1 $72 $73 $29 #
cone-surface $-1 -43.213253465291402 41.408683157300779 11.379012987984199 0 -0.50000000669873634 -0.8660253999169214 1 0 0 1 I I 0 1 1 forward I I I I #
face $-1 $74 $75 $18 $-1 $76 reversed single #
loop $-1 $-1 $77 $30 #
plane-surface $-1 0 0 -13.674292980910494 0 0 1 1 0 0 forward_v I I I I #
coedge $-1 $78 $79 $80 $81 forward $31 $-1 #
face $-1 $82 $83 $19 $-1 $84 reversed single #
loop $-1 $-1 $85 $33 #
plane-surface $-1 -56.371762348660326 0 12.142106125860813 -1 0 0 0 0 1 forward_v I I I I #
coedge $-1 $86 $87 $88 $89 forward $34 $-1 #
face $-1 $90 $91 $20 $-1 $92 forward single #
loop $-1 $-1 $93 $36 #
plane-surface $-1 -43.213253465291402 -44.517636350633794 10.584708015251437 0 -0.50000000669873634 0.8660253999169214 1 0 0 forward_v I I I I #
coedge $-1 $94 $95 $96 $97 reversed $37 $-1 #
face $-1 $-1 $98 $21 $-1 $99 forward single #
loop $-1 $100 $101 $39 #
cone-surface $-1 -43.213253465291402 -40.725388980233532 10.195512777928961 0 0.50000000669873634 -0.8660253999169214 0.5 0 0 1 I I -0.70710678118654746 0.70710678118654746 0.5 forward I I I I #
loop $-1 $-1 $102 $27 #
coedge $-1 $64 $64 $103 $104 reversed $40 $-1 #
face $-1 $105 $106 $22 $-1 $107 forward single #
loop $-1 $-1 $108 $42 #
plane-surface $-1 -30.054744581922478 36.891709787487862 175.44675900588078 -1 0 0 0 0.50000000669873634 0.8660253999169214 forward_v I I I I #
coedge $-1 $109 $110 $111 $112 reversed $43 $-1 #
face $-1 $-1 $113 $23 $-1 $114 forward single #
loop $-1 $115 $116 $45 #
cone-surface $-1 -43.213253465291402 40.725388980233525 10.195512777928965 0 -0.50000000669873634 -0.8660253999169214 0.5 0 0 1 I I -0.70710678118654746 0.70710678118654746 0.5 forward I I I I #
loop $-1 $-1 $117 $29 #
coedge $-1 $73 $73 $118 $119 reversed $46 $-1 #
face $-1 $120 $121 $18 $-1 $122 reversed single #
loop $-1 $-1 $123 $48 #
plane-surface $-1 0 -44.517636350633801 0 0 1 0 0 0 1 forward_v I I I I #
coedge $-1 $124 $125 $126 $127 forward $49 $-1 #
coedge $-1 $128 $51 $129 $130 forward $31 $-1 #
coedge $-1 $51 $128 $131 $132 forward $31 $-1 #
coedge $-1 $133 $134 $51 $81 reversed $135 $-1 #
edge $-1 $136 -44.517636350633801 $137 44.517636350633801 $80 $138 forward 7 unknown #
face $-1 $139 $140 $19 $-1 $141 reversed single #
loop $-1 $-1 $142 $52 #
plane-surface $-1 0 44.517636350633801 0 0 -1 0 0 0 -1 forward_v I I I I #
coedge $-1 $88 $143 $144 $145 reversed $53 $-1 #
coedge $-1 $146 $55 $147 $148 reversed $34 $-1 #
coedge $-1 $55 $146 $149 $150 reversed $34 $-1 #
coedge $-1 $151 $85 $55 $89 reversed $53 $-1 #
edge $-1 $152 -44.517636350633801 $153 44.517636350633801 $88 $154 forward 7 unknown #
face $-1 $155 $156 $20 $-1 $157 forward single #
loop $-1 $-1 $158 $56 #
plane-surface $-1 -56.371762348660326 0 12.142106125860813 -1 0 0 0 0 1 forward_v I I I I #
coedge $-1 $159 $160 $161 $162 reversed $57 $-1 #
coedge $-1 $95 $59 $163 $164 reversed $37 $-1 #
coedge $-1 $59 $94 $159 $165 reversed $37 $-1 #
coedge $-1 $161 $166 $59 $97 forward $156 $-1 #
edge $-1 $167 12.481622367023839 $168 17.832940406254096 $96 $169 forward 7 unknown #
loop $-1 $-1 $103 $60 #
plane-surface $-1 -43.213253465291402 -44.517636350633794 10.584708015251437 0 -0.50000000669873634 0.8660253999169214 1 0 0 forward_v I I I I #
loop $-1 $-1 $170 $39 #
coedge $-1 $101 $101 $102 $171 reversed $61 $-1 #
coedge $-1 $102 $102 $101 $171 forward $63 $-1 #
coedge $-1 $103 $103 $64 $104 forward $98 $-1 #
edge $-1 $172 -5.2653021373475698e-015 $172 6.2831853071795951 $103 $173 forward 7 unknown #
face $-1 $174 $175 $22 $-1 $176 reversed single #
loop $-1 $-1 $111 $65 #
plane-surface $-1 0 0 13.674292980910494 0 0 1 1 0 0 forward_v I I I I #
coedge $-1 $177 $178 $179 $180 reversed $66 $-1 #
coedge $-1 $181 $68 $182 $183 reversed $43 $-1 #
coedge $-1 $68 $181 $177 $184 forward $43 $-1 #
coedge $-1 $179 $185 $68 $112 forward $106 $-1 #
edge $-1 $186 -34.765135616014625 $187 -8.4481178492767768 $111 $188 forward 7 unknown #
loop $-1 $-1 $118 $69 #
plane-surface $-1 -43.213253465291402 -32.589171297193623 55.102344962309104 0 0.50000000669873634 0.8660253999169214 1 0 0 forward_v I I I I #
loop $-1 $-1 $189 $45 #
coedge $-1 $116 $116 $117 $190 reversed $70 $-1 #
coedge $-1 $117 $117 $116 $190 forward $72 $-1 #
coedge $-1 $118 $118 $73 $119 forward $113 $-1 #
edge $-1 $191 1.9676622199467145e-015 $191 6.2831853071796022 $118 $192 forward 7 unknown #
face $-1 $193 $194 $18 $-1 $195 reversed single #
loop $-1 $-1 $196 $74 #
plane-surface $-1 -69.480880153813288 0 0 1 0 0 0 0 -1 forward_v I I I I #
coedge $-1 $197 $131 $198 $199 forward $75 $-1 #
coedge $-1 $200 $77 $197 $201 forward $49 $-1 #
coedge $-1 $77 $200 $202 $203 forward $49 $-1 #
coedge $-1 $134 $133 $77 $127 reversed $135 $-1 #
edge $-1 $204 -44.517636350633801 $205 44.517636350633801 $126 $206 forward 7 unknown #
coedge $-1 $79 $78 $207 $208 forward $31 $-1 #
coedge $-1 $209 $210 $78 $130 reversed $194 $-1 #
edge $-1 $137 -69.480880153813288 $211 69.480880153813288 $129 $212 forward 7 unknown #
coedge $-1 $123 $213 $79 $132 reversed $75 $-1 #
edge $-1 $214 -69.480880153813288 $136 69.480880153813288 $131 $215 forward 7 unknown #
coedge $-1 $126 $80 $213 $216 forward $135 $-1 #
coedge $-1 $80 $126 $209 $217 reversed $135 $-1 #
loop $-1 $-1 $133 $193 #
vertex $-1 $81 $218 #
vertex $-1 $81 $219 #
straight-curve $-1 69.480880153813288 0 13.674292980910494 0 1 0 I I #
face $-1 $220 $221 $19 $-1 $222 forward single #
loop $-1 $-1 $223 $82 #
plane-surface $-1 -69.480880153813288 0 0 1 0 0 0 0 -1 forward_v I I I I #
coedge $-1 $149 $224 $151 $225 forward $83 $-1 #
coedge $-1 $85 $151 $226 $227 reversed $53 $-1 #
coedge $-1 $228 $147 $85 $145 forward $229 $-1 #
edge $-1 $153 4.5388662078807265 $230 7.6032399179800869 $144 $231 forward 7 unknown #
coedge $-1 $87 $86 $223 $232 reversed $34 $-1 #
coedge $-1 $144 $233 $86 $148 forward $229 $-1 #
edge $-1 $234 -38.017719528194888 $153 -24.908601723041922 $147 $235 forward 7 unknown #
coedge $-1 $236 $142 $87 $150 forward $83 $-1 #
edge $-1 $152 24.908601723041922 $237 38.017719528194888 $149 $238 forward 7 unknown #
coedge $-1 $143 $88 $142 $225 reversed $53 $-1 #
vertex $-1 $150 $239 #
vertex $-1 $148 $240 #
straight-curve $-1 -56.371762348660326 0 10.609919270811133 0 -1 0 I I #
face $-1 $-1 $241 $20 $-1 $242 reversed single #
loop $-1 $-1 $161 $90 #
plane-surface $-1 0 0 13.674292980910494 0 0 1 1 0 0 forward_v I I I I #
coedge $-1 $243 $244 $160 $245 reversed $91 $-1 #
coedge $-1 $246 $93 $95 $165 forward $57 $-1 #
coedge $-1 $93 $246 $158 $245 forward $57 $-1 #
coedge $-1 $247 $96 $93 $162 forward $156 $-1 #
edge $-1 $168 8.4481178492767768 $248 34.765135616014625 $161 $249 forward 7 unknown #
coedge $-1 $250 $251 $94 $164 forward $241 $-1 #
edge $-1 $252 -54.879853014160119 $167 -51.790268048501062 $163 $253 forward 7 unknown #
edge $-1 $168 -6.1791698485328563 $252 7.929837432145984e-015 $95 $254 forward 7 unknown #
coedge $-1 $96 $247 $250 $255 forward $156 $-1 #
vertex $-1 $164 $256 #
vertex $-1 $97 $257 #
straight-curve $-1 -30.054744581922478 -56.999258717657639 13.674292980910494 0 1 0 I I #
coedge $-1 $170 $170 $-1 $258 reversed $100 $-1 #
edge $-1 $259 0 $259 6.2831853071796004 $101 $260 forward 7 unknown #
vertex $-1 $104 $261 #
ellipse-curve $-1 -43.213253465291402 -41.841977331018668 12.129500498080965 0 -0.50000000669873634 0.8660253999169214 1 0 0 1 I I #
face $-1 $-1 $262 $22 $-1 $263 forward single #
loop $-1 $-1 $264 $105 #
plane-surface $-1 0 44.517636350633801 0 0 -1 0 0 0 -1 forward_v I I I I #
coedge $-1 $178 $108 $110 $184 reversed $66 $-1 #
coedge $-1 $108 $177 $264 $265 reversed $66 $-1 #
coedge $-1 $266 $111 $108 $180 forward $106 $-1 #
edge $-1 $187 20.720463417659719 $267 26.07178145688987 $179 $268 forward 7 unknown #
coedge $-1 $110 $109 $269 $270 reversed $43 $-1 #
coedge $-1 $271 $272 $109 $183 forward $262 $-1 #
edge $-1 $273 -64.183687795459278 $186 -58.004517946926541 $182 $274 forward 7 unknown #
edge $-1 $275 -89.035272701267601 $187 -82.85610285273485 $177 $276 forward 7 unknown #
coedge $-1 $111 $266 $271 $277 forward $106 $-1 #
vertex $-1 $183 $278 #
vertex $-1 $112 $279 #
straight-curve $-1 -21.606626732645701 39.166318311403643 13.674292980910494 1 0 0 I I #
coedge $-1 $189 $189 $-1 $280 reversed $115 $-1 #
edge $-1 $281 0 $281 6.2831853071796004 $116 $282 forward 7 unknown #
vertex $-1 $119 $283 #
ellipse-curve $-1 -43.213253465291402 41.84197733101869 12.129500498081011 0 0.50000000669873634 0.8660253999169214 1 0 0 1 I I #
face $-1 $-1 $135 $18 $-1 $284 reversed single #
loop $-1 $-1 $209 $120 #
plane-surface $-1 0 44.517636350633801 0 0 -1 0 0 0 -1 forward_v I I I I #
coedge $-1 $285 $207 $210 $286 forward $121 $-1 #
coedge $-1 $213 $123 $124 $201 reversed $75 $-1 #
coedge $-1 $207 $285 $123 $199 reversed $121 $-1 #
edge $-1 $214 -13.674292980910494 $287 13.674292980910494 $198 $288 forward 7 unknown #
coedge $-1 $125 $124 $285 $289 forward $49 $-1 #
edge $-1 $205 -69.480880153813288 $287 69.480880153813288 $197 $290 forward 7 unknown #
coedge $-1 $210 $209 $125 $203 reversed $194 $-1 #
edge $-1 $291 -69.480880153813288 $204 69.480880153813288 $202 $292 forward 7 unknown #
vertex $-1 $127 $293 #
vertex $-1 $216 $294 #
straight-curve $-1 69.480880153813288 0 -13.674292980910494 0 -1 0 I I #
coedge $-1 $196 $198 $128 $208 reversed $121 $-1 #
edge $-1 $211 -44.517636350633801 $214 44.517636350633801 $207 $295 forward 7 unknown #
coedge $-1 $202 $129 $134 $217 forward $194 $-1 #
coedge $-1 $129 $202 $196 $286 reversed $194 $-1 #
vertex $-1 $130 $296 #
straight-curve $-1 0 44.517636350633801 13.674292980910494 -1 0 0 I I #
coedge $-1 $131 $197 $133 $216 reversed $75 $-1 #
vertex $-1 $208 $297 #
straight-curve $-1 0 -44.517636350633801 13.674292980910494 1 0 0 I I #
edge $-1 $136 -13.674292980910494 $205 13.674292980910494 $133 $298 forward 7 unknown #
edge $-1 $137 -13.674292980910494 $204 13.674292980910494 $134 $299 forward 7 unknown #
point $-1 69.480880153813288 -44.517636350633801 13.674292980910494 #
point $-1 69.480880153813288 44.517636350633801 13.674292980910494 #
face $-1 $-1 $229 $19 $-1 $300 reversed single #
loop $-1 $-1 $226 $139 #
plane-surface $-1 0 0 13.674292980910494 0 0 1 1 0 0 forward_v I I I I #
coedge $-1 $301 $302 $146 $232 forward $140 $-1 #
coedge $-1 $142 $236 $303 $304 reversed $83 $-1 #
edge $-1 $305 -7.6032399179800869 $152 -4.5388662078807265 $142 $306 forward 7 unknown #
coedge $-1 $303 $307 $143 $227 forward $221 $-1 #
edge $-1 $230 -44.517636350633801 $305 44.517636350633801 $226 $308 forward 7 unknown #
coedge $-1 $233 $144 $307 $309 reversed $229 $-1 #
loop $-1 $-1 $144 $220 #
vertex $-1 $145 $310 #
straight-curve $-1 -56.371762348660326 -44.517636350633801 6.0710530629304067 0 0 1 I I #
edge $-1 $237 -44.517636350633801 $234 44.517636350633801 $223 $311 forward 7 unknown #
coedge $-1 $147 $228 $301 $312 forward $229 $-1 #
vertex $-1 $232 $313 #
straight-curve $-1 -31.463160625618404 -44.517636350633801 10.609919270811133 1 0 0 I I #
coedge $-1 $224 $149 $302 $314 reversed $83 $-1 #
vertex $-1 $232 $315 #
straight-curve $-1 -31.463160625618404 44.517636350633801 10.609919270811133 -1 0 0 I I #
point $-1 -56.371762348660326 44.517636350633801 10.609919270811133 #
point $-1 -56.371762348660326 -44.517636350633801 10.609919270811133 #
loop $-1 $-1 $163 $155 #
plane-surface $-1 0 -44.517636350633801 0 0 1 0 0 0 1 forward_v I I I I #
coedge $-1 $244 $158 $316 $317 reversed $91 $-1 #
coedge $-1 $158 $243 $247 $318 reversed $91 $-1 #
edge $-1 $319 -7.929837432145984e-015 $248 6.1791698485328501 $158 $320 forward 7 unknown #
coedge $-1 $160 $159 $251 $321 reversed $57 $-1 #
coedge $-1 $166 $161 $244 $318 forward $156 $-1 #
vertex $-1 $318 $322 #
straight-curve $-1 -21.606626732645701 -39.16631831140355 13.674292980910494 -1 0 0 I I #
coedge $-1 $316 $163 $166 $255 reversed $241 $-1 #
coedge $-1 $163 $316 $246 $321 forward $241 $-1 #
vertex $-1 $164 $323 #
straight-curve $-1 -30.054744581922478 -44.517636350633801 65.464561029411556 0 0 1 I I #
straight-curve $-1 -30.054744581922478 -44.517636350633794 10.584708015251437 0 -0.8660253999169214 -0.50000000669873634 I I #
edge $-1 $324 -56.371762348660326 $167 -30.054744581922478 $250 $325 forward 7 unknown #
point $-1 -30.054744581922478 -44.517636350633801 13.674292980910494 #
point $-1 -30.054744581922478 -39.166318311403543 13.674292980910494 #
edge $-1 $326 1 $326 0 $170 $-1 forward 7 unknown #
vertex $-1 $171 $327 #
ellipse-curve $-1 -43.213253465291402 -40.975388983582903 10.628525477887422 0 -0.50000000669873634 0.8660253999169214 1 0 0 1 I I #
point $-1 -42.213253465291402 -41.841977331018676 12.129500498080967 #
loop $-1 $-1 $182 $174 #
plane-surface $-1 -56.371762348660326 0 12.142106125860813 -1 0 0 0 0 1 forward_v I I I I #
coedge $-1 $269 $328 $178 $265 forward $175 $-1 #
edge $-1 $267 74.049086522029896 $275 77.138671487688896 $264 $329 forward 7 unknown #
coedge $-1 $185 $179 $328 $330 forward $106 $-1 #
vertex $-1 $330 $331 #
straight-curve $-1 -30.054744581922478 18.445854893743931 13.674292980910494 0 1 0 I I #
coedge $-1 $332 $264 $181 $270 forward $175 $-1 #
edge $-1 $275 8.4481178492767768 $273 34.765135616014625 $269 $333 forward 7 unknown #
coedge $-1 $272 $182 $185 $277 reversed $262 $-1 #
coedge $-1 $182 $271 $332 $334 reversed $262 $-1 #
vertex $-1 $334 $335 #
straight-curve $-1 -56.371762348660326 -11.067067540571653 42.676552342930734 0 -0.8660253999169214 0.50000000669873634 I I #
vertex $-1 $270 $336 #
straight-curve $-1 -30.054744581922478 -32.589171297193623 55.102344962309104 0 -0.8660253999169214 0.50000000669873634 I I #
edge $-1 $337 -44.517636350633801 $186 -39.16631831140365 $185 $338 forward 7 unknown #
point $-1 -56.371762348660326 39.16631831140365 13.674292980910494 #
point $-1 -30.054744581922478 39.16631831140365 13.674292980910494 #
edge $-1 $339 1 $339 0 $189 $-1 forward 7 unknown #
vertex $-1 $190 $340 #
ellipse-curve $-1 -43.213253465291402 40.975388983582896 10.628525477887425 0 0.50000000669873634 0.8660253999169214 1 0 0 1 I I #
point $-1 -42.213253465291402 41.841977331018668 12.12950049808097 #
plane-surface $-1 69.480880153813288 0 0 -1 0 0 0 0 1 forward_v I I I I #
coedge $-1 $198 $196 $200 $289 reversed $121 $-1 #
edge $-1 $211 -13.674292980910494 $291 13.674292980910494 $210 $341 forward 7 unknown #
vertex $-1 $289 $342 #
straight-curve $-1 -69.480880153813288 -44.517636350633801 0 0 0 -1 I I #
edge $-1 $287 -44.517636350633801 $291 44.517636350633801 $285 $343 forward 7 unknown #
straight-curve $-1 0 -44.517636350633801 -13.674292980910494 -1 0 0 I I #
vertex $-1 $203 $344 #
straight-curve $-1 0 44.517636350633801 -13.674292980910494 1 0 0 I I #
point $-1 69.480880153813288 44.517636350633801 -13.674292980910494 #
point $-1 69.480880153813288 -44.517636350633801 -13.674292980910494 #
straight-curve $-1 -69.480880153813288 0 13.674292980910494 0 -1 0 I I #
point $-1 -69.480880153813288 44.517636350633801 13.674292980910494 #
point $-1 -69.480880153813288 -44.517636350633801 13.674292980910494 #
straight-curve $-1 69.480880153813288 -44.517636350633801 0 0 0 -1 I I #
straight-curve $-1 69.480880153813288 44.517636350633801 0 0 0 -1 I I #
plane-surface $-1 0 -44.517636350633801 0 0 1 0 0 0 1 forward_v I I I I #
coedge $-1 $345 $223 $233 $312 reversed $140 $-1 #
coedge $-1 $223 $345 $236 $314 forward $140 $-1 #
coedge $-1 $346 $226 $224 $304 forward $221 $-1 #
edge $-1 $305 56.371762348660326 $347 69.480880153813288 $224 $348 forward 7 unknown #
vertex $-1 $304 $349 #
straight-curve $-1 -56.371762348660326 44.517636350633801 6.0710530629304067 0 0 -1 I I #
coedge $-1 $226 $346 $228 $309 forward $221 $-1 #
straight-curve $-1 -56.371762348660326 0 13.674292980910494 0 1 0 I I #
edge $-1 $350 -69.480880153813288 $230 -56.371762348660326 $228 $351 forward 7 unknown #
point $-1 -56.371762348660326 -44.517636350633801 13.674292980910494 #
straight-curve $-1 -69.480880153813288 0 10.609919270811133 0 -1 0 I I #
edge $-1 $350 -13.674292980910494 $234 -10.609919270811133 $301 $352 forward 7 unknown #
point $-1 -69.480880153813288 -44.517636350633801 10.609919270811133 #
edge $-1 $347 -13.674292980910494 $237 -10.609919270811133 $236 $353 forward 7 unknown #
point $-1 -69.480880153813288 44.517636350633801 10.609919270811133 #
coedge $-1 $251 $250 $243 $317 forward $241 $-1 #
edge $-1 $324 51.790268048501062 $319 54.879853014160119 $316 $354 forward 7 unknown #
edge $-1 $248 39.16631831140355 $324 44.517636350633801 $247 $355 forward 7 unknown #
vertex $-1 $317 $356 #
straight-curve $-1 -56.371762348660326 -44.517636350633794 10.584708015251437 0 0.8660253999169214 0.50000000669873634 I I #
edge $-1 $319 -34.765135616014625 $252 -8.4481178492767768 $251 $357 forward 7 unknown #
point $-1 -56.371762348660326 -39.16631831140355 13.674292980910494 #
point $-1 -30.054744581922478 -44.517636350633801 10.584708015251433 #
vertex $-1 $255 $358 #
straight-curve $-1 0 -44.517636350633801 13.674292980910494 1 0 0 I I #
vertex $-1 $258 $359 #
point $-1 -42.213253465291402 -40.975388983582903 10.628525477887422 #
coedge $-1 $264 $332 $266 $330 reversed $175 $-1 #
straight-curve $-1 -30.054744581922478 44.517636350633801 87.723379502940389 0 0 -1 I I #
edge $-1 $267 30.054744581922478 $337 56.371762348660326 $328 $360 forward 7 unknown #
point $-1 -30.054744581922478 44.517636350633801 13.674292980910494 #
coedge $-1 $328 $269 $272 $334 forward $175 $-1 #
straight-curve $-1 -21.606626732645701 44.517636350633808 10.584708015251486 -1 0 0 I I #
edge $-1 $273 -77.138671487688896 $337 -74.049086522029896 $332 $361 forward 7 unknown #
point $-1 -56.371762348660326 44.517636350633801 10.584708015251486 #
point $-1 -30.054744581922478 44.517636350633801 10.584708015251486 #
vertex $-1 $277 $362 #
straight-curve $-1 -56.371762348660326 0 13.674292980910494 0 -1 0 I I #
vertex $-1 $280 $363 #
point $-1 -42.213253465291402 40.975388983582896 10.628525477887425 #
straight-curve $-1 -69.480880153813288 44.517636350633801 0 0 0 -1 I I #
point $-1 -69.480880153813288 -44.517636350633801 -13.674292980910494 #
straight-curve $-1 -69.480880153813288 0 -13.674292980910494 0 1 0 I I #
point $-1 -69.480880153813288 44.517636350633801 -13.674292980910494 #
coedge $-1 $302 $301 $346 $364 reversed $140 $-1 #
coedge $-1 $307 $303 $345 $364 forward $221 $-1 #
vertex $-1 $304 $365 #
straight-curve $-1 0 44.517636350633801 13.674292980910494 -1 0 0 I I #
point $-1 -56.371762348660326 44.517636350633801 13.674292980910494 #
vertex $-1 $364 $366 #
straight-curve $-1 0 -44.517636350633801 13.674292980910494 1 0 0 I I #
straight-curve $-1 -69.480880153813288 -44.517636350633801 0 0 0 -1 I I #
straight-curve $-1 -69.480880153813288 44.517636350633801 0 0 0 -1 I I #
straight-curve $-1 -56.371762348660326 -44.517636350633801 65.464561029411556 0 0 -1 I I #
straight-curve $-1 -56.371762348660326 0 13.674292980910494 0 -1 0 I I #
point $-1 -56.371762348660326 -44.517636350633801 10.584708015251433 #
straight-curve $-1 -21.606626732645701 -44.517636350633801 10.584708015251431 1 0 0 I I #
point $-1 -56.371762348660326 -44.517636350633801 13.674292980910494 #
point $-1 -43.213253465291402 -40.475388976884162 9.7625000779705005 #
straight-curve $-1 0 44.517636350633801 13.674292980910494 -1 0 0 I I #
straight-curve $-1 -56.371762348660326 44.517636350633801 87.723379502940389 0 0 1 I I #
point $-1 -56.371762348660326 44.517636350633801 13.674292980910494 #
point $-1 -43.213253465291402 40.475388976884155 9.762500077970504 #
edge $-1 $347 -44.517636350633801 $350 44.517636350633801 $345 $367 forward 7 unknown #
point $-1 -69.480880153813288 44.517636350633801 13.674292980910494 #
point $-1 -69.480880153813288 -44.517636350633801 13.674292980910494 #
straight-curve $-1 -69.480880153813288 0 13.674292980910494 0 -1 0 I I #
End-of-ACIS-data 