600 0 7 0           
107 GICL ACIS Healer - Source: /gicl/data5/repository/Drexel/CICIRELLO-THESISDATA/Part10000.smdg.feat.sat - 6 0 18 ACIS 6.0.3 Solaris 24 Fri Apr 12 10:12:17 2002 
1 9.999999999999999547e-07 1.000000000000000036e-10 
body $-1 $7 $-1 $-1 #
body $-1 $8 $-1 $-1 #
body $-1 $9 $-1 $-1 #
body $-1 $10 $-1 $-1 #
body $-1 $11 $-1 $-1 #
body $-1 $12 $-1 $-1 #
body $-1 $13 $-1 $-1 #
lump $-1 $-1 $14 $0 #
lump $-1 $-1 $15 $1 #
lump $-1 $-1 $16 $2 #
lump $-1 $-1 $17 $3 #
lump $-1 $-1 $18 $4 #
lump $-1 $-1 $19 $5 #
lump $-1 $-1 $20 $6 #
shell $-1 $-1 $-1 $21 $-1 $7 #
shell $-1 $-1 $-1 $22 $-1 $8 #
shell $-1 $-1 $-1 $23 $-1 $9 #
shell $-1 $-1 $-1 $24 $-1 $10 #
shell $-1 $-1 $-1 $25 $-1 $11 #
shell $-1 $-1 $-1 $26 $-1 $12 #
shell $-1 $-1 $-1 $27 $-1 $13 #
face $-1 $28 $29 $14 $-1 $30 forward single #
face $-1 $31 $32 $15 $-1 $33 forward single #
face $-1 $34 $35 $16 $-1 $36 forward single #
face $-1 $37 $38 $17 $-1 $39 forward single #
face $-1 $40 $41 $18 $-1 $42 forward single #
face $-1 $43 $44 $19 $-1 $45 forward single #
face $-1 $46 $47 $20 $-1 $48 forward single #
face $-1 $49 $50 $14 $-1 $51 reversed single #
loop $-1 $-1 $52 $21 #
plane-surface $-1 53.66252632221442553 28.19743276644157959 25.99478531904072298 0 0 1 1 0 0 forward_v I I I I #
face $-1 $53 $54 $15 $-1 $55 reversed single #
loop $-1 $-1 $56 $22 #
plane-surface $-1 73.34940745405442897 -182.0336148310136366 131.9500211209000895 0 -0.8480481040810504689 0.529919251551154491 1 0 0 forward_v I I I I #
face $-1 $57 $58 $16 $-1 $59 forward single #
loop $-1 $60 $61 $23 #
cone-surface $-1 64.57942398876808454 3.163417004346888106 21.64330561947939557 0 0.8480481040810504689 -0.529919251551154491 1 0 0 1 I I 0 1 1 forward I I I I #
face $-1 $62 $63 $17 $-1 $64 forward single #
loop $-1 $65 $66 $24 #
cone-surface $-1 73.34940745405442897 3.163417004346888106 21.64330561947939557 0 0.8480481040810504689 -0.529919251551154491 1 0 0 1 I I 0 1 1 forward I I I I #
face $-1 $67 $68 $18 $-1 $69 forward single #
loop $-1 $70 $71 $25 #
cone-surface $-1 82.11939091934077339 3.163417004346888106 21.64330561947939557 0 0.8480481040810504689 -0.529919251551154491 1 0 0 1 I I 0 1 1 forward I I I I #
face $-1 $72 $73 $19 $-1 $74 reversed single #
loop $-1 $-1 $75 $26 #
plane-surface $-1 99.88252354895769258 181.3949979855215702 202.2900342562336391 0 0.754709588511349283 0.6560590194555896426 1 0 0 forward_v I I I I #
face $-1 $76 $77 $20 $-1 $78 forward single #
loop $-1 $79 $80 $27 #
cone-surface $-1 99.88252354895769258 52.26475124125307303 21.53838904532329934 0 -0.754709588511349283 -0.6560590194555896426 2 0 0 1 I I 0 1 2 forward I I I I #
face $-1 $81 $82 $14 $-1 $83 reversed single #
loop $-1 $-1 $84 $28 #
plane-surface $-1 53.66252632221442553 28.19743276644157959 0 0 0 1 1 0 0 forward_v I I I I #
coedge $-1 $85 $86 $87 $88 forward $29 $-1 #
face $-1 $89 $90 $15 $-1 $91 reversed single #
loop $-1 $-1 $92 $31 #
plane-surface $-1 73.34940745405442897 0 18.20279798085210388 0 -0.8480481040810504689 0.529919251551154491 1 0 0 forward_v I I I I #
coedge $-1 $93 $94 $95 $96 forward $32 $-1 #
face $-1 $-1 $97 $16 $-1 $98 forward single #
loop $-1 $-1 $99 $34 #
plane-surface $-1 64.57942398876808454 2.43448695803838433 22.09879164994640632 0 -0.8480481040810504689 0.529919251551154491 -1 0 -0 forward_v I I I I #
loop $-1 $-1 $100 $23 #
coedge $-1 $61 $61 $99 $101 reversed $35 $-1 #
face $-1 $-1 $102 $17 $-1 $103 forward single #
loop $-1 $-1 $104 $37 #
plane-surface $-1 73.34940745405442897 2.43448695803838433 22.09879164994640632 0 -0.8480481040810504689 0.529919251551154491 -1 0 -0 forward_v I I I I #
loop $-1 $-1 $105 $24 #
coedge $-1 $66 $66 $104 $106 reversed $38 $-1 #
face $-1 $-1 $107 $18 $-1 $108 forward single #
loop $-1 $-1 $109 $40 #
plane-surface $-1 82.11939091934077339 2.43448695803838433 22.09879164994640632 0 -0.8480481040810504689 0.529919251551154491 -1 0 -0 forward_v I I I I #
loop $-1 $-1 $110 $25 #
coedge $-1 $71 $71 $109 $111 reversed $41 $-1 #
face $-1 $112 $113 $19 $-1 $114 reversed single #
loop $-1 $-1 $115 $43 #
plane-surface $-1 99.88252354895769258 19.39650534905000256 61.46689665438657357 0 0.754709588511349283 0.6560590194555896426 1 0 0 forward_v I I I I #
coedge $-1 $116 $117 $118 $119 forward $44 $-1 #
face $-1 $-1 $120 $20 $-1 $121 forward single #
loop $-1 $-1 $122 $46 #
plane-surface $-1 99.88252354895769258 53.31340302064493386 22.44996810647608854 0 0.754709588511349283 0.6560590194555896426 -1 -0 0 forward_v I I I I #
loop $-1 $-1 $123 $27 #
coedge $-1 $80 $80 $122 $124 reversed $47 $-1 #
face $-1 $125 $126 $14 $-1 $127 reversed single #
loop $-1 $-1 $128 $49 #
plane-surface $-1 53.66252632221442553 0 12.99739265952036149 0 1 0 0 0 1 forward_v I I I I #
coedge $-1 $129 $130 $131 $132 forward $50 $-1 #
coedge $-1 $133 $52 $134 $135 forward $29 $-1 #
coedge $-1 $52 $133 $136 $137 forward $29 $-1 #
coedge $-1 $138 $139 $52 $88 reversed $140 $-1 #
edge $-1 $141 -28.19743276644157959 $142 28.19743276644157959 $87 $143 forward 7 unknown #
face $-1 $144 $145 $15 $-1 $146 reversed single #
loop $-1 $-1 $147 $53 #
plane-surface $-1 73.34940745405442897 -204.7640305555547968 -106.9572052801375435 0 0.529919251551154491 0.8480481040810504689 0 -0.8480481040810504689 0.529919251551154491 forward_v I I I I #
coedge $-1 $148 $149 $150 $151 forward $54 $-1 #
coedge $-1 $152 $56 $153 $154 forward $32 $-1 #
coedge $-1 $56 $152 $155 $156 forward $32 $-1 #
coedge $-1 $157 $158 $56 $96 reversed $159 $-1 #
edge $-1 $160 -214.6501052888577021 $161 214.6501052888576737 $95 $162 forward 7 unknown #
loop $-1 $163 $164 $57 #
cone-surface $-1 64.57942398876808454 4.316371102695917727 20.92285996323681019 0 0.8480481040810504689 -0.529919251551154491 0.5 0 0 1 I I -0.7071067811865474617 0.7071067811865474617 0.5 forward I I I I #
coedge $-1 $99 $99 $61 $101 forward $58 $-1 #
coedge $-1 $100 $100 $164 $165 forward $60 $-1 #
edge $-1 $166 0 $166 6.283185307179586232 $99 $167 forward 7 unknown #
loop $-1 $168 $169 $62 #
cone-surface $-1 73.34940745405442897 4.316371102695917727 20.92285996323681019 0 0.8480481040810504689 -0.529919251551154491 0.5 0 0 1 I I -0.7071067811865474617 0.7071067811865474617 0.5 forward I I I I #
coedge $-1 $104 $104 $66 $106 forward $63 $-1 #
coedge $-1 $105 $105 $169 $170 forward $65 $-1 #
edge $-1 $171 0 $171 6.283185307179586232 $104 $172 forward 7 unknown #
loop $-1 $173 $174 $67 #
cone-surface $-1 82.11939091934077339 4.316371102695917727 20.92285996323681019 0 0.8480481040810504689 -0.529919251551154491 0.5 0 0 1 I I -0.7071067811865474617 0.7071067811865474617 0.5 forward I I I I #
coedge $-1 $109 $109 $71 $111 forward $68 $-1 #
coedge $-1 $110 $110 $174 $175 forward $70 $-1 #
edge $-1 $176 0 $176 6.283185307179586232 $109 $177 forward 7 unknown #
face $-1 $178 $179 $19 $-1 $180 reversed single #
loop $-1 $-1 $181 $72 #
plane-surface $-1 99.88252354895769258 -40.42738593456127205 293.8769580917817166 0 0.6560590194555896426 -0.754709588511349283 0 0.754709588511349283 0.6560590194555896426 forward_v I I I I #
coedge $-1 $182 $183 $184 $185 forward $73 $-1 #
coedge $-1 $186 $75 $187 $188 forward $44 $-1 #
coedge $-1 $75 $186 $189 $190 forward $44 $-1 #
coedge $-1 $191 $192 $75 $119 reversed $193 $-1 #
edge $-1 $194 -214.650105288857759 $195 214.650105288857759 $118 $196 forward 7 unknown #
loop $-1 $197 $198 $76 #
cone-surface $-1 99.88252354895769258 50.4613898733498587 19.97075096471491662 0 -0.754709588511349283 -0.6560590194555896426 1 0 0 1 I I -0.7071067811865474617 0.7071067811865474617 1 forward I I I I #
coedge $-1 $122 $122 $80 $124 forward $77 $-1 #
coedge $-1 $123 $123 $198 $199 forward $79 $-1 #
edge $-1 $200 0 $200 6.283185307179586232 $122 $201 forward 7 unknown #
face $-1 $202 $203 $14 $-1 $204 reversed single #
loop $-1 $-1 $205 $81 #
plane-surface $-1 0 28.19743276644157959 12.99739265952036149 1 0 0 0 0 -1 forward_v I I I I #
coedge $-1 $206 $136 $207 $208 forward $82 $-1 #
coedge $-1 $209 $84 $206 $210 forward $50 $-1 #
coedge $-1 $84 $209 $211 $212 forward $50 $-1 #
coedge $-1 $139 $138 $84 $132 reversed $140 $-1 #
edge $-1 $213 -28.19743276644157959 $214 28.19743276644157959 $131 $215 forward 7 unknown #
coedge $-1 $86 $85 $216 $217 forward $29 $-1 #
coedge $-1 $218 $219 $85 $135 reversed $203 $-1 #
edge $-1 $142 -53.66252632221442553 $220 53.66252632221442553 $134 $221 forward 7 unknown #
coedge $-1 $128 $222 $86 $137 reversed $82 $-1 #
edge $-1 $223 -53.66252632221442553 $141 53.66252632221442553 $136 $224 forward 7 unknown #
coedge $-1 $131 $87 $222 $225 forward $140 $-1 #
coedge $-1 $87 $131 $218 $226 reversed $140 $-1 #
loop $-1 $-1 $138 $202 #
vertex $-1 $88 $227 #
vertex $-1 $88 $228 #
straight-curve $-1 107.3250526444288511 28.19743276644157959 25.99478531904072298 0 1 0 I I #
face $-1 $229 $230 $15 $-1 $231 reversed single #
loop $-1 $-1 $232 $89 #
plane-surface $-1 58.73276834524385492 -91.0168074155068183 75.07640955087609314 1 0 0 0 0.8480481040810504689 -0.529919251551154491 forward_v I I I I #
coedge $-1 $233 $155 $234 $235 forward $90 $-1 #
coedge $-1 $236 $92 $233 $237 forward $54 $-1 #
coedge $-1 $92 $236 $238 $239 forward $54 $-1 #
coedge $-1 $158 $157 $92 $151 reversed $159 $-1 #
edge $-1 $240 -214.6501052888577021 $241 214.6501052888577021 $150 $242 forward 7 unknown #
coedge $-1 $94 $93 $243 $244 forward $32 $-1 #
coedge $-1 $245 $246 $93 $154 reversed $230 $-1 #
edge $-1 $161 -14.61663910881057404 $247 14.61663910881057404 $153 $248 forward 7 unknown #
coedge $-1 $147 $249 $94 $156 reversed $90 $-1 #
edge $-1 $250 -14.61663910881057404 $160 14.61663910881057404 $155 $251 forward 7 unknown #
coedge $-1 $150 $95 $249 $252 forward $159 $-1 #
coedge $-1 $95 $150 $245 $253 reversed $159 $-1 #
loop $-1 $-1 $157 $229 #
vertex $-1 $96 $254 #
vertex $-1 $96 $255 #
straight-curve $-1 87.96604656286500301 -182.0336148310136366 131.9500211209000895 0 0.529919251551154491 0.8480481040810504689 I I #
loop $-1 $-1 $256 $57 #
coedge $-1 $164 $164 $100 $165 reversed $97 $-1 #
edge $-1 $257 0 $257 6.283185307179586232 $164 $258 forward 7 unknown #
vertex $-1 $101 $259 #
ellipse-curve $-1 64.57942398876808454 2.43448695803838433 22.09879164994640632 0 -0.8480481040810504689 0.529919251551154491 1 0 0 1 I I #
loop $-1 $-1 $260 $62 #
coedge $-1 $169 $169 $105 $170 reversed $102 $-1 #
edge $-1 $261 0 $261 6.283185307179586232 $169 $262 forward 7 unknown #
vertex $-1 $106 $263 #
ellipse-curve $-1 73.34940745405442897 2.43448695803838433 22.09879164994640632 0 -0.8480481040810504689 0.529919251551154491 1 0 0 1 I I #
loop $-1 $-1 $264 $67 #
coedge $-1 $174 $174 $110 $175 reversed $107 $-1 #
edge $-1 $265 0 $265 6.283185307179586232 $174 $266 forward 7 unknown #
vertex $-1 $111 $267 #
ellipse-curve $-1 82.11939091934077339 2.43448695803838433 22.09879164994640632 0 -0.8480481040810504689 0.529919251551154491 1 0 0 1 I I #
face $-1 $268 $269 $19 $-1 $270 reversed single #
loop $-1 $-1 $271 $112 #
plane-surface $-1 92.4399944534865341 100.3957516672857935 131.8784654553101063 1 0 0 0 -0.754709588511349283 -0.6560590194555896426 forward_v I I I I #
coedge $-1 $272 $189 $273 $274 forward $113 $-1 #
coedge $-1 $275 $115 $272 $276 forward $73 $-1 #
coedge $-1 $115 $275 $277 $278 forward $73 $-1 #
coedge $-1 $192 $191 $115 $185 reversed $193 $-1 #
edge $-1 $279 -214.650105288857759 $280 214.650105288857759 $184 $281 forward 7 unknown #
coedge $-1 $117 $116 $282 $283 forward $44 $-1 #
coedge $-1 $284 $285 $116 $188 reversed $269 $-1 #
edge $-1 $195 -7.442529095471158485 $286 7.442529095471158485 $187 $287 forward 7 unknown #
coedge $-1 $181 $288 $117 $190 reversed $113 $-1 #
edge $-1 $289 -7.442529095471158485 $194 7.442529095471158485 $189 $290 forward 7 unknown #
coedge $-1 $184 $118 $288 $291 forward $193 $-1 #
coedge $-1 $118 $184 $284 $292 reversed $193 $-1 #
loop $-1 $-1 $191 $268 #
vertex $-1 $119 $293 #
vertex $-1 $119 $294 #
straight-curve $-1 107.3250526444288511 181.3949979855215702 202.2900342562336391 0 0.6560590194555896426 -0.754709588511349283 I I #
loop $-1 $-1 $295 $76 #
coedge $-1 $198 $198 $123 $199 reversed $120 $-1 #
edge $-1 $296 0 $296 6.283185307179586232 $198 $297 forward 7 unknown #
vertex $-1 $124 $298 #
ellipse-curve $-1 99.88252354895769258 53.31340302064493386 22.44996810647608854 0 0.754709588511349283 0.6560590194555896426 2 0 0 1 I I #
face $-1 $-1 $140 $14 $-1 $299 reversed single #
loop $-1 $-1 $218 $125 #
plane-surface $-1 53.66252632221442553 56.39486553288315918 12.99739265952036149 0 -1 0 0 0 -1 forward_v I I I I #
coedge $-1 $300 $216 $219 $301 forward $126 $-1 #
coedge $-1 $222 $128 $129 $210 reversed $82 $-1 #
coedge $-1 $216 $300 $128 $208 reversed $126 $-1 #
edge $-1 $223 -12.99739265952036149 $302 12.99739265952036149 $207 $303 forward 7 unknown #
coedge $-1 $130 $129 $300 $304 forward $50 $-1 #
edge $-1 $214 -53.66252632221442553 $302 53.66252632221442553 $206 $305 forward 7 unknown #
coedge $-1 $219 $218 $130 $212 reversed $203 $-1 #
edge $-1 $306 -53.66252632221442553 $213 53.66252632221442553 $211 $307 forward 7 unknown #
vertex $-1 $132 $308 #
vertex $-1 $225 $309 #
straight-curve $-1 107.3250526444288511 28.19743276644157959 0 0 -1 0 I I #
coedge $-1 $205 $207 $133 $217 reversed $126 $-1 #
edge $-1 $220 -28.19743276644157959 $223 28.19743276644157959 $216 $310 forward 7 unknown #
coedge $-1 $211 $134 $139 $226 forward $203 $-1 #
coedge $-1 $134 $211 $205 $301 reversed $203 $-1 #
vertex $-1 $135 $311 #
straight-curve $-1 53.66252632221442553 56.39486553288315918 25.99478531904072298 -1 0 0 I I #
coedge $-1 $136 $206 $138 $225 reversed $82 $-1 #
vertex $-1 $217 $312 #
straight-curve $-1 53.66252632221442553 0 25.99478531904072298 1 0 0 I I #
edge $-1 $141 -12.99739265952036149 $214 12.99739265952036149 $138 $313 forward 7 unknown #
edge $-1 $142 -12.99739265952036149 $213 12.99739265952036149 $139 $314 forward 7 unknown #
point $-1 107.3250526444288511 0 25.99478531904072298 #
point $-1 107.3250526444288511 56.39486553288315918 25.99478531904072298 #
face $-1 $-1 $159 $15 $-1 $315 reversed single #
loop $-1 $-1 $245 $144 #
plane-surface $-1 73.34940745405442897 22.73041572454116022 257.1100243818897297 0 -0.529919251551154491 -0.8480481040810504689 0 0.8480481040810504689 -0.529919251551154491 forward_v I I I I #
coedge $-1 $316 $243 $246 $317 forward $145 $-1 #
coedge $-1 $249 $147 $148 $237 reversed $90 $-1 #
coedge $-1 $243 $316 $147 $235 reversed $145 $-1 #
edge $-1 $250 -107.3250526444288369 $318 107.3250526444288511 $234 $319 forward 7 unknown #
coedge $-1 $149 $148 $316 $320 forward $54 $-1 #
edge $-1 $241 -14.61663910881057404 $318 14.61663910881057404 $233 $321 forward 7 unknown #
coedge $-1 $246 $245 $149 $239 reversed $230 $-1 #
edge $-1 $322 -14.61663910881057404 $240 14.61663910881057404 $238 $323 forward 7 unknown #
vertex $-1 $151 $324 #
vertex $-1 $252 $325 #
straight-curve $-1 87.96604656286500301 0 18.20279798085210388 0 -0.529919251551154491 -0.8480481040810504689 I I #
coedge $-1 $232 $234 $152 $244 reversed $145 $-1 #
edge $-1 $247 -214.6501052888576737 $250 214.6501052888577021 $243 $326 forward 7 unknown #
coedge $-1 $238 $153 $158 $253 forward $230 $-1 #
coedge $-1 $153 $238 $232 $317 reversed $230 $-1 #
vertex $-1 $154 $327 #
straight-curve $-1 73.34940745405442897 -68.28639169096565809 313.9836359519136977 -1 0 0 I I #
coedge $-1 $155 $233 $157 $252 reversed $90 $-1 #
vertex $-1 $244 $328 #
straight-curve $-1 73.34940745405442897 -295.7808379710616009 -50.0835937101135471 1 0 0 I I #
edge $-1 $160 -107.3250526444288369 $241 107.3250526444288511 $157 $329 forward 7 unknown #
edge $-1 $161 -107.3250526444288369 $240 107.3250526444288511 $158 $330 forward 7 unknown #
point $-1 87.96604656286500301 -295.7808379710616009 -50.0835937101135471 #
point $-1 87.96604656286500301 -68.28639169096565809 313.9836359519136977 #
coedge $-1 $256 $256 $-1 $331 reversed $163 $-1 #
vertex $-1 $165 $332 #
ellipse-curve $-1 64.57942398876808454 3.892347050655392326 21.18781958901238838 0 -0.8480481040810504689 0.529919251551154491 1 0 0 1 I I #
point $-1 65.57942398876808454 2.43448695803838433 22.09879164994640632 #
coedge $-1 $260 $260 $-1 $333 reversed $168 $-1 #
vertex $-1 $170 $334 #
ellipse-curve $-1 73.34940745405442897 3.892347050655392326 21.18781958901238838 0 -0.8480481040810504689 0.529919251551154491 1 0 0 1 I I #
point $-1 74.34940745405442897 2.43448695803838433 22.09879164994640632 #
coedge $-1 $264 $264 $-1 $335 reversed $173 $-1 #
vertex $-1 $175 $336 #
ellipse-curve $-1 82.11939091934077339 3.892347050655392326 21.18781958901238838 0 -0.8480481040810504689 0.529919251551154491 1 0 0 1 I I #
point $-1 83.11939091934077339 2.43448695803838433 22.09879164994640632 #
face $-1 $-1 $193 $19 $-1 $337 reversed single #
loop $-1 $-1 $284 $178 #
plane-surface $-1 99.88252354895769258 241.218889269132859 -30.12002718116147548 0 -0.6560590194555896426 0.754709588511349283 0 -0.754709588511349283 -0.6560590194555896426 forward_v I I I I #
coedge $-1 $338 $282 $285 $339 forward $179 $-1 #
coedge $-1 $288 $181 $182 $276 reversed $113 $-1 #
coedge $-1 $282 $338 $181 $274 reversed $179 $-1 #
edge $-1 $289 -107.3250526444288795 $340 107.3250526444289079 $273 $341 forward 7 unknown #
coedge $-1 $183 $182 $338 $342 forward $73 $-1 #
edge $-1 $280 -7.442529095471158485 $340 7.442529095471158485 $272 $343 forward 7 unknown #
coedge $-1 $285 $284 $183 $278 reversed $269 $-1 #
edge $-1 $344 -7.442529095471158485 $279 7.442529095471158485 $277 $345 forward 7 unknown #
vertex $-1 $185 $346 #
vertex $-1 $291 $347 #
straight-curve $-1 107.3250526444288511 19.39650534905000256 61.46689665438657357 0 -0.6560590194555896426 0.754709588511349283 I I #
coedge $-1 $271 $273 $186 $283 reversed $179 $-1 #
edge $-1 $286 -214.650105288857759 $289 214.650105288857759 $282 $348 forward 7 unknown #
coedge $-1 $277 $187 $192 $292 forward $269 $-1 #
coedge $-1 $187 $277 $271 $339 reversed $269 $-1 #
vertex $-1 $188 $349 #
straight-curve $-1 99.88252354895769258 322.2181355873686925 40.29154161976205728 -1 0 0 I I #
coedge $-1 $189 $272 $191 $291 reversed $113 $-1 #
vertex $-1 $283 $350 #
straight-curve $-1 99.88252354895769258 40.57186038367451886 364.2885268927052493 1 0 0 I I #
edge $-1 $194 -107.3250526444288795 $280 107.3250526444289079 $191 $351 forward 7 unknown #
edge $-1 $195 -107.3250526444289079 $279 107.3250526444288511 $192 $352 forward 7 unknown #
point $-1 107.3250526444288511 40.57186038367451886 364.2885268927052493 #
point $-1 107.3250526444288511 322.2181355873686925 40.29154161976205728 #
coedge $-1 $295 $295 $-1 $353 reversed $197 $-1 #
vertex $-1 $199 $354 #
ellipse-curve $-1 99.88252354895769258 51.2160994618612051 20.6268099841705066 0 0.754709588511349283 0.6560590194555896426 2 0 0 1 I I #
point $-1 101.8825235489576926 53.31340302064493386 22.44996810647608854 #
plane-surface $-1 107.3250526444288511 28.19743276644157959 12.99739265952036149 -1 0 0 0 0 1 forward_v I I I I #
coedge $-1 $207 $205 $209 $304 reversed $126 $-1 #
edge $-1 $220 -12.99739265952036149 $306 12.99739265952036149 $219 $355 forward 7 unknown #
vertex $-1 $304 $356 #
straight-curve $-1 0 0 12.99739265952036149 0 0 -1 I I #
edge $-1 $302 -28.19743276644157959 $306 28.19743276644157959 $300 $357 forward 7 unknown #
straight-curve $-1 53.66252632221442553 0 0 -1 0 0 I I #
vertex $-1 $212 $358 #
straight-curve $-1 53.66252632221442553 56.39486553288315918 0 1 0 0 I I #
point $-1 107.3250526444288511 56.39486553288315918 0 #
point $-1 107.3250526444288511 0 0 #
straight-curve $-1 0 28.19743276644157959 25.99478531904072298 0 -1 0 I I #
point $-1 0 56.39486553288315918 25.99478531904072298 #
point $-1 0 0 25.99478531904072298 #
straight-curve $-1 107.3250526444288511 0 12.99739265952036149 0 0 -1 I I #
straight-curve $-1 107.3250526444288511 56.39486553288315918 12.99739265952036149 0 0 -1 I I #
plane-surface $-1 87.96604656286500301 -91.0168074155068183 75.07640955087609314 -1 0 0 0 -0.8480481040810504689 0.529919251551154491 forward_v I I I I #
coedge $-1 $234 $232 $236 $320 reversed $145 $-1 #
edge $-1 $247 -107.3250526444288369 $322 107.3250526444288511 $246 $359 forward 7 unknown #
vertex $-1 $320 $360 #
straight-curve $-1 58.73276834524385492 -204.7640305555547968 -106.9572052801375435 0 0.8480481040810504689 -0.529919251551154491 I I #
edge $-1 $318 -214.6501052888577021 $322 214.6501052888577021 $316 $361 forward 7 unknown #
straight-curve $-1 73.34940745405442897 -113.7472231400479785 -163.8308168501615398 -1 0 0 I I #
vertex $-1 $239 $362 #
straight-curve $-1 73.34940745405442897 113.7472231400479785 200.2364128118657334 1 0 0 I I #
point $-1 87.96604656286500301 113.7472231400479785 200.2364128118657334 #
point $-1 87.96604656286500301 -113.7472231400479785 -163.8308168501615398 #
straight-curve $-1 58.73276834524385492 -182.0336148310136366 131.9500211209000895 0 -0.529919251551154491 -0.8480481040810504689 I I #
point $-1 58.73276834524385492 -68.28639169096565809 313.9836359519136977 #
point $-1 58.73276834524385492 -295.7808379710616009 -50.0835937101135471 #
straight-curve $-1 87.96604656286500301 -204.7640305555547968 -106.9572052801375435 0 0.8480481040810504689 -0.529919251551154491 I I #
straight-curve $-1 87.96604656286500301 22.73041572454116022 257.1100243818897297 0 0.8480481040810504689 -0.529919251551154491 I I #
edge $-1 $363 1 $363 0 $256 $-1 forward 7 unknown #
point $-1 65.57942398876808454 3.892347050655392326 21.18781958901238838 #
edge $-1 $364 1 $364 0 $260 $-1 forward 7 unknown #
point $-1 74.34940745405442897 3.892347050655392326 21.18781958901238838 #
edge $-1 $365 1 $365 0 $264 $-1 forward 7 unknown #
point $-1 83.11939091934077339 3.892347050655392326 21.18781958901238838 #
plane-surface $-1 107.3250526444288511 100.3957516672857935 131.8784654553101063 -1 0 0 0 0.754709588511349283 0.6560590194555896426 forward_v I I I I #
coedge $-1 $273 $271 $275 $342 reversed $179 $-1 #
edge $-1 $286 -107.3250526444289079 $344 107.3250526444288511 $285 $366 forward 7 unknown #
vertex $-1 $342 $367 #
straight-curve $-1 92.4399944534865341 -40.42738593456127205 293.8769580917817166 0 -0.754709588511349283 -0.6560590194555896426 I I #
edge $-1 $340 -214.650105288857759 $344 214.650105288857759 $338 $368 forward 7 unknown #
straight-curve $-1 99.88252354895769258 -121.4266322527970772 223.4653892908581554 -1 0 0 I I #
vertex $-1 $278 $369 #
straight-curve $-1 99.88252354895769258 160.2196429508970823 -100.5315959820850082 1 0 0 I I #
point $-1 107.3250526444288511 160.2196429508970823 -100.5315959820850082 #
point $-1 107.3250526444288511 -121.4266322527970772 223.4653892908581554 #
straight-curve $-1 92.4399944534865341 181.3949979855215702 202.2900342562336391 0 -0.6560590194555896426 0.754709588511349283 I I #
point $-1 92.4399944534865341 322.2181355873686925 40.29154161976205728 #
point $-1 92.4399944534865341 40.57186038367451886 364.2885268927052493 #
straight-curve $-1 107.3250526444288511 -40.42738593456127205 293.8769580917817166 0 -0.754709588511349283 -0.6560590194555896426 I I #
straight-curve $-1 107.3250526444288511 241.218889269132859 -30.12002718116147548 0 -0.754709588511349283 -0.6560590194555896426 I I #
edge $-1 $370 1 $370 0 $295 $-1 forward 7 unknown #
point $-1 101.8825235489576926 51.2160994618612051 20.6268099841705066 #
straight-curve $-1 0 56.39486553288315918 12.99739265952036149 0 0 -1 I I #
point $-1 0 0 0 #
straight-curve $-1 0 28.19743276644157959 0 0 1 0 I I #
point $-1 0 56.39486553288315918 0 #
straight-curve $-1 58.73276834524385492 22.73041572454116022 257.1100243818897297 0 0.8480481040810504689 -0.529919251551154491 I I #
point $-1 58.73276834524385492 -113.7472231400479785 -163.8308168501615398 #
straight-curve $-1 58.73276834524385492 0 18.20279798085210388 0 0.529919251551154491 0.8480481040810504689 I I #
point $-1 58.73276834524385492 113.7472231400479785 200.2364128118657334 #
vertex $-1 $331 $371 #
vertex $-1 $333 $372 #
vertex $-1 $335 $373 #
straight-curve $-1 92.4399944534865341 241.218889269132859 -30.12002718116147548 0 -0.754709588511349283 -0.6560590194555896426 I I #
point $-1 92.4399944534865341 -121.4266322527970772 223.4653892908581554 #
straight-curve $-1 92.4399944534865341 19.39650534905000256 61.46689665438657357 0 0.6560590194555896426 -0.754709588511349283 I I #
point $-1 92.4399944534865341 160.2196429508970823 -100.5315959820850082 #
vertex $-1 $353 $374 #
point $-1 64.57942398876808454 4.740395154736442684 20.657900337461232 #
point $-1 73.34940745405442897 4.740395154736442684 20.657900337461232 #
point $-1 82.11939091934077339 4.740395154736442684 20.657900337461232 #
point $-1 99.88252354895769258 49.70668028483851231 19.31469194525932664 #
End-of-ACIS-data 