500 0 14 0           
7 Unknown 11 ACIS 5.0 NT 24 Fri Mar 26 15:12:21 1999 
-1 9.9999999999999995e-007 1e-010 
body $-1 $14 $-1 $15 #
body $-1 $16 $-1 $17 #
body $-1 $18 $-1 $19 #
body $-1 $20 $-1 $21 #
body $-1 $22 $-1 $23 #
body $-1 $24 $-1 $25 #
body $-1 $26 $-1 $27 #
body $-1 $28 $-1 $29 #
body $-1 $30 $-1 $31 #
body $-1 $32 $-1 $33 #
body $-1 $34 $-1 $35 #
body $-1 $36 $-1 $37 #
body $-1 $38 $-1 $39 #
body $-1 $40 $-1 $41 #
lump $-1 $-1 $42 $0 #
transform $-1 1 0 0 0 1 0 0 0 1 77.62199774163031 33.390464332029225 8.6544961249272436 1 rotate no_reflect no_shear #
lump $-1 $-1 $43 $1 #
transform $-1 1 0 0 0 1 0 0 0 1 77.62199774163031 33.390464332029225 8.6544961249272436 1 rotate no_reflect no_shear #
lump $-1 $-1 $44 $2 #
transform $-1 1 0 0 0 1 0 0 0 1 77.62199774163031 33.390464332029225 8.6544961249272436 1 rotate no_reflect no_shear #
lump $-1 $-1 $45 $3 #
transform $-1 1 0 0 0 1 0 0 0 1 77.62199774163031 33.390464332029225 8.6544961249272436 1 rotate no_reflect no_shear #
lump $-1 $-1 $46 $4 #
transform $-1 1 0 0 0 1 0 0 0 1 77.62199774163031 33.390464332029225 8.6544961249272436 1 rotate no_reflect no_shear #
lump $-1 $-1 $47 $5 #
transform $-1 1 0 0 0 1 0 0 0 1 77.62199774163031 33.390464332029225 8.6544961249272436 1 rotate no_reflect no_shear #
lump $-1 $-1 $48 $6 #
transform $-1 1 0 0 0 1 0 0 0 1 77.62199774163031 33.390464332029225 8.6544961249272436 1 rotate no_reflect no_shear #
lump $-1 $-1 $49 $7 #
transform $-1 1 0 0 0 1 0 0 0 1 77.62199774163031 33.390464332029225 8.6544961249272436 1 rotate no_reflect no_shear #
lump $-1 $-1 $50 $8 #
transform $-1 1 0 0 0 1 0 0 0 1 77.62199774163031 33.390464332029225 8.6544961249272436 1 rotate no_reflect no_shear #
lump $-1 $-1 $51 $9 #
transform $-1 1 0 0 0 1 0 0 0 1 77.62199774163031 33.390464332029225 8.6544961249272436 1 rotate no_reflect no_shear #
lump $-1 $-1 $52 $10 #
transform $-1 1 0 0 0 1 0 0 0 1 77.62199774163031 33.390464332029225 8.6544961249272436 1 rotate no_reflect no_shear #
lump $-1 $-1 $53 $11 #
transform $-1 1 0 0 0 1 0 0 0 1 77.62199774163031 33.390464332029225 8.6544961249272436 1 rotate no_reflect no_shear #
lump $-1 $-1 $54 $12 #
transform $-1 1 0 0 0 1 0 0 0 1 77.62199774163031 33.390464332029225 8.6544961249272436 1 rotate no_reflect no_shear #
lump $-1 $-1 $55 $13 #
transform $-1 1 0 0 0 1 0 0 0 1 77.62199774163031 33.390464332029225 8.6544961249272436 1 rotate no_reflect no_shear #
shell $-1 $-1 $-1 $56 $-1 $14 #
shell $-1 $-1 $-1 $57 $-1 $16 #
shell $-1 $-1 $-1 $58 $-1 $18 #
shell $-1 $-1 $-1 $59 $-1 $20 #
shell $-1 $-1 $-1 $60 $-1 $22 #
shell $-1 $-1 $-1 $61 $-1 $24 #
shell $-1 $-1 $-1 $62 $-1 $26 #
shell $-1 $-1 $-1 $63 $-1 $28 #
shell $-1 $-1 $-1 $64 $-1 $30 #
shell $-1 $-1 $-1 $65 $-1 $32 #
shell $-1 $-1 $-1 $66 $-1 $34 #
shell $-1 $-1 $-1 $67 $-1 $36 #
shell $-1 $-1 $-1 $68 $-1 $38 #
shell $-1 $-1 $-1 $69 $-1 $40 #
face $-1 $70 $71 $42 $-1 $72 forward single #
face $-1 $73 $74 $43 $-1 $75 forward single #
face $-1 $76 $77 $44 $-1 $78 reversed single #
face $-1 $79 $80 $45 $-1 $81 forward single #
face $-1 $82 $83 $46 $-1 $84 forward single #
face $-1 $85 $86 $47 $-1 $87 reversed single #
face $-1 $88 $89 $48 $-1 $90 forward single #
face $-1 $91 $92 $49 $-1 $93 forward single #
face $-1 $94 $95 $50 $-1 $96 reversed single #
face $-1 $97 $98 $51 $-1 $99 forward single #
face $-1 $100 $101 $52 $-1 $102 forward single #
face $-1 $103 $104 $53 $-1 $105 reversed single #
face $-1 $106 $107 $54 $-1 $108 forward single #
face $-1 $109 $110 $55 $-1 $111 forward single #
face $-1 $112 $113 $42 $-1 $114 reversed single #
loop $-1 $-1 $115 $56 #
plane-surface $-1 0 0 8.6544961249272436 0 0 1 1 0 0 forward_v I I I I #
face $-1 $116 $117 $43 $-1 $118 reversed single #
loop $-1 $-1 $119 $57 #
plane-surface $-1 0 -28.717274134658311 -5.6544961249272436 0 0 1 1 0 0 forward_v I I I I #
face $-1 $120 $121 $44 $-1 $122 reversed single #
loop $-1 $-1 $123 $58 #
plane-surface $-1 58.487116704630978 -11.77746574837758 219.10685959627304 0 -1 0 -0.64278761758704617 0 -0.76604443648966558 forward_v I I I I #
face $-1 $124 $125 $45 $-1 $126 forward single #
loop $-1 $127 $128 $59 #
cone-surface $-1 72.240769662295719 -20.539335883313164 3.9772148788317683 -0.64278761758704617 0 -0.76604443648966558 0.76604443648966558 0 -0.64278761758704617 1 I I 0 1 1 forward I I I I #
face $-1 $129 $130 $46 $-1 $131 forward single #
loop $-1 $132 $133 $60 #
cone-surface $-1 72.240769662295719 -15.282213802351812 3.9772148788317683 -0.64278761758704617 0 -0.76604443648966558 0.76604443648966558 0 -0.64278761758704617 1 I I 0 1 1 forward I I I I #
face $-1 $134 $135 $47 $-1 $136 reversed single #
loop $-1 $-1 $137 $61 #
plane-surface $-1 58.487116704630978 16.939808386280731 219.10685959627304 0 -1 0 -0.64278761758704617 0 -0.76604443648966558 forward_v I I I I #
face $-1 $138 $139 $48 $-1 $140 forward single #
loop $-1 $141 $142 $62 #
cone-surface $-1 72.240769662295719 8.1779382513451466 3.9772148788317683 -0.64278761758704617 0 -0.76604443648966558 0.76604443648966558 0 -0.64278761758704617 1 I I 0 1 1 forward I I I I #
face $-1 $143 $144 $49 $-1 $145 forward single #
loop $-1 $146 $147 $63 #
cone-surface $-1 72.240769662295719 13.435060332306499 3.9772148788317683 -0.64278761758704617 0 -0.76604443648966558 0.76604443648966558 0 -0.64278761758704617 1 I I 0 1 1 forward I I I I #
face $-1 $148 $149 $50 $-1 $150 reversed single #
loop $-1 $-1 $151 $64 #
plane-surface $-1 -177.41091574300958 -24.044083937287397 119.31794159489378 0 1 0 -0.64278761758704617 0 0.76604443648966558 forward_v I I I I #
face $-1 $152 $153 $51 $-1 $154 forward single #
loop $-1 $155 $156 $65 #
cone-surface $-1 -72.240769662295705 -20.539335883313164 3.9772148788317896 0.64278761758704617 0 -0.76604443648966558 0.76604443648966558 0 0.64278761758704617 1 I I 0 1 1 forward I I I I #
face $-1 $157 $158 $52 $-1 $159 forward single #
loop $-1 $160 $161 $66 #
cone-surface $-1 -72.240769662295705 -15.282213802351812 3.9772148788317896 0.64278761758704617 0 -0.76604443648966558 0.76604443648966558 0 0.64278761758704617 1 I I 0 1 1 forward I I I I #
face $-1 $162 $163 $53 $-1 $164 reversed single #
loop $-1 $-1 $165 $67 #
plane-surface $-1 -177.41091574300958 4.6731901973709133 119.31794159489378 0 1 0 -0.64278761758704617 0 0.76604443648966558 forward_v I I I I #
face $-1 $166 $167 $54 $-1 $168 forward single #
loop $-1 $169 $170 $68 #
cone-surface $-1 -72.240769662295705 8.1779382513451466 3.9772148788317896 0.64278761758704617 0 -0.76604443648966558 0.76604443648966558 0 0.64278761758704617 1 I I 0 1 1 forward I I I I #
face $-1 $171 $172 $55 $-1 $173 forward single #
loop $-1 $174 $175 $69 #
cone-surface $-1 -72.240769662295705 13.435060332306499 3.9772148788317896 0.64278761758704617 0 -0.76604443648966558 0.76604443648966558 0 0.64278761758704617 1 I I 0 1 1 forward I I I I #
face $-1 $176 $177 $42 $-1 $178 reversed single #
loop $-1 $-1 $179 $70 #
plane-surface $-1 0 0 -8.6544961249272436 0 0 1 1 0 0 forward_v I I I I #
coedge $-1 $180 $181 $182 $183 forward $71 $-1 #
face $-1 $184 $185 $43 $-1 $186 reversed single #
loop $-1 $-1 $187 $73 #
plane-surface $-1 0 -24.044083937287397 -7.1544961249272436 0 -1 0 0 0 -1 forward_v I I I I #
coedge $-1 $188 $189 $190 $191 reversed $74 $-1 #
face $-1 $192 $193 $44 $-1 $194 reversed single #
loop $-1 $-1 $195 $76 #
plane-surface $-1 -41.301801296748266 -17.910774842832488 100.18306055789446 0.64278761758704617 0 0.76604443648966558 0.76604443648966558 0 -0.64278761758704617 forward_v I I I I #
coedge $-1 $196 $197 $198 $199 reversed $77 $-1 #
face $-1 $-1 $200 $45 $-1 $201 forward single #
loop $-1 $202 $203 $79 #
cone-surface $-1 71.460300691700013 -20.539335883313164 3.0470881986974998 -0.64278761758704617 0 -0.76604443648966558 0.38302221824483279 0 -0.32139380879352308 1 I I -0.70710678118654746 0.70710678118654746 0.5 forward I I I I #
loop $-1 $-1 $204 $59 #
coedge $-1 $128 $128 $205 $206 reversed $80 $-1 #
face $-1 $-1 $207 $46 $-1 $208 forward single #
loop $-1 $209 $210 $82 #
cone-surface $-1 71.460300691700013 -15.282213802351812 3.0470881986974998 -0.64278761758704617 0 -0.76604443648966558 0.38302221824483279 0 -0.32139380879352308 1 I I -0.70710678118654746 0.70710678118654746 0.5 forward I I I I #
loop $-1 $-1 $211 $60 #
coedge $-1 $133 $133 $212 $213 reversed $83 $-1 #
face $-1 $214 $215 $47 $-1 $216 reversed single #
loop $-1 $-1 $217 $85 #
plane-surface $-1 -41.301801296748266 10.806499291825823 100.18306055789446 0.64278761758704617 0 0.76604443648966558 0.76604443648966558 0 -0.64278761758704617 forward_v I I I I #
coedge $-1 $218 $219 $220 $221 reversed $86 $-1 #
face $-1 $-1 $222 $48 $-1 $223 forward single #
loop $-1 $224 $225 $88 #
cone-surface $-1 71.460300691700013 8.1779382513451466 3.0470881986974998 -0.64278761758704617 0 -0.76604443648966558 0.38302221824483279 0 -0.32139380879352308 1 I I -0.70710678118654746 0.70710678118654746 0.5 forward I I I I #
loop $-1 $-1 $226 $62 #
coedge $-1 $142 $142 $227 $228 reversed $89 $-1 #
face $-1 $-1 $229 $49 $-1 $230 forward single #
loop $-1 $231 $232 $91 #
cone-surface $-1 71.460300691700013 13.435060332306499 3.0470881986974998 -0.64278761758704617 0 -0.76604443648966558 0.38302221824483279 0 -0.32139380879352308 1 I I -0.70710678118654746 0.70710678118654746 0.5 forward I I I I #
loop $-1 $-1 $233 $63 #
coedge $-1 $147 $147 $234 $235 reversed $92 $-1 #
face $-1 $236 $237 $50 $-1 $238 reversed single #
loop $-1 $-1 $239 $94 #
plane-surface $-1 -77.621997741630338 -17.910774842832488 0.39414255651520591 -0.64278761758704617 0 0.76604443648966558 0.76604443648966558 0 0.64278761758704617 forward_v I I I I #
coedge $-1 $240 $241 $242 $243 reversed $95 $-1 #
face $-1 $-1 $244 $51 $-1 $245 forward single #
loop $-1 $246 $247 $97 #
cone-surface $-1 -71.460300691699999 -20.539335883313164 3.0470881986975211 0.64278761758704617 0 -0.76604443648966558 0.38302221824483279 0 0.32139380879352308 1 I I -0.70710678118654746 0.70710678118654746 0.5 forward I I I I #
loop $-1 $-1 $248 $65 #
coedge $-1 $156 $156 $249 $250 reversed $98 $-1 #
face $-1 $-1 $251 $52 $-1 $252 forward single #
loop $-1 $253 $254 $100 #
cone-surface $-1 -71.460300691699999 -15.282213802351812 3.0470881986975211 0.64278761758704617 0 -0.76604443648966558 0.38302221824483279 0 0.32139380879352308 1 I I -0.70710678118654746 0.70710678118654746 0.5 forward I I I I #
loop $-1 $-1 $255 $66 #
coedge $-1 $161 $161 $256 $257 reversed $101 $-1 #
face $-1 $258 $259 $53 $-1 $260 reversed single #
loop $-1 $-1 $261 $103 #
plane-surface $-1 -77.621997741630338 10.806499291825823 0.39414255651520591 -0.64278761758704617 0 0.76604443648966558 0.76604443648966558 0 0.64278761758704617 forward_v I I I I #
coedge $-1 $262 $263 $264 $265 reversed $104 $-1 #
face $-1 $-1 $266 $54 $-1 $267 forward single #
loop $-1 $268 $269 $106 #
cone-surface $-1 -71.460300691699999 8.1779382513451466 3.0470881986975211 0.64278761758704617 0 -0.76604443648966558 0.38302221824483279 0 0.32139380879352308 1 I I -0.70710678118654746 0.70710678118654746 0.5 forward I I I I #
loop $-1 $-1 $270 $68 #
coedge $-1 $170 $170 $271 $272 reversed $107 $-1 #
face $-1 $-1 $273 $55 $-1 $274 forward single #
loop $-1 $275 $276 $109 #
cone-surface $-1 -71.460300691699999 13.435060332306499 3.0470881986975211 0.64278761758704617 0 -0.76604443648966558 0.38302221824483279 0 0.32139380879352308 1 I I -0.70710678118654746 0.70710678118654746 0.5 forward I I I I #
loop $-1 $-1 $277 $69 #
coedge $-1 $175 $175 $278 $279 reversed $110 $-1 #
face $-1 $280 $281 $42 $-1 $282 reversed single #
loop $-1 $-1 $283 $112 #
plane-surface $-1 0 -33.390464332029225 0 0 1 0 0 0 1 forward_v I I I I #
coedge $-1 $284 $285 $286 $287 forward $113 $-1 #
coedge $-1 $288 $115 $289 $290 forward $71 $-1 #
coedge $-1 $115 $288 $291 $292 forward $71 $-1 #
coedge $-1 $293 $294 $115 $183 reversed $295 $-1 #
edge $-1 $296 -33.390464332029225 $297 33.390464332029225 $182 $298 forward 7 unknown #
face $-1 $299 $300 $43 $-1 $301 reversed single #
loop $-1 $-1 $302 $116 #
plane-surface $-1 0 0 -8.6544961249272436 0 0 1 1 0 0 forward_v I I I I #
coedge $-1 $303 $304 $305 $306 reversed $117 $-1 #
coedge $-1 $307 $119 $304 $308 forward $74 $-1 #
coedge $-1 $119 $307 $309 $310 reversed $74 $-1 #
coedge $-1 $311 $305 $119 $191 forward $300 $-1 #
edge $-1 $312 9.6854468699582412 $313 19.03182726470007 $190 $314 forward 7 unknown #
face $-1 $315 $316 $44 $-1 $317 reversed single #
loop $-1 $-1 $318 $120 #
plane-surface $-1 58.487116704630978 -24.044083937287397 219.10685959627304 0 1 0 0.64278761758704617 0 0.76604443648966558 forward_v I I I I #
coedge $-1 $319 $320 $321 $322 reversed $121 $-1 #
coedge $-1 $197 $123 $323 $324 reversed $77 $-1 #
coedge $-1 $123 $196 $319 $325 reversed $77 $-1 #
coedge $-1 $321 $326 $123 $199 forward $327 $-1 #
edge $-1 $328 -48.378439389314821 $329 -38.534133554249948 $198 $330 forward 7 unknown #
loop $-1 $-1 $205 $124 #
plane-surface $-1 -41.301801296748266 -17.910774842832488 100.18306055789446 0.64278761758704617 0 0.76604443648966558 0.76604443648966558 0 -0.64278761758704617 forward_v I I I I #
loop $-1 $-1 $331 $79 #
coedge $-1 $203 $203 $204 $332 reversed $125 $-1 #
coedge $-1 $204 $204 $203 $332 forward $127 $-1 #
coedge $-1 $205 $205 $128 $206 forward $200 $-1 #
edge $-1 $333 0 $333 6.2831853071796004 $205 $334 forward 7 unknown #
loop $-1 $-1 $212 $129 #
plane-surface $-1 -41.301801296748266 -17.910774842832488 100.18306055789446 0.64278761758704617 0 0.76604443648966558 0.76604443648966558 0 -0.64278761758704617 forward_v I I I I #
loop $-1 $-1 $335 $82 #
coedge $-1 $210 $210 $211 $336 reversed $130 $-1 #
coedge $-1 $211 $211 $210 $336 forward $132 $-1 #
coedge $-1 $212 $212 $133 $213 forward $207 $-1 #
edge $-1 $337 0 $337 6.2831853071796004 $212 $338 forward 7 unknown #
face $-1 $339 $340 $47 $-1 $341 reversed single #
loop $-1 $-1 $342 $134 #
plane-surface $-1 58.487116704630978 4.6731901973709133 219.10685959627304 0 1 0 0.64278761758704617 0 0.76604443648966558 forward_v I I I I #
coedge $-1 $343 $344 $345 $346 reversed $135 $-1 #
coedge $-1 $219 $137 $347 $348 reversed $86 $-1 #
coedge $-1 $137 $218 $343 $349 reversed $86 $-1 #
coedge $-1 $345 $350 $137 $221 forward $351 $-1 #
edge $-1 $352 -48.378439389314821 $353 -38.534133554249948 $220 $354 forward 7 unknown #
loop $-1 $-1 $227 $138 #
plane-surface $-1 -41.301801296748266 10.806499291825823 100.18306055789446 0.64278761758704617 0 0.76604443648966558 0.76604443648966558 0 -0.64278761758704617 forward_v I I I I #
loop $-1 $-1 $355 $88 #
coedge $-1 $225 $225 $226 $356 reversed $139 $-1 #
coedge $-1 $226 $226 $225 $356 forward $141 $-1 #
coedge $-1 $227 $227 $142 $228 forward $222 $-1 #
edge $-1 $357 0 $357 6.2831853071796004 $227 $358 forward 7 unknown #
loop $-1 $-1 $234 $143 #
plane-surface $-1 -41.301801296748266 10.806499291825823 100.18306055789446 0.64278761758704617 0 0.76604443648966558 0.76604443648966558 0 -0.64278761758704617 forward_v I I I I #
loop $-1 $-1 $359 $91 #
coedge $-1 $232 $232 $233 $360 reversed $144 $-1 #
coedge $-1 $233 $233 $232 $360 forward $146 $-1 #
coedge $-1 $234 $234 $147 $235 forward $229 $-1 #
edge $-1 $361 0 $361 6.2831853071796004 $234 $362 forward 7 unknown #
face $-1 $363 $364 $50 $-1 $365 forward single #
loop $-1 $-1 $366 $148 #
plane-surface $-1 -177.41091574300958 -11.77746574837758 119.31794159489378 0 -1 0 0.64278761758704617 0 -0.76604443648966558 forward_v I I I I #
coedge $-1 $367 $368 $369 $370 reversed $149 $-1 #
coedge $-1 $241 $151 $371 $372 reversed $95 $-1 #
coedge $-1 $151 $240 $367 $373 reversed $95 $-1 #
coedge $-1 $369 $374 $151 $243 forward $364 $-1 #
edge $-1 $375 11.083460129874481 $376 20.927765964939312 $242 $377 forward 7 unknown #
loop $-1 $-1 $249 $152 #
plane-surface $-1 -77.621997741630338 -17.910774842832488 0.39414255651520591 -0.64278761758704617 0 0.76604443648966558 0.76604443648966558 0 0.64278761758704617 forward_v I I I I #
loop $-1 $-1 $378 $97 #
coedge $-1 $247 $247 $248 $379 reversed $153 $-1 #
coedge $-1 $248 $248 $247 $379 forward $155 $-1 #
coedge $-1 $249 $249 $156 $250 forward $244 $-1 #
edge $-1 $380 0 $380 6.2831853071796004 $249 $381 forward 7 unknown #
loop $-1 $-1 $256 $157 #
plane-surface $-1 -77.621997741630338 -17.910774842832488 0.39414255651520591 -0.64278761758704617 0 0.76604443648966558 0.76604443648966558 0 0.64278761758704617 forward_v I I I I #
loop $-1 $-1 $382 $100 #
coedge $-1 $254 $254 $255 $383 reversed $158 $-1 #
coedge $-1 $255 $255 $254 $383 forward $160 $-1 #
coedge $-1 $256 $256 $161 $257 forward $251 $-1 #
edge $-1 $384 0 $384 6.2831853071796004 $256 $385 forward 7 unknown #
face $-1 $386 $387 $53 $-1 $388 forward single #
loop $-1 $-1 $389 $162 #
plane-surface $-1 -177.41091574300958 16.939808386280731 119.31794159489378 0 -1 0 0.64278761758704617 0 -0.76604443648966558 forward_v I I I I #
coedge $-1 $390 $391 $392 $393 reversed $163 $-1 #
coedge $-1 $263 $165 $394 $395 reversed $104 $-1 #
coedge $-1 $165 $262 $390 $396 reversed $104 $-1 #
coedge $-1 $392 $397 $165 $265 forward $387 $-1 #
edge $-1 $398 11.083460129874481 $399 20.927765964939312 $264 $400 forward 7 unknown #
loop $-1 $-1 $271 $166 #
plane-surface $-1 -77.621997741630338 10.806499291825823 0.39414255651520591 -0.64278761758704617 0 0.76604443648966558 0.76604443648966558 0 0.64278761758704617 forward_v I I I I #
loop $-1 $-1 $401 $106 #
coedge $-1 $269 $269 $270 $402 reversed $167 $-1 #
coedge $-1 $270 $270 $269 $402 forward $169 $-1 #
coedge $-1 $271 $271 $170 $272 forward $266 $-1 #
edge $-1 $403 0 $403 6.2831853071796004 $271 $404 forward 7 unknown #
loop $-1 $-1 $278 $171 #
plane-surface $-1 -77.621997741630338 10.806499291825823 0.39414255651520591 -0.64278761758704617 0 0.76604443648966558 0.76604443648966558 0 0.64278761758704617 forward_v I I I I #
loop $-1 $-1 $405 $109 #
coedge $-1 $276 $276 $277 $406 reversed $172 $-1 #
coedge $-1 $277 $277 $276 $406 forward $174 $-1 #
coedge $-1 $278 $278 $175 $279 forward $273 $-1 #
edge $-1 $407 0 $407 6.2831853071796004 $278 $408 forward 7 unknown #
face $-1 $409 $410 $42 $-1 $411 reversed single #
loop $-1 $-1 $412 $176 #
plane-surface $-1 -77.62199774163031 0 0 1 0 0 0 0 -1 forward_v I I I I #
coedge $-1 $413 $291 $414 $415 forward $177 $-1 #
coedge $-1 $416 $179 $413 $417 forward $113 $-1 #
coedge $-1 $179 $416 $418 $419 forward $113 $-1 #
coedge $-1 $294 $293 $179 $287 reversed $295 $-1 #
edge $-1 $420 -33.390464332029225 $421 33.390464332029225 $286 $422 forward 7 unknown #
coedge $-1 $181 $180 $423 $424 forward $71 $-1 #
coedge $-1 $425 $426 $180 $290 reversed $410 $-1 #
edge $-1 $297 -77.62199774163031 $427 77.62199774163031 $289 $428 forward 7 unknown #
coedge $-1 $283 $429 $181 $292 reversed $177 $-1 #
edge $-1 $430 -77.62199774163031 $296 77.62199774163031 $291 $431 forward 7 unknown #
coedge $-1 $286 $182 $429 $432 forward $295 $-1 #
coedge $-1 $182 $286 $425 $433 reversed $295 $-1 #
loop $-1 $-1 $293 $409 #
vertex $-1 $183 $434 #
vertex $-1 $183 $435 #
straight-curve $-1 77.62199774163031 0 8.6544961249272436 0 1 0 I I #
face $-1 $436 $437 $43 $-1 $438 reversed single #
loop $-1 $-1 $305 $184 #
plane-surface $-1 77.62199774163031 0 0 -1 0 0 0 0 1 forward_v I I I I #
coedge $-1 $439 $440 $303 $441 forward $185 $-1 #
coedge $-1 $442 $187 $302 $441 reversed $117 $-1 #
coedge $-1 $187 $442 $188 $308 reversed $117 $-1 #
coedge $-1 $190 $443 $187 $306 forward $300 $-1 #
edge $-1 $444 -5.0772480624636218 $312 -2.0772480624636218 $305 $445 forward 7 unknown #
coedge $-1 $189 $188 $446 $447 reversed $74 $-1 #
edge $-1 $312 -77.62199774163031 $448 77.62199774163031 $304 $449 forward 7 unknown #
coedge $-1 $450 $451 $189 $310 forward $437 $-1 #
edge $-1 $313 -77.62199774163031 $452 77.62199774163031 $309 $453 forward 7 unknown #
coedge $-1 $443 $190 $451 $454 forward $300 $-1 #
vertex $-1 $191 $455 #
vertex $-1 $454 $456 #
straight-curve $-1 77.62199774163031 -14.358637067329155 -5.6544961249272436 0 -1 0 I I #
face $-1 $-1 $327 $44 $-1 $457 forward single #
loop $-1 $-1 $458 $192 #
plane-surface $-1 77.62199774163031 0 0 -1 0 0 0 0 1 forward_v I I I I #
coedge $-1 $459 $460 $461 $462 reversed $193 $-1 #
coedge $-1 $463 $195 $197 $325 forward $121 $-1 #
coedge $-1 $195 $463 $459 $464 forward $121 $-1 #
coedge $-1 $461 $198 $195 $322 forward $327 $-1 #
edge $-1 $329 2.8220783269613356 $465 15.088696515871153 $321 $466 forward 7 unknown #
coedge $-1 $467 $468 $196 $324 forward $316 $-1 #
edge $-1 $469 -109.1592872416213 $328 -100.89893367320927 $323 $470 forward 7 unknown #
edge $-1 $329 142.3931667765402 $469 155.24399548326062 $197 $471 forward 7 unknown #
coedge $-1 $198 $461 $467 $472 forward $327 $-1 #
loop $-1 $-1 $461 $315 #
vertex $-1 $324 $473 #
vertex $-1 $199 $474 #
straight-curve $-1 29.243558352315489 -11.77746574837758 8.654496124927249 -1 0 0 I I #
coedge $-1 $331 $331 $-1 $475 reversed $202 $-1 #
edge $-1 $476 0 $476 6.2831853071796004 $203 $477 forward 7 unknown #
vertex $-1 $206 $478 #
ellipse-curve $-1 72.699844824097895 -20.539335883313164 4.5243193407211999 0.64278761758704617 0 0.76604443648966558 0.76604443648966558 0 -0.64278761758704617 1 I I #
coedge $-1 $335 $335 $-1 $479 reversed $209 $-1 #
edge $-1 $480 0 $480 6.2831853071796004 $210 $481 forward 7 unknown #
vertex $-1 $213 $482 #
ellipse-curve $-1 72.699844824097895 -15.282213802351812 4.5243193407211999 0.64278761758704617 0 0.76604443648966558 0.76604443648966558 0 -0.64278761758704617 1 I I #
face $-1 $-1 $351 $47 $-1 $483 forward single #
loop $-1 $-1 $484 $214 #
plane-surface $-1 77.62199774163031 0 0 -1 0 0 0 0 1 forward_v I I I I #
coedge $-1 $485 $486 $487 $488 reversed $215 $-1 #
coedge $-1 $489 $217 $219 $349 forward $135 $-1 #
coedge $-1 $217 $489 $485 $490 forward $135 $-1 #
coedge $-1 $487 $220 $217 $346 forward $351 $-1 #
edge $-1 $353 -11.53655874036782 $491 0.730059448541998 $345 $492 forward 7 unknown #
coedge $-1 $493 $494 $218 $348 forward $340 $-1 #
edge $-1 $495 -109.1592872416213 $352 -100.89893367320927 $347 $496 forward 7 unknown #
edge $-1 $353 142.3931667765402 $495 155.24399548326062 $219 $497 forward 7 unknown #
coedge $-1 $220 $487 $493 $498 forward $351 $-1 #
loop $-1 $-1 $487 $339 #
vertex $-1 $348 $499 #
vertex $-1 $221 $500 #
straight-curve $-1 29.243558352315489 16.939808386280731 8.654496124927249 -1 0 0 I I #
coedge $-1 $355 $355 $-1 $501 reversed $224 $-1 #
edge $-1 $502 0 $502 6.2831853071796004 $225 $503 forward 7 unknown #
vertex $-1 $228 $504 #
ellipse-curve $-1 72.699844824097895 8.1779382513451466 4.5243193407211999 0.64278761758704617 0 0.76604443648966558 0.76604443648966558 0 -0.64278761758704617 1 I I #
coedge $-1 $359 $359 $-1 $505 reversed $231 $-1 #
edge $-1 $506 0 $506 6.2831853071796004 $232 $507 forward 7 unknown #
vertex $-1 $235 $508 #
ellipse-curve $-1 72.699844824097895 13.435060332306499 4.5243193407211999 0.64278761758704617 0 0.76604443648966558 0.76604443648966558 0 -0.64278761758704617 1 I I #
face $-1 $-1 $509 $50 $-1 $510 reversed single #
loop $-1 $-1 $242 $236 #
plane-surface $-1 0 0 8.6544961249272436 0 0 1 1 0 0 forward_v I I I I #
coedge $-1 $511 $512 $513 $514 reversed $237 $-1 #
coedge $-1 $515 $239 $241 $373 forward $149 $-1 #
coedge $-1 $239 $515 $511 $516 forward $149 $-1 #
coedge $-1 $513 $242 $239 $370 forward $364 $-1 #
edge $-1 $376 -15.088696515871153 $517 -2.8220783269613356 $369 $518 forward 7 unknown #
coedge $-1 $519 $520 $240 $372 forward $509 $-1 #
edge $-1 $521 -59.264828240931664 $375 -51.004474672519649 $371 $522 forward 7 unknown #
edge $-1 $376 -12.850828706720415 $521 -3.7115501063952265e-014 $241 $523 forward 7 unknown #
coedge $-1 $242 $513 $519 $524 forward $364 $-1 #
vertex $-1 $372 $525 #
vertex $-1 $243 $526 #
straight-curve $-1 -88.705457871504791 -24.044083937287397 8.6544961249272419 1 0 0 I I #
coedge $-1 $378 $378 $-1 $527 reversed $246 $-1 #
edge $-1 $528 0 $528 6.2831853071796004 $247 $529 forward 7 unknown #
vertex $-1 $250 $530 #
ellipse-curve $-1 -72.699844824097895 -20.539335883313164 4.5243193407212363 -0.64278761758704617 0 0.76604443648966558 0.76604443648966558 0 0.64278761758704617 1 I I #
coedge $-1 $382 $382 $-1 $531 reversed $253 $-1 #
edge $-1 $532 0 $532 6.2831853071796004 $254 $533 forward 7 unknown #
vertex $-1 $257 $534 #
ellipse-curve $-1 -72.699844824097895 -15.282213802351812 4.5243193407212363 -0.64278761758704617 0 0.76604443648966558 0.76604443648966558 0 0.64278761758704617 1 I I #
face $-1 $-1 $535 $53 $-1 $536 reversed single #
loop $-1 $-1 $264 $258 #
plane-surface $-1 0 0 8.6544961249272436 0 0 1 1 0 0 forward_v I I I I #
coedge $-1 $537 $538 $539 $540 reversed $259 $-1 #
coedge $-1 $541 $261 $263 $396 forward $163 $-1 #
coedge $-1 $261 $541 $537 $542 forward $163 $-1 #
coedge $-1 $539 $264 $261 $393 forward $387 $-1 #
edge $-1 $399 -0.730059448541998 $543 11.53655874036782 $392 $544 forward 7 unknown #
coedge $-1 $545 $546 $262 $395 forward $535 $-1 #
edge $-1 $547 -59.264828240931664 $398 -51.004474672519649 $394 $548 forward 7 unknown #
edge $-1 $399 -12.850828706720415 $547 -3.7115501063952265e-014 $263 $549 forward 7 unknown #
coedge $-1 $264 $539 $545 $550 forward $387 $-1 #
vertex $-1 $265 $551 #
vertex $-1 $265 $552 #
straight-curve $-1 -88.705457871504791 4.6731901973709133 8.6544961249272419 1 0 0 I I #
coedge $-1 $401 $401 $-1 $553 reversed $268 $-1 #
edge $-1 $554 0 $554 6.2831853071796004 $269 $555 forward 7 unknown #
vertex $-1 $272 $556 #
ellipse-curve $-1 -72.699844824097895 8.1779382513451466 4.5243193407212363 -0.64278761758704617 0 0.76604443648966558 0.76604443648966558 0 0.64278761758704617 1 I I #
coedge $-1 $405 $405 $-1 $557 reversed $275 $-1 #
edge $-1 $558 0 $558 6.2831853071796004 $276 $559 forward 7 unknown #
vertex $-1 $279 $560 #
ellipse-curve $-1 -72.699844824097895 13.435060332306499 4.5243193407212363 -0.64278761758704617 0 0.76604443648966558 0.76604443648966558 0 0.64278761758704617 1 I I #
face $-1 $-1 $295 $42 $-1 $561 reversed single #
loop $-1 $-1 $425 $280 #
plane-surface $-1 0 33.390464332029225 0 0 -1 0 0 0 -1 forward_v I I I I #
coedge $-1 $562 $423 $426 $563 forward $281 $-1 #
coedge $-1 $429 $283 $284 $417 reversed $177 $-1 #
coedge $-1 $423 $562 $283 $415 reversed $281 $-1 #
edge $-1 $430 -8.6544961249272436 $564 8.6544961249272436 $414 $565 forward 7 unknown #
coedge $-1 $285 $284 $562 $566 forward $113 $-1 #
edge $-1 $421 -77.62199774163031 $564 77.62199774163031 $413 $567 forward 7 unknown #
coedge $-1 $426 $425 $285 $419 reversed $410 $-1 #
edge $-1 $568 -77.62199774163031 $420 77.62199774163031 $418 $569 forward 7 unknown #
vertex $-1 $287 $570 #
vertex $-1 $432 $571 #
straight-curve $-1 77.62199774163031 0 -8.6544961249272436 0 -1 0 I I #
coedge $-1 $412 $414 $288 $424 reversed $281 $-1 #
edge $-1 $427 -33.390464332029225 $430 33.390464332029225 $423 $572 forward 7 unknown #
coedge $-1 $418 $289 $294 $433 forward $410 $-1 #
coedge $-1 $289 $418 $412 $563 reversed $410 $-1 #
vertex $-1 $290 $573 #
straight-curve $-1 0 33.390464332029225 8.6544961249272436 -1 0 0 I I #
coedge $-1 $291 $413 $293 $432 reversed $177 $-1 #
vertex $-1 $424 $574 #
straight-curve $-1 0 -33.390464332029225 8.6544961249272436 1 0 0 I I #
edge $-1 $296 -8.6544961249272436 $421 8.6544961249272436 $293 $575 forward 7 unknown #
edge $-1 $297 -8.6544961249272436 $420 8.6544961249272436 $294 $576 forward 7 unknown #
point $-1 77.62199774163031 -33.390464332029225 8.6544961249272436 #
point $-1 77.62199774163031 33.390464332029225 8.6544961249272436 #
face $-1 $-1 $577 $43 $-1 $578 reversed single #
loop $-1 $-1 $309 $299 #
plane-surface $-1 0 -33.390464332029225 0 0 1 0 0 0 1 forward_v I I I I #
coedge $-1 $579 $302 $443 $580 forward $185 $-1 #
coedge $-1 $302 $579 $581 $582 forward $185 $-1 #
edge $-1 $583 -77.62199774163031 $444 77.62199774163031 $302 $584 forward 7 unknown #
coedge $-1 $304 $303 $585 $586 reversed $117 $-1 #
coedge $-1 $305 $311 $439 $580 reversed $300 $-1 #
vertex $-1 $580 $587 #
straight-curve $-1 77.62199774163031 -24.044083937287397 -3.5772480624636218 0 0 1 I I #
coedge $-1 $585 $588 $307 $447 forward $577 $-1 #
edge $-1 $452 -19.03182726470007 $448 -9.6854468699582412 $446 $589 forward 7 unknown #
vertex $-1 $447 $590 #
straight-curve $-1 0 -24.044083937287397 -5.6544961249272436 -1 0 0 I I #
coedge $-1 $591 $309 $588 $592 forward $437 $-1 #
coedge $-1 $309 $591 $311 $454 reversed $437 $-1 #
vertex $-1 $592 $593 #
straight-curve $-1 0 -33.390464332029225 -5.6544961249272436 -1 0 0 I I #
edge $-1 $313 5.6544961249272436 $594 8.6544961249272436 $311 $595 forward 7 unknown #
point $-1 77.62199774163031 -24.044083937287397 -5.6544961249272436 #
point $-1 77.62199774163031 -33.390464332029225 -5.6544961249272436 #
plane-surface $-1 0 0 8.6544961249272436 0 0 1 1 0 0 forward_v I I I I #
coedge $-1 $468 $467 $460 $596 forward $316 $-1 #
coedge $-1 $460 $318 $320 $464 reversed $193 $-1 #
coedge $-1 $318 $459 $458 $596 reversed $193 $-1 #
coedge $-1 $326 $321 $318 $462 forward $327 $-1 #
edge $-1 $465 38.534133554249948 $597 48.378439389314821 $461 $598 forward 7 unknown #
coedge $-1 $320 $319 $468 $599 reversed $121 $-1 #
edge $-1 $600 -155.24399548326062 $465 -142.3931667765402 $459 $601 forward 7 unknown #
vertex $-1 $322 $602 #
straight-curve $-1 67.777691906565451 -8.9553874214162441 8.6544961249272561 0 -1 0 I I #
coedge $-1 $458 $323 $326 $472 reversed $316 $-1 #
coedge $-1 $323 $458 $463 $599 forward $316 $-1 #
vertex $-1 $324 $603 #
straight-curve $-1 77.62199774163031 -11.77746574837758 109.55342979813652 0 0 1 I I #
straight-curve $-1 -41.301801296748266 -11.77746574837758 100.18306055789446 0.76604443648966558 0 -0.64278761758704617 I I #
edge $-1 $597 -24.044083937287397 $328 -11.77746574837758 $467 $604 forward 7 unknown #
point $-1 77.62199774163031 -11.77746574837758 8.6544961249272436 #
point $-1 67.777691906565437 -11.77746574837758 8.654496124927249 #
edge $-1 $605 1 $605 0 $331 $-1 forward 7 unknown #
vertex $-1 $332 $606 #
ellipse-curve $-1 71.781694500493529 -20.539335883313164 3.4301104169423327 0.64278761758704617 0 0.76604443648966558 0.76604443648966558 0 -0.64278761758704617 1 I I #
point $-1 73.465889260587559 -20.539335883313164 3.8815317231341582 #
edge $-1 $607 1 $607 0 $335 $-1 forward 7 unknown #
vertex $-1 $336 $608 #
ellipse-curve $-1 71.781694500493529 -15.282213802351812 3.4301104169423327 0.64278761758704617 0 0.76604443648966558 0.76604443648966558 0 -0.64278761758704617 1 I I #
point $-1 73.465889260587559 -15.282213802351812 3.8815317231341582 #
plane-surface $-1 0 0 8.6544961249272436 0 0 1 1 0 0 forward_v I I I I #
coedge $-1 $494 $493 $486 $609 forward $340 $-1 #
coedge $-1 $486 $342 $344 $490 reversed $215 $-1 #
coedge $-1 $342 $485 $484 $609 reversed $215 $-1 #
coedge $-1 $350 $345 $342 $488 forward $351 $-1 #
edge $-1 $491 38.534133554249948 $610 48.378439389314821 $487 $611 forward 7 unknown #
coedge $-1 $344 $343 $494 $612 reversed $135 $-1 #
edge $-1 $613 -155.24399548326062 $491 -142.3931667765402 $485 $614 forward 7 unknown #
vertex $-1 $346 $615 #
straight-curve $-1 67.777691906565451 5.4032496459129113 8.6544961249272561 0 -1 0 I I #
coedge $-1 $484 $347 $350 $498 reversed $340 $-1 #
coedge $-1 $347 $484 $489 $612 forward $340 $-1 #
vertex $-1 $348 $616 #
straight-curve $-1 77.62199774163031 16.939808386280731 109.55342979813652 0 0 1 I I #
straight-curve $-1 -41.301801296748266 16.939808386280731 100.18306055789446 0.76604443648966558 0 -0.64278761758704617 I I #
edge $-1 $610 4.6731901973709133 $352 16.939808386280731 $493 $617 forward 7 unknown #
point $-1 77.62199774163031 16.939808386280731 8.6544961249272436 #
point $-1 67.777691906565437 16.939808386280731 8.654496124927249 #
edge $-1 $618 1 $618 0 $355 $-1 forward 7 unknown #
vertex $-1 $356 $619 #
ellipse-curve $-1 71.781694500493529 8.1779382513451466 3.4301104169423327 0.64278761758704617 0 0.76604443648966558 0.76604443648966558 0 -0.64278761758704617 1 I I #
point $-1 73.465889260587559 8.1779382513451466 3.8815317231341582 #
edge $-1 $620 1 $620 0 $359 $-1 forward 7 unknown #
vertex $-1 $360 $621 #
ellipse-curve $-1 71.781694500493529 13.435060332306499 3.4301104169423327 0.64278761758704617 0 0.76604443648966558 0.76604443648966558 0 -0.64278761758704617 1 I I #
point $-1 73.465889260587559 13.435060332306499 3.8815317231341582 #
loop $-1 $-1 $371 $363 #
plane-surface $-1 -77.62199774163031 0 0 1 0 0 0 0 -1 forward_v I I I I #
coedge $-1 $512 $366 $368 $516 reversed $237 $-1 #
coedge $-1 $366 $511 $622 $623 reversed $237 $-1 #
coedge $-1 $374 $369 $366 $514 forward $364 $-1 #
edge $-1 $517 -20.927765964939312 $624 -11.083460129874481 $513 $625 forward 7 unknown #
coedge $-1 $368 $367 $520 $626 reversed $149 $-1 #
edge $-1 $627 3.7115501063952265e-014 $517 12.850828706720415 $511 $628 forward 7 unknown #
vertex $-1 $370 $629 #
straight-curve $-1 -67.777691906565479 -8.9553874214162441 8.6544961249272436 0 1 0 I I #
coedge $-1 $622 $371 $374 $524 reversed $509 $-1 #
coedge $-1 $371 $622 $515 $626 forward $509 $-1 #
vertex $-1 $372 $630 #
straight-curve $-1 -77.62199774163031 -24.044083937287397 59.658970797446891 0 0 1 I I #
straight-curve $-1 -77.621997741630338 -24.044083937287397 0.39414255651520591 -0.76604443648966558 0 -0.64278761758704617 I I #
edge $-1 $624 11.77746574837758 $375 24.044083937287397 $519 $631 forward 7 unknown #
point $-1 -77.62199774163031 -24.044083937287397 8.6544961249272436 #
point $-1 -67.777691906565479 -24.044083937287397 8.6544961249272436 #
edge $-1 $632 1 $632 0 $378 $-1 forward 7 unknown #
vertex $-1 $379 $633 #
ellipse-curve $-1 -71.781694500493515 -20.539335883313164 3.430110416942354 -0.64278761758704617 0 0.76604443648966558 0.76604443648966558 0 0.64278761758704617 1 I I #
point $-1 -71.933800387608215 -20.539335883313164 5.1671069583082723 #
edge $-1 $634 1 $634 0 $382 $-1 forward 7 unknown #
vertex $-1 $383 $635 #
ellipse-curve $-1 -71.781694500493515 -15.282213802351812 3.430110416942354 -0.64278761758704617 0 0.76604443648966558 0.76604443648966558 0 0.64278761758704617 1 I I #
point $-1 -71.933800387608215 -15.282213802351812 5.1671069583082723 #
loop $-1 $-1 $394 $386 #
plane-surface $-1 -77.62199774163031 0 0 1 0 0 0 0 -1 forward_v I I I I #
coedge $-1 $538 $389 $391 $542 reversed $259 $-1 #
coedge $-1 $389 $537 $636 $637 reversed $259 $-1 #
coedge $-1 $397 $392 $389 $540 forward $387 $-1 #
edge $-1 $543 -20.927765964939312 $638 -11.083460129874481 $539 $639 forward 7 unknown #
coedge $-1 $391 $390 $546 $640 reversed $163 $-1 #
edge $-1 $641 3.7115501063952265e-014 $543 12.850828706720415 $537 $642 forward 7 unknown #
vertex $-1 $393 $643 #
straight-curve $-1 -67.777691906565479 5.4032496459129113 8.6544961249272436 0 1 0 I I #
coedge $-1 $636 $394 $397 $550 reversed $535 $-1 #
coedge $-1 $394 $636 $541 $640 forward $535 $-1 #
vertex $-1 $395 $644 #
straight-curve $-1 -77.62199774163031 4.6731901973709133 59.658970797446891 0 0 1 I I #
straight-curve $-1 -77.621997741630338 4.6731901973709133 0.39414255651520591 -0.76604443648966558 0 -0.64278761758704617 I I #
edge $-1 $638 -16.939808386280731 $398 -4.6731901973709133 $545 $645 forward 7 unknown #
point $-1 -77.62199774163031 4.6731901973709133 8.6544961249272436 #
point $-1 -67.777691906565479 4.6731901973709133 8.6544961249272436 #
edge $-1 $646 1 $646 0 $401 $-1 forward 7 unknown #
vertex $-1 $402 $647 #
ellipse-curve $-1 -71.781694500493515 8.1779382513451466 3.430110416942354 -0.64278761758704617 0 0.76604443648966558 0.76604443648966558 0 0.64278761758704617 1 I I #
point $-1 -71.933800387608215 8.1779382513451466 5.1671069583082723 #
edge $-1 $648 1 $648 0 $405 $-1 forward 7 unknown #
vertex $-1 $406 $649 #
ellipse-curve $-1 -71.781694500493515 13.435060332306499 3.430110416942354 -0.64278761758704617 0 0.76604443648966558 0.76604443648966558 0 0.64278761758704617 1 I I #
point $-1 -71.933800387608215 13.435060332306499 5.1671069583082723 #
plane-surface $-1 77.62199774163031 0 0 -1 0 0 0 0 1 forward_v I I I I #
coedge $-1 $414 $412 $416 $566 reversed $281 $-1 #
edge $-1 $427 -8.6544961249272436 $568 8.6544961249272436 $426 $650 forward 7 unknown #
vertex $-1 $566 $651 #
straight-curve $-1 -77.62199774163031 -33.390464332029225 0 0 0 -1 I I #
edge $-1 $564 -33.390464332029225 $568 33.390464332029225 $562 $652 forward 7 unknown #
straight-curve $-1 0 -33.390464332029225 -8.6544961249272436 -1 0 0 I I #
vertex $-1 $419 $653 #
straight-curve $-1 0 33.390464332029225 -8.6544961249272436 1 0 0 I I #
point $-1 77.62199774163031 33.390464332029225 -8.6544961249272436 #
point $-1 77.62199774163031 -33.390464332029225 -8.6544961249272436 #
straight-curve $-1 -77.62199774163031 0 8.6544961249272436 0 -1 0 I I #
point $-1 -77.62199774163031 33.390464332029225 8.6544961249272436 #
point $-1 -77.62199774163031 -33.390464332029225 8.6544961249272436 #
straight-curve $-1 77.62199774163031 -33.390464332029225 0 0 0 -1 I I #
straight-curve $-1 77.62199774163031 33.390464332029225 0 0 0 -1 I I #
loop $-1 $-1 $585 $436 #
plane-surface $-1 -77.62199774163031 0 0 1 0 0 0 0 -1 forward_v I I I I #
coedge $-1 $440 $439 $591 $654 forward $185 $-1 #
edge $-1 $444 24.044083937287397 $594 33.390464332029225 $443 $655 forward 7 unknown #
coedge $-1 $588 $585 $440 $582 reversed $577 $-1 #
edge $-1 $656 -33.390464332029225 $583 -24.044083937287397 $581 $657 forward 7 unknown #
vertex $-1 $586 $658 #
straight-curve $-1 0 -24.044083937287397 -8.6544961249272436 1 0 0 I I #
coedge $-1 $581 $446 $442 $586 forward $577 $-1 #
edge $-1 $448 2.0772480624636218 $583 5.0772480624636218 $585 $659 forward 7 unknown #
point $-1 77.62199774163031 -24.044083937287397 -8.6544961249272436 #
coedge $-1 $446 $581 $450 $592 reversed $577 $-1 #
straight-curve $-1 -77.62199774163031 -14.358637067329155 -5.6544961249272436 0 1 0 I I #
point $-1 -77.62199774163031 -24.044083937287397 -5.6544961249272436 #
coedge $-1 $451 $450 $579 $654 reversed $437 $-1 #
edge $-1 $452 5.6544961249272436 $656 8.6544961249272436 $588 $660 forward 7 unknown #
point $-1 -77.62199774163031 -33.390464332029225 -5.6544961249272436 #
vertex $-1 $454 $661 #
straight-curve $-1 77.62199774163031 -33.390464332029225 0 0 0 -1 I I #
edge $-1 $597 100.89893367320927 $600 109.1592872416213 $458 $662 forward 7 unknown #
vertex $-1 $472 $663 #
straight-curve $-1 29.243558352315489 -24.044083937287397 8.654496124927249 1 0 0 I I #
edge $-1 $600 -15.088696515871153 $469 -2.8220783269613356 $468 $664 forward 7 unknown #
vertex $-1 $599 $665 #
straight-curve $-1 -41.301801296748266 -24.044083937287397 100.18306055789446 -0.76604443648966558 0 0.64278761758704617 I I #
point $-1 67.777691906565437 -24.044083937287397 8.654496124927249 #
point $-1 77.62199774163031 -11.77746574837758 0.39414255651522012 #
straight-curve $-1 77.62199774163031 0 8.6544961249272436 0 1 0 I I #
vertex $-1 $475 $666 #
point $-1 72.547738936983208 -20.539335883313164 2.7873227993552865 #
vertex $-1 $479 $667 #
point $-1 72.547738936983208 -15.282213802351812 2.7873227993552865 #
edge $-1 $610 100.89893367320927 $613 109.1592872416213 $484 $668 forward 7 unknown #
vertex $-1 $498 $669 #
straight-curve $-1 29.243558352315489 4.6731901973709133 8.654496124927249 1 0 0 I I #
edge $-1 $613 -0.730059448541998 $495 11.53655874036782 $494 $670 forward 7 unknown #
vertex $-1 $612 $671 #
straight-curve $-1 -41.301801296748266 4.6731901973709133 100.18306055789446 -0.76604443648966558 0 0.64278761758704617 I I #
point $-1 67.777691906565437 4.6731901973709133 8.654496124927249 #
point $-1 77.62199774163031 16.939808386280731 0.39414255651522012 #
straight-curve $-1 77.62199774163031 0 8.6544961249272436 0 1 0 I I #
vertex $-1 $501 $672 #
point $-1 72.547738936983208 8.1779382513451466 2.7873227993552865 #
vertex $-1 $505 $673 #
point $-1 72.547738936983208 13.435060332306499 2.7873227993552865 #
coedge $-1 $520 $519 $512 $623 forward $509 $-1 #
edge $-1 $624 51.004474672519649 $627 59.264828240931664 $622 $674 forward 7 unknown #
vertex $-1 $524 $675 #
straight-curve $-1 -88.705457871504791 -11.77746574837758 8.6544961249272419 -1 0 0 I I #
edge $-1 $627 2.8220783269613356 $521 15.088696515871153 $520 $676 forward 7 unknown #
vertex $-1 $626 $677 #
straight-curve $-1 -77.621997741630338 -11.77746574837758 0.39414255651520591 0.76604443648966558 0 0.64278761758704617 I I #
point $-1 -67.777691906565479 -11.77746574837758 8.6544961249272436 #
point $-1 -77.62199774163031 -24.044083937287397 0.39414255651522978 #
straight-curve $-1 -77.62199774163031 0 8.6544961249272436 0 -1 0 I I #
vertex $-1 $527 $678 #
point $-1 -71.01565006400385 -20.539335883313164 4.0728980345294001 #
vertex $-1 $531 $679 #
point $-1 -71.01565006400385 -15.282213802351812 4.0728980345294001 #
coedge $-1 $546 $545 $538 $637 forward $535 $-1 #
edge $-1 $638 51.004474672519649 $641 59.264828240931664 $636 $680 forward 7 unknown #
vertex $-1 $550 $681 #
straight-curve $-1 -88.705457871504791 16.939808386280731 8.6544961249272419 -1 0 0 I I #
edge $-1 $641 -11.53655874036782 $547 0.730059448541998 $546 $682 forward 7 unknown #
vertex $-1 $640 $683 #
straight-curve $-1 -77.621997741630338 16.939808386280731 0.39414255651520591 0.76604443648966558 0 0.64278761758704617 I I #
point $-1 -67.777691906565479 16.939808386280731 8.6544961249272436 #
point $-1 -77.62199774163031 4.6731901973709133 0.39414255651522978 #
straight-curve $-1 -77.62199774163031 0 8.6544961249272436 0 -1 0 I I #
vertex $-1 $553 $684 #
point $-1 -71.01565006400385 8.1779382513451466 4.0728980345294001 #
vertex $-1 $557 $685 #
point $-1 -71.01565006400385 13.435060332306499 4.0728980345294001 #
straight-curve $-1 -77.62199774163031 33.390464332029225 0 0 0 -1 I I #
point $-1 -77.62199774163031 -33.390464332029225 -8.6544961249272436 #
straight-curve $-1 -77.62199774163031 0 -8.6544961249272436 0 1 0 I I #
point $-1 -77.62199774163031 33.390464332029225 -8.6544961249272436 #
edge $-1 $594 -77.62199774163031 $656 77.62199774163031 $591 $686 forward 7 unknown #
straight-curve $-1 77.62199774163031 0 -8.6544961249272436 0 -1 0 I I #
vertex $-1 $582 $687 #
straight-curve $-1 -77.62199774163031 0 -8.6544961249272436 0 1 0 I I #
point $-1 -77.62199774163031 -24.044083937287397 -8.6544961249272436 #
straight-curve $-1 -77.62199774163031 -24.044083937287397 -3.5772480624636218 0 0 -1 I I #
straight-curve $-1 -77.62199774163031 -33.390464332029225 0 0 0 -1 I I #
point $-1 77.62199774163031 -33.390464332029225 -8.6544961249272436 #
straight-curve $-1 77.62199774163031 -24.044083937287397 109.55342979813652 0 0 -1 I I #
point $-1 77.62199774163031 -24.044083937287397 8.6544961249272436 #
straight-curve $-1 77.62199774163031 -8.9553874214162441 0.39414255651522012 0 1 0 I I #
point $-1 77.62199774163031 -24.044083937287397 0.39414255651522012 #
point $-1 71.138906882906497 -20.539335883313164 2.664065980452667 #
point $-1 71.138906882906497 -15.282213802351812 2.664065980452667 #
straight-curve $-1 77.62199774163031 4.6731901973709133 109.55342979813652 0 0 -1 I I #
point $-1 77.62199774163031 4.6731901973709133 8.6544961249272436 #
straight-curve $-1 77.62199774163031 5.4032496459129113 0.39414255651522012 0 1 0 I I #
point $-1 77.62199774163031 4.6731901973709133 0.39414255651522012 #
point $-1 71.138906882906497 8.1779382513451466 2.664065980452667 #
point $-1 71.138906882906497 13.435060332306499 2.664065980452667 #
straight-curve $-1 -77.62199774163031 -11.77746574837758 59.658970797446891 0 0 -1 I I #
point $-1 -77.62199774163031 -11.77746574837758 8.6544961249272436 #
straight-curve $-1 -77.62199774163031 -8.9553874214162441 0.39414255651523522 0 -1 0 I I #
point $-1 -77.62199774163031 -11.77746574837758 0.39414255651522978 #
point $-1 -71.138906882906483 -20.539335883313164 2.6640659804526883 #
point $-1 -71.138906882906483 -15.282213802351812 2.6640659804526883 #
straight-curve $-1 -77.62199774163031 16.939808386280731 59.658970797446891 0 0 -1 I I #
point $-1 -77.62199774163031 16.939808386280731 8.6544961249272436 #
straight-curve $-1 -77.62199774163031 5.4032496459129113 0.39414255651523522 0 -1 0 I I #
point $-1 -77.62199774163031 16.939808386280731 0.39414255651522978 #
point $-1 -71.138906882906483 8.1779382513451466 2.6640659804526883 #
point $-1 -71.138906882906483 13.435060332306499 2.6640659804526883 #
straight-curve $-1 0 -33.390464332029225 -8.6544961249272436 -1 0 0 I I #
point $-1 -77.62199774163031 -33.390464332029225 -8.6544961249272436 #
End-of-ACIS-data 