500 0 7 0           
7 Unknown 11 ACIS 5.0 NT 24 Fri Mar 26 16:49:40 1999 
-1 9.9999999999999995e-007 1e-010 
body $-1 $7 $-1 $8 #
body $-1 $9 $-1 $10 #
body $-1 $11 $-1 $12 #
body $-1 $13 $-1 $14 #
body $-1 $15 $-1 $16 #
body $-1 $17 $-1 $18 #
body $-1 $19 $-1 $20 #
lump $-1 $-1 $21 $0 #
transform $-1 1 0 0 0 1 0 0 0 1 79.028290658284249 51.498024555891071 14.099837565255324 1 rotate no_reflect no_shear #
lump $-1 $-1 $22 $1 #
transform $-1 1 0 0 0 1 0 0 0 1 79.028290658284249 51.498024555891071 14.099837565255324 1 rotate no_reflect no_shear #
lump $-1 $-1 $23 $2 #
transform $-1 1 0 0 0 1 0 0 0 1 79.028290658284249 51.498024555891071 14.099837565255324 1 rotate no_reflect no_shear #
lump $-1 $-1 $24 $3 #
transform $-1 1 0 0 0 1 0 0 0 1 79.028290658284249 51.498024555891071 14.099837565255324 1 rotate no_reflect no_shear #
lump $-1 $-1 $25 $4 #
transform $-1 1 0 0 0 1 0 0 0 1 79.028290658284249 51.498024555891071 14.099837565255324 1 rotate no_reflect no_shear #
lump $-1 $-1 $26 $5 #
transform $-1 1 0 0 0 1 0 0 0 1 79.028290658284249 51.498024555891071 14.099837565255324 1 rotate no_reflect no_shear #
lump $-1 $-1 $27 $6 #
transform $-1 1 0 0 0 1 0 0 0 1 79.028290658284249 51.498024555891071 14.099837565255324 1 rotate no_reflect no_shear #
shell $-1 $-1 $-1 $28 $-1 $7 #
shell $-1 $-1 $-1 $29 $-1 $9 #
shell $-1 $-1 $-1 $30 $-1 $11 #
shell $-1 $-1 $-1 $31 $-1 $13 #
shell $-1 $-1 $-1 $32 $-1 $15 #
shell $-1 $-1 $-1 $33 $-1 $17 #
shell $-1 $-1 $-1 $34 $-1 $19 #
face $-1 $35 $36 $21 $-1 $37 forward single #
face $-1 $38 $39 $22 $-1 $40 forward single #
face $-1 $41 $42 $23 $-1 $43 forward single #
face $-1 $44 $45 $24 $-1 $46 reversed single #
face $-1 $47 $48 $25 $-1 $49 forward single #
face $-1 $50 $51 $26 $-1 $52 reversed single #
face $-1 $53 $54 $27 $-1 $55 forward single #
face $-1 $56 $57 $21 $-1 $58 reversed single #
loop $-1 $-1 $59 $28 #
plane-surface $-1 0 0 14.099837565255324 0 0 1 1 0 0 forward_v I I I I #
face $-1 $60 $61 $22 $-1 $62 forward single #
loop $-1 $-1 $63 $29 #
plane-surface $-1 -79.028290658284249 0 0 1 0 0 0 0 -1 forward_v I I I I #
face $-1 $64 $65 $23 $-1 $66 reversed single #
loop $-1 $-1 $67 $30 #
plane-surface $-1 79.028290658284249 0 0 -1 0 0 0 0 1 forward_v I I I I #
face $-1 $68 $69 $24 $-1 $70 reversed single #
loop $-1 $-1 $71 $31 #
plane-surface $-1 32.556952992632525 127.95976111218997 178.1514974175472 1 0 0 0 -0.83867057594974714 -0.54463902268945019 forward_v I I I I #
face $-1 $72 $73 $25 $-1 $74 forward single #
loop $-1 $75 $76 $32 #
cone-surface $-1 48.484540942324898 46.573140904081995 8.4694133166280992 0 -0.83867057594974714 -0.54463902268945019 1.5 0 0 1 I I 0 1 1.5 forward I I I I #
face $-1 $77 $78 $26 $-1 $79 reversed single #
loop $-1 $-1 $80 $33 #
plane-surface $-1 -44.975065747436162 -163.26090631273422 117.80855929970356 -1 0 0 0 -0.70710678939079041 0.70710677298230451 forward_v I I I I #
face $-1 $81 $82 $27 $-1 $83 forward single #
loop $-1 $84 $85 $34 #
cone-surface $-1 -54.693597319726706 -45.965077358346441 8.5668903092057569 0 0.70710678939079041 -0.70710677298230451 2.5 0 0 1 I I 0 1 2.5 forward I I I I #
face $-1 $86 $87 $21 $-1 $88 reversed single #
loop $-1 $-1 $89 $35 #
plane-surface $-1 0 0 -14.099837565255324 0 0 1 1 0 0 forward_v I I I I #
coedge $-1 $90 $91 $92 $93 forward $36 $-1 #
face $-1 $94 $95 $22 $-1 $96 reversed single #
loop $-1 $-1 $97 $38 #
plane-surface $-1 0 0 14.099837565255324 0 0 1 1 0 0 forward_v I I I I #
coedge $-1 $98 $99 $100 $101 forward $39 $-1 #
face $-1 $102 $103 $23 $-1 $104 reversed single #
loop $-1 $-1 $105 $41 #
plane-surface $-1 0 -51.498024555891071 0 0 1 0 0 0 1 forward_v I I I I #
coedge $-1 $106 $107 $108 $109 forward $42 $-1 #
face $-1 $110 $111 $24 $-1 $112 reversed single #
loop $-1 $-1 $113 $44 #
plane-surface $-1 48.484540942324884 -4.5976429732245663 92.067715439655728 0 0.83867057594974714 0.54463902268945019 1 0 0 forward_v I I I I #
coedge $-1 $114 $115 $116 $117 reversed $45 $-1 #
face $-1 $-1 $118 $25 $-1 $119 forward single #
loop $-1 $120 $121 $47 #
cone-surface $-1 48.484540942324898 43.750622940854406 6.6364487783469777 0 -0.83867057594974714 -0.54463902268945019 0.75 0 0 1 I I -0.70710678118654757 0.70710678118654757 0.75 forward I I I I #
loop $-1 $-1 $122 $32 #
coedge $-1 $76 $76 $123 $124 reversed $48 $-1 #
face $-1 $125 $126 $26 $-1 $127 reversed single #
loop $-1 $-1 $128 $50 #
plane-surface $-1 -54.693597319726706 -51.498024555891078 6.045680136329608 0 -0.70710678939079041 0.70710677298230451 1 0 0 forward_v I I I I #
coedge $-1 $129 $130 $131 $132 reversed $51 $-1 #
face $-1 $-1 $133 $27 $-1 $134 forward single #
loop $-1 $135 $136 $53 #
cone-surface $-1 -54.693597319726706 -43.57532529507742 6.1771383013911745 0 0.70710678939079041 -0.70710677298230451 1.25 0 0 1 I I -0.70710678118654746 0.70710678118654746 1.25 forward I I I I #
loop $-1 $-1 $137 $34 #
coedge $-1 $85 $85 $138 $139 reversed $54 $-1 #
face $-1 $140 $141 $21 $-1 $142 reversed single #
loop $-1 $-1 $143 $56 #
plane-surface $-1 0 -51.498024555891071 0 0 1 0 0 0 1 forward_v I I I I #
coedge $-1 $144 $145 $146 $147 forward $57 $-1 #
coedge $-1 $148 $59 $149 $150 forward $36 $-1 #
coedge $-1 $59 $148 $151 $152 forward $36 $-1 #
coedge $-1 $153 $154 $59 $93 reversed $155 $-1 #
edge $-1 $156 -51.498024555891071 $157 51.498024555891071 $92 $158 forward 7 unknown #
face $-1 $159 $160 $22 $-1 $161 reversed single #
loop $-1 $-1 $162 $60 #
plane-surface $-1 -93.644452424551247 -47.981262494379116 0 1 0 0 0 0 -1 forward_v I I I I #
coedge $-1 $163 $164 $98 $165 forward $61 $-1 #
coedge $-1 $166 $63 $97 $165 reversed $39 $-1 #
coedge $-1 $63 $166 $167 $168 reversed $39 $-1 #
coedge $-1 $169 $170 $63 $101 reversed $160 $-1 #
edge $-1 $171 -14.099837565255324 $172 14.099837565255324 $100 $173 forward 7 unknown #
face $-1 $174 $175 $23 $-1 $176 reversed single #
loop $-1 $-1 $177 $64 #
plane-surface $-1 0 0 -14.099837565255324 0 0 1 1 0 0 forward_v I I I I #
coedge $-1 $178 $179 $180 $181 forward $65 $-1 #
coedge $-1 $180 $67 $177 $182 reversed $42 $-1 #
coedge $-1 $67 $180 $183 $184 reversed $42 $-1 #
coedge $-1 $185 $186 $67 $109 reversed $175 $-1 #
edge $-1 $187 -14.099837565255324 $188 14.099837565255324 $108 $189 forward 7 unknown #
face $-1 $190 $191 $24 $-1 $192 reversed single #
loop $-1 $-1 $193 $68 #
plane-surface $-1 64.41212889201725 127.95976111218997 178.1514974175472 -1 0 0 0 0.83867057594974714 0.54463902268945019 forward_v I I I I #
coedge $-1 $194 $195 $196 $197 reversed $69 $-1 #
coedge $-1 $115 $71 $198 $199 reversed $45 $-1 #
coedge $-1 $71 $114 $194 $200 reversed $45 $-1 #
coedge $-1 $196 $201 $71 $117 forward $202 $-1 #
edge $-1 $203 12.481856000203912 $204 17.94459324129155 $116 $205 forward 7 unknown #
loop $-1 $-1 $123 $72 #
plane-surface $-1 48.484540942324884 -4.5976429732245663 92.067715439655728 0 0.83867057594974714 0.54463902268945019 1 0 0 forward_v I I I I #
loop $-1 $-1 $206 $47 #
coedge $-1 $121 $121 $122 $207 reversed $73 $-1 #
coedge $-1 $122 $122 $121 $207 forward $75 $-1 #
coedge $-1 $123 $123 $76 $124 forward $118 $-1 #
edge $-1 $208 -3.9962775262769978e-016 $208 6.2831853071796004 $123 $209 forward 7 unknown #
face $-1 $210 $211 $26 $-1 $212 forward single #
loop $-1 $-1 $213 $77 #
plane-surface $-1 -64.41212889201725 -163.26090631273422 117.80855929970356 1 0 0 0 0.70710678939079041 -0.70710677298230451 forward_v I I I I #
coedge $-1 $214 $215 $216 $217 reversed $78 $-1 #
coedge $-1 $130 $80 $218 $219 reversed $51 $-1 #
coedge $-1 $80 $129 $214 $220 reversed $51 $-1 #
coedge $-1 $216 $221 $80 $132 forward $211 $-1 #
edge $-1 $222 30.13242860047604 $223 38.186585842504194 $131 $224 forward 7 unknown #
loop $-1 $-1 $138 $81 #
plane-surface $-1 -54.693597319726706 -51.498024555891078 6.045680136329608 0 -0.70710678939079041 0.70710677298230451 1 0 0 forward_v I I I I #
loop $-1 $-1 $225 $53 #
coedge $-1 $136 $136 $137 $226 reversed $82 $-1 #
coedge $-1 $137 $137 $136 $226 forward $84 $-1 #
coedge $-1 $138 $138 $85 $139 forward $133 $-1 #
edge $-1 $227 -9.3271443184267575e-023 $227 6.2831853071796004 $138 $228 forward 7 unknown #
face $-1 $229 $230 $21 $-1 $231 reversed single #
loop $-1 $-1 $232 $86 #
plane-surface $-1 -79.028290658284249 0 0 1 0 0 0 0 -1 forward_v I I I I #
coedge $-1 $233 $151 $234 $235 forward $87 $-1 #
coedge $-1 $236 $89 $233 $237 forward $57 $-1 #
coedge $-1 $89 $236 $238 $239 forward $57 $-1 #
coedge $-1 $154 $153 $89 $147 reversed $155 $-1 #
edge $-1 $240 -51.498024555891071 $241 51.498024555891071 $146 $242 forward 7 unknown #
coedge $-1 $91 $90 $243 $244 forward $36 $-1 #
coedge $-1 $245 $246 $90 $150 reversed $230 $-1 #
edge $-1 $157 -79.028290658284249 $247 79.028290658284249 $149 $248 forward 7 unknown #
coedge $-1 $143 $249 $91 $152 reversed $87 $-1 #
edge $-1 $250 -79.028290658284249 $156 79.028290658284249 $151 $251 forward 7 unknown #
coedge $-1 $146 $92 $249 $252 forward $155 $-1 #
coedge $-1 $92 $146 $245 $253 reversed $155 $-1 #
loop $-1 $-1 $153 $229 #
vertex $-1 $93 $254 #
vertex $-1 $93 $255 #
straight-curve $-1 79.028290658284249 0 14.099837565255324 0 1 0 I I #
face $-1 $256 $257 $22 $-1 $258 reversed single #
loop $-1 $-1 $100 $94 #
plane-surface $-1 -86.336371541417748 -44.464500432867162 0 0 -1 0 0 0 -1 forward_v I I I I #
coedge $-1 $259 $260 $261 $262 forward $95 $-1 #
coedge $-1 $263 $97 $170 $264 forward $61 $-1 #
coedge $-1 $97 $263 $265 $266 forward $61 $-1 #
edge $-1 $267 -51.498024555891071 $172 -44.464500432867162 $97 $268 forward 7 unknown #
coedge $-1 $99 $98 $269 $270 reversed $39 $-1 #
coedge $-1 $271 $272 $99 $168 forward $257 $-1 #
edge $-1 $171 44.464500432867162 $273 51.498024555891071 $167 $274 forward 7 unknown #
coedge $-1 $261 $100 $272 $275 reversed $160 $-1 #
coedge $-1 $100 $261 $163 $264 reversed $160 $-1 #
vertex $-1 $168 $276 #
vertex $-1 $264 $277 #
straight-curve $-1 -79.028290658284249 -44.464500432867162 0 0 0 1 I I #
face $-1 $278 $279 $23 $-1 $280 reversed single #
loop $-1 $-1 $281 $102 #
plane-surface $-1 86.336371541417748 -44.464500432867162 0 0 -1 0 0 0 -1 forward_v I I I I #
coedge $-1 $282 $283 $106 $182 forward $103 $-1 #
coedge $-1 $284 $105 $283 $285 reversed $65 $-1 #
coedge $-1 $105 $284 $286 $287 reversed $65 $-1 #
coedge $-1 $107 $106 $105 $181 reversed $42 $-1 #
edge $-1 $288 -14.099837565255324 $289 14.099837565255324 $105 $290 forward 7 unknown #
edge $-1 $289 -51.498024555891071 $188 -44.464500432867162 $177 $291 forward 7 unknown #
coedge $-1 $286 $292 $107 $184 forward $293 $-1 #
edge $-1 $187 44.464500432867162 $288 51.498024555891071 $183 $294 forward 7 unknown #
coedge $-1 $281 $108 $292 $295 reversed $175 $-1 #
coedge $-1 $108 $281 $282 $296 reversed $175 $-1 #
vertex $-1 $184 $297 #
vertex $-1 $296 $298 #
straight-curve $-1 79.028290658284249 -44.464500432867162 0 0 0 -1 I I #
face $-1 $-1 $202 $24 $-1 $299 forward single #
loop $-1 $-1 $300 $110 #
plane-surface $-1 0 51.498024555891071 0 0 -1 0 0 0 -1 forward_v I I I I #
coedge $-1 $301 $302 $303 $304 reversed $111 $-1 #
coedge $-1 $305 $113 $115 $200 forward $69 $-1 #
coedge $-1 $113 $305 $301 $306 forward $69 $-1 #
coedge $-1 $303 $116 $113 $197 forward $202 $-1 #
edge $-1 $204 8.3146825214700826 $307 40.169858420854808 $196 $308 forward 7 unknown #
coedge $-1 $309 $310 $114 $199 forward $191 $-1 #
edge $-1 $311 -83.387789098244639 $203 -74.975911143518275 $198 $312 forward 7 unknown #
edge $-1 $204 92.966034710477558 $311 102.99604911178214 $115 $313 forward 7 unknown #
coedge $-1 $116 $303 $309 $314 forward $202 $-1 #
loop $-1 $-1 $303 $190 #
vertex $-1 $199 $315 #
vertex $-1 $117 $316 #
straight-curve $-1 32.556952992632525 63.979880556094983 14.099837565255328 0 -1 0 I I #
coedge $-1 $206 $206 $-1 $317 reversed $120 $-1 #
edge $-1 $318 0 $318 6.2831853071796004 $121 $319 forward 7 unknown #
vertex $-1 $124 $320 #
ellipse-curve $-1 48.484540942324898 48.766655935347259 9.8938985878921262 0 0.83867057594974714 0.54463902268945019 1.5 0 0 1 I I #
face $-1 $-1 $321 $26 $-1 $322 reversed single #
loop $-1 $-1 $131 $125 #
plane-surface $-1 0 0 14.099837565255324 0 0 1 1 0 0 forward_v I I I I #
coedge $-1 $323 $324 $325 $326 reversed $126 $-1 #
coedge $-1 $327 $128 $130 $220 forward $78 $-1 #
coedge $-1 $128 $327 $323 $328 forward $78 $-1 #
coedge $-1 $325 $131 $128 $217 forward $211 $-1 #
edge $-1 $223 17.628267087572809 $329 37.065330232153897 $216 $330 forward 7 unknown #
coedge $-1 $331 $332 $129 $219 forward $321 $-1 #
edge $-1 $333 -52.858599513522165 $222 -44.804442084596459 $218 $334 forward 7 unknown #
edge $-1 $223 -11.390298537318239 $333 -1.0048591735576163e-014 $130 $335 forward 7 unknown #
coedge $-1 $131 $325 $331 $336 forward $211 $-1 #
vertex $-1 $132 $337 #
vertex $-1 $132 $338 #
straight-curve $-1 -44.975065747436162 -81.630453156367111 14.099837565255328 0 1 0 I I #
coedge $-1 $225 $225 $-1 $339 reversed $135 $-1 #
edge $-1 $340 0 $340 6.2831853071796004 $136 $341 forward 7 unknown #
vertex $-1 $139 $342 #
ellipse-curve $-1 -54.693597319726706 -47.470945934876994 10.072758850792471 0 -0.70710678939079041 0.70710677298230451 2.5 0 0 1 I I #
face $-1 $-1 $155 $21 $-1 $343 reversed single #
loop $-1 $-1 $245 $140 #
plane-surface $-1 0 51.498024555891071 0 0 -1 0 0 0 -1 forward_v I I I I #
coedge $-1 $344 $243 $246 $345 forward $141 $-1 #
coedge $-1 $249 $143 $144 $237 reversed $87 $-1 #
coedge $-1 $243 $344 $143 $235 reversed $141 $-1 #
edge $-1 $250 -14.099837565255324 $346 14.099837565255324 $234 $347 forward 7 unknown #
coedge $-1 $145 $144 $344 $348 forward $57 $-1 #
edge $-1 $241 -79.028290658284249 $346 79.028290658284249 $233 $349 forward 7 unknown #
coedge $-1 $246 $245 $145 $239 reversed $230 $-1 #
edge $-1 $350 -79.028290658284249 $240 79.028290658284249 $238 $351 forward 7 unknown #
vertex $-1 $147 $352 #
vertex $-1 $252 $353 #
straight-curve $-1 79.028290658284249 0 -14.099837565255324 0 -1 0 I I #
coedge $-1 $232 $234 $148 $244 reversed $141 $-1 #
edge $-1 $247 -51.498024555891071 $250 51.498024555891071 $243 $354 forward 7 unknown #
coedge $-1 $238 $149 $154 $253 forward $230 $-1 #
coedge $-1 $149 $238 $232 $345 reversed $230 $-1 #
vertex $-1 $150 $355 #
straight-curve $-1 0 51.498024555891071 14.099837565255324 -1 0 0 I I #
coedge $-1 $151 $233 $153 $252 reversed $87 $-1 #
vertex $-1 $244 $356 #
straight-curve $-1 0 -51.498024555891071 14.099837565255324 1 0 0 I I #
edge $-1 $156 -14.099837565255324 $241 14.099837565255324 $153 $357 forward 7 unknown #
edge $-1 $157 -14.099837565255324 $240 14.099837565255324 $154 $358 forward 7 unknown #
point $-1 79.028290658284249 -51.498024555891071 14.099837565255324 #
point $-1 79.028290658284249 51.498024555891071 14.099837565255324 #
face $-1 $-1 $359 $22 $-1 $360 reversed single #
loop $-1 $-1 $167 $159 #
plane-surface $-1 0 0 -14.099837565255324 0 0 1 1 0 0 forward_v I I I I #
coedge $-1 $361 $162 $362 $363 reversed $95 $-1 #
coedge $-1 $162 $361 $263 $364 reversed $95 $-1 #
coedge $-1 $170 $169 $162 $262 reversed $160 $-1 #
edge $-1 $365 -14.099837565255324 $366 14.099837565255324 $261 $367 forward 7 unknown #
coedge $-1 $164 $163 $260 $364 forward $61 $-1 #
edge $-1 $172 -7.3080808831334991 $365 7.3080808831334991 $170 $368 forward 7 unknown #
coedge $-1 $369 $269 $164 $266 reversed $359 $-1 #
edge $-1 $370 -93.644452424551247 $267 -79.028290658284249 $265 $371 forward 7 unknown #
vertex $-1 $270 $372 #
straight-curve $-1 -79.028290658284249 0 14.099837565255324 0 1 0 I I #
coedge $-1 $265 $373 $166 $270 forward $359 $-1 #
edge $-1 $273 -14.099837565255324 $267 14.099837565255324 $269 $374 forward 7 unknown #
coedge $-1 $362 $167 $373 $375 forward $257 $-1 #
coedge $-1 $167 $362 $169 $275 forward $257 $-1 #
vertex $-1 $375 $376 #
straight-curve $-1 -79.028290658284249 0 -14.099837565255324 0 -1 0 I I #
edge $-1 $366 -7.3080808831334991 $171 7.3080808831334991 $169 $377 forward 7 unknown #
point $-1 -79.028290658284249 -44.464500432867162 -14.099837565255324 #
point $-1 -79.028290658284249 -44.464500432867162 14.099837565255324 #
face $-1 $-1 $293 $23 $-1 $378 forward single #
loop $-1 $-1 $379 $174 #
plane-surface $-1 93.644452424551247 -47.981262494379116 0 -1 0 0 0 0 1 forward_v I I I I #
coedge $-1 $186 $185 $380 $381 forward $175 $-1 #
coedge $-1 $382 $177 $186 $296 forward $103 $-1 #
coedge $-1 $177 $382 $178 $285 forward $103 $-1 #
coedge $-1 $179 $178 $379 $383 reversed $65 $-1 #
edge $-1 $384 -7.3080808831334991 $289 7.3080808831334991 $178 $385 forward 7 unknown #
coedge $-1 $386 $183 $179 $287 forward $293 $-1 #
edge $-1 $288 -7.3080808831334991 $387 7.3080808831334991 $179 $388 forward 7 unknown #
vertex $-1 $287 $389 #
vertex $-1 $182 $390 #
straight-curve $-1 79.028290658284249 -51.498024555891071 0 0 0 -1 I I #
straight-curve $-1 79.028290658284249 0 -14.099837565255324 0 1 0 I I #
coedge $-1 $183 $386 $185 $295 forward $293 $-1 #
loop $-1 $-1 $183 $278 #
straight-curve $-1 79.028290658284249 0 14.099837565255324 0 -1 0 I I #
edge $-1 $391 -7.3080808831334991 $187 7.3080808831334991 $185 $392 forward 7 unknown #
edge $-1 $188 -7.3080808831334991 $393 7.3080808831334991 $186 $394 forward 7 unknown #
point $-1 79.028290658284249 -44.464500432867162 14.099837565255324 #
point $-1 79.028290658284249 -44.464500432867162 -14.099837565255324 #
plane-surface $-1 0 0 14.099837565255324 0 0 1 1 0 0 forward_v I I I I #
coedge $-1 $310 $309 $302 $395 forward $191 $-1 #
coedge $-1 $302 $193 $195 $306 reversed $111 $-1 #
coedge $-1 $193 $301 $300 $395 reversed $111 $-1 #
coedge $-1 $201 $196 $193 $304 forward $202 $-1 #
edge $-1 $307 -17.94459324129155 $396 -12.481856000203912 $303 $397 forward 7 unknown #
coedge $-1 $195 $194 $310 $398 reversed $69 $-1 #
edge $-1 $399 -102.99604911178214 $307 -92.966034710477558 $301 $400 forward 7 unknown #
vertex $-1 $197 $401 #
straight-curve $-1 24.242270471162442 46.035287314803433 14.099837565255328 1 0 0 I I #
coedge $-1 $300 $198 $201 $314 reversed $191 $-1 #
coedge $-1 $198 $300 $305 $398 forward $191 $-1 #
vertex $-1 $199 $402 #
straight-curve $-1 32.556952992632525 51.498024555891071 89.075748708773602 0 0 1 I I #
straight-curve $-1 32.556952992632525 -4.5976429732245663 92.067715439655728 0 0.54463902268945019 -0.83867057594974714 I I #
edge $-1 $396 -64.41212889201725 $203 -32.556952992632525 $309 $403 forward 7 unknown #
point $-1 32.556952992632525 51.498024555891071 14.099837565255324 #
point $-1 32.556952992632525 46.035287314803433 14.099837565255328 #
edge $-1 $404 1 $404 0 $206 $-1 forward 7 unknown #
vertex $-1 $207 $405 #
ellipse-curve $-1 48.484540942324898 44.379625872816717 7.044928045364065 0 0.83867057594974714 0.54463902268945019 1.5 0 0 1 I I #
point $-1 49.984540942324898 48.766655935347266 9.8938985878921315 #
loop $-1 $-1 $218 $210 #
plane-surface $-1 0 -51.498024555891071 0 0 1 0 0 0 1 forward_v I I I I #
coedge $-1 $324 $213 $215 $328 reversed $126 $-1 #
coedge $-1 $213 $323 $406 $407 reversed $126 $-1 #
coedge $-1 $221 $216 $213 $326 forward $211 $-1 #
edge $-1 $329 -38.186585842504194 $408 -30.13242860047604 $325 $409 forward 7 unknown #
coedge $-1 $215 $214 $332 $410 reversed $78 $-1 #
edge $-1 $411 1.0048591735576163e-014 $329 11.390298537318239 $323 $412 forward 7 unknown #
vertex $-1 $217 $413 #
straight-curve $-1 -27.346798659863353 -43.44386731386291 14.099837565255324 -1 0 0 I I #
coedge $-1 $406 $218 $221 $336 reversed $321 $-1 #
coedge $-1 $218 $406 $327 $410 forward $321 $-1 #
vertex $-1 $219 $414 #
straight-curve $-1 -44.975065747436162 -51.498024555891071 58.90427964985178 0 0 1 I I #
straight-curve $-1 -44.975065747436162 -51.498024555891078 6.045680136329608 0 -0.70710677298230451 -0.70710678939079041 I I #
edge $-1 $408 -150.748500433435 $222 -131.31143728885391 $331 $415 forward 7 unknown #
point $-1 -44.975065747436162 -51.498024555891071 14.099837565255324 #
point $-1 -44.975065747436162 -43.443867313862917 14.099837565255324 #
edge $-1 $416 1 $416 0 $225 $-1 forward 7 unknown #
vertex $-1 $226 $417 #
ellipse-curve $-1 -54.693597319726706 -44.45920878181591 7.0610217676190548 0 -0.70710678939079041 0.70710677298230451 2.5 0 0 1 I I #
point $-1 -52.193597319726706 -47.47094593487698 10.072758850792457 #
plane-surface $-1 79.028290658284249 0 0 -1 0 0 0 0 1 forward_v I I I I #
coedge $-1 $234 $232 $236 $348 reversed $141 $-1 #
edge $-1 $247 -14.099837565255324 $350 14.099837565255324 $246 $418 forward 7 unknown #
vertex $-1 $348 $419 #
straight-curve $-1 -79.028290658284249 -51.498024555891071 0 0 0 -1 I I #
edge $-1 $346 -51.498024555891071 $350 51.498024555891071 $344 $420 forward 7 unknown #
straight-curve $-1 0 -51.498024555891071 -14.099837565255324 -1 0 0 I I #
vertex $-1 $239 $421 #
straight-curve $-1 0 51.498024555891071 -14.099837565255324 1 0 0 I I #
point $-1 79.028290658284249 51.498024555891071 -14.099837565255324 #
point $-1 79.028290658284249 -51.498024555891071 -14.099837565255324 #
straight-curve $-1 -79.028290658284249 0 14.099837565255324 0 -1 0 I I #
point $-1 -79.028290658284249 51.498024555891071 14.099837565255324 #
point $-1 -79.028290658284249 -51.498024555891071 14.099837565255324 #
straight-curve $-1 79.028290658284249 -51.498024555891071 0 0 0 -1 I I #
straight-curve $-1 79.028290658284249 51.498024555891071 0 0 0 -1 I I #
loop $-1 $-1 $269 $256 #
plane-surface $-1 0 -51.498024555891071 0 0 1 0 0 0 1 forward_v I I I I #
coedge $-1 $260 $259 $369 $422 reversed $95 $-1 #
coedge $-1 $272 $271 $259 $363 forward $257 $-1 #
edge $-1 $423 -3.5167620615119546 $366 3.5167620615119546 $259 $424 forward 7 unknown #
edge $-1 $365 -3.5167620615119546 $370 3.5167620615119546 $260 $425 forward 7 unknown #
vertex $-1 $264 $426 #
vertex $-1 $275 $427 #
straight-curve $-1 -93.644452424551247 -44.464500432867162 0 0 0 -1 I I #
straight-curve $-1 -86.336371541417748 -44.464500432867162 14.099837565255324 -1 0 0 I I #
coedge $-1 $373 $265 $361 $422 forward $359 $-1 #
vertex $-1 $364 $428 #
straight-curve $-1 0 -51.498024555891071 14.099837565255324 1 0 0 I I #
point $-1 -79.028290658284249 -51.498024555891071 14.099837565255324 #
coedge $-1 $269 $369 $271 $375 reversed $359 $-1 #
straight-curve $-1 -79.028290658284249 -51.498024555891071 0 0 0 1 I I #
edge $-1 $273 -7.3080808831334991 $423 7.3080808831334991 $373 $429 forward 7 unknown #
point $-1 -79.028290658284249 -51.498024555891071 -14.099837565255324 #
straight-curve $-1 -86.336371541417748 -44.464500432867162 -14.099837565255324 1 0 0 I I #
plane-surface $-1 0 0 14.099837565255324 0 0 1 1 0 0 forward_v I I I I #
coedge $-1 $430 $431 $284 $383 forward $279 $-1 #
coedge $-1 $431 $430 $281 $381 reversed $279 $-1 #
edge $-1 $391 -14.099837565255324 $393 14.099837565255324 $380 $432 forward 7 unknown #
coedge $-1 $283 $282 $430 $433 forward $103 $-1 #
edge $-1 $387 -14.099837565255324 $384 14.099837565255324 $379 $434 forward 7 unknown #
vertex $-1 $383 $435 #
straight-curve $-1 86.336371541417748 -51.498024555891071 -14.099837565255324 -1 0 0 I I #
coedge $-1 $292 $286 $431 $436 forward $293 $-1 #
vertex $-1 $436 $437 #
straight-curve $-1 86.336371541417748 -51.498024555891071 14.099837565255324 1 0 0 I I #
point $-1 79.028290658284249 -51.498024555891071 14.099837565255324 #
point $-1 79.028290658284249 -51.498024555891071 -14.099837565255324 #
vertex $-1 $436 $438 #
straight-curve $-1 86.336371541417748 -44.464500432867162 14.099837565255324 -1 0 0 I I #
vertex $-1 $433 $439 #
straight-curve $-1 86.336371541417748 -44.464500432867162 -14.099837565255324 1 0 0 I I #
edge $-1 $396 74.975911143518275 $399 83.387789098244639 $300 $440 forward 7 unknown #
vertex $-1 $314 $441 #
straight-curve $-1 64.41212889201725 63.979880556094983 14.099837565255328 0 1 0 I I #
edge $-1 $399 -40.169858420854808 $311 -8.3146825214700826 $310 $442 forward 7 unknown #
vertex $-1 $398 $443 #
straight-curve $-1 64.41212889201725 -4.5976429732245663 92.067715439655728 0 -0.54463902268945019 0.83867057594974714 I I #
point $-1 64.41212889201725 46.035287314803433 14.099837565255328 #
point $-1 32.556952992632525 51.498024555891071 5.6879596105289636 #
straight-curve $-1 0 51.498024555891071 14.099837565255324 -1 0 0 I I #
vertex $-1 $317 $444 #
point $-1 49.984540942324898 44.379625872816717 7.044928045364065 #
coedge $-1 $332 $331 $324 $407 forward $321 $-1 #
edge $-1 $408 44.804442084596459 $411 52.858599513522165 $406 $445 forward 7 unknown #
vertex $-1 $336 $446 #
straight-curve $-1 -64.41212889201725 -81.630453156367111 14.099837565255328 0 -1 0 I I #
edge $-1 $411 -37.065330232153897 $333 -17.628267087572809 $332 $447 forward 7 unknown #
vertex $-1 $410 $448 #
straight-curve $-1 -64.41212889201725 -51.498024555891078 6.045680136329608 0 0.70710677298230451 0.70710678939079041 I I #
point $-1 -64.41212889201725 -43.443867313862917 14.099837565255324 #
point $-1 -44.975065747436162 -51.498024555891071 6.0456801363296151 #
straight-curve $-1 86.336371541417748 -51.498024555891071 14.099837565255324 1 0 0 I I #
vertex $-1 $339 $449 #
point $-1 -52.193597319726706 -44.45920878181591 7.0610217676190548 #
straight-curve $-1 -79.028290658284249 51.498024555891071 0 0 0 -1 I I #
point $-1 -79.028290658284249 -51.498024555891071 -14.099837565255324 #
straight-curve $-1 -79.028290658284249 0 -14.099837565255324 0 1 0 I I #
point $-1 -79.028290658284249 51.498024555891071 -14.099837565255324 #
edge $-1 $370 -14.099837565255324 $423 14.099837565255324 $361 $450 forward 7 unknown #
vertex $-1 $363 $451 #
straight-curve $-1 -93.644452424551247 -47.981262494379116 -14.099837565255324 0 1 0 I I #
straight-curve $-1 -93.644452424551247 -47.981262494379116 14.099837565255324 0 -1 0 I I #
point $-1 -93.644452424551247 -44.464500432867162 14.099837565255324 #
point $-1 -93.644452424551247 -44.464500432867162 -14.099837565255324 #
point $-1 -93.644452424551247 -51.498024555891071 14.099837565255324 #
straight-curve $-1 -86.336371541417748 -51.498024555891071 -14.099837565255324 -1 0 0 I I #
coedge $-1 $380 $379 $382 $433 reversed $279 $-1 #
coedge $-1 $379 $380 $386 $436 reversed $279 $-1 #
straight-curve $-1 93.644452424551247 -44.464500432867162 0 0 0 -1 I I #
edge $-1 $393 -3.5167620615119546 $384 3.5167620615119546 $430 $452 forward 7 unknown #
straight-curve $-1 93.644452424551247 -51.498024555891071 0 0 0 -1 I I #
point $-1 93.644452424551247 -51.498024555891071 -14.099837565255324 #
edge $-1 $387 -3.5167620615119546 $391 3.5167620615119546 $431 $453 forward 7 unknown #
point $-1 93.644452424551247 -51.498024555891071 14.099837565255324 #
point $-1 93.644452424551247 -44.464500432867162 14.099837565255324 #
point $-1 93.644452424551247 -44.464500432867162 -14.099837565255324 #
straight-curve $-1 64.41212889201725 51.498024555891071 89.075748708773602 0 0 -1 I I #
point $-1 64.41212889201725 51.498024555891071 14.099837565255324 #
straight-curve $-1 24.242270471162442 51.498024555891071 5.6879596105289636 -1 0 0 I I #
point $-1 64.41212889201725 51.498024555891071 5.6879596105289636 #
point $-1 48.484540942324898 43.121620008892094 6.2279695113298903 #
straight-curve $-1 -64.41212889201725 -51.498024555891071 58.90427964985178 0 0 -1 I I #
point $-1 -64.41212889201725 -51.498024555891071 14.099837565255324 #
straight-curve $-1 -27.346798659863353 -51.498024555891071 6.0456801363296213 1 0 0 I I #
point $-1 -64.41212889201725 -51.498024555891071 6.0456801363296151 #
point $-1 -54.693597319726706 -42.691441808338929 5.2932548351632942 #
straight-curve $-1 -93.644452424551247 -51.498024555891071 0 0 0 -1 I I #
point $-1 -93.644452424551247 -51.498024555891071 -14.099837565255324 #
straight-curve $-1 93.644452424551247 -47.981262494379116 -14.099837565255324 0 -1 0 I I #
straight-curve $-1 93.644452424551247 -47.981262494379116 14.099837565255324 0 1 0 I I #
End-of-ACIS-data 