500 0 8 0           
7 Unknown 11 ACIS 5.0 NT 24 Fri Mar 26 15:49:20 1999 
-1 9.9999999999999995e-007 1e-010 
body $-1 $8 $-1 $9 #
body $-1 $10 $-1 $11 #
body $-1 $12 $-1 $13 #
body $-1 $14 $-1 $15 #
body $-1 $16 $-1 $17 #
body $-1 $18 $-1 $19 #
body $-1 $20 $-1 $21 #
body $-1 $22 $-1 $23 #
lump $-1 $-1 $24 $0 #
transform $-1 1 0 0 0 1 0 0 0 1 44.15540025025178 25.726075949508093 8.6782619068054068 1 rotate no_reflect no_shear #
lump $-1 $-1 $25 $1 #
transform $-1 1 0 0 0 1 0 0 0 1 44.15540025025178 25.726075949508093 8.6782619068054068 1 rotate no_reflect no_shear #
lump $-1 $-1 $26 $2 #
transform $-1 1 0 0 0 1 0 0 0 1 44.15540025025178 25.726075949508093 8.6782619068054068 1 rotate no_reflect no_shear #
lump $-1 $-1 $27 $3 #
transform $-1 1 0 0 0 1 0 0 0 1 44.15540025025178 25.726075949508093 8.6782619068054068 1 rotate no_reflect no_shear #
lump $-1 $-1 $28 $4 #
transform $-1 1 0 0 0 1 0 0 0 1 44.15540025025178 25.726075949508093 8.6782619068054068 1 rotate no_reflect no_shear #
lump $-1 $-1 $29 $5 #
transform $-1 1 0 0 0 1 0 0 0 1 44.15540025025178 25.726075949508093 8.6782619068054068 1 rotate no_reflect no_shear #
lump $-1 $-1 $30 $6 #
transform $-1 1 0 0 0 1 0 0 0 1 44.15540025025178 25.726075949508093 8.6782619068054068 1 rotate no_reflect no_shear #
lump $-1 $-1 $31 $7 #
transform $-1 1 0 0 0 1 0 0 0 1 44.15540025025178 25.726075949508093 8.6782619068054068 1 rotate no_reflect no_shear #
shell $-1 $-1 $-1 $32 $-1 $8 #
shell $-1 $-1 $-1 $33 $-1 $10 #
shell $-1 $-1 $-1 $34 $-1 $12 #
shell $-1 $-1 $-1 $35 $-1 $14 #
shell $-1 $-1 $-1 $36 $-1 $16 #
shell $-1 $-1 $-1 $37 $-1 $18 #
shell $-1 $-1 $-1 $38 $-1 $20 #
shell $-1 $-1 $-1 $39 $-1 $22 #
face $-1 $40 $41 $24 $-1 $42 forward single #
face $-1 $43 $44 $25 $-1 $45 reversed single #
face $-1 $46 $47 $26 $-1 $48 reversed single #
face $-1 $49 $50 $27 $-1 $51 reversed single #
face $-1 $52 $53 $28 $-1 $54 forward single #
face $-1 $55 $56 $29 $-1 $57 forward single #
face $-1 $58 $59 $30 $-1 $60 reversed single #
face $-1 $61 $62 $31 $-1 $63 forward single #
face $-1 $64 $65 $24 $-1 $66 reversed single #
loop $-1 $-1 $67 $32 #
plane-surface $-1 0 0 8.6782619068054068 0 0 1 1 0 0 forward_v I I I I #
face $-1 $68 $69 $25 $-1 $70 reversed single #
loop $-1 $-1 $71 $33 #
plane-surface $-1 0 -15.884168953307366 6.9372331187940937 0 -1 0 0 0 -1 forward_v I I I I #
face $-1 $72 $73 $26 $-1 $74 reversed single #
loop $-1 $-1 $75 $34 #
plane-surface $-1 0 20.805122451407733 5.1962043307827805 0 0 1 1 0 0 forward_v I I I I #
face $-1 $76 $77 $27 $-1 $78 reversed single #
loop $-1 $-1 $79 $35 #
plane-surface $-1 -44.155400250251787 -11.61621826677785 4.5126993107431304 -0.51503808176128008 0 0.85716729658548041 0.85716729658548041 0 0.51503808176128008 forward_v I I I I #
face $-1 $80 $81 $28 $-1 $82 forward single #
loop $-1 $83 $84 $36 #
cone-surface $-1 -40.431551091592318 -13.445339989576212 6.1668969604815196 0.51503808176128008 0 -0.85716729658548041 0.4285836482927402 0 0.25751904088064004 1 I I 0 1 0.5 forward I I I I #
face $-1 $85 $86 $29 $-1 $87 forward single #
loop $-1 $88 $89 $37 #
cone-surface $-1 -40.431551091592318 -9.7870965439794837 6.1668969604815196 0.51503808176128008 0 -0.85716729658548041 0.4285836482927402 0 0.25751904088064004 1 I I 0 1 0.5 forward I I I I #
face $-1 $90 $91 $30 $-1 $92 reversed single #
loop $-1 $-1 $93 $38 #
plane-surface $-1 16.061189444845141 0.37713692134965271 122.84629888294299 0 -1 0 -0.52991927123019833 0 -0.84804809178421925 forward_v I I I I #
face $-1 $94 $95 $31 $-1 $96 forward single #
loop $-1 $97 $98 $39 #
cone-surface $-1 37.463893428815588 -3.6331939409538201 3.840302390290125 -0.52991927123019833 0 -0.84804809178421925 0.84804809178421925 0 -0.52991927123019833 1 I I 0 1 1 forward I I I I #
face $-1 $99 $100 $24 $-1 $101 reversed single #
loop $-1 $-1 $102 $40 #
plane-surface $-1 0 0 -8.6782619068054068 0 0 1 1 0 0 forward_v I I I I #
coedge $-1 $103 $104 $105 $106 forward $41 $-1 #
face $-1 $107 $108 $25 $-1 $109 reversed single #
loop $-1 $-1 $110 $43 #
plane-surface $-1 0 -20.80512245140773 5.1962043307827805 0 0 1 1 0 0 forward_v I I I I #
coedge $-1 $111 $112 $113 $114 reversed $44 $-1 #
face $-1 $115 $116 $26 $-1 $117 forward single #
loop $-1 $-1 $118 $46 #
plane-surface $-1 0 15.88416895330737 6.9372331187940937 0 1 0 0 0 1 forward_v I I I I #
coedge $-1 $119 $120 $121 $122 reversed $47 $-1 #
face $-1 $123 $124 $27 $-1 $125 reversed single #
loop $-1 $-1 $126 $49 #
plane-surface $-1 -89.638825538834226 -7.3482675802483337 80.209829435059447 0 -1 0 0.51503808176128008 0 -0.85716729658548041 forward_v I I I I #
coedge $-1 $127 $128 $129 $130 reversed $50 $-1 #
face $-1 $-1 $131 $28 $-1 $132 forward single #
loop $-1 $133 $134 $52 #
cone-surface $-1 -40.045272530271362 -13.445339989576212 5.5240214880424094 0.51503808176128008 0 -0.85716729658548041 0.2142918241463701 0 0.12875952044032002 1 I I -0.70710678118654746 0.70710678118654746 0.25 forward I I I I #
loop $-1 $-1 $135 $36 #
coedge $-1 $84 $84 $136 $137 reversed $53 $-1 #
face $-1 $-1 $138 $29 $-1 $139 forward single #
loop $-1 $140 $141 $55 #
cone-surface $-1 -40.045272530271362 -9.7870965439794837 5.5240214880424094 0.51503808176128008 0 -0.85716729658548041 0.2142918241463701 0 0.12875952044032002 1 I I -0.70710678118654746 0.70710678118654746 0.25 forward I I I I #
loop $-1 $-1 $142 $37 #
coedge $-1 $89 $89 $143 $144 reversed $56 $-1 #
face $-1 $145 $146 $30 $-1 $147 reversed single #
loop $-1 $-1 $148 $58 #
plane-surface $-1 -30.736405598137146 -3.6331939409538201 47.954493034554062 0.52991927123019833 0 0.84804809178421925 0.84804809178421925 0 -0.52991927123019833 forward_v I I I I #
coedge $-1 $149 $150 $151 $152 reversed $59 $-1 #
face $-1 $-1 $153 $31 $-1 $154 forward single #
loop $-1 $155 $156 $61 #
cone-surface $-1 36.525776050786298 -3.6331939409538201 2.3390007854995396 -0.52991927123019833 0 -0.84804809178421925 0.42402404589210962 0 -0.26495963561509916 1 I I -0.70710678118654746 0.70710678118654746 0.5 forward I I I I #
loop $-1 $-1 $157 $39 #
coedge $-1 $98 $98 $158 $159 reversed $62 $-1 #
face $-1 $160 $161 $24 $-1 $162 reversed single #
loop $-1 $-1 $163 $64 #
plane-surface $-1 0 -25.726075949508093 0 0 1 0 0 0 1 forward_v I I I I #
coedge $-1 $164 $165 $166 $167 forward $65 $-1 #
coedge $-1 $168 $67 $169 $170 forward $41 $-1 #
coedge $-1 $67 $168 $171 $172 forward $41 $-1 #
coedge $-1 $173 $174 $67 $106 reversed $175 $-1 #
edge $-1 $176 -25.726075949508093 $177 25.726075949508093 $105 $178 forward 7 unknown #
face $-1 $179 $180 $25 $-1 $181 reversed single #
loop $-1 $-1 $182 $68 #
plane-surface $-1 -44.15540025025178 0 0 1 0 0 0 0 -1 forward_v I I I I #
coedge $-1 $183 $184 $185 $186 reversed $69 $-1 #
coedge $-1 $187 $71 $188 $189 reversed $44 $-1 #
coedge $-1 $71 $187 $182 $190 reversed $44 $-1 #
coedge $-1 $191 $192 $71 $114 forward $193 $-1 #
edge $-1 $194 -44.15540025025178 $195 44.15540025025178 $113 $196 forward 7 unknown #
face $-1 $197 $198 $26 $-1 $199 reversed single #
loop $-1 $-1 $200 $72 #
plane-surface $-1 0 0 8.6782619068054068 0 0 1 1 0 0 forward_v I I I I #
coedge $-1 $201 $202 $203 $204 reversed $73 $-1 #
coedge $-1 $205 $75 $201 $206 forward $47 $-1 #
coedge $-1 $75 $205 $207 $208 reversed $47 $-1 #
coedge $-1 $209 $210 $75 $122 forward $198 $-1 #
edge $-1 $211 5.4816077276035031 $212 15.32351472380423 $121 $213 forward 7 unknown #
face $-1 $214 $215 $27 $-1 $216 forward single #
loop $-1 $-1 $217 $76 #
plane-surface $-1 -44.15540025025178 0 0 1 0 0 0 0 -1 forward_v I I I I #
coedge $-1 $218 $219 $220 $221 reversed $77 $-1 #
coedge $-1 $222 $79 $223 $224 reversed $50 $-1 #
coedge $-1 $79 $222 $218 $225 forward $50 $-1 #
coedge $-1 $220 $226 $79 $130 forward $215 $-1 #
edge $-1 $227 -10.076059819918441 $228 -1.5401584468594089 $129 $229 forward 7 unknown #
loop $-1 $-1 $136 $80 #
plane-surface $-1 -44.155400250251787 -11.61621826677785 4.5126993107431304 -0.51503808176128008 0 0.85716729658548041 0.85716729658548041 0 0.51503808176128008 forward_v I I I I #
loop $-1 $-1 $230 $52 #
coedge $-1 $134 $134 $135 $231 reversed $81 $-1 #
coedge $-1 $135 $135 $134 $231 forward $83 $-1 #
coedge $-1 $136 $136 $84 $137 forward $131 $-1 #
edge $-1 $232 0 $232 6.2831853071796004 $136 $233 forward 7 unknown #
loop $-1 $-1 $143 $85 #
plane-surface $-1 -44.155400250251787 -11.61621826677785 4.5126993107431304 -0.51503808176128008 0 0.85716729658548041 0.85716729658548041 0 0.51503808176128008 forward_v I I I I #
loop $-1 $-1 $234 $55 #
coedge $-1 $141 $141 $142 $235 reversed $86 $-1 #
coedge $-1 $142 $142 $141 $235 forward $88 $-1 #
coedge $-1 $143 $143 $89 $144 forward $138 $-1 #
edge $-1 $236 0 $236 6.2831853071796004 $143 $237 forward 7 unknown #
face $-1 $238 $239 $30 $-1 $240 forward single #
loop $-1 $-1 $241 $90 #
plane-surface $-1 16.061189444845141 -7.6435248032572929 122.84629888294299 0 1 0 0.52991927123019833 0 0.84804809178421925 forward_v I I I I #
coedge $-1 $242 $243 $244 $245 reversed $91 $-1 #
coedge $-1 $150 $93 $246 $247 reversed $59 $-1 #
coedge $-1 $93 $149 $242 $248 reversed $59 $-1 #
coedge $-1 $244 $249 $93 $152 forward $239 $-1 #
edge $-1 $250 -36.12480552782921 $251 -24.088107369785178 $151 $252 forward 7 unknown #
loop $-1 $-1 $158 $94 #
plane-surface $-1 -30.736405598137146 -3.6331939409538201 47.954493034554062 0.52991927123019833 0 0.84804809178421925 0.84804809178421925 0 -0.52991927123019833 forward_v I I I I #
loop $-1 $-1 $253 $61 #
coedge $-1 $156 $156 $157 $254 reversed $95 $-1 #
coedge $-1 $157 $157 $156 $254 forward $97 $-1 #
coedge $-1 $158 $158 $98 $159 forward $153 $-1 #
edge $-1 $255 0 $255 6.2831853071796004 $158 $256 forward 7 unknown #
face $-1 $257 $258 $24 $-1 $259 reversed single #
loop $-1 $-1 $260 $99 #
plane-surface $-1 -44.15540025025178 0 0 1 0 0 0 0 -1 forward_v I I I I #
coedge $-1 $261 $171 $262 $263 forward $100 $-1 #
coedge $-1 $264 $102 $261 $265 forward $65 $-1 #
coedge $-1 $102 $264 $266 $267 forward $65 $-1 #
coedge $-1 $174 $173 $102 $167 reversed $175 $-1 #
edge $-1 $268 -25.726075949508093 $269 25.726075949508093 $166 $270 forward 7 unknown #
coedge $-1 $104 $103 $271 $272 forward $41 $-1 #
coedge $-1 $273 $274 $103 $170 reversed $258 $-1 #
edge $-1 $177 -44.15540025025178 $275 44.15540025025178 $169 $276 forward 7 unknown #
coedge $-1 $163 $277 $104 $172 reversed $100 $-1 #
edge $-1 $278 -44.15540025025178 $176 44.15540025025178 $171 $279 forward 7 unknown #
coedge $-1 $166 $105 $277 $280 forward $175 $-1 #
coedge $-1 $105 $166 $273 $281 reversed $175 $-1 #
loop $-1 $-1 $173 $257 #
vertex $-1 $106 $282 #
vertex $-1 $106 $283 #
straight-curve $-1 44.15540025025178 0 8.6782619068054068 0 1 0 I I #
face $-1 $284 $193 $25 $-1 $285 forward single #
loop $-1 $-1 $286 $107 #
plane-surface $-1 0 -25.726075949508093 0 0 1 0 0 0 1 forward_v I I I I #
coedge $-1 $287 $288 $112 $190 forward $108 $-1 #
coedge $-1 $289 $110 $286 $290 reversed $69 $-1 #
coedge $-1 $110 $289 $187 $291 forward $69 $-1 #
coedge $-1 $188 $292 $110 $186 forward $293 $-1 #
edge $-1 $294 -15.323514723804228 $295 -5.4816077276035013 $185 $296 forward 7 unknown #
coedge $-1 $112 $111 $184 $291 reversed $44 $-1 #
coedge $-1 $297 $185 $111 $189 forward $293 $-1 #
edge $-1 $295 1.7275877713857337 $194 5.2096453474083599 $188 $298 forward 7 unknown #
edge $-1 $195 -5.2096453474083599 $299 -1.7275877713857337 $182 $300 forward 7 unknown #
coedge $-1 $301 $113 $288 $302 forward $193 $-1 #
coedge $-1 $113 $301 $297 $303 forward $193 $-1 #
loop $-1 $-1 $113 $179 #
vertex $-1 $189 $304 #
vertex $-1 $302 $305 #
straight-curve $-1 0 -15.884168953307366 8.6782619068054068 -1 0 0 I I #
face $-1 $306 $307 $26 $-1 $308 reversed single #
loop $-1 $-1 $210 $115 #
plane-surface $-1 44.15540025025178 0 0 -1 0 0 0 0 1 forward_v I I I I #
coedge $-1 $309 $310 $202 $311 forward $116 $-1 #
coedge $-1 $312 $118 $119 $206 reversed $73 $-1 #
coedge $-1 $118 $312 $200 $311 reversed $73 $-1 #
coedge $-1 $313 $314 $118 $204 forward $307 $-1 #
edge $-1 $315 1.7275877713857337 $316 5.2096453474083599 $203 $317 forward 7 unknown #
coedge $-1 $120 $119 $314 $318 reversed $47 $-1 #
edge $-1 $211 -44.15540025025178 $315 44.15540025025178 $201 $319 forward 7 unknown #
coedge $-1 $320 $321 $120 $208 forward $322 $-1 #
edge $-1 $212 -44.15540025025178 $323 44.15540025025178 $207 $324 forward 7 unknown #
coedge $-1 $325 $121 $321 $326 reversed $198 $-1 #
coedge $-1 $121 $325 $312 $327 forward $198 $-1 #
vertex $-1 $122 $328 #
vertex $-1 $208 $329 #
straight-curve $-1 44.15540025025178 10.402561225703867 5.1962043307827805 0 1 0 I I #
face $-1 $-1 $330 $27 $-1 $331 forward single #
loop $-1 $-1 $220 $123 #
plane-surface $-1 0 0 8.6782619068054068 0 0 1 1 0 0 forward_v I I I I #
coedge $-1 $332 $333 $219 $334 forward $124 $-1 #
coedge $-1 $219 $126 $128 $225 reversed $77 $-1 #
coedge $-1 $126 $218 $217 $334 reversed $77 $-1 #
coedge $-1 $335 $129 $126 $221 forward $215 $-1 #
edge $-1 $228 -7.5966727547229382 $336 -0.66401251916533255 $220 $337 forward 7 unknown #
coedge $-1 $128 $127 $332 $338 reversed $50 $-1 #
coedge $-1 $339 $340 $127 $224 forward $330 $-1 #
edge $-1 $341 -19.548646151911047 $227 -11.460773150720023 $223 $342 forward 7 unknown #
edge $-1 $343 8.3777685069199533e-015 $228 8.0878730011910314 $218 $344 forward 7 unknown #
coedge $-1 $129 $335 $339 $345 forward $215 $-1 #
vertex $-1 $224 $346 #
vertex $-1 $130 $347 #
straight-curve $-1 -37.222740014694175 -5.8081091333889248 8.6782619068054068 0 1 0 I I #
coedge $-1 $230 $230 $-1 $348 reversed $133 $-1 #
edge $-1 $349 0 $349 6.2831853071796004 $134 $350 forward 7 unknown #
vertex $-1 $137 $351 #
ellipse-curve $-1 -40.68907013247297 -13.445339989576212 6.5954806087742766 -0.51503808176128008 0 0.85716729658548041 0.4285836482927402 0 0.25751904088064004 1 I I #
coedge $-1 $234 $234 $-1 $352 reversed $140 $-1 #
edge $-1 $353 0 $353 6.2831853071796004 $141 $354 forward 7 unknown #
vertex $-1 $144 $355 #
ellipse-curve $-1 -40.68907013247297 -9.7870965439794837 6.5954806087742766 -0.51503808176128008 0 0.85716729658548041 0.4285836482927402 0 0.25751904088064004 1 I I #
face $-1 $-1 $356 $30 $-1 $357 reversed single #
loop $-1 $-1 $151 $145 #
plane-surface $-1 0 0 8.6782619068054068 0 0 1 1 0 0 forward_v I I I I #
coedge $-1 $358 $359 $360 $361 reversed $146 $-1 #
coedge $-1 $362 $148 $150 $248 forward $91 $-1 #
coedge $-1 $148 $362 $358 $363 forward $91 $-1 #
coedge $-1 $360 $151 $148 $245 forward $239 $-1 #
edge $-1 $251 -2.1937338918265628 $364 5.8269278327803828 $244 $365 forward 7 unknown #
coedge $-1 $366 $367 $149 $247 forward $356 $-1 #
edge $-1 $368 -60.26625144989972 $250 -52.744887534666091 $246 $369 forward 7 unknown #
edge $-1 $251 74.11738591157399 $368 88.310800500503575 $150 $370 forward 7 unknown #
coedge $-1 $151 $360 $366 $371 forward $239 $-1 #
vertex $-1 $247 $372 #
vertex $-1 $152 $373 #
straight-curve $-1 8.0305947224225704 0.37713692134965271 8.6782619068054032 -1 0 0 I I #
coedge $-1 $253 $253 $-1 $374 reversed $155 $-1 #
edge $-1 $375 0 $375 6.2831853071796004 $156 $376 forward 7 unknown #
vertex $-1 $159 $377 #
ellipse-curve $-1 38.137051171229771 -3.6331939409538201 4.9175799491885881 0.52991927123019833 0 0.84804809178421925 0.84804809178421925 0 -0.52991927123019833 1 I I #
face $-1 $-1 $175 $24 $-1 $378 reversed single #
loop $-1 $-1 $273 $160 #
plane-surface $-1 0 25.726075949508093 0 0 -1 0 0 0 -1 forward_v I I I I #
coedge $-1 $379 $271 $274 $380 forward $161 $-1 #
coedge $-1 $277 $163 $164 $265 reversed $100 $-1 #
coedge $-1 $271 $379 $163 $263 reversed $161 $-1 #
edge $-1 $278 -8.6782619068054068 $381 8.6782619068054068 $262 $382 forward 7 unknown #
coedge $-1 $165 $164 $379 $383 forward $65 $-1 #
edge $-1 $269 -44.15540025025178 $381 44.15540025025178 $261 $384 forward 7 unknown #
coedge $-1 $274 $273 $165 $267 reversed $258 $-1 #
edge $-1 $385 -44.15540025025178 $268 44.15540025025178 $266 $386 forward 7 unknown #
vertex $-1 $167 $387 #
vertex $-1 $280 $388 #
straight-curve $-1 44.15540025025178 0 -8.6782619068054068 0 -1 0 I I #
coedge $-1 $260 $262 $168 $272 reversed $161 $-1 #
edge $-1 $275 -25.726075949508093 $278 25.726075949508093 $271 $389 forward 7 unknown #
coedge $-1 $266 $169 $174 $281 forward $258 $-1 #
coedge $-1 $169 $266 $260 $380 reversed $258 $-1 #
vertex $-1 $170 $390 #
straight-curve $-1 0 25.726075949508093 8.6782619068054068 -1 0 0 I I #
coedge $-1 $171 $261 $173 $280 reversed $100 $-1 #
vertex $-1 $272 $391 #
straight-curve $-1 0 -25.726075949508093 8.6782619068054068 1 0 0 I I #
edge $-1 $176 -8.6782619068054068 $269 8.6782619068054068 $173 $392 forward 7 unknown #
edge $-1 $177 -8.6782619068054068 $268 8.6782619068054068 $174 $393 forward 7 unknown #
point $-1 44.15540025025178 -25.726075949508093 8.6782619068054068 #
point $-1 44.15540025025178 25.726075949508093 8.6782619068054068 #
face $-1 $-1 $293 $25 $-1 $394 reversed single #
plane-surface $-1 0 0 8.6782619068054068 0 0 1 1 0 0 forward_v I I I I #
coedge $-1 $395 $396 $183 $290 forward $180 $-1 #
coedge $-1 $397 $182 $289 $398 forward $108 $-1 #
coedge $-1 $182 $397 $191 $302 reversed $108 $-1 #
coedge $-1 $184 $183 $287 $398 reversed $69 $-1 #
edge $-1 $399 -44.15540025025178 $294 44.15540025025178 $286 $400 forward 7 unknown #
edge $-1 $299 -44.15540025025178 $295 44.15540025025178 $187 $401 forward 7 unknown #
coedge $-1 $185 $297 $395 $402 forward $293 $-1 #
loop $-1 $-1 $188 $284 #
vertex $-1 $290 $403 #
vertex $-1 $186 $404 #
straight-curve $-1 44.15540025025178 -10.402561225703865 5.1962043307827805 0 1 0 I I #
coedge $-1 $292 $188 $192 $303 reversed $293 $-1 #
straight-curve $-1 44.15540025025178 -15.884168953307366 3.4686165593970468 0 0 1 I I #
vertex $-1 $398 $405 #
straight-curve $-1 -44.15540025025178 -15.884168953307366 3.4686165593970468 0 0 -1 I I #
coedge $-1 $192 $191 $406 $407 forward $193 $-1 #
edge $-1 $195 15.884168953307366 $408 25.726075949508093 $288 $409 forward 7 unknown #
edge $-1 $410 -25.726075949508093 $194 -15.884168953307366 $297 $411 forward 7 unknown #
point $-1 44.15540025025178 -15.884168953307366 8.6782619068054068 #
point $-1 -44.15540025025178 -15.884168953307366 8.6782619068054068 #
face $-1 $-1 $322 $26 $-1 $412 reversed single #
loop $-1 $-1 $203 $197 #
plane-surface $-1 -44.15540025025178 0 0 1 0 0 0 0 -1 forward_v I I I I #
coedge $-1 $413 $200 $325 $414 forward $116 $-1 #
coedge $-1 $200 $413 $313 $415 forward $116 $-1 #
edge $-1 $316 -44.15540025025178 $416 44.15540025025178 $200 $417 forward 7 unknown #
coedge $-1 $202 $201 $210 $327 reversed $73 $-1 #
coedge $-1 $418 $203 $310 $415 reversed $307 $-1 #
coedge $-1 $203 $418 $205 $318 forward $307 $-1 #
vertex $-1 $318 $419 #
vertex $-1 $204 $420 #
straight-curve $-1 -44.15540025025178 15.88416895330737 3.4686165593970468 0 0 1 I I #
edge $-1 $323 -15.32351472380423 $315 -5.4816077276035031 $314 $421 forward 7 unknown #
straight-curve $-1 0 15.88416895330737 5.1962043307827805 -1 0 0 I I #
coedge $-1 $422 $207 $418 $423 reversed $322 $-1 #
coedge $-1 $207 $422 $209 $326 forward $322 $-1 #
loop $-1 $-1 $207 $306 #
vertex $-1 $208 $424 #
straight-curve $-1 0 25.726075949508093 5.1962043307827805 -1 0 0 I I #
coedge $-1 $210 $209 $309 $414 reversed $198 $-1 #
edge $-1 $425 -8.6782619068054068 $212 -5.1962043307827805 $209 $426 forward 7 unknown #
edge $-1 $416 -5.2096453474083599 $211 -1.7275877713857337 $210 $427 forward 7 unknown #
point $-1 44.15540025025178 15.88416895330737 5.1962043307827805 #
point $-1 44.15540025025178 25.726075949508097 5.1962043307827805 #
loop $-1 $-1 $223 $214 #
plane-surface $-1 0 -15.884168953307366 6.9372331187940937 0 -1 0 0 0 -1 forward_v I I I I #
coedge $-1 $428 $217 $222 $338 forward $124 $-1 #
coedge $-1 $217 $428 $335 $429 reversed $124 $-1 #
edge $-1 $336 31.426652810724317 $343 35.592215406786586 $217 $430 forward 7 unknown #
coedge $-1 $226 $220 $333 $429 forward $215 $-1 #
vertex $-1 $429 $431 #
straight-curve $-1 -44.819412769417113 -7.3482675802483337 8.6782619068054032 -1 0 0 I I #
edge $-1 $343 1.5401584468594089 $341 10.076059819918441 $332 $432 forward 7 unknown #
coedge $-1 $340 $223 $226 $345 reversed $330 $-1 #
coedge $-1 $223 $339 $428 $433 reversed $330 $-1 #
vertex $-1 $433 $434 #
straight-curve $-1 -27.398940076312034 -15.884168953307366 14.580996525853429 0.85716729658548041 0 0.51503808176128008 I I #
vertex $-1 $338 $435 #
straight-curve $-1 -44.155400250251787 -7.3482675802483337 4.5126993107431304 0.85716729658548041 0 0.51503808176128008 I I #
edge $-1 $436 -44.15540025025178 $227 -37.222740014694175 $226 $437 forward 7 unknown #
point $-1 -37.222740014694175 -15.884168953307366 8.6782619068054068 #
point $-1 -37.222740014694175 -7.3482675802483337 8.6782619068054068 #
edge $-1 $438 1 $438 0 $230 $-1 forward 7 unknown #
vertex $-1 $231 $439 #
ellipse-curve $-1 -40.174032050711681 -13.445339989576212 5.7383133121887795 -0.51503808176128008 0 0.85716729658548041 0.4285836482927402 0 0.25751904088064004 1 I I #
point $-1 -40.26048648418022 -13.445339989576212 6.8529996496549002 #
edge $-1 $440 1 $440 0 $234 $-1 forward 7 unknown #
vertex $-1 $235 $441 #
ellipse-curve $-1 -40.174032050711681 -9.7870965439794837 5.7383133121887795 -0.51503808176128008 0 0.85716729658548041 0.4285836482927402 0 0.25751904088064004 1 I I #
point $-1 -40.26048648418022 -9.7870965439794837 6.8529996496549002 #
loop $-1 $-1 $246 $238 #
plane-surface $-1 44.15540025025178 0 0 -1 0 0 0 0 1 forward_v I I I I #
coedge $-1 $359 $241 $243 $363 reversed $146 $-1 #
coedge $-1 $241 $358 $442 $443 reversed $146 $-1 #
coedge $-1 $249 $244 $241 $361 forward $239 $-1 #
edge $-1 $364 24.088107369785178 $444 36.12480552782921 $360 $445 forward 7 unknown #
coedge $-1 $243 $242 $367 $446 reversed $91 $-1 #
edge $-1 $447 -88.310800500503575 $364 -74.11738591157399 $358 $448 forward 7 unknown #
vertex $-1 $245 $449 #
straight-curve $-1 32.118702092207755 -1.81659697047691 8.6782619068054032 0 -1 0 I I #
coedge $-1 $442 $246 $249 $371 reversed $356 $-1 #
coedge $-1 $246 $442 $362 $446 forward $356 $-1 #
vertex $-1 $247 $450 #
straight-curve $-1 44.15540025025178 0.37713692134965271 61.423149441471494 0 0 1 I I #
straight-curve $-1 -30.736405598137146 0.37713692134965271 47.954493034554062 0.84804809178421925 0 -0.52991927123019833 I I #
edge $-1 $444 -7.6435248032572929 $250 0.37713692134965271 $366 $451 forward 7 unknown #
point $-1 44.15540025025178 0.37713692134965271 8.6782619068054068 #
point $-1 32.118702092207748 0.37713692134965271 8.6782619068054032 #
edge $-1 $452 1 $452 0 $253 $-1 forward 7 unknown #
vertex $-1 $254 $453 #
ellipse-curve $-1 36.790735686401398 -3.6331939409538201 2.7630248313916494 0.52991927123019833 0 0.84804809178421925 0.84804809178421925 0 -0.52991927123019833 1 I I #
point $-1 38.985099263014 -3.6331939409538201 4.3876606779584018 #
plane-surface $-1 44.15540025025178 0 0 -1 0 0 0 0 1 forward_v I I I I #
coedge $-1 $262 $260 $264 $383 reversed $161 $-1 #
edge $-1 $275 -8.6782619068054068 $385 8.6782619068054068 $274 $454 forward 7 unknown #
vertex $-1 $383 $455 #
straight-curve $-1 -44.15540025025178 -25.726075949508093 0 0 0 -1 I I #
edge $-1 $381 -25.726075949508093 $385 25.726075949508093 $379 $456 forward 7 unknown #
straight-curve $-1 0 -25.726075949508093 -8.6782619068054068 -1 0 0 I I #
vertex $-1 $267 $457 #
straight-curve $-1 0 25.726075949508093 -8.6782619068054068 1 0 0 I I #
point $-1 44.15540025025178 25.726075949508093 -8.6782619068054068 #
point $-1 44.15540025025178 -25.726075949508093 -8.6782619068054068 #
straight-curve $-1 -44.15540025025178 0 8.6782619068054068 0 -1 0 I I #
point $-1 -44.15540025025178 25.726075949508093 8.6782619068054068 #
point $-1 -44.15540025025178 -25.726075949508093 8.6782619068054068 #
straight-curve $-1 44.15540025025178 -25.726075949508093 0 0 0 -1 I I #
straight-curve $-1 44.15540025025178 25.726075949508093 0 0 0 -1 I I #
plane-surface $-1 44.15540025025178 0 0 -1 0 0 0 0 1 forward_v I I I I #
coedge $-1 $406 $286 $292 $402 reversed $180 $-1 #
coedge $-1 $286 $406 $397 $458 forward $180 $-1 #
coedge $-1 $288 $287 $396 $458 reversed $108 $-1 #
edge $-1 $299 5.4816077276035013 $399 15.323514723804228 $287 $459 forward 7 unknown #
vertex $-1 $290 $460 #
straight-curve $-1 0 -25.726075949508093 5.1962043307827805 1 0 0 I I #
straight-curve $-1 0 -15.884168953307366 5.1962043307827805 1 0 0 I I #
edge $-1 $410 -8.6782619068054068 $294 -5.1962043307827805 $292 $461 forward 7 unknown #
point $-1 44.15540025025178 -25.726075949508093 5.1962043307827805 #
point $-1 44.15540025025178 -15.884168953307366 5.1962043307827805 #
point $-1 -44.15540025025178 -15.884168953307366 5.1962043307827805 #
coedge $-1 $396 $395 $301 $407 reversed $180 $-1 #
edge $-1 $408 -44.15540025025178 $410 44.15540025025178 $406 $462 forward 7 unknown #
vertex $-1 $302 $463 #
straight-curve $-1 -44.15540025025178 0 8.6782619068054068 0 -1 0 I I #
vertex $-1 $303 $464 #
straight-curve $-1 44.15540025025178 0 8.6782619068054068 0 1 0 I I #
plane-surface $-1 0 25.726075949508093 0 0 -1 0 0 0 -1 forward_v I I I I #
coedge $-1 $310 $309 $422 $465 forward $116 $-1 #
edge $-1 $416 15.88416895330737 $425 25.726075949508093 $325 $466 forward 7 unknown #
edge $-1 $467 -25.726075949508093 $316 -15.88416895330737 $313 $468 forward 7 unknown #
vertex $-1 $414 $469 #
straight-curve $-1 0 15.88416895330737 8.6782619068054068 1 0 0 I I #
coedge $-1 $314 $313 $320 $423 forward $307 $-1 #
point $-1 -44.15540025025178 15.88416895330737 5.1962043307827805 #
point $-1 -44.15540025025178 15.88416895330737 8.6782619068054068 #
straight-curve $-1 -44.15540025025178 10.402561225703867 5.1962043307827805 0 -1 0 I I #
coedge $-1 $321 $320 $413 $465 reversed $322 $-1 #
edge $-1 $467 -8.6782619068054068 $323 -5.1962043307827805 $320 $470 forward 7 unknown #
point $-1 -44.15540025025178 25.726075949508097 5.1962043307827805 #
vertex $-1 $414 $471 #
straight-curve $-1 44.15540025025178 25.726075949508093 0 0 0 -1 I I #
straight-curve $-1 44.15540025025178 15.88416895330737 3.4686165593970468 0 0 -1 I I #
coedge $-1 $333 $332 $340 $433 forward $124 $-1 #
edge $-1 $336 7.3482675802483337 $436 15.884168953307366 $333 $472 forward 7 unknown #
straight-curve $-1 -44.15540025025178 -7.3482675802483337 40.104914717529724 0 0 -1 I I #
point $-1 -44.15540025025178 -7.3482675802483337 8.6782619068054068 #
straight-curve $-1 -44.15540025025178 -5.8081091333889248 4.5126993107431375 0 -1 0 I I #
edge $-1 $341 -35.592215406786586 $436 -31.426652810724317 $428 $473 forward 7 unknown #
point $-1 -44.15540025025178 -15.884168953307366 4.5126993107431348 #
point $-1 -44.15540025025178 -7.3482675802483337 4.5126993107431348 #
vertex $-1 $433 $474 #
straight-curve $-1 0 -15.884168953307366 8.6782619068054068 1 0 0 I I #
vertex $-1 $348 $475 #
point $-1 -39.745448402418944 -13.445339989576212 5.99583235306942 #
vertex $-1 $352 $476 #
point $-1 -39.745448402418944 -9.7870965439794837 5.99583235306942 #
coedge $-1 $367 $366 $359 $443 forward $356 $-1 #
edge $-1 $444 52.744887534666091 $447 60.26625144989972 $442 $477 forward 7 unknown #
vertex $-1 $371 $478 #
straight-curve $-1 8.0305947224225704 -7.6435248032572929 8.6782619068054032 1 0 0 I I #
edge $-1 $447 -5.8269278327803828 $368 2.1937338918265628 $367 $479 forward 7 unknown #
vertex $-1 $446 $480 #
straight-curve $-1 -30.736405598137146 -7.6435248032572929 47.954493034554062 -0.84804809178421925 0 0.52991927123019833 I I #
point $-1 32.118702092207748 -7.6435248032572929 8.6782619068054032 #
point $-1 44.15540025025178 0.37713692134965271 1.1568979915717748 #
straight-curve $-1 44.15540025025178 0 8.6782619068054068 0 1 0 I I #
vertex $-1 $374 $481 #
point $-1 37.638783778185619 -3.6331939409538201 2.2331055601614507 #
straight-curve $-1 -44.15540025025178 25.726075949508093 0 0 0 -1 I I #
point $-1 -44.15540025025178 -25.726075949508093 -8.6782619068054068 #
straight-curve $-1 -44.15540025025178 0 -8.6782619068054068 0 1 0 I I #
point $-1 -44.15540025025178 25.726075949508093 -8.6782619068054068 #
edge $-1 $408 -8.6782619068054068 $399 -5.1962043307827805 $397 $482 forward 7 unknown #
straight-curve $-1 -44.15540025025178 -10.402561225703865 5.1962043307827805 0 -1 0 I I #
point $-1 -44.15540025025178 -25.726075949508093 5.1962043307827805 #
straight-curve $-1 44.15540025025178 -25.726075949508093 0 0 0 -1 I I #
straight-curve $-1 0 -25.726075949508093 8.6782619068054068 1 0 0 I I #
point $-1 -44.15540025025178 -25.726075949508093 8.6782619068054068 #
point $-1 44.15540025025178 -25.726075949508093 8.6782619068054068 #
edge $-1 $425 -44.15540025025178 $467 44.15540025025178 $422 $483 forward 7 unknown #
straight-curve $-1 44.15540025025178 0 8.6782619068054068 0 1 0 I I #
vertex $-1 $465 $484 #
straight-curve $-1 -44.15540025025178 0 8.6782619068054068 0 -1 0 I I #
point $-1 44.15540025025178 15.88416895330737 8.6782619068054068 #
straight-curve $-1 -44.15540025025178 25.726075949508093 0 0 0 -1 I I #
point $-1 44.15540025025178 25.726075949508093 8.6782619068054068 #
straight-curve $-1 -44.15540025025178 0 8.6782619068054068 0 -1 0 I I #
straight-curve $-1 -44.15540025025178 -15.884168953307366 40.104914717529724 0 0 1 I I #
point $-1 -44.15540025025178 -15.884168953307366 8.6782619068054068 #
point $-1 -39.916513009831043 -13.445339989576212 5.3097296638960394 #
point $-1 -39.916513009831043 -9.7870965439794837 5.3097296638960394 #
straight-curve $-1 44.15540025025178 -7.6435248032572929 61.423149441471494 0 0 -1 I I #
point $-1 44.15540025025178 -7.6435248032572929 8.6782619068054068 #
straight-curve $-1 44.155400250251773 -1.81659697047691 1.1568979915717748 0 1 0 I I #
point $-1 44.15540025025178 -7.6435248032572929 1.1568979915717748 #
point $-1 36.260816415171199 -3.6331939409538201 1.91497673960743 #
straight-curve $-1 -44.15540025025178 -25.726075949508093 0 0 0 -1 I I #
straight-curve $-1 0 25.726075949508093 8.6782619068054068 -1 0 0 I I #
point $-1 -44.15540025025178 25.726075949508093 8.6782619068054068 #
End-of-ACIS-data 