500 0 8 0           
7 Unknown 11 ACIS 5.0 NT 24 Thu Mar 25 18:37:40 1999 
-1 9.9999999999999995e-007 1e-010 
body $-1 $8 $-1 $9 #
body $-1 $10 $-1 $11 #
body $-1 $12 $-1 $13 #
body $-1 $14 $-1 $15 #
body $-1 $16 $-1 $17 #
body $-1 $18 $-1 $19 #
body $-1 $20 $-1 $21 #
body $-1 $22 $-1 $23 #
lump $-1 $-1 $24 $0 #
transform $-1 1 0 0 0 1 0 0 0 1 40.461439863277079 18.036439752279936 5.5385251363709065 1 rotate no_reflect no_shear #
lump $-1 $-1 $25 $1 #
transform $-1 1 0 0 0 1 0 0 0 1 40.461439863277079 18.036439752279936 5.5385251363709065 1 rotate no_reflect no_shear #
lump $-1 $-1 $26 $2 #
transform $-1 1 0 0 0 1 0 0 0 1 40.461439863277079 18.036439752279936 5.5385251363709065 1 rotate no_reflect no_shear #
lump $-1 $-1 $27 $3 #
transform $-1 1 0 0 0 1 0 0 0 1 40.461439863277079 18.036439752279936 5.5385251363709065 1 rotate no_reflect no_shear #
lump $-1 $-1 $28 $4 #
transform $-1 1 0 0 0 1 0 0 0 1 40.461439863277079 18.036439752279936 5.5385251363709065 1 rotate no_reflect no_shear #
lump $-1 $-1 $29 $5 #
transform $-1 1 0 0 0 1 0 0 0 1 40.461439863277079 18.036439752279936 5.5385251363709065 1 rotate no_reflect no_shear #
lump $-1 $-1 $30 $6 #
transform $-1 1 0 0 0 1 0 0 0 1 40.461439863277079 18.036439752279936 5.5385251363709065 1 rotate no_reflect no_shear #
lump $-1 $-1 $31 $7 #
transform $-1 1 0 0 0 1 0 0 0 1 40.461439863277079 18.036439752279936 5.5385251363709065 1 rotate no_reflect no_shear #
shell $-1 $-1 $-1 $32 $-1 $8 #
shell $-1 $-1 $-1 $33 $-1 $10 #
shell $-1 $-1 $-1 $34 $-1 $12 #
shell $-1 $-1 $-1 $35 $-1 $14 #
shell $-1 $-1 $-1 $36 $-1 $16 #
shell $-1 $-1 $-1 $37 $-1 $18 #
shell $-1 $-1 $-1 $38 $-1 $20 #
shell $-1 $-1 $-1 $39 $-1 $22 #
face $-1 $40 $41 $24 $-1 $42 forward single #
face $-1 $43 $44 $25 $-1 $45 reversed single #
face $-1 $46 $47 $26 $-1 $48 reversed single #
face $-1 $49 $50 $27 $-1 $51 forward single #
face $-1 $52 $53 $28 $-1 $54 forward single #
face $-1 $55 $56 $29 $-1 $57 reversed single #
face $-1 $58 $59 $30 $-1 $60 forward single #
face $-1 $61 $62 $31 $-1 $63 forward single #
face $-1 $64 $65 $24 $-1 $66 reversed single #
loop $-1 $-1 $67 $32 #
plane-surface $-1 0 0 5.5385251363709065 0 0 1 1 0 0 forward_v I I I I #
face $-1 $68 $69 $25 $-1 $70 reversed single #
loop $-1 $-1 $71 $33 #
plane-surface $-1 0 -14.653438215920321 2.3345406590014468 0 0 1 1 0 0 forward_v I I I I #
face $-1 $72 $73 $26 $-1 $74 reversed single #
loop $-1 $-1 $75 $34 #
plane-surface $-1 70.081271300691967 -4.4974151976765704 112.24608593504695 0 -1 0 -0.86602541151947299 0 -0.49999998660252726 forward_v I I I I #
face $-1 $76 $77 $27 $-1 $78 forward single #
loop $-1 $79 $80 $35 #
cone-surface $-1 38.522733997469196 -9.3352876847366666 3.1408300448612252 -0.86602541151947299 0 -0.49999998660252726 0.24999999330126363 0 -0.43301270575973649 1 I I 0 1 0.5 forward I I I I #
face $-1 $81 $82 $28 $-1 $83 forward single #
loop $-1 $84 $85 $36 #
cone-surface $-1 38.522733997469196 -6.4325641925006085 3.1408300448612252 -0.86602541151947299 0 -0.49999998660252726 0.24999999330126363 0 -0.43301270575973649 1 I I 0 1 0.5 forward I I I I #
face $-1 $86 $87 $29 $-1 $88 reversed single #
loop $-1 $-1 $89 $37 #
plane-surface $-1 -106.74958287924892 10.753779658937576 46.673825164232994 0 1 0 -0.81915205242281985 0 0.57357642473473569 forward_v I I I I #
face $-1 $90 $91 $30 $-1 $92 forward single #
loop $-1 $93 $94 $38 #
cone-surface $-1 -38.203261374071189 12.834539685606821 2.6116589215365966 0.81915205242281985 0 -0.57357642473473569 0.28678821236736785 0 0.40957602621140993 1 I I 0 1 0.5 forward I I I I #
face $-1 $95 $96 $31 $-1 $97 forward single #
loop $-1 $98 $99 $39 #
cone-surface $-1 -38.203261374071189 15.95567972561069 2.6116589215365966 0.81915205242281985 0 -0.57357642473473569 0.28678821236736785 0 0.40957602621140993 1 I I 0 1 0.5 forward I I I I #
face $-1 $100 $101 $24 $-1 $102 reversed single #
loop $-1 $-1 $103 $40 #
plane-surface $-1 0 0 -5.5385251363709065 0 0 1 1 0 0 forward_v I I I I #
coedge $-1 $104 $105 $106 $107 forward $41 $-1 #
face $-1 $108 $109 $25 $-1 $110 reversed single #
loop $-1 $-1 $111 $43 #
plane-surface $-1 0 -11.270436679560706 3.9365328976861766 0 -1 0 0 0 -1 forward_v I I I I #
coedge $-1 $112 $113 $114 $115 reversed $44 $-1 #
face $-1 $116 $117 $26 $-1 $118 forward single #
loop $-1 $-1 $119 $46 #
plane-surface $-1 1.0841620792234608e-006 -7.8839259386186384 71.784647155931935 0.86602541151947299 0 0.49999998660252726 0.49999998660252726 0 -0.86602541151947299 forward_v I I I I #
coedge $-1 $120 $121 $122 $123 reversed $47 $-1 #
face $-1 $-1 $124 $27 $-1 $125 forward single #
loop $-1 $126 $127 $49 #
cone-surface $-1 37.474633661179141 -9.3352876847366666 2.535709055185337 -0.86602541151947299 0 -0.49999998660252726 0.12499999665063181 0 -0.21650635287986825 1 I I -0.70710678118654746 0.70710678118654746 0.25 forward I I I I #
loop $-1 $-1 $128 $35 #
coedge $-1 $80 $80 $129 $130 reversed $50 $-1 #
face $-1 $-1 $131 $28 $-1 $132 forward single #
loop $-1 $133 $134 $52 #
cone-surface $-1 37.474633661179141 -6.4325641925006085 2.535709055185337 -0.86602541151947299 0 -0.49999998660252726 0.12499999665063181 0 -0.21650635287986825 1 I I -0.70710678118654746 0.70710678118654746 0.25 forward I I I I #
loop $-1 $-1 $135 $36 #
coedge $-1 $85 $85 $136 $137 reversed $53 $-1 #
face $-1 $138 $139 $29 $-1 $140 forward single #
loop $-1 $-1 $141 $55 #
plane-surface $-1 -40.461439863277079 14.395109705608757 0.25836913143703555 -0.81915205242281985 0 0.57357642473473569 0.57357642473473569 0 0.81915205242281985 forward_v I I I I #
coedge $-1 $142 $143 $144 $145 reversed $56 $-1 #
face $-1 $-1 $146 $30 $-1 $147 forward single #
loop $-1 $148 $149 $58 #
cone-surface $-1 -37.588897334754073 12.834539685606821 2.181476602985545 0.81915205242281985 0 -0.57357642473473569 0.14339410618368392 0 0.20478801310570496 1 I I -0.70710678118654746 0.70710678118654746 0.25 forward I I I I #
loop $-1 $-1 $150 $38 #
coedge $-1 $94 $94 $151 $152 reversed $59 $-1 #
face $-1 $-1 $153 $31 $-1 $154 forward single #
loop $-1 $155 $156 $61 #
cone-surface $-1 -37.588897334754073 15.95567972561069 2.181476602985545 0.81915205242281985 0 -0.57357642473473569 0.14339410618368392 0 0.20478801310570496 1 I I -0.70710678118654746 0.70710678118654746 0.25 forward I I I I #
loop $-1 $-1 $157 $39 #
coedge $-1 $99 $99 $158 $159 reversed $62 $-1 #
face $-1 $160 $161 $24 $-1 $162 reversed single #
loop $-1 $-1 $163 $64 #
plane-surface $-1 0 -18.036439752279936 0 0 1 0 0 0 1 forward_v I I I I #
coedge $-1 $164 $165 $166 $167 forward $65 $-1 #
coedge $-1 $168 $67 $169 $170 forward $41 $-1 #
coedge $-1 $67 $168 $171 $172 forward $41 $-1 #
coedge $-1 $173 $174 $67 $107 reversed $175 $-1 #
edge $-1 $176 -18.036439752279936 $177 18.036439752279936 $106 $178 forward 7 unknown #
face $-1 $179 $180 $25 $-1 $181 reversed single #
loop $-1 $-1 $182 $68 #
plane-surface $-1 -40.461439863277079 0 0 1 0 0 0 0 -1 forward_v I I I I #
coedge $-1 $183 $184 $113 $185 reversed $69 $-1 #
coedge $-1 $186 $71 $187 $188 reversed $44 $-1 #
coedge $-1 $71 $186 $111 $185 forward $44 $-1 #
coedge $-1 $189 $190 $71 $115 forward $191 $-1 #
edge $-1 $192 -10.709720644319775 $193 -3.9437175716005459 $114 $194 forward 7 unknown #
face $-1 $195 $196 $26 $-1 $197 forward single #
loop $-1 $-1 $198 $72 #
plane-surface $-1 0 -11.270436679560706 3.9365328976861766 0 -1 0 0 0 -1 forward_v I I I I #
coedge $-1 $199 $200 $201 $202 reversed $73 $-1 #
coedge $-1 $121 $75 $203 $204 reversed $47 $-1 #
coedge $-1 $75 $120 $199 $205 reversed $47 $-1 #
coedge $-1 $201 $206 $75 $123 forward $196 $-1 #
edge $-1 $207 -5.4208042129310954 $208 -3.2065804481357034 $122 $209 forward 7 unknown #
loop $-1 $-1 $129 $76 #
plane-surface $-1 1.0841620792234608e-006 -7.8839259386186384 71.784647155931935 0.86602541151947299 0 0.49999998660252726 0.49999998660252726 0 -0.86602541151947299 forward_v I I I I #
loop $-1 $-1 $210 $49 #
coedge $-1 $127 $127 $128 $211 reversed $77 $-1 #
coedge $-1 $128 $128 $127 $211 forward $79 $-1 #
coedge $-1 $129 $129 $80 $130 forward $124 $-1 #
edge $-1 $212 0 $212 6.2831853071796004 $129 $213 forward 7 unknown #
loop $-1 $-1 $136 $81 #
plane-surface $-1 1.0841620792234608e-006 -7.8839259386186384 71.784647155931935 0.86602541151947299 0 0.49999998660252726 0.49999998660252726 0 -0.86602541151947299 forward_v I I I I #
loop $-1 $-1 $214 $52 #
coedge $-1 $134 $134 $135 $215 reversed $82 $-1 #
coedge $-1 $135 $135 $134 $215 forward $84 $-1 #
coedge $-1 $136 $136 $85 $137 forward $131 $-1 #
edge $-1 $216 0 $216 6.2831853071796004 $136 $217 forward 7 unknown #
face $-1 $218 $219 $29 $-1 $220 reversed single #
loop $-1 $-1 $144 $86 #
plane-surface $-1 0 0 5.5385251363709065 0 0 1 1 0 0 forward_v I I I I #
coedge $-1 $221 $222 $223 $224 reversed $87 $-1 #
coedge $-1 $143 $89 $225 $226 reversed $56 $-1 #
coedge $-1 $89 $142 $221 $227 reversed $56 $-1 #
coedge $-1 $223 $228 $89 $145 forward $139 $-1 #
edge $-1 $229 12.913351576347381 $230 16.610556502336337 $144 $231 forward 7 unknown #
loop $-1 $-1 $151 $90 #
plane-surface $-1 -40.461439863277079 14.395109705608757 0.25836913143703555 -0.81915205242281985 0 0.57357642473473569 0.57357642473473569 0 0.81915205242281985 forward_v I I I I #
loop $-1 $-1 $232 $58 #
coedge $-1 $149 $149 $150 $233 reversed $91 $-1 #
coedge $-1 $150 $150 $149 $233 forward $93 $-1 #
coedge $-1 $151 $151 $94 $152 forward $146 $-1 #
edge $-1 $234 0 $234 6.2831853071796004 $151 $235 forward 7 unknown #
loop $-1 $-1 $158 $95 #
plane-surface $-1 -40.461439863277079 14.395109705608757 0.25836913143703555 -0.81915205242281985 0 0.57357642473473569 0.57357642473473569 0 0.81915205242281985 forward_v I I I I #
loop $-1 $-1 $236 $61 #
coedge $-1 $156 $156 $157 $237 reversed $96 $-1 #
coedge $-1 $157 $157 $156 $237 forward $98 $-1 #
coedge $-1 $158 $158 $99 $159 forward $153 $-1 #
edge $-1 $238 0 $238 6.2831853071796004 $158 $239 forward 7 unknown #
face $-1 $240 $241 $24 $-1 $242 reversed single #
loop $-1 $-1 $243 $100 #
plane-surface $-1 -40.461439863277079 0 0 1 0 0 0 0 -1 forward_v I I I I #
coedge $-1 $244 $171 $245 $246 forward $101 $-1 #
coedge $-1 $247 $103 $244 $248 forward $65 $-1 #
coedge $-1 $103 $247 $249 $250 forward $65 $-1 #
coedge $-1 $174 $173 $103 $167 reversed $175 $-1 #
edge $-1 $251 -18.036439752279936 $252 18.036439752279936 $166 $253 forward 7 unknown #
coedge $-1 $105 $104 $254 $255 forward $41 $-1 #
coedge $-1 $256 $257 $104 $170 reversed $241 $-1 #
edge $-1 $177 -40.461439863277079 $258 40.461439863277079 $169 $259 forward 7 unknown #
coedge $-1 $163 $260 $105 $172 reversed $101 $-1 #
edge $-1 $261 -40.461439863277079 $176 40.461439863277079 $171 $262 forward 7 unknown #
coedge $-1 $166 $106 $260 $263 forward $175 $-1 #
coedge $-1 $106 $166 $256 $264 reversed $175 $-1 #
loop $-1 $-1 $173 $240 #
vertex $-1 $107 $265 #
vertex $-1 $107 $266 #
straight-curve $-1 40.461439863277079 0 5.5385251363709065 0 1 0 I I #
face $-1 $267 $268 $25 $-1 $269 forward single #
loop $-1 $-1 $187 $108 #
plane-surface $-1 0 -18.036439752279936 0 0 1 0 0 0 1 forward_v I I I I #
coedge $-1 $270 $271 $183 $272 forward $109 $-1 #
coedge $-1 $273 $111 $182 $272 reversed $69 $-1 #
coedge $-1 $111 $273 $189 $274 reversed $69 $-1 #
edge $-1 $275 -40.461439863277079 $193 40.461439863277079 $111 $276 forward 7 unknown #
coedge $-1 $113 $112 $270 $277 reversed $44 $-1 #
coedge $-1 $278 $279 $112 $188 forward $180 $-1 #
edge $-1 $280 -40.461439863277079 $192 40.461439863277079 $187 $281 forward 7 unknown #
coedge $-1 $282 $114 $184 $274 forward $191 $-1 #
coedge $-1 $114 $282 $278 $283 forward $191 $-1 #
loop $-1 $-1 $189 $267 #
vertex $-1 $188 $284 #
vertex $-1 $115 $285 #
straight-curve $-1 40.461439863277079 -7.3267191079601606 2.3345406590014468 0 1 0 I I #
face $-1 $-1 $286 $26 $-1 $287 reversed single #
loop $-1 $-1 $201 $116 #
plane-surface $-1 0 0 5.5385251363709065 0 0 1 1 0 0 forward_v I I I I #
coedge $-1 $288 $289 $200 $290 reversed $117 $-1 #
coedge $-1 $291 $119 $121 $205 forward $73 $-1 #
coedge $-1 $119 $291 $198 $290 forward $73 $-1 #
coedge $-1 $292 $122 $119 $202 forward $196 $-1 #
edge $-1 $208 0.55545222836725117 $293 7.3284737102513873 $201 $294 forward 7 unknown #
coedge $-1 $295 $296 $120 $204 forward $286 $-1 #
edge $-1 $297 -54.419666028121412 $207 -50.584517831152567 $203 $298 forward 7 unknown #
edge $-1 $208 76.494432078303348 $297 80.922879726554143 $121 $299 forward 7 unknown #
coedge $-1 $122 $292 $295 $300 forward $196 $-1 #
vertex $-1 $204 $301 #
vertex $-1 $123 $302 #
straight-curve $-1 35.040635650345983 -4.4974151976765704 5.5385251363709074 -1 0 0 I I #
coedge $-1 $210 $210 $-1 $303 reversed $126 $-1 #
edge $-1 $304 0 $304 6.2831853071796004 $127 $305 forward 7 unknown #
vertex $-1 $130 $306 #
ellipse-curve $-1 39.35432798087939 -9.3352876847366666 3.6209510378864853 0.86602541151947299 0 0.49999998660252726 0.24999999330126363 0 -0.43301270575973649 1 I I #
coedge $-1 $214 $214 $-1 $307 reversed $133 $-1 #
edge $-1 $308 0 $308 6.2831853071796004 $134 $309 forward 7 unknown #
vertex $-1 $137 $310 #
ellipse-curve $-1 39.35432798087939 -6.4325641925006085 3.6209510378864853 0.86602541151947299 0 0.49999998660252726 0.24999999330126363 0 -0.43301270575973649 1 I I #
face $-1 $-1 $311 $29 $-1 $312 reversed single #
loop $-1 $-1 $313 $138 #
plane-surface $-1 0 18.036439752279936 0 0 -1 0 0 0 -1 forward_v I I I I #
coedge $-1 $314 $141 $143 $227 forward $87 $-1 #
coedge $-1 $141 $314 $313 $315 reversed $87 $-1 #
coedge $-1 $316 $144 $141 $224 forward $139 $-1 #
edge $-1 $230 3.5562248061331978 $317 10.838884899475561 $223 $318 forward 7 unknown #
coedge $-1 $319 $320 $142 $226 forward $311 $-1 #
edge $-1 $321 -23.078543450679462 $229 -17.79838744574559 $225 $322 forward 7 unknown #
edge $-1 $230 -6.4458802115146554 $321 0 $143 $323 forward 7 unknown #
coedge $-1 $144 $316 $319 $324 forward $139 $-1 #
vertex $-1 $226 $325 #
vertex $-1 $145 $326 #
straight-curve $-1 -53.37479143962446 10.753779658937576 5.5385251363709074 1 0 0 I I #
coedge $-1 $232 $232 $-1 $327 reversed $148 $-1 #
edge $-1 $328 0 $328 6.2831853071796004 $149 $329 forward 7 unknown #
vertex $-1 $152 $330 #
ellipse-curve $-1 -38.612837400282601 12.834539685606821 2.8984471339039666 -0.81915205242281985 0 0.57357642473473569 0.28678821236736785 0 0.40957602621140993 1 I I #
coedge $-1 $236 $236 $-1 $331 reversed $155 $-1 #
edge $-1 $332 0 $332 6.2831853071796004 $156 $333 forward 7 unknown #
vertex $-1 $159 $334 #
ellipse-curve $-1 -38.612837400282601 15.95567972561069 2.8984471339039666 -0.81915205242281985 0 0.57357642473473569 0.28678821236736785 0 0.40957602621140993 1 I I #
face $-1 $-1 $175 $24 $-1 $335 reversed single #
loop $-1 $-1 $256 $160 #
plane-surface $-1 0 18.036439752279936 0 0 -1 0 0 0 -1 forward_v I I I I #
coedge $-1 $336 $254 $257 $337 forward $161 $-1 #
coedge $-1 $260 $163 $164 $248 reversed $101 $-1 #
coedge $-1 $254 $336 $163 $246 reversed $161 $-1 #
edge $-1 $261 -5.5385251363709065 $338 5.5385251363709065 $245 $339 forward 7 unknown #
coedge $-1 $165 $164 $336 $340 forward $65 $-1 #
edge $-1 $252 -40.461439863277079 $338 40.461439863277079 $244 $341 forward 7 unknown #
coedge $-1 $257 $256 $165 $250 reversed $241 $-1 #
edge $-1 $342 -40.461439863277079 $251 40.461439863277079 $249 $343 forward 7 unknown #
vertex $-1 $167 $344 #
vertex $-1 $263 $345 #
straight-curve $-1 40.461439863277079 0 -5.5385251363709065 0 -1 0 I I #
coedge $-1 $243 $245 $168 $255 reversed $161 $-1 #
edge $-1 $258 -18.036439752279936 $261 18.036439752279936 $254 $346 forward 7 unknown #
coedge $-1 $249 $169 $174 $264 forward $241 $-1 #
coedge $-1 $169 $249 $243 $337 reversed $241 $-1 #
vertex $-1 $170 $347 #
straight-curve $-1 0 18.036439752279936 5.5385251363709065 -1 0 0 I I #
coedge $-1 $171 $244 $173 $263 reversed $101 $-1 #
vertex $-1 $255 $348 #
straight-curve $-1 0 -18.036439752279936 5.5385251363709065 1 0 0 I I #
edge $-1 $176 -5.5385251363709065 $252 5.5385251363709065 $173 $349 forward 7 unknown #
edge $-1 $177 -5.5385251363709065 $251 5.5385251363709065 $174 $350 forward 7 unknown #
point $-1 40.461439863277079 -18.036439752279936 5.5385251363709065 #
point $-1 40.461439863277079 18.036439752279936 5.5385251363709065 #
face $-1 $-1 $191 $25 $-1 $351 reversed single #
loop $-1 $-1 $352 $179 #
plane-surface $-1 0 0 5.5385251363709065 0 0 1 1 0 0 forward_v I I I I #
coedge $-1 $353 $182 $186 $277 forward $109 $-1 #
coedge $-1 $182 $353 $354 $355 reversed $109 $-1 #
edge $-1 $356 -3.5702586875278182 $275 -0.36627421015835848 $182 $357 forward 7 unknown #
coedge $-1 $184 $183 $352 $358 reversed $69 $-1 #
edge $-1 $193 0.36627421015835848 $359 3.5702586875278182 $189 $360 forward 7 unknown #
vertex $-1 $277 $361 #
straight-curve $-1 0 -11.270436679560706 2.3345406590014468 1 0 0 I I #
edge $-1 $275 3.9437175716005459 $280 10.709720644319775 $270 $362 forward 7 unknown #
coedge $-1 $363 $187 $190 $283 reversed $180 $-1 #
coedge $-1 $187 $363 $353 $364 forward $180 $-1 #
vertex $-1 $188 $365 #
straight-curve $-1 0 -18.036439752279936 2.3345406590014468 1 0 0 I I #
coedge $-1 $190 $189 $366 $367 reversed $191 $-1 #
edge $-1 $368 -5.5385251363709065 $192 -2.3345406590014468 $190 $369 forward 7 unknown #
point $-1 40.461439863277079 -18.036439752279936 2.3345406590014468 #
point $-1 40.461439863277079 -11.270436679560706 2.3345406590014468 #
loop $-1 $-1 $203 $195 #
plane-surface $-1 40.461439863277079 0 0 -1 0 0 0 0 1 forward_v I I I I #
coedge $-1 $289 $198 $370 $371 reversed $117 $-1 #
coedge $-1 $198 $288 $292 $372 reversed $117 $-1 #
edge $-1 $373 -80.922879726554143 $293 -76.494432078303348 $198 $374 forward 7 unknown #
coedge $-1 $200 $199 $296 $375 reversed $73 $-1 #
coedge $-1 $206 $201 $289 $372 forward $196 $-1 #
vertex $-1 $372 $376 #
straight-curve $-1 38.24721609848168 -3.9419629693093192 5.5385251363709074 0 -1 0 I I #
coedge $-1 $370 $203 $206 $300 reversed $286 $-1 #
coedge $-1 $203 $370 $291 $375 forward $286 $-1 #
vertex $-1 $204 $377 #
straight-curve $-1 40.461439863277079 -4.4974151976765704 56.123042967523475 0 0 1 I I #
straight-curve $-1 1.0841620792234608e-006 -4.4974151976765704 71.784647155931935 0.49999998660252726 0 -0.86602541151947299 I I #
edge $-1 $378 -11.270436679560706 $207 -4.4974151976765704 $295 $379 forward 7 unknown #
point $-1 40.461439863277079 -4.4974151976765704 5.5385251363709065 #
point $-1 38.247216098481687 -4.4974151976765704 5.5385251363709074 #
edge $-1 $380 1 $380 0 $210 $-1 forward 7 unknown #
vertex $-1 $211 $381 #
ellipse-curve $-1 37.691140014059009 -9.3352876847366666 2.6607090518359686 0.86602541151947299 0 0.49999998660252726 0.24999999330126363 0 -0.43301270575973649 1 I I #
point $-1 39.604327974180649 -9.3352876847366666 3.1879383321267447 #
edge $-1 $382 1 $382 0 $214 $-1 forward 7 unknown #
vertex $-1 $215 $383 #
ellipse-curve $-1 37.691140014059009 -6.4325641925006085 2.6607090518359686 0.86602541151947299 0 0.49999998660252726 0.24999999330126363 0 -0.43301270575973649 1 I I #
point $-1 39.604327974180649 -6.4325641925006085 3.1879383321267447 #
loop $-1 $-1 $225 $218 #
plane-surface $-1 -40.461439863277079 0 0 1 0 0 0 0 -1 forward_v I I I I #
coedge $-1 $384 $385 $222 $315 forward $219 $-1 #
coedge $-1 $222 $221 $320 $386 reversed $87 $-1 #
edge $-1 $317 5.0521619945346599 $387 11.498042206049316 $313 $388 forward 7 unknown #
coedge $-1 $228 $223 $385 $389 forward $139 $-1 #
vertex $-1 $389 $390 #
straight-curve $-1 -36.764234937288123 7.1975548528043785 5.5385251363709074 0 1 0 I I #
coedge $-1 $391 $225 $228 $324 reversed $311 $-1 #
coedge $-1 $225 $391 $314 $386 forward $311 $-1 #
vertex $-1 $226 $392 #
straight-curve $-1 -40.461439863277079 10.753779658937576 23.336912582116497 0 0 1 I I #
straight-curve $-1 -40.461439863277079 10.753779658937576 0.25836913143703555 -0.57357642473473569 0 -0.81915205242281985 I I #
edge $-1 $393 -18.036439752279936 $229 -10.753779658937576 $319 $394 forward 7 unknown #
point $-1 -40.461439863277079 10.753779658937576 5.5385251363709065 #
point $-1 -36.764234937288123 10.753779658937576 5.5385251363709065 #
edge $-1 $395 1 $395 0 $232 $-1 forward 7 unknown #
vertex $-1 $233 $396 #
ellipse-curve $-1 -37.793685347859778 12.834539685606821 2.3248707091692289 -0.81915205242281985 0 0.57357642473473569 0.28678821236736785 0 0.40957602621140993 1 I I #
point $-1 -38.326049187915231 12.834539685606821 3.3080231601153747 #
edge $-1 $397 1 $397 0 $236 $-1 forward 7 unknown #
vertex $-1 $237 $398 #
ellipse-curve $-1 -37.793685347859778 15.95567972561069 2.3248707091692289 -0.81915205242281985 0 0.57357642473473569 0.28678821236736785 0 0.40957602621140993 1 I I #
point $-1 -38.326049187915231 15.95567972561069 3.3080231601153747 #
plane-surface $-1 40.461439863277079 0 0 -1 0 0 0 0 1 forward_v I I I I #
coedge $-1 $245 $243 $247 $340 reversed $161 $-1 #
edge $-1 $258 -5.5385251363709065 $342 5.5385251363709065 $257 $399 forward 7 unknown #
vertex $-1 $340 $400 #
straight-curve $-1 -40.461439863277079 -18.036439752279936 0 0 0 -1 I I #
edge $-1 $338 -18.036439752279936 $342 18.036439752279936 $336 $401 forward 7 unknown #
straight-curve $-1 0 -18.036439752279936 -5.5385251363709065 -1 0 0 I I #
vertex $-1 $250 $402 #
straight-curve $-1 0 18.036439752279936 -5.5385251363709065 1 0 0 I I #
point $-1 40.461439863277079 18.036439752279936 -5.5385251363709065 #
point $-1 40.461439863277079 -18.036439752279936 -5.5385251363709065 #
straight-curve $-1 -40.461439863277079 0 5.5385251363709065 0 -1 0 I I #
point $-1 -40.461439863277079 18.036439752279936 5.5385251363709065 #
point $-1 -40.461439863277079 -18.036439752279936 5.5385251363709065 #
straight-curve $-1 40.461439863277079 -18.036439752279936 0 0 0 -1 I I #
straight-curve $-1 40.461439863277079 18.036439752279936 0 0 0 -1 I I #
plane-surface $-1 40.461439863277079 0 0 -1 0 0 0 0 1 forward_v I I I I #
coedge $-1 $354 $366 $273 $358 forward $268 $-1 #
coedge $-1 $271 $270 $279 $364 reversed $109 $-1 #
coedge $-1 $403 $352 $271 $355 forward $268 $-1 #
edge $-1 $356 11.270436679560706 $404 18.036439752279936 $271 $405 forward 7 unknown #
vertex $-1 $355 $406 #
straight-curve $-1 -40.461439863277079 -11.270436679560706 1.9682664488430883 0 0 -1 I I #
edge $-1 $359 -40.461439863277079 $356 40.461439863277079 $352 $407 forward 7 unknown #
vertex $-1 $274 $408 #
straight-curve $-1 40.461439863277079 -11.270436679560706 1.9682664488430883 0 0 1 I I #
point $-1 -40.461439863277079 -11.270436679560706 2.3345406590014468 #
straight-curve $-1 -40.461439863277079 -7.3267191079601606 2.3345406590014468 0 -1 0 I I #
coedge $-1 $279 $278 $403 $409 reversed $180 $-1 #
edge $-1 $404 -5.5385251363709065 $280 -2.3345406590014468 $353 $410 forward 7 unknown #
point $-1 -40.461439863277079 -18.036439752279936 2.3345406590014468 #
coedge $-1 $352 $403 $282 $367 forward $268 $-1 #
edge $-1 $368 -18.036439752279936 $359 -11.270436679560706 $282 $411 forward 7 unknown #
vertex $-1 $367 $412 #
straight-curve $-1 40.461439863277079 -18.036439752279936 0 0 0 -1 I I #
coedge $-1 $296 $295 $288 $371 forward $286 $-1 #
edge $-1 $378 50.584517831152567 $373 54.419666028121412 $370 $413 forward 7 unknown #
edge $-1 $293 38.247216098481687 $378 40.461439863277079 $292 $414 forward 7 unknown #
vertex $-1 $371 $415 #
straight-curve $-1 1.0841620792234608e-006 -11.270436679560706 71.784647155931935 -0.49999998660252726 0 0.86602541151947299 I I #
edge $-1 $373 -7.3284737102513873 $297 -0.55545222836725117 $296 $416 forward 7 unknown #
point $-1 38.247216098481687 -11.270436679560706 5.5385251363709065 #
point $-1 40.461439863277079 -4.4974151976765704 1.7033769394020624 #
vertex $-1 $300 $417 #
straight-curve $-1 40.461439863277079 0 5.5385251363709065 0 1 0 I I #
vertex $-1 $303 $418 #
point $-1 37.941140007360275 -9.3352876847366666 2.2276963460762325 #
vertex $-1 $307 $419 #
point $-1 37.941140007360275 -6.4325641925006085 2.2276963460762325 #
coedge $-1 $385 $313 $391 $420 reversed $219 $-1 #
coedge $-1 $313 $384 $316 $389 reversed $219 $-1 #
edge $-1 $387 -10.838884899475561 $321 -3.5562248061331978 $320 $421 forward 7 unknown #
vertex $-1 $315 $422 #
straight-curve $-1 -33.866433923282223 18.036439752279936 9.6770140033665406 -0.57357642473473569 0 -0.81915205242281985 I I #
edge $-1 $317 36.764234937288123 $393 40.461439863277079 $385 $423 forward 7 unknown #
point $-1 -36.764234937288123 18.036439752279939 5.5385251363709065 #
coedge $-1 $320 $319 $384 $420 forward $311 $-1 #
point $-1 -40.461439863277079 10.753779658937576 0.25836913143703555 #
vertex $-1 $389 $424 #
straight-curve $-1 -40.461439863277079 0 5.5385251363709065 0 -1 0 I I #
vertex $-1 $327 $425 #
point $-1 -37.506897135492409 12.834539685606821 2.7344467353806388 #
vertex $-1 $331 $426 #
point $-1 -37.506897135492409 15.95567972561069 2.7344467353806388 #
straight-curve $-1 -40.461439863277079 18.036439752279936 0 0 0 -1 I I #
point $-1 -40.461439863277079 -18.036439752279936 -5.5385251363709065 #
straight-curve $-1 -40.461439863277079 0 -5.5385251363709065 0 1 0 I I #
point $-1 -40.461439863277079 18.036439752279936 -5.5385251363709065 #
coedge $-1 $366 $354 $363 $409 forward $268 $-1 #
vertex $-1 $355 $427 #
straight-curve $-1 -40.461439863277079 0 5.5385251363709065 0 -1 0 I I #
point $-1 -40.461439863277079 -11.270436679560706 5.5385251363709065 #
straight-curve $-1 0 -11.270436679560706 5.5385251363709065 -1 0 0 I I #
point $-1 40.461439863277079 -11.270436679560706 5.5385251363709065 #
edge $-1 $404 -40.461439863277079 $368 40.461439863277079 $363 $428 forward 7 unknown #
straight-curve $-1 -40.461439863277079 -18.036439752279936 0 0 0 -1 I I #
straight-curve $-1 40.461439863277079 0 5.5385251363709065 0 1 0 I I #
point $-1 40.461439863277079 -18.036439752279936 5.5385251363709065 #
straight-curve $-1 40.461439863277079 -11.270436679560706 56.123042967523475 0 0 -1 I I #
straight-curve $-1 0 -11.270436679560706 5.5385251363709065 1 0 0 I I #
point $-1 40.461439863277079 -11.270436679560706 1.7033769394020624 #
straight-curve $-1 40.461439863277079 -3.9419629693093192 1.7033769394020624 0 1 0 I I #
point $-1 40.461439863277079 -11.270436679560706 5.5385251363709065 #
point $-1 37.258127308299272 -9.3352876847366666 2.4107090585347053 #
point $-1 37.258127308299272 -6.4325641925006085 2.4107090585347053 #
edge $-1 $393 -5.5385251363709065 $387 -0.25836913143703555 $384 $429 forward 7 unknown #
straight-curve $-1 -40.461439863277079 7.1975548528043785 0.25836913143703077 0 -1 0 I I #
point $-1 -40.461439863277079 18.036439752279939 0.25836913143703555 #
straight-curve $-1 0 18.036439752279936 5.5385251363709065 -1 0 0 I I #
point $-1 -40.461439863277079 18.036439752279936 5.5385251363709065 #
point $-1 -37.384109321648367 12.834539685606821 2.0380824968018612 #
point $-1 -37.384109321648367 15.95567972561069 2.0380824968018612 #
point $-1 -40.461439863277079 -18.036439752279936 5.5385251363709065 #
straight-curve $-1 0 -18.036439752279936 5.5385251363709065 1 0 0 I I #
straight-curve $-1 -40.461439863277079 18.036439752279936 0 0 0 -1 I I #
End-of-ACIS-data 