500 0 4 0           
7 Unknown 11 ACIS 5.0 NT 24 Fri Mar 26 01:20:35 1999 
-1 9.9999999999999995e-007 1e-010 
body $-1 $4 $-1 $5 #
body $-1 $6 $-1 $7 #
body $-1 $8 $-1 $9 #
body $-1 $10 $-1 $11 #
lump $-1 $-1 $12 $0 #
transform $-1 1 0 0 0 1 0 0 0 1 68.385876033814512 44.907984439991665 10.725726683168272 1 rotate no_reflect no_shear #
lump $-1 $-1 $13 $1 #
transform $-1 1 0 0 0 1 0 0 0 1 68.385876033814512 44.907984439991665 10.725726683168272 1 rotate no_reflect no_shear #
lump $-1 $-1 $14 $2 #
transform $-1 1 0 0 0 1 0 0 0 1 68.385876033814512 44.907984439991665 10.725726683168272 1 rotate no_reflect no_shear #
lump $-1 $-1 $15 $3 #
transform $-1 1 0 0 0 1 0 0 0 1 68.385876033814512 44.907984439991665 10.725726683168272 1 rotate no_reflect no_shear #
shell $-1 $-1 $-1 $16 $-1 $4 #
shell $-1 $-1 $-1 $17 $-1 $6 #
shell $-1 $-1 $-1 $18 $-1 $8 #
shell $-1 $-1 $-1 $19 $-1 $10 #
face $-1 $20 $21 $12 $-1 $22 forward single #
face $-1 $23 $24 $13 $-1 $25 forward single #
face $-1 $26 $27 $14 $-1 $28 reversed single #
face $-1 $29 $30 $15 $-1 $31 forward single #
face $-1 $32 $33 $12 $-1 $34 reversed single #
loop $-1 $-1 $35 $16 #
plane-surface $-1 0 0 10.725726683168272 0 0 1 1 0 0 forward_v I I I I #
face $-1 $36 $37 $13 $-1 $38 reversed single #
loop $-1 $-1 $39 $17 #
plane-surface $-1 0 -44.907984439991665 0 0 1 0 0 0 1 forward_v I I I I #
face $-1 $40 $41 $14 $-1 $42 reversed single #
loop $-1 $-1 $43 $18 #
plane-surface $-1 -37.200146756710211 69.67987906685785 169.32362179969994 -1 0 0 0 0.66913061440640931 0.74314481823134659 forward_v I I I I #
face $-1 $44 $45 $15 $-1 $46 forward single #
loop $-1 $47 $48 $19 #
cone-surface $-1 -52.793011395262361 42.82868125394738 8.7831851974928323 0 -0.66913061440640931 -0.74314481823134659 0.5 0 0 1 I I 0 1 0.5 forward I I I I #
face $-1 $49 $50 $12 $-1 $51 reversed single #
loop $-1 $-1 $52 $20 #
plane-surface $-1 0 0 -10.725726683168272 0 0 1 1 0 0 forward_v I I I I #
coedge $-1 $53 $54 $55 $56 forward $21 $-1 #
face $-1 $57 $58 $13 $-1 $59 reversed single #
loop $-1 $-1 $60 $23 #
plane-surface $-1 0 0 -10.725726683168272 0 0 1 1 0 0 forward_v I I I I #
coedge $-1 $61 $62 $63 $64 forward $24 $-1 #
face $-1 $65 $66 $14 $-1 $67 reversed single #
loop $-1 $-1 $68 $26 #
plane-surface $-1 -52.793011395262361 -21.838287427595844 67.682402970218959 0 0.66913061440640931 0.74314481823134659 1 0 0 forward_v I I I I #
coedge $-1 $69 $70 $71 $72 reversed $27 $-1 #
face $-1 $-1 $73 $15 $-1 $74 forward single #
loop $-1 $75 $76 $29 #
cone-surface $-1 -52.793011395262361 42.32683329314257 8.2258265838193232 0 -0.66913061440640931 -0.74314481823134659 0.25 0 0 1 I I -0.70710678118654746 0.70710678118654746 0.25 forward I I I I #
loop $-1 $-1 $77 $19 #
coedge $-1 $48 $48 $78 $79 reversed $30 $-1 #
face $-1 $80 $81 $12 $-1 $82 reversed single #
loop $-1 $-1 $83 $32 #
plane-surface $-1 0 -44.907984439991665 0 0 1 0 0 0 1 forward_v I I I I #
coedge $-1 $84 $85 $86 $87 forward $33 $-1 #
coedge $-1 $88 $35 $89 $90 forward $21 $-1 #
coedge $-1 $35 $88 $91 $92 forward $21 $-1 #
coedge $-1 $93 $94 $35 $56 reversed $95 $-1 #
edge $-1 $96 -44.907984439991665 $97 44.907984439991665 $55 $98 forward 7 unknown #
face $-1 $99 $100 $13 $-1 $101 reversed single #
loop $-1 $-1 $102 $36 #
plane-surface $-1 -53.109957906558869 -53.701024667747546 0 0 1 0 0 0 1 forward_v I I I I #
coedge $-1 $103 $104 $62 $105 forward $37 $-1 #
coedge $-1 $106 $39 $107 $108 reversed $24 $-1 #
coedge $-1 $39 $106 $60 $105 reversed $24 $-1 #
coedge $-1 $109 $110 $39 $64 reversed $100 $-1 #
edge $-1 $111 -10.725726683168272 $112 10.725726683168272 $63 $113 forward 7 unknown #
face $-1 $114 $115 $14 $-1 $116 forward single #
loop $-1 $-1 $117 $40 #
plane-surface $-1 -68.385876033814512 0 0 1 0 0 0 0 -1 forward_v I I I I #
coedge $-1 $118 $119 $120 $121 reversed $41 $-1 #
coedge $-1 $70 $43 $122 $123 reversed $27 $-1 #
coedge $-1 $43 $69 $118 $124 reversed $27 $-1 #
coedge $-1 $120 $125 $43 $72 forward $126 $-1 #
edge $-1 $127 73.936084216681692 $128 77.078022369801204 $71 $129 forward 7 unknown #
loop $-1 $-1 $78 $44 #
plane-surface $-1 -52.793011395262361 -21.838287427595844 67.682402970218959 0 0.66913061440640931 0.74314481823134659 1 0 0 forward_v I I I I #
loop $-1 $-1 $130 $29 #
coedge $-1 $76 $76 $77 $131 reversed $45 $-1 #
coedge $-1 $77 $77 $76 $131 forward $47 $-1 #
coedge $-1 $78 $78 $48 $79 forward $73 $-1 #
edge $-1 $132 -6.8580691682467314e-015 $132 6.2831853071795933 $78 $133 forward 7 unknown #
face $-1 $134 $135 $12 $-1 $136 reversed single #
loop $-1 $-1 $137 $49 #
plane-surface $-1 -68.385876033814512 0 0 1 0 0 0 0 -1 forward_v I I I I #
coedge $-1 $138 $91 $139 $140 forward $50 $-1 #
coedge $-1 $141 $52 $138 $142 forward $33 $-1 #
coedge $-1 $52 $141 $143 $144 forward $33 $-1 #
coedge $-1 $94 $93 $52 $87 reversed $95 $-1 #
edge $-1 $145 -44.907984439991665 $146 44.907984439991665 $86 $147 forward 7 unknown #
coedge $-1 $54 $53 $148 $149 forward $21 $-1 #
coedge $-1 $150 $151 $53 $90 reversed $135 $-1 #
edge $-1 $97 -68.385876033814512 $152 68.385876033814512 $89 $153 forward 7 unknown #
coedge $-1 $83 $154 $54 $92 reversed $50 $-1 #
edge $-1 $155 -68.385876033814512 $96 68.385876033814512 $91 $156 forward 7 unknown #
coedge $-1 $86 $55 $154 $157 forward $95 $-1 #
coedge $-1 $55 $86 $150 $158 reversed $95 $-1 #
loop $-1 $-1 $93 $134 #
vertex $-1 $56 $159 #
vertex $-1 $56 $160 #
straight-curve $-1 68.385876033814512 0 10.725726683168272 0 1 0 I I #
face $-1 $161 $162 $13 $-1 $163 reversed single #
loop $-1 $-1 $63 $57 #
plane-surface $-1 -55.271371702805958 -49.304504553869606 0 1 0 0 0 0 -1 forward_v I I I I #
coedge $-1 $164 $165 $166 $167 forward $58 $-1 #
coedge $-1 $168 $60 $169 $170 forward $37 $-1 #
coedge $-1 $60 $168 $109 $171 forward $37 $-1 #
edge $-1 $111 -55.271371702805958 $172 -50.948544110311779 $60 $173 forward 7 unknown #
coedge $-1 $62 $61 $174 $175 forward $24 $-1 #
coedge $-1 $176 $177 $61 $108 forward $178 $-1 #
edge $-1 $179 50.948544110311779 $112 55.271371702805958 $107 $180 forward 7 unknown #
coedge $-1 $166 $63 $104 $171 reversed $100 $-1 #
coedge $-1 $63 $166 $176 $181 reversed $100 $-1 #
vertex $-1 $105 $182 #
vertex $-1 $181 $183 #
straight-curve $-1 -55.271371702805958 -44.907984439991665 0 0 0 1 I I #
face $-1 $-1 $126 $14 $-1 $184 reversed single #
loop $-1 $-1 $122 $65 #
plane-surface $-1 0 0 10.725726683168272 0 0 1 1 0 0 forward_v I I I I #
coedge $-1 $185 $186 $119 $187 forward $66 $-1 #
coedge $-1 $188 $68 $70 $124 forward $41 $-1 #
coedge $-1 $68 $188 $117 $187 reversed $41 $-1 #
coedge $-1 $189 $71 $68 $121 forward $126 $-1 #
edge $-1 $128 10.80364105907903 $190 41.989370336183327 $120 $191 forward 7 unknown #
coedge $-1 $192 $193 $69 $123 forward $115 $-1 #
edge $-1 $194 6.5785691488805824 $127 10.06804490656274 $122 $195 forward 7 unknown #
edge $-1 $128 -89.815968879983359 $194 -85.120416045494153 $70 $196 forward 7 unknown #
coedge $-1 $71 $189 $192 $197 reversed $126 $-1 #
loop $-1 $-1 $120 $114 #
vertex $-1 $197 $198 #
vertex $-1 $72 $199 #
straight-curve $-1 -37.200146756710211 44.907984439991665 84.661810899849968 0 0 -1 I I #
coedge $-1 $130 $130 $-1 $200 reversed $75 $-1 #
edge $-1 $201 0 $201 6.2831853071796004 $76 $202 forward 7 unknown #
vertex $-1 $79 $203 #
ellipse-curve $-1 -52.793011395262361 43.163246561150594 9.1547576066085163 0 0.66913061440640931 0.74314481823134659 0.5 0 0 1 I I #
face $-1 $-1 $95 $12 $-1 $204 reversed single #
loop $-1 $-1 $150 $80 #
plane-surface $-1 0 44.907984439991665 0 0 -1 0 0 0 -1 forward_v I I I I #
coedge $-1 $205 $148 $151 $206 forward $81 $-1 #
coedge $-1 $154 $83 $84 $142 reversed $50 $-1 #
coedge $-1 $148 $205 $83 $140 reversed $81 $-1 #
edge $-1 $155 -10.725726683168272 $207 10.725726683168272 $139 $208 forward 7 unknown #
coedge $-1 $85 $84 $205 $209 forward $33 $-1 #
edge $-1 $146 -68.385876033814512 $207 68.385876033814512 $138 $210 forward 7 unknown #
coedge $-1 $151 $150 $85 $144 reversed $135 $-1 #
edge $-1 $211 -68.385876033814512 $145 68.385876033814512 $143 $212 forward 7 unknown #
vertex $-1 $87 $213 #
vertex $-1 $157 $214 #
straight-curve $-1 68.385876033814512 0 -10.725726683168272 0 -1 0 I I #
coedge $-1 $137 $139 $88 $149 reversed $81 $-1 #
edge $-1 $152 -44.907984439991665 $155 44.907984439991665 $148 $215 forward 7 unknown #
coedge $-1 $143 $89 $94 $158 forward $135 $-1 #
coedge $-1 $89 $143 $137 $206 reversed $135 $-1 #
vertex $-1 $90 $216 #
straight-curve $-1 0 44.907984439991665 10.725726683168272 -1 0 0 I I #
coedge $-1 $91 $138 $93 $157 reversed $50 $-1 #
vertex $-1 $149 $217 #
straight-curve $-1 0 -44.907984439991665 10.725726683168272 1 0 0 I I #
edge $-1 $96 -10.725726683168272 $146 10.725726683168272 $93 $218 forward 7 unknown #
edge $-1 $97 -10.725726683168272 $145 10.725726683168272 $94 $219 forward 7 unknown #
point $-1 68.385876033814512 -44.907984439991665 10.725726683168272 #
point $-1 68.385876033814512 44.907984439991665 10.725726683168272 #
face $-1 $-1 $178 $13 $-1 $220 forward single #
loop $-1 $-1 $221 $99 #
plane-surface $-1 -50.948544110311779 -49.304504553869606 0 -1 0 0 0 0 1 forward_v I I I I #
coedge $-1 $222 $102 $168 $223 reversed $58 $-1 #
coedge $-1 $102 $222 $224 $225 reversed $58 $-1 #
coedge $-1 $110 $109 $102 $167 reversed $100 $-1 #
edge $-1 $226 -10.725726683168272 $227 10.725726683168272 $166 $228 forward 7 unknown #
coedge $-1 $104 $103 $164 $223 forward $37 $-1 #
coedge $-1 $174 $221 $103 $170 reversed $162 $-1 #
edge $-1 $172 -4.3965201138779406 $229 4.3965201138779406 $169 $230 forward 7 unknown #
edge $-1 $227 -4.3965201138779406 $111 4.3965201138779406 $109 $231 forward 7 unknown #
vertex $-1 $170 $232 #
straight-curve $-1 0 -44.907984439991665 -10.725726683168272 1 0 0 I I #
coedge $-1 $233 $169 $106 $175 reversed $162 $-1 #
edge $-1 $179 -10.725726683168272 $172 10.725726683168272 $174 $234 forward 7 unknown #
coedge $-1 $224 $107 $110 $181 forward $178 $-1 #
coedge $-1 $107 $224 $233 $235 forward $178 $-1 #
loop $-1 $-1 $107 $161 #
vertex $-1 $108 $236 #
straight-curve $-1 0 -44.907984439991665 10.725726683168272 -1 0 0 I I #
edge $-1 $112 -4.3965201138779406 $226 4.3965201138779406 $110 $237 forward 7 unknown #
point $-1 -55.271371702805958 -44.907984439991665 -10.725726683168272 #
point $-1 -55.271371702805958 -44.907984439991665 10.725726683168272 #
plane-surface $-1 0 44.907984439991665 0 0 -1 0 0 0 -1 forward_v I I I I #
coedge $-1 $186 $117 $238 $239 reversed $66 $-1 #
coedge $-1 $117 $185 $189 $240 forward $66 $-1 #
edge $-1 $190 -59.057279867568653 $241 -54.361727033079447 $117 $242 forward 7 unknown #
coedge $-1 $119 $118 $193 $243 reversed $41 $-1 #
coedge $-1 $125 $120 $186 $240 reversed $126 $-1 #
vertex $-1 $187 $244 #
straight-curve $-1 -26.396505697631181 44.907984439991665 7.5837885300487642 -1 0 0 I I #
coedge $-1 $238 $122 $125 $197 forward $115 $-1 #
coedge $-1 $122 $238 $188 $243 forward $115 $-1 #
vertex $-1 $123 $245 #
straight-curve $-1 -37.200146756710211 34.839939533428925 10.725726683168276 0 1 0 I I #
straight-curve $-1 -37.200146756710211 -21.838287427595844 67.682402970218959 0 -0.74314481823134659 0.66913061440640931 I I #
edge $-1 $127 37.200146756710211 $246 68.385876033814512 $125 $247 forward 7 unknown #
point $-1 -37.200146756710211 44.907984439991665 10.725726683168272 #
point $-1 -37.200146756710211 44.907984439991665 7.5837885300487642 #
edge $-1 $248 1 $248 0 $130 $-1 forward 7 unknown #
vertex $-1 $131 $249 #
ellipse-curve $-1 -52.793011395262361 42.494115946744174 8.411612788377159 0 0.66913061440640931 0.74314481823134659 0.5 0 0 1 I I #
point $-1 -52.293011395262361 43.163246561150579 9.1547576066085057 #
plane-surface $-1 68.385876033814512 0 0 -1 0 0 0 0 1 forward_v I I I I #
coedge $-1 $139 $137 $141 $209 reversed $81 $-1 #
edge $-1 $152 -10.725726683168272 $211 10.725726683168272 $151 $250 forward 7 unknown #
vertex $-1 $209 $251 #
straight-curve $-1 -68.385876033814512 -44.907984439991665 0 0 0 -1 I I #
edge $-1 $207 -44.907984439991665 $211 44.907984439991665 $205 $252 forward 7 unknown #
straight-curve $-1 0 -44.907984439991665 -10.725726683168272 -1 0 0 I I #
vertex $-1 $144 $253 #
straight-curve $-1 0 44.907984439991665 -10.725726683168272 1 0 0 I I #
point $-1 68.385876033814512 44.907984439991665 -10.725726683168272 #
point $-1 68.385876033814512 -44.907984439991665 -10.725726683168272 #
straight-curve $-1 -68.385876033814512 0 10.725726683168272 0 -1 0 I I #
point $-1 -68.385876033814512 44.907984439991665 10.725726683168272 #
point $-1 -68.385876033814512 -44.907984439991665 10.725726683168272 #
straight-curve $-1 68.385876033814512 -44.907984439991665 0 0 0 -1 I I #
straight-curve $-1 68.385876033814512 44.907984439991665 0 0 0 -1 I I #
plane-surface $-1 0 0 10.725726683168272 0 0 1 1 0 0 forward_v I I I I #
coedge $-1 $169 $233 $222 $254 forward $162 $-1 #
coedge $-1 $165 $164 $221 $254 reversed $58 $-1 #
edge $-1 $229 -2.1614137962470892 $227 2.1614137962470892 $164 $255 forward 7 unknown #
coedge $-1 $177 $176 $165 $225 forward $178 $-1 #
edge $-1 $226 -2.1614137962470892 $256 2.1614137962470892 $165 $257 forward 7 unknown #
vertex $-1 $181 $258 #
vertex $-1 $171 $259 #
straight-curve $-1 -55.271371702805958 -53.701024667747546 0 0 0 -1 I I #
vertex $-1 $254 $260 #
straight-curve $-1 -50.948544110311779 -49.304504553869606 -10.725726683168272 0 -1 0 I I #
straight-curve $-1 -55.271371702805958 -49.304504553869606 -10.725726683168272 0 1 0 I I #
point $-1 -50.948544110311779 -44.907984439991665 -10.725726683168272 #
coedge $-1 $221 $174 $177 $235 reversed $162 $-1 #
straight-curve $-1 -50.948544110311779 -44.907984439991665 0 0 0 -1 I I #
edge $-1 $256 -4.3965201138779406 $179 4.3965201138779406 $233 $261 forward 7 unknown #
point $-1 -50.948544110311779 -44.907984439991665 10.725726683168272 #
straight-curve $-1 -55.271371702805958 -49.304504553869606 10.725726683168272 0 -1 0 I I #
coedge $-1 $193 $192 $185 $239 forward $115 $-1 #
edge $-1 $246 -44.907984439991665 $241 -41.418508682309508 $185 $262 forward 7 unknown #
edge $-1 $246 -10.725726683168272 $190 -7.5837885300487571 $189 $263 forward 7 unknown #
vertex $-1 $187 $264 #
straight-curve $-1 -68.385876033814512 1.0198729275695975 47.100822493006234 0 -0.74314481823134659 0.66913061440640931 I I #
edge $-1 $241 -41.989370336183327 $194 -10.80364105907903 $193 $265 forward 7 unknown #
point $-1 -68.385876033814512 44.907984439991665 7.5837885300487571 #
point $-1 -37.200146756710211 41.418508682309508 10.725726683168276 #
vertex $-1 $197 $266 #
straight-curve $-1 0 44.907984439991665 10.725726683168272 -1 0 0 I I #
vertex $-1 $200 $267 #
point $-1 -52.293011395262361 42.494115946744174 8.411612788377159 #
straight-curve $-1 -68.385876033814512 44.907984439991665 0 0 0 -1 I I #
point $-1 -68.385876033814512 -44.907984439991665 -10.725726683168272 #
straight-curve $-1 -68.385876033814512 0 -10.725726683168272 0 1 0 I I #
point $-1 -68.385876033814512 44.907984439991665 -10.725726683168272 #
edge $-1 $256 -10.725726683168272 $229 10.725726683168272 $221 $268 forward 7 unknown #
straight-curve $-1 -53.109957906558869 -53.701024667747546 -10.725726683168272 -1 0 0 I I #
vertex $-1 $235 $269 #
straight-curve $-1 -53.109957906558869 -53.701024667747546 10.725726683168272 1 0 0 I I #
point $-1 -55.271371702805958 -53.701024667747546 10.725726683168272 #
point $-1 -55.271371702805958 -53.701024667747546 -10.725726683168272 #
point $-1 -50.948544110311779 -53.701024667747546 -10.725726683168272 #
straight-curve $-1 -50.948544110311779 -49.304504553869606 10.725726683168272 0 1 0 I I #
straight-curve $-1 -68.385876033814512 0 10.725726683168272 0 -1 0 I I #
straight-curve $-1 -68.385876033814512 44.907984439991665 0 0 0 -1 I I #
point $-1 -68.385876033814512 41.418508682309508 10.725726683168276 #
straight-curve $-1 -26.396505697631181 41.418508682309522 10.725726683168261 1 0 0 I I #
point $-1 -68.385876033814512 44.907984439991665 10.725726683168272 #
point $-1 -52.793011395262361 42.159550639540967 8.0400403792614874 #
straight-curve $-1 -50.948544110311779 -53.701024667747546 0 0 0 -1 I I #
point $-1 -50.948544110311779 -53.701024667747546 10.725726683168272 #
End-of-ACIS-data 