500 0 8 0           
7 Unknown 11 ACIS 5.0 NT 24 Fri Mar 26 03:29:50 1999 
-1 9.9999999999999995e-007 1e-010 
body $-1 $8 $-1 $9 #
body $-1 $10 $-1 $11 #
body $-1 $12 $-1 $13 #
body $-1 $14 $-1 $15 #
body $-1 $16 $-1 $17 #
body $-1 $18 $-1 $19 #
body $-1 $20 $-1 $21 #
body $-1 $22 $-1 $23 #
lump $-1 $-1 $24 $0 #
transform $-1 1 0 0 0 1 0 0 0 1 56.569109164708394 36.235512322094316 10.324472491883204 1 rotate no_reflect no_shear #
lump $-1 $-1 $25 $1 #
transform $-1 1 0 0 0 1 0 0 0 1 56.569109164708394 36.235512322094316 10.324472491883204 1 rotate no_reflect no_shear #
lump $-1 $-1 $26 $2 #
transform $-1 1 0 0 0 1 0 0 0 1 56.569109164708394 36.235512322094316 10.324472491883204 1 rotate no_reflect no_shear #
lump $-1 $-1 $27 $3 #
transform $-1 1 0 0 0 1 0 0 0 1 56.569109164708394 36.235512322094316 10.324472491883204 1 rotate no_reflect no_shear #
lump $-1 $-1 $28 $4 #
transform $-1 1 0 0 0 1 0 0 0 1 56.569109164708394 36.235512322094316 10.324472491883204 1 rotate no_reflect no_shear #
lump $-1 $-1 $29 $5 #
transform $-1 1 0 0 0 1 0 0 0 1 56.569109164708394 36.235512322094316 10.324472491883204 1 rotate no_reflect no_shear #
lump $-1 $-1 $30 $6 #
transform $-1 1 0 0 0 1 0 0 0 1 56.569109164708394 36.235512322094316 10.324472491883204 1 rotate no_reflect no_shear #
lump $-1 $-1 $31 $7 #
transform $-1 1 0 0 0 1 0 0 0 1 56.569109164708394 36.235512322094316 10.324472491883204 1 rotate no_reflect no_shear #
shell $-1 $-1 $-1 $32 $-1 $8 #
shell $-1 $-1 $-1 $33 $-1 $10 #
shell $-1 $-1 $-1 $34 $-1 $12 #
shell $-1 $-1 $-1 $35 $-1 $14 #
shell $-1 $-1 $-1 $36 $-1 $16 #
shell $-1 $-1 $-1 $37 $-1 $18 #
shell $-1 $-1 $-1 $38 $-1 $20 #
shell $-1 $-1 $-1 $39 $-1 $22 #
face $-1 $40 $41 $24 $-1 $42 forward single #
face $-1 $43 $44 $25 $-1 $45 reversed single #
face $-1 $46 $47 $26 $-1 $48 forward single #
face $-1 $49 $50 $27 $-1 $51 forward single #
face $-1 $52 $53 $28 $-1 $54 forward single #
face $-1 $55 $56 $29 $-1 $57 reversed single #
face $-1 $58 $59 $30 $-1 $60 forward single #
face $-1 $61 $62 $31 $-1 $63 forward single #
face $-1 $64 $65 $24 $-1 $66 reversed single #
loop $-1 $-1 $67 $32 #
plane-surface $-1 0 0 10.324472491883204 0 0 1 1 0 0 forward_v I I I I #
face $-1 $68 $69 $25 $-1 $70 reversed single #
loop $-1 $-1 $71 $33 #
plane-surface $-1 -135.16152046934312 22.438658816039045 83.375151270114273 0 1 0 -0.69465837861970381 0 0.71933979245794832 forward_v I I I I #
face $-1 $72 $73 $26 $-1 $74 forward single #
loop $-1 $75 $76 $34 #
cone-surface $-1 -50.982450135067211 25.198029517250099 4.8406929084929882 0.69465837861970381 0 -0.71933979245794832 0.71933979245794832 0 0.69465837861970381 1 I I 0 1 1 forward I I I I #
face $-1 $77 $78 $27 $-1 $79 forward single #
loop $-1 $80 $81 $35 #
cone-surface $-1 -50.982450135067211 29.33708556906668 4.8406929084929882 0.69465837861970381 0 -0.71933979245794832 0.71933979245794832 0 0.69465837861970381 1 I I 0 1 1 forward I I I I #
face $-1 $82 $83 $28 $-1 $84 forward single #
loop $-1 $85 $86 $36 #
cone-surface $-1 -50.982450135067211 33.476141620883261 4.8406929084929882 0.69465837861970381 0 -0.71933979245794832 0.71933979245794832 0 0.69465837861970381 1 I I 0 1 1 forward I I I I #
face $-1 $87 $88 $29 $-1 $89 reversed single #
loop $-1 $-1 $90 $37 #
plane-surface $-1 95.277002570926797 11.389171617204166 159.4333895145472 0 -1 0 -0.85716730853699208 0 -0.51503806187062418 forward_v I I I I #
face $-1 $91 $92 $30 $-1 $93 forward single #
loop $-1 $94 $95 $38 #
cone-surface $-1 54.257207509187268 -1.5131409309508328 6.9737293684081907 -0.85716730853699208 0 -0.51503806187062418 0.51503806187062418 0 -0.85716730853699208 1 I I 0 1 1 forward I I I I #
face $-1 $96 $97 $31 $-1 $98 forward single #
loop $-1 $99 $100 $39 #
cone-surface $-1 54.257207509187268 6.2282465979421673 6.9737293684081907 -0.85716730853699208 0 -0.51503806187062418 0.51503806187062418 0 -0.85716730853699208 1 I I 0 1 1 forward I I I I #
face $-1 $101 $102 $24 $-1 $103 reversed single #
loop $-1 $-1 $104 $40 #
plane-surface $-1 0 0 -10.324472491883204 0 0 1 1 0 0 forward_v I I I I #
coedge $-1 $105 $106 $107 $108 forward $41 $-1 #
face $-1 $109 $110 $25 $-1 $111 forward single #
loop $-1 $-1 $112 $43 #
plane-surface $-1 -56.569109164708394 29.33708556906668 1.9903287779695518 -0.69465837861970381 0 0.71933979245794832 0.71933979245794832 0 0.69465837861970381 forward_v I I I I #
coedge $-1 $113 $114 $115 $116 reversed $44 $-1 #
face $-1 $-1 $117 $26 $-1 $118 forward single #
loop $-1 $119 $120 $46 #
cone-surface $-1 -49.36359104577101 25.198029517250099 3.1643152858306252 0.69465837861970381 0 -0.71933979245794832 0.35966989622897416 0 0.3473291893098519 1 I I -0.70710678118654779 0.70710678118654713 0.5 forward I I I I #
loop $-1 $-1 $121 $34 #
coedge $-1 $76 $76 $122 $123 reversed $47 $-1 #
face $-1 $-1 $124 $27 $-1 $125 forward single #
loop $-1 $126 $127 $49 #
cone-surface $-1 -49.36359104577101 29.33708556906668 3.1643152858306252 0.69465837861970381 0 -0.71933979245794832 0.35966989622897416 0 0.3473291893098519 1 I I -0.70710678118654779 0.70710678118654713 0.5 forward I I I I #
loop $-1 $-1 $128 $35 #
coedge $-1 $81 $81 $129 $130 reversed $50 $-1 #
face $-1 $-1 $131 $28 $-1 $132 forward single #
loop $-1 $133 $134 $52 #
cone-surface $-1 -49.36359104577101 33.476141620883261 3.1643152858306252 0.69465837861970381 0 -0.71933979245794832 0.35966989622897416 0 0.3473291893098519 1 I I -0.70710678118654779 0.70710678118654713 0.5 forward I I I I #
loop $-1 $-1 $135 $36 #
coedge $-1 $86 $86 $136 $137 reversed $53 $-1 #
face $-1 $138 $139 $29 $-1 $140 reversed single #
loop $-1 $-1 $141 $55 #
plane-surface $-1 -1.7013795271699763 2.3575528334956672 101.16290082266886 0.85716730853699208 0 0.51503806187062418 0.51503806187062418 0 -0.85716730853699208 forward_v I I I I #
coedge $-1 $142 $143 $144 $145 reversed $56 $-1 #
face $-1 $-1 $146 $30 $-1 $147 forward single #
loop $-1 $148 $149 $58 #
cone-surface $-1 53.361350346549315 -1.5131409309508328 6.4354440976534253 -0.85716730853699208 0 -0.51503806187062418 0.25751903093531209 0 -0.42858365426849604 1 I I -0.70710678118654746 0.70710678118654746 0.5 forward I I I I #
loop $-1 $-1 $150 $38 #
coedge $-1 $95 $95 $151 $152 reversed $59 $-1 #
face $-1 $-1 $153 $31 $-1 $154 forward single #
loop $-1 $155 $156 $61 #
cone-surface $-1 53.361350346549315 6.2282465979421673 6.4354440976534253 -0.85716730853699208 0 -0.51503806187062418 0.25751903093531209 0 -0.42858365426849604 1 I I -0.70710678118654746 0.70710678118654746 0.5 forward I I I I #
loop $-1 $-1 $157 $39 #
coedge $-1 $100 $100 $158 $159 reversed $62 $-1 #
face $-1 $160 $161 $24 $-1 $162 reversed single #
loop $-1 $-1 $163 $64 #
plane-surface $-1 0 -36.235512322094316 0 0 1 0 0 0 1 forward_v I I I I #
coedge $-1 $164 $165 $166 $167 forward $65 $-1 #
coedge $-1 $168 $67 $169 $170 forward $41 $-1 #
coedge $-1 $67 $168 $171 $172 forward $41 $-1 #
coedge $-1 $173 $174 $67 $108 reversed $175 $-1 #
edge $-1 $176 -36.235512322094316 $177 36.235512322094316 $107 $178 forward 7 unknown #
face $-1 $179 $180 $25 $-1 $181 reversed single #
loop $-1 $-1 $115 $68 #
plane-surface $-1 0 0 10.324472491883204 0 0 1 1 0 0 forward_v I I I I #
coedge $-1 $182 $183 $184 $185 reversed $69 $-1 #
coedge $-1 $114 $71 $186 $187 reversed $44 $-1 #
coedge $-1 $71 $113 $182 $188 reversed $44 $-1 #
coedge $-1 $184 $189 $71 $116 forward $110 $-1 #
edge $-1 $190 11.011651069963165 $191 19.641909329272835 $115 $192 forward 7 unknown #
loop $-1 $-1 $122 $72 #
plane-surface $-1 -56.569109164708394 29.33708556906668 1.9903287779695518 -0.69465837861970381 0 0.71933979245794832 0.71933979245794832 0 0.69465837861970381 forward_v I I I I #
loop $-1 $-1 $193 $46 #
coedge $-1 $120 $120 $121 $194 reversed $73 $-1 #
coedge $-1 $121 $121 $120 $194 forward $75 $-1 #
coedge $-1 $122 $122 $76 $123 forward $117 $-1 #
edge $-1 $195 0 $195 6.2831853071796004 $122 $196 forward 7 unknown #
loop $-1 $-1 $129 $77 #
plane-surface $-1 -56.569109164708394 29.33708556906668 1.9903287779695518 -0.69465837861970381 0 0.71933979245794832 0.71933979245794832 0 0.69465837861970381 forward_v I I I I #
loop $-1 $-1 $197 $49 #
coedge $-1 $127 $127 $128 $198 reversed $78 $-1 #
coedge $-1 $128 $128 $127 $198 forward $80 $-1 #
coedge $-1 $129 $129 $81 $130 forward $124 $-1 #
edge $-1 $199 0 $199 6.2831853071796004 $129 $200 forward 7 unknown #
loop $-1 $-1 $136 $82 #
plane-surface $-1 -56.569109164708394 29.33708556906668 1.9903287779695518 -0.69465837861970381 0 0.71933979245794832 0.71933979245794832 0 0.69465837861970381 forward_v I I I I #
loop $-1 $-1 $201 $52 #
coedge $-1 $134 $134 $135 $202 reversed $83 $-1 #
coedge $-1 $135 $135 $134 $202 forward $85 $-1 #
coedge $-1 $136 $136 $86 $137 forward $131 $-1 #
edge $-1 $203 0 $203 6.2831853071796004 $136 $204 forward 7 unknown #
face $-1 $205 $206 $29 $-1 $207 forward single #
loop $-1 $-1 $208 $87 #
plane-surface $-1 95.277002570926797 -6.6740659502128317 159.4333895145472 0 1 0 0.85716730853699208 0 0.51503806187062418 forward_v I I I I #
coedge $-1 $209 $210 $211 $212 reversed $88 $-1 #
coedge $-1 $143 $90 $213 $214 reversed $56 $-1 #
coedge $-1 $90 $142 $209 $215 reversed $56 $-1 #
coedge $-1 $211 $216 $90 $145 forward $206 $-1 #
edge $-1 $217 -8.9306078792449952 $218 -5.2413515849416399 $144 $219 forward 7 unknown #
loop $-1 $-1 $151 $91 #
plane-surface $-1 -1.7013795271699763 2.3575528334956672 101.16290082266886 0.85716730853699208 0 0.51503806187062418 0.51503806187062418 0 -0.85716730853699208 forward_v I I I I #
loop $-1 $-1 $220 $58 #
coedge $-1 $149 $149 $150 $221 reversed $92 $-1 #
coedge $-1 $150 $150 $149 $221 forward $94 $-1 #
coedge $-1 $151 $151 $95 $152 forward $146 $-1 #
edge $-1 $222 0 $222 6.2831853071796004 $151 $223 forward 7 unknown #
loop $-1 $-1 $158 $96 #
plane-surface $-1 -1.7013795271699763 2.3575528334956672 101.16290082266886 0.85716730853699208 0 0.51503806187062418 0.51503806187062418 0 -0.85716730853699208 forward_v I I I I #
loop $-1 $-1 $224 $61 #
coedge $-1 $156 $156 $157 $225 reversed $97 $-1 #
coedge $-1 $157 $157 $156 $225 forward $99 $-1 #
coedge $-1 $158 $158 $100 $159 forward $153 $-1 #
edge $-1 $226 0 $226 6.2831853071796004 $158 $227 forward 7 unknown #
face $-1 $228 $229 $24 $-1 $230 reversed single #
loop $-1 $-1 $231 $101 #
plane-surface $-1 -56.569109164708394 0 0 1 0 0 0 0 -1 forward_v I I I I #
coedge $-1 $232 $171 $233 $234 forward $102 $-1 #
coedge $-1 $235 $104 $232 $236 forward $65 $-1 #
coedge $-1 $104 $235 $237 $238 forward $65 $-1 #
coedge $-1 $174 $173 $104 $167 reversed $175 $-1 #
edge $-1 $239 -36.235512322094316 $240 36.235512322094316 $166 $241 forward 7 unknown #
coedge $-1 $106 $105 $242 $243 forward $41 $-1 #
coedge $-1 $244 $245 $105 $170 reversed $229 $-1 #
edge $-1 $177 -56.569109164708394 $246 56.569109164708394 $169 $247 forward 7 unknown #
coedge $-1 $163 $248 $106 $172 reversed $102 $-1 #
edge $-1 $249 -56.569109164708394 $176 56.569109164708394 $171 $250 forward 7 unknown #
coedge $-1 $166 $107 $248 $251 forward $175 $-1 #
coedge $-1 $107 $166 $244 $252 reversed $175 $-1 #
loop $-1 $-1 $173 $228 #
vertex $-1 $108 $253 #
vertex $-1 $108 $254 #
straight-curve $-1 56.569109164708394 0 10.324472491883204 0 1 0 I I #
face $-1 $-1 $255 $25 $-1 $256 reversed single #
loop $-1 $-1 $257 $109 #
plane-surface $-1 0 36.235512322094316 0 0 -1 0 0 0 -1 forward_v I I I I #
coedge $-1 $258 $112 $114 $188 forward $69 $-1 #
coedge $-1 $112 $258 $257 $259 reversed $69 $-1 #
coedge $-1 $260 $115 $112 $185 forward $110 $-1 #
edge $-1 $191 7.7701160315057045 $261 21.566969537560976 $184 $262 forward 7 unknown #
coedge $-1 $263 $264 $113 $187 forward $255 $-1 #
edge $-1 $265 -39.697246857087585 $190 -31.36310314317393 $186 $266 forward 7 unknown #
edge $-1 $191 -11.997470944601169 $265 0 $114 $267 forward 7 unknown #
coedge $-1 $115 $260 $263 $268 forward $110 $-1 #
vertex $-1 $187 $269 #
vertex $-1 $116 $270 #
straight-curve $-1 -67.580760234671558 22.438658816039045 10.324472491883206 1 0 0 I I #
coedge $-1 $193 $193 $-1 $271 reversed $119 $-1 #
edge $-1 $272 0 $272 6.2831853071796004 $120 $273 forward 7 unknown #
vertex $-1 $123 $274 #
ellipse-curve $-1 -52.253980035053559 25.198029517250099 6.1574006349263781 -0.69465837861970381 0 0.71933979245794832 0.71933979245794832 0 0.69465837861970381 1 I I #
coedge $-1 $197 $197 $-1 $275 reversed $126 $-1 #
edge $-1 $276 0 $276 6.2831853071796004 $127 $277 forward 7 unknown #
vertex $-1 $130 $278 #
ellipse-curve $-1 -52.253980035053559 29.33708556906668 6.1574006349263781 -0.69465837861970381 0 0.71933979245794832 0.71933979245794832 0 0.69465837861970381 1 I I #
coedge $-1 $201 $201 $-1 $279 reversed $133 $-1 #
edge $-1 $280 0 $280 6.2831853071796004 $134 $281 forward 7 unknown #
vertex $-1 $137 $282 #
ellipse-curve $-1 -52.253980035053559 33.476141620883261 6.1574006349263781 -0.69465837861970381 0 0.71933979245794832 0.71933979245794832 0 0.69465837861970381 1 I I #
face $-1 $-1 $283 $29 $-1 $284 reversed single #
loop $-1 $-1 $144 $138 #
plane-surface $-1 0 0 10.324472491883204 0 0 1 1 0 0 forward_v I I I I #
coedge $-1 $285 $286 $287 $288 reversed $139 $-1 #
coedge $-1 $289 $141 $143 $215 forward $88 $-1 #
coedge $-1 $141 $289 $285 $290 forward $88 $-1 #
coedge $-1 $287 $144 $141 $212 forward $206 $-1 #
edge $-1 $218 -10.210395200456333 $291 7.8528423669606653 $211 $292 forward 7 unknown #
coedge $-1 $293 $294 $142 $214 forward $283 $-1 #
edge $-1 $295 -75.532176032701543 $217 -69.392222265390402 $213 $296 forward 7 unknown #
edge $-1 $218 105.97514327258719 $295 113.13821832941684 $143 $297 forward 7 unknown #
coedge $-1 $144 $287 $293 $298 forward $206 $-1 #
vertex $-1 $214 $299 #
vertex $-1 $145 $300 #
straight-curve $-1 47.638501285463398 11.389171617204166 10.324472491883199 -1 0 0 I I #
coedge $-1 $220 $220 $-1 $301 reversed $148 $-1 #
edge $-1 $302 0 $302 6.2831853071796004 $149 $303 forward 7 unknown #
vertex $-1 $152 $304 #
ellipse-curve $-1 54.724481017556705 -1.5131409309508328 7.2544956082276322 0.85716730853699208 0 0.51503806187062418 0.51503806187062418 0 -0.85716730853699208 1 I I #
coedge $-1 $224 $224 $-1 $305 reversed $155 $-1 #
edge $-1 $306 0 $306 6.2831853071796004 $156 $307 forward 7 unknown #
vertex $-1 $159 $308 #
ellipse-curve $-1 54.724481017556705 6.2282465979421673 7.2544956082276322 0.85716730853699208 0 0.51503806187062418 0.51503806187062418 0 -0.85716730853699208 1 I I #
face $-1 $-1 $175 $24 $-1 $309 reversed single #
loop $-1 $-1 $244 $160 #
plane-surface $-1 0 36.235512322094316 0 0 -1 0 0 0 -1 forward_v I I I I #
coedge $-1 $310 $242 $245 $311 forward $161 $-1 #
coedge $-1 $248 $163 $164 $236 reversed $102 $-1 #
coedge $-1 $242 $310 $163 $234 reversed $161 $-1 #
edge $-1 $249 -10.324472491883204 $312 10.324472491883204 $233 $313 forward 7 unknown #
coedge $-1 $165 $164 $310 $314 forward $65 $-1 #
edge $-1 $240 -56.569109164708394 $312 56.569109164708394 $232 $315 forward 7 unknown #
coedge $-1 $245 $244 $165 $238 reversed $229 $-1 #
edge $-1 $316 -56.569109164708394 $239 56.569109164708394 $237 $317 forward 7 unknown #
vertex $-1 $167 $318 #
vertex $-1 $251 $319 #
straight-curve $-1 56.569109164708394 0 -10.324472491883204 0 -1 0 I I #
coedge $-1 $231 $233 $168 $243 reversed $161 $-1 #
edge $-1 $246 -36.235512322094316 $249 36.235512322094316 $242 $320 forward 7 unknown #
coedge $-1 $237 $169 $174 $252 forward $229 $-1 #
coedge $-1 $169 $237 $231 $311 reversed $229 $-1 #
vertex $-1 $170 $321 #
straight-curve $-1 0 36.235512322094316 10.324472491883204 -1 0 0 I I #
coedge $-1 $171 $232 $173 $251 reversed $102 $-1 #
vertex $-1 $243 $322 #
straight-curve $-1 0 -36.235512322094316 10.324472491883204 1 0 0 I I #
edge $-1 $176 -10.324472491883204 $240 10.324472491883204 $173 $323 forward 7 unknown #
edge $-1 $177 -10.324472491883204 $239 10.324472491883204 $174 $324 forward 7 unknown #
point $-1 56.569109164708394 -36.235512322094316 10.324472491883204 #
point $-1 56.569109164708394 36.235512322094316 10.324472491883204 #
loop $-1 $-1 $186 $179 #
plane-surface $-1 -56.569109164708394 0 0 1 0 0 0 0 -1 forward_v I I I I #
coedge $-1 $325 $326 $183 $259 forward $180 $-1 #
coedge $-1 $183 $182 $264 $327 reversed $69 $-1 #
edge $-1 $261 7.6574353975227769 $328 19.654906342123944 $257 $329 forward 7 unknown #
coedge $-1 $189 $184 $326 $330 forward $110 $-1 #
vertex $-1 $330 $331 #
straight-curve $-1 -47.938850905398724 14.66854278453334 10.324472491883204 0 1 0 I I #
coedge $-1 $332 $186 $189 $268 reversed $255 $-1 #
coedge $-1 $186 $332 $258 $327 forward $255 $-1 #
vertex $-1 $187 $333 #
straight-curve $-1 -56.569109164708394 22.438658816039045 41.687575635057136 0 0 1 I I #
straight-curve $-1 -56.569109164708394 22.438658816039045 1.9903287779695518 -0.71933979245794832 0 -0.69465837861970381 I I #
edge $-1 $334 -36.235512322094316 $190 -22.438658816039045 $263 $335 forward 7 unknown #
point $-1 -56.569109164708394 22.438658816039045 10.324472491883204 #
point $-1 -47.938850905398724 22.438658816039045 10.324472491883204 #
edge $-1 $336 1 $336 0 $193 $-1 forward 7 unknown #
vertex $-1 $194 $337 #
ellipse-curve $-1 -49.710920235080863 25.198029517250099 3.5239851820595991 -0.69465837861970381 0 0.71933979245794832 0.71933979245794832 0 0.69465837861970381 1 I I #
point $-1 -51.534640242595607 25.198029517250099 6.8520590135460804 #
edge $-1 $338 1 $338 0 $197 $-1 forward 7 unknown #
vertex $-1 $198 $339 #
ellipse-curve $-1 -49.710920235080863 29.33708556906668 3.5239851820595991 -0.69465837861970381 0 0.71933979245794832 0.71933979245794832 0 0.69465837861970381 1 I I #
point $-1 -51.534640242595607 29.33708556906668 6.8520590135460804 #
edge $-1 $340 1 $340 0 $201 $-1 forward 7 unknown #
vertex $-1 $202 $341 #
ellipse-curve $-1 -49.710920235080863 33.476141620883261 3.5239851820595991 -0.69465837861970381 0 0.71933979245794832 0.71933979245794832 0 0.69465837861970381 1 I I #
point $-1 -51.534640242595607 33.476141620883261 6.8520590135460804 #
loop $-1 $-1 $213 $205 #
plane-surface $-1 56.569109164708394 0 0 -1 0 0 0 0 1 forward_v I I I I #
coedge $-1 $286 $208 $210 $290 reversed $139 $-1 #
coedge $-1 $208 $285 $342 $343 reversed $139 $-1 #
coedge $-1 $216 $211 $208 $288 forward $206 $-1 #
edge $-1 $291 5.2413515849416399 $344 8.9306078792449952 $287 $345 forward 7 unknown #
coedge $-1 $210 $209 $294 $346 reversed $88 $-1 #
edge $-1 $347 -113.13821832941684 $291 -105.97514327258719 $285 $348 forward 7 unknown #
vertex $-1 $212 $349 #
straight-curve $-1 52.879852870405031 1.1787764167478336 10.324472491883199 0 -1 0 I I #
coedge $-1 $342 $213 $216 $298 reversed $283 $-1 #
coedge $-1 $213 $342 $289 $346 forward $283 $-1 #
vertex $-1 $214 $350 #
straight-curve $-1 56.569109164708394 11.389171617204166 79.716694757273601 0 0 1 I I #
straight-curve $-1 -1.7013795271699763 11.389171617204166 101.16290082266886 0.51503806187062418 0 -0.85716730853699208 I I #
edge $-1 $344 -6.6740659502128317 $217 11.389171617204166 $293 $351 forward 7 unknown #
point $-1 56.569109164708394 11.389171617204166 10.324472491883204 #
point $-1 52.879852870405038 11.389171617204166 10.324472491883199 #
edge $-1 $352 1 $352 0 $220 $-1 forward 7 unknown #
vertex $-1 $221 $353 #
ellipse-curve $-1 53.789934000817809 -1.5131409309508328 6.6929631285887377 0.85716730853699208 0 0.51503806187062418 0.51503806187062418 0 -0.85716730853699208 1 I I #
point $-1 55.239519079427353 -1.5131409309508328 6.3973282996906526 #
edge $-1 $354 1 $354 0 $224 $-1 forward 7 unknown #
vertex $-1 $225 $355 #
ellipse-curve $-1 53.789934000817809 6.2282465979421673 6.6929631285887377 0.85716730853699208 0 0.51503806187062418 0.51503806187062418 0 -0.85716730853699208 1 I I #
point $-1 55.239519079427353 6.2282465979421673 6.3973282996906526 #
plane-surface $-1 56.569109164708394 0 0 -1 0 0 0 0 1 forward_v I I I I #
coedge $-1 $233 $231 $235 $314 reversed $161 $-1 #
edge $-1 $246 -10.324472491883204 $316 10.324472491883204 $245 $356 forward 7 unknown #
vertex $-1 $314 $357 #
straight-curve $-1 -56.569109164708394 -36.235512322094316 0 0 0 -1 I I #
edge $-1 $312 -36.235512322094316 $316 36.235512322094316 $310 $358 forward 7 unknown #
straight-curve $-1 0 -36.235512322094316 -10.324472491883204 -1 0 0 I I #
vertex $-1 $238 $359 #
straight-curve $-1 0 36.235512322094316 -10.324472491883204 1 0 0 I I #
point $-1 56.569109164708394 36.235512322094316 -10.324472491883204 #
point $-1 56.569109164708394 -36.235512322094316 -10.324472491883204 #
straight-curve $-1 -56.569109164708394 0 10.324472491883204 0 -1 0 I I #
point $-1 -56.569109164708394 36.235512322094316 10.324472491883204 #
point $-1 -56.569109164708394 -36.235512322094316 10.324472491883204 #
straight-curve $-1 56.569109164708394 -36.235512322094316 0 0 0 -1 I I #
straight-curve $-1 56.569109164708394 36.235512322094316 0 0 0 -1 I I #
coedge $-1 $326 $257 $332 $360 reversed $180 $-1 #
coedge $-1 $257 $325 $260 $330 reversed $180 $-1 #
edge $-1 $328 -21.566969537560976 $265 -7.7701160315057045 $264 $361 forward 7 unknown #
vertex $-1 $259 $362 #
straight-curve $-1 -42.430552915784546 36.235512322094316 15.643774149511508 -0.71933979245794832 0 -0.69465837861970381 I I #
edge $-1 $261 47.938850905398724 $334 56.569109164708394 $326 $363 forward 7 unknown #
point $-1 -47.938850905398724 36.235512322094316 10.324472491883204 #
coedge $-1 $264 $263 $325 $360 forward $255 $-1 #
point $-1 -56.569109164708394 22.438658816039045 1.9903287779695518 #
vertex $-1 $330 $364 #
straight-curve $-1 -56.569109164708394 0 10.324472491883204 0 -1 0 I I #
vertex $-1 $271 $365 #
point $-1 -48.991580442622912 25.198029517250099 4.2186435606793022 #
vertex $-1 $275 $366 #
point $-1 -48.991580442622912 29.33708556906668 4.2186435606793022 #
vertex $-1 $279 $367 #
point $-1 -48.991580442622912 33.476141620883261 4.2186435606793022 #
coedge $-1 $294 $293 $286 $343 forward $283 $-1 #
edge $-1 $344 69.392222265390402 $347 75.532176032701543 $342 $368 forward 7 unknown #
vertex $-1 $298 $369 #
straight-curve $-1 47.638501285463398 -6.6740659502128317 10.324472491883199 1 0 0 I I #
edge $-1 $347 -7.8528423669606653 $295 10.210395200456333 $294 $370 forward 7 unknown #
vertex $-1 $346 $371 #
straight-curve $-1 -1.7013795271699763 -6.6740659502128317 101.16290082266886 -0.51503806187062418 0 0.85716730853699208 I I #
point $-1 52.879852870405038 -6.6740659502128317 10.324472491883199 #
point $-1 56.569109164708394 11.389171617204166 4.1845187245720581 #
straight-curve $-1 56.569109164708394 0 10.324472491883204 0 1 0 I I #
vertex $-1 $301 $372 #
point $-1 54.304972062688435 -1.5131409309508328 5.8357958200517448 #
vertex $-1 $305 $373 #
point $-1 54.304972062688435 6.2282465979421673 5.8357958200517448 #
straight-curve $-1 -56.569109164708394 36.235512322094316 0 0 0 -1 I I #
point $-1 -56.569109164708394 -36.235512322094316 -10.324472491883204 #
straight-curve $-1 -56.569109164708394 0 -10.324472491883204 0 1 0 I I #
point $-1 -56.569109164708394 36.235512322094316 -10.324472491883204 #
edge $-1 $334 -10.324472491883204 $328 -1.9903287779695518 $325 $374 forward 7 unknown #
straight-curve $-1 -56.569109164708394 14.66854278453334 1.9903287779695544 0 -1 0 I I #
point $-1 -56.569109164708394 36.235512322094316 1.9903287779695518 #
straight-curve $-1 0 36.235512322094316 10.324472491883204 -1 0 0 I I #
point $-1 -56.569109164708394 36.235512322094316 10.324472491883204 #
point $-1 -49.016261856461156 25.198029517250099 2.8046453896016512 #
point $-1 -49.016261856461156 29.33708556906668 2.8046453896016512 #
point $-1 -49.016261856461156 33.476141620883261 2.8046453896016512 #
straight-curve $-1 56.569109164708394 -6.6740659502128317 79.716694757273601 0 0 -1 I I #
point $-1 56.569109164708394 -6.6740659502128317 10.324472491883204 #
straight-curve $-1 56.569109164708394 1.1787764167478336 4.1845187245720652 0 1 0 I I #
point $-1 56.569109164708394 -6.6740659502128317 4.1845187245720581 #
point $-1 52.932766692280822 -1.5131409309508328 6.1779250667181129 #
point $-1 52.932766692280822 6.2282465979421673 6.1779250667181129 #
straight-curve $-1 -56.569109164708394 36.235512322094316 0 0 0 -1 I I #
End-of-ACIS-data 