500 0 9 0           
7 Unknown 11 ACIS 5.0 NT 24 Fri Mar 26 17:07:50 1999 
-1 9.9999999999999995e-007 1e-010 
body $-1 $9 $-1 $10 #
body $-1 $11 $-1 $12 #
body $-1 $13 $-1 $14 #
body $-1 $15 $-1 $16 #
body $-1 $17 $-1 $18 #
body $-1 $19 $-1 $20 #
body $-1 $21 $-1 $22 #
body $-1 $23 $-1 $24 #
body $-1 $25 $-1 $26 #
lump $-1 $-1 $27 $0 #
transform $-1 1 0 0 0 1 0 0 0 1 47.636951811273541 29.342076928365508 13.86833337190739 1 rotate no_reflect no_shear #
lump $-1 $-1 $28 $1 #
transform $-1 1 0 0 0 1 0 0 0 1 47.636951811273541 29.342076928365508 13.86833337190739 1 rotate no_reflect no_shear #
lump $-1 $-1 $29 $2 #
transform $-1 1 0 0 0 1 0 0 0 1 47.636951811273541 29.342076928365508 13.86833337190739 1 rotate no_reflect no_shear #
lump $-1 $-1 $30 $3 #
transform $-1 1 0 0 0 1 0 0 0 1 47.636951811273541 29.342076928365508 13.86833337190739 1 rotate no_reflect no_shear #
lump $-1 $-1 $31 $4 #
transform $-1 1 0 0 0 1 0 0 0 1 47.636951811273541 29.342076928365508 13.86833337190739 1 rotate no_reflect no_shear #
lump $-1 $-1 $32 $5 #
transform $-1 1 0 0 0 1 0 0 0 1 47.636951811273541 29.342076928365508 13.86833337190739 1 rotate no_reflect no_shear #
lump $-1 $-1 $33 $6 #
transform $-1 1 0 0 0 1 0 0 0 1 47.636951811273541 29.342076928365508 13.86833337190739 1 rotate no_reflect no_shear #
lump $-1 $-1 $34 $7 #
transform $-1 1 0 0 0 1 0 0 0 1 47.636951811273541 29.342076928365508 13.86833337190739 1 rotate no_reflect no_shear #
lump $-1 $-1 $35 $8 #
transform $-1 1 0 0 0 1 0 0 0 1 47.636951811273541 29.342076928365508 13.86833337190739 1 rotate no_reflect no_shear #
shell $-1 $-1 $-1 $36 $-1 $9 #
shell $-1 $-1 $-1 $37 $-1 $11 #
shell $-1 $-1 $-1 $38 $-1 $13 #
shell $-1 $-1 $-1 $39 $-1 $15 #
shell $-1 $-1 $-1 $40 $-1 $17 #
shell $-1 $-1 $-1 $41 $-1 $19 #
shell $-1 $-1 $-1 $42 $-1 $21 #
shell $-1 $-1 $-1 $43 $-1 $23 #
shell $-1 $-1 $-1 $44 $-1 $25 #
face $-1 $45 $46 $27 $-1 $47 forward single #
face $-1 $48 $49 $28 $-1 $50 forward single #
face $-1 $51 $52 $29 $-1 $53 reversed single #
face $-1 $54 $55 $30 $-1 $56 forward single #
face $-1 $57 $58 $31 $-1 $59 forward single #
face $-1 $60 $61 $32 $-1 $62 forward single #
face $-1 $63 $64 $33 $-1 $65 reversed single #
face $-1 $66 $67 $34 $-1 $68 forward single #
face $-1 $69 $70 $35 $-1 $71 forward single #
face $-1 $72 $73 $27 $-1 $74 reversed single #
loop $-1 $-1 $75 $36 #
plane-surface $-1 0 0 13.86833337190739 0 0 1 1 0 0 forward_v I I I I #
face $-1 $76 $77 $28 $-1 $78 reversed single #
loop $-1 $-1 $79 $37 #
plane-surface $-1 0 -24.536748299319321 -9.0038674652085273 0 0 1 1 0 0 forward_v I I I I #
face $-1 $80 $81 $29 $-1 $82 reversed single #
loop $-1 $-1 $83 $38 #
plane-surface $-1 21.927797975337462 -11.539784915364955 142.70856642992851 0 1 0 0.55919291073839883 0 0.82903756765294845 forward_v I I I I #
face $-1 $84 $85 $30 $-1 $86 forward single #
loop $-1 $87 $88 $39 #
cone-surface $-1 44.820764937868994 -10.301294718445831 11.742862715021644 -0.55919291073839883 0 -0.82903756765294845 0.20725939191323711 0 -0.13979822768459971 1 I I 0 1 0.25 forward I I I I #
face $-1 $89 $90 $31 $-1 $91 forward single #
loop $-1 $92 $93 $40 #
cone-surface $-1 44.820764937868994 -8.4435594230671427 11.742862715021644 -0.55919291073839883 0 -0.82903756765294845 0.20725939191323711 0 -0.13979822768459971 1 I I 0 1 0.25 forward I I I I #
face $-1 $94 $95 $32 $-1 $96 forward single #
loop $-1 $97 $98 $41 #
cone-surface $-1 44.820764937868994 -6.5858241276884542 11.742862715021644 -0.55919291073839883 0 -0.82903756765294845 0.20725939191323711 0 -0.13979822768459971 1 I I 0 1 0.25 forward I I I I #
face $-1 $99 $100 $33 $-1 $101 reversed single #
loop $-1 $-1 $102 $42 #
plane-surface $-1 -96.706640374939269 1.6464654009786077 86.197822820708609 0 1 0 -0.51503808176128008 0 0.85716729658548041 forward_v I I I I #
face $-1 $103 $104 $34 $-1 $105 forward single #
loop $-1 $106 $107 $43 #
cone-surface $-1 -39.508332705673837 4.7474173085589157 8.6017515000025959 0.51503808176128008 0 -0.85716729658548041 0.85716729658548041 0 0.51503808176128008 1 I I 0 1 1 forward I I I I #
face $-1 $108 $109 $35 $-1 $110 forward single #
loop $-1 $111 $112 $44 #
cone-surface $-1 -39.508332705673837 9.3988451699293734 8.6017515000025959 0.51503808176128008 0 -0.85716729658548041 0.85716729658548041 0 0.51503808176128008 1 I I 0 1 1 forward I I I I #
face $-1 $113 $114 $27 $-1 $115 reversed single #
loop $-1 $-1 $116 $45 #
plane-surface $-1 0 0 -13.86833337190739 0 0 1 1 0 0 forward_v I I I I #
coedge $-1 $117 $118 $119 $120 forward $46 $-1 #
face $-1 $121 $122 $28 $-1 $123 reversed single #
loop $-1 $-1 $124 $48 #
plane-surface $-1 0 -24.536748299319321 -12.718821819851305 0 0 1 1 0 0 forward_v I I I I #
coedge $-1 $125 $126 $127 $128 reversed $49 $-1 #
face $-1 $129 $130 $29 $-1 $131 reversed single #
loop $-1 $-1 $132 $51 #
plane-surface $-1 -31.34869350876432 -8.4435594230671427 63.722921109890649 0.55919291073839883 0 0.82903756765294845 0.82903756765294845 0 -0.55919291073839883 forward_v I I I I #
coedge $-1 $133 $134 $135 $136 reversed $52 $-1 #
face $-1 $-1 $137 $30 $-1 $138 forward single #
loop $-1 $139 $140 $54 #
cone-surface $-1 44.471269368657495 -10.301294718445831 11.224714235238551 -0.55919291073839883 0 -0.82903756765294845 0.10362969595661856 0 -0.069899113842299854 1 I I -0.70710678118654746 0.70710678118654746 0.125 forward I I I I #
loop $-1 $-1 $141 $39 #
coedge $-1 $88 $88 $142 $143 reversed $55 $-1 #
face $-1 $-1 $144 $31 $-1 $145 forward single #
loop $-1 $146 $147 $57 #
cone-surface $-1 44.471269368657495 -8.4435594230671427 11.224714235238551 -0.55919291073839883 0 -0.82903756765294845 0.10362969595661856 0 -0.069899113842299854 1 I I -0.70710678118654746 0.70710678118654746 0.125 forward I I I I #
loop $-1 $-1 $148 $40 #
coedge $-1 $93 $93 $149 $150 reversed $58 $-1 #
face $-1 $-1 $151 $32 $-1 $152 forward single #
loop $-1 $153 $154 $60 #
cone-surface $-1 44.471269368657495 -6.5858241276884542 11.224714235238551 -0.55919291073839883 0 -0.82903756765294845 0.10362969595661856 0 -0.069899113842299854 1 I I -0.70710678118654746 0.70710678118654746 0.125 forward I I I I #
loop $-1 $-1 $155 $41 #
coedge $-1 $98 $98 $156 $157 reversed $61 $-1 #
face $-1 $158 $159 $33 $-1 $160 reversed single #
loop $-1 $-1 $161 $63 #
plane-surface $-1 -47.636951811273548 7.073131239244141 4.5321484174243238 -0.51503808176128008 0 0.85716729658548041 0.85716729658548041 0 0.51503808176128008 forward_v I I I I #
coedge $-1 $162 $163 $164 $165 reversed $64 $-1 #
face $-1 $-1 $166 $34 $-1 $167 forward single #
loop $-1 $168 $169 $66 #
cone-surface $-1 -38.891204950123701 4.7474173085589157 7.5746784570466019 0.51503808176128008 0 -0.85716729658548041 0.4285836482927402 0 0.25751904088064004 1 I I -0.70710678118654746 0.70710678118654746 0.5 forward I I I I #
loop $-1 $-1 $170 $43 #
coedge $-1 $107 $107 $171 $172 reversed $67 $-1 #
face $-1 $-1 $173 $35 $-1 $174 forward single #
loop $-1 $175 $176 $69 #
cone-surface $-1 -38.891204950123701 9.3988451699293734 7.5746784570466019 0.51503808176128008 0 -0.85716729658548041 0.4285836482927402 0 0.25751904088064004 1 I I -0.70710678118654746 0.70710678118654746 0.5 forward I I I I #
loop $-1 $-1 $177 $44 #
coedge $-1 $112 $112 $178 $179 reversed $70 $-1 #
face $-1 $180 $181 $27 $-1 $182 reversed single #
loop $-1 $-1 $183 $72 #
plane-surface $-1 0 -29.342076928365508 0 0 1 0 0 0 1 forward_v I I I I #
coedge $-1 $184 $185 $186 $187 forward $73 $-1 #
coedge $-1 $188 $75 $189 $190 forward $46 $-1 #
coedge $-1 $75 $188 $191 $192 forward $46 $-1 #
coedge $-1 $193 $194 $75 $120 reversed $195 $-1 #
edge $-1 $196 -29.342076928365508 $197 29.342076928365508 $119 $198 forward 7 unknown #
face $-1 $199 $200 $28 $-1 $201 reversed single #
loop $-1 $-1 $202 $76 #
plane-surface $-1 0 -19.731419670273134 -10.861344642529916 0 -1 0 0 0 -1 forward_v I I I I #
coedge $-1 $203 $204 $205 $206 reversed $77 $-1 #
coedge $-1 $207 $79 $208 $209 forward $49 $-1 #
coedge $-1 $79 $207 $210 $211 reversed $49 $-1 #
coedge $-1 $212 $213 $79 $128 forward $214 $-1 #
edge $-1 $215 7.4630455206134734 $216 17.073702778705847 $127 $217 forward 7 unknown #
face $-1 $218 $219 $29 $-1 $220 forward single #
loop $-1 $-1 $221 $80 #
plane-surface $-1 21.927797975337462 -5.3473339307693308 142.70856642992851 0 -1 0 -0.55919291073839883 0 -0.82903756765294845 forward_v I I I I #
coedge $-1 $222 $223 $224 $225 reversed $81 $-1 #
coedge $-1 $134 $83 $226 $227 reversed $52 $-1 #
coedge $-1 $83 $133 $222 $228 reversed $52 $-1 #
coedge $-1 $224 $229 $83 $136 forward $230 $-1 #
edge $-1 $231 57.485949843056865 $232 60.907853589175389 $135 $233 forward 7 unknown #
loop $-1 $-1 $142 $84 #
plane-surface $-1 -31.34869350876432 -8.4435594230671427 63.722921109890649 0.55919291073839883 0 0.82903756765294845 0.82903756765294845 0 -0.55919291073839883 forward_v I I I I #
loop $-1 $-1 $234 $54 #
coedge $-1 $140 $140 $141 $235 reversed $85 $-1 #
coedge $-1 $141 $141 $140 $235 forward $87 $-1 #
coedge $-1 $142 $142 $88 $143 forward $137 $-1 #
edge $-1 $236 0 $236 6.2831853071796004 $142 $237 forward 7 unknown #
loop $-1 $-1 $149 $89 #
plane-surface $-1 -31.34869350876432 -8.4435594230671427 63.722921109890649 0.55919291073839883 0 0.82903756765294845 0.82903756765294845 0 -0.55919291073839883 forward_v I I I I #
loop $-1 $-1 $238 $57 #
coedge $-1 $147 $147 $148 $239 reversed $90 $-1 #
coedge $-1 $148 $148 $147 $239 forward $92 $-1 #
coedge $-1 $149 $149 $93 $150 forward $144 $-1 #
edge $-1 $240 0 $240 6.2831853071796004 $149 $241 forward 7 unknown #
loop $-1 $-1 $156 $94 #
plane-surface $-1 -31.34869350876432 -8.4435594230671427 63.722921109890649 0.55919291073839883 0 0.82903756765294845 0.82903756765294845 0 -0.55919291073839883 forward_v I I I I #
loop $-1 $-1 $242 $60 #
coedge $-1 $154 $154 $155 $243 reversed $95 $-1 #
coedge $-1 $155 $155 $154 $243 forward $97 $-1 #
coedge $-1 $156 $156 $98 $157 forward $151 $-1 #
edge $-1 $244 0 $244 6.2831853071796004 $156 $245 forward 7 unknown #
face $-1 $246 $247 $33 $-1 $248 reversed single #
loop $-1 $-1 $249 $99 #
plane-surface $-1 -96.706640374939269 12.499797077509674 86.197822820708609 0 -1 0 0.51503808176128008 0 -0.85716729658548041 forward_v I I I I #
coedge $-1 $250 $251 $252 $253 reversed $100 $-1 #
coedge $-1 $163 $102 $254 $255 reversed $64 $-1 #
coedge $-1 $102 $162 $250 $256 reversed $64 $-1 #
coedge $-1 $252 $257 $102 $165 forward $258 $-1 #
edge $-1 $259 0.71636837619609395 $260 16.254389158056483 $164 $261 forward 7 unknown #
loop $-1 $-1 $171 $103 #
plane-surface $-1 -47.636951811273548 7.073131239244141 4.5321484174243238 -0.51503808176128008 0 0.85716729658548041 0.85716729658548041 0 0.51503808176128008 forward_v I I I I #
loop $-1 $-1 $262 $66 #
coedge $-1 $169 $169 $170 $263 reversed $104 $-1 #
coedge $-1 $170 $170 $169 $263 forward $106 $-1 #
coedge $-1 $171 $171 $107 $172 forward $166 $-1 #
edge $-1 $264 0 $264 6.2831853071796004 $171 $265 forward 7 unknown #
loop $-1 $-1 $178 $108 #
plane-surface $-1 -47.636951811273548 7.073131239244141 4.5321484174243238 -0.51503808176128008 0 0.85716729658548041 0.85716729658548041 0 0.51503808176128008 forward_v I I I I #
loop $-1 $-1 $266 $69 #
coedge $-1 $176 $176 $177 $267 reversed $109 $-1 #
coedge $-1 $177 $177 $176 $267 forward $111 $-1 #
coedge $-1 $178 $178 $112 $179 forward $173 $-1 #
edge $-1 $268 0 $268 6.2831853071796004 $178 $269 forward 7 unknown #
face $-1 $270 $271 $27 $-1 $272 reversed single #
loop $-1 $-1 $273 $113 #
plane-surface $-1 -47.636951811273541 0 0 1 0 0 0 0 -1 forward_v I I I I #
coedge $-1 $274 $191 $275 $276 forward $114 $-1 #
coedge $-1 $277 $116 $274 $278 forward $73 $-1 #
coedge $-1 $116 $277 $279 $280 forward $73 $-1 #
coedge $-1 $194 $193 $116 $187 reversed $195 $-1 #
edge $-1 $281 -29.342076928365508 $282 29.342076928365508 $186 $283 forward 7 unknown #
coedge $-1 $118 $117 $284 $285 forward $46 $-1 #
coedge $-1 $286 $287 $117 $190 reversed $271 $-1 #
edge $-1 $197 -47.636951811273541 $288 47.636951811273541 $189 $289 forward 7 unknown #
coedge $-1 $183 $290 $118 $192 reversed $114 $-1 #
edge $-1 $291 -47.636951811273541 $196 47.636951811273541 $191 $292 forward 7 unknown #
coedge $-1 $186 $119 $290 $293 forward $195 $-1 #
coedge $-1 $119 $186 $286 $294 reversed $195 $-1 #
loop $-1 $-1 $193 $270 #
vertex $-1 $120 $295 #
vertex $-1 $120 $296 #
straight-curve $-1 47.636951811273541 0 13.86833337190739 0 1 0 I I #
face $-1 $297 $298 $28 $-1 $299 reversed single #
loop $-1 $-1 $300 $121 #
plane-surface $-1 -47.636951811273541 0 0 1 0 0 0 0 -1 forward_v I I I I #
coedge $-1 $301 $208 $213 $302 reversed $122 $-1 #
coedge $-1 $303 $124 $304 $305 reversed $77 $-1 #
coedge $-1 $124 $303 $301 $306 forward $77 $-1 #
coedge $-1 $213 $212 $124 $206 forward $214 $-1 #
edge $-1 $307 -17.073702778705847 $308 -7.4630455206134734 $205 $309 forward 7 unknown #
coedge $-1 $126 $125 $300 $310 reversed $49 $-1 #
coedge $-1 $202 $311 $125 $209 reversed $122 $-1 #
edge $-1 $215 -47.636951811273541 $312 47.636951811273541 $208 $313 forward 7 unknown #
coedge $-1 $314 $315 $126 $211 forward $298 $-1 #
edge $-1 $216 -47.636951811273541 $316 47.636951811273541 $210 $317 forward 7 unknown #
coedge $-1 $205 $127 $315 $318 forward $214 $-1 #
coedge $-1 $127 $205 $202 $302 forward $214 $-1 #
loop $-1 $-1 $127 $297 #
vertex $-1 $128 $319 #
vertex $-1 $318 $320 #
straight-curve $-1 47.636951811273541 -12.26837414965966 -9.0038674652085273 0 -1 0 I I #
face $-1 $-1 $230 $29 $-1 $321 reversed single #
loop $-1 $-1 $322 $129 #
plane-surface $-1 0 0 13.86833337190739 0 0 1 1 0 0 forward_v I I I I #
coedge $-1 $323 $324 $325 $326 reversed $130 $-1 #
coedge $-1 $327 $132 $134 $228 forward $81 $-1 #
coedge $-1 $132 $327 $323 $328 forward $81 $-1 #
coedge $-1 $325 $135 $132 $225 forward $230 $-1 #
edge $-1 $232 -7.3180052038313832 $329 -1.1255542192357595 $224 $330 forward 7 unknown #
coedge $-1 $331 $332 $133 $227 forward $219 $-1 #
edge $-1 $333 31.599871987534161 $231 36.673052823604806 $226 $334 forward 7 unknown #
edge $-1 $232 -95.273903622547081 $333 -89.154541805888869 $134 $335 forward 7 unknown #
coedge $-1 $135 $325 $331 $336 reversed $230 $-1 #
loop $-1 $-1 $325 $218 #
vertex $-1 $336 $337 #
vertex $-1 $136 $338 #
straight-curve $-1 47.636951811273541 -11.539784915364955 71.354283214964255 0 0 -1 I I #
coedge $-1 $234 $234 $-1 $339 reversed $139 $-1 #
edge $-1 $340 0 $340 6.2831853071796004 $140 $341 forward 7 unknown #
vertex $-1 $143 $342 #
ellipse-curve $-1 45.100361393238202 -10.301294718445831 12.157381498848135 0.55919291073839883 0 0.82903756765294845 0.20725939191323711 0 -0.13979822768459971 1 I I #
coedge $-1 $238 $238 $-1 $343 reversed $146 $-1 #
edge $-1 $344 0 $344 6.2831853071796004 $147 $345 forward 7 unknown #
vertex $-1 $150 $346 #
ellipse-curve $-1 45.100361393238202 -8.4435594230671427 12.157381498848135 0.55919291073839883 0 0.82903756765294845 0.20725939191323711 0 -0.13979822768459971 1 I I #
coedge $-1 $242 $242 $-1 $347 reversed $153 $-1 #
edge $-1 $348 0 $348 6.2831853071796004 $154 $349 forward 7 unknown #
vertex $-1 $157 $350 #
ellipse-curve $-1 45.100361393238202 -6.5858241276884542 12.157381498848135 0.55919291073839883 0 0.82903756765294845 0.20725939191323711 0 -0.13979822768459971 1 I I #
face $-1 $-1 $258 $33 $-1 $351 forward single #
loop $-1 $-1 $352 $158 #
plane-surface $-1 -47.636951811273541 0 0 1 0 0 0 0 -1 forward_v I I I I #
coedge $-1 $353 $354 $355 $356 reversed $159 $-1 #
coedge $-1 $357 $161 $163 $256 forward $100 $-1 #
coedge $-1 $161 $357 $353 $358 forward $100 $-1 #
coedge $-1 $355 $164 $161 $253 forward $258 $-1 #
edge $-1 $260 -1.8901002186434628 $359 8.9632314578876038 $252 $360 forward 7 unknown #
coedge $-1 $361 $362 $162 $255 forward $247 $-1 #
edge $-1 $363 -38.566762992929974 $259 -29.230578038446914 $254 $364 forward 7 unknown #
edge $-1 $260 -18.127174057801771 $363 -8.3777685069199533e-015 $163 $365 forward 7 unknown #
coedge $-1 $164 $355 $361 $366 forward $258 $-1 #
loop $-1 $-1 $355 $246 #
vertex $-1 $255 $367 #
vertex $-1 $165 $368 #
straight-curve $-1 -48.353320187469635 1.6464654009786077 13.86833337190739 1 0 0 I I #
coedge $-1 $262 $262 $-1 $369 reversed $168 $-1 #
edge $-1 $370 0 $370 6.2831853071796004 $169 $371 forward 7 unknown #
vertex $-1 $172 $372 #
ellipse-curve $-1 -39.867941420343342 4.7474173085589157 9.2002408946658605 -0.51503808176128008 0 0.85716729658548041 0.85716729658548041 0 0.51503808176128008 1 I I #
coedge $-1 $266 $266 $-1 $373 reversed $175 $-1 #
edge $-1 $374 0 $374 6.2831853071796004 $176 $375 forward 7 unknown #
vertex $-1 $179 $376 #
ellipse-curve $-1 -39.867941420343342 9.3988451699293734 9.2002408946658605 -0.51503808176128008 0 0.85716729658548041 0.85716729658548041 0 0.51503808176128008 1 I I #
face $-1 $-1 $195 $27 $-1 $377 reversed single #
loop $-1 $-1 $286 $180 #
plane-surface $-1 0 29.342076928365508 0 0 -1 0 0 0 -1 forward_v I I I I #
coedge $-1 $378 $284 $287 $379 forward $181 $-1 #
coedge $-1 $290 $183 $184 $278 reversed $114 $-1 #
coedge $-1 $284 $378 $183 $276 reversed $181 $-1 #
edge $-1 $291 -13.86833337190739 $380 13.86833337190739 $275 $381 forward 7 unknown #
coedge $-1 $185 $184 $378 $382 forward $73 $-1 #
edge $-1 $282 -47.636951811273541 $380 47.636951811273541 $274 $383 forward 7 unknown #
coedge $-1 $287 $286 $185 $280 reversed $271 $-1 #
edge $-1 $384 -47.636951811273541 $281 47.636951811273541 $279 $385 forward 7 unknown #
vertex $-1 $187 $386 #
vertex $-1 $293 $387 #
straight-curve $-1 47.636951811273541 0 -13.86833337190739 0 -1 0 I I #
coedge $-1 $273 $275 $188 $285 reversed $181 $-1 #
edge $-1 $288 -29.342076928365508 $291 29.342076928365508 $284 $388 forward 7 unknown #
coedge $-1 $279 $189 $194 $294 forward $271 $-1 #
coedge $-1 $189 $279 $273 $379 reversed $271 $-1 #
vertex $-1 $190 $389 #
straight-curve $-1 0 29.342076928365508 13.86833337190739 -1 0 0 I I #
coedge $-1 $191 $274 $193 $293 reversed $114 $-1 #
vertex $-1 $285 $390 #
straight-curve $-1 0 -29.342076928365508 13.86833337190739 1 0 0 I I #
edge $-1 $196 -13.86833337190739 $282 13.86833337190739 $193 $391 forward 7 unknown #
edge $-1 $197 -13.86833337190739 $281 13.86833337190739 $194 $392 forward 7 unknown #
point $-1 47.636951811273541 -29.342076928365508 13.86833337190739 #
point $-1 47.636951811273541 29.342076928365508 13.86833337190739 #
face $-1 $-1 $214 $28 $-1 $393 reversed single #
loop $-1 $-1 $210 $199 #
plane-surface $-1 0 -29.342076928365508 0 0 1 0 0 0 1 forward_v I I I I #
coedge $-1 $394 $395 $207 $310 forward $200 $-1 #
coedge $-1 $311 $202 $204 $306 reversed $122 $-1 #
edge $-1 $308 -7.2881494985863471 $215 -3.5731951439435692 $213 $396 forward 7 unknown #
coedge $-1 $204 $203 $397 $398 reversed $77 $-1 #
coedge $-1 $315 $314 $203 $305 forward $298 $-1 #
edge $-1 $399 -47.636951811273541 $307 47.636951811273541 $304 $400 forward 7 unknown #
edge $-1 $401 -47.636951811273541 $308 47.636951811273541 $301 $402 forward 7 unknown #
vertex $-1 $305 $403 #
vertex $-1 $206 $404 #
straight-curve $-1 47.636951811273541 -12.26837414965966 -12.718821819851305 0 1 0 I I #
edge $-1 $316 -17.073702778705847 $312 -7.4630455206134734 $300 $405 forward 7 unknown #
coedge $-1 $208 $301 $394 $406 reversed $122 $-1 #
vertex $-1 $310 $407 #
straight-curve $-1 0 -19.731419670273134 -9.0038674652085273 -1 0 0 I I #
coedge $-1 $304 $210 $395 $408 forward $298 $-1 #
coedge $-1 $210 $304 $212 $318 reversed $298 $-1 #
vertex $-1 $408 $409 #
straight-curve $-1 0 -29.342076928365508 -9.0038674652085273 -1 0 0 I I #
edge $-1 $216 9.0038674652085273 $307 12.718821819851305 $212 $410 forward 7 unknown #
point $-1 47.636951811273541 -19.731419670273134 -9.0038674652085273 #
point $-1 47.636951811273541 -29.342076928365508 -9.0038674652085273 #
plane-surface $-1 47.636951811273541 0 0 -1 0 0 0 0 1 forward_v I I I I #
coedge $-1 $332 $331 $324 $411 forward $219 $-1 #
coedge $-1 $324 $221 $223 $328 reversed $130 $-1 #
coedge $-1 $221 $323 $322 $411 reversed $130 $-1 #
coedge $-1 $229 $224 $221 $326 forward $230 $-1 #
edge $-1 $329 -60.907853589175389 $412 -57.485949843056865 $325 $413 forward 7 unknown #
coedge $-1 $223 $222 $332 $414 reversed $81 $-1 #
edge $-1 $415 89.154541805888869 $329 95.273903622547081 $323 $416 forward 7 unknown #
vertex $-1 $225 $417 #
straight-curve $-1 47.636951811273541 -4.2217797115335713 10.446429625788866 0 1 0 I I #
coedge $-1 $322 $226 $229 $336 forward $219 $-1 #
coedge $-1 $226 $322 $327 $414 forward $219 $-1 #
vertex $-1 $227 $418 #
straight-curve $-1 10.963898987668731 -11.539784915364955 13.868333371907397 1 0 0 I I #
straight-curve $-1 -31.34869350876432 -11.539784915364955 63.722921109890649 -0.82903756765294845 0 0.55919291073839883 I I #
edge $-1 $231 -11.539784915364955 $412 -5.3473339307693308 $229 $419 forward 7 unknown #
point $-1 47.636951811273541 -11.539784915364955 13.86833337190739 #
point $-1 47.636951811273541 -11.539784915364955 10.446429625788866 #
edge $-1 $420 1 $420 0 $234 $-1 forward 7 unknown #
vertex $-1 $235 $421 #
ellipse-curve $-1 44.541168482499792 -10.301294718445831 11.328343931195169 0.55919291073839883 0 0.82903756765294845 0.20725939191323711 0 -0.13979822768459971 1 I I #
point $-1 45.307620785151428 -10.301294718445831 12.017583271163518 #
edge $-1 $422 1 $422 0 $238 $-1 forward 7 unknown #
vertex $-1 $239 $423 #
ellipse-curve $-1 44.541168482499792 -8.4435594230671427 11.328343931195169 0.55919291073839883 0 0.82903756765294845 0.20725939191323711 0 -0.13979822768459971 1 I I #
point $-1 45.307620785151428 -8.4435594230671427 12.017583271163518 #
edge $-1 $424 1 $424 0 $242 $-1 forward 7 unknown #
vertex $-1 $243 $425 #
ellipse-curve $-1 44.541168482499792 -6.5858241276884542 11.328343931195169 0.55919291073839883 0 0.82903756765294845 0.20725939191323711 0 -0.13979822768459971 1 I I #
point $-1 45.307620785151428 -6.5858241276884542 12.017583271163518 #
plane-surface $-1 0 0 13.86833337190739 0 0 1 1 0 0 forward_v I I I I #
coedge $-1 $362 $361 $354 $426 forward $247 $-1 #
coedge $-1 $354 $249 $251 $358 reversed $159 $-1 #
coedge $-1 $249 $353 $352 $426 reversed $159 $-1 #
coedge $-1 $257 $252 $249 $356 forward $258 $-1 #
edge $-1 $359 -16.254389158056483 $427 -0.71636837619609395 $355 $428 forward 7 unknown #
coedge $-1 $251 $250 $362 $429 reversed $100 $-1 #
edge $-1 $430 8.3777685069199533e-015 $359 18.127174057801771 $353 $431 forward 7 unknown #
vertex $-1 $253 $432 #
straight-curve $-1 -32.098931029413151 3.5365656196220705 13.86833337190739 0 1 0 I I #
coedge $-1 $352 $254 $257 $366 reversed $247 $-1 #
coedge $-1 $254 $352 $357 $429 forward $247 $-1 #
vertex $-1 $255 $433 #
straight-curve $-1 -47.636951811273541 1.6464654009786077 43.098911410354305 0 0 1 I I #
straight-curve $-1 -47.636951811273548 1.6464654009786077 4.5321484174243238 -0.85716729658548041 0 -0.51503808176128008 I I #
edge $-1 $427 -12.499797077509674 $259 -1.6464654009786077 $361 $434 forward 7 unknown #
point $-1 -47.636951811273541 1.6464654009786077 13.86833337190739 #
point $-1 -32.098931029413151 1.6464654009786077 13.868333371907388 #
edge $-1 $435 1 $435 0 $262 $-1 forward 7 unknown #
vertex $-1 $263 $436 #
ellipse-curve $-1 -39.148723991004339 4.7474173085589157 8.003262105339342 -0.51503808176128008 0 0.85716729658548041 0.85716729658548041 0 0.51503808176128008 1 I I #
point $-1 -39.010774123757855 4.7474173085589157 9.7152789764271326 #
edge $-1 $437 1 $437 0 $266 $-1 forward 7 unknown #
vertex $-1 $267 $438 #
ellipse-curve $-1 -39.148723991004339 9.3988451699293734 8.003262105339342 -0.51503808176128008 0 0.85716729658548041 0.85716729658548041 0 0.51503808176128008 1 I I #
point $-1 -39.010774123757855 9.3988451699293734 9.7152789764271326 #
plane-surface $-1 47.636951811273541 0 0 -1 0 0 0 0 1 forward_v I I I I #
coedge $-1 $275 $273 $277 $382 reversed $181 $-1 #
edge $-1 $288 -13.86833337190739 $384 13.86833337190739 $287 $439 forward 7 unknown #
vertex $-1 $382 $440 #
straight-curve $-1 -47.636951811273541 -29.342076928365508 0 0 0 -1 I I #
edge $-1 $380 -29.342076928365508 $384 29.342076928365508 $378 $441 forward 7 unknown #
straight-curve $-1 0 -29.342076928365508 -13.86833337190739 -1 0 0 I I #
vertex $-1 $280 $442 #
straight-curve $-1 0 29.342076928365508 -13.86833337190739 1 0 0 I I #
point $-1 47.636951811273541 29.342076928365508 -13.86833337190739 #
point $-1 47.636951811273541 -29.342076928365508 -13.86833337190739 #
straight-curve $-1 -47.636951811273541 0 13.86833337190739 0 -1 0 I I #
point $-1 -47.636951811273541 29.342076928365508 13.86833337190739 #
point $-1 -47.636951811273541 -29.342076928365508 13.86833337190739 #
straight-curve $-1 47.636951811273541 -29.342076928365508 0 0 0 -1 I I #
straight-curve $-1 47.636951811273541 29.342076928365508 0 0 0 -1 I I #
plane-surface $-1 47.636951811273541 0 0 -1 0 0 0 0 1 forward_v I I I I #
coedge $-1 $397 $300 $311 $406 forward $200 $-1 #
coedge $-1 $300 $397 $314 $408 reversed $200 $-1 #
straight-curve $-1 47.636951811273541 -19.731419670273134 -5.4306723212649581 0 0 1 I I #
coedge $-1 $395 $394 $303 $398 forward $200 $-1 #
edge $-1 $401 7.4630455206134734 $399 17.073702778705847 $397 $443 forward 7 unknown #
vertex $-1 $305 $444 #
straight-curve $-1 0 -29.342076928365508 -12.718821819851305 1 0 0 I I #
vertex $-1 $398 $445 #
straight-curve $-1 0 -19.731419670273134 -12.718821819851305 1 0 0 I I #
point $-1 47.636951811273541 -29.342076928365508 -12.718821819851305 #
point $-1 47.636951811273541 -19.731419670273134 -12.718821819851305 #
straight-curve $-1 -47.636951811273541 -12.26837414965966 -9.0038674652085273 0 1 0 I I #
edge $-1 $312 3.5731951439435692 $401 7.2881494985863471 $394 $446 forward 7 unknown #
point $-1 -47.636951811273541 -19.731419670273134 -9.0038674652085273 #
edge $-1 $316 9.0038674652085273 $399 12.718821819851305 $395 $447 forward 7 unknown #
point $-1 -47.636951811273541 -29.342076928365508 -9.0038674652085273 #
straight-curve $-1 47.636951811273541 -29.342076928365508 0 0 0 -1 I I #
edge $-1 $412 -36.673052823604806 $415 -31.599871987534161 $322 $448 forward 7 unknown #
vertex $-1 $411 $449 #
straight-curve $-1 47.636951811273541 -5.3473339307693308 71.354283214964255 0 0 1 I I #
edge $-1 $415 1.1255542192357595 $333 7.3180052038313832 $332 $450 forward 7 unknown #
vertex $-1 $414 $451 #
straight-curve $-1 -31.34869350876432 -5.3473339307693308 63.722921109890649 0.82903756765294845 0 -0.55919291073839883 I I #
point $-1 47.636951811273541 -5.3473339307693308 10.446429625788866 #
point $-1 42.563770975202893 -11.539784915364955 13.86833337190739 #
straight-curve $-1 47.636951811273541 0 13.86833337190739 0 1 0 I I #
vertex $-1 $339 $452 #
point $-1 44.748427874413032 -10.301294718445831 11.18854570351057 #
vertex $-1 $343 $453 #
point $-1 44.748427874413032 -8.4435594230671427 11.18854570351057 #
vertex $-1 $347 $454 #
point $-1 44.748427874413032 -6.5858241276884542 11.18854570351057 #
edge $-1 $427 29.230578038446914 $430 38.566762992929974 $352 $455 forward 7 unknown #
vertex $-1 $366 $456 #
straight-curve $-1 -48.353320187469635 12.499797077509674 13.86833337190739 -1 0 0 I I #
edge $-1 $430 -8.9632314578876038 $363 1.8901002186434628 $362 $457 forward 7 unknown #
vertex $-1 $429 $458 #
straight-curve $-1 -47.636951811273548 12.499797077509674 4.5321484174243238 0.85716729658548041 0 0.51503808176128008 I I #
point $-1 -32.098931029413151 12.499797077509674 13.868333371907388 #
point $-1 -47.636951811273541 1.6464654009786077 4.5321484174243283 #
straight-curve $-1 -47.636951811273541 0 13.86833337190739 0 -1 0 I I #
vertex $-1 $369 $459 #
point $-1 -38.291556694418858 4.7474173085589157 8.518300187100623 #
vertex $-1 $373 $460 #
point $-1 -38.291556694418858 9.3988451699293734 8.518300187100623 #
straight-curve $-1 -47.636951811273541 29.342076928365508 0 0 0 -1 I I #
point $-1 -47.636951811273541 -29.342076928365508 -13.86833337190739 #
straight-curve $-1 -47.636951811273541 0 -13.86833337190739 0 1 0 I I #
point $-1 -47.636951811273541 29.342076928365508 -13.86833337190739 #
straight-curve $-1 -47.636951811273541 -12.26837414965966 -12.718821819851305 0 -1 0 I I #
point $-1 -47.636951811273541 -29.342076928365508 -12.718821819851305 #
point $-1 -47.636951811273541 -19.731419670273134 -12.718821819851305 #
straight-curve $-1 -47.636951811273541 -19.731419670273134 -5.4306723212649581 0 0 -1 I I #
straight-curve $-1 -47.636951811273541 -29.342076928365508 0 0 0 -1 I I #
straight-curve $-1 10.963898987668731 -5.3473339307693308 13.868333371907397 -1 0 0 I I #
point $-1 47.636951811273541 -5.3473339307693308 13.86833337190739 #
straight-curve $-1 42.5637709752029 -4.2217797115335713 13.86833337190739 0 -1 0 I I #
point $-1 42.563770975202893 -5.3473339307693308 13.86833337190739 #
point $-1 44.401370254815198 -10.301294718445831 11.121084539281933 #
point $-1 44.401370254815198 -8.4435594230671427 11.121084539281933 #
point $-1 44.401370254815198 -6.5858241276884542 11.121084539281933 #
straight-curve $-1 -47.636951811273541 12.499797077509674 43.098911410354305 0 0 -1 I I #
point $-1 -47.636951811273541 12.499797077509674 13.86833337190739 #
straight-curve $-1 -47.636951811273541 3.5365656196220705 4.5321484174243309 0 -1 0 I I #
point $-1 -47.636951811273541 12.499797077509674 4.5321484174243283 #
point $-1 -38.633685909243063 4.7474173085589157 7.1460948087538618 #
point $-1 -38.633685909243063 9.3988451699293734 7.1460948087538618 #
End-of-ACIS-data 