500 0 7 0           
7 Unknown 11 ACIS 5.0 NT 24 Fri Mar 26 15:50:02 1999 
-1 9.9999999999999995e-007 1e-010 
body $-1 $7 $-1 $8 #
body $-1 $9 $-1 $10 #
body $-1 $11 $-1 $12 #
body $-1 $13 $-1 $14 #
body $-1 $15 $-1 $16 #
body $-1 $17 $-1 $18 #
body $-1 $19 $-1 $20 #
lump $-1 $-1 $21 $0 #
transform $-1 1 0 0 0 1 0 0 0 1 58.425855281228067 37.298080330430018 17.433013699044825 1 rotate no_reflect no_shear #
lump $-1 $-1 $22 $1 #
transform $-1 1 0 0 0 1 0 0 0 1 58.425855281228067 37.298080330430018 17.433013699044825 1 rotate no_reflect no_shear #
lump $-1 $-1 $23 $2 #
transform $-1 1 0 0 0 1 0 0 0 1 58.425855281228067 37.298080330430018 17.433013699044825 1 rotate no_reflect no_shear #
lump $-1 $-1 $24 $3 #
transform $-1 1 0 0 0 1 0 0 0 1 58.425855281228067 37.298080330430018 17.433013699044825 1 rotate no_reflect no_shear #
lump $-1 $-1 $25 $4 #
transform $-1 1 0 0 0 1 0 0 0 1 58.425855281228067 37.298080330430018 17.433013699044825 1 rotate no_reflect no_shear #
lump $-1 $-1 $26 $5 #
transform $-1 1 0 0 0 1 0 0 0 1 58.425855281228067 37.298080330430018 17.433013699044825 1 rotate no_reflect no_shear #
lump $-1 $-1 $27 $6 #
transform $-1 1 0 0 0 1 0 0 0 1 58.425855281228067 37.298080330430018 17.433013699044825 1 rotate no_reflect no_shear #
shell $-1 $-1 $-1 $28 $-1 $7 #
shell $-1 $-1 $-1 $29 $-1 $9 #
shell $-1 $-1 $-1 $30 $-1 $11 #
shell $-1 $-1 $-1 $31 $-1 $13 #
shell $-1 $-1 $-1 $32 $-1 $15 #
shell $-1 $-1 $-1 $33 $-1 $17 #
shell $-1 $-1 $-1 $34 $-1 $19 #
face $-1 $35 $36 $21 $-1 $37 forward single #
face $-1 $38 $39 $22 $-1 $40 reversed single #
face $-1 $41 $42 $23 $-1 $43 reversed single #
face $-1 $44 $45 $24 $-1 $46 forward single #
face $-1 $47 $48 $25 $-1 $49 forward single #
face $-1 $50 $51 $26 $-1 $52 reversed single #
face $-1 $53 $54 $27 $-1 $55 forward single #
face $-1 $56 $57 $21 $-1 $58 reversed single #
loop $-1 $-1 $59 $28 #
plane-surface $-1 0 0 17.433013699044825 0 0 1 1 0 0 forward_v I I I I #
face $-1 $60 $61 $22 $-1 $62 reversed single #
loop $-1 $-1 $63 $29 #
plane-surface $-1 -52.017909963806467 0 11.106436987694329 0 0 1 1 0 0 forward_v I I I I #
face $-1 $64 $65 $23 $-1 $66 reversed single #
loop $-1 $-1 $67 $30 #
plane-surface $-1 -21.565869650510365 64.810113400741869 150.17007855687433 -1 0 0 0 0.69465837861970381 0.71933979245794832 forward_v I I I I #
face $-1 $68 $69 $24 $-1 $70 forward single #
loop $-1 $71 $72 $31 #
cone-surface $-1 -38.740223218992149 35.326072262648722 15.504409611589917 0 -0.69465837861970381 -0.71933979245794832 0.5 0 0 1 I I 0 1 0.5 forward I I I I #
face $-1 $73 $74 $25 $-1 $75 forward single #
loop $-1 $76 $77 $32 #
cone-surface $-1 -28.435611077903076 35.326072262648722 15.504409611589917 0 -0.69465837861970381 -0.71933979245794832 0.5 0 0 1 I I 0 1 0.5 forward I I I I #
face $-1 $78 $79 $26 $-1 $80 reversed single #
loop $-1 $-1 $81 $33 #
plane-surface $-1 -3.3322547979988677 -116.99075625200706 94.220518862417904 -1 0 0 0 -0.68199836817093118 0.7313536940579346 forward_v I I I I #
face $-1 $82 $83 $27 $-1 $84 forward single #
loop $-1 $85 $86 $34 #
cone-surface $-1 -17.626345288587267 -31.134576795777924 11.473787243657089 0 0.68199836817093118 -0.7313536940579346 1.5 0 0 1 I I 0 1 1.5 forward I I I I #
face $-1 $87 $88 $21 $-1 $89 reversed single #
loop $-1 $-1 $90 $35 #
plane-surface $-1 0 0 -17.433013699044825 0 0 1 1 0 0 forward_v I I I I #
coedge $-1 $91 $92 $93 $94 forward $36 $-1 #
face $-1 $95 $96 $22 $-1 $97 reversed single #
loop $-1 $-1 $98 $38 #
plane-surface $-1 -45.609964646384867 0 14.269725343369576 -1 0 0 0 0 1 forward_v I I I I #
coedge $-1 $99 $100 $101 $102 forward $39 $-1 #
face $-1 $103 $104 $23 $-1 $105 forward single #
loop $-1 $-1 $106 $41 #
plane-surface $-1 -33.587917148447616 -16.361906397512811 66.113993332520891 0 0.69465837861970381 0.71933979245794832 1 0 0 forward_v I I I I #
coedge $-1 $107 $108 $109 $110 reversed $42 $-1 #
face $-1 $-1 $111 $24 $-1 $112 forward single #
loop $-1 $113 $114 $44 #
cone-surface $-1 -38.740223218992149 34.805078478683946 14.964904767246455 0 -0.69465837861970381 -0.71933979245794832 0.25 0 0 1 I I -0.70710678118654746 0.70710678118654746 0.25 forward I I I I #
loop $-1 $-1 $115 $31 #
coedge $-1 $72 $72 $116 $117 reversed $45 $-1 #
face $-1 $-1 $118 $25 $-1 $119 forward single #
loop $-1 $120 $121 $47 #
cone-surface $-1 -28.435611077903076 34.805078478683946 14.964904767246455 0 -0.69465837861970381 -0.71933979245794832 0.25 0 0 1 I I -0.70710678118654746 0.70710678118654746 0.25 forward I I I I #
loop $-1 $-1 $122 $32 #
coedge $-1 $77 $77 $123 $124 reversed $48 $-1 #
face $-1 $125 $126 $26 $-1 $127 reversed single #
loop $-1 $-1 $128 $50 #
plane-surface $-1 -17.62634528858726 -37.298080330430011 8.7605886855770336 0 -0.68199836817093118 0.7313536940579346 1 0 0 forward_v I I I I #
coedge $-1 $129 $130 $131 $132 reversed $51 $-1 #
face $-1 $-1 $133 $27 $-1 $134 forward single #
loop $-1 $135 $136 $53 #
cone-surface $-1 -17.626345288587267 -29.109592993876554 9.3022580244597997 0 0.68199836817093118 -0.7313536940579346 0.75 0 0 1 I I -0.70710678118654757 0.70710678118654757 0.75 forward I I I I #
loop $-1 $-1 $137 $34 #
coedge $-1 $86 $86 $138 $139 reversed $54 $-1 #
face $-1 $140 $141 $21 $-1 $142 reversed single #
loop $-1 $-1 $143 $56 #
plane-surface $-1 0 -37.298080330430018 0 0 1 0 0 0 1 forward_v I I I I #
coedge $-1 $144 $145 $146 $147 forward $57 $-1 #
coedge $-1 $148 $59 $149 $150 forward $36 $-1 #
coedge $-1 $59 $148 $151 $152 forward $36 $-1 #
coedge $-1 $153 $154 $59 $94 reversed $155 $-1 #
edge $-1 $156 -37.298080330430018 $157 37.298080330430018 $93 $158 forward 7 unknown #
face $-1 $159 $160 $22 $-1 $161 reversed single #
loop $-1 $-1 $162 $60 #
plane-surface $-1 0 37.298080330430018 0 0 -1 0 0 0 -1 forward_v I I I I #
coedge $-1 $101 $163 $164 $165 reversed $61 $-1 #
coedge $-1 $166 $63 $167 $168 reversed $39 $-1 #
coedge $-1 $63 $166 $169 $170 reversed $39 $-1 #
coedge $-1 $171 $98 $63 $102 reversed $61 $-1 #
edge $-1 $172 -37.298080330430018 $173 37.298080330430018 $101 $174 forward 7 unknown #
face $-1 $175 $176 $23 $-1 $177 forward single #
loop $-1 $-1 $178 $64 #
plane-surface $-1 -45.609964646384867 0 14.269725343369576 -1 0 0 0 0 1 forward_v I I I I #
coedge $-1 $179 $180 $181 $182 reversed $65 $-1 #
coedge $-1 $108 $67 $183 $184 reversed $42 $-1 #
coedge $-1 $67 $107 $179 $185 reversed $42 $-1 #
coedge $-1 $181 $186 $67 $110 forward $187 $-1 #
edge $-1 $188 57.652025579392344 $189 60.789893961844243 $109 $190 forward 7 unknown #
loop $-1 $-1 $116 $68 #
plane-surface $-1 -33.587917148447616 -16.361906397512811 66.113993332520891 0 0.69465837861970381 0.71933979245794832 1 0 0 forward_v I I I I #
loop $-1 $-1 $191 $44 #
coedge $-1 $114 $114 $115 $192 reversed $69 $-1 #
coedge $-1 $115 $115 $114 $192 forward $71 $-1 #
coedge $-1 $116 $116 $72 $117 forward $111 $-1 #
edge $-1 $193 5.6373326200733348e-015 $193 6.2831853071796058 $116 $194 forward 7 unknown #
loop $-1 $-1 $123 $73 #
plane-surface $-1 -33.587917148447616 -16.361906397512811 66.113993332520891 0 0.69465837861970381 0.71933979245794832 1 0 0 forward_v I I I I #
loop $-1 $-1 $195 $47 #
coedge $-1 $121 $121 $122 $196 reversed $74 $-1 #
coedge $-1 $122 $122 $121 $196 forward $76 $-1 #
coedge $-1 $123 $123 $77 $124 forward $118 $-1 #
edge $-1 $197 5.6373326200733348e-015 $197 6.2831853071796058 $123 $198 forward 7 unknown #
face $-1 $199 $200 $26 $-1 $201 reversed single #
loop $-1 $-1 $202 $78 #
plane-surface $-1 -31.920435779175651 -116.99075625200706 94.220518862417904 1 0 0 0 0.68199836817093118 -0.7313536940579346 forward_v I I I I #
coedge $-1 $203 $204 $205 $206 reversed $79 $-1 #
coedge $-1 $130 $81 $207 $208 reversed $51 $-1 #
coedge $-1 $81 $129 $203 $209 reversed $51 $-1 #
coedge $-1 $205 $210 $81 $132 forward $211 $-1 #
edge $-1 $212 21.197297795573512 $213 30.497334813331364 $131 $214 forward 7 unknown #
loop $-1 $-1 $138 $82 #
plane-surface $-1 -17.62634528858726 -37.298080330430011 8.7605886855770336 0 -0.68199836817093118 0.7313536940579346 1 0 0 forward_v I I I I #
loop $-1 $-1 $215 $53 #
coedge $-1 $136 $136 $137 $216 reversed $83 $-1 #
coedge $-1 $137 $137 $136 $216 forward $85 $-1 #
coedge $-1 $138 $138 $86 $139 forward $133 $-1 #
edge $-1 $217 8.0764831050682916e-016 $217 6.2831853071796013 $138 $218 forward 7 unknown #
face $-1 $219 $220 $21 $-1 $221 reversed single #
loop $-1 $-1 $222 $87 #
plane-surface $-1 -58.425855281228067 0 0 1 0 0 0 0 -1 forward_v I I I I #
coedge $-1 $223 $151 $224 $225 forward $88 $-1 #
coedge $-1 $226 $90 $223 $227 forward $57 $-1 #
coedge $-1 $90 $226 $228 $229 forward $57 $-1 #
coedge $-1 $154 $153 $90 $147 reversed $155 $-1 #
edge $-1 $230 -37.298080330430018 $231 37.298080330430018 $146 $232 forward 7 unknown #
coedge $-1 $92 $91 $233 $234 forward $36 $-1 #
coedge $-1 $235 $236 $91 $150 reversed $220 $-1 #
edge $-1 $157 -58.425855281228067 $237 58.425855281228067 $149 $238 forward 7 unknown #
coedge $-1 $143 $239 $92 $152 reversed $88 $-1 #
edge $-1 $240 -58.425855281228067 $156 58.425855281228067 $151 $241 forward 7 unknown #
coedge $-1 $146 $93 $239 $242 forward $155 $-1 #
coedge $-1 $93 $146 $235 $243 reversed $155 $-1 #
loop $-1 $-1 $153 $219 #
vertex $-1 $94 $244 #
vertex $-1 $94 $245 #
straight-curve $-1 58.425855281228067 0 17.433013699044825 0 1 0 I I #
face $-1 $246 $247 $22 $-1 $248 forward single #
loop $-1 $-1 $249 $95 #
plane-surface $-1 -58.425855281228067 0 0 1 0 0 0 0 -1 forward_v I I I I #
coedge $-1 $169 $250 $171 $251 forward $96 $-1 #
coedge $-1 $98 $171 $252 $253 reversed $61 $-1 #
coedge $-1 $254 $167 $98 $165 forward $255 $-1 #
edge $-1 $173 3.9715743160095407 $256 10.298151027360033 $164 $257 forward 7 unknown #
coedge $-1 $100 $99 $249 $258 reversed $39 $-1 #
coedge $-1 $164 $259 $99 $168 forward $255 $-1 #
edge $-1 $260 -32.416900299324837 $173 -19.601009664481634 $167 $261 forward 7 unknown #
coedge $-1 $262 $162 $100 $170 forward $96 $-1 #
edge $-1 $172 19.601009664481634 $263 32.416900299324837 $169 $264 forward 7 unknown #
coedge $-1 $163 $101 $162 $251 reversed $61 $-1 #
vertex $-1 $170 $265 #
vertex $-1 $168 $266 #
straight-curve $-1 -45.609964646384867 0 11.106436987694329 0 -1 0 I I #
face $-1 $-1 $187 $23 $-1 $267 reversed single #
loop $-1 $-1 $268 $103 #
plane-surface $-1 0 0 17.433013699044825 0 0 1 1 0 0 forward_v I I I I #
coedge $-1 $269 $270 $180 $271 forward $104 $-1 #
coedge $-1 $272 $106 $108 $185 forward $65 $-1 #
coedge $-1 $106 $272 $178 $271 reversed $65 $-1 #
coedge $-1 $273 $109 $106 $182 forward $187 $-1 #
edge $-1 $189 4.7719110762865569 $274 28.816006072161059 $181 $275 forward 7 unknown #
coedge $-1 $276 $268 $107 $184 forward $176 $-1 #
edge $-1 $277 1.6436658731161913 $188 4.8930236300590835 $183 $278 forward 7 unknown #
edge $-1 $189 -74.596160660860036 $277 -70.079021763483041 $108 $279 forward 7 unknown #
coedge $-1 $109 $273 $276 $280 reversed $187 $-1 #
loop $-1 $-1 $181 $175 #
vertex $-1 $280 $281 #
vertex $-1 $110 $282 #
straight-curve $-1 -21.565869650510365 37.298080330430018 75.085039278437165 0 0 -1 I I #
coedge $-1 $191 $191 $-1 $283 reversed $113 $-1 #
edge $-1 $284 0 $284 6.2831853071796004 $114 $285 forward 7 unknown #
vertex $-1 $117 $286 #
ellipse-curve $-1 -38.740223218992149 35.673401451958561 15.864079507818881 0 0.69465837861970381 0.71933979245794832 0.5 0 0 1 I I #
coedge $-1 $195 $195 $-1 $287 reversed $120 $-1 #
edge $-1 $288 0 $288 6.2831853071796004 $121 $289 forward 7 unknown #
vertex $-1 $124 $290 #
ellipse-curve $-1 -28.435611077903076 35.673401451958561 15.864079507818881 0 0.69465837861970381 0.71933979245794832 0.5 0 0 1 I I #
face $-1 $-1 $211 $26 $-1 $291 forward single #
loop $-1 $-1 $292 $125 #
plane-surface $-1 0 -37.298080330430018 0 0 1 0 0 0 1 forward_v I I I I #
coedge $-1 $293 $294 $295 $296 reversed $126 $-1 #
coedge $-1 $297 $128 $130 $209 forward $79 $-1 #
coedge $-1 $128 $297 $293 $298 forward $79 $-1 #
coedge $-1 $295 $131 $128 $206 forward $211 $-1 #
edge $-1 $213 -5.4809178462947621 $299 23.107263134882022 $205 $300 forward 7 unknown #
coedge $-1 $301 $302 $129 $208 forward $200 $-1 #
edge $-1 $303 -38.349670745631926 $212 -29.677245732164128 $207 $304 forward 7 unknown #
edge $-1 $213 -12.716196135082537 $303 1.0042470408882777e-014 $130 $305 forward 7 unknown #
coedge $-1 $131 $295 $301 $306 forward $211 $-1 #
loop $-1 $-1 $295 $199 #
vertex $-1 $208 $307 #
vertex $-1 $132 $308 #
straight-curve $-1 -3.3322547979988677 -58.49537812600353 17.433013699044821 0 1 0 I I #
coedge $-1 $215 $215 $-1 $309 reversed $135 $-1 #
edge $-1 $310 0 $310 6.2831853071796004 $136 $311 forward 7 unknown #
vertex $-1 $139 $312 #
ellipse-curve $-1 -17.626345288587267 -32.648061821551096 13.096801192310926 0 -0.68199836817093118 0.7313536940579346 1.5 0 0 1 I I #
face $-1 $-1 $155 $21 $-1 $313 reversed single #
loop $-1 $-1 $235 $140 #
plane-surface $-1 0 37.298080330430018 0 0 -1 0 0 0 -1 forward_v I I I I #
coedge $-1 $314 $233 $236 $315 forward $141 $-1 #
coedge $-1 $239 $143 $144 $227 reversed $88 $-1 #
coedge $-1 $233 $314 $143 $225 reversed $141 $-1 #
edge $-1 $240 -17.433013699044825 $316 17.433013699044825 $224 $317 forward 7 unknown #
coedge $-1 $145 $144 $314 $318 forward $57 $-1 #
edge $-1 $231 -58.425855281228067 $316 58.425855281228067 $223 $319 forward 7 unknown #
coedge $-1 $236 $235 $145 $229 reversed $220 $-1 #
edge $-1 $320 -58.425855281228067 $230 58.425855281228067 $228 $321 forward 7 unknown #
vertex $-1 $147 $322 #
vertex $-1 $242 $323 #
straight-curve $-1 58.425855281228067 0 -17.433013699044825 0 -1 0 I I #
coedge $-1 $222 $224 $148 $234 reversed $141 $-1 #
edge $-1 $237 -37.298080330430018 $240 37.298080330430018 $233 $324 forward 7 unknown #
coedge $-1 $228 $149 $154 $243 forward $220 $-1 #
coedge $-1 $149 $228 $222 $315 reversed $220 $-1 #
vertex $-1 $150 $325 #
straight-curve $-1 0 37.298080330430018 17.433013699044825 -1 0 0 I I #
coedge $-1 $151 $223 $153 $242 reversed $88 $-1 #
vertex $-1 $234 $326 #
straight-curve $-1 0 -37.298080330430018 17.433013699044825 1 0 0 I I #
edge $-1 $156 -17.433013699044825 $231 17.433013699044825 $153 $327 forward 7 unknown #
edge $-1 $157 -17.433013699044825 $230 17.433013699044825 $154 $328 forward 7 unknown #
point $-1 58.425855281228067 -37.298080330430018 17.433013699044825 #
point $-1 58.425855281228067 37.298080330430018 17.433013699044825 #
face $-1 $-1 $255 $22 $-1 $329 reversed single #
loop $-1 $-1 $252 $159 #
plane-surface $-1 0 0 17.433013699044825 0 0 1 1 0 0 forward_v I I I I #
coedge $-1 $330 $331 $166 $258 forward $160 $-1 #
coedge $-1 $162 $262 $332 $333 reversed $96 $-1 #
edge $-1 $334 -10.298151027360033 $172 -3.9715743160095407 $162 $335 forward 7 unknown #
coedge $-1 $332 $336 $163 $253 forward $247 $-1 #
edge $-1 $256 -37.298080330430018 $334 37.298080330430018 $252 $337 forward 7 unknown #
coedge $-1 $259 $164 $336 $338 reversed $255 $-1 #
loop $-1 $-1 $164 $246 #
vertex $-1 $165 $339 #
straight-curve $-1 -45.609964646384867 -37.298080330430018 7.1348626716847878 0 0 1 I I #
edge $-1 $263 -37.298080330430018 $260 37.298080330430018 $249 $340 forward 7 unknown #
coedge $-1 $167 $254 $330 $341 forward $255 $-1 #
vertex $-1 $258 $342 #
straight-curve $-1 -26.008954981903234 -37.298080330430018 11.106436987694329 1 0 0 I I #
coedge $-1 $250 $169 $331 $343 reversed $96 $-1 #
vertex $-1 $258 $344 #
straight-curve $-1 -26.008954981903234 37.298080330430018 11.106436987694329 -1 0 0 I I #
point $-1 -45.609964646384867 37.298080330430018 11.106436987694329 #
point $-1 -45.609964646384867 -37.298080330430018 11.106436987694329 #
plane-surface $-1 0 37.298080330430018 0 0 -1 0 0 0 -1 forward_v I I I I #
coedge $-1 $183 $345 $272 $346 forward $176 $-1 #
coedge $-1 $270 $178 $345 $347 reversed $104 $-1 #
coedge $-1 $178 $269 $273 $348 reversed $104 $-1 #
edge $-1 $274 -50.704247913723776 $349 -46.187109016346788 $178 $350 forward 7 unknown #
coedge $-1 $180 $179 $268 $346 reversed $65 $-1 #
coedge $-1 $186 $181 $270 $348 forward $187 $-1 #
vertex $-1 $348 $351 #
straight-curve $-1 -16.793958574223808 37.298080330430011 14.295145316592926 -1 0 0 I I #
coedge $-1 $345 $183 $186 $280 forward $176 $-1 #
vertex $-1 $184 $352 #
straight-curve $-1 -21.565869650510365 32.405056700370935 17.433013699044821 0 1 0 I I #
straight-curve $-1 -21.565869650510365 -16.361906397512811 66.113993332520891 0 -0.71933979245794832 0.69465837861970381 I I #
edge $-1 $188 21.565869650510365 $353 45.609964646384867 $186 $354 forward 7 unknown #
point $-1 -21.565869650510365 37.298080330430018 17.433013699044825 #
point $-1 -21.565869650510365 37.298080330430018 14.295145316592922 #
edge $-1 $355 1 $355 0 $191 $-1 forward 7 unknown #
vertex $-1 $192 $356 #
ellipse-curve $-1 -38.740223218992149 34.978743073338869 15.144739715360943 0 0.69465837861970381 0.71933979245794832 0.5 0 0 1 I I #
point $-1 -38.240223218992149 35.673401451958576 15.864079507818891 #
edge $-1 $357 1 $357 0 $195 $-1 forward 7 unknown #
vertex $-1 $196 $358 #
ellipse-curve $-1 -28.435611077903076 34.978743073338869 15.144739715360943 0 0.69465837861970381 0.71933979245794832 0.5 0 0 1 I I #
point $-1 -27.935611077903076 35.673401451958576 15.864079507818891 #
plane-surface $-1 0 0 17.433013699044825 0 0 1 1 0 0 forward_v I I I I #
coedge $-1 $302 $301 $294 $359 forward $200 $-1 #
coedge $-1 $294 $202 $204 $298 reversed $126 $-1 #
coedge $-1 $202 $293 $292 $359 reversed $126 $-1 #
coedge $-1 $210 $205 $202 $296 forward $211 $-1 #
edge $-1 $299 -30.497334813331364 $360 -21.197297795573512 $295 $361 forward 7 unknown #
coedge $-1 $204 $203 $302 $362 reversed $79 $-1 #
edge $-1 $363 -1.0042470408882777e-014 $299 12.716196135082537 $293 $364 forward 7 unknown #
vertex $-1 $206 $365 #
straight-curve $-1 -8.8131726442936298 -27.998043312672166 17.433013699044825 -1 0 0 I I #
coedge $-1 $292 $207 $210 $306 reversed $200 $-1 #
coedge $-1 $207 $292 $297 $362 forward $200 $-1 #
vertex $-1 $208 $366 #
straight-curve $-1 -3.3322547979988677 -37.298080330430018 47.110259431208952 0 0 1 I I #
straight-curve $-1 -3.3322547979988677 -37.298080330430011 8.7605886855770336 0 -0.7313536940579346 -0.68199836817093118 I I #
edge $-1 $360 -31.920435779175651 $212 -3.3322547979988677 $301 $367 forward 7 unknown #
point $-1 -3.3322547979988677 -37.298080330430018 17.433013699044825 #
point $-1 -3.3322547979988677 -27.998043312672166 17.433013699044825 #
edge $-1 $368 1 $368 0 $215 $-1 forward 7 unknown #
vertex $-1 $216 $369 #
ellipse-curve $-1 -17.626345288587267 -29.621091770004753 9.8507732950032505 0 -0.68199836817093118 0.7313536940579346 1.5 0 0 1 I I #
point $-1 -16.126345288587267 -32.648061821551096 13.096801192310927 #
plane-surface $-1 58.425855281228067 0 0 -1 0 0 0 0 1 forward_v I I I I #
coedge $-1 $224 $222 $226 $318 reversed $141 $-1 #
edge $-1 $237 -17.433013699044825 $320 17.433013699044825 $236 $370 forward 7 unknown #
vertex $-1 $318 $371 #
straight-curve $-1 -58.425855281228067 -37.298080330430018 0 0 0 -1 I I #
edge $-1 $316 -37.298080330430018 $320 37.298080330430018 $314 $372 forward 7 unknown #
straight-curve $-1 0 -37.298080330430018 -17.433013699044825 -1 0 0 I I #
vertex $-1 $229 $373 #
straight-curve $-1 0 37.298080330430018 -17.433013699044825 1 0 0 I I #
point $-1 58.425855281228067 37.298080330430018 -17.433013699044825 #
point $-1 58.425855281228067 -37.298080330430018 -17.433013699044825 #
straight-curve $-1 -58.425855281228067 0 17.433013699044825 0 -1 0 I I #
point $-1 -58.425855281228067 37.298080330430018 17.433013699044825 #
point $-1 -58.425855281228067 -37.298080330430018 17.433013699044825 #
straight-curve $-1 58.425855281228067 -37.298080330430018 0 0 0 -1 I I #
straight-curve $-1 58.425855281228067 37.298080330430018 0 0 0 -1 I I #
plane-surface $-1 0 -37.298080330430018 0 0 1 0 0 0 1 forward_v I I I I #
coedge $-1 $374 $249 $259 $341 reversed $160 $-1 #
coedge $-1 $249 $374 $262 $343 forward $160 $-1 #
coedge $-1 $375 $252 $250 $333 forward $247 $-1 #
edge $-1 $334 45.609964646384867 $376 58.425855281228067 $250 $377 forward 7 unknown #
vertex $-1 $333 $378 #
straight-curve $-1 -45.609964646384867 37.298080330430018 7.1348626716847878 0 0 -1 I I #
coedge $-1 $252 $375 $254 $338 forward $247 $-1 #
straight-curve $-1 -45.609964646384867 0 17.433013699044825 0 1 0 I I #
edge $-1 $379 -58.425855281228067 $256 -45.609964646384867 $254 $380 forward 7 unknown #
point $-1 -45.609964646384867 -37.298080330430018 17.433013699044821 #
straight-curve $-1 -58.425855281228067 0 11.106436987694329 0 -1 0 I I #
edge $-1 $379 -17.433013699044825 $260 -11.106436987694329 $330 $381 forward 7 unknown #
point $-1 -58.425855281228067 -37.298080330430018 11.106436987694329 #
edge $-1 $376 -17.433013699044825 $263 -11.106436987694329 $262 $382 forward 7 unknown #
point $-1 -58.425855281228067 37.298080330430018 11.106436987694329 #
coedge $-1 $268 $276 $269 $347 forward $176 $-1 #
edge $-1 $349 -28.816006072161059 $277 -4.7719110762865569 $268 $383 forward 7 unknown #
edge $-1 $353 -37.298080330430018 $349 -34.048722573487133 $345 $384 forward 7 unknown #
edge $-1 $274 7.1602826449081363 $353 10.298151027360033 $273 $385 forward 7 unknown #
vertex $-1 $271 $386 #
straight-curve $-1 -45.609964646384867 0.82449715943559276 49.517275961471782 0 -0.71933979245794832 0.69465837861970381 I I #
point $-1 -45.609964646384867 37.298080330430018 14.295145316592924 #
point $-1 -21.565869650510365 34.048722573487126 17.433013699044828 #
vertex $-1 $347 $387 #
straight-curve $-1 0 37.298080330430018 17.433013699044825 -1 0 0 I I #
vertex $-1 $283 $388 #
point $-1 -38.240223218992149 34.978743073338869 15.144739715360943 #
vertex $-1 $287 $389 #
point $-1 -27.935611077903076 34.978743073338869 15.144739715360943 #
edge $-1 $360 29.677245732164128 $363 38.349670745631926 $292 $390 forward 7 unknown #
vertex $-1 $306 $391 #
straight-curve $-1 -31.920435779175651 -58.49537812600353 17.433013699044821 0 -1 0 I I #
edge $-1 $363 -23.107263134882022 $303 5.4809178462947621 $302 $392 forward 7 unknown #
vertex $-1 $362 $393 #
straight-curve $-1 -31.920435779175651 -37.298080330430011 8.7605886855770336 0 0.7313536940579346 0.68199836817093118 I I #
point $-1 -31.920435779175651 -27.998043312672166 17.433013699044825 #
point $-1 -3.3322547979988677 -37.298080330430018 8.7605886855770265 #
straight-curve $-1 0 -37.298080330430018 17.433013699044825 1 0 0 I I #
vertex $-1 $309 $394 #
point $-1 -16.126345288587267 -29.621091770004753 9.8507732950032505 #
straight-curve $-1 -58.425855281228067 37.298080330430018 0 0 0 -1 I I #
point $-1 -58.425855281228067 -37.298080330430018 -17.433013699044825 #
straight-curve $-1 -58.425855281228067 0 -17.433013699044825 0 1 0 I I #
point $-1 -58.425855281228067 37.298080330430018 -17.433013699044825 #
coedge $-1 $331 $330 $375 $395 reversed $160 $-1 #
coedge $-1 $336 $332 $374 $395 forward $247 $-1 #
vertex $-1 $333 $396 #
straight-curve $-1 0 37.298080330430018 17.433013699044825 -1 0 0 I I #
point $-1 -45.609964646384867 37.298080330430018 17.433013699044821 #
vertex $-1 $395 $397 #
straight-curve $-1 0 -37.298080330430018 17.433013699044825 1 0 0 I I #
straight-curve $-1 -58.425855281228067 -37.298080330430018 0 0 0 -1 I I #
straight-curve $-1 -58.425855281228067 37.298080330430018 0 0 0 -1 I I #
straight-curve $-1 -16.793958574223808 34.048722573487133 17.433013699044821 1 0 0 I I #
straight-curve $-1 -45.609964646384867 0 17.433013699044825 0 -1 0 I I #
straight-curve $-1 -45.609964646384867 37.298080330430018 7.1348626716847878 0 0 1 I I #
point $-1 -45.609964646384867 34.048722573487133 17.433013699044825 #
point $-1 -45.609964646384867 37.298080330430018 17.433013699044821 #
point $-1 -38.740223218992149 34.631413884029023 14.785069819131968 #
point $-1 -28.435611077903076 34.631413884029023 14.785069819131968 #
straight-curve $-1 -31.920435779175651 -37.298080330430018 47.110259431208952 0 0 -1 I I #
point $-1 -31.920435779175651 -37.298080330430018 17.433013699044825 #
straight-curve $-1 -8.8131726442936298 -37.298080330430018 8.760588685577023 1 0 0 I I #
point $-1 -31.920435779175651 -37.298080330430018 8.7605886855770265 #
point $-1 -17.626345288587267 -28.598094217748354 8.7537427539163488 #
edge $-1 $376 -37.298080330430018 $379 37.298080330430018 $374 $398 forward 7 unknown #
point $-1 -58.425855281228067 37.298080330430018 17.433013699044825 #
point $-1 -58.425855281228067 -37.298080330430018 17.433013699044825 #
straight-curve $-1 -58.425855281228067 0 17.433013699044825 0 -1 0 I I #
End-of-ACIS-data 