500 0 9 0           
7 Unknown 11 ACIS 5.0 NT 24 Thu Mar 25 15:50:22 1999 
-1 9.9999999999999995e-007 1e-010 
body $-1 $9 $-1 $10 #
body $-1 $11 $-1 $12 #
body $-1 $13 $-1 $14 #
body $-1 $15 $-1 $16 #
body $-1 $17 $-1 $18 #
body $-1 $19 $-1 $20 #
body $-1 $21 $-1 $22 #
body $-1 $23 $-1 $24 #
body $-1 $25 $-1 $26 #
lump $-1 $-1 $27 $0 #
transform $-1 1 0 0 0 1 0 0 0 1 47.403790398876922 29.624656449873413 11.745258168460662 1 rotate no_reflect no_shear #
lump $-1 $-1 $28 $1 #
transform $-1 1 0 0 0 1 0 0 0 1 47.403790398876922 29.624656449873413 11.745258168460662 1 rotate no_reflect no_shear #
lump $-1 $-1 $29 $2 #
transform $-1 1 0 0 0 1 0 0 0 1 47.403790398876922 29.624656449873413 11.745258168460662 1 rotate no_reflect no_shear #
lump $-1 $-1 $30 $3 #
transform $-1 1 0 0 0 1 0 0 0 1 47.403790398876922 29.624656449873413 11.745258168460662 1 rotate no_reflect no_shear #
lump $-1 $-1 $31 $4 #
transform $-1 1 0 0 0 1 0 0 0 1 47.403790398876922 29.624656449873413 11.745258168460662 1 rotate no_reflect no_shear #
lump $-1 $-1 $32 $5 #
transform $-1 1 0 0 0 1 0 0 0 1 47.403790398876922 29.624656449873413 11.745258168460662 1 rotate no_reflect no_shear #
lump $-1 $-1 $33 $6 #
transform $-1 1 0 0 0 1 0 0 0 1 47.403790398876922 29.624656449873413 11.745258168460662 1 rotate no_reflect no_shear #
lump $-1 $-1 $34 $7 #
transform $-1 1 0 0 0 1 0 0 0 1 47.403790398876922 29.624656449873413 11.745258168460662 1 rotate no_reflect no_shear #
lump $-1 $-1 $35 $8 #
transform $-1 1 0 0 0 1 0 0 0 1 47.403790398876922 29.624656449873413 11.745258168460662 1 rotate no_reflect no_shear #
shell $-1 $-1 $-1 $36 $-1 $9 #
shell $-1 $-1 $-1 $37 $-1 $11 #
shell $-1 $-1 $-1 $38 $-1 $13 #
shell $-1 $-1 $-1 $39 $-1 $15 #
shell $-1 $-1 $-1 $40 $-1 $17 #
shell $-1 $-1 $-1 $41 $-1 $19 #
shell $-1 $-1 $-1 $42 $-1 $21 #
shell $-1 $-1 $-1 $43 $-1 $23 #
shell $-1 $-1 $-1 $44 $-1 $25 #
face $-1 $45 $46 $27 $-1 $47 forward single #
face $-1 $48 $49 $28 $-1 $50 reversed single #
face $-1 $51 $52 $29 $-1 $53 reversed single #
face $-1 $54 $55 $30 $-1 $56 forward single #
face $-1 $57 $58 $31 $-1 $59 forward single #
face $-1 $60 $61 $32 $-1 $62 forward single #
face $-1 $63 $64 $33 $-1 $65 reversed single #
face $-1 $66 $67 $34 $-1 $68 forward single #
face $-1 $69 $70 $35 $-1 $71 forward single #
face $-1 $72 $73 $27 $-1 $74 reversed single #
loop $-1 $-1 $75 $36 #
plane-surface $-1 0 0 11.745258168460662 0 0 1 1 0 0 forward_v I I I I #
face $-1 $76 $77 $28 $-1 $78 reversed single #
loop $-1 $-1 $79 $37 #
plane-surface $-1 0 -24.018289540169157 5.7041944758328675 0 0 1 1 0 0 forward_v I I I I #
face $-1 $80 $81 $29 $-1 $82 reversed single #
loop $-1 $-1 $83 $38 #
plane-surface $-1 -107.06813496189423 7.5190582462879263 73.856010598238512 0 1 0 -0.62932039886446345 0 0.77714595512881146 forward_v I I I I #
face $-1 $84 $85 $30 $-1 $86 forward single #
loop $-1 $87 $88 $39 #
cone-surface $-1 -39.178459601966452 10.358745063964719 4.6244036531085158 0.62932039886446345 0 -0.77714595512881146 0.77714595512881146 0 0.62932039886446345 1 I I 0 1 1 forward I I I I #
face $-1 $89 $90 $31 $-1 $91 forward single #
loop $-1 $92 $93 $40 #
cone-surface $-1 -39.178459601966452 14.618275290479914 4.6244036531085158 0.62932039886446345 0 -0.77714595512881146 0.77714595512881146 0 0.62932039886446345 1 I I 0 1 1 forward I I I I #
face $-1 $94 $95 $32 $-1 $96 forward single #
loop $-1 $97 $98 $41 #
cone-surface $-1 -39.178459601966452 18.87780551699511 4.6244036531085158 0.62932039886446345 0 -0.77714595512881146 0.77714595512881146 0 0.62932039886446345 1 I I 0 1 1 forward I I I I #
face $-1 $99 $100 $33 $-1 $101 reversed single #
loop $-1 $-1 $102 $42 #
plane-surface $-1 14.967347221159471 9.6079277618037544 134.76715412267367 0 -1 0 -0.51503808176128008 0 -0.85716729658548041 forward_v I I I I #
face $-1 $103 $104 $34 $-1 $105 forward single #
loop $-1 $106 $107 $43 #
cone-surface $-1 41.04982092201962 3.8764965785457619 7.4299773104222915 -0.51503808176128008 0 -0.85716729658548041 0.4285836482927402 0 -0.25751904088064004 1 I I 0 1 0.5 forward I I I I #
face $-1 $108 $109 $35 $-1 $110 forward single #
loop $-1 $111 $112 $44 #
cone-surface $-1 41.04982092201962 7.3153552885005553 7.4299773104222915 -0.51503808176128008 0 -0.85716729658548041 0.4285836482927402 0 -0.25751904088064004 1 I I 0 1 0.5 forward I I I I #
face $-1 $113 $114 $27 $-1 $115 reversed single #
loop $-1 $-1 $116 $45 #
plane-surface $-1 0 0 -11.745258168460662 0 0 1 1 0 0 forward_v I I I I #
coedge $-1 $117 $118 $119 $120 forward $46 $-1 #
face $-1 $121 $122 $28 $-1 $123 reversed single #
loop $-1 $-1 $124 $48 #
plane-surface $-1 0 -18.4119226304649 8.7247263221467648 0 -1 0 0 0 -1 forward_v I I I I #
coedge $-1 $125 $126 $127 $128 reversed $49 $-1 #
face $-1 $129 $130 $29 $-1 $131 reversed single #
loop $-1 $-1 $132 $51 #
plane-surface $-1 -47.403790398876936 14.618275290479914 0.17668266571614311 -0.62932039886446345 0 0.77714595512881146 0.77714595512881146 0 0.62932039886446345 forward_v I I I I #
coedge $-1 $133 $134 $135 $136 reversed $52 $-1 #
face $-1 $-1 $137 $30 $-1 $138 forward single #
loop $-1 $139 $140 $54 #
cone-surface $-1 -37.781468955511059 10.358745063964719 2.8992639115642209 0.62932039886446345 0 -0.77714595512881146 0.38857297756440573 0 0.31466019943223172 1 I I -0.70710678118654746 0.70710678118654746 0.5 forward I I I I #
loop $-1 $-1 $141 $39 #
coedge $-1 $88 $88 $142 $143 reversed $55 $-1 #
face $-1 $-1 $144 $31 $-1 $145 forward single #
loop $-1 $146 $147 $57 #
cone-surface $-1 -37.781468955511059 14.618275290479914 2.8992639115642209 0.62932039886446345 0 -0.77714595512881146 0.38857297756440573 0 0.31466019943223172 1 I I -0.70710678118654746 0.70710678118654746 0.5 forward I I I I #
loop $-1 $-1 $148 $40 #
coedge $-1 $93 $93 $149 $150 reversed $58 $-1 #
face $-1 $-1 $151 $32 $-1 $152 forward single #
loop $-1 $153 $154 $60 #
cone-surface $-1 -37.781468955511059 18.87780551699511 2.8992639115642209 0.62932039886446345 0 -0.77714595512881146 0.38857297756440573 0 0.31466019943223172 1 I I -0.70710678118654746 0.70710678118654746 0.5 forward I I I I #
loop $-1 $-1 $155 $41 #
coedge $-1 $98 $98 $156 $157 reversed $61 $-1 #
face $-1 $158 $159 $33 $-1 $160 reversed single #
loop $-1 $-1 $161 $63 #
plane-surface $-1 -33.862167329343237 5.5959259335231621 53.501196394453501 0.51503808176128008 0 0.85716729658548041 0.85716729658548041 0 -0.51503808176128008 forward_v I I I I #
coedge $-1 $162 $163 $164 $165 reversed $64 $-1 #
face $-1 $-1 $166 $34 $-1 $167 forward single #
loop $-1 $168 $169 $66 #
cone-surface $-1 40.453295790013556 3.8764965785457619 6.4371927904924924 -0.51503808176128008 0 -0.85716729658548041 0.2142918241463701 0 -0.12875952044032002 1 I I -0.70710678118654746 0.70710678118654746 0.25 forward I I I I #
loop $-1 $-1 $170 $43 #
coedge $-1 $107 $107 $171 $172 reversed $67 $-1 #
face $-1 $-1 $173 $35 $-1 $174 forward single #
loop $-1 $175 $176 $69 #
cone-surface $-1 40.453295790013556 7.3153552885005553 6.4371927904924924 -0.51503808176128008 0 -0.85716729658548041 0.2142918241463701 0 -0.12875952044032002 1 I I -0.70710678118654746 0.70710678118654746 0.25 forward I I I I #
loop $-1 $-1 $177 $44 #
coedge $-1 $112 $112 $178 $179 reversed $70 $-1 #
face $-1 $180 $181 $27 $-1 $182 reversed single #
loop $-1 $-1 $183 $72 #
plane-surface $-1 0 -29.624656449873413 0 0 1 0 0 0 1 forward_v I I I I #
coedge $-1 $184 $185 $186 $187 forward $73 $-1 #
coedge $-1 $188 $75 $189 $190 forward $46 $-1 #
coedge $-1 $75 $188 $191 $192 forward $46 $-1 #
coedge $-1 $193 $194 $75 $120 reversed $195 $-1 #
edge $-1 $196 -29.624656449873413 $197 29.624656449873413 $119 $198 forward 7 unknown #
face $-1 $199 $200 $28 $-1 $201 reversed single #
loop $-1 $-1 $202 $76 #
plane-surface $-1 -47.403790398876922 0 0 1 0 0 0 0 -1 forward_v I I I I #
coedge $-1 $203 $204 $205 $206 reversed $77 $-1 #
coedge $-1 $207 $79 $208 $209 reversed $49 $-1 #
coedge $-1 $79 $207 $203 $210 forward $49 $-1 #
coedge $-1 $205 $211 $79 $128 forward $212 $-1 #
edge $-1 $213 -17.615511679788835 $214 -6.402777860380322 $127 $215 forward 7 unknown #
face $-1 $216 $217 $29 $-1 $218 forward single #
loop $-1 $-1 $219 $80 #
plane-surface $-1 -107.06813496189423 21.717492334671903 73.856010598238512 0 -1 0 0.62932039886446345 0 -0.77714595512881146 forward_v I I I I #
coedge $-1 $220 $221 $222 $223 reversed $81 $-1 #
coedge $-1 $134 $83 $224 $225 reversed $52 $-1 #
coedge $-1 $83 $133 $220 $226 reversed $52 $-1 #
coedge $-1 $222 $227 $83 $136 forward $217 $-1 #
edge $-1 $228 6.1302770820701937 $229 20.416277781844784 $135 $230 forward 7 unknown #
loop $-1 $-1 $142 $84 #
plane-surface $-1 -47.403790398876936 14.618275290479914 0.17668266571614311 -0.62932039886446345 0 0.77714595512881146 0.77714595512881146 0 0.62932039886446345 forward_v I I I I #
loop $-1 $-1 $231 $54 #
coedge $-1 $140 $140 $141 $232 reversed $85 $-1 #
coedge $-1 $141 $141 $140 $232 forward $87 $-1 #
coedge $-1 $142 $142 $88 $143 forward $137 $-1 #
edge $-1 $233 0 $233 6.2831853071796004 $142 $234 forward 7 unknown #
loop $-1 $-1 $149 $89 #
plane-surface $-1 -47.403790398876936 14.618275290479914 0.17668266571614311 -0.62932039886446345 0 0.77714595512881146 0.77714595512881146 0 0.62932039886446345 forward_v I I I I #
loop $-1 $-1 $235 $57 #
coedge $-1 $147 $147 $148 $236 reversed $90 $-1 #
coedge $-1 $148 $148 $147 $236 forward $92 $-1 #
coedge $-1 $149 $149 $93 $150 forward $144 $-1 #
edge $-1 $237 0 $237 6.2831853071796004 $149 $238 forward 7 unknown #
loop $-1 $-1 $156 $94 #
plane-surface $-1 -47.403790398876936 14.618275290479914 0.17668266571614311 -0.62932039886446345 0 0.77714595512881146 0.77714595512881146 0 0.62932039886446345 forward_v I I I I #
loop $-1 $-1 $239 $60 #
coedge $-1 $154 $154 $155 $240 reversed $95 $-1 #
coedge $-1 $155 $155 $154 $240 forward $97 $-1 #
coedge $-1 $156 $156 $98 $157 forward $151 $-1 #
edge $-1 $241 0 $241 6.2831853071796004 $156 $242 forward 7 unknown #
face $-1 $243 $244 $33 $-1 $245 reversed single #
loop $-1 $-1 $246 $99 #
plane-surface $-1 14.967347221159471 1.5839241052425699 134.76715412267367 0 1 0 0.51503808176128008 0 0.85716729658548041 forward_v I I I I #
coedge $-1 $247 $248 $249 $250 reversed $100 $-1 #
coedge $-1 $163 $102 $251 $252 reversed $64 $-1 #
coedge $-1 $102 $162 $247 $253 reversed $64 $-1 #
coedge $-1 $249 $254 $102 $165 forward $255 $-1 #
edge $-1 $256 -39.920116788297186 $257 -28.147709057714088 $164 $258 forward 7 unknown #
loop $-1 $-1 $171 $103 #
plane-surface $-1 -33.862167329343237 5.5959259335231621 53.501196394453501 0.51503808176128008 0 0.85716729658548041 0.85716729658548041 0 -0.51503808176128008 forward_v I I I I #
loop $-1 $-1 $259 $66 #
coedge $-1 $169 $169 $170 $260 reversed $104 $-1 #
coedge $-1 $170 $170 $169 $260 forward $106 $-1 #
coedge $-1 $171 $171 $107 $172 forward $166 $-1 #
edge $-1 $261 0 $261 6.2831853071796004 $171 $262 forward 7 unknown #
loop $-1 $-1 $178 $108 #
plane-surface $-1 -33.862167329343237 5.5959259335231621 53.501196394453501 0.51503808176128008 0 0.85716729658548041 0.85716729658548041 0 -0.51503808176128008 forward_v I I I I #
loop $-1 $-1 $263 $69 #
coedge $-1 $176 $176 $177 $264 reversed $109 $-1 #
coedge $-1 $177 $177 $176 $264 forward $111 $-1 #
coedge $-1 $178 $178 $112 $179 forward $173 $-1 #
edge $-1 $265 0 $265 6.2831853071796004 $178 $266 forward 7 unknown #
face $-1 $267 $268 $27 $-1 $269 reversed single #
loop $-1 $-1 $270 $113 #
plane-surface $-1 -47.403790398876922 0 0 1 0 0 0 0 -1 forward_v I I I I #
coedge $-1 $271 $191 $272 $273 forward $114 $-1 #
coedge $-1 $274 $116 $271 $275 forward $73 $-1 #
coedge $-1 $116 $274 $276 $277 forward $73 $-1 #
coedge $-1 $194 $193 $116 $187 reversed $195 $-1 #
edge $-1 $278 -29.624656449873413 $279 29.624656449873413 $186 $280 forward 7 unknown #
coedge $-1 $118 $117 $281 $282 forward $46 $-1 #
coedge $-1 $283 $284 $117 $190 reversed $268 $-1 #
edge $-1 $197 -47.403790398876922 $285 47.403790398876922 $189 $286 forward 7 unknown #
coedge $-1 $183 $287 $118 $192 reversed $114 $-1 #
edge $-1 $288 -47.403790398876922 $196 47.403790398876922 $191 $289 forward 7 unknown #
coedge $-1 $186 $119 $287 $290 forward $195 $-1 #
coedge $-1 $119 $186 $283 $291 reversed $195 $-1 #
loop $-1 $-1 $193 $267 #
vertex $-1 $120 $292 #
vertex $-1 $120 $293 #
straight-curve $-1 47.403790398876922 0 11.745258168460662 0 1 0 I I #
face $-1 $294 $295 $28 $-1 $296 forward single #
loop $-1 $-1 $208 $121 #
plane-surface $-1 0 -29.624656449873413 0 0 1 0 0 0 1 forward_v I I I I #
coedge $-1 $297 $298 $299 $300 forward $122 $-1 #
coedge $-1 $299 $124 $126 $210 reversed $77 $-1 #
coedge $-1 $124 $299 $301 $302 reversed $77 $-1 #
coedge $-1 $303 $127 $124 $206 forward $212 $-1 #
edge $-1 $214 1.3418313147594851 $304 7.3828950073872797 $205 $305 forward 7 unknown #
coedge $-1 $126 $125 $297 $306 reversed $49 $-1 #
coedge $-1 $307 $308 $125 $209 forward $200 $-1 #
edge $-1 $309 -47.403790398876922 $213 47.403790398876922 $208 $310 forward 7 unknown #
edge $-1 $311 -47.403790398876922 $214 47.403790398876922 $203 $312 forward 7 unknown #
coedge $-1 $127 $303 $307 $313 forward $212 $-1 #
loop $-1 $-1 $205 $294 #
vertex $-1 $209 $314 #
vertex $-1 $128 $315 #
straight-curve $-1 47.403790398876922 -12.009144770084578 5.7041944758328675 0 1 0 I I #
face $-1 $-1 $316 $29 $-1 $317 reversed single #
loop $-1 $-1 $135 $129 #
plane-surface $-1 0 0 11.745258168460662 0 0 1 1 0 0 forward_v I I I I #
coedge $-1 $318 $319 $320 $321 reversed $130 $-1 #
coedge $-1 $322 $132 $134 $226 forward $81 $-1 #
coedge $-1 $132 $322 $318 $323 forward $81 $-1 #
coedge $-1 $320 $135 $132 $223 forward $217 $-1 #
edge $-1 $229 0.20992060104796906 $324 14.408354689431945 $222 $325 forward 7 unknown #
coedge $-1 $326 $327 $133 $225 forward $316 $-1 #
edge $-1 $328 -36.751322633403099 $228 -25.182747130658594 $224 $329 forward 7 unknown #
edge $-1 $229 -18.382648208478045 $328 -1.8292775476455688e-014 $134 $330 forward 7 unknown #
coedge $-1 $135 $320 $326 $331 forward $217 $-1 #
vertex $-1 $225 $332 #
vertex $-1 $136 $333 #
straight-curve $-1 -53.534067480947115 7.5190582462879263 11.745258168460662 1 0 0 I I #
coedge $-1 $231 $231 $-1 $334 reversed $139 $-1 #
edge $-1 $335 0 $335 6.2831853071796004 $140 $336 forward 7 unknown #
vertex $-1 $143 $337 #
ellipse-curve $-1 -40.26079004898962 10.358745063964719 5.9609704170884124 -0.62932039886446345 0 0.77714595512881146 0.77714595512881146 0 0.62932039886446345 1 I I #
coedge $-1 $235 $235 $-1 $338 reversed $146 $-1 #
edge $-1 $339 0 $339 6.2831853071796004 $147 $340 forward 7 unknown #
vertex $-1 $150 $341 #
ellipse-curve $-1 -40.26079004898962 14.618275290479914 5.9609704170884124 -0.62932039886446345 0 0.77714595512881146 0.77714595512881146 0 0.62932039886446345 1 I I #
coedge $-1 $239 $239 $-1 $342 reversed $153 $-1 #
edge $-1 $343 0 $343 6.2831853071796004 $154 $344 forward 7 unknown #
vertex $-1 $157 $345 #
ellipse-curve $-1 -40.26079004898962 18.87780551699511 5.9609704170884124 -0.62932039886446345 0 0.77714595512881146 0.77714595512881146 0 0.62932039886446345 1 I I #
face $-1 $-1 $255 $33 $-1 $346 forward single #
loop $-1 $-1 $347 $158 #
plane-surface $-1 47.403790398876922 0 0 -1 0 0 0 0 1 forward_v I I I I #
coedge $-1 $348 $349 $350 $351 reversed $159 $-1 #
coedge $-1 $352 $161 $163 $253 forward $100 $-1 #
coedge $-1 $161 $352 $348 $353 forward $100 $-1 #
coedge $-1 $350 $164 $161 $250 forward $255 $-1 #
edge $-1 $257 -6.8099647950421733 $354 1.2140388615190112 $249 $355 forward 7 unknown #
coedge $-1 $356 $357 $162 $252 forward $244 $-1 #
edge $-1 $358 -62.711895217386036 $256 -55.638318892876171 $251 $359 forward 7 unknown #
edge $-1 $257 81.07349670766034 $358 94.807580797753829 $163 $360 forward 7 unknown #
coedge $-1 $164 $350 $356 $361 forward $255 $-1 #
loop $-1 $-1 $350 $243 #
vertex $-1 $252 $362 #
vertex $-1 $165 $363 #
straight-curve $-1 7.4836736105797357 9.6079277618037544 11.745258168460666 -1 0 0 I I #
coedge $-1 $259 $259 $-1 $364 reversed $168 $-1 #
edge $-1 $365 0 $365 6.2831853071796004 $169 $366 forward 7 unknown #
vertex $-1 $172 $367 #
ellipse-curve $-1 41.517586533585373 3.8764965785457619 8.2084700062057347 0.51503808176128008 0 0.85716729658548041 0.4285836482927402 0 -0.25751904088064004 1 I I #
coedge $-1 $263 $263 $-1 $368 reversed $175 $-1 #
edge $-1 $369 0 $369 6.2831853071796004 $176 $370 forward 7 unknown #
vertex $-1 $179 $371 #
ellipse-curve $-1 41.517586533585373 7.3153552885005553 8.2084700062057347 0.51503808176128008 0 0.85716729658548041 0.4285836482927402 0 -0.25751904088064004 1 I I #
face $-1 $-1 $195 $27 $-1 $372 reversed single #
loop $-1 $-1 $283 $180 #
plane-surface $-1 0 29.624656449873413 0 0 -1 0 0 0 -1 forward_v I I I I #
coedge $-1 $373 $281 $284 $374 forward $181 $-1 #
coedge $-1 $287 $183 $184 $275 reversed $114 $-1 #
coedge $-1 $281 $373 $183 $273 reversed $181 $-1 #
edge $-1 $288 -11.745258168460662 $375 11.745258168460662 $272 $376 forward 7 unknown #
coedge $-1 $185 $184 $373 $377 forward $73 $-1 #
edge $-1 $279 -47.403790398876922 $375 47.403790398876922 $271 $378 forward 7 unknown #
coedge $-1 $284 $283 $185 $277 reversed $268 $-1 #
edge $-1 $379 -47.403790398876922 $278 47.403790398876922 $276 $380 forward 7 unknown #
vertex $-1 $187 $381 #
vertex $-1 $290 $382 #
straight-curve $-1 47.403790398876922 0 -11.745258168460662 0 -1 0 I I #
coedge $-1 $270 $272 $188 $282 reversed $181 $-1 #
edge $-1 $285 -29.624656449873413 $288 29.624656449873413 $281 $383 forward 7 unknown #
coedge $-1 $276 $189 $194 $291 forward $268 $-1 #
coedge $-1 $189 $276 $270 $374 reversed $268 $-1 #
vertex $-1 $190 $384 #
straight-curve $-1 0 29.624656449873413 11.745258168460662 -1 0 0 I I #
coedge $-1 $191 $271 $193 $290 reversed $114 $-1 #
vertex $-1 $282 $385 #
straight-curve $-1 0 -29.624656449873413 11.745258168460662 1 0 0 I I #
edge $-1 $196 -11.745258168460662 $279 11.745258168460662 $193 $386 forward 7 unknown #
edge $-1 $197 -11.745258168460662 $278 11.745258168460662 $194 $387 forward 7 unknown #
point $-1 47.403790398876922 -29.624656449873413 11.745258168460662 #
point $-1 47.403790398876922 29.624656449873413 11.745258168460662 #
face $-1 $-1 $212 $28 $-1 $388 reversed single #
loop $-1 $-1 $301 $199 #
plane-surface $-1 0 0 11.745258168460662 0 0 1 1 0 0 forward_v I I I I #
coedge $-1 $389 $202 $207 $306 forward $122 $-1 #
coedge $-1 $202 $389 $390 $391 reversed $122 $-1 #
coedge $-1 $204 $203 $202 $300 reversed $77 $-1 #
edge $-1 $392 -7.3828950073872797 $311 -1.3418313147594851 $202 $393 forward 7 unknown #
coedge $-1 $390 $394 $204 $302 forward $295 $-1 #
edge $-1 $304 -47.403790398876922 $392 47.403790398876922 $301 $395 forward 7 unknown #
coedge $-1 $211 $205 $394 $396 reversed $212 $-1 #
vertex $-1 $206 $397 #
straight-curve $-1 47.403790398876922 -18.4119226304649 4.3623631610733824 0 0 1 I I #
edge $-1 $311 6.402777860380322 $309 17.615511679788835 $297 $398 forward 7 unknown #
coedge $-1 $399 $208 $211 $313 reversed $200 $-1 #
coedge $-1 $208 $399 $389 $400 forward $200 $-1 #
vertex $-1 $209 $401 #
straight-curve $-1 0 -29.624656449873413 5.7041944758328675 1 0 0 I I #
vertex $-1 $306 $402 #
straight-curve $-1 0 -18.4119226304649 5.7041944758328675 1 0 0 I I #
edge $-1 $403 -11.745258168460662 $213 -5.7041944758328675 $211 $404 forward 7 unknown #
point $-1 47.403790398876922 -29.624656449873413 5.7041944758328675 #
point $-1 47.403790398876922 -18.4119226304649 5.7041944758328675 #
loop $-1 $-1 $224 $216 #
plane-surface $-1 -47.403790398876922 0 0 1 0 0 0 0 -1 forward_v I I I I #
coedge $-1 $319 $219 $221 $323 reversed $130 $-1 #
coedge $-1 $219 $318 $405 $406 reversed $130 $-1 #
coedge $-1 $227 $222 $219 $321 forward $217 $-1 #
edge $-1 $324 -20.416277781844784 $407 -6.1302770820701937 $320 $408 forward 7 unknown #
coedge $-1 $221 $220 $327 $409 reversed $81 $-1 #
edge $-1 $410 1.8292775476455688e-014 $324 18.382648208478045 $318 $411 forward 7 unknown #
vertex $-1 $223 $412 #
straight-curve $-1 -33.117789699102325 7.3091376452399572 11.745258168460662 0 1 0 I I #
coedge $-1 $405 $224 $227 $331 reversed $316 $-1 #
coedge $-1 $224 $405 $322 $409 forward $316 $-1 #
vertex $-1 $225 $413 #
straight-curve $-1 -47.403790398876922 7.5190582462879263 36.928005299119256 0 0 1 I I #
straight-curve $-1 -47.403790398876936 7.5190582462879263 0.17668266571614311 -0.77714595512881146 0 -0.62932039886446345 I I #
edge $-1 $407 -21.717492334671903 $228 -7.5190582462879263 $326 $414 forward 7 unknown #
point $-1 -47.403790398876922 7.5190582462879263 11.745258168460662 #
point $-1 -33.117789699102332 7.5190582462879263 11.745258168460664 #
edge $-1 $415 1 $415 0 $231 $-1 forward 7 unknown #
vertex $-1 $232 $416 #
ellipse-curve $-1 -38.096129154943291 10.358745063964719 3.2878368891286267 -0.62932039886446345 0 0.77714595512881146 0.77714595512881146 0 0.62932039886446345 1 I I #
point $-1 -39.483644093860804 10.358745063964719 6.5902908159528684 #
edge $-1 $417 1 $417 0 $235 $-1 forward 7 unknown #
vertex $-1 $236 $418 #
ellipse-curve $-1 -38.096129154943291 14.618275290479914 3.2878368891286267 -0.62932039886446345 0 0.77714595512881146 0.77714595512881146 0 0.62932039886446345 1 I I #
point $-1 -39.483644093860804 14.618275290479914 6.5902908159528684 #
edge $-1 $419 1 $419 0 $239 $-1 forward 7 unknown #
vertex $-1 $240 $420 #
ellipse-curve $-1 -38.096129154943291 18.87780551699511 3.2878368891286267 -0.62932039886446345 0 0.77714595512881146 0.77714595512881146 0 0.62932039886446345 1 I I #
point $-1 -39.483644093860804 18.87780551699511 6.5902908159528684 #
plane-surface $-1 0 0 11.745258168460662 0 0 1 1 0 0 forward_v I I I I #
coedge $-1 $357 $356 $349 $421 forward $244 $-1 #
coedge $-1 $349 $246 $248 $353 reversed $159 $-1 #
coedge $-1 $246 $348 $347 $421 reversed $159 $-1 #
coedge $-1 $254 $249 $246 $351 forward $255 $-1 #
edge $-1 $354 28.147709057714088 $422 39.920116788297186 $350 $423 forward 7 unknown #
coedge $-1 $248 $247 $357 $424 reversed $100 $-1 #
edge $-1 $425 -94.807580797753829 $354 -81.07349670766034 $348 $426 forward 7 unknown #
vertex $-1 $250 $427 #
straight-curve $-1 35.631382668293824 2.7979629667615811 11.745258168460662 0 -1 0 I I #
coedge $-1 $347 $251 $254 $361 reversed $244 $-1 #
coedge $-1 $251 $347 $352 $424 forward $244 $-1 #
vertex $-1 $252 $428 #
straight-curve $-1 47.403790398876922 9.6079277618037544 67.383577061336837 0 0 1 I I #
straight-curve $-1 -33.862167329343237 9.6079277618037544 53.501196394453501 0.85716729658548041 0 -0.51503808176128008 I I #
edge $-1 $422 1.5839241052425699 $256 9.6079277618037544 $356 $429 forward 7 unknown #
point $-1 47.403790398876922 9.6079277618037544 11.745258168460662 #
point $-1 35.631382668293824 9.6079277618037544 11.745258168460666 #
edge $-1 $430 1 $430 0 $259 $-1 forward 7 unknown #
vertex $-1 $260 $431 #
ellipse-curve $-1 40.582055310453875 3.8764965785457619 6.6514846146388624 0.51503808176128008 0 0.85716729658548041 0.4285836482927402 0 -0.25751904088064004 1 I I #
point $-1 41.946170181878109 3.8764965785457619 7.9509509653250801 #
edge $-1 $432 1 $432 0 $263 $-1 forward 7 unknown #
vertex $-1 $264 $433 #
ellipse-curve $-1 40.582055310453875 7.3153552885005553 6.6514846146388624 0.51503808176128008 0 0.85716729658548041 0.4285836482927402 0 -0.25751904088064004 1 I I #
point $-1 41.946170181878109 7.3153552885005553 7.9509509653250801 #
plane-surface $-1 47.403790398876922 0 0 -1 0 0 0 0 1 forward_v I I I I #
coedge $-1 $272 $270 $274 $377 reversed $181 $-1 #
edge $-1 $285 -11.745258168460662 $379 11.745258168460662 $284 $434 forward 7 unknown #
vertex $-1 $377 $435 #
straight-curve $-1 -47.403790398876922 -29.624656449873413 0 0 0 -1 I I #
edge $-1 $375 -29.624656449873413 $379 29.624656449873413 $373 $436 forward 7 unknown #
straight-curve $-1 0 -29.624656449873413 -11.745258168460662 -1 0 0 I I #
vertex $-1 $277 $437 #
straight-curve $-1 0 29.624656449873413 -11.745258168460662 1 0 0 I I #
point $-1 47.403790398876922 29.624656449873413 -11.745258168460662 #
point $-1 47.403790398876922 -29.624656449873413 -11.745258168460662 #
straight-curve $-1 -47.403790398876922 0 11.745258168460662 0 -1 0 I I #
point $-1 -47.403790398876922 29.624656449873413 11.745258168460662 #
point $-1 -47.403790398876922 -29.624656449873413 11.745258168460662 #
straight-curve $-1 47.403790398876922 -29.624656449873413 0 0 0 -1 I I #
straight-curve $-1 47.403790398876922 29.624656449873413 0 0 0 -1 I I #
plane-surface $-1 47.403790398876922 0 0 -1 0 0 0 0 1 forward_v I I I I #
coedge $-1 $298 $297 $308 $400 reversed $122 $-1 #
coedge $-1 $438 $301 $298 $391 forward $295 $-1 #
edge $-1 $392 18.4119226304649 $439 29.624656449873413 $298 $440 forward 7 unknown #
vertex $-1 $391 $441 #
straight-curve $-1 -47.403790398876922 -18.4119226304649 4.3623631610733824 0 0 -1 I I #
coedge $-1 $301 $438 $303 $396 forward $295 $-1 #
straight-curve $-1 0 -18.4119226304649 11.745258168460662 -1 0 0 I I #
edge $-1 $403 -29.624656449873413 $304 -18.4119226304649 $303 $442 forward 7 unknown #
point $-1 47.403790398876922 -18.4119226304649 11.745258168460662 #
straight-curve $-1 -47.403790398876922 -12.009144770084578 5.7041944758328675 0 -1 0 I I #
coedge $-1 $308 $307 $438 $443 reversed $200 $-1 #
edge $-1 $439 -11.745258168460662 $309 -5.7041944758328675 $389 $444 forward 7 unknown #
point $-1 -47.403790398876922 -29.624656449873413 5.7041944758328675 #
point $-1 -47.403790398876922 -18.4119226304649 5.7041944758328675 #
vertex $-1 $396 $445 #
straight-curve $-1 47.403790398876922 -29.624656449873413 0 0 0 -1 I I #
coedge $-1 $327 $326 $319 $406 forward $316 $-1 #
edge $-1 $407 25.182747130658594 $410 36.751322633403099 $405 $446 forward 7 unknown #
vertex $-1 $331 $447 #
straight-curve $-1 -53.534067480947115 21.717492334671903 11.745258168460662 -1 0 0 I I #
edge $-1 $410 -14.408354689431945 $328 -0.20992060104796906 $327 $448 forward 7 unknown #
vertex $-1 $409 $449 #
straight-curve $-1 -47.403790398876936 21.717492334671903 0.17668266571614311 0.77714595512881146 0 0.62932039886446345 I I #
point $-1 -33.117789699102332 21.717492334671903 11.745258168460664 #
point $-1 -47.403790398876922 7.5190582462879263 0.17668266571615462 #
straight-curve $-1 -47.403790398876922 0 11.745258168460662 0 -1 0 I I #
vertex $-1 $334 $450 #
point $-1 -37.318983199814483 10.358745063964719 3.9171572879930903 #
vertex $-1 $338 $451 #
point $-1 -37.318983199814483 14.618275290479914 3.9171572879930903 #
vertex $-1 $342 $452 #
point $-1 -37.318983199814483 18.87780551699511 3.9171572879930903 #
edge $-1 $422 55.638318892876171 $425 62.711895217386036 $347 $453 forward 7 unknown #
vertex $-1 $361 $454 #
straight-curve $-1 7.4836736105797357 1.5839241052425699 11.745258168460666 1 0 0 I I #
edge $-1 $425 -1.2140388615190112 $358 6.8099647950421733 $357 $455 forward 7 unknown #
vertex $-1 $424 $456 #
straight-curve $-1 -33.862167329343237 1.5839241052425699 53.501196394453501 -0.85716729658548041 0 0.51503808176128008 I I #
point $-1 35.631382668293824 1.5839241052425699 11.745258168460666 #
point $-1 47.403790398876922 9.6079277618037544 4.6716818439508003 #
straight-curve $-1 47.403790398876922 0 11.745258168460662 0 1 0 I I #
vertex $-1 $364 $457 #
point $-1 41.010638958746618 3.8764965785457619 6.3939655737582228 #
vertex $-1 $368 $458 #
point $-1 41.010638958746618 7.3153552885005553 6.3939655737582228 #
straight-curve $-1 -47.403790398876922 29.624656449873413 0 0 0 -1 I I #
point $-1 -47.403790398876922 -29.624656449873413 -11.745258168460662 #
straight-curve $-1 -47.403790398876922 0 -11.745258168460662 0 1 0 I I #
point $-1 -47.403790398876922 29.624656449873413 -11.745258168460662 #
coedge $-1 $394 $390 $399 $443 forward $295 $-1 #
vertex $-1 $391 $459 #
straight-curve $-1 -47.403790398876922 0 11.745258168460662 0 -1 0 I I #
point $-1 -47.403790398876922 -18.4119226304649 11.745258168460662 #
straight-curve $-1 47.403790398876922 0 11.745258168460662 0 1 0 I I #
edge $-1 $439 -47.403790398876922 $403 47.403790398876922 $399 $460 forward 7 unknown #
straight-curve $-1 -47.403790398876922 -29.624656449873413 0 0 0 -1 I I #
point $-1 47.403790398876922 -29.624656449873413 11.745258168460662 #
straight-curve $-1 -47.403790398876922 21.717492334671903 36.928005299119256 0 0 -1 I I #
point $-1 -47.403790398876922 21.717492334671903 11.745258168460662 #
straight-curve $-1 -47.403790398876922 7.3091376452399572 0.17668266571615304 0 -1 0 I I #
point $-1 -47.403790398876922 21.717492334671903 0.17668266571615462 #
point $-1 -37.466808756078827 10.358745063964719 2.5106909339998151 #
point $-1 -37.466808756078827 14.618275290479914 2.5106909339998151 #
point $-1 -37.466808756078827 18.87780551699511 2.5106909339998151 #
straight-curve $-1 47.403790398876922 1.5839241052425699 67.383577061336837 0 0 -1 I I #
point $-1 47.403790398876922 1.5839241052425699 11.745258168460662 #
straight-curve $-1 47.403790398876914 2.7979629667615811 4.6716818439507968 0 1 0 I I #
point $-1 47.403790398876922 1.5839241052425699 4.6716818439508003 #
point $-1 40.324536269573237 3.8764965785457619 6.2229009663461223 #
point $-1 40.324536269573237 7.3153552885005553 6.2229009663461223 #
point $-1 -47.403790398876922 -29.624656449873413 11.745258168460662 #
straight-curve $-1 0 -29.624656449873413 11.745258168460662 1 0 0 I I #
End-of-ACIS-data 