500 0 16 0           
7 Unknown 11 ACIS 5.0 NT 24 Fri Mar 26 01:27:23 1999 
-1 9.9999999999999995e-007 1e-010 
body $-1 $16 $-1 $17 #
body $-1 $18 $-1 $19 #
body $-1 $20 $-1 $21 #
body $-1 $22 $-1 $23 #
body $-1 $24 $-1 $25 #
body $-1 $26 $-1 $27 #
body $-1 $28 $-1 $29 #
body $-1 $30 $-1 $31 #
body $-1 $32 $-1 $33 #
body $-1 $34 $-1 $35 #
body $-1 $36 $-1 $37 #
body $-1 $38 $-1 $39 #
body $-1 $40 $-1 $41 #
body $-1 $42 $-1 $43 #
body $-1 $44 $-1 $45 #
body $-1 $46 $-1 $47 #
lump $-1 $-1 $48 $0 #
transform $-1 1 0 0 0 1 0 0 0 1 59.483016449476608 41.503050739346257 19.641973917063268 1 rotate no_reflect no_shear #
lump $-1 $-1 $49 $1 #
transform $-1 1 0 0 0 1 0 0 0 1 59.483016449476608 41.503050739346257 19.641973917063268 1 rotate no_reflect no_shear #
lump $-1 $-1 $50 $2 #
transform $-1 1 0 0 0 1 0 0 0 1 59.483016449476608 41.503050739346257 19.641973917063268 1 rotate no_reflect no_shear #
lump $-1 $-1 $51 $3 #
transform $-1 1 0 0 0 1 0 0 0 1 59.483016449476608 41.503050739346257 19.641973917063268 1 rotate no_reflect no_shear #
lump $-1 $-1 $52 $4 #
transform $-1 1 0 0 0 1 0 0 0 1 59.483016449476608 41.503050739346257 19.641973917063268 1 rotate no_reflect no_shear #
lump $-1 $-1 $53 $5 #
transform $-1 1 0 0 0 1 0 0 0 1 59.483016449476608 41.503050739346257 19.641973917063268 1 rotate no_reflect no_shear #
lump $-1 $-1 $54 $6 #
transform $-1 1 0 0 0 1 0 0 0 1 59.483016449476608 41.503050739346257 19.641973917063268 1 rotate no_reflect no_shear #
lump $-1 $-1 $55 $7 #
transform $-1 1 0 0 0 1 0 0 0 1 59.483016449476608 41.503050739346257 19.641973917063268 1 rotate no_reflect no_shear #
lump $-1 $-1 $56 $8 #
transform $-1 1 0 0 0 1 0 0 0 1 59.483016449476608 41.503050739346257 19.641973917063268 1 rotate no_reflect no_shear #
lump $-1 $-1 $57 $9 #
transform $-1 1 0 0 0 1 0 0 0 1 59.483016449476608 41.503050739346257 19.641973917063268 1 rotate no_reflect no_shear #
lump $-1 $-1 $58 $10 #
transform $-1 1 0 0 0 1 0 0 0 1 59.483016449476608 41.503050739346257 19.641973917063268 1 rotate no_reflect no_shear #
lump $-1 $-1 $59 $11 #
transform $-1 1 0 0 0 1 0 0 0 1 59.483016449476608 41.503050739346257 19.641973917063268 1 rotate no_reflect no_shear #
lump $-1 $-1 $60 $12 #
transform $-1 1 0 0 0 1 0 0 0 1 59.483016449476608 41.503050739346257 19.641973917063268 1 rotate no_reflect no_shear #
lump $-1 $-1 $61 $13 #
transform $-1 1 0 0 0 1 0 0 0 1 59.483016449476608 41.503050739346257 19.641973917063268 1 rotate no_reflect no_shear #
lump $-1 $-1 $62 $14 #
transform $-1 1 0 0 0 1 0 0 0 1 59.483016449476608 41.503050739346257 19.641973917063268 1 rotate no_reflect no_shear #
lump $-1 $-1 $63 $15 #
transform $-1 1 0 0 0 1 0 0 0 1 59.483016449476608 41.503050739346257 19.641973917063268 1 rotate no_reflect no_shear #
shell $-1 $-1 $-1 $64 $-1 $16 #
shell $-1 $-1 $-1 $65 $-1 $18 #
shell $-1 $-1 $-1 $66 $-1 $20 #
shell $-1 $-1 $-1 $67 $-1 $22 #
shell $-1 $-1 $-1 $68 $-1 $24 #
shell $-1 $-1 $-1 $69 $-1 $26 #
shell $-1 $-1 $-1 $70 $-1 $28 #
shell $-1 $-1 $-1 $71 $-1 $30 #
shell $-1 $-1 $-1 $72 $-1 $32 #
shell $-1 $-1 $-1 $73 $-1 $34 #
shell $-1 $-1 $-1 $74 $-1 $36 #
shell $-1 $-1 $-1 $75 $-1 $38 #
shell $-1 $-1 $-1 $76 $-1 $40 #
shell $-1 $-1 $-1 $77 $-1 $42 #
shell $-1 $-1 $-1 $78 $-1 $44 #
shell $-1 $-1 $-1 $79 $-1 $46 #
face $-1 $80 $81 $48 $-1 $82 forward single #
face $-1 $83 $84 $49 $-1 $85 reversed single #
face $-1 $86 $87 $50 $-1 $88 reversed single #
face $-1 $89 $90 $51 $-1 $91 reversed single #
face $-1 $92 $93 $52 $-1 $94 forward single #
face $-1 $95 $96 $53 $-1 $97 forward single #
face $-1 $98 $99 $54 $-1 $100 reversed single #
face $-1 $101 $102 $55 $-1 $103 forward single #
face $-1 $104 $105 $56 $-1 $106 forward single #
face $-1 $107 $108 $57 $-1 $109 reversed single #
face $-1 $110 $111 $58 $-1 $112 forward single #
face $-1 $113 $114 $59 $-1 $115 forward single #
face $-1 $116 $117 $60 $-1 $118 reversed single #
face $-1 $119 $120 $61 $-1 $121 forward single #
face $-1 $122 $123 $62 $-1 $124 forward single #
face $-1 $125 $126 $63 $-1 $127 forward single #
face $-1 $128 $129 $48 $-1 $130 reversed single #
loop $-1 $-1 $131 $64 #
plane-surface $-1 0 0 19.641973917063268 0 0 1 1 0 0 forward_v I I I I #
face $-1 $132 $133 $49 $-1 $134 reversed single #
loop $-1 $-1 $135 $65 #
plane-surface $-1 0 -28.554382003763749 14.634580352843276 0 0 1 1 0 0 forward_v I I I I #
face $-1 $136 $137 $50 $-1 $138 reversed single #
loop $-1 $-1 $139 $66 #
plane-surface $-1 0 28.554382003763756 14.634580352843276 0 0 1 1 0 0 forward_v I I I I #
face $-1 $140 $141 $51 $-1 $142 reversed single #
loop $-1 $-1 $143 $67 #
plane-surface $-1 -139.08683113664628 -13.419255580268535 104.87523548087449 0 1 0 -0.66913061440640931 0 0.74314481823134659 forward_v I I I I #
face $-1 $144 $145 $52 $-1 $146 forward single #
loop $-1 $147 $148 $68 #
cone-surface $-1 -57.384948811548547 -11.676132538843849 17.682536842654709 0.66913061440640931 0 -0.74314481823134659 0.3715724091156733 0 0.33456530720320465 1 I I 0 1 0.5 forward I I I I #
face $-1 $149 $150 $53 $-1 $151 forward single #
loop $-1 $152 $153 $69 #
cone-surface $-1 -57.384948811548547 -9.0614479767068161 17.682536842654709 0.66913061440640931 0 -0.74314481823134659 0.3715724091156733 0 0.33456530720320465 1 I I 0 1 0.5 forward I I I I #
face $-1 $154 $155 $54 $-1 $156 reversed single #
loop $-1 $-1 $157 $70 #
plane-surface $-1 -139.08683113664628 -3.0504653224931975 104.87523548087449 0 1 0 -0.66913061440640931 0 0.74314481823134659 forward_v I I I I #
face $-1 $158 $159 $55 $-1 $160 forward single #
loop $-1 $161 $162 $71 #
cone-surface $-1 -57.384948811548547 -1.3073422810685145 17.682536842654709 0.66913061440640931 0 -0.74314481823134659 0.3715724091156733 0 0.33456530720320465 1 I I 0 1 0.5 forward I I I I #
face $-1 $163 $164 $56 $-1 $165 forward single #
loop $-1 $166 $167 $72 #
cone-surface $-1 -57.384948811548547 1.3073422810685216 17.682536842654709 0.66913061440640931 0 -0.74314481823134659 0.3715724091156733 0 0.33456530720320465 1 I I 0 1 0.5 forward I I I I #
face $-1 $168 $169 $57 $-1 $170 reversed single #
loop $-1 $-1 $171 $73 #
plane-surface $-1 -139.08683113664628 7.3183249352821402 104.87523548087449 0 1 0 -0.66913061440640931 0 0.74314481823134659 forward_v I I I I #
face $-1 $172 $173 $58 $-1 $174 forward single #
loop $-1 $175 $176 $74 #
cone-surface $-1 -57.384948811548547 9.0614479767068232 17.682536842654709 0.66913061440640931 0 -0.74314481823134659 0.3715724091156733 0 0.33456530720320465 1 I I 0 1 0.5 forward I I I I #
face $-1 $177 $178 $59 $-1 $179 forward single #
loop $-1 $180 $181 $75 #
cone-surface $-1 -57.384948811548547 11.676132538843859 17.682536842654709 0.66913061440640931 0 -0.74314481823134659 0.3715724091156733 0 0.33456530720320465 1 I I 0 1 0.5 forward I I I I #
face $-1 $182 $183 $60 $-1 $184 reversed single #
loop $-1 $-1 $185 $76 #
plane-surface $-1 71.219083293264575 -2.9746003347136671 182.15751662390019 0 -1 0 -0.75470958851134928 0 -0.65605901945558964 forward_v I I I I #
face $-1 $186 $187 $61 $-1 $188 forward single #
loop $-1 $189 $190 $77 #
cone-surface $-1 56.473014640069195 -10.258981560442791 16.375717423966059 -0.75470958851134928 0 -0.65605901945558964 0.32802950972779482 0 -0.37735479425567464 1 I I 0 1 0.5 forward I I I I #
face $-1 $191 $192 $62 $-1 $193 forward single #
loop $-1 $194 $195 $78 #
cone-surface $-1 56.473014640069195 -7.5273386007943657 16.375717423966059 -0.75470958851134928 0 -0.65605901945558964 0.32802950972779482 0 -0.37735479425567464 1 I I 0 1 0.5 forward I I I I #
face $-1 $196 $197 $63 $-1 $198 forward single #
loop $-1 $199 $200 $79 #
cone-surface $-1 56.473014640069195 -4.7956956411459402 16.375717423966059 -0.75470958851134928 0 -0.65605901945558964 0.32802950972779482 0 -0.37735479425567464 1 I I 0 1 0.5 forward I I I I #
face $-1 $201 $202 $48 $-1 $203 reversed single #
loop $-1 $-1 $204 $80 #
plane-surface $-1 0 0 -19.641973917063268 0 0 1 1 0 0 forward_v I I I I #
coedge $-1 $205 $206 $207 $208 forward $81 $-1 #
face $-1 $209 $210 $49 $-1 $211 reversed single #
loop $-1 $-1 $212 $83 #
plane-surface $-1 0 -15.60571326818124 17.13827713495327 0 -1 0 0 0 -1 forward_v I I I I #
coedge $-1 $213 $214 $215 $216 reversed $84 $-1 #
face $-1 $217 $218 $50 $-1 $219 forward single #
loop $-1 $-1 $220 $86 #
plane-surface $-1 0 15.605713268181248 17.13827713495327 0 1 0 0 0 1 forward_v I I I I #
coedge $-1 $221 $222 $223 $224 reversed $87 $-1 #
face $-1 $225 $226 $51 $-1 $227 reversed single #
loop $-1 $-1 $228 $89 #
plane-surface $-1 -59.483016449476622 -10.368790257775331 16.466244586477515 -0.66913061440640931 0 0.74314481823134659 0.74314481823134659 0 0.66913061440640931 forward_v I I I I #
coedge $-1 $229 $230 $231 $232 reversed $90 $-1 #
face $-1 $-1 $233 $52 $-1 $234 forward single #
loop $-1 $235 $236 $92 #
cone-surface $-1 -56.883100850743737 -11.676132538843849 17.125178228981198 0.66913061440640931 0 -0.74314481823134659 0.18578620455783665 0 0.16728265360160233 1 I I -0.70710678118654746 0.70710678118654746 0.25 forward I I I I #
loop $-1 $-1 $237 $68 #
coedge $-1 $148 $148 $238 $239 reversed $93 $-1 #
face $-1 $-1 $240 $53 $-1 $241 forward single #
loop $-1 $242 $243 $95 #
cone-surface $-1 -56.883100850743737 -9.0614479767068161 17.125178228981198 0.66913061440640931 0 -0.74314481823134659 0.18578620455783665 0 0.16728265360160233 1 I I -0.70710678118654746 0.70710678118654746 0.25 forward I I I I #
loop $-1 $-1 $244 $69 #
coedge $-1 $153 $153 $245 $246 reversed $96 $-1 #
face $-1 $247 $248 $54 $-1 $249 reversed single #
loop $-1 $-1 $250 $98 #
plane-surface $-1 -59.483016449476622 7.1054273576010019e-015 16.466244586477515 -0.66913061440640931 0 0.74314481823134659 0.74314481823134659 0 0.66913061440640931 forward_v I I I I #
coedge $-1 $251 $252 $253 $254 reversed $99 $-1 #
face $-1 $-1 $255 $55 $-1 $256 forward single #
loop $-1 $257 $258 $101 #
cone-surface $-1 -56.883100850743737 -1.3073422810685145 17.125178228981198 0.66913061440640931 0 -0.74314481823134659 0.18578620455783665 0 0.16728265360160233 1 I I -0.70710678118654746 0.70710678118654746 0.25 forward I I I I #
loop $-1 $-1 $259 $71 #
coedge $-1 $162 $162 $260 $261 reversed $102 $-1 #
face $-1 $-1 $262 $56 $-1 $263 forward single #
loop $-1 $264 $265 $104 #
cone-surface $-1 -56.883100850743737 1.3073422810685216 17.125178228981198 0.66913061440640931 0 -0.74314481823134659 0.18578620455783665 0 0.16728265360160233 1 I I -0.70710678118654746 0.70710678118654746 0.25 forward I I I I #
loop $-1 $-1 $266 $72 #
coedge $-1 $167 $167 $267 $268 reversed $105 $-1 #
face $-1 $269 $270 $57 $-1 $271 reversed single #
loop $-1 $-1 $272 $107 #
plane-surface $-1 -59.483016449476622 10.368790257775345 16.466244586477515 -0.66913061440640931 0 0.74314481823134659 0.74314481823134659 0 0.66913061440640931 forward_v I I I I #
coedge $-1 $273 $274 $275 $276 reversed $108 $-1 #
face $-1 $-1 $277 $58 $-1 $278 forward single #
loop $-1 $279 $280 $110 #
cone-surface $-1 -56.883100850743737 9.0614479767068232 17.125178228981198 0.66913061440640931 0 -0.74314481823134659 0.18578620455783665 0 0.16728265360160233 1 I I -0.70710678118654746 0.70710678118654746 0.25 forward I I I I #
loop $-1 $-1 $281 $74 #
coedge $-1 $176 $176 $282 $283 reversed $111 $-1 #
face $-1 $-1 $284 $59 $-1 $285 forward single #
loop $-1 $286 $287 $113 #
cone-surface $-1 -56.883100850743737 11.676132538843859 17.125178228981198 0.66913061440640931 0 -0.74314481823134659 0.18578620455783665 0 0.16728265360160233 1 I I -0.70710678118654746 0.70710678118654746 0.25 forward I I I I #
loop $-1 $-1 $288 $75 #
coedge $-1 $181 $181 $289 $290 reversed $114 $-1 #
face $-1 $291 $292 $60 $-1 $293 reversed single #
loop $-1 $-1 $294 $116 #
plane-surface $-1 -18.565722442732053 -7.5273386007943728 104.10877773169153 0.75470958851134928 0 0.65605901945558964 0.65605901945558964 0 -0.75470958851134928 forward_v I I I I #
coedge $-1 $295 $296 $297 $298 reversed $117 $-1 #
face $-1 $-1 $299 $61 $-1 $300 forward single #
loop $-1 $301 $302 $119 #
cone-surface $-1 55.585769645518496 -10.258981560442791 15.604447136689117 -0.75470958851134928 0 -0.65605901945558964 0.16401475486389741 0 -0.18867739712783732 1 I I -0.70710678118654502 0.70710678118655002 0.25 forward I I I I #
loop $-1 $-1 $303 $77 #
coedge $-1 $190 $190 $304 $305 reversed $120 $-1 #
face $-1 $-1 $306 $62 $-1 $307 forward single #
loop $-1 $308 $309 $122 #
cone-surface $-1 55.585769645518496 -7.5273386007943657 15.604447136689117 -0.75470958851134928 0 -0.65605901945558964 0.16401475486389741 0 -0.18867739712783732 1 I I -0.70710678118654502 0.70710678118655002 0.25 forward I I I I #
loop $-1 $-1 $310 $78 #
coedge $-1 $195 $195 $311 $312 reversed $123 $-1 #
face $-1 $-1 $313 $63 $-1 $314 forward single #
loop $-1 $315 $316 $125 #
cone-surface $-1 55.585769645518496 -4.7956956411459402 15.604447136689117 -0.75470958851134928 0 -0.65605901945558964 0.16401475486389741 0 -0.18867739712783732 1 I I -0.70710678118654502 0.70710678118655002 0.25 forward I I I I #
loop $-1 $-1 $317 $79 #
coedge $-1 $200 $200 $318 $319 reversed $126 $-1 #
face $-1 $320 $321 $48 $-1 $322 reversed single #
loop $-1 $-1 $323 $128 #
plane-surface $-1 0 -41.503050739346257 0 0 1 0 0 0 1 forward_v I I I I #
coedge $-1 $324 $325 $326 $327 forward $129 $-1 #
coedge $-1 $328 $131 $329 $330 forward $81 $-1 #
coedge $-1 $131 $328 $331 $332 forward $81 $-1 #
coedge $-1 $333 $334 $131 $208 reversed $335 $-1 #
edge $-1 $336 -41.503050739346257 $337 41.503050739346257 $207 $338 forward 7 unknown #
face $-1 $339 $340 $49 $-1 $341 reversed single #
loop $-1 $-1 $342 $132 #
plane-surface $-1 -59.483016449476608 0 0 1 0 0 0 0 -1 forward_v I I I I #
coedge $-1 $343 $344 $345 $346 reversed $133 $-1 #
coedge $-1 $347 $135 $348 $349 reversed $84 $-1 #
coedge $-1 $135 $347 $343 $350 forward $84 $-1 #
coedge $-1 $345 $351 $135 $216 forward $352 $-1 #
edge $-1 $353 -27.225859737464383 $354 -1.3285222662993661 $215 $355 forward 7 unknown #
face $-1 $356 $357 $50 $-1 $358 reversed single #
loop $-1 $-1 $359 $136 #
plane-surface $-1 0 0 19.641973917063268 0 0 1 1 0 0 forward_v I I I I #
coedge $-1 $360 $361 $362 $363 reversed $137 $-1 #
coedge $-1 $364 $139 $360 $365 forward $87 $-1 #
coedge $-1 $139 $364 $366 $367 reversed $87 $-1 #
coedge $-1 $368 $369 $139 $224 forward $357 $-1 #
edge $-1 $370 1.3285222662993696 $371 27.225859737464386 $223 $372 forward 7 unknown #
face $-1 $373 $374 $51 $-1 $375 reversed single #
loop $-1 $-1 $376 $140 #
plane-surface $-1 -139.08683113664628 -7.318324935282126 104.87523548087449 0 -1 0 0.66913061440640931 0 -0.74314481823134659 forward_v I I I I #
coedge $-1 $377 $378 $379 $380 reversed $141 $-1 #
coedge $-1 $230 $143 $381 $382 reversed $90 $-1 #
coedge $-1 $143 $229 $377 $383 reversed $90 $-1 #
coedge $-1 $379 $384 $143 $232 forward $385 $-1 #
edge $-1 $386 10.060399118846533 $387 13.587403780296214 $231 $388 forward 7 unknown #
loop $-1 $-1 $238 $144 #
plane-surface $-1 -59.483016449476622 -10.368790257775331 16.466244586477515 -0.66913061440640931 0 0.74314481823134659 0.74314481823134659 0 0.66913061440640931 forward_v I I I I #
loop $-1 $-1 $389 $92 #
coedge $-1 $236 $236 $237 $390 reversed $145 $-1 #
coedge $-1 $237 $237 $236 $390 forward $147 $-1 #
coedge $-1 $238 $238 $148 $239 forward $233 $-1 #
edge $-1 $391 0 $391 6.2831853071796004 $238 $392 forward 7 unknown #
loop $-1 $-1 $245 $149 #
plane-surface $-1 -59.483016449476622 -10.368790257775331 16.466244586477515 -0.66913061440640931 0 0.74314481823134659 0.74314481823134659 0 0.66913061440640931 forward_v I I I I #
loop $-1 $-1 $393 $95 #
coedge $-1 $243 $243 $244 $394 reversed $150 $-1 #
coedge $-1 $244 $244 $243 $394 forward $152 $-1 #
coedge $-1 $245 $245 $153 $246 forward $240 $-1 #
edge $-1 $395 0 $395 6.2831853071796004 $245 $396 forward 7 unknown #
face $-1 $397 $398 $54 $-1 $399 forward single #
loop $-1 $-1 $400 $154 #
plane-surface $-1 -139.08683113664628 3.0504653224932117 104.87523548087449 0 -1 0 0.66913061440640931 0 -0.74314481823134659 forward_v I I I I #
coedge $-1 $401 $402 $403 $404 reversed $155 $-1 #
coedge $-1 $252 $157 $405 $406 reversed $99 $-1 #
coedge $-1 $157 $251 $401 $407 reversed $99 $-1 #
coedge $-1 $403 $408 $157 $254 forward $398 $-1 #
edge $-1 $409 10.060399118846533 $410 13.587403780296214 $253 $411 forward 7 unknown #
loop $-1 $-1 $260 $158 #
plane-surface $-1 -59.483016449476622 7.1054273576010019e-015 16.466244586477515 -0.66913061440640931 0 0.74314481823134659 0.74314481823134659 0 0.66913061440640931 forward_v I I I I #
loop $-1 $-1 $412 $101 #
coedge $-1 $258 $258 $259 $413 reversed $159 $-1 #
coedge $-1 $259 $259 $258 $413 forward $161 $-1 #
coedge $-1 $260 $260 $162 $261 forward $255 $-1 #
edge $-1 $414 0 $414 6.2831853071796004 $260 $415 forward 7 unknown #
loop $-1 $-1 $267 $163 #
plane-surface $-1 -59.483016449476622 7.1054273576010019e-015 16.466244586477515 -0.66913061440640931 0 0.74314481823134659 0.74314481823134659 0 0.66913061440640931 forward_v I I I I #
loop $-1 $-1 $416 $104 #
coedge $-1 $265 $265 $266 $417 reversed $164 $-1 #
coedge $-1 $266 $266 $265 $417 forward $166 $-1 #
coedge $-1 $267 $267 $167 $268 forward $262 $-1 #
edge $-1 $418 0 $418 6.2831853071796004 $267 $419 forward 7 unknown #
face $-1 $420 $421 $57 $-1 $422 forward single #
loop $-1 $-1 $423 $168 #
plane-surface $-1 -139.08683113664628 13.419255580268549 104.87523548087449 0 -1 0 0.66913061440640931 0 -0.74314481823134659 forward_v I I I I #
coedge $-1 $424 $425 $426 $427 reversed $169 $-1 #
coedge $-1 $274 $171 $428 $429 reversed $108 $-1 #
coedge $-1 $171 $273 $424 $430 reversed $108 $-1 #
coedge $-1 $426 $431 $171 $276 forward $421 $-1 #
edge $-1 $432 10.060399118846533 $433 13.587403780296214 $275 $434 forward 7 unknown #
loop $-1 $-1 $282 $172 #
plane-surface $-1 -59.483016449476622 10.368790257775345 16.466244586477515 -0.66913061440640931 0 0.74314481823134659 0.74314481823134659 0 0.66913061440640931 forward_v I I I I #
loop $-1 $-1 $435 $110 #
coedge $-1 $280 $280 $281 $436 reversed $173 $-1 #
coedge $-1 $281 $281 $280 $436 forward $175 $-1 #
coedge $-1 $282 $282 $176 $283 forward $277 $-1 #
edge $-1 $437 0 $437 6.2831853071796004 $282 $438 forward 7 unknown #
loop $-1 $-1 $289 $177 #
plane-surface $-1 -59.483016449476622 10.368790257775345 16.466244586477515 -0.66913061440640931 0 0.74314481823134659 0.74314481823134659 0 0.66913061440640931 forward_v I I I I #
loop $-1 $-1 $439 $113 #
coedge $-1 $287 $287 $288 $440 reversed $178 $-1 #
coedge $-1 $288 $288 $287 $440 forward $180 $-1 #
coedge $-1 $289 $289 $181 $290 forward $284 $-1 #
edge $-1 $441 0 $441 6.2831853071796004 $289 $442 forward 7 unknown #
face $-1 $443 $444 $60 $-1 $445 forward single #
loop $-1 $-1 $446 $182 #
plane-surface $-1 71.219083293264575 -12.080076866875078 182.15751662390019 0 1 0 0.75470958851134928 0 0.65605901945558964 forward_v I I I I #
coedge $-1 $447 $448 $449 $450 reversed $183 $-1 #
coedge $-1 $296 $185 $451 $452 reversed $117 $-1 #
coedge $-1 $185 $295 $447 $453 reversed $117 $-1 #
coedge $-1 $449 $454 $185 $298 forward $444 $-1 #
edge $-1 $455 -23.873474802844321 $456 -19.250606378875183 $297 $457 forward 7 unknown #
loop $-1 $-1 $304 $186 #
plane-surface $-1 -18.565722442732053 -7.5273386007943728 104.10877773169153 0.75470958851134928 0 0.65605901945558964 0.65605901945558964 0 -0.75470958851134928 forward_v I I I I #
loop $-1 $-1 $458 $119 #
coedge $-1 $302 $302 $303 $459 reversed $187 $-1 #
coedge $-1 $303 $303 $302 $459 forward $189 $-1 #
coedge $-1 $304 $304 $190 $305 forward $299 $-1 #
edge $-1 $460 0 $460 6.2831853071796004 $304 $461 forward 7 unknown #
loop $-1 $-1 $311 $191 #
plane-surface $-1 -18.565722442732053 -7.5273386007943728 104.10877773169153 0.75470958851134928 0 0.65605901945558964 0.65605901945558964 0 -0.75470958851134928 forward_v I I I I #
loop $-1 $-1 $462 $122 #
coedge $-1 $309 $309 $310 $463 reversed $192 $-1 #
coedge $-1 $310 $310 $309 $463 forward $194 $-1 #
coedge $-1 $311 $311 $195 $312 forward $306 $-1 #
edge $-1 $464 0 $464 6.2831853071796004 $311 $465 forward 7 unknown #
loop $-1 $-1 $318 $196 #
plane-surface $-1 -18.565722442732053 -7.5273386007943728 104.10877773169153 0.75470958851134928 0 0.65605901945558964 0.65605901945558964 0 -0.75470958851134928 forward_v I I I I #
loop $-1 $-1 $466 $125 #
coedge $-1 $316 $316 $317 $467 reversed $197 $-1 #
coedge $-1 $317 $317 $316 $467 forward $199 $-1 #
coedge $-1 $318 $318 $200 $319 forward $313 $-1 #
edge $-1 $468 0 $468 6.2831853071796004 $318 $469 forward 7 unknown #
face $-1 $470 $471 $48 $-1 $472 reversed single #
loop $-1 $-1 $473 $201 #
plane-surface $-1 -59.483016449476608 0 0 1 0 0 0 0 -1 forward_v I I I I #
coedge $-1 $474 $331 $475 $476 forward $202 $-1 #
coedge $-1 $477 $204 $474 $478 forward $129 $-1 #
coedge $-1 $204 $477 $479 $480 forward $129 $-1 #
coedge $-1 $334 $333 $204 $327 reversed $335 $-1 #
edge $-1 $481 -41.503050739346257 $482 41.503050739346257 $326 $483 forward 7 unknown #
coedge $-1 $206 $205 $484 $485 forward $81 $-1 #
coedge $-1 $486 $487 $205 $330 reversed $471 $-1 #
edge $-1 $337 -59.483016449476608 $488 59.483016449476608 $329 $489 forward 7 unknown #
coedge $-1 $323 $490 $206 $332 reversed $202 $-1 #
edge $-1 $491 -59.483016449476608 $336 59.483016449476608 $331 $492 forward 7 unknown #
coedge $-1 $326 $207 $490 $493 forward $335 $-1 #
coedge $-1 $207 $326 $486 $494 reversed $335 $-1 #
loop $-1 $-1 $333 $470 #
vertex $-1 $208 $495 #
vertex $-1 $208 $496 #
straight-curve $-1 59.483016449476608 0 19.641973917063268 0 1 0 I I #
face $-1 $497 $498 $49 $-1 $499 forward single #
loop $-1 $-1 $348 $209 #
plane-surface $-1 0 -41.503050739346257 0 0 1 0 0 0 1 forward_v I I I I #
coedge $-1 $500 $501 $502 $503 forward $210 $-1 #
coedge $-1 $502 $212 $214 $350 reversed $133 $-1 #
coedge $-1 $212 $502 $504 $505 reversed $133 $-1 #
coedge $-1 $506 $215 $212 $346 forward $352 $-1 #
edge $-1 $354 6.0654417853666409 $507 11.072835349586629 $345 $508 forward 7 unknown #
coedge $-1 $214 $213 $500 $509 reversed $84 $-1 #
coedge $-1 $510 $511 $213 $349 forward $340 $-1 #
edge $-1 $512 -59.483016449476608 $353 59.483016449476608 $348 $513 forward 7 unknown #
edge $-1 $514 -59.483016449476608 $354 59.483016449476608 $343 $515 forward 7 unknown #
coedge $-1 $215 $506 $510 $516 forward $352 $-1 #
loop $-1 $-1 $345 $497 #
vertex $-1 $349 $517 #
vertex $-1 $216 $518 #
straight-curve $-1 59.483016449476608 -14.277191001881874 14.634580352843276 0 1 0 I I #
face $-1 $519 $520 $50 $-1 $521 reversed single #
loop $-1 $-1 $369 $217 #
plane-surface $-1 59.483016449476608 0 0 -1 0 0 0 0 1 forward_v I I I I #
coedge $-1 $522 $523 $361 $524 forward $218 $-1 #
coedge $-1 $525 $220 $221 $365 reversed $137 $-1 #
coedge $-1 $220 $525 $359 $524 reversed $137 $-1 #
coedge $-1 $526 $527 $220 $363 forward $520 $-1 #
edge $-1 $528 6.0654417853666409 $529 11.072835349586629 $362 $530 forward 7 unknown #
coedge $-1 $222 $221 $527 $531 reversed $87 $-1 #
edge $-1 $370 -59.483016449476608 $528 59.483016449476608 $360 $532 forward 7 unknown #
coedge $-1 $533 $534 $222 $367 forward $535 $-1 #
edge $-1 $371 -59.483016449476608 $536 59.483016449476608 $366 $537 forward 7 unknown #
coedge $-1 $538 $223 $534 $539 reversed $357 $-1 #
coedge $-1 $223 $538 $525 $540 forward $357 $-1 #
vertex $-1 $224 $541 #
vertex $-1 $367 $542 #
straight-curve $-1 59.483016449476608 14.277191001881878 14.634580352843276 0 1 0 I I #
face $-1 $-1 $385 $51 $-1 $543 forward single #
loop $-1 $-1 $544 $225 #
plane-surface $-1 -59.483016449476608 0 0 1 0 0 0 0 -1 forward_v I I I I #
coedge $-1 $545 $546 $547 $548 reversed $226 $-1 #
coedge $-1 $549 $228 $230 $383 forward $141 $-1 #
coedge $-1 $228 $549 $545 $550 forward $141 $-1 #
coedge $-1 $547 $231 $228 $380 forward $385 $-1 #
edge $-1 $387 -8.2348604513808699 $551 -2.1339298063944607 $379 $552 forward 7 unknown #
coedge $-1 $553 $554 $229 $382 forward $374 $-1 #
edge $-1 $555 -35.971373153959718 $386 -32.795643823373979 $381 $556 forward 7 unknown #
edge $-1 $387 -4.7460529561974454 $555 -2.0069640991064205e-014 $230 $557 forward 7 unknown #
coedge $-1 $231 $547 $553 $558 forward $385 $-1 #
loop $-1 $-1 $547 $373 #
vertex $-1 $382 $559 #
vertex $-1 $232 $560 #
straight-curve $-1 -69.543415568323141 -13.419255580268535 19.641973917063268 1 0 0 I I #
coedge $-1 $389 $389 $-1 $561 reversed $235 $-1 #
edge $-1 $562 0 $562 6.2831853071796004 $236 $563 forward 7 unknown #
vertex $-1 $239 $564 #
ellipse-curve $-1 -57.719514118751768 -11.676132538843849 18.054109251770399 -0.66913061440640931 0 0.74314481823134659 0.3715724091156733 0 0.33456530720320465 1 I I #
coedge $-1 $393 $393 $-1 $565 reversed $242 $-1 #
edge $-1 $566 0 $566 6.2831853071796004 $243 $567 forward 7 unknown #
vertex $-1 $246 $568 #
ellipse-curve $-1 -57.719514118751768 -9.0614479767068161 18.054109251770399 -0.66913061440640931 0 0.74314481823134659 0.3715724091156733 0 0.33456530720320465 1 I I #
face $-1 $-1 $569 $54 $-1 $570 reversed single #
loop $-1 $-1 $253 $247 #
plane-surface $-1 0 0 19.641973917063268 0 0 1 1 0 0 forward_v I I I I #
coedge $-1 $571 $572 $573 $574 reversed $248 $-1 #
coedge $-1 $575 $250 $252 $407 forward $155 $-1 #
coedge $-1 $250 $575 $571 $576 forward $155 $-1 #
coedge $-1 $573 $253 $250 $404 forward $398 $-1 #
edge $-1 $410 -3.050465322493201 $577 3.0504653224932081 $403 $578 forward 7 unknown #
coedge $-1 $579 $580 $251 $406 forward $569 $-1 #
edge $-1 $581 -35.971373153959718 $409 -32.795643823373979 $405 $582 forward 7 unknown #
edge $-1 $410 -4.7460529561974454 $581 -2.0069640991064205e-014 $252 $583 forward 7 unknown #
coedge $-1 $253 $573 $579 $584 forward $398 $-1 #
vertex $-1 $254 $585 #
vertex $-1 $254 $586 #
straight-curve $-1 -69.543415568323141 -3.0504653224931975 19.641973917063268 1 0 0 I I #
coedge $-1 $412 $412 $-1 $587 reversed $257 $-1 #
edge $-1 $588 0 $588 6.2831853071796004 $258 $589 forward 7 unknown #
vertex $-1 $261 $590 #
ellipse-curve $-1 -57.719514118751768 -1.3073422810685145 18.054109251770399 -0.66913061440640931 0 0.74314481823134659 0.3715724091156733 0 0.33456530720320465 1 I I #
coedge $-1 $416 $416 $-1 $591 reversed $264 $-1 #
edge $-1 $592 0 $592 6.2831853071796004 $265 $593 forward 7 unknown #
vertex $-1 $268 $594 #
ellipse-curve $-1 -57.719514118751768 1.3073422810685216 18.054109251770399 -0.66913061440640931 0 0.74314481823134659 0.3715724091156733 0 0.33456530720320465 1 I I #
face $-1 $-1 $595 $57 $-1 $596 reversed single #
loop $-1 $-1 $275 $269 #
plane-surface $-1 0 0 19.641973917063268 0 0 1 1 0 0 forward_v I I I I #
coedge $-1 $597 $598 $599 $600 reversed $270 $-1 #
coedge $-1 $601 $272 $274 $430 forward $169 $-1 #
coedge $-1 $272 $601 $597 $602 forward $169 $-1 #
coedge $-1 $599 $275 $272 $427 forward $421 $-1 #
edge $-1 $433 2.1339298063944678 $603 8.234860451380877 $426 $604 forward 7 unknown #
coedge $-1 $605 $606 $273 $429 forward $595 $-1 #
edge $-1 $607 -35.971373153959718 $432 -32.795643823373979 $428 $608 forward 7 unknown #
edge $-1 $433 -4.7460529561974454 $607 -2.0069640991064205e-014 $274 $609 forward 7 unknown #
coedge $-1 $275 $599 $605 $610 forward $421 $-1 #
vertex $-1 $276 $611 #
vertex $-1 $276 $612 #
straight-curve $-1 -69.543415568323141 7.3183249352821402 19.641973917063268 1 0 0 I I #
coedge $-1 $435 $435 $-1 $613 reversed $279 $-1 #
edge $-1 $614 0 $614 6.2831853071796004 $280 $615 forward 7 unknown #
vertex $-1 $283 $616 #
ellipse-curve $-1 -57.719514118751768 9.0614479767068232 18.054109251770399 -0.66913061440640931 0 0.74314481823134659 0.3715724091156733 0 0.33456530720320465 1 I I #
coedge $-1 $439 $439 $-1 $617 reversed $286 $-1 #
edge $-1 $618 0 $618 6.2831853071796004 $287 $619 forward 7 unknown #
vertex $-1 $290 $620 #
ellipse-curve $-1 -57.719514118751768 11.676132538843859 18.054109251770399 -0.66913061440640931 0 0.74314481823134659 0.3715724091156733 0 0.33456530720320465 1 I I #
face $-1 $-1 $621 $60 $-1 $622 reversed single #
loop $-1 $-1 $297 $291 #
plane-surface $-1 0 0 19.641973917063268 0 0 1 1 0 0 forward_v I I I I #
coedge $-1 $623 $624 $625 $626 reversed $292 $-1 #
coedge $-1 $627 $294 $296 $453 forward $183 $-1 #
coedge $-1 $294 $627 $623 $628 forward $183 $-1 #
coedge $-1 $625 $297 $294 $450 forward $444 $-1 #
edge $-1 $456 -0.78906896568351925 $629 8.316407566477892 $449 $630 forward 7 unknown #
coedge $-1 $631 $632 $295 $452 forward $621 $-1 #
edge $-1 $633 -76.754786316255178 $455 -71.436784394886828 $451 $634 forward 7 unknown #
edge $-1 $456 111.91961133187336 $633 118.96603289895323 $296 $635 forward 7 unknown #
coedge $-1 $297 $625 $631 $636 forward $444 $-1 #
vertex $-1 $452 $637 #
vertex $-1 $298 $638 #
straight-curve $-1 35.609541646632287 -2.9746003347136671 19.641973917063268 -1 0 0 I I #
coedge $-1 $458 $458 $-1 $639 reversed $301 $-1 #
edge $-1 $640 0 $640 6.2831853071796004 $302 $641 forward 7 unknown #
vertex $-1 $305 $642 #
ellipse-curve $-1 57.171582237492046 -10.258981560442791 16.982972956379093 0.75470958851134928 0 0.65605901945558964 0.32802950972779482 0 -0.37735479425567464 1 I I #
coedge $-1 $462 $462 $-1 $643 reversed $308 $-1 #
edge $-1 $644 0 $644 6.2831853071796004 $309 $645 forward 7 unknown #
vertex $-1 $312 $646 #
ellipse-curve $-1 57.171582237492046 -7.5273386007943657 16.982972956379093 0.75470958851134928 0 0.65605901945558964 0.32802950972779482 0 -0.37735479425567464 1 I I #
coedge $-1 $466 $466 $-1 $647 reversed $315 $-1 #
edge $-1 $648 0 $648 6.2831853071796004 $316 $649 forward 7 unknown #
vertex $-1 $319 $650 #
ellipse-curve $-1 57.171582237492046 -4.7956956411459402 16.982972956379093 0.75470958851134928 0 0.65605901945558964 0.32802950972779482 0 -0.37735479425567464 1 I I #
face $-1 $-1 $335 $48 $-1 $651 reversed single #
loop $-1 $-1 $486 $320 #
plane-surface $-1 0 41.503050739346257 0 0 -1 0 0 0 -1 forward_v I I I I #
coedge $-1 $652 $484 $487 $653 forward $321 $-1 #
coedge $-1 $490 $323 $324 $478 reversed $202 $-1 #
coedge $-1 $484 $652 $323 $476 reversed $321 $-1 #
edge $-1 $491 -19.641973917063268 $654 19.641973917063268 $475 $655 forward 7 unknown #
coedge $-1 $325 $324 $652 $656 forward $129 $-1 #
edge $-1 $482 -59.483016449476608 $654 59.483016449476608 $474 $657 forward 7 unknown #
coedge $-1 $487 $486 $325 $480 reversed $471 $-1 #
edge $-1 $658 -59.483016449476608 $481 59.483016449476608 $479 $659 forward 7 unknown #
vertex $-1 $327 $660 #
vertex $-1 $493 $661 #
straight-curve $-1 59.483016449476608 0 -19.641973917063268 0 -1 0 I I #
coedge $-1 $473 $475 $328 $485 reversed $321 $-1 #
edge $-1 $488 -41.503050739346257 $491 41.503050739346257 $484 $662 forward 7 unknown #
coedge $-1 $479 $329 $334 $494 forward $471 $-1 #
coedge $-1 $329 $479 $473 $653 reversed $471 $-1 #
vertex $-1 $330 $663 #
straight-curve $-1 0 41.503050739346257 19.641973917063268 -1 0 0 I I #
coedge $-1 $331 $474 $333 $493 reversed $202 $-1 #
vertex $-1 $485 $664 #
straight-curve $-1 0 -41.503050739346257 19.641973917063268 1 0 0 I I #
edge $-1 $336 -19.641973917063268 $482 19.641973917063268 $333 $665 forward 7 unknown #
edge $-1 $337 -19.641973917063268 $481 19.641973917063268 $334 $666 forward 7 unknown #
point $-1 59.483016449476608 -41.503050739346257 19.641973917063268 #
point $-1 59.483016449476608 41.503050739346257 19.641973917063268 #
face $-1 $-1 $352 $49 $-1 $667 reversed single #
loop $-1 $-1 $504 $339 #
plane-surface $-1 0 0 19.641973917063268 0 0 1 1 0 0 forward_v I I I I #
coedge $-1 $668 $342 $347 $509 forward $210 $-1 #
coedge $-1 $342 $668 $669 $670 reversed $210 $-1 #
coedge $-1 $344 $343 $342 $503 reversed $133 $-1 #
edge $-1 $671 -11.072835349586629 $514 -6.0654417853666409 $342 $672 forward 7 unknown #
coedge $-1 $669 $673 $344 $505 forward $498 $-1 #
edge $-1 $507 -59.483016449476608 $671 59.483016449476608 $504 $674 forward 7 unknown #
coedge $-1 $351 $345 $673 $675 reversed $352 $-1 #
vertex $-1 $346 $676 #
straight-curve $-1 59.483016449476608 -15.60571326818124 8.5691385674766352 0 0 1 I I #
edge $-1 $514 1.3285222662993661 $512 27.225859737464383 $500 $677 forward 7 unknown #
coedge $-1 $678 $348 $351 $516 reversed $340 $-1 #
coedge $-1 $348 $678 $668 $679 forward $340 $-1 #
vertex $-1 $349 $680 #
straight-curve $-1 0 -41.503050739346257 14.634580352843276 1 0 0 I I #
vertex $-1 $509 $681 #
straight-curve $-1 0 -15.60571326818124 14.634580352843276 1 0 0 I I #
edge $-1 $682 -19.641973917063268 $353 -14.634580352843276 $351 $683 forward 7 unknown #
point $-1 59.483016449476608 -41.503050739346257 14.634580352843276 #
point $-1 59.483016449476608 -15.60571326818124 14.634580352843276 #
face $-1 $-1 $535 $50 $-1 $684 reversed single #
loop $-1 $-1 $362 $356 #
plane-surface $-1 -59.483016449476608 0 0 1 0 0 0 0 -1 forward_v I I I I #
coedge $-1 $685 $359 $538 $686 forward $218 $-1 #
coedge $-1 $359 $685 $526 $687 forward $218 $-1 #
edge $-1 $529 -59.483016449476608 $688 59.483016449476608 $359 $689 forward 7 unknown #
coedge $-1 $361 $360 $369 $540 reversed $137 $-1 #
coedge $-1 $690 $362 $523 $687 reversed $520 $-1 #
coedge $-1 $362 $690 $364 $531 forward $520 $-1 #
vertex $-1 $531 $691 #
vertex $-1 $363 $692 #
straight-curve $-1 -59.483016449476608 15.605713268181248 8.5691385674766352 0 0 1 I I #
edge $-1 $536 -27.225859737464386 $528 -1.3285222662993696 $527 $693 forward 7 unknown #
straight-curve $-1 0 15.605713268181248 14.634580352843276 -1 0 0 I I #
coedge $-1 $694 $366 $690 $695 reversed $535 $-1 #
coedge $-1 $366 $694 $368 $539 forward $535 $-1 #
loop $-1 $-1 $366 $519 #
vertex $-1 $367 $696 #
straight-curve $-1 0 41.503050739346257 14.634580352843276 -1 0 0 I I #
coedge $-1 $369 $368 $522 $686 reversed $357 $-1 #
edge $-1 $697 -19.641973917063268 $371 -14.634580352843276 $368 $698 forward 7 unknown #
edge $-1 $688 -11.072835349586629 $370 -6.0654417853666409 $369 $699 forward 7 unknown #
point $-1 59.483016449476608 15.605713268181248 14.634580352843276 #
point $-1 59.483016449476608 41.503050739346264 14.634580352843276 #
plane-surface $-1 0 0 19.641973917063268 0 0 1 1 0 0 forward_v I I I I #
coedge $-1 $554 $553 $546 $700 forward $374 $-1 #
coedge $-1 $546 $376 $378 $550 reversed $226 $-1 #
coedge $-1 $376 $545 $544 $700 reversed $226 $-1 #
coedge $-1 $384 $379 $376 $548 forward $385 $-1 #
edge $-1 $551 -13.587403780296214 $701 -10.060399118846533 $547 $702 forward 7 unknown #
coedge $-1 $378 $377 $554 $703 reversed $141 $-1 #
edge $-1 $704 2.0069640991064205e-014 $551 4.7460529561974454 $545 $705 forward 7 unknown #
vertex $-1 $380 $706 #
straight-curve $-1 -55.956011788026927 -5.1843951288876653 19.641973917063268 0 1 0 I I #
coedge $-1 $544 $381 $384 $558 reversed $374 $-1 #
coedge $-1 $381 $544 $549 $703 forward $374 $-1 #
vertex $-1 $382 $707 #
straight-curve $-1 -59.483016449476608 -13.419255580268535 52.437617740437247 0 0 1 I I #
straight-curve $-1 -59.483016449476622 -13.419255580268535 16.466244586477515 -0.74314481823134659 0 -0.66913061440640931 I I #
edge $-1 $701 7.318324935282126 $386 13.419255580268535 $553 $708 forward 7 unknown #
point $-1 -59.483016449476608 -13.419255580268535 19.641973917063268 #
point $-1 -55.956011788026927 -13.419255580268535 19.641973917063268 #
edge $-1 $709 1 $709 0 $389 $-1 forward 7 unknown #
vertex $-1 $390 $710 #
ellipse-curve $-1 -57.050383504345341 -11.676132538843849 17.310964433539034 -0.66913061440640931 0 0.74314481823134659 0.3715724091156733 0 0.33456530720320465 1 I I #
point $-1 -57.347941709636075 -11.676132538843849 18.388674558973587 #
edge $-1 $711 1 $711 0 $393 $-1 forward 7 unknown #
vertex $-1 $394 $712 #
ellipse-curve $-1 -57.050383504345341 -9.0614479767068161 17.310964433539034 -0.66913061440640931 0 0.74314481823134659 0.3715724091156733 0 0.33456530720320465 1 I I #
point $-1 -57.347941709636075 -9.0614479767068161 18.388674558973587 #
loop $-1 $-1 $405 $397 #
plane-surface $-1 -59.483016449476608 0 0 1 0 0 0 0 -1 forward_v I I I I #
coedge $-1 $572 $400 $402 $576 reversed $248 $-1 #
coedge $-1 $400 $571 $713 $714 reversed $248 $-1 #
coedge $-1 $408 $403 $400 $574 forward $398 $-1 #
edge $-1 $577 -13.587403780296214 $715 -10.060399118846533 $573 $716 forward 7 unknown #
coedge $-1 $402 $401 $580 $717 reversed $155 $-1 #
edge $-1 $718 2.0069640991064205e-014 $577 4.7460529561974454 $571 $719 forward 7 unknown #
vertex $-1 $404 $720 #
straight-curve $-1 -55.956011788026927 3.5527136788005009e-015 19.641973917063268 0 1 0 I I #
coedge $-1 $713 $405 $408 $584 reversed $569 $-1 #
coedge $-1 $405 $713 $575 $717 forward $569 $-1 #
vertex $-1 $406 $721 #
straight-curve $-1 -59.483016449476608 -3.0504653224931975 52.437617740437247 0 0 1 I I #
straight-curve $-1 -59.483016449476622 -3.0504653224931975 16.466244586477515 -0.74314481823134659 0 -0.66913061440640931 I I #
edge $-1 $715 -3.0504653224932117 $409 3.0504653224931975 $579 $722 forward 7 unknown #
point $-1 -59.483016449476608 -3.0504653224931975 19.641973917063268 #
point $-1 -55.956011788026927 -3.0504653224931975 19.641973917063268 #
edge $-1 $723 1 $723 0 $412 $-1 forward 7 unknown #
vertex $-1 $413 $724 #
ellipse-curve $-1 -57.050383504345341 -1.3073422810685145 17.310964433539034 -0.66913061440640931 0 0.74314481823134659 0.3715724091156733 0 0.33456530720320465 1 I I #
point $-1 -57.347941709636075 -1.3073422810685145 18.388674558973587 #
edge $-1 $725 1 $725 0 $416 $-1 forward 7 unknown #
vertex $-1 $417 $726 #
ellipse-curve $-1 -57.050383504345341 1.3073422810685216 17.310964433539034 -0.66913061440640931 0 0.74314481823134659 0.3715724091156733 0 0.33456530720320465 1 I I #
point $-1 -57.347941709636075 1.3073422810685216 18.388674558973587 #
loop $-1 $-1 $428 $420 #
plane-surface $-1 -59.483016449476608 0 0 1 0 0 0 0 -1 forward_v I I I I #
coedge $-1 $598 $423 $425 $602 reversed $270 $-1 #
coedge $-1 $423 $597 $727 $728 reversed $270 $-1 #
coedge $-1 $431 $426 $423 $600 forward $421 $-1 #
edge $-1 $603 -13.587403780296214 $729 -10.060399118846533 $599 $730 forward 7 unknown #
coedge $-1 $425 $424 $606 $731 reversed $169 $-1 #
edge $-1 $732 2.0069640991064205e-014 $603 4.7460529561974454 $597 $733 forward 7 unknown #
vertex $-1 $427 $734 #
straight-curve $-1 -55.956011788026927 5.1843951288876724 19.641973917063268 0 1 0 I I #
coedge $-1 $727 $428 $431 $610 reversed $595 $-1 #
coedge $-1 $428 $727 $601 $731 forward $595 $-1 #
vertex $-1 $429 $735 #
straight-curve $-1 -59.483016449476608 7.3183249352821402 52.437617740437247 0 0 1 I I #
straight-curve $-1 -59.483016449476622 7.3183249352821402 16.466244586477515 -0.74314481823134659 0 -0.66913061440640931 I I #
edge $-1 $729 -13.419255580268549 $432 -7.3183249352821402 $605 $736 forward 7 unknown #
point $-1 -59.483016449476608 7.3183249352821402 19.641973917063268 #
point $-1 -55.956011788026927 7.3183249352821402 19.641973917063268 #
edge $-1 $737 1 $737 0 $435 $-1 forward 7 unknown #
vertex $-1 $436 $738 #
ellipse-curve $-1 -57.050383504345341 9.0614479767068232 17.310964433539034 -0.66913061440640931 0 0.74314481823134659 0.3715724091156733 0 0.33456530720320465 1 I I #
point $-1 -57.347941709636075 9.0614479767068232 18.388674558973587 #
edge $-1 $739 1 $739 0 $439 $-1 forward 7 unknown #
vertex $-1 $440 $740 #
ellipse-curve $-1 -57.050383504345341 11.676132538843859 17.310964433539034 -0.66913061440640931 0 0.74314481823134659 0.3715724091156733 0 0.33456530720320465 1 I I #
point $-1 -57.347941709636075 11.676132538843859 18.388674558973587 #
loop $-1 $-1 $451 $443 #
plane-surface $-1 59.483016449476608 0 0 -1 0 0 0 0 1 forward_v I I I I #
coedge $-1 $624 $446 $448 $628 reversed $292 $-1 #
coedge $-1 $446 $623 $741 $742 reversed $292 $-1 #
coedge $-1 $454 $449 $446 $626 forward $444 $-1 #
edge $-1 $629 19.250606378875183 $743 23.873474802844321 $625 $744 forward 7 unknown #
coedge $-1 $448 $447 $632 $745 reversed $183 $-1 #
edge $-1 $746 -118.96603289895323 $629 -111.91961133187336 $623 $747 forward 7 unknown #
vertex $-1 $450 $748 #
straight-curve $-1 54.860148025507463 -3.7636693003971864 19.641973917063261 0 -1 0 I I #
coedge $-1 $741 $451 $454 $636 reversed $621 $-1 #
coedge $-1 $451 $741 $627 $745 forward $621 $-1 #
vertex $-1 $452 $749 #
straight-curve $-1 59.483016449476608 -2.9746003347136671 91.078758311950097 0 0 1 I I #
straight-curve $-1 -18.565722442732053 -2.9746003347136671 104.10877773169153 0.65605901945558964 0 -0.75470958851134928 I I #
edge $-1 $743 -12.080076866875078 $455 -2.9746003347136671 $631 $750 forward 7 unknown #
point $-1 59.483016449476608 -2.9746003347136671 19.641973917063268 #
point $-1 54.86014802550747 -2.9746003347136671 19.641973917063268 #
edge $-1 $751 1 $751 0 $458 $-1 forward 7 unknown #
vertex $-1 $459 $752 #
ellipse-curve $-1 55.774447042646337 -10.258981560442791 15.768461891553017 0.75470958851134928 0 0.65605901945558964 0.32802950972779482 0 -0.37735479425567464 1 I I #
point $-1 57.499611747219852 -10.258981560442791 16.605618162123431 #
edge $-1 $753 1 $753 0 $462 $-1 forward 7 unknown #
vertex $-1 $463 $754 #
ellipse-curve $-1 55.774447042646337 -7.5273386007943657 15.768461891553017 0.75470958851134928 0 0.65605901945558964 0.32802950972779482 0 -0.37735479425567464 1 I I #
point $-1 57.499611747219852 -7.5273386007943657 16.605618162123431 #
edge $-1 $755 1 $755 0 $466 $-1 forward 7 unknown #
vertex $-1 $467 $756 #
ellipse-curve $-1 55.774447042646337 -4.7956956411459402 15.768461891553017 0.75470958851134928 0 0.65605901945558964 0.32802950972779482 0 -0.37735479425567464 1 I I #
point $-1 57.499611747219852 -4.7956956411459402 16.605618162123431 #
plane-surface $-1 59.483016449476608 0 0 -1 0 0 0 0 1 forward_v I I I I #
coedge $-1 $475 $473 $477 $656 reversed $321 $-1 #
edge $-1 $488 -19.641973917063268 $658 19.641973917063268 $487 $757 forward 7 unknown #
vertex $-1 $656 $758 #
straight-curve $-1 -59.483016449476608 -41.503050739346257 0 0 0 -1 I I #
edge $-1 $654 -41.503050739346257 $658 41.503050739346257 $652 $759 forward 7 unknown #
straight-curve $-1 0 -41.503050739346257 -19.641973917063268 -1 0 0 I I #
vertex $-1 $480 $760 #
straight-curve $-1 0 41.503050739346257 -19.641973917063268 1 0 0 I I #
point $-1 59.483016449476608 41.503050739346257 -19.641973917063268 #
point $-1 59.483016449476608 -41.503050739346257 -19.641973917063268 #
straight-curve $-1 -59.483016449476608 0 19.641973917063268 0 -1 0 I I #
point $-1 -59.483016449476608 41.503050739346257 19.641973917063268 #
point $-1 -59.483016449476608 -41.503050739346257 19.641973917063268 #
straight-curve $-1 59.483016449476608 -41.503050739346257 0 0 0 -1 I I #
straight-curve $-1 59.483016449476608 41.503050739346257 0 0 0 -1 I I #
plane-surface $-1 59.483016449476608 0 0 -1 0 0 0 0 1 forward_v I I I I #
coedge $-1 $501 $500 $511 $679 reversed $210 $-1 #
coedge $-1 $761 $504 $501 $670 forward $498 $-1 #
edge $-1 $671 15.60571326818124 $762 41.503050739346257 $501 $763 forward 7 unknown #
vertex $-1 $670 $764 #
straight-curve $-1 -59.483016449476608 -15.60571326818124 8.5691385674766352 0 0 -1 I I #
coedge $-1 $504 $761 $506 $675 forward $498 $-1 #
straight-curve $-1 0 -15.60571326818124 19.641973917063268 -1 0 0 I I #
edge $-1 $682 -41.503050739346257 $507 -15.60571326818124 $506 $765 forward 7 unknown #
point $-1 59.483016449476608 -15.60571326818124 19.641973917063265 #
straight-curve $-1 -59.483016449476608 -14.277191001881874 14.634580352843276 0 -1 0 I I #
coedge $-1 $511 $510 $761 $766 reversed $340 $-1 #
edge $-1 $762 -19.641973917063268 $512 -14.634580352843276 $668 $767 forward 7 unknown #
point $-1 -59.483016449476608 -41.503050739346257 14.634580352843276 #
point $-1 -59.483016449476608 -15.60571326818124 14.634580352843276 #
vertex $-1 $675 $768 #
straight-curve $-1 59.483016449476608 -41.503050739346257 0 0 0 -1 I I #
plane-surface $-1 0 41.503050739346257 0 0 -1 0 0 0 -1 forward_v I I I I #
coedge $-1 $523 $522 $694 $769 forward $218 $-1 #
edge $-1 $688 15.605713268181248 $697 41.503050739346257 $538 $770 forward 7 unknown #
edge $-1 $771 -41.503050739346257 $529 -15.605713268181248 $526 $772 forward 7 unknown #
vertex $-1 $686 $773 #
straight-curve $-1 0 15.605713268181248 19.641973917063268 1 0 0 I I #
coedge $-1 $527 $526 $533 $695 forward $520 $-1 #
point $-1 -59.483016449476608 15.605713268181248 14.634580352843276 #
point $-1 -59.483016449476608 15.605713268181248 19.641973917063265 #
straight-curve $-1 -59.483016449476608 14.277191001881878 14.634580352843276 0 -1 0 I I #
coedge $-1 $534 $533 $685 $769 reversed $535 $-1 #
edge $-1 $771 -19.641973917063268 $536 -14.634580352843276 $533 $774 forward 7 unknown #
point $-1 -59.483016449476608 41.503050739346264 14.634580352843276 #
vertex $-1 $686 $775 #
straight-curve $-1 59.483016449476608 41.503050739346257 0 0 0 -1 I I #
straight-curve $-1 59.483016449476608 15.605713268181248 8.5691385674766352 0 0 -1 I I #
edge $-1 $701 32.795643823373979 $704 35.971373153959718 $544 $776 forward 7 unknown #
vertex $-1 $558 $777 #
straight-curve $-1 -69.543415568323141 -7.318324935282126 19.641973917063268 -1 0 0 I I #
edge $-1 $704 2.1339298063944607 $555 8.2348604513808699 $554 $778 forward 7 unknown #
vertex $-1 $703 $779 #
straight-curve $-1 -59.483016449476622 -7.318324935282126 16.466244586477515 0.74314481823134659 0 0.66913061440640931 I I #
point $-1 -55.956011788026927 -7.318324935282126 19.641973917063268 #
point $-1 -59.483016449476608 -13.419255580268535 16.466244586477529 #
straight-curve $-1 -59.483016449476608 0 19.641973917063268 0 -1 0 I I #
vertex $-1 $561 $780 #
point $-1 -56.678811095229669 -11.676132538843849 17.645529740742241 #
vertex $-1 $565 $781 #
point $-1 -56.678811095229669 -9.0614479767068161 17.645529740742241 #
coedge $-1 $580 $579 $572 $714 forward $569 $-1 #
edge $-1 $715 32.795643823373979 $718 35.971373153959718 $713 $782 forward 7 unknown #
vertex $-1 $584 $783 #
straight-curve $-1 -69.543415568323141 3.0504653224932117 19.641973917063268 -1 0 0 I I #
edge $-1 $718 -3.0504653224932081 $581 3.050465322493201 $580 $784 forward 7 unknown #
vertex $-1 $717 $785 #
straight-curve $-1 -59.483016449476622 3.0504653224932117 16.466244586477515 0.74314481823134659 0 0.66913061440640931 I I #
point $-1 -55.956011788026927 3.0504653224932117 19.641973917063268 #
point $-1 -59.483016449476608 -3.0504653224931975 16.466244586477529 #
straight-curve $-1 -59.483016449476608 0 19.641973917063268 0 -1 0 I I #
vertex $-1 $587 $786 #
point $-1 -56.678811095229669 -1.3073422810685145 17.645529740742241 #
vertex $-1 $591 $787 #
point $-1 -56.678811095229669 1.3073422810685216 17.645529740742241 #
coedge $-1 $606 $605 $598 $728 forward $595 $-1 #
edge $-1 $729 32.795643823373979 $732 35.971373153959718 $727 $788 forward 7 unknown #
vertex $-1 $610 $789 #
straight-curve $-1 -69.543415568323141 13.419255580268549 19.641973917063268 -1 0 0 I I #
edge $-1 $732 -8.234860451380877 $607 -2.1339298063944678 $606 $790 forward 7 unknown #
vertex $-1 $731 $791 #
straight-curve $-1 -59.483016449476622 13.419255580268549 16.466244586477515 0.74314481823134659 0 0.66913061440640931 I I #
point $-1 -55.956011788026927 13.419255580268549 19.641973917063268 #
point $-1 -59.483016449476608 7.3183249352821402 16.466244586477529 #
straight-curve $-1 -59.483016449476608 0 19.641973917063268 0 -1 0 I I #
vertex $-1 $613 $792 #
point $-1 -56.678811095229669 9.0614479767068232 17.645529740742241 #
vertex $-1 $617 $793 #
point $-1 -56.678811095229669 11.676132538843859 17.645529740742241 #
coedge $-1 $632 $631 $624 $742 forward $621 $-1 #
edge $-1 $743 71.436784394886828 $746 76.754786316255178 $741 $794 forward 7 unknown #
vertex $-1 $636 $795 #
straight-curve $-1 35.609541646632287 -12.080076866875078 19.641973917063268 1 0 0 I I #
edge $-1 $746 -8.316407566477892 $633 0.78906896568351925 $632 $796 forward 7 unknown #
vertex $-1 $745 $797 #
straight-curve $-1 -18.565722442732053 -12.080076866875078 104.10877773169153 -0.65605901945558964 0 0.75470958851134928 I I #
point $-1 54.86014802550747 -12.080076866875078 19.641973917063268 #
point $-1 59.483016449476608 -2.9746003347136671 14.323971995694919 #
straight-curve $-1 59.483016449476608 0 19.641973917063268 0 1 0 I I #
vertex $-1 $639 $798 #
point $-1 56.102476552374128 -10.258981560442791 15.391107097297342 #
vertex $-1 $643 $799 #
point $-1 56.102476552374128 -7.5273386007943657 15.391107097297342 #
vertex $-1 $647 $800 #
point $-1 56.102476552374128 -4.7956956411459402 15.391107097297342 #
straight-curve $-1 -59.483016449476608 41.503050739346257 0 0 0 -1 I I #
point $-1 -59.483016449476608 -41.503050739346257 -19.641973917063268 #
straight-curve $-1 -59.483016449476608 0 -19.641973917063268 0 1 0 I I #
point $-1 -59.483016449476608 41.503050739346257 -19.641973917063268 #
coedge $-1 $673 $669 $678 $766 forward $498 $-1 #
vertex $-1 $670 $801 #
straight-curve $-1 -59.483016449476608 0 19.641973917063268 0 -1 0 I I #
point $-1 -59.483016449476608 -15.60571326818124 19.641973917063265 #
straight-curve $-1 59.483016449476608 0 19.641973917063268 0 1 0 I I #
edge $-1 $762 -59.483016449476608 $682 59.483016449476608 $678 $802 forward 7 unknown #
straight-curve $-1 -59.483016449476608 -41.503050739346257 0 0 0 -1 I I #
point $-1 59.483016449476608 -41.503050739346257 19.641973917063268 #
edge $-1 $697 -59.483016449476608 $771 59.483016449476608 $694 $803 forward 7 unknown #
straight-curve $-1 59.483016449476608 0 19.641973917063268 0 1 0 I I #
vertex $-1 $769 $804 #
straight-curve $-1 -59.483016449476608 0 19.641973917063268 0 -1 0 I I #
point $-1 59.483016449476608 15.605713268181248 19.641973917063265 #
straight-curve $-1 -59.483016449476608 41.503050739346257 0 0 0 -1 I I #
point $-1 59.483016449476608 41.503050739346257 19.641973917063268 #
straight-curve $-1 -59.483016449476608 -7.318324935282126 52.437617740437247 0 0 -1 I I #
point $-1 -59.483016449476608 -7.318324935282126 19.641973917063268 #
straight-curve $-1 -59.483016449476608 -5.1843951288876653 16.466244586477529 0 -1 0 I I #
point $-1 -59.483016449476608 -7.318324935282126 16.466244586477529 #
point $-1 -56.715818197142134 -11.676132538843849 16.939392024423363 #
point $-1 -56.715818197142134 -9.0614479767068161 16.939392024423363 #
straight-curve $-1 -59.483016449476608 3.0504653224932117 52.437617740437247 0 0 -1 I I #
point $-1 -59.483016449476608 3.0504653224932117 19.641973917063268 #
straight-curve $-1 -59.483016449476608 3.5527136788005009e-015 16.466244586477529 0 -1 0 I I #
point $-1 -59.483016449476608 3.0504653224932117 16.466244586477529 #
point $-1 -56.715818197142134 -1.3073422810685145 16.939392024423363 #
point $-1 -56.715818197142134 1.3073422810685216 16.939392024423363 #
straight-curve $-1 -59.483016449476608 13.419255580268549 52.437617740437247 0 0 -1 I I #
point $-1 -59.483016449476608 13.419255580268549 19.641973917063268 #
straight-curve $-1 -59.483016449476608 5.1843951288876724 16.466244586477529 0 -1 0 I I #
point $-1 -59.483016449476608 13.419255580268549 16.466244586477529 #
point $-1 -56.715818197142134 9.0614479767068232 16.939392024423363 #
point $-1 -56.715818197142134 11.676132538843859 16.939392024423363 #
straight-curve $-1 59.483016449476608 -12.080076866875078 91.078758311950097 0 0 -1 I I #
point $-1 59.483016449476608 -12.080076866875078 19.641973917063268 #
straight-curve $-1 59.483016449476608 -3.7636693003971864 14.323971995694897 0 1 0 I I #
point $-1 59.483016449476608 -12.080076866875078 14.323971995694919 #
point $-1 55.397092248390656 -10.258981560442791 15.440432381825218 #
point $-1 55.397092248390656 -7.5273386007943657 15.440432381825218 #
point $-1 55.397092248390656 -4.7956956411459402 15.440432381825218 #
point $-1 -59.483016449476608 -41.503050739346257 19.641973917063268 #
straight-curve $-1 0 -41.503050739346257 19.641973917063268 1 0 0 I I #
straight-curve $-1 0 41.503050739346257 19.641973917063268 -1 0 0 I I #
point $-1 -59.483016449476608 41.503050739346257 19.641973917063268 #
End-of-ACIS-data 