500 0 15 0           
7 Unknown 11 ACIS 5.0 NT 24 Thu Mar 25 15:08:20 1999 
-1 9.9999999999999995e-007 1e-010 
body $-1 $15 $-1 $16 #
body $-1 $17 $-1 $18 #
body $-1 $19 $-1 $20 #
body $-1 $21 $-1 $22 #
body $-1 $23 $-1 $24 #
body $-1 $25 $-1 $26 #
body $-1 $27 $-1 $28 #
body $-1 $29 $-1 $30 #
body $-1 $31 $-1 $32 #
body $-1 $33 $-1 $34 #
body $-1 $35 $-1 $36 #
body $-1 $37 $-1 $38 #
body $-1 $39 $-1 $40 #
body $-1 $41 $-1 $42 #
body $-1 $43 $-1 $44 #
lump $-1 $-1 $45 $0 #
transform $-1 1 0 0 0 1 0 0 0 1 59.273049104281746 33.315154657382955 6.8131001116709857 1 rotate no_reflect no_shear #
lump $-1 $-1 $46 $1 #
transform $-1 1 0 0 0 1 0 0 0 1 59.273049104281746 33.315154657382955 6.8131001116709857 1 rotate no_reflect no_shear #
lump $-1 $-1 $47 $2 #
transform $-1 1 0 0 0 1 0 0 0 1 59.273049104281746 33.315154657382955 6.8131001116709857 1 rotate no_reflect no_shear #
lump $-1 $-1 $48 $3 #
transform $-1 1 0 0 0 1 0 0 0 1 59.273049104281746 33.315154657382955 6.8131001116709857 1 rotate no_reflect no_shear #
lump $-1 $-1 $49 $4 #
transform $-1 1 0 0 0 1 0 0 0 1 59.273049104281746 33.315154657382955 6.8131001116709857 1 rotate no_reflect no_shear #
lump $-1 $-1 $50 $5 #
transform $-1 1 0 0 0 1 0 0 0 1 59.273049104281746 33.315154657382955 6.8131001116709857 1 rotate no_reflect no_shear #
lump $-1 $-1 $51 $6 #
transform $-1 1 0 0 0 1 0 0 0 1 59.273049104281746 33.315154657382955 6.8131001116709857 1 rotate no_reflect no_shear #
lump $-1 $-1 $52 $7 #
transform $-1 1 0 0 0 1 0 0 0 1 59.273049104281746 33.315154657382955 6.8131001116709857 1 rotate no_reflect no_shear #
lump $-1 $-1 $53 $8 #
transform $-1 1 0 0 0 1 0 0 0 1 59.273049104281746 33.315154657382955 6.8131001116709857 1 rotate no_reflect no_shear #
lump $-1 $-1 $54 $9 #
transform $-1 1 0 0 0 1 0 0 0 1 59.273049104281746 33.315154657382955 6.8131001116709857 1 rotate no_reflect no_shear #
lump $-1 $-1 $55 $10 #
transform $-1 1 0 0 0 1 0 0 0 1 59.273049104281746 33.315154657382955 6.8131001116709857 1 rotate no_reflect no_shear #
lump $-1 $-1 $56 $11 #
transform $-1 1 0 0 0 1 0 0 0 1 59.273049104281746 33.315154657382955 6.8131001116709857 1 rotate no_reflect no_shear #
lump $-1 $-1 $57 $12 #
transform $-1 1 0 0 0 1 0 0 0 1 59.273049104281746 33.315154657382955 6.8131001116709857 1 rotate no_reflect no_shear #
lump $-1 $-1 $58 $13 #
transform $-1 1 0 0 0 1 0 0 0 1 59.273049104281746 33.315154657382955 6.8131001116709857 1 rotate no_reflect no_shear #
lump $-1 $-1 $59 $14 #
transform $-1 1 0 0 0 1 0 0 0 1 59.273049104281746 33.315154657382955 6.8131001116709857 1 rotate no_reflect no_shear #
shell $-1 $-1 $-1 $60 $-1 $15 #
shell $-1 $-1 $-1 $61 $-1 $17 #
shell $-1 $-1 $-1 $62 $-1 $19 #
shell $-1 $-1 $-1 $63 $-1 $21 #
shell $-1 $-1 $-1 $64 $-1 $23 #
shell $-1 $-1 $-1 $65 $-1 $25 #
shell $-1 $-1 $-1 $66 $-1 $27 #
shell $-1 $-1 $-1 $67 $-1 $29 #
shell $-1 $-1 $-1 $68 $-1 $31 #
shell $-1 $-1 $-1 $69 $-1 $33 #
shell $-1 $-1 $-1 $70 $-1 $35 #
shell $-1 $-1 $-1 $71 $-1 $37 #
shell $-1 $-1 $-1 $72 $-1 $39 #
shell $-1 $-1 $-1 $73 $-1 $41 #
shell $-1 $-1 $-1 $74 $-1 $43 #
face $-1 $75 $76 $45 $-1 $77 forward single #
face $-1 $78 $79 $46 $-1 $80 forward single #
face $-1 $81 $82 $47 $-1 $83 reversed single #
face $-1 $84 $85 $48 $-1 $86 reversed single #
face $-1 $87 $88 $49 $-1 $89 forward single #
face $-1 $90 $91 $50 $-1 $92 forward single #
face $-1 $93 $94 $51 $-1 $95 forward single #
face $-1 $96 $97 $52 $-1 $98 reversed single #
face $-1 $99 $100 $53 $-1 $101 forward single #
face $-1 $102 $103 $54 $-1 $104 forward single #
face $-1 $105 $106 $55 $-1 $107 forward single #
face $-1 $108 $109 $56 $-1 $110 reversed single #
face $-1 $111 $112 $57 $-1 $113 forward single #
face $-1 $114 $115 $58 $-1 $116 forward single #
face $-1 $117 $118 $59 $-1 $119 forward single #
face $-1 $120 $121 $45 $-1 $122 reversed single #
loop $-1 $-1 $123 $60 #
plane-surface $-1 0 0 6.8131001116709857 0 0 1 1 0 0 forward_v I I I I #
face $-1 $124 $125 $46 $-1 $126 reversed single #
loop $-1 $-1 $127 $61 #
plane-surface $-1 -55.956726309485056 0 6.3131001116709857 0 0 1 1 0 0 forward_v I I I I #
face $-1 $128 $129 $47 $-1 $130 reversed single #
loop $-1 $-1 $131 $62 #
plane-surface $-1 56.118041274530306 0 2.8961549374505697 0 0 1 1 0 0 forward_v I I I I #
face $-1 $132 $133 $48 $-1 $134 reversed single #
loop $-1 $-1 $135 $63 #
plane-surface $-1 -36.338213348604413 -132.73627911855419 66.829742948953296 -1 0 0 0 -0.83867057594974714 0.54463902268945019 forward_v I I I I #
face $-1 $136 $137 $49 $-1 $138 forward single #
loop $-1 $139 $140 $64 #
cone-surface $-1 -49.379965481471579 -30.784147646774883 3.8544050315642591 0 0.83867057594974714 -0.54463902268945019 1 0 0 1 I I 0 1 1 forward I I I I #
face $-1 $141 $142 $50 $-1 $143 forward single #
loop $-1 $144 $145 $65 #
cone-surface $-1 -44.489308431646393 -30.784147646774883 3.8544050315642591 0 0.83867057594974714 -0.54463902268945019 1 0 0 1 I I 0 1 1 forward I I I I #
face $-1 $146 $147 $51 $-1 $148 forward single #
loop $-1 $149 $150 $66 #
cone-surface $-1 -39.598651381821199 -30.784147646774883 3.8544050315642591 0 0.83867057594974714 -0.54463902268945019 1 0 0 1 I I 0 1 1 forward I I I I #
face $-1 $151 $152 $52 $-1 $153 reversed single #
loop $-1 $-1 $154 $67 #
plane-surface $-1 -37.193709353149913 79.069616260925955 131.61767068876119 1 0 0 0 -0.75470958851134928 -0.65605901945558964 forward_v I I I I #
face $-1 $155 $156 $53 $-1 $157 forward single #
loop $-1 $158 $159 $68 #
cone-surface $-1 -33.227787377233838 30.845686503909871 4.2687355175586159 0 -0.75470958851134928 -0.65605901945558964 1 0 0 1 I I 0 1 1 forward I I I I #
face $-1 $160 $161 $54 $-1 $162 forward single #
loop $-1 $163 $164 $69 #
cone-surface $-1 -27.278904413359726 30.845686503909871 4.2687355175586159 0 -0.75470958851134928 -0.65605901945558964 1 0 0 1 I I 0 1 1 forward I I I I #
face $-1 $165 $166 $55 $-1 $167 forward single #
loop $-1 $168 $169 $70 #
cone-surface $-1 -21.330021449485614 30.845686503909871 4.2687355175586159 0 -0.75470958851134928 -0.65605901945558964 1 0 0 1 I I 0 1 1 forward I I I I #
face $-1 $170 $171 $56 $-1 $172 reversed single #
loop $-1 $-1 $173 $71 #
plane-surface $-1 17.686729403660035 79.069616260925955 131.61767068876119 1 0 0 0 -0.75470958851134928 -0.65605901945558964 forward_v I I I I #
face $-1 $174 $175 $57 $-1 $176 forward single #
loop $-1 $177 $178 $72 #
cone-surface $-1 21.65265137957612 30.845686503909871 4.2687355175586159 0 -0.75470958851134928 -0.65605901945558964 1 0 0 1 I I 0 1 1 forward I I I I #
face $-1 $179 $180 $58 $-1 $181 forward single #
loop $-1 $182 $183 $73 #
cone-surface $-1 27.601534343450219 30.845686503909871 4.2687355175586159 0 -0.75470958851134928 -0.65605901945558964 1 0 0 1 I I 0 1 1 forward I I I I #
face $-1 $184 $185 $59 $-1 $186 forward single #
loop $-1 $187 $188 $74 #
cone-surface $-1 33.550417307324345 30.845686503909871 4.2687355175586159 0 -0.75470958851134928 -0.65605901945558964 1 0 0 1 I I 0 1 1 forward I I I I #
face $-1 $189 $190 $45 $-1 $191 reversed single #
loop $-1 $-1 $192 $75 #
plane-surface $-1 0 0 -6.8131001116709857 0 0 1 1 0 0 forward_v I I I I #
coedge $-1 $193 $194 $195 $196 forward $76 $-1 #
face $-1 $197 $198 $46 $-1 $199 reversed single #
loop $-1 $-1 $200 $78 #
plane-surface $-1 -55.956726309485056 0 3.3131001116709857 0 0 1 1 0 0 forward_v I I I I #
coedge $-1 $201 $202 $203 $204 forward $79 $-1 #
face $-1 $205 $206 $47 $-1 $207 reversed single #
loop $-1 $-1 $208 $81 #
plane-surface $-1 52.963033444778866 0 4.8546275245607777 1 0 0 0 0 -1 forward_v I I I I #
coedge $-1 $209 $210 $211 $212 reversed $82 $-1 #
face $-1 $213 $214 $48 $-1 $215 forward single #
loop $-1 $-1 $216 $84 #
plane-surface $-1 -44.489308431646393 -33.315154657382962 2.2649118769936933 0 -0.83867057594974714 0.54463902268945019 1 0 0 forward_v I I I I #
coedge $-1 $217 $218 $219 $220 reversed $85 $-1 #
face $-1 $-1 $221 $49 $-1 $222 forward single #
loop $-1 $223 $224 $87 #
cone-surface $-1 -49.379965481471579 -29.310619288121273 2.8974845574514525 0 0.83867057594974714 -0.54463902268945019 0.5 0 0 1 I I -0.70710678118654746 0.70710678118654746 0.5 forward I I I I #
loop $-1 $-1 $225 $64 #
coedge $-1 $140 $140 $226 $227 reversed $88 $-1 #
face $-1 $-1 $228 $50 $-1 $229 forward single #
loop $-1 $230 $231 $90 #
cone-surface $-1 -44.489308431646393 -29.310619288121273 2.8974845574514525 0 0.83867057594974714 -0.54463902268945019 0.5 0 0 1 I I -0.70710678118654746 0.70710678118654746 0.5 forward I I I I #
loop $-1 $-1 $232 $65 #
coedge $-1 $145 $145 $233 $234 reversed $91 $-1 #
face $-1 $-1 $235 $51 $-1 $236 forward single #
loop $-1 $237 $238 $93 #
cone-surface $-1 -39.598651381821199 -29.310619288121273 2.8974845574514525 0 0.83867057594974714 -0.54463902268945019 0.5 0 0 1 I I -0.70710678118654746 0.70710678118654746 0.5 forward I I I I #
loop $-1 $-1 $239 $66 #
coedge $-1 $150 $150 $240 $241 reversed $94 $-1 #
face $-1 $242 $243 $52 $-1 $244 reversed single #
loop $-1 $-1 $245 $96 #
plane-surface $-1 -27.278904413359729 -10.398260737684993 53.844433737765002 0 0.75470958851134928 0.65605901945558964 1 0 0 forward_v I I I I #
coedge $-1 $246 $247 $248 $249 reversed $97 $-1 #
face $-1 $-1 $250 $53 $-1 $251 forward single #
loop $-1 $252 $253 $99 #
cone-surface $-1 -33.227787377233838 29.41371448382462 3.0239412633368925 0 -0.75470958851134928 -0.65605901945558964 0.5 0 0 1 I I -0.70710678118654746 0.70710678118654746 0.5 forward I I I I #
loop $-1 $-1 $254 $68 #
coedge $-1 $159 $159 $255 $256 reversed $100 $-1 #
face $-1 $-1 $257 $54 $-1 $258 forward single #
loop $-1 $259 $260 $102 #
cone-surface $-1 -27.278904413359726 29.41371448382462 3.0239412633368925 0 -0.75470958851134928 -0.65605901945558964 0.5 0 0 1 I I -0.70710678118654746 0.70710678118654746 0.5 forward I I I I #
loop $-1 $-1 $261 $69 #
coedge $-1 $164 $164 $262 $263 reversed $103 $-1 #
face $-1 $-1 $264 $55 $-1 $265 forward single #
loop $-1 $266 $267 $105 #
cone-surface $-1 -21.330021449485614 29.41371448382462 3.0239412633368925 0 -0.75470958851134928 -0.65605901945558964 0.5 0 0 1 I I -0.70710678118654746 0.70710678118654746 0.5 forward I I I I #
loop $-1 $-1 $268 $70 #
coedge $-1 $169 $169 $269 $270 reversed $106 $-1 #
face $-1 $271 $272 $56 $-1 $273 reversed single #
loop $-1 $-1 $274 $108 #
plane-surface $-1 27.601534343450219 -10.398260737684993 53.844433737765002 0 0.75470958851134928 0.65605901945558964 1 0 0 forward_v I I I I #
coedge $-1 $275 $276 $277 $278 reversed $109 $-1 #
face $-1 $-1 $279 $57 $-1 $280 forward single #
loop $-1 $281 $282 $111 #
cone-surface $-1 21.65265137957612 29.41371448382462 3.0239412633368925 0 -0.75470958851134928 -0.65605901945558964 0.5 0 0 1 I I -0.70710678118654746 0.70710678118654746 0.5 forward I I I I #
loop $-1 $-1 $283 $72 #
coedge $-1 $178 $178 $284 $285 reversed $112 $-1 #
face $-1 $-1 $286 $58 $-1 $287 forward single #
loop $-1 $288 $289 $114 #
cone-surface $-1 27.601534343450219 29.41371448382462 3.0239412633368925 0 -0.75470958851134928 -0.65605901945558964 0.5 0 0 1 I I -0.70710678118654746 0.70710678118654746 0.5 forward I I I I #
loop $-1 $-1 $290 $73 #
coedge $-1 $183 $183 $291 $292 reversed $115 $-1 #
face $-1 $-1 $293 $59 $-1 $294 forward single #
loop $-1 $295 $296 $117 #
cone-surface $-1 33.550417307324345 29.41371448382462 3.0239412633368925 0 -0.75470958851134928 -0.65605901945558964 0.5 0 0 1 I I -0.70710678118654746 0.70710678118654746 0.5 forward I I I I #
loop $-1 $-1 $297 $74 #
coedge $-1 $188 $188 $298 $299 reversed $118 $-1 #
face $-1 $300 $301 $45 $-1 $302 reversed single #
loop $-1 $-1 $303 $120 #
plane-surface $-1 0 -33.315154657382955 0 0 1 0 0 0 1 forward_v I I I I #
coedge $-1 $304 $305 $306 $307 forward $121 $-1 #
coedge $-1 $308 $123 $309 $310 forward $76 $-1 #
coedge $-1 $123 $308 $311 $312 forward $76 $-1 #
coedge $-1 $313 $314 $123 $196 reversed $315 $-1 #
edge $-1 $316 -33.315154657382955 $317 33.315154657382955 $195 $318 forward 7 unknown #
face $-1 $319 $320 $46 $-1 $321 reversed single #
loop $-1 $-1 $322 $124 #
plane-surface $-1 -52.640403514688366 0 4.8131001116709857 -1 0 0 0 0 1 forward_v I I I I #
coedge $-1 $323 $324 $322 $325 forward $125 $-1 #
coedge $-1 $326 $127 $327 $328 reversed $79 $-1 #
coedge $-1 $127 $326 $329 $330 reversed $79 $-1 #
coedge $-1 $331 $332 $127 $204 reversed $198 $-1 #
edge $-1 $333 -33.315154657382955 $334 33.315154657382955 $203 $335 forward 7 unknown #
face $-1 $336 $337 $47 $-1 $338 reversed single #
loop $-1 $-1 $339 $128 #
plane-surface $-1 0 -33.315154657382955 0 0 1 0 0 0 1 forward_v I I I I #
coedge $-1 $340 $341 $342 $343 reversed $129 $-1 #
coedge $-1 $344 $131 $345 $346 reversed $82 $-1 #
coedge $-1 $131 $344 $347 $348 reversed $82 $-1 #
coedge $-1 $349 $350 $131 $212 forward $337 $-1 #
edge $-1 $351 -33.315154657382955 $352 33.315154657382955 $211 $353 forward 7 unknown #
face $-1 $354 $355 $48 $-1 $356 forward single #
loop $-1 $-1 $219 $132 #
plane-surface $-1 0 0 6.8131001116709857 0 0 1 1 0 0 forward_v I I I I #
coedge $-1 $357 $358 $359 $360 reversed $133 $-1 #
coedge $-1 $218 $135 $361 $362 reversed $85 $-1 #
coedge $-1 $135 $217 $357 $363 reversed $85 $-1 #
coedge $-1 $359 $364 $135 $220 forward $214 $-1 #
edge $-1 $365 33.052984901894142 $366 36.0066127817528 $219 $367 forward 7 unknown #
loop $-1 $-1 $226 $136 #
plane-surface $-1 -44.489308431646393 -33.315154657382962 2.2649118769936933 0 -0.83867057594974714 0.54463902268945019 1 0 0 forward_v I I I I #
loop $-1 $-1 $368 $87 #
coedge $-1 $224 $224 $225 $369 reversed $137 $-1 #
coedge $-1 $225 $225 $224 $369 forward $139 $-1 #
coedge $-1 $226 $226 $140 $227 forward $221 $-1 #
edge $-1 $370 -1.0446099212668148e-015 $370 6.2831853071795996 $226 $371 forward 7 unknown #
loop $-1 $-1 $233 $141 #
plane-surface $-1 -44.489308431646393 -33.315154657382962 2.2649118769936933 0 -0.83867057594974714 0.54463902268945019 1 0 0 forward_v I I I I #
loop $-1 $-1 $372 $90 #
coedge $-1 $231 $231 $232 $373 reversed $142 $-1 #
coedge $-1 $232 $232 $231 $373 forward $144 $-1 #
coedge $-1 $233 $233 $145 $234 forward $228 $-1 #
edge $-1 $374 -1.0446099212668148e-015 $374 6.2831853071795996 $233 $375 forward 7 unknown #
loop $-1 $-1 $240 $146 #
plane-surface $-1 -44.489308431646393 -33.315154657382962 2.2649118769936933 0 -0.83867057594974714 0.54463902268945019 1 0 0 forward_v I I I I #
loop $-1 $-1 $376 $93 #
coedge $-1 $238 $238 $239 $377 reversed $147 $-1 #
coedge $-1 $239 $239 $238 $377 forward $149 $-1 #
coedge $-1 $240 $240 $150 $241 forward $235 $-1 #
edge $-1 $378 -1.0446099212668148e-015 $378 6.2831853071795996 $240 $379 forward 7 unknown #
face $-1 $380 $381 $52 $-1 $382 reversed single #
loop $-1 $-1 $383 $151 #
plane-surface $-1 -17.364099473569546 79.069616260925955 131.61767068876119 -1 0 0 0 0.75470958851134928 0.65605901945558964 forward_v I I I I #
coedge $-1 $384 $385 $386 $387 reversed $152 $-1 #
coedge $-1 $247 $154 $388 $389 reversed $97 $-1 #
coedge $-1 $154 $246 $384 $390 reversed $97 $-1 #
coedge $-1 $386 $391 $154 $249 forward $392 $-1 #
edge $-1 $393 6.2196534730800224 $394 9.0493553283670423 $248 $395 forward 7 unknown #
loop $-1 $-1 $255 $155 #
plane-surface $-1 -27.278904413359729 -10.398260737684993 53.844433737765002 0 0.75470958851134928 0.65605901945558964 1 0 0 forward_v I I I I #
loop $-1 $-1 $396 $99 #
coedge $-1 $253 $253 $254 $397 reversed $156 $-1 #
coedge $-1 $254 $254 $253 $397 forward $158 $-1 #
coedge $-1 $255 $255 $159 $256 forward $250 $-1 #
edge $-1 $398 -6.70316769656542e-016 $398 6.2831853071795996 $255 $399 forward 7 unknown #
loop $-1 $-1 $262 $160 #
plane-surface $-1 -27.278904413359729 -10.398260737684993 53.844433737765002 0 0.75470958851134928 0.65605901945558964 1 0 0 forward_v I I I I #
loop $-1 $-1 $400 $102 #
coedge $-1 $260 $260 $261 $401 reversed $161 $-1 #
coedge $-1 $261 $261 $260 $401 forward $163 $-1 #
coedge $-1 $262 $262 $164 $263 forward $257 $-1 #
edge $-1 $402 -6.70316769656542e-016 $402 6.2831853071795996 $262 $403 forward 7 unknown #
loop $-1 $-1 $269 $165 #
plane-surface $-1 -27.278904413359729 -10.398260737684993 53.844433737765002 0 0.75470958851134928 0.65605901945558964 1 0 0 forward_v I I I I #
loop $-1 $-1 $404 $105 #
coedge $-1 $267 $267 $268 $405 reversed $166 $-1 #
coedge $-1 $268 $268 $267 $405 forward $168 $-1 #
coedge $-1 $269 $269 $169 $270 forward $264 $-1 #
edge $-1 $406 -6.70316769656542e-016 $406 6.2831853071795996 $269 $407 forward 7 unknown #
face $-1 $408 $409 $56 $-1 $410 forward single #
loop $-1 $-1 $411 $170 #
plane-surface $-1 37.516339283240399 79.069616260925955 131.61767068876119 -1 0 0 0 0.75470958851134928 0.65605901945558964 forward_v I I I I #
coedge $-1 $412 $413 $414 $415 reversed $171 $-1 #
coedge $-1 $276 $173 $416 $417 reversed $109 $-1 #
coedge $-1 $173 $275 $412 $418 reversed $109 $-1 #
coedge $-1 $414 $419 $173 $278 forward $409 $-1 #
edge $-1 $420 6.2196534730800224 $421 9.0493553283670423 $277 $422 forward 7 unknown #
loop $-1 $-1 $284 $174 #
plane-surface $-1 27.601534343450219 -10.398260737684993 53.844433737765002 0 0.75470958851134928 0.65605901945558964 1 0 0 forward_v I I I I #
loop $-1 $-1 $423 $111 #
coedge $-1 $282 $282 $283 $424 reversed $175 $-1 #
coedge $-1 $283 $283 $282 $424 forward $177 $-1 #
coedge $-1 $284 $284 $178 $285 forward $279 $-1 #
edge $-1 $425 -6.70316769656542e-016 $425 6.2831853071795996 $284 $426 forward 7 unknown #
loop $-1 $-1 $291 $179 #
plane-surface $-1 27.601534343450219 -10.398260737684993 53.844433737765002 0 0.75470958851134928 0.65605901945558964 1 0 0 forward_v I I I I #
loop $-1 $-1 $427 $114 #
coedge $-1 $289 $289 $290 $428 reversed $180 $-1 #
coedge $-1 $290 $290 $289 $428 forward $182 $-1 #
coedge $-1 $291 $291 $183 $292 forward $286 $-1 #
edge $-1 $429 -6.70316769656542e-016 $429 6.2831853071795996 $291 $430 forward 7 unknown #
loop $-1 $-1 $298 $184 #
plane-surface $-1 27.601534343450219 -10.398260737684993 53.844433737765002 0 0.75470958851134928 0.65605901945558964 1 0 0 forward_v I I I I #
loop $-1 $-1 $431 $117 #
coedge $-1 $296 $296 $297 $432 reversed $185 $-1 #
coedge $-1 $297 $297 $296 $432 forward $187 $-1 #
coedge $-1 $298 $298 $188 $299 forward $293 $-1 #
edge $-1 $433 -6.70316769656542e-016 $433 6.2831853071795996 $298 $434 forward 7 unknown #
face $-1 $435 $436 $45 $-1 $437 reversed single #
loop $-1 $-1 $438 $189 #
plane-surface $-1 -59.273049104281746 0 0 1 0 0 0 0 -1 forward_v I I I I #
coedge $-1 $439 $311 $440 $441 forward $190 $-1 #
coedge $-1 $442 $192 $439 $443 forward $121 $-1 #
coedge $-1 $192 $442 $444 $445 forward $121 $-1 #
coedge $-1 $314 $313 $192 $307 reversed $315 $-1 #
edge $-1 $446 -33.315154657382955 $447 33.315154657382955 $306 $448 forward 7 unknown #
coedge $-1 $194 $193 $449 $450 forward $76 $-1 #
coedge $-1 $451 $452 $193 $310 reversed $436 $-1 #
edge $-1 $317 -59.273049104281746 $453 59.273049104281746 $309 $454 forward 7 unknown #
coedge $-1 $303 $455 $194 $312 reversed $190 $-1 #
edge $-1 $456 -59.273049104281746 $316 59.273049104281746 $311 $457 forward 7 unknown #
coedge $-1 $306 $195 $455 $458 forward $315 $-1 #
coedge $-1 $195 $306 $451 $459 reversed $315 $-1 #
loop $-1 $-1 $313 $435 #
vertex $-1 $196 $460 #
vertex $-1 $196 $461 #
straight-curve $-1 59.273049104281746 0 6.8131001116709857 0 1 0 I I #
face $-1 $462 $463 $46 $-1 $464 reversed single #
loop $-1 $-1 $465 $197 #
plane-surface $-1 0 -33.315154657382955 0 0 1 0 0 0 1 forward_v I I I I #
coedge $-1 $332 $331 $200 $325 reversed $198 $-1 #
coedge $-1 $466 $200 $465 $467 reversed $125 $-1 #
coedge $-1 $200 $466 $468 $469 reversed $125 $-1 #
edge $-1 $470 -33.315154657382955 $471 33.315154657382955 $322 $472 forward 7 unknown #
coedge $-1 $202 $201 $473 $474 reversed $79 $-1 #
coedge $-1 $475 $476 $201 $328 forward $477 $-1 #
edge $-1 $478 -31.294685949539218 $334 -24.662040359945838 $327 $479 forward 7 unknown #
coedge $-1 $480 $481 $202 $330 forward $320 $-1 #
edge $-1 $333 24.662040359945838 $482 31.294685949539218 $329 $483 forward 7 unknown #
coedge $-1 $322 $203 $481 $484 reversed $198 $-1 #
coedge $-1 $203 $322 $475 $485 reversed $198 $-1 #
vertex $-1 $330 $486 #
vertex $-1 $328 $487 #
straight-curve $-1 -52.640403514688366 0 6.3131001116709857 0 1 0 I I #
face $-1 $488 $489 $47 $-1 $490 forward single #
loop $-1 $-1 $211 $205 #
plane-surface $-1 59.273049104281746 0 0 -1 0 0 0 0 1 forward_v I I I I #
coedge $-1 $345 $491 $492 $493 forward $206 $-1 #
coedge $-1 $492 $208 $344 $494 reversed $129 $-1 #
coedge $-1 $208 $492 $495 $496 reversed $129 $-1 #
coedge $-1 $497 $347 $208 $343 forward $498 $-1 #
edge $-1 $499 0.46884117517018087 $500 4.3857863493905969 $342 $501 forward 7 unknown #
coedge $-1 $210 $209 $340 $494 forward $82 $-1 #
coedge $-1 $502 $339 $209 $346 forward $206 $-1 #
edge $-1 $503 24.904012807513713 $351 31.214028467016593 $345 $504 forward 7 unknown #
coedge $-1 $342 $505 $210 $348 forward $498 $-1 #
edge $-1 $352 -31.214028467016593 $499 -24.904012807513713 $347 $506 forward 7 unknown #
coedge $-1 $507 $211 $505 $508 reversed $337 $-1 #
coedge $-1 $211 $507 $502 $509 forward $337 $-1 #
vertex $-1 $212 $510 #
vertex $-1 $212 $511 #
straight-curve $-1 59.273049104281746 0 2.8961549374505697 0 1 0 I I #
face $-1 $-1 $512 $48 $-1 $513 reversed single #
loop $-1 $-1 $514 $213 #
plane-surface $-1 -52.640403514688366 0 4.8131001116709857 -1 0 0 0 0 1 forward_v I I I I #
coedge $-1 $515 $216 $218 $363 forward $133 $-1 #
coedge $-1 $216 $515 $514 $516 forward $133 $-1 #
coedge $-1 $517 $219 $216 $360 forward $214 $-1 #
edge $-1 $366 14.093559132781216 $518 30.395749298865177 $359 $519 forward 7 unknown #
coedge $-1 $520 $521 $217 $362 forward $512 $-1 #
edge $-1 $522 -31.149959597482944 $365 -26.601771362805664 $361 $523 forward 7 unknown #
edge $-1 $366 -5.423092648179205 $522 -1.3181006846785195e-014 $218 $524 forward 7 unknown #
coedge $-1 $219 $517 $520 $525 forward $214 $-1 #
vertex $-1 $362 $526 #
vertex $-1 $220 $527 #
straight-curve $-1 -36.338213348604413 -66.368139559277097 6.8131001116709839 0 1 0 I I #
coedge $-1 $368 $368 $-1 $528 reversed $223 $-1 #
edge $-1 $529 0 $529 6.2831853071796004 $224 $530 forward 7 unknown #
vertex $-1 $227 $531 #
ellipse-curve $-1 -49.379965481471579 -31.838340717453626 4.539005994332344 0 -0.83867057594974714 0.54463902268945019 1 0 0 1 I I #
coedge $-1 $372 $372 $-1 $532 reversed $230 $-1 #
edge $-1 $533 0 $533 6.2831853071796004 $231 $534 forward 7 unknown #
vertex $-1 $234 $535 #
ellipse-curve $-1 -44.489308431646393 -31.838340717453626 4.539005994332344 0 -0.83867057594974714 0.54463902268945019 1 0 0 1 I I #
coedge $-1 $376 $376 $-1 $536 reversed $237 $-1 #
edge $-1 $537 0 $537 6.2831853071796004 $238 $538 forward 7 unknown #
vertex $-1 $241 $539 #
ellipse-curve $-1 -39.598651381821199 -31.838340717453626 4.539005994332344 0 -0.83867057594974714 0.54463902268945019 1 0 0 1 I I #
face $-1 $-1 $392 $52 $-1 $540 forward single #
loop $-1 $-1 $541 $242 #
plane-surface $-1 0 33.315154657382955 0 0 -1 0 0 0 -1 forward_v I I I I #
coedge $-1 $542 $543 $544 $545 reversed $243 $-1 #
coedge $-1 $546 $245 $247 $390 forward $152 $-1 #
coedge $-1 $245 $546 $542 $547 forward $152 $-1 #
coedge $-1 $544 $248 $245 $387 forward $392 $-1 #
edge $-1 $394 -23.55425714647005 $548 -3.7246472668896811 $386 $549 forward 7 unknown #
coedge $-1 $550 $551 $246 $389 forward $381 $-1 #
edge $-1 $552 -62.250934931946475 $393 -58.995735232709613 $388 $553 forward 7 unknown #
edge $-1 $394 62.317127464701308 $552 66.630309314765896 $247 $554 forward 7 unknown #
coedge $-1 $248 $544 $550 $555 forward $392 $-1 #
loop $-1 $-1 $544 $380 #
vertex $-1 $389 $556 #
vertex $-1 $249 $557 #
straight-curve $-1 -37.193709353149913 39.534808130462977 6.8131001116709839 0 -1 0 I I #
coedge $-1 $396 $396 $-1 $558 reversed $252 $-1 #
edge $-1 $559 0 $559 6.2831853071796004 $253 $560 forward 7 unknown #
vertex $-1 $256 $561 #
ellipse-curve $-1 -33.227787377233838 31.900303729739445 5.1855002620525434 0 0.75470958851134928 0.65605901945558964 1 0 0 1 I I #
coedge $-1 $400 $400 $-1 $562 reversed $259 $-1 #
edge $-1 $563 0 $563 6.2831853071796004 $260 $564 forward 7 unknown #
vertex $-1 $263 $565 #
ellipse-curve $-1 -27.278904413359726 31.900303729739445 5.1855002620525434 0 0.75470958851134928 0.65605901945558964 1 0 0 1 I I #
coedge $-1 $404 $404 $-1 $566 reversed $266 $-1 #
edge $-1 $567 0 $567 6.2831853071796004 $267 $568 forward 7 unknown #
vertex $-1 $270 $569 #
ellipse-curve $-1 -21.330021449485614 31.900303729739445 5.1855002620525434 0 0.75470958851134928 0.65605901945558964 1 0 0 1 I I #
face $-1 $-1 $570 $56 $-1 $571 reversed single #
loop $-1 $-1 $277 $271 #
plane-surface $-1 0 0 6.8131001116709857 0 0 1 1 0 0 forward_v I I I I #
coedge $-1 $572 $573 $574 $575 reversed $272 $-1 #
coedge $-1 $576 $274 $276 $418 forward $171 $-1 #
coedge $-1 $274 $576 $572 $577 forward $171 $-1 #
coedge $-1 $574 $277 $274 $415 forward $409 $-1 #
edge $-1 $421 3.8859622319349256 $578 23.715572111515289 $414 $579 forward 7 unknown #
coedge $-1 $580 $581 $275 $417 forward $570 $-1 #
edge $-1 $582 -62.250934931946475 $420 -58.995735232709613 $416 $583 forward 7 unknown #
edge $-1 $421 62.317127464701308 $582 66.630309314765896 $276 $584 forward 7 unknown #
coedge $-1 $277 $574 $580 $585 forward $409 $-1 #
vertex $-1 $278 $586 #
vertex $-1 $278 $587 #
straight-curve $-1 17.686729403660035 39.534808130462977 6.8131001116709839 0 -1 0 I I #
coedge $-1 $423 $423 $-1 $588 reversed $281 $-1 #
edge $-1 $589 0 $589 6.2831853071796004 $282 $590 forward 7 unknown #
vertex $-1 $285 $591 #
ellipse-curve $-1 21.65265137957612 31.900303729739445 5.1855002620525434 0 0.75470958851134928 0.65605901945558964 1 0 0 1 I I #
coedge $-1 $427 $427 $-1 $592 reversed $288 $-1 #
edge $-1 $593 0 $593 6.2831853071796004 $289 $594 forward 7 unknown #
vertex $-1 $292 $595 #
ellipse-curve $-1 27.601534343450219 31.900303729739445 5.1855002620525434 0 0.75470958851134928 0.65605901945558964 1 0 0 1 I I #
coedge $-1 $431 $431 $-1 $596 reversed $295 $-1 #
edge $-1 $597 0 $597 6.2831853071796004 $296 $598 forward 7 unknown #
vertex $-1 $299 $599 #
ellipse-curve $-1 33.550417307324345 31.900303729739445 5.1855002620525434 0 0.75470958851134928 0.65605901945558964 1 0 0 1 I I #
face $-1 $-1 $315 $45 $-1 $600 reversed single #
loop $-1 $-1 $451 $300 #
plane-surface $-1 0 33.315154657382955 0 0 -1 0 0 0 -1 forward_v I I I I #
coedge $-1 $601 $449 $452 $602 forward $301 $-1 #
coedge $-1 $455 $303 $304 $443 reversed $190 $-1 #
coedge $-1 $449 $601 $303 $441 reversed $301 $-1 #
edge $-1 $456 -6.8131001116709857 $603 6.8131001116709857 $440 $604 forward 7 unknown #
coedge $-1 $305 $304 $601 $605 forward $121 $-1 #
edge $-1 $447 -59.273049104281746 $603 59.273049104281746 $439 $606 forward 7 unknown #
coedge $-1 $452 $451 $305 $445 reversed $436 $-1 #
edge $-1 $607 -59.273049104281746 $446 59.273049104281746 $444 $608 forward 7 unknown #
vertex $-1 $307 $609 #
vertex $-1 $458 $610 #
straight-curve $-1 59.273049104281746 0 -6.8131001116709857 0 -1 0 I I #
coedge $-1 $438 $440 $308 $450 reversed $301 $-1 #
edge $-1 $453 -33.315154657382955 $456 33.315154657382955 $449 $611 forward 7 unknown #
coedge $-1 $444 $309 $314 $459 forward $436 $-1 #
coedge $-1 $309 $444 $438 $602 reversed $436 $-1 #
vertex $-1 $310 $612 #
straight-curve $-1 0 33.315154657382955 6.8131001116709857 -1 0 0 I I #
coedge $-1 $311 $439 $313 $458 reversed $190 $-1 #
vertex $-1 $450 $613 #
straight-curve $-1 0 -33.315154657382955 6.8131001116709857 1 0 0 I I #
edge $-1 $316 -6.8131001116709857 $447 6.8131001116709857 $313 $614 forward 7 unknown #
edge $-1 $317 -6.8131001116709857 $446 6.8131001116709857 $314 $615 forward 7 unknown #
point $-1 59.273049104281746 -33.315154657382955 6.8131001116709857 #
point $-1 59.273049104281746 33.315154657382955 6.8131001116709857 #
face $-1 $-1 $477 $46 $-1 $616 reversed single #
loop $-1 $-1 $617 $319 #
plane-surface $-1 -59.273049104281746 0 0 1 0 0 0 0 -1 forward_v I I I I #
coedge $-1 $481 $480 $323 $467 forward $320 $-1 #
coedge $-1 $324 $323 $617 $618 reversed $125 $-1 #
edge $-1 $619 -31.294685949539218 $471 -24.662040359945838 $465 $620 forward 7 unknown #
coedge $-1 $476 $475 $324 $469 forward $477 $-1 #
edge $-1 $470 24.662040359945838 $621 31.294685949539218 $468 $622 forward 7 unknown #
vertex $-1 $469 $623 #
vertex $-1 $467 $624 #
straight-curve $-1 -52.640403514688366 0 3.3131001116709857 0 -1 0 I I #
coedge $-1 $625 $626 $326 $474 forward $463 $-1 #
edge $-1 $482 -33.315154657382955 $478 33.315154657382955 $473 $627 forward 7 unknown #
coedge $-1 $468 $327 $332 $485 forward $477 $-1 #
coedge $-1 $327 $468 $625 $628 reversed $477 $-1 #
loop $-1 $-1 $468 $462 #
vertex $-1 $628 $629 #
straight-curve $-1 -27.978363154742528 33.315154657382955 6.3131001116709857 1 0 0 I I #
coedge $-1 $465 $329 $626 $630 forward $320 $-1 #
coedge $-1 $329 $465 $331 $484 forward $320 $-1 #
vertex $-1 $630 $631 #
straight-curve $-1 -27.978363154742528 -33.315154657382955 6.3131001116709857 -1 0 0 I I #
edge $-1 $471 0.90655005583549286 $333 3.9065500558354929 $481 $632 forward 7 unknown #
edge $-1 $334 -3.9065500558354929 $470 -0.90655005583549286 $475 $633 forward 7 unknown #
point $-1 -52.640403514688366 -33.315154657382955 6.3131001116709857 #
point $-1 -52.640403514688366 33.315154657382955 6.3131001116709857 #
face $-1 $-1 $498 $47 $-1 $634 reversed single #
loop $-1 $-1 $495 $336 #
plane-surface $-1 0 0 6.8131001116709857 0 0 1 1 0 0 forward_v I I I I #
coedge $-1 $339 $502 $635 $636 reversed $206 $-1 #
coedge $-1 $341 $340 $339 $493 reversed $129 $-1 #
edge $-1 $637 -4.3857863493905969 $503 -0.46884117517018087 $339 $638 forward 7 unknown #
edge $-1 $503 -33.315154657382955 $499 33.315154657382955 $340 $639 forward 7 unknown #
coedge $-1 $635 $640 $341 $496 forward $489 $-1 #
edge $-1 $500 -33.315154657382955 $637 33.315154657382955 $495 $641 forward 7 unknown #
coedge $-1 $505 $342 $640 $642 reversed $498 $-1 #
loop $-1 $-1 $342 $488 #
vertex $-1 $348 $643 #
vertex $-1 $343 $644 #
straight-curve $-1 52.963033444778866 33.315154657382955 2.4273137622803889 0 0 1 I I #
coedge $-1 $491 $345 $350 $509 reversed $206 $-1 #
vertex $-1 $346 $645 #
straight-curve $-1 28.059020637265153 -33.315154657382955 2.8961549374505697 1 0 0 I I #
coedge $-1 $347 $497 $349 $508 forward $498 $-1 #
straight-curve $-1 28.059020637265153 33.315154657382955 2.8961549374505697 -1 0 0 I I #
coedge $-1 $350 $349 $646 $647 reversed $337 $-1 #
edge $-1 $648 -6.8131001116709857 $352 -2.8961549374505697 $349 $649 forward 7 unknown #
edge $-1 $650 -6.8131001116709857 $351 -2.8961549374505697 $350 $651 forward 7 unknown #
point $-1 59.273049104281746 -33.315154657382955 2.8961549374505697 #
point $-1 59.273049104281746 33.315154657382955 2.8961549374505697 #
loop $-1 $-1 $361 $354 #
plane-surface $-1 0 -33.315154657382955 0 0 1 0 0 0 1 forward_v I I I I #
coedge $-1 $652 $653 $358 $516 reversed $355 $-1 #
coedge $-1 $358 $357 $521 $654 reversed $133 $-1 #
edge $-1 $655 1.3181006846785195e-014 $518 5.423092648179205 $514 $656 forward 7 unknown #
coedge $-1 $364 $359 $653 $657 forward $214 $-1 #
vertex $-1 $657 $658 #
straight-curve $-1 -22.244654215823196 -30.361526777524301 6.8131001116709857 -1 0 0 I I #
coedge $-1 $659 $361 $364 $525 reversed $512 $-1 #
coedge $-1 $361 $659 $515 $654 forward $512 $-1 #
vertex $-1 $362 $660 #
straight-curve $-1 -36.338213348604413 -33.315154657382955 33.414871474476648 0 0 1 I I #
straight-curve $-1 -36.338213348604413 -33.315154657382962 2.2649118769936933 0 -0.54463902268945019 -0.83867057594974714 I I #
edge $-1 $661 -52.640403514688373 $365 -36.338213348604413 $520 $662 forward 7 unknown #
point $-1 -36.338213348604413 -33.315154657382955 6.8131001116709857 #
point $-1 -36.338213348604413 -30.361526777524297 6.8131001116709857 #
edge $-1 $663 1 $663 0 $368 $-1 forward 7 unknown #
vertex $-1 $369 $664 #
ellipse-curve $-1 -49.379965481471579 -29.729954576096148 3.1698040687961777 0 -0.83867057594974714 0.54463902268945019 1 0 0 1 I I #
point $-1 -48.379965481471579 -31.838340717453622 4.5390059943323404 #
edge $-1 $665 1 $665 0 $372 $-1 forward 7 unknown #
vertex $-1 $373 $666 #
ellipse-curve $-1 -44.489308431646393 -29.729954576096148 3.1698040687961777 0 -0.83867057594974714 0.54463902268945019 1 0 0 1 I I #
point $-1 -43.489308431646393 -31.838340717453622 4.5390059943323404 #
edge $-1 $667 1 $667 0 $376 $-1 forward 7 unknown #
vertex $-1 $377 $668 #
ellipse-curve $-1 -39.598651381821199 -29.729954576096148 3.1698040687961777 0 -0.83867057594974714 0.54463902268945019 1 0 0 1 I I #
point $-1 -38.598651381821199 -31.838340717453622 4.5390059943323404 #
plane-surface $-1 0 0 6.8131001116709857 0 0 1 1 0 0 forward_v I I I I #
coedge $-1 $551 $550 $543 $669 forward $381 $-1 #
coedge $-1 $543 $383 $385 $547 reversed $243 $-1 #
coedge $-1 $383 $542 $541 $669 reversed $243 $-1 #
coedge $-1 $391 $386 $383 $545 forward $392 $-1 #
edge $-1 $548 -9.0493553283670423 $670 -6.2196534730800224 $544 $671 forward 7 unknown #
coedge $-1 $385 $384 $551 $672 reversed $152 $-1 #
edge $-1 $673 -66.630309314765896 $548 -62.317127464701308 $542 $674 forward 7 unknown #
vertex $-1 $387 $675 #
straight-curve $-1 -13.639452206679865 30.485452802095935 6.8131001116709839 1 0 0 I I #
coedge $-1 $541 $388 $391 $555 reversed $381 $-1 #
coedge $-1 $388 $541 $546 $672 forward $381 $-1 #
vertex $-1 $389 $676 #
straight-curve $-1 -37.193709353149913 33.315154657382955 65.808835344380597 0 0 1 I I #
straight-curve $-1 -37.193709353149913 -10.398260737684993 53.844433737765002 0 0.65605901945558964 -0.75470958851134928 I I #
edge $-1 $670 17.364099473569546 $393 37.193709353149913 $550 $677 forward 7 unknown #
point $-1 -37.193709353149913 33.315154657382955 6.8131001116709857 #
point $-1 -37.193709353149913 30.485452802095935 6.8131001116709839 #
edge $-1 $678 1 $678 0 $396 $-1 forward 7 unknown #
vertex $-1 $397 $679 #
ellipse-curve $-1 -33.227787377233838 29.791069278080293 3.3519707730646875 0 0.75470958851134928 0.65605901945558964 1 0 0 1 I I #
point $-1 -32.227787377233838 31.900303729739445 5.1855002620525443 #
edge $-1 $680 1 $680 0 $400 $-1 forward 7 unknown #
vertex $-1 $401 $681 #
ellipse-curve $-1 -27.278904413359726 29.791069278080293 3.3519707730646875 0 0.75470958851134928 0.65605901945558964 1 0 0 1 I I #
point $-1 -26.278904413359726 31.900303729739445 5.1855002620525443 #
edge $-1 $682 1 $682 0 $404 $-1 forward 7 unknown #
vertex $-1 $405 $683 #
ellipse-curve $-1 -21.330021449485614 29.791069278080293 3.3519707730646875 0 0.75470958851134928 0.65605901945558964 1 0 0 1 I I #
point $-1 -20.330021449485614 31.900303729739445 5.1855002620525443 #
loop $-1 $-1 $416 $408 #
plane-surface $-1 0 33.315154657382955 0 0 -1 0 0 0 -1 forward_v I I I I #
coedge $-1 $573 $411 $413 $577 reversed $272 $-1 #
coedge $-1 $411 $572 $684 $685 reversed $272 $-1 #
coedge $-1 $419 $414 $411 $575 forward $409 $-1 #
edge $-1 $578 -9.0493553283670423 $686 -6.2196534730800224 $574 $687 forward 7 unknown #
coedge $-1 $413 $412 $581 $688 reversed $171 $-1 #
edge $-1 $689 -66.630309314765896 $578 -62.317127464701308 $572 $690 forward 7 unknown #
vertex $-1 $415 $691 #
straight-curve $-1 13.800767171725109 30.485452802095935 6.8131001116709839 1 0 0 I I #
coedge $-1 $684 $416 $419 $585 reversed $570 $-1 #
coedge $-1 $416 $684 $576 $688 forward $570 $-1 #
vertex $-1 $417 $692 #
straight-curve $-1 17.686729403660035 33.315154657382955 65.808835344380597 0 0 1 I I #
straight-curve $-1 17.686729403660035 -10.398260737684993 53.844433737765002 0 0.65605901945558964 -0.75470958851134928 I I #
edge $-1 $686 -37.516339283240399 $420 -17.686729403660035 $580 $693 forward 7 unknown #
point $-1 17.686729403660035 33.315154657382955 6.8131001116709857 #
point $-1 17.686729403660035 30.485452802095935 6.8131001116709839 #
edge $-1 $694 1 $694 0 $423 $-1 forward 7 unknown #
vertex $-1 $424 $695 #
ellipse-curve $-1 21.65265137957612 29.791069278080293 3.3519707730646875 0 0.75470958851134928 0.65605901945558964 1 0 0 1 I I #
point $-1 22.65265137957612 31.900303729739445 5.1855002620525443 #
edge $-1 $696 1 $696 0 $427 $-1 forward 7 unknown #
vertex $-1 $428 $697 #
ellipse-curve $-1 27.601534343450219 29.791069278080293 3.3519707730646875 0 0.75470958851134928 0.65605901945558964 1 0 0 1 I I #
point $-1 28.601534343450219 31.900303729739445 5.1855002620525443 #
edge $-1 $698 1 $698 0 $431 $-1 forward 7 unknown #
vertex $-1 $432 $699 #
ellipse-curve $-1 33.550417307324345 29.791069278080293 3.3519707730646875 0 0.75470958851134928 0.65605901945558964 1 0 0 1 I I #
point $-1 34.550417307324345 31.900303729739445 5.1855002620525443 #
plane-surface $-1 59.273049104281746 0 0 -1 0 0 0 0 1 forward_v I I I I #
coedge $-1 $440 $438 $442 $605 reversed $301 $-1 #
edge $-1 $453 -6.8131001116709857 $607 6.8131001116709857 $452 $700 forward 7 unknown #
vertex $-1 $605 $701 #
straight-curve $-1 -59.273049104281746 -33.315154657382955 0 0 0 -1 I I #
edge $-1 $603 -33.315154657382955 $607 33.315154657382955 $601 $702 forward 7 unknown #
straight-curve $-1 0 -33.315154657382955 -6.8131001116709857 -1 0 0 I I #
vertex $-1 $445 $703 #
straight-curve $-1 0 33.315154657382955 -6.8131001116709857 1 0 0 I I #
point $-1 59.273049104281746 33.315154657382955 -6.8131001116709857 #
point $-1 59.273049104281746 -33.315154657382955 -6.8131001116709857 #
straight-curve $-1 -59.273049104281746 0 6.8131001116709857 0 -1 0 I I #
point $-1 -59.273049104281746 33.315154657382955 6.8131001116709857 #
point $-1 -59.273049104281746 -33.315154657382955 6.8131001116709857 #
straight-curve $-1 59.273049104281746 -33.315154657382955 0 0 0 -1 I I #
straight-curve $-1 59.273049104281746 33.315154657382955 0 0 0 -1 I I #
plane-surface $-1 0 33.315154657382955 0 0 -1 0 0 0 -1 forward_v I I I I #
coedge $-1 $626 $625 $466 $618 forward $463 $-1 #
edge $-1 $621 -33.315154657382955 $619 33.315154657382955 $617 $704 forward 7 unknown #
vertex $-1 $467 $705 #
straight-curve $-1 -27.978363154742528 -33.315154657382955 3.3131001116709857 1 0 0 I I #
vertex $-1 $469 $706 #
straight-curve $-1 -27.978363154742528 33.315154657382955 3.3131001116709857 -1 0 0 I I #
point $-1 -52.640403514688366 33.315154657382955 3.3131001116709857 #
point $-1 -52.640403514688366 -33.315154657382955 3.3131001116709857 #
coedge $-1 $617 $473 $476 $628 forward $463 $-1 #
coedge $-1 $473 $617 $480 $630 reversed $463 $-1 #
straight-curve $-1 -59.273049104281746 0 6.3131001116709857 0 1 0 I I #
edge $-1 $478 -6.3131001116709857 $621 -3.3131001116709857 $476 $707 forward 7 unknown #
point $-1 -59.273049104281746 33.315154657382955 6.3131001116709857 #
edge $-1 $482 -6.3131001116709857 $619 -3.3131001116709857 $626 $708 forward 7 unknown #
point $-1 -59.273049104281746 -33.315154657382955 6.3131001116709857 #
straight-curve $-1 -52.640403514688366 -33.315154657382955 2.4065500558354929 0 0 1 I I #
straight-curve $-1 -52.640403514688366 33.315154657382955 2.4065500558354929 0 0 -1 I I #
plane-surface $-1 0 33.315154657382955 0 0 -1 0 0 0 -1 forward_v I I I I #
coedge $-1 $646 $495 $491 $636 forward $489 $-1 #
edge $-1 $637 52.963033444778866 $650 59.273049104281746 $491 $709 forward 7 unknown #
vertex $-1 $636 $710 #
straight-curve $-1 52.963033444778866 -33.315154657382955 2.4273137622803889 0 0 -1 I I #
straight-curve $-1 52.963033444778866 0 2.8961549374505697 0 1 0 I I #
coedge $-1 $495 $646 $497 $642 forward $489 $-1 #
straight-curve $-1 52.963033444778866 0 6.8131001116709857 0 -1 0 I I #
edge $-1 $648 -59.273049104281746 $500 -52.963033444778866 $497 $711 forward 7 unknown #
point $-1 52.963033444778866 33.315154657382955 2.8961549374505697 #
point $-1 52.963033444778866 33.315154657382955 6.8131001116709857 #
point $-1 52.963033444778866 -33.315154657382955 2.8961549374505697 #
coedge $-1 $640 $635 $507 $647 forward $489 $-1 #
edge $-1 $650 -33.315154657382955 $648 33.315154657382955 $507 $712 forward 7 unknown #
vertex $-1 $647 $713 #
straight-curve $-1 59.273049104281746 33.315154657382955 0 0 0 -1 I I #
vertex $-1 $647 $714 #
straight-curve $-1 59.273049104281746 -33.315154657382955 0 0 0 -1 I I #
coedge $-1 $653 $514 $659 $715 reversed $355 $-1 #
coedge $-1 $514 $652 $517 $657 reversed $355 $-1 #
edge $-1 $655 -30.395749298865177 $522 -14.093559132781216 $521 $716 forward 7 unknown #
vertex $-1 $715 $717 #
straight-curve $-1 -52.640403514688373 -33.315154657382962 2.2649118769936933 0 0.54463902268945019 0.83867057594974714 I I #
edge $-1 $518 -36.0066127817528 $661 -33.052984901894142 $517 $718 forward 7 unknown #
point $-1 -52.640403514688373 -30.361526777524297 6.8131001116709857 #
coedge $-1 $521 $520 $652 $715 forward $512 $-1 #
point $-1 -36.338213348604413 -33.315154657382955 2.2649118769937044 #
vertex $-1 $525 $719 #
straight-curve $-1 0 -33.315154657382955 6.8131001116709857 1 0 0 I I #
vertex $-1 $528 $720 #
point $-1 -48.379965481471579 -29.729954576096148 3.1698040687961777 #
vertex $-1 $532 $721 #
point $-1 -43.489308431646393 -29.729954576096148 3.1698040687961777 #
vertex $-1 $536 $722 #
point $-1 -38.598651381821199 -29.729954576096148 3.1698040687961777 #
edge $-1 $670 58.995735232709613 $673 62.250934931946475 $541 $723 forward 7 unknown #
vertex $-1 $555 $724 #
straight-curve $-1 -17.364099473569546 39.534808130462977 6.8131001116709839 0 1 0 I I #
edge $-1 $673 3.7246472668896811 $552 23.55425714647005 $551 $725 forward 7 unknown #
vertex $-1 $672 $726 #
straight-curve $-1 -17.364099473569546 -10.398260737684993 53.844433737765002 0 -0.65605901945558964 0.75470958851134928 I I #
point $-1 -17.364099473569546 30.485452802095935 6.8131001116709839 #
point $-1 -37.193709353149913 33.315154657382948 3.5579004124341225 #
straight-curve $-1 0 33.315154657382955 6.8131001116709857 -1 0 0 I I #
vertex $-1 $558 $727 #
point $-1 -32.227787377233838 29.791069278080293 3.3519707730646875 #
vertex $-1 $562 $728 #
point $-1 -26.278904413359726 29.791069278080293 3.3519707730646875 #
vertex $-1 $566 $729 #
point $-1 -20.330021449485614 29.791069278080293 3.3519707730646875 #
coedge $-1 $581 $580 $573 $685 forward $570 $-1 #
edge $-1 $686 58.995735232709613 $689 62.250934931946475 $684 $730 forward 7 unknown #
vertex $-1 $585 $731 #
straight-curve $-1 37.516339283240399 39.534808130462977 6.8131001116709839 0 1 0 I I #
edge $-1 $689 -23.715572111515289 $582 -3.8859622319349256 $581 $732 forward 7 unknown #
vertex $-1 $688 $733 #
straight-curve $-1 37.516339283240399 -10.398260737684993 53.844433737765002 0 -0.65605901945558964 0.75470958851134928 I I #
point $-1 37.516339283240399 30.485452802095935 6.8131001116709839 #
point $-1 17.686729403660035 33.315154657382948 3.5579004124341225 #
straight-curve $-1 0 33.315154657382955 6.8131001116709857 -1 0 0 I I #
vertex $-1 $588 $734 #
point $-1 22.65265137957612 29.791069278080293 3.3519707730646875 #
vertex $-1 $592 $735 #
point $-1 28.601534343450219 29.791069278080293 3.3519707730646875 #
vertex $-1 $596 $736 #
point $-1 34.550417307324345 29.791069278080293 3.3519707730646875 #
straight-curve $-1 -59.273049104281746 33.315154657382955 0 0 0 -1 I I #
point $-1 -59.273049104281746 -33.315154657382955 -6.8131001116709857 #
straight-curve $-1 -59.273049104281746 0 -6.8131001116709857 0 1 0 I I #
point $-1 -59.273049104281746 33.315154657382955 -6.8131001116709857 #
straight-curve $-1 -59.273049104281746 0 3.3131001116709857 0 -1 0 I I #
point $-1 -59.273049104281746 -33.315154657382955 3.3131001116709857 #
point $-1 -59.273049104281746 33.315154657382955 3.3131001116709857 #
straight-curve $-1 -59.273049104281746 33.315154657382955 0 0 0 -1 I I #
straight-curve $-1 -59.273049104281746 -33.315154657382955 0 0 0 -1 I I #
straight-curve $-1 0 -33.315154657382955 6.8131001116709857 1 0 0 I I #
point $-1 52.963033444778866 -33.315154657382955 6.8131001116709857 #
straight-curve $-1 0 33.315154657382955 6.8131001116709857 -1 0 0 I I #
straight-curve $-1 59.273049104281746 0 6.8131001116709857 0 1 0 I I #
point $-1 59.273049104281746 33.315154657382955 6.8131001116709857 #
point $-1 59.273049104281746 -33.315154657382955 6.8131001116709857 #
edge $-1 $661 26.601771362805664 $655 31.149959597482944 $659 $737 forward 7 unknown #
straight-curve $-1 -22.244654215823196 -33.315154657382955 2.264911876993708 1 0 0 I I #
point $-1 -52.640403514688373 -33.315154657382955 2.2649118769937044 #
straight-curve $-1 -52.640403514688373 -66.368139559277097 6.8131001116709839 0 -1 0 I I #
point $-1 -52.640403514688373 -33.315154657382955 6.8131001116709857 #
point $-1 -49.379965481471579 -28.891284000146399 2.6251650461067273 #
point $-1 -44.489308431646393 -28.891284000146399 2.6251650461067273 #
point $-1 -39.598651381821199 -28.891284000146399 2.6251650461067273 #
straight-curve $-1 -17.364099473569546 33.315154657382955 65.808835344380597 0 0 -1 I I #
point $-1 -17.364099473569546 33.315154657382955 6.8131001116709857 #
straight-curve $-1 -13.639452206679865 33.315154657382955 3.5579004124341154 -1 0 0 I I #
point $-1 -17.364099473569546 33.315154657382948 3.5579004124341225 #
point $-1 -33.227787377233838 29.036359689568947 2.6959117536090975 #
point $-1 -27.278904413359726 29.036359689568947 2.6959117536090975 #
point $-1 -21.330021449485614 29.036359689568947 2.6959117536090975 #
straight-curve $-1 37.516339283240399 33.315154657382955 65.808835344380597 0 0 -1 I I #
point $-1 37.516339283240399 33.315154657382955 6.8131001116709857 #
straight-curve $-1 13.800767171725109 33.315154657382955 3.5579004124341154 -1 0 0 I I #
point $-1 37.516339283240399 33.315154657382948 3.5579004124341225 #
point $-1 21.65265137957612 29.036359689568947 2.6959117536090975 #
point $-1 27.601534343450219 29.036359689568947 2.6959117536090975 #
point $-1 33.550417307324345 29.036359689568947 2.6959117536090975 #
straight-curve $-1 -52.640403514688373 -33.315154657382955 33.414871474476648 0 0 -1 I I #
End-of-ACIS-data 