500 0 5 0           
7 Unknown 11 ACIS 5.0 NT 24 Thu Mar 25 19:31:55 1999 
-1 9.9999999999999995e-007 1e-010 
body $-1 $5 $-1 $6 #
body $-1 $7 $-1 $8 #
body $-1 $9 $-1 $10 #
body $-1 $11 $-1 $12 #
body $-1 $13 $-1 $14 #
lump $-1 $-1 $15 $0 #
transform $-1 1 0 0 0 1 0 0 0 1 60.285042878505813 39.909518940675795 16.891298609118142 1 rotate no_reflect no_shear #
lump $-1 $-1 $16 $1 #
transform $-1 1 0 0 0 1 0 0 0 1 60.285042878505813 39.909518940675795 16.891298609118142 1 rotate no_reflect no_shear #
lump $-1 $-1 $17 $2 #
transform $-1 1 0 0 0 1 0 0 0 1 60.285042878505813 39.909518940675795 16.891298609118142 1 rotate no_reflect no_shear #
lump $-1 $-1 $18 $3 #
transform $-1 1 0 0 0 1 0 0 0 1 60.285042878505813 39.909518940675795 16.891298609118142 1 rotate no_reflect no_shear #
lump $-1 $-1 $19 $4 #
transform $-1 1 0 0 0 1 0 0 0 1 60.285042878505813 39.909518940675795 16.891298609118142 1 rotate no_reflect no_shear #
shell $-1 $-1 $-1 $20 $-1 $5 #
shell $-1 $-1 $-1 $21 $-1 $7 #
shell $-1 $-1 $-1 $22 $-1 $9 #
shell $-1 $-1 $-1 $23 $-1 $11 #
shell $-1 $-1 $-1 $24 $-1 $13 #
face $-1 $25 $26 $15 $-1 $27 forward single #
face $-1 $28 $29 $16 $-1 $30 reversed single #
face $-1 $31 $32 $17 $-1 $33 forward single #
face $-1 $34 $35 $18 $-1 $36 reversed single #
face $-1 $37 $38 $19 $-1 $39 reversed single #
face $-1 $40 $41 $15 $-1 $42 reversed single #
loop $-1 $-1 $43 $20 #
plane-surface $-1 0 0 16.891298609118142 0 0 1 1 0 0 forward_v I I I I #
face $-1 $44 $45 $16 $-1 $46 forward single #
loop $-1 $-1 $47 $21 #
plane-surface $-1 0 -31.091995070131688 1.8240977642062131 0 0 1 1 0 0 forward_v I I I I #
face $-1 $48 $49 $17 $-1 $50 forward single #
loop $-1 $-1 $51 $22 #
plane-surface $-1 -140.96217844012844 10.25751695484912 98.454633516518726 0 1 0 -0.66913061440640931 0 0.74314481823134659 forward_v I I I I #
face $-1 $52 $53 $18 $-1 $54 reversed single #
loop $-1 $55 $56 $23 #
cone-surface $-1 -54.812438350017445 13.308197593698871 11.751596752131332 0.66913061440640931 0 -0.74314481823134659 0.74314481823134659 0 0.66913061440640931 1 I I 0 1 1 forward I I I I #
face $-1 $57 $58 $19 $-1 $59 reversed single #
loop $-1 $60 $61 $24 #
cone-surface $-1 -54.812438350017445 17.88421855197349 11.751596752131332 0.66913061440640931 0 -0.74314481823134659 0.74314481823134659 0 0.66913061440640931 1 I I 0 1 1 forward I I I I #
face $-1 $62 $63 $15 $-1 $64 reversed single #
loop $-1 $-1 $65 $25 #
plane-surface $-1 0 0 -16.891298609118142 0 0 1 1 0 0 forward_v I I I I #
coedge $-1 $66 $67 $68 $69 forward $26 $-1 #
face $-1 $70 $71 $16 $-1 $72 forward single #
loop $-1 $-1 $73 $28 #
plane-surface $-1 0 -31.091995070131688 -2.5886618522912723 0 0 1 1 0 0 forward_v I I I I #
coedge $-1 $74 $75 $76 $77 reversed $29 $-1 #
face $-1 $78 $79 $17 $-1 $80 forward single #
loop $-1 $-1 $81 $31 #
plane-surface $-1 -60.285042878505777 15.596208072836177 8.8535990524864445 -0.66913061440640931 0 0.74314481823134659 0.74314481823134659 0 0.66913061440640931 forward_v I I I I #
coedge $-1 $82 $83 $84 $85 reversed $32 $-1 #
face $-1 $86 $87 $18 $-1 $88 forward single #
loop $-1 $89 $90 $34 #
cone-surface $-1 -53.46865327614109 13.308197593698871 10.259172264344699 0.66913061440640931 0 -0.74314481823134659 0.3715724091156733 0 0.33456530720320465 1 I I -0.70710678118654746 0.70710678118654746 0.5 forward I I I I #
loop $-1 $-1 $91 $23 #
coedge $-1 $56 $56 $92 $93 reversed $35 $-1 #
face $-1 $94 $95 $19 $-1 $96 reversed single #
loop $-1 $97 $98 $37 #
cone-surface $-1 -53.46865327614109 17.88421855197349 10.259172264344699 0.66913061440640931 0 -0.74314481823134659 0.3715724091156733 0 0.33456530720320465 1 I I -0.70710678118654746 0.70710678118654746 0.5 forward I I I I #
loop $-1 $-1 $99 $24 #
coedge $-1 $61 $61 $100 $101 reversed $38 $-1 #
face $-1 $102 $103 $15 $-1 $104 reversed single #
loop $-1 $-1 $105 $40 #
plane-surface $-1 0 -39.909518940675795 0 0 1 0 0 0 1 forward_v I I I I #
coedge $-1 $106 $107 $108 $109 forward $41 $-1 #
coedge $-1 $110 $43 $111 $112 forward $26 $-1 #
coedge $-1 $43 $110 $113 $114 forward $26 $-1 #
coedge $-1 $115 $116 $43 $69 reversed $117 $-1 #
edge $-1 $118 -39.909518940675795 $119 39.909518940675795 $68 $120 forward 7 unknown #
face $-1 $121 $122 $16 $-1 $123 reversed single #
loop $-1 $-1 $124 $44 #
plane-surface $-1 0 -22.27447119958758 -0.38228204404252963 0 -1 0 0 0 -1 forward_v I I I I #
coedge $-1 $125 $126 $127 $128 reversed $45 $-1 #
coedge $-1 $129 $47 $130 $131 reversed $29 $-1 #
coedge $-1 $47 $129 $132 $133 reversed $29 $-1 #
coedge $-1 $134 $135 $47 $77 forward $122 $-1 #
edge $-1 $136 -24.363521405609951 $137 -6.7284736645217365 $76 $138 forward 7 unknown #
face $-1 $139 $140 $17 $-1 $141 forward single #
loop $-1 $-1 $142 $48 #
plane-surface $-1 -140.96217844012844 20.934899190823234 98.454633516518726 0 -1 0 0.66913061440640931 0 -0.74314481823134659 forward_v I I I I #
coedge $-1 $143 $144 $145 $146 reversed $49 $-1 #
coedge $-1 $83 $51 $144 $147 forward $32 $-1 #
coedge $-1 $51 $82 $148 $149 reversed $32 $-1 #
coedge $-1 $150 $145 $51 $85 forward $140 $-1 #
edge $-1 $151 -19.122815865188869 $152 -10.196046341558407 $84 $153 forward 7 unknown #
face $-1 $154 $155 $18 $-1 $156 forward single #
loop $-1 $-1 $157 $52 #
plane-surface $-1 -140.96217844012844 10.25751695484912 98.454633516518726 0 1 0 -0.66913061440640931 0 0.74314481823134659 forward_v I I I I #
loop $-1 $-1 $158 $34 #
coedge $-1 $90 $90 $91 $159 forward $53 $-1 #
coedge $-1 $91 $91 $90 $159 reversed $55 $-1 #
coedge $-1 $92 $92 $56 $93 forward $155 $-1 #
edge $-1 $160 0 $160 6.2831853071796004 $92 $161 forward 7 unknown #
face $-1 $162 $163 $19 $-1 $164 reversed single #
loop $-1 $165 $166 $57 #
cone-surface $-1 -54.812438350017445 13.308197593698871 11.751596752131332 0.66913061440640931 0 -0.74314481823134659 0.74314481823134659 0 0.66913061440640931 1 I I 0 1 1 forward I I I I #
loop $-1 $-1 $167 $37 #
coedge $-1 $98 $98 $99 $168 forward $58 $-1 #
coedge $-1 $99 $99 $98 $168 reversed $60 $-1 #
coedge $-1 $100 $100 $61 $101 forward $169 $-1 #
edge $-1 $170 0 $170 6.2831853071796004 $100 $171 forward 7 unknown #
face $-1 $172 $173 $15 $-1 $174 reversed single #
loop $-1 $-1 $175 $62 #
plane-surface $-1 -60.285042878505813 0 0 1 0 0 0 0 -1 forward_v I I I I #
coedge $-1 $176 $113 $177 $178 forward $63 $-1 #
coedge $-1 $179 $65 $176 $180 forward $41 $-1 #
coedge $-1 $65 $179 $181 $182 forward $41 $-1 #
coedge $-1 $116 $115 $65 $109 reversed $117 $-1 #
edge $-1 $183 -39.909518940675795 $184 39.909518940675795 $108 $185 forward 7 unknown #
coedge $-1 $67 $66 $186 $187 forward $26 $-1 #
coedge $-1 $188 $189 $66 $112 reversed $173 $-1 #
edge $-1 $119 -60.285042878505813 $190 60.285042878505813 $111 $191 forward 7 unknown #
coedge $-1 $105 $192 $67 $114 reversed $63 $-1 #
edge $-1 $193 -60.285042878505813 $118 60.285042878505813 $113 $194 forward 7 unknown #
coedge $-1 $108 $68 $192 $195 forward $117 $-1 #
coedge $-1 $68 $108 $188 $196 reversed $117 $-1 #
loop $-1 $-1 $115 $172 #
vertex $-1 $69 $197 #
vertex $-1 $69 $198 #
straight-curve $-1 60.285042878505813 0 16.891298609118142 0 1 0 I I #
face $-1 $199 $200 $16 $-1 $201 reversed single #
loop $-1 $-1 $76 $70 #
plane-surface $-1 60.285042878505813 0 0 -1 0 0 0 0 1 forward_v I I I I #
coedge $-1 $132 $202 $134 $203 reversed $71 $-1 #
coedge $-1 $204 $73 $202 $205 reversed $45 $-1 #
coedge $-1 $73 $204 $206 $207 reversed $45 $-1 #
coedge $-1 $208 $134 $73 $128 forward $122 $-1 #
edge $-1 $209 6.7284736645217365 $210 24.363521405609951 $127 $211 forward 7 unknown #
coedge $-1 $75 $74 $212 $213 reversed $29 $-1 #
coedge $-1 $214 $215 $74 $131 forward $216 $-1 #
edge $-1 $217 -60.285042878505813 $136 60.285042878505813 $130 $218 forward 7 unknown #
coedge $-1 $219 $124 $75 $133 forward $71 $-1 #
edge $-1 $137 -60.285042878505813 $220 60.285042878505813 $132 $221 forward 7 unknown #
coedge $-1 $127 $76 $124 $203 forward $122 $-1 #
coedge $-1 $76 $222 $214 $223 forward $122 $-1 #
vertex $-1 $131 $224 #
vertex $-1 $77 $225 #
straight-curve $-1 60.285042878505813 -15.545997535065844 1.8240977642062131 0 1 0 I I #
face $-1 $226 $227 $17 $-1 $228 reversed single #
loop $-1 $-1 $229 $78 #
plane-surface $-1 0 0 16.891298609118142 0 0 1 1 0 0 forward_v I I I I #
coedge $-1 $230 $231 $229 $232 reversed $79 $-1 #
coedge $-1 $233 $81 $231 $234 reversed $49 $-1 #
coedge $-1 $81 $233 $82 $147 reversed $49 $-1 #
coedge $-1 $84 $229 $81 $146 forward $140 $-1 #
edge $-1 $235 -13.136795154405146 $151 -2.4594129184310312 $145 $236 forward 7 unknown #
edge $-1 $151 -12.012153357774547 $237 4.7796872990954678e-014 $82 $238 forward 7 unknown #
coedge $-1 $239 $240 $83 $149 forward $241 $-1 #
edge $-1 $152 32.336018149141225 $237 40.373717705772947 $148 $242 forward 7 unknown #
coedge $-1 $243 $84 $240 $244 forward $140 $-1 #
vertex $-1 $146 $245 #
vertex $-1 $244 $246 #
straight-curve $-1 -70.48108922006422 10.25751695484912 16.891298609118138 -1 0 0 I I #
face $-1 $247 $248 $18 $-1 $249 forward single #
loop $-1 $250 $92 $86 #
plane-surface $-1 -60.285042878505777 15.596208072836177 8.8535990524864445 -0.66913061440640931 0 0.74314481823134659 0.74314481823134659 0 0.66913061440640931 forward_v I I I I #
coedge $-1 $251 $252 $253 $254 reversed $87 $-1 #
coedge $-1 $158 $158 $-1 $255 forward $89 $-1 #
edge $-1 $256 0 $256 6.2831853071796004 $90 $257 forward 7 unknown #
vertex $-1 $93 $258 #
ellipse-curve $-1 -55.821658116690578 13.308197593698871 12.872448830802277 0.66913061440640931 0 -0.74314481823134659 0.74314481823134659 0 0.66913061440640931 1 I I #
face $-1 $259 $260 $19 $-1 $261 forward single #
loop $-1 $262 $263 $94 #
cone-surface $-1 -53.46865327614109 13.308197593698871 10.259172264344699 0.66913061440640931 0 -0.74314481823134659 0.3715724091156733 0 0.33456530720320465 1 I I -0.70710678118654746 0.70710678118654746 0.5 forward I I I I #
loop $-1 $-1 $264 $57 #
coedge $-1 $166 $166 $265 $266 reversed $95 $-1 #
coedge $-1 $167 $167 $-1 $267 forward $97 $-1 #
edge $-1 $268 0 $268 6.2831853071796004 $98 $269 forward 7 unknown #
loop $-1 $270 $100 $259 #
vertex $-1 $101 $271 #
ellipse-curve $-1 -55.821658116690578 17.88421855197349 12.872448830802277 0.66913061440640931 0 -0.74314481823134659 0.74314481823134659 0 0.66913061440640931 1 I I #
face $-1 $-1 $117 $15 $-1 $272 reversed single #
loop $-1 $-1 $188 $102 #
plane-surface $-1 0 39.909518940675795 0 0 -1 0 0 0 -1 forward_v I I I I #
coedge $-1 $273 $186 $189 $274 forward $103 $-1 #
coedge $-1 $192 $105 $106 $180 reversed $63 $-1 #
coedge $-1 $186 $273 $105 $178 reversed $103 $-1 #
edge $-1 $193 -16.891298609118142 $275 16.891298609118142 $177 $276 forward 7 unknown #
coedge $-1 $107 $106 $273 $277 forward $41 $-1 #
edge $-1 $184 -60.285042878505813 $275 60.285042878505813 $176 $278 forward 7 unknown #
coedge $-1 $189 $188 $107 $182 reversed $173 $-1 #
edge $-1 $279 -60.285042878505813 $183 60.285042878505813 $181 $280 forward 7 unknown #
vertex $-1 $109 $281 #
vertex $-1 $195 $282 #
straight-curve $-1 60.285042878505813 0 -16.891298609118142 0 -1 0 I I #
coedge $-1 $175 $177 $110 $187 reversed $103 $-1 #
edge $-1 $190 -39.909518940675795 $193 39.909518940675795 $186 $283 forward 7 unknown #
coedge $-1 $181 $111 $116 $196 forward $173 $-1 #
coedge $-1 $111 $181 $175 $274 reversed $173 $-1 #
vertex $-1 $112 $284 #
straight-curve $-1 0 39.909518940675795 16.891298609118142 -1 0 0 I I #
coedge $-1 $113 $176 $115 $195 reversed $63 $-1 #
vertex $-1 $187 $285 #
straight-curve $-1 0 -39.909518940675795 16.891298609118142 1 0 0 I I #
edge $-1 $118 -16.891298609118142 $184 16.891298609118142 $115 $286 forward 7 unknown #
edge $-1 $119 -16.891298609118142 $183 16.891298609118142 $116 $287 forward 7 unknown #
point $-1 60.285042878505813 -39.909518940675795 16.891298609118142 #
point $-1 60.285042878505813 39.909518940675795 16.891298609118142 #
face $-1 $288 $289 $16 $-1 $290 forward single #
loop $-1 $-1 $206 $121 #
plane-surface $-1 0 -39.909518940675795 0 0 1 0 0 0 1 forward_v I I I I #
coedge $-1 $124 $219 $125 $205 forward $71 $-1 #
edge $-1 $137 -2.0152387862274779 $209 2.3975208302700075 $134 $291 forward 7 unknown #
coedge $-1 $126 $125 $292 $293 reversed $45 $-1 #
edge $-1 $294 -60.285042878505813 $209 60.285042878505813 $202 $295 forward 7 unknown #
coedge $-1 $296 $297 $126 $207 forward $200 $-1 #
edge $-1 $210 -60.285042878505813 $298 60.285042878505813 $206 $299 forward 7 unknown #
coedge $-1 $300 $127 $297 $301 forward $122 $-1 #
vertex $-1 $128 $302 #
vertex $-1 $301 $303 #
straight-curve $-1 60.285042878505813 -15.545997535065844 -2.5886618522912723 0 -1 0 I I #
coedge $-1 $304 $305 $129 $213 forward $306 $-1 #
edge $-1 $220 6.7284736645217365 $217 24.363521405609951 $212 $307 forward 7 unknown #
coedge $-1 $308 $130 $135 $223 reversed $216 $-1 #
coedge $-1 $130 $308 $304 $309 forward $216 $-1 #
loop $-1 $-1 $130 $310 #
vertex $-1 $213 $311 #
straight-curve $-1 0 -39.909518940675795 1.8240977642062131 1 0 0 I I #
coedge $-1 $202 $132 $305 $312 reversed $71 $-1 #
vertex $-1 $213 $313 #
straight-curve $-1 0 -22.27447119958758 1.8240977642062131 -1 0 0 I I #
coedge $-1 $135 $314 $315 $316 reversed $122 $-1 #
edge $-1 $317 -16.891298609118142 $136 -1.8240977642062131 $135 $318 forward 7 unknown #
point $-1 60.285042878505813 -39.909518940675795 1.8240977642062131 #
point $-1 60.285042878505813 -22.27447119958758 1.8240977642062131 #
face $-1 $319 $320 $17 $-1 $321 forward single #
loop $-1 $-1 $322 $139 #
plane-surface $-1 0 -31.091995070131688 1.8240977642062131 0 0 1 1 0 0 forward_v I I I I #
coedge $-1 $145 $323 $142 $232 forward $140 $-1 #
coedge $-1 $231 $142 $324 $325 reversed $79 $-1 #
coedge $-1 $142 $230 $143 $234 forward $79 $-1 #
edge $-1 $326 10.196046341558407 $235 19.122815865188869 $229 $327 forward 7 unknown #
coedge $-1 $144 $143 $239 $328 reversed $49 $-1 #
edge $-1 $329 -4.7796872990954678e-014 $235 12.012153357774547 $231 $330 forward 7 unknown #
vertex $-1 $146 $331 #
straight-curve $-1 -51.358273354875351 7.7981040364180885 16.891298609118138 0 -1 0 I I #
vertex $-1 $328 $332 #
straight-curve $-1 -60.285042878505777 10.25751695484912 8.8535990524864445 -0.74314481823134659 0 -0.66913061440640931 I I #
coedge $-1 $324 $148 $233 $328 forward $241 $-1 #
coedge $-1 $148 $333 $150 $244 reversed $241 $-1 #
loop $-1 $-1 $324 $334 #
straight-curve $-1 -60.285042878505813 10.25751695484912 49.227316758259363 0 0 -1 I I #
coedge $-1 $335 $150 $336 $337 forward $140 $-1 #
edge $-1 $152 -10.25751695484912 $338 39.909518940675795 $240 $339 forward 7 unknown #
point $-1 -51.358273354875351 10.25751695484912 16.891298609118142 #
point $-1 -60.285042878505813 10.25751695484912 16.891298609118142 #
face $-1 $340 $341 $18 $-1 $342 forward single #
loop $-1 $-1 $343 $154 #
plane-surface $-1 -140.96217844012844 20.934899190823234 98.454633516518726 0 -1 0 0.66913061440640931 0 -0.74314481823134659 forward_v I I I I #
loop $-1 $-1 $344 $86 #
coedge $-1 $252 $157 $345 $346 forward $87 $-1 #
coedge $-1 $157 $251 $347 $348 reversed $87 $-1 #
coedge $-1 $349 $350 $157 $254 forward $341 $-1 #
edge $-1 $351 -19.122815865188869 $352 -10.196046341558407 $253 $353 forward 7 unknown #
edge $-1 $354 1 $354 0 $158 $-1 forward 7 unknown #
vertex $-1 $159 $355 #
ellipse-curve $-1 -53.803218583344297 13.308197593698871 10.630744673460372 -0.66913061440640931 0 0.74314481823134659 0.74314481823134659 0 0.66913061440640931 1 I I #
point $-1 -55.078513298459249 13.308197593698871 13.541579445208702 #
face $-1 $356 $169 $19 $-1 $357 forward single #
loop $-1 $-1 $358 $162 #
plane-surface $-1 -140.96217844012844 10.25751695484912 98.454633516518726 0 1 0 -0.66913061440640931 0 0.74314481823134659 forward_v I I I I #
loop $-1 $-1 $359 $94 #
coedge $-1 $263 $263 $264 $360 forward $163 $-1 #
coedge $-1 $264 $264 $263 $360 reversed $165 $-1 #
coedge $-1 $265 $265 $166 $266 forward $270 $-1 #
edge $-1 $361 0 $361 6.2831853071796004 $265 $362 forward 7 unknown #
edge $-1 $363 1 $363 0 $167 $-1 forward 7 unknown #
vertex $-1 $168 $364 #
ellipse-curve $-1 -53.803218583344297 17.88421855197349 10.630744673460372 -0.66913061440640931 0 0.74314481823134659 0.74314481823134659 0 0.66913061440640931 1 I I #
loop $-1 $365 $265 $259 #
point $-1 -55.078513298459249 17.88421855197349 13.541579445208702 #
plane-surface $-1 60.285042878505813 0 0 -1 0 0 0 0 1 forward_v I I I I #
coedge $-1 $177 $175 $179 $277 reversed $103 $-1 #
edge $-1 $190 -16.891298609118142 $279 16.891298609118142 $189 $366 forward 7 unknown #
vertex $-1 $277 $367 #
straight-curve $-1 -60.285042878505813 -39.909518940675795 0 0 0 -1 I I #
edge $-1 $275 -39.909518940675795 $279 39.909518940675795 $273 $368 forward 7 unknown #
straight-curve $-1 0 -39.909518940675795 -16.891298609118142 -1 0 0 I I #
vertex $-1 $182 $369 #
straight-curve $-1 0 39.909518940675795 -16.891298609118142 1 0 0 I I #
point $-1 60.285042878505813 39.909518940675795 -16.891298609118142 #
point $-1 60.285042878505813 -39.909518940675795 -16.891298609118142 #
straight-curve $-1 -60.285042878505813 0 16.891298609118142 0 -1 0 I I #
point $-1 -60.285042878505813 39.909518940675795 16.891298609118142 #
point $-1 -60.285042878505813 -39.909518940675795 16.891298609118142 #
straight-curve $-1 60.285042878505813 -39.909518940675795 0 0 0 -1 I I #
straight-curve $-1 60.285042878505813 39.909518940675795 0 0 0 -1 I I #
face $-1 $310 $370 $16 $-1 $371 reversed single #
loop $-1 $-1 $315 $199 #
plane-surface $-1 0 0 16.891298609118142 0 0 1 1 0 0 forward_v I I I I #
straight-curve $-1 60.285042878505813 -22.27447119958758 -0.19114102202126482 0 0 -1 I I #
coedge $-1 $305 $372 $204 $293 forward $306 $-1 #
edge $-1 $298 -24.363521405609951 $294 -6.7284736645217365 $292 $373 forward 7 unknown #
vertex $-1 $293 $374 #
straight-curve $-1 0 -22.27447119958758 -2.5886618522912723 1 0 0 I I #
coedge $-1 $375 $206 $372 $376 forward $200 $-1 #
coedge $-1 $206 $375 $208 $301 reversed $200 $-1 #
vertex $-1 $376 $377 #
straight-curve $-1 0 -39.909518940675795 -2.5886618522912723 -1 0 0 I I #
coedge $-1 $314 $208 $378 $379 reversed $122 $-1 #
edge $-1 $210 2.5886618522912723 $380 16.891298609118142 $208 $318 forward 7 unknown #
point $-1 60.285042878505813 -22.27447119958758 -2.5886618522912723 #
point $-1 60.285042878505813 -39.909518940675795 -2.5886618522912723 #
coedge $-1 $381 $212 $215 $309 reversed $306 $-1 #
coedge $-1 $212 $292 $219 $312 forward $306 $-1 #
loop $-1 $-1 $212 $382 #
straight-curve $-1 -60.285042878505813 -15.545997535065844 1.8240977642062131 0 -1 0 I I #
coedge $-1 $215 $214 $383 $384 reversed $216 $-1 #
edge $-1 $385 -16.891298609118142 $217 -1.8240977642062131 $304 $386 forward 7 unknown #
face $-1 $382 $216 $16 $-1 $201 reversed single #
point $-1 -60.285042878505813 -39.909518940675795 1.8240977642062131 #
edge $-1 $294 -2.3975208302700075 $220 2.0152387862274779 $305 $387 forward 7 unknown #
point $-1 -60.285042878505813 -22.27447119958758 1.8240977642062131 #
coedge $-1 $222 $300 $388 $389 reversed $122 $-1 #
coedge $-1 $390 $383 $222 $316 forward $289 $-1 #
edge $-1 $317 -39.909518940675795 $391 39.909518940675795 $222 $392 forward 7 unknown #
vertex $-1 $316 $393 #
straight-curve $-1 60.285042878505813 -39.909518940675795 0 0 0 -1 I I #
face $-1 $394 $395 $17 $-1 $396 forward single #
loop $-1 $-1 $397 $226 #
plane-surface $-1 0 -31.091995070131688 -2.5886618522912723 0 0 1 1 0 0 forward_v I I I I #
coedge $-1 $398 $399 $400 $401 reversed $227 $-1 #
coedge $-1 $229 $402 $403 $404 forward $140 $-1 #
coedge $-1 $403 $239 $230 $325 forward $241 $-1 #
edge $-1 $329 -40.373717705772947 $326 -32.336018149141225 $324 $405 forward 7 unknown #
vertex $-1 $325 $406 #
straight-curve $-1 -70.48108922006422 20.934899190823234 16.891298609118138 1 0 0 I I #
edge $-1 $237 2.4594129184310312 $329 13.136795154405146 $239 $407 forward 7 unknown #
vertex $-1 $328 $408 #
straight-curve $-1 -60.285042878505777 20.934899190823234 8.8535990524864445 0.74314481823134659 0 0.66913061440640931 I I #
point $-1 -51.358273354875351 20.934899190823234 16.891298609118142 #
point $-1 -60.285042878505813 10.25751695484912 8.8535990524864125 #
coedge $-1 $240 $409 $410 $411 reversed $241 $-1 #
face $-1 $412 $241 $17 $-1 $413 reversed single #
coedge $-1 $402 $243 $414 $415 forward $140 $-1 #
coedge $-1 $410 $416 $243 $337 reversed $417 $-1 #
edge $-1 $338 -60.285042878505813 $418 60.285042878505813 $336 $419 forward 7 unknown #
vertex $-1 $244 $420 #
straight-curve $-1 -60.285042878505813 0 16.891298609118142 0 -1 0 I I #
face $-1 $421 $422 $18 $-1 $423 reversed single #
loop $-1 $-1 $424 $247 #
plane-surface $-1 0 0 16.891298609118142 0 0 1 1 0 0 forward_v I I I I #
coedge $-1 $425 $426 $424 $427 reversed $248 $-1 #
coedge $-1 $428 $345 $350 $429 reversed $250 $-1 #
coedge $-1 $344 $430 $251 $346 reversed $250 $-1 #
edge $-1 $351 -12.012153357774547 $431 4.7796872990954678e-014 $251 $432 forward 7 unknown #
coedge $-1 $433 $434 $252 $348 forward $435 $-1 #
edge $-1 $352 32.336018149141225 $431 40.373717705772947 $347 $436 forward 7 unknown #
coedge $-1 $437 $253 $434 $438 forward $341 $-1 #
coedge $-1 $253 $424 $344 $429 forward $341 $-1 #
vertex $-1 $429 $439 #
vertex $-1 $438 $440 #
straight-curve $-1 -70.48108922006422 10.25751695484912 16.891298609118138 -1 0 0 I I #
vertex $-1 $255 $441 #
point $-1 -53.060073765112946 13.308197593698871 11.299875287866781 #
face $-1 $442 $443 $19 $-1 $444 forward single #
plane-surface $-1 -60.285042878505777 15.596208072836177 8.8535990524864445 -0.66913061440640931 0 0.74314481823134659 0.74314481823134659 0 0.66913061440640931 forward_v I I I I #
coedge $-1 $445 $446 $447 $448 reversed $260 $-1 #
coedge $-1 $359 $359 $-1 $449 forward $262 $-1 #
edge $-1 $450 0 $450 6.2831853071796004 $263 $451 forward 7 unknown #
vertex $-1 $266 $452 #
ellipse-curve $-1 -55.821658116690578 13.308197593698871 12.872448830802277 0.66913061440640931 0 -0.74314481823134659 0.74314481823134659 0 0.66913061440640931 1 I I #
vertex $-1 $267 $453 #
point $-1 -53.060073765112946 17.88421855197349 11.299875287866781 #
loop $-1 $-1 $454 $259 #
straight-curve $-1 -60.285042878505813 39.909518940675795 0 0 0 -1 I I #
point $-1 -60.285042878505813 -39.909518940675795 -16.891298609118142 #
straight-curve $-1 -60.285042878505813 0 -16.891298609118142 0 1 0 I I #
point $-1 -60.285042878505813 39.909518940675795 -16.891298609118142 #
loop $-1 $-1 $378 $288 #
plane-surface $-1 0 0 -16.891298609118142 0 0 1 1 0 0 forward_v I I I I #
coedge $-1 $292 $455 $296 $376 reversed $306 $-1 #
straight-curve $-1 -60.285042878505813 -15.545997535065844 -2.5886618522912723 0 1 0 I I #
point $-1 -60.285042878505813 -22.27447119958758 -2.5886618522912723 #
coedge $-1 $297 $296 $456 $457 reversed $200 $-1 #
edge $-1 $298 2.5886618522912723 $458 16.891298609118142 $372 $386 forward 7 unknown #
point $-1 -60.285042878505813 -39.909518940675795 -2.5886618522912723 #
coedge $-1 $456 $459 $300 $379 forward $370 $-1 #
edge $-1 $460 -39.909518940675795 $380 39.909518940675795 $300 $461 forward 7 unknown #
vertex $-1 $301 $462 #
coedge $-1 $463 $304 $464 $465 reversed $306 $-1 #
face $-1 $466 $306 $16 $-1 $467 reversed single #
coedge $-1 $315 $464 $308 $384 forward $289 $-1 #
edge $-1 $385 -60.285042878505813 $317 60.285042878505813 $308 $468 forward 7 unknown #
vertex $-1 $465 $469 #
straight-curve $-1 -60.285042878505813 -39.909518940675795 0 0 0 -1 I I #
straight-curve $-1 -60.285042878505813 -22.27447119958758 -0.19114102202126482 0 0 1 I I #
coedge $-1 $470 $471 $314 $389 forward $472 $-1 #
edge $-1 $391 -16.891298609118142 $460 16.891298609118142 $314 $473 forward 7 unknown #
coedge $-1 $464 $315 $471 $474 forward $289 $-1 #
vertex $-1 $316 $475 #
straight-curve $-1 60.285042878505813 0 16.891298609118142 0 1 0 I I #
point $-1 60.285042878505813 -39.909518940675795 16.891298609118142 #
face $-1 $476 $477 $17 $-1 $478 reversed single #
loop $-1 $-1 $479 $319 #
plane-surface $-1 0 -22.27447119958758 -0.38228204404252963 0 -1 0 0 0 -1 forward_v I I I I #
coedge $-1 $480 $481 $482 $483 reversed $320 $-1 #
coedge $-1 $484 $322 $485 $486 reversed $227 $-1 #
coedge $-1 $322 $484 $487 $488 reversed $227 $-1 #
coedge $-1 $489 $490 $322 $401 forward $477 $-1 #
edge $-1 $491 -24.363521405609951 $492 -6.7284736645217365 $400 $493 forward 7 unknown #
coedge $-1 $323 $335 $494 $495 forward $140 $-1 #
coedge $-1 $496 $324 $323 $404 reversed $241 $-1 #
edge $-1 $497 -39.909518940675795 $326 -20.934899190823234 $403 $339 forward 7 unknown #
straight-curve $-1 -60.285042878505813 20.934899190823234 49.227316758259363 0 0 1 I I #
point $-1 -60.285042878505813 20.934899190823234 16.891298609118142 #
straight-curve $-1 -60.285042878505813 7.7981040364180885 8.8535990524864108 0 1 0 I I #
point $-1 -60.285042878505813 20.934899190823234 8.8535990524864125 #
coedge $-1 $333 $498 $484 $499 forward $241 $-1 #
coedge $-1 $485 $336 $333 $411 forward $417 $-1 #
edge $-1 $338 -16.891298609118142 $500 -1.8240977642062131 $333 $501 forward 7 unknown #
face $-1 $-1 $502 $17 $-1 $503 reversed single #
plane-surface $-1 -60.285042878505813 0 0 1 0 0 0 0 -1 forward_v I I I I #
coedge $-1 $490 $504 $335 $415 reversed $477 $-1 #
edge $-1 $418 -39.909518940675795 $505 39.909518940675795 $414 $506 forward 7 unknown #
coedge $-1 $336 $485 $490 $507 reversed $417 $-1 #
loop $-1 $-1 $485 $508 #
vertex $-1 $415 $509 #
straight-curve $-1 0 -39.909518940675795 16.891298609118142 1 0 0 I I #
point $-1 -60.285042878505813 -39.909518940675795 16.891298609118142 #
face $-1 $510 $511 $18 $-1 $512 forward single #
loop $-1 $-1 $513 $340 #
plane-surface $-1 0 -31.091995070131688 1.8240977642062131 0 0 1 1 0 0 forward_v I I I I #
coedge $-1 $350 $514 $343 $427 forward $341 $-1 #
coedge $-1 $426 $343 $515 $516 reversed $248 $-1 #
coedge $-1 $343 $425 $428 $517 forward $248 $-1 #
edge $-1 $518 10.196046341558407 $519 19.122815865188869 $424 $520 forward 7 unknown #
coedge $-1 $430 $344 $426 $517 reversed $250 $-1 #
edge $-1 $519 -13.136795154405146 $351 -2.4594129184310312 $350 $521 forward 7 unknown #
coedge $-1 $345 $428 $433 $522 reversed $250 $-1 #
vertex $-1 $522 $523 #
straight-curve $-1 -60.285042878505777 10.25751695484912 8.8535990524864445 -0.74314481823134659 0 -0.66913061440640931 I I #
coedge $-1 $515 $347 $430 $522 forward $435 $-1 #
coedge $-1 $347 $524 $349 $438 reversed $435 $-1 #
loop $-1 $-1 $515 $525 #
straight-curve $-1 -60.285042878505813 10.25751695484912 49.227316758259363 0 0 -1 I I #
coedge $-1 $526 $349 $527 $528 forward $341 $-1 #
edge $-1 $352 -10.25751695484912 $529 39.909518940675795 $434 $530 forward 7 unknown #
point $-1 -51.358273354875351 10.25751695484912 16.891298609118142 #
point $-1 -60.285042878505813 10.25751695484912 16.891298609118142 #
point $-1 -53.134087968937884 13.308197593698871 9.8875998552290252 #
face $-1 $531 $532 $19 $-1 $533 forward single #
loop $-1 $-1 $534 $356 #
plane-surface $-1 -140.96217844012844 20.934899190823234 98.454633516518726 0 -1 0 0.66913061440640931 0 -0.74314481823134659 forward_v I I I I #
coedge $-1 $446 $358 $535 $536 forward $260 $-1 #
coedge $-1 $358 $445 $537 $538 reversed $260 $-1 #
coedge $-1 $539 $540 $358 $448 forward $532 $-1 #
edge $-1 $541 -19.122815865188869 $542 -10.196046341558407 $447 $543 forward 7 unknown #
edge $-1 $544 1 $544 0 $359 $-1 forward 7 unknown #
vertex $-1 $360 $545 #
ellipse-curve $-1 -53.803218583344297 13.308197593698871 10.630744673460372 -0.66913061440640931 0 0.74314481823134659 0.74314481823134659 0 0.66913061440640931 1 I I #
point $-1 -55.078513298459249 13.308197593698871 13.541579445208702 #
point $-1 -53.134087968937884 17.88421855197349 9.8875998552290252 #
coedge $-1 $546 $535 $540 $547 reversed $365 $-1 #
coedge $-1 $372 $463 $548 $549 reversed $306 $-1 #
coedge $-1 $548 $378 $375 $457 forward $370 $-1 #
edge $-1 $380 -60.285042878505813 $458 60.285042878505813 $375 $550 forward 7 unknown #
vertex $-1 $549 $551 #
coedge $-1 $378 $548 $470 $552 forward $370 $-1 #
vertex $-1 $379 $553 #
straight-curve $-1 60.285042878505813 0 -16.891298609118142 0 -1 0 I I #
point $-1 60.285042878505813 -39.909518940675795 -16.891298609118142 #
coedge $-1 $455 $381 $554 $555 forward $306 $-1 #
coedge $-1 $383 $390 $381 $465 forward $289 $-1 #
edge $-1 $556 -39.909518940675795 $385 39.909518940675795 $381 $557 forward 7 unknown #
face $-1 $-1 $472 $16 $-1 $558 reversed single #
plane-surface $-1 -60.285042878505813 0 0 1 0 0 0 0 -1 forward_v I I I I #
straight-curve $-1 0 -39.909518940675795 16.891298609118142 1 0 0 I I #
point $-1 -60.285042878505813 -39.909518940675795 16.891298609118142 #
coedge $-1 $554 $388 $459 $552 reversed $472 $-1 #
coedge $-1 $388 $554 $390 $474 reversed $472 $-1 #
loop $-1 $-1 $388 $466 #
straight-curve $-1 60.285042878505813 39.909518940675795 0 0 0 -1 I I #
edge $-1 $391 -60.285042878505813 $556 60.285042878505813 $471 $559 forward 7 unknown #
point $-1 60.285042878505813 39.909518940675795 16.891298609118142 #
face $-1 $560 $561 $17 $-1 $562 reversed single #
loop $-1 $-1 $400 $394 #
plane-surface $-1 60.285042878505813 0 0 -1 0 0 0 0 1 forward_v I I I I #
coedge $-1 $487 $563 $489 $564 reversed $395 $-1 #
coedge $-1 $565 $397 $563 $566 reversed $320 $-1 #
coedge $-1 $397 $565 $567 $568 reversed $320 $-1 #
coedge $-1 $569 $489 $397 $483 forward $477 $-1 #
edge $-1 $570 6.7284736645217365 $571 24.363521405609951 $482 $572 forward 7 unknown #
coedge $-1 $399 $398 $409 $499 reversed $227 $-1 #
coedge $-1 $416 $410 $398 $486 forward $417 $-1 #
edge $-1 $500 -60.285042878505813 $491 60.285042878505813 $485 $573 forward 7 unknown #
coedge $-1 $574 $479 $399 $488 forward $395 $-1 #
edge $-1 $492 -60.285042878505813 $575 60.285042878505813 $487 $576 forward 7 unknown #
coedge $-1 $482 $400 $479 $564 forward $477 $-1 #
coedge $-1 $400 $414 $416 $507 forward $477 $-1 #
vertex $-1 $486 $577 #
vertex $-1 $401 $578 #
straight-curve $-1 60.285042878505813 -15.545997535065844 1.8240977642062131 0 1 0 I I #
coedge $-1 $579 $580 $402 $495 reversed $502 $-1 #
edge $-1 $505 -60.285042878505813 $497 60.285042878505813 $494 $581 forward 7 unknown #
coedge $-1 $582 $403 $580 $583 forward $241 $-1 #
vertex $-1 $495 $584 #
coedge $-1 $409 $585 $574 $586 forward $241 $-1 #
edge $-1 $575 6.7284736645217365 $500 24.363521405609951 $409 $587 forward 7 unknown #
vertex $-1 $499 $588 #
straight-curve $-1 -60.285042878505813 -39.909518940675795 0 0 0 -1 I I #
loop $-1 $-1 $579 $412 #
plane-surface $-1 0 39.909518940675795 0 0 -1 0 0 0 -1 forward_v I I I I #
coedge $-1 $414 $589 $579 $590 reversed $477 $-1 #
vertex $-1 $415 $591 #
straight-curve $-1 60.285042878505813 0 16.891298609118142 0 1 0 I I #
edge $-1 $418 -16.891298609118142 $491 -1.8240977642062131 $490 $592 forward 7 unknown #
face $-1 $334 $417 $17 $-1 $562 reversed single #
point $-1 60.285042878505813 -39.909518940675795 16.891298609118142 #
face $-1 $593 $594 $18 $-1 $595 forward single #
loop $-1 $-1 $596 $421 #
plane-surface $-1 0 -31.091995070131688 -2.5886618522912723 0 0 1 1 0 0 forward_v I I I I #
coedge $-1 $597 $598 $599 $600 reversed $422 $-1 #
coedge $-1 $424 $601 $602 $603 forward $341 $-1 #
coedge $-1 $602 $433 $425 $516 forward $435 $-1 #
edge $-1 $604 -40.373717705772947 $518 -32.336018149141225 $515 $605 forward 7 unknown #
edge $-1 $604 -4.7796872990954678e-014 $519 12.012153357774547 $426 $606 forward 7 unknown #
vertex $-1 $516 $607 #
vertex $-1 $429 $608 #
straight-curve $-1 -70.48108922006422 20.934899190823234 16.891298609118138 1 0 0 I I #
straight-curve $-1 -51.358273354875351 7.7981040364180885 16.891298609118138 0 -1 0 I I #
edge $-1 $431 2.4594129184310312 $604 13.136795154405146 $433 $609 forward 7 unknown #
point $-1 -60.285042878505813 10.25751695484912 8.8535990524864125 #
coedge $-1 $434 $610 $611 $612 reversed $435 $-1 #
face $-1 $613 $435 $18 $-1 $614 reversed single #
coedge $-1 $601 $437 $615 $616 forward $341 $-1 #
coedge $-1 $611 $617 $437 $528 reversed $618 $-1 #
edge $-1 $529 -60.285042878505813 $619 60.285042878505813 $527 $620 forward 7 unknown #
vertex $-1 $438 $621 #
straight-curve $-1 -60.285042878505813 0 16.891298609118142 0 -1 0 I I #
face $-1 $622 $623 $19 $-1 $624 reversed single #
loop $-1 $-1 $625 $442 #
plane-surface $-1 0 0 16.891298609118142 0 0 1 1 0 0 forward_v I I I I #
coedge $-1 $626 $627 $625 $628 reversed $443 $-1 #
coedge $-1 $454 $629 $445 $536 reversed $365 $-1 #
edge $-1 $541 -12.012153357774547 $630 4.7796872990954678e-014 $445 $631 forward 7 unknown #
coedge $-1 $632 $633 $446 $538 forward $634 $-1 #
edge $-1 $542 32.336018149141225 $630 40.373717705772947 $537 $635 forward 7 unknown #
coedge $-1 $636 $447 $633 $637 forward $532 $-1 #
coedge $-1 $447 $625 $454 $547 forward $532 $-1 #
vertex $-1 $547 $638 #
vertex $-1 $637 $639 #
straight-curve $-1 -70.48108922006422 10.25751695484912 16.891298609118138 -1 0 0 I I #
vertex $-1 $449 $640 #
point $-1 -53.060073765112946 13.308197593698871 11.299875287866781 #
coedge $-1 $629 $454 $627 $641 reversed $365 $-1 #
edge $-1 $642 -13.136795154405146 $541 -2.4594129184310312 $540 $643 forward 7 unknown #
coedge $-1 $459 $456 $455 $549 forward $370 $-1 #
edge $-1 $458 -39.909518940675795 $644 39.909518940675795 $455 $645 forward 7 unknown #
straight-curve $-1 0 -39.909518940675795 -16.891298609118142 -1 0 0 I I #
point $-1 -60.285042878505813 -39.909518940675795 -16.891298609118142 #
edge $-1 $644 -60.285042878505813 $460 60.285042878505813 $470 $646 forward 7 unknown #
point $-1 60.285042878505813 39.909518940675795 -16.891298609118142 #
coedge $-1 $471 $470 $463 $555 reversed $472 $-1 #
edge $-1 $556 -16.891298609118142 $644 16.891298609118142 $554 $647 forward 7 unknown #
vertex $-1 $474 $648 #
straight-curve $-1 -60.285042878505813 0 16.891298609118142 0 -1 0 I I #
plane-surface $-1 0 39.909518940675795 0 0 -1 0 0 0 -1 forward_v I I I I #
straight-curve $-1 0 39.909518940675795 16.891298609118142 -1 0 0 I I #
face $-1 $508 $649 $17 $-1 $650 reversed single #
loop $-1 $-1 $567 $476 #
plane-surface $-1 0 -39.909518940675795 0 0 1 0 0 0 1 forward_v I I I I #
coedge $-1 $479 $574 $480 $566 forward $395 $-1 #
edge $-1 $492 -2.0152387862274779 $570 2.3975208302700075 $489 $651 forward 7 unknown #
coedge $-1 $481 $480 $585 $652 reversed $320 $-1 #
edge $-1 $653 -60.285042878505813 $570 60.285042878505813 $563 $654 forward 7 unknown #
coedge $-1 $655 $656 $481 $568 forward $561 $-1 #
edge $-1 $571 -60.285042878505813 $657 60.285042878505813 $567 $658 forward 7 unknown #
coedge $-1 $589 $482 $656 $659 forward $477 $-1 #
vertex $-1 $483 $660 #
vertex $-1 $659 $661 #
straight-curve $-1 60.285042878505813 -15.545997535065844 -2.5886618522912723 0 -1 0 I I #
straight-curve $-1 0 -39.909518940675795 1.8240977642062131 1 0 0 I I #
coedge $-1 $563 $487 $498 $586 reversed $395 $-1 #
vertex $-1 $499 $662 #
straight-curve $-1 0 -22.27447119958758 1.8240977642062131 -1 0 0 I I #
point $-1 60.285042878505813 -39.909518940675795 1.8240977642062131 #
point $-1 60.285042878505813 -22.27447119958758 1.8240977642062131 #
coedge $-1 $663 $494 $504 $590 forward $502 $-1 #
coedge $-1 $494 $663 $496 $583 reversed $502 $-1 #
straight-curve $-1 0 39.909518940675795 16.891298609118142 -1 0 0 I I #
coedge $-1 $664 $496 $665 $666 reversed $241 $-1 #
edge $-1 $497 -16.891298609118142 $667 16.891298609118142 $580 $668 forward 7 unknown #
point $-1 -60.285042878505813 39.909518940675795 16.891298609118142 #
coedge $-1 $498 $664 $565 $652 forward $241 $-1 #
edge $-1 $653 -2.3975208302700075 $575 2.0152387862274779 $498 $669 forward 7 unknown #
straight-curve $-1 -60.285042878505813 -15.545997535065844 1.8240977642062131 0 -1 0 I I #
point $-1 -60.285042878505813 -39.909518940675795 1.8240977642062131 #
coedge $-1 $504 $569 $670 $671 reversed $477 $-1 #
edge $-1 $505 -16.891298609118142 $672 16.891298609118142 $504 $673 forward 7 unknown #
point $-1 60.285042878505813 39.909518940675795 16.891298609118142 #
straight-curve $-1 60.285042878505813 -39.909518940675795 0 0 0 -1 I I #
face $-1 $674 $675 $18 $-1 $676 reversed single #
loop $-1 $-1 $677 $510 #
plane-surface $-1 0 -22.27447119958758 -0.38228204404252963 0 -1 0 0 0 -1 forward_v I I I I #
coedge $-1 $678 $679 $680 $681 reversed $511 $-1 #
coedge $-1 $682 $513 $683 $684 reversed $422 $-1 #
coedge $-1 $513 $682 $685 $686 reversed $422 $-1 #
coedge $-1 $687 $688 $513 $600 forward $675 $-1 #
edge $-1 $689 -24.363521405609951 $690 -6.7284736645217365 $599 $691 forward 7 unknown #
coedge $-1 $514 $526 $692 $693 forward $341 $-1 #
coedge $-1 $694 $515 $514 $603 reversed $435 $-1 #
edge $-1 $695 -39.909518940675795 $518 -20.934899190823234 $602 $530 forward 7 unknown #
vertex $-1 $522 $696 #
straight-curve $-1 -60.285042878505813 20.934899190823234 49.227316758259363 0 0 1 I I #
straight-curve $-1 -60.285042878505777 20.934899190823234 8.8535990524864445 0.74314481823134659 0 0.66913061440640931 I I #
point $-1 -60.285042878505813 20.934899190823234 16.891298609118142 #
point $-1 -51.358273354875351 20.934899190823234 16.891298609118142 #
straight-curve $-1 -60.285042878505813 7.7981040364180885 8.8535990524864108 0 1 0 I I #
coedge $-1 $524 $697 $682 $698 forward $435 $-1 #
coedge $-1 $683 $527 $524 $612 forward $618 $-1 #
edge $-1 $529 -16.891298609118142 $699 -1.8240977642062131 $524 $700 forward 7 unknown #
face $-1 $-1 $701 $18 $-1 $702 reversed single #
plane-surface $-1 -60.285042878505813 0 0 1 0 0 0 0 -1 forward_v I I I I #
coedge $-1 $688 $703 $526 $616 reversed $675 $-1 #
edge $-1 $619 -39.909518940675795 $704 39.909518940675795 $615 $705 forward 7 unknown #
coedge $-1 $527 $683 $688 $706 reversed $618 $-1 #
loop $-1 $-1 $683 $707 #
vertex $-1 $616 $708 #
straight-curve $-1 0 -39.909518940675795 16.891298609118142 1 0 0 I I #
point $-1 -60.285042878505813 -39.909518940675795 16.891298609118142 #
face $-1 $709 $710 $19 $-1 $711 forward single #
loop $-1 $-1 $712 $531 #
plane-surface $-1 0 -31.091995070131688 1.8240977642062131 0 0 1 1 0 0 forward_v I I I I #
coedge $-1 $540 $713 $534 $628 forward $532 $-1 #
coedge $-1 $627 $534 $714 $715 reversed $443 $-1 #
coedge $-1 $534 $626 $546 $641 forward $443 $-1 #
edge $-1 $716 10.196046341558407 $642 19.122815865188869 $625 $717 forward 7 unknown #
coedge $-1 $535 $546 $632 $718 reversed $365 $-1 #
vertex $-1 $718 $719 #
straight-curve $-1 -60.285042878505777 10.25751695484912 8.8535990524864445 -0.74314481823134659 0 -0.66913061440640931 I I #
coedge $-1 $714 $537 $629 $718 forward $634 $-1 #
coedge $-1 $537 $720 $539 $637 reversed $634 $-1 #
loop $-1 $-1 $714 $721 #
straight-curve $-1 -60.285042878505813 10.25751695484912 49.227316758259363 0 0 -1 I I #
coedge $-1 $722 $539 $723 $724 forward $532 $-1 #
edge $-1 $542 -10.25751695484912 $725 39.909518940675795 $633 $726 forward 7 unknown #
point $-1 -51.358273354875351 10.25751695484912 16.891298609118142 #
point $-1 -60.285042878505813 10.25751695484912 16.891298609118142 #
point $-1 -53.134087968937884 13.308197593698871 9.8875998552290252 #
edge $-1 $727 -4.7796872990954678e-014 $642 12.012153357774547 $627 $728 forward 7 unknown #
vertex $-1 $547 $729 #
straight-curve $-1 -51.358273354875351 7.7981040364180885 16.891298609118138 0 -1 0 I I #
vertex $-1 $552 $730 #
straight-curve $-1 -60.285042878505813 0 -16.891298609118142 0 1 0 I I #
straight-curve $-1 0 39.909518940675795 -16.891298609118142 1 0 0 I I #
straight-curve $-1 -60.285042878505813 39.909518940675795 0 0 0 -1 I I #
point $-1 -60.285042878505813 39.909518940675795 16.891298609118142 #
loop $-1 $-1 $670 $560 #
plane-surface $-1 0 0 -16.891298609118142 0 0 1 1 0 0 forward_v I I I I #
straight-curve $-1 60.285042878505813 -22.27447119958758 -0.19114102202126482 0 0 -1 I I #
edge $-1 $657 -24.363521405609951 $653 -6.7284736645217365 $585 $731 forward 7 unknown #
vertex $-1 $652 $732 #
straight-curve $-1 0 -22.27447119958758 -2.5886618522912723 1 0 0 I I #
coedge $-1 $733 $567 $664 $734 forward $561 $-1 #
coedge $-1 $567 $733 $569 $659 reversed $561 $-1 #
vertex $-1 $734 $735 #
straight-curve $-1 0 -39.909518940675795 -2.5886618522912723 -1 0 0 I I #
edge $-1 $571 2.5886618522912723 $736 16.891298609118142 $569 $592 forward 7 unknown #
point $-1 60.285042878505813 -22.27447119958758 -2.5886618522912723 #
point $-1 60.285042878505813 -39.909518940675795 -2.5886618522912723 #
point $-1 -60.285042878505813 -22.27447119958758 1.8240977642062131 #
coedge $-1 $580 $579 $737 $738 reversed $502 $-1 #
coedge $-1 $585 $582 $655 $734 reversed $241 $-1 #
coedge $-1 $737 $739 $582 $666 forward $649 $-1 #
edge $-1 $740 -39.909518940675795 $667 39.909518940675795 $582 $741 forward 7 unknown #
vertex $-1 $738 $742 #
straight-curve $-1 -60.285042878505813 39.909518940675795 0 0 0 -1 I I #
straight-curve $-1 -60.285042878505813 -22.27447119958758 -0.19114102202126482 0 0 1 I I #
coedge $-1 $739 $737 $589 $671 forward $649 $-1 #
edge $-1 $672 -39.909518940675795 $736 39.909518940675795 $589 $743 forward 7 unknown #
vertex $-1 $671 $744 #
straight-curve $-1 60.285042878505813 39.909518940675795 0 0 0 -1 I I #
face $-1 $745 $746 $18 $-1 $747 reversed single #
loop $-1 $-1 $599 $593 #
plane-surface $-1 60.285042878505813 0 0 -1 0 0 0 0 1 forward_v I I I I #
coedge $-1 $685 $748 $687 $749 reversed $594 $-1 #
coedge $-1 $750 $596 $748 $751 reversed $511 $-1 #
coedge $-1 $596 $750 $752 $753 reversed $511 $-1 #
coedge $-1 $754 $687 $596 $681 forward $675 $-1 #
edge $-1 $755 6.7284736645217365 $756 24.363521405609951 $680 $757 forward 7 unknown #
coedge $-1 $598 $597 $610 $698 reversed $422 $-1 #
coedge $-1 $617 $611 $597 $684 forward $618 $-1 #
edge $-1 $699 -60.285042878505813 $689 60.285042878505813 $683 $758 forward 7 unknown #
coedge $-1 $759 $677 $598 $686 forward $594 $-1 #
edge $-1 $690 -60.285042878505813 $760 60.285042878505813 $685 $761 forward 7 unknown #
coedge $-1 $680 $599 $677 $749 forward $675 $-1 #
coedge $-1 $599 $615 $617 $706 forward $675 $-1 #
vertex $-1 $684 $762 #
vertex $-1 $600 $763 #
straight-curve $-1 60.285042878505813 -15.545997535065844 1.8240977642062131 0 1 0 I I #
coedge $-1 $764 $765 $601 $693 reversed $701 $-1 #
edge $-1 $704 -60.285042878505813 $695 60.285042878505813 $692 $766 forward 7 unknown #
coedge $-1 $767 $602 $765 $768 forward $435 $-1 #
vertex $-1 $693 $769 #
point $-1 -60.285042878505813 20.934899190823234 8.8535990524864125 #
coedge $-1 $610 $770 $759 $771 forward $435 $-1 #
edge $-1 $760 6.7284736645217365 $699 24.363521405609951 $610 $772 forward 7 unknown #
vertex $-1 $698 $773 #
straight-curve $-1 -60.285042878505813 -39.909518940675795 0 0 0 -1 I I #
loop $-1 $-1 $764 $613 #
plane-surface $-1 0 39.909518940675795 0 0 -1 0 0 0 -1 forward_v I I I I #
coedge $-1 $615 $774 $764 $775 reversed $675 $-1 #
vertex $-1 $616 $776 #
straight-curve $-1 60.285042878505813 0 16.891298609118142 0 1 0 I I #
edge $-1 $619 -16.891298609118142 $689 -1.8240977642062131 $688 $777 forward 7 unknown #
face $-1 $525 $618 $18 $-1 $747 reversed single #
point $-1 60.285042878505813 -39.909518940675795 16.891298609118142 #
face $-1 $778 $779 $19 $-1 $780 forward single #
loop $-1 $-1 $781 $622 #
plane-surface $-1 0 -31.091995070131688 -2.5886618522912723 0 0 1 1 0 0 forward_v I I I I #
coedge $-1 $782 $783 $784 $785 reversed $623 $-1 #
coedge $-1 $625 $786 $787 $788 forward $532 $-1 #
coedge $-1 $787 $632 $626 $715 forward $634 $-1 #
edge $-1 $727 -40.373717705772947 $716 -32.336018149141225 $714 $789 forward 7 unknown #
vertex $-1 $715 $790 #
straight-curve $-1 -70.48108922006422 20.934899190823234 16.891298609118138 1 0 0 I I #
edge $-1 $630 2.4594129184310312 $727 13.136795154405146 $632 $791 forward 7 unknown #
point $-1 -60.285042878505813 10.25751695484912 8.8535990524864125 #
coedge $-1 $633 $792 $793 $794 reversed $634 $-1 #
face $-1 $795 $634 $19 $-1 $796 reversed single #
coedge $-1 $786 $636 $797 $798 forward $532 $-1 #
coedge $-1 $793 $799 $636 $724 reversed $800 $-1 #
edge $-1 $725 -60.285042878505813 $801 60.285042878505813 $723 $802 forward 7 unknown #
vertex $-1 $637 $803 #
straight-curve $-1 -60.285042878505813 0 16.891298609118142 0 -1 0 I I #
vertex $-1 $718 $804 #
straight-curve $-1 -60.285042878505777 20.934899190823234 8.8535990524864445 0.74314481823134659 0 0.66913061440640931 I I #
point $-1 -51.358273354875351 20.934899190823234 16.891298609118142 #
point $-1 -60.285042878505813 39.909518940675795 -16.891298609118142 #
straight-curve $-1 -60.285042878505813 -15.545997535065844 -2.5886618522912723 0 1 0 I I #
point $-1 -60.285042878505813 -22.27447119958758 -2.5886618522912723 #
coedge $-1 $656 $655 $739 $805 reversed $561 $-1 #
edge $-1 $657 2.5886618522912723 $740 16.891298609118142 $664 $501 forward 7 unknown #
point $-1 -60.285042878505813 -39.909518940675795 -2.5886618522912723 #
vertex $-1 $659 $806 #
coedge $-1 $670 $665 $663 $738 forward $649 $-1 #
edge $-1 $667 -60.285042878505813 $672 60.285042878505813 $663 $807 forward 7 unknown #
coedge $-1 $665 $670 $733 $805 forward $649 $-1 #
vertex $-1 $666 $808 #
straight-curve $-1 -60.285042878505813 0 -16.891298609118142 0 1 0 I I #
point $-1 -60.285042878505813 39.909518940675795 -16.891298609118142 #
straight-curve $-1 60.285042878505813 0 -16.891298609118142 0 -1 0 I I #
point $-1 60.285042878505813 39.909518940675795 -16.891298609118142 #
face $-1 $707 $809 $18 $-1 $810 reversed single #
loop $-1 $-1 $752 $674 #
plane-surface $-1 0 -39.909518940675795 0 0 1 0 0 0 1 forward_v I I I I #
coedge $-1 $677 $759 $678 $751 forward $594 $-1 #
edge $-1 $690 -2.0152387862274779 $755 2.3975208302700075 $687 $811 forward 7 unknown #
coedge $-1 $679 $678 $770 $812 reversed $511 $-1 #
edge $-1 $813 -60.285042878505813 $755 60.285042878505813 $748 $814 forward 7 unknown #
coedge $-1 $815 $816 $679 $753 forward $746 $-1 #
edge $-1 $756 -60.285042878505813 $817 60.285042878505813 $752 $818 forward 7 unknown #
coedge $-1 $774 $680 $816 $819 forward $675 $-1 #
vertex $-1 $681 $820 #
vertex $-1 $819 $821 #
straight-curve $-1 60.285042878505813 -15.545997535065844 -2.5886618522912723 0 -1 0 I I #
straight-curve $-1 0 -39.909518940675795 1.8240977642062131 1 0 0 I I #
coedge $-1 $748 $685 $697 $771 reversed $594 $-1 #
vertex $-1 $698 $822 #
straight-curve $-1 0 -22.27447119958758 1.8240977642062131 -1 0 0 I I #
point $-1 60.285042878505813 -39.909518940675795 1.8240977642062131 #
point $-1 60.285042878505813 -22.27447119958758 1.8240977642062131 #
coedge $-1 $823 $692 $703 $775 forward $701 $-1 #
coedge $-1 $692 $823 $694 $768 reversed $701 $-1 #
straight-curve $-1 0 39.909518940675795 16.891298609118142 -1 0 0 I I #
coedge $-1 $824 $694 $825 $826 reversed $435 $-1 #
edge $-1 $695 -16.891298609118142 $827 16.891298609118142 $765 $828 forward 7 unknown #
point $-1 -60.285042878505813 39.909518940675795 16.891298609118142 #
coedge $-1 $697 $824 $750 $812 forward $435 $-1 #
edge $-1 $813 -2.3975208302700075 $760 2.0152387862274779 $697 $829 forward 7 unknown #
straight-curve $-1 -60.285042878505813 -15.545997535065844 1.8240977642062131 0 -1 0 I I #
point $-1 -60.285042878505813 -39.909518940675795 1.8240977642062131 #
coedge $-1 $703 $754 $830 $831 reversed $675 $-1 #
edge $-1 $704 -16.891298609118142 $832 16.891298609118142 $703 $833 forward 7 unknown #
point $-1 60.285042878505813 39.909518940675795 16.891298609118142 #
straight-curve $-1 60.285042878505813 -39.909518940675795 0 0 0 -1 I I #
face $-1 $834 $835 $19 $-1 $836 reversed single #
loop $-1 $-1 $837 $709 #
plane-surface $-1 0 -22.27447119958758 -0.38228204404252963 0 -1 0 0 0 -1 forward_v I I I I #
coedge $-1 $838 $839 $840 $841 reversed $710 $-1 #
coedge $-1 $842 $712 $843 $844 reversed $623 $-1 #
coedge $-1 $712 $842 $845 $846 reversed $623 $-1 #
coedge $-1 $847 $848 $712 $785 forward $835 $-1 #
edge $-1 $849 -24.363521405609951 $850 -6.7284736645217365 $784 $851 forward 7 unknown #
coedge $-1 $713 $722 $852 $853 forward $532 $-1 #
coedge $-1 $854 $714 $713 $788 reversed $634 $-1 #
edge $-1 $855 -39.909518940675795 $716 -20.934899190823234 $787 $726 forward 7 unknown #
straight-curve $-1 -60.285042878505813 20.934899190823234 49.227316758259363 0 0 1 I I #
point $-1 -60.285042878505813 20.934899190823234 16.891298609118142 #
straight-curve $-1 -60.285042878505813 7.7981040364180885 8.8535990524864108 0 1 0 I I #
coedge $-1 $720 $856 $842 $857 forward $634 $-1 #
coedge $-1 $843 $723 $720 $794 forward $800 $-1 #
edge $-1 $725 -16.891298609118142 $858 -1.8240977642062131 $720 $859 forward 7 unknown #
face $-1 $-1 $860 $19 $-1 $861 reversed single #
plane-surface $-1 -60.285042878505813 0 0 1 0 0 0 0 -1 forward_v I I I I #
coedge $-1 $848 $862 $722 $798 reversed $835 $-1 #
edge $-1 $801 -39.909518940675795 $863 39.909518940675795 $797 $864 forward 7 unknown #
coedge $-1 $723 $843 $848 $865 reversed $800 $-1 #
loop $-1 $-1 $843 $866 #
vertex $-1 $798 $867 #
straight-curve $-1 0 -39.909518940675795 16.891298609118142 1 0 0 I I #
point $-1 -60.285042878505813 -39.909518940675795 16.891298609118142 #
point $-1 -60.285042878505813 20.934899190823234 8.8535990524864125 #
edge $-1 $736 -60.285042878505813 $740 60.285042878505813 $733 $868 forward 7 unknown #
point $-1 60.285042878505813 -39.909518940675795 -16.891298609118142 #
straight-curve $-1 0 39.909518940675795 -16.891298609118142 1 0 0 I I #
point $-1 -60.285042878505813 -39.909518940675795 -16.891298609118142 #
loop $-1 $-1 $830 $745 #
plane-surface $-1 0 0 -16.891298609118142 0 0 1 1 0 0 forward_v I I I I #
straight-curve $-1 60.285042878505813 -22.27447119958758 -0.19114102202126482 0 0 -1 I I #
edge $-1 $817 -24.363521405609951 $813 -6.7284736645217365 $770 $869 forward 7 unknown #
vertex $-1 $812 $870 #
straight-curve $-1 0 -22.27447119958758 -2.5886618522912723 1 0 0 I I #
coedge $-1 $871 $752 $824 $872 forward $746 $-1 #
coedge $-1 $752 $871 $754 $819 reversed $746 $-1 #
vertex $-1 $872 $873 #
straight-curve $-1 0 -39.909518940675795 -2.5886618522912723 -1 0 0 I I #
edge $-1 $756 2.5886618522912723 $874 16.891298609118142 $754 $777 forward 7 unknown #
point $-1 60.285042878505813 -22.27447119958758 -2.5886618522912723 #
point $-1 60.285042878505813 -39.909518940675795 -2.5886618522912723 #
point $-1 -60.285042878505813 -22.27447119958758 1.8240977642062131 #
coedge $-1 $765 $764 $875 $876 reversed $701 $-1 #
coedge $-1 $770 $767 $815 $872 reversed $435 $-1 #
coedge $-1 $875 $877 $767 $826 forward $809 $-1 #
edge $-1 $878 -39.909518940675795 $827 39.909518940675795 $767 $879 forward 7 unknown #
vertex $-1 $876 $880 #
straight-curve $-1 -60.285042878505813 39.909518940675795 0 0 0 -1 I I #
straight-curve $-1 -60.285042878505813 -22.27447119958758 -0.19114102202126482 0 0 1 I I #
coedge $-1 $877 $875 $774 $831 forward $809 $-1 #
edge $-1 $832 -39.909518940675795 $874 39.909518940675795 $774 $881 forward 7 unknown #
vertex $-1 $831 $882 #
straight-curve $-1 60.285042878505813 39.909518940675795 0 0 0 -1 I I #
face $-1 $883 $884 $19 $-1 $885 reversed single #
loop $-1 $-1 $784 $778 #
plane-surface $-1 60.285042878505813 0 0 -1 0 0 0 0 1 forward_v I I I I #
coedge $-1 $845 $886 $847 $887 reversed $779 $-1 #
coedge $-1 $888 $781 $886 $889 reversed $710 $-1 #
coedge $-1 $781 $888 $890 $891 reversed $710 $-1 #
coedge $-1 $892 $847 $781 $841 forward $835 $-1 #
edge $-1 $893 6.7284736645217365 $894 24.363521405609951 $840 $895 forward 7 unknown #
coedge $-1 $783 $782 $792 $857 reversed $623 $-1 #
coedge $-1 $799 $793 $782 $844 forward $800 $-1 #
edge $-1 $858 -60.285042878505813 $849 60.285042878505813 $843 $896 forward 7 unknown #
coedge $-1 $897 $837 $783 $846 forward $779 $-1 #
edge $-1 $850 -60.285042878505813 $898 60.285042878505813 $845 $899 forward 7 unknown #
coedge $-1 $840 $784 $837 $887 forward $835 $-1 #
coedge $-1 $784 $797 $799 $865 forward $835 $-1 #
vertex $-1 $844 $900 #
vertex $-1 $785 $901 #
straight-curve $-1 60.285042878505813 -15.545997535065844 1.8240977642062131 0 1 0 I I #
coedge $-1 $902 $903 $786 $853 reversed $860 $-1 #
edge $-1 $863 -60.285042878505813 $855 60.285042878505813 $852 $904 forward 7 unknown #
coedge $-1 $905 $787 $903 $906 forward $634 $-1 #
vertex $-1 $853 $907 #
coedge $-1 $792 $908 $897 $909 forward $634 $-1 #
edge $-1 $898 6.7284736645217365 $858 24.363521405609951 $792 $910 forward 7 unknown #
vertex $-1 $857 $911 #
straight-curve $-1 -60.285042878505813 -39.909518940675795 0 0 0 -1 I I #
loop $-1 $-1 $902 $795 #
plane-surface $-1 0 39.909518940675795 0 0 -1 0 0 0 -1 forward_v I I I I #
coedge $-1 $797 $912 $902 $913 reversed $835 $-1 #
vertex $-1 $798 $914 #
straight-curve $-1 60.285042878505813 0 16.891298609118142 0 1 0 I I #
edge $-1 $801 -16.891298609118142 $849 -1.8240977642062131 $848 $915 forward 7 unknown #
face $-1 $721 $800 $19 $-1 $885 reversed single #
point $-1 60.285042878505813 -39.909518940675795 16.891298609118142 #
straight-curve $-1 0 -39.909518940675795 -16.891298609118142 -1 0 0 I I #
straight-curve $-1 -60.285042878505813 -15.545997535065844 -2.5886618522912723 0 1 0 I I #
point $-1 -60.285042878505813 -22.27447119958758 -2.5886618522912723 #
coedge $-1 $816 $815 $877 $916 reversed $746 $-1 #
edge $-1 $817 2.5886618522912723 $878 16.891298609118142 $824 $700 forward 7 unknown #
point $-1 -60.285042878505813 -39.909518940675795 -2.5886618522912723 #
vertex $-1 $819 $917 #
coedge $-1 $830 $825 $823 $876 forward $809 $-1 #
edge $-1 $827 -60.285042878505813 $832 60.285042878505813 $823 $918 forward 7 unknown #
coedge $-1 $825 $830 $871 $916 forward $809 $-1 #
vertex $-1 $826 $919 #
straight-curve $-1 -60.285042878505813 0 -16.891298609118142 0 1 0 I I #
point $-1 -60.285042878505813 39.909518940675795 -16.891298609118142 #
straight-curve $-1 60.285042878505813 0 -16.891298609118142 0 -1 0 I I #
point $-1 60.285042878505813 39.909518940675795 -16.891298609118142 #
face $-1 $866 $920 $19 $-1 $921 reversed single #
loop $-1 $-1 $890 $834 #
plane-surface $-1 0 -39.909518940675795 0 0 1 0 0 0 1 forward_v I I I I #
coedge $-1 $837 $897 $838 $889 forward $779 $-1 #
edge $-1 $850 -2.0152387862274779 $893 2.3975208302700075 $847 $922 forward 7 unknown #
coedge $-1 $839 $838 $908 $923 reversed $710 $-1 #
edge $-1 $924 -60.285042878505813 $893 60.285042878505813 $886 $925 forward 7 unknown #
coedge $-1 $926 $927 $839 $891 forward $884 $-1 #
edge $-1 $894 -60.285042878505813 $928 60.285042878505813 $890 $929 forward 7 unknown #
coedge $-1 $912 $840 $927 $930 forward $835 $-1 #
vertex $-1 $841 $931 #
vertex $-1 $930 $932 #
straight-curve $-1 60.285042878505813 -15.545997535065844 -2.5886618522912723 0 -1 0 I I #
straight-curve $-1 0 -39.909518940675795 1.8240977642062131 1 0 0 I I #
coedge $-1 $886 $845 $856 $909 reversed $779 $-1 #
vertex $-1 $857 $933 #
straight-curve $-1 0 -22.27447119958758 1.8240977642062131 -1 0 0 I I #
point $-1 60.285042878505813 -39.909518940675795 1.8240977642062131 #
point $-1 60.285042878505813 -22.27447119958758 1.8240977642062131 #
coedge $-1 $934 $852 $862 $913 forward $860 $-1 #
coedge $-1 $852 $934 $854 $906 reversed $860 $-1 #
straight-curve $-1 0 39.909518940675795 16.891298609118142 -1 0 0 I I #
coedge $-1 $935 $854 $936 $937 reversed $634 $-1 #
edge $-1 $855 -16.891298609118142 $938 16.891298609118142 $903 $939 forward 7 unknown #
point $-1 -60.285042878505813 39.909518940675795 16.891298609118142 #
coedge $-1 $856 $935 $888 $923 forward $634 $-1 #
edge $-1 $924 -2.3975208302700075 $898 2.0152387862274779 $856 $940 forward 7 unknown #
straight-curve $-1 -60.285042878505813 -15.545997535065844 1.8240977642062131 0 -1 0 I I #
point $-1 -60.285042878505813 -39.909518940675795 1.8240977642062131 #
coedge $-1 $862 $892 $941 $942 reversed $835 $-1 #
edge $-1 $863 -16.891298609118142 $943 16.891298609118142 $862 $944 forward 7 unknown #
point $-1 60.285042878505813 39.909518940675795 16.891298609118142 #
straight-curve $-1 60.285042878505813 -39.909518940675795 0 0 0 -1 I I #
edge $-1 $874 -60.285042878505813 $878 60.285042878505813 $871 $945 forward 7 unknown #
point $-1 60.285042878505813 -39.909518940675795 -16.891298609118142 #
straight-curve $-1 0 39.909518940675795 -16.891298609118142 1 0 0 I I #
point $-1 -60.285042878505813 -39.909518940675795 -16.891298609118142 #
loop $-1 $-1 $941 $883 #
plane-surface $-1 0 0 -16.891298609118142 0 0 1 1 0 0 forward_v I I I I #
straight-curve $-1 60.285042878505813 -22.27447119958758 -0.19114102202126482 0 0 -1 I I #
edge $-1 $928 -24.363521405609951 $924 -6.7284736645217365 $908 $946 forward 7 unknown #
vertex $-1 $923 $947 #
straight-curve $-1 0 -22.27447119958758 -2.5886618522912723 1 0 0 I I #
coedge $-1 $948 $890 $935 $949 forward $884 $-1 #
coedge $-1 $890 $948 $892 $930 reversed $884 $-1 #
vertex $-1 $949 $950 #
straight-curve $-1 0 -39.909518940675795 -2.5886618522912723 -1 0 0 I I #
edge $-1 $894 2.5886618522912723 $951 16.891298609118142 $892 $915 forward 7 unknown #
point $-1 60.285042878505813 -22.27447119958758 -2.5886618522912723 #
point $-1 60.285042878505813 -39.909518940675795 -2.5886618522912723 #
point $-1 -60.285042878505813 -22.27447119958758 1.8240977642062131 #
coedge $-1 $903 $902 $952 $953 reversed $860 $-1 #
coedge $-1 $908 $905 $926 $949 reversed $634 $-1 #
coedge $-1 $952 $954 $905 $937 forward $920 $-1 #
edge $-1 $955 -39.909518940675795 $938 39.909518940675795 $905 $956 forward 7 unknown #
vertex $-1 $953 $957 #
straight-curve $-1 -60.285042878505813 39.909518940675795 0 0 0 -1 I I #
straight-curve $-1 -60.285042878505813 -22.27447119958758 -0.19114102202126482 0 0 1 I I #
coedge $-1 $954 $952 $912 $942 forward $920 $-1 #
edge $-1 $943 -39.909518940675795 $951 39.909518940675795 $912 $958 forward 7 unknown #
vertex $-1 $942 $959 #
straight-curve $-1 60.285042878505813 39.909518940675795 0 0 0 -1 I I #
straight-curve $-1 0 -39.909518940675795 -16.891298609118142 -1 0 0 I I #
straight-curve $-1 -60.285042878505813 -15.545997535065844 -2.5886618522912723 0 1 0 I I #
point $-1 -60.285042878505813 -22.27447119958758 -2.5886618522912723 #
coedge $-1 $927 $926 $954 $960 reversed $884 $-1 #
edge $-1 $928 2.5886618522912723 $955 16.891298609118142 $935 $859 forward 7 unknown #
point $-1 -60.285042878505813 -39.909518940675795 -2.5886618522912723 #
vertex $-1 $930 $961 #
coedge $-1 $941 $936 $934 $953 forward $920 $-1 #
edge $-1 $938 -60.285042878505813 $943 60.285042878505813 $934 $962 forward 7 unknown #
coedge $-1 $936 $941 $948 $960 forward $920 $-1 #
vertex $-1 $937 $963 #
straight-curve $-1 -60.285042878505813 0 -16.891298609118142 0 1 0 I I #
point $-1 -60.285042878505813 39.909518940675795 -16.891298609118142 #
straight-curve $-1 60.285042878505813 0 -16.891298609118142 0 -1 0 I I #
point $-1 60.285042878505813 39.909518940675795 -16.891298609118142 #
edge $-1 $951 -60.285042878505813 $955 60.285042878505813 $948 $964 forward 7 unknown #
point $-1 60.285042878505813 -39.909518940675795 -16.891298609118142 #
straight-curve $-1 0 39.909518940675795 -16.891298609118142 1 0 0 I I #
point $-1 -60.285042878505813 -39.909518940675795 -16.891298609118142 #
straight-curve $-1 0 -39.909518940675795 -16.891298609118142 -1 0 0 I I #
End-of-ACIS-data 