500 0 12 0           
7 Unknown 11 ACIS 5.0 NT 24 Fri Mar 26 01:00:07 1999 
-1 9.9999999999999995e-007 1e-010 
body $-1 $12 $-1 $13 #
body $-1 $14 $-1 $15 #
body $-1 $16 $-1 $17 #
body $-1 $18 $-1 $19 #
body $-1 $20 $-1 $21 #
body $-1 $22 $-1 $23 #
body $-1 $24 $-1 $25 #
body $-1 $26 $-1 $27 #
body $-1 $28 $-1 $29 #
body $-1 $30 $-1 $31 #
body $-1 $32 $-1 $33 #
body $-1 $34 $-1 $35 #
lump $-1 $-1 $36 $0 #
transform $-1 1 0 0 0 1 0 0 0 1 75.710318308053843 34.606041151012143 12.737076250173548 1 rotate no_reflect no_shear #
lump $-1 $-1 $37 $1 #
transform $-1 1 0 0 0 1 0 0 0 1 3.3891032655533957 -6.3421170589920965 12.737076250173548 1 rotate no_reflect no_shear #
lump $-1 $-1 $38 $2 #
transform $-1 0.69465836192734942 0 -0.71933980857756763 0 1 0 0.71933980857756763 0 0.69465836192734942 155.1579169804902 21.898107295511352 229.38036319103409 1 rotate no_reflect no_shear #
lump $-1 $-1 $39 $3 #
transform $-1 0.69465836192734942 0 -0.71933980857756763 0 -1 0 -0.71933980857756763 0 -0.69465836192734942 144.67328685748924 19.092868456300444 18.61426472976602 1 rotate no_reflect no_shear #
lump $-1 $-1 $40 $4 #
transform $-1 0.69465836192734942 0 -0.71933980857756763 0 -1 0 -0.71933980857756763 0 -0.69465836192734942 144.67328685748924 24.70334613472226 18.61426472976602 1 rotate no_reflect no_shear #
lump $-1 $-1 $41 $5 #
transform $-1 0.69465836192734942 0 -0.71933980857756763 0 1 0 0.71933980857756763 0 0.69465836192734942 155.1579169804902 59.99820912449713 229.38036319103409 1 rotate no_reflect no_shear #
lump $-1 $-1 $42 $6 #
transform $-1 0.69465836192734942 0 -0.71933980857756763 0 -1 0 -0.71933980857756763 0 -0.69465836192734942 144.67328685748924 57.192970285286222 18.61426472976602 1 rotate no_reflect no_shear #
lump $-1 $-1 $43 $7 #
transform $-1 0.69465836192734942 0 -0.71933980857756763 0 -1 0 -0.71933980857756763 0 -0.69465836192734942 144.67328685748924 62.803447963708038 18.61426472976602 1 rotate no_reflect no_shear #
lump $-1 $-1 $44 $8 #
transform $-1 0.69465836192734942 0 0.71933980857756763 0 1 0 -0.71933980857756763 0 0.69465836192734942 -108.92289175812432 23.623940788100676 121.776272189716 1 rotate no_reflect no_shear #
lump $-1 $-1 $45 $9 #
transform $-1 0.69465836192734942 0 0.71933980857756763 0 -1 0 0.71933980857756763 0 -0.69465836192734942 7.4640206308068304 23.623940788100676 17.966657142827046 1 rotate no_reflect no_shear #
lump $-1 $-1 $46 $10 #
transform $-1 0.69465836192734942 0 0.71933980857756763 0 1 0 -0.71933980857756763 0 0.69465836192734942 -108.92289175812432 58.272375631907806 121.776272189716 1 rotate no_reflect no_shear #
lump $-1 $-1 $47 $11 #
transform $-1 0.69465836192734942 0 0.71933980857756763 0 -1 0 0.71933980857756763 0 -0.69465836192734942 7.4640206308068304 58.272375631907806 17.966657142827046 1 rotate no_reflect no_shear #
shell $-1 $-1 $-1 $48 $-1 $12 #
shell $-1 $-1 $-1 $49 $-1 $14 #
shell $-1 $-1 $-1 $50 $-1 $16 #
shell $-1 $-1 $-1 $51 $-1 $18 #
shell $-1 $-1 $-1 $52 $-1 $20 #
shell $-1 $-1 $-1 $53 $-1 $22 #
shell $-1 $-1 $-1 $54 $-1 $24 #
shell $-1 $-1 $-1 $55 $-1 $26 #
shell $-1 $-1 $-1 $56 $-1 $28 #
shell $-1 $-1 $-1 $57 $-1 $30 #
shell $-1 $-1 $-1 $58 $-1 $32 #
shell $-1 $-1 $-1 $59 $-1 $34 #
face $-1 $60 $61 $36 $-1 $62 forward single #
face $-1 $63 $64 $37 $-1 $65 forward single #
face $-1 $66 $67 $38 $-1 $68 forward single #
face $-1 $69 $70 $39 $-1 $71 forward single #
face $-1 $72 $73 $40 $-1 $74 forward single #
face $-1 $75 $76 $41 $-1 $77 forward single #
face $-1 $78 $79 $42 $-1 $80 forward single #
face $-1 $81 $82 $43 $-1 $83 forward single #
face $-1 $84 $85 $44 $-1 $86 forward single #
face $-1 $87 $88 $45 $-1 $89 forward single #
face $-1 $90 $91 $46 $-1 $92 forward single #
face $-1 $93 $94 $47 $-1 $95 forward single #
face $-1 $96 $97 $36 $-1 $98 reversed single #
loop $-1 $-1 $99 $48 #
plane-surface $-1 0 0 12.737076250173548 0 0 1 1 0 0 forward_v I I I I #
face $-1 $100 $101 $37 $-1 $102 reversed single #
loop $-1 $-1 $103 $49 #
plane-surface $-1 0 0 12.737076250173548 0 0 1 1 0 0 forward_v I I I I #
face $-1 $104 $105 $38 $-1 $106 reversed single #
loop $-1 $-1 $107 $50 #
plane-surface $-1 0 0 151.42063661610769 0 0 1 1 0 0 forward_v I I I I #
face $-1 $108 $109 $39 $-1 $110 forward single #
loop $-1 $111 $112 $51 #
cone-surface $-1 0 0 -1.6409039582506786 0 0 1 1.5 0 0 1 I I 0 1 1.5 forward I I I I #
face $-1 $113 $114 $40 $-1 $115 forward single #
loop $-1 $116 $117 $52 #
cone-surface $-1 0 0 -1.6409039582506786 0 0 1 1.5 0 0 1 I I 0 1 1.5 forward I I I I #
face $-1 $118 $119 $41 $-1 $120 reversed single #
loop $-1 $-1 $121 $53 #
plane-surface $-1 0 0 151.42063661610769 0 0 1 1 0 0 forward_v I I I I #
face $-1 $122 $123 $42 $-1 $124 forward single #
loop $-1 $125 $126 $54 #
cone-surface $-1 0 0 -1.6409039582506786 0 0 1 1.5 0 0 1 I I 0 1 1.5 forward I I I I #
face $-1 $127 $128 $43 $-1 $129 forward single #
loop $-1 $130 $131 $55 #
cone-surface $-1 0 0 -1.6409039582506786 0 0 1 1.5 0 0 1 I I 0 1 1.5 forward I I I I #
face $-1 $132 $133 $44 $-1 $134 reversed single #
loop $-1 $-1 $135 $56 #
plane-surface $-1 0 0 151.42063661610769 0 0 1 1 0 0 forward_v I I I I #
face $-1 $136 $137 $45 $-1 $138 forward single #
loop $-1 $139 $140 $57 #
cone-surface $-1 0 0 -2.8316599017303989 0 0 1 2.5 0 0 1 I I 0 1 2.5 forward I I I I #
face $-1 $141 $142 $46 $-1 $143 reversed single #
loop $-1 $-1 $144 $58 #
plane-surface $-1 0 0 151.42063661610769 0 0 1 1 0 0 forward_v I I I I #
face $-1 $145 $146 $47 $-1 $147 forward single #
loop $-1 $148 $149 $59 #
cone-surface $-1 0 0 -2.8316599017303989 0 0 1 2.5 0 0 1 I I 0 1 2.5 forward I I I I #
face $-1 $150 $151 $36 $-1 $152 reversed single #
loop $-1 $-1 $153 $60 #
plane-surface $-1 0 0 -12.737076250173548 0 0 1 1 0 0 forward_v I I I I #
coedge $-1 $154 $155 $156 $157 forward $61 $-1 #
face $-1 $158 $159 $37 $-1 $160 reversed single #
loop $-1 $-1 $161 $63 #
plane-surface $-1 0 0 -12.737076250173548 0 0 1 1 0 0 forward_v I I I I #
coedge $-1 $162 $163 $164 $165 forward $64 $-1 #
face $-1 $166 $167 $38 $-1 $168 reversed single #
loop $-1 $-1 $169 $66 #
plane-surface $-1 0 0 -151.42063661610769 0 0 1 1 0 0 forward_v I I I I #
coedge $-1 $170 $171 $172 $173 forward $67 $-1 #
face $-1 $-1 $174 $39 $-1 $175 forward single #
loop $-1 $-1 $176 $69 #
plane-surface $-1 0 0 -2.5318079165013581 0 0 -1 -1 0 0 forward_v I I I I #
loop $-1 $-1 $177 $51 #
coedge $-1 $112 $112 $176 $178 reversed $70 $-1 #
face $-1 $-1 $179 $40 $-1 $180 forward single #
loop $-1 $-1 $181 $72 #
plane-surface $-1 0 0 -2.5318079165013581 0 0 -1 -1 0 0 forward_v I I I I #
loop $-1 $-1 $182 $52 #
coedge $-1 $117 $117 $181 $183 reversed $73 $-1 #
face $-1 $184 $185 $41 $-1 $186 reversed single #
loop $-1 $-1 $187 $75 #
plane-surface $-1 0 0 -151.42063661610769 0 0 1 1 0 0 forward_v I I I I #
coedge $-1 $188 $189 $190 $191 forward $76 $-1 #
face $-1 $-1 $192 $42 $-1 $193 forward single #
loop $-1 $-1 $194 $78 #
plane-surface $-1 0 0 -2.5318079165013581 0 0 -1 -1 0 0 forward_v I I I I #
loop $-1 $-1 $195 $54 #
coedge $-1 $126 $126 $194 $196 reversed $79 $-1 #
face $-1 $-1 $197 $43 $-1 $198 forward single #
loop $-1 $-1 $199 $81 #
plane-surface $-1 0 0 -2.5318079165013581 0 0 -1 -1 0 0 forward_v I I I I #
loop $-1 $-1 $200 $55 #
coedge $-1 $131 $131 $199 $201 reversed $82 $-1 #
face $-1 $202 $203 $44 $-1 $204 reversed single #
loop $-1 $-1 $205 $84 #
plane-surface $-1 0 0 -151.42063661610769 0 0 1 1 0 0 forward_v I I I I #
coedge $-1 $206 $207 $208 $209 forward $85 $-1 #
face $-1 $-1 $210 $45 $-1 $211 forward single #
loop $-1 $-1 $212 $87 #
plane-surface $-1 0 0 -4.4133198034607979 0 0 -1 -1 0 0 forward_v I I I I #
loop $-1 $-1 $213 $57 #
coedge $-1 $140 $140 $212 $214 reversed $88 $-1 #
face $-1 $215 $216 $46 $-1 $217 reversed single #
loop $-1 $-1 $218 $90 #
plane-surface $-1 0 0 -151.42063661610769 0 0 1 1 0 0 forward_v I I I I #
coedge $-1 $219 $220 $221 $222 forward $91 $-1 #
face $-1 $-1 $223 $47 $-1 $224 forward single #
loop $-1 $-1 $225 $93 #
plane-surface $-1 0 0 -4.4133198034607979 0 0 -1 -1 0 0 forward_v I I I I #
loop $-1 $-1 $226 $59 #
coedge $-1 $149 $149 $225 $227 reversed $94 $-1 #
face $-1 $228 $229 $36 $-1 $230 reversed single #
loop $-1 $-1 $231 $96 #
plane-surface $-1 0 -34.606041151012143 0 0 1 0 0 0 1 forward_v I I I I #
coedge $-1 $232 $233 $234 $235 forward $97 $-1 #
coedge $-1 $236 $99 $237 $238 forward $61 $-1 #
coedge $-1 $99 $236 $239 $240 forward $61 $-1 #
coedge $-1 $241 $242 $99 $157 reversed $243 $-1 #
edge $-1 $244 -34.606041151012143 $245 34.606041151012143 $156 $246 forward 7 unknown #
face $-1 $247 $248 $37 $-1 $249 reversed single #
loop $-1 $-1 $250 $100 #
plane-surface $-1 0 -6.3421170589920965 0 0 1 0 0 0 1 forward_v I I I I #
coedge $-1 $251 $252 $253 $254 forward $101 $-1 #
coedge $-1 $255 $103 $256 $257 forward $64 $-1 #
coedge $-1 $103 $255 $258 $259 forward $64 $-1 #
coedge $-1 $260 $261 $103 $165 reversed $262 $-1 #
edge $-1 $263 -6.3421170589920965 $264 6.3421170589920965 $164 $265 forward 7 unknown #
face $-1 $266 $267 $38 $-1 $268 reversed single #
loop $-1 $-1 $269 $104 #
plane-surface $-1 0 -6.5455572914921172 0 0 1 0 0 0 1 forward_v I I I I #
coedge $-1 $270 $271 $272 $273 forward $105 $-1 #
coedge $-1 $274 $107 $275 $276 forward $67 $-1 #
coedge $-1 $107 $274 $277 $278 forward $67 $-1 #
coedge $-1 $279 $280 $107 $173 reversed $281 $-1 #
edge $-1 $282 -6.5455572914921172 $283 6.5455572914921172 $172 $284 forward 7 unknown #
loop $-1 $285 $286 $108 #
cone-surface $-1 0 0 0 0 0 1 0.75 0 0 1 I I -0.70710678118654757 0.70710678118654757 0.75 forward I I I I #
coedge $-1 $176 $176 $112 $178 forward $109 $-1 #
coedge $-1 $177 $177 $286 $287 forward $111 $-1 #
edge $-1 $288 0 $288 6.2831853071796004 $176 $289 forward 7 unknown #
loop $-1 $290 $291 $113 #
cone-surface $-1 0 0 0 0 0 1 0.75 0 0 1 I I -0.70710678118654757 0.70710678118654757 0.75 forward I I I I #
coedge $-1 $181 $181 $117 $183 forward $114 $-1 #
coedge $-1 $182 $182 $291 $292 forward $116 $-1 #
edge $-1 $293 0 $293 6.2831853071796004 $181 $294 forward 7 unknown #
face $-1 $295 $296 $41 $-1 $297 reversed single #
loop $-1 $-1 $298 $118 #
plane-surface $-1 0 -6.5455572914921172 0 0 1 0 0 0 1 forward_v I I I I #
coedge $-1 $299 $300 $301 $302 forward $119 $-1 #
coedge $-1 $303 $121 $304 $305 forward $76 $-1 #
coedge $-1 $121 $303 $306 $307 forward $76 $-1 #
coedge $-1 $308 $309 $121 $191 reversed $310 $-1 #
edge $-1 $311 -6.5455572914921172 $312 6.5455572914921172 $190 $313 forward 7 unknown #
loop $-1 $314 $315 $122 #
cone-surface $-1 0 0 0 0 0 1 0.75 0 0 1 I I -0.70710678118654757 0.70710678118654757 0.75 forward I I I I #
coedge $-1 $194 $194 $126 $196 forward $123 $-1 #
coedge $-1 $195 $195 $315 $316 forward $125 $-1 #
edge $-1 $317 0 $317 6.2831853071796004 $194 $318 forward 7 unknown #
loop $-1 $319 $320 $127 #
cone-surface $-1 0 0 0 0 0 1 0.75 0 0 1 I I -0.70710678118654757 0.70710678118654757 0.75 forward I I I I #
coedge $-1 $199 $199 $131 $201 forward $128 $-1 #
coedge $-1 $200 $200 $320 $321 forward $130 $-1 #
edge $-1 $322 0 $322 6.2831853071796004 $199 $323 forward 7 unknown #
face $-1 $324 $325 $44 $-1 $326 reversed single #
loop $-1 $-1 $327 $132 #
plane-surface $-1 0 -6.5362507154636322 0 0 1 0 0 0 1 forward_v I I I I #
coedge $-1 $328 $329 $330 $331 forward $133 $-1 #
coedge $-1 $332 $135 $333 $334 forward $85 $-1 #
coedge $-1 $135 $332 $335 $336 forward $85 $-1 #
coedge $-1 $337 $338 $135 $209 reversed $339 $-1 #
edge $-1 $340 -6.5362507154636322 $341 6.5362507154636322 $208 $342 forward 7 unknown #
loop $-1 $343 $344 $136 #
cone-surface $-1 0 0 0 0 0 1 1.25 0 0 1 I I -0.70710678118654746 0.70710678118654746 1.25 forward I I I I #
coedge $-1 $212 $212 $140 $214 forward $137 $-1 #
coedge $-1 $213 $213 $344 $345 forward $139 $-1 #
edge $-1 $346 0 $346 6.2831853071796004 $212 $347 forward 7 unknown #
face $-1 $348 $349 $46 $-1 $350 reversed single #
loop $-1 $-1 $351 $141 #
plane-surface $-1 0 -6.5362507154636322 0 0 1 0 0 0 1 forward_v I I I I #
coedge $-1 $352 $353 $354 $355 forward $142 $-1 #
coedge $-1 $356 $144 $357 $358 forward $91 $-1 #
coedge $-1 $144 $356 $359 $360 forward $91 $-1 #
coedge $-1 $361 $362 $144 $222 reversed $363 $-1 #
edge $-1 $364 -6.5362507154636322 $365 6.5362507154636322 $221 $366 forward 7 unknown #
loop $-1 $367 $368 $145 #
cone-surface $-1 0 0 0 0 0 1 1.25 0 0 1 I I -0.70710678118654746 0.70710678118654746 1.25 forward I I I I #
coedge $-1 $225 $225 $149 $227 forward $146 $-1 #
coedge $-1 $226 $226 $368 $369 forward $148 $-1 #
edge $-1 $370 0 $370 6.2831853071796004 $225 $371 forward 7 unknown #
face $-1 $372 $373 $36 $-1 $374 reversed single #
loop $-1 $-1 $375 $150 #
plane-surface $-1 -75.710318308053843 0 0 1 0 0 0 0 -1 forward_v I I I I #
coedge $-1 $376 $239 $377 $378 forward $151 $-1 #
coedge $-1 $379 $153 $376 $380 forward $97 $-1 #
coedge $-1 $153 $379 $381 $382 forward $97 $-1 #
coedge $-1 $242 $241 $153 $235 reversed $243 $-1 #
edge $-1 $383 -34.606041151012143 $384 34.606041151012143 $234 $385 forward 7 unknown #
coedge $-1 $155 $154 $386 $387 forward $61 $-1 #
coedge $-1 $388 $389 $154 $238 reversed $373 $-1 #
edge $-1 $245 -75.710318308053843 $390 75.710318308053843 $237 $391 forward 7 unknown #
coedge $-1 $231 $392 $155 $240 reversed $151 $-1 #
edge $-1 $393 -75.710318308053843 $244 75.710318308053843 $239 $394 forward 7 unknown #
coedge $-1 $234 $156 $392 $395 forward $243 $-1 #
coedge $-1 $156 $234 $388 $396 reversed $243 $-1 #
loop $-1 $-1 $241 $372 #
vertex $-1 $157 $397 #
vertex $-1 $157 $398 #
straight-curve $-1 75.710318308053843 0 12.737076250173548 0 1 0 I I #
face $-1 $399 $400 $37 $-1 $401 reversed single #
loop $-1 $-1 $402 $158 #
plane-surface $-1 -3.3891032655533957 0 0 1 0 0 0 0 -1 forward_v I I I I #
coedge $-1 $403 $258 $404 $405 forward $159 $-1 #
coedge $-1 $406 $161 $403 $407 forward $101 $-1 #
coedge $-1 $161 $406 $408 $409 forward $101 $-1 #
coedge $-1 $261 $260 $161 $254 reversed $262 $-1 #
edge $-1 $410 -6.3421170589920965 $411 6.3421170589920965 $253 $412 forward 7 unknown #
coedge $-1 $163 $162 $413 $414 forward $64 $-1 #
coedge $-1 $415 $416 $162 $257 reversed $400 $-1 #
edge $-1 $264 -3.3891032655533957 $417 3.3891032655533957 $256 $418 forward 7 unknown #
coedge $-1 $250 $419 $163 $259 reversed $159 $-1 #
edge $-1 $420 -3.3891032655533957 $263 3.3891032655533957 $258 $421 forward 7 unknown #
coedge $-1 $253 $164 $419 $422 forward $262 $-1 #
coedge $-1 $164 $253 $415 $423 reversed $262 $-1 #
loop $-1 $-1 $260 $399 #
vertex $-1 $165 $424 #
vertex $-1 $165 $425 #
straight-curve $-1 3.3891032655533957 0 12.737076250173548 0 1 0 I I #
face $-1 $426 $427 $38 $-1 $428 reversed single #
loop $-1 $-1 $429 $166 #
plane-surface $-1 -302.84127323221537 0 0 1 0 0 0 0 -1 forward_v I I I I #
coedge $-1 $430 $277 $431 $432 forward $167 $-1 #
coedge $-1 $433 $169 $430 $434 forward $105 $-1 #
coedge $-1 $169 $433 $435 $436 forward $105 $-1 #
coedge $-1 $280 $279 $169 $273 reversed $281 $-1 #
edge $-1 $437 -6.5455572914921172 $438 6.5455572914921172 $272 $439 forward 7 unknown #
coedge $-1 $171 $170 $440 $441 forward $67 $-1 #
coedge $-1 $442 $443 $170 $276 reversed $427 $-1 #
edge $-1 $283 -302.84127323221537 $444 302.84127323221537 $275 $445 forward 7 unknown #
coedge $-1 $269 $446 $171 $278 reversed $167 $-1 #
edge $-1 $447 -302.84127323221537 $282 302.84127323221537 $277 $448 forward 7 unknown #
coedge $-1 $272 $172 $446 $449 forward $281 $-1 #
coedge $-1 $172 $272 $442 $450 reversed $281 $-1 #
loop $-1 $-1 $279 $426 #
vertex $-1 $173 $451 #
vertex $-1 $173 $452 #
straight-curve $-1 302.84127323221537 0 151.42063661610769 0 1 0 I I #
loop $-1 $-1 $453 $108 #
coedge $-1 $286 $286 $177 $287 reversed $174 $-1 #
edge $-1 $454 0 $454 6.2831853071796004 $286 $455 forward 7 unknown #
vertex $-1 $178 $456 #
ellipse-curve $-1 0 0 -2.5318079165013581 0 0 -1 1.5 0 0 1 I I #
loop $-1 $-1 $457 $113 #
coedge $-1 $291 $291 $182 $292 reversed $179 $-1 #
edge $-1 $458 0 $458 6.2831853071796004 $291 $459 forward 7 unknown #
vertex $-1 $183 $460 #
ellipse-curve $-1 0 0 -2.5318079165013581 0 0 -1 1.5 0 0 1 I I #
face $-1 $461 $462 $41 $-1 $463 reversed single #
loop $-1 $-1 $464 $184 #
plane-surface $-1 -302.84127323221537 0 0 1 0 0 0 0 -1 forward_v I I I I #
coedge $-1 $465 $306 $466 $467 forward $185 $-1 #
coedge $-1 $468 $187 $465 $469 forward $119 $-1 #
coedge $-1 $187 $468 $470 $471 forward $119 $-1 #
coedge $-1 $309 $308 $187 $302 reversed $310 $-1 #
edge $-1 $472 -6.5455572914921172 $473 6.5455572914921172 $301 $474 forward 7 unknown #
coedge $-1 $189 $188 $475 $476 forward $76 $-1 #
coedge $-1 $477 $478 $188 $305 reversed $462 $-1 #
edge $-1 $312 -302.84127323221537 $479 302.84127323221537 $304 $480 forward 7 unknown #
coedge $-1 $298 $481 $189 $307 reversed $185 $-1 #
edge $-1 $482 -302.84127323221537 $311 302.84127323221537 $306 $483 forward 7 unknown #
coedge $-1 $301 $190 $481 $484 forward $310 $-1 #
coedge $-1 $190 $301 $477 $485 reversed $310 $-1 #
loop $-1 $-1 $308 $461 #
vertex $-1 $191 $486 #
vertex $-1 $191 $487 #
straight-curve $-1 302.84127323221537 0 151.42063661610769 0 1 0 I I #
loop $-1 $-1 $488 $122 #
coedge $-1 $315 $315 $195 $316 reversed $192 $-1 #
edge $-1 $489 0 $489 6.2831853071796004 $315 $490 forward 7 unknown #
vertex $-1 $196 $491 #
ellipse-curve $-1 0 0 -2.5318079165013581 0 0 -1 1.5 0 0 1 I I #
loop $-1 $-1 $492 $127 #
coedge $-1 $320 $320 $200 $321 reversed $197 $-1 #
edge $-1 $493 0 $493 6.2831853071796004 $320 $494 forward 7 unknown #
vertex $-1 $201 $495 #
ellipse-curve $-1 0 0 -2.5318079165013581 0 0 -1 1.5 0 0 1 I I #
face $-1 $496 $497 $44 $-1 $498 reversed single #
loop $-1 $-1 $499 $202 #
plane-surface $-1 -302.84127323221537 0 0 1 0 0 0 0 -1 forward_v I I I I #
coedge $-1 $500 $335 $501 $502 forward $203 $-1 #
coedge $-1 $503 $205 $500 $504 forward $133 $-1 #
coedge $-1 $205 $503 $505 $506 forward $133 $-1 #
coedge $-1 $338 $337 $205 $331 reversed $339 $-1 #
edge $-1 $507 -6.5362507154636322 $508 6.5362507154636322 $330 $509 forward 7 unknown #
coedge $-1 $207 $206 $510 $511 forward $85 $-1 #
coedge $-1 $512 $513 $206 $334 reversed $497 $-1 #
edge $-1 $341 -302.84127323221537 $514 302.84127323221537 $333 $515 forward 7 unknown #
coedge $-1 $327 $516 $207 $336 reversed $203 $-1 #
edge $-1 $517 -302.84127323221537 $340 302.84127323221537 $335 $518 forward 7 unknown #
coedge $-1 $330 $208 $516 $519 forward $339 $-1 #
coedge $-1 $208 $330 $512 $520 reversed $339 $-1 #
loop $-1 $-1 $337 $496 #
vertex $-1 $209 $521 #
vertex $-1 $209 $522 #
straight-curve $-1 302.84127323221537 0 151.42063661610769 0 1 0 I I #
loop $-1 $-1 $523 $136 #
coedge $-1 $344 $344 $213 $345 reversed $210 $-1 #
edge $-1 $524 0 $524 6.2831853071796004 $344 $525 forward 7 unknown #
vertex $-1 $214 $526 #
ellipse-curve $-1 0 0 -4.4133198034607979 0 0 -1 2.5 0 0 1 I I #
face $-1 $527 $528 $46 $-1 $529 reversed single #
loop $-1 $-1 $530 $215 #
plane-surface $-1 -302.84127323221537 0 0 1 0 0 0 0 -1 forward_v I I I I #
coedge $-1 $531 $359 $532 $533 forward $216 $-1 #
coedge $-1 $534 $218 $531 $535 forward $142 $-1 #
coedge $-1 $218 $534 $536 $537 forward $142 $-1 #
coedge $-1 $362 $361 $218 $355 reversed $363 $-1 #
edge $-1 $538 -6.5362507154636322 $539 6.5362507154636322 $354 $540 forward 7 unknown #
coedge $-1 $220 $219 $541 $542 forward $91 $-1 #
coedge $-1 $543 $544 $219 $358 reversed $528 $-1 #
edge $-1 $365 -302.84127323221537 $545 302.84127323221537 $357 $546 forward 7 unknown #
coedge $-1 $351 $547 $220 $360 reversed $216 $-1 #
edge $-1 $548 -302.84127323221537 $364 302.84127323221537 $359 $549 forward 7 unknown #
coedge $-1 $354 $221 $547 $550 forward $363 $-1 #
coedge $-1 $221 $354 $543 $551 reversed $363 $-1 #
loop $-1 $-1 $361 $527 #
vertex $-1 $222 $552 #
vertex $-1 $222 $553 #
straight-curve $-1 302.84127323221537 0 151.42063661610769 0 1 0 I I #
loop $-1 $-1 $554 $145 #
coedge $-1 $368 $368 $226 $369 reversed $223 $-1 #
edge $-1 $555 0 $555 6.2831853071796004 $368 $556 forward 7 unknown #
vertex $-1 $227 $557 #
ellipse-curve $-1 0 0 -4.4133198034607979 0 0 -1 2.5 0 0 1 I I #
face $-1 $-1 $243 $36 $-1 $558 reversed single #
loop $-1 $-1 $388 $228 #
plane-surface $-1 0 34.606041151012143 0 0 -1 0 0 0 -1 forward_v I I I I #
coedge $-1 $559 $386 $389 $560 forward $229 $-1 #
coedge $-1 $392 $231 $232 $380 reversed $151 $-1 #
coedge $-1 $386 $559 $231 $378 reversed $229 $-1 #
edge $-1 $393 -12.737076250173548 $561 12.737076250173548 $377 $562 forward 7 unknown #
coedge $-1 $233 $232 $559 $563 forward $97 $-1 #
edge $-1 $384 -75.710318308053843 $561 75.710318308053843 $376 $564 forward 7 unknown #
coedge $-1 $389 $388 $233 $382 reversed $373 $-1 #
edge $-1 $565 -75.710318308053843 $383 75.710318308053843 $381 $566 forward 7 unknown #
vertex $-1 $235 $567 #
vertex $-1 $395 $568 #
straight-curve $-1 75.710318308053843 0 -12.737076250173548 0 -1 0 I I #
coedge $-1 $375 $377 $236 $387 reversed $229 $-1 #
edge $-1 $390 -34.606041151012143 $393 34.606041151012143 $386 $569 forward 7 unknown #
coedge $-1 $381 $237 $242 $396 forward $373 $-1 #
coedge $-1 $237 $381 $375 $560 reversed $373 $-1 #
vertex $-1 $238 $570 #
straight-curve $-1 0 34.606041151012143 12.737076250173548 -1 0 0 I I #
coedge $-1 $239 $376 $241 $395 reversed $151 $-1 #
vertex $-1 $387 $571 #
straight-curve $-1 0 -34.606041151012143 12.737076250173548 1 0 0 I I #
edge $-1 $244 -12.737076250173548 $384 12.737076250173548 $241 $572 forward 7 unknown #
edge $-1 $245 -12.737076250173548 $383 12.737076250173548 $242 $573 forward 7 unknown #
point $-1 75.710318308053843 -34.606041151012143 12.737076250173548 #
point $-1 75.710318308053843 34.606041151012143 12.737076250173548 #
face $-1 $-1 $262 $37 $-1 $574 reversed single #
loop $-1 $-1 $415 $247 #
plane-surface $-1 0 6.3421170589920965 0 0 -1 0 0 0 -1 forward_v I I I I #
coedge $-1 $575 $413 $416 $576 forward $248 $-1 #
coedge $-1 $419 $250 $251 $407 reversed $159 $-1 #
coedge $-1 $413 $575 $250 $405 reversed $248 $-1 #
edge $-1 $420 -12.737076250173548 $577 12.737076250173548 $404 $578 forward 7 unknown #
coedge $-1 $252 $251 $575 $579 forward $101 $-1 #
edge $-1 $411 -3.3891032655533957 $577 3.3891032655533957 $403 $580 forward 7 unknown #
coedge $-1 $416 $415 $252 $409 reversed $400 $-1 #
edge $-1 $581 -3.3891032655533957 $410 3.3891032655533957 $408 $582 forward 7 unknown #
vertex $-1 $254 $583 #
vertex $-1 $422 $584 #
straight-curve $-1 3.3891032655533957 0 -12.737076250173548 0 -1 0 I I #
coedge $-1 $402 $404 $255 $414 reversed $248 $-1 #
edge $-1 $417 -6.3421170589920965 $420 6.3421170589920965 $413 $585 forward 7 unknown #
coedge $-1 $408 $256 $261 $423 forward $400 $-1 #
coedge $-1 $256 $408 $402 $576 reversed $400 $-1 #
vertex $-1 $257 $586 #
straight-curve $-1 0 6.3421170589920965 12.737076250173548 -1 0 0 I I #
coedge $-1 $258 $403 $260 $422 reversed $159 $-1 #
vertex $-1 $414 $587 #
straight-curve $-1 0 -6.3421170589920965 12.737076250173548 1 0 0 I I #
edge $-1 $263 -12.737076250173548 $411 12.737076250173548 $260 $588 forward 7 unknown #
edge $-1 $264 -12.737076250173548 $410 12.737076250173548 $261 $589 forward 7 unknown #
point $-1 3.3891032655533957 -6.3421170589920965 12.737076250173548 #
point $-1 3.3891032655533957 6.3421170589920965 12.737076250173548 #
face $-1 $-1 $281 $38 $-1 $590 reversed single #
loop $-1 $-1 $442 $266 #
plane-surface $-1 0 6.5455572914921172 0 0 -1 0 0 0 -1 forward_v I I I I #
coedge $-1 $591 $440 $443 $592 forward $267 $-1 #
coedge $-1 $446 $269 $270 $434 reversed $167 $-1 #
coedge $-1 $440 $591 $269 $432 reversed $267 $-1 #
edge $-1 $447 -151.42063661610769 $593 151.42063661610769 $431 $594 forward 7 unknown #
coedge $-1 $271 $270 $591 $595 forward $105 $-1 #
edge $-1 $438 -302.84127323221537 $593 302.84127323221537 $430 $596 forward 7 unknown #
coedge $-1 $443 $442 $271 $436 reversed $427 $-1 #
edge $-1 $597 -302.84127323221537 $437 302.84127323221537 $435 $598 forward 7 unknown #
vertex $-1 $273 $599 #
vertex $-1 $449 $600 #
straight-curve $-1 302.84127323221537 0 -151.42063661610769 0 -1 0 I I #
coedge $-1 $429 $431 $274 $441 reversed $267 $-1 #
edge $-1 $444 -6.5455572914921172 $447 6.5455572914921172 $440 $601 forward 7 unknown #
coedge $-1 $435 $275 $280 $450 forward $427 $-1 #
coedge $-1 $275 $435 $429 $592 reversed $427 $-1 #
vertex $-1 $276 $602 #
straight-curve $-1 0 6.5455572914921172 151.42063661610769 -1 0 0 I I #
coedge $-1 $277 $430 $279 $449 reversed $167 $-1 #
vertex $-1 $441 $603 #
straight-curve $-1 0 -6.5455572914921172 151.42063661610769 1 0 0 I I #
edge $-1 $282 -151.42063661610769 $438 151.42063661610769 $279 $604 forward 7 unknown #
edge $-1 $283 -151.42063661610769 $437 151.42063661610769 $280 $605 forward 7 unknown #
point $-1 302.84127323221537 -6.5455572914921172 151.42063661610769 #
point $-1 302.84127323221537 6.5455572914921172 151.42063661610769 #
coedge $-1 $453 $453 $-1 $606 reversed $285 $-1 #
vertex $-1 $287 $607 #
ellipse-curve $-1 0 0 -0.75 0 0 -1 1.5 0 0 1 I I #
point $-1 1.5 0 -2.5318079165013581 #
coedge $-1 $457 $457 $-1 $608 reversed $290 $-1 #
vertex $-1 $292 $609 #
ellipse-curve $-1 0 0 -0.75 0 0 -1 1.5 0 0 1 I I #
point $-1 1.5 0 -2.5318079165013581 #
face $-1 $-1 $310 $41 $-1 $610 reversed single #
loop $-1 $-1 $477 $295 #
plane-surface $-1 0 6.5455572914921172 0 0 -1 0 0 0 -1 forward_v I I I I #
coedge $-1 $611 $475 $478 $612 forward $296 $-1 #
coedge $-1 $481 $298 $299 $469 reversed $185 $-1 #
coedge $-1 $475 $611 $298 $467 reversed $296 $-1 #
edge $-1 $482 -151.42063661610769 $613 151.42063661610769 $466 $614 forward 7 unknown #
coedge $-1 $300 $299 $611 $615 forward $119 $-1 #
edge $-1 $473 -302.84127323221537 $613 302.84127323221537 $465 $616 forward 7 unknown #
coedge $-1 $478 $477 $300 $471 reversed $462 $-1 #
edge $-1 $617 -302.84127323221537 $472 302.84127323221537 $470 $618 forward 7 unknown #
vertex $-1 $302 $619 #
vertex $-1 $484 $620 #
straight-curve $-1 302.84127323221537 0 -151.42063661610769 0 -1 0 I I #
coedge $-1 $464 $466 $303 $476 reversed $296 $-1 #
edge $-1 $479 -6.5455572914921172 $482 6.5455572914921172 $475 $621 forward 7 unknown #
coedge $-1 $470 $304 $309 $485 forward $462 $-1 #
coedge $-1 $304 $470 $464 $612 reversed $462 $-1 #
vertex $-1 $305 $622 #
straight-curve $-1 0 6.5455572914921172 151.42063661610769 -1 0 0 I I #
coedge $-1 $306 $465 $308 $484 reversed $185 $-1 #
vertex $-1 $476 $623 #
straight-curve $-1 0 -6.5455572914921172 151.42063661610769 1 0 0 I I #
edge $-1 $311 -151.42063661610769 $473 151.42063661610769 $308 $624 forward 7 unknown #
edge $-1 $312 -151.42063661610769 $472 151.42063661610769 $309 $625 forward 7 unknown #
point $-1 302.84127323221537 -6.5455572914921172 151.42063661610769 #
point $-1 302.84127323221537 6.5455572914921172 151.42063661610769 #
coedge $-1 $488 $488 $-1 $626 reversed $314 $-1 #
vertex $-1 $316 $627 #
ellipse-curve $-1 0 0 -0.75 0 0 -1 1.5 0 0 1 I I #
point $-1 1.5 0 -2.5318079165013581 #
coedge $-1 $492 $492 $-1 $628 reversed $319 $-1 #
vertex $-1 $321 $629 #
ellipse-curve $-1 0 0 -0.75 0 0 -1 1.5 0 0 1 I I #
point $-1 1.5 0 -2.5318079165013581 #
face $-1 $-1 $339 $44 $-1 $630 reversed single #
loop $-1 $-1 $512 $324 #
plane-surface $-1 0 6.5362507154636322 0 0 -1 0 0 0 -1 forward_v I I I I #
coedge $-1 $631 $510 $513 $632 forward $325 $-1 #
coedge $-1 $516 $327 $328 $504 reversed $203 $-1 #
coedge $-1 $510 $631 $327 $502 reversed $325 $-1 #
edge $-1 $517 -151.42063661610769 $633 151.42063661610769 $501 $634 forward 7 unknown #
coedge $-1 $329 $328 $631 $635 forward $133 $-1 #
edge $-1 $508 -302.84127323221537 $633 302.84127323221537 $500 $636 forward 7 unknown #
coedge $-1 $513 $512 $329 $506 reversed $497 $-1 #
edge $-1 $637 -302.84127323221537 $507 302.84127323221537 $505 $638 forward 7 unknown #
vertex $-1 $331 $639 #
vertex $-1 $519 $640 #
straight-curve $-1 302.84127323221537 0 -151.42063661610769 0 -1 0 I I #
coedge $-1 $499 $501 $332 $511 reversed $325 $-1 #
edge $-1 $514 -6.5362507154636322 $517 6.5362507154636322 $510 $641 forward 7 unknown #
coedge $-1 $505 $333 $338 $520 forward $497 $-1 #
coedge $-1 $333 $505 $499 $632 reversed $497 $-1 #
vertex $-1 $334 $642 #
straight-curve $-1 0 6.5362507154636322 151.42063661610769 -1 0 0 I I #
coedge $-1 $335 $500 $337 $519 reversed $203 $-1 #
vertex $-1 $511 $643 #
straight-curve $-1 0 -6.5362507154636322 151.42063661610769 1 0 0 I I #
edge $-1 $340 -151.42063661610769 $508 151.42063661610769 $337 $644 forward 7 unknown #
edge $-1 $341 -151.42063661610769 $507 151.42063661610769 $338 $645 forward 7 unknown #
point $-1 302.84127323221537 -6.5362507154636322 151.42063661610769 #
point $-1 302.84127323221537 6.5362507154636322 151.42063661610769 #
coedge $-1 $523 $523 $-1 $646 reversed $343 $-1 #
vertex $-1 $345 $647 #
ellipse-curve $-1 0 0 -1.25 0 0 -1 2.5 0 0 1 I I #
point $-1 2.5 0 -4.4133198034607979 #
face $-1 $-1 $363 $46 $-1 $648 reversed single #
loop $-1 $-1 $543 $348 #
plane-surface $-1 0 6.5362507154636322 0 0 -1 0 0 0 -1 forward_v I I I I #
coedge $-1 $649 $541 $544 $650 forward $349 $-1 #
coedge $-1 $547 $351 $352 $535 reversed $216 $-1 #
coedge $-1 $541 $649 $351 $533 reversed $349 $-1 #
edge $-1 $548 -151.42063661610769 $651 151.42063661610769 $532 $652 forward 7 unknown #
coedge $-1 $353 $352 $649 $653 forward $142 $-1 #
edge $-1 $539 -302.84127323221537 $651 302.84127323221537 $531 $654 forward 7 unknown #
coedge $-1 $544 $543 $353 $537 reversed $528 $-1 #
edge $-1 $655 -302.84127323221537 $538 302.84127323221537 $536 $656 forward 7 unknown #
vertex $-1 $355 $657 #
vertex $-1 $550 $658 #
straight-curve $-1 302.84127323221537 0 -151.42063661610769 0 -1 0 I I #
coedge $-1 $530 $532 $356 $542 reversed $349 $-1 #
edge $-1 $545 -6.5362507154636322 $548 6.5362507154636322 $541 $659 forward 7 unknown #
coedge $-1 $536 $357 $362 $551 forward $528 $-1 #
coedge $-1 $357 $536 $530 $650 reversed $528 $-1 #
vertex $-1 $358 $660 #
straight-curve $-1 0 6.5362507154636322 151.42063661610769 -1 0 0 I I #
coedge $-1 $359 $531 $361 $550 reversed $216 $-1 #
vertex $-1 $542 $661 #
straight-curve $-1 0 -6.5362507154636322 151.42063661610769 1 0 0 I I #
edge $-1 $364 -151.42063661610769 $539 151.42063661610769 $361 $662 forward 7 unknown #
edge $-1 $365 -151.42063661610769 $538 151.42063661610769 $362 $663 forward 7 unknown #
point $-1 302.84127323221537 -6.5362507154636322 151.42063661610769 #
point $-1 302.84127323221537 6.5362507154636322 151.42063661610769 #
coedge $-1 $554 $554 $-1 $664 reversed $367 $-1 #
vertex $-1 $369 $665 #
ellipse-curve $-1 0 0 -1.25 0 0 -1 2.5 0 0 1 I I #
point $-1 2.5 0 -4.4133198034607979 #
plane-surface $-1 75.710318308053843 0 0 -1 0 0 0 0 1 forward_v I I I I #
coedge $-1 $377 $375 $379 $563 reversed $229 $-1 #
edge $-1 $390 -12.737076250173548 $565 12.737076250173548 $389 $666 forward 7 unknown #
vertex $-1 $563 $667 #
straight-curve $-1 -75.710318308053843 -34.606041151012143 0 0 0 -1 I I #
edge $-1 $561 -34.606041151012143 $565 34.606041151012143 $559 $668 forward 7 unknown #
straight-curve $-1 0 -34.606041151012143 -12.737076250173548 -1 0 0 I I #
vertex $-1 $382 $669 #
straight-curve $-1 0 34.606041151012143 -12.737076250173548 1 0 0 I I #
point $-1 75.710318308053843 34.606041151012143 -12.737076250173548 #
point $-1 75.710318308053843 -34.606041151012143 -12.737076250173548 #
straight-curve $-1 -75.710318308053843 0 12.737076250173548 0 -1 0 I I #
point $-1 -75.710318308053843 34.606041151012143 12.737076250173548 #
point $-1 -75.710318308053843 -34.606041151012143 12.737076250173548 #
straight-curve $-1 75.710318308053843 -34.606041151012143 0 0 0 -1 I I #
straight-curve $-1 75.710318308053843 34.606041151012143 0 0 0 -1 I I #
plane-surface $-1 3.3891032655533957 0 0 -1 0 0 0 0 1 forward_v I I I I #
coedge $-1 $404 $402 $406 $579 reversed $248 $-1 #
edge $-1 $417 -12.737076250173548 $581 12.737076250173548 $416 $670 forward 7 unknown #
vertex $-1 $579 $671 #
straight-curve $-1 -3.3891032655533957 -6.3421170589920965 0 0 0 -1 I I #
edge $-1 $577 -6.3421170589920965 $581 6.3421170589920965 $575 $672 forward 7 unknown #
straight-curve $-1 0 -6.3421170589920965 -12.737076250173548 -1 0 0 I I #
vertex $-1 $409 $673 #
straight-curve $-1 0 6.3421170589920965 -12.737076250173548 1 0 0 I I #
point $-1 3.3891032655533957 6.3421170589920965 -12.737076250173548 #
point $-1 3.3891032655533957 -6.3421170589920965 -12.737076250173548 #
straight-curve $-1 -3.3891032655533957 0 12.737076250173548 0 -1 0 I I #
point $-1 -3.3891032655533957 6.3421170589920965 12.737076250173548 #
point $-1 -3.3891032655533957 -6.3421170589920965 12.737076250173548 #
straight-curve $-1 3.3891032655533957 -6.3421170589920965 0 0 0 -1 I I #
straight-curve $-1 3.3891032655533957 6.3421170589920965 0 0 0 -1 I I #
plane-surface $-1 302.84127323221537 0 0 -1 0 0 0 0 1 forward_v I I I I #
coedge $-1 $431 $429 $433 $595 reversed $267 $-1 #
edge $-1 $444 -151.42063661610769 $597 151.42063661610769 $443 $674 forward 7 unknown #
vertex $-1 $595 $675 #
straight-curve $-1 -302.84127323221537 -6.5455572914921172 0 0 0 -1 I I #
edge $-1 $593 -6.5455572914921172 $597 6.5455572914921172 $591 $676 forward 7 unknown #
straight-curve $-1 0 -6.5455572914921172 -151.42063661610769 -1 0 0 I I #
vertex $-1 $436 $677 #
straight-curve $-1 0 6.5455572914921172 -151.42063661610769 1 0 0 I I #
point $-1 302.84127323221537 6.5455572914921172 -151.42063661610769 #
point $-1 302.84127323221537 -6.5455572914921172 -151.42063661610769 #
straight-curve $-1 -302.84127323221537 0 151.42063661610769 0 -1 0 I I #
point $-1 -302.84127323221537 6.5455572914921172 151.42063661610769 #
point $-1 -302.84127323221537 -6.5455572914921172 151.42063661610769 #
straight-curve $-1 302.84127323221537 -6.5455572914921172 0 0 0 -1 I I #
straight-curve $-1 302.84127323221537 6.5455572914921172 0 0 0 -1 I I #
edge $-1 $678 1 $678 0 $453 $-1 forward 7 unknown #
point $-1 1.5 0 -0.75 #
edge $-1 $679 1 $679 0 $457 $-1 forward 7 unknown #
point $-1 1.5 0 -0.75 #
plane-surface $-1 302.84127323221537 0 0 -1 0 0 0 0 1 forward_v I I I I #
coedge $-1 $466 $464 $468 $615 reversed $296 $-1 #
edge $-1 $479 -151.42063661610769 $617 151.42063661610769 $478 $680 forward 7 unknown #
vertex $-1 $615 $681 #
straight-curve $-1 -302.84127323221537 -6.5455572914921172 0 0 0 -1 I I #
edge $-1 $613 -6.5455572914921172 $617 6.5455572914921172 $611 $682 forward 7 unknown #
straight-curve $-1 0 -6.5455572914921172 -151.42063661610769 -1 0 0 I I #
vertex $-1 $471 $683 #
straight-curve $-1 0 6.5455572914921172 -151.42063661610769 1 0 0 I I #
point $-1 302.84127323221537 6.5455572914921172 -151.42063661610769 #
point $-1 302.84127323221537 -6.5455572914921172 -151.42063661610769 #
straight-curve $-1 -302.84127323221537 0 151.42063661610769 0 -1 0 I I #
point $-1 -302.84127323221537 6.5455572914921172 151.42063661610769 #
point $-1 -302.84127323221537 -6.5455572914921172 151.42063661610769 #
straight-curve $-1 302.84127323221537 -6.5455572914921172 0 0 0 -1 I I #
straight-curve $-1 302.84127323221537 6.5455572914921172 0 0 0 -1 I I #
edge $-1 $684 1 $684 0 $488 $-1 forward 7 unknown #
point $-1 1.5 0 -0.75 #
edge $-1 $685 1 $685 0 $492 $-1 forward 7 unknown #
point $-1 1.5 0 -0.75 #
plane-surface $-1 302.84127323221537 0 0 -1 0 0 0 0 1 forward_v I I I I #
coedge $-1 $501 $499 $503 $635 reversed $325 $-1 #
edge $-1 $514 -151.42063661610769 $637 151.42063661610769 $513 $686 forward 7 unknown #
vertex $-1 $635 $687 #
straight-curve $-1 -302.84127323221537 -6.5362507154636322 0 0 0 -1 I I #
edge $-1 $633 -6.5362507154636322 $637 6.5362507154636322 $631 $688 forward 7 unknown #
straight-curve $-1 0 -6.5362507154636322 -151.42063661610769 -1 0 0 I I #
vertex $-1 $506 $689 #
straight-curve $-1 0 6.5362507154636322 -151.42063661610769 1 0 0 I I #
point $-1 302.84127323221537 6.5362507154636322 -151.42063661610769 #
point $-1 302.84127323221537 -6.5362507154636322 -151.42063661610769 #
straight-curve $-1 -302.84127323221537 0 151.42063661610769 0 -1 0 I I #
point $-1 -302.84127323221537 6.5362507154636322 151.42063661610769 #
point $-1 -302.84127323221537 -6.5362507154636322 151.42063661610769 #
straight-curve $-1 302.84127323221537 -6.5362507154636322 0 0 0 -1 I I #
straight-curve $-1 302.84127323221537 6.5362507154636322 0 0 0 -1 I I #
edge $-1 $690 1 $690 0 $523 $-1 forward 7 unknown #
point $-1 2.5 0 -1.25 #
plane-surface $-1 302.84127323221537 0 0 -1 0 0 0 0 1 forward_v I I I I #
coedge $-1 $532 $530 $534 $653 reversed $349 $-1 #
edge $-1 $545 -151.42063661610769 $655 151.42063661610769 $544 $691 forward 7 unknown #
vertex $-1 $653 $692 #
straight-curve $-1 -302.84127323221537 -6.5362507154636322 0 0 0 -1 I I #
edge $-1 $651 -6.5362507154636322 $655 6.5362507154636322 $649 $693 forward 7 unknown #
straight-curve $-1 0 -6.5362507154636322 -151.42063661610769 -1 0 0 I I #
vertex $-1 $537 $694 #
straight-curve $-1 0 6.5362507154636322 -151.42063661610769 1 0 0 I I #
point $-1 302.84127323221537 6.5362507154636322 -151.42063661610769 #
point $-1 302.84127323221537 -6.5362507154636322 -151.42063661610769 #
straight-curve $-1 -302.84127323221537 0 151.42063661610769 0 -1 0 I I #
point $-1 -302.84127323221537 6.5362507154636322 151.42063661610769 #
point $-1 -302.84127323221537 -6.5362507154636322 151.42063661610769 #
straight-curve $-1 302.84127323221537 -6.5362507154636322 0 0 0 -1 I I #
straight-curve $-1 302.84127323221537 6.5362507154636322 0 0 0 -1 I I #
edge $-1 $695 1 $695 0 $554 $-1 forward 7 unknown #
point $-1 2.5 0 -1.25 #
straight-curve $-1 -75.710318308053843 34.606041151012143 0 0 0 -1 I I #
point $-1 -75.710318308053843 -34.606041151012143 -12.737076250173548 #
straight-curve $-1 -75.710318308053843 0 -12.737076250173548 0 1 0 I I #
point $-1 -75.710318308053843 34.606041151012143 -12.737076250173548 #
straight-curve $-1 -3.3891032655533957 6.3421170589920965 0 0 0 -1 I I #
point $-1 -3.3891032655533957 -6.3421170589920965 -12.737076250173548 #
straight-curve $-1 -3.3891032655533957 0 -12.737076250173548 0 1 0 I I #
point $-1 -3.3891032655533957 6.3421170589920965 -12.737076250173548 #
straight-curve $-1 -302.84127323221537 6.5455572914921172 0 0 0 -1 I I #
point $-1 -302.84127323221537 -6.5455572914921172 -151.42063661610769 #
straight-curve $-1 -302.84127323221537 0 -151.42063661610769 0 1 0 I I #
point $-1 -302.84127323221537 6.5455572914921172 -151.42063661610769 #
vertex $-1 $606 $696 #
vertex $-1 $608 $697 #
straight-curve $-1 -302.84127323221537 6.5455572914921172 0 0 0 -1 I I #
point $-1 -302.84127323221537 -6.5455572914921172 -151.42063661610769 #
straight-curve $-1 -302.84127323221537 0 -151.42063661610769 0 1 0 I I #
point $-1 -302.84127323221537 6.5455572914921172 -151.42063661610769 #
vertex $-1 $626 $698 #
vertex $-1 $628 $699 #
straight-curve $-1 -302.84127323221537 6.5362507154636322 0 0 0 -1 I I #
point $-1 -302.84127323221537 -6.5362507154636322 -151.42063661610769 #
straight-curve $-1 -302.84127323221537 0 -151.42063661610769 0 1 0 I I #
point $-1 -302.84127323221537 6.5362507154636322 -151.42063661610769 #
vertex $-1 $646 $700 #
straight-curve $-1 -302.84127323221537 6.5362507154636322 0 0 0 -1 I I #
point $-1 -302.84127323221537 -6.5362507154636322 -151.42063661610769 #
straight-curve $-1 -302.84127323221537 0 -151.42063661610769 0 1 0 I I #
point $-1 -302.84127323221537 6.5362507154636322 -151.42063661610769 #
vertex $-1 $664 $701 #
point $-1 0 0 0.75 #
point $-1 0 0 0.75 #
point $-1 0 0 0.75 #
point $-1 0 0 0.75 #
point $-1 0 0 1.25 #
point $-1 0 0 1.25 #
End-of-ACIS-data 