500 0 8 0           
7 Unknown 11 ACIS 5.0 NT 24 Fri Mar 26 18:23:05 1999 
-1 9.9999999999999995e-007 1e-010 
body $-1 $8 $-1 $9 #
body $-1 $10 $-1 $11 #
body $-1 $12 $-1 $13 #
body $-1 $14 $-1 $15 #
body $-1 $16 $-1 $17 #
body $-1 $18 $-1 $19 #
body $-1 $20 $-1 $21 #
body $-1 $22 $-1 $23 #
lump $-1 $-1 $24 $0 #
transform $-1 1 0 0 0 1 0 0 0 1 77.834406567583244 35.470037207834814 17.038434572933742 1 rotate no_reflect no_shear #
lump $-1 $-1 $25 $1 #
transform $-1 1 0 0 0 1 0 0 0 1 77.834406567583244 35.470037207834814 17.038434572933742 1 rotate no_reflect no_shear #
lump $-1 $-1 $26 $2 #
transform $-1 1 0 0 0 1 0 0 0 1 77.834406567583244 35.470037207834814 17.038434572933742 1 rotate no_reflect no_shear #
lump $-1 $-1 $27 $3 #
transform $-1 1 0 0 0 1 0 0 0 1 77.834406567583244 35.470037207834814 17.038434572933742 1 rotate no_reflect no_shear #
lump $-1 $-1 $28 $4 #
transform $-1 1 0 0 0 1 0 0 0 1 77.834406567583244 35.470037207834814 17.038434572933742 1 rotate no_reflect no_shear #
lump $-1 $-1 $29 $5 #
transform $-1 1 0 0 0 1 0 0 0 1 77.834406567583244 35.470037207834814 17.038434572933742 1 rotate no_reflect no_shear #
lump $-1 $-1 $30 $6 #
transform $-1 1 0 0 0 1 0 0 0 1 77.834406567583244 35.470037207834814 17.038434572933742 1 rotate no_reflect no_shear #
lump $-1 $-1 $31 $7 #
transform $-1 1 0 0 0 1 0 0 0 1 77.834406567583244 35.470037207834814 17.038434572933742 1 rotate no_reflect no_shear #
shell $-1 $-1 $-1 $32 $-1 $8 #
shell $-1 $-1 $-1 $33 $-1 $10 #
shell $-1 $-1 $-1 $34 $-1 $12 #
shell $-1 $-1 $-1 $35 $-1 $14 #
shell $-1 $-1 $-1 $36 $-1 $16 #
shell $-1 $-1 $-1 $37 $-1 $18 #
shell $-1 $-1 $-1 $38 $-1 $20 #
shell $-1 $-1 $-1 $39 $-1 $22 #
face $-1 $40 $41 $24 $-1 $42 forward single #
face $-1 $43 $44 $25 $-1 $45 forward single #
face $-1 $46 $47 $26 $-1 $48 reversed single #
face $-1 $49 $50 $27 $-1 $51 forward single #
face $-1 $52 $53 $28 $-1 $54 forward single #
face $-1 $55 $56 $29 $-1 $57 reversed single #
face $-1 $58 $59 $30 $-1 $60 forward single #
face $-1 $61 $62 $31 $-1 $63 forward single #
face $-1 $64 $65 $24 $-1 $66 reversed single #
loop $-1 $-1 $67 $32 #
plane-surface $-1 0 0 17.038434572933742 0 0 1 1 0 0 forward_v I I I I #
face $-1 $68 $69 $25 $-1 $70 reversed single #
loop $-1 $-1 $71 $33 #
plane-surface $-1 0 -35.470037207834814 0 0 1 0 0 0 1 forward_v I I I I #
face $-1 $72 $73 $26 $-1 $74 reversed single #
loop $-1 $-1 $75 $34 #
plane-surface $-1 108.47322114235965 9.874060163164021 227.09694420583554 0 -1 0 -0.79863551827123203 0 -0.60181501223851219 forward_v I I I I #
face $-1 $76 $77 $27 $-1 $78 forward single #
loop $-1 $79 $80 $35 #
cone-surface $-1 74.142078633855007 2.4072412510327013 12.538684889128346 -0.79863551827123203 0 -0.60181501223851219 0.60181501223851219 0 -0.79863551827123203 1 I I 0 1 1 forward I I I I #
face $-1 $81 $82 $28 $-1 $83 forward single #
loop $-1 $84 $85 $36 #
cone-surface $-1 74.142078633855007 6.8873325983114952 12.538684889128346 -0.79863551827123203 0 -0.60181501223851219 0.60181501223851219 0 -0.79863551827123203 1 I I 0 1 1 forward I I I I #
face $-1 $86 $87 $29 $-1 $88 reversed single #
loop $-1 $-1 $89 $37 #
plane-surface $-1 -202.15704982445453 -0.57948631381983162 102.77430094896425 0 1 0 -0.79863551827123203 0 0.60181501223851219 forward_v I I I I #
face $-1 $90 $91 $30 $-1 $92 forward single #
loop $-1 $93 $94 $38 #
cone-surface $-1 -74.142078633854979 2.4072412510327013 12.538684889128339 0.79863551827123203 0 -0.60181501223851219 0.60181501223851219 0 0.79863551827123203 1 I I 0 1 1 forward I I I I #
face $-1 $95 $96 $31 $-1 $97 forward single #
loop $-1 $98 $99 $39 #
cone-surface $-1 -74.142078633854979 6.8873325983114952 12.538684889128339 0.79863551827123203 0 -0.60181501223851219 0.60181501223851219 0 0.79863551827123203 1 I I 0 1 1 forward I I I I #
face $-1 $100 $101 $24 $-1 $102 reversed single #
loop $-1 $-1 $103 $40 #
plane-surface $-1 0 0 -17.038434572933742 0 0 1 1 0 0 forward_v I I I I #
coedge $-1 $104 $105 $106 $107 forward $41 $-1 #
face $-1 $108 $109 $25 $-1 $110 reversed single #
loop $-1 $-1 $111 $43 #
plane-surface $-1 0 0 -17.038434572933742 0 0 1 1 0 0 forward_v I I I I #
coedge $-1 $112 $113 $114 $115 forward $44 $-1 #
face $-1 $116 $117 $26 $-1 $118 reversed single #
loop $-1 $-1 $119 $46 #
plane-surface $-1 -15.849422114511611 4.6472869246720947 133.41311552374066 0.79863551827123203 0 0.60181501223851219 0.60181501223851219 0 -0.79863551827123203 forward_v I I I I #
coedge $-1 $120 $121 $122 $123 reversed $47 $-1 #
face $-1 $-1 $124 $27 $-1 $125 forward single #
loop $-1 $126 $127 $49 #
cone-surface $-1 73.045042448748404 2.4072412510327013 11.712008852235879 -0.79863551827123203 0 -0.60181501223851219 0.3009075061192561 0 -0.39931775913561601 1 I I -0.70710678118654746 0.70710678118654746 0.5 forward I I I I #
loop $-1 $-1 $128 $35 #
coedge $-1 $80 $80 $129 $130 reversed $50 $-1 #
face $-1 $-1 $131 $28 $-1 $132 forward single #
loop $-1 $133 $134 $52 #
cone-surface $-1 73.045042448748404 6.8873325983114952 11.712008852235879 -0.79863551827123203 0 -0.60181501223851219 0.3009075061192561 0 -0.39931775913561601 1 I I -0.70710678118654746 0.70710678118654746 0.5 forward I I I I #
loop $-1 $-1 $135 $36 #
coedge $-1 $85 $85 $136 $137 reversed $53 $-1 #
face $-1 $138 $139 $29 $-1 $140 reversed single #
loop $-1 $-1 $141 $55 #
plane-surface $-1 -77.834406567583272 4.6472869246720947 9.0904722668693694 -0.79863551827123203 0 0.60181501223851219 0.60181501223851219 0 0.79863551827123203 forward_v I I I I #
coedge $-1 $142 $143 $144 $145 reversed $56 $-1 #
face $-1 $-1 $146 $30 $-1 $147 forward single #
loop $-1 $148 $149 $58 #
cone-surface $-1 -73.045042448748376 2.4072412510327013 11.712008852235872 0.79863551827123203 0 -0.60181501223851219 0.3009075061192561 0 0.39931775913561601 1 I I -0.70710678118654746 0.70710678118654746 0.5 forward I I I I #
loop $-1 $-1 $150 $38 #
coedge $-1 $94 $94 $151 $152 reversed $59 $-1 #
face $-1 $-1 $153 $31 $-1 $154 forward single #
loop $-1 $155 $156 $61 #
cone-surface $-1 -73.045042448748376 6.8873325983114952 11.712008852235872 0.79863551827123203 0 -0.60181501223851219 0.3009075061192561 0 0.39931775913561601 1 I I -0.70710678118654746 0.70710678118654746 0.5 forward I I I I #
loop $-1 $-1 $157 $39 #
coedge $-1 $99 $99 $158 $159 reversed $62 $-1 #
face $-1 $160 $161 $24 $-1 $162 reversed single #
loop $-1 $-1 $163 $64 #
plane-surface $-1 0 -35.470037207834814 0 0 1 0 0 0 1 forward_v I I I I #
coedge $-1 $164 $165 $166 $167 forward $65 $-1 #
coedge $-1 $168 $67 $169 $170 forward $41 $-1 #
coedge $-1 $67 $168 $171 $172 forward $41 $-1 #
coedge $-1 $173 $174 $67 $107 reversed $175 $-1 #
edge $-1 $176 -35.470037207834814 $177 35.470037207834814 $106 $178 forward 7 unknown #
face $-1 $179 $180 $25 $-1 $181 forward single #
loop $-1 $-1 $182 $68 #
plane-surface $-1 77.834406567583244 0 0 -1 0 0 0 0 1 forward_v I I I I #
coedge $-1 $183 $184 $185 $186 forward $69 $-1 #
coedge $-1 $185 $71 $182 $187 reversed $44 $-1 #
coedge $-1 $71 $185 $188 $189 reversed $44 $-1 #
coedge $-1 $190 $191 $71 $115 reversed $180 $-1 #
edge $-1 $192 -77.834406567583244 $193 77.834406567583244 $114 $194 forward 7 unknown #
face $-1 $195 $196 $26 $-1 $197 reversed single #
loop $-1 $-1 $198 $72 #
plane-surface $-1 108.47322114235965 -0.57948631381983162 227.09694420583554 0 1 0 0.79863551827123203 0 0.60181501223851219 forward_v I I I I #
coedge $-1 $199 $200 $201 $202 reversed $73 $-1 #
coedge $-1 $121 $75 $203 $204 reversed $47 $-1 #
coedge $-1 $75 $120 $199 $205 reversed $47 $-1 #
coedge $-1 $201 $206 $75 $123 forward $207 $-1 #
edge $-1 $208 -23.59779599640342 $209 -17.608576980888941 $122 $210 forward 7 unknown #
loop $-1 $-1 $129 $76 #
plane-surface $-1 -15.849422114511611 4.6472869246720947 133.41311552374066 0.79863551827123203 0 0.60181501223851219 0.60181501223851219 0 -0.79863551827123203 forward_v I I I I #
loop $-1 $-1 $211 $49 #
coedge $-1 $127 $127 $128 $212 reversed $77 $-1 #
coedge $-1 $128 $128 $127 $212 forward $79 $-1 #
coedge $-1 $129 $129 $80 $130 forward $124 $-1 #
edge $-1 $213 0 $213 6.2831853071796004 $129 $214 forward 7 unknown #
loop $-1 $-1 $136 $81 #
plane-surface $-1 -15.849422114511611 4.6472869246720947 133.41311552374066 0.79863551827123203 0 0.60181501223851219 0.60181501223851219 0 -0.79863551827123203 forward_v I I I I #
loop $-1 $-1 $215 $52 #
coedge $-1 $134 $134 $135 $216 reversed $82 $-1 #
coedge $-1 $135 $135 $134 $216 forward $84 $-1 #
coedge $-1 $136 $136 $85 $137 forward $131 $-1 #
edge $-1 $217 0 $217 6.2831853071796004 $136 $218 forward 7 unknown #
face $-1 $219 $220 $29 $-1 $221 forward single #
loop $-1 $-1 $222 $86 #
plane-surface $-1 -202.15704982445453 9.874060163164021 102.77430094896425 0 -1 0 0.79863551827123203 0 -0.60181501223851219 forward_v I I I I #
coedge $-1 $223 $224 $225 $226 reversed $87 $-1 #
coedge $-1 $143 $89 $227 $228 reversed $56 $-1 #
coedge $-1 $89 $142 $223 $229 reversed $56 $-1 #
coedge $-1 $225 $230 $89 $145 forward $220 $-1 #
edge $-1 $231 23.244118344644022 $232 29.233337360158515 $144 $233 forward 7 unknown #
loop $-1 $-1 $151 $90 #
plane-surface $-1 -77.834406567583272 4.6472869246720947 9.0904722668693694 -0.79863551827123203 0 0.60181501223851219 0.60181501223851219 0 0.79863551827123203 forward_v I I I I #
loop $-1 $-1 $234 $58 #
coedge $-1 $149 $149 $150 $235 reversed $91 $-1 #
coedge $-1 $150 $150 $149 $235 forward $93 $-1 #
coedge $-1 $151 $151 $94 $152 forward $146 $-1 #
edge $-1 $236 0 $236 6.2831853071796004 $151 $237 forward 7 unknown #
loop $-1 $-1 $158 $95 #
plane-surface $-1 -77.834406567583272 4.6472869246720947 9.0904722668693694 -0.79863551827123203 0 0.60181501223851219 0.60181501223851219 0 0.79863551827123203 forward_v I I I I #
loop $-1 $-1 $238 $61 #
coedge $-1 $156 $156 $157 $239 reversed $96 $-1 #
coedge $-1 $157 $157 $156 $239 forward $98 $-1 #
coedge $-1 $158 $158 $99 $159 forward $153 $-1 #
edge $-1 $240 0 $240 6.2831853071796004 $158 $241 forward 7 unknown #
face $-1 $242 $243 $24 $-1 $244 reversed single #
loop $-1 $-1 $245 $100 #
plane-surface $-1 -77.834406567583244 0 0 1 0 0 0 0 -1 forward_v I I I I #
coedge $-1 $171 $246 $173 $247 reversed $101 $-1 #
coedge $-1 $248 $103 $246 $249 forward $65 $-1 #
coedge $-1 $103 $248 $250 $251 forward $65 $-1 #
coedge $-1 $174 $173 $103 $167 reversed $175 $-1 #
edge $-1 $252 -35.470037207834814 $253 35.470037207834814 $166 $254 forward 7 unknown #
coedge $-1 $105 $104 $255 $256 forward $41 $-1 #
coedge $-1 $257 $258 $104 $170 reversed $243 $-1 #
edge $-1 $177 -77.834406567583244 $259 77.834406567583244 $169 $260 forward 7 unknown #
coedge $-1 $261 $163 $105 $172 reversed $101 $-1 #
edge $-1 $262 -77.834406567583244 $176 77.834406567583244 $171 $263 forward 7 unknown #
coedge $-1 $166 $106 $163 $247 forward $175 $-1 #
coedge $-1 $106 $166 $257 $264 reversed $175 $-1 #
loop $-1 $-1 $173 $242 #
vertex $-1 $107 $265 #
vertex $-1 $107 $266 #
straight-curve $-1 77.834406567583244 0 17.038434572933742 0 1 0 I I #
face $-1 $267 $268 $25 $-1 $269 reversed single #
loop $-1 $-1 $191 $108 #
plane-surface $-1 0 -45.838205698777372 -10.353785633180561 0 0 1 1 0 0 forward_v I I I I #
coedge $-1 $270 $271 $112 $187 forward $109 $-1 #
coedge $-1 $272 $111 $271 $273 forward $69 $-1 #
coedge $-1 $111 $272 $274 $275 forward $69 $-1 #
coedge $-1 $113 $112 $111 $186 reversed $44 $-1 #
edge $-1 $276 -77.834406567583244 $277 77.834406567583244 $111 $278 forward 7 unknown #
edge $-1 $277 -17.038434572933742 $193 -10.353785633180561 $182 $279 forward 7 unknown #
coedge $-1 $274 $280 $113 $189 forward $281 $-1 #
edge $-1 $192 10.353785633180561 $276 17.038434572933742 $188 $282 forward 7 unknown #
coedge $-1 $283 $114 $280 $284 forward $180 $-1 #
coedge $-1 $114 $283 $270 $285 forward $180 $-1 #
vertex $-1 $189 $286 #
vertex $-1 $285 $287 #
straight-curve $-1 0 -35.470037207834814 -10.353785633180561 1 0 0 I I #
face $-1 $-1 $207 $26 $-1 $288 forward single #
loop $-1 $-1 $289 $116 #
plane-surface $-1 77.834406567583244 0 0 -1 0 0 0 0 1 forward_v I I I I #
coedge $-1 $290 $291 $292 $293 reversed $117 $-1 #
coedge $-1 $294 $119 $121 $205 forward $73 $-1 #
coedge $-1 $119 $294 $290 $295 forward $73 $-1 #
coedge $-1 $292 $122 $119 $202 forward $207 $-1 #
edge $-1 $209 -7.5504167008279737 $296 2.903129776155879 $201 $297 forward 7 unknown #
coedge $-1 $298 $299 $120 $204 forward $196 $-1 #
edge $-1 $300 -104.45799983604833 $208 -96.510037529984032 $203 $301 forward 7 unknown #
edge $-1 $209 145.71688622454158 $300 155.66881313516643 $121 $302 forward 7 unknown #
coedge $-1 $122 $292 $298 $303 forward $207 $-1 #
loop $-1 $-1 $292 $195 #
vertex $-1 $204 $304 #
vertex $-1 $123 $305 #
straight-curve $-1 54.236610571179824 9.874060163164021 17.038434572933738 -1 0 0 I I #
coedge $-1 $211 $211 $-1 $306 reversed $126 $-1 #
edge $-1 $307 0 $307 6.2831853071796004 $127 $308 forward 7 unknown #
vertex $-1 $130 $309 #
ellipse-curve $-1 74.839797059826012 2.4072412510327013 13.064453419901566 0.79863551827123203 0 0.60181501223851219 0.60181501223851219 0 -0.79863551827123203 1 I I #
coedge $-1 $215 $215 $-1 $310 reversed $133 $-1 #
edge $-1 $311 0 $311 6.2831853071796004 $134 $312 forward 7 unknown #
vertex $-1 $137 $313 #
ellipse-curve $-1 74.839797059826012 6.8873325983114952 13.064453419901566 0.79863551827123203 0 0.60181501223851219 0.60181501223851219 0 -0.79863551827123203 1 I I #
face $-1 $-1 $314 $29 $-1 $315 reversed single #
loop $-1 $-1 $144 $138 #
plane-surface $-1 0 0 17.038434572933742 0 0 1 1 0 0 forward_v I I I I #
coedge $-1 $316 $317 $318 $319 reversed $139 $-1 #
coedge $-1 $320 $141 $143 $229 forward $87 $-1 #
coedge $-1 $141 $320 $316 $321 forward $87 $-1 #
coedge $-1 $318 $144 $141 $226 forward $220 $-1 #
edge $-1 $232 -2.903129776155879 $322 7.5504167008279737 $225 $323 forward 7 unknown #
coedge $-1 $324 $325 $142 $228 forward $314 $-1 #
edge $-1 $326 -42.296678207612722 $231 -34.348715901548388 $227 $327 forward 7 unknown #
edge $-1 $232 -9.9519269106249393 $326 -4.6896506375148425e-014 $143 $328 forward 7 unknown #
coedge $-1 $144 $318 $324 $329 forward $220 $-1 #
vertex $-1 $228 $330 #
vertex $-1 $145 $331 #
straight-curve $-1 -101.07852491222727 -0.57948631381983162 17.038434572933738 1 0 0 I I #
coedge $-1 $234 $234 $-1 $332 reversed $148 $-1 #
edge $-1 $333 0 $333 6.2831853071796004 $149 $334 forward 7 unknown #
vertex $-1 $152 $335 #
ellipse-curve $-1 -74.839797059825997 2.4072412510327013 13.06445341990157 -0.79863551827123203 0 0.60181501223851219 0.60181501223851219 0 0.79863551827123203 1 I I #
coedge $-1 $238 $238 $-1 $336 reversed $155 $-1 #
edge $-1 $337 0 $337 6.2831853071796004 $156 $338 forward 7 unknown #
vertex $-1 $159 $339 #
ellipse-curve $-1 -74.839797059825997 6.8873325983114952 13.06445341990157 -0.79863551827123203 0 0.60181501223851219 0.60181501223851219 0 0.79863551827123203 1 I I #
face $-1 $-1 $175 $24 $-1 $340 reversed single #
loop $-1 $-1 $257 $160 #
plane-surface $-1 0 35.470037207834814 0 0 -1 0 0 0 -1 forward_v I I I I #
coedge $-1 $341 $255 $258 $342 forward $161 $-1 #
coedge $-1 $163 $261 $164 $249 reversed $101 $-1 #
edge $-1 $176 -17.038434572933742 $253 17.038434572933742 $173 $343 forward 7 unknown #
coedge $-1 $165 $164 $341 $344 forward $65 $-1 #
edge $-1 $253 -77.834406567583244 $345 77.834406567583244 $246 $346 forward 7 unknown #
coedge $-1 $258 $257 $165 $251 reversed $243 $-1 #
edge $-1 $347 -77.834406567583244 $252 77.834406567583244 $250 $348 forward 7 unknown #
vertex $-1 $167 $349 #
vertex $-1 $247 $350 #
straight-curve $-1 77.834406567583244 0 -17.038434572933742 0 -1 0 I I #
coedge $-1 $245 $351 $168 $256 reversed $161 $-1 #
edge $-1 $259 -35.470037207834814 $262 35.470037207834814 $255 $352 forward 7 unknown #
coedge $-1 $250 $169 $174 $264 forward $243 $-1 #
coedge $-1 $169 $250 $245 $342 reversed $243 $-1 #
vertex $-1 $170 $353 #
straight-curve $-1 0 35.470037207834814 17.038434572933742 -1 0 0 I I #
coedge $-1 $246 $171 $351 $354 forward $101 $-1 #
vertex $-1 $256 $355 #
straight-curve $-1 0 -35.470037207834814 17.038434572933742 1 0 0 I I #
edge $-1 $177 -17.038434572933742 $252 17.038434572933742 $174 $356 forward 7 unknown #
point $-1 77.834406567583244 -35.470037207834814 17.038434572933742 #
point $-1 77.834406567583244 35.470037207834814 17.038434572933742 #
face $-1 $-1 $281 $25 $-1 $357 reversed single #
loop $-1 $-1 $358 $179 #
plane-surface $-1 0 -56.206374189719931 -13.696110103057151 0 1 0 0 0 1 forward_v I I I I #
coedge $-1 $359 $182 $191 $285 reversed $109 $-1 #
coedge $-1 $182 $359 $183 $273 reversed $109 $-1 #
coedge $-1 $184 $183 $360 $361 forward $69 $-1 #
edge $-1 $277 35.470037207834814 $362 56.206374189719931 $271 $363 forward 7 unknown #
coedge $-1 $364 $188 $184 $275 reversed $281 $-1 #
edge $-1 $365 -56.206374189719931 $276 -35.470037207834814 $274 $366 forward 7 unknown #
vertex $-1 $189 $367 #
vertex $-1 $273 $368 #
straight-curve $-1 0 -35.470037207834814 -17.038434572933742 1 0 0 I I #
straight-curve $-1 77.834406567583244 -35.470037207834814 0 0 0 1 I I #
coedge $-1 $188 $364 $190 $284 reversed $281 $-1 #
loop $-1 $-1 $188 $267 #
straight-curve $-1 -77.834406567583244 -35.470037207834814 0 0 0 -1 I I #
coedge $-1 $191 $190 $369 $370 forward $180 $-1 #
edge $-1 $192 -10.368168490942558 $371 10.368168490942558 $280 $372 forward 7 unknown #
edge $-1 $373 -10.368168490942558 $193 10.368168490942558 $270 $374 forward 7 unknown #
point $-1 -77.834406567583244 -35.470037207834814 -10.353785633180561 #
point $-1 77.834406567583244 -35.470037207834814 -10.353785633180561 #
plane-surface $-1 0 0 17.038434572933742 0 0 1 1 0 0 forward_v I I I I #
coedge $-1 $299 $298 $291 $375 forward $196 $-1 #
coedge $-1 $291 $198 $200 $295 reversed $117 $-1 #
coedge $-1 $198 $290 $289 $375 reversed $117 $-1 #
coedge $-1 $206 $201 $198 $293 forward $207 $-1 #
edge $-1 $296 17.608576980888941 $376 23.59779599640342 $292 $377 forward 7 unknown #
coedge $-1 $200 $199 $299 $378 reversed $73 $-1 #
edge $-1 $379 -155.66881313516643 $296 -145.71688622454158 $290 $380 forward 7 unknown #
vertex $-1 $202 $381 #
straight-curve $-1 71.845187552068765 2.3236434623360473 17.038434572933738 0 -1 0 I I #
coedge $-1 $289 $203 $206 $303 reversed $196 $-1 #
coedge $-1 $203 $289 $294 $378 forward $196 $-1 #
vertex $-1 $204 $382 #
straight-curve $-1 77.834406567583244 9.874060163164021 113.54847210291777 0 0 1 I I #
straight-curve $-1 -15.849422114511611 9.874060163164021 133.41311552374066 0.60181501223851219 0 -0.79863551827123203 I I #
edge $-1 $376 -0.57948631381983162 $208 9.874060163164021 $298 $383 forward 7 unknown #
point $-1 77.834406567583244 9.874060163164021 17.038434572933742 #
point $-1 71.845187552068765 9.874060163164021 17.038434572933738 #
edge $-1 $384 1 $384 0 $211 $-1 forward 7 unknown #
vertex $-1 $212 $385 #
ellipse-curve $-1 73.444360207884017 2.4072412510327013 12.012916358355135 0.79863551827123203 0 0.60181501223851219 0.60181501223851219 0 -0.79863551827123203 1 I I #
point $-1 75.441612072064515 2.4072412510327013 12.265817901630323 #
edge $-1 $386 1 $386 0 $215 $-1 forward 7 unknown #
vertex $-1 $216 $387 #
ellipse-curve $-1 73.444360207884017 6.8873325983114952 12.012916358355135 0.79863551827123203 0 0.60181501223851219 0.60181501223851219 0 -0.79863551827123203 1 I I #
point $-1 75.441612072064515 6.8873325983114952 12.265817901630323 #
loop $-1 $-1 $227 $219 #
plane-surface $-1 -77.834406567583244 0 0 1 0 0 0 0 -1 forward_v I I I I #
coedge $-1 $317 $222 $224 $321 reversed $139 $-1 #
coedge $-1 $222 $316 $388 $389 reversed $139 $-1 #
coedge $-1 $230 $225 $222 $319 forward $220 $-1 #
edge $-1 $322 -29.233337360158515 $390 -23.244118344644022 $318 $391 forward 7 unknown #
coedge $-1 $224 $223 $325 $392 reversed $87 $-1 #
edge $-1 $393 4.6896506375148425e-014 $322 9.9519269106249393 $316 $394 forward 7 unknown #
vertex $-1 $226 $395 #
straight-curve $-1 -71.845187552068737 2.3236434623360473 17.038434572933742 0 1 0 I I #
coedge $-1 $388 $227 $230 $329 reversed $314 $-1 #
coedge $-1 $227 $388 $320 $392 forward $314 $-1 #
vertex $-1 $228 $396 #
straight-curve $-1 -77.834406567583244 -0.57948631381983162 51.387150474482127 0 0 1 I I #
straight-curve $-1 -77.834406567583272 -0.57948631381983162 9.0904722668693694 -0.60181501223851219 0 -0.79863551827123203 I I #
edge $-1 $390 -9.874060163164021 $231 0.57948631381983162 $324 $397 forward 7 unknown #
point $-1 -77.834406567583244 -0.57948631381983162 17.038434572933742 #
point $-1 -71.845187552068751 -0.57948631381983162 17.038434572933742 #
edge $-1 $398 1 $398 0 $234 $-1 forward 7 unknown #
vertex $-1 $235 $399 #
ellipse-curve $-1 -73.444360207883989 2.4072412510327013 12.012916358355127 -0.79863551827123203 0 0.60181501223851219 0.60181501223851219 0 0.79863551827123203 1 I I #
point $-1 -74.237982047587465 2.4072412510327013 13.86308893817278 #
edge $-1 $400 1 $400 0 $238 $-1 forward 7 unknown #
vertex $-1 $239 $401 #
ellipse-curve $-1 -73.444360207883989 6.8873325983114952 12.012916358355127 -0.79863551827123203 0 0.60181501223851219 0.60181501223851219 0 0.79863551827123203 1 I I #
point $-1 -74.237982047587465 6.8873325983114952 13.86308893817278 #
plane-surface $-1 77.834406567583244 0 0 -1 0 0 0 0 1 forward_v I I I I #
coedge $-1 $351 $245 $248 $344 reversed $161 $-1 #
edge $-1 $259 -17.038434572933742 $347 17.038434572933742 $258 $402 forward 7 unknown #
straight-curve $-1 77.834406567583244 -35.470037207834814 0 0 0 -1 I I #
edge $-1 $345 -35.470037207834814 $347 35.470037207834814 $341 $403 forward 7 unknown #
vertex $-1 $344 $404 #
straight-curve $-1 0 -35.470037207834814 -17.038434572933742 -1 0 0 I I #
vertex $-1 $251 $405 #
straight-curve $-1 0 35.470037207834814 -17.038434572933742 1 0 0 I I #
point $-1 77.834406567583244 35.470037207834814 -17.038434572933742 #
point $-1 77.834406567583244 -35.470037207834814 -17.038434572933742 #
coedge $-1 $255 $341 $261 $354 reversed $161 $-1 #
straight-curve $-1 -77.834406567583244 0 17.038434572933742 0 -1 0 I I #
point $-1 -77.834406567583244 35.470037207834814 17.038434572933742 #
edge $-1 $262 -17.038434572933742 $345 17.038434572933742 $351 $406 forward 7 unknown #
point $-1 -77.834406567583244 -35.470037207834814 17.038434572933742 #
straight-curve $-1 77.834406567583244 35.470037207834814 0 0 0 -1 I I #
plane-surface $-1 -77.834406567583244 0 0 1 0 0 0 0 -1 forward_v I I I I #
coedge $-1 $360 $369 $364 $407 forward $268 $-1 #
coedge $-1 $271 $270 $408 $409 forward $109 $-1 #
coedge $-1 $408 $358 $272 $361 reversed $268 $-1 #
edge $-1 $362 -77.834406567583244 $365 77.834406567583244 $360 $410 forward 7 unknown #
vertex $-1 $409 $411 #
straight-curve $-1 77.834406567583244 0 -17.038434572933742 0 -1 0 I I #
coedge $-1 $280 $274 $358 $407 reversed $281 $-1 #
vertex $-1 $275 $412 #
straight-curve $-1 -77.834406567583244 0 -17.038434572933742 0 1 0 I I #
point $-1 -77.834406567583244 -35.470037207834814 -17.038434572933742 #
point $-1 77.834406567583244 -35.470037207834814 -17.038434572933742 #
coedge $-1 $358 $408 $283 $370 reversed $268 $-1 #
edge $-1 $371 -77.834406567583244 $373 77.834406567583244 $369 $413 forward 7 unknown #
vertex $-1 $284 $414 #
straight-curve $-1 -77.834406567583244 -45.838205698777372 -10.353785633180561 0 -1 0 I I #
vertex $-1 $285 $415 #
straight-curve $-1 77.834406567583244 -45.838205698777372 -10.353785633180561 0 1 0 I I #
edge $-1 $376 96.510037529984032 $379 104.45799983604833 $289 $416 forward 7 unknown #
vertex $-1 $303 $417 #
straight-curve $-1 54.236610571179824 -0.57948631381983162 17.038434572933738 1 0 0 I I #
edge $-1 $379 -2.903129776155879 $300 7.5504167008279737 $299 $418 forward 7 unknown #
vertex $-1 $378 $419 #
straight-curve $-1 -15.849422114511611 -0.57948631381983162 133.41311552374066 -0.60181501223851219 0 0.79863551827123203 I I #
point $-1 71.845187552068765 -0.57948631381983162 17.038434572933738 #
point $-1 77.834406567583244 9.874060163164021 9.0904722668694404 #
straight-curve $-1 77.834406567583244 0 17.038434572933742 0 1 0 I I #
vertex $-1 $306 $420 #
point $-1 74.046175220122535 2.4072412510327013 11.214280840083903 #
vertex $-1 $310 $421 #
point $-1 74.046175220122535 6.8873325983114952 11.214280840083903 #
coedge $-1 $325 $324 $317 $389 forward $314 $-1 #
edge $-1 $390 34.348715901548388 $393 42.296678207612722 $388 $422 forward 7 unknown #
vertex $-1 $329 $423 #
straight-curve $-1 -101.07852491222727 9.874060163164021 17.038434572933738 -1 0 0 I I #
edge $-1 $393 -7.5504167008279737 $326 2.903129776155879 $325 $424 forward 7 unknown #
vertex $-1 $392 $425 #
straight-curve $-1 -77.834406567583272 9.874060163164021 9.0904722668693694 0.60181501223851219 0 0.79863551827123203 I I #
point $-1 -71.845187552068751 9.874060163164021 17.038434572933742 #
point $-1 -77.834406567583244 -0.57948631381983162 9.0904722668694067 #
straight-curve $-1 -77.834406567583244 0 17.038434572933742 0 -1 0 I I #
vertex $-1 $332 $426 #
point $-1 -72.842545195645485 2.4072412510327013 12.811551876626361 #
vertex $-1 $336 $427 #
point $-1 -72.842545195645485 6.8873325983114952 12.811551876626361 #
straight-curve $-1 -77.834406567583244 35.470037207834814 0 0 0 -1 I I #
straight-curve $-1 -77.834406567583244 0 -17.038434572933742 0 1 0 I I #
point $-1 -77.834406567583244 -35.470037207834814 -17.038434572933742 #
point $-1 -77.834406567583244 35.470037207834814 -17.038434572933742 #
straight-curve $-1 -77.834406567583244 -35.470037207834814 0 0 0 -1 I I #
edge $-1 $371 -3.3423244698765906 $365 3.3423244698765906 $364 $428 forward 7 unknown #
coedge $-1 $369 $360 $359 $409 reversed $268 $-1 #
edge $-1 $373 -3.3423244698765906 $362 3.3423244698765906 $359 $429 forward 7 unknown #
straight-curve $-1 0 -56.206374189719931 -17.038434572933742 -1 0 0 I I #
point $-1 77.834406567583244 -56.206374189719931 -17.038434572933742 #
point $-1 -77.834406567583244 -56.206374189719931 -17.038434572933742 #
straight-curve $-1 0 -56.206374189719931 -10.353785633180561 1 0 0 I I #
point $-1 -77.834406567583244 -56.206374189719931 -10.353785633180561 #
point $-1 77.834406567583244 -56.206374189719931 -10.353785633180561 #
straight-curve $-1 77.834406567583244 -0.57948631381983162 113.54847210291777 0 0 -1 I I #
point $-1 77.834406567583244 -0.57948631381983162 17.038434572933742 #
straight-curve $-1 77.834406567583244 2.3236434623360473 9.0904722668694404 0 1 0 I I #
point $-1 77.834406567583244 -0.57948631381983162 9.0904722668694404 #
point $-1 72.645724689612791 2.4072412510327013 11.411101346116624 #
point $-1 72.645724689612791 6.8873325983114952 11.411101346116624 #
straight-curve $-1 -77.834406567583244 9.874060163164021 51.387150474482127 0 0 -1 I I #
point $-1 -77.834406567583244 9.874060163164021 17.038434572933742 #
straight-curve $-1 -77.834406567583244 2.3236434623360473 9.0904722668694102 0 -1 0 I I #
point $-1 -77.834406567583244 9.874060163164021 9.0904722668694067 #
point $-1 -72.645724689612763 2.4072412510327013 11.411101346116617 #
point $-1 -72.645724689612763 6.8873325983114952 11.411101346116617 #
straight-curve $-1 -77.834406567583244 -56.206374189719931 -13.696110103057151 0 0 -1 I I #
straight-curve $-1 77.834406567583244 -56.206374189719931 -13.696110103057151 0 0 -1 I I #
End-of-ACIS-data 