500 0 6 0           
7 Unknown 11 ACIS 5.0 NT 24 Thu Mar 25 17:54:35 1999 
-1 9.9999999999999995e-007 1e-010 
body $-1 $6 $-1 $7 #
body $-1 $8 $-1 $9 #
body $-1 $10 $-1 $11 #
body $-1 $12 $-1 $13 #
body $-1 $14 $-1 $15 #
body $-1 $16 $-1 $17 #
lump $-1 $-1 $18 $0 #
transform $-1 1 0 0 0 1 0 0 0 1 51.180761131626333 24.679288980740452 7.6784696585239036 1 rotate no_reflect no_shear #
lump $-1 $-1 $19 $1 #
transform $-1 1 0 0 0 1 0 0 0 1 51.180761131626333 24.679288980740452 7.6784696585239036 1 rotate no_reflect no_shear #
lump $-1 $-1 $20 $2 #
transform $-1 1 0 0 0 1 0 0 0 1 51.180761131626333 24.679288980740452 7.6784696585239036 1 rotate no_reflect no_shear #
lump $-1 $-1 $21 $3 #
transform $-1 1 0 0 0 1 0 0 0 1 51.180761131626333 24.679288980740452 7.6784696585239036 1 rotate no_reflect no_shear #
lump $-1 $-1 $22 $4 #
transform $-1 1 0 0 0 1 0 0 0 1 51.180761131626333 24.679288980740452 7.6784696585239036 1 rotate no_reflect no_shear #
lump $-1 $-1 $23 $5 #
transform $-1 1 0 0 0 1 0 0 0 1 51.180761131626333 24.679288980740452 7.6784696585239036 1 rotate no_reflect no_shear #
shell $-1 $-1 $-1 $24 $-1 $6 #
shell $-1 $-1 $-1 $25 $-1 $8 #
shell $-1 $-1 $-1 $26 $-1 $10 #
shell $-1 $-1 $-1 $27 $-1 $12 #
shell $-1 $-1 $-1 $28 $-1 $14 #
shell $-1 $-1 $-1 $29 $-1 $16 #
face $-1 $30 $31 $18 $-1 $32 forward single #
face $-1 $33 $34 $19 $-1 $35 reversed single #
face $-1 $36 $37 $20 $-1 $38 forward single #
face $-1 $39 $40 $21 $-1 $41 reversed single #
face $-1 $42 $43 $22 $-1 $44 forward single #
face $-1 $45 $46 $23 $-1 $47 forward single #
face $-1 $48 $49 $18 $-1 $50 reversed single #
loop $-1 $-1 $51 $24 #
plane-surface $-1 0 0 7.6784696585239036 0 0 1 1 0 0 forward_v I I I I #
face $-1 $52 $53 $19 $-1 $54 reversed single #
loop $-1 $-1 $55 $25 #
plane-surface $-1 0 -21.189045249017074 4.6784696585239036 0 0 1 1 0 0 forward_v I I I I #
face $-1 $56 $57 $20 $-1 $58 reversed single #
loop $-1 $-1 $59 $26 #
plane-surface $-1 0 20.328586570351632 -4.6784696585239036 0 0 1 1 0 0 forward_v I I I I #
face $-1 $60 $61 $21 $-1 $62 reversed single #
loop $-1 $-1 $63 $27 #
plane-surface $-1 -103.90084320425655 -4.475947663248931 90.499600158811262 0 -1 0 0.51503808176128008 0 -0.85716729658548041 forward_v I I I I #
face $-1 $64 $65 $22 $-1 $66 forward single #
loop $-1 $67 $68 $28 #
cone-surface $-1 -46.077621346866316 -11.270754698881969 3.5390308316376404 0.51503808176128008 0 -0.85716729658548041 0.85716729658548041 0 0.51503808176128008 1 I I 0 1 1 forward I I I I #
face $-1 $69 $70 $23 $-1 $71 forward single #
loop $-1 $72 $73 $29 #
cone-surface $-1 -46.077621346866316 -7.1938704775021449 3.5390308316376404 0.51503808176128008 0 -0.85716729658548041 0.85716729658548041 0 0.51503808176128008 1 I I 0 1 1 forward I I I I #
face $-1 $74 $75 $18 $-1 $76 reversed single #
loop $-1 $-1 $77 $30 #
plane-surface $-1 0 0 -7.6784696585239036 0 0 1 1 0 0 forward_v I I I I #
coedge $-1 $78 $79 $80 $81 forward $31 $-1 #
face $-1 $82 $83 $19 $-1 $84 reversed single #
loop $-1 $-1 $85 $33 #
plane-surface $-1 0 -17.698801517293695 6.1784696585239036 0 -1 0 0 0 -1 forward_v I I I I #
coedge $-1 $86 $87 $88 $89 reversed $34 $-1 #
face $-1 $90 $91 $20 $-1 $92 reversed single #
loop $-1 $-1 $93 $36 #
plane-surface $-1 0 15.977884159962812 -6.1784696585239036 0 1 0 0 0 1 forward_v I I I I #
coedge $-1 $94 $95 $96 $97 reversed $37 $-1 #
face $-1 $98 $99 $21 $-1 $100 reversed single #
loop $-1 $-1 $101 $39 #
plane-surface $-1 -51.180761131626326 -9.2323125881920589 2.7586508460445032 -0.51503808176128008 0 0.85716729658548041 0.85716729658548041 0 0.51503808176128008 forward_v I I I I #
coedge $-1 $102 $103 $104 $105 reversed $40 $-1 #
face $-1 $-1 $106 $22 $-1 $107 forward single #
loop $-1 $108 $109 $42 #
cone-surface $-1 -44.81093920035012 -11.270754698881969 1.4309177626983391 0.51503808176128008 0 -0.85716729658548041 0.4285836482927402 0 0.25751904088064004 1 I I -0.70710678118654746 0.70710678118654746 0.5 forward I I I I #
loop $-1 $-1 $110 $28 #
coedge $-1 $68 $68 $111 $112 reversed $43 $-1 #
face $-1 $-1 $113 $23 $-1 $114 forward single #
loop $-1 $115 $116 $45 #
cone-surface $-1 -44.81093920035012 -7.1938704775021449 1.4309177626983391 0.51503808176128008 0 -0.85716729658548041 0.4285836482927402 0 0.25751904088064004 1 I I -0.70710678118654746 0.70710678118654746 0.5 forward I I I I #
loop $-1 $-1 $117 $29 #
coedge $-1 $73 $73 $118 $119 reversed $46 $-1 #
face $-1 $120 $121 $18 $-1 $122 reversed single #
loop $-1 $-1 $123 $48 #
plane-surface $-1 0 -24.679288980740452 0 0 1 0 0 0 1 forward_v I I I I #
coedge $-1 $124 $125 $126 $127 forward $49 $-1 #
coedge $-1 $128 $51 $129 $130 forward $31 $-1 #
coedge $-1 $51 $128 $131 $132 forward $31 $-1 #
coedge $-1 $133 $134 $51 $81 reversed $135 $-1 #
edge $-1 $136 -24.679288980740452 $137 24.679288980740452 $80 $138 forward 7 unknown #
face $-1 $139 $140 $19 $-1 $141 reversed single #
loop $-1 $-1 $142 $52 #
plane-surface $-1 -51.180761131626333 0 0 1 0 0 0 0 -1 forward_v I I I I #
coedge $-1 $143 $144 $145 $146 reversed $53 $-1 #
coedge $-1 $147 $55 $148 $149 reversed $34 $-1 #
coedge $-1 $55 $147 $143 $150 forward $34 $-1 #
coedge $-1 $145 $151 $55 $89 forward $152 $-1 #
edge $-1 $153 -14.084766356231915 $154 -7.1042788927851586 $88 $155 forward 7 unknown #
face $-1 $156 $157 $20 $-1 $158 reversed single #
loop $-1 $-1 $96 $56 #
plane-surface $-1 51.180761131626333 0 0 -1 0 0 0 0 1 forward_v I I I I #
coedge $-1 $159 $160 $161 $162 reversed $57 $-1 #
coedge $-1 $163 $59 $164 $165 reversed $37 $-1 #
coedge $-1 $59 $163 $160 $166 forward $37 $-1 #
coedge $-1 $167 $168 $59 $97 forward $91 $-1 #
edge $-1 $169 -14.514995695564636 $170 -5.8135908747869962 $96 $171 forward 7 unknown #
face $-1 $172 $173 $21 $-1 $174 reversed single #
loop $-1 $-1 $175 $60 #
plane-surface $-1 -103.90084320425655 -13.988677513135187 90.499600158811262 0 1 0 -0.51503808176128008 0 0.85716729658548041 forward_v I I I I #
coedge $-1 $176 $177 $178 $179 reversed $61 $-1 #
coedge $-1 $103 $63 $180 $181 reversed $40 $-1 #
coedge $-1 $63 $102 $176 $182 reversed $40 $-1 #
coedge $-1 $178 $183 $63 $105 forward $173 $-1 #
edge $-1 $184 37.571330420881729 $185 42.491149233361135 $104 $186 forward 7 unknown #
loop $-1 $-1 $111 $64 #
plane-surface $-1 -51.180761131626326 -9.2323125881920589 2.7586508460445032 -0.51503808176128008 0 0.85716729658548041 0.85716729658548041 0 0.51503808176128008 forward_v I I I I #
loop $-1 $-1 $187 $42 #
coedge $-1 $109 $109 $110 $188 reversed $65 $-1 #
coedge $-1 $110 $110 $109 $188 forward $67 $-1 #
coedge $-1 $111 $111 $68 $112 forward $106 $-1 #
edge $-1 $189 0 $189 6.2831853071796004 $111 $190 forward 7 unknown #
loop $-1 $-1 $118 $69 #
plane-surface $-1 -51.180761131626326 -9.2323125881920589 2.7586508460445032 -0.51503808176128008 0 0.85716729658548041 0.85716729658548041 0 0.51503808176128008 forward_v I I I I #
loop $-1 $-1 $191 $45 #
coedge $-1 $116 $116 $117 $192 reversed $70 $-1 #
coedge $-1 $117 $117 $116 $192 forward $72 $-1 #
coedge $-1 $118 $118 $73 $119 forward $113 $-1 #
edge $-1 $193 0 $193 6.2831853071796004 $118 $194 forward 7 unknown #
face $-1 $195 $196 $18 $-1 $197 reversed single #
loop $-1 $-1 $198 $74 #
plane-surface $-1 -51.180761131626333 0 0 1 0 0 0 0 -1 forward_v I I I I #
coedge $-1 $199 $131 $200 $201 forward $75 $-1 #
coedge $-1 $202 $77 $199 $203 forward $49 $-1 #
coedge $-1 $77 $202 $204 $205 forward $49 $-1 #
coedge $-1 $134 $133 $77 $127 reversed $135 $-1 #
edge $-1 $206 -24.679288980740452 $207 24.679288980740452 $126 $208 forward 7 unknown #
coedge $-1 $79 $78 $209 $210 forward $31 $-1 #
coedge $-1 $211 $212 $78 $130 reversed $196 $-1 #
edge $-1 $137 -51.180761131626333 $213 51.180761131626333 $129 $214 forward 7 unknown #
coedge $-1 $123 $215 $79 $132 reversed $75 $-1 #
edge $-1 $216 -51.180761131626333 $136 51.180761131626333 $131 $217 forward 7 unknown #
coedge $-1 $126 $80 $215 $218 forward $135 $-1 #
coedge $-1 $80 $126 $211 $219 reversed $135 $-1 #
loop $-1 $-1 $133 $195 #
vertex $-1 $81 $220 #
vertex $-1 $81 $221 #
straight-curve $-1 51.180761131626333 0 7.6784696585239036 0 1 0 I I #
face $-1 $222 $223 $19 $-1 $224 forward single #
loop $-1 $-1 $148 $82 #
plane-surface $-1 0 -24.679288980740452 0 0 1 0 0 0 1 forward_v I I I I #
coedge $-1 $225 $226 $227 $228 forward $83 $-1 #
coedge $-1 $227 $85 $87 $150 reversed $53 $-1 #
coedge $-1 $85 $227 $229 $230 reversed $53 $-1 #
coedge $-1 $231 $88 $85 $146 forward $152 $-1 #
edge $-1 $154 1.5892348292619518 $232 4.5892348292619518 $145 $233 forward 7 unknown #
coedge $-1 $87 $86 $225 $234 reversed $34 $-1 #
coedge $-1 $235 $236 $86 $149 forward $140 $-1 #
edge $-1 $237 -51.180761131626333 $153 51.180761131626333 $148 $238 forward 7 unknown #
edge $-1 $239 -51.180761131626333 $154 51.180761131626333 $143 $240 forward 7 unknown #
coedge $-1 $88 $231 $235 $241 forward $152 $-1 #
loop $-1 $-1 $145 $222 #
vertex $-1 $149 $242 #
vertex $-1 $89 $243 #
straight-curve $-1 51.180761131626333 -10.594522624508537 4.6784696585239036 0 1 0 I I #
face $-1 $244 $245 $20 $-1 $246 reversed single #
loop $-1 $-1 $247 $90 #
plane-surface $-1 0 0 -7.6784696585239036 0 0 1 1 0 0 forward_v I I I I #
coedge $-1 $248 $93 $247 $249 reversed $57 $-1 #
coedge $-1 $93 $248 $95 $166 reversed $57 $-1 #
coedge $-1 $250 $251 $93 $162 forward $245 $-1 #
edge $-1 $252 -4.5892348292619518 $253 -1.5892348292619518 $161 $254 forward 7 unknown #
coedge $-1 $95 $94 $250 $255 reversed $37 $-1 #
coedge $-1 $256 $257 $94 $165 forward $258 $-1 #
edge $-1 $259 -51.180761131626333 $169 51.180761131626333 $164 $260 forward 7 unknown #
edge $-1 $253 -51.180761131626333 $170 51.180761131626333 $160 $261 forward 7 unknown #
coedge $-1 $262 $96 $248 $263 forward $91 $-1 #
coedge $-1 $96 $262 $256 $264 reversed $91 $-1 #
vertex $-1 $264 $265 #
vertex $-1 $97 $266 #
straight-curve $-1 51.180761131626333 10.164293285175816 -4.6784696585239036 0 -1 0 I I #
face $-1 $-1 $267 $21 $-1 $268 forward single #
loop $-1 $-1 $104 $98 #
plane-surface $-1 -51.180761131626333 0 0 1 0 0 0 0 -1 forward_v I I I I #
coedge $-1 $269 $270 $271 $272 reversed $99 $-1 #
coedge $-1 $273 $101 $103 $182 forward $61 $-1 #
coedge $-1 $101 $273 $269 $274 forward $61 $-1 #
coedge $-1 $271 $104 $101 $179 forward $173 $-1 #
edge $-1 $185 -0.14020863084709845 $275 9.3725212190391574 $178 $276 forward 7 unknown #
coedge $-1 $277 $278 $102 $181 forward $267 $-1 #
edge $-1 $279 -8.9576138287508655 $184 -0.76966047050193964 $180 $280 forward 7 unknown #
edge $-1 $185 -8.3777685069199533e-015 $279 9.55233988845068 $103 $281 forward 7 unknown #
coedge $-1 $104 $271 $277 $282 reversed $173 $-1 #
vertex $-1 $282 $283 #
vertex $-1 $105 $284 #
straight-curve $-1 -51.180761131626333 -4.475947663248931 45.249800079405631 0 0 -1 I I #
coedge $-1 $187 $187 $-1 $285 reversed $108 $-1 #
edge $-1 $286 0 $286 6.2831853071796004 $109 $287 forward 7 unknown #
vertex $-1 $112 $288 #
ellipse-curve $-1 -47.086784452501874 -11.270754698881969 5.218560252284199 -0.51503808176128008 0 0.85716729658548041 0.85716729658548041 0 0.51503808176128008 1 I I #
coedge $-1 $191 $191 $-1 $289 reversed $115 $-1 #
edge $-1 $290 0 $290 6.2831853071796004 $116 $291 forward 7 unknown #
vertex $-1 $119 $292 #
ellipse-curve $-1 -47.086784452501874 -7.1938704775021449 5.218560252284199 -0.51503808176128008 0 0.85716729658548041 0.85716729658548041 0 0.51503808176128008 1 I I #
face $-1 $-1 $135 $18 $-1 $293 reversed single #
loop $-1 $-1 $211 $120 #
plane-surface $-1 0 24.679288980740452 0 0 -1 0 0 0 -1 forward_v I I I I #
coedge $-1 $294 $209 $212 $295 forward $121 $-1 #
coedge $-1 $215 $123 $124 $203 reversed $75 $-1 #
coedge $-1 $209 $294 $123 $201 reversed $121 $-1 #
edge $-1 $216 -7.6784696585239036 $296 7.6784696585239036 $200 $297 forward 7 unknown #
coedge $-1 $125 $124 $294 $298 forward $49 $-1 #
edge $-1 $207 -51.180761131626333 $296 51.180761131626333 $199 $299 forward 7 unknown #
coedge $-1 $212 $211 $125 $205 reversed $196 $-1 #
edge $-1 $300 -51.180761131626333 $206 51.180761131626333 $204 $301 forward 7 unknown #
vertex $-1 $127 $302 #
vertex $-1 $218 $303 #
straight-curve $-1 51.180761131626333 0 -7.6784696585239036 0 -1 0 I I #
coedge $-1 $198 $200 $128 $210 reversed $121 $-1 #
edge $-1 $213 -24.679288980740452 $216 24.679288980740452 $209 $304 forward 7 unknown #
coedge $-1 $204 $129 $134 $219 forward $196 $-1 #
coedge $-1 $129 $204 $198 $295 reversed $196 $-1 #
vertex $-1 $130 $305 #
straight-curve $-1 0 24.679288980740452 7.6784696585239036 -1 0 0 I I #
coedge $-1 $131 $199 $133 $218 reversed $75 $-1 #
vertex $-1 $210 $306 #
straight-curve $-1 0 -24.679288980740452 7.6784696585239036 1 0 0 I I #
edge $-1 $136 -7.6784696585239036 $207 7.6784696585239036 $133 $307 forward 7 unknown #
edge $-1 $137 -7.6784696585239036 $206 7.6784696585239036 $134 $308 forward 7 unknown #
point $-1 51.180761131626333 -24.679288980740452 7.6784696585239036 #
point $-1 51.180761131626333 24.679288980740452 7.6784696585239036 #
face $-1 $-1 $152 $19 $-1 $309 reversed single #
loop $-1 $-1 $229 $139 #
plane-surface $-1 0 0 7.6784696585239036 0 0 1 1 0 0 forward_v I I I I #
coedge $-1 $310 $142 $147 $234 forward $83 $-1 #
coedge $-1 $142 $310 $311 $312 reversed $83 $-1 #
coedge $-1 $144 $143 $142 $228 reversed $53 $-1 #
edge $-1 $313 -4.5892348292619518 $239 -1.5892348292619518 $142 $314 forward 7 unknown #
coedge $-1 $311 $315 $144 $230 forward $223 $-1 #
edge $-1 $232 -51.180761131626333 $313 51.180761131626333 $229 $316 forward 7 unknown #
coedge $-1 $151 $145 $315 $317 reversed $152 $-1 #
vertex $-1 $146 $318 #
straight-curve $-1 51.180761131626333 -17.698801517293695 3.0892348292619518 0 0 1 I I #
edge $-1 $239 7.1042788927851586 $237 14.084766356231915 $225 $319 forward 7 unknown #
coedge $-1 $320 $148 $151 $241 reversed $140 $-1 #
coedge $-1 $148 $320 $310 $321 forward $140 $-1 #
vertex $-1 $149 $322 #
straight-curve $-1 0 -24.679288980740452 4.6784696585239036 1 0 0 I I #
vertex $-1 $234 $323 #
straight-curve $-1 0 -17.698801517293695 4.6784696585239036 1 0 0 I I #
edge $-1 $324 -7.6784696585239036 $153 -4.6784696585239036 $151 $325 forward 7 unknown #
point $-1 51.180761131626333 -24.679288980740452 4.6784696585239036 #
point $-1 51.180761131626333 -17.698801517293695 4.6784696585239036 #
face $-1 $-1 $258 $20 $-1 $326 reversed single #
loop $-1 $-1 $250 $156 #
plane-surface $-1 -51.180761131626333 0 0 1 0 0 0 0 -1 forward_v I I I I #
coedge $-1 $327 $328 $159 $249 forward $157 $-1 #
coedge $-1 $160 $159 $167 $263 reversed $57 $-1 #
edge $-1 $329 -51.180761131626333 $252 51.180761131626333 $247 $330 forward 7 unknown #
coedge $-1 $331 $161 $163 $255 forward $245 $-1 #
coedge $-1 $161 $331 $327 $332 reversed $245 $-1 #
vertex $-1 $332 $333 #
vertex $-1 $255 $334 #
straight-curve $-1 -51.180761131626333 15.977884159962812 -3.0892348292619518 0 0 1 I I #
edge $-1 $253 5.8135908747869962 $259 14.514995695564636 $250 $335 forward 7 unknown #
coedge $-1 $336 $164 $168 $264 forward $258 $-1 #
coedge $-1 $164 $336 $331 $337 reversed $258 $-1 #
loop $-1 $-1 $164 $244 #
vertex $-1 $337 $338 #
straight-curve $-1 0 24.679288980740452 -4.6784696585239036 1 0 0 I I #
straight-curve $-1 0 15.977884159962812 -4.6784696585239036 1 0 0 I I #
coedge $-1 $168 $167 $328 $339 reversed $91 $-1 #
edge $-1 $170 1.5892348292619518 $329 4.5892348292619518 $167 $340 forward 7 unknown #
edge $-1 $169 4.6784696585239036 $341 7.6784696585239036 $168 $342 forward 7 unknown #
point $-1 51.180761131626333 24.679288980740452 -4.6784696585239036 #
point $-1 51.180761131626333 15.977884159962812 -4.6784696585239036 #
loop $-1 $-1 $180 $172 #
plane-surface $-1 0 0 7.6784696585239036 0 0 1 1 0 0 forward_v I I I I #
coedge $-1 $270 $175 $177 $274 reversed $99 $-1 #
coedge $-1 $175 $269 $343 $344 reversed $99 $-1 #
coedge $-1 $183 $178 $175 $272 forward $173 $-1 #
edge $-1 $275 -42.491149233361135 $345 -37.571330420881729 $271 $346 forward 7 unknown #
coedge $-1 $177 $176 $278 $347 reversed $61 $-1 #
edge $-1 $348 -9.55233988845068 $275 8.3777685069199533e-015 $269 $349 forward 7 unknown #
vertex $-1 $179 $350 #
straight-curve $-1 -51.180761131626333 -4.6161562940960295 2.7586508460444956 0 -1 0 I I #
coedge $-1 $343 $180 $183 $282 forward $267 $-1 #
coedge $-1 $180 $343 $273 $347 forward $267 $-1 #
vertex $-1 $181 $351 #
straight-curve $-1 -51.950421602128273 -4.475947663248931 7.6784696585239018 -1 0 0 I I #
straight-curve $-1 -51.180761131626326 -4.475947663248931 2.7586508460445032 0.85716729658548041 0 0.51503808176128008 I I #
edge $-1 $184 4.475947663248931 $345 13.988677513135187 $183 $352 forward 7 unknown #
point $-1 -51.180761131626333 -4.475947663248931 7.6784696585239036 #
point $-1 -51.180761131626333 -4.475947663248931 2.7586508460444987 #
edge $-1 $353 1 $353 0 $187 $-1 forward 7 unknown #
vertex $-1 $188 $354 #
ellipse-curve $-1 -45.068458241230758 -11.270754698881969 1.8595014109910792 -0.51503808176128008 0 0.85716729658548041 0.85716729658548041 0 0.51503808176128008 1 I I #
point $-1 -46.229617155916394 -11.270754698881969 5.7335983340454826 #
edge $-1 $355 1 $355 0 $191 $-1 forward 7 unknown #
vertex $-1 $192 $356 #
ellipse-curve $-1 -45.068458241230758 -7.1938704775021449 1.8595014109910792 -0.51503808176128008 0 0.85716729658548041 0.85716729658548041 0 0.51503808176128008 1 I I #
point $-1 -46.229617155916394 -7.1938704775021449 5.7335983340454826 #
plane-surface $-1 51.180761131626333 0 0 -1 0 0 0 0 1 forward_v I I I I #
coedge $-1 $200 $198 $202 $298 reversed $121 $-1 #
edge $-1 $213 -7.6784696585239036 $300 7.6784696585239036 $212 $357 forward 7 unknown #
vertex $-1 $298 $358 #
straight-curve $-1 -51.180761131626333 -24.679288980740452 0 0 0 -1 I I #
edge $-1 $296 -24.679288980740452 $300 24.679288980740452 $294 $359 forward 7 unknown #
straight-curve $-1 0 -24.679288980740452 -7.6784696585239036 -1 0 0 I I #
vertex $-1 $205 $360 #
straight-curve $-1 0 24.679288980740452 -7.6784696585239036 1 0 0 I I #
point $-1 51.180761131626333 24.679288980740452 -7.6784696585239036 #
point $-1 51.180761131626333 -24.679288980740452 -7.6784696585239036 #
straight-curve $-1 -51.180761131626333 0 7.6784696585239036 0 -1 0 I I #
point $-1 -51.180761131626333 24.679288980740452 7.6784696585239036 #
point $-1 -51.180761131626333 -24.679288980740452 7.6784696585239036 #
straight-curve $-1 51.180761131626333 -24.679288980740452 0 0 0 -1 I I #
straight-curve $-1 51.180761131626333 24.679288980740452 0 0 0 -1 I I #
plane-surface $-1 51.180761131626333 0 0 -1 0 0 0 0 1 forward_v I I I I #
coedge $-1 $226 $225 $236 $321 reversed $83 $-1 #
coedge $-1 $361 $229 $226 $312 forward $223 $-1 #
edge $-1 $313 17.698801517293695 $362 24.679288980740452 $226 $363 forward 7 unknown #
vertex $-1 $312 $364 #
straight-curve $-1 -51.180761131626333 -17.698801517293695 3.0892348292619518 0 0 -1 I I #
coedge $-1 $229 $361 $231 $317 forward $223 $-1 #
straight-curve $-1 0 -17.698801517293695 7.6784696585239036 -1 0 0 I I #
edge $-1 $324 -24.679288980740452 $232 -17.698801517293695 $231 $365 forward 7 unknown #
point $-1 51.180761131626333 -17.698801517293695 7.6784696585239036 #
straight-curve $-1 -51.180761131626333 -10.594522624508537 4.6784696585239036 0 -1 0 I I #
coedge $-1 $236 $235 $361 $366 reversed $140 $-1 #
edge $-1 $362 -7.6784696585239036 $237 -4.6784696585239036 $310 $367 forward 7 unknown #
point $-1 -51.180761131626333 -24.679288980740452 4.6784696585239036 #
point $-1 -51.180761131626333 -17.698801517293695 4.6784696585239036 #
vertex $-1 $317 $368 #
straight-curve $-1 51.180761131626333 -24.679288980740452 0 0 0 -1 I I #
plane-surface $-1 0 24.679288980740452 0 0 -1 0 0 0 -1 forward_v I I I I #
coedge $-1 $369 $247 $251 $332 forward $157 $-1 #
coedge $-1 $247 $369 $262 $339 forward $157 $-1 #
vertex $-1 $249 $370 #
straight-curve $-1 0 15.977884159962812 -7.6784696585239036 -1 0 0 I I #
coedge $-1 $251 $250 $257 $337 forward $245 $-1 #
edge $-1 $252 15.977884159962812 $371 24.679288980740452 $251 $372 forward 7 unknown #
point $-1 -51.180761131626333 15.977884159962812 -7.6784696585239036 #
point $-1 -51.180761131626333 15.977884159962812 -4.6784696585239036 #
straight-curve $-1 -51.180761131626333 10.164293285175816 -4.6784696585239036 0 1 0 I I #
coedge $-1 $257 $256 $369 $373 reversed $258 $-1 #
edge $-1 $259 4.6784696585239036 $371 7.6784696585239036 $257 $374 forward 7 unknown #
point $-1 -51.180761131626333 24.679288980740452 -4.6784696585239036 #
edge $-1 $341 -24.679288980740452 $329 -15.977884159962812 $262 $375 forward 7 unknown #
straight-curve $-1 51.180761131626333 15.977884159962812 -3.0892348292619518 0 0 -1 I I #
vertex $-1 $339 $376 #
straight-curve $-1 51.180761131626333 24.679288980740452 0 0 0 -1 I I #
coedge $-1 $278 $277 $270 $344 forward $267 $-1 #
edge $-1 $345 0.76966047050193964 $348 8.9576138287508655 $343 $377 forward 7 unknown #
vertex $-1 $344 $378 #
straight-curve $-1 -51.180761131626333 -13.988677513135187 45.249800079405631 0 0 1 I I #
edge $-1 $348 -9.3725212190391574 $279 0.14020863084709845 $278 $379 forward 7 unknown #
vertex $-1 $347 $380 #
straight-curve $-1 -51.180761131626326 -13.988677513135187 2.7586508460445032 -0.85716729658548041 0 -0.51503808176128008 I I #
point $-1 -51.180761131626333 -13.988677513135187 2.7586508460444987 #
point $-1 -42.992807773377407 -4.475947663248931 7.6784696585239036 #
straight-curve $-1 -51.180761131626333 0 7.6784696585239036 0 -1 0 I I #
vertex $-1 $285 $381 #
point $-1 -44.211290944645278 -11.270754698881969 2.3745394927523593 #
vertex $-1 $289 $382 #
point $-1 -44.211290944645278 -7.1938704775021449 2.3745394927523593 #
straight-curve $-1 -51.180761131626333 24.679288980740452 0 0 0 -1 I I #
point $-1 -51.180761131626333 -24.679288980740452 -7.6784696585239036 #
straight-curve $-1 -51.180761131626333 0 -7.6784696585239036 0 1 0 I I #
point $-1 -51.180761131626333 24.679288980740452 -7.6784696585239036 #
coedge $-1 $315 $311 $320 $366 forward $223 $-1 #
vertex $-1 $312 $383 #
straight-curve $-1 -51.180761131626333 0 7.6784696585239036 0 -1 0 I I #
point $-1 -51.180761131626333 -17.698801517293695 7.6784696585239036 #
straight-curve $-1 51.180761131626333 0 7.6784696585239036 0 1 0 I I #
edge $-1 $362 -51.180761131626333 $324 51.180761131626333 $320 $384 forward 7 unknown #
straight-curve $-1 -51.180761131626333 -24.679288980740452 0 0 0 -1 I I #
point $-1 51.180761131626333 -24.679288980740452 7.6784696585239036 #
coedge $-1 $328 $327 $336 $373 forward $157 $-1 #
point $-1 51.180761131626333 15.977884159962812 -7.6784696585239036 #
vertex $-1 $373 $385 #
straight-curve $-1 -51.180761131626333 0 -7.6784696585239036 0 1 0 I I #
edge $-1 $371 -51.180761131626333 $341 51.180761131626333 $336 $386 forward 7 unknown #
straight-curve $-1 -51.180761131626333 24.679288980740452 0 0 0 -1 I I #
straight-curve $-1 51.180761131626333 0 -7.6784696585239036 0 -1 0 I I #
point $-1 51.180761131626333 24.679288980740452 -7.6784696585239036 #
straight-curve $-1 -51.950421602128273 -13.988677513135187 7.6784696585239018 1 0 0 I I #
point $-1 -51.180761131626333 -13.988677513135187 7.6784696585239036 #
straight-curve $-1 -42.9928077733774 -4.6161562940960295 7.6784696585239036 0 1 0 I I #
point $-1 -42.992807773377407 -13.988677513135187 7.6784696585239036 #
point $-1 -44.553420159469482 -11.270754698881969 1.0023341144055991 #
point $-1 -44.553420159469482 -7.1938704775021449 1.0023341144055991 #
point $-1 -51.180761131626333 -24.679288980740452 7.6784696585239036 #
straight-curve $-1 0 -24.679288980740452 7.6784696585239036 1 0 0 I I #
point $-1 -51.180761131626333 24.679288980740452 -7.6784696585239036 #
straight-curve $-1 0 24.679288980740452 -7.6784696585239036 1 0 0 I I #
End-of-ACIS-data 