500 0 8 0           
7 Unknown 11 ACIS 5.0 NT 24 Fri Mar 26 15:52:11 1999 
-1 9.9999999999999995e-007 1e-010 
body $-1 $8 $-1 $9 #
body $-1 $10 $-1 $11 #
body $-1 $12 $-1 $13 #
body $-1 $14 $-1 $15 #
body $-1 $16 $-1 $17 #
body $-1 $18 $-1 $19 #
body $-1 $20 $-1 $21 #
body $-1 $22 $-1 $23 #
lump $-1 $-1 $24 $0 #
transform $-1 1 0 0 0 1 0 0 0 1 54.985808893093662 31.268931155468593 12.148094744780746 1 rotate no_reflect no_shear #
lump $-1 $-1 $25 $1 #
transform $-1 1 0 0 0 1 0 0 0 1 54.985808893093662 31.268931155468593 12.148094744780746 1 rotate no_reflect no_shear #
lump $-1 $-1 $26 $2 #
transform $-1 1 0 0 0 1 0 0 0 1 54.985808893093662 31.268931155468593 12.148094744780746 1 rotate no_reflect no_shear #
lump $-1 $-1 $27 $3 #
transform $-1 1 0 0 0 1 0 0 0 1 54.985808893093662 31.268931155468593 12.148094744780746 1 rotate no_reflect no_shear #
lump $-1 $-1 $28 $4 #
transform $-1 1 0 0 0 1 0 0 0 1 54.985808893093662 31.268931155468593 12.148094744780746 1 rotate no_reflect no_shear #
lump $-1 $-1 $29 $5 #
transform $-1 1 0 0 0 1 0 0 0 1 54.985808893093662 31.268931155468593 12.148094744780746 1 rotate no_reflect no_shear #
lump $-1 $-1 $30 $6 #
transform $-1 1 0 0 0 1 0 0 0 1 54.985808893093662 31.268931155468593 12.148094744780746 1 rotate no_reflect no_shear #
lump $-1 $-1 $31 $7 #
transform $-1 1 0 0 0 1 0 0 0 1 54.985808893093662 31.268931155468593 12.148094744780746 1 rotate no_reflect no_shear #
shell $-1 $-1 $-1 $32 $-1 $8 #
shell $-1 $-1 $-1 $33 $-1 $10 #
shell $-1 $-1 $-1 $34 $-1 $12 #
shell $-1 $-1 $-1 $35 $-1 $14 #
shell $-1 $-1 $-1 $36 $-1 $16 #
shell $-1 $-1 $-1 $37 $-1 $18 #
shell $-1 $-1 $-1 $38 $-1 $20 #
shell $-1 $-1 $-1 $39 $-1 $22 #
face $-1 $40 $41 $24 $-1 $42 forward single #
face $-1 $43 $44 $25 $-1 $45 reversed single #
face $-1 $46 $47 $26 $-1 $48 reversed single #
face $-1 $49 $50 $27 $-1 $51 forward single #
face $-1 $52 $53 $28 $-1 $54 forward single #
face $-1 $55 $56 $29 $-1 $57 reversed single #
face $-1 $58 $59 $30 $-1 $60 forward single #
face $-1 $61 $62 $31 $-1 $63 forward single #
face $-1 $64 $65 $24 $-1 $66 reversed single #
loop $-1 $-1 $67 $32 #
plane-surface $-1 0 0 12.148094744780746 0 0 1 1 0 0 forward_v I I I I #
face $-1 $68 $69 $25 $-1 $70 reversed single #
loop $-1 $-1 $71 $33 #
plane-surface $-1 -37.046431504516683 -25.011118222540315 0 1 0 0 0 0 -1 forward_v I I I I #
face $-1 $72 $73 $26 $-1 $74 reversed single #
loop $-1 $-1 $75 $34 #
plane-surface $-1 -16.889757009433225 87.46880704888207 119.15647551091455 1 0 0 0 -0.82903758062907751 -0.55919289150049634 forward_v I I I I #
face $-1 $76 $77 $27 $-1 $78 forward single #
loop $-1 $79 $80 $35 #
cone-surface $-1 -12.064112149595161 27.170616664511492 7.6578274018992269 0 -0.82903758062907751 -0.55919289150049634 1.5 0 0 1 I I 0 1 1.5 forward I I I I #
face $-1 $81 $82 $28 $-1 $83 forward single #
loop $-1 $84 $85 $36 #
cone-surface $-1 -4.8256448598380643 27.170616664511492 7.6578274018992269 0 -0.82903758062907751 -0.55919289150049634 1.5 0 0 1 I I 0 1 1.5 forward I I I I #
face $-1 $86 $87 $29 $-1 $88 reversed single #
loop $-1 $-1 $89 $37 #
plane-surface $-1 38.096051883660436 87.46880704888207 119.15647551091455 1 0 0 0 -0.82903758062907751 -0.55919289150049634 forward_v I I I I #
face $-1 $90 $91 $30 $-1 $92 forward single #
loop $-1 $93 $94 $38 #
cone-surface $-1 42.921696743498501 27.170616664511492 7.6578274018992269 0 -0.82903758062907751 -0.55919289150049634 1.5 0 0 1 I I 0 1 1.5 forward I I I I #
face $-1 $95 $96 $31 $-1 $97 forward single #
loop $-1 $98 $99 $39 #
cone-surface $-1 50.160164033255597 27.170616664511492 7.6578274018992269 0 -0.82903758062907751 -0.55919289150049634 1.5 0 0 1 I I 0 1 1.5 forward I I I I #
face $-1 $100 $101 $24 $-1 $102 reversed single #
loop $-1 $-1 $103 $40 #
plane-surface $-1 0 0 -12.148094744780746 0 0 1 1 0 0 forward_v I I I I #
coedge $-1 $104 $105 $106 $107 forward $41 $-1 #
face $-1 $108 $109 $25 $-1 $110 reversed single #
loop $-1 $-1 $111 $43 #
plane-surface $-1 -33.868025454024426 -18.753305289612037 0 0 -1 0 0 0 -1 forward_v I I I I #
coedge $-1 $112 $113 $114 $115 forward $44 $-1 #
face $-1 $116 $117 $26 $-1 $118 reversed single #
loop $-1 $-1 $119 $46 #
plane-surface $-1 -8.4448785047166126 -3.7017968984443002 57.661128578069047 0 0.82903758062907751 0.55919289150049634 1 0 0 forward_v I I I I #
coedge $-1 $120 $121 $122 $123 reversed $47 $-1 #
face $-1 $-1 $124 $27 $-1 $125 forward single #
loop $-1 $126 $127 $49 #
cone-surface $-1 -12.064112149595161 24.586424019158159 5.9147675077350463 0 -0.82903758062907751 -0.55919289150049634 0.75 0 0 1 I I -0.70710678118654757 0.70710678118654757 0.75 forward I I I I #
loop $-1 $-1 $128 $35 #
coedge $-1 $80 $80 $129 $130 reversed $50 $-1 #
face $-1 $-1 $131 $28 $-1 $132 forward single #
loop $-1 $133 $134 $52 #
cone-surface $-1 -4.8256448598380643 24.586424019158159 5.9147675077350463 0 -0.82903758062907751 -0.55919289150049634 0.75 0 0 1 I I -0.70710678118654757 0.70710678118654757 0.75 forward I I I I #
loop $-1 $-1 $135 $36 #
coedge $-1 $85 $85 $136 $137 reversed $53 $-1 #
face $-1 $138 $139 $29 $-1 $140 forward single #
loop $-1 $-1 $141 $55 #
plane-surface $-1 46.540930388377049 -3.7017968984443002 57.661128578069047 0 0.82903758062907751 0.55919289150049634 1 0 0 forward_v I I I I #
coedge $-1 $142 $143 $144 $145 reversed $56 $-1 #
face $-1 $-1 $146 $30 $-1 $147 forward single #
loop $-1 $148 $149 $58 #
cone-surface $-1 42.921696743498501 24.586424019158159 5.9147675077350463 0 -0.82903758062907751 -0.55919289150049634 0.75 0 0 1 I I -0.70710678118654757 0.70710678118654757 0.75 forward I I I I #
loop $-1 $-1 $150 $38 #
coedge $-1 $94 $94 $151 $152 reversed $59 $-1 #
face $-1 $-1 $153 $31 $-1 $154 forward single #
loop $-1 $155 $156 $61 #
cone-surface $-1 50.160164033255597 24.586424019158159 5.9147675077350463 0 -0.82903758062907751 -0.55919289150049634 0.75 0 0 1 I I -0.70710678118654757 0.70710678118654757 0.75 forward I I I I #
loop $-1 $-1 $157 $39 #
coedge $-1 $99 $99 $158 $159 reversed $62 $-1 #
face $-1 $160 $161 $24 $-1 $162 reversed single #
loop $-1 $-1 $163 $64 #
plane-surface $-1 0 -31.268931155468593 0 0 1 0 0 0 1 forward_v I I I I #
coedge $-1 $164 $165 $166 $167 forward $65 $-1 #
coedge $-1 $168 $67 $169 $170 forward $41 $-1 #
coedge $-1 $67 $168 $171 $172 forward $41 $-1 #
coedge $-1 $173 $174 $67 $107 reversed $175 $-1 #
edge $-1 $176 -31.268931155468593 $177 31.268931155468593 $106 $178 forward 7 unknown #
face $-1 $179 $180 $25 $-1 $181 forward single #
loop $-1 $-1 $182 $68 #
plane-surface $-1 -30.68961940353217 -25.011118222540315 0 -1 0 0 0 0 1 forward_v I I I I #
coedge $-1 $183 $184 $185 $186 forward $69 $-1 #
coedge $-1 $187 $71 $188 $189 reversed $44 $-1 #
coedge $-1 $71 $187 $190 $191 reversed $44 $-1 #
coedge $-1 $184 $183 $71 $115 reversed $69 $-1 #
edge $-1 $192 -12.148094744780746 $193 12.148094744780746 $114 $194 forward 7 unknown #
face $-1 $195 $196 $26 $-1 $197 reversed single #
loop $-1 $-1 $198 $72 #
plane-surface $-1 0 87.46880704888207 119.15647551091455 -1 0 0 0 0.82903758062907751 0.55919289150049634 forward_v I I I I #
coedge $-1 $199 $200 $201 $202 reversed $73 $-1 #
coedge $-1 $121 $75 $203 $204 reversed $47 $-1 #
coedge $-1 $75 $120 $199 $205 reversed $47 $-1 #
coedge $-1 $201 $206 $75 $123 forward $207 $-1 #
edge $-1 $208 12.465472368972442 $209 16.737272431123607 $122 $210 forward 7 unknown #
loop $-1 $-1 $129 $76 #
plane-surface $-1 -8.4448785047166126 -3.7017968984443002 57.661128578069047 0 0.82903758062907751 0.55919289150049634 1 0 0 forward_v I I I I #
loop $-1 $-1 $211 $49 #
coedge $-1 $127 $127 $128 $212 reversed $77 $-1 #
coedge $-1 $128 $128 $127 $212 forward $79 $-1 #
coedge $-1 $129 $129 $80 $130 forward $124 $-1 #
edge $-1 $213 1.0741649153592123e-015 $213 6.2831853071796013 $129 $214 forward 7 unknown #
loop $-1 $-1 $136 $81 #
plane-surface $-1 -8.4448785047166126 -3.7017968984443002 57.661128578069047 0 0.82903758062907751 0.55919289150049634 1 0 0 forward_v I I I I #
loop $-1 $-1 $215 $52 #
coedge $-1 $134 $134 $135 $216 reversed $82 $-1 #
coedge $-1 $135 $135 $134 $216 forward $84 $-1 #
coedge $-1 $136 $136 $85 $137 forward $131 $-1 #
edge $-1 $217 1.0741649153592123e-015 $217 6.2831853071796013 $136 $218 forward 7 unknown #
face $-1 $219 $220 $29 $-1 $221 reversed single #
loop $-1 $-1 $144 $86 #
plane-surface $-1 0 0 12.148094744780746 0 0 1 1 0 0 forward_v I I I I #
coedge $-1 $222 $223 $224 $225 reversed $87 $-1 #
coedge $-1 $143 $89 $226 $227 reversed $56 $-1 #
coedge $-1 $89 $142 $222 $228 reversed $56 $-1 #
coedge $-1 $224 $229 $89 $145 forward $139 $-1 #
edge $-1 $230 12.465472368972442 $231 16.737272431123607 $144 $232 forward 7 unknown #
loop $-1 $-1 $151 $90 #
plane-surface $-1 46.540930388377049 -3.7017968984443002 57.661128578069047 0 0.82903758062907751 0.55919289150049634 1 0 0 forward_v I I I I #
loop $-1 $-1 $233 $58 #
coedge $-1 $149 $149 $150 $234 reversed $91 $-1 #
coedge $-1 $150 $150 $149 $234 forward $93 $-1 #
coedge $-1 $151 $151 $94 $152 forward $146 $-1 #
edge $-1 $235 1.0741649153592123e-015 $235 6.2831853071796013 $151 $236 forward 7 unknown #
loop $-1 $-1 $158 $95 #
plane-surface $-1 46.540930388377049 -3.7017968984443002 57.661128578069047 0 0.82903758062907751 0.55919289150049634 1 0 0 forward_v I I I I #
loop $-1 $-1 $237 $61 #
coedge $-1 $156 $156 $157 $238 reversed $96 $-1 #
coedge $-1 $157 $157 $156 $238 forward $98 $-1 #
coedge $-1 $158 $158 $99 $159 forward $153 $-1 #
edge $-1 $239 1.0741649153592123e-015 $239 6.2831853071796013 $158 $240 forward 7 unknown #
face $-1 $241 $242 $24 $-1 $243 reversed single #
loop $-1 $-1 $244 $100 #
plane-surface $-1 -54.985808893093662 0 0 1 0 0 0 0 -1 forward_v I I I I #
coedge $-1 $245 $171 $246 $247 forward $101 $-1 #
coedge $-1 $248 $103 $245 $249 forward $65 $-1 #
coedge $-1 $103 $248 $250 $251 forward $65 $-1 #
coedge $-1 $174 $173 $103 $167 reversed $175 $-1 #
edge $-1 $252 -31.268931155468593 $253 31.268931155468593 $166 $254 forward 7 unknown #
coedge $-1 $105 $104 $255 $256 forward $41 $-1 #
coedge $-1 $257 $258 $104 $170 reversed $242 $-1 #
edge $-1 $177 -54.985808893093662 $259 54.985808893093662 $169 $260 forward 7 unknown #
coedge $-1 $163 $261 $105 $172 reversed $101 $-1 #
edge $-1 $262 -54.985808893093662 $176 54.985808893093662 $171 $263 forward 7 unknown #
coedge $-1 $166 $106 $261 $264 forward $175 $-1 #
coedge $-1 $106 $166 $257 $265 reversed $175 $-1 #
loop $-1 $-1 $173 $241 #
vertex $-1 $107 $266 #
vertex $-1 $107 $267 #
straight-curve $-1 54.985808893093662 0 12.148094744780746 0 1 0 I I #
face $-1 $268 $269 $25 $-1 $270 reversed single #
loop $-1 $-1 $271 $108 #
plane-surface $-1 0 0 12.148094744780746 0 0 1 1 0 0 forward_v I I I I #
coedge $-1 $272 $273 $274 $275 reversed $109 $-1 #
coedge $-1 $114 $111 $276 $277 reversed $69 $-1 #
coedge $-1 $111 $114 $278 $279 reversed $69 $-1 #
coedge $-1 $273 $272 $111 $186 reversed $109 $-1 #
edge $-1 $280 -12.148094744780746 $281 12.148094744780746 $185 $282 forward 7 unknown #
coedge $-1 $113 $112 $283 $284 reversed $44 $-1 #
coedge $-1 $276 $285 $112 $189 forward $269 $-1 #
edge $-1 $286 -18.763372044198434 $193 -6.2477461783418793 $188 $287 forward 7 unknown #
coedge $-1 $288 $278 $113 $191 forward $180 $-1 #
edge $-1 $192 6.2477461783418793 $289 18.763372044198434 $190 $290 forward 7 unknown #
vertex $-1 $191 $291 #
vertex $-1 $189 $292 #
straight-curve $-1 -37.046431504516683 -18.753305289612037 0 0 0 -1 I I #
face $-1 $-1 $207 $26 $-1 $293 forward single #
loop $-1 $-1 $294 $116 #
plane-surface $-1 0 31.268931155468593 0 0 -1 0 0 0 -1 forward_v I I I I #
coedge $-1 $295 $296 $297 $298 reversed $117 $-1 #
coedge $-1 $299 $119 $121 $205 forward $73 $-1 #
coedge $-1 $119 $299 $295 $300 forward $73 $-1 #
coedge $-1 $297 $122 $119 $202 forward $207 $-1 #
edge $-1 $209 -12.667317757074919 $301 4.2224392523583063 $201 $302 forward 7 unknown #
coedge $-1 $303 $304 $120 $204 forward $196 $-1 #
edge $-1 $305 -53.763347245361985 $208 -47.430143010676531 $203 $306 forward 7 unknown #
edge $-1 $209 54.898637765917449 $305 62.537862310937214 $121 $307 forward 7 unknown #
coedge $-1 $122 $297 $303 $308 forward $207 $-1 #
loop $-1 $-1 $297 $195 #
vertex $-1 $204 $309 #
vertex $-1 $123 $310 #
straight-curve $-1 -16.889757009433225 43.734403524441035 12.148094744780749 0 -1 0 I I #
coedge $-1 $211 $211 $-1 $311 reversed $126 $-1 #
edge $-1 $312 0 $312 6.2831853071796004 $127 $313 forward 7 unknown #
vertex $-1 $130 $314 #
ellipse-curve $-1 -12.064112149595161 29.133031124393 8.9814926274380227 0 0.82903758062907751 0.55919289150049634 1.5 0 0 1 I I #
coedge $-1 $215 $215 $-1 $315 reversed $133 $-1 #
edge $-1 $316 0 $316 6.2831853071796004 $134 $317 forward 7 unknown #
vertex $-1 $137 $318 #
ellipse-curve $-1 -4.8256448598380643 29.133031124393 8.9814926274380227 0 0.82903758062907751 0.55919289150049634 1.5 0 0 1 I I #
face $-1 $-1 $319 $29 $-1 $320 reversed single #
loop $-1 $-1 $321 $138 #
plane-surface $-1 54.985808893093662 0 0 -1 0 0 0 0 1 forward_v I I I I #
coedge $-1 $322 $141 $143 $228 forward $87 $-1 #
coedge $-1 $141 $322 $321 $323 reversed $87 $-1 #
coedge $-1 $324 $144 $141 $225 forward $139 $-1 #
edge $-1 $231 14.825586689471912 $325 31.715343698905137 $224 $326 forward 7 unknown #
coedge $-1 $327 $328 $142 $227 forward $319 $-1 #
edge $-1 $329 -53.763347245361985 $230 -47.430143010676531 $226 $330 forward 7 unknown #
edge $-1 $231 54.898637765917449 $329 62.537862310937214 $143 $331 forward 7 unknown #
coedge $-1 $144 $324 $327 $332 forward $139 $-1 #
vertex $-1 $227 $333 #
vertex $-1 $145 $334 #
straight-curve $-1 38.096051883660436 43.734403524441035 12.148094744780749 0 -1 0 I I #
coedge $-1 $233 $233 $-1 $335 reversed $148 $-1 #
edge $-1 $336 0 $336 6.2831853071796004 $149 $337 forward 7 unknown #
vertex $-1 $152 $338 #
ellipse-curve $-1 42.921696743498501 29.133031124393 8.9814926274380227 0 0.82903758062907751 0.55919289150049634 1.5 0 0 1 I I #
coedge $-1 $237 $237 $-1 $339 reversed $155 $-1 #
edge $-1 $340 0 $340 6.2831853071796004 $156 $341 forward 7 unknown #
vertex $-1 $159 $342 #
ellipse-curve $-1 50.160164033255597 29.133031124393 8.9814926274380227 0 0.82903758062907751 0.55919289150049634 1.5 0 0 1 I I #
face $-1 $-1 $175 $24 $-1 $343 reversed single #
loop $-1 $-1 $257 $160 #
plane-surface $-1 0 31.268931155468593 0 0 -1 0 0 0 -1 forward_v I I I I #
coedge $-1 $344 $255 $258 $345 forward $161 $-1 #
coedge $-1 $261 $163 $164 $249 reversed $101 $-1 #
coedge $-1 $255 $344 $163 $247 reversed $161 $-1 #
edge $-1 $262 -12.148094744780746 $346 12.148094744780746 $246 $347 forward 7 unknown #
coedge $-1 $165 $164 $344 $348 forward $65 $-1 #
edge $-1 $253 -54.985808893093662 $346 54.985808893093662 $245 $349 forward 7 unknown #
coedge $-1 $258 $257 $165 $251 reversed $242 $-1 #
edge $-1 $350 -54.985808893093662 $252 54.985808893093662 $250 $351 forward 7 unknown #
vertex $-1 $167 $352 #
vertex $-1 $264 $353 #
straight-curve $-1 54.985808893093662 0 -12.148094744780746 0 -1 0 I I #
coedge $-1 $244 $246 $168 $256 reversed $161 $-1 #
edge $-1 $259 -31.268931155468593 $262 31.268931155468593 $255 $354 forward 7 unknown #
coedge $-1 $250 $169 $174 $265 forward $242 $-1 #
coedge $-1 $169 $250 $244 $345 reversed $242 $-1 #
vertex $-1 $170 $355 #
straight-curve $-1 0 31.268931155468593 12.148094744780746 -1 0 0 I I #
coedge $-1 $171 $245 $173 $264 reversed $101 $-1 #
vertex $-1 $256 $356 #
straight-curve $-1 0 -31.268931155468593 12.148094744780746 1 0 0 I I #
edge $-1 $176 -12.148094744780746 $253 12.148094744780746 $173 $357 forward 7 unknown #
edge $-1 $177 -12.148094744780746 $252 12.148094744780746 $174 $358 forward 7 unknown #
point $-1 54.985808893093662 -31.268931155468593 12.148094744780746 #
point $-1 54.985808893093662 31.268931155468593 12.148094744780746 #
face $-1 $-1 $359 $25 $-1 $360 reversed single #
loop $-1 $-1 $361 $179 #
plane-surface $-1 0 0 -12.148094744780746 0 0 1 1 0 0 forward_v I I I I #
coedge $-1 $278 $288 $273 $362 forward $180 $-1 #
coedge $-1 $185 $182 $361 $363 reversed $109 $-1 #
coedge $-1 $182 $185 $271 $362 reversed $109 $-1 #
coedge $-1 $364 $365 $182 $275 forward $359 $-1 #
edge $-1 $366 -12.148094744780746 $367 12.148094744780746 $274 $368 forward 7 unknown #
coedge $-1 $361 $188 $183 $277 forward $269 $-1 #
edge $-1 $193 -20.11241877750447 $281 -13.755606676519957 $276 $369 forward 7 unknown #
coedge $-1 $190 $271 $184 $279 forward $180 $-1 #
edge $-1 $280 13.755606676519957 $192 20.11241877750447 $278 $370 forward 7 unknown #
vertex $-1 $279 $371 #
vertex $-1 $277 $372 #
straight-curve $-1 -30.68961940353217 -18.753305289612037 0 0 0 -1 I I #
coedge $-1 $365 $364 $187 $284 forward $359 $-1 #
edge $-1 $289 -12.148094744780746 $286 12.148094744780746 $283 $373 forward 7 unknown #
coedge $-1 $188 $361 $365 $374 forward $269 $-1 #
vertex $-1 $189 $375 #
straight-curve $-1 -37.046431504516683 -12.505559111270157 -12.148094744780746 0 1 0 I I #
coedge $-1 $271 $190 $364 $376 forward $180 $-1 #
vertex $-1 $376 $377 #
straight-curve $-1 -37.046431504516683 -12.505559111270157 12.148094744780746 0 -1 0 I I #
point $-1 -37.046431504516683 -18.753305289612037 12.148094744780746 #
point $-1 -37.046431504516683 -18.753305289612037 -12.148094744780746 #
plane-surface $-1 0 0 12.148094744780746 0 0 1 1 0 0 forward_v I I I I #
coedge $-1 $304 $303 $296 $378 forward $196 $-1 #
coedge $-1 $296 $198 $200 $300 reversed $117 $-1 #
coedge $-1 $198 $295 $294 $378 reversed $117 $-1 #
coedge $-1 $206 $201 $198 $298 forward $207 $-1 #
edge $-1 $301 -16.737272431123607 $379 -12.465472368972442 $297 $380 forward 7 unknown #
coedge $-1 $200 $199 $304 $381 reversed $73 $-1 #
edge $-1 $382 -62.537862310937214 $301 -54.898637765917449 $295 $383 forward 7 unknown #
vertex $-1 $202 $384 #
straight-curve $-1 -4.2224392523583063 26.997131093317421 12.148094744780746 1 0 0 I I #
coedge $-1 $294 $203 $206 $308 reversed $196 $-1 #
coedge $-1 $203 $294 $299 $381 forward $196 $-1 #
vertex $-1 $204 $385 #
straight-curve $-1 -16.889757009433225 31.268931155468593 59.578237755457273 0 0 1 I I #
straight-curve $-1 -16.889757009433225 -3.7017968984443002 57.661128578069047 0 0.55919289150049634 -0.82903758062907751 I I #
edge $-1 $379 0 $208 16.889757009433225 $303 $386 forward 7 unknown #
point $-1 -16.889757009433225 31.268931155468593 12.148094744780746 #
point $-1 -16.889757009433225 26.997131093317428 12.148094744780742 #
edge $-1 $387 1 $387 0 $211 $-1 forward 7 unknown #
vertex $-1 $212 $388 #
ellipse-curve $-1 -12.064112149595161 25.208202204629966 6.3341621763604188 0 0.82903758062907751 0.55919289150049634 1.5 0 0 1 I I #
point $-1 -10.564112149595161 29.133031124393021 8.9814926274380351 #
edge $-1 $389 1 $389 0 $215 $-1 forward 7 unknown #
vertex $-1 $216 $390 #
ellipse-curve $-1 -4.8256448598380643 25.208202204629966 6.3341621763604188 0 0.82903758062907751 0.55919289150049634 1.5 0 0 1 I I #
point $-1 -3.3256448598380643 29.133031124393021 8.9814926274380351 #
loop $-1 $-1 $226 $219 #
plane-surface $-1 0 31.268931155468593 0 0 -1 0 0 0 -1 forward_v I I I I #
coedge $-1 $391 $392 $223 $323 forward $220 $-1 #
coedge $-1 $223 $222 $328 $393 reversed $87 $-1 #
edge $-1 $325 29.962007243870872 $394 37.601231788890637 $321 $395 forward 7 unknown #
coedge $-1 $229 $224 $392 $396 forward $139 $-1 #
vertex $-1 $396 $397 #
straight-curve $-1 23.270465194188525 26.997131093317421 12.148094744780746 1 0 0 I I #
coedge $-1 $398 $226 $229 $332 reversed $319 $-1 #
coedge $-1 $226 $398 $322 $393 forward $319 $-1 #
vertex $-1 $227 $399 #
straight-curve $-1 38.096051883660436 31.268931155468593 59.578237755457273 0 0 1 I I #
straight-curve $-1 38.096051883660436 -3.7017968984443002 57.661128578069047 0 0.55919289150049634 -0.82903758062907751 I I #
edge $-1 $400 -54.985808893093662 $230 -38.096051883660436 $327 $401 forward 7 unknown #
point $-1 38.096051883660436 31.268931155468593 12.148094744780746 #
point $-1 38.096051883660436 26.997131093317428 12.148094744780742 #
edge $-1 $402 1 $402 0 $233 $-1 forward 7 unknown #
vertex $-1 $234 $403 #
ellipse-curve $-1 42.921696743498501 25.208202204629966 6.3341621763604188 0 0.82903758062907751 0.55919289150049634 1.5 0 0 1 I I #
point $-1 44.421696743498501 29.133031124393021 8.9814926274380351 #
edge $-1 $404 1 $404 0 $237 $-1 forward 7 unknown #
vertex $-1 $238 $405 #
ellipse-curve $-1 50.160164033255597 25.208202204629966 6.3341621763604188 0 0.82903758062907751 0.55919289150049634 1.5 0 0 1 I I #
point $-1 51.660164033255597 29.133031124393021 8.9814926274380351 #
plane-surface $-1 54.985808893093662 0 0 -1 0 0 0 0 1 forward_v I I I I #
coedge $-1 $246 $244 $248 $348 reversed $161 $-1 #
edge $-1 $259 -12.148094744780746 $350 12.148094744780746 $258 $406 forward 7 unknown #
vertex $-1 $348 $407 #
straight-curve $-1 -54.985808893093662 -31.268931155468593 0 0 0 -1 I I #
edge $-1 $346 -31.268931155468593 $350 31.268931155468593 $344 $408 forward 7 unknown #
straight-curve $-1 0 -31.268931155468593 -12.148094744780746 -1 0 0 I I #
vertex $-1 $251 $409 #
straight-curve $-1 0 31.268931155468593 -12.148094744780746 1 0 0 I I #
point $-1 54.985808893093662 31.268931155468593 -12.148094744780746 #
point $-1 54.985808893093662 -31.268931155468593 -12.148094744780746 #
straight-curve $-1 -54.985808893093662 0 12.148094744780746 0 -1 0 I I #
point $-1 -54.985808893093662 31.268931155468593 12.148094744780746 #
point $-1 -54.985808893093662 -31.268931155468593 12.148094744780746 #
straight-curve $-1 54.985808893093662 -31.268931155468593 0 0 0 -1 I I #
straight-curve $-1 54.985808893093662 31.268931155468593 0 0 0 -1 I I #
loop $-1 $-1 $274 $268 #
plane-surface $-1 0 -31.268931155468593 0 0 1 0 0 0 1 forward_v I I I I #
coedge $-1 $285 $276 $272 $363 forward $269 $-1 #
edge $-1 $367 -18.763372044198434 $280 -6.2477461783418793 $271 $410 forward 7 unknown #
edge $-1 $281 6.2477461783418793 $366 18.763372044198434 $361 $411 forward 7 unknown #
coedge $-1 $283 $274 $288 $376 reversed $359 $-1 #
coedge $-1 $274 $283 $285 $374 reversed $359 $-1 #
vertex $-1 $374 $412 #
vertex $-1 $275 $413 #
straight-curve $-1 -30.68961940353217 -31.268931155468593 0 0 0 1 I I #
straight-curve $-1 -16.934012727012213 -18.753305289612037 -12.148094744780746 1 0 0 I I #
straight-curve $-1 -16.934012727012213 -18.753305289612037 12.148094744780746 -1 0 0 I I #
point $-1 -30.68961940353217 -18.753305289612037 12.148094744780746 #
point $-1 -30.68961940353217 -18.753305289612037 -12.148094744780746 #
straight-curve $-1 -37.046431504516683 -31.268931155468593 0 0 0 -1 I I #
edge $-1 $366 30.68961940353217 $286 37.046431504516683 $365 $414 forward 7 unknown #
point $-1 -37.046431504516683 -31.268931155468593 -12.148094744780746 #
edge $-1 $289 -37.046431504516683 $367 -30.68961940353217 $364 $415 forward 7 unknown #
point $-1 -37.046431504516683 -31.268931155468593 12.148094744780746 #
edge $-1 $379 47.430143010676531 $382 53.763347245361985 $294 $416 forward 7 unknown #
vertex $-1 $308 $417 #
straight-curve $-1 0 43.734403524441035 12.148094744780749 0 1 0 I I #
edge $-1 $382 -4.2224392523583063 $305 12.667317757074919 $304 $418 forward 7 unknown #
vertex $-1 $381 $419 #
straight-curve $-1 0 -3.7017968984443002 57.661128578069047 0 -0.55919289150049634 0.82903758062907751 I I #
point $-1 0 26.997131093317428 12.148094744780742 #
point $-1 -16.889757009433225 31.268931155468593 5.8148905100952888 #
straight-curve $-1 0 31.268931155468593 12.148094744780746 -1 0 0 I I #
vertex $-1 $311 $420 #
point $-1 -10.564112149595161 25.208202204629966 6.3341621763604188 #
vertex $-1 $315 $421 #
point $-1 -3.3256448598380643 25.208202204629966 6.3341621763604188 #
coedge $-1 $392 $321 $398 $422 reversed $220 $-1 #
coedge $-1 $321 $391 $324 $396 reversed $220 $-1 #
edge $-1 $394 -31.715343698905137 $329 -14.825586689471912 $328 $423 forward 7 unknown #
vertex $-1 $323 $424 #
straight-curve $-1 54.985808893093662 10.242589627458459 36.987724741030341 0 0.55919289150049634 -0.82903758062907751 I I #
edge $-1 $325 26.997131093317428 $400 31.268931155468593 $392 $425 forward 7 unknown #
point $-1 54.985808893093662 26.997131093317428 12.148094744780742 #
coedge $-1 $328 $327 $391 $422 forward $319 $-1 #
point $-1 38.096051883660436 31.268931155468593 5.8148905100952888 #
vertex $-1 $396 $426 #
straight-curve $-1 0 31.268931155468593 12.148094744780746 -1 0 0 I I #
vertex $-1 $335 $427 #
point $-1 44.421696743498501 25.208202204629966 6.3341621763604188 #
vertex $-1 $339 $428 #
point $-1 51.660164033255597 25.208202204629966 6.3341621763604188 #
straight-curve $-1 -54.985808893093662 31.268931155468593 0 0 0 -1 I I #
point $-1 -54.985808893093662 -31.268931155468593 -12.148094744780746 #
straight-curve $-1 -54.985808893093662 0 -12.148094744780746 0 1 0 I I #
point $-1 -54.985808893093662 31.268931155468593 -12.148094744780746 #
straight-curve $-1 -30.68961940353217 -12.505559111270157 12.148094744780746 0 1 0 I I #
straight-curve $-1 -30.68961940353217 -12.505559111270157 -12.148094744780746 0 -1 0 I I #
point $-1 -30.68961940353217 -31.268931155468593 -12.148094744780746 #
point $-1 -30.68961940353217 -31.268931155468593 12.148094744780746 #
straight-curve $-1 0 -31.268931155468593 -12.148094744780746 -1 0 0 I I #
straight-curve $-1 0 -31.268931155468593 12.148094744780746 1 0 0 I I #
straight-curve $-1 0 31.268931155468593 59.578237755457273 0 0 -1 I I #
point $-1 0 31.268931155468593 12.148094744780746 #
straight-curve $-1 -4.2224392523583063 31.268931155468593 5.8148905100952888 -1 0 0 I I #
point $-1 0 31.268931155468593 5.8148905100952888 #
point $-1 -12.064112149595161 23.964645833686351 5.4953728391096739 #
point $-1 -4.8256448598380643 23.964645833686351 5.4953728391096739 #
edge $-1 $400 -12.148094744780746 $394 -5.8148905100952888 $391 $429 forward 7 unknown #
straight-curve $-1 23.270465194188525 31.268931155468593 5.8148905100952888 -1 0 0 I I #
point $-1 54.985808893093662 31.268931155468593 5.8148905100952888 #
straight-curve $-1 54.985808893093662 0 12.148094744780746 0 1 0 I I #
point $-1 54.985808893093662 31.268931155468593 12.148094744780746 #
point $-1 42.921696743498501 23.964645833686351 5.4953728391096739 #
point $-1 50.160164033255597 23.964645833686351 5.4953728391096739 #
straight-curve $-1 54.985808893093662 31.268931155468593 0 0 0 -1 I I #
End-of-ACIS-data 