500 0 9 0           
7 Unknown 11 ACIS 5.0 NT 24 Thu Mar 25 17:58:02 1999 
-1 9.9999999999999995e-007 1e-010 
body $-1 $9 $-1 $10 #
body $-1 $11 $-1 $12 #
body $-1 $13 $-1 $14 #
body $-1 $15 $-1 $16 #
body $-1 $17 $-1 $18 #
body $-1 $19 $-1 $20 #
body $-1 $21 $-1 $22 #
body $-1 $23 $-1 $24 #
body $-1 $25 $-1 $26 #
lump $-1 $-1 $27 $0 #
transform $-1 1 0 0 0 1 0 0 0 1 42.263252662739951 22.088021541472266 5.5005355075612519 1 rotate no_reflect no_shear #
lump $-1 $-1 $28 $1 #
transform $-1 1 0 0 0 1 0 0 0 1 42.263252662739951 22.088021541472266 5.5005355075612519 1 rotate no_reflect no_shear #
lump $-1 $-1 $29 $2 #
transform $-1 1 0 0 0 1 0 0 0 1 42.263252662739951 22.088021541472266 5.5005355075612519 1 rotate no_reflect no_shear #
lump $-1 $-1 $30 $3 #
transform $-1 1 0 0 0 1 0 0 0 1 42.263252662739951 22.088021541472266 5.5005355075612519 1 rotate no_reflect no_shear #
lump $-1 $-1 $31 $4 #
transform $-1 1 0 0 0 1 0 0 0 1 42.263252662739951 22.088021541472266 5.5005355075612519 1 rotate no_reflect no_shear #
lump $-1 $-1 $32 $5 #
transform $-1 1 0 0 0 1 0 0 0 1 42.263252662739951 22.088021541472266 5.5005355075612519 1 rotate no_reflect no_shear #
lump $-1 $-1 $33 $6 #
transform $-1 1 0 0 0 1 0 0 0 1 42.263252662739951 22.088021541472266 5.5005355075612519 1 rotate no_reflect no_shear #
lump $-1 $-1 $34 $7 #
transform $-1 1 0 0 0 1 0 0 0 1 42.263252662739951 22.088021541472266 5.5005355075612519 1 rotate no_reflect no_shear #
lump $-1 $-1 $35 $8 #
transform $-1 1 0 0 0 1 0 0 0 1 42.263252662739951 22.088021541472266 5.5005355075612519 1 rotate no_reflect no_shear #
shell $-1 $-1 $-1 $36 $-1 $9 #
shell $-1 $-1 $-1 $37 $-1 $11 #
shell $-1 $-1 $-1 $38 $-1 $13 #
shell $-1 $-1 $-1 $39 $-1 $15 #
shell $-1 $-1 $-1 $40 $-1 $17 #
shell $-1 $-1 $-1 $41 $-1 $19 #
shell $-1 $-1 $-1 $42 $-1 $21 #
shell $-1 $-1 $-1 $43 $-1 $23 #
shell $-1 $-1 $-1 $44 $-1 $25 #
face $-1 $45 $46 $27 $-1 $47 forward single #
face $-1 $48 $49 $28 $-1 $50 forward single #
face $-1 $51 $52 $29 $-1 $53 reversed single #
face $-1 $54 $55 $30 $-1 $56 forward single #
face $-1 $57 $58 $31 $-1 $59 reversed single #
face $-1 $60 $61 $32 $-1 $62 forward single #
face $-1 $63 $64 $33 $-1 $65 reversed single #
face $-1 $66 $67 $34 $-1 $68 forward single #
face $-1 $69 $70 $35 $-1 $71 forward single #
face $-1 $72 $73 $27 $-1 $74 reversed single #
loop $-1 $-1 $75 $36 #
plane-surface $-1 0 0 5.5005355075612519 0 0 1 1 0 0 forward_v I I I I #
face $-1 $76 $77 $28 $-1 $78 reversed single #
loop $-1 $-1 $79 $37 #
plane-surface $-1 -42.263252662739951 0 0 1 0 0 0 0 -1 forward_v I I I I #
face $-1 $80 $81 $29 $-1 $82 reversed single #
loop $-1 $-1 $83 $38 #
plane-surface $-1 -13.428991165422467 45.818096476482317 92.605136137582448 1 0 0 0 -0.66913061440640931 -0.74314481823134659 forward_v I I I I #
face $-1 $84 $85 $30 $-1 $86 forward single #
loop $-1 $87 $88 $39 #
cone-surface $-1 -4.9545214653620206 17.698795621268072 1.2410177184177407 0 -0.66913061440640931 -0.74314481823134659 1.5 0 0 1 I I 0 1 1.5 forward I I I I #
face $-1 $89 $90 $31 $-1 $91 reversed single #
loop $-1 $-1 $92 $40 #
plane-surface $-1 25.314313262619052 45.818096476482317 92.605136137582448 1 0 0 0 -0.66913061440640931 -0.74314481823134659 forward_v I I I I #
face $-1 $93 $94 $32 $-1 $95 forward single #
loop $-1 $96 $97 $41 #
cone-surface $-1 33.788782962679498 17.698795621268072 1.2410177184177407 0 -0.66913061440640931 -0.74314481823134659 1.5 0 0 1 I I 0 1 1.5 forward I I I I #
face $-1 $98 $99 $33 $-1 $100 reversed single #
loop $-1 $-1 $101 $42 #
plane-surface $-1 2.042816018736584 -87.777454490721055 54.338941770458767 -1 0 0 0 -0.77714596973225614 0.62932038083071107 forward_v I I I I #
face $-1 $102 $103 $34 $-1 $104 forward single #
loop $-1 $105 $106 $43 #
cone-surface $-1 -14.274981609848577 -19.26572717483716 2.4653369327701506 0 0.77714596973225614 -0.62932038083071107 1 0 0 1 I I 0 1 1 forward I I I I #
face $-1 $107 $108 $35 $-1 $109 forward single #
loop $-1 $110 $111 $44 #
cone-surface $-1 -4.4843030326974755 -19.26572717483716 2.4653369327701506 0 0.77714596973225614 -0.62932038083071107 1 0 0 1 I I 0 1 1 forward I I I I #
face $-1 $112 $113 $27 $-1 $114 reversed single #
loop $-1 $-1 $115 $45 #
plane-surface $-1 0 0 -5.5005355075612519 0 0 1 1 0 0 forward_v I I I I #
coedge $-1 $116 $117 $118 $119 forward $46 $-1 #
face $-1 $120 $121 $28 $-1 $122 reversed single #
loop $-1 $-1 $123 $48 #
plane-surface $-1 0 22.088021541472266 0 0 -1 0 0 0 -1 forward_v I I I I #
coedge $-1 $124 $125 $126 $127 forward $49 $-1 #
face $-1 $128 $129 $29 $-1 $130 reversed single #
loop $-1 $-1 $131 $51 #
plane-surface $-1 -4.9545214653620206 -10.741175965582677 29.789701701747738 0 0.66913061440640931 0.74314481823134659 1 0 0 forward_v I I I I #
coedge $-1 $132 $133 $134 $135 reversed $52 $-1 #
face $-1 $-1 $136 $30 $-1 $137 forward single #
loop $-1 $138 $139 $54 #
cone-surface $-1 -4.9545214653620206 15.734394812503602 -0.9406703564251826 0 -0.66913061440640931 -0.74314481823134659 0.75 0 0 1 I I -0.70710678118654757 0.70710678118654757 0.75 forward I I I I #
loop $-1 $-1 $140 $39 #
coedge $-1 $88 $88 $141 $142 reversed $55 $-1 #
face $-1 $143 $144 $31 $-1 $145 forward single #
loop $-1 $-1 $146 $57 #
plane-surface $-1 33.788782962679498 -10.741175965582677 29.789701701747738 0 0.66913061440640931 0.74314481823134659 1 0 0 forward_v I I I I #
coedge $-1 $147 $148 $149 $150 reversed $58 $-1 #
face $-1 $-1 $151 $32 $-1 $152 forward single #
loop $-1 $153 $154 $60 #
cone-surface $-1 33.788782962679498 15.734394812503602 -0.9406703564251826 0 -0.66913061440640931 -0.74314481823134659 0.75 0 0 1 I I -0.70710678118654757 0.70710678118654757 0.75 forward I I I I #
loop $-1 $-1 $155 $41 #
coedge $-1 $97 $97 $156 $157 reversed $61 $-1 #
face $-1 $158 $159 $33 $-1 $160 reversed single #
loop $-1 $-1 $161 $63 #
plane-surface $-1 -9.3796423212730318 -22.088021541472258 1.1446892487386293 0 -0.77714596973225614 0.62932038083071107 1 0 0 forward_v I I I I #
coedge $-1 $162 $163 $164 $165 reversed $64 $-1 #
face $-1 $-1 $166 $34 $-1 $167 forward single #
loop $-1 $168 $169 $66 #
cone-surface $-1 -14.274981609848577 -17.818507151640731 1.2934012969750039 0 0.77714596973225614 -0.62932038083071107 0.5 0 0 1 I I -0.70710678118654746 0.70710678118654746 0.5 forward I I I I #
loop $-1 $-1 $170 $43 #
coedge $-1 $106 $106 $171 $172 reversed $67 $-1 #
face $-1 $-1 $173 $35 $-1 $174 forward single #
loop $-1 $175 $176 $69 #
cone-surface $-1 -4.4843030326974755 -17.818507151640731 1.2934012969750039 0 0.77714596973225614 -0.62932038083071107 0.5 0 0 1 I I -0.70710678118654746 0.70710678118654746 0.5 forward I I I I #
loop $-1 $-1 $177 $44 #
coedge $-1 $111 $111 $178 $179 reversed $70 $-1 #
face $-1 $180 $181 $27 $-1 $182 reversed single #
loop $-1 $-1 $183 $72 #
plane-surface $-1 0 -22.088021541472266 0 0 1 0 0 0 1 forward_v I I I I #
coedge $-1 $184 $185 $186 $187 forward $73 $-1 #
coedge $-1 $188 $75 $189 $190 forward $46 $-1 #
coedge $-1 $75 $188 $191 $192 forward $46 $-1 #
coedge $-1 $193 $194 $75 $119 reversed $195 $-1 #
edge $-1 $196 -22.088021541472266 $197 22.088021541472266 $118 $198 forward 7 unknown #
face $-1 $199 $200 $28 $-1 $201 reversed single #
loop $-1 $-1 $126 $76 #
plane-surface $-1 -45.783200897438377 0 2.5005355075612519 0 0 1 1 0 0 forward_v I I I I #
coedge $-1 $202 $203 $124 $204 forward $77 $-1 #
coedge $-1 $205 $79 $123 $204 reversed $49 $-1 #
coedge $-1 $79 $205 $206 $207 reversed $49 $-1 #
coedge $-1 $208 $209 $79 $127 reversed $121 $-1 #
edge $-1 $210 -22.088021541472266 $211 22.088021541472266 $126 $212 forward 7 unknown #
face $-1 $213 $214 $29 $-1 $215 forward single #
loop $-1 $-1 $216 $80 #
plane-surface $-1 3.5199482346984254 45.818096476482317 92.605136137582448 -1 0 0 0 0.66913061440640931 0.74314481823134659 forward_v I I I I #
coedge $-1 $217 $218 $219 $220 reversed $81 $-1 #
coedge $-1 $133 $83 $221 $222 reversed $52 $-1 #
coedge $-1 $83 $132 $217 $223 reversed $52 $-1 #
coedge $-1 $219 $224 $83 $135 forward $214 $-1 #
edge $-1 $225 0.82102669676889306 $226 6.6743728412579522 $134 $227 forward 7 unknown #
loop $-1 $-1 $141 $84 #
plane-surface $-1 -4.9545214653620206 -10.741175965582677 29.789701701747738 0 0.66913061440640931 0.74314481823134659 1 0 0 forward_v I I I I #
loop $-1 $-1 $228 $54 #
coedge $-1 $139 $139 $140 $229 reversed $85 $-1 #
coedge $-1 $140 $140 $139 $229 forward $87 $-1 #
coedge $-1 $141 $141 $88 $142 forward $136 $-1 #
edge $-1 $230 2.2801607655897391e-017 $230 6.2831853071796004 $141 $231 forward 7 unknown #
face $-1 $232 $233 $31 $-1 $234 reversed single #
loop $-1 $-1 $149 $89 #
plane-surface $-1 0 0 5.5005355075612519 0 0 1 1 0 0 forward_v I I I I #
coedge $-1 $235 $236 $237 $238 reversed $90 $-1 #
coedge $-1 $148 $92 $239 $240 reversed $58 $-1 #
coedge $-1 $92 $147 $235 $241 reversed $58 $-1 #
coedge $-1 $237 $242 $92 $150 forward $144 $-1 #
edge $-1 $243 0.82102669676889306 $244 6.6743728412579522 $149 $245 forward 7 unknown #
loop $-1 $-1 $156 $93 #
plane-surface $-1 33.788782962679498 -10.741175965582677 29.789701701747738 0 0.66913061440640931 0.74314481823134659 1 0 0 forward_v I I I I #
loop $-1 $-1 $246 $60 #
coedge $-1 $154 $154 $155 $247 reversed $94 $-1 #
coedge $-1 $155 $155 $154 $247 forward $96 $-1 #
coedge $-1 $156 $156 $97 $157 forward $151 $-1 #
edge $-1 $248 2.2801607655897391e-017 $248 6.2831853071796004 $156 $249 forward 7 unknown #
face $-1 $250 $251 $33 $-1 $252 reversed single #
loop $-1 $-1 $253 $98 #
plane-surface $-1 -20.802100661282648 -87.777454490721055 54.338941770458767 1 0 0 0 0.77714596973225614 -0.62932038083071107 forward_v I I I I #
coedge $-1 $254 $255 $256 $257 reversed $99 $-1 #
coedge $-1 $163 $101 $258 $259 reversed $64 $-1 #
coedge $-1 $101 $162 $254 $260 reversed $64 $-1 #
coedge $-1 $256 $261 $101 $165 forward $262 $-1 #
edge $-1 $263 21.800705703888262 $264 25.328000360497878 $164 $265 forward 7 unknown #
loop $-1 $-1 $171 $102 #
plane-surface $-1 -9.3796423212730318 -22.088021541472258 1.1446892487386293 0 -0.77714596973225614 0.62932038083071107 1 0 0 forward_v I I I I #
loop $-1 $-1 $266 $66 #
coedge $-1 $169 $169 $170 $267 reversed $103 $-1 #
coedge $-1 $170 $170 $169 $267 forward $105 $-1 #
coedge $-1 $171 $171 $106 $172 forward $166 $-1 #
edge $-1 $268 -1.0203688542848324e-015 $268 6.2831853071795996 $171 $269 forward 7 unknown #
loop $-1 $-1 $178 $107 #
plane-surface $-1 -9.3796423212730318 -22.088021541472258 1.1446892487386293 0 -0.77714596973225614 0.62932038083071107 1 0 0 forward_v I I I I #
loop $-1 $-1 $270 $69 #
coedge $-1 $176 $176 $177 $271 reversed $108 $-1 #
coedge $-1 $177 $177 $176 $271 forward $110 $-1 #
coedge $-1 $178 $178 $111 $179 forward $173 $-1 #
edge $-1 $272 -1.0203688542848324e-015 $272 6.2831853071795996 $178 $273 forward 7 unknown #
face $-1 $274 $275 $27 $-1 $276 reversed single #
loop $-1 $-1 $277 $112 #
plane-surface $-1 -42.263252662739951 0 0 1 0 0 0 0 -1 forward_v I I I I #
coedge $-1 $278 $191 $279 $280 forward $113 $-1 #
coedge $-1 $281 $115 $278 $282 forward $73 $-1 #
coedge $-1 $115 $281 $283 $284 forward $73 $-1 #
coedge $-1 $194 $193 $115 $187 reversed $195 $-1 #
edge $-1 $285 -22.088021541472266 $286 22.088021541472266 $186 $287 forward 7 unknown #
coedge $-1 $117 $116 $288 $289 forward $46 $-1 #
coedge $-1 $290 $291 $116 $190 reversed $275 $-1 #
edge $-1 $197 -42.263252662739951 $292 42.263252662739951 $189 $293 forward 7 unknown #
coedge $-1 $183 $294 $117 $192 reversed $113 $-1 #
edge $-1 $295 -42.263252662739951 $196 42.263252662739951 $191 $296 forward 7 unknown #
coedge $-1 $186 $118 $294 $297 forward $195 $-1 #
coedge $-1 $118 $186 $290 $298 reversed $195 $-1 #
loop $-1 $-1 $193 $274 #
vertex $-1 $119 $299 #
vertex $-1 $119 $300 #
straight-curve $-1 42.263252662739951 0 5.5005355075612519 0 1 0 I I #
face $-1 $301 $302 $28 $-1 $303 forward single #
loop $-1 $-1 $304 $120 #
plane-surface $-1 -49.303149132136802 0 4.0005355075612519 1 0 0 0 0 -1 forward_v I I I I #
coedge $-1 $305 $123 $209 $306 reversed $77 $-1 #
coedge $-1 $123 $305 $307 $308 reversed $77 $-1 #
edge $-1 $309 -5.5005355075612519 $211 -2.5005355075612519 $123 $310 forward 7 unknown #
coedge $-1 $125 $124 $311 $312 reversed $49 $-1 #
coedge $-1 $313 $314 $125 $207 forward $315 $-1 #
edge $-1 $210 2.5005355075612519 $316 5.5005355075612519 $206 $317 forward 7 unknown #
coedge $-1 $318 $126 $314 $319 forward $121 $-1 #
coedge $-1 $126 $318 $202 $306 forward $121 $-1 #
vertex $-1 $207 $320 #
vertex $-1 $204 $321 #
straight-curve $-1 -42.263252662739951 0 2.5005355075612519 0 1 0 I I #
face $-1 $-1 $322 $29 $-1 $323 reversed single #
loop $-1 $-1 $134 $128 #
plane-surface $-1 0 0 5.5005355075612519 0 0 1 1 0 0 forward_v I I I I #
coedge $-1 $324 $325 $326 $327 reversed $129 $-1 #
coedge $-1 $328 $131 $133 $223 forward $81 $-1 #
coedge $-1 $131 $328 $324 $329 forward $81 $-1 #
coedge $-1 $326 $134 $131 $220 forward $214 $-1 #
edge $-1 $226 -10.951730432741456 $330 5.9972089673794358 $219 $331 forward 7 unknown #
coedge $-1 $332 $333 $132 $222 forward $322 $-1 #
edge $-1 $334 -46.072409217178162 $225 -40.802032561229971 $221 $335 forward 7 unknown #
edge $-1 $226 36.299588856405236 $334 44.176043082944517 $133 $336 forward 7 unknown #
coedge $-1 $134 $326 $332 $337 forward $214 $-1 #
vertex $-1 $222 $338 #
vertex $-1 $135 $339 #
straight-curve $-1 -13.428991165422467 22.909048238241159 5.5005355075612528 0 -1 0 I I #
coedge $-1 $228 $228 $-1 $340 reversed $138 $-1 #
edge $-1 $341 0 $341 6.2831853071796004 $139 $342 forward 7 unknown #
vertex $-1 $142 $343 #
ellipse-curve $-1 -4.9545214653620206 19.161348469227736 2.8653471795871575 0 0.66913061440640931 0.74314481823134659 1.5 0 0 1 I I #
face $-1 $-1 $344 $31 $-1 $345 reversed single #
loop $-1 $-1 $239 $143 #
plane-surface $-1 0 22.088021541472266 0 0 -1 0 0 0 -1 forward_v I I I I #
coedge $-1 $346 $146 $148 $241 forward $90 $-1 #
coedge $-1 $146 $346 $347 $348 reversed $90 $-1 #
coedge $-1 $349 $149 $146 $238 forward $144 $-1 #
edge $-1 $244 8.419921781279303 $350 25.368861181400195 $237 $351 forward 7 unknown #
coedge $-1 $352 $353 $147 $240 forward $233 $-1 #
edge $-1 $354 -46.072409217178162 $243 -40.802032561229971 $239 $355 forward 7 unknown #
edge $-1 $244 36.299588856405236 $354 44.176043082944517 $148 $356 forward 7 unknown #
coedge $-1 $149 $349 $352 $357 forward $144 $-1 #
vertex $-1 $150 $358 #
vertex $-1 $150 $359 #
straight-curve $-1 25.314313262619052 22.909048238241159 5.5005355075612528 0 -1 0 I I #
coedge $-1 $246 $246 $-1 $360 reversed $153 $-1 #
edge $-1 $361 0 $361 6.2831853071796004 $154 $362 forward 7 unknown #
vertex $-1 $157 $363 #
ellipse-curve $-1 33.788782962679498 19.161348469227736 2.8653471795871575 0 0.66913061440640931 0.74314481823134659 1.5 0 0 1 I I #
face $-1 $-1 $262 $33 $-1 $364 forward single #
loop $-1 $-1 $365 $158 #
plane-surface $-1 0 -22.088021541472266 0 0 1 0 0 0 1 forward_v I I I I #
coedge $-1 $366 $367 $368 $369 reversed $159 $-1 #
coedge $-1 $370 $161 $163 $260 forward $99 $-1 #
coedge $-1 $161 $370 $366 $371 forward $99 $-1 #
coedge $-1 $368 $164 $161 $257 forward $262 $-1 #
edge $-1 $264 -6.7326371793730999 $372 16.112279500646132 $256 $373 forward 7 unknown #
coedge $-1 $374 $375 $162 $259 forward $251 $-1 #
edge $-1 $376 -26.024781636490765 $263 -21.668935377668131 $258 $377 forward 7 unknown #
edge $-1 $264 -5.6049267814170181 $376 1.1374033043381581e-014 $163 $378 forward 7 unknown #
coedge $-1 $164 $368 $374 $379 forward $262 $-1 #
loop $-1 $-1 $368 $250 #
vertex $-1 $259 $380 #
vertex $-1 $165 $381 #
straight-curve $-1 2.042816018736584 -43.888727245360528 5.5005355075612528 0 1 0 I I #
coedge $-1 $266 $266 $-1 $382 reversed $168 $-1 #
edge $-1 $383 0 $383 6.2831853071796004 $169 $384 forward 7 unknown #
vertex $-1 $172 $385 #
ellipse-curve $-1 -14.274981609848577 -20.324374213167456 3.3226123781499375 0 -0.77714596973225614 0.62932038083071107 1 0 0 1 I I #
coedge $-1 $270 $270 $-1 $386 reversed $175 $-1 #
edge $-1 $387 0 $387 6.2831853071796004 $176 $388 forward 7 unknown #
vertex $-1 $179 $389 #
ellipse-curve $-1 -4.4843030326974755 -20.324374213167456 3.3226123781499375 0 -0.77714596973225614 0.62932038083071107 1 0 0 1 I I #
face $-1 $-1 $195 $27 $-1 $390 reversed single #
loop $-1 $-1 $290 $180 #
plane-surface $-1 0 22.088021541472266 0 0 -1 0 0 0 -1 forward_v I I I I #
coedge $-1 $391 $288 $291 $392 forward $181 $-1 #
coedge $-1 $294 $183 $184 $282 reversed $113 $-1 #
coedge $-1 $288 $391 $183 $280 reversed $181 $-1 #
edge $-1 $295 -5.5005355075612519 $393 5.5005355075612519 $279 $394 forward 7 unknown #
coedge $-1 $185 $184 $391 $395 forward $73 $-1 #
edge $-1 $286 -42.263252662739951 $393 42.263252662739951 $278 $396 forward 7 unknown #
coedge $-1 $291 $290 $185 $284 reversed $275 $-1 #
edge $-1 $397 -42.263252662739951 $285 42.263252662739951 $283 $398 forward 7 unknown #
vertex $-1 $187 $399 #
vertex $-1 $297 $400 #
straight-curve $-1 42.263252662739951 0 -5.5005355075612519 0 -1 0 I I #
coedge $-1 $277 $279 $188 $289 reversed $181 $-1 #
edge $-1 $292 -22.088021541472266 $295 22.088021541472266 $288 $401 forward 7 unknown #
coedge $-1 $283 $189 $194 $298 forward $275 $-1 #
coedge $-1 $189 $283 $277 $392 reversed $275 $-1 #
vertex $-1 $190 $402 #
straight-curve $-1 0 22.088021541472266 5.5005355075612519 -1 0 0 I I #
coedge $-1 $191 $278 $193 $297 reversed $113 $-1 #
vertex $-1 $289 $403 #
straight-curve $-1 0 -22.088021541472266 5.5005355075612519 1 0 0 I I #
edge $-1 $196 -5.5005355075612519 $286 5.5005355075612519 $193 $404 forward 7 unknown #
edge $-1 $197 -5.5005355075612519 $285 5.5005355075612519 $194 $405 forward 7 unknown #
point $-1 42.263252662739951 -22.088021541472266 5.5005355075612519 #
point $-1 42.263252662739951 22.088021541472266 5.5005355075612519 #
face $-1 $-1 $315 $28 $-1 $406 reversed single #
loop $-1 $-1 $311 $199 #
plane-surface $-1 0 0 5.5005355075612519 0 0 1 1 0 0 forward_v I I I I #
coedge $-1 $407 $408 $305 $409 forward $200 $-1 #
coedge $-1 $203 $202 $304 $409 reversed $77 $-1 #
edge $-1 $410 -3.5199482346984254 $211 3.5199482346984254 $202 $411 forward 7 unknown #
coedge $-1 $412 $311 $203 $308 forward $302 $-1 #
edge $-1 $309 42.263252662739951 $413 49.303149132136802 $203 $414 forward 7 unknown #
vertex $-1 $308 $415 #
straight-curve $-1 -42.263252662739951 22.088021541472266 0 0 0 -1 I I #
coedge $-1 $307 $416 $205 $312 forward $302 $-1 #
edge $-1 $316 -22.088021541472266 $309 22.088021541472266 $311 $417 forward 7 unknown #
coedge $-1 $418 $206 $416 $419 reversed $315 $-1 #
coedge $-1 $206 $418 $208 $319 reversed $315 $-1 #
loop $-1 $-1 $206 $301 #
vertex $-1 $207 $420 #
straight-curve $-1 -42.263252662739951 -22.088021541472266 0 0 0 1 I I #
coedge $-1 $209 $208 $407 $421 forward $121 $-1 #
edge $-1 $210 -3.5199482346984254 $422 3.5199482346984254 $314 $423 forward 7 unknown #
point $-1 -42.263252662739951 -22.088021541472266 2.5005355075612519 #
point $-1 -42.263252662739951 22.088021541472266 2.5005355075612519 #
loop $-1 $-1 $221 $213 #
plane-surface $-1 0 22.088021541472266 0 0 -1 0 0 0 -1 forward_v I I I I #
coedge $-1 $325 $216 $218 $329 reversed $129 $-1 #
coedge $-1 $216 $324 $424 $425 reversed $129 $-1 #
coedge $-1 $224 $219 $216 $327 forward $214 $-1 #
edge $-1 $330 -6.6743728412579522 $426 -0.82102669676889306 $326 $427 forward 7 unknown #
coedge $-1 $218 $217 $333 $428 reversed $81 $-1 #
edge $-1 $429 -44.176043082944517 $330 -36.299588856405236 $324 $430 forward 7 unknown #
vertex $-1 $220 $431 #
straight-curve $-1 -2.4772607326810103 16.23467539698321 5.5005355075612492 1 0 0 I I #
coedge $-1 $424 $221 $224 $337 reversed $322 $-1 #
coedge $-1 $221 $424 $328 $428 forward $322 $-1 #
vertex $-1 $222 $432 #
straight-curve $-1 -13.428991165422467 22.088021541472266 46.302568068791224 0 0 1 I I #
straight-curve $-1 -13.428991165422467 -10.741175965582677 29.789701701747738 0 0.74314481823134659 -0.66913061440640931 I I #
edge $-1 $426 -3.5199482346984254 $225 13.428991165422467 $332 $433 forward 7 unknown #
point $-1 -13.428991165422467 22.088021541472266 5.5005355075612519 #
point $-1 -13.428991165422467 16.234675396983206 5.5005355075612528 #
edge $-1 $434 1 $434 0 $228 $-1 forward 7 unknown #
vertex $-1 $229 $435 #
ellipse-curve $-1 -4.9545214653620206 16.236242773308408 -0.38331174275167268 0 0.66913061440640931 0.74314481823134659 1.5 0 0 1 I I #
point $-1 -3.4545214653620206 19.161348469227732 2.8653471795871535 #
loop $-1 $-1 $347 $232 #
plane-surface $-1 42.263252662739951 0 0 -1 0 0 0 0 1 forward_v I I I I #
coedge $-1 $236 $235 $353 $436 reversed $90 $-1 #
coedge $-1 $437 $438 $236 $348 forward $344 $-1 #
edge $-1 $350 22.341863524801248 $439 30.218317751340535 $347 $440 forward 7 unknown #
coedge $-1 $242 $237 $438 $441 forward $144 $-1 #
vertex $-1 $441 $442 #
straight-curve $-1 16.894391481339749 16.23467539698321 5.5005355075612492 1 0 0 I I #
coedge $-1 $443 $239 $242 $357 reversed $233 $-1 #
coedge $-1 $239 $443 $346 $436 forward $233 $-1 #
vertex $-1 $240 $444 #
straight-curve $-1 25.314313262619052 22.088021541472266 46.302568068791224 0 0 1 I I #
straight-curve $-1 25.314313262619052 -10.741175965582677 29.789701701747738 0 0.74314481823134659 -0.66913061440640931 I I #
edge $-1 $445 -42.263252662739951 $243 -25.314313262619052 $352 $446 forward 7 unknown #
point $-1 25.314313262619052 22.088021541472266 5.5005355075612519 #
point $-1 25.314313262619052 16.234675396983206 5.5005355075612528 #
edge $-1 $447 1 $447 0 $246 $-1 forward 7 unknown #
vertex $-1 $247 $448 #
ellipse-curve $-1 33.788782962679498 16.236242773308408 -0.38331174275167268 0 0.66913061440640931 0.74314481823134659 1.5 0 0 1 I I #
point $-1 35.288782962679498 19.161348469227732 2.8653471795871535 #
plane-surface $-1 0 0 5.5005355075612519 0 0 1 1 0 0 forward_v I I I I #
coedge $-1 $375 $374 $367 $449 forward $251 $-1 #
coedge $-1 $367 $253 $255 $371 reversed $159 $-1 #
coedge $-1 $253 $366 $365 $449 reversed $159 $-1 #
coedge $-1 $261 $256 $253 $369 forward $262 $-1 #
edge $-1 $372 -25.328000360497878 $450 -21.800705703888262 $368 $451 forward 7 unknown #
coedge $-1 $255 $254 $375 $452 reversed $99 $-1 #
edge $-1 $453 -1.1374033043381581e-014 $372 5.6049267814170181 $366 $454 forward 7 unknown #
vertex $-1 $257 $455 #
straight-curve $-1 -4.6898211606365159 -18.560726884862646 5.5005355075612519 -1 0 0 I I #
coedge $-1 $365 $258 $261 $379 reversed $251 $-1 #
coedge $-1 $258 $365 $370 $452 forward $251 $-1 #
vertex $-1 $259 $456 #
straight-curve $-1 2.042816018736584 -22.088021541472266 27.169470885229384 0 0 1 I I #
straight-curve $-1 2.042816018736584 -22.088021541472258 1.1446892487386293 0 -0.62932038083071107 -0.77714596973225614 I I #
edge $-1 $450 -20.802100661282648 $263 2.042816018736584 $374 $457 forward 7 unknown #
point $-1 2.042816018736584 -22.088021541472266 5.5005355075612519 #
point $-1 2.042816018736584 -18.56072688486265 5.5005355075612519 #
edge $-1 $458 1 $458 0 $266 $-1 forward 7 unknown #
vertex $-1 $267 $459 #
ellipse-curve $-1 -14.274981609848577 -18.207080136506857 1.6080614873903594 0 -0.77714596973225614 0.62932038083071107 1 0 0 1 I I #
point $-1 -13.274981609848577 -20.324374213167463 3.3226123781499419 #
edge $-1 $460 1 $460 0 $270 $-1 forward 7 unknown #
vertex $-1 $271 $461 #
ellipse-curve $-1 -4.4843030326974755 -18.207080136506857 1.6080614873903594 0 -0.77714596973225614 0.62932038083071107 1 0 0 1 I I #
point $-1 -3.4843030326974755 -20.324374213167463 3.3226123781499419 #
plane-surface $-1 42.263252662739951 0 0 -1 0 0 0 0 1 forward_v I I I I #
coedge $-1 $279 $277 $281 $395 reversed $181 $-1 #
edge $-1 $292 -5.5005355075612519 $397 5.5005355075612519 $291 $462 forward 7 unknown #
vertex $-1 $395 $463 #
straight-curve $-1 -42.263252662739951 -22.088021541472266 0 0 0 -1 I I #
edge $-1 $393 -22.088021541472266 $397 22.088021541472266 $391 $464 forward 7 unknown #
straight-curve $-1 0 -22.088021541472266 -5.5005355075612519 -1 0 0 I I #
vertex $-1 $284 $465 #
straight-curve $-1 0 22.088021541472266 -5.5005355075612519 1 0 0 I I #
point $-1 42.263252662739951 22.088021541472266 -5.5005355075612519 #
point $-1 42.263252662739951 -22.088021541472266 -5.5005355075612519 #
straight-curve $-1 -42.263252662739951 0 5.5005355075612519 0 -1 0 I I #
point $-1 -42.263252662739951 22.088021541472266 5.5005355075612519 #
point $-1 -42.263252662739951 -22.088021541472266 5.5005355075612519 #
straight-curve $-1 42.263252662739951 -22.088021541472266 0 0 0 -1 I I #
straight-curve $-1 42.263252662739951 22.088021541472266 0 0 0 -1 I I #
plane-surface $-1 0 -22.088021541472266 0 0 1 0 0 0 1 forward_v I I I I #
coedge $-1 $466 $304 $318 $421 reversed $200 $-1 #
coedge $-1 $304 $466 $412 $467 reversed $200 $-1 #
edge $-1 $413 -1.5 $410 1.5 $305 $468 forward 7 unknown #
vertex $-1 $306 $469 #
straight-curve $-1 -45.783200897438377 22.088021541472266 2.5005355075612519 1 0 0 I I #
coedge $-1 $416 $307 $408 $467 forward $302 $-1 #
vertex $-1 $308 $470 #
straight-curve $-1 0 22.088021541472266 5.5005355075612519 -1 0 0 I I #
point $-1 -42.263252662739951 22.088021541472266 5.5005355075612519 #
coedge $-1 $311 $412 $313 $419 forward $302 $-1 #
straight-curve $-1 -42.263252662739951 0 5.5005355075612519 0 1 0 I I #
coedge $-1 $314 $313 $466 $471 forward $315 $-1 #
edge $-1 $472 -49.303149132136802 $316 -42.263252662739951 $313 $473 forward 7 unknown #
point $-1 -42.263252662739951 -22.088021541472266 5.5005355075612519 #
edge $-1 $422 -22.088021541472266 $410 22.088021541472266 $407 $474 forward 7 unknown #
vertex $-1 $421 $475 #
straight-curve $-1 -45.783200897438377 -22.088021541472266 2.5005355075612519 -1 0 0 I I #
coedge $-1 $333 $332 $325 $425 forward $322 $-1 #
edge $-1 $426 40.802032561229971 $429 46.072409217178162 $424 $476 forward 7 unknown #
vertex $-1 $337 $477 #
straight-curve $-1 3.5199482346984254 22.909048238241159 5.5005355075612528 0 1 0 I I #
edge $-1 $429 -5.9972089673794358 $334 10.951730432741456 $333 $478 forward 7 unknown #
vertex $-1 $428 $479 #
straight-curve $-1 3.5199482346984254 -10.741175965582677 29.789701701747738 0 -0.74314481823134659 0.66913061440640931 I I #
point $-1 3.5199482346984254 16.234675396983206 5.5005355075612528 #
point $-1 -13.428991165422467 22.088021541472266 0.23015885161306215 #
straight-curve $-1 0 22.088021541472266 5.5005355075612519 -1 0 0 I I #
vertex $-1 $340 $480 #
point $-1 -3.4545214653620206 16.236242773308408 -0.38331174275167268 #
edge $-1 $439 -25.368861181400195 $354 -8.419921781279303 $353 $481 forward 7 unknown #
coedge $-1 $438 $347 $443 $482 reversed $344 $-1 #
coedge $-1 $347 $437 $349 $441 reversed $344 $-1 #
vertex $-1 $348 $483 #
straight-curve $-1 42.263252662739951 -0.36856471110477163 20.45016037489566 0 0.74314481823134659 -0.66913061440640931 I I #
edge $-1 $350 16.234675396983206 $445 22.088021541472266 $438 $484 forward 7 unknown #
point $-1 42.263252662739944 16.234675396983206 5.5005355075612528 #
coedge $-1 $353 $352 $437 $482 forward $233 $-1 #
point $-1 25.314313262619052 22.088021541472266 0.23015885161306215 #
vertex $-1 $441 $485 #
straight-curve $-1 0 22.088021541472266 5.5005355075612519 -1 0 0 I I #
vertex $-1 $360 $486 #
point $-1 35.288782962679498 16.236242773308408 -0.38331174275167268 #
edge $-1 $450 21.668935377668131 $453 26.024781636490765 $365 $487 forward 7 unknown #
vertex $-1 $379 $488 #
straight-curve $-1 -20.802100661282648 -43.888727245360528 5.5005355075612528 0 -1 0 I I #
edge $-1 $453 -16.112279500646132 $376 6.7326371793730999 $375 $489 forward 7 unknown #
vertex $-1 $452 $490 #
straight-curve $-1 -20.802100661282648 -22.088021541472258 1.1446892487386293 0 0.62932038083071107 0.77714596973225614 I I #
point $-1 -20.802100661282648 -18.56072688486265 5.5005355075612519 #
point $-1 2.042816018736584 -22.088021541472266 1.1446892487386204 #
straight-curve $-1 0 -22.088021541472266 5.5005355075612519 1 0 0 I I #
vertex $-1 $382 $491 #
point $-1 -13.274981609848577 -18.207080136506857 1.6080614873903594 #
vertex $-1 $386 $492 #
point $-1 -3.4843030326974755 -18.207080136506857 1.6080614873903594 #
straight-curve $-1 -42.263252662739951 22.088021541472266 0 0 0 -1 I I #
point $-1 -42.263252662739951 -22.088021541472266 -5.5005355075612519 #
straight-curve $-1 -42.263252662739951 0 -5.5005355075612519 0 1 0 I I #
point $-1 -42.263252662739951 22.088021541472266 -5.5005355075612519 #
coedge $-1 $408 $407 $418 $471 reversed $200 $-1 #
edge $-1 $413 -22.088021541472266 $472 22.088021541472266 $408 $493 forward 7 unknown #
straight-curve $-1 -49.303149132136802 22.088021541472266 4.0005355075612519 0 0 -1 I I #
point $-1 -49.303149132136802 22.088021541472266 2.5005355075612519 #
point $-1 -49.303149132136802 22.088021541472266 5.5005355075612519 #
edge $-1 $472 -1.5 $422 1.5 $466 $494 forward 7 unknown #
vertex $-1 $467 $495 #
straight-curve $-1 0 -22.088021541472266 5.5005355075612519 1 0 0 I I #
straight-curve $-1 -49.303149132136802 0 2.5005355075612519 0 1 0 I I #
point $-1 -49.303149132136802 -22.088021541472266 2.5005355075612519 #
straight-curve $-1 3.5199482346984254 22.088021541472266 46.302568068791224 0 0 -1 I I #
point $-1 3.5199482346984254 22.088021541472266 5.5005355075612519 #
straight-curve $-1 -2.4772607326810103 22.088021541472262 0.23015885161306571 -1 0 0 I I #
point $-1 3.5199482346984254 22.088021541472266 0.23015885161306215 #
point $-1 -4.9545214653620206 15.232546851698796 -1.4980289700986926 #
straight-curve $-1 16.894391481339749 22.088021541472262 0.23015885161306571 -1 0 0 I I #
edge $-1 $445 -5.5005355075612519 $439 -0.23015885161306215 $437 $496 forward 7 unknown #
point $-1 42.263252662739944 22.088021541472266 0.23015885161306215 #
straight-curve $-1 42.263252662739951 0 5.5005355075612519 0 1 0 I I #
point $-1 42.263252662739951 22.088021541472266 5.5005355075612519 #
point $-1 33.788782962679498 15.232546851698796 -1.4980289700986926 #
straight-curve $-1 -20.802100661282648 -22.088021541472266 27.169470885229384 0 0 -1 I I #
point $-1 -20.802100661282648 -22.088021541472266 5.5005355075612519 #
straight-curve $-1 -4.6898211606365159 -22.088021541472266 1.1446892487386195 1 0 0 I I #
point $-1 -20.802100661282648 -22.088021541472266 1.1446892487386204 #
point $-1 -14.274981609848577 -17.429934166774604 0.97874110655964841 #
point $-1 -4.4843030326974755 -17.429934166774604 0.97874110655964841 #
straight-curve $-1 -49.303149132136802 0 5.5005355075612519 0 -1 0 I I #
straight-curve $-1 -49.303149132136802 -22.088021541472266 4.0005355075612519 0 0 -1 I I #
point $-1 -49.303149132136802 -22.088021541472266 5.5005355075612519 #
straight-curve $-1 42.263252662739951 22.088021541472266 0 0 0 -1 I I #
End-of-ACIS-data 