500 0 5 0           
7 Unknown 11 ACIS 5.0 NT 24 Fri Mar 26 19:28:23 1999 
-1 9.9999999999999995e-007 1e-010 
body $-1 $5 $-1 $6 #
body $-1 $7 $-1 $8 #
body $-1 $9 $-1 $10 #
body $-1 $11 $-1 $12 #
body $-1 $13 $-1 $14 #
lump $-1 $-1 $15 $0 #
transform $-1 1 0 0 0 1 0 0 0 1 71.702627643665892 32.761056832838378 13.841788967890389 1 rotate no_reflect no_shear #
lump $-1 $-1 $16 $1 #
transform $-1 1 0 0 0 1 0 0 0 1 71.702627643665892 32.761056832838378 13.841788967890389 1 rotate no_reflect no_shear #
lump $-1 $-1 $17 $2 #
transform $-1 1 0 0 0 1 0 0 0 1 71.702627643665892 32.761056832838378 13.841788967890389 1 rotate no_reflect no_shear #
lump $-1 $-1 $18 $3 #
transform $-1 1 0 0 0 1 0 0 0 1 71.702627643665892 32.761056832838378 13.841788967890389 1 rotate no_reflect no_shear #
lump $-1 $-1 $19 $4 #
transform $-1 1 0 0 0 1 0 0 0 1 71.702627643665892 32.761056832838378 13.841788967890389 1 rotate no_reflect no_shear #
shell $-1 $-1 $-1 $20 $-1 $5 #
shell $-1 $-1 $-1 $21 $-1 $7 #
shell $-1 $-1 $-1 $22 $-1 $9 #
shell $-1 $-1 $-1 $23 $-1 $11 #
shell $-1 $-1 $-1 $24 $-1 $13 #
face $-1 $25 $26 $15 $-1 $27 forward single #
face $-1 $28 $29 $16 $-1 $30 reversed single #
face $-1 $31 $32 $17 $-1 $33 forward single #
face $-1 $34 $35 $18 $-1 $36 reversed single #
face $-1 $37 $38 $19 $-1 $39 reversed single #
face $-1 $40 $41 $15 $-1 $42 reversed single #
loop $-1 $-1 $43 $20 #
plane-surface $-1 0 0 13.841788967890389 0 0 1 1 0 0 forward_v I I I I #
face $-1 $44 $45 $16 $-1 $46 reversed single #
loop $-1 $-1 $47 $21 #
plane-surface $-1 -76.57752094693906 0 9.3941843862280248 0 0 1 1 0 0 forward_v I I I I #
face $-1 $48 $49 $17 $-1 $50 forward single #
loop $-1 $-1 $51 $22 #
plane-surface $-1 -2.156537101583524 -28.339159007141966 129.82369244713408 0.85716730853699208 0 0.51503806187062418 0.51503806187062418 0 -0.85716730853699208 forward_v I I I I #
face $-1 $52 $53 $18 $-1 $54 reversed single #
loop $-1 $55 $56 $23 #
cone-surface $-1 68.721208277303205 -30.234258075297571 9.8330320160117317 -0.85716730853699208 0 -0.51503806187062418 0.51503806187062418 0 -0.85716730853699208 1 I I 0 1 1 forward I I I I #
face $-1 $57 $58 $19 $-1 $59 reversed single #
loop $-1 $60 $61 $24 #
cone-surface $-1 68.721208277303205 -26.444059938986364 9.8330320160117317 -0.85716730853699208 0 -0.51503806187062418 0.51503806187062418 0 -0.85716730853699208 1 I I 0 1 1 forward I I I I #
face $-1 $62 $63 $15 $-1 $64 reversed single #
loop $-1 $-1 $65 $25 #
plane-surface $-1 0 0 -13.841788967890389 0 0 1 1 0 0 forward_v I I I I #
coedge $-1 $66 $67 $68 $69 forward $26 $-1 #
face $-1 $70 $71 $16 $-1 $72 forward single #
loop $-1 $-1 $73 $28 #
plane-surface $-1 -81.452414250212229 0 11.617986677059209 1 0 0 0 0 -1 forward_v I I I I #
coedge $-1 $74 $75 $76 $77 reversed $29 $-1 #
face $-1 $78 $79 $17 $-1 $80 reversed single #
loop $-1 $-1 $81 $31 #
plane-surface $-1 120.76575960311891 -23.917261181445554 203.68285719238352 0 -1 0 -0.85716730853699208 0 -0.51503806187062418 forward_v I I I I #
coedge $-1 $82 $83 $84 $85 reversed $32 $-1 #
face $-1 $86 $87 $18 $-1 $88 forward single #
loop $-1 $89 $90 $34 #
cone-surface $-1 67.396309669695768 -30.234258075297571 9.0369526459271494 -0.85716730853699208 0 -0.51503806187062418 0.25751903093531209 0 -0.42858365426849604 1 I I -0.70710678118654746 0.70710678118654746 0.5 forward I I I I #
loop $-1 $-1 $91 $23 #
coedge $-1 $56 $56 $92 $93 reversed $35 $-1 #
face $-1 $94 $95 $19 $-1 $96 reversed single #
loop $-1 $97 $98 $37 #
cone-surface $-1 67.396309669695768 -26.444059938986364 9.0369526459271494 -0.85716730853699208 0 -0.51503806187062418 0.25751903093531209 0 -0.42858365426849604 1 I I -0.70710678118654746 0.70710678118654746 0.5 forward I I I I #
loop $-1 $-1 $99 $24 #
coedge $-1 $61 $61 $100 $101 reversed $38 $-1 #
face $-1 $102 $103 $15 $-1 $104 reversed single #
loop $-1 $-1 $105 $40 #
plane-surface $-1 0 -32.761056832838378 0 0 1 0 0 0 1 forward_v I I I I #
coedge $-1 $106 $107 $108 $109 forward $41 $-1 #
coedge $-1 $110 $43 $111 $112 forward $26 $-1 #
coedge $-1 $43 $110 $113 $114 forward $26 $-1 #
coedge $-1 $115 $116 $43 $69 reversed $117 $-1 #
edge $-1 $118 -32.761056832838378 $119 32.761056832838378 $68 $120 forward 7 unknown #
face $-1 $121 $122 $16 $-1 $123 reversed single #
loop $-1 $-1 $124 $44 #
plane-surface $-1 0 0 13.841788967890389 0 0 1 1 0 0 forward_v I I I I #
coedge $-1 $125 $126 $127 $128 forward $45 $-1 #
coedge $-1 $129 $47 $130 $131 forward $29 $-1 #
coedge $-1 $47 $129 $132 $133 forward $29 $-1 #
coedge $-1 $134 $135 $47 $77 forward $136 $-1 #
edge $-1 $137 -32.761056832838378 $138 32.761056832838378 $76 $139 forward 7 unknown #
face $-1 $140 $141 $17 $-1 $142 reversed single #
loop $-1 $-1 $143 $48 #
plane-surface $-1 71.702627643665892 0 0 -1 0 0 0 0 1 forward_v I I I I #
coedge $-1 $144 $145 $143 $146 reversed $49 $-1 #
coedge $-1 $147 $51 $145 $148 reversed $32 $-1 #
coedge $-1 $51 $147 $149 $150 reversed $32 $-1 #
coedge $-1 $151 $143 $51 $85 forward $79 $-1 #
edge $-1 $152 9.7476816778745707 $153 18.591477329267395 $84 $154 forward 7 unknown #
face $-1 $155 $156 $18 $-1 $157 forward single #
loop $-1 $158 $92 $52 #
plane-surface $-1 -2.156537101583524 -28.339159007141966 129.82369244713408 0.85716730853699208 0 0.51503806187062418 0.51503806187062418 0 -0.85716730853699208 forward_v I I I I #
loop $-1 $-1 $159 $34 #
coedge $-1 $90 $90 $91 $160 forward $53 $-1 #
coedge $-1 $91 $91 $90 $160 reversed $55 $-1 #
coedge $-1 $92 $92 $56 $93 forward $87 $-1 #
edge $-1 $161 0 $161 6.2831853071796004 $92 $162 forward 7 unknown #
face $-1 $163 $164 $19 $-1 $165 reversed single #
loop $-1 $166 $167 $57 #
cone-surface $-1 68.721208277303205 -30.234258075297571 9.8330320160117317 -0.85716730853699208 0 -0.51503806187062418 0.51503806187062418 0 -0.85716730853699208 1 I I 0 1 1 forward I I I I #
loop $-1 $-1 $168 $37 #
coedge $-1 $98 $98 $99 $169 forward $58 $-1 #
coedge $-1 $99 $99 $98 $169 reversed $60 $-1 #
coedge $-1 $100 $100 $61 $101 forward $170 $-1 #
edge $-1 $171 0 $171 6.2831853071796004 $100 $172 forward 7 unknown #
face $-1 $173 $174 $15 $-1 $175 reversed single #
loop $-1 $-1 $176 $62 #
plane-surface $-1 -71.702627643665892 0 0 1 0 0 0 0 -1 forward_v I I I I #
coedge $-1 $177 $113 $178 $179 forward $63 $-1 #
coedge $-1 $180 $65 $177 $181 forward $41 $-1 #
coedge $-1 $65 $180 $182 $183 forward $41 $-1 #
coedge $-1 $116 $115 $65 $109 reversed $117 $-1 #
edge $-1 $184 -32.761056832838378 $185 32.761056832838378 $108 $186 forward 7 unknown #
coedge $-1 $67 $66 $187 $188 forward $26 $-1 #
coedge $-1 $189 $190 $66 $112 reversed $174 $-1 #
edge $-1 $119 -71.702627643665892 $191 71.702627643665892 $111 $192 forward 7 unknown #
coedge $-1 $105 $193 $67 $114 reversed $63 $-1 #
edge $-1 $194 -71.702627643665892 $118 71.702627643665892 $113 $195 forward 7 unknown #
coedge $-1 $108 $68 $193 $196 forward $117 $-1 #
coedge $-1 $68 $108 $189 $197 reversed $117 $-1 #
loop $-1 $-1 $115 $173 #
vertex $-1 $69 $198 #
vertex $-1 $69 $199 #
straight-curve $-1 71.702627643665892 0 13.841788967890389 0 1 0 I I #
face $-1 $200 $201 $16 $-1 $202 reversed single #
loop $-1 $-1 $203 $70 #
plane-surface $-1 0 0 -13.841788967890389 0 0 1 1 0 0 forward_v I I I I #
coedge $-1 $204 $205 $206 $207 forward $71 $-1 #
coedge $-1 $208 $73 $129 $209 reversed $45 $-1 #
coedge $-1 $73 $208 $210 $211 reversed $45 $-1 #
coedge $-1 $212 $132 $73 $128 reversed $213 $-1 #
edge $-1 $214 -2.2238022908311841 $215 2.2238022908311841 $127 $216 forward 7 unknown #
coedge $-1 $75 $74 $125 $209 forward $29 $-1 #
coedge $-1 $217 $218 $74 $131 reversed $201 $-1 #
edge $-1 $137 -4.8748933032731685 $219 4.8748933032731685 $130 $220 forward 7 unknown #
coedge $-1 $127 $221 $75 $133 reversed $213 $-1 #
edge $-1 $215 -4.8748933032731685 $138 4.8748933032731685 $132 $222 forward 7 unknown #
coedge $-1 $223 $76 $221 $224 forward $136 $-1 #
coedge $-1 $76 $223 $217 $225 reversed $136 $-1 #
loop $-1 $-1 $76 $200 #
vertex $-1 $225 $226 #
vertex $-1 $224 $227 #
straight-curve $-1 -71.702627643665892 0 9.3941843862280248 0 1 0 I I #
face $-1 $228 $229 $17 $-1 $230 reversed single #
loop $-1 $-1 $149 $78 #
plane-surface $-1 0 -32.761056832838378 0 0 1 0 0 0 1 forward_v I I I I #
coedge $-1 $84 $231 $81 $146 forward $79 $-1 #
coedge $-1 $145 $81 $232 $233 reversed $49 $-1 #
coedge $-1 $81 $144 $82 $148 forward $49 $-1 #
edge $-1 $234 87.999639628301367 $152 94.940032853760059 $143 $235 forward 7 unknown #
coedge $-1 $83 $82 $236 $237 reversed $32 $-1 #
edge $-1 $238 135.30836083471374 $152 143.40525528733176 $145 $239 forward 7 unknown #
coedge $-1 $240 $241 $83 $150 forward $141 $-1 #
edge $-1 $153 -87.209593423133825 $242 -79.112698970515794 $149 $243 forward 7 unknown #
coedge $-1 $244 $84 $241 $245 forward $79 $-1 #
vertex $-1 $85 $246 #
vertex $-1 $245 $247 #
straight-curve $-1 71.702627643665892 -14.169579503570983 6.9013957424316885 0 -1 0 I I #
face $-1 $248 $249 $18 $-1 $250 reversed single #
loop $-1 $-1 $251 $86 #
plane-surface $-1 120.76575960311891 -23.917261181445554 203.68285719238352 0 -1 0 -0.85716730853699208 0 -0.51503806187062418 forward_v I I I I #
loop $-1 $-1 $252 $52 #
coedge $-1 $159 $159 $-1 $253 forward $89 $-1 #
edge $-1 $254 0 $254 6.2831853071796004 $90 $255 forward 7 unknown #
vertex $-1 $93 $256 #
ellipse-curve $-1 69.617523230642192 -30.234258075297571 10.371592355161031 -0.85716730853699208 0 -0.51503806187062418 0.51503806187062418 0 -0.85716730853699208 1 I I #
face $-1 $257 $170 $19 $-1 $258 forward single #
loop $-1 $259 $260 $94 #
cone-surface $-1 67.396309669695768 -30.234258075297571 9.0369526459271494 -0.85716730853699208 0 -0.51503806187062418 0.25751903093531209 0 -0.42858365426849604 1 I I -0.70710678118654746 0.70710678118654746 0.5 forward I I I I #
loop $-1 $-1 $261 $57 #
coedge $-1 $167 $167 $262 $263 reversed $95 $-1 #
coedge $-1 $168 $168 $-1 $264 forward $97 $-1 #
edge $-1 $265 0 $265 6.2831853071796004 $98 $266 forward 7 unknown #
loop $-1 $267 $100 $163 #
vertex $-1 $101 $268 #
ellipse-curve $-1 69.617523230642192 -26.444059938986364 10.371592355161031 -0.85716730853699208 0 -0.51503806187062418 0.51503806187062418 0 -0.85716730853699208 1 I I #
face $-1 $-1 $117 $15 $-1 $269 reversed single #
loop $-1 $-1 $189 $102 #
plane-surface $-1 0 32.761056832838378 0 0 -1 0 0 0 -1 forward_v I I I I #
coedge $-1 $270 $187 $190 $271 forward $103 $-1 #
coedge $-1 $193 $105 $106 $181 reversed $63 $-1 #
coedge $-1 $187 $270 $105 $179 reversed $103 $-1 #
edge $-1 $194 -13.841788967890389 $272 13.841788967890389 $178 $273 forward 7 unknown #
coedge $-1 $107 $106 $270 $274 forward $41 $-1 #
edge $-1 $185 -71.702627643665892 $272 71.702627643665892 $177 $275 forward 7 unknown #
coedge $-1 $190 $189 $107 $183 reversed $174 $-1 #
edge $-1 $276 -71.702627643665892 $184 71.702627643665892 $182 $277 forward 7 unknown #
vertex $-1 $109 $278 #
vertex $-1 $196 $279 #
straight-curve $-1 71.702627643665892 0 -13.841788967890389 0 -1 0 I I #
coedge $-1 $176 $178 $110 $188 reversed $103 $-1 #
edge $-1 $191 -32.761056832838378 $194 32.761056832838378 $187 $280 forward 7 unknown #
coedge $-1 $182 $111 $116 $197 forward $174 $-1 #
coedge $-1 $111 $182 $176 $271 reversed $174 $-1 #
vertex $-1 $112 $281 #
straight-curve $-1 0 32.761056832838378 13.841788967890389 -1 0 0 I I #
coedge $-1 $113 $177 $115 $196 reversed $63 $-1 #
vertex $-1 $188 $282 #
straight-curve $-1 0 -32.761056832838378 13.841788967890389 1 0 0 I I #
edge $-1 $118 -13.841788967890389 $185 13.841788967890389 $115 $283 forward 7 unknown #
edge $-1 $119 -13.841788967890389 $184 13.841788967890389 $116 $284 forward 7 unknown #
point $-1 71.702627643665892 -32.761056832838378 13.841788967890389 #
point $-1 71.702627643665892 32.761056832838378 13.841788967890389 #
face $-1 $285 $136 $16 $-1 $286 reversed single #
loop $-1 $-1 $217 $121 #
plane-surface $-1 0 -32.761056832838378 0 0 1 0 0 0 1 forward_v I I I I #
coedge $-1 $287 $288 $289 $290 forward $122 $-1 #
coedge $-1 $210 $124 $212 $291 forward $71 $-1 #
coedge $-1 $124 $210 $292 $293 forward $71 $-1 #
coedge $-1 $294 $295 $124 $207 reversed $296 $-1 #
edge $-1 $297 -32.761056832838378 $298 32.761056832838378 $206 $299 forward 7 unknown #
coedge $-1 $126 $125 $218 $300 reversed $45 $-1 #
edge $-1 $219 -32.761056832838378 $215 32.761056832838378 $125 $301 forward 7 unknown #
coedge $-1 $205 $204 $126 $211 forward $71 $-1 #
edge $-1 $214 -32.761056832838378 $302 32.761056832838378 $126 $303 forward 7 unknown #
coedge $-1 $304 $127 $204 $291 reversed $213 $-1 #
loop $-1 $-1 $304 $285 #
vertex $-1 $291 $305 #
vertex $-1 $133 $306 #
straight-curve $-1 -81.452414250212229 32.761056832838378 11.617986677059209 0 0 -1 I I #
coedge $-1 $307 $130 $135 $225 forward $201 $-1 #
coedge $-1 $130 $292 $208 $300 forward $201 $-1 #
vertex $-1 $209 $308 #
straight-curve $-1 -76.57752094693906 -32.761056832838378 9.3941843862280248 -1 0 0 I I #
coedge $-1 $132 $309 $134 $224 reversed $213 $-1 #
straight-curve $-1 -76.57752094693906 32.761056832838378 9.3941843862280248 1 0 0 I I #
coedge $-1 $135 $134 $310 $311 reversed $136 $-1 #
edge $-1 $138 -9.3941843862280248 $312 13.841788967890389 $221 $313 forward 7 unknown #
edge $-1 $137 -9.3941843862280248 $314 13.841788967890389 $135 $315 forward 7 unknown #
point $-1 -71.702627643665892 -32.761056832838378 9.3941843862280248 #
point $-1 -71.702627643665892 32.761056832838378 9.3941843862280248 #
face $-1 $316 $317 $17 $-1 $318 reversed single #
loop $-1 $-1 $319 $140 #
plane-surface $-1 -76.57752094693906 0 9.3941843862280248 0 0 1 1 0 0 forward_v I I I I #
coedge $-1 $143 $320 $321 $322 reversed $79 $-1 #
coedge $-1 $321 $236 $144 $233 forward $323 $-1 #
edge $-1 $238 7.1495390160590375 $234 11.319747842106437 $232 $324 forward 7 unknown #
vertex $-1 $322 $325 #
straight-curve $-1 71.702627643665892 -23.917261181445554 101.84142859619176 0 0 -1 I I #
coedge $-1 $232 $326 $147 $237 forward $323 $-1 #
edge $-1 $242 -18.591477329267395 $238 -9.7476816778745707 $236 $327 forward 7 unknown #
vertex $-1 $237 $328 #
straight-curve $-1 -2.156537101583524 -23.917261181445554 129.82369244713408 0.51503806187062418 0 -0.85716730853699208 I I #
coedge $-1 $329 $149 $326 $330 reversed $141 $-1 #
coedge $-1 $149 $331 $151 $245 reversed $141 $-1 #
vertex $-1 $237 $332 #
straight-curve $-1 26.786367670489913 -32.761056832838378 81.65460821554467 -0.51503806187062429 0 0.85716730853699219 I I #
coedge $-1 $320 $151 $333 $334 reversed $79 $-1 #
edge $-1 $153 -6.9013957424316885 $335 13.841788967890389 $151 $336 forward 7 unknown #
point $-1 71.702627643665892 -23.917261181445554 6.9013957424317027 #
point $-1 71.702627643665892 -32.761056832838378 6.9013957424316885 #
face $-1 $337 $338 $18 $-1 $339 reversed single #
loop $-1 $-1 $340 $155 #
plane-surface $-1 71.702627643665892 0 0 -1 0 0 0 0 1 forward_v I I I I #
coedge $-1 $341 $342 $340 $343 reversed $156 $-1 #
coedge $-1 $344 $345 $346 $347 reversed $158 $-1 #
edge $-1 $348 1 $348 0 $159 $-1 forward 7 unknown #
vertex $-1 $160 $349 #
ellipse-curve $-1 67.824893323964261 -30.234258075297571 9.2944716768624609 0.85716730853699208 0 0.51503806187062418 0.51503806187062418 0 -0.85716730853699208 1 I I #
point $-1 70.132561292512776 -30.234258075297571 9.5144250466240088 #
face $-1 $350 $351 $19 $-1 $352 forward single #
plane-surface $-1 -2.156537101583524 -28.339159007141966 129.82369244713408 0.85716730853699208 0 0.51503806187062418 0.51503806187062418 0 -0.85716730853699208 forward_v I I I I #
loop $-1 $-1 $353 $94 #
coedge $-1 $260 $260 $261 $354 forward $164 $-1 #
coedge $-1 $261 $261 $260 $354 reversed $166 $-1 #
coedge $-1 $262 $262 $167 $263 forward $267 $-1 #
edge $-1 $355 0 $355 6.2831853071796004 $262 $356 forward 7 unknown #
edge $-1 $357 1 $357 0 $168 $-1 forward 7 unknown #
vertex $-1 $169 $358 #
ellipse-curve $-1 67.824893323964261 -26.444059938986364 9.2944716768624609 0.85716730853699208 0 0.51503806187062418 0.51503806187062418 0 -0.85716730853699208 1 I I #
loop $-1 $359 $262 $163 #
point $-1 70.132561292512776 -26.444059938986364 9.5144250466240088 #
plane-surface $-1 71.702627643665892 0 0 -1 0 0 0 0 1 forward_v I I I I #
coedge $-1 $178 $176 $180 $274 reversed $103 $-1 #
edge $-1 $191 -13.841788967890389 $276 13.841788967890389 $190 $360 forward 7 unknown #
vertex $-1 $274 $361 #
straight-curve $-1 -71.702627643665892 -32.761056832838378 0 0 0 -1 I I #
edge $-1 $272 -32.761056832838378 $276 32.761056832838378 $270 $362 forward 7 unknown #
straight-curve $-1 0 -32.761056832838378 -13.841788967890389 -1 0 0 I I #
vertex $-1 $183 $363 #
straight-curve $-1 0 32.761056832838378 -13.841788967890389 1 0 0 I I #
point $-1 71.702627643665892 32.761056832838378 -13.841788967890389 #
point $-1 71.702627643665892 -32.761056832838378 -13.841788967890389 #
straight-curve $-1 -71.702627643665892 0 13.841788967890389 0 -1 0 I I #
point $-1 -71.702627643665892 32.761056832838378 13.841788967890389 #
point $-1 -71.702627643665892 -32.761056832838378 13.841788967890389 #
straight-curve $-1 71.702627643665892 -32.761056832838378 0 0 0 -1 I I #
straight-curve $-1 71.702627643665892 32.761056832838378 0 0 0 -1 I I #
face $-1 $364 $213 $16 $-1 $365 reversed single #
plane-surface $-1 -71.702627643665892 0 0 1 0 0 0 0 -1 forward_v I I I I #
coedge $-1 $310 $203 $307 $366 forward $122 $-1 #
coedge $-1 $203 $310 $309 $367 forward $122 $-1 #
coedge $-1 $295 $294 $203 $290 reversed $296 $-1 #
edge $-1 $368 -32.761056832838378 $369 32.761056832838378 $289 $370 forward 7 unknown #
edge $-1 $298 -71.702627643665892 $214 81.452414250212229 $212 $371 forward 7 unknown #
coedge $-1 $218 $372 $205 $293 reversed $201 $-1 #
edge $-1 $302 -81.452414250212229 $297 71.702627643665892 $292 $373 forward 7 unknown #
coedge $-1 $289 $206 $372 $374 forward $296 $-1 #
coedge $-1 $206 $289 $304 $375 reversed $296 $-1 #
loop $-1 $-1 $294 $364 #
vertex $-1 $207 $376 #
vertex $-1 $207 $377 #
straight-curve $-1 71.702627643665892 0 13.841788967890389 0 1 0 I I #
edge $-1 $302 -2.2238022908311841 $219 2.2238022908311841 $208 $378 forward 7 unknown #
straight-curve $-1 -81.452414250212229 0 9.3941843862280248 0 1 0 I I #
vertex $-1 $211 $379 #
straight-curve $-1 -81.452414250212229 0 13.841788967890393 0 -1 0 I I #
coedge $-1 $309 $212 $295 $375 forward $213 $-1 #
point $-1 -81.452414250212229 32.761056832838378 13.841788967890393 #
point $-1 -81.452414250212229 32.761056832838378 9.3941843862280248 #
coedge $-1 $372 $217 $287 $366 reversed $201 $-1 #
point $-1 -81.452414250212229 -32.761056832838378 9.3941843862280248 #
coedge $-1 $221 $304 $288 $367 reversed $213 $-1 #
coedge $-1 $288 $287 $223 $311 forward $122 $-1 #
edge $-1 $314 -32.761056832838378 $312 32.761056832838378 $223 $380 forward 7 unknown #
vertex $-1 $367 $381 #
straight-curve $-1 -71.702627643665892 32.761056832838378 0 0 0 -1 I I #
vertex $-1 $311 $382 #
straight-curve $-1 -71.702627643665892 -32.761056832838378 0 0 0 -1 I I #
face $-1 $383 $323 $17 $-1 $384 forward single #
loop $-1 $-1 $385 $228 #
plane-surface $-1 -81.452414250212229 0 11.617986677059209 1 0 0 0 0 -1 forward_v I I I I #
coedge $-1 $386 $387 $388 $389 reversed $229 $-1 #
coedge $-1 $231 $244 $390 $391 reversed $79 $-1 #
coedge $-1 $392 $232 $231 $322 forward $323 $-1 #
edge $-1 $234 -23.917261181445554 $393 32.761056832838378 $231 $394 forward 7 unknown #
loop $-1 $-1 $232 $316 #
straight-curve $-1 60.382879801559454 -23.917261181445554 13.841788967890395 1 0 0 I I #
point $-1 71.702627643665892 -23.917261181445554 13.841788967890389 #
coedge $-1 $236 $395 $240 $330 forward $323 $-1 #
straight-curve $-1 67.532418817618463 -14.169579503570983 13.841788967890395 0 1 0 I I #
point $-1 67.532418817618492 -23.917261181445554 13.84178896789038 #
coedge $-1 $396 $240 $397 $398 forward $141 $-1 #
edge $-1 $399 -81.452414250212229 $242 67.532418817618492 $240 $400 forward 7 unknown #
coedge $-1 $241 $401 $402 $403 reversed $141 $-1 #
point $-1 67.532418817618492 -32.761056832838378 13.84178896789038 #
coedge $-1 $402 $404 $244 $334 forward $405 $-1 #
edge $-1 $406 -32.761056832838378 $335 32.761056832838378 $244 $407 forward 7 unknown #
vertex $-1 $245 $408 #
straight-curve $-1 71.702627643665892 -32.761056832838378 0 0 0 -1 I I #
face $-1 $409 $410 $18 $-1 $411 reversed single #
loop $-1 $-1 $412 $248 #
plane-surface $-1 0 -32.761056832838378 0 0 1 0 0 0 1 forward_v I I I I #
coedge $-1 $346 $413 $251 $343 forward $249 $-1 #
coedge $-1 $342 $251 $414 $415 reversed $156 $-1 #
coedge $-1 $251 $341 $344 $416 forward $156 $-1 #
edge $-1 $417 87.999639628301367 $418 94.940032853760059 $340 $419 forward 7 unknown #
coedge $-1 $420 $252 $342 $416 reversed $158 $-1 #
coedge $-1 $252 $420 $412 $421 reversed $158 $-1 #
coedge $-1 $422 $340 $252 $347 forward $249 $-1 #
edge $-1 $418 9.7476816778745707 $423 18.591477329267395 $346 $424 forward 7 unknown #
vertex $-1 $253 $425 #
point $-1 68.339931385834888 -30.234258075297571 8.4373043683254689 #
face $-1 $426 $427 $19 $-1 $428 reversed single #
loop $-1 $-1 $429 $257 #
plane-surface $-1 120.76575960311891 -23.917261181445554 203.68285719238352 0 -1 0 -0.85716730853699208 0 -0.51503806187062418 forward_v I I I I #
coedge $-1 $353 $353 $-1 $430 forward $259 $-1 #
edge $-1 $431 0 $431 6.2831853071796004 $260 $432 forward 7 unknown #
vertex $-1 $263 $433 #
ellipse-curve $-1 69.617523230642192 -30.234258075297571 10.371592355161031 -0.85716730853699208 0 -0.51503806187062418 0.51503806187062418 0 -0.85716730853699208 1 I I #
vertex $-1 $264 $434 #
point $-1 68.339931385834888 -26.444059938986364 8.4373043683254689 #
loop $-1 $-1 $435 $163 #
straight-curve $-1 -71.702627643665892 32.761056832838378 0 0 0 -1 I I #
point $-1 -71.702627643665892 -32.761056832838378 -13.841788967890389 #
straight-curve $-1 -71.702627643665892 0 -13.841788967890389 0 1 0 I I #
point $-1 -71.702627643665892 32.761056832838378 -13.841788967890389 #
face $-1 $-1 $296 $16 $-1 $436 reversed single #
plane-surface $-1 0 32.761056832838378 0 0 -1 0 0 0 -1 forward_v I I I I #
edge $-1 $369 -71.702627643665892 $314 71.702627643665892 $307 $437 forward 7 unknown #
edge $-1 $312 -71.702627643665892 $368 71.702627643665892 $309 $438 forward 7 unknown #
vertex $-1 $290 $439 #
vertex $-1 $374 $440 #
straight-curve $-1 71.702627643665892 0 -13.841788967890389 0 -1 0 I I #
straight-curve $-1 0 32.761056832838378 13.841788967890389 -1 0 0 I I #
coedge $-1 $292 $307 $294 $374 reversed $201 $-1 #
straight-curve $-1 0 -32.761056832838378 13.841788967890389 1 0 0 I I #
edge $-1 $297 -13.841788967890389 $369 13.841788967890389 $294 $441 forward 7 unknown #
edge $-1 $298 -13.841788967890389 $368 13.841788967890389 $295 $442 forward 7 unknown #
point $-1 71.702627643665892 -32.761056832838378 13.841788967890389 #
point $-1 71.702627643665892 32.761056832838378 13.841788967890389 #
straight-curve $-1 -81.452414250212229 -32.761056832838378 11.617986677059209 0 0 -1 I I #
point $-1 -81.452414250212229 -32.761056832838378 13.841788967890393 #
straight-curve $-1 -71.702627643665892 0 -13.841788967890389 0 1 0 I I #
point $-1 -71.702627643665892 32.761056832838378 -13.841788967890389 #
point $-1 -71.702627643665892 -32.761056832838378 -13.841788967890389 #
face $-1 $443 $405 $17 $-1 $444 reversed single #
plane-surface $-1 0 0 13.841788967890389 0 0 1 1 0 0 forward_v I I I I #
coedge $-1 $445 $446 $447 $448 forward $317 $-1 #
coedge $-1 $449 $319 $396 $450 forward $229 $-1 #
coedge $-1 $319 $449 $451 $452 forward $229 $-1 #
coedge $-1 $453 $454 $319 $389 forward $455 $-1 #
edge $-1 $456 -32.761056832838378 $457 32.761056832838378 $388 $458 forward 7 unknown #
coedge $-1 $459 $460 $320 $391 forward $461 $-1 #
edge $-1 $393 -13.841788967890389 $406 13.841788967890389 $320 $462 forward 7 unknown #
coedge $-1 $395 $321 $460 $463 forward $323 $-1 #
vertex $-1 $322 $464 #
straight-curve $-1 71.702627643665892 0 13.841788967890389 0 1 0 I I #
coedge $-1 $326 $392 $446 $465 forward $323 $-1 #
coedge $-1 $401 $329 $386 $450 reversed $141 $-1 #
coedge $-1 $446 $445 $329 $398 reversed $317 $-1 #
edge $-1 $399 -2.2238022908311841 $466 2.2238022908311841 $397 $467 forward 7 unknown #
vertex $-1 $465 $468 #
straight-curve $-1 0 -32.761056832838378 13.841788967890389 1 0 0 I I #
coedge $-1 $331 $396 $454 $469 forward $141 $-1 #
coedge $-1 $470 $333 $331 $403 forward $405 $-1 #
edge $-1 $335 -71.702627643665892 $471 71.702627643665892 $331 $472 forward 7 unknown #
coedge $-1 $333 $470 $459 $473 forward $405 $-1 #
loop $-1 $-1 $333 $383 #
vertex $-1 $334 $474 #
straight-curve $-1 71.702627643665892 0 -13.841788967890389 0 -1 0 I I #
point $-1 71.702627643665892 -32.761056832838378 -13.841788967890389 #
face $-1 $475 $476 $18 $-1 $477 reversed single #
loop $-1 $-1 $478 $337 #
plane-surface $-1 -76.57752094693906 0 9.3941843862280248 0 0 1 1 0 0 forward_v I I I I #
coedge $-1 $479 $480 $345 $421 forward $338 $-1 #
coedge $-1 $340 $481 $482 $483 reversed $249 $-1 #
coedge $-1 $482 $484 $341 $415 forward $485 $-1 #
edge $-1 $486 7.1495390160590375 $417 11.319747842106437 $414 $487 forward 7 unknown #
edge $-1 $486 135.30836083471374 $418 143.40525528733176 $342 $488 forward 7 unknown #
vertex $-1 $483 $489 #
vertex $-1 $347 $490 #
straight-curve $-1 71.702627643665892 -23.917261181445554 101.84142859619176 0 0 -1 I I #
coedge $-1 $345 $344 $484 $491 reversed $158 $-1 #
edge $-1 $423 -87.209593423133825 $492 -79.112698970515794 $412 $493 forward 7 unknown #
coedge $-1 $494 $346 $480 $495 forward $249 $-1 #
vertex $-1 $495 $496 #
straight-curve $-1 71.702627643665892 -14.169579503570983 6.9013957424316885 0 -1 0 I I #
point $-1 66.967726015427274 -30.234258075297571 8.7794336149918379 #
face $-1 $497 $498 $19 $-1 $499 reversed single #
loop $-1 $-1 $500 $350 #
plane-surface $-1 71.702627643665892 0 0 -1 0 0 0 0 1 forward_v I I I I #
coedge $-1 $501 $502 $500 $503 reversed $351 $-1 #
edge $-1 $504 1 $504 0 $353 $-1 forward 7 unknown #
vertex $-1 $354 $505 #
ellipse-curve $-1 67.824893323964261 -30.234258075297571 9.2944716768624609 0.85716730853699208 0 0.51503806187062418 0.51503806187062418 0 -0.85716730853699208 1 I I #
point $-1 70.132561292512776 -30.234258075297571 9.5144250466240088 #
point $-1 66.967726015427274 -26.444059938986364 8.7794336149918379 #
coedge $-1 $506 $507 $508 $509 reversed $359 $-1 #
plane-surface $-1 71.702627643665892 0 0 -1 0 0 0 0 1 forward_v I I I I #
straight-curve $-1 0 -32.761056832838378 -13.841788967890389 -1 0 0 I I #
straight-curve $-1 0 32.761056832838378 -13.841788967890389 1 0 0 I I #
point $-1 71.702627643665892 32.761056832838378 -13.841788967890389 #
point $-1 71.702627643665892 -32.761056832838378 -13.841788967890389 #
straight-curve $-1 71.702627643665892 -32.761056832838378 0 0 0 -1 I I #
straight-curve $-1 71.702627643665892 32.761056832838378 0 0 0 -1 I I #
face $-1 $510 $455 $17 $-1 $511 reversed single #
plane-surface $-1 0 0 -13.841788967890389 0 0 1 1 0 0 forward_v I I I I #
coedge $-1 $397 $385 $449 $512 reversed $317 $-1 #
coedge $-1 $385 $397 $395 $465 reversed $317 $-1 #
coedge $-1 $460 $451 $385 $448 reversed $461 $-1 #
edge $-1 $513 -2.2238022908311841 $514 2.2238022908311841 $447 $515 forward 7 unknown #
coedge $-1 $387 $386 $445 $512 forward $229 $-1 #
edge $-1 $456 -4.8748933032731685 $466 4.8748933032731685 $396 $516 forward 7 unknown #
coedge $-1 $447 $517 $387 $452 reversed $461 $-1 #
edge $-1 $514 -4.8748933032731685 $457 4.8748933032731685 $451 $518 forward 7 unknown #
coedge $-1 $519 $388 $517 $520 forward $455 $-1 #
coedge $-1 $388 $519 $401 $469 reversed $455 $-1 #
loop $-1 $-1 $388 $443 #
vertex $-1 $469 $521 #
vertex $-1 $520 $522 #
straight-curve $-1 -71.702627643665892 0 9.3941843862280248 0 1 0 I I #
coedge $-1 $517 $390 $404 $473 reversed $461 $-1 #
coedge $-1 $390 $447 $392 $463 reversed $461 $-1 #
loop $-1 $-1 $390 $510 #
straight-curve $-1 71.702627643665892 32.761056832838378 0 0 0 -1 I I #
edge $-1 $393 -71.702627643665892 $513 81.452414250212229 $460 $523 forward 7 unknown #
point $-1 71.702627643665892 32.761056832838378 13.841788967890389 #
edge $-1 $513 -32.761056832838378 $399 32.761056832838378 $446 $524 forward 7 unknown #
vertex $-1 $512 $525 #
straight-curve $-1 -81.452414250212229 -32.761056832838378 11.617986677059209 0 0 -1 I I #
point $-1 -81.452414250212229 -32.761056832838378 13.841788967890393 #
edge $-1 $456 -9.3941843862280248 $471 13.841788967890389 $454 $526 forward 7 unknown #
coedge $-1 $404 $402 $519 $527 forward $405 $-1 #
vertex $-1 $527 $528 #
straight-curve $-1 0 -32.761056832838378 -13.841788967890389 -1 0 0 I I #
edge $-1 $529 -71.702627643665892 $406 71.702627643665892 $459 $530 forward 7 unknown #
point $-1 71.702627643665892 32.761056832838378 -13.841788967890389 #
face $-1 $531 $485 $18 $-1 $532 forward single #
loop $-1 $-1 $533 $409 #
plane-surface $-1 -81.452414250212229 0 11.617986677059209 1 0 0 0 0 -1 forward_v I I I I #
coedge $-1 $534 $535 $536 $537 reversed $410 $-1 #
coedge $-1 $538 $412 $539 $540 reversed $338 $-1 #
coedge $-1 $412 $541 $422 $495 reversed $338 $-1 #
coedge $-1 $413 $494 $542 $543 reversed $249 $-1 #
coedge $-1 $544 $414 $413 $483 forward $485 $-1 #
edge $-1 $417 -23.917261181445554 $545 32.761056832838378 $413 $546 forward 7 unknown #
coedge $-1 $414 $539 $420 $491 forward $485 $-1 #
loop $-1 $-1 $414 $475 #
vertex $-1 $491 $547 #
straight-curve $-1 60.382879801559454 -23.917261181445554 13.841788967890395 1 0 0 I I #
straight-curve $-1 -2.156537101583524 -23.917261181445554 129.82369244713408 0.51503806187062418 0 -0.85716730853699208 I I #
point $-1 71.702627643665892 -23.917261181445554 13.841788967890389 #
point $-1 71.702627643665892 -23.917261181445554 6.9013957424317027 #
edge $-1 $492 -18.591477329267395 $486 -9.7476816778745707 $484 $548 forward 7 unknown #
vertex $-1 $491 $549 #
straight-curve $-1 26.786367670489913 -32.761056832838378 81.65460821554467 -0.51503806187062429 0 0.85716730853699219 I I #
coedge $-1 $481 $422 $550 $551 reversed $249 $-1 #
edge $-1 $423 -6.9013957424316885 $552 13.841788967890389 $422 $553 forward 7 unknown #
point $-1 71.702627643665892 -32.761056832838378 6.9013957424316885 #
face $-1 $554 $555 $19 $-1 $556 reversed single #
loop $-1 $-1 $557 $426 #
plane-surface $-1 0 -32.761056832838378 0 0 1 0 0 0 1 forward_v I I I I #
coedge $-1 $508 $558 $429 $503 forward $427 $-1 #
coedge $-1 $502 $429 $559 $560 reversed $351 $-1 #
coedge $-1 $429 $501 $506 $561 forward $351 $-1 #
edge $-1 $562 87.999639628301367 $563 94.940032853760059 $500 $564 forward 7 unknown #
vertex $-1 $430 $565 #
point $-1 68.339931385834888 -30.234258075297571 8.4373043683254689 #
coedge $-1 $566 $435 $502 $561 reversed $359 $-1 #
coedge $-1 $435 $566 $557 $567 reversed $359 $-1 #
coedge $-1 $568 $500 $435 $509 forward $427 $-1 #
edge $-1 $563 9.7476816778745707 $569 18.591477329267395 $508 $570 forward 7 unknown #
face $-1 $-1 $461 $17 $-1 $571 reversed single #
plane-surface $-1 -71.702627643665892 0 0 1 0 0 0 0 -1 forward_v I I I I #
edge $-1 $466 -32.761056832838378 $514 32.761056832838378 $445 $572 forward 7 unknown #
vertex $-1 $463 $573 #
vertex $-1 $452 $574 #
straight-curve $-1 -81.452414250212229 32.761056832838378 11.617986677059209 0 0 -1 I I #
straight-curve $-1 -76.57752094693906 -32.761056832838378 9.3941843862280248 -1 0 0 I I #
coedge $-1 $451 $459 $453 $520 reversed $461 $-1 #
straight-curve $-1 -76.57752094693906 32.761056832838378 9.3941843862280248 1 0 0 I I #
coedge $-1 $454 $453 $470 $527 reversed $455 $-1 #
edge $-1 $457 -9.3941843862280248 $529 13.841788967890389 $517 $575 forward 7 unknown #
point $-1 -71.702627643665892 -32.761056832838378 9.3941843862280248 #
point $-1 -71.702627643665892 32.761056832838378 9.3941843862280248 #
straight-curve $-1 0 32.761056832838378 13.841788967890389 -1 0 0 I I #
straight-curve $-1 -81.452414250212229 0 13.841788967890393 0 -1 0 I I #
point $-1 -81.452414250212229 -32.761056832838378 9.3941843862280248 #
straight-curve $-1 -71.702627643665892 -32.761056832838378 0 0 0 -1 I I #
edge $-1 $471 -32.761056832838378 $529 32.761056832838378 $519 $576 forward 7 unknown #
point $-1 -71.702627643665892 -32.761056832838378 -13.841788967890389 #
vertex $-1 $473 $577 #
straight-curve $-1 0 32.761056832838378 -13.841788967890389 1 0 0 I I #
face $-1 $578 $579 $18 $-1 $580 reversed single #
plane-surface $-1 0 0 13.841788967890389 0 0 1 1 0 0 forward_v I I I I #
coedge $-1 $581 $582 $583 $584 forward $476 $-1 #
coedge $-1 $585 $478 $586 $587 forward $410 $-1 #
coedge $-1 $478 $585 $588 $589 forward $410 $-1 #
coedge $-1 $590 $591 $478 $537 forward $592 $-1 #
edge $-1 $593 -32.761056832838378 $594 32.761056832838378 $536 $595 forward 7 unknown #
coedge $-1 $586 $479 $596 $597 forward $338 $-1 #
coedge $-1 $484 $598 $479 $540 forward $485 $-1 #
edge $-1 $599 -81.452414250212229 $492 67.532418817618492 $479 $600 forward 7 unknown #
coedge $-1 $480 $601 $602 $603 reversed $338 $-1 #
coedge $-1 $604 $605 $481 $543 forward $606 $-1 #
edge $-1 $545 -13.841788967890389 $607 13.841788967890389 $481 $608 forward 7 unknown #
coedge $-1 $598 $482 $605 $609 forward $485 $-1 #
vertex $-1 $483 $610 #
straight-curve $-1 71.702627643665892 0 13.841788967890389 0 1 0 I I #
point $-1 67.532418817618492 -23.917261181445554 13.84178896789038 #
straight-curve $-1 67.532418817618463 -14.169579503570983 13.841788967890395 0 1 0 I I #
point $-1 67.532418817618492 -32.761056832838378 13.84178896789038 #
coedge $-1 $602 $611 $494 $551 forward $579 $-1 #
edge $-1 $607 -32.761056832838378 $552 32.761056832838378 $494 $612 forward 7 unknown #
vertex $-1 $495 $613 #
straight-curve $-1 71.702627643665892 -32.761056832838378 0 0 0 -1 I I #
face $-1 $614 $615 $19 $-1 $616 reversed single #
loop $-1 $-1 $617 $497 #
plane-surface $-1 -76.57752094693906 0 9.3941843862280248 0 0 1 1 0 0 forward_v I I I I #
coedge $-1 $618 $619 $507 $567 forward $498 $-1 #
coedge $-1 $500 $620 $621 $622 reversed $427 $-1 #
coedge $-1 $621 $623 $501 $560 forward $624 $-1 #
edge $-1 $625 7.1495390160590375 $562 11.319747842106437 $559 $626 forward 7 unknown #
edge $-1 $625 135.30836083471374 $563 143.40525528733176 $502 $627 forward 7 unknown #
vertex $-1 $622 $628 #
vertex $-1 $509 $629 #
straight-curve $-1 71.702627643665892 -23.917261181445554 101.84142859619176 0 0 -1 I I #
point $-1 66.967726015427274 -30.234258075297571 8.7794336149918379 #
coedge $-1 $507 $506 $623 $630 reversed $359 $-1 #
edge $-1 $569 -87.209593423133825 $631 -79.112698970515794 $557 $632 forward 7 unknown #
coedge $-1 $633 $508 $619 $634 forward $427 $-1 #
vertex $-1 $634 $635 #
straight-curve $-1 71.702627643665892 -14.169579503570983 6.9013957424316885 0 -1 0 I I #
plane-surface $-1 0 32.761056832838378 0 0 -1 0 0 0 -1 forward_v I I I I #
straight-curve $-1 -81.452414250212229 0 9.3941843862280248 0 1 0 I I #
point $-1 -81.452414250212229 32.761056832838378 13.841788967890393 #
point $-1 -81.452414250212229 32.761056832838378 9.3941843862280248 #
straight-curve $-1 -71.702627643665892 32.761056832838378 0 0 0 -1 I I #
straight-curve $-1 -71.702627643665892 0 -13.841788967890389 0 1 0 I I #
point $-1 -71.702627643665892 32.761056832838378 -13.841788967890389 #
face $-1 $636 $592 $18 $-1 $637 reversed single #
loop $-1 $-1 $550 $531 #
plane-surface $-1 0 0 -13.841788967890389 0 0 1 1 0 0 forward_v I I I I #
coedge $-1 $596 $533 $585 $638 reversed $476 $-1 #
coedge $-1 $533 $596 $598 $639 reversed $476 $-1 #
coedge $-1 $605 $588 $533 $584 reversed $606 $-1 #
edge $-1 $640 -2.2238022908311841 $641 2.2238022908311841 $583 $642 forward 7 unknown #
coedge $-1 $535 $534 $581 $638 forward $410 $-1 #
coedge $-1 $601 $538 $534 $587 reversed $338 $-1 #
edge $-1 $593 -4.8748933032731685 $643 4.8748933032731685 $586 $644 forward 7 unknown #
coedge $-1 $583 $645 $535 $589 reversed $606 $-1 #
edge $-1 $641 -4.8748933032731685 $594 4.8748933032731685 $588 $646 forward 7 unknown #
coedge $-1 $647 $536 $645 $648 forward $592 $-1 #
coedge $-1 $536 $647 $601 $649 reversed $592 $-1 #
loop $-1 $-1 $536 $578 #
vertex $-1 $649 $650 #
vertex $-1 $648 $651 #
straight-curve $-1 -71.702627643665892 0 9.3941843862280248 0 1 0 I I #
coedge $-1 $582 $581 $538 $597 reversed $476 $-1 #
edge $-1 $599 -2.2238022908311841 $643 2.2238022908311841 $596 $652 forward 7 unknown #
coedge $-1 $539 $544 $582 $639 forward $485 $-1 #
vertex $-1 $639 $653 #
straight-curve $-1 0 -32.761056832838378 13.841788967890389 1 0 0 I I #
coedge $-1 $541 $586 $591 $649 forward $338 $-1 #
coedge $-1 $654 $550 $541 $603 forward $579 $-1 #
edge $-1 $552 -71.702627643665892 $655 71.702627643665892 $541 $656 forward 7 unknown #
coedge $-1 $645 $542 $611 $657 reversed $606 $-1 #
coedge $-1 $542 $583 $544 $609 reversed $606 $-1 #
loop $-1 $-1 $542 $636 #
vertex $-1 $551 $658 #
straight-curve $-1 71.702627643665892 32.761056832838378 0 0 0 -1 I I #
edge $-1 $545 -71.702627643665892 $640 81.452414250212229 $605 $659 forward 7 unknown #
point $-1 71.702627643665892 32.761056832838378 13.841788967890389 #
coedge $-1 $550 $654 $604 $657 forward $579 $-1 #
straight-curve $-1 71.702627643665892 0 -13.841788967890389 0 -1 0 I I #
point $-1 71.702627643665892 -32.761056832838378 -13.841788967890389 #
face $-1 $660 $624 $19 $-1 $661 forward single #
loop $-1 $-1 $662 $554 #
plane-surface $-1 -81.452414250212229 0 11.617986677059209 1 0 0 0 0 -1 forward_v I I I I #
coedge $-1 $663 $664 $665 $666 reversed $555 $-1 #
coedge $-1 $667 $557 $668 $669 reversed $498 $-1 #
coedge $-1 $557 $670 $568 $634 reversed $498 $-1 #
coedge $-1 $558 $633 $671 $672 reversed $427 $-1 #
coedge $-1 $673 $559 $558 $622 forward $624 $-1 #
edge $-1 $562 -23.917261181445554 $674 32.761056832838378 $558 $675 forward 7 unknown #
coedge $-1 $559 $668 $566 $630 forward $624 $-1 #
loop $-1 $-1 $559 $614 #
vertex $-1 $630 $676 #
straight-curve $-1 60.382879801559454 -23.917261181445554 13.841788967890395 1 0 0 I I #
straight-curve $-1 -2.156537101583524 -23.917261181445554 129.82369244713408 0.51503806187062418 0 -0.85716730853699208 I I #
point $-1 71.702627643665892 -23.917261181445554 13.841788967890389 #
point $-1 71.702627643665892 -23.917261181445554 6.9013957424317027 #
edge $-1 $631 -18.591477329267395 $625 -9.7476816778745707 $623 $677 forward 7 unknown #
vertex $-1 $630 $678 #
straight-curve $-1 26.786367670489913 -32.761056832838378 81.65460821554467 -0.51503806187062429 0 0.85716730853699219 I I #
coedge $-1 $620 $568 $679 $680 reversed $427 $-1 #
edge $-1 $569 -6.9013957424316885 $681 13.841788967890389 $568 $682 forward 7 unknown #
point $-1 71.702627643665892 -32.761056832838378 6.9013957424316885 #
face $-1 $-1 $606 $18 $-1 $683 reversed single #
plane-surface $-1 -71.702627643665892 0 0 1 0 0 0 0 -1 forward_v I I I I #
edge $-1 $643 -32.761056832838378 $641 32.761056832838378 $581 $684 forward 7 unknown #
edge $-1 $640 -32.761056832838378 $599 32.761056832838378 $582 $685 forward 7 unknown #
vertex $-1 $609 $686 #
vertex $-1 $589 $687 #
straight-curve $-1 -81.452414250212229 32.761056832838378 11.617986677059209 0 0 -1 I I #
vertex $-1 $638 $688 #
straight-curve $-1 -76.57752094693906 -32.761056832838378 9.3941843862280248 -1 0 0 I I #
coedge $-1 $588 $604 $590 $648 reversed $606 $-1 #
straight-curve $-1 -76.57752094693906 32.761056832838378 9.3941843862280248 1 0 0 I I #
coedge $-1 $591 $590 $654 $689 reversed $592 $-1 #
edge $-1 $594 -9.3941843862280248 $690 13.841788967890389 $645 $691 forward 7 unknown #
edge $-1 $593 -9.3941843862280248 $655 13.841788967890389 $591 $692 forward 7 unknown #
point $-1 -71.702627643665892 -32.761056832838378 9.3941843862280248 #
point $-1 -71.702627643665892 32.761056832838378 9.3941843862280248 #
straight-curve $-1 -81.452414250212229 -32.761056832838378 11.617986677059209 0 0 -1 I I #
point $-1 -81.452414250212229 -32.761056832838378 13.841788967890393 #
coedge $-1 $611 $602 $647 $689 forward $579 $-1 #
vertex $-1 $689 $693 #
straight-curve $-1 0 -32.761056832838378 -13.841788967890389 -1 0 0 I I #
edge $-1 $690 -71.702627643665892 $607 71.702627643665892 $604 $694 forward 7 unknown #
point $-1 71.702627643665892 32.761056832838378 -13.841788967890389 #
straight-curve $-1 0 32.761056832838378 13.841788967890389 -1 0 0 I I #
face $-1 $695 $696 $19 $-1 $697 reversed single #
plane-surface $-1 0 0 13.841788967890389 0 0 1 1 0 0 forward_v I I I I #
coedge $-1 $698 $699 $700 $701 forward $615 $-1 #
coedge $-1 $702 $617 $703 $704 forward $555 $-1 #
coedge $-1 $617 $702 $705 $706 forward $555 $-1 #
coedge $-1 $707 $708 $617 $666 forward $709 $-1 #
edge $-1 $710 -32.761056832838378 $711 32.761056832838378 $665 $712 forward 7 unknown #
coedge $-1 $703 $618 $713 $714 forward $498 $-1 #
coedge $-1 $623 $715 $618 $669 forward $624 $-1 #
edge $-1 $716 -81.452414250212229 $631 67.532418817618492 $618 $717 forward 7 unknown #
coedge $-1 $619 $718 $719 $720 reversed $498 $-1 #
coedge $-1 $721 $722 $620 $672 forward $723 $-1 #
edge $-1 $674 -13.841788967890389 $724 13.841788967890389 $620 $725 forward 7 unknown #
coedge $-1 $715 $621 $722 $726 forward $624 $-1 #
vertex $-1 $622 $727 #
straight-curve $-1 71.702627643665892 0 13.841788967890389 0 1 0 I I #
point $-1 67.532418817618492 -23.917261181445554 13.84178896789038 #
straight-curve $-1 67.532418817618463 -14.169579503570983 13.841788967890395 0 1 0 I I #
point $-1 67.532418817618492 -32.761056832838378 13.84178896789038 #
coedge $-1 $719 $728 $633 $680 forward $696 $-1 #
edge $-1 $724 -32.761056832838378 $681 32.761056832838378 $633 $729 forward 7 unknown #
vertex $-1 $634 $730 #
straight-curve $-1 71.702627643665892 -32.761056832838378 0 0 0 -1 I I #
plane-surface $-1 0 32.761056832838378 0 0 -1 0 0 0 -1 forward_v I I I I #
straight-curve $-1 -81.452414250212229 0 9.3941843862280248 0 1 0 I I #
straight-curve $-1 -81.452414250212229 0 13.841788967890393 0 -1 0 I I #
point $-1 -81.452414250212229 32.761056832838378 13.841788967890393 #
point $-1 -81.452414250212229 32.761056832838378 9.3941843862280248 #
point $-1 -81.452414250212229 -32.761056832838378 9.3941843862280248 #
edge $-1 $655 -32.761056832838378 $690 32.761056832838378 $647 $731 forward 7 unknown #
vertex $-1 $657 $732 #
straight-curve $-1 -71.702627643665892 32.761056832838378 0 0 0 -1 I I #
straight-curve $-1 -71.702627643665892 -32.761056832838378 0 0 0 -1 I I #
point $-1 -71.702627643665892 -32.761056832838378 -13.841788967890389 #
straight-curve $-1 0 32.761056832838378 -13.841788967890389 1 0 0 I I #
face $-1 $733 $709 $19 $-1 $734 reversed single #
loop $-1 $-1 $679 $660 #
plane-surface $-1 0 0 -13.841788967890389 0 0 1 1 0 0 forward_v I I I I #
coedge $-1 $713 $662 $702 $735 reversed $615 $-1 #
coedge $-1 $662 $713 $715 $736 reversed $615 $-1 #
coedge $-1 $722 $705 $662 $701 reversed $723 $-1 #
edge $-1 $737 -2.2238022908311841 $738 2.2238022908311841 $700 $739 forward 7 unknown #
coedge $-1 $664 $663 $698 $735 forward $555 $-1 #
coedge $-1 $718 $667 $663 $704 reversed $498 $-1 #
edge $-1 $710 -4.8748933032731685 $740 4.8748933032731685 $703 $741 forward 7 unknown #
coedge $-1 $700 $742 $664 $706 reversed $723 $-1 #
edge $-1 $738 -4.8748933032731685 $711 4.8748933032731685 $705 $743 forward 7 unknown #
coedge $-1 $744 $665 $742 $745 forward $709 $-1 #
coedge $-1 $665 $744 $718 $746 reversed $709 $-1 #
loop $-1 $-1 $665 $695 #
vertex $-1 $746 $747 #
vertex $-1 $745 $748 #
straight-curve $-1 -71.702627643665892 0 9.3941843862280248 0 1 0 I I #
coedge $-1 $699 $698 $667 $714 reversed $615 $-1 #
edge $-1 $716 -2.2238022908311841 $740 2.2238022908311841 $713 $749 forward 7 unknown #
coedge $-1 $668 $673 $699 $736 forward $624 $-1 #
vertex $-1 $736 $750 #
straight-curve $-1 0 -32.761056832838378 13.841788967890389 1 0 0 I I #
coedge $-1 $670 $703 $708 $746 forward $498 $-1 #
coedge $-1 $751 $679 $670 $720 forward $696 $-1 #
edge $-1 $681 -71.702627643665892 $752 71.702627643665892 $670 $753 forward 7 unknown #
coedge $-1 $742 $671 $728 $754 reversed $723 $-1 #
coedge $-1 $671 $700 $673 $726 reversed $723 $-1 #
loop $-1 $-1 $671 $733 #
vertex $-1 $680 $755 #
straight-curve $-1 71.702627643665892 32.761056832838378 0 0 0 -1 I I #
edge $-1 $674 -71.702627643665892 $737 81.452414250212229 $722 $756 forward 7 unknown #
point $-1 71.702627643665892 32.761056832838378 13.841788967890389 #
coedge $-1 $679 $751 $721 $754 forward $696 $-1 #
straight-curve $-1 71.702627643665892 0 -13.841788967890389 0 -1 0 I I #
point $-1 71.702627643665892 -32.761056832838378 -13.841788967890389 #
straight-curve $-1 -71.702627643665892 0 -13.841788967890389 0 1 0 I I #
point $-1 -71.702627643665892 32.761056832838378 -13.841788967890389 #
face $-1 $-1 $723 $19 $-1 $757 reversed single #
plane-surface $-1 -71.702627643665892 0 0 1 0 0 0 0 -1 forward_v I I I I #
edge $-1 $740 -32.761056832838378 $738 32.761056832838378 $698 $758 forward 7 unknown #
edge $-1 $737 -32.761056832838378 $716 32.761056832838378 $699 $759 forward 7 unknown #
vertex $-1 $726 $760 #
vertex $-1 $706 $761 #
straight-curve $-1 -81.452414250212229 32.761056832838378 11.617986677059209 0 0 -1 I I #
vertex $-1 $735 $762 #
straight-curve $-1 -76.57752094693906 -32.761056832838378 9.3941843862280248 -1 0 0 I I #
coedge $-1 $705 $721 $707 $745 reversed $723 $-1 #
straight-curve $-1 -76.57752094693906 32.761056832838378 9.3941843862280248 1 0 0 I I #
coedge $-1 $708 $707 $751 $763 reversed $709 $-1 #
edge $-1 $711 -9.3941843862280248 $764 13.841788967890389 $742 $765 forward 7 unknown #
edge $-1 $710 -9.3941843862280248 $752 13.841788967890389 $708 $766 forward 7 unknown #
point $-1 -71.702627643665892 -32.761056832838378 9.3941843862280248 #
point $-1 -71.702627643665892 32.761056832838378 9.3941843862280248 #
straight-curve $-1 -81.452414250212229 -32.761056832838378 11.617986677059209 0 0 -1 I I #
point $-1 -81.452414250212229 -32.761056832838378 13.841788967890393 #
coedge $-1 $728 $719 $744 $763 forward $696 $-1 #
vertex $-1 $763 $767 #
straight-curve $-1 0 -32.761056832838378 -13.841788967890389 -1 0 0 I I #
edge $-1 $764 -71.702627643665892 $724 71.702627643665892 $721 $768 forward 7 unknown #
point $-1 71.702627643665892 32.761056832838378 -13.841788967890389 #
straight-curve $-1 0 32.761056832838378 13.841788967890389 -1 0 0 I I #
plane-surface $-1 0 32.761056832838378 0 0 -1 0 0 0 -1 forward_v I I I I #
straight-curve $-1 -81.452414250212229 0 9.3941843862280248 0 1 0 I I #
straight-curve $-1 -81.452414250212229 0 13.841788967890393 0 -1 0 I I #
point $-1 -81.452414250212229 32.761056832838378 13.841788967890393 #
point $-1 -81.452414250212229 32.761056832838378 9.3941843862280248 #
point $-1 -81.452414250212229 -32.761056832838378 9.3941843862280248 #
edge $-1 $752 -32.761056832838378 $764 32.761056832838378 $744 $769 forward 7 unknown #
vertex $-1 $754 $770 #
straight-curve $-1 -71.702627643665892 32.761056832838378 0 0 0 -1 I I #
straight-curve $-1 -71.702627643665892 -32.761056832838378 0 0 0 -1 I I #
point $-1 -71.702627643665892 -32.761056832838378 -13.841788967890389 #
straight-curve $-1 0 32.761056832838378 -13.841788967890389 1 0 0 I I #
straight-curve $-1 -71.702627643665892 0 -13.841788967890389 0 1 0 I I #
point $-1 -71.702627643665892 32.761056832838378 -13.841788967890389 #
End-of-ACIS-data 