500 0 17 0           
7 Unknown 11 ACIS 5.0 NT 24 Thu Mar 25 18:08:47 1999 
-1 9.9999999999999995e-007 1e-010 
body $-1 $17 $-1 $18 #
body $-1 $19 $-1 $20 #
body $-1 $21 $-1 $22 #
body $-1 $23 $-1 $24 #
body $-1 $25 $-1 $26 #
body $-1 $27 $-1 $28 #
body $-1 $29 $-1 $30 #
body $-1 $31 $-1 $32 #
body $-1 $33 $-1 $34 #
body $-1 $35 $-1 $36 #
body $-1 $37 $-1 $38 #
body $-1 $39 $-1 $40 #
body $-1 $41 $-1 $42 #
body $-1 $43 $-1 $44 #
body $-1 $45 $-1 $46 #
body $-1 $47 $-1 $48 #
body $-1 $49 $-1 $50 #
lump $-1 $-1 $51 $0 #
transform $-1 1 0 0 0 1 0 0 0 1 51.579943235572372 24.407087004228327 6.1493315674949613 1 rotate no_reflect no_shear #
lump $-1 $-1 $52 $1 #
transform $-1 1 0 0 0 1 0 0 0 1 51.579943235572372 24.407087004228327 6.1493315674949613 1 rotate no_reflect no_shear #
lump $-1 $-1 $53 $2 #
transform $-1 1 0 0 0 1 0 0 0 1 51.579943235572372 24.407087004228327 6.1493315674949613 1 rotate no_reflect no_shear #
lump $-1 $-1 $54 $3 #
transform $-1 1 0 0 0 1 0 0 0 1 51.579943235572372 24.407087004228327 6.1493315674949613 1 rotate no_reflect no_shear #
lump $-1 $-1 $55 $4 #
transform $-1 1 0 0 0 1 0 0 0 1 51.579943235572372 24.407087004228327 6.1493315674949613 1 rotate no_reflect no_shear #
lump $-1 $-1 $56 $5 #
transform $-1 1 0 0 0 1 0 0 0 1 51.579943235572372 24.407087004228327 6.1493315674949613 1 rotate no_reflect no_shear #
lump $-1 $-1 $57 $6 #
transform $-1 1 0 0 0 1 0 0 0 1 51.579943235572372 24.407087004228327 6.1493315674949613 1 rotate no_reflect no_shear #
lump $-1 $-1 $58 $7 #
transform $-1 1 0 0 0 1 0 0 0 1 51.579943235572372 24.407087004228327 6.1493315674949613 1 rotate no_reflect no_shear #
lump $-1 $-1 $59 $8 #
transform $-1 1 0 0 0 1 0 0 0 1 51.579943235572372 24.407087004228327 6.1493315674949613 1 rotate no_reflect no_shear #
lump $-1 $-1 $60 $9 #
transform $-1 1 0 0 0 1 0 0 0 1 51.579943235572372 24.407087004228327 6.1493315674949613 1 rotate no_reflect no_shear #
lump $-1 $-1 $61 $10 #
transform $-1 1 0 0 0 1 0 0 0 1 51.579943235572372 24.407087004228327 6.1493315674949613 1 rotate no_reflect no_shear #
lump $-1 $-1 $62 $11 #
transform $-1 1 0 0 0 1 0 0 0 1 51.579943235572372 24.407087004228327 6.1493315674949613 1 rotate no_reflect no_shear #
lump $-1 $-1 $63 $12 #
transform $-1 1 0 0 0 1 0 0 0 1 51.579943235572372 24.407087004228327 6.1493315674949613 1 rotate no_reflect no_shear #
lump $-1 $-1 $64 $13 #
transform $-1 1 0 0 0 1 0 0 0 1 51.579943235572372 24.407087004228327 6.1493315674949613 1 rotate no_reflect no_shear #
lump $-1 $-1 $65 $14 #
transform $-1 1 0 0 0 1 0 0 0 1 51.579943235572372 24.407087004228327 6.1493315674949613 1 rotate no_reflect no_shear #
lump $-1 $-1 $66 $15 #
transform $-1 1 0 0 0 1 0 0 0 1 51.579943235572372 24.407087004228327 6.1493315674949613 1 rotate no_reflect no_shear #
lump $-1 $-1 $67 $16 #
transform $-1 1 0 0 0 1 0 0 0 1 51.579943235572372 24.407087004228327 6.1493315674949613 1 rotate no_reflect no_shear #
shell $-1 $-1 $-1 $68 $-1 $17 #
shell $-1 $-1 $-1 $69 $-1 $19 #
shell $-1 $-1 $-1 $70 $-1 $21 #
shell $-1 $-1 $-1 $71 $-1 $23 #
shell $-1 $-1 $-1 $72 $-1 $25 #
shell $-1 $-1 $-1 $73 $-1 $27 #
shell $-1 $-1 $-1 $74 $-1 $29 #
shell $-1 $-1 $-1 $75 $-1 $31 #
shell $-1 $-1 $-1 $76 $-1 $33 #
shell $-1 $-1 $-1 $77 $-1 $35 #
shell $-1 $-1 $-1 $78 $-1 $37 #
shell $-1 $-1 $-1 $79 $-1 $39 #
shell $-1 $-1 $-1 $80 $-1 $41 #
shell $-1 $-1 $-1 $81 $-1 $43 #
shell $-1 $-1 $-1 $82 $-1 $45 #
shell $-1 $-1 $-1 $83 $-1 $47 #
shell $-1 $-1 $-1 $84 $-1 $49 #
face $-1 $85 $86 $51 $-1 $87 forward single #
face $-1 $88 $89 $52 $-1 $90 forward single #
face $-1 $91 $92 $53 $-1 $93 reversed single #
face $-1 $94 $95 $54 $-1 $96 forward single #
face $-1 $97 $98 $55 $-1 $99 forward single #
face $-1 $100 $101 $56 $-1 $102 reversed single #
face $-1 $103 $104 $57 $-1 $105 forward single #
face $-1 $106 $107 $58 $-1 $108 forward single #
face $-1 $109 $110 $59 $-1 $111 reversed single #
face $-1 $112 $113 $60 $-1 $114 forward single #
face $-1 $115 $116 $61 $-1 $117 forward single #
face $-1 $118 $119 $62 $-1 $120 reversed single #
face $-1 $121 $122 $63 $-1 $123 forward single #
face $-1 $124 $125 $64 $-1 $126 forward single #
face $-1 $127 $128 $65 $-1 $129 reversed single #
face $-1 $130 $131 $66 $-1 $132 forward single #
face $-1 $133 $134 $67 $-1 $135 forward single #
face $-1 $136 $137 $51 $-1 $138 reversed single #
loop $-1 $-1 $139 $68 #
plane-surface $-1 0 0 6.1493315674949613 0 0 1 1 0 0 forward_v I I I I #
face $-1 $140 $141 $52 $-1 $142 reversed single #
loop $-1 $-1 $143 $69 #
plane-surface $-1 0 -24.407087004228327 0 0 1 0 0 0 1 forward_v I I I I #
face $-1 $144 $145 $53 $-1 $146 reversed single #
loop $-1 $-1 $147 $70 #
plane-surface $-1 46.488453420322728 -10.744146700516961 148.41358704895211 0 -1 0 -0.68199836817093118 0 -0.7313536940579346 forward_v I I I I #
face $-1 $148 $149 $54 $-1 $150 forward single #
loop $-1 $151 $152 $71 #
cone-surface $-1 49.095068708023035 -15.410026446017339 3.7498587239384849 -0.68199836817093118 0 -0.7313536940579346 0.3656768470289673 0 -0.34099918408546559 1 I I 0 1 0.5 forward I I I I #
face $-1 $153 $154 $55 $-1 $155 forward single #
loop $-1 $156 $157 $72 #
cone-surface $-1 49.095068708023035 -12.610498598717111 3.7498587239384849 -0.68199836817093118 0 -0.7313536940579346 0.3656768470289673 0 -0.34099918408546559 1 I I 0 1 0.5 forward I I I I #
face $-1 $158 $159 $56 $-1 $160 reversed single #
loop $-1 $-1 $161 $73 #
plane-surface $-1 46.488453420322728 0.23446382156281409 148.41358704895211 0 -1 0 -0.68199836817093118 0 -0.7313536940579346 forward_v I I I I #
face $-1 $162 $163 $57 $-1 $164 forward single #
loop $-1 $165 $166 $74 #
cone-surface $-1 49.095068708023035 -4.4314159239375641 3.7498587239384849 -0.68199836817093118 0 -0.7313536940579346 0.3656768470289673 0 -0.34099918408546559 1 I I 0 1 0.5 forward I I I I #
face $-1 $167 $168 $58 $-1 $169 forward single #
loop $-1 $170 $171 $75 #
cone-surface $-1 49.095068708023035 -1.6318880766373347 3.7498587239384849 -0.68199836817093118 0 -0.7313536940579346 0.3656768470289673 0 -0.34099918408546559 1 I I 0 1 0.5 forward I I I I #
face $-1 $172 $173 $59 $-1 $174 reversed single #
loop $-1 $-1 $175 $76 #
plane-surface $-1 46.488453420322728 11.213074343642587 148.41358704895211 0 -1 0 -0.68199836817093118 0 -0.7313536940579346 forward_v I I I I #
face $-1 $176 $177 $60 $-1 $178 forward single #
loop $-1 $179 $180 $77 #
cone-surface $-1 49.095068708023035 6.5471945981422088 3.7498587239384849 -0.68199836817093118 0 -0.7313536940579346 0.3656768470289673 0 -0.34099918408546559 1 I I 0 1 0.5 forward I I I I #
face $-1 $181 $182 $61 $-1 $183 forward single #
loop $-1 $184 $185 $78 #
cone-surface $-1 49.095068708023035 9.3467224454424418 3.7498587239384849 -0.68199836817093118 0 -0.7313536940579346 0.3656768470289673 0 -0.34099918408546559 1 I I 0 1 0.5 forward I I I I #
face $-1 $186 $187 $62 $-1 $188 reversed single #
loop $-1 $-1 $189 $79 #
plane-surface $-1 46.488453420322728 22.191684865722365 148.41358704895211 0 -1 0 -0.68199836817093118 0 -0.7313536940579346 forward_v I I I I #
face $-1 $190 $191 $63 $-1 $192 forward single #
loop $-1 $193 $194 $80 #
cone-surface $-1 49.095068708023035 17.525805120221985 3.7498587239384849 -0.68199836817093118 0 -0.7313536940579346 0.3656768470289673 0 -0.34099918408546559 1 I I 0 1 0.5 forward I I I I #
face $-1 $195 $196 $64 $-1 $197 forward single #
loop $-1 $198 $199 $81 #
cone-surface $-1 49.095068708023035 20.325332967522218 3.7498587239384849 -0.68199836817093118 0 -0.7313536940579346 0.3656768470289673 0 -0.34099918408546559 1 I I 0 1 0.5 forward I I I I #
face $-1 $200 $201 $65 $-1 $202 reversed single #
loop $-1 $-1 $203 $82 #
plane-surface $-1 -127.02630891743335 14.638695087611229 70.857639090827803 0 1 0 -0.73135370988377701 0 0.68199835119979291 forward_v I I I I #
face $-1 $204 $205 $66 $-1 $206 forward single #
loop $-1 $207 $208 $83 #
cone-surface $-1 -48.581512939592031 16.676815671253511 2.9850499119222058 0.73135370988377701 0 -0.68199835119979291 0.34099917559989645 0 0.36567685494188851 1 I I 0 1 0.5 forward I I I I #
face $-1 $209 $210 $67 $-1 $211 forward single #
loop $-1 $212 $213 $84 #
cone-surface $-1 -48.581512939592031 19.733996546716927 2.9850499119222058 0.73135370988377701 0 -0.68199835119979291 0.34099917559989645 0 0.36567685494188851 1 I I 0 1 0.5 forward I I I I #
face $-1 $214 $215 $51 $-1 $216 reversed single #
loop $-1 $-1 $217 $85 #
plane-surface $-1 0 0 -6.1493315674949613 0 0 1 1 0 0 forward_v I I I I #
coedge $-1 $218 $219 $220 $221 forward $86 $-1 #
face $-1 $222 $223 $52 $-1 $224 forward single #
loop $-1 $-1 $225 $88 #
plane-surface $-1 -51.579943235572372 0 0 1 0 0 0 0 -1 forward_v I I I I #
coedge $-1 $226 $227 $228 $229 forward $89 $-1 #
face $-1 $230 $231 $53 $-1 $232 reversed single #
loop $-1 $-1 $233 $91 #
plane-surface $-1 -23.866420813696507 -14.010262522367226 72.967222999683244 0.68199836817093118 0 0.7313536940579346 0.7313536940579346 0 -0.68199836817093118 forward_v I I I I #
coedge $-1 $234 $235 $236 $237 reversed $92 $-1 #
face $-1 $-1 $238 $54 $-1 $239 forward single #
loop $-1 $240 $241 $94 #
cone-surface $-1 48.336169388565764 -15.410026446017339 2.9360388577829966 -0.68199836817093118 0 -0.7313536940579346 0.18283842351448365 0 -0.17049959204273279 1 I I -0.70710678118654746 0.70710678118654746 0.25 forward I I I I #
loop $-1 $-1 $242 $71 #
coedge $-1 $152 $152 $243 $244 reversed $95 $-1 #
face $-1 $-1 $245 $55 $-1 $246 forward single #
loop $-1 $247 $248 $97 #
cone-surface $-1 48.336169388565764 -12.610498598717111 2.9360388577829966 -0.68199836817093118 0 -0.7313536940579346 0.18283842351448365 0 -0.17049959204273279 1 I I -0.70710678118654746 0.70710678118654746 0.25 forward I I I I #
loop $-1 $-1 $249 $72 #
coedge $-1 $157 $157 $250 $251 reversed $98 $-1 #
face $-1 $252 $253 $56 $-1 $254 reversed single #
loop $-1 $-1 $255 $100 #
plane-surface $-1 -23.866420813696507 -3.0316520002874512 72.967222999683244 0.68199836817093118 0 0.7313536940579346 0.7313536940579346 0 -0.68199836817093118 forward_v I I I I #
coedge $-1 $256 $257 $258 $259 reversed $101 $-1 #
face $-1 $-1 $260 $57 $-1 $261 forward single #
loop $-1 $262 $263 $103 #
cone-surface $-1 48.336169388565764 -4.4314159239375641 2.9360388577829966 -0.68199836817093118 0 -0.7313536940579346 0.18283842351448365 0 -0.17049959204273279 1 I I -0.70710678118654746 0.70710678118654746 0.25 forward I I I I #
loop $-1 $-1 $264 $74 #
coedge $-1 $166 $166 $265 $266 reversed $104 $-1 #
face $-1 $-1 $267 $58 $-1 $268 forward single #
loop $-1 $269 $270 $106 #
cone-surface $-1 48.336169388565764 -1.6318880766373347 2.9360388577829966 -0.68199836817093118 0 -0.7313536940579346 0.18283842351448365 0 -0.17049959204273279 1 I I -0.70710678118654746 0.70710678118654746 0.25 forward I I I I #
loop $-1 $-1 $271 $75 #
coedge $-1 $171 $171 $272 $273 reversed $107 $-1 #
face $-1 $274 $275 $59 $-1 $276 reversed single #
loop $-1 $-1 $277 $109 #
plane-surface $-1 -23.866420813696507 7.9469585217923218 72.967222999683244 0.68199836817093118 0 0.7313536940579346 0.7313536940579346 0 -0.68199836817093118 forward_v I I I I #
coedge $-1 $278 $279 $280 $281 reversed $110 $-1 #
face $-1 $-1 $282 $60 $-1 $283 forward single #
loop $-1 $284 $285 $112 #
cone-surface $-1 48.336169388565764 6.5471945981422088 2.9360388577829966 -0.68199836817093118 0 -0.7313536940579346 0.18283842351448365 0 -0.17049959204273279 1 I I -0.70710678118654746 0.70710678118654746 0.25 forward I I I I #
loop $-1 $-1 $286 $77 #
coedge $-1 $180 $180 $287 $288 reversed $113 $-1 #
face $-1 $-1 $289 $61 $-1 $290 forward single #
loop $-1 $291 $292 $115 #
cone-surface $-1 48.336169388565764 9.3467224454424418 2.9360388577829966 -0.68199836817093118 0 -0.7313536940579346 0.18283842351448365 0 -0.17049959204273279 1 I I -0.70710678118654746 0.70710678118654746 0.25 forward I I I I #
loop $-1 $-1 $293 $78 #
coedge $-1 $185 $185 $294 $295 reversed $116 $-1 #
face $-1 $296 $297 $62 $-1 $298 reversed single #
loop $-1 $-1 $299 $118 #
plane-surface $-1 -23.866420813696507 18.925569043872098 72.967222999683244 0.68199836817093118 0 0.7313536940579346 0.7313536940579346 0 -0.68199836817093118 forward_v I I I I #
coedge $-1 $300 $301 $302 $303 reversed $119 $-1 #
face $-1 $-1 $304 $63 $-1 $305 forward single #
loop $-1 $306 $307 $121 #
cone-surface $-1 48.336169388565764 17.525805120221985 2.9360388577829966 -0.68199836817093118 0 -0.7313536940579346 0.18283842351448365 0 -0.17049959204273279 1 I I -0.70710678118654746 0.70710678118654746 0.25 forward I I I I #
loop $-1 $-1 $308 $80 #
coedge $-1 $194 $194 $309 $310 reversed $122 $-1 #
face $-1 $-1 $311 $64 $-1 $312 forward single #
loop $-1 $313 $314 $124 #
cone-surface $-1 48.336169388565764 20.325332967522218 2.9360388577829966 -0.68199836817093118 0 -0.7313536940579346 0.18283842351448365 0 -0.17049959204273279 1 I I -0.70710678118654746 0.70710678118654746 0.25 forward I I I I #
loop $-1 $-1 $315 $81 #
coedge $-1 $199 $199 $316 $317 reversed $125 $-1 #
face $-1 $318 $319 $65 $-1 $320 reversed single #
loop $-1 $-1 $321 $127 #
plane-surface $-1 -51.579943235572387 18.205406108985219 0.50276660754926183 -0.73135370988377701 0 0.68199835119979291 0.68199835119979291 0 0.73135370988377701 forward_v I I I I #
coedge $-1 $322 $323 $324 $325 reversed $128 $-1 #
face $-1 $-1 $326 $66 $-1 $327 forward single #
loop $-1 $328 $329 $130 #
cone-surface $-1 -48.032997657179202 16.676815671253511 2.4735511485223611 0.73135370988377701 0 -0.68199835119979291 0.17049958779994823 0 0.18283842747094425 1 I I -0.70710678118654746 0.70710678118654746 0.25 forward I I I I #
loop $-1 $-1 $330 $83 #
coedge $-1 $208 $208 $331 $332 reversed $131 $-1 #
face $-1 $-1 $333 $67 $-1 $334 forward single #
loop $-1 $335 $336 $133 #
cone-surface $-1 -48.032997657179202 19.733996546716927 2.4735511485223611 0.73135370988377701 0 -0.68199835119979291 0.17049958779994823 0 0.18283842747094425 1 I I -0.70710678118654746 0.70710678118654746 0.25 forward I I I I #
loop $-1 $-1 $337 $84 #
coedge $-1 $213 $213 $338 $339 reversed $134 $-1 #
face $-1 $340 $341 $51 $-1 $342 reversed single #
loop $-1 $-1 $343 $136 #
plane-surface $-1 0 -24.407087004228327 0 0 1 0 0 0 1 forward_v I I I I #
coedge $-1 $344 $345 $346 $347 forward $137 $-1 #
coedge $-1 $348 $139 $349 $350 forward $86 $-1 #
coedge $-1 $139 $348 $351 $352 forward $86 $-1 #
coedge $-1 $353 $354 $139 $221 reversed $355 $-1 #
edge $-1 $356 -24.407087004228327 $357 24.407087004228327 $220 $358 forward 7 unknown #
face $-1 $359 $360 $52 $-1 $361 reversed single #
loop $-1 $-1 $362 $140 #
plane-surface $-1 0 -26.864740264980764 -0.23858637337918487 0 0 1 1 0 0 forward_v I I I I #
coedge $-1 $363 $364 $227 $365 forward $141 $-1 #
coedge $-1 $366 $143 $367 $368 reversed $89 $-1 #
coedge $-1 $143 $366 $225 $365 reversed $89 $-1 #
coedge $-1 $369 $362 $143 $229 reversed $223 $-1 #
edge $-1 $370 -51.579943235572372 $371 51.579943235572372 $228 $372 forward 7 unknown #
face $-1 $373 $374 $53 $-1 $375 reversed single #
loop $-1 $-1 $376 $144 #
plane-surface $-1 46.488453420322728 -17.276378344217491 148.41358704895211 0 1 0 0.68199836817093118 0 0.7313536940579346 forward_v I I I I #
coedge $-1 $377 $378 $379 $380 reversed $145 $-1 #
coedge $-1 $235 $147 $381 $382 reversed $92 $-1 #
coedge $-1 $147 $234 $377 $383 reversed $92 $-1 #
coedge $-1 $379 $384 $147 $237 forward $385 $-1 #
edge $-1 $386 -28.335716525411009 $387 -24.542766925141386 $236 $388 forward 7 unknown #
loop $-1 $-1 $243 $148 #
plane-surface $-1 -23.866420813696507 -14.010262522367226 72.967222999683244 0.68199836817093118 0 0.7313536940579346 0.7313536940579346 0 -0.68199836817093118 forward_v I I I I #
loop $-1 $-1 $389 $94 #
coedge $-1 $241 $241 $242 $390 reversed $149 $-1 #
coedge $-1 $242 $242 $241 $390 forward $151 $-1 #
coedge $-1 $243 $243 $152 $244 forward $238 $-1 #
edge $-1 $391 0 $391 6.2831853071796004 $243 $392 forward 7 unknown #
loop $-1 $-1 $250 $153 #
plane-surface $-1 -23.866420813696507 -14.010262522367226 72.967222999683244 0.68199836817093118 0 0.7313536940579346 0.7313536940579346 0 -0.68199836817093118 forward_v I I I I #
loop $-1 $-1 $393 $97 #
coedge $-1 $248 $248 $249 $394 reversed $154 $-1 #
coedge $-1 $249 $249 $248 $394 forward $156 $-1 #
coedge $-1 $250 $250 $157 $251 forward $245 $-1 #
edge $-1 $395 0 $395 6.2831853071796004 $250 $396 forward 7 unknown #
face $-1 $397 $398 $56 $-1 $399 reversed single #
loop $-1 $-1 $400 $158 #
plane-surface $-1 46.488453420322728 -6.2977678221377165 148.41358704895211 0 1 0 0.68199836817093118 0 0.7313536940579346 forward_v I I I I #
coedge $-1 $401 $402 $403 $404 reversed $159 $-1 #
coedge $-1 $257 $161 $405 $406 reversed $101 $-1 #
coedge $-1 $161 $256 $401 $407 reversed $101 $-1 #
coedge $-1 $403 $408 $161 $259 forward $409 $-1 #
edge $-1 $410 -28.335716525411009 $411 -24.542766925141386 $258 $412 forward 7 unknown #
loop $-1 $-1 $265 $162 #
plane-surface $-1 -23.866420813696507 -3.0316520002874512 72.967222999683244 0.68199836817093118 0 0.7313536940579346 0.7313536940579346 0 -0.68199836817093118 forward_v I I I I #
loop $-1 $-1 $413 $103 #
coedge $-1 $263 $263 $264 $414 reversed $163 $-1 #
coedge $-1 $264 $264 $263 $414 forward $165 $-1 #
coedge $-1 $265 $265 $166 $266 forward $260 $-1 #
edge $-1 $415 0 $415 6.2831853071796004 $265 $416 forward 7 unknown #
loop $-1 $-1 $272 $167 #
plane-surface $-1 -23.866420813696507 -3.0316520002874512 72.967222999683244 0.68199836817093118 0 0.7313536940579346 0.7313536940579346 0 -0.68199836817093118 forward_v I I I I #
loop $-1 $-1 $417 $106 #
coedge $-1 $270 $270 $271 $418 reversed $168 $-1 #
coedge $-1 $271 $271 $270 $418 forward $170 $-1 #
coedge $-1 $272 $272 $171 $273 forward $267 $-1 #
edge $-1 $419 0 $419 6.2831853071796004 $272 $420 forward 7 unknown #
face $-1 $421 $422 $59 $-1 $423 reversed single #
loop $-1 $-1 $424 $172 #
plane-surface $-1 46.488453420322728 4.6808426999420565 148.41358704895211 0 1 0 0.68199836817093118 0 0.7313536940579346 forward_v I I I I #
coedge $-1 $425 $426 $427 $428 reversed $173 $-1 #
coedge $-1 $279 $175 $429 $430 reversed $110 $-1 #
coedge $-1 $175 $278 $425 $431 reversed $110 $-1 #
coedge $-1 $427 $432 $175 $281 forward $433 $-1 #
edge $-1 $434 -28.335716525411009 $435 -24.542766925141386 $280 $436 forward 7 unknown #
loop $-1 $-1 $287 $176 #
plane-surface $-1 -23.866420813696507 7.9469585217923218 72.967222999683244 0.68199836817093118 0 0.7313536940579346 0.7313536940579346 0 -0.68199836817093118 forward_v I I I I #
loop $-1 $-1 $437 $112 #
coedge $-1 $285 $285 $286 $438 reversed $177 $-1 #
coedge $-1 $286 $286 $285 $438 forward $179 $-1 #
coedge $-1 $287 $287 $180 $288 forward $282 $-1 #
edge $-1 $439 0 $439 6.2831853071796004 $287 $440 forward 7 unknown #
loop $-1 $-1 $294 $181 #
plane-surface $-1 -23.866420813696507 7.9469585217923218 72.967222999683244 0.68199836817093118 0 0.7313536940579346 0.7313536940579346 0 -0.68199836817093118 forward_v I I I I #
loop $-1 $-1 $441 $115 #
coedge $-1 $292 $292 $293 $442 reversed $182 $-1 #
coedge $-1 $293 $293 $292 $442 forward $184 $-1 #
coedge $-1 $294 $294 $185 $295 forward $289 $-1 #
edge $-1 $443 0 $443 6.2831853071796004 $294 $444 forward 7 unknown #
face $-1 $445 $446 $62 $-1 $447 reversed single #
loop $-1 $-1 $448 $186 #
plane-surface $-1 46.488453420322728 15.659453222021833 148.41358704895211 0 1 0 0.68199836817093118 0 0.7313536940579346 forward_v I I I I #
coedge $-1 $449 $450 $451 $452 reversed $187 $-1 #
coedge $-1 $301 $189 $453 $454 reversed $119 $-1 #
coedge $-1 $189 $300 $449 $455 reversed $119 $-1 #
coedge $-1 $451 $456 $189 $303 forward $457 $-1 #
edge $-1 $458 -28.335716525411009 $459 -24.542766925141386 $302 $460 forward 7 unknown #
loop $-1 $-1 $309 $190 #
plane-surface $-1 -23.866420813696507 18.925569043872098 72.967222999683244 0.68199836817093118 0 0.7313536940579346 0.7313536940579346 0 -0.68199836817093118 forward_v I I I I #
loop $-1 $-1 $461 $121 #
coedge $-1 $307 $307 $308 $462 reversed $191 $-1 #
coedge $-1 $308 $308 $307 $462 forward $193 $-1 #
coedge $-1 $309 $309 $194 $310 forward $304 $-1 #
edge $-1 $463 0 $463 6.2831853071796004 $309 $464 forward 7 unknown #
loop $-1 $-1 $316 $195 #
plane-surface $-1 -23.866420813696507 18.925569043872098 72.967222999683244 0.68199836817093118 0 0.7313536940579346 0.7313536940579346 0 -0.68199836817093118 forward_v I I I I #
loop $-1 $-1 $465 $124 #
coedge $-1 $314 $314 $315 $466 reversed $196 $-1 #
coedge $-1 $315 $315 $314 $466 forward $198 $-1 #
coedge $-1 $316 $316 $199 $317 forward $311 $-1 #
edge $-1 $467 0 $467 6.2831853071796004 $316 $468 forward 7 unknown #
face $-1 $469 $470 $65 $-1 $471 forward single #
loop $-1 $-1 $472 $200 #
plane-surface $-1 -127.02630891743335 21.772117130359209 70.857639090827803 0 -1 0 0.73135370988377701 0 -0.68199835119979291 forward_v I I I I #
coedge $-1 $473 $474 $475 $476 reversed $201 $-1 #
coedge $-1 $323 $203 $477 $478 reversed $128 $-1 #
coedge $-1 $203 $322 $473 $479 reversed $128 $-1 #
coedge $-1 $475 $480 $203 $325 forward $470 $-1 #
edge $-1 $481 11.933211223144305 $482 17.198718105221182 $324 $483 forward 7 unknown #
loop $-1 $-1 $331 $204 #
plane-surface $-1 -51.579943235572387 18.205406108985219 0.50276660754926183 -0.73135370988377701 0 0.68199835119979291 0.68199835119979291 0 0.73135370988377701 forward_v I I I I #
loop $-1 $-1 $484 $130 #
coedge $-1 $329 $329 $330 $485 reversed $205 $-1 #
coedge $-1 $330 $330 $329 $485 forward $207 $-1 #
coedge $-1 $331 $331 $208 $332 forward $326 $-1 #
edge $-1 $486 0 $486 6.2831853071796004 $331 $487 forward 7 unknown #
loop $-1 $-1 $338 $209 #
plane-surface $-1 -51.579943235572387 18.205406108985219 0.50276660754926183 -0.73135370988377701 0 0.68199835119979291 0.68199835119979291 0 0.73135370988377701 forward_v I I I I #
loop $-1 $-1 $488 $133 #
coedge $-1 $336 $336 $337 $489 reversed $210 $-1 #
coedge $-1 $337 $337 $336 $489 forward $212 $-1 #
coedge $-1 $338 $338 $213 $339 forward $333 $-1 #
edge $-1 $490 0 $490 6.2831853071796004 $338 $491 forward 7 unknown #
face $-1 $492 $493 $51 $-1 $494 reversed single #
loop $-1 $-1 $495 $214 #
plane-surface $-1 -51.579943235572372 0 0 1 0 0 0 0 -1 forward_v I I I I #
coedge $-1 $496 $351 $497 $498 forward $215 $-1 #
coedge $-1 $499 $217 $496 $500 forward $137 $-1 #
coedge $-1 $217 $499 $501 $502 forward $137 $-1 #
coedge $-1 $354 $353 $217 $347 reversed $355 $-1 #
edge $-1 $503 -24.407087004228327 $504 24.407087004228327 $346 $505 forward 7 unknown #
coedge $-1 $219 $218 $506 $507 forward $86 $-1 #
coedge $-1 $508 $509 $218 $350 reversed $493 $-1 #
edge $-1 $357 -51.579943235572372 $510 51.579943235572372 $349 $511 forward 7 unknown #
coedge $-1 $343 $512 $219 $352 reversed $215 $-1 #
edge $-1 $513 -51.579943235572372 $356 51.579943235572372 $351 $514 forward 7 unknown #
coedge $-1 $346 $220 $512 $515 forward $355 $-1 #
coedge $-1 $220 $346 $508 $516 reversed $355 $-1 #
loop $-1 $-1 $353 $492 #
vertex $-1 $221 $517 #
vertex $-1 $221 $518 #
straight-curve $-1 51.579943235572372 0 6.1493315674949613 0 1 0 I I #
face $-1 $519 $520 $52 $-1 $521 reversed single #
loop $-1 $-1 $522 $222 #
plane-surface $-1 0 -26.864740264980764 -3.2385863733791851 0 0 1 1 0 0 forward_v I I I I #
coedge $-1 $228 $523 $524 $525 forward $223 $-1 #
coedge $-1 $526 $225 $527 $528 reversed $141 $-1 #
coedge $-1 $225 $526 $369 $529 reversed $141 $-1 #
edge $-1 $370 0.23858637337918487 $530 3.2385863733791851 $225 $531 forward 7 unknown #
coedge $-1 $227 $226 $532 $533 forward $89 $-1 #
coedge $-1 $524 $534 $226 $368 forward $535 $-1 #
edge $-1 $536 -3.2385863733791851 $371 -0.23858637337918487 $367 $537 forward 7 unknown #
coedge $-1 $523 $228 $364 $529 forward $223 $-1 #
vertex $-1 $365 $538 #
vertex $-1 $525 $539 #
straight-curve $-1 0 -24.407087004228327 -0.23858637337918487 1 0 0 I I #
face $-1 $-1 $385 $53 $-1 $540 forward single #
loop $-1 $-1 $541 $230 #
plane-surface $-1 51.579943235572372 0 0 -1 0 0 0 0 1 forward_v I I I I #
coedge $-1 $542 $543 $544 $545 reversed $231 $-1 #
coedge $-1 $546 $233 $235 $383 forward $145 $-1 #
coedge $-1 $233 $546 $542 $547 forward $145 $-1 #
coedge $-1 $544 $236 $233 $380 forward $385 $-1 #
edge $-1 $387 3.7390154393333477 $548 10.271247083033877 $379 $549 forward 7 unknown #
coedge $-1 $550 $551 $234 $382 forward $374 $-1 #
edge $-1 $552 -71.59444475881206 $386 -68.057461956981086 $381 $553 forward 7 unknown #
edge $-1 $387 97.973682270514644 $552 103.15988647114477 $235 $554 forward 7 unknown #
coedge $-1 $236 $544 $550 $555 forward $385 $-1 #
loop $-1 $-1 $544 $373 #
vertex $-1 $382 $556 #
vertex $-1 $237 $557 #
straight-curve $-1 23.244226710161364 -10.744146700516961 6.1493315674949542 -1 0 0 I I #
coedge $-1 $389 $389 $-1 $558 reversed $240 $-1 #
edge $-1 $559 0 $559 6.2831853071796004 $241 $560 forward 7 unknown #
vertex $-1 $244 $561 #
ellipse-curve $-1 49.683468435437561 -15.410026446017339 4.3808401665794774 0.68199836817093118 0 0.7313536940579346 0.3656768470289673 0 -0.34099918408546559 1 I I #
coedge $-1 $393 $393 $-1 $562 reversed $247 $-1 #
edge $-1 $563 0 $563 6.2831853071796004 $248 $564 forward 7 unknown #
vertex $-1 $251 $565 #
ellipse-curve $-1 49.683468435437561 -12.610498598717111 4.3808401665794774 0.68199836817093118 0 0.7313536940579346 0.3656768470289673 0 -0.34099918408546559 1 I I #
face $-1 $-1 $409 $56 $-1 $566 forward single #
loop $-1 $-1 $567 $252 #
plane-surface $-1 51.579943235572372 0 0 -1 0 0 0 0 1 forward_v I I I I #
coedge $-1 $568 $569 $570 $571 reversed $253 $-1 #
coedge $-1 $572 $255 $257 $407 forward $159 $-1 #
coedge $-1 $255 $572 $568 $573 forward $159 $-1 #
coedge $-1 $570 $258 $255 $404 forward $409 $-1 #
edge $-1 $411 -1.7502898217065397 $574 4.7819418219939909 $403 $575 forward 7 unknown #
coedge $-1 $576 $577 $256 $406 forward $398 $-1 #
edge $-1 $578 -71.59444475881206 $410 -68.057461956981086 $405 $579 forward 7 unknown #
edge $-1 $411 97.973682270514644 $578 103.15988647114477 $257 $580 forward 7 unknown #
coedge $-1 $258 $570 $576 $581 forward $409 $-1 #
loop $-1 $-1 $570 $397 #
vertex $-1 $406 $582 #
vertex $-1 $259 $583 #
straight-curve $-1 23.244226710161364 0.23446382156281409 6.1493315674949542 -1 0 0 I I #
coedge $-1 $413 $413 $-1 $584 reversed $262 $-1 #
edge $-1 $585 0 $585 6.2831853071796004 $263 $586 forward 7 unknown #
vertex $-1 $266 $587 #
ellipse-curve $-1 49.683468435437561 -4.4314159239375641 4.3808401665794774 0.68199836817093118 0 0.7313536940579346 0.3656768470289673 0 -0.34099918408546559 1 I I #
coedge $-1 $417 $417 $-1 $588 reversed $269 $-1 #
edge $-1 $589 0 $589 6.2831853071796004 $270 $590 forward 7 unknown #
vertex $-1 $273 $591 #
ellipse-curve $-1 49.683468435437561 -1.6318880766373347 4.3808401665794774 0.68199836817093118 0 0.7313536940579346 0.3656768470289673 0 -0.34099918408546559 1 I I #
face $-1 $-1 $433 $59 $-1 $592 forward single #
loop $-1 $-1 $593 $274 #
plane-surface $-1 51.579943235572372 0 0 -1 0 0 0 0 1 forward_v I I I I #
coedge $-1 $594 $595 $596 $597 reversed $275 $-1 #
coedge $-1 $598 $277 $279 $431 forward $173 $-1 #
coedge $-1 $277 $598 $594 $599 forward $173 $-1 #
coedge $-1 $596 $280 $277 $428 forward $433 $-1 #
edge $-1 $435 -7.2395950827464262 $600 -0.7073634390458956 $427 $601 forward 7 unknown #
coedge $-1 $602 $603 $278 $430 forward $422 $-1 #
edge $-1 $604 -71.59444475881206 $434 -68.057461956981086 $429 $605 forward 7 unknown #
edge $-1 $435 97.973682270514644 $604 103.15988647114477 $279 $606 forward 7 unknown #
coedge $-1 $280 $596 $602 $607 forward $433 $-1 #
loop $-1 $-1 $596 $421 #
vertex $-1 $430 $608 #
vertex $-1 $281 $609 #
straight-curve $-1 23.244226710161364 11.213074343642587 6.1493315674949542 -1 0 0 I I #
coedge $-1 $437 $437 $-1 $610 reversed $284 $-1 #
edge $-1 $611 0 $611 6.2831853071796004 $285 $612 forward 7 unknown #
vertex $-1 $288 $613 #
ellipse-curve $-1 49.683468435437561 6.5471945981422088 4.3808401665794774 0.68199836817093118 0 0.7313536940579346 0.3656768470289673 0 -0.34099918408546559 1 I I #
coedge $-1 $441 $441 $-1 $614 reversed $291 $-1 #
edge $-1 $615 0 $615 6.2831853071796004 $292 $616 forward 7 unknown #
vertex $-1 $295 $617 #
ellipse-curve $-1 49.683468435437561 9.3467224454424418 4.3808401665794774 0.68199836817093118 0 0.7313536940579346 0.3656768470289673 0 -0.34099918408546559 1 I I #
face $-1 $-1 $457 $62 $-1 $618 forward single #
loop $-1 $-1 $619 $296 #
plane-surface $-1 51.579943235572372 0 0 -1 0 0 0 0 1 forward_v I I I I #
coedge $-1 $620 $621 $622 $623 reversed $297 $-1 #
coedge $-1 $624 $299 $301 $455 forward $187 $-1 #
coedge $-1 $299 $624 $620 $625 forward $187 $-1 #
coedge $-1 $622 $302 $299 $452 forward $457 $-1 #
edge $-1 $459 -12.728900343786316 $626 -6.1966687000857839 $451 $627 forward 7 unknown #
coedge $-1 $628 $629 $300 $454 forward $446 $-1 #
edge $-1 $630 -71.59444475881206 $458 -68.057461956981086 $453 $631 forward 7 unknown #
edge $-1 $459 97.973682270514644 $630 103.15988647114477 $301 $632 forward 7 unknown #
coedge $-1 $302 $622 $628 $633 forward $457 $-1 #
loop $-1 $-1 $622 $445 #
vertex $-1 $454 $634 #
vertex $-1 $303 $635 #
straight-curve $-1 23.244226710161364 22.191684865722365 6.1493315674949542 -1 0 0 I I #
coedge $-1 $461 $461 $-1 $636 reversed $306 $-1 #
edge $-1 $637 0 $637 6.2831853071796004 $307 $638 forward 7 unknown #
vertex $-1 $310 $639 #
ellipse-curve $-1 49.683468435437561 17.525805120221985 4.3808401665794774 0.68199836817093118 0 0.7313536940579346 0.3656768470289673 0 -0.34099918408546559 1 I I #
coedge $-1 $465 $465 $-1 $640 reversed $313 $-1 #
edge $-1 $641 0 $641 6.2831853071796004 $314 $642 forward 7 unknown #
vertex $-1 $317 $643 #
ellipse-curve $-1 49.683468435437561 20.325332967522218 4.3808401665794774 0.68199836817093118 0 0.7313536940579346 0.3656768470289673 0 -0.34099918408546559 1 I I #
face $-1 $-1 $644 $65 $-1 $645 reversed single #
loop $-1 $-1 $324 $318 #
plane-surface $-1 0 0 6.1493315674949613 0 0 1 1 0 0 forward_v I I I I #
coedge $-1 $646 $647 $648 $649 reversed $319 $-1 #
coedge $-1 $650 $321 $323 $479 forward $201 $-1 #
coedge $-1 $321 $650 $646 $651 forward $201 $-1 #
coedge $-1 $648 $324 $321 $476 forward $470 $-1 #
edge $-1 $482 5.5359920331186192 $652 12.6694140758666 $475 $653 forward 7 unknown #
coedge $-1 $654 $655 $322 $478 forward $644 $-1 #
edge $-1 $656 -34.926052937864625 $481 -29.27948797791894 $477 $657 forward 7 unknown #
edge $-1 $482 -7.7207032433636309 $656 -2.0815709956562115e-014 $323 $658 forward 7 unknown #
coedge $-1 $324 $648 $654 $659 forward $470 $-1 #
vertex $-1 $325 $660 #
vertex $-1 $325 $661 #
straight-curve $-1 -63.513154458716677 14.638695087611229 6.1493315674949613 1 0 0 I I #
coedge $-1 $484 $484 $-1 $662 reversed $328 $-1 #
edge $-1 $663 0 $663 6.2831853071796004 $329 $664 forward 7 unknown #
vertex $-1 $332 $665 #
ellipse-curve $-1 -48.947189794533934 16.676815671253511 3.3260490875221183 -0.73135370988377701 0 0.68199835119979291 0.34099917559989645 0 0.36567685494188851 1 I I #
coedge $-1 $488 $488 $-1 $666 reversed $335 $-1 #
edge $-1 $667 0 $667 6.2831853071796004 $336 $668 forward 7 unknown #
vertex $-1 $339 $669 #
ellipse-curve $-1 -48.947189794533934 19.733996546716927 3.3260490875221183 -0.73135370988377701 0 0.68199835119979291 0.34099917559989645 0 0.36567685494188851 1 I I #
face $-1 $-1 $355 $51 $-1 $670 reversed single #
loop $-1 $-1 $508 $340 #
plane-surface $-1 0 24.407087004228327 0 0 -1 0 0 0 -1 forward_v I I I I #
coedge $-1 $671 $506 $509 $672 forward $341 $-1 #
coedge $-1 $512 $343 $344 $500 reversed $215 $-1 #
coedge $-1 $506 $671 $343 $498 reversed $341 $-1 #
edge $-1 $513 -6.1493315674949613 $673 6.1493315674949613 $497 $674 forward 7 unknown #
coedge $-1 $345 $344 $671 $675 forward $137 $-1 #
edge $-1 $504 -51.579943235572372 $673 51.579943235572372 $496 $676 forward 7 unknown #
coedge $-1 $509 $508 $345 $502 reversed $493 $-1 #
edge $-1 $677 -51.579943235572372 $503 51.579943235572372 $501 $678 forward 7 unknown #
vertex $-1 $347 $679 #
vertex $-1 $515 $680 #
straight-curve $-1 51.579943235572372 0 -6.1493315674949613 0 -1 0 I I #
coedge $-1 $495 $497 $348 $507 reversed $341 $-1 #
edge $-1 $510 -24.407087004228327 $513 24.407087004228327 $506 $681 forward 7 unknown #
coedge $-1 $501 $349 $354 $516 forward $493 $-1 #
coedge $-1 $349 $501 $495 $672 reversed $493 $-1 #
vertex $-1 $350 $682 #
straight-curve $-1 0 24.407087004228327 6.1493315674949613 -1 0 0 I I #
coedge $-1 $351 $496 $353 $515 reversed $215 $-1 #
vertex $-1 $507 $683 #
straight-curve $-1 0 -24.407087004228327 6.1493315674949613 1 0 0 I I #
edge $-1 $356 -6.1493315674949613 $504 6.1493315674949613 $353 $684 forward 7 unknown #
edge $-1 $357 -6.1493315674949613 $503 6.1493315674949613 $354 $685 forward 7 unknown #
point $-1 51.579943235572372 -24.407087004228327 6.1493315674949613 #
point $-1 51.579943235572372 24.407087004228327 6.1493315674949613 #
face $-1 $-1 $535 $52 $-1 $686 reversed single #
loop $-1 $-1 $687 $359 #
plane-surface $-1 0 -29.322393525733201 -1.7385863733791851 0 1 0 0 0 1 forward_v I I I I #
coedge $-1 $688 $532 $534 $689 forward $360 $-1 #
coedge $-1 $362 $369 $690 $691 forward $223 $-1 #
coedge $-1 $692 $367 $362 $525 reversed $535 $-1 #
edge $-1 $693 -2.4576532607524371 $371 2.4576532607524371 $524 $694 forward 7 unknown #
coedge $-1 $364 $363 $687 $695 reversed $141 $-1 #
coedge $-1 $532 $688 $363 $528 forward $360 $-1 #
edge $-1 $696 -2.4576532607524371 $530 2.4576532607524371 $363 $697 forward 7 unknown #
edge $-1 $370 -2.4576532607524371 $698 2.4576532607524371 $364 $699 forward 7 unknown #
vertex $-1 $365 $700 #
straight-curve $-1 -51.579943235572372 -24.407087004228327 0 0 0 -1 I I #
coedge $-1 $522 $527 $366 $533 reversed $360 $-1 #
edge $-1 $536 -51.579943235572372 $530 51.579943235572372 $532 $701 forward 7 unknown #
coedge $-1 $367 $692 $522 $689 reversed $535 $-1 #
loop $-1 $-1 $367 $519 #
vertex $-1 $368 $702 #
straight-curve $-1 51.579943235572372 -24.407087004228327 0 0 0 1 I I #
point $-1 -51.579943235572372 -24.407087004228327 -0.23858637337918487 #
point $-1 51.579943235572372 -24.407087004228327 -0.23858637337918487 #
plane-surface $-1 0 0 6.1493315674949613 0 0 1 1 0 0 forward_v I I I I #
coedge $-1 $551 $550 $543 $703 forward $374 $-1 #
coedge $-1 $543 $376 $378 $547 reversed $231 $-1 #
coedge $-1 $376 $542 $541 $703 reversed $231 $-1 #
coedge $-1 $384 $379 $376 $545 forward $385 $-1 #
edge $-1 $548 24.542766925141386 $704 28.335716525411009 $544 $705 forward 7 unknown #
coedge $-1 $378 $377 $551 $706 reversed $145 $-1 #
edge $-1 $707 -103.15988647114477 $548 -97.973682270514644 $542 $708 forward 7 unknown #
vertex $-1 $380 $709 #
straight-curve $-1 47.78699363530275 -7.005131261183613 6.1493315674949613 0 -1 0 I I #
coedge $-1 $541 $381 $384 $555 reversed $374 $-1 #
coedge $-1 $381 $541 $546 $706 forward $374 $-1 #
vertex $-1 $382 $710 #
straight-curve $-1 51.579943235572372 -10.744146700516961 74.206793524476055 0 0 1 I I #
straight-curve $-1 -23.866420813696507 -10.744146700516961 72.967222999683244 0.7313536940579346 0 -0.68199836817093118 I I #
edge $-1 $704 -17.276378344217491 $386 -10.744146700516961 $550 $711 forward 7 unknown #
point $-1 51.579943235572372 -10.744146700516961 6.1493315674949613 #
point $-1 47.78699363530275 -10.744146700516961 6.1493315674949685 #
edge $-1 $712 1 $712 0 $389 $-1 forward 7 unknown #
vertex $-1 $390 $713 #
ellipse-curve $-1 48.506668980608495 -15.410026446017339 3.1188772812974803 0.68199836817093118 0 0.7313536940579346 0.3656768470289673 0 -0.34099918408546559 1 I I #
point $-1 50.04914528246654 -15.410026446017339 4.0398409824940238 #
edge $-1 $714 1 $714 0 $393 $-1 forward 7 unknown #
vertex $-1 $394 $715 #
ellipse-curve $-1 48.506668980608495 -12.610498598717111 3.1188772812974803 0.68199836817093118 0 0.7313536940579346 0.3656768470289673 0 -0.34099918408546559 1 I I #
point $-1 50.04914528246654 -12.610498598717111 4.0398409824940238 #
plane-surface $-1 0 0 6.1493315674949613 0 0 1 1 0 0 forward_v I I I I #
coedge $-1 $577 $576 $569 $716 forward $398 $-1 #
coedge $-1 $569 $400 $402 $573 reversed $253 $-1 #
coedge $-1 $400 $568 $567 $716 reversed $253 $-1 #
coedge $-1 $408 $403 $400 $571 forward $409 $-1 #
edge $-1 $574 24.542766925141386 $717 28.335716525411009 $570 $718 forward 7 unknown #
coedge $-1 $402 $401 $577 $719 reversed $159 $-1 #
edge $-1 $720 -103.15988647114477 $574 -97.973682270514644 $568 $721 forward 7 unknown #
vertex $-1 $404 $722 #
straight-curve $-1 47.78699363530275 -1.5158260001437256 6.1493315674949613 0 -1 0 I I #
coedge $-1 $567 $405 $408 $581 reversed $398 $-1 #
coedge $-1 $405 $567 $572 $719 forward $398 $-1 #
vertex $-1 $406 $723 #
straight-curve $-1 51.579943235572372 0.23446382156281409 74.206793524476055 0 0 1 I I #
straight-curve $-1 -23.866420813696507 0.23446382156281409 72.967222999683244 0.7313536940579346 0 -0.68199836817093118 I I #
edge $-1 $717 -6.2977678221377165 $410 0.23446382156281409 $576 $724 forward 7 unknown #
point $-1 51.579943235572372 0.23446382156281409 6.1493315674949613 #
point $-1 47.78699363530275 0.23446382156281409 6.1493315674949685 #
edge $-1 $725 1 $725 0 $413 $-1 forward 7 unknown #
vertex $-1 $414 $726 #
ellipse-curve $-1 48.506668980608495 -4.4314159239375641 3.1188772812974803 0.68199836817093118 0 0.7313536940579346 0.3656768470289673 0 -0.34099918408546559 1 I I #
point $-1 50.04914528246654 -4.4314159239375641 4.0398409824940238 #
edge $-1 $727 1 $727 0 $417 $-1 forward 7 unknown #
vertex $-1 $418 $728 #
ellipse-curve $-1 48.506668980608495 -1.6318880766373347 3.1188772812974803 0.68199836817093118 0 0.7313536940579346 0.3656768470289673 0 -0.34099918408546559 1 I I #
point $-1 50.04914528246654 -1.6318880766373347 4.0398409824940238 #
plane-surface $-1 0 0 6.1493315674949613 0 0 1 1 0 0 forward_v I I I I #
coedge $-1 $603 $602 $595 $729 forward $422 $-1 #
coedge $-1 $595 $424 $426 $599 reversed $275 $-1 #
coedge $-1 $424 $594 $593 $729 reversed $275 $-1 #
coedge $-1 $432 $427 $424 $597 forward $433 $-1 #
edge $-1 $600 24.542766925141386 $730 28.335716525411009 $596 $731 forward 7 unknown #
coedge $-1 $426 $425 $603 $732 reversed $173 $-1 #
edge $-1 $733 -103.15988647114477 $600 -97.973682270514644 $594 $734 forward 7 unknown #
vertex $-1 $428 $735 #
straight-curve $-1 47.78699363530275 3.9734792608961609 6.1493315674949613 0 -1 0 I I #
coedge $-1 $593 $429 $432 $607 reversed $422 $-1 #
coedge $-1 $429 $593 $598 $732 forward $422 $-1 #
vertex $-1 $430 $736 #
straight-curve $-1 51.579943235572372 11.213074343642587 74.206793524476055 0 0 1 I I #
straight-curve $-1 -23.866420813696507 11.213074343642587 72.967222999683244 0.7313536940579346 0 -0.68199836817093118 I I #
edge $-1 $730 4.6808426999420565 $434 11.213074343642587 $602 $737 forward 7 unknown #
point $-1 51.579943235572372 11.213074343642587 6.1493315674949613 #
point $-1 47.78699363530275 11.213074343642587 6.1493315674949685 #
edge $-1 $738 1 $738 0 $437 $-1 forward 7 unknown #
vertex $-1 $438 $739 #
ellipse-curve $-1 48.506668980608495 6.5471945981422088 3.1188772812974803 0.68199836817093118 0 0.7313536940579346 0.3656768470289673 0 -0.34099918408546559 1 I I #
point $-1 50.04914528246654 6.5471945981422088 4.0398409824940238 #
edge $-1 $740 1 $740 0 $441 $-1 forward 7 unknown #
vertex $-1 $442 $741 #
ellipse-curve $-1 48.506668980608495 9.3467224454424418 3.1188772812974803 0.68199836817093118 0 0.7313536940579346 0.3656768470289673 0 -0.34099918408546559 1 I I #
point $-1 50.04914528246654 9.3467224454424418 4.0398409824940238 #
plane-surface $-1 0 0 6.1493315674949613 0 0 1 1 0 0 forward_v I I I I #
coedge $-1 $629 $628 $621 $742 forward $446 $-1 #
coedge $-1 $621 $448 $450 $625 reversed $297 $-1 #
coedge $-1 $448 $620 $619 $742 reversed $297 $-1 #
coedge $-1 $456 $451 $448 $623 forward $457 $-1 #
edge $-1 $626 24.542766925141386 $743 28.335716525411009 $622 $744 forward 7 unknown #
coedge $-1 $450 $449 $629 $745 reversed $187 $-1 #
edge $-1 $746 -103.15988647114477 $626 -97.973682270514644 $620 $747 forward 7 unknown #
vertex $-1 $452 $748 #
straight-curve $-1 47.78699363530275 9.4627845219360491 6.1493315674949613 0 -1 0 I I #
coedge $-1 $619 $453 $456 $633 reversed $446 $-1 #
coedge $-1 $453 $619 $624 $745 forward $446 $-1 #
vertex $-1 $454 $749 #
straight-curve $-1 51.579943235572372 22.191684865722365 74.206793524476055 0 0 1 I I #
straight-curve $-1 -23.866420813696507 22.191684865722365 72.967222999683244 0.7313536940579346 0 -0.68199836817093118 I I #
edge $-1 $743 15.659453222021833 $458 22.191684865722365 $628 $750 forward 7 unknown #
point $-1 51.579943235572372 22.191684865722365 6.1493315674949613 #
point $-1 47.78699363530275 22.191684865722365 6.1493315674949685 #
edge $-1 $751 1 $751 0 $461 $-1 forward 7 unknown #
vertex $-1 $462 $752 #
ellipse-curve $-1 48.506668980608495 17.525805120221985 3.1188772812974803 0.68199836817093118 0 0.7313536940579346 0.3656768470289673 0 -0.34099918408546559 1 I I #
point $-1 50.04914528246654 17.525805120221985 4.0398409824940238 #
edge $-1 $753 1 $753 0 $465 $-1 forward 7 unknown #
vertex $-1 $466 $754 #
ellipse-curve $-1 48.506668980608495 20.325332967522218 3.1188772812974803 0.68199836817093118 0 0.7313536940579346 0.3656768470289673 0 -0.34099918408546559 1 I I #
point $-1 50.04914528246654 20.325332967522218 4.0398409824940238 #
loop $-1 $-1 $477 $469 #
plane-surface $-1 -51.579943235572372 0 0 1 0 0 0 0 -1 forward_v I I I I #
coedge $-1 $647 $472 $474 $651 reversed $319 $-1 #
coedge $-1 $472 $646 $755 $756 reversed $319 $-1 #
coedge $-1 $480 $475 $472 $649 forward $470 $-1 #
edge $-1 $652 -17.198718105221182 $757 -11.933211223144305 $648 $758 forward 7 unknown #
coedge $-1 $474 $473 $655 $759 reversed $201 $-1 #
edge $-1 $760 2.0815709956562115e-014 $652 7.7207032433636309 $646 $761 forward 7 unknown #
vertex $-1 $476 $762 #
straight-curve $-1 -46.314436353495495 9.1027030544926095 6.1493315674949596 0 1 0 I I #
coedge $-1 $755 $477 $480 $659 reversed $644 $-1 #
coedge $-1 $477 $755 $650 $759 forward $644 $-1 #
vertex $-1 $478 $763 #
straight-curve $-1 -51.579943235572372 14.638695087611229 35.428819545413901 0 0 1 I I #
straight-curve $-1 -51.579943235572387 14.638695087611229 0.50276660754926183 -0.68199835119979291 0 -0.73135370988377701 I I #
edge $-1 $757 -21.772117130359209 $481 -14.638695087611229 $654 $764 forward 7 unknown #
point $-1 -51.579943235572372 14.638695087611229 6.1493315674949613 #
point $-1 -46.314436353495495 14.638695087611229 6.1493315674949613 #
edge $-1 $765 1 $765 0 $484 $-1 forward 7 unknown #
vertex $-1 $485 $766 #
ellipse-curve $-1 -48.215836084650149 16.676815671253511 2.6440507363223094 -0.73135370988377701 0 0.68199835119979291 0.34099917559989645 0 0.36567685494188851 1 I I #
point $-1 -48.606190618934029 16.676815671253511 3.6917259424639908 #
edge $-1 $767 1 $767 0 $488 $-1 forward 7 unknown #
vertex $-1 $489 $768 #
ellipse-curve $-1 -48.215836084650149 19.733996546716927 2.6440507363223094 -0.73135370988377701 0 0.68199835119979291 0.34099917559989645 0 0.36567685494188851 1 I I #
point $-1 -48.606190618934029 19.733996546716927 3.6917259424639908 #
plane-surface $-1 51.579943235572372 0 0 -1 0 0 0 0 1 forward_v I I I I #
coedge $-1 $497 $495 $499 $675 reversed $341 $-1 #
edge $-1 $510 -6.1493315674949613 $677 6.1493315674949613 $509 $769 forward 7 unknown #
vertex $-1 $675 $770 #
straight-curve $-1 -51.579943235572372 -24.407087004228327 0 0 0 -1 I I #
edge $-1 $673 -24.407087004228327 $677 24.407087004228327 $671 $771 forward 7 unknown #
straight-curve $-1 0 -24.407087004228327 -6.1493315674949613 -1 0 0 I I #
vertex $-1 $502 $772 #
straight-curve $-1 0 24.407087004228327 -6.1493315674949613 1 0 0 I I #
point $-1 51.579943235572372 24.407087004228327 -6.1493315674949613 #
point $-1 51.579943235572372 -24.407087004228327 -6.1493315674949613 #
straight-curve $-1 -51.579943235572372 0 6.1493315674949613 0 -1 0 I I #
point $-1 -51.579943235572372 24.407087004228327 6.1493315674949613 #
point $-1 -51.579943235572372 -24.407087004228327 6.1493315674949613 #
straight-curve $-1 51.579943235572372 -24.407087004228327 0 0 0 -1 I I #
straight-curve $-1 51.579943235572372 24.407087004228327 0 0 0 -1 I I #
plane-surface $-1 51.579943235572372 0 0 -1 0 0 0 0 1 forward_v I I I I #
coedge $-1 $773 $690 $526 $695 forward $520 $-1 #
coedge $-1 $527 $522 $773 $774 forward $360 $-1 #
edge $-1 $536 -2.4576532607524371 $775 2.4576532607524371 $534 $776 forward 7 unknown #
coedge $-1 $687 $777 $523 $691 reversed $520 $-1 #
edge $-1 $698 -51.579943235572372 $693 51.579943235572372 $690 $778 forward 7 unknown #
coedge $-1 $534 $524 $777 $779 forward $535 $-1 #
vertex $-1 $525 $780 #
straight-curve $-1 51.579943235572372 -26.864740264980764 -0.23858637337918487 0 1 0 I I #
edge $-1 $698 -1.5000000000000002 $696 1.5 $526 $781 forward 7 unknown #
vertex $-1 $528 $782 #
straight-curve $-1 -51.579943235572372 -26.864740264980764 -3.2385863733791851 0 1 0 I I #
vertex $-1 $529 $783 #
straight-curve $-1 -51.579943235572372 -26.864740264980764 -0.23858637337918487 0 -1 0 I I #
point $-1 -51.579943235572372 -24.407087004228327 -3.2385863733791851 #
straight-curve $-1 0 -24.407087004228327 -3.2385863733791851 -1 0 0 I I #
point $-1 51.579943235572372 -24.407087004228327 -3.2385863733791851 #
edge $-1 $704 68.057461956981086 $707 71.59444475881206 $541 $784 forward 7 unknown #
vertex $-1 $555 $785 #
straight-curve $-1 23.244226710161364 -17.276378344217491 6.1493315674949542 1 0 0 I I #
edge $-1 $707 -10.271247083033877 $552 -3.7390154393333477 $551 $786 forward 7 unknown #
vertex $-1 $706 $787 #
straight-curve $-1 -23.866420813696507 -17.276378344217491 72.967222999683244 -0.7313536940579346 0 0.68199836817093118 I I #
point $-1 47.78699363530275 -17.276378344217491 6.1493315674949685 #
point $-1 51.579943235572372 -10.744146700516961 2.6123487656639952 #
straight-curve $-1 51.579943235572372 0 6.1493315674949613 0 1 0 I I #
vertex $-1 $558 $788 #
point $-1 48.872345827637467 -15.410026446017339 2.7778780972120147 #
vertex $-1 $562 $789 #
point $-1 48.872345827637467 -12.610498598717111 2.7778780972120147 #
edge $-1 $717 68.057461956981086 $720 71.59444475881206 $567 $790 forward 7 unknown #
vertex $-1 $581 $791 #
straight-curve $-1 23.244226710161364 -6.2977678221377165 6.1493315674949542 1 0 0 I I #
edge $-1 $720 -4.7819418219939909 $578 1.7502898217065397 $577 $792 forward 7 unknown #
vertex $-1 $719 $793 #
straight-curve $-1 -23.866420813696507 -6.2977678221377165 72.967222999683244 -0.7313536940579346 0 0.68199836817093118 I I #
point $-1 47.78699363530275 -6.2977678221377165 6.1493315674949685 #
point $-1 51.579943235572372 0.23446382156281409 2.6123487656639952 #
straight-curve $-1 51.579943235572372 0 6.1493315674949613 0 1 0 I I #
vertex $-1 $584 $794 #
point $-1 48.872345827637467 -4.4314159239375641 2.7778780972120147 #
vertex $-1 $588 $795 #
point $-1 48.872345827637467 -1.6318880766373347 2.7778780972120147 #
edge $-1 $730 68.057461956981086 $733 71.59444475881206 $593 $796 forward 7 unknown #
vertex $-1 $607 $797 #
straight-curve $-1 23.244226710161364 4.6808426999420565 6.1493315674949542 1 0 0 I I #
edge $-1 $733 0.7073634390458956 $604 7.2395950827464262 $603 $798 forward 7 unknown #
vertex $-1 $732 $799 #
straight-curve $-1 -23.866420813696507 4.6808426999420565 72.967222999683244 -0.7313536940579346 0 0.68199836817093118 I I #
point $-1 47.78699363530275 4.6808426999420565 6.1493315674949685 #
point $-1 51.579943235572372 11.213074343642587 2.6123487656639952 #
straight-curve $-1 51.579943235572372 0 6.1493315674949613 0 1 0 I I #
vertex $-1 $610 $800 #
point $-1 48.872345827637467 6.5471945981422088 2.7778780972120147 #
vertex $-1 $614 $801 #
point $-1 48.872345827637467 9.3467224454424418 2.7778780972120147 #
edge $-1 $743 68.057461956981086 $746 71.59444475881206 $619 $802 forward 7 unknown #
vertex $-1 $633 $803 #
straight-curve $-1 23.244226710161364 15.659453222021833 6.1493315674949542 1 0 0 I I #
edge $-1 $746 6.1966687000857839 $630 12.728900343786316 $629 $804 forward 7 unknown #
vertex $-1 $745 $805 #
straight-curve $-1 -23.866420813696507 15.659453222021833 72.967222999683244 -0.7313536940579346 0 0.68199836817093118 I I #
point $-1 47.78699363530275 15.659453222021833 6.1493315674949685 #
point $-1 51.579943235572372 22.191684865722365 2.6123487656639952 #
straight-curve $-1 51.579943235572372 0 6.1493315674949613 0 1 0 I I #
vertex $-1 $636 $806 #
point $-1 48.872345827637467 17.525805120221985 2.7778780972120147 #
vertex $-1 $640 $807 #
point $-1 48.872345827637467 20.325332967522218 2.7778780972120147 #
coedge $-1 $655 $654 $647 $756 forward $644 $-1 #
edge $-1 $757 29.27948797791894 $760 34.926052937864625 $755 $808 forward 7 unknown #
vertex $-1 $659 $809 #
straight-curve $-1 -63.513154458716677 21.772117130359209 6.1493315674949613 -1 0 0 I I #
edge $-1 $760 -12.6694140758666 $656 -5.5359920331186192 $655 $810 forward 7 unknown #
vertex $-1 $759 $811 #
straight-curve $-1 -51.579943235572387 21.772117130359209 0.50276660754926183 0.68199835119979291 0 0.73135370988377701 I I #
point $-1 -46.314436353495495 21.772117130359209 6.1493315674949613 #
point $-1 -51.579943235572372 14.638695087611229 0.50276660754927704 #
straight-curve $-1 -51.579943235572372 0 6.1493315674949613 0 -1 0 I I #
vertex $-1 $662 $812 #
point $-1 -47.874836909050252 16.676815671253511 3.0097275912641979 #
vertex $-1 $666 $813 #
point $-1 -47.874836909050252 19.733996546716927 3.0097275912641979 #
straight-curve $-1 -51.579943235572372 24.407087004228327 0 0 0 -1 I I #
point $-1 -51.579943235572372 -24.407087004228327 -6.1493315674949613 #
straight-curve $-1 -51.579943235572372 0 -6.1493315674949613 0 1 0 I I #
point $-1 -51.579943235572372 24.407087004228327 -6.1493315674949613 #
coedge $-1 $777 $687 $688 $774 reversed $520 $-1 #
edge $-1 $775 -51.579943235572372 $696 51.579943235572372 $773 $814 forward 7 unknown #
vertex $-1 $779 $815 #
straight-curve $-1 51.579943235572372 -26.864740264980764 -3.2385863733791851 0 -1 0 I I #
coedge $-1 $690 $773 $692 $779 reversed $520 $-1 #
straight-curve $-1 0 -29.322393525733201 -0.23858637337918487 1 0 0 I I #
edge $-1 $693 -1.5000000000000002 $775 1.5 $692 $816 forward 7 unknown #
point $-1 51.579943235572372 -29.322393525733201 -0.23858637337918487 #
straight-curve $-1 -51.579943235572372 -29.322393525733201 -1.7385863733791851 0 0 -1 I I #
point $-1 -51.579943235572372 -29.322393525733201 -3.2385863733791851 #
point $-1 -51.579943235572372 -29.322393525733201 -0.23858637337918487 #
straight-curve $-1 51.579943235572372 -17.276378344217491 74.206793524476055 0 0 -1 I I #
point $-1 51.579943235572372 -17.276378344217491 6.1493315674949613 #
straight-curve $-1 51.579943235572358 -7.005131261183613 2.6123487656639952 0 1 0 I I #
point $-1 51.579943235572372 -17.276378344217491 2.6123487656639952 #
point $-1 48.165669796523034 -15.410026446017339 2.7532004342685128 #
point $-1 48.165669796523034 -12.610498598717111 2.7532004342685128 #
straight-curve $-1 51.579943235572372 -6.2977678221377165 74.206793524476055 0 0 -1 I I #
point $-1 51.579943235572372 -6.2977678221377165 6.1493315674949613 #
straight-curve $-1 51.579943235572358 -1.5158260001437256 2.6123487656639952 0 1 0 I I #
point $-1 51.579943235572372 -6.2977678221377165 2.6123487656639952 #
point $-1 48.165669796523034 -4.4314159239375641 2.7532004342685128 #
point $-1 48.165669796523034 -1.6318880766373347 2.7532004342685128 #
straight-curve $-1 51.579943235572372 4.6808426999420565 74.206793524476055 0 0 -1 I I #
point $-1 51.579943235572372 4.6808426999420565 6.1493315674949613 #
straight-curve $-1 51.579943235572358 3.9734792608961609 2.6123487656639952 0 1 0 I I #
point $-1 51.579943235572372 4.6808426999420565 2.6123487656639952 #
point $-1 48.165669796523034 6.5471945981422088 2.7532004342685128 #
point $-1 48.165669796523034 9.3467224454424418 2.7532004342685128 #
straight-curve $-1 51.579943235572372 15.659453222021833 74.206793524476055 0 0 -1 I I #
point $-1 51.579943235572372 15.659453222021833 6.1493315674949613 #
straight-curve $-1 51.579943235572358 9.4627845219360491 2.6123487656639952 0 1 0 I I #
point $-1 51.579943235572372 15.659453222021833 2.6123487656639952 #
point $-1 48.165669796523034 17.525805120221985 2.7532004342685128 #
point $-1 48.165669796523034 20.325332967522218 2.7532004342685128 #
straight-curve $-1 -51.579943235572372 21.772117130359209 35.428819545413901 0 0 -1 I I #
point $-1 -51.579943235572372 21.772117130359209 6.1493315674949613 #
straight-curve $-1 -51.579943235572372 9.1027030544926095 0.50276660754927804 0 -1 0 I I #
point $-1 -51.579943235572372 21.772117130359209 0.50276660754927704 #
point $-1 -47.850159229708254 16.676815671253511 2.3030515607224129 #
point $-1 -47.850159229708254 19.733996546716927 2.3030515607224129 #
straight-curve $-1 0 -29.322393525733201 -3.2385863733791851 -1 0 0 I I #
point $-1 51.579943235572372 -29.322393525733201 -3.2385863733791851 #
straight-curve $-1 51.579943235572372 -29.322393525733201 -1.7385863733791851 0 0 -1 I I #
End-of-ACIS-data 