500 0 11 0           
7 Unknown 11 ACIS 5.0 NT 24 Thu Mar 25 22:49:41 1999 
-1 9.9999999999999995e-007 1e-010 
body $-1 $11 $-1 $12 #
body $-1 $13 $-1 $14 #
body $-1 $15 $-1 $16 #
body $-1 $17 $-1 $18 #
body $-1 $19 $-1 $20 #
body $-1 $21 $-1 $22 #
body $-1 $23 $-1 $24 #
body $-1 $25 $-1 $26 #
body $-1 $27 $-1 $28 #
body $-1 $29 $-1 $30 #
body $-1 $31 $-1 $32 #
lump $-1 $-1 $33 $0 #
transform $-1 1 0 0 0 1 0 0 0 1 44.143192846461375 28.334656927494088 8.0551468309882797 1 rotate no_reflect no_shear #
lump $-1 $-1 $34 $1 #
transform $-1 1 0 0 0 1 0 0 0 1 44.143192846461375 28.334656927494088 8.0551468309882797 1 rotate no_reflect no_shear #
lump $-1 $-1 $35 $2 #
transform $-1 1 0 0 0 1 0 0 0 1 44.143192846461375 28.334656927494088 8.0551468309882797 1 rotate no_reflect no_shear #
lump $-1 $-1 $36 $3 #
transform $-1 1 0 0 0 1 0 0 0 1 44.143192846461375 28.334656927494088 8.0551468309882797 1 rotate no_reflect no_shear #
lump $-1 $-1 $37 $4 #
transform $-1 1 0 0 0 1 0 0 0 1 44.143192846461375 28.334656927494088 8.0551468309882797 1 rotate no_reflect no_shear #
lump $-1 $-1 $38 $5 #
transform $-1 1 0 0 0 1 0 0 0 1 44.143192846461375 28.334656927494088 8.0551468309882797 1 rotate no_reflect no_shear #
lump $-1 $-1 $39 $6 #
transform $-1 1 0 0 0 1 0 0 0 1 44.143192846461375 28.334656927494088 8.0551468309882797 1 rotate no_reflect no_shear #
lump $-1 $-1 $40 $7 #
transform $-1 1 0 0 0 1 0 0 0 1 44.143192846461375 28.334656927494088 8.0551468309882797 1 rotate no_reflect no_shear #
lump $-1 $-1 $41 $8 #
transform $-1 1 0 0 0 1 0 0 0 1 44.143192846461375 28.334656927494088 8.0551468309882797 1 rotate no_reflect no_shear #
lump $-1 $-1 $42 $9 #
transform $-1 1 0 0 0 1 0 0 0 1 44.143192846461375 28.334656927494088 8.0551468309882797 1 rotate no_reflect no_shear #
lump $-1 $-1 $43 $10 #
transform $-1 1 0 0 0 1 0 0 0 1 44.143192846461375 28.334656927494088 8.0551468309882797 1 rotate no_reflect no_shear #
shell $-1 $-1 $-1 $44 $-1 $11 #
shell $-1 $-1 $-1 $45 $-1 $13 #
shell $-1 $-1 $-1 $46 $-1 $15 #
shell $-1 $-1 $-1 $47 $-1 $17 #
shell $-1 $-1 $-1 $48 $-1 $19 #
shell $-1 $-1 $-1 $49 $-1 $21 #
shell $-1 $-1 $-1 $50 $-1 $23 #
shell $-1 $-1 $-1 $51 $-1 $25 #
shell $-1 $-1 $-1 $52 $-1 $27 #
shell $-1 $-1 $-1 $53 $-1 $29 #
shell $-1 $-1 $-1 $54 $-1 $31 #
face $-1 $55 $56 $33 $-1 $57 forward single #
face $-1 $58 $59 $34 $-1 $60 reversed single #
face $-1 $61 $62 $35 $-1 $63 reversed single #
face $-1 $64 $65 $36 $-1 $66 forward single #
face $-1 $67 $68 $37 $-1 $69 forward single #
face $-1 $70 $71 $38 $-1 $72 reversed single #
face $-1 $73 $74 $39 $-1 $75 forward single #
face $-1 $76 $77 $40 $-1 $78 forward single #
face $-1 $79 $80 $41 $-1 $81 reversed single #
face $-1 $82 $83 $42 $-1 $84 forward single #
face $-1 $85 $86 $43 $-1 $87 forward single #
face $-1 $88 $89 $33 $-1 $90 reversed single #
loop $-1 $-1 $91 $44 #
plane-surface $-1 0 0 8.0551468309882797 0 0 1 1 0 0 forward_v I I I I #
face $-1 $92 $93 $34 $-1 $94 reversed single #
loop $-1 $-1 $95 $45 #
plane-surface $-1 -33.936472935666302 -24.381066373988716 0 1 0 0 0 0 -1 forward_v I I I I #
face $-1 $96 $97 $35 $-1 $98 reversed single #
loop $-1 $-1 $99 $46 #
plane-surface $-1 44.143194295107293 18.756221716041118 127.23365301748409 0 1 0 0.70710678939079041 0 0.70710677298230451 forward_v I I I I #
face $-1 $100 $101 $36 $-1 $102 forward single #
loop $-1 $103 $104 $47 #
cone-surface $-1 40.183568144096661 21.492917490741966 4.095522088764767 -0.70710678939079041 0 -0.70710677298230451 0.70710677298230451 0 -0.70710678939079041 1 I I 0 1 1 forward I I I I #
face $-1 $105 $106 $37 $-1 $107 forward single #
loop $-1 $108 $109 $48 #
cone-surface $-1 40.183568144096661 25.597961152793239 4.095522088764767 -0.70710678939079041 0 -0.70710677298230451 0.70710677298230451 0 -0.70710678939079041 1 I I 0 1 1 forward I I I I #
face $-1 $110 $111 $38 $-1 $112 reversed single #
loop $-1 $-1 $113 $49 #
plane-surface $-1 -102.06427402160782 -20.427475820483341 71.087755286288882 0 1 0 -0.6560590369687036 0 0.75470957328743171 forward_v I I I I #
face $-1 $114 $115 $39 $-1 $116 forward single #
loop $-1 $117 $118 $50 #
cone-surface $-1 -41.206005236426883 -17.67927992074371 5.2579965475930113 0.6560590369687036 0 -0.75470957328743171 0.75470957328743171 0 0.6560590369687036 1 I I 0 1 1 forward I I I I #
face $-1 $119 $120 $40 $-1 $121 forward single #
loop $-1 $122 $123 $51 #
cone-surface $-1 -41.206005236426883 -13.556986071134261 5.2579965475930113 0.6560590369687036 0 -0.75470957328743171 0.75470957328743171 0 0.6560590369687036 1 I I 0 1 1 forward I I I I #
face $-1 $124 $125 $41 $-1 $126 reversed single #
loop $-1 $-1 $127 $52 #
plane-surface $-1 -102.06427402160782 18.71597127840537 71.087755286288882 0 1 0 -0.6560590369687036 0 0.75470957328743171 forward_v I I I I #
face $-1 $128 $129 $42 $-1 $130 forward single #
loop $-1 $131 $132 $53 #
cone-surface $-1 -41.206005236426883 21.464167178145004 5.2579965475930113 0.6560590369687036 0 -0.75470957328743171 0.75470957328743171 0 0.6560590369687036 1 I I 0 1 1 forward I I I I #
face $-1 $133 $134 $43 $-1 $135 forward single #
loop $-1 $136 $137 $54 #
cone-surface $-1 -41.206005236426883 25.586461027754453 5.2579965475930113 0.6560590369687036 0 -0.75470957328743171 0.75470957328743171 0 0.6560590369687036 1 I I 0 1 1 forward I I I I #
face $-1 $138 $139 $33 $-1 $140 reversed single #
loop $-1 $-1 $141 $55 #
plane-surface $-1 0 0 -8.0551468309882797 0 0 1 1 0 0 forward_v I I I I #
coedge $-1 $142 $143 $144 $145 forward $56 $-1 #
face $-1 $146 $147 $34 $-1 $148 reversed single #
loop $-1 $-1 $149 $58 #
plane-surface $-1 -32.436472935666302 -20.427475820483345 0 0 -1 0 0 0 -1 forward_v I I I I #
coedge $-1 $150 $151 $152 $153 forward $59 $-1 #
face $-1 $154 $155 $35 $-1 $156 reversed single #
loop $-1 $-1 $157 $61 #
plane-surface $-1 -18.284708439132324 23.545439321767603 64.805751731890382 0.70710678939079041 0 0.70710677298230451 0.70710677298230451 0 -0.70710678939079041 forward_v I I I I #
coedge $-1 $158 $159 $160 $161 reversed $62 $-1 #
face $-1 $-1 $162 $36 $-1 $163 forward single #
loop $-1 $164 $165 $64 #
cone-surface $-1 38.709038897834162 21.492917490741966 2.620992876718871 -0.70710678939079041 0 -0.70710677298230451 0.35355338649115226 0 -0.35355339469539521 1 I I -0.70710678118654746 0.70710678118654746 0.5 forward I I I I #
loop $-1 $-1 $166 $47 #
coedge $-1 $104 $104 $167 $168 reversed $65 $-1 #
face $-1 $-1 $169 $37 $-1 $170 forward single #
loop $-1 $171 $172 $67 #
cone-surface $-1 38.709038897834162 25.597961152793239 2.620992876718871 -0.70710678939079041 0 -0.70710677298230451 0.35355338649115226 0 -0.35355339469539521 1 I I -0.70710678118654746 0.70710678118654746 0.5 forward I I I I #
loop $-1 $-1 $173 $48 #
coedge $-1 $109 $109 $174 $175 reversed $68 $-1 #
face $-1 $176 $177 $38 $-1 $178 reversed single #
loop $-1 $-1 $179 $70 #
plane-surface $-1 -44.143192846461382 -15.618132995938984 4.4571748128935411 -0.6560590369687036 0 0.75470957328743171 0.75470957328743171 0 0.6560590369687036 forward_v I I I I #
coedge $-1 $180 $181 $182 $183 reversed $71 $-1 #
face $-1 $-1 $184 $39 $-1 $185 forward single #
loop $-1 $186 $187 $73 #
cone-surface $-1 -40.010284733564568 -17.67927992074371 3.8824774866014025 0.6560590369687036 0 -0.75470957328743171 0.37735478664371586 0 0.3280295184843518 1 I I -0.70710678118654746 0.70710678118654746 0.5 forward I I I I #
loop $-1 $-1 $188 $50 #
coedge $-1 $118 $118 $189 $190 reversed $74 $-1 #
face $-1 $-1 $191 $40 $-1 $192 forward single #
loop $-1 $193 $194 $76 #
cone-surface $-1 -40.010284733564568 -13.556986071134261 3.8824774866014025 0.6560590369687036 0 -0.75470957328743171 0.37735478664371586 0 0.3280295184843518 1 I I -0.70710678118654746 0.70710678118654746 0.5 forward I I I I #
loop $-1 $-1 $195 $51 #
coedge $-1 $123 $123 $196 $197 reversed $77 $-1 #
face $-1 $198 $199 $41 $-1 $200 forward single #
loop $-1 $-1 $201 $79 #
plane-surface $-1 -44.143192846461382 23.525314102949729 4.4571748128935411 -0.6560590369687036 0 0.75470957328743171 0.75470957328743171 0 0.6560590369687036 forward_v I I I I #
coedge $-1 $202 $203 $204 $205 reversed $80 $-1 #
face $-1 $-1 $206 $42 $-1 $207 forward single #
loop $-1 $208 $209 $82 #
cone-surface $-1 -40.010284733564568 21.464167178145004 3.8824774866014025 0.6560590369687036 0 -0.75470957328743171 0.37735478664371586 0 0.3280295184843518 1 I I -0.70710678118654746 0.70710678118654746 0.5 forward I I I I #
loop $-1 $-1 $210 $53 #
coedge $-1 $132 $132 $211 $212 reversed $83 $-1 #
face $-1 $-1 $213 $43 $-1 $214 forward single #
loop $-1 $215 $216 $85 #
cone-surface $-1 -40.010284733564568 25.586461027754453 3.8824774866014025 0.6560590369687036 0 -0.75470957328743171 0.37735478664371586 0 0.3280295184843518 1 I I -0.70710678118654746 0.70710678118654746 0.5 forward I I I I #
loop $-1 $-1 $217 $54 #
coedge $-1 $137 $137 $218 $219 reversed $86 $-1 #
face $-1 $220 $221 $33 $-1 $222 reversed single #
loop $-1 $-1 $223 $88 #
plane-surface $-1 0 -28.334656927494088 0 0 1 0 0 0 1 forward_v I I I I #
coedge $-1 $224 $225 $226 $227 forward $89 $-1 #
coedge $-1 $228 $91 $229 $230 forward $56 $-1 #
coedge $-1 $91 $228 $231 $232 forward $56 $-1 #
coedge $-1 $233 $234 $91 $145 reversed $235 $-1 #
edge $-1 $236 -28.334656927494088 $237 28.334656927494088 $144 $238 forward 7 unknown #
face $-1 $239 $240 $34 $-1 $241 forward single #
loop $-1 $-1 $242 $92 #
plane-surface $-1 -30.936472935666302 -24.381066373988716 0 -1 0 0 0 0 1 forward_v I I I I #
coedge $-1 $243 $244 $245 $246 forward $93 $-1 #
coedge $-1 $247 $95 $248 $249 reversed $59 $-1 #
coedge $-1 $95 $247 $250 $251 reversed $59 $-1 #
coedge $-1 $244 $243 $95 $153 reversed $93 $-1 #
edge $-1 $252 -8.0551468309882797 $253 8.0551468309882797 $152 $254 forward 7 unknown #
face $-1 $255 $256 $35 $-1 $257 reversed single #
loop $-1 $-1 $160 $96 #
plane-surface $-1 44.143192846461375 0 0 -1 0 0 0 0 1 forward_v I I I I #
coedge $-1 $258 $259 $260 $261 reversed $97 $-1 #
coedge $-1 $159 $99 $262 $263 reversed $62 $-1 #
coedge $-1 $99 $158 $258 $264 reversed $62 $-1 #
coedge $-1 $260 $265 $99 $161 forward $155 $-1 #
edge $-1 $266 55.561679677753766 $267 61.238977511091278 $160 $268 forward 7 unknown #
loop $-1 $-1 $167 $100 #
plane-surface $-1 -18.284708439132324 23.545439321767603 64.805751731890382 0.70710678939079041 0 0.70710677298230451 0.70710677298230451 0 -0.70710678939079041 forward_v I I I I #
loop $-1 $-1 $269 $64 #
coedge $-1 $165 $165 $166 $270 reversed $101 $-1 #
coedge $-1 $166 $166 $165 $270 forward $103 $-1 #
coedge $-1 $167 $167 $104 $168 forward $162 $-1 #
edge $-1 $271 0 $271 6.2831853071796004 $167 $272 forward 7 unknown #
loop $-1 $-1 $174 $105 #
plane-surface $-1 -18.284708439132324 23.545439321767603 64.805751731890382 0.70710678939079041 0 0.70710677298230451 0.70710677298230451 0 -0.70710678939079041 forward_v I I I I #
loop $-1 $-1 $273 $67 #
coedge $-1 $172 $172 $173 $274 reversed $106 $-1 #
coedge $-1 $173 $173 $172 $274 forward $108 $-1 #
coedge $-1 $174 $174 $109 $175 forward $169 $-1 #
edge $-1 $275 0 $275 6.2831853071796004 $174 $276 forward 7 unknown #
face $-1 $277 $278 $38 $-1 $279 reversed single #
loop $-1 $-1 $280 $110 #
plane-surface $-1 -102.06427402160782 -10.808790171394627 71.087755286288882 0 -1 0 0.6560590369687036 0 -0.75470957328743171 forward_v I I I I #
coedge $-1 $281 $282 $283 $284 reversed $111 $-1 #
coedge $-1 $181 $113 $285 $286 reversed $71 $-1 #
coedge $-1 $113 $180 $281 $287 reversed $71 $-1 #
coedge $-1 $283 $288 $113 $183 forward $289 $-1 #
edge $-1 $290 6.8889441643425329 $291 11.027937415655572 $182 $292 forward 7 unknown #
loop $-1 $-1 $189 $114 #
plane-surface $-1 -44.143192846461382 -15.618132995938984 4.4571748128935411 -0.6560590369687036 0 0.75470957328743171 0.75470957328743171 0 0.6560590369687036 forward_v I I I I #
loop $-1 $-1 $293 $73 #
coedge $-1 $187 $187 $188 $294 reversed $115 $-1 #
coedge $-1 $188 $188 $187 $294 forward $117 $-1 #
coedge $-1 $189 $189 $118 $190 forward $184 $-1 #
edge $-1 $295 0 $295 6.2831853071796004 $189 $296 forward 7 unknown #
loop $-1 $-1 $196 $119 #
plane-surface $-1 -44.143192846461382 -15.618132995938984 4.4571748128935411 -0.6560590369687036 0 0.75470957328743171 0.75470957328743171 0 0.6560590369687036 forward_v I I I I #
loop $-1 $-1 $297 $76 #
coedge $-1 $194 $194 $195 $298 reversed $120 $-1 #
coedge $-1 $195 $195 $194 $298 forward $122 $-1 #
coedge $-1 $196 $196 $123 $197 forward $191 $-1 #
edge $-1 $299 0 $299 6.2831853071796004 $196 $300 forward 7 unknown #
face $-1 $301 $302 $41 $-1 $303 reversed single #
loop $-1 $-1 $204 $124 #
plane-surface $-1 0 0 8.0551468309882797 0 0 1 1 0 0 forward_v I I I I #
coedge $-1 $304 $305 $306 $307 reversed $125 $-1 #
coedge $-1 $203 $127 $308 $309 reversed $80 $-1 #
coedge $-1 $127 $202 $304 $310 reversed $80 $-1 #
coedge $-1 $306 $311 $127 $205 forward $199 $-1 #
edge $-1 $312 6.8889441643425329 $313 11.027937415655572 $204 $314 forward 7 unknown #
loop $-1 $-1 $211 $128 #
plane-surface $-1 -44.143192846461382 23.525314102949729 4.4571748128935411 -0.6560590369687036 0 0.75470957328743171 0.75470957328743171 0 0.6560590369687036 forward_v I I I I #
loop $-1 $-1 $315 $82 #
coedge $-1 $209 $209 $210 $316 reversed $129 $-1 #
coedge $-1 $210 $210 $209 $316 forward $131 $-1 #
coedge $-1 $211 $211 $132 $212 forward $206 $-1 #
edge $-1 $317 0 $317 6.2831853071796004 $211 $318 forward 7 unknown #
loop $-1 $-1 $218 $133 #
plane-surface $-1 -44.143192846461382 23.525314102949729 4.4571748128935411 -0.6560590369687036 0 0.75470957328743171 0.75470957328743171 0 0.6560590369687036 forward_v I I I I #
loop $-1 $-1 $319 $85 #
coedge $-1 $216 $216 $217 $320 reversed $134 $-1 #
coedge $-1 $217 $217 $216 $320 forward $136 $-1 #
coedge $-1 $218 $218 $137 $219 forward $213 $-1 #
edge $-1 $321 0 $321 6.2831853071796004 $218 $322 forward 7 unknown #
face $-1 $323 $324 $33 $-1 $325 reversed single #
loop $-1 $-1 $326 $138 #
plane-surface $-1 -44.143192846461375 0 0 1 0 0 0 0 -1 forward_v I I I I #
coedge $-1 $327 $231 $328 $329 forward $139 $-1 #
coedge $-1 $330 $141 $327 $331 forward $89 $-1 #
coedge $-1 $141 $330 $332 $333 forward $89 $-1 #
coedge $-1 $234 $233 $141 $227 reversed $235 $-1 #
edge $-1 $334 -28.334656927494088 $335 28.334656927494088 $226 $336 forward 7 unknown #
coedge $-1 $143 $142 $337 $338 forward $56 $-1 #
coedge $-1 $339 $340 $142 $230 reversed $324 $-1 #
edge $-1 $237 -44.143192846461375 $341 44.143192846461375 $229 $342 forward 7 unknown #
coedge $-1 $223 $343 $143 $232 reversed $139 $-1 #
edge $-1 $344 -44.143192846461375 $236 44.143192846461375 $231 $345 forward 7 unknown #
coedge $-1 $226 $144 $343 $346 forward $235 $-1 #
coedge $-1 $144 $226 $339 $347 reversed $235 $-1 #
loop $-1 $-1 $233 $323 #
vertex $-1 $145 $348 #
vertex $-1 $145 $349 #
straight-curve $-1 44.143192846461375 0 8.0551468309882797 0 1 0 I I #
face $-1 $350 $351 $34 $-1 $352 reversed single #
loop $-1 $-1 $353 $146 #
plane-surface $-1 0 0 8.0551468309882797 0 0 1 1 0 0 forward_v I I I I #
coedge $-1 $354 $355 $356 $357 reversed $147 $-1 #
coedge $-1 $152 $149 $358 $359 reversed $93 $-1 #
coedge $-1 $149 $152 $360 $361 reversed $93 $-1 #
coedge $-1 $355 $354 $149 $246 reversed $147 $-1 #
edge $-1 $362 -8.0551468309882797 $363 8.0551468309882797 $245 $364 forward 7 unknown #
coedge $-1 $151 $150 $365 $366 reversed $59 $-1 #
coedge $-1 $358 $367 $150 $249 forward $351 $-1 #
edge $-1 $368 -16.14412374049973 $253 -8.2369426334889866 $248 $369 forward 7 unknown #
coedge $-1 $370 $360 $151 $251 forward $240 $-1 #
edge $-1 $252 8.2369426334889866 $371 16.14412374049973 $250 $372 forward 7 unknown #
vertex $-1 $251 $373 #
vertex $-1 $249 $374 #
straight-curve $-1 -33.936472935666302 -20.427475820483345 0 0 0 -1 I I #
face $-1 $-1 $375 $35 $-1 $376 forward single #
loop $-1 $-1 $377 $154 #
plane-surface $-1 0 28.334656927494088 0 0 -1 0 0 0 -1 forward_v I I I I #
coedge $-1 $378 $157 $159 $264 forward $97 $-1 #
coedge $-1 $157 $378 $377 $379 reversed $97 $-1 #
coedge $-1 $380 $160 $157 $261 forward $155 $-1 #
edge $-1 $267 6.9835020551573166 $381 16.561937266610286 $260 $382 forward 7 unknown #
coedge $-1 $383 $384 $158 $263 forward $375 $-1 #
edge $-1 $385 16.394297997312499 $266 22.071595698907728 $262 $386 forward 7 unknown #
edge $-1 $267 -88.286385692922778 $385 -80.257474192541324 $159 $387 forward 7 unknown #
coedge $-1 $160 $380 $383 $388 reversed $155 $-1 #
vertex $-1 $388 $389 #
vertex $-1 $161 $390 #
straight-curve $-1 44.143192846461375 18.756221716041118 63.616826508742044 0 0 -1 I I #
coedge $-1 $269 $269 $-1 $391 reversed $164 $-1 #
edge $-1 $392 0 $392 6.2831853071796004 $165 $393 forward 7 unknown #
vertex $-1 $168 $394 #
ellipse-curve $-1 41.304543995663771 21.492917490741966 5.2164979143195147 0.70710678939079041 0 0.70710677298230451 0.70710677298230451 0 -0.70710678939079041 1 I I #
coedge $-1 $273 $273 $-1 $395 reversed $171 $-1 #
edge $-1 $396 0 $396 6.2831853071796004 $172 $397 forward 7 unknown #
vertex $-1 $175 $398 #
ellipse-curve $-1 41.304543995663771 25.597961152793239 5.2164979143195147 0.70710678939079041 0 0.70710677298230451 0.70710677298230451 0 -0.70710678939079041 1 I I #
face $-1 $-1 $289 $38 $-1 $399 forward single #
loop $-1 $-1 $400 $176 #
plane-surface $-1 -44.143192846461375 0 0 1 0 0 0 0 -1 forward_v I I I I #
coedge $-1 $401 $402 $403 $404 reversed $177 $-1 #
coedge $-1 $405 $179 $181 $287 forward $111 $-1 #
coedge $-1 $179 $405 $401 $406 forward $111 $-1 #
coedge $-1 $403 $182 $179 $284 forward $289 $-1 #
edge $-1 $291 -12.618409322513848 $407 -2.9997236734251347 $283 $408 forward 7 unknown #
coedge $-1 $409 $410 $180 $286 forward $278 $-1 #
edge $-1 $411 -31.086702830250893 $290 -27.488730812156163 $285 $412 forward 7 unknown #
edge $-1 $291 -5.4842198877696058 $411 -9.44141639987384e-015 $181 $413 forward 7 unknown #
coedge $-1 $182 $403 $409 $414 forward $289 $-1 #
loop $-1 $-1 $403 $277 #
vertex $-1 $286 $415 #
vertex $-1 $183 $416 #
straight-curve $-1 -51.032137010803908 -20.427475820483341 8.0551468309882779 1 0 0 I I #
coedge $-1 $293 $293 $-1 $417 reversed $186 $-1 #
edge $-1 $418 0 $418 6.2831853071796004 $187 $419 forward 7 unknown #
vertex $-1 $190 $420 #
ellipse-curve $-1 -42.073696220804855 -17.67927992074371 6.2561608219409148 -0.6560590369687036 0 0.75470957328743171 0.75470957328743171 0 0.6560590369687036 1 I I #
coedge $-1 $297 $297 $-1 $421 reversed $193 $-1 #
edge $-1 $422 0 $422 6.2831853071796004 $194 $423 forward 7 unknown #
vertex $-1 $197 $424 #
ellipse-curve $-1 -42.073696220804855 -13.556986071134261 6.2561608219409148 -0.6560590369687036 0 0.75470957328743171 0.75470957328743171 0 0.6560590369687036 1 I I #
face $-1 $-1 $425 $41 $-1 $426 reversed single #
loop $-1 $-1 $427 $198 #
plane-surface $-1 0 28.334656927494088 0 0 -1 0 0 0 -1 forward_v I I I I #
coedge $-1 $428 $201 $203 $310 forward $125 $-1 #
coedge $-1 $201 $428 $427 $429 reversed $125 $-1 #
coedge $-1 $430 $204 $201 $307 forward $199 $-1 #
edge $-1 $313 6.9533142269305053 $431 16.571999876019223 $306 $432 forward 7 unknown #
coedge $-1 $433 $434 $202 $309 forward $425 $-1 #
edge $-1 $435 -31.086702830250893 $312 -27.488730812156163 $308 $436 forward 7 unknown #
edge $-1 $313 -5.4842198877696058 $435 -9.44141639987384e-015 $203 $437 forward 7 unknown #
coedge $-1 $204 $430 $433 $438 forward $199 $-1 #
vertex $-1 $309 $439 #
vertex $-1 $205 $440 #
straight-curve $-1 -51.032137010803908 18.71597127840537 8.0551468309882779 1 0 0 I I #
coedge $-1 $315 $315 $-1 $441 reversed $208 $-1 #
edge $-1 $442 0 $442 6.2831853071796004 $209 $443 forward 7 unknown #
vertex $-1 $212 $444 #
ellipse-curve $-1 -42.073696220804855 21.464167178145004 6.2561608219409148 -0.6560590369687036 0 0.75470957328743171 0.75470957328743171 0 0.6560590369687036 1 I I #
coedge $-1 $319 $319 $-1 $445 reversed $215 $-1 #
edge $-1 $446 0 $446 6.2831853071796004 $216 $447 forward 7 unknown #
vertex $-1 $219 $448 #
ellipse-curve $-1 -42.073696220804855 25.586461027754453 6.2561608219409148 -0.6560590369687036 0 0.75470957328743171 0.75470957328743171 0 0.6560590369687036 1 I I #
face $-1 $-1 $235 $33 $-1 $449 reversed single #
loop $-1 $-1 $339 $220 #
plane-surface $-1 0 28.334656927494088 0 0 -1 0 0 0 -1 forward_v I I I I #
coedge $-1 $450 $337 $340 $451 forward $221 $-1 #
coedge $-1 $343 $223 $224 $331 reversed $139 $-1 #
coedge $-1 $337 $450 $223 $329 reversed $221 $-1 #
edge $-1 $344 -8.0551468309882797 $452 8.0551468309882797 $328 $453 forward 7 unknown #
coedge $-1 $225 $224 $450 $454 forward $89 $-1 #
edge $-1 $335 -44.143192846461375 $452 44.143192846461375 $327 $455 forward 7 unknown #
coedge $-1 $340 $339 $225 $333 reversed $324 $-1 #
edge $-1 $456 -44.143192846461375 $334 44.143192846461375 $332 $457 forward 7 unknown #
vertex $-1 $227 $458 #
vertex $-1 $346 $459 #
straight-curve $-1 44.143192846461375 0 -8.0551468309882797 0 -1 0 I I #
coedge $-1 $326 $328 $228 $338 reversed $221 $-1 #
edge $-1 $341 -28.334656927494088 $344 28.334656927494088 $337 $460 forward 7 unknown #
coedge $-1 $332 $229 $234 $347 forward $324 $-1 #
coedge $-1 $229 $332 $326 $451 reversed $324 $-1 #
vertex $-1 $230 $461 #
straight-curve $-1 0 28.334656927494088 8.0551468309882797 -1 0 0 I I #
coedge $-1 $231 $327 $233 $346 reversed $139 $-1 #
vertex $-1 $338 $462 #
straight-curve $-1 0 -28.334656927494088 8.0551468309882797 1 0 0 I I #
edge $-1 $236 -8.0551468309882797 $335 8.0551468309882797 $233 $463 forward 7 unknown #
edge $-1 $237 -8.0551468309882797 $334 8.0551468309882797 $234 $464 forward 7 unknown #
point $-1 44.143192846461375 -28.334656927494088 8.0551468309882797 #
point $-1 44.143192846461375 28.334656927494088 8.0551468309882797 #
face $-1 $-1 $465 $34 $-1 $466 reversed single #
loop $-1 $-1 $467 $239 #
plane-surface $-1 0 0 -8.0551468309882797 0 0 1 1 0 0 forward_v I I I I #
coedge $-1 $360 $370 $355 $468 forward $240 $-1 #
coedge $-1 $245 $242 $467 $469 reversed $147 $-1 #
coedge $-1 $242 $245 $353 $468 reversed $147 $-1 #
coedge $-1 $470 $471 $242 $357 forward $465 $-1 #
edge $-1 $472 -8.0551468309882797 $473 8.0551468309882797 $356 $474 forward 7 unknown #
coedge $-1 $467 $248 $243 $359 forward $351 $-1 #
edge $-1 $253 -17.718236467833151 $363 -14.718236467833151 $358 $475 forward 7 unknown #
coedge $-1 $250 $353 $244 $361 forward $240 $-1 #
edge $-1 $362 14.718236467833151 $252 17.718236467833151 $360 $476 forward 7 unknown #
vertex $-1 $361 $477 #
vertex $-1 $359 $478 #
straight-curve $-1 -30.936472935666302 -20.427475820483345 0 0 0 -1 I I #
coedge $-1 $471 $470 $247 $366 forward $465 $-1 #
edge $-1 $371 -8.0551468309882797 $368 8.0551468309882797 $365 $479 forward 7 unknown #
coedge $-1 $248 $467 $471 $480 forward $351 $-1 #
vertex $-1 $249 $481 #
straight-curve $-1 -33.936472935666302 -12.190533186994358 -8.0551468309882797 0 1 0 I I #
coedge $-1 $353 $250 $470 $482 forward $240 $-1 #
vertex $-1 $482 $483 #
straight-curve $-1 -33.936472935666302 -12.190533186994358 8.0551468309882797 0 -1 0 I I #
point $-1 -33.936472935666302 -20.427475820483345 8.0551468309882797 #
point $-1 -33.936472935666302 -20.427475820483345 -8.0551468309882797 #
loop $-1 $-1 $262 $255 #
plane-surface $-1 0 0 8.0551468309882797 0 0 1 1 0 0 forward_v I I I I #
coedge $-1 $484 $485 $259 $379 forward $256 $-1 #
coedge $-1 $259 $258 $384 $486 reversed $97 $-1 #
edge $-1 $381 -58.909471582667337 $487 -50.880560082285896 $377 $488 forward 7 unknown #
coedge $-1 $265 $260 $485 $489 reversed $155 $-1 #
vertex $-1 $379 $490 #
straight-curve $-1 44.143192846461375 11.772719660883801 2.3778489976507657 0 1 0 I I #
coedge $-1 $491 $262 $265 $388 forward $375 $-1 #
coedge $-1 $262 $491 $378 $486 forward $375 $-1 #
vertex $-1 $263 $492 #
straight-curve $-1 22.071597147553646 18.756221716041118 8.0551468309882779 1 0 0 I I #
straight-curve $-1 -18.284708439132324 18.756221716041118 64.805751731890382 -0.70710677298230451 0 0.70710678939079041 I I #
edge $-1 $266 18.756221716041118 $493 28.334656927494088 $265 $494 forward 7 unknown #
point $-1 44.143192846461375 18.756221716041118 8.0551468309882797 #
point $-1 44.143192846461382 18.756221716041118 2.3778489976507657 #
edge $-1 $495 1 $495 0 $269 $-1 forward 7 unknown #
vertex $-1 $270 $496 #
ellipse-curve $-1 39.062592292529558 21.492917490741966 2.9745462632100232 0.70710678939079041 0 0.70710677298230451 0.70710677298230451 0 -0.70710678939079041 1 I I #
point $-1 42.011650768646071 21.492917490741966 4.5093911249287206 #
edge $-1 $497 1 $497 0 $273 $-1 forward 7 unknown #
vertex $-1 $274 $498 #
ellipse-curve $-1 39.062592292529558 25.597961152793239 2.9745462632100232 0.70710678939079041 0 0.70710677298230451 0.70710677298230451 0 -0.70710678939079041 1 I I #
point $-1 42.011650768646071 25.597961152793239 4.5093911249287206 #
plane-surface $-1 0 0 8.0551468309882797 0 0 1 1 0 0 forward_v I I I I #
coedge $-1 $410 $409 $402 $499 forward $278 $-1 #
coedge $-1 $402 $280 $282 $406 reversed $177 $-1 #
coedge $-1 $280 $401 $400 $499 reversed $177 $-1 #
coedge $-1 $288 $283 $280 $404 forward $289 $-1 #
edge $-1 $407 -11.027937415655572 $500 -6.8889441643425329 $403 $501 forward 7 unknown #
coedge $-1 $282 $281 $410 $502 reversed $111 $-1 #
edge $-1 $503 9.44141639987384e-015 $407 5.4842198877696058 $401 $504 forward 7 unknown #
vertex $-1 $284 $505 #
straight-curve $-1 -40.004199595148336 -7.8090664979694919 8.0551468309882814 0 1 0 I I #
coedge $-1 $400 $285 $288 $414 reversed $278 $-1 #
coedge $-1 $285 $400 $405 $502 forward $278 $-1 #
vertex $-1 $286 $506 #
straight-curve $-1 -44.143192846461375 -20.427475820483341 35.543877643144441 0 0 1 I I #
straight-curve $-1 -44.143192846461382 -20.427475820483341 4.4571748128935411 -0.75470957328743171 0 -0.6560590369687036 I I #
edge $-1 $500 10.808790171394627 $290 20.427475820483341 $409 $507 forward 7 unknown #
point $-1 -44.143192846461375 -20.427475820483341 8.0551468309882797 #
point $-1 -40.004199595148336 -20.427475820483341 8.0551468309882797 #
edge $-1 $508 1 $508 0 $293 $-1 forward 7 unknown #
vertex $-1 $294 $509 #
ellipse-curve $-1 -40.338314252048917 -17.67927992074371 4.2598322732451184 -0.6560590369687036 0 0.75470957328743171 0.75470957328743171 0 0.6560590369687036 1 I I #
point $-1 -41.318986647517413 -17.67927992074371 6.9122198589096087 #
edge $-1 $510 1 $510 0 $297 $-1 forward 7 unknown #
vertex $-1 $298 $511 #
ellipse-curve $-1 -40.338314252048917 -13.556986071134261 4.2598322732451184 -0.6560590369687036 0 0.75470957328743171 0.75470957328743171 0 0.6560590369687036 1 I I #
point $-1 -41.318986647517413 -13.556986071134261 6.9122198589096087 #
loop $-1 $-1 $308 $301 #
plane-surface $-1 -44.143192846461375 0 0 1 0 0 0 0 -1 forward_v I I I I #
coedge $-1 $512 $513 $305 $429 forward $302 $-1 #
coedge $-1 $305 $304 $434 $514 reversed $125 $-1 #
edge $-1 $431 9.7113403229051851 $515 15.195560210674781 $427 $516 forward 7 unknown #
coedge $-1 $311 $306 $513 $517 forward $199 $-1 #
vertex $-1 $517 $518 #
straight-curve $-1 -40.004199595148336 11.762657051474864 8.0551468309882814 0 1 0 I I #
coedge $-1 $519 $308 $311 $438 reversed $425 $-1 #
coedge $-1 $308 $519 $428 $514 forward $425 $-1 #
vertex $-1 $309 $520 #
straight-curve $-1 -44.143192846461375 18.71597127840537 35.543877643144441 0 0 1 I I #
straight-curve $-1 -44.143192846461382 18.71597127840537 4.4571748128935411 -0.75470957328743171 0 -0.6560590369687036 I I #
edge $-1 $521 -28.334656927494088 $312 -18.71597127840537 $433 $522 forward 7 unknown #
point $-1 -44.143192846461375 18.71597127840537 8.0551468309882797 #
point $-1 -40.004199595148336 18.71597127840537 8.0551468309882797 #
edge $-1 $523 1 $523 0 $315 $-1 forward 7 unknown #
vertex $-1 $316 $524 #
ellipse-curve $-1 -40.338314252048917 21.464167178145004 4.2598322732451184 -0.6560590369687036 0 0.75470957328743171 0.75470957328743171 0 0.6560590369687036 1 I I #
point $-1 -41.318986647517413 21.464167178145004 6.9122198589096087 #
edge $-1 $525 1 $525 0 $319 $-1 forward 7 unknown #
vertex $-1 $320 $526 #
ellipse-curve $-1 -40.338314252048917 25.586461027754453 4.2598322732451184 -0.6560590369687036 0 0.75470957328743171 0.75470957328743171 0 0.6560590369687036 1 I I #
point $-1 -41.318986647517413 25.586461027754453 6.9122198589096087 #
plane-surface $-1 44.143192846461375 0 0 -1 0 0 0 0 1 forward_v I I I I #
coedge $-1 $328 $326 $330 $454 reversed $221 $-1 #
edge $-1 $341 -8.0551468309882797 $456 8.0551468309882797 $340 $527 forward 7 unknown #
vertex $-1 $454 $528 #
straight-curve $-1 -44.143192846461375 -28.334656927494088 0 0 0 -1 I I #
edge $-1 $452 -28.334656927494088 $456 28.334656927494088 $450 $529 forward 7 unknown #
straight-curve $-1 0 -28.334656927494088 -8.0551468309882797 -1 0 0 I I #
vertex $-1 $333 $530 #
straight-curve $-1 0 28.334656927494088 -8.0551468309882797 1 0 0 I I #
point $-1 44.143192846461375 28.334656927494088 -8.0551468309882797 #
point $-1 44.143192846461375 -28.334656927494088 -8.0551468309882797 #
straight-curve $-1 -44.143192846461375 0 8.0551468309882797 0 -1 0 I I #
point $-1 -44.143192846461375 28.334656927494088 8.0551468309882797 #
point $-1 -44.143192846461375 -28.334656927494088 8.0551468309882797 #
straight-curve $-1 44.143192846461375 -28.334656927494088 0 0 0 -1 I I #
straight-curve $-1 44.143192846461375 28.334656927494088 0 0 0 -1 I I #
loop $-1 $-1 $356 $350 #
plane-surface $-1 0 -28.334656927494088 0 0 1 0 0 0 1 forward_v I I I I #
coedge $-1 $367 $358 $354 $469 forward $351 $-1 #
edge $-1 $473 -16.14412374049973 $362 -8.2369426334889866 $353 $531 forward 7 unknown #
edge $-1 $363 8.2369426334889866 $472 16.14412374049973 $467 $532 forward 7 unknown #
coedge $-1 $365 $356 $370 $482 reversed $465 $-1 #
coedge $-1 $356 $365 $367 $480 reversed $465 $-1 #
vertex $-1 $480 $533 #
vertex $-1 $357 $534 #
straight-curve $-1 -30.936472935666302 -28.334656927494088 0 0 0 1 I I #
straight-curve $-1 -16.218236467833151 -20.427475820483345 -8.0551468309882797 1 0 0 I I #
straight-curve $-1 -16.218236467833151 -20.427475820483345 8.0551468309882797 -1 0 0 I I #
point $-1 -30.936472935666302 -20.427475820483345 8.0551468309882797 #
point $-1 -30.936472935666302 -20.427475820483345 -8.0551468309882797 #
straight-curve $-1 -33.936472935666302 -28.334656927494088 0 0 0 -1 I I #
edge $-1 $472 30.936472935666302 $368 33.936472935666302 $471 $535 forward 7 unknown #
point $-1 -33.936472935666302 -28.334656927494088 -8.0551468309882797 #
edge $-1 $371 -33.936472935666302 $473 -30.936472935666302 $470 $536 forward 7 unknown #
point $-1 -33.936472935666302 -28.334656927494088 8.0551468309882797 #
coedge $-1 $485 $377 $491 $537 reversed $256 $-1 #
coedge $-1 $377 $484 $380 $489 forward $256 $-1 #
edge $-1 $487 -16.561937266610286 $385 -6.9835020551573166 $384 $538 forward 7 unknown #
vertex $-1 $379 $539 #
straight-curve $-1 2.4879064975487104 28.334656927494088 44.033136313178666 -0.70710677298230462 0 0.70710678939079052 I I #
edge $-1 $493 -8.0551468309882797 $381 -2.3778489976507653 $380 $540 forward 7 unknown #
point $-1 44.143192846461375 28.334656927494088 2.3778489976507653 #
coedge $-1 $384 $383 $484 $537 forward $375 $-1 #
point $-1 38.465895144866145 18.756221716041118 8.0551468309882779 #
vertex $-1 $388 $541 #
straight-curve $-1 44.143192846461375 0 8.0551468309882797 0 1 0 I I #
vertex $-1 $391 $542 #
point $-1 39.769699065511858 21.492917490741966 2.2674394738192327 #
vertex $-1 $395 $543 #
point $-1 39.769699065511858 25.597961152793239 2.2674394738192327 #
edge $-1 $500 27.488730812156163 $503 31.086702830250893 $400 $544 forward 7 unknown #
vertex $-1 $414 $545 #
straight-curve $-1 -51.032137010803908 -10.808790171394627 8.0551468309882779 -1 0 0 I I #
edge $-1 $503 2.9997236734251347 $411 12.618409322513848 $410 $546 forward 7 unknown #
vertex $-1 $502 $547 #
straight-curve $-1 -44.143192846461382 -10.808790171394627 4.4571748128935411 0.75470957328743171 0 0.6560590369687036 I I #
point $-1 -40.004199595148336 -10.808790171394627 8.0551468309882797 #
point $-1 -44.143192846461375 -20.427475820483341 4.4571748128935473 #
straight-curve $-1 -44.143192846461375 0 8.0551468309882797 0 -1 0 I I #
vertex $-1 $417 $548 #
point $-1 -39.583604678761489 -17.67927992074371 4.915891310213822 #
vertex $-1 $421 $549 #
point $-1 -39.583604678761489 -13.556986071134261 4.915891310213822 #
coedge $-1 $513 $427 $519 $550 reversed $302 $-1 #
coedge $-1 $427 $512 $430 $517 reversed $302 $-1 #
edge $-1 $515 -16.571999876019223 $435 -6.9533142269305053 $434 $551 forward 7 unknown #
vertex $-1 $429 $552 #
straight-curve $-1 -32.674958083999535 28.334656927494088 14.426359410908795 -0.75470957328743171 0 -0.6560590369687036 I I #
edge $-1 $431 40.004199595148336 $521 44.143192846461375 $513 $553 forward 7 unknown #
point $-1 -40.004199595148336 28.334656927494088 8.0551468309882797 #
coedge $-1 $434 $433 $512 $550 forward $425 $-1 #
point $-1 -44.143192846461375 18.71597127840537 4.4571748128935473 #
vertex $-1 $517 $554 #
straight-curve $-1 -44.143192846461375 0 8.0551468309882797 0 -1 0 I I #
vertex $-1 $441 $555 #
point $-1 -39.583604678761489 21.464167178145004 4.915891310213822 #
vertex $-1 $445 $556 #
point $-1 -39.583604678761489 25.586461027754453 4.915891310213822 #
straight-curve $-1 -44.143192846461375 28.334656927494088 0 0 0 -1 I I #
point $-1 -44.143192846461375 -28.334656927494088 -8.0551468309882797 #
straight-curve $-1 -44.143192846461375 0 -8.0551468309882797 0 1 0 I I #
point $-1 -44.143192846461375 28.334656927494088 -8.0551468309882797 #
straight-curve $-1 -30.936472935666302 -12.190533186994358 8.0551468309882797 0 1 0 I I #
straight-curve $-1 -30.936472935666302 -12.190533186994358 -8.0551468309882797 0 -1 0 I I #
point $-1 -30.936472935666302 -28.334656927494088 -8.0551468309882797 #
point $-1 -30.936472935666302 -28.334656927494088 8.0551468309882797 #
straight-curve $-1 0 -28.334656927494088 -8.0551468309882797 -1 0 0 I I #
straight-curve $-1 0 -28.334656927494088 8.0551468309882797 1 0 0 I I #
edge $-1 $493 -44.143192846461375 $487 -38.465895144866145 $484 $557 forward 7 unknown #
straight-curve $-1 38.465895144866153 11.772719660883801 8.0551468309882708 0 -1 0 I I #
point $-1 38.465895144866145 28.334656927494088 8.0551468309882779 #
straight-curve $-1 44.143192846461375 28.334656927494088 0 0 0 -1 I I #
point $-1 44.143192846461375 28.334656927494088 8.0551468309882797 #
point $-1 38.355485503138766 21.492917490741966 2.2674394902277188 #
point $-1 38.355485503138766 25.597961152793239 2.2674394902277188 #
straight-curve $-1 -44.143192846461375 -10.808790171394627 35.543877643144441 0 0 -1 I I #
point $-1 -44.143192846461375 -10.808790171394627 8.0551468309882797 #
straight-curve $-1 -44.143192846461375 -7.8090664979694919 4.457174812893542 0 -1 0 I I #
point $-1 -44.143192846461375 -10.808790171394627 4.4571748128935473 #
point $-1 -39.682255215080218 -17.67927992074371 3.5051226999576865 #
point $-1 -39.682255215080218 -13.556986071134261 3.5051226999576865 #
edge $-1 $521 -8.0551468309882797 $515 -4.4571748128935473 $512 $558 forward 7 unknown #
straight-curve $-1 -44.143192846461375 11.762657051474864 4.457174812893542 0 -1 0 I I #
point $-1 -44.143192846461375 28.334656927494088 4.4571748128935473 #
straight-curve $-1 0 28.334656927494088 8.0551468309882797 -1 0 0 I I #
point $-1 -44.143192846461375 28.334656927494088 8.0551468309882797 #
point $-1 -39.682255215080218 21.464167178145004 3.5051226999576865 #
point $-1 -39.682255215080218 25.586461027754453 3.5051226999576865 #
straight-curve $-1 0 28.334656927494088 8.0551468309882797 -1 0 0 I I #
straight-curve $-1 -44.143192846461375 28.334656927494088 0 0 0 -1 I I #
End-of-ACIS-data 