500 0 11 0           
7 Unknown 11 ACIS 5.0 NT 24 Fri Mar 26 15:09:34 1999 
-1 9.9999999999999995e-007 1e-010 
body $-1 $11 $-1 $12 #
body $-1 $13 $-1 $14 #
body $-1 $15 $-1 $16 #
body $-1 $17 $-1 $18 #
body $-1 $19 $-1 $20 #
body $-1 $21 $-1 $22 #
body $-1 $23 $-1 $24 #
body $-1 $25 $-1 $26 #
body $-1 $27 $-1 $28 #
body $-1 $29 $-1 $30 #
body $-1 $31 $-1 $32 #
lump $-1 $-1 $33 $0 #
transform $-1 1 0 0 0 1 0 0 0 1 73.166295358134704 32.098761834536518 6.6816011488638951 1 rotate no_reflect no_shear #
lump $-1 $-1 $34 $1 #
transform $-1 1 0 0 0 1 0 0 0 1 73.166295358134704 32.098761834536518 6.6816011488638951 1 rotate no_reflect no_shear #
lump $-1 $-1 $35 $2 #
transform $-1 1 0 0 0 1 0 0 0 1 73.166295358134704 32.098761834536518 6.6816011488638951 1 rotate no_reflect no_shear #
lump $-1 $-1 $36 $3 #
transform $-1 1 0 0 0 1 0 0 0 1 73.166295358134704 32.098761834536518 6.6816011488638951 1 rotate no_reflect no_shear #
lump $-1 $-1 $37 $4 #
transform $-1 1 0 0 0 1 0 0 0 1 73.166295358134704 32.098761834536518 6.6816011488638951 1 rotate no_reflect no_shear #
lump $-1 $-1 $38 $5 #
transform $-1 1 0 0 0 1 0 0 0 1 73.166295358134704 32.098761834536518 6.6816011488638951 1 rotate no_reflect no_shear #
lump $-1 $-1 $39 $6 #
transform $-1 1 0 0 0 1 0 0 0 1 73.166295358134704 32.098761834536518 6.6816011488638951 1 rotate no_reflect no_shear #
lump $-1 $-1 $40 $7 #
transform $-1 1 0 0 0 1 0 0 0 1 73.166295358134704 32.098761834536518 6.6816011488638951 1 rotate no_reflect no_shear #
lump $-1 $-1 $41 $8 #
transform $-1 1 0 0 0 1 0 0 0 1 73.166295358134704 32.098761834536518 6.6816011488638951 1 rotate no_reflect no_shear #
lump $-1 $-1 $42 $9 #
transform $-1 1 0 0 0 1 0 0 0 1 73.166295358134704 32.098761834536518 6.6816011488638951 1 rotate no_reflect no_shear #
lump $-1 $-1 $43 $10 #
transform $-1 1 0 0 0 1 0 0 0 1 73.166295358134704 32.098761834536518 6.6816011488638951 1 rotate no_reflect no_shear #
shell $-1 $-1 $-1 $44 $-1 $11 #
shell $-1 $-1 $-1 $45 $-1 $13 #
shell $-1 $-1 $-1 $46 $-1 $15 #
shell $-1 $-1 $-1 $47 $-1 $17 #
shell $-1 $-1 $-1 $48 $-1 $19 #
shell $-1 $-1 $-1 $49 $-1 $21 #
shell $-1 $-1 $-1 $50 $-1 $23 #
shell $-1 $-1 $-1 $51 $-1 $25 #
shell $-1 $-1 $-1 $52 $-1 $27 #
shell $-1 $-1 $-1 $53 $-1 $29 #
shell $-1 $-1 $-1 $54 $-1 $31 #
face $-1 $55 $56 $33 $-1 $57 forward single #
face $-1 $58 $59 $34 $-1 $60 forward single #
face $-1 $61 $62 $35 $-1 $63 forward single #
face $-1 $64 $65 $36 $-1 $66 reversed single #
face $-1 $67 $68 $37 $-1 $69 forward single #
face $-1 $70 $71 $38 $-1 $72 reversed single #
face $-1 $73 $74 $39 $-1 $75 forward single #
face $-1 $76 $77 $40 $-1 $78 forward single #
face $-1 $79 $80 $41 $-1 $81 reversed single #
face $-1 $82 $83 $42 $-1 $84 forward single #
face $-1 $85 $86 $43 $-1 $87 forward single #
face $-1 $88 $89 $33 $-1 $90 reversed single #
loop $-1 $-1 $91 $44 #
plane-surface $-1 0 0 6.6816011488638951 0 0 1 1 0 0 forward_v I I I I #
face $-1 $92 $93 $34 $-1 $94 reversed single #
loop $-1 $-1 $95 $45 #
plane-surface $-1 -68.791497277380927 0 -3.0391120188808101 0 0 1 1 0 0 forward_v I I I I #
face $-1 $96 $97 $35 $-1 $98 reversed single #
loop $-1 $-1 $99 $46 #
plane-surface $-1 68.791497277380927 0 -3.0391120188808101 0 0 1 1 0 0 forward_v I I I I #
face $-1 $100 $101 $36 $-1 $102 reversed single #
loop $-1 $-1 $103 $47 #
plane-surface $-1 -64.416699196627135 -131.89734991325699 108.27118924982653 1 0 0 0 0.68199836817093118 -0.7313536940579346 forward_v I I I I #
face $-1 $104 $105 $37 $-1 $106 forward single #
loop $-1 $107 $108 $48 #
cone-surface $-1 -54.591319365857679 -27.862209637641442 2.5457332067304579 0 0.68199836817093118 -0.7313536940579346 1 0 0 1 I I 0 1 1 forward I I I I #
face $-1 $109 $110 $38 $-1 $111 reversed single #
loop $-1 $-1 $112 $49 #
plane-surface $-1 -4.992415250143182 52.437600845300679 160.79394264762138 -1 0 0 0 0.51503808176128008 0.85716729658548041 forward_v I I I I #
face $-1 $113 $114 $39 $-1 $115 forward single #
loop $-1 $116 $117 $50 #
cone-surface $-1 -16.62718287051851 27.792500970314467 3.3936536665169599 0 -0.51503808176128008 -0.85716729658548041 1 0 0 1 I I 0 1 1 forward I I I I #
face $-1 $118 $119 $40 $-1 $120 forward single #
loop $-1 $121 $122 $51 #
cone-surface $-1 -9.6463222982933132 27.792500970314467 3.3936536665169599 0 -0.51503808176128008 -0.85716729658548041 1 0 0 1 I I 0 1 1 forward I I I I #
face $-1 $123 $124 $41 $-1 $125 reversed single #
loop $-1 $-1 $126 $52 #
plane-surface $-1 21.28108991866867 52.437600845300679 160.79394264762138 -1 0 0 0 0.51503808176128008 0.85716729658548041 forward_v I I I I #
face $-1 $127 $128 $42 $-1 $129 forward single #
loop $-1 $130 $131 $53 #
cone-surface $-1 9.6463222982933416 27.792500970314467 3.3936536665169599 0 -0.51503808176128008 -0.85716729658548041 1 0 0 1 I I 0 1 1 forward I I I I #
face $-1 $132 $133 $43 $-1 $134 forward single #
loop $-1 $135 $136 $54 #
cone-surface $-1 16.627182870518538 27.792500970314467 3.3936536665169599 0 -0.51503808176128008 -0.85716729658548041 1 0 0 1 I I 0 1 1 forward I I I I #
face $-1 $137 $138 $33 $-1 $139 reversed single #
loop $-1 $-1 $140 $55 #
plane-surface $-1 0 0 -6.6816011488638951 0 0 1 1 0 0 forward_v I I I I #
coedge $-1 $141 $142 $143 $144 forward $56 $-1 #
face $-1 $145 $146 $34 $-1 $147 reversed single #
loop $-1 $-1 $148 $58 #
plane-surface $-1 -64.41669919662715 0 -4.8603565838723526 -1 0 0 0 0 1 forward_v I I I I #
coedge $-1 $149 $150 $151 $152 forward $59 $-1 #
face $-1 $153 $154 $35 $-1 $155 reversed single #
loop $-1 $-1 $156 $61 #
plane-surface $-1 64.41669919662715 0 -4.8603565838723526 1 0 0 0 0 -1 forward_v I I I I #
coedge $-1 $157 $158 $159 $160 reversed $62 $-1 #
face $-1 $161 $162 $36 $-1 $163 reversed single #
loop $-1 $-1 $164 $64 #
plane-surface $-1 -54.591319365857679 -32.098761834536504 1.2503084684150707 0 -0.68199836817093118 0.7313536940579346 1 0 0 forward_v I I I I #
coedge $-1 $165 $166 $167 $168 reversed $65 $-1 #
face $-1 $-1 $169 $37 $-1 $170 forward single #
loop $-1 $171 $172 $67 #
cone-surface $-1 -54.591319365857679 -26.196832354679046 0.75983475779245424 0 0.68199836817093118 -0.7313536940579346 0.5 0 0 1 I I -0.70710678118654746 0.70710678118654746 0.5 forward I I I I #
loop $-1 $-1 $173 $48 #
coedge $-1 $108 $108 $174 $175 reversed $68 $-1 #
face $-1 $176 $177 $38 $-1 $178 reversed single #
loop $-1 $-1 $179 $70 #
plane-surface $-1 -13.136752584405912 -22.929255976365212 35.362431461007162 0 0.51503808176128008 0.85716729658548041 1 0 0 forward_v I I I I #
coedge $-1 $180 $181 $182 $183 reversed $71 $-1 #
face $-1 $-1 $184 $39 $-1 $185 forward single #
loop $-1 $186 $187 $73 #
cone-surface $-1 -16.62718287051851 26.876271690125655 1.8687921019775073 0 -0.51503808176128008 -0.85716729658548041 0.5 0 0 1 I I -0.70710678118654746 0.70710678118654746 0.5 forward I I I I #
loop $-1 $-1 $188 $50 #
coedge $-1 $117 $117 $189 $190 reversed $74 $-1 #
face $-1 $-1 $191 $40 $-1 $192 forward single #
loop $-1 $193 $194 $76 #
cone-surface $-1 -9.6463222982933132 26.876271690125655 1.8687921019775073 0 -0.51503808176128008 -0.85716729658548041 0.5 0 0 1 I I -0.70710678118654746 0.70710678118654746 0.5 forward I I I I #
loop $-1 $-1 $195 $51 #
coedge $-1 $122 $122 $196 $197 reversed $77 $-1 #
face $-1 $198 $199 $41 $-1 $200 reversed single #
loop $-1 $-1 $201 $79 #
plane-surface $-1 13.13675258440594 -22.929255976365212 35.362431461007162 0 0.51503808176128008 0.85716729658548041 1 0 0 forward_v I I I I #
coedge $-1 $202 $203 $204 $205 reversed $80 $-1 #
face $-1 $-1 $206 $42 $-1 $207 forward single #
loop $-1 $208 $209 $82 #
cone-surface $-1 9.6463222982933416 26.876271690125655 1.8687921019775073 0 -0.51503808176128008 -0.85716729658548041 0.5 0 0 1 I I -0.70710678118654746 0.70710678118654746 0.5 forward I I I I #
loop $-1 $-1 $210 $53 #
coedge $-1 $131 $131 $211 $212 reversed $83 $-1 #
face $-1 $-1 $213 $43 $-1 $214 forward single #
loop $-1 $215 $216 $85 #
cone-surface $-1 16.627182870518538 26.876271690125655 1.8687921019775073 0 -0.51503808176128008 -0.85716729658548041 0.5 0 0 1 I I -0.70710678118654746 0.70710678118654746 0.5 forward I I I I #
loop $-1 $-1 $217 $54 #
coedge $-1 $136 $136 $218 $219 reversed $86 $-1 #
face $-1 $220 $221 $33 $-1 $222 reversed single #
loop $-1 $-1 $223 $88 #
plane-surface $-1 0 -32.098761834536518 0 0 1 0 0 0 1 forward_v I I I I #
coedge $-1 $224 $225 $226 $227 forward $89 $-1 #
coedge $-1 $228 $91 $229 $230 forward $56 $-1 #
coedge $-1 $91 $228 $231 $232 forward $56 $-1 #
coedge $-1 $233 $234 $91 $144 reversed $235 $-1 #
edge $-1 $236 -32.098761834536518 $237 32.098761834536518 $143 $238 forward 7 unknown #
face $-1 $239 $240 $34 $-1 $241 reversed single #
loop $-1 $-1 $242 $92 #
plane-surface $-1 0 0 -6.6816011488638951 0 0 1 1 0 0 forward_v I I I I #
coedge $-1 $243 $151 $244 $245 reversed $93 $-1 #
coedge $-1 $246 $95 $247 $248 reversed $59 $-1 #
coedge $-1 $95 $246 $249 $250 reversed $59 $-1 #
coedge $-1 $148 $251 $95 $152 reversed $93 $-1 #
edge $-1 $252 -32.098761834536518 $253 32.098761834536518 $151 $254 forward 7 unknown #
face $-1 $255 $256 $35 $-1 $257 reversed single #
loop $-1 $-1 $258 $96 #
plane-surface $-1 0 -32.098761834536518 0 0 1 0 0 0 1 forward_v I I I I #
coedge $-1 $259 $260 $261 $262 reversed $97 $-1 #
coedge $-1 $263 $99 $264 $265 reversed $62 $-1 #
coedge $-1 $99 $263 $258 $266 reversed $62 $-1 #
coedge $-1 $267 $268 $99 $160 forward $269 $-1 #
edge $-1 $270 -32.098761834536518 $271 32.098761834536518 $159 $272 forward 7 unknown #
face $-1 $273 $274 $36 $-1 $275 forward single #
loop $-1 $-1 $276 $100 #
plane-surface $-1 -44.765939535088222 -131.89734991325699 108.27118924982653 -1 0 0 0 -0.68199836817093118 0.7313536940579346 forward_v I I I I #
coedge $-1 $277 $278 $279 $280 reversed $101 $-1 #
coedge $-1 $166 $103 $281 $282 reversed $65 $-1 #
coedge $-1 $103 $165 $277 $283 reversed $65 $-1 #
coedge $-1 $279 $284 $103 $168 forward $285 $-1 #
edge $-1 $286 47.453993476049369 $287 52.885286156498211 $167 $288 forward 7 unknown #
loop $-1 $-1 $174 $104 #
plane-surface $-1 -54.591319365857679 -32.098761834536504 1.2503084684150707 0 -0.68199836817093118 0.7313536940579346 1 0 0 forward_v I I I I #
loop $-1 $-1 $289 $67 #
coedge $-1 $172 $172 $173 $290 reversed $105 $-1 #
coedge $-1 $173 $173 $172 $290 forward $107 $-1 #
coedge $-1 $174 $174 $108 $175 forward $169 $-1 #
edge $-1 $291 -2.8692807470428474e-015 $291 6.2831853071795978 $174 $292 forward 7 unknown #
face $-1 $293 $294 $38 $-1 $295 reversed single #
loop $-1 $-1 $296 $109 #
plane-surface $-1 -21.281089918668641 52.437600845300679 160.79394264762138 1 0 0 0 -0.51503808176128008 -0.85716729658548041 forward_v I I I I #
coedge $-1 $297 $298 $299 $300 reversed $110 $-1 #
coedge $-1 $181 $112 $301 $302 reversed $71 $-1 #
coedge $-1 $112 $180 $297 $303 reversed $71 $-1 #
coedge $-1 $299 $304 $112 $183 forward $294 $-1 #
edge $-1 $305 73.715370174946798 $306 78.098709307147288 $182 $307 forward 7 unknown #
loop $-1 $-1 $189 $113 #
plane-surface $-1 -13.136752584405912 -22.929255976365212 35.362431461007162 0 0.51503808176128008 0.85716729658548041 1 0 0 forward_v I I I I #
loop $-1 $-1 $308 $73 #
coedge $-1 $187 $187 $188 $309 reversed $114 $-1 #
coedge $-1 $188 $188 $187 $309 forward $116 $-1 #
coedge $-1 $189 $189 $117 $190 forward $184 $-1 #
edge $-1 $310 5.880871925866451e-016 $310 6.2831853071796013 $189 $311 forward 7 unknown #
loop $-1 $-1 $196 $118 #
plane-surface $-1 -13.136752584405912 -22.929255976365212 35.362431461007162 0 0.51503808176128008 0.85716729658548041 1 0 0 forward_v I I I I #
loop $-1 $-1 $312 $76 #
coedge $-1 $194 $194 $195 $313 reversed $119 $-1 #
coedge $-1 $195 $195 $194 $313 forward $121 $-1 #
coedge $-1 $196 $196 $122 $197 forward $191 $-1 #
edge $-1 $314 5.880871925866451e-016 $314 6.2831853071796013 $196 $315 forward 7 unknown #
face $-1 $316 $317 $41 $-1 $318 reversed single #
loop $-1 $-1 $319 $123 #
plane-surface $-1 4.9924152501432104 52.437600845300679 160.79394264762138 1 0 0 0 -0.51503808176128008 -0.85716729658548041 forward_v I I I I #
coedge $-1 $320 $321 $322 $323 reversed $124 $-1 #
coedge $-1 $203 $126 $324 $325 reversed $80 $-1 #
coedge $-1 $126 $202 $320 $326 reversed $80 $-1 #
coedge $-1 $322 $327 $126 $205 forward $317 $-1 #
edge $-1 $328 73.715370174946798 $329 78.098709307147288 $204 $330 forward 7 unknown #
loop $-1 $-1 $211 $127 #
plane-surface $-1 13.13675258440594 -22.929255976365212 35.362431461007162 0 0.51503808176128008 0.85716729658548041 1 0 0 forward_v I I I I #
loop $-1 $-1 $331 $82 #
coedge $-1 $209 $209 $210 $332 reversed $128 $-1 #
coedge $-1 $210 $210 $209 $332 forward $130 $-1 #
coedge $-1 $211 $211 $131 $212 forward $206 $-1 #
edge $-1 $333 5.880871925866451e-016 $333 6.2831853071796013 $211 $334 forward 7 unknown #
loop $-1 $-1 $218 $132 #
plane-surface $-1 13.13675258440594 -22.929255976365212 35.362431461007162 0 0.51503808176128008 0.85716729658548041 1 0 0 forward_v I I I I #
loop $-1 $-1 $335 $85 #
coedge $-1 $216 $216 $217 $336 reversed $133 $-1 #
coedge $-1 $217 $217 $216 $336 forward $135 $-1 #
coedge $-1 $218 $218 $136 $219 forward $213 $-1 #
edge $-1 $337 5.880871925866451e-016 $337 6.2831853071796013 $218 $338 forward 7 unknown #
face $-1 $339 $340 $33 $-1 $341 reversed single #
loop $-1 $-1 $342 $137 #
plane-surface $-1 -73.166295358134704 0 0 1 0 0 0 0 -1 forward_v I I I I #
coedge $-1 $343 $231 $344 $345 forward $138 $-1 #
coedge $-1 $346 $140 $343 $347 forward $89 $-1 #
coedge $-1 $140 $346 $348 $349 forward $89 $-1 #
coedge $-1 $234 $233 $140 $227 reversed $235 $-1 #
edge $-1 $350 -32.098761834536518 $351 32.098761834536518 $226 $352 forward 7 unknown #
coedge $-1 $142 $141 $353 $354 forward $56 $-1 #
coedge $-1 $355 $356 $141 $230 reversed $340 $-1 #
edge $-1 $237 -73.166295358134704 $357 73.166295358134704 $229 $358 forward 7 unknown #
coedge $-1 $223 $359 $142 $232 reversed $138 $-1 #
edge $-1 $360 -73.166295358134704 $236 73.166295358134704 $231 $361 forward 7 unknown #
coedge $-1 $226 $143 $359 $362 forward $235 $-1 #
coedge $-1 $143 $226 $355 $363 reversed $235 $-1 #
loop $-1 $-1 $233 $339 #
vertex $-1 $144 $364 #
vertex $-1 $144 $365 #
straight-curve $-1 73.166295358134704 0 6.6816011488638951 0 1 0 I I #
face $-1 $366 $367 $34 $-1 $368 reversed single #
loop $-1 $-1 $244 $145 #
plane-surface $-1 0 -32.098761834536518 0 0 1 0 0 0 1 forward_v I I I I #
coedge $-1 $369 $370 $243 $371 forward $146 $-1 #
coedge $-1 $251 $148 $242 $371 reversed $93 $-1 #
coedge $-1 $249 $372 $148 $245 forward $240 $-1 #
edge $-1 $373 -4.2514228569277188 $252 -0.60893372694463377 $244 $374 forward 7 unknown #
coedge $-1 $150 $149 $375 $376 reversed $59 $-1 #
coedge $-1 $377 $378 $149 $248 forward $379 $-1 #
edge $-1 $380 -38.770546719444241 $253 -30.020950557936686 $247 $381 forward 7 unknown #
coedge $-1 $382 $244 $150 $250 forward $240 $-1 #
edge $-1 $252 30.020950557936686 $383 38.770546719444241 $249 $384 forward 7 unknown #
coedge $-1 $151 $243 $377 $385 reversed $93 $-1 #
vertex $-1 $250 $386 #
vertex $-1 $248 $387 #
straight-curve $-1 -64.41669919662715 0 -3.0391120188808101 0 1 0 I I #
face $-1 $388 $389 $35 $-1 $390 reversed single #
loop $-1 $-1 $391 $153 #
plane-surface $-1 0 0 -6.6816011488638951 0 0 1 1 0 0 forward_v I I I I #
coedge $-1 $392 $393 $158 $266 forward $154 $-1 #
coedge $-1 $394 $156 $391 $395 reversed $97 $-1 #
coedge $-1 $156 $394 $263 $396 reversed $97 $-1 #
coedge $-1 $264 $397 $156 $262 forward $389 $-1 #
edge $-1 $398 -4.2514228569277188 $399 -0.60893372694463377 $261 $400 forward 7 unknown #
coedge $-1 $158 $157 $260 $396 forward $62 $-1 #
coedge $-1 $401 $261 $157 $265 forward $389 $-1 #
edge $-1 $399 30.020950557936686 $270 38.770546719444241 $264 $402 forward 7 unknown #
edge $-1 $271 -38.770546719444241 $403 -30.020950557936686 $258 $404 forward 7 unknown #
coedge $-1 $405 $159 $393 $406 forward $269 $-1 #
coedge $-1 $159 $405 $401 $407 reversed $269 $-1 #
loop $-1 $-1 $159 $388 #
vertex $-1 $407 $408 #
vertex $-1 $406 $409 #
straight-curve $-1 73.166295358134704 0 -3.0391120188808101 0 -1 0 I I #
face $-1 $-1 $285 $36 $-1 $410 reversed single #
loop $-1 $-1 $411 $161 #
plane-surface $-1 0 0 6.6816011488638951 0 0 1 1 0 0 forward_v I I I I #
coedge $-1 $412 $413 $414 $415 reversed $162 $-1 #
coedge $-1 $416 $164 $166 $283 forward $101 $-1 #
coedge $-1 $164 $416 $412 $417 forward $101 $-1 #
coedge $-1 $414 $167 $164 $280 forward $285 $-1 #
edge $-1 $287 -37.121039513698292 $418 -17.470279852159383 $279 $419 forward 7 unknown #
coedge $-1 $420 $421 $165 $282 forward $274 $-1 #
edge $-1 $422 -39.674261318128302 $286 -33.849913122091976 $281 $423 forward 7 unknown #
edge $-1 $287 -1.9479204584885432e-014 $422 7.9637913137756424 $166 $424 forward 7 unknown #
coedge $-1 $167 $414 $420 $425 reversed $285 $-1 #
loop $-1 $-1 $414 $273 #
vertex $-1 $425 $426 #
vertex $-1 $168 $427 #
straight-curve $-1 -64.416699196627135 -32.098761834536518 54.135594624913267 0 0 -1 I I #
coedge $-1 $289 $289 $-1 $428 reversed $171 $-1 #
edge $-1 $429 0 $429 6.2831853071796004 $172 $430 forward 7 unknown #
vertex $-1 $175 $431 #
ellipse-curve $-1 -54.591319365857679 -29.186587736518355 3.9659548086394762 0 -0.68199836817093118 0.7313536940579346 1 0 0 1 I I #
face $-1 $-1 $432 $38 $-1 $433 forward single #
loop $-1 $-1 $182 $176 #
plane-surface $-1 0 32.098761834536518 0 0 -1 0 0 0 -1 forward_v I I I I #
coedge $-1 $434 $435 $436 $437 reversed $177 $-1 #
coedge $-1 $438 $179 $181 $303 forward $110 $-1 #
coedge $-1 $179 $438 $434 $439 forward $110 $-1 #
coedge $-1 $436 $182 $179 $300 forward $294 $-1 #
edge $-1 $306 -1.5759610420597738 $440 14.712713626465685 $299 $441 forward 7 unknown #
coedge $-1 $442 $443 $180 $302 forward $432 $-1 #
edge $-1 $444 -1.4151398379416449 $305 5.8799614118861783 $301 $445 forward 7 unknown #
edge $-1 $306 -64.197523669073036 $444 -55.686814874083069 $181 $446 forward 7 unknown #
coedge $-1 $182 $436 $442 $447 reversed $294 $-1 #
vertex $-1 $447 $448 #
vertex $-1 $183 $449 #
straight-curve $-1 -4.992415250143182 32.098761834536518 80.396971323810689 0 0 -1 I I #
coedge $-1 $308 $308 $-1 $450 reversed $186 $-1 #
edge $-1 $451 0 $451 6.2831853071796004 $187 $452 forward 7 unknown #
vertex $-1 $190 $453 #
ellipse-curve $-1 -16.62718287051851 28.45121120962262 4.4899315827636439 0 0.51503808176128008 0.85716729658548041 1 0 0 1 I I #
coedge $-1 $312 $312 $-1 $454 reversed $193 $-1 #
edge $-1 $455 0 $455 6.2831853071796004 $194 $456 forward 7 unknown #
vertex $-1 $197 $457 #
ellipse-curve $-1 -9.6463222982933132 28.45121120962262 4.4899315827636439 0 0.51503808176128008 0.85716729658548041 1 0 0 1 I I #
face $-1 $-1 $458 $41 $-1 $459 forward single #
loop $-1 $-1 $204 $198 #
plane-surface $-1 0 32.098761834536518 0 0 -1 0 0 0 -1 forward_v I I I I #
coedge $-1 $460 $461 $462 $463 reversed $199 $-1 #
coedge $-1 $464 $201 $203 $326 forward $124 $-1 #
coedge $-1 $201 $464 $460 $465 forward $124 $-1 #
coedge $-1 $462 $204 $201 $323 forward $317 $-1 #
edge $-1 $329 -14.7127136264657 $466 1.5759610420597596 $322 $467 forward 7 unknown #
coedge $-1 $468 $469 $202 $325 forward $458 $-1 #
edge $-1 $470 -1.4151398379416449 $328 5.8799614118861783 $324 $471 forward 7 unknown #
edge $-1 $329 -64.197523669073036 $470 -55.686814874083069 $203 $472 forward 7 unknown #
coedge $-1 $204 $462 $468 $473 reversed $317 $-1 #
vertex $-1 $473 $474 #
vertex $-1 $205 $475 #
straight-curve $-1 21.28108991866867 32.098761834536518 80.396971323810689 0 0 -1 I I #
coedge $-1 $331 $331 $-1 $476 reversed $208 $-1 #
edge $-1 $477 0 $477 6.2831853071796004 $209 $478 forward 7 unknown #
vertex $-1 $212 $479 #
ellipse-curve $-1 9.6463222982933416 28.45121120962262 4.4899315827636439 0 0.51503808176128008 0.85716729658548041 1 0 0 1 I I #
coedge $-1 $335 $335 $-1 $480 reversed $215 $-1 #
edge $-1 $481 0 $481 6.2831853071796004 $216 $482 forward 7 unknown #
vertex $-1 $219 $483 #
ellipse-curve $-1 16.627182870518538 28.45121120962262 4.4899315827636439 0 0.51503808176128008 0.85716729658548041 1 0 0 1 I I #
face $-1 $-1 $235 $33 $-1 $484 reversed single #
loop $-1 $-1 $355 $220 #
plane-surface $-1 0 32.098761834536518 0 0 -1 0 0 0 -1 forward_v I I I I #
coedge $-1 $485 $353 $356 $486 forward $221 $-1 #
coedge $-1 $359 $223 $224 $347 reversed $138 $-1 #
coedge $-1 $353 $485 $223 $345 reversed $221 $-1 #
edge $-1 $360 -6.6816011488638951 $487 6.6816011488638951 $344 $488 forward 7 unknown #
coedge $-1 $225 $224 $485 $489 forward $89 $-1 #
edge $-1 $351 -73.166295358134704 $487 73.166295358134704 $343 $490 forward 7 unknown #
coedge $-1 $356 $355 $225 $349 reversed $340 $-1 #
edge $-1 $491 -73.166295358134704 $350 73.166295358134704 $348 $492 forward 7 unknown #
vertex $-1 $227 $493 #
vertex $-1 $362 $494 #
straight-curve $-1 73.166295358134704 0 -6.6816011488638951 0 -1 0 I I #
coedge $-1 $342 $344 $228 $354 reversed $221 $-1 #
edge $-1 $357 -32.098761834536518 $360 32.098761834536518 $353 $495 forward 7 unknown #
coedge $-1 $348 $229 $234 $363 forward $340 $-1 #
coedge $-1 $229 $348 $342 $486 reversed $340 $-1 #
vertex $-1 $230 $496 #
straight-curve $-1 0 32.098761834536518 6.6816011488638951 -1 0 0 I I #
coedge $-1 $231 $343 $233 $362 reversed $138 $-1 #
vertex $-1 $354 $497 #
straight-curve $-1 0 -32.098761834536518 6.6816011488638951 1 0 0 I I #
edge $-1 $236 -6.6816011488638951 $351 6.6816011488638951 $233 $498 forward 7 unknown #
edge $-1 $237 -6.6816011488638951 $350 6.6816011488638951 $234 $499 forward 7 unknown #
point $-1 73.166295358134704 -32.098761834536518 6.6816011488638951 #
point $-1 73.166295358134704 32.098761834536518 6.6816011488638951 #
face $-1 $-1 $379 $34 $-1 $500 reversed single #
loop $-1 $-1 $375 $239 #
plane-surface $-1 -73.166295358134704 0 0 1 0 0 0 0 -1 forward_v I I I I #
coedge $-1 $501 $242 $372 $502 forward $146 $-1 #
coedge $-1 $242 $501 $503 $504 forward $146 $-1 #
edge $-1 $505 -32.098761834536518 $373 32.098761834536518 $242 $506 forward 7 unknown #
coedge $-1 $244 $382 $369 $502 reversed $240 $-1 #
vertex $-1 $502 $507 #
straight-curve $-1 -64.41669919662715 -32.098761834536518 -2.4301782919361763 0 0 1 I I #
coedge $-1 $508 $509 $246 $376 forward $367 $-1 #
edge $-1 $383 -32.098761834536518 $380 32.098761834536518 $375 $510 forward 7 unknown #
coedge $-1 $503 $247 $251 $385 forward $379 $-1 #
coedge $-1 $247 $503 $508 $511 reversed $379 $-1 #
loop $-1 $-1 $377 $366 #
vertex $-1 $511 $512 #
straight-curve $-1 -34.395748638690463 32.098761834536518 -3.0391120188808101 1 0 0 I I #
coedge $-1 $372 $249 $509 $513 forward $240 $-1 #
vertex $-1 $513 $514 #
straight-curve $-1 -34.395748638690463 -32.098761834536518 -3.0391120188808101 -1 0 0 I I #
edge $-1 $253 0.60893372694463377 $505 4.2514228569277188 $377 $515 forward 7 unknown #
point $-1 -64.41669919662715 -32.098761834536518 -3.0391120188808101 #
point $-1 -64.41669919662715 32.098761834536518 -3.0391120188808101 #
face $-1 $-1 $269 $35 $-1 $516 reversed single #
loop $-1 $-1 $264 $255 #
plane-surface $-1 0 32.098761834536518 0 0 -1 0 0 0 -1 forward_v I I I I #
coedge $-1 $517 $518 $259 $395 forward $256 $-1 #
coedge $-1 $519 $258 $394 $520 forward $154 $-1 #
coedge $-1 $258 $519 $267 $406 reversed $154 $-1 #
coedge $-1 $260 $259 $392 $520 reversed $97 $-1 #
edge $-1 $521 -32.098761834536518 $398 32.098761834536518 $391 $522 forward 7 unknown #
edge $-1 $399 -32.098761834536518 $403 32.098761834536518 $260 $523 forward 7 unknown #
coedge $-1 $261 $401 $517 $524 reversed $389 $-1 #
vertex $-1 $524 $525 #
vertex $-1 $265 $526 #
straight-curve $-1 64.41669919662715 32.098761834536518 -2.4301782919361763 0 0 1 I I #
coedge $-1 $397 $264 $268 $407 forward $389 $-1 #
straight-curve $-1 34.395748638690463 32.098761834536518 -3.0391120188808101 1 0 0 I I #
vertex $-1 $266 $527 #
straight-curve $-1 34.395748638690463 -32.098761834536518 -3.0391120188808101 -1 0 0 I I #
coedge $-1 $268 $267 $528 $529 reversed $269 $-1 #
edge $-1 $271 3.0391120188808101 $530 6.6816011488638951 $267 $531 forward 7 unknown #
edge $-1 $270 3.0391120188808101 $532 6.6816011488638951 $268 $533 forward 7 unknown #
point $-1 73.166295358134704 32.098761834536518 -3.0391120188808101 #
point $-1 73.166295358134704 -32.098761834536518 -3.0391120188808101 #
plane-surface $-1 0 -32.098761834536518 0 0 1 0 0 0 1 forward_v I I I I #
coedge $-1 $421 $420 $413 $534 forward $274 $-1 #
coedge $-1 $413 $276 $278 $417 reversed $162 $-1 #
coedge $-1 $276 $412 $411 $534 reversed $162 $-1 #
coedge $-1 $284 $279 $276 $415 forward $285 $-1 #
edge $-1 $418 -52.885286156498211 $535 -47.453993476049369 $414 $536 forward 7 unknown #
coedge $-1 $278 $277 $421 $537 reversed $101 $-1 #
edge $-1 $538 -7.9637913137756424 $418 1.9479204584885432e-014 $412 $539 forward 7 unknown #
vertex $-1 $280 $540 #
straight-curve $-1 -27.295659682928839 -32.098761834536518 1.2503084684150574 1 0 0 I I #
coedge $-1 $411 $281 $284 $425 forward $274 $-1 #
coedge $-1 $281 $411 $416 $537 forward $274 $-1 #
vertex $-1 $282 $541 #
straight-curve $-1 -64.416699196627135 -65.948674956628494 6.6816011488638978 0 -1 0 I I #
straight-curve $-1 -64.416699196627135 -32.098761834536504 1.2503084684150707 0 0.7313536940579346 0.68199836817093118 I I #
edge $-1 $286 -64.416699196627135 $535 -44.765939535088222 $284 $542 forward 7 unknown #
point $-1 -64.416699196627135 -32.098761834536518 6.6816011488638951 #
point $-1 -64.416699196627135 -32.098761834536518 1.2503084684150574 #
edge $-1 $543 1 $543 0 $289 $-1 forward 7 unknown #
vertex $-1 $290 $544 #
ellipse-curve $-1 -54.591319365857679 -26.537831538764511 1.1255116048214215 0 -0.68199836817093118 0.7313536940579346 1 0 0 1 I I #
point $-1 -53.591319365857679 -29.186587736518376 3.9659548086394949 #
loop $-1 $-1 $301 $293 #
plane-surface $-1 0 0 6.6816011488638951 0 0 1 1 0 0 forward_v I I I I #
coedge $-1 $435 $296 $298 $439 reversed $177 $-1 #
coedge $-1 $296 $434 $545 $546 reversed $177 $-1 #
coedge $-1 $304 $299 $296 $437 forward $294 $-1 #
edge $-1 $440 -78.098709307147288 $547 -73.715370174946798 $436 $548 forward 7 unknown #
coedge $-1 $298 $297 $443 $549 reversed $110 $-1 #
edge $-1 $550 55.686814874083069 $440 64.197523669073036 $434 $551 forward 7 unknown #
vertex $-1 $300 $552 #
straight-curve $-1 -6.5683762922029558 32.098761834536511 2.2982620166634113 -1 0 0 I I #
coedge $-1 $545 $301 $304 $447 forward $432 $-1 #
coedge $-1 $301 $545 $438 $549 forward $432 $-1 #
vertex $-1 $302 $553 #
straight-curve $-1 -4.992415250143182 26.218800422650339 6.6816011488638907 0 1 0 I I #
straight-curve $-1 -4.992415250143182 -22.929255976365212 35.362431461007162 0 -0.85716729658548041 0.51503808176128008 I I #
edge $-1 $305 4.992415250143182 $547 21.281089918668641 $304 $554 forward 7 unknown #
point $-1 -4.992415250143182 32.098761834536518 6.6816011488638951 #
point $-1 -4.992415250143182 32.098761834536511 2.2982620166634078 #
edge $-1 $555 1 $555 0 $308 $-1 forward 7 unknown #
vertex $-1 $309 $556 #
ellipse-curve $-1 -16.62718287051851 27.133790731006297 2.2973757502702474 0 0.51503808176128008 0.85716729658548041 1 0 0 1 I I #
point $-1 -15.62718287051851 28.451211209622638 4.4899315827636723 #
edge $-1 $557 1 $557 0 $312 $-1 forward 7 unknown #
vertex $-1 $313 $558 #
ellipse-curve $-1 -9.6463222982933132 27.133790731006297 2.2973757502702474 0 0.51503808176128008 0.85716729658548041 1 0 0 1 I I #
point $-1 -8.6463222982933132 28.451211209622638 4.4899315827636723 #
loop $-1 $-1 $324 $316 #
plane-surface $-1 0 0 6.6816011488638951 0 0 1 1 0 0 forward_v I I I I #
coedge $-1 $461 $319 $321 $465 reversed $199 $-1 #
coedge $-1 $319 $460 $559 $560 reversed $199 $-1 #
coedge $-1 $327 $322 $319 $463 forward $317 $-1 #
edge $-1 $466 -78.098709307147288 $561 -73.715370174946798 $462 $562 forward 7 unknown #
coedge $-1 $321 $320 $469 $563 reversed $124 $-1 #
edge $-1 $564 55.686814874083069 $466 64.197523669073036 $460 $565 forward 7 unknown #
vertex $-1 $323 $566 #
straight-curve $-1 6.56837629220297 32.098761834536511 2.2982620166634113 -1 0 0 I I #
coedge $-1 $559 $324 $327 $473 forward $458 $-1 #
coedge $-1 $324 $559 $464 $563 forward $458 $-1 #
vertex $-1 $325 $567 #
straight-curve $-1 21.28108991866867 26.218800422650339 6.6816011488638907 0 1 0 I I #
straight-curve $-1 21.28108991866867 -22.929255976365212 35.362431461007162 0 -0.85716729658548041 0.51503808176128008 I I #
edge $-1 $328 -21.28108991866867 $561 -4.9924152501432104 $327 $568 forward 7 unknown #
point $-1 21.28108991866867 32.098761834536518 6.6816011488638951 #
point $-1 21.28108991866867 32.098761834536511 2.2982620166634078 #
edge $-1 $569 1 $569 0 $331 $-1 forward 7 unknown #
vertex $-1 $332 $570 #
ellipse-curve $-1 9.6463222982933416 27.133790731006297 2.2973757502702474 0 0.51503808176128008 0.85716729658548041 1 0 0 1 I I #
point $-1 10.646322298293342 28.451211209622638 4.4899315827636723 #
edge $-1 $571 1 $571 0 $335 $-1 forward 7 unknown #
vertex $-1 $336 $572 #
ellipse-curve $-1 16.627182870518538 27.133790731006297 2.2973757502702474 0 0.51503808176128008 0.85716729658548041 1 0 0 1 I I #
point $-1 17.627182870518538 28.451211209622638 4.4899315827636723 #
plane-surface $-1 73.166295358134704 0 0 -1 0 0 0 0 1 forward_v I I I I #
coedge $-1 $344 $342 $346 $489 reversed $221 $-1 #
edge $-1 $357 -6.6816011488638951 $491 6.6816011488638951 $356 $573 forward 7 unknown #
vertex $-1 $489 $574 #
straight-curve $-1 -73.166295358134704 -32.098761834536518 0 0 0 -1 I I #
edge $-1 $487 -32.098761834536518 $491 32.098761834536518 $485 $575 forward 7 unknown #
straight-curve $-1 0 -32.098761834536518 -6.6816011488638951 -1 0 0 I I #
vertex $-1 $349 $576 #
straight-curve $-1 0 32.098761834536518 -6.6816011488638951 1 0 0 I I #
point $-1 73.166295358134704 32.098761834536518 -6.6816011488638951 #
point $-1 73.166295358134704 -32.098761834536518 -6.6816011488638951 #
straight-curve $-1 -73.166295358134704 0 6.6816011488638951 0 -1 0 I I #
point $-1 -73.166295358134704 32.098761834536518 6.6816011488638951 #
point $-1 -73.166295358134704 -32.098761834536518 6.6816011488638951 #
straight-curve $-1 73.166295358134704 -32.098761834536518 0 0 0 -1 I I #
straight-curve $-1 73.166295358134704 32.098761834536518 0 0 0 -1 I I #
plane-surface $-1 0 32.098761834536518 0 0 -1 0 0 0 -1 forward_v I I I I #
coedge $-1 $370 $369 $577 $578 forward $146 $-1 #
edge $-1 $373 64.41669919662715 $579 73.166295358134704 $372 $580 forward 7 unknown #
coedge $-1 $378 $377 $370 $504 reversed $379 $-1 #
edge $-1 $581 -73.166295358134704 $505 -64.41669919662715 $503 $582 forward 7 unknown #
vertex $-1 $385 $583 #
straight-curve $-1 -64.41669919662715 0 -6.6816011488638951 0 -1 0 I I #
point $-1 -64.41669919662715 -32.098761834536518 -6.6816011488638951 #
coedge $-1 $577 $375 $378 $511 forward $367 $-1 #
coedge $-1 $375 $577 $382 $513 reversed $367 $-1 #
straight-curve $-1 -73.166295358134704 0 -3.0391120188808101 0 1 0 I I #
edge $-1 $380 3.0391120188808101 $581 6.6816011488638951 $378 $584 forward 7 unknown #
point $-1 -73.166295358134704 32.098761834536518 -3.0391120188808101 #
edge $-1 $383 3.0391120188808101 $579 6.6816011488638951 $509 $585 forward 7 unknown #
point $-1 -73.166295358134704 -32.098761834536518 -3.0391120188808101 #
straight-curve $-1 -64.41669919662715 32.098761834536518 -2.4301782919361763 0 0 -1 I I #
plane-surface $-1 73.166295358134704 0 0 -1 0 0 0 0 1 forward_v I I I I #
coedge $-1 $528 $391 $397 $524 forward $256 $-1 #
coedge $-1 $391 $528 $519 $586 forward $256 $-1 #
coedge $-1 $393 $392 $518 $586 reversed $154 $-1 #
edge $-1 $403 0.60893372694463377 $521 4.2514228569277188 $392 $587 forward 7 unknown #
vertex $-1 $395 $588 #
straight-curve $-1 64.41669919662715 0 -6.6816011488638951 0 1 0 I I #
straight-curve $-1 64.41669919662715 0 -3.0391120188808101 0 -1 0 I I #
edge $-1 $398 64.41669919662715 $532 73.166295358134704 $397 $589 forward 7 unknown #
point $-1 64.41669919662715 32.098761834536518 -6.6816011488638951 #
point $-1 64.41669919662715 32.098761834536518 -3.0391120188808101 #
point $-1 64.41669919662715 -32.098761834536518 -3.0391120188808101 #
coedge $-1 $518 $517 $405 $529 forward $256 $-1 #
edge $-1 $532 -32.098761834536518 $530 32.098761834536518 $405 $590 forward 7 unknown #
vertex $-1 $406 $591 #
straight-curve $-1 73.166295358134704 -32.098761834536518 0 0 0 -1 I I #
vertex $-1 $529 $592 #
straight-curve $-1 73.166295358134704 32.098761834536518 0 0 0 -1 I I #
edge $-1 $535 33.849913122091976 $538 39.674261318128302 $411 $593 forward 7 unknown #
vertex $-1 $534 $594 #
straight-curve $-1 -44.765939535088222 -32.098761834536518 54.135594624913267 0 0 1 I I #
edge $-1 $538 17.470279852159383 $422 37.121039513698292 $421 $595 forward 7 unknown #
vertex $-1 $537 $596 #
straight-curve $-1 -44.765939535088222 -32.098761834536504 1.2503084684150707 0 -0.7313536940579346 -0.68199836817093118 I I #
point $-1 -44.765939535088222 -32.098761834536518 1.2503084684150574 #
point $-1 -64.416699196627135 -26.274413638500196 6.6816011488638951 #
straight-curve $-1 0 -32.098761834536518 6.6816011488638951 1 0 0 I I #
vertex $-1 $428 $597 #
point $-1 -53.591319365857679 -26.537831538764511 1.1255116048214215 #
coedge $-1 $443 $442 $435 $546 forward $432 $-1 #
edge $-1 $547 -5.8799614118861783 $550 1.4151398379416449 $545 $598 forward 7 unknown #
vertex $-1 $546 $599 #
straight-curve $-1 -21.281089918668641 32.098761834536518 80.396971323810689 0 0 1 I I #
edge $-1 $550 -14.712713626465685 $444 1.5759610420597738 $443 $600 forward 7 unknown #
vertex $-1 $549 $601 #
straight-curve $-1 -21.281089918668641 -22.929255976365212 35.362431461007162 0 0.85716729658548041 -0.51503808176128008 I I #
point $-1 -21.281089918668641 32.098761834536511 2.2982620166634078 #
point $-1 -4.992415250143182 24.803660584708695 6.6816011488638942 #
straight-curve $-1 0 32.098761834536518 6.6816011488638951 -1 0 0 I I #
vertex $-1 $450 $602 #
point $-1 -15.62718287051851 27.133790731006297 2.2973757502702474 #
vertex $-1 $454 $603 #
point $-1 -8.6463222982933132 27.133790731006297 2.2973757502702474 #
coedge $-1 $469 $468 $461 $560 forward $458 $-1 #
edge $-1 $561 -5.8799614118861783 $564 1.4151398379416449 $559 $604 forward 7 unknown #
vertex $-1 $560 $605 #
straight-curve $-1 4.9924152501432104 32.098761834536518 80.396971323810689 0 0 1 I I #
edge $-1 $564 -1.5759610420597596 $470 14.7127136264657 $469 $606 forward 7 unknown #
vertex $-1 $563 $607 #
straight-curve $-1 4.9924152501432104 -22.929255976365212 35.362431461007162 0 0.85716729658548041 -0.51503808176128008 I I #
point $-1 4.9924152501432104 32.098761834536511 2.2982620166634078 #
point $-1 21.28108991866867 24.803660584708695 6.6816011488638942 #
straight-curve $-1 0 32.098761834536518 6.6816011488638951 -1 0 0 I I #
vertex $-1 $476 $608 #
point $-1 10.646322298293342 27.133790731006297 2.2973757502702474 #
vertex $-1 $480 $609 #
point $-1 17.627182870518538 27.133790731006297 2.2973757502702474 #
straight-curve $-1 -73.166295358134704 32.098761834536518 0 0 0 -1 I I #
point $-1 -73.166295358134704 -32.098761834536518 -6.6816011488638951 #
straight-curve $-1 -73.166295358134704 0 -6.6816011488638951 0 1 0 I I #
point $-1 -73.166295358134704 32.098761834536518 -6.6816011488638951 #
coedge $-1 $509 $508 $501 $578 reversed $367 $-1 #
edge $-1 $579 -32.098761834536518 $581 32.098761834536518 $577 $610 forward 7 unknown #
vertex $-1 $578 $611 #
straight-curve $-1 0 -32.098761834536518 -6.6816011488638951 -1 0 0 I I #
vertex $-1 $504 $612 #
straight-curve $-1 0 32.098761834536518 -6.6816011488638951 1 0 0 I I #
point $-1 -64.41669919662715 32.098761834536518 -6.6816011488638951 #
straight-curve $-1 -73.166295358134704 32.098761834536518 0 0 0 -1 I I #
straight-curve $-1 -73.166295358134704 -32.098761834536518 0 0 0 -1 I I #
edge $-1 $530 -73.166295358134704 $521 -64.41669919662715 $519 $613 forward 7 unknown #
straight-curve $-1 64.41669919662715 -32.098761834536518 -2.4301782919361763 0 0 -1 I I #
point $-1 64.41669919662715 -32.098761834536518 -6.6816011488638951 #
straight-curve $-1 0 32.098761834536518 -6.6816011488638951 1 0 0 I I #
straight-curve $-1 73.166295358134704 0 -6.6816011488638951 0 -1 0 I I #
point $-1 73.166295358134704 -32.098761834536518 -6.6816011488638951 #
point $-1 73.166295358134704 32.098761834536518 -6.6816011488638951 #
straight-curve $-1 -44.765939535088222 -65.948674956628494 6.6816011488638978 0 1 0 I I #
point $-1 -44.765939535088222 -32.098761834536518 6.6816011488638951 #
straight-curve $-1 -27.295659682928839 -26.274413638500199 6.6816011488638942 -1 0 0 I I #
point $-1 -44.765939535088222 -26.274413638500196 6.6816011488638951 #
point $-1 -54.591319365857679 -25.855833170593581 0.39415791076348694 #
straight-curve $-1 -21.281089918668641 26.218800422650339 6.6816011488638907 0 -1 0 I I #
point $-1 -21.281089918668641 32.098761834536518 6.6816011488638951 #
straight-curve $-1 -6.5683762922029558 24.803660584708702 6.6816011488638942 1 0 0 I I #
point $-1 -21.281089918668641 24.803660584708695 6.6816011488638942 #
point $-1 -16.62718287051851 26.618752649245014 1.4402084536847672 #
point $-1 -9.6463222982933132 26.618752649245014 1.4402084536847672 #
straight-curve $-1 4.9924152501432104 26.218800422650339 6.6816011488638907 0 -1 0 I I #
point $-1 4.9924152501432104 32.098761834536518 6.6816011488638951 #
straight-curve $-1 6.56837629220297 24.803660584708702 6.6816011488638942 1 0 0 I I #
point $-1 4.9924152501432104 24.803660584708695 6.6816011488638942 #
point $-1 9.6463222982933416 26.618752649245014 1.4402084536847672 #
point $-1 16.627182870518538 26.618752649245014 1.4402084536847672 #
straight-curve $-1 -73.166295358134704 0 -6.6816011488638951 0 1 0 I I #
point $-1 -73.166295358134704 -32.098761834536518 -6.6816011488638951 #
point $-1 -73.166295358134704 32.098761834536518 -6.6816011488638951 #
straight-curve $-1 0 -32.098761834536518 -6.6816011488638951 -1 0 0 I I #
End-of-ACIS-data 