500 0 11 0           
7 Unknown 11 ACIS 5.0 NT 24 Thu Mar 25 21:03:57 1999 
-1 9.9999999999999995e-007 1e-010 
body $-1 $11 $-1 $12 #
body $-1 $13 $-1 $14 #
body $-1 $15 $-1 $16 #
body $-1 $17 $-1 $18 #
body $-1 $19 $-1 $20 #
body $-1 $21 $-1 $22 #
body $-1 $23 $-1 $24 #
body $-1 $25 $-1 $26 #
body $-1 $27 $-1 $28 #
body $-1 $29 $-1 $30 #
body $-1 $31 $-1 $32 #
lump $-1 $-1 $33 $0 #
transform $-1 1 0 0 0 1 0 0 0 1 45.124668111209445 20.572507920960522 8.6296921101596826 1 rotate no_reflect no_shear #
lump $-1 $-1 $34 $1 #
transform $-1 1 0 0 0 1 0 0 0 1 45.124668111209445 20.572507920960522 8.6296921101596826 1 rotate no_reflect no_shear #
lump $-1 $-1 $35 $2 #
transform $-1 1 0 0 0 1 0 0 0 1 45.124668111209445 20.572507920960522 8.6296921101596826 1 rotate no_reflect no_shear #
lump $-1 $-1 $36 $3 #
transform $-1 1 0 0 0 1 0 0 0 1 45.124668111209445 20.572507920960522 8.6296921101596826 1 rotate no_reflect no_shear #
lump $-1 $-1 $37 $4 #
transform $-1 1 0 0 0 1 0 0 0 1 45.124668111209445 20.572507920960522 8.6296921101596826 1 rotate no_reflect no_shear #
lump $-1 $-1 $38 $5 #
transform $-1 1 0 0 0 1 0 0 0 1 45.124668111209445 20.572507920960522 8.6296921101596826 1 rotate no_reflect no_shear #
lump $-1 $-1 $39 $6 #
transform $-1 1 0 0 0 1 0 0 0 1 45.124668111209445 20.572507920960522 8.6296921101596826 1 rotate no_reflect no_shear #
lump $-1 $-1 $40 $7 #
transform $-1 1 0 0 0 1 0 0 0 1 45.124668111209445 20.572507920960522 8.6296921101596826 1 rotate no_reflect no_shear #
lump $-1 $-1 $41 $8 #
transform $-1 1 0 0 0 1 0 0 0 1 45.124668111209445 20.572507920960522 8.6296921101596826 1 rotate no_reflect no_shear #
lump $-1 $-1 $42 $9 #
transform $-1 1 0 0 0 1 0 0 0 1 45.124668111209445 20.572507920960522 8.6296921101596826 1 rotate no_reflect no_shear #
lump $-1 $-1 $43 $10 #
transform $-1 1 0 0 0 1 0 0 0 1 45.124668111209445 20.572507920960522 8.6296921101596826 1 rotate no_reflect no_shear #
shell $-1 $-1 $-1 $44 $-1 $11 #
shell $-1 $-1 $-1 $45 $-1 $13 #
shell $-1 $-1 $-1 $46 $-1 $15 #
shell $-1 $-1 $-1 $47 $-1 $17 #
shell $-1 $-1 $-1 $48 $-1 $19 #
shell $-1 $-1 $-1 $49 $-1 $21 #
shell $-1 $-1 $-1 $50 $-1 $23 #
shell $-1 $-1 $-1 $51 $-1 $25 #
shell $-1 $-1 $-1 $52 $-1 $27 #
shell $-1 $-1 $-1 $53 $-1 $29 #
shell $-1 $-1 $-1 $54 $-1 $31 #
face $-1 $55 $56 $33 $-1 $57 forward single #
face $-1 $58 $59 $34 $-1 $60 forward single #
face $-1 $61 $62 $35 $-1 $63 reversed single #
face $-1 $64 $65 $36 $-1 $66 forward single #
face $-1 $67 $68 $37 $-1 $69 forward single #
face $-1 $70 $71 $38 $-1 $72 reversed single #
face $-1 $73 $74 $39 $-1 $75 forward single #
face $-1 $76 $77 $40 $-1 $78 forward single #
face $-1 $79 $80 $41 $-1 $81 reversed single #
face $-1 $82 $83 $42 $-1 $84 forward single #
face $-1 $85 $86 $43 $-1 $87 forward single #
face $-1 $88 $89 $33 $-1 $90 reversed single #
loop $-1 $-1 $91 $44 #
plane-surface $-1 0 0 8.6296921101596826 0 0 1 1 0 0 forward_v I I I I #
face $-1 $92 $93 $34 $-1 $94 reversed single #
loop $-1 $-1 $95 $45 #
plane-surface $-1 -40.792437310007237 0 -4.8799490660594742 0 0 1 1 0 0 forward_v I I I I #
face $-1 $96 $97 $35 $-1 $98 reversed single #
loop $-1 $-1 $99 $46 #
plane-surface $-1 -36.460206508805022 52.030848625098727 95.86232153854543 1 0 0 0 -0.68199836817093118 -0.7313536940579346 forward_v I I I I #
face $-1 $100 $101 $36 $-1 $102 forward single #
loop $-1 $103 $104 $47 #
cone-surface $-1 -33.755590498639457 15.884268815798819 4.1145137510595067 0 -0.68199836817093118 -0.7313536940579346 1 0 0 1 I I 0 1 1 forward I I I I #
face $-1 $105 $106 $37 $-1 $107 forward single #
loop $-1 $108 $109 $48 #
cone-surface $-1 -29.698666483391104 15.884268815798819 4.1145137510595067 0 -0.68199836817093118 -0.7313536940579346 1 0 0 1 I I 0 1 1 forward I I I I #
face $-1 $110 $111 $38 $-1 $112 reversed single #
loop $-1 $-1 $113 $49 #
plane-surface $-1 -4.4885395894301219 -69.725819955892121 78.698195076064849 -1 0 0 0 -0.54463904215088732 0.83867056331134215 forward_v I I I I #
face $-1 $114 $115 $39 $-1 $116 forward single #
loop $-1 $117 $118 $50 #
cone-surface $-1 -13.848859267685008 -15.828919160943641 5.1788904686336199 0 0.54463904215088732 -0.83867056331134215 1 0 0 1 I I 0 1 1 forward I I I I #
face $-1 $119 $120 $40 $-1 $121 forward single #
loop $-1 $122 $123 $51 #
cone-surface $-1 -8.232667460732074 -15.828919160943641 5.1788904686336199 0 0.54463904215088732 -0.83867056331134215 1 0 0 1 I I 0 1 1 forward I I I I #
face $-1 $124 $125 $41 $-1 $126 reversed single #
loop $-1 $-1 $127 $52 #
plane-surface $-1 26.257448741391368 -69.725819955892121 78.698195076064849 -1 0 0 0 -0.54463904215088732 0.83867056331134215 forward_v I I I I #
face $-1 $128 $129 $42 $-1 $130 forward single #
loop $-1 $131 $132 $53 #
cone-surface $-1 16.897129063136489 -15.828919160943641 5.1788904686336199 0 0.54463904215088732 -0.83867056331134215 1 0 0 1 I I 0 1 1 forward I I I I #
face $-1 $133 $134 $43 $-1 $135 forward single #
loop $-1 $136 $137 $54 #
cone-surface $-1 22.513320870089416 -15.828919160943641 5.1788904686336199 0 0.54463904215088732 -0.83867056331134215 1 0 0 1 I I 0 1 1 forward I I I I #
face $-1 $138 $139 $33 $-1 $140 reversed single #
loop $-1 $-1 $141 $55 #
plane-surface $-1 0 0 -8.6296921101596826 0 0 1 1 0 0 forward_v I I I I #
coedge $-1 $142 $143 $144 $145 forward $56 $-1 #
face $-1 $146 $147 $34 $-1 $148 reversed single #
loop $-1 $-1 $149 $58 #
plane-surface $-1 -36.46020650880503 0 -6.7548205881095784 -1 0 0 0 0 1 forward_v I I I I #
coedge $-1 $150 $151 $152 $153 forward $59 $-1 #
face $-1 $154 $155 $35 $-1 $156 reversed single #
loop $-1 $-1 $157 $61 #
plane-surface $-1 -31.727128491015279 -9.5190514071006689 29.858136106002817 0 0.68199836817093118 0.7313536940579346 1 0 0 forward_v I I I I #
coedge $-1 $158 $159 $160 $161 reversed $62 $-1 #
face $-1 $-1 $162 $36 $-1 $163 forward single #
loop $-1 $164 $165 $64 #
cone-surface $-1 -33.755590498639457 14.518450891761564 2.6498533782874265 0 -0.68199836817093118 -0.7313536940579346 0.5 0 0 1 I I -0.70710678118654746 0.70710678118654746 0.5 forward I I I I #
loop $-1 $-1 $166 $47 #
coedge $-1 $104 $104 $167 $168 reversed $65 $-1 #
face $-1 $-1 $169 $37 $-1 $170 forward single #
loop $-1 $171 $172 $67 #
cone-surface $-1 -29.698666483391104 14.518450891761564 2.6498533782874265 0 -0.68199836817093118 -0.7313536940579346 0.5 0 0 1 I I -0.70710678118654746 0.70710678118654746 0.5 forward I I I I #
loop $-1 $-1 $173 $48 #
coedge $-1 $109 $109 $174 $175 reversed $68 $-1 #
face $-1 $176 $177 $38 $-1 $178 reversed single #
loop $-1 $-1 $179 $70 #
plane-surface $-1 -11.040763364208544 -20.572507920960518 3.0087334279340894 0 -0.54463904215088732 0.83867056331134215 1 0 0 forward_v I I I I #
coedge $-1 $180 $181 $182 $183 reversed $71 $-1 #
face $-1 $-1 $184 $39 $-1 $185 forward single #
loop $-1 $186 $187 $73 #
cone-surface $-1 -13.848859267685008 -15.140769468140245 4.1192328865646832 0 0.54463904215088732 -0.83867056331134215 0.5 0 0 1 I I -0.70710678118654746 0.70710678118654746 0.5 forward I I I I #
loop $-1 $-1 $188 $50 #
coedge $-1 $118 $118 $189 $190 reversed $74 $-1 #
face $-1 $-1 $191 $40 $-1 $192 forward single #
loop $-1 $193 $194 $76 #
cone-surface $-1 -8.232667460732074 -15.140769468140245 4.1192328865646832 0 0.54463904215088732 -0.83867056331134215 0.5 0 0 1 I I -0.70710678118654746 0.70710678118654746 0.5 forward I I I I #
loop $-1 $-1 $195 $51 #
coedge $-1 $123 $123 $196 $197 reversed $77 $-1 #
face $-1 $198 $199 $41 $-1 $200 reversed single #
loop $-1 $-1 $201 $79 #
plane-surface $-1 19.705224966612946 -20.572507920960518 3.0087334279340894 0 -0.54463904215088732 0.83867056331134215 1 0 0 forward_v I I I I #
coedge $-1 $202 $203 $204 $205 reversed $80 $-1 #
face $-1 $-1 $206 $42 $-1 $207 forward single #
loop $-1 $208 $209 $82 #
cone-surface $-1 16.897129063136489 -15.140769468140245 4.1192328865646832 0 0.54463904215088732 -0.83867056331134215 0.5 0 0 1 I I -0.70710678118654746 0.70710678118654746 0.5 forward I I I I #
loop $-1 $-1 $210 $53 #
coedge $-1 $132 $132 $211 $212 reversed $83 $-1 #
face $-1 $-1 $213 $43 $-1 $214 forward single #
loop $-1 $215 $216 $85 #
cone-surface $-1 22.513320870089416 -15.140769468140245 4.1192328865646832 0 0.54463904215088732 -0.83867056331134215 0.5 0 0 1 I I -0.70710678118654746 0.70710678118654746 0.5 forward I I I I #
loop $-1 $-1 $217 $54 #
coedge $-1 $137 $137 $218 $219 reversed $86 $-1 #
face $-1 $220 $221 $33 $-1 $222 reversed single #
loop $-1 $-1 $223 $88 #
plane-surface $-1 0 -20.572507920960522 0 0 1 0 0 0 1 forward_v I I I I #
coedge $-1 $224 $225 $226 $227 forward $89 $-1 #
coedge $-1 $228 $91 $229 $230 forward $56 $-1 #
coedge $-1 $91 $228 $231 $232 forward $56 $-1 #
coedge $-1 $233 $234 $91 $145 reversed $235 $-1 #
edge $-1 $236 -20.572507920960522 $237 20.572507920960522 $144 $238 forward 7 unknown #
face $-1 $239 $240 $34 $-1 $241 reversed single #
loop $-1 $-1 $242 $92 #
plane-surface $-1 0 0 -8.6296921101596826 0 0 1 1 0 0 forward_v I I I I #
coedge $-1 $243 $152 $244 $245 reversed $93 $-1 #
coedge $-1 $246 $95 $247 $248 reversed $59 $-1 #
coedge $-1 $95 $246 $249 $250 reversed $59 $-1 #
coedge $-1 $149 $251 $95 $153 reversed $93 $-1 #
edge $-1 $252 -20.572507920960522 $253 20.572507920960522 $152 $254 forward 7 unknown #
face $-1 $255 $256 $35 $-1 $257 reversed single #
loop $-1 $-1 $258 $96 #
plane-surface $-1 -26.994050473225535 52.030848625098727 95.86232153854543 -1 0 0 0 0.68199836817093118 0.7313536940579346 forward_v I I I I #
coedge $-1 $259 $260 $261 $262 reversed $97 $-1 #
coedge $-1 $159 $99 $263 $264 reversed $62 $-1 #
coedge $-1 $99 $158 $259 $265 reversed $62 $-1 #
coedge $-1 $261 $266 $99 $161 forward $267 $-1 #
edge $-1 $268 5.4429163915888417 $269 12.769757122008667 $160 $270 forward 7 unknown #
loop $-1 $-1 $167 $100 #
plane-surface $-1 -31.727128491015279 -9.5190514071006689 29.858136106002817 0 0.68199836817093118 0.7313536940579346 1 0 0 forward_v I I I I #
loop $-1 $-1 $271 $64 #
coedge $-1 $165 $165 $166 $272 reversed $101 $-1 #
coedge $-1 $166 $166 $165 $272 forward $103 $-1 #
coedge $-1 $167 $167 $104 $168 forward $162 $-1 #
edge $-1 $273 -6.0573623288012184e-016 $273 6.2831853071795996 $167 $274 forward 7 unknown #
loop $-1 $-1 $174 $105 #
plane-surface $-1 -31.727128491015279 -9.5190514071006689 29.858136106002817 0 0.68199836817093118 0.7313536940579346 1 0 0 forward_v I I I I #
loop $-1 $-1 $275 $67 #
coedge $-1 $172 $172 $173 $276 reversed $106 $-1 #
coedge $-1 $173 $173 $172 $276 forward $108 $-1 #
coedge $-1 $174 $174 $109 $175 forward $169 $-1 #
edge $-1 $277 -6.0573623288012184e-016 $277 6.2831853071795996 $174 $278 forward 7 unknown #
face $-1 $279 $280 $38 $-1 $281 forward single #
loop $-1 $-1 $282 $110 #
plane-surface $-1 -17.592987138986967 -69.725819955892121 78.698195076064849 1 0 0 0 0.54463904215088732 -0.83867056331134215 forward_v I I I I #
coedge $-1 $283 $284 $285 $286 reversed $111 $-1 #
coedge $-1 $181 $113 $287 $288 reversed $71 $-1 #
coedge $-1 $113 $180 $283 $289 reversed $71 $-1 #
coedge $-1 $285 $290 $113 $183 forward $280 $-1 #
edge $-1 $291 14.290402056985538 $292 22.945919233563401 $182 $293 forward 7 unknown #
loop $-1 $-1 $189 $114 #
plane-surface $-1 -11.040763364208544 -20.572507920960518 3.0087334279340894 0 -0.54463904215088732 0.83867056331134215 1 0 0 forward_v I I I I #
loop $-1 $-1 $294 $73 #
coedge $-1 $187 $187 $188 $295 reversed $115 $-1 #
coedge $-1 $188 $188 $187 $295 forward $117 $-1 #
coedge $-1 $189 $189 $118 $190 forward $184 $-1 #
edge $-1 $296 -1.0446098072252668e-015 $296 6.2831853071795996 $189 $297 forward 7 unknown #
loop $-1 $-1 $196 $119 #
plane-surface $-1 -11.040763364208544 -20.572507920960518 3.0087334279340894 0 -0.54463904215088732 0.83867056331134215 1 0 0 forward_v I I I I #
loop $-1 $-1 $298 $76 #
coedge $-1 $194 $194 $195 $299 reversed $120 $-1 #
coedge $-1 $195 $195 $194 $299 forward $122 $-1 #
coedge $-1 $196 $196 $123 $197 forward $191 $-1 #
edge $-1 $300 -1.0446098072252668e-015 $300 6.2831853071795996 $196 $301 forward 7 unknown #
face $-1 $302 $303 $41 $-1 $304 reversed single #
loop $-1 $-1 $305 $124 #
plane-surface $-1 13.153001191834523 -69.725819955892121 78.698195076064849 1 0 0 0 0.54463904215088732 -0.83867056331134215 forward_v I I I I #
coedge $-1 $306 $307 $308 $309 reversed $125 $-1 #
coedge $-1 $203 $127 $310 $311 reversed $80 $-1 #
coedge $-1 $127 $202 $306 $312 reversed $80 $-1 #
coedge $-1 $308 $313 $127 $205 forward $314 $-1 #
edge $-1 $315 14.290402056985538 $316 22.945919233563401 $204 $317 forward 7 unknown #
loop $-1 $-1 $211 $128 #
plane-surface $-1 19.705224966612946 -20.572507920960518 3.0087334279340894 0 -0.54463904215088732 0.83867056331134215 1 0 0 forward_v I I I I #
loop $-1 $-1 $318 $82 #
coedge $-1 $209 $209 $210 $319 reversed $129 $-1 #
coedge $-1 $210 $210 $209 $319 forward $131 $-1 #
coedge $-1 $211 $211 $132 $212 forward $206 $-1 #
edge $-1 $320 -1.0446098072252668e-015 $320 6.2831853071795996 $211 $321 forward 7 unknown #
loop $-1 $-1 $218 $133 #
plane-surface $-1 19.705224966612946 -20.572507920960518 3.0087334279340894 0 -0.54463904215088732 0.83867056331134215 1 0 0 forward_v I I I I #
loop $-1 $-1 $322 $85 #
coedge $-1 $216 $216 $217 $323 reversed $134 $-1 #
coedge $-1 $217 $217 $216 $323 forward $136 $-1 #
coedge $-1 $218 $218 $137 $219 forward $213 $-1 #
edge $-1 $324 -1.0446098072252668e-015 $324 6.2831853071795996 $218 $325 forward 7 unknown #
face $-1 $326 $327 $33 $-1 $328 reversed single #
loop $-1 $-1 $329 $138 #
plane-surface $-1 -45.124668111209445 0 0 1 0 0 0 0 -1 forward_v I I I I #
coedge $-1 $330 $231 $331 $332 forward $139 $-1 #
coedge $-1 $333 $141 $330 $334 forward $89 $-1 #
coedge $-1 $141 $333 $335 $336 forward $89 $-1 #
coedge $-1 $234 $233 $141 $227 reversed $235 $-1 #
edge $-1 $337 -20.572507920960522 $338 20.572507920960522 $226 $339 forward 7 unknown #
coedge $-1 $143 $142 $340 $341 forward $56 $-1 #
coedge $-1 $342 $343 $142 $230 reversed $327 $-1 #
edge $-1 $237 -45.124668111209445 $344 45.124668111209445 $229 $345 forward 7 unknown #
coedge $-1 $223 $346 $143 $232 reversed $139 $-1 #
edge $-1 $347 -45.124668111209445 $236 45.124668111209445 $231 $348 forward 7 unknown #
coedge $-1 $226 $144 $346 $349 forward $235 $-1 #
coedge $-1 $144 $226 $342 $350 reversed $235 $-1 #
loop $-1 $-1 $233 $326 #
vertex $-1 $145 $351 #
vertex $-1 $145 $352 #
straight-curve $-1 45.124668111209445 0 8.6296921101596826 0 1 0 I I #
face $-1 $353 $354 $34 $-1 $355 reversed single #
loop $-1 $-1 $244 $146 #
plane-surface $-1 0 -20.572507920960522 0 0 1 0 0 0 1 forward_v I I I I #
coedge $-1 $356 $357 $243 $358 forward $147 $-1 #
coedge $-1 $251 $149 $242 $358 reversed $93 $-1 #
coedge $-1 $249 $359 $149 $245 forward $240 $-1 #
edge $-1 $360 -5.2522818161048939 $252 -1.502538772004685 $244 $361 forward 7 unknown #
coedge $-1 $151 $150 $362 $363 reversed $59 $-1 #
coedge $-1 $364 $365 $150 $248 forward $366 $-1 #
edge $-1 $367 -24.728449456205826 $253 -16.063987853801411 $247 $368 forward 7 unknown #
coedge $-1 $369 $244 $151 $250 forward $240 $-1 #
edge $-1 $252 16.063987853801411 $370 24.728449456205826 $249 $371 forward 7 unknown #
coedge $-1 $152 $243 $364 $372 reversed $93 $-1 #
vertex $-1 $250 $373 #
vertex $-1 $248 $374 #
straight-curve $-1 -36.46020650880503 0 -4.8799490660594742 0 1 0 I I #
face $-1 $-1 $267 $35 $-1 $375 forward single #
loop $-1 $-1 $376 $154 #
plane-surface $-1 0 20.572507920960522 0 0 -1 0 0 0 -1 forward_v I I I I #
coedge $-1 $377 $378 $379 $380 reversed $155 $-1 #
coedge $-1 $381 $157 $159 $265 forward $97 $-1 #
coedge $-1 $157 $381 $377 $382 forward $97 $-1 #
coedge $-1 $379 $160 $157 $262 forward $267 $-1 #
edge $-1 $269 -20.596642263297383 $383 -11.130486227717896 $261 $384 forward 7 unknown #
coedge $-1 $385 $386 $158 $264 forward $256 $-1 #
edge $-1 $387 -46.133858325827156 $268 -39.301468659113034 $263 $388 forward 7 unknown #
edge $-1 $269 31.126825204547398 $387 41.145015841921037 $159 $389 forward 7 unknown #
coedge $-1 $160 $379 $385 $390 forward $267 $-1 #
loop $-1 $-1 $379 $255 #
vertex $-1 $264 $391 #
vertex $-1 $161 $392 #
straight-curve $-1 -36.460206508805022 26.015424312549364 8.6296921101596809 0 -1 0 I I #
coedge $-1 $271 $271 $-1 $393 reversed $164 $-1 #
edge $-1 $394 0 $394 6.2831853071796004 $165 $395 forward 7 unknown #
vertex $-1 $168 $396 #
ellipse-curve $-1 -33.755590498639457 16.90908755575061 5.2134972768026193 0 0.68199836817093118 0.7313536940579346 1 0 0 1 I I #
coedge $-1 $275 $275 $-1 $397 reversed $171 $-1 #
edge $-1 $398 0 $398 6.2831853071796004 $172 $399 forward 7 unknown #
vertex $-1 $175 $400 #
ellipse-curve $-1 -29.698666483391104 16.90908755575061 5.2134972768026193 0 0.68199836817093118 0.7313536940579346 1 0 0 1 I I #
face $-1 $-1 $401 $38 $-1 $402 reversed single #
loop $-1 $-1 $182 $176 #
plane-surface $-1 0 0 8.6296921101596826 0 0 1 1 0 0 forward_v I I I I #
coedge $-1 $403 $404 $405 $406 reversed $177 $-1 #
coedge $-1 $407 $179 $181 $289 forward $111 $-1 #
coedge $-1 $179 $407 $403 $408 forward $111 $-1 #
coedge $-1 $405 $182 $179 $286 forward $280 $-1 #
edge $-1 $292 -1.0318420926741503 $409 12.072605456882695 $285 $410 forward 7 unknown #
coedge $-1 $411 $412 $180 $288 forward $401 $-1 #
edge $-1 $413 -36.340364110098335 $291 -30.719405427872744 $287 $414 forward 7 unknown #
edge $-1 $292 -10.320521018888613 $413 4.1888979916949389e-015 $181 $415 forward 7 unknown #
coedge $-1 $182 $405 $411 $416 forward $280 $-1 #
vertex $-1 $183 $417 #
vertex $-1 $183 $418 #
straight-curve $-1 -4.4885395894301219 -34.86290997794606 8.6296921101596809 0 1 0 I I #
coedge $-1 $294 $294 $-1 $419 reversed $186 $-1 #
edge $-1 $420 0 $420 6.2831853071796004 $187 $421 forward 7 unknown #
vertex $-1 $190 $422 #
ellipse-curve $-1 -13.848859267685008 -16.244749332671592 5.8192127690468833 0 -0.54463904215088732 0.83867056331134215 1 0 0 1 I I #
coedge $-1 $298 $298 $-1 $423 reversed $193 $-1 #
edge $-1 $424 0 $424 6.2831853071796004 $194 $425 forward 7 unknown #
vertex $-1 $197 $426 #
ellipse-curve $-1 -8.232667460732074 -16.244749332671592 5.8192127690468833 0 -0.54463904215088732 0.83867056331134215 1 0 0 1 I I #
face $-1 $-1 $314 $41 $-1 $427 forward single #
loop $-1 $-1 $428 $198 #
plane-surface $-1 0 -20.572507920960522 0 0 1 0 0 0 1 forward_v I I I I #
coedge $-1 $429 $430 $431 $432 reversed $199 $-1 #
coedge $-1 $433 $201 $203 $312 forward $125 $-1 #
coedge $-1 $201 $433 $429 $434 forward $125 $-1 #
coedge $-1 $431 $204 $201 $309 forward $314 $-1 #
edge $-1 $316 -16.404836258084895 $435 -3.3003887085280503 $308 $436 forward 7 unknown #
coedge $-1 $437 $438 $202 $311 forward $303 $-1 #
edge $-1 $439 -36.340364110098335 $315 -30.719405427872744 $310 $440 forward 7 unknown #
edge $-1 $316 -10.320521018888613 $439 4.1888979916949389e-015 $203 $441 forward 7 unknown #
coedge $-1 $204 $431 $437 $442 forward $314 $-1 #
loop $-1 $-1 $431 $302 #
vertex $-1 $311 $443 #
vertex $-1 $205 $444 #
straight-curve $-1 26.257448741391368 -34.86290997794606 8.6296921101596809 0 1 0 I I #
coedge $-1 $318 $318 $-1 $445 reversed $208 $-1 #
edge $-1 $446 0 $446 6.2831853071796004 $209 $447 forward 7 unknown #
vertex $-1 $212 $448 #
ellipse-curve $-1 16.897129063136489 -16.244749332671592 5.8192127690468833 0 -0.54463904215088732 0.83867056331134215 1 0 0 1 I I #
coedge $-1 $322 $322 $-1 $449 reversed $215 $-1 #
edge $-1 $450 0 $450 6.2831853071796004 $216 $451 forward 7 unknown #
vertex $-1 $219 $452 #
ellipse-curve $-1 22.513320870089416 -16.244749332671592 5.8192127690468833 0 -0.54463904215088732 0.83867056331134215 1 0 0 1 I I #
face $-1 $-1 $235 $33 $-1 $453 reversed single #
loop $-1 $-1 $342 $220 #
plane-surface $-1 0 20.572507920960522 0 0 -1 0 0 0 -1 forward_v I I I I #
coedge $-1 $454 $340 $343 $455 forward $221 $-1 #
coedge $-1 $346 $223 $224 $334 reversed $139 $-1 #
coedge $-1 $340 $454 $223 $332 reversed $221 $-1 #
edge $-1 $347 -8.6296921101596826 $456 8.6296921101596826 $331 $457 forward 7 unknown #
coedge $-1 $225 $224 $454 $458 forward $89 $-1 #
edge $-1 $338 -45.124668111209445 $456 45.124668111209445 $330 $459 forward 7 unknown #
coedge $-1 $343 $342 $225 $336 reversed $327 $-1 #
edge $-1 $460 -45.124668111209445 $337 45.124668111209445 $335 $461 forward 7 unknown #
vertex $-1 $227 $462 #
vertex $-1 $349 $463 #
straight-curve $-1 45.124668111209445 0 -8.6296921101596826 0 -1 0 I I #
coedge $-1 $329 $331 $228 $341 reversed $221 $-1 #
edge $-1 $344 -20.572507920960522 $347 20.572507920960522 $340 $464 forward 7 unknown #
coedge $-1 $335 $229 $234 $350 forward $327 $-1 #
coedge $-1 $229 $335 $329 $455 reversed $327 $-1 #
vertex $-1 $230 $465 #
straight-curve $-1 0 20.572507920960522 8.6296921101596826 -1 0 0 I I #
coedge $-1 $231 $330 $233 $349 reversed $139 $-1 #
vertex $-1 $341 $466 #
straight-curve $-1 0 -20.572507920960522 8.6296921101596826 1 0 0 I I #
edge $-1 $236 -8.6296921101596826 $338 8.6296921101596826 $233 $467 forward 7 unknown #
edge $-1 $237 -8.6296921101596826 $337 8.6296921101596826 $234 $468 forward 7 unknown #
point $-1 45.124668111209445 -20.572507920960522 8.6296921101596826 #
point $-1 45.124668111209445 20.572507920960522 8.6296921101596826 #
face $-1 $-1 $366 $34 $-1 $469 reversed single #
loop $-1 $-1 $362 $239 #
plane-surface $-1 -45.124668111209445 0 0 1 0 0 0 0 -1 forward_v I I I I #
coedge $-1 $470 $242 $359 $471 forward $147 $-1 #
coedge $-1 $242 $470 $472 $473 forward $147 $-1 #
edge $-1 $474 -20.572507920960522 $360 20.572507920960522 $242 $475 forward 7 unknown #
coedge $-1 $244 $369 $356 $471 reversed $240 $-1 #
vertex $-1 $471 $476 #
straight-curve $-1 -36.46020650880503 -20.572507920960522 -3.3774102940547892 0 0 1 I I #
coedge $-1 $477 $478 $246 $363 forward $354 $-1 #
edge $-1 $370 -20.572507920960522 $367 20.572507920960522 $362 $479 forward 7 unknown #
coedge $-1 $472 $247 $251 $372 forward $366 $-1 #
coedge $-1 $247 $472 $477 $480 reversed $366 $-1 #
loop $-1 $-1 $364 $353 #
vertex $-1 $480 $481 #
straight-curve $-1 -20.396218655003619 20.572507920960522 -4.8799490660594742 1 0 0 I I #
coedge $-1 $359 $249 $478 $482 forward $240 $-1 #
vertex $-1 $482 $483 #
straight-curve $-1 -20.396218655003619 -20.572507920960522 -4.8799490660594742 -1 0 0 I I #
edge $-1 $253 1.502538772004685 $474 5.2522818161048939 $364 $484 forward 7 unknown #
point $-1 -36.46020650880503 -20.572507920960522 -4.8799490660594742 #
point $-1 -36.46020650880503 20.572507920960522 -4.8799490660594742 #
plane-surface $-1 0 0 8.6296921101596826 0 0 1 1 0 0 forward_v I I I I #
coedge $-1 $386 $385 $378 $485 forward $256 $-1 #
coedge $-1 $378 $258 $260 $382 reversed $155 $-1 #
coedge $-1 $258 $377 $376 $485 reversed $155 $-1 #
coedge $-1 $266 $261 $258 $380 forward $267 $-1 #
edge $-1 $383 -12.769757122008667 $486 -5.4429163915888417 $379 $487 forward 7 unknown #
coedge $-1 $260 $259 $386 $488 reversed $97 $-1 #
edge $-1 $489 -41.145015841921037 $383 -31.126825204547398 $377 $490 forward 7 unknown #
vertex $-1 $262 $491 #
straight-curve $-1 -15.863564245507639 13.245667190540697 8.6296921101596826 1 0 0 I I #
coedge $-1 $376 $263 $266 $390 reversed $256 $-1 #
coedge $-1 $263 $376 $381 $488 forward $256 $-1 #
vertex $-1 $264 $492 #
straight-curve $-1 -36.460206508805022 20.572507920960522 47.931160769272715 0 0 1 I I #
straight-curve $-1 -36.460206508805022 -9.5190514071006689 29.858136106002817 0 0.7313536940579346 -0.68199836817093118 I I #
edge $-1 $486 26.994050473225535 $268 36.460206508805022 $385 $493 forward 7 unknown #
point $-1 -36.460206508805022 20.572507920960522 8.6296921101596826 #
point $-1 -36.460206508805022 13.245667190540697 8.6296921101596809 #
edge $-1 $494 1 $494 0 $271 $-1 forward 7 unknown #
vertex $-1 $272 $495 #
ellipse-curve $-1 -33.755590498639457 14.859450075847029 3.015530225316394 0 0.68199836817093118 0.7313536940579346 1 0 0 1 I I #
point $-1 -32.755590498639457 16.90908755575061 5.2134972768026202 #
edge $-1 $496 1 $496 0 $275 $-1 forward 7 unknown #
vertex $-1 $276 $497 #
ellipse-curve $-1 -29.698666483391104 14.859450075847029 3.015530225316394 0 0.68199836817093118 0.7313536940579346 1 0 0 1 I I #
point $-1 -28.698666483391104 16.90908755575061 5.2134972768026202 #
loop $-1 $-1 $287 $279 #
plane-surface $-1 0 -20.572507920960522 0 0 1 0 0 0 1 forward_v I I I I #
coedge $-1 $404 $282 $284 $408 reversed $177 $-1 #
coedge $-1 $282 $403 $498 $499 reversed $177 $-1 #
coedge $-1 $290 $285 $282 $406 forward $280 $-1 #
edge $-1 $409 -22.945919233563401 $500 -14.290402056985538 $405 $501 forward 7 unknown #
coedge $-1 $284 $283 $412 $502 reversed $111 $-1 #
edge $-1 $503 -4.1888979916949389e-015 $409 10.320521018888613 $403 $504 forward 7 unknown #
vertex $-1 $286 $505 #
straight-curve $-1 -5.5203816821042722 -11.916990744382657 8.6296921101596826 -1 0 0 I I #
coedge $-1 $498 $287 $290 $416 reversed $401 $-1 #
coedge $-1 $287 $498 $407 $502 forward $401 $-1 #
vertex $-1 $288 $506 #
straight-curve $-1 -4.4885395894301219 -20.572507920960522 39.349097538032424 0 0 1 I I #
straight-curve $-1 -4.4885395894301219 -20.572507920960518 3.0087334279340894 0 -0.83867056331134215 -0.54463904215088732 I I #
edge $-1 $500 -17.592987138986967 $291 -4.4885395894301219 $411 $507 forward 7 unknown #
point $-1 -4.4885395894301219 -20.572507920960522 8.6296921101596826 #
point $-1 -4.4885395894301219 -11.916990744382659 8.6296921101596844 #
edge $-1 $508 1 $508 0 $294 $-1 forward 7 unknown #
vertex $-1 $295 $509 #
ellipse-curve $-1 -13.848859267685008 -15.413088989215689 4.5385681682203547 0 -0.54463904215088732 0.83867056331134215 1 0 0 1 I I #
point $-1 -12.848859267685008 -16.244749332671596 5.8192127690468869 #
edge $-1 $510 1 $510 0 $298 $-1 forward 7 unknown #
vertex $-1 $299 $511 #
ellipse-curve $-1 -8.232667460732074 -15.413088989215689 4.5385681682203547 0 -0.54463904215088732 0.83867056331134215 1 0 0 1 I I #
point $-1 -7.232667460732074 -16.244749332671596 5.8192127690468869 #
plane-surface $-1 0 0 8.6296921101596826 0 0 1 1 0 0 forward_v I I I I #
coedge $-1 $438 $437 $430 $512 forward $303 $-1 #
coedge $-1 $430 $305 $307 $434 reversed $199 $-1 #
coedge $-1 $305 $429 $428 $512 reversed $199 $-1 #
coedge $-1 $313 $308 $305 $432 forward $314 $-1 #
edge $-1 $435 -22.945919233563401 $513 -14.290402056985538 $431 $514 forward 7 unknown #
coedge $-1 $307 $306 $438 $515 reversed $125 $-1 #
edge $-1 $516 -4.1888979916949389e-015 $435 10.320521018888613 $429 $517 forward 7 unknown #
vertex $-1 $309 $518 #
straight-curve $-1 9.8526124833064728 -11.916990744382657 8.6296921101596826 -1 0 0 I I #
coedge $-1 $428 $310 $313 $442 reversed $303 $-1 #
coedge $-1 $310 $428 $433 $515 forward $303 $-1 #
vertex $-1 $311 $519 #
straight-curve $-1 26.257448741391368 -20.572507920960522 39.349097538032424 0 0 1 I I #
straight-curve $-1 26.257448741391368 -20.572507920960518 3.0087334279340894 0 -0.83867056331134215 -0.54463904215088732 I I #
edge $-1 $513 13.153001191834523 $315 26.257448741391368 $437 $520 forward 7 unknown #
point $-1 26.257448741391368 -20.572507920960522 8.6296921101596826 #
point $-1 26.257448741391368 -11.916990744382659 8.6296921101596844 #
edge $-1 $521 1 $521 0 $318 $-1 forward 7 unknown #
vertex $-1 $319 $522 #
ellipse-curve $-1 16.897129063136489 -15.413088989215689 4.5385681682203547 0 -0.54463904215088732 0.83867056331134215 1 0 0 1 I I #
point $-1 17.897129063136489 -16.244749332671596 5.8192127690468869 #
edge $-1 $523 1 $523 0 $322 $-1 forward 7 unknown #
vertex $-1 $323 $524 #
ellipse-curve $-1 22.513320870089416 -15.413088989215689 4.5385681682203547 0 -0.54463904215088732 0.83867056331134215 1 0 0 1 I I #
point $-1 23.513320870089416 -16.244749332671596 5.8192127690468869 #
plane-surface $-1 45.124668111209445 0 0 -1 0 0 0 0 1 forward_v I I I I #
coedge $-1 $331 $329 $333 $458 reversed $221 $-1 #
edge $-1 $344 -8.6296921101596826 $460 8.6296921101596826 $343 $525 forward 7 unknown #
vertex $-1 $458 $526 #
straight-curve $-1 -45.124668111209445 -20.572507920960522 0 0 0 -1 I I #
edge $-1 $456 -20.572507920960522 $460 20.572507920960522 $454 $527 forward 7 unknown #
straight-curve $-1 0 -20.572507920960522 -8.6296921101596826 -1 0 0 I I #
vertex $-1 $336 $528 #
straight-curve $-1 0 20.572507920960522 -8.6296921101596826 1 0 0 I I #
point $-1 45.124668111209445 20.572507920960522 -8.6296921101596826 #
point $-1 45.124668111209445 -20.572507920960522 -8.6296921101596826 #
straight-curve $-1 -45.124668111209445 0 8.6296921101596826 0 -1 0 I I #
point $-1 -45.124668111209445 20.572507920960522 8.6296921101596826 #
point $-1 -45.124668111209445 -20.572507920960522 8.6296921101596826 #
straight-curve $-1 45.124668111209445 -20.572507920960522 0 0 0 -1 I I #
straight-curve $-1 45.124668111209445 20.572507920960522 0 0 0 -1 I I #
plane-surface $-1 0 20.572507920960522 0 0 -1 0 0 0 -1 forward_v I I I I #
coedge $-1 $357 $356 $529 $530 forward $147 $-1 #
edge $-1 $360 36.46020650880503 $531 45.124668111209445 $359 $532 forward 7 unknown #
coedge $-1 $365 $364 $357 $473 reversed $366 $-1 #
edge $-1 $533 -45.124668111209445 $474 -36.46020650880503 $472 $534 forward 7 unknown #
vertex $-1 $372 $535 #
straight-curve $-1 -36.46020650880503 0 -8.6296921101596826 0 -1 0 I I #
point $-1 -36.46020650880503 -20.572507920960522 -8.6296921101596826 #
coedge $-1 $529 $362 $365 $480 forward $354 $-1 #
coedge $-1 $362 $529 $369 $482 reversed $354 $-1 #
straight-curve $-1 -45.124668111209445 0 -4.8799490660594742 0 1 0 I I #
edge $-1 $367 4.8799490660594742 $533 8.6296921101596826 $365 $536 forward 7 unknown #
point $-1 -45.124668111209445 20.572507920960522 -4.8799490660594742 #
edge $-1 $370 4.8799490660594742 $531 8.6296921101596826 $478 $537 forward 7 unknown #
point $-1 -45.124668111209445 -20.572507920960522 -4.8799490660594742 #
straight-curve $-1 -36.46020650880503 20.572507920960522 -3.3774102940547892 0 0 -1 I I #
edge $-1 $486 39.301468659113034 $489 46.133858325827156 $376 $538 forward 7 unknown #
vertex $-1 $390 $539 #
straight-curve $-1 -26.994050473225535 26.015424312549364 8.6296921101596809 0 1 0 I I #
edge $-1 $489 11.130486227717896 $387 20.596642263297383 $386 $540 forward 7 unknown #
vertex $-1 $488 $541 #
straight-curve $-1 -26.994050473225535 -9.5190514071006689 29.858136106002817 0 -0.7313536940579346 0.68199836817093118 I I #
point $-1 -26.994050473225535 13.245667190540697 8.6296921101596809 #
point $-1 -36.460206508805022 20.572507920960522 1.7973024434455596 #
straight-curve $-1 0 20.572507920960522 8.6296921101596826 -1 0 0 I I #
vertex $-1 $393 $542 #
point $-1 -32.755590498639457 14.859450075847029 3.015530225316394 #
vertex $-1 $397 $543 #
point $-1 -28.698666483391104 14.859450075847029 3.015530225316394 #
coedge $-1 $412 $411 $404 $499 forward $401 $-1 #
edge $-1 $500 30.719405427872744 $503 36.340364110098335 $498 $544 forward 7 unknown #
vertex $-1 $416 $545 #
straight-curve $-1 -17.592987138986967 -34.86290997794606 8.6296921101596809 0 -1 0 I I #
edge $-1 $503 -12.072605456882695 $413 1.0318420926741503 $412 $546 forward 7 unknown #
vertex $-1 $502 $547 #
straight-curve $-1 -17.592987138986967 -20.572507920960518 3.0087334279340894 0 0.83867056331134215 0.54463904215088732 I I #
point $-1 -17.592987138986967 -11.916990744382659 8.6296921101596844 #
point $-1 -4.4885395894301219 -20.572507920960522 3.0087334279340872 #
straight-curve $-1 0 -20.572507920960522 8.6296921101596826 1 0 0 I I #
vertex $-1 $419 $548 #
point $-1 -12.848859267685008 -15.413088989215689 4.5385681682203547 #
vertex $-1 $423 $549 #
point $-1 -7.232667460732074 -15.413088989215689 4.5385681682203547 #
edge $-1 $513 30.719405427872744 $516 36.340364110098335 $428 $550 forward 7 unknown #
vertex $-1 $442 $551 #
straight-curve $-1 13.153001191834523 -34.86290997794606 8.6296921101596809 0 -1 0 I I #
edge $-1 $516 3.3003887085280503 $439 16.404836258084895 $438 $552 forward 7 unknown #
vertex $-1 $515 $553 #
straight-curve $-1 13.153001191834523 -20.572507920960518 3.0087334279340894 0 0.83867056331134215 0.54463904215088732 I I #
point $-1 13.153001191834523 -11.916990744382659 8.6296921101596844 #
point $-1 26.257448741391368 -20.572507920960522 3.0087334279340872 #
straight-curve $-1 0 -20.572507920960522 8.6296921101596826 1 0 0 I I #
vertex $-1 $445 $554 #
point $-1 17.897129063136489 -15.413088989215689 4.5385681682203547 #
vertex $-1 $449 $555 #
point $-1 23.513320870089416 -15.413088989215689 4.5385681682203547 #
straight-curve $-1 -45.124668111209445 20.572507920960522 0 0 0 -1 I I #
point $-1 -45.124668111209445 -20.572507920960522 -8.6296921101596826 #
straight-curve $-1 -45.124668111209445 0 -8.6296921101596826 0 1 0 I I #
point $-1 -45.124668111209445 20.572507920960522 -8.6296921101596826 #
coedge $-1 $478 $477 $470 $530 reversed $354 $-1 #
edge $-1 $531 -20.572507920960522 $533 20.572507920960522 $529 $556 forward 7 unknown #
vertex $-1 $530 $557 #
straight-curve $-1 0 -20.572507920960522 -8.6296921101596826 -1 0 0 I I #
vertex $-1 $473 $558 #
straight-curve $-1 0 20.572507920960522 -8.6296921101596826 1 0 0 I I #
point $-1 -36.46020650880503 20.572507920960522 -8.6296921101596826 #
straight-curve $-1 -45.124668111209445 20.572507920960522 0 0 0 -1 I I #
straight-curve $-1 -45.124668111209445 -20.572507920960522 0 0 0 -1 I I #
straight-curve $-1 -26.994050473225535 20.572507920960522 47.931160769272715 0 0 -1 I I #
point $-1 -26.994050473225535 20.572507920960522 8.6296921101596826 #
straight-curve $-1 -15.863564245507639 20.572507920960522 1.7973024434455578 -1 0 0 I I #
point $-1 -26.994050473225535 20.572507920960522 1.7973024434455596 #
point $-1 -33.755590498639457 14.177451707676099 2.284176531258459 #
point $-1 -29.698666483391104 14.177451707676099 2.284176531258459 #
straight-curve $-1 -17.592987138986967 -20.572507920960522 39.349097538032424 0 0 -1 I I #
point $-1 -17.592987138986967 -20.572507920960522 8.6296921101596826 #
straight-curve $-1 -5.5203816821042722 -20.572507920960522 3.0087334279340849 1 0 0 I I #
point $-1 -17.592987138986967 -20.572507920960522 3.0087334279340872 #
point $-1 -13.848859267685008 -14.868449947064802 3.6998976049090122 #
point $-1 -8.232667460732074 -14.868449947064802 3.6998976049090122 #
straight-curve $-1 13.153001191834523 -20.572507920960522 39.349097538032424 0 0 -1 I I #
point $-1 13.153001191834523 -20.572507920960522 8.6296921101596826 #
straight-curve $-1 9.8526124833064728 -20.572507920960522 3.0087334279340849 1 0 0 I I #
point $-1 13.153001191834523 -20.572507920960522 3.0087334279340872 #
point $-1 16.897129063136489 -14.868449947064802 3.6998976049090122 #
point $-1 22.513320870089416 -14.868449947064802 3.6998976049090122 #
straight-curve $-1 -45.124668111209445 0 -8.6296921101596826 0 1 0 I I #
point $-1 -45.124668111209445 -20.572507920960522 -8.6296921101596826 #
point $-1 -45.124668111209445 20.572507920960522 -8.6296921101596826 #
End-of-ACIS-data 