500 0 7 0           
7 Unknown 11 ACIS 5.0 NT 24 Thu Mar 25 21:09:19 1999 
-1 9.9999999999999995e-007 1e-010 
body $-1 $7 $-1 $8 #
body $-1 $9 $-1 $10 #
body $-1 $11 $-1 $12 #
body $-1 $13 $-1 $14 #
body $-1 $15 $-1 $16 #
body $-1 $17 $-1 $18 #
body $-1 $19 $-1 $20 #
lump $-1 $-1 $21 $0 #
transform $-1 1 0 0 0 1 0 0 0 1 52.185430463576161 28.049569335325053 6.9445518733123111 1 rotate no_reflect no_shear #
lump $-1 $-1 $22 $1 #
transform $-1 1 0 0 0 1 0 0 0 1 52.185430463576161 28.049569335325053 6.9445518733123111 1 rotate no_reflect no_shear #
lump $-1 $-1 $23 $2 #
transform $-1 1 0 0 0 1 0 0 0 1 52.185430463576161 28.049569335325053 6.9445518733123111 1 rotate no_reflect no_shear #
lump $-1 $-1 $24 $3 #
transform $-1 1 0 0 0 1 0 0 0 1 52.185430463576161 28.049569335325053 6.9445518733123111 1 rotate no_reflect no_shear #
lump $-1 $-1 $25 $4 #
transform $-1 1 0 0 0 1 0 0 0 1 52.185430463576161 28.049569335325053 6.9445518733123111 1 rotate no_reflect no_shear #
lump $-1 $-1 $26 $5 #
transform $-1 1 0 0 0 1 0 0 0 1 52.185430463576161 28.049569335325053 6.9445518733123111 1 rotate no_reflect no_shear #
lump $-1 $-1 $27 $6 #
transform $-1 1 0 0 0 1 0 0 0 1 52.185430463576161 28.049569335325053 6.9445518733123111 1 rotate no_reflect no_shear #
shell $-1 $-1 $-1 $28 $-1 $7 #
shell $-1 $-1 $-1 $29 $-1 $9 #
shell $-1 $-1 $-1 $30 $-1 $11 #
shell $-1 $-1 $-1 $31 $-1 $13 #
shell $-1 $-1 $-1 $32 $-1 $15 #
shell $-1 $-1 $-1 $33 $-1 $17 #
shell $-1 $-1 $-1 $34 $-1 $19 #
face $-1 $35 $36 $21 $-1 $37 forward single #
face $-1 $38 $39 $22 $-1 $40 reversed single #
face $-1 $41 $42 $23 $-1 $43 reversed single #
face $-1 $44 $45 $24 $-1 $46 reversed single #
face $-1 $47 $48 $25 $-1 $49 forward single #
face $-1 $50 $51 $26 $-1 $52 forward single #
face $-1 $53 $54 $27 $-1 $55 forward single #
face $-1 $56 $57 $21 $-1 $58 reversed single #
loop $-1 $-1 $59 $28 #
plane-surface $-1 0 0 6.9445518733123111 0 0 1 1 0 0 forward_v I I I I #
face $-1 $60 $61 $22 $-1 $62 reversed single #
loop $-1 $-1 $63 $29 #
plane-surface $-1 -48.689652791722047 -17.518019825810583 0 0 1 0 0 0 1 forward_v I I I I #
face $-1 $64 $65 $23 $-1 $66 reversed single #
loop $-1 $-1 $67 $30 #
plane-surface $-1 48.689652791722047 -17.518019825810583 0 0 1 0 0 0 1 forward_v I I I I #
face $-1 $68 $69 $24 $-1 $70 reversed single #
loop $-1 $-1 $71 $31 #
plane-surface $-1 30.147396371579404 -81.804537339018907 92.741767835212372 -1 0 0 0 -0.51503808176128008 0.85716729658548041 forward_v I I I I #
face $-1 $72 $73 $25 $-1 $74 forward single #
loop $-1 $75 $76 $32 #
cone-surface $-1 10.054707333027928 -24.595347429492307 4.4399169340569102 0 0.51503808176128008 -0.85716729658548041 1.5 0 0 1 I I 0 1 1.5 forward I I I I #
face $-1 $77 $78 $26 $-1 $79 forward single #
loop $-1 $80 $81 $33 #
cone-surface $-1 17.589465722484739 -24.595347429492307 4.4399169340569102 0 0.51503808176128008 -0.85716729658548041 1.5 0 0 1 I I 0 1 1.5 forward I I I I #
face $-1 $82 $83 $27 $-1 $84 forward single #
loop $-1 $85 $86 $34 #
cone-surface $-1 25.124224111941551 -24.595347429492307 4.4399169340569102 0 0.51503808176128008 -0.85716729658548041 1.5 0 0 1 I I 0 1 1.5 forward I I I I #
face $-1 $87 $88 $21 $-1 $89 reversed single #
loop $-1 $-1 $90 $35 #
plane-surface $-1 0 0 -6.9445518733123111 0 0 1 1 0 0 forward_v I I I I #
coedge $-1 $91 $92 $93 $94 forward $36 $-1 #
face $-1 $95 $96 $22 $-1 $97 reversed single #
loop $-1 $-1 $98 $38 #
plane-surface $-1 -48.689652791722047 -14.160465588700431 0 0 -1 0 0 0 -1 forward_v I I I I #
coedge $-1 $99 $100 $101 $102 reversed $39 $-1 #
face $-1 $103 $104 $23 $-1 $105 reversed single #
loop $-1 $-1 $106 $41 #
plane-surface $-1 45.193875119867933 -15.839242707255506 0 1 0 0 0 0 -1 forward_v I I I I #
coedge $-1 $107 $108 $109 $110 forward $42 $-1 #
face $-1 $111 $112 $24 $-1 $113 reversed single #
loop $-1 $-1 $114 $44 #
plane-surface $-1 17.589465722484725 -28.049569335325039 3.2784791319860744 0 -0.51503808176128008 0.85716729658548041 1 0 0 forward_v I I I I #
coedge $-1 $115 $116 $117 $118 reversed $45 $-1 #
face $-1 $-1 $119 $25 $-1 $120 forward single #
loop $-1 $121 $122 $47 #
cone-surface $-1 10.054707333027928 -23.80553172920294 3.1254428930255225 0 0.51503808176128008 -0.85716729658548041 0.75 0 0 1 I I -0.70710678118654757 0.70710678118654757 0.75 forward I I I I #
loop $-1 $-1 $123 $32 #
coedge $-1 $76 $76 $124 $125 reversed $48 $-1 #
face $-1 $-1 $126 $26 $-1 $127 forward single #
loop $-1 $128 $129 $50 #
cone-surface $-1 17.589465722484739 -23.80553172920294 3.1254428930255225 0 0.51503808176128008 -0.85716729658548041 0.75 0 0 1 I I -0.70710678118654757 0.70710678118654757 0.75 forward I I I I #
loop $-1 $-1 $130 $33 #
coedge $-1 $81 $81 $131 $132 reversed $51 $-1 #
face $-1 $-1 $133 $27 $-1 $134 forward single #
loop $-1 $135 $136 $53 #
cone-surface $-1 25.124224111941551 -23.80553172920294 3.1254428930255225 0 0.51503808176128008 -0.85716729658548041 0.75 0 0 1 I I -0.70710678118654757 0.70710678118654757 0.75 forward I I I I #
loop $-1 $-1 $137 $34 #
coedge $-1 $86 $86 $138 $139 reversed $54 $-1 #
face $-1 $140 $141 $21 $-1 $142 reversed single #
loop $-1 $-1 $143 $56 #
plane-surface $-1 0 -28.049569335325053 0 0 1 0 0 0 1 forward_v I I I I #
coedge $-1 $144 $145 $146 $147 forward $57 $-1 #
coedge $-1 $148 $59 $149 $150 forward $36 $-1 #
coedge $-1 $59 $148 $151 $152 forward $36 $-1 #
coedge $-1 $153 $154 $59 $94 reversed $155 $-1 #
edge $-1 $156 -28.049569335325053 $157 28.049569335325053 $93 $158 forward 7 unknown #
face $-1 $159 $160 $22 $-1 $161 reversed single #
loop $-1 $-1 $162 $60 #
plane-surface $-1 -45.193875119867933 -15.839242707255506 0 -1 0 0 0 0 1 forward_v I I I I #
coedge $-1 $163 $164 $165 $166 forward $61 $-1 #
coedge $-1 $167 $63 $168 $169 reversed $39 $-1 #
coedge $-1 $63 $167 $170 $171 reversed $39 $-1 #
coedge $-1 $172 $173 $63 $102 forward $174 $-1 #
edge $-1 $175 -6.9445518733123111 $176 6.9445518733123111 $101 $177 forward 7 unknown #
face $-1 $178 $179 $23 $-1 $180 reversed single #
loop $-1 $-1 $181 $64 #
plane-surface $-1 48.689652791722047 -14.160465588700431 0 0 -1 0 0 0 -1 forward_v I I I I #
coedge $-1 $182 $183 $184 $185 forward $65 $-1 #
coedge $-1 $186 $67 $187 $188 reversed $42 $-1 #
coedge $-1 $67 $186 $189 $190 reversed $42 $-1 #
coedge $-1 $183 $182 $67 $110 reversed $65 $-1 #
edge $-1 $191 -6.9445518733123111 $192 6.9445518733123111 $109 $193 forward 7 unknown #
face $-1 $194 $195 $24 $-1 $196 forward single #
loop $-1 $-1 $197 $68 #
plane-surface $-1 5.0315350733900459 -81.804537339018907 92.741767835212372 1 0 0 0 0.51503808176128008 -0.85716729658548041 forward_v I I I I #
coedge $-1 $198 $199 $200 $201 reversed $69 $-1 #
coedge $-1 $116 $71 $202 $203 reversed $45 $-1 #
coedge $-1 $71 $115 $198 $204 reversed $45 $-1 #
coedge $-1 $200 $205 $71 $118 forward $195 $-1 #
edge $-1 $206 12.8526993341844 $207 18.954068867913087 $117 $208 forward 7 unknown #
loop $-1 $-1 $124 $72 #
plane-surface $-1 17.589465722484725 -28.049569335325039 3.2784791319860744 0 -0.51503808176128008 0.85716729658548041 1 0 0 forward_v I I I I #
loop $-1 $-1 $209 $47 #
coedge $-1 $122 $122 $123 $210 reversed $73 $-1 #
coedge $-1 $123 $123 $122 $210 forward $75 $-1 #
coedge $-1 $124 $124 $76 $125 forward $119 $-1 #
edge $-1 $211 6.0992761272549024e-016 $211 6.2831853071796013 $124 $212 forward 7 unknown #
loop $-1 $-1 $131 $77 #
plane-surface $-1 17.589465722484725 -28.049569335325039 3.2784791319860744 0 -0.51503808176128008 0.85716729658548041 1 0 0 forward_v I I I I #
loop $-1 $-1 $213 $50 #
coedge $-1 $129 $129 $130 $214 reversed $78 $-1 #
coedge $-1 $130 $130 $129 $214 forward $80 $-1 #
coedge $-1 $131 $131 $81 $132 forward $126 $-1 #
edge $-1 $215 6.0992761272549024e-016 $215 6.2831853071796013 $131 $216 forward 7 unknown #
loop $-1 $-1 $138 $82 #
plane-surface $-1 17.589465722484725 -28.049569335325039 3.2784791319860744 0 -0.51503808176128008 0.85716729658548041 1 0 0 forward_v I I I I #
loop $-1 $-1 $217 $53 #
coedge $-1 $136 $136 $137 $218 reversed $83 $-1 #
coedge $-1 $137 $137 $136 $218 forward $85 $-1 #
coedge $-1 $138 $138 $86 $139 forward $133 $-1 #
edge $-1 $219 6.0992761272549024e-016 $219 6.2831853071796013 $138 $220 forward 7 unknown #
face $-1 $221 $222 $21 $-1 $223 reversed single #
loop $-1 $-1 $224 $87 #
plane-surface $-1 -52.185430463576161 0 0 1 0 0 0 0 -1 forward_v I I I I #
coedge $-1 $225 $151 $226 $227 forward $88 $-1 #
coedge $-1 $228 $90 $225 $229 forward $57 $-1 #
coedge $-1 $90 $228 $230 $231 forward $57 $-1 #
coedge $-1 $154 $153 $90 $147 reversed $155 $-1 #
edge $-1 $232 -28.049569335325053 $233 28.049569335325053 $146 $234 forward 7 unknown #
coedge $-1 $92 $91 $235 $236 forward $36 $-1 #
coedge $-1 $237 $238 $91 $150 reversed $222 $-1 #
edge $-1 $157 -52.185430463576161 $239 52.185430463576161 $149 $240 forward 7 unknown #
coedge $-1 $143 $241 $92 $152 reversed $88 $-1 #
edge $-1 $242 -52.185430463576161 $156 52.185430463576161 $151 $243 forward 7 unknown #
coedge $-1 $146 $93 $241 $244 forward $155 $-1 #
coedge $-1 $93 $146 $237 $245 reversed $155 $-1 #
loop $-1 $-1 $153 $221 #
vertex $-1 $94 $246 #
vertex $-1 $94 $247 #
straight-curve $-1 52.185430463576161 0 6.9445518733123111 0 1 0 I I #
face $-1 $248 $249 $22 $-1 $250 forward single #
loop $-1 $-1 $251 $95 #
plane-surface $-1 0 0 -6.9445518733123111 0 0 1 1 0 0 forward_v I I I I #
coedge $-1 $252 $253 $167 $254 forward $96 $-1 #
coedge $-1 $255 $98 $251 $256 reversed $61 $-1 #
coedge $-1 $98 $255 $257 $258 reversed $61 $-1 #
coedge $-1 $253 $252 $98 $166 reversed $96 $-1 #
edge $-1 $259 -6.9445518733123111 $260 6.9445518733123111 $165 $261 forward 7 unknown #
coedge $-1 $100 $99 $162 $254 reversed $39 $-1 #
coedge $-1 $262 $263 $99 $169 forward $160 $-1 #
edge $-1 $264 20.849048724006909 $175 27.840604067715137 $168 $265 forward 7 unknown #
coedge $-1 $266 $267 $100 $171 forward $249 $-1 #
edge $-1 $176 -27.840604067715137 $268 -20.849048724006909 $170 $269 forward 7 unknown #
coedge $-1 $270 $101 $267 $271 reversed $174 $-1 #
coedge $-1 $101 $270 $262 $272 reversed $174 $-1 #
loop $-1 $-1 $270 $248 #
vertex $-1 $272 $273 #
vertex $-1 $102 $274 #
straight-curve $-1 -52.185430463576161 -17.518019825810583 0 0 0 1 I I #
face $-1 $275 $276 $23 $-1 $277 forward single #
loop $-1 $-1 $187 $103 #
plane-surface $-1 0 0 -6.9445518733123111 0 0 1 1 0 0 forward_v I I I I #
coedge $-1 $278 $279 $280 $281 reversed $104 $-1 #
coedge $-1 $109 $106 $282 $283 reversed $65 $-1 #
coedge $-1 $106 $109 $284 $285 reversed $65 $-1 #
coedge $-1 $279 $278 $106 $185 reversed $104 $-1 #
edge $-1 $286 -6.9445518733123111 $287 6.9445518733123111 $184 $288 forward 7 unknown #
coedge $-1 $108 $107 $289 $290 reversed $42 $-1 #
coedge $-1 $282 $291 $107 $188 forward $179 $-1 #
edge $-1 $292 -27.840604067715137 $192 -20.849048724006909 $187 $293 forward 7 unknown #
coedge $-1 $294 $284 $108 $190 forward $276 $-1 #
edge $-1 $191 20.849048724006909 $295 27.840604067715137 $189 $296 forward 7 unknown #
vertex $-1 $190 $297 #
vertex $-1 $188 $298 #
straight-curve $-1 45.193875119867933 -17.518019825810583 0 0 0 -1 I I #
face $-1 $-1 $299 $24 $-1 $300 reversed single #
loop $-1 $-1 $117 $111 #
plane-surface $-1 0 0 6.9445518733123111 0 0 1 1 0 0 forward_v I I I I #
coedge $-1 $301 $302 $303 $304 reversed $112 $-1 #
coedge $-1 $305 $114 $116 $204 forward $69 $-1 #
coedge $-1 $114 $305 $301 $306 forward $69 $-1 #
coedge $-1 $303 $117 $114 $201 forward $195 $-1 #
edge $-1 $207 -21.352663510337042 $307 3.7631977878523166 $200 $308 forward 7 unknown #
coedge $-1 $309 $310 $115 $203 forward $299 $-1 #
edge $-1 $311 -43.092404785620118 $206 -39.426332044293872 $202 $312 forward 7 unknown #
edge $-1 $207 -7.1180615009852009 $311 1.6526814159067847e-014 $116 $313 forward 7 unknown #
coedge $-1 $117 $303 $309 $314 forward $195 $-1 #
vertex $-1 $118 $315 #
vertex $-1 $118 $316 #
straight-curve $-1 30.147396371579404 -40.902268669509454 6.9445518733123137 0 1 0 I I #
coedge $-1 $209 $209 $-1 $317 reversed $121 $-1 #
edge $-1 $318 0 $318 6.2831853071796004 $122 $319 forward 7 unknown #
vertex $-1 $125 $320 #
ellipse-curve $-1 10.054707333027928 -24.998884568460713 5.111515502649187 0 -0.51503808176128008 0.85716729658548041 1.5 0 0 1 I I #
coedge $-1 $213 $213 $-1 $321 reversed $128 $-1 #
edge $-1 $322 0 $322 6.2831853071796004 $129 $323 forward 7 unknown #
vertex $-1 $132 $324 #
ellipse-curve $-1 17.589465722484739 -24.998884568460713 5.111515502649187 0 -0.51503808176128008 0.85716729658548041 1.5 0 0 1 I I #
coedge $-1 $217 $217 $-1 $325 reversed $135 $-1 #
edge $-1 $326 0 $326 6.2831853071796004 $136 $327 forward 7 unknown #
vertex $-1 $139 $328 #
ellipse-curve $-1 25.124224111941551 -24.998884568460713 5.111515502649187 0 -0.51503808176128008 0.85716729658548041 1.5 0 0 1 I I #
face $-1 $-1 $155 $21 $-1 $329 reversed single #
loop $-1 $-1 $237 $140 #
plane-surface $-1 0 28.049569335325053 0 0 -1 0 0 0 -1 forward_v I I I I #
coedge $-1 $330 $235 $238 $331 forward $141 $-1 #
coedge $-1 $241 $143 $144 $229 reversed $88 $-1 #
coedge $-1 $235 $330 $143 $227 reversed $141 $-1 #
edge $-1 $242 -6.9445518733123111 $332 6.9445518733123111 $226 $333 forward 7 unknown #
coedge $-1 $145 $144 $330 $334 forward $57 $-1 #
edge $-1 $233 -52.185430463576161 $332 52.185430463576161 $225 $335 forward 7 unknown #
coedge $-1 $238 $237 $145 $231 reversed $222 $-1 #
edge $-1 $336 -52.185430463576161 $232 52.185430463576161 $230 $337 forward 7 unknown #
vertex $-1 $147 $338 #
vertex $-1 $244 $339 #
straight-curve $-1 52.185430463576161 0 -6.9445518733123111 0 -1 0 I I #
coedge $-1 $224 $226 $148 $236 reversed $141 $-1 #
edge $-1 $239 -28.049569335325053 $242 28.049569335325053 $235 $340 forward 7 unknown #
coedge $-1 $230 $149 $154 $245 forward $222 $-1 #
coedge $-1 $149 $230 $224 $331 reversed $222 $-1 #
vertex $-1 $150 $341 #
straight-curve $-1 0 28.049569335325053 6.9445518733123111 -1 0 0 I I #
coedge $-1 $151 $225 $153 $244 reversed $88 $-1 #
vertex $-1 $236 $342 #
straight-curve $-1 0 -28.049569335325053 6.9445518733123111 1 0 0 I I #
edge $-1 $156 -6.9445518733123111 $233 6.9445518733123111 $153 $343 forward 7 unknown #
edge $-1 $157 -6.9445518733123111 $232 6.9445518733123111 $154 $344 forward 7 unknown #
point $-1 52.185430463576161 -28.049569335325053 6.9445518733123111 #
point $-1 52.185430463576161 28.049569335325053 6.9445518733123111 #
face $-1 $-1 $174 $22 $-1 $345 reversed single #
loop $-1 $-1 $257 $159 #
plane-surface $-1 0 0 6.9445518733123111 0 0 1 1 0 0 forward_v I I I I #
coedge $-1 $263 $262 $163 $256 forward $160 $-1 #
coedge $-1 $165 $162 $263 $346 reversed $96 $-1 #
coedge $-1 $162 $165 $266 $347 reversed $96 $-1 #
edge $-1 $268 -6.9445518733123111 $264 6.9445518733123111 $162 $348 forward 7 unknown #
coedge $-1 $164 $163 $270 $349 reversed $61 $-1 #
edge $-1 $350 -27.840604067715137 $260 -20.849048724006909 $251 $351 forward 7 unknown #
coedge $-1 $267 $266 $164 $258 forward $249 $-1 #
edge $-1 $259 20.849048724006909 $352 27.840604067715137 $257 $353 forward 7 unknown #
vertex $-1 $258 $354 #
vertex $-1 $256 $355 #
straight-curve $-1 -45.193875119867933 -14.160465588700431 0 0 0 -1 I I #
coedge $-1 $251 $168 $173 $272 forward $160 $-1 #
coedge $-1 $168 $251 $252 $346 forward $160 $-1 #
vertex $-1 $169 $356 #
straight-curve $-1 -24.344826395861023 -17.518019825810583 -6.9445518733123111 -1 0 0 I I #
coedge $-1 $257 $170 $253 $347 forward $249 $-1 #
coedge $-1 $170 $257 $172 $271 forward $249 $-1 #
vertex $-1 $171 $357 #
straight-curve $-1 -24.344826395861023 -17.518019825810583 6.9445518733123111 1 0 0 I I #
coedge $-1 $173 $172 $255 $349 forward $174 $-1 #
edge $-1 $352 14.160465588700431 $176 17.518019825810583 $172 $358 forward 7 unknown #
edge $-1 $175 -17.518019825810583 $350 -14.160465588700431 $173 $359 forward 7 unknown #
point $-1 -52.185430463576161 -17.518019825810583 -6.9445518733123111 #
point $-1 -52.185430463576161 -17.518019825810583 6.9445518733123111 #
face $-1 $-1 $360 $23 $-1 $361 reversed single #
loop $-1 $-1 $189 $178 #
plane-surface $-1 0 0 6.9445518733123111 0 0 1 1 0 0 forward_v I I I I #
coedge $-1 $184 $181 $362 $363 reversed $104 $-1 #
coedge $-1 $181 $184 $364 $365 reversed $104 $-1 #
coedge $-1 $366 $367 $181 $281 forward $360 $-1 #
edge $-1 $368 -6.9445518733123111 $369 6.9445518733123111 $280 $370 forward 7 unknown #
coedge $-1 $362 $187 $182 $283 forward $179 $-1 #
edge $-1 $192 -9.5983984721828293 $287 -6.2408442350726778 $282 $371 forward 7 unknown #
coedge $-1 $189 $364 $183 $285 forward $276 $-1 #
edge $-1 $286 6.2408442350726778 $191 9.5983984721828293 $284 $372 forward 7 unknown #
vertex $-1 $285 $373 #
vertex $-1 $283 $374 #
straight-curve $-1 45.193875119867933 -14.160465588700431 0 0 0 -1 I I #
coedge $-1 $367 $366 $186 $290 forward $360 $-1 #
edge $-1 $295 -6.9445518733123111 $292 6.9445518733123111 $289 $375 forward 7 unknown #
coedge $-1 $187 $362 $367 $376 forward $179 $-1 #
vertex $-1 $290 $377 #
straight-curve $-1 24.344826395861023 -17.518019825810583 -6.9445518733123111 -1 0 0 I I #
coedge $-1 $364 $189 $366 $378 forward $276 $-1 #
vertex $-1 $378 $379 #
straight-curve $-1 24.344826395861023 -17.518019825810583 6.9445518733123111 1 0 0 I I #
point $-1 45.193875119867933 -17.518019825810583 6.9445518733123111 #
point $-1 45.193875119867933 -17.518019825810583 -6.9445518733123111 #
loop $-1 $-1 $202 $194 #
plane-surface $-1 0 -28.049569335325053 0 0 1 0 0 0 1 forward_v I I I I #
coedge $-1 $302 $197 $199 $306 reversed $112 $-1 #
coedge $-1 $197 $301 $380 $381 reversed $112 $-1 #
coedge $-1 $205 $200 $197 $304 forward $195 $-1 #
edge $-1 $307 -18.954068867913087 $382 -12.8526993341844 $303 $383 forward 7 unknown #
coedge $-1 $199 $198 $310 $384 reversed $69 $-1 #
edge $-1 $385 -1.6526814159067847e-014 $307 7.1180615009852009 $301 $386 forward 7 unknown #
vertex $-1 $201 $387 #
straight-curve $-1 8.7947328612423625 -21.948199801596367 6.9445518733123111 -1 0 0 I I #
coedge $-1 $380 $202 $205 $314 reversed $299 $-1 #
coedge $-1 $202 $380 $305 $384 forward $299 $-1 #
vertex $-1 $203 $388 #
straight-curve $-1 30.147396371579404 -28.049569335325053 46.370883917606186 0 0 1 I I #
straight-curve $-1 30.147396371579404 -28.049569335325039 3.2784791319860744 0 -0.85716729658548041 -0.51503808176128008 I I #
edge $-1 $382 5.0315350733900459 $206 30.147396371579404 $309 $389 forward 7 unknown #
point $-1 30.147396371579404 -28.049569335325053 6.9445518733123111 #
point $-1 30.147396371579404 -21.948199801596367 6.9445518733123111 #
edge $-1 $390 1 $390 0 $209 $-1 forward 7 unknown #
vertex $-1 $210 $391 #
ellipse-curve $-1 10.054707333027928 -24.1918102905239 3.7683183654646326 0 -0.51503808176128008 0.85716729658548041 1.5 0 0 1 I I #
point $-1 11.554707333027928 -24.998884568460713 5.1115155026491887 #
edge $-1 $392 1 $392 0 $213 $-1 forward 7 unknown #
vertex $-1 $214 $393 #
ellipse-curve $-1 17.589465722484739 -24.1918102905239 3.7683183654646326 0 -0.51503808176128008 0.85716729658548041 1.5 0 0 1 I I #
point $-1 19.089465722484739 -24.998884568460713 5.1115155026491887 #
edge $-1 $394 1 $394 0 $217 $-1 forward 7 unknown #
vertex $-1 $218 $395 #
ellipse-curve $-1 25.124224111941551 -24.1918102905239 3.7683183654646326 0 -0.51503808176128008 0.85716729658548041 1.5 0 0 1 I I #
point $-1 26.624224111941551 -24.998884568460713 5.1115155026491887 #
plane-surface $-1 52.185430463576161 0 0 -1 0 0 0 0 1 forward_v I I I I #
coedge $-1 $226 $224 $228 $334 reversed $141 $-1 #
edge $-1 $239 -6.9445518733123111 $336 6.9445518733123111 $238 $396 forward 7 unknown #
vertex $-1 $334 $397 #
straight-curve $-1 -52.185430463576161 -28.049569335325053 0 0 0 -1 I I #
edge $-1 $332 -28.049569335325053 $336 28.049569335325053 $330 $398 forward 7 unknown #
straight-curve $-1 0 -28.049569335325053 -6.9445518733123111 -1 0 0 I I #
vertex $-1 $231 $399 #
straight-curve $-1 0 28.049569335325053 -6.9445518733123111 1 0 0 I I #
point $-1 52.185430463576161 28.049569335325053 -6.9445518733123111 #
point $-1 52.185430463576161 -28.049569335325053 -6.9445518733123111 #
straight-curve $-1 -52.185430463576161 0 6.9445518733123111 0 -1 0 I I #
point $-1 -52.185430463576161 28.049569335325053 6.9445518733123111 #
point $-1 -52.185430463576161 -28.049569335325053 6.9445518733123111 #
straight-curve $-1 52.185430463576161 -28.049569335325053 0 0 0 -1 I I #
straight-curve $-1 52.185430463576161 28.049569335325053 0 0 0 -1 I I #
plane-surface $-1 -52.185430463576161 0 0 1 0 0 0 0 -1 forward_v I I I I #
edge $-1 $260 6.2408442350726778 $264 9.5983984721828293 $263 $400 forward 7 unknown #
edge $-1 $268 -9.5983984721828293 $259 -6.2408442350726778 $266 $401 forward 7 unknown #
straight-curve $-1 -45.193875119867933 -17.518019825810583 0 0 0 -1 I I #
edge $-1 $352 -6.9445518733123111 $350 6.9445518733123111 $270 $402 forward 7 unknown #
vertex $-1 $349 $403 #
straight-curve $-1 -24.344826395861023 -14.160465588700431 -6.9445518733123111 1 0 0 I I #
vertex $-1 $271 $404 #
straight-curve $-1 -24.344826395861023 -14.160465588700431 6.9445518733123111 -1 0 0 I I #
point $-1 -45.193875119867933 -14.160465588700431 6.9445518733123111 #
point $-1 -45.193875119867933 -14.160465588700431 -6.9445518733123111 #
point $-1 -45.193875119867933 -17.518019825810583 -6.9445518733123111 #
point $-1 -45.193875119867933 -17.518019825810583 6.9445518733123111 #
straight-curve $-1 -52.185430463576161 0 6.9445518733123111 0 -1 0 I I #
straight-curve $-1 -52.185430463576161 0 -6.9445518733123111 0 1 0 I I #
loop $-1 $-1 $289 $275 #
plane-surface $-1 52.185430463576161 0 0 -1 0 0 0 0 1 forward_v I I I I #
coedge $-1 $291 $282 $278 $363 forward $179 $-1 #
edge $-1 $287 20.849048724006909 $368 27.840604067715137 $362 $405 forward 7 unknown #
coedge $-1 $284 $294 $279 $365 forward $276 $-1 #
edge $-1 $369 -27.840604067715137 $286 -20.849048724006909 $364 $406 forward 7 unknown #
coedge $-1 $289 $280 $294 $378 reversed $360 $-1 #
coedge $-1 $280 $289 $291 $376 reversed $360 $-1 #
vertex $-1 $376 $407 #
vertex $-1 $281 $408 #
straight-curve $-1 52.185430463576161 -14.160465588700431 0 0 0 1 I I #
straight-curve $-1 45.193875119867933 -7.9196213536277531 -6.9445518733123111 0 1 0 I I #
straight-curve $-1 45.193875119867933 -7.9196213536277531 6.9445518733123111 0 -1 0 I I #
point $-1 45.193875119867933 -14.160465588700431 6.9445518733123111 #
point $-1 45.193875119867933 -14.160465588700431 -6.9445518733123111 #
straight-curve $-1 52.185430463576161 -17.518019825810583 0 0 0 -1 I I #
edge $-1 $368 14.160465588700431 $292 17.518019825810583 $367 $409 forward 7 unknown #
point $-1 52.185430463576161 -17.518019825810583 -6.9445518733123111 #
edge $-1 $295 -17.518019825810583 $369 -14.160465588700431 $366 $410 forward 7 unknown #
point $-1 52.185430463576161 -17.518019825810583 6.9445518733123111 #
coedge $-1 $310 $309 $302 $381 forward $299 $-1 #
edge $-1 $382 39.426332044293872 $385 43.092404785620118 $380 $411 forward 7 unknown #
vertex $-1 $314 $412 #
straight-curve $-1 5.0315350733900459 -40.902268669509454 6.9445518733123137 0 -1 0 I I #
edge $-1 $385 -3.7631977878523166 $311 21.352663510337042 $310 $413 forward 7 unknown #
vertex $-1 $384 $414 #
straight-curve $-1 5.0315350733900459 -28.049569335325039 3.2784791319860744 0 0.85716729658548041 0.51503808176128008 I I #
point $-1 5.0315350733900459 -21.948199801596367 6.9445518733123111 #
point $-1 30.147396371579404 -28.049569335325053 3.278479131986066 #
straight-curve $-1 0 -28.049569335325053 6.9445518733123111 1 0 0 I I #
vertex $-1 $317 $415 #
point $-1 11.554707333027928 -24.1918102905239 3.7683183654646326 #
vertex $-1 $321 $416 #
point $-1 19.089465722484739 -24.1918102905239 3.7683183654646326 #
vertex $-1 $325 $417 #
point $-1 26.624224111941551 -24.1918102905239 3.7683183654646326 #
straight-curve $-1 -52.185430463576161 28.049569335325053 0 0 0 -1 I I #
point $-1 -52.185430463576161 -28.049569335325053 -6.9445518733123111 #
straight-curve $-1 -52.185430463576161 0 -6.9445518733123111 0 1 0 I I #
point $-1 -52.185430463576161 28.049569335325053 -6.9445518733123111 #
straight-curve $-1 -45.193875119867933 -7.9196213536277531 -6.9445518733123111 0 -1 0 I I #
straight-curve $-1 -45.193875119867933 -7.9196213536277531 6.9445518733123111 0 1 0 I I #
straight-curve $-1 -52.185430463576161 -14.160465588700431 0 0 0 -1 I I #
point $-1 -52.185430463576161 -14.160465588700431 -6.9445518733123111 #
point $-1 -52.185430463576161 -14.160465588700431 6.9445518733123111 #
straight-curve $-1 24.344826395861023 -14.160465588700431 -6.9445518733123111 1 0 0 I I #
straight-curve $-1 24.344826395861023 -14.160465588700431 6.9445518733123111 -1 0 0 I I #
point $-1 52.185430463576161 -14.160465588700431 -6.9445518733123111 #
point $-1 52.185430463576161 -14.160465588700431 6.9445518733123111 #
straight-curve $-1 52.185430463576161 0 -6.9445518733123111 0 -1 0 I I #
straight-curve $-1 52.185430463576161 0 6.9445518733123111 0 1 0 I I #
straight-curve $-1 5.0315350733900459 -28.049569335325053 46.370883917606186 0 0 -1 I I #
point $-1 5.0315350733900459 -28.049569335325053 6.9445518733123111 #
straight-curve $-1 8.7947328612423625 -28.049569335325053 3.2784791319860669 1 0 0 I I #
point $-1 5.0315350733900459 -28.049569335325053 3.278479131986066 #
point $-1 10.054707333027928 -23.41925316788198 2.4825674205864123 #
point $-1 17.589465722484739 -23.41925316788198 2.4825674205864123 #
point $-1 25.124224111941551 -23.41925316788198 2.4825674205864123 #
End-of-ACIS-data 