500 0 11 0           
7 Unknown 11 ACIS 5.0 NT 24 Fri Mar 26 15:06:38 1999 
-1 9.9999999999999995e-007 1e-010 
body $-1 $11 $-1 $12 #
body $-1 $13 $-1 $14 #
body $-1 $15 $-1 $16 #
body $-1 $17 $-1 $18 #
body $-1 $19 $-1 $20 #
body $-1 $21 $-1 $22 #
body $-1 $23 $-1 $24 #
body $-1 $25 $-1 $26 #
body $-1 $27 $-1 $28 #
body $-1 $29 $-1 $30 #
body $-1 $31 $-1 $32 #
lump $-1 $-1 $33 $0 #
transform $-1 1 0 0 0 1 0 0 0 1 59.784539323099459 30.362269885239126 11.545390493975722 1 rotate no_reflect no_shear #
lump $-1 $-1 $34 $1 #
transform $-1 1 0 0 0 1 0 0 0 1 59.784539323099459 30.362269885239126 11.545390493975722 1 rotate no_reflect no_shear #
lump $-1 $-1 $35 $2 #
transform $-1 1 0 0 0 1 0 0 0 1 59.784539323099459 30.362269885239126 11.545390493975722 1 rotate no_reflect no_shear #
lump $-1 $-1 $36 $3 #
transform $-1 1 0 0 0 1 0 0 0 1 59.784539323099459 30.362269885239126 11.545390493975722 1 rotate no_reflect no_shear #
lump $-1 $-1 $37 $4 #
transform $-1 1 0 0 0 1 0 0 0 1 59.784539323099459 30.362269885239126 11.545390493975722 1 rotate no_reflect no_shear #
lump $-1 $-1 $38 $5 #
transform $-1 1 0 0 0 1 0 0 0 1 59.784539323099459 30.362269885239126 11.545390493975722 1 rotate no_reflect no_shear #
lump $-1 $-1 $39 $6 #
transform $-1 1 0 0 0 1 0 0 0 1 59.784539323099459 30.362269885239126 11.545390493975722 1 rotate no_reflect no_shear #
lump $-1 $-1 $40 $7 #
transform $-1 1 0 0 0 1 0 0 0 1 59.784539323099459 30.362269885239126 11.545390493975722 1 rotate no_reflect no_shear #
lump $-1 $-1 $41 $8 #
transform $-1 1 0 0 0 1 0 0 0 1 59.784539323099459 30.362269885239126 11.545390493975722 1 rotate no_reflect no_shear #
lump $-1 $-1 $42 $9 #
transform $-1 1 0 0 0 1 0 0 0 1 59.784539323099459 30.362269885239126 11.545390493975722 1 rotate no_reflect no_shear #
lump $-1 $-1 $43 $10 #
transform $-1 1 0 0 0 1 0 0 0 1 59.784539323099459 30.362269885239126 11.545390493975722 1 rotate no_reflect no_shear #
shell $-1 $-1 $-1 $44 $-1 $11 #
shell $-1 $-1 $-1 $45 $-1 $13 #
shell $-1 $-1 $-1 $46 $-1 $15 #
shell $-1 $-1 $-1 $47 $-1 $17 #
shell $-1 $-1 $-1 $48 $-1 $19 #
shell $-1 $-1 $-1 $49 $-1 $21 #
shell $-1 $-1 $-1 $50 $-1 $23 #
shell $-1 $-1 $-1 $51 $-1 $25 #
shell $-1 $-1 $-1 $52 $-1 $27 #
shell $-1 $-1 $-1 $53 $-1 $29 #
shell $-1 $-1 $-1 $54 $-1 $31 #
face $-1 $55 $56 $33 $-1 $57 forward single #
face $-1 $58 $59 $34 $-1 $60 forward single #
face $-1 $61 $62 $35 $-1 $63 reversed single #
face $-1 $64 $65 $36 $-1 $66 forward single #
face $-1 $67 $68 $37 $-1 $69 forward single #
face $-1 $70 $71 $38 $-1 $72 reversed single #
face $-1 $73 $74 $39 $-1 $75 forward single #
face $-1 $76 $77 $40 $-1 $78 forward single #
face $-1 $79 $80 $41 $-1 $81 reversed single #
face $-1 $82 $83 $42 $-1 $84 forward single #
face $-1 $85 $86 $43 $-1 $87 forward single #
face $-1 $88 $89 $33 $-1 $90 reversed single #
loop $-1 $-1 $91 $44 #
plane-surface $-1 0 0 11.545390493975722 0 0 1 1 0 0 forward_v I I I I #
face $-1 $92 $93 $34 $-1 $94 reversed single #
loop $-1 $-1 $95 $45 #
plane-surface $-1 0 -30.362269885239126 0 0 1 0 0 0 1 forward_v I I I I #
face $-1 $96 $97 $35 $-1 $98 reversed single #
loop $-1 $-1 $99 $46 #
plane-surface $-1 -123.14649834095945 -8.1326005321321393 109.88208608657492 0 1 0 -0.52991927123019833 0 0.84804809178421925 forward_v I I I I #
face $-1 $100 $101 $36 $-1 $102 forward single #
loop $-1 $103 $104 $47 #
cone-surface $-1 -57.068160583555567 -6.3734242145668212 9.5895497532300986 0.52991927123019833 0 -0.84804809178421925 0.42402404589210962 0 0.26495963561509916 1 I I 0 1 0.5 forward I I I I #
face $-1 $105 $106 $37 $-1 $107 forward single #
loop $-1 $108 $109 $48 #
cone-surface $-1 -57.068160583555567 -3.7346597382188449 9.5895497532300986 0.52991927123019833 0 -0.84804809178421925 0.42402404589210962 0 0.26495963561509916 1 I I 0 1 0.5 forward I I I I #
face $-1 $110 $111 $38 $-1 $112 reversed single #
loop $-1 $-1 $113 $49 #
plane-surface $-1 -123.14649834095945 16.348021023794011 109.88208608657492 0 1 0 -0.52991927123019833 0 0.84804809178421925 forward_v I I I I #
face $-1 $114 $115 $39 $-1 $116 forward single #
loop $-1 $117 $118 $50 #
cone-surface $-1 -57.068160583555567 18.107197341359328 9.5895497532300986 0.52991927123019833 0 -0.84804809178421925 0.42402404589210962 0 0.26495963561509916 1 I I 0 1 0.5 forward I I I I #
face $-1 $119 $120 $40 $-1 $121 forward single #
loop $-1 $122 $123 $51 #
cone-surface $-1 -57.068160583555567 20.7459618177073 9.5895497532300986 0.52991927123019833 0 -0.84804809178421925 0.42402404589210962 0 0.26495963561509916 1 I I 0 1 0.5 forward I I I I #
face $-1 $124 $125 $41 $-1 $126 reversed single #
loop $-1 $-1 $127 $52 #
plane-surface $-1 92.049620179773854 3.8531452256619225 168.4291530941814 0 -1 0 -0.82903758062907751 0 -0.55919289150049634 forward_v I I I I #
face $-1 $128 $129 $42 $-1 $130 forward single #
loop $-1 $131 $132 $53 #
cone-surface $-1 55.265294152146957 -5.3175037003539813 6.0156502245861443 -0.82903758062907751 0 -0.55919289150049634 0.55919289150049634 0 -0.82903758062907751 1 I I 0 1 1 forward I I I I #
face $-1 $133 $134 $43 $-1 $135 forward single #
loop $-1 $136 $137 $54 #
cone-surface $-1 55.265294152146957 0.18488565525555956 6.0156502245861443 -0.82903758062907751 0 -0.55919289150049634 0.55919289150049634 0 -0.82903758062907751 1 I I 0 1 1 forward I I I I #
face $-1 $138 $139 $33 $-1 $140 reversed single #
loop $-1 $-1 $141 $55 #
plane-surface $-1 0 0 -11.545390493975722 0 0 1 1 0 0 forward_v I I I I #
coedge $-1 $142 $143 $144 $145 forward $56 $-1 #
face $-1 $146 $147 $34 $-1 $148 reversed single #
loop $-1 $-1 $149 $58 #
plane-surface $-1 0 0 -11.545390493975722 0 0 1 1 0 0 forward_v I I I I #
coedge $-1 $150 $151 $152 $153 forward $59 $-1 #
face $-1 $154 $155 $35 $-1 $156 reversed single #
loop $-1 $-1 $157 $61 #
plane-surface $-1 -59.784539323099459 -5.0540419763928348 8.481757104268695 -0.52991927123019833 0 0.84804809178421925 0.84804809178421925 0 0.52991927123019833 forward_v I I I I #
coedge $-1 $158 $159 $160 $161 reversed $62 $-1 #
face $-1 $-1 $162 $36 $-1 $163 forward single #
loop $-1 $164 $165 $64 #
cone-surface $-1 -56.670721130132918 -6.3734242145668212 8.9535136843919343 0.52991927123019833 0 -0.84804809178421925 0.21201202294605481 0 0.13247981780754958 1 I I -0.70710678118654746 0.70710678118654746 0.25 forward I I I I #
loop $-1 $-1 $166 $47 #
coedge $-1 $104 $104 $167 $168 reversed $65 $-1 #
face $-1 $-1 $169 $37 $-1 $170 forward single #
loop $-1 $171 $172 $67 #
cone-surface $-1 -56.670721130132918 -3.7346597382188449 8.9535136843919343 0.52991927123019833 0 -0.84804809178421925 0.21201202294605481 0 0.13247981780754958 1 I I -0.70710678118654746 0.70710678118654746 0.25 forward I I I I #
loop $-1 $-1 $173 $48 #
coedge $-1 $109 $109 $174 $175 reversed $68 $-1 #
face $-1 $176 $177 $38 $-1 $178 reversed single #
loop $-1 $-1 $179 $70 #
plane-surface $-1 -59.784539323099459 19.426579579533314 8.481757104268695 -0.52991927123019833 0 0.84804809178421925 0.84804809178421925 0 0.52991927123019833 forward_v I I I I #
coedge $-1 $180 $181 $182 $183 reversed $71 $-1 #
face $-1 $-1 $184 $39 $-1 $185 forward single #
loop $-1 $186 $187 $73 #
cone-surface $-1 -56.670721130132918 18.107197341359328 8.9535136843919343 0.52991927123019833 0 -0.84804809178421925 0.21201202294605481 0 0.13247981780754958 1 I I -0.70710678118654746 0.70710678118654746 0.25 forward I I I I #
loop $-1 $-1 $188 $50 #
coedge $-1 $118 $118 $189 $190 reversed $74 $-1 #
face $-1 $-1 $191 $40 $-1 $192 forward single #
loop $-1 $193 $194 $76 #
cone-surface $-1 -56.670721130132918 20.7459618177073 8.9535136843919343 0.52991927123019833 0 -0.84804809178421925 0.21201202294605481 0 0.13247981780754958 1 I I -0.70710678118654746 0.70710678118654746 0.25 forward I I I I #
loop $-1 $-1 $195 $51 #
coedge $-1 $123 $123 $196 $197 reversed $77 $-1 #
face $-1 $198 $199 $41 $-1 $200 reversed single #
loop $-1 $-1 $201 $79 #
plane-surface $-1 -7.0776394991187885 -2.5663090225492091 101.56697427196318 0.82903758062907751 0 0.55919289150049634 0.55919289150049634 0 -0.82903758062907751 forward_v I I I I #
coedge $-1 $202 $203 $204 $205 reversed $80 $-1 #
face $-1 $-1 $206 $42 $-1 $207 forward single #
loop $-1 $208 $209 $82 #
cone-surface $-1 53.402458068618493 -5.3175037003539813 4.7591514598988969 -0.82903758062907751 0 -0.55919289150049634 0.27959644575024817 0 -0.41451879031453875 1 I I -0.70710678118654746 0.70710678118654746 0.5 forward I I I I #
loop $-1 $-1 $210 $53 #
coedge $-1 $132 $132 $211 $212 reversed $83 $-1 #
face $-1 $-1 $213 $43 $-1 $214 forward single #
loop $-1 $215 $216 $85 #
cone-surface $-1 53.402458068618493 0.18488565525555956 4.7591514598988969 -0.82903758062907751 0 -0.55919289150049634 0.27959644575024817 0 -0.41451879031453875 1 I I -0.70710678118654746 0.70710678118654746 0.5 forward I I I I #
loop $-1 $-1 $217 $54 #
coedge $-1 $137 $137 $218 $219 reversed $86 $-1 #
face $-1 $220 $221 $33 $-1 $222 reversed single #
loop $-1 $-1 $223 $88 #
plane-surface $-1 0 -30.362269885239126 0 0 1 0 0 0 1 forward_v I I I I #
coedge $-1 $224 $225 $226 $227 forward $89 $-1 #
coedge $-1 $228 $91 $229 $230 forward $56 $-1 #
coedge $-1 $91 $228 $231 $232 forward $56 $-1 #
coedge $-1 $233 $234 $91 $145 reversed $235 $-1 #
edge $-1 $236 -30.362269885239126 $237 30.362269885239126 $144 $238 forward 7 unknown #
face $-1 $239 $240 $34 $-1 $241 reversed single #
loop $-1 $-1 $242 $92 #
plane-surface $-1 -55.36485665180296 -42.125566543865084 0 0 1 0 0 0 1 forward_v I I I I #
coedge $-1 $243 $244 $151 $245 forward $93 $-1 #
coedge $-1 $246 $95 $247 $248 reversed $59 $-1 #
coedge $-1 $95 $246 $149 $245 reversed $59 $-1 #
coedge $-1 $249 $250 $95 $153 reversed $240 $-1 #
edge $-1 $251 -11.545390493975722 $252 11.545390493975722 $152 $253 forward 7 unknown #
face $-1 $254 $255 $35 $-1 $256 reversed single #
loop $-1 $-1 $257 $96 #
plane-surface $-1 -123.14649834095945 -1.9754834206535303 109.88208608657492 0 -1 0 0.52991927123019833 0 -0.84804809178421925 forward_v I I I I #
coedge $-1 $258 $259 $260 $261 reversed $97 $-1 #
coedge $-1 $159 $99 $262 $263 reversed $62 $-1 #
coedge $-1 $99 $158 $258 $264 reversed $62 $-1 #
coedge $-1 $260 $265 $99 $161 forward $266 $-1 #
edge $-1 $267 1.7887098473802681 $268 6.6915480552378526 $160 $269 forward 7 unknown #
loop $-1 $-1 $167 $100 #
plane-surface $-1 -59.784539323099459 -5.0540419763928348 8.481757104268695 -0.52991927123019833 0 0.84804809178421925 0.84804809178421925 0 0.52991927123019833 forward_v I I I I #
loop $-1 $-1 $270 $64 #
coedge $-1 $165 $165 $166 $271 reversed $101 $-1 #
coedge $-1 $166 $166 $165 $271 forward $103 $-1 #
coedge $-1 $167 $167 $104 $168 forward $162 $-1 #
edge $-1 $272 0 $272 6.2831853071796004 $167 $273 forward 7 unknown #
loop $-1 $-1 $174 $105 #
plane-surface $-1 -59.784539323099459 -5.0540419763928348 8.481757104268695 -0.52991927123019833 0 0.84804809178421925 0.84804809178421925 0 0.52991927123019833 forward_v I I I I #
loop $-1 $-1 $274 $67 #
coedge $-1 $172 $172 $173 $275 reversed $106 $-1 #
coedge $-1 $173 $173 $172 $275 forward $108 $-1 #
coedge $-1 $174 $174 $109 $175 forward $169 $-1 #
edge $-1 $276 0 $276 6.2831853071796004 $174 $277 forward 7 unknown #
face $-1 $278 $279 $38 $-1 $280 forward single #
loop $-1 $-1 $281 $110 #
plane-surface $-1 -123.14649834095945 22.505138135272617 109.88208608657492 0 -1 0 0.52991927123019833 0 -0.84804809178421925 forward_v I I I I #
coedge $-1 $282 $283 $284 $285 reversed $111 $-1 #
coedge $-1 $181 $113 $286 $287 reversed $71 $-1 #
coedge $-1 $113 $180 $282 $288 reversed $71 $-1 #
coedge $-1 $284 $289 $113 $183 forward $279 $-1 #
edge $-1 $290 1.7887098473802681 $291 6.6915480552378526 $182 $292 forward 7 unknown #
loop $-1 $-1 $189 $114 #
plane-surface $-1 -59.784539323099459 19.426579579533314 8.481757104268695 -0.52991927123019833 0 0.84804809178421925 0.84804809178421925 0 0.52991927123019833 forward_v I I I I #
loop $-1 $-1 $293 $73 #
coedge $-1 $187 $187 $188 $294 reversed $115 $-1 #
coedge $-1 $188 $188 $187 $294 forward $117 $-1 #
coedge $-1 $189 $189 $118 $190 forward $184 $-1 #
edge $-1 $295 0 $295 6.2831853071796004 $189 $296 forward 7 unknown #
loop $-1 $-1 $196 $119 #
plane-surface $-1 -59.784539323099459 19.426579579533314 8.481757104268695 -0.52991927123019833 0 0.84804809178421925 0.84804809178421925 0 0.52991927123019833 forward_v I I I I #
loop $-1 $-1 $297 $76 #
coedge $-1 $194 $194 $195 $298 reversed $120 $-1 #
coedge $-1 $195 $195 $194 $298 forward $122 $-1 #
coedge $-1 $196 $196 $123 $197 forward $191 $-1 #
edge $-1 $299 0 $299 6.2831853071796004 $196 $300 forward 7 unknown #
face $-1 $301 $302 $41 $-1 $303 forward single #
loop $-1 $-1 $304 $124 #
plane-surface $-1 92.049620179773854 -8.9857632707603408 168.4291530941814 0 1 0 0.82903758062907751 0 0.55919289150049634 forward_v I I I I #
coedge $-1 $305 $306 $307 $308 reversed $125 $-1 #
coedge $-1 $203 $127 $309 $310 reversed $80 $-1 #
coedge $-1 $127 $202 $305 $311 reversed $80 $-1 #
coedge $-1 $307 $312 $127 $205 forward $302 $-1 #
edge $-1 $313 -13.759729233212532 $314 -7.6178734777353512 $204 $315 forward 7 unknown #
loop $-1 $-1 $211 $128 #
plane-surface $-1 -7.0776394991187885 -2.5663090225492091 101.56697427196318 0.82903758062907751 0 0.55919289150049634 0.55919289150049634 0 -0.82903758062907751 forward_v I I I I #
loop $-1 $-1 $316 $82 #
coedge $-1 $209 $209 $210 $317 reversed $129 $-1 #
coedge $-1 $210 $210 $209 $317 forward $131 $-1 #
coedge $-1 $211 $211 $132 $212 forward $206 $-1 #
edge $-1 $318 0 $318 6.2831853071796004 $211 $319 forward 7 unknown #
loop $-1 $-1 $218 $133 #
plane-surface $-1 -7.0776394991187885 -2.5663090225492091 101.56697427196318 0.82903758062907751 0 0.55919289150049634 0.55919289150049634 0 -0.82903758062907751 forward_v I I I I #
loop $-1 $-1 $320 $85 #
coedge $-1 $216 $216 $217 $321 reversed $134 $-1 #
coedge $-1 $217 $217 $216 $321 forward $136 $-1 #
coedge $-1 $218 $218 $137 $219 forward $213 $-1 #
edge $-1 $322 0 $322 6.2831853071796004 $218 $323 forward 7 unknown #
face $-1 $324 $325 $33 $-1 $326 reversed single #
loop $-1 $-1 $327 $138 #
plane-surface $-1 -59.784539323099459 0 0 1 0 0 0 0 -1 forward_v I I I I #
coedge $-1 $328 $231 $329 $330 forward $139 $-1 #
coedge $-1 $331 $141 $328 $332 forward $89 $-1 #
coedge $-1 $141 $331 $333 $334 forward $89 $-1 #
coedge $-1 $234 $233 $141 $227 reversed $235 $-1 #
edge $-1 $335 -30.362269885239126 $336 30.362269885239126 $226 $337 forward 7 unknown #
coedge $-1 $143 $142 $338 $339 forward $56 $-1 #
coedge $-1 $340 $341 $142 $230 reversed $325 $-1 #
edge $-1 $237 -59.784539323099459 $342 59.784539323099459 $229 $343 forward 7 unknown #
coedge $-1 $223 $344 $143 $232 reversed $139 $-1 #
edge $-1 $345 -59.784539323099459 $236 59.784539323099459 $231 $346 forward 7 unknown #
coedge $-1 $226 $144 $344 $347 forward $235 $-1 #
coedge $-1 $144 $226 $340 $348 reversed $235 $-1 #
loop $-1 $-1 $233 $324 #
vertex $-1 $145 $349 #
vertex $-1 $145 $350 #
straight-curve $-1 59.784539323099459 0 11.545390493975722 0 1 0 I I #
face $-1 $351 $352 $34 $-1 $353 reversed single #
loop $-1 $-1 $152 $146 #
plane-surface $-1 -58.546595312640086 -36.243918214552103 0 1 0 0 0 0 -1 forward_v I I I I #
coedge $-1 $354 $355 $356 $357 forward $147 $-1 #
coedge $-1 $358 $149 $359 $360 forward $93 $-1 #
coedge $-1 $149 $358 $249 $361 forward $93 $-1 #
edge $-1 $251 -58.546595312640086 $362 -52.183117990965833 $149 $363 forward 7 unknown #
coedge $-1 $151 $150 $364 $365 forward $59 $-1 #
coedge $-1 $366 $367 $150 $248 forward $368 $-1 #
edge $-1 $369 52.183117990965833 $252 58.546595312640086 $247 $370 forward 7 unknown #
coedge $-1 $356 $152 $244 $361 reversed $240 $-1 #
coedge $-1 $152 $356 $366 $371 reversed $240 $-1 #
vertex $-1 $245 $372 #
vertex $-1 $371 $373 #
straight-curve $-1 -58.546595312640086 -30.362269885239126 0 0 0 1 I I #
face $-1 $-1 $266 $35 $-1 $374 forward single #
loop $-1 $-1 $375 $154 #
plane-surface $-1 -59.784539323099459 0 0 1 0 0 0 0 -1 forward_v I I I I #
coedge $-1 $376 $377 $378 $379 reversed $155 $-1 #
coedge $-1 $380 $157 $159 $264 forward $97 $-1 #
coedge $-1 $157 $380 $376 $381 forward $97 $-1 #
coedge $-1 $378 $160 $157 $261 forward $266 $-1 #
edge $-1 $268 -5.6055795439357219 $382 0.55153756754288707 $260 $383 forward 7 unknown #
coedge $-1 $384 $385 $158 $263 forward $255 $-1 #
edge $-1 $386 -46.459285939018763 $267 -43.395652549311734 $262 $387 forward 7 unknown #
edge $-1 $268 -5.7813209596904356 $386 0 $159 $388 forward 7 unknown #
coedge $-1 $160 $378 $384 $389 forward $266 $-1 #
loop $-1 $-1 $378 $254 #
vertex $-1 $263 $390 #
vertex $-1 $161 $391 #
straight-curve $-1 -61.573249170479727 -8.1326005321321393 11.545390493975724 1 0 0 I I #
coedge $-1 $270 $270 $-1 $392 reversed $164 $-1 #
edge $-1 $393 0 $393 6.2831853071796004 $165 $394 forward 7 unknown #
vertex $-1 $168 $395 #
ellipse-curve $-1 -57.333120219170667 -6.3734242145668212 10.013573799122208 -0.52991927123019833 0 0.84804809178421925 0.42402404589210962 0 0.26495963561509916 1 I I #
coedge $-1 $274 $274 $-1 $396 reversed $171 $-1 #
edge $-1 $397 0 $397 6.2831853071796004 $172 $398 forward 7 unknown #
vertex $-1 $175 $399 #
ellipse-curve $-1 -57.333120219170667 -3.7346597382188449 10.013573799122208 -0.52991927123019833 0 0.84804809178421925 0.42402404589210962 0 0.26495963561509916 1 I I #
face $-1 $-1 $400 $38 $-1 $401 reversed single #
loop $-1 $-1 $182 $176 #
plane-surface $-1 0 0 11.545390493975722 0 0 1 1 0 0 forward_v I I I I #
coedge $-1 $402 $403 $404 $405 reversed $177 $-1 #
coedge $-1 $406 $179 $181 $288 forward $111 $-1 #
coedge $-1 $179 $406 $402 $407 forward $111 $-1 #
coedge $-1 $404 $182 $179 $285 forward $279 $-1 #
edge $-1 $291 6.6347312340273543 $408 12.79184834550596 $284 $409 forward 7 unknown #
coedge $-1 $410 $411 $180 $287 forward $400 $-1 #
edge $-1 $412 -46.459285939018763 $290 -43.395652549311734 $286 $413 forward 7 unknown #
edge $-1 $291 -5.7813209596904356 $412 0 $181 $414 forward 7 unknown #
coedge $-1 $182 $404 $410 $415 forward $279 $-1 #
vertex $-1 $183 $416 #
vertex $-1 $183 $417 #
straight-curve $-1 -61.573249170479727 16.348021023794011 11.545390493975724 1 0 0 I I #
coedge $-1 $293 $293 $-1 $418 reversed $186 $-1 #
edge $-1 $419 0 $419 6.2831853071796004 $187 $420 forward 7 unknown #
vertex $-1 $190 $421 #
ellipse-curve $-1 -57.333120219170667 18.107197341359328 10.013573799122208 -0.52991927123019833 0 0.84804809178421925 0.42402404589210962 0 0.26495963561509916 1 I I #
coedge $-1 $297 $297 $-1 $422 reversed $193 $-1 #
edge $-1 $423 0 $423 6.2831853071796004 $194 $424 forward 7 unknown #
vertex $-1 $197 $425 #
ellipse-curve $-1 -57.333120219170667 20.7459618177073 10.013573799122208 -0.52991927123019833 0 0.84804809178421925 0.42402404589210962 0 0.26495963561509916 1 I I #
face $-1 $-1 $426 $41 $-1 $427 reversed single #
loop $-1 $-1 $204 $198 #
plane-surface $-1 0 0 11.545390493975722 0 0 1 1 0 0 forward_v I I I I #
coedge $-1 $428 $429 $430 $431 reversed $199 $-1 #
coedge $-1 $432 $201 $203 $311 forward $125 $-1 #
coedge $-1 $201 $432 $428 $433 forward $125 $-1 #
coedge $-1 $430 $204 $201 $308 forward $302 $-1 #
edge $-1 $314 -5.1362997369365271 $434 7.7026087594857362 $307 $435 forward 7 unknown #
coedge $-1 $436 $437 $202 $310 forward $426 $-1 #
edge $-1 $438 -81.774861954020224 $313 -72.669186053114984 $309 $439 forward 7 unknown #
edge $-1 $314 108.58564904823575 $438 119.56907864619899 $203 $440 forward 7 unknown #
coedge $-1 $204 $430 $436 $441 forward $302 $-1 #
vertex $-1 $205 $442 #
vertex $-1 $205 $443 #
straight-curve $-1 46.024810089886927 3.8531452256619225 11.545390493975717 -1 0 0 I I #
coedge $-1 $316 $316 $-1 $444 reversed $208 $-1 #
edge $-1 $445 0 $445 6.2831853071796004 $209 $446 forward 7 unknown #
vertex $-1 $212 $447 #
ellipse-curve $-1 56.713611445360854 -5.3175037003539813 6.9925525435231277 0.82903758062907751 0 0.55919289150049634 0.55919289150049634 0 -0.82903758062907751 1 I I #
coedge $-1 $320 $320 $-1 $448 reversed $215 $-1 #
edge $-1 $449 0 $449 6.2831853071796004 $216 $450 forward 7 unknown #
vertex $-1 $219 $451 #
ellipse-curve $-1 56.713611445360854 0.18488565525555956 6.9925525435231277 0.82903758062907751 0 0.55919289150049634 0.55919289150049634 0 -0.82903758062907751 1 I I #
face $-1 $-1 $235 $33 $-1 $452 reversed single #
loop $-1 $-1 $340 $220 #
plane-surface $-1 0 30.362269885239126 0 0 -1 0 0 0 -1 forward_v I I I I #
coedge $-1 $453 $338 $341 $454 forward $221 $-1 #
coedge $-1 $344 $223 $224 $332 reversed $139 $-1 #
coedge $-1 $338 $453 $223 $330 reversed $221 $-1 #
edge $-1 $345 -11.545390493975722 $455 11.545390493975722 $329 $456 forward 7 unknown #
coedge $-1 $225 $224 $453 $457 forward $89 $-1 #
edge $-1 $336 -59.784539323099459 $455 59.784539323099459 $328 $458 forward 7 unknown #
coedge $-1 $341 $340 $225 $334 reversed $325 $-1 #
edge $-1 $459 -59.784539323099459 $335 59.784539323099459 $333 $460 forward 7 unknown #
vertex $-1 $227 $461 #
vertex $-1 $347 $462 #
straight-curve $-1 59.784539323099459 0 -11.545390493975722 0 -1 0 I I #
coedge $-1 $327 $329 $228 $339 reversed $221 $-1 #
edge $-1 $342 -30.362269885239126 $345 30.362269885239126 $338 $463 forward 7 unknown #
coedge $-1 $333 $229 $234 $348 forward $325 $-1 #
coedge $-1 $229 $333 $327 $454 reversed $325 $-1 #
vertex $-1 $230 $464 #
straight-curve $-1 0 30.362269885239126 11.545390493975722 -1 0 0 I I #
coedge $-1 $231 $328 $233 $347 reversed $139 $-1 #
vertex $-1 $339 $465 #
straight-curve $-1 0 -30.362269885239126 11.545390493975722 1 0 0 I I #
edge $-1 $236 -11.545390493975722 $336 11.545390493975722 $233 $466 forward 7 unknown #
edge $-1 $237 -11.545390493975722 $335 11.545390493975722 $234 $467 forward 7 unknown #
point $-1 59.784539323099459 -30.362269885239126 11.545390493975722 #
point $-1 59.784539323099459 30.362269885239126 11.545390493975722 #
face $-1 $-1 $368 $34 $-1 $468 forward single #
loop $-1 $-1 $469 $239 #
plane-surface $-1 -52.183117990965833 -36.243918214552103 0 -1 0 0 0 0 1 forward_v I I I I #
coedge $-1 $470 $242 $358 $471 reversed $147 $-1 #
coedge $-1 $242 $470 $472 $473 reversed $147 $-1 #
coedge $-1 $250 $249 $242 $357 reversed $240 $-1 #
edge $-1 $474 -11.545390493975722 $475 11.545390493975722 $356 $476 forward 7 unknown #
coedge $-1 $244 $243 $354 $471 forward $93 $-1 #
coedge $-1 $364 $469 $243 $360 reversed $352 $-1 #
edge $-1 $362 -5.8816483293129806 $477 5.8816483293129806 $359 $478 forward 7 unknown #
edge $-1 $475 -5.8816483293129806 $251 5.8816483293129806 $249 $479 forward 7 unknown #
vertex $-1 $360 $480 #
straight-curve $-1 0 -30.362269885239126 -11.545390493975722 1 0 0 I I #
coedge $-1 $481 $359 $246 $365 reversed $352 $-1 #
edge $-1 $369 -11.545390493975722 $362 11.545390493975722 $364 $482 forward 7 unknown #
coedge $-1 $472 $247 $250 $371 forward $368 $-1 #
coedge $-1 $247 $472 $481 $483 forward $368 $-1 #
loop $-1 $-1 $247 $351 #
vertex $-1 $248 $484 #
straight-curve $-1 0 -30.362269885239126 11.545390493975722 -1 0 0 I I #
edge $-1 $252 -5.8816483293129806 $474 5.8816483293129806 $250 $485 forward 7 unknown #
point $-1 -58.546595312640086 -30.362269885239122 -11.545390493975722 #
point $-1 -58.546595312640086 -30.362269885239122 11.545390493975722 #
plane-surface $-1 0 0 11.545390493975722 0 0 1 1 0 0 forward_v I I I I #
coedge $-1 $385 $384 $377 $486 forward $255 $-1 #
coedge $-1 $377 $257 $259 $381 reversed $155 $-1 #
coedge $-1 $257 $376 $375 $486 reversed $155 $-1 #
coedge $-1 $265 $260 $257 $379 forward $266 $-1 #
edge $-1 $382 -6.6915480552378526 $487 -1.7887098473802681 $378 $488 forward 7 unknown #
coedge $-1 $259 $258 $385 $489 reversed $97 $-1 #
edge $-1 $490 0 $382 5.7813209596904356 $376 $491 forward 7 unknown #
vertex $-1 $261 $492 #
straight-curve $-1 -54.881701115241881 -2.5270209881964174 11.54539049397572 0 1 0 I I #
coedge $-1 $375 $262 $265 $389 reversed $255 $-1 #
coedge $-1 $262 $375 $380 $489 forward $255 $-1 #
vertex $-1 $263 $493 #
straight-curve $-1 -59.784539323099459 -8.1326005321321393 54.941043043287458 0 0 1 I I #
straight-curve $-1 -59.784539323099459 -8.1326005321321393 8.481757104268695 -0.84804809178421925 0 -0.52991927123019833 I I #
edge $-1 $487 1.9754834206535303 $267 8.1326005321321393 $384 $494 forward 7 unknown #
point $-1 -59.784539323099459 -8.1326005321321393 11.545390493975722 #
point $-1 -54.881701115241874 -8.1326005321321393 11.545390493975722 #
edge $-1 $495 1 $495 0 $270 $-1 forward 7 unknown #
vertex $-1 $271 $496 #
ellipse-curve $-1 -56.803200947940468 -6.3734242145668212 9.1655257073379897 -0.52991927123019833 0 0.84804809178421925 0.42402404589210962 0 0.26495963561509916 1 I I #
point $-1 -56.909096173278556 -6.3734242145668212 10.278533434737307 #
edge $-1 $497 1 $497 0 $274 $-1 forward 7 unknown #
vertex $-1 $275 $498 #
ellipse-curve $-1 -56.803200947940468 -3.7346597382188449 9.1655257073379897 -0.52991927123019833 0 0.84804809178421925 0.42402404589210962 0 0.26495963561509916 1 I I #
point $-1 -56.909096173278556 -3.7346597382188449 10.278533434737307 #
loop $-1 $-1 $286 $278 #
plane-surface $-1 -59.784539323099459 0 0 1 0 0 0 0 -1 forward_v I I I I #
coedge $-1 $403 $281 $283 $407 reversed $177 $-1 #
coedge $-1 $281 $402 $499 $500 reversed $177 $-1 #
coedge $-1 $289 $284 $281 $405 forward $279 $-1 #
edge $-1 $408 -6.6915480552378526 $501 -1.7887098473802681 $404 $502 forward 7 unknown #
coedge $-1 $283 $282 $411 $503 reversed $111 $-1 #
edge $-1 $504 0 $408 5.7813209596904356 $402 $505 forward 7 unknown #
vertex $-1 $285 $506 #
straight-curve $-1 -54.881701115241881 9.713289789766657 11.54539049397572 0 1 0 I I #
coedge $-1 $499 $286 $289 $415 reversed $400 $-1 #
coedge $-1 $286 $499 $406 $503 forward $400 $-1 #
vertex $-1 $287 $507 #
straight-curve $-1 -59.784539323099459 16.348021023794011 54.941043043287458 0 0 1 I I #
straight-curve $-1 -59.784539323099459 16.348021023794011 8.481757104268695 -0.84804809178421925 0 -0.52991927123019833 I I #
edge $-1 $501 -22.505138135272617 $290 -16.348021023794011 $410 $508 forward 7 unknown #
point $-1 -59.784539323099459 16.348021023794011 11.545390493975722 #
point $-1 -54.881701115241874 16.348021023794011 11.545390493975722 #
edge $-1 $509 1 $509 0 $293 $-1 forward 7 unknown #
vertex $-1 $294 $510 #
ellipse-curve $-1 -56.803200947940468 18.107197341359328 9.1655257073379897 -0.52991927123019833 0 0.84804809178421925 0.42402404589210962 0 0.26495963561509916 1 I I #
point $-1 -56.909096173278556 18.107197341359328 10.278533434737307 #
edge $-1 $511 1 $511 0 $297 $-1 forward 7 unknown #
vertex $-1 $298 $512 #
ellipse-curve $-1 -56.803200947940468 20.7459618177073 9.1655257073379897 -0.52991927123019833 0 0.84804809178421925 0.42402404589210962 0 0.26495963561509916 1 I I #
point $-1 -56.909096173278556 20.7459618177073 10.278533434737307 #
loop $-1 $-1 $309 $301 #
plane-surface $-1 59.784539323099459 0 0 -1 0 0 0 0 1 forward_v I I I I #
coedge $-1 $429 $304 $306 $433 reversed $199 $-1 #
coedge $-1 $304 $428 $513 $514 reversed $199 $-1 #
coedge $-1 $312 $307 $304 $431 forward $302 $-1 #
edge $-1 $434 7.6178734777353512 $515 13.759729233212532 $430 $516 forward 7 unknown #
coedge $-1 $306 $305 $437 $517 reversed $125 $-1 #
edge $-1 $518 -119.56907864619899 $434 -108.58564904823575 $428 $519 forward 7 unknown #
vertex $-1 $308 $520 #
straight-curve $-1 53.642683567622271 -1.2831545112746046 11.545390493975731 0 -1 0 I I #
coedge $-1 $513 $309 $312 $441 reversed $426 $-1 #
coedge $-1 $309 $513 $432 $517 forward $426 $-1 #
vertex $-1 $310 $521 #
straight-curve $-1 59.784539323099459 3.8531452256619225 84.214576547090701 0 0 1 I I #
straight-curve $-1 -7.0776394991187885 3.8531452256619225 101.56697427196318 0.55919289150049634 0 -0.82903758062907751 I I #
edge $-1 $515 -8.9857632707603408 $313 3.8531452256619225 $436 $522 forward 7 unknown #
point $-1 59.784539323099459 3.8531452256619225 11.545390493975722 #
point $-1 53.642683567622278 3.8531452256619225 11.545390493975717 #
edge $-1 $523 1 $523 0 $316 $-1 forward 7 unknown #
vertex $-1 $317 $524 #
ellipse-curve $-1 53.816976858933032 -5.3175037003539813 5.0387479056491449 0.82903758062907751 0 0.55919289150049634 0.55919289150049634 0 -0.82903758062907751 1 I I #
point $-1 57.272804336861377 -5.3175037003539813 6.1635149628940669 #
edge $-1 $525 1 $525 0 $320 $-1 forward 7 unknown #
vertex $-1 $321 $526 #
ellipse-curve $-1 53.816976858933032 0.18488565525555956 5.0387479056491449 0.82903758062907751 0 0.55919289150049634 0.55919289150049634 0 -0.82903758062907751 1 I I #
point $-1 57.272804336861377 0.18488565525555956 6.1635149628940669 #
plane-surface $-1 59.784539323099459 0 0 -1 0 0 0 0 1 forward_v I I I I #
coedge $-1 $329 $327 $331 $457 reversed $221 $-1 #
edge $-1 $342 -11.545390493975722 $459 11.545390493975722 $341 $527 forward 7 unknown #
vertex $-1 $457 $528 #
straight-curve $-1 -59.784539323099459 -30.362269885239126 0 0 0 -1 I I #
edge $-1 $455 -30.362269885239126 $459 30.362269885239126 $453 $529 forward 7 unknown #
straight-curve $-1 0 -30.362269885239126 -11.545390493975722 -1 0 0 I I #
vertex $-1 $334 $530 #
straight-curve $-1 0 30.362269885239126 -11.545390493975722 1 0 0 I I #
point $-1 59.784539323099459 30.362269885239126 -11.545390493975722 #
point $-1 59.784539323099459 -30.362269885239126 -11.545390493975722 #
straight-curve $-1 -59.784539323099459 0 11.545390493975722 0 -1 0 I I #
point $-1 -59.784539323099459 30.362269885239126 11.545390493975722 #
point $-1 -59.784539323099459 -30.362269885239126 11.545390493975722 #
straight-curve $-1 59.784539323099459 -30.362269885239126 0 0 0 -1 I I #
straight-curve $-1 59.784539323099459 30.362269885239126 0 0 0 -1 I I #
plane-surface $-1 0 0 11.545390493975722 0 0 1 1 0 0 forward_v I I I I #
coedge $-1 $359 $481 $470 $531 forward $352 $-1 #
coedge $-1 $355 $354 $469 $531 reversed $147 $-1 #
edge $-1 $477 -3.1817386608371265 $475 3.1817386608371265 $354 $532 forward 7 unknown #
coedge $-1 $367 $366 $355 $473 forward $368 $-1 #
edge $-1 $474 -3.1817386608371265 $533 3.1817386608371265 $355 $534 forward 7 unknown #
vertex $-1 $371 $535 #
vertex $-1 $361 $536 #
straight-curve $-1 -58.546595312640086 -42.125566543865084 0 0 0 -1 I I #
vertex $-1 $531 $537 #
straight-curve $-1 -52.183117990965833 -36.243918214552103 -11.545390493975722 0 -1 0 I I #
straight-curve $-1 -58.546595312640086 -36.243918214552103 -11.545390493975722 0 1 0 I I #
point $-1 -52.183117990965833 -30.362269885239122 -11.545390493975722 #
coedge $-1 $469 $364 $367 $483 reversed $352 $-1 #
straight-curve $-1 -52.183117990965833 -30.362269885239126 0 0 0 -1 I I #
edge $-1 $533 -5.8816483293129806 $369 5.8816483293129806 $481 $538 forward 7 unknown #
point $-1 -52.183117990965833 -30.362269885239122 11.545390493975722 #
straight-curve $-1 -58.546595312640086 -36.243918214552103 11.545390493975722 0 -1 0 I I #
edge $-1 $487 43.395652549311734 $490 46.459285939018763 $375 $539 forward 7 unknown #
vertex $-1 $389 $540 #
straight-curve $-1 -61.573249170479727 -1.9754834206535303 11.545390493975724 -1 0 0 I I #
edge $-1 $490 -0.55153756754288707 $386 5.6055795439357219 $385 $541 forward 7 unknown #
vertex $-1 $489 $542 #
straight-curve $-1 -59.784539323099459 -1.9754834206535303 8.481757104268695 0.84804809178421925 0 0.52991927123019833 I I #
point $-1 -54.881701115241874 -1.9754834206535303 11.545390493975722 #
point $-1 -59.784539323099459 -8.1326005321321393 8.481757104268695 #
straight-curve $-1 -59.784539323099459 0 11.545390493975722 0 -1 0 I I #
vertex $-1 $392 $543 #
point $-1 -56.379176902048357 -6.3734242145668212 9.430485342953089 #
vertex $-1 $396 $544 #
point $-1 -56.379176902048357 -3.7346597382188449 9.430485342953089 #
coedge $-1 $411 $410 $403 $500 forward $400 $-1 #
edge $-1 $501 43.395652549311734 $504 46.459285939018763 $499 $545 forward 7 unknown #
vertex $-1 $415 $546 #
straight-curve $-1 -61.573249170479727 22.505138135272617 11.545390493975724 -1 0 0 I I #
edge $-1 $504 -12.79184834550596 $412 -6.6347312340273543 $411 $547 forward 7 unknown #
vertex $-1 $503 $548 #
straight-curve $-1 -59.784539323099459 22.505138135272617 8.481757104268695 0.84804809178421925 0 0.52991927123019833 I I #
point $-1 -54.881701115241874 22.505138135272617 11.545390493975722 #
point $-1 -59.784539323099459 16.348021023794011 8.481757104268695 #
straight-curve $-1 -59.784539323099459 0 11.545390493975722 0 -1 0 I I #
vertex $-1 $418 $549 #
point $-1 -56.379176902048357 18.107197341359328 9.430485342953089 #
vertex $-1 $422 $550 #
point $-1 -56.379176902048357 20.7459618177073 9.430485342953089 #
coedge $-1 $437 $436 $429 $514 forward $426 $-1 #
edge $-1 $515 72.669186053114984 $518 81.774861954020224 $513 $551 forward 7 unknown #
vertex $-1 $441 $552 #
straight-curve $-1 46.024810089886927 -8.9857632707603408 11.545390493975717 1 0 0 I I #
edge $-1 $518 -7.7026087594857362 $438 5.1362997369365271 $437 $553 forward 7 unknown #
vertex $-1 $517 $554 #
straight-curve $-1 -7.0776394991187885 -8.9857632707603408 101.56697427196318 -0.55919289150049634 0 0.82903758062907751 I I #
point $-1 53.642683567622278 -8.9857632707603408 11.545390493975717 #
point $-1 59.784539323099466 3.8531452256619225 2.4397145930704767 #
straight-curve $-1 59.784539323099459 0 11.545390493975722 0 1 0 I I #
vertex $-1 $444 $555 #
point $-1 54.376169750433526 -5.3175037003539813 4.2097103250200671 #
vertex $-1 $448 $556 #
point $-1 54.376169750433526 0.18488565525555956 4.2097103250200671 #
straight-curve $-1 -59.784539323099459 30.362269885239126 0 0 0 -1 I I #
point $-1 -59.784539323099459 -30.362269885239126 -11.545390493975722 #
straight-curve $-1 -59.784539323099459 0 -11.545390493975722 0 1 0 I I #
point $-1 -59.784539323099459 30.362269885239126 -11.545390493975722 #
edge $-1 $533 -11.545390493975722 $477 11.545390493975722 $469 $557 forward 7 unknown #
straight-curve $-1 -55.36485665180296 -42.125566543865084 -11.545390493975722 -1 0 0 I I #
vertex $-1 $483 $558 #
straight-curve $-1 -55.36485665180296 -42.125566543865084 11.545390493975722 1 0 0 I I #
point $-1 -58.546595312640086 -42.125566543865084 11.545390493975722 #
point $-1 -58.546595312640086 -42.125566543865084 -11.545390493975722 #
point $-1 -52.183117990965833 -42.125566543865084 -11.545390493975722 #
straight-curve $-1 -52.183117990965833 -36.243918214552103 11.545390493975722 0 1 0 I I #
straight-curve $-1 -59.784539323099459 -1.9754834206535303 54.941043043287458 0 0 -1 I I #
point $-1 -59.784539323099459 -1.9754834206535303 11.545390493975722 #
straight-curve $-1 -59.784539323099459 -2.5270209881964174 8.4817571042686968 0 -1 0 I I #
point $-1 -59.784539323099459 -1.9754834206535303 8.481757104268695 #
point $-1 -56.538241312325368 -6.3734242145668212 8.7415016614458789 #
point $-1 -56.538241312325368 -3.7346597382188449 8.7415016614458789 #
straight-curve $-1 -59.784539323099459 22.505138135272617 54.941043043287458 0 0 -1 I I #
point $-1 -59.784539323099459 22.505138135272617 11.545390493975722 #
straight-curve $-1 -59.784539323099459 9.713289789766657 8.4817571042686968 0 -1 0 I I #
point $-1 -59.784539323099459 22.505138135272617 8.481757104268695 #
point $-1 -56.538241312325368 18.107197341359328 8.7415016614458789 #
point $-1 -56.538241312325368 20.7459618177073 8.7415016614458789 #
straight-curve $-1 59.784539323099459 -8.9857632707603408 84.214576547090701 0 0 -1 I I #
point $-1 59.784539323099459 -8.9857632707603408 11.545390493975722 #
straight-curve $-1 59.784539323099466 -1.2831545112746046 2.4397145930704838 0 1 0 I I #
point $-1 59.784539323099466 -8.9857632707603408 2.4397145930704767 #
point $-1 52.987939278303955 -5.3175037003539813 4.4795550141486489 #
point $-1 52.987939278303955 0.18488565525555956 4.4795550141486489 #
straight-curve $-1 -52.183117990965833 -42.125566543865084 0 0 0 -1 I I #
point $-1 -52.183117990965833 -42.125566543865084 11.545390493975722 #
End-of-ACIS-data 