500 0 9 0           
7 Unknown 11 ACIS 5.0 NT 24 Fri Mar 26 14:39:02 1999 
-1 9.9999999999999995e-007 1e-010 
body $-1 $9 $-1 $10 #
body $-1 $11 $-1 $12 #
body $-1 $13 $-1 $14 #
body $-1 $15 $-1 $16 #
body $-1 $17 $-1 $18 #
body $-1 $19 $-1 $20 #
body $-1 $21 $-1 $22 #
body $-1 $23 $-1 $24 #
body $-1 $25 $-1 $26 #
lump $-1 $-1 $27 $0 #
transform $-1 1 0 0 0 1 0 0 0 1 44.234748374889371 26.721206164216596 8.9195185565274642 1 rotate no_reflect no_shear #
lump $-1 $-1 $28 $1 #
transform $-1 1 0 0 0 1 0 0 0 1 44.234748374889371 26.721206164216596 8.9195185565274642 1 rotate no_reflect no_shear #
lump $-1 $-1 $29 $2 #
transform $-1 1 0 0 0 1 0 0 0 1 44.234748374889371 26.721206164216596 8.9195185565274642 1 rotate no_reflect no_shear #
lump $-1 $-1 $30 $3 #
transform $-1 1 0 0 0 1 0 0 0 1 44.234748374889371 26.721206164216596 8.9195185565274642 1 rotate no_reflect no_shear #
lump $-1 $-1 $31 $4 #
transform $-1 1 0 0 0 1 0 0 0 1 44.234748374889371 26.721206164216596 8.9195185565274642 1 rotate no_reflect no_shear #
lump $-1 $-1 $32 $5 #
transform $-1 1 0 0 0 1 0 0 0 1 44.234748374889371 26.721206164216596 8.9195185565274642 1 rotate no_reflect no_shear #
lump $-1 $-1 $33 $6 #
transform $-1 1 0 0 0 1 0 0 0 1 44.234748374889371 26.721206164216596 8.9195185565274642 1 rotate no_reflect no_shear #
lump $-1 $-1 $34 $7 #
transform $-1 1 0 0 0 1 0 0 0 1 44.234748374889371 26.721206164216596 8.9195185565274642 1 rotate no_reflect no_shear #
lump $-1 $-1 $35 $8 #
transform $-1 1 0 0 0 1 0 0 0 1 44.234748374889371 26.721206164216596 8.9195185565274642 1 rotate no_reflect no_shear #
shell $-1 $-1 $-1 $36 $-1 $9 #
shell $-1 $-1 $-1 $37 $-1 $11 #
shell $-1 $-1 $-1 $38 $-1 $13 #
shell $-1 $-1 $-1 $39 $-1 $15 #
shell $-1 $-1 $-1 $40 $-1 $17 #
shell $-1 $-1 $-1 $41 $-1 $19 #
shell $-1 $-1 $-1 $42 $-1 $21 #
shell $-1 $-1 $-1 $43 $-1 $23 #
shell $-1 $-1 $-1 $44 $-1 $25 #
face $-1 $45 $46 $27 $-1 $47 forward single #
face $-1 $48 $49 $28 $-1 $50 forward single #
face $-1 $51 $52 $29 $-1 $53 reversed single #
face $-1 $54 $55 $30 $-1 $56 forward single #
face $-1 $57 $58 $31 $-1 $59 forward single #
face $-1 $60 $61 $32 $-1 $62 reversed single #
face $-1 $63 $64 $33 $-1 $65 forward single #
face $-1 $66 $67 $34 $-1 $68 forward single #
face $-1 $69 $70 $35 $-1 $71 forward single #
face $-1 $72 $73 $27 $-1 $74 reversed single #
loop $-1 $-1 $75 $36 #
plane-surface $-1 0 0 8.9195185565274642 0 0 1 1 0 0 forward_v I I I I #
face $-1 $76 $77 $28 $-1 $78 reversed single #
loop $-1 $-1 $79 $37 #
plane-surface $-1 -44.234748374889371 0 0 1 0 0 0 0 -1 forward_v I I I I #
face $-1 $80 $81 $29 $-1 $82 reversed single #
loop $-1 $-1 $83 $38 #
plane-surface $-1 17.939937033431967 -99.19117600361183 52.02811255332584 -1 0 0 0 -0.81915205242281985 0.57357642473473569 forward_v I I I I #
face $-1 $84 $85 $30 $-1 $86 forward single #
loop $-1 $87 $88 $39 #
cone-surface $-1 6.7948405800650065 -22.336976080116834 3.9037239660156389 0 0.81915205242281985 -0.57357642473473569 1.5 0 0 1 I I 0 1 1.5 forward I I I I #
face $-1 $89 $90 $31 $-1 $91 forward single #
loop $-1 $92 $93 $40 #
cone-surface $-1 13.481898452085183 -22.336976080116834 3.9037239660156389 0 0.81915205242281985 -0.57357642473473569 1.5 0 0 1 I I 0 1 1.5 forward I I I I #
face $-1 $94 $95 $32 $-1 $96 reversed single #
loop $-1 $-1 $97 $41 #
plane-surface $-1 -38.154732840559049 75.029490113519628 94.765139034889586 1 0 0 0 -0.85716730853699208 -0.51503806187062418 forward_v I I I I #
face $-1 $98 $99 $33 $-1 $100 forward single #
loop $-1 $101 $102 $42 #
cone-surface $-1 -35.032295462618798 22.497919328909333 4.6156082571993275 0 -0.85716730853699208 -0.51503806187062418 1.5 0 0 1 I I 0 1 1.5 forward I I I I #
face $-1 $103 $104 $34 $-1 $105 forward single #
loop $-1 $106 $107 $43 #
cone-surface $-1 -30.348639395708425 22.497919328909333 4.6156082571993275 0 -0.85716730853699208 -0.51503806187062418 1.5 0 0 1 I I 0 1 1.5 forward I I I I #
face $-1 $108 $109 $35 $-1 $110 forward single #
loop $-1 $111 $112 $44 #
cone-surface $-1 -25.664983328798051 22.497919328909333 4.6156082571993275 0 -0.85716730853699208 -0.51503806187062418 1.5 0 0 1 I I 0 1 1.5 forward I I I I #
face $-1 $113 $114 $27 $-1 $115 reversed single #
loop $-1 $-1 $116 $45 #
plane-surface $-1 0 0 -8.9195185565274642 0 0 1 1 0 0 forward_v I I I I #
coedge $-1 $117 $118 $119 $120 forward $46 $-1 #
face $-1 $121 $122 $28 $-1 $123 forward single #
loop $-1 $-1 $124 $48 #
plane-surface $-1 0 26.721206164216596 0 0 -1 0 0 0 -1 forward_v I I I I #
coedge $-1 $125 $126 $127 $128 forward $49 $-1 #
face $-1 $129 $130 $29 $-1 $131 reversed single #
loop $-1 $-1 $132 $51 #
plane-surface $-1 10.138369516075095 -26.721206164216582 1.2840949095064289 0 -0.81915205242281985 0.57357642473473569 1 0 0 forward_v I I I I #
coedge $-1 $133 $134 $135 $136 reversed $52 $-1 #
face $-1 $-1 $137 $30 $-1 $138 forward single #
loop $-1 $139 $140 $54 #
cone-surface $-1 6.7948405800650065 -20.011572473552143 2.2754588804632778 0 0.81915205242281985 -0.57357642473473569 0.75 0 0 1 I I -0.70710678118654757 0.70710678118654757 0.75 forward I I I I #
loop $-1 $-1 $141 $39 #
coedge $-1 $88 $88 $142 $143 reversed $55 $-1 #
face $-1 $-1 $144 $31 $-1 $145 forward single #
loop $-1 $146 $147 $57 #
cone-surface $-1 13.481898452085183 -20.011572473552143 2.2754588804632778 0 0.81915205242281985 -0.57357642473473569 0.75 0 0 1 I I -0.70710678118654757 0.70710678118654757 0.75 forward I I I I #
loop $-1 $-1 $148 $40 #
coedge $-1 $93 $93 $149 $150 reversed $58 $-1 #
face $-1 $151 $152 $32 $-1 $153 reversed single #
loop $-1 $-1 $154 $60 #
plane-surface $-1 -30.348639395708425 -0.80367030311037979 49.199980894214058 0 0.85716730853699208 0.51503806187062418 1 0 0 forward_v I I I I #
coedge $-1 $155 $156 $157 $158 reversed $61 $-1 #
face $-1 $-1 $159 $33 $-1 $160 forward single #
loop $-1 $161 $162 $63 #
cone-surface $-1 -35.032295462618798 19.292723895384079 2.6897326112685533 0 -0.85716730853699208 -0.51503806187062418 0.75 0 0 1 I I -0.70710678118654757 0.70710678118654757 0.75 forward I I I I #
loop $-1 $-1 $163 $42 #
coedge $-1 $102 $102 $164 $165 reversed $64 $-1 #
face $-1 $-1 $166 $34 $-1 $167 forward single #
loop $-1 $168 $169 $66 #
cone-surface $-1 -30.348639395708425 19.292723895384079 2.6897326112685533 0 -0.85716730853699208 -0.51503806187062418 0.75 0 0 1 I I -0.70710678118654757 0.70710678118654757 0.75 forward I I I I #
loop $-1 $-1 $170 $43 #
coedge $-1 $107 $107 $171 $172 reversed $67 $-1 #
face $-1 $-1 $173 $35 $-1 $174 forward single #
loop $-1 $175 $176 $69 #
cone-surface $-1 -25.664983328798051 19.292723895384079 2.6897326112685533 0 -0.85716730853699208 -0.51503806187062418 0.75 0 0 1 I I -0.70710678118654757 0.70710678118654757 0.75 forward I I I I #
loop $-1 $-1 $177 $44 #
coedge $-1 $112 $112 $178 $179 reversed $70 $-1 #
face $-1 $180 $181 $27 $-1 $182 reversed single #
loop $-1 $-1 $183 $72 #
plane-surface $-1 0 -26.721206164216596 0 0 1 0 0 0 1 forward_v I I I I #
coedge $-1 $184 $185 $186 $187 forward $73 $-1 #
coedge $-1 $188 $75 $189 $190 forward $46 $-1 #
coedge $-1 $75 $188 $191 $192 forward $46 $-1 #
coedge $-1 $193 $194 $75 $120 reversed $195 $-1 #
edge $-1 $196 -26.721206164216596 $197 26.721206164216596 $119 $198 forward 7 unknown #
face $-1 $199 $200 $28 $-1 $201 reversed single #
loop $-1 $-1 $127 $76 #
plane-surface $-1 -47.274756142054528 0 -4.4204793158714786 0 0 1 1 0 0 forward_v I I I I #
coedge $-1 $202 $203 $126 $204 forward $77 $-1 #
coedge $-1 $205 $79 $206 $207 reversed $49 $-1 #
coedge $-1 $79 $205 $124 $204 reversed $49 $-1 #
coedge $-1 $208 $209 $79 $128 reversed $122 $-1 #
edge $-1 $210 -26.721206164216596 $211 26.721206164216596 $127 $212 forward 7 unknown #
face $-1 $213 $214 $29 $-1 $215 reversed single #
loop $-1 $-1 $216 $80 #
plane-surface $-1 2.3368019987182223 -99.19117600361183 52.02811255332584 1 0 0 0 0.81915205242281985 -0.57357642473473569 forward_v I I I I #
coedge $-1 $217 $218 $219 $220 reversed $81 $-1 #
coedge $-1 $134 $83 $221 $222 reversed $52 $-1 #
coedge $-1 $83 $133 $217 $223 reversed $52 $-1 #
coedge $-1 $219 $224 $83 $136 forward $225 $-1 #
edge $-1 $226 22.874381837589318 $227 28.220762871293715 $135 $228 forward 7 unknown #
loop $-1 $-1 $142 $84 #
plane-surface $-1 10.138369516075095 -26.721206164216582 1.2840949095064289 0 -0.81915205242281985 0.57357642473473569 1 0 0 forward_v I I I I #
loop $-1 $-1 $229 $54 #
coedge $-1 $140 $140 $141 $230 reversed $85 $-1 #
coedge $-1 $141 $141 $140 $230 forward $87 $-1 #
coedge $-1 $142 $142 $88 $143 forward $137 $-1 #
edge $-1 $231 7.7484888278159875e-016 $231 6.2831853071796013 $142 $232 forward 7 unknown #
loop $-1 $-1 $149 $89 #
plane-surface $-1 10.138369516075095 -26.721206164216582 1.2840949095064289 0 -0.81915205242281985 0.57357642473473569 1 0 0 forward_v I I I I #
loop $-1 $-1 $233 $57 #
coedge $-1 $147 $147 $148 $234 reversed $90 $-1 #
coedge $-1 $148 $148 $147 $234 forward $92 $-1 #
coedge $-1 $149 $149 $93 $150 forward $144 $-1 #
edge $-1 $235 7.7484888278159875e-016 $235 6.2831853071796013 $149 $236 forward 7 unknown #
face $-1 $237 $238 $32 $-1 $239 forward single #
loop $-1 $-1 $240 $94 #
plane-surface $-1 -22.5425459508578 75.029490113519628 94.765139034889586 -1 0 0 0 0.85716730853699208 0.51503806187062418 forward_v I I I I #
coedge $-1 $241 $242 $243 $244 reversed $95 $-1 #
coedge $-1 $156 $97 $245 $246 reversed $61 $-1 #
coedge $-1 $97 $155 $241 $247 reversed $61 $-1 #
coedge $-1 $243 $248 $97 $158 forward $238 $-1 #
edge $-1 $249 10.793538892543218 $250 14.115472658912697 $157 $251 forward 7 unknown #
loop $-1 $-1 $164 $98 #
plane-surface $-1 -30.348639395708425 -0.80367030311037979 49.199980894214058 0 0.85716730853699208 0.51503806187062418 1 0 0 forward_v I I I I #
loop $-1 $-1 $252 $63 #
coedge $-1 $162 $162 $163 $253 reversed $99 $-1 #
coedge $-1 $163 $163 $162 $253 forward $101 $-1 #
coedge $-1 $164 $164 $102 $165 forward $159 $-1 #
edge $-1 $254 9.0833949806864129e-016 $254 6.2831853071796013 $164 $255 forward 7 unknown #
loop $-1 $-1 $171 $103 #
plane-surface $-1 -30.348639395708425 -0.80367030311037979 49.199980894214058 0 0.85716730853699208 0.51503806187062418 1 0 0 forward_v I I I I #
loop $-1 $-1 $256 $66 #
coedge $-1 $169 $169 $170 $257 reversed $104 $-1 #
coedge $-1 $170 $170 $169 $257 forward $106 $-1 #
coedge $-1 $171 $171 $107 $172 forward $166 $-1 #
edge $-1 $258 9.0833949806864129e-016 $258 6.2831853071796013 $171 $259 forward 7 unknown #
loop $-1 $-1 $178 $108 #
plane-surface $-1 -30.348639395708425 -0.80367030311037979 49.199980894214058 0 0.85716730853699208 0.51503806187062418 1 0 0 forward_v I I I I #
loop $-1 $-1 $260 $69 #
coedge $-1 $176 $176 $177 $261 reversed $109 $-1 #
coedge $-1 $177 $177 $176 $261 forward $111 $-1 #
coedge $-1 $178 $178 $112 $179 forward $173 $-1 #
edge $-1 $262 9.0833949806864129e-016 $262 6.2831853071796013 $178 $263 forward 7 unknown #
face $-1 $264 $265 $27 $-1 $266 reversed single #
loop $-1 $-1 $267 $113 #
plane-surface $-1 -44.234748374889371 0 0 1 0 0 0 0 -1 forward_v I I I I #
coedge $-1 $268 $191 $269 $270 forward $114 $-1 #
coedge $-1 $271 $116 $268 $272 forward $73 $-1 #
coedge $-1 $116 $271 $273 $274 forward $73 $-1 #
coedge $-1 $194 $193 $116 $187 reversed $195 $-1 #
edge $-1 $275 -26.721206164216596 $276 26.721206164216596 $186 $277 forward 7 unknown #
coedge $-1 $118 $117 $278 $279 forward $46 $-1 #
coedge $-1 $280 $281 $117 $190 reversed $265 $-1 #
edge $-1 $197 -44.234748374889371 $282 44.234748374889371 $189 $283 forward 7 unknown #
coedge $-1 $183 $284 $118 $192 reversed $114 $-1 #
edge $-1 $285 -44.234748374889371 $196 44.234748374889371 $191 $286 forward 7 unknown #
coedge $-1 $186 $119 $284 $287 forward $195 $-1 #
coedge $-1 $119 $186 $280 $288 reversed $195 $-1 #
loop $-1 $-1 $193 $264 #
vertex $-1 $120 $289 #
vertex $-1 $120 $290 #
straight-curve $-1 44.234748374889371 0 8.9195185565274642 0 1 0 I I #
face $-1 $291 $292 $28 $-1 $293 reversed single #
loop $-1 $-1 $294 $121 #
plane-surface $-1 -50.314763909219685 0 -6.6699989361994714 1 0 0 0 0 -1 forward_v I I I I #
coedge $-1 $295 $124 $296 $297 reversed $77 $-1 #
coedge $-1 $124 $295 $208 $298 reversed $77 $-1 #
edge $-1 $210 4.4204793158714786 $299 8.9195185565274642 $124 $300 forward 7 unknown #
coedge $-1 $126 $125 $301 $302 reversed $49 $-1 #
coedge $-1 $303 $304 $125 $207 forward $305 $-1 #
edge $-1 $306 -8.9195185565274642 $211 -4.4204793158714786 $206 $307 forward 7 unknown #
coedge $-1 $308 $127 $203 $298 forward $122 $-1 #
coedge $-1 $127 $308 $303 $309 forward $122 $-1 #
vertex $-1 $204 $310 #
vertex $-1 $309 $311 #
straight-curve $-1 -44.234748374889371 0 -4.4204793158714786 0 -1 0 I I #
face $-1 $-1 $225 $29 $-1 $312 forward single #
loop $-1 $-1 $313 $129 #
plane-surface $-1 0 -26.721206164216596 0 0 1 0 0 0 1 forward_v I I I I #
coedge $-1 $314 $315 $316 $317 reversed $130 $-1 #
coedge $-1 $318 $132 $134 $223 forward $81 $-1 #
coedge $-1 $132 $318 $314 $319 forward $81 $-1 #
coedge $-1 $316 $135 $132 $220 forward $225 $-1 #
edge $-1 $227 -12.87075227539442 $320 2.7323827593193251 $219 $321 forward 7 unknown #
coedge $-1 $322 $323 $133 $222 forward $214 $-1 #
edge $-1 $324 -24.729961367156513 $226 -17.094537720135456 $221 $325 forward 7 unknown #
edge $-1 $227 -9.321131070156774 $324 2.4702845980661902e-014 $134 $326 forward 7 unknown #
coedge $-1 $135 $316 $322 $327 forward $225 $-1 #
loop $-1 $-1 $316 $213 #
vertex $-1 $222 $328 #
vertex $-1 $136 $329 #
straight-curve $-1 17.939937033431967 -49.595588001805915 8.9195185565274642 0 1 0 I I #
coedge $-1 $229 $229 $-1 $330 reversed $139 $-1 #
edge $-1 $331 0 $331 6.2831853071796004 $140 $332 forward 7 unknown #
vertex $-1 $143 $333 #
ellipse-curve $-1 6.7948405800650065 -24.048015647364398 5.1018067330169394 0 -0.81915205242281985 0.57357642473473569 1.5 0 0 1 I I #
coedge $-1 $233 $233 $-1 $334 reversed $146 $-1 #
edge $-1 $335 0 $335 6.2831853071796004 $147 $336 forward 7 unknown #
vertex $-1 $150 $337 #
ellipse-curve $-1 13.481898452085183 -24.048015647364398 5.1018067330169394 0 -0.81915205242281985 0.57357642473473569 1.5 0 0 1 I I #
face $-1 $-1 $338 $32 $-1 $339 reversed single #
loop $-1 $-1 $157 $151 #
plane-surface $-1 0 0 8.9195185565274642 0 0 1 1 0 0 forward_v I I I I #
coedge $-1 $340 $341 $342 $343 reversed $152 $-1 #
coedge $-1 $344 $154 $156 $247 forward $95 $-1 #
coedge $-1 $154 $344 $340 $345 forward $95 $-1 #
coedge $-1 $342 $157 $154 $244 forward $238 $-1 #
edge $-1 $250 -22.980413142704837 $346 -7.3682262530035878 $243 $347 forward 7 unknown #
coedge $-1 $348 $349 $155 $246 forward $338 $-1 #
edge $-1 $350 -43.991677360517969 $249 -38.463050960917329 $245 $351 forward 7 unknown #
edge $-1 $250 46.992532188887424 $350 53.442412328433186 $156 $352 forward 7 unknown #
coedge $-1 $157 $342 $348 $353 forward $238 $-1 #
vertex $-1 $246 $354 #
vertex $-1 $158 $355 #
straight-curve $-1 -38.154732840559049 37.514745056759814 8.9195185565274642 0 -1 0 I I #
coedge $-1 $252 $252 $-1 $356 reversed $161 $-1 #
edge $-1 $357 0 $357 6.2831853071796004 $162 $358 forward 7 unknown #
vertex $-1 $165 $359 #
ellipse-curve $-1 -35.032295462618798 25.060239281031858 6.1552053567271416 0 0.85716730853699208 0.51503806187062418 1.5 0 0 1 I I #
coedge $-1 $256 $256 $-1 $360 reversed $168 $-1 #
edge $-1 $361 0 $361 6.2831853071796004 $169 $362 forward 7 unknown #
vertex $-1 $172 $363 #
ellipse-curve $-1 -30.348639395708425 25.060239281031858 6.1552053567271416 0 0.85716730853699208 0.51503806187062418 1.5 0 0 1 I I #
coedge $-1 $260 $260 $-1 $364 reversed $175 $-1 #
edge $-1 $365 0 $365 6.2831853071796004 $176 $366 forward 7 unknown #
vertex $-1 $179 $367 #
ellipse-curve $-1 -25.664983328798051 25.060239281031858 6.1552053567271416 0 0.85716730853699208 0.51503806187062418 1.5 0 0 1 I I #
face $-1 $-1 $195 $27 $-1 $368 reversed single #
loop $-1 $-1 $280 $180 #
plane-surface $-1 0 26.721206164216596 0 0 -1 0 0 0 -1 forward_v I I I I #
coedge $-1 $369 $278 $281 $370 forward $181 $-1 #
coedge $-1 $284 $183 $184 $272 reversed $114 $-1 #
coedge $-1 $278 $369 $183 $270 reversed $181 $-1 #
edge $-1 $285 -8.9195185565274642 $371 8.9195185565274642 $269 $372 forward 7 unknown #
coedge $-1 $185 $184 $369 $373 forward $73 $-1 #
edge $-1 $276 -44.234748374889371 $371 44.234748374889371 $268 $374 forward 7 unknown #
coedge $-1 $281 $280 $185 $274 reversed $265 $-1 #
edge $-1 $375 -44.234748374889371 $275 44.234748374889371 $273 $376 forward 7 unknown #
vertex $-1 $187 $377 #
vertex $-1 $287 $378 #
straight-curve $-1 44.234748374889371 0 -8.9195185565274642 0 -1 0 I I #
coedge $-1 $267 $269 $188 $279 reversed $181 $-1 #
edge $-1 $282 -26.721206164216596 $285 26.721206164216596 $278 $379 forward 7 unknown #
coedge $-1 $273 $189 $194 $288 forward $265 $-1 #
coedge $-1 $189 $273 $267 $370 reversed $265 $-1 #
vertex $-1 $190 $380 #
straight-curve $-1 0 26.721206164216596 8.9195185565274642 -1 0 0 I I #
coedge $-1 $191 $268 $193 $287 reversed $114 $-1 #
vertex $-1 $279 $381 #
straight-curve $-1 0 -26.721206164216596 8.9195185565274642 1 0 0 I I #
edge $-1 $196 -8.9195185565274642 $276 8.9195185565274642 $193 $382 forward 7 unknown #
edge $-1 $197 -8.9195185565274642 $275 8.9195185565274642 $194 $383 forward 7 unknown #
point $-1 44.234748374889371 -26.721206164216596 8.9195185565274642 #
point $-1 44.234748374889371 26.721206164216596 8.9195185565274642 #
face $-1 $-1 $305 $28 $-1 $384 reversed single #
loop $-1 $-1 $301 $199 #
plane-surface $-1 0 0 -8.9195185565274642 0 0 1 1 0 0 forward_v I I I I #
coedge $-1 $385 $386 $295 $387 forward $200 $-1 #
coedge $-1 $203 $202 $294 $387 reversed $77 $-1 #
coedge $-1 $301 $388 $202 $297 forward $292 $-1 #
edge $-1 $389 -50.314763909219685 $299 -44.234748374889371 $202 $390 forward 7 unknown #
edge $-1 $210 -3.0400077671651573 $391 3.0400077671651573 $203 $392 forward 7 unknown #
vertex $-1 $204 $393 #
straight-curve $-1 -44.234748374889371 26.721206164216596 0 0 0 -1 I I #
coedge $-1 $394 $296 $205 $302 forward $292 $-1 #
edge $-1 $299 -26.721206164216596 $306 26.721206164216596 $301 $395 forward 7 unknown #
coedge $-1 $396 $206 $209 $309 reversed $305 $-1 #
coedge $-1 $206 $396 $394 $397 reversed $305 $-1 #
loop $-1 $-1 $206 $291 #
vertex $-1 $397 $398 #
straight-curve $-1 -44.234748374889371 -26.721206164216596 0 0 0 1 I I #
coedge $-1 $209 $208 $386 $399 forward $122 $-1 #
edge $-1 $400 -3.0400077671651573 $211 3.0400077671651573 $303 $401 forward 7 unknown #
point $-1 -44.234748374889371 26.721206164216596 -4.4204793158714786 #
point $-1 -44.234748374889371 -26.721206164216596 -4.4204793158714786 #
plane-surface $-1 0 0 8.9195185565274642 0 0 1 1 0 0 forward_v I I I I #
coedge $-1 $323 $322 $315 $402 forward $214 $-1 #
coedge $-1 $315 $216 $218 $319 reversed $130 $-1 #
coedge $-1 $216 $314 $313 $402 reversed $130 $-1 #
coedge $-1 $224 $219 $216 $317 forward $225 $-1 #
edge $-1 $320 -28.220762871293715 $403 -22.874381837589318 $316 $404 forward 7 unknown #
coedge $-1 $218 $217 $323 $405 reversed $81 $-1 #
edge $-1 $406 -2.4702845980661902e-014 $320 9.321131070156774 $314 $407 forward 7 unknown #
vertex $-1 $220 $408 #
straight-curve $-1 5.0691847580375473 -21.3748251305122 8.9195185565274642 -1 0 0 I I #
coedge $-1 $313 $221 $224 $327 reversed $214 $-1 #
coedge $-1 $221 $313 $318 $405 forward $214 $-1 #
vertex $-1 $222 $409 #
straight-curve $-1 17.939937033431967 -26.721206164216596 26.01405627666292 0 0 1 I I #
straight-curve $-1 17.939937033431967 -26.721206164216582 1.2840949095064289 0 -0.57357642473473569 -0.81915205242281985 I I #
edge $-1 $403 2.3368019987182223 $226 17.939937033431967 $322 $410 forward 7 unknown #
point $-1 17.939937033431967 -26.721206164216596 8.9195185565274642 #
point $-1 17.939937033431967 -21.3748251305122 8.9195185565274642 #
edge $-1 $411 1 $411 0 $229 $-1 forward 7 unknown #
vertex $-1 $230 $412 #
ellipse-curve $-1 6.7948405800650065 -20.625936512869256 2.7056411990143294 0 -0.81915205242281985 0.57357642473473569 1.5 0 0 1 I I #
point $-1 8.2948405800650065 -24.048015647364409 5.1018067330169483 #
edge $-1 $413 1 $413 0 $233 $-1 forward 7 unknown #
vertex $-1 $234 $414 #
ellipse-curve $-1 13.481898452085183 -20.625936512869256 2.7056411990143294 0 -0.81915205242281985 0.57357642473473569 1.5 0 0 1 I I #
point $-1 14.981898452085183 -24.048015647364409 5.1018067330169483 #
loop $-1 $-1 $245 $237 #
plane-surface $-1 0 26.721206164216596 0 0 -1 0 0 0 -1 forward_v I I I I #
coedge $-1 $341 $240 $242 $345 reversed $152 $-1 #
coedge $-1 $240 $340 $415 $416 reversed $152 $-1 #
coedge $-1 $248 $243 $240 $343 forward $238 $-1 #
edge $-1 $346 -14.115472658912697 $417 -10.793538892543218 $342 $418 forward 7 unknown #
coedge $-1 $242 $241 $349 $419 reversed $95 $-1 #
edge $-1 $420 -53.442412328433186 $346 -46.992532188887424 $340 $421 forward 7 unknown #
vertex $-1 $244 $422 #
straight-curve $-1 -15.174319697854212 23.399272397847117 8.9195185565274642 1 0 0 I I #
coedge $-1 $415 $245 $248 $353 reversed $338 $-1 #
coedge $-1 $245 $415 $344 $419 forward $338 $-1 #
vertex $-1 $246 $423 #
straight-curve $-1 -38.154732840559049 26.721206164216596 47.382569517444793 0 0 1 I I #
straight-curve $-1 -38.154732840559049 -0.80367030311037979 49.199980894214058 0 0.51503806187062418 -0.85716730853699208 I I #
edge $-1 $417 22.5425459508578 $249 38.154732840559049 $348 $424 forward 7 unknown #
point $-1 -38.154732840559049 26.721206164216596 8.9195185565274642 #
point $-1 -38.154732840559049 23.399272397847117 8.9195185565274642 #
edge $-1 $425 1 $425 0 $252 $-1 forward 7 unknown #
vertex $-1 $253 $426 #
ellipse-curve $-1 -35.032295462618798 19.935599376786822 3.0760111576715214 0 0.85716730853699208 0.51503806187062418 1.5 0 0 1 I I #
point $-1 -33.532295462618798 25.060239281031848 6.1552053567271336 #
edge $-1 $427 1 $427 0 $256 $-1 forward 7 unknown #
vertex $-1 $257 $428 #
ellipse-curve $-1 -30.348639395708425 19.935599376786822 3.0760111576715214 0 0.85716730853699208 0.51503806187062418 1.5 0 0 1 I I #
point $-1 -28.848639395708425 25.060239281031848 6.1552053567271336 #
edge $-1 $429 1 $429 0 $260 $-1 forward 7 unknown #
vertex $-1 $261 $430 #
ellipse-curve $-1 -25.664983328798051 19.935599376786822 3.0760111576715214 0 0.85716730853699208 0.51503806187062418 1.5 0 0 1 I I #
point $-1 -24.164983328798051 25.060239281031848 6.1552053567271336 #
plane-surface $-1 44.234748374889371 0 0 -1 0 0 0 0 1 forward_v I I I I #
coedge $-1 $269 $267 $271 $373 reversed $181 $-1 #
edge $-1 $282 -8.9195185565274642 $375 8.9195185565274642 $281 $431 forward 7 unknown #
vertex $-1 $373 $432 #
straight-curve $-1 -44.234748374889371 -26.721206164216596 0 0 0 -1 I I #
edge $-1 $371 -26.721206164216596 $375 26.721206164216596 $369 $433 forward 7 unknown #
straight-curve $-1 0 -26.721206164216596 -8.9195185565274642 -1 0 0 I I #
vertex $-1 $274 $434 #
straight-curve $-1 0 26.721206164216596 -8.9195185565274642 1 0 0 I I #
point $-1 44.234748374889371 26.721206164216596 -8.9195185565274642 #
point $-1 44.234748374889371 -26.721206164216596 -8.9195185565274642 #
straight-curve $-1 -44.234748374889371 0 8.9195185565274642 0 -1 0 I I #
point $-1 -44.234748374889371 26.721206164216596 8.9195185565274642 #
point $-1 -44.234748374889371 -26.721206164216596 8.9195185565274642 #
straight-curve $-1 44.234748374889371 -26.721206164216596 0 0 0 -1 I I #
straight-curve $-1 44.234748374889371 26.721206164216596 0 0 0 -1 I I #
plane-surface $-1 0 -26.721206164216596 0 0 1 0 0 0 1 forward_v I I I I #
coedge $-1 $435 $294 $388 $436 reversed $200 $-1 #
coedge $-1 $294 $435 $308 $399 reversed $200 $-1 #
edge $-1 $391 -2.2495196203279928 $389 2.2495196203279928 $295 $437 forward 7 unknown #
coedge $-1 $296 $394 $385 $436 forward $292 $-1 #
vertex $-1 $297 $438 #
straight-curve $-1 0 26.721206164216596 -8.9195185565274642 1 0 0 I I #
vertex $-1 $298 $439 #
straight-curve $-1 -47.274756142054528 26.721206164216596 -4.4204793158714786 -1 0 0 I I #
point $-1 -44.234748374889371 26.721206164216596 -8.9195185565274642 #
coedge $-1 $388 $301 $304 $397 forward $292 $-1 #
straight-curve $-1 -44.234748374889371 0 -8.9195185565274642 0 -1 0 I I #
coedge $-1 $304 $303 $435 $440 forward $305 $-1 #
edge $-1 $306 -3.0400077671651573 $441 3.0400077671651573 $304 $442 forward 7 unknown #
point $-1 -44.234748374889371 -26.721206164216596 -8.9195185565274642 #
edge $-1 $391 -26.721206164216596 $400 26.721206164216596 $386 $443 forward 7 unknown #
vertex $-1 $399 $444 #
straight-curve $-1 -47.274756142054528 -26.721206164216596 -4.4204793158714786 1 0 0 I I #
edge $-1 $403 17.094537720135456 $406 24.729961367156513 $313 $445 forward 7 unknown #
vertex $-1 $327 $446 #
straight-curve $-1 2.3368019987182223 -49.595588001805915 8.9195185565274642 0 -1 0 I I #
edge $-1 $406 -2.7323827593193251 $324 12.87075227539442 $323 $447 forward 7 unknown #
vertex $-1 $405 $448 #
straight-curve $-1 2.3368019987182223 -26.721206164216582 1.2840949095064289 0 0.57357642473473569 0.81915205242281985 I I #
point $-1 2.3368019987182223 -21.3748251305122 8.9195185565274642 #
point $-1 17.939937033431967 -26.721206164216596 1.2840949095064087 #
straight-curve $-1 0 -26.721206164216596 8.9195185565274642 1 0 0 I I #
vertex $-1 $330 $449 #
point $-1 8.2948405800650065 -20.625936512869256 2.7056411990143294 #
vertex $-1 $334 $450 #
point $-1 14.981898452085183 -20.625936512869256 2.7056411990143294 #
coedge $-1 $349 $348 $341 $416 forward $338 $-1 #
edge $-1 $417 38.463050960917329 $420 43.991677360517969 $415 $451 forward 7 unknown #
vertex $-1 $353 $452 #
straight-curve $-1 -22.5425459508578 37.514745056759814 8.9195185565274642 0 1 0 I I #
edge $-1 $420 7.3682262530035878 $350 22.980413142704837 $349 $453 forward 7 unknown #
vertex $-1 $419 $454 #
straight-curve $-1 -22.5425459508578 -0.80367030311037979 49.199980894214058 0 -0.51503806187062418 0.85716730853699208 I I #
point $-1 -22.5425459508578 23.399272397847117 8.9195185565274642 #
point $-1 -38.154732840559049 26.721206164216596 3.3908921569268244 #
straight-curve $-1 0 26.721206164216596 8.9195185565274642 -1 0 0 I I #
vertex $-1 $356 $455 #
point $-1 -33.532295462618798 19.935599376786822 3.0760111576715214 #
vertex $-1 $360 $456 #
point $-1 -28.848639395708425 19.935599376786822 3.0760111576715214 #
vertex $-1 $364 $457 #
point $-1 -24.164983328798051 19.935599376786822 3.0760111576715214 #
straight-curve $-1 -44.234748374889371 26.721206164216596 0 0 0 -1 I I #
point $-1 -44.234748374889371 -26.721206164216596 -8.9195185565274642 #
straight-curve $-1 -44.234748374889371 0 -8.9195185565274642 0 1 0 I I #
point $-1 -44.234748374889371 26.721206164216596 -8.9195185565274642 #
coedge $-1 $386 $385 $396 $440 reversed $200 $-1 #
edge $-1 $441 -26.721206164216596 $389 26.721206164216596 $385 $458 forward 7 unknown #
straight-curve $-1 -50.314763909219685 26.721206164216596 -6.6699989361994714 0 0 -1 I I #
point $-1 -50.314763909219685 26.721206164216596 -8.9195185565274642 #
point $-1 -50.314763909219685 26.721206164216596 -4.4204793158714786 #
edge $-1 $400 -2.2495196203279928 $441 2.2495196203279928 $435 $459 forward 7 unknown #
vertex $-1 $436 $460 #
straight-curve $-1 -47.274756142054528 -26.721206164216596 -8.9195185565274642 -1 0 0 I I #
straight-curve $-1 -50.314763909219685 0 -4.4204793158714786 0 -1 0 I I #
point $-1 -50.314763909219685 -26.721206164216596 -4.4204793158714786 #
straight-curve $-1 2.3368019987182223 -26.721206164216596 26.01405627666292 0 0 -1 I I #
point $-1 2.3368019987182223 -26.721206164216596 8.9195185565274642 #
straight-curve $-1 5.0691847580375473 -26.721206164216596 1.284094909506408 1 0 0 I I #
point $-1 2.3368019987182223 -26.721206164216596 1.2840949095064087 #
point $-1 6.7948405800650065 -19.397208434235029 1.845276561912226 #
point $-1 13.481898452085183 -19.397208434235029 1.845276561912226 #
straight-curve $-1 -22.5425459508578 26.721206164216596 47.382569517444793 0 0 -1 I I #
point $-1 -22.5425459508578 26.721206164216596 8.9195185565274642 #
straight-curve $-1 -15.174319697854212 26.721206164216596 3.3908921569268244 -1 0 0 I I #
point $-1 -22.5425459508578 26.721206164216596 3.3908921569268244 #
point $-1 -35.032295462618798 18.649848413981335 2.3034540648655852 #
point $-1 -30.348639395708425 18.649848413981335 2.3034540648655852 #
point $-1 -25.664983328798051 18.649848413981335 2.3034540648655852 #
straight-curve $-1 -50.314763909219685 0 -8.9195185565274642 0 1 0 I I #
straight-curve $-1 -50.314763909219685 -26.721206164216596 -6.6699989361994714 0 0 -1 I I #
point $-1 -50.314763909219685 -26.721206164216596 -8.9195185565274642 #
End-of-ACIS-data 