500 0 9 0           
7 Unknown 11 ACIS 5.0 NT 24 Thu Mar 25 18:32:28 1999 
-1 9.9999999999999995e-007 1e-010 
body $-1 $9 $-1 $10 #
body $-1 $11 $-1 $12 #
body $-1 $13 $-1 $14 #
body $-1 $15 $-1 $16 #
body $-1 $17 $-1 $18 #
body $-1 $19 $-1 $20 #
body $-1 $21 $-1 $22 #
body $-1 $23 $-1 $24 #
body $-1 $25 $-1 $26 #
lump $-1 $-1 $27 $0 #
transform $-1 1 0 0 0 1 0 0 0 1 61.994079409161657 40.71342491572895 12.882996497657265 1 rotate no_reflect no_shear #
lump $-1 $-1 $28 $1 #
transform $-1 1 0 0 0 1 0 0 0 1 61.994079409161657 40.71342491572895 12.882996497657265 1 rotate no_reflect no_shear #
lump $-1 $-1 $29 $2 #
transform $-1 1 0 0 0 1 0 0 0 1 61.994079409161657 40.71342491572895 12.882996497657265 1 rotate no_reflect no_shear #
lump $-1 $-1 $30 $3 #
transform $-1 1 0 0 0 1 0 0 0 1 61.994079409161657 40.71342491572895 12.882996497657265 1 rotate no_reflect no_shear #
lump $-1 $-1 $31 $4 #
transform $-1 1 0 0 0 1 0 0 0 1 61.994079409161657 40.71342491572895 12.882996497657265 1 rotate no_reflect no_shear #
lump $-1 $-1 $32 $5 #
transform $-1 1 0 0 0 1 0 0 0 1 61.994079409161657 40.71342491572895 12.882996497657265 1 rotate no_reflect no_shear #
lump $-1 $-1 $33 $6 #
transform $-1 1 0 0 0 1 0 0 0 1 61.994079409161657 40.71342491572895 12.882996497657265 1 rotate no_reflect no_shear #
lump $-1 $-1 $34 $7 #
transform $-1 1 0 0 0 1 0 0 0 1 61.994079409161657 40.71342491572895 12.882996497657265 1 rotate no_reflect no_shear #
lump $-1 $-1 $35 $8 #
transform $-1 1 0 0 0 1 0 0 0 1 61.994079409161657 40.71342491572895 12.882996497657265 1 rotate no_reflect no_shear #
shell $-1 $-1 $-1 $36 $-1 $9 #
shell $-1 $-1 $-1 $37 $-1 $11 #
shell $-1 $-1 $-1 $38 $-1 $13 #
shell $-1 $-1 $-1 $39 $-1 $15 #
shell $-1 $-1 $-1 $40 $-1 $17 #
shell $-1 $-1 $-1 $41 $-1 $19 #
shell $-1 $-1 $-1 $42 $-1 $21 #
shell $-1 $-1 $-1 $43 $-1 $23 #
shell $-1 $-1 $-1 $44 $-1 $25 #
face $-1 $45 $46 $27 $-1 $47 forward single #
face $-1 $48 $49 $28 $-1 $50 forward single #
face $-1 $51 $52 $29 $-1 $53 reversed single #
face $-1 $54 $55 $30 $-1 $56 forward single #
face $-1 $57 $58 $31 $-1 $59 forward single #
face $-1 $60 $61 $32 $-1 $62 reversed single #
face $-1 $63 $64 $33 $-1 $65 forward single #
face $-1 $66 $67 $34 $-1 $68 forward single #
face $-1 $69 $70 $35 $-1 $71 forward single #
face $-1 $72 $73 $27 $-1 $74 reversed single #
loop $-1 $-1 $75 $36 #
plane-surface $-1 0 0 12.882996497657265 0 0 1 1 0 0 forward_v I I I I #
face $-1 $76 $77 $28 $-1 $78 reversed single #
loop $-1 $-1 $79 $37 #
plane-surface $-1 0 -40.71342491572895 0 0 1 0 0 0 1 forward_v I I I I #
face $-1 $80 $81 $29 $-1 $82 reversed single #
loop $-1 $-1 $83 $38 #
plane-surface $-1 65.054286536294882 22.675253132246837 180.41540693669398 0 1 0 0.71933980857756763 0 0.69465836192734942 forward_v I I I I #
face $-1 $84 $85 $30 $-1 $86 forward single #
loop $-1 $87 $88 $39 #
cone-surface $-1 55.650821673845748 27.829016498956008 6.4947986702889455 -0.71933980857756763 0 -0.69465836192734942 1.7366459048183736 0 -1.7983495214439191 1 I I 0 1 2.5 forward I I I I #
face $-1 $89 $90 $31 $-1 $91 forward single #
loop $-1 $92 $93 $40 #
cone-surface $-1 55.650821673845748 35.559661549019779 6.4947986702889455 -0.71933980857756763 0 -0.69465836192734942 1.7366459048183736 0 -1.7983495214439191 1 I I 0 1 2.5 forward I I I I #
face $-1 $94 $95 $32 $-1 $96 reversed single #
loop $-1 $-1 $97 $41 #
plane-surface $-1 -146.55380139577642 10.411378498335267 92.126946718094644 0 1 0 -0.68199836817093118 0 0.7313536940579346 forward_v I I I I #
face $-1 $98 $99 $33 $-1 $100 forward single #
loop $-1 $101 $102 $42 #
cone-surface $-1 -55.521679421703304 11.909420809892303 6.7996957752356675 0.68199836817093118 0 -0.7313536940579346 0.3656768470289673 0 0.34099918408546559 1 I I 0 1 0.5 forward I I I I #
face $-1 $103 $104 $34 $-1 $105 forward single #
loop $-1 $106 $107 $43 #
cone-surface $-1 -55.521679421703304 14.156484277227854 6.7996957752356675 0.68199836817093118 0 -0.7313536940579346 0.3656768470289673 0 0.34099918408546559 1 I I 0 1 0.5 forward I I I I #
face $-1 $108 $109 $35 $-1 $110 forward single #
loop $-1 $111 $112 $44 #
cone-surface $-1 -55.521679421703304 16.403547744563404 6.7996957752356675 0.68199836817093118 0 -0.7313536940579346 0.3656768470289673 0 0.34099918408546559 1 I I 0 1 0.5 forward I I I I #
face $-1 $113 $114 $27 $-1 $115 reversed single #
loop $-1 $-1 $116 $45 #
plane-surface $-1 0 0 -12.882996497657265 0 0 1 1 0 0 forward_v I I I I #
coedge $-1 $117 $118 $119 $120 forward $46 $-1 #
face $-1 $121 $122 $28 $-1 $123 reversed single #
loop $-1 $-1 $124 $48 #
plane-surface $-1 0 0 -12.882996497657265 0 0 1 1 0 0 forward_v I I I I #
coedge $-1 $125 $126 $127 $128 forward $49 $-1 #
face $-1 $129 $130 $29 $-1 $131 reversed single #
loop $-1 $-1 $132 $51 #
plane-surface $-1 -24.135331893962856 31.694339023987894 94.28599563356947 0.71933980857756763 0 0.69465836192734942 0.69465836192734942 0 -0.71933980857756763 forward_v I I I I #
coedge $-1 $133 $134 $135 $136 reversed $52 $-1 #
face $-1 $-1 $137 $30 $-1 $138 forward single #
loop $-1 $139 $140 $54 #
cone-surface $-1 52.168114511692764 27.829016498956008 3.1315875376842062 -0.71933980857756763 0 -0.69465836192734942 0.86832295240918678 0 -0.89917476072195957 1 I I -0.70710678118654746 0.70710678118654746 1.25 forward I I I I #
loop $-1 $-1 $141 $39 #
coedge $-1 $88 $88 $142 $143 reversed $55 $-1 #
face $-1 $-1 $144 $31 $-1 $145 forward single #
loop $-1 $146 $147 $57 #
cone-surface $-1 52.168114511692764 35.559661549019779 3.1315875376842062 -0.71933980857756763 0 -0.69465836192734942 0.86832295240918678 0 -0.89917476072195957 1 I I -0.70710678118654746 0.70710678118654746 1.25 forward I I I I #
loop $-1 $-1 $148 $40 #
coedge $-1 $93 $93 $149 $150 reversed $58 $-1 #
face $-1 $151 $152 $32 $-1 $153 reversed single #
loop $-1 $-1 $154 $60 #
plane-surface $-1 -61.994079409161671 14.156484277227854 1.4477487468720085 -0.68199836817093118 0 0.7313536940579346 0.7313536940579346 0 0.68199836817093118 forward_v I I I I #
coedge $-1 $155 $156 $157 $158 reversed $61 $-1 #
face $-1 $-1 $159 $33 $-1 $160 forward single #
loop $-1 $161 $162 $63 #
cone-surface $-1 -55.010180645575105 11.909420809892303 6.2511805046922166 0.68199836817093118 0 -0.7313536940579346 0.18283842351448365 0 0.17049959204273279 1 I I -0.70710678118654746 0.70710678118654746 0.25 forward I I I I #
loop $-1 $-1 $163 $42 #
coedge $-1 $102 $102 $164 $165 reversed $64 $-1 #
face $-1 $-1 $166 $34 $-1 $167 forward single #
loop $-1 $168 $169 $66 #
cone-surface $-1 -55.010180645575105 14.156484277227854 6.2511805046922166 0.68199836817093118 0 -0.7313536940579346 0.18283842351448365 0 0.17049959204273279 1 I I -0.70710678118654746 0.70710678118654746 0.25 forward I I I I #
loop $-1 $-1 $170 $43 #
coedge $-1 $107 $107 $171 $172 reversed $67 $-1 #
face $-1 $-1 $173 $35 $-1 $174 forward single #
loop $-1 $175 $176 $69 #
cone-surface $-1 -55.010180645575105 16.403547744563404 6.2511805046922166 0.68199836817093118 0 -0.7313536940579346 0.18283842351448365 0 0.17049959204273279 1 I I -0.70710678118654746 0.70710678118654746 0.25 forward I I I I #
loop $-1 $-1 $177 $44 #
coedge $-1 $112 $112 $178 $179 reversed $70 $-1 #
face $-1 $180 $181 $27 $-1 $182 reversed single #
loop $-1 $-1 $183 $72 #
plane-surface $-1 0 -40.71342491572895 0 0 1 0 0 0 1 forward_v I I I I #
coedge $-1 $184 $185 $186 $187 forward $73 $-1 #
coedge $-1 $188 $75 $189 $190 forward $46 $-1 #
coedge $-1 $75 $188 $191 $192 forward $46 $-1 #
coedge $-1 $193 $194 $75 $120 reversed $195 $-1 #
edge $-1 $196 -40.71342491572895 $197 40.71342491572895 $119 $198 forward 7 unknown #
face $-1 $199 $200 $28 $-1 $201 reversed single #
loop $-1 $-1 $202 $76 #
plane-surface $-1 -59.532594341039392 -49.615301456224188 0 0 1 0 0 0 1 forward_v I I I I #
coedge $-1 $203 $204 $126 $205 forward $77 $-1 #
coedge $-1 $206 $79 $207 $208 reversed $49 $-1 #
coedge $-1 $79 $206 $124 $205 reversed $49 $-1 #
coedge $-1 $209 $210 $79 $128 reversed $200 $-1 #
edge $-1 $211 -12.882996497657265 $212 12.882996497657265 $127 $213 forward 7 unknown #
face $-1 $214 $215 $29 $-1 $216 forward single #
loop $-1 $-1 $217 $80 #
plane-surface $-1 0 40.71342491572895 0 0 -1 0 0 0 -1 forward_v I I I I #
coedge $-1 $218 $219 $220 $221 reversed $81 $-1 #
coedge $-1 $134 $83 $222 $223 reversed $52 $-1 #
coedge $-1 $83 $133 $218 $224 reversed $52 $-1 #
coedge $-1 $220 $225 $83 $136 forward $226 $-1 #
edge $-1 $227 77.324706970689732 $228 85.111326265035274 $135 $229 forward 7 unknown #
loop $-1 $-1 $142 $84 #
plane-surface $-1 -24.135331893962856 31.694339023987894 94.28599563356947 0.71933980857756763 0 0.69465836192734942 0.69465836192734942 0 -0.71933980857756763 forward_v I I I I #
loop $-1 $-1 $230 $54 #
coedge $-1 $140 $140 $141 $231 reversed $85 $-1 #
coedge $-1 $141 $141 $140 $231 forward $87 $-1 #
coedge $-1 $142 $142 $88 $143 forward $137 $-1 #
edge $-1 $232 0 $232 6.2831853071796004 $142 $233 forward 7 unknown #
loop $-1 $-1 $149 $89 #
plane-surface $-1 -24.135331893962856 31.694339023987894 94.28599563356947 0.71933980857756763 0 0.69465836192734942 0.69465836192734942 0 -0.71933980857756763 forward_v I I I I #
loop $-1 $-1 $234 $57 #
coedge $-1 $147 $147 $148 $235 reversed $90 $-1 #
coedge $-1 $148 $148 $147 $235 forward $92 $-1 #
coedge $-1 $149 $149 $93 $150 forward $144 $-1 #
edge $-1 $236 0 $236 6.2831853071796004 $149 $237 forward 7 unknown #
face $-1 $238 $239 $32 $-1 $240 reversed single #
loop $-1 $-1 $241 $94 #
plane-surface $-1 -146.55380139577642 17.90159005612044 92.126946718094644 0 -1 0 0.68199836817093118 0 -0.7313536940579346 forward_v I I I I #
coedge $-1 $242 $243 $244 $245 reversed $95 $-1 #
coedge $-1 $156 $97 $246 $247 reversed $61 $-1 #
coedge $-1 $97 $155 $242 $248 reversed $61 $-1 #
coedge $-1 $244 $249 $97 $158 forward $250 $-1 #
edge $-1 $251 11.282821288726552 $252 23.545622895472306 $157 $253 forward 7 unknown #
loop $-1 $-1 $164 $98 #
plane-surface $-1 -61.994079409161671 14.156484277227854 1.4477487468720085 -0.68199836817093118 0 0.7313536940579346 0.7313536940579346 0 0.68199836817093118 forward_v I I I I #
loop $-1 $-1 $254 $63 #
coedge $-1 $162 $162 $163 $255 reversed $99 $-1 #
coedge $-1 $163 $163 $162 $255 forward $101 $-1 #
coedge $-1 $164 $164 $102 $165 forward $159 $-1 #
edge $-1 $256 0 $256 6.2831853071796004 $164 $257 forward 7 unknown #
loop $-1 $-1 $171 $103 #
plane-surface $-1 -61.994079409161671 14.156484277227854 1.4477487468720085 -0.68199836817093118 0 0.7313536940579346 0.7313536940579346 0 0.68199836817093118 forward_v I I I I #
loop $-1 $-1 $258 $66 #
coedge $-1 $169 $169 $170 $259 reversed $104 $-1 #
coedge $-1 $170 $170 $169 $259 forward $106 $-1 #
coedge $-1 $171 $171 $107 $172 forward $166 $-1 #
edge $-1 $260 0 $260 6.2831853071796004 $171 $261 forward 7 unknown #
loop $-1 $-1 $178 $108 #
plane-surface $-1 -61.994079409161671 14.156484277227854 1.4477487468720085 -0.68199836817093118 0 0.7313536940579346 0.7313536940579346 0 0.68199836817093118 forward_v I I I I #
loop $-1 $-1 $262 $69 #
coedge $-1 $176 $176 $177 $263 reversed $109 $-1 #
coedge $-1 $177 $177 $176 $263 forward $111 $-1 #
coedge $-1 $178 $178 $112 $179 forward $173 $-1 #
edge $-1 $264 0 $264 6.2831853071796004 $178 $265 forward 7 unknown #
face $-1 $266 $267 $27 $-1 $268 reversed single #
loop $-1 $-1 $269 $113 #
plane-surface $-1 -61.994079409161657 0 0 1 0 0 0 0 -1 forward_v I I I I #
coedge $-1 $270 $191 $271 $272 forward $114 $-1 #
coedge $-1 $273 $116 $270 $274 forward $73 $-1 #
coedge $-1 $116 $273 $275 $276 forward $73 $-1 #
coedge $-1 $194 $193 $116 $187 reversed $195 $-1 #
edge $-1 $277 -40.71342491572895 $278 40.71342491572895 $186 $279 forward 7 unknown #
coedge $-1 $118 $117 $280 $281 forward $46 $-1 #
coedge $-1 $282 $283 $117 $190 reversed $267 $-1 #
edge $-1 $197 -61.994079409161657 $284 61.994079409161657 $189 $285 forward 7 unknown #
coedge $-1 $183 $286 $118 $192 reversed $114 $-1 #
edge $-1 $287 -61.994079409161657 $196 61.994079409161657 $191 $288 forward 7 unknown #
coedge $-1 $186 $119 $286 $289 forward $195 $-1 #
coedge $-1 $119 $186 $282 $290 reversed $195 $-1 #
loop $-1 $-1 $193 $266 #
vertex $-1 $120 $291 #
vertex $-1 $120 $292 #
straight-curve $-1 61.994079409161657 0 12.882996497657265 0 1 0 I I #
face $-1 $293 $294 $28 $-1 $295 reversed single #
loop $-1 $-1 $127 $121 #
plane-surface $-1 -61.494079409161657 -45.164363185976569 0 1 0 0 0 0 -1 forward_v I I I I #
coedge $-1 $296 $297 $298 $299 forward $122 $-1 #
coedge $-1 $300 $124 $301 $302 forward $77 $-1 #
coedge $-1 $124 $300 $209 $303 forward $77 $-1 #
edge $-1 $211 -61.494079409161657 $304 -57.571109272917127 $124 $305 forward 7 unknown #
coedge $-1 $126 $125 $306 $307 forward $49 $-1 #
coedge $-1 $308 $309 $125 $208 forward $310 $-1 #
edge $-1 $311 57.571109272917127 $212 61.494079409161657 $207 $312 forward 7 unknown #
coedge $-1 $298 $127 $204 $303 reversed $200 $-1 #
coedge $-1 $127 $298 $308 $313 reversed $200 $-1 #
vertex $-1 $205 $314 #
vertex $-1 $313 $315 #
straight-curve $-1 -61.494079409161657 -40.71342491572895 0 0 0 1 I I #
face $-1 $-1 $226 $29 $-1 $316 reversed single #
loop $-1 $-1 $317 $129 #
plane-surface $-1 0 0 12.882996497657265 0 0 1 1 0 0 forward_v I I I I #
coedge $-1 $318 $319 $219 $320 forward $130 $-1 #
coedge $-1 $321 $132 $134 $224 forward $81 $-1 #
coedge $-1 $132 $321 $217 $320 reversed $81 $-1 #
coedge $-1 $322 $135 $132 $221 forward $226 $-1 #
edge $-1 $228 6.8280836202528903 $323 24.866255403735003 $220 $324 forward 7 unknown #
coedge $-1 $325 $317 $133 $223 forward $215 $-1 #
edge $-1 $326 21.947485473244456 $227 29.466936141014216 $222 $327 forward 7 unknown #
edge $-1 $228 -123.98815881832331 $326 -113.16348430219594 $134 $328 forward 7 unknown #
coedge $-1 $135 $322 $325 $329 reversed $226 $-1 #
loop $-1 $-1 $220 $214 #
vertex $-1 $329 $330 #
vertex $-1 $136 $331 #
straight-curve $-1 61.994079409161657 22.675253132246837 90.207703468346992 0 0 -1 I I #
coedge $-1 $230 $230 $-1 $332 reversed $139 $-1 #
edge $-1 $333 0 $333 6.2831853071796004 $140 $334 forward 7 unknown #
vertex $-1 $143 $335 #
ellipse-curve $-1 58.234354075276769 27.829016498956008 8.9896868504844978 0.71933980857756763 0 0.69465836192734942 1.7366459048183736 0 -1.7983495214439191 1 I I #
coedge $-1 $234 $234 $-1 $336 reversed $146 $-1 #
edge $-1 $337 0 $337 6.2831853071796004 $147 $338 forward 7 unknown #
vertex $-1 $150 $339 #
ellipse-curve $-1 58.234354075276769 35.559661549019779 8.9896868504844978 0.71933980857756763 0 0.69465836192734942 1.7366459048183736 0 -1.7983495214439191 1 I I #
face $-1 $-1 $250 $32 $-1 $340 forward single #
loop $-1 $-1 $341 $151 #
plane-surface $-1 -61.994079409161657 0 0 1 0 0 0 0 -1 forward_v I I I I #
coedge $-1 $342 $343 $344 $345 reversed $152 $-1 #
coedge $-1 $346 $154 $156 $248 forward $95 $-1 #
coedge $-1 $154 $346 $342 $347 forward $95 $-1 #
coedge $-1 $344 $157 $154 $245 forward $250 $-1 #
edge $-1 $252 3.3331363597213404 $348 10.823347917506513 $244 $349 forward 7 unknown #
coedge $-1 $350 $351 $155 $247 forward $239 $-1 #
edge $-1 $352 -44.615724612175299 $251 -33.180476861390055 $246 $353 forward 7 unknown #
edge $-1 $252 -16.767265560258949 $352 -1.9479204584885432e-014 $156 $354 forward 7 unknown #
coedge $-1 $157 $344 $350 $355 forward $250 $-1 #
loop $-1 $-1 $344 $238 #
vertex $-1 $247 $356 #
vertex $-1 $158 $357 #
straight-curve $-1 -73.276900697888209 10.411378498335267 12.882996497657267 1 0 0 I I #
coedge $-1 $254 $254 $-1 $358 reversed $161 $-1 #
edge $-1 $359 0 $359 6.2831853071796004 $162 $360 forward 7 unknown #
vertex $-1 $165 $361 #
ellipse-curve $-1 -55.86267860578878 11.909420809892303 7.1653726222646448 -0.68199836817093118 0 0.7313536940579346 0.3656768470289673 0 0.34099918408546559 1 I I #
coedge $-1 $258 $258 $-1 $362 reversed $168 $-1 #
edge $-1 $363 0 $363 6.2831853071796004 $169 $364 forward 7 unknown #
vertex $-1 $172 $365 #
ellipse-curve $-1 -55.86267860578878 14.156484277227854 7.1653726222646448 -0.68199836817093118 0 0.7313536940579346 0.3656768470289673 0 0.34099918408546559 1 I I #
coedge $-1 $262 $262 $-1 $366 reversed $175 $-1 #
edge $-1 $367 0 $367 6.2831853071796004 $176 $368 forward 7 unknown #
vertex $-1 $179 $369 #
ellipse-curve $-1 -55.86267860578878 16.403547744563404 7.1653726222646448 -0.68199836817093118 0 0.7313536940579346 0.3656768470289673 0 0.34099918408546559 1 I I #
face $-1 $-1 $195 $27 $-1 $370 reversed single #
loop $-1 $-1 $282 $180 #
plane-surface $-1 0 40.71342491572895 0 0 -1 0 0 0 -1 forward_v I I I I #
coedge $-1 $371 $280 $283 $372 forward $181 $-1 #
coedge $-1 $286 $183 $184 $274 reversed $114 $-1 #
coedge $-1 $280 $371 $183 $272 reversed $181 $-1 #
edge $-1 $287 -12.882996497657265 $373 12.882996497657265 $271 $374 forward 7 unknown #
coedge $-1 $185 $184 $371 $375 forward $73 $-1 #
edge $-1 $278 -61.994079409161657 $373 61.994079409161657 $270 $376 forward 7 unknown #
coedge $-1 $283 $282 $185 $276 reversed $267 $-1 #
edge $-1 $377 -61.994079409161657 $277 61.994079409161657 $275 $378 forward 7 unknown #
vertex $-1 $187 $379 #
vertex $-1 $289 $380 #
straight-curve $-1 61.994079409161657 0 -12.882996497657265 0 -1 0 I I #
coedge $-1 $269 $271 $188 $281 reversed $181 $-1 #
edge $-1 $284 -40.71342491572895 $287 40.71342491572895 $280 $381 forward 7 unknown #
coedge $-1 $275 $189 $194 $290 forward $267 $-1 #
coedge $-1 $189 $275 $269 $372 reversed $267 $-1 #
vertex $-1 $190 $382 #
straight-curve $-1 0 40.71342491572895 12.882996497657265 -1 0 0 I I #
coedge $-1 $191 $270 $193 $289 reversed $114 $-1 #
vertex $-1 $281 $383 #
straight-curve $-1 0 -40.71342491572895 12.882996497657265 1 0 0 I I #
edge $-1 $196 -12.882996497657265 $278 12.882996497657265 $193 $384 forward 7 unknown #
edge $-1 $197 -12.882996497657265 $277 12.882996497657265 $194 $385 forward 7 unknown #
point $-1 61.994079409161657 -40.71342491572895 12.882996497657265 #
point $-1 61.994079409161657 40.71342491572895 12.882996497657265 #
face $-1 $-1 $310 $28 $-1 $386 forward single #
loop $-1 $-1 $387 $199 #
plane-surface $-1 -57.571109272917127 -45.164363185976569 0 -1 0 0 0 0 1 forward_v I I I I #
coedge $-1 $388 $202 $300 $389 reversed $122 $-1 #
coedge $-1 $202 $388 $390 $391 reversed $122 $-1 #
coedge $-1 $210 $209 $202 $299 reversed $200 $-1 #
edge $-1 $392 -12.882996497657265 $393 12.882996497657265 $298 $394 forward 7 unknown #
coedge $-1 $204 $203 $296 $389 forward $77 $-1 #
coedge $-1 $306 $387 $203 $302 reversed $294 $-1 #
edge $-1 $304 -4.4509382702476188 $395 4.4509382702476188 $301 $396 forward 7 unknown #
edge $-1 $393 -4.4509382702476188 $211 4.4509382702476188 $209 $397 forward 7 unknown #
vertex $-1 $302 $398 #
straight-curve $-1 0 -40.71342491572895 -12.882996497657265 1 0 0 I I #
coedge $-1 $399 $301 $206 $307 reversed $294 $-1 #
edge $-1 $311 -12.882996497657265 $304 12.882996497657265 $306 $400 forward 7 unknown #
coedge $-1 $390 $207 $210 $313 forward $310 $-1 #
coedge $-1 $207 $390 $399 $401 forward $310 $-1 #
loop $-1 $-1 $207 $293 #
vertex $-1 $208 $402 #
straight-curve $-1 0 -40.71342491572895 12.882996497657265 -1 0 0 I I #
edge $-1 $212 -4.4509382702476188 $392 4.4509382702476188 $210 $403 forward 7 unknown #
point $-1 -61.494079409161657 -40.71342491572895 -12.882996497657265 #
point $-1 -61.494079409161657 -40.71342491572895 12.882996497657265 #
plane-surface $-1 61.994079409161657 0 0 -1 0 0 0 0 1 forward_v I I I I #
coedge $-1 $222 $404 $321 $405 forward $215 $-1 #
coedge $-1 $319 $217 $404 $406 reversed $130 $-1 #
coedge $-1 $217 $318 $322 $407 forward $130 $-1 #
edge $-1 $323 -81.693418734008105 $408 -70.86874421788076 $217 $409 forward 7 unknown #
coedge $-1 $219 $218 $317 $405 reversed $81 $-1 #
coedge $-1 $225 $220 $319 $407 reversed $226 $-1 #
vertex $-1 $221 $410 #
straight-curve $-1 61.994079409161657 15.847169511993947 5.0963772033117252 0 1 0 I I #
coedge $-1 $404 $222 $225 $329 forward $215 $-1 #
vertex $-1 $223 $411 #
straight-curve $-1 32.527143268147441 22.675253132246837 12.88299649765726 1 0 0 I I #
straight-curve $-1 -24.135331893962856 22.675253132246837 94.28599563356947 -0.69465836192734942 0 0.71933980857756763 I I #
edge $-1 $227 22.675253132246837 $412 40.71342491572895 $225 $413 forward 7 unknown #
point $-1 61.994079409161657 22.675253132246837 12.882996497657265 #
point $-1 61.994079409161657 22.675253132246837 5.0963772033117181 #
edge $-1 $414 1 $414 0 $230 $-1 forward 7 unknown #
vertex $-1 $231 $415 #
ellipse-curve $-1 53.067289272414726 27.829016498956008 3.9999104900933928 0.71933980857756763 0 0.69465836192734942 1.7366459048183736 0 -1.7983495214439191 1 I I #
point $-1 59.970999980095144 27.829016498956008 7.1913373290405804 #
edge $-1 $416 1 $416 0 $234 $-1 forward 7 unknown #
vertex $-1 $235 $417 #
ellipse-curve $-1 53.067289272414726 35.559661549019779 3.9999104900933928 0.71933980857756763 0 0.69465836192734942 1.7366459048183736 0 -1.7983495214439191 1 I I #
point $-1 59.970999980095144 35.559661549019779 7.1913373290405804 #
plane-surface $-1 0 0 12.882996497657265 0 0 1 1 0 0 forward_v I I I I #
coedge $-1 $351 $350 $343 $418 forward $239 $-1 #
coedge $-1 $343 $241 $243 $347 reversed $152 $-1 #
coedge $-1 $241 $342 $341 $418 reversed $152 $-1 #
coedge $-1 $249 $244 $241 $345 forward $250 $-1 #
edge $-1 $348 -23.545622895472306 $419 -11.282821288726552 $344 $420 forward 7 unknown #
coedge $-1 $243 $242 $351 $421 reversed $95 $-1 #
edge $-1 $422 1.9479204584885432e-014 $348 16.767265560258949 $342 $423 forward 7 unknown #
vertex $-1 $245 $424 #
straight-curve $-1 -49.731277802415903 7.0782421386139269 12.882996497657267 0 1 0 I I #
coedge $-1 $341 $246 $249 $355 reversed $239 $-1 #
coedge $-1 $246 $341 $346 $421 forward $239 $-1 #
vertex $-1 $247 $425 #
straight-curve $-1 -61.994079409161657 10.411378498335267 46.063473359047322 0 0 1 I I #
straight-curve $-1 -61.994079409161671 10.411378498335267 1.4477487468720085 -0.7313536940579346 0 -0.68199836817093118 I I #
edge $-1 $419 -17.90159005612044 $251 -10.411378498335267 $350 $426 forward 7 unknown #
point $-1 -61.994079409161657 10.411378498335267 12.882996497657265 #
point $-1 -49.731277802415903 10.411378498335267 12.882996497657265 #
edge $-1 $427 1 $427 0 $254 $-1 forward 7 unknown #
vertex $-1 $255 $428 #
ellipse-curve $-1 -55.180680237617835 11.909420809892303 6.4340189282067 -0.68199836817093118 0 0.7313536940579346 0.3656768470289673 0 0.34099918408546559 1 I I #
point $-1 -55.497001758759801 11.909420809892303 7.506371806350101 #
edge $-1 $429 1 $429 0 $258 $-1 forward 7 unknown #
vertex $-1 $259 $430 #
ellipse-curve $-1 -55.180680237617835 14.156484277227854 6.4340189282067 -0.68199836817093118 0 0.7313536940579346 0.3656768470289673 0 0.34099918408546559 1 I I #
point $-1 -55.497001758759801 14.156484277227854 7.506371806350101 #
edge $-1 $431 1 $431 0 $262 $-1 forward 7 unknown #
vertex $-1 $263 $432 #
ellipse-curve $-1 -55.180680237617835 16.403547744563404 6.4340189282067 -0.68199836817093118 0 0.7313536940579346 0.3656768470289673 0 0.34099918408546559 1 I I #
point $-1 -55.497001758759801 16.403547744563404 7.506371806350101 #
plane-surface $-1 61.994079409161657 0 0 -1 0 0 0 0 1 forward_v I I I I #
coedge $-1 $271 $269 $273 $375 reversed $181 $-1 #
edge $-1 $284 -12.882996497657265 $377 12.882996497657265 $283 $433 forward 7 unknown #
vertex $-1 $375 $434 #
straight-curve $-1 -61.994079409161657 -40.71342491572895 0 0 0 -1 I I #
edge $-1 $373 -40.71342491572895 $377 40.71342491572895 $371 $435 forward 7 unknown #
straight-curve $-1 0 -40.71342491572895 -12.882996497657265 -1 0 0 I I #
vertex $-1 $276 $436 #
straight-curve $-1 0 40.71342491572895 -12.882996497657265 1 0 0 I I #
point $-1 61.994079409161657 40.71342491572895 -12.882996497657265 #
point $-1 61.994079409161657 -40.71342491572895 -12.882996497657265 #
straight-curve $-1 -61.994079409161657 0 12.882996497657265 0 -1 0 I I #
point $-1 -61.994079409161657 40.71342491572895 12.882996497657265 #
point $-1 -61.994079409161657 -40.71342491572895 12.882996497657265 #
straight-curve $-1 61.994079409161657 -40.71342491572895 0 0 0 -1 I I #
straight-curve $-1 61.994079409161657 40.71342491572895 0 0 0 -1 I I #
plane-surface $-1 0 0 12.882996497657265 0 0 1 1 0 0 forward_v I I I I #
coedge $-1 $301 $399 $388 $437 forward $294 $-1 #
coedge $-1 $297 $296 $387 $437 reversed $122 $-1 #
edge $-1 $395 -1.9614850681222649 $393 1.9614850681222649 $296 $438 forward 7 unknown #
coedge $-1 $309 $308 $297 $391 forward $310 $-1 #
edge $-1 $392 -1.9614850681222649 $439 1.9614850681222649 $297 $440 forward 7 unknown #
vertex $-1 $313 $441 #
vertex $-1 $303 $442 #
straight-curve $-1 -61.494079409161657 -49.615301456224188 0 0 0 -1 I I #
vertex $-1 $437 $443 #
straight-curve $-1 -57.571109272917127 -45.164363185976569 -12.882996497657265 0 -1 0 I I #
straight-curve $-1 -61.494079409161657 -45.164363185976569 -12.882996497657265 0 1 0 I I #
point $-1 -57.571109272917127 -40.71342491572895 -12.882996497657265 #
coedge $-1 $387 $306 $309 $401 reversed $294 $-1 #
straight-curve $-1 -57.571109272917127 -40.71342491572895 0 0 0 -1 I I #
edge $-1 $439 -4.4509382702476188 $311 4.4509382702476188 $399 $444 forward 7 unknown #
point $-1 -57.571109272917127 -40.71342491572895 12.882996497657265 #
straight-curve $-1 -61.494079409161657 -45.164363185976569 12.882996497657265 0 -1 0 I I #
coedge $-1 $317 $325 $318 $406 forward $215 $-1 #
edge $-1 $408 -24.866255403735003 $326 -6.8280836202528903 $317 $445 forward 7 unknown #
edge $-1 $412 -61.994079409161657 $408 -54.474628741391896 $318 $446 forward 7 unknown #
edge $-1 $412 -12.882996497657265 $323 -5.0963772033117332 $322 $447 forward 7 unknown #
vertex $-1 $405 $448 #
straight-curve $-1 5.2450629711505421 40.71342491572895 63.861705397480208 -0.69465836192734942 0 0.71933980857756763 I I #
point $-1 61.994079409161657 40.71342491572895 5.0963772033117332 #
point $-1 54.474628741391896 22.675253132246837 12.88299649765726 #
vertex $-1 $329 $449 #
straight-curve $-1 61.994079409161657 0 12.882996497657265 0 1 0 I I #
vertex $-1 $332 $450 #
point $-1 54.8039351772331 27.829016498956008 2.2015609686494737 #
vertex $-1 $336 $451 #
point $-1 54.8039351772331 35.559661549019779 2.2015609686494737 #
edge $-1 $419 33.180476861390055 $422 44.615724612175299 $341 $452 forward 7 unknown #
vertex $-1 $355 $453 #
straight-curve $-1 -73.276900697888209 17.90159005612044 12.882996497657267 -1 0 0 I I #
edge $-1 $422 -10.823347917506513 $352 -3.3331363597213404 $351 $454 forward 7 unknown #
vertex $-1 $421 $455 #
straight-curve $-1 -61.994079409161671 17.90159005612044 1.4477487468720085 0.7313536940579346 0 0.68199836817093118 I I #
point $-1 -49.731277802415903 17.90159005612044 12.882996497657265 #
point $-1 -61.994079409161657 10.411378498335267 1.4477487468720218 #
straight-curve $-1 -61.994079409161657 0 12.882996497657265 0 -1 0 I I #
vertex $-1 $358 $456 #
point $-1 -54.815003390588871 11.909420809892303 6.775018112292166 #
vertex $-1 $362 $457 #
point $-1 -54.815003390588871 14.156484277227854 6.775018112292166 #
vertex $-1 $366 $458 #
point $-1 -54.815003390588871 16.403547744563404 6.775018112292166 #
straight-curve $-1 -61.994079409161657 40.71342491572895 0 0 0 -1 I I #
point $-1 -61.994079409161657 -40.71342491572895 -12.882996497657265 #
straight-curve $-1 -61.994079409161657 0 -12.882996497657265 0 1 0 I I #
point $-1 -61.994079409161657 40.71342491572895 -12.882996497657265 #
edge $-1 $439 -12.882996497657265 $395 12.882996497657265 $387 $459 forward 7 unknown #
straight-curve $-1 -59.532594341039392 -49.615301456224188 -12.882996497657265 -1 0 0 I I #
vertex $-1 $401 $460 #
straight-curve $-1 -59.532594341039392 -49.615301456224188 12.882996497657265 1 0 0 I I #
point $-1 -61.494079409161657 -49.615301456224188 12.882996497657265 #
point $-1 -61.494079409161657 -49.615301456224188 -12.882996497657265 #
point $-1 -57.571109272917127 -49.615301456224188 -12.882996497657265 #
straight-curve $-1 -57.571109272917127 -45.164363185976569 12.882996497657265 0 1 0 I I #
straight-curve $-1 54.474628741391882 15.847169511993947 12.882996497657281 0 -1 0 I I #
straight-curve $-1 0 40.71342491572895 12.882996497657265 -1 0 0 I I #
straight-curve $-1 61.994079409161657 40.71342491572895 0 0 0 -1 I I #
point $-1 54.474628741391896 40.71342491572895 12.88299649765726 #
point $-1 61.994079409161657 40.71342491572895 12.882996497657265 #
point $-1 51.268939750970802 27.829016498956008 2.2632645852750195 #
point $-1 51.268939750970802 35.559661549019779 2.2632645852750195 #
straight-curve $-1 -61.994079409161657 17.90159005612044 46.063473359047322 0 0 -1 I I #
point $-1 -61.994079409161657 17.90159005612044 12.882996497657265 #
straight-curve $-1 -61.994079409161657 7.0782421386139269 1.447748746872022 0 -1 0 I I #
point $-1 -61.994079409161657 17.90159005612044 1.4477487468720218 #
point $-1 -54.839681053532374 11.909420809892303 6.0683420811777333 #
point $-1 -54.839681053532374 14.156484277227854 6.0683420811777333 #
point $-1 -54.839681053532374 16.403547744563404 6.0683420811777333 #
straight-curve $-1 -57.571109272917127 -49.615301456224188 0 0 0 -1 I I #
point $-1 -57.571109272917127 -49.615301456224188 12.882996497657265 #
End-of-ACIS-data 